EXTRACT: sysex data=(126,127,9,1) time=0
EXTRACT: sysex data=(65,16,66,18,64,0,127,0,65) time=0
EXTRACT: sysex data=(65,16,66,18,64,1,51,80,60) time=0
EXTRACT: sysex data=(65,16,66,18,64,1,52,72,67) time=0
EXTRACT: sysex data=(65,16,66,18,64,1,0,32,40,99,41,32,77,73,68,73,32,83,79,78,71,83,32,94) time=0
EXTRACT: control_change channel=1 control=121 value=0 time=0.44354841666666667
EXTRACT: control_change channel=2 control=121 value=0 time=0.005040322916666667
EXTRACT: control_change channel=3 control=121 value=0 time=0.007560484375000001
EXTRACT: control_change channel=4 control=121 value=0 time=0.005040322916666667
EXTRACT: control_change channel=7 control=121 value=0 time=0.005040322916666667
EXTRACT: control_change channel=5 control=121 value=0 time=0.007560484375000001
EXTRACT: control_change channel=6 control=121 value=0 time=0.005040322916666667
EXTRACT: control_change channel=13 control=121 value=0 time=0.007560484375000001
EXTRACT: control_change channel=9 control=121 value=0 time=0.005040322916666667
EXTRACT: control_change channel=12 control=121 value=0 time=0.007560484375000001
EXTRACT: control_change channel=8 control=121 value=0 time=0.007560484375000001
EXTRACT: control_change channel=11 control=121 value=0 time=0.005040322916666667
EXTRACT: control_change channel=10 control=121 value=0 time=0.007560484375000001
EXTRACT: pitchwheel channel=1 pitch=0 time=0.060483875000000006
EXTRACT: pitchwheel channel=2 pitch=0 time=0.005040322916666667
EXTRACT: pitchwheel channel=3 pitch=0 time=0.007560484375000001
EXTRACT: pitchwheel channel=4 pitch=0 time=0.005040322916666667
EXTRACT: pitchwheel channel=7 pitch=0 time=0.005040322916666667
EXTRACT: control_change channel=1 control=7 value=93 time=0.0025201614583333335
EXTRACT: pitchwheel channel=6 pitch=0 time=0.0025201614583333335
EXTRACT: control_change channel=2 control=7 value=96 time=0.0025201614583333335
EXTRACT: pitchwheel channel=5 pitch=0 time=0
EXTRACT: control_change channel=3 control=7 value=96 time=0.007560484375000001
EXTRACT: control_change channel=4 control=7 value=93 time=0.005040322916666667
EXTRACT: pitchwheel channel=13 pitch=0 time=0
EXTRACT: control_change channel=7 control=7 value=98 time=0.005040322916666667
EXTRACT: pitchwheel channel=9 pitch=0 time=0
EXTRACT: control_change channel=5 control=7 value=99 time=0.007560484375000001
EXTRACT: pitchwheel channel=12 pitch=0 time=0
EXTRACT: control_change channel=6 control=7 value=95 time=0.005040322916666667
EXTRACT: pitchwheel channel=8 pitch=0 time=0.0025201614583333335
EXTRACT: control_change channel=1 control=91 value=10 time=0.0025201614583333335
EXTRACT: pitchwheel channel=11 pitch=0 time=0.0025201614583333335
EXTRACT: control_change channel=13 control=7 value=74 time=0
EXTRACT: control_change channel=2 control=91 value=0 time=0.0025201614583333335
EXTRACT: control_change channel=9 control=7 value=18 time=0.0025201614583333335
EXTRACT: pitchwheel channel=10 pitch=0 time=0.0025201614583333335
EXTRACT: control_change channel=3 control=91 value=100 time=0.0025201614583333335
EXTRACT: control_change channel=12 control=7 value=93 time=0.0025201614583333335
EXTRACT: control_change channel=4 control=91 value=80 time=0.0025201614583333335
EXTRACT: control_change channel=7 control=91 value=127 time=0.005040322916666667
EXTRACT: control_change channel=8 control=7 value=7 time=0
EXTRACT: control_change channel=11 control=7 value=7 time=0.005040322916666667
EXTRACT: control_change channel=5 control=91 value=70 time=0.0025201614583333335
EXTRACT: control_change channel=6 control=91 value=92 time=0.005040322916666667
EXTRACT: control_change channel=10 control=7 value=106 time=0
EXTRACT: control_change channel=13 control=91 value=38 time=0.007560484375000001
EXTRACT: control_change channel=1 control=93 value=60 time=0.0025201614583333335
EXTRACT: control_change channel=9 control=91 value=127 time=0.0025201614583333335
EXTRACT: control_change channel=2 control=93 value=35 time=0.0025201614583333335
EXTRACT: control_change channel=12 control=91 value=0 time=0.005040322916666667
EXTRACT: control_change channel=3 control=93 value=12 time=0.0025201614583333335
EXTRACT: control_change channel=4 control=93 value=24 time=0.005040322916666667
EXTRACT: control_change channel=8 control=91 value=75 time=0
EXTRACT: control_change channel=7 control=93 value=28 time=0.005040322916666667
EXTRACT: control_change channel=11 control=91 value=116 time=0
EXTRACT: control_change channel=5 control=93 value=24 time=0.007560484375000001
EXTRACT: control_change channel=10 control=91 value=15 time=0
EXTRACT: control_change channel=1 control=10 value=64 time=0.005040322916666667
EXTRACT: control_change channel=6 control=93 value=44 time=0
EXTRACT: control_change channel=2 control=10 value=64 time=0.005040322916666667
EXTRACT: control_change channel=13 control=93 value=58 time=0.0025201614583333335
EXTRACT: control_change channel=3 control=10 value=70 time=0.005040322916666667
EXTRACT: control_change channel=9 control=93 value=46 time=0
EXTRACT: control_change channel=4 control=10 value=40 time=0.005040322916666667
EXTRACT: control_change channel=12 control=93 value=50 time=0.0025201614583333335
EXTRACT: control_change channel=7 control=10 value=90 time=0.0025201614583333335
EXTRACT: control_change channel=8 control=93 value=0 time=0.005040322916666667
EXTRACT: control_change channel=5 control=10 value=32 time=0.0025201614583333335
EXTRACT: control_change channel=11 control=93 value=7 time=0.0025201614583333335
EXTRACT: control_change channel=6 control=10 value=92 time=0.0025201614583333335
EXTRACT: control_change channel=1 control=11 value=127 time=0.005040322916666667
EXTRACT: control_change channel=10 control=93 value=35 time=0
EXTRACT: control_change channel=13 control=10 value=87 time=0.0025201614583333335
EXTRACT: control_change channel=2 control=11 value=127 time=0.0025201614583333335
EXTRACT: control_change channel=3 control=11 value=127 time=0.007560484375000001
EXTRACT: control_change channel=12 control=10 value=64 time=0.0025201614583333335
EXTRACT: control_change channel=4 control=11 value=127 time=0.0025201614583333335
EXTRACT: control_change channel=7 control=11 value=127 time=0.005040322916666667
EXTRACT: control_change channel=8 control=10 value=80 time=0
EXTRACT: control_change channel=11 control=10 value=105 time=0.005040322916666667
EXTRACT: control_change channel=5 control=11 value=127 time=0.0025201614583333335
EXTRACT: control_change channel=6 control=11 value=127 time=0.005040322916666667
EXTRACT: control_change channel=10 control=10 value=36 time=0
EXTRACT: control_change channel=13 control=11 value=127 time=0.007560484375000001
EXTRACT: control_change channel=9 control=11 value=127 time=0.007560484375000001
EXTRACT: control_change channel=12 control=11 value=127 time=0.005040322916666667
EXTRACT: control_change channel=8 control=11 value=127 time=0.007560484375000001
EXTRACT: control_change channel=11 control=11 value=127 time=0.005040322916666667
EXTRACT: control_change channel=10 control=11 value=127 time=0.007560484375000001
EXTRACT: program_change channel=9 program=0 time=0.022681453125
EXTRACT: control_change channel=15 control=121 value=0 time=0.005040322916666667
EXTRACT: control_change channel=1 control=0 value=0 time=0.017641130208333335
EXTRACT: control_change channel=1 control=32 value=0 time=0
EXTRACT: program_change channel=1 program=33 time=0
EXTRACT: control_change channel=2 control=0 value=0 time=0.04536290625
EXTRACT: control_change channel=2 control=32 value=0 time=0
EXTRACT: program_change channel=2 program=3 time=0
EXTRACT: control_change channel=3 control=0 value=0 time=0.007560484375000001
EXTRACT: control_change channel=3 control=32 value=0 time=0
EXTRACT: program_change channel=3 program=81 time=0
EXTRACT: control_change channel=4 control=0 value=0 time=0.005040322916666667
EXTRACT: control_change channel=4 control=32 value=0 time=0
EXTRACT: program_change channel=4 program=53 time=0
EXTRACT: control_change channel=7 control=0 value=0 time=0.005040322916666667
EXTRACT: control_change channel=7 control=32 value=0 time=0
EXTRACT: program_change channel=7 program=52 time=0
EXTRACT: control_change channel=5 control=0 value=0 time=0.007560484375000001
EXTRACT: control_change channel=5 control=32 value=0 time=0
EXTRACT: program_change channel=5 program=53 time=0
EXTRACT: control_change channel=6 control=0 value=0 time=0.005040322916666667
EXTRACT: control_change channel=6 control=32 value=0 time=0
EXTRACT: program_change channel=6 program=53 time=0
EXTRACT: control_change channel=13 control=0 value=0 time=0.007560484375000001
EXTRACT: control_change channel=13 control=32 value=0 time=0
EXTRACT: program_change channel=13 program=1 time=0
EXTRACT: control_change channel=12 control=0 value=0 time=0.012600807291666667
EXTRACT: control_change channel=12 control=32 value=8 time=0
EXTRACT: program_change channel=12 program=118 time=0
EXTRACT: control_change channel=8 control=0 value=0 time=0.007560484375000001
EXTRACT: control_change channel=8 control=32 value=0 time=0
EXTRACT: program_change channel=8 program=122 time=0
EXTRACT: pitchwheel channel=15 pitch=0 time=0.0025201614583333335
EXTRACT: control_change channel=11 control=0 value=0 time=0.0025201614583333335
EXTRACT: control_change channel=11 control=32 value=0 time=0
EXTRACT: program_change channel=11 program=56 time=0
EXTRACT: control_change channel=15 control=7 value=100 time=0
EXTRACT: control_change channel=15 control=10 value=64 time=0.0025201614583333335
EXTRACT: control_change channel=15 control=11 value=127 time=0.0025201614583333335
EXTRACT: control_change channel=10 control=0 value=0 time=0.0025201614583333335
EXTRACT: control_change channel=10 control=32 value=0 time=0
EXTRACT: program_change channel=10 program=75 time=0
EXTRACT: control_change channel=15 control=91 value=0 time=0
EXTRACT: control_change channel=15 control=93 value=0 time=0.0025201614583333335
EXTRACT: control_change channel=15 control=0 value=0 time=0.12348791145833334
EXTRACT: control_change channel=9 control=99 value=24 time=0.040322583333333335
EXTRACT: control_change channel=9 control=98 value=35 time=0
EXTRACT: control_change channel=9 control=6 value=73 time=0
EXTRACT: control_change channel=9 control=38 value=0 time=0
EXTRACT: control_change channel=1 control=99 value=1 time=0.05544355208333333
EXTRACT: control_change channel=1 control=98 value=32 time=0
EXTRACT: control_change channel=1 control=6 value=17 time=0
EXTRACT: control_change channel=1 control=38 value=0 time=0
EXTRACT: control_change channel=15 control=17 value=8 time=0.027721776041666667
EXTRACT: control_change channel=3 control=99 value=1 time=0.005040322916666667
EXTRACT: control_change channel=3 control=98 value=33 time=0
EXTRACT: control_change channel=3 control=6 value=80 time=0
EXTRACT: control_change channel=3 control=38 value=0 time=0
EXTRACT: control_change channel=7 control=99 value=1 time=0.025201614583333334
EXTRACT: control_change channel=7 control=98 value=99 time=0
EXTRACT: control_change channel=7 control=6 value=63 time=0
EXTRACT: control_change channel=7 control=38 value=0 time=0
EXTRACT: control_change channel=8 control=99 value=1 time=0.012600807291666667
EXTRACT: control_change channel=8 control=98 value=99 time=0
EXTRACT: control_change channel=8 control=6 value=40 time=0
EXTRACT: control_change channel=8 control=38 value=0 time=0
EXTRACT: control_change channel=9 control=99 value=24 time=0.13608871875
EXTRACT: control_change channel=9 control=98 value=40 time=0
EXTRACT: control_change channel=9 control=6 value=70 time=0
EXTRACT: control_change channel=9 control=38 value=0 time=0
EXTRACT: control_change channel=3 control=99 value=1 time=0.08820565104166667
EXTRACT: control_change channel=3 control=98 value=32 time=0
EXTRACT: control_change channel=3 control=6 value=46 time=0
EXTRACT: control_change channel=3 control=38 value=0 time=0
EXTRACT: control_change channel=8 control=99 value=1 time=0.017641130208333335
EXTRACT: control_change channel=8 control=98 value=102 time=0
EXTRACT: control_change channel=8 control=6 value=76 time=0
EXTRACT: control_change channel=8 control=38 value=0 time=0
EXTRACT: control_change channel=9 control=99 value=24 time=0.14616936458333335
EXTRACT: control_change channel=9 control=98 value=72 time=0
EXTRACT: control_change channel=9 control=6 value=69 time=0
EXTRACT: control_change channel=9 control=38 value=0 time=0
EXTRACT: control_change channel=8 control=99 value=1 time=0.08820565104166667
EXTRACT: control_change channel=8 control=98 value=100 time=0
EXTRACT: control_change channel=8 control=6 value=78 time=0
EXTRACT: control_change channel=8 control=38 value=0 time=0
EXTRACT: control_change channel=9 control=99 value=24 time=0.18397178645833334
EXTRACT: control_change channel=9 control=98 value=86 time=0
EXTRACT: control_change channel=9 control=6 value=54 time=0
EXTRACT: control_change channel=9 control=38 value=0 time=0
EXTRACT: control_change channel=9 control=99 value=24 time=0.22681453125
EXTRACT: control_change channel=9 control=98 value=79 time=0
EXTRACT: control_change channel=9 control=6 value=63 time=0
EXTRACT: control_change channel=9 control=38 value=0 time=0
EXTRACT: control_change channel=9 control=99 value=24 time=0.24193550000000003
EXTRACT: control_change channel=9 control=98 value=78 time=0
EXTRACT: control_change channel=9 control=6 value=63 time=0
EXTRACT: control_change channel=9 control=38 value=0 time=0
EXTRACT: control_change channel=9 control=99 value=29 time=0.3906250260416667
EXTRACT: control_change channel=9 control=98 value=35 time=0
EXTRACT: control_change channel=9 control=6 value=0 time=0
EXTRACT: control_change channel=9 control=38 value=0 time=0
EXTRACT: control_change channel=8 control=7 value=10 time=1.0156250677083334
EXTRACT: note_on channel=9 note=52 velocity=40 time=0
EXTRACT: note_on channel=9 note=58 velocity=36 time=0
EXTRACT: note_on channel=9 note=87 velocity=44 time=0
EXTRACT: control_change channel=11 control=7 value=12 time=0
EXTRACT: note_on channel=11 note=46 velocity=72 time=0
EXTRACT: note_on channel=8 note=50 velocity=48 time=0.005040322916666667
EXTRACT: note_on channel=9 note=87 velocity=0 time=0.005040322916666667
EXTRACT: note_on channel=9 note=52 velocity=0 time=0
EXTRACT: note_on channel=9 note=58 velocity=0 time=0
EXTRACT: control_change channel=8 control=7 value=12 time=0.05040322916666667
EXTRACT: control_change channel=11 control=7 value=13 time=0
EXTRACT: control_change channel=8 control=7 value=13 time=0.060483875000000006
EXTRACT: control_change channel=11 control=7 value=15 time=0
EXTRACT: control_change channel=8 control=7 value=14 time=0.060483875000000006
EXTRACT: control_change channel=11 control=7 value=16 time=0
EXTRACT: note_on channel=11 note=46 velocity=0 time=0.05544355208333333
EXTRACT: control_change channel=8 control=7 value=16 time=0.005040322916666667
EXTRACT: control_change channel=9 control=7 value=28 time=0
EXTRACT: note_on channel=9 note=58 velocity=29 time=0
EXTRACT: note_on channel=9 note=86 velocity=56 time=0
EXTRACT: note_on channel=9 note=86 velocity=0 time=0.010080645833333334
EXTRACT: note_on channel=9 note=58 velocity=0 time=0
EXTRACT: note_on channel=7 note=60 velocity=10 time=0.0025201614583333335
EXTRACT: note_on channel=9 note=67 velocity=50 time=0.04536290625
EXTRACT: control_change channel=8 control=7 value=17 time=0.0025201614583333335
EXTRACT: control_change channel=9 control=7 value=31 time=0
EXTRACT: note_on channel=9 note=67 velocity=0 time=0.007560484375000001
EXTRACT: control_change channel=8 control=7 value=19 time=0.052923390625000004
EXTRACT: note_on channel=8 note=57 velocity=45 time=0.05796371354166667
EXTRACT: control_change channel=8 control=7 value=20 time=0.0025201614583333335
EXTRACT: control_change channel=9 control=7 value=36 time=0
EXTRACT: note_on channel=9 note=67 velocity=35 time=0.012600807291666667
EXTRACT: note_on channel=9 note=67 velocity=0 time=0.010080645833333334
EXTRACT: control_change channel=8 control=7 value=22 time=0.037802421875
EXTRACT: control_change channel=9 control=7 value=38 time=0
EXTRACT: note_on channel=9 note=58 velocity=44 time=0
EXTRACT: note_on channel=9 note=87 velocity=45 time=0
EXTRACT: control_change channel=11 control=7 value=25 time=0
EXTRACT: note_on channel=11 note=41 velocity=89 time=0
EXTRACT: note_on channel=9 note=87 velocity=0 time=0.010080645833333334
EXTRACT: note_on channel=9 note=58 velocity=0 time=0
EXTRACT: note_on channel=7 note=61 velocity=18 time=0.012600807291666667
EXTRACT: note_on channel=7 note=60 velocity=0 time=0.005040322916666667
EXTRACT: control_change channel=8 control=7 value=23 time=0.03276209895833333
EXTRACT: control_change channel=9 control=7 value=40 time=0
EXTRACT: note_on channel=9 note=67 velocity=33 time=0
EXTRACT: control_change channel=11 control=7 value=26 time=0
EXTRACT: note_on channel=9 note=67 velocity=0 time=0.010080645833333334
EXTRACT: control_change channel=8 control=7 value=25 time=0.012600807291666667
EXTRACT: control_change channel=11 control=7 value=28 time=0
EXTRACT: control_change channel=8 control=7 value=26 time=0.060483875000000006
EXTRACT: control_change channel=9 control=7 value=45 time=0
EXTRACT: control_change channel=11 control=7 value=29 time=0
EXTRACT: note_on channel=9 note=67 velocity=37 time=0.03528226041666667
EXTRACT: note_on channel=9 note=67 velocity=0 time=0.010080645833333334
EXTRACT: note_on channel=7 note=61 velocity=0 time=0
EXTRACT: note_on channel=7 note=60 velocity=24 time=0.015120968750000002
EXTRACT: control_change channel=8 control=7 value=27 time=0
EXTRACT: control_change channel=9 control=7 value=47 time=0
EXTRACT: note_on channel=9 note=58 velocity=32 time=0
EXTRACT: note_on channel=9 note=86 velocity=60 time=0
EXTRACT: control_change channel=11 control=7 value=31 time=0
EXTRACT: note_on channel=9 note=86 velocity=0 time=0.010080645833333334
EXTRACT: note_on channel=9 note=58 velocity=0 time=0
EXTRACT: note_on channel=11 note=41 velocity=0 time=0.005040322916666667
EXTRACT: control_change channel=8 control=7 value=28 time=0.04536290625
EXTRACT: control_change channel=9 control=7 value=50 time=0
EXTRACT: note_on channel=9 note=67 velocity=50 time=0.05796371354166667
EXTRACT: control_change channel=8 control=7 value=30 time=0.0025201614583333335
EXTRACT: note_on channel=9 note=67 velocity=0 time=0.007560484375000001
EXTRACT: note_on channel=8 note=50 velocity=0 time=0.010080645833333334
EXTRACT: control_change channel=8 control=7 value=31 time=0.04284274479166667
EXTRACT: note_on channel=8 note=52 velocity=53 time=0.0025201614583333335
EXTRACT: control_change channel=8 control=7 value=33 time=0.05796371354166667
EXTRACT: control_change channel=9 control=7 value=56 time=0
EXTRACT: note_on channel=9 note=52 velocity=40 time=0
EXTRACT: note_on channel=9 note=58 velocity=38 time=0
EXTRACT: note_on channel=9 note=87 velocity=44 time=0
EXTRACT: control_change channel=11 control=7 value=38 time=0
EXTRACT: note_on channel=11 note=46 velocity=68 time=0
EXTRACT: note_on channel=7 note=63 velocity=39 time=0.007560484375000001
EXTRACT: note_on channel=9 note=87 velocity=0 time=0.0025201614583333335
EXTRACT: note_on channel=9 note=52 velocity=0 time=0
EXTRACT: note_on channel=9 note=58 velocity=0 time=0
EXTRACT: note_on channel=7 note=60 velocity=0 time=0.007560484375000001
EXTRACT: control_change channel=8 control=7 value=34 time=0.04284274479166667
EXTRACT: control_change channel=11 control=7 value=39 time=0
EXTRACT: control_change channel=8 control=7 value=36 time=0.060483875000000006
EXTRACT: control_change channel=9 control=7 value=61 time=0
EXTRACT: note_on channel=9 note=67 velocity=42 time=0
EXTRACT: control_change channel=11 control=7 value=41 time=0
EXTRACT: note_on channel=9 note=67 velocity=0 time=0.010080645833333334
EXTRACT: control_change channel=8 control=7 value=37 time=0.05040322916666667
EXTRACT: control_change channel=11 control=7 value=42 time=0
EXTRACT: control_change channel=8 control=7 value=39 time=0.060483875000000006
EXTRACT: control_change channel=9 control=7 value=66 time=0
EXTRACT: note_on channel=9 note=58 velocity=31 time=0
EXTRACT: note_on channel=9 note=86 velocity=62 time=0
EXTRACT: control_change channel=11 control=7 value=44 time=0
EXTRACT: note_on channel=9 note=86 velocity=0 time=0.010080645833333334
EXTRACT: note_on channel=9 note=58 velocity=0 time=0
EXTRACT: note_on channel=9 note=67 velocity=40 time=0.022681453125
EXTRACT: note_on channel=9 note=67 velocity=0 time=0.010080645833333334
EXTRACT: note_on channel=11 note=46 velocity=0 time=0.007560484375000001
EXTRACT: control_change channel=8 control=7 value=40 time=0.010080645833333334
EXTRACT: control_change channel=8 control=7 value=41 time=0.060483875000000006
EXTRACT: note_on channel=7 note=63 velocity=0 time=0.05040322916666667
EXTRACT: control_change channel=8 control=7 value=43 time=0.010080645833333334
EXTRACT: note_on channel=8 note=59 velocity=62 time=0.012600807291666667
EXTRACT: note_on channel=7 note=60 velocity=41 time=0.010080645833333334
EXTRACT: control_change channel=8 control=7 value=44 time=0.037802421875
EXTRACT: control_change channel=9 control=7 value=75 time=0
EXTRACT: note_on channel=9 note=58 velocity=39 time=0
EXTRACT: note_on channel=9 note=87 velocity=56 time=0
EXTRACT: control_change channel=11 control=7 value=51 time=0
EXTRACT: note_on channel=11 note=50 velocity=80 time=0
EXTRACT: note_on channel=8 note=57 velocity=0 time=0.005040322916666667
EXTRACT: note_on channel=9 note=58 velocity=0 time=0.005040322916666667
EXTRACT: note_on channel=9 note=87 velocity=0 time=0
EXTRACT: note_on channel=9 note=67 velocity=37 time=0.027721776041666667
EXTRACT: note_on channel=9 note=67 velocity=0 time=0.010080645833333334
EXTRACT: control_change channel=8 control=7 value=46 time=0.012600807291666667
EXTRACT: control_change channel=11 control=7 value=53 time=0
EXTRACT: control_change channel=8 control=7 value=47 time=0.060483875000000006
EXTRACT: control_change channel=9 control=7 value=79 time=0
EXTRACT: control_change channel=11 control=7 value=54 time=0
EXTRACT: note_on channel=9 note=67 velocity=40 time=0.04536290625
EXTRACT: note_on channel=9 note=67 velocity=0 time=0.010080645833333334
EXTRACT: control_change channel=8 control=7 value=49 time=0.005040322916666667
EXTRACT: control_change channel=9 control=7 value=81 time=0
EXTRACT: control_change channel=11 control=7 value=55 time=0
EXTRACT: control_change channel=8 control=7 value=50 time=0.060483875000000006
EXTRACT: control_change channel=9 control=7 value=83 time=0
EXTRACT: note_on channel=9 note=58 velocity=29 time=0
EXTRACT: note_on channel=9 note=86 velocity=55 time=0
EXTRACT: control_change channel=11 control=7 value=57 time=0
EXTRACT: note_on channel=9 note=86 velocity=0 time=0.010080645833333334
EXTRACT: note_on channel=9 note=58 velocity=0 time=0
EXTRACT: note_on channel=11 note=50 velocity=0 time=0.017641130208333335
EXTRACT: control_change channel=8 control=7 value=52 time=0.03276209895833333
EXTRACT: control_change channel=8 control=7 value=53 time=0.060483875000000006
EXTRACT: note_on channel=8 note=52 velocity=0 time=0.060483875000000006
EXTRACT: control_change channel=8 control=7 value=54 time=0
EXTRACT: control_change channel=9 control=7 value=91 time=0
EXTRACT: note_on channel=8 note=53 velocity=56 time=0.015120968750000002
EXTRACT: note_on channel=9 note=67 velocity=44 time=0.010080645833333334
EXTRACT: note_on channel=9 note=67 velocity=0 time=0.010080645833333334
EXTRACT: note_on channel=7 note=58 velocity=41 time=0.015120968750000002
EXTRACT: control_change channel=8 control=7 value=55 time=0.010080645833333334
EXTRACT: note_on channel=9 note=52 velocity=40 time=0
EXTRACT: note_on channel=9 note=58 velocity=42 time=0
EXTRACT: note_on channel=9 note=87 velocity=55 time=0
EXTRACT: control_change channel=11 control=7 value=64 time=0
EXTRACT: note_on channel=11 note=46 velocity=55 time=0
EXTRACT: note_on channel=7 note=60 velocity=0 time=0.005040322916666667
EXTRACT: control_change channel=9 control=7 value=93 time=0
EXTRACT: note_on channel=9 note=52 velocity=0 time=0.005040322916666667
EXTRACT: note_on channel=9 note=58 velocity=0 time=0
EXTRACT: note_on channel=9 note=87 velocity=0 time=0
EXTRACT: control_change channel=8 control=7 value=57 time=0.05040322916666667
EXTRACT: control_change channel=11 control=7 value=66 time=0
EXTRACT: note_on channel=9 note=67 velocity=44 time=0.037802421875
EXTRACT: note_on channel=9 note=67 velocity=0 time=0.010080645833333334
EXTRACT: control_change channel=8 control=7 value=58 time=0.012600807291666667
EXTRACT: control_change channel=11 control=7 value=67 time=0
EXTRACT: control_change channel=8 control=7 value=60 time=0.060483875000000006
EXTRACT: control_change channel=11 control=7 value=68 time=0
EXTRACT: note_on channel=9 note=67 velocity=37 time=0.040322583333333335
EXTRACT: note_on channel=9 note=67 velocity=0 time=0.010080645833333334
EXTRACT: control_change channel=8 control=7 value=61 time=0.010080645833333334
EXTRACT: note_on channel=9 note=58 velocity=27 time=0
EXTRACT: note_on channel=9 note=86 velocity=60 time=0
EXTRACT: control_change channel=11 control=7 value=70 time=0
EXTRACT: note_on channel=9 note=86 velocity=0 time=0.010080645833333334
EXTRACT: note_on channel=9 note=58 velocity=0 time=0
EXTRACT: note_on channel=11 note=46 velocity=0 time=0.027721776041666667
EXTRACT: control_change channel=8 control=7 value=63 time=0.022681453125
EXTRACT: note_on channel=9 note=67 velocity=38 time=0.040322583333333335
EXTRACT: note_on channel=9 note=67 velocity=0 time=0.010080645833333334
EXTRACT: control_change channel=8 control=7 value=65 time=0.010080645833333334
EXTRACT: control_change channel=8 control=7 value=66 time=0.060483875000000006
EXTRACT: control_change channel=11 control=7 value=75 time=0
EXTRACT: note_on channel=8 note=59 velocity=0 time=0.012600807291666667
EXTRACT: note_on channel=7 note=60 velocity=45 time=0.010080645833333334
EXTRACT: note_on channel=8 note=57 velocity=57 time=0
EXTRACT: control_change channel=8 control=7 value=67 time=0.037802421875
EXTRACT: note_on channel=9 note=58 velocity=44 time=0
EXTRACT: note_on channel=9 note=87 velocity=56 time=0
EXTRACT: note_on channel=11 note=50 velocity=60 time=0
EXTRACT: note_on channel=7 note=58 velocity=0 time=0.0025201614583333335
EXTRACT: note_on channel=9 note=67 velocity=44 time=0.005040322916666667
EXTRACT: note_on channel=9 note=58 velocity=0 time=0.0025201614583333335
EXTRACT: note_on channel=9 note=87 velocity=0 time=0
EXTRACT: note_on channel=9 note=67 velocity=0 time=0.007560484375000001
EXTRACT: control_change channel=8 control=7 value=68 time=0.04284274479166667
EXTRACT: control_change channel=8 control=7 value=70 time=0.060483875000000006
EXTRACT: control_change channel=8 control=7 value=71 time=0.060483875000000006
EXTRACT: control_change channel=8 control=7 value=73 time=0.060483875000000006
EXTRACT: note_on channel=9 note=58 velocity=35 time=0
EXTRACT: note_on channel=9 note=86 velocity=59 time=0
EXTRACT: note_on channel=9 note=86 velocity=0 time=0.010080645833333334
EXTRACT: note_on channel=9 note=58 velocity=0 time=0
EXTRACT: note_on channel=9 note=67 velocity=41 time=0.040322583333333335
EXTRACT: note_on channel=9 note=67 velocity=0 time=0.010080645833333334
EXTRACT: control_change channel=8 control=7 value=74 time=0
EXTRACT: control_change channel=8 control=7 value=76 time=0.060483875000000006
EXTRACT: note_on channel=8 note=50 velocity=60 time=0.04788306770833334
EXTRACT: control_change channel=8 control=7 value=77 time=0.012600807291666667
EXTRACT: note_on channel=9 note=67 velocity=31 time=0.0025201614583333335
EXTRACT: note_on channel=9 note=67 velocity=0 time=0.010080645833333334
EXTRACT: note_on channel=8 note=53 velocity=0 time=0.005040322916666667
EXTRACT: note_on channel=7 note=63 velocity=52 time=0.010080645833333334
EXTRACT: note_on channel=7 note=60 velocity=0 time=0.03276209895833333
EXTRACT: note_on channel=9 note=52 velocity=40 time=0
EXTRACT: note_on channel=9 note=58 velocity=45 time=0
EXTRACT: note_on channel=9 note=87 velocity=57 time=0
EXTRACT: note_on channel=9 note=87 velocity=0 time=0.010080645833333334
EXTRACT: note_on channel=9 note=52 velocity=0 time=0
EXTRACT: note_on channel=9 note=58 velocity=0 time=0
EXTRACT: note_on channel=9 note=67 velocity=42 time=0.05544355208333333
EXTRACT: note_on channel=9 note=67 velocity=0 time=0.010080645833333334
EXTRACT: note_on channel=9 note=67 velocity=41 time=0.10836694270833334
EXTRACT: note_on channel=9 note=67 velocity=0 time=0.010080645833333334
EXTRACT: note_on channel=11 note=50 velocity=0 time=0.03528226041666667
EXTRACT: note_on channel=9 note=58 velocity=31 time=0.012600807291666667
EXTRACT: note_on channel=9 note=86 velocity=56 time=0
EXTRACT: note_on channel=9 note=86 velocity=0 time=0.010080645833333334
EXTRACT: note_on channel=9 note=58 velocity=0 time=0
EXTRACT: note_on channel=9 note=67 velocity=42 time=0.07308468229166667
EXTRACT: note_on channel=9 note=67 velocity=0 time=0.010080645833333334
EXTRACT: note_on channel=8 note=60 velocity=62 time=0.09324597395833334
EXTRACT: note_on channel=7 note=58 velocity=51 time=0.030241937500000003
EXTRACT: note_on channel=9 note=58 velocity=43 time=0.025201614583333334
EXTRACT: note_on channel=9 note=87 velocity=55 time=0
EXTRACT: note_on channel=11 note=46 velocity=72 time=0
EXTRACT: note_on channel=9 note=87 velocity=0 time=0.010080645833333334
EXTRACT: note_on channel=9 note=58 velocity=0 time=0
EXTRACT: note_on channel=7 note=63 velocity=0 time=0.04536290625
EXTRACT: note_on channel=9 note=67 velocity=46 time=0.07056452083333334
EXTRACT: note_on channel=9 note=67 velocity=0 time=0.010080645833333334
EXTRACT: note_on channel=9 note=58 velocity=41 time=0.10584678125000001
EXTRACT: note_on channel=9 note=86 velocity=56 time=0
EXTRACT: note_on channel=9 note=86 velocity=0 time=0.010080645833333334
EXTRACT: note_on channel=9 note=58 velocity=0 time=0
EXTRACT: note_on channel=11 note=46 velocity=0 time=0.007560484375000001
EXTRACT: note_on channel=9 note=67 velocity=35 time=0.007560484375000001
EXTRACT: note_on channel=9 note=67 velocity=0 time=0.010080645833333334
EXTRACT: note_on channel=9 note=67 velocity=37 time=0.12096775000000001
EXTRACT: note_on channel=9 note=67 velocity=0 time=0.010080645833333334
EXTRACT: note_on channel=8 note=53 velocity=60 time=0.012600807291666667
EXTRACT: note_on channel=8 note=50 velocity=0 time=0.022681453125
EXTRACT: note_on channel=7 note=58 velocity=0 time=0.020161291666666668
EXTRACT: note_on channel=9 note=35 velocity=118 time=0.020161291666666668
EXTRACT: note_on channel=9 note=52 velocity=40 time=0
EXTRACT: note_on channel=9 note=58 velocity=39 time=0
EXTRACT: note_on channel=9 note=61 velocity=87 time=0
EXTRACT: note_on channel=9 note=87 velocity=50 time=0
EXTRACT: note_on channel=11 note=46 velocity=72 time=0
EXTRACT: note_on channel=11 note=49 velocity=80 time=0
EXTRACT: pitchwheel channel=7 pitch=-2048 time=0.007560484375000001
EXTRACT: note_on channel=7 note=62 velocity=52 time=0
EXTRACT: note_on channel=9 note=87 velocity=0 time=0.0025201614583333335
EXTRACT: note_on channel=9 note=61 velocity=0 time=0
EXTRACT: note_on channel=9 note=35 velocity=0 time=0
EXTRACT: note_on channel=9 note=58 velocity=0 time=0
EXTRACT: note_on channel=9 note=52 velocity=0 time=0
EXTRACT: note_on channel=9 note=67 velocity=41 time=0.022681453125
EXTRACT: note_on channel=9 note=61 velocity=83 time=0.007560484375000001
EXTRACT: note_on channel=9 note=67 velocity=0 time=0.0025201614583333335
EXTRACT: note_on channel=9 note=61 velocity=0 time=0.007560484375000001
EXTRACT: note_on channel=9 note=61 velocity=79 time=0.030241937500000003
EXTRACT: note_on channel=8 note=57 velocity=0 time=0.005040322916666667
EXTRACT: note_on channel=9 note=61 velocity=0 time=0.005040322916666667
EXTRACT: note_on channel=11 note=49 velocity=0 time=0.015120968750000002
EXTRACT: note_on channel=9 note=61 velocity=75 time=0.015120968750000002
EXTRACT: note_on channel=9 note=61 velocity=0 time=0.010080645833333334
EXTRACT: note_on channel=9 note=61 velocity=71 time=0.030241937500000003
EXTRACT: note_on channel=9 note=67 velocity=39 time=0.007560484375000001
EXTRACT: note_on channel=9 note=61 velocity=0 time=0.0025201614583333335
EXTRACT: note_on channel=9 note=67 velocity=0 time=0.007560484375000001
EXTRACT: note_on channel=11 note=46 velocity=0 time=0.010080645833333334
EXTRACT: note_on channel=9 note=61 velocity=67 time=0.012600807291666667
EXTRACT: note_on channel=9 note=61 velocity=0 time=0.010080645833333334
EXTRACT: note_on channel=9 note=58 velocity=35 time=0.030241937500000003
EXTRACT: note_on channel=9 note=61 velocity=64 time=0
EXTRACT: note_on channel=9 note=86 velocity=51 time=0
EXTRACT: note_on channel=9 note=86 velocity=0 time=0.010080645833333334
EXTRACT: note_on channel=9 note=58 velocity=0 time=0
EXTRACT: note_on channel=9 note=61 velocity=0 time=0
EXTRACT: note_on channel=9 note=61 velocity=61 time=0.030241937500000003
EXTRACT: note_on channel=9 note=61 velocity=0 time=0.010080645833333334
EXTRACT: note_on channel=9 note=61 velocity=65 time=0.030241937500000003
EXTRACT: note_on channel=9 note=61 velocity=0 time=0.010080645833333334
EXTRACT: note_on channel=9 note=61 velocity=69 time=0.030241937500000003
EXTRACT: note_on channel=9 note=61 velocity=0 time=0.010080645833333334
EXTRACT: note_on channel=9 note=61 velocity=73 time=0.030241937500000003
EXTRACT: note_on channel=9 note=61 velocity=0 time=0.010080645833333334
EXTRACT: note_on channel=8 note=54 velocity=68 time=0.010080645833333334
EXTRACT: note_on channel=9 note=67 velocity=43 time=0.012600807291666667
EXTRACT: note_on channel=9 note=61 velocity=77 time=0.007560484375000001
EXTRACT: note_on channel=9 note=67 velocity=0 time=0.0025201614583333335
EXTRACT: note_on channel=9 note=61 velocity=0 time=0.007560484375000001
EXTRACT: note_on channel=9 note=35 velocity=118 time=0.030241937500000003
EXTRACT: note_on channel=9 note=58 velocity=46 time=0
EXTRACT: note_on channel=9 note=61 velocity=81 time=0
EXTRACT: note_on channel=9 note=87 velocity=51 time=0
EXTRACT: note_on channel=9 note=87 velocity=0 time=0.010080645833333334
EXTRACT: note_on channel=9 note=61 velocity=0 time=0
EXTRACT: note_on channel=9 note=35 velocity=0 time=0
EXTRACT: note_on channel=9 note=58 velocity=0 time=0
EXTRACT: note_on channel=9 note=61 velocity=79 time=0.030241937500000003
EXTRACT: note_on channel=9 note=61 velocity=0 time=0.010080645833333334
EXTRACT: note_on channel=8 note=60 velocity=0 time=0.007560484375000001
EXTRACT: note_on channel=9 note=61 velocity=76 time=0.022681453125
EXTRACT: note_on channel=9 note=61 velocity=0 time=0.010080645833333334
EXTRACT: note_on channel=9 note=67 velocity=28 time=0.015120968750000002
EXTRACT: note_on channel=9 note=67 velocity=0 time=0.010080645833333334
EXTRACT: note_on channel=9 note=61 velocity=73 time=0.005040322916666667
EXTRACT: note_on channel=9 note=61 velocity=0 time=0.010080645833333334
EXTRACT: note_on channel=9 note=61 velocity=70 time=0.030241937500000003
EXTRACT: note_on channel=9 note=61 velocity=0 time=0.010080645833333334
EXTRACT: note_on channel=9 note=61 velocity=67 time=0.030241937500000003
EXTRACT: note_on channel=9 note=61 velocity=0 time=0.010080645833333334
EXTRACT: note_on channel=9 note=67 velocity=46 time=0.005040322916666667
EXTRACT: note_on channel=9 note=67 velocity=0 time=0.010080645833333334
EXTRACT: note_on channel=9 note=58 velocity=32 time=0.015120968750000002
EXTRACT: note_on channel=9 note=61 velocity=65 time=0
EXTRACT: note_on channel=9 note=86 velocity=62 time=0
EXTRACT: note_on channel=9 note=86 velocity=0 time=0.010080645833333334
EXTRACT: note_on channel=9 note=58 velocity=0 time=0
EXTRACT: note_on channel=9 note=61 velocity=0 time=0
EXTRACT: note_on channel=9 note=61 velocity=62 time=0.030241937500000003
EXTRACT: note_on channel=9 note=61 velocity=0 time=0.010080645833333334
EXTRACT: note_on channel=8 note=53 velocity=0 time=0.005040322916666667
EXTRACT: note_on channel=9 note=61 velocity=59 time=0.025201614583333334
EXTRACT: note_on channel=9 note=61 velocity=0 time=0.010080645833333334
EXTRACT: note_on channel=9 note=67 velocity=33 time=0.022681453125
EXTRACT: note_on channel=9 note=61 velocity=56 time=0.007560484375000001
EXTRACT: note_on channel=9 note=67 velocity=0 time=0.0025201614583333335
EXTRACT: note_on channel=9 note=61 velocity=0 time=0.007560484375000001
EXTRACT: note_on channel=9 note=61 velocity=53 time=0.030241937500000003
EXTRACT: note_on channel=9 note=61 velocity=0 time=0.010080645833333334
EXTRACT: note_on channel=8 note=60 velocity=60 time=0.022681453125
EXTRACT: note_on channel=9 note=61 velocity=50 time=0.007560484375000001
EXTRACT: note_on channel=9 note=61 velocity=0 time=0.010080645833333334
EXTRACT: note_on channel=9 note=67 velocity=49 time=0
EXTRACT: note_on channel=11 note=70 velocity=85 time=0.005040322916666667
EXTRACT: note_on channel=9 note=67 velocity=0 time=0.005040322916666667
EXTRACT: note_on channel=9 note=35 velocity=118 time=0.020161291666666668
EXTRACT: note_on channel=9 note=52 velocity=40 time=0
EXTRACT: note_on channel=9 note=58 velocity=43 time=0
EXTRACT: note_on channel=9 note=60 velocity=54 time=0
EXTRACT: note_on channel=9 note=87 velocity=51 time=0
EXTRACT: note_on channel=9 note=87 velocity=0 time=0.010080645833333334
EXTRACT: note_on channel=9 note=60 velocity=0 time=0
EXTRACT: note_on channel=9 note=58 velocity=0 time=0
EXTRACT: note_on channel=9 note=35 velocity=0 time=0
EXTRACT: note_on channel=9 note=52 velocity=0 time=0
EXTRACT: note_on channel=9 note=60 velocity=56 time=0.030241937500000003
EXTRACT: note_on channel=9 note=60 velocity=0 time=0.010080645833333334
EXTRACT: note_on channel=9 note=60 velocity=58 time=0.030241937500000003
EXTRACT: note_on channel=9 note=60 velocity=0 time=0.010080645833333334
EXTRACT: note_on channel=9 note=60 velocity=60 time=0.030241937500000003
EXTRACT: note_on channel=9 note=60 velocity=0 time=0.010080645833333334
EXTRACT: note_on channel=11 note=70 velocity=0 time=0.012600807291666667
EXTRACT: note_on channel=9 note=60 velocity=62 time=0.017641130208333335
EXTRACT: note_on channel=9 note=60 velocity=0 time=0.010080645833333334
EXTRACT: note_on channel=11 note=70 velocity=89 time=0.017641130208333335
EXTRACT: note_on channel=9 note=60 velocity=64 time=0.012600807291666667
EXTRACT: note_on channel=9 note=60 velocity=0 time=0.010080645833333334
EXTRACT: note_on channel=9 note=58 velocity=35 time=0.030241937500000003
EXTRACT: note_on channel=9 note=60 velocity=66 time=0
EXTRACT: note_on channel=9 note=86 velocity=62 time=0
EXTRACT: note_on channel=9 note=86 velocity=0 time=0.010080645833333334
EXTRACT: note_on channel=9 note=58 velocity=0 time=0
EXTRACT: note_on channel=9 note=60 velocity=0 time=0
EXTRACT: note_on channel=9 note=67 velocity=35 time=0.010080645833333334
EXTRACT: note_on channel=9 note=67 velocity=0 time=0.010080645833333334
EXTRACT: note_on channel=9 note=60 velocity=68 time=0.010080645833333334
EXTRACT: note_on channel=9 note=60 velocity=0 time=0.010080645833333334
EXTRACT: note_on channel=9 note=60 velocity=70 time=0.030241937500000003
EXTRACT: note_on channel=9 note=60 velocity=0 time=0.010080645833333334
EXTRACT: note_on channel=9 note=60 velocity=72 time=0.030241937500000003
EXTRACT: note_on channel=9 note=60 velocity=0 time=0.010080645833333334
EXTRACT: note_on channel=9 note=67 velocity=33 time=0.017641130208333335
EXTRACT: pitchwheel channel=7 pitch=0 time=0.0025201614583333335
EXTRACT: note_on channel=9 note=67 velocity=0 time=0.007560484375000001
EXTRACT: note_on channel=9 note=60 velocity=74 time=0.0025201614583333335
EXTRACT: note_on channel=7 note=62 velocity=0 time=0.005040322916666667
EXTRACT: note_on channel=9 note=60 velocity=0 time=0.005040322916666667
EXTRACT: note_on channel=7 note=58 velocity=32 time=0
EXTRACT: note_on channel=8 note=57 velocity=56 time=0.015120968750000002
EXTRACT: note_on channel=11 note=70 velocity=0 time=0.012600807291666667
EXTRACT: note_on channel=9 note=60 velocity=76 time=0.0025201614583333335
EXTRACT: note_on channel=11 note=74 velocity=89 time=0.0025201614583333335
EXTRACT: note_on channel=9 note=60 velocity=0 time=0.007560484375000001
EXTRACT: note_on channel=9 note=35 velocity=118 time=0.030241937500000003
EXTRACT: note_on channel=9 note=58 velocity=48 time=0
EXTRACT: note_on channel=9 note=63 velocity=81 time=0
EXTRACT: note_on channel=9 note=87 velocity=57 time=0
EXTRACT: note_on channel=9 note=87 velocity=0 time=0.010080645833333334
EXTRACT: note_on channel=9 note=63 velocity=0 time=0
EXTRACT: note_on channel=9 note=58 velocity=0 time=0
EXTRACT: note_on channel=9 note=35 velocity=0 time=0
EXTRACT: note_on channel=9 note=67 velocity=44 time=0.015120968750000002
EXTRACT: note_on channel=9 note=67 velocity=0 time=0.010080645833333334
EXTRACT: note_on channel=9 note=63 velocity=79 time=0.005040322916666667
EXTRACT: note_on channel=9 note=63 velocity=0 time=0.010080645833333334
EXTRACT: note_on channel=9 note=63 velocity=77 time=0.030241937500000003
EXTRACT: note_on channel=9 note=63 velocity=0 time=0.010080645833333334
EXTRACT: note_on channel=9 note=63 velocity=76 time=0.030241937500000003
EXTRACT: note_on channel=9 note=63 velocity=0 time=0.010080645833333334
EXTRACT: note_on channel=9 note=63 velocity=74 time=0.030241937500000003
EXTRACT: note_on channel=9 note=67 velocity=39 time=0
EXTRACT: note_on channel=9 note=67 velocity=0 time=0.010080645833333334
EXTRACT: note_on channel=9 note=63 velocity=0 time=0
EXTRACT: note_on channel=11 note=70 velocity=68 time=0.027721776041666667
EXTRACT: note_on channel=9 note=63 velocity=72 time=0.0025201614583333335
EXTRACT: note_on channel=11 note=74 velocity=0 time=0.0025201614583333335
EXTRACT: note_on channel=9 note=63 velocity=0 time=0.007560484375000001
EXTRACT: note_on channel=9 note=58 velocity=41 time=0.030241937500000003
EXTRACT: note_on channel=9 note=63 velocity=70 time=0
EXTRACT: note_on channel=9 note=86 velocity=60 time=0
EXTRACT: note_on channel=9 note=86 velocity=0 time=0.010080645833333334
EXTRACT: note_on channel=9 note=63 velocity=0 time=0
EXTRACT: note_on channel=9 note=58 velocity=0 time=0
EXTRACT: note_on channel=9 note=67 velocity=42 time=0.025201614583333334
EXTRACT: note_on channel=9 note=63 velocity=68 time=0.005040322916666667
EXTRACT: note_on channel=9 note=67 velocity=0 time=0.005040322916666667
EXTRACT: note_on channel=9 note=63 velocity=0 time=0.005040322916666667
EXTRACT: note_on channel=9 note=63 velocity=66 time=0.030241937500000003
EXTRACT: note_on channel=9 note=63 velocity=0 time=0.010080645833333334
EXTRACT: note_on channel=9 note=63 velocity=64 time=0.030241937500000003
EXTRACT: note_on channel=9 note=63 velocity=0 time=0.010080645833333334
EXTRACT: note_on channel=9 note=63 velocity=62 time=0.030241937500000003
EXTRACT: note_on channel=9 note=63 velocity=0 time=0.010080645833333334
EXTRACT: note_on channel=11 note=70 velocity=0 time=0.0025201614583333335
EXTRACT: note_on channel=9 note=63 velocity=60 time=0.027721776041666667
EXTRACT: note_on channel=7 note=58 velocity=0 time=0.007560484375000001
EXTRACT: note_on channel=9 note=63 velocity=0 time=0.0025201614583333335
EXTRACT: control_change channel=9 control=91 value=80 time=0
EXTRACT: note_on channel=1 note=32 velocity=102 time=0.030241937500000003
EXTRACT: note_on channel=2 note=44 velocity=113 time=0
EXTRACT: note_on channel=4 note=60 velocity=117 time=0
EXTRACT: note_on channel=6 note=72 velocity=102 time=0
EXTRACT: note_on channel=7 note=65 velocity=107 time=0
EXTRACT: note_on channel=7 note=72 velocity=101 time=0
EXTRACT: note_on channel=9 note=28 velocity=69 time=0
EXTRACT: note_on channel=9 note=35 velocity=117 time=0
EXTRACT: note_on channel=9 note=49 velocity=82 time=0
EXTRACT: note_on channel=9 note=86 velocity=107 time=0
EXTRACT: note_on channel=12 note=23 velocity=117 time=0
EXTRACT: note_on channel=13 note=44 velocity=103 time=0
EXTRACT: note_on channel=13 note=56 velocity=101 time=0
EXTRACT: note_on channel=15 note=60 velocity=1 time=0
EXTRACT: note_on channel=15 note=72 velocity=1 time=0
EXTRACT: note_on channel=9 note=86 velocity=0 time=0.010080645833333334
EXTRACT: note_on channel=9 note=28 velocity=0 time=0
EXTRACT: note_on channel=9 note=49 velocity=0 time=0
EXTRACT: note_on channel=9 note=35 velocity=0 time=0
EXTRACT: note_on channel=12 note=23 velocity=0 time=0.010080645833333334
EXTRACT: note_on channel=9 note=63 velocity=102 time=0
EXTRACT: note_on channel=8 note=54 velocity=0 time=0.005040322916666667
EXTRACT: note_on channel=9 note=63 velocity=0 time=0.005040322916666667
EXTRACT: note_on channel=7 note=65 velocity=0 time=0.07812500520833333
EXTRACT: note_on channel=9 note=28 velocity=32 time=0.0025201614583333335
EXTRACT: note_on channel=9 note=86 velocity=93 time=0.007560484375000001
EXTRACT: note_on channel=9 note=28 velocity=0 time=0.0025201614583333335
EXTRACT: note_on channel=9 note=42 velocity=72 time=0
EXTRACT: note_on channel=9 note=86 velocity=0 time=0.007560484375000001
EXTRACT: note_on channel=9 note=42 velocity=0 time=0.0025201614583333335
EXTRACT: note_on channel=7 note=72 velocity=0 time=0.0025201614583333335
EXTRACT: note_on channel=9 note=63 velocity=53 time=0
EXTRACT: note_on channel=9 note=63 velocity=0 time=0.010080645833333334
EXTRACT: note_on channel=15 note=72 velocity=0 time=0.015120968750000002
EXTRACT: note_on channel=6 note=72 velocity=0 time=0
EXTRACT: note_on channel=15 note=60 velocity=0 time=0.052923390625000004
EXTRACT: note_on channel=4 note=60 velocity=0 time=0
EXTRACT: note_on channel=9 note=28 velocity=48 time=0.020161291666666668
EXTRACT: note_on channel=8 note=60 velocity=0 time=0.0025201614583333335
EXTRACT: note_on channel=9 note=28 velocity=0 time=0.007560484375000001
EXTRACT: note_on channel=9 note=42 velocity=62 time=0
EXTRACT: note_on channel=9 note=72 velocity=46 time=0
EXTRACT: note_on channel=9 note=72 velocity=0 time=0.010080645833333334
EXTRACT: note_on channel=9 note=42 velocity=0 time=0
EXTRACT: note_on channel=9 note=62 velocity=102 time=0.005040322916666667
EXTRACT: note_on channel=9 note=62 velocity=0 time=0.010080645833333334
EXTRACT: note_on channel=9 note=86 velocity=113 time=0.08316532812500001
EXTRACT: note_on channel=9 note=28 velocity=44 time=0.0025201614583333335
EXTRACT: note_on channel=2 note=41 velocity=113 time=0.0025201614583333335
EXTRACT: note_on channel=13 note=41 velocity=103 time=0
EXTRACT: note_on channel=13 note=53 velocity=101 time=0
EXTRACT: note_on channel=9 note=86 velocity=0 time=0.005040322916666667
EXTRACT: note_on channel=9 note=28 velocity=0 time=0.0025201614583333335
EXTRACT: note_on channel=1 note=32 velocity=0 time=0
EXTRACT: note_on channel=1 note=29 velocity=107 time=0
EXTRACT: note_on channel=4 note=60 velocity=111 time=0
EXTRACT: note_on channel=5 note=56 velocity=113 time=0
EXTRACT: note_on channel=6 note=72 velocity=98 time=0
EXTRACT: note_on channel=7 note=65 velocity=102 time=0
EXTRACT: note_on channel=7 note=72 velocity=95 time=0
EXTRACT: note_on channel=9 note=35 velocity=117 time=0
EXTRACT: note_on channel=9 note=42 velocity=47 time=0
EXTRACT: note_on channel=9 note=75 velocity=54 time=0
EXTRACT: note_on channel=12 note=23 velocity=117 time=0
EXTRACT: note_on channel=15 note=56 velocity=1 time=0
EXTRACT: note_on channel=15 note=60 velocity=1 time=0
EXTRACT: note_on channel=15 note=72 velocity=1 time=0
EXTRACT: note_on channel=9 note=75 velocity=0 time=0.010080645833333334
EXTRACT: note_on channel=9 note=42 velocity=0 time=0
EXTRACT: note_on channel=9 note=35 velocity=0 time=0
EXTRACT: note_on channel=12 note=23 velocity=0 time=0.010080645833333334
EXTRACT: note_on channel=13 note=56 velocity=0 time=0.005040322916666667
EXTRACT: note_on channel=13 note=44 velocity=0 time=0
EXTRACT: note_on channel=2 note=44 velocity=0 time=0
EXTRACT: note_on channel=8 note=57 velocity=0 time=0.08064516666666667
EXTRACT: note_on channel=7 note=65 velocity=0 time=0
EXTRACT: note_on channel=7 note=72 velocity=0 time=0.0025201614583333335
EXTRACT: note_on channel=9 note=40 velocity=113 time=0.012600807291666667
EXTRACT: note_on channel=9 note=42 velocity=113 time=0
EXTRACT: note_on channel=9 note=62 velocity=107 time=0
EXTRACT: note_on channel=9 note=75 velocity=60 time=0
EXTRACT: note_on channel=9 note=75 velocity=0 time=0.010080645833333334
EXTRACT: note_on channel=15 note=72 velocity=0 time=0
EXTRACT: note_on channel=6 note=72 velocity=0 time=0
EXTRACT: note_on channel=9 note=62 velocity=0 time=0
EXTRACT: note_on channel=9 note=40 velocity=0 time=0
EXTRACT: note_on channel=9 note=42 velocity=0 time=0
EXTRACT: note_on channel=4 note=60 velocity=0 time=0.068044359375
EXTRACT: note_on channel=15 note=60 velocity=0 time=0
EXTRACT: note_on channel=15 note=56 velocity=0 time=0.025201614583333334
EXTRACT: note_on channel=5 note=56 velocity=0 time=0
EXTRACT: note_on channel=9 note=28 velocity=28 time=0.007560484375000001
EXTRACT: note_on channel=9 note=28 velocity=0 time=0.010080645833333334
EXTRACT: note_on channel=9 note=42 velocity=71 time=0
EXTRACT: note_on channel=9 note=75 velocity=47 time=0
EXTRACT: note_on channel=9 note=75 velocity=0 time=0.010080645833333334
EXTRACT: note_on channel=9 note=42 velocity=0 time=0
EXTRACT: note_on channel=1 note=29 velocity=0 time=0.08820565104166667
EXTRACT: note_on channel=9 note=63 velocity=98 time=0.005040322916666667
EXTRACT: note_on channel=9 note=28 velocity=40 time=0.007560484375000001
EXTRACT: note_on channel=9 note=63 velocity=0 time=0.0025201614583333335
EXTRACT: note_on channel=9 note=28 velocity=0 time=0.007560484375000001
EXTRACT: note_on channel=1 note=24 velocity=107 time=0
EXTRACT: note_on channel=4 note=60 velocity=117 time=0
EXTRACT: note_on channel=5 note=53 velocity=107 time=0
EXTRACT: note_on channel=6 note=72 velocity=102 time=0
EXTRACT: note_on channel=7 note=65 velocity=102 time=0
EXTRACT: note_on channel=7 note=72 velocity=95 time=0
EXTRACT: note_on channel=9 note=42 velocity=63 time=0
EXTRACT: note_on channel=15 note=53 velocity=1 time=0
EXTRACT: note_on channel=15 note=60 velocity=1 time=0
EXTRACT: note_on channel=15 note=72 velocity=1 time=0
EXTRACT: note_on channel=2 note=36 velocity=107 time=0.007560484375000001
EXTRACT: note_on channel=13 note=36 velocity=97 time=0
EXTRACT: note_on channel=13 note=48 velocity=95 time=0
EXTRACT: note_on channel=9 note=42 velocity=0 time=0.0025201614583333335
EXTRACT: note_on channel=9 note=35 velocity=112 time=0
EXTRACT: note_on channel=9 note=86 velocity=102 time=0
EXTRACT: note_on channel=12 note=23 velocity=112 time=0
EXTRACT: note_on channel=13 note=53 velocity=0 time=0.0025201614583333335
EXTRACT: note_on channel=2 note=41 velocity=0 time=0
EXTRACT: note_on channel=13 note=41 velocity=0 time=0
EXTRACT: note_on channel=9 note=86 velocity=0 time=0.007560484375000001
EXTRACT: note_on channel=9 note=35 velocity=0 time=0
EXTRACT: note_on channel=12 note=23 velocity=0 time=0.010080645833333334
EXTRACT: note_on channel=9 note=63 velocity=48 time=0.05040322916666667
EXTRACT: note_on channel=9 note=63 velocity=0 time=0.010080645833333334
EXTRACT: note_on channel=9 note=28 velocity=69 time=0.020161291666666668
EXTRACT: note_on channel=9 note=28 velocity=0 time=0.010080645833333334
EXTRACT: note_on channel=9 note=35 velocity=86 time=0
EXTRACT: note_on channel=9 note=42 velocity=50 time=0
EXTRACT: note_on channel=9 note=75 velocity=64 time=0
EXTRACT: note_on channel=12 note=23 velocity=86 time=0
EXTRACT: note_on channel=9 note=86 velocity=93 time=0.005040322916666667
EXTRACT: note_on channel=9 note=75 velocity=0 time=0.005040322916666667
EXTRACT: note_on channel=9 note=42 velocity=0 time=0
EXTRACT: note_on channel=9 note=35 velocity=0 time=0
EXTRACT: note_on channel=9 note=86 velocity=0 time=0.005040322916666667
EXTRACT: note_on channel=12 note=23 velocity=0 time=0.005040322916666667
EXTRACT: note_on channel=9 note=28 velocity=33 time=0.0907258125
EXTRACT: note_on channel=9 note=28 velocity=0 time=0.010080645833333334
EXTRACT: note_on channel=9 note=42 velocity=119 time=0
EXTRACT: note_on channel=9 note=86 velocity=107 time=0.0025201614583333335
EXTRACT: note_on channel=9 note=42 velocity=0 time=0.007560484375000001
EXTRACT: note_on channel=9 note=86 velocity=0 time=0.0025201614583333335
EXTRACT: note_on channel=9 note=63 velocity=89 time=0.08064516666666667
EXTRACT: note_on channel=9 note=63 velocity=0 time=0.010080645833333334
EXTRACT: note_on channel=9 note=40 velocity=107 time=0.017641130208333335
EXTRACT: note_on channel=9 note=42 velocity=78 time=0
EXTRACT: note_on channel=9 note=86 velocity=102 time=0.005040322916666667
EXTRACT: note_on channel=9 note=42 velocity=0 time=0.005040322916666667
EXTRACT: note_on channel=9 note=40 velocity=0 time=0
EXTRACT: note_on channel=9 note=86 velocity=0 time=0.005040322916666667
EXTRACT: control_change channel=8 control=99 value=1 time=0.005040322916666667
EXTRACT: control_change channel=8 control=98 value=102 time=0
EXTRACT: control_change channel=8 control=6 value=64 time=0
EXTRACT: control_change channel=8 control=38 value=0 time=0
EXTRACT: note_on channel=15 note=53 velocity=0 time=0.068044359375
EXTRACT: note_on channel=7 note=65 velocity=0 time=0
EXTRACT: note_on channel=5 note=53 velocity=0 time=0
EXTRACT: note_on channel=1 note=24 velocity=0 time=0.012600807291666667
EXTRACT: note_on channel=9 note=35 velocity=117 time=0.007560484375000001
EXTRACT: note_on channel=9 note=62 velocity=119 time=0
EXTRACT: note_on channel=12 note=23 velocity=117 time=0
EXTRACT: note_on channel=9 note=28 velocity=29 time=0.0025201614583333335
EXTRACT: note_on channel=7 note=72 velocity=0 time=0.0025201614583333335
EXTRACT: note_on channel=9 note=62 velocity=0 time=0.005040322916666667
EXTRACT: note_on channel=13 note=36 velocity=0 time=0
EXTRACT: note_on channel=9 note=35 velocity=0 time=0
EXTRACT: note_on channel=13 note=48 velocity=0 time=0
EXTRACT: note_on channel=2 note=36 velocity=0 time=0
EXTRACT: note_on channel=2 note=44 velocity=113 time=0
EXTRACT: note_on channel=13 note=44 velocity=103 time=0
EXTRACT: note_on channel=13 note=56 velocity=101 time=0
EXTRACT: note_on channel=9 note=28 velocity=0 time=0.0025201614583333335
EXTRACT: note_on channel=1 note=32 velocity=107 time=0
EXTRACT: note_on channel=4 note=61 velocity=117 time=0
EXTRACT: note_on channel=5 note=56 velocity=107 time=0
EXTRACT: note_on channel=6 note=73 velocity=107 time=0
EXTRACT: note_on channel=7 note=65 velocity=107 time=0
EXTRACT: note_on channel=7 note=73 velocity=95 time=0
EXTRACT: note_on channel=9 note=42 velocity=61 time=0
EXTRACT: note_on channel=9 note=72 velocity=46 time=0
EXTRACT: note_on channel=15 note=56 velocity=1 time=0
EXTRACT: note_on channel=15 note=61 velocity=1 time=0
EXTRACT: note_on channel=15 note=73 velocity=1 time=0
EXTRACT: note_on channel=12 note=23 velocity=0 time=0.007560484375000001
EXTRACT: note_on channel=9 note=72 velocity=0 time=0.0025201614583333335
EXTRACT: note_on channel=9 note=42 velocity=0 time=0
EXTRACT: note_on channel=15 note=72 velocity=0 time=0.020161291666666668
EXTRACT: note_on channel=6 note=72 velocity=0 time=0
EXTRACT: note_on channel=4 note=60 velocity=0 time=0.0025201614583333335
EXTRACT: note_on channel=15 note=60 velocity=0 time=0
EXTRACT: note_on channel=9 note=28 velocity=44 time=0.07812500520833333
EXTRACT: note_on channel=9 note=86 velocity=107 time=0.0025201614583333335
EXTRACT: note_on channel=9 note=28 velocity=0 time=0.007560484375000001
EXTRACT: note_on channel=9 note=42 velocity=50 time=0
EXTRACT: note_on channel=9 note=75 velocity=49 time=0
EXTRACT: note_on channel=9 note=86 velocity=0 time=0.0025201614583333335
EXTRACT: note_on channel=9 note=75 velocity=0 time=0.007560484375000001
EXTRACT: note_on channel=9 note=42 velocity=0 time=0
EXTRACT: note_on channel=7 note=65 velocity=0 time=0.08316532812500001
EXTRACT: note_on channel=15 note=56 velocity=0 time=0.012600807291666667
EXTRACT: note_on channel=5 note=56 velocity=0 time=0
EXTRACT: note_on channel=1 note=32 velocity=0 time=0.005040322916666667
EXTRACT: note_on channel=15 note=61 velocity=0 time=0.007560484375000001
EXTRACT: note_on channel=4 note=61 velocity=0 time=0
EXTRACT: note_on channel=1 note=29 velocity=107 time=0.0025201614583333335
EXTRACT: note_on channel=4 note=60 velocity=111 time=0
EXTRACT: note_on channel=5 note=56 velocity=102 time=0
EXTRACT: note_on channel=6 note=72 velocity=107 time=0
EXTRACT: note_on channel=7 note=65 velocity=98 time=0
EXTRACT: note_on channel=7 note=72 velocity=86 time=0
EXTRACT: note_on channel=9 note=40 velocity=107 time=0
EXTRACT: note_on channel=9 note=42 velocity=119 time=0
EXTRACT: note_on channel=9 note=62 velocity=113 time=0
EXTRACT: note_on channel=9 note=75 velocity=45 time=0
EXTRACT: note_on channel=15 note=56 velocity=1 time=0
EXTRACT: note_on channel=15 note=60 velocity=1 time=0
EXTRACT: note_on channel=15 note=72 velocity=1 time=0
EXTRACT: note_on channel=15 note=73 velocity=0 time=0.0025201614583333335
EXTRACT: note_on channel=6 note=73 velocity=0 time=0
EXTRACT: note_on channel=2 note=41 velocity=113 time=0
EXTRACT: note_on channel=13 note=41 velocity=103 time=0
EXTRACT: note_on channel=13 note=53 velocity=101 time=0
EXTRACT: note_on channel=9 note=75 velocity=0 time=0.007560484375000001
EXTRACT: note_on channel=9 note=40 velocity=0 time=0
EXTRACT: note_on channel=9 note=62 velocity=0 time=0
EXTRACT: note_on channel=9 note=42 velocity=0 time=0
EXTRACT: control_change channel=8 control=99 value=1 time=0
EXTRACT: control_change channel=8 control=98 value=99 time=0
EXTRACT: control_change channel=8 control=6 value=30 time=0
EXTRACT: control_change channel=8 control=38 value=0 time=0
EXTRACT: note_on channel=2 note=44 velocity=0 time=0.017641130208333335
EXTRACT: note_on channel=13 note=44 velocity=0 time=0
EXTRACT: note_on channel=13 note=56 velocity=0 time=0
EXTRACT: note_on channel=7 note=73 velocity=0 time=0.010080645833333334
EXTRACT: note_on channel=9 note=28 velocity=44 time=0.07308468229166667
EXTRACT: note_on channel=9 note=28 velocity=0 time=0.010080645833333334
EXTRACT: note_on channel=9 note=35 velocity=102 time=0
EXTRACT: note_on channel=9 note=42 velocity=72 time=0
EXTRACT: note_on channel=9 note=75 velocity=54 time=0
EXTRACT: note_on channel=12 note=23 velocity=102 time=0
EXTRACT: note_on channel=9 note=75 velocity=0 time=0.010080645833333334
EXTRACT: note_on channel=9 note=42 velocity=0 time=0
EXTRACT: note_on channel=9 note=35 velocity=0 time=0
EXTRACT: note_on channel=12 note=23 velocity=0 time=0.010080645833333334
EXTRACT: note_on channel=1 note=29 velocity=0 time=0.07308468229166667
EXTRACT: note_on channel=7 note=65 velocity=0 time=0.0025201614583333335
EXTRACT: note_on channel=13 note=41 velocity=0 time=0.0025201614583333335
EXTRACT: note_on channel=13 note=53 velocity=0 time=0
EXTRACT: note_on channel=2 note=41 velocity=0 time=0
EXTRACT: note_on channel=9 note=63 velocity=89 time=0.007560484375000001
EXTRACT: note_on channel=2 note=36 velocity=93 time=0.0025201614583333335
EXTRACT: note_on channel=13 note=36 velocity=83 time=0
EXTRACT: note_on channel=13 note=48 velocity=81 time=0
EXTRACT: note_on channel=15 note=60 velocity=0 time=0.0025201614583333335
EXTRACT: note_on channel=4 note=60 velocity=0 time=0
EXTRACT: note_on channel=9 note=28 velocity=33 time=0
EXTRACT: note_on channel=9 note=63 velocity=0 time=0.005040322916666667
EXTRACT: note_on channel=6 note=72 velocity=0 time=0
EXTRACT: note_on channel=15 note=72 velocity=0 time=0
EXTRACT: note_on channel=5 note=56 velocity=0 time=0
EXTRACT: note_on channel=15 note=56 velocity=0 time=0
EXTRACT: note_on channel=9 note=28 velocity=0 time=0.005040322916666667
EXTRACT: note_on channel=1 note=24 velocity=102 time=0
EXTRACT: note_on channel=4 note=58 velocity=93 time=0
EXTRACT: note_on channel=5 note=53 velocity=107 time=0
EXTRACT: note_on channel=6 note=70 velocity=102 time=0
EXTRACT: note_on channel=7 note=65 velocity=107 time=0
EXTRACT: note_on channel=7 note=70 velocity=86 time=0
EXTRACT: note_on channel=9 note=42 velocity=54 time=0
EXTRACT: note_on channel=15 note=53 velocity=1 time=0
EXTRACT: note_on channel=15 note=58 velocity=1 time=0
EXTRACT: note_on channel=15 note=70 velocity=1 time=0
EXTRACT: note_on channel=9 note=42 velocity=0 time=0.010080645833333334
EXTRACT: note_on channel=7 note=72 velocity=0 time=0
EXTRACT: control_change channel=8 control=99 value=1 time=0
EXTRACT: control_change channel=8 control=98 value=100 time=0
EXTRACT: control_change channel=8 control=6 value=57 time=0
EXTRACT: control_change channel=8 control=38 value=0 time=0
EXTRACT: note_on channel=9 note=86 velocity=102 time=0.0025201614583333335
EXTRACT: note_on channel=9 note=86 velocity=0 time=0.010080645833333334
EXTRACT: note_on channel=9 note=63 velocity=102 time=0.08064516666666667
EXTRACT: note_on channel=9 note=28 velocity=44 time=0.007560484375000001
EXTRACT: note_on channel=9 note=63 velocity=0 time=0.0025201614583333335
EXTRACT: note_on channel=9 note=28 velocity=0 time=0.007560484375000001
EXTRACT: note_on channel=9 note=42 velocity=48 time=0
EXTRACT: note_on channel=9 note=75 velocity=60 time=0
EXTRACT: note_on channel=9 note=75 velocity=0 time=0.010080645833333334
EXTRACT: note_on channel=9 note=42 velocity=0 time=0
EXTRACT: note_on channel=9 note=86 velocity=89 time=0.005040322916666667
EXTRACT: note_on channel=9 note=40 velocity=89 time=0.0025201614583333335
EXTRACT: note_on channel=9 note=86 velocity=0 time=0.007560484375000001
EXTRACT: note_on channel=9 note=40 velocity=0 time=0.0025201614583333335
EXTRACT: note_on channel=7 note=65 velocity=0 time=0.04284274479166667
EXTRACT: note_on channel=6 note=70 velocity=0 time=0.007560484375000001
EXTRACT: note_on channel=15 note=70 velocity=0 time=0
EXTRACT: note_on channel=7 note=70 velocity=0 time=0.020161291666666668
EXTRACT: note_on channel=9 note=28 velocity=56 time=0.012600807291666667
EXTRACT: note_on channel=9 note=63 velocity=113 time=0.005040322916666667
EXTRACT: note_on channel=9 note=28 velocity=0 time=0.005040322916666667
EXTRACT: note_on channel=5 note=53 velocity=0 time=0
EXTRACT: note_on channel=15 note=53 velocity=0 time=0
EXTRACT: note_on channel=1 note=31 velocity=107 time=0
EXTRACT: note_on channel=2 note=43 velocity=113 time=0
EXTRACT: note_on channel=4 note=60 velocity=111 time=0
EXTRACT: note_on channel=5 note=55 velocity=107 time=0
EXTRACT: note_on channel=6 note=72 velocity=107 time=0
EXTRACT: note_on channel=7 note=64 velocity=102 time=0
EXTRACT: note_on channel=7 note=72 velocity=95 time=0
EXTRACT: note_on channel=9 note=35 velocity=115 time=0
EXTRACT: note_on channel=9 note=42 velocity=115 time=0
EXTRACT: note_on channel=9 note=75 velocity=54 time=0
EXTRACT: note_on channel=12 note=23 velocity=115 time=0
EXTRACT: note_on channel=13 note=43 velocity=103 time=0
EXTRACT: note_on channel=13 note=55 velocity=101 time=0
EXTRACT: note_on channel=15 note=55 velocity=1 time=0
EXTRACT: note_on channel=15 note=60 velocity=1 time=0
EXTRACT: note_on channel=15 note=72 velocity=1 time=0
EXTRACT: note_on channel=1 note=24 velocity=0 time=0.0025201614583333335
EXTRACT: note_on channel=9 note=63 velocity=0 time=0.0025201614583333335
EXTRACT: note_on channel=9 note=86 velocity=102 time=0.0025201614583333335
EXTRACT: note_on channel=9 note=75 velocity=0 time=0.0025201614583333335
EXTRACT: note_on channel=9 note=42 velocity=0 time=0
EXTRACT: note_on channel=9 note=35 velocity=0 time=0
EXTRACT: note_on channel=4 note=58 velocity=0 time=0.007560484375000001
EXTRACT: note_on channel=9 note=86 velocity=0 time=0
EXTRACT: note_on channel=15 note=58 velocity=0 time=0
EXTRACT: note_on channel=12 note=23 velocity=0 time=0.0025201614583333335
EXTRACT: note_on channel=13 note=36 velocity=0 time=0.012600807291666667
EXTRACT: note_on channel=2 note=36 velocity=0 time=0
EXTRACT: note_on channel=13 note=48 velocity=0 time=0
EXTRACT: note_on channel=9 note=63 velocity=57 time=0.052923390625000004
EXTRACT: note_on channel=9 note=63 velocity=0 time=0.010080645833333334
EXTRACT: note_on channel=9 note=42 velocity=72 time=0.025201614583333334
EXTRACT: note_on channel=9 note=42 velocity=0 time=0.010080645833333334
EXTRACT: note_on channel=9 note=86 velocity=107 time=0
EXTRACT: note_on channel=9 note=86 velocity=0 time=0.010080645833333334
EXTRACT: note_on channel=7 note=64 velocity=0 time=0.017641130208333335
EXTRACT: note_on channel=7 note=72 velocity=0 time=0.017641130208333335
EXTRACT: note_on channel=15 note=72 velocity=0 time=0.007560484375000001
EXTRACT: note_on channel=6 note=72 velocity=0 time=0
EXTRACT: note_on channel=15 note=60 velocity=0 time=0.005040322916666667
EXTRACT: note_on channel=4 note=60 velocity=0 time=0
EXTRACT: note_on channel=9 note=28 velocity=36 time=0.04284274479166667
EXTRACT: note_on channel=9 note=62 velocity=113 time=0.007560484375000001
EXTRACT: note_on channel=9 note=28 velocity=0 time=0.0025201614583333335
EXTRACT: note_on channel=9 note=42 velocity=62 time=0
EXTRACT: note_on channel=9 note=72 velocity=46 time=0
EXTRACT: note_on channel=9 note=62 velocity=0 time=0.007560484375000001
EXTRACT: note_on channel=9 note=72 velocity=0 time=0.0025201614583333335
EXTRACT: note_on channel=9 note=42 velocity=0 time=0
EXTRACT: note_on channel=15 note=55 velocity=0 time=0.10080645833333333
EXTRACT: note_on channel=5 note=55 velocity=0 time=0
EXTRACT: note_on channel=9 note=28 velocity=52 time=0
EXTRACT: note_on channel=9 note=28 velocity=0 time=0.010080645833333334
EXTRACT: note_on channel=1 note=28 velocity=113 time=0
EXTRACT: note_on channel=4 note=60 velocity=111 time=0
EXTRACT: note_on channel=5 note=55 velocity=107 time=0
EXTRACT: note_on channel=6 note=72 velocity=107 time=0
EXTRACT: note_on channel=7 note=64 velocity=102 time=0
EXTRACT: note_on channel=7 note=72 velocity=101 time=0
EXTRACT: note_on channel=9 note=35 velocity=117 time=0
EXTRACT: note_on channel=9 note=42 velocity=47 time=0
EXTRACT: note_on channel=9 note=75 velocity=54 time=0
EXTRACT: note_on channel=12 note=23 velocity=117 time=0
EXTRACT: note_on channel=15 note=55 velocity=1 time=0
EXTRACT: note_on channel=15 note=60 velocity=1 time=0
EXTRACT: note_on channel=15 note=72 velocity=1 time=0
EXTRACT: note_on channel=9 note=86 velocity=107 time=0.005040322916666667
EXTRACT: note_on channel=1 note=31 velocity=0 time=0.0025201614583333335
EXTRACT: note_on channel=2 note=40 velocity=119 time=0
EXTRACT: note_on channel=13 note=40 velocity=109 time=0
EXTRACT: note_on channel=13 note=52 velocity=107 time=0
EXTRACT: note_on channel=9 note=35 velocity=0 time=0.0025201614583333335
EXTRACT: note_on channel=13 note=55 velocity=0 time=0
EXTRACT: note_on channel=13 note=43 velocity=0 time=0
EXTRACT: note_on channel=9 note=75 velocity=0 time=0
EXTRACT: note_on channel=9 note=42 velocity=0 time=0
EXTRACT: note_on channel=2 note=43 velocity=0 time=0
EXTRACT: note_on channel=9 note=86 velocity=0 time=0.005040322916666667
EXTRACT: note_on channel=12 note=23 velocity=0 time=0.005040322916666667
EXTRACT: note_on channel=7 note=64 velocity=0 time=0.098286296875
EXTRACT: note_on channel=9 note=62 velocity=127 time=0
EXTRACT: note_on channel=9 note=40 velocity=113 time=0.0025201614583333335
EXTRACT: note_on channel=9 note=42 velocity=113 time=0
EXTRACT: note_on channel=9 note=75 velocity=54 time=0
EXTRACT: note_on channel=9 note=62 velocity=0 time=0.007560484375000001
EXTRACT: note_on channel=9 note=40 velocity=0 time=0.0025201614583333335
EXTRACT: note_on channel=9 note=75 velocity=0 time=0
EXTRACT: note_on channel=9 note=42 velocity=0 time=0
EXTRACT: note_on channel=7 note=72 velocity=0 time=0.007560484375000001
EXTRACT: note_on channel=6 note=72 velocity=0 time=0
EXTRACT: note_on channel=15 note=72 velocity=0 time=0
EXTRACT: note_on channel=4 note=60 velocity=0 time=0.060483875000000006
EXTRACT: note_on channel=15 note=60 velocity=0 time=0
EXTRACT: note_on channel=15 note=55 velocity=0 time=0.027721776041666667
EXTRACT: note_on channel=5 note=55 velocity=0 time=0
EXTRACT: note_on channel=9 note=28 velocity=40 time=0.005040322916666667
EXTRACT: note_on channel=9 note=28 velocity=0 time=0.010080645833333334
EXTRACT: note_on channel=9 note=42 velocity=71 time=0
EXTRACT: note_on channel=9 note=75 velocity=62 time=0
EXTRACT: note_on channel=9 note=75 velocity=0 time=0.010080645833333334
EXTRACT: note_on channel=9 note=42 velocity=0 time=0
EXTRACT: note_on channel=9 note=63 velocity=45 time=0.007560484375000001
EXTRACT: note_on channel=9 note=63 velocity=0 time=0.010080645833333334
EXTRACT: note_on channel=1 note=28 velocity=0 time=0.07308468229166667
EXTRACT: note_on channel=9 note=28 velocity=41 time=0.010080645833333334
EXTRACT: note_on channel=9 note=28 velocity=0 time=0.010080645833333334
EXTRACT: note_on channel=1 note=24 velocity=107 time=0
EXTRACT: note_on channel=4 note=60 velocity=117 time=0
EXTRACT: note_on channel=5 note=52 velocity=107 time=0
EXTRACT: note_on channel=6 note=72 velocity=107 time=0
EXTRACT: note_on channel=7 note=64 velocity=107 time=0
EXTRACT: note_on channel=7 note=72 velocity=86 time=0
EXTRACT: note_on channel=9 note=35 velocity=115 time=0
EXTRACT: note_on channel=9 note=42 velocity=63 time=0
EXTRACT: note_on channel=12 note=23 velocity=115 time=0
EXTRACT: note_on channel=15 note=52 velocity=1 time=0
EXTRACT: note_on channel=15 note=60 velocity=1 time=0
EXTRACT: note_on channel=15 note=72 velocity=1 time=0
EXTRACT: note_on channel=9 note=86 velocity=107 time=0.005040322916666667
EXTRACT: note_on channel=9 note=63 velocity=107 time=0.0025201614583333335
EXTRACT: note_on channel=9 note=42 velocity=0 time=0.0025201614583333335
EXTRACT: note_on channel=9 note=35 velocity=0 time=0
EXTRACT: note_on channel=9 note=86 velocity=0 time=0.005040322916666667
EXTRACT: note_on channel=9 note=63 velocity=0 time=0.0025201614583333335
EXTRACT: note_on channel=12 note=23 velocity=0 time=0.0025201614583333335
EXTRACT: note_on channel=2 note=36 velocity=113 time=0.005040322916666667
EXTRACT: note_on channel=13 note=36 velocity=103 time=0
EXTRACT: note_on channel=13 note=48 velocity=101 time=0
EXTRACT: note_on channel=13 note=52 velocity=0 time=0.007560484375000001
EXTRACT: note_on channel=13 note=40 velocity=0 time=0
EXTRACT: note_on channel=2 note=40 velocity=0 time=0
EXTRACT: note_on channel=9 note=28 velocity=48 time=0.07812500520833333
EXTRACT: note_on channel=9 note=35 velocity=93 time=0.0025201614583333335
EXTRACT: note_on channel=9 note=63 velocity=107 time=0
EXTRACT: note_on channel=12 note=23 velocity=93 time=0
EXTRACT: note_on channel=9 note=28 velocity=0 time=0.007560484375000001
EXTRACT: note_on channel=9 note=42 velocity=50 time=0
EXTRACT: note_on channel=9 note=75 velocity=55 time=0
EXTRACT: note_on channel=9 note=86 velocity=76 time=0
EXTRACT: note_on channel=9 note=63 velocity=0 time=0.0025201614583333335
EXTRACT: note_on channel=9 note=35 velocity=0 time=0
EXTRACT: note_on channel=9 note=86 velocity=0 time=0.007560484375000001
EXTRACT: note_on channel=9 note=75 velocity=0 time=0
EXTRACT: note_on channel=9 note=42 velocity=0 time=0
EXTRACT: note_on channel=12 note=23 velocity=0 time=0.0025201614583333335
EXTRACT: note_on channel=9 note=28 velocity=32 time=0.098286296875
EXTRACT: note_on channel=9 note=86 velocity=113 time=0.005040322916666667
EXTRACT: note_on channel=9 note=28 velocity=0 time=0.005040322916666667
EXTRACT: note_on channel=9 note=42 velocity=119 time=0
EXTRACT: note_on channel=9 note=86 velocity=0 time=0.005040322916666667
EXTRACT: note_on channel=9 note=42 velocity=0 time=0.005040322916666667
EXTRACT: note_on channel=9 note=63 velocity=102 time=0.09324597395833334
EXTRACT: note_on channel=9 note=63 velocity=0 time=0.010080645833333334
EXTRACT: note_on channel=9 note=40 velocity=102 time=0.007560484375000001
EXTRACT: note_on channel=9 note=42 velocity=78 time=0
EXTRACT: note_on channel=9 note=86 velocity=107 time=0
EXTRACT: note_on channel=9 note=86 velocity=0 time=0.010080645833333334
EXTRACT: note_on channel=9 note=42 velocity=0 time=0
EXTRACT: note_on channel=9 note=40 velocity=0 time=0
EXTRACT: note_on channel=9 note=35 velocity=106 time=0.098286296875
EXTRACT: note_on channel=12 note=23 velocity=106 time=0
EXTRACT: note_on channel=9 note=35 velocity=0 time=0.010080645833333334
EXTRACT: note_on channel=1 note=24 velocity=0 time=0
EXTRACT: note_on channel=1 note=31 velocity=107 time=0.0025201614583333335
EXTRACT: note_on channel=9 note=42 velocity=61 time=0
EXTRACT: note_on channel=9 note=72 velocity=45 time=0
EXTRACT: note_on channel=12 note=23 velocity=0 time=0.007560484375000001
EXTRACT: note_on channel=2 note=43 velocity=113 time=0
EXTRACT: note_on channel=9 note=62 velocity=127 time=0
EXTRACT: note_on channel=13 note=43 velocity=103 time=0
EXTRACT: note_on channel=13 note=55 velocity=101 time=0
EXTRACT: note_on channel=9 note=72 velocity=0 time=0.0025201614583333335
EXTRACT: note_on channel=9 note=42 velocity=0 time=0
EXTRACT: note_on channel=13 note=36 velocity=0 time=0.0025201614583333335
EXTRACT: note_on channel=2 note=36 velocity=0 time=0
EXTRACT: note_on channel=13 note=48 velocity=0 time=0
EXTRACT: note_on channel=9 note=62 velocity=0 time=0.005040322916666667
EXTRACT: note_on channel=9 note=28 velocity=61 time=0.09324597395833334
EXTRACT: note_on channel=9 note=86 velocity=113 time=0.007560484375000001
EXTRACT: note_on channel=9 note=28 velocity=0 time=0.0025201614583333335
EXTRACT: note_on channel=9 note=42 velocity=50 time=0
EXTRACT: note_on channel=9 note=75 velocity=54 time=0
EXTRACT: note_on channel=9 note=86 velocity=0 time=0.007560484375000001
EXTRACT: note_on channel=9 note=75 velocity=0 time=0.0025201614583333335
EXTRACT: note_on channel=9 note=42 velocity=0 time=0
EXTRACT: note_on channel=1 note=28 velocity=107 time=0.11088710416666667
EXTRACT: note_on channel=9 note=40 velocity=113 time=0
EXTRACT: note_on channel=9 note=42 velocity=119 time=0
EXTRACT: note_on channel=9 note=75 velocity=52 time=0
EXTRACT: note_on channel=9 note=62 velocity=113 time=0.007560484375000001
EXTRACT: note_on channel=9 note=75 velocity=0 time=0.0025201614583333335
EXTRACT: note_on channel=9 note=42 velocity=0 time=0
EXTRACT: note_on channel=9 note=40 velocity=0 time=0
EXTRACT: note_on channel=9 note=62 velocity=0 time=0.007560484375000001
EXTRACT: note_on channel=2 note=40 velocity=107 time=0
EXTRACT: note_on channel=13 note=40 velocity=97 time=0
EXTRACT: note_on channel=13 note=52 velocity=95 time=0
EXTRACT: note_on channel=1 note=31 velocity=0 time=0.005040322916666667
EXTRACT: note_on channel=13 note=55 velocity=0 time=0.020161291666666668
EXTRACT: note_on channel=13 note=43 velocity=0 time=0
EXTRACT: note_on channel=2 note=43 velocity=0 time=0
EXTRACT: note_on channel=9 note=28 velocity=33 time=0.068044359375
EXTRACT: note_on channel=9 note=35 velocity=117 time=0.007560484375000001
EXTRACT: note_on channel=12 note=23 velocity=117 time=0
EXTRACT: note_on channel=9 note=28 velocity=0 time=0.0025201614583333335
EXTRACT: note_on channel=9 note=42 velocity=72 time=0
EXTRACT: note_on channel=9 note=63 velocity=93 time=0
EXTRACT: note_on channel=9 note=75 velocity=52 time=0
EXTRACT: note_on channel=9 note=35 velocity=0 time=0.007560484375000001
EXTRACT: note_on channel=9 note=75 velocity=0 time=0.0025201614583333335
EXTRACT: note_on channel=9 note=63 velocity=0 time=0
EXTRACT: note_on channel=9 note=42 velocity=0 time=0
EXTRACT: note_on channel=12 note=23 velocity=0 time=0.007560484375000001
EXTRACT: note_on channel=15 note=72 velocity=0 time=0.012600807291666667
EXTRACT: note_on channel=6 note=72 velocity=0 time=0
EXTRACT: note_on channel=15 note=60 velocity=0 time=0.05796371354166667
EXTRACT: note_on channel=4 note=60 velocity=0 time=0
EXTRACT: note_on channel=1 note=28 velocity=0 time=0
EXTRACT: note_on channel=9 note=28 velocity=44 time=0.022681453125
EXTRACT: note_on channel=9 note=63 velocity=107 time=0.007560484375000001
EXTRACT: note_on channel=9 note=28 velocity=0 time=0.0025201614583333335
EXTRACT: note_on channel=1 note=24 velocity=102 time=0
EXTRACT: note_on channel=9 note=42 velocity=54 time=0
EXTRACT: note_on channel=9 note=86 velocity=107 time=0.0025201614583333335
EXTRACT: note_on channel=9 note=63 velocity=0 time=0.005040322916666667
EXTRACT: note_on channel=9 note=42 velocity=0 time=0.0025201614583333335
EXTRACT: note_on channel=9 note=86 velocity=0 time=0.0025201614583333335
EXTRACT: note_on channel=2 note=36 velocity=102 time=0
EXTRACT: note_on channel=13 note=36 velocity=92 time=0
EXTRACT: note_on channel=13 note=48 velocity=90 time=0
EXTRACT: note_on channel=13 note=52 velocity=0 time=0.005040322916666667
EXTRACT: note_on channel=2 note=40 velocity=0 time=0
EXTRACT: note_on channel=13 note=40 velocity=0 time=0
EXTRACT: note_on channel=7 note=64 velocity=0 time=0.04284274479166667
EXTRACT: note_on channel=7 note=72 velocity=0 time=0.012600807291666667
EXTRACT: note_on channel=9 note=28 velocity=61 time=0.037802421875
EXTRACT: note_on channel=9 note=63 velocity=78 time=0.007560484375000001
EXTRACT: note_on channel=9 note=28 velocity=0 time=0.0025201614583333335
EXTRACT: note_on channel=9 note=42 velocity=48 time=0
EXTRACT: note_on channel=9 note=75 velocity=54 time=0
EXTRACT: note_on channel=9 note=86 velocity=85 time=0.0025201614583333335
EXTRACT: note_on channel=9 note=63 velocity=0 time=0.005040322916666667
EXTRACT: note_on channel=9 note=75 velocity=0 time=0.0025201614583333335
EXTRACT: note_on channel=9 note=42 velocity=0 time=0
EXTRACT: note_on channel=9 note=35 velocity=104 time=0
EXTRACT: note_on channel=12 note=23 velocity=104 time=0
EXTRACT: note_on channel=9 note=86 velocity=0 time=0.0025201614583333335
EXTRACT: note_on channel=9 note=35 velocity=0 time=0.007560484375000001
EXTRACT: note_on channel=12 note=23 velocity=0 time=0.010080645833333334
EXTRACT: note_on channel=5 note=52 velocity=0 time=0.0025201614583333335
EXTRACT: note_on channel=15 note=52 velocity=0 time=0
EXTRACT: note_on channel=9 note=63 velocity=101 time=0.07560484375
EXTRACT: note_on channel=9 note=28 velocity=69 time=0.0025201614583333335
EXTRACT: note_on channel=9 note=86 velocity=107 time=0.0025201614583333335
EXTRACT: note_on channel=9 note=63 velocity=0 time=0.005040322916666667
EXTRACT: note_on channel=9 note=28 velocity=0 time=0.0025201614583333335
EXTRACT: note_on channel=1 note=32 velocity=107 time=0
EXTRACT: note_on channel=4 note=60 velocity=123 time=0
EXTRACT: note_on channel=6 note=72 velocity=107 time=0
EXTRACT: note_on channel=7 note=65 velocity=107 time=0
EXTRACT: note_on channel=7 note=72 velocity=95 time=0
EXTRACT: note_on channel=9 note=35 velocity=81 time=0
EXTRACT: note_on channel=9 note=42 velocity=115 time=0
EXTRACT: note_on channel=9 note=72 velocity=39 time=0
EXTRACT: note_on channel=9 note=75 velocity=51 time=0
EXTRACT: note_on channel=12 note=23 velocity=81 time=0
EXTRACT: note_on channel=15 note=60 velocity=1 time=0
EXTRACT: note_on channel=15 note=72 velocity=1 time=0
EXTRACT: note_on channel=9 note=86 velocity=0 time=0.0025201614583333335
EXTRACT: note_on channel=1 note=24 velocity=0 time=0.005040322916666667
EXTRACT: note_on channel=9 note=35 velocity=0 time=0.0025201614583333335
EXTRACT: note_on channel=9 note=75 velocity=0 time=0
EXTRACT: note_on channel=9 note=42 velocity=0 time=0
EXTRACT: note_on channel=9 note=72 velocity=0 time=0
EXTRACT: note_on channel=2 note=44 velocity=113 time=0.0025201614583333335
EXTRACT: note_on channel=13 note=44 velocity=103 time=0
EXTRACT: note_on channel=13 note=56 velocity=101 time=0
EXTRACT: note_on channel=2 note=36 velocity=0 time=0.007560484375000001
EXTRACT: note_on channel=13 note=48 velocity=0 time=0
EXTRACT: note_on channel=13 note=36 velocity=0 time=0
EXTRACT: note_on channel=12 note=23 velocity=0 time=0
EXTRACT: note_on channel=9 note=28 velocity=31 time=0.0907258125
EXTRACT: note_on channel=7 note=65 velocity=0 time=0.0025201614583333335
EXTRACT: note_on channel=7 note=72 velocity=0 time=0.005040322916666667
EXTRACT: note_on channel=9 note=86 velocity=113 time=0
EXTRACT: note_on channel=9 note=28 velocity=0 time=0.0025201614583333335
EXTRACT: note_on channel=9 note=42 velocity=72 time=0
EXTRACT: note_on channel=9 note=86 velocity=0 time=0.007560484375000001
EXTRACT: note_on channel=9 note=42 velocity=0 time=0.0025201614583333335
EXTRACT: note_on channel=15 note=72 velocity=0 time=0.03276209895833333
EXTRACT: note_on channel=6 note=72 velocity=0 time=0
EXTRACT: note_on channel=15 note=60 velocity=0 time=0.020161291666666668
EXTRACT: note_on channel=4 note=60 velocity=0 time=0
EXTRACT: note_on channel=9 note=28 velocity=40 time=0.04788306770833334
EXTRACT: note_on channel=9 note=28 velocity=0 time=0.010080645833333334
EXTRACT: note_on channel=9 note=42 velocity=62 time=0
EXTRACT: note_on channel=9 note=62 velocity=113 time=0
EXTRACT: note_on channel=9 note=62 velocity=0 time=0.010080645833333334
EXTRACT: note_on channel=9 note=42 velocity=0 time=0
EXTRACT: note_on channel=1 note=32 velocity=0 time=0.10080645833333333
EXTRACT: note_on channel=9 note=28 velocity=52 time=0
EXTRACT: note_on channel=9 note=28 velocity=0 time=0.010080645833333334
EXTRACT: note_on channel=1 note=29 velocity=107 time=0
EXTRACT: note_on channel=4 note=60 velocity=123 time=0
EXTRACT: note_on channel=5 note=56 velocity=107 time=0
EXTRACT: note_on channel=6 note=72 velocity=102 time=0
EXTRACT: note_on channel=7 note=65 velocity=107 time=0
EXTRACT: note_on channel=7 note=72 velocity=95 time=0
EXTRACT: note_on channel=9 note=35 velocity=115 time=0
EXTRACT: note_on channel=9 note=42 velocity=47 time=0
EXTRACT: note_on channel=9 note=75 velocity=60 time=0
EXTRACT: note_on channel=12 note=23 velocity=115 time=0
EXTRACT: note_on channel=15 note=56 velocity=1 time=0
EXTRACT: note_on channel=15 note=60 velocity=1 time=0
EXTRACT: note_on channel=15 note=72 velocity=1 time=0
EXTRACT: note_on channel=2 note=44 velocity=0 time=0.0025201614583333335
EXTRACT: note_on channel=13 note=56 velocity=0 time=0
EXTRACT: note_on channel=13 note=44 velocity=0 time=0
EXTRACT: note_on channel=2 note=41 velocity=107 time=0.0025201614583333335
EXTRACT: note_on channel=13 note=41 velocity=97 time=0
EXTRACT: note_on channel=13 note=53 velocity=95 time=0
EXTRACT: note_on channel=9 note=42 velocity=0 time=0.005040322916666667
EXTRACT: note_on channel=9 note=35 velocity=0 time=0
EXTRACT: note_on channel=9 note=75 velocity=0 time=0
EXTRACT: note_on channel=12 note=23 velocity=0 time=0.010080645833333334
EXTRACT: note_on channel=7 note=65 velocity=0 time=0.04788306770833334
EXTRACT: note_on channel=7 note=72 velocity=0 time=0.007560484375000001
EXTRACT: note_on channel=9 note=40 velocity=113 time=0.04536290625
EXTRACT: note_on channel=9 note=42 velocity=113 time=0
EXTRACT: note_on channel=9 note=62 velocity=119 time=0
EXTRACT: note_on channel=9 note=75 velocity=54 time=0
EXTRACT: note_on channel=9 note=75 velocity=0 time=0.010080645833333334
EXTRACT: note_on channel=15 note=72 velocity=0 time=0
EXTRACT: note_on channel=6 note=72 velocity=0 time=0
EXTRACT: note_on channel=9 note=62 velocity=0 time=0
EXTRACT: note_on channel=9 note=40 velocity=0 time=0
EXTRACT: note_on channel=9 note=42 velocity=0 time=0
EXTRACT: note_on channel=15 note=60 velocity=0 time=0.05796371354166667
EXTRACT: note_on channel=4 note=60 velocity=0 time=0
EXTRACT: note_on channel=15 note=56 velocity=0 time=0
EXTRACT: note_on channel=5 note=56 velocity=0 time=0
EXTRACT: note_on channel=9 note=28 velocity=32 time=0.04284274479166667
EXTRACT: note_on channel=9 note=28 velocity=0 time=0.010080645833333334
EXTRACT: note_on channel=9 note=42 velocity=71 time=0
EXTRACT: note_on channel=9 note=75 velocity=56 time=0
EXTRACT: note_on channel=9 note=75 velocity=0 time=0.010080645833333334
EXTRACT: note_on channel=9 note=42 velocity=0 time=0
EXTRACT: note_on channel=1 note=29 velocity=0 time=0.098286296875
EXTRACT: note_on channel=9 note=28 velocity=48 time=0.0025201614583333335
EXTRACT: note_on channel=9 note=86 velocity=113 time=0
EXTRACT: note_on channel=9 note=63 velocity=107 time=0.0025201614583333335
EXTRACT: note_on channel=13 note=41 velocity=0 time=0.0025201614583333335
EXTRACT: note_on channel=13 note=53 velocity=0 time=0
EXTRACT: note_on channel=2 note=41 velocity=0 time=0
EXTRACT: note_on channel=9 note=28 velocity=0 time=0.005040322916666667
EXTRACT: note_on channel=9 note=86 velocity=0 time=0
EXTRACT: note_on channel=1 note=24 velocity=102 time=0
EXTRACT: note_on channel=4 note=60 velocity=117 time=0
EXTRACT: note_on channel=5 note=53 velocity=113 time=0
EXTRACT: note_on channel=6 note=72 velocity=107 time=0
EXTRACT: note_on channel=7 note=65 velocity=102 time=0
EXTRACT: note_on channel=7 note=72 velocity=95 time=0
EXTRACT: note_on channel=9 note=35 velocity=106 time=0
EXTRACT: note_on channel=9 note=42 velocity=63 time=0
EXTRACT: note_on channel=12 note=23 velocity=106 time=0
EXTRACT: note_on channel=15 note=53 velocity=1 time=0
EXTRACT: note_on channel=15 note=60 velocity=1 time=0
EXTRACT: note_on channel=15 note=72 velocity=1 time=0
EXTRACT: note_on channel=9 note=63 velocity=0 time=0.0025201614583333335
EXTRACT: note_on channel=2 note=36 velocity=113 time=0.0025201614583333335
EXTRACT: note_on channel=13 note=36 velocity=103 time=0
EXTRACT: note_on channel=13 note=48 velocity=101 time=0
EXTRACT: note_on channel=9 note=42 velocity=0 time=0.005040322916666667
EXTRACT: note_on channel=9 note=35 velocity=0 time=0
EXTRACT: note_on channel=12 note=23 velocity=0 time=0.010080645833333334
EXTRACT: note_on channel=9 note=86 velocity=98 time=0.08820565104166667
EXTRACT: note_on channel=9 note=28 velocity=65 time=0.0025201614583333335
EXTRACT: note_on channel=9 note=35 velocity=76 time=0
EXTRACT: note_on channel=12 note=23 velocity=76 time=0
EXTRACT: note_on channel=9 note=63 velocity=85 time=0.005040322916666667
EXTRACT: note_on channel=9 note=86 velocity=0 time=0.0025201614583333335
EXTRACT: note_on channel=9 note=35 velocity=0 time=0.0025201614583333335
EXTRACT: note_on channel=9 note=28 velocity=0 time=0
EXTRACT: note_on channel=9 note=42 velocity=50 time=0
EXTRACT: note_on channel=9 note=75 velocity=60 time=0
EXTRACT: note_on channel=9 note=63 velocity=0 time=0.005040322916666667
EXTRACT: note_on channel=9 note=75 velocity=0 time=0.005040322916666667
EXTRACT: note_on channel=12 note=23 velocity=0 time=0
EXTRACT: note_on channel=9 note=42 velocity=0 time=0
EXTRACT: note_on channel=9 note=86 velocity=102 time=0.098286296875
EXTRACT: note_on channel=9 note=28 velocity=29 time=0.0025201614583333335
EXTRACT: note_on channel=9 note=86 velocity=0 time=0.007560484375000001
EXTRACT: note_on channel=9 note=28 velocity=0 time=0.0025201614583333335
EXTRACT: note_on channel=9 note=42 velocity=119 time=0
EXTRACT: note_on channel=9 note=42 velocity=0 time=0.010080645833333334
EXTRACT: note_on channel=9 note=63 velocity=98 time=0.09324597395833334
EXTRACT: note_on channel=9 note=28 velocity=56 time=0.007560484375000001
EXTRACT: note_on channel=9 note=63 velocity=0 time=0.0025201614583333335
EXTRACT: note_on channel=9 note=86 velocity=98 time=0
EXTRACT: note_on channel=9 note=28 velocity=0 time=0.007560484375000001
EXTRACT: note_on channel=9 note=40 velocity=107 time=0
EXTRACT: note_on channel=9 note=42 velocity=78 time=0
EXTRACT: note_on channel=9 note=86 velocity=0 time=0.0025201614583333335
EXTRACT: note_on channel=9 note=42 velocity=0 time=0.007560484375000001
EXTRACT: note_on channel=9 note=40 velocity=0 time=0
EXTRACT: note_on channel=1 note=24 velocity=0 time=0.07560484375
EXTRACT: note_on channel=13 note=36 velocity=0 time=0.0025201614583333335
EXTRACT: note_on channel=2 note=36 velocity=0 time=0
EXTRACT: note_on channel=13 note=48 velocity=0 time=0
EXTRACT: note_on channel=7 note=65 velocity=0 time=0.005040322916666667
EXTRACT: note_on channel=5 note=53 velocity=0 time=0.007560484375000001
EXTRACT: note_on channel=15 note=53 velocity=0 time=0
EXTRACT: note_on channel=4 note=60 velocity=0 time=0
EXTRACT: note_on channel=15 note=60 velocity=0 time=0
EXTRACT: note_on channel=2 note=44 velocity=113 time=0.005040322916666667
EXTRACT: note_on channel=9 note=35 velocity=109 time=0
EXTRACT: note_on channel=12 note=23 velocity=109 time=0
EXTRACT: note_on channel=13 note=44 velocity=103 time=0
EXTRACT: note_on channel=13 note=56 velocity=101 time=0
EXTRACT: note_on channel=7 note=72 velocity=0 time=0.007560484375000001
EXTRACT: note_on channel=9 note=35 velocity=0 time=0.0025201614583333335
EXTRACT: note_on channel=1 note=32 velocity=102 time=0.005040322916666667
EXTRACT: note_on channel=4 note=61 velocity=127 time=0
EXTRACT: note_on channel=5 note=56 velocity=102 time=0
EXTRACT: note_on channel=6 note=73 velocity=102 time=0
EXTRACT: note_on channel=7 note=65 velocity=107 time=0
EXTRACT: note_on channel=7 note=73 velocity=90 time=0
EXTRACT: note_on channel=9 note=42 velocity=61 time=0
EXTRACT: note_on channel=9 note=72 velocity=49 time=0
EXTRACT: note_on channel=15 note=56 velocity=1 time=0
EXTRACT: note_on channel=15 note=61 velocity=1 time=0
EXTRACT: note_on channel=15 note=73 velocity=1 time=0
EXTRACT: note_on channel=12 note=23 velocity=0 time=0.005040322916666667
EXTRACT: note_on channel=9 note=62 velocity=127 time=0.0025201614583333335
EXTRACT: note_on channel=9 note=72 velocity=0 time=0.0025201614583333335
EXTRACT: note_on channel=9 note=42 velocity=0 time=0
EXTRACT: note_on channel=6 note=72 velocity=0 time=0.005040322916666667
EXTRACT: note_on channel=15 note=72 velocity=0 time=0
EXTRACT: note_on channel=9 note=62 velocity=0 time=0.0025201614583333335
EXTRACT: note_on channel=9 note=28 velocity=52 time=0.09324597395833334
EXTRACT: note_on channel=9 note=28 velocity=0 time=0.010080645833333334
EXTRACT: note_on channel=9 note=42 velocity=50 time=0
EXTRACT: note_on channel=9 note=75 velocity=49 time=0
EXTRACT: note_on channel=9 note=75 velocity=0 time=0.010080645833333334
EXTRACT: note_on channel=9 note=42 velocity=0 time=0
EXTRACT: note_on channel=5 note=56 velocity=0 time=0.08820565104166667
EXTRACT: note_on channel=15 note=56 velocity=0 time=0
EXTRACT: note_on channel=15 note=61 velocity=0 time=0
EXTRACT: note_on channel=4 note=61 velocity=0 time=0
EXTRACT: note_on channel=7 note=65 velocity=0 time=0.0025201614583333335
EXTRACT: note_on channel=15 note=73 velocity=0 time=0.010080645833333334
EXTRACT: note_on channel=6 note=73 velocity=0 time=0
EXTRACT: note_on channel=2 note=41 velocity=107 time=0.005040322916666667
EXTRACT: note_on channel=13 note=41 velocity=97 time=0
EXTRACT: note_on channel=13 note=53 velocity=95 time=0
EXTRACT: note_on channel=13 note=56 velocity=0 time=0.005040322916666667
EXTRACT: note_on channel=13 note=44 velocity=0 time=0
EXTRACT: note_on channel=2 note=44 velocity=0 time=0
EXTRACT: note_on channel=1 note=29 velocity=98 time=0
EXTRACT: note_on channel=4 note=60 velocity=111 time=0
EXTRACT: note_on channel=5 note=56 velocity=91 time=0
EXTRACT: note_on channel=6 note=72 velocity=98 time=0
EXTRACT: note_on channel=7 note=65 velocity=98 time=0
EXTRACT: note_on channel=7 note=72 velocity=81 time=0
EXTRACT: note_on channel=9 note=40 velocity=113 time=0
EXTRACT: note_on channel=9 note=42 velocity=119 time=0
EXTRACT: note_on channel=9 note=75 velocity=54 time=0
EXTRACT: note_on channel=15 note=56 velocity=1 time=0
EXTRACT: note_on channel=15 note=60 velocity=1 time=0
EXTRACT: note_on channel=15 note=72 velocity=1 time=0
EXTRACT: note_on channel=9 note=75 velocity=0 time=0.010080645833333334
EXTRACT: note_on channel=9 note=42 velocity=0 time=0
EXTRACT: note_on channel=7 note=73 velocity=0 time=0
EXTRACT: note_on channel=9 note=40 velocity=0 time=0
EXTRACT: note_on channel=1 note=32 velocity=0 time=0.005040322916666667
EXTRACT: note_on channel=9 note=62 velocity=127 time=0.0025201614583333335
EXTRACT: note_on channel=9 note=62 velocity=0 time=0.010080645833333334
EXTRACT: note_on channel=9 note=28 velocity=35 time=0.08316532812500001
EXTRACT: note_on channel=9 note=63 velocity=107 time=0.0025201614583333335
EXTRACT: note_on channel=9 note=28 velocity=0 time=0.007560484375000001
EXTRACT: note_on channel=9 note=35 velocity=115 time=0
EXTRACT: note_on channel=9 note=42 velocity=72 time=0
EXTRACT: note_on channel=9 note=75 velocity=52 time=0
EXTRACT: note_on channel=12 note=23 velocity=115 time=0
EXTRACT: note_on channel=9 note=63 velocity=0 time=0.0025201614583333335
EXTRACT: note_on channel=9 note=75 velocity=0 time=0.007560484375000001
EXTRACT: note_on channel=9 note=42 velocity=0 time=0
EXTRACT: note_on channel=9 note=35 velocity=0 time=0
EXTRACT: note_on channel=12 note=23 velocity=0 time=0.010080645833333334
EXTRACT: note_on channel=7 note=72 velocity=0 time=0.060483875000000006
EXTRACT: note_on channel=7 note=65 velocity=0 time=0
EXTRACT: note_on channel=1 note=29 velocity=0 time=0.030241937500000003
EXTRACT: note_on channel=9 note=28 velocity=40 time=0
EXTRACT: note_on channel=13 note=53 velocity=0 time=0.0025201614583333335
EXTRACT: note_on channel=5 note=56 velocity=0 time=0
EXTRACT: note_on channel=13 note=41 velocity=0 time=0
EXTRACT: note_on channel=2 note=41 velocity=0 time=0
EXTRACT: note_on channel=15 note=56 velocity=0 time=0
EXTRACT: note_on channel=2 note=36 velocity=102 time=0.0025201614583333335
EXTRACT: note_on channel=13 note=36 velocity=92 time=0
EXTRACT: note_on channel=13 note=48 velocity=90 time=0
EXTRACT: note_on channel=9 note=28 velocity=0 time=0.005040322916666667
EXTRACT: note_on channel=1 note=24 velocity=93 time=0
EXTRACT: note_on channel=4 note=58 velocity=111 time=0
EXTRACT: note_on channel=5 note=53 velocity=93 time=0
EXTRACT: note_on channel=6 note=70 velocity=102 time=0
EXTRACT: note_on channel=7 note=65 velocity=102 time=0
EXTRACT: note_on channel=7 note=70 velocity=81 time=0
EXTRACT: note_on channel=9 note=42 velocity=54 time=0
EXTRACT: note_on channel=15 note=53 velocity=1 time=0
EXTRACT: note_on channel=15 note=58 velocity=1 time=0
EXTRACT: note_on channel=15 note=70 velocity=1 time=0
EXTRACT: note_on channel=15 note=72 velocity=0 time=0.0025201614583333335
EXTRACT: note_on channel=6 note=72 velocity=0 time=0
EXTRACT: note_on channel=9 note=86 velocity=107 time=0.0025201614583333335
EXTRACT: note_on channel=9 note=42 velocity=0 time=0.005040322916666667
EXTRACT: note_on channel=9 note=86 velocity=0 time=0.005040322916666667
EXTRACT: note_on channel=9 note=63 velocity=72 time=0.010080645833333334
EXTRACT: note_on channel=9 note=63 velocity=0 time=0.010080645833333334
EXTRACT: note_on channel=15 note=60 velocity=0 time=0.007560484375000001
EXTRACT: note_on channel=4 note=60 velocity=0 time=0
EXTRACT: note_on channel=9 note=28 velocity=61 time=0.068044359375
EXTRACT: note_on channel=9 note=63 velocity=99 time=0.007560484375000001
EXTRACT: note_on channel=9 note=28 velocity=0 time=0.0025201614583333335
EXTRACT: note_on channel=9 note=42 velocity=48 time=0
EXTRACT: note_on channel=9 note=75 velocity=47 time=0
EXTRACT: note_on channel=9 note=86 velocity=76 time=0
EXTRACT: note_on channel=9 note=63 velocity=0 time=0.007560484375000001
EXTRACT: note_on channel=9 note=86 velocity=0 time=0.0025201614583333335
EXTRACT: note_on channel=9 note=75 velocity=0 time=0
EXTRACT: note_on channel=9 note=42 velocity=0 time=0
EXTRACT: note_on channel=5 note=53 velocity=0 time=0.08568548958333334
EXTRACT: note_on channel=15 note=53 velocity=0 time=0
EXTRACT: note_on channel=9 note=28 velocity=68 time=0.015120968750000002
EXTRACT: note_on channel=7 note=65 velocity=0 time=0.0025201614583333335
EXTRACT: note_on channel=9 note=63 velocity=119 time=0
EXTRACT: note_on channel=15 note=70 velocity=0 time=0.005040322916666667
EXTRACT: note_on channel=6 note=70 velocity=0 time=0
EXTRACT: note_on channel=9 note=86 velocity=113 time=0
EXTRACT: note_on channel=9 note=28 velocity=0 time=0.0025201614583333335
EXTRACT: note_on channel=13 note=48 velocity=0 time=0
EXTRACT: note_on channel=2 note=36 velocity=0 time=0
EXTRACT: note_on channel=13 note=36 velocity=0 time=0
EXTRACT: note_on channel=1 note=31 velocity=107 time=0
EXTRACT: note_on channel=4 note=60 velocity=117 time=0
EXTRACT: note_on channel=5 note=55 velocity=103 time=0
EXTRACT: note_on channel=6 note=72 velocity=98 time=0
EXTRACT: note_on channel=7 note=64 velocity=93 time=0
EXTRACT: note_on channel=7 note=72 velocity=90 time=0
EXTRACT: note_on channel=9 note=35 velocity=102 time=0
EXTRACT: note_on channel=9 note=42 velocity=115 time=0
EXTRACT: note_on channel=9 note=75 velocity=60 time=0
EXTRACT: note_on channel=12 note=23 velocity=102 time=0
EXTRACT: note_on channel=15 note=55 velocity=1 time=0
EXTRACT: note_on channel=15 note=60 velocity=1 time=0
EXTRACT: note_on channel=15 note=72 velocity=1 time=0
EXTRACT: note_on channel=9 note=63 velocity=0 time=0.0025201614583333335
EXTRACT: note_on channel=2 note=43 velocity=107 time=0
EXTRACT: note_on channel=13 note=43 velocity=97 time=0
EXTRACT: note_on channel=13 note=55 velocity=95 time=0
EXTRACT: note_on channel=1 note=24 velocity=0 time=0.0025201614583333335
EXTRACT: note_on channel=7 note=70 velocity=0 time=0
EXTRACT: note_on channel=9 note=86 velocity=0 time=0.0025201614583333335
EXTRACT: note_on channel=9 note=35 velocity=0 time=0.0025201614583333335
EXTRACT: note_on channel=9 note=75 velocity=0 time=0
EXTRACT: note_on channel=9 note=42 velocity=0 time=0
EXTRACT: note_on channel=12 note=23 velocity=0 time=0.010080645833333334
EXTRACT: note_on channel=4 note=58 velocity=0 time=0
EXTRACT: note_on channel=15 note=58 velocity=0 time=0
EXTRACT: note_on channel=9 note=28 velocity=28 time=0.0907258125
EXTRACT: note_on channel=9 note=63 velocity=82 time=0.005040322916666667
EXTRACT: note_on channel=9 note=28 velocity=0 time=0.005040322916666667
EXTRACT: note_on channel=9 note=42 velocity=72 time=0
EXTRACT: note_on channel=9 note=63 velocity=0 time=0.005040322916666667
EXTRACT: note_on channel=9 note=86 velocity=98 time=0
EXTRACT: note_on channel=9 note=42 velocity=0 time=0.005040322916666667
EXTRACT: note_on channel=9 note=86 velocity=0 time=0.005040322916666667
EXTRACT: note_on channel=9 note=28 velocity=38 time=0.09576613541666668
EXTRACT: note_on channel=9 note=28 velocity=0 time=0.010080645833333334
EXTRACT: note_on channel=9 note=42 velocity=62 time=0
EXTRACT: note_on channel=9 note=62 velocity=113 time=0.0025201614583333335
EXTRACT: note_on channel=9 note=42 velocity=0 time=0.007560484375000001
EXTRACT: note_on channel=9 note=62 velocity=0 time=0.0025201614583333335
EXTRACT: note_on channel=13 note=55 velocity=0 time=0.08316532812500001
EXTRACT: note_on channel=2 note=43 velocity=0 time=0
EXTRACT: note_on channel=13 note=43 velocity=0 time=0
EXTRACT: note_on channel=2 note=40 velocity=102 time=0.015120968750000002
EXTRACT: note_on channel=9 note=28 velocity=56 time=0
EXTRACT: note_on channel=13 note=40 velocity=92 time=0
EXTRACT: note_on channel=13 note=52 velocity=90 time=0
EXTRACT: note_on channel=1 note=31 velocity=0 time=0.007560484375000001
EXTRACT: note_on channel=9 note=28 velocity=0 time=0.0025201614583333335
EXTRACT: note_on channel=1 note=28 velocity=113 time=0
EXTRACT: note_on channel=9 note=35 velocity=110 time=0
EXTRACT: note_on channel=9 note=42 velocity=47 time=0
EXTRACT: note_on channel=9 note=75 velocity=52 time=0
EXTRACT: note_on channel=12 note=23 velocity=110 time=0
EXTRACT: note_on channel=9 note=75 velocity=0 time=0.010080645833333334
EXTRACT: note_on channel=9 note=42 velocity=0 time=0
EXTRACT: note_on channel=9 note=35 velocity=0 time=0
EXTRACT: note_on channel=12 note=23 velocity=0 time=0.010080645833333334
EXTRACT: note_on channel=9 note=40 velocity=107 time=0.0907258125
EXTRACT: note_on channel=9 note=62 velocity=127 time=0.007560484375000001
EXTRACT: note_on channel=9 note=40 velocity=0 time=0.0025201614583333335
EXTRACT: note_on channel=9 note=42 velocity=113 time=0
EXTRACT: note_on channel=9 note=75 velocity=48 time=0
EXTRACT: note_on channel=9 note=62 velocity=0 time=0.007560484375000001
EXTRACT: note_on channel=9 note=75 velocity=0 time=0.0025201614583333335
EXTRACT: note_on channel=9 note=42 velocity=0 time=0
EXTRACT: note_on channel=9 note=28 velocity=40 time=0.10080645833333333
EXTRACT: note_on channel=9 note=28 velocity=0 time=0.010080645833333334
EXTRACT: note_on channel=9 note=42 velocity=71 time=0
EXTRACT: note_on channel=9 note=75 velocity=54 time=0
EXTRACT: note_on channel=9 note=75 velocity=0 time=0.010080645833333334
EXTRACT: note_on channel=9 note=42 velocity=0 time=0
EXTRACT: note_on channel=9 note=63 velocity=76 time=0
EXTRACT: note_on channel=9 note=63 velocity=0 time=0.010080645833333334
EXTRACT: note_on channel=1 note=28 velocity=0 time=0.07056452083333334
EXTRACT: note_on channel=13 note=40 velocity=0 time=0.007560484375000001
EXTRACT: note_on channel=13 note=52 velocity=0 time=0
EXTRACT: note_on channel=2 note=40 velocity=0 time=0
EXTRACT: note_on channel=2 note=36 velocity=108 time=0.012600807291666667
EXTRACT: note_on channel=9 note=28 velocity=32 time=0
EXTRACT: note_on channel=13 note=36 velocity=97 time=0
EXTRACT: note_on channel=13 note=48 velocity=99 time=0
EXTRACT: note_on channel=9 note=63 velocity=102 time=0.007560484375000001
EXTRACT: note_on channel=9 note=86 velocity=102 time=0
EXTRACT: note_on channel=9 note=28 velocity=0 time=0.0025201614583333335
EXTRACT: note_on channel=1 note=24 velocity=107 time=0
EXTRACT: note_on channel=9 note=35 velocity=98 time=0
EXTRACT: note_on channel=9 note=42 velocity=63 time=0
EXTRACT: note_on channel=12 note=23 velocity=98 time=0
EXTRACT: note_on channel=9 note=86 velocity=0 time=0.007560484375000001
EXTRACT: note_on channel=9 note=63 velocity=0 time=0
EXTRACT: note_on channel=9 note=42 velocity=0 time=0.0025201614583333335
EXTRACT: note_on channel=9 note=35 velocity=0 time=0
EXTRACT: note_on channel=12 note=23 velocity=0 time=0.010080645833333334
EXTRACT: note_on channel=9 note=63 velocity=81 time=0.08568548958333334
EXTRACT: note_on channel=9 note=86 velocity=93 time=0.0025201614583333335
EXTRACT: note_on channel=9 note=28 velocity=69 time=0.0025201614583333335
EXTRACT: note_on channel=9 note=35 velocity=88 time=0.0025201614583333335
EXTRACT: note_on channel=12 note=23 velocity=88 time=0
EXTRACT: note_on channel=9 note=63 velocity=0 time=0.0025201614583333335
EXTRACT: note_on channel=9 note=86 velocity=0 time=0.0025201614583333335
EXTRACT: note_on channel=9 note=28 velocity=0 time=0.0025201614583333335
EXTRACT: note_on channel=9 note=42 velocity=50 time=0
EXTRACT: note_on channel=9 note=75 velocity=58 time=0
EXTRACT: note_on channel=9 note=35 velocity=0 time=0.0025201614583333335
EXTRACT: note_on channel=9 note=75 velocity=0 time=0.007560484375000001
EXTRACT: note_on channel=9 note=42 velocity=0 time=0
EXTRACT: note_on channel=12 note=23 velocity=0 time=0.0025201614583333335
EXTRACT: note_on channel=1 note=24 velocity=0 time=0.0907258125
EXTRACT: note_on channel=9 note=28 velocity=36 time=0.007560484375000001
EXTRACT: note_on channel=9 note=86 velocity=102 time=0
EXTRACT: note_on channel=15 note=55 velocity=0 time=0.005040322916666667
EXTRACT: note_on channel=5 note=55 velocity=0 time=0
EXTRACT: note_on channel=9 note=86 velocity=0 time=0.005040322916666667
EXTRACT: note_on channel=9 note=28 velocity=0 time=0
EXTRACT: note_on channel=1 note=22 velocity=96 time=0
EXTRACT: note_on channel=9 note=42 velocity=119 time=0
EXTRACT: note_on channel=9 note=42 velocity=0 time=0.010080645833333334
EXTRACT: note_on channel=2 note=34 velocity=92 time=0
EXTRACT: note_on channel=13 note=34 velocity=85 time=0
EXTRACT: note_on channel=13 note=46 velocity=88 time=0
EXTRACT: note_on channel=13 note=48 velocity=0 time=0.010080645833333334
EXTRACT: note_on channel=13 note=36 velocity=0 time=0
EXTRACT: note_on channel=2 note=36 velocity=0 time=0
EXTRACT: note_on channel=9 note=63 velocity=98 time=0.07056452083333334
EXTRACT: note_on channel=9 note=63 velocity=0 time=0.010080645833333334
EXTRACT: note_on channel=9 note=28 velocity=61 time=0.010080645833333334
EXTRACT: note_on channel=9 note=86 velocity=107 time=0
EXTRACT: note_on channel=9 note=86 velocity=0 time=0.010080645833333334
EXTRACT: note_on channel=9 note=28 velocity=0 time=0
EXTRACT: note_on channel=9 note=40 velocity=98 time=0
EXTRACT: note_on channel=9 note=42 velocity=78 time=0
EXTRACT: note_on channel=9 note=42 velocity=0 time=0.010080645833333334
EXTRACT: note_on channel=9 note=40 velocity=0 time=0
EXTRACT: note_on channel=9 note=62 velocity=127 time=0.09576613541666668
EXTRACT: note_on channel=9 note=35 velocity=102 time=0.007560484375000001
EXTRACT: note_on channel=12 note=23 velocity=102 time=0
EXTRACT: note_on channel=9 note=62 velocity=0 time=0.0025201614583333335
EXTRACT: note_on channel=9 note=42 velocity=61 time=0.005040322916666667
EXTRACT: note_on channel=9 note=72 velocity=35 time=0
EXTRACT: note_on channel=9 note=35 velocity=0 time=0.0025201614583333335
EXTRACT: note_on channel=9 note=72 velocity=0 time=0.007560484375000001
EXTRACT: note_on channel=9 note=42 velocity=0 time=0
EXTRACT: note_on channel=12 note=23 velocity=0 time=0.0025201614583333335
EXTRACT: note_on channel=1 note=22 velocity=0 time=0.09324597395833334
EXTRACT: note_on channel=9 note=28 velocity=61 time=0.005040322916666667
EXTRACT: note_on channel=2 note=34 velocity=0 time=0.005040322916666667
EXTRACT: note_on channel=13 note=34 velocity=0 time=0
EXTRACT: note_on channel=13 note=46 velocity=0 time=0
EXTRACT: note_on channel=9 note=28 velocity=0 time=0.005040322916666667
EXTRACT: note_on channel=1 note=24 velocity=113 time=0
EXTRACT: note_on channel=9 note=42 velocity=50 time=0
EXTRACT: note_on channel=9 note=75 velocity=54 time=0
EXTRACT: note_on channel=2 note=36 velocity=107 time=0.005040322916666667
EXTRACT: note_on channel=13 note=36 velocity=96 time=0
EXTRACT: note_on channel=13 note=48 velocity=93 time=0
EXTRACT: note_on channel=9 note=75 velocity=0 time=0.005040322916666667
EXTRACT: note_on channel=9 note=42 velocity=0 time=0
EXTRACT: note_on channel=15 note=72 velocity=0 time=0.05544355208333333
EXTRACT: note_on channel=6 note=72 velocity=0 time=0
EXTRACT: note_on channel=7 note=72 velocity=0 time=0.037802421875
EXTRACT: note_on channel=9 note=40 velocity=102 time=0.010080645833333334
EXTRACT: note_on channel=9 note=62 velocity=119 time=0
EXTRACT: note_on channel=4 note=60 velocity=0 time=0.0025201614583333335
EXTRACT: note_on channel=15 note=60 velocity=0 time=0
EXTRACT: note_on channel=9 note=42 velocity=119 time=0.005040322916666667
EXTRACT: note_on channel=9 note=72 velocity=40 time=0
EXTRACT: note_on channel=9 note=75 velocity=51 time=0
EXTRACT: note_on channel=9 note=62 velocity=0 time=0.0025201614583333335
EXTRACT: note_on channel=9 note=40 velocity=0 time=0
EXTRACT: note_on channel=7 note=64 velocity=0 time=0.0025201614583333335
EXTRACT: note_on channel=9 note=72 velocity=0 time=0.005040322916666667
EXTRACT: note_on channel=9 note=42 velocity=0 time=0
EXTRACT: note_on channel=9 note=75 velocity=0 time=0
EXTRACT: note_on channel=9 note=63 velocity=105 time=0.09576613541666668
EXTRACT: note_on channel=9 note=28 velocity=35 time=0.005040322916666667
EXTRACT: note_on channel=9 note=63 velocity=0 time=0.005040322916666667
EXTRACT: note_on channel=9 note=28 velocity=0 time=0.005040322916666667
EXTRACT: note_on channel=9 note=42 velocity=72 time=0
EXTRACT: note_on channel=9 note=75 velocity=54 time=0
EXTRACT: note_on channel=9 note=75 velocity=0 time=0.010080645833333334
EXTRACT: note_on channel=9 note=42 velocity=0 time=0
EXTRACT: note_on channel=9 note=63 velocity=80 time=0.0907258125
EXTRACT: note_on channel=1 note=24 velocity=0 time=0.0025201614583333335
EXTRACT: note_on channel=2 note=36 velocity=0 time=0.005040322916666667
EXTRACT: note_on channel=13 note=36 velocity=0 time=0
EXTRACT: note_on channel=13 note=48 velocity=0 time=0
EXTRACT: note_on channel=9 note=63 velocity=0 time=0.0025201614583333335
EXTRACT: note_on channel=9 note=28 velocity=44 time=0
EXTRACT: note_on channel=2 note=40 velocity=100 time=0.005040322916666667
EXTRACT: note_on channel=13 note=40 velocity=90 time=0
EXTRACT: note_on channel=13 note=52 velocity=88 time=0
EXTRACT: note_on channel=9 note=28 velocity=0 time=0.005040322916666667
EXTRACT: note_on channel=1 note=28 velocity=107 time=0
EXTRACT: note_on channel=9 note=42 velocity=54 time=0
EXTRACT: note_on channel=9 note=42 velocity=0 time=0.010080645833333334
EXTRACT: note_on channel=9 note=28 velocity=48 time=0.10080645833333333
EXTRACT: note_on channel=9 note=28 velocity=0 time=0.010080645833333334
EXTRACT: note_on channel=9 note=42 velocity=48 time=0
EXTRACT: note_on channel=9 note=75 velocity=47 time=0
EXTRACT: note_on channel=9 note=75 velocity=0 time=0.010080645833333334
EXTRACT: note_on channel=9 note=42 velocity=0 time=0
EXTRACT: note_on channel=1 note=28 velocity=0 time=0.09576613541666668
EXTRACT: note_on channel=13 note=52 velocity=0 time=0.0025201614583333335
EXTRACT: note_on channel=13 note=40 velocity=0 time=0
EXTRACT: note_on channel=2 note=40 velocity=0 time=0
EXTRACT: note_on channel=1 note=32 velocity=102 time=0.012600807291666667
EXTRACT: note_on channel=2 note=44 velocity=113 time=0
EXTRACT: note_on channel=4 note=60 velocity=117 time=0
EXTRACT: note_on channel=6 note=72 velocity=102 time=0
EXTRACT: note_on channel=7 note=65 velocity=107 time=0
EXTRACT: note_on channel=7 note=72 velocity=101 time=0
EXTRACT: note_on channel=9 note=28 velocity=69 time=0
EXTRACT: note_on channel=9 note=35 velocity=117 time=0
EXTRACT: note_on channel=9 note=42 velocity=115 time=0
EXTRACT: note_on channel=9 note=86 velocity=107 time=0
EXTRACT: note_on channel=12 note=23 velocity=117 time=0
EXTRACT: note_on channel=13 note=44 velocity=103 time=0
EXTRACT: note_on channel=13 note=56 velocity=101 time=0
EXTRACT: note_on channel=15 note=60 velocity=1 time=0
EXTRACT: note_on channel=15 note=72 velocity=1 time=0
EXTRACT: note_on channel=9 note=86 velocity=0 time=0.010080645833333334
EXTRACT: note_on channel=9 note=42 velocity=0 time=0
EXTRACT: note_on channel=9 note=28 velocity=0 time=0
EXTRACT: note_on channel=9 note=35 velocity=0 time=0
EXTRACT: note_on channel=12 note=23 velocity=0 time=0.010080645833333334
EXTRACT: note_on channel=9 note=63 velocity=102 time=0
EXTRACT: note_on channel=9 note=63 velocity=0 time=0.010080645833333334
EXTRACT: note_on channel=7 note=65 velocity=0 time=0.07812500520833333
EXTRACT: note_on channel=9 note=28 velocity=32 time=0.0025201614583333335
EXTRACT: note_on channel=9 note=86 velocity=93 time=0.007560484375000001
EXTRACT: note_on channel=9 note=28 velocity=0 time=0.0025201614583333335
EXTRACT: note_on channel=9 note=42 velocity=72 time=0
EXTRACT: note_on channel=9 note=86 velocity=0 time=0.007560484375000001
EXTRACT: note_on channel=9 note=42 velocity=0 time=0.0025201614583333335
EXTRACT: note_on channel=7 note=72 velocity=0 time=0.0025201614583333335
EXTRACT: note_on channel=9 note=63 velocity=53 time=0
EXTRACT: note_on channel=9 note=63 velocity=0 time=0.010080645833333334
EXTRACT: note_on channel=15 note=72 velocity=0 time=0.015120968750000002
EXTRACT: note_on channel=6 note=72 velocity=0 time=0
EXTRACT: note_on channel=4 note=60 velocity=0 time=0.052923390625000004
EXTRACT: note_on channel=15 note=60 velocity=0 time=0
EXTRACT: note_on channel=9 note=28 velocity=48 time=0.020161291666666668
EXTRACT: note_on channel=9 note=28 velocity=0 time=0.010080645833333334
EXTRACT: note_on channel=9 note=42 velocity=62 time=0
EXTRACT: note_on channel=9 note=72 velocity=46 time=0
EXTRACT: note_on channel=9 note=72 velocity=0 time=0.010080645833333334
EXTRACT: note_on channel=9 note=42 velocity=0 time=0
EXTRACT: note_on channel=9 note=62 velocity=102 time=0.005040322916666667
EXTRACT: note_on channel=9 note=62 velocity=0 time=0.010080645833333334
EXTRACT: note_on channel=9 note=86 velocity=113 time=0.08316532812500001
EXTRACT: note_on channel=9 note=28 velocity=44 time=0.0025201614583333335
EXTRACT: note_on channel=2 note=41 velocity=113 time=0.0025201614583333335
EXTRACT: note_on channel=13 note=41 velocity=103 time=0
EXTRACT: note_on channel=13 note=53 velocity=101 time=0
EXTRACT: note_on channel=9 note=86 velocity=0 time=0.005040322916666667
EXTRACT: note_on channel=1 note=32 velocity=0 time=0.0025201614583333335
EXTRACT: note_on channel=9 note=28 velocity=0 time=0
EXTRACT: note_on channel=1 note=29 velocity=107 time=0
EXTRACT: note_on channel=4 note=60 velocity=111 time=0
EXTRACT: note_on channel=5 note=56 velocity=113 time=0
EXTRACT: note_on channel=6 note=72 velocity=98 time=0
EXTRACT: note_on channel=7 note=65 velocity=102 time=0
EXTRACT: note_on channel=7 note=72 velocity=95 time=0
EXTRACT: note_on channel=9 note=35 velocity=117 time=0
EXTRACT: note_on channel=9 note=42 velocity=47 time=0
EXTRACT: note_on channel=9 note=75 velocity=54 time=0
EXTRACT: note_on channel=12 note=23 velocity=117 time=0
EXTRACT: note_on channel=15 note=56 velocity=1 time=0
EXTRACT: note_on channel=15 note=60 velocity=1 time=0
EXTRACT: note_on channel=15 note=72 velocity=1 time=0
EXTRACT: note_on channel=9 note=75 velocity=0 time=0.010080645833333334
EXTRACT: note_on channel=9 note=42 velocity=0 time=0
EXTRACT: note_on channel=9 note=35 velocity=0 time=0
EXTRACT: note_on channel=12 note=23 velocity=0 time=0.010080645833333334
EXTRACT: note_on channel=13 note=56 velocity=0 time=0.005040322916666667
EXTRACT: note_on channel=13 note=44 velocity=0 time=0
EXTRACT: note_on channel=2 note=44 velocity=0 time=0
EXTRACT: note_on channel=7 note=65 velocity=0 time=0.08064516666666667
EXTRACT: note_on channel=7 note=72 velocity=0 time=0.0025201614583333335
EXTRACT: note_on channel=9 note=40 velocity=113 time=0.012600807291666667
EXTRACT: note_on channel=9 note=42 velocity=113 time=0
EXTRACT: note_on channel=9 note=62 velocity=107 time=0
EXTRACT: note_on channel=9 note=75 velocity=60 time=0
EXTRACT: note_on channel=9 note=75 velocity=0 time=0.010080645833333334
EXTRACT: note_on channel=15 note=72 velocity=0 time=0
EXTRACT: note_on channel=6 note=72 velocity=0 time=0
EXTRACT: note_on channel=9 note=62 velocity=0 time=0
EXTRACT: note_on channel=9 note=40 velocity=0 time=0
EXTRACT: note_on channel=9 note=42 velocity=0 time=0
EXTRACT: note_on channel=15 note=60 velocity=0 time=0.068044359375
EXTRACT: note_on channel=4 note=60 velocity=0 time=0
EXTRACT: note_on channel=15 note=56 velocity=0 time=0.025201614583333334
EXTRACT: note_on channel=5 note=56 velocity=0 time=0
EXTRACT: note_on channel=9 note=28 velocity=28 time=0.007560484375000001
EXTRACT: note_on channel=9 note=28 velocity=0 time=0.010080645833333334
EXTRACT: note_on channel=9 note=42 velocity=71 time=0
EXTRACT: note_on channel=9 note=75 velocity=47 time=0
EXTRACT: note_on channel=9 note=75 velocity=0 time=0.010080645833333334
EXTRACT: note_on channel=9 note=42 velocity=0 time=0
EXTRACT: note_on channel=1 note=29 velocity=0 time=0.08820565104166667
EXTRACT: note_on channel=9 note=63 velocity=98 time=0.005040322916666667
EXTRACT: note_on channel=9 note=28 velocity=40 time=0.007560484375000001
EXTRACT: note_on channel=9 note=63 velocity=0 time=0.0025201614583333335
EXTRACT: note_on channel=9 note=28 velocity=0 time=0.007560484375000001
EXTRACT: note_on channel=1 note=24 velocity=107 time=0
EXTRACT: note_on channel=4 note=60 velocity=117 time=0
EXTRACT: note_on channel=5 note=53 velocity=107 time=0
EXTRACT: note_on channel=6 note=72 velocity=102 time=0
EXTRACT: note_on channel=7 note=65 velocity=102 time=0
EXTRACT: note_on channel=7 note=72 velocity=95 time=0
EXTRACT: note_on channel=9 note=42 velocity=63 time=0
EXTRACT: note_on channel=15 note=53 velocity=1 time=0
EXTRACT: note_on channel=15 note=60 velocity=1 time=0
EXTRACT: note_on channel=15 note=72 velocity=1 time=0
EXTRACT: note_on channel=2 note=36 velocity=107 time=0.007560484375000001
EXTRACT: note_on channel=13 note=36 velocity=97 time=0
EXTRACT: note_on channel=13 note=48 velocity=95 time=0
EXTRACT: note_on channel=9 note=42 velocity=0 time=0.0025201614583333335
EXTRACT: note_on channel=9 note=35 velocity=112 time=0
EXTRACT: note_on channel=9 note=86 velocity=102 time=0
EXTRACT: note_on channel=12 note=23 velocity=112 time=0
EXTRACT: note_on channel=13 note=41 velocity=0 time=0.0025201614583333335
EXTRACT: note_on channel=13 note=53 velocity=0 time=0
EXTRACT: note_on channel=2 note=41 velocity=0 time=0
EXTRACT: note_on channel=9 note=86 velocity=0 time=0.007560484375000001
EXTRACT: note_on channel=9 note=35 velocity=0 time=0
EXTRACT: note_on channel=12 note=23 velocity=0 time=0.010080645833333334
EXTRACT: note_on channel=9 note=63 velocity=48 time=0.05040322916666667
EXTRACT: note_on channel=9 note=63 velocity=0 time=0.010080645833333334
EXTRACT: note_on channel=9 note=28 velocity=69 time=0.020161291666666668
EXTRACT: note_on channel=9 note=28 velocity=0 time=0.010080645833333334
EXTRACT: note_on channel=9 note=35 velocity=86 time=0
EXTRACT: note_on channel=9 note=42 velocity=50 time=0
EXTRACT: note_on channel=9 note=75 velocity=64 time=0
EXTRACT: note_on channel=12 note=23 velocity=86 time=0
EXTRACT: note_on channel=9 note=86 velocity=93 time=0.005040322916666667
EXTRACT: note_on channel=9 note=75 velocity=0 time=0.005040322916666667
EXTRACT: note_on channel=9 note=42 velocity=0 time=0
EXTRACT: note_on channel=9 note=35 velocity=0 time=0
EXTRACT: note_on channel=9 note=86 velocity=0 time=0.005040322916666667
EXTRACT: note_on channel=12 note=23 velocity=0 time=0.005040322916666667
EXTRACT: note_on channel=9 note=28 velocity=33 time=0.0907258125
EXTRACT: note_on channel=9 note=28 velocity=0 time=0.010080645833333334
EXTRACT: note_on channel=9 note=42 velocity=119 time=0
EXTRACT: note_on channel=9 note=86 velocity=107 time=0.0025201614583333335
EXTRACT: note_on channel=9 note=42 velocity=0 time=0.007560484375000001
EXTRACT: note_on channel=9 note=86 velocity=0 time=0.0025201614583333335
EXTRACT: note_on channel=9 note=63 velocity=89 time=0.08064516666666667
EXTRACT: note_on channel=9 note=63 velocity=0 time=0.010080645833333334
EXTRACT: note_on channel=9 note=40 velocity=107 time=0.017641130208333335
EXTRACT: note_on channel=9 note=42 velocity=78 time=0
EXTRACT: note_on channel=9 note=86 velocity=102 time=0.005040322916666667
EXTRACT: note_on channel=9 note=42 velocity=0 time=0.005040322916666667
EXTRACT: note_on channel=9 note=40 velocity=0 time=0
EXTRACT: note_on channel=9 note=86 velocity=0 time=0.005040322916666667
EXTRACT: note_on channel=15 note=53 velocity=0 time=0.07308468229166667
EXTRACT: note_on channel=7 note=65 velocity=0 time=0
EXTRACT: note_on channel=5 note=53 velocity=0 time=0
EXTRACT: note_on channel=1 note=24 velocity=0 time=0.012600807291666667
EXTRACT: note_on channel=9 note=35 velocity=117 time=0.007560484375000001
EXTRACT: note_on channel=9 note=62 velocity=119 time=0
EXTRACT: note_on channel=12 note=23 velocity=117 time=0
EXTRACT: note_on channel=9 note=28 velocity=29 time=0.0025201614583333335
EXTRACT: note_on channel=7 note=72 velocity=0 time=0.0025201614583333335
EXTRACT: note_on channel=9 note=62 velocity=0 time=0.005040322916666667
EXTRACT: note_on channel=13 note=36 velocity=0 time=0
EXTRACT: note_on channel=9 note=35 velocity=0 time=0
EXTRACT: note_on channel=13 note=48 velocity=0 time=0
EXTRACT: note_on channel=2 note=36 velocity=0 time=0
EXTRACT: note_on channel=2 note=44 velocity=113 time=0
EXTRACT: note_on channel=13 note=44 velocity=103 time=0
EXTRACT: note_on channel=13 note=56 velocity=101 time=0
EXTRACT: note_on channel=9 note=28 velocity=0 time=0.0025201614583333335
EXTRACT: note_on channel=1 note=32 velocity=107 time=0
EXTRACT: note_on channel=4 note=61 velocity=117 time=0
EXTRACT: note_on channel=5 note=56 velocity=107 time=0
EXTRACT: note_on channel=6 note=73 velocity=107 time=0
EXTRACT: note_on channel=7 note=65 velocity=107 time=0
EXTRACT: note_on channel=7 note=73 velocity=95 time=0
EXTRACT: note_on channel=9 note=42 velocity=61 time=0
EXTRACT: note_on channel=9 note=72 velocity=46 time=0
EXTRACT: note_on channel=15 note=56 velocity=1 time=0
EXTRACT: note_on channel=15 note=61 velocity=1 time=0
EXTRACT: note_on channel=15 note=73 velocity=1 time=0
EXTRACT: note_on channel=12 note=23 velocity=0 time=0.007560484375000001
EXTRACT: note_on channel=9 note=72 velocity=0 time=0.0025201614583333335
EXTRACT: note_on channel=9 note=42 velocity=0 time=0
EXTRACT: note_on channel=15 note=72 velocity=0 time=0.020161291666666668
EXTRACT: note_on channel=6 note=72 velocity=0 time=0
EXTRACT: note_on channel=4 note=60 velocity=0 time=0.0025201614583333335
EXTRACT: note_on channel=15 note=60 velocity=0 time=0
EXTRACT: note_on channel=9 note=28 velocity=44 time=0.07812500520833333
EXTRACT: note_on channel=9 note=86 velocity=107 time=0.0025201614583333335
EXTRACT: note_on channel=9 note=28 velocity=0 time=0.007560484375000001
EXTRACT: note_on channel=9 note=42 velocity=50 time=0
EXTRACT: note_on channel=9 note=75 velocity=49 time=0
EXTRACT: note_on channel=9 note=86 velocity=0 time=0.0025201614583333335
EXTRACT: note_on channel=9 note=75 velocity=0 time=0.007560484375000001
EXTRACT: note_on channel=9 note=42 velocity=0 time=0
EXTRACT: note_on channel=7 note=65 velocity=0 time=0.08316532812500001
EXTRACT: note_on channel=15 note=56 velocity=0 time=0.012600807291666667
EXTRACT: note_on channel=5 note=56 velocity=0 time=0
EXTRACT: note_on channel=1 note=32 velocity=0 time=0.005040322916666667
EXTRACT: note_on channel=15 note=61 velocity=0 time=0.007560484375000001
EXTRACT: note_on channel=4 note=61 velocity=0 time=0
EXTRACT: note_on channel=1 note=29 velocity=107 time=0.0025201614583333335
EXTRACT: note_on channel=4 note=60 velocity=111 time=0
EXTRACT: note_on channel=5 note=56 velocity=102 time=0
EXTRACT: note_on channel=6 note=72 velocity=107 time=0
EXTRACT: note_on channel=7 note=65 velocity=98 time=0
EXTRACT: note_on channel=7 note=72 velocity=86 time=0
EXTRACT: note_on channel=9 note=40 velocity=107 time=0
EXTRACT: note_on channel=9 note=42 velocity=119 time=0
EXTRACT: note_on channel=9 note=62 velocity=113 time=0
EXTRACT: note_on channel=9 note=75 velocity=45 time=0
EXTRACT: note_on channel=15 note=56 velocity=1 time=0
EXTRACT: note_on channel=15 note=60 velocity=1 time=0
EXTRACT: note_on channel=15 note=72 velocity=1 time=0
EXTRACT: note_on channel=15 note=73 velocity=0 time=0.0025201614583333335
EXTRACT: note_on channel=6 note=73 velocity=0 time=0
EXTRACT: note_on channel=2 note=41 velocity=113 time=0
EXTRACT: note_on channel=13 note=41 velocity=103 time=0
EXTRACT: note_on channel=13 note=53 velocity=101 time=0
EXTRACT: note_on channel=9 note=75 velocity=0 time=0.007560484375000001
EXTRACT: note_on channel=9 note=40 velocity=0 time=0
EXTRACT: note_on channel=9 note=62 velocity=0 time=0
EXTRACT: note_on channel=9 note=42 velocity=0 time=0
EXTRACT: note_on channel=2 note=44 velocity=0 time=0.017641130208333335
EXTRACT: note_on channel=13 note=44 velocity=0 time=0
EXTRACT: note_on channel=13 note=56 velocity=0 time=0
EXTRACT: note_on channel=7 note=73 velocity=0 time=0.010080645833333334
EXTRACT: note_on channel=9 note=28 velocity=44 time=0.07308468229166667
EXTRACT: note_on channel=9 note=28 velocity=0 time=0.010080645833333334
EXTRACT: note_on channel=9 note=35 velocity=102 time=0
EXTRACT: note_on channel=9 note=42 velocity=72 time=0
EXTRACT: note_on channel=9 note=75 velocity=54 time=0
EXTRACT: note_on channel=12 note=23 velocity=102 time=0
EXTRACT: note_on channel=9 note=75 velocity=0 time=0.010080645833333334
EXTRACT: note_on channel=9 note=42 velocity=0 time=0
EXTRACT: note_on channel=9 note=35 velocity=0 time=0
EXTRACT: note_on channel=12 note=23 velocity=0 time=0.010080645833333334
EXTRACT: note_on channel=1 note=29 velocity=0 time=0.07308468229166667
EXTRACT: note_on channel=7 note=65 velocity=0 time=0.0025201614583333335
EXTRACT: note_on channel=13 note=41 velocity=0 time=0.0025201614583333335
EXTRACT: note_on channel=13 note=53 velocity=0 time=0
EXTRACT: note_on channel=2 note=41 velocity=0 time=0
EXTRACT: note_on channel=9 note=63 velocity=89 time=0.007560484375000001
EXTRACT: note_on channel=2 note=36 velocity=93 time=0.0025201614583333335
EXTRACT: note_on channel=13 note=36 velocity=83 time=0
EXTRACT: note_on channel=13 note=48 velocity=81 time=0
EXTRACT: note_on channel=15 note=60 velocity=0 time=0.0025201614583333335
EXTRACT: note_on channel=4 note=60 velocity=0 time=0
EXTRACT: note_on channel=9 note=28 velocity=33 time=0
EXTRACT: note_on channel=9 note=63 velocity=0 time=0.005040322916666667
EXTRACT: note_on channel=6 note=72 velocity=0 time=0
EXTRACT: note_on channel=15 note=72 velocity=0 time=0
EXTRACT: note_on channel=5 note=56 velocity=0 time=0
EXTRACT: note_on channel=15 note=56 velocity=0 time=0
EXTRACT: note_on channel=9 note=28 velocity=0 time=0.005040322916666667
EXTRACT: note_on channel=1 note=24 velocity=102 time=0
EXTRACT: note_on channel=4 note=58 velocity=93 time=0
EXTRACT: note_on channel=5 note=53 velocity=107 time=0
EXTRACT: note_on channel=6 note=70 velocity=102 time=0
EXTRACT: note_on channel=7 note=65 velocity=107 time=0
EXTRACT: note_on channel=7 note=70 velocity=86 time=0
EXTRACT: note_on channel=9 note=42 velocity=54 time=0
EXTRACT: note_on channel=15 note=53 velocity=1 time=0
EXTRACT: note_on channel=15 note=58 velocity=1 time=0
EXTRACT: note_on channel=15 note=70 velocity=1 time=0
EXTRACT: note_on channel=9 note=42 velocity=0 time=0.010080645833333334
EXTRACT: note_on channel=7 note=72 velocity=0 time=0
EXTRACT: note_on channel=9 note=86 velocity=102 time=0.0025201614583333335
EXTRACT: note_on channel=9 note=86 velocity=0 time=0.010080645833333334
EXTRACT: note_on channel=9 note=63 velocity=102 time=0.08064516666666667
EXTRACT: note_on channel=9 note=28 velocity=44 time=0.007560484375000001
EXTRACT: note_on channel=9 note=63 velocity=0 time=0.0025201614583333335
EXTRACT: note_on channel=9 note=28 velocity=0 time=0.007560484375000001
EXTRACT: note_on channel=9 note=42 velocity=48 time=0
EXTRACT: note_on channel=9 note=75 velocity=60 time=0
EXTRACT: note_on channel=9 note=75 velocity=0 time=0.010080645833333334
EXTRACT: note_on channel=9 note=42 velocity=0 time=0
EXTRACT: note_on channel=9 note=86 velocity=89 time=0.005040322916666667
EXTRACT: note_on channel=9 note=40 velocity=89 time=0.0025201614583333335
EXTRACT: note_on channel=9 note=86 velocity=0 time=0.007560484375000001
EXTRACT: note_on channel=9 note=40 velocity=0 time=0.0025201614583333335
EXTRACT: note_on channel=7 note=65 velocity=0 time=0.04284274479166667
EXTRACT: note_on channel=6 note=70 velocity=0 time=0.007560484375000001
EXTRACT: note_on channel=15 note=70 velocity=0 time=0
EXTRACT: note_on channel=7 note=70 velocity=0 time=0.020161291666666668
EXTRACT: note_on channel=9 note=28 velocity=56 time=0.012600807291666667
EXTRACT: note_on channel=9 note=63 velocity=113 time=0.005040322916666667
EXTRACT: note_on channel=9 note=28 velocity=0 time=0.005040322916666667
EXTRACT: note_on channel=5 note=53 velocity=0 time=0
EXTRACT: note_on channel=15 note=53 velocity=0 time=0
EXTRACT: note_on channel=1 note=31 velocity=107 time=0
EXTRACT: note_on channel=2 note=43 velocity=113 time=0
EXTRACT: note_on channel=4 note=60 velocity=111 time=0
EXTRACT: note_on channel=5 note=55 velocity=107 time=0
EXTRACT: note_on channel=6 note=72 velocity=107 time=0
EXTRACT: note_on channel=7 note=64 velocity=102 time=0
EXTRACT: note_on channel=7 note=72 velocity=95 time=0
EXTRACT: note_on channel=9 note=35 velocity=115 time=0
EXTRACT: note_on channel=9 note=42 velocity=115 time=0
EXTRACT: note_on channel=9 note=75 velocity=54 time=0
EXTRACT: note_on channel=12 note=23 velocity=115 time=0
EXTRACT: note_on channel=13 note=43 velocity=103 time=0
EXTRACT: note_on channel=13 note=55 velocity=101 time=0
EXTRACT: note_on channel=15 note=55 velocity=1 time=0
EXTRACT: note_on channel=15 note=60 velocity=1 time=0
EXTRACT: note_on channel=15 note=72 velocity=1 time=0
EXTRACT: note_on channel=1 note=24 velocity=0 time=0.0025201614583333335
EXTRACT: note_on channel=9 note=63 velocity=0 time=0.0025201614583333335
EXTRACT: note_on channel=9 note=86 velocity=102 time=0.0025201614583333335
EXTRACT: note_on channel=9 note=75 velocity=0 time=0.0025201614583333335
EXTRACT: note_on channel=9 note=42 velocity=0 time=0
EXTRACT: note_on channel=9 note=35 velocity=0 time=0
EXTRACT: note_on channel=4 note=58 velocity=0 time=0.007560484375000001
EXTRACT: note_on channel=9 note=86 velocity=0 time=0
EXTRACT: note_on channel=15 note=58 velocity=0 time=0
EXTRACT: note_on channel=12 note=23 velocity=0 time=0.0025201614583333335
EXTRACT: note_on channel=13 note=36 velocity=0 time=0.012600807291666667
EXTRACT: note_on channel=2 note=36 velocity=0 time=0
EXTRACT: note_on channel=13 note=48 velocity=0 time=0
EXTRACT: note_on channel=9 note=63 velocity=57 time=0.052923390625000004
EXTRACT: note_on channel=9 note=63 velocity=0 time=0.010080645833333334
EXTRACT: note_on channel=9 note=42 velocity=72 time=0.025201614583333334
EXTRACT: note_on channel=9 note=42 velocity=0 time=0.010080645833333334
EXTRACT: note_on channel=9 note=86 velocity=107 time=0
EXTRACT: note_on channel=9 note=86 velocity=0 time=0.010080645833333334
EXTRACT: note_on channel=7 note=64 velocity=0 time=0.017641130208333335
EXTRACT: note_on channel=7 note=72 velocity=0 time=0.017641130208333335
EXTRACT: note_on channel=15 note=72 velocity=0 time=0.007560484375000001
EXTRACT: note_on channel=6 note=72 velocity=0 time=0
EXTRACT: note_on channel=15 note=60 velocity=0 time=0.005040322916666667
EXTRACT: note_on channel=4 note=60 velocity=0 time=0
EXTRACT: note_on channel=9 note=28 velocity=36 time=0.04284274479166667
EXTRACT: note_on channel=9 note=62 velocity=113 time=0.007560484375000001
EXTRACT: note_on channel=9 note=28 velocity=0 time=0.0025201614583333335
EXTRACT: note_on channel=9 note=42 velocity=62 time=0
EXTRACT: note_on channel=9 note=72 velocity=46 time=0
EXTRACT: note_on channel=9 note=62 velocity=0 time=0.007560484375000001
EXTRACT: note_on channel=9 note=72 velocity=0 time=0.0025201614583333335
EXTRACT: note_on channel=9 note=42 velocity=0 time=0
EXTRACT: note_on channel=15 note=55 velocity=0 time=0.10080645833333333
EXTRACT: note_on channel=5 note=55 velocity=0 time=0
EXTRACT: note_on channel=9 note=28 velocity=52 time=0
EXTRACT: note_on channel=9 note=28 velocity=0 time=0.010080645833333334
EXTRACT: note_on channel=1 note=28 velocity=113 time=0
EXTRACT: note_on channel=4 note=60 velocity=111 time=0
EXTRACT: note_on channel=5 note=55 velocity=107 time=0
EXTRACT: note_on channel=6 note=72 velocity=107 time=0
EXTRACT: note_on channel=7 note=64 velocity=102 time=0
EXTRACT: note_on channel=7 note=72 velocity=101 time=0
EXTRACT: note_on channel=9 note=35 velocity=117 time=0
EXTRACT: note_on channel=9 note=42 velocity=47 time=0
EXTRACT: note_on channel=9 note=75 velocity=54 time=0
EXTRACT: note_on channel=12 note=23 velocity=117 time=0
EXTRACT: note_on channel=15 note=55 velocity=1 time=0
EXTRACT: note_on channel=15 note=60 velocity=1 time=0
EXTRACT: note_on channel=15 note=72 velocity=1 time=0
EXTRACT: note_on channel=9 note=86 velocity=107 time=0.005040322916666667
EXTRACT: note_on channel=1 note=31 velocity=0 time=0.0025201614583333335
EXTRACT: note_on channel=2 note=40 velocity=119 time=0
EXTRACT: note_on channel=13 note=40 velocity=109 time=0
EXTRACT: note_on channel=13 note=52 velocity=107 time=0
EXTRACT: note_on channel=9 note=35 velocity=0 time=0.0025201614583333335
EXTRACT: note_on channel=13 note=55 velocity=0 time=0
EXTRACT: note_on channel=13 note=43 velocity=0 time=0
EXTRACT: note_on channel=9 note=75 velocity=0 time=0
EXTRACT: note_on channel=9 note=42 velocity=0 time=0
EXTRACT: note_on channel=2 note=43 velocity=0 time=0
EXTRACT: note_on channel=9 note=86 velocity=0 time=0.005040322916666667
EXTRACT: note_on channel=12 note=23 velocity=0 time=0.005040322916666667
EXTRACT: note_on channel=7 note=64 velocity=0 time=0.098286296875
EXTRACT: note_on channel=9 note=62 velocity=127 time=0
EXTRACT: note_on channel=9 note=40 velocity=113 time=0.0025201614583333335
EXTRACT: note_on channel=9 note=42 velocity=113 time=0
EXTRACT: note_on channel=9 note=75 velocity=54 time=0
EXTRACT: note_on channel=9 note=62 velocity=0 time=0.007560484375000001
EXTRACT: note_on channel=9 note=40 velocity=0 time=0.0025201614583333335
EXTRACT: note_on channel=9 note=75 velocity=0 time=0
EXTRACT: note_on channel=9 note=42 velocity=0 time=0
EXTRACT: note_on channel=7 note=72 velocity=0 time=0.007560484375000001
EXTRACT: note_on channel=6 note=72 velocity=0 time=0
EXTRACT: note_on channel=15 note=72 velocity=0 time=0
EXTRACT: note_on channel=4 note=60 velocity=0 time=0.060483875000000006
EXTRACT: note_on channel=15 note=60 velocity=0 time=0
EXTRACT: note_on channel=15 note=55 velocity=0 time=0.027721776041666667
EXTRACT: note_on channel=5 note=55 velocity=0 time=0
EXTRACT: note_on channel=9 note=28 velocity=40 time=0.005040322916666667
EXTRACT: note_on channel=9 note=28 velocity=0 time=0.010080645833333334
EXTRACT: note_on channel=9 note=42 velocity=71 time=0
EXTRACT: note_on channel=9 note=75 velocity=62 time=0
EXTRACT: note_on channel=9 note=75 velocity=0 time=0.010080645833333334
EXTRACT: note_on channel=9 note=42 velocity=0 time=0
EXTRACT: note_on channel=9 note=63 velocity=45 time=0.007560484375000001
EXTRACT: note_on channel=9 note=63 velocity=0 time=0.010080645833333334
EXTRACT: note_on channel=1 note=28 velocity=0 time=0.07308468229166667
EXTRACT: note_on channel=9 note=28 velocity=41 time=0.010080645833333334
EXTRACT: note_on channel=9 note=28 velocity=0 time=0.010080645833333334
EXTRACT: note_on channel=1 note=24 velocity=107 time=0
EXTRACT: note_on channel=4 note=60 velocity=117 time=0
EXTRACT: note_on channel=5 note=52 velocity=107 time=0
EXTRACT: note_on channel=6 note=72 velocity=107 time=0
EXTRACT: note_on channel=7 note=64 velocity=107 time=0
EXTRACT: note_on channel=7 note=72 velocity=86 time=0
EXTRACT: note_on channel=9 note=35 velocity=115 time=0
EXTRACT: note_on channel=9 note=42 velocity=63 time=0
EXTRACT: note_on channel=12 note=23 velocity=115 time=0
EXTRACT: note_on channel=15 note=52 velocity=1 time=0
EXTRACT: note_on channel=15 note=60 velocity=1 time=0
EXTRACT: note_on channel=15 note=72 velocity=1 time=0
EXTRACT: note_on channel=9 note=86 velocity=107 time=0.005040322916666667
EXTRACT: note_on channel=9 note=63 velocity=107 time=0.0025201614583333335
EXTRACT: note_on channel=9 note=42 velocity=0 time=0.0025201614583333335
EXTRACT: note_on channel=9 note=35 velocity=0 time=0
EXTRACT: note_on channel=9 note=86 velocity=0 time=0.005040322916666667
EXTRACT: note_on channel=9 note=63 velocity=0 time=0.0025201614583333335
EXTRACT: note_on channel=12 note=23 velocity=0 time=0.0025201614583333335
EXTRACT: note_on channel=2 note=36 velocity=113 time=0.005040322916666667
EXTRACT: note_on channel=13 note=36 velocity=103 time=0
EXTRACT: note_on channel=13 note=48 velocity=101 time=0
EXTRACT: note_on channel=13 note=52 velocity=0 time=0.007560484375000001
EXTRACT: note_on channel=13 note=40 velocity=0 time=0
EXTRACT: note_on channel=2 note=40 velocity=0 time=0
EXTRACT: note_on channel=9 note=28 velocity=48 time=0.07812500520833333
EXTRACT: note_on channel=9 note=35 velocity=93 time=0.0025201614583333335
EXTRACT: note_on channel=9 note=63 velocity=107 time=0
EXTRACT: note_on channel=12 note=23 velocity=93 time=0
EXTRACT: note_on channel=9 note=28 velocity=0 time=0.007560484375000001
EXTRACT: note_on channel=9 note=42 velocity=50 time=0
EXTRACT: note_on channel=9 note=75 velocity=55 time=0
EXTRACT: note_on channel=9 note=86 velocity=76 time=0
EXTRACT: note_on channel=9 note=63 velocity=0 time=0.0025201614583333335
EXTRACT: note_on channel=9 note=35 velocity=0 time=0
EXTRACT: note_on channel=9 note=86 velocity=0 time=0.007560484375000001
EXTRACT: note_on channel=9 note=75 velocity=0 time=0
EXTRACT: note_on channel=9 note=42 velocity=0 time=0
EXTRACT: note_on channel=12 note=23 velocity=0 time=0.0025201614583333335
EXTRACT: note_on channel=9 note=28 velocity=32 time=0.098286296875
EXTRACT: note_on channel=9 note=86 velocity=113 time=0.005040322916666667
EXTRACT: note_on channel=9 note=28 velocity=0 time=0.005040322916666667
EXTRACT: note_on channel=9 note=42 velocity=119 time=0
EXTRACT: note_on channel=9 note=86 velocity=0 time=0.005040322916666667
EXTRACT: note_on channel=9 note=42 velocity=0 time=0.005040322916666667
EXTRACT: note_on channel=9 note=63 velocity=102 time=0.09324597395833334
EXTRACT: note_on channel=9 note=63 velocity=0 time=0.010080645833333334
EXTRACT: note_on channel=9 note=40 velocity=102 time=0.007560484375000001
EXTRACT: note_on channel=9 note=42 velocity=78 time=0
EXTRACT: note_on channel=9 note=86 velocity=107 time=0
EXTRACT: note_on channel=9 note=86 velocity=0 time=0.010080645833333334
EXTRACT: note_on channel=9 note=42 velocity=0 time=0
EXTRACT: note_on channel=9 note=40 velocity=0 time=0
EXTRACT: note_on channel=9 note=35 velocity=106 time=0.098286296875
EXTRACT: note_on channel=12 note=23 velocity=106 time=0
EXTRACT: note_on channel=9 note=35 velocity=0 time=0.010080645833333334
EXTRACT: note_on channel=1 note=24 velocity=0 time=0
EXTRACT: note_on channel=1 note=31 velocity=107 time=0.0025201614583333335
EXTRACT: note_on channel=9 note=42 velocity=61 time=0
EXTRACT: note_on channel=9 note=72 velocity=45 time=0
EXTRACT: note_on channel=12 note=23 velocity=0 time=0.007560484375000001
EXTRACT: note_on channel=2 note=43 velocity=113 time=0
EXTRACT: note_on channel=9 note=62 velocity=127 time=0
EXTRACT: note_on channel=13 note=43 velocity=103 time=0
EXTRACT: note_on channel=13 note=55 velocity=101 time=0
EXTRACT: note_on channel=9 note=72 velocity=0 time=0.0025201614583333335
EXTRACT: note_on channel=9 note=42 velocity=0 time=0
EXTRACT: note_on channel=13 note=36 velocity=0 time=0.0025201614583333335
EXTRACT: note_on channel=2 note=36 velocity=0 time=0
EXTRACT: note_on channel=13 note=48 velocity=0 time=0
EXTRACT: note_on channel=9 note=62 velocity=0 time=0.005040322916666667
EXTRACT: note_on channel=9 note=28 velocity=61 time=0.09324597395833334
EXTRACT: note_on channel=9 note=86 velocity=113 time=0.007560484375000001
EXTRACT: note_on channel=9 note=28 velocity=0 time=0.0025201614583333335
EXTRACT: note_on channel=9 note=42 velocity=50 time=0
EXTRACT: note_on channel=9 note=75 velocity=54 time=0
EXTRACT: note_on channel=9 note=86 velocity=0 time=0.007560484375000001
EXTRACT: note_on channel=9 note=75 velocity=0 time=0.0025201614583333335
EXTRACT: note_on channel=9 note=42 velocity=0 time=0
EXTRACT: note_on channel=1 note=28 velocity=107 time=0.11088710416666667
EXTRACT: note_on channel=9 note=40 velocity=113 time=0
EXTRACT: note_on channel=9 note=42 velocity=119 time=0
EXTRACT: note_on channel=9 note=75 velocity=52 time=0
EXTRACT: note_on channel=9 note=62 velocity=113 time=0.007560484375000001
EXTRACT: note_on channel=9 note=75 velocity=0 time=0.0025201614583333335
EXTRACT: note_on channel=9 note=42 velocity=0 time=0
EXTRACT: note_on channel=9 note=40 velocity=0 time=0
EXTRACT: note_on channel=9 note=62 velocity=0 time=0.007560484375000001
EXTRACT: note_on channel=2 note=40 velocity=107 time=0
EXTRACT: note_on channel=13 note=40 velocity=97 time=0
EXTRACT: note_on channel=13 note=52 velocity=95 time=0
EXTRACT: note_on channel=1 note=31 velocity=0 time=0.005040322916666667
EXTRACT: note_on channel=13 note=55 velocity=0 time=0.020161291666666668
EXTRACT: note_on channel=13 note=43 velocity=0 time=0
EXTRACT: note_on channel=2 note=43 velocity=0 time=0
EXTRACT: note_on channel=9 note=28 velocity=33 time=0.068044359375
EXTRACT: note_on channel=9 note=35 velocity=117 time=0.007560484375000001
EXTRACT: note_on channel=12 note=23 velocity=117 time=0
EXTRACT: note_on channel=9 note=28 velocity=0 time=0.0025201614583333335
EXTRACT: note_on channel=9 note=42 velocity=72 time=0
EXTRACT: note_on channel=9 note=63 velocity=93 time=0
EXTRACT: note_on channel=9 note=75 velocity=52 time=0
EXTRACT: note_on channel=9 note=35 velocity=0 time=0.007560484375000001
EXTRACT: note_on channel=9 note=75 velocity=0 time=0.0025201614583333335
EXTRACT: note_on channel=9 note=63 velocity=0 time=0
EXTRACT: note_on channel=9 note=42 velocity=0 time=0
EXTRACT: note_on channel=12 note=23 velocity=0 time=0.007560484375000001
EXTRACT: note_on channel=15 note=72 velocity=0 time=0.012600807291666667
EXTRACT: note_on channel=6 note=72 velocity=0 time=0
EXTRACT: note_on channel=15 note=60 velocity=0 time=0.05796371354166667
EXTRACT: note_on channel=4 note=60 velocity=0 time=0
EXTRACT: note_on channel=1 note=28 velocity=0 time=0
EXTRACT: note_on channel=9 note=28 velocity=44 time=0.022681453125
EXTRACT: note_on channel=9 note=63 velocity=107 time=0.007560484375000001
EXTRACT: note_on channel=9 note=28 velocity=0 time=0.0025201614583333335
EXTRACT: note_on channel=1 note=24 velocity=102 time=0
EXTRACT: note_on channel=9 note=42 velocity=54 time=0
EXTRACT: note_on channel=9 note=86 velocity=107 time=0.0025201614583333335
EXTRACT: note_on channel=9 note=63 velocity=0 time=0.005040322916666667
EXTRACT: note_on channel=9 note=42 velocity=0 time=0.0025201614583333335
EXTRACT: note_on channel=9 note=86 velocity=0 time=0.0025201614583333335
EXTRACT: note_on channel=2 note=36 velocity=102 time=0
EXTRACT: note_on channel=13 note=36 velocity=92 time=0
EXTRACT: note_on channel=13 note=48 velocity=90 time=0
EXTRACT: note_on channel=13 note=52 velocity=0 time=0.005040322916666667
EXTRACT: note_on channel=2 note=40 velocity=0 time=0
EXTRACT: note_on channel=13 note=40 velocity=0 time=0
EXTRACT: note_on channel=7 note=64 velocity=0 time=0.04284274479166667
EXTRACT: note_on channel=7 note=72 velocity=0 time=0.012600807291666667
EXTRACT: note_on channel=9 note=28 velocity=61 time=0.037802421875
EXTRACT: note_on channel=9 note=63 velocity=78 time=0.007560484375000001
EXTRACT: note_on channel=9 note=28 velocity=0 time=0.0025201614583333335
EXTRACT: note_on channel=9 note=42 velocity=48 time=0
EXTRACT: note_on channel=9 note=75 velocity=54 time=0
EXTRACT: note_on channel=9 note=86 velocity=85 time=0.0025201614583333335
EXTRACT: note_on channel=9 note=63 velocity=0 time=0.005040322916666667
EXTRACT: note_on channel=9 note=75 velocity=0 time=0.0025201614583333335
EXTRACT: note_on channel=9 note=42 velocity=0 time=0
EXTRACT: note_on channel=9 note=35 velocity=104 time=0
EXTRACT: note_on channel=12 note=23 velocity=104 time=0
EXTRACT: note_on channel=9 note=86 velocity=0 time=0.0025201614583333335
EXTRACT: note_on channel=9 note=35 velocity=0 time=0.007560484375000001
EXTRACT: note_on channel=12 note=23 velocity=0 time=0.010080645833333334
EXTRACT: note_on channel=5 note=52 velocity=0 time=0.0025201614583333335
EXTRACT: note_on channel=15 note=52 velocity=0 time=0
EXTRACT: note_on channel=9 note=63 velocity=101 time=0.07560484375
EXTRACT: note_on channel=9 note=28 velocity=69 time=0.0025201614583333335
EXTRACT: note_on channel=9 note=86 velocity=107 time=0.0025201614583333335
EXTRACT: note_on channel=9 note=63 velocity=0 time=0.005040322916666667
EXTRACT: note_on channel=9 note=28 velocity=0 time=0.0025201614583333335
EXTRACT: note_on channel=1 note=32 velocity=107 time=0
EXTRACT: note_on channel=4 note=60 velocity=123 time=0
EXTRACT: note_on channel=6 note=72 velocity=107 time=0
EXTRACT: note_on channel=7 note=65 velocity=107 time=0
EXTRACT: note_on channel=7 note=72 velocity=95 time=0
EXTRACT: note_on channel=9 note=35 velocity=81 time=0
EXTRACT: note_on channel=9 note=42 velocity=115 time=0
EXTRACT: note_on channel=9 note=72 velocity=39 time=0
EXTRACT: note_on channel=9 note=75 velocity=51 time=0
EXTRACT: note_on channel=12 note=23 velocity=81 time=0
EXTRACT: note_on channel=15 note=60 velocity=1 time=0
EXTRACT: note_on channel=15 note=72 velocity=1 time=0
EXTRACT: note_on channel=9 note=86 velocity=0 time=0.0025201614583333335
EXTRACT: note_on channel=1 note=24 velocity=0 time=0.005040322916666667
EXTRACT: note_on channel=9 note=35 velocity=0 time=0.0025201614583333335
EXTRACT: note_on channel=9 note=75 velocity=0 time=0
EXTRACT: note_on channel=9 note=42 velocity=0 time=0
EXTRACT: note_on channel=9 note=72 velocity=0 time=0
EXTRACT: note_on channel=2 note=44 velocity=113 time=0.0025201614583333335
EXTRACT: note_on channel=13 note=44 velocity=103 time=0
EXTRACT: note_on channel=13 note=56 velocity=101 time=0
EXTRACT: note_on channel=2 note=36 velocity=0 time=0.007560484375000001
EXTRACT: note_on channel=13 note=48 velocity=0 time=0
EXTRACT: note_on channel=13 note=36 velocity=0 time=0
EXTRACT: note_on channel=12 note=23 velocity=0 time=0
EXTRACT: note_on channel=9 note=28 velocity=31 time=0.0907258125
EXTRACT: note_on channel=7 note=65 velocity=0 time=0.0025201614583333335
EXTRACT: note_on channel=7 note=72 velocity=0 time=0.005040322916666667
EXTRACT: note_on channel=9 note=86 velocity=113 time=0
EXTRACT: note_on channel=9 note=28 velocity=0 time=0.0025201614583333335
EXTRACT: note_on channel=9 note=42 velocity=72 time=0
EXTRACT: note_on channel=9 note=86 velocity=0 time=0.007560484375000001
EXTRACT: note_on channel=9 note=42 velocity=0 time=0.0025201614583333335
EXTRACT: note_on channel=15 note=72 velocity=0 time=0.03276209895833333
EXTRACT: note_on channel=6 note=72 velocity=0 time=0
EXTRACT: note_on channel=15 note=60 velocity=0 time=0.020161291666666668
EXTRACT: note_on channel=4 note=60 velocity=0 time=0
EXTRACT: note_on channel=9 note=28 velocity=40 time=0.04788306770833334
EXTRACT: note_on channel=9 note=28 velocity=0 time=0.010080645833333334
EXTRACT: note_on channel=9 note=42 velocity=62 time=0
EXTRACT: note_on channel=9 note=62 velocity=113 time=0
EXTRACT: note_on channel=9 note=62 velocity=0 time=0.010080645833333334
EXTRACT: note_on channel=9 note=42 velocity=0 time=0
EXTRACT: note_on channel=1 note=32 velocity=0 time=0.10080645833333333
EXTRACT: note_on channel=9 note=28 velocity=52 time=0
EXTRACT: note_on channel=9 note=28 velocity=0 time=0.010080645833333334
EXTRACT: note_on channel=1 note=29 velocity=107 time=0
EXTRACT: note_on channel=4 note=60 velocity=123 time=0
EXTRACT: note_on channel=5 note=56 velocity=107 time=0
EXTRACT: note_on channel=6 note=72 velocity=102 time=0
EXTRACT: note_on channel=7 note=65 velocity=107 time=0
EXTRACT: note_on channel=7 note=72 velocity=95 time=0
EXTRACT: note_on channel=9 note=35 velocity=115 time=0
EXTRACT: note_on channel=9 note=42 velocity=47 time=0
EXTRACT: note_on channel=9 note=75 velocity=60 time=0
EXTRACT: note_on channel=12 note=23 velocity=115 time=0
EXTRACT: note_on channel=15 note=56 velocity=1 time=0
EXTRACT: note_on channel=15 note=60 velocity=1 time=0
EXTRACT: note_on channel=15 note=72 velocity=1 time=0
EXTRACT: note_on channel=2 note=44 velocity=0 time=0.0025201614583333335
EXTRACT: note_on channel=13 note=56 velocity=0 time=0
EXTRACT: note_on channel=13 note=44 velocity=0 time=0
EXTRACT: note_on channel=2 note=41 velocity=107 time=0.0025201614583333335
EXTRACT: note_on channel=13 note=41 velocity=97 time=0
EXTRACT: note_on channel=13 note=53 velocity=95 time=0
EXTRACT: note_on channel=9 note=42 velocity=0 time=0.005040322916666667
EXTRACT: note_on channel=9 note=35 velocity=0 time=0
EXTRACT: note_on channel=9 note=75 velocity=0 time=0
EXTRACT: note_on channel=12 note=23 velocity=0 time=0.010080645833333334
EXTRACT: note_on channel=7 note=65 velocity=0 time=0.04788306770833334
EXTRACT: note_on channel=7 note=72 velocity=0 time=0.007560484375000001
EXTRACT: note_on channel=9 note=40 velocity=113 time=0.04536290625
EXTRACT: note_on channel=9 note=42 velocity=113 time=0
EXTRACT: note_on channel=9 note=62 velocity=119 time=0
EXTRACT: note_on channel=9 note=75 velocity=54 time=0
EXTRACT: note_on channel=9 note=75 velocity=0 time=0.010080645833333334
EXTRACT: note_on channel=15 note=72 velocity=0 time=0
EXTRACT: note_on channel=6 note=72 velocity=0 time=0
EXTRACT: note_on channel=9 note=62 velocity=0 time=0
EXTRACT: note_on channel=9 note=40 velocity=0 time=0
EXTRACT: note_on channel=9 note=42 velocity=0 time=0
EXTRACT: note_on channel=15 note=60 velocity=0 time=0.05796371354166667
EXTRACT: note_on channel=4 note=60 velocity=0 time=0
EXTRACT: note_on channel=15 note=56 velocity=0 time=0
EXTRACT: note_on channel=5 note=56 velocity=0 time=0
EXTRACT: note_on channel=9 note=28 velocity=32 time=0.04284274479166667
EXTRACT: note_on channel=9 note=28 velocity=0 time=0.010080645833333334
EXTRACT: note_on channel=9 note=42 velocity=71 time=0
EXTRACT: note_on channel=9 note=75 velocity=56 time=0
EXTRACT: note_on channel=9 note=75 velocity=0 time=0.010080645833333334
EXTRACT: note_on channel=9 note=42 velocity=0 time=0
EXTRACT: note_on channel=1 note=29 velocity=0 time=0.098286296875
EXTRACT: note_on channel=9 note=28 velocity=48 time=0.0025201614583333335
EXTRACT: note_on channel=9 note=86 velocity=113 time=0
EXTRACT: note_on channel=9 note=63 velocity=107 time=0.0025201614583333335
EXTRACT: note_on channel=13 note=41 velocity=0 time=0.0025201614583333335
EXTRACT: note_on channel=13 note=53 velocity=0 time=0
EXTRACT: note_on channel=2 note=41 velocity=0 time=0
EXTRACT: note_on channel=9 note=28 velocity=0 time=0.005040322916666667
EXTRACT: note_on channel=9 note=86 velocity=0 time=0
EXTRACT: note_on channel=1 note=24 velocity=102 time=0
EXTRACT: note_on channel=4 note=60 velocity=117 time=0
EXTRACT: note_on channel=5 note=53 velocity=113 time=0
EXTRACT: note_on channel=6 note=72 velocity=107 time=0
EXTRACT: note_on channel=7 note=65 velocity=102 time=0
EXTRACT: note_on channel=7 note=72 velocity=95 time=0
EXTRACT: note_on channel=9 note=35 velocity=106 time=0
EXTRACT: note_on channel=9 note=42 velocity=63 time=0
EXTRACT: note_on channel=12 note=23 velocity=106 time=0
EXTRACT: note_on channel=15 note=53 velocity=1 time=0
EXTRACT: note_on channel=15 note=60 velocity=1 time=0
EXTRACT: note_on channel=15 note=72 velocity=1 time=0
EXTRACT: note_on channel=9 note=63 velocity=0 time=0.0025201614583333335
EXTRACT: note_on channel=2 note=36 velocity=113 time=0.0025201614583333335
EXTRACT: note_on channel=13 note=36 velocity=103 time=0
EXTRACT: note_on channel=13 note=48 velocity=101 time=0
EXTRACT: note_on channel=9 note=42 velocity=0 time=0.005040322916666667
EXTRACT: note_on channel=9 note=35 velocity=0 time=0
EXTRACT: note_on channel=12 note=23 velocity=0 time=0.010080645833333334
EXTRACT: note_on channel=9 note=86 velocity=98 time=0.08820565104166667
EXTRACT: note_on channel=9 note=28 velocity=65 time=0.0025201614583333335
EXTRACT: note_on channel=9 note=35 velocity=76 time=0
EXTRACT: note_on channel=12 note=23 velocity=76 time=0
EXTRACT: note_on channel=9 note=63 velocity=85 time=0.005040322916666667
EXTRACT: note_on channel=9 note=86 velocity=0 time=0.0025201614583333335
EXTRACT: note_on channel=9 note=35 velocity=0 time=0.0025201614583333335
EXTRACT: note_on channel=9 note=28 velocity=0 time=0
EXTRACT: note_on channel=9 note=42 velocity=50 time=0
EXTRACT: note_on channel=9 note=75 velocity=60 time=0
EXTRACT: note_on channel=9 note=63 velocity=0 time=0.005040322916666667
EXTRACT: note_on channel=9 note=75 velocity=0 time=0.005040322916666667
EXTRACT: note_on channel=12 note=23 velocity=0 time=0
EXTRACT: note_on channel=9 note=42 velocity=0 time=0
EXTRACT: note_on channel=9 note=86 velocity=102 time=0.098286296875
EXTRACT: note_on channel=9 note=28 velocity=29 time=0.0025201614583333335
EXTRACT: note_on channel=9 note=86 velocity=0 time=0.007560484375000001
EXTRACT: note_on channel=9 note=28 velocity=0 time=0.0025201614583333335
EXTRACT: note_on channel=9 note=42 velocity=119 time=0
EXTRACT: note_on channel=9 note=42 velocity=0 time=0.010080645833333334
EXTRACT: note_on channel=9 note=63 velocity=98 time=0.09324597395833334
EXTRACT: note_on channel=9 note=28 velocity=56 time=0.007560484375000001
EXTRACT: note_on channel=9 note=63 velocity=0 time=0.0025201614583333335
EXTRACT: note_on channel=9 note=86 velocity=98 time=0
EXTRACT: note_on channel=9 note=28 velocity=0 time=0.007560484375000001
EXTRACT: note_on channel=9 note=40 velocity=107 time=0
EXTRACT: note_on channel=9 note=42 velocity=78 time=0
EXTRACT: note_on channel=9 note=86 velocity=0 time=0.0025201614583333335
EXTRACT: note_on channel=9 note=42 velocity=0 time=0.007560484375000001
EXTRACT: note_on channel=9 note=40 velocity=0 time=0
EXTRACT: note_on channel=1 note=24 velocity=0 time=0.07560484375
EXTRACT: note_on channel=13 note=36 velocity=0 time=0.0025201614583333335
EXTRACT: note_on channel=2 note=36 velocity=0 time=0
EXTRACT: note_on channel=13 note=48 velocity=0 time=0
EXTRACT: note_on channel=7 note=65 velocity=0 time=0.005040322916666667
EXTRACT: note_on channel=5 note=53 velocity=0 time=0.007560484375000001
EXTRACT: note_on channel=15 note=53 velocity=0 time=0
EXTRACT: note_on channel=4 note=60 velocity=0 time=0
EXTRACT: note_on channel=15 note=60 velocity=0 time=0
EXTRACT: note_on channel=2 note=44 velocity=113 time=0.005040322916666667
EXTRACT: note_on channel=9 note=35 velocity=109 time=0
EXTRACT: note_on channel=12 note=23 velocity=109 time=0
EXTRACT: note_on channel=13 note=44 velocity=103 time=0
EXTRACT: note_on channel=13 note=56 velocity=101 time=0
EXTRACT: note_on channel=7 note=72 velocity=0 time=0.007560484375000001
EXTRACT: note_on channel=9 note=35 velocity=0 time=0.0025201614583333335
EXTRACT: note_on channel=1 note=32 velocity=102 time=0.005040322916666667
EXTRACT: note_on channel=4 note=61 velocity=127 time=0
EXTRACT: note_on channel=5 note=56 velocity=102 time=0
EXTRACT: note_on channel=6 note=73 velocity=102 time=0
EXTRACT: note_on channel=7 note=65 velocity=107 time=0
EXTRACT: note_on channel=7 note=73 velocity=90 time=0
EXTRACT: note_on channel=9 note=42 velocity=61 time=0
EXTRACT: note_on channel=9 note=72 velocity=49 time=0
EXTRACT: note_on channel=15 note=56 velocity=1 time=0
EXTRACT: note_on channel=15 note=61 velocity=1 time=0
EXTRACT: note_on channel=15 note=73 velocity=1 time=0
EXTRACT: note_on channel=12 note=23 velocity=0 time=0.005040322916666667
EXTRACT: note_on channel=9 note=62 velocity=127 time=0.0025201614583333335
EXTRACT: note_on channel=9 note=72 velocity=0 time=0.0025201614583333335
EXTRACT: note_on channel=9 note=42 velocity=0 time=0
EXTRACT: note_on channel=6 note=72 velocity=0 time=0.005040322916666667
EXTRACT: note_on channel=15 note=72 velocity=0 time=0
EXTRACT: note_on channel=9 note=62 velocity=0 time=0.0025201614583333335
EXTRACT: note_on channel=9 note=28 velocity=52 time=0.09324597395833334
EXTRACT: note_on channel=9 note=28 velocity=0 time=0.010080645833333334
EXTRACT: note_on channel=9 note=42 velocity=50 time=0
EXTRACT: note_on channel=9 note=75 velocity=49 time=0
EXTRACT: note_on channel=9 note=75 velocity=0 time=0.010080645833333334
EXTRACT: note_on channel=9 note=42 velocity=0 time=0
EXTRACT: note_on channel=5 note=56 velocity=0 time=0.08820565104166667
EXTRACT: note_on channel=15 note=56 velocity=0 time=0
EXTRACT: note_on channel=15 note=61 velocity=0 time=0
EXTRACT: note_on channel=4 note=61 velocity=0 time=0
EXTRACT: note_on channel=7 note=65 velocity=0 time=0.0025201614583333335
EXTRACT: note_on channel=15 note=73 velocity=0 time=0.010080645833333334
EXTRACT: note_on channel=6 note=73 velocity=0 time=0
EXTRACT: note_on channel=2 note=41 velocity=107 time=0.005040322916666667
EXTRACT: note_on channel=13 note=41 velocity=97 time=0
EXTRACT: note_on channel=13 note=53 velocity=95 time=0
EXTRACT: note_on channel=13 note=56 velocity=0 time=0.005040322916666667
EXTRACT: note_on channel=13 note=44 velocity=0 time=0
EXTRACT: note_on channel=2 note=44 velocity=0 time=0
EXTRACT: note_on channel=1 note=29 velocity=98 time=0
EXTRACT: note_on channel=4 note=60 velocity=111 time=0
EXTRACT: note_on channel=5 note=56 velocity=91 time=0
EXTRACT: note_on channel=6 note=72 velocity=98 time=0
EXTRACT: note_on channel=7 note=65 velocity=98 time=0
EXTRACT: note_on channel=7 note=72 velocity=81 time=0
EXTRACT: note_on channel=9 note=40 velocity=113 time=0
EXTRACT: note_on channel=9 note=42 velocity=119 time=0
EXTRACT: note_on channel=9 note=75 velocity=54 time=0
EXTRACT: note_on channel=15 note=56 velocity=1 time=0
EXTRACT: note_on channel=15 note=60 velocity=1 time=0
EXTRACT: note_on channel=15 note=72 velocity=1 time=0
EXTRACT: note_on channel=9 note=75 velocity=0 time=0.010080645833333334
EXTRACT: note_on channel=9 note=42 velocity=0 time=0
EXTRACT: note_on channel=7 note=73 velocity=0 time=0
EXTRACT: note_on channel=9 note=40 velocity=0 time=0
EXTRACT: note_on channel=1 note=32 velocity=0 time=0.005040322916666667
EXTRACT: note_on channel=9 note=62 velocity=127 time=0.0025201614583333335
EXTRACT: note_on channel=9 note=62 velocity=0 time=0.010080645833333334
EXTRACT: note_on channel=9 note=28 velocity=35 time=0.08316532812500001
EXTRACT: note_on channel=9 note=63 velocity=107 time=0.0025201614583333335
EXTRACT: note_on channel=9 note=28 velocity=0 time=0.007560484375000001
EXTRACT: note_on channel=9 note=35 velocity=115 time=0
EXTRACT: note_on channel=9 note=42 velocity=72 time=0
EXTRACT: note_on channel=9 note=75 velocity=52 time=0
EXTRACT: note_on channel=12 note=23 velocity=115 time=0
EXTRACT: note_on channel=9 note=63 velocity=0 time=0.0025201614583333335
EXTRACT: note_on channel=9 note=75 velocity=0 time=0.007560484375000001
EXTRACT: note_on channel=9 note=42 velocity=0 time=0
EXTRACT: note_on channel=9 note=35 velocity=0 time=0
EXTRACT: note_on channel=12 note=23 velocity=0 time=0.010080645833333334
EXTRACT: note_on channel=7 note=72 velocity=0 time=0.060483875000000006
EXTRACT: note_on channel=7 note=65 velocity=0 time=0
EXTRACT: note_on channel=1 note=29 velocity=0 time=0.030241937500000003
EXTRACT: note_on channel=9 note=28 velocity=40 time=0
EXTRACT: note_on channel=13 note=53 velocity=0 time=0.0025201614583333335
EXTRACT: note_on channel=5 note=56 velocity=0 time=0
EXTRACT: note_on channel=13 note=41 velocity=0 time=0
EXTRACT: note_on channel=2 note=41 velocity=0 time=0
EXTRACT: note_on channel=15 note=56 velocity=0 time=0
EXTRACT: note_on channel=2 note=36 velocity=102 time=0.0025201614583333335
EXTRACT: note_on channel=13 note=36 velocity=92 time=0
EXTRACT: note_on channel=13 note=48 velocity=90 time=0
EXTRACT: note_on channel=9 note=28 velocity=0 time=0.005040322916666667
EXTRACT: note_on channel=1 note=24 velocity=93 time=0
EXTRACT: note_on channel=4 note=58 velocity=111 time=0
EXTRACT: note_on channel=5 note=53 velocity=93 time=0
EXTRACT: note_on channel=6 note=70 velocity=102 time=0
EXTRACT: note_on channel=7 note=65 velocity=102 time=0
EXTRACT: note_on channel=7 note=70 velocity=81 time=0
EXTRACT: note_on channel=9 note=42 velocity=54 time=0
EXTRACT: note_on channel=15 note=53 velocity=1 time=0
EXTRACT: note_on channel=15 note=58 velocity=1 time=0
EXTRACT: note_on channel=15 note=70 velocity=1 time=0
EXTRACT: note_on channel=15 note=72 velocity=0 time=0.0025201614583333335
EXTRACT: note_on channel=6 note=72 velocity=0 time=0
EXTRACT: note_on channel=9 note=86 velocity=107 time=0.0025201614583333335
EXTRACT: note_on channel=9 note=42 velocity=0 time=0.005040322916666667
EXTRACT: note_on channel=9 note=86 velocity=0 time=0.005040322916666667
EXTRACT: note_on channel=9 note=63 velocity=72 time=0.010080645833333334
EXTRACT: note_on channel=9 note=63 velocity=0 time=0.010080645833333334
EXTRACT: note_on channel=15 note=60 velocity=0 time=0.007560484375000001
EXTRACT: note_on channel=4 note=60 velocity=0 time=0
EXTRACT: note_on channel=9 note=28 velocity=61 time=0.068044359375
EXTRACT: note_on channel=9 note=63 velocity=99 time=0.007560484375000001
EXTRACT: note_on channel=9 note=28 velocity=0 time=0.0025201614583333335
EXTRACT: note_on channel=9 note=42 velocity=48 time=0
EXTRACT: note_on channel=9 note=75 velocity=47 time=0
EXTRACT: note_on channel=9 note=86 velocity=76 time=0
EXTRACT: note_on channel=9 note=63 velocity=0 time=0.007560484375000001
EXTRACT: note_on channel=9 note=86 velocity=0 time=0.0025201614583333335
EXTRACT: note_on channel=9 note=75 velocity=0 time=0
EXTRACT: note_on channel=9 note=42 velocity=0 time=0
EXTRACT: note_on channel=5 note=53 velocity=0 time=0.08568548958333334
EXTRACT: note_on channel=15 note=53 velocity=0 time=0
EXTRACT: note_on channel=9 note=28 velocity=68 time=0.015120968750000002
EXTRACT: note_on channel=7 note=65 velocity=0 time=0.0025201614583333335
EXTRACT: note_on channel=9 note=63 velocity=119 time=0
EXTRACT: note_on channel=15 note=70 velocity=0 time=0.005040322916666667
EXTRACT: note_on channel=6 note=70 velocity=0 time=0
EXTRACT: note_on channel=9 note=86 velocity=113 time=0
EXTRACT: note_on channel=9 note=28 velocity=0 time=0.0025201614583333335
EXTRACT: note_on channel=13 note=48 velocity=0 time=0
EXTRACT: note_on channel=2 note=36 velocity=0 time=0
EXTRACT: note_on channel=13 note=36 velocity=0 time=0
EXTRACT: note_on channel=1 note=31 velocity=107 time=0
EXTRACT: note_on channel=4 note=60 velocity=117 time=0
EXTRACT: note_on channel=5 note=55 velocity=103 time=0
EXTRACT: note_on channel=6 note=72 velocity=98 time=0
EXTRACT: note_on channel=7 note=64 velocity=93 time=0
EXTRACT: note_on channel=7 note=72 velocity=90 time=0
EXTRACT: note_on channel=9 note=35 velocity=102 time=0
EXTRACT: note_on channel=9 note=42 velocity=115 time=0
EXTRACT: note_on channel=9 note=75 velocity=60 time=0
EXTRACT: note_on channel=12 note=23 velocity=102 time=0
EXTRACT: note_on channel=15 note=55 velocity=1 time=0
EXTRACT: note_on channel=15 note=60 velocity=1 time=0
EXTRACT: note_on channel=15 note=72 velocity=1 time=0
EXTRACT: note_on channel=9 note=63 velocity=0 time=0.0025201614583333335
EXTRACT: note_on channel=2 note=43 velocity=107 time=0
EXTRACT: note_on channel=13 note=43 velocity=97 time=0
EXTRACT: note_on channel=13 note=55 velocity=95 time=0
EXTRACT: note_on channel=1 note=24 velocity=0 time=0.0025201614583333335
EXTRACT: note_on channel=7 note=70 velocity=0 time=0
EXTRACT: note_on channel=9 note=86 velocity=0 time=0.0025201614583333335
EXTRACT: note_on channel=9 note=35 velocity=0 time=0.0025201614583333335
EXTRACT: note_on channel=9 note=75 velocity=0 time=0
EXTRACT: note_on channel=9 note=42 velocity=0 time=0
EXTRACT: note_on channel=12 note=23 velocity=0 time=0.010080645833333334
EXTRACT: note_on channel=4 note=58 velocity=0 time=0
EXTRACT: note_on channel=15 note=58 velocity=0 time=0
EXTRACT: note_on channel=9 note=28 velocity=28 time=0.0907258125
EXTRACT: note_on channel=9 note=63 velocity=82 time=0.005040322916666667
EXTRACT: note_on channel=9 note=28 velocity=0 time=0.005040322916666667
EXTRACT: note_on channel=9 note=42 velocity=72 time=0
EXTRACT: note_on channel=9 note=63 velocity=0 time=0.005040322916666667
EXTRACT: note_on channel=9 note=86 velocity=98 time=0
EXTRACT: note_on channel=9 note=42 velocity=0 time=0.005040322916666667
EXTRACT: note_on channel=9 note=86 velocity=0 time=0.005040322916666667
EXTRACT: note_on channel=9 note=28 velocity=38 time=0.09576613541666668
EXTRACT: note_on channel=9 note=28 velocity=0 time=0.010080645833333334
EXTRACT: note_on channel=9 note=42 velocity=62 time=0
EXTRACT: note_on channel=9 note=62 velocity=113 time=0.0025201614583333335
EXTRACT: note_on channel=9 note=42 velocity=0 time=0.007560484375000001
EXTRACT: note_on channel=9 note=62 velocity=0 time=0.0025201614583333335
EXTRACT: note_on channel=13 note=55 velocity=0 time=0.08316532812500001
EXTRACT: note_on channel=2 note=43 velocity=0 time=0
EXTRACT: note_on channel=13 note=43 velocity=0 time=0
EXTRACT: note_on channel=2 note=40 velocity=102 time=0.015120968750000002
EXTRACT: note_on channel=9 note=28 velocity=56 time=0
EXTRACT: note_on channel=13 note=40 velocity=92 time=0
EXTRACT: note_on channel=13 note=52 velocity=90 time=0
EXTRACT: note_on channel=1 note=31 velocity=0 time=0.007560484375000001
EXTRACT: note_on channel=9 note=28 velocity=0 time=0.0025201614583333335
EXTRACT: note_on channel=1 note=28 velocity=113 time=0
EXTRACT: note_on channel=9 note=35 velocity=110 time=0
EXTRACT: note_on channel=9 note=42 velocity=47 time=0
EXTRACT: note_on channel=9 note=75 velocity=52 time=0
EXTRACT: note_on channel=12 note=23 velocity=110 time=0
EXTRACT: note_on channel=9 note=75 velocity=0 time=0.010080645833333334
EXTRACT: note_on channel=9 note=42 velocity=0 time=0
EXTRACT: note_on channel=9 note=35 velocity=0 time=0
EXTRACT: note_on channel=12 note=23 velocity=0 time=0.010080645833333334
EXTRACT: note_on channel=9 note=40 velocity=107 time=0.0907258125
EXTRACT: note_on channel=9 note=62 velocity=127 time=0.007560484375000001
EXTRACT: note_on channel=9 note=40 velocity=0 time=0.0025201614583333335
EXTRACT: note_on channel=9 note=42 velocity=113 time=0
EXTRACT: note_on channel=9 note=75 velocity=48 time=0
EXTRACT: note_on channel=9 note=62 velocity=0 time=0.007560484375000001
EXTRACT: note_on channel=9 note=75 velocity=0 time=0.0025201614583333335
EXTRACT: note_on channel=9 note=42 velocity=0 time=0
EXTRACT: note_on channel=9 note=28 velocity=40 time=0.10080645833333333
EXTRACT: note_on channel=9 note=28 velocity=0 time=0.010080645833333334
EXTRACT: note_on channel=9 note=42 velocity=71 time=0
EXTRACT: note_on channel=9 note=75 velocity=54 time=0
EXTRACT: note_on channel=9 note=75 velocity=0 time=0.010080645833333334
EXTRACT: note_on channel=9 note=42 velocity=0 time=0
EXTRACT: note_on channel=9 note=63 velocity=76 time=0
EXTRACT: note_on channel=9 note=63 velocity=0 time=0.010080645833333334
EXTRACT: note_on channel=1 note=28 velocity=0 time=0.07056452083333334
EXTRACT: note_on channel=13 note=40 velocity=0 time=0.007560484375000001
EXTRACT: note_on channel=13 note=52 velocity=0 time=0
EXTRACT: note_on channel=2 note=40 velocity=0 time=0
EXTRACT: note_on channel=2 note=36 velocity=108 time=0.012600807291666667
EXTRACT: note_on channel=9 note=28 velocity=32 time=0
EXTRACT: note_on channel=13 note=36 velocity=97 time=0
EXTRACT: note_on channel=13 note=48 velocity=99 time=0
EXTRACT: note_on channel=9 note=63 velocity=102 time=0.007560484375000001
EXTRACT: note_on channel=9 note=86 velocity=102 time=0
EXTRACT: note_on channel=9 note=28 velocity=0 time=0.0025201614583333335
EXTRACT: note_on channel=1 note=24 velocity=107 time=0
EXTRACT: note_on channel=9 note=35 velocity=98 time=0
EXTRACT: note_on channel=9 note=42 velocity=63 time=0
EXTRACT: note_on channel=12 note=23 velocity=98 time=0
EXTRACT: note_on channel=9 note=86 velocity=0 time=0.007560484375000001
EXTRACT: note_on channel=9 note=63 velocity=0 time=0
EXTRACT: note_on channel=9 note=42 velocity=0 time=0.0025201614583333335
EXTRACT: note_on channel=9 note=35 velocity=0 time=0
EXTRACT: note_on channel=12 note=23 velocity=0 time=0.010080645833333334
EXTRACT: note_on channel=9 note=63 velocity=81 time=0.08568548958333334
EXTRACT: note_on channel=9 note=86 velocity=93 time=0.0025201614583333335
EXTRACT: note_on channel=9 note=28 velocity=69 time=0.0025201614583333335
EXTRACT: note_on channel=9 note=35 velocity=88 time=0.0025201614583333335
EXTRACT: note_on channel=12 note=23 velocity=88 time=0
EXTRACT: note_on channel=9 note=63 velocity=0 time=0.0025201614583333335
EXTRACT: note_on channel=9 note=86 velocity=0 time=0.0025201614583333335
EXTRACT: note_on channel=9 note=28 velocity=0 time=0.0025201614583333335
EXTRACT: note_on channel=9 note=42 velocity=50 time=0
EXTRACT: note_on channel=9 note=75 velocity=58 time=0
EXTRACT: note_on channel=9 note=35 velocity=0 time=0.0025201614583333335
EXTRACT: note_on channel=9 note=75 velocity=0 time=0.007560484375000001
EXTRACT: note_on channel=9 note=42 velocity=0 time=0
EXTRACT: note_on channel=12 note=23 velocity=0 time=0.0025201614583333335
EXTRACT: note_on channel=1 note=24 velocity=0 time=0.0907258125
EXTRACT: note_on channel=9 note=28 velocity=36 time=0.007560484375000001
EXTRACT: note_on channel=9 note=86 velocity=102 time=0
EXTRACT: note_on channel=15 note=55 velocity=0 time=0.005040322916666667
EXTRACT: note_on channel=5 note=55 velocity=0 time=0
EXTRACT: note_on channel=9 note=86 velocity=0 time=0.005040322916666667
EXTRACT: note_on channel=9 note=28 velocity=0 time=0
EXTRACT: note_on channel=1 note=22 velocity=96 time=0
EXTRACT: note_on channel=9 note=42 velocity=119 time=0
EXTRACT: note_on channel=9 note=42 velocity=0 time=0.010080645833333334
EXTRACT: note_on channel=2 note=34 velocity=92 time=0
EXTRACT: note_on channel=13 note=34 velocity=85 time=0
EXTRACT: note_on channel=13 note=46 velocity=88 time=0
EXTRACT: note_on channel=13 note=48 velocity=0 time=0.010080645833333334
EXTRACT: note_on channel=13 note=36 velocity=0 time=0
EXTRACT: note_on channel=2 note=36 velocity=0 time=0
EXTRACT: note_on channel=9 note=63 velocity=98 time=0.07056452083333334
EXTRACT: note_on channel=9 note=63 velocity=0 time=0.010080645833333334
EXTRACT: note_on channel=9 note=28 velocity=61 time=0.010080645833333334
EXTRACT: note_on channel=9 note=86 velocity=107 time=0
EXTRACT: note_on channel=9 note=86 velocity=0 time=0.010080645833333334
EXTRACT: note_on channel=9 note=28 velocity=0 time=0
EXTRACT: note_on channel=9 note=40 velocity=98 time=0
EXTRACT: note_on channel=9 note=42 velocity=78 time=0
EXTRACT: note_on channel=9 note=42 velocity=0 time=0.010080645833333334
EXTRACT: note_on channel=9 note=40 velocity=0 time=0
EXTRACT: note_on channel=9 note=62 velocity=127 time=0.09576613541666668
EXTRACT: note_on channel=9 note=35 velocity=102 time=0.007560484375000001
EXTRACT: note_on channel=12 note=23 velocity=102 time=0
EXTRACT: note_on channel=9 note=62 velocity=0 time=0.0025201614583333335
EXTRACT: note_on channel=9 note=42 velocity=61 time=0.005040322916666667
EXTRACT: note_on channel=9 note=72 velocity=35 time=0
EXTRACT: note_on channel=9 note=35 velocity=0 time=0.0025201614583333335
EXTRACT: note_on channel=9 note=72 velocity=0 time=0.007560484375000001
EXTRACT: note_on channel=9 note=42 velocity=0 time=0
EXTRACT: note_on channel=12 note=23 velocity=0 time=0.0025201614583333335
EXTRACT: note_on channel=1 note=22 velocity=0 time=0.09324597395833334
EXTRACT: note_on channel=9 note=28 velocity=61 time=0.005040322916666667
EXTRACT: note_on channel=2 note=34 velocity=0 time=0.005040322916666667
EXTRACT: note_on channel=13 note=34 velocity=0 time=0
EXTRACT: note_on channel=13 note=46 velocity=0 time=0
EXTRACT: note_on channel=9 note=28 velocity=0 time=0.005040322916666667
EXTRACT: note_on channel=1 note=24 velocity=113 time=0
EXTRACT: note_on channel=9 note=42 velocity=50 time=0
EXTRACT: note_on channel=9 note=75 velocity=54 time=0
EXTRACT: note_on channel=2 note=36 velocity=107 time=0.005040322916666667
EXTRACT: note_on channel=13 note=36 velocity=96 time=0
EXTRACT: note_on channel=13 note=48 velocity=93 time=0
EXTRACT: note_on channel=9 note=75 velocity=0 time=0.005040322916666667
EXTRACT: note_on channel=9 note=42 velocity=0 time=0
EXTRACT: note_on channel=15 note=72 velocity=0 time=0.05544355208333333
EXTRACT: note_on channel=6 note=72 velocity=0 time=0
EXTRACT: note_on channel=7 note=72 velocity=0 time=0.037802421875
EXTRACT: note_on channel=9 note=40 velocity=102 time=0.010080645833333334
EXTRACT: note_on channel=9 note=62 velocity=119 time=0
EXTRACT: note_on channel=4 note=60 velocity=0 time=0.0025201614583333335
EXTRACT: note_on channel=15 note=60 velocity=0 time=0
EXTRACT: note_on channel=9 note=42 velocity=119 time=0.005040322916666667
EXTRACT: note_on channel=9 note=72 velocity=40 time=0
EXTRACT: note_on channel=9 note=75 velocity=51 time=0
EXTRACT: note_on channel=9 note=62 velocity=0 time=0.0025201614583333335
EXTRACT: note_on channel=9 note=40 velocity=0 time=0
EXTRACT: note_on channel=7 note=64 velocity=0 time=0.0025201614583333335
EXTRACT: note_on channel=9 note=72 velocity=0 time=0.005040322916666667
EXTRACT: note_on channel=9 note=42 velocity=0 time=0
EXTRACT: note_on channel=9 note=75 velocity=0 time=0
EXTRACT: note_on channel=9 note=63 velocity=105 time=0.09576613541666668
EXTRACT: note_on channel=9 note=28 velocity=35 time=0.005040322916666667
EXTRACT: note_on channel=9 note=63 velocity=0 time=0.005040322916666667
EXTRACT: note_on channel=9 note=28 velocity=0 time=0.005040322916666667
EXTRACT: note_on channel=9 note=42 velocity=72 time=0
EXTRACT: note_on channel=9 note=75 velocity=54 time=0
EXTRACT: note_on channel=9 note=75 velocity=0 time=0.010080645833333334
EXTRACT: note_on channel=9 note=42 velocity=0 time=0
EXTRACT: note_on channel=9 note=63 velocity=80 time=0.0907258125
EXTRACT: note_on channel=1 note=24 velocity=0 time=0.0025201614583333335
EXTRACT: note_on channel=2 note=36 velocity=0 time=0.005040322916666667
EXTRACT: note_on channel=13 note=36 velocity=0 time=0
EXTRACT: note_on channel=13 note=48 velocity=0 time=0
EXTRACT: note_on channel=9 note=63 velocity=0 time=0.0025201614583333335
EXTRACT: note_on channel=9 note=28 velocity=44 time=0
EXTRACT: note_on channel=2 note=40 velocity=100 time=0.005040322916666667
EXTRACT: note_on channel=13 note=40 velocity=90 time=0
EXTRACT: note_on channel=13 note=52 velocity=88 time=0
EXTRACT: note_on channel=9 note=40 velocity=89 time=0.0025201614583333335
EXTRACT: note_on channel=9 note=28 velocity=0 time=0.0025201614583333335
EXTRACT: note_on channel=1 note=28 velocity=107 time=0
EXTRACT: note_on channel=9 note=42 velocity=54 time=0
EXTRACT: note_on channel=9 note=40 velocity=0 time=0.007560484375000001
EXTRACT: note_on channel=9 note=42 velocity=0 time=0.0025201614583333335
EXTRACT: note_on channel=9 note=28 velocity=48 time=0.10080645833333333
EXTRACT: note_on channel=9 note=40 velocity=89 time=0.005040322916666667
EXTRACT: note_on channel=9 note=28 velocity=0 time=0.005040322916666667
EXTRACT: note_on channel=9 note=42 velocity=48 time=0
EXTRACT: note_on channel=9 note=75 velocity=47 time=0
EXTRACT: note_on channel=9 note=40 velocity=0 time=0.005040322916666667
EXTRACT: note_on channel=9 note=42 velocity=0 time=0.005040322916666667
EXTRACT: note_on channel=9 note=75 velocity=0 time=0
EXTRACT: note_on channel=1 note=28 velocity=0 time=0.09576613541666668
EXTRACT: note_on channel=2 note=40 velocity=0 time=0.0025201614583333335
EXTRACT: note_on channel=13 note=40 velocity=0 time=0
EXTRACT: note_on channel=13 note=52 velocity=0 time=0
EXTRACT: note_on channel=1 note=29 velocity=99 time=0.012600807291666667
EXTRACT: note_on channel=2 note=41 velocity=113 time=0
EXTRACT: note_on channel=9 note=35 velocity=112 time=0
EXTRACT: note_on channel=9 note=57 velocity=85 time=0
EXTRACT: note_on channel=9 note=61 velocity=62 time=0
EXTRACT: note_on channel=13 note=41 velocity=101 time=0
EXTRACT: note_on channel=9 note=61 velocity=0 time=0.010080645833333334
EXTRACT: note_on channel=9 note=57 velocity=0 time=0
EXTRACT: note_on channel=9 note=35 velocity=0 time=0
EXTRACT: note_on channel=9 note=42 velocity=62 time=0.11088710416666667
EXTRACT: note_on channel=9 note=61 velocity=50 time=0
EXTRACT: note_on channel=9 note=61 velocity=0 time=0.010080645833333334
EXTRACT: note_on channel=9 note=42 velocity=0 time=0
EXTRACT: pitchwheel channel=3 pitch=-7586 time=0.08064516666666667
EXTRACT: pitchwheel channel=4 pitch=-7586 time=0
EXTRACT: note_on channel=3 note=77 velocity=115 time=0.015120968750000002
EXTRACT: note_on channel=4 note=65 velocity=115 time=0
EXTRACT: pitchwheel channel=3 pitch=-8192 time=0.0025201614583333335
EXTRACT: pitchwheel channel=4 pitch=-8192 time=0
EXTRACT: note_on channel=9 note=42 velocity=52 time=0.012600807291666667
EXTRACT: note_on channel=9 note=61 velocity=59 time=0
EXTRACT: note_on channel=9 note=66 velocity=74 time=0
EXTRACT: note_on channel=9 note=82 velocity=54 time=0
EXTRACT: note_on channel=9 note=82 velocity=0 time=0.010080645833333334
EXTRACT: note_on channel=9 note=66 velocity=0 time=0
EXTRACT: note_on channel=9 note=61 velocity=0 time=0
EXTRACT: note_on channel=9 note=42 velocity=0 time=0
EXTRACT: pitchwheel channel=3 pitch=-5310 time=0.030241937500000003
EXTRACT: pitchwheel channel=4 pitch=-5310 time=0
EXTRACT: pitchwheel channel=3 pitch=-1593 time=0.017641130208333335
EXTRACT: pitchwheel channel=4 pitch=-1593 time=0
EXTRACT: pitchwheel channel=3 pitch=-152 time=0.017641130208333335
EXTRACT: pitchwheel channel=4 pitch=-152 time=0
EXTRACT: note_on channel=9 note=42 velocity=37 time=0.04536290625
EXTRACT: note_on channel=9 note=42 velocity=0 time=0.010080645833333334
EXTRACT: note_on channel=9 note=35 velocity=77 time=0
EXTRACT: note_on channel=9 note=35 velocity=0 time=0.010080645833333334
EXTRACT: note_on channel=13 note=41 velocity=0 time=0.08820565104166667
EXTRACT: note_on channel=1 note=29 velocity=0 time=0
EXTRACT: note_on channel=2 note=41 velocity=0 time=0
EXTRACT: note_on channel=1 note=32 velocity=93 time=0.010080645833333334
EXTRACT: note_on channel=2 note=44 velocity=107 time=0
EXTRACT: note_on channel=13 note=44 velocity=95 time=0
EXTRACT: note_on channel=9 note=42 velocity=103 time=0.0025201614583333335
EXTRACT: note_on channel=9 note=61 velocity=76 time=0
EXTRACT: note_on channel=9 note=40 velocity=124 time=0.007560484375000001
EXTRACT: note_on channel=9 note=61 velocity=0 time=0.0025201614583333335
EXTRACT: note_on channel=9 note=42 velocity=0 time=0
EXTRACT: note_on channel=9 note=40 velocity=0 time=0.007560484375000001
EXTRACT: pitchwheel channel=3 pitch=0 time=0.012600807291666667
EXTRACT: pitchwheel channel=4 pitch=0 time=0
EXTRACT: note_on channel=4 note=65 velocity=0 time=0.04284274479166667
EXTRACT: note_on channel=3 note=77 velocity=0 time=0
EXTRACT: note_on channel=3 note=72 velocity=108 time=0.025201614583333334
EXTRACT: note_on channel=4 note=60 velocity=108 time=0
EXTRACT: note_on channel=9 note=42 velocity=61 time=0.022681453125
EXTRACT: note_on channel=9 note=61 velocity=52 time=0
EXTRACT: note_on channel=9 note=61 velocity=0 time=0.010080645833333334
EXTRACT: note_on channel=9 note=42 velocity=0 time=0
EXTRACT: note_on channel=9 note=42 velocity=53 time=0.11088710416666667
EXTRACT: note_on channel=9 note=66 velocity=50 time=0
EXTRACT: note_on channel=9 note=82 velocity=50 time=0
EXTRACT: note_on channel=9 note=82 velocity=0 time=0.010080645833333334
EXTRACT: note_on channel=9 note=66 velocity=0 time=0
EXTRACT: note_on channel=9 note=42 velocity=0 time=0
EXTRACT: note_on channel=4 note=60 velocity=0 time=0.040322583333333335
EXTRACT: note_on channel=3 note=72 velocity=0 time=0
EXTRACT: note_on channel=1 note=37 velocity=99 time=0.07056452083333334
EXTRACT: note_on channel=2 note=49 velocity=113 time=0
EXTRACT: note_on channel=9 note=42 velocity=40 time=0
EXTRACT: note_on channel=9 note=61 velocity=64 time=0
EXTRACT: note_on channel=13 note=49 velocity=101 time=0
EXTRACT: note_on channel=13 note=44 velocity=0 time=0.005040322916666667
EXTRACT: note_on channel=1 note=32 velocity=0 time=0
EXTRACT: note_on channel=2 note=44 velocity=0 time=0
EXTRACT: note_on channel=9 note=35 velocity=90 time=0
EXTRACT: note_on channel=9 note=42 velocity=0 time=0.005040322916666667
EXTRACT: note_on channel=9 note=61 velocity=0 time=0
EXTRACT: note_on channel=9 note=35 velocity=0 time=0.005040322916666667
EXTRACT: note_on channel=3 note=75 velocity=116 time=0.09576613541666668
EXTRACT: note_on channel=4 note=63 velocity=116 time=0
EXTRACT: note_on channel=9 note=42 velocity=109 time=0.010080645833333334
EXTRACT: note_on channel=9 note=42 velocity=0 time=0.010080645833333334
EXTRACT: note_on channel=9 note=35 velocity=98 time=0.11088710416666667
EXTRACT: note_on channel=9 note=42 velocity=68 time=0
EXTRACT: note_on channel=9 note=61 velocity=72 time=0
EXTRACT: note_on channel=9 note=61 velocity=0 time=0.010080645833333334
EXTRACT: note_on channel=9 note=42 velocity=0 time=0
EXTRACT: note_on channel=9 note=35 velocity=0 time=0
EXTRACT: note_on channel=13 note=49 velocity=0 time=0.10080645833333333
EXTRACT: note_on channel=1 note=37 velocity=0 time=0
EXTRACT: note_on channel=2 note=49 velocity=0 time=0
EXTRACT: note_on channel=1 note=36 velocity=88 time=0.007560484375000001
EXTRACT: note_on channel=2 note=48 velocity=102 time=0
EXTRACT: note_on channel=13 note=48 velocity=90 time=0
EXTRACT: note_on channel=9 note=35 velocity=98 time=0.0025201614583333335
EXTRACT: note_on channel=9 note=42 velocity=51 time=0
EXTRACT: note_on channel=9 note=61 velocity=85 time=0
EXTRACT: note_on channel=9 note=66 velocity=66 time=0
EXTRACT: note_on channel=9 note=82 velocity=46 time=0
EXTRACT: note_on channel=9 note=82 velocity=0 time=0.010080645833333334
EXTRACT: note_on channel=9 note=66 velocity=0 time=0
EXTRACT: note_on channel=9 note=42 velocity=0 time=0
EXTRACT: note_on channel=9 note=61 velocity=0 time=0
EXTRACT: note_on channel=9 note=35 velocity=0 time=0
EXTRACT: note_on channel=4 note=63 velocity=0 time=0.08316532812500001
EXTRACT: note_on channel=3 note=75 velocity=0 time=0
EXTRACT: note_on channel=9 note=42 velocity=40 time=0.027721776041666667
EXTRACT: note_on channel=3 note=70 velocity=111 time=0.005040322916666667
EXTRACT: note_on channel=4 note=58 velocity=111 time=0
EXTRACT: note_on channel=9 note=42 velocity=0 time=0.005040322916666667
EXTRACT: note_on channel=9 note=40 velocity=112 time=0.10080645833333333
EXTRACT: note_on channel=9 note=40 velocity=0 time=0.010080645833333334
EXTRACT: note_on channel=9 note=42 velocity=109 time=0
EXTRACT: note_on channel=9 note=61 velocity=85 time=0
EXTRACT: note_on channel=9 note=61 velocity=0 time=0.010080645833333334
EXTRACT: note_on channel=9 note=42 velocity=0 time=0
EXTRACT: note_on channel=2 note=48 velocity=0 time=0.0025201614583333335
EXTRACT: note_on channel=1 note=36 velocity=0 time=0
EXTRACT: note_on channel=13 note=48 velocity=0 time=0
EXTRACT: note_on channel=1 note=32 velocity=93 time=0.007560484375000001
EXTRACT: note_on channel=2 note=44 velocity=107 time=0
EXTRACT: note_on channel=13 note=44 velocity=95 time=0
EXTRACT: note_on channel=4 note=58 velocity=0 time=0.08568548958333334
EXTRACT: note_on channel=3 note=70 velocity=0 time=0
EXTRACT: note_on channel=9 note=42 velocity=62 time=0.015120968750000002
EXTRACT: note_on channel=9 note=61 velocity=62 time=0
EXTRACT: note_on channel=9 note=61 velocity=0 time=0.010080645833333334
EXTRACT: note_on channel=9 note=42 velocity=0 time=0
EXTRACT: note_on channel=13 note=44 velocity=0 time=0.10836694270833334
EXTRACT: note_on channel=1 note=32 velocity=0 time=0
EXTRACT: note_on channel=2 note=44 velocity=0 time=0
EXTRACT: note_on channel=9 note=35 velocity=94 time=0.0025201614583333335
EXTRACT: note_on channel=9 note=42 velocity=44 time=0
EXTRACT: note_on channel=9 note=61 velocity=51 time=0
EXTRACT: note_on channel=9 note=66 velocity=36 time=0
EXTRACT: note_on channel=9 note=82 velocity=47 time=0
EXTRACT: note_on channel=1 note=24 velocity=83 time=0.005040322916666667
EXTRACT: note_on channel=2 note=36 velocity=97 time=0
EXTRACT: note_on channel=13 note=36 velocity=85 time=0
EXTRACT: note_on channel=9 note=82 velocity=0 time=0.005040322916666667
EXTRACT: note_on channel=9 note=66 velocity=0 time=0
EXTRACT: note_on channel=9 note=35 velocity=0 time=0
EXTRACT: note_on channel=9 note=61 velocity=0 time=0
EXTRACT: note_on channel=9 note=42 velocity=0 time=0
EXTRACT: note_on channel=9 note=40 velocity=109 time=0.098286296875
EXTRACT: note_on channel=9 note=40 velocity=0 time=0.010080645833333334
EXTRACT: note_on channel=9 note=30 velocity=84 time=0
EXTRACT: note_on channel=9 note=42 velocity=38 time=0.0025201614583333335
EXTRACT: note_on channel=9 note=61 velocity=72 time=0
EXTRACT: note_on channel=9 note=30 velocity=0 time=0.007560484375000001
EXTRACT: note_on channel=9 note=42 velocity=0 time=0.0025201614583333335
EXTRACT: note_on channel=9 note=61 velocity=0 time=0
EXTRACT: note_on channel=9 note=35 velocity=118 time=0.10332661979166667
EXTRACT: note_on channel=1 note=28 velocity=88 time=0.005040322916666667
EXTRACT: note_on channel=2 note=40 velocity=102 time=0
EXTRACT: note_on channel=13 note=40 velocity=90 time=0
EXTRACT: note_on channel=9 note=42 velocity=105 time=0.0025201614583333335
EXTRACT: note_on channel=9 note=35 velocity=0 time=0.0025201614583333335
EXTRACT: note_on channel=9 note=42 velocity=0 time=0.007560484375000001
EXTRACT: note_on channel=2 note=36 velocity=0 time=0.012600807291666667
EXTRACT: note_on channel=13 note=36 velocity=0 time=0
EXTRACT: note_on channel=1 note=24 velocity=0 time=0
EXTRACT: note_on channel=9 note=42 velocity=62 time=0.098286296875
EXTRACT: note_on channel=9 note=61 velocity=64 time=0
EXTRACT: note_on channel=9 note=61 velocity=0 time=0.010080645833333334
EXTRACT: note_on channel=9 note=42 velocity=0 time=0
EXTRACT: pitchwheel channel=3 pitch=-8192 time=0.08316532812500001
EXTRACT: pitchwheel channel=4 pitch=-8192 time=0
EXTRACT: note_on channel=3 note=73 velocity=107 time=0.017641130208333335
EXTRACT: note_on channel=4 note=61 velocity=107 time=0
EXTRACT: note_on channel=9 note=42 velocity=52 time=0.010080645833333334
EXTRACT: note_on channel=9 note=61 velocity=55 time=0
EXTRACT: note_on channel=9 note=66 velocity=70 time=0
EXTRACT: note_on channel=9 note=82 velocity=49 time=0
EXTRACT: note_on channel=9 note=82 velocity=0 time=0.010080645833333334
EXTRACT: note_on channel=9 note=66 velocity=0 time=0
EXTRACT: note_on channel=9 note=61 velocity=0 time=0
EXTRACT: note_on channel=9 note=42 velocity=0 time=0
EXTRACT: pitchwheel channel=3 pitch=-8117 time=0
EXTRACT: pitchwheel channel=4 pitch=-8117 time=0
EXTRACT: pitchwheel channel=3 pitch=-6675 time=0.017641130208333335
EXTRACT: pitchwheel channel=4 pitch=-6675 time=0
EXTRACT: pitchwheel channel=3 pitch=-3110 time=0.017641130208333335
EXTRACT: pitchwheel channel=4 pitch=-3110 time=0
EXTRACT: pitchwheel channel=3 pitch=-607 time=0.017641130208333335
EXTRACT: pitchwheel channel=4 pitch=-607 time=0
EXTRACT: pitchwheel channel=3 pitch=-228 time=0.017641130208333335
EXTRACT: pitchwheel channel=4 pitch=-228 time=0
EXTRACT: pitchwheel channel=3 pitch=0 time=0.03528226041666667
EXTRACT: pitchwheel channel=4 pitch=0 time=0
EXTRACT: note_on channel=9 note=42 velocity=37 time=0.005040322916666667
EXTRACT: note_on channel=9 note=35 velocity=65 time=0.0025201614583333335
EXTRACT: note_on channel=9 note=42 velocity=0 time=0.007560484375000001
EXTRACT: note_on channel=9 note=35 velocity=0 time=0.0025201614583333335
EXTRACT: note_on channel=9 note=40 velocity=115 time=0.10584678125000001
EXTRACT: note_on channel=9 note=42 velocity=103 time=0.0025201614583333335
EXTRACT: note_on channel=9 note=61 velocity=93 time=0
EXTRACT: note_on channel=1 note=31 velocity=88 time=0.0025201614583333335
EXTRACT: note_on channel=2 note=43 velocity=102 time=0
EXTRACT: note_on channel=13 note=43 velocity=90 time=0
EXTRACT: note_on channel=9 note=40 velocity=0 time=0.005040322916666667
EXTRACT: note_on channel=13 note=40 velocity=0 time=0
EXTRACT: note_on channel=2 note=40 velocity=0 time=0
EXTRACT: note_on channel=1 note=28 velocity=0 time=0
EXTRACT: note_on channel=9 note=61 velocity=0 time=0.0025201614583333335
EXTRACT: note_on channel=9 note=42 velocity=0 time=0
EXTRACT: note_on channel=3 note=73 velocity=0 time=0.06552419791666667
EXTRACT: note_on channel=4 note=61 velocity=0 time=0
EXTRACT: note_on channel=9 note=42 velocity=61 time=0.04536290625
EXTRACT: note_on channel=9 note=61 velocity=55 time=0
EXTRACT: note_on channel=3 note=75 velocity=111 time=0.007560484375000001
EXTRACT: note_on channel=4 note=63 velocity=111 time=0
EXTRACT: note_on channel=9 note=61 velocity=0 time=0.0025201614583333335
EXTRACT: note_on channel=9 note=42 velocity=0 time=0
EXTRACT: note_on channel=9 note=42 velocity=53 time=0.11088710416666667
EXTRACT: note_on channel=9 note=66 velocity=56 time=0
EXTRACT: note_on channel=9 note=82 velocity=50 time=0
EXTRACT: note_on channel=9 note=82 velocity=0 time=0.010080645833333334
EXTRACT: note_on channel=9 note=66 velocity=0 time=0
EXTRACT: note_on channel=9 note=42 velocity=0 time=0
EXTRACT: note_on channel=1 note=37 velocity=92 time=0.098286296875
EXTRACT: note_on channel=2 note=49 velocity=106 time=0
EXTRACT: note_on channel=13 note=49 velocity=94 time=0
EXTRACT: note_on channel=4 note=63 velocity=0 time=0.012600807291666667
EXTRACT: note_on channel=2 note=43 velocity=0 time=0
EXTRACT: note_on channel=3 note=75 velocity=0 time=0
EXTRACT: note_on channel=13 note=43 velocity=0 time=0
EXTRACT: note_on channel=1 note=31 velocity=0 time=0
EXTRACT: note_on channel=9 note=42 velocity=40 time=0
EXTRACT: note_on channel=9 note=61 velocity=72 time=0
EXTRACT: note_on channel=9 note=35 velocity=107 time=0.005040322916666667
EXTRACT: note_on channel=9 note=61 velocity=0 time=0.005040322916666667
EXTRACT: note_on channel=9 note=42 velocity=0 time=0
EXTRACT: note_on channel=9 note=35 velocity=0 time=0.005040322916666667
EXTRACT: note_on channel=3 note=72 velocity=113 time=0.10332661979166667
EXTRACT: note_on channel=4 note=60 velocity=113 time=0
EXTRACT: note_on channel=9 note=42 velocity=109 time=0.0025201614583333335
EXTRACT: note_on channel=9 note=42 velocity=0 time=0.010080645833333334
EXTRACT: note_on channel=9 note=42 velocity=68 time=0.11088710416666667
EXTRACT: note_on channel=9 note=61 velocity=62 time=0
EXTRACT: note_on channel=9 note=35 velocity=94 time=0.007560484375000001
EXTRACT: note_on channel=9 note=61 velocity=0 time=0.0025201614583333335
EXTRACT: note_on channel=9 note=42 velocity=0 time=0
EXTRACT: note_on channel=9 note=35 velocity=0 time=0.007560484375000001
EXTRACT: control_change channel=3 control=1 value=27 time=0.0907258125
EXTRACT: note_on channel=13 note=49 velocity=0 time=0.012600807291666667
EXTRACT: note_on channel=2 note=49 velocity=0 time=0
EXTRACT: note_on channel=1 note=37 velocity=0 time=0
EXTRACT: note_on channel=9 note=42 velocity=51 time=0
EXTRACT: note_on channel=9 note=61 velocity=59 time=0
EXTRACT: note_on channel=9 note=66 velocity=74 time=0
EXTRACT: note_on channel=9 note=82 velocity=50 time=0
EXTRACT: note_on channel=1 note=36 velocity=99 time=0.0025201614583333335
EXTRACT: note_on channel=2 note=48 velocity=113 time=0
EXTRACT: note_on channel=9 note=35 velocity=103 time=0
EXTRACT: note_on channel=13 note=48 velocity=101 time=0
EXTRACT: note_on channel=9 note=82 velocity=0 time=0.007560484375000001
EXTRACT: note_on channel=9 note=61 velocity=0 time=0
EXTRACT: note_on channel=9 note=42 velocity=0 time=0
EXTRACT: note_on channel=9 note=66 velocity=0 time=0
EXTRACT: note_on channel=9 note=35 velocity=0 time=0.0025201614583333335
EXTRACT: control_change channel=3 control=1 value=51 time=0.04536290625
EXTRACT: control_change channel=3 control=1 value=61 time=0.037802421875
EXTRACT: note_on channel=9 note=42 velocity=40 time=0.025201614583333334
EXTRACT: note_on channel=9 note=42 velocity=0 time=0.010080645833333334
EXTRACT: control_change channel=3 control=1 value=74 time=0.015120968750000002
EXTRACT: control_change channel=3 control=1 value=88 time=0.052923390625000004
EXTRACT: note_on channel=9 note=40 velocity=118 time=0.03528226041666667
EXTRACT: note_on channel=9 note=42 velocity=109 time=0.007560484375000001
EXTRACT: note_on channel=9 note=61 velocity=89 time=0
EXTRACT: note_on channel=9 note=40 velocity=0 time=0.0025201614583333335
EXTRACT: note_on channel=13 note=48 velocity=0 time=0
EXTRACT: note_on channel=1 note=36 velocity=0 time=0
EXTRACT: note_on channel=2 note=48 velocity=0 time=0
EXTRACT: note_on channel=1 note=31 velocity=93 time=0.0025201614583333335
EXTRACT: note_on channel=2 note=43 velocity=107 time=0
EXTRACT: note_on channel=13 note=43 velocity=95 time=0
EXTRACT: control_change channel=3 control=1 value=100 time=0.0025201614583333335
EXTRACT: note_on channel=9 note=61 velocity=0 time=0.0025201614583333335
EXTRACT: note_on channel=9 note=42 velocity=0 time=0
EXTRACT: control_change channel=3 control=1 value=113 time=0.07308468229166667
EXTRACT: note_on channel=9 note=42 velocity=62 time=0.037802421875
EXTRACT: note_on channel=9 note=61 velocity=49 time=0
EXTRACT: note_on channel=9 note=61 velocity=0 time=0.010080645833333334
EXTRACT: note_on channel=9 note=42 velocity=0 time=0
EXTRACT: control_change channel=3 control=1 value=125 time=0.005040322916666667
EXTRACT: note_on channel=13 note=43 velocity=0 time=0.07812500520833333
EXTRACT: note_on channel=1 note=31 velocity=0 time=0
EXTRACT: note_on channel=2 note=43 velocity=0 time=0
EXTRACT: note_on channel=1 note=28 velocity=88 time=0.022681453125
EXTRACT: note_on channel=2 note=40 velocity=102 time=0
EXTRACT: note_on channel=13 note=40 velocity=90 time=0
EXTRACT: control_change channel=3 control=1 value=0 time=0.005040322916666667
EXTRACT: note_on channel=9 note=35 velocity=103 time=0
EXTRACT: note_on channel=9 note=42 velocity=44 time=0
EXTRACT: note_on channel=9 note=61 velocity=44 time=0
EXTRACT: note_on channel=9 note=66 velocity=49 time=0
EXTRACT: note_on channel=9 note=82 velocity=50 time=0
EXTRACT: note_on channel=9 note=82 velocity=0 time=0.010080645833333334
EXTRACT: note_on channel=9 note=66 velocity=0 time=0
EXTRACT: note_on channel=9 note=42 velocity=0 time=0
EXTRACT: note_on channel=9 note=61 velocity=0 time=0
EXTRACT: note_on channel=9 note=35 velocity=0 time=0
EXTRACT: note_on channel=3 note=72 velocity=0 time=0.007560484375000001
EXTRACT: note_on channel=4 note=60 velocity=0 time=0
EXTRACT: note_on channel=9 note=40 velocity=95 time=0.0907258125
EXTRACT: note_on channel=9 note=40 velocity=0 time=0.010080645833333334
EXTRACT: note_on channel=9 note=30 velocity=93 time=0
EXTRACT: note_on channel=9 note=42 velocity=38 time=0.0025201614583333335
EXTRACT: note_on channel=9 note=61 velocity=62 time=0
EXTRACT: note_on channel=9 note=30 velocity=0 time=0.007560484375000001
EXTRACT: note_on channel=9 note=42 velocity=0 time=0.0025201614583333335
EXTRACT: note_on channel=9 note=61 velocity=0 time=0
EXTRACT: note_on channel=9 note=40 velocity=64 time=0.020161291666666668
EXTRACT: note_on channel=9 note=40 velocity=0 time=0.010080645833333334
EXTRACT: note_on channel=9 note=40 velocity=42 time=0.020161291666666668
EXTRACT: note_on channel=9 note=40 velocity=0 time=0.010080645833333334
EXTRACT: note_on channel=9 note=40 velocity=30 time=0.017641130208333335
EXTRACT: note_on channel=9 note=40 velocity=0 time=0.010080645833333334
EXTRACT: note_on channel=13 note=40 velocity=0 time=0.020161291666666668
EXTRACT: note_on channel=1 note=28 velocity=0 time=0
EXTRACT: note_on channel=2 note=40 velocity=0 time=0
EXTRACT: note_on channel=9 note=35 velocity=112 time=0
EXTRACT: note_on channel=1 note=29 velocity=99 time=0.0025201614583333335
EXTRACT: note_on channel=2 note=41 velocity=113 time=0
EXTRACT: note_on channel=9 note=42 velocity=105 time=0
EXTRACT: note_on channel=13 note=41 velocity=101 time=0
EXTRACT: note_on channel=9 note=35 velocity=0 time=0.007560484375000001
EXTRACT: note_on channel=9 note=42 velocity=0 time=0.0025201614583333335
EXTRACT: note_on channel=9 note=42 velocity=62 time=0.11088710416666667
EXTRACT: note_on channel=9 note=61 velocity=59 time=0
EXTRACT: note_on channel=9 note=61 velocity=0 time=0.010080645833333334
EXTRACT: note_on channel=9 note=42 velocity=0 time=0
EXTRACT: pitchwheel channel=3 pitch=-7434 time=0.08820565104166667
EXTRACT: pitchwheel channel=4 pitch=-7434 time=0
EXTRACT: note_on channel=3 note=77 velocity=119 time=0.007560484375000001
EXTRACT: note_on channel=4 note=65 velocity=119 time=0
EXTRACT: pitchwheel channel=3 pitch=-7889 time=0.010080645833333334
EXTRACT: pitchwheel channel=4 pitch=-7889 time=0
EXTRACT: note_on channel=9 note=42 velocity=52 time=0.005040322916666667
EXTRACT: note_on channel=9 note=61 velocity=76 time=0
EXTRACT: note_on channel=9 note=66 velocity=70 time=0
EXTRACT: note_on channel=9 note=82 velocity=49 time=0
EXTRACT: note_on channel=9 note=82 velocity=0 time=0.010080645833333334
EXTRACT: note_on channel=9 note=66 velocity=0 time=0
EXTRACT: note_on channel=9 note=61 velocity=0 time=0
EXTRACT: note_on channel=9 note=42 velocity=0 time=0
EXTRACT: pitchwheel channel=3 pitch=-1897 time=0.037802421875
EXTRACT: pitchwheel channel=4 pitch=-1897 time=0
EXTRACT: pitchwheel channel=3 pitch=-228 time=0.020161291666666668
EXTRACT: pitchwheel channel=4 pitch=-228 time=0
EXTRACT: pitchwheel channel=3 pitch=0 time=0.03276209895833333
EXTRACT: pitchwheel channel=4 pitch=0 time=0
EXTRACT: note_on channel=9 note=42 velocity=37 time=0.020161291666666668
EXTRACT: note_on channel=9 note=35 velocity=98 time=0.0025201614583333335
EXTRACT: note_on channel=9 note=42 velocity=0 time=0.007560484375000001
EXTRACT: note_on channel=9 note=35 velocity=0 time=0.0025201614583333335
EXTRACT: note_on channel=13 note=41 velocity=0 time=0.09576613541666668
EXTRACT: note_on channel=1 note=29 velocity=0 time=0
EXTRACT: note_on channel=2 note=41 velocity=0 time=0
EXTRACT: note_on channel=1 note=32 velocity=93 time=0.010080645833333334
EXTRACT: note_on channel=2 note=44 velocity=107 time=0
EXTRACT: note_on channel=13 note=44 velocity=95 time=0
EXTRACT: note_on channel=9 note=40 velocity=118 time=0.0025201614583333335
EXTRACT: note_on channel=9 note=42 velocity=103 time=0
EXTRACT: note_on channel=9 note=61 velocity=85 time=0
EXTRACT: note_on channel=9 note=61 velocity=0 time=0.010080645833333334
EXTRACT: note_on channel=9 note=42 velocity=0 time=0
EXTRACT: note_on channel=9 note=40 velocity=0 time=0
EXTRACT: note_on channel=4 note=65 velocity=0 time=0.0907258125
EXTRACT: note_on channel=3 note=77 velocity=0 time=0
EXTRACT: note_on channel=3 note=72 velocity=107 time=0.010080645833333334
EXTRACT: note_on channel=4 note=60 velocity=107 time=0
EXTRACT: note_on channel=9 note=42 velocity=61 time=0.010080645833333334
EXTRACT: note_on channel=9 note=61 velocity=55 time=0
EXTRACT: note_on channel=9 note=61 velocity=0 time=0.010080645833333334
EXTRACT: note_on channel=9 note=42 velocity=0 time=0
EXTRACT: note_on channel=9 note=42 velocity=53 time=0.11088710416666667
EXTRACT: note_on channel=9 note=61 velocity=60 time=0
EXTRACT: note_on channel=9 note=66 velocity=50 time=0
EXTRACT: note_on channel=9 note=82 velocity=50 time=0
EXTRACT: note_on channel=9 note=82 velocity=0 time=0.010080645833333334
EXTRACT: note_on channel=9 note=66 velocity=0 time=0
EXTRACT: note_on channel=9 note=61 velocity=0 time=0
EXTRACT: note_on channel=9 note=42 velocity=0 time=0
EXTRACT: note_on channel=4 note=60 velocity=0 time=0.09324597395833334
EXTRACT: note_on channel=3 note=72 velocity=0 time=0
EXTRACT: note_on channel=1 note=37 velocity=99 time=0.017641130208333335
EXTRACT: note_on channel=2 note=49 velocity=113 time=0
EXTRACT: note_on channel=9 note=42 velocity=40 time=0
EXTRACT: note_on channel=9 note=61 velocity=60 time=0
EXTRACT: note_on channel=13 note=49 velocity=101 time=0
EXTRACT: note_on channel=13 note=44 velocity=0 time=0.005040322916666667
EXTRACT: note_on channel=1 note=32 velocity=0 time=0
EXTRACT: note_on channel=2 note=44 velocity=0 time=0
EXTRACT: note_on channel=9 note=35 velocity=98 time=0.0025201614583333335
EXTRACT: note_on channel=9 note=42 velocity=0 time=0.0025201614583333335
EXTRACT: note_on channel=9 note=61 velocity=0 time=0
EXTRACT: note_on channel=9 note=35 velocity=0 time=0.007560484375000001
EXTRACT: note_on channel=3 note=75 velocity=119 time=0.0907258125
EXTRACT: note_on channel=4 note=63 velocity=119 time=0
EXTRACT: note_on channel=9 note=42 velocity=109 time=0.012600807291666667
EXTRACT: note_on channel=9 note=42 velocity=0 time=0.010080645833333334
EXTRACT: note_on channel=9 note=42 velocity=68 time=0.11088710416666667
EXTRACT: note_on channel=9 note=61 velocity=62 time=0
EXTRACT: note_on channel=9 note=35 velocity=98 time=0.0025201614583333335
EXTRACT: note_on channel=9 note=61 velocity=0 time=0.007560484375000001
EXTRACT: note_on channel=9 note=42 velocity=0 time=0
EXTRACT: note_on channel=9 note=35 velocity=0 time=0.0025201614583333335
EXTRACT: note_on channel=3 note=75 velocity=0 time=0.06300403645833334
EXTRACT: note_on channel=4 note=63 velocity=0 time=0
EXTRACT: note_on channel=2 note=49 velocity=0 time=0.03528226041666667
EXTRACT: note_on channel=13 note=49 velocity=0 time=0
EXTRACT: note_on channel=1 note=37 velocity=0 time=0
EXTRACT: note_on channel=1 note=36 velocity=88 time=0.007560484375000001
EXTRACT: note_on channel=2 note=48 velocity=102 time=0
EXTRACT: note_on channel=13 note=48 velocity=90 time=0
EXTRACT: note_on channel=9 note=42 velocity=51 time=0.0025201614583333335
EXTRACT: note_on channel=9 note=61 velocity=56 time=0
EXTRACT: note_on channel=9 note=66 velocity=70 time=0
EXTRACT: note_on channel=9 note=82 velocity=46 time=0
EXTRACT: note_on channel=9 note=35 velocity=77 time=0.0025201614583333335
EXTRACT: note_on channel=9 note=82 velocity=0 time=0.007560484375000001
EXTRACT: note_on channel=9 note=42 velocity=0 time=0
EXTRACT: note_on channel=9 note=61 velocity=0 time=0
EXTRACT: note_on channel=9 note=66 velocity=0 time=0
EXTRACT: note_on channel=9 note=35 velocity=0 time=0.0025201614583333335
EXTRACT: note_on channel=3 note=70 velocity=113 time=0.08568548958333334
EXTRACT: note_on channel=4 note=58 velocity=113 time=0
EXTRACT: note_on channel=9 note=42 velocity=40 time=0.022681453125
EXTRACT: note_on channel=9 note=42 velocity=0 time=0.010080645833333334
EXTRACT: note_on channel=9 note=40 velocity=118 time=0.10584678125000001
EXTRACT: note_on channel=9 note=42 velocity=109 time=0.005040322916666667
EXTRACT: note_on channel=9 note=61 velocity=80 time=0
EXTRACT: note_on channel=9 note=40 velocity=0 time=0.005040322916666667
EXTRACT: note_on channel=9 note=61 velocity=0 time=0.005040322916666667
EXTRACT: note_on channel=9 note=42 velocity=0 time=0
EXTRACT: note_on channel=1 note=36 velocity=0 time=0.0025201614583333335
EXTRACT: note_on channel=13 note=48 velocity=0 time=0
EXTRACT: note_on channel=2 note=48 velocity=0 time=0
EXTRACT: note_on channel=1 note=32 velocity=93 time=0.007560484375000001
EXTRACT: note_on channel=2 note=44 velocity=107 time=0
EXTRACT: note_on channel=13 note=44 velocity=95 time=0
EXTRACT: note_on channel=3 note=70 velocity=0 time=0.06300403645833334
EXTRACT: note_on channel=4 note=58 velocity=0 time=0
EXTRACT: note_on channel=9 note=42 velocity=62 time=0.037802421875
EXTRACT: note_on channel=9 note=61 velocity=76 time=0
EXTRACT: note_on channel=9 note=61 velocity=0 time=0.010080645833333334
EXTRACT: note_on channel=9 note=42 velocity=0 time=0
EXTRACT: note_on channel=9 note=35 velocity=107 time=0.10584678125000001
EXTRACT: note_on channel=13 note=44 velocity=0 time=0.0025201614583333335
EXTRACT: note_on channel=2 note=44 velocity=0 time=0
EXTRACT: note_on channel=1 note=32 velocity=0 time=0
EXTRACT: note_on channel=9 note=42 velocity=44 time=0.0025201614583333335
EXTRACT: note_on channel=9 note=66 velocity=53 time=0
EXTRACT: note_on channel=9 note=82 velocity=42 time=0
EXTRACT: note_on channel=9 note=35 velocity=0 time=0.005040322916666667
EXTRACT: note_on channel=1 note=24 velocity=83 time=0
EXTRACT: note_on channel=2 note=36 velocity=97 time=0
EXTRACT: note_on channel=13 note=36 velocity=85 time=0
EXTRACT: note_on channel=9 note=42 velocity=0 time=0.005040322916666667
EXTRACT: note_on channel=9 note=82 velocity=0 time=0
EXTRACT: note_on channel=9 note=66 velocity=0 time=0
EXTRACT: note_on channel=9 note=40 velocity=108 time=0.098286296875
EXTRACT: note_on channel=9 note=40 velocity=0 time=0.010080645833333334
EXTRACT: note_on channel=9 note=30 velocity=88 time=0
EXTRACT: note_on channel=9 note=42 velocity=38 time=0.0025201614583333335
EXTRACT: note_on channel=9 note=61 velocity=60 time=0
EXTRACT: note_on channel=9 note=30 velocity=0 time=0.007560484375000001
EXTRACT: note_on channel=9 note=42 velocity=0 time=0.0025201614583333335
EXTRACT: note_on channel=9 note=61 velocity=0 time=0
EXTRACT: note_on channel=9 note=40 velocity=64 time=0.020161291666666668
EXTRACT: note_on channel=9 note=40 velocity=0 time=0.010080645833333334
EXTRACT: note_on channel=9 note=40 velocity=42 time=0.020161291666666668
EXTRACT: note_on channel=9 note=40 velocity=0 time=0.010080645833333334
EXTRACT: note_on channel=9 note=40 velocity=30 time=0.017641130208333335
EXTRACT: note_on channel=9 note=40 velocity=0 time=0.010080645833333334
EXTRACT: note_on channel=1 note=28 velocity=88 time=0.020161291666666668
EXTRACT: note_on channel=2 note=40 velocity=102 time=0
EXTRACT: note_on channel=9 note=35 velocity=107 time=0
EXTRACT: note_on channel=13 note=40 velocity=90 time=0
EXTRACT: note_on channel=9 note=42 velocity=105 time=0.0025201614583333335
EXTRACT: note_on channel=9 note=61 velocity=42 time=0
EXTRACT: note_on channel=3 note=73 velocity=98 time=0.0025201614583333335
EXTRACT: note_on channel=4 note=61 velocity=98 time=0
EXTRACT: note_on channel=9 note=35 velocity=0 time=0.005040322916666667
EXTRACT: note_on channel=9 note=61 velocity=0 time=0.0025201614583333335
EXTRACT: note_on channel=9 note=42 velocity=0 time=0
EXTRACT: note_on channel=1 note=24 velocity=0 time=0.012600807291666667
EXTRACT: note_on channel=2 note=36 velocity=0 time=0
EXTRACT: note_on channel=13 note=36 velocity=0 time=0
EXTRACT: note_on channel=3 note=73 velocity=0 time=0.098286296875
EXTRACT: note_on channel=4 note=61 velocity=0 time=0
EXTRACT: note_on channel=9 note=42 velocity=62 time=0
EXTRACT: note_on channel=9 note=61 velocity=62 time=0
EXTRACT: note_on channel=9 note=61 velocity=0 time=0.010080645833333334
EXTRACT: note_on channel=9 note=42 velocity=0 time=0
EXTRACT: note_on channel=3 note=73 velocity=107 time=0.10332661979166667
EXTRACT: note_on channel=4 note=61 velocity=107 time=0
EXTRACT: note_on channel=9 note=42 velocity=52 time=0.007560484375000001
EXTRACT: note_on channel=9 note=61 velocity=85 time=0
EXTRACT: note_on channel=9 note=66 velocity=79 time=0
EXTRACT: note_on channel=9 note=82 velocity=45 time=0
EXTRACT: note_on channel=9 note=82 velocity=0 time=0.010080645833333334
EXTRACT: note_on channel=9 note=66 velocity=0 time=0
EXTRACT: note_on channel=9 note=61 velocity=0 time=0
EXTRACT: note_on channel=9 note=42 velocity=0 time=0
EXTRACT: note_on channel=3 note=73 velocity=0 time=0.025201614583333334
EXTRACT: note_on channel=4 note=61 velocity=0 time=0
EXTRACT: note_on channel=3 note=73 velocity=113 time=0.07056452083333334
EXTRACT: note_on channel=4 note=61 velocity=113 time=0
EXTRACT: note_on channel=9 note=42 velocity=37 time=0.015120968750000002
EXTRACT: note_on channel=9 note=35 velocity=98 time=0.0025201614583333335
EXTRACT: note_on channel=9 note=42 velocity=0 time=0.007560484375000001
EXTRACT: note_on channel=9 note=35 velocity=0 time=0.0025201614583333335
EXTRACT: note_on channel=3 note=73 velocity=0 time=0.08316532812500001
EXTRACT: note_on channel=4 note=61 velocity=0 time=0
EXTRACT: note_on channel=9 note=40 velocity=118 time=0.020161291666666668
EXTRACT: note_on channel=9 note=42 velocity=103 time=0.005040322916666667
EXTRACT: note_on channel=9 note=61 velocity=80 time=0
EXTRACT: note_on channel=1 note=31 velocity=88 time=0.0025201614583333335
EXTRACT: note_on channel=2 note=43 velocity=102 time=0
EXTRACT: note_on channel=13 note=43 velocity=90 time=0
EXTRACT: note_on channel=9 note=40 velocity=0 time=0.0025201614583333335
EXTRACT: note_on channel=13 note=40 velocity=0 time=0.0025201614583333335
EXTRACT: note_on channel=1 note=28 velocity=0 time=0
EXTRACT: note_on channel=2 note=40 velocity=0 time=0
EXTRACT: note_on channel=9 note=42 velocity=0 time=0.0025201614583333335
EXTRACT: note_on channel=9 note=61 velocity=0 time=0
EXTRACT: note_on channel=9 note=42 velocity=61 time=0.11088710416666667
EXTRACT: note_on channel=9 note=61 velocity=85 time=0
EXTRACT: note_on channel=3 note=75 velocity=119 time=0.0025201614583333335
EXTRACT: note_on channel=4 note=63 velocity=119 time=0
EXTRACT: note_on channel=9 note=61 velocity=0 time=0.007560484375000001
EXTRACT: note_on channel=9 note=42 velocity=0 time=0
EXTRACT: note_on channel=3 note=75 velocity=0 time=0.10332661979166667
EXTRACT: note_on channel=4 note=63 velocity=0 time=0
EXTRACT: note_on channel=9 note=42 velocity=53 time=0.007560484375000001
EXTRACT: note_on channel=9 note=61 velocity=30 time=0
EXTRACT: note_on channel=9 note=66 velocity=46 time=0
EXTRACT: note_on channel=9 note=82 velocity=47 time=0
EXTRACT: note_on channel=9 note=82 velocity=0 time=0.010080645833333334
EXTRACT: note_on channel=9 note=61 velocity=0 time=0
EXTRACT: note_on channel=9 note=42 velocity=0 time=0
EXTRACT: note_on channel=9 note=66 velocity=0 time=0
EXTRACT: note_on channel=1 note=37 velocity=92 time=0.098286296875
EXTRACT: note_on channel=2 note=49 velocity=106 time=0
EXTRACT: note_on channel=13 note=49 velocity=94 time=0
EXTRACT: note_on channel=3 note=72 velocity=107 time=0.0025201614583333335
EXTRACT: note_on channel=4 note=60 velocity=107 time=0
EXTRACT: note_on channel=2 note=43 velocity=0 time=0.010080645833333334
EXTRACT: note_on channel=13 note=43 velocity=0 time=0
EXTRACT: note_on channel=1 note=31 velocity=0 time=0
EXTRACT: note_on channel=9 note=42 velocity=40 time=0
EXTRACT: note_on channel=9 note=61 velocity=68 time=0
EXTRACT: note_on channel=9 note=35 velocity=103 time=0.005040322916666667
EXTRACT: note_on channel=9 note=61 velocity=0 time=0.005040322916666667
EXTRACT: note_on channel=9 note=42 velocity=0 time=0
EXTRACT: note_on channel=9 note=35 velocity=0 time=0.005040322916666667
EXTRACT: note_on channel=9 note=42 velocity=109 time=0.10584678125000001
EXTRACT: note_on channel=9 note=42 velocity=0 time=0.010080645833333334
EXTRACT: note_on channel=9 note=42 velocity=68 time=0.11088710416666667
EXTRACT: note_on channel=9 note=61 velocity=62 time=0
EXTRACT: note_on channel=9 note=35 velocity=98 time=0.0025201614583333335
EXTRACT: note_on channel=9 note=61 velocity=0 time=0.007560484375000001
EXTRACT: note_on channel=9 note=42 velocity=0 time=0
EXTRACT: note_on channel=9 note=35 velocity=0 time=0.0025201614583333335
EXTRACT: control_change channel=3 control=1 value=26 time=0.03276209895833333
EXTRACT: note_on channel=13 note=49 velocity=0 time=0.07560484375
EXTRACT: note_on channel=2 note=49 velocity=0 time=0
EXTRACT: note_on channel=1 note=37 velocity=0 time=0
EXTRACT: note_on channel=9 note=42 velocity=51 time=0
EXTRACT: note_on channel=9 note=61 velocity=60 time=0
EXTRACT: note_on channel=9 note=66 velocity=70 time=0
EXTRACT: note_on channel=9 note=82 velocity=44 time=0
EXTRACT: note_on channel=1 note=36 velocity=99 time=0.0025201614583333335
EXTRACT: note_on channel=2 note=48 velocity=113 time=0
EXTRACT: note_on channel=9 note=35 velocity=94 time=0
EXTRACT: note_on channel=13 note=48 velocity=101 time=0
EXTRACT: note_on channel=9 note=82 velocity=0 time=0.007560484375000001
EXTRACT: note_on channel=9 note=61 velocity=0 time=0
EXTRACT: note_on channel=9 note=42 velocity=0 time=0
EXTRACT: note_on channel=9 note=66 velocity=0 time=0
EXTRACT: note_on channel=9 note=35 velocity=0 time=0.0025201614583333335
EXTRACT: control_change channel=3 control=1 value=48 time=0
EXTRACT: control_change channel=3 control=1 value=59 time=0.052923390625000004
EXTRACT: note_on channel=9 note=42 velocity=40 time=0.05544355208333333
EXTRACT: note_on channel=9 note=42 velocity=0 time=0.010080645833333334
EXTRACT: control_change channel=3 control=1 value=71 time=0.007560484375000001
EXTRACT: control_change channel=3 control=1 value=84 time=0.052923390625000004
EXTRACT: note_on channel=9 note=40 velocity=118 time=0.04536290625
EXTRACT: note_on channel=9 note=42 velocity=109 time=0.005040322916666667
EXTRACT: note_on channel=9 note=61 velocity=85 time=0
EXTRACT: note_on channel=1 note=36 velocity=0 time=0.0025201614583333335
EXTRACT: note_on channel=13 note=48 velocity=0 time=0
EXTRACT: note_on channel=2 note=48 velocity=0 time=0
EXTRACT: note_on channel=9 note=40 velocity=0 time=0.0025201614583333335
EXTRACT: note_on channel=1 note=31 velocity=93 time=0
EXTRACT: note_on channel=2 note=43 velocity=107 time=0
EXTRACT: note_on channel=13 note=43 velocity=95 time=0
EXTRACT: note_on channel=9 note=61 velocity=0 time=0.005040322916666667
EXTRACT: note_on channel=9 note=42 velocity=0 time=0
EXTRACT: control_change channel=3 control=1 value=98 time=0.010080645833333334
EXTRACT: note_on channel=9 note=42 velocity=62 time=0.10080645833333333
EXTRACT: note_on channel=9 note=61 velocity=80 time=0
EXTRACT: control_change channel=3 control=1 value=108 time=0.005040322916666667
EXTRACT: note_on channel=9 note=61 velocity=0 time=0.005040322916666667
EXTRACT: note_on channel=9 note=42 velocity=0 time=0
EXTRACT: note_on channel=3 note=72 velocity=0 time=0.05544355208333333
EXTRACT: note_on channel=4 note=60 velocity=0 time=0
EXTRACT: control_change channel=3 control=1 value=0 time=0.010080645833333334
EXTRACT: note_on channel=2 note=43 velocity=0 time=0.017641130208333335
EXTRACT: note_on channel=1 note=31 velocity=0 time=0
EXTRACT: note_on channel=13 note=43 velocity=0 time=0
EXTRACT: note_on channel=1 note=28 velocity=88 time=0.022681453125
EXTRACT: note_on channel=2 note=40 velocity=102 time=0
EXTRACT: note_on channel=9 note=35 velocity=103 time=0
EXTRACT: note_on channel=13 note=40 velocity=90 time=0
EXTRACT: note_on channel=9 note=42 velocity=44 time=0.005040322916666667
EXTRACT: note_on channel=9 note=61 velocity=57 time=0
EXTRACT: note_on channel=9 note=66 velocity=47 time=0
EXTRACT: note_on channel=9 note=82 velocity=45 time=0
EXTRACT: note_on channel=9 note=35 velocity=0 time=0.005040322916666667
EXTRACT: note_on channel=9 note=82 velocity=0 time=0.005040322916666667
EXTRACT: note_on channel=9 note=61 velocity=0 time=0
EXTRACT: note_on channel=9 note=42 velocity=0 time=0
EXTRACT: note_on channel=9 note=66 velocity=0 time=0
EXTRACT: note_on channel=9 note=40 velocity=95 time=0.098286296875
EXTRACT: note_on channel=9 note=40 velocity=0 time=0.010080645833333334
EXTRACT: note_on channel=9 note=30 velocity=93 time=0
EXTRACT: note_on channel=9 note=42 velocity=38 time=0.0025201614583333335
EXTRACT: note_on channel=9 note=61 velocity=60 time=0
EXTRACT: note_on channel=9 note=30 velocity=0 time=0.007560484375000001
EXTRACT: note_on channel=9 note=42 velocity=0 time=0.0025201614583333335
EXTRACT: note_on channel=9 note=61 velocity=0 time=0
EXTRACT: note_on channel=9 note=40 velocity=64 time=0.020161291666666668
EXTRACT: note_on channel=9 note=40 velocity=0 time=0.010080645833333334
EXTRACT: note_on channel=9 note=40 velocity=42 time=0.020161291666666668
EXTRACT: note_on channel=9 note=40 velocity=0 time=0.010080645833333334
EXTRACT: note_on channel=9 note=40 velocity=30 time=0.015120968750000002
EXTRACT: note_on channel=9 note=40 velocity=0 time=0.010080645833333334
EXTRACT: note_on channel=13 note=40 velocity=0 time=0.022681453125
EXTRACT: note_on channel=2 note=40 velocity=0 time=0
EXTRACT: note_on channel=1 note=28 velocity=0 time=0
EXTRACT: note_on channel=1 note=29 velocity=99 time=0.0025201614583333335
EXTRACT: note_on channel=2 note=41 velocity=113 time=0
EXTRACT: note_on channel=9 note=35 velocity=112 time=0
EXTRACT: note_on channel=9 note=42 velocity=105 time=0
EXTRACT: note_on channel=13 note=41 velocity=101 time=0
EXTRACT: note_on channel=9 note=42 velocity=0 time=0.010080645833333334
EXTRACT: note_on channel=9 note=35 velocity=0 time=0
EXTRACT: note_on channel=9 note=42 velocity=62 time=0.11088710416666667
EXTRACT: note_on channel=9 note=61 velocity=62 time=0
EXTRACT: note_on channel=9 note=61 velocity=0 time=0.010080645833333334
EXTRACT: note_on channel=9 note=42 velocity=0 time=0
EXTRACT: note_on channel=3 note=77 velocity=113 time=0.11088710416666667
EXTRACT: note_on channel=4 note=65 velocity=113 time=0
EXTRACT: note_on channel=9 note=42 velocity=52 time=0
EXTRACT: note_on channel=9 note=61 velocity=60 time=0
EXTRACT: note_on channel=9 note=66 velocity=74 time=0
EXTRACT: note_on channel=9 note=82 velocity=50 time=0
EXTRACT: note_on channel=9 note=82 velocity=0 time=0.010080645833333334
EXTRACT: note_on channel=9 note=66 velocity=0 time=0
EXTRACT: note_on channel=9 note=61 velocity=0 time=0
EXTRACT: note_on channel=9 note=42 velocity=0 time=0
EXTRACT: note_on channel=9 note=42 velocity=37 time=0.11088710416666667
EXTRACT: note_on channel=9 note=42 velocity=0 time=0.010080645833333334
EXTRACT: note_on channel=9 note=35 velocity=77 time=0
EXTRACT: note_on channel=9 note=35 velocity=0 time=0.010080645833333334
EXTRACT: note_on channel=2 note=41 velocity=0 time=0.08820565104166667
EXTRACT: note_on channel=1 note=29 velocity=0 time=0
EXTRACT: note_on channel=13 note=41 velocity=0 time=0
EXTRACT: note_on channel=1 note=32 velocity=93 time=0.010080645833333334
EXTRACT: note_on channel=2 note=44 velocity=107 time=0
EXTRACT: note_on channel=13 note=44 velocity=95 time=0
EXTRACT: note_on channel=9 note=42 velocity=103 time=0.0025201614583333335
EXTRACT: note_on channel=9 note=61 velocity=85 time=0
EXTRACT: note_on channel=9 note=40 velocity=124 time=0.007560484375000001
EXTRACT: note_on channel=9 note=61 velocity=0 time=0.0025201614583333335
EXTRACT: note_on channel=9 note=42 velocity=0 time=0
EXTRACT: note_on channel=9 note=40 velocity=0 time=0.007560484375000001
EXTRACT: note_on channel=4 note=65 velocity=0 time=0.007560484375000001
EXTRACT: note_on channel=3 note=77 velocity=0 time=0
EXTRACT: note_on channel=3 note=72 velocity=113 time=0.09576613541666668
EXTRACT: note_on channel=4 note=60 velocity=113 time=0
EXTRACT: note_on channel=9 note=42 velocity=61 time=0
EXTRACT: note_on channel=9 note=61 velocity=68 time=0
EXTRACT: note_on channel=9 note=61 velocity=0 time=0.010080645833333334
EXTRACT: note_on channel=9 note=42 velocity=0 time=0
EXTRACT: note_on channel=9 note=42 velocity=53 time=0.11088710416666667
EXTRACT: note_on channel=9 note=61 velocity=49 time=0
EXTRACT: note_on channel=9 note=66 velocity=50 time=0
EXTRACT: note_on channel=9 note=82 velocity=49 time=0
EXTRACT: note_on channel=9 note=82 velocity=0 time=0.010080645833333334
EXTRACT: note_on channel=9 note=66 velocity=0 time=0
EXTRACT: note_on channel=9 note=61 velocity=0 time=0
EXTRACT: note_on channel=9 note=42 velocity=0 time=0
EXTRACT: note_on channel=4 note=60 velocity=0 time=0.05040322916666667
EXTRACT: note_on channel=3 note=72 velocity=0 time=0
EXTRACT: note_on channel=1 note=37 velocity=99 time=0.060483875000000006
EXTRACT: note_on channel=2 note=49 velocity=113 time=0
EXTRACT: note_on channel=9 note=42 velocity=40 time=0
EXTRACT: note_on channel=9 note=61 velocity=72 time=0
EXTRACT: note_on channel=13 note=49 velocity=101 time=0
EXTRACT: note_on channel=13 note=44 velocity=0 time=0.005040322916666667
EXTRACT: note_on channel=1 note=32 velocity=0 time=0
EXTRACT: note_on channel=2 note=44 velocity=0 time=0
EXTRACT: note_on channel=9 note=35 velocity=90 time=0
EXTRACT: note_on channel=9 note=42 velocity=0 time=0.005040322916666667
EXTRACT: note_on channel=9 note=61 velocity=0 time=0
EXTRACT: note_on channel=9 note=35 velocity=0 time=0.005040322916666667
EXTRACT: note_on channel=3 note=75 velocity=119 time=0.10584678125000001
EXTRACT: note_on channel=4 note=63 velocity=119 time=0
EXTRACT: note_on channel=9 note=42 velocity=109 time=0
EXTRACT: note_on channel=9 note=42 velocity=0 time=0.010080645833333334
EXTRACT: note_on channel=9 note=35 velocity=98 time=0.11088710416666667
EXTRACT: note_on channel=9 note=42 velocity=68 time=0
EXTRACT: note_on channel=9 note=61 velocity=62 time=0
EXTRACT: note_on channel=9 note=61 velocity=0 time=0.010080645833333334
EXTRACT: note_on channel=9 note=42 velocity=0 time=0
EXTRACT: note_on channel=9 note=35 velocity=0 time=0
EXTRACT: note_on channel=4 note=63 velocity=0 time=0.03528226041666667
EXTRACT: note_on channel=3 note=75 velocity=0 time=0
EXTRACT: note_on channel=2 note=49 velocity=0 time=0.06552419791666667
EXTRACT: note_on channel=13 note=49 velocity=0 time=0
EXTRACT: note_on channel=1 note=37 velocity=0 time=0
EXTRACT: note_on channel=1 note=36 velocity=88 time=0.007560484375000001
EXTRACT: note_on channel=2 note=48 velocity=102 time=0
EXTRACT: note_on channel=13 note=48 velocity=90 time=0
EXTRACT: note_on channel=9 note=35 velocity=98 time=0.0025201614583333335
EXTRACT: note_on channel=9 note=42 velocity=51 time=0
EXTRACT: note_on channel=9 note=61 velocity=85 time=0
EXTRACT: note_on channel=9 note=66 velocity=66 time=0
EXTRACT: note_on channel=9 note=82 velocity=49 time=0
EXTRACT: note_on channel=9 note=82 velocity=0 time=0.010080645833333334
EXTRACT: note_on channel=9 note=66 velocity=0 time=0
EXTRACT: note_on channel=9 note=42 velocity=0 time=0
EXTRACT: note_on channel=9 note=35 velocity=0 time=0
EXTRACT: note_on channel=9 note=61 velocity=0 time=0
EXTRACT: note_on channel=3 note=70 velocity=107 time=0.11088710416666667
EXTRACT: note_on channel=4 note=58 velocity=107 time=0
EXTRACT: note_on channel=9 note=42 velocity=40 time=0
EXTRACT: note_on channel=9 note=42 velocity=0 time=0.010080645833333334
EXTRACT: note_on channel=9 note=40 velocity=112 time=0.10080645833333333
EXTRACT: note_on channel=9 note=40 velocity=0 time=0.010080645833333334
EXTRACT: note_on channel=9 note=42 velocity=109 time=0
EXTRACT: note_on channel=9 note=61 velocity=72 time=0
EXTRACT: note_on channel=9 note=61 velocity=0 time=0.010080645833333334
EXTRACT: note_on channel=9 note=42 velocity=0 time=0
EXTRACT: note_on channel=13 note=48 velocity=0 time=0.0025201614583333335
EXTRACT: note_on channel=2 note=48 velocity=0 time=0
EXTRACT: note_on channel=1 note=36 velocity=0 time=0
EXTRACT: note_on channel=1 note=32 velocity=93 time=0.007560484375000001
EXTRACT: note_on channel=2 note=44 velocity=107 time=0
EXTRACT: note_on channel=13 note=44 velocity=95 time=0
EXTRACT: note_on channel=3 note=70 velocity=0 time=0.030241937500000003
EXTRACT: note_on channel=4 note=58 velocity=0 time=0
EXTRACT: note_on channel=9 note=42 velocity=62 time=0.07056452083333334
EXTRACT: note_on channel=9 note=61 velocity=60 time=0
EXTRACT: note_on channel=9 note=61 velocity=0 time=0.010080645833333334
EXTRACT: note_on channel=9 note=42 velocity=0 time=0
EXTRACT: note_on channel=13 note=44 velocity=0 time=0.10836694270833334
EXTRACT: note_on channel=1 note=32 velocity=0 time=0
EXTRACT: note_on channel=2 note=44 velocity=0 time=0
EXTRACT: note_on channel=9 note=35 velocity=94 time=0.0025201614583333335
EXTRACT: note_on channel=9 note=42 velocity=44 time=0
EXTRACT: note_on channel=9 note=66 velocity=36 time=0
EXTRACT: note_on channel=9 note=82 velocity=51 time=0
EXTRACT: note_on channel=1 note=24 velocity=83 time=0.005040322916666667
EXTRACT: note_on channel=2 note=36 velocity=97 time=0
EXTRACT: note_on channel=13 note=36 velocity=85 time=0
EXTRACT: note_on channel=9 note=82 velocity=0 time=0.005040322916666667
EXTRACT: note_on channel=9 note=66 velocity=0 time=0
EXTRACT: note_on channel=9 note=35 velocity=0 time=0
EXTRACT: note_on channel=9 note=42 velocity=0 time=0
EXTRACT: note_on channel=9 note=40 velocity=95 time=0.098286296875
EXTRACT: note_on channel=9 note=40 velocity=0 time=0.010080645833333334
EXTRACT: note_on channel=9 note=30 velocity=93 time=0
EXTRACT: note_on channel=9 note=42 velocity=38 time=0.0025201614583333335
EXTRACT: note_on channel=9 note=61 velocity=68 time=0
EXTRACT: note_on channel=9 note=30 velocity=0 time=0.007560484375000001
EXTRACT: note_on channel=9 note=42 velocity=0 time=0.0025201614583333335
EXTRACT: note_on channel=9 note=61 velocity=0 time=0
EXTRACT: note_on channel=9 note=40 velocity=64 time=0.020161291666666668
EXTRACT: note_on channel=9 note=40 velocity=0 time=0.010080645833333334
EXTRACT: note_on channel=9 note=40 velocity=42 time=0.020161291666666668
EXTRACT: note_on channel=9 note=40 velocity=0 time=0.010080645833333334
EXTRACT: note_on channel=9 note=40 velocity=30 time=0.015120968750000002
EXTRACT: note_on channel=9 note=40 velocity=0 time=0.010080645833333334
EXTRACT: note_on channel=9 note=35 velocity=118 time=0.017641130208333335
EXTRACT: note_on channel=1 note=28 velocity=88 time=0.005040322916666667
EXTRACT: note_on channel=2 note=40 velocity=102 time=0
EXTRACT: note_on channel=13 note=40 velocity=90 time=0
EXTRACT: note_on channel=9 note=42 velocity=105 time=0.0025201614583333335
EXTRACT: note_on channel=9 note=35 velocity=0 time=0.0025201614583333335
EXTRACT: note_on channel=9 note=42 velocity=0 time=0.007560484375000001
EXTRACT: note_on channel=3 note=73 velocity=107 time=0.010080645833333334
EXTRACT: note_on channel=4 note=61 velocity=107 time=0
EXTRACT: note_on channel=13 note=36 velocity=0 time=0.0025201614583333335
EXTRACT: note_on channel=1 note=24 velocity=0 time=0
EXTRACT: note_on channel=2 note=36 velocity=0 time=0
EXTRACT: note_on channel=4 note=61 velocity=0 time=0.052923390625000004
EXTRACT: note_on channel=3 note=73 velocity=0 time=0
EXTRACT: note_on channel=9 note=42 velocity=62 time=0.04536290625
EXTRACT: note_on channel=9 note=61 velocity=60 time=0
EXTRACT: note_on channel=9 note=61 velocity=0 time=0.010080645833333334
EXTRACT: note_on channel=9 note=42 velocity=0 time=0
EXTRACT: note_on channel=3 note=73 velocity=107 time=0.10332661979166667
EXTRACT: note_on channel=4 note=61 velocity=107 time=0
EXTRACT: note_on channel=9 note=42 velocity=52 time=0.007560484375000001
EXTRACT: note_on channel=9 note=61 velocity=72 time=0
EXTRACT: note_on channel=9 note=66 velocity=70 time=0
EXTRACT: note_on channel=9 note=82 velocity=50 time=0
EXTRACT: note_on channel=9 note=82 velocity=0 time=0.010080645833333334
EXTRACT: note_on channel=9 note=66 velocity=0 time=0
EXTRACT: note_on channel=9 note=61 velocity=0 time=0
EXTRACT: note_on channel=9 note=42 velocity=0 time=0
EXTRACT: note_on channel=3 note=73 velocity=0 time=0.025201614583333334
EXTRACT: note_on channel=4 note=61 velocity=0 time=0
EXTRACT: note_on channel=3 note=73 velocity=107 time=0.08316532812500001
EXTRACT: note_on channel=4 note=61 velocity=107 time=0
EXTRACT: note_on channel=9 note=42 velocity=37 time=0.0025201614583333335
EXTRACT: note_on channel=9 note=35 velocity=65 time=0.0025201614583333335
EXTRACT: note_on channel=9 note=42 velocity=0 time=0.007560484375000001
EXTRACT: note_on channel=9 note=35 velocity=0 time=0.0025201614583333335
EXTRACT: note_on channel=3 note=73 velocity=0 time=0.060483875000000006
EXTRACT: note_on channel=4 note=61 velocity=0 time=0
EXTRACT: note_on channel=9 note=40 velocity=115 time=0.04536290625
EXTRACT: note_on channel=9 note=42 velocity=103 time=0.0025201614583333335
EXTRACT: note_on channel=9 note=61 velocity=80 time=0
EXTRACT: note_on channel=1 note=31 velocity=88 time=0.0025201614583333335
EXTRACT: note_on channel=2 note=43 velocity=102 time=0
EXTRACT: note_on channel=13 note=43 velocity=90 time=0
EXTRACT: note_on channel=9 note=40 velocity=0 time=0.005040322916666667
EXTRACT: note_on channel=1 note=28 velocity=0 time=0
EXTRACT: note_on channel=2 note=40 velocity=0 time=0
EXTRACT: note_on channel=13 note=40 velocity=0 time=0
EXTRACT: note_on channel=9 note=42 velocity=0 time=0.0025201614583333335
EXTRACT: note_on channel=9 note=61 velocity=0 time=0
EXTRACT: note_on channel=3 note=75 velocity=113 time=0.098286296875
EXTRACT: note_on channel=4 note=63 velocity=113 time=0
EXTRACT: note_on channel=9 note=42 velocity=61 time=0.012600807291666667
EXTRACT: note_on channel=9 note=61 velocity=60 time=0
EXTRACT: note_on channel=9 note=61 velocity=0 time=0.010080645833333334
EXTRACT: note_on channel=9 note=42 velocity=0 time=0
EXTRACT: note_on channel=3 note=75 velocity=0 time=0.05040322916666667
EXTRACT: note_on channel=4 note=63 velocity=0 time=0
EXTRACT: note_on channel=9 note=42 velocity=53 time=0.060483875000000006
EXTRACT: note_on channel=9 note=61 velocity=55 time=0
EXTRACT: note_on channel=9 note=66 velocity=56 time=0
EXTRACT: note_on channel=9 note=82 velocity=47 time=0
EXTRACT: note_on channel=9 note=82 velocity=0 time=0.010080645833333334
EXTRACT: note_on channel=9 note=61 velocity=0 time=0
EXTRACT: note_on channel=9 note=42 velocity=0 time=0
EXTRACT: note_on channel=9 note=66 velocity=0 time=0
EXTRACT: note_on channel=3 note=72 velocity=107 time=0.09576613541666668
EXTRACT: note_on channel=4 note=60 velocity=107 time=0
EXTRACT: note_on channel=1 note=37 velocity=92 time=0.0025201614583333335
EXTRACT: note_on channel=2 note=49 velocity=106 time=0
EXTRACT: note_on channel=13 note=49 velocity=94 time=0
EXTRACT: note_on channel=2 note=43 velocity=0 time=0.012600807291666667
EXTRACT: note_on channel=13 note=43 velocity=0 time=0
EXTRACT: note_on channel=1 note=31 velocity=0 time=0
EXTRACT: note_on channel=9 note=42 velocity=40 time=0
EXTRACT: note_on channel=9 note=61 velocity=68 time=0
EXTRACT: note_on channel=9 note=35 velocity=107 time=0.005040322916666667
EXTRACT: note_on channel=9 note=61 velocity=0 time=0.005040322916666667
EXTRACT: note_on channel=9 note=42 velocity=0 time=0
EXTRACT: note_on channel=9 note=35 velocity=0 time=0.005040322916666667
EXTRACT: note_on channel=9 note=42 velocity=109 time=0.10584678125000001
EXTRACT: note_on channel=9 note=42 velocity=0 time=0.010080645833333334
EXTRACT: control_change channel=3 control=1 value=14 time=0.10080645833333333
EXTRACT: note_on channel=9 note=42 velocity=68 time=0.010080645833333334
EXTRACT: note_on channel=9 note=61 velocity=60 time=0
EXTRACT: note_on channel=9 note=35 velocity=94 time=0.007560484375000001
EXTRACT: note_on channel=9 note=61 velocity=0 time=0.0025201614583333335
EXTRACT: note_on channel=9 note=42 velocity=0 time=0
EXTRACT: note_on channel=9 note=35 velocity=0 time=0.007560484375000001
EXTRACT: control_change channel=3 control=1 value=26 time=0.04284274479166667
EXTRACT: note_on channel=2 note=49 velocity=0 time=0.060483875000000006
EXTRACT: note_on channel=13 note=49 velocity=0 time=0
EXTRACT: note_on channel=1 note=37 velocity=0 time=0
EXTRACT: note_on channel=9 note=42 velocity=51 time=0
EXTRACT: note_on channel=9 note=61 velocity=80 time=0
EXTRACT: note_on channel=9 note=66 velocity=74 time=0
EXTRACT: note_on channel=9 note=82 velocity=46 time=0
EXTRACT: note_on channel=1 note=36 velocity=99 time=0.0025201614583333335
EXTRACT: note_on channel=2 note=48 velocity=113 time=0
EXTRACT: note_on channel=9 note=35 velocity=103 time=0
EXTRACT: note_on channel=13 note=48 velocity=101 time=0
EXTRACT: note_on channel=9 note=82 velocity=0 time=0.007560484375000001
EXTRACT: note_on channel=9 note=61 velocity=0 time=0
EXTRACT: note_on channel=9 note=42 velocity=0 time=0
EXTRACT: note_on channel=9 note=66 velocity=0 time=0
EXTRACT: control_change channel=3 control=1 value=41 time=0
EXTRACT: note_on channel=9 note=35 velocity=0 time=0.0025201614583333335
EXTRACT: control_change channel=3 control=1 value=53 time=0.05040322916666667
EXTRACT: note_on channel=9 note=42 velocity=40 time=0.05796371354166667
EXTRACT: note_on channel=9 note=61 velocity=56 time=0
EXTRACT: note_on channel=9 note=61 velocity=0 time=0.010080645833333334
EXTRACT: note_on channel=9 note=42 velocity=0 time=0
EXTRACT: control_change channel=3 control=1 value=66 time=0.005040322916666667
EXTRACT: control_change channel=3 control=1 value=78 time=0.05040322916666667
EXTRACT: note_on channel=9 note=40 velocity=118 time=0.04788306770833334
EXTRACT: control_change channel=3 control=1 value=91 time=0.007560484375000001
EXTRACT: note_on channel=9 note=42 velocity=109 time=0
EXTRACT: note_on channel=9 note=61 velocity=72 time=0
EXTRACT: note_on channel=9 note=40 velocity=0 time=0.0025201614583333335
EXTRACT: note_on channel=13 note=48 velocity=0 time=0
EXTRACT: note_on channel=1 note=36 velocity=0 time=0
EXTRACT: note_on channel=2 note=48 velocity=0 time=0
EXTRACT: note_on channel=1 note=31 velocity=93 time=0.0025201614583333335
EXTRACT: note_on channel=2 note=43 velocity=107 time=0
EXTRACT: note_on channel=13 note=43 velocity=95 time=0
EXTRACT: note_on channel=9 note=61 velocity=0 time=0.005040322916666667
EXTRACT: note_on channel=9 note=42 velocity=0 time=0
EXTRACT: note_on channel=3 note=72 velocity=0 time=0.03528226041666667
EXTRACT: note_on channel=4 note=60 velocity=0 time=0
EXTRACT: control_change channel=3 control=1 value=0 time=0.007560484375000001
EXTRACT: note_on channel=9 note=42 velocity=62 time=0.068044359375
EXTRACT: note_on channel=9 note=61 velocity=60 time=0
EXTRACT: note_on channel=9 note=61 velocity=0 time=0.010080645833333334
EXTRACT: note_on channel=9 note=42 velocity=0 time=0
EXTRACT: note_on channel=1 note=31 velocity=0 time=0.08316532812500001
EXTRACT: note_on channel=13 note=43 velocity=0 time=0
EXTRACT: note_on channel=2 note=43 velocity=0 time=0
EXTRACT: note_on channel=1 note=28 velocity=88 time=0.022681453125
EXTRACT: note_on channel=2 note=40 velocity=102 time=0
EXTRACT: note_on channel=13 note=40 velocity=90 time=0
EXTRACT: note_on channel=9 note=35 velocity=103 time=0.005040322916666667
EXTRACT: note_on channel=9 note=42 velocity=44 time=0
EXTRACT: note_on channel=9 note=61 velocity=60 time=0
EXTRACT: note_on channel=9 note=66 velocity=49 time=0
EXTRACT: note_on channel=9 note=82 velocity=49 time=0
EXTRACT: note_on channel=9 note=82 velocity=0 time=0.010080645833333334
EXTRACT: note_on channel=9 note=66 velocity=0 time=0
EXTRACT: note_on channel=9 note=42 velocity=0 time=0
EXTRACT: note_on channel=9 note=35 velocity=0 time=0
EXTRACT: note_on channel=9 note=61 velocity=0 time=0
EXTRACT: note_on channel=9 note=40 velocity=95 time=0.098286296875
EXTRACT: note_on channel=9 note=40 velocity=0 time=0.010080645833333334
EXTRACT: note_on channel=9 note=30 velocity=88 time=0
EXTRACT: note_on channel=9 note=42 velocity=38 time=0.0025201614583333335
EXTRACT: note_on channel=9 note=61 velocity=80 time=0
EXTRACT: note_on channel=9 note=30 velocity=0 time=0.007560484375000001
EXTRACT: note_on channel=9 note=42 velocity=0 time=0.0025201614583333335
EXTRACT: note_on channel=9 note=61 velocity=0 time=0
EXTRACT: note_on channel=9 note=40 velocity=64 time=0.020161291666666668
EXTRACT: note_on channel=9 note=40 velocity=0 time=0.010080645833333334
EXTRACT: note_on channel=9 note=40 velocity=42 time=0.020161291666666668
EXTRACT: note_on channel=9 note=40 velocity=0 time=0.010080645833333334
EXTRACT: note_on channel=9 note=40 velocity=30 time=0.017641130208333335
EXTRACT: note_on channel=9 note=40 velocity=0 time=0.010080645833333334
EXTRACT: note_on channel=13 note=40 velocity=0 time=0.020161291666666668
EXTRACT: note_on channel=2 note=40 velocity=0 time=0
EXTRACT: note_on channel=1 note=28 velocity=0 time=0
EXTRACT: note_on channel=9 note=35 velocity=112 time=0
EXTRACT: note_on channel=1 note=29 velocity=99 time=0.0025201614583333335
EXTRACT: note_on channel=2 note=41 velocity=113 time=0
EXTRACT: note_on channel=9 note=42 velocity=105 time=0
EXTRACT: note_on channel=13 note=41 velocity=101 time=0
EXTRACT: note_on channel=9 note=35 velocity=0 time=0.007560484375000001
EXTRACT: note_on channel=9 note=42 velocity=0 time=0.0025201614583333335
EXTRACT: note_on channel=9 note=42 velocity=62 time=0.11088710416666667
EXTRACT: note_on channel=9 note=61 velocity=59 time=0
EXTRACT: note_on channel=9 note=61 velocity=0 time=0.010080645833333334
EXTRACT: note_on channel=9 note=42 velocity=0 time=0
EXTRACT: note_on channel=3 note=77 velocity=113 time=0.11088710416666667
EXTRACT: note_on channel=4 note=65 velocity=113 time=0
EXTRACT: note_on channel=9 note=42 velocity=52 time=0
EXTRACT: note_on channel=9 note=61 velocity=72 time=0
EXTRACT: note_on channel=9 note=66 velocity=70 time=0
EXTRACT: note_on channel=9 note=82 velocity=49 time=0
EXTRACT: note_on channel=9 note=82 velocity=0 time=0.010080645833333334
EXTRACT: note_on channel=9 note=66 velocity=0 time=0
EXTRACT: note_on channel=9 note=61 velocity=0 time=0
EXTRACT: note_on channel=9 note=42 velocity=0 time=0
EXTRACT: note_on channel=3 note=77 velocity=0 time=0.07308468229166667
EXTRACT: note_on channel=4 note=65 velocity=0 time=0
EXTRACT: note_on channel=9 note=42 velocity=37 time=0.037802421875
EXTRACT: note_on channel=9 note=35 velocity=98 time=0.0025201614583333335
EXTRACT: note_on channel=9 note=42 velocity=0 time=0.007560484375000001
EXTRACT: note_on channel=9 note=35 velocity=0 time=0.0025201614583333335
EXTRACT: note_on channel=2 note=41 velocity=0 time=0.09576613541666668
EXTRACT: note_on channel=13 note=41 velocity=0 time=0
EXTRACT: note_on channel=1 note=29 velocity=0 time=0
EXTRACT: note_on channel=1 note=32 velocity=93 time=0.010080645833333334
EXTRACT: note_on channel=2 note=44 velocity=107 time=0
EXTRACT: note_on channel=13 note=44 velocity=95 time=0
EXTRACT: note_on channel=9 note=40 velocity=118 time=0.0025201614583333335
EXTRACT: note_on channel=9 note=42 velocity=103 time=0
EXTRACT: note_on channel=9 note=61 velocity=62 time=0
EXTRACT: note_on channel=9 note=61 velocity=0 time=0.010080645833333334
EXTRACT: note_on channel=9 note=40 velocity=0 time=0
EXTRACT: note_on channel=9 note=42 velocity=0 time=0
EXTRACT: note_on channel=3 note=72 velocity=107 time=0.11088710416666667
EXTRACT: note_on channel=4 note=60 velocity=107 time=0
EXTRACT: note_on channel=9 note=42 velocity=61 time=0
EXTRACT: note_on channel=9 note=61 velocity=62 time=0
EXTRACT: note_on channel=9 note=61 velocity=0 time=0.010080645833333334
EXTRACT: note_on channel=9 note=42 velocity=0 time=0
EXTRACT: note_on channel=3 note=72 velocity=0 time=0.06552419791666667
EXTRACT: note_on channel=4 note=60 velocity=0 time=0
EXTRACT: note_on channel=9 note=42 velocity=53 time=0.04536290625
EXTRACT: note_on channel=9 note=61 velocity=56 time=0
EXTRACT: note_on channel=9 note=66 velocity=50 time=0
EXTRACT: note_on channel=9 note=82 velocity=42 time=0
EXTRACT: note_on channel=9 note=82 velocity=0 time=0.010080645833333334
EXTRACT: note_on channel=9 note=61 velocity=0 time=0
EXTRACT: note_on channel=9 note=42 velocity=0 time=0
EXTRACT: note_on channel=9 note=66 velocity=0 time=0
EXTRACT: note_on channel=1 note=37 velocity=99 time=0.11088710416666667
EXTRACT: note_on channel=2 note=49 velocity=113 time=0
EXTRACT: note_on channel=9 note=42 velocity=40 time=0
EXTRACT: note_on channel=9 note=61 velocity=76 time=0
EXTRACT: note_on channel=13 note=49 velocity=101 time=0
EXTRACT: note_on channel=13 note=44 velocity=0 time=0.005040322916666667
EXTRACT: note_on channel=1 note=32 velocity=0 time=0
EXTRACT: note_on channel=2 note=44 velocity=0 time=0
EXTRACT: note_on channel=9 note=35 velocity=98 time=0.0025201614583333335
EXTRACT: note_on channel=9 note=42 velocity=0 time=0.0025201614583333335
EXTRACT: note_on channel=9 note=61 velocity=0 time=0
EXTRACT: note_on channel=9 note=35 velocity=0 time=0.007560484375000001
EXTRACT: note_on channel=3 note=75 velocity=113 time=0.10332661979166667
EXTRACT: note_on channel=4 note=63 velocity=113 time=0
EXTRACT: note_on channel=9 note=42 velocity=109 time=0
EXTRACT: note_on channel=9 note=42 velocity=0 time=0.010080645833333334
EXTRACT: note_on channel=3 note=75 velocity=0 time=0.09576613541666668
EXTRACT: note_on channel=4 note=63 velocity=0 time=0
EXTRACT: note_on channel=9 note=42 velocity=68 time=0.015120968750000002
EXTRACT: note_on channel=9 note=61 velocity=60 time=0
EXTRACT: note_on channel=9 note=35 velocity=98 time=0.0025201614583333335
EXTRACT: note_on channel=9 note=61 velocity=0 time=0.007560484375000001
EXTRACT: note_on channel=9 note=42 velocity=0 time=0
EXTRACT: note_on channel=9 note=35 velocity=0 time=0.0025201614583333335
EXTRACT: note_on channel=2 note=49 velocity=0 time=0.098286296875
EXTRACT: note_on channel=1 note=37 velocity=0 time=0
EXTRACT: note_on channel=13 note=49 velocity=0 time=0
EXTRACT: note_on channel=1 note=36 velocity=88 time=0.007560484375000001
EXTRACT: note_on channel=2 note=48 velocity=102 time=0
EXTRACT: note_on channel=13 note=48 velocity=90 time=0
EXTRACT: note_on channel=9 note=42 velocity=51 time=0.0025201614583333335
EXTRACT: note_on channel=9 note=61 velocity=56 time=0
EXTRACT: note_on channel=9 note=66 velocity=70 time=0
EXTRACT: note_on channel=9 note=82 velocity=51 time=0
EXTRACT: note_on channel=9 note=35 velocity=77 time=0.0025201614583333335
EXTRACT: note_on channel=9 note=82 velocity=0 time=0.007560484375000001
EXTRACT: note_on channel=9 note=42 velocity=0 time=0
EXTRACT: note_on channel=9 note=61 velocity=0 time=0
EXTRACT: note_on channel=9 note=66 velocity=0 time=0
EXTRACT: note_on channel=9 note=35 velocity=0 time=0.0025201614583333335
EXTRACT: note_on channel=3 note=70 velocity=98 time=0.10836694270833334
EXTRACT: note_on channel=4 note=58 velocity=98 time=0
EXTRACT: note_on channel=9 note=42 velocity=40 time=0
EXTRACT: note_on channel=9 note=42 velocity=0 time=0.010080645833333334
EXTRACT: note_on channel=3 note=70 velocity=0 time=0.08820565104166667
EXTRACT: note_on channel=4 note=58 velocity=0 time=0
EXTRACT: note_on channel=9 note=40 velocity=118 time=0.017641130208333335
EXTRACT: note_on channel=9 note=42 velocity=109 time=0.005040322916666667
EXTRACT: note_on channel=9 note=61 velocity=72 time=0
EXTRACT: note_on channel=9 note=40 velocity=0 time=0.005040322916666667
EXTRACT: note_on channel=9 note=42 velocity=0 time=0.005040322916666667
EXTRACT: note_on channel=9 note=61 velocity=0 time=0
EXTRACT: note_on channel=2 note=48 velocity=0 time=0.0025201614583333335
EXTRACT: note_on channel=13 note=48 velocity=0 time=0
EXTRACT: note_on channel=1 note=36 velocity=0 time=0
EXTRACT: note_on channel=1 note=32 velocity=93 time=0.007560484375000001
EXTRACT: note_on channel=2 note=44 velocity=107 time=0
EXTRACT: note_on channel=13 note=44 velocity=95 time=0
EXTRACT: note_on channel=9 note=42 velocity=62 time=0.10080645833333333
EXTRACT: note_on channel=9 note=61 velocity=60 time=0
EXTRACT: note_on channel=9 note=61 velocity=0 time=0.010080645833333334
EXTRACT: note_on channel=9 note=42 velocity=0 time=0
EXTRACT: note_on channel=9 note=35 velocity=107 time=0.10584678125000001
EXTRACT: note_on channel=1 note=32 velocity=0 time=0.0025201614583333335
EXTRACT: note_on channel=13 note=44 velocity=0 time=0
EXTRACT: note_on channel=2 note=44 velocity=0 time=0
EXTRACT: note_on channel=9 note=42 velocity=44 time=0.0025201614583333335
EXTRACT: note_on channel=9 note=66 velocity=53 time=0
EXTRACT: note_on channel=9 note=82 velocity=46 time=0
EXTRACT: note_on channel=9 note=35 velocity=0 time=0.005040322916666667
EXTRACT: note_on channel=1 note=24 velocity=83 time=0
EXTRACT: note_on channel=2 note=36 velocity=97 time=0
EXTRACT: note_on channel=13 note=36 velocity=85 time=0
EXTRACT: note_on channel=9 note=42 velocity=0 time=0.005040322916666667
EXTRACT: note_on channel=9 note=82 velocity=0 time=0
EXTRACT: note_on channel=9 note=66 velocity=0 time=0
EXTRACT: note_on channel=9 note=40 velocity=95 time=0.098286296875
EXTRACT: note_on channel=9 note=40 velocity=0 time=0.010080645833333334
EXTRACT: note_on channel=9 note=30 velocity=93 time=0
EXTRACT: note_on channel=9 note=42 velocity=38 time=0.0025201614583333335
EXTRACT: note_on channel=9 note=61 velocity=68 time=0
EXTRACT: note_on channel=9 note=30 velocity=0 time=0.007560484375000001
EXTRACT: note_on channel=9 note=42 velocity=0 time=0.0025201614583333335
EXTRACT: note_on channel=9 note=61 velocity=0 time=0
EXTRACT: note_on channel=9 note=40 velocity=64 time=0.020161291666666668
EXTRACT: note_on channel=9 note=40 velocity=0 time=0.010080645833333334
EXTRACT: note_on channel=9 note=40 velocity=42 time=0.020161291666666668
EXTRACT: note_on channel=9 note=40 velocity=0 time=0.010080645833333334
EXTRACT: note_on channel=9 note=40 velocity=30 time=0.015120968750000002
EXTRACT: note_on channel=9 note=40 velocity=0 time=0.010080645833333334
EXTRACT: note_on channel=1 note=28 velocity=88 time=0.022681453125
EXTRACT: note_on channel=2 note=40 velocity=102 time=0
EXTRACT: note_on channel=9 note=35 velocity=107 time=0
EXTRACT: note_on channel=13 note=40 velocity=90 time=0
EXTRACT: note_on channel=3 note=73 velocity=113 time=0.0025201614583333335
EXTRACT: note_on channel=4 note=61 velocity=113 time=0
EXTRACT: note_on channel=9 note=42 velocity=105 time=0
EXTRACT: note_on channel=9 note=35 velocity=0 time=0.007560484375000001
EXTRACT: note_on channel=9 note=42 velocity=0 time=0.0025201614583333335
EXTRACT: note_on channel=1 note=24 velocity=0 time=0.012600807291666667
EXTRACT: note_on channel=2 note=36 velocity=0 time=0
EXTRACT: note_on channel=13 note=36 velocity=0 time=0
EXTRACT: note_on channel=3 note=73 velocity=0 time=0.037802421875
EXTRACT: note_on channel=4 note=61 velocity=0 time=0
EXTRACT: note_on channel=9 note=42 velocity=62 time=0.060483875000000006
EXTRACT: note_on channel=9 note=61 velocity=62 time=0
EXTRACT: note_on channel=9 note=61 velocity=0 time=0.010080645833333334
EXTRACT: note_on channel=9 note=42 velocity=0 time=0
EXTRACT: note_on channel=3 note=73 velocity=93 time=0.11088710416666667
EXTRACT: note_on channel=4 note=61 velocity=93 time=0
EXTRACT: note_on channel=9 note=42 velocity=52 time=0
EXTRACT: note_on channel=9 note=61 velocity=76 time=0
EXTRACT: note_on channel=9 note=66 velocity=79 time=0
EXTRACT: note_on channel=9 note=82 velocity=51 time=0
EXTRACT: note_on channel=9 note=82 velocity=0 time=0.010080645833333334
EXTRACT: note_on channel=9 note=66 velocity=0 time=0
EXTRACT: note_on channel=9 note=61 velocity=0 time=0
EXTRACT: note_on channel=9 note=42 velocity=0 time=0
EXTRACT: note_on channel=3 note=73 velocity=0 time=0.022681453125
EXTRACT: note_on channel=4 note=61 velocity=0 time=0
EXTRACT: note_on channel=3 note=73 velocity=107 time=0.08820565104166667
EXTRACT: note_on channel=4 note=61 velocity=107 time=0
EXTRACT: note_on channel=9 note=42 velocity=37 time=0
EXTRACT: note_on channel=9 note=35 velocity=98 time=0.0025201614583333335
EXTRACT: note_on channel=9 note=42 velocity=0 time=0.007560484375000001
EXTRACT: note_on channel=9 note=35 velocity=0 time=0.0025201614583333335
EXTRACT: note_on channel=3 note=73 velocity=0 time=0.07560484375
EXTRACT: note_on channel=4 note=61 velocity=0 time=0
EXTRACT: note_on channel=9 note=40 velocity=118 time=0.027721776041666667
EXTRACT: note_on channel=9 note=42 velocity=103 time=0.005040322916666667
EXTRACT: note_on channel=9 note=61 velocity=76 time=0
EXTRACT: note_on channel=1 note=31 velocity=88 time=0.0025201614583333335
EXTRACT: note_on channel=2 note=43 velocity=102 time=0
EXTRACT: note_on channel=13 note=43 velocity=90 time=0
EXTRACT: note_on channel=9 note=40 velocity=0 time=0.0025201614583333335
EXTRACT: note_on channel=13 note=40 velocity=0 time=0.0025201614583333335
EXTRACT: note_on channel=2 note=40 velocity=0 time=0
EXTRACT: note_on channel=1 note=28 velocity=0 time=0
EXTRACT: note_on channel=9 note=42 velocity=0 time=0.0025201614583333335
EXTRACT: note_on channel=9 note=61 velocity=0 time=0
EXTRACT: note_on channel=3 note=75 velocity=107 time=0.11088710416666667
EXTRACT: note_on channel=4 note=63 velocity=107 time=0
EXTRACT: note_on channel=9 note=42 velocity=61 time=0
EXTRACT: note_on channel=9 note=61 velocity=72 time=0
EXTRACT: note_on channel=9 note=61 velocity=0 time=0.010080645833333334
EXTRACT: note_on channel=9 note=42 velocity=0 time=0
EXTRACT: note_on channel=3 note=75 velocity=0 time=0.08820565104166667
EXTRACT: note_on channel=4 note=63 velocity=0 time=0
EXTRACT: note_on channel=3 note=72 velocity=97 time=0
EXTRACT: note_on channel=4 note=60 velocity=97 time=0
EXTRACT: note_on channel=9 note=42 velocity=53 time=0.022681453125
EXTRACT: note_on channel=9 note=61 velocity=51 time=0
EXTRACT: note_on channel=9 note=66 velocity=46 time=0
EXTRACT: note_on channel=9 note=82 velocity=46 time=0
EXTRACT: note_on channel=9 note=82 velocity=0 time=0.010080645833333334
EXTRACT: note_on channel=9 note=66 velocity=0 time=0
EXTRACT: note_on channel=9 note=61 velocity=0 time=0
EXTRACT: note_on channel=9 note=42 velocity=0 time=0
EXTRACT: note_on channel=1 note=37 velocity=92 time=0.098286296875
EXTRACT: note_on channel=2 note=49 velocity=106 time=0
EXTRACT: note_on channel=13 note=49 velocity=94 time=0
EXTRACT: note_on channel=13 note=43 velocity=0 time=0.012600807291666667
EXTRACT: note_on channel=2 note=43 velocity=0 time=0
EXTRACT: note_on channel=1 note=31 velocity=0 time=0
EXTRACT: note_on channel=9 note=42 velocity=40 time=0
EXTRACT: note_on channel=9 note=61 velocity=72 time=0
EXTRACT: note_on channel=9 note=35 velocity=103 time=0.005040322916666667
EXTRACT: note_on channel=9 note=61 velocity=0 time=0.005040322916666667
EXTRACT: note_on channel=9 note=42 velocity=0 time=0
EXTRACT: note_on channel=9 note=35 velocity=0 time=0.005040322916666667
EXTRACT: note_on channel=9 note=40 velocity=37 time=0.10584678125000001
EXTRACT: note_on channel=9 note=42 velocity=109 time=0
EXTRACT: note_on channel=9 note=42 velocity=0 time=0.010080645833333334
EXTRACT: note_on channel=9 note=40 velocity=0 time=0
EXTRACT: note_on channel=9 note=40 velocity=40 time=0.05040322916666667
EXTRACT: note_on channel=9 note=40 velocity=0 time=0.010080645833333334
EXTRACT: control_change channel=3 control=1 value=10 time=0.0025201614583333335
EXTRACT: note_on channel=9 note=40 velocity=44 time=0.04788306770833334
EXTRACT: note_on channel=9 note=42 velocity=68 time=0
EXTRACT: note_on channel=9 note=61 velocity=62 time=0
EXTRACT: note_on channel=9 note=35 velocity=98 time=0.0025201614583333335
EXTRACT: note_on channel=9 note=61 velocity=0 time=0.007560484375000001
EXTRACT: note_on channel=9 note=42 velocity=0 time=0
EXTRACT: note_on channel=9 note=40 velocity=0 time=0
EXTRACT: note_on channel=9 note=35 velocity=0 time=0.0025201614583333335
EXTRACT: control_change channel=3 control=1 value=21 time=0.04788306770833334
EXTRACT: note_on channel=9 note=40 velocity=47 time=0
EXTRACT: note_on channel=9 note=40 velocity=0 time=0.010080645833333334
EXTRACT: control_change channel=3 control=1 value=31 time=0.04284274479166667
EXTRACT: note_on channel=2 note=49 velocity=0 time=0.007560484375000001
EXTRACT: note_on channel=13 note=49 velocity=0 time=0
EXTRACT: note_on channel=1 note=37 velocity=0 time=0
EXTRACT: note_on channel=9 note=40 velocity=51 time=0
EXTRACT: note_on channel=9 note=42 velocity=51 time=0
EXTRACT: note_on channel=9 note=61 velocity=52 time=0
EXTRACT: note_on channel=9 note=66 velocity=70 time=0
EXTRACT: note_on channel=9 note=82 velocity=46 time=0
EXTRACT: note_on channel=1 note=36 velocity=99 time=0.0025201614583333335
EXTRACT: note_on channel=2 note=48 velocity=113 time=0
EXTRACT: note_on channel=9 note=35 velocity=94 time=0
EXTRACT: note_on channel=13 note=48 velocity=101 time=0
EXTRACT: note_on channel=9 note=82 velocity=0 time=0.007560484375000001
EXTRACT: note_on channel=9 note=42 velocity=0 time=0
EXTRACT: note_on channel=9 note=40 velocity=0 time=0
EXTRACT: note_on channel=9 note=66 velocity=0 time=0
EXTRACT: note_on channel=9 note=61 velocity=0 time=0
EXTRACT: note_on channel=9 note=35 velocity=0 time=0.0025201614583333335
EXTRACT: note_on channel=9 note=40 velocity=54 time=0.04788306770833334
EXTRACT: control_change channel=3 control=1 value=46 time=0.0025201614583333335
EXTRACT: note_on channel=9 note=40 velocity=0 time=0.007560484375000001
EXTRACT: note_on channel=9 note=40 velocity=58 time=0.05040322916666667
EXTRACT: note_on channel=9 note=42 velocity=40 time=0
EXTRACT: note_on channel=9 note=61 velocity=55 time=0
EXTRACT: note_on channel=9 note=61 velocity=0 time=0.010080645833333334
EXTRACT: note_on channel=9 note=42 velocity=0 time=0
EXTRACT: note_on channel=9 note=40 velocity=0 time=0
EXTRACT: control_change channel=3 control=1 value=59 time=0.005040322916666667
EXTRACT: note_on channel=9 note=40 velocity=62 time=0.04536290625
EXTRACT: control_change channel=3 control=1 value=78 time=0.007560484375000001
EXTRACT: note_on channel=9 note=40 velocity=0 time=0.0025201614583333335
EXTRACT: note_on channel=3 note=72 velocity=0 time=0.05040322916666667
EXTRACT: note_on channel=4 note=60 velocity=0 time=0
EXTRACT: note_on channel=9 note=40 velocity=65 time=0
EXTRACT: note_on channel=9 note=42 velocity=109 time=0
EXTRACT: note_on channel=9 note=61 velocity=68 time=0
EXTRACT: note_on channel=1 note=36 velocity=0 time=0.0025201614583333335
EXTRACT: note_on channel=2 note=48 velocity=0 time=0
EXTRACT: note_on channel=13 note=48 velocity=0 time=0
EXTRACT: note_on channel=1 note=31 velocity=93 time=0.0025201614583333335
EXTRACT: note_on channel=2 note=43 velocity=107 time=0
EXTRACT: note_on channel=13 note=43 velocity=95 time=0
EXTRACT: note_on channel=9 note=40 velocity=0 time=0.005040322916666667
EXTRACT: note_on channel=9 note=61 velocity=0 time=0
EXTRACT: note_on channel=9 note=42 velocity=0 time=0
EXTRACT: note_on channel=9 note=40 velocity=47 time=0.05040322916666667
EXTRACT: note_on channel=9 note=40 velocity=0 time=0.010080645833333334
EXTRACT: control_change channel=3 control=1 value=0 time=0
EXTRACT: note_on channel=9 note=40 velocity=53 time=0.05040322916666667
EXTRACT: note_on channel=9 note=42 velocity=62 time=0
EXTRACT: note_on channel=9 note=61 velocity=62 time=0
EXTRACT: note_on channel=9 note=61 velocity=0 time=0.010080645833333334
EXTRACT: note_on channel=9 note=40 velocity=0 time=0
EXTRACT: note_on channel=9 note=42 velocity=0 time=0
EXTRACT: note_on channel=9 note=40 velocity=59 time=0.05040322916666667
EXTRACT: note_on channel=9 note=40 velocity=0 time=0.010080645833333334
EXTRACT: note_on channel=2 note=43 velocity=0 time=0.022681453125
EXTRACT: note_on channel=13 note=43 velocity=0 time=0
EXTRACT: note_on channel=1 note=31 velocity=0 time=0
EXTRACT: note_on channel=1 note=28 velocity=88 time=0.022681453125
EXTRACT: note_on channel=2 note=40 velocity=102 time=0
EXTRACT: note_on channel=9 note=35 velocity=103 time=0
EXTRACT: note_on channel=13 note=40 velocity=90 time=0
EXTRACT: note_on channel=9 note=40 velocity=64 time=0.005040322916666667
EXTRACT: note_on channel=9 note=42 velocity=44 time=0
EXTRACT: note_on channel=9 note=66 velocity=47 time=0
EXTRACT: note_on channel=9 note=82 velocity=44 time=0
EXTRACT: note_on channel=9 note=35 velocity=0 time=0.005040322916666667
EXTRACT: note_on channel=9 note=82 velocity=0 time=0.005040322916666667
EXTRACT: note_on channel=9 note=42 velocity=0 time=0
EXTRACT: note_on channel=9 note=40 velocity=0 time=0
EXTRACT: note_on channel=9 note=66 velocity=0 time=0
EXTRACT: note_on channel=9 note=40 velocity=70 time=0.05040322916666667
EXTRACT: note_on channel=9 note=40 velocity=0 time=0.010080645833333334
EXTRACT: note_on channel=9 note=30 velocity=99 time=0.04788306770833334
EXTRACT: note_on channel=9 note=40 velocity=75 time=0.0025201614583333335
EXTRACT: note_on channel=9 note=42 velocity=38 time=0
EXTRACT: note_on channel=9 note=30 velocity=0 time=0.007560484375000001
EXTRACT: note_on channel=9 note=40 velocity=0 time=0.0025201614583333335
EXTRACT: note_on channel=9 note=42 velocity=0 time=0
EXTRACT: note_on channel=9 note=40 velocity=81 time=0.05040322916666667
EXTRACT: note_on channel=9 note=40 velocity=0 time=0.010080645833333334
EXTRACT: note_on channel=13 note=40 velocity=0 time=0.04788306770833334
EXTRACT: note_on channel=2 note=40 velocity=0 time=0
EXTRACT: note_on channel=1 note=28 velocity=0 time=0
EXTRACT: note_on channel=1 note=29 velocity=107 time=0.0025201614583333335
EXTRACT: note_on channel=2 note=41 velocity=113 time=0
EXTRACT: note_on channel=9 note=57 velocity=70 time=0
EXTRACT: note_on channel=9 note=82 velocity=66 time=0
EXTRACT: note_on channel=9 note=86 velocity=107 time=0
EXTRACT: note_on channel=13 note=41 velocity=101 time=0
EXTRACT: note_on channel=9 note=35 velocity=113 time=0.005040322916666667
EXTRACT: note_on channel=12 note=23 velocity=113 time=0
EXTRACT: note_on channel=9 note=86 velocity=0 time=0.005040322916666667
EXTRACT: note_on channel=9 note=82 velocity=0 time=0
EXTRACT: note_on channel=9 note=57 velocity=0 time=0
EXTRACT: note_on channel=9 note=35 velocity=0 time=0.005040322916666667
EXTRACT: note_on channel=3 note=69 velocity=102 time=0.015120968750000002
EXTRACT: note_on channel=12 note=23 velocity=0 time=0.007560484375000001
EXTRACT: note_on channel=3 note=69 velocity=0 time=0.025201614583333334
EXTRACT: note_on channel=9 note=86 velocity=93 time=0.05544355208333333
EXTRACT: note_on channel=9 note=61 velocity=62 time=0.0025201614583333335
EXTRACT: note_on channel=9 note=82 velocity=62 time=0
EXTRACT: note_on channel=9 note=86 velocity=0 time=0.007560484375000001
EXTRACT: note_on channel=9 note=61 velocity=0 time=0.0025201614583333335
EXTRACT: note_on channel=9 note=82 velocity=0 time=0
EXTRACT: note_on channel=3 note=69 velocity=79 time=0.015120968750000002
EXTRACT: note_on channel=3 note=69 velocity=0 time=0.03276209895833333
EXTRACT: note_on channel=9 note=46 velocity=60 time=0.06300403645833334
EXTRACT: note_on channel=9 note=61 velocity=60 time=0
EXTRACT: note_on channel=9 note=82 velocity=51 time=0
EXTRACT: note_on channel=9 note=82 velocity=0 time=0.010080645833333334
EXTRACT: note_on channel=9 note=46 velocity=0 time=0
EXTRACT: note_on channel=9 note=61 velocity=0 time=0
EXTRACT: note_on channel=3 note=69 velocity=98 time=0.0025201614583333335
EXTRACT: note_on channel=3 note=69 velocity=0 time=0.03276209895833333
EXTRACT: note_on channel=9 note=86 velocity=113 time=0.06300403645833334
EXTRACT: note_on channel=9 note=86 velocity=0 time=0.010080645833333334
EXTRACT: note_on channel=9 note=82 velocity=54 time=0.0025201614583333335
EXTRACT: note_on channel=9 note=82 velocity=0 time=0.010080645833333334
EXTRACT: note_on channel=3 note=69 velocity=78 time=0.007560484375000001
EXTRACT: note_on channel=3 note=69 velocity=0 time=0.03276209895833333
EXTRACT: note_on channel=1 note=29 velocity=0 time=0.05796371354166667
EXTRACT: note_on channel=2 note=41 velocity=0 time=0
EXTRACT: note_on channel=13 note=41 velocity=0 time=0
EXTRACT: note_on channel=1 note=32 velocity=101 time=0.010080645833333334
EXTRACT: note_on channel=2 note=44 velocity=107 time=0
EXTRACT: note_on channel=13 note=44 velocity=95 time=0
EXTRACT: note_on channel=3 note=69 velocity=107 time=0.0025201614583333335
EXTRACT: note_on channel=9 note=61 velocity=85 time=0
EXTRACT: note_on channel=9 note=82 velocity=66 time=0
EXTRACT: note_on channel=9 note=40 velocity=120 time=0.007560484375000001
EXTRACT: note_on channel=9 note=82 velocity=0 time=0.0025201614583333335
EXTRACT: note_on channel=9 note=61 velocity=0 time=0
EXTRACT: note_on channel=9 note=40 velocity=0 time=0.007560484375000001
EXTRACT: note_on channel=9 note=61 velocity=68 time=0.10332661979166667
EXTRACT: note_on channel=9 note=82 velocity=62 time=0
EXTRACT: note_on channel=9 note=82 velocity=0 time=0.010080645833333334
EXTRACT: note_on channel=9 note=61 velocity=0 time=0
EXTRACT: pitchwheel channel=3 pitch=-304 time=0.037802421875
EXTRACT: pitchwheel channel=3 pitch=-531 time=0.03528226041666667
EXTRACT: pitchwheel channel=3 pitch=-759 time=0.03528226041666667
EXTRACT: note_on channel=9 note=42 velocity=56 time=0.0025201614583333335
EXTRACT: note_on channel=9 note=61 velocity=49 time=0
EXTRACT: note_on channel=9 note=82 velocity=51 time=0
EXTRACT: note_on channel=9 note=35 velocity=89 time=0.007560484375000001
EXTRACT: note_on channel=12 note=23 velocity=89 time=0
EXTRACT: note_on channel=9 note=82 velocity=0 time=0.0025201614583333335
EXTRACT: note_on channel=9 note=61 velocity=0 time=0
EXTRACT: note_on channel=9 note=42 velocity=0 time=0
EXTRACT: note_on channel=9 note=86 velocity=102 time=0
EXTRACT: note_on channel=9 note=35 velocity=0 time=0.007560484375000001
EXTRACT: note_on channel=9 note=86 velocity=0 time=0.0025201614583333335
EXTRACT: pitchwheel channel=3 pitch=-987 time=0.015120968750000002
EXTRACT: note_on channel=12 note=23 velocity=0 time=0.005040322916666667
EXTRACT: pitchwheel channel=3 pitch=-1290 time=0.04788306770833334
EXTRACT: note_on channel=1 note=37 velocity=107 time=0.03276209895833333
EXTRACT: note_on channel=2 note=49 velocity=113 time=0
EXTRACT: note_on channel=9 note=61 velocity=72 time=0
EXTRACT: note_on channel=9 note=82 velocity=66 time=0
EXTRACT: note_on channel=13 note=49 velocity=101 time=0
EXTRACT: note_on channel=8 note=84 velocity=93 time=0.0025201614583333335
EXTRACT: note_on channel=1 note=32 velocity=0 time=0.0025201614583333335
EXTRACT: note_on channel=13 note=44 velocity=0 time=0
EXTRACT: note_on channel=2 note=44 velocity=0 time=0
EXTRACT: note_on channel=8 note=91 velocity=85 time=0
EXTRACT: note_on channel=9 note=35 velocity=85 time=0
EXTRACT: note_on channel=9 note=86 velocity=93 time=0
EXTRACT: note_on channel=12 note=23 velocity=85 time=0
EXTRACT: note_on channel=9 note=82 velocity=0 time=0.005040322916666667
EXTRACT: note_on channel=9 note=61 velocity=0 time=0
EXTRACT: note_on channel=9 note=86 velocity=0 time=0.005040322916666667
EXTRACT: note_on channel=9 note=35 velocity=0 time=0
EXTRACT: note_on channel=12 note=23 velocity=0 time=0.022681453125
EXTRACT: pitchwheel channel=3 pitch=-1897 time=0.0025201614583333335
EXTRACT: note_on channel=8 note=84 velocity=0 time=0.025201614583333334
EXTRACT: note_on channel=8 note=91 velocity=0 time=0.007560484375000001
EXTRACT: pitchwheel channel=3 pitch=-2352 time=0.020161291666666668
EXTRACT: note_on channel=9 note=82 velocity=56 time=0.027721776041666667
EXTRACT: note_on channel=9 note=86 velocity=107 time=0.0025201614583333335
EXTRACT: note_on channel=9 note=82 velocity=0 time=0.007560484375000001
EXTRACT: note_on channel=9 note=86 velocity=0 time=0.0025201614583333335
EXTRACT: pitchwheel channel=3 pitch=-2883 time=0.030241937500000003
EXTRACT: pitchwheel channel=3 pitch=-3414 time=0.07308468229166667
EXTRACT: note_on channel=9 note=61 velocity=62 time=0.005040322916666667
EXTRACT: note_on channel=9 note=82 velocity=66 time=0
EXTRACT: note_on channel=8 note=84 velocity=102 time=0.0025201614583333335
EXTRACT: note_on channel=8 note=91 velocity=89 time=0
EXTRACT: note_on channel=9 note=35 velocity=85 time=0.0025201614583333335
EXTRACT: note_on channel=9 note=86 velocity=102 time=0
EXTRACT: note_on channel=12 note=23 velocity=85 time=0
EXTRACT: note_on channel=9 note=82 velocity=0 time=0.005040322916666667
EXTRACT: note_on channel=9 note=61 velocity=0 time=0
EXTRACT: note_on channel=9 note=86 velocity=0 time=0.005040322916666667
EXTRACT: note_on channel=9 note=35 velocity=0 time=0
EXTRACT: note_on channel=12 note=23 velocity=0 time=0.022681453125
EXTRACT: pitchwheel channel=3 pitch=-4021 time=0.010080645833333334
EXTRACT: note_on channel=8 note=84 velocity=0 time=0.012600807291666667
EXTRACT: note_on channel=8 note=91 velocity=0 time=0.015120968750000002
EXTRACT: pitchwheel channel=3 pitch=-4552 time=0.027721776041666667
EXTRACT: note_on channel=2 note=49 velocity=0 time=0.007560484375000001
EXTRACT: note_on channel=13 note=49 velocity=0 time=0
EXTRACT: note_on channel=1 note=37 velocity=0 time=0
EXTRACT: note_on channel=1 note=36 velocity=96 time=0.007560484375000001
EXTRACT: note_on channel=2 note=48 velocity=102 time=0
EXTRACT: note_on channel=13 note=48 velocity=90 time=0
EXTRACT: note_on channel=9 note=46 velocity=60 time=0.0025201614583333335
EXTRACT: note_on channel=9 note=61 velocity=85 time=0
EXTRACT: note_on channel=9 note=82 velocity=46 time=0
EXTRACT: note_on channel=9 note=35 velocity=85 time=0.005040322916666667
EXTRACT: note_on channel=12 note=23 velocity=85 time=0
EXTRACT: note_on channel=9 note=82 velocity=0 time=0.005040322916666667
EXTRACT: note_on channel=9 note=61 velocity=0 time=0
EXTRACT: note_on channel=9 note=46 velocity=0 time=0
EXTRACT: note_on channel=9 note=35 velocity=0 time=0.005040322916666667
EXTRACT: pitchwheel channel=3 pitch=-5234 time=0.020161291666666668
EXTRACT: note_on channel=12 note=23 velocity=0 time=0.0025201614583333335
EXTRACT: pitchwheel channel=3 pitch=-5917 time=0.068044359375
EXTRACT: note_on channel=9 note=86 velocity=107 time=0.007560484375000001
EXTRACT: note_on channel=8 note=91 velocity=89 time=0.007560484375000001
EXTRACT: note_on channel=9 note=82 velocity=58 time=0
EXTRACT: note_on channel=9 note=86 velocity=0 time=0.0025201614583333335
EXTRACT: note_on channel=8 note=84 velocity=98 time=0
EXTRACT: note_on channel=9 note=82 velocity=0 time=0.007560484375000001
EXTRACT: pitchwheel channel=3 pitch=-6448 time=0.010080645833333334
EXTRACT: note_on channel=8 note=84 velocity=0 time=0.027721776041666667
EXTRACT: note_on channel=8 note=91 velocity=0 time=0.005040322916666667
EXTRACT: pitchwheel channel=3 pitch=-6979 time=0.005040322916666667
EXTRACT: pitchwheel channel=3 pitch=-7510 time=0.03528226041666667
EXTRACT: note_on channel=9 note=40 velocity=120 time=0.027721776041666667
EXTRACT: note_on channel=9 note=61 velocity=72 time=0
EXTRACT: note_on channel=9 note=82 velocity=58 time=0
EXTRACT: note_on channel=8 note=91 velocity=93 time=0.0025201614583333335
EXTRACT: note_on channel=8 note=84 velocity=93 time=0.0025201614583333335
EXTRACT: note_on channel=9 note=82 velocity=0 time=0.005040322916666667
EXTRACT: note_on channel=9 note=61 velocity=0 time=0
EXTRACT: note_on channel=9 note=40 velocity=0 time=0
EXTRACT: note_on channel=13 note=48 velocity=0 time=0.0025201614583333335
EXTRACT: note_on channel=2 note=48 velocity=0 time=0
EXTRACT: note_on channel=1 note=36 velocity=0 time=0
EXTRACT: note_on channel=1 note=32 velocity=101 time=0.007560484375000001
EXTRACT: note_on channel=2 note=44 velocity=107 time=0
EXTRACT: note_on channel=13 note=44 velocity=95 time=0
EXTRACT: pitchwheel channel=3 pitch=-8117 time=0.005040322916666667
EXTRACT: note_on channel=3 note=69 velocity=0 time=0.07812500520833333
EXTRACT: note_on channel=9 note=61 velocity=60 time=0.017641130208333335
EXTRACT: note_on channel=9 note=82 velocity=58 time=0
EXTRACT: note_on channel=9 note=82 velocity=0 time=0.010080645833333334
EXTRACT: note_on channel=9 note=61 velocity=0 time=0
EXTRACT: pitchwheel channel=3 pitch=0 time=0.09324597395833334
EXTRACT: note_on channel=13 note=44 velocity=0 time=0.015120968750000002
EXTRACT: note_on channel=1 note=32 velocity=0 time=0
EXTRACT: note_on channel=2 note=44 velocity=0 time=0
EXTRACT: note_on channel=9 note=42 velocity=56 time=0.0025201614583333335
EXTRACT: note_on channel=9 note=82 velocity=50 time=0
EXTRACT: note_on channel=1 note=24 velocity=91 time=0.005040322916666667
EXTRACT: note_on channel=2 note=36 velocity=97 time=0
EXTRACT: note_on channel=9 note=35 velocity=89 time=0
EXTRACT: note_on channel=12 note=23 velocity=89 time=0
EXTRACT: note_on channel=13 note=36 velocity=85 time=0
EXTRACT: note_on channel=9 note=82 velocity=0 time=0.005040322916666667
EXTRACT: note_on channel=9 note=42 velocity=0 time=0
EXTRACT: note_on channel=9 note=86 velocity=102 time=0.0025201614583333335
EXTRACT: note_on channel=9 note=35 velocity=0 time=0.0025201614583333335
EXTRACT: note_on channel=9 note=86 velocity=0 time=0.007560484375000001
EXTRACT: note_on channel=12 note=23 velocity=0 time=0.015120968750000002
EXTRACT: note_on channel=9 note=61 velocity=68 time=0.08316532812500001
EXTRACT: note_on channel=9 note=82 velocity=54 time=0
EXTRACT: note_on channel=9 note=82 velocity=0 time=0.010080645833333334
EXTRACT: note_on channel=9 note=61 velocity=0 time=0
EXTRACT: note_on channel=9 note=86 velocity=89 time=0.005040322916666667
EXTRACT: note_on channel=9 note=86 velocity=0 time=0.010080645833333334
EXTRACT: note_on channel=1 note=28 velocity=96 time=0.09324597395833334
EXTRACT: note_on channel=2 note=40 velocity=102 time=0
EXTRACT: note_on channel=13 note=40 velocity=90 time=0
EXTRACT: note_on channel=9 note=82 velocity=66 time=0.0025201614583333335
EXTRACT: note_on channel=9 note=35 velocity=102 time=0.005040322916666667
EXTRACT: note_on channel=12 note=23 velocity=102 time=0
EXTRACT: note_on channel=9 note=86 velocity=102 time=0.0025201614583333335
EXTRACT: note_on channel=9 note=82 velocity=0 time=0.0025201614583333335
EXTRACT: note_on channel=3 note=69 velocity=114 time=0
EXTRACT: note_on channel=9 note=35 velocity=0 time=0.005040322916666667
EXTRACT: note_on channel=9 note=86 velocity=0 time=0.0025201614583333335
EXTRACT: note_on channel=1 note=24 velocity=0 time=0.005040322916666667
EXTRACT: note_on channel=13 note=36 velocity=0 time=0
EXTRACT: note_on channel=2 note=36 velocity=0 time=0
EXTRACT: note_on channel=12 note=23 velocity=0 time=0.015120968750000002
EXTRACT: note_on channel=3 note=69 velocity=0 time=0.005040322916666667
EXTRACT: note_on channel=9 note=61 velocity=60 time=0.07812500520833333
EXTRACT: note_on channel=9 note=82 velocity=79 time=0
EXTRACT: note_on channel=9 note=82 velocity=0 time=0.010080645833333334
EXTRACT: note_on channel=9 note=61 velocity=0 time=0
EXTRACT: note_on channel=9 note=86 velocity=107 time=0
EXTRACT: note_on channel=3 note=69 velocity=94 time=0.005040322916666667
EXTRACT: note_on channel=9 note=86 velocity=0 time=0.005040322916666667
EXTRACT: note_on channel=3 note=69 velocity=0 time=0.027721776041666667
EXTRACT: note_on channel=9 note=46 velocity=60 time=0.07308468229166667
EXTRACT: note_on channel=9 note=61 velocity=72 time=0
EXTRACT: note_on channel=9 note=82 velocity=50 time=0
EXTRACT: note_on channel=9 note=82 velocity=0 time=0.010080645833333334
EXTRACT: note_on channel=9 note=61 velocity=0 time=0
EXTRACT: note_on channel=9 note=46 velocity=0 time=0
EXTRACT: note_on channel=3 note=69 velocity=107 time=0.005040322916666667
EXTRACT: note_on channel=3 note=69 velocity=0 time=0.03276209895833333
EXTRACT: note_on channel=9 note=82 velocity=56 time=0.07308468229166667
EXTRACT: note_on channel=9 note=86 velocity=107 time=0.005040322916666667
EXTRACT: note_on channel=9 note=82 velocity=0 time=0.005040322916666667
EXTRACT: note_on channel=9 note=86 velocity=0 time=0.005040322916666667
EXTRACT: note_on channel=3 note=69 velocity=87 time=0.007560484375000001
EXTRACT: note_on channel=3 note=69 velocity=0 time=0.03276209895833333
EXTRACT: note_on channel=8 note=91 velocity=0 time=0.037802421875
EXTRACT: note_on channel=8 note=84 velocity=0 time=0.0025201614583333335
EXTRACT: note_on channel=9 note=61 velocity=80 time=0.025201614583333334
EXTRACT: note_on channel=9 note=82 velocity=66 time=0
EXTRACT: note_on channel=1 note=31 velocity=96 time=0.0025201614583333335
EXTRACT: note_on channel=2 note=43 velocity=102 time=0
EXTRACT: note_on channel=3 note=69 velocity=102 time=0
EXTRACT: note_on channel=9 note=40 velocity=120 time=0
EXTRACT: note_on channel=13 note=43 velocity=90 time=0
EXTRACT: note_on channel=1 note=28 velocity=0 time=0.005040322916666667
EXTRACT: note_on channel=13 note=40 velocity=0 time=0
EXTRACT: note_on channel=2 note=40 velocity=0 time=0
EXTRACT: note_on channel=9 note=61 velocity=0 time=0.0025201614583333335
EXTRACT: note_on channel=9 note=82 velocity=0 time=0
EXTRACT: note_on channel=9 note=40 velocity=0 time=0.0025201614583333335
EXTRACT: note_on channel=9 note=61 velocity=60 time=0.10836694270833334
EXTRACT: note_on channel=9 note=82 velocity=70 time=0
EXTRACT: note_on channel=9 note=82 velocity=0 time=0.010080645833333334
EXTRACT: note_on channel=9 note=61 velocity=0 time=0
EXTRACT: note_on channel=9 note=42 velocity=52 time=0.11088710416666667
EXTRACT: note_on channel=9 note=61 velocity=55 time=0
EXTRACT: note_on channel=9 note=82 velocity=41 time=0
EXTRACT: note_on channel=9 note=86 velocity=107 time=0.005040322916666667
EXTRACT: note_on channel=9 note=82 velocity=0 time=0.005040322916666667
EXTRACT: note_on channel=9 note=61 velocity=0 time=0
EXTRACT: note_on channel=9 note=42 velocity=0 time=0
EXTRACT: note_on channel=9 note=86 velocity=0 time=0.005040322916666667
EXTRACT: pitchwheel channel=3 pitch=-456 time=0.020161291666666668
EXTRACT: pitchwheel channel=3 pitch=-911 time=0.07056452083333334
EXTRACT: note_on channel=1 note=37 velocity=100 time=0.0025201614583333335
EXTRACT: note_on channel=2 note=49 velocity=106 time=0
EXTRACT: note_on channel=13 note=49 velocity=94 time=0
EXTRACT: note_on channel=8 note=84 velocity=93 time=0.007560484375000001
EXTRACT: note_on channel=8 note=91 velocity=89 time=0
EXTRACT: note_on channel=1 note=31 velocity=0 time=0.005040322916666667
EXTRACT: note_on channel=2 note=43 velocity=0 time=0
EXTRACT: note_on channel=13 note=43 velocity=0 time=0
EXTRACT: note_on channel=9 note=35 velocity=72 time=0
EXTRACT: note_on channel=9 note=61 velocity=68 time=0
EXTRACT: note_on channel=9 note=82 velocity=58 time=0
EXTRACT: note_on channel=9 note=86 velocity=76 time=0
EXTRACT: note_on channel=12 note=23 velocity=72 time=0
EXTRACT: note_on channel=9 note=86 velocity=0 time=0.010080645833333334
EXTRACT: note_on channel=9 note=82 velocity=0 time=0
EXTRACT: note_on channel=9 note=35 velocity=0 time=0
EXTRACT: note_on channel=9 note=61 velocity=0 time=0
EXTRACT: note_on channel=12 note=23 velocity=0 time=0.022681453125
EXTRACT: note_on channel=8 note=84 velocity=0 time=0.022681453125
EXTRACT: pitchwheel channel=3 pitch=-1366 time=0.0025201614583333335
EXTRACT: note_on channel=8 note=91 velocity=0 time=0.012600807291666667
EXTRACT: note_on channel=9 note=86 velocity=113 time=0.04536290625
EXTRACT: note_on channel=9 note=82 velocity=56 time=0.005040322916666667
EXTRACT: note_on channel=9 note=86 velocity=0 time=0.005040322916666667
EXTRACT: pitchwheel channel=3 pitch=-1897 time=0.0025201614583333335
EXTRACT: note_on channel=9 note=82 velocity=0 time=0.0025201614583333335
EXTRACT: pitchwheel channel=3 pitch=-2504 time=0.07056452083333334
EXTRACT: note_on channel=8 note=84 velocity=89 time=0.037802421875
EXTRACT: note_on channel=8 note=91 velocity=89 time=0
EXTRACT: note_on channel=9 note=35 velocity=102 time=0
EXTRACT: note_on channel=12 note=23 velocity=102 time=0
EXTRACT: note_on channel=9 note=61 velocity=60 time=0.0025201614583333335
EXTRACT: note_on channel=9 note=82 velocity=56 time=0
EXTRACT: note_on channel=9 note=86 velocity=107 time=0
EXTRACT: note_on channel=9 note=35 velocity=0 time=0.007560484375000001
EXTRACT: note_on channel=9 note=61 velocity=0 time=0.0025201614583333335
EXTRACT: note_on channel=9 note=86 velocity=0 time=0
EXTRACT: note_on channel=9 note=82 velocity=0 time=0
EXTRACT: pitchwheel channel=3 pitch=-3035 time=0.0025201614583333335
EXTRACT: note_on channel=12 note=23 velocity=0 time=0.017641130208333335
EXTRACT: note_on channel=8 note=84 velocity=0 time=0.022681453125
EXTRACT: note_on channel=8 note=91 velocity=0 time=0.015120968750000002
EXTRACT: pitchwheel channel=3 pitch=-3490 time=0.015120968750000002
EXTRACT: note_on channel=1 note=37 velocity=0 time=0.037802421875
EXTRACT: note_on channel=13 note=49 velocity=0 time=0
EXTRACT: note_on channel=2 note=49 velocity=0 time=0
EXTRACT: note_on channel=9 note=35 velocity=98 time=0
EXTRACT: note_on channel=9 note=46 velocity=60 time=0
EXTRACT: note_on channel=9 note=61 velocity=80 time=0
EXTRACT: note_on channel=9 note=82 velocity=51 time=0
EXTRACT: note_on channel=12 note=23 velocity=98 time=0
EXTRACT: note_on channel=1 note=36 velocity=107 time=0.0025201614583333335
EXTRACT: note_on channel=2 note=48 velocity=113 time=0
EXTRACT: note_on channel=13 note=48 velocity=101 time=0
EXTRACT: note_on channel=9 note=82 velocity=0 time=0.007560484375000001
EXTRACT: note_on channel=9 note=61 velocity=0 time=0
EXTRACT: note_on channel=9 note=46 velocity=0 time=0
EXTRACT: note_on channel=9 note=35 velocity=0 time=0
EXTRACT: pitchwheel channel=3 pitch=-3945 time=0.007560484375000001
EXTRACT: note_on channel=12 note=23 velocity=0 time=0.015120968750000002
EXTRACT: pitchwheel channel=3 pitch=-4476 time=0.037802421875
EXTRACT: note_on channel=8 note=91 velocity=89 time=0.04536290625
EXTRACT: note_on channel=8 note=84 velocity=93 time=0.0025201614583333335
EXTRACT: note_on channel=9 note=86 velocity=113 time=0
EXTRACT: note_on channel=9 note=61 velocity=56 time=0.0025201614583333335
EXTRACT: note_on channel=9 note=82 velocity=49 time=0
EXTRACT: note_on channel=9 note=86 velocity=0 time=0.007560484375000001
EXTRACT: note_on channel=9 note=82 velocity=0 time=0.0025201614583333335
EXTRACT: note_on channel=9 note=61 velocity=0 time=0
EXTRACT: pitchwheel channel=3 pitch=-5083 time=0.012600807291666667
EXTRACT: note_on channel=8 note=84 velocity=0 time=0.020161291666666668
EXTRACT: note_on channel=8 note=91 velocity=0 time=0.010080645833333334
EXTRACT: pitchwheel channel=3 pitch=-5538 time=0.022681453125
EXTRACT: note_on channel=8 note=91 velocity=89 time=0.04536290625
EXTRACT: note_on channel=9 note=40 velocity=120 time=0
EXTRACT: note_on channel=9 note=61 velocity=72 time=0
EXTRACT: note_on channel=9 note=82 velocity=53 time=0
EXTRACT: note_on channel=13 note=48 velocity=0 time=0.0025201614583333335
EXTRACT: note_on channel=2 note=48 velocity=0 time=0
EXTRACT: note_on channel=1 note=36 velocity=0 time=0
EXTRACT: note_on channel=8 note=84 velocity=93 time=0
EXTRACT: note_on channel=1 note=31 velocity=101 time=0.0025201614583333335
EXTRACT: note_on channel=2 note=43 velocity=107 time=0
EXTRACT: note_on channel=13 note=43 velocity=95 time=0
EXTRACT: note_on channel=9 note=40 velocity=0 time=0.005040322916666667
EXTRACT: note_on channel=9 note=82 velocity=0 time=0
EXTRACT: note_on channel=9 note=61 velocity=0 time=0
EXTRACT: pitchwheel channel=3 pitch=-6296 time=0.017641130208333335
EXTRACT: pitchwheel channel=3 pitch=-6979 time=0.03528226041666667
EXTRACT: pitchwheel channel=3 pitch=-8074 time=0.03276209895833333
EXTRACT: note_on channel=9 note=61 velocity=60 time=0.025201614583333334
EXTRACT: note_on channel=9 note=82 velocity=83 time=0
EXTRACT: note_on channel=9 note=82 velocity=0 time=0.010080645833333334
EXTRACT: note_on channel=9 note=61 velocity=0 time=0
EXTRACT: note_on channel=1 note=31 velocity=0 time=0.08316532812500001
EXTRACT: note_on channel=13 note=43 velocity=0 time=0
EXTRACT: note_on channel=2 note=43 velocity=0 time=0
EXTRACT: note_on channel=3 note=69 velocity=0 time=0.010080645833333334
EXTRACT: note_on channel=1 note=28 velocity=96 time=0.012600807291666667
EXTRACT: note_on channel=2 note=40 velocity=102 time=0
EXTRACT: note_on channel=13 note=40 velocity=90 time=0
EXTRACT: note_on channel=9 note=42 velocity=47 time=0.005040322916666667
EXTRACT: note_on channel=9 note=61 velocity=60 time=0
EXTRACT: note_on channel=9 note=82 velocity=50 time=0
EXTRACT: note_on channel=9 note=86 velocity=107 time=0.0025201614583333335
EXTRACT: note_on channel=9 note=35 velocity=85 time=0.005040322916666667
EXTRACT: note_on channel=12 note=23 velocity=85 time=0
EXTRACT: note_on channel=9 note=82 velocity=0 time=0.0025201614583333335
EXTRACT: note_on channel=9 note=61 velocity=0 time=0
EXTRACT: note_on channel=9 note=42 velocity=0 time=0
EXTRACT: note_on channel=9 note=86 velocity=0 time=0.0025201614583333335
EXTRACT: note_on channel=9 note=35 velocity=0 time=0.005040322916666667
EXTRACT: note_on channel=12 note=23 velocity=0 time=0.022681453125
EXTRACT: note_on channel=9 note=61 velocity=80 time=0.08064516666666667
EXTRACT: note_on channel=9 note=82 velocity=56 time=0
EXTRACT: note_on channel=9 note=86 velocity=85 time=0.0025201614583333335
EXTRACT: pitchwheel channel=3 pitch=0 time=0.0025201614583333335
EXTRACT: note_on channel=9 note=82 velocity=0 time=0.005040322916666667
EXTRACT: note_on channel=9 note=61 velocity=0 time=0
EXTRACT: note_on channel=9 note=86 velocity=0 time=0.0025201614583333335
EXTRACT: note_on channel=9 note=86 velocity=107 time=0.10080645833333333
EXTRACT: note_on channel=3 note=69 velocity=106 time=0.0025201614583333335
EXTRACT: note_on channel=13 note=40 velocity=0 time=0.0025201614583333335
EXTRACT: note_on channel=2 note=40 velocity=0 time=0
EXTRACT: note_on channel=1 note=28 velocity=0 time=0
EXTRACT: note_on channel=1 note=29 velocity=107 time=0.0025201614583333335
EXTRACT: note_on channel=2 note=41 velocity=113 time=0
EXTRACT: note_on channel=9 note=82 velocity=58 time=0
EXTRACT: note_on channel=13 note=41 velocity=101 time=0
EXTRACT: note_on channel=9 note=86 velocity=0 time=0.0025201614583333335
EXTRACT: note_on channel=9 note=35 velocity=107 time=0.0025201614583333335
EXTRACT: note_on channel=12 note=23 velocity=107 time=0
EXTRACT: note_on channel=9 note=82 velocity=0 time=0.005040322916666667
EXTRACT: note_on channel=9 note=35 velocity=0 time=0.005040322916666667
EXTRACT: note_on channel=3 note=69 velocity=0 time=0.012600807291666667
EXTRACT: note_on channel=12 note=23 velocity=0 time=0.010080645833333334
EXTRACT: note_on channel=3 note=69 velocity=95 time=0.07560484375
EXTRACT: note_on channel=9 note=86 velocity=113 time=0.005040322916666667
EXTRACT: note_on channel=9 note=61 velocity=59 time=0.0025201614583333335
EXTRACT: note_on channel=9 note=82 velocity=66 time=0
EXTRACT: note_on channel=9 note=86 velocity=0 time=0.007560484375000001
EXTRACT: note_on channel=9 note=82 velocity=0 time=0.0025201614583333335
EXTRACT: note_on channel=9 note=61 velocity=0 time=0
EXTRACT: note_on channel=3 note=69 velocity=0 time=0.015120968750000002
EXTRACT: note_on channel=3 note=69 velocity=102 time=0.08064516666666667
EXTRACT: note_on channel=9 note=46 velocity=60 time=0.015120968750000002
EXTRACT: note_on channel=9 note=61 velocity=72 time=0
EXTRACT: note_on channel=9 note=82 velocity=50 time=0
EXTRACT: note_on channel=9 note=82 velocity=0 time=0.010080645833333334
EXTRACT: note_on channel=9 note=61 velocity=0 time=0
EXTRACT: note_on channel=9 note=46 velocity=0 time=0
EXTRACT: note_on channel=3 note=69 velocity=0 time=0.007560484375000001
EXTRACT: note_on channel=3 note=69 velocity=88 time=0.08064516666666667
EXTRACT: note_on channel=9 note=82 velocity=66 time=0.022681453125
EXTRACT: note_on channel=9 note=82 velocity=0 time=0.010080645833333334
EXTRACT: note_on channel=3 note=69 velocity=0 time=0
EXTRACT: note_on channel=2 note=41 velocity=0 time=0.098286296875
EXTRACT: note_on channel=1 note=29 velocity=0 time=0
EXTRACT: note_on channel=13 note=41 velocity=0 time=0
EXTRACT: note_on channel=3 note=69 velocity=98 time=0.005040322916666667
EXTRACT: note_on channel=1 note=32 velocity=101 time=0.005040322916666667
EXTRACT: note_on channel=2 note=44 velocity=107 time=0
EXTRACT: note_on channel=13 note=44 velocity=95 time=0
EXTRACT: note_on channel=9 note=61 velocity=62 time=0.0025201614583333335
EXTRACT: note_on channel=9 note=82 velocity=56 time=0
EXTRACT: note_on channel=9 note=40 velocity=120 time=0.005040322916666667
EXTRACT: note_on channel=9 note=82 velocity=0 time=0.005040322916666667
EXTRACT: note_on channel=9 note=61 velocity=0 time=0
EXTRACT: note_on channel=9 note=40 velocity=0 time=0.005040322916666667
EXTRACT: note_on channel=8 note=91 velocity=0 time=0.05544355208333333
EXTRACT: note_on channel=8 note=84 velocity=0 time=0.005040322916666667
EXTRACT: note_on channel=9 note=61 velocity=62 time=0.04536290625
EXTRACT: note_on channel=9 note=82 velocity=74 time=0
EXTRACT: note_on channel=9 note=82 velocity=0 time=0.010080645833333334
EXTRACT: note_on channel=9 note=61 velocity=0 time=0
EXTRACT: pitchwheel channel=3 pitch=-380 time=0.09324597395833334
EXTRACT: note_on channel=9 note=86 velocity=113 time=0.007560484375000001
EXTRACT: note_on channel=9 note=86 velocity=0 time=0.010080645833333334
EXTRACT: note_on channel=9 note=42 velocity=50 time=0
EXTRACT: note_on channel=9 note=61 velocity=56 time=0
EXTRACT: note_on channel=9 note=82 velocity=56 time=0
EXTRACT: note_on channel=9 note=82 velocity=0 time=0.010080645833333334
EXTRACT: note_on channel=9 note=42 velocity=0 time=0
EXTRACT: note_on channel=9 note=61 velocity=0 time=0
EXTRACT: pitchwheel channel=3 pitch=-835 time=0.027721776041666667
EXTRACT: pitchwheel channel=3 pitch=-1290 time=0.07056452083333334
EXTRACT: note_on channel=9 note=86 velocity=98 time=0
EXTRACT: note_on channel=9 note=86 velocity=0 time=0.010080645833333334
EXTRACT: note_on channel=1 note=37 velocity=107 time=0.0025201614583333335
EXTRACT: note_on channel=2 note=49 velocity=113 time=0
EXTRACT: note_on channel=9 note=61 velocity=76 time=0
EXTRACT: note_on channel=9 note=82 velocity=45 time=0
EXTRACT: note_on channel=13 note=49 velocity=101 time=0
EXTRACT: note_on channel=2 note=44 velocity=0 time=0.005040322916666667
EXTRACT: note_on channel=1 note=32 velocity=0 time=0
EXTRACT: note_on channel=13 note=44 velocity=0 time=0
EXTRACT: note_on channel=8 note=84 velocity=98 time=0.0025201614583333335
EXTRACT: note_on channel=8 note=91 velocity=89 time=0
EXTRACT: note_on channel=9 note=35 velocity=98 time=0
EXTRACT: note_on channel=12 note=23 velocity=98 time=0
EXTRACT: note_on channel=9 note=82 velocity=0 time=0.0025201614583333335
EXTRACT: note_on channel=9 note=61 velocity=0 time=0
EXTRACT: note_on channel=9 note=35 velocity=0 time=0.007560484375000001
EXTRACT: note_on channel=12 note=23 velocity=0 time=0.022681453125
EXTRACT: pitchwheel channel=3 pitch=-1973 time=0.017641130208333335
EXTRACT: note_on channel=8 note=84 velocity=0 time=0.0025201614583333335
EXTRACT: note_on channel=8 note=91 velocity=0 time=0.015120968750000002
EXTRACT: note_on channel=9 note=86 velocity=102 time=0.03276209895833333
EXTRACT: note_on channel=9 note=86 velocity=0 time=0.010080645833333334
EXTRACT: note_on channel=9 note=82 velocity=56 time=0.0025201614583333335
EXTRACT: note_on channel=9 note=82 velocity=0 time=0.010080645833333334
EXTRACT: pitchwheel channel=3 pitch=-2504 time=0
EXTRACT: pitchwheel channel=3 pitch=-3035 time=0.08820565104166667
EXTRACT: note_on channel=9 note=86 velocity=98 time=0.015120968750000002
EXTRACT: note_on channel=9 note=61 velocity=60 time=0.007560484375000001
EXTRACT: note_on channel=9 note=82 velocity=56 time=0
EXTRACT: note_on channel=9 note=86 velocity=0 time=0.0025201614583333335
EXTRACT: note_on channel=8 note=84 velocity=89 time=0
EXTRACT: note_on channel=8 note=91 velocity=89 time=0
EXTRACT: note_on channel=9 note=35 velocity=85 time=0
EXTRACT: note_on channel=12 note=23 velocity=85 time=0
EXTRACT: note_on channel=9 note=61 velocity=0 time=0.007560484375000001
EXTRACT: note_on channel=9 note=82 velocity=0 time=0
EXTRACT: note_on channel=9 note=35 velocity=0 time=0.0025201614583333335
EXTRACT: note_on channel=12 note=23 velocity=0 time=0.022681453125
EXTRACT: note_on channel=8 note=84 velocity=0 time=0.020161291666666668
EXTRACT: pitchwheel channel=3 pitch=-3566 time=0.012600807291666667
EXTRACT: note_on channel=8 note=91 velocity=0 time=0.010080645833333334
EXTRACT: note_on channel=13 note=49 velocity=0 time=0.03276209895833333
EXTRACT: note_on channel=1 note=37 velocity=0 time=0
EXTRACT: note_on channel=2 note=49 velocity=0 time=0
EXTRACT: note_on channel=1 note=36 velocity=96 time=0.007560484375000001
EXTRACT: note_on channel=2 note=48 velocity=102 time=0
EXTRACT: note_on channel=13 note=48 velocity=90 time=0
EXTRACT: note_on channel=9 note=46 velocity=60 time=0.0025201614583333335
EXTRACT: note_on channel=9 note=61 velocity=56 time=0
EXTRACT: note_on channel=9 note=82 velocity=50 time=0
EXTRACT: note_on channel=9 note=35 velocity=93 time=0.0025201614583333335
EXTRACT: note_on channel=12 note=23 velocity=93 time=0
EXTRACT: note_on channel=9 note=82 velocity=0 time=0.007560484375000001
EXTRACT: note_on channel=9 note=61 velocity=0 time=0
EXTRACT: note_on channel=9 note=46 velocity=0 time=0
EXTRACT: note_on channel=9 note=35 velocity=0 time=0.0025201614583333335
EXTRACT: note_on channel=12 note=23 velocity=0 time=0.022681453125
EXTRACT: pitchwheel channel=3 pitch=-4021 time=0.0025201614583333335
EXTRACT: pitchwheel channel=3 pitch=-4476 time=0.07056452083333334
EXTRACT: note_on channel=8 note=91 velocity=89 time=0.007560484375000001
EXTRACT: note_on channel=8 note=84 velocity=93 time=0.0025201614583333335
EXTRACT: note_on channel=9 note=82 velocity=62 time=0.0025201614583333335
EXTRACT: note_on channel=9 note=82 velocity=0 time=0.010080645833333334
EXTRACT: pitchwheel channel=3 pitch=-4931 time=0.03276209895833333
EXTRACT: note_on channel=8 note=84 velocity=0 time=0.007560484375000001
EXTRACT: note_on channel=8 note=91 velocity=0 time=0.0025201614583333335
EXTRACT: pitchwheel channel=3 pitch=-5386 time=0.04284274479166667
EXTRACT: note_on channel=9 note=40 velocity=120 time=0.022681453125
EXTRACT: note_on channel=9 note=61 velocity=72 time=0.0025201614583333335
EXTRACT: note_on channel=9 note=82 velocity=50 time=0
EXTRACT: note_on channel=8 note=84 velocity=93 time=0.0025201614583333335
EXTRACT: note_on channel=8 note=91 velocity=89 time=0
EXTRACT: note_on channel=9 note=40 velocity=0 time=0.005040322916666667
EXTRACT: note_on channel=9 note=82 velocity=0 time=0.0025201614583333335
EXTRACT: note_on channel=9 note=61 velocity=0 time=0
EXTRACT: note_on channel=13 note=48 velocity=0 time=0.0025201614583333335
EXTRACT: note_on channel=2 note=48 velocity=0 time=0
EXTRACT: note_on channel=1 note=36 velocity=0 time=0
EXTRACT: note_on channel=1 note=32 velocity=101 time=0.007560484375000001
EXTRACT: note_on channel=2 note=44 velocity=107 time=0
EXTRACT: note_on channel=13 note=44 velocity=95 time=0
EXTRACT: pitchwheel channel=3 pitch=-5841 time=0.007560484375000001
EXTRACT: pitchwheel channel=3 pitch=-6448 time=0.03528226041666667
EXTRACT: pitchwheel channel=3 pitch=-8079 time=0.03528226041666667
EXTRACT: note_on channel=9 note=61 velocity=60 time=0.022681453125
EXTRACT: note_on channel=9 note=82 velocity=56 time=0
EXTRACT: note_on channel=9 note=82 velocity=0 time=0.010080645833333334
EXTRACT: note_on channel=9 note=61 velocity=0 time=0
EXTRACT: note_on channel=3 note=69 velocity=0 time=0.04284274479166667
EXTRACT: note_on channel=2 note=44 velocity=0 time=0.06552419791666667
EXTRACT: note_on channel=1 note=32 velocity=0 time=0
EXTRACT: note_on channel=13 note=44 velocity=0 time=0
EXTRACT: note_on channel=9 note=42 velocity=55 time=0.0025201614583333335
EXTRACT: note_on channel=9 note=82 velocity=51 time=0
EXTRACT: note_on channel=9 note=35 velocity=93 time=0.0025201614583333335
EXTRACT: note_on channel=12 note=23 velocity=93 time=0
EXTRACT: note_on channel=1 note=24 velocity=91 time=0.0025201614583333335
EXTRACT: note_on channel=2 note=36 velocity=97 time=0
EXTRACT: note_on channel=9 note=86 velocity=107 time=0
EXTRACT: note_on channel=13 note=36 velocity=85 time=0
EXTRACT: note_on channel=9 note=82 velocity=0 time=0.005040322916666667
EXTRACT: note_on channel=9 note=42 velocity=0 time=0
EXTRACT: note_on channel=9 note=35 velocity=0 time=0.0025201614583333335
EXTRACT: note_on channel=9 note=86 velocity=0 time=0.0025201614583333335
EXTRACT: note_on channel=12 note=23 velocity=0 time=0.020161291666666668
EXTRACT: pitchwheel channel=3 pitch=0 time=0.020161291666666668
EXTRACT: note_on channel=9 note=61 velocity=68 time=0.06552419791666667
EXTRACT: note_on channel=9 note=82 velocity=62 time=0
EXTRACT: note_on channel=9 note=86 velocity=76 time=0
EXTRACT: note_on channel=9 note=86 velocity=0 time=0.010080645833333334
EXTRACT: note_on channel=9 note=82 velocity=0 time=0
EXTRACT: note_on channel=9 note=61 velocity=0 time=0
EXTRACT: note_on channel=8 note=84 velocity=0 time=0.07812500520833333
EXTRACT: note_on channel=8 note=91 velocity=0 time=0
EXTRACT: note_on channel=1 note=28 velocity=96 time=0.030241937500000003
EXTRACT: note_on channel=2 note=40 velocity=102 time=0
EXTRACT: note_on channel=9 note=35 velocity=102 time=0
EXTRACT: note_on channel=9 note=86 velocity=113 time=0
EXTRACT: note_on channel=12 note=23 velocity=102 time=0
EXTRACT: note_on channel=13 note=40 velocity=90 time=0
EXTRACT: note_on channel=9 note=82 velocity=58 time=0.0025201614583333335
EXTRACT: note_on channel=9 note=86 velocity=0 time=0.007560484375000001
EXTRACT: note_on channel=9 note=35 velocity=0 time=0
EXTRACT: note_on channel=8 note=40 velocity=63 time=0
EXTRACT: note_on channel=9 note=82 velocity=0 time=0.0025201614583333335
EXTRACT: note_on channel=2 note=36 velocity=0 time=0.012600807291666667
EXTRACT: note_on channel=13 note=36 velocity=0 time=0
EXTRACT: note_on channel=1 note=24 velocity=0 time=0
EXTRACT: note_on channel=12 note=23 velocity=0 time=0.007560484375000001
EXTRACT: note_on channel=8 note=41 velocity=67 time=0.012600807291666667
EXTRACT: note_on channel=8 note=40 velocity=0 time=0.025201614583333334
EXTRACT: note_on channel=8 note=43 velocity=65 time=0.03276209895833333
EXTRACT: note_on channel=8 note=41 velocity=0 time=0.020161291666666668
EXTRACT: note_on channel=9 note=61 velocity=62 time=0
EXTRACT: note_on channel=9 note=82 velocity=56 time=0
EXTRACT: note_on channel=9 note=86 velocity=98 time=0.005040322916666667
EXTRACT: note_on channel=9 note=82 velocity=0 time=0.005040322916666667
EXTRACT: note_on channel=9 note=61 velocity=0 time=0
EXTRACT: note_on channel=9 note=86 velocity=0 time=0.005040322916666667
EXTRACT: note_on channel=8 note=45 velocity=63 time=0.025201614583333334
EXTRACT: note_on channel=8 note=43 velocity=0 time=0.020161291666666668
EXTRACT: note_on channel=8 note=47 velocity=61 time=0.05040322916666667
EXTRACT: note_on channel=9 note=46 velocity=60 time=0.010080645833333334
EXTRACT: note_on channel=9 note=61 velocity=76 time=0
EXTRACT: note_on channel=9 note=82 velocity=58 time=0
EXTRACT: note_on channel=8 note=45 velocity=0 time=0.007560484375000001
EXTRACT: note_on channel=9 note=82 velocity=0 time=0.0025201614583333335
EXTRACT: note_on channel=9 note=46 velocity=0 time=0
EXTRACT: note_on channel=9 note=61 velocity=0 time=0
EXTRACT: note_on channel=8 note=48 velocity=59 time=0.05544355208333333
EXTRACT: note_on channel=8 note=47 velocity=0 time=0.005040322916666667
EXTRACT: note_on channel=9 note=82 velocity=54 time=0.05040322916666667
EXTRACT: note_on channel=9 note=82 velocity=0 time=0.010080645833333334
EXTRACT: note_on channel=8 note=50 velocity=57 time=0
EXTRACT: note_on channel=8 note=48 velocity=0 time=0.007560484375000001
EXTRACT: note_on channel=8 note=50 velocity=0 time=0.05544355208333333
EXTRACT: note_on channel=8 note=52 velocity=55 time=0
EXTRACT: note_on channel=9 note=40 velocity=120 time=0.04536290625
EXTRACT: note_on channel=9 note=61 velocity=76 time=0.0025201614583333335
EXTRACT: note_on channel=9 note=82 velocity=58 time=0
EXTRACT: note_on channel=1 note=31 velocity=96 time=0.0025201614583333335
EXTRACT: note_on channel=2 note=43 velocity=102 time=0
EXTRACT: note_on channel=13 note=43 velocity=90 time=0
EXTRACT: note_on channel=9 note=40 velocity=0 time=0.005040322916666667
EXTRACT: note_on channel=2 note=40 velocity=0 time=0
EXTRACT: note_on channel=13 note=40 velocity=0 time=0
EXTRACT: note_on channel=1 note=28 velocity=0 time=0
EXTRACT: note_on channel=9 note=82 velocity=0 time=0.0025201614583333335
EXTRACT: note_on channel=9 note=61 velocity=0 time=0
EXTRACT: note_on channel=8 note=52 velocity=0 time=0.007560484375000001
EXTRACT: note_on channel=8 note=36 velocity=56 time=0.015120968750000002
EXTRACT: note_on channel=8 note=38 velocity=57 time=0.03528226041666667
EXTRACT: note_on channel=8 note=36 velocity=0 time=0.022681453125
EXTRACT: note_on channel=8 note=40 velocity=59 time=0.025201614583333334
EXTRACT: note_on channel=9 note=61 velocity=72 time=0.005040322916666667
EXTRACT: note_on channel=9 note=82 velocity=62 time=0
EXTRACT: note_on channel=9 note=82 velocity=0 time=0.010080645833333334
EXTRACT: note_on channel=9 note=61 velocity=0 time=0
EXTRACT: note_on channel=8 note=38 velocity=0 time=0.005040322916666667
EXTRACT: note_on channel=8 note=41 velocity=60 time=0.017641130208333335
EXTRACT: note_on channel=8 note=40 velocity=0 time=0.025201614583333334
EXTRACT: note_on channel=8 note=43 velocity=62 time=0.017641130208333335
EXTRACT: note_on channel=8 note=41 velocity=0 time=0.020161291666666668
EXTRACT: note_on channel=8 note=45 velocity=63 time=0.020161291666666668
EXTRACT: note_on channel=9 note=35 velocity=85 time=0.0025201614583333335
EXTRACT: note_on channel=9 note=86 velocity=102 time=0
EXTRACT: note_on channel=12 note=23 velocity=85 time=0
EXTRACT: note_on channel=9 note=42 velocity=52 time=0.0025201614583333335
EXTRACT: note_on channel=9 note=61 velocity=51 time=0
EXTRACT: note_on channel=9 note=82 velocity=47 time=0
EXTRACT: note_on channel=9 note=86 velocity=0 time=0.007560484375000001
EXTRACT: note_on channel=9 note=35 velocity=0 time=0
EXTRACT: note_on channel=9 note=82 velocity=0 time=0.0025201614583333335
EXTRACT: note_on channel=9 note=61 velocity=0 time=0
EXTRACT: note_on channel=9 note=42 velocity=0 time=0
EXTRACT: note_on channel=8 note=43 velocity=0 time=0.005040322916666667
EXTRACT: note_on channel=12 note=23 velocity=0 time=0.015120968750000002
EXTRACT: note_on channel=8 note=47 velocity=65 time=0.005040322916666667
EXTRACT: note_on channel=8 note=45 velocity=0 time=0.017641130208333335
EXTRACT: note_on channel=8 note=48 velocity=66 time=0.017641130208333335
EXTRACT: note_on channel=8 note=47 velocity=0 time=0.020161291666666668
EXTRACT: note_on channel=1 note=37 velocity=100 time=0.017641130208333335
EXTRACT: note_on channel=2 note=49 velocity=106 time=0
EXTRACT: note_on channel=9 note=86 velocity=93 time=0
EXTRACT: note_on channel=13 note=49 velocity=94 time=0
EXTRACT: note_on channel=8 note=50 velocity=67 time=0.0025201614583333335
EXTRACT: note_on channel=9 note=35 velocity=85 time=0.005040322916666667
EXTRACT: note_on channel=12 note=23 velocity=85 time=0
EXTRACT: note_on channel=9 note=86 velocity=0 time=0.0025201614583333335
EXTRACT: note_on channel=1 note=31 velocity=0 time=0.0025201614583333335
EXTRACT: note_on channel=2 note=43 velocity=0 time=0
EXTRACT: note_on channel=13 note=43 velocity=0 time=0
EXTRACT: note_on channel=9 note=61 velocity=72 time=0
EXTRACT: note_on channel=9 note=82 velocity=58 time=0
EXTRACT: note_on channel=9 note=35 velocity=0 time=0.005040322916666667
EXTRACT: note_on channel=9 note=82 velocity=0 time=0.005040322916666667
EXTRACT: note_on channel=9 note=61 velocity=0 time=0
EXTRACT: note_on channel=8 note=48 velocity=0 time=0.0025201614583333335
EXTRACT: note_on channel=12 note=23 velocity=0 time=0.015120968750000002
EXTRACT: note_on channel=8 note=52 velocity=69 time=0.005040322916666667
EXTRACT: note_on channel=8 note=50 velocity=0 time=0.020161291666666668
EXTRACT: note_on channel=8 note=53 velocity=71 time=0.030241937500000003
EXTRACT: note_on channel=8 note=52 velocity=0 time=0.017641130208333335
EXTRACT: note_on channel=9 note=86 velocity=102 time=0.010080645833333334
EXTRACT: note_on channel=9 note=86 velocity=0 time=0.010080645833333334
EXTRACT: note_on channel=8 note=55 velocity=72 time=0
EXTRACT: note_on channel=9 note=82 velocity=50 time=0
EXTRACT: note_on channel=9 note=82 velocity=0 time=0.010080645833333334
EXTRACT: note_on channel=8 note=53 velocity=0 time=0.015120968750000002
EXTRACT: note_on channel=8 note=57 velocity=74 time=0.015120968750000002
EXTRACT: note_on channel=8 note=55 velocity=0 time=0.022681453125
EXTRACT: note_on channel=8 note=59 velocity=75 time=0.017641130208333335
EXTRACT: note_on channel=8 note=57 velocity=0 time=0.020161291666666668
EXTRACT: note_on channel=9 note=86 velocity=107 time=0.010080645833333334
EXTRACT: note_on channel=8 note=60 velocity=77 time=0.007560484375000001
EXTRACT: note_on channel=9 note=86 velocity=0 time=0.0025201614583333335
EXTRACT: note_on channel=9 note=61 velocity=62 time=0
EXTRACT: note_on channel=9 note=82 velocity=66 time=0
EXTRACT: note_on channel=9 note=35 velocity=89 time=0.0025201614583333335
EXTRACT: note_on channel=12 note=23 velocity=89 time=0
EXTRACT: note_on channel=9 note=82 velocity=0 time=0.007560484375000001
EXTRACT: note_on channel=9 note=61 velocity=0 time=0
EXTRACT: note_on channel=9 note=35 velocity=0 time=0.0025201614583333335
EXTRACT: note_on channel=8 note=59 velocity=0 time=0.005040322916666667
EXTRACT: note_on channel=12 note=23 velocity=0 time=0.017641130208333335
EXTRACT: note_on channel=8 note=62 velocity=78 time=0.005040322916666667
EXTRACT: note_on channel=8 note=60 velocity=0 time=0.017641130208333335
EXTRACT: note_on channel=8 note=64 velocity=80 time=0.020161291666666668
EXTRACT: note_on channel=8 note=62 velocity=0 time=0.020161291666666668
EXTRACT: note_on channel=8 note=65 velocity=81 time=0.015120968750000002
EXTRACT: note_on channel=9 note=35 velocity=102 time=0.005040322916666667
EXTRACT: note_on channel=12 note=23 velocity=102 time=0
EXTRACT: note_on channel=1 note=37 velocity=0 time=0.0025201614583333335
EXTRACT: note_on channel=13 note=49 velocity=0 time=0
EXTRACT: note_on channel=2 note=49 velocity=0 time=0
EXTRACT: note_on channel=9 note=46 velocity=60 time=0
EXTRACT: note_on channel=9 note=61 velocity=52 time=0
EXTRACT: note_on channel=9 note=82 velocity=54 time=0
EXTRACT: note_on channel=1 note=36 velocity=107 time=0.0025201614583333335
EXTRACT: note_on channel=2 note=48 velocity=113 time=0
EXTRACT: note_on channel=13 note=48 velocity=101 time=0
EXTRACT: note_on channel=9 note=35 velocity=0 time=0.005040322916666667
EXTRACT: note_on channel=9 note=46 velocity=0 time=0.0025201614583333335
EXTRACT: note_on channel=9 note=82 velocity=0 time=0
EXTRACT: note_on channel=9 note=61 velocity=0 time=0
EXTRACT: note_on channel=8 note=64 velocity=0 time=0.005040322916666667
EXTRACT: note_on channel=12 note=23 velocity=0 time=0.015120968750000002
EXTRACT: note_on channel=8 note=67 velocity=81 time=0.0025201614583333335
EXTRACT: note_on channel=8 note=65 velocity=0 time=0.020161291666666668
EXTRACT: note_on channel=8 note=69 velocity=79 time=0.030241937500000003
EXTRACT: note_on channel=8 note=67 velocity=0 time=0.017641130208333335
EXTRACT: note_on channel=9 note=61 velocity=55 time=0.020161291666666668
EXTRACT: note_on channel=9 note=82 velocity=58 time=0
EXTRACT: note_on channel=8 note=71 velocity=77 time=0.0025201614583333335
EXTRACT: note_on channel=9 note=82 velocity=0 time=0.007560484375000001
EXTRACT: note_on channel=9 note=61 velocity=0 time=0
EXTRACT: note_on channel=8 note=69 velocity=0 time=0.010080645833333334
EXTRACT: note_on channel=8 note=72 velocity=76 time=0.025201614583333334
EXTRACT: note_on channel=8 note=71 velocity=0 time=0.020161291666666668
EXTRACT: note_on channel=8 note=74 velocity=74 time=0.017641130208333335
EXTRACT: note_on channel=8 note=72 velocity=0 time=0.020161291666666668
EXTRACT: note_on channel=8 note=76 velocity=73 time=0.017641130208333335
EXTRACT: note_on channel=9 note=40 velocity=120 time=0
EXTRACT: note_on channel=9 note=61 velocity=68 time=0
EXTRACT: note_on channel=9 note=82 velocity=56 time=0
EXTRACT: note_on channel=13 note=48 velocity=0 time=0.0025201614583333335
EXTRACT: note_on channel=2 note=48 velocity=0 time=0
EXTRACT: note_on channel=1 note=36 velocity=0 time=0
EXTRACT: note_on channel=1 note=31 velocity=101 time=0.0025201614583333335
EXTRACT: note_on channel=2 note=43 velocity=107 time=0
EXTRACT: note_on channel=13 note=43 velocity=95 time=0
EXTRACT: note_on channel=9 note=40 velocity=0 time=0.005040322916666667
EXTRACT: note_on channel=9 note=82 velocity=0 time=0
EXTRACT: note_on channel=9 note=61 velocity=0 time=0
EXTRACT: note_on channel=8 note=74 velocity=0 time=0.010080645833333334
EXTRACT: note_on channel=8 note=77 velocity=71 time=0.015120968750000002
EXTRACT: note_on channel=8 note=76 velocity=0 time=0.017641130208333335
EXTRACT: note_on channel=8 note=79 velocity=70 time=0.015120968750000002
EXTRACT: note_on channel=8 note=77 velocity=0 time=0.017641130208333335
EXTRACT: note_on channel=8 note=81 velocity=68 time=0.022681453125
EXTRACT: note_on channel=9 note=61 velocity=62 time=0.012600807291666667
EXTRACT: note_on channel=9 note=82 velocity=66 time=0
EXTRACT: note_on channel=8 note=79 velocity=0 time=0.0025201614583333335
EXTRACT: note_on channel=9 note=61 velocity=0 time=0.007560484375000001
EXTRACT: note_on channel=9 note=82 velocity=0 time=0
EXTRACT: note_on channel=8 note=83 velocity=67 time=0.015120968750000002
EXTRACT: note_on channel=8 note=81 velocity=0 time=0.020161291666666668
EXTRACT: note_on channel=8 note=84 velocity=64 time=0.015120968750000002
EXTRACT: note_on channel=8 note=83 velocity=0 time=0.020161291666666668
EXTRACT: note_on channel=1 note=31 velocity=0 time=0.012600807291666667
EXTRACT: note_on channel=13 note=43 velocity=0 time=0
EXTRACT: note_on channel=2 note=43 velocity=0 time=0
EXTRACT: note_on channel=8 note=86 velocity=69 time=0.015120968750000002
EXTRACT: note_on channel=1 note=28 velocity=96 time=0.007560484375000001
EXTRACT: note_on channel=2 note=40 velocity=102 time=0
EXTRACT: note_on channel=13 note=40 velocity=90 time=0
EXTRACT: note_on channel=9 note=42 velocity=53 time=0.005040322916666667
EXTRACT: note_on channel=9 note=82 velocity=41 time=0
EXTRACT: note_on channel=9 note=35 velocity=93 time=0.0025201614583333335
EXTRACT: note_on channel=12 note=23 velocity=93 time=0
EXTRACT: note_on channel=8 note=84 velocity=0 time=0.0025201614583333335
EXTRACT: note_on channel=9 note=82 velocity=0 time=0.005040322916666667
EXTRACT: note_on channel=9 note=42 velocity=0 time=0
EXTRACT: note_on channel=9 note=35 velocity=0 time=0.0025201614583333335
EXTRACT: note_on channel=8 note=88 velocity=72 time=0.007560484375000001
EXTRACT: note_on channel=12 note=23 velocity=0 time=0.015120968750000002
EXTRACT: note_on channel=8 note=86 velocity=0 time=0.007560484375000001
EXTRACT: note_on channel=8 note=89 velocity=76 time=0.022681453125
EXTRACT: note_on channel=8 note=88 velocity=0 time=0.017641130208333335
EXTRACT: note_on channel=8 note=91 velocity=80 time=0.025201614583333334
EXTRACT: note_on channel=9 note=82 velocity=66 time=0.012600807291666667
EXTRACT: note_on channel=8 note=89 velocity=0 time=0.007560484375000001
EXTRACT: note_on channel=9 note=82 velocity=0 time=0.0025201614583333335
EXTRACT: note_on channel=8 note=93 velocity=83 time=0.015120968750000002
EXTRACT: note_on channel=8 note=91 velocity=0 time=0.017641130208333335
EXTRACT: note_on channel=8 note=93 velocity=0 time=0.015120968750000002
EXTRACT: note_on channel=8 note=95 velocity=87 time=0.010080645833333334
EXTRACT: note_on channel=8 note=95 velocity=0 time=0.015120968750000002
EXTRACT: note_on channel=1 note=28 velocity=0 time=0.03528226041666667
EXTRACT: note_on channel=13 note=40 velocity=0 time=0
EXTRACT: note_on channel=2 note=40 velocity=0 time=0
EXTRACT: note_on channel=4 note=65 velocity=107 time=0.0025201614583333335
EXTRACT: note_on channel=4 note=72 velocity=127 time=0
EXTRACT: note_on channel=5 note=56 velocity=107 time=0
EXTRACT: note_on channel=6 note=60 velocity=119 time=0
EXTRACT: note_on channel=7 note=65 velocity=93 time=0
EXTRACT: note_on channel=7 note=68 velocity=107 time=0
EXTRACT: note_on channel=7 note=72 velocity=93 time=0
EXTRACT: note_on channel=9 note=57 velocity=70 time=0
EXTRACT: note_on channel=9 note=64 velocity=89 time=0
EXTRACT: note_on channel=9 note=82 velocity=79 time=0
EXTRACT: note_on channel=9 note=86 velocity=113 time=0
EXTRACT: note_on channel=10 note=60 velocity=100 time=0
EXTRACT: note_on channel=15 note=56 velocity=1 time=0
EXTRACT: note_on channel=15 note=60 velocity=1 time=0
EXTRACT: note_on channel=15 note=65 velocity=1 time=0
EXTRACT: note_on channel=15 note=72 velocity=1 time=0
EXTRACT: note_on channel=1 note=32 velocity=99 time=0.0025201614583333335
EXTRACT: note_on channel=9 note=35 velocity=113 time=0.0025201614583333335
EXTRACT: note_on channel=12 note=23 velocity=113 time=0
EXTRACT: note_on channel=2 note=44 velocity=110 time=0.0025201614583333335
EXTRACT: note_on channel=13 note=44 velocity=94 time=0
EXTRACT: note_on channel=9 note=86 velocity=0 time=0.0025201614583333335
EXTRACT: note_on channel=9 note=82 velocity=0 time=0
EXTRACT: note_on channel=9 note=64 velocity=0 time=0
EXTRACT: note_on channel=9 note=57 velocity=0 time=0
EXTRACT: note_on channel=9 note=35 velocity=0 time=0.005040322916666667
EXTRACT: note_on channel=6 note=60 velocity=0 time=0.022681453125
EXTRACT: note_on channel=15 note=72 velocity=0 time=0
EXTRACT: note_on channel=15 note=56 velocity=0 time=0
EXTRACT: note_on channel=7 note=65 velocity=0 time=0
EXTRACT: note_on channel=4 note=72 velocity=0 time=0
EXTRACT: note_on channel=7 note=72 velocity=0 time=0
EXTRACT: note_on channel=4 note=65 velocity=0 time=0
EXTRACT: note_on channel=12 note=23 velocity=0 time=0
EXTRACT: note_on channel=5 note=56 velocity=0 time=0
EXTRACT: note_on channel=15 note=65 velocity=0 time=0
EXTRACT: note_on channel=15 note=60 velocity=0 time=0
EXTRACT: note_on channel=7 note=68 velocity=0 time=0
EXTRACT: note_on channel=5 note=56 velocity=102 time=0.08064516666666667
EXTRACT: note_on channel=6 note=60 velocity=113 time=0
EXTRACT: note_on channel=9 note=86 velocity=99 time=0
EXTRACT: note_on channel=15 note=56 velocity=1 time=0
EXTRACT: note_on channel=15 note=60 velocity=1 time=0
EXTRACT: note_on channel=4 note=65 velocity=93 time=0.0025201614583333335
EXTRACT: note_on channel=4 note=72 velocity=113 time=0
EXTRACT: note_on channel=7 note=65 velocity=98 time=0
EXTRACT: note_on channel=7 note=68 velocity=107 time=0
EXTRACT: note_on channel=7 note=72 velocity=107 time=0
EXTRACT: note_on channel=9 note=82 velocity=67 time=0
EXTRACT: note_on channel=15 note=65 velocity=1 time=0
EXTRACT: note_on channel=15 note=72 velocity=1 time=0
EXTRACT: note_on channel=9 note=86 velocity=0 time=0.007560484375000001
EXTRACT: note_on channel=9 note=82 velocity=0 time=0.0025201614583333335
EXTRACT: note_on channel=15 note=60 velocity=0 time=0.025201614583333334
EXTRACT: note_on channel=15 note=56 velocity=0 time=0
EXTRACT: note_on channel=6 note=60 velocity=0 time=0
EXTRACT: note_on channel=5 note=56 velocity=0 time=0
EXTRACT: note_on channel=15 note=65 velocity=0 time=0.0025201614583333335
EXTRACT: note_on channel=4 note=65 velocity=0 time=0
EXTRACT: note_on channel=15 note=72 velocity=0 time=0
EXTRACT: note_on channel=4 note=72 velocity=0 time=0
EXTRACT: note_on channel=7 note=65 velocity=0 time=0
EXTRACT: note_on channel=7 note=72 velocity=0 time=0
EXTRACT: note_on channel=7 note=68 velocity=0 time=0
EXTRACT: note_on channel=5 note=56 velocity=72 time=0.08064516666666667
EXTRACT: note_on channel=6 note=60 velocity=107 time=0
EXTRACT: note_on channel=15 note=56 velocity=1 time=0
EXTRACT: note_on channel=15 note=60 velocity=1 time=0
EXTRACT: note_on channel=4 note=65 velocity=107 time=0.0025201614583333335
EXTRACT: note_on channel=4 note=72 velocity=102 time=0
EXTRACT: note_on channel=7 note=65 velocity=85 time=0
EXTRACT: note_on channel=7 note=68 velocity=107 time=0
EXTRACT: note_on channel=7 note=72 velocity=93 time=0
EXTRACT: note_on channel=9 note=46 velocity=60 time=0
EXTRACT: note_on channel=9 note=63 velocity=89 time=0
EXTRACT: note_on channel=9 note=82 velocity=54 time=0
EXTRACT: note_on channel=15 note=65 velocity=1 time=0
EXTRACT: note_on channel=15 note=72 velocity=1 time=0
EXTRACT: note_on channel=9 note=82 velocity=0 time=0.010080645833333334
EXTRACT: note_on channel=9 note=63 velocity=0 time=0
EXTRACT: note_on channel=9 note=46 velocity=0 time=0
EXTRACT: note_on channel=15 note=56 velocity=0 time=0.025201614583333334
EXTRACT: note_on channel=6 note=60 velocity=0 time=0
EXTRACT: note_on channel=15 note=60 velocity=0 time=0
EXTRACT: note_on channel=5 note=56 velocity=0 time=0
EXTRACT: note_on channel=15 note=65 velocity=0 time=0.0025201614583333335
EXTRACT: note_on channel=4 note=72 velocity=0 time=0
EXTRACT: note_on channel=4 note=65 velocity=0 time=0
EXTRACT: note_on channel=15 note=72 velocity=0 time=0
EXTRACT: note_on channel=7 note=65 velocity=0 time=0
EXTRACT: note_on channel=7 note=68 velocity=0 time=0
EXTRACT: note_on channel=7 note=72 velocity=0 time=0
EXTRACT: note_on channel=1 note=32 velocity=0 time=0.05796371354166667
EXTRACT: note_on channel=2 note=44 velocity=0 time=0.005040322916666667
EXTRACT: note_on channel=13 note=44 velocity=0 time=0
EXTRACT: note_on channel=9 note=86 velocity=119 time=0.007560484375000001
EXTRACT: note_on channel=9 note=76 velocity=80 time=0.007560484375000001
EXTRACT: note_on channel=9 note=86 velocity=0 time=0.0025201614583333335
EXTRACT: note_on channel=1 note=29 velocity=100 time=0
EXTRACT: note_on channel=2 note=41 velocity=106 time=0
EXTRACT: note_on channel=5 note=56 velocity=107 time=0
EXTRACT: note_on channel=6 note=60 velocity=113 time=0
EXTRACT: note_on channel=13 note=41 velocity=92 time=0
EXTRACT: note_on channel=15 note=56 velocity=1 time=0
EXTRACT: note_on channel=15 note=60 velocity=1 time=0
EXTRACT: note_on channel=4 note=65 velocity=93 time=0.0025201614583333335
EXTRACT: note_on channel=4 note=72 velocity=102 time=0
EXTRACT: note_on channel=7 note=65 velocity=72 time=0
EXTRACT: note_on channel=7 note=68 velocity=102 time=0
EXTRACT: note_on channel=7 note=72 velocity=93 time=0
EXTRACT: note_on channel=9 note=82 velocity=42 time=0
EXTRACT: note_on channel=15 note=65 velocity=1 time=0
EXTRACT: note_on channel=15 note=72 velocity=1 time=0
EXTRACT: note_on channel=9 note=76 velocity=0 time=0.005040322916666667
EXTRACT: note_on channel=9 note=82 velocity=0 time=0.005040322916666667
EXTRACT: note_on channel=15 note=60 velocity=0 time=0.025201614583333334
EXTRACT: note_on channel=15 note=56 velocity=0 time=0
EXTRACT: note_on channel=5 note=56 velocity=0 time=0
EXTRACT: note_on channel=6 note=60 velocity=0 time=0
EXTRACT: note_on channel=7 note=72 velocity=0 time=0.0025201614583333335
EXTRACT: note_on channel=4 note=65 velocity=0 time=0
EXTRACT: note_on channel=15 note=72 velocity=0 time=0
EXTRACT: note_on channel=4 note=72 velocity=0 time=0
EXTRACT: note_on channel=7 note=65 velocity=0 time=0
EXTRACT: note_on channel=15 note=65 velocity=0 time=0
EXTRACT: note_on channel=7 note=68 velocity=0 time=0
EXTRACT: note_on channel=5 note=56 velocity=93 time=0.08064516666666667
EXTRACT: note_on channel=6 note=60 velocity=113 time=0
EXTRACT: note_on channel=15 note=56 velocity=1 time=0
EXTRACT: note_on channel=15 note=60 velocity=1 time=0
EXTRACT: note_on channel=4 note=65 velocity=119 time=0.0025201614583333335
EXTRACT: note_on channel=4 note=72 velocity=127 time=0
EXTRACT: note_on channel=7 note=65 velocity=79 time=0
EXTRACT: note_on channel=7 note=68 velocity=76 time=0
EXTRACT: note_on channel=7 note=72 velocity=84 time=0
EXTRACT: note_on channel=9 note=59 velocity=70 time=0
EXTRACT: note_on channel=9 note=62 velocity=113 time=0
EXTRACT: note_on channel=9 note=82 velocity=79 time=0
EXTRACT: note_on channel=15 note=65 velocity=1 time=0
EXTRACT: note_on channel=15 note=72 velocity=1 time=0
EXTRACT: note_on channel=9 note=40 velocity=120 time=0.007560484375000001
EXTRACT: note_on channel=9 note=82 velocity=0 time=0.0025201614583333335
EXTRACT: note_on channel=9 note=62 velocity=0 time=0
EXTRACT: note_on channel=9 note=59 velocity=0 time=0
EXTRACT: note_on channel=9 note=40 velocity=0 time=0.007560484375000001
EXTRACT: note_on channel=9 note=82 velocity=68 time=0.10332661979166667
EXTRACT: note_on channel=9 note=82 velocity=0 time=0.010080645833333334
EXTRACT: note_on channel=13 note=41 velocity=0 time=0.07812500520833333
EXTRACT: note_on channel=1 note=29 velocity=0 time=0
EXTRACT: note_on channel=2 note=41 velocity=0 time=0
EXTRACT: note_on channel=15 note=72 velocity=0 time=0.022681453125
EXTRACT: note_on channel=4 note=72 velocity=0 time=0
EXTRACT: note_on channel=1 note=24 velocity=100 time=0
EXTRACT: note_on channel=2 note=36 velocity=106 time=0
EXTRACT: note_on channel=13 note=36 velocity=92 time=0
EXTRACT: note_on channel=15 note=65 velocity=0 time=0.005040322916666667
EXTRACT: note_on channel=4 note=65 velocity=0 time=0
EXTRACT: note_on channel=3 note=72 velocity=101 time=0.005040322916666667
EXTRACT: note_on channel=9 note=46 velocity=56 time=0
EXTRACT: note_on channel=9 note=61 velocity=93 time=0
EXTRACT: note_on channel=9 note=82 velocity=54 time=0
EXTRACT: note_on channel=9 note=76 velocity=80 time=0.0025201614583333335
EXTRACT: note_on channel=9 note=35 velocity=89 time=0.005040322916666667
EXTRACT: note_on channel=12 note=23 velocity=89 time=0
EXTRACT: note_on channel=9 note=82 velocity=0 time=0.0025201614583333335
EXTRACT: note_on channel=9 note=61 velocity=0 time=0
EXTRACT: note_on channel=9 note=46 velocity=0 time=0
EXTRACT: note_on channel=9 note=86 velocity=108 time=0
EXTRACT: note_on channel=9 note=76 velocity=0 time=0.0025201614583333335
EXTRACT: note_on channel=9 note=35 velocity=0 time=0.005040322916666667
EXTRACT: note_on channel=9 note=86 velocity=0 time=0.0025201614583333335
EXTRACT: note_on channel=6 note=60 velocity=0 time=0.015120968750000002
EXTRACT: note_on channel=15 note=60 velocity=0 time=0
EXTRACT: note_on channel=12 note=23 velocity=0 time=0.005040322916666667
EXTRACT: note_on channel=3 note=72 velocity=0 time=0.0025201614583333335
EXTRACT: note_on channel=5 note=56 velocity=0 time=0.017641130208333335
EXTRACT: note_on channel=15 note=56 velocity=0 time=0
EXTRACT: note_on channel=7 note=68 velocity=0 time=0.010080645833333334
EXTRACT: note_on channel=7 note=72 velocity=0 time=0.015120968750000002
EXTRACT: note_on channel=7 note=65 velocity=0 time=0
EXTRACT: note_on channel=3 note=72 velocity=89 time=0.03528226041666667
EXTRACT: note_on channel=9 note=61 velocity=93 time=0
EXTRACT: note_on channel=9 note=82 velocity=45 time=0
EXTRACT: note_on channel=9 note=35 velocity=85 time=0.005040322916666667
EXTRACT: note_on channel=9 note=86 velocity=99 time=0
EXTRACT: note_on channel=12 note=23 velocity=85 time=0
EXTRACT: note_on channel=9 note=82 velocity=0 time=0.005040322916666667
EXTRACT: note_on channel=9 note=61 velocity=0 time=0
EXTRACT: note_on channel=9 note=86 velocity=0 time=0.005040322916666667
EXTRACT: note_on channel=9 note=35 velocity=0 time=0
EXTRACT: note_on channel=12 note=23 velocity=0 time=0.022681453125
EXTRACT: note_on channel=3 note=72 velocity=0 time=0.017641130208333335
EXTRACT: note_on channel=3 note=72 velocity=106 time=0.06552419791666667
EXTRACT: note_on channel=9 note=59 velocity=70 time=0
EXTRACT: note_on channel=9 note=82 velocity=78 time=0
EXTRACT: note_on channel=9 note=86 velocity=113 time=0.0025201614583333335
EXTRACT: note_on channel=9 note=82 velocity=0 time=0.007560484375000001
EXTRACT: note_on channel=9 note=59 velocity=0 time=0
EXTRACT: note_on channel=9 note=86 velocity=0 time=0.0025201614583333335
EXTRACT: note_on channel=3 note=72 velocity=0 time=0.03276209895833333
EXTRACT: note_on channel=10 note=60 velocity=0 time=0.037802421875
EXTRACT: note_on channel=3 note=72 velocity=97 time=0.037802421875
EXTRACT: note_on channel=9 note=61 velocity=93 time=0
EXTRACT: note_on channel=9 note=82 velocity=68 time=0
EXTRACT: note_on channel=9 note=35 velocity=85 time=0.005040322916666667
EXTRACT: note_on channel=9 note=86 velocity=108 time=0
EXTRACT: note_on channel=12 note=23 velocity=85 time=0
EXTRACT: note_on channel=9 note=82 velocity=0 time=0.005040322916666667
EXTRACT: note_on channel=9 note=61 velocity=0 time=0
EXTRACT: note_on channel=9 note=86 velocity=0 time=0.005040322916666667
EXTRACT: note_on channel=9 note=35 velocity=0 time=0
EXTRACT: note_on channel=12 note=23 velocity=0 time=0.022681453125
EXTRACT: note_on channel=3 note=72 velocity=0 time=0.010080645833333334
EXTRACT: note_on channel=1 note=32 velocity=100 time=0.06552419791666667
EXTRACT: note_on channel=2 note=44 velocity=106 time=0
EXTRACT: note_on channel=13 note=44 velocity=92 time=0
EXTRACT: note_on channel=10 note=60 velocity=102 time=0.005040322916666667
EXTRACT: note_on channel=3 note=72 velocity=99 time=0.0025201614583333335
EXTRACT: note_on channel=9 note=46 velocity=60 time=0
EXTRACT: note_on channel=9 note=82 velocity=58 time=0
EXTRACT: note_on channel=9 note=35 velocity=85 time=0.005040322916666667
EXTRACT: note_on channel=12 note=23 velocity=85 time=0
EXTRACT: note_on channel=9 note=82 velocity=0 time=0.005040322916666667
EXTRACT: note_on channel=9 note=46 velocity=0 time=0
EXTRACT: note_on channel=1 note=24 velocity=0 time=0.0025201614583333335
EXTRACT: note_on channel=2 note=36 velocity=0 time=0
EXTRACT: note_on channel=13 note=36 velocity=0 time=0
EXTRACT: note_on channel=9 note=35 velocity=0 time=0.0025201614583333335
EXTRACT: note_on channel=12 note=23 velocity=0 time=0.022681453125
EXTRACT: note_on channel=3 note=72 velocity=0 time=0.05796371354166667
EXTRACT: note_on channel=9 note=86 velocity=113 time=0.017641130208333335
EXTRACT: note_on channel=9 note=76 velocity=80 time=0.005040322916666667
EXTRACT: note_on channel=9 note=61 velocity=93 time=0.0025201614583333335
EXTRACT: note_on channel=9 note=82 velocity=42 time=0
EXTRACT: note_on channel=9 note=86 velocity=0 time=0.0025201614583333335
EXTRACT: note_on channel=3 note=73 velocity=96 time=0.0025201614583333335
EXTRACT: note_on channel=9 note=76 velocity=0 time=0.0025201614583333335
EXTRACT: note_on channel=9 note=82 velocity=0 time=0.0025201614583333335
EXTRACT: note_on channel=9 note=61 velocity=0 time=0
EXTRACT: note_on channel=3 note=73 velocity=0 time=0.08316532812500001
EXTRACT: note_on channel=9 note=40 velocity=120 time=0.027721776041666667
EXTRACT: note_on channel=9 note=59 velocity=70 time=0
EXTRACT: note_on channel=9 note=62 velocity=107 time=0
EXTRACT: note_on channel=9 note=82 velocity=78 time=0
EXTRACT: note_on channel=10 note=61 velocity=98 time=0
EXTRACT: note_on channel=1 note=29 velocity=106 time=0.0025201614583333335
EXTRACT: note_on channel=2 note=41 velocity=112 time=0
EXTRACT: note_on channel=13 note=41 velocity=98 time=0
EXTRACT: note_on channel=1 note=32 velocity=0 time=0.0025201614583333335
EXTRACT: note_on channel=2 note=44 velocity=0 time=0
EXTRACT: note_on channel=13 note=44 velocity=0 time=0
EXTRACT: note_on channel=9 note=82 velocity=0 time=0.005040322916666667
EXTRACT: note_on channel=9 note=40 velocity=0 time=0
EXTRACT: note_on channel=9 note=59 velocity=0 time=0
EXTRACT: note_on channel=9 note=62 velocity=0 time=0
EXTRACT: note_on channel=10 note=60 velocity=0 time=0.005040322916666667
EXTRACT: note_on channel=3 note=72 velocity=101 time=0.10584678125000001
EXTRACT: note_on channel=9 note=82 velocity=64 time=0
EXTRACT: note_on channel=9 note=82 velocity=0 time=0.010080645833333334
EXTRACT: note_on channel=2 note=41 velocity=0 time=0.10080645833333333
EXTRACT: note_on channel=13 note=41 velocity=0 time=0
EXTRACT: note_on channel=1 note=29 velocity=0 time=0
EXTRACT: note_on channel=10 note=61 velocity=0 time=0.0025201614583333335
EXTRACT: note_on channel=1 note=24 velocity=100 time=0.005040322916666667
EXTRACT: note_on channel=2 note=36 velocity=106 time=0
EXTRACT: note_on channel=10 note=60 velocity=98 time=0
EXTRACT: note_on channel=13 note=36 velocity=92 time=0
EXTRACT: note_on channel=9 note=46 velocity=56 time=0.0025201614583333335
EXTRACT: note_on channel=9 note=63 velocity=89 time=0
EXTRACT: note_on channel=9 note=82 velocity=51 time=0
EXTRACT: note_on channel=9 note=35 velocity=89 time=0.005040322916666667
EXTRACT: note_on channel=12 note=23 velocity=89 time=0
EXTRACT: note_on channel=9 note=76 velocity=80 time=0.0025201614583333335
EXTRACT: note_on channel=9 note=82 velocity=0 time=0.0025201614583333335
EXTRACT: note_on channel=9 note=63 velocity=0 time=0
EXTRACT: note_on channel=9 note=46 velocity=0 time=0
EXTRACT: note_on channel=9 note=86 velocity=108 time=0.0025201614583333335
EXTRACT: note_on channel=9 note=35 velocity=0 time=0.0025201614583333335
EXTRACT: note_on channel=9 note=76 velocity=0 time=0.0025201614583333335
EXTRACT: note_on channel=9 note=86 velocity=0 time=0.005040322916666667
EXTRACT: note_on channel=12 note=23 velocity=0 time=0.015120968750000002
EXTRACT: note_on channel=9 note=82 velocity=43 time=0.08316532812500001
EXTRACT: note_on channel=9 note=82 velocity=0 time=0.010080645833333334
EXTRACT: note_on channel=3 note=72 velocity=0 time=0
EXTRACT: note_on channel=9 note=86 velocity=95 time=0.005040322916666667
EXTRACT: note_on channel=9 note=86 velocity=0 time=0.010080645833333334
EXTRACT: note_on channel=5 note=55 velocity=107 time=0.09324597395833334
EXTRACT: note_on channel=6 note=60 velocity=119 time=0
EXTRACT: note_on channel=10 note=58 velocity=89 time=0
EXTRACT: note_on channel=15 note=55 velocity=1 time=0
EXTRACT: note_on channel=15 note=60 velocity=1 time=0
EXTRACT: note_on channel=1 note=24 velocity=0 time=0.0025201614583333335
EXTRACT: note_on channel=13 note=36 velocity=0 time=0
EXTRACT: note_on channel=2 note=36 velocity=0 time=0
EXTRACT: note_on channel=4 note=64 velocity=127 time=0
EXTRACT: note_on channel=4 note=70 velocity=107 time=0
EXTRACT: note_on channel=7 note=64 velocity=98 time=0
EXTRACT: note_on channel=7 note=67 velocity=102 time=0
EXTRACT: note_on channel=7 note=70 velocity=102 time=0
EXTRACT: note_on channel=9 note=59 velocity=70 time=0
EXTRACT: note_on channel=9 note=64 velocity=102 time=0
EXTRACT: note_on channel=9 note=82 velocity=79 time=0
EXTRACT: note_on channel=15 note=64 velocity=1 time=0
EXTRACT: note_on channel=15 note=70 velocity=1 time=0
EXTRACT: note_on channel=9 note=35 velocity=102 time=0.005040322916666667
EXTRACT: note_on channel=12 note=23 velocity=102 time=0
EXTRACT: note_on channel=9 note=86 velocity=108 time=0.0025201614583333335
EXTRACT: note_on channel=9 note=82 velocity=0 time=0.0025201614583333335
EXTRACT: note_on channel=9 note=64 velocity=0 time=0
EXTRACT: note_on channel=9 note=59 velocity=0 time=0
EXTRACT: note_on channel=1 note=31 velocity=106 time=0
EXTRACT: note_on channel=2 note=43 velocity=112 time=0
EXTRACT: note_on channel=13 note=43 velocity=98 time=0
EXTRACT: note_on channel=10 note=60 velocity=0 time=0.0025201614583333335
EXTRACT: note_on channel=9 note=35 velocity=0 time=0.0025201614583333335
EXTRACT: note_on channel=9 note=86 velocity=0 time=0.0025201614583333335
EXTRACT: note_on channel=15 note=60 velocity=0 time=0.017641130208333335
EXTRACT: note_on channel=5 note=55 velocity=0 time=0
EXTRACT: note_on channel=6 note=60 velocity=0 time=0
EXTRACT: note_on channel=15 note=55 velocity=0 time=0
EXTRACT: note_on channel=7 note=64 velocity=0 time=0.0025201614583333335
EXTRACT: note_on channel=4 note=70 velocity=0 time=0
EXTRACT: note_on channel=7 note=70 velocity=0 time=0
EXTRACT: note_on channel=15 note=70 velocity=0 time=0
EXTRACT: note_on channel=7 note=67 velocity=0 time=0
EXTRACT: note_on channel=4 note=64 velocity=0 time=0
EXTRACT: note_on channel=12 note=23 velocity=0 time=0
EXTRACT: note_on channel=15 note=64 velocity=0 time=0
EXTRACT: note_on channel=5 note=55 velocity=102 time=0.08064516666666667
EXTRACT: note_on channel=6 note=60 velocity=113 time=0
EXTRACT: note_on channel=15 note=55 velocity=1 time=0
EXTRACT: note_on channel=15 note=60 velocity=1 time=0
EXTRACT: note_on channel=4 note=64 velocity=113 time=0.0025201614583333335
EXTRACT: note_on channel=4 note=70 velocity=93 time=0
EXTRACT: note_on channel=7 note=64 velocity=89 time=0
EXTRACT: note_on channel=7 note=67 velocity=93 time=0
EXTRACT: note_on channel=7 note=70 velocity=93 time=0
EXTRACT: note_on channel=9 note=82 velocity=67 time=0
EXTRACT: note_on channel=15 note=64 velocity=1 time=0
EXTRACT: note_on channel=15 note=70 velocity=1 time=0
EXTRACT: note_on channel=9 note=82 velocity=0 time=0.010080645833333334
EXTRACT: note_on channel=9 note=86 velocity=113 time=0
EXTRACT: note_on channel=9 note=86 velocity=0 time=0.010080645833333334
EXTRACT: note_on channel=15 note=55 velocity=0 time=0.015120968750000002
EXTRACT: note_on channel=15 note=60 velocity=0 time=0
EXTRACT: note_on channel=6 note=60 velocity=0 time=0
EXTRACT: note_on channel=5 note=55 velocity=0 time=0
EXTRACT: note_on channel=15 note=70 velocity=0 time=0.0025201614583333335
EXTRACT: note_on channel=4 note=70 velocity=0 time=0
EXTRACT: note_on channel=4 note=64 velocity=0 time=0
EXTRACT: note_on channel=7 note=64 velocity=0 time=0
EXTRACT: note_on channel=7 note=67 velocity=0 time=0
EXTRACT: note_on channel=15 note=64 velocity=0 time=0
EXTRACT: note_on channel=7 note=70 velocity=0 time=0
EXTRACT: note_on channel=5 note=55 velocity=72 time=0.08064516666666667
EXTRACT: note_on channel=6 note=60 velocity=107 time=0
EXTRACT: note_on channel=15 note=55 velocity=1 time=0
EXTRACT: note_on channel=15 note=60 velocity=1 time=0
EXTRACT: note_on channel=4 note=64 velocity=102 time=0.0025201614583333335
EXTRACT: note_on channel=4 note=70 velocity=107 time=0
EXTRACT: note_on channel=7 note=64 velocity=76 time=0
EXTRACT: note_on channel=7 note=67 velocity=98 time=0
EXTRACT: note_on channel=7 note=70 velocity=102 time=0
EXTRACT: note_on channel=9 note=46 velocity=60 time=0
EXTRACT: note_on channel=9 note=63 velocity=98 time=0
EXTRACT: note_on channel=9 note=82 velocity=54 time=0
EXTRACT: note_on channel=15 note=64 velocity=1 time=0
EXTRACT: note_on channel=15 note=70 velocity=1 time=0
EXTRACT: note_on channel=9 note=82 velocity=0 time=0.010080645833333334
EXTRACT: note_on channel=9 note=63 velocity=0 time=0
EXTRACT: note_on channel=9 note=46 velocity=0 time=0
EXTRACT: note_on channel=15 note=55 velocity=0 time=0.025201614583333334
EXTRACT: note_on channel=6 note=60 velocity=0 time=0
EXTRACT: note_on channel=15 note=60 velocity=0 time=0
EXTRACT: note_on channel=5 note=55 velocity=0 time=0
EXTRACT: note_on channel=15 note=64 velocity=0 time=0.0025201614583333335
EXTRACT: note_on channel=4 note=70 velocity=0 time=0
EXTRACT: note_on channel=4 note=64 velocity=0 time=0
EXTRACT: note_on channel=15 note=70 velocity=0 time=0
EXTRACT: note_on channel=7 note=64 velocity=0 time=0
EXTRACT: note_on channel=7 note=67 velocity=0 time=0
EXTRACT: note_on channel=7 note=70 velocity=0 time=0
EXTRACT: note_on channel=2 note=43 velocity=0 time=0.04284274479166667
EXTRACT: note_on channel=1 note=31 velocity=0 time=0
EXTRACT: note_on channel=13 note=43 velocity=0 time=0
EXTRACT: note_on channel=1 note=27 velocity=103 time=0.03528226041666667
EXTRACT: note_on channel=2 note=39 velocity=110 time=0
EXTRACT: note_on channel=13 note=39 velocity=94 time=0
EXTRACT: note_on channel=5 note=55 velocity=107 time=0.0025201614583333335
EXTRACT: note_on channel=6 note=60 velocity=113 time=0
EXTRACT: note_on channel=15 note=55 velocity=1 time=0
EXTRACT: note_on channel=15 note=60 velocity=1 time=0
EXTRACT: note_on channel=4 note=64 velocity=102 time=0.0025201614583333335
EXTRACT: note_on channel=4 note=70 velocity=93 time=0
EXTRACT: note_on channel=7 note=64 velocity=89 time=0
EXTRACT: note_on channel=7 note=67 velocity=102 time=0
EXTRACT: note_on channel=7 note=70 velocity=107 time=0
EXTRACT: note_on channel=9 note=82 velocity=42 time=0
EXTRACT: note_on channel=15 note=64 velocity=1 time=0
EXTRACT: note_on channel=15 note=70 velocity=1 time=0
EXTRACT: note_on channel=9 note=86 velocity=113 time=0.005040322916666667
EXTRACT: note_on channel=9 note=82 velocity=0 time=0.005040322916666667
EXTRACT: note_on channel=9 note=86 velocity=0 time=0.005040322916666667
EXTRACT: note_on channel=9 note=76 velocity=80 time=0.007560484375000001
EXTRACT: note_on channel=9 note=76 velocity=0 time=0.010080645833333334
EXTRACT: note_on channel=15 note=55 velocity=0 time=0.0025201614583333335
EXTRACT: note_on channel=15 note=60 velocity=0 time=0
EXTRACT: note_on channel=6 note=60 velocity=0 time=0
EXTRACT: note_on channel=5 note=55 velocity=0 time=0
EXTRACT: note_on channel=4 note=64 velocity=0 time=0.0025201614583333335
EXTRACT: note_on channel=4 note=70 velocity=0 time=0
EXTRACT: note_on channel=15 note=70 velocity=0 time=0
EXTRACT: note_on channel=7 note=64 velocity=0 time=0
EXTRACT: note_on channel=7 note=67 velocity=0 time=0
EXTRACT: note_on channel=15 note=64 velocity=0 time=0
EXTRACT: note_on channel=7 note=70 velocity=0 time=0
EXTRACT: note_on channel=5 note=55 velocity=93 time=0.08064516666666667
EXTRACT: note_on channel=6 note=60 velocity=113 time=0
EXTRACT: note_on channel=15 note=55 velocity=1 time=0
EXTRACT: note_on channel=15 note=60 velocity=1 time=0
EXTRACT: note_on channel=4 note=64 velocity=119 time=0.0025201614583333335
EXTRACT: note_on channel=4 note=70 velocity=127 time=0
EXTRACT: note_on channel=7 note=64 velocity=75 time=0
EXTRACT: note_on channel=7 note=67 velocity=84 time=0
EXTRACT: note_on channel=7 note=70 velocity=84 time=0
EXTRACT: note_on channel=9 note=59 velocity=70 time=0
EXTRACT: note_on channel=9 note=62 velocity=107 time=0
EXTRACT: note_on channel=9 note=82 velocity=79 time=0
EXTRACT: note_on channel=15 note=64 velocity=1 time=0
EXTRACT: note_on channel=15 note=70 velocity=1 time=0
EXTRACT: note_on channel=9 note=40 velocity=120 time=0.0025201614583333335
EXTRACT: note_on channel=9 note=82 velocity=0 time=0.007560484375000001
EXTRACT: note_on channel=9 note=62 velocity=0 time=0
EXTRACT: note_on channel=9 note=59 velocity=0 time=0
EXTRACT: note_on channel=9 note=40 velocity=0 time=0.0025201614583333335
EXTRACT: note_on channel=9 note=82 velocity=68 time=0.10836694270833334
EXTRACT: note_on channel=9 note=82 velocity=0 time=0.010080645833333334
EXTRACT: note_on channel=1 note=27 velocity=0 time=0.098286296875
EXTRACT: note_on channel=13 note=39 velocity=0 time=0
EXTRACT: note_on channel=2 note=39 velocity=0 time=0
EXTRACT: note_on channel=15 note=70 velocity=0 time=0.0025201614583333335
EXTRACT: note_on channel=4 note=70 velocity=0 time=0
EXTRACT: note_on channel=1 note=24 velocity=100 time=0.0025201614583333335
EXTRACT: note_on channel=2 note=36 velocity=106 time=0
EXTRACT: note_on channel=13 note=36 velocity=91 time=0
EXTRACT: note_on channel=15 note=64 velocity=0 time=0.0025201614583333335
EXTRACT: note_on channel=4 note=64 velocity=0 time=0
EXTRACT: note_on channel=3 note=70 velocity=97 time=0.005040322916666667
EXTRACT: note_on channel=9 note=46 velocity=52 time=0
EXTRACT: note_on channel=9 note=61 velocity=102 time=0
EXTRACT: note_on channel=9 note=82 velocity=54 time=0
EXTRACT: note_on channel=9 note=86 velocity=113 time=0.005040322916666667
EXTRACT: note_on channel=9 note=82 velocity=0 time=0.005040322916666667
EXTRACT: note_on channel=9 note=61 velocity=0 time=0
EXTRACT: note_on channel=9 note=46 velocity=0 time=0
EXTRACT: note_on channel=9 note=76 velocity=80 time=0.0025201614583333335
EXTRACT: note_on channel=9 note=86 velocity=0 time=0.0025201614583333335
EXTRACT: note_on channel=9 note=76 velocity=0 time=0.007560484375000001
EXTRACT: note_on channel=6 note=60 velocity=0 time=0.012600807291666667
EXTRACT: note_on channel=15 note=60 velocity=0 time=0
EXTRACT: note_on channel=3 note=70 velocity=0 time=0.007560484375000001
EXTRACT: note_on channel=15 note=55 velocity=0 time=0.017641130208333335
EXTRACT: note_on channel=5 note=55 velocity=0 time=0
EXTRACT: note_on channel=7 note=64 velocity=0 time=0.010080645833333334
EXTRACT: note_on channel=7 note=67 velocity=0 time=0
EXTRACT: note_on channel=7 note=70 velocity=0 time=0
EXTRACT: note_on channel=3 note=70 velocity=97 time=0.05040322916666667
EXTRACT: note_on channel=9 note=35 velocity=72 time=0
EXTRACT: note_on channel=9 note=61 velocity=98 time=0
EXTRACT: note_on channel=9 note=82 velocity=45 time=0
EXTRACT: note_on channel=9 note=86 velocity=82 time=0
EXTRACT: note_on channel=12 note=23 velocity=72 time=0
EXTRACT: note_on channel=9 note=86 velocity=0 time=0.010080645833333334
EXTRACT: note_on channel=9 note=82 velocity=0 time=0
EXTRACT: note_on channel=9 note=61 velocity=0 time=0
EXTRACT: note_on channel=9 note=35 velocity=0 time=0
EXTRACT: note_on channel=12 note=23 velocity=0 time=0.022681453125
EXTRACT: note_on channel=3 note=70 velocity=0 time=0.020161291666666668
EXTRACT: note_on channel=9 note=86 velocity=119 time=0.06300403645833334
EXTRACT: note_on channel=3 note=70 velocity=88 time=0.005040322916666667
EXTRACT: note_on channel=9 note=59 velocity=70 time=0
EXTRACT: note_on channel=9 note=82 velocity=78 time=0
EXTRACT: note_on channel=9 note=86 velocity=0 time=0.005040322916666667
EXTRACT: note_on channel=9 note=82 velocity=0 time=0.005040322916666667
EXTRACT: note_on channel=9 note=59 velocity=0 time=0
EXTRACT: note_on channel=10 note=58 velocity=0 time=0.015120968750000002
EXTRACT: note_on channel=3 note=70 velocity=0 time=0.022681453125
EXTRACT: note_on channel=9 note=35 velocity=102 time=0.07056452083333334
EXTRACT: note_on channel=12 note=23 velocity=102 time=0
EXTRACT: note_on channel=3 note=70 velocity=97 time=0.0025201614583333335
EXTRACT: note_on channel=9 note=61 velocity=107 time=0
EXTRACT: note_on channel=9 note=82 velocity=68 time=0
EXTRACT: note_on channel=9 note=86 velocity=113 time=0
EXTRACT: note_on channel=9 note=35 velocity=0 time=0.007560484375000001
EXTRACT: note_on channel=9 note=86 velocity=0 time=0.0025201614583333335
EXTRACT: note_on channel=9 note=82 velocity=0 time=0
EXTRACT: note_on channel=9 note=61 velocity=0 time=0
EXTRACT: note_on channel=12 note=23 velocity=0 time=0.020161291666666668
EXTRACT: note_on channel=3 note=70 velocity=0 time=0.025201614583333334
EXTRACT: note_on channel=10 note=55 velocity=93 time=0.06300403645833334
EXTRACT: note_on channel=3 note=70 velocity=102 time=0.0025201614583333335
EXTRACT: note_on channel=9 note=35 velocity=98 time=0
EXTRACT: note_on channel=9 note=46 velocity=60 time=0
EXTRACT: note_on channel=9 note=82 velocity=58 time=0
EXTRACT: note_on channel=12 note=23 velocity=98 time=0
EXTRACT: note_on channel=1 note=31 velocity=106 time=0.0025201614583333335
EXTRACT: note_on channel=2 note=43 velocity=112 time=0
EXTRACT: note_on channel=13 note=43 velocity=98 time=0
EXTRACT: note_on channel=9 note=82 velocity=0 time=0.007560484375000001
EXTRACT: note_on channel=9 note=46 velocity=0 time=0
EXTRACT: note_on channel=9 note=35 velocity=0 time=0
EXTRACT: note_on channel=13 note=36 velocity=0 time=0.015120968750000002
EXTRACT: note_on channel=2 note=36 velocity=0 time=0
EXTRACT: note_on channel=1 note=24 velocity=0 time=0
EXTRACT: note_on channel=12 note=23 velocity=0 time=0.007560484375000001
EXTRACT: note_on channel=3 note=70 velocity=0 time=0.022681453125
EXTRACT: note_on channel=9 note=86 velocity=119 time=0.06300403645833334
EXTRACT: note_on channel=3 note=72 velocity=101 time=0.0025201614583333335
EXTRACT: note_on channel=9 note=61 velocity=107 time=0
EXTRACT: note_on channel=9 note=82 velocity=42 time=0
EXTRACT: note_on channel=9 note=86 velocity=0 time=0.007560484375000001
EXTRACT: note_on channel=9 note=82 velocity=0 time=0.0025201614583333335
EXTRACT: note_on channel=9 note=61 velocity=0 time=0
EXTRACT: note_on channel=9 note=76 velocity=80 time=0.012600807291666667
EXTRACT: note_on channel=9 note=76 velocity=0 time=0.010080645833333334
EXTRACT: note_on channel=2 note=43 velocity=0 time=0.07812500520833333
EXTRACT: note_on channel=1 note=31 velocity=0 time=0
EXTRACT: note_on channel=13 note=43 velocity=0 time=0
EXTRACT: note_on channel=9 note=40 velocity=120 time=0.010080645833333334
EXTRACT: note_on channel=9 note=59 velocity=70 time=0
EXTRACT: note_on channel=9 note=62 velocity=107 time=0
EXTRACT: note_on channel=9 note=82 velocity=78 time=0
EXTRACT: note_on channel=10 note=56 velocity=89 time=0
EXTRACT: note_on channel=1 note=28 velocity=100 time=0.005040322916666667
EXTRACT: note_on channel=2 note=40 velocity=106 time=0
EXTRACT: note_on channel=13 note=40 velocity=92 time=0
EXTRACT: note_on channel=9 note=82 velocity=0 time=0.005040322916666667
EXTRACT: note_on channel=9 note=59 velocity=0 time=0
EXTRACT: note_on channel=9 note=40 velocity=0 time=0
EXTRACT: note_on channel=9 note=62 velocity=0 time=0
EXTRACT: note_on channel=3 note=72 velocity=0 time=0.012600807291666667
EXTRACT: note_on channel=10 note=55 velocity=0 time=0.007560484375000001
EXTRACT: note_on channel=3 note=70 velocity=101 time=0.0907258125
EXTRACT: note_on channel=9 note=82 velocity=64 time=0
EXTRACT: note_on channel=9 note=82 velocity=0 time=0.010080645833333334
EXTRACT: note_on channel=1 note=28 velocity=0 time=0.10584678125000001
EXTRACT: note_on channel=2 note=40 velocity=0 time=0
EXTRACT: note_on channel=13 note=40 velocity=0 time=0
EXTRACT: note_on channel=1 note=24 velocity=94 time=0.005040322916666667
EXTRACT: note_on channel=2 note=36 velocity=100 time=0
EXTRACT: note_on channel=9 note=46 velocity=47 time=0
EXTRACT: note_on channel=9 note=63 velocity=102 time=0
EXTRACT: note_on channel=9 note=82 velocity=51 time=0
EXTRACT: note_on channel=10 note=58 velocity=89 time=0
EXTRACT: note_on channel=13 note=36 velocity=86 time=0
EXTRACT: note_on channel=9 note=86 velocity=113 time=0.0025201614583333335
EXTRACT: note_on channel=9 note=35 velocity=85 time=0.005040322916666667
EXTRACT: note_on channel=9 note=76 velocity=80 time=0
EXTRACT: note_on channel=12 note=23 velocity=85 time=0
EXTRACT: note_on channel=9 note=82 velocity=0 time=0.0025201614583333335
EXTRACT: note_on channel=9 note=63 velocity=0 time=0
EXTRACT: note_on channel=9 note=46 velocity=0 time=0
EXTRACT: note_on channel=9 note=86 velocity=0 time=0.0025201614583333335
EXTRACT: note_on channel=9 note=35 velocity=0 time=0.005040322916666667
EXTRACT: note_on channel=9 note=76 velocity=0 time=0
EXTRACT: note_on channel=10 note=56 velocity=0 time=0.0025201614583333335
EXTRACT: note_on channel=12 note=23 velocity=0 time=0.020161291666666668
EXTRACT: note_on channel=3 note=70 velocity=0 time=0.040322583333333335
EXTRACT: note_on channel=9 note=82 velocity=43 time=0.040322583333333335
EXTRACT: note_on channel=9 note=86 velocity=91 time=0.0025201614583333335
EXTRACT: note_on channel=9 note=82 velocity=0 time=0.007560484375000001
EXTRACT: note_on channel=9 note=86 velocity=0 time=0.0025201614583333335
EXTRACT: note_on channel=13 note=36 velocity=0 time=0.09324597395833334
EXTRACT: note_on channel=1 note=24 velocity=0 time=0
EXTRACT: note_on channel=2 note=36 velocity=0 time=0
EXTRACT: note_on channel=9 note=86 velocity=113 time=0.007560484375000001
EXTRACT: note_on channel=4 note=65 velocity=107 time=0.007560484375000001
EXTRACT: note_on channel=4 note=72 velocity=118 time=0
EXTRACT: note_on channel=5 note=56 velocity=107 time=0
EXTRACT: note_on channel=6 note=60 velocity=114 time=0
EXTRACT: note_on channel=7 note=65 velocity=93 time=0
EXTRACT: note_on channel=7 note=68 velocity=102 time=0
EXTRACT: note_on channel=7 note=72 velocity=102 time=0
EXTRACT: note_on channel=9 note=59 velocity=70 time=0
EXTRACT: note_on channel=9 note=64 velocity=102 time=0
EXTRACT: note_on channel=9 note=82 velocity=79 time=0
EXTRACT: note_on channel=15 note=56 velocity=1 time=0
EXTRACT: note_on channel=15 note=60 velocity=1 time=0
EXTRACT: note_on channel=15 note=65 velocity=1 time=0
EXTRACT: note_on channel=15 note=72 velocity=1 time=0
EXTRACT: note_on channel=9 note=86 velocity=0 time=0.0025201614583333335
EXTRACT: note_on channel=1 note=32 velocity=100 time=0
EXTRACT: note_on channel=2 note=44 velocity=106 time=0
EXTRACT: note_on channel=10 note=60 velocity=93 time=0
EXTRACT: note_on channel=13 note=44 velocity=92 time=0
EXTRACT: note_on channel=10 note=58 velocity=0 time=0.0025201614583333335
EXTRACT: note_on channel=9 note=35 velocity=107 time=0
EXTRACT: note_on channel=12 note=23 velocity=107 time=0
EXTRACT: note_on channel=9 note=64 velocity=0 time=0.005040322916666667
EXTRACT: note_on channel=9 note=59 velocity=0 time=0
EXTRACT: note_on channel=9 note=82 velocity=0 time=0
EXTRACT: note_on channel=9 note=35 velocity=0 time=0.005040322916666667
EXTRACT: note_on channel=7 note=72 velocity=0 time=0.022681453125
EXTRACT: note_on channel=15 note=72 velocity=0 time=0
EXTRACT: note_on channel=15 note=60 velocity=0 time=0
EXTRACT: note_on channel=6 note=60 velocity=0 time=0
EXTRACT: note_on channel=7 note=65 velocity=0 time=0
EXTRACT: note_on channel=4 note=65 velocity=0 time=0
EXTRACT: note_on channel=4 note=72 velocity=0 time=0
EXTRACT: note_on channel=12 note=23 velocity=0 time=0
EXTRACT: note_on channel=5 note=56 velocity=0 time=0
EXTRACT: note_on channel=7 note=68 velocity=0 time=0
EXTRACT: note_on channel=15 note=65 velocity=0 time=0
EXTRACT: note_on channel=15 note=56 velocity=0 time=0
EXTRACT: note_on channel=5 note=56 velocity=102 time=0.08064516666666667
EXTRACT: note_on channel=6 note=60 velocity=113 time=0
EXTRACT: note_on channel=9 note=86 velocity=119 time=0
EXTRACT: note_on channel=15 note=56 velocity=1 time=0
EXTRACT: note_on channel=15 note=60 velocity=1 time=0
EXTRACT: note_on channel=4 note=65 velocity=93 time=0.0025201614583333335
EXTRACT: note_on channel=4 note=72 velocity=113 time=0
EXTRACT: note_on channel=7 note=65 velocity=76 time=0
EXTRACT: note_on channel=7 note=68 velocity=89 time=0
EXTRACT: note_on channel=7 note=72 velocity=98 time=0
EXTRACT: note_on channel=9 note=82 velocity=67 time=0
EXTRACT: note_on channel=15 note=65 velocity=1 time=0
EXTRACT: note_on channel=15 note=72 velocity=1 time=0
EXTRACT: note_on channel=9 note=86 velocity=0 time=0.007560484375000001
EXTRACT: note_on channel=9 note=82 velocity=0 time=0.0025201614583333335
EXTRACT: note_on channel=15 note=60 velocity=0 time=0.025201614583333334
EXTRACT: note_on channel=15 note=56 velocity=0 time=0
EXTRACT: note_on channel=6 note=60 velocity=0 time=0
EXTRACT: note_on channel=5 note=56 velocity=0 time=0
EXTRACT: note_on channel=15 note=65 velocity=0 time=0.0025201614583333335
EXTRACT: note_on channel=4 note=65 velocity=0 time=0
EXTRACT: note_on channel=15 note=72 velocity=0 time=0
EXTRACT: note_on channel=4 note=72 velocity=0 time=0
EXTRACT: note_on channel=7 note=65 velocity=0 time=0
EXTRACT: note_on channel=7 note=72 velocity=0 time=0
EXTRACT: note_on channel=7 note=68 velocity=0 time=0
EXTRACT: note_on channel=5 note=56 velocity=72 time=0.08064516666666667
EXTRACT: note_on channel=6 note=60 velocity=107 time=0
EXTRACT: note_on channel=15 note=56 velocity=1 time=0
EXTRACT: note_on channel=15 note=60 velocity=1 time=0
EXTRACT: note_on channel=4 note=65 velocity=107 time=0.0025201614583333335
EXTRACT: note_on channel=4 note=72 velocity=102 time=0
EXTRACT: note_on channel=7 note=65 velocity=56 time=0
EXTRACT: note_on channel=7 note=68 velocity=89 time=0
EXTRACT: note_on channel=7 note=72 velocity=89 time=0
EXTRACT: note_on channel=9 note=46 velocity=60 time=0
EXTRACT: note_on channel=9 note=63 velocity=98 time=0
EXTRACT: note_on channel=9 note=82 velocity=54 time=0
EXTRACT: note_on channel=15 note=65 velocity=1 time=0
EXTRACT: note_on channel=15 note=72 velocity=1 time=0
EXTRACT: note_on channel=9 note=82 velocity=0 time=0.010080645833333334
EXTRACT: note_on channel=9 note=63 velocity=0 time=0
EXTRACT: note_on channel=9 note=46 velocity=0 time=0
EXTRACT: note_on channel=15 note=56 velocity=0 time=0.025201614583333334
EXTRACT: note_on channel=6 note=60 velocity=0 time=0
EXTRACT: note_on channel=15 note=60 velocity=0 time=0
EXTRACT: note_on channel=5 note=56 velocity=0 time=0
EXTRACT: note_on channel=15 note=65 velocity=0 time=0.0025201614583333335
EXTRACT: note_on channel=4 note=72 velocity=0 time=0
EXTRACT: note_on channel=4 note=65 velocity=0 time=0
EXTRACT: note_on channel=15 note=72 velocity=0 time=0
EXTRACT: note_on channel=7 note=65 velocity=0 time=0
EXTRACT: note_on channel=7 note=68 velocity=0 time=0
EXTRACT: note_on channel=7 note=72 velocity=0 time=0
EXTRACT: note_on channel=13 note=44 velocity=0 time=0.040322583333333335
EXTRACT: note_on channel=1 note=32 velocity=0 time=0
EXTRACT: note_on channel=2 note=44 velocity=0 time=0
EXTRACT: note_on channel=1 note=29 velocity=106 time=0.027721776041666667
EXTRACT: note_on channel=2 note=41 velocity=112 time=0
EXTRACT: note_on channel=13 note=41 velocity=98 time=0
EXTRACT: note_on channel=5 note=56 velocity=107 time=0.012600807291666667
EXTRACT: note_on channel=6 note=60 velocity=113 time=0
EXTRACT: note_on channel=15 note=56 velocity=1 time=0
EXTRACT: note_on channel=15 note=60 velocity=1 time=0
EXTRACT: note_on channel=4 note=65 velocity=93 time=0.0025201614583333335
EXTRACT: note_on channel=4 note=72 velocity=102 time=0
EXTRACT: note_on channel=7 note=65 velocity=47 time=0
EXTRACT: note_on channel=7 note=68 velocity=107 time=0
EXTRACT: note_on channel=7 note=72 velocity=102 time=0
EXTRACT: note_on channel=9 note=82 velocity=42 time=0
EXTRACT: note_on channel=15 note=65 velocity=1 time=0
EXTRACT: note_on channel=15 note=72 velocity=1 time=0
EXTRACT: note_on channel=9 note=82 velocity=0 time=0.010080645833333334
EXTRACT: note_on channel=9 note=76 velocity=80 time=0.012600807291666667
EXTRACT: note_on channel=9 note=76 velocity=0 time=0.010080645833333334
EXTRACT: note_on channel=15 note=56 velocity=0 time=0.0025201614583333335
EXTRACT: note_on channel=15 note=60 velocity=0 time=0
EXTRACT: note_on channel=6 note=60 velocity=0 time=0
EXTRACT: note_on channel=5 note=56 velocity=0 time=0
EXTRACT: note_on channel=15 note=72 velocity=0 time=0.0025201614583333335
EXTRACT: note_on channel=4 note=72 velocity=0 time=0
EXTRACT: note_on channel=4 note=65 velocity=0 time=0
EXTRACT: note_on channel=7 note=65 velocity=0 time=0
EXTRACT: note_on channel=7 note=68 velocity=0 time=0
EXTRACT: note_on channel=15 note=65 velocity=0 time=0
EXTRACT: note_on channel=7 note=72 velocity=0 time=0
EXTRACT: note_on channel=5 note=56 velocity=93 time=0.08064516666666667
EXTRACT: note_on channel=6 note=60 velocity=113 time=0
EXTRACT: note_on channel=15 note=56 velocity=1 time=0
EXTRACT: note_on channel=15 note=60 velocity=1 time=0
EXTRACT: note_on channel=4 note=65 velocity=119 time=0.0025201614583333335
EXTRACT: note_on channel=4 note=72 velocity=120 time=0
EXTRACT: note_on channel=7 note=65 velocity=75 time=0
EXTRACT: note_on channel=7 note=68 velocity=75 time=0
EXTRACT: note_on channel=7 note=72 velocity=75 time=0
EXTRACT: note_on channel=9 note=59 velocity=70 time=0
EXTRACT: note_on channel=9 note=62 velocity=113 time=0
EXTRACT: note_on channel=9 note=82 velocity=79 time=0
EXTRACT: note_on channel=15 note=65 velocity=1 time=0
EXTRACT: note_on channel=15 note=72 velocity=1 time=0
EXTRACT: note_on channel=9 note=40 velocity=120 time=0.005040322916666667
EXTRACT: note_on channel=9 note=82 velocity=0 time=0.005040322916666667
EXTRACT: note_on channel=9 note=62 velocity=0 time=0
EXTRACT: note_on channel=9 note=59 velocity=0 time=0
EXTRACT: note_on channel=9 note=40 velocity=0 time=0.005040322916666667
EXTRACT: note_on channel=9 note=82 velocity=68 time=0.10584678125000001
EXTRACT: note_on channel=9 note=82 velocity=0 time=0.010080645833333334
EXTRACT: note_on channel=15 note=65 velocity=0 time=0.060483875000000006
EXTRACT: note_on channel=4 note=65 velocity=0 time=0
EXTRACT: note_on channel=15 note=72 velocity=0 time=0
EXTRACT: note_on channel=4 note=72 velocity=0 time=0
EXTRACT: note_on channel=5 note=56 velocity=0 time=0.012600807291666667
EXTRACT: note_on channel=6 note=60 velocity=0 time=0
EXTRACT: note_on channel=13 note=41 velocity=0 time=0
EXTRACT: note_on channel=15 note=56 velocity=0 time=0
EXTRACT: note_on channel=1 note=29 velocity=0 time=0
EXTRACT: note_on channel=15 note=60 velocity=0 time=0
EXTRACT: note_on channel=2 note=41 velocity=0 time=0
EXTRACT: note_on channel=7 note=65 velocity=0 time=0.0025201614583333335
EXTRACT: note_on channel=7 note=72 velocity=0 time=0
EXTRACT: note_on channel=7 note=68 velocity=0 time=0.015120968750000002
EXTRACT: note_on channel=1 note=24 velocity=94 time=0.0025201614583333335
EXTRACT: note_on channel=2 note=36 velocity=100 time=0
EXTRACT: note_on channel=13 note=36 velocity=86 time=0
EXTRACT: note_on channel=9 note=86 velocity=119 time=0.007560484375000001
EXTRACT: note_on channel=5 note=56 velocity=93 time=0.007560484375000001
EXTRACT: note_on channel=6 note=60 velocity=102 time=0
EXTRACT: note_on channel=15 note=56 velocity=1 time=0
EXTRACT: note_on channel=15 note=60 velocity=1 time=0
EXTRACT: note_on channel=9 note=86 velocity=0 time=0.0025201614583333335
EXTRACT: note_on channel=4 note=72 velocity=114 time=0
EXTRACT: note_on channel=7 note=65 velocity=89 time=0
EXTRACT: note_on channel=7 note=68 velocity=89 time=0
EXTRACT: note_on channel=7 note=72 velocity=89 time=0
EXTRACT: note_on channel=9 note=46 velocity=50 time=0
EXTRACT: note_on channel=9 note=61 velocity=107 time=0
EXTRACT: note_on channel=9 note=82 velocity=54 time=0
EXTRACT: note_on channel=15 note=72 velocity=1 time=0
EXTRACT: note_on channel=9 note=82 velocity=0 time=0.010080645833333334
EXTRACT: note_on channel=9 note=61 velocity=0 time=0
EXTRACT: note_on channel=9 note=46 velocity=0 time=0
EXTRACT: note_on channel=9 note=76 velocity=80 time=0.0025201614583333335
EXTRACT: note_on channel=9 note=76 velocity=0 time=0.010080645833333334
EXTRACT: note_on channel=9 note=86 velocity=104 time=0.08568548958333334
EXTRACT: note_on channel=7 note=65 velocity=0 time=0.007560484375000001
EXTRACT: note_on channel=9 note=86 velocity=0 time=0.0025201614583333335
EXTRACT: note_on channel=7 note=72 velocity=0 time=0.0025201614583333335
EXTRACT: note_on channel=9 note=61 velocity=102 time=0
EXTRACT: note_on channel=9 note=82 velocity=45 time=0
EXTRACT: note_on channel=7 note=68 velocity=0 time=0.0025201614583333335
EXTRACT: note_on channel=9 note=35 velocity=98 time=0.005040322916666667
EXTRACT: note_on channel=12 note=23 velocity=98 time=0
EXTRACT: note_on channel=9 note=82 velocity=0 time=0.0025201614583333335
EXTRACT: note_on channel=9 note=61 velocity=0 time=0
EXTRACT: note_on channel=9 note=35 velocity=0 time=0.007560484375000001
EXTRACT: note_on channel=12 note=23 velocity=0 time=0.022681453125
EXTRACT: note_on channel=15 note=72 velocity=0 time=0.022681453125
EXTRACT: note_on channel=4 note=72 velocity=0 time=0
EXTRACT: note_on channel=15 note=56 velocity=0 time=0.012600807291666667
EXTRACT: note_on channel=5 note=56 velocity=0 time=0
EXTRACT: note_on channel=15 note=60 velocity=0 time=0.010080645833333334
EXTRACT: note_on channel=6 note=60 velocity=0 time=0
EXTRACT: note_on channel=9 note=86 velocity=108 time=0.022681453125
EXTRACT: note_on channel=9 note=86 velocity=0 time=0.010080645833333334
EXTRACT: note_on channel=9 note=59 velocity=70 time=0.0025201614583333335
EXTRACT: note_on channel=9 note=82 velocity=78 time=0
EXTRACT: note_on channel=9 note=82 velocity=0 time=0.010080645833333334
EXTRACT: note_on channel=9 note=59 velocity=0 time=0
EXTRACT: note_on channel=10 note=60 velocity=0 time=0.04284274479166667
EXTRACT: note_on channel=9 note=86 velocity=104 time=0.060483875000000006
EXTRACT: note_on channel=9 note=61 velocity=98 time=0.007560484375000001
EXTRACT: note_on channel=9 note=82 velocity=68 time=0
EXTRACT: note_on channel=9 note=86 velocity=0 time=0.0025201614583333335
EXTRACT: note_on channel=9 note=35 velocity=85 time=0
EXTRACT: note_on channel=12 note=23 velocity=85 time=0
EXTRACT: note_on channel=9 note=61 velocity=0 time=0.007560484375000001
EXTRACT: note_on channel=9 note=82 velocity=0 time=0
EXTRACT: note_on channel=9 note=35 velocity=0 time=0.0025201614583333335
EXTRACT: note_on channel=12 note=23 velocity=0 time=0.022681453125
EXTRACT: note_on channel=1 note=32 velocity=100 time=0.07308468229166667
EXTRACT: note_on channel=2 note=44 velocity=106 time=0
EXTRACT: note_on channel=13 note=44 velocity=92 time=0
EXTRACT: note_on channel=13 note=36 velocity=0 time=0.005040322916666667
EXTRACT: note_on channel=1 note=24 velocity=0 time=0
EXTRACT: note_on channel=2 note=36 velocity=0 time=0
EXTRACT: note_on channel=5 note=56 velocity=102 time=0.005040322916666667
EXTRACT: note_on channel=6 note=60 velocity=107 time=0
EXTRACT: note_on channel=10 note=60 velocity=93 time=0
EXTRACT: note_on channel=15 note=56 velocity=1 time=0
EXTRACT: note_on channel=15 note=60 velocity=1 time=0
EXTRACT: note_on channel=4 note=72 velocity=115 time=0.0025201614583333335
EXTRACT: note_on channel=7 note=65 velocity=89 time=0
EXTRACT: note_on channel=7 note=68 velocity=93 time=0
EXTRACT: note_on channel=7 note=72 velocity=98 time=0
EXTRACT: note_on channel=9 note=46 velocity=60 time=0
EXTRACT: note_on channel=9 note=82 velocity=58 time=0
EXTRACT: note_on channel=15 note=72 velocity=1 time=0
EXTRACT: note_on channel=9 note=35 velocity=93 time=0.0025201614583333335
EXTRACT: note_on channel=12 note=23 velocity=93 time=0
EXTRACT: note_on channel=9 note=82 velocity=0 time=0.007560484375000001
EXTRACT: note_on channel=9 note=46 velocity=0 time=0
EXTRACT: note_on channel=9 note=35 velocity=0 time=0.0025201614583333335
EXTRACT: note_on channel=12 note=23 velocity=0 time=0.022681453125
EXTRACT: note_on channel=9 note=61 velocity=98 time=0.08568548958333334
EXTRACT: note_on channel=9 note=82 velocity=42 time=0
EXTRACT: note_on channel=9 note=82 velocity=0 time=0.010080645833333334
EXTRACT: note_on channel=9 note=61 velocity=0 time=0
EXTRACT: note_on channel=7 note=68 velocity=0 time=0.0025201614583333335
EXTRACT: note_on channel=7 note=65 velocity=0 time=0.0025201614583333335
EXTRACT: note_on channel=9 note=76 velocity=80 time=0.010080645833333334
EXTRACT: note_on channel=7 note=72 velocity=0 time=0.005040322916666667
EXTRACT: note_on channel=9 note=76 velocity=0 time=0.005040322916666667
EXTRACT: note_on channel=15 note=56 velocity=0 time=0.06552419791666667
EXTRACT: note_on channel=5 note=56 velocity=0 time=0
EXTRACT: note_on channel=4 note=72 velocity=0 time=0.005040322916666667
EXTRACT: note_on channel=15 note=72 velocity=0 time=0
EXTRACT: note_on channel=6 note=60 velocity=0 time=0.0025201614583333335
EXTRACT: note_on channel=15 note=60 velocity=0 time=0
EXTRACT: note_on channel=2 note=44 velocity=0 time=0.0025201614583333335
EXTRACT: note_on channel=1 note=32 velocity=0 time=0
EXTRACT: note_on channel=13 note=44 velocity=0 time=0
EXTRACT: note_on channel=1 note=29 velocity=100 time=0.0025201614583333335
EXTRACT: note_on channel=2 note=41 velocity=106 time=0
EXTRACT: note_on channel=13 note=41 velocity=92 time=0
EXTRACT: note_on channel=9 note=40 velocity=120 time=0.005040322916666667
EXTRACT: note_on channel=10 note=61 velocity=93 time=0
EXTRACT: note_on channel=9 note=59 velocity=70 time=0.0025201614583333335
EXTRACT: note_on channel=9 note=62 velocity=113 time=0
EXTRACT: note_on channel=9 note=82 velocity=78 time=0
EXTRACT: note_on channel=9 note=40 velocity=0 time=0.007560484375000001
EXTRACT: note_on channel=10 note=60 velocity=0 time=0.0025201614583333335
EXTRACT: note_on channel=9 note=82 velocity=0 time=0
EXTRACT: note_on channel=9 note=62 velocity=0 time=0
EXTRACT: note_on channel=9 note=59 velocity=0 time=0
EXTRACT: note_on channel=9 note=82 velocity=64 time=0.11088710416666667
EXTRACT: note_on channel=9 note=82 velocity=0 time=0.010080645833333334
EXTRACT: note_on channel=2 note=41 velocity=0 time=0.10080645833333333
EXTRACT: note_on channel=1 note=29 velocity=0 time=0
EXTRACT: note_on channel=13 note=41 velocity=0 time=0
EXTRACT: note_on channel=1 note=24 velocity=100 time=0.0025201614583333335
EXTRACT: note_on channel=2 note=36 velocity=106 time=0
EXTRACT: note_on channel=13 note=36 velocity=92 time=0
EXTRACT: note_on channel=10 note=61 velocity=0 time=0.005040322916666667
EXTRACT: note_on channel=5 note=53 velocity=93 time=0
EXTRACT: note_on channel=6 note=56 velocity=110 time=0
EXTRACT: note_on channel=10 note=60 velocity=93 time=0
EXTRACT: note_on channel=15 note=53 velocity=1 time=0
EXTRACT: note_on channel=15 note=56 velocity=1 time=0
EXTRACT: note_on channel=4 note=68 velocity=113 time=0.0025201614583333335
EXTRACT: note_on channel=7 note=68 velocity=80 time=0
EXTRACT: note_on channel=9 note=46 velocity=55 time=0
EXTRACT: note_on channel=9 note=63 velocity=107 time=0
EXTRACT: note_on channel=9 note=82 velocity=51 time=0
EXTRACT: note_on channel=15 note=68 velocity=1 time=0
EXTRACT: note_on channel=9 note=35 velocity=93 time=0.0025201614583333335
EXTRACT: note_on channel=12 note=23 velocity=93 time=0
EXTRACT: note_on channel=9 note=86 velocity=113 time=0.0025201614583333335
EXTRACT: note_on channel=9 note=82 velocity=0 time=0.005040322916666667
EXTRACT: note_on channel=9 note=63 velocity=0 time=0
EXTRACT: note_on channel=9 note=46 velocity=0 time=0
EXTRACT: note_on channel=9 note=35 velocity=0 time=0.0025201614583333335
EXTRACT: note_on channel=9 note=76 velocity=80 time=0
EXTRACT: note_on channel=9 note=86 velocity=0 time=0.0025201614583333335
EXTRACT: note_on channel=9 note=76 velocity=0 time=0.007560484375000001
EXTRACT: note_on channel=12 note=23 velocity=0 time=0.012600807291666667
EXTRACT: note_on channel=9 note=82 velocity=43 time=0.08568548958333334
EXTRACT: note_on channel=9 note=86 velocity=82 time=0
EXTRACT: note_on channel=9 note=86 velocity=0 time=0.010080645833333334
EXTRACT: note_on channel=9 note=82 velocity=0 time=0
EXTRACT: note_on channel=5 note=53 velocity=0 time=0.09324597395833334
EXTRACT: note_on channel=15 note=53 velocity=0 time=0
EXTRACT: note_on channel=10 note=60 velocity=0 time=0
EXTRACT: note_on channel=13 note=36 velocity=0 time=0.007560484375000001
EXTRACT: note_on channel=1 note=24 velocity=0 time=0
EXTRACT: note_on channel=2 note=36 velocity=0 time=0
EXTRACT: note_on channel=1 note=31 velocity=106 time=0.0025201614583333335
EXTRACT: note_on channel=2 note=43 velocity=112 time=0
EXTRACT: note_on channel=13 note=43 velocity=98 time=0
EXTRACT: note_on channel=5 note=55 velocity=98 time=0.005040322916666667
EXTRACT: note_on channel=6 note=58 velocity=100 time=0
EXTRACT: note_on channel=6 note=72 velocity=80 time=0
EXTRACT: note_on channel=9 note=35 velocity=102 time=0
EXTRACT: note_on channel=9 note=86 velocity=119 time=0
EXTRACT: note_on channel=10 note=58 velocity=72 time=0
EXTRACT: note_on channel=12 note=23 velocity=102 time=0
EXTRACT: note_on channel=15 note=55 velocity=1 time=0
EXTRACT: note_on channel=15 note=58 velocity=1 time=0
EXTRACT: note_on channel=15 note=72 velocity=1 time=0
EXTRACT: note_on channel=15 note=56 velocity=0 time=0.0025201614583333335
EXTRACT: note_on channel=6 note=56 velocity=0 time=0
EXTRACT: note_on channel=4 note=70 velocity=113 time=0
EXTRACT: note_on channel=7 note=70 velocity=87 time=0
EXTRACT: note_on channel=9 note=59 velocity=70 time=0
EXTRACT: note_on channel=9 note=64 velocity=102 time=0
EXTRACT: note_on channel=9 note=82 velocity=79 time=0
EXTRACT: note_on channel=15 note=70 velocity=1 time=0
EXTRACT: note_on channel=9 note=86 velocity=0 time=0.007560484375000001
EXTRACT: note_on channel=9 note=35 velocity=0 time=0
EXTRACT: note_on channel=9 note=82 velocity=0 time=0.0025201614583333335
EXTRACT: note_on channel=9 note=64 velocity=0 time=0
EXTRACT: note_on channel=9 note=59 velocity=0 time=0
EXTRACT: note_on channel=7 note=68 velocity=0 time=0.0025201614583333335
EXTRACT: note_on channel=15 note=68 velocity=0 time=0.005040322916666667
EXTRACT: note_on channel=4 note=68 velocity=0 time=0
EXTRACT: note_on channel=12 note=23 velocity=0 time=0.012600807291666667
EXTRACT: note_on channel=9 note=82 velocity=67 time=0.0907258125
EXTRACT: note_on channel=9 note=86 velocity=104 time=0.005040322916666667
EXTRACT: note_on channel=9 note=82 velocity=0 time=0.005040322916666667
EXTRACT: note_on channel=9 note=86 velocity=0 time=0.005040322916666667
EXTRACT: note_on channel=9 note=46 velocity=60 time=0.10584678125000001
EXTRACT: note_on channel=9 note=63 velocity=113 time=0
EXTRACT: note_on channel=9 note=82 velocity=54 time=0
EXTRACT: note_on channel=9 note=82 velocity=0 time=0.010080645833333334
EXTRACT: note_on channel=9 note=63 velocity=0 time=0
EXTRACT: note_on channel=9 note=46 velocity=0 time=0
EXTRACT: note_on channel=13 note=43 velocity=0 time=0.05796371354166667
EXTRACT: note_on channel=1 note=31 velocity=0 time=0
EXTRACT: note_on channel=2 note=43 velocity=0 time=0
EXTRACT: note_on channel=1 note=28 velocity=100 time=0.03276209895833333
EXTRACT: note_on channel=2 note=40 velocity=106 time=0
EXTRACT: note_on channel=13 note=40 velocity=92 time=0
EXTRACT: note_on channel=9 note=82 velocity=42 time=0.020161291666666668
EXTRACT: note_on channel=9 note=82 velocity=0 time=0.010080645833333334
EXTRACT: note_on channel=9 note=76 velocity=80 time=0.015120968750000002
EXTRACT: note_on channel=9 note=76 velocity=0 time=0.010080645833333334
EXTRACT: note_on channel=15 note=70 velocity=0 time=0.05544355208333333
EXTRACT: note_on channel=4 note=70 velocity=0 time=0
EXTRACT: note_on channel=7 note=70 velocity=0 time=0.022681453125
EXTRACT: note_on channel=15 note=55 velocity=0 time=0.0025201614583333335
EXTRACT: note_on channel=5 note=55 velocity=0 time=0
EXTRACT: note_on channel=5 note=52 velocity=93 time=0.0025201614583333335
EXTRACT: note_on channel=6 note=55 velocity=102 time=0
EXTRACT: note_on channel=6 note=70 velocity=76 time=0
EXTRACT: note_on channel=9 note=40 velocity=120 time=0
EXTRACT: note_on channel=10 note=55 velocity=89 time=0
EXTRACT: note_on channel=15 note=52 velocity=1 time=0
EXTRACT: note_on channel=15 note=55 velocity=1 time=0
EXTRACT: note_on channel=15 note=70 velocity=1 time=0
EXTRACT: note_on channel=6 note=58 velocity=0 time=0.0025201614583333335
EXTRACT: note_on channel=15 note=58 velocity=0 time=0
EXTRACT: note_on channel=4 note=67 velocity=107 time=0
EXTRACT: note_on channel=7 note=67 velocity=84 time=0
EXTRACT: note_on channel=9 note=59 velocity=70 time=0
EXTRACT: note_on channel=9 note=62 velocity=119 time=0
EXTRACT: note_on channel=9 note=82 velocity=79 time=0
EXTRACT: note_on channel=15 note=67 velocity=1 time=0
EXTRACT: note_on channel=15 note=72 velocity=0 time=0.005040322916666667
EXTRACT: note_on channel=6 note=72 velocity=0 time=0
EXTRACT: note_on channel=9 note=40 velocity=0 time=0.0025201614583333335
EXTRACT: note_on channel=9 note=82 velocity=0 time=0.0025201614583333335
EXTRACT: note_on channel=9 note=62 velocity=0 time=0
EXTRACT: note_on channel=9 note=59 velocity=0 time=0
EXTRACT: note_on channel=10 note=58 velocity=0 time=0.0025201614583333335
EXTRACT: note_on channel=9 note=82 velocity=68 time=0.10836694270833334
EXTRACT: note_on channel=9 note=82 velocity=0 time=0.010080645833333334
EXTRACT: note_on channel=1 note=28 velocity=0 time=0.04284274479166667
EXTRACT: note_on channel=2 note=40 velocity=0 time=0
EXTRACT: note_on channel=13 note=40 velocity=0 time=0
EXTRACT: note_on channel=1 note=24 velocity=100 time=0.040322583333333335
EXTRACT: note_on channel=2 note=36 velocity=106 time=0
EXTRACT: note_on channel=13 note=36 velocity=92 time=0
EXTRACT: note_on channel=9 note=35 velocity=85 time=0.025201614583333334
EXTRACT: note_on channel=9 note=86 velocity=108 time=0
EXTRACT: note_on channel=12 note=23 velocity=85 time=0
EXTRACT: note_on channel=9 note=46 velocity=52 time=0.0025201614583333335
EXTRACT: note_on channel=9 note=61 velocity=107 time=0
EXTRACT: note_on channel=9 note=82 velocity=54 time=0
EXTRACT: note_on channel=9 note=86 velocity=0 time=0.007560484375000001
EXTRACT: note_on channel=9 note=35 velocity=0 time=0
EXTRACT: note_on channel=9 note=82 velocity=0 time=0.0025201614583333335
EXTRACT: note_on channel=9 note=61 velocity=0 time=0
EXTRACT: note_on channel=9 note=46 velocity=0 time=0
EXTRACT: note_on channel=9 note=76 velocity=80 time=0.0025201614583333335
EXTRACT: note_on channel=9 note=76 velocity=0 time=0.010080645833333334
EXTRACT: note_on channel=12 note=23 velocity=0 time=0.007560484375000001
EXTRACT: note_on channel=9 note=86 velocity=99 time=0.07812500520833333
EXTRACT: note_on channel=9 note=35 velocity=85 time=0.007560484375000001
EXTRACT: note_on channel=12 note=23 velocity=85 time=0
EXTRACT: note_on channel=9 note=86 velocity=0 time=0.0025201614583333335
EXTRACT: note_on channel=9 note=61 velocity=107 time=0.0025201614583333335
EXTRACT: note_on channel=9 note=82 velocity=45 time=0
EXTRACT: note_on channel=9 note=35 velocity=0 time=0.005040322916666667
EXTRACT: note_on channel=9 note=82 velocity=0 time=0.005040322916666667
EXTRACT: note_on channel=9 note=61 velocity=0 time=0
EXTRACT: note_on channel=12 note=23 velocity=0 time=0.017641130208333335
EXTRACT: note_on channel=9 note=86 velocity=108 time=0.08316532812500001
EXTRACT: note_on channel=1 note=24 velocity=0 time=0.0025201614583333335
EXTRACT: note_on channel=13 note=36 velocity=0 time=0
EXTRACT: note_on channel=2 note=36 velocity=0 time=0
EXTRACT: note_on channel=1 note=22 velocity=94 time=0
EXTRACT: note_on channel=2 note=34 velocity=100 time=0
EXTRACT: note_on channel=13 note=34 velocity=86 time=0
EXTRACT: note_on channel=5 note=48 velocity=89 time=0.005040322916666667
EXTRACT: note_on channel=6 note=52 velocity=99 time=0
EXTRACT: note_on channel=6 note=67 velocity=93 time=0
EXTRACT: note_on channel=10 note=52 velocity=86 time=0
EXTRACT: note_on channel=15 note=48 velocity=1 time=0
EXTRACT: note_on channel=6 note=70 velocity=0 time=0.0025201614583333335
EXTRACT: note_on channel=15 note=70 velocity=0 time=0
EXTRACT: note_on channel=9 note=86 velocity=0 time=0
EXTRACT: note_on channel=4 note=64 velocity=113 time=0
EXTRACT: note_on channel=7 note=64 velocity=79 time=0
EXTRACT: note_on channel=9 note=59 velocity=70 time=0
EXTRACT: note_on channel=9 note=82 velocity=78 time=0
EXTRACT: note_on channel=15 note=64 velocity=1 time=0
EXTRACT: note_on channel=7 note=67 velocity=0 time=0.007560484375000001
EXTRACT: note_on channel=15 note=55 velocity=0 time=0
EXTRACT: note_on channel=6 note=55 velocity=0 time=0
EXTRACT: note_on channel=9 note=59 velocity=0 time=0.0025201614583333335
EXTRACT: note_on channel=9 note=82 velocity=0 time=0
EXTRACT: note_on channel=10 note=55 velocity=0 time=0
EXTRACT: note_on channel=5 note=52 velocity=0 time=0.005040322916666667
EXTRACT: note_on channel=4 note=67 velocity=0 time=0.010080645833333334
EXTRACT: note_on channel=9 note=86 velocity=113 time=0.08568548958333334
EXTRACT: note_on channel=9 note=86 velocity=0 time=0.010080645833333334
EXTRACT: note_on channel=9 note=61 velocity=102 time=0
EXTRACT: note_on channel=9 note=82 velocity=68 time=0
EXTRACT: note_on channel=9 note=35 velocity=89 time=0.0025201614583333335
EXTRACT: note_on channel=12 note=23 velocity=89 time=0
EXTRACT: note_on channel=9 note=82 velocity=0 time=0.007560484375000001
EXTRACT: note_on channel=9 note=61 velocity=0 time=0
EXTRACT: note_on channel=9 note=35 velocity=0 time=0.0025201614583333335
EXTRACT: note_on channel=12 note=23 velocity=0 time=0.022681453125
EXTRACT: note_on channel=9 note=35 velocity=102 time=0.08316532812500001
EXTRACT: note_on channel=12 note=23 velocity=102 time=0
EXTRACT: note_on channel=9 note=46 velocity=60 time=0.0025201614583333335
EXTRACT: note_on channel=9 note=82 velocity=58 time=0
EXTRACT: note_on channel=9 note=35 velocity=0 time=0.007560484375000001
EXTRACT: note_on channel=9 note=82 velocity=0 time=0.0025201614583333335
EXTRACT: note_on channel=9 note=46 velocity=0 time=0
EXTRACT: note_on channel=12 note=23 velocity=0 time=0.020161291666666668
EXTRACT: note_on channel=2 note=34 velocity=0 time=0.05796371354166667
EXTRACT: note_on channel=13 note=34 velocity=0 time=0
EXTRACT: note_on channel=1 note=22 velocity=0 time=0
EXTRACT: note_on channel=1 note=24 velocity=100 time=0.020161291666666668
EXTRACT: note_on channel=2 note=36 velocity=106 time=0
EXTRACT: note_on channel=13 note=36 velocity=92 time=0
EXTRACT: note_on channel=9 note=61 velocity=107 time=0.012600807291666667
EXTRACT: note_on channel=9 note=82 velocity=42 time=0
EXTRACT: note_on channel=9 note=82 velocity=0 time=0.010080645833333334
EXTRACT: note_on channel=9 note=61 velocity=0 time=0
EXTRACT: note_on channel=9 note=76 velocity=80 time=0.012600807291666667
EXTRACT: note_on channel=9 note=76 velocity=0 time=0.010080645833333334
EXTRACT: note_on channel=7 note=64 velocity=0 time=0.07560484375
EXTRACT: note_on channel=9 note=40 velocity=120 time=0.012600807291666667
EXTRACT: note_on channel=9 note=59 velocity=70 time=0
EXTRACT: note_on channel=9 note=62 velocity=113 time=0
EXTRACT: note_on channel=9 note=82 velocity=78 time=0
EXTRACT: note_on channel=9 note=82 velocity=0 time=0.010080645833333334
EXTRACT: note_on channel=9 note=62 velocity=0 time=0
EXTRACT: note_on channel=9 note=59 velocity=0 time=0
EXTRACT: note_on channel=9 note=40 velocity=0 time=0
EXTRACT: note_on channel=15 note=64 velocity=0 time=0.04536290625
EXTRACT: note_on channel=4 note=64 velocity=0 time=0
EXTRACT: note_on channel=5 note=48 velocity=0 time=0.017641130208333335
EXTRACT: note_on channel=15 note=48 velocity=0 time=0
EXTRACT: note_on channel=6 note=52 velocity=0 time=0.0025201614583333335
EXTRACT: note_on channel=15 note=52 velocity=0 time=0
EXTRACT: note_on channel=6 note=67 velocity=0 time=0
EXTRACT: note_on channel=15 note=67 velocity=0 time=0
EXTRACT: note_on channel=9 note=82 velocity=64 time=0.04536290625
EXTRACT: note_on channel=9 note=82 velocity=0 time=0.010080645833333334
EXTRACT: note_on channel=1 note=24 velocity=0 time=0.06552419791666667
EXTRACT: note_on channel=2 note=36 velocity=0 time=0
EXTRACT: note_on channel=13 note=36 velocity=0 time=0
EXTRACT: note_on channel=1 note=28 velocity=100 time=0.025201614583333334
EXTRACT: note_on channel=2 note=40 velocity=106 time=0
EXTRACT: note_on channel=13 note=40 velocity=92 time=0
EXTRACT: note_on channel=9 note=46 velocity=53 time=0.020161291666666668
EXTRACT: note_on channel=9 note=63 velocity=102 time=0
EXTRACT: note_on channel=9 note=82 velocity=51 time=0
EXTRACT: note_on channel=9 note=35 velocity=93 time=0.0025201614583333335
EXTRACT: note_on channel=12 note=23 velocity=93 time=0
EXTRACT: note_on channel=9 note=76 velocity=80 time=0.005040322916666667
EXTRACT: note_on channel=9 note=82 velocity=0 time=0.0025201614583333335
EXTRACT: note_on channel=9 note=63 velocity=0 time=0
EXTRACT: note_on channel=9 note=46 velocity=0 time=0
EXTRACT: note_on channel=9 note=35 velocity=0 time=0.0025201614583333335
EXTRACT: note_on channel=9 note=76 velocity=0 time=0.005040322916666667
EXTRACT: note_on channel=12 note=23 velocity=0 time=0.017641130208333335
EXTRACT: note_on channel=9 note=82 velocity=43 time=0.08568548958333334
EXTRACT: note_on channel=9 note=82 velocity=0 time=0.010080645833333334
EXTRACT: note_on channel=10 note=52 velocity=0 time=0.04536290625
EXTRACT: note_on channel=13 note=40 velocity=0 time=0.04536290625
EXTRACT: note_on channel=1 note=28 velocity=0 time=0
EXTRACT: note_on channel=2 note=40 velocity=0 time=0
EXTRACT: note_on channel=4 note=65 velocity=107 time=0.020161291666666668
EXTRACT: note_on channel=4 note=72 velocity=127 time=0
EXTRACT: note_on channel=5 note=56 velocity=107 time=0
EXTRACT: note_on channel=6 note=60 velocity=119 time=0
EXTRACT: note_on channel=7 note=65 velocity=93 time=0
EXTRACT: note_on channel=7 note=68 velocity=107 time=0
EXTRACT: note_on channel=7 note=72 velocity=93 time=0
EXTRACT: note_on channel=9 note=55 velocity=60 time=0
EXTRACT: note_on channel=9 note=64 velocity=89 time=0
EXTRACT: note_on channel=9 note=82 velocity=79 time=0
EXTRACT: note_on channel=9 note=86 velocity=113 time=0
EXTRACT: note_on channel=15 note=56 velocity=1 time=0
EXTRACT: note_on channel=15 note=60 velocity=1 time=0
EXTRACT: note_on channel=15 note=65 velocity=1 time=0
EXTRACT: note_on channel=15 note=72 velocity=1 time=0
EXTRACT: note_on channel=1 note=32 velocity=99 time=0.0025201614583333335
EXTRACT: note_on channel=9 note=35 velocity=113 time=0.0025201614583333335
EXTRACT: note_on channel=12 note=23 velocity=113 time=0
EXTRACT: note_on channel=2 note=44 velocity=110 time=0.0025201614583333335
EXTRACT: note_on channel=13 note=44 velocity=94 time=0
EXTRACT: note_on channel=9 note=86 velocity=0 time=0.0025201614583333335
EXTRACT: note_on channel=9 note=82 velocity=0 time=0
EXTRACT: note_on channel=9 note=64 velocity=0 time=0
EXTRACT: note_on channel=9 note=55 velocity=0 time=0
EXTRACT: note_on channel=9 note=35 velocity=0 time=0.005040322916666667
EXTRACT: note_on channel=4 note=65 velocity=0 time=0.022681453125
EXTRACT: note_on channel=15 note=60 velocity=0 time=0
EXTRACT: note_on channel=7 note=65 velocity=0 time=0
EXTRACT: note_on channel=7 note=68 velocity=0 time=0
EXTRACT: note_on channel=4 note=72 velocity=0 time=0
EXTRACT: note_on channel=6 note=60 velocity=0 time=0
EXTRACT: note_on channel=7 note=72 velocity=0 time=0
EXTRACT: note_on channel=12 note=23 velocity=0 time=0
EXTRACT: note_on channel=5 note=56 velocity=0 time=0
EXTRACT: note_on channel=15 note=65 velocity=0 time=0
EXTRACT: note_on channel=15 note=56 velocity=0 time=0
EXTRACT: note_on channel=15 note=72 velocity=0 time=0
EXTRACT: note_on channel=10 note=60 velocity=55 time=0.04536290625
EXTRACT: note_on channel=5 note=56 velocity=102 time=0.03528226041666667
EXTRACT: note_on channel=6 note=60 velocity=113 time=0
EXTRACT: note_on channel=9 note=86 velocity=99 time=0
EXTRACT: note_on channel=15 note=56 velocity=1 time=0
EXTRACT: note_on channel=15 note=60 velocity=1 time=0
EXTRACT: note_on channel=4 note=65 velocity=93 time=0.0025201614583333335
EXTRACT: note_on channel=4 note=72 velocity=113 time=0
EXTRACT: note_on channel=7 note=65 velocity=98 time=0
EXTRACT: note_on channel=7 note=68 velocity=107 time=0
EXTRACT: note_on channel=7 note=72 velocity=107 time=0
EXTRACT: note_on channel=9 note=82 velocity=67 time=0
EXTRACT: note_on channel=15 note=65 velocity=1 time=0
EXTRACT: note_on channel=15 note=72 velocity=1 time=0
EXTRACT: note_on channel=9 note=86 velocity=0 time=0.007560484375000001
EXTRACT: note_on channel=9 note=82 velocity=0 time=0.0025201614583333335
EXTRACT: note_on channel=15 note=60 velocity=0 time=0.025201614583333334
EXTRACT: note_on channel=15 note=56 velocity=0 time=0
EXTRACT: note_on channel=6 note=60 velocity=0 time=0
EXTRACT: note_on channel=5 note=56 velocity=0 time=0
EXTRACT: note_on channel=15 note=65 velocity=0 time=0.0025201614583333335
EXTRACT: note_on channel=4 note=65 velocity=0 time=0
EXTRACT: note_on channel=15 note=72 velocity=0 time=0
EXTRACT: note_on channel=4 note=72 velocity=0 time=0
EXTRACT: note_on channel=7 note=65 velocity=0 time=0
EXTRACT: note_on channel=7 note=72 velocity=0 time=0
EXTRACT: note_on channel=7 note=68 velocity=0 time=0
EXTRACT: note_on channel=5 note=56 velocity=72 time=0.08064516666666667
EXTRACT: note_on channel=6 note=60 velocity=107 time=0
EXTRACT: note_on channel=15 note=56 velocity=1 time=0
EXTRACT: note_on channel=15 note=60 velocity=1 time=0
EXTRACT: note_on channel=4 note=65 velocity=107 time=0.0025201614583333335
EXTRACT: note_on channel=4 note=72 velocity=102 time=0
EXTRACT: note_on channel=7 note=65 velocity=85 time=0
EXTRACT: note_on channel=7 note=68 velocity=107 time=0
EXTRACT: note_on channel=7 note=72 velocity=93 time=0
EXTRACT: note_on channel=9 note=46 velocity=60 time=0
EXTRACT: note_on channel=9 note=63 velocity=89 time=0
EXTRACT: note_on channel=9 note=82 velocity=54 time=0
EXTRACT: note_on channel=15 note=65 velocity=1 time=0
EXTRACT: note_on channel=15 note=72 velocity=1 time=0
EXTRACT: note_on channel=9 note=82 velocity=0 time=0.010080645833333334
EXTRACT: note_on channel=9 note=63 velocity=0 time=0
EXTRACT: note_on channel=9 note=46 velocity=0 time=0
EXTRACT: note_on channel=15 note=56 velocity=0 time=0.025201614583333334
EXTRACT: note_on channel=6 note=60 velocity=0 time=0
EXTRACT: note_on channel=15 note=60 velocity=0 time=0
EXTRACT: note_on channel=5 note=56 velocity=0 time=0
EXTRACT: note_on channel=15 note=65 velocity=0 time=0.0025201614583333335
EXTRACT: note_on channel=4 note=72 velocity=0 time=0
EXTRACT: note_on channel=4 note=65 velocity=0 time=0
EXTRACT: note_on channel=15 note=72 velocity=0 time=0
EXTRACT: note_on channel=7 note=65 velocity=0 time=0
EXTRACT: note_on channel=7 note=68 velocity=0 time=0
EXTRACT: note_on channel=7 note=72 velocity=0 time=0
EXTRACT: note_on channel=1 note=32 velocity=0 time=0.05796371354166667
EXTRACT: note_on channel=2 note=44 velocity=0 time=0.005040322916666667
EXTRACT: note_on channel=13 note=44 velocity=0 time=0
EXTRACT: note_on channel=9 note=86 velocity=119 time=0.007560484375000001
EXTRACT: note_on channel=9 note=86 velocity=0 time=0.010080645833333334
EXTRACT: note_on channel=1 note=29 velocity=100 time=0
EXTRACT: note_on channel=2 note=41 velocity=106 time=0
EXTRACT: note_on channel=5 note=56 velocity=107 time=0
EXTRACT: note_on channel=6 note=60 velocity=113 time=0
EXTRACT: note_on channel=13 note=41 velocity=92 time=0
EXTRACT: note_on channel=15 note=56 velocity=1 time=0
EXTRACT: note_on channel=15 note=60 velocity=1 time=0
EXTRACT: note_on channel=4 note=65 velocity=93 time=0.0025201614583333335
EXTRACT: note_on channel=4 note=72 velocity=102 time=0
EXTRACT: note_on channel=7 note=65 velocity=72 time=0
EXTRACT: note_on channel=7 note=68 velocity=102 time=0
EXTRACT: note_on channel=7 note=72 velocity=93 time=0
EXTRACT: note_on channel=9 note=82 velocity=42 time=0
EXTRACT: note_on channel=15 note=65 velocity=1 time=0
EXTRACT: note_on channel=15 note=72 velocity=1 time=0
EXTRACT: note_on channel=9 note=82 velocity=0 time=0.010080645833333334
EXTRACT: note_on channel=9 note=76 velocity=80 time=0.012600807291666667
EXTRACT: note_on channel=9 note=76 velocity=0 time=0.010080645833333334
EXTRACT: note_on channel=15 note=56 velocity=0 time=0.0025201614583333335
EXTRACT: note_on channel=5 note=56 velocity=0 time=0
EXTRACT: note_on channel=15 note=60 velocity=0 time=0
EXTRACT: note_on channel=6 note=60 velocity=0 time=0
EXTRACT: note_on channel=15 note=65 velocity=0 time=0.0025201614583333335
EXTRACT: note_on channel=4 note=72 velocity=0 time=0
EXTRACT: note_on channel=15 note=72 velocity=0 time=0
EXTRACT: note_on channel=4 note=65 velocity=0 time=0
EXTRACT: note_on channel=7 note=65 velocity=0 time=0
EXTRACT: note_on channel=7 note=68 velocity=0 time=0
EXTRACT: note_on channel=7 note=72 velocity=0 time=0
EXTRACT: note_on channel=5 note=56 velocity=93 time=0.08064516666666667
EXTRACT: note_on channel=6 note=60 velocity=113 time=0
EXTRACT: note_on channel=15 note=56 velocity=1 time=0
EXTRACT: note_on channel=15 note=60 velocity=1 time=0
EXTRACT: note_on channel=4 note=65 velocity=119 time=0.0025201614583333335
EXTRACT: note_on channel=4 note=72 velocity=127 time=0
EXTRACT: note_on channel=7 note=65 velocity=79 time=0
EXTRACT: note_on channel=7 note=68 velocity=76 time=0
EXTRACT: note_on channel=7 note=72 velocity=84 time=0
EXTRACT: note_on channel=9 note=59 velocity=70 time=0
EXTRACT: note_on channel=9 note=62 velocity=113 time=0
EXTRACT: note_on channel=9 note=82 velocity=79 time=0
EXTRACT: note_on channel=15 note=65 velocity=1 time=0
EXTRACT: note_on channel=15 note=72 velocity=1 time=0
EXTRACT: note_on channel=9 note=40 velocity=120 time=0.007560484375000001
EXTRACT: note_on channel=9 note=82 velocity=0 time=0.0025201614583333335
EXTRACT: note_on channel=9 note=62 velocity=0 time=0
EXTRACT: note_on channel=9 note=59 velocity=0 time=0
EXTRACT: note_on channel=9 note=40 velocity=0 time=0.007560484375000001
EXTRACT: note_on channel=9 note=82 velocity=68 time=0.10332661979166667
EXTRACT: note_on channel=9 note=82 velocity=0 time=0.010080645833333334
EXTRACT: note_on channel=2 note=41 velocity=0 time=0.07812500520833333
EXTRACT: note_on channel=1 note=29 velocity=0 time=0
EXTRACT: note_on channel=13 note=41 velocity=0 time=0
EXTRACT: note_on channel=15 note=72 velocity=0 time=0.022681453125
EXTRACT: note_on channel=4 note=72 velocity=0 time=0
EXTRACT: note_on channel=1 note=24 velocity=100 time=0
EXTRACT: note_on channel=2 note=36 velocity=106 time=0
EXTRACT: note_on channel=13 note=36 velocity=92 time=0
EXTRACT: note_on channel=15 note=65 velocity=0 time=0.005040322916666667
EXTRACT: note_on channel=4 note=65 velocity=0 time=0
EXTRACT: note_on channel=3 note=72 velocity=101 time=0.005040322916666667
EXTRACT: note_on channel=9 note=46 velocity=56 time=0
EXTRACT: note_on channel=9 note=61 velocity=93 time=0
EXTRACT: note_on channel=9 note=82 velocity=54 time=0
EXTRACT: note_on channel=9 note=35 velocity=89 time=0.007560484375000001
EXTRACT: note_on channel=9 note=76 velocity=80 time=0
EXTRACT: note_on channel=12 note=23 velocity=89 time=0
EXTRACT: note_on channel=9 note=82 velocity=0 time=0.0025201614583333335
EXTRACT: note_on channel=9 note=61 velocity=0 time=0
EXTRACT: note_on channel=9 note=46 velocity=0 time=0
EXTRACT: note_on channel=9 note=86 velocity=108 time=0
EXTRACT: note_on channel=9 note=76 velocity=0 time=0.007560484375000001
EXTRACT: note_on channel=9 note=35 velocity=0 time=0
EXTRACT: note_on channel=9 note=86 velocity=0 time=0.0025201614583333335
EXTRACT: note_on channel=15 note=60 velocity=0 time=0.015120968750000002
EXTRACT: note_on channel=6 note=60 velocity=0 time=0
EXTRACT: note_on channel=12 note=23 velocity=0 time=0.005040322916666667
EXTRACT: note_on channel=3 note=72 velocity=0 time=0.0025201614583333335
EXTRACT: note_on channel=5 note=56 velocity=0 time=0.017641130208333335
EXTRACT: note_on channel=15 note=56 velocity=0 time=0
EXTRACT: note_on channel=7 note=68 velocity=0 time=0.010080645833333334
EXTRACT: note_on channel=7 note=65 velocity=0 time=0.015120968750000002
EXTRACT: note_on channel=7 note=72 velocity=0 time=0
EXTRACT: note_on channel=3 note=72 velocity=80 time=0.03528226041666667
EXTRACT: note_on channel=9 note=61 velocity=93 time=0
EXTRACT: note_on channel=9 note=82 velocity=45 time=0
EXTRACT: note_on channel=9 note=35 velocity=85 time=0.005040322916666667
EXTRACT: note_on channel=9 note=86 velocity=99 time=0
EXTRACT: note_on channel=12 note=23 velocity=85 time=0
EXTRACT: note_on channel=9 note=82 velocity=0 time=0.005040322916666667
EXTRACT: note_on channel=9 note=61 velocity=0 time=0
EXTRACT: note_on channel=9 note=86 velocity=0 time=0.005040322916666667
EXTRACT: note_on channel=9 note=35 velocity=0 time=0
EXTRACT: note_on channel=12 note=23 velocity=0 time=0.022681453125
EXTRACT: note_on channel=3 note=72 velocity=0 time=0.017641130208333335
EXTRACT: note_on channel=3 note=72 velocity=106 time=0.06552419791666667
EXTRACT: note_on channel=9 note=59 velocity=70 time=0
EXTRACT: note_on channel=9 note=82 velocity=78 time=0
EXTRACT: note_on channel=9 note=86 velocity=113 time=0.0025201614583333335
EXTRACT: note_on channel=9 note=82 velocity=0 time=0.007560484375000001
EXTRACT: note_on channel=9 note=59 velocity=0 time=0
EXTRACT: note_on channel=9 note=86 velocity=0 time=0.0025201614583333335
EXTRACT: note_on channel=3 note=72 velocity=0 time=0.03276209895833333
EXTRACT: note_on channel=10 note=60 velocity=0 time=0.068044359375
EXTRACT: note_on channel=3 note=72 velocity=106 time=0.007560484375000001
EXTRACT: note_on channel=9 note=61 velocity=93 time=0
EXTRACT: note_on channel=9 note=82 velocity=68 time=0
EXTRACT: note_on channel=9 note=35 velocity=85 time=0.005040322916666667
EXTRACT: note_on channel=9 note=86 velocity=108 time=0
EXTRACT: note_on channel=12 note=23 velocity=85 time=0
EXTRACT: note_on channel=9 note=82 velocity=0 time=0.005040322916666667
EXTRACT: note_on channel=9 note=61 velocity=0 time=0
EXTRACT: note_on channel=9 note=86 velocity=0 time=0.005040322916666667
EXTRACT: note_on channel=9 note=35 velocity=0 time=0
EXTRACT: note_on channel=12 note=23 velocity=0 time=0.022681453125
EXTRACT: note_on channel=3 note=72 velocity=0 time=0.010080645833333334
EXTRACT: note_on channel=1 note=32 velocity=100 time=0.06552419791666667
EXTRACT: note_on channel=2 note=44 velocity=106 time=0
EXTRACT: note_on channel=13 note=44 velocity=92 time=0
EXTRACT: note_on channel=10 note=60 velocity=93 time=0.005040322916666667
EXTRACT: note_on channel=3 note=72 velocity=102 time=0.0025201614583333335
EXTRACT: note_on channel=9 note=46 velocity=60 time=0
EXTRACT: note_on channel=9 note=82 velocity=58 time=0
EXTRACT: note_on channel=9 note=35 velocity=85 time=0.005040322916666667
EXTRACT: note_on channel=12 note=23 velocity=85 time=0
EXTRACT: note_on channel=9 note=82 velocity=0 time=0.005040322916666667
EXTRACT: note_on channel=9 note=46 velocity=0 time=0
EXTRACT: note_on channel=2 note=36 velocity=0 time=0.0025201614583333335
EXTRACT: note_on channel=13 note=36 velocity=0 time=0
EXTRACT: note_on channel=1 note=24 velocity=0 time=0
EXTRACT: note_on channel=9 note=35 velocity=0 time=0.0025201614583333335
EXTRACT: note_on channel=12 note=23 velocity=0 time=0.022681453125
EXTRACT: note_on channel=3 note=72 velocity=0 time=0.05796371354166667
EXTRACT: note_on channel=9 note=86 velocity=113 time=0.017641130208333335
EXTRACT: note_on channel=3 note=73 velocity=91 time=0.007560484375000001
EXTRACT: note_on channel=9 note=61 velocity=93 time=0
EXTRACT: note_on channel=9 note=82 velocity=42 time=0
EXTRACT: note_on channel=9 note=86 velocity=0 time=0.0025201614583333335
EXTRACT: note_on channel=9 note=82 velocity=0 time=0.007560484375000001
EXTRACT: note_on channel=9 note=61 velocity=0 time=0
EXTRACT: note_on channel=9 note=76 velocity=80 time=0.012600807291666667
EXTRACT: note_on channel=9 note=76 velocity=0 time=0.010080645833333334
EXTRACT: note_on channel=10 note=61 velocity=98 time=0.08568548958333334
EXTRACT: note_on channel=9 note=40 velocity=120 time=0.0025201614583333335
EXTRACT: note_on channel=9 note=59 velocity=70 time=0
EXTRACT: note_on channel=9 note=62 velocity=107 time=0
EXTRACT: note_on channel=9 note=82 velocity=78 time=0
EXTRACT: note_on channel=10 note=60 velocity=0 time=0.0025201614583333335
EXTRACT: note_on channel=1 note=29 velocity=106 time=0
EXTRACT: note_on channel=2 note=41 velocity=112 time=0
EXTRACT: note_on channel=13 note=41 velocity=98 time=0
EXTRACT: note_on channel=1 note=32 velocity=0 time=0.0025201614583333335
EXTRACT: note_on channel=13 note=44 velocity=0 time=0
EXTRACT: note_on channel=2 note=44 velocity=0 time=0
EXTRACT: note_on channel=9 note=62 velocity=0 time=0.005040322916666667
EXTRACT: note_on channel=9 note=59 velocity=0 time=0
EXTRACT: note_on channel=9 note=82 velocity=0 time=0
EXTRACT: note_on channel=9 note=40 velocity=0 time=0
EXTRACT: note_on channel=3 note=73 velocity=0 time=0.015120968750000002
EXTRACT: note_on channel=3 note=72 velocity=101 time=0.09576613541666668
EXTRACT: note_on channel=9 note=82 velocity=64 time=0
EXTRACT: note_on channel=9 note=82 velocity=0 time=0.010080645833333334
EXTRACT: note_on channel=2 note=41 velocity=0 time=0.10080645833333333
EXTRACT: note_on channel=1 note=29 velocity=0 time=0
EXTRACT: note_on channel=13 note=41 velocity=0 time=0
EXTRACT: note_on channel=10 note=61 velocity=0 time=0.005040322916666667
EXTRACT: note_on channel=1 note=24 velocity=100 time=0.0025201614583333335
EXTRACT: note_on channel=2 note=36 velocity=106 time=0
EXTRACT: note_on channel=10 note=60 velocity=93 time=0
EXTRACT: note_on channel=13 note=36 velocity=92 time=0
EXTRACT: note_on channel=9 note=46 velocity=56 time=0.0025201614583333335
EXTRACT: note_on channel=9 note=63 velocity=89 time=0
EXTRACT: note_on channel=9 note=82 velocity=51 time=0
EXTRACT: note_on channel=9 note=35 velocity=89 time=0.005040322916666667
EXTRACT: note_on channel=12 note=23 velocity=89 time=0
EXTRACT: note_on channel=9 note=76 velocity=80 time=0.0025201614583333335
EXTRACT: note_on channel=9 note=82 velocity=0 time=0.0025201614583333335
EXTRACT: note_on channel=9 note=63 velocity=0 time=0
EXTRACT: note_on channel=9 note=46 velocity=0 time=0
EXTRACT: note_on channel=9 note=86 velocity=108 time=0.0025201614583333335
EXTRACT: note_on channel=9 note=35 velocity=0 time=0.0025201614583333335
EXTRACT: note_on channel=9 note=76 velocity=0 time=0.0025201614583333335
EXTRACT: note_on channel=9 note=86 velocity=0 time=0.005040322916666667
EXTRACT: note_on channel=12 note=23 velocity=0 time=0.015120968750000002
EXTRACT: note_on channel=9 note=82 velocity=43 time=0.08316532812500001
EXTRACT: note_on channel=9 note=82 velocity=0 time=0.010080645833333334
EXTRACT: note_on channel=3 note=72 velocity=0 time=0
EXTRACT: note_on channel=9 note=86 velocity=95 time=0.005040322916666667
EXTRACT: note_on channel=9 note=86 velocity=0 time=0.010080645833333334
EXTRACT: note_on channel=10 note=60 velocity=0 time=0.08316532812500001
EXTRACT: note_on channel=10 note=58 velocity=89 time=0.007560484375000001
EXTRACT: note_on channel=5 note=55 velocity=107 time=0.0025201614583333335
EXTRACT: note_on channel=6 note=60 velocity=119 time=0
EXTRACT: note_on channel=15 note=55 velocity=1 time=0
EXTRACT: note_on channel=15 note=60 velocity=1 time=0
EXTRACT: note_on channel=1 note=24 velocity=0 time=0.0025201614583333335
EXTRACT: note_on channel=13 note=36 velocity=0 time=0
EXTRACT: note_on channel=2 note=36 velocity=0 time=0
EXTRACT: note_on channel=4 note=64 velocity=127 time=0
EXTRACT: note_on channel=4 note=70 velocity=107 time=0
EXTRACT: note_on channel=7 note=64 velocity=98 time=0
EXTRACT: note_on channel=7 note=67 velocity=102 time=0
EXTRACT: note_on channel=7 note=70 velocity=102 time=0
EXTRACT: note_on channel=9 note=59 velocity=70 time=0
EXTRACT: note_on channel=9 note=64 velocity=102 time=0
EXTRACT: note_on channel=9 note=82 velocity=79 time=0
EXTRACT: note_on channel=15 note=64 velocity=1 time=0
EXTRACT: note_on channel=15 note=70 velocity=1 time=0
EXTRACT: note_on channel=9 note=35 velocity=102 time=0.005040322916666667
EXTRACT: note_on channel=12 note=23 velocity=102 time=0
EXTRACT: note_on channel=9 note=86 velocity=108 time=0.0025201614583333335
EXTRACT: note_on channel=9 note=82 velocity=0 time=0.0025201614583333335
EXTRACT: note_on channel=9 note=64 velocity=0 time=0
EXTRACT: note_on channel=9 note=59 velocity=0 time=0
EXTRACT: note_on channel=1 note=31 velocity=106 time=0
EXTRACT: note_on channel=2 note=43 velocity=112 time=0
EXTRACT: note_on channel=13 note=43 velocity=98 time=0
EXTRACT: note_on channel=9 note=35 velocity=0 time=0.005040322916666667
EXTRACT: note_on channel=9 note=86 velocity=0 time=0.0025201614583333335
EXTRACT: note_on channel=6 note=60 velocity=0 time=0.017641130208333335
EXTRACT: note_on channel=15 note=60 velocity=0 time=0
EXTRACT: note_on channel=5 note=55 velocity=0 time=0
EXTRACT: note_on channel=15 note=55 velocity=0 time=0
EXTRACT: note_on channel=7 note=64 velocity=0 time=0.0025201614583333335
EXTRACT: note_on channel=4 note=64 velocity=0 time=0
EXTRACT: note_on channel=15 note=64 velocity=0 time=0
EXTRACT: note_on channel=12 note=23 velocity=0 time=0
EXTRACT: note_on channel=7 note=70 velocity=0 time=0
EXTRACT: note_on channel=4 note=70 velocity=0 time=0
EXTRACT: note_on channel=15 note=70 velocity=0 time=0
EXTRACT: note_on channel=7 note=67 velocity=0 time=0
EXTRACT: note_on channel=5 note=55 velocity=102 time=0.08064516666666667
EXTRACT: note_on channel=6 note=60 velocity=113 time=0
EXTRACT: note_on channel=15 note=55 velocity=1 time=0
EXTRACT: note_on channel=15 note=60 velocity=1 time=0
EXTRACT: note_on channel=4 note=64 velocity=113 time=0.0025201614583333335
EXTRACT: note_on channel=4 note=70 velocity=93 time=0
EXTRACT: note_on channel=7 note=64 velocity=89 time=0
EXTRACT: note_on channel=7 note=67 velocity=93 time=0
EXTRACT: note_on channel=7 note=70 velocity=93 time=0
EXTRACT: note_on channel=9 note=82 velocity=67 time=0
EXTRACT: note_on channel=15 note=64 velocity=1 time=0
EXTRACT: note_on channel=15 note=70 velocity=1 time=0
EXTRACT: note_on channel=9 note=82 velocity=0 time=0.010080645833333334
EXTRACT: note_on channel=9 note=86 velocity=113 time=0
EXTRACT: note_on channel=9 note=86 velocity=0 time=0.010080645833333334
EXTRACT: note_on channel=15 note=55 velocity=0 time=0.015120968750000002
EXTRACT: note_on channel=15 note=60 velocity=0 time=0
EXTRACT: note_on channel=6 note=60 velocity=0 time=0
EXTRACT: note_on channel=5 note=55 velocity=0 time=0
EXTRACT: note_on channel=15 note=70 velocity=0 time=0.0025201614583333335
EXTRACT: note_on channel=4 note=70 velocity=0 time=0
EXTRACT: note_on channel=4 note=64 velocity=0 time=0
EXTRACT: note_on channel=7 note=64 velocity=0 time=0
EXTRACT: note_on channel=7 note=67 velocity=0 time=0
EXTRACT: note_on channel=15 note=64 velocity=0 time=0
EXTRACT: note_on channel=7 note=70 velocity=0 time=0
EXTRACT: note_on channel=5 note=55 velocity=72 time=0.08064516666666667
EXTRACT: note_on channel=6 note=60 velocity=107 time=0
EXTRACT: note_on channel=15 note=55 velocity=1 time=0
EXTRACT: note_on channel=15 note=60 velocity=1 time=0
EXTRACT: note_on channel=4 note=64 velocity=102 time=0.0025201614583333335
EXTRACT: note_on channel=4 note=70 velocity=107 time=0
EXTRACT: note_on channel=7 note=64 velocity=76 time=0
EXTRACT: note_on channel=7 note=67 velocity=98 time=0
EXTRACT: note_on channel=7 note=70 velocity=102 time=0
EXTRACT: note_on channel=9 note=46 velocity=60 time=0
EXTRACT: note_on channel=9 note=63 velocity=98 time=0
EXTRACT: note_on channel=9 note=82 velocity=54 time=0
EXTRACT: note_on channel=15 note=64 velocity=1 time=0
EXTRACT: note_on channel=15 note=70 velocity=1 time=0
EXTRACT: note_on channel=9 note=82 velocity=0 time=0.010080645833333334
EXTRACT: note_on channel=9 note=63 velocity=0 time=0
EXTRACT: note_on channel=9 note=46 velocity=0 time=0
EXTRACT: note_on channel=15 note=55 velocity=0 time=0.025201614583333334
EXTRACT: note_on channel=6 note=60 velocity=0 time=0
EXTRACT: note_on channel=15 note=60 velocity=0 time=0
EXTRACT: note_on channel=5 note=55 velocity=0 time=0
EXTRACT: note_on channel=15 note=64 velocity=0 time=0.0025201614583333335
EXTRACT: note_on channel=4 note=70 velocity=0 time=0
EXTRACT: note_on channel=4 note=64 velocity=0 time=0
EXTRACT: note_on channel=15 note=70 velocity=0 time=0
EXTRACT: note_on channel=7 note=64 velocity=0 time=0
EXTRACT: note_on channel=7 note=67 velocity=0 time=0
EXTRACT: note_on channel=7 note=70 velocity=0 time=0
EXTRACT: note_on channel=1 note=31 velocity=0 time=0.04284274479166667
EXTRACT: note_on channel=13 note=43 velocity=0 time=0
EXTRACT: note_on channel=2 note=43 velocity=0 time=0
EXTRACT: note_on channel=1 note=27 velocity=103 time=0.03528226041666667
EXTRACT: note_on channel=2 note=39 velocity=110 time=0
EXTRACT: note_on channel=13 note=39 velocity=94 time=0
EXTRACT: note_on channel=5 note=55 velocity=107 time=0.0025201614583333335
EXTRACT: note_on channel=6 note=60 velocity=113 time=0
EXTRACT: note_on channel=15 note=55 velocity=1 time=0
EXTRACT: note_on channel=15 note=60 velocity=1 time=0
EXTRACT: note_on channel=4 note=64 velocity=102 time=0.0025201614583333335
EXTRACT: note_on channel=4 note=70 velocity=93 time=0
EXTRACT: note_on channel=7 note=64 velocity=89 time=0
EXTRACT: note_on channel=7 note=67 velocity=102 time=0
EXTRACT: note_on channel=7 note=70 velocity=107 time=0
EXTRACT: note_on channel=9 note=82 velocity=42 time=0
EXTRACT: note_on channel=15 note=64 velocity=1 time=0
EXTRACT: note_on channel=15 note=70 velocity=1 time=0
EXTRACT: note_on channel=9 note=86 velocity=113 time=0.005040322916666667
EXTRACT: note_on channel=9 note=82 velocity=0 time=0.005040322916666667
EXTRACT: note_on channel=9 note=86 velocity=0 time=0.005040322916666667
EXTRACT: note_on channel=9 note=76 velocity=80 time=0.007560484375000001
EXTRACT: note_on channel=9 note=76 velocity=0 time=0.010080645833333334
EXTRACT: note_on channel=15 note=55 velocity=0 time=0.0025201614583333335
EXTRACT: note_on channel=15 note=60 velocity=0 time=0
EXTRACT: note_on channel=6 note=60 velocity=0 time=0
EXTRACT: note_on channel=5 note=55 velocity=0 time=0
EXTRACT: note_on channel=4 note=64 velocity=0 time=0.0025201614583333335
EXTRACT: note_on channel=4 note=70 velocity=0 time=0
EXTRACT: note_on channel=15 note=70 velocity=0 time=0
EXTRACT: note_on channel=7 note=64 velocity=0 time=0
EXTRACT: note_on channel=7 note=67 velocity=0 time=0
EXTRACT: note_on channel=15 note=64 velocity=0 time=0
EXTRACT: note_on channel=7 note=70 velocity=0 time=0
EXTRACT: note_on channel=5 note=55 velocity=93 time=0.08064516666666667
EXTRACT: note_on channel=6 note=60 velocity=113 time=0
EXTRACT: note_on channel=15 note=55 velocity=1 time=0
EXTRACT: note_on channel=15 note=60 velocity=1 time=0
EXTRACT: note_on channel=4 note=64 velocity=119 time=0.0025201614583333335
EXTRACT: note_on channel=4 note=70 velocity=127 time=0
EXTRACT: note_on channel=7 note=64 velocity=75 time=0
EXTRACT: note_on channel=7 note=67 velocity=84 time=0
EXTRACT: note_on channel=7 note=70 velocity=84 time=0
EXTRACT: note_on channel=9 note=59 velocity=70 time=0
EXTRACT: note_on channel=9 note=62 velocity=107 time=0
EXTRACT: note_on channel=9 note=82 velocity=79 time=0
EXTRACT: note_on channel=15 note=64 velocity=1 time=0
EXTRACT: note_on channel=15 note=70 velocity=1 time=0
EXTRACT: note_on channel=9 note=40 velocity=120 time=0.0025201614583333335
EXTRACT: note_on channel=9 note=82 velocity=0 time=0.007560484375000001
EXTRACT: note_on channel=9 note=62 velocity=0 time=0
EXTRACT: note_on channel=9 note=59 velocity=0 time=0
EXTRACT: note_on channel=9 note=40 velocity=0 time=0.0025201614583333335
EXTRACT: note_on channel=9 note=82 velocity=68 time=0.10836694270833334
EXTRACT: note_on channel=9 note=82 velocity=0 time=0.010080645833333334
EXTRACT: note_on channel=1 note=27 velocity=0 time=0.098286296875
EXTRACT: note_on channel=13 note=39 velocity=0 time=0
EXTRACT: note_on channel=2 note=39 velocity=0 time=0
EXTRACT: note_on channel=15 note=70 velocity=0 time=0.0025201614583333335
EXTRACT: note_on channel=4 note=70 velocity=0 time=0
EXTRACT: note_on channel=1 note=24 velocity=100 time=0.0025201614583333335
EXTRACT: note_on channel=2 note=36 velocity=106 time=0
EXTRACT: note_on channel=13 note=36 velocity=91 time=0
EXTRACT: note_on channel=15 note=64 velocity=0 time=0.0025201614583333335
EXTRACT: note_on channel=4 note=64 velocity=0 time=0
EXTRACT: note_on channel=3 note=70 velocity=97 time=0.005040322916666667
EXTRACT: note_on channel=9 note=46 velocity=52 time=0
EXTRACT: note_on channel=9 note=61 velocity=102 time=0
EXTRACT: note_on channel=9 note=82 velocity=54 time=0
EXTRACT: note_on channel=9 note=86 velocity=113 time=0.005040322916666667
EXTRACT: note_on channel=9 note=82 velocity=0 time=0.005040322916666667
EXTRACT: note_on channel=9 note=61 velocity=0 time=0
EXTRACT: note_on channel=9 note=46 velocity=0 time=0
EXTRACT: note_on channel=9 note=76 velocity=80 time=0
EXTRACT: note_on channel=9 note=86 velocity=0 time=0.005040322916666667
EXTRACT: note_on channel=9 note=76 velocity=0 time=0.005040322916666667
EXTRACT: note_on channel=6 note=60 velocity=0 time=0.015120968750000002
EXTRACT: note_on channel=15 note=60 velocity=0 time=0
EXTRACT: note_on channel=3 note=70 velocity=0 time=0.007560484375000001
EXTRACT: note_on channel=15 note=55 velocity=0 time=0.017641130208333335
EXTRACT: note_on channel=5 note=55 velocity=0 time=0
EXTRACT: note_on channel=7 note=64 velocity=0 time=0.010080645833333334
EXTRACT: note_on channel=7 note=67 velocity=0 time=0
EXTRACT: note_on channel=7 note=70 velocity=0 time=0
EXTRACT: note_on channel=3 note=70 velocity=97 time=0.05040322916666667
EXTRACT: note_on channel=9 note=35 velocity=72 time=0
EXTRACT: note_on channel=9 note=61 velocity=98 time=0
EXTRACT: note_on channel=9 note=82 velocity=45 time=0
EXTRACT: note_on channel=9 note=86 velocity=82 time=0
EXTRACT: note_on channel=12 note=23 velocity=72 time=0
EXTRACT: note_on channel=9 note=86 velocity=0 time=0.010080645833333334
EXTRACT: note_on channel=9 note=82 velocity=0 time=0
EXTRACT: note_on channel=9 note=61 velocity=0 time=0
EXTRACT: note_on channel=9 note=35 velocity=0 time=0
EXTRACT: note_on channel=12 note=23 velocity=0 time=0.022681453125
EXTRACT: note_on channel=3 note=70 velocity=0 time=0.020161291666666668
EXTRACT: note_on channel=9 note=86 velocity=119 time=0.06300403645833334
EXTRACT: note_on channel=3 note=70 velocity=88 time=0.005040322916666667
EXTRACT: note_on channel=9 note=59 velocity=70 time=0
EXTRACT: note_on channel=9 note=82 velocity=78 time=0
EXTRACT: note_on channel=9 note=86 velocity=0 time=0.005040322916666667
EXTRACT: note_on channel=9 note=82 velocity=0 time=0.005040322916666667
EXTRACT: note_on channel=9 note=59 velocity=0 time=0
EXTRACT: note_on channel=3 note=70 velocity=0 time=0.037802421875
EXTRACT: note_on channel=10 note=58 velocity=0 time=0.06552419791666667
EXTRACT: note_on channel=9 note=35 velocity=102 time=0.005040322916666667
EXTRACT: note_on channel=12 note=23 velocity=102 time=0
EXTRACT: note_on channel=3 note=70 velocity=97 time=0.0025201614583333335
EXTRACT: note_on channel=9 note=61 velocity=107 time=0
EXTRACT: note_on channel=9 note=82 velocity=68 time=0
EXTRACT: note_on channel=9 note=86 velocity=113 time=0
EXTRACT: note_on channel=9 note=35 velocity=0 time=0.007560484375000001
EXTRACT: note_on channel=9 note=86 velocity=0 time=0.0025201614583333335
EXTRACT: note_on channel=9 note=82 velocity=0 time=0
EXTRACT: note_on channel=9 note=61 velocity=0 time=0
EXTRACT: note_on channel=12 note=23 velocity=0 time=0.020161291666666668
EXTRACT: note_on channel=3 note=70 velocity=0 time=0.025201614583333334
EXTRACT: note_on channel=10 note=55 velocity=93 time=0.06300403645833334
EXTRACT: note_on channel=3 note=70 velocity=102 time=0.0025201614583333335
EXTRACT: note_on channel=9 note=35 velocity=98 time=0
EXTRACT: note_on channel=9 note=46 velocity=60 time=0
EXTRACT: note_on channel=9 note=82 velocity=58 time=0
EXTRACT: note_on channel=12 note=23 velocity=98 time=0
EXTRACT: note_on channel=1 note=31 velocity=106 time=0.0025201614583333335
EXTRACT: note_on channel=2 note=43 velocity=112 time=0
EXTRACT: note_on channel=13 note=43 velocity=98 time=0
EXTRACT: note_on channel=9 note=82 velocity=0 time=0.007560484375000001
EXTRACT: note_on channel=9 note=46 velocity=0 time=0
EXTRACT: note_on channel=9 note=35 velocity=0 time=0
EXTRACT: note_on channel=1 note=24 velocity=0 time=0.015120968750000002
EXTRACT: note_on channel=2 note=36 velocity=0 time=0
EXTRACT: note_on channel=13 note=36 velocity=0 time=0
EXTRACT: note_on channel=12 note=23 velocity=0 time=0.007560484375000001
EXTRACT: note_on channel=3 note=70 velocity=0 time=0.022681453125
EXTRACT: note_on channel=9 note=86 velocity=119 time=0.06300403645833334
EXTRACT: note_on channel=3 note=72 velocity=101 time=0.0025201614583333335
EXTRACT: note_on channel=9 note=61 velocity=107 time=0
EXTRACT: note_on channel=9 note=82 velocity=42 time=0
EXTRACT: note_on channel=9 note=86 velocity=0 time=0.007560484375000001
EXTRACT: note_on channel=9 note=82 velocity=0 time=0.0025201614583333335
EXTRACT: note_on channel=9 note=61 velocity=0 time=0
EXTRACT: note_on channel=9 note=76 velocity=80 time=0.012600807291666667
EXTRACT: note_on channel=9 note=76 velocity=0 time=0.010080645833333334
EXTRACT: note_on channel=2 note=43 velocity=0 time=0.07812500520833333
EXTRACT: note_on channel=1 note=31 velocity=0 time=0
EXTRACT: note_on channel=13 note=43 velocity=0 time=0
EXTRACT: note_on channel=10 note=56 velocity=89 time=0.007560484375000001
EXTRACT: note_on channel=9 note=40 velocity=120 time=0.0025201614583333335
EXTRACT: note_on channel=9 note=59 velocity=70 time=0
EXTRACT: note_on channel=9 note=62 velocity=107 time=0
EXTRACT: note_on channel=9 note=82 velocity=78 time=0
EXTRACT: note_on channel=1 note=28 velocity=100 time=0.005040322916666667
EXTRACT: note_on channel=2 note=40 velocity=106 time=0
EXTRACT: note_on channel=13 note=40 velocity=92 time=0
EXTRACT: note_on channel=9 note=82 velocity=0 time=0.005040322916666667
EXTRACT: note_on channel=9 note=40 velocity=0 time=0
EXTRACT: note_on channel=9 note=62 velocity=0 time=0
EXTRACT: note_on channel=9 note=59 velocity=0 time=0
EXTRACT: note_on channel=10 note=55 velocity=0 time=0.005040322916666667
EXTRACT: note_on channel=3 note=72 velocity=0 time=0.007560484375000001
EXTRACT: note_on channel=3 note=70 velocity=101 time=0.098286296875
EXTRACT: note_on channel=9 note=82 velocity=64 time=0
EXTRACT: note_on channel=9 note=82 velocity=0 time=0.010080645833333334
EXTRACT: note_on channel=1 note=28 velocity=0 time=0.10584678125000001
EXTRACT: note_on channel=2 note=40 velocity=0 time=0
EXTRACT: note_on channel=13 note=40 velocity=0 time=0
EXTRACT: note_on channel=1 note=24 velocity=94 time=0.005040322916666667
EXTRACT: note_on channel=2 note=36 velocity=100 time=0
EXTRACT: note_on channel=9 note=46 velocity=47 time=0
EXTRACT: note_on channel=9 note=63 velocity=102 time=0
EXTRACT: note_on channel=9 note=82 velocity=51 time=0
EXTRACT: note_on channel=10 note=58 velocity=93 time=0
EXTRACT: note_on channel=13 note=36 velocity=86 time=0
EXTRACT: note_on channel=9 note=76 velocity=80 time=0.0025201614583333335
EXTRACT: note_on channel=9 note=86 velocity=113 time=0
EXTRACT: note_on channel=9 note=35 velocity=85 time=0.005040322916666667
EXTRACT: note_on channel=12 note=23 velocity=85 time=0
EXTRACT: note_on channel=9 note=82 velocity=0 time=0.0025201614583333335
EXTRACT: note_on channel=9 note=63 velocity=0 time=0
EXTRACT: note_on channel=9 note=46 velocity=0 time=0
EXTRACT: note_on channel=9 note=86 velocity=0 time=0.0025201614583333335
EXTRACT: note_on channel=9 note=76 velocity=0 time=0
EXTRACT: note_on channel=9 note=35 velocity=0 time=0.005040322916666667
EXTRACT: note_on channel=10 note=56 velocity=0 time=0.022681453125
EXTRACT: note_on channel=12 note=23 velocity=0 time=0
EXTRACT: note_on channel=3 note=70 velocity=0 time=0.040322583333333335
EXTRACT: note_on channel=9 note=82 velocity=43 time=0.040322583333333335
EXTRACT: note_on channel=9 note=86 velocity=91 time=0.0025201614583333335
EXTRACT: note_on channel=9 note=82 velocity=0 time=0.007560484375000001
EXTRACT: note_on channel=9 note=86 velocity=0 time=0.0025201614583333335
EXTRACT: note_on channel=13 note=36 velocity=0 time=0.09324597395833334
EXTRACT: note_on channel=1 note=24 velocity=0 time=0
EXTRACT: note_on channel=2 note=36 velocity=0 time=0
EXTRACT: note_on channel=9 note=86 velocity=113 time=0.007560484375000001
EXTRACT: note_on channel=10 note=58 velocity=0 time=0.005040322916666667
EXTRACT: note_on channel=4 note=65 velocity=107 time=0.0025201614583333335
EXTRACT: note_on channel=4 note=72 velocity=118 time=0
EXTRACT: note_on channel=5 note=56 velocity=107 time=0
EXTRACT: note_on channel=6 note=60 velocity=114 time=0
EXTRACT: note_on channel=7 note=65 velocity=93 time=0
EXTRACT: note_on channel=7 note=68 velocity=102 time=0
EXTRACT: note_on channel=7 note=72 velocity=102 time=0
EXTRACT: note_on channel=9 note=59 velocity=70 time=0
EXTRACT: note_on channel=9 note=64 velocity=102 time=0
EXTRACT: note_on channel=9 note=82 velocity=79 time=0
EXTRACT: note_on channel=10 note=60 velocity=89 time=0
EXTRACT: note_on channel=15 note=56 velocity=1 time=0
EXTRACT: note_on channel=15 note=60 velocity=1 time=0
EXTRACT: note_on channel=15 note=65 velocity=1 time=0
EXTRACT: note_on channel=15 note=72 velocity=1 time=0
EXTRACT: note_on channel=9 note=86 velocity=0 time=0.0025201614583333335
EXTRACT: note_on channel=1 note=32 velocity=100 time=0
EXTRACT: note_on channel=2 note=44 velocity=106 time=0
EXTRACT: note_on channel=13 note=44 velocity=92 time=0
EXTRACT: note_on channel=9 note=35 velocity=107 time=0.0025201614583333335
EXTRACT: note_on channel=12 note=23 velocity=107 time=0
EXTRACT: note_on channel=9 note=82 velocity=0 time=0.005040322916666667
EXTRACT: note_on channel=9 note=64 velocity=0 time=0
EXTRACT: note_on channel=9 note=59 velocity=0 time=0
EXTRACT: note_on channel=9 note=35 velocity=0 time=0.005040322916666667
EXTRACT: note_on channel=6 note=60 velocity=0 time=0.022681453125
EXTRACT: note_on channel=7 note=72 velocity=0 time=0
EXTRACT: note_on channel=15 note=56 velocity=0 time=0
EXTRACT: note_on channel=7 note=65 velocity=0 time=0
EXTRACT: note_on channel=4 note=72 velocity=0 time=0
EXTRACT: note_on channel=15 note=72 velocity=0 time=0
EXTRACT: note_on channel=4 note=65 velocity=0 time=0
EXTRACT: note_on channel=5 note=56 velocity=0 time=0
EXTRACT: note_on channel=12 note=23 velocity=0 time=0
EXTRACT: note_on channel=15 note=65 velocity=0 time=0
EXTRACT: note_on channel=15 note=60 velocity=0 time=0
EXTRACT: note_on channel=7 note=68 velocity=0 time=0
EXTRACT: note_on channel=5 note=56 velocity=102 time=0.08064516666666667
EXTRACT: note_on channel=6 note=60 velocity=113 time=0
EXTRACT: note_on channel=9 note=86 velocity=119 time=0
EXTRACT: note_on channel=15 note=56 velocity=1 time=0
EXTRACT: note_on channel=15 note=60 velocity=1 time=0
EXTRACT: note_on channel=4 note=65 velocity=93 time=0.0025201614583333335
EXTRACT: note_on channel=4 note=72 velocity=113 time=0
EXTRACT: note_on channel=7 note=65 velocity=76 time=0
EXTRACT: note_on channel=7 note=68 velocity=89 time=0
EXTRACT: note_on channel=7 note=72 velocity=98 time=0
EXTRACT: note_on channel=9 note=82 velocity=67 time=0
EXTRACT: note_on channel=15 note=65 velocity=1 time=0
EXTRACT: note_on channel=15 note=72 velocity=1 time=0
EXTRACT: note_on channel=9 note=86 velocity=0 time=0.007560484375000001
EXTRACT: note_on channel=9 note=82 velocity=0 time=0.0025201614583333335
EXTRACT: note_on channel=15 note=60 velocity=0 time=0.025201614583333334
EXTRACT: note_on channel=15 note=56 velocity=0 time=0
EXTRACT: note_on channel=6 note=60 velocity=0 time=0
EXTRACT: note_on channel=5 note=56 velocity=0 time=0
EXTRACT: note_on channel=15 note=65 velocity=0 time=0.0025201614583333335
EXTRACT: note_on channel=4 note=65 velocity=0 time=0
EXTRACT: note_on channel=15 note=72 velocity=0 time=0
EXTRACT: note_on channel=4 note=72 velocity=0 time=0
EXTRACT: note_on channel=7 note=65 velocity=0 time=0
EXTRACT: note_on channel=7 note=72 velocity=0 time=0
EXTRACT: note_on channel=7 note=68 velocity=0 time=0
EXTRACT: note_on channel=5 note=56 velocity=72 time=0.08064516666666667
EXTRACT: note_on channel=6 note=60 velocity=107 time=0
EXTRACT: note_on channel=15 note=56 velocity=1 time=0
EXTRACT: note_on channel=15 note=60 velocity=1 time=0
EXTRACT: note_on channel=4 note=65 velocity=107 time=0.0025201614583333335
EXTRACT: note_on channel=4 note=72 velocity=102 time=0
EXTRACT: note_on channel=7 note=65 velocity=56 time=0
EXTRACT: note_on channel=7 note=68 velocity=89 time=0
EXTRACT: note_on channel=7 note=72 velocity=89 time=0
EXTRACT: note_on channel=9 note=46 velocity=60 time=0
EXTRACT: note_on channel=9 note=63 velocity=98 time=0
EXTRACT: note_on channel=9 note=82 velocity=54 time=0
EXTRACT: note_on channel=15 note=65 velocity=1 time=0
EXTRACT: note_on channel=15 note=72 velocity=1 time=0
EXTRACT: note_on channel=9 note=82 velocity=0 time=0.010080645833333334
EXTRACT: note_on channel=9 note=63 velocity=0 time=0
EXTRACT: note_on channel=9 note=46 velocity=0 time=0
EXTRACT: note_on channel=15 note=56 velocity=0 time=0.025201614583333334
EXTRACT: note_on channel=6 note=60 velocity=0 time=0
EXTRACT: note_on channel=15 note=60 velocity=0 time=0
EXTRACT: note_on channel=5 note=56 velocity=0 time=0
EXTRACT: note_on channel=15 note=65 velocity=0 time=0.0025201614583333335
EXTRACT: note_on channel=4 note=72 velocity=0 time=0
EXTRACT: note_on channel=4 note=65 velocity=0 time=0
EXTRACT: note_on channel=15 note=72 velocity=0 time=0
EXTRACT: note_on channel=7 note=65 velocity=0 time=0
EXTRACT: note_on channel=7 note=68 velocity=0 time=0
EXTRACT: note_on channel=7 note=72 velocity=0 time=0
EXTRACT: note_on channel=13 note=44 velocity=0 time=0.040322583333333335
EXTRACT: note_on channel=2 note=44 velocity=0 time=0
EXTRACT: note_on channel=1 note=32 velocity=0 time=0
EXTRACT: note_on channel=1 note=29 velocity=106 time=0.027721776041666667
EXTRACT: note_on channel=2 note=41 velocity=112 time=0
EXTRACT: note_on channel=13 note=41 velocity=98 time=0
EXTRACT: note_on channel=5 note=56 velocity=107 time=0.012600807291666667
EXTRACT: note_on channel=6 note=60 velocity=113 time=0
EXTRACT: note_on channel=9 note=76 velocity=80 time=0
EXTRACT: note_on channel=15 note=56 velocity=1 time=0
EXTRACT: note_on channel=15 note=60 velocity=1 time=0
EXTRACT: note_on channel=4 note=65 velocity=93 time=0.0025201614583333335
EXTRACT: note_on channel=4 note=72 velocity=102 time=0
EXTRACT: note_on channel=7 note=65 velocity=47 time=0
EXTRACT: note_on channel=7 note=68 velocity=107 time=0
EXTRACT: note_on channel=7 note=72 velocity=102 time=0
EXTRACT: note_on channel=9 note=82 velocity=42 time=0
EXTRACT: note_on channel=15 note=65 velocity=1 time=0
EXTRACT: note_on channel=15 note=72 velocity=1 time=0
EXTRACT: note_on channel=9 note=76 velocity=0 time=0.007560484375000001
EXTRACT: note_on channel=9 note=82 velocity=0 time=0.0025201614583333335
EXTRACT: note_on channel=15 note=60 velocity=0 time=0.025201614583333334
EXTRACT: note_on channel=15 note=56 velocity=0 time=0
EXTRACT: note_on channel=6 note=60 velocity=0 time=0
EXTRACT: note_on channel=5 note=56 velocity=0 time=0
EXTRACT: note_on channel=15 note=65 velocity=0 time=0.0025201614583333335
EXTRACT: note_on channel=4 note=65 velocity=0 time=0
EXTRACT: note_on channel=15 note=72 velocity=0 time=0
EXTRACT: note_on channel=4 note=72 velocity=0 time=0
EXTRACT: note_on channel=7 note=65 velocity=0 time=0
EXTRACT: note_on channel=7 note=72 velocity=0 time=0
EXTRACT: note_on channel=7 note=68 velocity=0 time=0
EXTRACT: note_on channel=5 note=56 velocity=93 time=0.08064516666666667
EXTRACT: note_on channel=6 note=60 velocity=113 time=0
EXTRACT: note_on channel=15 note=56 velocity=1 time=0
EXTRACT: note_on channel=15 note=60 velocity=1 time=0
EXTRACT: note_on channel=4 note=65 velocity=119 time=0.0025201614583333335
EXTRACT: note_on channel=4 note=72 velocity=120 time=0
EXTRACT: note_on channel=7 note=65 velocity=75 time=0
EXTRACT: note_on channel=7 note=68 velocity=75 time=0
EXTRACT: note_on channel=7 note=72 velocity=75 time=0
EXTRACT: note_on channel=9 note=59 velocity=70 time=0
EXTRACT: note_on channel=9 note=62 velocity=113 time=0
EXTRACT: note_on channel=9 note=82 velocity=79 time=0
EXTRACT: note_on channel=15 note=65 velocity=1 time=0
EXTRACT: note_on channel=15 note=72 velocity=1 time=0
EXTRACT: note_on channel=9 note=40 velocity=120 time=0.005040322916666667
EXTRACT: note_on channel=9 note=82 velocity=0 time=0.005040322916666667
EXTRACT: note_on channel=9 note=62 velocity=0 time=0
EXTRACT: note_on channel=9 note=59 velocity=0 time=0
EXTRACT: note_on channel=9 note=40 velocity=0 time=0.005040322916666667
EXTRACT: note_on channel=9 note=82 velocity=68 time=0.10584678125000001
EXTRACT: note_on channel=9 note=82 velocity=0 time=0.010080645833333334
EXTRACT: note_on channel=15 note=65 velocity=0 time=0.060483875000000006
EXTRACT: note_on channel=4 note=65 velocity=0 time=0
EXTRACT: note_on channel=15 note=72 velocity=0 time=0
EXTRACT: note_on channel=4 note=72 velocity=0 time=0
EXTRACT: note_on channel=5 note=56 velocity=0 time=0.012600807291666667
EXTRACT: note_on channel=6 note=60 velocity=0 time=0
EXTRACT: note_on channel=13 note=41 velocity=0 time=0
EXTRACT: note_on channel=15 note=56 velocity=0 time=0
EXTRACT: note_on channel=1 note=29 velocity=0 time=0
EXTRACT: note_on channel=15 note=60 velocity=0 time=0
EXTRACT: note_on channel=2 note=41 velocity=0 time=0
EXTRACT: note_on channel=7 note=65 velocity=0 time=0.0025201614583333335
EXTRACT: note_on channel=7 note=72 velocity=0 time=0
EXTRACT: note_on channel=7 note=68 velocity=0 time=0.015120968750000002
EXTRACT: note_on channel=1 note=24 velocity=94 time=0.0025201614583333335
EXTRACT: note_on channel=2 note=36 velocity=100 time=0
EXTRACT: note_on channel=13 note=36 velocity=86 time=0
EXTRACT: note_on channel=9 note=86 velocity=119 time=0.007560484375000001
EXTRACT: note_on channel=5 note=56 velocity=93 time=0.007560484375000001
EXTRACT: note_on channel=6 note=60 velocity=102 time=0
EXTRACT: note_on channel=15 note=56 velocity=1 time=0
EXTRACT: note_on channel=15 note=60 velocity=1 time=0
EXTRACT: note_on channel=9 note=86 velocity=0 time=0.0025201614583333335
EXTRACT: note_on channel=4 note=72 velocity=114 time=0
EXTRACT: note_on channel=7 note=65 velocity=89 time=0
EXTRACT: note_on channel=7 note=68 velocity=89 time=0
EXTRACT: note_on channel=7 note=72 velocity=89 time=0
EXTRACT: note_on channel=9 note=46 velocity=50 time=0
EXTRACT: note_on channel=9 note=61 velocity=107 time=0
EXTRACT: note_on channel=9 note=82 velocity=54 time=0
EXTRACT: note_on channel=15 note=72 velocity=1 time=0
EXTRACT: note_on channel=9 note=76 velocity=80 time=0.005040322916666667
EXTRACT: note_on channel=9 note=82 velocity=0 time=0.005040322916666667
EXTRACT: note_on channel=9 note=61 velocity=0 time=0
EXTRACT: note_on channel=9 note=46 velocity=0 time=0
EXTRACT: note_on channel=9 note=76 velocity=0 time=0.005040322916666667
EXTRACT: note_on channel=9 note=86 velocity=104 time=0.09324597395833334
EXTRACT: note_on channel=7 note=65 velocity=0 time=0.007560484375000001
EXTRACT: note_on channel=9 note=86 velocity=0 time=0.0025201614583333335
EXTRACT: note_on channel=7 note=72 velocity=0 time=0.0025201614583333335
EXTRACT: note_on channel=9 note=61 velocity=102 time=0
EXTRACT: note_on channel=9 note=82 velocity=45 time=0
EXTRACT: note_on channel=7 note=68 velocity=0 time=0.0025201614583333335
EXTRACT: note_on channel=9 note=35 velocity=98 time=0.005040322916666667
EXTRACT: note_on channel=12 note=23 velocity=98 time=0
EXTRACT: note_on channel=9 note=82 velocity=0 time=0.0025201614583333335
EXTRACT: note_on channel=9 note=61 velocity=0 time=0
EXTRACT: note_on channel=9 note=35 velocity=0 time=0.007560484375000001
EXTRACT: note_on channel=12 note=23 velocity=0 time=0.022681453125
EXTRACT: note_on channel=15 note=72 velocity=0 time=0.022681453125
EXTRACT: note_on channel=4 note=72 velocity=0 time=0
EXTRACT: note_on channel=15 note=56 velocity=0 time=0.012600807291666667
EXTRACT: note_on channel=5 note=56 velocity=0 time=0
EXTRACT: note_on channel=15 note=60 velocity=0 time=0.010080645833333334
EXTRACT: note_on channel=6 note=60 velocity=0 time=0
EXTRACT: note_on channel=9 note=86 velocity=108 time=0.022681453125
EXTRACT: note_on channel=9 note=86 velocity=0 time=0.010080645833333334
EXTRACT: note_on channel=9 note=59 velocity=70 time=0.0025201614583333335
EXTRACT: note_on channel=9 note=82 velocity=78 time=0
EXTRACT: note_on channel=9 note=82 velocity=0 time=0.010080645833333334
EXTRACT: note_on channel=9 note=59 velocity=0 time=0
EXTRACT: note_on channel=10 note=60 velocity=0 time=0.040322583333333335
EXTRACT: note_on channel=9 note=86 velocity=104 time=0.06300403645833334
EXTRACT: note_on channel=9 note=61 velocity=98 time=0.007560484375000001
EXTRACT: note_on channel=9 note=82 velocity=68 time=0
EXTRACT: note_on channel=9 note=86 velocity=0 time=0.0025201614583333335
EXTRACT: note_on channel=9 note=35 velocity=85 time=0
EXTRACT: note_on channel=12 note=23 velocity=85 time=0
EXTRACT: note_on channel=9 note=61 velocity=0 time=0.007560484375000001
EXTRACT: note_on channel=9 note=82 velocity=0 time=0
EXTRACT: note_on channel=9 note=35 velocity=0 time=0.0025201614583333335
EXTRACT: note_on channel=12 note=23 velocity=0 time=0.022681453125
EXTRACT: note_on channel=1 note=32 velocity=100 time=0.07308468229166667
EXTRACT: note_on channel=2 note=44 velocity=106 time=0
EXTRACT: note_on channel=13 note=44 velocity=92 time=0
EXTRACT: note_on channel=13 note=36 velocity=0 time=0.005040322916666667
EXTRACT: note_on channel=1 note=24 velocity=0 time=0
EXTRACT: note_on channel=2 note=36 velocity=0 time=0
EXTRACT: note_on channel=5 note=56 velocity=102 time=0.005040322916666667
EXTRACT: note_on channel=6 note=60 velocity=107 time=0
EXTRACT: note_on channel=10 note=60 velocity=93 time=0
EXTRACT: note_on channel=15 note=56 velocity=1 time=0
EXTRACT: note_on channel=15 note=60 velocity=1 time=0
EXTRACT: note_on channel=4 note=72 velocity=115 time=0.0025201614583333335
EXTRACT: note_on channel=7 note=65 velocity=89 time=0
EXTRACT: note_on channel=7 note=68 velocity=93 time=0
EXTRACT: note_on channel=7 note=72 velocity=98 time=0
EXTRACT: note_on channel=9 note=46 velocity=60 time=0
EXTRACT: note_on channel=9 note=82 velocity=58 time=0
EXTRACT: note_on channel=15 note=72 velocity=1 time=0
EXTRACT: note_on channel=9 note=35 velocity=93 time=0.0025201614583333335
EXTRACT: note_on channel=12 note=23 velocity=93 time=0
EXTRACT: note_on channel=9 note=82 velocity=0 time=0.007560484375000001
EXTRACT: note_on channel=9 note=46 velocity=0 time=0
EXTRACT: note_on channel=9 note=35 velocity=0 time=0.0025201614583333335
EXTRACT: note_on channel=12 note=23 velocity=0 time=0.022681453125
EXTRACT: note_on channel=9 note=76 velocity=80 time=0.08316532812500001
EXTRACT: note_on channel=9 note=61 velocity=98 time=0.0025201614583333335
EXTRACT: note_on channel=9 note=82 velocity=42 time=0
EXTRACT: note_on channel=9 note=76 velocity=0 time=0.007560484375000001
EXTRACT: note_on channel=9 note=82 velocity=0 time=0.0025201614583333335
EXTRACT: note_on channel=9 note=61 velocity=0 time=0
EXTRACT: note_on channel=7 note=68 velocity=0 time=0.0025201614583333335
EXTRACT: note_on channel=7 note=65 velocity=0 time=0.0025201614583333335
EXTRACT: note_on channel=7 note=72 velocity=0 time=0.015120968750000002
EXTRACT: note_on channel=15 note=56 velocity=0 time=0.07056452083333334
EXTRACT: note_on channel=5 note=56 velocity=0 time=0
EXTRACT: note_on channel=4 note=72 velocity=0 time=0.005040322916666667
EXTRACT: note_on channel=15 note=72 velocity=0 time=0
EXTRACT: note_on channel=6 note=60 velocity=0 time=0.0025201614583333335
EXTRACT: note_on channel=15 note=60 velocity=0 time=0
EXTRACT: note_on channel=2 note=44 velocity=0 time=0.0025201614583333335
EXTRACT: note_on channel=1 note=32 velocity=0 time=0
EXTRACT: note_on channel=13 note=44 velocity=0 time=0
EXTRACT: note_on channel=1 note=29 velocity=100 time=0.0025201614583333335
EXTRACT: note_on channel=2 note=41 velocity=106 time=0
EXTRACT: note_on channel=13 note=41 velocity=92 time=0
EXTRACT: note_on channel=9 note=40 velocity=120 time=0.005040322916666667
EXTRACT: note_on channel=10 note=61 velocity=93 time=0
EXTRACT: note_on channel=9 note=59 velocity=70 time=0.0025201614583333335
EXTRACT: note_on channel=9 note=62 velocity=113 time=0
EXTRACT: note_on channel=9 note=82 velocity=78 time=0
EXTRACT: note_on channel=10 note=60 velocity=0 time=0.005040322916666667
EXTRACT: note_on channel=9 note=40 velocity=0 time=0.0025201614583333335
EXTRACT: note_on channel=9 note=62 velocity=0 time=0.0025201614583333335
EXTRACT: note_on channel=9 note=82 velocity=0 time=0
EXTRACT: note_on channel=9 note=59 velocity=0 time=0
EXTRACT: note_on channel=9 note=82 velocity=64 time=0.11088710416666667
EXTRACT: note_on channel=9 note=82 velocity=0 time=0.010080645833333334
EXTRACT: note_on channel=10 note=61 velocity=0 time=0.098286296875
EXTRACT: note_on channel=1 note=29 velocity=0 time=0.0025201614583333335
EXTRACT: note_on channel=2 note=41 velocity=0 time=0
EXTRACT: note_on channel=13 note=41 velocity=0 time=0
EXTRACT: note_on channel=1 note=24 velocity=100 time=0.0025201614583333335
EXTRACT: note_on channel=2 note=36 velocity=106 time=0
EXTRACT: note_on channel=13 note=36 velocity=92 time=0
EXTRACT: note_on channel=10 note=60 velocity=98 time=0.005040322916666667
EXTRACT: note_on channel=8 note=64 velocity=81 time=0.0025201614583333335
EXTRACT: note_on channel=9 note=46 velocity=55 time=0
EXTRACT: note_on channel=9 note=63 velocity=107 time=0
EXTRACT: note_on channel=9 note=82 velocity=51 time=0
EXTRACT: note_on channel=9 note=35 velocity=93 time=0.0025201614583333335
EXTRACT: note_on channel=12 note=23 velocity=93 time=0
EXTRACT: note_on channel=9 note=76 velocity=80 time=0.0025201614583333335
EXTRACT: note_on channel=9 note=86 velocity=113 time=0
EXTRACT: note_on channel=9 note=82 velocity=0 time=0.005040322916666667
EXTRACT: note_on channel=9 note=63 velocity=0 time=0
EXTRACT: note_on channel=9 note=46 velocity=0 time=0
EXTRACT: note_on channel=9 note=35 velocity=0 time=0.0025201614583333335
EXTRACT: note_on channel=9 note=76 velocity=0 time=0.0025201614583333335
EXTRACT: note_on channel=9 note=86 velocity=0 time=0
EXTRACT: note_on channel=12 note=23 velocity=0 time=0.020161291666666668
EXTRACT: note_on channel=9 note=82 velocity=43 time=0.08568548958333334
EXTRACT: note_on channel=9 note=86 velocity=82 time=0
EXTRACT: note_on channel=9 note=86 velocity=0 time=0.010080645833333334
EXTRACT: note_on channel=9 note=82 velocity=0 time=0
EXTRACT: note_on channel=8 note=64 velocity=0 time=0.025201614583333334
EXTRACT: note_on channel=10 note=60 velocity=0 time=0.07056452083333334
EXTRACT: note_on channel=2 note=36 velocity=0 time=0.005040322916666667
EXTRACT: note_on channel=1 note=24 velocity=0 time=0
EXTRACT: note_on channel=13 note=36 velocity=0 time=0
EXTRACT: note_on channel=1 note=31 velocity=106 time=0.0025201614583333335
EXTRACT: note_on channel=2 note=43 velocity=112 time=0
EXTRACT: note_on channel=13 note=43 velocity=98 time=0
EXTRACT: note_on channel=9 note=35 velocity=102 time=0.005040322916666667
EXTRACT: note_on channel=9 note=86 velocity=119 time=0
EXTRACT: note_on channel=10 note=58 velocity=89 time=0
EXTRACT: note_on channel=12 note=23 velocity=102 time=0
EXTRACT: note_on channel=8 note=67 velocity=93 time=0.0025201614583333335
EXTRACT: note_on channel=8 note=74 velocity=113 time=0
EXTRACT: note_on channel=9 note=59 velocity=70 time=0
EXTRACT: note_on channel=9 note=64 velocity=102 time=0
EXTRACT: note_on channel=9 note=82 velocity=79 time=0
EXTRACT: note_on channel=9 note=86 velocity=0 time=0.007560484375000001
EXTRACT: note_on channel=9 note=35 velocity=0 time=0
EXTRACT: note_on channel=9 note=64 velocity=0 time=0.0025201614583333335
EXTRACT: note_on channel=9 note=59 velocity=0 time=0
EXTRACT: note_on channel=9 note=82 velocity=0 time=0
EXTRACT: note_on channel=12 note=23 velocity=0 time=0.020161291666666668
EXTRACT: note_on channel=9 note=82 velocity=67 time=0.0907258125
EXTRACT: note_on channel=9 note=86 velocity=104 time=0.005040322916666667
EXTRACT: note_on channel=9 note=82 velocity=0 time=0.005040322916666667
EXTRACT: note_on channel=9 note=86 velocity=0 time=0.005040322916666667
EXTRACT: note_on channel=8 note=67 velocity=0 time=0
EXTRACT: note_on channel=8 note=74 velocity=0 time=0
EXTRACT: note_on channel=9 note=46 velocity=60 time=0.10584678125000001
EXTRACT: note_on channel=9 note=63 velocity=113 time=0
EXTRACT: note_on channel=9 note=82 velocity=54 time=0
EXTRACT: note_on channel=9 note=82 velocity=0 time=0.010080645833333334
EXTRACT: note_on channel=9 note=46 velocity=0 time=0
EXTRACT: note_on channel=9 note=63 velocity=0 time=0
EXTRACT: note_on channel=1 note=31 velocity=0 time=0.05796371354166667
EXTRACT: note_on channel=2 note=43 velocity=0 time=0
EXTRACT: note_on channel=13 note=43 velocity=0 time=0
EXTRACT: note_on channel=1 note=28 velocity=100 time=0.03276209895833333
EXTRACT: note_on channel=2 note=40 velocity=106 time=0
EXTRACT: note_on channel=13 note=40 velocity=92 time=0
EXTRACT: note_on channel=8 note=67 velocity=102 time=0.020161291666666668
EXTRACT: note_on channel=8 note=74 velocity=102 time=0
EXTRACT: note_on channel=9 note=82 velocity=42 time=0
EXTRACT: note_on channel=9 note=82 velocity=0 time=0.010080645833333334
EXTRACT: note_on channel=9 note=76 velocity=80 time=0.010080645833333334
EXTRACT: note_on channel=9 note=76 velocity=0 time=0.010080645833333334
EXTRACT: note_on channel=10 note=55 velocity=83 time=0.08568548958333334
EXTRACT: note_on channel=9 note=40 velocity=120 time=0.0025201614583333335
EXTRACT: note_on channel=10 note=58 velocity=0 time=0.0025201614583333335
EXTRACT: note_on channel=9 note=59 velocity=70 time=0
EXTRACT: note_on channel=9 note=62 velocity=119 time=0
EXTRACT: note_on channel=9 note=82 velocity=79 time=0
EXTRACT: note_on channel=9 note=40 velocity=0 time=0.007560484375000001
EXTRACT: note_on channel=9 note=82 velocity=0 time=0.0025201614583333335
EXTRACT: note_on channel=9 note=59 velocity=0 time=0
EXTRACT: note_on channel=9 note=62 velocity=0 time=0
EXTRACT: note_on channel=8 note=67 velocity=0 time=0.0025201614583333335
EXTRACT: note_on channel=8 note=74 velocity=0 time=0
EXTRACT: note_on channel=9 note=82 velocity=68 time=0.10836694270833334
EXTRACT: note_on channel=9 note=82 velocity=0 time=0.010080645833333334
EXTRACT: note_on channel=1 note=28 velocity=0 time=0.04284274479166667
EXTRACT: note_on channel=13 note=40 velocity=0 time=0
EXTRACT: note_on channel=2 note=40 velocity=0 time=0
EXTRACT: note_on channel=1 note=24 velocity=100 time=0.040322583333333335
EXTRACT: note_on channel=2 note=36 velocity=106 time=0
EXTRACT: note_on channel=13 note=36 velocity=92 time=0
EXTRACT: note_on channel=9 note=35 velocity=85 time=0.025201614583333334
EXTRACT: note_on channel=9 note=86 velocity=108 time=0
EXTRACT: note_on channel=12 note=23 velocity=85 time=0
EXTRACT: note_on channel=8 note=67 velocity=107 time=0.0025201614583333335
EXTRACT: note_on channel=8 note=74 velocity=113 time=0
EXTRACT: note_on channel=9 note=46 velocity=52 time=0
EXTRACT: note_on channel=9 note=61 velocity=107 time=0
EXTRACT: note_on channel=9 note=82 velocity=54 time=0
EXTRACT: note_on channel=9 note=86 velocity=0 time=0.007560484375000001
EXTRACT: note_on channel=9 note=35 velocity=0 time=0
EXTRACT: note_on channel=9 note=76 velocity=80 time=0
EXTRACT: note_on channel=9 note=61 velocity=0 time=0.0025201614583333335
EXTRACT: note_on channel=9 note=46 velocity=0 time=0
EXTRACT: note_on channel=9 note=82 velocity=0 time=0
EXTRACT: note_on channel=9 note=76 velocity=0 time=0.007560484375000001
EXTRACT: note_on channel=12 note=23 velocity=0 time=0.012600807291666667
EXTRACT: note_on channel=9 note=86 velocity=99 time=0.07812500520833333
EXTRACT: note_on channel=9 note=35 velocity=85 time=0.007560484375000001
EXTRACT: note_on channel=12 note=23 velocity=85 time=0
EXTRACT: note_on channel=9 note=86 velocity=0 time=0.0025201614583333335
EXTRACT: note_on channel=9 note=61 velocity=107 time=0.0025201614583333335
EXTRACT: note_on channel=9 note=82 velocity=45 time=0
EXTRACT: note_on channel=9 note=35 velocity=0 time=0.005040322916666667
EXTRACT: note_on channel=9 note=82 velocity=0 time=0.005040322916666667
EXTRACT: note_on channel=9 note=61 velocity=0 time=0
EXTRACT: note_on channel=8 note=74 velocity=0 time=0.005040322916666667
EXTRACT: note_on channel=8 note=67 velocity=0 time=0.010080645833333334
EXTRACT: note_on channel=12 note=23 velocity=0 time=0.0025201614583333335
EXTRACT: note_on channel=9 note=86 velocity=108 time=0.08316532812500001
EXTRACT: note_on channel=13 note=36 velocity=0 time=0.0025201614583333335
EXTRACT: note_on channel=1 note=24 velocity=0 time=0
EXTRACT: note_on channel=2 note=36 velocity=0 time=0
EXTRACT: note_on channel=1 note=22 velocity=94 time=0
EXTRACT: note_on channel=2 note=34 velocity=100 time=0
EXTRACT: note_on channel=13 note=34 velocity=86 time=0
EXTRACT: note_on channel=10 note=52 velocity=74 time=0.0025201614583333335
EXTRACT: note_on channel=9 note=86 velocity=0 time=0.005040322916666667
EXTRACT: note_on channel=9 note=59 velocity=70 time=0
EXTRACT: note_on channel=9 note=82 velocity=78 time=0
EXTRACT: note_on channel=10 note=55 velocity=0 time=0.0025201614583333335
EXTRACT: note_on channel=9 note=59 velocity=0 time=0.007560484375000001
EXTRACT: note_on channel=9 note=82 velocity=0 time=0
EXTRACT: note_on channel=9 note=86 velocity=113 time=0.10080645833333333
EXTRACT: note_on channel=9 note=86 velocity=0 time=0.010080645833333334
EXTRACT: note_on channel=9 note=61 velocity=102 time=0
EXTRACT: note_on channel=9 note=82 velocity=68 time=0
EXTRACT: note_on channel=9 note=35 velocity=89 time=0.0025201614583333335
EXTRACT: note_on channel=12 note=23 velocity=89 time=0
EXTRACT: note_on channel=9 note=82 velocity=0 time=0.007560484375000001
EXTRACT: note_on channel=9 note=61 velocity=0 time=0
EXTRACT: note_on channel=9 note=35 velocity=0 time=0.0025201614583333335
EXTRACT: note_on channel=12 note=23 velocity=0 time=0.022681453125
EXTRACT: note_on channel=9 note=35 velocity=102 time=0.08316532812500001
EXTRACT: note_on channel=12 note=23 velocity=102 time=0
EXTRACT: note_on channel=8 note=67 velocity=93 time=0.0025201614583333335
EXTRACT: note_on channel=8 note=74 velocity=102 time=0
EXTRACT: note_on channel=9 note=46 velocity=60 time=0
EXTRACT: note_on channel=9 note=82 velocity=58 time=0
EXTRACT: note_on channel=9 note=35 velocity=0 time=0.007560484375000001
EXTRACT: note_on channel=9 note=82 velocity=0 time=0.0025201614583333335
EXTRACT: note_on channel=9 note=46 velocity=0 time=0
EXTRACT: note_on channel=12 note=23 velocity=0 time=0.020161291666666668
EXTRACT: note_on channel=13 note=34 velocity=0 time=0.05796371354166667
EXTRACT: note_on channel=2 note=34 velocity=0 time=0
EXTRACT: note_on channel=1 note=22 velocity=0 time=0
EXTRACT: note_on channel=8 note=74 velocity=0 time=0.010080645833333334
EXTRACT: note_on channel=8 note=67 velocity=0 time=0.005040322916666667
EXTRACT: note_on channel=1 note=24 velocity=100 time=0.005040322916666667
EXTRACT: note_on channel=2 note=36 velocity=106 time=0
EXTRACT: note_on channel=13 note=36 velocity=92 time=0
EXTRACT: note_on channel=9 note=76 velocity=80 time=0.010080645833333334
EXTRACT: note_on channel=9 note=61 velocity=107 time=0.0025201614583333335
EXTRACT: note_on channel=9 note=82 velocity=42 time=0
EXTRACT: note_on channel=9 note=76 velocity=0 time=0.007560484375000001
EXTRACT: note_on channel=9 note=61 velocity=0 time=0.0025201614583333335
EXTRACT: note_on channel=9 note=82 velocity=0 time=0
EXTRACT: note_on channel=10 note=55 velocity=72 time=0.10836694270833334
EXTRACT: note_on channel=8 note=67 velocity=98 time=0.0025201614583333335
EXTRACT: note_on channel=8 note=74 velocity=107 time=0
EXTRACT: note_on channel=9 note=40 velocity=120 time=0
EXTRACT: note_on channel=9 note=59 velocity=70 time=0
EXTRACT: note_on channel=9 note=62 velocity=113 time=0
EXTRACT: note_on channel=9 note=82 velocity=78 time=0
EXTRACT: note_on channel=9 note=82 velocity=0 time=0.010080645833333334
EXTRACT: note_on channel=9 note=40 velocity=0 time=0
EXTRACT: note_on channel=9 note=62 velocity=0 time=0
EXTRACT: note_on channel=9 note=59 velocity=0 time=0
EXTRACT: note_on channel=10 note=52 velocity=0 time=0.017641130208333335
EXTRACT: note_on channel=8 note=67 velocity=0 time=0.0907258125
EXTRACT: note_on channel=8 note=74 velocity=0 time=0
EXTRACT: note_on channel=9 note=82 velocity=64 time=0.0025201614583333335
EXTRACT: note_on channel=9 note=82 velocity=0 time=0.010080645833333334
EXTRACT: note_on channel=13 note=36 velocity=0 time=0.06552419791666667
EXTRACT: note_on channel=1 note=24 velocity=0 time=0
EXTRACT: note_on channel=2 note=36 velocity=0 time=0
EXTRACT: note_on channel=1 note=28 velocity=100 time=0.025201614583333334
EXTRACT: note_on channel=2 note=40 velocity=106 time=0
EXTRACT: note_on channel=13 note=40 velocity=92 time=0
EXTRACT: note_on channel=9 note=46 velocity=53 time=0.020161291666666668
EXTRACT: note_on channel=9 note=63 velocity=102 time=0
EXTRACT: note_on channel=9 note=82 velocity=51 time=0
EXTRACT: note_on channel=9 note=35 velocity=93 time=0.0025201614583333335
EXTRACT: note_on channel=12 note=23 velocity=93 time=0
EXTRACT: note_on channel=9 note=76 velocity=80 time=0.0025201614583333335
EXTRACT: note_on channel=9 note=82 velocity=0 time=0.005040322916666667
EXTRACT: note_on channel=9 note=63 velocity=0 time=0
EXTRACT: note_on channel=9 note=46 velocity=0 time=0
EXTRACT: note_on channel=9 note=35 velocity=0 time=0.0025201614583333335
EXTRACT: note_on channel=9 note=76 velocity=0 time=0.0025201614583333335
EXTRACT: note_on channel=12 note=23 velocity=0 time=0.020161291666666668
EXTRACT: note_on channel=9 note=82 velocity=43 time=0.08568548958333334
EXTRACT: note_on channel=9 note=82 velocity=0 time=0.010080645833333334
EXTRACT: note_on channel=10 note=55 velocity=0 time=0.017641130208333335
EXTRACT: note_on channel=13 note=40 velocity=0 time=0.07308468229166667
EXTRACT: note_on channel=1 note=28 velocity=0 time=0
EXTRACT: note_on channel=2 note=40 velocity=0 time=0
EXTRACT: note_on channel=1 note=32 velocity=102 time=0.020161291666666668
EXTRACT: note_on channel=2 note=44 velocity=113 time=0
EXTRACT: note_on channel=4 note=60 velocity=113 time=0
EXTRACT: note_on channel=6 note=72 velocity=102 time=0
EXTRACT: note_on channel=7 note=65 velocity=107 time=0
EXTRACT: note_on channel=7 note=72 velocity=101 time=0
EXTRACT: note_on channel=9 note=35 velocity=117 time=0
EXTRACT: note_on channel=9 note=49 velocity=82 time=0
EXTRACT: note_on channel=9 note=86 velocity=107 time=0
EXTRACT: note_on channel=13 note=44 velocity=103 time=0
EXTRACT: note_on channel=13 note=56 velocity=101 time=0
EXTRACT: note_on channel=15 note=60 velocity=1 time=0
EXTRACT: note_on channel=15 note=72 velocity=1 time=0
EXTRACT: note_on channel=9 note=86 velocity=0 time=0.010080645833333334
EXTRACT: note_on channel=9 note=49 velocity=0 time=0
EXTRACT: note_on channel=9 note=35 velocity=0 time=0
EXTRACT: note_on channel=9 note=63 velocity=102 time=0.010080645833333334
EXTRACT: note_on channel=9 note=63 velocity=0 time=0.010080645833333334
EXTRACT: note_on channel=7 note=65 velocity=0 time=0.07812500520833333
EXTRACT: note_on channel=9 note=28 velocity=36 time=0.007560484375000001
EXTRACT: note_on channel=9 note=86 velocity=93 time=0.0025201614583333335
EXTRACT: note_on channel=9 note=42 velocity=72 time=0.0025201614583333335
EXTRACT: note_on channel=9 note=28 velocity=0 time=0.005040322916666667
EXTRACT: note_on channel=9 note=86 velocity=0 time=0.0025201614583333335
EXTRACT: note_on channel=9 note=42 velocity=0 time=0.0025201614583333335
EXTRACT: note_on channel=7 note=72 velocity=0 time=0.0025201614583333335
EXTRACT: note_on channel=9 note=63 velocity=53 time=0
EXTRACT: note_on channel=9 note=63 velocity=0 time=0.010080645833333334
EXTRACT: note_on channel=6 note=72 velocity=0 time=0.015120968750000002
EXTRACT: note_on channel=15 note=72 velocity=0 time=0
EXTRACT: note_on channel=15 note=60 velocity=0 time=0.052923390625000004
EXTRACT: note_on channel=4 note=60 velocity=0 time=0
EXTRACT: note_on channel=9 note=28 velocity=45 time=0.025201614583333334
EXTRACT: note_on channel=9 note=42 velocity=62 time=0.005040322916666667
EXTRACT: note_on channel=9 note=72 velocity=46 time=0
EXTRACT: note_on channel=9 note=28 velocity=0 time=0.005040322916666667
EXTRACT: note_on channel=9 note=42 velocity=0 time=0.005040322916666667
EXTRACT: note_on channel=9 note=72 velocity=0 time=0
EXTRACT: note_on channel=9 note=62 velocity=102 time=0.005040322916666667
EXTRACT: note_on channel=9 note=62 velocity=0 time=0.010080645833333334
EXTRACT: note_on channel=9 note=86 velocity=113 time=0.08316532812500001
EXTRACT: note_on channel=2 note=41 velocity=113 time=0.005040322916666667
EXTRACT: note_on channel=13 note=41 velocity=103 time=0
EXTRACT: note_on channel=13 note=53 velocity=101 time=0
EXTRACT: note_on channel=9 note=28 velocity=42 time=0.0025201614583333335
EXTRACT: note_on channel=9 note=86 velocity=0 time=0.0025201614583333335
EXTRACT: note_on channel=1 note=32 velocity=0 time=0.0025201614583333335
EXTRACT: note_on channel=1 note=29 velocity=107 time=0
EXTRACT: note_on channel=4 note=60 velocity=107 time=0
EXTRACT: note_on channel=5 note=56 velocity=113 time=0
EXTRACT: note_on channel=6 note=72 velocity=98 time=0
EXTRACT: note_on channel=7 note=65 velocity=102 time=0
EXTRACT: note_on channel=7 note=72 velocity=95 time=0
EXTRACT: note_on channel=9 note=35 velocity=117 time=0
EXTRACT: note_on channel=9 note=42 velocity=47 time=0
EXTRACT: note_on channel=9 note=75 velocity=54 time=0
EXTRACT: note_on channel=15 note=56 velocity=1 time=0
EXTRACT: note_on channel=15 note=60 velocity=1 time=0
EXTRACT: note_on channel=15 note=72 velocity=1 time=0
EXTRACT: note_on channel=9 note=28 velocity=0 time=0.005040322916666667
EXTRACT: note_on channel=9 note=75 velocity=0 time=0.005040322916666667
EXTRACT: note_on channel=9 note=42 velocity=0 time=0
EXTRACT: note_on channel=9 note=35 velocity=0 time=0
EXTRACT: note_on channel=13 note=44 velocity=0 time=0.015120968750000002
EXTRACT: note_on channel=13 note=56 velocity=0 time=0
EXTRACT: note_on channel=2 note=44 velocity=0 time=0
EXTRACT: note_on channel=7 note=65 velocity=0 time=0.08064516666666667
EXTRACT: note_on channel=7 note=72 velocity=0 time=0.0025201614583333335
EXTRACT: note_on channel=9 note=42 velocity=113 time=0.012600807291666667
EXTRACT: note_on channel=9 note=62 velocity=107 time=0
EXTRACT: note_on channel=9 note=75 velocity=60 time=0
EXTRACT: note_on channel=9 note=28 velocity=78 time=0.007560484375000001
EXTRACT: note_on channel=9 note=75 velocity=0 time=0.0025201614583333335
EXTRACT: note_on channel=15 note=72 velocity=0 time=0
EXTRACT: note_on channel=6 note=72 velocity=0 time=0
EXTRACT: note_on channel=9 note=62 velocity=0 time=0
EXTRACT: note_on channel=9 note=42 velocity=0 time=0
EXTRACT: note_on channel=9 note=28 velocity=0 time=0.007560484375000001
EXTRACT: note_on channel=4 note=60 velocity=0 time=0.060483875000000006
EXTRACT: note_on channel=15 note=60 velocity=0 time=0
EXTRACT: note_on channel=15 note=56 velocity=0 time=0.025201614583333334
EXTRACT: note_on channel=5 note=56 velocity=0 time=0
EXTRACT: note_on channel=9 note=28 velocity=37 time=0.012600807291666667
EXTRACT: note_on channel=9 note=42 velocity=71 time=0.005040322916666667
EXTRACT: note_on channel=9 note=75 velocity=47 time=0
EXTRACT: note_on channel=9 note=28 velocity=0 time=0.005040322916666667
EXTRACT: note_on channel=9 note=42 velocity=0 time=0.005040322916666667
EXTRACT: note_on channel=9 note=75 velocity=0 time=0
EXTRACT: note_on channel=1 note=29 velocity=0 time=0.08820565104166667
EXTRACT: note_on channel=9 note=63 velocity=98 time=0.005040322916666667
EXTRACT: note_on channel=9 note=63 velocity=0 time=0.010080645833333334
EXTRACT: note_on channel=9 note=28 velocity=53 time=0.0025201614583333335
EXTRACT: note_on channel=1 note=24 velocity=107 time=0.005040322916666667
EXTRACT: note_on channel=4 note=60 velocity=113 time=0
EXTRACT: note_on channel=5 note=53 velocity=107 time=0
EXTRACT: note_on channel=6 note=72 velocity=102 time=0
EXTRACT: note_on channel=7 note=65 velocity=102 time=0
EXTRACT: note_on channel=7 note=72 velocity=95 time=0
EXTRACT: note_on channel=9 note=42 velocity=63 time=0
EXTRACT: note_on channel=15 note=53 velocity=1 time=0
EXTRACT: note_on channel=15 note=60 velocity=1 time=0
EXTRACT: note_on channel=15 note=72 velocity=1 time=0
EXTRACT: note_on channel=9 note=28 velocity=0 time=0.005040322916666667
EXTRACT: note_on channel=2 note=36 velocity=107 time=0.0025201614583333335
EXTRACT: note_on channel=13 note=36 velocity=97 time=0
EXTRACT: note_on channel=13 note=48 velocity=95 time=0
EXTRACT: note_on channel=9 note=42 velocity=0 time=0.0025201614583333335
EXTRACT: note_on channel=9 note=35 velocity=112 time=0
EXTRACT: note_on channel=9 note=86 velocity=102 time=0
EXTRACT: note_on channel=13 note=41 velocity=0 time=0.0025201614583333335
EXTRACT: note_on channel=2 note=41 velocity=0 time=0
EXTRACT: note_on channel=13 note=53 velocity=0 time=0
EXTRACT: note_on channel=9 note=86 velocity=0 time=0.007560484375000001
EXTRACT: note_on channel=9 note=35 velocity=0 time=0
EXTRACT: note_on channel=9 note=63 velocity=48 time=0.060483875000000006
EXTRACT: note_on channel=9 note=63 velocity=0 time=0.010080645833333334
EXTRACT: note_on channel=9 note=28 velocity=70 time=0.025201614583333334
EXTRACT: note_on channel=9 note=35 velocity=86 time=0.005040322916666667
EXTRACT: note_on channel=9 note=42 velocity=50 time=0
EXTRACT: note_on channel=9 note=75 velocity=64 time=0
EXTRACT: note_on channel=9 note=28 velocity=0 time=0.005040322916666667
EXTRACT: note_on channel=9 note=86 velocity=93 time=0
EXTRACT: note_on channel=9 note=75 velocity=0 time=0.005040322916666667
EXTRACT: note_on channel=9 note=42 velocity=0 time=0
EXTRACT: note_on channel=9 note=35 velocity=0 time=0
EXTRACT: note_on channel=9 note=86 velocity=0 time=0.005040322916666667
EXTRACT: note_on channel=9 note=28 velocity=34 time=0.10080645833333333
EXTRACT: note_on channel=9 note=42 velocity=119 time=0.005040322916666667
EXTRACT: note_on channel=9 note=86 velocity=107 time=0.0025201614583333335
EXTRACT: note_on channel=9 note=28 velocity=0 time=0.0025201614583333335
EXTRACT: note_on channel=9 note=42 velocity=0 time=0.005040322916666667
EXTRACT: note_on channel=9 note=86 velocity=0 time=0.0025201614583333335
EXTRACT: note_on channel=9 note=63 velocity=89 time=0.08064516666666667
EXTRACT: note_on channel=9 note=63 velocity=0 time=0.010080645833333334
EXTRACT: note_on channel=9 note=28 velocity=61 time=0.012600807291666667
EXTRACT: note_on channel=9 note=42 velocity=78 time=0.005040322916666667
EXTRACT: note_on channel=9 note=28 velocity=0 time=0.005040322916666667
EXTRACT: note_on channel=9 note=86 velocity=102 time=0
EXTRACT: note_on channel=9 note=42 velocity=0 time=0.005040322916666667
EXTRACT: note_on channel=9 note=86 velocity=0 time=0.005040322916666667
EXTRACT: control_change channel=8 control=99 value=1 time=0.005040322916666667
EXTRACT: control_change channel=8 control=98 value=102 time=0
EXTRACT: control_change channel=8 control=6 value=64 time=0
EXTRACT: control_change channel=8 control=38 value=0 time=0
EXTRACT: note_on channel=5 note=53 velocity=0 time=0.068044359375
EXTRACT: note_on channel=15 note=53 velocity=0 time=0
EXTRACT: note_on channel=7 note=65 velocity=0 time=0
EXTRACT: note_on channel=1 note=24 velocity=0 time=0.012600807291666667
EXTRACT: note_on channel=9 note=35 velocity=117 time=0.007560484375000001
EXTRACT: note_on channel=9 note=62 velocity=119 time=0
EXTRACT: note_on channel=7 note=72 velocity=0 time=0.005040322916666667
EXTRACT: note_on channel=9 note=62 velocity=0 time=0.005040322916666667
EXTRACT: note_on channel=2 note=36 velocity=0 time=0
EXTRACT: note_on channel=13 note=36 velocity=0 time=0
EXTRACT: note_on channel=9 note=35 velocity=0 time=0
EXTRACT: note_on channel=13 note=48 velocity=0 time=0
EXTRACT: note_on channel=2 note=44 velocity=113 time=0
EXTRACT: note_on channel=13 note=44 velocity=103 time=0
EXTRACT: note_on channel=13 note=56 velocity=101 time=0
EXTRACT: note_on channel=1 note=32 velocity=107 time=0.0025201614583333335
EXTRACT: note_on channel=4 note=61 velocity=113 time=0
EXTRACT: note_on channel=5 note=56 velocity=107 time=0
EXTRACT: note_on channel=6 note=73 velocity=107 time=0
EXTRACT: note_on channel=7 note=65 velocity=107 time=0
EXTRACT: note_on channel=7 note=73 velocity=95 time=0
EXTRACT: note_on channel=9 note=42 velocity=61 time=0
EXTRACT: note_on channel=9 note=72 velocity=46 time=0
EXTRACT: note_on channel=15 note=56 velocity=1 time=0
EXTRACT: note_on channel=15 note=61 velocity=1 time=0
EXTRACT: note_on channel=15 note=73 velocity=1 time=0
EXTRACT: note_on channel=9 note=72 velocity=0 time=0.010080645833333334
EXTRACT: note_on channel=9 note=42 velocity=0 time=0
EXTRACT: note_on channel=15 note=72 velocity=0 time=0.020161291666666668
EXTRACT: note_on channel=6 note=72 velocity=0 time=0
EXTRACT: note_on channel=15 note=60 velocity=0 time=0.0025201614583333335
EXTRACT: note_on channel=4 note=60 velocity=0 time=0
EXTRACT: note_on channel=9 note=86 velocity=107 time=0.08064516666666667
EXTRACT: note_on channel=9 note=28 velocity=57 time=0.0025201614583333335
EXTRACT: note_on channel=9 note=42 velocity=50 time=0.005040322916666667
EXTRACT: note_on channel=9 note=75 velocity=49 time=0
EXTRACT: note_on channel=9 note=86 velocity=0 time=0.0025201614583333335
EXTRACT: note_on channel=9 note=28 velocity=0 time=0.0025201614583333335
EXTRACT: note_on channel=9 note=75 velocity=0 time=0.005040322916666667
EXTRACT: note_on channel=9 note=42 velocity=0 time=0
EXTRACT: note_on channel=7 note=65 velocity=0 time=0.08316532812500001
EXTRACT: note_on channel=15 note=56 velocity=0 time=0.012600807291666667
EXTRACT: note_on channel=5 note=56 velocity=0 time=0
EXTRACT: note_on channel=1 note=32 velocity=0 time=0.005040322916666667
EXTRACT: note_on channel=9 note=28 velocity=82 time=0.005040322916666667
EXTRACT: note_on channel=4 note=61 velocity=0 time=0.0025201614583333335
EXTRACT: note_on channel=15 note=61 velocity=0 time=0
EXTRACT: note_on channel=1 note=29 velocity=107 time=0.0025201614583333335
EXTRACT: note_on channel=4 note=60 velocity=107 time=0
EXTRACT: note_on channel=5 note=56 velocity=102 time=0
EXTRACT: note_on channel=6 note=72 velocity=107 time=0
EXTRACT: note_on channel=7 note=65 velocity=98 time=0
EXTRACT: note_on channel=7 note=72 velocity=86 time=0
EXTRACT: note_on channel=9 note=42 velocity=119 time=0
EXTRACT: note_on channel=9 note=62 velocity=113 time=0
EXTRACT: note_on channel=9 note=75 velocity=45 time=0
EXTRACT: note_on channel=15 note=56 velocity=1 time=0
EXTRACT: note_on channel=15 note=60 velocity=1 time=0
EXTRACT: note_on channel=15 note=72 velocity=1 time=0
EXTRACT: note_on channel=15 note=73 velocity=0 time=0.0025201614583333335
EXTRACT: note_on channel=6 note=73 velocity=0 time=0
EXTRACT: note_on channel=2 note=41 velocity=113 time=0
EXTRACT: note_on channel=13 note=41 velocity=103 time=0
EXTRACT: note_on channel=13 note=53 velocity=101 time=0
EXTRACT: note_on channel=9 note=28 velocity=0 time=0.0025201614583333335
EXTRACT: note_on channel=9 note=75 velocity=0 time=0.005040322916666667
EXTRACT: note_on channel=9 note=62 velocity=0 time=0
EXTRACT: note_on channel=9 note=42 velocity=0 time=0
EXTRACT: control_change channel=8 control=99 value=1 time=0
EXTRACT: control_change channel=8 control=98 value=99 time=0
EXTRACT: control_change channel=8 control=6 value=30 time=0
EXTRACT: control_change channel=8 control=38 value=0 time=0
EXTRACT: note_on channel=13 note=44 velocity=0 time=0.017641130208333335
EXTRACT: note_on channel=2 note=44 velocity=0 time=0
EXTRACT: note_on channel=13 note=56 velocity=0 time=0
EXTRACT: note_on channel=7 note=73 velocity=0 time=0.010080645833333334
EXTRACT: note_on channel=9 note=28 velocity=47 time=0.07812500520833333
EXTRACT: note_on channel=9 note=35 velocity=102 time=0.005040322916666667
EXTRACT: note_on channel=9 note=42 velocity=72 time=0
EXTRACT: note_on channel=9 note=75 velocity=54 time=0
EXTRACT: note_on channel=9 note=28 velocity=0 time=0.005040322916666667
EXTRACT: note_on channel=9 note=75 velocity=0 time=0.005040322916666667
EXTRACT: note_on channel=9 note=42 velocity=0 time=0
EXTRACT: note_on channel=9 note=35 velocity=0 time=0
EXTRACT: note_on channel=1 note=29 velocity=0 time=0.08316532812500001
EXTRACT: note_on channel=7 note=65 velocity=0 time=0.0025201614583333335
EXTRACT: note_on channel=13 note=41 velocity=0 time=0.0025201614583333335
EXTRACT: note_on channel=13 note=53 velocity=0 time=0
EXTRACT: note_on channel=2 note=41 velocity=0 time=0
EXTRACT: note_on channel=9 note=63 velocity=89 time=0.007560484375000001
EXTRACT: note_on channel=2 note=36 velocity=93 time=0.0025201614583333335
EXTRACT: note_on channel=13 note=36 velocity=83 time=0
EXTRACT: note_on channel=13 note=48 velocity=81 time=0
EXTRACT: note_on channel=4 note=60 velocity=0 time=0.0025201614583333335
EXTRACT: note_on channel=15 note=60 velocity=0 time=0
EXTRACT: note_on channel=9 note=63 velocity=0 time=0.005040322916666667
EXTRACT: note_on channel=5 note=56 velocity=0 time=0
EXTRACT: note_on channel=6 note=72 velocity=0 time=0
EXTRACT: note_on channel=15 note=56 velocity=0 time=0
EXTRACT: note_on channel=15 note=72 velocity=0 time=0
EXTRACT: note_on channel=9 note=28 velocity=36 time=0
EXTRACT: note_on channel=1 note=24 velocity=102 time=0.005040322916666667
EXTRACT: note_on channel=4 note=58 velocity=89 time=0
EXTRACT: note_on channel=5 note=53 velocity=107 time=0
EXTRACT: note_on channel=6 note=70 velocity=102 time=0
EXTRACT: note_on channel=7 note=65 velocity=107 time=0
EXTRACT: note_on channel=7 note=70 velocity=86 time=0
EXTRACT: note_on channel=9 note=42 velocity=54 time=0
EXTRACT: note_on channel=15 note=53 velocity=1 time=0
EXTRACT: note_on channel=15 note=58 velocity=1 time=0
EXTRACT: note_on channel=15 note=70 velocity=1 time=0
EXTRACT: note_on channel=9 note=28 velocity=0 time=0.005040322916666667
EXTRACT: note_on channel=7 note=72 velocity=0 time=0.005040322916666667
EXTRACT: note_on channel=9 note=42 velocity=0 time=0
EXTRACT: control_change channel=8 control=99 value=1 time=0
EXTRACT: control_change channel=8 control=98 value=100 time=0
EXTRACT: control_change channel=8 control=6 value=57 time=0
EXTRACT: control_change channel=8 control=38 value=0 time=0
EXTRACT: note_on channel=9 note=86 velocity=102 time=0.0025201614583333335
EXTRACT: note_on channel=9 note=86 velocity=0 time=0.010080645833333334
EXTRACT: note_on channel=9 note=63 velocity=102 time=0.08064516666666667
EXTRACT: note_on channel=9 note=63 velocity=0 time=0.010080645833333334
EXTRACT: note_on channel=9 note=28 velocity=53 time=0.0025201614583333335
EXTRACT: note_on channel=9 note=42 velocity=48 time=0.005040322916666667
EXTRACT: note_on channel=9 note=75 velocity=60 time=0
EXTRACT: note_on channel=9 note=28 velocity=0 time=0.005040322916666667
EXTRACT: note_on channel=9 note=75 velocity=0 time=0.005040322916666667
EXTRACT: note_on channel=9 note=42 velocity=0 time=0
EXTRACT: note_on channel=9 note=86 velocity=89 time=0.005040322916666667
EXTRACT: note_on channel=9 note=86 velocity=0 time=0.010080645833333334
EXTRACT: note_on channel=7 note=65 velocity=0 time=0.04536290625
EXTRACT: note_on channel=6 note=70 velocity=0 time=0.007560484375000001
EXTRACT: note_on channel=15 note=70 velocity=0 time=0
EXTRACT: note_on channel=7 note=70 velocity=0 time=0.020161291666666668
EXTRACT: note_on channel=9 note=63 velocity=113 time=0.017641130208333335
EXTRACT: note_on channel=9 note=28 velocity=70 time=0.0025201614583333335
EXTRACT: note_on channel=5 note=53 velocity=0 time=0.0025201614583333335
EXTRACT: note_on channel=15 note=53 velocity=0 time=0
EXTRACT: note_on channel=1 note=31 velocity=107 time=0
EXTRACT: note_on channel=2 note=43 velocity=113 time=0
EXTRACT: note_on channel=4 note=60 velocity=107 time=0
EXTRACT: note_on channel=5 note=55 velocity=107 time=0
EXTRACT: note_on channel=6 note=72 velocity=107 time=0
EXTRACT: note_on channel=7 note=64 velocity=102 time=0
EXTRACT: note_on channel=7 note=72 velocity=95 time=0
EXTRACT: note_on channel=9 note=35 velocity=115 time=0
EXTRACT: note_on channel=9 note=42 velocity=115 time=0
EXTRACT: note_on channel=9 note=75 velocity=54 time=0
EXTRACT: note_on channel=13 note=43 velocity=103 time=0
EXTRACT: note_on channel=13 note=55 velocity=101 time=0
EXTRACT: note_on channel=15 note=55 velocity=1 time=0
EXTRACT: note_on channel=15 note=60 velocity=1 time=0
EXTRACT: note_on channel=15 note=72 velocity=1 time=0
EXTRACT: note_on channel=1 note=24 velocity=0 time=0.0025201614583333335
EXTRACT: note_on channel=9 note=63 velocity=0 time=0.0025201614583333335
EXTRACT: note_on channel=9 note=28 velocity=0 time=0.0025201614583333335
EXTRACT: note_on channel=9 note=86 velocity=102 time=0
EXTRACT: note_on channel=9 note=75 velocity=0 time=0.0025201614583333335
EXTRACT: note_on channel=9 note=35 velocity=0 time=0
EXTRACT: note_on channel=9 note=42 velocity=0 time=0
EXTRACT: note_on channel=9 note=86 velocity=0 time=0.007560484375000001
EXTRACT: note_on channel=15 note=58 velocity=0 time=0
EXTRACT: note_on channel=4 note=58 velocity=0 time=0
EXTRACT: note_on channel=13 note=36 velocity=0 time=0.015120968750000002
EXTRACT: note_on channel=2 note=36 velocity=0 time=0
EXTRACT: note_on channel=13 note=48 velocity=0 time=0
EXTRACT: note_on channel=9 note=63 velocity=57 time=0.052923390625000004
EXTRACT: note_on channel=9 note=63 velocity=0 time=0.010080645833333334
EXTRACT: note_on channel=9 note=28 velocity=33 time=0.020161291666666668
EXTRACT: note_on channel=9 note=42 velocity=72 time=0.005040322916666667
EXTRACT: note_on channel=9 note=28 velocity=0 time=0.005040322916666667
EXTRACT: note_on channel=9 note=42 velocity=0 time=0.005040322916666667
EXTRACT: note_on channel=9 note=86 velocity=107 time=0
EXTRACT: note_on channel=9 note=86 velocity=0 time=0.010080645833333334
EXTRACT: note_on channel=7 note=64 velocity=0 time=0.017641130208333335
EXTRACT: note_on channel=7 note=72 velocity=0 time=0.017641130208333335
EXTRACT: note_on channel=15 note=72 velocity=0 time=0.007560484375000001
EXTRACT: note_on channel=6 note=72 velocity=0 time=0
EXTRACT: note_on channel=4 note=60 velocity=0 time=0.005040322916666667
EXTRACT: note_on channel=15 note=60 velocity=0 time=0
EXTRACT: note_on channel=9 note=28 velocity=43 time=0.04788306770833334
EXTRACT: note_on channel=9 note=62 velocity=113 time=0.0025201614583333335
EXTRACT: note_on channel=9 note=42 velocity=62 time=0.0025201614583333335
EXTRACT: note_on channel=9 note=72 velocity=46 time=0
EXTRACT: note_on channel=9 note=28 velocity=0 time=0.005040322916666667
EXTRACT: note_on channel=9 note=62 velocity=0 time=0.0025201614583333335
EXTRACT: note_on channel=9 note=42 velocity=0 time=0.0025201614583333335
EXTRACT: note_on channel=9 note=72 velocity=0 time=0
EXTRACT: note_on channel=15 note=55 velocity=0 time=0.10080645833333333
EXTRACT: note_on channel=5 note=55 velocity=0 time=0
EXTRACT: note_on channel=9 note=28 velocity=53 time=0.005040322916666667
EXTRACT: note_on channel=1 note=28 velocity=113 time=0.005040322916666667
EXTRACT: note_on channel=4 note=60 velocity=107 time=0
EXTRACT: note_on channel=5 note=55 velocity=107 time=0
EXTRACT: note_on channel=6 note=72 velocity=107 time=0
EXTRACT: note_on channel=7 note=64 velocity=102 time=0
EXTRACT: note_on channel=7 note=72 velocity=101 time=0
EXTRACT: note_on channel=9 note=35 velocity=117 time=0
EXTRACT: note_on channel=9 note=42 velocity=47 time=0
EXTRACT: note_on channel=9 note=75 velocity=54 time=0
EXTRACT: note_on channel=15 note=55 velocity=1 time=0
EXTRACT: note_on channel=15 note=60 velocity=1 time=0
EXTRACT: note_on channel=15 note=72 velocity=1 time=0
EXTRACT: note_on channel=9 note=28 velocity=0 time=0.005040322916666667
EXTRACT: note_on channel=9 note=86 velocity=107 time=0
EXTRACT: note_on channel=1 note=31 velocity=0 time=0.0025201614583333335
EXTRACT: note_on channel=2 note=40 velocity=119 time=0
EXTRACT: note_on channel=13 note=40 velocity=109 time=0
EXTRACT: note_on channel=13 note=52 velocity=107 time=0
EXTRACT: note_on channel=13 note=43 velocity=0 time=0.0025201614583333335
EXTRACT: note_on channel=13 note=55 velocity=0 time=0
EXTRACT: note_on channel=9 note=75 velocity=0 time=0
EXTRACT: note_on channel=9 note=35 velocity=0 time=0
EXTRACT: note_on channel=2 note=43 velocity=0 time=0
EXTRACT: note_on channel=9 note=42 velocity=0 time=0
EXTRACT: note_on channel=9 note=86 velocity=0 time=0.005040322916666667
EXTRACT: note_on channel=7 note=64 velocity=0 time=0.10332661979166667
EXTRACT: note_on channel=9 note=62 velocity=127 time=0
EXTRACT: note_on channel=9 note=28 velocity=81 time=0.0025201614583333335
EXTRACT: note_on channel=9 note=42 velocity=113 time=0
EXTRACT: note_on channel=9 note=75 velocity=54 time=0
EXTRACT: note_on channel=9 note=62 velocity=0 time=0.007560484375000001
EXTRACT: note_on channel=9 note=28 velocity=0 time=0.0025201614583333335
EXTRACT: note_on channel=9 note=75 velocity=0 time=0
EXTRACT: note_on channel=9 note=42 velocity=0 time=0
EXTRACT: note_on channel=6 note=72 velocity=0 time=0.007560484375000001
EXTRACT: note_on channel=7 note=72 velocity=0 time=0
EXTRACT: note_on channel=15 note=72 velocity=0 time=0
EXTRACT: note_on channel=15 note=60 velocity=0 time=0.060483875000000006
EXTRACT: note_on channel=4 note=60 velocity=0 time=0
EXTRACT: note_on channel=5 note=55 velocity=0 time=0.027721776041666667
EXTRACT: note_on channel=15 note=55 velocity=0 time=0
EXTRACT: note_on channel=9 note=28 velocity=45 time=0.010080645833333334
EXTRACT: note_on channel=9 note=42 velocity=71 time=0.005040322916666667
EXTRACT: note_on channel=9 note=75 velocity=62 time=0
EXTRACT: note_on channel=9 note=28 velocity=0 time=0.005040322916666667
EXTRACT: note_on channel=9 note=42 velocity=0 time=0.005040322916666667
EXTRACT: note_on channel=9 note=75 velocity=0 time=0
EXTRACT: note_on channel=9 note=63 velocity=45 time=0.007560484375000001
EXTRACT: note_on channel=9 note=63 velocity=0 time=0.010080645833333334
EXTRACT: note_on channel=1 note=28 velocity=0 time=0.07308468229166667
EXTRACT: note_on channel=9 note=28 velocity=37 time=0.015120968750000002
EXTRACT: note_on channel=1 note=24 velocity=107 time=0.005040322916666667
EXTRACT: note_on channel=4 note=60 velocity=113 time=0
EXTRACT: note_on channel=5 note=52 velocity=107 time=0
EXTRACT: note_on channel=6 note=72 velocity=107 time=0
EXTRACT: note_on channel=7 note=64 velocity=107 time=0
EXTRACT: note_on channel=7 note=72 velocity=86 time=0
EXTRACT: note_on channel=9 note=35 velocity=115 time=0
EXTRACT: note_on channel=9 note=42 velocity=63 time=0
EXTRACT: note_on channel=15 note=52 velocity=1 time=0
EXTRACT: note_on channel=15 note=60 velocity=1 time=0
EXTRACT: note_on channel=15 note=72 velocity=1 time=0
EXTRACT: note_on channel=9 note=28 velocity=0 time=0.005040322916666667
EXTRACT: note_on channel=9 note=86 velocity=107 time=0
EXTRACT: note_on channel=9 note=63 velocity=107 time=0.0025201614583333335
EXTRACT: note_on channel=9 note=35 velocity=0 time=0.0025201614583333335
EXTRACT: note_on channel=9 note=42 velocity=0 time=0
EXTRACT: note_on channel=9 note=86 velocity=0 time=0.005040322916666667
EXTRACT: note_on channel=9 note=63 velocity=0 time=0.0025201614583333335
EXTRACT: note_on channel=2 note=36 velocity=113 time=0.007560484375000001
EXTRACT: note_on channel=13 note=36 velocity=103 time=0
EXTRACT: note_on channel=13 note=48 velocity=101 time=0
EXTRACT: note_on channel=2 note=40 velocity=0 time=0.007560484375000001
EXTRACT: note_on channel=13 note=40 velocity=0 time=0
EXTRACT: note_on channel=13 note=52 velocity=0 time=0
EXTRACT: note_on channel=9 note=35 velocity=93 time=0.08064516666666667
EXTRACT: note_on channel=9 note=63 velocity=107 time=0
EXTRACT: note_on channel=9 note=28 velocity=74 time=0.0025201614583333335
EXTRACT: note_on channel=9 note=42 velocity=50 time=0.005040322916666667
EXTRACT: note_on channel=9 note=75 velocity=55 time=0
EXTRACT: note_on channel=9 note=86 velocity=76 time=0
EXTRACT: note_on channel=9 note=63 velocity=0 time=0.0025201614583333335
EXTRACT: note_on channel=9 note=35 velocity=0 time=0
EXTRACT: note_on channel=9 note=28 velocity=0 time=0.0025201614583333335
EXTRACT: note_on channel=9 note=86 velocity=0 time=0.005040322916666667
EXTRACT: note_on channel=9 note=75 velocity=0 time=0
EXTRACT: note_on channel=9 note=42 velocity=0 time=0
EXTRACT: note_on channel=9 note=28 velocity=41 time=0.10584678125000001
EXTRACT: note_on channel=9 note=86 velocity=113 time=0
EXTRACT: note_on channel=9 note=42 velocity=119 time=0.005040322916666667
EXTRACT: note_on channel=9 note=86 velocity=0 time=0.005040322916666667
EXTRACT: note_on channel=9 note=28 velocity=0 time=0
EXTRACT: note_on channel=9 note=42 velocity=0 time=0.005040322916666667
EXTRACT: note_on channel=9 note=63 velocity=102 time=0.09324597395833334
EXTRACT: note_on channel=9 note=63 velocity=0 time=0.010080645833333334
EXTRACT: note_on channel=9 note=28 velocity=66 time=0.0025201614583333335
EXTRACT: note_on channel=9 note=42 velocity=78 time=0.005040322916666667
EXTRACT: note_on channel=9 note=86 velocity=107 time=0
EXTRACT: note_on channel=9 note=28 velocity=0 time=0.005040322916666667
EXTRACT: note_on channel=9 note=86 velocity=0 time=0.005040322916666667
EXTRACT: note_on channel=9 note=42 velocity=0 time=0
EXTRACT: note_on channel=9 note=35 velocity=106 time=0.098286296875
EXTRACT: note_on channel=9 note=35 velocity=0 time=0.010080645833333334
EXTRACT: note_on channel=1 note=24 velocity=0 time=0
EXTRACT: note_on channel=1 note=31 velocity=107 time=0.0025201614583333335
EXTRACT: note_on channel=9 note=42 velocity=61 time=0
EXTRACT: note_on channel=9 note=72 velocity=45 time=0
EXTRACT: note_on channel=2 note=43 velocity=113 time=0.007560484375000001
EXTRACT: note_on channel=9 note=62 velocity=127 time=0
EXTRACT: note_on channel=13 note=43 velocity=103 time=0
EXTRACT: note_on channel=13 note=55 velocity=101 time=0
EXTRACT: note_on channel=9 note=72 velocity=0 time=0.0025201614583333335
EXTRACT: note_on channel=9 note=42 velocity=0 time=0
EXTRACT: note_on channel=2 note=36 velocity=0 time=0.0025201614583333335
EXTRACT: note_on channel=13 note=36 velocity=0 time=0
EXTRACT: note_on channel=13 note=48 velocity=0 time=0
EXTRACT: note_on channel=9 note=62 velocity=0 time=0.005040322916666667
EXTRACT: note_on channel=9 note=28 velocity=56 time=0.098286296875
EXTRACT: note_on channel=9 note=86 velocity=113 time=0.0025201614583333335
EXTRACT: note_on channel=9 note=42 velocity=50 time=0.0025201614583333335
EXTRACT: note_on channel=9 note=75 velocity=54 time=0
EXTRACT: note_on channel=9 note=28 velocity=0 time=0.005040322916666667
EXTRACT: note_on channel=9 note=86 velocity=0 time=0.0025201614583333335
EXTRACT: note_on channel=9 note=75 velocity=0 time=0.0025201614583333335
EXTRACT: note_on channel=9 note=42 velocity=0 time=0
EXTRACT: note_on channel=1 note=28 velocity=107 time=0.11088710416666667
EXTRACT: note_on channel=9 note=28 velocity=85 time=0
EXTRACT: note_on channel=9 note=42 velocity=119 time=0
EXTRACT: note_on channel=9 note=75 velocity=52 time=0
EXTRACT: note_on channel=9 note=62 velocity=113 time=0.007560484375000001
EXTRACT: note_on channel=9 note=75 velocity=0 time=0.0025201614583333335
EXTRACT: note_on channel=9 note=42 velocity=0 time=0
EXTRACT: note_on channel=9 note=28 velocity=0 time=0
EXTRACT: note_on channel=9 note=62 velocity=0 time=0.007560484375000001
EXTRACT: note_on channel=2 note=40 velocity=107 time=0
EXTRACT: note_on channel=13 note=40 velocity=97 time=0
EXTRACT: note_on channel=13 note=52 velocity=95 time=0
EXTRACT: note_on channel=1 note=31 velocity=0 time=0.005040322916666667
EXTRACT: note_on channel=13 note=43 velocity=0 time=0.020161291666666668
EXTRACT: note_on channel=13 note=55 velocity=0 time=0
EXTRACT: note_on channel=2 note=43 velocity=0 time=0
EXTRACT: note_on channel=9 note=28 velocity=40 time=0.07308468229166667
EXTRACT: note_on channel=9 note=35 velocity=117 time=0.0025201614583333335
EXTRACT: note_on channel=9 note=42 velocity=72 time=0.0025201614583333335
EXTRACT: note_on channel=9 note=63 velocity=93 time=0
EXTRACT: note_on channel=9 note=75 velocity=52 time=0
EXTRACT: note_on channel=9 note=28 velocity=0 time=0.005040322916666667
EXTRACT: note_on channel=9 note=35 velocity=0 time=0.0025201614583333335
EXTRACT: note_on channel=9 note=75 velocity=0 time=0.0025201614583333335
EXTRACT: note_on channel=9 note=63 velocity=0 time=0
EXTRACT: note_on channel=9 note=42 velocity=0 time=0
EXTRACT: note_on channel=15 note=72 velocity=0 time=0.020161291666666668
EXTRACT: note_on channel=6 note=72 velocity=0 time=0
EXTRACT: note_on channel=4 note=60 velocity=0 time=0.05796371354166667
EXTRACT: note_on channel=15 note=60 velocity=0 time=0
EXTRACT: note_on channel=1 note=28 velocity=0 time=0
EXTRACT: note_on channel=9 note=28 velocity=49 time=0.027721776041666667
EXTRACT: note_on channel=9 note=63 velocity=107 time=0.0025201614583333335
EXTRACT: note_on channel=1 note=24 velocity=102 time=0.0025201614583333335
EXTRACT: note_on channel=9 note=42 velocity=54 time=0
EXTRACT: note_on channel=9 note=86 velocity=107 time=0.0025201614583333335
EXTRACT: note_on channel=9 note=28 velocity=0 time=0.0025201614583333335
EXTRACT: note_on channel=9 note=63 velocity=0 time=0.0025201614583333335
EXTRACT: note_on channel=9 note=42 velocity=0 time=0.0025201614583333335
EXTRACT: note_on channel=9 note=86 velocity=0 time=0.0025201614583333335
EXTRACT: note_on channel=2 note=36 velocity=102 time=0
EXTRACT: note_on channel=13 note=36 velocity=92 time=0
EXTRACT: note_on channel=13 note=48 velocity=90 time=0
EXTRACT: note_on channel=13 note=52 velocity=0 time=0.005040322916666667
EXTRACT: note_on channel=2 note=40 velocity=0 time=0
EXTRACT: note_on channel=13 note=40 velocity=0 time=0
EXTRACT: note_on channel=7 note=64 velocity=0 time=0.04284274479166667
EXTRACT: note_on channel=7 note=72 velocity=0 time=0.012600807291666667
EXTRACT: note_on channel=9 note=28 velocity=53 time=0.04284274479166667
EXTRACT: note_on channel=9 note=63 velocity=78 time=0.0025201614583333335
EXTRACT: note_on channel=9 note=42 velocity=48 time=0.0025201614583333335
EXTRACT: note_on channel=9 note=75 velocity=54 time=0
EXTRACT: note_on channel=9 note=86 velocity=85 time=0.0025201614583333335
EXTRACT: note_on channel=9 note=28 velocity=0 time=0.0025201614583333335
EXTRACT: note_on channel=9 note=63 velocity=0 time=0.0025201614583333335
EXTRACT: note_on channel=9 note=42 velocity=0 time=0.0025201614583333335
EXTRACT: note_on channel=9 note=75 velocity=0 time=0
EXTRACT: note_on channel=9 note=35 velocity=104 time=0
EXTRACT: note_on channel=9 note=86 velocity=0 time=0.0025201614583333335
EXTRACT: note_on channel=9 note=35 velocity=0 time=0.007560484375000001
EXTRACT: note_on channel=15 note=52 velocity=0 time=0.012600807291666667
EXTRACT: note_on channel=5 note=52 velocity=0 time=0
EXTRACT: note_on channel=9 note=63 velocity=101 time=0.07560484375
EXTRACT: note_on channel=9 note=86 velocity=107 time=0.005040322916666667
EXTRACT: note_on channel=9 note=63 velocity=0 time=0.005040322916666667
EXTRACT: note_on channel=1 note=32 velocity=107 time=0.0025201614583333335
EXTRACT: note_on channel=4 note=60 velocity=119 time=0
EXTRACT: note_on channel=6 note=72 velocity=107 time=0
EXTRACT: note_on channel=7 note=65 velocity=107 time=0
EXTRACT: note_on channel=7 note=72 velocity=95 time=0
EXTRACT: note_on channel=9 note=28 velocity=73 time=0
EXTRACT: note_on channel=9 note=35 velocity=81 time=0
EXTRACT: note_on channel=9 note=42 velocity=115 time=0
EXTRACT: note_on channel=9 note=72 velocity=39 time=0
EXTRACT: note_on channel=9 note=75 velocity=51 time=0
EXTRACT: note_on channel=15 note=60 velocity=1 time=0
EXTRACT: note_on channel=15 note=72 velocity=1 time=0
EXTRACT: note_on channel=9 note=86 velocity=0 time=0.0025201614583333335
EXTRACT: note_on channel=1 note=24 velocity=0 time=0.005040322916666667
EXTRACT: note_on channel=9 note=28 velocity=0 time=0.0025201614583333335
EXTRACT: note_on channel=9 note=42 velocity=0 time=0
EXTRACT: note_on channel=9 note=75 velocity=0 time=0
EXTRACT: note_on channel=9 note=35 velocity=0 time=0
EXTRACT: note_on channel=9 note=72 velocity=0 time=0
EXTRACT: note_on channel=2 note=44 velocity=113 time=0.0025201614583333335
EXTRACT: note_on channel=13 note=44 velocity=103 time=0
EXTRACT: note_on channel=13 note=56 velocity=101 time=0
EXTRACT: note_on channel=2 note=36 velocity=0 time=0.007560484375000001
EXTRACT: note_on channel=13 note=36 velocity=0 time=0
EXTRACT: note_on channel=13 note=48 velocity=0 time=0
EXTRACT: note_on channel=7 note=65 velocity=0 time=0.09324597395833334
EXTRACT: note_on channel=9 note=28 velocity=36 time=0.0025201614583333335
EXTRACT: note_on channel=7 note=72 velocity=0 time=0.0025201614583333335
EXTRACT: note_on channel=9 note=86 velocity=113 time=0
EXTRACT: note_on channel=9 note=42 velocity=72 time=0.0025201614583333335
EXTRACT: note_on channel=9 note=28 velocity=0 time=0.005040322916666667
EXTRACT: note_on channel=9 note=86 velocity=0 time=0.0025201614583333335
EXTRACT: note_on channel=9 note=42 velocity=0 time=0.0025201614583333335
EXTRACT: note_on channel=15 note=72 velocity=0 time=0.03276209895833333
EXTRACT: note_on channel=6 note=72 velocity=0 time=0
EXTRACT: note_on channel=15 note=60 velocity=0 time=0.020161291666666668
EXTRACT: note_on channel=4 note=60 velocity=0 time=0
EXTRACT: note_on channel=9 note=28 velocity=45 time=0.052923390625000004
EXTRACT: note_on channel=9 note=42 velocity=62 time=0.005040322916666667
EXTRACT: note_on channel=9 note=62 velocity=113 time=0
EXTRACT: note_on channel=9 note=28 velocity=0 time=0.005040322916666667
EXTRACT: note_on channel=9 note=42 velocity=0 time=0.005040322916666667
EXTRACT: note_on channel=9 note=62 velocity=0 time=0
EXTRACT: note_on channel=1 note=32 velocity=0 time=0.10080645833333333
EXTRACT: note_on channel=9 note=28 velocity=51 time=0.005040322916666667
EXTRACT: note_on channel=1 note=29 velocity=107 time=0.005040322916666667
EXTRACT: note_on channel=4 note=60 velocity=119 time=0
EXTRACT: note_on channel=5 note=56 velocity=107 time=0
EXTRACT: note_on channel=6 note=72 velocity=102 time=0
EXTRACT: note_on channel=7 note=65 velocity=107 time=0
EXTRACT: note_on channel=7 note=72 velocity=95 time=0
EXTRACT: note_on channel=9 note=35 velocity=115 time=0
EXTRACT: note_on channel=9 note=42 velocity=47 time=0
EXTRACT: note_on channel=9 note=75 velocity=60 time=0
EXTRACT: note_on channel=15 note=56 velocity=1 time=0
EXTRACT: note_on channel=15 note=60 velocity=1 time=0
EXTRACT: note_on channel=15 note=72 velocity=1 time=0
EXTRACT: note_on channel=13 note=56 velocity=0 time=0.0025201614583333335
EXTRACT: note_on channel=13 note=44 velocity=0 time=0
EXTRACT: note_on channel=2 note=44 velocity=0 time=0
EXTRACT: note_on channel=9 note=28 velocity=0 time=0.0025201614583333335
EXTRACT: note_on channel=2 note=41 velocity=107 time=0
EXTRACT: note_on channel=13 note=41 velocity=97 time=0
EXTRACT: note_on channel=13 note=53 velocity=95 time=0
EXTRACT: note_on channel=9 note=35 velocity=0 time=0.005040322916666667
EXTRACT: note_on channel=9 note=75 velocity=0 time=0
EXTRACT: note_on channel=9 note=42 velocity=0 time=0
EXTRACT: note_on channel=7 note=65 velocity=0 time=0.05796371354166667
EXTRACT: note_on channel=7 note=72 velocity=0 time=0.007560484375000001
EXTRACT: note_on channel=9 note=28 velocity=88 time=0.040322583333333335
EXTRACT: note_on channel=9 note=42 velocity=113 time=0.005040322916666667
EXTRACT: note_on channel=9 note=62 velocity=119 time=0
EXTRACT: note_on channel=9 note=75 velocity=54 time=0
EXTRACT: note_on channel=9 note=28 velocity=0 time=0.005040322916666667
EXTRACT: note_on channel=15 note=72 velocity=0 time=0.005040322916666667
EXTRACT: note_on channel=6 note=72 velocity=0 time=0
EXTRACT: note_on channel=9 note=75 velocity=0 time=0
EXTRACT: note_on channel=9 note=42 velocity=0 time=0
EXTRACT: note_on channel=9 note=62 velocity=0 time=0
EXTRACT: note_on channel=4 note=60 velocity=0 time=0.05796371354166667
EXTRACT: note_on channel=15 note=56 velocity=0 time=0
EXTRACT: note_on channel=15 note=60 velocity=0 time=0
EXTRACT: note_on channel=5 note=56 velocity=0 time=0
EXTRACT: note_on channel=9 note=28 velocity=37 time=0.04788306770833334
EXTRACT: note_on channel=9 note=42 velocity=71 time=0.005040322916666667
EXTRACT: note_on channel=9 note=75 velocity=56 time=0
EXTRACT: note_on channel=9 note=28 velocity=0 time=0.005040322916666667
EXTRACT: note_on channel=9 note=42 velocity=0 time=0.005040322916666667
EXTRACT: note_on channel=9 note=75 velocity=0 time=0
EXTRACT: note_on channel=1 note=29 velocity=0 time=0.098286296875
EXTRACT: note_on channel=9 note=86 velocity=113 time=0.0025201614583333335
EXTRACT: note_on channel=9 note=63 velocity=107 time=0.0025201614583333335
EXTRACT: note_on channel=13 note=53 velocity=0 time=0.0025201614583333335
EXTRACT: note_on channel=2 note=41 velocity=0 time=0
EXTRACT: note_on channel=13 note=41 velocity=0 time=0
EXTRACT: note_on channel=9 note=28 velocity=53 time=0
EXTRACT: note_on channel=9 note=86 velocity=0 time=0.005040322916666667
EXTRACT: note_on channel=1 note=24 velocity=102 time=0
EXTRACT: note_on channel=4 note=60 velocity=113 time=0
EXTRACT: note_on channel=5 note=53 velocity=113 time=0
EXTRACT: note_on channel=6 note=72 velocity=107 time=0
EXTRACT: note_on channel=7 note=65 velocity=102 time=0
EXTRACT: note_on channel=7 note=72 velocity=95 time=0
EXTRACT: note_on channel=9 note=35 velocity=106 time=0
EXTRACT: note_on channel=9 note=42 velocity=63 time=0
EXTRACT: note_on channel=15 note=53 velocity=1 time=0
EXTRACT: note_on channel=15 note=60 velocity=1 time=0
EXTRACT: note_on channel=15 note=72 velocity=1 time=0
EXTRACT: note_on channel=9 note=63 velocity=0 time=0.0025201614583333335
EXTRACT: note_on channel=9 note=28 velocity=0 time=0.0025201614583333335
EXTRACT: note_on channel=2 note=36 velocity=113 time=0
EXTRACT: note_on channel=13 note=36 velocity=103 time=0
EXTRACT: note_on channel=13 note=48 velocity=101 time=0
EXTRACT: note_on channel=9 note=35 velocity=0 time=0.005040322916666667
EXTRACT: note_on channel=9 note=42 velocity=0 time=0
EXTRACT: note_on channel=9 note=86 velocity=98 time=0.098286296875
EXTRACT: note_on channel=9 note=35 velocity=76 time=0.0025201614583333335
EXTRACT: note_on channel=9 note=28 velocity=70 time=0.005040322916666667
EXTRACT: note_on channel=9 note=63 velocity=85 time=0
EXTRACT: note_on channel=9 note=86 velocity=0 time=0.0025201614583333335
EXTRACT: note_on channel=9 note=35 velocity=0 time=0.0025201614583333335
EXTRACT: note_on channel=9 note=42 velocity=50 time=0
EXTRACT: note_on channel=9 note=75 velocity=60 time=0
EXTRACT: note_on channel=9 note=63 velocity=0 time=0.005040322916666667
EXTRACT: note_on channel=9 note=28 velocity=0 time=0
EXTRACT: note_on channel=9 note=75 velocity=0 time=0.005040322916666667
EXTRACT: note_on channel=9 note=42 velocity=0 time=0
EXTRACT: note_on channel=9 note=86 velocity=102 time=0.098286296875
EXTRACT: note_on channel=9 note=28 velocity=34 time=0.007560484375000001
EXTRACT: note_on channel=9 note=86 velocity=0 time=0.0025201614583333335
EXTRACT: note_on channel=9 note=42 velocity=119 time=0.0025201614583333335
EXTRACT: note_on channel=9 note=28 velocity=0 time=0.005040322916666667
EXTRACT: note_on channel=9 note=42 velocity=0 time=0.005040322916666667
EXTRACT: note_on channel=9 note=63 velocity=98 time=0.09324597395833334
EXTRACT: note_on channel=9 note=63 velocity=0 time=0.010080645833333334
EXTRACT: note_on channel=9 note=86 velocity=98 time=0
EXTRACT: note_on channel=9 note=28 velocity=61 time=0.0025201614583333335
EXTRACT: note_on channel=9 note=42 velocity=78 time=0.005040322916666667
EXTRACT: note_on channel=9 note=86 velocity=0 time=0.0025201614583333335
EXTRACT: note_on channel=9 note=28 velocity=0 time=0.0025201614583333335
EXTRACT: note_on channel=9 note=42 velocity=0 time=0.005040322916666667
EXTRACT: note_on channel=1 note=24 velocity=0 time=0.07560484375
EXTRACT: note_on channel=2 note=36 velocity=0 time=0.0025201614583333335
EXTRACT: note_on channel=13 note=36 velocity=0 time=0
EXTRACT: note_on channel=13 note=48 velocity=0 time=0
EXTRACT: note_on channel=7 note=65 velocity=0 time=0.005040322916666667
EXTRACT: note_on channel=4 note=60 velocity=0 time=0.007560484375000001
EXTRACT: note_on channel=15 note=53 velocity=0 time=0
EXTRACT: note_on channel=5 note=53 velocity=0 time=0
EXTRACT: note_on channel=15 note=60 velocity=0 time=0
EXTRACT: note_on channel=2 note=44 velocity=113 time=0.005040322916666667
EXTRACT: note_on channel=9 note=35 velocity=109 time=0
EXTRACT: note_on channel=13 note=44 velocity=103 time=0
EXTRACT: note_on channel=13 note=56 velocity=101 time=0
EXTRACT: note_on channel=7 note=72 velocity=0 time=0.007560484375000001
EXTRACT: note_on channel=9 note=35 velocity=0 time=0.0025201614583333335
EXTRACT: note_on channel=1 note=32 velocity=102 time=0.005040322916666667
EXTRACT: note_on channel=4 note=61 velocity=127 time=0
EXTRACT: note_on channel=5 note=56 velocity=102 time=0
EXTRACT: note_on channel=6 note=73 velocity=102 time=0
EXTRACT: note_on channel=7 note=65 velocity=107 time=0
EXTRACT: note_on channel=7 note=73 velocity=90 time=0
EXTRACT: note_on channel=9 note=42 velocity=61 time=0
EXTRACT: note_on channel=9 note=72 velocity=49 time=0
EXTRACT: note_on channel=15 note=56 velocity=1 time=0
EXTRACT: note_on channel=15 note=61 velocity=1 time=0
EXTRACT: note_on channel=15 note=73 velocity=1 time=0
EXTRACT: note_on channel=9 note=62 velocity=127 time=0.007560484375000001
EXTRACT: note_on channel=9 note=72 velocity=0 time=0.0025201614583333335
EXTRACT: note_on channel=9 note=42 velocity=0 time=0
EXTRACT: note_on channel=6 note=72 velocity=0 time=0.005040322916666667
EXTRACT: note_on channel=15 note=72 velocity=0 time=0
EXTRACT: note_on channel=9 note=62 velocity=0 time=0.0025201614583333335
EXTRACT: note_on channel=9 note=28 velocity=53 time=0.098286296875
EXTRACT: note_on channel=9 note=42 velocity=50 time=0.005040322916666667
EXTRACT: note_on channel=9 note=75 velocity=49 time=0
EXTRACT: note_on channel=9 note=28 velocity=0 time=0.005040322916666667
EXTRACT: note_on channel=9 note=75 velocity=0 time=0.005040322916666667
EXTRACT: note_on channel=9 note=42 velocity=0 time=0
EXTRACT: note_on channel=5 note=56 velocity=0 time=0.08820565104166667
EXTRACT: note_on channel=15 note=61 velocity=0 time=0
EXTRACT: note_on channel=15 note=56 velocity=0 time=0
EXTRACT: note_on channel=4 note=61 velocity=0 time=0
EXTRACT: note_on channel=7 note=65 velocity=0 time=0.0025201614583333335
EXTRACT: note_on channel=15 note=73 velocity=0 time=0.010080645833333334
EXTRACT: note_on channel=6 note=73 velocity=0 time=0
EXTRACT: note_on channel=2 note=41 velocity=107 time=0.005040322916666667
EXTRACT: note_on channel=9 note=28 velocity=84 time=0
EXTRACT: note_on channel=13 note=41 velocity=97 time=0
EXTRACT: note_on channel=13 note=53 velocity=95 time=0
EXTRACT: note_on channel=13 note=44 velocity=0 time=0.005040322916666667
EXTRACT: note_on channel=2 note=44 velocity=0 time=0
EXTRACT: note_on channel=13 note=56 velocity=0 time=0
EXTRACT: note_on channel=1 note=29 velocity=98 time=0
EXTRACT: note_on channel=4 note=60 velocity=107 time=0
EXTRACT: note_on channel=5 note=56 velocity=91 time=0
EXTRACT: note_on channel=6 note=72 velocity=98 time=0
EXTRACT: note_on channel=7 note=65 velocity=98 time=0
EXTRACT: note_on channel=7 note=72 velocity=81 time=0
EXTRACT: note_on channel=9 note=42 velocity=119 time=0
EXTRACT: note_on channel=9 note=75 velocity=54 time=0
EXTRACT: note_on channel=15 note=56 velocity=1 time=0
EXTRACT: note_on channel=15 note=60 velocity=1 time=0
EXTRACT: note_on channel=15 note=72 velocity=1 time=0
EXTRACT: note_on channel=9 note=28 velocity=0 time=0.005040322916666667
EXTRACT: note_on channel=7 note=73 velocity=0 time=0.005040322916666667
EXTRACT: note_on channel=9 note=75 velocity=0 time=0
EXTRACT: note_on channel=9 note=42 velocity=0 time=0
EXTRACT: note_on channel=1 note=32 velocity=0 time=0.005040322916666667
EXTRACT: note_on channel=9 note=62 velocity=127 time=0.0025201614583333335
EXTRACT: note_on channel=9 note=62 velocity=0 time=0.010080645833333334
EXTRACT: note_on channel=9 note=63 velocity=107 time=0.08568548958333334
EXTRACT: note_on channel=9 note=28 velocity=40 time=0.0025201614583333335
EXTRACT: note_on channel=9 note=35 velocity=115 time=0.005040322916666667
EXTRACT: note_on channel=9 note=42 velocity=72 time=0
EXTRACT: note_on channel=9 note=75 velocity=52 time=0
EXTRACT: note_on channel=9 note=63 velocity=0 time=0.0025201614583333335
EXTRACT: note_on channel=9 note=28 velocity=0 time=0.0025201614583333335
EXTRACT: note_on channel=9 note=75 velocity=0 time=0.005040322916666667
EXTRACT: note_on channel=9 note=42 velocity=0 time=0
EXTRACT: note_on channel=9 note=35 velocity=0 time=0
EXTRACT: note_on channel=7 note=72 velocity=0 time=0.07056452083333334
EXTRACT: note_on channel=7 note=65 velocity=0 time=0
EXTRACT: note_on channel=1 note=29 velocity=0 time=0.030241937500000003
EXTRACT: note_on channel=5 note=56 velocity=0 time=0.0025201614583333335
EXTRACT: note_on channel=15 note=56 velocity=0 time=0
EXTRACT: note_on channel=13 note=53 velocity=0 time=0
EXTRACT: note_on channel=13 note=41 velocity=0 time=0
EXTRACT: note_on channel=2 note=41 velocity=0 time=0
EXTRACT: note_on channel=2 note=36 velocity=102 time=0.0025201614583333335
EXTRACT: note_on channel=9 note=28 velocity=45 time=0
EXTRACT: note_on channel=13 note=36 velocity=92 time=0
EXTRACT: note_on channel=13 note=48 velocity=90 time=0
EXTRACT: note_on channel=1 note=24 velocity=93 time=0.005040322916666667
EXTRACT: note_on channel=4 note=58 velocity=107 time=0
EXTRACT: note_on channel=5 note=53 velocity=93 time=0
EXTRACT: note_on channel=6 note=70 velocity=102 time=0
EXTRACT: note_on channel=7 note=65 velocity=102 time=0
EXTRACT: note_on channel=7 note=70 velocity=81 time=0
EXTRACT: note_on channel=9 note=42 velocity=54 time=0
EXTRACT: note_on channel=15 note=53 velocity=1 time=0
EXTRACT: note_on channel=15 note=58 velocity=1 time=0
EXTRACT: note_on channel=15 note=70 velocity=1 time=0
EXTRACT: note_on channel=6 note=72 velocity=0 time=0.0025201614583333335
EXTRACT: note_on channel=15 note=72 velocity=0 time=0
EXTRACT: note_on channel=9 note=28 velocity=0 time=0.0025201614583333335
EXTRACT: note_on channel=9 note=86 velocity=107 time=0
EXTRACT: note_on channel=9 note=42 velocity=0 time=0.005040322916666667
EXTRACT: note_on channel=9 note=86 velocity=0 time=0.005040322916666667
EXTRACT: note_on channel=9 note=63 velocity=72 time=0.010080645833333334
EXTRACT: note_on channel=9 note=63 velocity=0 time=0.010080645833333334
EXTRACT: note_on channel=4 note=60 velocity=0 time=0.007560484375000001
EXTRACT: note_on channel=15 note=60 velocity=0 time=0
EXTRACT: note_on channel=9 note=28 velocity=66 time=0.07308468229166667
EXTRACT: note_on channel=9 note=63 velocity=99 time=0.0025201614583333335
EXTRACT: note_on channel=9 note=42 velocity=48 time=0.0025201614583333335
EXTRACT: note_on channel=9 note=75 velocity=47 time=0
EXTRACT: note_on channel=9 note=86 velocity=76 time=0
EXTRACT: note_on channel=9 note=28 velocity=0 time=0.005040322916666667
EXTRACT: note_on channel=9 note=63 velocity=0 time=0.0025201614583333335
EXTRACT: note_on channel=9 note=86 velocity=0 time=0.0025201614583333335
EXTRACT: note_on channel=9 note=75 velocity=0 time=0
EXTRACT: note_on channel=9 note=42 velocity=0 time=0
EXTRACT: note_on channel=5 note=53 velocity=0 time=0.08568548958333334
EXTRACT: note_on channel=15 note=53 velocity=0 time=0
EXTRACT: note_on channel=7 note=65 velocity=0 time=0.017641130208333335
EXTRACT: note_on channel=9 note=63 velocity=119 time=0
EXTRACT: note_on channel=9 note=28 velocity=57 time=0.0025201614583333335
EXTRACT: note_on channel=6 note=70 velocity=0 time=0.0025201614583333335
EXTRACT: note_on channel=15 note=70 velocity=0 time=0
EXTRACT: note_on channel=9 note=86 velocity=113 time=0
EXTRACT: note_on channel=13 note=48 velocity=0 time=0.0025201614583333335
EXTRACT: note_on channel=2 note=36 velocity=0 time=0
EXTRACT: note_on channel=13 note=36 velocity=0 time=0
EXTRACT: note_on channel=1 note=31 velocity=107 time=0
EXTRACT: note_on channel=4 note=60 velocity=113 time=0
EXTRACT: note_on channel=5 note=55 velocity=103 time=0
EXTRACT: note_on channel=6 note=72 velocity=98 time=0
EXTRACT: note_on channel=7 note=64 velocity=93 time=0
EXTRACT: note_on channel=7 note=72 velocity=90 time=0
EXTRACT: note_on channel=9 note=35 velocity=102 time=0
EXTRACT: note_on channel=9 note=42 velocity=115 time=0
EXTRACT: note_on channel=9 note=75 velocity=60 time=0
EXTRACT: note_on channel=15 note=55 velocity=1 time=0
EXTRACT: note_on channel=15 note=60 velocity=1 time=0
EXTRACT: note_on channel=15 note=72 velocity=1 time=0
EXTRACT: note_on channel=9 note=63 velocity=0 time=0.0025201614583333335
EXTRACT: note_on channel=2 note=43 velocity=107 time=0
EXTRACT: note_on channel=13 note=43 velocity=97 time=0
EXTRACT: note_on channel=13 note=55 velocity=95 time=0
EXTRACT: note_on channel=9 note=28 velocity=0 time=0.0025201614583333335
EXTRACT: note_on channel=7 note=70 velocity=0 time=0
EXTRACT: note_on channel=1 note=24 velocity=0 time=0
EXTRACT: note_on channel=9 note=86 velocity=0 time=0.0025201614583333335
EXTRACT: note_on channel=9 note=75 velocity=0 time=0.0025201614583333335
EXTRACT: note_on channel=9 note=35 velocity=0 time=0
EXTRACT: note_on channel=9 note=42 velocity=0 time=0
EXTRACT: note_on channel=4 note=58 velocity=0 time=0.010080645833333334
EXTRACT: note_on channel=15 note=58 velocity=0 time=0
EXTRACT: note_on channel=9 note=28 velocity=35 time=0.09576613541666668
EXTRACT: note_on channel=9 note=63 velocity=82 time=0
EXTRACT: note_on channel=9 note=42 velocity=72 time=0.005040322916666667
EXTRACT: note_on channel=9 note=63 velocity=0 time=0.005040322916666667
EXTRACT: note_on channel=9 note=28 velocity=0 time=0
EXTRACT: note_on channel=9 note=86 velocity=98 time=0
EXTRACT: note_on channel=9 note=42 velocity=0 time=0.005040322916666667
EXTRACT: note_on channel=9 note=86 velocity=0 time=0.005040322916666667
EXTRACT: note_on channel=9 note=28 velocity=43 time=0.10080645833333333
EXTRACT: note_on channel=9 note=42 velocity=62 time=0.005040322916666667
EXTRACT: note_on channel=9 note=62 velocity=113 time=0.0025201614583333335
EXTRACT: note_on channel=9 note=28 velocity=0 time=0.0025201614583333335
EXTRACT: note_on channel=9 note=42 velocity=0 time=0.005040322916666667
EXTRACT: note_on channel=9 note=62 velocity=0 time=0.0025201614583333335
EXTRACT: note_on channel=13 note=43 velocity=0 time=0.08316532812500001
EXTRACT: note_on channel=2 note=43 velocity=0 time=0
EXTRACT: note_on channel=13 note=55 velocity=0 time=0
EXTRACT: note_on channel=2 note=40 velocity=102 time=0.015120968750000002
EXTRACT: note_on channel=13 note=40 velocity=92 time=0
EXTRACT: note_on channel=13 note=52 velocity=90 time=0
EXTRACT: note_on channel=9 note=28 velocity=61 time=0.005040322916666667
EXTRACT: note_on channel=1 note=31 velocity=0 time=0.0025201614583333335
EXTRACT: note_on channel=1 note=28 velocity=113 time=0.0025201614583333335
EXTRACT: note_on channel=9 note=35 velocity=110 time=0
EXTRACT: note_on channel=9 note=42 velocity=47 time=0
EXTRACT: note_on channel=9 note=75 velocity=52 time=0
EXTRACT: note_on channel=9 note=28 velocity=0 time=0.005040322916666667
EXTRACT: note_on channel=9 note=75 velocity=0 time=0.005040322916666667
EXTRACT: note_on channel=9 note=42 velocity=0 time=0
EXTRACT: note_on channel=9 note=35 velocity=0 time=0
EXTRACT: note_on channel=9 note=28 velocity=85 time=0.10584678125000001
EXTRACT: note_on channel=9 note=62 velocity=127 time=0.0025201614583333335
EXTRACT: note_on channel=9 note=42 velocity=113 time=0.0025201614583333335
EXTRACT: note_on channel=9 note=75 velocity=48 time=0
EXTRACT: note_on channel=9 note=28 velocity=0 time=0.005040322916666667
EXTRACT: note_on channel=9 note=62 velocity=0 time=0.0025201614583333335
EXTRACT: note_on channel=9 note=75 velocity=0 time=0.0025201614583333335
EXTRACT: note_on channel=9 note=42 velocity=0 time=0
EXTRACT: note_on channel=9 note=28 velocity=45 time=0.10584678125000001
EXTRACT: note_on channel=9 note=42 velocity=71 time=0.005040322916666667
EXTRACT: note_on channel=9 note=75 velocity=54 time=0
EXTRACT: note_on channel=9 note=28 velocity=0 time=0.005040322916666667
EXTRACT: note_on channel=9 note=75 velocity=0 time=0.005040322916666667
EXTRACT: note_on channel=9 note=42 velocity=0 time=0
EXTRACT: note_on channel=9 note=63 velocity=76 time=0
EXTRACT: note_on channel=9 note=63 velocity=0 time=0.010080645833333334
EXTRACT: note_on channel=1 note=28 velocity=0 time=0.07056452083333334
EXTRACT: note_on channel=13 note=40 velocity=0 time=0.007560484375000001
EXTRACT: note_on channel=2 note=40 velocity=0 time=0
EXTRACT: note_on channel=13 note=52 velocity=0 time=0
EXTRACT: note_on channel=2 note=36 velocity=108 time=0.012600807291666667
EXTRACT: note_on channel=13 note=36 velocity=97 time=0
EXTRACT: note_on channel=13 note=48 velocity=99 time=0
EXTRACT: note_on channel=9 note=28 velocity=37 time=0.005040322916666667
EXTRACT: note_on channel=9 note=63 velocity=102 time=0.0025201614583333335
EXTRACT: note_on channel=9 note=86 velocity=102 time=0
EXTRACT: note_on channel=1 note=24 velocity=107 time=0.0025201614583333335
EXTRACT: note_on channel=9 note=35 velocity=98 time=0
EXTRACT: note_on channel=9 note=42 velocity=63 time=0
EXTRACT: note_on channel=9 note=28 velocity=0 time=0.005040322916666667
EXTRACT: note_on channel=9 note=86 velocity=0 time=0.0025201614583333335
EXTRACT: note_on channel=9 note=63 velocity=0 time=0
EXTRACT: note_on channel=9 note=42 velocity=0 time=0.0025201614583333335
EXTRACT: note_on channel=9 note=35 velocity=0 time=0
EXTRACT: note_on channel=9 note=63 velocity=81 time=0.09576613541666668
EXTRACT: note_on channel=9 note=86 velocity=93 time=0.0025201614583333335
EXTRACT: note_on channel=9 note=35 velocity=88 time=0.005040322916666667
EXTRACT: note_on channel=9 note=63 velocity=0 time=0.0025201614583333335
EXTRACT: note_on channel=9 note=28 velocity=74 time=0
EXTRACT: note_on channel=9 note=86 velocity=0 time=0.0025201614583333335
EXTRACT: note_on channel=9 note=42 velocity=50 time=0.0025201614583333335
EXTRACT: note_on channel=9 note=75 velocity=58 time=0
EXTRACT: note_on channel=9 note=35 velocity=0 time=0.0025201614583333335
EXTRACT: note_on channel=9 note=28 velocity=0 time=0.0025201614583333335
EXTRACT: note_on channel=9 note=75 velocity=0 time=0.005040322916666667
EXTRACT: note_on channel=9 note=42 velocity=0 time=0
EXTRACT: note_on channel=1 note=24 velocity=0 time=0.09324597395833334
EXTRACT: note_on channel=9 note=86 velocity=102 time=0.007560484375000001
EXTRACT: note_on channel=5 note=55 velocity=0 time=0.005040322916666667
EXTRACT: note_on channel=15 note=55 velocity=0 time=0
EXTRACT: note_on channel=9 note=28 velocity=41 time=0
EXTRACT: note_on channel=9 note=86 velocity=0 time=0.005040322916666667
EXTRACT: note_on channel=1 note=22 velocity=96 time=0
EXTRACT: note_on channel=9 note=42 velocity=119 time=0
EXTRACT: note_on channel=9 note=28 velocity=0 time=0.005040322916666667
EXTRACT: note_on channel=9 note=42 velocity=0 time=0.005040322916666667
EXTRACT: note_on channel=2 note=34 velocity=92 time=0
EXTRACT: note_on channel=13 note=34 velocity=85 time=0
EXTRACT: note_on channel=13 note=46 velocity=88 time=0
EXTRACT: note_on channel=13 note=36 velocity=0 time=0.010080645833333334
EXTRACT: note_on channel=13 note=48 velocity=0 time=0
EXTRACT: note_on channel=2 note=36 velocity=0 time=0
EXTRACT: note_on channel=9 note=63 velocity=98 time=0.07056452083333334
EXTRACT: note_on channel=9 note=63 velocity=0 time=0.010080645833333334
EXTRACT: note_on channel=9 note=86 velocity=107 time=0.010080645833333334
EXTRACT: note_on channel=9 note=28 velocity=66 time=0.005040322916666667
EXTRACT: note_on channel=9 note=86 velocity=0 time=0.005040322916666667
EXTRACT: note_on channel=9 note=42 velocity=78 time=0
EXTRACT: note_on channel=9 note=28 velocity=0 time=0.005040322916666667
EXTRACT: note_on channel=9 note=42 velocity=0 time=0.005040322916666667
EXTRACT: note_on channel=9 note=62 velocity=127 time=0.09576613541666668
EXTRACT: note_on channel=9 note=35 velocity=102 time=0.007560484375000001
EXTRACT: note_on channel=9 note=62 velocity=0 time=0.0025201614583333335
EXTRACT: note_on channel=9 note=42 velocity=61 time=0.005040322916666667
EXTRACT: note_on channel=9 note=72 velocity=35 time=0
EXTRACT: note_on channel=9 note=35 velocity=0 time=0.0025201614583333335
EXTRACT: note_on channel=9 note=72 velocity=0 time=0.007560484375000001
EXTRACT: note_on channel=9 note=42 velocity=0 time=0
EXTRACT: note_on channel=1 note=22 velocity=0 time=0.09576613541666668
EXTRACT: note_on channel=13 note=34 velocity=0 time=0.010080645833333334
EXTRACT: note_on channel=2 note=34 velocity=0 time=0
EXTRACT: note_on channel=13 note=46 velocity=0 time=0
EXTRACT: note_on channel=9 note=28 velocity=66 time=0
EXTRACT: note_on channel=1 note=24 velocity=113 time=0.005040322916666667
EXTRACT: note_on channel=9 note=42 velocity=50 time=0
EXTRACT: note_on channel=9 note=75 velocity=54 time=0
EXTRACT: note_on channel=9 note=28 velocity=0 time=0.005040322916666667
EXTRACT: note_on channel=2 note=36 velocity=107 time=0
EXTRACT: note_on channel=13 note=36 velocity=96 time=0
EXTRACT: note_on channel=13 note=48 velocity=93 time=0
EXTRACT: note_on channel=9 note=75 velocity=0 time=0.005040322916666667
EXTRACT: note_on channel=9 note=42 velocity=0 time=0
EXTRACT: note_on channel=6 note=72 velocity=0 time=0.05544355208333333
EXTRACT: note_on channel=15 note=72 velocity=0 time=0
EXTRACT: note_on channel=7 note=72 velocity=0 time=0.037802421875
EXTRACT: note_on channel=9 note=62 velocity=119 time=0.010080645833333334
EXTRACT: note_on channel=15 note=60 velocity=0 time=0.0025201614583333335
EXTRACT: note_on channel=4 note=60 velocity=0 time=0
EXTRACT: note_on channel=9 note=42 velocity=119 time=0.005040322916666667
EXTRACT: note_on channel=9 note=72 velocity=40 time=0
EXTRACT: note_on channel=9 note=75 velocity=51 time=0
EXTRACT: note_on channel=9 note=62 velocity=0 time=0.0025201614583333335
EXTRACT: note_on channel=7 note=64 velocity=0 time=0.0025201614583333335
EXTRACT: note_on channel=9 note=75 velocity=0 time=0.005040322916666667
EXTRACT: note_on channel=9 note=72 velocity=0 time=0
EXTRACT: note_on channel=9 note=42 velocity=0 time=0
EXTRACT: note_on channel=9 note=63 velocity=105 time=0.09576613541666668
EXTRACT: note_on channel=9 note=63 velocity=0 time=0.010080645833333334
EXTRACT: note_on channel=9 note=28 velocity=40 time=0
EXTRACT: note_on channel=9 note=42 velocity=72 time=0.005040322916666667
EXTRACT: note_on channel=9 note=75 velocity=54 time=0
EXTRACT: note_on channel=9 note=28 velocity=0 time=0.005040322916666667
EXTRACT: note_on channel=9 note=42 velocity=0 time=0.005040322916666667
EXTRACT: note_on channel=9 note=75 velocity=0 time=0
EXTRACT: note_on channel=9 note=63 velocity=80 time=0.0907258125
EXTRACT: note_on channel=1 note=24 velocity=0 time=0.0025201614583333335
EXTRACT: note_on channel=13 note=48 velocity=0 time=0.005040322916666667
EXTRACT: note_on channel=13 note=36 velocity=0 time=0
EXTRACT: note_on channel=2 note=36 velocity=0 time=0
EXTRACT: note_on channel=9 note=63 velocity=0 time=0.0025201614583333335
EXTRACT: note_on channel=2 note=40 velocity=100 time=0.005040322916666667
EXTRACT: note_on channel=9 note=28 velocity=49 time=0
EXTRACT: note_on channel=13 note=40 velocity=90 time=0
EXTRACT: note_on channel=13 note=52 velocity=88 time=0
EXTRACT: note_on channel=1 note=28 velocity=107 time=0.005040322916666667
EXTRACT: note_on channel=9 note=42 velocity=54 time=0
EXTRACT: note_on channel=9 note=28 velocity=0 time=0.005040322916666667
EXTRACT: note_on channel=9 note=42 velocity=0 time=0.005040322916666667
EXTRACT: note_on channel=9 note=28 velocity=53 time=0.10584678125000001
EXTRACT: note_on channel=9 note=42 velocity=48 time=0.005040322916666667
EXTRACT: note_on channel=9 note=75 velocity=47 time=0
EXTRACT: note_on channel=9 note=28 velocity=0 time=0.005040322916666667
EXTRACT: note_on channel=9 note=42 velocity=0 time=0.005040322916666667
EXTRACT: note_on channel=9 note=75 velocity=0 time=0
EXTRACT: note_on channel=1 note=28 velocity=0 time=0.09576613541666668
EXTRACT: note_on channel=2 note=40 velocity=0 time=0.0025201614583333335
EXTRACT: note_on channel=13 note=40 velocity=0 time=0
EXTRACT: note_on channel=13 note=52 velocity=0 time=0
EXTRACT: note_on channel=1 note=32 velocity=102 time=0.012600807291666667
EXTRACT: note_on channel=2 note=44 velocity=113 time=0
EXTRACT: note_on channel=4 note=60 velocity=113 time=0
EXTRACT: note_on channel=6 note=72 velocity=102 time=0
EXTRACT: note_on channel=7 note=65 velocity=107 time=0
EXTRACT: note_on channel=7 note=72 velocity=101 time=0
EXTRACT: note_on channel=9 note=35 velocity=117 time=0
EXTRACT: note_on channel=9 note=57 velocity=70 time=0
EXTRACT: note_on channel=9 note=86 velocity=107 time=0
EXTRACT: note_on channel=12 note=23 velocity=117 time=0
EXTRACT: note_on channel=13 note=44 velocity=103 time=0
EXTRACT: note_on channel=13 note=56 velocity=101 time=0
EXTRACT: note_on channel=15 note=60 velocity=1 time=0
EXTRACT: note_on channel=15 note=72 velocity=1 time=0
EXTRACT: note_on channel=9 note=86 velocity=0 time=0.010080645833333334
EXTRACT: note_on channel=9 note=57 velocity=0 time=0
EXTRACT: note_on channel=9 note=35 velocity=0 time=0
EXTRACT: note_on channel=12 note=23 velocity=0 time=0.010080645833333334
EXTRACT: note_on channel=9 note=63 velocity=102 time=0
EXTRACT: note_on channel=9 note=63 velocity=0 time=0.010080645833333334
EXTRACT: note_on channel=7 note=65 velocity=0 time=0.07812500520833333
EXTRACT: note_on channel=9 note=28 velocity=36 time=0.007560484375000001
EXTRACT: note_on channel=9 note=86 velocity=93 time=0.0025201614583333335
EXTRACT: note_on channel=9 note=42 velocity=72 time=0.0025201614583333335
EXTRACT: note_on channel=9 note=28 velocity=0 time=0.005040322916666667
EXTRACT: note_on channel=9 note=86 velocity=0 time=0.0025201614583333335
EXTRACT: note_on channel=9 note=42 velocity=0 time=0.0025201614583333335
EXTRACT: note_on channel=7 note=72 velocity=0 time=0.0025201614583333335
EXTRACT: note_on channel=9 note=63 velocity=53 time=0
EXTRACT: note_on channel=9 note=63 velocity=0 time=0.010080645833333334
EXTRACT: note_on channel=15 note=72 velocity=0 time=0.015120968750000002
EXTRACT: note_on channel=6 note=72 velocity=0 time=0
EXTRACT: note_on channel=4 note=60 velocity=0 time=0.052923390625000004
EXTRACT: note_on channel=15 note=60 velocity=0 time=0
EXTRACT: note_on channel=9 note=28 velocity=45 time=0.025201614583333334
EXTRACT: note_on channel=9 note=42 velocity=62 time=0.005040322916666667
EXTRACT: note_on channel=9 note=72 velocity=46 time=0
EXTRACT: note_on channel=9 note=28 velocity=0 time=0.005040322916666667
EXTRACT: note_on channel=9 note=42 velocity=0 time=0.005040322916666667
EXTRACT: note_on channel=9 note=72 velocity=0 time=0
EXTRACT: note_on channel=9 note=62 velocity=102 time=0.005040322916666667
EXTRACT: note_on channel=9 note=62 velocity=0 time=0.010080645833333334
EXTRACT: note_on channel=9 note=86 velocity=113 time=0.08316532812500001
EXTRACT: note_on channel=2 note=41 velocity=113 time=0.005040322916666667
EXTRACT: note_on channel=13 note=41 velocity=103 time=0
EXTRACT: note_on channel=13 note=53 velocity=101 time=0
EXTRACT: note_on channel=9 note=28 velocity=42 time=0.0025201614583333335
EXTRACT: note_on channel=9 note=86 velocity=0 time=0.0025201614583333335
EXTRACT: note_on channel=1 note=32 velocity=0 time=0.0025201614583333335
EXTRACT: note_on channel=1 note=29 velocity=107 time=0
EXTRACT: note_on channel=4 note=60 velocity=107 time=0
EXTRACT: note_on channel=5 note=56 velocity=113 time=0
EXTRACT: note_on channel=6 note=72 velocity=98 time=0
EXTRACT: note_on channel=7 note=65 velocity=102 time=0
EXTRACT: note_on channel=7 note=72 velocity=95 time=0
EXTRACT: note_on channel=9 note=35 velocity=117 time=0
EXTRACT: note_on channel=9 note=42 velocity=47 time=0
EXTRACT: note_on channel=9 note=75 velocity=54 time=0
EXTRACT: note_on channel=12 note=23 velocity=117 time=0
EXTRACT: note_on channel=15 note=56 velocity=1 time=0
EXTRACT: note_on channel=15 note=60 velocity=1 time=0
EXTRACT: note_on channel=15 note=72 velocity=1 time=0
EXTRACT: note_on channel=9 note=28 velocity=0 time=0.005040322916666667
EXTRACT: note_on channel=9 note=75 velocity=0 time=0.005040322916666667
EXTRACT: note_on channel=9 note=42 velocity=0 time=0
EXTRACT: note_on channel=9 note=35 velocity=0 time=0
EXTRACT: note_on channel=12 note=23 velocity=0 time=0.010080645833333334
EXTRACT: note_on channel=13 note=56 velocity=0 time=0.005040322916666667
EXTRACT: note_on channel=13 note=44 velocity=0 time=0
EXTRACT: note_on channel=2 note=44 velocity=0 time=0
EXTRACT: note_on channel=7 note=65 velocity=0 time=0.08064516666666667
EXTRACT: note_on channel=7 note=72 velocity=0 time=0.0025201614583333335
EXTRACT: note_on channel=9 note=40 velocity=113 time=0.012600807291666667
EXTRACT: note_on channel=9 note=42 velocity=113 time=0
EXTRACT: note_on channel=9 note=62 velocity=107 time=0
EXTRACT: note_on channel=9 note=75 velocity=60 time=0
EXTRACT: note_on channel=9 note=28 velocity=85 time=0.007560484375000001
EXTRACT: note_on channel=9 note=75 velocity=0 time=0.0025201614583333335
EXTRACT: note_on channel=15 note=72 velocity=0 time=0
EXTRACT: note_on channel=6 note=72 velocity=0 time=0
EXTRACT: note_on channel=9 note=62 velocity=0 time=0
EXTRACT: note_on channel=9 note=40 velocity=0 time=0
EXTRACT: note_on channel=9 note=42 velocity=0 time=0
EXTRACT: note_on channel=9 note=28 velocity=0 time=0.007560484375000001
EXTRACT: note_on channel=4 note=60 velocity=0 time=0.060483875000000006
EXTRACT: note_on channel=15 note=60 velocity=0 time=0
EXTRACT: note_on channel=5 note=56 velocity=0 time=0.025201614583333334
EXTRACT: note_on channel=15 note=56 velocity=0 time=0
EXTRACT: note_on channel=9 note=28 velocity=37 time=0.012600807291666667
EXTRACT: note_on channel=9 note=42 velocity=71 time=0.005040322916666667
EXTRACT: note_on channel=9 note=75 velocity=47 time=0
EXTRACT: note_on channel=9 note=28 velocity=0 time=0.005040322916666667
EXTRACT: note_on channel=9 note=42 velocity=0 time=0.005040322916666667
EXTRACT: note_on channel=9 note=75 velocity=0 time=0
EXTRACT: note_on channel=1 note=29 velocity=0 time=0.08820565104166667
EXTRACT: note_on channel=9 note=63 velocity=98 time=0.005040322916666667
EXTRACT: note_on channel=9 note=63 velocity=0 time=0.010080645833333334
EXTRACT: note_on channel=9 note=28 velocity=53 time=0.0025201614583333335
EXTRACT: note_on channel=1 note=24 velocity=107 time=0.005040322916666667
EXTRACT: note_on channel=4 note=60 velocity=113 time=0
EXTRACT: note_on channel=5 note=53 velocity=107 time=0
EXTRACT: note_on channel=6 note=72 velocity=102 time=0
EXTRACT: note_on channel=7 note=65 velocity=102 time=0
EXTRACT: note_on channel=7 note=72 velocity=95 time=0
EXTRACT: note_on channel=9 note=42 velocity=63 time=0
EXTRACT: note_on channel=15 note=53 velocity=1 time=0
EXTRACT: note_on channel=15 note=60 velocity=1 time=0
EXTRACT: note_on channel=15 note=72 velocity=1 time=0
EXTRACT: note_on channel=9 note=28 velocity=0 time=0.005040322916666667
EXTRACT: note_on channel=2 note=36 velocity=107 time=0.0025201614583333335
EXTRACT: note_on channel=13 note=36 velocity=97 time=0
EXTRACT: note_on channel=13 note=48 velocity=95 time=0
EXTRACT: note_on channel=9 note=42 velocity=0 time=0.0025201614583333335
EXTRACT: note_on channel=9 note=35 velocity=112 time=0
EXTRACT: note_on channel=9 note=86 velocity=102 time=0
EXTRACT: note_on channel=12 note=23 velocity=112 time=0
EXTRACT: note_on channel=13 note=53 velocity=0 time=0.0025201614583333335
EXTRACT: note_on channel=13 note=41 velocity=0 time=0
EXTRACT: note_on channel=2 note=41 velocity=0 time=0
EXTRACT: note_on channel=9 note=86 velocity=0 time=0.007560484375000001
EXTRACT: note_on channel=9 note=35 velocity=0 time=0
EXTRACT: note_on channel=12 note=23 velocity=0 time=0.010080645833333334
EXTRACT: note_on channel=9 note=63 velocity=48 time=0.05040322916666667
EXTRACT: note_on channel=9 note=63 velocity=0 time=0.010080645833333334
EXTRACT: note_on channel=9 note=28 velocity=70 time=0.025201614583333334
EXTRACT: note_on channel=9 note=35 velocity=86 time=0.005040322916666667
EXTRACT: note_on channel=9 note=42 velocity=50 time=0
EXTRACT: note_on channel=9 note=75 velocity=64 time=0
EXTRACT: note_on channel=12 note=23 velocity=86 time=0
EXTRACT: note_on channel=9 note=28 velocity=0 time=0.005040322916666667
EXTRACT: note_on channel=9 note=86 velocity=93 time=0
EXTRACT: note_on channel=9 note=75 velocity=0 time=0.005040322916666667
EXTRACT: note_on channel=9 note=42 velocity=0 time=0
EXTRACT: note_on channel=9 note=35 velocity=0 time=0
EXTRACT: note_on channel=9 note=86 velocity=0 time=0.005040322916666667
EXTRACT: note_on channel=12 note=23 velocity=0 time=0.005040322916666667
EXTRACT: note_on channel=9 note=28 velocity=34 time=0.09576613541666668
EXTRACT: note_on channel=9 note=42 velocity=119 time=0.005040322916666667
EXTRACT: note_on channel=9 note=86 velocity=107 time=0.0025201614583333335
EXTRACT: note_on channel=9 note=28 velocity=0 time=0.0025201614583333335
EXTRACT: note_on channel=9 note=42 velocity=0 time=0.005040322916666667
EXTRACT: note_on channel=9 note=86 velocity=0 time=0.0025201614583333335
EXTRACT: note_on channel=9 note=63 velocity=89 time=0.08064516666666667
EXTRACT: note_on channel=9 note=63 velocity=0 time=0.010080645833333334
EXTRACT: note_on channel=9 note=28 velocity=61 time=0.012600807291666667
EXTRACT: note_on channel=9 note=40 velocity=107 time=0.005040322916666667
EXTRACT: note_on channel=9 note=42 velocity=78 time=0
EXTRACT: note_on channel=9 note=28 velocity=0 time=0.005040322916666667
EXTRACT: note_on channel=9 note=86 velocity=102 time=0
EXTRACT: note_on channel=9 note=42 velocity=0 time=0.005040322916666667
EXTRACT: note_on channel=9 note=40 velocity=0 time=0
EXTRACT: note_on channel=9 note=86 velocity=0 time=0.005040322916666667
EXTRACT: note_on channel=7 note=65 velocity=0 time=0.07308468229166667
EXTRACT: note_on channel=15 note=53 velocity=0 time=0
EXTRACT: note_on channel=5 note=53 velocity=0 time=0
EXTRACT: note_on channel=1 note=24 velocity=0 time=0.012600807291666667
EXTRACT: note_on channel=9 note=35 velocity=117 time=0.007560484375000001
EXTRACT: note_on channel=9 note=62 velocity=119 time=0
EXTRACT: note_on channel=12 note=23 velocity=117 time=0
EXTRACT: note_on channel=7 note=72 velocity=0 time=0.005040322916666667
EXTRACT: note_on channel=9 note=62 velocity=0 time=0.005040322916666667
EXTRACT: note_on channel=13 note=48 velocity=0 time=0
EXTRACT: note_on channel=2 note=36 velocity=0 time=0
EXTRACT: note_on channel=9 note=35 velocity=0 time=0
EXTRACT: note_on channel=13 note=36 velocity=0 time=0
EXTRACT: note_on channel=2 note=44 velocity=113 time=0
EXTRACT: note_on channel=13 note=44 velocity=103 time=0
EXTRACT: note_on channel=13 note=56 velocity=101 time=0
EXTRACT: note_on channel=1 note=32 velocity=107 time=0.0025201614583333335
EXTRACT: note_on channel=4 note=61 velocity=113 time=0
EXTRACT: note_on channel=5 note=56 velocity=107 time=0
EXTRACT: note_on channel=6 note=73 velocity=107 time=0
EXTRACT: note_on channel=7 note=65 velocity=107 time=0
EXTRACT: note_on channel=7 note=73 velocity=95 time=0
EXTRACT: note_on channel=9 note=42 velocity=61 time=0
EXTRACT: note_on channel=9 note=72 velocity=46 time=0
EXTRACT: note_on channel=15 note=56 velocity=1 time=0
EXTRACT: note_on channel=15 note=61 velocity=1 time=0
EXTRACT: note_on channel=15 note=73 velocity=1 time=0
EXTRACT: note_on channel=12 note=23 velocity=0 time=0.007560484375000001
EXTRACT: note_on channel=9 note=72 velocity=0 time=0.0025201614583333335
EXTRACT: note_on channel=9 note=42 velocity=0 time=0
EXTRACT: note_on channel=15 note=72 velocity=0 time=0.020161291666666668
EXTRACT: note_on channel=6 note=72 velocity=0 time=0
EXTRACT: note_on channel=4 note=60 velocity=0 time=0.0025201614583333335
EXTRACT: note_on channel=15 note=60 velocity=0 time=0
EXTRACT: note_on channel=9 note=86 velocity=107 time=0.08064516666666667
EXTRACT: note_on channel=9 note=28 velocity=57 time=0.0025201614583333335
EXTRACT: note_on channel=9 note=42 velocity=50 time=0.005040322916666667
EXTRACT: note_on channel=9 note=75 velocity=49 time=0
EXTRACT: note_on channel=9 note=86 velocity=0 time=0.0025201614583333335
EXTRACT: note_on channel=9 note=28 velocity=0 time=0.0025201614583333335
EXTRACT: note_on channel=9 note=75 velocity=0 time=0.005040322916666667
EXTRACT: note_on channel=9 note=42 velocity=0 time=0
EXTRACT: note_on channel=7 note=65 velocity=0 time=0.08316532812500001
EXTRACT: note_on channel=15 note=56 velocity=0 time=0.012600807291666667
EXTRACT: note_on channel=5 note=56 velocity=0 time=0
EXTRACT: note_on channel=1 note=32 velocity=0 time=0.005040322916666667
EXTRACT: note_on channel=9 note=28 velocity=82 time=0.005040322916666667
EXTRACT: note_on channel=4 note=61 velocity=0 time=0.0025201614583333335
EXTRACT: note_on channel=15 note=61 velocity=0 time=0
EXTRACT: note_on channel=1 note=29 velocity=107 time=0.0025201614583333335
EXTRACT: note_on channel=4 note=60 velocity=107 time=0
EXTRACT: note_on channel=5 note=56 velocity=102 time=0
EXTRACT: note_on channel=6 note=72 velocity=107 time=0
EXTRACT: note_on channel=7 note=65 velocity=98 time=0
EXTRACT: note_on channel=7 note=72 velocity=86 time=0
EXTRACT: note_on channel=9 note=40 velocity=107 time=0
EXTRACT: note_on channel=9 note=42 velocity=119 time=0
EXTRACT: note_on channel=9 note=62 velocity=113 time=0
EXTRACT: note_on channel=9 note=75 velocity=45 time=0
EXTRACT: note_on channel=15 note=56 velocity=1 time=0
EXTRACT: note_on channel=15 note=60 velocity=1 time=0
EXTRACT: note_on channel=15 note=72 velocity=1 time=0
EXTRACT: note_on channel=15 note=73 velocity=0 time=0.0025201614583333335
EXTRACT: note_on channel=6 note=73 velocity=0 time=0
EXTRACT: note_on channel=2 note=41 velocity=113 time=0
EXTRACT: note_on channel=13 note=41 velocity=103 time=0
EXTRACT: note_on channel=13 note=53 velocity=101 time=0
EXTRACT: note_on channel=9 note=28 velocity=0 time=0.0025201614583333335
EXTRACT: note_on channel=9 note=75 velocity=0 time=0.005040322916666667
EXTRACT: note_on channel=9 note=62 velocity=0 time=0
EXTRACT: note_on channel=9 note=42 velocity=0 time=0
EXTRACT: note_on channel=9 note=40 velocity=0 time=0
EXTRACT: note_on channel=2 note=44 velocity=0 time=0.017641130208333335
EXTRACT: note_on channel=13 note=44 velocity=0 time=0
EXTRACT: note_on channel=13 note=56 velocity=0 time=0
EXTRACT: note_on channel=7 note=73 velocity=0 time=0.010080645833333334
EXTRACT: note_on channel=9 note=28 velocity=47 time=0.07812500520833333
EXTRACT: note_on channel=9 note=35 velocity=102 time=0.005040322916666667
EXTRACT: note_on channel=9 note=42 velocity=72 time=0
EXTRACT: note_on channel=9 note=75 velocity=54 time=0
EXTRACT: note_on channel=12 note=23 velocity=102 time=0
EXTRACT: note_on channel=9 note=28 velocity=0 time=0.005040322916666667
EXTRACT: note_on channel=9 note=75 velocity=0 time=0.005040322916666667
EXTRACT: note_on channel=9 note=42 velocity=0 time=0
EXTRACT: note_on channel=9 note=35 velocity=0 time=0
EXTRACT: note_on channel=12 note=23 velocity=0 time=0.010080645833333334
EXTRACT: note_on channel=1 note=29 velocity=0 time=0.07308468229166667
EXTRACT: note_on channel=7 note=65 velocity=0 time=0.0025201614583333335
EXTRACT: note_on channel=2 note=41 velocity=0 time=0.0025201614583333335
EXTRACT: note_on channel=13 note=41 velocity=0 time=0
EXTRACT: note_on channel=13 note=53 velocity=0 time=0
EXTRACT: note_on channel=9 note=63 velocity=89 time=0.007560484375000001
EXTRACT: note_on channel=2 note=36 velocity=93 time=0.0025201614583333335
EXTRACT: note_on channel=13 note=36 velocity=83 time=0
EXTRACT: note_on channel=13 note=48 velocity=81 time=0
EXTRACT: note_on channel=4 note=60 velocity=0 time=0.0025201614583333335
EXTRACT: note_on channel=15 note=60 velocity=0 time=0
EXTRACT: note_on channel=9 note=63 velocity=0 time=0.005040322916666667
EXTRACT: note_on channel=6 note=72 velocity=0 time=0
EXTRACT: note_on channel=15 note=72 velocity=0 time=0
EXTRACT: note_on channel=15 note=56 velocity=0 time=0
EXTRACT: note_on channel=5 note=56 velocity=0 time=0
EXTRACT: note_on channel=9 note=28 velocity=36 time=0
EXTRACT: note_on channel=1 note=24 velocity=102 time=0.005040322916666667
EXTRACT: note_on channel=4 note=58 velocity=89 time=0
EXTRACT: note_on channel=5 note=53 velocity=107 time=0
EXTRACT: note_on channel=6 note=70 velocity=102 time=0
EXTRACT: note_on channel=7 note=65 velocity=107 time=0
EXTRACT: note_on channel=7 note=70 velocity=86 time=0
EXTRACT: note_on channel=9 note=42 velocity=54 time=0
EXTRACT: note_on channel=15 note=53 velocity=1 time=0
EXTRACT: note_on channel=15 note=58 velocity=1 time=0
EXTRACT: note_on channel=15 note=70 velocity=1 time=0
EXTRACT: note_on channel=9 note=28 velocity=0 time=0.005040322916666667
EXTRACT: note_on channel=7 note=72 velocity=0 time=0.005040322916666667
EXTRACT: note_on channel=9 note=42 velocity=0 time=0
EXTRACT: note_on channel=9 note=86 velocity=102 time=0.0025201614583333335
EXTRACT: note_on channel=9 note=86 velocity=0 time=0.010080645833333334
EXTRACT: note_on channel=9 note=63 velocity=102 time=0.08064516666666667
EXTRACT: note_on channel=9 note=63 velocity=0 time=0.010080645833333334
EXTRACT: note_on channel=9 note=28 velocity=53 time=0.0025201614583333335
EXTRACT: note_on channel=9 note=42 velocity=48 time=0.005040322916666667
EXTRACT: note_on channel=9 note=75 velocity=60 time=0
EXTRACT: note_on channel=9 note=28 velocity=0 time=0.005040322916666667
EXTRACT: note_on channel=9 note=75 velocity=0 time=0.005040322916666667
EXTRACT: note_on channel=9 note=42 velocity=0 time=0
EXTRACT: note_on channel=9 note=86 velocity=89 time=0.005040322916666667
EXTRACT: note_on channel=9 note=40 velocity=89 time=0.0025201614583333335
EXTRACT: note_on channel=9 note=86 velocity=0 time=0.007560484375000001
EXTRACT: note_on channel=9 note=40 velocity=0 time=0.0025201614583333335
EXTRACT: note_on channel=7 note=65 velocity=0 time=0.04284274479166667
EXTRACT: note_on channel=6 note=70 velocity=0 time=0.007560484375000001
EXTRACT: note_on channel=15 note=70 velocity=0 time=0
EXTRACT: note_on channel=7 note=70 velocity=0 time=0.020161291666666668
EXTRACT: note_on channel=9 note=63 velocity=113 time=0.017641130208333335
EXTRACT: note_on channel=9 note=28 velocity=70 time=0.0025201614583333335
EXTRACT: note_on channel=5 note=53 velocity=0 time=0.0025201614583333335
EXTRACT: note_on channel=15 note=53 velocity=0 time=0
EXTRACT: note_on channel=1 note=31 velocity=107 time=0
EXTRACT: note_on channel=2 note=43 velocity=113 time=0
EXTRACT: note_on channel=4 note=60 velocity=107 time=0
EXTRACT: note_on channel=5 note=55 velocity=107 time=0
EXTRACT: note_on channel=6 note=72 velocity=107 time=0
EXTRACT: note_on channel=7 note=64 velocity=102 time=0
EXTRACT: note_on channel=7 note=72 velocity=95 time=0
EXTRACT: note_on channel=9 note=35 velocity=115 time=0
EXTRACT: note_on channel=9 note=42 velocity=115 time=0
EXTRACT: note_on channel=9 note=75 velocity=54 time=0
EXTRACT: note_on channel=12 note=23 velocity=115 time=0
EXTRACT: note_on channel=13 note=43 velocity=103 time=0
EXTRACT: note_on channel=13 note=55 velocity=101 time=0
EXTRACT: note_on channel=15 note=55 velocity=1 time=0
EXTRACT: note_on channel=15 note=60 velocity=1 time=0
EXTRACT: note_on channel=15 note=72 velocity=1 time=0
EXTRACT: note_on channel=1 note=24 velocity=0 time=0.0025201614583333335
EXTRACT: note_on channel=9 note=63 velocity=0 time=0.0025201614583333335
EXTRACT: note_on channel=9 note=28 velocity=0 time=0.0025201614583333335
EXTRACT: note_on channel=9 note=86 velocity=102 time=0
EXTRACT: note_on channel=9 note=75 velocity=0 time=0.0025201614583333335
EXTRACT: note_on channel=9 note=35 velocity=0 time=0
EXTRACT: note_on channel=9 note=42 velocity=0 time=0
EXTRACT: note_on channel=9 note=86 velocity=0 time=0.007560484375000001
EXTRACT: note_on channel=15 note=58 velocity=0 time=0
EXTRACT: note_on channel=4 note=58 velocity=0 time=0
EXTRACT: note_on channel=12 note=23 velocity=0 time=0.0025201614583333335
EXTRACT: note_on channel=13 note=36 velocity=0 time=0.012600807291666667
EXTRACT: note_on channel=2 note=36 velocity=0 time=0
EXTRACT: note_on channel=13 note=48 velocity=0 time=0
EXTRACT: note_on channel=9 note=63 velocity=57 time=0.052923390625000004
EXTRACT: note_on channel=9 note=63 velocity=0 time=0.010080645833333334
EXTRACT: note_on channel=9 note=28 velocity=33 time=0.020161291666666668
EXTRACT: note_on channel=9 note=42 velocity=72 time=0.005040322916666667
EXTRACT: note_on channel=9 note=28 velocity=0 time=0.005040322916666667
EXTRACT: note_on channel=9 note=42 velocity=0 time=0.005040322916666667
EXTRACT: note_on channel=9 note=86 velocity=107 time=0
EXTRACT: note_on channel=9 note=86 velocity=0 time=0.010080645833333334
EXTRACT: note_on channel=7 note=64 velocity=0 time=0.017641130208333335
EXTRACT: note_on channel=7 note=72 velocity=0 time=0.017641130208333335
EXTRACT: note_on channel=15 note=72 velocity=0 time=0.007560484375000001
EXTRACT: note_on channel=6 note=72 velocity=0 time=0
EXTRACT: note_on channel=4 note=60 velocity=0 time=0.005040322916666667
EXTRACT: note_on channel=15 note=60 velocity=0 time=0
EXTRACT: note_on channel=9 note=28 velocity=43 time=0.04788306770833334
EXTRACT: note_on channel=9 note=62 velocity=113 time=0.0025201614583333335
EXTRACT: note_on channel=9 note=42 velocity=62 time=0.0025201614583333335
EXTRACT: note_on channel=9 note=72 velocity=46 time=0
EXTRACT: note_on channel=9 note=28 velocity=0 time=0.005040322916666667
EXTRACT: note_on channel=9 note=62 velocity=0 time=0.0025201614583333335
EXTRACT: note_on channel=9 note=42 velocity=0 time=0.0025201614583333335
EXTRACT: note_on channel=9 note=72 velocity=0 time=0
EXTRACT: note_on channel=15 note=55 velocity=0 time=0.10080645833333333
EXTRACT: note_on channel=5 note=55 velocity=0 time=0
EXTRACT: note_on channel=9 note=28 velocity=53 time=0.005040322916666667
EXTRACT: note_on channel=1 note=28 velocity=113 time=0.005040322916666667
EXTRACT: note_on channel=4 note=60 velocity=107 time=0
EXTRACT: note_on channel=5 note=55 velocity=107 time=0
EXTRACT: note_on channel=6 note=72 velocity=107 time=0
EXTRACT: note_on channel=7 note=64 velocity=102 time=0
EXTRACT: note_on channel=7 note=72 velocity=101 time=0
EXTRACT: note_on channel=9 note=35 velocity=117 time=0
EXTRACT: note_on channel=9 note=42 velocity=47 time=0
EXTRACT: note_on channel=9 note=75 velocity=54 time=0
EXTRACT: note_on channel=12 note=23 velocity=117 time=0
EXTRACT: note_on channel=15 note=55 velocity=1 time=0
EXTRACT: note_on channel=15 note=60 velocity=1 time=0
EXTRACT: note_on channel=15 note=72 velocity=1 time=0
EXTRACT: note_on channel=9 note=28 velocity=0 time=0.005040322916666667
EXTRACT: note_on channel=9 note=86 velocity=107 time=0
EXTRACT: note_on channel=1 note=31 velocity=0 time=0.0025201614583333335
EXTRACT: note_on channel=2 note=40 velocity=119 time=0
EXTRACT: note_on channel=13 note=40 velocity=109 time=0
EXTRACT: note_on channel=13 note=52 velocity=107 time=0
EXTRACT: note_on channel=13 note=55 velocity=0 time=0.0025201614583333335
EXTRACT: note_on channel=2 note=43 velocity=0 time=0
EXTRACT: note_on channel=9 note=75 velocity=0 time=0
EXTRACT: note_on channel=9 note=35 velocity=0 time=0
EXTRACT: note_on channel=13 note=43 velocity=0 time=0
EXTRACT: note_on channel=9 note=42 velocity=0 time=0
EXTRACT: note_on channel=9 note=86 velocity=0 time=0.005040322916666667
EXTRACT: note_on channel=12 note=23 velocity=0 time=0.005040322916666667
EXTRACT: note_on channel=7 note=64 velocity=0 time=0.098286296875
EXTRACT: note_on channel=9 note=62 velocity=127 time=0
EXTRACT: note_on channel=9 note=28 velocity=81 time=0.0025201614583333335
EXTRACT: note_on channel=9 note=40 velocity=113 time=0
EXTRACT: note_on channel=9 note=42 velocity=113 time=0
EXTRACT: note_on channel=9 note=75 velocity=54 time=0
EXTRACT: note_on channel=9 note=62 velocity=0 time=0.007560484375000001
EXTRACT: note_on channel=9 note=75 velocity=0 time=0.0025201614583333335
EXTRACT: note_on channel=9 note=28 velocity=0 time=0
EXTRACT: note_on channel=9 note=42 velocity=0 time=0
EXTRACT: note_on channel=9 note=40 velocity=0 time=0
EXTRACT: note_on channel=15 note=72 velocity=0 time=0.007560484375000001
EXTRACT: note_on channel=7 note=72 velocity=0 time=0
EXTRACT: note_on channel=6 note=72 velocity=0 time=0
EXTRACT: note_on channel=15 note=60 velocity=0 time=0.060483875000000006
EXTRACT: note_on channel=4 note=60 velocity=0 time=0
EXTRACT: note_on channel=15 note=55 velocity=0 time=0.027721776041666667
EXTRACT: note_on channel=5 note=55 velocity=0 time=0
EXTRACT: note_on channel=9 note=28 velocity=45 time=0.010080645833333334
EXTRACT: note_on channel=9 note=42 velocity=71 time=0.005040322916666667
EXTRACT: note_on channel=9 note=75 velocity=62 time=0
EXTRACT: note_on channel=9 note=28 velocity=0 time=0.005040322916666667
EXTRACT: note_on channel=9 note=42 velocity=0 time=0.005040322916666667
EXTRACT: note_on channel=9 note=75 velocity=0 time=0
EXTRACT: note_on channel=9 note=63 velocity=45 time=0.007560484375000001
EXTRACT: note_on channel=9 note=63 velocity=0 time=0.010080645833333334
EXTRACT: note_on channel=1 note=28 velocity=0 time=0.07308468229166667
EXTRACT: note_on channel=9 note=28 velocity=37 time=0.015120968750000002
EXTRACT: note_on channel=1 note=24 velocity=107 time=0.005040322916666667
EXTRACT: note_on channel=4 note=60 velocity=113 time=0
EXTRACT: note_on channel=5 note=52 velocity=107 time=0
EXTRACT: note_on channel=6 note=72 velocity=107 time=0
EXTRACT: note_on channel=7 note=64 velocity=107 time=0
EXTRACT: note_on channel=7 note=72 velocity=86 time=0
EXTRACT: note_on channel=9 note=35 velocity=115 time=0
EXTRACT: note_on channel=9 note=42 velocity=63 time=0
EXTRACT: note_on channel=12 note=23 velocity=115 time=0
EXTRACT: note_on channel=15 note=52 velocity=1 time=0
EXTRACT: note_on channel=15 note=60 velocity=1 time=0
EXTRACT: note_on channel=15 note=72 velocity=1 time=0
EXTRACT: note_on channel=9 note=28 velocity=0 time=0.005040322916666667
EXTRACT: note_on channel=9 note=86 velocity=107 time=0
EXTRACT: note_on channel=9 note=63 velocity=107 time=0.0025201614583333335
EXTRACT: note_on channel=9 note=35 velocity=0 time=0.0025201614583333335
EXTRACT: note_on channel=9 note=42 velocity=0 time=0
EXTRACT: note_on channel=9 note=86 velocity=0 time=0.005040322916666667
EXTRACT: note_on channel=9 note=63 velocity=0 time=0.0025201614583333335
EXTRACT: note_on channel=12 note=23 velocity=0 time=0.0025201614583333335
EXTRACT: note_on channel=2 note=36 velocity=113 time=0.005040322916666667
EXTRACT: note_on channel=13 note=36 velocity=103 time=0
EXTRACT: note_on channel=13 note=48 velocity=101 time=0
EXTRACT: note_on channel=13 note=40 velocity=0 time=0.007560484375000001
EXTRACT: note_on channel=2 note=40 velocity=0 time=0
EXTRACT: note_on channel=13 note=52 velocity=0 time=0
EXTRACT: note_on channel=9 note=35 velocity=93 time=0.08064516666666667
EXTRACT: note_on channel=9 note=63 velocity=107 time=0
EXTRACT: note_on channel=12 note=23 velocity=93 time=0
EXTRACT: note_on channel=9 note=28 velocity=74 time=0.0025201614583333335
EXTRACT: note_on channel=9 note=42 velocity=50 time=0.005040322916666667
EXTRACT: note_on channel=9 note=75 velocity=55 time=0
EXTRACT: note_on channel=9 note=86 velocity=76 time=0
EXTRACT: note_on channel=9 note=63 velocity=0 time=0.0025201614583333335
EXTRACT: note_on channel=9 note=35 velocity=0 time=0
EXTRACT: note_on channel=9 note=28 velocity=0 time=0.0025201614583333335
EXTRACT: note_on channel=9 note=86 velocity=0 time=0.005040322916666667
EXTRACT: note_on channel=9 note=75 velocity=0 time=0
EXTRACT: note_on channel=9 note=42 velocity=0 time=0
EXTRACT: note_on channel=12 note=23 velocity=0 time=0.0025201614583333335
EXTRACT: note_on channel=9 note=28 velocity=41 time=0.10332661979166667
EXTRACT: note_on channel=9 note=86 velocity=113 time=0
EXTRACT: note_on channel=9 note=42 velocity=119 time=0.005040322916666667
EXTRACT: note_on channel=9 note=86 velocity=0 time=0.005040322916666667
EXTRACT: note_on channel=9 note=28 velocity=0 time=0
EXTRACT: note_on channel=9 note=42 velocity=0 time=0.005040322916666667
EXTRACT: note_on channel=9 note=63 velocity=102 time=0.09324597395833334
EXTRACT: note_on channel=9 note=63 velocity=0 time=0.010080645833333334
EXTRACT: note_on channel=9 note=28 velocity=66 time=0.0025201614583333335
EXTRACT: note_on channel=9 note=40 velocity=102 time=0.005040322916666667
EXTRACT: note_on channel=9 note=42 velocity=78 time=0
EXTRACT: note_on channel=9 note=86 velocity=107 time=0
EXTRACT: note_on channel=9 note=28 velocity=0 time=0.005040322916666667
EXTRACT: note_on channel=9 note=86 velocity=0 time=0.005040322916666667
EXTRACT: note_on channel=9 note=42 velocity=0 time=0
EXTRACT: note_on channel=9 note=40 velocity=0 time=0
EXTRACT: note_on channel=9 note=35 velocity=106 time=0.098286296875
EXTRACT: note_on channel=12 note=23 velocity=106 time=0
EXTRACT: note_on channel=9 note=35 velocity=0 time=0.010080645833333334
EXTRACT: note_on channel=1 note=24 velocity=0 time=0
EXTRACT: note_on channel=1 note=31 velocity=107 time=0.0025201614583333335
EXTRACT: note_on channel=9 note=42 velocity=61 time=0
EXTRACT: note_on channel=9 note=72 velocity=45 time=0
EXTRACT: note_on channel=12 note=23 velocity=0 time=0.007560484375000001
EXTRACT: note_on channel=2 note=43 velocity=113 time=0
EXTRACT: note_on channel=9 note=62 velocity=127 time=0
EXTRACT: note_on channel=13 note=43 velocity=103 time=0
EXTRACT: note_on channel=13 note=55 velocity=101 time=0
EXTRACT: note_on channel=9 note=72 velocity=0 time=0.0025201614583333335
EXTRACT: note_on channel=9 note=42 velocity=0 time=0
EXTRACT: note_on channel=13 note=36 velocity=0 time=0.0025201614583333335
EXTRACT: note_on channel=2 note=36 velocity=0 time=0
EXTRACT: note_on channel=13 note=48 velocity=0 time=0
EXTRACT: note_on channel=9 note=62 velocity=0 time=0.005040322916666667
EXTRACT: note_on channel=9 note=28 velocity=56 time=0.098286296875
EXTRACT: note_on channel=9 note=86 velocity=113 time=0.0025201614583333335
EXTRACT: note_on channel=9 note=42 velocity=50 time=0.0025201614583333335
EXTRACT: note_on channel=9 note=75 velocity=54 time=0
EXTRACT: note_on channel=9 note=28 velocity=0 time=0.005040322916666667
EXTRACT: note_on channel=9 note=86 velocity=0 time=0.0025201614583333335
EXTRACT: note_on channel=9 note=75 velocity=0 time=0.0025201614583333335
EXTRACT: note_on channel=9 note=42 velocity=0 time=0
EXTRACT: note_on channel=1 note=28 velocity=107 time=0.11088710416666667
EXTRACT: note_on channel=9 note=28 velocity=85 time=0
EXTRACT: note_on channel=9 note=40 velocity=113 time=0
EXTRACT: note_on channel=9 note=42 velocity=119 time=0
EXTRACT: note_on channel=9 note=75 velocity=52 time=0
EXTRACT: note_on channel=9 note=62 velocity=113 time=0.007560484375000001
EXTRACT: note_on channel=9 note=75 velocity=0 time=0.0025201614583333335
EXTRACT: note_on channel=9 note=42 velocity=0 time=0
EXTRACT: note_on channel=9 note=40 velocity=0 time=0
EXTRACT: note_on channel=9 note=28 velocity=0 time=0
EXTRACT: note_on channel=9 note=62 velocity=0 time=0.007560484375000001
EXTRACT: note_on channel=2 note=40 velocity=107 time=0
EXTRACT: note_on channel=13 note=40 velocity=97 time=0
EXTRACT: note_on channel=13 note=52 velocity=95 time=0
EXTRACT: note_on channel=1 note=31 velocity=0 time=0.005040322916666667
EXTRACT: note_on channel=13 note=55 velocity=0 time=0.020161291666666668
EXTRACT: note_on channel=13 note=43 velocity=0 time=0
EXTRACT: note_on channel=2 note=43 velocity=0 time=0
EXTRACT: note_on channel=9 note=28 velocity=40 time=0.07308468229166667
EXTRACT: note_on channel=9 note=35 velocity=117 time=0.0025201614583333335
EXTRACT: note_on channel=12 note=23 velocity=117 time=0
EXTRACT: note_on channel=9 note=42 velocity=72 time=0.0025201614583333335
EXTRACT: note_on channel=9 note=63 velocity=93 time=0
EXTRACT: note_on channel=9 note=75 velocity=52 time=0
EXTRACT: note_on channel=9 note=28 velocity=0 time=0.005040322916666667
EXTRACT: note_on channel=9 note=35 velocity=0 time=0.0025201614583333335
EXTRACT: note_on channel=9 note=75 velocity=0 time=0.0025201614583333335
EXTRACT: note_on channel=9 note=63 velocity=0 time=0
EXTRACT: note_on channel=9 note=42 velocity=0 time=0
EXTRACT: note_on channel=12 note=23 velocity=0 time=0.007560484375000001
EXTRACT: note_on channel=6 note=72 velocity=0 time=0.012600807291666667
EXTRACT: note_on channel=15 note=72 velocity=0 time=0
EXTRACT: note_on channel=1 note=28 velocity=0 time=0.05796371354166667
EXTRACT: note_on channel=15 note=60 velocity=0 time=0
EXTRACT: note_on channel=4 note=60 velocity=0 time=0
EXTRACT: note_on channel=9 note=28 velocity=49 time=0.027721776041666667
EXTRACT: note_on channel=9 note=63 velocity=107 time=0.0025201614583333335
EXTRACT: note_on channel=1 note=24 velocity=102 time=0.0025201614583333335
EXTRACT: note_on channel=9 note=42 velocity=54 time=0
EXTRACT: note_on channel=9 note=86 velocity=107 time=0.0025201614583333335
EXTRACT: note_on channel=9 note=28 velocity=0 time=0.0025201614583333335
EXTRACT: note_on channel=9 note=63 velocity=0 time=0.0025201614583333335
EXTRACT: note_on channel=9 note=42 velocity=0 time=0.0025201614583333335
EXTRACT: note_on channel=9 note=86 velocity=0 time=0.0025201614583333335
EXTRACT: note_on channel=2 note=36 velocity=102 time=0
EXTRACT: note_on channel=13 note=36 velocity=92 time=0
EXTRACT: note_on channel=13 note=48 velocity=90 time=0
EXTRACT: note_on channel=13 note=52 velocity=0 time=0.005040322916666667
EXTRACT: note_on channel=2 note=40 velocity=0 time=0
EXTRACT: note_on channel=13 note=40 velocity=0 time=0
EXTRACT: note_on channel=7 note=64 velocity=0 time=0.04284274479166667
EXTRACT: note_on channel=7 note=72 velocity=0 time=0.012600807291666667
EXTRACT: note_on channel=9 note=28 velocity=53 time=0.04284274479166667
EXTRACT: note_on channel=9 note=63 velocity=78 time=0.0025201614583333335
EXTRACT: note_on channel=9 note=42 velocity=48 time=0.0025201614583333335
EXTRACT: note_on channel=9 note=75 velocity=54 time=0
EXTRACT: note_on channel=9 note=86 velocity=85 time=0.0025201614583333335
EXTRACT: note_on channel=9 note=28 velocity=0 time=0.0025201614583333335
EXTRACT: note_on channel=9 note=63 velocity=0 time=0.0025201614583333335
EXTRACT: note_on channel=9 note=42 velocity=0 time=0.0025201614583333335
EXTRACT: note_on channel=9 note=75 velocity=0 time=0
EXTRACT: note_on channel=9 note=35 velocity=104 time=0
EXTRACT: note_on channel=12 note=23 velocity=104 time=0
EXTRACT: note_on channel=9 note=86 velocity=0 time=0.0025201614583333335
EXTRACT: note_on channel=9 note=35 velocity=0 time=0.007560484375000001
EXTRACT: note_on channel=12 note=23 velocity=0 time=0.010080645833333334
EXTRACT: note_on channel=5 note=52 velocity=0 time=0.0025201614583333335
EXTRACT: note_on channel=15 note=52 velocity=0 time=0
EXTRACT: note_on channel=9 note=63 velocity=101 time=0.07560484375
EXTRACT: note_on channel=9 note=86 velocity=107 time=0.005040322916666667
EXTRACT: note_on channel=9 note=63 velocity=0 time=0.005040322916666667
EXTRACT: note_on channel=1 note=32 velocity=107 time=0.0025201614583333335
EXTRACT: note_on channel=4 note=60 velocity=119 time=0
EXTRACT: note_on channel=6 note=72 velocity=107 time=0
EXTRACT: note_on channel=7 note=65 velocity=107 time=0
EXTRACT: note_on channel=7 note=72 velocity=95 time=0
EXTRACT: note_on channel=9 note=28 velocity=73 time=0
EXTRACT: note_on channel=9 note=35 velocity=81 time=0
EXTRACT: note_on channel=9 note=42 velocity=115 time=0
EXTRACT: note_on channel=9 note=72 velocity=39 time=0
EXTRACT: note_on channel=9 note=75 velocity=51 time=0
EXTRACT: note_on channel=12 note=23 velocity=81 time=0
EXTRACT: note_on channel=15 note=60 velocity=1 time=0
EXTRACT: note_on channel=15 note=72 velocity=1 time=0
EXTRACT: note_on channel=9 note=86 velocity=0 time=0.0025201614583333335
EXTRACT: note_on channel=1 note=24 velocity=0 time=0.005040322916666667
EXTRACT: note_on channel=9 note=28 velocity=0 time=0.0025201614583333335
EXTRACT: note_on channel=9 note=75 velocity=0 time=0
EXTRACT: note_on channel=9 note=42 velocity=0 time=0
EXTRACT: note_on channel=9 note=35 velocity=0 time=0
EXTRACT: note_on channel=9 note=72 velocity=0 time=0
EXTRACT: note_on channel=2 note=44 velocity=113 time=0.0025201614583333335
EXTRACT: note_on channel=13 note=44 velocity=103 time=0
EXTRACT: note_on channel=13 note=56 velocity=101 time=0
EXTRACT: note_on channel=12 note=23 velocity=0 time=0.007560484375000001
EXTRACT: note_on channel=13 note=48 velocity=0 time=0
EXTRACT: note_on channel=13 note=36 velocity=0 time=0
EXTRACT: note_on channel=2 note=36 velocity=0 time=0
EXTRACT: note_on channel=7 note=65 velocity=0 time=0.09324597395833334
EXTRACT: note_on channel=9 note=28 velocity=36 time=0.0025201614583333335
EXTRACT: note_on channel=7 note=72 velocity=0 time=0.0025201614583333335
EXTRACT: note_on channel=9 note=86 velocity=113 time=0
EXTRACT: note_on channel=9 note=42 velocity=72 time=0.0025201614583333335
EXTRACT: note_on channel=9 note=28 velocity=0 time=0.005040322916666667
EXTRACT: note_on channel=9 note=86 velocity=0 time=0.0025201614583333335
EXTRACT: note_on channel=9 note=42 velocity=0 time=0.0025201614583333335
EXTRACT: note_on channel=6 note=72 velocity=0 time=0.03276209895833333
EXTRACT: note_on channel=15 note=72 velocity=0 time=0
EXTRACT: note_on channel=4 note=60 velocity=0 time=0.020161291666666668
EXTRACT: note_on channel=15 note=60 velocity=0 time=0
EXTRACT: note_on channel=9 note=28 velocity=45 time=0.052923390625000004
EXTRACT: note_on channel=9 note=42 velocity=62 time=0.005040322916666667
EXTRACT: note_on channel=9 note=62 velocity=113 time=0
EXTRACT: note_on channel=9 note=28 velocity=0 time=0.005040322916666667
EXTRACT: note_on channel=9 note=42 velocity=0 time=0.005040322916666667
EXTRACT: note_on channel=9 note=62 velocity=0 time=0
EXTRACT: note_on channel=1 note=32 velocity=0 time=0.10080645833333333
EXTRACT: note_on channel=9 note=28 velocity=51 time=0.005040322916666667
EXTRACT: note_on channel=1 note=29 velocity=107 time=0.005040322916666667
EXTRACT: note_on channel=4 note=60 velocity=119 time=0
EXTRACT: note_on channel=5 note=56 velocity=107 time=0
EXTRACT: note_on channel=6 note=72 velocity=102 time=0
EXTRACT: note_on channel=7 note=65 velocity=107 time=0
EXTRACT: note_on channel=7 note=72 velocity=95 time=0
EXTRACT: note_on channel=9 note=35 velocity=115 time=0
EXTRACT: note_on channel=9 note=42 velocity=47 time=0
EXTRACT: note_on channel=9 note=75 velocity=60 time=0
EXTRACT: note_on channel=12 note=23 velocity=115 time=0
EXTRACT: note_on channel=15 note=56 velocity=1 time=0
EXTRACT: note_on channel=15 note=60 velocity=1 time=0
EXTRACT: note_on channel=15 note=72 velocity=1 time=0
EXTRACT: note_on channel=13 note=44 velocity=0 time=0.0025201614583333335
EXTRACT: note_on channel=13 note=56 velocity=0 time=0
EXTRACT: note_on channel=2 note=44 velocity=0 time=0
EXTRACT: note_on channel=9 note=28 velocity=0 time=0.0025201614583333335
EXTRACT: note_on channel=2 note=41 velocity=107 time=0
EXTRACT: note_on channel=13 note=41 velocity=97 time=0
EXTRACT: note_on channel=13 note=53 velocity=95 time=0
EXTRACT: note_on channel=9 note=35 velocity=0 time=0.005040322916666667
EXTRACT: note_on channel=9 note=75 velocity=0 time=0
EXTRACT: note_on channel=9 note=42 velocity=0 time=0
EXTRACT: note_on channel=12 note=23 velocity=0 time=0.010080645833333334
EXTRACT: note_on channel=7 note=65 velocity=0 time=0.04788306770833334
EXTRACT: note_on channel=7 note=72 velocity=0 time=0.007560484375000001
EXTRACT: note_on channel=9 note=28 velocity=88 time=0.040322583333333335
EXTRACT: note_on channel=9 note=40 velocity=113 time=0.005040322916666667
EXTRACT: note_on channel=9 note=42 velocity=113 time=0
EXTRACT: note_on channel=9 note=62 velocity=119 time=0
EXTRACT: note_on channel=9 note=75 velocity=54 time=0
EXTRACT: note_on channel=9 note=28 velocity=0 time=0.005040322916666667
EXTRACT: note_on channel=9 note=42 velocity=0 time=0.005040322916666667
EXTRACT: note_on channel=15 note=72 velocity=0 time=0
EXTRACT: note_on channel=6 note=72 velocity=0 time=0
EXTRACT: note_on channel=9 note=75 velocity=0 time=0
EXTRACT: note_on channel=9 note=40 velocity=0 time=0
EXTRACT: note_on channel=9 note=62 velocity=0 time=0
EXTRACT: note_on channel=4 note=60 velocity=0 time=0.05796371354166667
EXTRACT: note_on channel=5 note=56 velocity=0 time=0
EXTRACT: note_on channel=15 note=56 velocity=0 time=0
EXTRACT: note_on channel=15 note=60 velocity=0 time=0
EXTRACT: note_on channel=9 note=28 velocity=37 time=0.04788306770833334
EXTRACT: note_on channel=9 note=42 velocity=71 time=0.005040322916666667
EXTRACT: note_on channel=9 note=75 velocity=56 time=0
EXTRACT: note_on channel=9 note=28 velocity=0 time=0.005040322916666667
EXTRACT: note_on channel=9 note=42 velocity=0 time=0.005040322916666667
EXTRACT: note_on channel=9 note=75 velocity=0 time=0
EXTRACT: note_on channel=1 note=29 velocity=0 time=0.098286296875
EXTRACT: note_on channel=9 note=86 velocity=113 time=0.0025201614583333335
EXTRACT: note_on channel=9 note=63 velocity=107 time=0.0025201614583333335
EXTRACT: note_on channel=13 note=53 velocity=0 time=0.0025201614583333335
EXTRACT: note_on channel=13 note=41 velocity=0 time=0
EXTRACT: note_on channel=2 note=41 velocity=0 time=0
EXTRACT: note_on channel=9 note=28 velocity=53 time=0
EXTRACT: note_on channel=9 note=86 velocity=0 time=0.005040322916666667
EXTRACT: note_on channel=1 note=24 velocity=102 time=0
EXTRACT: note_on channel=4 note=60 velocity=113 time=0
EXTRACT: note_on channel=5 note=53 velocity=113 time=0
EXTRACT: note_on channel=6 note=72 velocity=107 time=0
EXTRACT: note_on channel=7 note=65 velocity=102 time=0
EXTRACT: note_on channel=7 note=72 velocity=95 time=0
EXTRACT: note_on channel=9 note=35 velocity=106 time=0
EXTRACT: note_on channel=9 note=42 velocity=63 time=0
EXTRACT: note_on channel=12 note=23 velocity=106 time=0
EXTRACT: note_on channel=15 note=53 velocity=1 time=0
EXTRACT: note_on channel=15 note=60 velocity=1 time=0
EXTRACT: note_on channel=15 note=72 velocity=1 time=0
EXTRACT: note_on channel=9 note=63 velocity=0 time=0.0025201614583333335
EXTRACT: note_on channel=9 note=28 velocity=0 time=0.0025201614583333335
EXTRACT: note_on channel=2 note=36 velocity=113 time=0
EXTRACT: note_on channel=13 note=36 velocity=103 time=0
EXTRACT: note_on channel=13 note=48 velocity=101 time=0
EXTRACT: note_on channel=9 note=35 velocity=0 time=0.005040322916666667
EXTRACT: note_on channel=9 note=42 velocity=0 time=0
EXTRACT: note_on channel=12 note=23 velocity=0 time=0.010080645833333334
EXTRACT: note_on channel=9 note=86 velocity=98 time=0.08820565104166667
EXTRACT: note_on channel=9 note=35 velocity=76 time=0.0025201614583333335
EXTRACT: note_on channel=12 note=23 velocity=76 time=0
EXTRACT: note_on channel=9 note=28 velocity=70 time=0.005040322916666667
EXTRACT: note_on channel=9 note=63 velocity=85 time=0
EXTRACT: note_on channel=9 note=86 velocity=0 time=0.0025201614583333335
EXTRACT: note_on channel=9 note=35 velocity=0 time=0.0025201614583333335
EXTRACT: note_on channel=9 note=42 velocity=50 time=0
EXTRACT: note_on channel=9 note=75 velocity=60 time=0
EXTRACT: note_on channel=9 note=63 velocity=0 time=0.005040322916666667
EXTRACT: note_on channel=9 note=28 velocity=0 time=0
EXTRACT: note_on channel=9 note=75 velocity=0 time=0.005040322916666667
EXTRACT: note_on channel=9 note=42 velocity=0 time=0
EXTRACT: note_on channel=12 note=23 velocity=0 time=0
EXTRACT: note_on channel=9 note=86 velocity=102 time=0.098286296875
EXTRACT: note_on channel=9 note=28 velocity=34 time=0.007560484375000001
EXTRACT: note_on channel=9 note=86 velocity=0 time=0.0025201614583333335
EXTRACT: note_on channel=9 note=42 velocity=119 time=0.0025201614583333335
EXTRACT: note_on channel=9 note=28 velocity=0 time=0.005040322916666667
EXTRACT: note_on channel=9 note=42 velocity=0 time=0.005040322916666667
EXTRACT: note_on channel=9 note=63 velocity=98 time=0.09324597395833334
EXTRACT: note_on channel=9 note=63 velocity=0 time=0.010080645833333334
EXTRACT: note_on channel=9 note=86 velocity=98 time=0
EXTRACT: note_on channel=9 note=28 velocity=61 time=0.0025201614583333335
EXTRACT: note_on channel=9 note=40 velocity=107 time=0.005040322916666667
EXTRACT: note_on channel=9 note=42 velocity=78 time=0
EXTRACT: note_on channel=9 note=86 velocity=0 time=0.0025201614583333335
EXTRACT: note_on channel=9 note=28 velocity=0 time=0.0025201614583333335
EXTRACT: note_on channel=9 note=42 velocity=0 time=0.005040322916666667
EXTRACT: note_on channel=9 note=40 velocity=0 time=0
EXTRACT: note_on channel=1 note=24 velocity=0 time=0.07560484375
EXTRACT: note_on channel=13 note=36 velocity=0 time=0.0025201614583333335
EXTRACT: note_on channel=2 note=36 velocity=0 time=0
EXTRACT: note_on channel=13 note=48 velocity=0 time=0
EXTRACT: note_on channel=7 note=65 velocity=0 time=0.005040322916666667
EXTRACT: note_on channel=4 note=60 velocity=0 time=0.007560484375000001
EXTRACT: note_on channel=15 note=53 velocity=0 time=0
EXTRACT: note_on channel=5 note=53 velocity=0 time=0
EXTRACT: note_on channel=15 note=60 velocity=0 time=0
EXTRACT: note_on channel=2 note=44 velocity=113 time=0.005040322916666667
EXTRACT: note_on channel=9 note=35 velocity=109 time=0
EXTRACT: note_on channel=12 note=23 velocity=109 time=0
EXTRACT: note_on channel=13 note=44 velocity=103 time=0
EXTRACT: note_on channel=13 note=56 velocity=101 time=0
EXTRACT: note_on channel=7 note=72 velocity=0 time=0.007560484375000001
EXTRACT: note_on channel=9 note=35 velocity=0 time=0.0025201614583333335
EXTRACT: note_on channel=1 note=32 velocity=102 time=0.005040322916666667
EXTRACT: note_on channel=4 note=61 velocity=127 time=0
EXTRACT: note_on channel=5 note=56 velocity=102 time=0
EXTRACT: note_on channel=6 note=73 velocity=102 time=0
EXTRACT: note_on channel=7 note=65 velocity=107 time=0
EXTRACT: note_on channel=7 note=73 velocity=90 time=0
EXTRACT: note_on channel=9 note=42 velocity=61 time=0
EXTRACT: note_on channel=9 note=72 velocity=49 time=0
EXTRACT: note_on channel=15 note=56 velocity=1 time=0
EXTRACT: note_on channel=15 note=61 velocity=1 time=0
EXTRACT: note_on channel=15 note=73 velocity=1 time=0
EXTRACT: note_on channel=12 note=23 velocity=0 time=0.005040322916666667
EXTRACT: note_on channel=9 note=62 velocity=127 time=0.0025201614583333335
EXTRACT: note_on channel=9 note=72 velocity=0 time=0.0025201614583333335
EXTRACT: note_on channel=9 note=42 velocity=0 time=0
EXTRACT: note_on channel=6 note=72 velocity=0 time=0.005040322916666667
EXTRACT: note_on channel=15 note=72 velocity=0 time=0
EXTRACT: note_on channel=9 note=62 velocity=0 time=0.0025201614583333335
EXTRACT: note_on channel=9 note=28 velocity=53 time=0.098286296875
EXTRACT: note_on channel=9 note=42 velocity=50 time=0.005040322916666667
EXTRACT: note_on channel=9 note=75 velocity=49 time=0
EXTRACT: note_on channel=9 note=28 velocity=0 time=0.005040322916666667
EXTRACT: note_on channel=9 note=75 velocity=0 time=0.005040322916666667
EXTRACT: note_on channel=9 note=42 velocity=0 time=0
EXTRACT: note_on channel=4 note=61 velocity=0 time=0.08820565104166667
EXTRACT: note_on channel=15 note=56 velocity=0 time=0
EXTRACT: note_on channel=5 note=56 velocity=0 time=0
EXTRACT: note_on channel=15 note=61 velocity=0 time=0
EXTRACT: note_on channel=7 note=65 velocity=0 time=0.0025201614583333335
EXTRACT: note_on channel=15 note=73 velocity=0 time=0.010080645833333334
EXTRACT: note_on channel=6 note=73 velocity=0 time=0
EXTRACT: note_on channel=2 note=41 velocity=107 time=0.005040322916666667
EXTRACT: note_on channel=9 note=28 velocity=84 time=0
EXTRACT: note_on channel=13 note=41 velocity=97 time=0
EXTRACT: note_on channel=13 note=53 velocity=95 time=0
EXTRACT: note_on channel=13 note=56 velocity=0 time=0.005040322916666667
EXTRACT: note_on channel=13 note=44 velocity=0 time=0
EXTRACT: note_on channel=2 note=44 velocity=0 time=0
EXTRACT: note_on channel=1 note=29 velocity=98 time=0
EXTRACT: note_on channel=4 note=60 velocity=107 time=0
EXTRACT: note_on channel=5 note=56 velocity=91 time=0
EXTRACT: note_on channel=6 note=72 velocity=98 time=0
EXTRACT: note_on channel=7 note=65 velocity=98 time=0
EXTRACT: note_on channel=7 note=72 velocity=81 time=0
EXTRACT: note_on channel=9 note=40 velocity=113 time=0
EXTRACT: note_on channel=9 note=42 velocity=119 time=0
EXTRACT: note_on channel=9 note=75 velocity=54 time=0
EXTRACT: note_on channel=15 note=56 velocity=1 time=0
EXTRACT: note_on channel=15 note=60 velocity=1 time=0
EXTRACT: note_on channel=15 note=72 velocity=1 time=0
EXTRACT: note_on channel=9 note=28 velocity=0 time=0.005040322916666667
EXTRACT: note_on channel=7 note=73 velocity=0 time=0.005040322916666667
EXTRACT: note_on channel=9 note=75 velocity=0 time=0
EXTRACT: note_on channel=9 note=42 velocity=0 time=0
EXTRACT: note_on channel=9 note=40 velocity=0 time=0
EXTRACT: note_on channel=1 note=32 velocity=0 time=0.005040322916666667
EXTRACT: note_on channel=9 note=62 velocity=127 time=0.0025201614583333335
EXTRACT: note_on channel=9 note=62 velocity=0 time=0.010080645833333334
EXTRACT: note_on channel=9 note=63 velocity=107 time=0.08568548958333334
EXTRACT: note_on channel=9 note=28 velocity=40 time=0.0025201614583333335
EXTRACT: note_on channel=9 note=35 velocity=115 time=0.005040322916666667
EXTRACT: note_on channel=9 note=42 velocity=72 time=0
EXTRACT: note_on channel=9 note=75 velocity=52 time=0
EXTRACT: note_on channel=12 note=23 velocity=115 time=0
EXTRACT: note_on channel=9 note=63 velocity=0 time=0.0025201614583333335
EXTRACT: note_on channel=9 note=28 velocity=0 time=0.0025201614583333335
EXTRACT: note_on channel=9 note=75 velocity=0 time=0.005040322916666667
EXTRACT: note_on channel=9 note=42 velocity=0 time=0
EXTRACT: note_on channel=9 note=35 velocity=0 time=0
EXTRACT: note_on channel=12 note=23 velocity=0 time=0.010080645833333334
EXTRACT: note_on channel=7 note=72 velocity=0 time=0.060483875000000006
EXTRACT: note_on channel=7 note=65 velocity=0 time=0
EXTRACT: note_on channel=1 note=29 velocity=0 time=0.030241937500000003
EXTRACT: note_on channel=13 note=41 velocity=0 time=0.0025201614583333335
EXTRACT: note_on channel=15 note=56 velocity=0 time=0
EXTRACT: note_on channel=5 note=56 velocity=0 time=0
EXTRACT: note_on channel=13 note=53 velocity=0 time=0
EXTRACT: note_on channel=2 note=41 velocity=0 time=0
EXTRACT: note_on channel=2 note=36 velocity=102 time=0.0025201614583333335
EXTRACT: note_on channel=9 note=28 velocity=45 time=0
EXTRACT: note_on channel=13 note=36 velocity=92 time=0
EXTRACT: note_on channel=13 note=48 velocity=90 time=0
EXTRACT: note_on channel=1 note=24 velocity=93 time=0.005040322916666667
EXTRACT: note_on channel=4 note=58 velocity=107 time=0
EXTRACT: note_on channel=5 note=53 velocity=93 time=0
EXTRACT: note_on channel=6 note=70 velocity=102 time=0
EXTRACT: note_on channel=7 note=65 velocity=102 time=0
EXTRACT: note_on channel=7 note=70 velocity=81 time=0
EXTRACT: note_on channel=9 note=42 velocity=54 time=0
EXTRACT: note_on channel=15 note=53 velocity=1 time=0
EXTRACT: note_on channel=15 note=58 velocity=1 time=0
EXTRACT: note_on channel=15 note=70 velocity=1 time=0
EXTRACT: note_on channel=6 note=72 velocity=0 time=0.0025201614583333335
EXTRACT: note_on channel=15 note=72 velocity=0 time=0
EXTRACT: note_on channel=9 note=28 velocity=0 time=0.0025201614583333335
EXTRACT: note_on channel=9 note=86 velocity=107 time=0
EXTRACT: note_on channel=9 note=42 velocity=0 time=0.005040322916666667
EXTRACT: note_on channel=9 note=86 velocity=0 time=0.005040322916666667
EXTRACT: note_on channel=9 note=63 velocity=72 time=0.010080645833333334
EXTRACT: note_on channel=9 note=63 velocity=0 time=0.010080645833333334
EXTRACT: note_on channel=4 note=60 velocity=0 time=0.007560484375000001
EXTRACT: note_on channel=15 note=60 velocity=0 time=0
EXTRACT: note_on channel=9 note=28 velocity=66 time=0.07308468229166667
EXTRACT: note_on channel=9 note=63 velocity=99 time=0.0025201614583333335
EXTRACT: note_on channel=9 note=42 velocity=48 time=0.0025201614583333335
EXTRACT: note_on channel=9 note=75 velocity=47 time=0
EXTRACT: note_on channel=9 note=86 velocity=76 time=0
EXTRACT: note_on channel=9 note=28 velocity=0 time=0.005040322916666667
EXTRACT: note_on channel=9 note=63 velocity=0 time=0.0025201614583333335
EXTRACT: note_on channel=9 note=86 velocity=0 time=0.0025201614583333335
EXTRACT: note_on channel=9 note=75 velocity=0 time=0
EXTRACT: note_on channel=9 note=42 velocity=0 time=0
EXTRACT: note_on channel=5 note=53 velocity=0 time=0.08568548958333334
EXTRACT: note_on channel=15 note=53 velocity=0 time=0
EXTRACT: note_on channel=7 note=65 velocity=0 time=0.017641130208333335
EXTRACT: note_on channel=9 note=63 velocity=119 time=0
EXTRACT: note_on channel=9 note=28 velocity=57 time=0.0025201614583333335
EXTRACT: note_on channel=6 note=70 velocity=0 time=0.0025201614583333335
EXTRACT: note_on channel=15 note=70 velocity=0 time=0
EXTRACT: note_on channel=9 note=86 velocity=113 time=0
EXTRACT: note_on channel=13 note=36 velocity=0 time=0.0025201614583333335
EXTRACT: note_on channel=2 note=36 velocity=0 time=0
EXTRACT: note_on channel=13 note=48 velocity=0 time=0
EXTRACT: note_on channel=1 note=31 velocity=107 time=0
EXTRACT: note_on channel=4 note=60 velocity=113 time=0
EXTRACT: note_on channel=5 note=55 velocity=103 time=0
EXTRACT: note_on channel=6 note=72 velocity=98 time=0
EXTRACT: note_on channel=7 note=64 velocity=93 time=0
EXTRACT: note_on channel=7 note=72 velocity=90 time=0
EXTRACT: note_on channel=9 note=35 velocity=102 time=0
EXTRACT: note_on channel=9 note=42 velocity=115 time=0
EXTRACT: note_on channel=9 note=75 velocity=60 time=0
EXTRACT: note_on channel=12 note=23 velocity=102 time=0
EXTRACT: note_on channel=15 note=55 velocity=1 time=0
EXTRACT: note_on channel=15 note=60 velocity=1 time=0
EXTRACT: note_on channel=15 note=72 velocity=1 time=0
EXTRACT: note_on channel=9 note=63 velocity=0 time=0.0025201614583333335
EXTRACT: note_on channel=2 note=43 velocity=107 time=0
EXTRACT: note_on channel=13 note=43 velocity=97 time=0
EXTRACT: note_on channel=13 note=55 velocity=95 time=0
EXTRACT: note_on channel=9 note=28 velocity=0 time=0.0025201614583333335
EXTRACT: note_on channel=1 note=24 velocity=0 time=0
EXTRACT: note_on channel=7 note=70 velocity=0 time=0
EXTRACT: note_on channel=9 note=86 velocity=0 time=0.0025201614583333335
EXTRACT: note_on channel=9 note=75 velocity=0 time=0.0025201614583333335
EXTRACT: note_on channel=9 note=35 velocity=0 time=0
EXTRACT: note_on channel=9 note=42 velocity=0 time=0
EXTRACT: note_on channel=12 note=23 velocity=0 time=0.010080645833333334
EXTRACT: note_on channel=15 note=58 velocity=0 time=0
EXTRACT: note_on channel=4 note=58 velocity=0 time=0
EXTRACT: note_on channel=9 note=28 velocity=35 time=0.09576613541666668
EXTRACT: note_on channel=9 note=63 velocity=82 time=0
EXTRACT: note_on channel=9 note=42 velocity=72 time=0.005040322916666667
EXTRACT: note_on channel=9 note=63 velocity=0 time=0.005040322916666667
EXTRACT: note_on channel=9 note=28 velocity=0 time=0
EXTRACT: note_on channel=9 note=86 velocity=98 time=0
EXTRACT: note_on channel=9 note=42 velocity=0 time=0.005040322916666667
EXTRACT: note_on channel=9 note=86 velocity=0 time=0.005040322916666667
EXTRACT: note_on channel=9 note=28 velocity=43 time=0.10080645833333333
EXTRACT: note_on channel=9 note=42 velocity=62 time=0.005040322916666667
EXTRACT: note_on channel=9 note=62 velocity=113 time=0.0025201614583333335
EXTRACT: note_on channel=9 note=28 velocity=0 time=0.0025201614583333335
EXTRACT: note_on channel=9 note=42 velocity=0 time=0.005040322916666667
EXTRACT: note_on channel=9 note=62 velocity=0 time=0.0025201614583333335
EXTRACT: note_on channel=13 note=43 velocity=0 time=0.08316532812500001
EXTRACT: note_on channel=13 note=55 velocity=0 time=0
EXTRACT: note_on channel=2 note=43 velocity=0 time=0
EXTRACT: note_on channel=2 note=40 velocity=102 time=0.015120968750000002
EXTRACT: note_on channel=13 note=40 velocity=92 time=0
EXTRACT: note_on channel=13 note=52 velocity=90 time=0
EXTRACT: note_on channel=9 note=28 velocity=61 time=0.005040322916666667
EXTRACT: note_on channel=1 note=31 velocity=0 time=0.0025201614583333335
EXTRACT: note_on channel=1 note=28 velocity=113 time=0.0025201614583333335
EXTRACT: note_on channel=9 note=35 velocity=110 time=0
EXTRACT: note_on channel=9 note=42 velocity=47 time=0
EXTRACT: note_on channel=9 note=75 velocity=52 time=0
EXTRACT: note_on channel=12 note=23 velocity=110 time=0
EXTRACT: note_on channel=9 note=28 velocity=0 time=0.005040322916666667
EXTRACT: note_on channel=9 note=75 velocity=0 time=0.005040322916666667
EXTRACT: note_on channel=9 note=42 velocity=0 time=0
EXTRACT: note_on channel=9 note=35 velocity=0 time=0
EXTRACT: note_on channel=12 note=23 velocity=0 time=0.010080645833333334
EXTRACT: note_on channel=9 note=40 velocity=107 time=0.0907258125
EXTRACT: note_on channel=9 note=28 velocity=85 time=0.005040322916666667
EXTRACT: note_on channel=9 note=62 velocity=127 time=0.0025201614583333335
EXTRACT: note_on channel=9 note=40 velocity=0 time=0.0025201614583333335
EXTRACT: note_on channel=9 note=42 velocity=113 time=0
EXTRACT: note_on channel=9 note=75 velocity=48 time=0
EXTRACT: note_on channel=9 note=28 velocity=0 time=0.005040322916666667
EXTRACT: note_on channel=9 note=62 velocity=0 time=0.0025201614583333335
EXTRACT: note_on channel=9 note=75 velocity=0 time=0.0025201614583333335
EXTRACT: note_on channel=9 note=42 velocity=0 time=0
EXTRACT: note_on channel=9 note=28 velocity=45 time=0.10584678125000001
EXTRACT: note_on channel=9 note=42 velocity=71 time=0.005040322916666667
EXTRACT: note_on channel=9 note=75 velocity=54 time=0
EXTRACT: note_on channel=9 note=28 velocity=0 time=0.005040322916666667
EXTRACT: note_on channel=9 note=75 velocity=0 time=0.005040322916666667
EXTRACT: note_on channel=9 note=42 velocity=0 time=0
EXTRACT: note_on channel=9 note=63 velocity=76 time=0
EXTRACT: note_on channel=9 note=63 velocity=0 time=0.010080645833333334
EXTRACT: note_on channel=1 note=28 velocity=0 time=0.07056452083333334
EXTRACT: note_on channel=13 note=40 velocity=0 time=0.007560484375000001
EXTRACT: note_on channel=2 note=40 velocity=0 time=0
EXTRACT: note_on channel=13 note=52 velocity=0 time=0
EXTRACT: note_on channel=2 note=36 velocity=108 time=0.012600807291666667
EXTRACT: note_on channel=13 note=36 velocity=97 time=0
EXTRACT: note_on channel=13 note=48 velocity=99 time=0
EXTRACT: note_on channel=9 note=28 velocity=37 time=0.005040322916666667
EXTRACT: note_on channel=9 note=63 velocity=102 time=0.0025201614583333335
EXTRACT: note_on channel=9 note=86 velocity=102 time=0
EXTRACT: note_on channel=1 note=24 velocity=107 time=0.0025201614583333335
EXTRACT: note_on channel=9 note=35 velocity=98 time=0
EXTRACT: note_on channel=9 note=42 velocity=63 time=0
EXTRACT: note_on channel=12 note=23 velocity=98 time=0
EXTRACT: note_on channel=9 note=28 velocity=0 time=0.005040322916666667
EXTRACT: note_on channel=9 note=86 velocity=0 time=0.0025201614583333335
EXTRACT: note_on channel=9 note=63 velocity=0 time=0
EXTRACT: note_on channel=9 note=42 velocity=0 time=0.0025201614583333335
EXTRACT: note_on channel=9 note=35 velocity=0 time=0
EXTRACT: note_on channel=12 note=23 velocity=0 time=0.010080645833333334
EXTRACT: note_on channel=9 note=63 velocity=81 time=0.08568548958333334
EXTRACT: note_on channel=9 note=86 velocity=93 time=0.0025201614583333335
EXTRACT: note_on channel=9 note=35 velocity=88 time=0.005040322916666667
EXTRACT: note_on channel=12 note=23 velocity=88 time=0
EXTRACT: note_on channel=9 note=63 velocity=0 time=0.0025201614583333335
EXTRACT: note_on channel=9 note=28 velocity=74 time=0
EXTRACT: note_on channel=9 note=86 velocity=0 time=0.0025201614583333335
EXTRACT: note_on channel=9 note=42 velocity=50 time=0.0025201614583333335
EXTRACT: note_on channel=9 note=75 velocity=58 time=0
EXTRACT: note_on channel=9 note=35 velocity=0 time=0.0025201614583333335
EXTRACT: note_on channel=9 note=28 velocity=0 time=0.0025201614583333335
EXTRACT: note_on channel=9 note=75 velocity=0 time=0.005040322916666667
EXTRACT: note_on channel=9 note=42 velocity=0 time=0
EXTRACT: note_on channel=12 note=23 velocity=0 time=0.0025201614583333335
EXTRACT: note_on channel=1 note=24 velocity=0 time=0.0907258125
EXTRACT: note_on channel=9 note=86 velocity=102 time=0.007560484375000001
EXTRACT: note_on channel=15 note=55 velocity=0 time=0.005040322916666667
EXTRACT: note_on channel=5 note=55 velocity=0 time=0
EXTRACT: note_on channel=9 note=28 velocity=41 time=0
EXTRACT: note_on channel=9 note=86 velocity=0 time=0.005040322916666667
EXTRACT: note_on channel=1 note=22 velocity=96 time=0
EXTRACT: note_on channel=9 note=40 velocity=37 time=0
EXTRACT: note_on channel=9 note=42 velocity=119 time=0
EXTRACT: note_on channel=9 note=28 velocity=0 time=0.005040322916666667
EXTRACT: note_on channel=9 note=42 velocity=0 time=0.005040322916666667
EXTRACT: note_on channel=9 note=40 velocity=0 time=0
EXTRACT: note_on channel=2 note=34 velocity=92 time=0
EXTRACT: note_on channel=13 note=34 velocity=85 time=0
EXTRACT: note_on channel=13 note=46 velocity=88 time=0
EXTRACT: note_on channel=13 note=36 velocity=0 time=0.010080645833333334
EXTRACT: note_on channel=13 note=48 velocity=0 time=0
EXTRACT: note_on channel=2 note=36 velocity=0 time=0
EXTRACT: note_on channel=9 note=40 velocity=40 time=0.040322583333333335
EXTRACT: note_on channel=9 note=40 velocity=0 time=0.010080645833333334
EXTRACT: note_on channel=9 note=63 velocity=98 time=0.020161291666666668
EXTRACT: note_on channel=9 note=63 velocity=0 time=0.010080645833333334
EXTRACT: note_on channel=9 note=86 velocity=107 time=0.010080645833333334
EXTRACT: note_on channel=9 note=28 velocity=66 time=0.005040322916666667
EXTRACT: note_on channel=9 note=86 velocity=0 time=0.005040322916666667
EXTRACT: note_on channel=9 note=40 velocity=44 time=0
EXTRACT: note_on channel=9 note=42 velocity=78 time=0
EXTRACT: note_on channel=9 note=28 velocity=0 time=0.005040322916666667
EXTRACT: note_on channel=9 note=42 velocity=0 time=0.005040322916666667
EXTRACT: note_on channel=9 note=40 velocity=0 time=0
EXTRACT: note_on channel=9 note=40 velocity=47 time=0.05040322916666667
EXTRACT: note_on channel=9 note=40 velocity=0 time=0.010080645833333334
EXTRACT: note_on channel=9 note=62 velocity=127 time=0.03528226041666667
EXTRACT: note_on channel=9 note=35 velocity=102 time=0.007560484375000001
EXTRACT: note_on channel=12 note=23 velocity=102 time=0
EXTRACT: note_on channel=9 note=62 velocity=0 time=0.0025201614583333335
EXTRACT: note_on channel=9 note=40 velocity=51 time=0.005040322916666667
EXTRACT: note_on channel=9 note=42 velocity=61 time=0
EXTRACT: note_on channel=9 note=72 velocity=35 time=0
EXTRACT: note_on channel=9 note=35 velocity=0 time=0.0025201614583333335
EXTRACT: note_on channel=9 note=40 velocity=0 time=0.007560484375000001
EXTRACT: note_on channel=9 note=72 velocity=0 time=0
EXTRACT: note_on channel=9 note=42 velocity=0 time=0
EXTRACT: note_on channel=12 note=23 velocity=0 time=0.0025201614583333335
EXTRACT: note_on channel=9 note=40 velocity=54 time=0.04788306770833334
EXTRACT: note_on channel=9 note=40 velocity=0 time=0.010080645833333334
EXTRACT: note_on channel=1 note=22 velocity=0 time=0.03528226041666667
EXTRACT: note_on channel=2 note=34 velocity=0 time=0.010080645833333334
EXTRACT: note_on channel=13 note=34 velocity=0 time=0
EXTRACT: note_on channel=13 note=46 velocity=0 time=0
EXTRACT: note_on channel=9 note=28 velocity=66 time=0
EXTRACT: note_on channel=1 note=24 velocity=113 time=0.005040322916666667
EXTRACT: note_on channel=9 note=40 velocity=58 time=0
EXTRACT: note_on channel=9 note=42 velocity=50 time=0
EXTRACT: note_on channel=9 note=75 velocity=54 time=0
EXTRACT: note_on channel=9 note=28 velocity=0 time=0.005040322916666667
EXTRACT: note_on channel=2 note=36 velocity=107 time=0
EXTRACT: note_on channel=13 note=36 velocity=96 time=0
EXTRACT: note_on channel=13 note=48 velocity=93 time=0
EXTRACT: note_on channel=9 note=40 velocity=0 time=0.005040322916666667
EXTRACT: note_on channel=9 note=75 velocity=0 time=0
EXTRACT: note_on channel=9 note=42 velocity=0 time=0
EXTRACT: note_on channel=9 note=40 velocity=62 time=0.05040322916666667
EXTRACT: note_on channel=15 note=72 velocity=0 time=0.005040322916666667
EXTRACT: note_on channel=6 note=72 velocity=0 time=0
EXTRACT: note_on channel=9 note=40 velocity=0 time=0.005040322916666667
EXTRACT: note_on channel=7 note=72 velocity=0 time=0.03276209895833333
EXTRACT: note_on channel=9 note=62 velocity=119 time=0.010080645833333334
EXTRACT: note_on channel=15 note=60 velocity=0 time=0.0025201614583333335
EXTRACT: note_on channel=4 note=60 velocity=0 time=0
EXTRACT: note_on channel=9 note=40 velocity=65 time=0.005040322916666667
EXTRACT: note_on channel=9 note=42 velocity=119 time=0
EXTRACT: note_on channel=9 note=72 velocity=40 time=0
EXTRACT: note_on channel=9 note=75 velocity=51 time=0
EXTRACT: note_on channel=9 note=62 velocity=0 time=0.0025201614583333335
EXTRACT: note_on channel=7 note=64 velocity=0 time=0.0025201614583333335
EXTRACT: note_on channel=9 note=75 velocity=0 time=0.005040322916666667
EXTRACT: note_on channel=9 note=42 velocity=0 time=0
EXTRACT: note_on channel=9 note=72 velocity=0 time=0
EXTRACT: note_on channel=9 note=40 velocity=0 time=0
EXTRACT: note_on channel=9 note=40 velocity=47 time=0.05040322916666667
EXTRACT: note_on channel=9 note=40 velocity=0 time=0.010080645833333334
EXTRACT: note_on channel=9 note=63 velocity=105 time=0.03528226041666667
EXTRACT: note_on channel=9 note=63 velocity=0 time=0.010080645833333334
EXTRACT: note_on channel=9 note=28 velocity=40 time=0
EXTRACT: note_on channel=9 note=40 velocity=53 time=0.005040322916666667
EXTRACT: note_on channel=9 note=42 velocity=72 time=0
EXTRACT: note_on channel=9 note=75 velocity=54 time=0
EXTRACT: note_on channel=9 note=28 velocity=0 time=0.005040322916666667
EXTRACT: note_on channel=9 note=75 velocity=0 time=0.005040322916666667
EXTRACT: note_on channel=9 note=40 velocity=0 time=0
EXTRACT: note_on channel=9 note=42 velocity=0 time=0
EXTRACT: note_on channel=9 note=40 velocity=59 time=0.05040322916666667
EXTRACT: note_on channel=9 note=40 velocity=0 time=0.010080645833333334
EXTRACT: note_on channel=9 note=63 velocity=80 time=0.030241937500000003
EXTRACT: note_on channel=1 note=24 velocity=0 time=0.0025201614583333335
EXTRACT: note_on channel=2 note=36 velocity=0 time=0.005040322916666667
EXTRACT: note_on channel=13 note=48 velocity=0 time=0
EXTRACT: note_on channel=13 note=36 velocity=0 time=0
EXTRACT: note_on channel=9 note=63 velocity=0 time=0.0025201614583333335
EXTRACT: note_on channel=2 note=40 velocity=100 time=0.005040322916666667
EXTRACT: note_on channel=9 note=28 velocity=49 time=0
EXTRACT: note_on channel=13 note=40 velocity=90 time=0
EXTRACT: note_on channel=13 note=52 velocity=88 time=0
EXTRACT: note_on channel=1 note=28 velocity=107 time=0.005040322916666667
EXTRACT: note_on channel=9 note=40 velocity=64 time=0
EXTRACT: note_on channel=9 note=42 velocity=54 time=0
EXTRACT: note_on channel=9 note=28 velocity=0 time=0.005040322916666667
EXTRACT: note_on channel=9 note=40 velocity=0 time=0.005040322916666667
EXTRACT: note_on channel=9 note=42 velocity=0 time=0
EXTRACT: note_on channel=9 note=40 velocity=70 time=0.05040322916666667
EXTRACT: note_on channel=9 note=40 velocity=0 time=0.010080645833333334
EXTRACT: note_on channel=9 note=28 velocity=53 time=0.04536290625
EXTRACT: note_on channel=9 note=40 velocity=75 time=0.005040322916666667
EXTRACT: note_on channel=9 note=42 velocity=48 time=0
EXTRACT: note_on channel=9 note=75 velocity=47 time=0
EXTRACT: note_on channel=9 note=28 velocity=0 time=0.005040322916666667
EXTRACT: note_on channel=9 note=75 velocity=0 time=0.005040322916666667
EXTRACT: note_on channel=9 note=40 velocity=0 time=0
EXTRACT: note_on channel=9 note=42 velocity=0 time=0
EXTRACT: note_on channel=9 note=40 velocity=81 time=0.05040322916666667
EXTRACT: note_on channel=9 note=40 velocity=0 time=0.010080645833333334
EXTRACT: note_on channel=1 note=28 velocity=0 time=0.03528226041666667
EXTRACT: note_on channel=2 note=40 velocity=0 time=0.0025201614583333335
EXTRACT: note_on channel=13 note=40 velocity=0 time=0
EXTRACT: note_on channel=13 note=52 velocity=0 time=0
EXTRACT: note_on channel=1 note=29 velocity=99 time=0.012600807291666667
EXTRACT: note_on channel=2 note=41 velocity=113 time=0
EXTRACT: note_on channel=9 note=35 velocity=112 time=0
EXTRACT: note_on channel=9 note=57 velocity=85 time=0
EXTRACT: note_on channel=9 note=61 velocity=62 time=0
EXTRACT: note_on channel=13 note=41 velocity=101 time=0
EXTRACT: note_on channel=9 note=61 velocity=0 time=0.010080645833333334
EXTRACT: note_on channel=9 note=57 velocity=0 time=0
EXTRACT: note_on channel=9 note=35 velocity=0 time=0
EXTRACT: note_on channel=9 note=42 velocity=62 time=0.11088710416666667
EXTRACT: note_on channel=9 note=61 velocity=50 time=0
EXTRACT: note_on channel=9 note=61 velocity=0 time=0.010080645833333334
EXTRACT: note_on channel=9 note=42 velocity=0 time=0
EXTRACT: pitchwheel channel=3 pitch=-7586 time=0.08064516666666667
EXTRACT: pitchwheel channel=4 pitch=-7586 time=0
EXTRACT: note_on channel=3 note=77 velocity=115 time=0.015120968750000002
EXTRACT: note_on channel=4 note=65 velocity=115 time=0
EXTRACT: pitchwheel channel=3 pitch=-8192 time=0.0025201614583333335
EXTRACT: pitchwheel channel=4 pitch=-8192 time=0
EXTRACT: note_on channel=9 note=42 velocity=52 time=0.012600807291666667
EXTRACT: note_on channel=9 note=61 velocity=59 time=0
EXTRACT: note_on channel=9 note=66 velocity=74 time=0
EXTRACT: note_on channel=9 note=82 velocity=54 time=0
EXTRACT: note_on channel=9 note=82 velocity=0 time=0.010080645833333334
EXTRACT: note_on channel=9 note=66 velocity=0 time=0
EXTRACT: note_on channel=9 note=61 velocity=0 time=0
EXTRACT: note_on channel=9 note=42 velocity=0 time=0
EXTRACT: pitchwheel channel=3 pitch=-5310 time=0.030241937500000003
EXTRACT: pitchwheel channel=4 pitch=-5310 time=0
EXTRACT: pitchwheel channel=3 pitch=-1593 time=0.017641130208333335
EXTRACT: pitchwheel channel=4 pitch=-1593 time=0
EXTRACT: pitchwheel channel=3 pitch=-152 time=0.017641130208333335
EXTRACT: pitchwheel channel=4 pitch=-152 time=0
EXTRACT: note_on channel=9 note=42 velocity=37 time=0.04536290625
EXTRACT: note_on channel=9 note=42 velocity=0 time=0.010080645833333334
EXTRACT: note_on channel=9 note=35 velocity=77 time=0
EXTRACT: note_on channel=9 note=35 velocity=0 time=0.010080645833333334
EXTRACT: note_on channel=13 note=41 velocity=0 time=0.08820565104166667
EXTRACT: note_on channel=1 note=29 velocity=0 time=0
EXTRACT: note_on channel=2 note=41 velocity=0 time=0
EXTRACT: note_on channel=1 note=32 velocity=93 time=0.010080645833333334
EXTRACT: note_on channel=2 note=44 velocity=107 time=0
EXTRACT: note_on channel=13 note=44 velocity=95 time=0
EXTRACT: note_on channel=9 note=42 velocity=103 time=0.0025201614583333335
EXTRACT: note_on channel=9 note=61 velocity=76 time=0
EXTRACT: note_on channel=9 note=40 velocity=124 time=0.007560484375000001
EXTRACT: note_on channel=9 note=61 velocity=0 time=0.0025201614583333335
EXTRACT: note_on channel=9 note=42 velocity=0 time=0
EXTRACT: note_on channel=9 note=40 velocity=0 time=0.007560484375000001
EXTRACT: pitchwheel channel=3 pitch=0 time=0.012600807291666667
EXTRACT: pitchwheel channel=4 pitch=0 time=0
EXTRACT: note_on channel=4 note=65 velocity=0 time=0.04284274479166667
EXTRACT: note_on channel=3 note=77 velocity=0 time=0
EXTRACT: note_on channel=3 note=72 velocity=108 time=0.025201614583333334
EXTRACT: note_on channel=4 note=60 velocity=108 time=0
EXTRACT: note_on channel=9 note=42 velocity=61 time=0.022681453125
EXTRACT: note_on channel=9 note=61 velocity=52 time=0
EXTRACT: note_on channel=9 note=61 velocity=0 time=0.010080645833333334
EXTRACT: note_on channel=9 note=42 velocity=0 time=0
EXTRACT: note_on channel=9 note=42 velocity=53 time=0.11088710416666667
EXTRACT: note_on channel=9 note=66 velocity=50 time=0
EXTRACT: note_on channel=9 note=82 velocity=50 time=0
EXTRACT: note_on channel=9 note=82 velocity=0 time=0.010080645833333334
EXTRACT: note_on channel=9 note=66 velocity=0 time=0
EXTRACT: note_on channel=9 note=42 velocity=0 time=0
EXTRACT: note_on channel=4 note=60 velocity=0 time=0.040322583333333335
EXTRACT: note_on channel=3 note=72 velocity=0 time=0
EXTRACT: note_on channel=1 note=37 velocity=99 time=0.07056452083333334
EXTRACT: note_on channel=2 note=49 velocity=113 time=0
EXTRACT: note_on channel=9 note=42 velocity=40 time=0
EXTRACT: note_on channel=9 note=61 velocity=64 time=0
EXTRACT: note_on channel=13 note=49 velocity=101 time=0
EXTRACT: note_on channel=13 note=44 velocity=0 time=0.005040322916666667
EXTRACT: note_on channel=1 note=32 velocity=0 time=0
EXTRACT: note_on channel=2 note=44 velocity=0 time=0
EXTRACT: note_on channel=9 note=35 velocity=90 time=0
EXTRACT: note_on channel=9 note=42 velocity=0 time=0.005040322916666667
EXTRACT: note_on channel=9 note=61 velocity=0 time=0
EXTRACT: note_on channel=9 note=35 velocity=0 time=0.005040322916666667
EXTRACT: note_on channel=3 note=75 velocity=116 time=0.09576613541666668
EXTRACT: note_on channel=4 note=63 velocity=116 time=0
EXTRACT: note_on channel=9 note=42 velocity=109 time=0.010080645833333334
EXTRACT: note_on channel=9 note=42 velocity=0 time=0.010080645833333334
EXTRACT: note_on channel=9 note=35 velocity=98 time=0.11088710416666667
EXTRACT: note_on channel=9 note=42 velocity=68 time=0
EXTRACT: note_on channel=9 note=61 velocity=72 time=0
EXTRACT: note_on channel=9 note=61 velocity=0 time=0.010080645833333334
EXTRACT: note_on channel=9 note=42 velocity=0 time=0
EXTRACT: note_on channel=9 note=35 velocity=0 time=0
EXTRACT: note_on channel=13 note=49 velocity=0 time=0.10080645833333333
EXTRACT: note_on channel=1 note=37 velocity=0 time=0
EXTRACT: note_on channel=2 note=49 velocity=0 time=0
EXTRACT: note_on channel=1 note=36 velocity=88 time=0.007560484375000001
EXTRACT: note_on channel=2 note=48 velocity=102 time=0
EXTRACT: note_on channel=13 note=48 velocity=90 time=0
EXTRACT: note_on channel=9 note=35 velocity=98 time=0.0025201614583333335
EXTRACT: note_on channel=9 note=42 velocity=51 time=0
EXTRACT: note_on channel=9 note=61 velocity=85 time=0
EXTRACT: note_on channel=9 note=66 velocity=66 time=0
EXTRACT: note_on channel=9 note=82 velocity=46 time=0
EXTRACT: note_on channel=9 note=82 velocity=0 time=0.010080645833333334
EXTRACT: note_on channel=9 note=66 velocity=0 time=0
EXTRACT: note_on channel=9 note=42 velocity=0 time=0
EXTRACT: note_on channel=9 note=61 velocity=0 time=0
EXTRACT: note_on channel=9 note=35 velocity=0 time=0
EXTRACT: note_on channel=4 note=63 velocity=0 time=0.08316532812500001
EXTRACT: note_on channel=3 note=75 velocity=0 time=0
EXTRACT: note_on channel=9 note=42 velocity=40 time=0.027721776041666667
EXTRACT: note_on channel=3 note=70 velocity=111 time=0.005040322916666667
EXTRACT: note_on channel=4 note=58 velocity=111 time=0
EXTRACT: note_on channel=9 note=42 velocity=0 time=0.005040322916666667
EXTRACT: note_on channel=9 note=40 velocity=112 time=0.10080645833333333
EXTRACT: note_on channel=9 note=40 velocity=0 time=0.010080645833333334
EXTRACT: note_on channel=9 note=42 velocity=109 time=0
EXTRACT: note_on channel=9 note=61 velocity=85 time=0
EXTRACT: note_on channel=9 note=61 velocity=0 time=0.010080645833333334
EXTRACT: note_on channel=9 note=42 velocity=0 time=0
EXTRACT: note_on channel=2 note=48 velocity=0 time=0.0025201614583333335
EXTRACT: note_on channel=1 note=36 velocity=0 time=0
EXTRACT: note_on channel=13 note=48 velocity=0 time=0
EXTRACT: note_on channel=1 note=32 velocity=93 time=0.007560484375000001
EXTRACT: note_on channel=2 note=44 velocity=107 time=0
EXTRACT: note_on channel=13 note=44 velocity=95 time=0
EXTRACT: note_on channel=4 note=58 velocity=0 time=0.08568548958333334
EXTRACT: note_on channel=3 note=70 velocity=0 time=0
EXTRACT: note_on channel=9 note=42 velocity=62 time=0.015120968750000002
EXTRACT: note_on channel=9 note=61 velocity=62 time=0
EXTRACT: note_on channel=9 note=61 velocity=0 time=0.010080645833333334
EXTRACT: note_on channel=9 note=42 velocity=0 time=0
EXTRACT: note_on channel=13 note=44 velocity=0 time=0.10836694270833334
EXTRACT: note_on channel=1 note=32 velocity=0 time=0
EXTRACT: note_on channel=2 note=44 velocity=0 time=0
EXTRACT: note_on channel=9 note=35 velocity=94 time=0.0025201614583333335
EXTRACT: note_on channel=9 note=42 velocity=44 time=0
EXTRACT: note_on channel=9 note=61 velocity=51 time=0
EXTRACT: note_on channel=9 note=66 velocity=36 time=0
EXTRACT: note_on channel=9 note=82 velocity=47 time=0
EXTRACT: note_on channel=1 note=24 velocity=83 time=0.005040322916666667
EXTRACT: note_on channel=2 note=36 velocity=97 time=0
EXTRACT: note_on channel=13 note=36 velocity=85 time=0
EXTRACT: note_on channel=9 note=82 velocity=0 time=0.005040322916666667
EXTRACT: note_on channel=9 note=66 velocity=0 time=0
EXTRACT: note_on channel=9 note=35 velocity=0 time=0
EXTRACT: note_on channel=9 note=61 velocity=0 time=0
EXTRACT: note_on channel=9 note=42 velocity=0 time=0
EXTRACT: note_on channel=9 note=40 velocity=109 time=0.098286296875
EXTRACT: note_on channel=9 note=40 velocity=0 time=0.010080645833333334
EXTRACT: note_on channel=9 note=30 velocity=84 time=0
EXTRACT: note_on channel=9 note=42 velocity=38 time=0.0025201614583333335
EXTRACT: note_on channel=9 note=61 velocity=72 time=0
EXTRACT: note_on channel=9 note=30 velocity=0 time=0.007560484375000001
EXTRACT: note_on channel=9 note=42 velocity=0 time=0.0025201614583333335
EXTRACT: note_on channel=9 note=61 velocity=0 time=0
EXTRACT: note_on channel=9 note=35 velocity=118 time=0.10332661979166667
EXTRACT: note_on channel=1 note=28 velocity=88 time=0.005040322916666667
EXTRACT: note_on channel=2 note=40 velocity=102 time=0
EXTRACT: note_on channel=13 note=40 velocity=90 time=0
EXTRACT: note_on channel=9 note=42 velocity=105 time=0.0025201614583333335
EXTRACT: note_on channel=9 note=35 velocity=0 time=0.0025201614583333335
EXTRACT: note_on channel=9 note=42 velocity=0 time=0.007560484375000001
EXTRACT: note_on channel=2 note=36 velocity=0 time=0.012600807291666667
EXTRACT: note_on channel=13 note=36 velocity=0 time=0
EXTRACT: note_on channel=1 note=24 velocity=0 time=0
EXTRACT: note_on channel=9 note=42 velocity=62 time=0.098286296875
EXTRACT: note_on channel=9 note=61 velocity=64 time=0
EXTRACT: note_on channel=9 note=61 velocity=0 time=0.010080645833333334
EXTRACT: note_on channel=9 note=42 velocity=0 time=0
EXTRACT: pitchwheel channel=3 pitch=-8192 time=0.08316532812500001
EXTRACT: pitchwheel channel=4 pitch=-8192 time=0
EXTRACT: note_on channel=3 note=73 velocity=107 time=0.017641130208333335
EXTRACT: note_on channel=4 note=61 velocity=107 time=0
EXTRACT: note_on channel=9 note=42 velocity=52 time=0.010080645833333334
EXTRACT: note_on channel=9 note=61 velocity=55 time=0
EXTRACT: note_on channel=9 note=66 velocity=70 time=0
EXTRACT: note_on channel=9 note=82 velocity=49 time=0
EXTRACT: note_on channel=9 note=82 velocity=0 time=0.010080645833333334
EXTRACT: note_on channel=9 note=66 velocity=0 time=0
EXTRACT: note_on channel=9 note=61 velocity=0 time=0
EXTRACT: note_on channel=9 note=42 velocity=0 time=0
EXTRACT: pitchwheel channel=3 pitch=-8117 time=0
EXTRACT: pitchwheel channel=4 pitch=-8117 time=0
EXTRACT: pitchwheel channel=3 pitch=-6675 time=0.017641130208333335
EXTRACT: pitchwheel channel=4 pitch=-6675 time=0
EXTRACT: pitchwheel channel=3 pitch=-3110 time=0.017641130208333335
EXTRACT: pitchwheel channel=4 pitch=-3110 time=0
EXTRACT: pitchwheel channel=3 pitch=-607 time=0.017641130208333335
EXTRACT: pitchwheel channel=4 pitch=-607 time=0
EXTRACT: pitchwheel channel=3 pitch=-228 time=0.017641130208333335
EXTRACT: pitchwheel channel=4 pitch=-228 time=0
EXTRACT: pitchwheel channel=3 pitch=0 time=0.03528226041666667
EXTRACT: pitchwheel channel=4 pitch=0 time=0
EXTRACT: note_on channel=9 note=42 velocity=37 time=0.005040322916666667
EXTRACT: note_on channel=9 note=35 velocity=65 time=0.0025201614583333335
EXTRACT: note_on channel=9 note=42 velocity=0 time=0.007560484375000001
EXTRACT: note_on channel=9 note=35 velocity=0 time=0.0025201614583333335
EXTRACT: note_on channel=9 note=40 velocity=115 time=0.10584678125000001
EXTRACT: note_on channel=9 note=42 velocity=103 time=0.0025201614583333335
EXTRACT: note_on channel=9 note=61 velocity=93 time=0
EXTRACT: note_on channel=1 note=31 velocity=88 time=0.0025201614583333335
EXTRACT: note_on channel=2 note=43 velocity=102 time=0
EXTRACT: note_on channel=13 note=43 velocity=90 time=0
EXTRACT: note_on channel=9 note=40 velocity=0 time=0.005040322916666667
EXTRACT: note_on channel=13 note=40 velocity=0 time=0
EXTRACT: note_on channel=2 note=40 velocity=0 time=0
EXTRACT: note_on channel=1 note=28 velocity=0 time=0
EXTRACT: note_on channel=9 note=61 velocity=0 time=0.0025201614583333335
EXTRACT: note_on channel=9 note=42 velocity=0 time=0
EXTRACT: note_on channel=3 note=73 velocity=0 time=0.06552419791666667
EXTRACT: note_on channel=4 note=61 velocity=0 time=0
EXTRACT: note_on channel=9 note=42 velocity=61 time=0.04536290625
EXTRACT: note_on channel=9 note=61 velocity=55 time=0
EXTRACT: note_on channel=3 note=75 velocity=111 time=0.007560484375000001
EXTRACT: note_on channel=4 note=63 velocity=111 time=0
EXTRACT: note_on channel=9 note=61 velocity=0 time=0.0025201614583333335
EXTRACT: note_on channel=9 note=42 velocity=0 time=0
EXTRACT: note_on channel=9 note=42 velocity=53 time=0.11088710416666667
EXTRACT: note_on channel=9 note=66 velocity=56 time=0
EXTRACT: note_on channel=9 note=82 velocity=50 time=0
EXTRACT: note_on channel=9 note=82 velocity=0 time=0.010080645833333334
EXTRACT: note_on channel=9 note=66 velocity=0 time=0
EXTRACT: note_on channel=9 note=42 velocity=0 time=0
EXTRACT: note_on channel=1 note=37 velocity=92 time=0.098286296875
EXTRACT: note_on channel=2 note=49 velocity=106 time=0
EXTRACT: note_on channel=13 note=49 velocity=94 time=0
EXTRACT: note_on channel=4 note=63 velocity=0 time=0.012600807291666667
EXTRACT: note_on channel=2 note=43 velocity=0 time=0
EXTRACT: note_on channel=3 note=75 velocity=0 time=0
EXTRACT: note_on channel=13 note=43 velocity=0 time=0
EXTRACT: note_on channel=1 note=31 velocity=0 time=0
EXTRACT: note_on channel=9 note=42 velocity=40 time=0
EXTRACT: note_on channel=9 note=61 velocity=72 time=0
EXTRACT: note_on channel=9 note=35 velocity=107 time=0.005040322916666667
EXTRACT: note_on channel=9 note=61 velocity=0 time=0.005040322916666667
EXTRACT: note_on channel=9 note=42 velocity=0 time=0
EXTRACT: note_on channel=9 note=35 velocity=0 time=0.005040322916666667
EXTRACT: note_on channel=3 note=72 velocity=113 time=0.10332661979166667
EXTRACT: note_on channel=4 note=60 velocity=113 time=0
EXTRACT: note_on channel=9 note=42 velocity=109 time=0.0025201614583333335
EXTRACT: note_on channel=9 note=42 velocity=0 time=0.010080645833333334
EXTRACT: note_on channel=9 note=42 velocity=68 time=0.11088710416666667
EXTRACT: note_on channel=9 note=61 velocity=62 time=0
EXTRACT: note_on channel=9 note=35 velocity=94 time=0.007560484375000001
EXTRACT: note_on channel=9 note=61 velocity=0 time=0.0025201614583333335
EXTRACT: note_on channel=9 note=42 velocity=0 time=0
EXTRACT: note_on channel=9 note=35 velocity=0 time=0.007560484375000001
EXTRACT: note_on channel=13 note=49 velocity=0 time=0.10332661979166667
EXTRACT: note_on channel=2 note=49 velocity=0 time=0
EXTRACT: note_on channel=1 note=37 velocity=0 time=0
EXTRACT: note_on channel=9 note=42 velocity=51 time=0
EXTRACT: note_on channel=9 note=61 velocity=59 time=0
EXTRACT: note_on channel=9 note=66 velocity=74 time=0
EXTRACT: note_on channel=9 note=82 velocity=50 time=0
EXTRACT: note_on channel=1 note=36 velocity=99 time=0.0025201614583333335
EXTRACT: note_on channel=2 note=48 velocity=113 time=0
EXTRACT: control_change channel=3 control=1 value=32 time=0
EXTRACT: note_on channel=9 note=35 velocity=103 time=0
EXTRACT: note_on channel=13 note=48 velocity=101 time=0
EXTRACT: note_on channel=9 note=82 velocity=0 time=0.007560484375000001
EXTRACT: note_on channel=9 note=61 velocity=0 time=0
EXTRACT: note_on channel=9 note=42 velocity=0 time=0
EXTRACT: note_on channel=9 note=66 velocity=0 time=0
EXTRACT: note_on channel=9 note=35 velocity=0 time=0.0025201614583333335
EXTRACT: control_change channel=3 control=1 value=56 time=0.06300403645833334
EXTRACT: note_on channel=9 note=42 velocity=40 time=0.04536290625
EXTRACT: note_on channel=9 note=42 velocity=0 time=0.010080645833333334
EXTRACT: control_change channel=3 control=1 value=83 time=0.05040322916666667
EXTRACT: note_on channel=9 note=40 velocity=118 time=0.052923390625000004
EXTRACT: note_on channel=9 note=42 velocity=109 time=0.007560484375000001
EXTRACT: note_on channel=9 note=61 velocity=89 time=0
EXTRACT: note_on channel=9 note=40 velocity=0 time=0.0025201614583333335
EXTRACT: note_on channel=13 note=48 velocity=0 time=0
EXTRACT: note_on channel=1 note=36 velocity=0 time=0
EXTRACT: note_on channel=2 note=48 velocity=0 time=0
EXTRACT: note_on channel=1 note=31 velocity=93 time=0.0025201614583333335
EXTRACT: note_on channel=2 note=43 velocity=107 time=0
EXTRACT: note_on channel=13 note=43 velocity=95 time=0
EXTRACT: note_on channel=9 note=61 velocity=0 time=0.005040322916666667
EXTRACT: note_on channel=9 note=42 velocity=0 time=0
EXTRACT: control_change channel=3 control=1 value=106 time=0.037802421875
EXTRACT: note_on channel=9 note=42 velocity=62 time=0.07308468229166667
EXTRACT: note_on channel=9 note=61 velocity=49 time=0
EXTRACT: control_change channel=3 control=1 value=113 time=0.0025201614583333335
EXTRACT: note_on channel=9 note=61 velocity=0 time=0.007560484375000001
EXTRACT: note_on channel=9 note=42 velocity=0 time=0
EXTRACT: note_on channel=13 note=43 velocity=0 time=0.08316532812500001
EXTRACT: note_on channel=1 note=31 velocity=0 time=0
EXTRACT: note_on channel=2 note=43 velocity=0 time=0
EXTRACT: note_on channel=1 note=28 velocity=88 time=0.022681453125
EXTRACT: note_on channel=2 note=40 velocity=102 time=0
EXTRACT: note_on channel=13 note=40 velocity=90 time=0
EXTRACT: control_change channel=3 control=1 value=0 time=0.005040322916666667
EXTRACT: note_on channel=9 note=35 velocity=103 time=0
EXTRACT: note_on channel=9 note=42 velocity=44 time=0
EXTRACT: note_on channel=9 note=61 velocity=44 time=0
EXTRACT: note_on channel=9 note=66 velocity=49 time=0
EXTRACT: note_on channel=9 note=82 velocity=50 time=0
EXTRACT: note_on channel=9 note=82 velocity=0 time=0.010080645833333334
EXTRACT: note_on channel=9 note=66 velocity=0 time=0
EXTRACT: note_on channel=9 note=42 velocity=0 time=0
EXTRACT: note_on channel=9 note=61 velocity=0 time=0
EXTRACT: note_on channel=9 note=35 velocity=0 time=0
EXTRACT: note_on channel=3 note=72 velocity=0 time=0.007560484375000001
EXTRACT: note_on channel=4 note=60 velocity=0 time=0
EXTRACT: note_on channel=9 note=40 velocity=95 time=0.0907258125
EXTRACT: note_on channel=9 note=40 velocity=0 time=0.010080645833333334
EXTRACT: note_on channel=9 note=30 velocity=93 time=0
EXTRACT: note_on channel=9 note=42 velocity=38 time=0.0025201614583333335
EXTRACT: note_on channel=9 note=61 velocity=62 time=0
EXTRACT: note_on channel=9 note=30 velocity=0 time=0.007560484375000001
EXTRACT: note_on channel=9 note=42 velocity=0 time=0.0025201614583333335
EXTRACT: note_on channel=9 note=61 velocity=0 time=0
EXTRACT: note_on channel=9 note=40 velocity=64 time=0.020161291666666668
EXTRACT: note_on channel=9 note=40 velocity=0 time=0.010080645833333334
EXTRACT: note_on channel=9 note=40 velocity=42 time=0.020161291666666668
EXTRACT: note_on channel=9 note=40 velocity=0 time=0.010080645833333334
EXTRACT: note_on channel=9 note=40 velocity=30 time=0.017641130208333335
EXTRACT: note_on channel=9 note=40 velocity=0 time=0.010080645833333334
EXTRACT: note_on channel=13 note=40 velocity=0 time=0.020161291666666668
EXTRACT: note_on channel=1 note=28 velocity=0 time=0
EXTRACT: note_on channel=2 note=40 velocity=0 time=0
EXTRACT: note_on channel=9 note=35 velocity=112 time=0
EXTRACT: note_on channel=1 note=29 velocity=99 time=0.0025201614583333335
EXTRACT: note_on channel=2 note=41 velocity=113 time=0
EXTRACT: note_on channel=9 note=42 velocity=105 time=0
EXTRACT: note_on channel=13 note=41 velocity=101 time=0
EXTRACT: note_on channel=9 note=35 velocity=0 time=0.007560484375000001
EXTRACT: note_on channel=9 note=42 velocity=0 time=0.0025201614583333335
EXTRACT: note_on channel=9 note=42 velocity=62 time=0.11088710416666667
EXTRACT: note_on channel=9 note=61 velocity=59 time=0
EXTRACT: note_on channel=9 note=61 velocity=0 time=0.010080645833333334
EXTRACT: note_on channel=9 note=42 velocity=0 time=0
EXTRACT: pitchwheel channel=3 pitch=-7434 time=0.08820565104166667
EXTRACT: pitchwheel channel=4 pitch=-7434 time=0
EXTRACT: note_on channel=3 note=77 velocity=119 time=0.007560484375000001
EXTRACT: note_on channel=4 note=65 velocity=119 time=0
EXTRACT: pitchwheel channel=3 pitch=-7889 time=0.010080645833333334
EXTRACT: pitchwheel channel=4 pitch=-7889 time=0
EXTRACT: note_on channel=9 note=42 velocity=52 time=0.005040322916666667
EXTRACT: note_on channel=9 note=61 velocity=76 time=0
EXTRACT: note_on channel=9 note=66 velocity=70 time=0
EXTRACT: note_on channel=9 note=82 velocity=49 time=0
EXTRACT: note_on channel=9 note=82 velocity=0 time=0.010080645833333334
EXTRACT: note_on channel=9 note=66 velocity=0 time=0
EXTRACT: note_on channel=9 note=61 velocity=0 time=0
EXTRACT: note_on channel=9 note=42 velocity=0 time=0
EXTRACT: pitchwheel channel=3 pitch=-1897 time=0.037802421875
EXTRACT: pitchwheel channel=4 pitch=-1897 time=0
EXTRACT: pitchwheel channel=3 pitch=-228 time=0.020161291666666668
EXTRACT: pitchwheel channel=4 pitch=-228 time=0
EXTRACT: pitchwheel channel=3 pitch=0 time=0.03276209895833333
EXTRACT: pitchwheel channel=4 pitch=0 time=0
EXTRACT: note_on channel=9 note=42 velocity=37 time=0.020161291666666668
EXTRACT: note_on channel=9 note=35 velocity=98 time=0.0025201614583333335
EXTRACT: note_on channel=9 note=42 velocity=0 time=0.007560484375000001
EXTRACT: note_on channel=9 note=35 velocity=0 time=0.0025201614583333335
EXTRACT: note_on channel=13 note=41 velocity=0 time=0.09576613541666668
EXTRACT: note_on channel=1 note=29 velocity=0 time=0
EXTRACT: note_on channel=2 note=41 velocity=0 time=0
EXTRACT: note_on channel=1 note=32 velocity=93 time=0.010080645833333334
EXTRACT: note_on channel=2 note=44 velocity=107 time=0
EXTRACT: note_on channel=13 note=44 velocity=95 time=0
EXTRACT: note_on channel=9 note=40 velocity=118 time=0.0025201614583333335
EXTRACT: note_on channel=9 note=42 velocity=103 time=0
EXTRACT: note_on channel=9 note=61 velocity=85 time=0
EXTRACT: note_on channel=9 note=61 velocity=0 time=0.010080645833333334
EXTRACT: note_on channel=9 note=42 velocity=0 time=0
EXTRACT: note_on channel=9 note=40 velocity=0 time=0
EXTRACT: note_on channel=4 note=65 velocity=0 time=0.0907258125
EXTRACT: note_on channel=3 note=77 velocity=0 time=0
EXTRACT: note_on channel=3 note=72 velocity=107 time=0.010080645833333334
EXTRACT: note_on channel=4 note=60 velocity=107 time=0
EXTRACT: note_on channel=9 note=42 velocity=61 time=0.010080645833333334
EXTRACT: note_on channel=9 note=61 velocity=55 time=0
EXTRACT: note_on channel=9 note=61 velocity=0 time=0.010080645833333334
EXTRACT: note_on channel=9 note=42 velocity=0 time=0
EXTRACT: note_on channel=9 note=42 velocity=53 time=0.11088710416666667
EXTRACT: note_on channel=9 note=61 velocity=60 time=0
EXTRACT: note_on channel=9 note=66 velocity=50 time=0
EXTRACT: note_on channel=9 note=82 velocity=50 time=0
EXTRACT: note_on channel=9 note=82 velocity=0 time=0.010080645833333334
EXTRACT: note_on channel=9 note=66 velocity=0 time=0
EXTRACT: note_on channel=9 note=61 velocity=0 time=0
EXTRACT: note_on channel=9 note=42 velocity=0 time=0
EXTRACT: note_on channel=4 note=60 velocity=0 time=0.09324597395833334
EXTRACT: note_on channel=3 note=72 velocity=0 time=0
EXTRACT: note_on channel=1 note=37 velocity=99 time=0.017641130208333335
EXTRACT: note_on channel=2 note=49 velocity=113 time=0
EXTRACT: note_on channel=9 note=42 velocity=40 time=0
EXTRACT: note_on channel=9 note=61 velocity=60 time=0
EXTRACT: note_on channel=13 note=49 velocity=101 time=0
EXTRACT: note_on channel=13 note=44 velocity=0 time=0.005040322916666667
EXTRACT: note_on channel=1 note=32 velocity=0 time=0
EXTRACT: note_on channel=2 note=44 velocity=0 time=0
EXTRACT: note_on channel=9 note=35 velocity=98 time=0.0025201614583333335
EXTRACT: note_on channel=9 note=42 velocity=0 time=0.0025201614583333335
EXTRACT: note_on channel=9 note=61 velocity=0 time=0
EXTRACT: note_on channel=9 note=35 velocity=0 time=0.007560484375000001
EXTRACT: note_on channel=3 note=75 velocity=119 time=0.0907258125
EXTRACT: note_on channel=4 note=63 velocity=119 time=0
EXTRACT: note_on channel=9 note=42 velocity=109 time=0.012600807291666667
EXTRACT: note_on channel=9 note=42 velocity=0 time=0.010080645833333334
EXTRACT: note_on channel=9 note=42 velocity=68 time=0.11088710416666667
EXTRACT: note_on channel=9 note=61 velocity=62 time=0
EXTRACT: note_on channel=9 note=35 velocity=98 time=0.0025201614583333335
EXTRACT: note_on channel=9 note=61 velocity=0 time=0.007560484375000001
EXTRACT: note_on channel=9 note=42 velocity=0 time=0
EXTRACT: note_on channel=9 note=35 velocity=0 time=0.0025201614583333335
EXTRACT: note_on channel=3 note=75 velocity=0 time=0.06300403645833334
EXTRACT: note_on channel=4 note=63 velocity=0 time=0
EXTRACT: note_on channel=2 note=49 velocity=0 time=0.03528226041666667
EXTRACT: note_on channel=13 note=49 velocity=0 time=0
EXTRACT: note_on channel=1 note=37 velocity=0 time=0
EXTRACT: note_on channel=1 note=36 velocity=88 time=0.007560484375000001
EXTRACT: note_on channel=2 note=48 velocity=102 time=0
EXTRACT: note_on channel=13 note=48 velocity=90 time=0
EXTRACT: note_on channel=9 note=42 velocity=51 time=0.0025201614583333335
EXTRACT: note_on channel=9 note=61 velocity=56 time=0
EXTRACT: note_on channel=9 note=66 velocity=70 time=0
EXTRACT: note_on channel=9 note=82 velocity=46 time=0
EXTRACT: note_on channel=9 note=35 velocity=77 time=0.0025201614583333335
EXTRACT: note_on channel=9 note=82 velocity=0 time=0.007560484375000001
EXTRACT: note_on channel=9 note=42 velocity=0 time=0
EXTRACT: note_on channel=9 note=61 velocity=0 time=0
EXTRACT: note_on channel=9 note=66 velocity=0 time=0
EXTRACT: note_on channel=9 note=35 velocity=0 time=0.0025201614583333335
EXTRACT: note_on channel=3 note=70 velocity=113 time=0.08568548958333334
EXTRACT: note_on channel=4 note=58 velocity=113 time=0
EXTRACT: note_on channel=9 note=42 velocity=40 time=0.022681453125
EXTRACT: note_on channel=9 note=42 velocity=0 time=0.010080645833333334
EXTRACT: note_on channel=9 note=40 velocity=118 time=0.10584678125000001
EXTRACT: note_on channel=9 note=42 velocity=109 time=0.005040322916666667
EXTRACT: note_on channel=9 note=61 velocity=80 time=0
EXTRACT: note_on channel=9 note=40 velocity=0 time=0.005040322916666667
EXTRACT: note_on channel=9 note=61 velocity=0 time=0.005040322916666667
EXTRACT: note_on channel=9 note=42 velocity=0 time=0
EXTRACT: note_on channel=1 note=36 velocity=0 time=0.0025201614583333335
EXTRACT: note_on channel=13 note=48 velocity=0 time=0
EXTRACT: note_on channel=2 note=48 velocity=0 time=0
EXTRACT: note_on channel=1 note=32 velocity=93 time=0.007560484375000001
EXTRACT: note_on channel=2 note=44 velocity=107 time=0
EXTRACT: note_on channel=13 note=44 velocity=95 time=0
EXTRACT: note_on channel=3 note=70 velocity=0 time=0.06300403645833334
EXTRACT: note_on channel=4 note=58 velocity=0 time=0
EXTRACT: note_on channel=9 note=42 velocity=62 time=0.037802421875
EXTRACT: note_on channel=9 note=61 velocity=76 time=0
EXTRACT: note_on channel=9 note=61 velocity=0 time=0.010080645833333334
EXTRACT: note_on channel=9 note=42 velocity=0 time=0
EXTRACT: note_on channel=9 note=35 velocity=107 time=0.10584678125000001
EXTRACT: note_on channel=13 note=44 velocity=0 time=0.0025201614583333335
EXTRACT: note_on channel=2 note=44 velocity=0 time=0
EXTRACT: note_on channel=1 note=32 velocity=0 time=0
EXTRACT: note_on channel=9 note=42 velocity=44 time=0.0025201614583333335
EXTRACT: note_on channel=9 note=66 velocity=53 time=0
EXTRACT: note_on channel=9 note=82 velocity=42 time=0
EXTRACT: note_on channel=9 note=35 velocity=0 time=0.005040322916666667
EXTRACT: note_on channel=1 note=24 velocity=83 time=0
EXTRACT: note_on channel=2 note=36 velocity=97 time=0
EXTRACT: note_on channel=13 note=36 velocity=85 time=0
EXTRACT: note_on channel=9 note=42 velocity=0 time=0.005040322916666667
EXTRACT: note_on channel=9 note=82 velocity=0 time=0
EXTRACT: note_on channel=9 note=66 velocity=0 time=0
EXTRACT: note_on channel=9 note=40 velocity=108 time=0.098286296875
EXTRACT: note_on channel=9 note=40 velocity=0 time=0.010080645833333334
EXTRACT: note_on channel=9 note=30 velocity=88 time=0
EXTRACT: note_on channel=9 note=42 velocity=38 time=0.0025201614583333335
EXTRACT: note_on channel=9 note=61 velocity=60 time=0
EXTRACT: note_on channel=9 note=30 velocity=0 time=0.007560484375000001
EXTRACT: note_on channel=9 note=42 velocity=0 time=0.0025201614583333335
EXTRACT: note_on channel=9 note=61 velocity=0 time=0
EXTRACT: note_on channel=9 note=40 velocity=64 time=0.020161291666666668
EXTRACT: note_on channel=9 note=40 velocity=0 time=0.010080645833333334
EXTRACT: note_on channel=9 note=40 velocity=42 time=0.020161291666666668
EXTRACT: note_on channel=9 note=40 velocity=0 time=0.010080645833333334
EXTRACT: note_on channel=9 note=40 velocity=30 time=0.017641130208333335
EXTRACT: note_on channel=9 note=40 velocity=0 time=0.010080645833333334
EXTRACT: note_on channel=1 note=28 velocity=88 time=0.020161291666666668
EXTRACT: note_on channel=2 note=40 velocity=102 time=0
EXTRACT: note_on channel=9 note=35 velocity=107 time=0
EXTRACT: note_on channel=13 note=40 velocity=90 time=0
EXTRACT: note_on channel=9 note=42 velocity=105 time=0.0025201614583333335
EXTRACT: note_on channel=9 note=61 velocity=42 time=0
EXTRACT: note_on channel=3 note=73 velocity=98 time=0.0025201614583333335
EXTRACT: note_on channel=4 note=61 velocity=98 time=0
EXTRACT: note_on channel=9 note=35 velocity=0 time=0.005040322916666667
EXTRACT: note_on channel=9 note=61 velocity=0 time=0.0025201614583333335
EXTRACT: note_on channel=9 note=42 velocity=0 time=0
EXTRACT: note_on channel=1 note=24 velocity=0 time=0.012600807291666667
EXTRACT: note_on channel=2 note=36 velocity=0 time=0
EXTRACT: note_on channel=13 note=36 velocity=0 time=0
EXTRACT: note_on channel=3 note=73 velocity=0 time=0.098286296875
EXTRACT: note_on channel=4 note=61 velocity=0 time=0
EXTRACT: note_on channel=9 note=42 velocity=62 time=0
EXTRACT: note_on channel=9 note=61 velocity=62 time=0
EXTRACT: note_on channel=9 note=61 velocity=0 time=0.010080645833333334
EXTRACT: note_on channel=9 note=42 velocity=0 time=0
EXTRACT: note_on channel=3 note=73 velocity=107 time=0.10332661979166667
EXTRACT: note_on channel=4 note=61 velocity=107 time=0
EXTRACT: note_on channel=9 note=42 velocity=52 time=0.007560484375000001
EXTRACT: note_on channel=9 note=61 velocity=85 time=0
EXTRACT: note_on channel=9 note=66 velocity=79 time=0
EXTRACT: note_on channel=9 note=82 velocity=45 time=0
EXTRACT: note_on channel=9 note=82 velocity=0 time=0.010080645833333334
EXTRACT: note_on channel=9 note=66 velocity=0 time=0
EXTRACT: note_on channel=9 note=61 velocity=0 time=0
EXTRACT: note_on channel=9 note=42 velocity=0 time=0
EXTRACT: note_on channel=3 note=73 velocity=0 time=0.025201614583333334
EXTRACT: note_on channel=4 note=61 velocity=0 time=0
EXTRACT: note_on channel=3 note=73 velocity=99 time=0.07056452083333334
EXTRACT: note_on channel=4 note=61 velocity=113 time=0
EXTRACT: note_on channel=9 note=42 velocity=37 time=0.015120968750000002
EXTRACT: note_on channel=9 note=35 velocity=98 time=0.0025201614583333335
EXTRACT: note_on channel=9 note=42 velocity=0 time=0.007560484375000001
EXTRACT: note_on channel=9 note=35 velocity=0 time=0.0025201614583333335
EXTRACT: note_on channel=3 note=73 velocity=0 time=0.08316532812500001
EXTRACT: note_on channel=4 note=61 velocity=0 time=0
EXTRACT: note_on channel=9 note=40 velocity=118 time=0.020161291666666668
EXTRACT: note_on channel=9 note=42 velocity=103 time=0.005040322916666667
EXTRACT: note_on channel=9 note=61 velocity=80 time=0
EXTRACT: note_on channel=1 note=31 velocity=88 time=0.0025201614583333335
EXTRACT: note_on channel=2 note=43 velocity=102 time=0
EXTRACT: note_on channel=13 note=43 velocity=90 time=0
EXTRACT: note_on channel=9 note=40 velocity=0 time=0.0025201614583333335
EXTRACT: note_on channel=13 note=40 velocity=0 time=0.0025201614583333335
EXTRACT: note_on channel=1 note=28 velocity=0 time=0
EXTRACT: note_on channel=2 note=40 velocity=0 time=0
EXTRACT: note_on channel=9 note=42 velocity=0 time=0.0025201614583333335
EXTRACT: note_on channel=9 note=61 velocity=0 time=0
EXTRACT: note_on channel=9 note=42 velocity=61 time=0.11088710416666667
EXTRACT: note_on channel=9 note=61 velocity=85 time=0
EXTRACT: note_on channel=3 note=75 velocity=114 time=0.0025201614583333335
EXTRACT: note_on channel=4 note=63 velocity=119 time=0
EXTRACT: note_on channel=9 note=61 velocity=0 time=0.007560484375000001
EXTRACT: note_on channel=9 note=42 velocity=0 time=0
EXTRACT: note_on channel=3 note=75 velocity=0 time=0.10332661979166667
EXTRACT: note_on channel=4 note=63 velocity=0 time=0
EXTRACT: note_on channel=9 note=42 velocity=53 time=0.007560484375000001
EXTRACT: note_on channel=9 note=61 velocity=30 time=0
EXTRACT: note_on channel=9 note=66 velocity=46 time=0
EXTRACT: note_on channel=9 note=82 velocity=47 time=0
EXTRACT: note_on channel=9 note=82 velocity=0 time=0.010080645833333334
EXTRACT: note_on channel=9 note=61 velocity=0 time=0
EXTRACT: note_on channel=9 note=42 velocity=0 time=0
EXTRACT: note_on channel=9 note=66 velocity=0 time=0
EXTRACT: note_on channel=1 note=37 velocity=92 time=0.098286296875
EXTRACT: note_on channel=2 note=49 velocity=106 time=0
EXTRACT: note_on channel=13 note=49 velocity=94 time=0
EXTRACT: note_on channel=3 note=72 velocity=107 time=0.0025201614583333335
EXTRACT: note_on channel=4 note=60 velocity=107 time=0
EXTRACT: note_on channel=2 note=43 velocity=0 time=0.010080645833333334
EXTRACT: note_on channel=13 note=43 velocity=0 time=0
EXTRACT: note_on channel=1 note=31 velocity=0 time=0
EXTRACT: note_on channel=9 note=42 velocity=40 time=0
EXTRACT: note_on channel=9 note=61 velocity=68 time=0
EXTRACT: note_on channel=9 note=35 velocity=103 time=0.005040322916666667
EXTRACT: note_on channel=9 note=61 velocity=0 time=0.005040322916666667
EXTRACT: note_on channel=9 note=42 velocity=0 time=0
EXTRACT: note_on channel=9 note=35 velocity=0 time=0.005040322916666667
EXTRACT: note_on channel=9 note=42 velocity=109 time=0.10584678125000001
EXTRACT: note_on channel=9 note=42 velocity=0 time=0.010080645833333334
EXTRACT: note_on channel=9 note=42 velocity=68 time=0.11088710416666667
EXTRACT: note_on channel=9 note=61 velocity=62 time=0
EXTRACT: note_on channel=9 note=35 velocity=98 time=0.0025201614583333335
EXTRACT: note_on channel=9 note=61 velocity=0 time=0.007560484375000001
EXTRACT: note_on channel=9 note=42 velocity=0 time=0
EXTRACT: note_on channel=9 note=35 velocity=0 time=0.0025201614583333335
EXTRACT: control_change channel=3 control=1 value=19 time=0.015120968750000002
EXTRACT: control_change channel=3 control=1 value=42 time=0.08820565104166667
EXTRACT: note_on channel=13 note=49 velocity=0 time=0.005040322916666667
EXTRACT: note_on channel=2 note=49 velocity=0 time=0
EXTRACT: note_on channel=1 note=37 velocity=0 time=0
EXTRACT: note_on channel=9 note=42 velocity=51 time=0
EXTRACT: note_on channel=9 note=61 velocity=60 time=0
EXTRACT: note_on channel=9 note=66 velocity=70 time=0
EXTRACT: note_on channel=9 note=82 velocity=44 time=0
EXTRACT: note_on channel=1 note=36 velocity=99 time=0.0025201614583333335
EXTRACT: note_on channel=2 note=48 velocity=113 time=0
EXTRACT: note_on channel=9 note=35 velocity=94 time=0
EXTRACT: note_on channel=13 note=48 velocity=101 time=0
EXTRACT: note_on channel=9 note=82 velocity=0 time=0.007560484375000001
EXTRACT: note_on channel=9 note=61 velocity=0 time=0
EXTRACT: note_on channel=9 note=42 velocity=0 time=0
EXTRACT: note_on channel=9 note=66 velocity=0 time=0
EXTRACT: note_on channel=9 note=35 velocity=0 time=0.0025201614583333335
EXTRACT: control_change channel=3 control=1 value=54 time=0.03528226041666667
EXTRACT: control_change channel=3 control=1 value=66 time=0.05544355208333333
EXTRACT: note_on channel=9 note=42 velocity=40 time=0.017641130208333335
EXTRACT: note_on channel=9 note=42 velocity=0 time=0.010080645833333334
EXTRACT: control_change channel=3 control=1 value=79 time=0.04284274479166667
EXTRACT: control_change channel=3 control=1 value=91 time=0.05040322916666667
EXTRACT: note_on channel=9 note=40 velocity=118 time=0.012600807291666667
EXTRACT: note_on channel=9 note=42 velocity=109 time=0.005040322916666667
EXTRACT: note_on channel=9 note=61 velocity=85 time=0
EXTRACT: note_on channel=1 note=36 velocity=0 time=0.0025201614583333335
EXTRACT: note_on channel=13 note=48 velocity=0 time=0
EXTRACT: note_on channel=2 note=48 velocity=0 time=0
EXTRACT: note_on channel=9 note=40 velocity=0 time=0.0025201614583333335
EXTRACT: note_on channel=1 note=31 velocity=93 time=0
EXTRACT: note_on channel=2 note=43 velocity=107 time=0
EXTRACT: note_on channel=13 note=43 velocity=95 time=0
EXTRACT: note_on channel=9 note=61 velocity=0 time=0.005040322916666667
EXTRACT: note_on channel=9 note=42 velocity=0 time=0
EXTRACT: control_change channel=3 control=1 value=103 time=0.08064516666666667
EXTRACT: note_on channel=9 note=42 velocity=62 time=0.030241937500000003
EXTRACT: note_on channel=9 note=61 velocity=80 time=0
EXTRACT: note_on channel=9 note=61 velocity=0 time=0.010080645833333334
EXTRACT: note_on channel=9 note=42 velocity=0 time=0
EXTRACT: note_on channel=3 note=72 velocity=0 time=0.05544355208333333
EXTRACT: note_on channel=4 note=60 velocity=0 time=0
EXTRACT: control_change channel=3 control=1 value=0 time=0.010080645833333334
EXTRACT: note_on channel=2 note=43 velocity=0 time=0.017641130208333335
EXTRACT: note_on channel=1 note=31 velocity=0 time=0
EXTRACT: note_on channel=13 note=43 velocity=0 time=0
EXTRACT: note_on channel=1 note=28 velocity=88 time=0.022681453125
EXTRACT: note_on channel=2 note=40 velocity=102 time=0
EXTRACT: note_on channel=9 note=35 velocity=103 time=0
EXTRACT: note_on channel=13 note=40 velocity=90 time=0
EXTRACT: note_on channel=9 note=42 velocity=44 time=0.005040322916666667
EXTRACT: note_on channel=9 note=61 velocity=57 time=0
EXTRACT: note_on channel=9 note=66 velocity=47 time=0
EXTRACT: note_on channel=9 note=82 velocity=45 time=0
EXTRACT: note_on channel=9 note=35 velocity=0 time=0.005040322916666667
EXTRACT: note_on channel=9 note=82 velocity=0 time=0.005040322916666667
EXTRACT: note_on channel=9 note=61 velocity=0 time=0
EXTRACT: note_on channel=9 note=42 velocity=0 time=0
EXTRACT: note_on channel=9 note=66 velocity=0 time=0
EXTRACT: note_on channel=9 note=40 velocity=95 time=0.098286296875
EXTRACT: note_on channel=9 note=40 velocity=0 time=0.010080645833333334
EXTRACT: note_on channel=9 note=30 velocity=93 time=0
EXTRACT: note_on channel=9 note=42 velocity=38 time=0.0025201614583333335
EXTRACT: note_on channel=9 note=61 velocity=60 time=0
EXTRACT: note_on channel=9 note=30 velocity=0 time=0.007560484375000001
EXTRACT: note_on channel=9 note=42 velocity=0 time=0.0025201614583333335
EXTRACT: note_on channel=9 note=61 velocity=0 time=0
EXTRACT: note_on channel=9 note=40 velocity=64 time=0.020161291666666668
EXTRACT: note_on channel=9 note=40 velocity=0 time=0.010080645833333334
EXTRACT: note_on channel=9 note=40 velocity=42 time=0.020161291666666668
EXTRACT: note_on channel=9 note=40 velocity=0 time=0.010080645833333334
EXTRACT: note_on channel=9 note=40 velocity=30 time=0.015120968750000002
EXTRACT: note_on channel=9 note=40 velocity=0 time=0.010080645833333334
EXTRACT: note_on channel=13 note=40 velocity=0 time=0.022681453125
EXTRACT: note_on channel=2 note=40 velocity=0 time=0
EXTRACT: note_on channel=1 note=28 velocity=0 time=0
EXTRACT: note_on channel=1 note=29 velocity=99 time=0.0025201614583333335
EXTRACT: note_on channel=2 note=41 velocity=113 time=0
EXTRACT: note_on channel=9 note=35 velocity=112 time=0
EXTRACT: note_on channel=9 note=42 velocity=105 time=0
EXTRACT: note_on channel=13 note=41 velocity=101 time=0
EXTRACT: note_on channel=9 note=42 velocity=0 time=0.010080645833333334
EXTRACT: note_on channel=9 note=35 velocity=0 time=0
EXTRACT: note_on channel=9 note=42 velocity=62 time=0.11088710416666667
EXTRACT: note_on channel=9 note=61 velocity=62 time=0
EXTRACT: note_on channel=9 note=61 velocity=0 time=0.010080645833333334
EXTRACT: note_on channel=9 note=42 velocity=0 time=0
EXTRACT: note_on channel=3 note=77 velocity=113 time=0.11088710416666667
EXTRACT: note_on channel=4 note=65 velocity=113 time=0
EXTRACT: note_on channel=9 note=42 velocity=52 time=0
EXTRACT: note_on channel=9 note=61 velocity=60 time=0
EXTRACT: note_on channel=9 note=66 velocity=74 time=0
EXTRACT: note_on channel=9 note=82 velocity=50 time=0
EXTRACT: note_on channel=9 note=82 velocity=0 time=0.010080645833333334
EXTRACT: note_on channel=9 note=66 velocity=0 time=0
EXTRACT: note_on channel=9 note=61 velocity=0 time=0
EXTRACT: note_on channel=9 note=42 velocity=0 time=0
EXTRACT: note_on channel=9 note=42 velocity=37 time=0.11088710416666667
EXTRACT: note_on channel=9 note=42 velocity=0 time=0.010080645833333334
EXTRACT: note_on channel=9 note=35 velocity=77 time=0
EXTRACT: note_on channel=9 note=35 velocity=0 time=0.010080645833333334
EXTRACT: note_on channel=2 note=41 velocity=0 time=0.08820565104166667
EXTRACT: note_on channel=1 note=29 velocity=0 time=0
EXTRACT: note_on channel=13 note=41 velocity=0 time=0
EXTRACT: note_on channel=1 note=32 velocity=93 time=0.010080645833333334
EXTRACT: note_on channel=2 note=44 velocity=107 time=0
EXTRACT: note_on channel=13 note=44 velocity=95 time=0
EXTRACT: note_on channel=9 note=42 velocity=103 time=0.0025201614583333335
EXTRACT: note_on channel=9 note=61 velocity=85 time=0
EXTRACT: note_on channel=9 note=40 velocity=124 time=0.007560484375000001
EXTRACT: note_on channel=9 note=61 velocity=0 time=0.0025201614583333335
EXTRACT: note_on channel=9 note=42 velocity=0 time=0
EXTRACT: note_on channel=9 note=40 velocity=0 time=0.007560484375000001
EXTRACT: note_on channel=4 note=65 velocity=0 time=0.007560484375000001
EXTRACT: note_on channel=3 note=77 velocity=0 time=0
EXTRACT: note_on channel=3 note=72 velocity=113 time=0.09576613541666668
EXTRACT: note_on channel=4 note=60 velocity=113 time=0
EXTRACT: note_on channel=9 note=42 velocity=61 time=0
EXTRACT: note_on channel=9 note=61 velocity=68 time=0
EXTRACT: note_on channel=9 note=61 velocity=0 time=0.010080645833333334
EXTRACT: note_on channel=9 note=42 velocity=0 time=0
EXTRACT: note_on channel=9 note=42 velocity=53 time=0.11088710416666667
EXTRACT: note_on channel=9 note=61 velocity=49 time=0
EXTRACT: note_on channel=9 note=66 velocity=50 time=0
EXTRACT: note_on channel=9 note=82 velocity=49 time=0
EXTRACT: note_on channel=9 note=82 velocity=0 time=0.010080645833333334
EXTRACT: note_on channel=9 note=66 velocity=0 time=0
EXTRACT: note_on channel=9 note=61 velocity=0 time=0
EXTRACT: note_on channel=9 note=42 velocity=0 time=0
EXTRACT: note_on channel=4 note=60 velocity=0 time=0.05040322916666667
EXTRACT: note_on channel=3 note=72 velocity=0 time=0
EXTRACT: note_on channel=1 note=37 velocity=99 time=0.060483875000000006
EXTRACT: note_on channel=2 note=49 velocity=113 time=0
EXTRACT: note_on channel=9 note=42 velocity=40 time=0
EXTRACT: note_on channel=9 note=61 velocity=72 time=0
EXTRACT: note_on channel=13 note=49 velocity=101 time=0
EXTRACT: note_on channel=13 note=44 velocity=0 time=0.005040322916666667
EXTRACT: note_on channel=1 note=32 velocity=0 time=0
EXTRACT: note_on channel=2 note=44 velocity=0 time=0
EXTRACT: note_on channel=9 note=35 velocity=90 time=0
EXTRACT: note_on channel=9 note=42 velocity=0 time=0.005040322916666667
EXTRACT: note_on channel=9 note=61 velocity=0 time=0
EXTRACT: note_on channel=9 note=35 velocity=0 time=0.005040322916666667
EXTRACT: note_on channel=3 note=75 velocity=119 time=0.10584678125000001
EXTRACT: note_on channel=4 note=63 velocity=119 time=0
EXTRACT: note_on channel=9 note=42 velocity=109 time=0
EXTRACT: note_on channel=9 note=42 velocity=0 time=0.010080645833333334
EXTRACT: note_on channel=9 note=35 velocity=98 time=0.11088710416666667
EXTRACT: note_on channel=9 note=42 velocity=68 time=0
EXTRACT: note_on channel=9 note=61 velocity=62 time=0
EXTRACT: note_on channel=9 note=61 velocity=0 time=0.010080645833333334
EXTRACT: note_on channel=9 note=42 velocity=0 time=0
EXTRACT: note_on channel=9 note=35 velocity=0 time=0
EXTRACT: note_on channel=4 note=63 velocity=0 time=0.03528226041666667
EXTRACT: note_on channel=3 note=75 velocity=0 time=0
EXTRACT: note_on channel=2 note=49 velocity=0 time=0.06552419791666667
EXTRACT: note_on channel=13 note=49 velocity=0 time=0
EXTRACT: note_on channel=1 note=37 velocity=0 time=0
EXTRACT: note_on channel=1 note=36 velocity=88 time=0.007560484375000001
EXTRACT: note_on channel=2 note=48 velocity=102 time=0
EXTRACT: note_on channel=13 note=48 velocity=90 time=0
EXTRACT: note_on channel=9 note=35 velocity=98 time=0.0025201614583333335
EXTRACT: note_on channel=9 note=42 velocity=51 time=0
EXTRACT: note_on channel=9 note=61 velocity=85 time=0
EXTRACT: note_on channel=9 note=66 velocity=66 time=0
EXTRACT: note_on channel=9 note=82 velocity=49 time=0
EXTRACT: note_on channel=9 note=82 velocity=0 time=0.010080645833333334
EXTRACT: note_on channel=9 note=66 velocity=0 time=0
EXTRACT: note_on channel=9 note=42 velocity=0 time=0
EXTRACT: note_on channel=9 note=35 velocity=0 time=0
EXTRACT: note_on channel=9 note=61 velocity=0 time=0
EXTRACT: note_on channel=3 note=70 velocity=107 time=0.11088710416666667
EXTRACT: note_on channel=4 note=58 velocity=107 time=0
EXTRACT: note_on channel=9 note=42 velocity=40 time=0
EXTRACT: note_on channel=9 note=42 velocity=0 time=0.010080645833333334
EXTRACT: note_on channel=9 note=40 velocity=112 time=0.10080645833333333
EXTRACT: note_on channel=9 note=40 velocity=0 time=0.010080645833333334
EXTRACT: note_on channel=9 note=42 velocity=109 time=0
EXTRACT: note_on channel=9 note=61 velocity=72 time=0
EXTRACT: note_on channel=9 note=61 velocity=0 time=0.010080645833333334
EXTRACT: note_on channel=9 note=42 velocity=0 time=0
EXTRACT: note_on channel=13 note=48 velocity=0 time=0.0025201614583333335
EXTRACT: note_on channel=2 note=48 velocity=0 time=0
EXTRACT: note_on channel=1 note=36 velocity=0 time=0
EXTRACT: note_on channel=1 note=32 velocity=93 time=0.007560484375000001
EXTRACT: note_on channel=2 note=44 velocity=107 time=0
EXTRACT: note_on channel=13 note=44 velocity=95 time=0
EXTRACT: note_on channel=3 note=70 velocity=0 time=0.030241937500000003
EXTRACT: note_on channel=4 note=58 velocity=0 time=0
EXTRACT: note_on channel=9 note=42 velocity=62 time=0.07056452083333334
EXTRACT: note_on channel=9 note=61 velocity=60 time=0
EXTRACT: note_on channel=9 note=61 velocity=0 time=0.010080645833333334
EXTRACT: note_on channel=9 note=42 velocity=0 time=0
EXTRACT: note_on channel=13 note=44 velocity=0 time=0.10836694270833334
EXTRACT: note_on channel=1 note=32 velocity=0 time=0
EXTRACT: note_on channel=2 note=44 velocity=0 time=0
EXTRACT: note_on channel=9 note=35 velocity=94 time=0.0025201614583333335
EXTRACT: note_on channel=9 note=42 velocity=44 time=0
EXTRACT: note_on channel=9 note=66 velocity=36 time=0
EXTRACT: note_on channel=9 note=82 velocity=51 time=0
EXTRACT: note_on channel=1 note=24 velocity=83 time=0.005040322916666667
EXTRACT: note_on channel=2 note=36 velocity=97 time=0
EXTRACT: note_on channel=13 note=36 velocity=85 time=0
EXTRACT: note_on channel=9 note=82 velocity=0 time=0.005040322916666667
EXTRACT: note_on channel=9 note=66 velocity=0 time=0
EXTRACT: note_on channel=9 note=35 velocity=0 time=0
EXTRACT: note_on channel=9 note=42 velocity=0 time=0
EXTRACT: note_on channel=9 note=40 velocity=95 time=0.098286296875
EXTRACT: note_on channel=9 note=40 velocity=0 time=0.010080645833333334
EXTRACT: note_on channel=9 note=30 velocity=93 time=0
EXTRACT: note_on channel=9 note=42 velocity=38 time=0.0025201614583333335
EXTRACT: note_on channel=9 note=61 velocity=68 time=0
EXTRACT: note_on channel=9 note=30 velocity=0 time=0.007560484375000001
EXTRACT: note_on channel=9 note=42 velocity=0 time=0.0025201614583333335
EXTRACT: note_on channel=9 note=61 velocity=0 time=0
EXTRACT: note_on channel=9 note=40 velocity=64 time=0.020161291666666668
EXTRACT: note_on channel=9 note=40 velocity=0 time=0.010080645833333334
EXTRACT: note_on channel=9 note=40 velocity=42 time=0.020161291666666668
EXTRACT: note_on channel=9 note=40 velocity=0 time=0.010080645833333334
EXTRACT: note_on channel=9 note=40 velocity=30 time=0.015120968750000002
EXTRACT: note_on channel=9 note=40 velocity=0 time=0.010080645833333334
EXTRACT: note_on channel=9 note=35 velocity=118 time=0.017641130208333335
EXTRACT: note_on channel=1 note=28 velocity=88 time=0.005040322916666667
EXTRACT: note_on channel=2 note=40 velocity=102 time=0
EXTRACT: note_on channel=13 note=40 velocity=90 time=0
EXTRACT: note_on channel=9 note=42 velocity=105 time=0.0025201614583333335
EXTRACT: note_on channel=9 note=35 velocity=0 time=0.0025201614583333335
EXTRACT: note_on channel=9 note=42 velocity=0 time=0.007560484375000001
EXTRACT: note_on channel=3 note=73 velocity=107 time=0.010080645833333334
EXTRACT: note_on channel=4 note=61 velocity=107 time=0
EXTRACT: note_on channel=13 note=36 velocity=0 time=0.0025201614583333335
EXTRACT: note_on channel=1 note=24 velocity=0 time=0
EXTRACT: note_on channel=2 note=36 velocity=0 time=0
EXTRACT: note_on channel=4 note=61 velocity=0 time=0.052923390625000004
EXTRACT: note_on channel=3 note=73 velocity=0 time=0
EXTRACT: note_on channel=9 note=42 velocity=62 time=0.04536290625
EXTRACT: note_on channel=9 note=61 velocity=60 time=0
EXTRACT: note_on channel=9 note=61 velocity=0 time=0.010080645833333334
EXTRACT: note_on channel=9 note=42 velocity=0 time=0
EXTRACT: note_on channel=3 note=73 velocity=107 time=0.10332661979166667
EXTRACT: note_on channel=4 note=61 velocity=107 time=0
EXTRACT: note_on channel=9 note=42 velocity=52 time=0.007560484375000001
EXTRACT: note_on channel=9 note=61 velocity=72 time=0
EXTRACT: note_on channel=9 note=66 velocity=70 time=0
EXTRACT: note_on channel=9 note=82 velocity=50 time=0
EXTRACT: note_on channel=9 note=82 velocity=0 time=0.010080645833333334
EXTRACT: note_on channel=9 note=66 velocity=0 time=0
EXTRACT: note_on channel=9 note=61 velocity=0 time=0
EXTRACT: note_on channel=9 note=42 velocity=0 time=0
EXTRACT: note_on channel=3 note=73 velocity=0 time=0.025201614583333334
EXTRACT: note_on channel=4 note=61 velocity=0 time=0
EXTRACT: note_on channel=3 note=73 velocity=107 time=0.08316532812500001
EXTRACT: note_on channel=4 note=61 velocity=107 time=0
EXTRACT: note_on channel=9 note=42 velocity=37 time=0.0025201614583333335
EXTRACT: note_on channel=9 note=35 velocity=65 time=0.0025201614583333335
EXTRACT: note_on channel=9 note=42 velocity=0 time=0.007560484375000001
EXTRACT: note_on channel=9 note=35 velocity=0 time=0.0025201614583333335
EXTRACT: note_on channel=3 note=73 velocity=0 time=0.060483875000000006
EXTRACT: note_on channel=4 note=61 velocity=0 time=0
EXTRACT: note_on channel=9 note=40 velocity=115 time=0.04536290625
EXTRACT: note_on channel=9 note=42 velocity=103 time=0.0025201614583333335
EXTRACT: note_on channel=9 note=61 velocity=80 time=0
EXTRACT: note_on channel=1 note=31 velocity=88 time=0.0025201614583333335
EXTRACT: note_on channel=2 note=43 velocity=102 time=0
EXTRACT: note_on channel=13 note=43 velocity=90 time=0
EXTRACT: note_on channel=9 note=40 velocity=0 time=0.005040322916666667
EXTRACT: note_on channel=1 note=28 velocity=0 time=0
EXTRACT: note_on channel=2 note=40 velocity=0 time=0
EXTRACT: note_on channel=13 note=40 velocity=0 time=0
EXTRACT: note_on channel=9 note=42 velocity=0 time=0.0025201614583333335
EXTRACT: note_on channel=9 note=61 velocity=0 time=0
EXTRACT: note_on channel=3 note=75 velocity=113 time=0.098286296875
EXTRACT: note_on channel=4 note=63 velocity=113 time=0
EXTRACT: note_on channel=9 note=42 velocity=61 time=0.012600807291666667
EXTRACT: note_on channel=9 note=61 velocity=60 time=0
EXTRACT: note_on channel=9 note=61 velocity=0 time=0.010080645833333334
EXTRACT: note_on channel=9 note=42 velocity=0 time=0
EXTRACT: note_on channel=3 note=75 velocity=0 time=0.05040322916666667
EXTRACT: note_on channel=4 note=63 velocity=0 time=0
EXTRACT: note_on channel=9 note=42 velocity=53 time=0.060483875000000006
EXTRACT: note_on channel=9 note=61 velocity=55 time=0
EXTRACT: note_on channel=9 note=66 velocity=56 time=0
EXTRACT: note_on channel=9 note=82 velocity=47 time=0
EXTRACT: note_on channel=9 note=82 velocity=0 time=0.010080645833333334
EXTRACT: note_on channel=9 note=61 velocity=0 time=0
EXTRACT: note_on channel=9 note=42 velocity=0 time=0
EXTRACT: note_on channel=9 note=66 velocity=0 time=0
EXTRACT: note_on channel=3 note=72 velocity=107 time=0.09576613541666668
EXTRACT: note_on channel=4 note=60 velocity=107 time=0
EXTRACT: note_on channel=1 note=37 velocity=92 time=0.0025201614583333335
EXTRACT: note_on channel=2 note=49 velocity=106 time=0
EXTRACT: note_on channel=13 note=49 velocity=94 time=0
EXTRACT: note_on channel=2 note=43 velocity=0 time=0.012600807291666667
EXTRACT: note_on channel=13 note=43 velocity=0 time=0
EXTRACT: note_on channel=1 note=31 velocity=0 time=0
EXTRACT: note_on channel=9 note=42 velocity=40 time=0
EXTRACT: note_on channel=9 note=61 velocity=68 time=0
EXTRACT: note_on channel=9 note=35 velocity=107 time=0.005040322916666667
EXTRACT: note_on channel=9 note=61 velocity=0 time=0.005040322916666667
EXTRACT: note_on channel=9 note=42 velocity=0 time=0
EXTRACT: note_on channel=9 note=35 velocity=0 time=0.005040322916666667
EXTRACT: note_on channel=9 note=42 velocity=109 time=0.10584678125000001
EXTRACT: note_on channel=9 note=42 velocity=0 time=0.010080645833333334
EXTRACT: control_change channel=3 control=1 value=14 time=0.10080645833333333
EXTRACT: note_on channel=9 note=42 velocity=68 time=0.010080645833333334
EXTRACT: note_on channel=9 note=61 velocity=60 time=0
EXTRACT: note_on channel=9 note=35 velocity=94 time=0.007560484375000001
EXTRACT: note_on channel=9 note=61 velocity=0 time=0.0025201614583333335
EXTRACT: note_on channel=9 note=42 velocity=0 time=0
EXTRACT: note_on channel=9 note=35 velocity=0 time=0.007560484375000001
EXTRACT: control_change channel=3 control=1 value=26 time=0.04284274479166667
EXTRACT: note_on channel=2 note=49 velocity=0 time=0.060483875000000006
EXTRACT: note_on channel=13 note=49 velocity=0 time=0
EXTRACT: note_on channel=1 note=37 velocity=0 time=0
EXTRACT: note_on channel=9 note=42 velocity=51 time=0
EXTRACT: note_on channel=9 note=61 velocity=80 time=0
EXTRACT: note_on channel=9 note=66 velocity=74 time=0
EXTRACT: note_on channel=9 note=82 velocity=46 time=0
EXTRACT: note_on channel=1 note=36 velocity=99 time=0.0025201614583333335
EXTRACT: note_on channel=2 note=48 velocity=113 time=0
EXTRACT: note_on channel=9 note=35 velocity=103 time=0
EXTRACT: note_on channel=13 note=48 velocity=101 time=0
EXTRACT: note_on channel=9 note=82 velocity=0 time=0.007560484375000001
EXTRACT: note_on channel=9 note=61 velocity=0 time=0
EXTRACT: note_on channel=9 note=42 velocity=0 time=0
EXTRACT: note_on channel=9 note=66 velocity=0 time=0
EXTRACT: control_change channel=3 control=1 value=41 time=0
EXTRACT: note_on channel=9 note=35 velocity=0 time=0.0025201614583333335
EXTRACT: control_change channel=3 control=1 value=53 time=0.05040322916666667
EXTRACT: note_on channel=9 note=42 velocity=40 time=0.05796371354166667
EXTRACT: note_on channel=9 note=61 velocity=56 time=0
EXTRACT: note_on channel=9 note=61 velocity=0 time=0.010080645833333334
EXTRACT: note_on channel=9 note=42 velocity=0 time=0
EXTRACT: control_change channel=3 control=1 value=66 time=0.005040322916666667
EXTRACT: control_change channel=3 control=1 value=78 time=0.05040322916666667
EXTRACT: note_on channel=9 note=40 velocity=118 time=0.04788306770833334
EXTRACT: control_change channel=3 control=1 value=91 time=0.007560484375000001
EXTRACT: note_on channel=9 note=42 velocity=109 time=0
EXTRACT: note_on channel=9 note=61 velocity=72 time=0
EXTRACT: note_on channel=9 note=40 velocity=0 time=0.0025201614583333335
EXTRACT: note_on channel=13 note=48 velocity=0 time=0
EXTRACT: note_on channel=1 note=36 velocity=0 time=0
EXTRACT: note_on channel=2 note=48 velocity=0 time=0
EXTRACT: note_on channel=1 note=31 velocity=93 time=0.0025201614583333335
EXTRACT: note_on channel=2 note=43 velocity=107 time=0
EXTRACT: note_on channel=13 note=43 velocity=95 time=0
EXTRACT: note_on channel=9 note=61 velocity=0 time=0.005040322916666667
EXTRACT: note_on channel=9 note=42 velocity=0 time=0
EXTRACT: note_on channel=3 note=72 velocity=0 time=0.03528226041666667
EXTRACT: note_on channel=4 note=60 velocity=0 time=0
EXTRACT: control_change channel=3 control=1 value=0 time=0.007560484375000001
EXTRACT: note_on channel=9 note=42 velocity=62 time=0.068044359375
EXTRACT: note_on channel=9 note=61 velocity=60 time=0
EXTRACT: note_on channel=9 note=61 velocity=0 time=0.010080645833333334
EXTRACT: note_on channel=9 note=42 velocity=0 time=0
EXTRACT: note_on channel=1 note=31 velocity=0 time=0.08316532812500001
EXTRACT: note_on channel=13 note=43 velocity=0 time=0
EXTRACT: note_on channel=2 note=43 velocity=0 time=0
EXTRACT: note_on channel=1 note=28 velocity=88 time=0.022681453125
EXTRACT: note_on channel=2 note=40 velocity=102 time=0
EXTRACT: note_on channel=13 note=40 velocity=90 time=0
EXTRACT: note_on channel=9 note=35 velocity=103 time=0.005040322916666667
EXTRACT: note_on channel=9 note=42 velocity=44 time=0
EXTRACT: note_on channel=9 note=61 velocity=60 time=0
EXTRACT: note_on channel=9 note=66 velocity=49 time=0
EXTRACT: note_on channel=9 note=82 velocity=49 time=0
EXTRACT: note_on channel=9 note=82 velocity=0 time=0.010080645833333334
EXTRACT: note_on channel=9 note=66 velocity=0 time=0
EXTRACT: note_on channel=9 note=42 velocity=0 time=0
EXTRACT: note_on channel=9 note=35 velocity=0 time=0
EXTRACT: note_on channel=9 note=61 velocity=0 time=0
EXTRACT: note_on channel=9 note=40 velocity=95 time=0.098286296875
EXTRACT: note_on channel=9 note=40 velocity=0 time=0.010080645833333334
EXTRACT: note_on channel=9 note=30 velocity=88 time=0
EXTRACT: note_on channel=9 note=42 velocity=38 time=0.0025201614583333335
EXTRACT: note_on channel=9 note=61 velocity=80 time=0
EXTRACT: note_on channel=9 note=30 velocity=0 time=0.007560484375000001
EXTRACT: note_on channel=9 note=42 velocity=0 time=0.0025201614583333335
EXTRACT: note_on channel=9 note=61 velocity=0 time=0
EXTRACT: note_on channel=9 note=40 velocity=64 time=0.020161291666666668
EXTRACT: note_on channel=9 note=40 velocity=0 time=0.010080645833333334
EXTRACT: note_on channel=9 note=40 velocity=42 time=0.020161291666666668
EXTRACT: note_on channel=9 note=40 velocity=0 time=0.010080645833333334
EXTRACT: note_on channel=9 note=40 velocity=30 time=0.017641130208333335
EXTRACT: note_on channel=9 note=40 velocity=0 time=0.010080645833333334
EXTRACT: note_on channel=13 note=40 velocity=0 time=0.020161291666666668
EXTRACT: note_on channel=2 note=40 velocity=0 time=0
EXTRACT: note_on channel=1 note=28 velocity=0 time=0
EXTRACT: note_on channel=9 note=35 velocity=112 time=0
EXTRACT: note_on channel=1 note=29 velocity=99 time=0.0025201614583333335
EXTRACT: note_on channel=2 note=41 velocity=113 time=0
EXTRACT: note_on channel=9 note=42 velocity=105 time=0
EXTRACT: note_on channel=13 note=41 velocity=101 time=0
EXTRACT: note_on channel=9 note=35 velocity=0 time=0.007560484375000001
EXTRACT: note_on channel=9 note=42 velocity=0 time=0.0025201614583333335
EXTRACT: note_on channel=9 note=42 velocity=62 time=0.11088710416666667
EXTRACT: note_on channel=9 note=61 velocity=59 time=0
EXTRACT: note_on channel=9 note=61 velocity=0 time=0.010080645833333334
EXTRACT: note_on channel=9 note=42 velocity=0 time=0
EXTRACT: note_on channel=3 note=77 velocity=113 time=0.11088710416666667
EXTRACT: note_on channel=4 note=65 velocity=113 time=0
EXTRACT: note_on channel=9 note=42 velocity=52 time=0
EXTRACT: note_on channel=9 note=61 velocity=72 time=0
EXTRACT: note_on channel=9 note=66 velocity=70 time=0
EXTRACT: note_on channel=9 note=82 velocity=49 time=0
EXTRACT: note_on channel=9 note=82 velocity=0 time=0.010080645833333334
EXTRACT: note_on channel=9 note=66 velocity=0 time=0
EXTRACT: note_on channel=9 note=61 velocity=0 time=0
EXTRACT: note_on channel=9 note=42 velocity=0 time=0
EXTRACT: note_on channel=3 note=77 velocity=0 time=0.07308468229166667
EXTRACT: note_on channel=4 note=65 velocity=0 time=0
EXTRACT: note_on channel=9 note=42 velocity=37 time=0.037802421875
EXTRACT: note_on channel=9 note=35 velocity=98 time=0.0025201614583333335
EXTRACT: note_on channel=9 note=42 velocity=0 time=0.007560484375000001
EXTRACT: note_on channel=9 note=35 velocity=0 time=0.0025201614583333335
EXTRACT: note_on channel=2 note=41 velocity=0 time=0.09576613541666668
EXTRACT: note_on channel=13 note=41 velocity=0 time=0
EXTRACT: note_on channel=1 note=29 velocity=0 time=0
EXTRACT: note_on channel=1 note=32 velocity=93 time=0.010080645833333334
EXTRACT: note_on channel=2 note=44 velocity=107 time=0
EXTRACT: note_on channel=13 note=44 velocity=95 time=0
EXTRACT: note_on channel=9 note=40 velocity=118 time=0.0025201614583333335
EXTRACT: note_on channel=9 note=42 velocity=103 time=0
EXTRACT: note_on channel=9 note=61 velocity=62 time=0
EXTRACT: note_on channel=9 note=61 velocity=0 time=0.010080645833333334
EXTRACT: note_on channel=9 note=40 velocity=0 time=0
EXTRACT: note_on channel=9 note=42 velocity=0 time=0
EXTRACT: note_on channel=3 note=72 velocity=107 time=0.11088710416666667
EXTRACT: note_on channel=4 note=60 velocity=107 time=0
EXTRACT: note_on channel=9 note=42 velocity=61 time=0
EXTRACT: note_on channel=9 note=61 velocity=62 time=0
EXTRACT: note_on channel=9 note=61 velocity=0 time=0.010080645833333334
EXTRACT: note_on channel=9 note=42 velocity=0 time=0
EXTRACT: note_on channel=3 note=72 velocity=0 time=0.06552419791666667
EXTRACT: note_on channel=4 note=60 velocity=0 time=0
EXTRACT: note_on channel=9 note=42 velocity=53 time=0.04536290625
EXTRACT: note_on channel=9 note=61 velocity=56 time=0
EXTRACT: note_on channel=9 note=66 velocity=50 time=0
EXTRACT: note_on channel=9 note=82 velocity=42 time=0
EXTRACT: note_on channel=9 note=82 velocity=0 time=0.010080645833333334
EXTRACT: note_on channel=9 note=61 velocity=0 time=0
EXTRACT: note_on channel=9 note=42 velocity=0 time=0
EXTRACT: note_on channel=9 note=66 velocity=0 time=0
EXTRACT: note_on channel=1 note=37 velocity=99 time=0.11088710416666667
EXTRACT: note_on channel=2 note=49 velocity=113 time=0
EXTRACT: note_on channel=9 note=42 velocity=40 time=0
EXTRACT: note_on channel=9 note=61 velocity=76 time=0
EXTRACT: note_on channel=13 note=49 velocity=101 time=0
EXTRACT: note_on channel=13 note=44 velocity=0 time=0.005040322916666667
EXTRACT: note_on channel=1 note=32 velocity=0 time=0
EXTRACT: note_on channel=2 note=44 velocity=0 time=0
EXTRACT: note_on channel=9 note=35 velocity=98 time=0.0025201614583333335
EXTRACT: note_on channel=9 note=42 velocity=0 time=0.0025201614583333335
EXTRACT: note_on channel=9 note=61 velocity=0 time=0
EXTRACT: note_on channel=9 note=35 velocity=0 time=0.007560484375000001
EXTRACT: note_on channel=3 note=75 velocity=113 time=0.10332661979166667
EXTRACT: note_on channel=4 note=63 velocity=113 time=0
EXTRACT: note_on channel=9 note=42 velocity=109 time=0
EXTRACT: note_on channel=9 note=42 velocity=0 time=0.010080645833333334
EXTRACT: note_on channel=3 note=75 velocity=0 time=0.09576613541666668
EXTRACT: note_on channel=4 note=63 velocity=0 time=0
EXTRACT: note_on channel=9 note=42 velocity=68 time=0.015120968750000002
EXTRACT: note_on channel=9 note=61 velocity=60 time=0
EXTRACT: note_on channel=9 note=35 velocity=98 time=0.0025201614583333335
EXTRACT: note_on channel=9 note=61 velocity=0 time=0.007560484375000001
EXTRACT: note_on channel=9 note=42 velocity=0 time=0
EXTRACT: note_on channel=9 note=35 velocity=0 time=0.0025201614583333335
EXTRACT: note_on channel=2 note=49 velocity=0 time=0.098286296875
EXTRACT: note_on channel=1 note=37 velocity=0 time=0
EXTRACT: note_on channel=13 note=49 velocity=0 time=0
EXTRACT: note_on channel=1 note=36 velocity=88 time=0.007560484375000001
EXTRACT: note_on channel=2 note=48 velocity=102 time=0
EXTRACT: note_on channel=13 note=48 velocity=90 time=0
EXTRACT: note_on channel=9 note=42 velocity=51 time=0.0025201614583333335
EXTRACT: note_on channel=9 note=61 velocity=56 time=0
EXTRACT: note_on channel=9 note=66 velocity=70 time=0
EXTRACT: note_on channel=9 note=82 velocity=51 time=0
EXTRACT: note_on channel=9 note=35 velocity=77 time=0.0025201614583333335
EXTRACT: note_on channel=9 note=82 velocity=0 time=0.007560484375000001
EXTRACT: note_on channel=9 note=42 velocity=0 time=0
EXTRACT: note_on channel=9 note=61 velocity=0 time=0
EXTRACT: note_on channel=9 note=66 velocity=0 time=0
EXTRACT: note_on channel=9 note=35 velocity=0 time=0.0025201614583333335
EXTRACT: note_on channel=3 note=70 velocity=98 time=0.10836694270833334
EXTRACT: note_on channel=4 note=58 velocity=98 time=0
EXTRACT: note_on channel=9 note=42 velocity=40 time=0
EXTRACT: note_on channel=9 note=42 velocity=0 time=0.010080645833333334
EXTRACT: note_on channel=3 note=70 velocity=0 time=0.08820565104166667
EXTRACT: note_on channel=4 note=58 velocity=0 time=0
EXTRACT: note_on channel=9 note=40 velocity=118 time=0.017641130208333335
EXTRACT: note_on channel=9 note=42 velocity=109 time=0.005040322916666667
EXTRACT: note_on channel=9 note=61 velocity=72 time=0
EXTRACT: note_on channel=9 note=40 velocity=0 time=0.005040322916666667
EXTRACT: note_on channel=9 note=42 velocity=0 time=0.005040322916666667
EXTRACT: note_on channel=9 note=61 velocity=0 time=0
EXTRACT: note_on channel=2 note=48 velocity=0 time=0.0025201614583333335
EXTRACT: note_on channel=13 note=48 velocity=0 time=0
EXTRACT: note_on channel=1 note=36 velocity=0 time=0
EXTRACT: note_on channel=1 note=32 velocity=93 time=0.007560484375000001
EXTRACT: note_on channel=2 note=44 velocity=107 time=0
EXTRACT: note_on channel=13 note=44 velocity=95 time=0
EXTRACT: note_on channel=9 note=42 velocity=62 time=0.10080645833333333
EXTRACT: note_on channel=9 note=61 velocity=60 time=0
EXTRACT: note_on channel=9 note=61 velocity=0 time=0.010080645833333334
EXTRACT: note_on channel=9 note=42 velocity=0 time=0
EXTRACT: note_on channel=9 note=35 velocity=107 time=0.10584678125000001
EXTRACT: note_on channel=1 note=32 velocity=0 time=0.0025201614583333335
EXTRACT: note_on channel=13 note=44 velocity=0 time=0
EXTRACT: note_on channel=2 note=44 velocity=0 time=0
EXTRACT: note_on channel=9 note=42 velocity=44 time=0.0025201614583333335
EXTRACT: note_on channel=9 note=66 velocity=53 time=0
EXTRACT: note_on channel=9 note=82 velocity=46 time=0
EXTRACT: note_on channel=9 note=35 velocity=0 time=0.005040322916666667
EXTRACT: note_on channel=1 note=24 velocity=83 time=0
EXTRACT: note_on channel=2 note=36 velocity=97 time=0
EXTRACT: note_on channel=13 note=36 velocity=85 time=0
EXTRACT: note_on channel=9 note=42 velocity=0 time=0.005040322916666667
EXTRACT: note_on channel=9 note=82 velocity=0 time=0
EXTRACT: note_on channel=9 note=66 velocity=0 time=0
EXTRACT: note_on channel=9 note=40 velocity=95 time=0.098286296875
EXTRACT: note_on channel=9 note=40 velocity=0 time=0.010080645833333334
EXTRACT: note_on channel=9 note=30 velocity=93 time=0
EXTRACT: note_on channel=9 note=42 velocity=38 time=0.0025201614583333335
EXTRACT: note_on channel=9 note=61 velocity=68 time=0
EXTRACT: note_on channel=9 note=30 velocity=0 time=0.007560484375000001
EXTRACT: note_on channel=9 note=42 velocity=0 time=0.0025201614583333335
EXTRACT: note_on channel=9 note=61 velocity=0 time=0
EXTRACT: note_on channel=9 note=40 velocity=64 time=0.020161291666666668
EXTRACT: note_on channel=9 note=40 velocity=0 time=0.010080645833333334
EXTRACT: note_on channel=9 note=40 velocity=42 time=0.020161291666666668
EXTRACT: note_on channel=9 note=40 velocity=0 time=0.010080645833333334
EXTRACT: note_on channel=9 note=40 velocity=30 time=0.015120968750000002
EXTRACT: note_on channel=9 note=40 velocity=0 time=0.010080645833333334
EXTRACT: note_on channel=1 note=28 velocity=88 time=0.022681453125
EXTRACT: note_on channel=2 note=40 velocity=102 time=0
EXTRACT: note_on channel=9 note=35 velocity=107 time=0
EXTRACT: note_on channel=13 note=40 velocity=90 time=0
EXTRACT: note_on channel=3 note=73 velocity=113 time=0.0025201614583333335
EXTRACT: note_on channel=4 note=61 velocity=113 time=0
EXTRACT: note_on channel=9 note=42 velocity=105 time=0
EXTRACT: note_on channel=9 note=35 velocity=0 time=0.007560484375000001
EXTRACT: note_on channel=9 note=42 velocity=0 time=0.0025201614583333335
EXTRACT: note_on channel=1 note=24 velocity=0 time=0.012600807291666667
EXTRACT: note_on channel=2 note=36 velocity=0 time=0
EXTRACT: note_on channel=13 note=36 velocity=0 time=0
EXTRACT: note_on channel=3 note=73 velocity=0 time=0.037802421875
EXTRACT: note_on channel=4 note=61 velocity=0 time=0
EXTRACT: note_on channel=9 note=42 velocity=62 time=0.060483875000000006
EXTRACT: note_on channel=9 note=61 velocity=62 time=0
EXTRACT: note_on channel=9 note=61 velocity=0 time=0.010080645833333334
EXTRACT: note_on channel=9 note=42 velocity=0 time=0
EXTRACT: note_on channel=3 note=73 velocity=93 time=0.11088710416666667
EXTRACT: note_on channel=4 note=61 velocity=93 time=0
EXTRACT: note_on channel=9 note=42 velocity=52 time=0
EXTRACT: note_on channel=9 note=61 velocity=76 time=0
EXTRACT: note_on channel=9 note=66 velocity=79 time=0
EXTRACT: note_on channel=9 note=82 velocity=51 time=0
EXTRACT: note_on channel=9 note=82 velocity=0 time=0.010080645833333334
EXTRACT: note_on channel=9 note=66 velocity=0 time=0
EXTRACT: note_on channel=9 note=61 velocity=0 time=0
EXTRACT: note_on channel=9 note=42 velocity=0 time=0
EXTRACT: note_on channel=3 note=73 velocity=0 time=0.022681453125
EXTRACT: note_on channel=4 note=61 velocity=0 time=0
EXTRACT: note_on channel=3 note=73 velocity=107 time=0.08820565104166667
EXTRACT: note_on channel=4 note=61 velocity=107 time=0
EXTRACT: note_on channel=9 note=42 velocity=37 time=0
EXTRACT: note_on channel=9 note=35 velocity=98 time=0.0025201614583333335
EXTRACT: note_on channel=9 note=42 velocity=0 time=0.007560484375000001
EXTRACT: note_on channel=9 note=35 velocity=0 time=0.0025201614583333335
EXTRACT: note_on channel=3 note=73 velocity=0 time=0.07560484375
EXTRACT: note_on channel=4 note=61 velocity=0 time=0
EXTRACT: note_on channel=9 note=40 velocity=118 time=0.027721776041666667
EXTRACT: note_on channel=9 note=42 velocity=103 time=0.005040322916666667
EXTRACT: note_on channel=9 note=61 velocity=76 time=0
EXTRACT: note_on channel=1 note=31 velocity=88 time=0.0025201614583333335
EXTRACT: note_on channel=2 note=43 velocity=102 time=0
EXTRACT: note_on channel=13 note=43 velocity=90 time=0
EXTRACT: note_on channel=9 note=40 velocity=0 time=0.0025201614583333335
EXTRACT: note_on channel=13 note=40 velocity=0 time=0.0025201614583333335
EXTRACT: note_on channel=2 note=40 velocity=0 time=0
EXTRACT: note_on channel=1 note=28 velocity=0 time=0
EXTRACT: note_on channel=9 note=42 velocity=0 time=0.0025201614583333335
EXTRACT: note_on channel=9 note=61 velocity=0 time=0
EXTRACT: note_on channel=3 note=75 velocity=107 time=0.11088710416666667
EXTRACT: note_on channel=4 note=63 velocity=107 time=0
EXTRACT: note_on channel=9 note=42 velocity=61 time=0
EXTRACT: note_on channel=9 note=61 velocity=72 time=0
EXTRACT: note_on channel=9 note=61 velocity=0 time=0.010080645833333334
EXTRACT: note_on channel=9 note=42 velocity=0 time=0
EXTRACT: note_on channel=3 note=75 velocity=0 time=0.08820565104166667
EXTRACT: note_on channel=4 note=63 velocity=0 time=0
EXTRACT: note_on channel=3 note=72 velocity=97 time=0
EXTRACT: note_on channel=4 note=60 velocity=97 time=0
EXTRACT: note_on channel=9 note=42 velocity=53 time=0.022681453125
EXTRACT: note_on channel=9 note=61 velocity=51 time=0
EXTRACT: note_on channel=9 note=66 velocity=46 time=0
EXTRACT: note_on channel=9 note=82 velocity=46 time=0
EXTRACT: note_on channel=9 note=82 velocity=0 time=0.010080645833333334
EXTRACT: note_on channel=9 note=66 velocity=0 time=0
EXTRACT: note_on channel=9 note=61 velocity=0 time=0
EXTRACT: note_on channel=9 note=42 velocity=0 time=0
EXTRACT: note_on channel=1 note=37 velocity=92 time=0.098286296875
EXTRACT: note_on channel=2 note=49 velocity=106 time=0
EXTRACT: note_on channel=13 note=49 velocity=94 time=0
EXTRACT: note_on channel=13 note=43 velocity=0 time=0.012600807291666667
EXTRACT: note_on channel=2 note=43 velocity=0 time=0
EXTRACT: note_on channel=1 note=31 velocity=0 time=0
EXTRACT: note_on channel=9 note=42 velocity=40 time=0
EXTRACT: note_on channel=9 note=61 velocity=72 time=0
EXTRACT: note_on channel=9 note=35 velocity=103 time=0.005040322916666667
EXTRACT: note_on channel=9 note=61 velocity=0 time=0.005040322916666667
EXTRACT: note_on channel=9 note=42 velocity=0 time=0
EXTRACT: note_on channel=9 note=35 velocity=0 time=0.005040322916666667
EXTRACT: note_on channel=9 note=40 velocity=37 time=0.10584678125000001
EXTRACT: note_on channel=9 note=42 velocity=109 time=0
EXTRACT: note_on channel=9 note=42 velocity=0 time=0.010080645833333334
EXTRACT: note_on channel=9 note=40 velocity=0 time=0
EXTRACT: note_on channel=9 note=40 velocity=40 time=0.05040322916666667
EXTRACT: note_on channel=9 note=40 velocity=0 time=0.010080645833333334
EXTRACT: control_change channel=3 control=1 value=10 time=0.0025201614583333335
EXTRACT: note_on channel=9 note=40 velocity=44 time=0.04788306770833334
EXTRACT: note_on channel=9 note=42 velocity=68 time=0
EXTRACT: note_on channel=9 note=61 velocity=62 time=0
EXTRACT: note_on channel=9 note=35 velocity=98 time=0.0025201614583333335
EXTRACT: note_on channel=9 note=61 velocity=0 time=0.007560484375000001
EXTRACT: note_on channel=9 note=42 velocity=0 time=0
EXTRACT: note_on channel=9 note=40 velocity=0 time=0
EXTRACT: note_on channel=9 note=35 velocity=0 time=0.0025201614583333335
EXTRACT: control_change channel=3 control=1 value=21 time=0.04788306770833334
EXTRACT: note_on channel=9 note=40 velocity=47 time=0
EXTRACT: note_on channel=9 note=40 velocity=0 time=0.010080645833333334
EXTRACT: control_change channel=3 control=1 value=31 time=0.04284274479166667
EXTRACT: note_on channel=2 note=49 velocity=0 time=0.007560484375000001
EXTRACT: note_on channel=13 note=49 velocity=0 time=0
EXTRACT: note_on channel=1 note=37 velocity=0 time=0
EXTRACT: note_on channel=9 note=40 velocity=51 time=0
EXTRACT: note_on channel=9 note=42 velocity=51 time=0
EXTRACT: note_on channel=9 note=61 velocity=52 time=0
EXTRACT: note_on channel=9 note=66 velocity=70 time=0
EXTRACT: note_on channel=9 note=82 velocity=46 time=0
EXTRACT: note_on channel=1 note=36 velocity=99 time=0.0025201614583333335
EXTRACT: note_on channel=2 note=48 velocity=113 time=0
EXTRACT: note_on channel=9 note=35 velocity=94 time=0
EXTRACT: note_on channel=13 note=48 velocity=101 time=0
EXTRACT: note_on channel=9 note=82 velocity=0 time=0.007560484375000001
EXTRACT: note_on channel=9 note=42 velocity=0 time=0
EXTRACT: note_on channel=9 note=40 velocity=0 time=0
EXTRACT: note_on channel=9 note=66 velocity=0 time=0
EXTRACT: note_on channel=9 note=61 velocity=0 time=0
EXTRACT: note_on channel=9 note=35 velocity=0 time=0.0025201614583333335
EXTRACT: note_on channel=9 note=40 velocity=54 time=0.04788306770833334
EXTRACT: control_change channel=3 control=1 value=46 time=0.0025201614583333335
EXTRACT: note_on channel=9 note=40 velocity=0 time=0.007560484375000001
EXTRACT: note_on channel=9 note=40 velocity=58 time=0.05040322916666667
EXTRACT: note_on channel=9 note=42 velocity=40 time=0
EXTRACT: note_on channel=9 note=61 velocity=55 time=0
EXTRACT: note_on channel=9 note=61 velocity=0 time=0.010080645833333334
EXTRACT: note_on channel=9 note=42 velocity=0 time=0
EXTRACT: note_on channel=9 note=40 velocity=0 time=0
EXTRACT: control_change channel=3 control=1 value=59 time=0.005040322916666667
EXTRACT: note_on channel=9 note=40 velocity=62 time=0.04536290625
EXTRACT: control_change channel=3 control=1 value=78 time=0.007560484375000001
EXTRACT: note_on channel=9 note=40 velocity=0 time=0.0025201614583333335
EXTRACT: note_on channel=3 note=72 velocity=0 time=0.05040322916666667
EXTRACT: note_on channel=4 note=60 velocity=0 time=0
EXTRACT: note_on channel=9 note=40 velocity=65 time=0
EXTRACT: note_on channel=9 note=42 velocity=109 time=0
EXTRACT: note_on channel=9 note=61 velocity=68 time=0
EXTRACT: note_on channel=1 note=36 velocity=0 time=0.0025201614583333335
EXTRACT: note_on channel=2 note=48 velocity=0 time=0
EXTRACT: note_on channel=13 note=48 velocity=0 time=0
EXTRACT: note_on channel=1 note=31 velocity=93 time=0.0025201614583333335
EXTRACT: note_on channel=2 note=43 velocity=107 time=0
EXTRACT: note_on channel=13 note=43 velocity=95 time=0
EXTRACT: note_on channel=9 note=40 velocity=0 time=0.005040322916666667
EXTRACT: note_on channel=9 note=61 velocity=0 time=0
EXTRACT: note_on channel=9 note=42 velocity=0 time=0
EXTRACT: note_on channel=9 note=40 velocity=47 time=0.05040322916666667
EXTRACT: note_on channel=9 note=40 velocity=0 time=0.010080645833333334
EXTRACT: control_change channel=3 control=1 value=0 time=0
EXTRACT: note_on channel=9 note=40 velocity=53 time=0.05040322916666667
EXTRACT: note_on channel=9 note=42 velocity=62 time=0
EXTRACT: note_on channel=9 note=61 velocity=62 time=0
EXTRACT: note_on channel=9 note=61 velocity=0 time=0.010080645833333334
EXTRACT: note_on channel=9 note=40 velocity=0 time=0
EXTRACT: note_on channel=9 note=42 velocity=0 time=0
EXTRACT: note_on channel=9 note=40 velocity=59 time=0.05040322916666667
EXTRACT: note_on channel=9 note=40 velocity=0 time=0.010080645833333334
EXTRACT: note_on channel=2 note=43 velocity=0 time=0.022681453125
EXTRACT: note_on channel=13 note=43 velocity=0 time=0
EXTRACT: note_on channel=1 note=31 velocity=0 time=0
EXTRACT: note_on channel=1 note=28 velocity=88 time=0.022681453125
EXTRACT: note_on channel=2 note=40 velocity=102 time=0
EXTRACT: note_on channel=9 note=35 velocity=103 time=0
EXTRACT: note_on channel=13 note=40 velocity=90 time=0
EXTRACT: note_on channel=9 note=40 velocity=64 time=0.005040322916666667
EXTRACT: note_on channel=9 note=42 velocity=44 time=0
EXTRACT: note_on channel=9 note=66 velocity=47 time=0
EXTRACT: note_on channel=9 note=82 velocity=44 time=0
EXTRACT: note_on channel=9 note=35 velocity=0 time=0.005040322916666667
EXTRACT: note_on channel=9 note=82 velocity=0 time=0.005040322916666667
EXTRACT: note_on channel=9 note=42 velocity=0 time=0
EXTRACT: note_on channel=9 note=40 velocity=0 time=0
EXTRACT: note_on channel=9 note=66 velocity=0 time=0
EXTRACT: note_on channel=9 note=40 velocity=70 time=0.05040322916666667
EXTRACT: note_on channel=9 note=40 velocity=0 time=0.010080645833333334
EXTRACT: note_on channel=9 note=30 velocity=99 time=0.04788306770833334
EXTRACT: note_on channel=9 note=40 velocity=75 time=0.0025201614583333335
EXTRACT: note_on channel=9 note=42 velocity=38 time=0
EXTRACT: note_on channel=9 note=30 velocity=0 time=0.007560484375000001
EXTRACT: note_on channel=9 note=40 velocity=0 time=0.0025201614583333335
EXTRACT: note_on channel=9 note=42 velocity=0 time=0
EXTRACT: note_on channel=9 note=40 velocity=81 time=0.05040322916666667
EXTRACT: note_on channel=9 note=40 velocity=0 time=0.010080645833333334
EXTRACT: note_on channel=13 note=40 velocity=0 time=0.04788306770833334
EXTRACT: note_on channel=2 note=40 velocity=0 time=0
EXTRACT: note_on channel=1 note=28 velocity=0 time=0
EXTRACT: note_on channel=1 note=29 velocity=107 time=0.0025201614583333335
EXTRACT: note_on channel=2 note=41 velocity=113 time=0
EXTRACT: note_on channel=9 note=57 velocity=70 time=0
EXTRACT: note_on channel=9 note=82 velocity=66 time=0
EXTRACT: note_on channel=9 note=86 velocity=107 time=0
EXTRACT: note_on channel=13 note=41 velocity=101 time=0
EXTRACT: note_on channel=9 note=35 velocity=113 time=0.005040322916666667
EXTRACT: note_on channel=12 note=23 velocity=113 time=0
EXTRACT: note_on channel=9 note=86 velocity=0 time=0.005040322916666667
EXTRACT: note_on channel=9 note=82 velocity=0 time=0
EXTRACT: note_on channel=9 note=57 velocity=0 time=0
EXTRACT: note_on channel=9 note=35 velocity=0 time=0.005040322916666667
EXTRACT: note_on channel=3 note=69 velocity=102 time=0.015120968750000002
EXTRACT: note_on channel=12 note=23 velocity=0 time=0.007560484375000001
EXTRACT: note_on channel=3 note=69 velocity=0 time=0.025201614583333334
EXTRACT: note_on channel=9 note=86 velocity=93 time=0.05544355208333333
EXTRACT: note_on channel=9 note=61 velocity=62 time=0.0025201614583333335
EXTRACT: note_on channel=9 note=82 velocity=62 time=0
EXTRACT: note_on channel=9 note=86 velocity=0 time=0.007560484375000001
EXTRACT: note_on channel=9 note=61 velocity=0 time=0.0025201614583333335
EXTRACT: note_on channel=9 note=82 velocity=0 time=0
EXTRACT: note_on channel=3 note=69 velocity=79 time=0.015120968750000002
EXTRACT: note_on channel=3 note=69 velocity=0 time=0.03276209895833333
EXTRACT: note_on channel=9 note=46 velocity=60 time=0.06300403645833334
EXTRACT: note_on channel=9 note=61 velocity=60 time=0
EXTRACT: note_on channel=9 note=82 velocity=51 time=0
EXTRACT: note_on channel=9 note=82 velocity=0 time=0.010080645833333334
EXTRACT: note_on channel=9 note=46 velocity=0 time=0
EXTRACT: note_on channel=9 note=61 velocity=0 time=0
EXTRACT: note_on channel=3 note=69 velocity=98 time=0.0025201614583333335
EXTRACT: note_on channel=3 note=69 velocity=0 time=0.03276209895833333
EXTRACT: note_on channel=9 note=86 velocity=113 time=0.06300403645833334
EXTRACT: note_on channel=9 note=86 velocity=0 time=0.010080645833333334
EXTRACT: note_on channel=9 note=82 velocity=54 time=0.0025201614583333335
EXTRACT: note_on channel=9 note=82 velocity=0 time=0.010080645833333334
EXTRACT: note_on channel=3 note=69 velocity=78 time=0.007560484375000001
EXTRACT: note_on channel=3 note=69 velocity=0 time=0.03276209895833333
EXTRACT: note_on channel=1 note=29 velocity=0 time=0.05796371354166667
EXTRACT: note_on channel=2 note=41 velocity=0 time=0
EXTRACT: note_on channel=13 note=41 velocity=0 time=0
EXTRACT: note_on channel=1 note=32 velocity=101 time=0.010080645833333334
EXTRACT: note_on channel=2 note=44 velocity=107 time=0
EXTRACT: note_on channel=13 note=44 velocity=95 time=0
EXTRACT: note_on channel=3 note=69 velocity=107 time=0.0025201614583333335
EXTRACT: note_on channel=9 note=61 velocity=85 time=0
EXTRACT: note_on channel=9 note=82 velocity=66 time=0
EXTRACT: note_on channel=9 note=40 velocity=120 time=0.007560484375000001
EXTRACT: note_on channel=9 note=82 velocity=0 time=0.0025201614583333335
EXTRACT: note_on channel=9 note=61 velocity=0 time=0
EXTRACT: note_on channel=9 note=40 velocity=0 time=0.007560484375000001
EXTRACT: note_on channel=9 note=61 velocity=68 time=0.10332661979166667
EXTRACT: note_on channel=9 note=82 velocity=62 time=0
EXTRACT: note_on channel=9 note=82 velocity=0 time=0.010080645833333334
EXTRACT: note_on channel=9 note=61 velocity=0 time=0
EXTRACT: pitchwheel channel=3 pitch=-304 time=0.037802421875
EXTRACT: pitchwheel channel=3 pitch=-759 time=0.07056452083333334
EXTRACT: note_on channel=9 note=42 velocity=56 time=0.0025201614583333335
EXTRACT: note_on channel=9 note=61 velocity=49 time=0
EXTRACT: note_on channel=9 note=82 velocity=51 time=0
EXTRACT: note_on channel=9 note=35 velocity=89 time=0.007560484375000001
EXTRACT: note_on channel=12 note=23 velocity=89 time=0
EXTRACT: note_on channel=9 note=82 velocity=0 time=0.0025201614583333335
EXTRACT: note_on channel=9 note=61 velocity=0 time=0
EXTRACT: note_on channel=9 note=42 velocity=0 time=0
EXTRACT: note_on channel=9 note=86 velocity=102 time=0
EXTRACT: note_on channel=9 note=35 velocity=0 time=0.007560484375000001
EXTRACT: note_on channel=9 note=86 velocity=0 time=0.0025201614583333335
EXTRACT: note_on channel=12 note=23 velocity=0 time=0.020161291666666668
EXTRACT: pitchwheel channel=3 pitch=-1290 time=0.04788306770833334
EXTRACT: note_on channel=1 note=37 velocity=107 time=0.03276209895833333
EXTRACT: note_on channel=2 note=49 velocity=113 time=0
EXTRACT: note_on channel=9 note=61 velocity=72 time=0
EXTRACT: note_on channel=9 note=82 velocity=66 time=0
EXTRACT: note_on channel=13 note=49 velocity=101 time=0
EXTRACT: note_on channel=8 note=84 velocity=93 time=0.0025201614583333335
EXTRACT: note_on channel=1 note=32 velocity=0 time=0.0025201614583333335
EXTRACT: note_on channel=13 note=44 velocity=0 time=0
EXTRACT: note_on channel=2 note=44 velocity=0 time=0
EXTRACT: note_on channel=8 note=91 velocity=85 time=0
EXTRACT: note_on channel=9 note=35 velocity=85 time=0
EXTRACT: note_on channel=9 note=86 velocity=93 time=0
EXTRACT: note_on channel=12 note=23 velocity=85 time=0
EXTRACT: note_on channel=9 note=82 velocity=0 time=0.005040322916666667
EXTRACT: note_on channel=9 note=61 velocity=0 time=0
EXTRACT: note_on channel=9 note=86 velocity=0 time=0.005040322916666667
EXTRACT: note_on channel=9 note=35 velocity=0 time=0
EXTRACT: note_on channel=12 note=23 velocity=0 time=0.022681453125
EXTRACT: pitchwheel channel=3 pitch=-1897 time=0.0025201614583333335
EXTRACT: note_on channel=8 note=84 velocity=0 time=0.025201614583333334
EXTRACT: note_on channel=8 note=91 velocity=0 time=0.007560484375000001
EXTRACT: pitchwheel channel=3 pitch=-2352 time=0.020161291666666668
EXTRACT: note_on channel=9 note=82 velocity=56 time=0.027721776041666667
EXTRACT: note_on channel=9 note=86 velocity=107 time=0.0025201614583333335
EXTRACT: note_on channel=9 note=82 velocity=0 time=0.007560484375000001
EXTRACT: note_on channel=9 note=86 velocity=0 time=0.0025201614583333335
EXTRACT: pitchwheel channel=3 pitch=-2883 time=0.030241937500000003
EXTRACT: pitchwheel channel=3 pitch=-3414 time=0.07308468229166667
EXTRACT: note_on channel=9 note=61 velocity=62 time=0.005040322916666667
EXTRACT: note_on channel=9 note=82 velocity=66 time=0
EXTRACT: note_on channel=8 note=84 velocity=102 time=0.0025201614583333335
EXTRACT: note_on channel=8 note=91 velocity=89 time=0
EXTRACT: note_on channel=9 note=35 velocity=85 time=0.0025201614583333335
EXTRACT: note_on channel=9 note=86 velocity=102 time=0
EXTRACT: note_on channel=12 note=23 velocity=85 time=0
EXTRACT: note_on channel=9 note=82 velocity=0 time=0.005040322916666667
EXTRACT: note_on channel=9 note=61 velocity=0 time=0
EXTRACT: note_on channel=9 note=86 velocity=0 time=0.005040322916666667
EXTRACT: note_on channel=9 note=35 velocity=0 time=0
EXTRACT: note_on channel=12 note=23 velocity=0 time=0.022681453125
EXTRACT: pitchwheel channel=3 pitch=-4021 time=0.010080645833333334
EXTRACT: note_on channel=8 note=84 velocity=0 time=0.012600807291666667
EXTRACT: note_on channel=8 note=91 velocity=0 time=0.015120968750000002
EXTRACT: pitchwheel channel=3 pitch=-4552 time=0.027721776041666667
EXTRACT: note_on channel=2 note=49 velocity=0 time=0.007560484375000001
EXTRACT: note_on channel=13 note=49 velocity=0 time=0
EXTRACT: note_on channel=1 note=37 velocity=0 time=0
EXTRACT: note_on channel=1 note=36 velocity=96 time=0.007560484375000001
EXTRACT: note_on channel=2 note=48 velocity=102 time=0
EXTRACT: note_on channel=13 note=48 velocity=90 time=0
EXTRACT: note_on channel=9 note=46 velocity=60 time=0.0025201614583333335
EXTRACT: note_on channel=9 note=61 velocity=85 time=0
EXTRACT: note_on channel=9 note=82 velocity=46 time=0
EXTRACT: note_on channel=9 note=35 velocity=85 time=0.005040322916666667
EXTRACT: note_on channel=12 note=23 velocity=85 time=0
EXTRACT: note_on channel=9 note=82 velocity=0 time=0.005040322916666667
EXTRACT: note_on channel=9 note=61 velocity=0 time=0
EXTRACT: note_on channel=9 note=46 velocity=0 time=0
EXTRACT: note_on channel=9 note=35 velocity=0 time=0.005040322916666667
EXTRACT: pitchwheel channel=3 pitch=-5234 time=0.020161291666666668
EXTRACT: note_on channel=12 note=23 velocity=0 time=0.0025201614583333335
EXTRACT: pitchwheel channel=3 pitch=-5917 time=0.068044359375
EXTRACT: note_on channel=9 note=86 velocity=107 time=0.007560484375000001
EXTRACT: note_on channel=8 note=91 velocity=89 time=0.007560484375000001
EXTRACT: note_on channel=9 note=82 velocity=58 time=0
EXTRACT: note_on channel=9 note=86 velocity=0 time=0.0025201614583333335
EXTRACT: note_on channel=8 note=84 velocity=98 time=0
EXTRACT: note_on channel=9 note=82 velocity=0 time=0.007560484375000001
EXTRACT: pitchwheel channel=3 pitch=-6448 time=0.010080645833333334
EXTRACT: note_on channel=8 note=84 velocity=0 time=0.027721776041666667
EXTRACT: note_on channel=8 note=91 velocity=0 time=0.005040322916666667
EXTRACT: pitchwheel channel=3 pitch=-6979 time=0.005040322916666667
EXTRACT: pitchwheel channel=3 pitch=-7510 time=0.03528226041666667
EXTRACT: note_on channel=9 note=40 velocity=120 time=0.027721776041666667
EXTRACT: note_on channel=9 note=61 velocity=72 time=0
EXTRACT: note_on channel=9 note=82 velocity=58 time=0
EXTRACT: note_on channel=8 note=91 velocity=93 time=0.0025201614583333335
EXTRACT: note_on channel=8 note=84 velocity=93 time=0.0025201614583333335
EXTRACT: note_on channel=9 note=82 velocity=0 time=0.005040322916666667
EXTRACT: note_on channel=9 note=61 velocity=0 time=0
EXTRACT: note_on channel=9 note=40 velocity=0 time=0
EXTRACT: note_on channel=13 note=48 velocity=0 time=0.0025201614583333335
EXTRACT: note_on channel=2 note=48 velocity=0 time=0
EXTRACT: note_on channel=1 note=36 velocity=0 time=0
EXTRACT: note_on channel=1 note=32 velocity=101 time=0.007560484375000001
EXTRACT: note_on channel=2 note=44 velocity=107 time=0
EXTRACT: note_on channel=13 note=44 velocity=95 time=0
EXTRACT: pitchwheel channel=3 pitch=-8117 time=0.005040322916666667
EXTRACT: note_on channel=3 note=69 velocity=0 time=0.07812500520833333
EXTRACT: note_on channel=9 note=61 velocity=60 time=0.017641130208333335
EXTRACT: note_on channel=9 note=82 velocity=58 time=0
EXTRACT: note_on channel=9 note=82 velocity=0 time=0.010080645833333334
EXTRACT: note_on channel=9 note=61 velocity=0 time=0
EXTRACT: pitchwheel channel=3 pitch=0 time=0.09324597395833334
EXTRACT: note_on channel=13 note=44 velocity=0 time=0.015120968750000002
EXTRACT: note_on channel=1 note=32 velocity=0 time=0
EXTRACT: note_on channel=2 note=44 velocity=0 time=0
EXTRACT: note_on channel=9 note=42 velocity=56 time=0.0025201614583333335
EXTRACT: note_on channel=9 note=82 velocity=50 time=0
EXTRACT: note_on channel=1 note=24 velocity=91 time=0.005040322916666667
EXTRACT: note_on channel=2 note=36 velocity=97 time=0
EXTRACT: note_on channel=9 note=35 velocity=89 time=0
EXTRACT: note_on channel=12 note=23 velocity=89 time=0
EXTRACT: note_on channel=13 note=36 velocity=85 time=0
EXTRACT: note_on channel=9 note=82 velocity=0 time=0.005040322916666667
EXTRACT: note_on channel=9 note=42 velocity=0 time=0
EXTRACT: note_on channel=9 note=86 velocity=102 time=0.0025201614583333335
EXTRACT: note_on channel=9 note=35 velocity=0 time=0.0025201614583333335
EXTRACT: note_on channel=9 note=86 velocity=0 time=0.007560484375000001
EXTRACT: note_on channel=12 note=23 velocity=0 time=0.015120968750000002
EXTRACT: note_on channel=9 note=61 velocity=68 time=0.08316532812500001
EXTRACT: note_on channel=9 note=82 velocity=54 time=0
EXTRACT: note_on channel=9 note=82 velocity=0 time=0.010080645833333334
EXTRACT: note_on channel=9 note=61 velocity=0 time=0
EXTRACT: note_on channel=9 note=86 velocity=89 time=0.005040322916666667
EXTRACT: note_on channel=9 note=86 velocity=0 time=0.010080645833333334
EXTRACT: note_on channel=1 note=28 velocity=96 time=0.09324597395833334
EXTRACT: note_on channel=2 note=40 velocity=102 time=0
EXTRACT: note_on channel=13 note=40 velocity=90 time=0
EXTRACT: note_on channel=9 note=82 velocity=66 time=0.0025201614583333335
EXTRACT: note_on channel=9 note=35 velocity=102 time=0.005040322916666667
EXTRACT: note_on channel=12 note=23 velocity=102 time=0
EXTRACT: note_on channel=9 note=86 velocity=102 time=0.0025201614583333335
EXTRACT: note_on channel=9 note=82 velocity=0 time=0.0025201614583333335
EXTRACT: note_on channel=3 note=69 velocity=114 time=0
EXTRACT: note_on channel=9 note=35 velocity=0 time=0.005040322916666667
EXTRACT: note_on channel=9 note=86 velocity=0 time=0.0025201614583333335
EXTRACT: note_on channel=1 note=24 velocity=0 time=0.005040322916666667
EXTRACT: note_on channel=13 note=36 velocity=0 time=0
EXTRACT: note_on channel=2 note=36 velocity=0 time=0
EXTRACT: note_on channel=12 note=23 velocity=0 time=0.015120968750000002
EXTRACT: note_on channel=3 note=69 velocity=0 time=0.005040322916666667
EXTRACT: note_on channel=9 note=61 velocity=60 time=0.07812500520833333
EXTRACT: note_on channel=9 note=82 velocity=79 time=0
EXTRACT: note_on channel=9 note=82 velocity=0 time=0.010080645833333334
EXTRACT: note_on channel=9 note=61 velocity=0 time=0
EXTRACT: note_on channel=9 note=86 velocity=107 time=0
EXTRACT: note_on channel=3 note=69 velocity=94 time=0.005040322916666667
EXTRACT: note_on channel=9 note=86 velocity=0 time=0.005040322916666667
EXTRACT: note_on channel=3 note=69 velocity=0 time=0.027721776041666667
EXTRACT: note_on channel=9 note=46 velocity=60 time=0.07308468229166667
EXTRACT: note_on channel=9 note=61 velocity=72 time=0
EXTRACT: note_on channel=9 note=82 velocity=50 time=0
EXTRACT: note_on channel=9 note=82 velocity=0 time=0.010080645833333334
EXTRACT: note_on channel=9 note=61 velocity=0 time=0
EXTRACT: note_on channel=9 note=46 velocity=0 time=0
EXTRACT: note_on channel=3 note=69 velocity=107 time=0.005040322916666667
EXTRACT: note_on channel=3 note=69 velocity=0 time=0.03276209895833333
EXTRACT: note_on channel=9 note=82 velocity=56 time=0.07308468229166667
EXTRACT: note_on channel=9 note=86 velocity=107 time=0.005040322916666667
EXTRACT: note_on channel=9 note=82 velocity=0 time=0.005040322916666667
EXTRACT: note_on channel=9 note=86 velocity=0 time=0.005040322916666667
EXTRACT: note_on channel=3 note=69 velocity=87 time=0.007560484375000001
EXTRACT: note_on channel=3 note=69 velocity=0 time=0.03276209895833333
EXTRACT: note_on channel=8 note=91 velocity=0 time=0.037802421875
EXTRACT: note_on channel=8 note=84 velocity=0 time=0.0025201614583333335
EXTRACT: note_on channel=9 note=61 velocity=80 time=0.025201614583333334
EXTRACT: note_on channel=9 note=82 velocity=66 time=0
EXTRACT: note_on channel=1 note=31 velocity=96 time=0.0025201614583333335
EXTRACT: note_on channel=2 note=43 velocity=102 time=0
EXTRACT: note_on channel=3 note=69 velocity=102 time=0
EXTRACT: note_on channel=9 note=40 velocity=120 time=0
EXTRACT: note_on channel=13 note=43 velocity=90 time=0
EXTRACT: note_on channel=1 note=28 velocity=0 time=0.005040322916666667
EXTRACT: note_on channel=13 note=40 velocity=0 time=0
EXTRACT: note_on channel=2 note=40 velocity=0 time=0
EXTRACT: note_on channel=9 note=61 velocity=0 time=0.0025201614583333335
EXTRACT: note_on channel=9 note=82 velocity=0 time=0
EXTRACT: note_on channel=9 note=40 velocity=0 time=0.0025201614583333335
EXTRACT: note_on channel=9 note=61 velocity=60 time=0.10836694270833334
EXTRACT: note_on channel=9 note=82 velocity=70 time=0
EXTRACT: note_on channel=9 note=82 velocity=0 time=0.010080645833333334
EXTRACT: note_on channel=9 note=61 velocity=0 time=0
EXTRACT: note_on channel=9 note=42 velocity=52 time=0.11088710416666667
EXTRACT: note_on channel=9 note=61 velocity=55 time=0
EXTRACT: note_on channel=9 note=82 velocity=41 time=0
EXTRACT: note_on channel=9 note=86 velocity=107 time=0.005040322916666667
EXTRACT: note_on channel=9 note=82 velocity=0 time=0.005040322916666667
EXTRACT: note_on channel=9 note=61 velocity=0 time=0
EXTRACT: note_on channel=9 note=42 velocity=0 time=0
EXTRACT: note_on channel=9 note=86 velocity=0 time=0.005040322916666667
EXTRACT: pitchwheel channel=3 pitch=-456 time=0.020161291666666668
EXTRACT: pitchwheel channel=3 pitch=-911 time=0.07056452083333334
EXTRACT: note_on channel=1 note=37 velocity=100 time=0.0025201614583333335
EXTRACT: note_on channel=2 note=49 velocity=106 time=0
EXTRACT: note_on channel=13 note=49 velocity=94 time=0
EXTRACT: note_on channel=8 note=84 velocity=93 time=0.007560484375000001
EXTRACT: note_on channel=8 note=91 velocity=89 time=0
EXTRACT: note_on channel=1 note=31 velocity=0 time=0.005040322916666667
EXTRACT: note_on channel=2 note=43 velocity=0 time=0
EXTRACT: note_on channel=13 note=43 velocity=0 time=0
EXTRACT: note_on channel=9 note=35 velocity=72 time=0
EXTRACT: note_on channel=9 note=61 velocity=68 time=0
EXTRACT: note_on channel=9 note=82 velocity=58 time=0
EXTRACT: note_on channel=9 note=86 velocity=76 time=0
EXTRACT: note_on channel=12 note=23 velocity=72 time=0
EXTRACT: note_on channel=9 note=86 velocity=0 time=0.010080645833333334
EXTRACT: note_on channel=9 note=82 velocity=0 time=0
EXTRACT: note_on channel=9 note=35 velocity=0 time=0
EXTRACT: note_on channel=9 note=61 velocity=0 time=0
EXTRACT: note_on channel=12 note=23 velocity=0 time=0.022681453125
EXTRACT: note_on channel=8 note=84 velocity=0 time=0.022681453125
EXTRACT: pitchwheel channel=3 pitch=-1366 time=0.0025201614583333335
EXTRACT: note_on channel=8 note=91 velocity=0 time=0.012600807291666667
EXTRACT: note_on channel=9 note=86 velocity=113 time=0.04536290625
EXTRACT: note_on channel=9 note=82 velocity=56 time=0.005040322916666667
EXTRACT: note_on channel=9 note=86 velocity=0 time=0.005040322916666667
EXTRACT: pitchwheel channel=3 pitch=-1897 time=0.0025201614583333335
EXTRACT: note_on channel=9 note=82 velocity=0 time=0.0025201614583333335
EXTRACT: pitchwheel channel=3 pitch=-2504 time=0.07056452083333334
EXTRACT: note_on channel=8 note=84 velocity=89 time=0.037802421875
EXTRACT: note_on channel=8 note=91 velocity=89 time=0
EXTRACT: note_on channel=9 note=35 velocity=102 time=0
EXTRACT: note_on channel=12 note=23 velocity=102 time=0
EXTRACT: note_on channel=9 note=61 velocity=60 time=0.0025201614583333335
EXTRACT: note_on channel=9 note=82 velocity=56 time=0
EXTRACT: note_on channel=9 note=86 velocity=107 time=0
EXTRACT: note_on channel=9 note=35 velocity=0 time=0.007560484375000001
EXTRACT: note_on channel=9 note=61 velocity=0 time=0.0025201614583333335
EXTRACT: note_on channel=9 note=86 velocity=0 time=0
EXTRACT: note_on channel=9 note=82 velocity=0 time=0
EXTRACT: pitchwheel channel=3 pitch=-3035 time=0.0025201614583333335
EXTRACT: note_on channel=12 note=23 velocity=0 time=0.017641130208333335
EXTRACT: note_on channel=8 note=84 velocity=0 time=0.022681453125
EXTRACT: note_on channel=8 note=91 velocity=0 time=0.015120968750000002
EXTRACT: pitchwheel channel=3 pitch=-3490 time=0.015120968750000002
EXTRACT: note_on channel=1 note=37 velocity=0 time=0.037802421875
EXTRACT: note_on channel=13 note=49 velocity=0 time=0
EXTRACT: note_on channel=2 note=49 velocity=0 time=0
EXTRACT: note_on channel=9 note=35 velocity=98 time=0
EXTRACT: note_on channel=9 note=46 velocity=60 time=0
EXTRACT: note_on channel=9 note=61 velocity=80 time=0
EXTRACT: note_on channel=9 note=82 velocity=51 time=0
EXTRACT: note_on channel=12 note=23 velocity=98 time=0
EXTRACT: note_on channel=1 note=36 velocity=107 time=0.0025201614583333335
EXTRACT: note_on channel=2 note=48 velocity=113 time=0
EXTRACT: note_on channel=13 note=48 velocity=101 time=0
EXTRACT: note_on channel=9 note=82 velocity=0 time=0.007560484375000001
EXTRACT: note_on channel=9 note=61 velocity=0 time=0
EXTRACT: note_on channel=9 note=46 velocity=0 time=0
EXTRACT: note_on channel=9 note=35 velocity=0 time=0
EXTRACT: pitchwheel channel=3 pitch=-3945 time=0.007560484375000001
EXTRACT: note_on channel=12 note=23 velocity=0 time=0.015120968750000002
EXTRACT: pitchwheel channel=3 pitch=-4476 time=0.037802421875
EXTRACT: note_on channel=8 note=91 velocity=89 time=0.04536290625
EXTRACT: note_on channel=8 note=84 velocity=93 time=0.0025201614583333335
EXTRACT: note_on channel=9 note=86 velocity=113 time=0
EXTRACT: note_on channel=9 note=61 velocity=56 time=0.0025201614583333335
EXTRACT: note_on channel=9 note=82 velocity=49 time=0
EXTRACT: note_on channel=9 note=86 velocity=0 time=0.007560484375000001
EXTRACT: note_on channel=9 note=82 velocity=0 time=0.0025201614583333335
EXTRACT: note_on channel=9 note=61 velocity=0 time=0
EXTRACT: pitchwheel channel=3 pitch=-5083 time=0.012600807291666667
EXTRACT: note_on channel=8 note=84 velocity=0 time=0.020161291666666668
EXTRACT: note_on channel=8 note=91 velocity=0 time=0.010080645833333334
EXTRACT: pitchwheel channel=3 pitch=-5538 time=0.022681453125
EXTRACT: note_on channel=8 note=91 velocity=89 time=0.04536290625
EXTRACT: note_on channel=9 note=40 velocity=120 time=0
EXTRACT: note_on channel=9 note=61 velocity=72 time=0
EXTRACT: note_on channel=9 note=82 velocity=53 time=0
EXTRACT: note_on channel=13 note=48 velocity=0 time=0.0025201614583333335
EXTRACT: note_on channel=2 note=48 velocity=0 time=0
EXTRACT: note_on channel=1 note=36 velocity=0 time=0
EXTRACT: note_on channel=8 note=84 velocity=93 time=0
EXTRACT: note_on channel=1 note=31 velocity=101 time=0.0025201614583333335
EXTRACT: note_on channel=2 note=43 velocity=107 time=0
EXTRACT: note_on channel=13 note=43 velocity=95 time=0
EXTRACT: note_on channel=9 note=40 velocity=0 time=0.005040322916666667
EXTRACT: note_on channel=9 note=82 velocity=0 time=0
EXTRACT: note_on channel=9 note=61 velocity=0 time=0
EXTRACT: pitchwheel channel=3 pitch=-6296 time=0.017641130208333335
EXTRACT: pitchwheel channel=3 pitch=-6675 time=0.017641130208333335
EXTRACT: pitchwheel channel=3 pitch=-8074 time=0.05040322916666667
EXTRACT: note_on channel=9 note=61 velocity=60 time=0.025201614583333334
EXTRACT: note_on channel=9 note=82 velocity=83 time=0
EXTRACT: note_on channel=9 note=82 velocity=0 time=0.010080645833333334
EXTRACT: note_on channel=9 note=61 velocity=0 time=0
EXTRACT: note_on channel=1 note=31 velocity=0 time=0.08316532812500001
EXTRACT: note_on channel=13 note=43 velocity=0 time=0
EXTRACT: note_on channel=2 note=43 velocity=0 time=0
EXTRACT: note_on channel=3 note=69 velocity=0 time=0.010080645833333334
EXTRACT: note_on channel=1 note=28 velocity=96 time=0.012600807291666667
EXTRACT: note_on channel=2 note=40 velocity=102 time=0
EXTRACT: note_on channel=13 note=40 velocity=90 time=0
EXTRACT: note_on channel=9 note=42 velocity=47 time=0.005040322916666667
EXTRACT: note_on channel=9 note=61 velocity=60 time=0
EXTRACT: note_on channel=9 note=82 velocity=50 time=0
EXTRACT: note_on channel=9 note=86 velocity=107 time=0.0025201614583333335
EXTRACT: note_on channel=9 note=35 velocity=85 time=0.005040322916666667
EXTRACT: note_on channel=12 note=23 velocity=85 time=0
EXTRACT: note_on channel=9 note=82 velocity=0 time=0.0025201614583333335
EXTRACT: note_on channel=9 note=61 velocity=0 time=0
EXTRACT: note_on channel=9 note=42 velocity=0 time=0
EXTRACT: note_on channel=9 note=86 velocity=0 time=0.0025201614583333335
EXTRACT: note_on channel=9 note=35 velocity=0 time=0.005040322916666667
EXTRACT: note_on channel=12 note=23 velocity=0 time=0.022681453125
EXTRACT: note_on channel=9 note=61 velocity=80 time=0.08064516666666667
EXTRACT: note_on channel=9 note=82 velocity=56 time=0
EXTRACT: note_on channel=9 note=86 velocity=85 time=0.0025201614583333335
EXTRACT: pitchwheel channel=3 pitch=0 time=0.0025201614583333335
EXTRACT: note_on channel=9 note=82 velocity=0 time=0.005040322916666667
EXTRACT: note_on channel=9 note=61 velocity=0 time=0
EXTRACT: note_on channel=9 note=86 velocity=0 time=0.0025201614583333335
EXTRACT: note_on channel=9 note=86 velocity=107 time=0.10080645833333333
EXTRACT: note_on channel=3 note=69 velocity=105 time=0.0025201614583333335
EXTRACT: note_on channel=13 note=40 velocity=0 time=0.0025201614583333335
EXTRACT: note_on channel=2 note=40 velocity=0 time=0
EXTRACT: note_on channel=1 note=28 velocity=0 time=0
EXTRACT: note_on channel=1 note=29 velocity=107 time=0.0025201614583333335
EXTRACT: note_on channel=2 note=41 velocity=113 time=0
EXTRACT: note_on channel=9 note=82 velocity=58 time=0
EXTRACT: note_on channel=13 note=41 velocity=101 time=0
EXTRACT: note_on channel=9 note=86 velocity=0 time=0.0025201614583333335
EXTRACT: note_on channel=9 note=35 velocity=107 time=0.0025201614583333335
EXTRACT: note_on channel=12 note=23 velocity=107 time=0
EXTRACT: note_on channel=9 note=82 velocity=0 time=0.005040322916666667
EXTRACT: note_on channel=9 note=35 velocity=0 time=0.005040322916666667
EXTRACT: note_on channel=3 note=69 velocity=0 time=0.012600807291666667
EXTRACT: note_on channel=12 note=23 velocity=0 time=0.010080645833333334
EXTRACT: note_on channel=3 note=69 velocity=97 time=0.07560484375
EXTRACT: note_on channel=9 note=86 velocity=113 time=0.005040322916666667
EXTRACT: note_on channel=9 note=61 velocity=59 time=0.0025201614583333335
EXTRACT: note_on channel=9 note=82 velocity=66 time=0
EXTRACT: note_on channel=9 note=86 velocity=0 time=0.007560484375000001
EXTRACT: note_on channel=9 note=82 velocity=0 time=0.0025201614583333335
EXTRACT: note_on channel=9 note=61 velocity=0 time=0
EXTRACT: note_on channel=3 note=69 velocity=0 time=0.015120968750000002
EXTRACT: note_on channel=3 note=69 velocity=106 time=0.08064516666666667
EXTRACT: note_on channel=9 note=46 velocity=60 time=0.015120968750000002
EXTRACT: note_on channel=9 note=61 velocity=72 time=0
EXTRACT: note_on channel=9 note=82 velocity=50 time=0
EXTRACT: note_on channel=9 note=82 velocity=0 time=0.010080645833333334
EXTRACT: note_on channel=9 note=61 velocity=0 time=0
EXTRACT: note_on channel=9 note=46 velocity=0 time=0
EXTRACT: note_on channel=3 note=69 velocity=0 time=0.007560484375000001
EXTRACT: note_on channel=3 note=69 velocity=93 time=0.08064516666666667
EXTRACT: note_on channel=9 note=82 velocity=66 time=0.022681453125
EXTRACT: note_on channel=9 note=82 velocity=0 time=0.010080645833333334
EXTRACT: note_on channel=3 note=69 velocity=0 time=0
EXTRACT: note_on channel=2 note=41 velocity=0 time=0.098286296875
EXTRACT: note_on channel=1 note=29 velocity=0 time=0
EXTRACT: note_on channel=13 note=41 velocity=0 time=0
EXTRACT: note_on channel=3 note=69 velocity=98 time=0.005040322916666667
EXTRACT: note_on channel=1 note=32 velocity=101 time=0.005040322916666667
EXTRACT: note_on channel=2 note=44 velocity=107 time=0
EXTRACT: note_on channel=13 note=44 velocity=95 time=0
EXTRACT: note_on channel=9 note=61 velocity=62 time=0.0025201614583333335
EXTRACT: note_on channel=9 note=82 velocity=56 time=0
EXTRACT: note_on channel=9 note=40 velocity=120 time=0.005040322916666667
EXTRACT: note_on channel=9 note=82 velocity=0 time=0.005040322916666667
EXTRACT: note_on channel=9 note=61 velocity=0 time=0
EXTRACT: note_on channel=9 note=40 velocity=0 time=0.005040322916666667
EXTRACT: note_on channel=8 note=91 velocity=0 time=0.05544355208333333
EXTRACT: note_on channel=8 note=84 velocity=0 time=0.005040322916666667
EXTRACT: note_on channel=9 note=61 velocity=62 time=0.04536290625
EXTRACT: note_on channel=9 note=82 velocity=74 time=0
EXTRACT: note_on channel=9 note=82 velocity=0 time=0.010080645833333334
EXTRACT: note_on channel=9 note=61 velocity=0 time=0
EXTRACT: pitchwheel channel=3 pitch=-380 time=0.09324597395833334
EXTRACT: note_on channel=9 note=86 velocity=113 time=0.007560484375000001
EXTRACT: note_on channel=9 note=86 velocity=0 time=0.010080645833333334
EXTRACT: note_on channel=9 note=42 velocity=50 time=0
EXTRACT: note_on channel=9 note=61 velocity=56 time=0
EXTRACT: note_on channel=9 note=82 velocity=56 time=0
EXTRACT: note_on channel=9 note=82 velocity=0 time=0.010080645833333334
EXTRACT: note_on channel=9 note=42 velocity=0 time=0
EXTRACT: note_on channel=9 note=61 velocity=0 time=0
EXTRACT: pitchwheel channel=3 pitch=-835 time=0.027721776041666667
EXTRACT: pitchwheel channel=3 pitch=-1290 time=0.07056452083333334
EXTRACT: note_on channel=9 note=86 velocity=98 time=0
EXTRACT: note_on channel=9 note=86 velocity=0 time=0.010080645833333334
EXTRACT: note_on channel=1 note=37 velocity=107 time=0.0025201614583333335
EXTRACT: note_on channel=2 note=49 velocity=113 time=0
EXTRACT: note_on channel=9 note=61 velocity=76 time=0
EXTRACT: note_on channel=9 note=82 velocity=45 time=0
EXTRACT: note_on channel=13 note=49 velocity=101 time=0
EXTRACT: note_on channel=2 note=44 velocity=0 time=0.005040322916666667
EXTRACT: note_on channel=1 note=32 velocity=0 time=0
EXTRACT: note_on channel=13 note=44 velocity=0 time=0
EXTRACT: note_on channel=8 note=84 velocity=98 time=0.0025201614583333335
EXTRACT: note_on channel=8 note=91 velocity=89 time=0
EXTRACT: note_on channel=9 note=35 velocity=98 time=0
EXTRACT: note_on channel=12 note=23 velocity=98 time=0
EXTRACT: note_on channel=9 note=82 velocity=0 time=0.0025201614583333335
EXTRACT: note_on channel=9 note=61 velocity=0 time=0
EXTRACT: note_on channel=9 note=35 velocity=0 time=0.007560484375000001
EXTRACT: note_on channel=12 note=23 velocity=0 time=0.022681453125
EXTRACT: pitchwheel channel=3 pitch=-1973 time=0.017641130208333335
EXTRACT: note_on channel=8 note=84 velocity=0 time=0.0025201614583333335
EXTRACT: note_on channel=8 note=91 velocity=0 time=0.015120968750000002
EXTRACT: note_on channel=9 note=86 velocity=102 time=0.03276209895833333
EXTRACT: note_on channel=9 note=86 velocity=0 time=0.010080645833333334
EXTRACT: note_on channel=9 note=82 velocity=56 time=0.0025201614583333335
EXTRACT: note_on channel=9 note=82 velocity=0 time=0.010080645833333334
EXTRACT: pitchwheel channel=3 pitch=-2504 time=0
EXTRACT: pitchwheel channel=3 pitch=-3035 time=0.08820565104166667
EXTRACT: note_on channel=9 note=86 velocity=98 time=0.015120968750000002
EXTRACT: note_on channel=9 note=61 velocity=60 time=0.007560484375000001
EXTRACT: note_on channel=9 note=82 velocity=56 time=0
EXTRACT: note_on channel=9 note=86 velocity=0 time=0.0025201614583333335
EXTRACT: note_on channel=8 note=84 velocity=89 time=0
EXTRACT: note_on channel=8 note=91 velocity=89 time=0
EXTRACT: note_on channel=9 note=35 velocity=85 time=0
EXTRACT: note_on channel=12 note=23 velocity=85 time=0
EXTRACT: note_on channel=9 note=61 velocity=0 time=0.007560484375000001
EXTRACT: note_on channel=9 note=82 velocity=0 time=0
EXTRACT: note_on channel=9 note=35 velocity=0 time=0.0025201614583333335
EXTRACT: note_on channel=12 note=23 velocity=0 time=0.022681453125
EXTRACT: note_on channel=8 note=84 velocity=0 time=0.020161291666666668
EXTRACT: pitchwheel channel=3 pitch=-3566 time=0.012600807291666667
EXTRACT: note_on channel=8 note=91 velocity=0 time=0.010080645833333334
EXTRACT: note_on channel=13 note=49 velocity=0 time=0.03276209895833333
EXTRACT: note_on channel=1 note=37 velocity=0 time=0
EXTRACT: note_on channel=2 note=49 velocity=0 time=0
EXTRACT: note_on channel=1 note=36 velocity=96 time=0.007560484375000001
EXTRACT: note_on channel=2 note=48 velocity=102 time=0
EXTRACT: note_on channel=13 note=48 velocity=90 time=0
EXTRACT: note_on channel=9 note=46 velocity=60 time=0.0025201614583333335
EXTRACT: note_on channel=9 note=61 velocity=56 time=0
EXTRACT: note_on channel=9 note=82 velocity=50 time=0
EXTRACT: note_on channel=9 note=35 velocity=93 time=0.0025201614583333335
EXTRACT: note_on channel=12 note=23 velocity=93 time=0
EXTRACT: note_on channel=9 note=82 velocity=0 time=0.007560484375000001
EXTRACT: note_on channel=9 note=61 velocity=0 time=0
EXTRACT: note_on channel=9 note=46 velocity=0 time=0
EXTRACT: note_on channel=9 note=35 velocity=0 time=0.0025201614583333335
EXTRACT: note_on channel=12 note=23 velocity=0 time=0.022681453125
EXTRACT: pitchwheel channel=3 pitch=-4021 time=0.0025201614583333335
EXTRACT: pitchwheel channel=3 pitch=-4476 time=0.07056452083333334
EXTRACT: note_on channel=8 note=91 velocity=89 time=0.007560484375000001
EXTRACT: note_on channel=8 note=84 velocity=93 time=0.0025201614583333335
EXTRACT: note_on channel=9 note=82 velocity=62 time=0.0025201614583333335
EXTRACT: note_on channel=9 note=82 velocity=0 time=0.010080645833333334
EXTRACT: pitchwheel channel=3 pitch=-4931 time=0.03276209895833333
EXTRACT: note_on channel=8 note=84 velocity=0 time=0.007560484375000001
EXTRACT: note_on channel=8 note=91 velocity=0 time=0.0025201614583333335
EXTRACT: pitchwheel channel=3 pitch=-5386 time=0.04284274479166667
EXTRACT: note_on channel=9 note=40 velocity=120 time=0.022681453125
EXTRACT: note_on channel=9 note=61 velocity=72 time=0.0025201614583333335
EXTRACT: note_on channel=9 note=82 velocity=50 time=0
EXTRACT: note_on channel=8 note=84 velocity=93 time=0.0025201614583333335
EXTRACT: note_on channel=8 note=91 velocity=89 time=0
EXTRACT: note_on channel=9 note=40 velocity=0 time=0.005040322916666667
EXTRACT: note_on channel=9 note=82 velocity=0 time=0.0025201614583333335
EXTRACT: note_on channel=9 note=61 velocity=0 time=0
EXTRACT: note_on channel=13 note=48 velocity=0 time=0.0025201614583333335
EXTRACT: note_on channel=2 note=48 velocity=0 time=0
EXTRACT: note_on channel=1 note=36 velocity=0 time=0
EXTRACT: note_on channel=1 note=32 velocity=101 time=0.007560484375000001
EXTRACT: note_on channel=2 note=44 velocity=107 time=0
EXTRACT: note_on channel=13 note=44 velocity=95 time=0
EXTRACT: pitchwheel channel=3 pitch=-5841 time=0.007560484375000001
EXTRACT: pitchwheel channel=3 pitch=-6448 time=0.03528226041666667
EXTRACT: pitchwheel channel=3 pitch=-8079 time=0.03528226041666667
EXTRACT: note_on channel=9 note=61 velocity=60 time=0.022681453125
EXTRACT: note_on channel=9 note=82 velocity=56 time=0
EXTRACT: note_on channel=9 note=82 velocity=0 time=0.010080645833333334
EXTRACT: note_on channel=9 note=61 velocity=0 time=0
EXTRACT: note_on channel=3 note=69 velocity=0 time=0.04284274479166667
EXTRACT: note_on channel=2 note=44 velocity=0 time=0.06552419791666667
EXTRACT: note_on channel=1 note=32 velocity=0 time=0
EXTRACT: note_on channel=13 note=44 velocity=0 time=0
EXTRACT: note_on channel=9 note=42 velocity=55 time=0.0025201614583333335
EXTRACT: note_on channel=9 note=82 velocity=51 time=0
EXTRACT: note_on channel=9 note=35 velocity=93 time=0.0025201614583333335
EXTRACT: note_on channel=12 note=23 velocity=93 time=0
EXTRACT: note_on channel=1 note=24 velocity=91 time=0.0025201614583333335
EXTRACT: note_on channel=2 note=36 velocity=97 time=0
EXTRACT: note_on channel=9 note=86 velocity=107 time=0
EXTRACT: note_on channel=13 note=36 velocity=85 time=0
EXTRACT: note_on channel=9 note=82 velocity=0 time=0.005040322916666667
EXTRACT: note_on channel=9 note=42 velocity=0 time=0
EXTRACT: note_on channel=9 note=35 velocity=0 time=0.0025201614583333335
EXTRACT: note_on channel=9 note=86 velocity=0 time=0.0025201614583333335
EXTRACT: note_on channel=12 note=23 velocity=0 time=0.020161291666666668
EXTRACT: pitchwheel channel=3 pitch=0 time=0.020161291666666668
EXTRACT: note_on channel=9 note=61 velocity=68 time=0.06552419791666667
EXTRACT: note_on channel=9 note=82 velocity=62 time=0
EXTRACT: note_on channel=9 note=86 velocity=76 time=0
EXTRACT: note_on channel=9 note=86 velocity=0 time=0.010080645833333334
EXTRACT: note_on channel=9 note=82 velocity=0 time=0
EXTRACT: note_on channel=9 note=61 velocity=0 time=0
EXTRACT: note_on channel=8 note=84 velocity=0 time=0.07812500520833333
EXTRACT: note_on channel=8 note=91 velocity=0 time=0
EXTRACT: note_on channel=1 note=28 velocity=96 time=0.030241937500000003
EXTRACT: note_on channel=2 note=40 velocity=102 time=0
EXTRACT: note_on channel=9 note=35 velocity=102 time=0
EXTRACT: note_on channel=9 note=86 velocity=113 time=0
EXTRACT: note_on channel=12 note=23 velocity=102 time=0
EXTRACT: note_on channel=13 note=40 velocity=90 time=0
EXTRACT: note_on channel=9 note=82 velocity=58 time=0.0025201614583333335
EXTRACT: note_on channel=9 note=86 velocity=0 time=0.007560484375000001
EXTRACT: note_on channel=9 note=35 velocity=0 time=0
EXTRACT: note_on channel=8 note=40 velocity=63 time=0
EXTRACT: note_on channel=9 note=82 velocity=0 time=0.0025201614583333335
EXTRACT: note_on channel=2 note=36 velocity=0 time=0.012600807291666667
EXTRACT: note_on channel=13 note=36 velocity=0 time=0
EXTRACT: note_on channel=1 note=24 velocity=0 time=0
EXTRACT: note_on channel=12 note=23 velocity=0 time=0.007560484375000001
EXTRACT: note_on channel=8 note=41 velocity=67 time=0.012600807291666667
EXTRACT: note_on channel=8 note=40 velocity=0 time=0.025201614583333334
EXTRACT: note_on channel=8 note=43 velocity=65 time=0.03276209895833333
EXTRACT: note_on channel=8 note=41 velocity=0 time=0.020161291666666668
EXTRACT: note_on channel=9 note=61 velocity=62 time=0
EXTRACT: note_on channel=9 note=82 velocity=56 time=0
EXTRACT: note_on channel=9 note=86 velocity=98 time=0.005040322916666667
EXTRACT: note_on channel=9 note=82 velocity=0 time=0.005040322916666667
EXTRACT: note_on channel=9 note=61 velocity=0 time=0
EXTRACT: note_on channel=9 note=86 velocity=0 time=0.005040322916666667
EXTRACT: note_on channel=8 note=45 velocity=63 time=0.025201614583333334
EXTRACT: note_on channel=8 note=43 velocity=0 time=0.020161291666666668
EXTRACT: note_on channel=8 note=47 velocity=61 time=0.05040322916666667
EXTRACT: note_on channel=9 note=46 velocity=60 time=0.010080645833333334
EXTRACT: note_on channel=9 note=61 velocity=76 time=0
EXTRACT: note_on channel=9 note=82 velocity=58 time=0
EXTRACT: note_on channel=8 note=45 velocity=0 time=0.007560484375000001
EXTRACT: note_on channel=9 note=82 velocity=0 time=0.0025201614583333335
EXTRACT: note_on channel=9 note=46 velocity=0 time=0
EXTRACT: note_on channel=9 note=61 velocity=0 time=0
EXTRACT: note_on channel=8 note=48 velocity=59 time=0.05544355208333333
EXTRACT: note_on channel=8 note=47 velocity=0 time=0.005040322916666667
EXTRACT: note_on channel=9 note=82 velocity=54 time=0.05040322916666667
EXTRACT: note_on channel=9 note=82 velocity=0 time=0.010080645833333334
EXTRACT: note_on channel=8 note=50 velocity=57 time=0
EXTRACT: note_on channel=8 note=48 velocity=0 time=0.007560484375000001
EXTRACT: note_on channel=8 note=50 velocity=0 time=0.05544355208333333
EXTRACT: note_on channel=8 note=52 velocity=55 time=0
EXTRACT: note_on channel=9 note=40 velocity=120 time=0.04536290625
EXTRACT: note_on channel=9 note=61 velocity=76 time=0.0025201614583333335
EXTRACT: note_on channel=9 note=82 velocity=58 time=0
EXTRACT: note_on channel=1 note=31 velocity=96 time=0.0025201614583333335
EXTRACT: note_on channel=2 note=43 velocity=102 time=0
EXTRACT: note_on channel=13 note=43 velocity=90 time=0
EXTRACT: note_on channel=9 note=40 velocity=0 time=0.005040322916666667
EXTRACT: note_on channel=2 note=40 velocity=0 time=0
EXTRACT: note_on channel=13 note=40 velocity=0 time=0
EXTRACT: note_on channel=1 note=28 velocity=0 time=0
EXTRACT: note_on channel=9 note=82 velocity=0 time=0.0025201614583333335
EXTRACT: note_on channel=9 note=61 velocity=0 time=0
EXTRACT: note_on channel=8 note=52 velocity=0 time=0.007560484375000001
EXTRACT: note_on channel=8 note=36 velocity=56 time=0.015120968750000002
EXTRACT: note_on channel=8 note=38 velocity=57 time=0.03528226041666667
EXTRACT: note_on channel=8 note=36 velocity=0 time=0.022681453125
EXTRACT: note_on channel=8 note=40 velocity=59 time=0.025201614583333334
EXTRACT: note_on channel=9 note=61 velocity=72 time=0.005040322916666667
EXTRACT: note_on channel=9 note=82 velocity=62 time=0
EXTRACT: note_on channel=9 note=82 velocity=0 time=0.010080645833333334
EXTRACT: note_on channel=9 note=61 velocity=0 time=0
EXTRACT: note_on channel=8 note=38 velocity=0 time=0.005040322916666667
EXTRACT: note_on channel=8 note=41 velocity=60 time=0.017641130208333335
EXTRACT: note_on channel=8 note=40 velocity=0 time=0.025201614583333334
EXTRACT: note_on channel=8 note=43 velocity=62 time=0.017641130208333335
EXTRACT: note_on channel=8 note=41 velocity=0 time=0.020161291666666668
EXTRACT: note_on channel=8 note=45 velocity=63 time=0.020161291666666668
EXTRACT: note_on channel=9 note=35 velocity=85 time=0.0025201614583333335
EXTRACT: note_on channel=9 note=86 velocity=102 time=0
EXTRACT: note_on channel=12 note=23 velocity=85 time=0
EXTRACT: note_on channel=9 note=42 velocity=52 time=0.0025201614583333335
EXTRACT: note_on channel=9 note=61 velocity=51 time=0
EXTRACT: note_on channel=9 note=82 velocity=47 time=0
EXTRACT: note_on channel=9 note=86 velocity=0 time=0.007560484375000001
EXTRACT: note_on channel=9 note=35 velocity=0 time=0
EXTRACT: note_on channel=9 note=82 velocity=0 time=0.0025201614583333335
EXTRACT: note_on channel=9 note=61 velocity=0 time=0
EXTRACT: note_on channel=9 note=42 velocity=0 time=0
EXTRACT: note_on channel=8 note=43 velocity=0 time=0.005040322916666667
EXTRACT: note_on channel=12 note=23 velocity=0 time=0.015120968750000002
EXTRACT: note_on channel=8 note=47 velocity=65 time=0.005040322916666667
EXTRACT: note_on channel=8 note=45 velocity=0 time=0.017641130208333335
EXTRACT: note_on channel=8 note=48 velocity=66 time=0.017641130208333335
EXTRACT: note_on channel=8 note=47 velocity=0 time=0.020161291666666668
EXTRACT: note_on channel=1 note=37 velocity=100 time=0.017641130208333335
EXTRACT: note_on channel=2 note=49 velocity=106 time=0
EXTRACT: note_on channel=13 note=49 velocity=94 time=0
EXTRACT: note_on channel=8 note=50 velocity=67 time=0.0025201614583333335
EXTRACT: note_on channel=9 note=35 velocity=85 time=0.005040322916666667
EXTRACT: note_on channel=12 note=23 velocity=85 time=0
EXTRACT: note_on channel=2 note=43 velocity=0 time=0.005040322916666667
EXTRACT: note_on channel=1 note=31 velocity=0 time=0
EXTRACT: note_on channel=13 note=43 velocity=0 time=0
EXTRACT: note_on channel=9 note=61 velocity=72 time=0
EXTRACT: note_on channel=9 note=72 velocity=39 time=0
EXTRACT: note_on channel=9 note=82 velocity=58 time=0
EXTRACT: note_on channel=9 note=87 velocity=107 time=0
EXTRACT: note_on channel=9 note=35 velocity=0 time=0.005040322916666667
EXTRACT: note_on channel=9 note=72 velocity=0 time=0.005040322916666667
EXTRACT: note_on channel=9 note=87 velocity=0 time=0
EXTRACT: note_on channel=9 note=61 velocity=0 time=0
EXTRACT: note_on channel=9 note=82 velocity=0 time=0
EXTRACT: note_on channel=8 note=48 velocity=0 time=0.0025201614583333335
EXTRACT: note_on channel=12 note=23 velocity=0 time=0.015120968750000002
EXTRACT: note_on channel=8 note=52 velocity=69 time=0.005040322916666667
EXTRACT: note_on channel=8 note=50 velocity=0 time=0.020161291666666668
EXTRACT: note_on channel=8 note=53 velocity=71 time=0.030241937500000003
EXTRACT: note_on channel=8 note=52 velocity=0 time=0.017641130208333335
EXTRACT: note_on channel=8 note=55 velocity=72 time=0.020161291666666668
EXTRACT: note_on channel=9 note=82 velocity=50 time=0
EXTRACT: note_on channel=9 note=82 velocity=0 time=0.010080645833333334
EXTRACT: note_on channel=8 note=53 velocity=0 time=0.015120968750000002
EXTRACT: note_on channel=8 note=57 velocity=74 time=0.015120968750000002
EXTRACT: note_on channel=8 note=55 velocity=0 time=0.022681453125
EXTRACT: note_on channel=8 note=59 velocity=75 time=0.017641130208333335
EXTRACT: note_on channel=8 note=57 velocity=0 time=0.020161291666666668
EXTRACT: note_on channel=8 note=60 velocity=77 time=0.017641130208333335
EXTRACT: note_on channel=9 note=61 velocity=62 time=0.0025201614583333335
EXTRACT: note_on channel=9 note=82 velocity=66 time=0
EXTRACT: note_on channel=9 note=87 velocity=102 time=0
EXTRACT: note_on channel=9 note=35 velocity=89 time=0.0025201614583333335
EXTRACT: note_on channel=12 note=23 velocity=89 time=0
EXTRACT: note_on channel=9 note=87 velocity=0 time=0.007560484375000001
EXTRACT: note_on channel=9 note=82 velocity=0 time=0
EXTRACT: note_on channel=9 note=61 velocity=0 time=0
EXTRACT: note_on channel=9 note=35 velocity=0 time=0.0025201614583333335
EXTRACT: note_on channel=8 note=59 velocity=0 time=0.005040322916666667
EXTRACT: note_on channel=12 note=23 velocity=0 time=0.017641130208333335
EXTRACT: note_on channel=8 note=62 velocity=78 time=0.005040322916666667
EXTRACT: note_on channel=8 note=60 velocity=0 time=0.017641130208333335
EXTRACT: note_on channel=8 note=64 velocity=80 time=0.020161291666666668
EXTRACT: note_on channel=8 note=62 velocity=0 time=0.020161291666666668
EXTRACT: note_on channel=10 note=55 velocity=93 time=0.012600807291666667
EXTRACT: note_on channel=8 note=65 velocity=81 time=0.0025201614583333335
EXTRACT: note_on channel=9 note=35 velocity=102 time=0.005040322916666667
EXTRACT: note_on channel=12 note=23 velocity=102 time=0
EXTRACT: note_on channel=2 note=49 velocity=0 time=0.0025201614583333335
EXTRACT: note_on channel=1 note=37 velocity=0 time=0
EXTRACT: note_on channel=13 note=49 velocity=0 time=0
EXTRACT: note_on channel=9 note=46 velocity=60 time=0
EXTRACT: note_on channel=9 note=61 velocity=52 time=0
EXTRACT: note_on channel=9 note=82 velocity=54 time=0
EXTRACT: note_on channel=1 note=36 velocity=107 time=0.0025201614583333335
EXTRACT: note_on channel=2 note=48 velocity=113 time=0
EXTRACT: note_on channel=13 note=48 velocity=101 time=0
EXTRACT: note_on channel=9 note=35 velocity=0 time=0.005040322916666667
EXTRACT: note_on channel=9 note=82 velocity=0 time=0.0025201614583333335
EXTRACT: note_on channel=9 note=61 velocity=0 time=0
EXTRACT: note_on channel=9 note=46 velocity=0 time=0
EXTRACT: note_on channel=8 note=64 velocity=0 time=0.005040322916666667
EXTRACT: note_on channel=12 note=23 velocity=0 time=0.015120968750000002
EXTRACT: note_on channel=8 note=67 velocity=81 time=0.0025201614583333335
EXTRACT: note_on channel=8 note=65 velocity=0 time=0.020161291666666668
EXTRACT: note_on channel=8 note=69 velocity=79 time=0.030241937500000003
EXTRACT: note_on channel=8 note=67 velocity=0 time=0.017641130208333335
EXTRACT: note_on channel=9 note=61 velocity=55 time=0.020161291666666668
EXTRACT: note_on channel=9 note=72 velocity=49 time=0
EXTRACT: note_on channel=9 note=82 velocity=58 time=0
EXTRACT: note_on channel=9 note=87 velocity=89 time=0
EXTRACT: note_on channel=8 note=71 velocity=77 time=0.0025201614583333335
EXTRACT: note_on channel=9 note=87 velocity=0 time=0.007560484375000001
EXTRACT: note_on channel=9 note=82 velocity=0 time=0
EXTRACT: note_on channel=9 note=72 velocity=0 time=0
EXTRACT: note_on channel=9 note=61 velocity=0 time=0
EXTRACT: note_on channel=8 note=69 velocity=0 time=0.010080645833333334
EXTRACT: note_on channel=8 note=72 velocity=76 time=0.025201614583333334
EXTRACT: note_on channel=8 note=71 velocity=0 time=0.020161291666666668
EXTRACT: note_on channel=8 note=74 velocity=74 time=0.017641130208333335
EXTRACT: note_on channel=8 note=72 velocity=0 time=0.020161291666666668
EXTRACT: note_on channel=10 note=56 velocity=102 time=0.010080645833333334
EXTRACT: note_on channel=8 note=76 velocity=73 time=0.007560484375000001
EXTRACT: note_on channel=9 note=40 velocity=120 time=0
EXTRACT: note_on channel=9 note=61 velocity=68 time=0
EXTRACT: note_on channel=9 note=72 velocity=49 time=0
EXTRACT: note_on channel=9 note=82 velocity=56 time=0
EXTRACT: note_on channel=9 note=87 velocity=107 time=0
EXTRACT: note_on channel=13 note=48 velocity=0 time=0.0025201614583333335
EXTRACT: note_on channel=2 note=48 velocity=0 time=0
EXTRACT: note_on channel=1 note=36 velocity=0 time=0
EXTRACT: note_on channel=1 note=31 velocity=101 time=0.0025201614583333335
EXTRACT: note_on channel=2 note=43 velocity=107 time=0
EXTRACT: note_on channel=13 note=43 velocity=95 time=0
EXTRACT: note_on channel=9 note=61 velocity=0 time=0.005040322916666667
EXTRACT: note_on channel=9 note=40 velocity=0 time=0
EXTRACT: note_on channel=9 note=82 velocity=0 time=0
EXTRACT: note_on channel=9 note=72 velocity=0 time=0
EXTRACT: note_on channel=9 note=87 velocity=0 time=0
EXTRACT: note_on channel=8 note=74 velocity=0 time=0.010080645833333334
EXTRACT: note_on channel=10 note=55 velocity=0 time=0.007560484375000001
EXTRACT: note_on channel=8 note=77 velocity=71 time=0.007560484375000001
EXTRACT: note_on channel=8 note=76 velocity=0 time=0.017641130208333335
EXTRACT: note_on channel=8 note=79 velocity=70 time=0.015120968750000002
EXTRACT: note_on channel=8 note=77 velocity=0 time=0.017641130208333335
EXTRACT: note_on channel=8 note=81 velocity=68 time=0.022681453125
EXTRACT: note_on channel=9 note=61 velocity=62 time=0.012600807291666667
EXTRACT: note_on channel=9 note=82 velocity=66 time=0
EXTRACT: note_on channel=8 note=79 velocity=0 time=0.0025201614583333335
EXTRACT: note_on channel=9 note=82 velocity=0 time=0.007560484375000001
EXTRACT: note_on channel=9 note=61 velocity=0 time=0
EXTRACT: note_on channel=8 note=83 velocity=67 time=0.015120968750000002
EXTRACT: note_on channel=8 note=81 velocity=0 time=0.020161291666666668
EXTRACT: note_on channel=8 note=84 velocity=64 time=0.015120968750000002
EXTRACT: note_on channel=8 note=83 velocity=0 time=0.020161291666666668
EXTRACT: note_on channel=2 note=43 velocity=0 time=0.012600807291666667
EXTRACT: note_on channel=13 note=43 velocity=0 time=0
EXTRACT: note_on channel=1 note=31 velocity=0 time=0
EXTRACT: note_on channel=8 note=86 velocity=69 time=0.015120968750000002
EXTRACT: note_on channel=1 note=28 velocity=96 time=0.007560484375000001
EXTRACT: note_on channel=2 note=40 velocity=102 time=0
EXTRACT: note_on channel=10 note=58 velocity=107 time=0
EXTRACT: note_on channel=13 note=40 velocity=90 time=0
EXTRACT: note_on channel=9 note=42 velocity=53 time=0.005040322916666667
EXTRACT: note_on channel=9 note=82 velocity=41 time=0
EXTRACT: note_on channel=9 note=87 velocity=107 time=0
EXTRACT: note_on channel=9 note=35 velocity=93 time=0.0025201614583333335
EXTRACT: note_on channel=12 note=23 velocity=93 time=0
EXTRACT: note_on channel=8 note=84 velocity=0 time=0.0025201614583333335
EXTRACT: note_on channel=9 note=87 velocity=0 time=0.005040322916666667
EXTRACT: note_on channel=9 note=42 velocity=0 time=0
EXTRACT: note_on channel=9 note=82 velocity=0 time=0
EXTRACT: note_on channel=9 note=35 velocity=0 time=0.0025201614583333335
EXTRACT: note_on channel=8 note=88 velocity=72 time=0.007560484375000001
EXTRACT: note_on channel=10 note=56 velocity=0 time=0.010080645833333334
EXTRACT: note_on channel=12 note=23 velocity=0 time=0.005040322916666667
EXTRACT: note_on channel=8 note=86 velocity=0 time=0.007560484375000001
EXTRACT: note_on channel=8 note=89 velocity=76 time=0.022681453125
EXTRACT: note_on channel=8 note=88 velocity=0 time=0.017641130208333335
EXTRACT: note_on channel=8 note=91 velocity=80 time=0.025201614583333334
EXTRACT: note_on channel=9 note=82 velocity=66 time=0.012600807291666667
EXTRACT: note_on channel=9 note=87 velocity=113 time=0
EXTRACT: note_on channel=8 note=89 velocity=0 time=0.007560484375000001
EXTRACT: note_on channel=9 note=87 velocity=0 time=0.0025201614583333335
EXTRACT: note_on channel=9 note=82 velocity=0 time=0
EXTRACT: note_on channel=8 note=93 velocity=83 time=0.015120968750000002
EXTRACT: note_on channel=8 note=91 velocity=0 time=0.017641130208333335
EXTRACT: note_on channel=8 note=93 velocity=0 time=0.015120968750000002
EXTRACT: note_on channel=8 note=95 velocity=87 time=0.010080645833333334
EXTRACT: note_on channel=8 note=95 velocity=0 time=0.015120968750000002
EXTRACT: note_on channel=1 note=28 velocity=0 time=0.03528226041666667
EXTRACT: note_on channel=2 note=40 velocity=0 time=0
EXTRACT: note_on channel=13 note=40 velocity=0 time=0
EXTRACT: note_on channel=4 note=65 velocity=107 time=0.0025201614583333335
EXTRACT: note_on channel=4 note=72 velocity=127 time=0
EXTRACT: note_on channel=5 note=56 velocity=107 time=0
EXTRACT: note_on channel=6 note=60 velocity=119 time=0
EXTRACT: note_on channel=7 note=65 velocity=93 time=0
EXTRACT: note_on channel=7 note=68 velocity=107 time=0
EXTRACT: note_on channel=7 note=72 velocity=93 time=0
EXTRACT: note_on channel=9 note=49 velocity=70 time=0
EXTRACT: note_on channel=9 note=64 velocity=89 time=0
EXTRACT: note_on channel=9 note=82 velocity=79 time=0
EXTRACT: note_on channel=9 note=86 velocity=113 time=0
EXTRACT: note_on channel=10 note=60 velocity=100 time=0
EXTRACT: note_on channel=15 note=60 velocity=1 time=0
EXTRACT: note_on channel=15 note=65 velocity=1 time=0
EXTRACT: note_on channel=15 note=72 velocity=1 time=0
EXTRACT: note_on channel=1 note=32 velocity=106 time=0.0025201614583333335
EXTRACT: note_on channel=9 note=35 velocity=113 time=0.0025201614583333335
EXTRACT: note_on channel=12 note=23 velocity=113 time=0
EXTRACT: note_on channel=10 note=58 velocity=0 time=0.0025201614583333335
EXTRACT: note_on channel=2 note=44 velocity=117 time=0
EXTRACT: note_on channel=13 note=44 velocity=97 time=0
EXTRACT: note_on channel=9 note=82 velocity=0 time=0.0025201614583333335
EXTRACT: note_on channel=9 note=64 velocity=0 time=0
EXTRACT: note_on channel=9 note=49 velocity=0 time=0
EXTRACT: note_on channel=9 note=86 velocity=0 time=0
EXTRACT: note_on channel=9 note=35 velocity=0 time=0.005040322916666667
EXTRACT: note_on channel=7 note=72 velocity=0 time=0.022681453125
EXTRACT: note_on channel=15 note=60 velocity=0 time=0
EXTRACT: note_on channel=7 note=65 velocity=0 time=0
EXTRACT: note_on channel=4 note=65 velocity=0 time=0
EXTRACT: note_on channel=4 note=72 velocity=0 time=0
EXTRACT: note_on channel=15 note=72 velocity=0 time=0
EXTRACT: note_on channel=12 note=23 velocity=0 time=0
EXTRACT: note_on channel=5 note=56 velocity=0 time=0
EXTRACT: note_on channel=6 note=60 velocity=0 time=0
EXTRACT: note_on channel=15 note=65 velocity=0 time=0
EXTRACT: note_on channel=7 note=68 velocity=0 time=0
EXTRACT: note_on channel=5 note=56 velocity=102 time=0.08064516666666667
EXTRACT: note_on channel=6 note=60 velocity=113 time=0
EXTRACT: note_on channel=9 note=86 velocity=99 time=0
EXTRACT: note_on channel=15 note=56 velocity=1 time=0
EXTRACT: note_on channel=15 note=60 velocity=1 time=0
EXTRACT: note_on channel=4 note=65 velocity=93 time=0.0025201614583333335
EXTRACT: note_on channel=4 note=72 velocity=113 time=0
EXTRACT: note_on channel=7 note=65 velocity=98 time=0
EXTRACT: note_on channel=7 note=68 velocity=107 time=0
EXTRACT: note_on channel=7 note=72 velocity=107 time=0
EXTRACT: note_on channel=9 note=82 velocity=67 time=0
EXTRACT: note_on channel=15 note=65 velocity=1 time=0
EXTRACT: note_on channel=15 note=72 velocity=1 time=0
EXTRACT: note_on channel=9 note=86 velocity=0 time=0.007560484375000001
EXTRACT: note_on channel=9 note=82 velocity=0 time=0.0025201614583333335
EXTRACT: note_on channel=15 note=60 velocity=0 time=0.025201614583333334
EXTRACT: note_on channel=15 note=56 velocity=0 time=0
EXTRACT: note_on channel=6 note=60 velocity=0 time=0
EXTRACT: note_on channel=5 note=56 velocity=0 time=0
EXTRACT: note_on channel=15 note=65 velocity=0 time=0.0025201614583333335
EXTRACT: note_on channel=4 note=65 velocity=0 time=0
EXTRACT: note_on channel=15 note=72 velocity=0 time=0
EXTRACT: note_on channel=4 note=72 velocity=0 time=0
EXTRACT: note_on channel=7 note=65 velocity=0 time=0
EXTRACT: note_on channel=7 note=72 velocity=0 time=0
EXTRACT: note_on channel=7 note=68 velocity=0 time=0
EXTRACT: note_on channel=5 note=56 velocity=72 time=0.08064516666666667
EXTRACT: note_on channel=6 note=60 velocity=107 time=0
EXTRACT: note_on channel=15 note=56 velocity=1 time=0
EXTRACT: note_on channel=15 note=60 velocity=1 time=0
EXTRACT: note_on channel=4 note=65 velocity=107 time=0.0025201614583333335
EXTRACT: note_on channel=4 note=72 velocity=102 time=0
EXTRACT: note_on channel=7 note=65 velocity=85 time=0
EXTRACT: note_on channel=7 note=68 velocity=107 time=0
EXTRACT: note_on channel=7 note=72 velocity=93 time=0
EXTRACT: note_on channel=9 note=46 velocity=60 time=0
EXTRACT: note_on channel=9 note=63 velocity=89 time=0
EXTRACT: note_on channel=9 note=82 velocity=54 time=0
EXTRACT: note_on channel=15 note=65 velocity=1 time=0
EXTRACT: note_on channel=15 note=72 velocity=1 time=0
EXTRACT: note_on channel=9 note=82 velocity=0 time=0.010080645833333334
EXTRACT: note_on channel=9 note=63 velocity=0 time=0
EXTRACT: note_on channel=9 note=46 velocity=0 time=0
EXTRACT: note_on channel=15 note=56 velocity=0 time=0.025201614583333334
EXTRACT: note_on channel=6 note=60 velocity=0 time=0
EXTRACT: note_on channel=15 note=60 velocity=0 time=0
EXTRACT: note_on channel=5 note=56 velocity=0 time=0
EXTRACT: note_on channel=15 note=65 velocity=0 time=0.0025201614583333335
EXTRACT: note_on channel=4 note=72 velocity=0 time=0
EXTRACT: note_on channel=4 note=65 velocity=0 time=0
EXTRACT: note_on channel=15 note=72 velocity=0 time=0
EXTRACT: note_on channel=7 note=65 velocity=0 time=0
EXTRACT: note_on channel=7 note=68 velocity=0 time=0
EXTRACT: note_on channel=7 note=72 velocity=0 time=0
EXTRACT: note_on channel=1 note=32 velocity=0 time=0.05796371354166667
EXTRACT: note_on channel=13 note=44 velocity=0 time=0.005040322916666667
EXTRACT: note_on channel=2 note=44 velocity=0 time=0
EXTRACT: note_on channel=9 note=86 velocity=119 time=0.007560484375000001
EXTRACT: note_on channel=9 note=76 velocity=80 time=0.007560484375000001
EXTRACT: note_on channel=9 note=86 velocity=0 time=0.0025201614583333335
EXTRACT: note_on channel=1 note=29 velocity=107 time=0
EXTRACT: note_on channel=2 note=41 velocity=113 time=0
EXTRACT: note_on channel=5 note=56 velocity=107 time=0
EXTRACT: note_on channel=6 note=60 velocity=113 time=0
EXTRACT: note_on channel=13 note=41 velocity=95 time=0
EXTRACT: note_on channel=15 note=56 velocity=1 time=0
EXTRACT: note_on channel=15 note=60 velocity=1 time=0
EXTRACT: note_on channel=4 note=65 velocity=93 time=0.0025201614583333335
EXTRACT: note_on channel=4 note=72 velocity=102 time=0
EXTRACT: note_on channel=7 note=65 velocity=72 time=0
EXTRACT: note_on channel=7 note=68 velocity=102 time=0
EXTRACT: note_on channel=7 note=72 velocity=93 time=0
EXTRACT: note_on channel=9 note=82 velocity=42 time=0
EXTRACT: note_on channel=15 note=65 velocity=1 time=0
EXTRACT: note_on channel=15 note=72 velocity=1 time=0
EXTRACT: note_on channel=9 note=76 velocity=0 time=0.005040322916666667
EXTRACT: note_on channel=9 note=82 velocity=0 time=0.005040322916666667
EXTRACT: note_on channel=15 note=60 velocity=0 time=0.025201614583333334
EXTRACT: note_on channel=15 note=56 velocity=0 time=0
EXTRACT: note_on channel=5 note=56 velocity=0 time=0
EXTRACT: note_on channel=6 note=60 velocity=0 time=0
EXTRACT: note_on channel=7 note=72 velocity=0 time=0.0025201614583333335
EXTRACT: note_on channel=4 note=65 velocity=0 time=0
EXTRACT: note_on channel=15 note=72 velocity=0 time=0
EXTRACT: note_on channel=4 note=72 velocity=0 time=0
EXTRACT: note_on channel=7 note=65 velocity=0 time=0
EXTRACT: note_on channel=15 note=65 velocity=0 time=0
EXTRACT: note_on channel=7 note=68 velocity=0 time=0
EXTRACT: note_on channel=5 note=56 velocity=93 time=0.08064516666666667
EXTRACT: note_on channel=6 note=60 velocity=113 time=0
EXTRACT: note_on channel=15 note=56 velocity=1 time=0
EXTRACT: note_on channel=15 note=60 velocity=1 time=0
EXTRACT: note_on channel=4 note=65 velocity=119 time=0.0025201614583333335
EXTRACT: note_on channel=4 note=72 velocity=127 time=0
EXTRACT: note_on channel=7 note=65 velocity=79 time=0
EXTRACT: note_on channel=7 note=68 velocity=76 time=0
EXTRACT: note_on channel=7 note=72 velocity=84 time=0
EXTRACT: note_on channel=9 note=59 velocity=70 time=0
EXTRACT: note_on channel=9 note=62 velocity=113 time=0
EXTRACT: note_on channel=9 note=82 velocity=79 time=0
EXTRACT: note_on channel=15 note=65 velocity=1 time=0
EXTRACT: note_on channel=15 note=72 velocity=1 time=0
EXTRACT: note_on channel=9 note=40 velocity=120 time=0.007560484375000001
EXTRACT: note_on channel=9 note=82 velocity=0 time=0.0025201614583333335
EXTRACT: note_on channel=9 note=62 velocity=0 time=0
EXTRACT: note_on channel=9 note=59 velocity=0 time=0
EXTRACT: note_on channel=9 note=40 velocity=0 time=0.007560484375000001
EXTRACT: note_on channel=9 note=82 velocity=68 time=0.10332661979166667
EXTRACT: note_on channel=9 note=82 velocity=0 time=0.010080645833333334
EXTRACT: note_on channel=13 note=41 velocity=0 time=0.07812500520833333
EXTRACT: note_on channel=1 note=29 velocity=0 time=0
EXTRACT: note_on channel=2 note=41 velocity=0 time=0
EXTRACT: note_on channel=15 note=72 velocity=0 time=0.022681453125
EXTRACT: note_on channel=4 note=72 velocity=0 time=0
EXTRACT: note_on channel=1 note=24 velocity=107 time=0
EXTRACT: note_on channel=2 note=36 velocity=113 time=0
EXTRACT: note_on channel=13 note=36 velocity=95 time=0
EXTRACT: note_on channel=15 note=65 velocity=0 time=0.005040322916666667
EXTRACT: note_on channel=4 note=65 velocity=0 time=0
EXTRACT: note_on channel=3 note=72 velocity=101 time=0.005040322916666667
EXTRACT: note_on channel=9 note=46 velocity=56 time=0
EXTRACT: note_on channel=9 note=61 velocity=93 time=0
EXTRACT: note_on channel=9 note=82 velocity=54 time=0
EXTRACT: note_on channel=9 note=76 velocity=80 time=0.0025201614583333335
EXTRACT: note_on channel=9 note=35 velocity=89 time=0.005040322916666667
EXTRACT: note_on channel=12 note=23 velocity=89 time=0
EXTRACT: note_on channel=9 note=82 velocity=0 time=0.0025201614583333335
EXTRACT: note_on channel=9 note=61 velocity=0 time=0
EXTRACT: note_on channel=9 note=46 velocity=0 time=0
EXTRACT: note_on channel=9 note=86 velocity=108 time=0
EXTRACT: note_on channel=9 note=76 velocity=0 time=0.0025201614583333335
EXTRACT: note_on channel=9 note=35 velocity=0 time=0.005040322916666667
EXTRACT: note_on channel=9 note=86 velocity=0 time=0.0025201614583333335
EXTRACT: note_on channel=6 note=60 velocity=0 time=0.015120968750000002
EXTRACT: note_on channel=15 note=60 velocity=0 time=0
EXTRACT: note_on channel=12 note=23 velocity=0 time=0.005040322916666667
EXTRACT: note_on channel=3 note=72 velocity=0 time=0.0025201614583333335
EXTRACT: note_on channel=5 note=56 velocity=0 time=0.017641130208333335
EXTRACT: note_on channel=15 note=56 velocity=0 time=0
EXTRACT: note_on channel=7 note=68 velocity=0 time=0.010080645833333334
EXTRACT: note_on channel=7 note=72 velocity=0 time=0.015120968750000002
EXTRACT: note_on channel=7 note=65 velocity=0 time=0
EXTRACT: note_on channel=3 note=72 velocity=80 time=0.03528226041666667
EXTRACT: note_on channel=9 note=61 velocity=93 time=0
EXTRACT: note_on channel=9 note=82 velocity=45 time=0
EXTRACT: note_on channel=9 note=35 velocity=85 time=0.005040322916666667
EXTRACT: note_on channel=9 note=86 velocity=99 time=0
EXTRACT: note_on channel=12 note=23 velocity=85 time=0
EXTRACT: note_on channel=9 note=82 velocity=0 time=0.005040322916666667
EXTRACT: note_on channel=9 note=61 velocity=0 time=0
EXTRACT: note_on channel=9 note=86 velocity=0 time=0.005040322916666667
EXTRACT: note_on channel=9 note=35 velocity=0 time=0
EXTRACT: note_on channel=12 note=23 velocity=0 time=0.022681453125
EXTRACT: note_on channel=3 note=72 velocity=0 time=0.017641130208333335
EXTRACT: note_on channel=3 note=72 velocity=106 time=0.06552419791666667
EXTRACT: note_on channel=9 note=59 velocity=70 time=0
EXTRACT: note_on channel=9 note=82 velocity=78 time=0
EXTRACT: note_on channel=9 note=86 velocity=113 time=0.0025201614583333335
EXTRACT: note_on channel=9 note=82 velocity=0 time=0.007560484375000001
EXTRACT: note_on channel=9 note=59 velocity=0 time=0
EXTRACT: note_on channel=9 note=86 velocity=0 time=0.0025201614583333335
EXTRACT: note_on channel=3 note=72 velocity=0 time=0.03276209895833333
EXTRACT: note_on channel=10 note=60 velocity=0 time=0.037802421875
EXTRACT: note_on channel=3 note=72 velocity=106 time=0.037802421875
EXTRACT: note_on channel=9 note=61 velocity=93 time=0
EXTRACT: note_on channel=9 note=82 velocity=68 time=0
EXTRACT: note_on channel=9 note=35 velocity=85 time=0.005040322916666667
EXTRACT: note_on channel=9 note=86 velocity=108 time=0
EXTRACT: note_on channel=12 note=23 velocity=85 time=0
EXTRACT: note_on channel=9 note=82 velocity=0 time=0.005040322916666667
EXTRACT: note_on channel=9 note=61 velocity=0 time=0
EXTRACT: note_on channel=9 note=86 velocity=0 time=0.005040322916666667
EXTRACT: note_on channel=9 note=35 velocity=0 time=0
EXTRACT: note_on channel=12 note=23 velocity=0 time=0.022681453125
EXTRACT: note_on channel=3 note=72 velocity=0 time=0.010080645833333334
EXTRACT: note_on channel=1 note=32 velocity=107 time=0.06552419791666667
EXTRACT: note_on channel=2 note=44 velocity=113 time=0
EXTRACT: note_on channel=13 note=44 velocity=95 time=0
EXTRACT: note_on channel=10 note=60 velocity=102 time=0.005040322916666667
EXTRACT: note_on channel=3 note=72 velocity=106 time=0.0025201614583333335
EXTRACT: note_on channel=9 note=46 velocity=60 time=0
EXTRACT: note_on channel=9 note=82 velocity=58 time=0
EXTRACT: note_on channel=9 note=35 velocity=85 time=0.005040322916666667
EXTRACT: note_on channel=12 note=23 velocity=85 time=0
EXTRACT: note_on channel=9 note=82 velocity=0 time=0.005040322916666667
EXTRACT: note_on channel=9 note=46 velocity=0 time=0
EXTRACT: note_on channel=1 note=24 velocity=0 time=0.0025201614583333335
EXTRACT: note_on channel=2 note=36 velocity=0 time=0
EXTRACT: note_on channel=13 note=36 velocity=0 time=0
EXTRACT: note_on channel=9 note=35 velocity=0 time=0.0025201614583333335
EXTRACT: note_on channel=12 note=23 velocity=0 time=0.022681453125
EXTRACT: note_on channel=3 note=72 velocity=0 time=0.05796371354166667
EXTRACT: note_on channel=9 note=86 velocity=113 time=0.017641130208333335
EXTRACT: note_on channel=9 note=76 velocity=80 time=0.005040322916666667
EXTRACT: note_on channel=3 note=73 velocity=90 time=0.0025201614583333335
EXTRACT: note_on channel=9 note=61 velocity=93 time=0
EXTRACT: note_on channel=9 note=82 velocity=42 time=0
EXTRACT: note_on channel=9 note=86 velocity=0 time=0.0025201614583333335
EXTRACT: note_on channel=9 note=76 velocity=0 time=0.005040322916666667
EXTRACT: note_on channel=9 note=82 velocity=0 time=0.0025201614583333335
EXTRACT: note_on channel=9 note=61 velocity=0 time=0
EXTRACT: note_on channel=9 note=40 velocity=120 time=0.11088710416666667
EXTRACT: note_on channel=9 note=59 velocity=70 time=0
EXTRACT: note_on channel=9 note=62 velocity=107 time=0
EXTRACT: note_on channel=9 note=82 velocity=78 time=0
EXTRACT: note_on channel=10 note=61 velocity=98 time=0
EXTRACT: note_on channel=1 note=29 velocity=113 time=0.0025201614583333335
EXTRACT: note_on channel=2 note=41 velocity=119 time=0
EXTRACT: note_on channel=13 note=41 velocity=101 time=0
EXTRACT: note_on channel=13 note=44 velocity=0 time=0.0025201614583333335
EXTRACT: note_on channel=1 note=32 velocity=0 time=0
EXTRACT: note_on channel=2 note=44 velocity=0 time=0
EXTRACT: note_on channel=9 note=82 velocity=0 time=0.005040322916666667
EXTRACT: note_on channel=9 note=62 velocity=0 time=0
EXTRACT: note_on channel=9 note=40 velocity=0 time=0
EXTRACT: note_on channel=9 note=59 velocity=0 time=0
EXTRACT: note_on channel=10 note=60 velocity=0 time=0.0025201614583333335
EXTRACT: note_on channel=3 note=73 velocity=0 time=0.012600807291666667
EXTRACT: note_on channel=3 note=72 velocity=101 time=0.09576613541666668
EXTRACT: note_on channel=9 note=82 velocity=64 time=0
EXTRACT: note_on channel=9 note=82 velocity=0 time=0.010080645833333334
EXTRACT: note_on channel=2 note=41 velocity=0 time=0.10080645833333333
EXTRACT: note_on channel=1 note=29 velocity=0 time=0
EXTRACT: note_on channel=13 note=41 velocity=0 time=0
EXTRACT: note_on channel=10 note=61 velocity=0 time=0.0025201614583333335
EXTRACT: note_on channel=1 note=24 velocity=107 time=0.005040322916666667
EXTRACT: note_on channel=2 note=36 velocity=113 time=0
EXTRACT: note_on channel=10 note=60 velocity=98 time=0
EXTRACT: note_on channel=13 note=36 velocity=95 time=0
EXTRACT: note_on channel=9 note=46 velocity=56 time=0.0025201614583333335
EXTRACT: note_on channel=9 note=63 velocity=89 time=0
EXTRACT: note_on channel=9 note=82 velocity=51 time=0
EXTRACT: note_on channel=9 note=35 velocity=89 time=0.005040322916666667
EXTRACT: note_on channel=12 note=23 velocity=89 time=0
EXTRACT: note_on channel=9 note=76 velocity=80 time=0.0025201614583333335
EXTRACT: note_on channel=9 note=82 velocity=0 time=0.0025201614583333335
EXTRACT: note_on channel=9 note=63 velocity=0 time=0
EXTRACT: note_on channel=9 note=46 velocity=0 time=0
EXTRACT: note_on channel=9 note=86 velocity=108 time=0.0025201614583333335
EXTRACT: note_on channel=9 note=35 velocity=0 time=0.0025201614583333335
EXTRACT: note_on channel=9 note=76 velocity=0 time=0.0025201614583333335
EXTRACT: note_on channel=9 note=86 velocity=0 time=0.005040322916666667
EXTRACT: note_on channel=12 note=23 velocity=0 time=0.015120968750000002
EXTRACT: note_on channel=9 note=82 velocity=43 time=0.08316532812500001
EXTRACT: note_on channel=9 note=82 velocity=0 time=0.010080645833333334
EXTRACT: note_on channel=3 note=72 velocity=0 time=0
EXTRACT: note_on channel=9 note=86 velocity=95 time=0.005040322916666667
EXTRACT: note_on channel=9 note=86 velocity=0 time=0.010080645833333334
EXTRACT: note_on channel=5 note=55 velocity=107 time=0.09324597395833334
EXTRACT: note_on channel=6 note=60 velocity=119 time=0
EXTRACT: note_on channel=10 note=58 velocity=89 time=0
EXTRACT: note_on channel=15 note=55 velocity=1 time=0
EXTRACT: note_on channel=15 note=60 velocity=1 time=0
EXTRACT: note_on channel=1 note=24 velocity=0 time=0.0025201614583333335
EXTRACT: note_on channel=13 note=36 velocity=0 time=0
EXTRACT: note_on channel=2 note=36 velocity=0 time=0
EXTRACT: note_on channel=4 note=64 velocity=127 time=0
EXTRACT: note_on channel=4 note=70 velocity=107 time=0
EXTRACT: note_on channel=7 note=64 velocity=98 time=0
EXTRACT: note_on channel=7 note=67 velocity=102 time=0
EXTRACT: note_on channel=7 note=70 velocity=102 time=0
EXTRACT: note_on channel=9 note=59 velocity=70 time=0
EXTRACT: note_on channel=9 note=64 velocity=102 time=0
EXTRACT: note_on channel=9 note=82 velocity=79 time=0
EXTRACT: note_on channel=15 note=64 velocity=1 time=0
EXTRACT: note_on channel=15 note=70 velocity=1 time=0
EXTRACT: note_on channel=9 note=35 velocity=102 time=0.005040322916666667
EXTRACT: note_on channel=12 note=23 velocity=102 time=0
EXTRACT: note_on channel=9 note=86 velocity=108 time=0.0025201614583333335
EXTRACT: note_on channel=9 note=82 velocity=0 time=0.0025201614583333335
EXTRACT: note_on channel=9 note=64 velocity=0 time=0
EXTRACT: note_on channel=9 note=59 velocity=0 time=0
EXTRACT: note_on channel=1 note=31 velocity=113 time=0
EXTRACT: note_on channel=2 note=43 velocity=119 time=0
EXTRACT: note_on channel=13 note=43 velocity=101 time=0
EXTRACT: note_on channel=10 note=60 velocity=0 time=0.0025201614583333335
EXTRACT: note_on channel=9 note=35 velocity=0 time=0.0025201614583333335
EXTRACT: note_on channel=9 note=86 velocity=0 time=0.0025201614583333335
EXTRACT: note_on channel=15 note=60 velocity=0 time=0.017641130208333335
EXTRACT: note_on channel=5 note=55 velocity=0 time=0
EXTRACT: note_on channel=6 note=60 velocity=0 time=0
EXTRACT: note_on channel=15 note=55 velocity=0 time=0
EXTRACT: note_on channel=7 note=64 velocity=0 time=0.0025201614583333335
EXTRACT: note_on channel=4 note=70 velocity=0 time=0
EXTRACT: note_on channel=7 note=70 velocity=0 time=0
EXTRACT: note_on channel=15 note=70 velocity=0 time=0
EXTRACT: note_on channel=7 note=67 velocity=0 time=0
EXTRACT: note_on channel=4 note=64 velocity=0 time=0
EXTRACT: note_on channel=12 note=23 velocity=0 time=0
EXTRACT: note_on channel=15 note=64 velocity=0 time=0
EXTRACT: note_on channel=5 note=55 velocity=102 time=0.08064516666666667
EXTRACT: note_on channel=6 note=60 velocity=113 time=0
EXTRACT: note_on channel=15 note=55 velocity=1 time=0
EXTRACT: note_on channel=15 note=60 velocity=1 time=0
EXTRACT: note_on channel=4 note=64 velocity=113 time=0.0025201614583333335
EXTRACT: note_on channel=4 note=70 velocity=93 time=0
EXTRACT: note_on channel=7 note=64 velocity=89 time=0
EXTRACT: note_on channel=7 note=67 velocity=93 time=0
EXTRACT: note_on channel=7 note=70 velocity=93 time=0
EXTRACT: note_on channel=9 note=82 velocity=67 time=0
EXTRACT: note_on channel=15 note=64 velocity=1 time=0
EXTRACT: note_on channel=15 note=70 velocity=1 time=0
EXTRACT: note_on channel=9 note=82 velocity=0 time=0.010080645833333334
EXTRACT: note_on channel=9 note=86 velocity=113 time=0
EXTRACT: note_on channel=9 note=86 velocity=0 time=0.010080645833333334
EXTRACT: note_on channel=15 note=55 velocity=0 time=0.015120968750000002
EXTRACT: note_on channel=15 note=60 velocity=0 time=0
EXTRACT: note_on channel=6 note=60 velocity=0 time=0
EXTRACT: note_on channel=5 note=55 velocity=0 time=0
EXTRACT: note_on channel=15 note=70 velocity=0 time=0.0025201614583333335
EXTRACT: note_on channel=4 note=70 velocity=0 time=0
EXTRACT: note_on channel=4 note=64 velocity=0 time=0
EXTRACT: note_on channel=7 note=64 velocity=0 time=0
EXTRACT: note_on channel=7 note=67 velocity=0 time=0
EXTRACT: note_on channel=15 note=64 velocity=0 time=0
EXTRACT: note_on channel=7 note=70 velocity=0 time=0
EXTRACT: note_on channel=5 note=55 velocity=72 time=0.08064516666666667
EXTRACT: note_on channel=6 note=60 velocity=107 time=0
EXTRACT: note_on channel=15 note=55 velocity=1 time=0
EXTRACT: note_on channel=15 note=60 velocity=1 time=0
EXTRACT: note_on channel=4 note=64 velocity=102 time=0.0025201614583333335
EXTRACT: note_on channel=4 note=70 velocity=107 time=0
EXTRACT: note_on channel=7 note=64 velocity=76 time=0
EXTRACT: note_on channel=7 note=67 velocity=98 time=0
EXTRACT: note_on channel=7 note=70 velocity=102 time=0
EXTRACT: note_on channel=9 note=46 velocity=60 time=0
EXTRACT: note_on channel=9 note=63 velocity=98 time=0
EXTRACT: note_on channel=9 note=82 velocity=54 time=0
EXTRACT: note_on channel=15 note=64 velocity=1 time=0
EXTRACT: note_on channel=15 note=70 velocity=1 time=0
EXTRACT: note_on channel=9 note=82 velocity=0 time=0.010080645833333334
EXTRACT: note_on channel=9 note=63 velocity=0 time=0
EXTRACT: note_on channel=9 note=46 velocity=0 time=0
EXTRACT: note_on channel=15 note=55 velocity=0 time=0.025201614583333334
EXTRACT: note_on channel=6 note=60 velocity=0 time=0
EXTRACT: note_on channel=15 note=60 velocity=0 time=0
EXTRACT: note_on channel=5 note=55 velocity=0 time=0
EXTRACT: note_on channel=15 note=64 velocity=0 time=0.0025201614583333335
EXTRACT: note_on channel=4 note=70 velocity=0 time=0
EXTRACT: note_on channel=4 note=64 velocity=0 time=0
EXTRACT: note_on channel=15 note=70 velocity=0 time=0
EXTRACT: note_on channel=7 note=64 velocity=0 time=0
EXTRACT: note_on channel=7 note=67 velocity=0 time=0
EXTRACT: note_on channel=7 note=70 velocity=0 time=0
EXTRACT: note_on channel=2 note=43 velocity=0 time=0.04284274479166667
EXTRACT: note_on channel=1 note=31 velocity=0 time=0
EXTRACT: note_on channel=13 note=43 velocity=0 time=0
EXTRACT: note_on channel=1 note=27 velocity=110 time=0.03528226041666667
EXTRACT: note_on channel=2 note=39 velocity=117 time=0
EXTRACT: note_on channel=13 note=39 velocity=97 time=0
EXTRACT: note_on channel=5 note=55 velocity=107 time=0.0025201614583333335
EXTRACT: note_on channel=6 note=60 velocity=113 time=0
EXTRACT: note_on channel=15 note=55 velocity=1 time=0
EXTRACT: note_on channel=15 note=60 velocity=1 time=0
EXTRACT: note_on channel=4 note=64 velocity=102 time=0.0025201614583333335
EXTRACT: note_on channel=4 note=70 velocity=93 time=0
EXTRACT: note_on channel=7 note=64 velocity=89 time=0
EXTRACT: note_on channel=7 note=67 velocity=102 time=0
EXTRACT: note_on channel=7 note=70 velocity=107 time=0
EXTRACT: note_on channel=9 note=82 velocity=42 time=0
EXTRACT: note_on channel=15 note=64 velocity=1 time=0
EXTRACT: note_on channel=15 note=70 velocity=1 time=0
EXTRACT: note_on channel=9 note=86 velocity=113 time=0.005040322916666667
EXTRACT: note_on channel=9 note=82 velocity=0 time=0.005040322916666667
EXTRACT: note_on channel=9 note=86 velocity=0 time=0.005040322916666667
EXTRACT: note_on channel=9 note=76 velocity=80 time=0.007560484375000001
EXTRACT: note_on channel=9 note=76 velocity=0 time=0.010080645833333334
EXTRACT: note_on channel=15 note=55 velocity=0 time=0.0025201614583333335
EXTRACT: note_on channel=15 note=60 velocity=0 time=0
EXTRACT: note_on channel=6 note=60 velocity=0 time=0
EXTRACT: note_on channel=5 note=55 velocity=0 time=0
EXTRACT: note_on channel=4 note=64 velocity=0 time=0.0025201614583333335
EXTRACT: note_on channel=4 note=70 velocity=0 time=0
EXTRACT: note_on channel=15 note=70 velocity=0 time=0
EXTRACT: note_on channel=7 note=64 velocity=0 time=0
EXTRACT: note_on channel=7 note=67 velocity=0 time=0
EXTRACT: note_on channel=15 note=64 velocity=0 time=0
EXTRACT: note_on channel=7 note=70 velocity=0 time=0
EXTRACT: note_on channel=5 note=55 velocity=93 time=0.08064516666666667
EXTRACT: note_on channel=6 note=60 velocity=113 time=0
EXTRACT: note_on channel=15 note=55 velocity=1 time=0
EXTRACT: note_on channel=15 note=60 velocity=1 time=0
EXTRACT: note_on channel=4 note=64 velocity=119 time=0.0025201614583333335
EXTRACT: note_on channel=4 note=70 velocity=127 time=0
EXTRACT: note_on channel=7 note=64 velocity=75 time=0
EXTRACT: note_on channel=7 note=67 velocity=84 time=0
EXTRACT: note_on channel=7 note=70 velocity=84 time=0
EXTRACT: note_on channel=9 note=59 velocity=70 time=0
EXTRACT: note_on channel=9 note=62 velocity=107 time=0
EXTRACT: note_on channel=9 note=82 velocity=79 time=0
EXTRACT: note_on channel=15 note=64 velocity=1 time=0
EXTRACT: note_on channel=15 note=70 velocity=1 time=0
EXTRACT: note_on channel=9 note=40 velocity=120 time=0.0025201614583333335
EXTRACT: note_on channel=9 note=82 velocity=0 time=0.007560484375000001
EXTRACT: note_on channel=9 note=62 velocity=0 time=0
EXTRACT: note_on channel=9 note=59 velocity=0 time=0
EXTRACT: note_on channel=9 note=40 velocity=0 time=0.0025201614583333335
EXTRACT: note_on channel=9 note=82 velocity=68 time=0.10836694270833334
EXTRACT: note_on channel=9 note=82 velocity=0 time=0.010080645833333334
EXTRACT: note_on channel=1 note=27 velocity=0 time=0.098286296875
EXTRACT: note_on channel=13 note=39 velocity=0 time=0
EXTRACT: note_on channel=2 note=39 velocity=0 time=0
EXTRACT: note_on channel=15 note=70 velocity=0 time=0.0025201614583333335
EXTRACT: note_on channel=4 note=70 velocity=0 time=0
EXTRACT: note_on channel=1 note=24 velocity=107 time=0.0025201614583333335
EXTRACT: note_on channel=2 note=36 velocity=113 time=0
EXTRACT: note_on channel=13 note=36 velocity=94 time=0
EXTRACT: note_on channel=15 note=64 velocity=0 time=0.0025201614583333335
EXTRACT: note_on channel=4 note=64 velocity=0 time=0
EXTRACT: note_on channel=3 note=70 velocity=97 time=0.005040322916666667
EXTRACT: note_on channel=9 note=46 velocity=52 time=0
EXTRACT: note_on channel=9 note=61 velocity=102 time=0
EXTRACT: note_on channel=9 note=82 velocity=54 time=0
EXTRACT: note_on channel=9 note=86 velocity=113 time=0.005040322916666667
EXTRACT: note_on channel=9 note=82 velocity=0 time=0.005040322916666667
EXTRACT: note_on channel=9 note=61 velocity=0 time=0
EXTRACT: note_on channel=9 note=46 velocity=0 time=0
EXTRACT: note_on channel=9 note=76 velocity=80 time=0.0025201614583333335
EXTRACT: note_on channel=9 note=86 velocity=0 time=0.0025201614583333335
EXTRACT: note_on channel=9 note=76 velocity=0 time=0.007560484375000001
EXTRACT: note_on channel=6 note=60 velocity=0 time=0.012600807291666667
EXTRACT: note_on channel=15 note=60 velocity=0 time=0
EXTRACT: note_on channel=3 note=70 velocity=0 time=0.007560484375000001
EXTRACT: note_on channel=15 note=55 velocity=0 time=0.017641130208333335
EXTRACT: note_on channel=5 note=55 velocity=0 time=0
EXTRACT: note_on channel=7 note=64 velocity=0 time=0.010080645833333334
EXTRACT: note_on channel=7 note=67 velocity=0 time=0
EXTRACT: note_on channel=7 note=70 velocity=0 time=0
EXTRACT: note_on channel=3 note=70 velocity=97 time=0.05040322916666667
EXTRACT: note_on channel=9 note=35 velocity=72 time=0
EXTRACT: note_on channel=9 note=61 velocity=98 time=0
EXTRACT: note_on channel=9 note=82 velocity=45 time=0
EXTRACT: note_on channel=9 note=86 velocity=82 time=0
EXTRACT: note_on channel=12 note=23 velocity=72 time=0
EXTRACT: note_on channel=9 note=86 velocity=0 time=0.010080645833333334
EXTRACT: note_on channel=9 note=82 velocity=0 time=0
EXTRACT: note_on channel=9 note=61 velocity=0 time=0
EXTRACT: note_on channel=9 note=35 velocity=0 time=0
EXTRACT: note_on channel=12 note=23 velocity=0 time=0.022681453125
EXTRACT: note_on channel=3 note=70 velocity=0 time=0.020161291666666668
EXTRACT: note_on channel=9 note=86 velocity=119 time=0.06300403645833334
EXTRACT: note_on channel=3 note=70 velocity=88 time=0.005040322916666667
EXTRACT: note_on channel=9 note=59 velocity=70 time=0
EXTRACT: note_on channel=9 note=82 velocity=78 time=0
EXTRACT: note_on channel=9 note=86 velocity=0 time=0.005040322916666667
EXTRACT: note_on channel=9 note=82 velocity=0 time=0.005040322916666667
EXTRACT: note_on channel=9 note=59 velocity=0 time=0
EXTRACT: note_on channel=10 note=58 velocity=0 time=0.015120968750000002
EXTRACT: note_on channel=3 note=70 velocity=0 time=0.022681453125
EXTRACT: note_on channel=9 note=35 velocity=102 time=0.07056452083333334
EXTRACT: note_on channel=12 note=23 velocity=102 time=0
EXTRACT: note_on channel=3 note=70 velocity=97 time=0.0025201614583333335
EXTRACT: note_on channel=9 note=61 velocity=107 time=0
EXTRACT: note_on channel=9 note=82 velocity=68 time=0
EXTRACT: note_on channel=9 note=86 velocity=113 time=0
EXTRACT: note_on channel=9 note=35 velocity=0 time=0.007560484375000001
EXTRACT: note_on channel=9 note=86 velocity=0 time=0.0025201614583333335
EXTRACT: note_on channel=9 note=82 velocity=0 time=0
EXTRACT: note_on channel=9 note=61 velocity=0 time=0
EXTRACT: note_on channel=12 note=23 velocity=0 time=0.020161291666666668
EXTRACT: note_on channel=3 note=70 velocity=0 time=0.025201614583333334
EXTRACT: note_on channel=10 note=55 velocity=93 time=0.06300403645833334
EXTRACT: note_on channel=3 note=70 velocity=102 time=0.0025201614583333335
EXTRACT: note_on channel=9 note=35 velocity=98 time=0
EXTRACT: note_on channel=9 note=46 velocity=60 time=0
EXTRACT: note_on channel=9 note=82 velocity=58 time=0
EXTRACT: note_on channel=12 note=23 velocity=98 time=0
EXTRACT: note_on channel=1 note=31 velocity=113 time=0.0025201614583333335
EXTRACT: note_on channel=2 note=43 velocity=119 time=0
EXTRACT: note_on channel=13 note=43 velocity=101 time=0
EXTRACT: note_on channel=9 note=82 velocity=0 time=0.007560484375000001
EXTRACT: note_on channel=9 note=46 velocity=0 time=0
EXTRACT: note_on channel=9 note=35 velocity=0 time=0
EXTRACT: note_on channel=13 note=36 velocity=0 time=0.015120968750000002
EXTRACT: note_on channel=2 note=36 velocity=0 time=0
EXTRACT: note_on channel=1 note=24 velocity=0 time=0
EXTRACT: note_on channel=12 note=23 velocity=0 time=0.007560484375000001
EXTRACT: note_on channel=3 note=70 velocity=0 time=0.022681453125
EXTRACT: note_on channel=9 note=86 velocity=119 time=0.06300403645833334
EXTRACT: note_on channel=3 note=72 velocity=101 time=0.0025201614583333335
EXTRACT: note_on channel=9 note=61 velocity=107 time=0
EXTRACT: note_on channel=9 note=82 velocity=42 time=0
EXTRACT: note_on channel=9 note=86 velocity=0 time=0.007560484375000001
EXTRACT: note_on channel=9 note=82 velocity=0 time=0.0025201614583333335
EXTRACT: note_on channel=9 note=61 velocity=0 time=0
EXTRACT: note_on channel=9 note=76 velocity=80 time=0.012600807291666667
EXTRACT: note_on channel=9 note=76 velocity=0 time=0.010080645833333334
EXTRACT: note_on channel=2 note=43 velocity=0 time=0.07812500520833333
EXTRACT: note_on channel=1 note=31 velocity=0 time=0
EXTRACT: note_on channel=13 note=43 velocity=0 time=0
EXTRACT: note_on channel=9 note=40 velocity=120 time=0.010080645833333334
EXTRACT: note_on channel=9 note=59 velocity=70 time=0
EXTRACT: note_on channel=9 note=62 velocity=107 time=0
EXTRACT: note_on channel=9 note=82 velocity=78 time=0
EXTRACT: note_on channel=10 note=56 velocity=89 time=0
EXTRACT: note_on channel=1 note=28 velocity=107 time=0.005040322916666667
EXTRACT: note_on channel=2 note=40 velocity=113 time=0
EXTRACT: note_on channel=13 note=40 velocity=95 time=0
EXTRACT: note_on channel=9 note=82 velocity=0 time=0.005040322916666667
EXTRACT: note_on channel=9 note=59 velocity=0 time=0
EXTRACT: note_on channel=9 note=40 velocity=0 time=0
EXTRACT: note_on channel=9 note=62 velocity=0 time=0
EXTRACT: note_on channel=3 note=72 velocity=0 time=0.012600807291666667
EXTRACT: note_on channel=10 note=55 velocity=0 time=0.005040322916666667
EXTRACT: note_on channel=3 note=70 velocity=101 time=0.09324597395833334
EXTRACT: note_on channel=9 note=82 velocity=64 time=0
EXTRACT: note_on channel=9 note=82 velocity=0 time=0.010080645833333334
EXTRACT: note_on channel=1 note=28 velocity=0 time=0.10584678125000001
EXTRACT: note_on channel=2 note=40 velocity=0 time=0
EXTRACT: note_on channel=13 note=40 velocity=0 time=0
EXTRACT: note_on channel=1 note=24 velocity=101 time=0.005040322916666667
EXTRACT: note_on channel=2 note=36 velocity=107 time=0
EXTRACT: note_on channel=9 note=46 velocity=47 time=0
EXTRACT: note_on channel=9 note=63 velocity=102 time=0
EXTRACT: note_on channel=9 note=82 velocity=51 time=0
EXTRACT: note_on channel=13 note=36 velocity=89 time=0
EXTRACT: note_on channel=9 note=86 velocity=113 time=0.0025201614583333335
EXTRACT: note_on channel=10 note=58 velocity=89 time=0
EXTRACT: note_on channel=9 note=35 velocity=85 time=0.005040322916666667
EXTRACT: note_on channel=9 note=76 velocity=80 time=0
EXTRACT: note_on channel=12 note=23 velocity=85 time=0
EXTRACT: note_on channel=9 note=82 velocity=0 time=0.0025201614583333335
EXTRACT: note_on channel=9 note=63 velocity=0 time=0
EXTRACT: note_on channel=9 note=46 velocity=0 time=0
EXTRACT: note_on channel=9 note=86 velocity=0 time=0.0025201614583333335
EXTRACT: note_on channel=9 note=35 velocity=0 time=0.005040322916666667
EXTRACT: note_on channel=9 note=76 velocity=0 time=0
EXTRACT: note_on channel=10 note=56 velocity=0 time=0.0025201614583333335
EXTRACT: note_on channel=12 note=23 velocity=0 time=0.020161291666666668
EXTRACT: note_on channel=3 note=70 velocity=0 time=0.040322583333333335
EXTRACT: note_on channel=9 note=82 velocity=43 time=0.040322583333333335
EXTRACT: note_on channel=9 note=86 velocity=91 time=0.0025201614583333335
EXTRACT: note_on channel=9 note=82 velocity=0 time=0.007560484375000001
EXTRACT: note_on channel=9 note=86 velocity=0 time=0.0025201614583333335
EXTRACT: note_on channel=2 note=36 velocity=0 time=0.09324597395833334
EXTRACT: note_on channel=1 note=24 velocity=0 time=0
EXTRACT: note_on channel=13 note=36 velocity=0 time=0
EXTRACT: note_on channel=9 note=86 velocity=113 time=0.007560484375000001
EXTRACT: note_on channel=4 note=65 velocity=107 time=0.007560484375000001
EXTRACT: note_on channel=4 note=72 velocity=118 time=0
EXTRACT: note_on channel=5 note=56 velocity=107 time=0
EXTRACT: note_on channel=6 note=60 velocity=114 time=0
EXTRACT: note_on channel=7 note=65 velocity=93 time=0
EXTRACT: note_on channel=7 note=68 velocity=102 time=0
EXTRACT: note_on channel=7 note=72 velocity=102 time=0
EXTRACT: note_on channel=9 note=59 velocity=70 time=0
EXTRACT: note_on channel=9 note=64 velocity=102 time=0
EXTRACT: note_on channel=9 note=82 velocity=79 time=0
EXTRACT: note_on channel=15 note=56 velocity=1 time=0
EXTRACT: note_on channel=15 note=60 velocity=1 time=0
EXTRACT: note_on channel=15 note=65 velocity=1 time=0
EXTRACT: note_on channel=15 note=72 velocity=1 time=0
EXTRACT: note_on channel=9 note=86 velocity=0 time=0.0025201614583333335
EXTRACT: note_on channel=1 note=32 velocity=107 time=0
EXTRACT: note_on channel=2 note=44 velocity=113 time=0
EXTRACT: note_on channel=13 note=44 velocity=95 time=0
EXTRACT: note_on channel=9 note=35 velocity=107 time=0.0025201614583333335
EXTRACT: note_on channel=10 note=60 velocity=93 time=0
EXTRACT: note_on channel=12 note=23 velocity=107 time=0
EXTRACT: note_on channel=10 note=58 velocity=0 time=0.0025201614583333335
EXTRACT: note_on channel=9 note=64 velocity=0 time=0.0025201614583333335
EXTRACT: note_on channel=9 note=59 velocity=0 time=0
EXTRACT: note_on channel=9 note=82 velocity=0 time=0
EXTRACT: note_on channel=9 note=35 velocity=0 time=0.005040322916666667
EXTRACT: note_on channel=7 note=72 velocity=0 time=0.022681453125
EXTRACT: note_on channel=15 note=72 velocity=0 time=0
EXTRACT: note_on channel=15 note=60 velocity=0 time=0
EXTRACT: note_on channel=6 note=60 velocity=0 time=0
EXTRACT: note_on channel=7 note=65 velocity=0 time=0
EXTRACT: note_on channel=4 note=65 velocity=0 time=0
EXTRACT: note_on channel=4 note=72 velocity=0 time=0
EXTRACT: note_on channel=5 note=56 velocity=0 time=0
EXTRACT: note_on channel=12 note=23 velocity=0 time=0
EXTRACT: note_on channel=7 note=68 velocity=0 time=0
EXTRACT: note_on channel=15 note=65 velocity=0 time=0
EXTRACT: note_on channel=15 note=56 velocity=0 time=0
EXTRACT: note_on channel=5 note=56 velocity=102 time=0.08064516666666667
EXTRACT: note_on channel=6 note=60 velocity=113 time=0
EXTRACT: note_on channel=9 note=86 velocity=119 time=0
EXTRACT: note_on channel=15 note=56 velocity=1 time=0
EXTRACT: note_on channel=15 note=60 velocity=1 time=0
EXTRACT: note_on channel=4 note=65 velocity=93 time=0.0025201614583333335
EXTRACT: note_on channel=4 note=72 velocity=113 time=0
EXTRACT: note_on channel=7 note=65 velocity=76 time=0
EXTRACT: note_on channel=7 note=68 velocity=89 time=0
EXTRACT: note_on channel=7 note=72 velocity=98 time=0
EXTRACT: note_on channel=9 note=82 velocity=67 time=0
EXTRACT: note_on channel=15 note=65 velocity=1 time=0
EXTRACT: note_on channel=15 note=72 velocity=1 time=0
EXTRACT: note_on channel=9 note=86 velocity=0 time=0.007560484375000001
EXTRACT: note_on channel=9 note=82 velocity=0 time=0.0025201614583333335
EXTRACT: note_on channel=15 note=60 velocity=0 time=0.025201614583333334
EXTRACT: note_on channel=15 note=56 velocity=0 time=0
EXTRACT: note_on channel=6 note=60 velocity=0 time=0
EXTRACT: note_on channel=5 note=56 velocity=0 time=0
EXTRACT: note_on channel=15 note=65 velocity=0 time=0.0025201614583333335
EXTRACT: note_on channel=4 note=65 velocity=0 time=0
EXTRACT: note_on channel=15 note=72 velocity=0 time=0
EXTRACT: note_on channel=4 note=72 velocity=0 time=0
EXTRACT: note_on channel=7 note=65 velocity=0 time=0
EXTRACT: note_on channel=7 note=72 velocity=0 time=0
EXTRACT: note_on channel=7 note=68 velocity=0 time=0
EXTRACT: note_on channel=5 note=56 velocity=72 time=0.08064516666666667
EXTRACT: note_on channel=6 note=60 velocity=107 time=0
EXTRACT: note_on channel=15 note=56 velocity=1 time=0
EXTRACT: note_on channel=15 note=60 velocity=1 time=0
EXTRACT: note_on channel=4 note=65 velocity=107 time=0.0025201614583333335
EXTRACT: note_on channel=4 note=72 velocity=102 time=0
EXTRACT: note_on channel=7 note=65 velocity=56 time=0
EXTRACT: note_on channel=7 note=68 velocity=89 time=0
EXTRACT: note_on channel=7 note=72 velocity=89 time=0
EXTRACT: note_on channel=9 note=46 velocity=60 time=0
EXTRACT: note_on channel=9 note=63 velocity=98 time=0
EXTRACT: note_on channel=9 note=82 velocity=54 time=0
EXTRACT: note_on channel=15 note=65 velocity=1 time=0
EXTRACT: note_on channel=15 note=72 velocity=1 time=0
EXTRACT: note_on channel=9 note=82 velocity=0 time=0.010080645833333334
EXTRACT: note_on channel=9 note=63 velocity=0 time=0
EXTRACT: note_on channel=9 note=46 velocity=0 time=0
EXTRACT: note_on channel=15 note=56 velocity=0 time=0.025201614583333334
EXTRACT: note_on channel=6 note=60 velocity=0 time=0
EXTRACT: note_on channel=15 note=60 velocity=0 time=0
EXTRACT: note_on channel=5 note=56 velocity=0 time=0
EXTRACT: note_on channel=15 note=65 velocity=0 time=0.0025201614583333335
EXTRACT: note_on channel=4 note=72 velocity=0 time=0
EXTRACT: note_on channel=4 note=65 velocity=0 time=0
EXTRACT: note_on channel=15 note=72 velocity=0 time=0
EXTRACT: note_on channel=7 note=65 velocity=0 time=0
EXTRACT: note_on channel=7 note=68 velocity=0 time=0
EXTRACT: note_on channel=7 note=72 velocity=0 time=0
EXTRACT: note_on channel=1 note=32 velocity=0 time=0.040322583333333335
EXTRACT: note_on channel=13 note=44 velocity=0 time=0
EXTRACT: note_on channel=2 note=44 velocity=0 time=0
EXTRACT: note_on channel=1 note=29 velocity=113 time=0.027721776041666667
EXTRACT: note_on channel=2 note=41 velocity=119 time=0
EXTRACT: note_on channel=13 note=41 velocity=101 time=0
EXTRACT: note_on channel=5 note=56 velocity=107 time=0.012600807291666667
EXTRACT: note_on channel=6 note=60 velocity=113 time=0
EXTRACT: note_on channel=15 note=56 velocity=1 time=0
EXTRACT: note_on channel=15 note=60 velocity=1 time=0
EXTRACT: note_on channel=4 note=65 velocity=93 time=0.0025201614583333335
EXTRACT: note_on channel=4 note=72 velocity=102 time=0
EXTRACT: note_on channel=7 note=65 velocity=47 time=0
EXTRACT: note_on channel=7 note=68 velocity=107 time=0
EXTRACT: note_on channel=7 note=72 velocity=102 time=0
EXTRACT: note_on channel=9 note=82 velocity=42 time=0
EXTRACT: note_on channel=15 note=65 velocity=1 time=0
EXTRACT: note_on channel=15 note=72 velocity=1 time=0
EXTRACT: note_on channel=9 note=82 velocity=0 time=0.010080645833333334
EXTRACT: note_on channel=9 note=76 velocity=80 time=0.012600807291666667
EXTRACT: note_on channel=9 note=76 velocity=0 time=0.010080645833333334
EXTRACT: note_on channel=15 note=56 velocity=0 time=0.0025201614583333335
EXTRACT: note_on channel=15 note=60 velocity=0 time=0
EXTRACT: note_on channel=6 note=60 velocity=0 time=0
EXTRACT: note_on channel=5 note=56 velocity=0 time=0
EXTRACT: note_on channel=15 note=72 velocity=0 time=0.0025201614583333335
EXTRACT: note_on channel=4 note=72 velocity=0 time=0
EXTRACT: note_on channel=4 note=65 velocity=0 time=0
EXTRACT: note_on channel=7 note=65 velocity=0 time=0
EXTRACT: note_on channel=7 note=68 velocity=0 time=0
EXTRACT: note_on channel=15 note=65 velocity=0 time=0
EXTRACT: note_on channel=7 note=72 velocity=0 time=0
EXTRACT: note_on channel=5 note=56 velocity=93 time=0.08064516666666667
EXTRACT: note_on channel=6 note=60 velocity=113 time=0
EXTRACT: note_on channel=15 note=56 velocity=1 time=0
EXTRACT: note_on channel=15 note=60 velocity=1 time=0
EXTRACT: note_on channel=4 note=65 velocity=119 time=0.0025201614583333335
EXTRACT: note_on channel=4 note=72 velocity=120 time=0
EXTRACT: note_on channel=7 note=65 velocity=75 time=0
EXTRACT: note_on channel=7 note=68 velocity=75 time=0
EXTRACT: note_on channel=7 note=72 velocity=75 time=0
EXTRACT: note_on channel=9 note=59 velocity=70 time=0
EXTRACT: note_on channel=9 note=62 velocity=113 time=0
EXTRACT: note_on channel=9 note=82 velocity=79 time=0
EXTRACT: note_on channel=15 note=65 velocity=1 time=0
EXTRACT: note_on channel=15 note=72 velocity=1 time=0
EXTRACT: note_on channel=9 note=40 velocity=120 time=0.005040322916666667
EXTRACT: note_on channel=9 note=82 velocity=0 time=0.005040322916666667
EXTRACT: note_on channel=9 note=62 velocity=0 time=0
EXTRACT: note_on channel=9 note=59 velocity=0 time=0
EXTRACT: note_on channel=9 note=40 velocity=0 time=0.005040322916666667
EXTRACT: note_on channel=9 note=82 velocity=68 time=0.10584678125000001
EXTRACT: note_on channel=9 note=82 velocity=0 time=0.010080645833333334
EXTRACT: note_on channel=15 note=65 velocity=0 time=0.060483875000000006
EXTRACT: note_on channel=4 note=65 velocity=0 time=0
EXTRACT: note_on channel=15 note=72 velocity=0 time=0
EXTRACT: note_on channel=4 note=72 velocity=0 time=0
EXTRACT: note_on channel=5 note=56 velocity=0 time=0.012600807291666667
EXTRACT: note_on channel=6 note=60 velocity=0 time=0
EXTRACT: note_on channel=13 note=41 velocity=0 time=0
EXTRACT: note_on channel=15 note=56 velocity=0 time=0
EXTRACT: note_on channel=1 note=29 velocity=0 time=0
EXTRACT: note_on channel=15 note=60 velocity=0 time=0
EXTRACT: note_on channel=2 note=41 velocity=0 time=0
EXTRACT: note_on channel=7 note=65 velocity=0 time=0.0025201614583333335
EXTRACT: note_on channel=7 note=72 velocity=0 time=0
EXTRACT: note_on channel=7 note=68 velocity=0 time=0.015120968750000002
EXTRACT: note_on channel=1 note=24 velocity=101 time=0.0025201614583333335
EXTRACT: note_on channel=2 note=36 velocity=107 time=0
EXTRACT: note_on channel=13 note=36 velocity=89 time=0
EXTRACT: note_on channel=9 note=86 velocity=119 time=0.007560484375000001
EXTRACT: note_on channel=5 note=56 velocity=93 time=0.007560484375000001
EXTRACT: note_on channel=6 note=60 velocity=102 time=0
EXTRACT: note_on channel=15 note=56 velocity=1 time=0
EXTRACT: note_on channel=15 note=60 velocity=1 time=0
EXTRACT: note_on channel=9 note=86 velocity=0 time=0.0025201614583333335
EXTRACT: note_on channel=4 note=72 velocity=114 time=0
EXTRACT: note_on channel=7 note=65 velocity=89 time=0
EXTRACT: note_on channel=7 note=68 velocity=89 time=0
EXTRACT: note_on channel=7 note=72 velocity=89 time=0
EXTRACT: note_on channel=9 note=46 velocity=50 time=0
EXTRACT: note_on channel=9 note=61 velocity=107 time=0
EXTRACT: note_on channel=9 note=82 velocity=54 time=0
EXTRACT: note_on channel=15 note=72 velocity=1 time=0
EXTRACT: note_on channel=9 note=82 velocity=0 time=0.010080645833333334
EXTRACT: note_on channel=9 note=61 velocity=0 time=0
EXTRACT: note_on channel=9 note=46 velocity=0 time=0
EXTRACT: note_on channel=9 note=76 velocity=80 time=0.0025201614583333335
EXTRACT: note_on channel=9 note=76 velocity=0 time=0.010080645833333334
EXTRACT: note_on channel=9 note=86 velocity=104 time=0.08568548958333334
EXTRACT: note_on channel=7 note=65 velocity=0 time=0.007560484375000001
EXTRACT: note_on channel=9 note=86 velocity=0 time=0.0025201614583333335
EXTRACT: note_on channel=7 note=72 velocity=0 time=0.0025201614583333335
EXTRACT: note_on channel=9 note=61 velocity=102 time=0
EXTRACT: note_on channel=9 note=82 velocity=45 time=0
EXTRACT: note_on channel=7 note=68 velocity=0 time=0.0025201614583333335
EXTRACT: note_on channel=9 note=35 velocity=98 time=0.005040322916666667
EXTRACT: note_on channel=12 note=23 velocity=98 time=0
EXTRACT: note_on channel=9 note=82 velocity=0 time=0.0025201614583333335
EXTRACT: note_on channel=9 note=61 velocity=0 time=0
EXTRACT: note_on channel=9 note=35 velocity=0 time=0.007560484375000001
EXTRACT: note_on channel=12 note=23 velocity=0 time=0.022681453125
EXTRACT: note_on channel=15 note=72 velocity=0 time=0.022681453125
EXTRACT: note_on channel=4 note=72 velocity=0 time=0
EXTRACT: note_on channel=15 note=56 velocity=0 time=0.012600807291666667
EXTRACT: note_on channel=5 note=56 velocity=0 time=0
EXTRACT: note_on channel=15 note=60 velocity=0 time=0.010080645833333334
EXTRACT: note_on channel=6 note=60 velocity=0 time=0
EXTRACT: note_on channel=9 note=86 velocity=108 time=0.022681453125
EXTRACT: note_on channel=9 note=86 velocity=0 time=0.010080645833333334
EXTRACT: note_on channel=9 note=59 velocity=70 time=0.0025201614583333335
EXTRACT: note_on channel=9 note=82 velocity=78 time=0
EXTRACT: note_on channel=9 note=82 velocity=0 time=0.010080645833333334
EXTRACT: note_on channel=9 note=59 velocity=0 time=0
EXTRACT: note_on channel=10 note=60 velocity=0 time=0.04788306770833334
EXTRACT: note_on channel=9 note=86 velocity=104 time=0.05544355208333333
EXTRACT: note_on channel=9 note=61 velocity=98 time=0.007560484375000001
EXTRACT: note_on channel=9 note=82 velocity=68 time=0
EXTRACT: note_on channel=9 note=86 velocity=0 time=0.0025201614583333335
EXTRACT: note_on channel=9 note=35 velocity=85 time=0
EXTRACT: note_on channel=12 note=23 velocity=85 time=0
EXTRACT: note_on channel=9 note=61 velocity=0 time=0.007560484375000001
EXTRACT: note_on channel=9 note=82 velocity=0 time=0
EXTRACT: note_on channel=9 note=35 velocity=0 time=0.0025201614583333335
EXTRACT: note_on channel=12 note=23 velocity=0 time=0.022681453125
EXTRACT: note_on channel=1 note=32 velocity=107 time=0.07308468229166667
EXTRACT: note_on channel=2 note=44 velocity=113 time=0
EXTRACT: note_on channel=13 note=44 velocity=95 time=0
EXTRACT: note_on channel=13 note=36 velocity=0 time=0.005040322916666667
EXTRACT: note_on channel=1 note=24 velocity=0 time=0
EXTRACT: note_on channel=2 note=36 velocity=0 time=0
EXTRACT: note_on channel=10 note=60 velocity=93 time=0
EXTRACT: note_on channel=5 note=56 velocity=102 time=0.005040322916666667
EXTRACT: note_on channel=6 note=60 velocity=107 time=0
EXTRACT: note_on channel=15 note=56 velocity=1 time=0
EXTRACT: note_on channel=15 note=60 velocity=1 time=0
EXTRACT: note_on channel=4 note=72 velocity=115 time=0.0025201614583333335
EXTRACT: note_on channel=7 note=65 velocity=89 time=0
EXTRACT: note_on channel=7 note=68 velocity=93 time=0
EXTRACT: note_on channel=7 note=72 velocity=98 time=0
EXTRACT: note_on channel=9 note=46 velocity=60 time=0
EXTRACT: note_on channel=9 note=82 velocity=58 time=0
EXTRACT: note_on channel=15 note=72 velocity=1 time=0
EXTRACT: note_on channel=9 note=35 velocity=93 time=0.0025201614583333335
EXTRACT: note_on channel=12 note=23 velocity=93 time=0
EXTRACT: note_on channel=9 note=82 velocity=0 time=0.007560484375000001
EXTRACT: note_on channel=9 note=46 velocity=0 time=0
EXTRACT: note_on channel=9 note=35 velocity=0 time=0.0025201614583333335
EXTRACT: note_on channel=12 note=23 velocity=0 time=0.022681453125
EXTRACT: note_on channel=9 note=61 velocity=98 time=0.08568548958333334
EXTRACT: note_on channel=9 note=82 velocity=42 time=0
EXTRACT: note_on channel=9 note=82 velocity=0 time=0.010080645833333334
EXTRACT: note_on channel=9 note=61 velocity=0 time=0
EXTRACT: note_on channel=7 note=68 velocity=0 time=0.0025201614583333335
EXTRACT: note_on channel=7 note=65 velocity=0 time=0.0025201614583333335
EXTRACT: note_on channel=9 note=76 velocity=80 time=0.010080645833333334
EXTRACT: note_on channel=7 note=72 velocity=0 time=0.005040322916666667
EXTRACT: note_on channel=9 note=76 velocity=0 time=0.005040322916666667
EXTRACT: note_on channel=15 note=56 velocity=0 time=0.06552419791666667
EXTRACT: note_on channel=5 note=56 velocity=0 time=0
EXTRACT: note_on channel=4 note=72 velocity=0 time=0.005040322916666667
EXTRACT: note_on channel=15 note=72 velocity=0 time=0
EXTRACT: note_on channel=15 note=60 velocity=0 time=0.0025201614583333335
EXTRACT: note_on channel=6 note=60 velocity=0 time=0
EXTRACT: note_on channel=13 note=44 velocity=0 time=0.0025201614583333335
EXTRACT: note_on channel=1 note=32 velocity=0 time=0
EXTRACT: note_on channel=2 note=44 velocity=0 time=0
EXTRACT: note_on channel=1 note=29 velocity=107 time=0.0025201614583333335
EXTRACT: note_on channel=2 note=41 velocity=113 time=0
EXTRACT: note_on channel=10 note=61 velocity=93 time=0
EXTRACT: note_on channel=13 note=41 velocity=95 time=0
EXTRACT: note_on channel=9 note=40 velocity=120 time=0.005040322916666667
EXTRACT: note_on channel=9 note=59 velocity=70 time=0.0025201614583333335
EXTRACT: note_on channel=9 note=62 velocity=113 time=0
EXTRACT: note_on channel=9 note=82 velocity=78 time=0
EXTRACT: note_on channel=10 note=60 velocity=0 time=0.005040322916666667
EXTRACT: note_on channel=9 note=40 velocity=0 time=0.0025201614583333335
EXTRACT: note_on channel=9 note=82 velocity=0 time=0.0025201614583333335
EXTRACT: note_on channel=9 note=62 velocity=0 time=0
EXTRACT: note_on channel=9 note=59 velocity=0 time=0
EXTRACT: note_on channel=9 note=82 velocity=64 time=0.11088710416666667
EXTRACT: note_on channel=9 note=82 velocity=0 time=0.010080645833333334
EXTRACT: note_on channel=13 note=41 velocity=0 time=0.10080645833333333
EXTRACT: note_on channel=1 note=29 velocity=0 time=0
EXTRACT: note_on channel=2 note=41 velocity=0 time=0
EXTRACT: note_on channel=1 note=24 velocity=107 time=0.0025201614583333335
EXTRACT: note_on channel=2 note=36 velocity=113 time=0
EXTRACT: note_on channel=13 note=36 velocity=95 time=0
EXTRACT: note_on channel=10 note=61 velocity=0 time=0.0025201614583333335
EXTRACT: note_on channel=5 note=53 velocity=93 time=0.0025201614583333335
EXTRACT: note_on channel=6 note=56 velocity=110 time=0
EXTRACT: note_on channel=10 note=60 velocity=93 time=0
EXTRACT: note_on channel=15 note=53 velocity=1 time=0
EXTRACT: note_on channel=15 note=56 velocity=1 time=0
EXTRACT: note_on channel=4 note=68 velocity=113 time=0.0025201614583333335
EXTRACT: note_on channel=7 note=68 velocity=80 time=0
EXTRACT: note_on channel=9 note=46 velocity=55 time=0
EXTRACT: note_on channel=9 note=63 velocity=107 time=0
EXTRACT: note_on channel=9 note=82 velocity=51 time=0
EXTRACT: note_on channel=15 note=68 velocity=1 time=0
EXTRACT: note_on channel=9 note=35 velocity=93 time=0.0025201614583333335
EXTRACT: note_on channel=12 note=23 velocity=93 time=0
EXTRACT: note_on channel=9 note=86 velocity=113 time=0.0025201614583333335
EXTRACT: note_on channel=9 note=82 velocity=0 time=0.005040322916666667
EXTRACT: note_on channel=9 note=63 velocity=0 time=0
EXTRACT: note_on channel=9 note=46 velocity=0 time=0
EXTRACT: note_on channel=9 note=35 velocity=0 time=0.0025201614583333335
EXTRACT: note_on channel=9 note=76 velocity=80 time=0
EXTRACT: note_on channel=9 note=86 velocity=0 time=0.0025201614583333335
EXTRACT: note_on channel=9 note=76 velocity=0 time=0.007560484375000001
EXTRACT: note_on channel=12 note=23 velocity=0 time=0.012600807291666667
EXTRACT: note_on channel=9 note=82 velocity=43 time=0.08568548958333334
EXTRACT: note_on channel=9 note=86 velocity=82 time=0
EXTRACT: note_on channel=9 note=86 velocity=0 time=0.010080645833333334
EXTRACT: note_on channel=9 note=82 velocity=0 time=0
EXTRACT: note_on channel=10 note=60 velocity=0 time=0.0907258125
EXTRACT: note_on channel=5 note=53 velocity=0 time=0.0025201614583333335
EXTRACT: note_on channel=15 note=53 velocity=0 time=0
EXTRACT: note_on channel=13 note=36 velocity=0 time=0.007560484375000001
EXTRACT: note_on channel=1 note=24 velocity=0 time=0
EXTRACT: note_on channel=2 note=36 velocity=0 time=0
EXTRACT: note_on channel=1 note=31 velocity=113 time=0.0025201614583333335
EXTRACT: note_on channel=2 note=43 velocity=119 time=0
EXTRACT: note_on channel=13 note=43 velocity=101 time=0
EXTRACT: note_on channel=5 note=55 velocity=98 time=0.005040322916666667
EXTRACT: note_on channel=6 note=58 velocity=100 time=0
EXTRACT: note_on channel=6 note=72 velocity=80 time=0
EXTRACT: note_on channel=9 note=35 velocity=102 time=0
EXTRACT: note_on channel=9 note=86 velocity=119 time=0
EXTRACT: note_on channel=10 note=58 velocity=72 time=0
EXTRACT: note_on channel=12 note=23 velocity=102 time=0
EXTRACT: note_on channel=15 note=55 velocity=1 time=0
EXTRACT: note_on channel=15 note=58 velocity=1 time=0
EXTRACT: note_on channel=15 note=72 velocity=1 time=0
EXTRACT: note_on channel=15 note=56 velocity=0 time=0.0025201614583333335
EXTRACT: note_on channel=6 note=56 velocity=0 time=0
EXTRACT: note_on channel=4 note=70 velocity=113 time=0
EXTRACT: note_on channel=7 note=70 velocity=87 time=0
EXTRACT: note_on channel=9 note=59 velocity=70 time=0
EXTRACT: note_on channel=9 note=64 velocity=102 time=0
EXTRACT: note_on channel=9 note=82 velocity=79 time=0
EXTRACT: note_on channel=15 note=70 velocity=1 time=0
EXTRACT: note_on channel=9 note=86 velocity=0 time=0.007560484375000001
EXTRACT: note_on channel=9 note=35 velocity=0 time=0
EXTRACT: note_on channel=9 note=82 velocity=0 time=0.0025201614583333335
EXTRACT: note_on channel=9 note=64 velocity=0 time=0
EXTRACT: note_on channel=9 note=59 velocity=0 time=0
EXTRACT: note_on channel=7 note=68 velocity=0 time=0.0025201614583333335
EXTRACT: note_on channel=15 note=68 velocity=0 time=0.005040322916666667
EXTRACT: note_on channel=4 note=68 velocity=0 time=0
EXTRACT: note_on channel=12 note=23 velocity=0 time=0.012600807291666667
EXTRACT: note_on channel=9 note=82 velocity=67 time=0.0907258125
EXTRACT: note_on channel=9 note=86 velocity=104 time=0.005040322916666667
EXTRACT: note_on channel=9 note=82 velocity=0 time=0.005040322916666667
EXTRACT: note_on channel=9 note=86 velocity=0 time=0.005040322916666667
EXTRACT: note_on channel=9 note=46 velocity=60 time=0.10584678125000001
EXTRACT: note_on channel=9 note=63 velocity=113 time=0
EXTRACT: note_on channel=9 note=82 velocity=54 time=0
EXTRACT: note_on channel=9 note=82 velocity=0 time=0.010080645833333334
EXTRACT: note_on channel=9 note=63 velocity=0 time=0
EXTRACT: note_on channel=9 note=46 velocity=0 time=0
EXTRACT: note_on channel=13 note=43 velocity=0 time=0.05796371354166667
EXTRACT: note_on channel=1 note=31 velocity=0 time=0
EXTRACT: note_on channel=2 note=43 velocity=0 time=0
EXTRACT: note_on channel=1 note=28 velocity=107 time=0.03276209895833333
EXTRACT: note_on channel=2 note=40 velocity=113 time=0
EXTRACT: note_on channel=13 note=40 velocity=95 time=0
EXTRACT: note_on channel=9 note=82 velocity=42 time=0.020161291666666668
EXTRACT: note_on channel=9 note=82 velocity=0 time=0.010080645833333334
EXTRACT: note_on channel=9 note=76 velocity=80 time=0.015120968750000002
EXTRACT: note_on channel=9 note=76 velocity=0 time=0.010080645833333334
EXTRACT: note_on channel=15 note=70 velocity=0 time=0.05544355208333333
EXTRACT: note_on channel=4 note=70 velocity=0 time=0
EXTRACT: note_on channel=7 note=70 velocity=0 time=0.022681453125
EXTRACT: note_on channel=15 note=55 velocity=0 time=0.0025201614583333335
EXTRACT: note_on channel=5 note=55 velocity=0 time=0
EXTRACT: note_on channel=10 note=55 velocity=89 time=0
EXTRACT: note_on channel=5 note=52 velocity=93 time=0.0025201614583333335
EXTRACT: note_on channel=6 note=55 velocity=102 time=0
EXTRACT: note_on channel=6 note=70 velocity=76 time=0
EXTRACT: note_on channel=9 note=40 velocity=120 time=0
EXTRACT: note_on channel=15 note=52 velocity=1 time=0
EXTRACT: note_on channel=15 note=55 velocity=1 time=0
EXTRACT: note_on channel=15 note=70 velocity=1 time=0
EXTRACT: note_on channel=6 note=58 velocity=0 time=0.0025201614583333335
EXTRACT: note_on channel=15 note=58 velocity=0 time=0
EXTRACT: note_on channel=4 note=67 velocity=107 time=0
EXTRACT: note_on channel=7 note=67 velocity=84 time=0
EXTRACT: note_on channel=9 note=59 velocity=70 time=0
EXTRACT: note_on channel=9 note=62 velocity=119 time=0
EXTRACT: note_on channel=9 note=82 velocity=79 time=0
EXTRACT: note_on channel=15 note=67 velocity=1 time=0
EXTRACT: note_on channel=15 note=72 velocity=0 time=0.005040322916666667
EXTRACT: note_on channel=6 note=72 velocity=0 time=0
EXTRACT: note_on channel=9 note=40 velocity=0 time=0.0025201614583333335
EXTRACT: note_on channel=9 note=82 velocity=0 time=0.0025201614583333335
EXTRACT: note_on channel=9 note=62 velocity=0 time=0
EXTRACT: note_on channel=9 note=59 velocity=0 time=0
EXTRACT: note_on channel=10 note=58 velocity=0 time=0.0025201614583333335
EXTRACT: note_on channel=9 note=82 velocity=68 time=0.10836694270833334
EXTRACT: note_on channel=9 note=82 velocity=0 time=0.010080645833333334
EXTRACT: note_on channel=1 note=28 velocity=0 time=0.04284274479166667
EXTRACT: note_on channel=2 note=40 velocity=0 time=0
EXTRACT: note_on channel=13 note=40 velocity=0 time=0
EXTRACT: note_on channel=1 note=24 velocity=107 time=0.040322583333333335
EXTRACT: note_on channel=2 note=36 velocity=113 time=0
EXTRACT: note_on channel=13 note=36 velocity=95 time=0
EXTRACT: note_on channel=9 note=35 velocity=85 time=0.025201614583333334
EXTRACT: note_on channel=9 note=86 velocity=108 time=0
EXTRACT: note_on channel=12 note=23 velocity=85 time=0
EXTRACT: note_on channel=9 note=46 velocity=52 time=0.0025201614583333335
EXTRACT: note_on channel=9 note=61 velocity=107 time=0
EXTRACT: note_on channel=9 note=82 velocity=54 time=0
EXTRACT: note_on channel=9 note=86 velocity=0 time=0.007560484375000001
EXTRACT: note_on channel=9 note=35 velocity=0 time=0
EXTRACT: note_on channel=9 note=82 velocity=0 time=0.0025201614583333335
EXTRACT: note_on channel=9 note=61 velocity=0 time=0
EXTRACT: note_on channel=9 note=46 velocity=0 time=0
EXTRACT: note_on channel=9 note=76 velocity=80 time=0.0025201614583333335
EXTRACT: note_on channel=9 note=76 velocity=0 time=0.010080645833333334
EXTRACT: note_on channel=12 note=23 velocity=0 time=0.007560484375000001
EXTRACT: note_on channel=9 note=86 velocity=99 time=0.07812500520833333
EXTRACT: note_on channel=9 note=35 velocity=85 time=0.007560484375000001
EXTRACT: note_on channel=12 note=23 velocity=85 time=0
EXTRACT: note_on channel=9 note=86 velocity=0 time=0.0025201614583333335
EXTRACT: note_on channel=9 note=61 velocity=107 time=0.0025201614583333335
EXTRACT: note_on channel=9 note=82 velocity=45 time=0
EXTRACT: note_on channel=9 note=35 velocity=0 time=0.005040322916666667
EXTRACT: note_on channel=9 note=82 velocity=0 time=0.005040322916666667
EXTRACT: note_on channel=9 note=61 velocity=0 time=0
EXTRACT: note_on channel=12 note=23 velocity=0 time=0.017641130208333335
EXTRACT: note_on channel=9 note=86 velocity=108 time=0.08316532812500001
EXTRACT: note_on channel=1 note=24 velocity=0 time=0.0025201614583333335
EXTRACT: note_on channel=13 note=36 velocity=0 time=0
EXTRACT: note_on channel=2 note=36 velocity=0 time=0
EXTRACT: note_on channel=1 note=22 velocity=101 time=0
EXTRACT: note_on channel=2 note=34 velocity=107 time=0
EXTRACT: note_on channel=13 note=34 velocity=89 time=0
EXTRACT: note_on channel=10 note=52 velocity=86 time=0.0025201614583333335
EXTRACT: note_on channel=5 note=48 velocity=89 time=0.0025201614583333335
EXTRACT: note_on channel=6 note=52 velocity=99 time=0
EXTRACT: note_on channel=6 note=67 velocity=93 time=0
EXTRACT: note_on channel=15 note=48 velocity=1 time=0
EXTRACT: note_on channel=6 note=70 velocity=0 time=0.0025201614583333335
EXTRACT: note_on channel=15 note=70 velocity=0 time=0
EXTRACT: note_on channel=9 note=86 velocity=0 time=0
EXTRACT: note_on channel=4 note=64 velocity=113 time=0
EXTRACT: note_on channel=7 note=64 velocity=79 time=0
EXTRACT: note_on channel=9 note=59 velocity=70 time=0
EXTRACT: note_on channel=9 note=82 velocity=78 time=0
EXTRACT: note_on channel=15 note=64 velocity=1 time=0
EXTRACT: note_on channel=10 note=55 velocity=0 time=0.005040322916666667
EXTRACT: note_on channel=7 note=67 velocity=0 time=0.0025201614583333335
EXTRACT: note_on channel=15 note=55 velocity=0 time=0
EXTRACT: note_on channel=6 note=55 velocity=0 time=0
EXTRACT: note_on channel=9 note=59 velocity=0 time=0.0025201614583333335
EXTRACT: note_on channel=9 note=82 velocity=0 time=0
EXTRACT: note_on channel=5 note=52 velocity=0 time=0.005040322916666667
EXTRACT: note_on channel=4 note=67 velocity=0 time=0.010080645833333334
EXTRACT: note_on channel=9 note=86 velocity=113 time=0.08568548958333334
EXTRACT: note_on channel=9 note=86 velocity=0 time=0.010080645833333334
EXTRACT: note_on channel=9 note=61 velocity=102 time=0
EXTRACT: note_on channel=9 note=82 velocity=68 time=0
EXTRACT: note_on channel=9 note=35 velocity=89 time=0.0025201614583333335
EXTRACT: note_on channel=12 note=23 velocity=89 time=0
EXTRACT: note_on channel=9 note=82 velocity=0 time=0.007560484375000001
EXTRACT: note_on channel=9 note=61 velocity=0 time=0
EXTRACT: note_on channel=9 note=35 velocity=0 time=0.0025201614583333335
EXTRACT: note_on channel=12 note=23 velocity=0 time=0.022681453125
EXTRACT: note_on channel=9 note=35 velocity=102 time=0.08316532812500001
EXTRACT: note_on channel=12 note=23 velocity=102 time=0
EXTRACT: note_on channel=9 note=46 velocity=60 time=0.0025201614583333335
EXTRACT: note_on channel=9 note=82 velocity=58 time=0
EXTRACT: note_on channel=9 note=35 velocity=0 time=0.007560484375000001
EXTRACT: note_on channel=9 note=82 velocity=0 time=0.0025201614583333335
EXTRACT: note_on channel=9 note=46 velocity=0 time=0
EXTRACT: note_on channel=12 note=23 velocity=0 time=0.020161291666666668
EXTRACT: note_on channel=1 note=22 velocity=0 time=0.05796371354166667
EXTRACT: note_on channel=13 note=34 velocity=0 time=0
EXTRACT: note_on channel=2 note=34 velocity=0 time=0
EXTRACT: note_on channel=1 note=24 velocity=107 time=0.020161291666666668
EXTRACT: note_on channel=2 note=36 velocity=113 time=0
EXTRACT: note_on channel=13 note=36 velocity=95 time=0
EXTRACT: note_on channel=9 note=61 velocity=107 time=0.012600807291666667
EXTRACT: note_on channel=9 note=82 velocity=42 time=0
EXTRACT: note_on channel=9 note=82 velocity=0 time=0.010080645833333334
EXTRACT: note_on channel=9 note=61 velocity=0 time=0
EXTRACT: note_on channel=9 note=76 velocity=80 time=0.012600807291666667
EXTRACT: note_on channel=9 note=76 velocity=0 time=0.010080645833333334
EXTRACT: note_on channel=7 note=64 velocity=0 time=0.07560484375
EXTRACT: note_on channel=9 note=40 velocity=120 time=0.012600807291666667
EXTRACT: note_on channel=9 note=59 velocity=70 time=0
EXTRACT: note_on channel=9 note=62 velocity=113 time=0
EXTRACT: note_on channel=9 note=82 velocity=78 time=0
EXTRACT: note_on channel=9 note=82 velocity=0 time=0.010080645833333334
EXTRACT: note_on channel=9 note=62 velocity=0 time=0
EXTRACT: note_on channel=9 note=59 velocity=0 time=0
EXTRACT: note_on channel=9 note=40 velocity=0 time=0
EXTRACT: note_on channel=9 note=58 velocity=77 time=0
EXTRACT: note_on channel=9 note=58 velocity=0 time=0.010080645833333334
EXTRACT: note_on channel=4 note=64 velocity=0 time=0.03528226041666667
EXTRACT: note_on channel=15 note=64 velocity=0 time=0
EXTRACT: note_on channel=5 note=48 velocity=0 time=0.017641130208333335
EXTRACT: note_on channel=15 note=48 velocity=0 time=0
EXTRACT: note_on channel=15 note=52 velocity=0 time=0.0025201614583333335
EXTRACT: note_on channel=15 note=67 velocity=0 time=0
EXTRACT: note_on channel=6 note=52 velocity=0 time=0
EXTRACT: note_on channel=6 note=67 velocity=0 time=0
EXTRACT: note_on channel=9 note=82 velocity=64 time=0.04536290625
EXTRACT: note_on channel=9 note=82 velocity=0 time=0.010080645833333334
EXTRACT: note_on channel=1 note=24 velocity=0 time=0.06552419791666667
EXTRACT: note_on channel=13 note=36 velocity=0 time=0
EXTRACT: note_on channel=2 note=36 velocity=0 time=0
EXTRACT: note_on channel=1 note=28 velocity=107 time=0.025201614583333334
EXTRACT: note_on channel=2 note=40 velocity=113 time=0
EXTRACT: note_on channel=13 note=40 velocity=95 time=0
EXTRACT: note_on channel=9 note=46 velocity=58 time=0.020161291666666668
EXTRACT: note_on channel=9 note=63 velocity=102 time=0
EXTRACT: note_on channel=9 note=82 velocity=51 time=0
EXTRACT: note_on channel=9 note=35 velocity=93 time=0.0025201614583333335
EXTRACT: note_on channel=12 note=23 velocity=93 time=0
EXTRACT: note_on channel=9 note=76 velocity=80 time=0.005040322916666667
EXTRACT: note_on channel=9 note=82 velocity=0 time=0.0025201614583333335
EXTRACT: note_on channel=9 note=63 velocity=0 time=0
EXTRACT: note_on channel=9 note=46 velocity=0 time=0
EXTRACT: note_on channel=9 note=35 velocity=0 time=0.0025201614583333335
EXTRACT: note_on channel=9 note=76 velocity=0 time=0.005040322916666667
EXTRACT: note_on channel=12 note=23 velocity=0 time=0.017641130208333335
EXTRACT: note_on channel=9 note=82 velocity=43 time=0.08568548958333334
EXTRACT: note_on channel=9 note=82 velocity=0 time=0.010080645833333334
EXTRACT: note_on channel=10 note=52 velocity=0 time=0.04284274479166667
EXTRACT: note_on channel=13 note=40 velocity=0 time=0.04788306770833334
EXTRACT: note_on channel=1 note=28 velocity=0 time=0
EXTRACT: note_on channel=2 note=40 velocity=0 time=0
EXTRACT: note_on channel=4 note=65 velocity=107 time=0.020161291666666668
EXTRACT: note_on channel=4 note=72 velocity=127 time=0
EXTRACT: note_on channel=5 note=56 velocity=107 time=0
EXTRACT: note_on channel=6 note=60 velocity=119 time=0
EXTRACT: note_on channel=7 note=65 velocity=93 time=0
EXTRACT: note_on channel=7 note=68 velocity=107 time=0
EXTRACT: note_on channel=7 note=72 velocity=93 time=0
EXTRACT: note_on channel=9 note=49 velocity=60 time=0
EXTRACT: note_on channel=9 note=64 velocity=89 time=0
EXTRACT: note_on channel=9 note=82 velocity=79 time=0
EXTRACT: note_on channel=9 note=86 velocity=113 time=0
EXTRACT: note_on channel=15 note=56 velocity=1 time=0
EXTRACT: note_on channel=15 note=60 velocity=1 time=0
EXTRACT: note_on channel=15 note=65 velocity=1 time=0
EXTRACT: note_on channel=15 note=72 velocity=1 time=0
EXTRACT: note_on channel=1 note=32 velocity=106 time=0.0025201614583333335
EXTRACT: note_on channel=9 note=35 velocity=113 time=0.0025201614583333335
EXTRACT: note_on channel=10 note=60 velocity=58 time=0
EXTRACT: note_on channel=12 note=23 velocity=113 time=0
EXTRACT: note_on channel=2 note=44 velocity=117 time=0.0025201614583333335
EXTRACT: note_on channel=13 note=44 velocity=97 time=0
EXTRACT: note_on channel=9 note=86 velocity=0 time=0.0025201614583333335
EXTRACT: note_on channel=9 note=82 velocity=0 time=0
EXTRACT: note_on channel=9 note=64 velocity=0 time=0
EXTRACT: note_on channel=9 note=49 velocity=0 time=0
EXTRACT: note_on channel=9 note=35 velocity=0 time=0.005040322916666667
EXTRACT: note_on channel=6 note=60 velocity=0 time=0.022681453125
EXTRACT: note_on channel=7 note=72 velocity=0 time=0
EXTRACT: note_on channel=15 note=60 velocity=0 time=0
EXTRACT: note_on channel=7 note=65 velocity=0 time=0
EXTRACT: note_on channel=7 note=68 velocity=0 time=0
EXTRACT: note_on channel=4 note=72 velocity=0 time=0
EXTRACT: note_on channel=4 note=65 velocity=0 time=0
EXTRACT: note_on channel=12 note=23 velocity=0 time=0
EXTRACT: note_on channel=5 note=56 velocity=0 time=0
EXTRACT: note_on channel=15 note=72 velocity=0 time=0
EXTRACT: note_on channel=15 note=65 velocity=0 time=0
EXTRACT: note_on channel=15 note=56 velocity=0 time=0
EXTRACT: note_on channel=5 note=56 velocity=102 time=0.08064516666666667
EXTRACT: note_on channel=6 note=60 velocity=113 time=0
EXTRACT: note_on channel=9 note=86 velocity=99 time=0
EXTRACT: note_on channel=15 note=56 velocity=1 time=0
EXTRACT: note_on channel=15 note=60 velocity=1 time=0
EXTRACT: note_on channel=4 note=65 velocity=93 time=0.0025201614583333335
EXTRACT: note_on channel=4 note=72 velocity=113 time=0
EXTRACT: note_on channel=7 note=65 velocity=98 time=0
EXTRACT: note_on channel=7 note=68 velocity=107 time=0
EXTRACT: note_on channel=7 note=72 velocity=107 time=0
EXTRACT: note_on channel=9 note=82 velocity=67 time=0
EXTRACT: note_on channel=15 note=65 velocity=1 time=0
EXTRACT: note_on channel=15 note=72 velocity=1 time=0
EXTRACT: note_on channel=9 note=86 velocity=0 time=0.007560484375000001
EXTRACT: note_on channel=9 note=82 velocity=0 time=0.0025201614583333335
EXTRACT: note_on channel=15 note=60 velocity=0 time=0.025201614583333334
EXTRACT: note_on channel=15 note=56 velocity=0 time=0
EXTRACT: note_on channel=6 note=60 velocity=0 time=0
EXTRACT: note_on channel=5 note=56 velocity=0 time=0
EXTRACT: note_on channel=15 note=65 velocity=0 time=0.0025201614583333335
EXTRACT: note_on channel=4 note=65 velocity=0 time=0
EXTRACT: note_on channel=15 note=72 velocity=0 time=0
EXTRACT: note_on channel=4 note=72 velocity=0 time=0
EXTRACT: note_on channel=7 note=65 velocity=0 time=0
EXTRACT: note_on channel=7 note=72 velocity=0 time=0
EXTRACT: note_on channel=7 note=68 velocity=0 time=0
EXTRACT: note_on channel=5 note=56 velocity=72 time=0.08064516666666667
EXTRACT: note_on channel=6 note=60 velocity=107 time=0
EXTRACT: note_on channel=15 note=56 velocity=1 time=0
EXTRACT: note_on channel=15 note=60 velocity=1 time=0
EXTRACT: note_on channel=4 note=65 velocity=107 time=0.0025201614583333335
EXTRACT: note_on channel=4 note=72 velocity=102 time=0
EXTRACT: note_on channel=7 note=65 velocity=85 time=0
EXTRACT: note_on channel=7 note=68 velocity=107 time=0
EXTRACT: note_on channel=7 note=72 velocity=93 time=0
EXTRACT: note_on channel=9 note=46 velocity=60 time=0
EXTRACT: note_on channel=9 note=63 velocity=89 time=0
EXTRACT: note_on channel=9 note=82 velocity=54 time=0
EXTRACT: note_on channel=15 note=65 velocity=1 time=0
EXTRACT: note_on channel=15 note=72 velocity=1 time=0
EXTRACT: note_on channel=9 note=82 velocity=0 time=0.010080645833333334
EXTRACT: note_on channel=9 note=63 velocity=0 time=0
EXTRACT: note_on channel=9 note=46 velocity=0 time=0
EXTRACT: note_on channel=15 note=56 velocity=0 time=0.025201614583333334
EXTRACT: note_on channel=6 note=60 velocity=0 time=0
EXTRACT: note_on channel=15 note=60 velocity=0 time=0
EXTRACT: note_on channel=5 note=56 velocity=0 time=0
EXTRACT: note_on channel=15 note=65 velocity=0 time=0.0025201614583333335
EXTRACT: note_on channel=4 note=72 velocity=0 time=0
EXTRACT: note_on channel=4 note=65 velocity=0 time=0
EXTRACT: note_on channel=15 note=72 velocity=0 time=0
EXTRACT: note_on channel=7 note=65 velocity=0 time=0
EXTRACT: note_on channel=7 note=68 velocity=0 time=0
EXTRACT: note_on channel=7 note=72 velocity=0 time=0
EXTRACT: note_on channel=1 note=32 velocity=0 time=0.05796371354166667
EXTRACT: note_on channel=2 note=44 velocity=0 time=0.005040322916666667
EXTRACT: note_on channel=13 note=44 velocity=0 time=0
EXTRACT: note_on channel=9 note=86 velocity=119 time=0.007560484375000001
EXTRACT: note_on channel=9 note=86 velocity=0 time=0.010080645833333334
EXTRACT: note_on channel=1 note=29 velocity=107 time=0
EXTRACT: note_on channel=2 note=41 velocity=113 time=0
EXTRACT: note_on channel=5 note=56 velocity=107 time=0
EXTRACT: note_on channel=6 note=60 velocity=113 time=0
EXTRACT: note_on channel=13 note=41 velocity=95 time=0
EXTRACT: note_on channel=15 note=56 velocity=1 time=0
EXTRACT: note_on channel=15 note=60 velocity=1 time=0
EXTRACT: note_on channel=4 note=65 velocity=93 time=0.0025201614583333335
EXTRACT: note_on channel=4 note=72 velocity=102 time=0
EXTRACT: note_on channel=7 note=65 velocity=72 time=0
EXTRACT: note_on channel=7 note=68 velocity=102 time=0
EXTRACT: note_on channel=7 note=72 velocity=93 time=0
EXTRACT: note_on channel=9 note=82 velocity=42 time=0
EXTRACT: note_on channel=15 note=65 velocity=1 time=0
EXTRACT: note_on channel=15 note=72 velocity=1 time=0
EXTRACT: note_on channel=9 note=82 velocity=0 time=0.010080645833333334
EXTRACT: note_on channel=9 note=76 velocity=80 time=0.012600807291666667
EXTRACT: note_on channel=9 note=76 velocity=0 time=0.010080645833333334
EXTRACT: note_on channel=15 note=56 velocity=0 time=0.0025201614583333335
EXTRACT: note_on channel=5 note=56 velocity=0 time=0
EXTRACT: note_on channel=15 note=60 velocity=0 time=0
EXTRACT: note_on channel=6 note=60 velocity=0 time=0
EXTRACT: note_on channel=15 note=65 velocity=0 time=0.0025201614583333335
EXTRACT: note_on channel=4 note=72 velocity=0 time=0
EXTRACT: note_on channel=15 note=72 velocity=0 time=0
EXTRACT: note_on channel=4 note=65 velocity=0 time=0
EXTRACT: note_on channel=7 note=65 velocity=0 time=0
EXTRACT: note_on channel=7 note=68 velocity=0 time=0
EXTRACT: note_on channel=7 note=72 velocity=0 time=0
EXTRACT: note_on channel=5 note=56 velocity=93 time=0.08064516666666667
EXTRACT: note_on channel=6 note=60 velocity=113 time=0
EXTRACT: note_on channel=15 note=56 velocity=1 time=0
EXTRACT: note_on channel=15 note=60 velocity=1 time=0
EXTRACT: note_on channel=4 note=65 velocity=119 time=0.0025201614583333335
EXTRACT: note_on channel=4 note=72 velocity=127 time=0
EXTRACT: note_on channel=7 note=65 velocity=79 time=0
EXTRACT: note_on channel=7 note=68 velocity=76 time=0
EXTRACT: note_on channel=7 note=72 velocity=84 time=0
EXTRACT: note_on channel=9 note=59 velocity=70 time=0
EXTRACT: note_on channel=9 note=62 velocity=113 time=0
EXTRACT: note_on channel=9 note=82 velocity=79 time=0
EXTRACT: note_on channel=15 note=65 velocity=1 time=0
EXTRACT: note_on channel=15 note=72 velocity=1 time=0
EXTRACT: note_on channel=9 note=40 velocity=120 time=0.007560484375000001
EXTRACT: note_on channel=9 note=82 velocity=0 time=0.0025201614583333335
EXTRACT: note_on channel=9 note=62 velocity=0 time=0
EXTRACT: note_on channel=9 note=59 velocity=0 time=0
EXTRACT: note_on channel=9 note=40 velocity=0 time=0.007560484375000001
EXTRACT: note_on channel=9 note=82 velocity=68 time=0.10332661979166667
EXTRACT: note_on channel=9 note=82 velocity=0 time=0.010080645833333334
EXTRACT: note_on channel=2 note=41 velocity=0 time=0.07812500520833333
EXTRACT: note_on channel=1 note=29 velocity=0 time=0
EXTRACT: note_on channel=13 note=41 velocity=0 time=0
EXTRACT: note_on channel=15 note=72 velocity=0 time=0.022681453125
EXTRACT: note_on channel=4 note=72 velocity=0 time=0
EXTRACT: note_on channel=1 note=24 velocity=107 time=0
EXTRACT: note_on channel=2 note=36 velocity=113 time=0
EXTRACT: note_on channel=13 note=36 velocity=95 time=0
EXTRACT: note_on channel=15 note=65 velocity=0 time=0.005040322916666667
EXTRACT: note_on channel=4 note=65 velocity=0 time=0
EXTRACT: note_on channel=3 note=72 velocity=101 time=0.005040322916666667
EXTRACT: note_on channel=9 note=46 velocity=56 time=0
EXTRACT: note_on channel=9 note=61 velocity=93 time=0
EXTRACT: note_on channel=9 note=82 velocity=54 time=0
EXTRACT: note_on channel=9 note=35 velocity=89 time=0.007560484375000001
EXTRACT: note_on channel=9 note=76 velocity=80 time=0
EXTRACT: note_on channel=12 note=23 velocity=89 time=0
EXTRACT: note_on channel=9 note=82 velocity=0 time=0.0025201614583333335
EXTRACT: note_on channel=9 note=61 velocity=0 time=0
EXTRACT: note_on channel=9 note=46 velocity=0 time=0
EXTRACT: note_on channel=9 note=86 velocity=108 time=0
EXTRACT: note_on channel=9 note=76 velocity=0 time=0.007560484375000001
EXTRACT: note_on channel=9 note=35 velocity=0 time=0
EXTRACT: note_on channel=9 note=86 velocity=0 time=0.0025201614583333335
EXTRACT: note_on channel=15 note=60 velocity=0 time=0.015120968750000002
EXTRACT: note_on channel=6 note=60 velocity=0 time=0
EXTRACT: note_on channel=12 note=23 velocity=0 time=0.005040322916666667
EXTRACT: note_on channel=3 note=72 velocity=0 time=0.0025201614583333335
EXTRACT: note_on channel=5 note=56 velocity=0 time=0.017641130208333335
EXTRACT: note_on channel=15 note=56 velocity=0 time=0
EXTRACT: note_on channel=7 note=68 velocity=0 time=0.010080645833333334
EXTRACT: note_on channel=7 note=65 velocity=0 time=0.015120968750000002
EXTRACT: note_on channel=7 note=72 velocity=0 time=0
EXTRACT: note_on channel=3 note=72 velocity=80 time=0.03528226041666667
EXTRACT: note_on channel=9 note=61 velocity=93 time=0
EXTRACT: note_on channel=9 note=82 velocity=45 time=0
EXTRACT: note_on channel=9 note=35 velocity=85 time=0.005040322916666667
EXTRACT: note_on channel=9 note=86 velocity=99 time=0
EXTRACT: note_on channel=12 note=23 velocity=85 time=0
EXTRACT: note_on channel=9 note=82 velocity=0 time=0.005040322916666667
EXTRACT: note_on channel=9 note=61 velocity=0 time=0
EXTRACT: note_on channel=9 note=86 velocity=0 time=0.005040322916666667
EXTRACT: note_on channel=9 note=35 velocity=0 time=0
EXTRACT: note_on channel=12 note=23 velocity=0 time=0.022681453125
EXTRACT: note_on channel=3 note=72 velocity=0 time=0.017641130208333335
EXTRACT: note_on channel=3 note=72 velocity=106 time=0.06552419791666667
EXTRACT: note_on channel=9 note=59 velocity=70 time=0
EXTRACT: note_on channel=9 note=82 velocity=78 time=0
EXTRACT: note_on channel=9 note=86 velocity=113 time=0.0025201614583333335
EXTRACT: note_on channel=9 note=82 velocity=0 time=0.007560484375000001
EXTRACT: note_on channel=9 note=59 velocity=0 time=0
EXTRACT: note_on channel=9 note=86 velocity=0 time=0.0025201614583333335
EXTRACT: note_on channel=3 note=72 velocity=0 time=0.03276209895833333
EXTRACT: note_on channel=10 note=60 velocity=0 time=0.04284274479166667
EXTRACT: note_on channel=3 note=72 velocity=106 time=0.03276209895833333
EXTRACT: note_on channel=9 note=61 velocity=93 time=0
EXTRACT: note_on channel=9 note=82 velocity=68 time=0
EXTRACT: note_on channel=9 note=35 velocity=85 time=0.005040322916666667
EXTRACT: note_on channel=9 note=86 velocity=108 time=0
EXTRACT: note_on channel=12 note=23 velocity=85 time=0
EXTRACT: note_on channel=9 note=82 velocity=0 time=0.005040322916666667
EXTRACT: note_on channel=9 note=61 velocity=0 time=0
EXTRACT: note_on channel=9 note=86 velocity=0 time=0.005040322916666667
EXTRACT: note_on channel=9 note=35 velocity=0 time=0
EXTRACT: note_on channel=12 note=23 velocity=0 time=0.022681453125
EXTRACT: note_on channel=3 note=72 velocity=0 time=0.010080645833333334
EXTRACT: note_on channel=1 note=32 velocity=107 time=0.06552419791666667
EXTRACT: note_on channel=2 note=44 velocity=113 time=0
EXTRACT: note_on channel=10 note=60 velocity=93 time=0
EXTRACT: note_on channel=13 note=44 velocity=95 time=0
EXTRACT: note_on channel=3 note=72 velocity=102 time=0.007560484375000001
EXTRACT: note_on channel=9 note=46 velocity=60 time=0
EXTRACT: note_on channel=9 note=82 velocity=58 time=0
EXTRACT: note_on channel=9 note=35 velocity=85 time=0.005040322916666667
EXTRACT: note_on channel=12 note=23 velocity=85 time=0
EXTRACT: note_on channel=9 note=82 velocity=0 time=0.005040322916666667
EXTRACT: note_on channel=9 note=46 velocity=0 time=0
EXTRACT: note_on channel=2 note=36 velocity=0 time=0.0025201614583333335
EXTRACT: note_on channel=13 note=36 velocity=0 time=0
EXTRACT: note_on channel=1 note=24 velocity=0 time=0
EXTRACT: note_on channel=9 note=35 velocity=0 time=0.0025201614583333335
EXTRACT: note_on channel=12 note=23 velocity=0 time=0.022681453125
EXTRACT: note_on channel=3 note=72 velocity=0 time=0.05796371354166667
EXTRACT: note_on channel=9 note=86 velocity=113 time=0.017641130208333335
EXTRACT: note_on channel=3 note=73 velocity=92 time=0.007560484375000001
EXTRACT: note_on channel=9 note=61 velocity=93 time=0
EXTRACT: note_on channel=9 note=82 velocity=42 time=0
EXTRACT: note_on channel=9 note=86 velocity=0 time=0.0025201614583333335
EXTRACT: note_on channel=9 note=82 velocity=0 time=0.007560484375000001
EXTRACT: note_on channel=9 note=61 velocity=0 time=0
EXTRACT: note_on channel=9 note=76 velocity=80 time=0.012600807291666667
EXTRACT: note_on channel=9 note=76 velocity=0 time=0.010080645833333334
EXTRACT: note_on channel=10 note=61 velocity=98 time=0.08064516666666667
EXTRACT: note_on channel=10 note=60 velocity=0 time=0.005040322916666667
EXTRACT: note_on channel=9 note=40 velocity=120 time=0.0025201614583333335
EXTRACT: note_on channel=9 note=59 velocity=70 time=0
EXTRACT: note_on channel=9 note=62 velocity=107 time=0
EXTRACT: note_on channel=9 note=82 velocity=78 time=0
EXTRACT: note_on channel=1 note=29 velocity=113 time=0.0025201614583333335
EXTRACT: note_on channel=2 note=41 velocity=119 time=0
EXTRACT: note_on channel=13 note=41 velocity=101 time=0
EXTRACT: note_on channel=1 note=32 velocity=0 time=0.0025201614583333335
EXTRACT: note_on channel=13 note=44 velocity=0 time=0
EXTRACT: note_on channel=2 note=44 velocity=0 time=0
EXTRACT: note_on channel=9 note=82 velocity=0 time=0.005040322916666667
EXTRACT: note_on channel=9 note=62 velocity=0 time=0
EXTRACT: note_on channel=9 note=40 velocity=0 time=0
EXTRACT: note_on channel=9 note=59 velocity=0 time=0
EXTRACT: note_on channel=3 note=73 velocity=0 time=0.015120968750000002
EXTRACT: note_on channel=3 note=72 velocity=101 time=0.09576613541666668
EXTRACT: note_on channel=9 note=82 velocity=64 time=0
EXTRACT: note_on channel=9 note=82 velocity=0 time=0.010080645833333334
EXTRACT: note_on channel=10 note=61 velocity=0 time=0.10080645833333333
EXTRACT: note_on channel=1 note=29 velocity=0 time=0
EXTRACT: note_on channel=13 note=41 velocity=0 time=0
EXTRACT: note_on channel=2 note=41 velocity=0 time=0
EXTRACT: note_on channel=10 note=60 velocity=93 time=0.005040322916666667
EXTRACT: note_on channel=1 note=24 velocity=107 time=0.0025201614583333335
EXTRACT: note_on channel=2 note=36 velocity=113 time=0
EXTRACT: note_on channel=13 note=36 velocity=95 time=0
EXTRACT: note_on channel=9 note=46 velocity=56 time=0.0025201614583333335
EXTRACT: note_on channel=9 note=63 velocity=89 time=0
EXTRACT: note_on channel=9 note=82 velocity=51 time=0
EXTRACT: note_on channel=9 note=35 velocity=89 time=0.005040322916666667
EXTRACT: note_on channel=12 note=23 velocity=89 time=0
EXTRACT: note_on channel=9 note=76 velocity=80 time=0.0025201614583333335
EXTRACT: note_on channel=9 note=82 velocity=0 time=0.0025201614583333335
EXTRACT: note_on channel=9 note=63 velocity=0 time=0
EXTRACT: note_on channel=9 note=46 velocity=0 time=0
EXTRACT: note_on channel=9 note=86 velocity=108 time=0.0025201614583333335
EXTRACT: note_on channel=9 note=35 velocity=0 time=0.0025201614583333335
EXTRACT: note_on channel=9 note=76 velocity=0 time=0.0025201614583333335
EXTRACT: note_on channel=9 note=86 velocity=0 time=0.005040322916666667
EXTRACT: note_on channel=12 note=23 velocity=0 time=0.015120968750000002
EXTRACT: note_on channel=9 note=82 velocity=43 time=0.08316532812500001
EXTRACT: note_on channel=9 note=82 velocity=0 time=0.010080645833333334
EXTRACT: note_on channel=3 note=72 velocity=0 time=0
EXTRACT: note_on channel=9 note=86 velocity=95 time=0.005040322916666667
EXTRACT: note_on channel=9 note=86 velocity=0 time=0.010080645833333334
EXTRACT: note_on channel=10 note=60 velocity=0 time=0.07812500520833333
EXTRACT: note_on channel=10 note=58 velocity=89 time=0.005040322916666667
EXTRACT: note_on channel=5 note=55 velocity=107 time=0.010080645833333334
EXTRACT: note_on channel=6 note=60 velocity=119 time=0
EXTRACT: note_on channel=15 note=55 velocity=1 time=0
EXTRACT: note_on channel=15 note=60 velocity=1 time=0
EXTRACT: note_on channel=2 note=36 velocity=0 time=0.0025201614583333335
EXTRACT: note_on channel=13 note=36 velocity=0 time=0
EXTRACT: note_on channel=1 note=24 velocity=0 time=0
EXTRACT: note_on channel=4 note=64 velocity=127 time=0
EXTRACT: note_on channel=4 note=70 velocity=107 time=0
EXTRACT: note_on channel=7 note=64 velocity=98 time=0
EXTRACT: note_on channel=7 note=67 velocity=102 time=0
EXTRACT: note_on channel=7 note=70 velocity=102 time=0
EXTRACT: note_on channel=9 note=59 velocity=70 time=0
EXTRACT: note_on channel=9 note=64 velocity=102 time=0
EXTRACT: note_on channel=9 note=82 velocity=79 time=0
EXTRACT: note_on channel=15 note=64 velocity=1 time=0
EXTRACT: note_on channel=15 note=70 velocity=1 time=0
EXTRACT: note_on channel=9 note=35 velocity=102 time=0.005040322916666667
EXTRACT: note_on channel=12 note=23 velocity=102 time=0
EXTRACT: note_on channel=9 note=86 velocity=108 time=0.0025201614583333335
EXTRACT: note_on channel=9 note=82 velocity=0 time=0.0025201614583333335
EXTRACT: note_on channel=9 note=64 velocity=0 time=0
EXTRACT: note_on channel=9 note=59 velocity=0 time=0
EXTRACT: note_on channel=1 note=31 velocity=113 time=0
EXTRACT: note_on channel=2 note=43 velocity=119 time=0
EXTRACT: note_on channel=13 note=43 velocity=101 time=0
EXTRACT: note_on channel=9 note=35 velocity=0 time=0.005040322916666667
EXTRACT: note_on channel=9 note=86 velocity=0 time=0.0025201614583333335
EXTRACT: note_on channel=6 note=60 velocity=0 time=0.017641130208333335
EXTRACT: note_on channel=15 note=60 velocity=0 time=0
EXTRACT: note_on channel=5 note=55 velocity=0 time=0
EXTRACT: note_on channel=15 note=55 velocity=0 time=0
EXTRACT: note_on channel=7 note=64 velocity=0 time=0.0025201614583333335
EXTRACT: note_on channel=4 note=64 velocity=0 time=0
EXTRACT: note_on channel=15 note=64 velocity=0 time=0
EXTRACT: note_on channel=12 note=23 velocity=0 time=0
EXTRACT: note_on channel=7 note=70 velocity=0 time=0
EXTRACT: note_on channel=4 note=70 velocity=0 time=0
EXTRACT: note_on channel=15 note=70 velocity=0 time=0
EXTRACT: note_on channel=7 note=67 velocity=0 time=0
EXTRACT: note_on channel=5 note=55 velocity=102 time=0.08064516666666667
EXTRACT: note_on channel=6 note=60 velocity=113 time=0
EXTRACT: note_on channel=15 note=55 velocity=1 time=0
EXTRACT: note_on channel=15 note=60 velocity=1 time=0
EXTRACT: note_on channel=4 note=64 velocity=113 time=0.0025201614583333335
EXTRACT: note_on channel=4 note=70 velocity=93 time=0
EXTRACT: note_on channel=7 note=64 velocity=89 time=0
EXTRACT: note_on channel=7 note=67 velocity=93 time=0
EXTRACT: note_on channel=7 note=70 velocity=93 time=0
EXTRACT: note_on channel=9 note=82 velocity=67 time=0
EXTRACT: note_on channel=15 note=64 velocity=1 time=0
EXTRACT: note_on channel=15 note=70 velocity=1 time=0
EXTRACT: note_on channel=9 note=82 velocity=0 time=0.010080645833333334
EXTRACT: note_on channel=9 note=86 velocity=113 time=0
EXTRACT: note_on channel=9 note=86 velocity=0 time=0.010080645833333334
EXTRACT: note_on channel=15 note=55 velocity=0 time=0.015120968750000002
EXTRACT: note_on channel=15 note=60 velocity=0 time=0
EXTRACT: note_on channel=6 note=60 velocity=0 time=0
EXTRACT: note_on channel=5 note=55 velocity=0 time=0
EXTRACT: note_on channel=15 note=70 velocity=0 time=0.0025201614583333335
EXTRACT: note_on channel=4 note=70 velocity=0 time=0
EXTRACT: note_on channel=4 note=64 velocity=0 time=0
EXTRACT: note_on channel=7 note=64 velocity=0 time=0
EXTRACT: note_on channel=7 note=67 velocity=0 time=0
EXTRACT: note_on channel=15 note=64 velocity=0 time=0
EXTRACT: note_on channel=7 note=70 velocity=0 time=0
EXTRACT: note_on channel=5 note=55 velocity=72 time=0.08064516666666667
EXTRACT: note_on channel=6 note=60 velocity=107 time=0
EXTRACT: note_on channel=15 note=55 velocity=1 time=0
EXTRACT: note_on channel=15 note=60 velocity=1 time=0
EXTRACT: note_on channel=4 note=64 velocity=102 time=0.0025201614583333335
EXTRACT: note_on channel=4 note=70 velocity=107 time=0
EXTRACT: note_on channel=7 note=64 velocity=76 time=0
EXTRACT: note_on channel=7 note=67 velocity=98 time=0
EXTRACT: note_on channel=7 note=70 velocity=102 time=0
EXTRACT: note_on channel=9 note=46 velocity=60 time=0
EXTRACT: note_on channel=9 note=63 velocity=98 time=0
EXTRACT: note_on channel=9 note=82 velocity=54 time=0
EXTRACT: note_on channel=15 note=64 velocity=1 time=0
EXTRACT: note_on channel=15 note=70 velocity=1 time=0
EXTRACT: note_on channel=9 note=82 velocity=0 time=0.010080645833333334
EXTRACT: note_on channel=9 note=63 velocity=0 time=0
EXTRACT: note_on channel=9 note=46 velocity=0 time=0
EXTRACT: note_on channel=15 note=55 velocity=0 time=0.025201614583333334
EXTRACT: note_on channel=6 note=60 velocity=0 time=0
EXTRACT: note_on channel=15 note=60 velocity=0 time=0
EXTRACT: note_on channel=5 note=55 velocity=0 time=0
EXTRACT: note_on channel=15 note=64 velocity=0 time=0.0025201614583333335
EXTRACT: note_on channel=4 note=70 velocity=0 time=0
EXTRACT: note_on channel=4 note=64 velocity=0 time=0
EXTRACT: note_on channel=15 note=70 velocity=0 time=0
EXTRACT: note_on channel=7 note=64 velocity=0 time=0
EXTRACT: note_on channel=7 note=67 velocity=0 time=0
EXTRACT: note_on channel=7 note=70 velocity=0 time=0
EXTRACT: note_on channel=1 note=31 velocity=0 time=0.04284274479166667
EXTRACT: note_on channel=13 note=43 velocity=0 time=0
EXTRACT: note_on channel=2 note=43 velocity=0 time=0
EXTRACT: note_on channel=1 note=27 velocity=110 time=0.03528226041666667
EXTRACT: note_on channel=2 note=39 velocity=117 time=0
EXTRACT: note_on channel=13 note=39 velocity=97 time=0
EXTRACT: note_on channel=5 note=55 velocity=107 time=0.0025201614583333335
EXTRACT: note_on channel=6 note=60 velocity=113 time=0
EXTRACT: note_on channel=15 note=55 velocity=1 time=0
EXTRACT: note_on channel=15 note=60 velocity=1 time=0
EXTRACT: note_on channel=4 note=64 velocity=102 time=0.0025201614583333335
EXTRACT: note_on channel=4 note=70 velocity=93 time=0
EXTRACT: note_on channel=7 note=64 velocity=89 time=0
EXTRACT: note_on channel=7 note=67 velocity=102 time=0
EXTRACT: note_on channel=7 note=70 velocity=107 time=0
EXTRACT: note_on channel=9 note=82 velocity=42 time=0
EXTRACT: note_on channel=15 note=64 velocity=1 time=0
EXTRACT: note_on channel=15 note=70 velocity=1 time=0
EXTRACT: note_on channel=9 note=86 velocity=113 time=0.005040322916666667
EXTRACT: note_on channel=9 note=82 velocity=0 time=0.005040322916666667
EXTRACT: note_on channel=9 note=86 velocity=0 time=0.005040322916666667
EXTRACT: note_on channel=9 note=76 velocity=80 time=0.007560484375000001
EXTRACT: note_on channel=9 note=76 velocity=0 time=0.010080645833333334
EXTRACT: note_on channel=15 note=55 velocity=0 time=0.0025201614583333335
EXTRACT: note_on channel=15 note=60 velocity=0 time=0
EXTRACT: note_on channel=6 note=60 velocity=0 time=0
EXTRACT: note_on channel=5 note=55 velocity=0 time=0
EXTRACT: note_on channel=4 note=64 velocity=0 time=0.0025201614583333335
EXTRACT: note_on channel=4 note=70 velocity=0 time=0
EXTRACT: note_on channel=15 note=70 velocity=0 time=0
EXTRACT: note_on channel=7 note=64 velocity=0 time=0
EXTRACT: note_on channel=7 note=67 velocity=0 time=0
EXTRACT: note_on channel=15 note=64 velocity=0 time=0
EXTRACT: note_on channel=7 note=70 velocity=0 time=0
EXTRACT: note_on channel=5 note=55 velocity=93 time=0.08064516666666667
EXTRACT: note_on channel=6 note=60 velocity=113 time=0
EXTRACT: note_on channel=15 note=55 velocity=1 time=0
EXTRACT: note_on channel=15 note=60 velocity=1 time=0
EXTRACT: note_on channel=4 note=64 velocity=119 time=0.0025201614583333335
EXTRACT: note_on channel=4 note=70 velocity=127 time=0
EXTRACT: note_on channel=7 note=64 velocity=75 time=0
EXTRACT: note_on channel=7 note=67 velocity=84 time=0
EXTRACT: note_on channel=7 note=70 velocity=84 time=0
EXTRACT: note_on channel=9 note=59 velocity=70 time=0
EXTRACT: note_on channel=9 note=62 velocity=107 time=0
EXTRACT: note_on channel=9 note=82 velocity=79 time=0
EXTRACT: note_on channel=15 note=64 velocity=1 time=0
EXTRACT: note_on channel=15 note=70 velocity=1 time=0
EXTRACT: note_on channel=9 note=40 velocity=120 time=0.0025201614583333335
EXTRACT: note_on channel=9 note=82 velocity=0 time=0.007560484375000001
EXTRACT: note_on channel=9 note=62 velocity=0 time=0
EXTRACT: note_on channel=9 note=59 velocity=0 time=0
EXTRACT: note_on channel=9 note=40 velocity=0 time=0.0025201614583333335
EXTRACT: note_on channel=9 note=82 velocity=68 time=0.10836694270833334
EXTRACT: note_on channel=9 note=82 velocity=0 time=0.010080645833333334
EXTRACT: note_on channel=1 note=27 velocity=0 time=0.098286296875
EXTRACT: note_on channel=13 note=39 velocity=0 time=0
EXTRACT: note_on channel=2 note=39 velocity=0 time=0
EXTRACT: note_on channel=15 note=70 velocity=0 time=0.0025201614583333335
EXTRACT: note_on channel=4 note=70 velocity=0 time=0
EXTRACT: note_on channel=1 note=24 velocity=107 time=0.0025201614583333335
EXTRACT: note_on channel=2 note=36 velocity=113 time=0
EXTRACT: note_on channel=13 note=36 velocity=94 time=0
EXTRACT: note_on channel=15 note=64 velocity=0 time=0.0025201614583333335
EXTRACT: note_on channel=4 note=64 velocity=0 time=0
EXTRACT: note_on channel=3 note=70 velocity=97 time=0.005040322916666667
EXTRACT: note_on channel=9 note=46 velocity=52 time=0
EXTRACT: note_on channel=9 note=61 velocity=102 time=0
EXTRACT: note_on channel=9 note=82 velocity=54 time=0
EXTRACT: note_on channel=9 note=86 velocity=113 time=0.005040322916666667
EXTRACT: note_on channel=9 note=82 velocity=0 time=0.005040322916666667
EXTRACT: note_on channel=9 note=61 velocity=0 time=0
EXTRACT: note_on channel=9 note=46 velocity=0 time=0
EXTRACT: note_on channel=9 note=76 velocity=80 time=0
EXTRACT: note_on channel=9 note=86 velocity=0 time=0.005040322916666667
EXTRACT: note_on channel=9 note=76 velocity=0 time=0.005040322916666667
EXTRACT: note_on channel=6 note=60 velocity=0 time=0.015120968750000002
EXTRACT: note_on channel=15 note=60 velocity=0 time=0
EXTRACT: note_on channel=3 note=70 velocity=0 time=0.007560484375000001
EXTRACT: note_on channel=15 note=55 velocity=0 time=0.017641130208333335
EXTRACT: note_on channel=5 note=55 velocity=0 time=0
EXTRACT: note_on channel=7 note=64 velocity=0 time=0.010080645833333334
EXTRACT: note_on channel=7 note=67 velocity=0 time=0
EXTRACT: note_on channel=7 note=70 velocity=0 time=0
EXTRACT: note_on channel=3 note=70 velocity=97 time=0.05040322916666667
EXTRACT: note_on channel=9 note=35 velocity=72 time=0
EXTRACT: note_on channel=9 note=61 velocity=98 time=0
EXTRACT: note_on channel=9 note=82 velocity=45 time=0
EXTRACT: note_on channel=9 note=86 velocity=82 time=0
EXTRACT: note_on channel=12 note=23 velocity=72 time=0
EXTRACT: note_on channel=9 note=86 velocity=0 time=0.010080645833333334
EXTRACT: note_on channel=9 note=82 velocity=0 time=0
EXTRACT: note_on channel=9 note=61 velocity=0 time=0
EXTRACT: note_on channel=9 note=35 velocity=0 time=0
EXTRACT: note_on channel=12 note=23 velocity=0 time=0.022681453125
EXTRACT: note_on channel=3 note=70 velocity=0 time=0.020161291666666668
EXTRACT: note_on channel=9 note=86 velocity=119 time=0.06300403645833334
EXTRACT: note_on channel=3 note=70 velocity=88 time=0.005040322916666667
EXTRACT: note_on channel=9 note=59 velocity=70 time=0
EXTRACT: note_on channel=9 note=82 velocity=78 time=0
EXTRACT: note_on channel=9 note=86 velocity=0 time=0.005040322916666667
EXTRACT: note_on channel=9 note=82 velocity=0 time=0.005040322916666667
EXTRACT: note_on channel=9 note=59 velocity=0 time=0
EXTRACT: note_on channel=3 note=70 velocity=0 time=0.037802421875
EXTRACT: note_on channel=10 note=58 velocity=0 time=0.05796371354166667
EXTRACT: note_on channel=9 note=35 velocity=102 time=0.012600807291666667
EXTRACT: note_on channel=12 note=23 velocity=102 time=0
EXTRACT: note_on channel=3 note=70 velocity=97 time=0.0025201614583333335
EXTRACT: note_on channel=9 note=61 velocity=107 time=0
EXTRACT: note_on channel=9 note=82 velocity=68 time=0
EXTRACT: note_on channel=9 note=86 velocity=113 time=0
EXTRACT: note_on channel=9 note=35 velocity=0 time=0.007560484375000001
EXTRACT: note_on channel=9 note=86 velocity=0 time=0.0025201614583333335
EXTRACT: note_on channel=9 note=82 velocity=0 time=0
EXTRACT: note_on channel=9 note=61 velocity=0 time=0
EXTRACT: note_on channel=12 note=23 velocity=0 time=0.020161291666666668
EXTRACT: note_on channel=3 note=70 velocity=0 time=0.025201614583333334
EXTRACT: note_on channel=10 note=55 velocity=93 time=0.05796371354166667
EXTRACT: note_on channel=3 note=70 velocity=102 time=0.007560484375000001
EXTRACT: note_on channel=9 note=35 velocity=98 time=0
EXTRACT: note_on channel=9 note=46 velocity=60 time=0
EXTRACT: note_on channel=9 note=82 velocity=58 time=0
EXTRACT: note_on channel=12 note=23 velocity=98 time=0
EXTRACT: note_on channel=1 note=31 velocity=113 time=0.0025201614583333335
EXTRACT: note_on channel=2 note=43 velocity=119 time=0
EXTRACT: note_on channel=13 note=43 velocity=101 time=0
EXTRACT: note_on channel=9 note=82 velocity=0 time=0.007560484375000001
EXTRACT: note_on channel=9 note=46 velocity=0 time=0
EXTRACT: note_on channel=9 note=35 velocity=0 time=0
EXTRACT: note_on channel=1 note=24 velocity=0 time=0.015120968750000002
EXTRACT: note_on channel=2 note=36 velocity=0 time=0
EXTRACT: note_on channel=13 note=36 velocity=0 time=0
EXTRACT: note_on channel=12 note=23 velocity=0 time=0.007560484375000001
EXTRACT: note_on channel=3 note=70 velocity=0 time=0.022681453125
EXTRACT: note_on channel=9 note=86 velocity=119 time=0.06300403645833334
EXTRACT: note_on channel=3 note=72 velocity=101 time=0.0025201614583333335
EXTRACT: note_on channel=9 note=61 velocity=107 time=0
EXTRACT: note_on channel=9 note=82 velocity=42 time=0
EXTRACT: note_on channel=9 note=86 velocity=0 time=0.007560484375000001
EXTRACT: note_on channel=9 note=82 velocity=0 time=0.0025201614583333335
EXTRACT: note_on channel=9 note=61 velocity=0 time=0
EXTRACT: note_on channel=9 note=76 velocity=80 time=0.012600807291666667
EXTRACT: note_on channel=9 note=76 velocity=0 time=0.010080645833333334
EXTRACT: note_on channel=2 note=43 velocity=0 time=0.07812500520833333
EXTRACT: note_on channel=1 note=31 velocity=0 time=0
EXTRACT: note_on channel=13 note=43 velocity=0 time=0
EXTRACT: note_on channel=10 note=56 velocity=89 time=0.005040322916666667
EXTRACT: note_on channel=9 note=40 velocity=120 time=0.005040322916666667
EXTRACT: note_on channel=9 note=59 velocity=70 time=0
EXTRACT: note_on channel=9 note=62 velocity=107 time=0
EXTRACT: note_on channel=9 note=82 velocity=78 time=0
EXTRACT: note_on channel=1 note=28 velocity=107 time=0.005040322916666667
EXTRACT: note_on channel=2 note=40 velocity=113 time=0
EXTRACT: note_on channel=13 note=40 velocity=95 time=0
EXTRACT: note_on channel=9 note=82 velocity=0 time=0.005040322916666667
EXTRACT: note_on channel=9 note=40 velocity=0 time=0
EXTRACT: note_on channel=10 note=55 velocity=0 time=0
EXTRACT: note_on channel=9 note=62 velocity=0 time=0
EXTRACT: note_on channel=9 note=59 velocity=0 time=0
EXTRACT: note_on channel=3 note=72 velocity=0 time=0.012600807291666667
EXTRACT: note_on channel=3 note=70 velocity=101 time=0.098286296875
EXTRACT: note_on channel=9 note=82 velocity=64 time=0
EXTRACT: note_on channel=9 note=82 velocity=0 time=0.010080645833333334
EXTRACT: note_on channel=1 note=28 velocity=0 time=0.10584678125000001
EXTRACT: note_on channel=2 note=40 velocity=0 time=0
EXTRACT: note_on channel=13 note=40 velocity=0 time=0
EXTRACT: note_on channel=1 note=24 velocity=101 time=0.005040322916666667
EXTRACT: note_on channel=2 note=36 velocity=107 time=0
EXTRACT: note_on channel=9 note=46 velocity=47 time=0
EXTRACT: note_on channel=9 note=63 velocity=102 time=0
EXTRACT: note_on channel=9 note=82 velocity=51 time=0
EXTRACT: note_on channel=13 note=36 velocity=89 time=0
EXTRACT: note_on channel=9 note=76 velocity=80 time=0.0025201614583333335
EXTRACT: note_on channel=9 note=86 velocity=113 time=0
EXTRACT: note_on channel=10 note=58 velocity=93 time=0
EXTRACT: note_on channel=9 note=35 velocity=85 time=0.005040322916666667
EXTRACT: note_on channel=12 note=23 velocity=85 time=0
EXTRACT: note_on channel=9 note=82 velocity=0 time=0.0025201614583333335
EXTRACT: note_on channel=9 note=63 velocity=0 time=0
EXTRACT: note_on channel=9 note=46 velocity=0 time=0
EXTRACT: note_on channel=9 note=86 velocity=0 time=0.0025201614583333335
EXTRACT: note_on channel=9 note=76 velocity=0 time=0
EXTRACT: note_on channel=9 note=35 velocity=0 time=0.005040322916666667
EXTRACT: note_on channel=10 note=56 velocity=0 time=0.020161291666666668
EXTRACT: note_on channel=12 note=23 velocity=0 time=0.0025201614583333335
EXTRACT: note_on channel=3 note=70 velocity=0 time=0.040322583333333335
EXTRACT: note_on channel=9 note=82 velocity=43 time=0.040322583333333335
EXTRACT: note_on channel=9 note=86 velocity=91 time=0.0025201614583333335
EXTRACT: note_on channel=9 note=82 velocity=0 time=0.007560484375000001
EXTRACT: note_on channel=9 note=86 velocity=0 time=0.0025201614583333335
EXTRACT: note_on channel=2 note=36 velocity=0 time=0.09324597395833334
EXTRACT: note_on channel=1 note=24 velocity=0 time=0
EXTRACT: note_on channel=13 note=36 velocity=0 time=0
EXTRACT: note_on channel=9 note=86 velocity=113 time=0.007560484375000001
EXTRACT: note_on channel=10 note=58 velocity=0 time=0.007560484375000001
EXTRACT: note_on channel=4 note=65 velocity=107 time=0
EXTRACT: note_on channel=4 note=72 velocity=118 time=0
EXTRACT: note_on channel=5 note=56 velocity=107 time=0
EXTRACT: note_on channel=6 note=60 velocity=114 time=0
EXTRACT: note_on channel=7 note=65 velocity=93 time=0
EXTRACT: note_on channel=7 note=68 velocity=102 time=0
EXTRACT: note_on channel=7 note=72 velocity=102 time=0
EXTRACT: note_on channel=9 note=59 velocity=70 time=0
EXTRACT: note_on channel=9 note=64 velocity=102 time=0
EXTRACT: note_on channel=9 note=82 velocity=79 time=0
EXTRACT: note_on channel=15 note=56 velocity=1 time=0
EXTRACT: note_on channel=15 note=60 velocity=1 time=0
EXTRACT: note_on channel=15 note=65 velocity=1 time=0
EXTRACT: note_on channel=15 note=72 velocity=1 time=0
EXTRACT: note_on channel=9 note=86 velocity=0 time=0.0025201614583333335
EXTRACT: note_on channel=1 note=32 velocity=107 time=0
EXTRACT: note_on channel=2 note=44 velocity=113 time=0
EXTRACT: note_on channel=13 note=44 velocity=95 time=0
EXTRACT: note_on channel=9 note=35 velocity=107 time=0.0025201614583333335
EXTRACT: note_on channel=10 note=60 velocity=89 time=0
EXTRACT: note_on channel=12 note=23 velocity=107 time=0
EXTRACT: note_on channel=9 note=82 velocity=0 time=0.005040322916666667
EXTRACT: note_on channel=9 note=64 velocity=0 time=0
EXTRACT: note_on channel=9 note=59 velocity=0 time=0
EXTRACT: note_on channel=9 note=35 velocity=0 time=0.005040322916666667
EXTRACT: note_on channel=6 note=60 velocity=0 time=0.022681453125
EXTRACT: note_on channel=4 note=65 velocity=0 time=0
EXTRACT: note_on channel=7 note=72 velocity=0 time=0
EXTRACT: note_on channel=7 note=65 velocity=0 time=0
EXTRACT: note_on channel=7 note=68 velocity=0 time=0
EXTRACT: note_on channel=4 note=72 velocity=0 time=0
EXTRACT: note_on channel=15 note=60 velocity=0 time=0
EXTRACT: note_on channel=5 note=56 velocity=0 time=0
EXTRACT: note_on channel=12 note=23 velocity=0 time=0
EXTRACT: note_on channel=15 note=72 velocity=0 time=0
EXTRACT: note_on channel=15 note=65 velocity=0 time=0
EXTRACT: note_on channel=15 note=56 velocity=0 time=0
EXTRACT: note_on channel=5 note=56 velocity=102 time=0.08064516666666667
EXTRACT: note_on channel=6 note=60 velocity=113 time=0
EXTRACT: note_on channel=9 note=86 velocity=119 time=0
EXTRACT: note_on channel=15 note=56 velocity=1 time=0
EXTRACT: note_on channel=15 note=60 velocity=1 time=0
EXTRACT: note_on channel=4 note=65 velocity=93 time=0.0025201614583333335
EXTRACT: note_on channel=4 note=72 velocity=113 time=0
EXTRACT: note_on channel=7 note=65 velocity=76 time=0
EXTRACT: note_on channel=7 note=68 velocity=89 time=0
EXTRACT: note_on channel=7 note=72 velocity=98 time=0
EXTRACT: note_on channel=9 note=82 velocity=67 time=0
EXTRACT: note_on channel=15 note=65 velocity=1 time=0
EXTRACT: note_on channel=15 note=72 velocity=1 time=0
EXTRACT: note_on channel=9 note=86 velocity=0 time=0.007560484375000001
EXTRACT: note_on channel=9 note=82 velocity=0 time=0.0025201614583333335
EXTRACT: note_on channel=15 note=60 velocity=0 time=0.025201614583333334
EXTRACT: note_on channel=15 note=56 velocity=0 time=0
EXTRACT: note_on channel=6 note=60 velocity=0 time=0
EXTRACT: note_on channel=5 note=56 velocity=0 time=0
EXTRACT: note_on channel=15 note=65 velocity=0 time=0.0025201614583333335
EXTRACT: note_on channel=4 note=65 velocity=0 time=0
EXTRACT: note_on channel=15 note=72 velocity=0 time=0
EXTRACT: note_on channel=4 note=72 velocity=0 time=0
EXTRACT: note_on channel=7 note=65 velocity=0 time=0
EXTRACT: note_on channel=7 note=72 velocity=0 time=0
EXTRACT: note_on channel=7 note=68 velocity=0 time=0
EXTRACT: note_on channel=5 note=56 velocity=72 time=0.08064516666666667
EXTRACT: note_on channel=6 note=60 velocity=107 time=0
EXTRACT: note_on channel=15 note=56 velocity=1 time=0
EXTRACT: note_on channel=15 note=60 velocity=1 time=0
EXTRACT: note_on channel=4 note=65 velocity=107 time=0.0025201614583333335
EXTRACT: note_on channel=4 note=72 velocity=102 time=0
EXTRACT: note_on channel=7 note=65 velocity=56 time=0
EXTRACT: note_on channel=7 note=68 velocity=89 time=0
EXTRACT: note_on channel=7 note=72 velocity=89 time=0
EXTRACT: note_on channel=9 note=46 velocity=60 time=0
EXTRACT: note_on channel=9 note=63 velocity=98 time=0
EXTRACT: note_on channel=9 note=82 velocity=54 time=0
EXTRACT: note_on channel=15 note=65 velocity=1 time=0
EXTRACT: note_on channel=15 note=72 velocity=1 time=0
EXTRACT: note_on channel=9 note=82 velocity=0 time=0.010080645833333334
EXTRACT: note_on channel=9 note=63 velocity=0 time=0
EXTRACT: note_on channel=9 note=46 velocity=0 time=0
EXTRACT: note_on channel=15 note=56 velocity=0 time=0.025201614583333334
EXTRACT: note_on channel=6 note=60 velocity=0 time=0
EXTRACT: note_on channel=15 note=60 velocity=0 time=0
EXTRACT: note_on channel=5 note=56 velocity=0 time=0
EXTRACT: note_on channel=15 note=65 velocity=0 time=0.0025201614583333335
EXTRACT: note_on channel=4 note=72 velocity=0 time=0
EXTRACT: note_on channel=4 note=65 velocity=0 time=0
EXTRACT: note_on channel=15 note=72 velocity=0 time=0
EXTRACT: note_on channel=7 note=65 velocity=0 time=0
EXTRACT: note_on channel=7 note=68 velocity=0 time=0
EXTRACT: note_on channel=7 note=72 velocity=0 time=0
EXTRACT: note_on channel=2 note=44 velocity=0 time=0.040322583333333335
EXTRACT: note_on channel=1 note=32 velocity=0 time=0
EXTRACT: note_on channel=13 note=44 velocity=0 time=0
EXTRACT: note_on channel=1 note=29 velocity=113 time=0.027721776041666667
EXTRACT: note_on channel=2 note=41 velocity=119 time=0
EXTRACT: note_on channel=13 note=41 velocity=101 time=0
EXTRACT: note_on channel=5 note=56 velocity=107 time=0.012600807291666667
EXTRACT: note_on channel=6 note=60 velocity=113 time=0
EXTRACT: note_on channel=9 note=76 velocity=80 time=0
EXTRACT: note_on channel=15 note=56 velocity=1 time=0
EXTRACT: note_on channel=15 note=60 velocity=1 time=0
EXTRACT: note_on channel=4 note=65 velocity=93 time=0.0025201614583333335
EXTRACT: note_on channel=4 note=72 velocity=102 time=0
EXTRACT: note_on channel=7 note=65 velocity=47 time=0
EXTRACT: note_on channel=7 note=68 velocity=107 time=0
EXTRACT: note_on channel=7 note=72 velocity=102 time=0
EXTRACT: note_on channel=9 note=82 velocity=42 time=0
EXTRACT: note_on channel=15 note=65 velocity=1 time=0
EXTRACT: note_on channel=15 note=72 velocity=1 time=0
EXTRACT: note_on channel=9 note=76 velocity=0 time=0.007560484375000001
EXTRACT: note_on channel=9 note=82 velocity=0 time=0.0025201614583333335
EXTRACT: note_on channel=15 note=60 velocity=0 time=0.025201614583333334
EXTRACT: note_on channel=15 note=56 velocity=0 time=0
EXTRACT: note_on channel=6 note=60 velocity=0 time=0
EXTRACT: note_on channel=5 note=56 velocity=0 time=0
EXTRACT: note_on channel=15 note=65 velocity=0 time=0.0025201614583333335
EXTRACT: note_on channel=4 note=65 velocity=0 time=0
EXTRACT: note_on channel=15 note=72 velocity=0 time=0
EXTRACT: note_on channel=4 note=72 velocity=0 time=0
EXTRACT: note_on channel=7 note=65 velocity=0 time=0
EXTRACT: note_on channel=7 note=72 velocity=0 time=0
EXTRACT: note_on channel=7 note=68 velocity=0 time=0
EXTRACT: note_on channel=5 note=56 velocity=93 time=0.08064516666666667
EXTRACT: note_on channel=6 note=60 velocity=113 time=0
EXTRACT: note_on channel=15 note=56 velocity=1 time=0
EXTRACT: note_on channel=15 note=60 velocity=1 time=0
EXTRACT: note_on channel=4 note=65 velocity=119 time=0.0025201614583333335
EXTRACT: note_on channel=4 note=72 velocity=120 time=0
EXTRACT: note_on channel=7 note=65 velocity=75 time=0
EXTRACT: note_on channel=7 note=68 velocity=75 time=0
EXTRACT: note_on channel=7 note=72 velocity=75 time=0
EXTRACT: note_on channel=9 note=59 velocity=70 time=0
EXTRACT: note_on channel=9 note=62 velocity=113 time=0
EXTRACT: note_on channel=9 note=82 velocity=79 time=0
EXTRACT: note_on channel=15 note=65 velocity=1 time=0
EXTRACT: note_on channel=15 note=72 velocity=1 time=0
EXTRACT: note_on channel=9 note=40 velocity=120 time=0.005040322916666667
EXTRACT: note_on channel=9 note=82 velocity=0 time=0.005040322916666667
EXTRACT: note_on channel=9 note=62 velocity=0 time=0
EXTRACT: note_on channel=9 note=59 velocity=0 time=0
EXTRACT: note_on channel=9 note=40 velocity=0 time=0.005040322916666667
EXTRACT: note_on channel=9 note=82 velocity=68 time=0.10584678125000001
EXTRACT: note_on channel=9 note=82 velocity=0 time=0.010080645833333334
EXTRACT: note_on channel=15 note=65 velocity=0 time=0.060483875000000006
EXTRACT: note_on channel=4 note=65 velocity=0 time=0
EXTRACT: note_on channel=15 note=72 velocity=0 time=0
EXTRACT: note_on channel=4 note=72 velocity=0 time=0
EXTRACT: note_on channel=5 note=56 velocity=0 time=0.012600807291666667
EXTRACT: note_on channel=6 note=60 velocity=0 time=0
EXTRACT: note_on channel=13 note=41 velocity=0 time=0
EXTRACT: note_on channel=15 note=56 velocity=0 time=0
EXTRACT: note_on channel=1 note=29 velocity=0 time=0
EXTRACT: note_on channel=15 note=60 velocity=0 time=0
EXTRACT: note_on channel=2 note=41 velocity=0 time=0
EXTRACT: note_on channel=7 note=65 velocity=0 time=0.0025201614583333335
EXTRACT: note_on channel=7 note=72 velocity=0 time=0
EXTRACT: note_on channel=7 note=68 velocity=0 time=0.015120968750000002
EXTRACT: note_on channel=1 note=24 velocity=101 time=0.0025201614583333335
EXTRACT: note_on channel=2 note=36 velocity=107 time=0
EXTRACT: note_on channel=13 note=36 velocity=89 time=0
EXTRACT: note_on channel=9 note=86 velocity=119 time=0.007560484375000001
EXTRACT: note_on channel=5 note=56 velocity=93 time=0.007560484375000001
EXTRACT: note_on channel=6 note=60 velocity=102 time=0
EXTRACT: note_on channel=15 note=56 velocity=1 time=0
EXTRACT: note_on channel=15 note=60 velocity=1 time=0
EXTRACT: note_on channel=9 note=86 velocity=0 time=0.0025201614583333335
EXTRACT: note_on channel=4 note=72 velocity=114 time=0
EXTRACT: note_on channel=7 note=65 velocity=89 time=0
EXTRACT: note_on channel=7 note=68 velocity=89 time=0
EXTRACT: note_on channel=7 note=72 velocity=89 time=0
EXTRACT: note_on channel=9 note=46 velocity=50 time=0
EXTRACT: note_on channel=9 note=61 velocity=107 time=0
EXTRACT: note_on channel=9 note=82 velocity=54 time=0
EXTRACT: note_on channel=15 note=72 velocity=1 time=0
EXTRACT: note_on channel=9 note=76 velocity=80 time=0.005040322916666667
EXTRACT: note_on channel=9 note=82 velocity=0 time=0.005040322916666667
EXTRACT: note_on channel=9 note=61 velocity=0 time=0
EXTRACT: note_on channel=9 note=46 velocity=0 time=0
EXTRACT: note_on channel=9 note=76 velocity=0 time=0.005040322916666667
EXTRACT: note_on channel=9 note=86 velocity=104 time=0.09324597395833334
EXTRACT: note_on channel=7 note=65 velocity=0 time=0.007560484375000001
EXTRACT: note_on channel=9 note=86 velocity=0 time=0.0025201614583333335
EXTRACT: note_on channel=7 note=72 velocity=0 time=0.0025201614583333335
EXTRACT: note_on channel=9 note=61 velocity=102 time=0
EXTRACT: note_on channel=9 note=82 velocity=45 time=0
EXTRACT: note_on channel=7 note=68 velocity=0 time=0.0025201614583333335
EXTRACT: note_on channel=9 note=35 velocity=98 time=0.005040322916666667
EXTRACT: note_on channel=12 note=23 velocity=98 time=0
EXTRACT: note_on channel=9 note=82 velocity=0 time=0.0025201614583333335
EXTRACT: note_on channel=9 note=61 velocity=0 time=0
EXTRACT: note_on channel=9 note=35 velocity=0 time=0.007560484375000001
EXTRACT: note_on channel=12 note=23 velocity=0 time=0.022681453125
EXTRACT: note_on channel=15 note=72 velocity=0 time=0.022681453125
EXTRACT: note_on channel=4 note=72 velocity=0 time=0
EXTRACT: note_on channel=15 note=56 velocity=0 time=0.012600807291666667
EXTRACT: note_on channel=5 note=56 velocity=0 time=0
EXTRACT: note_on channel=15 note=60 velocity=0 time=0.010080645833333334
EXTRACT: note_on channel=6 note=60 velocity=0 time=0
EXTRACT: note_on channel=9 note=86 velocity=108 time=0.022681453125
EXTRACT: note_on channel=9 note=86 velocity=0 time=0.010080645833333334
EXTRACT: note_on channel=9 note=59 velocity=70 time=0.0025201614583333335
EXTRACT: note_on channel=9 note=82 velocity=78 time=0
EXTRACT: note_on channel=9 note=82 velocity=0 time=0.010080645833333334
EXTRACT: note_on channel=9 note=59 velocity=0 time=0
EXTRACT: note_on channel=10 note=60 velocity=0 time=0.04284274479166667
EXTRACT: note_on channel=9 note=86 velocity=104 time=0.060483875000000006
EXTRACT: note_on channel=9 note=61 velocity=98 time=0.007560484375000001
EXTRACT: note_on channel=9 note=82 velocity=68 time=0
EXTRACT: note_on channel=9 note=86 velocity=0 time=0.0025201614583333335
EXTRACT: note_on channel=9 note=35 velocity=85 time=0
EXTRACT: note_on channel=12 note=23 velocity=85 time=0
EXTRACT: note_on channel=9 note=61 velocity=0 time=0.007560484375000001
EXTRACT: note_on channel=9 note=82 velocity=0 time=0
EXTRACT: note_on channel=9 note=35 velocity=0 time=0.0025201614583333335
EXTRACT: note_on channel=12 note=23 velocity=0 time=0.022681453125
EXTRACT: note_on channel=1 note=32 velocity=107 time=0.07308468229166667
EXTRACT: note_on channel=2 note=44 velocity=113 time=0
EXTRACT: note_on channel=13 note=44 velocity=95 time=0
EXTRACT: note_on channel=13 note=36 velocity=0 time=0.005040322916666667
EXTRACT: note_on channel=1 note=24 velocity=0 time=0
EXTRACT: note_on channel=2 note=36 velocity=0 time=0
EXTRACT: note_on channel=10 note=60 velocity=93 time=0
EXTRACT: note_on channel=5 note=56 velocity=102 time=0.005040322916666667
EXTRACT: note_on channel=6 note=60 velocity=107 time=0
EXTRACT: note_on channel=15 note=56 velocity=1 time=0
EXTRACT: note_on channel=15 note=60 velocity=1 time=0
EXTRACT: note_on channel=4 note=72 velocity=115 time=0.0025201614583333335
EXTRACT: note_on channel=7 note=65 velocity=89 time=0
EXTRACT: note_on channel=7 note=68 velocity=93 time=0
EXTRACT: note_on channel=7 note=72 velocity=98 time=0
EXTRACT: note_on channel=9 note=46 velocity=60 time=0
EXTRACT: note_on channel=9 note=82 velocity=58 time=0
EXTRACT: note_on channel=15 note=72 velocity=1 time=0
EXTRACT: note_on channel=9 note=35 velocity=93 time=0.0025201614583333335
EXTRACT: note_on channel=12 note=23 velocity=93 time=0
EXTRACT: note_on channel=9 note=82 velocity=0 time=0.007560484375000001
EXTRACT: note_on channel=9 note=46 velocity=0 time=0
EXTRACT: note_on channel=9 note=35 velocity=0 time=0.0025201614583333335
EXTRACT: note_on channel=12 note=23 velocity=0 time=0.022681453125
EXTRACT: note_on channel=9 note=76 velocity=80 time=0.08316532812500001
EXTRACT: note_on channel=9 note=61 velocity=98 time=0.0025201614583333335
EXTRACT: note_on channel=9 note=82 velocity=42 time=0
EXTRACT: note_on channel=9 note=76 velocity=0 time=0.007560484375000001
EXTRACT: note_on channel=9 note=82 velocity=0 time=0.0025201614583333335
EXTRACT: note_on channel=9 note=61 velocity=0 time=0
EXTRACT: note_on channel=7 note=68 velocity=0 time=0.0025201614583333335
EXTRACT: note_on channel=7 note=65 velocity=0 time=0.0025201614583333335
EXTRACT: note_on channel=7 note=72 velocity=0 time=0.015120968750000002
EXTRACT: note_on channel=15 note=56 velocity=0 time=0.07056452083333334
EXTRACT: note_on channel=5 note=56 velocity=0 time=0
EXTRACT: note_on channel=4 note=72 velocity=0 time=0.005040322916666667
EXTRACT: note_on channel=15 note=72 velocity=0 time=0
EXTRACT: note_on channel=15 note=60 velocity=0 time=0.0025201614583333335
EXTRACT: note_on channel=6 note=60 velocity=0 time=0
EXTRACT: note_on channel=13 note=44 velocity=0 time=0.0025201614583333335
EXTRACT: note_on channel=1 note=32 velocity=0 time=0
EXTRACT: note_on channel=2 note=44 velocity=0 time=0
EXTRACT: note_on channel=1 note=29 velocity=107 time=0.0025201614583333335
EXTRACT: note_on channel=2 note=41 velocity=113 time=0
EXTRACT: note_on channel=13 note=41 velocity=95 time=0
EXTRACT: note_on channel=10 note=61 velocity=93 time=0.0025201614583333335
EXTRACT: note_on channel=9 note=40 velocity=120 time=0.0025201614583333335
EXTRACT: note_on channel=10 note=60 velocity=0 time=0.0025201614583333335
EXTRACT: note_on channel=9 note=59 velocity=70 time=0
EXTRACT: note_on channel=9 note=62 velocity=113 time=0
EXTRACT: note_on channel=9 note=82 velocity=78 time=0
EXTRACT: note_on channel=9 note=40 velocity=0 time=0.007560484375000001
EXTRACT: note_on channel=9 note=82 velocity=0 time=0.0025201614583333335
EXTRACT: note_on channel=9 note=59 velocity=0 time=0
EXTRACT: note_on channel=9 note=62 velocity=0 time=0
EXTRACT: note_on channel=9 note=82 velocity=64 time=0.11088710416666667
EXTRACT: note_on channel=9 note=82 velocity=0 time=0.010080645833333334
EXTRACT: note_on channel=10 note=61 velocity=0 time=0.09324597395833334
EXTRACT: note_on channel=1 note=29 velocity=0 time=0.007560484375000001
EXTRACT: note_on channel=2 note=41 velocity=0 time=0
EXTRACT: note_on channel=13 note=41 velocity=0 time=0
EXTRACT: note_on channel=1 note=24 velocity=107 time=0.0025201614583333335
EXTRACT: note_on channel=2 note=36 velocity=113 time=0
EXTRACT: note_on channel=13 note=36 velocity=95 time=0
EXTRACT: note_on channel=10 note=60 velocity=98 time=0.0025201614583333335
EXTRACT: note_on channel=8 note=64 velocity=81 time=0.005040322916666667
EXTRACT: note_on channel=9 note=46 velocity=55 time=0
EXTRACT: note_on channel=9 note=63 velocity=107 time=0
EXTRACT: note_on channel=9 note=82 velocity=51 time=0
EXTRACT: note_on channel=9 note=35 velocity=93 time=0.0025201614583333335
EXTRACT: note_on channel=12 note=23 velocity=93 time=0
EXTRACT: note_on channel=9 note=76 velocity=80 time=0.0025201614583333335
EXTRACT: note_on channel=9 note=86 velocity=113 time=0
EXTRACT: note_on channel=9 note=82 velocity=0 time=0.005040322916666667
EXTRACT: note_on channel=9 note=63 velocity=0 time=0
EXTRACT: note_on channel=9 note=46 velocity=0 time=0
EXTRACT: note_on channel=9 note=35 velocity=0 time=0.0025201614583333335
EXTRACT: note_on channel=9 note=76 velocity=0 time=0.0025201614583333335
EXTRACT: note_on channel=9 note=86 velocity=0 time=0
EXTRACT: note_on channel=12 note=23 velocity=0 time=0.020161291666666668
EXTRACT: note_on channel=9 note=82 velocity=43 time=0.08568548958333334
EXTRACT: note_on channel=9 note=86 velocity=82 time=0
EXTRACT: note_on channel=9 note=86 velocity=0 time=0.010080645833333334
EXTRACT: note_on channel=9 note=82 velocity=0 time=0
EXTRACT: note_on channel=8 note=64 velocity=0 time=0.025201614583333334
EXTRACT: note_on channel=10 note=60 velocity=0 time=0.068044359375
EXTRACT: note_on channel=2 note=36 velocity=0 time=0.007560484375000001
EXTRACT: note_on channel=1 note=24 velocity=0 time=0
EXTRACT: note_on channel=13 note=36 velocity=0 time=0
EXTRACT: note_on channel=10 note=58 velocity=89 time=0
EXTRACT: note_on channel=1 note=31 velocity=113 time=0.0025201614583333335
EXTRACT: note_on channel=2 note=43 velocity=119 time=0
EXTRACT: note_on channel=13 note=43 velocity=101 time=0
EXTRACT: note_on channel=9 note=35 velocity=102 time=0.005040322916666667
EXTRACT: note_on channel=9 note=86 velocity=119 time=0
EXTRACT: note_on channel=12 note=23 velocity=102 time=0
EXTRACT: note_on channel=8 note=67 velocity=93 time=0.0025201614583333335
EXTRACT: note_on channel=8 note=74 velocity=113 time=0
EXTRACT: note_on channel=9 note=58 velocity=76 time=0
EXTRACT: note_on channel=9 note=59 velocity=70 time=0
EXTRACT: note_on channel=9 note=64 velocity=102 time=0
EXTRACT: note_on channel=9 note=82 velocity=79 time=0
EXTRACT: note_on channel=9 note=86 velocity=0 time=0.007560484375000001
EXTRACT: note_on channel=9 note=35 velocity=0 time=0
EXTRACT: note_on channel=9 note=59 velocity=0 time=0.0025201614583333335
EXTRACT: note_on channel=9 note=58 velocity=0 time=0
EXTRACT: note_on channel=9 note=64 velocity=0 time=0
EXTRACT: note_on channel=9 note=82 velocity=0 time=0
EXTRACT: note_on channel=12 note=23 velocity=0 time=0.020161291666666668
EXTRACT: note_on channel=9 note=82 velocity=67 time=0.0907258125
EXTRACT: note_on channel=9 note=86 velocity=104 time=0.005040322916666667
EXTRACT: note_on channel=9 note=82 velocity=0 time=0.005040322916666667
EXTRACT: note_on channel=9 note=86 velocity=0 time=0.005040322916666667
EXTRACT: note_on channel=8 note=74 velocity=0 time=0
EXTRACT: note_on channel=8 note=67 velocity=0 time=0
EXTRACT: note_on channel=9 note=46 velocity=60 time=0.10584678125000001
EXTRACT: note_on channel=9 note=63 velocity=113 time=0
EXTRACT: note_on channel=9 note=82 velocity=54 time=0
EXTRACT: note_on channel=9 note=82 velocity=0 time=0.010080645833333334
EXTRACT: note_on channel=9 note=46 velocity=0 time=0
EXTRACT: note_on channel=9 note=63 velocity=0 time=0
EXTRACT: note_on channel=2 note=43 velocity=0 time=0.05796371354166667
EXTRACT: note_on channel=1 note=31 velocity=0 time=0
EXTRACT: note_on channel=13 note=43 velocity=0 time=0
EXTRACT: note_on channel=1 note=28 velocity=107 time=0.03276209895833333
EXTRACT: note_on channel=2 note=40 velocity=113 time=0
EXTRACT: note_on channel=13 note=40 velocity=95 time=0
EXTRACT: note_on channel=8 note=67 velocity=102 time=0.020161291666666668
EXTRACT: note_on channel=8 note=74 velocity=102 time=0
EXTRACT: note_on channel=9 note=58 velocity=68 time=0
EXTRACT: note_on channel=9 note=82 velocity=42 time=0
EXTRACT: note_on channel=9 note=82 velocity=0 time=0.010080645833333334
EXTRACT: note_on channel=9 note=58 velocity=0 time=0
EXTRACT: note_on channel=9 note=76 velocity=80 time=0.010080645833333334
EXTRACT: note_on channel=9 note=76 velocity=0 time=0.010080645833333334
EXTRACT: note_on channel=10 note=55 velocity=83 time=0.07812500520833333
EXTRACT: note_on channel=10 note=58 velocity=0 time=0.007560484375000001
EXTRACT: note_on channel=9 note=40 velocity=120 time=0.0025201614583333335
EXTRACT: note_on channel=9 note=59 velocity=70 time=0.0025201614583333335
EXTRACT: note_on channel=9 note=62 velocity=119 time=0
EXTRACT: note_on channel=9 note=82 velocity=79 time=0
EXTRACT: note_on channel=9 note=40 velocity=0 time=0.007560484375000001
EXTRACT: note_on channel=9 note=82 velocity=0 time=0.0025201614583333335
EXTRACT: note_on channel=9 note=59 velocity=0 time=0
EXTRACT: note_on channel=9 note=62 velocity=0 time=0
EXTRACT: note_on channel=8 note=74 velocity=0 time=0.0025201614583333335
EXTRACT: note_on channel=8 note=67 velocity=0 time=0
EXTRACT: note_on channel=9 note=82 velocity=68 time=0.10836694270833334
EXTRACT: note_on channel=9 note=82 velocity=0 time=0.010080645833333334
EXTRACT: note_on channel=13 note=40 velocity=0 time=0.04284274479166667
EXTRACT: note_on channel=1 note=28 velocity=0 time=0
EXTRACT: note_on channel=2 note=40 velocity=0 time=0
EXTRACT: note_on channel=1 note=24 velocity=107 time=0.040322583333333335
EXTRACT: note_on channel=2 note=36 velocity=113 time=0
EXTRACT: note_on channel=13 note=36 velocity=95 time=0
EXTRACT: note_on channel=9 note=35 velocity=85 time=0.025201614583333334
EXTRACT: note_on channel=9 note=86 velocity=108 time=0
EXTRACT: note_on channel=12 note=23 velocity=85 time=0
EXTRACT: note_on channel=8 note=67 velocity=107 time=0.0025201614583333335
EXTRACT: note_on channel=8 note=74 velocity=113 time=0
EXTRACT: note_on channel=9 note=46 velocity=52 time=0
EXTRACT: note_on channel=9 note=58 velocity=68 time=0
EXTRACT: note_on channel=9 note=61 velocity=107 time=0
EXTRACT: note_on channel=9 note=82 velocity=54 time=0
EXTRACT: note_on channel=9 note=86 velocity=0 time=0.007560484375000001
EXTRACT: note_on channel=9 note=35 velocity=0 time=0
EXTRACT: note_on channel=9 note=76 velocity=80 time=0
EXTRACT: note_on channel=9 note=58 velocity=0 time=0.0025201614583333335
EXTRACT: note_on channel=9 note=46 velocity=0 time=0
EXTRACT: note_on channel=9 note=61 velocity=0 time=0
EXTRACT: note_on channel=9 note=82 velocity=0 time=0
EXTRACT: note_on channel=9 note=76 velocity=0 time=0.007560484375000001
EXTRACT: note_on channel=12 note=23 velocity=0 time=0.012600807291666667
EXTRACT: note_on channel=9 note=86 velocity=99 time=0.07812500520833333
EXTRACT: note_on channel=9 note=35 velocity=85 time=0.007560484375000001
EXTRACT: note_on channel=12 note=23 velocity=85 time=0
EXTRACT: note_on channel=9 note=86 velocity=0 time=0.0025201614583333335
EXTRACT: note_on channel=9 note=61 velocity=107 time=0.0025201614583333335
EXTRACT: note_on channel=9 note=82 velocity=45 time=0
EXTRACT: note_on channel=9 note=35 velocity=0 time=0.005040322916666667
EXTRACT: note_on channel=9 note=82 velocity=0 time=0.005040322916666667
EXTRACT: note_on channel=9 note=61 velocity=0 time=0
EXTRACT: note_on channel=8 note=74 velocity=0 time=0.005040322916666667
EXTRACT: note_on channel=8 note=67 velocity=0 time=0.010080645833333334
EXTRACT: note_on channel=12 note=23 velocity=0 time=0.0025201614583333335
EXTRACT: note_on channel=10 note=52 velocity=74 time=0.08064516666666667
EXTRACT: note_on channel=9 note=86 velocity=108 time=0.0025201614583333335
EXTRACT: note_on channel=13 note=36 velocity=0 time=0.0025201614583333335
EXTRACT: note_on channel=1 note=24 velocity=0 time=0
EXTRACT: note_on channel=2 note=36 velocity=0 time=0
EXTRACT: note_on channel=1 note=22 velocity=101 time=0
EXTRACT: note_on channel=2 note=34 velocity=107 time=0
EXTRACT: note_on channel=13 note=34 velocity=89 time=0
EXTRACT: note_on channel=10 note=55 velocity=0 time=0.0025201614583333335
EXTRACT: note_on channel=9 note=86 velocity=0 time=0.005040322916666667
EXTRACT: note_on channel=9 note=59 velocity=70 time=0
EXTRACT: note_on channel=9 note=82 velocity=78 time=0
EXTRACT: note_on channel=9 note=82 velocity=0 time=0.010080645833333334
EXTRACT: note_on channel=9 note=59 velocity=0 time=0
EXTRACT: note_on channel=9 note=86 velocity=113 time=0.10080645833333333
EXTRACT: note_on channel=9 note=86 velocity=0 time=0.010080645833333334
EXTRACT: note_on channel=9 note=58 velocity=64 time=0
EXTRACT: note_on channel=9 note=61 velocity=102 time=0
EXTRACT: note_on channel=9 note=82 velocity=68 time=0
EXTRACT: note_on channel=9 note=35 velocity=89 time=0.0025201614583333335
EXTRACT: note_on channel=12 note=23 velocity=89 time=0
EXTRACT: note_on channel=9 note=82 velocity=0 time=0.007560484375000001
EXTRACT: note_on channel=9 note=61 velocity=0 time=0
EXTRACT: note_on channel=9 note=58 velocity=0 time=0
EXTRACT: note_on channel=9 note=35 velocity=0 time=0.0025201614583333335
EXTRACT: note_on channel=12 note=23 velocity=0 time=0.022681453125
EXTRACT: note_on channel=9 note=35 velocity=102 time=0.08316532812500001
EXTRACT: note_on channel=12 note=23 velocity=102 time=0
EXTRACT: note_on channel=8 note=67 velocity=93 time=0.0025201614583333335
EXTRACT: note_on channel=8 note=74 velocity=102 time=0
EXTRACT: note_on channel=9 note=46 velocity=60 time=0
EXTRACT: note_on channel=9 note=82 velocity=58 time=0
EXTRACT: note_on channel=9 note=35 velocity=0 time=0.007560484375000001
EXTRACT: note_on channel=9 note=82 velocity=0 time=0.0025201614583333335
EXTRACT: note_on channel=9 note=46 velocity=0 time=0
EXTRACT: note_on channel=12 note=23 velocity=0 time=0.020161291666666668
EXTRACT: note_on channel=1 note=22 velocity=0 time=0.05796371354166667
EXTRACT: note_on channel=2 note=34 velocity=0 time=0
EXTRACT: note_on channel=13 note=34 velocity=0 time=0
EXTRACT: note_on channel=8 note=74 velocity=0 time=0.010080645833333334
EXTRACT: note_on channel=8 note=67 velocity=0 time=0.005040322916666667
EXTRACT: note_on channel=1 note=24 velocity=107 time=0.005040322916666667
EXTRACT: note_on channel=2 note=36 velocity=113 time=0
EXTRACT: note_on channel=13 note=36 velocity=95 time=0
EXTRACT: note_on channel=9 note=76 velocity=80 time=0.010080645833333334
EXTRACT: note_on channel=9 note=61 velocity=107 time=0.0025201614583333335
EXTRACT: note_on channel=9 note=82 velocity=42 time=0
EXTRACT: note_on channel=9 note=76 velocity=0 time=0.007560484375000001
EXTRACT: note_on channel=9 note=61 velocity=0 time=0.0025201614583333335
EXTRACT: note_on channel=9 note=82 velocity=0 time=0
EXTRACT: note_on channel=10 note=55 velocity=72 time=0.10584678125000001
EXTRACT: note_on channel=8 note=67 velocity=98 time=0.005040322916666667
EXTRACT: note_on channel=8 note=74 velocity=107 time=0
EXTRACT: note_on channel=9 note=40 velocity=120 time=0
EXTRACT: note_on channel=9 note=58 velocity=72 time=0
EXTRACT: note_on channel=9 note=59 velocity=70 time=0
EXTRACT: note_on channel=9 note=62 velocity=113 time=0
EXTRACT: note_on channel=9 note=82 velocity=78 time=0
EXTRACT: note_on channel=9 note=82 velocity=0 time=0.010080645833333334
EXTRACT: note_on channel=9 note=59 velocity=0 time=0
EXTRACT: note_on channel=9 note=58 velocity=0 time=0
EXTRACT: note_on channel=9 note=40 velocity=0 time=0
EXTRACT: note_on channel=9 note=62 velocity=0 time=0
EXTRACT: note_on channel=10 note=52 velocity=0 time=0.010080645833333334
EXTRACT: note_on channel=8 note=67 velocity=0 time=0.098286296875
EXTRACT: note_on channel=8 note=74 velocity=0 time=0
EXTRACT: note_on channel=9 note=82 velocity=64 time=0.0025201614583333335
EXTRACT: note_on channel=9 note=82 velocity=0 time=0.010080645833333334
EXTRACT: note_on channel=1 note=24 velocity=0 time=0.06552419791666667
EXTRACT: note_on channel=2 note=36 velocity=0 time=0
EXTRACT: note_on channel=13 note=36 velocity=0 time=0
EXTRACT: note_on channel=1 note=28 velocity=107 time=0.025201614583333334
EXTRACT: note_on channel=2 note=40 velocity=113 time=0
EXTRACT: note_on channel=13 note=40 velocity=95 time=0
EXTRACT: note_on channel=3 note=75 velocity=106 time=0.020161291666666668
EXTRACT: note_on channel=9 note=46 velocity=53 time=0
EXTRACT: note_on channel=9 note=63 velocity=102 time=0
EXTRACT: note_on channel=9 note=82 velocity=51 time=0
EXTRACT: note_on channel=9 note=35 velocity=93 time=0.0025201614583333335
EXTRACT: note_on channel=12 note=23 velocity=93 time=0
EXTRACT: note_on channel=9 note=76 velocity=80 time=0.0025201614583333335
EXTRACT: note_on channel=9 note=82 velocity=0 time=0.005040322916666667
EXTRACT: note_on channel=9 note=63 velocity=0 time=0
EXTRACT: note_on channel=9 note=46 velocity=0 time=0
EXTRACT: note_on channel=9 note=35 velocity=0 time=0.0025201614583333335
EXTRACT: note_on channel=9 note=76 velocity=0 time=0.0025201614583333335
EXTRACT: note_on channel=12 note=23 velocity=0 time=0.020161291666666668
EXTRACT: note_on channel=3 note=75 velocity=0 time=0.040322583333333335
EXTRACT: note_on channel=9 note=82 velocity=43 time=0.04536290625
EXTRACT: note_on channel=9 note=82 velocity=0 time=0.010080645833333334
EXTRACT: note_on channel=10 note=55 velocity=0 time=0.015120968750000002
EXTRACT: note_on channel=1 note=28 velocity=0 time=0.07560484375
EXTRACT: note_on channel=2 note=40 velocity=0 time=0
EXTRACT: note_on channel=13 note=40 velocity=0 time=0
EXTRACT: note_on channel=1 note=29 velocity=99 time=0.020161291666666668
EXTRACT: note_on channel=2 note=41 velocity=113 time=0
EXTRACT: note_on channel=3 note=77 velocity=115 time=0
EXTRACT: note_on channel=9 note=35 velocity=105 time=0
EXTRACT: note_on channel=9 note=57 velocity=55 time=0
EXTRACT: note_on channel=13 note=41 velocity=101 time=0
EXTRACT: note_on channel=9 note=57 velocity=0 time=0.010080645833333334
EXTRACT: note_on channel=9 note=35 velocity=0 time=0
EXTRACT: note_on channel=9 note=79 velocity=93 time=0.012600807291666667
EXTRACT: note_on channel=9 note=79 velocity=0 time=0.010080645833333334
EXTRACT: note_on channel=9 note=42 velocity=57 time=0.08820565104166667
EXTRACT: note_on channel=9 note=42 velocity=0 time=0.010080645833333334
EXTRACT: note_on channel=9 note=79 velocity=53 time=0.0025201614583333335
EXTRACT: note_on channel=9 note=79 velocity=0 time=0.010080645833333334
EXTRACT: note_on channel=9 note=79 velocity=89 time=0.09324597395833334
EXTRACT: note_on channel=9 note=42 velocity=47 time=0.005040322916666667
EXTRACT: note_on channel=9 note=82 velocity=54 time=0
EXTRACT: note_on channel=9 note=79 velocity=0 time=0.005040322916666667
EXTRACT: note_on channel=9 note=42 velocity=0 time=0.005040322916666667
EXTRACT: note_on channel=9 note=82 velocity=0 time=0
EXTRACT: note_on channel=3 note=77 velocity=0 time=0.040322583333333335
EXTRACT: note_on channel=9 note=79 velocity=55 time=0.05796371354166667
EXTRACT: note_on channel=9 note=79 velocity=0 time=0.010080645833333334
EXTRACT: note_on channel=3 note=72 velocity=106 time=0.0025201614583333335
EXTRACT: note_on channel=9 note=42 velocity=32 time=0
EXTRACT: note_on channel=9 note=42 velocity=0 time=0.010080645833333334
EXTRACT: note_on channel=9 note=35 velocity=70 time=0
EXTRACT: note_on channel=9 note=35 velocity=0 time=0.010080645833333334
EXTRACT: note_on channel=3 note=72 velocity=0 time=0.05796371354166667
EXTRACT: note_on channel=1 note=29 velocity=0 time=0.030241937500000003
EXTRACT: note_on channel=13 note=41 velocity=0 time=0
EXTRACT: note_on channel=2 note=41 velocity=0 time=0
EXTRACT: note_on channel=1 note=32 velocity=93 time=0.010080645833333334
EXTRACT: note_on channel=2 note=44 velocity=107 time=0
EXTRACT: note_on channel=9 note=78 velocity=75 time=0
EXTRACT: note_on channel=13 note=44 velocity=95 time=0
EXTRACT: note_on channel=9 note=42 velocity=98 time=0.0025201614583333335
EXTRACT: note_on channel=9 note=78 velocity=0 time=0.007560484375000001
EXTRACT: note_on channel=9 note=40 velocity=97 time=0
EXTRACT: note_on channel=9 note=42 velocity=0 time=0.0025201614583333335
EXTRACT: note_on channel=9 note=40 velocity=0 time=0.007560484375000001
EXTRACT: note_on channel=9 note=79 velocity=72 time=0.08820565104166667
EXTRACT: note_on channel=9 note=79 velocity=0 time=0.010080645833333334
EXTRACT: note_on channel=9 note=42 velocity=56 time=0.005040322916666667
EXTRACT: note_on channel=9 note=42 velocity=0 time=0.010080645833333334
EXTRACT: note_on channel=3 note=65 velocity=84 time=0.11088710416666667
EXTRACT: note_on channel=9 note=42 velocity=48 time=0
EXTRACT: note_on channel=9 note=82 velocity=50 time=0
EXTRACT: note_on channel=9 note=82 velocity=0 time=0.010080645833333334
EXTRACT: note_on channel=9 note=42 velocity=0 time=0
EXTRACT: note_on channel=3 note=65 velocity=0 time=0.052923390625000004
EXTRACT: note_on channel=9 note=78 velocity=75 time=0.017641130208333335
EXTRACT: note_on channel=9 note=78 velocity=0 time=0.010080645833333334
EXTRACT: note_on channel=1 note=37 velocity=99 time=0.030241937500000003
EXTRACT: note_on channel=2 note=49 velocity=113 time=0
EXTRACT: note_on channel=9 note=42 velocity=35 time=0
EXTRACT: note_on channel=13 note=49 velocity=101 time=0
EXTRACT: note_on channel=1 note=32 velocity=0 time=0.005040322916666667
EXTRACT: note_on channel=13 note=44 velocity=0 time=0
EXTRACT: note_on channel=2 note=44 velocity=0 time=0
EXTRACT: note_on channel=9 note=35 velocity=83 time=0
EXTRACT: note_on channel=9 note=42 velocity=0 time=0.005040322916666667
EXTRACT: note_on channel=9 note=35 velocity=0 time=0.005040322916666667
EXTRACT: note_on channel=9 note=79 velocity=49 time=0.07560484375
EXTRACT: note_on channel=9 note=79 velocity=0 time=0.010080645833333334
EXTRACT: note_on channel=3 note=70 velocity=106 time=0.020161291666666668
EXTRACT: note_on channel=9 note=42 velocity=104 time=0
EXTRACT: note_on channel=9 note=42 velocity=0 time=0.010080645833333334
EXTRACT: note_on channel=9 note=78 velocity=75 time=0.08316532812500001
EXTRACT: note_on channel=9 note=78 velocity=0 time=0.010080645833333334
EXTRACT: note_on channel=9 note=35 velocity=91 time=0.017641130208333335
EXTRACT: note_on channel=9 note=42 velocity=63 time=0
EXTRACT: note_on channel=9 note=42 velocity=0 time=0.010080645833333334
EXTRACT: note_on channel=9 note=35 velocity=0 time=0
EXTRACT: note_on channel=9 note=79 velocity=85 time=0.04284274479166667
EXTRACT: note_on channel=9 note=79 velocity=0 time=0.010080645833333334
EXTRACT: note_on channel=13 note=49 velocity=0 time=0.04788306770833334
EXTRACT: note_on channel=1 note=37 velocity=0 time=0
EXTRACT: note_on channel=2 note=49 velocity=0 time=0
EXTRACT: note_on channel=1 note=36 velocity=88 time=0.007560484375000001
EXTRACT: note_on channel=2 note=48 velocity=102 time=0
EXTRACT: note_on channel=13 note=48 velocity=90 time=0
EXTRACT: note_on channel=9 note=35 velocity=91 time=0.0025201614583333335
EXTRACT: note_on channel=9 note=42 velocity=46 time=0
EXTRACT: note_on channel=9 note=82 velocity=46 time=0
EXTRACT: note_on channel=9 note=82 velocity=0 time=0.010080645833333334
EXTRACT: note_on channel=9 note=35 velocity=0 time=0
EXTRACT: note_on channel=9 note=42 velocity=0 time=0
EXTRACT: note_on channel=3 note=70 velocity=0 time=0.05040322916666667
EXTRACT: note_on channel=3 note=68 velocity=97 time=0.060483875000000006
EXTRACT: note_on channel=9 note=42 velocity=35 time=0
EXTRACT: note_on channel=9 note=42 velocity=0 time=0.010080645833333334
EXTRACT: note_on channel=9 note=78 velocity=75 time=0.09576613541666668
EXTRACT: note_on channel=9 note=40 velocity=85 time=0.005040322916666667
EXTRACT: note_on channel=9 note=78 velocity=0 time=0.005040322916666667
EXTRACT: note_on channel=9 note=40 velocity=0 time=0.005040322916666667
EXTRACT: note_on channel=9 note=42 velocity=104 time=0
EXTRACT: note_on channel=9 note=42 velocity=0 time=0.010080645833333334
EXTRACT: note_on channel=13 note=48 velocity=0 time=0.0025201614583333335
EXTRACT: note_on channel=1 note=36 velocity=0 time=0
EXTRACT: note_on channel=2 note=48 velocity=0 time=0
EXTRACT: note_on channel=1 note=32 velocity=93 time=0.007560484375000001
EXTRACT: note_on channel=2 note=44 velocity=107 time=0
EXTRACT: note_on channel=13 note=44 velocity=95 time=0
EXTRACT: note_on channel=9 note=79 velocity=72 time=0.05796371354166667
EXTRACT: note_on channel=9 note=79 velocity=0 time=0.010080645833333334
EXTRACT: note_on channel=3 note=68 velocity=0 time=0.012600807291666667
EXTRACT: note_on channel=9 note=42 velocity=57 time=0.020161291666666668
EXTRACT: note_on channel=9 note=42 velocity=0 time=0.010080645833333334
EXTRACT: note_on channel=9 note=78 velocity=75 time=0.08316532812500001
EXTRACT: note_on channel=9 note=78 velocity=0 time=0.010080645833333334
EXTRACT: note_on channel=1 note=32 velocity=0 time=0.015120968750000002
EXTRACT: note_on channel=2 note=44 velocity=0 time=0
EXTRACT: note_on channel=13 note=44 velocity=0 time=0
EXTRACT: note_on channel=3 note=72 velocity=84 time=0.0025201614583333335
EXTRACT: note_on channel=9 note=35 velocity=87 time=0
EXTRACT: note_on channel=9 note=42 velocity=39 time=0
EXTRACT: note_on channel=9 note=82 velocity=47 time=0
EXTRACT: note_on channel=1 note=24 velocity=83 time=0.005040322916666667
EXTRACT: note_on channel=2 note=36 velocity=97 time=0
EXTRACT: note_on channel=13 note=36 velocity=85 time=0
EXTRACT: note_on channel=9 note=82 velocity=0 time=0.005040322916666667
EXTRACT: note_on channel=9 note=42 velocity=0 time=0
EXTRACT: note_on channel=9 note=35 velocity=0 time=0
EXTRACT: note_on channel=3 note=72 velocity=0 time=0.03528226041666667
EXTRACT: note_on channel=9 note=79 velocity=76 time=0.017641130208333335
EXTRACT: note_on channel=9 note=79 velocity=0 time=0.010080645833333334
EXTRACT: note_on channel=9 note=42 velocity=33 time=0.04788306770833334
EXTRACT: note_on channel=9 note=42 velocity=0 time=0.010080645833333334
EXTRACT: note_on channel=9 note=79 velocity=93 time=0.06300403645833334
EXTRACT: note_on channel=9 note=79 velocity=0 time=0.010080645833333334
EXTRACT: note_on channel=9 note=35 velocity=111 time=0.030241937500000003
EXTRACT: note_on channel=1 note=28 velocity=88 time=0.005040322916666667
EXTRACT: note_on channel=2 note=40 velocity=102 time=0
EXTRACT: note_on channel=13 note=40 velocity=90 time=0
EXTRACT: note_on channel=3 note=72 velocity=106 time=0.0025201614583333335
EXTRACT: note_on channel=9 note=42 velocity=100 time=0
EXTRACT: note_on channel=9 note=35 velocity=0 time=0.0025201614583333335
EXTRACT: note_on channel=9 note=42 velocity=0 time=0.007560484375000001
EXTRACT: note_on channel=13 note=36 velocity=0 time=0.012600807291666667
EXTRACT: note_on channel=1 note=24 velocity=0 time=0
EXTRACT: note_on channel=2 note=36 velocity=0 time=0
EXTRACT: note_on channel=9 note=79 velocity=72 time=0.03276209895833333
EXTRACT: note_on channel=9 note=79 velocity=0 time=0.010080645833333334
EXTRACT: note_on channel=9 note=42 velocity=57 time=0.05544355208333333
EXTRACT: note_on channel=9 note=42 velocity=0 time=0.010080645833333334
EXTRACT: note_on channel=9 note=79 velocity=85 time=0.04536290625
EXTRACT: note_on channel=9 note=79 velocity=0 time=0.010080645833333334
EXTRACT: note_on channel=9 note=42 velocity=47 time=0.05544355208333333
EXTRACT: note_on channel=9 note=82 velocity=49 time=0
EXTRACT: note_on channel=9 note=82 velocity=0 time=0.010080645833333334
EXTRACT: note_on channel=9 note=42 velocity=0 time=0
EXTRACT: note_on channel=3 note=72 velocity=0 time=0.0025201614583333335
EXTRACT: note_on channel=9 note=79 velocity=68 time=0.040322583333333335
EXTRACT: note_on channel=9 note=79 velocity=0 time=0.010080645833333334
EXTRACT: note_on channel=3 note=72 velocity=106 time=0.05796371354166667
EXTRACT: note_on channel=9 note=42 velocity=32 time=0
EXTRACT: note_on channel=9 note=35 velocity=58 time=0.0025201614583333335
EXTRACT: note_on channel=9 note=42 velocity=0 time=0.007560484375000001
EXTRACT: note_on channel=9 note=35 velocity=0 time=0.0025201614583333335
EXTRACT: note_on channel=3 note=72 velocity=0 time=0.052923390625000004
EXTRACT: note_on channel=9 note=78 velocity=75 time=0.015120968750000002
EXTRACT: note_on channel=9 note=78 velocity=0 time=0.010080645833333334
EXTRACT: note_on channel=9 note=40 velocity=88 time=0.027721776041666667
EXTRACT: note_on channel=9 note=42 velocity=98 time=0.0025201614583333335
EXTRACT: note_on channel=1 note=31 velocity=88 time=0.0025201614583333335
EXTRACT: note_on channel=2 note=43 velocity=102 time=0
EXTRACT: note_on channel=13 note=43 velocity=90 time=0
EXTRACT: note_on channel=9 note=40 velocity=0 time=0.005040322916666667
EXTRACT: note_on channel=1 note=28 velocity=0 time=0
EXTRACT: note_on channel=13 note=40 velocity=0 time=0
EXTRACT: note_on channel=2 note=40 velocity=0 time=0
EXTRACT: note_on channel=9 note=42 velocity=0 time=0.0025201614583333335
EXTRACT: note_on channel=9 note=79 velocity=85 time=0.05040322916666667
EXTRACT: note_on channel=9 note=79 velocity=0 time=0.010080645833333334
EXTRACT: note_on channel=9 note=42 velocity=56 time=0.05040322916666667
EXTRACT: note_on channel=9 note=42 velocity=0 time=0.010080645833333334
EXTRACT: note_on channel=3 note=72 velocity=101 time=0.11088710416666667
EXTRACT: note_on channel=9 note=42 velocity=48 time=0
EXTRACT: note_on channel=9 note=82 velocity=50 time=0
EXTRACT: note_on channel=9 note=82 velocity=0 time=0.010080645833333334
EXTRACT: note_on channel=9 note=42 velocity=0 time=0
EXTRACT: note_on channel=9 note=79 velocity=62 time=0.027721776041666667
EXTRACT: note_on channel=9 note=79 velocity=0 time=0.010080645833333334
EXTRACT: note_on channel=3 note=72 velocity=0 time=0.027721776041666667
EXTRACT: note_on channel=9 note=78 velocity=75 time=0.030241937500000003
EXTRACT: note_on channel=1 note=37 velocity=92 time=0.0025201614583333335
EXTRACT: note_on channel=2 note=49 velocity=106 time=0
EXTRACT: note_on channel=13 note=49 velocity=94 time=0
EXTRACT: note_on channel=9 note=78 velocity=0 time=0.007560484375000001
EXTRACT: note_on channel=2 note=43 velocity=0 time=0.005040322916666667
EXTRACT: note_on channel=13 note=43 velocity=0 time=0
EXTRACT: note_on channel=1 note=31 velocity=0 time=0
EXTRACT: note_on channel=9 note=42 velocity=35 time=0
EXTRACT: note_on channel=9 note=35 velocity=100 time=0.005040322916666667
EXTRACT: note_on channel=9 note=42 velocity=0 time=0.005040322916666667
EXTRACT: note_on channel=9 note=35 velocity=0 time=0.005040322916666667
EXTRACT: note_on channel=9 note=79 velocity=60 time=0.08820565104166667
EXTRACT: note_on channel=9 note=79 velocity=0 time=0.010080645833333334
EXTRACT: note_on channel=3 note=73 velocity=101 time=0.007560484375000001
EXTRACT: note_on channel=9 note=42 velocity=104 time=0
EXTRACT: note_on channel=9 note=42 velocity=0 time=0.010080645833333334
EXTRACT: note_on channel=9 note=78 velocity=75 time=0.10332661979166667
EXTRACT: note_on channel=9 note=42 velocity=63 time=0.007560484375000001
EXTRACT: note_on channel=9 note=78 velocity=0 time=0.0025201614583333335
EXTRACT: note_on channel=9 note=35 velocity=87 time=0.005040322916666667
EXTRACT: note_on channel=9 note=42 velocity=0 time=0.0025201614583333335
EXTRACT: note_on channel=9 note=35 velocity=0 time=0.007560484375000001
EXTRACT: note_on channel=9 note=79 velocity=89 time=0.060483875000000006
EXTRACT: note_on channel=9 note=79 velocity=0 time=0.010080645833333334
EXTRACT: note_on channel=2 note=49 velocity=0 time=0.03276209895833333
EXTRACT: note_on channel=13 note=49 velocity=0 time=0
EXTRACT: note_on channel=1 note=37 velocity=0 time=0
EXTRACT: note_on channel=9 note=42 velocity=46 time=0
EXTRACT: note_on channel=9 note=82 velocity=50 time=0
EXTRACT: note_on channel=1 note=36 velocity=99 time=0.0025201614583333335
EXTRACT: note_on channel=2 note=48 velocity=113 time=0
EXTRACT: note_on channel=9 note=35 velocity=96 time=0
EXTRACT: note_on channel=13 note=48 velocity=101 time=0
EXTRACT: note_on channel=9 note=82 velocity=0 time=0.007560484375000001
EXTRACT: note_on channel=9 note=42 velocity=0 time=0
EXTRACT: note_on channel=9 note=35 velocity=0 time=0.0025201614583333335
EXTRACT: note_on channel=3 note=73 velocity=0 time=0.04788306770833334
EXTRACT: note_on channel=3 note=72 velocity=93 time=0.060483875000000006
EXTRACT: note_on channel=9 note=42 velocity=35 time=0
EXTRACT: note_on channel=9 note=42 velocity=0 time=0.010080645833333334
EXTRACT: note_on channel=9 note=78 velocity=75 time=0.05544355208333333
EXTRACT: note_on channel=9 note=78 velocity=0 time=0.010080645833333334
EXTRACT: note_on channel=3 note=72 velocity=0 time=0.03528226041666667
EXTRACT: note_on channel=9 note=40 velocity=91 time=0.0025201614583333335
EXTRACT: note_on channel=9 note=42 velocity=104 time=0.007560484375000001
EXTRACT: note_on channel=9 note=40 velocity=0 time=0.0025201614583333335
EXTRACT: note_on channel=2 note=48 velocity=0 time=0
EXTRACT: note_on channel=1 note=36 velocity=0 time=0
EXTRACT: note_on channel=13 note=48 velocity=0 time=0
EXTRACT: note_on channel=1 note=31 velocity=93 time=0.0025201614583333335
EXTRACT: note_on channel=2 note=43 velocity=107 time=0
EXTRACT: note_on channel=13 note=43 velocity=95 time=0
EXTRACT: note_on channel=9 note=42 velocity=0 time=0.005040322916666667
EXTRACT: note_on channel=9 note=79 velocity=89 time=0.037802421875
EXTRACT: note_on channel=9 note=79 velocity=0 time=0.010080645833333334
EXTRACT: note_on channel=9 note=42 velocity=57 time=0.06300403645833334
EXTRACT: note_on channel=9 note=42 velocity=0 time=0.010080645833333334
EXTRACT: note_on channel=9 note=79 velocity=62 time=0.07056452083333334
EXTRACT: note_on channel=9 note=79 velocity=0 time=0.010080645833333334
EXTRACT: note_on channel=13 note=43 velocity=0 time=0.0025201614583333335
EXTRACT: note_on channel=2 note=43 velocity=0 time=0
EXTRACT: note_on channel=1 note=31 velocity=0 time=0
EXTRACT: note_on channel=1 note=28 velocity=88 time=0.022681453125
EXTRACT: note_on channel=2 note=40 velocity=102 time=0
EXTRACT: note_on channel=13 note=40 velocity=90 time=0
EXTRACT: note_on channel=3 note=72 velocity=101 time=0.005040322916666667
EXTRACT: note_on channel=9 note=35 velocity=96 time=0
EXTRACT: note_on channel=9 note=42 velocity=39 time=0
EXTRACT: note_on channel=9 note=82 velocity=50 time=0
EXTRACT: note_on channel=9 note=82 velocity=0 time=0.010080645833333334
EXTRACT: note_on channel=9 note=35 velocity=0 time=0
EXTRACT: note_on channel=9 note=42 velocity=0 time=0
EXTRACT: note_on channel=9 note=79 velocity=76 time=0.005040322916666667
EXTRACT: note_on channel=9 note=79 velocity=0 time=0.010080645833333334
EXTRACT: note_on channel=3 note=72 velocity=0 time=0.027721776041666667
EXTRACT: note_on channel=9 note=42 velocity=33 time=0.068044359375
EXTRACT: note_on channel=9 note=42 velocity=0 time=0.010080645833333334
EXTRACT: note_on channel=9 note=79 velocity=102 time=0.060483875000000006
EXTRACT: note_on channel=9 note=79 velocity=0 time=0.010080645833333334
EXTRACT: note_on channel=1 note=28 velocity=0 time=0.037802421875
EXTRACT: note_on channel=2 note=40 velocity=0 time=0
EXTRACT: note_on channel=13 note=40 velocity=0 time=0
EXTRACT: note_on channel=9 note=35 velocity=105 time=0
EXTRACT: note_on channel=1 note=29 velocity=99 time=0.0025201614583333335
EXTRACT: note_on channel=2 note=41 velocity=113 time=0
EXTRACT: note_on channel=3 note=77 velocity=100 time=0
EXTRACT: note_on channel=9 note=42 velocity=100 time=0
EXTRACT: note_on channel=13 note=41 velocity=101 time=0
EXTRACT: note_on channel=9 note=35 velocity=0 time=0.007560484375000001
EXTRACT: note_on channel=9 note=42 velocity=0 time=0.0025201614583333335
EXTRACT: note_on channel=9 note=79 velocity=68 time=0.07056452083333334
EXTRACT: note_on channel=9 note=79 velocity=0 time=0.010080645833333334
EXTRACT: note_on channel=9 note=42 velocity=57 time=0.030241937500000003
EXTRACT: note_on channel=9 note=42 velocity=0 time=0.010080645833333334
EXTRACT: note_on channel=9 note=79 velocity=89 time=0.04284274479166667
EXTRACT: note_on channel=9 note=79 velocity=0 time=0.010080645833333334
EXTRACT: note_on channel=9 note=42 velocity=47 time=0.05796371354166667
EXTRACT: note_on channel=9 note=82 velocity=49 time=0
EXTRACT: note_on channel=9 note=82 velocity=0 time=0.010080645833333334
EXTRACT: note_on channel=9 note=42 velocity=0 time=0
EXTRACT: note_on channel=3 note=77 velocity=0 time=0.025201614583333334
EXTRACT: note_on channel=9 note=79 velocity=85 time=0.04536290625
EXTRACT: note_on channel=9 note=79 velocity=0 time=0.010080645833333334
EXTRACT: note_on channel=3 note=65 velocity=97 time=0.030241937500000003
EXTRACT: note_on channel=9 note=42 velocity=32 time=0
EXTRACT: note_on channel=9 note=35 velocity=91 time=0.0025201614583333335
EXTRACT: note_on channel=9 note=42 velocity=0 time=0.007560484375000001
EXTRACT: note_on channel=9 note=35 velocity=0 time=0.0025201614583333335
EXTRACT: note_on channel=9 note=78 velocity=75 time=0.08064516666666667
EXTRACT: note_on channel=9 note=78 velocity=0 time=0.010080645833333334
EXTRACT: note_on channel=2 note=41 velocity=0 time=0.005040322916666667
EXTRACT: note_on channel=1 note=29 velocity=0 time=0
EXTRACT: note_on channel=13 note=41 velocity=0 time=0
EXTRACT: note_on channel=1 note=32 velocity=93 time=0.010080645833333334
EXTRACT: note_on channel=2 note=44 velocity=107 time=0
EXTRACT: note_on channel=13 note=44 velocity=95 time=0
EXTRACT: note_on channel=9 note=40 velocity=91 time=0.0025201614583333335
EXTRACT: note_on channel=9 note=42 velocity=98 time=0
EXTRACT: note_on channel=9 note=42 velocity=0 time=0.010080645833333334
EXTRACT: note_on channel=9 note=40 velocity=0 time=0
EXTRACT: note_on channel=3 note=65 velocity=0 time=0.0025201614583333335
EXTRACT: note_on channel=9 note=79 velocity=76 time=0.060483875000000006
EXTRACT: note_on channel=9 note=79 velocity=0 time=0.010080645833333334
EXTRACT: note_on channel=9 note=42 velocity=56 time=0.037802421875
EXTRACT: note_on channel=9 note=42 velocity=0 time=0.010080645833333334
EXTRACT: note_on channel=3 note=65 velocity=97 time=0.11088710416666667
EXTRACT: note_on channel=9 note=42 velocity=48 time=0
EXTRACT: note_on channel=9 note=82 velocity=50 time=0
EXTRACT: note_on channel=9 note=82 velocity=0 time=0.010080645833333334
EXTRACT: note_on channel=9 note=42 velocity=0 time=0
EXTRACT: note_on channel=9 note=79 velocity=56 time=0.04788306770833334
EXTRACT: note_on channel=9 note=79 velocity=0 time=0.010080645833333334
EXTRACT: note_on channel=3 note=65 velocity=0 time=0.025201614583333334
EXTRACT: note_on channel=9 note=78 velocity=75 time=0.017641130208333335
EXTRACT: note_on channel=9 note=78 velocity=0 time=0.010080645833333334
EXTRACT: note_on channel=1 note=37 velocity=99 time=0
EXTRACT: note_on channel=2 note=49 velocity=113 time=0
EXTRACT: note_on channel=9 note=42 velocity=35 time=0
EXTRACT: note_on channel=13 note=49 velocity=101 time=0
EXTRACT: note_on channel=1 note=32 velocity=0 time=0.005040322916666667
EXTRACT: note_on channel=13 note=44 velocity=0 time=0
EXTRACT: note_on channel=2 note=44 velocity=0 time=0
EXTRACT: note_on channel=9 note=35 velocity=91 time=0.0025201614583333335
EXTRACT: note_on channel=9 note=42 velocity=0 time=0.0025201614583333335
EXTRACT: note_on channel=9 note=35 velocity=0 time=0.007560484375000001
EXTRACT: note_on channel=9 note=79 velocity=76 time=0.098286296875
EXTRACT: note_on channel=3 note=72 velocity=101 time=0.005040322916666667
EXTRACT: note_on channel=9 note=42 velocity=104 time=0
EXTRACT: note_on channel=9 note=79 velocity=0 time=0.005040322916666667
EXTRACT: note_on channel=9 note=42 velocity=0 time=0.005040322916666667
EXTRACT: note_on channel=9 note=42 velocity=63 time=0.11088710416666667
EXTRACT: note_on channel=9 note=35 velocity=91 time=0.0025201614583333335
EXTRACT: note_on channel=9 note=78 velocity=75 time=0.0025201614583333335
EXTRACT: note_on channel=9 note=42 velocity=0 time=0.005040322916666667
EXTRACT: note_on channel=9 note=35 velocity=0 time=0.0025201614583333335
EXTRACT: note_on channel=9 note=78 velocity=0 time=0.0025201614583333335
EXTRACT: note_on channel=9 note=79 velocity=93 time=0.08820565104166667
EXTRACT: note_on channel=13 note=49 velocity=0 time=0.007560484375000001
EXTRACT: note_on channel=1 note=37 velocity=0 time=0
EXTRACT: note_on channel=2 note=49 velocity=0 time=0
EXTRACT: note_on channel=9 note=79 velocity=0 time=0.0025201614583333335
EXTRACT: note_on channel=1 note=36 velocity=88 time=0.005040322916666667
EXTRACT: note_on channel=2 note=48 velocity=102 time=0
EXTRACT: note_on channel=13 note=48 velocity=90 time=0
EXTRACT: note_on channel=9 note=42 velocity=46 time=0.0025201614583333335
EXTRACT: note_on channel=9 note=82 velocity=46 time=0
EXTRACT: note_on channel=9 note=35 velocity=70 time=0.0025201614583333335
EXTRACT: note_on channel=9 note=82 velocity=0 time=0.007560484375000001
EXTRACT: note_on channel=9 note=42 velocity=0 time=0
EXTRACT: note_on channel=9 note=35 velocity=0 time=0.0025201614583333335
EXTRACT: note_on channel=3 note=72 velocity=0 time=0.040322583333333335
EXTRACT: note_on channel=3 note=70 velocity=93 time=0.068044359375
EXTRACT: note_on channel=9 note=42 velocity=35 time=0
EXTRACT: note_on channel=9 note=42 velocity=0 time=0.010080645833333334
EXTRACT: note_on channel=9 note=78 velocity=75 time=0.098286296875
EXTRACT: note_on channel=9 note=40 velocity=91 time=0.007560484375000001
EXTRACT: note_on channel=9 note=78 velocity=0 time=0.0025201614583333335
EXTRACT: note_on channel=9 note=42 velocity=104 time=0.0025201614583333335
EXTRACT: note_on channel=9 note=40 velocity=0 time=0.005040322916666667
EXTRACT: note_on channel=9 note=42 velocity=0 time=0.005040322916666667
EXTRACT: note_on channel=1 note=36 velocity=0 time=0.0025201614583333335
EXTRACT: note_on channel=13 note=48 velocity=0 time=0
EXTRACT: note_on channel=2 note=48 velocity=0 time=0
EXTRACT: note_on channel=1 note=32 velocity=93 time=0.007560484375000001
EXTRACT: note_on channel=2 note=44 velocity=107 time=0
EXTRACT: note_on channel=13 note=44 velocity=95 time=0
EXTRACT: note_on channel=3 note=70 velocity=0 time=0.052923390625000004
EXTRACT: note_on channel=9 note=79 velocity=85 time=0
EXTRACT: note_on channel=9 note=79 velocity=0 time=0.010080645833333334
EXTRACT: note_on channel=9 note=42 velocity=57 time=0.037802421875
EXTRACT: note_on channel=9 note=42 velocity=0 time=0.010080645833333334
EXTRACT: note_on channel=9 note=78 velocity=75 time=0.098286296875
EXTRACT: note_on channel=9 note=35 velocity=100 time=0.007560484375000001
EXTRACT: note_on channel=9 note=78 velocity=0 time=0.0025201614583333335
EXTRACT: note_on channel=1 note=32 velocity=0 time=0
EXTRACT: note_on channel=13 note=44 velocity=0 time=0
EXTRACT: note_on channel=2 note=44 velocity=0 time=0
EXTRACT: note_on channel=3 note=72 velocity=93 time=0.0025201614583333335
EXTRACT: note_on channel=9 note=42 velocity=39 time=0
EXTRACT: note_on channel=9 note=82 velocity=42 time=0
EXTRACT: note_on channel=9 note=35 velocity=0 time=0.005040322916666667
EXTRACT: note_on channel=1 note=24 velocity=83 time=0
EXTRACT: note_on channel=2 note=36 velocity=97 time=0
EXTRACT: note_on channel=13 note=36 velocity=85 time=0
EXTRACT: note_on channel=9 note=82 velocity=0 time=0.005040322916666667
EXTRACT: note_on channel=9 note=42 velocity=0 time=0
EXTRACT: note_on channel=3 note=72 velocity=0 time=0.06300403645833334
EXTRACT: note_on channel=9 note=79 velocity=76 time=0.020161291666666668
EXTRACT: note_on channel=9 note=79 velocity=0 time=0.010080645833333334
EXTRACT: note_on channel=9 note=42 velocity=33 time=0.017641130208333335
EXTRACT: note_on channel=9 note=42 velocity=0 time=0.010080645833333334
EXTRACT: note_on channel=9 note=79 velocity=102 time=0.08820565104166667
EXTRACT: note_on channel=9 note=79 velocity=0 time=0.010080645833333334
EXTRACT: note_on channel=1 note=28 velocity=88 time=0.010080645833333334
EXTRACT: note_on channel=2 note=40 velocity=102 time=0
EXTRACT: note_on channel=9 note=35 velocity=100 time=0
EXTRACT: note_on channel=13 note=40 velocity=90 time=0
EXTRACT: note_on channel=3 note=73 velocity=106 time=0.0025201614583333335
EXTRACT: note_on channel=9 note=42 velocity=100 time=0
EXTRACT: note_on channel=9 note=35 velocity=0 time=0.007560484375000001
EXTRACT: note_on channel=9 note=42 velocity=0 time=0.0025201614583333335
EXTRACT: note_on channel=1 note=24 velocity=0 time=0.012600807291666667
EXTRACT: note_on channel=2 note=36 velocity=0 time=0
EXTRACT: note_on channel=13 note=36 velocity=0 time=0
EXTRACT: note_on channel=9 note=79 velocity=39 time=0.07560484375
EXTRACT: note_on channel=9 note=79 velocity=0 time=0.010080645833333334
EXTRACT: note_on channel=9 note=42 velocity=57 time=0.012600807291666667
EXTRACT: note_on channel=9 note=42 velocity=0 time=0.010080645833333334
EXTRACT: note_on channel=9 note=79 velocity=85 time=0.068044359375
EXTRACT: note_on channel=9 note=79 velocity=0 time=0.010080645833333334
EXTRACT: note_on channel=9 note=42 velocity=47 time=0.03276209895833333
EXTRACT: note_on channel=9 note=82 velocity=45 time=0
EXTRACT: note_on channel=9 note=82 velocity=0 time=0.010080645833333334
EXTRACT: note_on channel=9 note=42 velocity=0 time=0
EXTRACT: note_on channel=3 note=73 velocity=0 time=0.04536290625
EXTRACT: note_on channel=9 note=79 velocity=76 time=0.010080645833333334
EXTRACT: note_on channel=9 note=79 velocity=0 time=0.010080645833333334
EXTRACT: note_on channel=3 note=72 velocity=93 time=0.04536290625
EXTRACT: note_on channel=9 note=42 velocity=32 time=0
EXTRACT: note_on channel=9 note=35 velocity=91 time=0.0025201614583333335
EXTRACT: note_on channel=9 note=42 velocity=0 time=0.007560484375000001
EXTRACT: note_on channel=9 note=35 velocity=0 time=0.0025201614583333335
EXTRACT: note_on channel=3 note=72 velocity=0 time=0.060483875000000006
EXTRACT: note_on channel=9 note=78 velocity=75 time=0.027721776041666667
EXTRACT: note_on channel=9 note=78 velocity=0 time=0.010080645833333334
EXTRACT: note_on channel=9 note=40 velocity=91 time=0.005040322916666667
EXTRACT: note_on channel=9 note=42 velocity=98 time=0.005040322916666667
EXTRACT: note_on channel=1 note=31 velocity=88 time=0.0025201614583333335
EXTRACT: note_on channel=2 note=43 velocity=102 time=0
EXTRACT: note_on channel=13 note=43 velocity=90 time=0
EXTRACT: note_on channel=9 note=40 velocity=0 time=0.0025201614583333335
EXTRACT: note_on channel=2 note=40 velocity=0 time=0.0025201614583333335
EXTRACT: note_on channel=1 note=28 velocity=0 time=0
EXTRACT: note_on channel=13 note=40 velocity=0 time=0
EXTRACT: note_on channel=9 note=42 velocity=0 time=0.0025201614583333335
EXTRACT: note_on channel=9 note=79 velocity=80 time=0.06300403645833334
EXTRACT: note_on channel=9 note=79 velocity=0 time=0.010080645833333334
EXTRACT: note_on channel=9 note=42 velocity=56 time=0.037802421875
EXTRACT: note_on channel=9 note=42 velocity=0 time=0.010080645833333334
EXTRACT: note_on channel=3 note=72 velocity=88 time=0.11088710416666667
EXTRACT: note_on channel=9 note=42 velocity=48 time=0
EXTRACT: note_on channel=9 note=82 velocity=47 time=0
EXTRACT: note_on channel=9 note=82 velocity=0 time=0.010080645833333334
EXTRACT: note_on channel=9 note=42 velocity=0 time=0
EXTRACT: note_on channel=9 note=79 velocity=55 time=0.03528226041666667
EXTRACT: note_on channel=9 note=79 velocity=0 time=0.010080645833333334
EXTRACT: note_on channel=3 note=72 velocity=0 time=0.025201614583333334
EXTRACT: note_on channel=9 note=78 velocity=75 time=0.020161291666666668
EXTRACT: note_on channel=1 note=37 velocity=92 time=0.007560484375000001
EXTRACT: note_on channel=2 note=49 velocity=106 time=0
EXTRACT: note_on channel=13 note=49 velocity=94 time=0
EXTRACT: note_on channel=9 note=78 velocity=0 time=0.0025201614583333335
EXTRACT: note_on channel=2 note=43 velocity=0 time=0.010080645833333334
EXTRACT: note_on channel=13 note=43 velocity=0 time=0
EXTRACT: note_on channel=1 note=31 velocity=0 time=0
EXTRACT: note_on channel=9 note=42 velocity=35 time=0
EXTRACT: note_on channel=9 note=35 velocity=96 time=0.005040322916666667
EXTRACT: note_on channel=9 note=42 velocity=0 time=0.005040322916666667
EXTRACT: note_on channel=9 note=35 velocity=0 time=0.005040322916666667
EXTRACT: note_on channel=9 note=79 velocity=60 time=0.0907258125
EXTRACT: note_on channel=9 note=79 velocity=0 time=0.010080645833333334
EXTRACT: note_on channel=3 note=76 velocity=110 time=0.005040322916666667
EXTRACT: note_on channel=9 note=42 velocity=104 time=0
EXTRACT: note_on channel=9 note=42 velocity=0 time=0.010080645833333334
EXTRACT: note_on channel=9 note=78 velocity=75 time=0.08820565104166667
EXTRACT: note_on channel=9 note=78 velocity=0 time=0.010080645833333334
EXTRACT: note_on channel=9 note=42 velocity=63 time=0.012600807291666667
EXTRACT: note_on channel=9 note=35 velocity=91 time=0.0025201614583333335
EXTRACT: note_on channel=9 note=42 velocity=0 time=0.007560484375000001
EXTRACT: note_on channel=9 note=35 velocity=0 time=0.0025201614583333335
EXTRACT: note_on channel=9 note=79 velocity=93 time=0.04788306770833334
EXTRACT: note_on channel=9 note=79 velocity=0 time=0.010080645833333334
EXTRACT: note_on channel=13 note=49 velocity=0 time=0.05040322916666667
EXTRACT: note_on channel=2 note=49 velocity=0 time=0
EXTRACT: note_on channel=1 note=37 velocity=0 time=0
EXTRACT: note_on channel=9 note=42 velocity=46 time=0
EXTRACT: note_on channel=9 note=82 velocity=44 time=0
EXTRACT: note_on channel=1 note=36 velocity=99 time=0.0025201614583333335
EXTRACT: note_on channel=2 note=48 velocity=113 time=0
EXTRACT: note_on channel=9 note=35 velocity=87 time=0
EXTRACT: note_on channel=13 note=48 velocity=101 time=0
EXTRACT: note_on channel=9 note=82 velocity=0 time=0.007560484375000001
EXTRACT: note_on channel=9 note=42 velocity=0 time=0
EXTRACT: note_on channel=9 note=35 velocity=0 time=0.0025201614583333335
EXTRACT: note_on channel=3 note=76 velocity=0 time=0.04536290625
EXTRACT: note_on channel=3 note=72 velocity=88 time=0.06300403645833334
EXTRACT: note_on channel=9 note=42 velocity=35 time=0
EXTRACT: note_on channel=9 note=42 velocity=0 time=0.010080645833333334
EXTRACT: note_on channel=3 note=72 velocity=0 time=0.04536290625
EXTRACT: note_on channel=9 note=78 velocity=75 time=0.017641130208333335
EXTRACT: note_on channel=9 note=78 velocity=0 time=0.010080645833333334
EXTRACT: note_on channel=9 note=40 velocity=91 time=0.03276209895833333
EXTRACT: note_on channel=9 note=42 velocity=104 time=0.005040322916666667
EXTRACT: note_on channel=1 note=36 velocity=0 time=0.0025201614583333335
EXTRACT: note_on channel=2 note=48 velocity=0 time=0
EXTRACT: note_on channel=13 note=48 velocity=0 time=0
EXTRACT: note_on channel=9 note=40 velocity=0 time=0.0025201614583333335
EXTRACT: note_on channel=1 note=31 velocity=93 time=0
EXTRACT: note_on channel=2 note=43 velocity=107 time=0
EXTRACT: note_on channel=13 note=43 velocity=95 time=0
EXTRACT: note_on channel=9 note=42 velocity=0 time=0.005040322916666667
EXTRACT: note_on channel=9 note=79 velocity=85 time=0.040322583333333335
EXTRACT: note_on channel=9 note=79 velocity=0 time=0.010080645833333334
EXTRACT: note_on channel=9 note=42 velocity=57 time=0.060483875000000006
EXTRACT: note_on channel=9 note=42 velocity=0 time=0.010080645833333334
EXTRACT: note_on channel=9 note=78 velocity=75 time=0.06552419791666667
EXTRACT: note_on channel=9 note=78 velocity=0 time=0.010080645833333334
EXTRACT: note_on channel=13 note=43 velocity=0 time=0.007560484375000001
EXTRACT: note_on channel=2 note=43 velocity=0 time=0
EXTRACT: note_on channel=1 note=31 velocity=0 time=0
EXTRACT: note_on channel=1 note=28 velocity=88 time=0.022681453125
EXTRACT: note_on channel=2 note=40 velocity=102 time=0
EXTRACT: note_on channel=9 note=35 velocity=96 time=0
EXTRACT: note_on channel=13 note=40 velocity=90 time=0
EXTRACT: note_on channel=3 note=72 velocity=88 time=0.005040322916666667
EXTRACT: note_on channel=9 note=42 velocity=39 time=0
EXTRACT: note_on channel=9 note=82 velocity=45 time=0
EXTRACT: note_on channel=9 note=35 velocity=0 time=0.005040322916666667
EXTRACT: note_on channel=9 note=42 velocity=0 time=0.005040322916666667
EXTRACT: note_on channel=9 note=82 velocity=0 time=0
EXTRACT: note_on channel=3 note=72 velocity=0 time=0.037802421875
EXTRACT: note_on channel=9 note=79 velocity=85 time=0.005040322916666667
EXTRACT: note_on channel=9 note=79 velocity=0 time=0.010080645833333334
EXTRACT: note_on channel=9 note=42 velocity=33 time=0.05796371354166667
EXTRACT: note_on channel=9 note=42 velocity=0 time=0.010080645833333334
EXTRACT: note_on channel=9 note=79 velocity=98 time=0.07056452083333334
EXTRACT: note_on channel=9 note=79 velocity=0 time=0.010080645833333334
EXTRACT: note_on channel=13 note=40 velocity=0 time=0.027721776041666667
EXTRACT: note_on channel=2 note=40 velocity=0 time=0
EXTRACT: note_on channel=1 note=28 velocity=0 time=0
EXTRACT: note_on channel=1 note=29 velocity=99 time=0.0025201614583333335
EXTRACT: note_on channel=2 note=41 velocity=113 time=0
EXTRACT: note_on channel=3 note=72 velocity=106 time=0
EXTRACT: note_on channel=9 note=35 velocity=110 time=0
EXTRACT: note_on channel=9 note=57 velocity=66 time=0
EXTRACT: note_on channel=9 note=82 velocity=79 time=0
EXTRACT: note_on channel=9 note=87 velocity=72 time=0
EXTRACT: note_on channel=13 note=41 velocity=101 time=0
EXTRACT: note_on channel=9 note=87 velocity=0 time=0.010080645833333334
EXTRACT: note_on channel=9 note=35 velocity=0 time=0
EXTRACT: note_on channel=9 note=57 velocity=0 time=0
EXTRACT: note_on channel=9 note=82 velocity=0 time=0
EXTRACT: note_on channel=3 note=72 velocity=0 time=0.037802421875
EXTRACT: note_on channel=3 note=72 velocity=76 time=0.07308468229166667
EXTRACT: note_on channel=9 note=42 velocity=58 time=0
EXTRACT: note_on channel=9 note=61 velocity=62 time=0
EXTRACT: note_on channel=9 note=82 velocity=67 time=0
EXTRACT: note_on channel=9 note=82 velocity=0 time=0.010080645833333334
EXTRACT: note_on channel=9 note=42 velocity=0 time=0
EXTRACT: note_on channel=9 note=61 velocity=0 time=0
EXTRACT: note_on channel=3 note=72 velocity=0 time=0.04284274479166667
EXTRACT: note_on channel=9 note=79 velocity=80 time=0.012600807291666667
EXTRACT: note_on channel=9 note=79 velocity=0 time=0.010080645833333334
EXTRACT: note_on channel=3 note=72 velocity=97 time=0.04536290625
EXTRACT: note_on channel=9 note=42 velocity=48 time=0
EXTRACT: note_on channel=9 note=61 velocity=60 time=0
EXTRACT: note_on channel=9 note=76 velocity=85 time=0
EXTRACT: note_on channel=9 note=82 velocity=54 time=0
EXTRACT: note_on channel=9 note=82 velocity=0 time=0.010080645833333334
EXTRACT: note_on channel=9 note=76 velocity=0 time=0
EXTRACT: note_on channel=9 note=42 velocity=0 time=0
EXTRACT: note_on channel=9 note=61 velocity=0 time=0
EXTRACT: note_on channel=3 note=72 velocity=0 time=0.04284274479166667
EXTRACT: note_on channel=9 note=79 velocity=76 time=0.015120968750000002
EXTRACT: note_on channel=9 note=79 velocity=0 time=0.010080645833333334
EXTRACT: note_on channel=3 note=72 velocity=88 time=0.04284274479166667
EXTRACT: note_on channel=9 note=42 velocity=33 time=0
EXTRACT: note_on channel=9 note=82 velocity=42 time=0
EXTRACT: note_on channel=9 note=82 velocity=0 time=0.010080645833333334
EXTRACT: note_on channel=9 note=42 velocity=0 time=0
EXTRACT: note_on channel=9 note=35 velocity=75 time=0
EXTRACT: note_on channel=9 note=35 velocity=0 time=0.010080645833333334
EXTRACT: note_on channel=3 note=72 velocity=0 time=0.030241937500000003
EXTRACT: note_on channel=9 note=78 velocity=75 time=0.04284274479166667
EXTRACT: note_on channel=9 note=78 velocity=0 time=0.010080645833333334
EXTRACT: note_on channel=13 note=41 velocity=0 time=0.005040322916666667
EXTRACT: note_on channel=2 note=41 velocity=0 time=0
EXTRACT: note_on channel=1 note=29 velocity=0 time=0
EXTRACT: note_on channel=1 note=32 velocity=93 time=0.010080645833333334
EXTRACT: note_on channel=2 note=44 velocity=107 time=0
EXTRACT: note_on channel=13 note=44 velocity=95 time=0
EXTRACT: note_on channel=3 note=77 velocity=101 time=0.0025201614583333335
EXTRACT: note_on channel=9 note=28 velocity=62 time=0
EXTRACT: note_on channel=9 note=42 velocity=99 time=0
EXTRACT: note_on channel=9 note=61 velocity=85 time=0
EXTRACT: note_on channel=9 note=82 velocity=79 time=0
EXTRACT: note_on channel=9 note=40 velocity=107 time=0.007560484375000001
EXTRACT: note_on channel=9 note=82 velocity=0 time=0.0025201614583333335
EXTRACT: note_on channel=9 note=61 velocity=0 time=0
EXTRACT: note_on channel=9 note=42 velocity=0 time=0
EXTRACT: note_on channel=9 note=28 velocity=0 time=0
EXTRACT: note_on channel=9 note=40 velocity=0 time=0.007560484375000001
EXTRACT: note_on channel=3 note=77 velocity=0 time=0.037802421875
EXTRACT: note_on channel=9 note=79 velocity=80 time=0.027721776041666667
EXTRACT: note_on channel=9 note=79 velocity=0 time=0.010080645833333334
EXTRACT: note_on channel=3 note=65 velocity=70 time=0.027721776041666667
EXTRACT: note_on channel=9 note=42 velocity=57 time=0
EXTRACT: note_on channel=9 note=61 velocity=68 time=0
EXTRACT: note_on channel=9 note=76 velocity=76 time=0
EXTRACT: note_on channel=9 note=82 velocity=68 time=0
EXTRACT: note_on channel=9 note=82 velocity=0 time=0.010080645833333334
EXTRACT: note_on channel=9 note=76 velocity=0 time=0
EXTRACT: note_on channel=9 note=42 velocity=0 time=0
EXTRACT: note_on channel=9 note=61 velocity=0 time=0
EXTRACT: note_on channel=3 note=65 velocity=0 time=0.04284274479166667
EXTRACT: note_on channel=9 note=42 velocity=49 time=0.068044359375
EXTRACT: note_on channel=9 note=61 velocity=49 time=0
EXTRACT: note_on channel=9 note=82 velocity=54 time=0
EXTRACT: note_on channel=9 note=82 velocity=0 time=0.010080645833333334
EXTRACT: note_on channel=9 note=42 velocity=0 time=0
EXTRACT: note_on channel=9 note=61 velocity=0 time=0
EXTRACT: note_on channel=9 note=78 velocity=75 time=0.07812500520833333
EXTRACT: note_on channel=9 note=78 velocity=0 time=0.010080645833333334
EXTRACT: note_on channel=1 note=37 velocity=99 time=0.022681453125
EXTRACT: note_on channel=2 note=49 velocity=113 time=0
EXTRACT: note_on channel=9 note=28 velocity=64 time=0
EXTRACT: note_on channel=9 note=42 velocity=36 time=0
EXTRACT: note_on channel=9 note=61 velocity=72 time=0
EXTRACT: note_on channel=9 note=82 velocity=45 time=0
EXTRACT: note_on channel=13 note=49 velocity=101 time=0
EXTRACT: note_on channel=1 note=32 velocity=0 time=0.005040322916666667
EXTRACT: note_on channel=13 note=44 velocity=0 time=0
EXTRACT: note_on channel=2 note=44 velocity=0 time=0
EXTRACT: note_on channel=9 note=35 velocity=88 time=0
EXTRACT: note_on channel=9 note=82 velocity=0 time=0.005040322916666667
EXTRACT: note_on channel=9 note=61 velocity=0 time=0
EXTRACT: note_on channel=9 note=42 velocity=0 time=0
EXTRACT: note_on channel=9 note=28 velocity=0 time=0
EXTRACT: note_on channel=9 note=35 velocity=0 time=0.005040322916666667
EXTRACT: note_on channel=9 note=79 velocity=57 time=0.07056452083333334
EXTRACT: note_on channel=9 note=79 velocity=0 time=0.010080645833333334
EXTRACT: note_on channel=9 note=42 velocity=105 time=0.025201614583333334
EXTRACT: note_on channel=9 note=76 velocity=76 time=0
EXTRACT: note_on channel=9 note=82 velocity=78 time=0
EXTRACT: note_on channel=9 note=82 velocity=0 time=0.010080645833333334
EXTRACT: note_on channel=9 note=42 velocity=0 time=0
EXTRACT: note_on channel=9 note=76 velocity=0 time=0
EXTRACT: note_on channel=9 note=78 velocity=75 time=0.09324597395833334
EXTRACT: note_on channel=9 note=78 velocity=0 time=0.010080645833333334
EXTRACT: note_on channel=9 note=28 velocity=60 time=0.007560484375000001
EXTRACT: note_on channel=9 note=35 velocity=96 time=0
EXTRACT: note_on channel=9 note=42 velocity=64 time=0
EXTRACT: note_on channel=9 note=61 velocity=62 time=0
EXTRACT: note_on channel=9 note=82 velocity=68 time=0
EXTRACT: note_on channel=9 note=82 velocity=0 time=0.010080645833333334
EXTRACT: note_on channel=9 note=61 velocity=0 time=0
EXTRACT: note_on channel=9 note=35 velocity=0 time=0
EXTRACT: note_on channel=9 note=28 velocity=0 time=0
EXTRACT: note_on channel=9 note=42 velocity=0 time=0
EXTRACT: note_on channel=9 note=79 velocity=76 time=0.06300403645833334
EXTRACT: note_on channel=9 note=79 velocity=0 time=0.010080645833333334
EXTRACT: note_on channel=13 note=49 velocity=0 time=0.027721776041666667
EXTRACT: note_on channel=2 note=49 velocity=0 time=0
EXTRACT: note_on channel=1 note=37 velocity=0 time=0
EXTRACT: note_on channel=1 note=36 velocity=88 time=0.007560484375000001
EXTRACT: note_on channel=2 note=48 velocity=102 time=0
EXTRACT: note_on channel=13 note=48 velocity=90 time=0
EXTRACT: note_on channel=8 note=80 velocity=102 time=0.0025201614583333335
EXTRACT: note_on channel=9 note=35 velocity=96 time=0
EXTRACT: note_on channel=9 note=42 velocity=47 time=0
EXTRACT: note_on channel=9 note=61 velocity=85 time=0
EXTRACT: note_on channel=9 note=82 velocity=58 time=0
EXTRACT: note_on channel=9 note=82 velocity=0 time=0.010080645833333334
EXTRACT: note_on channel=9 note=61 velocity=0 time=0
EXTRACT: note_on channel=9 note=35 velocity=0 time=0
EXTRACT: note_on channel=9 note=42 velocity=0 time=0
EXTRACT: note_on channel=8 note=80 velocity=0 time=0.08064516666666667
EXTRACT: note_on channel=9 note=42 velocity=36 time=0.030241937500000003
EXTRACT: note_on channel=9 note=76 velocity=72 time=0
EXTRACT: note_on channel=9 note=82 velocity=42 time=0
EXTRACT: note_on channel=9 note=82 velocity=0 time=0.010080645833333334
EXTRACT: note_on channel=9 note=42 velocity=0 time=0
EXTRACT: note_on channel=9 note=76 velocity=0 time=0
EXTRACT: note_on channel=9 note=78 velocity=75 time=0.08064516666666667
EXTRACT: note_on channel=9 note=78 velocity=0 time=0.010080645833333334
EXTRACT: note_on channel=9 note=40 velocity=95 time=0.010080645833333334
EXTRACT: note_on channel=9 note=40 velocity=0 time=0.010080645833333334
EXTRACT: note_on channel=9 note=28 velocity=60 time=0
EXTRACT: note_on channel=9 note=42 velocity=105 time=0
EXTRACT: note_on channel=9 note=61 velocity=72 time=0
EXTRACT: note_on channel=9 note=82 velocity=78 time=0
EXTRACT: note_on channel=9 note=82 velocity=0 time=0.010080645833333334
EXTRACT: note_on channel=9 note=42 velocity=0 time=0
EXTRACT: note_on channel=9 note=28 velocity=0 time=0
EXTRACT: note_on channel=9 note=61 velocity=0 time=0
EXTRACT: note_on channel=2 note=48 velocity=0 time=0.0025201614583333335
EXTRACT: note_on channel=13 note=48 velocity=0 time=0
EXTRACT: note_on channel=1 note=36 velocity=0 time=0
EXTRACT: note_on channel=8 note=80 velocity=107 time=0
EXTRACT: note_on channel=1 note=32 velocity=93 time=0.007560484375000001
EXTRACT: note_on channel=2 note=44 velocity=107 time=0
EXTRACT: note_on channel=13 note=44 velocity=95 time=0
EXTRACT: note_on channel=9 note=79 velocity=89 time=0.040322583333333335
EXTRACT: note_on channel=9 note=79 velocity=0 time=0.010080645833333334
EXTRACT: note_on channel=9 note=42 velocity=58 time=0.05040322916666667
EXTRACT: note_on channel=9 note=61 velocity=60 time=0
EXTRACT: note_on channel=9 note=82 velocity=64 time=0
EXTRACT: note_on channel=9 note=82 velocity=0 time=0.010080645833333334
EXTRACT: note_on channel=9 note=42 velocity=0 time=0
EXTRACT: note_on channel=9 note=61 velocity=0 time=0
EXTRACT: note_on channel=9 note=78 velocity=75 time=0.07308468229166667
EXTRACT: note_on channel=9 note=78 velocity=0 time=0.010080645833333334
EXTRACT: note_on channel=2 note=44 velocity=0 time=0.025201614583333334
EXTRACT: note_on channel=13 note=44 velocity=0 time=0
EXTRACT: note_on channel=1 note=32 velocity=0 time=0
EXTRACT: note_on channel=9 note=35 velocity=92 time=0.0025201614583333335
EXTRACT: note_on channel=9 note=42 velocity=40 time=0
EXTRACT: note_on channel=9 note=76 velocity=80 time=0
EXTRACT: note_on channel=9 note=82 velocity=51 time=0
EXTRACT: note_on channel=9 note=87 velocity=59 time=0
EXTRACT: note_on channel=1 note=24 velocity=83 time=0.005040322916666667
EXTRACT: note_on channel=2 note=36 velocity=97 time=0
EXTRACT: note_on channel=13 note=36 velocity=85 time=0
EXTRACT: note_on channel=9 note=87 velocity=0 time=0.005040322916666667
EXTRACT: note_on channel=9 note=76 velocity=0 time=0
EXTRACT: note_on channel=8 note=80 velocity=0 time=0
EXTRACT: note_on channel=9 note=42 velocity=0 time=0
EXTRACT: note_on channel=9 note=35 velocity=0 time=0
EXTRACT: note_on channel=9 note=82 velocity=0 time=0
EXTRACT: note_on channel=9 note=79 velocity=89 time=0.060483875000000006
EXTRACT: note_on channel=9 note=79 velocity=0 time=0.010080645833333334
EXTRACT: note_on channel=9 note=28 velocity=52 time=0.040322583333333335
EXTRACT: note_on channel=9 note=42 velocity=34 time=0
EXTRACT: note_on channel=9 note=61 velocity=68 time=0
EXTRACT: note_on channel=9 note=82 velocity=43 time=0
EXTRACT: note_on channel=9 note=82 velocity=0 time=0.010080645833333334
EXTRACT: note_on channel=9 note=42 velocity=0 time=0
EXTRACT: note_on channel=9 note=28 velocity=0 time=0
EXTRACT: note_on channel=9 note=61 velocity=0 time=0
EXTRACT: note_on channel=9 note=79 velocity=89 time=0.07056452083333334
EXTRACT: note_on channel=9 note=79 velocity=0 time=0.010080645833333334
EXTRACT: note_on channel=9 note=35 velocity=116 time=0.022681453125
EXTRACT: note_on channel=1 note=28 velocity=88 time=0.005040322916666667
EXTRACT: note_on channel=2 note=40 velocity=102 time=0
EXTRACT: note_on channel=13 note=40 velocity=90 time=0
EXTRACT: note_on channel=3 note=70 velocity=106 time=0.0025201614583333335
EXTRACT: note_on channel=9 note=42 velocity=101 time=0
EXTRACT: note_on channel=9 note=82 velocity=79 time=0
EXTRACT: note_on channel=9 note=87 velocity=68 time=0
EXTRACT: note_on channel=9 note=35 velocity=0 time=0.0025201614583333335
EXTRACT: note_on channel=9 note=42 velocity=0 time=0.007560484375000001
EXTRACT: note_on channel=9 note=87 velocity=0 time=0
EXTRACT: note_on channel=9 note=82 velocity=0 time=0
EXTRACT: note_on channel=13 note=36 velocity=0 time=0.012600807291666667
EXTRACT: note_on channel=2 note=36 velocity=0 time=0
EXTRACT: note_on channel=1 note=24 velocity=0 time=0
EXTRACT: note_on channel=3 note=70 velocity=0 time=0.03276209895833333
EXTRACT: note_on channel=9 note=79 velocity=38 time=0.04788306770833334
EXTRACT: note_on channel=9 note=79 velocity=0 time=0.010080645833333334
EXTRACT: note_on channel=3 note=70 velocity=72 time=0.007560484375000001
EXTRACT: note_on channel=9 note=42 velocity=58 time=0
EXTRACT: note_on channel=9 note=61 velocity=60 time=0
EXTRACT: note_on channel=9 note=82 velocity=67 time=0
EXTRACT: note_on channel=9 note=82 velocity=0 time=0.010080645833333334
EXTRACT: note_on channel=9 note=42 velocity=0 time=0
EXTRACT: note_on channel=9 note=61 velocity=0 time=0
EXTRACT: note_on channel=3 note=70 velocity=0 time=0.04536290625
EXTRACT: note_on channel=9 note=79 velocity=85 time=0.0025201614583333335
EXTRACT: note_on channel=9 note=79 velocity=0 time=0.010080645833333334
EXTRACT: note_on channel=3 note=70 velocity=80 time=0.052923390625000004
EXTRACT: note_on channel=9 note=28 velocity=55 time=0
EXTRACT: note_on channel=9 note=42 velocity=48 time=0
EXTRACT: note_on channel=9 note=61 velocity=72 time=0
EXTRACT: note_on channel=9 note=76 velocity=80 time=0
EXTRACT: note_on channel=9 note=82 velocity=54 time=0
EXTRACT: note_on channel=9 note=82 velocity=0 time=0.010080645833333334
EXTRACT: note_on channel=9 note=76 velocity=0 time=0
EXTRACT: note_on channel=9 note=61 velocity=0 time=0
EXTRACT: note_on channel=9 note=28 velocity=0 time=0
EXTRACT: note_on channel=9 note=42 velocity=0 time=0
EXTRACT: note_on channel=3 note=70 velocity=0 time=0.03276209895833333
EXTRACT: note_on channel=9 note=79 velocity=89 time=0.015120968750000002
EXTRACT: note_on channel=9 note=79 velocity=0 time=0.010080645833333334
EXTRACT: note_on channel=3 note=70 velocity=84 time=0.052923390625000004
EXTRACT: note_on channel=9 note=42 velocity=33 time=0
EXTRACT: note_on channel=9 note=82 velocity=42 time=0
EXTRACT: note_on channel=9 note=35 velocity=63 time=0.0025201614583333335
EXTRACT: note_on channel=9 note=82 velocity=0 time=0.007560484375000001
EXTRACT: note_on channel=9 note=42 velocity=0 time=0
EXTRACT: note_on channel=9 note=35 velocity=0 time=0.0025201614583333335
EXTRACT: note_on channel=3 note=70 velocity=0 time=0.04536290625
EXTRACT: note_on channel=9 note=78 velocity=75 time=0.020161291666666668
EXTRACT: note_on channel=9 note=78 velocity=0 time=0.010080645833333334
EXTRACT: note_on channel=9 note=40 velocity=98 time=0.030241937500000003
EXTRACT: note_on channel=3 note=72 velocity=106 time=0.0025201614583333335
EXTRACT: note_on channel=9 note=28 velocity=56 time=0
EXTRACT: note_on channel=9 note=42 velocity=99 time=0
EXTRACT: note_on channel=9 note=61 velocity=80 time=0
EXTRACT: note_on channel=9 note=82 velocity=79 time=0
EXTRACT: note_on channel=1 note=31 velocity=88 time=0.0025201614583333335
EXTRACT: note_on channel=2 note=43 velocity=102 time=0
EXTRACT: note_on channel=13 note=43 velocity=90 time=0
EXTRACT: note_on channel=9 note=40 velocity=0 time=0.005040322916666667
EXTRACT: note_on channel=1 note=28 velocity=0 time=0
EXTRACT: note_on channel=13 note=40 velocity=0 time=0
EXTRACT: note_on channel=2 note=40 velocity=0 time=0
EXTRACT: note_on channel=9 note=61 velocity=0 time=0.0025201614583333335
EXTRACT: note_on channel=9 note=82 velocity=0 time=0
EXTRACT: note_on channel=9 note=42 velocity=0 time=0
EXTRACT: note_on channel=9 note=28 velocity=0 time=0
EXTRACT: note_on channel=9 note=79 velocity=80 time=0.04536290625
EXTRACT: note_on channel=9 note=79 velocity=0 time=0.010080645833333334
EXTRACT: note_on channel=3 note=72 velocity=0 time=0.007560484375000001
EXTRACT: note_on channel=3 note=70 velocity=97 time=0.04788306770833334
EXTRACT: note_on channel=9 note=42 velocity=57 time=0
EXTRACT: note_on channel=9 note=61 velocity=60 time=0
EXTRACT: note_on channel=9 note=76 velocity=72 time=0
EXTRACT: note_on channel=9 note=82 velocity=68 time=0
EXTRACT: note_on channel=9 note=82 velocity=0 time=0.010080645833333334
EXTRACT: note_on channel=9 note=76 velocity=0 time=0
EXTRACT: note_on channel=9 note=42 velocity=0 time=0
EXTRACT: note_on channel=9 note=61 velocity=0 time=0
EXTRACT: note_on channel=3 note=70 velocity=0 time=0.04788306770833334
EXTRACT: note_on channel=9 note=42 velocity=49 time=0.06300403645833334
EXTRACT: note_on channel=9 note=61 velocity=55 time=0
EXTRACT: note_on channel=9 note=82 velocity=54 time=0
EXTRACT: note_on channel=9 note=82 velocity=0 time=0.010080645833333334
EXTRACT: note_on channel=9 note=42 velocity=0 time=0
EXTRACT: note_on channel=9 note=61 velocity=0 time=0
EXTRACT: note_on channel=9 note=79 velocity=62 time=0.012600807291666667
EXTRACT: note_on channel=9 note=79 velocity=0 time=0.010080645833333334
EXTRACT: note_on channel=9 note=78 velocity=75 time=0.05796371354166667
EXTRACT: note_on channel=9 note=78 velocity=0 time=0.010080645833333334
EXTRACT: note_on channel=1 note=37 velocity=92 time=0.007560484375000001
EXTRACT: note_on channel=2 note=49 velocity=106 time=0
EXTRACT: note_on channel=13 note=49 velocity=94 time=0
EXTRACT: note_on channel=2 note=43 velocity=0 time=0.012600807291666667
EXTRACT: note_on channel=1 note=31 velocity=0 time=0
EXTRACT: note_on channel=13 note=43 velocity=0 time=0
EXTRACT: note_on channel=9 note=28 velocity=52 time=0
EXTRACT: note_on channel=9 note=42 velocity=36 time=0
EXTRACT: note_on channel=9 note=61 velocity=68 time=0
EXTRACT: note_on channel=9 note=82 velocity=45 time=0
EXTRACT: note_on channel=9 note=35 velocity=105 time=0.005040322916666667
EXTRACT: note_on channel=9 note=82 velocity=0 time=0.005040322916666667
EXTRACT: note_on channel=9 note=28 velocity=0 time=0
EXTRACT: note_on channel=9 note=42 velocity=0 time=0
EXTRACT: note_on channel=9 note=61 velocity=0 time=0
EXTRACT: note_on channel=9 note=35 velocity=0 time=0.005040322916666667
EXTRACT: note_on channel=9 note=42 velocity=105 time=0.10584678125000001
EXTRACT: note_on channel=9 note=76 velocity=80 time=0
EXTRACT: note_on channel=9 note=82 velocity=78 time=0
EXTRACT: note_on channel=9 note=82 velocity=0 time=0.010080645833333334
EXTRACT: note_on channel=9 note=42 velocity=0 time=0
EXTRACT: note_on channel=9 note=76 velocity=0 time=0
EXTRACT: note_on channel=9 note=79 velocity=39 time=0.007560484375000001
EXTRACT: note_on channel=9 note=79 velocity=0 time=0.010080645833333334
EXTRACT: note_on channel=9 note=78 velocity=75 time=0.05796371354166667
EXTRACT: note_on channel=9 note=78 velocity=0 time=0.010080645833333334
EXTRACT: note_on channel=9 note=28 velocity=50 time=0.025201614583333334
EXTRACT: note_on channel=9 note=42 velocity=64 time=0
EXTRACT: note_on channel=9 note=61 velocity=60 time=0
EXTRACT: note_on channel=9 note=82 velocity=68 time=0
EXTRACT: note_on channel=9 note=35 velocity=92 time=0.007560484375000001
EXTRACT: note_on channel=9 note=82 velocity=0 time=0.0025201614583333335
EXTRACT: note_on channel=9 note=28 velocity=0 time=0
EXTRACT: note_on channel=9 note=42 velocity=0 time=0
EXTRACT: note_on channel=9 note=61 velocity=0 time=0
EXTRACT: note_on channel=9 note=35 velocity=0 time=0.007560484375000001
EXTRACT: note_on channel=9 note=79 velocity=93 time=0.05040322916666667
EXTRACT: note_on channel=9 note=79 velocity=0 time=0.010080645833333334
EXTRACT: note_on channel=8 note=80 velocity=98 time=0.017641130208333335
EXTRACT: note_on channel=1 note=37 velocity=0 time=0.025201614583333334
EXTRACT: note_on channel=2 note=49 velocity=0 time=0
EXTRACT: note_on channel=13 note=49 velocity=0 time=0
EXTRACT: note_on channel=9 note=42 velocity=47 time=0
EXTRACT: note_on channel=9 note=61 velocity=80 time=0
EXTRACT: note_on channel=9 note=82 velocity=58 time=0
EXTRACT: note_on channel=1 note=36 velocity=99 time=0.0025201614583333335
EXTRACT: note_on channel=2 note=48 velocity=113 time=0
EXTRACT: note_on channel=9 note=35 velocity=101 time=0
EXTRACT: note_on channel=13 note=48 velocity=101 time=0
EXTRACT: note_on channel=9 note=82 velocity=0 time=0.007560484375000001
EXTRACT: note_on channel=9 note=61 velocity=0 time=0
EXTRACT: note_on channel=9 note=42 velocity=0 time=0
EXTRACT: note_on channel=9 note=35 velocity=0 time=0.0025201614583333335
EXTRACT: note_on channel=8 note=80 velocity=0 time=0.03528226041666667
EXTRACT: note_on channel=9 note=42 velocity=36 time=0.07308468229166667
EXTRACT: note_on channel=9 note=61 velocity=56 time=0
EXTRACT: note_on channel=9 note=76 velocity=76 time=0
EXTRACT: note_on channel=9 note=82 velocity=42 time=0
EXTRACT: note_on channel=9 note=82 velocity=0 time=0.010080645833333334
EXTRACT: note_on channel=9 note=61 velocity=0 time=0
EXTRACT: note_on channel=9 note=42 velocity=0 time=0
EXTRACT: note_on channel=9 note=76 velocity=0 time=0
EXTRACT: note_on channel=9 note=78 velocity=75 time=0.05796371354166667
EXTRACT: note_on channel=9 note=78 velocity=0 time=0.010080645833333334
EXTRACT: note_on channel=9 note=40 velocity=101 time=0.03528226041666667
EXTRACT: note_on channel=9 note=28 velocity=56 time=0.007560484375000001
EXTRACT: note_on channel=9 note=42 velocity=105 time=0
EXTRACT: note_on channel=9 note=61 velocity=72 time=0
EXTRACT: note_on channel=9 note=82 velocity=78 time=0
EXTRACT: note_on channel=9 note=40 velocity=0 time=0.0025201614583333335
EXTRACT: note_on channel=2 note=48 velocity=0 time=0
EXTRACT: note_on channel=1 note=36 velocity=0 time=0
EXTRACT: note_on channel=13 note=48 velocity=0 time=0
EXTRACT: note_on channel=1 note=31 velocity=93 time=0.0025201614583333335
EXTRACT: note_on channel=2 note=43 velocity=107 time=0
EXTRACT: note_on channel=13 note=43 velocity=95 time=0
EXTRACT: note_on channel=8 note=80 velocity=98 time=0.0025201614583333335
EXTRACT: note_on channel=9 note=28 velocity=0 time=0.0025201614583333335
EXTRACT: note_on channel=9 note=61 velocity=0 time=0
EXTRACT: note_on channel=9 note=82 velocity=0 time=0
EXTRACT: note_on channel=9 note=42 velocity=0 time=0
EXTRACT: note_on channel=9 note=79 velocity=89 time=0.040322583333333335
EXTRACT: note_on channel=9 note=79 velocity=0 time=0.010080645833333334
EXTRACT: note_on channel=9 note=42 velocity=58 time=0.060483875000000006
EXTRACT: note_on channel=9 note=61 velocity=60 time=0
EXTRACT: note_on channel=9 note=82 velocity=64 time=0
EXTRACT: note_on channel=9 note=82 velocity=0 time=0.010080645833333334
EXTRACT: note_on channel=9 note=42 velocity=0 time=0
EXTRACT: note_on channel=9 note=61 velocity=0 time=0
EXTRACT: note_on channel=9 note=78 velocity=75 time=0.068044359375
EXTRACT: note_on channel=9 note=78 velocity=0 time=0.010080645833333334
EXTRACT: note_on channel=13 note=43 velocity=0 time=0.005040322916666667
EXTRACT: note_on channel=1 note=31 velocity=0 time=0
EXTRACT: note_on channel=2 note=43 velocity=0 time=0
EXTRACT: note_on channel=1 note=28 velocity=88 time=0.022681453125
EXTRACT: note_on channel=2 note=40 velocity=102 time=0
EXTRACT: note_on channel=13 note=40 velocity=90 time=0
EXTRACT: note_on channel=9 note=35 velocity=101 time=0.005040322916666667
EXTRACT: note_on channel=9 note=42 velocity=40 time=0
EXTRACT: note_on channel=9 note=61 velocity=60 time=0
EXTRACT: note_on channel=9 note=76 velocity=80 time=0
EXTRACT: note_on channel=9 note=82 velocity=51 time=0
EXTRACT: note_on channel=9 note=87 velocity=80 time=0
EXTRACT: note_on channel=9 note=87 velocity=0 time=0.010080645833333334
EXTRACT: note_on channel=9 note=82 velocity=0 time=0
EXTRACT: note_on channel=9 note=61 velocity=0 time=0
EXTRACT: note_on channel=9 note=76 velocity=0 time=0
EXTRACT: note_on channel=9 note=35 velocity=0 time=0
EXTRACT: note_on channel=9 note=42 velocity=0 time=0
EXTRACT: note_on channel=9 note=79 velocity=93 time=0.05544355208333333
EXTRACT: note_on channel=9 note=79 velocity=0 time=0.010080645833333334
EXTRACT: note_on channel=8 note=80 velocity=0 time=0.020161291666666668
EXTRACT: note_on channel=9 note=28 velocity=52 time=0.025201614583333334
EXTRACT: note_on channel=9 note=42 velocity=34 time=0
EXTRACT: note_on channel=9 note=61 velocity=80 time=0
EXTRACT: note_on channel=9 note=82 velocity=43 time=0
EXTRACT: note_on channel=9 note=82 velocity=0 time=0.010080645833333334
EXTRACT: note_on channel=9 note=42 velocity=0 time=0
EXTRACT: note_on channel=9 note=28 velocity=0 time=0
EXTRACT: note_on channel=9 note=61 velocity=0 time=0
EXTRACT: note_on channel=9 note=79 velocity=93 time=0.05796371354166667
EXTRACT: note_on channel=9 note=79 velocity=0 time=0.010080645833333334
EXTRACT: note_on channel=2 note=40 velocity=0 time=0.040322583333333335
EXTRACT: note_on channel=1 note=28 velocity=0 time=0
EXTRACT: note_on channel=13 note=40 velocity=0 time=0
EXTRACT: note_on channel=9 note=35 velocity=110 time=0
EXTRACT: note_on channel=1 note=29 velocity=99 time=0.0025201614583333335
EXTRACT: note_on channel=2 note=41 velocity=113 time=0
EXTRACT: note_on channel=3 note=72 velocity=106 time=0
EXTRACT: note_on channel=9 note=42 velocity=101 time=0
EXTRACT: note_on channel=9 note=82 velocity=79 time=0
EXTRACT: note_on channel=9 note=87 velocity=89 time=0
EXTRACT: note_on channel=13 note=41 velocity=101 time=0
EXTRACT: note_on channel=9 note=35 velocity=0 time=0.007560484375000001
EXTRACT: note_on channel=9 note=42 velocity=0 time=0.0025201614583333335
EXTRACT: note_on channel=9 note=82 velocity=0 time=0
EXTRACT: note_on channel=9 note=87 velocity=0 time=0
EXTRACT: note_on channel=3 note=72 velocity=0 time=0.040322583333333335
EXTRACT: note_on channel=9 note=79 velocity=62 time=0.03276209895833333
EXTRACT: note_on channel=9 note=79 velocity=0 time=0.010080645833333334
EXTRACT: note_on channel=3 note=72 velocity=88 time=0.027721776041666667
EXTRACT: note_on channel=9 note=42 velocity=58 time=0
EXTRACT: note_on channel=9 note=61 velocity=59 time=0
EXTRACT: note_on channel=9 note=82 velocity=67 time=0
EXTRACT: note_on channel=9 note=82 velocity=0 time=0.010080645833333334
EXTRACT: note_on channel=9 note=42 velocity=0 time=0
EXTRACT: note_on channel=9 note=61 velocity=0 time=0
EXTRACT: note_on channel=9 note=79 velocity=89 time=0.04788306770833334
EXTRACT: note_on channel=3 note=72 velocity=0 time=0.0025201614583333335
EXTRACT: note_on channel=9 note=79 velocity=0 time=0.007560484375000001
EXTRACT: note_on channel=3 note=72 velocity=97 time=0.052923390625000004
EXTRACT: note_on channel=9 note=28 velocity=43 time=0
EXTRACT: note_on channel=9 note=42 velocity=48 time=0
EXTRACT: note_on channel=9 note=61 velocity=72 time=0
EXTRACT: note_on channel=9 note=76 velocity=76 time=0
EXTRACT: note_on channel=9 note=82 velocity=54 time=0
EXTRACT: note_on channel=9 note=82 velocity=0 time=0.010080645833333334
EXTRACT: note_on channel=9 note=76 velocity=0 time=0
EXTRACT: note_on channel=9 note=61 velocity=0 time=0
EXTRACT: note_on channel=9 note=28 velocity=0 time=0
EXTRACT: note_on channel=9 note=42 velocity=0 time=0
EXTRACT: note_on channel=3 note=72 velocity=0 time=0.04284274479166667
EXTRACT: note_on channel=9 note=79 velocity=89 time=0.010080645833333334
EXTRACT: note_on channel=9 note=79 velocity=0 time=0.010080645833333334
EXTRACT: note_on channel=3 note=72 velocity=110 time=0.04788306770833334
EXTRACT: note_on channel=9 note=42 velocity=33 time=0
EXTRACT: note_on channel=9 note=82 velocity=42 time=0
EXTRACT: note_on channel=9 note=35 velocity=96 time=0.0025201614583333335
EXTRACT: note_on channel=9 note=82 velocity=0 time=0.007560484375000001
EXTRACT: note_on channel=9 note=42 velocity=0 time=0
EXTRACT: note_on channel=9 note=35 velocity=0 time=0.0025201614583333335
EXTRACT: note_on channel=3 note=72 velocity=0 time=0.05544355208333333
EXTRACT: note_on channel=9 note=78 velocity=75 time=0.010080645833333334
EXTRACT: note_on channel=9 note=78 velocity=0 time=0.010080645833333334
EXTRACT: note_on channel=13 note=41 velocity=0 time=0.020161291666666668
EXTRACT: note_on channel=2 note=41 velocity=0 time=0
EXTRACT: note_on channel=1 note=29 velocity=0 time=0
EXTRACT: note_on channel=1 note=32 velocity=93 time=0.010080645833333334
EXTRACT: note_on channel=2 note=44 velocity=107 time=0
EXTRACT: note_on channel=13 note=44 velocity=95 time=0
EXTRACT: note_on channel=3 note=77 velocity=110 time=0.0025201614583333335
EXTRACT: note_on channel=9 note=28 velocity=57 time=0
EXTRACT: note_on channel=9 note=40 velocity=101 time=0
EXTRACT: note_on channel=9 note=42 velocity=99 time=0
EXTRACT: note_on channel=9 note=61 velocity=62 time=0
EXTRACT: note_on channel=9 note=82 velocity=79 time=0
EXTRACT: note_on channel=9 note=82 velocity=0 time=0.010080645833333334
EXTRACT: note_on channel=9 note=61 velocity=0 time=0
EXTRACT: note_on channel=9 note=42 velocity=0 time=0
EXTRACT: note_on channel=9 note=28 velocity=0 time=0
EXTRACT: note_on channel=9 note=40 velocity=0 time=0
EXTRACT: note_on channel=3 note=77 velocity=0 time=0.037802421875
EXTRACT: note_on channel=9 note=79 velocity=85 time=0.022681453125
EXTRACT: note_on channel=9 note=79 velocity=0 time=0.010080645833333334
EXTRACT: note_on channel=3 note=65 velocity=93 time=0.040322583333333335
EXTRACT: note_on channel=9 note=42 velocity=57 time=0
EXTRACT: note_on channel=9 note=61 velocity=62 time=0
EXTRACT: note_on channel=9 note=76 velocity=76 time=0
EXTRACT: note_on channel=9 note=82 velocity=68 time=0
EXTRACT: note_on channel=9 note=82 velocity=0 time=0.010080645833333334
EXTRACT: note_on channel=9 note=76 velocity=0 time=0
EXTRACT: note_on channel=9 note=42 velocity=0 time=0
EXTRACT: note_on channel=9 note=61 velocity=0 time=0
EXTRACT: note_on channel=3 note=65 velocity=0 time=0.07308468229166667
EXTRACT: note_on channel=9 note=42 velocity=49 time=0.037802421875
EXTRACT: note_on channel=9 note=61 velocity=56 time=0
EXTRACT: note_on channel=9 note=82 velocity=54 time=0
EXTRACT: note_on channel=9 note=82 velocity=0 time=0.010080645833333334
EXTRACT: note_on channel=9 note=42 velocity=0 time=0
EXTRACT: note_on channel=9 note=61 velocity=0 time=0
EXTRACT: note_on channel=9 note=79 velocity=55 time=0.03528226041666667
EXTRACT: note_on channel=9 note=79 velocity=0 time=0.010080645833333334
EXTRACT: note_on channel=9 note=78 velocity=75 time=0.015120968750000002
EXTRACT: note_on channel=9 note=78 velocity=0 time=0.010080645833333334
EXTRACT: note_on channel=1 note=37 velocity=99 time=0.040322583333333335
EXTRACT: note_on channel=2 note=49 velocity=113 time=0
EXTRACT: note_on channel=9 note=28 velocity=55 time=0
EXTRACT: note_on channel=9 note=42 velocity=36 time=0
EXTRACT: note_on channel=9 note=61 velocity=76 time=0
EXTRACT: note_on channel=9 note=82 velocity=45 time=0
EXTRACT: note_on channel=13 note=49 velocity=101 time=0
EXTRACT: note_on channel=13 note=44 velocity=0 time=0.005040322916666667
EXTRACT: note_on channel=2 note=44 velocity=0 time=0
EXTRACT: note_on channel=1 note=32 velocity=0 time=0
EXTRACT: note_on channel=9 note=35 velocity=96 time=0.0025201614583333335
EXTRACT: note_on channel=9 note=82 velocity=0 time=0.0025201614583333335
EXTRACT: note_on channel=9 note=61 velocity=0 time=0
EXTRACT: note_on channel=9 note=42 velocity=0 time=0
EXTRACT: note_on channel=9 note=28 velocity=0 time=0
EXTRACT: note_on channel=9 note=35 velocity=0 time=0.007560484375000001
EXTRACT: note_on channel=9 note=79 velocity=62 time=0.07560484375
EXTRACT: note_on channel=9 note=79 velocity=0 time=0.010080645833333334
EXTRACT: note_on channel=9 note=42 velocity=105 time=0.017641130208333335
EXTRACT: note_on channel=9 note=76 velocity=80 time=0
EXTRACT: note_on channel=9 note=82 velocity=78 time=0
EXTRACT: note_on channel=9 note=82 velocity=0 time=0.010080645833333334
EXTRACT: note_on channel=9 note=42 velocity=0 time=0
EXTRACT: note_on channel=9 note=76 velocity=0 time=0
EXTRACT: note_on channel=9 note=78 velocity=75 time=0.09324597395833334
EXTRACT: note_on channel=9 note=78 velocity=0 time=0.010080645833333334
EXTRACT: note_on channel=9 note=28 velocity=59 time=0.007560484375000001
EXTRACT: note_on channel=9 note=42 velocity=64 time=0
EXTRACT: note_on channel=9 note=61 velocity=60 time=0
EXTRACT: note_on channel=9 note=82 velocity=68 time=0
EXTRACT: note_on channel=9 note=35 velocity=96 time=0.0025201614583333335
EXTRACT: note_on channel=9 note=82 velocity=0 time=0.007560484375000001
EXTRACT: note_on channel=9 note=28 velocity=0 time=0
EXTRACT: note_on channel=9 note=42 velocity=0 time=0
EXTRACT: note_on channel=9 note=61 velocity=0 time=0
EXTRACT: note_on channel=9 note=35 velocity=0 time=0.0025201614583333335
EXTRACT: note_on channel=8 note=80 velocity=98 time=0.05544355208333333
EXTRACT: note_on channel=9 note=79 velocity=80 time=0.010080645833333334
EXTRACT: note_on channel=9 note=79 velocity=0 time=0.010080645833333334
EXTRACT: note_on channel=2 note=49 velocity=0 time=0.022681453125
EXTRACT: note_on channel=1 note=37 velocity=0 time=0
EXTRACT: note_on channel=13 note=49 velocity=0 time=0
EXTRACT: note_on channel=1 note=36 velocity=88 time=0.007560484375000001
EXTRACT: note_on channel=2 note=48 velocity=102 time=0
EXTRACT: note_on channel=13 note=48 velocity=90 time=0
EXTRACT: note_on channel=9 note=42 velocity=47 time=0.0025201614583333335
EXTRACT: note_on channel=9 note=61 velocity=56 time=0
EXTRACT: note_on channel=9 note=82 velocity=58 time=0
EXTRACT: note_on channel=9 note=35 velocity=75 time=0.0025201614583333335
EXTRACT: note_on channel=9 note=82 velocity=0 time=0.007560484375000001
EXTRACT: note_on channel=9 note=61 velocity=0 time=0
EXTRACT: note_on channel=9 note=42 velocity=0 time=0
EXTRACT: note_on channel=9 note=35 velocity=0 time=0.0025201614583333335
EXTRACT: note_on channel=8 note=80 velocity=0 time=0.007560484375000001
EXTRACT: note_on channel=9 note=42 velocity=36 time=0.10080645833333333
EXTRACT: note_on channel=9 note=76 velocity=76 time=0
EXTRACT: note_on channel=9 note=82 velocity=42 time=0
EXTRACT: note_on channel=9 note=82 velocity=0 time=0.010080645833333334
EXTRACT: note_on channel=9 note=42 velocity=0 time=0
EXTRACT: note_on channel=9 note=76 velocity=0 time=0
EXTRACT: note_on channel=9 note=78 velocity=75 time=0.07560484375
EXTRACT: note_on channel=9 note=78 velocity=0 time=0.010080645833333334
EXTRACT: note_on channel=9 note=40 velocity=101 time=0.020161291666666668
EXTRACT: note_on channel=9 note=28 velocity=59 time=0.005040322916666667
EXTRACT: note_on channel=9 note=42 velocity=105 time=0
EXTRACT: note_on channel=9 note=61 velocity=72 time=0
EXTRACT: note_on channel=9 note=82 velocity=78 time=0
EXTRACT: note_on channel=9 note=40 velocity=0 time=0.005040322916666667
EXTRACT: note_on channel=9 note=82 velocity=0 time=0.005040322916666667
EXTRACT: note_on channel=9 note=42 velocity=0 time=0
EXTRACT: note_on channel=9 note=28 velocity=0 time=0
EXTRACT: note_on channel=9 note=61 velocity=0 time=0
EXTRACT: note_on channel=13 note=48 velocity=0 time=0.0025201614583333335
EXTRACT: note_on channel=1 note=36 velocity=0 time=0
EXTRACT: note_on channel=2 note=48 velocity=0 time=0
EXTRACT: note_on channel=1 note=32 velocity=93 time=0.007560484375000001
EXTRACT: note_on channel=2 note=44 velocity=107 time=0
EXTRACT: note_on channel=8 note=80 velocity=98 time=0
EXTRACT: note_on channel=13 note=44 velocity=95 time=0
EXTRACT: note_on channel=9 note=79 velocity=80 time=0.040322583333333335
EXTRACT: note_on channel=9 note=79 velocity=0 time=0.010080645833333334
EXTRACT: note_on channel=9 note=42 velocity=58 time=0.05040322916666667
EXTRACT: note_on channel=9 note=61 velocity=60 time=0
EXTRACT: note_on channel=9 note=82 velocity=64 time=0
EXTRACT: note_on channel=9 note=82 velocity=0 time=0.010080645833333334
EXTRACT: note_on channel=9 note=42 velocity=0 time=0
EXTRACT: note_on channel=9 note=61 velocity=0 time=0
EXTRACT: note_on channel=9 note=78 velocity=75 time=0.08568548958333334
EXTRACT: note_on channel=9 note=78 velocity=0 time=0.010080645833333334
EXTRACT: note_on channel=9 note=35 velocity=105 time=0.010080645833333334
EXTRACT: note_on channel=2 note=44 velocity=0 time=0.0025201614583333335
EXTRACT: note_on channel=13 note=44 velocity=0 time=0
EXTRACT: note_on channel=1 note=32 velocity=0 time=0
EXTRACT: note_on channel=9 note=42 velocity=40 time=0.0025201614583333335
EXTRACT: note_on channel=9 note=76 velocity=68 time=0
EXTRACT: note_on channel=9 note=82 velocity=51 time=0
EXTRACT: note_on channel=9 note=87 velocity=93 time=0
EXTRACT: note_on channel=9 note=35 velocity=0 time=0.005040322916666667
EXTRACT: note_on channel=1 note=24 velocity=83 time=0
EXTRACT: note_on channel=2 note=36 velocity=97 time=0
EXTRACT: note_on channel=13 note=36 velocity=85 time=0
EXTRACT: note_on channel=9 note=42 velocity=0 time=0.005040322916666667
EXTRACT: note_on channel=9 note=82 velocity=0 time=0
EXTRACT: note_on channel=9 note=76 velocity=0 time=0
EXTRACT: note_on channel=9 note=87 velocity=0 time=0
EXTRACT: note_on channel=9 note=79 velocity=85 time=0.05544355208333333
EXTRACT: note_on channel=8 note=80 velocity=0 time=0.005040322916666667
EXTRACT: note_on channel=9 note=79 velocity=0 time=0.005040322916666667
EXTRACT: note_on channel=9 note=28 velocity=42 time=0.04536290625
EXTRACT: note_on channel=9 note=42 velocity=34 time=0
EXTRACT: note_on channel=9 note=61 velocity=68 time=0
EXTRACT: note_on channel=9 note=82 velocity=43 time=0
EXTRACT: note_on channel=9 note=82 velocity=0 time=0.010080645833333334
EXTRACT: note_on channel=9 note=42 velocity=0 time=0
EXTRACT: note_on channel=9 note=28 velocity=0 time=0
EXTRACT: note_on channel=9 note=61 velocity=0 time=0
EXTRACT: note_on channel=9 note=79 velocity=102 time=0.07560484375
EXTRACT: note_on channel=9 note=79 velocity=0 time=0.010080645833333334
EXTRACT: note_on channel=1 note=28 velocity=88 time=0.022681453125
EXTRACT: note_on channel=2 note=40 velocity=102 time=0
EXTRACT: note_on channel=9 note=35 velocity=105 time=0
EXTRACT: note_on channel=13 note=40 velocity=90 time=0
EXTRACT: note_on channel=9 note=42 velocity=101 time=0.0025201614583333335
EXTRACT: note_on channel=9 note=82 velocity=79 time=0
EXTRACT: note_on channel=9 note=87 velocity=102 time=0
EXTRACT: note_on channel=9 note=35 velocity=0 time=0.007560484375000001
EXTRACT: note_on channel=8 note=82 velocity=72 time=0
EXTRACT: note_on channel=9 note=87 velocity=0 time=0.0025201614583333335
EXTRACT: note_on channel=9 note=42 velocity=0 time=0
EXTRACT: note_on channel=9 note=82 velocity=0 time=0
EXTRACT: note_on channel=13 note=36 velocity=0 time=0.012600807291666667
EXTRACT: note_on channel=1 note=24 velocity=0 time=0
EXTRACT: note_on channel=2 note=36 velocity=0 time=0
EXTRACT: note_on channel=9 note=42 velocity=58 time=0.098286296875
EXTRACT: note_on channel=9 note=61 velocity=62 time=0
EXTRACT: note_on channel=9 note=82 velocity=67 time=0
EXTRACT: note_on channel=9 note=82 velocity=0 time=0.010080645833333334
EXTRACT: note_on channel=9 note=42 velocity=0 time=0
EXTRACT: note_on channel=9 note=61 velocity=0 time=0
EXTRACT: note_on channel=9 note=79 velocity=93 time=0.05040322916666667
EXTRACT: note_on channel=9 note=79 velocity=0 time=0.010080645833333334
EXTRACT: note_on channel=9 note=28 velocity=52 time=0.05040322916666667
EXTRACT: note_on channel=9 note=42 velocity=48 time=0
EXTRACT: note_on channel=9 note=61 velocity=76 time=0
EXTRACT: note_on channel=9 note=76 velocity=80 time=0
EXTRACT: note_on channel=9 note=82 velocity=54 time=0
EXTRACT: note_on channel=9 note=82 velocity=0 time=0.010080645833333334
EXTRACT: note_on channel=9 note=76 velocity=0 time=0
EXTRACT: note_on channel=9 note=61 velocity=0 time=0
EXTRACT: note_on channel=9 note=28 velocity=0 time=0
EXTRACT: note_on channel=9 note=42 velocity=0 time=0
EXTRACT: note_on channel=9 note=79 velocity=89 time=0.06552419791666667
EXTRACT: note_on channel=9 note=79 velocity=0 time=0.010080645833333334
EXTRACT: note_on channel=9 note=42 velocity=33 time=0.03528226041666667
EXTRACT: note_on channel=9 note=82 velocity=42 time=0
EXTRACT: note_on channel=9 note=35 velocity=96 time=0.0025201614583333335
EXTRACT: note_on channel=9 note=82 velocity=0 time=0.007560484375000001
EXTRACT: note_on channel=9 note=42 velocity=0 time=0
EXTRACT: note_on channel=9 note=35 velocity=0 time=0.0025201614583333335
EXTRACT: note_on channel=9 note=78 velocity=75 time=0.08064516666666667
EXTRACT: note_on channel=8 note=86 velocity=85 time=0.007560484375000001
EXTRACT: note_on channel=9 note=78 velocity=0 time=0.0025201614583333335
EXTRACT: note_on channel=8 note=82 velocity=0 time=0.010080645833333334
EXTRACT: note_on channel=9 note=40 velocity=101 time=0.0025201614583333335
EXTRACT: note_on channel=9 note=28 velocity=59 time=0.005040322916666667
EXTRACT: note_on channel=9 note=42 velocity=99 time=0
EXTRACT: note_on channel=9 note=61 velocity=76 time=0
EXTRACT: note_on channel=9 note=82 velocity=79 time=0
EXTRACT: note_on channel=1 note=31 velocity=88 time=0.0025201614583333335
EXTRACT: note_on channel=2 note=43 velocity=102 time=0
EXTRACT: note_on channel=13 note=43 velocity=90 time=0
EXTRACT: note_on channel=9 note=40 velocity=0 time=0.0025201614583333335
EXTRACT: note_on channel=1 note=28 velocity=0 time=0.0025201614583333335
EXTRACT: note_on channel=2 note=40 velocity=0 time=0
EXTRACT: note_on channel=13 note=40 velocity=0 time=0
EXTRACT: note_on channel=9 note=82 velocity=0 time=0.0025201614583333335
EXTRACT: note_on channel=9 note=61 velocity=0 time=0
EXTRACT: note_on channel=9 note=42 velocity=0 time=0
EXTRACT: note_on channel=9 note=28 velocity=0 time=0
EXTRACT: note_on channel=9 note=79 velocity=85 time=0.07560484375
EXTRACT: note_on channel=9 note=79 velocity=0 time=0.010080645833333334
EXTRACT: note_on channel=9 note=42 velocity=57 time=0.025201614583333334
EXTRACT: note_on channel=9 note=61 velocity=72 time=0
EXTRACT: note_on channel=9 note=76 velocity=72 time=0
EXTRACT: note_on channel=9 note=82 velocity=68 time=0
EXTRACT: note_on channel=9 note=82 velocity=0 time=0.010080645833333334
EXTRACT: note_on channel=9 note=76 velocity=0 time=0
EXTRACT: note_on channel=9 note=42 velocity=0 time=0
EXTRACT: note_on channel=9 note=61 velocity=0 time=0
EXTRACT: note_on channel=9 note=42 velocity=49 time=0.11088710416666667
EXTRACT: note_on channel=9 note=61 velocity=51 time=0
EXTRACT: note_on channel=9 note=82 velocity=54 time=0
EXTRACT: note_on channel=9 note=82 velocity=0 time=0.010080645833333334
EXTRACT: note_on channel=9 note=42 velocity=0 time=0
EXTRACT: note_on channel=9 note=61 velocity=0 time=0
EXTRACT: note_on channel=9 note=79 velocity=80 time=0.03528226041666667
EXTRACT: note_on channel=9 note=79 velocity=0 time=0.010080645833333334
EXTRACT: note_on channel=9 note=78 velocity=75 time=0.025201614583333334
EXTRACT: note_on channel=9 note=78 velocity=0 time=0.010080645833333334
EXTRACT: note_on channel=1 note=37 velocity=92 time=0.017641130208333335
EXTRACT: note_on channel=2 note=49 velocity=106 time=0
EXTRACT: note_on channel=13 note=49 velocity=94 time=0
EXTRACT: note_on channel=2 note=43 velocity=0 time=0.012600807291666667
EXTRACT: note_on channel=13 note=43 velocity=0 time=0
EXTRACT: note_on channel=1 note=31 velocity=0 time=0
EXTRACT: note_on channel=9 note=28 velocity=59 time=0
EXTRACT: note_on channel=9 note=42 velocity=36 time=0
EXTRACT: note_on channel=9 note=61 velocity=72 time=0
EXTRACT: note_on channel=9 note=82 velocity=45 time=0
EXTRACT: note_on channel=9 note=35 velocity=101 time=0.005040322916666667
EXTRACT: note_on channel=9 note=82 velocity=0 time=0.005040322916666667
EXTRACT: note_on channel=9 note=61 velocity=0 time=0
EXTRACT: note_on channel=9 note=42 velocity=0 time=0
EXTRACT: note_on channel=9 note=28 velocity=0 time=0
EXTRACT: note_on channel=9 note=35 velocity=0 time=0.005040322916666667
EXTRACT: note_on channel=8 note=87 velocity=85 time=0.08568548958333334
EXTRACT: note_on channel=9 note=79 velocity=72 time=0.017641130208333335
EXTRACT: note_on channel=9 note=40 velocity=45 time=0.0025201614583333335
EXTRACT: note_on channel=9 note=42 velocity=105 time=0
EXTRACT: note_on channel=9 note=76 velocity=76 time=0
EXTRACT: note_on channel=9 note=82 velocity=78 time=0
EXTRACT: note_on channel=9 note=79 velocity=0 time=0.007560484375000001
EXTRACT: note_on channel=9 note=82 velocity=0 time=0.0025201614583333335
EXTRACT: note_on channel=9 note=42 velocity=0 time=0
EXTRACT: note_on channel=9 note=76 velocity=0 time=0
EXTRACT: note_on channel=9 note=40 velocity=0 time=0
EXTRACT: note_on channel=8 note=86 velocity=0 time=0.007560484375000001
EXTRACT: note_on channel=9 note=40 velocity=48 time=0.04284274479166667
EXTRACT: note_on channel=9 note=40 velocity=0 time=0.010080645833333334
EXTRACT: note_on channel=9 note=78 velocity=75 time=0.03528226041666667
EXTRACT: note_on channel=9 note=78 velocity=0 time=0.010080645833333334
EXTRACT: note_on channel=9 note=28 velocity=55 time=0.005040322916666667
EXTRACT: note_on channel=9 note=40 velocity=52 time=0
EXTRACT: note_on channel=9 note=42 velocity=64 time=0
EXTRACT: note_on channel=9 note=61 velocity=62 time=0
EXTRACT: note_on channel=9 note=82 velocity=68 time=0
EXTRACT: note_on channel=9 note=35 velocity=96 time=0.0025201614583333335
EXTRACT: note_on channel=9 note=82 velocity=0 time=0.007560484375000001
EXTRACT: note_on channel=9 note=61 velocity=0 time=0
EXTRACT: note_on channel=9 note=42 velocity=0 time=0
EXTRACT: note_on channel=9 note=40 velocity=0 time=0
EXTRACT: note_on channel=9 note=28 velocity=0 time=0
EXTRACT: note_on channel=9 note=35 velocity=0 time=0.0025201614583333335
EXTRACT: note_on channel=9 note=40 velocity=55 time=0.04788306770833334
EXTRACT: note_on channel=9 note=40 velocity=0 time=0.010080645833333334
EXTRACT: note_on channel=9 note=79 velocity=93 time=0.010080645833333334
EXTRACT: note_on channel=9 note=79 velocity=0 time=0.010080645833333334
EXTRACT: note_on channel=1 note=37 velocity=0 time=0.030241937500000003
EXTRACT: note_on channel=2 note=49 velocity=0 time=0
EXTRACT: note_on channel=13 note=49 velocity=0 time=0
EXTRACT: note_on channel=9 note=40 velocity=59 time=0
EXTRACT: note_on channel=9 note=42 velocity=47 time=0
EXTRACT: note_on channel=9 note=61 velocity=52 time=0
EXTRACT: note_on channel=9 note=82 velocity=58 time=0
EXTRACT: note_on channel=1 note=36 velocity=99 time=0.0025201614583333335
EXTRACT: note_on channel=2 note=48 velocity=113 time=0
EXTRACT: note_on channel=9 note=35 velocity=92 time=0
EXTRACT: note_on channel=13 note=48 velocity=101 time=0
EXTRACT: note_on channel=9 note=82 velocity=0 time=0.007560484375000001
EXTRACT: note_on channel=9 note=61 velocity=0 time=0
EXTRACT: note_on channel=9 note=42 velocity=0 time=0
EXTRACT: note_on channel=9 note=40 velocity=0 time=0
EXTRACT: note_on channel=9 note=35 velocity=0 time=0.0025201614583333335
EXTRACT: note_on channel=9 note=40 velocity=62 time=0.04788306770833334
EXTRACT: note_on channel=9 note=40 velocity=0 time=0.010080645833333334
EXTRACT: note_on channel=9 note=40 velocity=66 time=0.05040322916666667
EXTRACT: note_on channel=9 note=42 velocity=36 time=0
EXTRACT: note_on channel=9 note=61 velocity=55 time=0
EXTRACT: note_on channel=9 note=76 velocity=72 time=0
EXTRACT: note_on channel=9 note=82 velocity=42 time=0
EXTRACT: note_on channel=9 note=82 velocity=0 time=0.010080645833333334
EXTRACT: note_on channel=9 note=76 velocity=0 time=0
EXTRACT: note_on channel=9 note=61 velocity=0 time=0
EXTRACT: note_on channel=9 note=40 velocity=0 time=0
EXTRACT: note_on channel=9 note=42 velocity=0 time=0
EXTRACT: note_on channel=9 note=40 velocity=70 time=0.05040322916666667
EXTRACT: note_on channel=9 note=40 velocity=0 time=0.010080645833333334
EXTRACT: note_on channel=9 note=78 velocity=75 time=0.010080645833333334
EXTRACT: note_on channel=9 note=78 velocity=0 time=0.010080645833333334
EXTRACT: note_on channel=8 note=88 velocity=93 time=0.022681453125
EXTRACT: note_on channel=9 note=28 velocity=62 time=0.007560484375000001
EXTRACT: note_on channel=9 note=40 velocity=73 time=0
EXTRACT: note_on channel=9 note=42 velocity=105 time=0
EXTRACT: note_on channel=9 note=61 velocity=68 time=0
EXTRACT: note_on channel=9 note=82 velocity=78 time=0
EXTRACT: note_on channel=13 note=48 velocity=0 time=0.0025201614583333335
EXTRACT: note_on channel=1 note=36 velocity=0 time=0
EXTRACT: note_on channel=2 note=48 velocity=0 time=0
EXTRACT: note_on channel=1 note=31 velocity=93 time=0.0025201614583333335
EXTRACT: note_on channel=2 note=43 velocity=107 time=0
EXTRACT: note_on channel=13 note=43 velocity=95 time=0
EXTRACT: note_on channel=9 note=61 velocity=0 time=0.005040322916666667
EXTRACT: note_on channel=9 note=42 velocity=0 time=0
EXTRACT: note_on channel=9 note=82 velocity=0 time=0
EXTRACT: note_on channel=9 note=28 velocity=0 time=0
EXTRACT: note_on channel=9 note=40 velocity=0 time=0
EXTRACT: note_on channel=8 note=87 velocity=0 time=0.012600807291666667
EXTRACT: note_on channel=9 note=40 velocity=55 time=0.037802421875
EXTRACT: note_on channel=9 note=40 velocity=0 time=0.010080645833333334
EXTRACT: note_on channel=9 note=79 velocity=76 time=0.0025201614583333335
EXTRACT: note_on channel=9 note=79 velocity=0 time=0.010080645833333334
EXTRACT: note_on channel=9 note=40 velocity=61 time=0.037802421875
EXTRACT: note_on channel=9 note=42 velocity=58 time=0
EXTRACT: note_on channel=9 note=61 velocity=62 time=0
EXTRACT: note_on channel=9 note=82 velocity=64 time=0
EXTRACT: note_on channel=9 note=82 velocity=0 time=0.010080645833333334
EXTRACT: note_on channel=9 note=61 velocity=0 time=0
EXTRACT: note_on channel=9 note=40 velocity=0 time=0
EXTRACT: note_on channel=9 note=42 velocity=0 time=0
EXTRACT: note_on channel=9 note=40 velocity=67 time=0.05040322916666667
EXTRACT: note_on channel=9 note=40 velocity=0 time=0.010080645833333334
EXTRACT: note_on channel=9 note=78 velocity=75 time=0.005040322916666667
EXTRACT: note_on channel=9 note=78 velocity=0 time=0.010080645833333334
EXTRACT: note_on channel=2 note=43 velocity=0 time=0.007560484375000001
EXTRACT: note_on channel=13 note=43 velocity=0 time=0
EXTRACT: note_on channel=1 note=31 velocity=0 time=0
EXTRACT: note_on channel=1 note=28 velocity=88 time=0.022681453125
EXTRACT: note_on channel=2 note=40 velocity=102 time=0
EXTRACT: note_on channel=9 note=35 velocity=101 time=0
EXTRACT: note_on channel=13 note=40 velocity=90 time=0
EXTRACT: note_on channel=9 note=28 velocity=60 time=0.005040322916666667
EXTRACT: note_on channel=9 note=40 velocity=72 time=0
EXTRACT: note_on channel=9 note=42 velocity=40 time=0
EXTRACT: note_on channel=9 note=76 velocity=76 time=0
EXTRACT: note_on channel=9 note=82 velocity=51 time=0
EXTRACT: note_on channel=9 note=87 velocity=107 time=0
EXTRACT: note_on channel=9 note=35 velocity=0 time=0.005040322916666667
EXTRACT: note_on channel=9 note=76 velocity=0 time=0.005040322916666667
EXTRACT: note_on channel=9 note=87 velocity=0 time=0
EXTRACT: note_on channel=9 note=42 velocity=0 time=0
EXTRACT: note_on channel=9 note=82 velocity=0 time=0
EXTRACT: note_on channel=9 note=28 velocity=0 time=0
EXTRACT: note_on channel=9 note=40 velocity=0 time=0
EXTRACT: note_on channel=9 note=40 velocity=78 time=0.05040322916666667
EXTRACT: note_on channel=9 note=40 velocity=0 time=0.010080645833333334
EXTRACT: note_on channel=9 note=79 velocity=85 time=0.010080645833333334
EXTRACT: note_on channel=9 note=79 velocity=0 time=0.010080645833333334
EXTRACT: note_on channel=9 note=40 velocity=83 time=0.030241937500000003
EXTRACT: note_on channel=9 note=42 velocity=34 time=0
EXTRACT: note_on channel=9 note=82 velocity=43 time=0
EXTRACT: note_on channel=9 note=82 velocity=0 time=0.010080645833333334
EXTRACT: note_on channel=9 note=40 velocity=0 time=0
EXTRACT: note_on channel=9 note=42 velocity=0 time=0
EXTRACT: note_on channel=9 note=40 velocity=89 time=0.05040322916666667
EXTRACT: note_on channel=9 note=40 velocity=0 time=0.010080645833333334
EXTRACT: note_on channel=8 note=88 velocity=0 time=0.017641130208333335
EXTRACT: note_on channel=1 note=28 velocity=0 time=0.030241937500000003
EXTRACT: note_on channel=2 note=40 velocity=0 time=0
EXTRACT: note_on channel=13 note=40 velocity=0 time=0
EXTRACT: note_on channel=1 note=29 velocity=107 time=0.0025201614583333335
EXTRACT: note_on channel=2 note=41 velocity=113 time=0
EXTRACT: note_on channel=9 note=57 velocity=70 time=0
EXTRACT: note_on channel=9 note=82 velocity=66 time=0
EXTRACT: note_on channel=9 note=87 velocity=102 time=0
EXTRACT: note_on channel=13 note=41 velocity=101 time=0
EXTRACT: note_on channel=9 note=35 velocity=113 time=0.005040322916666667
EXTRACT: note_on channel=12 note=23 velocity=113 time=0
EXTRACT: note_on channel=9 note=87 velocity=0 time=0.005040322916666667
EXTRACT: note_on channel=9 note=82 velocity=0 time=0
EXTRACT: note_on channel=9 note=57 velocity=0 time=0
EXTRACT: note_on channel=9 note=35 velocity=0 time=0.005040322916666667
EXTRACT: note_on channel=3 note=69 velocity=102 time=0.015120968750000002
EXTRACT: note_on channel=12 note=23 velocity=0 time=0.007560484375000001
EXTRACT: note_on channel=3 note=69 velocity=0 time=0.025201614583333334
EXTRACT: note_on channel=9 note=86 velocity=93 time=0.05544355208333333
EXTRACT: note_on channel=9 note=61 velocity=62 time=0.0025201614583333335
EXTRACT: note_on channel=9 note=82 velocity=62 time=0
EXTRACT: note_on channel=9 note=86 velocity=0 time=0.007560484375000001
EXTRACT: note_on channel=9 note=61 velocity=0 time=0.0025201614583333335
EXTRACT: note_on channel=9 note=82 velocity=0 time=0
EXTRACT: note_on channel=3 note=69 velocity=79 time=0.015120968750000002
EXTRACT: note_on channel=3 note=69 velocity=0 time=0.03276209895833333
EXTRACT: note_on channel=9 note=28 velocity=62 time=0.06300403645833334
EXTRACT: note_on channel=9 note=46 velocity=60 time=0
EXTRACT: note_on channel=9 note=61 velocity=60 time=0
EXTRACT: note_on channel=9 note=82 velocity=51 time=0
EXTRACT: note_on channel=9 note=82 velocity=0 time=0.010080645833333334
EXTRACT: note_on channel=9 note=46 velocity=0 time=0
EXTRACT: note_on channel=9 note=28 velocity=0 time=0
EXTRACT: note_on channel=9 note=61 velocity=0 time=0
EXTRACT: note_on channel=3 note=69 velocity=98 time=0.0025201614583333335
EXTRACT: note_on channel=3 note=69 velocity=0 time=0.03276209895833333
EXTRACT: note_on channel=9 note=86 velocity=113 time=0.06300403645833334
EXTRACT: note_on channel=9 note=86 velocity=0 time=0.010080645833333334
EXTRACT: note_on channel=9 note=82 velocity=54 time=0.0025201614583333335
EXTRACT: note_on channel=9 note=82 velocity=0 time=0.010080645833333334
EXTRACT: note_on channel=3 note=69 velocity=78 time=0.007560484375000001
EXTRACT: note_on channel=3 note=69 velocity=0 time=0.03276209895833333
EXTRACT: note_on channel=1 note=29 velocity=0 time=0.05796371354166667
EXTRACT: note_on channel=2 note=41 velocity=0 time=0
EXTRACT: note_on channel=13 note=41 velocity=0 time=0
EXTRACT: note_on channel=1 note=32 velocity=101 time=0.010080645833333334
EXTRACT: note_on channel=2 note=44 velocity=107 time=0
EXTRACT: note_on channel=13 note=44 velocity=95 time=0
EXTRACT: note_on channel=3 note=69 velocity=107 time=0.0025201614583333335
EXTRACT: note_on channel=9 note=61 velocity=85 time=0
EXTRACT: note_on channel=9 note=82 velocity=66 time=0
EXTRACT: note_on channel=9 note=40 velocity=120 time=0.007560484375000001
EXTRACT: note_on channel=9 note=82 velocity=0 time=0.0025201614583333335
EXTRACT: note_on channel=9 note=61 velocity=0 time=0
EXTRACT: note_on channel=9 note=40 velocity=0 time=0.007560484375000001
EXTRACT: note_on channel=9 note=28 velocity=60 time=0.10332661979166667
EXTRACT: note_on channel=9 note=61 velocity=68 time=0
EXTRACT: note_on channel=9 note=82 velocity=62 time=0
EXTRACT: note_on channel=9 note=82 velocity=0 time=0.010080645833333334
EXTRACT: note_on channel=9 note=28 velocity=0 time=0
EXTRACT: note_on channel=9 note=61 velocity=0 time=0
EXTRACT: pitchwheel channel=3 pitch=-304 time=0.037802421875
EXTRACT: pitchwheel channel=3 pitch=-759 time=0.07056452083333334
EXTRACT: note_on channel=9 note=42 velocity=56 time=0.0025201614583333335
EXTRACT: note_on channel=9 note=61 velocity=49 time=0
EXTRACT: note_on channel=9 note=82 velocity=51 time=0
EXTRACT: note_on channel=9 note=35 velocity=89 time=0.007560484375000001
EXTRACT: note_on channel=12 note=23 velocity=89 time=0
EXTRACT: note_on channel=9 note=82 velocity=0 time=0.0025201614583333335
EXTRACT: note_on channel=9 note=61 velocity=0 time=0
EXTRACT: note_on channel=9 note=42 velocity=0 time=0
EXTRACT: note_on channel=9 note=86 velocity=102 time=0
EXTRACT: note_on channel=9 note=35 velocity=0 time=0.007560484375000001
EXTRACT: note_on channel=9 note=86 velocity=0 time=0.0025201614583333335
EXTRACT: note_on channel=12 note=23 velocity=0 time=0.020161291666666668
EXTRACT: pitchwheel channel=3 pitch=-1290 time=0.04788306770833334
EXTRACT: note_on channel=1 note=37 velocity=107 time=0.03276209895833333
EXTRACT: note_on channel=2 note=49 velocity=113 time=0
EXTRACT: note_on channel=9 note=61 velocity=72 time=0
EXTRACT: note_on channel=9 note=82 velocity=66 time=0
EXTRACT: note_on channel=13 note=49 velocity=101 time=0
EXTRACT: note_on channel=8 note=84 velocity=93 time=0.0025201614583333335
EXTRACT: note_on channel=1 note=32 velocity=0 time=0.0025201614583333335
EXTRACT: note_on channel=13 note=44 velocity=0 time=0
EXTRACT: note_on channel=2 note=44 velocity=0 time=0
EXTRACT: note_on channel=8 note=91 velocity=85 time=0
EXTRACT: note_on channel=9 note=35 velocity=85 time=0
EXTRACT: note_on channel=9 note=86 velocity=93 time=0
EXTRACT: note_on channel=12 note=23 velocity=85 time=0
EXTRACT: note_on channel=9 note=82 velocity=0 time=0.005040322916666667
EXTRACT: note_on channel=9 note=61 velocity=0 time=0
EXTRACT: note_on channel=9 note=86 velocity=0 time=0.005040322916666667
EXTRACT: note_on channel=9 note=35 velocity=0 time=0
EXTRACT: note_on channel=12 note=23 velocity=0 time=0.022681453125
EXTRACT: pitchwheel channel=3 pitch=-1897 time=0.0025201614583333335
EXTRACT: note_on channel=8 note=84 velocity=0 time=0.025201614583333334
EXTRACT: note_on channel=8 note=91 velocity=0 time=0.007560484375000001
EXTRACT: pitchwheel channel=3 pitch=-2352 time=0.020161291666666668
EXTRACT: note_on channel=9 note=28 velocity=60 time=0.027721776041666667
EXTRACT: note_on channel=9 note=82 velocity=56 time=0
EXTRACT: note_on channel=9 note=87 velocity=102 time=0
EXTRACT: note_on channel=9 note=86 velocity=107 time=0.0025201614583333335
EXTRACT: note_on channel=9 note=87 velocity=0 time=0.007560484375000001
EXTRACT: note_on channel=9 note=82 velocity=0 time=0
EXTRACT: note_on channel=9 note=28 velocity=0 time=0
EXTRACT: note_on channel=9 note=86 velocity=0 time=0.0025201614583333335
EXTRACT: pitchwheel channel=3 pitch=-2883 time=0.030241937500000003
EXTRACT: pitchwheel channel=3 pitch=-3414 time=0.07308468229166667
EXTRACT: note_on channel=9 note=61 velocity=62 time=0.005040322916666667
EXTRACT: note_on channel=9 note=82 velocity=66 time=0
EXTRACT: note_on channel=8 note=84 velocity=102 time=0.0025201614583333335
EXTRACT: note_on channel=8 note=91 velocity=89 time=0
EXTRACT: note_on channel=9 note=35 velocity=85 time=0.0025201614583333335
EXTRACT: note_on channel=9 note=86 velocity=102 time=0
EXTRACT: note_on channel=12 note=23 velocity=85 time=0
EXTRACT: note_on channel=9 note=82 velocity=0 time=0.005040322916666667
EXTRACT: note_on channel=9 note=61 velocity=0 time=0
EXTRACT: note_on channel=9 note=86 velocity=0 time=0.005040322916666667
EXTRACT: note_on channel=9 note=35 velocity=0 time=0
EXTRACT: note_on channel=12 note=23 velocity=0 time=0.022681453125
EXTRACT: pitchwheel channel=3 pitch=-4021 time=0.010080645833333334
EXTRACT: note_on channel=8 note=84 velocity=0 time=0.012600807291666667
EXTRACT: note_on channel=8 note=91 velocity=0 time=0.015120968750000002
EXTRACT: pitchwheel channel=3 pitch=-4552 time=0.027721776041666667
EXTRACT: note_on channel=2 note=49 velocity=0 time=0.007560484375000001
EXTRACT: note_on channel=13 note=49 velocity=0 time=0
EXTRACT: note_on channel=1 note=37 velocity=0 time=0
EXTRACT: note_on channel=1 note=36 velocity=96 time=0.007560484375000001
EXTRACT: note_on channel=2 note=48 velocity=102 time=0
EXTRACT: note_on channel=13 note=48 velocity=90 time=0
EXTRACT: note_on channel=9 note=46 velocity=60 time=0.0025201614583333335
EXTRACT: note_on channel=9 note=61 velocity=85 time=0
EXTRACT: note_on channel=9 note=82 velocity=46 time=0
EXTRACT: note_on channel=9 note=35 velocity=85 time=0.005040322916666667
EXTRACT: note_on channel=12 note=23 velocity=85 time=0
EXTRACT: note_on channel=9 note=82 velocity=0 time=0.005040322916666667
EXTRACT: note_on channel=9 note=61 velocity=0 time=0
EXTRACT: note_on channel=9 note=46 velocity=0 time=0
EXTRACT: note_on channel=9 note=35 velocity=0 time=0.005040322916666667
EXTRACT: pitchwheel channel=3 pitch=-5234 time=0.020161291666666668
EXTRACT: note_on channel=12 note=23 velocity=0 time=0.0025201614583333335
EXTRACT: pitchwheel channel=3 pitch=-5917 time=0.068044359375
EXTRACT: note_on channel=9 note=86 velocity=107 time=0.007560484375000001
EXTRACT: note_on channel=8 note=91 velocity=89 time=0.007560484375000001
EXTRACT: note_on channel=9 note=28 velocity=57 time=0
EXTRACT: note_on channel=9 note=82 velocity=58 time=0
EXTRACT: note_on channel=9 note=86 velocity=0 time=0.0025201614583333335
EXTRACT: note_on channel=8 note=84 velocity=98 time=0
EXTRACT: note_on channel=9 note=82 velocity=0 time=0.007560484375000001
EXTRACT: note_on channel=9 note=28 velocity=0 time=0
EXTRACT: pitchwheel channel=3 pitch=-6448 time=0.010080645833333334
EXTRACT: note_on channel=8 note=84 velocity=0 time=0.027721776041666667
EXTRACT: note_on channel=8 note=91 velocity=0 time=0.005040322916666667
EXTRACT: pitchwheel channel=3 pitch=-6979 time=0.005040322916666667
EXTRACT: pitchwheel channel=3 pitch=-7510 time=0.03528226041666667
EXTRACT: note_on channel=9 note=40 velocity=120 time=0.027721776041666667
EXTRACT: note_on channel=9 note=61 velocity=72 time=0
EXTRACT: note_on channel=9 note=82 velocity=58 time=0
EXTRACT: note_on channel=8 note=91 velocity=93 time=0.0025201614583333335
EXTRACT: note_on channel=8 note=84 velocity=93 time=0.0025201614583333335
EXTRACT: note_on channel=9 note=82 velocity=0 time=0.005040322916666667
EXTRACT: note_on channel=9 note=61 velocity=0 time=0
EXTRACT: note_on channel=9 note=40 velocity=0 time=0
EXTRACT: note_on channel=13 note=48 velocity=0 time=0.0025201614583333335
EXTRACT: note_on channel=2 note=48 velocity=0 time=0
EXTRACT: note_on channel=1 note=36 velocity=0 time=0
EXTRACT: note_on channel=1 note=32 velocity=101 time=0.007560484375000001
EXTRACT: note_on channel=2 note=44 velocity=107 time=0
EXTRACT: note_on channel=13 note=44 velocity=95 time=0
EXTRACT: pitchwheel channel=3 pitch=-8117 time=0.005040322916666667
EXTRACT: note_on channel=3 note=69 velocity=0 time=0.07812500520833333
EXTRACT: note_on channel=9 note=61 velocity=60 time=0.017641130208333335
EXTRACT: note_on channel=9 note=82 velocity=58 time=0
EXTRACT: note_on channel=9 note=82 velocity=0 time=0.010080645833333334
EXTRACT: note_on channel=9 note=61 velocity=0 time=0
EXTRACT: pitchwheel channel=3 pitch=0 time=0.09324597395833334
EXTRACT: note_on channel=13 note=44 velocity=0 time=0.015120968750000002
EXTRACT: note_on channel=1 note=32 velocity=0 time=0
EXTRACT: note_on channel=2 note=44 velocity=0 time=0
EXTRACT: note_on channel=9 note=28 velocity=57 time=0.0025201614583333335
EXTRACT: note_on channel=9 note=42 velocity=56 time=0
EXTRACT: note_on channel=9 note=82 velocity=50 time=0
EXTRACT: note_on channel=1 note=24 velocity=91 time=0.005040322916666667
EXTRACT: note_on channel=2 note=36 velocity=97 time=0
EXTRACT: note_on channel=9 note=35 velocity=89 time=0
EXTRACT: note_on channel=12 note=23 velocity=89 time=0
EXTRACT: note_on channel=13 note=36 velocity=85 time=0
EXTRACT: note_on channel=9 note=82 velocity=0 time=0.005040322916666667
EXTRACT: note_on channel=9 note=42 velocity=0 time=0
EXTRACT: note_on channel=9 note=28 velocity=0 time=0
EXTRACT: note_on channel=9 note=86 velocity=102 time=0.0025201614583333335
EXTRACT: note_on channel=9 note=35 velocity=0 time=0.0025201614583333335
EXTRACT: note_on channel=9 note=86 velocity=0 time=0.007560484375000001
EXTRACT: note_on channel=12 note=23 velocity=0 time=0.015120968750000002
EXTRACT: note_on channel=9 note=61 velocity=68 time=0.08316532812500001
EXTRACT: note_on channel=9 note=82 velocity=54 time=0
EXTRACT: note_on channel=9 note=82 velocity=0 time=0.010080645833333334
EXTRACT: note_on channel=9 note=61 velocity=0 time=0
EXTRACT: note_on channel=9 note=86 velocity=89 time=0.005040322916666667
EXTRACT: note_on channel=9 note=86 velocity=0 time=0.010080645833333334
EXTRACT: note_on channel=1 note=28 velocity=96 time=0.09324597395833334
EXTRACT: note_on channel=2 note=40 velocity=102 time=0
EXTRACT: note_on channel=13 note=40 velocity=90 time=0
EXTRACT: note_on channel=9 note=82 velocity=66 time=0.0025201614583333335
EXTRACT: note_on channel=9 note=87 velocity=89 time=0
EXTRACT: note_on channel=9 note=35 velocity=102 time=0.005040322916666667
EXTRACT: note_on channel=12 note=23 velocity=102 time=0
EXTRACT: note_on channel=9 note=86 velocity=102 time=0.0025201614583333335
EXTRACT: note_on channel=9 note=87 velocity=0 time=0.0025201614583333335
EXTRACT: note_on channel=9 note=82 velocity=0 time=0
EXTRACT: note_on channel=3 note=69 velocity=114 time=0
EXTRACT: note_on channel=9 note=35 velocity=0 time=0.005040322916666667
EXTRACT: note_on channel=9 note=86 velocity=0 time=0.0025201614583333335
EXTRACT: note_on channel=13 note=36 velocity=0 time=0.005040322916666667
EXTRACT: note_on channel=1 note=24 velocity=0 time=0
EXTRACT: note_on channel=2 note=36 velocity=0 time=0
EXTRACT: note_on channel=12 note=23 velocity=0 time=0.015120968750000002
EXTRACT: note_on channel=3 note=69 velocity=0 time=0.005040322916666667
EXTRACT: note_on channel=9 note=61 velocity=60 time=0.07812500520833333
EXTRACT: note_on channel=9 note=82 velocity=79 time=0
EXTRACT: note_on channel=9 note=82 velocity=0 time=0.010080645833333334
EXTRACT: note_on channel=9 note=61 velocity=0 time=0
EXTRACT: note_on channel=9 note=86 velocity=107 time=0
EXTRACT: note_on channel=3 note=69 velocity=94 time=0.005040322916666667
EXTRACT: note_on channel=9 note=86 velocity=0 time=0.005040322916666667
EXTRACT: note_on channel=3 note=69 velocity=0 time=0.027721776041666667
EXTRACT: note_on channel=9 note=28 velocity=64 time=0.07308468229166667
EXTRACT: note_on channel=9 note=46 velocity=60 time=0
EXTRACT: note_on channel=9 note=61 velocity=72 time=0
EXTRACT: note_on channel=9 note=82 velocity=50 time=0
EXTRACT: note_on channel=9 note=82 velocity=0 time=0.010080645833333334
EXTRACT: note_on channel=9 note=61 velocity=0 time=0
EXTRACT: note_on channel=9 note=46 velocity=0 time=0
EXTRACT: note_on channel=9 note=28 velocity=0 time=0
EXTRACT: note_on channel=3 note=69 velocity=107 time=0.005040322916666667
EXTRACT: note_on channel=3 note=69 velocity=0 time=0.03276209895833333
EXTRACT: note_on channel=9 note=82 velocity=56 time=0.07308468229166667
EXTRACT: note_on channel=9 note=86 velocity=107 time=0.005040322916666667
EXTRACT: note_on channel=9 note=82 velocity=0 time=0.005040322916666667
EXTRACT: note_on channel=9 note=86 velocity=0 time=0.005040322916666667
EXTRACT: note_on channel=3 note=69 velocity=87 time=0.007560484375000001
EXTRACT: note_on channel=3 note=69 velocity=0 time=0.03276209895833333
EXTRACT: note_on channel=8 note=91 velocity=0 time=0.037802421875
EXTRACT: note_on channel=8 note=84 velocity=0 time=0.0025201614583333335
EXTRACT: note_on channel=9 note=61 velocity=80 time=0.025201614583333334
EXTRACT: note_on channel=9 note=82 velocity=66 time=0
EXTRACT: note_on channel=1 note=31 velocity=96 time=0.0025201614583333335
EXTRACT: note_on channel=2 note=43 velocity=102 time=0
EXTRACT: note_on channel=3 note=69 velocity=102 time=0
EXTRACT: note_on channel=9 note=40 velocity=120 time=0
EXTRACT: note_on channel=13 note=43 velocity=90 time=0
EXTRACT: note_on channel=1 note=28 velocity=0 time=0.005040322916666667
EXTRACT: note_on channel=13 note=40 velocity=0 time=0
EXTRACT: note_on channel=2 note=40 velocity=0 time=0
EXTRACT: note_on channel=9 note=61 velocity=0 time=0.0025201614583333335
EXTRACT: note_on channel=9 note=82 velocity=0 time=0
EXTRACT: note_on channel=9 note=40 velocity=0 time=0.0025201614583333335
EXTRACT: note_on channel=9 note=28 velocity=57 time=0.10836694270833334
EXTRACT: note_on channel=9 note=61 velocity=60 time=0
EXTRACT: note_on channel=9 note=82 velocity=70 time=0
EXTRACT: note_on channel=9 note=82 velocity=0 time=0.010080645833333334
EXTRACT: note_on channel=9 note=28 velocity=0 time=0
EXTRACT: note_on channel=9 note=61 velocity=0 time=0
EXTRACT: note_on channel=9 note=42 velocity=52 time=0.11088710416666667
EXTRACT: note_on channel=9 note=61 velocity=55 time=0
EXTRACT: note_on channel=9 note=82 velocity=41 time=0
EXTRACT: note_on channel=9 note=86 velocity=107 time=0.005040322916666667
EXTRACT: note_on channel=9 note=82 velocity=0 time=0.005040322916666667
EXTRACT: note_on channel=9 note=61 velocity=0 time=0
EXTRACT: note_on channel=9 note=42 velocity=0 time=0
EXTRACT: note_on channel=9 note=86 velocity=0 time=0.005040322916666667
EXTRACT: pitchwheel channel=3 pitch=-456 time=0.020161291666666668
EXTRACT: pitchwheel channel=3 pitch=-911 time=0.07056452083333334
EXTRACT: note_on channel=1 note=37 velocity=100 time=0.0025201614583333335
EXTRACT: note_on channel=2 note=49 velocity=106 time=0
EXTRACT: note_on channel=13 note=49 velocity=94 time=0
EXTRACT: note_on channel=8 note=84 velocity=93 time=0.007560484375000001
EXTRACT: note_on channel=8 note=91 velocity=89 time=0
EXTRACT: note_on channel=1 note=31 velocity=0 time=0.005040322916666667
EXTRACT: note_on channel=2 note=43 velocity=0 time=0
EXTRACT: note_on channel=13 note=43 velocity=0 time=0
EXTRACT: note_on channel=9 note=35 velocity=72 time=0
EXTRACT: note_on channel=9 note=61 velocity=68 time=0
EXTRACT: note_on channel=9 note=82 velocity=58 time=0
EXTRACT: note_on channel=9 note=86 velocity=76 time=0
EXTRACT: note_on channel=12 note=23 velocity=72 time=0
EXTRACT: note_on channel=9 note=86 velocity=0 time=0.010080645833333334
EXTRACT: note_on channel=9 note=82 velocity=0 time=0
EXTRACT: note_on channel=9 note=35 velocity=0 time=0
EXTRACT: note_on channel=9 note=61 velocity=0 time=0
EXTRACT: note_on channel=12 note=23 velocity=0 time=0.022681453125
EXTRACT: note_on channel=8 note=84 velocity=0 time=0.022681453125
EXTRACT: pitchwheel channel=3 pitch=-1366 time=0.0025201614583333335
EXTRACT: note_on channel=8 note=91 velocity=0 time=0.012600807291666667
EXTRACT: note_on channel=9 note=86 velocity=113 time=0.04536290625
EXTRACT: note_on channel=9 note=28 velocity=60 time=0.005040322916666667
EXTRACT: note_on channel=9 note=82 velocity=56 time=0
EXTRACT: note_on channel=9 note=87 velocity=98 time=0
EXTRACT: note_on channel=9 note=86 velocity=0 time=0.005040322916666667
EXTRACT: pitchwheel channel=3 pitch=-1897 time=0.0025201614583333335
EXTRACT: note_on channel=9 note=87 velocity=0 time=0.0025201614583333335
EXTRACT: note_on channel=9 note=28 velocity=0 time=0
EXTRACT: note_on channel=9 note=82 velocity=0 time=0
EXTRACT: pitchwheel channel=3 pitch=-2504 time=0.07056452083333334
EXTRACT: note_on channel=8 note=84 velocity=89 time=0.037802421875
EXTRACT: note_on channel=8 note=91 velocity=89 time=0
EXTRACT: note_on channel=9 note=35 velocity=102 time=0
EXTRACT: note_on channel=12 note=23 velocity=102 time=0
EXTRACT: note_on channel=9 note=61 velocity=60 time=0.0025201614583333335
EXTRACT: note_on channel=9 note=82 velocity=56 time=0
EXTRACT: note_on channel=9 note=86 velocity=107 time=0
EXTRACT: note_on channel=9 note=35 velocity=0 time=0.007560484375000001
EXTRACT: note_on channel=9 note=61 velocity=0 time=0.0025201614583333335
EXTRACT: note_on channel=9 note=86 velocity=0 time=0
EXTRACT: note_on channel=9 note=82 velocity=0 time=0
EXTRACT: pitchwheel channel=3 pitch=-3035 time=0.0025201614583333335
EXTRACT: note_on channel=12 note=23 velocity=0 time=0.017641130208333335
EXTRACT: note_on channel=8 note=84 velocity=0 time=0.022681453125
EXTRACT: note_on channel=8 note=91 velocity=0 time=0.015120968750000002
EXTRACT: pitchwheel channel=3 pitch=-3490 time=0.015120968750000002
EXTRACT: note_on channel=1 note=37 velocity=0 time=0.037802421875
EXTRACT: note_on channel=13 note=49 velocity=0 time=0
EXTRACT: note_on channel=2 note=49 velocity=0 time=0
EXTRACT: note_on channel=9 note=35 velocity=98 time=0
EXTRACT: note_on channel=9 note=46 velocity=60 time=0
EXTRACT: note_on channel=9 note=61 velocity=80 time=0
EXTRACT: note_on channel=9 note=82 velocity=51 time=0
EXTRACT: note_on channel=12 note=23 velocity=98 time=0
EXTRACT: note_on channel=1 note=36 velocity=107 time=0.0025201614583333335
EXTRACT: note_on channel=2 note=48 velocity=113 time=0
EXTRACT: note_on channel=13 note=48 velocity=101 time=0
EXTRACT: note_on channel=9 note=82 velocity=0 time=0.007560484375000001
EXTRACT: note_on channel=9 note=61 velocity=0 time=0
EXTRACT: note_on channel=9 note=46 velocity=0 time=0
EXTRACT: note_on channel=9 note=35 velocity=0 time=0
EXTRACT: pitchwheel channel=3 pitch=-3945 time=0.007560484375000001
EXTRACT: note_on channel=12 note=23 velocity=0 time=0.015120968750000002
EXTRACT: pitchwheel channel=3 pitch=-4476 time=0.037802421875
EXTRACT: note_on channel=8 note=91 velocity=89 time=0.04536290625
EXTRACT: note_on channel=8 note=84 velocity=93 time=0.0025201614583333335
EXTRACT: note_on channel=9 note=86 velocity=113 time=0
EXTRACT: note_on channel=9 note=28 velocity=60 time=0.0025201614583333335
EXTRACT: note_on channel=9 note=61 velocity=56 time=0
EXTRACT: note_on channel=9 note=82 velocity=49 time=0
EXTRACT: note_on channel=9 note=86 velocity=0 time=0.007560484375000001
EXTRACT: note_on channel=9 note=82 velocity=0 time=0.0025201614583333335
EXTRACT: note_on channel=9 note=28 velocity=0 time=0
EXTRACT: note_on channel=9 note=61 velocity=0 time=0
EXTRACT: pitchwheel channel=3 pitch=-5083 time=0.012600807291666667
EXTRACT: note_on channel=8 note=84 velocity=0 time=0.020161291666666668
EXTRACT: note_on channel=8 note=91 velocity=0 time=0.010080645833333334
EXTRACT: pitchwheel channel=3 pitch=-5538 time=0.022681453125
EXTRACT: note_on channel=8 note=91 velocity=89 time=0.04536290625
EXTRACT: note_on channel=9 note=40 velocity=120 time=0
EXTRACT: note_on channel=9 note=61 velocity=72 time=0
EXTRACT: note_on channel=9 note=82 velocity=53 time=0
EXTRACT: note_on channel=2 note=48 velocity=0 time=0.0025201614583333335
EXTRACT: note_on channel=13 note=48 velocity=0 time=0
EXTRACT: note_on channel=1 note=36 velocity=0 time=0
EXTRACT: note_on channel=8 note=84 velocity=93 time=0
EXTRACT: note_on channel=1 note=31 velocity=101 time=0.0025201614583333335
EXTRACT: note_on channel=2 note=43 velocity=107 time=0
EXTRACT: note_on channel=13 note=43 velocity=95 time=0
EXTRACT: note_on channel=9 note=40 velocity=0 time=0.005040322916666667
EXTRACT: note_on channel=9 note=82 velocity=0 time=0
EXTRACT: note_on channel=9 note=61 velocity=0 time=0
EXTRACT: pitchwheel channel=3 pitch=-6296 time=0.017641130208333335
EXTRACT: pitchwheel channel=3 pitch=-6979 time=0.03528226041666667
EXTRACT: pitchwheel channel=3 pitch=-8074 time=0.03276209895833333
EXTRACT: note_on channel=9 note=61 velocity=60 time=0.025201614583333334
EXTRACT: note_on channel=9 note=82 velocity=83 time=0
EXTRACT: note_on channel=9 note=82 velocity=0 time=0.010080645833333334
EXTRACT: note_on channel=9 note=61 velocity=0 time=0
EXTRACT: note_on channel=1 note=31 velocity=0 time=0.08316532812500001
EXTRACT: note_on channel=13 note=43 velocity=0 time=0
EXTRACT: note_on channel=2 note=43 velocity=0 time=0
EXTRACT: note_on channel=3 note=69 velocity=0 time=0.010080645833333334
EXTRACT: note_on channel=1 note=28 velocity=96 time=0.012600807291666667
EXTRACT: note_on channel=2 note=40 velocity=102 time=0
EXTRACT: note_on channel=13 note=40 velocity=90 time=0
EXTRACT: note_on channel=9 note=28 velocity=60 time=0.005040322916666667
EXTRACT: note_on channel=9 note=42 velocity=47 time=0
EXTRACT: note_on channel=9 note=61 velocity=60 time=0
EXTRACT: note_on channel=9 note=82 velocity=50 time=0
EXTRACT: note_on channel=9 note=86 velocity=107 time=0.0025201614583333335
EXTRACT: note_on channel=9 note=35 velocity=85 time=0.005040322916666667
EXTRACT: note_on channel=12 note=23 velocity=85 time=0
EXTRACT: note_on channel=9 note=82 velocity=0 time=0.0025201614583333335
EXTRACT: note_on channel=9 note=61 velocity=0 time=0
EXTRACT: note_on channel=9 note=42 velocity=0 time=0
EXTRACT: note_on channel=9 note=28 velocity=0 time=0
EXTRACT: note_on channel=9 note=86 velocity=0 time=0.0025201614583333335
EXTRACT: note_on channel=9 note=35 velocity=0 time=0.005040322916666667
EXTRACT: note_on channel=12 note=23 velocity=0 time=0.022681453125
EXTRACT: note_on channel=9 note=61 velocity=80 time=0.08064516666666667
EXTRACT: note_on channel=9 note=82 velocity=56 time=0
EXTRACT: note_on channel=9 note=86 velocity=85 time=0.0025201614583333335
EXTRACT: pitchwheel channel=3 pitch=0 time=0.0025201614583333335
EXTRACT: note_on channel=9 note=82 velocity=0 time=0.005040322916666667
EXTRACT: note_on channel=9 note=61 velocity=0 time=0
EXTRACT: note_on channel=9 note=86 velocity=0 time=0.0025201614583333335
EXTRACT: note_on channel=9 note=86 velocity=107 time=0.10080645833333333
EXTRACT: note_on channel=3 note=69 velocity=113 time=0.0025201614583333335
EXTRACT: note_on channel=1 note=28 velocity=0 time=0.0025201614583333335
EXTRACT: note_on channel=2 note=40 velocity=0 time=0
EXTRACT: note_on channel=13 note=40 velocity=0 time=0
EXTRACT: note_on channel=1 note=29 velocity=107 time=0.0025201614583333335
EXTRACT: note_on channel=2 note=41 velocity=113 time=0
EXTRACT: note_on channel=9 note=82 velocity=58 time=0
EXTRACT: note_on channel=9 note=87 velocity=98 time=0
EXTRACT: note_on channel=13 note=41 velocity=101 time=0
EXTRACT: note_on channel=9 note=86 velocity=0 time=0.0025201614583333335
EXTRACT: note_on channel=9 note=35 velocity=107 time=0.0025201614583333335
EXTRACT: note_on channel=12 note=23 velocity=107 time=0
EXTRACT: note_on channel=9 note=87 velocity=0 time=0.005040322916666667
EXTRACT: note_on channel=9 note=82 velocity=0 time=0
EXTRACT: note_on channel=9 note=35 velocity=0 time=0.005040322916666667
EXTRACT: note_on channel=3 note=69 velocity=0 time=0.012600807291666667
EXTRACT: note_on channel=12 note=23 velocity=0 time=0.010080645833333334
EXTRACT: note_on channel=3 note=69 velocity=107 time=0.07560484375
EXTRACT: note_on channel=9 note=86 velocity=113 time=0.005040322916666667
EXTRACT: note_on channel=9 note=61 velocity=59 time=0.0025201614583333335
EXTRACT: note_on channel=9 note=82 velocity=66 time=0
EXTRACT: note_on channel=9 note=86 velocity=0 time=0.007560484375000001
EXTRACT: note_on channel=9 note=82 velocity=0 time=0.0025201614583333335
EXTRACT: note_on channel=9 note=61 velocity=0 time=0
EXTRACT: note_on channel=3 note=69 velocity=0 time=0.015120968750000002
EXTRACT: note_on channel=3 note=69 velocity=76 time=0.08064516666666667
EXTRACT: note_on channel=9 note=28 velocity=62 time=0.015120968750000002
EXTRACT: note_on channel=9 note=46 velocity=60 time=0
EXTRACT: note_on channel=9 note=61 velocity=72 time=0
EXTRACT: note_on channel=9 note=82 velocity=50 time=0
EXTRACT: note_on channel=9 note=82 velocity=0 time=0.010080645833333334
EXTRACT: note_on channel=9 note=61 velocity=0 time=0
EXTRACT: note_on channel=9 note=28 velocity=0 time=0
EXTRACT: note_on channel=9 note=46 velocity=0 time=0
EXTRACT: note_on channel=3 note=69 velocity=0 time=0.007560484375000001
EXTRACT: note_on channel=3 note=69 velocity=102 time=0.08064516666666667
EXTRACT: note_on channel=9 note=82 velocity=66 time=0.022681453125
EXTRACT: note_on channel=9 note=82 velocity=0 time=0.010080645833333334
EXTRACT: note_on channel=3 note=69 velocity=0 time=0
EXTRACT: note_on channel=1 note=29 velocity=0 time=0.098286296875
EXTRACT: note_on channel=13 note=41 velocity=0 time=0
EXTRACT: note_on channel=2 note=41 velocity=0 time=0
EXTRACT: note_on channel=3 note=69 velocity=98 time=0.005040322916666667
EXTRACT: note_on channel=1 note=32 velocity=101 time=0.005040322916666667
EXTRACT: note_on channel=2 note=44 velocity=107 time=0
EXTRACT: note_on channel=13 note=44 velocity=95 time=0
EXTRACT: note_on channel=9 note=61 velocity=62 time=0.0025201614583333335
EXTRACT: note_on channel=9 note=82 velocity=56 time=0
EXTRACT: note_on channel=9 note=40 velocity=120 time=0.005040322916666667
EXTRACT: note_on channel=9 note=82 velocity=0 time=0.005040322916666667
EXTRACT: note_on channel=9 note=61 velocity=0 time=0
EXTRACT: note_on channel=9 note=40 velocity=0 time=0.005040322916666667
EXTRACT: note_on channel=8 note=91 velocity=0 time=0.05544355208333333
EXTRACT: note_on channel=8 note=84 velocity=0 time=0.005040322916666667
EXTRACT: note_on channel=9 note=28 velocity=56 time=0.04536290625
EXTRACT: note_on channel=9 note=61 velocity=62 time=0
EXTRACT: note_on channel=9 note=82 velocity=74 time=0
EXTRACT: note_on channel=9 note=82 velocity=0 time=0.010080645833333334
EXTRACT: note_on channel=9 note=28 velocity=0 time=0
EXTRACT: note_on channel=9 note=61 velocity=0 time=0
EXTRACT: pitchwheel channel=3 pitch=-380 time=0.09324597395833334
EXTRACT: note_on channel=9 note=86 velocity=113 time=0.007560484375000001
EXTRACT: note_on channel=9 note=86 velocity=0 time=0.010080645833333334
EXTRACT: note_on channel=9 note=42 velocity=50 time=0
EXTRACT: note_on channel=9 note=61 velocity=56 time=0
EXTRACT: note_on channel=9 note=82 velocity=56 time=0
EXTRACT: note_on channel=9 note=82 velocity=0 time=0.010080645833333334
EXTRACT: note_on channel=9 note=42 velocity=0 time=0
EXTRACT: note_on channel=9 note=61 velocity=0 time=0
EXTRACT: pitchwheel channel=3 pitch=-835 time=0.027721776041666667
EXTRACT: pitchwheel channel=3 pitch=-1290 time=0.07056452083333334
EXTRACT: note_on channel=9 note=86 velocity=98 time=0
EXTRACT: note_on channel=9 note=86 velocity=0 time=0.010080645833333334
EXTRACT: note_on channel=1 note=37 velocity=107 time=0.0025201614583333335
EXTRACT: note_on channel=2 note=49 velocity=113 time=0
EXTRACT: note_on channel=9 note=61 velocity=76 time=0
EXTRACT: note_on channel=9 note=82 velocity=45 time=0
EXTRACT: note_on channel=13 note=49 velocity=101 time=0
EXTRACT: note_on channel=2 note=44 velocity=0 time=0.005040322916666667
EXTRACT: note_on channel=1 note=32 velocity=0 time=0
EXTRACT: note_on channel=13 note=44 velocity=0 time=0
EXTRACT: note_on channel=8 note=84 velocity=98 time=0.0025201614583333335
EXTRACT: note_on channel=8 note=91 velocity=89 time=0
EXTRACT: note_on channel=9 note=35 velocity=98 time=0
EXTRACT: note_on channel=12 note=23 velocity=98 time=0
EXTRACT: note_on channel=9 note=82 velocity=0 time=0.0025201614583333335
EXTRACT: note_on channel=9 note=61 velocity=0 time=0
EXTRACT: note_on channel=9 note=35 velocity=0 time=0.007560484375000001
EXTRACT: note_on channel=12 note=23 velocity=0 time=0.022681453125
EXTRACT: pitchwheel channel=3 pitch=-1973 time=0.017641130208333335
EXTRACT: note_on channel=8 note=84 velocity=0 time=0.0025201614583333335
EXTRACT: note_on channel=8 note=91 velocity=0 time=0.015120968750000002
EXTRACT: note_on channel=9 note=86 velocity=102 time=0.03276209895833333
EXTRACT: note_on channel=9 note=86 velocity=0 time=0.010080645833333334
EXTRACT: note_on channel=9 note=28 velocity=56 time=0.0025201614583333335
EXTRACT: note_on channel=9 note=82 velocity=56 time=0
EXTRACT: note_on channel=9 note=87 velocity=93 time=0
EXTRACT: note_on channel=9 note=87 velocity=0 time=0.010080645833333334
EXTRACT: note_on channel=9 note=28 velocity=0 time=0
EXTRACT: note_on channel=9 note=82 velocity=0 time=0
EXTRACT: pitchwheel channel=3 pitch=-2504 time=0
EXTRACT: pitchwheel channel=3 pitch=-3035 time=0.08820565104166667
EXTRACT: note_on channel=9 note=86 velocity=98 time=0.015120968750000002
EXTRACT: note_on channel=9 note=61 velocity=60 time=0.007560484375000001
EXTRACT: note_on channel=9 note=82 velocity=56 time=0
EXTRACT: note_on channel=9 note=86 velocity=0 time=0.0025201614583333335
EXTRACT: note_on channel=8 note=84 velocity=89 time=0
EXTRACT: note_on channel=8 note=91 velocity=89 time=0
EXTRACT: note_on channel=9 note=35 velocity=85 time=0
EXTRACT: note_on channel=12 note=23 velocity=85 time=0
EXTRACT: note_on channel=9 note=61 velocity=0 time=0.007560484375000001
EXTRACT: note_on channel=9 note=82 velocity=0 time=0
EXTRACT: note_on channel=9 note=35 velocity=0 time=0.0025201614583333335
EXTRACT: note_on channel=12 note=23 velocity=0 time=0.022681453125
EXTRACT: note_on channel=8 note=84 velocity=0 time=0.020161291666666668
EXTRACT: pitchwheel channel=3 pitch=-3566 time=0.012600807291666667
EXTRACT: note_on channel=8 note=91 velocity=0 time=0.010080645833333334
EXTRACT: note_on channel=13 note=49 velocity=0 time=0.03276209895833333
EXTRACT: note_on channel=1 note=37 velocity=0 time=0
EXTRACT: note_on channel=2 note=49 velocity=0 time=0
EXTRACT: note_on channel=1 note=36 velocity=96 time=0.007560484375000001
EXTRACT: note_on channel=2 note=48 velocity=102 time=0
EXTRACT: note_on channel=13 note=48 velocity=90 time=0
EXTRACT: note_on channel=9 note=46 velocity=60 time=0.0025201614583333335
EXTRACT: note_on channel=9 note=61 velocity=56 time=0
EXTRACT: note_on channel=9 note=82 velocity=50 time=0
EXTRACT: note_on channel=9 note=35 velocity=93 time=0.0025201614583333335
EXTRACT: note_on channel=12 note=23 velocity=93 time=0
EXTRACT: note_on channel=9 note=82 velocity=0 time=0.007560484375000001
EXTRACT: note_on channel=9 note=61 velocity=0 time=0
EXTRACT: note_on channel=9 note=46 velocity=0 time=0
EXTRACT: note_on channel=9 note=35 velocity=0 time=0.0025201614583333335
EXTRACT: note_on channel=12 note=23 velocity=0 time=0.022681453125
EXTRACT: pitchwheel channel=3 pitch=-4021 time=0.0025201614583333335
EXTRACT: pitchwheel channel=3 pitch=-4476 time=0.07056452083333334
EXTRACT: note_on channel=8 note=91 velocity=89 time=0.007560484375000001
EXTRACT: note_on channel=8 note=84 velocity=93 time=0.0025201614583333335
EXTRACT: note_on channel=9 note=28 velocity=60 time=0.0025201614583333335
EXTRACT: note_on channel=9 note=82 velocity=62 time=0
EXTRACT: note_on channel=9 note=82 velocity=0 time=0.010080645833333334
EXTRACT: note_on channel=9 note=28 velocity=0 time=0
EXTRACT: pitchwheel channel=3 pitch=-4931 time=0.03276209895833333
EXTRACT: note_on channel=8 note=84 velocity=0 time=0.007560484375000001
EXTRACT: note_on channel=8 note=91 velocity=0 time=0.0025201614583333335
EXTRACT: pitchwheel channel=3 pitch=-5386 time=0.04284274479166667
EXTRACT: note_on channel=9 note=40 velocity=120 time=0.022681453125
EXTRACT: note_on channel=9 note=61 velocity=72 time=0.0025201614583333335
EXTRACT: note_on channel=9 note=82 velocity=50 time=0
EXTRACT: note_on channel=8 note=84 velocity=93 time=0.0025201614583333335
EXTRACT: note_on channel=8 note=91 velocity=89 time=0
EXTRACT: note_on channel=9 note=40 velocity=0 time=0.005040322916666667
EXTRACT: note_on channel=9 note=82 velocity=0 time=0.0025201614583333335
EXTRACT: note_on channel=9 note=61 velocity=0 time=0
EXTRACT: note_on channel=13 note=48 velocity=0 time=0.0025201614583333335
EXTRACT: note_on channel=2 note=48 velocity=0 time=0
EXTRACT: note_on channel=1 note=36 velocity=0 time=0
EXTRACT: note_on channel=1 note=32 velocity=101 time=0.007560484375000001
EXTRACT: note_on channel=2 note=44 velocity=107 time=0
EXTRACT: note_on channel=13 note=44 velocity=95 time=0
EXTRACT: pitchwheel channel=3 pitch=-5841 time=0.007560484375000001
EXTRACT: pitchwheel channel=3 pitch=-6448 time=0.03528226041666667
EXTRACT: pitchwheel channel=3 pitch=-8079 time=0.03528226041666667
EXTRACT: note_on channel=9 note=61 velocity=60 time=0.022681453125
EXTRACT: note_on channel=9 note=82 velocity=56 time=0
EXTRACT: note_on channel=9 note=82 velocity=0 time=0.010080645833333334
EXTRACT: note_on channel=9 note=61 velocity=0 time=0
EXTRACT: note_on channel=3 note=69 velocity=0 time=0.04284274479166667
EXTRACT: note_on channel=2 note=44 velocity=0 time=0.06552419791666667
EXTRACT: note_on channel=1 note=32 velocity=0 time=0
EXTRACT: note_on channel=13 note=44 velocity=0 time=0
EXTRACT: note_on channel=9 note=28 velocity=60 time=0.0025201614583333335
EXTRACT: note_on channel=9 note=42 velocity=55 time=0
EXTRACT: note_on channel=9 note=82 velocity=51 time=0
EXTRACT: note_on channel=9 note=35 velocity=93 time=0.0025201614583333335
EXTRACT: note_on channel=12 note=23 velocity=93 time=0
EXTRACT: note_on channel=1 note=24 velocity=91 time=0.0025201614583333335
EXTRACT: note_on channel=2 note=36 velocity=97 time=0
EXTRACT: note_on channel=9 note=86 velocity=107 time=0
EXTRACT: note_on channel=13 note=36 velocity=85 time=0
EXTRACT: note_on channel=9 note=82 velocity=0 time=0.005040322916666667
EXTRACT: note_on channel=9 note=42 velocity=0 time=0
EXTRACT: note_on channel=9 note=28 velocity=0 time=0
EXTRACT: note_on channel=9 note=35 velocity=0 time=0.0025201614583333335
EXTRACT: note_on channel=9 note=86 velocity=0 time=0.0025201614583333335
EXTRACT: note_on channel=12 note=23 velocity=0 time=0.020161291666666668
EXTRACT: pitchwheel channel=3 pitch=0 time=0.020161291666666668
EXTRACT: note_on channel=9 note=61 velocity=68 time=0.06552419791666667
EXTRACT: note_on channel=9 note=82 velocity=62 time=0
EXTRACT: note_on channel=9 note=86 velocity=76 time=0
EXTRACT: note_on channel=9 note=86 velocity=0 time=0.010080645833333334
EXTRACT: note_on channel=9 note=82 velocity=0 time=0
EXTRACT: note_on channel=9 note=61 velocity=0 time=0
EXTRACT: note_on channel=8 note=84 velocity=0 time=0.07812500520833333
EXTRACT: note_on channel=8 note=91 velocity=0 time=0
EXTRACT: note_on channel=9 note=35 velocity=118 time=0.030241937500000003
EXTRACT: note_on channel=9 note=86 velocity=113 time=0
EXTRACT: note_on channel=12 note=23 velocity=113 time=0
EXTRACT: note_on channel=9 note=82 velocity=58 time=0.0025201614583333335
EXTRACT: note_on channel=9 note=86 velocity=0 time=0.007560484375000001
EXTRACT: note_on channel=9 note=35 velocity=0 time=0
EXTRACT: note_on channel=8 note=40 velocity=63 time=0
EXTRACT: note_on channel=9 note=82 velocity=0 time=0.0025201614583333335
EXTRACT: note_on channel=13 note=36 velocity=0 time=0.012600807291666667
EXTRACT: note_on channel=2 note=36 velocity=0 time=0
EXTRACT: note_on channel=1 note=24 velocity=0 time=0
EXTRACT: note_on channel=12 note=23 velocity=0 time=0.007560484375000001
EXTRACT: note_on channel=8 note=41 velocity=67 time=0.012600807291666667
EXTRACT: note_on channel=8 note=40 velocity=0 time=0.025201614583333334
EXTRACT: note_on channel=8 note=43 velocity=65 time=0.03276209895833333
EXTRACT: note_on channel=8 note=41 velocity=0 time=0.020161291666666668
EXTRACT: note_on channel=8 note=45 velocity=63 time=0.040322583333333335
EXTRACT: note_on channel=8 note=43 velocity=0 time=0.020161291666666668
EXTRACT: note_on channel=8 note=47 velocity=61 time=0.05040322916666667
EXTRACT: note_on channel=8 note=45 velocity=0 time=0.017641130208333335
EXTRACT: note_on channel=8 note=48 velocity=59 time=0.05796371354166667
EXTRACT: note_on channel=8 note=47 velocity=0 time=0.005040322916666667
EXTRACT: note_on channel=8 note=50 velocity=57 time=0.060483875000000006
EXTRACT: note_on channel=8 note=48 velocity=0 time=0.007560484375000001
EXTRACT: note_on channel=8 note=50 velocity=0 time=0.05544355208333333
EXTRACT: note_on channel=8 note=52 velocity=55 time=0
EXTRACT: note_on channel=8 note=52 velocity=0 time=0.06552419791666667
EXTRACT: note_on channel=8 note=36 velocity=56 time=0.015120968750000002
EXTRACT: note_on channel=8 note=38 velocity=57 time=0.03528226041666667
EXTRACT: note_on channel=8 note=36 velocity=0 time=0.022681453125
EXTRACT: note_on channel=8 note=40 velocity=59 time=0.025201614583333334
EXTRACT: note_on channel=8 note=38 velocity=0 time=0.020161291666666668
EXTRACT: note_on channel=8 note=41 velocity=60 time=0.017641130208333335
EXTRACT: note_on channel=8 note=40 velocity=0 time=0.025201614583333334
EXTRACT: note_on channel=8 note=43 velocity=62 time=0.017641130208333335
EXTRACT: note_on channel=8 note=41 velocity=0 time=0.020161291666666668
EXTRACT: note_on channel=8 note=45 velocity=63 time=0.020161291666666668
EXTRACT: note_on channel=8 note=43 velocity=0 time=0.020161291666666668
EXTRACT: note_on channel=8 note=47 velocity=65 time=0.020161291666666668
EXTRACT: note_on channel=8 note=45 velocity=0 time=0.017641130208333335
EXTRACT: note_on channel=8 note=48 velocity=66 time=0.017641130208333335
EXTRACT: note_on channel=8 note=47 velocity=0 time=0.020161291666666668
EXTRACT: note_on channel=8 note=50 velocity=67 time=0.020161291666666668
EXTRACT: note_on channel=8 note=48 velocity=0 time=0.022681453125
EXTRACT: note_on channel=8 note=52 velocity=69 time=0.020161291666666668
EXTRACT: note_on channel=8 note=50 velocity=0 time=0.020161291666666668
EXTRACT: note_on channel=8 note=53 velocity=71 time=0.030241937500000003
EXTRACT: note_on channel=8 note=52 velocity=0 time=0.017641130208333335
EXTRACT: note_on channel=8 note=55 velocity=72 time=0.020161291666666668
EXTRACT: note_on channel=8 note=53 velocity=0 time=0.025201614583333334
EXTRACT: note_on channel=8 note=57 velocity=74 time=0.015120968750000002
EXTRACT: note_on channel=8 note=55 velocity=0 time=0.022681453125
EXTRACT: note_on channel=8 note=59 velocity=75 time=0.017641130208333335
EXTRACT: note_on channel=8 note=57 velocity=0 time=0.020161291666666668
EXTRACT: note_on channel=8 note=60 velocity=77 time=0.017641130208333335
EXTRACT: note_on channel=8 note=59 velocity=0 time=0.020161291666666668
EXTRACT: note_on channel=8 note=62 velocity=78 time=0.022681453125
EXTRACT: note_on channel=8 note=60 velocity=0 time=0.017641130208333335
EXTRACT: note_on channel=8 note=64 velocity=80 time=0.020161291666666668
EXTRACT: note_on channel=8 note=62 velocity=0 time=0.020161291666666668
EXTRACT: note_on channel=8 note=65 velocity=81 time=0.015120968750000002
EXTRACT: note_on channel=8 note=64 velocity=0 time=0.022681453125
EXTRACT: note_on channel=8 note=67 velocity=81 time=0.017641130208333335
EXTRACT: note_on channel=8 note=65 velocity=0 time=0.020161291666666668
EXTRACT: note_on channel=8 note=69 velocity=79 time=0.030241937500000003
EXTRACT: note_on channel=8 note=67 velocity=0 time=0.017641130208333335
EXTRACT: note_on channel=8 note=71 velocity=77 time=0.022681453125
EXTRACT: note_on channel=8 note=69 velocity=0 time=0.017641130208333335
EXTRACT: note_on channel=8 note=72 velocity=76 time=0.025201614583333334
EXTRACT: note_on channel=8 note=71 velocity=0 time=0.020161291666666668
EXTRACT: note_on channel=8 note=74 velocity=74 time=0.017641130208333335
EXTRACT: note_on channel=8 note=72 velocity=0 time=0.020161291666666668
EXTRACT: note_on channel=8 note=76 velocity=73 time=0.017641130208333335
EXTRACT: note_on channel=8 note=74 velocity=0 time=0.020161291666666668
EXTRACT: note_on channel=8 note=77 velocity=71 time=0.015120968750000002
EXTRACT: note_on channel=8 note=76 velocity=0 time=0.017641130208333335
EXTRACT: note_on channel=8 note=79 velocity=70 time=0.015120968750000002
EXTRACT: note_on channel=8 note=77 velocity=0 time=0.017641130208333335
EXTRACT: note_on channel=8 note=81 velocity=68 time=0.022681453125
EXTRACT: note_on channel=8 note=79 velocity=0 time=0.015120968750000002
EXTRACT: note_on channel=8 note=83 velocity=67 time=0.022681453125
EXTRACT: note_on channel=8 note=81 velocity=0 time=0.020161291666666668
EXTRACT: note_on channel=8 note=84 velocity=64 time=0.015120968750000002
EXTRACT: note_on channel=8 note=83 velocity=0 time=0.020161291666666668
EXTRACT: note_on channel=8 note=86 velocity=69 time=0.027721776041666667
EXTRACT: note_on channel=8 note=84 velocity=0 time=0.017641130208333335
EXTRACT: note_on channel=8 note=88 velocity=72 time=0.015120968750000002
EXTRACT: note_on channel=8 note=86 velocity=0 time=0.022681453125
EXTRACT: note_on channel=8 note=89 velocity=76 time=0.022681453125
EXTRACT: note_on channel=8 note=88 velocity=0 time=0.017641130208333335
EXTRACT: note_on channel=8 note=91 velocity=80 time=0.025201614583333334
EXTRACT: note_on channel=8 note=89 velocity=0 time=0.020161291666666668
EXTRACT: note_on channel=8 note=93 velocity=83 time=0.017641130208333335
EXTRACT: note_on channel=8 note=91 velocity=0 time=0.017641130208333335
EXTRACT: note_on channel=8 note=93 velocity=0 time=0.015120968750000002
EXTRACT: note_on channel=8 note=95 velocity=87 time=0.010080645833333334
EXTRACT: note_on channel=8 note=95 velocity=0 time=0.015120968750000002
EXTRACT: note_on channel=4 note=65 velocity=107 time=0.037802421875
EXTRACT: note_on channel=4 note=72 velocity=127 time=0
EXTRACT: note_on channel=5 note=56 velocity=107 time=0
EXTRACT: note_on channel=6 note=60 velocity=119 time=0
EXTRACT: note_on channel=7 note=65 velocity=93 time=0
EXTRACT: note_on channel=7 note=68 velocity=107 time=0
EXTRACT: note_on channel=7 note=72 velocity=93 time=0
EXTRACT: note_on channel=9 note=49 velocity=70 time=0
EXTRACT: note_on channel=9 note=64 velocity=89 time=0
EXTRACT: note_on channel=9 note=82 velocity=79 time=0
EXTRACT: note_on channel=9 note=86 velocity=113 time=0
EXTRACT: note_on channel=10 note=60 velocity=100 time=0
EXTRACT: note_on channel=15 note=56 velocity=1 time=0
EXTRACT: note_on channel=15 note=60 velocity=1 time=0
EXTRACT: note_on channel=15 note=65 velocity=1 time=0
EXTRACT: note_on channel=15 note=72 velocity=1 time=0
EXTRACT: note_on channel=1 note=32 velocity=106 time=0.0025201614583333335
EXTRACT: note_on channel=9 note=35 velocity=113 time=0.0025201614583333335
EXTRACT: note_on channel=12 note=23 velocity=113 time=0
EXTRACT: note_on channel=2 note=44 velocity=117 time=0.0025201614583333335
EXTRACT: note_on channel=13 note=44 velocity=97 time=0
EXTRACT: note_on channel=9 note=86 velocity=0 time=0.0025201614583333335
EXTRACT: note_on channel=9 note=82 velocity=0 time=0
EXTRACT: note_on channel=9 note=64 velocity=0 time=0
EXTRACT: note_on channel=9 note=49 velocity=0 time=0
EXTRACT: note_on channel=9 note=35 velocity=0 time=0.005040322916666667
EXTRACT: note_on channel=6 note=60 velocity=0 time=0.022681453125
EXTRACT: note_on channel=15 note=72 velocity=0 time=0
EXTRACT: note_on channel=15 note=56 velocity=0 time=0
EXTRACT: note_on channel=7 note=65 velocity=0 time=0
EXTRACT: note_on channel=4 note=72 velocity=0 time=0
EXTRACT: note_on channel=7 note=72 velocity=0 time=0
EXTRACT: note_on channel=4 note=65 velocity=0 time=0
EXTRACT: note_on channel=12 note=23 velocity=0 time=0
EXTRACT: note_on channel=5 note=56 velocity=0 time=0
EXTRACT: note_on channel=15 note=65 velocity=0 time=0
EXTRACT: note_on channel=15 note=60 velocity=0 time=0
EXTRACT: note_on channel=7 note=68 velocity=0 time=0
EXTRACT: note_on channel=5 note=56 velocity=102 time=0.08064516666666667
EXTRACT: note_on channel=6 note=60 velocity=113 time=0
EXTRACT: note_on channel=9 note=86 velocity=99 time=0
EXTRACT: note_on channel=15 note=56 velocity=1 time=0
EXTRACT: note_on channel=15 note=60 velocity=1 time=0
EXTRACT: note_on channel=4 note=65 velocity=93 time=0.0025201614583333335
EXTRACT: note_on channel=4 note=72 velocity=113 time=0
EXTRACT: note_on channel=7 note=65 velocity=98 time=0
EXTRACT: note_on channel=7 note=68 velocity=107 time=0
EXTRACT: note_on channel=7 note=72 velocity=107 time=0
EXTRACT: note_on channel=9 note=82 velocity=67 time=0
EXTRACT: note_on channel=15 note=65 velocity=1 time=0
EXTRACT: note_on channel=15 note=72 velocity=1 time=0
EXTRACT: note_on channel=9 note=86 velocity=0 time=0.007560484375000001
EXTRACT: note_on channel=9 note=82 velocity=0 time=0.0025201614583333335
EXTRACT: note_on channel=15 note=60 velocity=0 time=0.025201614583333334
EXTRACT: note_on channel=15 note=56 velocity=0 time=0
EXTRACT: note_on channel=6 note=60 velocity=0 time=0
EXTRACT: note_on channel=5 note=56 velocity=0 time=0
EXTRACT: note_on channel=15 note=65 velocity=0 time=0.0025201614583333335
EXTRACT: note_on channel=4 note=65 velocity=0 time=0
EXTRACT: note_on channel=15 note=72 velocity=0 time=0
EXTRACT: note_on channel=4 note=72 velocity=0 time=0
EXTRACT: note_on channel=7 note=65 velocity=0 time=0
EXTRACT: note_on channel=7 note=72 velocity=0 time=0
EXTRACT: note_on channel=7 note=68 velocity=0 time=0
EXTRACT: note_on channel=5 note=56 velocity=72 time=0.08064516666666667
EXTRACT: note_on channel=6 note=60 velocity=107 time=0
EXTRACT: note_on channel=15 note=56 velocity=1 time=0
EXTRACT: note_on channel=15 note=60 velocity=1 time=0
EXTRACT: note_on channel=4 note=65 velocity=107 time=0.0025201614583333335
EXTRACT: note_on channel=4 note=72 velocity=102 time=0
EXTRACT: note_on channel=7 note=65 velocity=85 time=0
EXTRACT: note_on channel=7 note=68 velocity=107 time=0
EXTRACT: note_on channel=7 note=72 velocity=93 time=0
EXTRACT: note_on channel=9 note=46 velocity=60 time=0
EXTRACT: note_on channel=9 note=63 velocity=89 time=0
EXTRACT: note_on channel=9 note=82 velocity=54 time=0
EXTRACT: note_on channel=15 note=65 velocity=1 time=0
EXTRACT: note_on channel=15 note=72 velocity=1 time=0
EXTRACT: note_on channel=9 note=82 velocity=0 time=0.010080645833333334
EXTRACT: note_on channel=9 note=63 velocity=0 time=0
EXTRACT: note_on channel=9 note=46 velocity=0 time=0
EXTRACT: note_on channel=15 note=56 velocity=0 time=0.025201614583333334
EXTRACT: note_on channel=6 note=60 velocity=0 time=0
EXTRACT: note_on channel=15 note=60 velocity=0 time=0
EXTRACT: note_on channel=5 note=56 velocity=0 time=0
EXTRACT: note_on channel=15 note=65 velocity=0 time=0.0025201614583333335
EXTRACT: note_on channel=4 note=72 velocity=0 time=0
EXTRACT: note_on channel=4 note=65 velocity=0 time=0
EXTRACT: note_on channel=15 note=72 velocity=0 time=0
EXTRACT: note_on channel=7 note=65 velocity=0 time=0
EXTRACT: note_on channel=7 note=68 velocity=0 time=0
EXTRACT: note_on channel=7 note=72 velocity=0 time=0
EXTRACT: note_on channel=1 note=32 velocity=0 time=0.05796371354166667
EXTRACT: note_on channel=2 note=44 velocity=0 time=0.005040322916666667
EXTRACT: note_on channel=13 note=44 velocity=0 time=0
EXTRACT: note_on channel=9 note=86 velocity=119 time=0.007560484375000001
EXTRACT: note_on channel=9 note=76 velocity=80 time=0.007560484375000001
EXTRACT: note_on channel=9 note=86 velocity=0 time=0.0025201614583333335
EXTRACT: note_on channel=1 note=29 velocity=107 time=0
EXTRACT: note_on channel=2 note=41 velocity=113 time=0
EXTRACT: note_on channel=5 note=56 velocity=107 time=0
EXTRACT: note_on channel=6 note=60 velocity=113 time=0
EXTRACT: note_on channel=13 note=41 velocity=95 time=0
EXTRACT: note_on channel=15 note=56 velocity=1 time=0
EXTRACT: note_on channel=15 note=60 velocity=1 time=0
EXTRACT: note_on channel=4 note=65 velocity=93 time=0.0025201614583333335
EXTRACT: note_on channel=4 note=72 velocity=102 time=0
EXTRACT: note_on channel=7 note=65 velocity=72 time=0
EXTRACT: note_on channel=7 note=68 velocity=102 time=0
EXTRACT: note_on channel=7 note=72 velocity=93 time=0
EXTRACT: note_on channel=9 note=82 velocity=42 time=0
EXTRACT: note_on channel=15 note=65 velocity=1 time=0
EXTRACT: note_on channel=15 note=72 velocity=1 time=0
EXTRACT: note_on channel=9 note=76 velocity=0 time=0.005040322916666667
EXTRACT: note_on channel=9 note=82 velocity=0 time=0.005040322916666667
EXTRACT: note_on channel=15 note=60 velocity=0 time=0.025201614583333334
EXTRACT: note_on channel=15 note=56 velocity=0 time=0
EXTRACT: note_on channel=5 note=56 velocity=0 time=0
EXTRACT: note_on channel=6 note=60 velocity=0 time=0
EXTRACT: note_on channel=7 note=72 velocity=0 time=0.0025201614583333335
EXTRACT: note_on channel=4 note=65 velocity=0 time=0
EXTRACT: note_on channel=15 note=72 velocity=0 time=0
EXTRACT: note_on channel=4 note=72 velocity=0 time=0
EXTRACT: note_on channel=7 note=65 velocity=0 time=0
EXTRACT: note_on channel=15 note=65 velocity=0 time=0
EXTRACT: note_on channel=7 note=68 velocity=0 time=0
EXTRACT: note_on channel=5 note=56 velocity=93 time=0.08064516666666667
EXTRACT: note_on channel=6 note=60 velocity=113 time=0
EXTRACT: note_on channel=15 note=56 velocity=1 time=0
EXTRACT: note_on channel=15 note=60 velocity=1 time=0
EXTRACT: note_on channel=4 note=65 velocity=119 time=0.0025201614583333335
EXTRACT: note_on channel=4 note=72 velocity=127 time=0
EXTRACT: note_on channel=7 note=65 velocity=79 time=0
EXTRACT: note_on channel=7 note=68 velocity=76 time=0
EXTRACT: note_on channel=7 note=72 velocity=84 time=0
EXTRACT: note_on channel=9 note=59 velocity=70 time=0
EXTRACT: note_on channel=9 note=62 velocity=113 time=0
EXTRACT: note_on channel=9 note=82 velocity=79 time=0
EXTRACT: note_on channel=15 note=65 velocity=1 time=0
EXTRACT: note_on channel=15 note=72 velocity=1 time=0
EXTRACT: note_on channel=9 note=40 velocity=120 time=0.007560484375000001
EXTRACT: note_on channel=9 note=82 velocity=0 time=0.0025201614583333335
EXTRACT: note_on channel=9 note=62 velocity=0 time=0
EXTRACT: note_on channel=9 note=59 velocity=0 time=0
EXTRACT: note_on channel=9 note=40 velocity=0 time=0.007560484375000001
EXTRACT: note_on channel=9 note=82 velocity=68 time=0.10332661979166667
EXTRACT: note_on channel=9 note=82 velocity=0 time=0.010080645833333334
EXTRACT: note_on channel=13 note=41 velocity=0 time=0.07812500520833333
EXTRACT: note_on channel=1 note=29 velocity=0 time=0
EXTRACT: note_on channel=2 note=41 velocity=0 time=0
EXTRACT: note_on channel=15 note=72 velocity=0 time=0.022681453125
EXTRACT: note_on channel=4 note=72 velocity=0 time=0
EXTRACT: note_on channel=1 note=24 velocity=107 time=0
EXTRACT: note_on channel=2 note=36 velocity=113 time=0
EXTRACT: note_on channel=13 note=36 velocity=95 time=0
EXTRACT: note_on channel=15 note=65 velocity=0 time=0.005040322916666667
EXTRACT: note_on channel=4 note=65 velocity=0 time=0
EXTRACT: note_on channel=3 note=72 velocity=101 time=0.005040322916666667
EXTRACT: note_on channel=9 note=46 velocity=56 time=0
EXTRACT: note_on channel=9 note=61 velocity=93 time=0
EXTRACT: note_on channel=9 note=82 velocity=54 time=0
EXTRACT: note_on channel=9 note=76 velocity=80 time=0.0025201614583333335
EXTRACT: note_on channel=9 note=35 velocity=89 time=0.005040322916666667
EXTRACT: note_on channel=12 note=23 velocity=89 time=0
EXTRACT: note_on channel=9 note=82 velocity=0 time=0.0025201614583333335
EXTRACT: note_on channel=9 note=61 velocity=0 time=0
EXTRACT: note_on channel=9 note=46 velocity=0 time=0
EXTRACT: note_on channel=9 note=86 velocity=108 time=0
EXTRACT: note_on channel=9 note=76 velocity=0 time=0.0025201614583333335
EXTRACT: note_on channel=9 note=35 velocity=0 time=0.005040322916666667
EXTRACT: note_on channel=9 note=86 velocity=0 time=0.0025201614583333335
EXTRACT: note_on channel=6 note=60 velocity=0 time=0.015120968750000002
EXTRACT: note_on channel=15 note=60 velocity=0 time=0
EXTRACT: note_on channel=12 note=23 velocity=0 time=0.005040322916666667
EXTRACT: note_on channel=3 note=72 velocity=0 time=0.0025201614583333335
EXTRACT: note_on channel=5 note=56 velocity=0 time=0.017641130208333335
EXTRACT: note_on channel=15 note=56 velocity=0 time=0
EXTRACT: note_on channel=7 note=68 velocity=0 time=0.010080645833333334
EXTRACT: note_on channel=7 note=72 velocity=0 time=0.015120968750000002
EXTRACT: note_on channel=7 note=65 velocity=0 time=0
EXTRACT: note_on channel=3 note=72 velocity=80 time=0.03528226041666667
EXTRACT: note_on channel=9 note=61 velocity=93 time=0
EXTRACT: note_on channel=9 note=82 velocity=45 time=0
EXTRACT: note_on channel=9 note=35 velocity=85 time=0.005040322916666667
EXTRACT: note_on channel=9 note=86 velocity=99 time=0
EXTRACT: note_on channel=12 note=23 velocity=85 time=0
EXTRACT: note_on channel=9 note=82 velocity=0 time=0.005040322916666667
EXTRACT: note_on channel=9 note=61 velocity=0 time=0
EXTRACT: note_on channel=9 note=86 velocity=0 time=0.005040322916666667
EXTRACT: note_on channel=9 note=35 velocity=0 time=0
EXTRACT: note_on channel=12 note=23 velocity=0 time=0.022681453125
EXTRACT: note_on channel=3 note=72 velocity=0 time=0.017641130208333335
EXTRACT: note_on channel=3 note=72 velocity=106 time=0.06552419791666667
EXTRACT: note_on channel=9 note=59 velocity=70 time=0
EXTRACT: note_on channel=9 note=82 velocity=78 time=0
EXTRACT: note_on channel=9 note=86 velocity=113 time=0.0025201614583333335
EXTRACT: note_on channel=9 note=82 velocity=0 time=0.007560484375000001
EXTRACT: note_on channel=9 note=59 velocity=0 time=0
EXTRACT: note_on channel=9 note=86 velocity=0 time=0.0025201614583333335
EXTRACT: note_on channel=3 note=72 velocity=0 time=0.03276209895833333
EXTRACT: note_on channel=10 note=60 velocity=0 time=0.037802421875
EXTRACT: note_on channel=3 note=72 velocity=106 time=0.037802421875
EXTRACT: note_on channel=9 note=61 velocity=93 time=0
EXTRACT: note_on channel=9 note=82 velocity=68 time=0
EXTRACT: note_on channel=9 note=35 velocity=85 time=0.005040322916666667
EXTRACT: note_on channel=9 note=86 velocity=108 time=0
EXTRACT: note_on channel=12 note=23 velocity=85 time=0
EXTRACT: note_on channel=9 note=82 velocity=0 time=0.005040322916666667
EXTRACT: note_on channel=9 note=61 velocity=0 time=0
EXTRACT: note_on channel=9 note=86 velocity=0 time=0.005040322916666667
EXTRACT: note_on channel=9 note=35 velocity=0 time=0
EXTRACT: note_on channel=12 note=23 velocity=0 time=0.022681453125
EXTRACT: note_on channel=3 note=72 velocity=0 time=0.010080645833333334
EXTRACT: note_on channel=1 note=32 velocity=107 time=0.06552419791666667
EXTRACT: note_on channel=2 note=44 velocity=113 time=0
EXTRACT: note_on channel=13 note=44 velocity=95 time=0
EXTRACT: note_on channel=10 note=60 velocity=102 time=0.0025201614583333335
EXTRACT: note_on channel=3 note=72 velocity=105 time=0.005040322916666667
EXTRACT: note_on channel=9 note=46 velocity=60 time=0
EXTRACT: note_on channel=9 note=82 velocity=58 time=0
EXTRACT: note_on channel=9 note=35 velocity=85 time=0.005040322916666667
EXTRACT: note_on channel=12 note=23 velocity=85 time=0
EXTRACT: note_on channel=9 note=82 velocity=0 time=0.005040322916666667
EXTRACT: note_on channel=9 note=46 velocity=0 time=0
EXTRACT: note_on channel=1 note=24 velocity=0 time=0.0025201614583333335
EXTRACT: note_on channel=2 note=36 velocity=0 time=0
EXTRACT: note_on channel=13 note=36 velocity=0 time=0
EXTRACT: note_on channel=9 note=35 velocity=0 time=0.0025201614583333335
EXTRACT: note_on channel=12 note=23 velocity=0 time=0.022681453125
EXTRACT: note_on channel=3 note=72 velocity=0 time=0.03528226041666667
EXTRACT: note_on channel=9 note=86 velocity=113 time=0.040322583333333335
EXTRACT: note_on channel=9 note=76 velocity=80 time=0.005040322916666667
EXTRACT: note_on channel=3 note=73 velocity=88 time=0.0025201614583333335
EXTRACT: note_on channel=9 note=61 velocity=93 time=0
EXTRACT: note_on channel=9 note=82 velocity=42 time=0
EXTRACT: note_on channel=9 note=86 velocity=0 time=0.0025201614583333335
EXTRACT: note_on channel=9 note=76 velocity=0 time=0.005040322916666667
EXTRACT: note_on channel=9 note=82 velocity=0 time=0.0025201614583333335
EXTRACT: note_on channel=9 note=61 velocity=0 time=0
EXTRACT: note_on channel=9 note=40 velocity=120 time=0.11088710416666667
EXTRACT: note_on channel=9 note=59 velocity=70 time=0
EXTRACT: note_on channel=9 note=62 velocity=107 time=0
EXTRACT: note_on channel=9 note=82 velocity=78 time=0
EXTRACT: note_on channel=10 note=61 velocity=98 time=0
EXTRACT: note_on channel=1 note=29 velocity=113 time=0.0025201614583333335
EXTRACT: note_on channel=2 note=41 velocity=119 time=0
EXTRACT: note_on channel=13 note=41 velocity=101 time=0
EXTRACT: note_on channel=13 note=44 velocity=0 time=0.0025201614583333335
EXTRACT: note_on channel=1 note=32 velocity=0 time=0
EXTRACT: note_on channel=2 note=44 velocity=0 time=0
EXTRACT: note_on channel=9 note=82 velocity=0 time=0.005040322916666667
EXTRACT: note_on channel=9 note=62 velocity=0 time=0
EXTRACT: note_on channel=9 note=40 velocity=0 time=0
EXTRACT: note_on channel=9 note=59 velocity=0 time=0
EXTRACT: note_on channel=10 note=60 velocity=0 time=0.0025201614583333335
EXTRACT: note_on channel=3 note=73 velocity=0 time=0.012600807291666667
EXTRACT: note_on channel=3 note=72 velocity=101 time=0.09576613541666668
EXTRACT: note_on channel=9 note=82 velocity=64 time=0
EXTRACT: note_on channel=9 note=82 velocity=0 time=0.010080645833333334
EXTRACT: note_on channel=2 note=41 velocity=0 time=0.10080645833333333
EXTRACT: note_on channel=1 note=29 velocity=0 time=0
EXTRACT: note_on channel=13 note=41 velocity=0 time=0
EXTRACT: note_on channel=10 note=61 velocity=0 time=0.0025201614583333335
EXTRACT: note_on channel=1 note=24 velocity=107 time=0.005040322916666667
EXTRACT: note_on channel=2 note=36 velocity=113 time=0
EXTRACT: note_on channel=10 note=60 velocity=98 time=0
EXTRACT: note_on channel=13 note=36 velocity=95 time=0
EXTRACT: note_on channel=9 note=46 velocity=56 time=0.0025201614583333335
EXTRACT: note_on channel=9 note=63 velocity=89 time=0
EXTRACT: note_on channel=9 note=82 velocity=51 time=0
EXTRACT: note_on channel=9 note=35 velocity=89 time=0.005040322916666667
EXTRACT: note_on channel=12 note=23 velocity=89 time=0
EXTRACT: note_on channel=9 note=76 velocity=80 time=0.0025201614583333335
EXTRACT: note_on channel=9 note=82 velocity=0 time=0.0025201614583333335
EXTRACT: note_on channel=9 note=63 velocity=0 time=0
EXTRACT: note_on channel=9 note=46 velocity=0 time=0
EXTRACT: note_on channel=9 note=86 velocity=108 time=0.0025201614583333335
EXTRACT: note_on channel=9 note=35 velocity=0 time=0.0025201614583333335
EXTRACT: note_on channel=9 note=76 velocity=0 time=0.0025201614583333335
EXTRACT: note_on channel=9 note=86 velocity=0 time=0.005040322916666667
EXTRACT: note_on channel=12 note=23 velocity=0 time=0.015120968750000002
EXTRACT: note_on channel=9 note=82 velocity=43 time=0.08316532812500001
EXTRACT: note_on channel=9 note=82 velocity=0 time=0.010080645833333334
EXTRACT: note_on channel=3 note=72 velocity=0 time=0
EXTRACT: note_on channel=9 note=86 velocity=95 time=0.005040322916666667
EXTRACT: note_on channel=9 note=86 velocity=0 time=0.010080645833333334
EXTRACT: note_on channel=5 note=55 velocity=107 time=0.09324597395833334
EXTRACT: note_on channel=6 note=60 velocity=119 time=0
EXTRACT: note_on channel=10 note=58 velocity=89 time=0
EXTRACT: note_on channel=15 note=55 velocity=1 time=0
EXTRACT: note_on channel=15 note=60 velocity=1 time=0
EXTRACT: note_on channel=1 note=24 velocity=0 time=0.0025201614583333335
EXTRACT: note_on channel=13 note=36 velocity=0 time=0
EXTRACT: note_on channel=2 note=36 velocity=0 time=0
EXTRACT: note_on channel=4 note=64 velocity=127 time=0
EXTRACT: note_on channel=4 note=70 velocity=107 time=0
EXTRACT: note_on channel=7 note=64 velocity=98 time=0
EXTRACT: note_on channel=7 note=67 velocity=102 time=0
EXTRACT: note_on channel=7 note=70 velocity=102 time=0
EXTRACT: note_on channel=9 note=59 velocity=70 time=0
EXTRACT: note_on channel=9 note=64 velocity=102 time=0
EXTRACT: note_on channel=9 note=82 velocity=79 time=0
EXTRACT: note_on channel=15 note=64 velocity=1 time=0
EXTRACT: note_on channel=15 note=70 velocity=1 time=0
EXTRACT: note_on channel=9 note=35 velocity=102 time=0.005040322916666667
EXTRACT: note_on channel=12 note=23 velocity=102 time=0
EXTRACT: note_on channel=9 note=86 velocity=108 time=0.0025201614583333335
EXTRACT: note_on channel=9 note=82 velocity=0 time=0.0025201614583333335
EXTRACT: note_on channel=9 note=64 velocity=0 time=0
EXTRACT: note_on channel=9 note=59 velocity=0 time=0
EXTRACT: note_on channel=1 note=31 velocity=113 time=0
EXTRACT: note_on channel=2 note=43 velocity=119 time=0
EXTRACT: note_on channel=13 note=43 velocity=101 time=0
EXTRACT: note_on channel=10 note=60 velocity=0 time=0.0025201614583333335
EXTRACT: note_on channel=9 note=35 velocity=0 time=0.0025201614583333335
EXTRACT: note_on channel=9 note=86 velocity=0 time=0.0025201614583333335
EXTRACT: note_on channel=15 note=60 velocity=0 time=0.017641130208333335
EXTRACT: note_on channel=5 note=55 velocity=0 time=0
EXTRACT: note_on channel=6 note=60 velocity=0 time=0
EXTRACT: note_on channel=15 note=55 velocity=0 time=0
EXTRACT: note_on channel=7 note=64 velocity=0 time=0.0025201614583333335
EXTRACT: note_on channel=4 note=70 velocity=0 time=0
EXTRACT: note_on channel=7 note=70 velocity=0 time=0
EXTRACT: note_on channel=15 note=70 velocity=0 time=0
EXTRACT: note_on channel=7 note=67 velocity=0 time=0
EXTRACT: note_on channel=4 note=64 velocity=0 time=0
EXTRACT: note_on channel=12 note=23 velocity=0 time=0
EXTRACT: note_on channel=15 note=64 velocity=0 time=0
EXTRACT: note_on channel=5 note=55 velocity=102 time=0.08064516666666667
EXTRACT: note_on channel=6 note=60 velocity=113 time=0
EXTRACT: note_on channel=15 note=55 velocity=1 time=0
EXTRACT: note_on channel=15 note=60 velocity=1 time=0
EXTRACT: note_on channel=4 note=64 velocity=113 time=0.0025201614583333335
EXTRACT: note_on channel=4 note=70 velocity=93 time=0
EXTRACT: note_on channel=7 note=64 velocity=89 time=0
EXTRACT: note_on channel=7 note=67 velocity=93 time=0
EXTRACT: note_on channel=7 note=70 velocity=93 time=0
EXTRACT: note_on channel=9 note=82 velocity=67 time=0
EXTRACT: note_on channel=15 note=64 velocity=1 time=0
EXTRACT: note_on channel=15 note=70 velocity=1 time=0
EXTRACT: note_on channel=9 note=82 velocity=0 time=0.010080645833333334
EXTRACT: note_on channel=9 note=86 velocity=113 time=0
EXTRACT: note_on channel=9 note=86 velocity=0 time=0.010080645833333334
EXTRACT: note_on channel=15 note=55 velocity=0 time=0.015120968750000002
EXTRACT: note_on channel=15 note=60 velocity=0 time=0
EXTRACT: note_on channel=6 note=60 velocity=0 time=0
EXTRACT: note_on channel=5 note=55 velocity=0 time=0
EXTRACT: note_on channel=15 note=70 velocity=0 time=0.0025201614583333335
EXTRACT: note_on channel=4 note=70 velocity=0 time=0
EXTRACT: note_on channel=4 note=64 velocity=0 time=0
EXTRACT: note_on channel=7 note=64 velocity=0 time=0
EXTRACT: note_on channel=7 note=67 velocity=0 time=0
EXTRACT: note_on channel=15 note=64 velocity=0 time=0
EXTRACT: note_on channel=7 note=70 velocity=0 time=0
EXTRACT: note_on channel=5 note=55 velocity=72 time=0.08064516666666667
EXTRACT: note_on channel=6 note=60 velocity=107 time=0
EXTRACT: note_on channel=15 note=55 velocity=1 time=0
EXTRACT: note_on channel=15 note=60 velocity=1 time=0
EXTRACT: note_on channel=4 note=64 velocity=102 time=0.0025201614583333335
EXTRACT: note_on channel=4 note=70 velocity=107 time=0
EXTRACT: note_on channel=7 note=64 velocity=76 time=0
EXTRACT: note_on channel=7 note=67 velocity=98 time=0
EXTRACT: note_on channel=7 note=70 velocity=102 time=0
EXTRACT: note_on channel=9 note=46 velocity=60 time=0
EXTRACT: note_on channel=9 note=63 velocity=98 time=0
EXTRACT: note_on channel=9 note=82 velocity=54 time=0
EXTRACT: note_on channel=15 note=64 velocity=1 time=0
EXTRACT: note_on channel=15 note=70 velocity=1 time=0
EXTRACT: note_on channel=9 note=82 velocity=0 time=0.010080645833333334
EXTRACT: note_on channel=9 note=63 velocity=0 time=0
EXTRACT: note_on channel=9 note=46 velocity=0 time=0
EXTRACT: note_on channel=15 note=55 velocity=0 time=0.025201614583333334
EXTRACT: note_on channel=6 note=60 velocity=0 time=0
EXTRACT: note_on channel=15 note=60 velocity=0 time=0
EXTRACT: note_on channel=5 note=55 velocity=0 time=0
EXTRACT: note_on channel=15 note=64 velocity=0 time=0.0025201614583333335
EXTRACT: note_on channel=4 note=70 velocity=0 time=0
EXTRACT: note_on channel=4 note=64 velocity=0 time=0
EXTRACT: note_on channel=15 note=70 velocity=0 time=0
EXTRACT: note_on channel=7 note=64 velocity=0 time=0
EXTRACT: note_on channel=7 note=67 velocity=0 time=0
EXTRACT: note_on channel=7 note=70 velocity=0 time=0
EXTRACT: note_on channel=2 note=43 velocity=0 time=0.04284274479166667
EXTRACT: note_on channel=1 note=31 velocity=0 time=0
EXTRACT: note_on channel=13 note=43 velocity=0 time=0
EXTRACT: note_on channel=1 note=27 velocity=110 time=0.03528226041666667
EXTRACT: note_on channel=2 note=39 velocity=117 time=0
EXTRACT: note_on channel=13 note=39 velocity=97 time=0
EXTRACT: note_on channel=5 note=55 velocity=107 time=0.0025201614583333335
EXTRACT: note_on channel=6 note=60 velocity=113 time=0
EXTRACT: note_on channel=15 note=55 velocity=1 time=0
EXTRACT: note_on channel=15 note=60 velocity=1 time=0
EXTRACT: note_on channel=4 note=64 velocity=102 time=0.0025201614583333335
EXTRACT: note_on channel=4 note=70 velocity=93 time=0
EXTRACT: note_on channel=7 note=64 velocity=89 time=0
EXTRACT: note_on channel=7 note=67 velocity=102 time=0
EXTRACT: note_on channel=7 note=70 velocity=107 time=0
EXTRACT: note_on channel=9 note=82 velocity=42 time=0
EXTRACT: note_on channel=15 note=64 velocity=1 time=0
EXTRACT: note_on channel=15 note=70 velocity=1 time=0
EXTRACT: note_on channel=9 note=86 velocity=113 time=0.005040322916666667
EXTRACT: note_on channel=9 note=82 velocity=0 time=0.005040322916666667
EXTRACT: note_on channel=9 note=86 velocity=0 time=0.005040322916666667
EXTRACT: note_on channel=9 note=76 velocity=80 time=0.007560484375000001
EXTRACT: note_on channel=9 note=76 velocity=0 time=0.010080645833333334
EXTRACT: note_on channel=15 note=55 velocity=0 time=0.0025201614583333335
EXTRACT: note_on channel=15 note=60 velocity=0 time=0
EXTRACT: note_on channel=6 note=60 velocity=0 time=0
EXTRACT: note_on channel=5 note=55 velocity=0 time=0
EXTRACT: note_on channel=4 note=64 velocity=0 time=0.0025201614583333335
EXTRACT: note_on channel=4 note=70 velocity=0 time=0
EXTRACT: note_on channel=15 note=70 velocity=0 time=0
EXTRACT: note_on channel=7 note=64 velocity=0 time=0
EXTRACT: note_on channel=7 note=67 velocity=0 time=0
EXTRACT: note_on channel=15 note=64 velocity=0 time=0
EXTRACT: note_on channel=7 note=70 velocity=0 time=0
EXTRACT: note_on channel=5 note=55 velocity=93 time=0.08064516666666667
EXTRACT: note_on channel=6 note=60 velocity=113 time=0
EXTRACT: note_on channel=15 note=55 velocity=1 time=0
EXTRACT: note_on channel=15 note=60 velocity=1 time=0
EXTRACT: note_on channel=4 note=64 velocity=119 time=0.0025201614583333335
EXTRACT: note_on channel=4 note=70 velocity=127 time=0
EXTRACT: note_on channel=7 note=64 velocity=75 time=0
EXTRACT: note_on channel=7 note=67 velocity=84 time=0
EXTRACT: note_on channel=7 note=70 velocity=84 time=0
EXTRACT: note_on channel=9 note=59 velocity=70 time=0
EXTRACT: note_on channel=9 note=62 velocity=107 time=0
EXTRACT: note_on channel=9 note=82 velocity=79 time=0
EXTRACT: note_on channel=15 note=64 velocity=1 time=0
EXTRACT: note_on channel=15 note=70 velocity=1 time=0
EXTRACT: note_on channel=9 note=40 velocity=120 time=0.0025201614583333335
EXTRACT: note_on channel=9 note=82 velocity=0 time=0.007560484375000001
EXTRACT: note_on channel=9 note=62 velocity=0 time=0
EXTRACT: note_on channel=9 note=59 velocity=0 time=0
EXTRACT: note_on channel=9 note=40 velocity=0 time=0.0025201614583333335
EXTRACT: note_on channel=9 note=82 velocity=68 time=0.10836694270833334
EXTRACT: note_on channel=9 note=82 velocity=0 time=0.010080645833333334
EXTRACT: note_on channel=1 note=27 velocity=0 time=0.098286296875
EXTRACT: note_on channel=13 note=39 velocity=0 time=0
EXTRACT: note_on channel=2 note=39 velocity=0 time=0
EXTRACT: note_on channel=15 note=70 velocity=0 time=0.0025201614583333335
EXTRACT: note_on channel=4 note=70 velocity=0 time=0
EXTRACT: note_on channel=1 note=24 velocity=107 time=0.0025201614583333335
EXTRACT: note_on channel=2 note=36 velocity=113 time=0
EXTRACT: note_on channel=13 note=36 velocity=94 time=0
EXTRACT: note_on channel=15 note=64 velocity=0 time=0.0025201614583333335
EXTRACT: note_on channel=4 note=64 velocity=0 time=0
EXTRACT: note_on channel=3 note=70 velocity=97 time=0.005040322916666667
EXTRACT: note_on channel=9 note=46 velocity=52 time=0
EXTRACT: note_on channel=9 note=61 velocity=102 time=0
EXTRACT: note_on channel=9 note=82 velocity=54 time=0
EXTRACT: note_on channel=9 note=86 velocity=113 time=0.005040322916666667
EXTRACT: note_on channel=9 note=82 velocity=0 time=0.005040322916666667
EXTRACT: note_on channel=9 note=61 velocity=0 time=0
EXTRACT: note_on channel=9 note=46 velocity=0 time=0
EXTRACT: note_on channel=9 note=76 velocity=80 time=0.0025201614583333335
EXTRACT: note_on channel=9 note=86 velocity=0 time=0.0025201614583333335
EXTRACT: note_on channel=9 note=76 velocity=0 time=0.007560484375000001
EXTRACT: note_on channel=6 note=60 velocity=0 time=0.012600807291666667
EXTRACT: note_on channel=15 note=60 velocity=0 time=0
EXTRACT: note_on channel=3 note=70 velocity=0 time=0.007560484375000001
EXTRACT: note_on channel=15 note=55 velocity=0 time=0.017641130208333335
EXTRACT: note_on channel=5 note=55 velocity=0 time=0
EXTRACT: note_on channel=7 note=64 velocity=0 time=0.010080645833333334
EXTRACT: note_on channel=7 note=67 velocity=0 time=0
EXTRACT: note_on channel=7 note=70 velocity=0 time=0
EXTRACT: note_on channel=3 note=70 velocity=97 time=0.05040322916666667
EXTRACT: note_on channel=9 note=35 velocity=72 time=0
EXTRACT: note_on channel=9 note=61 velocity=98 time=0
EXTRACT: note_on channel=9 note=82 velocity=45 time=0
EXTRACT: note_on channel=9 note=86 velocity=82 time=0
EXTRACT: note_on channel=12 note=23 velocity=72 time=0
EXTRACT: note_on channel=9 note=86 velocity=0 time=0.010080645833333334
EXTRACT: note_on channel=9 note=82 velocity=0 time=0
EXTRACT: note_on channel=9 note=61 velocity=0 time=0
EXTRACT: note_on channel=9 note=35 velocity=0 time=0
EXTRACT: note_on channel=12 note=23 velocity=0 time=0.022681453125
EXTRACT: note_on channel=3 note=70 velocity=0 time=0.020161291666666668
EXTRACT: note_on channel=9 note=86 velocity=119 time=0.06300403645833334
EXTRACT: note_on channel=3 note=70 velocity=88 time=0.005040322916666667
EXTRACT: note_on channel=9 note=59 velocity=70 time=0
EXTRACT: note_on channel=9 note=82 velocity=78 time=0
EXTRACT: note_on channel=9 note=86 velocity=0 time=0.005040322916666667
EXTRACT: note_on channel=9 note=82 velocity=0 time=0.005040322916666667
EXTRACT: note_on channel=9 note=59 velocity=0 time=0
EXTRACT: note_on channel=10 note=58 velocity=0 time=0.012600807291666667
EXTRACT: note_on channel=3 note=70 velocity=0 time=0.025201614583333334
EXTRACT: note_on channel=9 note=35 velocity=102 time=0.07056452083333334
EXTRACT: note_on channel=12 note=23 velocity=102 time=0
EXTRACT: note_on channel=3 note=70 velocity=97 time=0.0025201614583333335
EXTRACT: note_on channel=9 note=61 velocity=107 time=0
EXTRACT: note_on channel=9 note=82 velocity=68 time=0
EXTRACT: note_on channel=9 note=86 velocity=113 time=0
EXTRACT: note_on channel=9 note=35 velocity=0 time=0.007560484375000001
EXTRACT: note_on channel=9 note=86 velocity=0 time=0.0025201614583333335
EXTRACT: note_on channel=9 note=82 velocity=0 time=0
EXTRACT: note_on channel=9 note=61 velocity=0 time=0
EXTRACT: note_on channel=12 note=23 velocity=0 time=0.020161291666666668
EXTRACT: note_on channel=3 note=70 velocity=0 time=0.025201614583333334
EXTRACT: note_on channel=10 note=55 velocity=93 time=0.060483875000000006
EXTRACT: note_on channel=3 note=70 velocity=102 time=0.005040322916666667
EXTRACT: note_on channel=9 note=35 velocity=98 time=0
EXTRACT: note_on channel=9 note=46 velocity=60 time=0
EXTRACT: note_on channel=9 note=82 velocity=58 time=0
EXTRACT: note_on channel=12 note=23 velocity=98 time=0
EXTRACT: note_on channel=1 note=31 velocity=113 time=0.0025201614583333335
EXTRACT: note_on channel=2 note=43 velocity=119 time=0
EXTRACT: note_on channel=13 note=43 velocity=101 time=0
EXTRACT: note_on channel=9 note=82 velocity=0 time=0.007560484375000001
EXTRACT: note_on channel=9 note=46 velocity=0 time=0
EXTRACT: note_on channel=9 note=35 velocity=0 time=0
EXTRACT: note_on channel=13 note=36 velocity=0 time=0.015120968750000002
EXTRACT: note_on channel=2 note=36 velocity=0 time=0
EXTRACT: note_on channel=1 note=24 velocity=0 time=0
EXTRACT: note_on channel=12 note=23 velocity=0 time=0.007560484375000001
EXTRACT: note_on channel=3 note=70 velocity=0 time=0.022681453125
EXTRACT: note_on channel=9 note=86 velocity=119 time=0.06300403645833334
EXTRACT: note_on channel=3 note=72 velocity=101 time=0.0025201614583333335
EXTRACT: note_on channel=9 note=61 velocity=107 time=0
EXTRACT: note_on channel=9 note=82 velocity=42 time=0
EXTRACT: note_on channel=9 note=86 velocity=0 time=0.007560484375000001
EXTRACT: note_on channel=9 note=82 velocity=0 time=0.0025201614583333335
EXTRACT: note_on channel=9 note=61 velocity=0 time=0
EXTRACT: note_on channel=9 note=76 velocity=80 time=0.012600807291666667
EXTRACT: note_on channel=9 note=76 velocity=0 time=0.010080645833333334
EXTRACT: note_on channel=2 note=43 velocity=0 time=0.07812500520833333
EXTRACT: note_on channel=1 note=31 velocity=0 time=0
EXTRACT: note_on channel=13 note=43 velocity=0 time=0
EXTRACT: note_on channel=9 note=40 velocity=120 time=0.010080645833333334
EXTRACT: note_on channel=9 note=59 velocity=70 time=0
EXTRACT: note_on channel=9 note=62 velocity=107 time=0
EXTRACT: note_on channel=9 note=82 velocity=78 time=0
EXTRACT: note_on channel=10 note=56 velocity=89 time=0
EXTRACT: note_on channel=1 note=28 velocity=107 time=0.005040322916666667
EXTRACT: note_on channel=2 note=40 velocity=113 time=0
EXTRACT: note_on channel=13 note=40 velocity=95 time=0
EXTRACT: note_on channel=9 note=82 velocity=0 time=0.005040322916666667
EXTRACT: note_on channel=9 note=59 velocity=0 time=0
EXTRACT: note_on channel=9 note=40 velocity=0 time=0
EXTRACT: note_on channel=9 note=62 velocity=0 time=0
EXTRACT: note_on channel=3 note=72 velocity=0 time=0.012600807291666667
EXTRACT: note_on channel=10 note=55 velocity=0 time=0.0025201614583333335
EXTRACT: note_on channel=3 note=70 velocity=101 time=0.09576613541666668
EXTRACT: note_on channel=9 note=82 velocity=64 time=0
EXTRACT: note_on channel=9 note=82 velocity=0 time=0.010080645833333334
EXTRACT: note_on channel=1 note=28 velocity=0 time=0.10584678125000001
EXTRACT: note_on channel=2 note=40 velocity=0 time=0
EXTRACT: note_on channel=13 note=40 velocity=0 time=0
EXTRACT: note_on channel=1 note=24 velocity=101 time=0.005040322916666667
EXTRACT: note_on channel=2 note=36 velocity=107 time=0
EXTRACT: note_on channel=9 note=46 velocity=47 time=0
EXTRACT: note_on channel=9 note=63 velocity=102 time=0
EXTRACT: note_on channel=9 note=82 velocity=51 time=0
EXTRACT: note_on channel=13 note=36 velocity=89 time=0
EXTRACT: note_on channel=9 note=86 velocity=113 time=0.0025201614583333335
EXTRACT: note_on channel=10 note=58 velocity=89 time=0.0025201614583333335
EXTRACT: note_on channel=9 note=35 velocity=85 time=0.0025201614583333335
EXTRACT: note_on channel=9 note=76 velocity=80 time=0
EXTRACT: note_on channel=12 note=23 velocity=85 time=0
EXTRACT: note_on channel=9 note=82 velocity=0 time=0.0025201614583333335
EXTRACT: note_on channel=9 note=63 velocity=0 time=0
EXTRACT: note_on channel=9 note=46 velocity=0 time=0
EXTRACT: note_on channel=9 note=86 velocity=0 time=0.0025201614583333335
EXTRACT: note_on channel=9 note=35 velocity=0 time=0.005040322916666667
EXTRACT: note_on channel=9 note=76 velocity=0 time=0
EXTRACT: note_on channel=10 note=56 velocity=0 time=0.0025201614583333335
EXTRACT: note_on channel=12 note=23 velocity=0 time=0.020161291666666668
EXTRACT: note_on channel=3 note=70 velocity=0 time=0.040322583333333335
EXTRACT: note_on channel=9 note=82 velocity=43 time=0.040322583333333335
EXTRACT: note_on channel=9 note=86 velocity=91 time=0.0025201614583333335
EXTRACT: note_on channel=9 note=82 velocity=0 time=0.007560484375000001
EXTRACT: note_on channel=9 note=86 velocity=0 time=0.0025201614583333335
EXTRACT: note_on channel=2 note=36 velocity=0 time=0.09324597395833334
EXTRACT: note_on channel=1 note=24 velocity=0 time=0
EXTRACT: note_on channel=13 note=36 velocity=0 time=0
EXTRACT: note_on channel=9 note=86 velocity=113 time=0.007560484375000001
EXTRACT: note_on channel=4 note=65 velocity=107 time=0.007560484375000001
EXTRACT: note_on channel=4 note=72 velocity=118 time=0
EXTRACT: note_on channel=5 note=56 velocity=107 time=0
EXTRACT: note_on channel=6 note=60 velocity=114 time=0
EXTRACT: note_on channel=7 note=65 velocity=93 time=0
EXTRACT: note_on channel=7 note=68 velocity=102 time=0
EXTRACT: note_on channel=7 note=72 velocity=102 time=0
EXTRACT: note_on channel=9 note=59 velocity=70 time=0
EXTRACT: note_on channel=9 note=64 velocity=102 time=0
EXTRACT: note_on channel=9 note=82 velocity=79 time=0
EXTRACT: note_on channel=15 note=56 velocity=1 time=0
EXTRACT: note_on channel=15 note=60 velocity=1 time=0
EXTRACT: note_on channel=15 note=65 velocity=1 time=0
EXTRACT: note_on channel=15 note=72 velocity=1 time=0
EXTRACT: note_on channel=9 note=86 velocity=0 time=0.0025201614583333335
EXTRACT: note_on channel=1 note=32 velocity=107 time=0
EXTRACT: note_on channel=2 note=44 velocity=113 time=0
EXTRACT: note_on channel=13 note=44 velocity=95 time=0
EXTRACT: note_on channel=9 note=35 velocity=107 time=0.0025201614583333335
EXTRACT: note_on channel=12 note=23 velocity=107 time=0
EXTRACT: note_on channel=9 note=64 velocity=0 time=0.005040322916666667
EXTRACT: note_on channel=9 note=59 velocity=0 time=0
EXTRACT: note_on channel=10 note=58 velocity=0 time=0
EXTRACT: note_on channel=9 note=82 velocity=0 time=0
EXTRACT: note_on channel=10 note=60 velocity=93 time=0.0025201614583333335
EXTRACT: note_on channel=9 note=35 velocity=0 time=0.0025201614583333335
EXTRACT: note_on channel=7 note=68 velocity=0 time=0.022681453125
EXTRACT: note_on channel=7 note=72 velocity=0 time=0
EXTRACT: note_on channel=15 note=60 velocity=0 time=0
EXTRACT: note_on channel=6 note=60 velocity=0 time=0
EXTRACT: note_on channel=7 note=65 velocity=0 time=0
EXTRACT: note_on channel=15 note=72 velocity=0 time=0
EXTRACT: note_on channel=4 note=72 velocity=0 time=0
EXTRACT: note_on channel=5 note=56 velocity=0 time=0
EXTRACT: note_on channel=12 note=23 velocity=0 time=0
EXTRACT: note_on channel=15 note=56 velocity=0 time=0
EXTRACT: note_on channel=15 note=65 velocity=0 time=0
EXTRACT: note_on channel=4 note=65 velocity=0 time=0
EXTRACT: note_on channel=5 note=56 velocity=102 time=0.08064516666666667
EXTRACT: note_on channel=6 note=60 velocity=113 time=0
EXTRACT: note_on channel=9 note=86 velocity=119 time=0
EXTRACT: note_on channel=15 note=56 velocity=1 time=0
EXTRACT: note_on channel=15 note=60 velocity=1 time=0
EXTRACT: note_on channel=4 note=65 velocity=93 time=0.0025201614583333335
EXTRACT: note_on channel=4 note=72 velocity=113 time=0
EXTRACT: note_on channel=7 note=65 velocity=76 time=0
EXTRACT: note_on channel=7 note=68 velocity=89 time=0
EXTRACT: note_on channel=7 note=72 velocity=98 time=0
EXTRACT: note_on channel=9 note=82 velocity=67 time=0
EXTRACT: note_on channel=15 note=65 velocity=1 time=0
EXTRACT: note_on channel=15 note=72 velocity=1 time=0
EXTRACT: note_on channel=9 note=86 velocity=0 time=0.007560484375000001
EXTRACT: note_on channel=9 note=82 velocity=0 time=0.0025201614583333335
EXTRACT: note_on channel=15 note=60 velocity=0 time=0.025201614583333334
EXTRACT: note_on channel=15 note=56 velocity=0 time=0
EXTRACT: note_on channel=6 note=60 velocity=0 time=0
EXTRACT: note_on channel=5 note=56 velocity=0 time=0
EXTRACT: note_on channel=15 note=65 velocity=0 time=0.0025201614583333335
EXTRACT: note_on channel=4 note=65 velocity=0 time=0
EXTRACT: note_on channel=15 note=72 velocity=0 time=0
EXTRACT: note_on channel=4 note=72 velocity=0 time=0
EXTRACT: note_on channel=7 note=65 velocity=0 time=0
EXTRACT: note_on channel=7 note=72 velocity=0 time=0
EXTRACT: note_on channel=7 note=68 velocity=0 time=0
EXTRACT: note_on channel=5 note=56 velocity=72 time=0.08064516666666667
EXTRACT: note_on channel=6 note=60 velocity=107 time=0
EXTRACT: note_on channel=15 note=56 velocity=1 time=0
EXTRACT: note_on channel=15 note=60 velocity=1 time=0
EXTRACT: note_on channel=4 note=65 velocity=107 time=0.0025201614583333335
EXTRACT: note_on channel=4 note=72 velocity=102 time=0
EXTRACT: note_on channel=7 note=65 velocity=56 time=0
EXTRACT: note_on channel=7 note=68 velocity=89 time=0
EXTRACT: note_on channel=7 note=72 velocity=89 time=0
EXTRACT: note_on channel=9 note=46 velocity=60 time=0
EXTRACT: note_on channel=9 note=63 velocity=98 time=0
EXTRACT: note_on channel=9 note=82 velocity=54 time=0
EXTRACT: note_on channel=15 note=65 velocity=1 time=0
EXTRACT: note_on channel=15 note=72 velocity=1 time=0
EXTRACT: note_on channel=9 note=82 velocity=0 time=0.010080645833333334
EXTRACT: note_on channel=9 note=63 velocity=0 time=0
EXTRACT: note_on channel=9 note=46 velocity=0 time=0
EXTRACT: note_on channel=15 note=56 velocity=0 time=0.025201614583333334
EXTRACT: note_on channel=6 note=60 velocity=0 time=0
EXTRACT: note_on channel=15 note=60 velocity=0 time=0
EXTRACT: note_on channel=5 note=56 velocity=0 time=0
EXTRACT: note_on channel=15 note=65 velocity=0 time=0.0025201614583333335
EXTRACT: note_on channel=4 note=72 velocity=0 time=0
EXTRACT: note_on channel=4 note=65 velocity=0 time=0
EXTRACT: note_on channel=15 note=72 velocity=0 time=0
EXTRACT: note_on channel=7 note=65 velocity=0 time=0
EXTRACT: note_on channel=7 note=68 velocity=0 time=0
EXTRACT: note_on channel=7 note=72 velocity=0 time=0
EXTRACT: note_on channel=2 note=44 velocity=0 time=0.040322583333333335
EXTRACT: note_on channel=13 note=44 velocity=0 time=0
EXTRACT: note_on channel=1 note=32 velocity=0 time=0
EXTRACT: note_on channel=1 note=29 velocity=113 time=0.027721776041666667
EXTRACT: note_on channel=2 note=41 velocity=119 time=0
EXTRACT: note_on channel=13 note=41 velocity=101 time=0
EXTRACT: note_on channel=5 note=56 velocity=107 time=0.012600807291666667
EXTRACT: note_on channel=6 note=60 velocity=113 time=0
EXTRACT: note_on channel=15 note=56 velocity=1 time=0
EXTRACT: note_on channel=15 note=60 velocity=1 time=0
EXTRACT: note_on channel=4 note=65 velocity=93 time=0.0025201614583333335
EXTRACT: note_on channel=4 note=72 velocity=102 time=0
EXTRACT: note_on channel=7 note=65 velocity=47 time=0
EXTRACT: note_on channel=7 note=68 velocity=107 time=0
EXTRACT: note_on channel=7 note=72 velocity=102 time=0
EXTRACT: note_on channel=9 note=82 velocity=42 time=0
EXTRACT: note_on channel=15 note=65 velocity=1 time=0
EXTRACT: note_on channel=15 note=72 velocity=1 time=0
EXTRACT: note_on channel=9 note=82 velocity=0 time=0.010080645833333334
EXTRACT: note_on channel=9 note=76 velocity=80 time=0.012600807291666667
EXTRACT: note_on channel=9 note=76 velocity=0 time=0.010080645833333334
EXTRACT: note_on channel=15 note=56 velocity=0 time=0.0025201614583333335
EXTRACT: note_on channel=15 note=60 velocity=0 time=0
EXTRACT: note_on channel=6 note=60 velocity=0 time=0
EXTRACT: note_on channel=5 note=56 velocity=0 time=0
EXTRACT: note_on channel=15 note=72 velocity=0 time=0.0025201614583333335
EXTRACT: note_on channel=4 note=72 velocity=0 time=0
EXTRACT: note_on channel=4 note=65 velocity=0 time=0
EXTRACT: note_on channel=7 note=65 velocity=0 time=0
EXTRACT: note_on channel=7 note=68 velocity=0 time=0
EXTRACT: note_on channel=15 note=65 velocity=0 time=0
EXTRACT: note_on channel=7 note=72 velocity=0 time=0
EXTRACT: note_on channel=5 note=56 velocity=93 time=0.08064516666666667
EXTRACT: note_on channel=6 note=60 velocity=113 time=0
EXTRACT: note_on channel=15 note=56 velocity=1 time=0
EXTRACT: note_on channel=15 note=60 velocity=1 time=0
EXTRACT: note_on channel=4 note=65 velocity=119 time=0.0025201614583333335
EXTRACT: note_on channel=4 note=72 velocity=120 time=0
EXTRACT: note_on channel=7 note=65 velocity=75 time=0
EXTRACT: note_on channel=7 note=68 velocity=75 time=0
EXTRACT: note_on channel=7 note=72 velocity=75 time=0
EXTRACT: note_on channel=9 note=59 velocity=70 time=0
EXTRACT: note_on channel=9 note=62 velocity=113 time=0
EXTRACT: note_on channel=9 note=82 velocity=79 time=0
EXTRACT: note_on channel=15 note=65 velocity=1 time=0
EXTRACT: note_on channel=15 note=72 velocity=1 time=0
EXTRACT: note_on channel=9 note=40 velocity=120 time=0.005040322916666667
EXTRACT: note_on channel=9 note=82 velocity=0 time=0.005040322916666667
EXTRACT: note_on channel=9 note=62 velocity=0 time=0
EXTRACT: note_on channel=9 note=59 velocity=0 time=0
EXTRACT: note_on channel=9 note=40 velocity=0 time=0.005040322916666667
EXTRACT: note_on channel=9 note=82 velocity=68 time=0.10584678125000001
EXTRACT: note_on channel=9 note=82 velocity=0 time=0.010080645833333334
EXTRACT: note_on channel=15 note=65 velocity=0 time=0.060483875000000006
EXTRACT: note_on channel=4 note=65 velocity=0 time=0
EXTRACT: note_on channel=15 note=72 velocity=0 time=0
EXTRACT: note_on channel=4 note=72 velocity=0 time=0
EXTRACT: note_on channel=5 note=56 velocity=0 time=0.012600807291666667
EXTRACT: note_on channel=6 note=60 velocity=0 time=0
EXTRACT: note_on channel=13 note=41 velocity=0 time=0
EXTRACT: note_on channel=15 note=56 velocity=0 time=0
EXTRACT: note_on channel=1 note=29 velocity=0 time=0
EXTRACT: note_on channel=15 note=60 velocity=0 time=0
EXTRACT: note_on channel=2 note=41 velocity=0 time=0
EXTRACT: note_on channel=7 note=65 velocity=0 time=0.0025201614583333335
EXTRACT: note_on channel=7 note=72 velocity=0 time=0
EXTRACT: note_on channel=7 note=68 velocity=0 time=0.015120968750000002
EXTRACT: note_on channel=1 note=24 velocity=101 time=0.0025201614583333335
EXTRACT: note_on channel=2 note=36 velocity=107 time=0
EXTRACT: note_on channel=13 note=36 velocity=89 time=0
EXTRACT: note_on channel=9 note=86 velocity=119 time=0.007560484375000001
EXTRACT: note_on channel=5 note=56 velocity=93 time=0.007560484375000001
EXTRACT: note_on channel=6 note=60 velocity=102 time=0
EXTRACT: note_on channel=15 note=56 velocity=1 time=0
EXTRACT: note_on channel=15 note=60 velocity=1 time=0
EXTRACT: note_on channel=9 note=86 velocity=0 time=0.0025201614583333335
EXTRACT: note_on channel=4 note=72 velocity=114 time=0
EXTRACT: note_on channel=7 note=65 velocity=89 time=0
EXTRACT: note_on channel=7 note=68 velocity=89 time=0
EXTRACT: note_on channel=7 note=72 velocity=89 time=0
EXTRACT: note_on channel=9 note=46 velocity=50 time=0
EXTRACT: note_on channel=9 note=61 velocity=107 time=0
EXTRACT: note_on channel=9 note=82 velocity=54 time=0
EXTRACT: note_on channel=15 note=72 velocity=1 time=0
EXTRACT: note_on channel=9 note=82 velocity=0 time=0.010080645833333334
EXTRACT: note_on channel=9 note=61 velocity=0 time=0
EXTRACT: note_on channel=9 note=46 velocity=0 time=0
EXTRACT: note_on channel=9 note=76 velocity=80 time=0.0025201614583333335
EXTRACT: note_on channel=9 note=76 velocity=0 time=0.010080645833333334
EXTRACT: note_on channel=9 note=86 velocity=104 time=0.08568548958333334
EXTRACT: note_on channel=7 note=65 velocity=0 time=0.007560484375000001
EXTRACT: note_on channel=9 note=86 velocity=0 time=0.0025201614583333335
EXTRACT: note_on channel=7 note=72 velocity=0 time=0.0025201614583333335
EXTRACT: note_on channel=9 note=61 velocity=102 time=0
EXTRACT: note_on channel=9 note=82 velocity=45 time=0
EXTRACT: note_on channel=7 note=68 velocity=0 time=0.0025201614583333335
EXTRACT: note_on channel=9 note=35 velocity=98 time=0.005040322916666667
EXTRACT: note_on channel=12 note=23 velocity=98 time=0
EXTRACT: note_on channel=9 note=82 velocity=0 time=0.0025201614583333335
EXTRACT: note_on channel=9 note=61 velocity=0 time=0
EXTRACT: note_on channel=9 note=35 velocity=0 time=0.007560484375000001
EXTRACT: note_on channel=12 note=23 velocity=0 time=0.022681453125
EXTRACT: note_on channel=15 note=72 velocity=0 time=0.022681453125
EXTRACT: note_on channel=4 note=72 velocity=0 time=0
EXTRACT: note_on channel=15 note=56 velocity=0 time=0.012600807291666667
EXTRACT: note_on channel=5 note=56 velocity=0 time=0
EXTRACT: note_on channel=15 note=60 velocity=0 time=0.010080645833333334
EXTRACT: note_on channel=6 note=60 velocity=0 time=0
EXTRACT: note_on channel=9 note=86 velocity=108 time=0.022681453125
EXTRACT: note_on channel=9 note=86 velocity=0 time=0.010080645833333334
EXTRACT: note_on channel=9 note=59 velocity=70 time=0.0025201614583333335
EXTRACT: note_on channel=9 note=82 velocity=78 time=0
EXTRACT: note_on channel=9 note=82 velocity=0 time=0.010080645833333334
EXTRACT: note_on channel=9 note=59 velocity=0 time=0
EXTRACT: note_on channel=10 note=60 velocity=0 time=0.052923390625000004
EXTRACT: note_on channel=9 note=86 velocity=104 time=0.05040322916666667
EXTRACT: note_on channel=9 note=61 velocity=98 time=0.007560484375000001
EXTRACT: note_on channel=9 note=82 velocity=68 time=0
EXTRACT: note_on channel=9 note=86 velocity=0 time=0.0025201614583333335
EXTRACT: note_on channel=9 note=35 velocity=85 time=0
EXTRACT: note_on channel=12 note=23 velocity=85 time=0
EXTRACT: note_on channel=9 note=61 velocity=0 time=0.007560484375000001
EXTRACT: note_on channel=9 note=82 velocity=0 time=0
EXTRACT: note_on channel=9 note=35 velocity=0 time=0.0025201614583333335
EXTRACT: note_on channel=12 note=23 velocity=0 time=0.022681453125
EXTRACT: note_on channel=10 note=60 velocity=93 time=0.07056452083333334
EXTRACT: note_on channel=1 note=32 velocity=107 time=0.0025201614583333335
EXTRACT: note_on channel=2 note=44 velocity=113 time=0
EXTRACT: note_on channel=13 note=44 velocity=95 time=0
EXTRACT: note_on channel=13 note=36 velocity=0 time=0.005040322916666667
EXTRACT: note_on channel=1 note=24 velocity=0 time=0
EXTRACT: note_on channel=2 note=36 velocity=0 time=0
EXTRACT: note_on channel=5 note=56 velocity=102 time=0.005040322916666667
EXTRACT: note_on channel=6 note=60 velocity=107 time=0
EXTRACT: note_on channel=15 note=56 velocity=1 time=0
EXTRACT: note_on channel=15 note=60 velocity=1 time=0
EXTRACT: note_on channel=4 note=72 velocity=115 time=0.0025201614583333335
EXTRACT: note_on channel=7 note=65 velocity=89 time=0
EXTRACT: note_on channel=7 note=68 velocity=93 time=0
EXTRACT: note_on channel=7 note=72 velocity=98 time=0
EXTRACT: note_on channel=9 note=46 velocity=60 time=0
EXTRACT: note_on channel=9 note=82 velocity=58 time=0
EXTRACT: note_on channel=15 note=72 velocity=1 time=0
EXTRACT: note_on channel=9 note=35 velocity=93 time=0.0025201614583333335
EXTRACT: note_on channel=12 note=23 velocity=93 time=0
EXTRACT: note_on channel=9 note=82 velocity=0 time=0.007560484375000001
EXTRACT: note_on channel=9 note=46 velocity=0 time=0
EXTRACT: note_on channel=9 note=35 velocity=0 time=0.0025201614583333335
EXTRACT: note_on channel=12 note=23 velocity=0 time=0.022681453125
EXTRACT: note_on channel=9 note=61 velocity=98 time=0.08568548958333334
EXTRACT: note_on channel=9 note=82 velocity=42 time=0
EXTRACT: note_on channel=9 note=82 velocity=0 time=0.010080645833333334
EXTRACT: note_on channel=9 note=61 velocity=0 time=0
EXTRACT: note_on channel=7 note=68 velocity=0 time=0.0025201614583333335
EXTRACT: note_on channel=7 note=65 velocity=0 time=0.0025201614583333335
EXTRACT: note_on channel=9 note=76 velocity=80 time=0.010080645833333334
EXTRACT: note_on channel=7 note=72 velocity=0 time=0.005040322916666667
EXTRACT: note_on channel=9 note=76 velocity=0 time=0.005040322916666667
EXTRACT: note_on channel=15 note=56 velocity=0 time=0.06552419791666667
EXTRACT: note_on channel=5 note=56 velocity=0 time=0
EXTRACT: note_on channel=4 note=72 velocity=0 time=0.005040322916666667
EXTRACT: note_on channel=15 note=72 velocity=0 time=0
EXTRACT: note_on channel=15 note=60 velocity=0 time=0.0025201614583333335
EXTRACT: note_on channel=6 note=60 velocity=0 time=0
EXTRACT: note_on channel=10 note=61 velocity=93 time=0
EXTRACT: note_on channel=13 note=44 velocity=0 time=0.0025201614583333335
EXTRACT: note_on channel=1 note=32 velocity=0 time=0
EXTRACT: note_on channel=2 note=44 velocity=0 time=0
EXTRACT: note_on channel=1 note=29 velocity=107 time=0.0025201614583333335
EXTRACT: note_on channel=2 note=41 velocity=113 time=0
EXTRACT: note_on channel=13 note=41 velocity=95 time=0
EXTRACT: note_on channel=10 note=60 velocity=0 time=0.005040322916666667
EXTRACT: note_on channel=9 note=40 velocity=120 time=0
EXTRACT: note_on channel=9 note=59 velocity=70 time=0.0025201614583333335
EXTRACT: note_on channel=9 note=62 velocity=113 time=0
EXTRACT: note_on channel=9 note=82 velocity=78 time=0
EXTRACT: note_on channel=9 note=40 velocity=0 time=0.007560484375000001
EXTRACT: note_on channel=9 note=82 velocity=0 time=0.0025201614583333335
EXTRACT: note_on channel=9 note=59 velocity=0 time=0
EXTRACT: note_on channel=9 note=62 velocity=0 time=0
EXTRACT: note_on channel=9 note=82 velocity=64 time=0.11088710416666667
EXTRACT: note_on channel=9 note=82 velocity=0 time=0.010080645833333334
EXTRACT: note_on channel=10 note=61 velocity=0 time=0.10080645833333333
EXTRACT: note_on channel=2 note=41 velocity=0 time=0
EXTRACT: note_on channel=1 note=29 velocity=0 time=0
EXTRACT: note_on channel=13 note=41 velocity=0 time=0
EXTRACT: note_on channel=1 note=24 velocity=107 time=0.0025201614583333335
EXTRACT: note_on channel=2 note=36 velocity=113 time=0
EXTRACT: note_on channel=13 note=36 velocity=95 time=0
EXTRACT: note_on channel=10 note=60 velocity=93 time=0.0025201614583333335
EXTRACT: note_on channel=5 note=53 velocity=93 time=0.0025201614583333335
EXTRACT: note_on channel=6 note=56 velocity=110 time=0
EXTRACT: note_on channel=15 note=53 velocity=1 time=0
EXTRACT: note_on channel=15 note=56 velocity=1 time=0
EXTRACT: note_on channel=4 note=68 velocity=113 time=0.0025201614583333335
EXTRACT: note_on channel=7 note=68 velocity=80 time=0
EXTRACT: note_on channel=9 note=46 velocity=55 time=0
EXTRACT: note_on channel=9 note=63 velocity=107 time=0
EXTRACT: note_on channel=9 note=82 velocity=51 time=0
EXTRACT: note_on channel=15 note=68 velocity=1 time=0
EXTRACT: note_on channel=9 note=35 velocity=93 time=0.0025201614583333335
EXTRACT: note_on channel=12 note=23 velocity=93 time=0
EXTRACT: note_on channel=9 note=86 velocity=113 time=0.0025201614583333335
EXTRACT: note_on channel=9 note=82 velocity=0 time=0.005040322916666667
EXTRACT: note_on channel=9 note=63 velocity=0 time=0
EXTRACT: note_on channel=9 note=46 velocity=0 time=0
EXTRACT: note_on channel=9 note=35 velocity=0 time=0.0025201614583333335
EXTRACT: note_on channel=9 note=76 velocity=80 time=0
EXTRACT: note_on channel=9 note=86 velocity=0 time=0.0025201614583333335
EXTRACT: note_on channel=9 note=76 velocity=0 time=0.007560484375000001
EXTRACT: note_on channel=12 note=23 velocity=0 time=0.012600807291666667
EXTRACT: note_on channel=9 note=82 velocity=43 time=0.08568548958333334
EXTRACT: note_on channel=9 note=86 velocity=82 time=0
EXTRACT: note_on channel=9 note=86 velocity=0 time=0.010080645833333334
EXTRACT: note_on channel=9 note=82 velocity=0 time=0
EXTRACT: note_on channel=10 note=60 velocity=0 time=0.0907258125
EXTRACT: note_on channel=5 note=53 velocity=0 time=0.0025201614583333335
EXTRACT: note_on channel=15 note=53 velocity=0 time=0
EXTRACT: note_on channel=13 note=36 velocity=0 time=0.007560484375000001
EXTRACT: note_on channel=1 note=24 velocity=0 time=0
EXTRACT: note_on channel=2 note=36 velocity=0 time=0
EXTRACT: note_on channel=1 note=31 velocity=113 time=0.0025201614583333335
EXTRACT: note_on channel=2 note=43 velocity=119 time=0
EXTRACT: note_on channel=13 note=43 velocity=101 time=0
EXTRACT: note_on channel=5 note=55 velocity=98 time=0.005040322916666667
EXTRACT: note_on channel=6 note=58 velocity=100 time=0
EXTRACT: note_on channel=6 note=72 velocity=80 time=0
EXTRACT: note_on channel=9 note=35 velocity=102 time=0
EXTRACT: note_on channel=9 note=86 velocity=119 time=0
EXTRACT: note_on channel=10 note=58 velocity=72 time=0
EXTRACT: note_on channel=12 note=23 velocity=102 time=0
EXTRACT: note_on channel=15 note=55 velocity=1 time=0
EXTRACT: note_on channel=15 note=58 velocity=1 time=0
EXTRACT: note_on channel=15 note=72 velocity=1 time=0
EXTRACT: note_on channel=15 note=56 velocity=0 time=0.0025201614583333335
EXTRACT: note_on channel=6 note=56 velocity=0 time=0
EXTRACT: note_on channel=4 note=70 velocity=113 time=0
EXTRACT: note_on channel=7 note=70 velocity=87 time=0
EXTRACT: note_on channel=9 note=59 velocity=70 time=0
EXTRACT: note_on channel=9 note=64 velocity=102 time=0
EXTRACT: note_on channel=9 note=82 velocity=79 time=0
EXTRACT: note_on channel=15 note=70 velocity=1 time=0
EXTRACT: note_on channel=9 note=86 velocity=0 time=0.007560484375000001
EXTRACT: note_on channel=9 note=35 velocity=0 time=0
EXTRACT: note_on channel=9 note=82 velocity=0 time=0.0025201614583333335
EXTRACT: note_on channel=9 note=64 velocity=0 time=0
EXTRACT: note_on channel=9 note=59 velocity=0 time=0
EXTRACT: note_on channel=7 note=68 velocity=0 time=0.0025201614583333335
EXTRACT: note_on channel=4 note=68 velocity=0 time=0.005040322916666667
EXTRACT: note_on channel=15 note=68 velocity=0 time=0
EXTRACT: note_on channel=12 note=23 velocity=0 time=0.012600807291666667
EXTRACT: note_on channel=9 note=82 velocity=67 time=0.0907258125
EXTRACT: note_on channel=9 note=86 velocity=104 time=0.005040322916666667
EXTRACT: note_on channel=9 note=82 velocity=0 time=0.005040322916666667
EXTRACT: note_on channel=9 note=86 velocity=0 time=0.005040322916666667
EXTRACT: note_on channel=9 note=46 velocity=60 time=0.10584678125000001
EXTRACT: note_on channel=9 note=63 velocity=113 time=0
EXTRACT: note_on channel=9 note=82 velocity=54 time=0
EXTRACT: note_on channel=9 note=82 velocity=0 time=0.010080645833333334
EXTRACT: note_on channel=9 note=63 velocity=0 time=0
EXTRACT: note_on channel=9 note=46 velocity=0 time=0
EXTRACT: note_on channel=13 note=43 velocity=0 time=0.05796371354166667
EXTRACT: note_on channel=1 note=31 velocity=0 time=0
EXTRACT: note_on channel=2 note=43 velocity=0 time=0
EXTRACT: note_on channel=1 note=28 velocity=107 time=0.03276209895833333
EXTRACT: note_on channel=2 note=40 velocity=113 time=0
EXTRACT: note_on channel=13 note=40 velocity=95 time=0
EXTRACT: note_on channel=9 note=82 velocity=42 time=0.020161291666666668
EXTRACT: note_on channel=9 note=82 velocity=0 time=0.010080645833333334
EXTRACT: note_on channel=9 note=76 velocity=80 time=0.015120968750000002
EXTRACT: note_on channel=9 note=76 velocity=0 time=0.010080645833333334
EXTRACT: note_on channel=15 note=70 velocity=0 time=0.05544355208333333
EXTRACT: note_on channel=4 note=70 velocity=0 time=0
EXTRACT: note_on channel=10 note=55 velocity=89 time=0.020161291666666668
EXTRACT: note_on channel=7 note=70 velocity=0 time=0.0025201614583333335
EXTRACT: note_on channel=15 note=55 velocity=0 time=0.0025201614583333335
EXTRACT: note_on channel=5 note=55 velocity=0 time=0
EXTRACT: note_on channel=5 note=52 velocity=93 time=0.0025201614583333335
EXTRACT: note_on channel=6 note=55 velocity=102 time=0
EXTRACT: note_on channel=6 note=70 velocity=76 time=0
EXTRACT: note_on channel=9 note=40 velocity=120 time=0
EXTRACT: note_on channel=15 note=52 velocity=1 time=0
EXTRACT: note_on channel=15 note=55 velocity=1 time=0
EXTRACT: note_on channel=15 note=70 velocity=1 time=0
EXTRACT: note_on channel=15 note=58 velocity=0 time=0.0025201614583333335
EXTRACT: note_on channel=6 note=58 velocity=0 time=0
EXTRACT: note_on channel=4 note=67 velocity=107 time=0
EXTRACT: note_on channel=7 note=67 velocity=84 time=0
EXTRACT: note_on channel=9 note=59 velocity=70 time=0
EXTRACT: note_on channel=9 note=62 velocity=119 time=0
EXTRACT: note_on channel=9 note=72 velocity=32 time=0
EXTRACT: note_on channel=9 note=82 velocity=79 time=0
EXTRACT: note_on channel=15 note=67 velocity=1 time=0
EXTRACT: note_on channel=15 note=72 velocity=0 time=0.005040322916666667
EXTRACT: note_on channel=6 note=72 velocity=0 time=0
EXTRACT: note_on channel=9 note=40 velocity=0 time=0.0025201614583333335
EXTRACT: note_on channel=10 note=58 velocity=0 time=0.0025201614583333335
EXTRACT: note_on channel=9 note=82 velocity=0 time=0
EXTRACT: note_on channel=9 note=62 velocity=0 time=0
EXTRACT: note_on channel=9 note=59 velocity=0 time=0
EXTRACT: note_on channel=9 note=72 velocity=0 time=0
EXTRACT: note_on channel=9 note=82 velocity=68 time=0.11088710416666667
EXTRACT: note_on channel=9 note=82 velocity=0 time=0.010080645833333334
EXTRACT: note_on channel=13 note=40 velocity=0 time=0.04284274479166667
EXTRACT: note_on channel=2 note=40 velocity=0 time=0
EXTRACT: note_on channel=1 note=28 velocity=0 time=0
EXTRACT: note_on channel=1 note=24 velocity=107 time=0.040322583333333335
EXTRACT: note_on channel=2 note=36 velocity=113 time=0
EXTRACT: note_on channel=13 note=36 velocity=95 time=0
EXTRACT: note_on channel=9 note=35 velocity=85 time=0.025201614583333334
EXTRACT: note_on channel=9 note=86 velocity=108 time=0
EXTRACT: note_on channel=12 note=23 velocity=85 time=0
EXTRACT: note_on channel=9 note=46 velocity=52 time=0.0025201614583333335
EXTRACT: note_on channel=9 note=61 velocity=107 time=0
EXTRACT: note_on channel=9 note=82 velocity=54 time=0
EXTRACT: note_on channel=9 note=86 velocity=0 time=0.007560484375000001
EXTRACT: note_on channel=9 note=35 velocity=0 time=0
EXTRACT: note_on channel=9 note=82 velocity=0 time=0.0025201614583333335
EXTRACT: note_on channel=9 note=61 velocity=0 time=0
EXTRACT: note_on channel=9 note=46 velocity=0 time=0
EXTRACT: note_on channel=9 note=76 velocity=80 time=0.0025201614583333335
EXTRACT: note_on channel=9 note=76 velocity=0 time=0.010080645833333334
EXTRACT: note_on channel=12 note=23 velocity=0 time=0.007560484375000001
EXTRACT: note_on channel=9 note=86 velocity=99 time=0.07812500520833333
EXTRACT: note_on channel=9 note=35 velocity=85 time=0.007560484375000001
EXTRACT: note_on channel=12 note=23 velocity=85 time=0
EXTRACT: note_on channel=9 note=86 velocity=0 time=0.0025201614583333335
EXTRACT: note_on channel=9 note=61 velocity=107 time=0.0025201614583333335
EXTRACT: note_on channel=9 note=82 velocity=45 time=0
EXTRACT: note_on channel=9 note=35 velocity=0 time=0.005040322916666667
EXTRACT: note_on channel=9 note=82 velocity=0 time=0.005040322916666667
EXTRACT: note_on channel=9 note=61 velocity=0 time=0
EXTRACT: note_on channel=12 note=23 velocity=0 time=0.017641130208333335
EXTRACT: note_on channel=9 note=86 velocity=108 time=0.08316532812500001
EXTRACT: note_on channel=1 note=24 velocity=0 time=0.0025201614583333335
EXTRACT: note_on channel=13 note=36 velocity=0 time=0
EXTRACT: note_on channel=2 note=36 velocity=0 time=0
EXTRACT: note_on channel=1 note=22 velocity=101 time=0
EXTRACT: note_on channel=2 note=34 velocity=107 time=0
EXTRACT: note_on channel=10 note=52 velocity=86 time=0
EXTRACT: note_on channel=13 note=34 velocity=89 time=0
EXTRACT: note_on channel=5 note=48 velocity=89 time=0.005040322916666667
EXTRACT: note_on channel=6 note=52 velocity=99 time=0
EXTRACT: note_on channel=6 note=67 velocity=93 time=0
EXTRACT: note_on channel=15 note=48 velocity=1 time=0
EXTRACT: note_on channel=15 note=70 velocity=0 time=0.0025201614583333335
EXTRACT: note_on channel=6 note=70 velocity=0 time=0
EXTRACT: note_on channel=9 note=86 velocity=0 time=0
EXTRACT: note_on channel=4 note=64 velocity=113 time=0
EXTRACT: note_on channel=7 note=64 velocity=79 time=0
EXTRACT: note_on channel=9 note=59 velocity=70 time=0
EXTRACT: note_on channel=9 note=82 velocity=78 time=0
EXTRACT: note_on channel=15 note=64 velocity=1 time=0
EXTRACT: note_on channel=10 note=55 velocity=0 time=0.0025201614583333335
EXTRACT: note_on channel=6 note=55 velocity=0 time=0.005040322916666667
EXTRACT: note_on channel=7 note=67 velocity=0 time=0
EXTRACT: note_on channel=15 note=55 velocity=0 time=0
EXTRACT: note_on channel=9 note=59 velocity=0 time=0.0025201614583333335
EXTRACT: note_on channel=9 note=82 velocity=0 time=0
EXTRACT: note_on channel=5 note=52 velocity=0 time=0.005040322916666667
EXTRACT: note_on channel=4 note=67 velocity=0 time=0.010080645833333334
EXTRACT: note_on channel=9 note=86 velocity=113 time=0.08568548958333334
EXTRACT: note_on channel=9 note=86 velocity=0 time=0.010080645833333334
EXTRACT: note_on channel=9 note=61 velocity=102 time=0
EXTRACT: note_on channel=9 note=72 velocity=13 time=0
EXTRACT: note_on channel=9 note=82 velocity=68 time=0
EXTRACT: note_on channel=9 note=35 velocity=89 time=0.0025201614583333335
EXTRACT: note_on channel=12 note=23 velocity=89 time=0
EXTRACT: note_on channel=9 note=82 velocity=0 time=0.007560484375000001
EXTRACT: note_on channel=9 note=72 velocity=0 time=0
EXTRACT: note_on channel=9 note=61 velocity=0 time=0
EXTRACT: note_on channel=9 note=35 velocity=0 time=0.0025201614583333335
EXTRACT: note_on channel=12 note=23 velocity=0 time=0.022681453125
EXTRACT: note_on channel=9 note=35 velocity=102 time=0.08316532812500001
EXTRACT: note_on channel=12 note=23 velocity=102 time=0
EXTRACT: note_on channel=9 note=46 velocity=60 time=0.0025201614583333335
EXTRACT: note_on channel=9 note=82 velocity=58 time=0
EXTRACT: note_on channel=9 note=35 velocity=0 time=0.007560484375000001
EXTRACT: note_on channel=9 note=82 velocity=0 time=0.0025201614583333335
EXTRACT: note_on channel=9 note=46 velocity=0 time=0
EXTRACT: note_on channel=12 note=23 velocity=0 time=0.020161291666666668
EXTRACT: note_on channel=2 note=34 velocity=0 time=0.05796371354166667
EXTRACT: note_on channel=13 note=34 velocity=0 time=0
EXTRACT: note_on channel=1 note=22 velocity=0 time=0
EXTRACT: note_on channel=1 note=24 velocity=107 time=0.020161291666666668
EXTRACT: note_on channel=2 note=36 velocity=113 time=0
EXTRACT: note_on channel=13 note=36 velocity=95 time=0
EXTRACT: note_on channel=9 note=61 velocity=107 time=0.012600807291666667
EXTRACT: note_on channel=9 note=82 velocity=42 time=0
EXTRACT: note_on channel=9 note=82 velocity=0 time=0.010080645833333334
EXTRACT: note_on channel=9 note=61 velocity=0 time=0
EXTRACT: note_on channel=9 note=76 velocity=80 time=0.012600807291666667
EXTRACT: note_on channel=9 note=76 velocity=0 time=0.010080645833333334
EXTRACT: note_on channel=7 note=64 velocity=0 time=0.07560484375
EXTRACT: note_on channel=9 note=40 velocity=120 time=0.012600807291666667
EXTRACT: note_on channel=9 note=59 velocity=70 time=0
EXTRACT: note_on channel=9 note=62 velocity=113 time=0
EXTRACT: note_on channel=9 note=72 velocity=33 time=0
EXTRACT: note_on channel=9 note=82 velocity=78 time=0
EXTRACT: note_on channel=9 note=82 velocity=0 time=0.010080645833333334
EXTRACT: note_on channel=9 note=72 velocity=0 time=0
EXTRACT: note_on channel=9 note=62 velocity=0 time=0
EXTRACT: note_on channel=9 note=59 velocity=0 time=0
EXTRACT: note_on channel=9 note=40 velocity=0 time=0
EXTRACT: note_on channel=9 note=58 velocity=77 time=0
EXTRACT: note_on channel=9 note=58 velocity=0 time=0.010080645833333334
EXTRACT: note_on channel=15 note=64 velocity=0 time=0.03528226041666667
EXTRACT: note_on channel=4 note=64 velocity=0 time=0
EXTRACT: note_on channel=5 note=48 velocity=0 time=0.017641130208333335
EXTRACT: note_on channel=15 note=48 velocity=0 time=0
EXTRACT: note_on channel=6 note=67 velocity=0 time=0.0025201614583333335
EXTRACT: note_on channel=15 note=67 velocity=0 time=0
EXTRACT: note_on channel=6 note=52 velocity=0 time=0
EXTRACT: note_on channel=15 note=52 velocity=0 time=0
EXTRACT: note_on channel=9 note=82 velocity=64 time=0.04536290625
EXTRACT: note_on channel=9 note=82 velocity=0 time=0.010080645833333334
EXTRACT: note_on channel=2 note=36 velocity=0 time=0.06552419791666667
EXTRACT: note_on channel=13 note=36 velocity=0 time=0
EXTRACT: note_on channel=1 note=24 velocity=0 time=0
EXTRACT: note_on channel=1 note=28 velocity=107 time=0.025201614583333334
EXTRACT: note_on channel=2 note=40 velocity=113 time=0
EXTRACT: note_on channel=13 note=40 velocity=95 time=0
EXTRACT: note_on channel=9 note=46 velocity=58 time=0.020161291666666668
EXTRACT: note_on channel=9 note=63 velocity=102 time=0
EXTRACT: note_on channel=9 note=82 velocity=51 time=0
EXTRACT: note_on channel=9 note=35 velocity=93 time=0.0025201614583333335
EXTRACT: note_on channel=12 note=23 velocity=93 time=0
EXTRACT: note_on channel=9 note=76 velocity=80 time=0.005040322916666667
EXTRACT: note_on channel=9 note=82 velocity=0 time=0.0025201614583333335
EXTRACT: note_on channel=9 note=63 velocity=0 time=0
EXTRACT: note_on channel=9 note=46 velocity=0 time=0
EXTRACT: note_on channel=9 note=35 velocity=0 time=0.0025201614583333335
EXTRACT: note_on channel=9 note=76 velocity=0 time=0.005040322916666667
EXTRACT: note_on channel=12 note=23 velocity=0 time=0.017641130208333335
EXTRACT: note_on channel=9 note=82 velocity=43 time=0.08568548958333334
EXTRACT: note_on channel=9 note=82 velocity=0 time=0.010080645833333334
EXTRACT: note_on channel=10 note=52 velocity=0 time=0.037802421875
EXTRACT: note_on channel=13 note=40 velocity=0 time=0.052923390625000004
EXTRACT: note_on channel=1 note=28 velocity=0 time=0
EXTRACT: note_on channel=2 note=40 velocity=0 time=0
EXTRACT: note_on channel=4 note=65 velocity=107 time=0.020161291666666668
EXTRACT: note_on channel=4 note=72 velocity=127 time=0
EXTRACT: note_on channel=5 note=56 velocity=107 time=0
EXTRACT: note_on channel=6 note=60 velocity=119 time=0
EXTRACT: note_on channel=7 note=65 velocity=93 time=0
EXTRACT: note_on channel=7 note=68 velocity=107 time=0
EXTRACT: note_on channel=7 note=72 velocity=93 time=0
EXTRACT: note_on channel=9 note=49 velocity=60 time=0
EXTRACT: note_on channel=9 note=64 velocity=89 time=0
EXTRACT: note_on channel=9 note=82 velocity=79 time=0
EXTRACT: note_on channel=9 note=86 velocity=113 time=0
EXTRACT: note_on channel=15 note=56 velocity=1 time=0
EXTRACT: note_on channel=15 note=60 velocity=1 time=0
EXTRACT: note_on channel=15 note=65 velocity=1 time=0
EXTRACT: note_on channel=15 note=72 velocity=1 time=0
EXTRACT: note_on channel=1 note=32 velocity=106 time=0.0025201614583333335
EXTRACT: note_on channel=9 note=35 velocity=113 time=0.0025201614583333335
EXTRACT: note_on channel=12 note=23 velocity=113 time=0
EXTRACT: note_on channel=2 note=44 velocity=117 time=0.0025201614583333335
EXTRACT: note_on channel=13 note=44 velocity=97 time=0
EXTRACT: note_on channel=9 note=86 velocity=0 time=0.0025201614583333335
EXTRACT: note_on channel=9 note=82 velocity=0 time=0
EXTRACT: note_on channel=9 note=64 velocity=0 time=0
EXTRACT: note_on channel=9 note=49 velocity=0 time=0
EXTRACT: note_on channel=9 note=35 velocity=0 time=0.005040322916666667
EXTRACT: note_on channel=4 note=65 velocity=0 time=0.022681453125
EXTRACT: note_on channel=15 note=60 velocity=0 time=0
EXTRACT: note_on channel=7 note=65 velocity=0 time=0
EXTRACT: note_on channel=7 note=68 velocity=0 time=0
EXTRACT: note_on channel=4 note=72 velocity=0 time=0
EXTRACT: note_on channel=6 note=60 velocity=0 time=0
EXTRACT: note_on channel=7 note=72 velocity=0 time=0
EXTRACT: note_on channel=12 note=23 velocity=0 time=0
EXTRACT: note_on channel=5 note=56 velocity=0 time=0
EXTRACT: note_on channel=15 note=65 velocity=0 time=0
EXTRACT: note_on channel=15 note=56 velocity=0 time=0
EXTRACT: note_on channel=15 note=72 velocity=0 time=0
EXTRACT: note_on channel=10 note=60 velocity=55 time=0.07056452083333334
EXTRACT: note_on channel=5 note=56 velocity=102 time=0.010080645833333334
EXTRACT: note_on channel=6 note=60 velocity=113 time=0
EXTRACT: note_on channel=9 note=86 velocity=99 time=0
EXTRACT: note_on channel=15 note=56 velocity=1 time=0
EXTRACT: note_on channel=15 note=60 velocity=1 time=0
EXTRACT: note_on channel=4 note=65 velocity=93 time=0.0025201614583333335
EXTRACT: note_on channel=4 note=72 velocity=113 time=0
EXTRACT: note_on channel=7 note=65 velocity=98 time=0
EXTRACT: note_on channel=7 note=68 velocity=107 time=0
EXTRACT: note_on channel=7 note=72 velocity=107 time=0
EXTRACT: note_on channel=9 note=82 velocity=67 time=0
EXTRACT: note_on channel=15 note=65 velocity=1 time=0
EXTRACT: note_on channel=15 note=72 velocity=1 time=0
EXTRACT: note_on channel=9 note=86 velocity=0 time=0.007560484375000001
EXTRACT: note_on channel=9 note=82 velocity=0 time=0.0025201614583333335
EXTRACT: note_on channel=15 note=60 velocity=0 time=0.025201614583333334
EXTRACT: note_on channel=15 note=56 velocity=0 time=0
EXTRACT: note_on channel=6 note=60 velocity=0 time=0
EXTRACT: note_on channel=5 note=56 velocity=0 time=0
EXTRACT: note_on channel=15 note=65 velocity=0 time=0.0025201614583333335
EXTRACT: note_on channel=4 note=65 velocity=0 time=0
EXTRACT: note_on channel=15 note=72 velocity=0 time=0
EXTRACT: note_on channel=4 note=72 velocity=0 time=0
EXTRACT: note_on channel=7 note=65 velocity=0 time=0
EXTRACT: note_on channel=7 note=72 velocity=0 time=0
EXTRACT: note_on channel=7 note=68 velocity=0 time=0
EXTRACT: note_on channel=5 note=56 velocity=72 time=0.08064516666666667
EXTRACT: note_on channel=6 note=60 velocity=107 time=0
EXTRACT: note_on channel=15 note=56 velocity=1 time=0
EXTRACT: note_on channel=15 note=60 velocity=1 time=0
EXTRACT: note_on channel=4 note=65 velocity=107 time=0.0025201614583333335
EXTRACT: note_on channel=4 note=72 velocity=102 time=0
EXTRACT: note_on channel=7 note=65 velocity=85 time=0
EXTRACT: note_on channel=7 note=68 velocity=107 time=0
EXTRACT: note_on channel=7 note=72 velocity=93 time=0
EXTRACT: note_on channel=9 note=46 velocity=60 time=0
EXTRACT: note_on channel=9 note=63 velocity=89 time=0
EXTRACT: note_on channel=9 note=82 velocity=54 time=0
EXTRACT: note_on channel=15 note=65 velocity=1 time=0
EXTRACT: note_on channel=15 note=72 velocity=1 time=0
EXTRACT: note_on channel=9 note=82 velocity=0 time=0.010080645833333334
EXTRACT: note_on channel=9 note=63 velocity=0 time=0
EXTRACT: note_on channel=9 note=46 velocity=0 time=0
EXTRACT: note_on channel=15 note=56 velocity=0 time=0.025201614583333334
EXTRACT: note_on channel=6 note=60 velocity=0 time=0
EXTRACT: note_on channel=15 note=60 velocity=0 time=0
EXTRACT: note_on channel=5 note=56 velocity=0 time=0
EXTRACT: note_on channel=15 note=65 velocity=0 time=0.0025201614583333335
EXTRACT: note_on channel=4 note=72 velocity=0 time=0
EXTRACT: note_on channel=4 note=65 velocity=0 time=0
EXTRACT: note_on channel=15 note=72 velocity=0 time=0
EXTRACT: note_on channel=7 note=65 velocity=0 time=0
EXTRACT: note_on channel=7 note=68 velocity=0 time=0
EXTRACT: note_on channel=7 note=72 velocity=0 time=0
EXTRACT: note_on channel=1 note=32 velocity=0 time=0.05796371354166667
EXTRACT: note_on channel=2 note=44 velocity=0 time=0.005040322916666667
EXTRACT: note_on channel=13 note=44 velocity=0 time=0
EXTRACT: note_on channel=9 note=86 velocity=119 time=0.007560484375000001
EXTRACT: note_on channel=9 note=86 velocity=0 time=0.010080645833333334
EXTRACT: note_on channel=1 note=29 velocity=107 time=0
EXTRACT: note_on channel=2 note=41 velocity=113 time=0
EXTRACT: note_on channel=5 note=56 velocity=107 time=0
EXTRACT: note_on channel=6 note=60 velocity=113 time=0
EXTRACT: note_on channel=13 note=41 velocity=95 time=0
EXTRACT: note_on channel=15 note=56 velocity=1 time=0
EXTRACT: note_on channel=15 note=60 velocity=1 time=0
EXTRACT: note_on channel=4 note=65 velocity=93 time=0.0025201614583333335
EXTRACT: note_on channel=4 note=72 velocity=102 time=0
EXTRACT: note_on channel=7 note=65 velocity=72 time=0
EXTRACT: note_on channel=7 note=68 velocity=102 time=0
EXTRACT: note_on channel=7 note=72 velocity=93 time=0
EXTRACT: note_on channel=9 note=82 velocity=42 time=0
EXTRACT: note_on channel=15 note=65 velocity=1 time=0
EXTRACT: note_on channel=15 note=72 velocity=1 time=0
EXTRACT: note_on channel=9 note=82 velocity=0 time=0.010080645833333334
EXTRACT: note_on channel=9 note=76 velocity=80 time=0.012600807291666667
EXTRACT: note_on channel=9 note=76 velocity=0 time=0.010080645833333334
EXTRACT: note_on channel=15 note=56 velocity=0 time=0.0025201614583333335
EXTRACT: note_on channel=5 note=56 velocity=0 time=0
EXTRACT: note_on channel=15 note=60 velocity=0 time=0
EXTRACT: note_on channel=6 note=60 velocity=0 time=0
EXTRACT: note_on channel=15 note=65 velocity=0 time=0.0025201614583333335
EXTRACT: note_on channel=4 note=72 velocity=0 time=0
EXTRACT: note_on channel=15 note=72 velocity=0 time=0
EXTRACT: note_on channel=4 note=65 velocity=0 time=0
EXTRACT: note_on channel=7 note=65 velocity=0 time=0
EXTRACT: note_on channel=7 note=68 velocity=0 time=0
EXTRACT: note_on channel=7 note=72 velocity=0 time=0
EXTRACT: note_on channel=5 note=56 velocity=93 time=0.08064516666666667
EXTRACT: note_on channel=6 note=60 velocity=113 time=0
EXTRACT: note_on channel=15 note=56 velocity=1 time=0
EXTRACT: note_on channel=15 note=60 velocity=1 time=0
EXTRACT: note_on channel=4 note=65 velocity=119 time=0.0025201614583333335
EXTRACT: note_on channel=4 note=72 velocity=127 time=0
EXTRACT: note_on channel=7 note=65 velocity=79 time=0
EXTRACT: note_on channel=7 note=68 velocity=76 time=0
EXTRACT: note_on channel=7 note=72 velocity=84 time=0
EXTRACT: note_on channel=9 note=59 velocity=70 time=0
EXTRACT: note_on channel=9 note=62 velocity=113 time=0
EXTRACT: note_on channel=9 note=82 velocity=79 time=0
EXTRACT: note_on channel=15 note=65 velocity=1 time=0
EXTRACT: note_on channel=15 note=72 velocity=1 time=0
EXTRACT: note_on channel=9 note=40 velocity=120 time=0.007560484375000001
EXTRACT: note_on channel=9 note=82 velocity=0 time=0.0025201614583333335
EXTRACT: note_on channel=9 note=62 velocity=0 time=0
EXTRACT: note_on channel=9 note=59 velocity=0 time=0
EXTRACT: note_on channel=9 note=40 velocity=0 time=0.007560484375000001
EXTRACT: note_on channel=9 note=82 velocity=68 time=0.10332661979166667
EXTRACT: note_on channel=9 note=82 velocity=0 time=0.010080645833333334
EXTRACT: note_on channel=2 note=41 velocity=0 time=0.07812500520833333
EXTRACT: note_on channel=1 note=29 velocity=0 time=0
EXTRACT: note_on channel=13 note=41 velocity=0 time=0
EXTRACT: note_on channel=15 note=72 velocity=0 time=0.022681453125
EXTRACT: note_on channel=4 note=72 velocity=0 time=0
EXTRACT: note_on channel=1 note=24 velocity=107 time=0
EXTRACT: note_on channel=2 note=36 velocity=113 time=0
EXTRACT: note_on channel=13 note=36 velocity=95 time=0
EXTRACT: note_on channel=15 note=65 velocity=0 time=0.005040322916666667
EXTRACT: note_on channel=4 note=65 velocity=0 time=0
EXTRACT: note_on channel=3 note=72 velocity=101 time=0.005040322916666667
EXTRACT: note_on channel=9 note=46 velocity=56 time=0
EXTRACT: note_on channel=9 note=61 velocity=93 time=0
EXTRACT: note_on channel=9 note=82 velocity=54 time=0
EXTRACT: note_on channel=9 note=35 velocity=89 time=0.007560484375000001
EXTRACT: note_on channel=9 note=76 velocity=80 time=0
EXTRACT: note_on channel=12 note=23 velocity=89 time=0
EXTRACT: note_on channel=9 note=82 velocity=0 time=0.0025201614583333335
EXTRACT: note_on channel=9 note=61 velocity=0 time=0
EXTRACT: note_on channel=9 note=46 velocity=0 time=0
EXTRACT: note_on channel=9 note=86 velocity=108 time=0
EXTRACT: note_on channel=9 note=76 velocity=0 time=0.007560484375000001
EXTRACT: note_on channel=9 note=35 velocity=0 time=0
EXTRACT: note_on channel=9 note=86 velocity=0 time=0.0025201614583333335
EXTRACT: note_on channel=15 note=60 velocity=0 time=0.015120968750000002
EXTRACT: note_on channel=6 note=60 velocity=0 time=0
EXTRACT: note_on channel=12 note=23 velocity=0 time=0.005040322916666667
EXTRACT: note_on channel=3 note=72 velocity=0 time=0.0025201614583333335
EXTRACT: note_on channel=5 note=56 velocity=0 time=0.017641130208333335
EXTRACT: note_on channel=15 note=56 velocity=0 time=0
EXTRACT: note_on channel=7 note=68 velocity=0 time=0.010080645833333334
EXTRACT: note_on channel=7 note=65 velocity=0 time=0.015120968750000002
EXTRACT: note_on channel=7 note=72 velocity=0 time=0
EXTRACT: note_on channel=3 note=72 velocity=80 time=0.03528226041666667
EXTRACT: note_on channel=9 note=61 velocity=93 time=0
EXTRACT: note_on channel=9 note=82 velocity=45 time=0
EXTRACT: note_on channel=9 note=35 velocity=85 time=0.005040322916666667
EXTRACT: note_on channel=9 note=86 velocity=99 time=0
EXTRACT: note_on channel=12 note=23 velocity=85 time=0
EXTRACT: note_on channel=9 note=82 velocity=0 time=0.005040322916666667
EXTRACT: note_on channel=9 note=61 velocity=0 time=0
EXTRACT: note_on channel=9 note=86 velocity=0 time=0.005040322916666667
EXTRACT: note_on channel=9 note=35 velocity=0 time=0
EXTRACT: note_on channel=12 note=23 velocity=0 time=0.022681453125
EXTRACT: note_on channel=3 note=72 velocity=0 time=0.017641130208333335
EXTRACT: note_on channel=3 note=72 velocity=106 time=0.06552419791666667
EXTRACT: note_on channel=9 note=59 velocity=70 time=0
EXTRACT: note_on channel=9 note=82 velocity=78 time=0
EXTRACT: note_on channel=9 note=86 velocity=113 time=0.0025201614583333335
EXTRACT: note_on channel=9 note=82 velocity=0 time=0.007560484375000001
EXTRACT: note_on channel=9 note=59 velocity=0 time=0
EXTRACT: note_on channel=9 note=86 velocity=0 time=0.0025201614583333335
EXTRACT: note_on channel=3 note=72 velocity=0 time=0.03276209895833333
EXTRACT: note_on channel=3 note=72 velocity=106 time=0.07560484375
EXTRACT: note_on channel=9 note=61 velocity=93 time=0
EXTRACT: note_on channel=9 note=82 velocity=68 time=0
EXTRACT: note_on channel=9 note=35 velocity=85 time=0.005040322916666667
EXTRACT: note_on channel=9 note=86 velocity=108 time=0
EXTRACT: note_on channel=12 note=23 velocity=85 time=0
EXTRACT: note_on channel=9 note=82 velocity=0 time=0.005040322916666667
EXTRACT: note_on channel=9 note=61 velocity=0 time=0
EXTRACT: note_on channel=9 note=86 velocity=0 time=0.005040322916666667
EXTRACT: note_on channel=9 note=35 velocity=0 time=0
EXTRACT: note_on channel=10 note=60 velocity=0 time=0
EXTRACT: note_on channel=12 note=23 velocity=0 time=0.022681453125
EXTRACT: note_on channel=3 note=72 velocity=0 time=0.010080645833333334
EXTRACT: note_on channel=10 note=60 velocity=93 time=0.05796371354166667
EXTRACT: note_on channel=1 note=32 velocity=107 time=0.007560484375000001
EXTRACT: note_on channel=2 note=44 velocity=113 time=0
EXTRACT: note_on channel=13 note=44 velocity=95 time=0
EXTRACT: note_on channel=3 note=72 velocity=105 time=0.007560484375000001
EXTRACT: note_on channel=9 note=46 velocity=60 time=0
EXTRACT: note_on channel=9 note=72 velocity=38 time=0
EXTRACT: note_on channel=9 note=82 velocity=58 time=0
EXTRACT: note_on channel=9 note=35 velocity=85 time=0.005040322916666667
EXTRACT: note_on channel=12 note=23 velocity=85 time=0
EXTRACT: note_on channel=9 note=82 velocity=0 time=0.005040322916666667
EXTRACT: note_on channel=9 note=72 velocity=0 time=0
EXTRACT: note_on channel=9 note=46 velocity=0 time=0
EXTRACT: note_on channel=1 note=24 velocity=0 time=0.0025201614583333335
EXTRACT: note_on channel=2 note=36 velocity=0 time=0
EXTRACT: note_on channel=13 note=36 velocity=0 time=0
EXTRACT: note_on channel=9 note=35 velocity=0 time=0.0025201614583333335
EXTRACT: note_on channel=12 note=23 velocity=0 time=0.022681453125
EXTRACT: note_on channel=3 note=72 velocity=0 time=0.05796371354166667
EXTRACT: note_on channel=9 note=86 velocity=113 time=0.017641130208333335
EXTRACT: note_on channel=3 note=73 velocity=90 time=0.007560484375000001
EXTRACT: note_on channel=9 note=61 velocity=93 time=0
EXTRACT: note_on channel=9 note=82 velocity=42 time=0
EXTRACT: note_on channel=9 note=86 velocity=0 time=0.0025201614583333335
EXTRACT: note_on channel=9 note=82 velocity=0 time=0.007560484375000001
EXTRACT: note_on channel=9 note=61 velocity=0 time=0
EXTRACT: note_on channel=9 note=76 velocity=80 time=0.012600807291666667
EXTRACT: note_on channel=9 note=76 velocity=0 time=0.010080645833333334
EXTRACT: note_on channel=3 note=73 velocity=0 time=0.07560484375
EXTRACT: note_on channel=10 note=61 velocity=98 time=0
EXTRACT: note_on channel=10 note=60 velocity=0 time=0.0025201614583333335
EXTRACT: note_on channel=9 note=40 velocity=120 time=0.010080645833333334
EXTRACT: note_on channel=9 note=59 velocity=70 time=0
EXTRACT: note_on channel=9 note=62 velocity=107 time=0
EXTRACT: note_on channel=9 note=82 velocity=78 time=0
EXTRACT: note_on channel=1 note=29 velocity=113 time=0.0025201614583333335
EXTRACT: note_on channel=2 note=41 velocity=119 time=0
EXTRACT: note_on channel=13 note=41 velocity=101 time=0
EXTRACT: note_on channel=2 note=44 velocity=0 time=0.0025201614583333335
EXTRACT: note_on channel=13 note=44 velocity=0 time=0
EXTRACT: note_on channel=1 note=32 velocity=0 time=0
EXTRACT: note_on channel=9 note=82 velocity=0 time=0.005040322916666667
EXTRACT: note_on channel=9 note=40 velocity=0 time=0
EXTRACT: note_on channel=9 note=62 velocity=0 time=0
EXTRACT: note_on channel=9 note=59 velocity=0 time=0
EXTRACT: note_on channel=3 note=72 velocity=101 time=0.11088710416666667
EXTRACT: note_on channel=9 note=82 velocity=64 time=0
EXTRACT: note_on channel=9 note=82 velocity=0 time=0.010080645833333334
EXTRACT: note_on channel=10 note=61 velocity=0 time=0.09576613541666668
EXTRACT: note_on channel=1 note=29 velocity=0 time=0.005040322916666667
EXTRACT: note_on channel=13 note=41 velocity=0 time=0
EXTRACT: note_on channel=2 note=41 velocity=0 time=0
EXTRACT: note_on channel=10 note=60 velocity=93 time=0
EXTRACT: note_on channel=1 note=24 velocity=107 time=0.007560484375000001
EXTRACT: note_on channel=2 note=36 velocity=113 time=0
EXTRACT: note_on channel=13 note=36 velocity=95 time=0
EXTRACT: note_on channel=9 note=46 velocity=56 time=0.0025201614583333335
EXTRACT: note_on channel=9 note=63 velocity=89 time=0
EXTRACT: note_on channel=9 note=82 velocity=51 time=0
EXTRACT: note_on channel=9 note=35 velocity=89 time=0.005040322916666667
EXTRACT: note_on channel=12 note=23 velocity=89 time=0
EXTRACT: note_on channel=9 note=76 velocity=80 time=0.0025201614583333335
EXTRACT: note_on channel=9 note=82 velocity=0 time=0.0025201614583333335
EXTRACT: note_on channel=9 note=63 velocity=0 time=0
EXTRACT: note_on channel=9 note=46 velocity=0 time=0
EXTRACT: note_on channel=9 note=86 velocity=108 time=0.0025201614583333335
EXTRACT: note_on channel=9 note=35 velocity=0 time=0.0025201614583333335
EXTRACT: note_on channel=9 note=76 velocity=0 time=0.0025201614583333335
EXTRACT: note_on channel=9 note=86 velocity=0 time=0.005040322916666667
EXTRACT: note_on channel=12 note=23 velocity=0 time=0.015120968750000002
EXTRACT: note_on channel=9 note=82 velocity=43 time=0.08316532812500001
EXTRACT: note_on channel=9 note=82 velocity=0 time=0.010080645833333334
EXTRACT: note_on channel=3 note=72 velocity=0 time=0
EXTRACT: note_on channel=9 note=86 velocity=95 time=0.005040322916666667
EXTRACT: note_on channel=9 note=86 velocity=0 time=0.010080645833333334
EXTRACT: note_on channel=10 note=58 velocity=89 time=0.07308468229166667
EXTRACT: note_on channel=10 note=60 velocity=0 time=0.0025201614583333335
EXTRACT: note_on channel=5 note=55 velocity=107 time=0.017641130208333335
EXTRACT: note_on channel=6 note=60 velocity=119 time=0
EXTRACT: note_on channel=15 note=55 velocity=1 time=0
EXTRACT: note_on channel=15 note=60 velocity=1 time=0
EXTRACT: note_on channel=13 note=36 velocity=0 time=0.0025201614583333335
EXTRACT: note_on channel=2 note=36 velocity=0 time=0
EXTRACT: note_on channel=1 note=24 velocity=0 time=0
EXTRACT: note_on channel=4 note=64 velocity=127 time=0
EXTRACT: note_on channel=4 note=70 velocity=107 time=0
EXTRACT: note_on channel=7 note=64 velocity=98 time=0
EXTRACT: note_on channel=7 note=67 velocity=102 time=0
EXTRACT: note_on channel=7 note=70 velocity=102 time=0
EXTRACT: note_on channel=9 note=59 velocity=70 time=0
EXTRACT: note_on channel=9 note=64 velocity=102 time=0
EXTRACT: note_on channel=9 note=82 velocity=79 time=0
EXTRACT: note_on channel=15 note=64 velocity=1 time=0
EXTRACT: note_on channel=15 note=70 velocity=1 time=0
EXTRACT: note_on channel=9 note=35 velocity=102 time=0.005040322916666667
EXTRACT: note_on channel=12 note=23 velocity=102 time=0
EXTRACT: note_on channel=9 note=86 velocity=108 time=0.0025201614583333335
EXTRACT: note_on channel=9 note=82 velocity=0 time=0.0025201614583333335
EXTRACT: note_on channel=9 note=64 velocity=0 time=0
EXTRACT: note_on channel=9 note=59 velocity=0 time=0
EXTRACT: note_on channel=1 note=31 velocity=113 time=0
EXTRACT: note_on channel=2 note=43 velocity=119 time=0
EXTRACT: note_on channel=13 note=43 velocity=101 time=0
EXTRACT: note_on channel=9 note=35 velocity=0 time=0.005040322916666667
EXTRACT: note_on channel=9 note=86 velocity=0 time=0.0025201614583333335
EXTRACT: note_on channel=6 note=60 velocity=0 time=0.017641130208333335
EXTRACT: note_on channel=15 note=60 velocity=0 time=0
EXTRACT: note_on channel=5 note=55 velocity=0 time=0
EXTRACT: note_on channel=15 note=55 velocity=0 time=0
EXTRACT: note_on channel=7 note=64 velocity=0 time=0.0025201614583333335
EXTRACT: note_on channel=4 note=64 velocity=0 time=0
EXTRACT: note_on channel=15 note=64 velocity=0 time=0
EXTRACT: note_on channel=12 note=23 velocity=0 time=0
EXTRACT: note_on channel=7 note=70 velocity=0 time=0
EXTRACT: note_on channel=4 note=70 velocity=0 time=0
EXTRACT: note_on channel=15 note=70 velocity=0 time=0
EXTRACT: note_on channel=7 note=67 velocity=0 time=0
EXTRACT: note_on channel=5 note=55 velocity=102 time=0.08064516666666667
EXTRACT: note_on channel=6 note=60 velocity=113 time=0
EXTRACT: note_on channel=15 note=55 velocity=1 time=0
EXTRACT: note_on channel=15 note=60 velocity=1 time=0
EXTRACT: note_on channel=4 note=64 velocity=113 time=0.0025201614583333335
EXTRACT: note_on channel=4 note=70 velocity=93 time=0
EXTRACT: note_on channel=7 note=64 velocity=89 time=0
EXTRACT: note_on channel=7 note=67 velocity=93 time=0
EXTRACT: note_on channel=7 note=70 velocity=93 time=0
EXTRACT: note_on channel=9 note=82 velocity=67 time=0
EXTRACT: note_on channel=15 note=64 velocity=1 time=0
EXTRACT: note_on channel=15 note=70 velocity=1 time=0
EXTRACT: note_on channel=9 note=82 velocity=0 time=0.010080645833333334
EXTRACT: note_on channel=9 note=86 velocity=113 time=0
EXTRACT: note_on channel=9 note=86 velocity=0 time=0.010080645833333334
EXTRACT: note_on channel=15 note=55 velocity=0 time=0.015120968750000002
EXTRACT: note_on channel=15 note=60 velocity=0 time=0
EXTRACT: note_on channel=6 note=60 velocity=0 time=0
EXTRACT: note_on channel=5 note=55 velocity=0 time=0
EXTRACT: note_on channel=15 note=70 velocity=0 time=0.0025201614583333335
EXTRACT: note_on channel=4 note=70 velocity=0 time=0
EXTRACT: note_on channel=4 note=64 velocity=0 time=0
EXTRACT: note_on channel=7 note=64 velocity=0 time=0
EXTRACT: note_on channel=7 note=67 velocity=0 time=0
EXTRACT: note_on channel=15 note=64 velocity=0 time=0
EXTRACT: note_on channel=7 note=70 velocity=0 time=0
EXTRACT: note_on channel=5 note=55 velocity=72 time=0.08064516666666667
EXTRACT: note_on channel=6 note=60 velocity=107 time=0
EXTRACT: note_on channel=15 note=55 velocity=1 time=0
EXTRACT: note_on channel=15 note=60 velocity=1 time=0
EXTRACT: note_on channel=4 note=64 velocity=102 time=0.0025201614583333335
EXTRACT: note_on channel=4 note=70 velocity=107 time=0
EXTRACT: note_on channel=7 note=64 velocity=76 time=0
EXTRACT: note_on channel=7 note=67 velocity=98 time=0
EXTRACT: note_on channel=7 note=70 velocity=102 time=0
EXTRACT: note_on channel=9 note=46 velocity=60 time=0
EXTRACT: note_on channel=9 note=63 velocity=98 time=0
EXTRACT: note_on channel=9 note=82 velocity=54 time=0
EXTRACT: note_on channel=15 note=64 velocity=1 time=0
EXTRACT: note_on channel=15 note=70 velocity=1 time=0
EXTRACT: note_on channel=9 note=82 velocity=0 time=0.010080645833333334
EXTRACT: note_on channel=9 note=63 velocity=0 time=0
EXTRACT: note_on channel=9 note=46 velocity=0 time=0
EXTRACT: note_on channel=15 note=55 velocity=0 time=0.025201614583333334
EXTRACT: note_on channel=6 note=60 velocity=0 time=0
EXTRACT: note_on channel=15 note=60 velocity=0 time=0
EXTRACT: note_on channel=5 note=55 velocity=0 time=0
EXTRACT: note_on channel=15 note=64 velocity=0 time=0.0025201614583333335
EXTRACT: note_on channel=4 note=70 velocity=0 time=0
EXTRACT: note_on channel=4 note=64 velocity=0 time=0
EXTRACT: note_on channel=15 note=70 velocity=0 time=0
EXTRACT: note_on channel=7 note=64 velocity=0 time=0
EXTRACT: note_on channel=7 note=67 velocity=0 time=0
EXTRACT: note_on channel=7 note=70 velocity=0 time=0
EXTRACT: note_on channel=1 note=31 velocity=0 time=0.04284274479166667
EXTRACT: note_on channel=13 note=43 velocity=0 time=0
EXTRACT: note_on channel=2 note=43 velocity=0 time=0
EXTRACT: note_on channel=1 note=27 velocity=110 time=0.03528226041666667
EXTRACT: note_on channel=2 note=39 velocity=117 time=0
EXTRACT: note_on channel=13 note=39 velocity=97 time=0
EXTRACT: note_on channel=5 note=55 velocity=107 time=0.0025201614583333335
EXTRACT: note_on channel=6 note=60 velocity=113 time=0
EXTRACT: note_on channel=15 note=55 velocity=1 time=0
EXTRACT: note_on channel=15 note=60 velocity=1 time=0
EXTRACT: note_on channel=4 note=64 velocity=102 time=0.0025201614583333335
EXTRACT: note_on channel=4 note=70 velocity=93 time=0
EXTRACT: note_on channel=7 note=64 velocity=89 time=0
EXTRACT: note_on channel=7 note=67 velocity=102 time=0
EXTRACT: note_on channel=7 note=70 velocity=107 time=0
EXTRACT: note_on channel=9 note=82 velocity=42 time=0
EXTRACT: note_on channel=15 note=64 velocity=1 time=0
EXTRACT: note_on channel=15 note=70 velocity=1 time=0
EXTRACT: note_on channel=9 note=86 velocity=113 time=0.005040322916666667
EXTRACT: note_on channel=9 note=82 velocity=0 time=0.005040322916666667
EXTRACT: note_on channel=9 note=86 velocity=0 time=0.005040322916666667
EXTRACT: note_on channel=9 note=76 velocity=80 time=0.007560484375000001
EXTRACT: note_on channel=9 note=76 velocity=0 time=0.010080645833333334
EXTRACT: note_on channel=15 note=55 velocity=0 time=0.0025201614583333335
EXTRACT: note_on channel=15 note=60 velocity=0 time=0
EXTRACT: note_on channel=6 note=60 velocity=0 time=0
EXTRACT: note_on channel=5 note=55 velocity=0 time=0
EXTRACT: note_on channel=4 note=64 velocity=0 time=0.0025201614583333335
EXTRACT: note_on channel=4 note=70 velocity=0 time=0
EXTRACT: note_on channel=15 note=70 velocity=0 time=0
EXTRACT: note_on channel=7 note=64 velocity=0 time=0
EXTRACT: note_on channel=7 note=67 velocity=0 time=0
EXTRACT: note_on channel=15 note=64 velocity=0 time=0
EXTRACT: note_on channel=7 note=70 velocity=0 time=0
EXTRACT: note_on channel=5 note=55 velocity=93 time=0.08064516666666667
EXTRACT: note_on channel=6 note=60 velocity=113 time=0
EXTRACT: note_on channel=15 note=55 velocity=1 time=0
EXTRACT: note_on channel=15 note=60 velocity=1 time=0
EXTRACT: note_on channel=4 note=64 velocity=119 time=0.0025201614583333335
EXTRACT: note_on channel=4 note=70 velocity=127 time=0
EXTRACT: note_on channel=7 note=64 velocity=75 time=0
EXTRACT: note_on channel=7 note=67 velocity=84 time=0
EXTRACT: note_on channel=7 note=70 velocity=84 time=0
EXTRACT: note_on channel=9 note=59 velocity=70 time=0
EXTRACT: note_on channel=9 note=62 velocity=107 time=0
EXTRACT: note_on channel=9 note=82 velocity=79 time=0
EXTRACT: note_on channel=15 note=64 velocity=1 time=0
EXTRACT: note_on channel=15 note=70 velocity=1 time=0
EXTRACT: note_on channel=9 note=40 velocity=120 time=0.0025201614583333335
EXTRACT: note_on channel=9 note=82 velocity=0 time=0.007560484375000001
EXTRACT: note_on channel=9 note=62 velocity=0 time=0
EXTRACT: note_on channel=9 note=59 velocity=0 time=0
EXTRACT: note_on channel=9 note=40 velocity=0 time=0.0025201614583333335
EXTRACT: note_on channel=9 note=82 velocity=68 time=0.10836694270833334
EXTRACT: note_on channel=9 note=82 velocity=0 time=0.010080645833333334
EXTRACT: note_on channel=1 note=27 velocity=0 time=0.098286296875
EXTRACT: note_on channel=13 note=39 velocity=0 time=0
EXTRACT: note_on channel=2 note=39 velocity=0 time=0
EXTRACT: note_on channel=15 note=70 velocity=0 time=0.0025201614583333335
EXTRACT: note_on channel=4 note=70 velocity=0 time=0
EXTRACT: note_on channel=1 note=24 velocity=107 time=0.0025201614583333335
EXTRACT: note_on channel=2 note=36 velocity=113 time=0
EXTRACT: note_on channel=13 note=36 velocity=94 time=0
EXTRACT: note_on channel=15 note=64 velocity=0 time=0.0025201614583333335
EXTRACT: note_on channel=4 note=64 velocity=0 time=0
EXTRACT: note_on channel=3 note=70 velocity=97 time=0.005040322916666667
EXTRACT: note_on channel=9 note=46 velocity=52 time=0
EXTRACT: note_on channel=9 note=61 velocity=102 time=0
EXTRACT: note_on channel=9 note=82 velocity=54 time=0
EXTRACT: note_on channel=9 note=86 velocity=113 time=0.005040322916666667
EXTRACT: note_on channel=9 note=82 velocity=0 time=0.005040322916666667
EXTRACT: note_on channel=9 note=61 velocity=0 time=0
EXTRACT: note_on channel=9 note=46 velocity=0 time=0
EXTRACT: note_on channel=9 note=76 velocity=80 time=0
EXTRACT: note_on channel=9 note=86 velocity=0 time=0.005040322916666667
EXTRACT: note_on channel=9 note=76 velocity=0 time=0.005040322916666667
EXTRACT: note_on channel=6 note=60 velocity=0 time=0.015120968750000002
EXTRACT: note_on channel=15 note=60 velocity=0 time=0
EXTRACT: note_on channel=3 note=70 velocity=0 time=0.007560484375000001
EXTRACT: note_on channel=15 note=55 velocity=0 time=0.017641130208333335
EXTRACT: note_on channel=5 note=55 velocity=0 time=0
EXTRACT: note_on channel=7 note=64 velocity=0 time=0.010080645833333334
EXTRACT: note_on channel=7 note=67 velocity=0 time=0
EXTRACT: note_on channel=7 note=70 velocity=0 time=0
EXTRACT: note_on channel=3 note=70 velocity=97 time=0.05040322916666667
EXTRACT: note_on channel=9 note=35 velocity=72 time=0
EXTRACT: note_on channel=9 note=61 velocity=98 time=0
EXTRACT: note_on channel=9 note=82 velocity=45 time=0
EXTRACT: note_on channel=9 note=86 velocity=82 time=0
EXTRACT: note_on channel=12 note=23 velocity=72 time=0
EXTRACT: note_on channel=9 note=86 velocity=0 time=0.010080645833333334
EXTRACT: note_on channel=9 note=82 velocity=0 time=0
EXTRACT: note_on channel=9 note=61 velocity=0 time=0
EXTRACT: note_on channel=9 note=35 velocity=0 time=0
EXTRACT: note_on channel=12 note=23 velocity=0 time=0.022681453125
EXTRACT: note_on channel=3 note=70 velocity=0 time=0.020161291666666668
EXTRACT: note_on channel=9 note=86 velocity=119 time=0.06300403645833334
EXTRACT: note_on channel=3 note=70 velocity=88 time=0.005040322916666667
EXTRACT: note_on channel=9 note=59 velocity=70 time=0
EXTRACT: note_on channel=9 note=82 velocity=78 time=0
EXTRACT: note_on channel=9 note=86 velocity=0 time=0.005040322916666667
EXTRACT: note_on channel=9 note=82 velocity=0 time=0.005040322916666667
EXTRACT: note_on channel=9 note=59 velocity=0 time=0
EXTRACT: note_on channel=3 note=70 velocity=0 time=0.037802421875
EXTRACT: note_on channel=10 note=58 velocity=0 time=0.04788306770833334
EXTRACT: note_on channel=9 note=35 velocity=102 time=0.022681453125
EXTRACT: note_on channel=12 note=23 velocity=102 time=0
EXTRACT: note_on channel=3 note=70 velocity=97 time=0.0025201614583333335
EXTRACT: note_on channel=9 note=61 velocity=107 time=0
EXTRACT: note_on channel=9 note=82 velocity=68 time=0
EXTRACT: note_on channel=9 note=86 velocity=113 time=0
EXTRACT: note_on channel=9 note=35 velocity=0 time=0.007560484375000001
EXTRACT: note_on channel=9 note=86 velocity=0 time=0.0025201614583333335
EXTRACT: note_on channel=9 note=82 velocity=0 time=0
EXTRACT: note_on channel=9 note=61 velocity=0 time=0
EXTRACT: note_on channel=12 note=23 velocity=0 time=0.020161291666666668
EXTRACT: note_on channel=3 note=70 velocity=0 time=0.025201614583333334
EXTRACT: note_on channel=10 note=55 velocity=93 time=0.05040322916666667
EXTRACT: note_on channel=3 note=70 velocity=102 time=0.015120968750000002
EXTRACT: note_on channel=9 note=35 velocity=98 time=0
EXTRACT: note_on channel=9 note=46 velocity=60 time=0
EXTRACT: note_on channel=9 note=72 velocity=44 time=0
EXTRACT: note_on channel=9 note=82 velocity=58 time=0
EXTRACT: note_on channel=12 note=23 velocity=98 time=0
EXTRACT: note_on channel=1 note=31 velocity=113 time=0.0025201614583333335
EXTRACT: note_on channel=2 note=43 velocity=119 time=0
EXTRACT: note_on channel=13 note=43 velocity=101 time=0
EXTRACT: note_on channel=9 note=82 velocity=0 time=0.007560484375000001
EXTRACT: note_on channel=9 note=72 velocity=0 time=0
EXTRACT: note_on channel=9 note=46 velocity=0 time=0
EXTRACT: note_on channel=9 note=35 velocity=0 time=0
EXTRACT: note_on channel=1 note=24 velocity=0 time=0.015120968750000002
EXTRACT: note_on channel=2 note=36 velocity=0 time=0
EXTRACT: note_on channel=13 note=36 velocity=0 time=0
EXTRACT: note_on channel=12 note=23 velocity=0 time=0.007560484375000001
EXTRACT: note_on channel=3 note=70 velocity=0 time=0.022681453125
EXTRACT: note_on channel=9 note=86 velocity=119 time=0.06300403645833334
EXTRACT: note_on channel=3 note=72 velocity=101 time=0.0025201614583333335
EXTRACT: note_on channel=9 note=61 velocity=107 time=0
EXTRACT: note_on channel=9 note=82 velocity=42 time=0
EXTRACT: note_on channel=9 note=86 velocity=0 time=0.007560484375000001
EXTRACT: note_on channel=9 note=82 velocity=0 time=0.0025201614583333335
EXTRACT: note_on channel=9 note=61 velocity=0 time=0
EXTRACT: note_on channel=9 note=76 velocity=80 time=0.012600807291666667
EXTRACT: note_on channel=9 note=76 velocity=0 time=0.010080645833333334
EXTRACT: note_on channel=1 note=31 velocity=0 time=0.07812500520833333
EXTRACT: note_on channel=2 note=43 velocity=0 time=0
EXTRACT: note_on channel=13 note=43 velocity=0 time=0
EXTRACT: note_on channel=10 note=56 velocity=89 time=0
EXTRACT: note_on channel=9 note=40 velocity=120 time=0.010080645833333334
EXTRACT: note_on channel=9 note=59 velocity=70 time=0
EXTRACT: note_on channel=9 note=62 velocity=107 time=0
EXTRACT: note_on channel=9 note=82 velocity=78 time=0
EXTRACT: note_on channel=10 note=55 velocity=0 time=0.005040322916666667
EXTRACT: note_on channel=1 note=28 velocity=107 time=0
EXTRACT: note_on channel=2 note=40 velocity=113 time=0
EXTRACT: note_on channel=13 note=40 velocity=95 time=0
EXTRACT: note_on channel=9 note=62 velocity=0 time=0.005040322916666667
EXTRACT: note_on channel=9 note=59 velocity=0 time=0
EXTRACT: note_on channel=9 note=40 velocity=0 time=0
EXTRACT: note_on channel=9 note=82 velocity=0 time=0
EXTRACT: note_on channel=3 note=72 velocity=0 time=0.012600807291666667
EXTRACT: note_on channel=3 note=70 velocity=101 time=0.098286296875
EXTRACT: note_on channel=9 note=82 velocity=64 time=0
EXTRACT: note_on channel=9 note=82 velocity=0 time=0.010080645833333334
EXTRACT: note_on channel=1 note=28 velocity=0 time=0.10584678125000001
EXTRACT: note_on channel=2 note=40 velocity=0 time=0
EXTRACT: note_on channel=13 note=40 velocity=0 time=0
EXTRACT: note_on channel=1 note=24 velocity=101 time=0.005040322916666667
EXTRACT: note_on channel=2 note=36 velocity=107 time=0
EXTRACT: note_on channel=9 note=46 velocity=47 time=0
EXTRACT: note_on channel=9 note=63 velocity=102 time=0
EXTRACT: note_on channel=9 note=82 velocity=51 time=0
EXTRACT: note_on channel=13 note=36 velocity=89 time=0
EXTRACT: note_on channel=9 note=76 velocity=80 time=0.0025201614583333335
EXTRACT: note_on channel=9 note=86 velocity=113 time=0
EXTRACT: note_on channel=10 note=58 velocity=93 time=0.0025201614583333335
EXTRACT: note_on channel=9 note=35 velocity=85 time=0.0025201614583333335
EXTRACT: note_on channel=12 note=23 velocity=85 time=0
EXTRACT: note_on channel=9 note=82 velocity=0 time=0.0025201614583333335
EXTRACT: note_on channel=9 note=63 velocity=0 time=0
EXTRACT: note_on channel=9 note=46 velocity=0 time=0
EXTRACT: note_on channel=9 note=86 velocity=0 time=0.0025201614583333335
EXTRACT: note_on channel=9 note=76 velocity=0 time=0
EXTRACT: note_on channel=9 note=35 velocity=0 time=0.005040322916666667
EXTRACT: note_on channel=10 note=56 velocity=0 time=0.015120968750000002
EXTRACT: note_on channel=12 note=23 velocity=0 time=0.007560484375000001
EXTRACT: note_on channel=3 note=70 velocity=0 time=0.040322583333333335
EXTRACT: note_on channel=9 note=82 velocity=43 time=0.040322583333333335
EXTRACT: note_on channel=9 note=86 velocity=91 time=0.0025201614583333335
EXTRACT: note_on channel=9 note=82 velocity=0 time=0.007560484375000001
EXTRACT: note_on channel=9 note=86 velocity=0 time=0.0025201614583333335
EXTRACT: note_on channel=2 note=36 velocity=0 time=0.09324597395833334
EXTRACT: note_on channel=1 note=24 velocity=0 time=0
EXTRACT: note_on channel=13 note=36 velocity=0 time=0
EXTRACT: note_on channel=9 note=86 velocity=113 time=0.007560484375000001
EXTRACT: note_on channel=4 note=65 velocity=107 time=0.007560484375000001
EXTRACT: note_on channel=4 note=72 velocity=118 time=0
EXTRACT: note_on channel=5 note=56 velocity=107 time=0
EXTRACT: note_on channel=6 note=60 velocity=114 time=0
EXTRACT: note_on channel=7 note=65 velocity=93 time=0
EXTRACT: note_on channel=7 note=68 velocity=102 time=0
EXTRACT: note_on channel=7 note=72 velocity=102 time=0
EXTRACT: note_on channel=9 note=59 velocity=70 time=0
EXTRACT: note_on channel=9 note=64 velocity=102 time=0
EXTRACT: note_on channel=9 note=82 velocity=79 time=0
EXTRACT: note_on channel=15 note=56 velocity=1 time=0
EXTRACT: note_on channel=15 note=60 velocity=1 time=0
EXTRACT: note_on channel=15 note=65 velocity=1 time=0
EXTRACT: note_on channel=15 note=72 velocity=1 time=0
EXTRACT: note_on channel=9 note=86 velocity=0 time=0.0025201614583333335
EXTRACT: note_on channel=10 note=58 velocity=0 time=0
EXTRACT: note_on channel=1 note=32 velocity=107 time=0
EXTRACT: note_on channel=2 note=44 velocity=113 time=0
EXTRACT: note_on channel=13 note=44 velocity=95 time=0
EXTRACT: note_on channel=9 note=35 velocity=107 time=0.0025201614583333335
EXTRACT: note_on channel=12 note=23 velocity=107 time=0
EXTRACT: note_on channel=9 note=64 velocity=0 time=0.005040322916666667
EXTRACT: note_on channel=9 note=59 velocity=0 time=0
EXTRACT: note_on channel=9 note=82 velocity=0 time=0
EXTRACT: note_on channel=10 note=60 velocity=89 time=0
EXTRACT: note_on channel=9 note=35 velocity=0 time=0.005040322916666667
EXTRACT: note_on channel=15 note=72 velocity=0 time=0.022681453125
EXTRACT: note_on channel=7 note=72 velocity=0 time=0
EXTRACT: note_on channel=12 note=23 velocity=0 time=0
EXTRACT: note_on channel=6 note=60 velocity=0 time=0
EXTRACT: note_on channel=7 note=65 velocity=0 time=0
EXTRACT: note_on channel=4 note=65 velocity=0 time=0
EXTRACT: note_on channel=4 note=72 velocity=0 time=0
EXTRACT: note_on channel=15 note=60 velocity=0 time=0
EXTRACT: note_on channel=5 note=56 velocity=0 time=0
EXTRACT: note_on channel=7 note=68 velocity=0 time=0
EXTRACT: note_on channel=15 note=65 velocity=0 time=0
EXTRACT: note_on channel=15 note=56 velocity=0 time=0
EXTRACT: note_on channel=5 note=56 velocity=102 time=0.08064516666666667
EXTRACT: note_on channel=6 note=60 velocity=113 time=0
EXTRACT: note_on channel=9 note=86 velocity=119 time=0
EXTRACT: note_on channel=15 note=56 velocity=1 time=0
EXTRACT: note_on channel=15 note=60 velocity=1 time=0
EXTRACT: note_on channel=4 note=65 velocity=93 time=0.0025201614583333335
EXTRACT: note_on channel=4 note=72 velocity=113 time=0
EXTRACT: note_on channel=7 note=65 velocity=76 time=0
EXTRACT: note_on channel=7 note=68 velocity=89 time=0
EXTRACT: note_on channel=7 note=72 velocity=98 time=0
EXTRACT: note_on channel=9 note=82 velocity=67 time=0
EXTRACT: note_on channel=15 note=65 velocity=1 time=0
EXTRACT: note_on channel=15 note=72 velocity=1 time=0
EXTRACT: note_on channel=9 note=86 velocity=0 time=0.007560484375000001
EXTRACT: note_on channel=9 note=82 velocity=0 time=0.0025201614583333335
EXTRACT: note_on channel=15 note=60 velocity=0 time=0.025201614583333334
EXTRACT: note_on channel=15 note=56 velocity=0 time=0
EXTRACT: note_on channel=6 note=60 velocity=0 time=0
EXTRACT: note_on channel=5 note=56 velocity=0 time=0
EXTRACT: note_on channel=15 note=65 velocity=0 time=0.0025201614583333335
EXTRACT: note_on channel=4 note=65 velocity=0 time=0
EXTRACT: note_on channel=15 note=72 velocity=0 time=0
EXTRACT: note_on channel=4 note=72 velocity=0 time=0
EXTRACT: note_on channel=7 note=65 velocity=0 time=0
EXTRACT: note_on channel=7 note=72 velocity=0 time=0
EXTRACT: note_on channel=7 note=68 velocity=0 time=0
EXTRACT: note_on channel=5 note=56 velocity=72 time=0.08064516666666667
EXTRACT: note_on channel=6 note=60 velocity=107 time=0
EXTRACT: note_on channel=15 note=56 velocity=1 time=0
EXTRACT: note_on channel=15 note=60 velocity=1 time=0
EXTRACT: note_on channel=4 note=65 velocity=107 time=0.0025201614583333335
EXTRACT: note_on channel=4 note=72 velocity=102 time=0
EXTRACT: note_on channel=7 note=65 velocity=56 time=0
EXTRACT: note_on channel=7 note=68 velocity=89 time=0
EXTRACT: note_on channel=7 note=72 velocity=89 time=0
EXTRACT: note_on channel=9 note=46 velocity=60 time=0
EXTRACT: note_on channel=9 note=63 velocity=98 time=0
EXTRACT: note_on channel=9 note=82 velocity=54 time=0
EXTRACT: note_on channel=15 note=65 velocity=1 time=0
EXTRACT: note_on channel=15 note=72 velocity=1 time=0
EXTRACT: note_on channel=9 note=82 velocity=0 time=0.010080645833333334
EXTRACT: note_on channel=9 note=63 velocity=0 time=0
EXTRACT: note_on channel=9 note=46 velocity=0 time=0
EXTRACT: note_on channel=15 note=56 velocity=0 time=0.025201614583333334
EXTRACT: note_on channel=6 note=60 velocity=0 time=0
EXTRACT: note_on channel=15 note=60 velocity=0 time=0
EXTRACT: note_on channel=5 note=56 velocity=0 time=0
EXTRACT: note_on channel=15 note=65 velocity=0 time=0.0025201614583333335
EXTRACT: note_on channel=4 note=72 velocity=0 time=0
EXTRACT: note_on channel=4 note=65 velocity=0 time=0
EXTRACT: note_on channel=15 note=72 velocity=0 time=0
EXTRACT: note_on channel=7 note=65 velocity=0 time=0
EXTRACT: note_on channel=7 note=68 velocity=0 time=0
EXTRACT: note_on channel=7 note=72 velocity=0 time=0
EXTRACT: note_on channel=13 note=44 velocity=0 time=0.040322583333333335
EXTRACT: note_on channel=1 note=32 velocity=0 time=0
EXTRACT: note_on channel=2 note=44 velocity=0 time=0
EXTRACT: note_on channel=1 note=29 velocity=113 time=0.027721776041666667
EXTRACT: note_on channel=2 note=41 velocity=119 time=0
EXTRACT: note_on channel=13 note=41 velocity=101 time=0
EXTRACT: note_on channel=5 note=56 velocity=107 time=0.012600807291666667
EXTRACT: note_on channel=6 note=60 velocity=113 time=0
EXTRACT: note_on channel=9 note=76 velocity=80 time=0
EXTRACT: note_on channel=15 note=56 velocity=1 time=0
EXTRACT: note_on channel=15 note=60 velocity=1 time=0
EXTRACT: note_on channel=4 note=65 velocity=93 time=0.0025201614583333335
EXTRACT: note_on channel=4 note=72 velocity=102 time=0
EXTRACT: note_on channel=7 note=65 velocity=47 time=0
EXTRACT: note_on channel=7 note=68 velocity=107 time=0
EXTRACT: note_on channel=7 note=72 velocity=102 time=0
EXTRACT: note_on channel=9 note=82 velocity=42 time=0
EXTRACT: note_on channel=15 note=65 velocity=1 time=0
EXTRACT: note_on channel=15 note=72 velocity=1 time=0
EXTRACT: note_on channel=9 note=76 velocity=0 time=0.007560484375000001
EXTRACT: note_on channel=9 note=82 velocity=0 time=0.0025201614583333335
EXTRACT: note_on channel=15 note=60 velocity=0 time=0.025201614583333334
EXTRACT: note_on channel=15 note=56 velocity=0 time=0
EXTRACT: note_on channel=6 note=60 velocity=0 time=0
EXTRACT: note_on channel=5 note=56 velocity=0 time=0
EXTRACT: note_on channel=15 note=65 velocity=0 time=0.0025201614583333335
EXTRACT: note_on channel=4 note=65 velocity=0 time=0
EXTRACT: note_on channel=15 note=72 velocity=0 time=0
EXTRACT: note_on channel=4 note=72 velocity=0 time=0
EXTRACT: note_on channel=7 note=65 velocity=0 time=0
EXTRACT: note_on channel=7 note=72 velocity=0 time=0
EXTRACT: note_on channel=7 note=68 velocity=0 time=0
EXTRACT: note_on channel=5 note=56 velocity=93 time=0.08064516666666667
EXTRACT: note_on channel=6 note=60 velocity=113 time=0
EXTRACT: note_on channel=15 note=56 velocity=1 time=0
EXTRACT: note_on channel=15 note=60 velocity=1 time=0
EXTRACT: note_on channel=4 note=65 velocity=119 time=0.0025201614583333335
EXTRACT: note_on channel=4 note=72 velocity=120 time=0
EXTRACT: note_on channel=7 note=65 velocity=75 time=0
EXTRACT: note_on channel=7 note=68 velocity=75 time=0
EXTRACT: note_on channel=7 note=72 velocity=75 time=0
EXTRACT: note_on channel=9 note=59 velocity=70 time=0
EXTRACT: note_on channel=9 note=62 velocity=113 time=0
EXTRACT: note_on channel=9 note=82 velocity=79 time=0
EXTRACT: note_on channel=15 note=65 velocity=1 time=0
EXTRACT: note_on channel=15 note=72 velocity=1 time=0
EXTRACT: note_on channel=9 note=40 velocity=120 time=0.005040322916666667
EXTRACT: note_on channel=9 note=82 velocity=0 time=0.005040322916666667
EXTRACT: note_on channel=9 note=62 velocity=0 time=0
EXTRACT: note_on channel=9 note=59 velocity=0 time=0
EXTRACT: note_on channel=9 note=40 velocity=0 time=0.005040322916666667
EXTRACT: note_on channel=9 note=82 velocity=68 time=0.10584678125000001
EXTRACT: note_on channel=9 note=82 velocity=0 time=0.010080645833333334
EXTRACT: note_on channel=15 note=65 velocity=0 time=0.060483875000000006
EXTRACT: note_on channel=4 note=65 velocity=0 time=0
EXTRACT: note_on channel=15 note=72 velocity=0 time=0
EXTRACT: note_on channel=4 note=72 velocity=0 time=0
EXTRACT: note_on channel=5 note=56 velocity=0 time=0.012600807291666667
EXTRACT: note_on channel=6 note=60 velocity=0 time=0
EXTRACT: note_on channel=13 note=41 velocity=0 time=0
EXTRACT: note_on channel=15 note=56 velocity=0 time=0
EXTRACT: note_on channel=1 note=29 velocity=0 time=0
EXTRACT: note_on channel=15 note=60 velocity=0 time=0
EXTRACT: note_on channel=2 note=41 velocity=0 time=0
EXTRACT: note_on channel=7 note=65 velocity=0 time=0.0025201614583333335
EXTRACT: note_on channel=7 note=72 velocity=0 time=0
EXTRACT: note_on channel=7 note=68 velocity=0 time=0.015120968750000002
EXTRACT: note_on channel=1 note=24 velocity=101 time=0.0025201614583333335
EXTRACT: note_on channel=2 note=36 velocity=107 time=0
EXTRACT: note_on channel=13 note=36 velocity=89 time=0
EXTRACT: note_on channel=9 note=86 velocity=119 time=0.007560484375000001
EXTRACT: note_on channel=5 note=56 velocity=93 time=0.007560484375000001
EXTRACT: note_on channel=6 note=60 velocity=102 time=0
EXTRACT: note_on channel=15 note=56 velocity=1 time=0
EXTRACT: note_on channel=15 note=60 velocity=1 time=0
EXTRACT: note_on channel=9 note=86 velocity=0 time=0.0025201614583333335
EXTRACT: note_on channel=4 note=72 velocity=114 time=0
EXTRACT: note_on channel=7 note=65 velocity=89 time=0
EXTRACT: note_on channel=7 note=68 velocity=89 time=0
EXTRACT: note_on channel=7 note=72 velocity=89 time=0
EXTRACT: note_on channel=9 note=46 velocity=50 time=0
EXTRACT: note_on channel=9 note=61 velocity=107 time=0
EXTRACT: note_on channel=9 note=72 velocity=44 time=0
EXTRACT: note_on channel=9 note=82 velocity=54 time=0
EXTRACT: note_on channel=15 note=72 velocity=1 time=0
EXTRACT: note_on channel=9 note=76 velocity=80 time=0.005040322916666667
EXTRACT: note_on channel=9 note=82 velocity=0 time=0.005040322916666667
EXTRACT: note_on channel=9 note=72 velocity=0 time=0
EXTRACT: note_on channel=9 note=61 velocity=0 time=0
EXTRACT: note_on channel=9 note=46 velocity=0 time=0
EXTRACT: note_on channel=9 note=76 velocity=0 time=0.005040322916666667
EXTRACT: note_on channel=9 note=86 velocity=104 time=0.09324597395833334
EXTRACT: note_on channel=7 note=65 velocity=0 time=0.007560484375000001
EXTRACT: note_on channel=9 note=86 velocity=0 time=0.0025201614583333335
EXTRACT: note_on channel=7 note=72 velocity=0 time=0.0025201614583333335
EXTRACT: note_on channel=9 note=61 velocity=102 time=0
EXTRACT: note_on channel=9 note=82 velocity=45 time=0
EXTRACT: note_on channel=7 note=68 velocity=0 time=0.0025201614583333335
EXTRACT: note_on channel=9 note=35 velocity=98 time=0.005040322916666667
EXTRACT: note_on channel=12 note=23 velocity=98 time=0
EXTRACT: note_on channel=9 note=82 velocity=0 time=0.0025201614583333335
EXTRACT: note_on channel=9 note=61 velocity=0 time=0
EXTRACT: note_on channel=9 note=35 velocity=0 time=0.007560484375000001
EXTRACT: note_on channel=12 note=23 velocity=0 time=0.022681453125
EXTRACT: note_on channel=15 note=72 velocity=0 time=0.022681453125
EXTRACT: note_on channel=4 note=72 velocity=0 time=0
EXTRACT: note_on channel=15 note=56 velocity=0 time=0.012600807291666667
EXTRACT: note_on channel=5 note=56 velocity=0 time=0
EXTRACT: note_on channel=15 note=60 velocity=0 time=0.010080645833333334
EXTRACT: note_on channel=6 note=60 velocity=0 time=0
EXTRACT: note_on channel=9 note=86 velocity=108 time=0.022681453125
EXTRACT: note_on channel=9 note=86 velocity=0 time=0.010080645833333334
EXTRACT: note_on channel=9 note=59 velocity=70 time=0.0025201614583333335
EXTRACT: note_on channel=9 note=82 velocity=78 time=0
EXTRACT: note_on channel=9 note=82 velocity=0 time=0.010080645833333334
EXTRACT: note_on channel=9 note=59 velocity=0 time=0
EXTRACT: note_on channel=10 note=60 velocity=0 time=0.04788306770833334
EXTRACT: note_on channel=9 note=86 velocity=104 time=0.05544355208333333
EXTRACT: note_on channel=9 note=61 velocity=98 time=0.007560484375000001
EXTRACT: note_on channel=9 note=82 velocity=68 time=0
EXTRACT: note_on channel=9 note=86 velocity=0 time=0.0025201614583333335
EXTRACT: note_on channel=9 note=35 velocity=85 time=0
EXTRACT: note_on channel=12 note=23 velocity=85 time=0
EXTRACT: note_on channel=9 note=61 velocity=0 time=0.007560484375000001
EXTRACT: note_on channel=9 note=82 velocity=0 time=0
EXTRACT: note_on channel=9 note=35 velocity=0 time=0.0025201614583333335
EXTRACT: note_on channel=12 note=23 velocity=0 time=0.022681453125
EXTRACT: note_on channel=1 note=32 velocity=107 time=0.07308468229166667
EXTRACT: note_on channel=2 note=44 velocity=113 time=0
EXTRACT: note_on channel=10 note=60 velocity=93 time=0
EXTRACT: note_on channel=13 note=44 velocity=95 time=0
EXTRACT: note_on channel=13 note=36 velocity=0 time=0.005040322916666667
EXTRACT: note_on channel=1 note=24 velocity=0 time=0
EXTRACT: note_on channel=2 note=36 velocity=0 time=0
EXTRACT: note_on channel=5 note=56 velocity=102 time=0.005040322916666667
EXTRACT: note_on channel=6 note=60 velocity=107 time=0
EXTRACT: note_on channel=15 note=56 velocity=1 time=0
EXTRACT: note_on channel=15 note=60 velocity=1 time=0
EXTRACT: note_on channel=4 note=72 velocity=115 time=0.0025201614583333335
EXTRACT: note_on channel=7 note=65 velocity=89 time=0
EXTRACT: note_on channel=7 note=68 velocity=93 time=0
EXTRACT: note_on channel=7 note=72 velocity=98 time=0
EXTRACT: note_on channel=9 note=46 velocity=60 time=0
EXTRACT: note_on channel=9 note=82 velocity=58 time=0
EXTRACT: note_on channel=15 note=72 velocity=1 time=0
EXTRACT: note_on channel=9 note=35 velocity=93 time=0.0025201614583333335
EXTRACT: note_on channel=12 note=23 velocity=93 time=0
EXTRACT: note_on channel=9 note=82 velocity=0 time=0.007560484375000001
EXTRACT: note_on channel=9 note=46 velocity=0 time=0
EXTRACT: note_on channel=9 note=35 velocity=0 time=0.0025201614583333335
EXTRACT: note_on channel=12 note=23 velocity=0 time=0.022681453125
EXTRACT: note_on channel=9 note=76 velocity=80 time=0.08316532812500001
EXTRACT: note_on channel=9 note=61 velocity=98 time=0.0025201614583333335
EXTRACT: note_on channel=9 note=82 velocity=42 time=0
EXTRACT: note_on channel=9 note=76 velocity=0 time=0.007560484375000001
EXTRACT: note_on channel=9 note=82 velocity=0 time=0.0025201614583333335
EXTRACT: note_on channel=9 note=61 velocity=0 time=0
EXTRACT: note_on channel=7 note=68 velocity=0 time=0.0025201614583333335
EXTRACT: note_on channel=7 note=65 velocity=0 time=0.0025201614583333335
EXTRACT: note_on channel=7 note=72 velocity=0 time=0.015120968750000002
EXTRACT: note_on channel=15 note=56 velocity=0 time=0.07056452083333334
EXTRACT: note_on channel=5 note=56 velocity=0 time=0
EXTRACT: note_on channel=4 note=72 velocity=0 time=0.005040322916666667
EXTRACT: note_on channel=15 note=72 velocity=0 time=0
EXTRACT: note_on channel=15 note=60 velocity=0 time=0.0025201614583333335
EXTRACT: note_on channel=6 note=60 velocity=0 time=0
EXTRACT: note_on channel=13 note=44 velocity=0 time=0.0025201614583333335
EXTRACT: note_on channel=2 note=44 velocity=0 time=0
EXTRACT: note_on channel=1 note=32 velocity=0 time=0
EXTRACT: note_on channel=10 note=61 velocity=93 time=0
EXTRACT: note_on channel=1 note=29 velocity=107 time=0.0025201614583333335
EXTRACT: note_on channel=2 note=41 velocity=113 time=0
EXTRACT: note_on channel=13 note=41 velocity=95 time=0
EXTRACT: note_on channel=10 note=60 velocity=0 time=0.0025201614583333335
EXTRACT: note_on channel=9 note=40 velocity=120 time=0.0025201614583333335
EXTRACT: note_on channel=9 note=59 velocity=70 time=0.0025201614583333335
EXTRACT: note_on channel=9 note=62 velocity=113 time=0
EXTRACT: note_on channel=9 note=82 velocity=78 time=0
EXTRACT: note_on channel=9 note=40 velocity=0 time=0.007560484375000001
EXTRACT: note_on channel=9 note=82 velocity=0 time=0.0025201614583333335
EXTRACT: note_on channel=9 note=59 velocity=0 time=0
EXTRACT: note_on channel=9 note=62 velocity=0 time=0
EXTRACT: note_on channel=9 note=82 velocity=64 time=0.11088710416666667
EXTRACT: note_on channel=9 note=82 velocity=0 time=0.010080645833333334
EXTRACT: note_on channel=10 note=61 velocity=0 time=0.08820565104166667
EXTRACT: note_on channel=2 note=41 velocity=0 time=0.012600807291666667
EXTRACT: note_on channel=1 note=29 velocity=0 time=0
EXTRACT: note_on channel=13 note=41 velocity=0 time=0
EXTRACT: note_on channel=10 note=60 velocity=98 time=0
EXTRACT: note_on channel=1 note=24 velocity=107 time=0.0025201614583333335
EXTRACT: note_on channel=2 note=36 velocity=113 time=0
EXTRACT: note_on channel=13 note=36 velocity=95 time=0
EXTRACT: note_on channel=5 note=53 velocity=93 time=0.005040322916666667
EXTRACT: note_on channel=6 note=56 velocity=110 time=0
EXTRACT: note_on channel=15 note=53 velocity=1 time=0
EXTRACT: note_on channel=15 note=56 velocity=1 time=0
EXTRACT: note_on channel=4 note=68 velocity=113 time=0.0025201614583333335
EXTRACT: note_on channel=7 note=68 velocity=80 time=0
EXTRACT: note_on channel=9 note=46 velocity=55 time=0
EXTRACT: note_on channel=9 note=63 velocity=107 time=0
EXTRACT: note_on channel=9 note=82 velocity=51 time=0
EXTRACT: note_on channel=15 note=68 velocity=1 time=0
EXTRACT: note_on channel=9 note=35 velocity=93 time=0.0025201614583333335
EXTRACT: note_on channel=12 note=23 velocity=93 time=0
EXTRACT: note_on channel=9 note=76 velocity=80 time=0.0025201614583333335
EXTRACT: note_on channel=9 note=86 velocity=113 time=0
EXTRACT: note_on channel=9 note=82 velocity=0 time=0.005040322916666667
EXTRACT: note_on channel=9 note=63 velocity=0 time=0
EXTRACT: note_on channel=9 note=46 velocity=0 time=0
EXTRACT: note_on channel=9 note=35 velocity=0 time=0.0025201614583333335
EXTRACT: note_on channel=9 note=86 velocity=0 time=0.0025201614583333335
EXTRACT: note_on channel=9 note=76 velocity=0 time=0
EXTRACT: note_on channel=12 note=23 velocity=0 time=0.020161291666666668
EXTRACT: note_on channel=9 note=82 velocity=43 time=0.08568548958333334
EXTRACT: note_on channel=9 note=86 velocity=82 time=0
EXTRACT: note_on channel=9 note=86 velocity=0 time=0.010080645833333334
EXTRACT: note_on channel=9 note=82 velocity=0 time=0
EXTRACT: note_on channel=10 note=60 velocity=0 time=0.08820565104166667
EXTRACT: note_on channel=5 note=53 velocity=0 time=0.005040322916666667
EXTRACT: note_on channel=15 note=53 velocity=0 time=0
EXTRACT: note_on channel=10 note=58 velocity=89 time=0
EXTRACT: note_on channel=2 note=36 velocity=0 time=0.007560484375000001
EXTRACT: note_on channel=13 note=36 velocity=0 time=0
EXTRACT: note_on channel=1 note=24 velocity=0 time=0
EXTRACT: note_on channel=1 note=31 velocity=113 time=0.0025201614583333335
EXTRACT: note_on channel=2 note=43 velocity=119 time=0
EXTRACT: note_on channel=13 note=43 velocity=101 time=0
EXTRACT: note_on channel=5 note=55 velocity=98 time=0.005040322916666667
EXTRACT: note_on channel=6 note=58 velocity=100 time=0
EXTRACT: note_on channel=6 note=72 velocity=80 time=0
EXTRACT: note_on channel=9 note=35 velocity=102 time=0
EXTRACT: note_on channel=9 note=86 velocity=119 time=0
EXTRACT: note_on channel=12 note=23 velocity=102 time=0
EXTRACT: note_on channel=15 note=55 velocity=1 time=0
EXTRACT: note_on channel=15 note=58 velocity=1 time=0
EXTRACT: note_on channel=15 note=72 velocity=1 time=0
EXTRACT: note_on channel=6 note=56 velocity=0 time=0.0025201614583333335
EXTRACT: note_on channel=15 note=56 velocity=0 time=0
EXTRACT: note_on channel=4 note=70 velocity=113 time=0
EXTRACT: note_on channel=7 note=70 velocity=87 time=0
EXTRACT: note_on channel=9 note=58 velocity=76 time=0
EXTRACT: note_on channel=9 note=59 velocity=70 time=0
EXTRACT: note_on channel=9 note=64 velocity=102 time=0
EXTRACT: note_on channel=9 note=72 velocity=46 time=0
EXTRACT: note_on channel=9 note=82 velocity=79 time=0
EXTRACT: note_on channel=15 note=70 velocity=1 time=0
EXTRACT: note_on channel=9 note=35 velocity=0 time=0.007560484375000001
EXTRACT: note_on channel=9 note=86 velocity=0 time=0
EXTRACT: note_on channel=9 note=59 velocity=0 time=0.0025201614583333335
EXTRACT: note_on channel=9 note=82 velocity=0 time=0
EXTRACT: note_on channel=9 note=72 velocity=0 time=0
EXTRACT: note_on channel=9 note=58 velocity=0 time=0
EXTRACT: note_on channel=9 note=64 velocity=0 time=0
EXTRACT: note_on channel=7 note=68 velocity=0 time=0.0025201614583333335
EXTRACT: note_on channel=15 note=68 velocity=0 time=0.005040322916666667
EXTRACT: note_on channel=4 note=68 velocity=0 time=0
EXTRACT: note_on channel=12 note=23 velocity=0 time=0.012600807291666667
EXTRACT: note_on channel=9 note=82 velocity=67 time=0.0907258125
EXTRACT: note_on channel=9 note=86 velocity=104 time=0.005040322916666667
EXTRACT: note_on channel=9 note=82 velocity=0 time=0.005040322916666667
EXTRACT: note_on channel=9 note=86 velocity=0 time=0.005040322916666667
EXTRACT: note_on channel=9 note=46 velocity=60 time=0.10584678125000001
EXTRACT: note_on channel=9 note=63 velocity=113 time=0
EXTRACT: note_on channel=9 note=82 velocity=54 time=0
EXTRACT: note_on channel=9 note=82 velocity=0 time=0.010080645833333334
EXTRACT: note_on channel=9 note=63 velocity=0 time=0
EXTRACT: note_on channel=9 note=46 velocity=0 time=0
EXTRACT: note_on channel=2 note=43 velocity=0 time=0.05796371354166667
EXTRACT: note_on channel=1 note=31 velocity=0 time=0
EXTRACT: note_on channel=13 note=43 velocity=0 time=0
EXTRACT: note_on channel=1 note=28 velocity=107 time=0.03276209895833333
EXTRACT: note_on channel=2 note=40 velocity=113 time=0
EXTRACT: note_on channel=13 note=40 velocity=95 time=0
EXTRACT: note_on channel=9 note=58 velocity=68 time=0.020161291666666668
EXTRACT: note_on channel=9 note=82 velocity=42 time=0
EXTRACT: note_on channel=9 note=82 velocity=0 time=0.010080645833333334
EXTRACT: note_on channel=9 note=58 velocity=0 time=0
EXTRACT: note_on channel=9 note=76 velocity=80 time=0.010080645833333334
EXTRACT: note_on channel=9 note=76 velocity=0 time=0.010080645833333334
EXTRACT: note_on channel=15 note=70 velocity=0 time=0.060483875000000006
EXTRACT: note_on channel=4 note=70 velocity=0 time=0
EXTRACT: note_on channel=10 note=55 velocity=83 time=0.007560484375000001
EXTRACT: note_on channel=10 note=58 velocity=0 time=0.007560484375000001
EXTRACT: note_on channel=7 note=70 velocity=0 time=0.007560484375000001
EXTRACT: note_on channel=15 note=55 velocity=0 time=0.0025201614583333335
EXTRACT: note_on channel=5 note=55 velocity=0 time=0
EXTRACT: note_on channel=5 note=52 velocity=93 time=0.0025201614583333335
EXTRACT: note_on channel=6 note=55 velocity=102 time=0
EXTRACT: note_on channel=6 note=70 velocity=76 time=0
EXTRACT: note_on channel=9 note=40 velocity=120 time=0
EXTRACT: note_on channel=15 note=52 velocity=1 time=0
EXTRACT: note_on channel=15 note=55 velocity=1 time=0
EXTRACT: note_on channel=15 note=70 velocity=1 time=0
EXTRACT: note_on channel=15 note=58 velocity=0 time=0.0025201614583333335
EXTRACT: note_on channel=6 note=58 velocity=0 time=0
EXTRACT: note_on channel=4 note=67 velocity=107 time=0
EXTRACT: note_on channel=7 note=67 velocity=84 time=0
EXTRACT: note_on channel=9 note=59 velocity=70 time=0
EXTRACT: note_on channel=9 note=62 velocity=119 time=0
EXTRACT: note_on channel=9 note=72 velocity=20 time=0
EXTRACT: note_on channel=9 note=82 velocity=79 time=0
EXTRACT: note_on channel=15 note=67 velocity=1 time=0
EXTRACT: note_on channel=6 note=72 velocity=0 time=0.005040322916666667
EXTRACT: note_on channel=15 note=72 velocity=0 time=0
EXTRACT: note_on channel=9 note=40 velocity=0 time=0.0025201614583333335
EXTRACT: note_on channel=9 note=82 velocity=0 time=0.0025201614583333335
EXTRACT: note_on channel=9 note=72 velocity=0 time=0
EXTRACT: note_on channel=9 note=62 velocity=0 time=0
EXTRACT: note_on channel=9 note=59 velocity=0 time=0
EXTRACT: note_on channel=9 note=82 velocity=68 time=0.11088710416666667
EXTRACT: note_on channel=9 note=82 velocity=0 time=0.010080645833333334
EXTRACT: note_on channel=2 note=40 velocity=0 time=0.04284274479166667
EXTRACT: note_on channel=1 note=28 velocity=0 time=0
EXTRACT: note_on channel=13 note=40 velocity=0 time=0
EXTRACT: note_on channel=1 note=24 velocity=107 time=0.040322583333333335
EXTRACT: note_on channel=2 note=36 velocity=113 time=0
EXTRACT: note_on channel=13 note=36 velocity=95 time=0
EXTRACT: note_on channel=9 note=35 velocity=85 time=0.025201614583333334
EXTRACT: note_on channel=9 note=86 velocity=108 time=0
EXTRACT: note_on channel=12 note=23 velocity=85 time=0
EXTRACT: note_on channel=9 note=46 velocity=52 time=0.0025201614583333335
EXTRACT: note_on channel=9 note=58 velocity=68 time=0
EXTRACT: note_on channel=9 note=61 velocity=107 time=0
EXTRACT: note_on channel=9 note=82 velocity=54 time=0
EXTRACT: note_on channel=9 note=86 velocity=0 time=0.007560484375000001
EXTRACT: note_on channel=9 note=35 velocity=0 time=0
EXTRACT: note_on channel=9 note=76 velocity=80 time=0
EXTRACT: note_on channel=9 note=82 velocity=0 time=0.0025201614583333335
EXTRACT: note_on channel=9 note=58 velocity=0 time=0
EXTRACT: note_on channel=9 note=46 velocity=0 time=0
EXTRACT: note_on channel=9 note=61 velocity=0 time=0
EXTRACT: note_on channel=9 note=76 velocity=0 time=0.007560484375000001
EXTRACT: note_on channel=12 note=23 velocity=0 time=0.012600807291666667
EXTRACT: note_on channel=9 note=86 velocity=99 time=0.07812500520833333
EXTRACT: note_on channel=9 note=35 velocity=85 time=0.007560484375000001
EXTRACT: note_on channel=12 note=23 velocity=85 time=0
EXTRACT: note_on channel=9 note=86 velocity=0 time=0.0025201614583333335
EXTRACT: note_on channel=9 note=61 velocity=107 time=0.0025201614583333335
EXTRACT: note_on channel=9 note=72 velocity=46 time=0
EXTRACT: note_on channel=9 note=82 velocity=45 time=0
EXTRACT: note_on channel=9 note=35 velocity=0 time=0.005040322916666667
EXTRACT: note_on channel=9 note=82 velocity=0 time=0.005040322916666667
EXTRACT: note_on channel=9 note=72 velocity=0 time=0
EXTRACT: note_on channel=9 note=61 velocity=0 time=0
EXTRACT: note_on channel=12 note=23 velocity=0 time=0.017641130208333335
EXTRACT: note_on channel=10 note=52 velocity=74 time=0.07056452083333334
EXTRACT: note_on channel=10 note=55 velocity=0 time=0.007560484375000001
EXTRACT: note_on channel=9 note=86 velocity=108 time=0.005040322916666667
EXTRACT: note_on channel=2 note=36 velocity=0 time=0.0025201614583333335
EXTRACT: note_on channel=1 note=24 velocity=0 time=0
EXTRACT: note_on channel=13 note=36 velocity=0 time=0
EXTRACT: note_on channel=1 note=22 velocity=101 time=0
EXTRACT: note_on channel=2 note=34 velocity=107 time=0
EXTRACT: note_on channel=13 note=34 velocity=89 time=0
EXTRACT: note_on channel=5 note=48 velocity=89 time=0.005040322916666667
EXTRACT: note_on channel=6 note=52 velocity=99 time=0
EXTRACT: note_on channel=6 note=67 velocity=93 time=0
EXTRACT: note_on channel=15 note=48 velocity=1 time=0
EXTRACT: note_on channel=15 note=70 velocity=0 time=0.0025201614583333335
EXTRACT: note_on channel=6 note=70 velocity=0 time=0
EXTRACT: note_on channel=9 note=86 velocity=0 time=0
EXTRACT: note_on channel=4 note=64 velocity=113 time=0
EXTRACT: note_on channel=7 note=64 velocity=79 time=0
EXTRACT: note_on channel=9 note=59 velocity=70 time=0
EXTRACT: note_on channel=9 note=82 velocity=78 time=0
EXTRACT: note_on channel=15 note=64 velocity=1 time=0
EXTRACT: note_on channel=6 note=55 velocity=0 time=0.007560484375000001
EXTRACT: note_on channel=15 note=55 velocity=0 time=0
EXTRACT: note_on channel=7 note=67 velocity=0 time=0
EXTRACT: note_on channel=9 note=82 velocity=0 time=0.0025201614583333335
EXTRACT: note_on channel=9 note=59 velocity=0 time=0
EXTRACT: note_on channel=5 note=52 velocity=0 time=0.005040322916666667
EXTRACT: note_on channel=4 note=67 velocity=0 time=0.010080645833333334
EXTRACT: note_on channel=9 note=86 velocity=113 time=0.08568548958333334
EXTRACT: note_on channel=9 note=86 velocity=0 time=0.010080645833333334
EXTRACT: note_on channel=9 note=40 velocity=98 time=0
EXTRACT: note_on channel=9 note=58 velocity=64 time=0
EXTRACT: note_on channel=9 note=61 velocity=102 time=0
EXTRACT: note_on channel=9 note=82 velocity=68 time=0
EXTRACT: note_on channel=12 note=23 velocity=89 time=0.0025201614583333335
EXTRACT: note_on channel=9 note=82 velocity=0 time=0.007560484375000001
EXTRACT: note_on channel=9 note=61 velocity=0 time=0
EXTRACT: note_on channel=9 note=58 velocity=0 time=0
EXTRACT: note_on channel=9 note=40 velocity=0 time=0
EXTRACT: note_on channel=12 note=23 velocity=0 time=0.025201614583333334
EXTRACT: note_on channel=9 note=35 velocity=102 time=0.08316532812500001
EXTRACT: note_on channel=12 note=23 velocity=102 time=0
EXTRACT: note_on channel=9 note=46 velocity=60 time=0.0025201614583333335
EXTRACT: note_on channel=9 note=72 velocity=42 time=0
EXTRACT: note_on channel=9 note=82 velocity=58 time=0
EXTRACT: note_on channel=9 note=35 velocity=0 time=0.007560484375000001
EXTRACT: note_on channel=9 note=82 velocity=0 time=0.0025201614583333335
EXTRACT: note_on channel=9 note=72 velocity=0 time=0
EXTRACT: note_on channel=9 note=46 velocity=0 time=0
EXTRACT: note_on channel=12 note=23 velocity=0 time=0.020161291666666668
EXTRACT: note_on channel=2 note=34 velocity=0 time=0.05796371354166667
EXTRACT: note_on channel=13 note=34 velocity=0 time=0
EXTRACT: note_on channel=1 note=22 velocity=0 time=0
EXTRACT: note_on channel=1 note=24 velocity=107 time=0.020161291666666668
EXTRACT: note_on channel=2 note=36 velocity=113 time=0
EXTRACT: note_on channel=13 note=36 velocity=95 time=0
EXTRACT: note_on channel=9 note=40 velocity=89 time=0.0025201614583333335
EXTRACT: note_on channel=9 note=76 velocity=80 time=0.007560484375000001
EXTRACT: note_on channel=9 note=40 velocity=0 time=0.0025201614583333335
EXTRACT: note_on channel=9 note=61 velocity=107 time=0
EXTRACT: note_on channel=9 note=82 velocity=42 time=0
EXTRACT: note_on channel=9 note=76 velocity=0 time=0.007560484375000001
EXTRACT: note_on channel=9 note=82 velocity=0 time=0.0025201614583333335
EXTRACT: note_on channel=9 note=61 velocity=0 time=0
EXTRACT: note_on channel=7 note=64 velocity=0 time=0.098286296875
EXTRACT: note_on channel=10 note=55 velocity=72 time=0.005040322916666667
EXTRACT: note_on channel=9 note=40 velocity=120 time=0.007560484375000001
EXTRACT: note_on channel=9 note=58 velocity=72 time=0
EXTRACT: note_on channel=9 note=59 velocity=70 time=0
EXTRACT: note_on channel=9 note=62 velocity=113 time=0
EXTRACT: note_on channel=9 note=72 velocity=29 time=0
EXTRACT: note_on channel=9 note=82 velocity=78 time=0
EXTRACT: note_on channel=10 note=52 velocity=0 time=0.007560484375000001
EXTRACT: note_on channel=9 note=59 velocity=0 time=0.0025201614583333335
EXTRACT: note_on channel=9 note=82 velocity=0 time=0
EXTRACT: note_on channel=9 note=72 velocity=0 time=0
EXTRACT: note_on channel=9 note=62 velocity=0 time=0
EXTRACT: note_on channel=9 note=58 velocity=0 time=0
EXTRACT: note_on channel=9 note=40 velocity=0 time=0
EXTRACT: note_on channel=4 note=64 velocity=0 time=0.04536290625
EXTRACT: note_on channel=15 note=64 velocity=0 time=0
EXTRACT: note_on channel=5 note=48 velocity=0 time=0.017641130208333335
EXTRACT: note_on channel=15 note=48 velocity=0 time=0
EXTRACT: note_on channel=6 note=52 velocity=0 time=0.0025201614583333335
EXTRACT: note_on channel=6 note=67 velocity=0 time=0
EXTRACT: note_on channel=15 note=67 velocity=0 time=0
EXTRACT: note_on channel=15 note=52 velocity=0 time=0
EXTRACT: note_on channel=9 note=82 velocity=64 time=0.04536290625
EXTRACT: note_on channel=9 note=82 velocity=0 time=0.010080645833333334
EXTRACT: note_on channel=1 note=24 velocity=0 time=0.06552419791666667
EXTRACT: note_on channel=2 note=36 velocity=0 time=0
EXTRACT: note_on channel=13 note=36 velocity=0 time=0
EXTRACT: note_on channel=1 note=28 velocity=107 time=0.025201614583333334
EXTRACT: note_on channel=2 note=40 velocity=113 time=0
EXTRACT: note_on channel=13 note=40 velocity=95 time=0
EXTRACT: note_on channel=9 note=46 velocity=53 time=0.020161291666666668
EXTRACT: note_on channel=9 note=63 velocity=102 time=0
EXTRACT: note_on channel=9 note=72 velocity=47 time=0
EXTRACT: note_on channel=9 note=82 velocity=51 time=0
EXTRACT: note_on channel=9 note=35 velocity=93 time=0.0025201614583333335
EXTRACT: note_on channel=12 note=23 velocity=93 time=0
EXTRACT: note_on channel=9 note=76 velocity=80 time=0.0025201614583333335
EXTRACT: note_on channel=9 note=82 velocity=0 time=0.005040322916666667
EXTRACT: note_on channel=9 note=72 velocity=0 time=0
EXTRACT: note_on channel=9 note=63 velocity=0 time=0
EXTRACT: note_on channel=9 note=46 velocity=0 time=0
EXTRACT: note_on channel=9 note=35 velocity=0 time=0.0025201614583333335
EXTRACT: note_on channel=9 note=76 velocity=0 time=0.0025201614583333335
EXTRACT: note_on channel=12 note=23 velocity=0 time=0.020161291666666668
EXTRACT: note_on channel=9 note=82 velocity=43 time=0.08568548958333334
EXTRACT: note_on channel=9 note=82 velocity=0 time=0.010080645833333334
EXTRACT: note_on channel=10 note=55 velocity=0 time=0.012600807291666667
EXTRACT: note_on channel=13 note=40 velocity=0 time=0.07812500520833333
EXTRACT: note_on channel=1 note=28 velocity=0 time=0
EXTRACT: note_on channel=2 note=40 velocity=0 time=0
EXTRACT: note_on channel=4 note=65 velocity=107 time=0.020161291666666668
EXTRACT: note_on channel=4 note=72 velocity=127 time=0
EXTRACT: note_on channel=5 note=56 velocity=107 time=0
EXTRACT: note_on channel=6 note=60 velocity=119 time=0
EXTRACT: note_on channel=7 note=65 velocity=93 time=0
EXTRACT: note_on channel=7 note=68 velocity=107 time=0
EXTRACT: note_on channel=7 note=72 velocity=93 time=0
EXTRACT: note_on channel=9 note=49 velocity=58 time=0
EXTRACT: note_on channel=9 note=64 velocity=89 time=0
EXTRACT: note_on channel=9 note=82 velocity=79 time=0
EXTRACT: note_on channel=9 note=86 velocity=113 time=0
EXTRACT: note_on channel=10 note=60 velocity=100 time=0
EXTRACT: note_on channel=15 note=56 velocity=1 time=0
EXTRACT: note_on channel=15 note=60 velocity=1 time=0
EXTRACT: note_on channel=15 note=65 velocity=1 time=0
EXTRACT: note_on channel=15 note=72 velocity=1 time=0
EXTRACT: note_on channel=1 note=32 velocity=106 time=0.0025201614583333335
EXTRACT: note_on channel=9 note=35 velocity=113 time=0.0025201614583333335
EXTRACT: note_on channel=12 note=23 velocity=113 time=0
EXTRACT: note_on channel=2 note=44 velocity=117 time=0.0025201614583333335
EXTRACT: note_on channel=13 note=44 velocity=97 time=0
EXTRACT: note_on channel=9 note=86 velocity=0 time=0.0025201614583333335
EXTRACT: note_on channel=9 note=82 velocity=0 time=0
EXTRACT: note_on channel=9 note=64 velocity=0 time=0
EXTRACT: note_on channel=9 note=49 velocity=0 time=0
EXTRACT: note_on channel=9 note=35 velocity=0 time=0.005040322916666667
EXTRACT: note_on channel=6 note=60 velocity=0 time=0.022681453125
EXTRACT: note_on channel=15 note=72 velocity=0 time=0
EXTRACT: note_on channel=15 note=56 velocity=0 time=0
EXTRACT: note_on channel=7 note=65 velocity=0 time=0
EXTRACT: note_on channel=4 note=72 velocity=0 time=0
EXTRACT: note_on channel=7 note=72 velocity=0 time=0
EXTRACT: note_on channel=4 note=65 velocity=0 time=0
EXTRACT: note_on channel=12 note=23 velocity=0 time=0
EXTRACT: note_on channel=5 note=56 velocity=0 time=0
EXTRACT: note_on channel=15 note=65 velocity=0 time=0
EXTRACT: note_on channel=15 note=60 velocity=0 time=0
EXTRACT: note_on channel=7 note=68 velocity=0 time=0
EXTRACT: note_on channel=5 note=56 velocity=102 time=0.08064516666666667
EXTRACT: note_on channel=6 note=60 velocity=113 time=0
EXTRACT: note_on channel=9 note=86 velocity=99 time=0
EXTRACT: note_on channel=15 note=56 velocity=1 time=0
EXTRACT: note_on channel=15 note=60 velocity=1 time=0
EXTRACT: note_on channel=4 note=65 velocity=93 time=0.0025201614583333335
EXTRACT: note_on channel=4 note=72 velocity=113 time=0
EXTRACT: note_on channel=7 note=65 velocity=98 time=0
EXTRACT: note_on channel=7 note=68 velocity=107 time=0
EXTRACT: note_on channel=7 note=72 velocity=107 time=0
EXTRACT: note_on channel=9 note=82 velocity=67 time=0
EXTRACT: note_on channel=15 note=65 velocity=1 time=0
EXTRACT: note_on channel=15 note=72 velocity=1 time=0
EXTRACT: note_on channel=9 note=86 velocity=0 time=0.007560484375000001
EXTRACT: note_on channel=9 note=82 velocity=0 time=0.0025201614583333335
EXTRACT: note_on channel=15 note=60 velocity=0 time=0.025201614583333334
EXTRACT: note_on channel=15 note=56 velocity=0 time=0
EXTRACT: note_on channel=6 note=60 velocity=0 time=0
EXTRACT: note_on channel=5 note=56 velocity=0 time=0
EXTRACT: note_on channel=15 note=65 velocity=0 time=0.0025201614583333335
EXTRACT: note_on channel=4 note=65 velocity=0 time=0
EXTRACT: note_on channel=15 note=72 velocity=0 time=0
EXTRACT: note_on channel=4 note=72 velocity=0 time=0
EXTRACT: note_on channel=7 note=65 velocity=0 time=0
EXTRACT: note_on channel=7 note=72 velocity=0 time=0
EXTRACT: note_on channel=7 note=68 velocity=0 time=0
EXTRACT: note_on channel=5 note=56 velocity=72 time=0.08064516666666667
EXTRACT: note_on channel=6 note=60 velocity=107 time=0
EXTRACT: note_on channel=15 note=56 velocity=1 time=0
EXTRACT: note_on channel=15 note=60 velocity=1 time=0
EXTRACT: note_on channel=4 note=65 velocity=107 time=0.0025201614583333335
EXTRACT: note_on channel=4 note=72 velocity=102 time=0
EXTRACT: note_on channel=7 note=65 velocity=85 time=0
EXTRACT: note_on channel=7 note=68 velocity=107 time=0
EXTRACT: note_on channel=7 note=72 velocity=93 time=0
EXTRACT: note_on channel=9 note=46 velocity=60 time=0
EXTRACT: note_on channel=9 note=63 velocity=89 time=0
EXTRACT: note_on channel=9 note=82 velocity=54 time=0
EXTRACT: note_on channel=15 note=65 velocity=1 time=0
EXTRACT: note_on channel=15 note=72 velocity=1 time=0
EXTRACT: note_on channel=9 note=82 velocity=0 time=0.010080645833333334
EXTRACT: note_on channel=9 note=63 velocity=0 time=0
EXTRACT: note_on channel=9 note=46 velocity=0 time=0
EXTRACT: note_on channel=15 note=56 velocity=0 time=0.025201614583333334
EXTRACT: note_on channel=6 note=60 velocity=0 time=0
EXTRACT: note_on channel=15 note=60 velocity=0 time=0
EXTRACT: note_on channel=5 note=56 velocity=0 time=0
EXTRACT: note_on channel=15 note=65 velocity=0 time=0.0025201614583333335
EXTRACT: note_on channel=4 note=72 velocity=0 time=0
EXTRACT: note_on channel=4 note=65 velocity=0 time=0
EXTRACT: note_on channel=15 note=72 velocity=0 time=0
EXTRACT: note_on channel=7 note=65 velocity=0 time=0
EXTRACT: note_on channel=7 note=68 velocity=0 time=0
EXTRACT: note_on channel=7 note=72 velocity=0 time=0
EXTRACT: note_on channel=1 note=32 velocity=0 time=0.05796371354166667
EXTRACT: note_on channel=2 note=44 velocity=0 time=0.005040322916666667
EXTRACT: note_on channel=13 note=44 velocity=0 time=0
EXTRACT: note_on channel=9 note=86 velocity=119 time=0.007560484375000001
EXTRACT: note_on channel=9 note=76 velocity=80 time=0.007560484375000001
EXTRACT: note_on channel=9 note=86 velocity=0 time=0.0025201614583333335
EXTRACT: note_on channel=1 note=29 velocity=107 time=0
EXTRACT: note_on channel=2 note=41 velocity=113 time=0
EXTRACT: note_on channel=5 note=56 velocity=107 time=0
EXTRACT: note_on channel=6 note=60 velocity=113 time=0
EXTRACT: note_on channel=13 note=41 velocity=95 time=0
EXTRACT: note_on channel=15 note=56 velocity=1 time=0
EXTRACT: note_on channel=15 note=60 velocity=1 time=0
EXTRACT: note_on channel=4 note=65 velocity=93 time=0.0025201614583333335
EXTRACT: note_on channel=4 note=72 velocity=102 time=0
EXTRACT: note_on channel=7 note=65 velocity=72 time=0
EXTRACT: note_on channel=7 note=68 velocity=102 time=0
EXTRACT: note_on channel=7 note=72 velocity=93 time=0
EXTRACT: note_on channel=9 note=82 velocity=42 time=0
EXTRACT: note_on channel=15 note=65 velocity=1 time=0
EXTRACT: note_on channel=15 note=72 velocity=1 time=0
EXTRACT: note_on channel=9 note=76 velocity=0 time=0.005040322916666667
EXTRACT: note_on channel=9 note=82 velocity=0 time=0.005040322916666667
EXTRACT: note_on channel=15 note=60 velocity=0 time=0.025201614583333334
EXTRACT: note_on channel=15 note=56 velocity=0 time=0
EXTRACT: note_on channel=5 note=56 velocity=0 time=0
EXTRACT: note_on channel=6 note=60 velocity=0 time=0
EXTRACT: note_on channel=7 note=72 velocity=0 time=0.0025201614583333335
EXTRACT: note_on channel=4 note=65 velocity=0 time=0
EXTRACT: note_on channel=15 note=72 velocity=0 time=0
EXTRACT: note_on channel=4 note=72 velocity=0 time=0
EXTRACT: note_on channel=7 note=65 velocity=0 time=0
EXTRACT: note_on channel=15 note=65 velocity=0 time=0
EXTRACT: note_on channel=7 note=68 velocity=0 time=0
EXTRACT: note_on channel=5 note=56 velocity=93 time=0.08064516666666667
EXTRACT: note_on channel=6 note=60 velocity=113 time=0
EXTRACT: note_on channel=15 note=56 velocity=1 time=0
EXTRACT: note_on channel=15 note=60 velocity=1 time=0
EXTRACT: note_on channel=4 note=65 velocity=119 time=0.0025201614583333335
EXTRACT: note_on channel=4 note=72 velocity=127 time=0
EXTRACT: note_on channel=7 note=65 velocity=79 time=0
EXTRACT: note_on channel=7 note=68 velocity=76 time=0
EXTRACT: note_on channel=7 note=72 velocity=84 time=0
EXTRACT: note_on channel=9 note=59 velocity=70 time=0
EXTRACT: note_on channel=9 note=62 velocity=113 time=0
EXTRACT: note_on channel=9 note=82 velocity=79 time=0
EXTRACT: note_on channel=15 note=65 velocity=1 time=0
EXTRACT: note_on channel=15 note=72 velocity=1 time=0
EXTRACT: note_on channel=9 note=40 velocity=120 time=0.007560484375000001
EXTRACT: note_on channel=9 note=82 velocity=0 time=0.0025201614583333335
EXTRACT: note_on channel=9 note=62 velocity=0 time=0
EXTRACT: note_on channel=9 note=59 velocity=0 time=0
EXTRACT: note_on channel=9 note=40 velocity=0 time=0.007560484375000001
EXTRACT: note_on channel=9 note=82 velocity=68 time=0.10332661979166667
EXTRACT: note_on channel=9 note=82 velocity=0 time=0.010080645833333334
EXTRACT: note_on channel=13 note=41 velocity=0 time=0.07812500520833333
EXTRACT: note_on channel=1 note=29 velocity=0 time=0
EXTRACT: note_on channel=2 note=41 velocity=0 time=0
EXTRACT: note_on channel=15 note=72 velocity=0 time=0.022681453125
EXTRACT: note_on channel=4 note=72 velocity=0 time=0
EXTRACT: note_on channel=1 note=24 velocity=107 time=0
EXTRACT: note_on channel=2 note=36 velocity=113 time=0
EXTRACT: note_on channel=13 note=36 velocity=95 time=0
EXTRACT: note_on channel=15 note=65 velocity=0 time=0.005040322916666667
EXTRACT: note_on channel=4 note=65 velocity=0 time=0
EXTRACT: note_on channel=3 note=72 velocity=101 time=0.005040322916666667
EXTRACT: note_on channel=9 note=46 velocity=56 time=0
EXTRACT: note_on channel=9 note=61 velocity=93 time=0
EXTRACT: note_on channel=9 note=82 velocity=54 time=0
EXTRACT: note_on channel=9 note=76 velocity=80 time=0.0025201614583333335
EXTRACT: note_on channel=9 note=35 velocity=89 time=0.005040322916666667
EXTRACT: note_on channel=12 note=23 velocity=89 time=0
EXTRACT: note_on channel=9 note=82 velocity=0 time=0.0025201614583333335
EXTRACT: note_on channel=9 note=61 velocity=0 time=0
EXTRACT: note_on channel=9 note=46 velocity=0 time=0
EXTRACT: note_on channel=9 note=86 velocity=108 time=0
EXTRACT: note_on channel=9 note=76 velocity=0 time=0.0025201614583333335
EXTRACT: note_on channel=9 note=35 velocity=0 time=0.005040322916666667
EXTRACT: note_on channel=9 note=86 velocity=0 time=0.0025201614583333335
EXTRACT: note_on channel=6 note=60 velocity=0 time=0.015120968750000002
EXTRACT: note_on channel=15 note=60 velocity=0 time=0
EXTRACT: note_on channel=12 note=23 velocity=0 time=0.005040322916666667
EXTRACT: note_on channel=3 note=72 velocity=0 time=0.0025201614583333335
EXTRACT: note_on channel=5 note=56 velocity=0 time=0.017641130208333335
EXTRACT: note_on channel=15 note=56 velocity=0 time=0
EXTRACT: note_on channel=7 note=68 velocity=0 time=0.010080645833333334
EXTRACT: note_on channel=7 note=72 velocity=0 time=0.015120968750000002
EXTRACT: note_on channel=7 note=65 velocity=0 time=0
EXTRACT: note_on channel=3 note=72 velocity=80 time=0.03528226041666667
EXTRACT: note_on channel=9 note=61 velocity=93 time=0
EXTRACT: note_on channel=9 note=82 velocity=45 time=0
EXTRACT: note_on channel=9 note=35 velocity=85 time=0.005040322916666667
EXTRACT: note_on channel=9 note=86 velocity=99 time=0
EXTRACT: note_on channel=12 note=23 velocity=85 time=0
EXTRACT: note_on channel=9 note=82 velocity=0 time=0.005040322916666667
EXTRACT: note_on channel=9 note=61 velocity=0 time=0
EXTRACT: note_on channel=9 note=86 velocity=0 time=0.005040322916666667
EXTRACT: note_on channel=9 note=35 velocity=0 time=0
EXTRACT: note_on channel=12 note=23 velocity=0 time=0.022681453125
EXTRACT: note_on channel=3 note=72 velocity=0 time=0.017641130208333335
EXTRACT: note_on channel=3 note=72 velocity=106 time=0.06552419791666667
EXTRACT: note_on channel=9 note=59 velocity=70 time=0
EXTRACT: note_on channel=9 note=82 velocity=78 time=0
EXTRACT: note_on channel=9 note=86 velocity=113 time=0.0025201614583333335
EXTRACT: note_on channel=9 note=82 velocity=0 time=0.007560484375000001
EXTRACT: note_on channel=9 note=59 velocity=0 time=0
EXTRACT: note_on channel=9 note=86 velocity=0 time=0.0025201614583333335
EXTRACT: note_on channel=3 note=72 velocity=0 time=0.03276209895833333
EXTRACT: note_on channel=10 note=60 velocity=0 time=0.037802421875
EXTRACT: note_on channel=3 note=72 velocity=106 time=0.037802421875
EXTRACT: note_on channel=9 note=61 velocity=93 time=0
EXTRACT: note_on channel=9 note=82 velocity=68 time=0
EXTRACT: note_on channel=9 note=35 velocity=85 time=0.005040322916666667
EXTRACT: note_on channel=9 note=86 velocity=108 time=0
EXTRACT: note_on channel=12 note=23 velocity=85 time=0
EXTRACT: note_on channel=9 note=82 velocity=0 time=0.005040322916666667
EXTRACT: note_on channel=9 note=61 velocity=0 time=0
EXTRACT: note_on channel=9 note=86 velocity=0 time=0.005040322916666667
EXTRACT: note_on channel=9 note=35 velocity=0 time=0
EXTRACT: note_on channel=12 note=23 velocity=0 time=0.022681453125
EXTRACT: note_on channel=3 note=72 velocity=0 time=0.010080645833333334
EXTRACT: note_on channel=1 note=32 velocity=107 time=0.06552419791666667
EXTRACT: note_on channel=2 note=44 velocity=113 time=0
EXTRACT: note_on channel=13 note=44 velocity=95 time=0
EXTRACT: note_on channel=10 note=60 velocity=102 time=0.0025201614583333335
EXTRACT: note_on channel=3 note=72 velocity=106 time=0.005040322916666667
EXTRACT: note_on channel=9 note=46 velocity=60 time=0
EXTRACT: note_on channel=9 note=82 velocity=58 time=0
EXTRACT: note_on channel=9 note=35 velocity=85 time=0.005040322916666667
EXTRACT: note_on channel=12 note=23 velocity=85 time=0
EXTRACT: note_on channel=9 note=82 velocity=0 time=0.005040322916666667
EXTRACT: note_on channel=9 note=46 velocity=0 time=0
EXTRACT: note_on channel=1 note=24 velocity=0 time=0.0025201614583333335
EXTRACT: note_on channel=2 note=36 velocity=0 time=0
EXTRACT: note_on channel=13 note=36 velocity=0 time=0
EXTRACT: note_on channel=9 note=35 velocity=0 time=0.0025201614583333335
EXTRACT: note_on channel=12 note=23 velocity=0 time=0.022681453125
EXTRACT: note_on channel=3 note=72 velocity=0 time=0.05796371354166667
EXTRACT: note_on channel=9 note=86 velocity=113 time=0.017641130208333335
EXTRACT: note_on channel=9 note=76 velocity=80 time=0.005040322916666667
EXTRACT: note_on channel=3 note=73 velocity=83 time=0.0025201614583333335
EXTRACT: note_on channel=9 note=61 velocity=93 time=0
EXTRACT: note_on channel=9 note=72 velocity=21 time=0
EXTRACT: note_on channel=9 note=82 velocity=42 time=0
EXTRACT: note_on channel=9 note=86 velocity=0 time=0.0025201614583333335
EXTRACT: note_on channel=9 note=76 velocity=0 time=0.005040322916666667
EXTRACT: note_on channel=9 note=82 velocity=0 time=0.0025201614583333335
EXTRACT: note_on channel=9 note=61 velocity=0 time=0
EXTRACT: note_on channel=9 note=72 velocity=0 time=0
EXTRACT: note_on channel=9 note=40 velocity=120 time=0.11088710416666667
EXTRACT: note_on channel=9 note=59 velocity=70 time=0
EXTRACT: note_on channel=9 note=62 velocity=107 time=0
EXTRACT: note_on channel=9 note=82 velocity=78 time=0
EXTRACT: note_on channel=10 note=61 velocity=98 time=0
EXTRACT: note_on channel=1 note=29 velocity=113 time=0.0025201614583333335
EXTRACT: note_on channel=2 note=41 velocity=119 time=0
EXTRACT: note_on channel=13 note=41 velocity=101 time=0
EXTRACT: note_on channel=13 note=44 velocity=0 time=0.0025201614583333335
EXTRACT: note_on channel=3 note=73 velocity=0 time=0
EXTRACT: note_on channel=2 note=44 velocity=0 time=0
EXTRACT: note_on channel=1 note=32 velocity=0 time=0
EXTRACT: note_on channel=9 note=62 velocity=0 time=0.005040322916666667
EXTRACT: note_on channel=9 note=82 velocity=0 time=0
EXTRACT: note_on channel=9 note=40 velocity=0 time=0
EXTRACT: note_on channel=9 note=59 velocity=0 time=0
EXTRACT: note_on channel=10 note=60 velocity=0 time=0.0025201614583333335
EXTRACT: note_on channel=3 note=72 velocity=101 time=0.10836694270833334
EXTRACT: note_on channel=9 note=82 velocity=64 time=0
EXTRACT: note_on channel=9 note=82 velocity=0 time=0.010080645833333334
EXTRACT: note_on channel=1 note=29 velocity=0 time=0.10080645833333333
EXTRACT: note_on channel=13 note=41 velocity=0 time=0
EXTRACT: note_on channel=2 note=41 velocity=0 time=0
EXTRACT: note_on channel=10 note=61 velocity=0 time=0.0025201614583333335
EXTRACT: note_on channel=1 note=24 velocity=107 time=0.005040322916666667
EXTRACT: note_on channel=2 note=36 velocity=113 time=0
EXTRACT: note_on channel=10 note=60 velocity=98 time=0
EXTRACT: note_on channel=13 note=36 velocity=95 time=0
EXTRACT: note_on channel=9 note=46 velocity=56 time=0.0025201614583333335
EXTRACT: note_on channel=9 note=63 velocity=89 time=0
EXTRACT: note_on channel=9 note=82 velocity=51 time=0
EXTRACT: note_on channel=9 note=35 velocity=89 time=0.005040322916666667
EXTRACT: note_on channel=12 note=23 velocity=89 time=0
EXTRACT: note_on channel=9 note=76 velocity=80 time=0.0025201614583333335
EXTRACT: note_on channel=9 note=82 velocity=0 time=0.0025201614583333335
EXTRACT: note_on channel=9 note=63 velocity=0 time=0
EXTRACT: note_on channel=9 note=46 velocity=0 time=0
EXTRACT: note_on channel=9 note=86 velocity=108 time=0.0025201614583333335
EXTRACT: note_on channel=9 note=35 velocity=0 time=0.0025201614583333335
EXTRACT: note_on channel=9 note=76 velocity=0 time=0.0025201614583333335
EXTRACT: note_on channel=9 note=86 velocity=0 time=0.005040322916666667
EXTRACT: note_on channel=12 note=23 velocity=0 time=0.015120968750000002
EXTRACT: note_on channel=9 note=82 velocity=43 time=0.08316532812500001
EXTRACT: note_on channel=9 note=82 velocity=0 time=0.010080645833333334
EXTRACT: note_on channel=3 note=72 velocity=0 time=0
EXTRACT: note_on channel=9 note=86 velocity=95 time=0.005040322916666667
EXTRACT: note_on channel=9 note=86 velocity=0 time=0.010080645833333334
EXTRACT: note_on channel=5 note=55 velocity=107 time=0.09324597395833334
EXTRACT: note_on channel=6 note=60 velocity=119 time=0
EXTRACT: note_on channel=10 note=58 velocity=89 time=0
EXTRACT: note_on channel=15 note=55 velocity=1 time=0
EXTRACT: note_on channel=15 note=60 velocity=1 time=0
EXTRACT: note_on channel=1 note=24 velocity=0 time=0.0025201614583333335
EXTRACT: note_on channel=13 note=36 velocity=0 time=0
EXTRACT: note_on channel=2 note=36 velocity=0 time=0
EXTRACT: note_on channel=4 note=64 velocity=127 time=0
EXTRACT: note_on channel=4 note=70 velocity=107 time=0
EXTRACT: note_on channel=7 note=64 velocity=98 time=0
EXTRACT: note_on channel=7 note=67 velocity=102 time=0
EXTRACT: note_on channel=7 note=70 velocity=102 time=0
EXTRACT: note_on channel=9 note=59 velocity=70 time=0
EXTRACT: note_on channel=9 note=64 velocity=102 time=0
EXTRACT: note_on channel=9 note=82 velocity=79 time=0
EXTRACT: note_on channel=15 note=64 velocity=1 time=0
EXTRACT: note_on channel=15 note=70 velocity=1 time=0
EXTRACT: note_on channel=9 note=35 velocity=102 time=0.005040322916666667
EXTRACT: note_on channel=12 note=23 velocity=102 time=0
EXTRACT: note_on channel=9 note=86 velocity=108 time=0.0025201614583333335
EXTRACT: note_on channel=9 note=82 velocity=0 time=0.0025201614583333335
EXTRACT: note_on channel=9 note=64 velocity=0 time=0
EXTRACT: note_on channel=9 note=59 velocity=0 time=0
EXTRACT: note_on channel=1 note=31 velocity=113 time=0
EXTRACT: note_on channel=2 note=43 velocity=119 time=0
EXTRACT: note_on channel=13 note=43 velocity=101 time=0
EXTRACT: note_on channel=10 note=60 velocity=0 time=0.0025201614583333335
EXTRACT: note_on channel=9 note=35 velocity=0 time=0.0025201614583333335
EXTRACT: note_on channel=9 note=86 velocity=0 time=0.0025201614583333335
EXTRACT: note_on channel=15 note=60 velocity=0 time=0.017641130208333335
EXTRACT: note_on channel=5 note=55 velocity=0 time=0
EXTRACT: note_on channel=6 note=60 velocity=0 time=0
EXTRACT: note_on channel=15 note=55 velocity=0 time=0
EXTRACT: note_on channel=7 note=64 velocity=0 time=0.0025201614583333335
EXTRACT: note_on channel=4 note=70 velocity=0 time=0
EXTRACT: note_on channel=7 note=70 velocity=0 time=0
EXTRACT: note_on channel=15 note=70 velocity=0 time=0
EXTRACT: note_on channel=7 note=67 velocity=0 time=0
EXTRACT: note_on channel=4 note=64 velocity=0 time=0
EXTRACT: note_on channel=12 note=23 velocity=0 time=0
EXTRACT: note_on channel=15 note=64 velocity=0 time=0
EXTRACT: note_on channel=5 note=55 velocity=102 time=0.08064516666666667
EXTRACT: note_on channel=6 note=60 velocity=113 time=0
EXTRACT: note_on channel=15 note=55 velocity=1 time=0
EXTRACT: note_on channel=15 note=60 velocity=1 time=0
EXTRACT: note_on channel=4 note=64 velocity=113 time=0.0025201614583333335
EXTRACT: note_on channel=4 note=70 velocity=93 time=0
EXTRACT: note_on channel=7 note=64 velocity=89 time=0
EXTRACT: note_on channel=7 note=67 velocity=93 time=0
EXTRACT: note_on channel=7 note=70 velocity=93 time=0
EXTRACT: note_on channel=9 note=82 velocity=67 time=0
EXTRACT: note_on channel=15 note=64 velocity=1 time=0
EXTRACT: note_on channel=15 note=70 velocity=1 time=0
EXTRACT: note_on channel=9 note=82 velocity=0 time=0.010080645833333334
EXTRACT: note_on channel=9 note=86 velocity=113 time=0
EXTRACT: note_on channel=9 note=86 velocity=0 time=0.010080645833333334
EXTRACT: note_on channel=15 note=55 velocity=0 time=0.015120968750000002
EXTRACT: note_on channel=15 note=60 velocity=0 time=0
EXTRACT: note_on channel=6 note=60 velocity=0 time=0
EXTRACT: note_on channel=5 note=55 velocity=0 time=0
EXTRACT: note_on channel=15 note=70 velocity=0 time=0.0025201614583333335
EXTRACT: note_on channel=4 note=70 velocity=0 time=0
EXTRACT: note_on channel=4 note=64 velocity=0 time=0
EXTRACT: note_on channel=7 note=64 velocity=0 time=0
EXTRACT: note_on channel=7 note=67 velocity=0 time=0
EXTRACT: note_on channel=15 note=64 velocity=0 time=0
EXTRACT: note_on channel=7 note=70 velocity=0 time=0
EXTRACT: note_on channel=5 note=55 velocity=72 time=0.08064516666666667
EXTRACT: note_on channel=6 note=60 velocity=107 time=0
EXTRACT: note_on channel=15 note=55 velocity=1 time=0
EXTRACT: note_on channel=15 note=60 velocity=1 time=0
EXTRACT: note_on channel=4 note=64 velocity=102 time=0.0025201614583333335
EXTRACT: note_on channel=4 note=70 velocity=107 time=0
EXTRACT: note_on channel=7 note=64 velocity=76 time=0
EXTRACT: note_on channel=7 note=67 velocity=98 time=0
EXTRACT: note_on channel=7 note=70 velocity=102 time=0
EXTRACT: note_on channel=9 note=46 velocity=60 time=0
EXTRACT: note_on channel=9 note=63 velocity=98 time=0
EXTRACT: note_on channel=9 note=72 velocity=43 time=0
EXTRACT: note_on channel=9 note=82 velocity=54 time=0
EXTRACT: note_on channel=15 note=64 velocity=1 time=0
EXTRACT: note_on channel=15 note=70 velocity=1 time=0
EXTRACT: note_on channel=9 note=82 velocity=0 time=0.010080645833333334
EXTRACT: note_on channel=9 note=72 velocity=0 time=0
EXTRACT: note_on channel=9 note=63 velocity=0 time=0
EXTRACT: note_on channel=9 note=46 velocity=0 time=0
EXTRACT: note_on channel=15 note=55 velocity=0 time=0.025201614583333334
EXTRACT: note_on channel=6 note=60 velocity=0 time=0
EXTRACT: note_on channel=15 note=60 velocity=0 time=0
EXTRACT: note_on channel=5 note=55 velocity=0 time=0
EXTRACT: note_on channel=15 note=64 velocity=0 time=0.0025201614583333335
EXTRACT: note_on channel=4 note=70 velocity=0 time=0
EXTRACT: note_on channel=4 note=64 velocity=0 time=0
EXTRACT: note_on channel=15 note=70 velocity=0 time=0
EXTRACT: note_on channel=7 note=64 velocity=0 time=0
EXTRACT: note_on channel=7 note=67 velocity=0 time=0
EXTRACT: note_on channel=7 note=70 velocity=0 time=0
EXTRACT: note_on channel=2 note=43 velocity=0 time=0.04284274479166667
EXTRACT: note_on channel=1 note=31 velocity=0 time=0
EXTRACT: note_on channel=13 note=43 velocity=0 time=0
EXTRACT: note_on channel=1 note=27 velocity=110 time=0.03528226041666667
EXTRACT: note_on channel=2 note=39 velocity=117 time=0
EXTRACT: note_on channel=13 note=39 velocity=97 time=0
EXTRACT: note_on channel=5 note=55 velocity=107 time=0.0025201614583333335
EXTRACT: note_on channel=6 note=60 velocity=113 time=0
EXTRACT: note_on channel=15 note=55 velocity=1 time=0
EXTRACT: note_on channel=15 note=60 velocity=1 time=0
EXTRACT: note_on channel=4 note=64 velocity=102 time=0.0025201614583333335
EXTRACT: note_on channel=4 note=70 velocity=93 time=0
EXTRACT: note_on channel=7 note=64 velocity=89 time=0
EXTRACT: note_on channel=7 note=67 velocity=102 time=0
EXTRACT: note_on channel=7 note=70 velocity=107 time=0
EXTRACT: note_on channel=9 note=82 velocity=42 time=0
EXTRACT: note_on channel=15 note=64 velocity=1 time=0
EXTRACT: note_on channel=15 note=70 velocity=1 time=0
EXTRACT: note_on channel=9 note=86 velocity=113 time=0.005040322916666667
EXTRACT: note_on channel=9 note=82 velocity=0 time=0.005040322916666667
EXTRACT: note_on channel=9 note=86 velocity=0 time=0.005040322916666667
EXTRACT: note_on channel=9 note=76 velocity=80 time=0.007560484375000001
EXTRACT: note_on channel=9 note=76 velocity=0 time=0.010080645833333334
EXTRACT: note_on channel=15 note=55 velocity=0 time=0.0025201614583333335
EXTRACT: note_on channel=15 note=60 velocity=0 time=0
EXTRACT: note_on channel=6 note=60 velocity=0 time=0
EXTRACT: note_on channel=5 note=55 velocity=0 time=0
EXTRACT: note_on channel=4 note=64 velocity=0 time=0.0025201614583333335
EXTRACT: note_on channel=4 note=70 velocity=0 time=0
EXTRACT: note_on channel=15 note=70 velocity=0 time=0
EXTRACT: note_on channel=7 note=64 velocity=0 time=0
EXTRACT: note_on channel=7 note=67 velocity=0 time=0
EXTRACT: note_on channel=15 note=64 velocity=0 time=0
EXTRACT: note_on channel=7 note=70 velocity=0 time=0
EXTRACT: note_on channel=5 note=55 velocity=93 time=0.08064516666666667
EXTRACT: note_on channel=6 note=60 velocity=113 time=0
EXTRACT: note_on channel=15 note=55 velocity=1 time=0
EXTRACT: note_on channel=15 note=60 velocity=1 time=0
EXTRACT: note_on channel=4 note=64 velocity=119 time=0.0025201614583333335
EXTRACT: note_on channel=4 note=70 velocity=127 time=0
EXTRACT: note_on channel=7 note=64 velocity=75 time=0
EXTRACT: note_on channel=7 note=67 velocity=84 time=0
EXTRACT: note_on channel=7 note=70 velocity=84 time=0
EXTRACT: note_on channel=9 note=59 velocity=70 time=0
EXTRACT: note_on channel=9 note=62 velocity=107 time=0
EXTRACT: note_on channel=9 note=82 velocity=79 time=0
EXTRACT: note_on channel=15 note=64 velocity=1 time=0
EXTRACT: note_on channel=15 note=70 velocity=1 time=0
EXTRACT: note_on channel=9 note=40 velocity=120 time=0.0025201614583333335
EXTRACT: note_on channel=9 note=82 velocity=0 time=0.007560484375000001
EXTRACT: note_on channel=9 note=62 velocity=0 time=0
EXTRACT: note_on channel=9 note=59 velocity=0 time=0
EXTRACT: note_on channel=9 note=40 velocity=0 time=0.0025201614583333335
EXTRACT: note_on channel=9 note=82 velocity=68 time=0.10836694270833334
EXTRACT: note_on channel=9 note=82 velocity=0 time=0.010080645833333334
EXTRACT: note_on channel=1 note=27 velocity=0 time=0.098286296875
EXTRACT: note_on channel=13 note=39 velocity=0 time=0
EXTRACT: note_on channel=2 note=39 velocity=0 time=0
EXTRACT: note_on channel=15 note=70 velocity=0 time=0.0025201614583333335
EXTRACT: note_on channel=4 note=70 velocity=0 time=0
EXTRACT: note_on channel=1 note=24 velocity=107 time=0.0025201614583333335
EXTRACT: note_on channel=2 note=36 velocity=113 time=0
EXTRACT: note_on channel=13 note=36 velocity=94 time=0
EXTRACT: note_on channel=15 note=64 velocity=0 time=0.0025201614583333335
EXTRACT: note_on channel=4 note=64 velocity=0 time=0
EXTRACT: note_on channel=3 note=70 velocity=97 time=0.005040322916666667
EXTRACT: note_on channel=9 note=46 velocity=52 time=0
EXTRACT: note_on channel=9 note=61 velocity=102 time=0
EXTRACT: note_on channel=9 note=82 velocity=54 time=0
EXTRACT: note_on channel=9 note=86 velocity=113 time=0.005040322916666667
EXTRACT: note_on channel=9 note=82 velocity=0 time=0.005040322916666667
EXTRACT: note_on channel=9 note=61 velocity=0 time=0
EXTRACT: note_on channel=9 note=46 velocity=0 time=0
EXTRACT: note_on channel=9 note=76 velocity=80 time=0.0025201614583333335
EXTRACT: note_on channel=9 note=86 velocity=0 time=0.0025201614583333335
EXTRACT: note_on channel=9 note=76 velocity=0 time=0.007560484375000001
EXTRACT: note_on channel=6 note=60 velocity=0 time=0.012600807291666667
EXTRACT: note_on channel=15 note=60 velocity=0 time=0
EXTRACT: note_on channel=3 note=70 velocity=0 time=0.007560484375000001
EXTRACT: note_on channel=15 note=55 velocity=0 time=0.017641130208333335
EXTRACT: note_on channel=5 note=55 velocity=0 time=0
EXTRACT: note_on channel=7 note=64 velocity=0 time=0.010080645833333334
EXTRACT: note_on channel=7 note=67 velocity=0 time=0
EXTRACT: note_on channel=7 note=70 velocity=0 time=0
EXTRACT: note_on channel=3 note=70 velocity=97 time=0.05040322916666667
EXTRACT: note_on channel=9 note=35 velocity=72 time=0
EXTRACT: note_on channel=9 note=61 velocity=98 time=0
EXTRACT: note_on channel=9 note=82 velocity=45 time=0
EXTRACT: note_on channel=9 note=86 velocity=82 time=0
EXTRACT: note_on channel=12 note=23 velocity=72 time=0
EXTRACT: note_on channel=9 note=86 velocity=0 time=0.010080645833333334
EXTRACT: note_on channel=9 note=82 velocity=0 time=0
EXTRACT: note_on channel=9 note=61 velocity=0 time=0
EXTRACT: note_on channel=9 note=35 velocity=0 time=0
EXTRACT: note_on channel=12 note=23 velocity=0 time=0.022681453125
EXTRACT: note_on channel=3 note=70 velocity=0 time=0.020161291666666668
EXTRACT: note_on channel=9 note=86 velocity=119 time=0.06300403645833334
EXTRACT: note_on channel=3 note=70 velocity=88 time=0.005040322916666667
EXTRACT: note_on channel=9 note=59 velocity=70 time=0
EXTRACT: note_on channel=9 note=82 velocity=78 time=0
EXTRACT: note_on channel=9 note=86 velocity=0 time=0.005040322916666667
EXTRACT: note_on channel=9 note=82 velocity=0 time=0.005040322916666667
EXTRACT: note_on channel=9 note=59 velocity=0 time=0
EXTRACT: note_on channel=10 note=58 velocity=0 time=0.012600807291666667
EXTRACT: note_on channel=3 note=70 velocity=0 time=0.025201614583333334
EXTRACT: note_on channel=9 note=35 velocity=102 time=0.07056452083333334
EXTRACT: note_on channel=12 note=23 velocity=102 time=0
EXTRACT: note_on channel=3 note=70 velocity=97 time=0.0025201614583333335
EXTRACT: note_on channel=9 note=61 velocity=107 time=0
EXTRACT: note_on channel=9 note=82 velocity=68 time=0
EXTRACT: note_on channel=9 note=86 velocity=113 time=0
EXTRACT: note_on channel=9 note=35 velocity=0 time=0.007560484375000001
EXTRACT: note_on channel=9 note=86 velocity=0 time=0.0025201614583333335
EXTRACT: note_on channel=9 note=82 velocity=0 time=0
EXTRACT: note_on channel=9 note=61 velocity=0 time=0
EXTRACT: note_on channel=12 note=23 velocity=0 time=0.020161291666666668
EXTRACT: note_on channel=3 note=70 velocity=0 time=0.025201614583333334
EXTRACT: note_on channel=10 note=55 velocity=93 time=0.060483875000000006
EXTRACT: note_on channel=3 note=70 velocity=102 time=0.005040322916666667
EXTRACT: note_on channel=9 note=35 velocity=98 time=0
EXTRACT: note_on channel=9 note=46 velocity=60 time=0
EXTRACT: note_on channel=9 note=72 velocity=43 time=0
EXTRACT: note_on channel=9 note=82 velocity=58 time=0
EXTRACT: note_on channel=12 note=23 velocity=98 time=0
EXTRACT: note_on channel=1 note=31 velocity=113 time=0.0025201614583333335
EXTRACT: note_on channel=2 note=43 velocity=119 time=0
EXTRACT: note_on channel=13 note=43 velocity=101 time=0
EXTRACT: note_on channel=9 note=82 velocity=0 time=0.007560484375000001
EXTRACT: note_on channel=9 note=72 velocity=0 time=0
EXTRACT: note_on channel=9 note=46 velocity=0 time=0
EXTRACT: note_on channel=9 note=35 velocity=0 time=0
EXTRACT: note_on channel=13 note=36 velocity=0 time=0.015120968750000002
EXTRACT: note_on channel=2 note=36 velocity=0 time=0
EXTRACT: note_on channel=1 note=24 velocity=0 time=0
EXTRACT: note_on channel=12 note=23 velocity=0 time=0.007560484375000001
EXTRACT: note_on channel=3 note=70 velocity=0 time=0.022681453125
EXTRACT: note_on channel=9 note=86 velocity=119 time=0.06300403645833334
EXTRACT: note_on channel=3 note=72 velocity=101 time=0.0025201614583333335
EXTRACT: note_on channel=9 note=61 velocity=107 time=0
EXTRACT: note_on channel=9 note=82 velocity=42 time=0
EXTRACT: note_on channel=9 note=86 velocity=0 time=0.007560484375000001
EXTRACT: note_on channel=9 note=82 velocity=0 time=0.0025201614583333335
EXTRACT: note_on channel=9 note=61 velocity=0 time=0
EXTRACT: note_on channel=9 note=76 velocity=80 time=0.012600807291666667
EXTRACT: note_on channel=9 note=76 velocity=0 time=0.010080645833333334
EXTRACT: note_on channel=1 note=31 velocity=0 time=0.07812500520833333
EXTRACT: note_on channel=2 note=43 velocity=0 time=0
EXTRACT: note_on channel=13 note=43 velocity=0 time=0
EXTRACT: note_on channel=9 note=40 velocity=120 time=0.010080645833333334
EXTRACT: note_on channel=9 note=59 velocity=70 time=0
EXTRACT: note_on channel=9 note=62 velocity=107 time=0
EXTRACT: note_on channel=9 note=82 velocity=78 time=0
EXTRACT: note_on channel=10 note=56 velocity=89 time=0
EXTRACT: note_on channel=1 note=28 velocity=107 time=0.005040322916666667
EXTRACT: note_on channel=2 note=40 velocity=113 time=0
EXTRACT: note_on channel=13 note=40 velocity=95 time=0
EXTRACT: note_on channel=9 note=82 velocity=0 time=0.005040322916666667
EXTRACT: note_on channel=9 note=59 velocity=0 time=0
EXTRACT: note_on channel=9 note=40 velocity=0 time=0
EXTRACT: note_on channel=9 note=62 velocity=0 time=0
EXTRACT: note_on channel=3 note=72 velocity=0 time=0.012600807291666667
EXTRACT: note_on channel=10 note=55 velocity=0 time=0.0025201614583333335
EXTRACT: note_on channel=3 note=70 velocity=101 time=0.09576613541666668
EXTRACT: note_on channel=9 note=82 velocity=64 time=0
EXTRACT: note_on channel=9 note=82 velocity=0 time=0.010080645833333334
EXTRACT: note_on channel=1 note=28 velocity=0 time=0.10584678125000001
EXTRACT: note_on channel=2 note=40 velocity=0 time=0
EXTRACT: note_on channel=13 note=40 velocity=0 time=0
EXTRACT: note_on channel=1 note=24 velocity=101 time=0.005040322916666667
EXTRACT: note_on channel=2 note=36 velocity=107 time=0
EXTRACT: note_on channel=9 note=46 velocity=47 time=0
EXTRACT: note_on channel=9 note=63 velocity=102 time=0
EXTRACT: note_on channel=9 note=82 velocity=51 time=0
EXTRACT: note_on channel=13 note=36 velocity=89 time=0
EXTRACT: note_on channel=9 note=86 velocity=113 time=0.0025201614583333335
EXTRACT: note_on channel=10 note=58 velocity=89 time=0.0025201614583333335
EXTRACT: note_on channel=9 note=35 velocity=85 time=0.0025201614583333335
EXTRACT: note_on channel=9 note=76 velocity=80 time=0
EXTRACT: note_on channel=12 note=23 velocity=85 time=0
EXTRACT: note_on channel=9 note=82 velocity=0 time=0.0025201614583333335
EXTRACT: note_on channel=9 note=63 velocity=0 time=0
EXTRACT: note_on channel=9 note=46 velocity=0 time=0
EXTRACT: note_on channel=9 note=86 velocity=0 time=0.0025201614583333335
EXTRACT: note_on channel=9 note=35 velocity=0 time=0.005040322916666667
EXTRACT: note_on channel=9 note=76 velocity=0 time=0
EXTRACT: note_on channel=10 note=56 velocity=0 time=0.0025201614583333335
EXTRACT: note_on channel=12 note=23 velocity=0 time=0.020161291666666668
EXTRACT: note_on channel=3 note=70 velocity=0 time=0.040322583333333335
EXTRACT: note_on channel=9 note=82 velocity=43 time=0.040322583333333335
EXTRACT: note_on channel=9 note=86 velocity=91 time=0.0025201614583333335
EXTRACT: note_on channel=9 note=82 velocity=0 time=0.007560484375000001
EXTRACT: note_on channel=9 note=86 velocity=0 time=0.0025201614583333335
EXTRACT: note_on channel=2 note=36 velocity=0 time=0.09324597395833334
EXTRACT: note_on channel=1 note=24 velocity=0 time=0
EXTRACT: note_on channel=13 note=36 velocity=0 time=0
EXTRACT: note_on channel=9 note=86 velocity=113 time=0.007560484375000001
EXTRACT: note_on channel=4 note=65 velocity=107 time=0.007560484375000001
EXTRACT: note_on channel=4 note=72 velocity=118 time=0
EXTRACT: note_on channel=5 note=56 velocity=107 time=0
EXTRACT: note_on channel=6 note=60 velocity=114 time=0
EXTRACT: note_on channel=7 note=65 velocity=93 time=0
EXTRACT: note_on channel=7 note=68 velocity=102 time=0
EXTRACT: note_on channel=7 note=72 velocity=102 time=0
EXTRACT: note_on channel=9 note=59 velocity=70 time=0
EXTRACT: note_on channel=9 note=64 velocity=102 time=0
EXTRACT: note_on channel=9 note=82 velocity=79 time=0
EXTRACT: note_on channel=15 note=56 velocity=1 time=0
EXTRACT: note_on channel=15 note=60 velocity=1 time=0
EXTRACT: note_on channel=15 note=65 velocity=1 time=0
EXTRACT: note_on channel=15 note=72 velocity=1 time=0
EXTRACT: note_on channel=9 note=86 velocity=0 time=0.0025201614583333335
EXTRACT: note_on channel=1 note=32 velocity=107 time=0
EXTRACT: note_on channel=2 note=44 velocity=113 time=0
EXTRACT: note_on channel=13 note=44 velocity=95 time=0
EXTRACT: note_on channel=9 note=35 velocity=107 time=0.0025201614583333335
EXTRACT: note_on channel=12 note=23 velocity=107 time=0
EXTRACT: note_on channel=9 note=64 velocity=0 time=0.005040322916666667
EXTRACT: note_on channel=9 note=59 velocity=0 time=0
EXTRACT: note_on channel=10 note=58 velocity=0 time=0
EXTRACT: note_on channel=9 note=82 velocity=0 time=0
EXTRACT: note_on channel=10 note=60 velocity=93 time=0.0025201614583333335
EXTRACT: note_on channel=9 note=35 velocity=0 time=0.0025201614583333335
EXTRACT: note_on channel=7 note=68 velocity=0 time=0.022681453125
EXTRACT: note_on channel=7 note=72 velocity=0 time=0
EXTRACT: note_on channel=15 note=60 velocity=0 time=0
EXTRACT: note_on channel=6 note=60 velocity=0 time=0
EXTRACT: note_on channel=7 note=65 velocity=0 time=0
EXTRACT: note_on channel=15 note=72 velocity=0 time=0
EXTRACT: note_on channel=4 note=72 velocity=0 time=0
EXTRACT: note_on channel=5 note=56 velocity=0 time=0
EXTRACT: note_on channel=12 note=23 velocity=0 time=0
EXTRACT: note_on channel=15 note=56 velocity=0 time=0
EXTRACT: note_on channel=15 note=65 velocity=0 time=0
EXTRACT: note_on channel=4 note=65 velocity=0 time=0
EXTRACT: note_on channel=5 note=56 velocity=102 time=0.08064516666666667
EXTRACT: note_on channel=6 note=60 velocity=113 time=0
EXTRACT: note_on channel=9 note=86 velocity=119 time=0
EXTRACT: note_on channel=15 note=56 velocity=1 time=0
EXTRACT: note_on channel=15 note=60 velocity=1 time=0
EXTRACT: note_on channel=4 note=65 velocity=93 time=0.0025201614583333335
EXTRACT: note_on channel=4 note=72 velocity=113 time=0
EXTRACT: note_on channel=7 note=65 velocity=76 time=0
EXTRACT: note_on channel=7 note=68 velocity=89 time=0
EXTRACT: note_on channel=7 note=72 velocity=98 time=0
EXTRACT: note_on channel=9 note=82 velocity=67 time=0
EXTRACT: note_on channel=15 note=65 velocity=1 time=0
EXTRACT: note_on channel=15 note=72 velocity=1 time=0
EXTRACT: note_on channel=9 note=86 velocity=0 time=0.007560484375000001
EXTRACT: note_on channel=9 note=82 velocity=0 time=0.0025201614583333335
EXTRACT: note_on channel=15 note=60 velocity=0 time=0.025201614583333334
EXTRACT: note_on channel=15 note=56 velocity=0 time=0
EXTRACT: note_on channel=6 note=60 velocity=0 time=0
EXTRACT: note_on channel=5 note=56 velocity=0 time=0
EXTRACT: note_on channel=15 note=65 velocity=0 time=0.0025201614583333335
EXTRACT: note_on channel=4 note=65 velocity=0 time=0
EXTRACT: note_on channel=15 note=72 velocity=0 time=0
EXTRACT: note_on channel=4 note=72 velocity=0 time=0
EXTRACT: note_on channel=7 note=65 velocity=0 time=0
EXTRACT: note_on channel=7 note=72 velocity=0 time=0
EXTRACT: note_on channel=7 note=68 velocity=0 time=0
EXTRACT: note_on channel=5 note=56 velocity=72 time=0.08064516666666667
EXTRACT: note_on channel=6 note=60 velocity=107 time=0
EXTRACT: note_on channel=15 note=56 velocity=1 time=0
EXTRACT: note_on channel=15 note=60 velocity=1 time=0
EXTRACT: note_on channel=4 note=65 velocity=107 time=0.0025201614583333335
EXTRACT: note_on channel=4 note=72 velocity=102 time=0
EXTRACT: note_on channel=7 note=65 velocity=56 time=0
EXTRACT: note_on channel=7 note=68 velocity=89 time=0
EXTRACT: note_on channel=7 note=72 velocity=89 time=0
EXTRACT: note_on channel=9 note=46 velocity=60 time=0
EXTRACT: note_on channel=9 note=63 velocity=98 time=0
EXTRACT: note_on channel=9 note=72 velocity=49 time=0
EXTRACT: note_on channel=9 note=82 velocity=54 time=0
EXTRACT: note_on channel=15 note=65 velocity=1 time=0
EXTRACT: note_on channel=15 note=72 velocity=1 time=0
EXTRACT: note_on channel=9 note=82 velocity=0 time=0.010080645833333334
EXTRACT: note_on channel=9 note=72 velocity=0 time=0
EXTRACT: note_on channel=9 note=63 velocity=0 time=0
EXTRACT: note_on channel=9 note=46 velocity=0 time=0
EXTRACT: note_on channel=15 note=56 velocity=0 time=0.025201614583333334
EXTRACT: note_on channel=6 note=60 velocity=0 time=0
EXTRACT: note_on channel=15 note=60 velocity=0 time=0
EXTRACT: note_on channel=5 note=56 velocity=0 time=0
EXTRACT: note_on channel=15 note=65 velocity=0 time=0.0025201614583333335
EXTRACT: note_on channel=4 note=72 velocity=0 time=0
EXTRACT: note_on channel=4 note=65 velocity=0 time=0
EXTRACT: note_on channel=15 note=72 velocity=0 time=0
EXTRACT: note_on channel=7 note=65 velocity=0 time=0
EXTRACT: note_on channel=7 note=68 velocity=0 time=0
EXTRACT: note_on channel=7 note=72 velocity=0 time=0
EXTRACT: note_on channel=2 note=44 velocity=0 time=0.040322583333333335
EXTRACT: note_on channel=13 note=44 velocity=0 time=0
EXTRACT: note_on channel=1 note=32 velocity=0 time=0
EXTRACT: note_on channel=1 note=29 velocity=113 time=0.027721776041666667
EXTRACT: note_on channel=2 note=41 velocity=119 time=0
EXTRACT: note_on channel=13 note=41 velocity=101 time=0
EXTRACT: note_on channel=5 note=56 velocity=107 time=0.012600807291666667
EXTRACT: note_on channel=6 note=60 velocity=113 time=0
EXTRACT: note_on channel=15 note=56 velocity=1 time=0
EXTRACT: note_on channel=15 note=60 velocity=1 time=0
EXTRACT: note_on channel=4 note=65 velocity=93 time=0.0025201614583333335
EXTRACT: note_on channel=4 note=72 velocity=102 time=0
EXTRACT: note_on channel=7 note=65 velocity=47 time=0
EXTRACT: note_on channel=7 note=68 velocity=107 time=0
EXTRACT: note_on channel=7 note=72 velocity=102 time=0
EXTRACT: note_on channel=9 note=82 velocity=42 time=0
EXTRACT: note_on channel=15 note=65 velocity=1 time=0
EXTRACT: note_on channel=15 note=72 velocity=1 time=0
EXTRACT: note_on channel=9 note=82 velocity=0 time=0.010080645833333334
EXTRACT: note_on channel=9 note=76 velocity=80 time=0.012600807291666667
EXTRACT: note_on channel=9 note=76 velocity=0 time=0.010080645833333334
EXTRACT: note_on channel=15 note=56 velocity=0 time=0.0025201614583333335
EXTRACT: note_on channel=15 note=60 velocity=0 time=0
EXTRACT: note_on channel=6 note=60 velocity=0 time=0
EXTRACT: note_on channel=5 note=56 velocity=0 time=0
EXTRACT: note_on channel=15 note=72 velocity=0 time=0.0025201614583333335
EXTRACT: note_on channel=4 note=72 velocity=0 time=0
EXTRACT: note_on channel=4 note=65 velocity=0 time=0
EXTRACT: note_on channel=7 note=65 velocity=0 time=0
EXTRACT: note_on channel=7 note=68 velocity=0 time=0
EXTRACT: note_on channel=15 note=65 velocity=0 time=0
EXTRACT: note_on channel=7 note=72 velocity=0 time=0
EXTRACT: note_on channel=5 note=56 velocity=93 time=0.08064516666666667
EXTRACT: note_on channel=6 note=60 velocity=113 time=0
EXTRACT: note_on channel=15 note=56 velocity=1 time=0
EXTRACT: note_on channel=15 note=60 velocity=1 time=0
EXTRACT: note_on channel=4 note=65 velocity=119 time=0.0025201614583333335
EXTRACT: note_on channel=4 note=72 velocity=120 time=0
EXTRACT: note_on channel=7 note=65 velocity=75 time=0
EXTRACT: note_on channel=7 note=68 velocity=75 time=0
EXTRACT: note_on channel=7 note=72 velocity=75 time=0
EXTRACT: note_on channel=9 note=59 velocity=70 time=0
EXTRACT: note_on channel=9 note=62 velocity=113 time=0
EXTRACT: note_on channel=9 note=82 velocity=79 time=0
EXTRACT: note_on channel=15 note=65 velocity=1 time=0
EXTRACT: note_on channel=15 note=72 velocity=1 time=0
EXTRACT: note_on channel=9 note=40 velocity=120 time=0.005040322916666667
EXTRACT: note_on channel=9 note=82 velocity=0 time=0.005040322916666667
EXTRACT: note_on channel=9 note=62 velocity=0 time=0
EXTRACT: note_on channel=9 note=59 velocity=0 time=0
EXTRACT: note_on channel=9 note=40 velocity=0 time=0.005040322916666667
EXTRACT: note_on channel=9 note=82 velocity=68 time=0.10584678125000001
EXTRACT: note_on channel=9 note=82 velocity=0 time=0.010080645833333334
EXTRACT: note_on channel=15 note=65 velocity=0 time=0.060483875000000006
EXTRACT: note_on channel=4 note=65 velocity=0 time=0
EXTRACT: note_on channel=15 note=72 velocity=0 time=0
EXTRACT: note_on channel=4 note=72 velocity=0 time=0
EXTRACT: note_on channel=5 note=56 velocity=0 time=0.012600807291666667
EXTRACT: note_on channel=6 note=60 velocity=0 time=0
EXTRACT: note_on channel=13 note=41 velocity=0 time=0
EXTRACT: note_on channel=15 note=56 velocity=0 time=0
EXTRACT: note_on channel=1 note=29 velocity=0 time=0
EXTRACT: note_on channel=15 note=60 velocity=0 time=0
EXTRACT: note_on channel=2 note=41 velocity=0 time=0
EXTRACT: note_on channel=7 note=65 velocity=0 time=0.0025201614583333335
EXTRACT: note_on channel=7 note=72 velocity=0 time=0
EXTRACT: note_on channel=7 note=68 velocity=0 time=0.015120968750000002
EXTRACT: note_on channel=1 note=24 velocity=101 time=0.0025201614583333335
EXTRACT: note_on channel=2 note=36 velocity=107 time=0
EXTRACT: note_on channel=13 note=36 velocity=89 time=0
EXTRACT: note_on channel=9 note=86 velocity=119 time=0.007560484375000001
EXTRACT: note_on channel=5 note=56 velocity=93 time=0.007560484375000001
EXTRACT: note_on channel=6 note=60 velocity=102 time=0
EXTRACT: note_on channel=15 note=56 velocity=1 time=0
EXTRACT: note_on channel=15 note=60 velocity=1 time=0
EXTRACT: note_on channel=9 note=86 velocity=0 time=0.0025201614583333335
EXTRACT: note_on channel=4 note=72 velocity=114 time=0
EXTRACT: note_on channel=7 note=65 velocity=89 time=0
EXTRACT: note_on channel=7 note=68 velocity=89 time=0
EXTRACT: note_on channel=7 note=72 velocity=89 time=0
EXTRACT: note_on channel=9 note=46 velocity=50 time=0
EXTRACT: note_on channel=9 note=61 velocity=107 time=0
EXTRACT: note_on channel=9 note=82 velocity=54 time=0
EXTRACT: note_on channel=15 note=72 velocity=1 time=0
EXTRACT: note_on channel=9 note=82 velocity=0 time=0.010080645833333334
EXTRACT: note_on channel=9 note=61 velocity=0 time=0
EXTRACT: note_on channel=9 note=46 velocity=0 time=0
EXTRACT: note_on channel=9 note=76 velocity=80 time=0.0025201614583333335
EXTRACT: note_on channel=9 note=76 velocity=0 time=0.010080645833333334
EXTRACT: note_on channel=9 note=86 velocity=104 time=0.08568548958333334
EXTRACT: note_on channel=7 note=65 velocity=0 time=0.007560484375000001
EXTRACT: note_on channel=9 note=86 velocity=0 time=0.0025201614583333335
EXTRACT: note_on channel=7 note=72 velocity=0 time=0.0025201614583333335
EXTRACT: note_on channel=9 note=61 velocity=102 time=0
EXTRACT: note_on channel=9 note=82 velocity=45 time=0
EXTRACT: note_on channel=7 note=68 velocity=0 time=0.0025201614583333335
EXTRACT: note_on channel=9 note=35 velocity=98 time=0.005040322916666667
EXTRACT: note_on channel=12 note=23 velocity=98 time=0
EXTRACT: note_on channel=9 note=82 velocity=0 time=0.0025201614583333335
EXTRACT: note_on channel=9 note=61 velocity=0 time=0
EXTRACT: note_on channel=9 note=35 velocity=0 time=0.007560484375000001
EXTRACT: note_on channel=12 note=23 velocity=0 time=0.022681453125
EXTRACT: note_on channel=15 note=72 velocity=0 time=0.022681453125
EXTRACT: note_on channel=4 note=72 velocity=0 time=0
EXTRACT: note_on channel=15 note=56 velocity=0 time=0.012600807291666667
EXTRACT: note_on channel=5 note=56 velocity=0 time=0
EXTRACT: note_on channel=15 note=60 velocity=0 time=0.010080645833333334
EXTRACT: note_on channel=6 note=60 velocity=0 time=0
EXTRACT: note_on channel=9 note=86 velocity=108 time=0.022681453125
EXTRACT: note_on channel=9 note=86 velocity=0 time=0.010080645833333334
EXTRACT: note_on channel=9 note=59 velocity=70 time=0.0025201614583333335
EXTRACT: note_on channel=9 note=82 velocity=78 time=0
EXTRACT: note_on channel=9 note=82 velocity=0 time=0.010080645833333334
EXTRACT: note_on channel=9 note=59 velocity=0 time=0
EXTRACT: note_on channel=10 note=60 velocity=0 time=0.052923390625000004
EXTRACT: note_on channel=9 note=86 velocity=104 time=0.05040322916666667
EXTRACT: note_on channel=9 note=61 velocity=98 time=0.007560484375000001
EXTRACT: note_on channel=9 note=82 velocity=68 time=0
EXTRACT: note_on channel=9 note=86 velocity=0 time=0.0025201614583333335
EXTRACT: note_on channel=9 note=35 velocity=85 time=0
EXTRACT: note_on channel=12 note=23 velocity=85 time=0
EXTRACT: note_on channel=9 note=61 velocity=0 time=0.007560484375000001
EXTRACT: note_on channel=9 note=82 velocity=0 time=0
EXTRACT: note_on channel=9 note=35 velocity=0 time=0.0025201614583333335
EXTRACT: note_on channel=12 note=23 velocity=0 time=0.022681453125
EXTRACT: note_on channel=10 note=60 velocity=93 time=0.07056452083333334
EXTRACT: note_on channel=1 note=32 velocity=107 time=0.0025201614583333335
EXTRACT: note_on channel=2 note=44 velocity=113 time=0
EXTRACT: note_on channel=13 note=44 velocity=95 time=0
EXTRACT: note_on channel=13 note=36 velocity=0 time=0.005040322916666667
EXTRACT: note_on channel=1 note=24 velocity=0 time=0
EXTRACT: note_on channel=2 note=36 velocity=0 time=0
EXTRACT: note_on channel=5 note=56 velocity=102 time=0.005040322916666667
EXTRACT: note_on channel=6 note=60 velocity=107 time=0
EXTRACT: note_on channel=15 note=56 velocity=1 time=0
EXTRACT: note_on channel=15 note=60 velocity=1 time=0
EXTRACT: note_on channel=4 note=72 velocity=115 time=0.0025201614583333335
EXTRACT: note_on channel=7 note=65 velocity=89 time=0
EXTRACT: note_on channel=7 note=68 velocity=93 time=0
EXTRACT: note_on channel=7 note=72 velocity=98 time=0
EXTRACT: note_on channel=9 note=46 velocity=60 time=0
EXTRACT: note_on channel=9 note=72 velocity=41 time=0
EXTRACT: note_on channel=9 note=82 velocity=58 time=0
EXTRACT: note_on channel=15 note=72 velocity=1 time=0
EXTRACT: note_on channel=9 note=35 velocity=93 time=0.0025201614583333335
EXTRACT: note_on channel=12 note=23 velocity=93 time=0
EXTRACT: note_on channel=9 note=82 velocity=0 time=0.007560484375000001
EXTRACT: note_on channel=9 note=72 velocity=0 time=0
EXTRACT: note_on channel=9 note=46 velocity=0 time=0
EXTRACT: note_on channel=9 note=35 velocity=0 time=0.0025201614583333335
EXTRACT: note_on channel=12 note=23 velocity=0 time=0.022681453125
EXTRACT: note_on channel=9 note=61 velocity=98 time=0.08568548958333334
EXTRACT: note_on channel=9 note=82 velocity=42 time=0
EXTRACT: note_on channel=9 note=82 velocity=0 time=0.010080645833333334
EXTRACT: note_on channel=9 note=61 velocity=0 time=0
EXTRACT: note_on channel=7 note=68 velocity=0 time=0.0025201614583333335
EXTRACT: note_on channel=7 note=65 velocity=0 time=0.0025201614583333335
EXTRACT: note_on channel=9 note=76 velocity=80 time=0.010080645833333334
EXTRACT: note_on channel=7 note=72 velocity=0 time=0.005040322916666667
EXTRACT: note_on channel=9 note=76 velocity=0 time=0.005040322916666667
EXTRACT: note_on channel=15 note=56 velocity=0 time=0.06552419791666667
EXTRACT: note_on channel=5 note=56 velocity=0 time=0
EXTRACT: note_on channel=15 note=72 velocity=0 time=0.005040322916666667
EXTRACT: note_on channel=4 note=72 velocity=0 time=0
EXTRACT: note_on channel=6 note=60 velocity=0 time=0.0025201614583333335
EXTRACT: note_on channel=15 note=60 velocity=0 time=0
EXTRACT: note_on channel=10 note=61 velocity=93 time=0
EXTRACT: note_on channel=13 note=44 velocity=0 time=0.0025201614583333335
EXTRACT: note_on channel=1 note=32 velocity=0 time=0
EXTRACT: note_on channel=2 note=44 velocity=0 time=0
EXTRACT: note_on channel=1 note=29 velocity=107 time=0.0025201614583333335
EXTRACT: note_on channel=2 note=41 velocity=113 time=0
EXTRACT: note_on channel=13 note=41 velocity=95 time=0
EXTRACT: note_on channel=10 note=60 velocity=0 time=0.005040322916666667
EXTRACT: note_on channel=9 note=40 velocity=120 time=0
EXTRACT: note_on channel=9 note=59 velocity=70 time=0.0025201614583333335
EXTRACT: note_on channel=9 note=62 velocity=113 time=0
EXTRACT: note_on channel=9 note=82 velocity=78 time=0
EXTRACT: note_on channel=9 note=40 velocity=0 time=0.007560484375000001
EXTRACT: note_on channel=9 note=82 velocity=0 time=0.0025201614583333335
EXTRACT: note_on channel=9 note=59 velocity=0 time=0
EXTRACT: note_on channel=9 note=62 velocity=0 time=0
EXTRACT: note_on channel=9 note=82 velocity=64 time=0.11088710416666667
EXTRACT: note_on channel=9 note=82 velocity=0 time=0.010080645833333334
EXTRACT: note_on channel=10 note=61 velocity=0 time=0.10080645833333333
EXTRACT: note_on channel=2 note=41 velocity=0 time=0
EXTRACT: note_on channel=1 note=29 velocity=0 time=0
EXTRACT: note_on channel=13 note=41 velocity=0 time=0
EXTRACT: note_on channel=1 note=24 velocity=107 time=0.0025201614583333335
EXTRACT: note_on channel=2 note=36 velocity=113 time=0
EXTRACT: note_on channel=13 note=36 velocity=95 time=0
EXTRACT: note_on channel=10 note=60 velocity=93 time=0.0025201614583333335
EXTRACT: note_on channel=5 note=53 velocity=93 time=0.0025201614583333335
EXTRACT: note_on channel=6 note=56 velocity=110 time=0
EXTRACT: note_on channel=15 note=53 velocity=1 time=0
EXTRACT: note_on channel=15 note=56 velocity=1 time=0
EXTRACT: note_on channel=4 note=68 velocity=113 time=0.0025201614583333335
EXTRACT: note_on channel=7 note=68 velocity=80 time=0
EXTRACT: note_on channel=9 note=46 velocity=55 time=0
EXTRACT: note_on channel=9 note=63 velocity=107 time=0
EXTRACT: note_on channel=9 note=82 velocity=51 time=0
EXTRACT: note_on channel=15 note=68 velocity=1 time=0
EXTRACT: note_on channel=9 note=35 velocity=93 time=0.0025201614583333335
EXTRACT: note_on channel=12 note=23 velocity=93 time=0
EXTRACT: note_on channel=9 note=86 velocity=113 time=0.0025201614583333335
EXTRACT: note_on channel=9 note=82 velocity=0 time=0.005040322916666667
EXTRACT: note_on channel=9 note=63 velocity=0 time=0
EXTRACT: note_on channel=9 note=46 velocity=0 time=0
EXTRACT: note_on channel=9 note=35 velocity=0 time=0.0025201614583333335
EXTRACT: note_on channel=9 note=76 velocity=80 time=0
EXTRACT: note_on channel=9 note=86 velocity=0 time=0.0025201614583333335
EXTRACT: note_on channel=9 note=76 velocity=0 time=0.007560484375000001
EXTRACT: note_on channel=12 note=23 velocity=0 time=0.012600807291666667
EXTRACT: note_on channel=9 note=82 velocity=43 time=0.08568548958333334
EXTRACT: note_on channel=9 note=86 velocity=82 time=0
EXTRACT: note_on channel=9 note=86 velocity=0 time=0.010080645833333334
EXTRACT: note_on channel=9 note=82 velocity=0 time=0
EXTRACT: note_on channel=10 note=60 velocity=0 time=0.0907258125
EXTRACT: note_on channel=5 note=53 velocity=0 time=0.0025201614583333335
EXTRACT: note_on channel=15 note=53 velocity=0 time=0
EXTRACT: note_on channel=13 note=36 velocity=0 time=0.007560484375000001
EXTRACT: note_on channel=1 note=24 velocity=0 time=0
EXTRACT: note_on channel=2 note=36 velocity=0 time=0
EXTRACT: note_on channel=1 note=31 velocity=113 time=0.0025201614583333335
EXTRACT: note_on channel=2 note=43 velocity=119 time=0
EXTRACT: note_on channel=13 note=43 velocity=101 time=0
EXTRACT: note_on channel=5 note=55 velocity=98 time=0.005040322916666667
EXTRACT: note_on channel=6 note=58 velocity=100 time=0
EXTRACT: note_on channel=6 note=72 velocity=80 time=0
EXTRACT: note_on channel=9 note=35 velocity=102 time=0
EXTRACT: note_on channel=9 note=86 velocity=119 time=0
EXTRACT: note_on channel=10 note=58 velocity=72 time=0
EXTRACT: note_on channel=12 note=23 velocity=102 time=0
EXTRACT: note_on channel=15 note=55 velocity=1 time=0
EXTRACT: note_on channel=15 note=58 velocity=1 time=0
EXTRACT: note_on channel=15 note=72 velocity=1 time=0
EXTRACT: note_on channel=15 note=56 velocity=0 time=0.0025201614583333335
EXTRACT: note_on channel=6 note=56 velocity=0 time=0
EXTRACT: note_on channel=4 note=70 velocity=113 time=0
EXTRACT: note_on channel=7 note=70 velocity=87 time=0
EXTRACT: note_on channel=9 note=59 velocity=70 time=0
EXTRACT: note_on channel=9 note=64 velocity=102 time=0
EXTRACT: note_on channel=9 note=82 velocity=79 time=0
EXTRACT: note_on channel=15 note=70 velocity=1 time=0
EXTRACT: note_on channel=9 note=86 velocity=0 time=0.007560484375000001
EXTRACT: note_on channel=9 note=35 velocity=0 time=0
EXTRACT: note_on channel=9 note=82 velocity=0 time=0.0025201614583333335
EXTRACT: note_on channel=9 note=64 velocity=0 time=0
EXTRACT: note_on channel=9 note=59 velocity=0 time=0
EXTRACT: note_on channel=7 note=68 velocity=0 time=0.0025201614583333335
EXTRACT: note_on channel=4 note=68 velocity=0 time=0.005040322916666667
EXTRACT: note_on channel=15 note=68 velocity=0 time=0
EXTRACT: note_on channel=12 note=23 velocity=0 time=0.012600807291666667
EXTRACT: note_on channel=9 note=82 velocity=67 time=0.0907258125
EXTRACT: note_on channel=9 note=86 velocity=104 time=0.005040322916666667
EXTRACT: note_on channel=9 note=82 velocity=0 time=0.005040322916666667
EXTRACT: note_on channel=9 note=86 velocity=0 time=0.005040322916666667
EXTRACT: note_on channel=9 note=46 velocity=60 time=0.10584678125000001
EXTRACT: note_on channel=9 note=63 velocity=113 time=0
EXTRACT: note_on channel=9 note=72 velocity=28 time=0
EXTRACT: note_on channel=9 note=82 velocity=54 time=0
EXTRACT: note_on channel=9 note=82 velocity=0 time=0.010080645833333334
EXTRACT: note_on channel=9 note=72 velocity=0 time=0
EXTRACT: note_on channel=9 note=63 velocity=0 time=0
EXTRACT: note_on channel=9 note=46 velocity=0 time=0
EXTRACT: note_on channel=13 note=43 velocity=0 time=0.05796371354166667
EXTRACT: note_on channel=1 note=31 velocity=0 time=0
EXTRACT: note_on channel=2 note=43 velocity=0 time=0
EXTRACT: note_on channel=1 note=28 velocity=107 time=0.03276209895833333
EXTRACT: note_on channel=2 note=40 velocity=113 time=0
EXTRACT: note_on channel=13 note=40 velocity=95 time=0
EXTRACT: note_on channel=9 note=82 velocity=42 time=0.020161291666666668
EXTRACT: note_on channel=9 note=82 velocity=0 time=0.010080645833333334
EXTRACT: note_on channel=9 note=76 velocity=80 time=0.015120968750000002
EXTRACT: note_on channel=9 note=76 velocity=0 time=0.010080645833333334
EXTRACT: note_on channel=15 note=70 velocity=0 time=0.05544355208333333
EXTRACT: note_on channel=4 note=70 velocity=0 time=0
EXTRACT: note_on channel=10 note=55 velocity=89 time=0.020161291666666668
EXTRACT: note_on channel=7 note=70 velocity=0 time=0.0025201614583333335
EXTRACT: note_on channel=15 note=55 velocity=0 time=0.0025201614583333335
EXTRACT: note_on channel=5 note=55 velocity=0 time=0
EXTRACT: note_on channel=5 note=52 velocity=93 time=0.0025201614583333335
EXTRACT: note_on channel=6 note=55 velocity=102 time=0
EXTRACT: note_on channel=6 note=70 velocity=76 time=0
EXTRACT: note_on channel=9 note=40 velocity=120 time=0
EXTRACT: note_on channel=15 note=52 velocity=1 time=0
EXTRACT: note_on channel=15 note=55 velocity=1 time=0
EXTRACT: note_on channel=15 note=70 velocity=1 time=0
EXTRACT: note_on channel=15 note=58 velocity=0 time=0.0025201614583333335
EXTRACT: note_on channel=6 note=58 velocity=0 time=0
EXTRACT: note_on channel=4 note=67 velocity=107 time=0
EXTRACT: note_on channel=7 note=67 velocity=84 time=0
EXTRACT: note_on channel=9 note=59 velocity=70 time=0
EXTRACT: note_on channel=9 note=62 velocity=119 time=0
EXTRACT: note_on channel=9 note=82 velocity=79 time=0
EXTRACT: note_on channel=15 note=67 velocity=1 time=0
EXTRACT: note_on channel=15 note=72 velocity=0 time=0.005040322916666667
EXTRACT: note_on channel=6 note=72 velocity=0 time=0
EXTRACT: note_on channel=9 note=40 velocity=0 time=0.0025201614583333335
EXTRACT: note_on channel=9 note=82 velocity=0 time=0.0025201614583333335
EXTRACT: note_on channel=9 note=62 velocity=0 time=0
EXTRACT: note_on channel=9 note=59 velocity=0 time=0
EXTRACT: note_on channel=10 note=58 velocity=0 time=0
EXTRACT: note_on channel=9 note=82 velocity=68 time=0.11088710416666667
EXTRACT: note_on channel=9 note=82 velocity=0 time=0.010080645833333334
EXTRACT: note_on channel=13 note=40 velocity=0 time=0.04284274479166667
EXTRACT: note_on channel=2 note=40 velocity=0 time=0
EXTRACT: note_on channel=1 note=28 velocity=0 time=0
EXTRACT: note_on channel=1 note=24 velocity=107 time=0.040322583333333335
EXTRACT: note_on channel=2 note=36 velocity=113 time=0
EXTRACT: note_on channel=13 note=36 velocity=95 time=0
EXTRACT: note_on channel=9 note=35 velocity=85 time=0.025201614583333334
EXTRACT: note_on channel=9 note=86 velocity=108 time=0
EXTRACT: note_on channel=12 note=23 velocity=85 time=0
EXTRACT: note_on channel=9 note=46 velocity=52 time=0.0025201614583333335
EXTRACT: note_on channel=9 note=61 velocity=107 time=0
EXTRACT: note_on channel=9 note=82 velocity=54 time=0
EXTRACT: note_on channel=9 note=86 velocity=0 time=0.007560484375000001
EXTRACT: note_on channel=9 note=35 velocity=0 time=0
EXTRACT: note_on channel=9 note=82 velocity=0 time=0.0025201614583333335
EXTRACT: note_on channel=9 note=61 velocity=0 time=0
EXTRACT: note_on channel=9 note=46 velocity=0 time=0
EXTRACT: note_on channel=9 note=76 velocity=80 time=0.0025201614583333335
EXTRACT: note_on channel=9 note=76 velocity=0 time=0.010080645833333334
EXTRACT: note_on channel=12 note=23 velocity=0 time=0.007560484375000001
EXTRACT: note_on channel=9 note=86 velocity=99 time=0.07812500520833333
EXTRACT: note_on channel=9 note=35 velocity=85 time=0.007560484375000001
EXTRACT: note_on channel=12 note=23 velocity=85 time=0
EXTRACT: note_on channel=9 note=86 velocity=0 time=0.0025201614583333335
EXTRACT: note_on channel=9 note=61 velocity=107 time=0.0025201614583333335
EXTRACT: note_on channel=9 note=82 velocity=45 time=0
EXTRACT: note_on channel=9 note=35 velocity=0 time=0.005040322916666667
EXTRACT: note_on channel=9 note=82 velocity=0 time=0.005040322916666667
EXTRACT: note_on channel=9 note=61 velocity=0 time=0
EXTRACT: note_on channel=12 note=23 velocity=0 time=0.017641130208333335
EXTRACT: note_on channel=9 note=86 velocity=108 time=0.08316532812500001
EXTRACT: note_on channel=1 note=24 velocity=0 time=0.0025201614583333335
EXTRACT: note_on channel=13 note=36 velocity=0 time=0
EXTRACT: note_on channel=2 note=36 velocity=0 time=0
EXTRACT: note_on channel=1 note=22 velocity=101 time=0
EXTRACT: note_on channel=2 note=34 velocity=107 time=0
EXTRACT: note_on channel=10 note=52 velocity=86 time=0
EXTRACT: note_on channel=13 note=34 velocity=89 time=0
EXTRACT: note_on channel=5 note=48 velocity=89 time=0.005040322916666667
EXTRACT: note_on channel=6 note=52 velocity=99 time=0
EXTRACT: note_on channel=6 note=67 velocity=93 time=0
EXTRACT: note_on channel=15 note=48 velocity=1 time=0
EXTRACT: note_on channel=15 note=70 velocity=0 time=0.0025201614583333335
EXTRACT: note_on channel=6 note=70 velocity=0 time=0
EXTRACT: note_on channel=9 note=86 velocity=0 time=0
EXTRACT: note_on channel=4 note=64 velocity=113 time=0
EXTRACT: note_on channel=7 note=64 velocity=79 time=0
EXTRACT: note_on channel=9 note=59 velocity=70 time=0
EXTRACT: note_on channel=9 note=82 velocity=78 time=0
EXTRACT: note_on channel=15 note=64 velocity=1 time=0
EXTRACT: note_on channel=10 note=55 velocity=0 time=0.0025201614583333335
EXTRACT: note_on channel=6 note=55 velocity=0 time=0.005040322916666667
EXTRACT: note_on channel=7 note=67 velocity=0 time=0
EXTRACT: note_on channel=15 note=55 velocity=0 time=0
EXTRACT: note_on channel=9 note=59 velocity=0 time=0.0025201614583333335
EXTRACT: note_on channel=9 note=82 velocity=0 time=0
EXTRACT: note_on channel=5 note=52 velocity=0 time=0.005040322916666667
EXTRACT: note_on channel=4 note=67 velocity=0 time=0.010080645833333334
EXTRACT: note_on channel=9 note=86 velocity=113 time=0.08568548958333334
EXTRACT: note_on channel=9 note=86 velocity=0 time=0.010080645833333334
EXTRACT: note_on channel=9 note=61 velocity=102 time=0
EXTRACT: note_on channel=9 note=82 velocity=68 time=0
EXTRACT: note_on channel=9 note=35 velocity=89 time=0.0025201614583333335
EXTRACT: note_on channel=12 note=23 velocity=89 time=0
EXTRACT: note_on channel=9 note=82 velocity=0 time=0.007560484375000001
EXTRACT: note_on channel=9 note=61 velocity=0 time=0
EXTRACT: note_on channel=9 note=35 velocity=0 time=0.0025201614583333335
EXTRACT: note_on channel=12 note=23 velocity=0 time=0.022681453125
EXTRACT: note_on channel=9 note=35 velocity=102 time=0.08316532812500001
EXTRACT: note_on channel=12 note=23 velocity=102 time=0
EXTRACT: note_on channel=9 note=46 velocity=60 time=0.0025201614583333335
EXTRACT: note_on channel=9 note=72 velocity=25 time=0
EXTRACT: note_on channel=9 note=82 velocity=58 time=0
EXTRACT: note_on channel=9 note=35 velocity=0 time=0.007560484375000001
EXTRACT: note_on channel=9 note=82 velocity=0 time=0.0025201614583333335
EXTRACT: note_on channel=9 note=72 velocity=0 time=0
EXTRACT: note_on channel=9 note=46 velocity=0 time=0
EXTRACT: note_on channel=12 note=23 velocity=0 time=0.020161291666666668
EXTRACT: note_on channel=2 note=34 velocity=0 time=0.05796371354166667
EXTRACT: note_on channel=13 note=34 velocity=0 time=0
EXTRACT: note_on channel=1 note=22 velocity=0 time=0
EXTRACT: note_on channel=1 note=24 velocity=107 time=0.020161291666666668
EXTRACT: note_on channel=2 note=36 velocity=113 time=0
EXTRACT: note_on channel=13 note=36 velocity=95 time=0
EXTRACT: note_on channel=9 note=61 velocity=107 time=0.012600807291666667
EXTRACT: note_on channel=9 note=82 velocity=42 time=0
EXTRACT: note_on channel=9 note=82 velocity=0 time=0.010080645833333334
EXTRACT: note_on channel=9 note=61 velocity=0 time=0
EXTRACT: note_on channel=9 note=76 velocity=80 time=0.012600807291666667
EXTRACT: note_on channel=9 note=76 velocity=0 time=0.010080645833333334
EXTRACT: note_on channel=7 note=64 velocity=0 time=0.07560484375
EXTRACT: note_on channel=9 note=40 velocity=120 time=0.012600807291666667
EXTRACT: note_on channel=9 note=59 velocity=70 time=0
EXTRACT: note_on channel=9 note=62 velocity=113 time=0
EXTRACT: note_on channel=9 note=82 velocity=78 time=0
EXTRACT: note_on channel=9 note=82 velocity=0 time=0.010080645833333334
EXTRACT: note_on channel=9 note=62 velocity=0 time=0
EXTRACT: note_on channel=9 note=59 velocity=0 time=0
EXTRACT: note_on channel=9 note=40 velocity=0 time=0
EXTRACT: note_on channel=9 note=58 velocity=77 time=0
EXTRACT: note_on channel=9 note=58 velocity=0 time=0.010080645833333334
EXTRACT: note_on channel=15 note=64 velocity=0 time=0.03528226041666667
EXTRACT: note_on channel=4 note=64 velocity=0 time=0
EXTRACT: note_on channel=5 note=48 velocity=0 time=0.017641130208333335
EXTRACT: note_on channel=15 note=48 velocity=0 time=0
EXTRACT: note_on channel=6 note=52 velocity=0 time=0.0025201614583333335
EXTRACT: note_on channel=15 note=67 velocity=0 time=0
EXTRACT: note_on channel=6 note=67 velocity=0 time=0
EXTRACT: note_on channel=15 note=52 velocity=0 time=0
EXTRACT: note_on channel=9 note=72 velocity=43 time=0.04536290625
EXTRACT: note_on channel=9 note=82 velocity=64 time=0
EXTRACT: note_on channel=9 note=82 velocity=0 time=0.010080645833333334
EXTRACT: note_on channel=9 note=72 velocity=0 time=0
EXTRACT: note_on channel=2 note=36 velocity=0 time=0.06552419791666667
EXTRACT: note_on channel=13 note=36 velocity=0 time=0
EXTRACT: note_on channel=1 note=24 velocity=0 time=0
EXTRACT: note_on channel=1 note=28 velocity=107 time=0.025201614583333334
EXTRACT: note_on channel=2 note=40 velocity=113 time=0
EXTRACT: note_on channel=13 note=40 velocity=95 time=0
EXTRACT: note_on channel=9 note=46 velocity=58 time=0.020161291666666668
EXTRACT: note_on channel=9 note=63 velocity=102 time=0
EXTRACT: note_on channel=9 note=82 velocity=51 time=0
EXTRACT: note_on channel=9 note=35 velocity=93 time=0.0025201614583333335
EXTRACT: note_on channel=12 note=23 velocity=93 time=0
EXTRACT: note_on channel=9 note=76 velocity=80 time=0.005040322916666667
EXTRACT: note_on channel=9 note=82 velocity=0 time=0.0025201614583333335
EXTRACT: note_on channel=9 note=63 velocity=0 time=0
EXTRACT: note_on channel=9 note=46 velocity=0 time=0
EXTRACT: note_on channel=9 note=35 velocity=0 time=0.0025201614583333335
EXTRACT: note_on channel=9 note=76 velocity=0 time=0.005040322916666667
EXTRACT: note_on channel=12 note=23 velocity=0 time=0.017641130208333335
EXTRACT: note_on channel=9 note=82 velocity=43 time=0.08568548958333334
EXTRACT: note_on channel=9 note=82 velocity=0 time=0.010080645833333334
EXTRACT: note_on channel=10 note=52 velocity=0 time=0.037802421875
EXTRACT: note_on channel=13 note=40 velocity=0 time=0.052923390625000004
EXTRACT: note_on channel=1 note=28 velocity=0 time=0
EXTRACT: note_on channel=2 note=40 velocity=0 time=0
EXTRACT: note_on channel=4 note=65 velocity=107 time=0.020161291666666668
EXTRACT: note_on channel=4 note=72 velocity=127 time=0
EXTRACT: note_on channel=5 note=56 velocity=107 time=0
EXTRACT: note_on channel=6 note=60 velocity=119 time=0
EXTRACT: note_on channel=7 note=65 velocity=93 time=0
EXTRACT: note_on channel=7 note=68 velocity=107 time=0
EXTRACT: note_on channel=7 note=72 velocity=93 time=0
EXTRACT: note_on channel=9 note=49 velocity=60 time=0
EXTRACT: note_on channel=9 note=64 velocity=89 time=0
EXTRACT: note_on channel=9 note=82 velocity=79 time=0
EXTRACT: note_on channel=9 note=86 velocity=113 time=0
EXTRACT: note_on channel=15 note=56 velocity=1 time=0
EXTRACT: note_on channel=15 note=60 velocity=1 time=0
EXTRACT: note_on channel=15 note=65 velocity=1 time=0
EXTRACT: note_on channel=15 note=72 velocity=1 time=0
EXTRACT: note_on channel=1 note=32 velocity=106 time=0.0025201614583333335
EXTRACT: note_on channel=9 note=35 velocity=113 time=0.0025201614583333335
EXTRACT: note_on channel=12 note=23 velocity=113 time=0
EXTRACT: note_on channel=2 note=44 velocity=117 time=0.0025201614583333335
EXTRACT: note_on channel=13 note=44 velocity=97 time=0
EXTRACT: note_on channel=9 note=86 velocity=0 time=0.0025201614583333335
EXTRACT: note_on channel=9 note=82 velocity=0 time=0
EXTRACT: note_on channel=9 note=64 velocity=0 time=0
EXTRACT: note_on channel=9 note=49 velocity=0 time=0
EXTRACT: note_on channel=9 note=35 velocity=0 time=0.005040322916666667
EXTRACT: note_on channel=4 note=65 velocity=0 time=0.022681453125
EXTRACT: note_on channel=15 note=60 velocity=0 time=0
EXTRACT: note_on channel=7 note=65 velocity=0 time=0
EXTRACT: note_on channel=7 note=68 velocity=0 time=0
EXTRACT: note_on channel=4 note=72 velocity=0 time=0
EXTRACT: note_on channel=6 note=60 velocity=0 time=0
EXTRACT: note_on channel=7 note=72 velocity=0 time=0
EXTRACT: note_on channel=12 note=23 velocity=0 time=0
EXTRACT: note_on channel=5 note=56 velocity=0 time=0
EXTRACT: note_on channel=15 note=65 velocity=0 time=0
EXTRACT: note_on channel=15 note=56 velocity=0 time=0
EXTRACT: note_on channel=15 note=72 velocity=0 time=0
EXTRACT: note_on channel=10 note=60 velocity=55 time=0.07056452083333334
EXTRACT: note_on channel=5 note=56 velocity=102 time=0.010080645833333334
EXTRACT: note_on channel=6 note=60 velocity=113 time=0
EXTRACT: note_on channel=9 note=86 velocity=99 time=0
EXTRACT: note_on channel=15 note=56 velocity=1 time=0
EXTRACT: note_on channel=15 note=60 velocity=1 time=0
EXTRACT: note_on channel=4 note=65 velocity=93 time=0.0025201614583333335
EXTRACT: note_on channel=4 note=72 velocity=113 time=0
EXTRACT: note_on channel=7 note=65 velocity=98 time=0
EXTRACT: note_on channel=7 note=68 velocity=107 time=0
EXTRACT: note_on channel=7 note=72 velocity=107 time=0
EXTRACT: note_on channel=9 note=82 velocity=67 time=0
EXTRACT: note_on channel=15 note=65 velocity=1 time=0
EXTRACT: note_on channel=15 note=72 velocity=1 time=0
EXTRACT: note_on channel=9 note=86 velocity=0 time=0.007560484375000001
EXTRACT: note_on channel=9 note=82 velocity=0 time=0.0025201614583333335
EXTRACT: note_on channel=15 note=60 velocity=0 time=0.025201614583333334
EXTRACT: note_on channel=15 note=56 velocity=0 time=0
EXTRACT: note_on channel=6 note=60 velocity=0 time=0
EXTRACT: note_on channel=5 note=56 velocity=0 time=0
EXTRACT: note_on channel=15 note=65 velocity=0 time=0.0025201614583333335
EXTRACT: note_on channel=4 note=65 velocity=0 time=0
EXTRACT: note_on channel=15 note=72 velocity=0 time=0
EXTRACT: note_on channel=4 note=72 velocity=0 time=0
EXTRACT: note_on channel=7 note=65 velocity=0 time=0
EXTRACT: note_on channel=7 note=72 velocity=0 time=0
EXTRACT: note_on channel=7 note=68 velocity=0 time=0
EXTRACT: note_on channel=5 note=56 velocity=72 time=0.08064516666666667
EXTRACT: note_on channel=6 note=60 velocity=107 time=0
EXTRACT: note_on channel=15 note=56 velocity=1 time=0
EXTRACT: note_on channel=15 note=60 velocity=1 time=0
EXTRACT: note_on channel=4 note=65 velocity=107 time=0.0025201614583333335
EXTRACT: note_on channel=4 note=72 velocity=102 time=0
EXTRACT: note_on channel=7 note=65 velocity=85 time=0
EXTRACT: note_on channel=7 note=68 velocity=107 time=0
EXTRACT: note_on channel=7 note=72 velocity=93 time=0
EXTRACT: note_on channel=9 note=46 velocity=60 time=0
EXTRACT: note_on channel=9 note=63 velocity=89 time=0
EXTRACT: note_on channel=9 note=82 velocity=54 time=0
EXTRACT: note_on channel=15 note=65 velocity=1 time=0
EXTRACT: note_on channel=15 note=72 velocity=1 time=0
EXTRACT: note_on channel=9 note=82 velocity=0 time=0.010080645833333334
EXTRACT: note_on channel=9 note=63 velocity=0 time=0
EXTRACT: note_on channel=9 note=46 velocity=0 time=0
EXTRACT: note_on channel=15 note=56 velocity=0 time=0.025201614583333334
EXTRACT: note_on channel=6 note=60 velocity=0 time=0
EXTRACT: note_on channel=15 note=60 velocity=0 time=0
EXTRACT: note_on channel=5 note=56 velocity=0 time=0
EXTRACT: note_on channel=15 note=65 velocity=0 time=0.0025201614583333335
EXTRACT: note_on channel=4 note=72 velocity=0 time=0
EXTRACT: note_on channel=4 note=65 velocity=0 time=0
EXTRACT: note_on channel=15 note=72 velocity=0 time=0
EXTRACT: note_on channel=7 note=65 velocity=0 time=0
EXTRACT: note_on channel=7 note=68 velocity=0 time=0
EXTRACT: note_on channel=7 note=72 velocity=0 time=0
EXTRACT: note_on channel=1 note=32 velocity=0 time=0.05796371354166667
EXTRACT: note_on channel=2 note=44 velocity=0 time=0.005040322916666667
EXTRACT: note_on channel=13 note=44 velocity=0 time=0
EXTRACT: note_on channel=9 note=86 velocity=119 time=0.007560484375000001
EXTRACT: note_on channel=9 note=86 velocity=0 time=0.010080645833333334
EXTRACT: note_on channel=1 note=29 velocity=107 time=0
EXTRACT: note_on channel=2 note=41 velocity=113 time=0
EXTRACT: note_on channel=5 note=56 velocity=107 time=0
EXTRACT: note_on channel=6 note=60 velocity=113 time=0
EXTRACT: note_on channel=13 note=41 velocity=95 time=0
EXTRACT: note_on channel=15 note=56 velocity=1 time=0
EXTRACT: note_on channel=15 note=60 velocity=1 time=0
EXTRACT: note_on channel=4 note=65 velocity=93 time=0.0025201614583333335
EXTRACT: note_on channel=4 note=72 velocity=102 time=0
EXTRACT: note_on channel=7 note=65 velocity=72 time=0
EXTRACT: note_on channel=7 note=68 velocity=102 time=0
EXTRACT: note_on channel=7 note=72 velocity=93 time=0
EXTRACT: note_on channel=9 note=72 velocity=32 time=0
EXTRACT: note_on channel=9 note=82 velocity=42 time=0
EXTRACT: note_on channel=15 note=65 velocity=1 time=0
EXTRACT: note_on channel=15 note=72 velocity=1 time=0
EXTRACT: note_on channel=9 note=82 velocity=0 time=0.010080645833333334
EXTRACT: note_on channel=9 note=72 velocity=0 time=0
EXTRACT: note_on channel=9 note=76 velocity=80 time=0.012600807291666667
EXTRACT: note_on channel=9 note=76 velocity=0 time=0.010080645833333334
EXTRACT: note_on channel=15 note=56 velocity=0 time=0.0025201614583333335
EXTRACT: note_on channel=5 note=56 velocity=0 time=0
EXTRACT: note_on channel=15 note=60 velocity=0 time=0
EXTRACT: note_on channel=6 note=60 velocity=0 time=0
EXTRACT: note_on channel=15 note=65 velocity=0 time=0.0025201614583333335
EXTRACT: note_on channel=4 note=72 velocity=0 time=0
EXTRACT: note_on channel=15 note=72 velocity=0 time=0
EXTRACT: note_on channel=4 note=65 velocity=0 time=0
EXTRACT: note_on channel=7 note=65 velocity=0 time=0
EXTRACT: note_on channel=7 note=68 velocity=0 time=0
EXTRACT: note_on channel=7 note=72 velocity=0 time=0
EXTRACT: note_on channel=5 note=56 velocity=93 time=0.08064516666666667
EXTRACT: note_on channel=6 note=60 velocity=113 time=0
EXTRACT: note_on channel=15 note=56 velocity=1 time=0
EXTRACT: note_on channel=15 note=60 velocity=1 time=0
EXTRACT: note_on channel=4 note=65 velocity=119 time=0.0025201614583333335
EXTRACT: note_on channel=4 note=72 velocity=127 time=0
EXTRACT: note_on channel=7 note=65 velocity=79 time=0
EXTRACT: note_on channel=7 note=68 velocity=76 time=0
EXTRACT: note_on channel=7 note=72 velocity=84 time=0
EXTRACT: note_on channel=9 note=59 velocity=70 time=0
EXTRACT: note_on channel=9 note=62 velocity=113 time=0
EXTRACT: note_on channel=9 note=82 velocity=79 time=0
EXTRACT: note_on channel=15 note=65 velocity=1 time=0
EXTRACT: note_on channel=15 note=72 velocity=1 time=0
EXTRACT: note_on channel=9 note=40 velocity=120 time=0.007560484375000001
EXTRACT: note_on channel=9 note=82 velocity=0 time=0.0025201614583333335
EXTRACT: note_on channel=9 note=62 velocity=0 time=0
EXTRACT: note_on channel=9 note=59 velocity=0 time=0
EXTRACT: note_on channel=9 note=40 velocity=0 time=0.007560484375000001
EXTRACT: note_on channel=9 note=82 velocity=68 time=0.10332661979166667
EXTRACT: note_on channel=9 note=82 velocity=0 time=0.010080645833333334
EXTRACT: note_on channel=2 note=41 velocity=0 time=0.07812500520833333
EXTRACT: note_on channel=1 note=29 velocity=0 time=0
EXTRACT: note_on channel=13 note=41 velocity=0 time=0
EXTRACT: note_on channel=15 note=72 velocity=0 time=0.022681453125
EXTRACT: note_on channel=4 note=72 velocity=0 time=0
EXTRACT: note_on channel=1 note=24 velocity=107 time=0
EXTRACT: note_on channel=2 note=36 velocity=113 time=0
EXTRACT: note_on channel=13 note=36 velocity=95 time=0
EXTRACT: note_on channel=15 note=65 velocity=0 time=0.005040322916666667
EXTRACT: note_on channel=4 note=65 velocity=0 time=0
EXTRACT: note_on channel=3 note=72 velocity=101 time=0.005040322916666667
EXTRACT: note_on channel=9 note=46 velocity=56 time=0
EXTRACT: note_on channel=9 note=61 velocity=93 time=0
EXTRACT: note_on channel=9 note=82 velocity=54 time=0
EXTRACT: note_on channel=9 note=35 velocity=89 time=0.007560484375000001
EXTRACT: note_on channel=9 note=76 velocity=80 time=0
EXTRACT: note_on channel=12 note=23 velocity=89 time=0
EXTRACT: note_on channel=9 note=82 velocity=0 time=0.0025201614583333335
EXTRACT: note_on channel=9 note=61 velocity=0 time=0
EXTRACT: note_on channel=9 note=46 velocity=0 time=0
EXTRACT: note_on channel=9 note=86 velocity=108 time=0
EXTRACT: note_on channel=9 note=76 velocity=0 time=0.007560484375000001
EXTRACT: note_on channel=9 note=35 velocity=0 time=0
EXTRACT: note_on channel=9 note=86 velocity=0 time=0.0025201614583333335
EXTRACT: note_on channel=15 note=60 velocity=0 time=0.015120968750000002
EXTRACT: note_on channel=6 note=60 velocity=0 time=0
EXTRACT: note_on channel=12 note=23 velocity=0 time=0.005040322916666667
EXTRACT: note_on channel=3 note=72 velocity=0 time=0.0025201614583333335
EXTRACT: note_on channel=5 note=56 velocity=0 time=0.017641130208333335
EXTRACT: note_on channel=15 note=56 velocity=0 time=0
EXTRACT: note_on channel=7 note=68 velocity=0 time=0.010080645833333334
EXTRACT: note_on channel=7 note=65 velocity=0 time=0.015120968750000002
EXTRACT: note_on channel=7 note=72 velocity=0 time=0
EXTRACT: note_on channel=3 note=72 velocity=80 time=0.03528226041666667
EXTRACT: note_on channel=9 note=61 velocity=93 time=0
EXTRACT: note_on channel=9 note=82 velocity=45 time=0
EXTRACT: note_on channel=9 note=35 velocity=85 time=0.005040322916666667
EXTRACT: note_on channel=9 note=86 velocity=99 time=0
EXTRACT: note_on channel=12 note=23 velocity=85 time=0
EXTRACT: note_on channel=9 note=82 velocity=0 time=0.005040322916666667
EXTRACT: note_on channel=9 note=61 velocity=0 time=0
EXTRACT: note_on channel=9 note=86 velocity=0 time=0.005040322916666667
EXTRACT: note_on channel=9 note=35 velocity=0 time=0
EXTRACT: note_on channel=12 note=23 velocity=0 time=0.022681453125
EXTRACT: note_on channel=3 note=72 velocity=0 time=0.017641130208333335
EXTRACT: note_on channel=3 note=72 velocity=106 time=0.06552419791666667
EXTRACT: note_on channel=9 note=59 velocity=70 time=0
EXTRACT: note_on channel=9 note=82 velocity=78 time=0
EXTRACT: note_on channel=9 note=86 velocity=113 time=0.0025201614583333335
EXTRACT: note_on channel=9 note=82 velocity=0 time=0.007560484375000001
EXTRACT: note_on channel=9 note=59 velocity=0 time=0
EXTRACT: note_on channel=9 note=86 velocity=0 time=0.0025201614583333335
EXTRACT: note_on channel=3 note=72 velocity=0 time=0.03276209895833333
EXTRACT: note_on channel=3 note=72 velocity=106 time=0.07560484375
EXTRACT: note_on channel=9 note=61 velocity=93 time=0
EXTRACT: note_on channel=9 note=82 velocity=68 time=0
EXTRACT: note_on channel=9 note=35 velocity=85 time=0.005040322916666667
EXTRACT: note_on channel=9 note=86 velocity=108 time=0
EXTRACT: note_on channel=12 note=23 velocity=85 time=0
EXTRACT: note_on channel=9 note=82 velocity=0 time=0.005040322916666667
EXTRACT: note_on channel=9 note=61 velocity=0 time=0
EXTRACT: note_on channel=9 note=86 velocity=0 time=0.005040322916666667
EXTRACT: note_on channel=9 note=35 velocity=0 time=0
EXTRACT: note_on channel=10 note=60 velocity=0 time=0
EXTRACT: note_on channel=12 note=23 velocity=0 time=0.022681453125
EXTRACT: note_on channel=3 note=72 velocity=0 time=0.010080645833333334
EXTRACT: note_on channel=10 note=60 velocity=93 time=0.05796371354166667
EXTRACT: note_on channel=1 note=32 velocity=107 time=0.007560484375000001
EXTRACT: note_on channel=2 note=44 velocity=113 time=0
EXTRACT: note_on channel=13 note=44 velocity=95 time=0
EXTRACT: note_on channel=3 note=72 velocity=110 time=0.007560484375000001
EXTRACT: note_on channel=9 note=46 velocity=60 time=0
EXTRACT: note_on channel=9 note=82 velocity=58 time=0
EXTRACT: note_on channel=9 note=35 velocity=85 time=0.005040322916666667
EXTRACT: note_on channel=12 note=23 velocity=85 time=0
EXTRACT: note_on channel=9 note=82 velocity=0 time=0.005040322916666667
EXTRACT: note_on channel=9 note=46 velocity=0 time=0
EXTRACT: note_on channel=1 note=24 velocity=0 time=0.0025201614583333335
EXTRACT: note_on channel=2 note=36 velocity=0 time=0
EXTRACT: note_on channel=13 note=36 velocity=0 time=0
EXTRACT: note_on channel=9 note=35 velocity=0 time=0.0025201614583333335
EXTRACT: note_on channel=12 note=23 velocity=0 time=0.022681453125
EXTRACT: note_on channel=3 note=72 velocity=0 time=0.05796371354166667
EXTRACT: note_on channel=9 note=86 velocity=113 time=0.017641130208333335
EXTRACT: note_on channel=3 note=73 velocity=84 time=0.007560484375000001
EXTRACT: note_on channel=9 note=61 velocity=93 time=0
EXTRACT: note_on channel=9 note=82 velocity=42 time=0
EXTRACT: note_on channel=9 note=86 velocity=0 time=0.0025201614583333335
EXTRACT: note_on channel=9 note=82 velocity=0 time=0.007560484375000001
EXTRACT: note_on channel=9 note=61 velocity=0 time=0
EXTRACT: note_on channel=9 note=76 velocity=80 time=0.012600807291666667
EXTRACT: note_on channel=9 note=76 velocity=0 time=0.010080645833333334
EXTRACT: note_on channel=10 note=61 velocity=98 time=0.07560484375
EXTRACT: note_on channel=10 note=60 velocity=0 time=0.0025201614583333335
EXTRACT: note_on channel=9 note=40 velocity=120 time=0.010080645833333334
EXTRACT: note_on channel=9 note=59 velocity=70 time=0
EXTRACT: note_on channel=9 note=62 velocity=107 time=0
EXTRACT: note_on channel=9 note=72 velocity=32 time=0
EXTRACT: note_on channel=9 note=82 velocity=78 time=0
EXTRACT: note_on channel=1 note=29 velocity=113 time=0.0025201614583333335
EXTRACT: note_on channel=2 note=41 velocity=119 time=0
EXTRACT: note_on channel=13 note=41 velocity=101 time=0
EXTRACT: note_on channel=2 note=44 velocity=0 time=0.0025201614583333335
EXTRACT: note_on channel=1 note=32 velocity=0 time=0
EXTRACT: note_on channel=13 note=44 velocity=0 time=0
EXTRACT: note_on channel=9 note=72 velocity=0 time=0.005040322916666667
EXTRACT: note_on channel=9 note=62 velocity=0 time=0
EXTRACT: note_on channel=9 note=82 velocity=0 time=0
EXTRACT: note_on channel=9 note=40 velocity=0 time=0
EXTRACT: note_on channel=9 note=59 velocity=0 time=0
EXTRACT: note_on channel=3 note=73 velocity=0 time=0.015120968750000002
EXTRACT: note_on channel=3 note=72 velocity=101 time=0.09576613541666668
EXTRACT: note_on channel=9 note=82 velocity=64 time=0
EXTRACT: note_on channel=9 note=82 velocity=0 time=0.010080645833333334
EXTRACT: note_on channel=10 note=61 velocity=0 time=0.09576613541666668
EXTRACT: note_on channel=2 note=41 velocity=0 time=0.005040322916666667
EXTRACT: note_on channel=13 note=41 velocity=0 time=0
EXTRACT: note_on channel=1 note=29 velocity=0 time=0
EXTRACT: note_on channel=10 note=60 velocity=93 time=0
EXTRACT: note_on channel=1 note=24 velocity=107 time=0.007560484375000001
EXTRACT: note_on channel=2 note=36 velocity=113 time=0
EXTRACT: note_on channel=13 note=36 velocity=95 time=0
EXTRACT: note_on channel=9 note=46 velocity=56 time=0.0025201614583333335
EXTRACT: note_on channel=9 note=63 velocity=89 time=0
EXTRACT: note_on channel=9 note=82 velocity=51 time=0
EXTRACT: note_on channel=9 note=35 velocity=89 time=0.005040322916666667
EXTRACT: note_on channel=12 note=23 velocity=89 time=0
EXTRACT: note_on channel=9 note=76 velocity=80 time=0.0025201614583333335
EXTRACT: note_on channel=9 note=82 velocity=0 time=0.0025201614583333335
EXTRACT: note_on channel=9 note=63 velocity=0 time=0
EXTRACT: note_on channel=9 note=46 velocity=0 time=0
EXTRACT: note_on channel=9 note=86 velocity=108 time=0.0025201614583333335
EXTRACT: note_on channel=9 note=35 velocity=0 time=0.0025201614583333335
EXTRACT: note_on channel=9 note=76 velocity=0 time=0.0025201614583333335
EXTRACT: note_on channel=9 note=86 velocity=0 time=0.005040322916666667
EXTRACT: note_on channel=12 note=23 velocity=0 time=0.015120968750000002
EXTRACT: note_on channel=9 note=82 velocity=43 time=0.08316532812500001
EXTRACT: note_on channel=9 note=82 velocity=0 time=0.010080645833333334
EXTRACT: note_on channel=3 note=72 velocity=0 time=0
EXTRACT: note_on channel=9 note=86 velocity=95 time=0.005040322916666667
EXTRACT: note_on channel=9 note=86 velocity=0 time=0.010080645833333334
EXTRACT: note_on channel=10 note=58 velocity=89 time=0.07308468229166667
EXTRACT: note_on channel=10 note=60 velocity=0 time=0.0025201614583333335
EXTRACT: note_on channel=5 note=55 velocity=107 time=0.017641130208333335
EXTRACT: note_on channel=6 note=60 velocity=119 time=0
EXTRACT: note_on channel=15 note=55 velocity=1 time=0
EXTRACT: note_on channel=15 note=60 velocity=1 time=0
EXTRACT: note_on channel=13 note=36 velocity=0 time=0.0025201614583333335
EXTRACT: note_on channel=2 note=36 velocity=0 time=0
EXTRACT: note_on channel=1 note=24 velocity=0 time=0
EXTRACT: note_on channel=4 note=64 velocity=127 time=0
EXTRACT: note_on channel=4 note=70 velocity=107 time=0
EXTRACT: note_on channel=7 note=64 velocity=98 time=0
EXTRACT: note_on channel=7 note=67 velocity=102 time=0
EXTRACT: note_on channel=7 note=70 velocity=102 time=0
EXTRACT: note_on channel=9 note=59 velocity=70 time=0
EXTRACT: note_on channel=9 note=64 velocity=102 time=0
EXTRACT: note_on channel=9 note=82 velocity=79 time=0
EXTRACT: note_on channel=15 note=64 velocity=1 time=0
EXTRACT: note_on channel=15 note=70 velocity=1 time=0
EXTRACT: note_on channel=9 note=35 velocity=102 time=0.005040322916666667
EXTRACT: note_on channel=12 note=23 velocity=102 time=0
EXTRACT: note_on channel=9 note=86 velocity=108 time=0.0025201614583333335
EXTRACT: note_on channel=9 note=82 velocity=0 time=0.0025201614583333335
EXTRACT: note_on channel=9 note=64 velocity=0 time=0
EXTRACT: note_on channel=9 note=59 velocity=0 time=0
EXTRACT: note_on channel=1 note=31 velocity=113 time=0
EXTRACT: note_on channel=2 note=43 velocity=119 time=0
EXTRACT: note_on channel=13 note=43 velocity=101 time=0
EXTRACT: note_on channel=9 note=35 velocity=0 time=0.005040322916666667
EXTRACT: note_on channel=9 note=86 velocity=0 time=0.0025201614583333335
EXTRACT: note_on channel=6 note=60 velocity=0 time=0.017641130208333335
EXTRACT: note_on channel=15 note=60 velocity=0 time=0
EXTRACT: note_on channel=5 note=55 velocity=0 time=0
EXTRACT: note_on channel=15 note=55 velocity=0 time=0
EXTRACT: note_on channel=7 note=64 velocity=0 time=0.0025201614583333335
EXTRACT: note_on channel=4 note=64 velocity=0 time=0
EXTRACT: note_on channel=15 note=64 velocity=0 time=0
EXTRACT: note_on channel=12 note=23 velocity=0 time=0
EXTRACT: note_on channel=7 note=70 velocity=0 time=0
EXTRACT: note_on channel=4 note=70 velocity=0 time=0
EXTRACT: note_on channel=15 note=70 velocity=0 time=0
EXTRACT: note_on channel=7 note=67 velocity=0 time=0
EXTRACT: note_on channel=5 note=55 velocity=102 time=0.08064516666666667
EXTRACT: note_on channel=6 note=60 velocity=113 time=0
EXTRACT: note_on channel=15 note=55 velocity=1 time=0
EXTRACT: note_on channel=15 note=60 velocity=1 time=0
EXTRACT: note_on channel=4 note=64 velocity=113 time=0.0025201614583333335
EXTRACT: note_on channel=4 note=70 velocity=93 time=0
EXTRACT: note_on channel=7 note=64 velocity=89 time=0
EXTRACT: note_on channel=7 note=67 velocity=93 time=0
EXTRACT: note_on channel=7 note=70 velocity=93 time=0
EXTRACT: note_on channel=9 note=82 velocity=67 time=0
EXTRACT: note_on channel=15 note=64 velocity=1 time=0
EXTRACT: note_on channel=15 note=70 velocity=1 time=0
EXTRACT: note_on channel=9 note=82 velocity=0 time=0.010080645833333334
EXTRACT: note_on channel=9 note=86 velocity=113 time=0
EXTRACT: note_on channel=9 note=86 velocity=0 time=0.010080645833333334
EXTRACT: note_on channel=15 note=55 velocity=0 time=0.015120968750000002
EXTRACT: note_on channel=15 note=60 velocity=0 time=0
EXTRACT: note_on channel=6 note=60 velocity=0 time=0
EXTRACT: note_on channel=5 note=55 velocity=0 time=0
EXTRACT: note_on channel=15 note=70 velocity=0 time=0.0025201614583333335
EXTRACT: note_on channel=4 note=70 velocity=0 time=0
EXTRACT: note_on channel=4 note=64 velocity=0 time=0
EXTRACT: note_on channel=7 note=64 velocity=0 time=0
EXTRACT: note_on channel=7 note=67 velocity=0 time=0
EXTRACT: note_on channel=15 note=64 velocity=0 time=0
EXTRACT: note_on channel=7 note=70 velocity=0 time=0
EXTRACT: note_on channel=5 note=55 velocity=72 time=0.08064516666666667
EXTRACT: note_on channel=6 note=60 velocity=107 time=0
EXTRACT: note_on channel=15 note=55 velocity=1 time=0
EXTRACT: note_on channel=15 note=60 velocity=1 time=0
EXTRACT: note_on channel=4 note=64 velocity=102 time=0.0025201614583333335
EXTRACT: note_on channel=4 note=70 velocity=107 time=0
EXTRACT: note_on channel=7 note=64 velocity=76 time=0
EXTRACT: note_on channel=7 note=67 velocity=98 time=0
EXTRACT: note_on channel=7 note=70 velocity=102 time=0
EXTRACT: note_on channel=9 note=46 velocity=60 time=0
EXTRACT: note_on channel=9 note=63 velocity=98 time=0
EXTRACT: note_on channel=9 note=82 velocity=54 time=0
EXTRACT: note_on channel=15 note=64 velocity=1 time=0
EXTRACT: note_on channel=15 note=70 velocity=1 time=0
EXTRACT: note_on channel=9 note=82 velocity=0 time=0.010080645833333334
EXTRACT: note_on channel=9 note=63 velocity=0 time=0
EXTRACT: note_on channel=9 note=46 velocity=0 time=0
EXTRACT: note_on channel=15 note=55 velocity=0 time=0.025201614583333334
EXTRACT: note_on channel=6 note=60 velocity=0 time=0
EXTRACT: note_on channel=15 note=60 velocity=0 time=0
EXTRACT: note_on channel=5 note=55 velocity=0 time=0
EXTRACT: note_on channel=15 note=64 velocity=0 time=0.0025201614583333335
EXTRACT: note_on channel=4 note=70 velocity=0 time=0
EXTRACT: note_on channel=4 note=64 velocity=0 time=0
EXTRACT: note_on channel=15 note=70 velocity=0 time=0
EXTRACT: note_on channel=7 note=64 velocity=0 time=0
EXTRACT: note_on channel=7 note=67 velocity=0 time=0
EXTRACT: note_on channel=7 note=70 velocity=0 time=0
EXTRACT: note_on channel=1 note=31 velocity=0 time=0.04284274479166667
EXTRACT: note_on channel=13 note=43 velocity=0 time=0
EXTRACT: note_on channel=2 note=43 velocity=0 time=0
EXTRACT: note_on channel=1 note=27 velocity=110 time=0.03528226041666667
EXTRACT: note_on channel=2 note=39 velocity=117 time=0
EXTRACT: note_on channel=13 note=39 velocity=97 time=0
EXTRACT: note_on channel=5 note=55 velocity=107 time=0.0025201614583333335
EXTRACT: note_on channel=6 note=60 velocity=113 time=0
EXTRACT: note_on channel=15 note=55 velocity=1 time=0
EXTRACT: note_on channel=15 note=60 velocity=1 time=0
EXTRACT: note_on channel=4 note=64 velocity=102 time=0.0025201614583333335
EXTRACT: note_on channel=4 note=70 velocity=93 time=0
EXTRACT: note_on channel=7 note=64 velocity=89 time=0
EXTRACT: note_on channel=7 note=67 velocity=102 time=0
EXTRACT: note_on channel=7 note=70 velocity=107 time=0
EXTRACT: note_on channel=9 note=82 velocity=42 time=0
EXTRACT: note_on channel=15 note=64 velocity=1 time=0
EXTRACT: note_on channel=15 note=70 velocity=1 time=0
EXTRACT: note_on channel=9 note=86 velocity=113 time=0.005040322916666667
EXTRACT: note_on channel=9 note=82 velocity=0 time=0.005040322916666667
EXTRACT: note_on channel=9 note=86 velocity=0 time=0.005040322916666667
EXTRACT: note_on channel=9 note=76 velocity=80 time=0.007560484375000001
EXTRACT: note_on channel=9 note=76 velocity=0 time=0.010080645833333334
EXTRACT: note_on channel=15 note=55 velocity=0 time=0.0025201614583333335
EXTRACT: note_on channel=15 note=60 velocity=0 time=0
EXTRACT: note_on channel=6 note=60 velocity=0 time=0
EXTRACT: note_on channel=5 note=55 velocity=0 time=0
EXTRACT: note_on channel=4 note=64 velocity=0 time=0.0025201614583333335
EXTRACT: note_on channel=4 note=70 velocity=0 time=0
EXTRACT: note_on channel=15 note=70 velocity=0 time=0
EXTRACT: note_on channel=7 note=64 velocity=0 time=0
EXTRACT: note_on channel=7 note=67 velocity=0 time=0
EXTRACT: note_on channel=15 note=64 velocity=0 time=0
EXTRACT: note_on channel=7 note=70 velocity=0 time=0
EXTRACT: note_on channel=5 note=55 velocity=93 time=0.08064516666666667
EXTRACT: note_on channel=6 note=60 velocity=113 time=0
EXTRACT: note_on channel=15 note=55 velocity=1 time=0
EXTRACT: note_on channel=15 note=60 velocity=1 time=0
EXTRACT: note_on channel=4 note=64 velocity=119 time=0.0025201614583333335
EXTRACT: note_on channel=4 note=70 velocity=127 time=0
EXTRACT: note_on channel=7 note=64 velocity=75 time=0
EXTRACT: note_on channel=7 note=67 velocity=84 time=0
EXTRACT: note_on channel=7 note=70 velocity=84 time=0
EXTRACT: note_on channel=9 note=59 velocity=70 time=0
EXTRACT: note_on channel=9 note=62 velocity=107 time=0
EXTRACT: note_on channel=9 note=72 velocity=36 time=0
EXTRACT: note_on channel=9 note=82 velocity=79 time=0
EXTRACT: note_on channel=15 note=64 velocity=1 time=0
EXTRACT: note_on channel=15 note=70 velocity=1 time=0
EXTRACT: note_on channel=9 note=40 velocity=120 time=0.0025201614583333335
EXTRACT: note_on channel=9 note=82 velocity=0 time=0.007560484375000001
EXTRACT: note_on channel=9 note=72 velocity=0 time=0
EXTRACT: note_on channel=9 note=62 velocity=0 time=0
EXTRACT: note_on channel=9 note=59 velocity=0 time=0
EXTRACT: note_on channel=9 note=40 velocity=0 time=0.0025201614583333335
EXTRACT: note_on channel=9 note=82 velocity=68 time=0.10836694270833334
EXTRACT: note_on channel=9 note=82 velocity=0 time=0.010080645833333334
EXTRACT: note_on channel=13 note=39 velocity=0 time=0.098286296875
EXTRACT: note_on channel=1 note=27 velocity=0 time=0
EXTRACT: note_on channel=2 note=39 velocity=0 time=0
EXTRACT: note_on channel=15 note=70 velocity=0 time=0.0025201614583333335
EXTRACT: note_on channel=4 note=70 velocity=0 time=0
EXTRACT: note_on channel=1 note=24 velocity=107 time=0.0025201614583333335
EXTRACT: note_on channel=2 note=36 velocity=113 time=0
EXTRACT: note_on channel=13 note=36 velocity=94 time=0
EXTRACT: note_on channel=15 note=64 velocity=0 time=0.0025201614583333335
EXTRACT: note_on channel=4 note=64 velocity=0 time=0
EXTRACT: note_on channel=3 note=70 velocity=97 time=0.005040322916666667
EXTRACT: note_on channel=9 note=46 velocity=52 time=0
EXTRACT: note_on channel=9 note=61 velocity=102 time=0
EXTRACT: note_on channel=9 note=82 velocity=54 time=0
EXTRACT: note_on channel=9 note=86 velocity=113 time=0.005040322916666667
EXTRACT: note_on channel=9 note=82 velocity=0 time=0.005040322916666667
EXTRACT: note_on channel=9 note=61 velocity=0 time=0
EXTRACT: note_on channel=9 note=46 velocity=0 time=0
EXTRACT: note_on channel=9 note=76 velocity=80 time=0
EXTRACT: note_on channel=9 note=86 velocity=0 time=0.005040322916666667
EXTRACT: note_on channel=9 note=76 velocity=0 time=0.005040322916666667
EXTRACT: note_on channel=15 note=60 velocity=0 time=0.015120968750000002
EXTRACT: note_on channel=6 note=60 velocity=0 time=0
EXTRACT: note_on channel=3 note=70 velocity=0 time=0.007560484375000001
EXTRACT: note_on channel=15 note=55 velocity=0 time=0.017641130208333335
EXTRACT: note_on channel=5 note=55 velocity=0 time=0
EXTRACT: note_on channel=7 note=67 velocity=0 time=0.010080645833333334
EXTRACT: note_on channel=7 note=64 velocity=0 time=0
EXTRACT: note_on channel=7 note=70 velocity=0 time=0
EXTRACT: note_on channel=3 note=70 velocity=97 time=0.05040322916666667
EXTRACT: note_on channel=9 note=35 velocity=72 time=0
EXTRACT: note_on channel=9 note=61 velocity=98 time=0
EXTRACT: note_on channel=9 note=82 velocity=45 time=0
EXTRACT: note_on channel=9 note=86 velocity=82 time=0
EXTRACT: note_on channel=12 note=23 velocity=72 time=0
EXTRACT: note_on channel=9 note=86 velocity=0 time=0.010080645833333334
EXTRACT: note_on channel=9 note=82 velocity=0 time=0
EXTRACT: note_on channel=9 note=61 velocity=0 time=0
EXTRACT: note_on channel=9 note=35 velocity=0 time=0
EXTRACT: note_on channel=12 note=23 velocity=0 time=0.022681453125
EXTRACT: note_on channel=3 note=70 velocity=0 time=0.020161291666666668
EXTRACT: note_on channel=9 note=86 velocity=119 time=0.06300403645833334
EXTRACT: note_on channel=3 note=70 velocity=88 time=0.005040322916666667
EXTRACT: note_on channel=9 note=59 velocity=70 time=0
EXTRACT: note_on channel=9 note=82 velocity=78 time=0
EXTRACT: note_on channel=9 note=86 velocity=0 time=0.005040322916666667
EXTRACT: note_on channel=9 note=82 velocity=0 time=0.005040322916666667
EXTRACT: note_on channel=9 note=59 velocity=0 time=0
EXTRACT: note_on channel=3 note=70 velocity=0 time=0.037802421875
EXTRACT: note_on channel=10 note=58 velocity=0 time=0.04788306770833334
EXTRACT: note_on channel=9 note=35 velocity=102 time=0.022681453125
EXTRACT: note_on channel=12 note=23 velocity=102 time=0
EXTRACT: note_on channel=3 note=70 velocity=97 time=0.0025201614583333335
EXTRACT: note_on channel=9 note=61 velocity=107 time=0
EXTRACT: note_on channel=9 note=82 velocity=68 time=0
EXTRACT: note_on channel=9 note=86 velocity=113 time=0
EXTRACT: note_on channel=9 note=35 velocity=0 time=0.007560484375000001
EXTRACT: note_on channel=9 note=86 velocity=0 time=0.0025201614583333335
EXTRACT: note_on channel=9 note=82 velocity=0 time=0
EXTRACT: note_on channel=9 note=61 velocity=0 time=0
EXTRACT: note_on channel=12 note=23 velocity=0 time=0.020161291666666668
EXTRACT: note_on channel=3 note=70 velocity=0 time=0.025201614583333334
EXTRACT: note_on channel=10 note=55 velocity=93 time=0.05040322916666667
EXTRACT: note_on channel=3 note=70 velocity=102 time=0.015120968750000002
EXTRACT: note_on channel=9 note=35 velocity=98 time=0
EXTRACT: note_on channel=9 note=46 velocity=60 time=0
EXTRACT: note_on channel=9 note=82 velocity=58 time=0
EXTRACT: note_on channel=12 note=23 velocity=98 time=0
EXTRACT: note_on channel=1 note=31 velocity=113 time=0.0025201614583333335
EXTRACT: note_on channel=2 note=43 velocity=119 time=0
EXTRACT: note_on channel=13 note=43 velocity=101 time=0
EXTRACT: note_on channel=9 note=82 velocity=0 time=0.007560484375000001
EXTRACT: note_on channel=9 note=46 velocity=0 time=0
EXTRACT: note_on channel=9 note=35 velocity=0 time=0
EXTRACT: note_on channel=1 note=24 velocity=0 time=0.015120968750000002
EXTRACT: note_on channel=13 note=36 velocity=0 time=0
EXTRACT: note_on channel=2 note=36 velocity=0 time=0
EXTRACT: note_on channel=12 note=23 velocity=0 time=0.007560484375000001
EXTRACT: note_on channel=3 note=70 velocity=0 time=0.022681453125
EXTRACT: note_on channel=9 note=86 velocity=119 time=0.06300403645833334
EXTRACT: note_on channel=3 note=72 velocity=101 time=0.0025201614583333335
EXTRACT: note_on channel=9 note=61 velocity=107 time=0
EXTRACT: note_on channel=9 note=82 velocity=42 time=0
EXTRACT: note_on channel=9 note=86 velocity=0 time=0.007560484375000001
EXTRACT: note_on channel=9 note=82 velocity=0 time=0.0025201614583333335
EXTRACT: note_on channel=9 note=61 velocity=0 time=0
EXTRACT: note_on channel=9 note=76 velocity=80 time=0.012600807291666667
EXTRACT: note_on channel=9 note=76 velocity=0 time=0.010080645833333334
EXTRACT: note_on channel=2 note=43 velocity=0 time=0.07812500520833333
EXTRACT: note_on channel=1 note=31 velocity=0 time=0
EXTRACT: note_on channel=13 note=43 velocity=0 time=0
EXTRACT: note_on channel=10 note=56 velocity=89 time=0
EXTRACT: note_on channel=9 note=40 velocity=120 time=0.010080645833333334
EXTRACT: note_on channel=9 note=59 velocity=70 time=0
EXTRACT: note_on channel=9 note=62 velocity=107 time=0
EXTRACT: note_on channel=9 note=72 velocity=34 time=0
EXTRACT: note_on channel=9 note=82 velocity=78 time=0
EXTRACT: note_on channel=10 note=55 velocity=0 time=0.005040322916666667
EXTRACT: note_on channel=1 note=28 velocity=107 time=0
EXTRACT: note_on channel=2 note=40 velocity=113 time=0
EXTRACT: note_on channel=13 note=40 velocity=95 time=0
EXTRACT: note_on channel=9 note=82 velocity=0 time=0.005040322916666667
EXTRACT: note_on channel=9 note=59 velocity=0 time=0
EXTRACT: note_on channel=9 note=40 velocity=0 time=0
EXTRACT: note_on channel=9 note=72 velocity=0 time=0
EXTRACT: note_on channel=9 note=62 velocity=0 time=0
EXTRACT: note_on channel=3 note=72 velocity=0 time=0.012600807291666667
EXTRACT: note_on channel=3 note=70 velocity=101 time=0.098286296875
EXTRACT: note_on channel=9 note=82 velocity=64 time=0
EXTRACT: note_on channel=9 note=82 velocity=0 time=0.010080645833333334
EXTRACT: note_on channel=1 note=28 velocity=0 time=0.10584678125000001
EXTRACT: note_on channel=2 note=40 velocity=0 time=0
EXTRACT: note_on channel=13 note=40 velocity=0 time=0
EXTRACT: note_on channel=1 note=24 velocity=101 time=0.005040322916666667
EXTRACT: note_on channel=2 note=36 velocity=107 time=0
EXTRACT: note_on channel=9 note=46 velocity=47 time=0
EXTRACT: note_on channel=9 note=63 velocity=102 time=0
EXTRACT: note_on channel=9 note=82 velocity=51 time=0
EXTRACT: note_on channel=13 note=36 velocity=89 time=0
EXTRACT: note_on channel=9 note=76 velocity=80 time=0.0025201614583333335
EXTRACT: note_on channel=9 note=86 velocity=113 time=0
EXTRACT: note_on channel=10 note=58 velocity=93 time=0.0025201614583333335
EXTRACT: note_on channel=9 note=35 velocity=85 time=0.0025201614583333335
EXTRACT: note_on channel=12 note=23 velocity=85 time=0
EXTRACT: note_on channel=9 note=82 velocity=0 time=0.0025201614583333335
EXTRACT: note_on channel=9 note=63 velocity=0 time=0
EXTRACT: note_on channel=9 note=46 velocity=0 time=0
EXTRACT: note_on channel=9 note=86 velocity=0 time=0.0025201614583333335
EXTRACT: note_on channel=9 note=76 velocity=0 time=0
EXTRACT: note_on channel=9 note=35 velocity=0 time=0.005040322916666667
EXTRACT: note_on channel=10 note=56 velocity=0 time=0.015120968750000002
EXTRACT: note_on channel=12 note=23 velocity=0 time=0.007560484375000001
EXTRACT: note_on channel=3 note=70 velocity=0 time=0.040322583333333335
EXTRACT: note_on channel=9 note=82 velocity=43 time=0.040322583333333335
EXTRACT: note_on channel=9 note=86 velocity=91 time=0.0025201614583333335
EXTRACT: note_on channel=9 note=82 velocity=0 time=0.007560484375000001
EXTRACT: note_on channel=9 note=86 velocity=0 time=0.0025201614583333335
EXTRACT: note_on channel=2 note=36 velocity=0 time=0.09324597395833334
EXTRACT: note_on channel=1 note=24 velocity=0 time=0
EXTRACT: note_on channel=13 note=36 velocity=0 time=0
EXTRACT: note_on channel=9 note=86 velocity=113 time=0.007560484375000001
EXTRACT: note_on channel=4 note=65 velocity=107 time=0.007560484375000001
EXTRACT: note_on channel=4 note=72 velocity=118 time=0
EXTRACT: note_on channel=5 note=56 velocity=107 time=0
EXTRACT: note_on channel=6 note=60 velocity=114 time=0
EXTRACT: note_on channel=7 note=65 velocity=93 time=0
EXTRACT: note_on channel=7 note=68 velocity=102 time=0
EXTRACT: note_on channel=7 note=72 velocity=102 time=0
EXTRACT: note_on channel=9 note=59 velocity=70 time=0
EXTRACT: note_on channel=9 note=64 velocity=102 time=0
EXTRACT: note_on channel=9 note=82 velocity=79 time=0
EXTRACT: note_on channel=15 note=56 velocity=1 time=0
EXTRACT: note_on channel=15 note=60 velocity=1 time=0
EXTRACT: note_on channel=15 note=65 velocity=1 time=0
EXTRACT: note_on channel=15 note=72 velocity=1 time=0
EXTRACT: note_on channel=9 note=86 velocity=0 time=0.0025201614583333335
EXTRACT: note_on channel=10 note=58 velocity=0 time=0
EXTRACT: note_on channel=1 note=32 velocity=107 time=0
EXTRACT: note_on channel=2 note=44 velocity=113 time=0
EXTRACT: note_on channel=13 note=44 velocity=95 time=0
EXTRACT: note_on channel=9 note=35 velocity=107 time=0.0025201614583333335
EXTRACT: note_on channel=12 note=23 velocity=107 time=0
EXTRACT: note_on channel=9 note=64 velocity=0 time=0.005040322916666667
EXTRACT: note_on channel=9 note=59 velocity=0 time=0
EXTRACT: note_on channel=9 note=82 velocity=0 time=0
EXTRACT: note_on channel=10 note=60 velocity=89 time=0
EXTRACT: note_on channel=9 note=35 velocity=0 time=0.005040322916666667
EXTRACT: note_on channel=15 note=72 velocity=0 time=0.022681453125
EXTRACT: note_on channel=7 note=72 velocity=0 time=0
EXTRACT: note_on channel=12 note=23 velocity=0 time=0
EXTRACT: note_on channel=6 note=60 velocity=0 time=0
EXTRACT: note_on channel=7 note=65 velocity=0 time=0
EXTRACT: note_on channel=4 note=65 velocity=0 time=0
EXTRACT: note_on channel=4 note=72 velocity=0 time=0
EXTRACT: note_on channel=15 note=60 velocity=0 time=0
EXTRACT: note_on channel=5 note=56 velocity=0 time=0
EXTRACT: note_on channel=7 note=68 velocity=0 time=0
EXTRACT: note_on channel=15 note=65 velocity=0 time=0
EXTRACT: note_on channel=15 note=56 velocity=0 time=0
EXTRACT: note_on channel=5 note=56 velocity=102 time=0.08064516666666667
EXTRACT: note_on channel=6 note=60 velocity=113 time=0
EXTRACT: note_on channel=9 note=86 velocity=119 time=0
EXTRACT: note_on channel=15 note=56 velocity=1 time=0
EXTRACT: note_on channel=15 note=60 velocity=1 time=0
EXTRACT: note_on channel=4 note=65 velocity=93 time=0.0025201614583333335
EXTRACT: note_on channel=4 note=72 velocity=113 time=0
EXTRACT: note_on channel=7 note=65 velocity=76 time=0
EXTRACT: note_on channel=7 note=68 velocity=89 time=0
EXTRACT: note_on channel=7 note=72 velocity=98 time=0
EXTRACT: note_on channel=9 note=82 velocity=67 time=0
EXTRACT: note_on channel=15 note=65 velocity=1 time=0
EXTRACT: note_on channel=15 note=72 velocity=1 time=0
EXTRACT: note_on channel=9 note=86 velocity=0 time=0.007560484375000001
EXTRACT: note_on channel=9 note=82 velocity=0 time=0.0025201614583333335
EXTRACT: note_on channel=15 note=60 velocity=0 time=0.025201614583333334
EXTRACT: note_on channel=15 note=56 velocity=0 time=0
EXTRACT: note_on channel=6 note=60 velocity=0 time=0
EXTRACT: note_on channel=5 note=56 velocity=0 time=0
EXTRACT: note_on channel=15 note=65 velocity=0 time=0.0025201614583333335
EXTRACT: note_on channel=4 note=65 velocity=0 time=0
EXTRACT: note_on channel=15 note=72 velocity=0 time=0
EXTRACT: note_on channel=4 note=72 velocity=0 time=0
EXTRACT: note_on channel=7 note=65 velocity=0 time=0
EXTRACT: note_on channel=7 note=72 velocity=0 time=0
EXTRACT: note_on channel=7 note=68 velocity=0 time=0
EXTRACT: note_on channel=5 note=56 velocity=72 time=0.08064516666666667
EXTRACT: note_on channel=6 note=60 velocity=107 time=0
EXTRACT: note_on channel=15 note=56 velocity=1 time=0
EXTRACT: note_on channel=15 note=60 velocity=1 time=0
EXTRACT: note_on channel=4 note=65 velocity=107 time=0.0025201614583333335
EXTRACT: note_on channel=4 note=72 velocity=102 time=0
EXTRACT: note_on channel=7 note=65 velocity=56 time=0
EXTRACT: note_on channel=7 note=68 velocity=89 time=0
EXTRACT: note_on channel=7 note=72 velocity=89 time=0
EXTRACT: note_on channel=9 note=46 velocity=60 time=0
EXTRACT: note_on channel=9 note=63 velocity=98 time=0
EXTRACT: note_on channel=9 note=82 velocity=54 time=0
EXTRACT: note_on channel=15 note=65 velocity=1 time=0
EXTRACT: note_on channel=15 note=72 velocity=1 time=0
EXTRACT: note_on channel=9 note=82 velocity=0 time=0.010080645833333334
EXTRACT: note_on channel=9 note=63 velocity=0 time=0
EXTRACT: note_on channel=9 note=46 velocity=0 time=0
EXTRACT: note_on channel=15 note=56 velocity=0 time=0.025201614583333334
EXTRACT: note_on channel=6 note=60 velocity=0 time=0
EXTRACT: note_on channel=15 note=60 velocity=0 time=0
EXTRACT: note_on channel=5 note=56 velocity=0 time=0
EXTRACT: note_on channel=15 note=65 velocity=0 time=0.0025201614583333335
EXTRACT: note_on channel=4 note=72 velocity=0 time=0
EXTRACT: note_on channel=4 note=65 velocity=0 time=0
EXTRACT: note_on channel=15 note=72 velocity=0 time=0
EXTRACT: note_on channel=7 note=65 velocity=0 time=0
EXTRACT: note_on channel=7 note=68 velocity=0 time=0
EXTRACT: note_on channel=7 note=72 velocity=0 time=0
EXTRACT: note_on channel=13 note=44 velocity=0 time=0.040322583333333335
EXTRACT: note_on channel=1 note=32 velocity=0 time=0
EXTRACT: note_on channel=2 note=44 velocity=0 time=0
EXTRACT: note_on channel=1 note=29 velocity=113 time=0.027721776041666667
EXTRACT: note_on channel=2 note=41 velocity=119 time=0
EXTRACT: note_on channel=13 note=41 velocity=101 time=0
EXTRACT: note_on channel=5 note=56 velocity=107 time=0.012600807291666667
EXTRACT: note_on channel=6 note=60 velocity=113 time=0
EXTRACT: note_on channel=9 note=76 velocity=80 time=0
EXTRACT: note_on channel=15 note=56 velocity=1 time=0
EXTRACT: note_on channel=15 note=60 velocity=1 time=0
EXTRACT: note_on channel=4 note=65 velocity=93 time=0.0025201614583333335
EXTRACT: note_on channel=4 note=72 velocity=102 time=0
EXTRACT: note_on channel=7 note=65 velocity=47 time=0
EXTRACT: note_on channel=7 note=68 velocity=107 time=0
EXTRACT: note_on channel=7 note=72 velocity=102 time=0
EXTRACT: note_on channel=9 note=82 velocity=42 time=0
EXTRACT: note_on channel=15 note=65 velocity=1 time=0
EXTRACT: note_on channel=15 note=72 velocity=1 time=0
EXTRACT: note_on channel=9 note=76 velocity=0 time=0.007560484375000001
EXTRACT: note_on channel=9 note=82 velocity=0 time=0.0025201614583333335
EXTRACT: note_on channel=15 note=60 velocity=0 time=0.025201614583333334
EXTRACT: note_on channel=15 note=56 velocity=0 time=0
EXTRACT: note_on channel=6 note=60 velocity=0 time=0
EXTRACT: note_on channel=5 note=56 velocity=0 time=0
EXTRACT: note_on channel=15 note=65 velocity=0 time=0.0025201614583333335
EXTRACT: note_on channel=4 note=65 velocity=0 time=0
EXTRACT: note_on channel=15 note=72 velocity=0 time=0
EXTRACT: note_on channel=4 note=72 velocity=0 time=0
EXTRACT: note_on channel=7 note=65 velocity=0 time=0
EXTRACT: note_on channel=7 note=72 velocity=0 time=0
EXTRACT: note_on channel=7 note=68 velocity=0 time=0
EXTRACT: note_on channel=5 note=56 velocity=93 time=0.08064516666666667
EXTRACT: note_on channel=6 note=60 velocity=113 time=0
EXTRACT: note_on channel=15 note=56 velocity=1 time=0
EXTRACT: note_on channel=15 note=60 velocity=1 time=0
EXTRACT: note_on channel=4 note=65 velocity=119 time=0.0025201614583333335
EXTRACT: note_on channel=4 note=72 velocity=120 time=0
EXTRACT: note_on channel=7 note=65 velocity=75 time=0
EXTRACT: note_on channel=7 note=68 velocity=75 time=0
EXTRACT: note_on channel=7 note=72 velocity=75 time=0
EXTRACT: note_on channel=9 note=59 velocity=70 time=0
EXTRACT: note_on channel=9 note=62 velocity=113 time=0
EXTRACT: note_on channel=9 note=72 velocity=45 time=0
EXTRACT: note_on channel=9 note=82 velocity=79 time=0
EXTRACT: note_on channel=15 note=65 velocity=1 time=0
EXTRACT: note_on channel=15 note=72 velocity=1 time=0
EXTRACT: note_on channel=9 note=40 velocity=120 time=0.005040322916666667
EXTRACT: note_on channel=9 note=82 velocity=0 time=0.005040322916666667
EXTRACT: note_on channel=9 note=72 velocity=0 time=0
EXTRACT: note_on channel=9 note=62 velocity=0 time=0
EXTRACT: note_on channel=9 note=59 velocity=0 time=0
EXTRACT: note_on channel=9 note=40 velocity=0 time=0.005040322916666667
EXTRACT: note_on channel=9 note=82 velocity=68 time=0.10584678125000001
EXTRACT: note_on channel=9 note=82 velocity=0 time=0.010080645833333334
EXTRACT: note_on channel=4 note=65 velocity=0 time=0.060483875000000006
EXTRACT: note_on channel=15 note=72 velocity=0 time=0
EXTRACT: note_on channel=15 note=65 velocity=0 time=0
EXTRACT: note_on channel=4 note=72 velocity=0 time=0
EXTRACT: note_on channel=5 note=56 velocity=0 time=0.012600807291666667
EXTRACT: note_on channel=13 note=41 velocity=0 time=0
EXTRACT: note_on channel=15 note=60 velocity=0 time=0
EXTRACT: note_on channel=1 note=29 velocity=0 time=0
EXTRACT: note_on channel=15 note=56 velocity=0 time=0
EXTRACT: note_on channel=6 note=60 velocity=0 time=0
EXTRACT: note_on channel=2 note=41 velocity=0 time=0
EXTRACT: note_on channel=7 note=65 velocity=0 time=0.0025201614583333335
EXTRACT: note_on channel=7 note=72 velocity=0 time=0
EXTRACT: note_on channel=7 note=68 velocity=0 time=0.015120968750000002
EXTRACT: note_on channel=1 note=24 velocity=101 time=0.0025201614583333335
EXTRACT: note_on channel=2 note=36 velocity=107 time=0
EXTRACT: note_on channel=13 note=36 velocity=89 time=0
EXTRACT: note_on channel=9 note=86 velocity=119 time=0.007560484375000001
EXTRACT: note_on channel=5 note=56 velocity=93 time=0.007560484375000001
EXTRACT: note_on channel=6 note=60 velocity=102 time=0
EXTRACT: note_on channel=15 note=56 velocity=1 time=0
EXTRACT: note_on channel=15 note=60 velocity=1 time=0
EXTRACT: note_on channel=9 note=86 velocity=0 time=0.0025201614583333335
EXTRACT: note_on channel=4 note=72 velocity=114 time=0
EXTRACT: note_on channel=7 note=65 velocity=89 time=0
EXTRACT: note_on channel=7 note=68 velocity=89 time=0
EXTRACT: note_on channel=7 note=72 velocity=89 time=0
EXTRACT: note_on channel=9 note=46 velocity=50 time=0
EXTRACT: note_on channel=9 note=61 velocity=107 time=0
EXTRACT: note_on channel=9 note=82 velocity=54 time=0
EXTRACT: note_on channel=15 note=72 velocity=1 time=0
EXTRACT: note_on channel=9 note=76 velocity=80 time=0.005040322916666667
EXTRACT: note_on channel=9 note=82 velocity=0 time=0.005040322916666667
EXTRACT: note_on channel=9 note=61 velocity=0 time=0
EXTRACT: note_on channel=9 note=46 velocity=0 time=0
EXTRACT: note_on channel=9 note=76 velocity=0 time=0.005040322916666667
EXTRACT: note_on channel=9 note=86 velocity=104 time=0.09324597395833334
EXTRACT: note_on channel=7 note=65 velocity=0 time=0.007560484375000001
EXTRACT: note_on channel=9 note=86 velocity=0 time=0.0025201614583333335
EXTRACT: note_on channel=7 note=72 velocity=0 time=0.0025201614583333335
EXTRACT: note_on channel=9 note=61 velocity=102 time=0
EXTRACT: note_on channel=9 note=82 velocity=45 time=0
EXTRACT: note_on channel=7 note=68 velocity=0 time=0.0025201614583333335
EXTRACT: note_on channel=9 note=35 velocity=98 time=0.005040322916666667
EXTRACT: note_on channel=12 note=23 velocity=98 time=0
EXTRACT: note_on channel=9 note=82 velocity=0 time=0.0025201614583333335
EXTRACT: note_on channel=9 note=61 velocity=0 time=0
EXTRACT: note_on channel=9 note=35 velocity=0 time=0.007560484375000001
EXTRACT: note_on channel=12 note=23 velocity=0 time=0.022681453125
EXTRACT: note_on channel=15 note=72 velocity=0 time=0.022681453125
EXTRACT: note_on channel=4 note=72 velocity=0 time=0
EXTRACT: note_on channel=15 note=56 velocity=0 time=0.012600807291666667
EXTRACT: note_on channel=5 note=56 velocity=0 time=0
EXTRACT: note_on channel=15 note=60 velocity=0 time=0.010080645833333334
EXTRACT: note_on channel=6 note=60 velocity=0 time=0
EXTRACT: note_on channel=9 note=86 velocity=108 time=0.022681453125
EXTRACT: note_on channel=9 note=86 velocity=0 time=0.010080645833333334
EXTRACT: note_on channel=9 note=59 velocity=70 time=0.0025201614583333335
EXTRACT: note_on channel=9 note=82 velocity=78 time=0
EXTRACT: note_on channel=9 note=82 velocity=0 time=0.010080645833333334
EXTRACT: note_on channel=9 note=59 velocity=0 time=0
EXTRACT: note_on channel=10 note=60 velocity=0 time=0.04788306770833334
EXTRACT: note_on channel=9 note=86 velocity=104 time=0.05544355208333333
EXTRACT: note_on channel=9 note=61 velocity=98 time=0.007560484375000001
EXTRACT: note_on channel=9 note=82 velocity=68 time=0
EXTRACT: note_on channel=9 note=86 velocity=0 time=0.0025201614583333335
EXTRACT: note_on channel=9 note=35 velocity=85 time=0
EXTRACT: note_on channel=12 note=23 velocity=85 time=0
EXTRACT: note_on channel=9 note=61 velocity=0 time=0.007560484375000001
EXTRACT: note_on channel=9 note=82 velocity=0 time=0
EXTRACT: note_on channel=9 note=35 velocity=0 time=0.0025201614583333335
EXTRACT: note_on channel=12 note=23 velocity=0 time=0.022681453125
EXTRACT: note_on channel=1 note=32 velocity=107 time=0.07308468229166667
EXTRACT: note_on channel=2 note=44 velocity=113 time=0
EXTRACT: note_on channel=10 note=60 velocity=93 time=0
EXTRACT: note_on channel=13 note=44 velocity=95 time=0
EXTRACT: note_on channel=13 note=36 velocity=0 time=0.005040322916666667
EXTRACT: note_on channel=1 note=24 velocity=0 time=0
EXTRACT: note_on channel=2 note=36 velocity=0 time=0
EXTRACT: note_on channel=5 note=56 velocity=102 time=0.005040322916666667
EXTRACT: note_on channel=6 note=60 velocity=107 time=0
EXTRACT: note_on channel=15 note=56 velocity=1 time=0
EXTRACT: note_on channel=15 note=60 velocity=1 time=0
EXTRACT: note_on channel=4 note=72 velocity=115 time=0.0025201614583333335
EXTRACT: note_on channel=7 note=65 velocity=89 time=0
EXTRACT: note_on channel=7 note=68 velocity=93 time=0
EXTRACT: note_on channel=7 note=72 velocity=98 time=0
EXTRACT: note_on channel=9 note=46 velocity=60 time=0
EXTRACT: note_on channel=9 note=72 velocity=37 time=0
EXTRACT: note_on channel=9 note=82 velocity=58 time=0
EXTRACT: note_on channel=15 note=72 velocity=1 time=0
EXTRACT: note_on channel=9 note=35 velocity=93 time=0.0025201614583333335
EXTRACT: note_on channel=12 note=23 velocity=93 time=0
EXTRACT: note_on channel=9 note=82 velocity=0 time=0.007560484375000001
EXTRACT: note_on channel=9 note=72 velocity=0 time=0
EXTRACT: note_on channel=9 note=46 velocity=0 time=0
EXTRACT: note_on channel=9 note=35 velocity=0 time=0.0025201614583333335
EXTRACT: note_on channel=12 note=23 velocity=0 time=0.022681453125
EXTRACT: note_on channel=9 note=76 velocity=80 time=0.08316532812500001
EXTRACT: note_on channel=9 note=61 velocity=98 time=0.0025201614583333335
EXTRACT: note_on channel=9 note=82 velocity=42 time=0
EXTRACT: note_on channel=9 note=76 velocity=0 time=0.007560484375000001
EXTRACT: note_on channel=9 note=82 velocity=0 time=0.0025201614583333335
EXTRACT: note_on channel=9 note=61 velocity=0 time=0
EXTRACT: note_on channel=7 note=68 velocity=0 time=0.0025201614583333335
EXTRACT: note_on channel=7 note=65 velocity=0 time=0.0025201614583333335
EXTRACT: note_on channel=7 note=72 velocity=0 time=0.015120968750000002
EXTRACT: note_on channel=15 note=56 velocity=0 time=0.07056452083333334
EXTRACT: note_on channel=5 note=56 velocity=0 time=0
EXTRACT: note_on channel=15 note=72 velocity=0 time=0.005040322916666667
EXTRACT: note_on channel=4 note=72 velocity=0 time=0
EXTRACT: note_on channel=6 note=60 velocity=0 time=0.0025201614583333335
EXTRACT: note_on channel=15 note=60 velocity=0 time=0
EXTRACT: note_on channel=1 note=32 velocity=0 time=0.0025201614583333335
EXTRACT: note_on channel=2 note=44 velocity=0 time=0
EXTRACT: note_on channel=13 note=44 velocity=0 time=0
EXTRACT: note_on channel=10 note=61 velocity=93 time=0
EXTRACT: note_on channel=1 note=29 velocity=107 time=0.0025201614583333335
EXTRACT: note_on channel=2 note=41 velocity=113 time=0
EXTRACT: note_on channel=13 note=41 velocity=95 time=0
EXTRACT: note_on channel=10 note=60 velocity=0 time=0.0025201614583333335
EXTRACT: note_on channel=9 note=40 velocity=120 time=0.0025201614583333335
EXTRACT: note_on channel=9 note=59 velocity=70 time=0.0025201614583333335
EXTRACT: note_on channel=9 note=62 velocity=113 time=0
EXTRACT: note_on channel=9 note=82 velocity=78 time=0
EXTRACT: note_on channel=9 note=40 velocity=0 time=0.007560484375000001
EXTRACT: note_on channel=9 note=82 velocity=0 time=0.0025201614583333335
EXTRACT: note_on channel=9 note=59 velocity=0 time=0
EXTRACT: note_on channel=9 note=62 velocity=0 time=0
EXTRACT: note_on channel=9 note=82 velocity=64 time=0.11088710416666667
EXTRACT: note_on channel=9 note=82 velocity=0 time=0.010080645833333334
EXTRACT: note_on channel=10 note=61 velocity=0 time=0.08820565104166667
EXTRACT: note_on channel=2 note=41 velocity=0 time=0.012600807291666667
EXTRACT: note_on channel=1 note=29 velocity=0 time=0
EXTRACT: note_on channel=13 note=41 velocity=0 time=0
EXTRACT: note_on channel=10 note=60 velocity=98 time=0
EXTRACT: note_on channel=1 note=24 velocity=107 time=0.0025201614583333335
EXTRACT: note_on channel=2 note=36 velocity=113 time=0
EXTRACT: note_on channel=13 note=36 velocity=95 time=0
EXTRACT: note_on channel=8 note=64 velocity=81 time=0.007560484375000001
EXTRACT: note_on channel=9 note=46 velocity=55 time=0
EXTRACT: note_on channel=9 note=63 velocity=107 time=0
EXTRACT: note_on channel=9 note=72 velocity=25 time=0
EXTRACT: note_on channel=9 note=82 velocity=51 time=0
EXTRACT: note_on channel=9 note=35 velocity=93 time=0.0025201614583333335
EXTRACT: note_on channel=12 note=23 velocity=93 time=0
EXTRACT: note_on channel=9 note=76 velocity=80 time=0.0025201614583333335
EXTRACT: note_on channel=9 note=86 velocity=113 time=0
EXTRACT: note_on channel=9 note=82 velocity=0 time=0.005040322916666667
EXTRACT: note_on channel=9 note=72 velocity=0 time=0
EXTRACT: note_on channel=9 note=63 velocity=0 time=0
EXTRACT: note_on channel=9 note=46 velocity=0 time=0
EXTRACT: note_on channel=9 note=35 velocity=0 time=0.0025201614583333335
EXTRACT: note_on channel=9 note=76 velocity=0 time=0.0025201614583333335
EXTRACT: note_on channel=9 note=86 velocity=0 time=0
EXTRACT: note_on channel=12 note=23 velocity=0 time=0.020161291666666668
EXTRACT: note_on channel=9 note=82 velocity=43 time=0.08568548958333334
EXTRACT: note_on channel=9 note=86 velocity=82 time=0
EXTRACT: note_on channel=9 note=86 velocity=0 time=0.010080645833333334
EXTRACT: note_on channel=9 note=82 velocity=0 time=0
EXTRACT: note_on channel=8 note=64 velocity=0 time=0.025201614583333334
EXTRACT: note_on channel=10 note=60 velocity=0 time=0.06300403645833334
EXTRACT: note_on channel=1 note=24 velocity=0 time=0.012600807291666667
EXTRACT: note_on channel=2 note=36 velocity=0 time=0
EXTRACT: note_on channel=13 note=36 velocity=0 time=0
EXTRACT: note_on channel=9 note=35 velocity=102 time=0.007560484375000001
EXTRACT: note_on channel=9 note=86 velocity=119 time=0
EXTRACT: note_on channel=12 note=23 velocity=102 time=0
EXTRACT: note_on channel=8 note=67 velocity=93 time=0.0025201614583333335
EXTRACT: note_on channel=8 note=74 velocity=113 time=0
EXTRACT: note_on channel=9 note=58 velocity=76 time=0
EXTRACT: note_on channel=9 note=59 velocity=70 time=0
EXTRACT: note_on channel=9 note=62 velocity=95 time=0
EXTRACT: note_on channel=9 note=82 velocity=79 time=0
EXTRACT: note_on channel=9 note=86 velocity=0 time=0.007560484375000001
EXTRACT: note_on channel=9 note=35 velocity=0 time=0
EXTRACT: note_on channel=9 note=62 velocity=0 time=0.0025201614583333335
EXTRACT: note_on channel=9 note=58 velocity=0 time=0
EXTRACT: note_on channel=9 note=82 velocity=0 time=0
EXTRACT: note_on channel=9 note=59 velocity=0 time=0
EXTRACT: note_on channel=12 note=23 velocity=0 time=0.020161291666666668
EXTRACT: note_on channel=8 note=74 velocity=0 time=0.10584678125000001
EXTRACT: note_on channel=8 note=67 velocity=0 time=0
EXTRACT: note_on channel=8 note=67 velocity=102 time=0.22681453125
EXTRACT: note_on channel=8 note=74 velocity=102 time=0
EXTRACT: note_on channel=8 note=74 velocity=0 time=0.13356855729166667
EXTRACT: note_on channel=8 note=67 velocity=0 time=0
EXTRACT: note_on channel=8 note=67 velocity=107 time=0.22933469270833334
EXTRACT: note_on channel=8 note=74 velocity=113 time=0
EXTRACT: note_on channel=8 note=74 velocity=0 time=0.13608871875
EXTRACT: note_on channel=8 note=67 velocity=0 time=0.010080645833333334
EXTRACT: note_on channel=8 note=67 velocity=93 time=0.3377016354166667
EXTRACT: note_on channel=8 note=74 velocity=102 time=0
EXTRACT: note_on channel=8 note=74 velocity=0 time=0.098286296875
EXTRACT: note_on channel=8 note=67 velocity=0 time=0.005040322916666667
EXTRACT: note_on channel=8 note=67 velocity=98 time=0.13860888020833334
EXTRACT: note_on channel=8 note=74 velocity=107 time=0
EXTRACT: note_on channel=8 note=74 velocity=0 time=0.11844758854166668
EXTRACT: note_on channel=8 note=67 velocity=0 time=0
EXTRACT: control_change channel=1 control=120 value=0 time=2.0589719114583334
EXTRACT: control_change channel=2 control=120 value=0 time=0.0025201614583333335
EXTRACT: control_change channel=3 control=120 value=0 time=0.0025201614583333335
EXTRACT: control_change channel=4 control=120 value=0 time=0.0025201614583333335
EXTRACT: control_change channel=15 control=120 value=0 time=0
EXTRACT: control_change channel=7 control=120 value=0 time=0.0025201614583333335
EXTRACT: control_change channel=5 control=120 value=0 time=0.0025201614583333335
EXTRACT: control_change channel=10 control=120 value=0 time=0.0025201614583333335
EXTRACT: control_change channel=13 control=120 value=0 time=0.0025201614583333335
EXTRACT: control_change channel=6 control=120 value=0 time=0.005040322916666667
EXTRACT: control_change channel=12 control=120 value=0 time=0.0025201614583333335
EXTRACT: control_change channel=8 control=120 value=0 time=0.0025201614583333335
EXTRACT: control_change channel=11 control=120 value=0 time=0.0025201614583333335
EXTRACT: control_change channel=9 control=120 value=0 time=0.11088710416666667
EXTRACT: control_change channel=1 control=123 value=0 time=0.012600807291666667
EXTRACT: control_change channel=2 control=123 value=0 time=0.0025201614583333335
EXTRACT: control_change channel=3 control=123 value=0 time=0.0025201614583333335
EXTRACT: control_change channel=4 control=123 value=0 time=0.0025201614583333335
EXTRACT: control_change channel=15 control=123 value=0 time=0
EXTRACT: control_change channel=7 control=123 value=0 time=0.0025201614583333335
EXTRACT: control_change channel=5 control=123 value=0 time=0.0025201614583333335
EXTRACT: control_change channel=10 control=123 value=0 time=0.0025201614583333335
EXTRACT: control_change channel=13 control=123 value=0 time=0.0025201614583333335
EXTRACT: control_change channel=6 control=123 value=0 time=0.005040322916666667
EXTRACT: control_change channel=12 control=123 value=0 time=0.0025201614583333335
EXTRACT: control_change channel=8 control=123 value=0 time=0.0025201614583333335
EXTRACT: control_change channel=11 control=123 value=0 time=0.0025201614583333335
INTERVALS028 - Spice Girls - Spice Up Your Life.mid
unison0
2m0
2M0
3m0
3M0
4m0
4M0
5m0
5M0
6m0
7m0
7M0