104 - Madonna_-_Like_A_Virgin(1).mid
EXTRACT: control_change channel=0 control=101 value=0 time=0
EXTRACT: control_change channel=0 control=100 value=0 time=0
EXTRACT: control_change channel=0 control=6 value=12 time=0
EXTRACT: control_change channel=0 control=38 value=0 time=0
EXTRACT: control_change channel=1 control=101 value=0 time=0
EXTRACT: control_change channel=1 control=100 value=0 time=0
EXTRACT: control_change channel=1 control=6 value=12 time=0
EXTRACT: control_change channel=1 control=38 value=0 time=0
EXTRACT: control_change channel=2 control=101 value=0 time=0
EXTRACT: control_change channel=2 control=100 value=0 time=0
EXTRACT: control_change channel=2 control=6 value=12 time=0
EXTRACT: control_change channel=2 control=38 value=0 time=0
EXTRACT: control_change channel=3 control=101 value=0 time=0
EXTRACT: control_change channel=3 control=100 value=0 time=0
EXTRACT: control_change channel=3 control=6 value=12 time=0
EXTRACT: control_change channel=3 control=38 value=0 time=0
EXTRACT: control_change channel=4 control=101 value=0 time=0
EXTRACT: control_change channel=4 control=100 value=0 time=0
EXTRACT: control_change channel=4 control=6 value=12 time=0
EXTRACT: control_change channel=4 control=38 value=0 time=0
EXTRACT: control_change channel=5 control=101 value=0 time=0
EXTRACT: control_change channel=5 control=100 value=0 time=0
EXTRACT: control_change channel=5 control=6 value=12 time=0
EXTRACT: control_change channel=5 control=38 value=0 time=0
EXTRACT: control_change channel=6 control=101 value=0 time=0
EXTRACT: control_change channel=6 control=100 value=0 time=0
EXTRACT: control_change channel=6 control=6 value=12 time=0
EXTRACT: control_change channel=6 control=38 value=0 time=0
EXTRACT: control_change channel=7 control=101 value=0 time=0
EXTRACT: control_change channel=7 control=100 value=0 time=0
EXTRACT: control_change channel=7 control=6 value=12 time=0
EXTRACT: control_change channel=7 control=38 value=0 time=0
EXTRACT: control_change channel=8 control=101 value=0 time=0
EXTRACT: control_change channel=8 control=100 value=0 time=0
EXTRACT: control_change channel=8 control=6 value=12 time=0
EXTRACT: control_change channel=8 control=38 value=0 time=0
EXTRACT: control_change channel=9 control=101 value=0 time=0
EXTRACT: control_change channel=9 control=100 value=0 time=0
EXTRACT: control_change channel=9 control=6 value=12 time=0
EXTRACT: control_change channel=9 control=38 value=0 time=0
EXTRACT: control_change channel=10 control=101 value=0 time=0
EXTRACT: control_change channel=10 control=100 value=0 time=0
EXTRACT: control_change channel=10 control=6 value=12 time=0
EXTRACT: control_change channel=10 control=38 value=0 time=0
EXTRACT: control_change channel=11 control=101 value=0 time=0
EXTRACT: control_change channel=11 control=100 value=0 time=0
EXTRACT: control_change channel=11 control=6 value=12 time=0
EXTRACT: control_change channel=11 control=38 value=0 time=0
EXTRACT: control_change channel=12 control=101 value=0 time=0
EXTRACT: control_change channel=12 control=100 value=0 time=0
EXTRACT: control_change channel=12 control=6 value=12 time=0
EXTRACT: control_change channel=12 control=38 value=0 time=0
EXTRACT: control_change channel=13 control=101 value=0 time=0
EXTRACT: control_change channel=13 control=100 value=0 time=0
EXTRACT: control_change channel=13 control=6 value=12 time=0
EXTRACT: control_change channel=13 control=38 value=0 time=0
EXTRACT: control_change channel=14 control=101 value=0 time=0
EXTRACT: control_change channel=14 control=100 value=0 time=0
EXTRACT: control_change channel=14 control=6 value=12 time=0
EXTRACT: control_change channel=14 control=38 value=0 time=0
EXTRACT: control_change channel=15 control=101 value=0 time=0
EXTRACT: control_change channel=15 control=100 value=0 time=0
EXTRACT: control_change channel=15 control=6 value=12 time=0
EXTRACT: control_change channel=15 control=38 value=0 time=0
EXTRACT: pitchwheel channel=0 pitch=0 time=0
EXTRACT: control_change channel=0 control=7 value=127 time=0
EXTRACT: control_change channel=0 control=10 value=63 time=0
EXTRACT: control_change channel=0 control=93 value=87 time=0
EXTRACT: control_change channel=0 control=91 value=0 time=0
EXTRACT: control_change channel=0 control=95 value=0 time=0
EXTRACT: control_change channel=0 control=92 value=0 time=0
EXTRACT: control_change channel=0 control=11 value=127 time=0
EXTRACT: program_change channel=0 program=54 time=0
EXTRACT: control_change channel=1 control=7 value=127 time=0
EXTRACT: control_change channel=1 control=10 value=63 time=0
EXTRACT: control_change channel=1 control=93 value=87 time=0
EXTRACT: control_change channel=1 control=91 value=0 time=0
EXTRACT: control_change channel=1 control=95 value=0 time=0
EXTRACT: control_change channel=1 control=92 value=0 time=0
EXTRACT: control_change channel=1 control=11 value=127 time=0
EXTRACT: program_change channel=1 program=54 time=0
EXTRACT: pitchwheel channel=2 pitch=0 time=0
EXTRACT: control_change channel=2 control=7 value=63 time=0
EXTRACT: control_change channel=2 control=10 value=63 time=0
EXTRACT: control_change channel=2 control=93 value=47 time=0
EXTRACT: control_change channel=2 control=91 value=79 time=0
EXTRACT: control_change channel=2 control=95 value=0 time=0
EXTRACT: control_change channel=2 control=92 value=0 time=0
EXTRACT: control_change channel=2 control=11 value=127 time=0
EXTRACT: program_change channel=2 program=27 time=0
EXTRACT: control_change channel=3 control=7 value=63 time=0
EXTRACT: control_change channel=3 control=10 value=63 time=0
EXTRACT: control_change channel=3 control=93 value=47 time=0
EXTRACT: control_change channel=3 control=91 value=79 time=0
EXTRACT: control_change channel=3 control=95 value=0 time=0
EXTRACT: control_change channel=3 control=92 value=0 time=0
EXTRACT: control_change channel=3 control=11 value=127 time=0
EXTRACT: program_change channel=3 program=27 time=0
EXTRACT: pitchwheel channel=11 pitch=0 time=0
EXTRACT: control_change channel=11 control=7 value=103 time=0
EXTRACT: control_change channel=11 control=10 value=63 time=0
EXTRACT: control_change channel=11 control=93 value=47 time=0
EXTRACT: control_change channel=11 control=91 value=87 time=0
EXTRACT: control_change channel=11 control=95 value=0 time=0
EXTRACT: control_change channel=11 control=92 value=0 time=0
EXTRACT: control_change channel=11 control=11 value=127 time=0
EXTRACT: program_change channel=11 program=28 time=0
EXTRACT: control_change channel=12 control=7 value=103 time=0
EXTRACT: control_change channel=12 control=10 value=63 time=0
EXTRACT: control_change channel=12 control=93 value=47 time=0
EXTRACT: control_change channel=12 control=91 value=87 time=0
EXTRACT: control_change channel=12 control=95 value=0 time=0
EXTRACT: control_change channel=12 control=92 value=0 time=0
EXTRACT: control_change channel=12 control=11 value=127 time=0
EXTRACT: program_change channel=12 program=28 time=0
EXTRACT: pitchwheel channel=4 pitch=0 time=0
EXTRACT: control_change channel=4 control=7 value=87 time=0
EXTRACT: control_change channel=4 control=10 value=63 time=0
EXTRACT: control_change channel=4 control=93 value=39 time=0
EXTRACT: control_change channel=4 control=91 value=79 time=0
EXTRACT: control_change channel=4 control=95 value=0 time=0
EXTRACT: control_change channel=4 control=92 value=71 time=0
EXTRACT: control_change channel=4 control=11 value=127 time=0
EXTRACT: program_change channel=4 program=48 time=0
EXTRACT: control_change channel=5 control=7 value=87 time=0
EXTRACT: control_change channel=5 control=10 value=63 time=0
EXTRACT: control_change channel=5 control=93 value=39 time=0
EXTRACT: control_change channel=5 control=91 value=79 time=0
EXTRACT: control_change channel=5 control=95 value=0 time=0
EXTRACT: control_change channel=5 control=92 value=71 time=0
EXTRACT: control_change channel=5 control=11 value=127 time=0
EXTRACT: program_change channel=5 program=48 time=0
EXTRACT: pitchwheel channel=8 pitch=0 time=0
EXTRACT: control_change channel=8 control=7 value=119 time=0
EXTRACT: control_change channel=8 control=10 value=63 time=0
EXTRACT: control_change channel=8 control=93 value=127 time=0
EXTRACT: control_change channel=8 control=91 value=127 time=0
EXTRACT: control_change channel=8 control=95 value=0 time=0
EXTRACT: control_change channel=8 control=92 value=0 time=0
EXTRACT: control_change channel=8 control=11 value=127 time=0
EXTRACT: program_change channel=8 program=5 time=0
EXTRACT: control_change channel=10 control=7 value=119 time=0
EXTRACT: control_change channel=10 control=10 value=63 time=0
EXTRACT: control_change channel=10 control=93 value=127 time=0
EXTRACT: control_change channel=10 control=91 value=127 time=0
EXTRACT: control_change channel=10 control=95 value=0 time=0
EXTRACT: control_change channel=10 control=92 value=0 time=0
EXTRACT: control_change channel=10 control=11 value=127 time=0
EXTRACT: program_change channel=10 program=5 time=0
EXTRACT: pitchwheel channel=13 pitch=0 time=0
EXTRACT: control_change channel=13 control=7 value=103 time=0
EXTRACT: control_change channel=13 control=10 value=63 time=0
EXTRACT: control_change channel=13 control=93 value=0 time=0
EXTRACT: control_change channel=13 control=91 value=0 time=0
EXTRACT: control_change channel=13 control=95 value=0 time=0
EXTRACT: control_change channel=13 control=92 value=0 time=0
EXTRACT: control_change channel=13 control=11 value=127 time=0
EXTRACT: program_change channel=13 program=88 time=0
EXTRACT: control_change channel=14 control=7 value=103 time=0
EXTRACT: control_change channel=14 control=10 value=63 time=0
EXTRACT: control_change channel=14 control=93 value=0 time=0
EXTRACT: control_change channel=14 control=91 value=0 time=0
EXTRACT: control_change channel=14 control=95 value=0 time=0
EXTRACT: control_change channel=14 control=92 value=0 time=0
EXTRACT: control_change channel=14 control=11 value=127 time=0
EXTRACT: program_change channel=14 program=88 time=0
EXTRACT: pitchwheel channel=6 pitch=0 time=0
EXTRACT: control_change channel=6 control=7 value=127 time=0
EXTRACT: control_change channel=6 control=10 value=63 time=0
EXTRACT: control_change channel=6 control=93 value=47 time=0
EXTRACT: control_change channel=6 control=91 value=71 time=0
EXTRACT: control_change channel=6 control=95 value=0 time=0
EXTRACT: control_change channel=6 control=92 value=0 time=0
EXTRACT: control_change channel=6 control=11 value=127 time=0
EXTRACT: program_change channel=6 program=35 time=0
EXTRACT: control_change channel=7 control=7 value=127 time=0
EXTRACT: control_change channel=7 control=10 value=63 time=0
EXTRACT: control_change channel=7 control=93 value=47 time=0
EXTRACT: control_change channel=7 control=91 value=71 time=0
EXTRACT: control_change channel=7 control=95 value=0 time=0
EXTRACT: control_change channel=7 control=92 value=0 time=0
EXTRACT: control_change channel=7 control=11 value=127 time=0
EXTRACT: program_change channel=7 program=35 time=0
EXTRACT: note_on channel=6 note=42 velocity=111 time=0
EXTRACT: pitchwheel channel=9 pitch=0 time=0
EXTRACT: control_change channel=9 control=7 value=119 time=0
EXTRACT: control_change channel=9 control=10 value=63 time=0
EXTRACT: control_change channel=9 control=93 value=0 time=0
EXTRACT: control_change channel=9 control=91 value=47 time=0
EXTRACT: control_change channel=9 control=95 value=0 time=0
EXTRACT: control_change channel=9 control=92 value=0 time=0
EXTRACT: control_change channel=9 control=11 value=127 time=0
EXTRACT: program_change channel=9 program=0 time=0
EXTRACT: note_on channel=9 note=35 velocity=95 time=0
EXTRACT: note_off channel=6 note=42 velocity=111 time=0.25
EXTRACT: note_on channel=6 note=39 velocity=111 time=0
EXTRACT: note_off channel=6 note=39 velocity=111 time=0.25
EXTRACT: note_on channel=6 note=37 velocity=111 time=0
EXTRACT: note_off channel=9 note=35 velocity=95 time=0
EXTRACT: note_on channel=9 note=46 velocity=95 time=0
EXTRACT: note_off channel=6 note=37 velocity=111 time=0.25
EXTRACT: note_on channel=6 note=42 velocity=111 time=0
EXTRACT: note_off channel=6 note=42 velocity=111 time=0.25
EXTRACT: note_on channel=6 note=42 velocity=111 time=0
EXTRACT: note_off channel=9 note=46 velocity=95 time=0
EXTRACT: note_on channel=9 note=35 velocity=95 time=0
EXTRACT: note_off channel=6 note=42 velocity=111 time=0.25
EXTRACT: note_on channel=6 note=39 velocity=111 time=0
EXTRACT: note_off channel=6 note=39 velocity=111 time=0.25
EXTRACT: note_on channel=6 note=37 velocity=111 time=0
EXTRACT: note_off channel=9 note=35 velocity=95 time=0
EXTRACT: note_on channel=9 note=46 velocity=95 time=0
EXTRACT: note_off channel=6 note=37 velocity=111 time=0.25
EXTRACT: note_on channel=6 note=39 velocity=111 time=0
EXTRACT: note_off channel=6 note=39 velocity=111 time=0.25
EXTRACT: note_on channel=6 note=42 velocity=111 time=0
EXTRACT: note_off channel=9 note=46 velocity=95 time=0
EXTRACT: note_on channel=9 note=35 velocity=95 time=0
EXTRACT: note_off channel=6 note=42 velocity=111 time=0.25
EXTRACT: note_on channel=6 note=39 velocity=111 time=0
EXTRACT: note_off channel=6 note=39 velocity=111 time=0.25
EXTRACT: note_on channel=6 note=37 velocity=111 time=0
EXTRACT: note_off channel=9 note=35 velocity=95 time=0
EXTRACT: note_on channel=9 note=46 velocity=95 time=0
EXTRACT: note_off channel=6 note=37 velocity=111 time=0.25
EXTRACT: note_on channel=6 note=42 velocity=111 time=0
EXTRACT: note_off channel=6 note=42 velocity=111 time=0.25
EXTRACT: note_on channel=6 note=42 velocity=111 time=0
EXTRACT: note_off channel=9 note=46 velocity=95 time=0
EXTRACT: note_on channel=9 note=35 velocity=95 time=0
EXTRACT: note_off channel=6 note=42 velocity=111 time=0.25
EXTRACT: note_on channel=6 note=39 velocity=111 time=0
EXTRACT: note_off channel=6 note=39 velocity=111 time=0.25
EXTRACT: note_on channel=6 note=37 velocity=111 time=0
EXTRACT: note_off channel=9 note=35 velocity=95 time=0
EXTRACT: note_on channel=9 note=46 velocity=95 time=0
EXTRACT: note_off channel=6 note=37 velocity=111 time=0.25
EXTRACT: note_on channel=6 note=39 velocity=111 time=0
EXTRACT: note_off channel=6 note=39 velocity=111 time=0.25
EXTRACT: note_on channel=6 note=42 velocity=111 time=0
EXTRACT: note_off channel=9 note=46 velocity=95 time=0
EXTRACT: note_on channel=9 note=35 velocity=95 time=0
EXTRACT: note_on channel=2 note=66 velocity=95 time=0.25
EXTRACT: note_on channel=2 note=61 velocity=95 time=0
EXTRACT: note_on channel=2 note=58 velocity=95 time=0
EXTRACT: note_on channel=4 note=66 velocity=95 time=0
EXTRACT: note_on channel=4 note=61 velocity=95 time=0
EXTRACT: note_on channel=4 note=58 velocity=95 time=0
EXTRACT: note_off channel=6 note=42 velocity=111 time=0
EXTRACT: note_on channel=6 note=39 velocity=111 time=0
EXTRACT: note_off channel=2 note=66 velocity=95 time=0.25
EXTRACT: note_off channel=2 note=61 velocity=95 time=0
EXTRACT: note_off channel=2 note=58 velocity=95 time=0
EXTRACT: note_off channel=4 note=66 velocity=95 time=0
EXTRACT: note_off channel=4 note=61 velocity=95 time=0
EXTRACT: note_off channel=4 note=58 velocity=95 time=0
EXTRACT: note_off channel=6 note=39 velocity=111 time=0
EXTRACT: note_on channel=6 note=37 velocity=111 time=0
EXTRACT: note_off channel=9 note=35 velocity=95 time=0
EXTRACT: note_on channel=9 note=46 velocity=95 time=0
EXTRACT: note_off channel=6 note=37 velocity=111 time=0.25
EXTRACT: note_on channel=6 note=42 velocity=111 time=0
EXTRACT: note_on channel=2 note=66 velocity=95 time=0.25
EXTRACT: note_on channel=2 note=61 velocity=95 time=0
EXTRACT: note_on channel=2 note=58 velocity=95 time=0
EXTRACT: note_on channel=4 note=66 velocity=95 time=0
EXTRACT: note_on channel=4 note=61 velocity=95 time=0
EXTRACT: note_on channel=4 note=58 velocity=95 time=0
EXTRACT: note_off channel=6 note=42 velocity=111 time=0
EXTRACT: note_on channel=6 note=42 velocity=111 time=0
EXTRACT: note_off channel=9 note=46 velocity=95 time=0
EXTRACT: note_on channel=9 note=35 velocity=95 time=0
EXTRACT: note_off channel=2 note=66 velocity=95 time=0.25
EXTRACT: note_off channel=2 note=61 velocity=95 time=0
EXTRACT: note_off channel=2 note=58 velocity=95 time=0
EXTRACT: note_off channel=4 note=66 velocity=95 time=0
EXTRACT: note_off channel=4 note=61 velocity=95 time=0
EXTRACT: note_off channel=4 note=58 velocity=95 time=0
EXTRACT: note_off channel=6 note=42 velocity=111 time=0
EXTRACT: note_on channel=6 note=39 velocity=111 time=0
EXTRACT: note_off channel=6 note=39 velocity=111 time=0.25
EXTRACT: note_on channel=6 note=37 velocity=111 time=0
EXTRACT: note_off channel=9 note=35 velocity=95 time=0
EXTRACT: note_on channel=9 note=42 velocity=95 time=0
EXTRACT: note_off channel=6 note=37 velocity=111 time=0.25
EXTRACT: note_on channel=6 note=39 velocity=111 time=0
EXTRACT: note_off channel=9 note=42 velocity=95 time=0
EXTRACT: note_on channel=9 note=46 velocity=95 time=0
EXTRACT: note_on channel=2 note=66 velocity=95 time=0.25
EXTRACT: note_on channel=2 note=61 velocity=95 time=0
EXTRACT: note_on channel=2 note=58 velocity=95 time=0
EXTRACT: note_on channel=4 note=66 velocity=95 time=0
EXTRACT: note_on channel=4 note=61 velocity=95 time=0
EXTRACT: note_on channel=4 note=58 velocity=95 time=0
EXTRACT: note_off channel=6 note=39 velocity=111 time=0
EXTRACT: note_on channel=6 note=42 velocity=111 time=0
EXTRACT: note_off channel=9 note=46 velocity=95 time=0
EXTRACT: note_on channel=9 note=35 velocity=95 time=0
EXTRACT: note_off channel=2 note=66 velocity=95 time=0.25
EXTRACT: note_off channel=2 note=61 velocity=95 time=0
EXTRACT: note_off channel=2 note=58 velocity=95 time=0
EXTRACT: note_off channel=4 note=66 velocity=95 time=0
EXTRACT: note_off channel=4 note=61 velocity=95 time=0
EXTRACT: note_off channel=4 note=58 velocity=95 time=0
EXTRACT: note_off channel=6 note=42 velocity=111 time=0
EXTRACT: note_on channel=6 note=39 velocity=111 time=0
EXTRACT: note_off channel=9 note=35 velocity=95 time=0
EXTRACT: note_on channel=9 note=42 velocity=95 time=0
EXTRACT: note_off channel=6 note=39 velocity=111 time=0.25
EXTRACT: note_on channel=6 note=37 velocity=111 time=0
EXTRACT: note_off channel=9 note=42 velocity=95 time=0
EXTRACT: note_on channel=9 note=46 velocity=95 time=0
EXTRACT: note_on channel=2 note=66 velocity=95 time=0.25
EXTRACT: note_on channel=2 note=61 velocity=95 time=0
EXTRACT: note_on channel=2 note=58 velocity=95 time=0
EXTRACT: note_on channel=4 note=66 velocity=95 time=0
EXTRACT: note_on channel=4 note=61 velocity=95 time=0
EXTRACT: note_on channel=4 note=58 velocity=95 time=0
EXTRACT: note_off channel=6 note=37 velocity=111 time=0
EXTRACT: note_on channel=6 note=42 velocity=111 time=0
EXTRACT: note_off channel=9 note=46 velocity=95 time=0
EXTRACT: note_on channel=9 note=42 velocity=95 time=0
EXTRACT: note_off channel=2 note=66 velocity=95 time=0.25
EXTRACT: note_off channel=2 note=61 velocity=95 time=0
EXTRACT: note_off channel=2 note=58 velocity=95 time=0
EXTRACT: note_off channel=4 note=66 velocity=95 time=0
EXTRACT: note_off channel=4 note=61 velocity=95 time=0
EXTRACT: note_off channel=4 note=58 velocity=95 time=0
EXTRACT: note_off channel=6 note=42 velocity=111 time=0
EXTRACT: note_on channel=6 note=42 velocity=111 time=0
EXTRACT: note_off channel=9 note=42 velocity=95 time=0
EXTRACT: note_on channel=9 note=38 velocity=95 time=0
EXTRACT: note_on channel=9 note=35 velocity=95 time=0
EXTRACT: note_off channel=9 note=38 velocity=95 time=0.125
EXTRACT: note_off channel=9 note=35 velocity=95 time=0
EXTRACT: note_on channel=9 note=38 velocity=95 time=0
EXTRACT: note_on channel=0 note=61 velocity=127 time=0.125
EXTRACT: note_off channel=6 note=42 velocity=111 time=0
EXTRACT: note_on channel=6 note=39 velocity=111 time=0
EXTRACT: note_off channel=9 note=38 velocity=95 time=0
EXTRACT: note_on channel=9 note=38 velocity=95 time=0
EXTRACT: note_off channel=0 note=61 velocity=127 time=0.25
EXTRACT: note_on channel=0 note=61 velocity=127 time=0
EXTRACT: note_off channel=6 note=39 velocity=111 time=0
EXTRACT: note_on channel=6 note=37 velocity=111 time=0
EXTRACT: note_off channel=9 note=38 velocity=95 time=0
EXTRACT: note_on channel=9 note=38 velocity=95 time=0
EXTRACT: note_off channel=0 note=61 velocity=127 time=0.25
EXTRACT: note_on channel=0 note=61 velocity=127 time=0
EXTRACT: note_off channel=6 note=37 velocity=111 time=0
EXTRACT: note_on channel=6 note=39 velocity=111 time=0
EXTRACT: note_off channel=0 note=61 velocity=127 time=0.25
EXTRACT: note_on channel=0 note=70 velocity=127 time=0
EXTRACT: note_on channel=2 note=66 velocity=95 time=0
EXTRACT: note_on channel=2 note=61 velocity=95 time=0
EXTRACT: note_on channel=2 note=58 velocity=95 time=0
EXTRACT: note_on channel=4 note=66 velocity=95 time=0
EXTRACT: note_on channel=4 note=61 velocity=95 time=0
EXTRACT: note_on channel=4 note=58 velocity=95 time=0
EXTRACT: note_off channel=6 note=39 velocity=111 time=0
EXTRACT: note_on channel=6 note=42 velocity=111 time=0
EXTRACT: note_off channel=9 note=38 velocity=95 time=0
EXTRACT: note_on channel=9 note=42 velocity=95 time=0
EXTRACT: note_on channel=9 note=35 velocity=95 time=0
EXTRACT: note_off channel=2 note=66 velocity=95 time=0.25
EXTRACT: note_off channel=2 note=61 velocity=95 time=0
EXTRACT: note_off channel=2 note=58 velocity=95 time=0
EXTRACT: note_off channel=4 note=66 velocity=95 time=0
EXTRACT: note_off channel=4 note=61 velocity=95 time=0
EXTRACT: note_off channel=4 note=58 velocity=95 time=0
EXTRACT: note_off channel=6 note=42 velocity=111 time=0
EXTRACT: note_on channel=6 note=39 velocity=111 time=0
EXTRACT: note_off channel=9 note=42 velocity=95 time=0
EXTRACT: note_off channel=9 note=35 velocity=95 time=0
EXTRACT: note_on channel=9 note=42 velocity=95 time=0
EXTRACT: note_off channel=0 note=70 velocity=127 time=0.25
EXTRACT: note_on channel=0 note=70 velocity=127 time=0
EXTRACT: note_off channel=6 note=39 velocity=111 time=0
EXTRACT: note_on channel=6 note=37 velocity=111 time=0
EXTRACT: note_off channel=9 note=42 velocity=95 time=0
EXTRACT: note_on channel=9 note=42 velocity=95 time=0
EXTRACT: note_on channel=9 note=38 velocity=95 time=0
EXTRACT: note_off channel=0 note=70 velocity=127 time=0.25
EXTRACT: note_on channel=0 note=68 velocity=127 time=0
EXTRACT: note_on channel=2 note=66 velocity=95 time=0
EXTRACT: note_on channel=2 note=61 velocity=95 time=0
EXTRACT: note_on channel=2 note=58 velocity=95 time=0
EXTRACT: note_on channel=4 note=66 velocity=95 time=0
EXTRACT: note_on channel=4 note=61 velocity=95 time=0
EXTRACT: note_on channel=4 note=58 velocity=95 time=0
EXTRACT: note_off channel=6 note=37 velocity=111 time=0
EXTRACT: note_on channel=6 note=42 velocity=111 time=0
EXTRACT: note_off channel=9 note=42 velocity=95 time=0
EXTRACT: note_off channel=9 note=38 velocity=95 time=0
EXTRACT: note_on channel=9 note=42 velocity=95 time=0
EXTRACT: note_off channel=0 note=68 velocity=127 time=0.25
EXTRACT: note_on channel=0 note=66 velocity=102 time=0
EXTRACT: note_off channel=2 note=66 velocity=95 time=0
EXTRACT: note_off channel=2 note=61 velocity=95 time=0
EXTRACT: note_off channel=2 note=58 velocity=95 time=0
EXTRACT: note_off channel=4 note=66 velocity=95 time=0
EXTRACT: note_off channel=4 note=61 velocity=95 time=0
EXTRACT: note_off channel=4 note=58 velocity=95 time=0
EXTRACT: note_off channel=6 note=42 velocity=111 time=0
EXTRACT: note_on channel=6 note=42 velocity=111 time=0
EXTRACT: note_off channel=9 note=42 velocity=95 time=0
EXTRACT: note_on channel=9 note=42 velocity=95 time=0
EXTRACT: note_on channel=9 note=35 velocity=95 time=0
EXTRACT: note_off channel=0 note=66 velocity=102 time=0.25
EXTRACT: note_on channel=0 note=66 velocity=127 time=0
EXTRACT: note_off channel=6 note=42 velocity=111 time=0
EXTRACT: note_on channel=6 note=39 velocity=111 time=0
EXTRACT: note_off channel=9 note=42 velocity=95 time=0
EXTRACT: note_off channel=9 note=35 velocity=95 time=0
EXTRACT: note_on channel=9 note=42 velocity=95 time=0
EXTRACT: note_off channel=0 note=66 velocity=127 time=0.25
EXTRACT: note_on channel=0 note=66 velocity=127 time=0
EXTRACT: note_off channel=6 note=39 velocity=111 time=0
EXTRACT: note_on channel=6 note=37 velocity=111 time=0
EXTRACT: note_off channel=9 note=42 velocity=95 time=0
EXTRACT: note_on channel=9 note=42 velocity=95 time=0
EXTRACT: note_on channel=9 note=38 velocity=95 time=0
EXTRACT: note_off channel=6 note=37 velocity=111 time=0.25
EXTRACT: note_on channel=6 note=39 velocity=111 time=0
EXTRACT: note_off channel=9 note=42 velocity=95 time=0
EXTRACT: note_off channel=9 note=38 velocity=95 time=0
EXTRACT: note_on channel=9 note=42 velocity=95 time=0
EXTRACT: note_on channel=2 note=66 velocity=95 time=0.25
EXTRACT: note_on channel=2 note=61 velocity=95 time=0
EXTRACT: note_on channel=2 note=58 velocity=95 time=0
EXTRACT: note_on channel=4 note=66 velocity=95 time=0
EXTRACT: note_on channel=4 note=61 velocity=95 time=0
EXTRACT: note_on channel=4 note=58 velocity=95 time=0
EXTRACT: note_off channel=6 note=39 velocity=111 time=0
EXTRACT: note_on channel=6 note=42 velocity=111 time=0
EXTRACT: note_off channel=9 note=42 velocity=95 time=0
EXTRACT: note_on channel=9 note=42 velocity=95 time=0
EXTRACT: note_on channel=9 note=35 velocity=95 time=0
EXTRACT: note_off channel=2 note=66 velocity=95 time=0.25
EXTRACT: note_off channel=2 note=61 velocity=95 time=0
EXTRACT: note_off channel=2 note=58 velocity=95 time=0
EXTRACT: note_off channel=4 note=66 velocity=95 time=0
EXTRACT: note_off channel=4 note=61 velocity=95 time=0
EXTRACT: note_off channel=4 note=58 velocity=95 time=0
EXTRACT: note_off channel=6 note=42 velocity=111 time=0
EXTRACT: note_on channel=6 note=39 velocity=111 time=0
EXTRACT: note_off channel=9 note=42 velocity=95 time=0
EXTRACT: note_off channel=9 note=35 velocity=95 time=0
EXTRACT: note_on channel=9 note=42 velocity=95 time=0
EXTRACT: note_off channel=0 note=66 velocity=127 time=0.25
EXTRACT: note_off channel=6 note=39 velocity=111 time=0
EXTRACT: note_on channel=6 note=37 velocity=111 time=0
EXTRACT: note_off channel=9 note=42 velocity=95 time=0
EXTRACT: note_on channel=9 note=42 velocity=95 time=0
EXTRACT: note_on channel=9 note=38 velocity=95 time=0
EXTRACT: note_on channel=2 note=66 velocity=95 time=0.25
EXTRACT: note_on channel=2 note=61 velocity=95 time=0
EXTRACT: note_on channel=2 note=58 velocity=95 time=0
EXTRACT: note_on channel=4 note=66 velocity=95 time=0
EXTRACT: note_on channel=4 note=61 velocity=95 time=0
EXTRACT: note_on channel=4 note=58 velocity=95 time=0
EXTRACT: note_off channel=6 note=37 velocity=111 time=0
EXTRACT: note_on channel=6 note=42 velocity=111 time=0
EXTRACT: note_off channel=9 note=42 velocity=95 time=0
EXTRACT: note_off channel=9 note=38 velocity=95 time=0
EXTRACT: note_on channel=9 note=42 velocity=95 time=0
EXTRACT: note_off channel=2 note=66 velocity=95 time=0.25
EXTRACT: note_off channel=2 note=61 velocity=95 time=0
EXTRACT: note_off channel=2 note=58 velocity=95 time=0
EXTRACT: note_off channel=4 note=66 velocity=95 time=0
EXTRACT: note_off channel=4 note=61 velocity=95 time=0
EXTRACT: note_off channel=4 note=58 velocity=95 time=0
EXTRACT: note_off channel=6 note=42 velocity=111 time=0
EXTRACT: note_on channel=6 note=42 velocity=111 time=0
EXTRACT: note_off channel=9 note=42 velocity=95 time=0
EXTRACT: note_on channel=9 note=42 velocity=95 time=0
EXTRACT: note_on channel=9 note=35 velocity=95 time=0
EXTRACT: note_on channel=0 note=61 velocity=127 time=0.25
EXTRACT: note_off channel=6 note=42 velocity=111 time=0
EXTRACT: note_on channel=6 note=39 velocity=111 time=0
EXTRACT: note_off channel=9 note=42 velocity=95 time=0
EXTRACT: note_off channel=9 note=35 velocity=95 time=0
EXTRACT: note_on channel=9 note=42 velocity=95 time=0
EXTRACT: note_off channel=0 note=61 velocity=127 time=0.25
EXTRACT: note_on channel=0 note=61 velocity=127 time=0
EXTRACT: note_off channel=6 note=39 velocity=111 time=0
EXTRACT: note_on channel=6 note=37 velocity=111 time=0
EXTRACT: note_off channel=9 note=42 velocity=95 time=0
EXTRACT: note_on channel=9 note=42 velocity=95 time=0
EXTRACT: note_on channel=9 note=38 velocity=95 time=0
EXTRACT: note_off channel=0 note=61 velocity=127 time=0.25
EXTRACT: note_on channel=0 note=61 velocity=127 time=0
EXTRACT: note_off channel=6 note=37 velocity=111 time=0
EXTRACT: note_on channel=6 note=39 velocity=111 time=0
EXTRACT: note_off channel=9 note=42 velocity=95 time=0
EXTRACT: note_off channel=9 note=38 velocity=95 time=0
EXTRACT: note_on channel=9 note=42 velocity=95 time=0
EXTRACT: note_off channel=0 note=61 velocity=127 time=0.25
EXTRACT: note_on channel=0 note=70 velocity=127 time=0
EXTRACT: note_on channel=2 note=66 velocity=95 time=0
EXTRACT: note_on channel=2 note=61 velocity=95 time=0
EXTRACT: note_on channel=2 note=58 velocity=95 time=0
EXTRACT: note_on channel=4 note=66 velocity=95 time=0
EXTRACT: note_on channel=4 note=61 velocity=95 time=0
EXTRACT: note_on channel=4 note=58 velocity=95 time=0
EXTRACT: note_off channel=6 note=39 velocity=111 time=0
EXTRACT: note_on channel=6 note=42 velocity=111 time=0
EXTRACT: note_off channel=9 note=42 velocity=95 time=0
EXTRACT: note_on channel=9 note=42 velocity=95 time=0
EXTRACT: note_on channel=9 note=35 velocity=95 time=0
EXTRACT: note_off channel=2 note=66 velocity=95 time=0.25
EXTRACT: note_off channel=2 note=61 velocity=95 time=0
EXTRACT: note_off channel=2 note=58 velocity=95 time=0
EXTRACT: note_off channel=4 note=66 velocity=95 time=0
EXTRACT: note_off channel=4 note=61 velocity=95 time=0
EXTRACT: note_off channel=4 note=58 velocity=95 time=0
EXTRACT: note_off channel=6 note=42 velocity=111 time=0
EXTRACT: note_on channel=6 note=39 velocity=111 time=0
EXTRACT: note_off channel=9 note=42 velocity=95 time=0
EXTRACT: note_off channel=9 note=35 velocity=95 time=0
EXTRACT: note_on channel=9 note=42 velocity=95 time=0
EXTRACT: note_off channel=0 note=70 velocity=127 time=0.25
EXTRACT: note_on channel=0 note=70 velocity=127 time=0
EXTRACT: note_off channel=6 note=39 velocity=111 time=0
EXTRACT: note_on channel=6 note=37 velocity=111 time=0
EXTRACT: note_off channel=9 note=42 velocity=95 time=0
EXTRACT: note_on channel=9 note=42 velocity=95 time=0
EXTRACT: note_on channel=9 note=38 velocity=95 time=0
EXTRACT: note_off channel=0 note=70 velocity=127 time=0.25
EXTRACT: note_on channel=0 note=68 velocity=127 time=0
EXTRACT: note_on channel=2 note=66 velocity=95 time=0
EXTRACT: note_on channel=2 note=61 velocity=95 time=0
EXTRACT: note_on channel=2 note=58 velocity=95 time=0
EXTRACT: note_on channel=4 note=66 velocity=95 time=0
EXTRACT: note_on channel=4 note=61 velocity=95 time=0
EXTRACT: note_on channel=4 note=58 velocity=95 time=0
EXTRACT: note_off channel=6 note=37 velocity=111 time=0
EXTRACT: note_on channel=6 note=42 velocity=111 time=0
EXTRACT: note_off channel=9 note=42 velocity=95 time=0
EXTRACT: note_off channel=9 note=38 velocity=95 time=0
EXTRACT: note_on channel=9 note=42 velocity=95 time=0
EXTRACT: note_off channel=2 note=66 velocity=95 time=0.25
EXTRACT: note_off channel=2 note=61 velocity=95 time=0
EXTRACT: note_off channel=2 note=58 velocity=95 time=0
EXTRACT: note_off channel=4 note=66 velocity=95 time=0
EXTRACT: note_off channel=4 note=61 velocity=95 time=0
EXTRACT: note_off channel=4 note=58 velocity=95 time=0
EXTRACT: note_off channel=6 note=42 velocity=111 time=0
EXTRACT: note_on channel=6 note=42 velocity=111 time=0
EXTRACT: note_off channel=9 note=42 velocity=95 time=0
EXTRACT: note_on channel=9 note=42 velocity=95 time=0
EXTRACT: note_on channel=9 note=35 velocity=95 time=0
EXTRACT: note_off channel=0 note=68 velocity=127 time=0.25
EXTRACT: note_on channel=0 note=70 velocity=127 time=0
EXTRACT: note_off channel=6 note=42 velocity=111 time=0
EXTRACT: note_on channel=6 note=39 velocity=111 time=0
EXTRACT: note_off channel=9 note=42 velocity=95 time=0
EXTRACT: note_off channel=9 note=35 velocity=95 time=0
EXTRACT: note_on channel=9 note=42 velocity=95 time=0
EXTRACT: note_off channel=0 note=70 velocity=127 time=0.25
EXTRACT: note_on channel=0 note=66 velocity=102 time=0
EXTRACT: note_off channel=6 note=39 velocity=111 time=0
EXTRACT: note_on channel=6 note=37 velocity=111 time=0
EXTRACT: note_off channel=9 note=42 velocity=95 time=0
EXTRACT: note_on channel=9 note=42 velocity=95 time=0
EXTRACT: note_on channel=9 note=38 velocity=95 time=0
EXTRACT: note_off channel=6 note=37 velocity=111 time=0.25
EXTRACT: note_on channel=6 note=39 velocity=111 time=0
EXTRACT: note_off channel=9 note=42 velocity=95 time=0
EXTRACT: note_off channel=9 note=38 velocity=95 time=0
EXTRACT: note_on channel=9 note=42 velocity=95 time=0
EXTRACT: note_on channel=2 note=66 velocity=95 time=0.25
EXTRACT: note_on channel=2 note=61 velocity=95 time=0
EXTRACT: note_on channel=2 note=58 velocity=95 time=0
EXTRACT: note_on channel=4 note=66 velocity=95 time=0
EXTRACT: note_on channel=4 note=61 velocity=95 time=0
EXTRACT: note_on channel=4 note=58 velocity=95 time=0
EXTRACT: note_off channel=6 note=39 velocity=111 time=0
EXTRACT: note_on channel=6 note=42 velocity=111 time=0
EXTRACT: note_off channel=9 note=42 velocity=95 time=0
EXTRACT: note_on channel=9 note=42 velocity=95 time=0
EXTRACT: note_on channel=9 note=35 velocity=95 time=0
EXTRACT: note_off channel=2 note=66 velocity=95 time=0.25
EXTRACT: note_off channel=2 note=61 velocity=95 time=0
EXTRACT: note_off channel=2 note=58 velocity=95 time=0
EXTRACT: note_off channel=4 note=66 velocity=95 time=0
EXTRACT: note_off channel=4 note=61 velocity=95 time=0
EXTRACT: note_off channel=4 note=58 velocity=95 time=0
EXTRACT: note_off channel=6 note=42 velocity=111 time=0
EXTRACT: note_on channel=6 note=39 velocity=111 time=0
EXTRACT: note_off channel=9 note=42 velocity=95 time=0
EXTRACT: note_off channel=9 note=35 velocity=95 time=0
EXTRACT: note_on channel=9 note=42 velocity=95 time=0
EXTRACT: note_off channel=0 note=66 velocity=102 time=0.25
EXTRACT: note_off channel=6 note=39 velocity=111 time=0
EXTRACT: note_on channel=6 note=37 velocity=111 time=0
EXTRACT: note_off channel=9 note=42 velocity=95 time=0
EXTRACT: note_on channel=9 note=42 velocity=95 time=0
EXTRACT: note_on channel=9 note=38 velocity=95 time=0
EXTRACT: note_on channel=2 note=66 velocity=95 time=0.25
EXTRACT: note_on channel=2 note=61 velocity=95 time=0
EXTRACT: note_on channel=2 note=58 velocity=95 time=0
EXTRACT: note_on channel=4 note=66 velocity=95 time=0
EXTRACT: note_on channel=4 note=61 velocity=95 time=0
EXTRACT: note_on channel=4 note=58 velocity=95 time=0
EXTRACT: note_off channel=6 note=37 velocity=111 time=0
EXTRACT: note_on channel=6 note=42 velocity=111 time=0
EXTRACT: note_off channel=9 note=42 velocity=95 time=0
EXTRACT: note_off channel=9 note=38 velocity=95 time=0
EXTRACT: note_on channel=9 note=42 velocity=95 time=0
EXTRACT: note_off channel=2 note=66 velocity=95 time=0.25
EXTRACT: note_off channel=2 note=61 velocity=95 time=0
EXTRACT: note_off channel=2 note=58 velocity=95 time=0
EXTRACT: note_off channel=4 note=66 velocity=95 time=0
EXTRACT: note_off channel=4 note=61 velocity=95 time=0
EXTRACT: note_off channel=4 note=58 velocity=95 time=0
EXTRACT: note_off channel=6 note=42 velocity=111 time=0
EXTRACT: note_on channel=6 note=42 velocity=111 time=0
EXTRACT: note_off channel=9 note=42 velocity=95 time=0
EXTRACT: note_on channel=9 note=42 velocity=95 time=0
EXTRACT: note_on channel=9 note=35 velocity=95 time=0
EXTRACT: note_off channel=6 note=42 velocity=111 time=0.25
EXTRACT: note_on channel=6 note=39 velocity=111 time=0
EXTRACT: note_off channel=9 note=42 velocity=95 time=0
EXTRACT: note_off channel=9 note=35 velocity=95 time=0
EXTRACT: note_on channel=9 note=42 velocity=95 time=0
EXTRACT: note_off channel=6 note=39 velocity=111 time=0.25
EXTRACT: note_on channel=6 note=37 velocity=111 time=0
EXTRACT: note_off channel=9 note=42 velocity=95 time=0
EXTRACT: note_on channel=9 note=42 velocity=95 time=0
EXTRACT: note_on channel=9 note=38 velocity=95 time=0
EXTRACT: note_off channel=6 note=37 velocity=111 time=0.25
EXTRACT: note_on channel=6 note=39 velocity=111 time=0
EXTRACT: note_off channel=9 note=42 velocity=95 time=0
EXTRACT: note_off channel=9 note=38 velocity=95 time=0
EXTRACT: note_on channel=9 note=42 velocity=95 time=0
EXTRACT: note_on channel=2 note=68 velocity=95 time=0.25
EXTRACT: note_on channel=2 note=63 velocity=95 time=0
EXTRACT: note_on channel=2 note=59 velocity=95 time=0
EXTRACT: note_on channel=4 note=68 velocity=95 time=0
EXTRACT: note_on channel=4 note=66 velocity=95 time=0
EXTRACT: note_on channel=4 note=63 velocity=95 time=0
EXTRACT: note_on channel=4 note=59 velocity=95 time=0
EXTRACT: note_off channel=6 note=39 velocity=111 time=0
EXTRACT: note_on channel=6 note=44 velocity=111 time=0
EXTRACT: note_off channel=9 note=42 velocity=95 time=0
EXTRACT: note_on channel=9 note=49 velocity=95 time=0
EXTRACT: note_on channel=9 note=35 velocity=95 time=0
EXTRACT: note_off channel=2 note=68 velocity=95 time=0.25
EXTRACT: note_off channel=2 note=63 velocity=95 time=0
EXTRACT: note_off channel=2 note=59 velocity=95 time=0
EXTRACT: note_off channel=4 note=68 velocity=95 time=0
EXTRACT: note_off channel=4 note=66 velocity=95 time=0
EXTRACT: note_off channel=4 note=63 velocity=95 time=0
EXTRACT: note_off channel=4 note=59 velocity=95 time=0
EXTRACT: note_off channel=6 note=44 velocity=111 time=0
EXTRACT: note_on channel=6 note=44 velocity=111 time=0
EXTRACT: note_on channel=0 note=68 velocity=127 time=0.25
EXTRACT: note_on channel=2 note=68 velocity=95 time=0
EXTRACT: note_on channel=2 note=63 velocity=95 time=0
EXTRACT: note_on channel=2 note=59 velocity=95 time=0
EXTRACT: note_off channel=6 note=44 velocity=111 time=0
EXTRACT: note_on channel=6 note=44 velocity=111 time=0
EXTRACT: note_off channel=9 note=49 velocity=95 time=0
EXTRACT: note_off channel=9 note=35 velocity=95 time=0
EXTRACT: note_on channel=9 note=42 velocity=95 time=0
EXTRACT: note_on channel=9 note=38 velocity=95 time=0
EXTRACT: note_off channel=0 note=68 velocity=127 time=0.25
EXTRACT: note_on channel=0 note=68 velocity=127 time=0
EXTRACT: note_off channel=2 note=68 velocity=95 time=0
EXTRACT: note_off channel=2 note=63 velocity=95 time=0
EXTRACT: note_off channel=2 note=59 velocity=95 time=0
EXTRACT: note_on channel=4 note=68 velocity=95 time=0
EXTRACT: note_on channel=4 note=66 velocity=95 time=0
EXTRACT: note_on channel=4 note=63 velocity=95 time=0
EXTRACT: note_on channel=4 note=59 velocity=95 time=0
EXTRACT: note_off channel=6 note=44 velocity=111 time=0
EXTRACT: note_on channel=6 note=44 velocity=111 time=0
EXTRACT: note_off channel=9 note=42 velocity=95 time=0
EXTRACT: note_off channel=9 note=38 velocity=95 time=0
EXTRACT: note_on channel=9 note=42 velocity=95 time=0
EXTRACT: note_off channel=0 note=68 velocity=127 time=0.25
EXTRACT: note_on channel=0 note=68 velocity=127 time=0
EXTRACT: note_on channel=2 note=68 velocity=95 time=0
EXTRACT: note_on channel=2 note=63 velocity=95 time=0
EXTRACT: note_on channel=2 note=59 velocity=95 time=0
EXTRACT: note_off channel=4 note=68 velocity=95 time=0
EXTRACT: note_off channel=4 note=66 velocity=95 time=0
EXTRACT: note_off channel=4 note=63 velocity=95 time=0
EXTRACT: note_off channel=4 note=59 velocity=95 time=0
EXTRACT: note_off channel=6 note=44 velocity=111 time=0
EXTRACT: note_on channel=6 note=44 velocity=111 time=0
EXTRACT: note_off channel=9 note=42 velocity=95 time=0
EXTRACT: note_on channel=9 note=42 velocity=95 time=0
EXTRACT: note_on channel=9 note=35 velocity=95 time=0
EXTRACT: note_off channel=0 note=68 velocity=127 time=0.25
EXTRACT: note_on channel=0 note=68 velocity=127 time=0
EXTRACT: note_off channel=2 note=68 velocity=95 time=0
EXTRACT: note_off channel=2 note=63 velocity=95 time=0
EXTRACT: note_off channel=2 note=59 velocity=95 time=0
EXTRACT: note_on channel=2 note=68 velocity=95 time=0
EXTRACT: note_on channel=2 note=63 velocity=95 time=0
EXTRACT: note_on channel=2 note=59 velocity=95 time=0
EXTRACT: note_off channel=6 note=44 velocity=111 time=0
EXTRACT: note_on channel=6 note=44 velocity=111 time=0
EXTRACT: note_off channel=9 note=42 velocity=95 time=0
EXTRACT: note_off channel=9 note=35 velocity=95 time=0
EXTRACT: note_on channel=9 note=42 velocity=95 time=0
EXTRACT: note_off channel=2 note=68 velocity=95 time=0.25
EXTRACT: note_off channel=2 note=63 velocity=95 time=0
EXTRACT: note_off channel=2 note=59 velocity=95 time=0
EXTRACT: note_off channel=6 note=44 velocity=111 time=0
EXTRACT: note_on channel=6 note=42 velocity=111 time=0
EXTRACT: note_off channel=9 note=42 velocity=95 time=0
EXTRACT: note_on channel=9 note=42 velocity=95 time=0
EXTRACT: note_on channel=9 note=38 velocity=95 time=0
EXTRACT: note_off channel=0 note=68 velocity=127 time=0.25
EXTRACT: note_on channel=0 note=68 velocity=127 time=0
EXTRACT: note_on channel=2 note=68 velocity=95 time=0
EXTRACT: note_on channel=2 note=63 velocity=95 time=0
EXTRACT: note_on channel=2 note=59 velocity=95 time=0
EXTRACT: note_off channel=6 note=42 velocity=111 time=0
EXTRACT: note_on channel=6 note=44 velocity=111 time=0
EXTRACT: note_off channel=9 note=42 velocity=95 time=0
EXTRACT: note_off channel=9 note=38 velocity=95 time=0
EXTRACT: note_on channel=9 note=42 velocity=95 time=0
EXTRACT: note_off channel=2 note=68 velocity=95 time=0.25
EXTRACT: note_off channel=2 note=63 velocity=95 time=0
EXTRACT: note_off channel=2 note=59 velocity=95 time=0
EXTRACT: note_off channel=6 note=44 velocity=111 time=0
EXTRACT: note_on channel=6 note=32 velocity=111 time=0
EXTRACT: note_off channel=9 note=42 velocity=95 time=0
EXTRACT: note_on channel=9 note=42 velocity=95 time=0
EXTRACT: note_on channel=9 note=35 velocity=95 time=0
EXTRACT: note_off channel=0 note=68 velocity=127 time=0.25
EXTRACT: note_on channel=0 note=66 velocity=127 time=0
EXTRACT: note_on channel=2 note=68 velocity=95 time=0
EXTRACT: note_on channel=2 note=63 velocity=95 time=0
EXTRACT: note_on channel=2 note=59 velocity=95 time=0
EXTRACT: note_off channel=6 note=32 velocity=111 time=0
EXTRACT: note_on channel=6 note=32 velocity=111 time=0
EXTRACT: note_off channel=9 note=42 velocity=95 time=0
EXTRACT: note_off channel=9 note=35 velocity=95 time=0
EXTRACT: note_on channel=9 note=42 velocity=95 time=0
EXTRACT: note_off channel=0 note=66 velocity=127 time=0.25
EXTRACT: note_on channel=0 note=63 velocity=102 time=0
EXTRACT: note_off channel=2 note=68 velocity=95 time=0
EXTRACT: note_off channel=2 note=63 velocity=95 time=0
EXTRACT: note_off channel=2 note=59 velocity=95 time=0
EXTRACT: note_off channel=6 note=32 velocity=111 time=0
EXTRACT: note_on channel=6 note=32 velocity=111 time=0
EXTRACT: note_off channel=9 note=42 velocity=95 time=0
EXTRACT: note_on channel=9 note=42 velocity=95 time=0
EXTRACT: note_on channel=9 note=38 velocity=95 time=0
EXTRACT: note_off channel=0 note=63 velocity=102 time=0.25
EXTRACT: note_on channel=0 note=63 velocity=127 time=0
EXTRACT: note_on channel=2 note=68 velocity=95 time=0
EXTRACT: note_on channel=2 note=63 velocity=95 time=0
EXTRACT: note_on channel=2 note=59 velocity=95 time=0
EXTRACT: note_off channel=6 note=32 velocity=111 time=0
EXTRACT: note_on channel=6 note=32 velocity=111 time=0
EXTRACT: note_off channel=9 note=42 velocity=95 time=0
EXTRACT: note_off channel=9 note=38 velocity=95 time=0
EXTRACT: note_on channel=9 note=42 velocity=95 time=0
EXTRACT: note_off channel=0 note=63 velocity=127 time=0.25
EXTRACT: note_off channel=2 note=68 velocity=95 time=0
EXTRACT: note_off channel=2 note=63 velocity=95 time=0
EXTRACT: note_off channel=2 note=59 velocity=95 time=0
EXTRACT: note_off channel=6 note=32 velocity=111 time=0
EXTRACT: note_on channel=6 note=32 velocity=111 time=0
EXTRACT: note_off channel=9 note=42 velocity=95 time=0
EXTRACT: note_on channel=9 note=38 velocity=95 time=0
EXTRACT: note_off channel=9 note=38 velocity=95 time=0.125
EXTRACT: note_on channel=9 note=38 velocity=95 time=0
EXTRACT: note_on channel=0 note=61 velocity=127 time=0.125
EXTRACT: note_on channel=2 note=68 velocity=95 time=0
EXTRACT: note_on channel=2 note=63 velocity=95 time=0
EXTRACT: note_on channel=2 note=59 velocity=95 time=0
EXTRACT: note_off channel=6 note=32 velocity=111 time=0
EXTRACT: note_on channel=6 note=32 velocity=111 time=0
EXTRACT: note_off channel=9 note=38 velocity=95 time=0
EXTRACT: note_on channel=9 note=38 velocity=95 time=0
EXTRACT: note_off channel=0 note=61 velocity=127 time=0.25
EXTRACT: note_on channel=0 note=63 velocity=127 time=0
EXTRACT: note_off channel=2 note=68 velocity=95 time=0
EXTRACT: note_off channel=2 note=63 velocity=95 time=0
EXTRACT: note_off channel=2 note=59 velocity=95 time=0
EXTRACT: note_on channel=2 note=68 velocity=95 time=0
EXTRACT: note_on channel=2 note=63 velocity=95 time=0
EXTRACT: note_on channel=2 note=59 velocity=95 time=0
EXTRACT: note_off channel=6 note=32 velocity=111 time=0
EXTRACT: note_on channel=6 note=32 velocity=111 time=0
EXTRACT: note_off channel=9 note=38 velocity=95 time=0
EXTRACT: note_on channel=9 note=38 velocity=95 time=0
EXTRACT: note_off channel=0 note=63 velocity=127 time=0.25
EXTRACT: note_on channel=0 note=66 velocity=127 time=0
EXTRACT: note_off channel=2 note=68 velocity=95 time=0
EXTRACT: note_off channel=2 note=63 velocity=95 time=0
EXTRACT: note_off channel=2 note=59 velocity=95 time=0
EXTRACT: note_off channel=6 note=32 velocity=111 time=0
EXTRACT: note_on channel=6 note=37 velocity=111 time=0
EXTRACT: note_off channel=9 note=38 velocity=95 time=0
EXTRACT: note_on channel=9 note=42 velocity=95 time=0
EXTRACT: note_on channel=2 note=66 velocity=95 time=0.25
EXTRACT: note_on channel=2 note=61 velocity=95 time=0
EXTRACT: note_on channel=2 note=58 velocity=95 time=0
EXTRACT: note_on channel=4 note=66 velocity=95 time=0
EXTRACT: note_on channel=4 note=61 velocity=95 time=0
EXTRACT: note_on channel=4 note=58 velocity=95 time=0
EXTRACT: note_off channel=6 note=37 velocity=111 time=0
EXTRACT: note_on channel=6 note=42 velocity=111 time=0
EXTRACT: note_off channel=9 note=42 velocity=95 time=0
EXTRACT: note_on channel=9 note=42 velocity=95 time=0
EXTRACT: note_on channel=9 note=35 velocity=95 time=0
EXTRACT: note_off channel=0 note=66 velocity=127 time=0.25
EXTRACT: note_on channel=0 note=63 velocity=127 time=0
EXTRACT: note_off channel=2 note=66 velocity=95 time=0
EXTRACT: note_off channel=2 note=61 velocity=95 time=0
EXTRACT: note_off channel=2 note=58 velocity=95 time=0
EXTRACT: note_off channel=4 note=66 velocity=95 time=0
EXTRACT: note_off channel=4 note=61 velocity=95 time=0
EXTRACT: note_off channel=4 note=58 velocity=95 time=0
EXTRACT: note_off channel=6 note=42 velocity=111 time=0
EXTRACT: note_on channel=6 note=39 velocity=111 time=0
EXTRACT: note_off channel=9 note=42 velocity=95 time=0
EXTRACT: note_off channel=9 note=35 velocity=95 time=0
EXTRACT: note_on channel=9 note=42 velocity=95 time=0
EXTRACT: note_off channel=0 note=63 velocity=127 time=0.25
EXTRACT: note_on channel=0 note=61 velocity=102 time=0
EXTRACT: note_off channel=6 note=39 velocity=111 time=0
EXTRACT: note_on channel=6 note=37 velocity=111 time=0
EXTRACT: note_off channel=9 note=42 velocity=95 time=0
EXTRACT: note_on channel=9 note=42 velocity=95 time=0
EXTRACT: note_on channel=9 note=38 velocity=95 time=0
EXTRACT: note_off channel=0 note=61 velocity=102 time=0.25
EXTRACT: note_on channel=0 note=61 velocity=127 time=0
EXTRACT: note_on channel=2 note=66 velocity=95 time=0
EXTRACT: note_on channel=2 note=61 velocity=95 time=0
EXTRACT: note_on channel=2 note=58 velocity=95 time=0
EXTRACT: note_on channel=4 note=66 velocity=95 time=0
EXTRACT: note_on channel=4 note=61 velocity=95 time=0
EXTRACT: note_on channel=4 note=58 velocity=95 time=0
EXTRACT: note_off channel=6 note=37 velocity=111 time=0
EXTRACT: note_on channel=6 note=42 velocity=111 time=0
EXTRACT: note_off channel=9 note=42 velocity=95 time=0
EXTRACT: note_off channel=9 note=38 velocity=95 time=0
EXTRACT: note_on channel=9 note=42 velocity=95 time=0
EXTRACT: note_off channel=2 note=66 velocity=95 time=0.25
EXTRACT: note_off channel=2 note=61 velocity=95 time=0
EXTRACT: note_off channel=2 note=58 velocity=95 time=0
EXTRACT: note_off channel=4 note=66 velocity=95 time=0
EXTRACT: note_off channel=4 note=61 velocity=95 time=0
EXTRACT: note_off channel=4 note=58 velocity=95 time=0
EXTRACT: note_off channel=6 note=42 velocity=111 time=0
EXTRACT: note_on channel=6 note=42 velocity=111 time=0
EXTRACT: note_off channel=9 note=42 velocity=95 time=0
EXTRACT: note_on channel=9 note=42 velocity=95 time=0
EXTRACT: note_on channel=9 note=35 velocity=95 time=0
EXTRACT: note_off channel=6 note=42 velocity=111 time=0.25
EXTRACT: note_on channel=6 note=39 velocity=111 time=0
EXTRACT: note_off channel=9 note=42 velocity=95 time=0
EXTRACT: note_off channel=9 note=35 velocity=95 time=0
EXTRACT: note_on channel=9 note=42 velocity=95 time=0
EXTRACT: note_off channel=0 note=61 velocity=127 time=0.25
EXTRACT: note_off channel=6 note=39 velocity=111 time=0
EXTRACT: note_on channel=6 note=37 velocity=111 time=0
EXTRACT: note_off channel=9 note=42 velocity=95 time=0
EXTRACT: note_on channel=9 note=42 velocity=95 time=0
EXTRACT: note_on channel=9 note=38 velocity=95 time=0
EXTRACT: note_off channel=6 note=37 velocity=111 time=0.25
EXTRACT: note_on channel=6 note=39 velocity=111 time=0
EXTRACT: note_off channel=9 note=42 velocity=95 time=0
EXTRACT: note_off channel=9 note=38 velocity=95 time=0
EXTRACT: note_on channel=9 note=42 velocity=95 time=0
EXTRACT: note_on channel=2 note=66 velocity=95 time=0.25
EXTRACT: note_on channel=2 note=61 velocity=95 time=0
EXTRACT: note_on channel=2 note=58 velocity=95 time=0
EXTRACT: note_off channel=6 note=39 velocity=111 time=0
EXTRACT: note_on channel=6 note=42 velocity=111 time=0
EXTRACT: note_off channel=9 note=42 velocity=95 time=0
EXTRACT: note_on channel=9 note=42 velocity=95 time=0
EXTRACT: note_on channel=9 note=35 velocity=95 time=0
EXTRACT: note_off channel=2 note=66 velocity=95 time=0.25
EXTRACT: note_off channel=2 note=61 velocity=95 time=0
EXTRACT: note_off channel=2 note=58 velocity=95 time=0
EXTRACT: note_off channel=6 note=42 velocity=111 time=0
EXTRACT: note_on channel=6 note=39 velocity=111 time=0
EXTRACT: note_off channel=9 note=42 velocity=95 time=0
EXTRACT: note_off channel=9 note=35 velocity=95 time=0
EXTRACT: note_on channel=9 note=42 velocity=95 time=0
EXTRACT: note_off channel=6 note=39 velocity=111 time=0.25
EXTRACT: note_on channel=6 note=37 velocity=111 time=0
EXTRACT: note_off channel=9 note=42 velocity=95 time=0
EXTRACT: note_on channel=9 note=42 velocity=95 time=0
EXTRACT: note_on channel=9 note=38 velocity=95 time=0
EXTRACT: note_on channel=2 note=66 velocity=95 time=0.25
EXTRACT: note_on channel=2 note=61 velocity=95 time=0
EXTRACT: note_on channel=2 note=58 velocity=95 time=0
EXTRACT: note_off channel=6 note=37 velocity=111 time=0
EXTRACT: note_on channel=6 note=42 velocity=111 time=0
EXTRACT: note_off channel=9 note=42 velocity=95 time=0
EXTRACT: note_off channel=9 note=38 velocity=95 time=0
EXTRACT: note_on channel=9 note=42 velocity=95 time=0
EXTRACT: note_off channel=2 note=66 velocity=95 time=0.25
EXTRACT: note_off channel=2 note=61 velocity=95 time=0
EXTRACT: note_off channel=2 note=58 velocity=95 time=0
EXTRACT: note_off channel=6 note=42 velocity=111 time=0
EXTRACT: note_on channel=6 note=42 velocity=111 time=0
EXTRACT: note_off channel=9 note=42 velocity=95 time=0
EXTRACT: note_on channel=9 note=42 velocity=95 time=0
EXTRACT: note_on channel=9 note=35 velocity=95 time=0
EXTRACT: note_on channel=0 note=61 velocity=127 time=0.25
EXTRACT: note_off channel=6 note=42 velocity=111 time=0
EXTRACT: note_on channel=6 note=39 velocity=111 time=0
EXTRACT: note_off channel=9 note=42 velocity=95 time=0
EXTRACT: note_off channel=9 note=35 velocity=95 time=0
EXTRACT: note_on channel=9 note=42 velocity=95 time=0
EXTRACT: note_off channel=0 note=61 velocity=127 time=0.25
EXTRACT: note_on channel=0 note=61 velocity=127 time=0
EXTRACT: note_off channel=6 note=39 velocity=111 time=0
EXTRACT: note_on channel=6 note=37 velocity=111 time=0
EXTRACT: note_off channel=9 note=42 velocity=95 time=0
EXTRACT: note_on channel=9 note=42 velocity=95 time=0
EXTRACT: note_on channel=9 note=38 velocity=95 time=0
EXTRACT: note_off channel=0 note=61 velocity=127 time=0.25
EXTRACT: note_on channel=0 note=70 velocity=127 time=0
EXTRACT: note_off channel=6 note=37 velocity=111 time=0
EXTRACT: note_on channel=6 note=39 velocity=111 time=0
EXTRACT: note_off channel=9 note=42 velocity=95 time=0
EXTRACT: note_off channel=9 note=38 velocity=95 time=0
EXTRACT: note_on channel=9 note=42 velocity=95 time=0
EXTRACT: note_on channel=2 note=66 velocity=95 time=0.25
EXTRACT: note_on channel=2 note=61 velocity=95 time=0
EXTRACT: note_on channel=2 note=58 velocity=95 time=0
EXTRACT: note_on channel=4 note=66 velocity=95 time=0
EXTRACT: note_on channel=4 note=61 velocity=95 time=0
EXTRACT: note_on channel=4 note=58 velocity=95 time=0
EXTRACT: note_off channel=6 note=39 velocity=111 time=0
EXTRACT: note_on channel=6 note=42 velocity=111 time=0
EXTRACT: note_off channel=9 note=42 velocity=95 time=0
EXTRACT: note_on channel=9 note=42 velocity=95 time=0
EXTRACT: note_on channel=9 note=35 velocity=95 time=0
EXTRACT: note_off channel=2 note=66 velocity=95 time=0.25
EXTRACT: note_off channel=2 note=61 velocity=95 time=0
EXTRACT: note_off channel=2 note=58 velocity=95 time=0
EXTRACT: note_off channel=4 note=66 velocity=95 time=0
EXTRACT: note_off channel=4 note=61 velocity=95 time=0
EXTRACT: note_off channel=4 note=58 velocity=95 time=0
EXTRACT: note_off channel=6 note=42 velocity=111 time=0
EXTRACT: note_on channel=6 note=39 velocity=111 time=0
EXTRACT: note_off channel=9 note=42 velocity=95 time=0
EXTRACT: note_off channel=9 note=35 velocity=95 time=0
EXTRACT: note_on channel=9 note=42 velocity=95 time=0
EXTRACT: note_off channel=0 note=70 velocity=127 time=0.25
EXTRACT: note_off channel=6 note=39 velocity=111 time=0
EXTRACT: note_on channel=6 note=37 velocity=111 time=0
EXTRACT: note_off channel=9 note=42 velocity=95 time=0
EXTRACT: note_on channel=9 note=42 velocity=95 time=0
EXTRACT: note_on channel=9 note=38 velocity=95 time=0
EXTRACT: note_on channel=2 note=66 velocity=95 time=0.25
EXTRACT: note_on channel=2 note=61 velocity=95 time=0
EXTRACT: note_on channel=2 note=58 velocity=95 time=0
EXTRACT: note_on channel=4 note=66 velocity=95 time=0
EXTRACT: note_on channel=4 note=61 velocity=95 time=0
EXTRACT: note_on channel=4 note=58 velocity=95 time=0
EXTRACT: note_off channel=6 note=37 velocity=111 time=0
EXTRACT: note_on channel=6 note=42 velocity=111 time=0
EXTRACT: note_off channel=9 note=42 velocity=95 time=0
EXTRACT: note_off channel=9 note=38 velocity=95 time=0
EXTRACT: note_on channel=9 note=42 velocity=95 time=0
EXTRACT: note_off channel=2 note=66 velocity=95 time=0.25
EXTRACT: note_off channel=2 note=61 velocity=95 time=0
EXTRACT: note_off channel=2 note=58 velocity=95 time=0
EXTRACT: note_off channel=4 note=66 velocity=95 time=0
EXTRACT: note_off channel=4 note=61 velocity=95 time=0
EXTRACT: note_off channel=4 note=58 velocity=95 time=0
EXTRACT: note_off channel=6 note=42 velocity=111 time=0
EXTRACT: note_on channel=6 note=42 velocity=111 time=0
EXTRACT: note_off channel=9 note=42 velocity=95 time=0
EXTRACT: note_on channel=9 note=42 velocity=95 time=0
EXTRACT: note_on channel=9 note=35 velocity=95 time=0
EXTRACT: note_on channel=0 note=68 velocity=127 time=0.25
EXTRACT: note_off channel=6 note=42 velocity=111 time=0
EXTRACT: note_on channel=6 note=39 velocity=111 time=0
EXTRACT: note_off channel=9 note=42 velocity=95 time=0
EXTRACT: note_off channel=9 note=35 velocity=95 time=0
EXTRACT: note_on channel=9 note=42 velocity=95 time=0
EXTRACT: note_off channel=0 note=68 velocity=127 time=0.25
EXTRACT: note_on channel=0 note=66 velocity=127 time=0
EXTRACT: note_off channel=6 note=39 velocity=111 time=0
EXTRACT: note_on channel=6 note=37 velocity=111 time=0
EXTRACT: note_off channel=9 note=42 velocity=95 time=0
EXTRACT: note_on channel=9 note=42 velocity=95 time=0
EXTRACT: note_on channel=9 note=38 velocity=95 time=0
EXTRACT: note_off channel=0 note=66 velocity=127 time=0.25
EXTRACT: note_on channel=0 note=66 velocity=127 time=0
EXTRACT: note_off channel=6 note=37 velocity=111 time=0
EXTRACT: note_on channel=6 note=39 velocity=111 time=0
EXTRACT: note_off channel=9 note=42 velocity=95 time=0
EXTRACT: note_off channel=9 note=38 velocity=95 time=0
EXTRACT: note_on channel=9 note=42 velocity=95 time=0
EXTRACT: note_on channel=2 note=66 velocity=95 time=0.25
EXTRACT: note_on channel=2 note=61 velocity=95 time=0
EXTRACT: note_on channel=2 note=58 velocity=95 time=0
EXTRACT: note_on channel=4 note=66 velocity=95 time=0
EXTRACT: note_on channel=4 note=61 velocity=95 time=0
EXTRACT: note_on channel=4 note=58 velocity=95 time=0
EXTRACT: note_off channel=6 note=39 velocity=111 time=0
EXTRACT: note_on channel=6 note=42 velocity=111 time=0
EXTRACT: note_off channel=9 note=42 velocity=95 time=0
EXTRACT: note_on channel=9 note=42 velocity=95 time=0
EXTRACT: note_on channel=9 note=35 velocity=95 time=0
EXTRACT: note_off channel=2 note=66 velocity=95 time=0.25
EXTRACT: note_off channel=2 note=61 velocity=95 time=0
EXTRACT: note_off channel=2 note=58 velocity=95 time=0
EXTRACT: note_off channel=4 note=66 velocity=95 time=0
EXTRACT: note_off channel=4 note=61 velocity=95 time=0
EXTRACT: note_off channel=4 note=58 velocity=95 time=0
EXTRACT: note_off channel=6 note=42 velocity=111 time=0
EXTRACT: note_on channel=6 note=39 velocity=111 time=0
EXTRACT: note_off channel=9 note=42 velocity=95 time=0
EXTRACT: note_off channel=9 note=35 velocity=95 time=0
EXTRACT: note_on channel=9 note=42 velocity=95 time=0
EXTRACT: note_off channel=0 note=66 velocity=127 time=0.25
EXTRACT: note_off channel=6 note=39 velocity=111 time=0
EXTRACT: note_on channel=6 note=37 velocity=111 time=0
EXTRACT: note_off channel=9 note=42 velocity=95 time=0
EXTRACT: note_on channel=9 note=42 velocity=95 time=0
EXTRACT: note_on channel=9 note=38 velocity=95 time=0
EXTRACT: note_on channel=2 note=66 velocity=95 time=0.25
EXTRACT: note_on channel=2 note=61 velocity=95 time=0
EXTRACT: note_on channel=2 note=58 velocity=95 time=0
EXTRACT: note_on channel=4 note=66 velocity=95 time=0
EXTRACT: note_on channel=4 note=61 velocity=95 time=0
EXTRACT: note_on channel=4 note=58 velocity=95 time=0
EXTRACT: note_on channel=8 note=61 velocity=95 time=0
EXTRACT: note_off channel=6 note=37 velocity=111 time=0
EXTRACT: note_on channel=6 note=42 velocity=111 time=0
EXTRACT: note_off channel=9 note=42 velocity=95 time=0
EXTRACT: note_off channel=9 note=38 velocity=95 time=0
EXTRACT: note_on channel=9 note=42 velocity=95 time=0
EXTRACT: note_off channel=8 note=61 velocity=95 time=0.125
EXTRACT: note_on channel=8 note=63 velocity=95 time=0
EXTRACT: note_off channel=2 note=66 velocity=95 time=0.125
EXTRACT: note_off channel=2 note=61 velocity=95 time=0
EXTRACT: note_off channel=2 note=58 velocity=95 time=0
EXTRACT: note_off channel=4 note=66 velocity=95 time=0
EXTRACT: note_off channel=4 note=61 velocity=95 time=0
EXTRACT: note_off channel=4 note=58 velocity=95 time=0
EXTRACT: note_off channel=8 note=63 velocity=95 time=0
EXTRACT: note_on channel=8 note=66 velocity=95 time=0
EXTRACT: note_off channel=6 note=42 velocity=111 time=0
EXTRACT: note_on channel=6 note=42 velocity=111 time=0
EXTRACT: note_off channel=9 note=42 velocity=95 time=0
EXTRACT: note_on channel=9 note=42 velocity=95 time=0
EXTRACT: note_on channel=9 note=35 velocity=95 time=0
EXTRACT: note_off channel=8 note=66 velocity=95 time=0.125
EXTRACT: note_on channel=8 note=66 velocity=95 time=0
EXTRACT: note_on channel=0 note=61 velocity=127 time=0.125
EXTRACT: note_off channel=8 note=66 velocity=95 time=0
EXTRACT: note_on channel=8 note=63 velocity=95 time=0
EXTRACT: note_off channel=6 note=42 velocity=111 time=0
EXTRACT: note_on channel=6 note=39 velocity=111 time=0
EXTRACT: note_off channel=9 note=42 velocity=95 time=0
EXTRACT: note_off channel=9 note=35 velocity=95 time=0
EXTRACT: note_on channel=9 note=42 velocity=95 time=0
EXTRACT: note_off channel=0 note=61 velocity=127 time=0.25
EXTRACT: note_on channel=0 note=61 velocity=127 time=0
EXTRACT: note_off channel=8 note=63 velocity=95 time=0
EXTRACT: note_off channel=6 note=39 velocity=111 time=0
EXTRACT: note_on channel=6 note=37 velocity=111 time=0
EXTRACT: note_off channel=9 note=42 velocity=95 time=0
EXTRACT: note_on channel=9 note=42 velocity=95 time=0
EXTRACT: note_on channel=9 note=38 velocity=95 time=0
EXTRACT: note_off channel=0 note=61 velocity=127 time=0.25
EXTRACT: note_on channel=0 note=70 velocity=127 time=0
EXTRACT: note_off channel=6 note=37 velocity=111 time=0
EXTRACT: note_on channel=6 note=39 velocity=111 time=0
EXTRACT: note_off channel=9 note=42 velocity=95 time=0
EXTRACT: note_off channel=9 note=38 velocity=95 time=0
EXTRACT: note_on channel=9 note=42 velocity=95 time=0
EXTRACT: note_on channel=2 note=66 velocity=95 time=0.25
EXTRACT: note_on channel=2 note=61 velocity=95 time=0
EXTRACT: note_on channel=2 note=58 velocity=95 time=0
EXTRACT: note_on channel=4 note=66 velocity=95 time=0
EXTRACT: note_on channel=4 note=61 velocity=95 time=0
EXTRACT: note_on channel=4 note=58 velocity=95 time=0
EXTRACT: note_off channel=6 note=39 velocity=111 time=0
EXTRACT: note_on channel=6 note=42 velocity=111 time=0
EXTRACT: note_off channel=9 note=42 velocity=95 time=0
EXTRACT: note_on channel=9 note=49 velocity=95 time=0
EXTRACT: note_on channel=9 note=35 velocity=95 time=0
EXTRACT: note_off channel=2 note=66 velocity=95 time=0.25
EXTRACT: note_off channel=2 note=61 velocity=95 time=0
EXTRACT: note_off channel=2 note=58 velocity=95 time=0
EXTRACT: note_off channel=4 note=66 velocity=95 time=0
EXTRACT: note_off channel=4 note=61 velocity=95 time=0
EXTRACT: note_off channel=4 note=58 velocity=95 time=0
EXTRACT: note_off channel=6 note=42 velocity=111 time=0
EXTRACT: note_on channel=6 note=39 velocity=111 time=0
EXTRACT: note_off channel=0 note=70 velocity=127 time=0.25
EXTRACT: note_off channel=6 note=39 velocity=111 time=0
EXTRACT: note_on channel=6 note=37 velocity=111 time=0
EXTRACT: note_off channel=9 note=49 velocity=95 time=0
EXTRACT: note_off channel=9 note=35 velocity=95 time=0
EXTRACT: note_on channel=9 note=42 velocity=95 time=0
EXTRACT: note_on channel=9 note=38 velocity=95 time=0
EXTRACT: note_on channel=2 note=66 velocity=95 time=0.25
EXTRACT: note_on channel=2 note=61 velocity=95 time=0
EXTRACT: note_on channel=2 note=58 velocity=95 time=0
EXTRACT: note_on channel=4 note=66 velocity=95 time=0
EXTRACT: note_on channel=4 note=61 velocity=95 time=0
EXTRACT: note_on channel=4 note=58 velocity=95 time=0
EXTRACT: note_off channel=6 note=37 velocity=111 time=0
EXTRACT: note_on channel=6 note=42 velocity=111 time=0
EXTRACT: note_off channel=9 note=42 velocity=95 time=0
EXTRACT: note_off channel=9 note=38 velocity=95 time=0
EXTRACT: note_on channel=9 note=42 velocity=95 time=0
EXTRACT: note_off channel=2 note=66 velocity=95 time=0.25
EXTRACT: note_off channel=2 note=61 velocity=95 time=0
EXTRACT: note_off channel=2 note=58 velocity=95 time=0
EXTRACT: note_off channel=4 note=66 velocity=95 time=0
EXTRACT: note_off channel=4 note=61 velocity=95 time=0
EXTRACT: note_off channel=4 note=58 velocity=95 time=0
EXTRACT: note_off channel=6 note=42 velocity=111 time=0
EXTRACT: note_on channel=6 note=42 velocity=111 time=0
EXTRACT: note_off channel=9 note=42 velocity=95 time=0
EXTRACT: note_on channel=9 note=42 velocity=95 time=0
EXTRACT: note_on channel=9 note=35 velocity=95 time=0
EXTRACT: note_on channel=0 note=68 velocity=127 time=0.25
EXTRACT: note_off channel=6 note=42 velocity=111 time=0
EXTRACT: note_on channel=6 note=39 velocity=111 time=0
EXTRACT: note_off channel=9 note=42 velocity=95 time=0
EXTRACT: note_off channel=9 note=35 velocity=95 time=0
EXTRACT: note_on channel=9 note=42 velocity=95 time=0
EXTRACT: note_off channel=0 note=68 velocity=127 time=0.25
EXTRACT: note_on channel=0 note=70 velocity=127 time=0
EXTRACT: note_off channel=6 note=39 velocity=111 time=0
EXTRACT: note_on channel=6 note=37 velocity=111 time=0
EXTRACT: note_off channel=9 note=42 velocity=95 time=0
EXTRACT: note_on channel=9 note=42 velocity=95 time=0
EXTRACT: note_on channel=9 note=38 velocity=95 time=0
EXTRACT: note_off channel=0 note=70 velocity=127 time=0.25
EXTRACT: note_on channel=0 note=71 velocity=127 time=0
EXTRACT: note_off channel=6 note=37 velocity=111 time=0
EXTRACT: note_on channel=6 note=39 velocity=111 time=0
EXTRACT: note_off channel=9 note=42 velocity=95 time=0
EXTRACT: note_off channel=9 note=38 velocity=95 time=0
EXTRACT: note_on channel=9 note=42 velocity=95 time=0
EXTRACT: note_on channel=2 note=66 velocity=95 time=0.25
EXTRACT: note_on channel=2 note=61 velocity=95 time=0
EXTRACT: note_on channel=2 note=58 velocity=95 time=0
EXTRACT: note_on channel=4 note=66 velocity=95 time=0
EXTRACT: note_on channel=4 note=61 velocity=95 time=0
EXTRACT: note_on channel=4 note=58 velocity=95 time=0
EXTRACT: note_off channel=6 note=39 velocity=111 time=0
EXTRACT: note_on channel=6 note=42 velocity=111 time=0
EXTRACT: note_off channel=9 note=42 velocity=95 time=0
EXTRACT: note_on channel=9 note=42 velocity=95 time=0
EXTRACT: note_on channel=9 note=35 velocity=95 time=0
EXTRACT: note_off channel=0 note=71 velocity=127 time=0.25
EXTRACT: note_on channel=0 note=73 velocity=127 time=0
EXTRACT: note_off channel=2 note=66 velocity=95 time=0
EXTRACT: note_off channel=2 note=61 velocity=95 time=0
EXTRACT: note_off channel=2 note=58 velocity=95 time=0
EXTRACT: note_off channel=4 note=66 velocity=95 time=0
EXTRACT: note_off channel=4 note=61 velocity=95 time=0
EXTRACT: note_off channel=4 note=58 velocity=95 time=0
EXTRACT: note_off channel=6 note=42 velocity=111 time=0
EXTRACT: note_on channel=6 note=39 velocity=111 time=0
EXTRACT: note_off channel=9 note=42 velocity=95 time=0
EXTRACT: note_off channel=9 note=35 velocity=95 time=0
EXTRACT: note_on channel=9 note=42 velocity=95 time=0
EXTRACT: note_off channel=6 note=39 velocity=111 time=0.25
EXTRACT: note_on channel=6 note=37 velocity=111 time=0
EXTRACT: note_off channel=9 note=42 velocity=95 time=0
EXTRACT: note_on channel=9 note=42 velocity=95 time=0
EXTRACT: note_on channel=9 note=38 velocity=95 time=0
EXTRACT: note_off channel=0 note=73 velocity=127 time=0.25
EXTRACT: note_on channel=0 note=70 velocity=127 time=0
EXTRACT: note_on channel=2 note=66 velocity=95 time=0
EXTRACT: note_on channel=2 note=61 velocity=95 time=0
EXTRACT: note_on channel=2 note=58 velocity=95 time=0
EXTRACT: note_on channel=4 note=66 velocity=95 time=0
EXTRACT: note_on channel=4 note=61 velocity=95 time=0
EXTRACT: note_on channel=4 note=58 velocity=95 time=0
EXTRACT: note_off channel=6 note=37 velocity=111 time=0
EXTRACT: note_on channel=6 note=42 velocity=111 time=0
EXTRACT: note_off channel=9 note=42 velocity=95 time=0
EXTRACT: note_off channel=9 note=38 velocity=95 time=0
EXTRACT: note_on channel=9 note=42 velocity=95 time=0
EXTRACT: note_off channel=0 note=70 velocity=127 time=0.25
EXTRACT: note_on channel=0 note=68 velocity=102 time=0
EXTRACT: note_off channel=2 note=66 velocity=95 time=0
EXTRACT: note_off channel=2 note=61 velocity=95 time=0
EXTRACT: note_off channel=2 note=58 velocity=95 time=0
EXTRACT: note_off channel=4 note=66 velocity=95 time=0
EXTRACT: note_off channel=4 note=61 velocity=95 time=0
EXTRACT: note_off channel=4 note=58 velocity=95 time=0
EXTRACT: note_off channel=6 note=42 velocity=111 time=0
EXTRACT: note_on channel=6 note=42 velocity=111 time=0
EXTRACT: note_off channel=9 note=42 velocity=95 time=0
EXTRACT: note_on channel=9 note=42 velocity=95 time=0
EXTRACT: note_on channel=9 note=35 velocity=95 time=0
EXTRACT: note_off channel=6 note=42 velocity=111 time=0.25
EXTRACT: note_on channel=6 note=39 velocity=111 time=0
EXTRACT: note_off channel=9 note=42 velocity=95 time=0
EXTRACT: note_off channel=9 note=35 velocity=95 time=0
EXTRACT: note_on channel=9 note=42 velocity=95 time=0
EXTRACT: note_off channel=9 note=42 velocity=95 time=0.125
EXTRACT: note_on channel=9 note=35 velocity=95 time=0
EXTRACT: note_off channel=0 note=68 velocity=102 time=0.125
EXTRACT: note_on channel=0 note=68 velocity=127 time=0
EXTRACT: note_off channel=6 note=39 velocity=111 time=0
EXTRACT: note_on channel=6 note=37 velocity=111 time=0
EXTRACT: note_off channel=9 note=35 velocity=95 time=0
EXTRACT: note_on channel=9 note=42 velocity=95 time=0
EXTRACT: note_on channel=9 note=38 velocity=95 time=0
EXTRACT: note_off channel=0 note=68 velocity=127 time=0.25
EXTRACT: note_on channel=0 note=66 velocity=127 time=0
EXTRACT: note_off channel=6 note=37 velocity=111 time=0
EXTRACT: note_on channel=6 note=39 velocity=111 time=0
EXTRACT: note_off channel=9 note=42 velocity=95 time=0
EXTRACT: note_off channel=9 note=38 velocity=95 time=0
EXTRACT: note_on channel=9 note=42 velocity=95 time=0
EXTRACT: note_off channel=0 note=66 velocity=127 time=0.25
EXTRACT: note_on channel=0 note=68 velocity=127 time=0
EXTRACT: note_on channel=2 note=68 velocity=95 time=0
EXTRACT: note_on channel=2 note=63 velocity=95 time=0
EXTRACT: note_on channel=2 note=59 velocity=95 time=0
EXTRACT: note_on channel=4 note=68 velocity=95 time=0
EXTRACT: note_on channel=4 note=66 velocity=95 time=0
EXTRACT: note_on channel=4 note=63 velocity=95 time=0
EXTRACT: note_on channel=4 note=59 velocity=95 time=0
EXTRACT: note_off channel=6 note=39 velocity=111 time=0
EXTRACT: note_on channel=6 note=44 velocity=111 time=0
EXTRACT: note_off channel=9 note=42 velocity=95 time=0
EXTRACT: note_on channel=9 note=49 velocity=95 time=0
EXTRACT: note_on channel=9 note=35 velocity=95 time=0
EXTRACT: note_off channel=0 note=68 velocity=127 time=0.25
EXTRACT: note_on channel=0 note=68 velocity=127 time=0
EXTRACT: note_off channel=6 note=44 velocity=111 time=0
EXTRACT: note_on channel=6 note=44 velocity=111 time=0
EXTRACT: note_off channel=9 note=49 velocity=95 time=0
EXTRACT: note_off channel=9 note=35 velocity=95 time=0
EXTRACT: note_on channel=9 note=42 velocity=95 time=0
EXTRACT: note_off channel=2 note=68 velocity=95 time=0.25
EXTRACT: note_off channel=2 note=63 velocity=95 time=0
EXTRACT: note_off channel=2 note=59 velocity=95 time=0
EXTRACT: note_on channel=2 note=68 velocity=95 time=0
EXTRACT: note_on channel=2 note=63 velocity=95 time=0
EXTRACT: note_on channel=2 note=59 velocity=95 time=0
EXTRACT: note_off channel=6 note=44 velocity=111 time=0
EXTRACT: note_on channel=6 note=44 velocity=111 time=0
EXTRACT: note_off channel=9 note=42 velocity=95 time=0
EXTRACT: note_on channel=9 note=38 velocity=95 time=0
EXTRACT: note_off channel=0 note=68 velocity=127 time=0.25
EXTRACT: note_on channel=0 note=68 velocity=102 time=0
EXTRACT: note_off channel=6 note=44 velocity=111 time=0
EXTRACT: note_on channel=6 note=44 velocity=111 time=0
EXTRACT: note_off channel=9 note=38 velocity=95 time=0
EXTRACT: note_on channel=9 note=42 velocity=95 time=0
EXTRACT: note_off channel=0 note=68 velocity=102 time=0.25
EXTRACT: note_on channel=0 note=66 velocity=102 time=0
EXTRACT: note_off channel=2 note=68 velocity=95 time=0
EXTRACT: note_off channel=2 note=63 velocity=95 time=0
EXTRACT: note_off channel=2 note=59 velocity=95 time=0
EXTRACT: note_on channel=2 note=68 velocity=95 time=0
EXTRACT: note_on channel=2 note=63 velocity=95 time=0
EXTRACT: note_on channel=2 note=59 velocity=95 time=0
EXTRACT: note_off channel=6 note=44 velocity=111 time=0
EXTRACT: note_on channel=6 note=44 velocity=111 time=0
EXTRACT: note_off channel=9 note=42 velocity=95 time=0
EXTRACT: note_on channel=9 note=42 velocity=95 time=0
EXTRACT: note_on channel=9 note=35 velocity=95 time=0
EXTRACT: note_off channel=0 note=66 velocity=102 time=0.25
EXTRACT: note_on channel=0 note=63 velocity=102 time=0
EXTRACT: note_off channel=2 note=68 velocity=95 time=0
EXTRACT: note_off channel=2 note=63 velocity=95 time=0
EXTRACT: note_off channel=2 note=59 velocity=95 time=0
EXTRACT: note_on channel=2 note=68 velocity=95 time=0
EXTRACT: note_on channel=2 note=63 velocity=95 time=0
EXTRACT: note_on channel=2 note=59 velocity=95 time=0
EXTRACT: note_off channel=6 note=44 velocity=111 time=0
EXTRACT: note_on channel=6 note=39 velocity=111 time=0
EXTRACT: note_off channel=9 note=42 velocity=95 time=0
EXTRACT: note_off channel=9 note=35 velocity=95 time=0
EXTRACT: note_on channel=9 note=42 velocity=95 time=0
EXTRACT: note_on channel=9 note=35 velocity=95 time=0
EXTRACT: note_off channel=2 note=68 velocity=95 time=0.25
EXTRACT: note_off channel=2 note=63 velocity=95 time=0
EXTRACT: note_off channel=2 note=59 velocity=95 time=0
EXTRACT: note_on channel=2 note=68 velocity=95 time=0
EXTRACT: note_on channel=2 note=63 velocity=95 time=0
EXTRACT: note_on channel=2 note=59 velocity=95 time=0
EXTRACT: note_off channel=6 note=39 velocity=111 time=0
EXTRACT: note_on channel=6 note=44 velocity=111 time=0
EXTRACT: note_off channel=9 note=42 velocity=95 time=0
EXTRACT: note_off channel=9 note=35 velocity=95 time=0
EXTRACT: note_on channel=9 note=42 velocity=95 time=0
EXTRACT: note_on channel=9 note=38 velocity=95 time=0
EXTRACT: note_off channel=2 note=68 velocity=95 time=0.25
EXTRACT: note_off channel=2 note=63 velocity=95 time=0
EXTRACT: note_off channel=2 note=59 velocity=95 time=0
EXTRACT: note_on channel=2 note=66 velocity=95 time=0
EXTRACT: note_on channel=2 note=61 velocity=95 time=0
EXTRACT: note_on channel=2 note=58 velocity=95 time=0
EXTRACT: note_off channel=4 note=68 velocity=95 time=0
EXTRACT: note_off channel=4 note=66 velocity=95 time=0
EXTRACT: note_off channel=4 note=63 velocity=95 time=0
EXTRACT: note_off channel=4 note=59 velocity=95 time=0
EXTRACT: note_on channel=4 note=66 velocity=95 time=0
EXTRACT: note_on channel=4 note=61 velocity=95 time=0
EXTRACT: note_on channel=4 note=58 velocity=95 time=0
EXTRACT: note_off channel=6 note=44 velocity=111 time=0
EXTRACT: note_on channel=6 note=39 velocity=111 time=0
EXTRACT: note_off channel=9 note=42 velocity=95 time=0
EXTRACT: note_off channel=9 note=38 velocity=95 time=0
EXTRACT: note_on channel=9 note=49 velocity=95 time=0
EXTRACT: note_on channel=9 note=35 velocity=95 time=0
EXTRACT: note_off channel=0 note=63 velocity=102 time=0.25
EXTRACT: note_off channel=9 note=35 velocity=95 time=0
EXTRACT: note_off channel=2 note=66 velocity=95 time=0.25
EXTRACT: note_off channel=2 note=61 velocity=95 time=0
EXTRACT: note_off channel=2 note=58 velocity=95 time=0
EXTRACT: note_on channel=2 note=66 velocity=95 time=0
EXTRACT: note_on channel=2 note=61 velocity=95 time=0
EXTRACT: note_on channel=2 note=58 velocity=95 time=0
EXTRACT: note_off channel=6 note=39 velocity=111 time=0
EXTRACT: note_on channel=6 note=39 velocity=111 time=0
EXTRACT: note_off channel=9 note=49 velocity=95 time=0
EXTRACT: note_on channel=9 note=42 velocity=95 time=0
EXTRACT: note_on channel=9 note=35 velocity=95 time=0
EXTRACT: note_off channel=2 note=66 velocity=95 time=0.25
EXTRACT: note_off channel=2 note=61 velocity=95 time=0
EXTRACT: note_off channel=2 note=58 velocity=95 time=0
EXTRACT: note_on channel=2 note=66 velocity=95 time=0
EXTRACT: note_on channel=2 note=61 velocity=95 time=0
EXTRACT: note_on channel=2 note=58 velocity=95 time=0
EXTRACT: note_off channel=6 note=39 velocity=111 time=0
EXTRACT: note_on channel=6 note=39 velocity=111 time=0
EXTRACT: note_off channel=9 note=42 velocity=95 time=0
EXTRACT: note_off channel=9 note=35 velocity=95 time=0
EXTRACT: note_on channel=9 note=42 velocity=95 time=0
EXTRACT: note_on channel=9 note=38 velocity=95 time=0
EXTRACT: note_off channel=2 note=66 velocity=95 time=0.25
EXTRACT: note_off channel=2 note=61 velocity=95 time=0
EXTRACT: note_off channel=2 note=58 velocity=95 time=0
EXTRACT: note_on channel=2 note=64 velocity=95 time=0
EXTRACT: note_on channel=2 note=59 velocity=95 time=0
EXTRACT: note_on channel=2 note=55 velocity=95 time=0
EXTRACT: note_off channel=6 note=39 velocity=111 time=0
EXTRACT: note_on channel=6 note=39 velocity=111 time=0
EXTRACT: note_off channel=9 note=42 velocity=95 time=0
EXTRACT: note_off channel=9 note=38 velocity=95 time=0
EXTRACT: note_on channel=9 note=42 velocity=95 time=0
EXTRACT: note_off channel=2 note=64 velocity=95 time=0.03125
EXTRACT: note_off channel=2 note=59 velocity=95 time=0
EXTRACT: note_off channel=2 note=55 velocity=95 time=0
EXTRACT: note_off channel=9 note=42 velocity=95 time=0.09375
EXTRACT: note_on channel=9 note=35 velocity=95 time=0
EXTRACT: note_on channel=2 note=64 velocity=95 time=0.125
EXTRACT: note_on channel=2 note=59 velocity=95 time=0
EXTRACT: note_on channel=2 note=55 velocity=95 time=0
EXTRACT: note_off channel=6 note=39 velocity=111 time=0
EXTRACT: note_on channel=6 note=39 velocity=111 time=0
EXTRACT: note_off channel=9 note=35 velocity=95 time=0
EXTRACT: note_on channel=9 note=42 velocity=95 time=0
EXTRACT: note_on channel=9 note=35 velocity=95 time=0
EXTRACT: note_off channel=2 note=64 velocity=95 time=0.03125
EXTRACT: note_off channel=2 note=59 velocity=95 time=0
EXTRACT: note_off channel=2 note=55 velocity=95 time=0
EXTRACT: note_on channel=2 note=66 velocity=95 time=0.21875
EXTRACT: note_on channel=2 note=61 velocity=95 time=0
EXTRACT: note_on channel=2 note=58 velocity=95 time=0
EXTRACT: note_off channel=6 note=39 velocity=111 time=0
EXTRACT: note_on channel=6 note=34 velocity=111 time=0
EXTRACT: note_off channel=9 note=42 velocity=95 time=0
EXTRACT: note_off channel=9 note=35 velocity=95 time=0
EXTRACT: note_on channel=9 note=42 velocity=95 time=0
EXTRACT: note_on channel=9 note=35 velocity=95 time=0
EXTRACT: note_on channel=0 note=68 velocity=127 time=0.25
EXTRACT: note_off channel=2 note=66 velocity=95 time=0
EXTRACT: note_off channel=2 note=61 velocity=95 time=0
EXTRACT: note_off channel=2 note=58 velocity=95 time=0
EXTRACT: note_on channel=2 note=66 velocity=95 time=0
EXTRACT: note_on channel=2 note=61 velocity=95 time=0
EXTRACT: note_on channel=2 note=58 velocity=95 time=0
EXTRACT: note_off channel=6 note=34 velocity=111 time=0
EXTRACT: note_on channel=6 note=39 velocity=111 time=0
EXTRACT: note_off channel=9 note=42 velocity=95 time=0
EXTRACT: note_off channel=9 note=35 velocity=95 time=0
EXTRACT: note_on channel=9 note=46 velocity=95 time=0
EXTRACT: note_on channel=9 note=38 velocity=95 time=0
EXTRACT: note_off channel=0 note=68 velocity=127 time=0.25
EXTRACT: note_on channel=0 note=70 velocity=127 time=0
EXTRACT: note_off channel=2 note=66 velocity=95 time=0
EXTRACT: note_off channel=2 note=61 velocity=95 time=0
EXTRACT: note_off channel=2 note=58 velocity=95 time=0
EXTRACT: note_on channel=2 note=64 velocity=95 time=0
EXTRACT: note_on channel=2 note=59 velocity=95 time=0
EXTRACT: note_on channel=2 note=55 velocity=95 time=0
EXTRACT: note_off channel=6 note=39 velocity=111 time=0
EXTRACT: note_on channel=6 note=34 velocity=111 time=0
EXTRACT: note_off channel=2 note=64 velocity=95 time=0.03125
EXTRACT: note_off channel=2 note=59 velocity=95 time=0
EXTRACT: note_off channel=2 note=55 velocity=95 time=0
EXTRACT: note_off channel=0 note=70 velocity=127 time=0.21875
EXTRACT: note_on channel=0 note=71 velocity=127 time=0
EXTRACT: note_on channel=2 note=68 velocity=95 time=0
EXTRACT: note_on channel=2 note=63 velocity=95 time=0
EXTRACT: note_on channel=2 note=59 velocity=95 time=0
EXTRACT: note_off channel=4 note=66 velocity=95 time=0
EXTRACT: note_off channel=4 note=61 velocity=95 time=0
EXTRACT: note_off channel=4 note=58 velocity=95 time=0
EXTRACT: note_on channel=4 note=68 velocity=95 time=0
EXTRACT: note_on channel=4 note=66 velocity=95 time=0
EXTRACT: note_on channel=4 note=63 velocity=95 time=0
EXTRACT: note_on channel=4 note=59 velocity=95 time=0
EXTRACT: note_off channel=6 note=34 velocity=111 time=0
EXTRACT: note_on channel=6 note=44 velocity=111 time=0
EXTRACT: note_off channel=9 note=46 velocity=95 time=0
EXTRACT: note_off channel=9 note=38 velocity=95 time=0
EXTRACT: note_on channel=9 note=49 velocity=95 time=0
EXTRACT: note_on channel=9 note=35 velocity=95 time=0
EXTRACT: note_off channel=0 note=71 velocity=127 time=0.25
EXTRACT: note_on channel=0 note=70 velocity=102 time=0
EXTRACT: note_off channel=6 note=44 velocity=111 time=0
EXTRACT: note_on channel=6 note=44 velocity=111 time=0
EXTRACT: note_off channel=9 note=49 velocity=95 time=0
EXTRACT: note_off channel=9 note=35 velocity=95 time=0
EXTRACT: note_on channel=9 note=42 velocity=95 time=0
EXTRACT: note_off channel=0 note=70 velocity=102 time=0.25
EXTRACT: note_on channel=0 note=68 velocity=102 time=0
EXTRACT: note_off channel=2 note=68 velocity=95 time=0
EXTRACT: note_off channel=2 note=63 velocity=95 time=0
EXTRACT: note_off channel=2 note=59 velocity=95 time=0
EXTRACT: note_on channel=2 note=68 velocity=95 time=0
EXTRACT: note_on channel=2 note=63 velocity=95 time=0
EXTRACT: note_on channel=2 note=59 velocity=95 time=0
EXTRACT: note_off channel=6 note=44 velocity=111 time=0
EXTRACT: note_on channel=6 note=44 velocity=111 time=0
EXTRACT: note_off channel=9 note=42 velocity=95 time=0
EXTRACT: note_on channel=9 note=38 velocity=95 time=0
EXTRACT: note_off channel=0 note=68 velocity=102 time=0.25
EXTRACT: note_on channel=0 note=66 velocity=102 time=0
EXTRACT: note_off channel=6 note=44 velocity=111 time=0
EXTRACT: note_on channel=6 note=44 velocity=111 time=0
EXTRACT: note_off channel=9 note=38 velocity=95 time=0
EXTRACT: note_on channel=9 note=42 velocity=95 time=0
EXTRACT: note_off channel=2 note=68 velocity=95 time=0.25
EXTRACT: note_off channel=2 note=63 velocity=95 time=0
EXTRACT: note_off channel=2 note=59 velocity=95 time=0
EXTRACT: note_on channel=2 note=68 velocity=95 time=0
EXTRACT: note_on channel=2 note=63 velocity=95 time=0
EXTRACT: note_on channel=2 note=59 velocity=95 time=0
EXTRACT: note_off channel=6 note=44 velocity=111 time=0
EXTRACT: note_on channel=6 note=44 velocity=111 time=0
EXTRACT: note_off channel=9 note=42 velocity=95 time=0
EXTRACT: note_on channel=9 note=42 velocity=95 time=0
EXTRACT: note_on channel=9 note=35 velocity=95 time=0
EXTRACT: note_off channel=0 note=66 velocity=102 time=0.25
EXTRACT: note_on channel=0 note=68 velocity=127 time=0
EXTRACT: note_off channel=2 note=68 velocity=95 time=0
EXTRACT: note_off channel=2 note=63 velocity=95 time=0
EXTRACT: note_off channel=2 note=59 velocity=95 time=0
EXTRACT: note_on channel=2 note=68 velocity=95 time=0
EXTRACT: note_on channel=2 note=63 velocity=95 time=0
EXTRACT: note_on channel=2 note=59 velocity=95 time=0
EXTRACT: note_off channel=6 note=44 velocity=111 time=0
EXTRACT: note_on channel=6 note=39 velocity=111 time=0
EXTRACT: note_off channel=9 note=42 velocity=95 time=0
EXTRACT: note_off channel=9 note=35 velocity=95 time=0
EXTRACT: note_on channel=9 note=42 velocity=95 time=0
EXTRACT: note_on channel=9 note=35 velocity=95 time=0
EXTRACT: note_off channel=2 note=68 velocity=95 time=0.25
EXTRACT: note_off channel=2 note=63 velocity=95 time=0
EXTRACT: note_off channel=2 note=59 velocity=95 time=0
EXTRACT: note_on channel=2 note=68 velocity=95 time=0
EXTRACT: note_on channel=2 note=63 velocity=95 time=0
EXTRACT: note_on channel=2 note=59 velocity=95 time=0
EXTRACT: note_off channel=6 note=39 velocity=111 time=0
EXTRACT: note_on channel=6 note=44 velocity=111 time=0
EXTRACT: note_off channel=9 note=42 velocity=95 time=0
EXTRACT: note_off channel=9 note=35 velocity=95 time=0
EXTRACT: note_on channel=9 note=42 velocity=95 time=0
EXTRACT: note_on channel=9 note=38 velocity=95 time=0
EXTRACT: note_off channel=0 note=68 velocity=127 time=0.25
EXTRACT: note_on channel=0 note=68 velocity=127 time=0
EXTRACT: note_off channel=2 note=68 velocity=95 time=0
EXTRACT: note_off channel=2 note=63 velocity=95 time=0
EXTRACT: note_off channel=2 note=59 velocity=95 time=0
EXTRACT: note_on channel=2 note=66 velocity=95 time=0
EXTRACT: note_on channel=2 note=61 velocity=95 time=0
EXTRACT: note_on channel=2 note=58 velocity=95 time=0
EXTRACT: note_off channel=4 note=68 velocity=95 time=0
EXTRACT: note_off channel=4 note=66 velocity=95 time=0
EXTRACT: note_off channel=4 note=63 velocity=95 time=0
EXTRACT: note_off channel=4 note=59 velocity=95 time=0
EXTRACT: note_on channel=4 note=66 velocity=95 time=0
EXTRACT: note_on channel=4 note=61 velocity=95 time=0
EXTRACT: note_on channel=4 note=58 velocity=95 time=0
EXTRACT: note_off channel=6 note=44 velocity=111 time=0
EXTRACT: note_on channel=6 note=39 velocity=111 time=0
EXTRACT: note_off channel=9 note=42 velocity=95 time=0
EXTRACT: note_off channel=9 note=38 velocity=95 time=0
EXTRACT: note_on channel=9 note=49 velocity=95 time=0
EXTRACT: note_on channel=9 note=35 velocity=95 time=0
EXTRACT: note_off channel=0 note=68 velocity=127 time=0.25
EXTRACT: note_on channel=0 note=66 velocity=102 time=0
EXTRACT: note_off channel=9 note=35 velocity=95 time=0
EXTRACT: note_off channel=2 note=66 velocity=95 time=0.25
EXTRACT: note_off channel=2 note=61 velocity=95 time=0
EXTRACT: note_off channel=2 note=58 velocity=95 time=0
EXTRACT: note_on channel=2 note=66 velocity=95 time=0
EXTRACT: note_on channel=2 note=61 velocity=95 time=0
EXTRACT: note_on channel=2 note=58 velocity=95 time=0
EXTRACT: note_off channel=6 note=39 velocity=111 time=0
EXTRACT: note_on channel=6 note=39 velocity=111 time=0
EXTRACT: note_off channel=9 note=49 velocity=95 time=0
EXTRACT: note_on channel=9 note=42 velocity=95 time=0
EXTRACT: note_on channel=9 note=35 velocity=95 time=0
EXTRACT: note_off channel=0 note=66 velocity=102 time=0.25
EXTRACT: note_off channel=2 note=66 velocity=95 time=0
EXTRACT: note_off channel=2 note=61 velocity=95 time=0
EXTRACT: note_off channel=2 note=58 velocity=95 time=0
EXTRACT: note_on channel=2 note=66 velocity=95 time=0
EXTRACT: note_on channel=2 note=61 velocity=95 time=0
EXTRACT: note_on channel=2 note=58 velocity=95 time=0
EXTRACT: note_off channel=6 note=39 velocity=111 time=0
EXTRACT: note_on channel=6 note=39 velocity=111 time=0
EXTRACT: note_off channel=9 note=42 velocity=95 time=0
EXTRACT: note_off channel=9 note=35 velocity=95 time=0
EXTRACT: note_on channel=9 note=42 velocity=95 time=0
EXTRACT: note_on channel=9 note=38 velocity=95 time=0
EXTRACT: note_off channel=2 note=66 velocity=95 time=0.25
EXTRACT: note_off channel=2 note=61 velocity=95 time=0
EXTRACT: note_off channel=2 note=58 velocity=95 time=0
EXTRACT: note_on channel=2 note=64 velocity=95 time=0
EXTRACT: note_on channel=2 note=59 velocity=95 time=0
EXTRACT: note_on channel=2 note=55 velocity=95 time=0
EXTRACT: note_off channel=6 note=39 velocity=111 time=0
EXTRACT: note_on channel=6 note=39 velocity=111 time=0
EXTRACT: note_off channel=9 note=42 velocity=95 time=0
EXTRACT: note_off channel=9 note=38 velocity=95 time=0
EXTRACT: note_on channel=9 note=42 velocity=95 time=0
EXTRACT: note_off channel=2 note=64 velocity=95 time=0.03125
EXTRACT: note_off channel=2 note=59 velocity=95 time=0
EXTRACT: note_off channel=2 note=55 velocity=95 time=0
EXTRACT: note_off channel=9 note=42 velocity=95 time=0.09375
EXTRACT: note_on channel=9 note=35 velocity=95 time=0
EXTRACT: note_on channel=0 note=66 velocity=127 time=0.125
EXTRACT: note_on channel=2 note=64 velocity=95 time=0
EXTRACT: note_on channel=2 note=59 velocity=95 time=0
EXTRACT: note_on channel=2 note=55 velocity=95 time=0
EXTRACT: note_off channel=6 note=39 velocity=111 time=0
EXTRACT: note_on channel=6 note=39 velocity=111 time=0
EXTRACT: note_off channel=9 note=35 velocity=95 time=0
EXTRACT: note_on channel=9 note=42 velocity=95 time=0
EXTRACT: note_on channel=9 note=35 velocity=95 time=0
EXTRACT: note_off channel=2 note=64 velocity=95 time=0.03125
EXTRACT: note_off channel=2 note=59 velocity=95 time=0
EXTRACT: note_off channel=2 note=55 velocity=95 time=0
EXTRACT: note_off channel=0 note=66 velocity=127 time=0.21875
EXTRACT: note_on channel=0 note=68 velocity=127 time=0
EXTRACT: note_on channel=2 note=66 velocity=95 time=0
EXTRACT: note_on channel=2 note=61 velocity=95 time=0
EXTRACT: note_on channel=2 note=58 velocity=95 time=0
EXTRACT: note_off channel=6 note=39 velocity=111 time=0
EXTRACT: note_on channel=6 note=34 velocity=111 time=0
EXTRACT: note_off channel=9 note=42 velocity=95 time=0
EXTRACT: note_off channel=9 note=35 velocity=95 time=0
EXTRACT: note_on channel=9 note=42 velocity=95 time=0
EXTRACT: note_on channel=9 note=35 velocity=95 time=0
EXTRACT: note_off channel=0 note=68 velocity=127 time=0.25
EXTRACT: note_on channel=0 note=70 velocity=127 time=0
EXTRACT: note_off channel=2 note=66 velocity=95 time=0
EXTRACT: note_off channel=2 note=61 velocity=95 time=0
EXTRACT: note_off channel=2 note=58 velocity=95 time=0
EXTRACT: note_on channel=2 note=66 velocity=95 time=0
EXTRACT: note_on channel=2 note=61 velocity=95 time=0
EXTRACT: note_on channel=2 note=58 velocity=95 time=0
EXTRACT: note_off channel=6 note=34 velocity=111 time=0
EXTRACT: note_on channel=6 note=39 velocity=111 time=0
EXTRACT: note_off channel=9 note=42 velocity=95 time=0
EXTRACT: note_off channel=9 note=35 velocity=95 time=0
EXTRACT: note_on channel=9 note=46 velocity=95 time=0
EXTRACT: note_on channel=9 note=38 velocity=95 time=0
EXTRACT: note_off channel=0 note=70 velocity=127 time=0.25
EXTRACT: note_on channel=0 note=70 velocity=127 time=0
EXTRACT: note_off channel=2 note=66 velocity=95 time=0
EXTRACT: note_off channel=2 note=61 velocity=95 time=0
EXTRACT: note_off channel=2 note=58 velocity=95 time=0
EXTRACT: note_on channel=2 note=64 velocity=95 time=0
EXTRACT: note_on channel=2 note=59 velocity=95 time=0
EXTRACT: note_on channel=2 note=55 velocity=95 time=0
EXTRACT: note_off channel=6 note=39 velocity=111 time=0
EXTRACT: note_on channel=6 note=34 velocity=111 time=0
EXTRACT: note_off channel=2 note=64 velocity=95 time=0.03125
EXTRACT: note_off channel=2 note=59 velocity=95 time=0
EXTRACT: note_off channel=2 note=55 velocity=95 time=0
EXTRACT: note_on channel=2 note=66 velocity=95 time=0.21875
EXTRACT: note_on channel=2 note=61 velocity=95 time=0
EXTRACT: note_on channel=2 note=56 velocity=95 time=0
EXTRACT: note_off channel=4 note=66 velocity=95 time=0
EXTRACT: note_off channel=4 note=61 velocity=95 time=0
EXTRACT: note_off channel=4 note=58 velocity=95 time=0
EXTRACT: note_on channel=4 note=66 velocity=95 time=0
EXTRACT: note_on channel=4 note=61 velocity=95 time=0
EXTRACT: note_on channel=4 note=56 velocity=95 time=0
EXTRACT: note_on channel=8 note=66 velocity=95 time=0
EXTRACT: note_on channel=8 note=61 velocity=95 time=0
EXTRACT: note_off channel=6 note=34 velocity=111 time=0
EXTRACT: note_on channel=6 note=37 velocity=111 time=0
EXTRACT: note_off channel=9 note=46 velocity=95 time=0
EXTRACT: note_off channel=9 note=38 velocity=95 time=0
EXTRACT: note_on channel=9 note=49 velocity=95 time=0
EXTRACT: note_on channel=9 note=35 velocity=95 time=0
EXTRACT: note_off channel=2 note=66 velocity=95 time=0.25
EXTRACT: note_off channel=2 note=61 velocity=95 time=0
EXTRACT: note_off channel=2 note=56 velocity=95 time=0
EXTRACT: note_off channel=8 note=66 velocity=95 time=0
EXTRACT: note_off channel=8 note=61 velocity=95 time=0
EXTRACT: note_off channel=6 note=37 velocity=111 time=0
EXTRACT: note_on channel=6 note=37 velocity=111 time=0
EXTRACT: note_off channel=9 note=49 velocity=95 time=0
EXTRACT: note_off channel=9 note=35 velocity=95 time=0
EXTRACT: note_on channel=9 note=42 velocity=95 time=0
EXTRACT: note_on channel=2 note=66 velocity=95 time=0.25
EXTRACT: note_on channel=2 note=61 velocity=95 time=0
EXTRACT: note_on channel=2 note=56 velocity=95 time=0
EXTRACT: note_on channel=8 note=66 velocity=95 time=0
EXTRACT: note_on channel=8 note=61 velocity=95 time=0
EXTRACT: note_off channel=6 note=37 velocity=111 time=0
EXTRACT: note_on channel=6 note=37 velocity=111 time=0
EXTRACT: note_off channel=9 note=42 velocity=95 time=0
EXTRACT: note_on channel=9 note=42 velocity=95 time=0
EXTRACT: note_on channel=9 note=38 velocity=95 time=0
EXTRACT: note_off channel=2 note=66 velocity=95 time=0.25
EXTRACT: note_off channel=2 note=61 velocity=95 time=0
EXTRACT: note_off channel=2 note=56 velocity=95 time=0
EXTRACT: note_off channel=8 note=66 velocity=95 time=0
EXTRACT: note_off channel=8 note=61 velocity=95 time=0
EXTRACT: note_off channel=6 note=37 velocity=111 time=0
EXTRACT: note_on channel=6 note=37 velocity=111 time=0
EXTRACT: note_off channel=9 note=42 velocity=95 time=0
EXTRACT: note_off channel=9 note=38 velocity=95 time=0
EXTRACT: note_on channel=9 note=42 velocity=95 time=0
EXTRACT: note_on channel=2 note=66 velocity=95 time=0.25
EXTRACT: note_on channel=2 note=61 velocity=95 time=0
EXTRACT: note_on channel=2 note=56 velocity=95 time=0
EXTRACT: note_on channel=8 note=66 velocity=95 time=0
EXTRACT: note_on channel=8 note=61 velocity=95 time=0
EXTRACT: note_off channel=6 note=37 velocity=111 time=0
EXTRACT: note_on channel=6 note=37 velocity=111 time=0
EXTRACT: note_off channel=9 note=42 velocity=95 time=0
EXTRACT: note_on channel=9 note=42 velocity=95 time=0
EXTRACT: note_on channel=9 note=35 velocity=95 time=0
EXTRACT: note_off channel=2 note=66 velocity=95 time=0.25
EXTRACT: note_off channel=2 note=61 velocity=95 time=0
EXTRACT: note_off channel=2 note=56 velocity=95 time=0
EXTRACT: note_off channel=8 note=66 velocity=95 time=0
EXTRACT: note_off channel=8 note=61 velocity=95 time=0
EXTRACT: note_off channel=6 note=37 velocity=111 time=0
EXTRACT: note_on channel=6 note=37 velocity=111 time=0
EXTRACT: note_off channel=9 note=42 velocity=95 time=0
EXTRACT: note_off channel=9 note=35 velocity=95 time=0
EXTRACT: note_on channel=9 note=42 velocity=95 time=0
EXTRACT: note_on channel=2 note=65 velocity=95 time=0.25
EXTRACT: note_on channel=2 note=61 velocity=95 time=0
EXTRACT: note_on channel=2 note=56 velocity=95 time=0
EXTRACT: note_off channel=4 note=66 velocity=95 time=0
EXTRACT: note_off channel=4 note=61 velocity=95 time=0
EXTRACT: note_off channel=4 note=56 velocity=95 time=0
EXTRACT: note_on channel=4 note=65 velocity=95 time=0
EXTRACT: note_on channel=4 note=61 velocity=95 time=0
EXTRACT: note_on channel=4 note=56 velocity=95 time=0
EXTRACT: note_on channel=8 note=65 velocity=95 time=0
EXTRACT: note_on channel=8 note=61 velocity=95 time=0
EXTRACT: note_off channel=6 note=37 velocity=111 time=0
EXTRACT: note_on channel=6 note=37 velocity=111 time=0
EXTRACT: note_off channel=9 note=42 velocity=95 time=0
EXTRACT: note_on channel=9 note=42 velocity=95 time=0
EXTRACT: note_on channel=9 note=38 velocity=95 time=0
EXTRACT: note_off channel=2 note=65 velocity=95 time=0.25
EXTRACT: note_off channel=2 note=61 velocity=95 time=0
EXTRACT: note_off channel=2 note=56 velocity=95 time=0
EXTRACT: note_off channel=4 note=65 velocity=95 time=0
EXTRACT: note_off channel=4 note=61 velocity=95 time=0
EXTRACT: note_off channel=4 note=56 velocity=95 time=0
EXTRACT: note_off channel=8 note=65 velocity=95 time=0
EXTRACT: note_off channel=8 note=61 velocity=95 time=0
EXTRACT: note_off channel=6 note=37 velocity=111 time=0
EXTRACT: note_on channel=6 note=37 velocity=111 time=0
EXTRACT: note_off channel=9 note=42 velocity=95 time=0
EXTRACT: note_off channel=9 note=38 velocity=95 time=0
EXTRACT: note_on channel=9 note=42 velocity=95 time=0
EXTRACT: note_off channel=0 note=70 velocity=127 time=0.25
EXTRACT: note_on channel=2 note=63 velocity=95 time=0
EXTRACT: note_on channel=2 note=61 velocity=95 time=0
EXTRACT: note_on channel=2 note=56 velocity=95 time=0
EXTRACT: note_on channel=4 note=63 velocity=95 time=0
EXTRACT: note_on channel=4 note=61 velocity=95 time=0
EXTRACT: note_on channel=4 note=56 velocity=95 time=0
EXTRACT: note_on channel=8 note=63 velocity=95 time=0
EXTRACT: note_on channel=8 note=61 velocity=95 time=0
EXTRACT: note_off channel=6 note=37 velocity=111 time=0
EXTRACT: note_on channel=6 note=37 velocity=111 time=0
EXTRACT: note_off channel=9 note=42 velocity=95 time=0
EXTRACT: note_on channel=9 note=42 velocity=95 time=0
EXTRACT: note_on channel=9 note=35 velocity=95 time=0
EXTRACT: note_off channel=2 note=63 velocity=95 time=0.25
EXTRACT: note_off channel=2 note=61 velocity=95 time=0
EXTRACT: note_off channel=2 note=56 velocity=95 time=0
EXTRACT: note_off channel=4 note=63 velocity=95 time=0
EXTRACT: note_off channel=4 note=61 velocity=95 time=0
EXTRACT: note_off channel=4 note=56 velocity=95 time=0
EXTRACT: note_off channel=8 note=63 velocity=95 time=0
EXTRACT: note_off channel=8 note=61 velocity=95 time=0
EXTRACT: note_off channel=6 note=37 velocity=111 time=0
EXTRACT: note_on channel=6 note=32 velocity=111 time=0
EXTRACT: note_off channel=9 note=42 velocity=95 time=0
EXTRACT: note_off channel=9 note=35 velocity=95 time=0
EXTRACT: note_on channel=9 note=42 velocity=95 time=0
EXTRACT: note_on channel=2 note=63 velocity=95 time=0.25
EXTRACT: note_on channel=2 note=61 velocity=95 time=0
EXTRACT: note_on channel=2 note=56 velocity=95 time=0
EXTRACT: note_on channel=4 note=63 velocity=95 time=0
EXTRACT: note_on channel=4 note=61 velocity=95 time=0
EXTRACT: note_on channel=4 note=56 velocity=95 time=0
EXTRACT: note_on channel=8 note=63 velocity=95 time=0
EXTRACT: note_on channel=8 note=61 velocity=95 time=0
EXTRACT: note_off channel=6 note=32 velocity=111 time=0
EXTRACT: note_on channel=6 note=37 velocity=111 time=0
EXTRACT: note_off channel=9 note=42 velocity=95 time=0
EXTRACT: note_on channel=9 note=42 velocity=95 time=0
EXTRACT: note_on channel=9 note=38 velocity=95 time=0
EXTRACT: note_off channel=2 note=63 velocity=95 time=0.25
EXTRACT: note_off channel=2 note=61 velocity=95 time=0
EXTRACT: note_off channel=2 note=56 velocity=95 time=0
EXTRACT: note_off channel=4 note=63 velocity=95 time=0
EXTRACT: note_off channel=4 note=61 velocity=95 time=0
EXTRACT: note_off channel=4 note=56 velocity=95 time=0
EXTRACT: note_off channel=8 note=63 velocity=95 time=0
EXTRACT: note_off channel=8 note=61 velocity=95 time=0
EXTRACT: note_off channel=6 note=37 velocity=111 time=0
EXTRACT: note_on channel=6 note=32 velocity=111 time=0
EXTRACT: note_off channel=9 note=42 velocity=95 time=0
EXTRACT: note_off channel=9 note=38 velocity=95 time=0
EXTRACT: note_on channel=9 note=42 velocity=95 time=0
EXTRACT: note_on channel=0 note=78 velocity=127 time=0.25
EXTRACT: note_on channel=2 note=65 velocity=95 time=0
EXTRACT: note_on channel=2 note=61 velocity=95 time=0
EXTRACT: note_on channel=2 note=56 velocity=95 time=0
EXTRACT: note_on channel=4 note=65 velocity=95 time=0
EXTRACT: note_on channel=4 note=61 velocity=95 time=0
EXTRACT: note_on channel=4 note=56 velocity=95 time=0
EXTRACT: note_on channel=8 note=65 velocity=95 time=0
EXTRACT: note_on channel=8 note=61 velocity=95 time=0
EXTRACT: note_off channel=6 note=32 velocity=111 time=0
EXTRACT: note_on channel=6 note=37 velocity=111 time=0
EXTRACT: note_off channel=9 note=42 velocity=95 time=0
EXTRACT: note_on channel=9 note=38 velocity=95 time=0
EXTRACT: note_off channel=9 note=38 velocity=95 time=0.125
EXTRACT: note_on channel=9 note=38 velocity=95 time=0
EXTRACT: note_off channel=2 note=65 velocity=95 time=0.125
EXTRACT: note_off channel=2 note=61 velocity=95 time=0
EXTRACT: note_off channel=2 note=56 velocity=95 time=0
EXTRACT: note_off channel=4 note=65 velocity=95 time=0
EXTRACT: note_off channel=4 note=61 velocity=95 time=0
EXTRACT: note_off channel=4 note=56 velocity=95 time=0
EXTRACT: note_off channel=8 note=65 velocity=95 time=0
EXTRACT: note_off channel=8 note=61 velocity=95 time=0
EXTRACT: note_off channel=6 note=37 velocity=111 time=0
EXTRACT: note_off channel=9 note=38 velocity=95 time=0
EXTRACT: note_on channel=9 note=38 velocity=95 time=0
EXTRACT: note_off channel=0 note=78 velocity=127 time=0.25
EXTRACT: note_on channel=0 note=61 velocity=127 time=0
EXTRACT: note_off channel=9 note=38 velocity=95 time=0
EXTRACT: note_on channel=9 note=38 velocity=95 time=0
EXTRACT: note_off channel=0 note=61 velocity=127 time=0.25
EXTRACT: note_on channel=0 note=63 velocity=127 time=0
EXTRACT: note_off channel=0 note=63 velocity=127 time=0.25
EXTRACT: note_on channel=0 note=66 velocity=127 time=0
EXTRACT: note_on channel=11 note=54 velocity=95 time=0
EXTRACT: note_on channel=6 note=42 velocity=111 time=0
EXTRACT: note_off channel=9 note=38 velocity=95 time=0
EXTRACT: note_on channel=9 note=49 velocity=95 time=0
EXTRACT: note_on channel=9 note=35 velocity=95 time=0
EXTRACT: note_off channel=11 note=54 velocity=95 time=0.25
EXTRACT: note_on channel=11 note=54 velocity=95 time=0
EXTRACT: note_on channel=4 note=66 velocity=95 time=0
EXTRACT: note_on channel=4 note=63 velocity=95 time=0
EXTRACT: note_on channel=4 note=61 velocity=95 time=0
EXTRACT: note_on channel=4 note=58 velocity=95 time=0
EXTRACT: note_off channel=6 note=42 velocity=111 time=0
EXTRACT: note_on channel=6 note=39 velocity=111 time=0
EXTRACT: note_off channel=11 note=54 velocity=95 time=0.125
EXTRACT: note_on channel=11 note=54 velocity=95 time=0
EXTRACT: note_off channel=0 note=66 velocity=127 time=0.125
EXTRACT: note_on channel=0 note=63 velocity=127 time=0
EXTRACT: note_off channel=11 note=54 velocity=95 time=0
EXTRACT: note_on channel=11 note=51 velocity=95 time=0
EXTRACT: note_off channel=4 note=66 velocity=95 time=0
EXTRACT: note_off channel=4 note=63 velocity=95 time=0
EXTRACT: note_off channel=4 note=61 velocity=95 time=0
EXTRACT: note_off channel=4 note=58 velocity=95 time=0
EXTRACT: note_on channel=8 note=61 velocity=95 time=0
EXTRACT: note_off channel=6 note=39 velocity=111 time=0
EXTRACT: note_on channel=6 note=37 velocity=111 time=0
EXTRACT: note_off channel=9 note=49 velocity=95 time=0
EXTRACT: note_off channel=9 note=35 velocity=95 time=0
EXTRACT: note_on channel=9 note=42 velocity=95 time=0
EXTRACT: note_on channel=9 note=38 velocity=95 time=0
EXTRACT: note_off channel=11 note=51 velocity=95 time=0.25
EXTRACT: note_on channel=11 note=49 velocity=95 time=0
EXTRACT: note_off channel=6 note=37 velocity=111 time=0
EXTRACT: note_on channel=6 note=42 velocity=111 time=0
EXTRACT: note_off channel=9 note=42 velocity=95 time=0
EXTRACT: note_off channel=9 note=38 velocity=95 time=0
EXTRACT: note_on channel=9 note=42 velocity=95 time=0
EXTRACT: note_off channel=11 note=49 velocity=95 time=0.125
EXTRACT: note_on channel=11 note=51 velocity=70 time=0
EXTRACT: note_off channel=0 note=63 velocity=127 time=0.125
EXTRACT: note_off channel=11 note=51 velocity=70 time=0
EXTRACT: note_on channel=11 note=54 velocity=95 time=0
EXTRACT: note_on channel=4 note=66 velocity=95 time=0
EXTRACT: note_on channel=4 note=63 velocity=95 time=0
EXTRACT: note_on channel=4 note=61 velocity=95 time=0
EXTRACT: note_on channel=4 note=58 velocity=95 time=0
EXTRACT: note_off channel=8 note=61 velocity=95 time=0
EXTRACT: note_on channel=8 note=73 velocity=95 time=0
EXTRACT: note_off channel=6 note=42 velocity=111 time=0
EXTRACT: note_on channel=6 note=42 velocity=111 time=0
EXTRACT: note_off channel=9 note=42 velocity=95 time=0
EXTRACT: note_on channel=9 note=42 velocity=95 time=0
EXTRACT: note_on channel=9 note=35 velocity=95 time=0
EXTRACT: note_off channel=11 note=54 velocity=95 time=0.125
EXTRACT: note_on channel=11 note=54 velocity=95 time=0
EXTRACT: note_off channel=11 note=54 velocity=95 time=0.125
EXTRACT: note_on channel=11 note=51 velocity=95 time=0
EXTRACT: note_off channel=4 note=66 velocity=95 time=0
EXTRACT: note_off channel=4 note=63 velocity=95 time=0
EXTRACT: note_off channel=4 note=61 velocity=95 time=0
EXTRACT: note_off channel=4 note=58 velocity=95 time=0
EXTRACT: note_off channel=6 note=42 velocity=111 time=0
EXTRACT: note_on channel=6 note=39 velocity=111 time=0
EXTRACT: note_off channel=9 note=42 velocity=95 time=0
EXTRACT: note_off channel=9 note=35 velocity=95 time=0
EXTRACT: note_on channel=9 note=42 velocity=95 time=0
EXTRACT: note_off channel=11 note=51 velocity=95 time=0.25
EXTRACT: note_on channel=11 note=49 velocity=95 time=0
EXTRACT: note_off channel=8 note=73 velocity=95 time=0
EXTRACT: note_on channel=8 note=70 velocity=95 time=0
EXTRACT: note_off channel=6 note=39 velocity=111 time=0
EXTRACT: note_on channel=6 note=37 velocity=111 time=0
EXTRACT: note_off channel=9 note=42 velocity=95 time=0
EXTRACT: note_on channel=9 note=42 velocity=95 time=0
EXTRACT: note_on channel=9 note=38 velocity=95 time=0
EXTRACT: note_off channel=11 note=49 velocity=95 time=0.25
EXTRACT: note_on channel=11 note=51 velocity=95 time=0
EXTRACT: note_off channel=6 note=37 velocity=111 time=0
EXTRACT: note_on channel=6 note=39 velocity=111 time=0
EXTRACT: note_off channel=9 note=42 velocity=95 time=0
EXTRACT: note_off channel=9 note=38 velocity=95 time=0
EXTRACT: note_on channel=9 note=42 velocity=95 time=0
EXTRACT: note_off channel=11 note=51 velocity=95 time=0.25
EXTRACT: note_on channel=11 note=54 velocity=95 time=0
EXTRACT: note_on channel=4 note=66 velocity=95 time=0
EXTRACT: note_on channel=4 note=63 velocity=95 time=0
EXTRACT: note_on channel=4 note=61 velocity=95 time=0
EXTRACT: note_on channel=4 note=58 velocity=95 time=0
EXTRACT: note_off channel=8 note=70 velocity=95 time=0
EXTRACT: note_on channel=8 note=66 velocity=95 time=0
EXTRACT: note_off channel=6 note=39 velocity=111 time=0
EXTRACT: note_on channel=6 note=42 velocity=111 time=0
EXTRACT: note_off channel=9 note=42 velocity=95 time=0
EXTRACT: note_on channel=9 note=42 velocity=95 time=0
EXTRACT: note_on channel=9 note=35 velocity=95 time=0
EXTRACT: note_off channel=11 note=54 velocity=95 time=0.25
EXTRACT: note_on channel=11 note=54 velocity=95 time=0
EXTRACT: note_off channel=4 note=66 velocity=95 time=0
EXTRACT: note_off channel=4 note=63 velocity=95 time=0
EXTRACT: note_off channel=4 note=61 velocity=95 time=0
EXTRACT: note_off channel=4 note=58 velocity=95 time=0
EXTRACT: note_off channel=6 note=42 velocity=111 time=0
EXTRACT: note_on channel=6 note=39 velocity=111 time=0
EXTRACT: note_off channel=9 note=42 velocity=95 time=0
EXTRACT: note_off channel=9 note=35 velocity=95 time=0
EXTRACT: note_on channel=9 note=42 velocity=95 time=0
EXTRACT: note_off channel=11 note=54 velocity=95 time=0.125
EXTRACT: note_on channel=11 note=54 velocity=95 time=0
EXTRACT: note_off channel=11 note=54 velocity=95 time=0.125
EXTRACT: note_on channel=11 note=51 velocity=95 time=0
EXTRACT: note_off channel=8 note=66 velocity=95 time=0
EXTRACT: note_off channel=6 note=39 velocity=111 time=0
EXTRACT: note_on channel=6 note=37 velocity=111 time=0
EXTRACT: note_off channel=9 note=42 velocity=95 time=0
EXTRACT: note_on channel=9 note=42 velocity=95 time=0
EXTRACT: note_on channel=9 note=38 velocity=95 time=0
EXTRACT: note_off channel=11 note=51 velocity=95 time=0.25
EXTRACT: note_on channel=11 note=49 velocity=95 time=0
EXTRACT: note_on channel=4 note=66 velocity=95 time=0
EXTRACT: note_on channel=4 note=63 velocity=95 time=0
EXTRACT: note_on channel=4 note=61 velocity=95 time=0
EXTRACT: note_on channel=4 note=58 velocity=95 time=0
EXTRACT: note_off channel=6 note=37 velocity=111 time=0
EXTRACT: note_on channel=6 note=42 velocity=111 time=0
EXTRACT: note_off channel=9 note=42 velocity=95 time=0
EXTRACT: note_off channel=9 note=38 velocity=95 time=0
EXTRACT: note_on channel=9 note=42 velocity=95 time=0
EXTRACT: note_off channel=11 note=49 velocity=95 time=0.125
EXTRACT: note_on channel=11 note=51 velocity=70 time=0
EXTRACT: note_on channel=0 note=68 velocity=127 time=0.125
EXTRACT: note_off channel=11 note=51 velocity=70 time=0
EXTRACT: note_on channel=11 note=54 velocity=95 time=0
EXTRACT: note_off channel=4 note=66 velocity=95 time=0
EXTRACT: note_off channel=4 note=63 velocity=95 time=0
EXTRACT: note_off channel=4 note=61 velocity=95 time=0
EXTRACT: note_off channel=4 note=58 velocity=95 time=0
EXTRACT: note_off channel=6 note=42 velocity=111 time=0
EXTRACT: note_on channel=6 note=42 velocity=111 time=0
EXTRACT: note_off channel=9 note=42 velocity=95 time=0
EXTRACT: note_on channel=9 note=42 velocity=95 time=0
EXTRACT: note_on channel=9 note=35 velocity=95 time=0
EXTRACT: note_off channel=11 note=54 velocity=95 time=0.125
EXTRACT: note_on channel=11 note=54 velocity=95 time=0
EXTRACT: note_off channel=11 note=54 velocity=95 time=0.125
EXTRACT: note_on channel=11 note=51 velocity=95 time=0
EXTRACT: note_off channel=6 note=42 velocity=111 time=0
EXTRACT: note_on channel=6 note=39 velocity=111 time=0
EXTRACT: note_off channel=9 note=42 velocity=95 time=0
EXTRACT: note_off channel=9 note=35 velocity=95 time=0
EXTRACT: note_on channel=9 note=42 velocity=95 time=0
EXTRACT: note_off channel=0 note=68 velocity=127 time=0.25
EXTRACT: note_on channel=0 note=68 velocity=127 time=0
EXTRACT: note_off channel=11 note=51 velocity=95 time=0
EXTRACT: note_on channel=11 note=49 velocity=95 time=0
EXTRACT: note_off channel=6 note=39 velocity=111 time=0
EXTRACT: note_on channel=6 note=37 velocity=111 time=0
EXTRACT: note_off channel=9 note=42 velocity=95 time=0
EXTRACT: note_on channel=9 note=42 velocity=95 time=0
EXTRACT: note_on channel=9 note=38 velocity=95 time=0
EXTRACT: note_off channel=0 note=68 velocity=127 time=0.25
EXTRACT: note_on channel=0 note=66 velocity=127 time=0
EXTRACT: note_off channel=11 note=49 velocity=95 time=0
EXTRACT: note_on channel=11 note=51 velocity=95 time=0
EXTRACT: note_off channel=6 note=37 velocity=111 time=0
EXTRACT: note_on channel=6 note=39 velocity=111 time=0
EXTRACT: note_off channel=9 note=42 velocity=95 time=0
EXTRACT: note_off channel=9 note=38 velocity=95 time=0
EXTRACT: note_on channel=9 note=42 velocity=95 time=0
EXTRACT: note_off channel=0 note=66 velocity=127 time=0.25
EXTRACT: note_on channel=0 note=68 velocity=127 time=0
EXTRACT: note_off channel=11 note=51 velocity=95 time=0
EXTRACT: note_on channel=11 note=54 velocity=95 time=0
EXTRACT: note_off channel=6 note=39 velocity=111 time=0
EXTRACT: note_on channel=6 note=42 velocity=111 time=0
EXTRACT: note_off channel=9 note=42 velocity=95 time=0
EXTRACT: note_on channel=9 note=42 velocity=95 time=0
EXTRACT: note_on channel=9 note=35 velocity=95 time=0
EXTRACT: note_off channel=0 note=68 velocity=127 time=0.25
EXTRACT: note_on channel=0 note=68 velocity=127 time=0
EXTRACT: note_off channel=11 note=54 velocity=95 time=0
EXTRACT: note_on channel=11 note=54 velocity=95 time=0
EXTRACT: note_on channel=4 note=66 velocity=95 time=0
EXTRACT: note_on channel=4 note=63 velocity=95 time=0
EXTRACT: note_on channel=4 note=61 velocity=95 time=0
EXTRACT: note_on channel=4 note=58 velocity=95 time=0
EXTRACT: note_off channel=6 note=42 velocity=111 time=0
EXTRACT: note_on channel=6 note=39 velocity=111 time=0
EXTRACT: note_off channel=9 note=42 velocity=95 time=0
EXTRACT: note_off channel=9 note=35 velocity=95 time=0
EXTRACT: note_on channel=9 note=42 velocity=95 time=0
EXTRACT: note_off channel=11 note=54 velocity=95 time=0.125
EXTRACT: note_on channel=11 note=54 velocity=95 time=0
EXTRACT: note_off channel=0 note=68 velocity=127 time=0.125
EXTRACT: note_on channel=0 note=73 velocity=127 time=0
EXTRACT: note_off channel=11 note=54 velocity=95 time=0
EXTRACT: note_on channel=11 note=51 velocity=95 time=0
EXTRACT: note_off channel=4 note=66 velocity=95 time=0
EXTRACT: note_off channel=4 note=63 velocity=95 time=0
EXTRACT: note_off channel=4 note=61 velocity=95 time=0
EXTRACT: note_off channel=4 note=58 velocity=95 time=0
EXTRACT: note_off channel=6 note=39 velocity=111 time=0
EXTRACT: note_on channel=6 note=37 velocity=111 time=0
EXTRACT: note_off channel=9 note=42 velocity=95 time=0
EXTRACT: note_on channel=9 note=42 velocity=95 time=0
EXTRACT: note_on channel=9 note=38 velocity=95 time=0
EXTRACT: note_off channel=11 note=51 velocity=95 time=0.25
EXTRACT: note_on channel=11 note=49 velocity=95 time=0
EXTRACT: note_off channel=6 note=37 velocity=111 time=0
EXTRACT: note_on channel=6 note=42 velocity=111 time=0
EXTRACT: note_off channel=9 note=42 velocity=95 time=0
EXTRACT: note_off channel=9 note=38 velocity=95 time=0
EXTRACT: note_on channel=9 note=42 velocity=95 time=0
EXTRACT: note_off channel=11 note=49 velocity=95 time=0.125
EXTRACT: note_on channel=11 note=51 velocity=70 time=0
EXTRACT: note_off channel=0 note=73 velocity=127 time=0.125
EXTRACT: note_on channel=1 note=70 velocity=127 time=0
EXTRACT: note_off channel=11 note=51 velocity=70 time=0
EXTRACT: note_on channel=11 note=54 velocity=95 time=0
EXTRACT: note_on channel=4 note=66 velocity=95 time=0
EXTRACT: note_on channel=4 note=63 velocity=95 time=0
EXTRACT: note_on channel=4 note=61 velocity=95 time=0
EXTRACT: note_on channel=4 note=58 velocity=95 time=0
EXTRACT: note_on channel=8 note=61 velocity=95 time=0
EXTRACT: note_off channel=6 note=42 velocity=111 time=0
EXTRACT: note_on channel=6 note=42 velocity=111 time=0
EXTRACT: note_off channel=9 note=42 velocity=95 time=0
EXTRACT: note_on channel=9 note=42 velocity=95 time=0
EXTRACT: note_on channel=9 note=35 velocity=95 time=0
EXTRACT: note_off channel=11 note=54 velocity=95 time=0.125
EXTRACT: note_on channel=11 note=54 velocity=95 time=0
EXTRACT: note_off channel=11 note=54 velocity=95 time=0.125
EXTRACT: note_on channel=11 note=51 velocity=95 time=0
EXTRACT: note_off channel=4 note=66 velocity=95 time=0
EXTRACT: note_off channel=4 note=63 velocity=95 time=0
EXTRACT: note_off channel=4 note=61 velocity=95 time=0
EXTRACT: note_off channel=4 note=58 velocity=95 time=0
EXTRACT: note_off channel=6 note=42 velocity=111 time=0
EXTRACT: note_on channel=6 note=39 velocity=111 time=0
EXTRACT: note_off channel=9 note=42 velocity=95 time=0
EXTRACT: note_off channel=9 note=35 velocity=95 time=0
EXTRACT: note_on channel=9 note=42 velocity=95 time=0
EXTRACT: note_off channel=11 note=51 velocity=95 time=0.25
EXTRACT: note_on channel=11 note=49 velocity=95 time=0
EXTRACT: note_off channel=8 note=61 velocity=95 time=0
EXTRACT: note_on channel=8 note=73 velocity=95 time=0
EXTRACT: note_off channel=6 note=39 velocity=111 time=0
EXTRACT: note_on channel=6 note=37 velocity=111 time=0
EXTRACT: note_off channel=9 note=42 velocity=95 time=0
EXTRACT: note_on channel=9 note=42 velocity=95 time=0
EXTRACT: note_on channel=9 note=38 velocity=95 time=0
EXTRACT: note_off channel=11 note=49 velocity=95 time=0.25
EXTRACT: note_on channel=11 note=51 velocity=95 time=0
EXTRACT: note_off channel=6 note=37 velocity=111 time=0
EXTRACT: note_on channel=6 note=39 velocity=111 time=0
EXTRACT: note_off channel=9 note=42 velocity=95 time=0
EXTRACT: note_off channel=9 note=38 velocity=95 time=0
EXTRACT: note_on channel=9 note=42 velocity=95 time=0
EXTRACT: note_off channel=1 note=70 velocity=127 time=0.25
EXTRACT: note_off channel=11 note=51 velocity=95 time=0
EXTRACT: note_on channel=11 note=54 velocity=95 time=0
EXTRACT: note_on channel=4 note=66 velocity=95 time=0
EXTRACT: note_on channel=4 note=63 velocity=95 time=0
EXTRACT: note_on channel=4 note=61 velocity=95 time=0
EXTRACT: note_on channel=4 note=58 velocity=95 time=0
EXTRACT: note_off channel=8 note=73 velocity=95 time=0
EXTRACT: note_on channel=8 note=70 velocity=95 time=0
EXTRACT: note_off channel=6 note=39 velocity=111 time=0
EXTRACT: note_on channel=6 note=42 velocity=111 time=0
EXTRACT: note_off channel=9 note=42 velocity=95 time=0
EXTRACT: note_on channel=9 note=42 velocity=95 time=0
EXTRACT: note_on channel=9 note=35 velocity=95 time=0
EXTRACT: note_off channel=11 note=54 velocity=95 time=0.25
EXTRACT: note_on channel=11 note=54 velocity=95 time=0
EXTRACT: note_off channel=4 note=66 velocity=95 time=0
EXTRACT: note_off channel=4 note=63 velocity=95 time=0
EXTRACT: note_off channel=4 note=61 velocity=95 time=0
EXTRACT: note_off channel=4 note=58 velocity=95 time=0
EXTRACT: note_off channel=6 note=42 velocity=111 time=0
EXTRACT: note_on channel=6 note=39 velocity=111 time=0
EXTRACT: note_off channel=9 note=42 velocity=95 time=0
EXTRACT: note_off channel=9 note=35 velocity=95 time=0
EXTRACT: note_on channel=9 note=42 velocity=95 time=0
EXTRACT: note_off channel=11 note=54 velocity=95 time=0.125
EXTRACT: note_on channel=11 note=54 velocity=95 time=0
EXTRACT: note_off channel=11 note=54 velocity=95 time=0.125
EXTRACT: note_on channel=11 note=51 velocity=95 time=0
EXTRACT: note_off channel=8 note=70 velocity=95 time=0
EXTRACT: note_on channel=8 note=66 velocity=95 time=0
EXTRACT: note_off channel=6 note=39 velocity=111 time=0
EXTRACT: note_on channel=6 note=37 velocity=111 time=0
EXTRACT: note_off channel=9 note=42 velocity=95 time=0
EXTRACT: note_on channel=9 note=42 velocity=95 time=0
EXTRACT: note_on channel=9 note=38 velocity=95 time=0
EXTRACT: note_off channel=11 note=51 velocity=95 time=0.25
EXTRACT: note_on channel=11 note=49 velocity=95 time=0
EXTRACT: note_on channel=4 note=66 velocity=95 time=0
EXTRACT: note_on channel=4 note=63 velocity=95 time=0
EXTRACT: note_on channel=4 note=61 velocity=95 time=0
EXTRACT: note_on channel=4 note=58 velocity=95 time=0
EXTRACT: note_off channel=6 note=37 velocity=111 time=0
EXTRACT: note_on channel=6 note=42 velocity=111 time=0
EXTRACT: note_off channel=9 note=42 velocity=95 time=0
EXTRACT: note_off channel=9 note=38 velocity=95 time=0
EXTRACT: note_on channel=9 note=42 velocity=95 time=0
EXTRACT: note_off channel=11 note=49 velocity=95 time=0.125
EXTRACT: note_on channel=11 note=51 velocity=70 time=0
EXTRACT: note_off channel=11 note=51 velocity=70 time=0.125
EXTRACT: note_on channel=11 note=54 velocity=95 time=0
EXTRACT: note_off channel=4 note=66 velocity=95 time=0
EXTRACT: note_off channel=4 note=63 velocity=95 time=0
EXTRACT: note_off channel=4 note=61 velocity=95 time=0
EXTRACT: note_off channel=4 note=58 velocity=95 time=0
EXTRACT: note_off channel=8 note=66 velocity=95 time=0
EXTRACT: note_on channel=8 note=68 velocity=95 time=0
EXTRACT: note_off channel=6 note=42 velocity=111 time=0
EXTRACT: note_on channel=6 note=42 velocity=111 time=0
EXTRACT: note_off channel=9 note=42 velocity=95 time=0
EXTRACT: note_on channel=9 note=42 velocity=95 time=0
EXTRACT: note_on channel=9 note=35 velocity=95 time=0
EXTRACT: note_off channel=11 note=54 velocity=95 time=0.125
EXTRACT: note_on channel=11 note=54 velocity=95 time=0
EXTRACT: note_off channel=11 note=54 velocity=95 time=0.125
EXTRACT: note_on channel=11 note=51 velocity=95 time=0
EXTRACT: note_off channel=6 note=42 velocity=111 time=0
EXTRACT: note_on channel=6 note=39 velocity=111 time=0
EXTRACT: note_off channel=9 note=42 velocity=95 time=0
EXTRACT: note_off channel=9 note=35 velocity=95 time=0
EXTRACT: note_on channel=9 note=42 velocity=95 time=0
EXTRACT: note_on channel=0 note=61 velocity=127 time=0.25
EXTRACT: note_off channel=11 note=51 velocity=95 time=0
EXTRACT: note_on channel=11 note=49 velocity=95 time=0
EXTRACT: note_off channel=8 note=68 velocity=95 time=0
EXTRACT: note_off channel=6 note=39 velocity=111 time=0
EXTRACT: note_on channel=6 note=37 velocity=111 time=0
EXTRACT: note_off channel=9 note=42 velocity=95 time=0
EXTRACT: note_on channel=9 note=42 velocity=95 time=0
EXTRACT: note_on channel=9 note=38 velocity=95 time=0
EXTRACT: note_off channel=0 note=61 velocity=127 time=0.25
EXTRACT: note_on channel=0 note=63 velocity=127 time=0
EXTRACT: note_off channel=11 note=49 velocity=95 time=0
EXTRACT: note_on channel=11 note=51 velocity=95 time=0
EXTRACT: note_off channel=6 note=37 velocity=111 time=0
EXTRACT: note_on channel=6 note=39 velocity=111 time=0
EXTRACT: note_off channel=9 note=42 velocity=95 time=0
EXTRACT: note_off channel=9 note=38 velocity=95 time=0
EXTRACT: note_on channel=9 note=42 velocity=95 time=0
EXTRACT: note_off channel=9 note=42 velocity=95 time=0.125
EXTRACT: note_on channel=9 note=38 velocity=95 time=0
EXTRACT: note_off channel=0 note=63 velocity=127 time=0.125
EXTRACT: note_on channel=0 note=70 velocity=127 time=0
EXTRACT: note_off channel=11 note=51 velocity=95 time=0
EXTRACT: note_on channel=11 note=56 velocity=95 time=0
EXTRACT: note_on channel=4 note=68 velocity=95 time=0
EXTRACT: note_on channel=4 note=66 velocity=95 time=0
EXTRACT: note_on channel=4 note=63 velocity=95 time=0
EXTRACT: note_on channel=4 note=59 velocity=95 time=0
EXTRACT: note_off channel=6 note=39 velocity=111 time=0
EXTRACT: note_on channel=6 note=44 velocity=111 time=0
EXTRACT: note_off channel=9 note=38 velocity=95 time=0
EXTRACT: note_on channel=9 note=49 velocity=95 time=0
EXTRACT: note_on channel=9 note=35 velocity=95 time=0
EXTRACT: note_off channel=11 note=56 velocity=95 time=0.25
EXTRACT: note_on channel=11 note=56 velocity=95 time=0
EXTRACT: note_off channel=4 note=68 velocity=95 time=0
EXTRACT: note_off channel=4 note=66 velocity=95 time=0
EXTRACT: note_off channel=4 note=63 velocity=95 time=0
EXTRACT: note_off channel=4 note=59 velocity=95 time=0
EXTRACT: note_off channel=6 note=44 velocity=111 time=0
EXTRACT: note_on channel=6 note=44 velocity=111 time=0
EXTRACT: note_off channel=11 note=56 velocity=95 time=0.125
EXTRACT: note_on channel=11 note=56 velocity=95 time=0
EXTRACT: note_off channel=0 note=70 velocity=127 time=0.125
EXTRACT: note_on channel=0 note=68 velocity=102 time=0
EXTRACT: note_off channel=11 note=56 velocity=95 time=0
EXTRACT: note_on channel=11 note=56 velocity=95 time=0
EXTRACT: note_off channel=6 note=44 velocity=111 time=0
EXTRACT: note_on channel=6 note=44 velocity=111 time=0
EXTRACT: note_off channel=9 note=49 velocity=95 time=0
EXTRACT: note_off channel=9 note=35 velocity=95 time=0
EXTRACT: note_on channel=9 note=42 velocity=95 time=0
EXTRACT: note_on channel=9 note=38 velocity=95 time=0
EXTRACT: note_off channel=11 note=56 velocity=95 time=0.25
EXTRACT: note_on channel=11 note=56 velocity=95 time=0
EXTRACT: note_on channel=4 note=68 velocity=95 time=0
EXTRACT: note_on channel=4 note=66 velocity=95 time=0
EXTRACT: note_on channel=4 note=63 velocity=95 time=0
EXTRACT: note_on channel=4 note=59 velocity=95 time=0
EXTRACT: note_off channel=6 note=44 velocity=111 time=0
EXTRACT: note_on channel=6 note=44 velocity=111 time=0
EXTRACT: note_off channel=9 note=42 velocity=95 time=0
EXTRACT: note_off channel=9 note=38 velocity=95 time=0
EXTRACT: note_on channel=9 note=42 velocity=95 time=0
EXTRACT: note_off channel=11 note=56 velocity=95 time=0.125
EXTRACT: note_on channel=11 note=56 velocity=95 time=0
EXTRACT: note_off channel=0 note=68 velocity=102 time=0.125
EXTRACT: note_on channel=0 note=66 velocity=102 time=0
EXTRACT: note_off channel=11 note=56 velocity=95 time=0
EXTRACT: note_on channel=11 note=56 velocity=95 time=0
EXTRACT: note_off channel=4 note=68 velocity=95 time=0
EXTRACT: note_off channel=4 note=66 velocity=95 time=0
EXTRACT: note_off channel=4 note=63 velocity=95 time=0
EXTRACT: note_off channel=4 note=59 velocity=95 time=0
EXTRACT: note_off channel=6 note=44 velocity=111 time=0
EXTRACT: note_on channel=6 note=44 velocity=111 time=0
EXTRACT: note_off channel=9 note=42 velocity=95 time=0
EXTRACT: note_on channel=9 note=42 velocity=95 time=0
EXTRACT: note_on channel=9 note=35 velocity=95 time=0
EXTRACT: note_off channel=11 note=56 velocity=95 time=0.125
EXTRACT: note_on channel=11 note=56 velocity=95 time=0
EXTRACT: note_off channel=0 note=66 velocity=102 time=0.125
EXTRACT: note_on channel=0 note=68 velocity=102 time=0
EXTRACT: note_off channel=11 note=56 velocity=95 time=0
EXTRACT: note_on channel=11 note=56 velocity=95 time=0
EXTRACT: note_off channel=6 note=44 velocity=111 time=0
EXTRACT: note_on channel=6 note=44 velocity=111 time=0
EXTRACT: note_off channel=9 note=42 velocity=95 time=0
EXTRACT: note_off channel=9 note=35 velocity=95 time=0
EXTRACT: note_on channel=9 note=42 velocity=95 time=0
EXTRACT: note_off channel=11 note=56 velocity=95 time=0.25
EXTRACT: note_on channel=11 note=56 velocity=95 time=0
EXTRACT: note_off channel=6 note=44 velocity=111 time=0
EXTRACT: note_on channel=6 note=39 velocity=111 time=0
EXTRACT: note_off channel=9 note=42 velocity=95 time=0
EXTRACT: note_on channel=9 note=42 velocity=95 time=0
EXTRACT: note_on channel=9 note=38 velocity=95 time=0
EXTRACT: note_off channel=0 note=68 velocity=102 time=0.25
EXTRACT: note_on channel=0 note=61 velocity=127 time=0
EXTRACT: note_off channel=11 note=56 velocity=95 time=0
EXTRACT: note_on channel=11 note=56 velocity=95 time=0
EXTRACT: note_off channel=6 note=39 velocity=111 time=0
EXTRACT: note_on channel=6 note=44 velocity=111 time=0
EXTRACT: note_off channel=9 note=42 velocity=95 time=0
EXTRACT: note_off channel=9 note=38 velocity=95 time=0
EXTRACT: note_on channel=9 note=42 velocity=95 time=0
EXTRACT: note_off channel=0 note=61 velocity=127 time=0.25
EXTRACT: note_on channel=0 note=63 velocity=102 time=0
EXTRACT: note_off channel=11 note=56 velocity=95 time=0
EXTRACT: note_on channel=11 note=56 velocity=95 time=0
EXTRACT: note_on channel=4 note=68 velocity=95 time=0
EXTRACT: note_on channel=4 note=66 velocity=95 time=0
EXTRACT: note_on channel=4 note=63 velocity=95 time=0
EXTRACT: note_on channel=4 note=59 velocity=95 time=0
EXTRACT: note_off channel=6 note=44 velocity=111 time=0
EXTRACT: note_on channel=6 note=32 velocity=111 time=0
EXTRACT: note_off channel=9 note=42 velocity=95 time=0
EXTRACT: note_on channel=9 note=42 velocity=95 time=0
EXTRACT: note_on channel=9 note=35 velocity=95 time=0
EXTRACT: note_off channel=11 note=56 velocity=95 time=0.25
EXTRACT: note_on channel=11 note=56 velocity=95 time=0
EXTRACT: note_off channel=4 note=68 velocity=95 time=0
EXTRACT: note_off channel=4 note=66 velocity=95 time=0
EXTRACT: note_off channel=4 note=63 velocity=95 time=0
EXTRACT: note_off channel=4 note=59 velocity=95 time=0
EXTRACT: note_off channel=6 note=32 velocity=111 time=0
EXTRACT: note_on channel=6 note=32 velocity=111 time=0
EXTRACT: note_off channel=9 note=42 velocity=95 time=0
EXTRACT: note_off channel=9 note=35 velocity=95 time=0
EXTRACT: note_on channel=9 note=42 velocity=95 time=0
EXTRACT: note_off channel=11 note=56 velocity=95 time=0.125
EXTRACT: note_on channel=11 note=56 velocity=95 time=0
EXTRACT: note_off channel=0 note=63 velocity=102 time=0.125
EXTRACT: note_off channel=11 note=56 velocity=95 time=0
EXTRACT: note_on channel=11 note=56 velocity=95 time=0
EXTRACT: note_on channel=8 note=61 velocity=95 time=0
EXTRACT: note_off channel=6 note=32 velocity=111 time=0
EXTRACT: note_on channel=6 note=32 velocity=111 time=0
EXTRACT: note_off channel=9 note=42 velocity=95 time=0
EXTRACT: note_on channel=9 note=42 velocity=95 time=0
EXTRACT: note_on channel=9 note=38 velocity=95 time=0
EXTRACT: note_off channel=11 note=56 velocity=95 time=0.25
EXTRACT: note_on channel=11 note=56 velocity=95 time=0
EXTRACT: note_on channel=4 note=68 velocity=95 time=0
EXTRACT: note_on channel=4 note=66 velocity=95 time=0
EXTRACT: note_on channel=4 note=63 velocity=95 time=0
EXTRACT: note_on channel=4 note=59 velocity=95 time=0
EXTRACT: note_off channel=6 note=32 velocity=111 time=0
EXTRACT: note_on channel=6 note=32 velocity=111 time=0
EXTRACT: note_off channel=9 note=42 velocity=95 time=0
EXTRACT: note_off channel=9 note=38 velocity=95 time=0
EXTRACT: note_on channel=9 note=42 velocity=95 time=0
EXTRACT: note_off channel=11 note=56 velocity=95 time=0.125
EXTRACT: note_on channel=11 note=56 velocity=95 time=0
EXTRACT: note_off channel=11 note=56 velocity=95 time=0.125
EXTRACT: note_on channel=11 note=56 velocity=95 time=0
EXTRACT: note_off channel=4 note=68 velocity=95 time=0
EXTRACT: note_off channel=4 note=66 velocity=95 time=0
EXTRACT: note_off channel=4 note=63 velocity=95 time=0
EXTRACT: note_off channel=4 note=59 velocity=95 time=0
EXTRACT: note_off channel=8 note=61 velocity=95 time=0
EXTRACT: note_on channel=8 note=73 velocity=95 time=0
EXTRACT: note_off channel=6 note=32 velocity=111 time=0
EXTRACT: note_on channel=6 note=32 velocity=111 time=0
EXTRACT: note_off channel=9 note=42 velocity=95 time=0
EXTRACT: note_on channel=9 note=38 velocity=95 time=0
EXTRACT: note_off channel=11 note=56 velocity=95 time=0.125
EXTRACT: note_on channel=11 note=56 velocity=95 time=0
EXTRACT: note_off channel=9 note=38 velocity=95 time=0
EXTRACT: note_on channel=9 note=38 velocity=95 time=0
EXTRACT: note_off channel=11 note=56 velocity=95 time=0.125
EXTRACT: note_on channel=11 note=56 velocity=95 time=0
EXTRACT: note_off channel=6 note=32 velocity=111 time=0
EXTRACT: note_on channel=6 note=32 velocity=111 time=0
EXTRACT: note_off channel=9 note=38 velocity=95 time=0
EXTRACT: note_on channel=9 note=38 velocity=95 time=0
EXTRACT: note_on channel=0 note=66 velocity=127 time=0.25
EXTRACT: note_off channel=11 note=56 velocity=95 time=0
EXTRACT: note_on channel=11 note=56 velocity=95 time=0
EXTRACT: note_off channel=8 note=73 velocity=95 time=0
EXTRACT: note_on channel=8 note=70 velocity=95 time=0
EXTRACT: note_off channel=6 note=32 velocity=111 time=0
EXTRACT: note_on channel=6 note=32 velocity=111 time=0
EXTRACT: note_off channel=9 note=38 velocity=95 time=0
EXTRACT: note_on channel=9 note=38 velocity=95 time=0
EXTRACT: note_off channel=0 note=66 velocity=127 time=0.25
EXTRACT: note_on channel=0 note=68 velocity=127 time=0
EXTRACT: note_off channel=11 note=56 velocity=95 time=0
EXTRACT: note_on channel=11 note=56 velocity=95 time=0
EXTRACT: note_off channel=6 note=32 velocity=111 time=0
EXTRACT: note_on channel=6 note=37 velocity=111 time=0
EXTRACT: note_off channel=9 note=38 velocity=95 time=0
EXTRACT: note_on channel=9 note=46 velocity=95 time=0
EXTRACT: note_off channel=0 note=68 velocity=127 time=0.25
EXTRACT: note_on channel=0 note=66 velocity=127 time=0
EXTRACT: note_off channel=11 note=56 velocity=95 time=0
EXTRACT: note_on channel=11 note=54 velocity=95 time=0
EXTRACT: note_off channel=8 note=70 velocity=95 time=0
EXTRACT: note_off channel=6 note=37 velocity=111 time=0
EXTRACT: note_on channel=6 note=42 velocity=111 time=0
EXTRACT: note_off channel=9 note=46 velocity=95 time=0
EXTRACT: note_on channel=9 note=42 velocity=95 time=0
EXTRACT: note_on channel=9 note=35 velocity=95 time=0
EXTRACT: note_off channel=11 note=54 velocity=95 time=0.25
EXTRACT: note_on channel=11 note=54 velocity=95 time=0
EXTRACT: note_on channel=4 note=66 velocity=95 time=0
EXTRACT: note_on channel=4 note=63 velocity=95 time=0
EXTRACT: note_on channel=4 note=61 velocity=95 time=0
EXTRACT: note_on channel=4 note=58 velocity=95 time=0
EXTRACT: note_off channel=6 note=42 velocity=111 time=0
EXTRACT: note_on channel=6 note=39 velocity=111 time=0
EXTRACT: note_off channel=9 note=42 velocity=95 time=0
EXTRACT: note_off channel=9 note=35 velocity=95 time=0
EXTRACT: note_on channel=9 note=42 velocity=95 time=0
EXTRACT: note_off channel=11 note=54 velocity=95 time=0.125
EXTRACT: note_on channel=11 note=54 velocity=95 time=0
EXTRACT: note_off channel=0 note=66 velocity=127 time=0.125
EXTRACT: note_on channel=0 note=63 velocity=127 time=0
EXTRACT: note_off channel=11 note=54 velocity=95 time=0
EXTRACT: note_on channel=11 note=51 velocity=95 time=0
EXTRACT: note_off channel=4 note=66 velocity=95 time=0
EXTRACT: note_off channel=4 note=63 velocity=95 time=0
EXTRACT: note_off channel=4 note=61 velocity=95 time=0
EXTRACT: note_off channel=4 note=58 velocity=95 time=0
EXTRACT: note_off channel=6 note=39 velocity=111 time=0
EXTRACT: note_on channel=6 note=37 velocity=111 time=0
EXTRACT: note_off channel=9 note=42 velocity=95 time=0
EXTRACT: note_on channel=9 note=49 velocity=95 time=0
EXTRACT: note_on channel=9 note=38 velocity=95 time=0
EXTRACT: note_off channel=11 note=51 velocity=95 time=0.25
EXTRACT: note_on channel=11 note=49 velocity=95 time=0
EXTRACT: note_off channel=6 note=37 velocity=111 time=0
EXTRACT: note_on channel=6 note=42 velocity=111 time=0
EXTRACT: note_off channel=11 note=49 velocity=95 time=0.125
EXTRACT: note_on channel=11 note=51 velocity=70 time=0
EXTRACT: note_off channel=0 note=63 velocity=127 time=0.125
EXTRACT: note_off channel=11 note=51 velocity=70 time=0
EXTRACT: note_on channel=11 note=54 velocity=95 time=0
EXTRACT: note_on channel=4 note=66 velocity=95 time=0
EXTRACT: note_on channel=4 note=63 velocity=95 time=0
EXTRACT: note_on channel=4 note=61 velocity=95 time=0
EXTRACT: note_on channel=4 note=58 velocity=95 time=0
EXTRACT: note_off channel=6 note=42 velocity=111 time=0
EXTRACT: note_on channel=6 note=42 velocity=111 time=0
EXTRACT: note_off channel=9 note=49 velocity=95 time=0
EXTRACT: note_off channel=9 note=38 velocity=95 time=0
EXTRACT: note_on channel=9 note=42 velocity=95 time=0
EXTRACT: note_on channel=9 note=35 velocity=95 time=0
EXTRACT: note_off channel=11 note=54 velocity=95 time=0.125
EXTRACT: note_on channel=11 note=54 velocity=95 time=0
EXTRACT: note_off channel=11 note=54 velocity=95 time=0.125
EXTRACT: note_on channel=11 note=51 velocity=95 time=0
EXTRACT: note_off channel=4 note=66 velocity=95 time=0
EXTRACT: note_off channel=4 note=63 velocity=95 time=0
EXTRACT: note_off channel=4 note=61 velocity=95 time=0
EXTRACT: note_off channel=4 note=58 velocity=95 time=0
EXTRACT: note_off channel=6 note=42 velocity=111 time=0
EXTRACT: note_on channel=6 note=39 velocity=111 time=0
EXTRACT: note_off channel=9 note=42 velocity=95 time=0
EXTRACT: note_off channel=9 note=35 velocity=95 time=0
EXTRACT: note_on channel=9 note=42 velocity=95 time=0
EXTRACT: note_off channel=11 note=51 velocity=95 time=0.25
EXTRACT: note_on channel=11 note=49 velocity=95 time=0
EXTRACT: note_off channel=6 note=39 velocity=111 time=0
EXTRACT: note_on channel=6 note=37 velocity=111 time=0
EXTRACT: note_off channel=9 note=42 velocity=95 time=0
EXTRACT: note_on channel=9 note=42 velocity=95 time=0
EXTRACT: note_on channel=9 note=38 velocity=95 time=0
EXTRACT: note_off channel=11 note=49 velocity=95 time=0.25
EXTRACT: note_on channel=11 note=51 velocity=95 time=0
EXTRACT: note_off channel=6 note=37 velocity=111 time=0
EXTRACT: note_on channel=6 note=39 velocity=111 time=0
EXTRACT: note_off channel=9 note=42 velocity=95 time=0
EXTRACT: note_off channel=9 note=38 velocity=95 time=0
EXTRACT: note_on channel=9 note=42 velocity=95 time=0
EXTRACT: note_on channel=0 note=70 velocity=127 time=0.25
EXTRACT: note_off channel=11 note=51 velocity=95 time=0
EXTRACT: note_on channel=11 note=54 velocity=95 time=0
EXTRACT: note_on channel=4 note=66 velocity=95 time=0
EXTRACT: note_on channel=4 note=63 velocity=95 time=0
EXTRACT: note_on channel=4 note=61 velocity=95 time=0
EXTRACT: note_on channel=4 note=58 velocity=95 time=0
EXTRACT: note_off channel=6 note=39 velocity=111 time=0
EXTRACT: note_on channel=6 note=42 velocity=111 time=0
EXTRACT: note_off channel=9 note=42 velocity=95 time=0
EXTRACT: note_on channel=9 note=42 velocity=95 time=0
EXTRACT: note_on channel=9 note=35 velocity=95 time=0
EXTRACT: note_off channel=0 note=70 velocity=127 time=0.25
EXTRACT: note_on channel=0 note=66 velocity=127 time=0
EXTRACT: note_off channel=11 note=54 velocity=95 time=0
EXTRACT: note_on channel=11 note=54 velocity=95 time=0
EXTRACT: note_off channel=4 note=66 velocity=95 time=0
EXTRACT: note_off channel=4 note=63 velocity=95 time=0
EXTRACT: note_off channel=4 note=61 velocity=95 time=0
EXTRACT: note_off channel=4 note=58 velocity=95 time=0
EXTRACT: note_off channel=6 note=42 velocity=111 time=0
EXTRACT: note_on channel=6 note=39 velocity=111 time=0
EXTRACT: note_off channel=9 note=42 velocity=95 time=0
EXTRACT: note_off channel=9 note=35 velocity=95 time=0
EXTRACT: note_on channel=9 note=42 velocity=95 time=0
EXTRACT: note_off channel=11 note=54 velocity=95 time=0.125
EXTRACT: note_on channel=11 note=54 velocity=95 time=0
EXTRACT: note_off channel=0 note=66 velocity=127 time=0.125
EXTRACT: note_on channel=0 note=68 velocity=102 time=0
EXTRACT: note_off channel=11 note=54 velocity=95 time=0
EXTRACT: note_on channel=11 note=51 velocity=95 time=0
EXTRACT: note_off channel=6 note=39 velocity=111 time=0
EXTRACT: note_on channel=6 note=37 velocity=111 time=0
EXTRACT: note_off channel=9 note=42 velocity=95 time=0
EXTRACT: note_on channel=9 note=42 velocity=95 time=0
EXTRACT: note_on channel=9 note=38 velocity=95 time=0
EXTRACT: note_off channel=0 note=68 velocity=102 time=0.25
EXTRACT: note_on channel=0 note=66 velocity=127 time=0
EXTRACT: note_off channel=11 note=51 velocity=95 time=0
EXTRACT: note_on channel=11 note=49 velocity=95 time=0
EXTRACT: note_on channel=4 note=66 velocity=95 time=0
EXTRACT: note_on channel=4 note=63 velocity=95 time=0
EXTRACT: note_on channel=4 note=61 velocity=95 time=0
EXTRACT: note_on channel=4 note=58 velocity=95 time=0
EXTRACT: note_off channel=6 note=37 velocity=111 time=0
EXTRACT: note_on channel=6 note=42 velocity=111 time=0
EXTRACT: note_off channel=9 note=42 velocity=95 time=0
EXTRACT: note_off channel=9 note=38 velocity=95 time=0
EXTRACT: note_on channel=9 note=42 velocity=95 time=0
EXTRACT: note_off channel=11 note=49 velocity=95 time=0.125
EXTRACT: note_on channel=11 note=51 velocity=70 time=0
EXTRACT: note_off channel=11 note=51 velocity=70 time=0.125
EXTRACT: note_on channel=11 note=54 velocity=95 time=0
EXTRACT: note_off channel=4 note=66 velocity=95 time=0
EXTRACT: note_off channel=4 note=63 velocity=95 time=0
EXTRACT: note_off channel=4 note=61 velocity=95 time=0
EXTRACT: note_off channel=4 note=58 velocity=95 time=0
EXTRACT: note_off channel=6 note=42 velocity=111 time=0
EXTRACT: note_on channel=6 note=39 velocity=111 time=0
EXTRACT: note_off channel=9 note=42 velocity=95 time=0
EXTRACT: note_on channel=9 note=42 velocity=95 time=0
EXTRACT: note_on channel=9 note=35 velocity=95 time=0
EXTRACT: note_off channel=11 note=54 velocity=95 time=0.125
EXTRACT: note_on channel=11 note=54 velocity=95 time=0
EXTRACT: note_off channel=0 note=66 velocity=127 time=0.125
EXTRACT: note_on channel=0 note=61 velocity=127 time=0
EXTRACT: note_off channel=11 note=54 velocity=95 time=0
EXTRACT: note_on channel=11 note=51 velocity=95 time=0
EXTRACT: note_off channel=6 note=39 velocity=111 time=0
EXTRACT: note_on channel=6 note=37 velocity=111 time=0
EXTRACT: note_off channel=9 note=42 velocity=95 time=0
EXTRACT: note_off channel=9 note=35 velocity=95 time=0
EXTRACT: note_on channel=9 note=42 velocity=95 time=0
EXTRACT: note_off channel=0 note=61 velocity=127 time=0.125
EXTRACT: note_on channel=0 note=61 velocity=127 time=0
EXTRACT: note_off channel=0 note=61 velocity=127 time=0.125
EXTRACT: note_on channel=0 note=61 velocity=127 time=0
EXTRACT: note_off channel=11 note=51 velocity=95 time=0
EXTRACT: note_on channel=11 note=49 velocity=95 time=0
EXTRACT: note_off channel=6 note=37 velocity=111 time=0
EXTRACT: note_on channel=6 note=34 velocity=111 time=0
EXTRACT: note_off channel=9 note=42 velocity=95 time=0
EXTRACT: note_on channel=9 note=42 velocity=95 time=0
EXTRACT: note_on channel=9 note=38 velocity=95 time=0
EXTRACT: note_off channel=0 note=61 velocity=127 time=0.25
EXTRACT: note_on channel=0 note=61 velocity=127 time=0
EXTRACT: note_off channel=11 note=49 velocity=95 time=0
EXTRACT: note_on channel=11 note=51 velocity=95 time=0
EXTRACT: note_off channel=6 note=34 velocity=111 time=0
EXTRACT: note_on channel=6 note=37 velocity=111 time=0
EXTRACT: note_off channel=9 note=42 velocity=95 time=0
EXTRACT: note_off channel=9 note=38 velocity=95 time=0
EXTRACT: note_on channel=9 note=42 velocity=95 time=0
EXTRACT: note_off channel=0 note=61 velocity=127 time=0.25
EXTRACT: note_on channel=0 note=70 velocity=127 time=0
EXTRACT: note_on channel=2 note=66 velocity=95 time=0
EXTRACT: note_on channel=2 note=61 velocity=95 time=0
EXTRACT: note_on channel=2 note=58 velocity=95 time=0
EXTRACT: note_off channel=11 note=51 velocity=95 time=0
EXTRACT: note_on channel=4 note=66 velocity=95 time=0
EXTRACT: note_on channel=4 note=61 velocity=95 time=0
EXTRACT: note_on channel=4 note=58 velocity=95 time=0
EXTRACT: note_off channel=6 note=37 velocity=111 time=0
EXTRACT: note_on channel=6 note=42 velocity=111 time=0
EXTRACT: note_off channel=9 note=42 velocity=95 time=0
EXTRACT: note_on channel=9 note=42 velocity=95 time=0
EXTRACT: note_on channel=9 note=35 velocity=95 time=0
EXTRACT: note_off channel=2 note=66 velocity=95 time=0.25
EXTRACT: note_off channel=2 note=61 velocity=95 time=0
EXTRACT: note_off channel=2 note=58 velocity=95 time=0
EXTRACT: note_off channel=4 note=66 velocity=95 time=0
EXTRACT: note_off channel=4 note=61 velocity=95 time=0
EXTRACT: note_off channel=4 note=58 velocity=95 time=0
EXTRACT: note_off channel=6 note=42 velocity=111 time=0
EXTRACT: note_on channel=6 note=39 velocity=111 time=0
EXTRACT: note_off channel=9 note=42 velocity=95 time=0
EXTRACT: note_off channel=9 note=35 velocity=95 time=0
EXTRACT: note_on channel=9 note=42 velocity=95 time=0
EXTRACT: note_off channel=0 note=70 velocity=127 time=0.25
EXTRACT: note_on channel=0 note=70 velocity=127 time=0
EXTRACT: note_off channel=6 note=39 velocity=111 time=0
EXTRACT: note_on channel=6 note=37 velocity=111 time=0
EXTRACT: note_off channel=9 note=42 velocity=95 time=0
EXTRACT: note_on channel=9 note=42 velocity=95 time=0
EXTRACT: note_on channel=9 note=38 velocity=95 time=0
EXTRACT: note_off channel=0 note=70 velocity=127 time=0.25
EXTRACT: note_on channel=0 note=68 velocity=127 time=0
EXTRACT: note_on channel=2 note=66 velocity=95 time=0
EXTRACT: note_on channel=2 note=61 velocity=95 time=0
EXTRACT: note_on channel=2 note=58 velocity=95 time=0
EXTRACT: note_on channel=4 note=66 velocity=95 time=0
EXTRACT: note_on channel=4 note=61 velocity=95 time=0
EXTRACT: note_on channel=4 note=58 velocity=95 time=0
EXTRACT: note_off channel=6 note=37 velocity=111 time=0
EXTRACT: note_on channel=6 note=42 velocity=111 time=0
EXTRACT: note_off channel=9 note=42 velocity=95 time=0
EXTRACT: note_off channel=9 note=38 velocity=95 time=0
EXTRACT: note_on channel=9 note=42 velocity=95 time=0
EXTRACT: note_off channel=0 note=68 velocity=127 time=0.25
EXTRACT: note_on channel=0 note=66 velocity=102 time=0
EXTRACT: note_off channel=2 note=66 velocity=95 time=0
EXTRACT: note_off channel=2 note=61 velocity=95 time=0
EXTRACT: note_off channel=2 note=58 velocity=95 time=0
EXTRACT: note_off channel=4 note=66 velocity=95 time=0
EXTRACT: note_off channel=4 note=61 velocity=95 time=0
EXTRACT: note_off channel=4 note=58 velocity=95 time=0
EXTRACT: note_off channel=6 note=42 velocity=111 time=0
EXTRACT: note_on channel=6 note=42 velocity=111 time=0
EXTRACT: note_off channel=9 note=42 velocity=95 time=0
EXTRACT: note_on channel=9 note=42 velocity=95 time=0
EXTRACT: note_on channel=9 note=35 velocity=95 time=0
EXTRACT: note_off channel=0 note=66 velocity=102 time=0.25
EXTRACT: note_on channel=0 note=66 velocity=127 time=0
EXTRACT: note_off channel=6 note=42 velocity=111 time=0
EXTRACT: note_on channel=6 note=39 velocity=111 time=0
EXTRACT: note_off channel=9 note=42 velocity=95 time=0
EXTRACT: note_off channel=9 note=35 velocity=95 time=0
EXTRACT: note_on channel=9 note=42 velocity=95 time=0
EXTRACT: note_off channel=0 note=66 velocity=127 time=0.25
EXTRACT: note_on channel=0 note=66 velocity=127 time=0
EXTRACT: note_off channel=6 note=39 velocity=111 time=0
EXTRACT: note_on channel=6 note=37 velocity=111 time=0
EXTRACT: note_off channel=9 note=42 velocity=95 time=0
EXTRACT: note_on channel=9 note=42 velocity=95 time=0
EXTRACT: note_on channel=9 note=38 velocity=95 time=0
EXTRACT: note_on channel=13 note=61 velocity=95 time=0.25
EXTRACT: note_off channel=6 note=37 velocity=111 time=0
EXTRACT: note_on channel=6 note=39 velocity=111 time=0
EXTRACT: note_off channel=9 note=42 velocity=95 time=0
EXTRACT: note_off channel=9 note=38 velocity=95 time=0
EXTRACT: note_on channel=9 note=42 velocity=95 time=0
EXTRACT: note_off channel=13 note=61 velocity=95 time=0.125
EXTRACT: note_on channel=13 note=63 velocity=95 time=0
EXTRACT: note_on channel=2 note=66 velocity=95 time=0.125
EXTRACT: note_on channel=2 note=61 velocity=95 time=0
EXTRACT: note_on channel=2 note=58 velocity=95 time=0
EXTRACT: note_on channel=4 note=66 velocity=95 time=0
EXTRACT: note_on channel=4 note=61 velocity=95 time=0
EXTRACT: note_on channel=4 note=58 velocity=95 time=0
EXTRACT: note_off channel=13 note=63 velocity=95 time=0
EXTRACT: note_on channel=13 note=66 velocity=95 time=0
EXTRACT: note_off channel=6 note=39 velocity=111 time=0
EXTRACT: note_on channel=6 note=42 velocity=111 time=0
EXTRACT: note_off channel=9 note=42 velocity=95 time=0
EXTRACT: note_on channel=9 note=42 velocity=95 time=0
EXTRACT: note_on channel=9 note=35 velocity=95 time=0
EXTRACT: note_off channel=13 note=66 velocity=95 time=0.125
EXTRACT: note_on channel=13 note=66 velocity=95 time=0
EXTRACT: note_off channel=2 note=66 velocity=95 time=0.125
EXTRACT: note_off channel=2 note=61 velocity=95 time=0
EXTRACT: note_off channel=2 note=58 velocity=95 time=0
EXTRACT: note_off channel=4 note=66 velocity=95 time=0
EXTRACT: note_off channel=4 note=61 velocity=95 time=0
EXTRACT: note_off channel=4 note=58 velocity=95 time=0
EXTRACT: note_off channel=13 note=66 velocity=95 time=0
EXTRACT: note_on channel=13 note=63 velocity=95 time=0
EXTRACT: note_off channel=6 note=42 velocity=111 time=0
EXTRACT: note_on channel=6 note=39 velocity=111 time=0
EXTRACT: note_off channel=9 note=42 velocity=95 time=0
EXTRACT: note_off channel=9 note=35 velocity=95 time=0
EXTRACT: note_on channel=9 note=42 velocity=95 time=0
EXTRACT: note_off channel=0 note=66 velocity=127 time=0.25
EXTRACT: note_off channel=13 note=63 velocity=95 time=0
EXTRACT: note_off channel=6 note=39 velocity=111 time=0
EXTRACT: note_on channel=6 note=37 velocity=111 time=0
EXTRACT: note_off channel=9 note=42 velocity=95 time=0
EXTRACT: note_on channel=9 note=42 velocity=95 time=0
EXTRACT: note_on channel=9 note=38 velocity=95 time=0
EXTRACT: note_on channel=2 note=66 velocity=95 time=0.25
EXTRACT: note_on channel=2 note=61 velocity=95 time=0
EXTRACT: note_on channel=2 note=58 velocity=95 time=0
EXTRACT: note_on channel=4 note=66 velocity=95 time=0
EXTRACT: note_on channel=4 note=61 velocity=95 time=0
EXTRACT: note_on channel=4 note=58 velocity=95 time=0
EXTRACT: note_off channel=6 note=37 velocity=111 time=0
EXTRACT: note_on channel=6 note=42 velocity=111 time=0
EXTRACT: note_off channel=9 note=42 velocity=95 time=0
EXTRACT: note_off channel=9 note=38 velocity=95 time=0
EXTRACT: note_on channel=9 note=42 velocity=95 time=0
EXTRACT: note_off channel=2 note=66 velocity=95 time=0.25
EXTRACT: note_off channel=2 note=61 velocity=95 time=0
EXTRACT: note_off channel=2 note=58 velocity=95 time=0
EXTRACT: note_off channel=4 note=66 velocity=95 time=0
EXTRACT: note_off channel=4 note=61 velocity=95 time=0
EXTRACT: note_off channel=4 note=58 velocity=95 time=0
EXTRACT: note_off channel=6 note=42 velocity=111 time=0
EXTRACT: note_on channel=6 note=42 velocity=111 time=0
EXTRACT: note_off channel=9 note=42 velocity=95 time=0
EXTRACT: note_on channel=9 note=42 velocity=95 time=0
EXTRACT: note_on channel=9 note=35 velocity=95 time=0
EXTRACT: note_on channel=0 note=61 velocity=127 time=0.25
EXTRACT: note_off channel=6 note=42 velocity=111 time=0
EXTRACT: note_on channel=6 note=39 velocity=111 time=0
EXTRACT: note_off channel=9 note=42 velocity=95 time=0
EXTRACT: note_off channel=9 note=35 velocity=95 time=0
EXTRACT: note_on channel=9 note=42 velocity=95 time=0
EXTRACT: note_off channel=0 note=61 velocity=127 time=0.25
EXTRACT: note_on channel=0 note=61 velocity=127 time=0
EXTRACT: note_off channel=6 note=39 velocity=111 time=0
EXTRACT: note_on channel=6 note=37 velocity=111 time=0
EXTRACT: note_off channel=9 note=42 velocity=95 time=0
EXTRACT: note_on channel=9 note=42 velocity=95 time=0
EXTRACT: note_on channel=9 note=38 velocity=95 time=0
EXTRACT: note_off channel=0 note=61 velocity=127 time=0.25
EXTRACT: note_on channel=0 note=61 velocity=127 time=0
EXTRACT: note_off channel=6 note=37 velocity=111 time=0
EXTRACT: note_on channel=6 note=39 velocity=111 time=0
EXTRACT: note_off channel=9 note=42 velocity=95 time=0
EXTRACT: note_off channel=9 note=38 velocity=95 time=0
EXTRACT: note_on channel=9 note=42 velocity=95 time=0
EXTRACT: note_off channel=0 note=61 velocity=127 time=0.25
EXTRACT: note_on channel=0 note=70 velocity=127 time=0
EXTRACT: note_on channel=2 note=66 velocity=95 time=0
EXTRACT: note_on channel=2 note=61 velocity=95 time=0
EXTRACT: note_on channel=2 note=58 velocity=95 time=0
EXTRACT: note_on channel=4 note=66 velocity=95 time=0
EXTRACT: note_on channel=4 note=61 velocity=95 time=0
EXTRACT: note_on channel=4 note=58 velocity=95 time=0
EXTRACT: note_off channel=6 note=39 velocity=111 time=0
EXTRACT: note_on channel=6 note=42 velocity=111 time=0
EXTRACT: note_off channel=9 note=42 velocity=95 time=0
EXTRACT: note_on channel=9 note=42 velocity=95 time=0
EXTRACT: note_on channel=9 note=35 velocity=95 time=0
EXTRACT: note_off channel=2 note=66 velocity=95 time=0.25
EXTRACT: note_off channel=2 note=61 velocity=95 time=0
EXTRACT: note_off channel=2 note=58 velocity=95 time=0
EXTRACT: note_off channel=4 note=66 velocity=95 time=0
EXTRACT: note_off channel=4 note=61 velocity=95 time=0
EXTRACT: note_off channel=4 note=58 velocity=95 time=0
EXTRACT: note_off channel=6 note=42 velocity=111 time=0
EXTRACT: note_on channel=6 note=39 velocity=111 time=0
EXTRACT: note_off channel=9 note=42 velocity=95 time=0
EXTRACT: note_off channel=9 note=35 velocity=95 time=0
EXTRACT: note_on channel=9 note=42 velocity=95 time=0
EXTRACT: note_off channel=0 note=70 velocity=127 time=0.25
EXTRACT: note_on channel=0 note=70 velocity=127 time=0
EXTRACT: note_off channel=6 note=39 velocity=111 time=0
EXTRACT: note_on channel=6 note=37 velocity=111 time=0
EXTRACT: note_off channel=9 note=42 velocity=95 time=0
EXTRACT: note_on channel=9 note=42 velocity=95 time=0
EXTRACT: note_on channel=9 note=38 velocity=95 time=0
EXTRACT: note_off channel=0 note=70 velocity=127 time=0.25
EXTRACT: note_on channel=0 note=68 velocity=127 time=0
EXTRACT: note_on channel=2 note=66 velocity=95 time=0
EXTRACT: note_on channel=2 note=61 velocity=95 time=0
EXTRACT: note_on channel=2 note=58 velocity=95 time=0
EXTRACT: note_on channel=4 note=66 velocity=95 time=0
EXTRACT: note_on channel=4 note=61 velocity=95 time=0
EXTRACT: note_on channel=4 note=58 velocity=95 time=0
EXTRACT: note_off channel=6 note=37 velocity=111 time=0
EXTRACT: note_on channel=6 note=42 velocity=111 time=0
EXTRACT: note_off channel=9 note=42 velocity=95 time=0
EXTRACT: note_off channel=9 note=38 velocity=95 time=0
EXTRACT: note_on channel=9 note=42 velocity=95 time=0
EXTRACT: note_off channel=2 note=66 velocity=95 time=0.25
EXTRACT: note_off channel=2 note=61 velocity=95 time=0
EXTRACT: note_off channel=2 note=58 velocity=95 time=0
EXTRACT: note_off channel=4 note=66 velocity=95 time=0
EXTRACT: note_off channel=4 note=61 velocity=95 time=0
EXTRACT: note_off channel=4 note=58 velocity=95 time=0
EXTRACT: note_off channel=6 note=42 velocity=111 time=0
EXTRACT: note_on channel=6 note=42 velocity=111 time=0
EXTRACT: note_off channel=9 note=42 velocity=95 time=0
EXTRACT: note_on channel=9 note=42 velocity=95 time=0
EXTRACT: note_on channel=9 note=35 velocity=95 time=0
EXTRACT: note_off channel=0 note=68 velocity=127 time=0.25
EXTRACT: note_on channel=0 note=70 velocity=127 time=0
EXTRACT: note_off channel=6 note=42 velocity=111 time=0
EXTRACT: note_on channel=6 note=39 velocity=111 time=0
EXTRACT: note_off channel=9 note=42 velocity=95 time=0
EXTRACT: note_off channel=9 note=35 velocity=95 time=0
EXTRACT: note_on channel=9 note=42 velocity=95 time=0
EXTRACT: note_off channel=0 note=70 velocity=127 time=0.25
EXTRACT: note_on channel=0 note=66 velocity=102 time=0
EXTRACT: note_off channel=6 note=39 velocity=111 time=0
EXTRACT: note_on channel=6 note=37 velocity=111 time=0
EXTRACT: note_off channel=9 note=42 velocity=95 time=0
EXTRACT: note_on channel=9 note=42 velocity=95 time=0
EXTRACT: note_on channel=9 note=38 velocity=95 time=0
EXTRACT: note_on channel=13 note=61 velocity=95 time=0.25
EXTRACT: note_off channel=6 note=37 velocity=111 time=0
EXTRACT: note_on channel=6 note=39 velocity=111 time=0
EXTRACT: note_off channel=9 note=42 velocity=95 time=0
EXTRACT: note_off channel=9 note=38 velocity=95 time=0
EXTRACT: note_on channel=9 note=42 velocity=95 time=0
EXTRACT: note_off channel=13 note=61 velocity=95 time=0.125
EXTRACT: note_on channel=13 note=63 velocity=95 time=0
EXTRACT: note_on channel=2 note=66 velocity=95 time=0.125
EXTRACT: note_on channel=2 note=61 velocity=95 time=0
EXTRACT: note_on channel=2 note=58 velocity=95 time=0
EXTRACT: note_on channel=4 note=66 velocity=95 time=0
EXTRACT: note_on channel=4 note=61 velocity=95 time=0
EXTRACT: note_on channel=4 note=58 velocity=95 time=0
EXTRACT: note_off channel=13 note=63 velocity=95 time=0
EXTRACT: note_on channel=13 note=66 velocity=95 time=0
EXTRACT: note_off channel=6 note=39 velocity=111 time=0
EXTRACT: note_on channel=6 note=42 velocity=111 time=0
EXTRACT: note_off channel=9 note=42 velocity=95 time=0
EXTRACT: note_on channel=9 note=42 velocity=95 time=0
EXTRACT: note_on channel=9 note=35 velocity=95 time=0
EXTRACT: note_off channel=13 note=66 velocity=95 time=0.125
EXTRACT: note_on channel=13 note=66 velocity=95 time=0
EXTRACT: note_off channel=2 note=66 velocity=95 time=0.125
EXTRACT: note_off channel=2 note=61 velocity=95 time=0
EXTRACT: note_off channel=2 note=58 velocity=95 time=0
EXTRACT: note_off channel=4 note=66 velocity=95 time=0
EXTRACT: note_off channel=4 note=61 velocity=95 time=0
EXTRACT: note_off channel=4 note=58 velocity=95 time=0
EXTRACT: note_off channel=13 note=66 velocity=95 time=0
EXTRACT: note_on channel=13 note=63 velocity=95 time=0
EXTRACT: note_off channel=6 note=42 velocity=111 time=0
EXTRACT: note_on channel=6 note=39 velocity=111 time=0
EXTRACT: note_off channel=9 note=42 velocity=95 time=0
EXTRACT: note_off channel=9 note=35 velocity=95 time=0
EXTRACT: note_on channel=9 note=42 velocity=95 time=0
EXTRACT: note_off channel=0 note=66 velocity=102 time=0.25
EXTRACT: note_off channel=13 note=63 velocity=95 time=0
EXTRACT: note_on channel=13 note=66 velocity=95 time=0
EXTRACT: note_off channel=6 note=39 velocity=111 time=0
EXTRACT: note_on channel=6 note=37 velocity=111 time=0
EXTRACT: note_off channel=9 note=42 velocity=95 time=0
EXTRACT: note_on channel=9 note=42 velocity=95 time=0
EXTRACT: note_on channel=9 note=38 velocity=95 time=0
EXTRACT: note_on channel=2 note=66 velocity=95 time=0.25
EXTRACT: note_on channel=2 note=61 velocity=95 time=0
EXTRACT: note_on channel=2 note=58 velocity=95 time=0
EXTRACT: note_on channel=4 note=66 velocity=95 time=0
EXTRACT: note_on channel=4 note=61 velocity=95 time=0
EXTRACT: note_on channel=4 note=58 velocity=95 time=0
EXTRACT: note_off channel=13 note=66 velocity=95 time=0
EXTRACT: note_on channel=13 note=68 velocity=95 time=0
EXTRACT: note_off channel=6 note=37 velocity=111 time=0
EXTRACT: note_on channel=6 note=42 velocity=111 time=0
EXTRACT: note_off channel=9 note=42 velocity=95 time=0
EXTRACT: note_off channel=9 note=38 velocity=95 time=0
EXTRACT: note_on channel=9 note=42 velocity=95 time=0
EXTRACT: note_off channel=2 note=66 velocity=95 time=0.25
EXTRACT: note_off channel=2 note=61 velocity=95 time=0
EXTRACT: note_off channel=2 note=58 velocity=95 time=0
EXTRACT: note_off channel=4 note=66 velocity=95 time=0
EXTRACT: note_off channel=4 note=61 velocity=95 time=0
EXTRACT: note_off channel=4 note=58 velocity=95 time=0
EXTRACT: note_off channel=13 note=68 velocity=95 time=0
EXTRACT: note_off channel=6 note=42 velocity=111 time=0
EXTRACT: note_on channel=6 note=42 velocity=111 time=0
EXTRACT: note_off channel=9 note=42 velocity=95 time=0
EXTRACT: note_on channel=9 note=42 velocity=95 time=0
EXTRACT: note_on channel=9 note=35 velocity=95 time=0
EXTRACT: note_off channel=6 note=42 velocity=111 time=0.25
EXTRACT: note_on channel=6 note=39 velocity=111 time=0
EXTRACT: note_off channel=9 note=42 velocity=95 time=0
EXTRACT: note_off channel=9 note=35 velocity=95 time=0
EXTRACT: note_on channel=9 note=42 velocity=95 time=0
EXTRACT: note_off channel=6 note=39 velocity=111 time=0.25
EXTRACT: note_on channel=6 note=37 velocity=111 time=0
EXTRACT: note_off channel=9 note=42 velocity=95 time=0
EXTRACT: note_on channel=9 note=42 velocity=95 time=0
EXTRACT: note_on channel=9 note=38 velocity=95 time=0
EXTRACT: note_off channel=6 note=37 velocity=111 time=0.25
EXTRACT: note_on channel=6 note=39 velocity=111 time=0
EXTRACT: note_off channel=9 note=42 velocity=95 time=0
EXTRACT: note_off channel=9 note=38 velocity=95 time=0
EXTRACT: note_on channel=9 note=42 velocity=95 time=0
EXTRACT: note_on channel=2 note=68 velocity=95 time=0.25
EXTRACT: note_on channel=2 note=63 velocity=95 time=0
EXTRACT: note_on channel=2 note=59 velocity=95 time=0
EXTRACT: note_on channel=4 note=68 velocity=95 time=0
EXTRACT: note_on channel=4 note=66 velocity=95 time=0
EXTRACT: note_on channel=4 note=63 velocity=95 time=0
EXTRACT: note_on channel=4 note=59 velocity=95 time=0
EXTRACT: note_off channel=6 note=39 velocity=111 time=0
EXTRACT: note_on channel=6 note=44 velocity=111 time=0
EXTRACT: note_off channel=9 note=42 velocity=95 time=0
EXTRACT: note_on channel=9 note=49 velocity=95 time=0
EXTRACT: note_on channel=9 note=35 velocity=95 time=0
EXTRACT: note_off channel=2 note=68 velocity=95 time=0.25
EXTRACT: note_off channel=2 note=63 velocity=95 time=0
EXTRACT: note_off channel=2 note=59 velocity=95 time=0
EXTRACT: note_off channel=4 note=68 velocity=95 time=0
EXTRACT: note_off channel=4 note=66 velocity=95 time=0
EXTRACT: note_off channel=4 note=63 velocity=95 time=0
EXTRACT: note_off channel=4 note=59 velocity=95 time=0
EXTRACT: note_off channel=6 note=44 velocity=111 time=0
EXTRACT: note_on channel=6 note=44 velocity=111 time=0
EXTRACT: note_on channel=0 note=68 velocity=127 time=0.25
EXTRACT: note_on channel=2 note=68 velocity=95 time=0
EXTRACT: note_on channel=2 note=63 velocity=95 time=0
EXTRACT: note_on channel=2 note=59 velocity=95 time=0
EXTRACT: note_off channel=6 note=44 velocity=111 time=0
EXTRACT: note_on channel=6 note=44 velocity=111 time=0
EXTRACT: note_off channel=9 note=49 velocity=95 time=0
EXTRACT: note_off channel=9 note=35 velocity=95 time=0
EXTRACT: note_on channel=9 note=42 velocity=95 time=0
EXTRACT: note_on channel=9 note=38 velocity=95 time=0
EXTRACT: note_off channel=0 note=68 velocity=127 time=0.25
EXTRACT: note_on channel=0 note=68 velocity=127 time=0
EXTRACT: note_off channel=2 note=68 velocity=95 time=0
EXTRACT: note_off channel=2 note=63 velocity=95 time=0
EXTRACT: note_off channel=2 note=59 velocity=95 time=0
EXTRACT: note_on channel=4 note=68 velocity=95 time=0
EXTRACT: note_on channel=4 note=66 velocity=95 time=0
EXTRACT: note_on channel=4 note=63 velocity=95 time=0
EXTRACT: note_on channel=4 note=59 velocity=95 time=0
EXTRACT: note_off channel=6 note=44 velocity=111 time=0
EXTRACT: note_on channel=6 note=44 velocity=111 time=0
EXTRACT: note_off channel=9 note=42 velocity=95 time=0
EXTRACT: note_off channel=9 note=38 velocity=95 time=0
EXTRACT: note_on channel=9 note=42 velocity=95 time=0
EXTRACT: note_off channel=0 note=68 velocity=127 time=0.25
EXTRACT: note_on channel=0 note=68 velocity=127 time=0
EXTRACT: note_on channel=2 note=68 velocity=95 time=0
EXTRACT: note_on channel=2 note=63 velocity=95 time=0
EXTRACT: note_on channel=2 note=59 velocity=95 time=0
EXTRACT: note_off channel=4 note=68 velocity=95 time=0
EXTRACT: note_off channel=4 note=66 velocity=95 time=0
EXTRACT: note_off channel=4 note=63 velocity=95 time=0
EXTRACT: note_off channel=4 note=59 velocity=95 time=0
EXTRACT: note_off channel=6 note=44 velocity=111 time=0
EXTRACT: note_on channel=6 note=44 velocity=111 time=0
EXTRACT: note_off channel=9 note=42 velocity=95 time=0
EXTRACT: note_on channel=9 note=42 velocity=95 time=0
EXTRACT: note_on channel=9 note=35 velocity=95 time=0
EXTRACT: note_off channel=0 note=68 velocity=127 time=0.25
EXTRACT: note_on channel=0 note=68 velocity=127 time=0
EXTRACT: note_off channel=2 note=68 velocity=95 time=0
EXTRACT: note_off channel=2 note=63 velocity=95 time=0
EXTRACT: note_off channel=2 note=59 velocity=95 time=0
EXTRACT: note_on channel=2 note=68 velocity=95 time=0
EXTRACT: note_on channel=2 note=63 velocity=95 time=0
EXTRACT: note_on channel=2 note=59 velocity=95 time=0
EXTRACT: note_off channel=6 note=44 velocity=111 time=0
EXTRACT: note_on channel=6 note=44 velocity=111 time=0
EXTRACT: note_off channel=9 note=42 velocity=95 time=0
EXTRACT: note_off channel=9 note=35 velocity=95 time=0
EXTRACT: note_on channel=9 note=42 velocity=95 time=0
EXTRACT: note_off channel=2 note=68 velocity=95 time=0.25
EXTRACT: note_off channel=2 note=63 velocity=95 time=0
EXTRACT: note_off channel=2 note=59 velocity=95 time=0
EXTRACT: note_off channel=6 note=44 velocity=111 time=0
EXTRACT: note_on channel=6 note=42 velocity=111 time=0
EXTRACT: note_off channel=9 note=42 velocity=95 time=0
EXTRACT: note_on channel=9 note=42 velocity=95 time=0
EXTRACT: note_on channel=9 note=38 velocity=95 time=0
EXTRACT: note_off channel=0 note=68 velocity=127 time=0.25
EXTRACT: note_on channel=0 note=68 velocity=127 time=0
EXTRACT: note_on channel=2 note=68 velocity=95 time=0
EXTRACT: note_on channel=2 note=63 velocity=95 time=0
EXTRACT: note_on channel=2 note=59 velocity=95 time=0
EXTRACT: note_off channel=6 note=42 velocity=111 time=0
EXTRACT: note_on channel=6 note=44 velocity=111 time=0
EXTRACT: note_off channel=9 note=42 velocity=95 time=0
EXTRACT: note_off channel=9 note=38 velocity=95 time=0
EXTRACT: note_on channel=9 note=42 velocity=95 time=0
EXTRACT: note_off channel=2 note=68 velocity=95 time=0.25
EXTRACT: note_off channel=2 note=63 velocity=95 time=0
EXTRACT: note_off channel=2 note=59 velocity=95 time=0
EXTRACT: note_off channel=6 note=44 velocity=111 time=0
EXTRACT: note_on channel=6 note=32 velocity=111 time=0
EXTRACT: note_off channel=9 note=42 velocity=95 time=0
EXTRACT: note_on channel=9 note=42 velocity=95 time=0
EXTRACT: note_on channel=9 note=35 velocity=95 time=0
EXTRACT: note_off channel=0 note=68 velocity=127 time=0.25
EXTRACT: note_on channel=0 note=66 velocity=127 time=0
EXTRACT: note_on channel=2 note=68 velocity=95 time=0
EXTRACT: note_on channel=2 note=63 velocity=95 time=0
EXTRACT: note_on channel=2 note=59 velocity=95 time=0
EXTRACT: note_off channel=6 note=32 velocity=111 time=0
EXTRACT: note_on channel=6 note=32 velocity=111 time=0
EXTRACT: note_off channel=9 note=42 velocity=95 time=0
EXTRACT: note_off channel=9 note=35 velocity=95 time=0
EXTRACT: note_on channel=9 note=42 velocity=95 time=0
EXTRACT: note_off channel=0 note=66 velocity=127 time=0.25
EXTRACT: note_on channel=0 note=63 velocity=102 time=0
EXTRACT: note_off channel=2 note=68 velocity=95 time=0
EXTRACT: note_off channel=2 note=63 velocity=95 time=0
EXTRACT: note_off channel=2 note=59 velocity=95 time=0
EXTRACT: note_off channel=6 note=32 velocity=111 time=0
EXTRACT: note_on channel=6 note=32 velocity=111 time=0
EXTRACT: note_off channel=9 note=42 velocity=95 time=0
EXTRACT: note_on channel=9 note=42 velocity=95 time=0
EXTRACT: note_on channel=9 note=38 velocity=95 time=0
EXTRACT: note_off channel=0 note=63 velocity=102 time=0.25
EXTRACT: note_on channel=0 note=63 velocity=127 time=0
EXTRACT: note_on channel=2 note=68 velocity=95 time=0
EXTRACT: note_on channel=2 note=63 velocity=95 time=0
EXTRACT: note_on channel=2 note=59 velocity=95 time=0
EXTRACT: note_off channel=6 note=32 velocity=111 time=0
EXTRACT: note_on channel=6 note=32 velocity=111 time=0
EXTRACT: note_off channel=9 note=42 velocity=95 time=0
EXTRACT: note_off channel=9 note=38 velocity=95 time=0
EXTRACT: note_on channel=9 note=42 velocity=95 time=0
EXTRACT: note_off channel=0 note=63 velocity=127 time=0.25
EXTRACT: note_off channel=2 note=68 velocity=95 time=0
EXTRACT: note_off channel=2 note=63 velocity=95 time=0
EXTRACT: note_off channel=2 note=59 velocity=95 time=0
EXTRACT: note_off channel=6 note=32 velocity=111 time=0
EXTRACT: note_on channel=6 note=32 velocity=111 time=0
EXTRACT: note_off channel=9 note=42 velocity=95 time=0
EXTRACT: note_on channel=9 note=38 velocity=95 time=0
EXTRACT: note_off channel=9 note=38 velocity=95 time=0.125
EXTRACT: note_on channel=9 note=38 velocity=95 time=0
EXTRACT: note_on channel=0 note=61 velocity=127 time=0.125
EXTRACT: note_on channel=2 note=68 velocity=95 time=0
EXTRACT: note_on channel=2 note=63 velocity=95 time=0
EXTRACT: note_on channel=2 note=59 velocity=95 time=0
EXTRACT: note_off channel=6 note=32 velocity=111 time=0
EXTRACT: note_on channel=6 note=32 velocity=111 time=0
EXTRACT: note_off channel=9 note=38 velocity=95 time=0
EXTRACT: note_on channel=9 note=38 velocity=95 time=0
EXTRACT: note_off channel=0 note=61 velocity=127 time=0.25
EXTRACT: note_on channel=0 note=63 velocity=127 time=0
EXTRACT: note_off channel=2 note=68 velocity=95 time=0
EXTRACT: note_off channel=2 note=63 velocity=95 time=0
EXTRACT: note_off channel=2 note=59 velocity=95 time=0
EXTRACT: note_on channel=2 note=68 velocity=95 time=0
EXTRACT: note_on channel=2 note=63 velocity=95 time=0
EXTRACT: note_on channel=2 note=59 velocity=95 time=0
EXTRACT: note_off channel=6 note=32 velocity=111 time=0
EXTRACT: note_on channel=6 note=32 velocity=111 time=0
EXTRACT: note_off channel=9 note=38 velocity=95 time=0
EXTRACT: note_on channel=9 note=38 velocity=95 time=0
EXTRACT: note_off channel=0 note=63 velocity=127 time=0.25
EXTRACT: note_on channel=0 note=66 velocity=127 time=0
EXTRACT: note_off channel=2 note=68 velocity=95 time=0
EXTRACT: note_off channel=2 note=63 velocity=95 time=0
EXTRACT: note_off channel=2 note=59 velocity=95 time=0
EXTRACT: note_off channel=6 note=32 velocity=111 time=0
EXTRACT: note_on channel=6 note=37 velocity=111 time=0
EXTRACT: note_off channel=9 note=38 velocity=95 time=0
EXTRACT: note_on channel=9 note=42 velocity=95 time=0
EXTRACT: note_on channel=2 note=66 velocity=95 time=0.25
EXTRACT: note_on channel=2 note=61 velocity=95 time=0
EXTRACT: note_on channel=2 note=58 velocity=95 time=0
EXTRACT: note_on channel=4 note=66 velocity=95 time=0
EXTRACT: note_on channel=4 note=61 velocity=95 time=0
EXTRACT: note_on channel=4 note=58 velocity=95 time=0
EXTRACT: note_off channel=6 note=37 velocity=111 time=0
EXTRACT: note_on channel=6 note=42 velocity=111 time=0
EXTRACT: note_off channel=9 note=42 velocity=95 time=0
EXTRACT: note_on channel=9 note=42 velocity=95 time=0
EXTRACT: note_on channel=9 note=35 velocity=95 time=0
EXTRACT: note_off channel=0 note=66 velocity=127 time=0.25
EXTRACT: note_on channel=0 note=63 velocity=127 time=0
EXTRACT: note_off channel=2 note=66 velocity=95 time=0
EXTRACT: note_off channel=2 note=61 velocity=95 time=0
EXTRACT: note_off channel=2 note=58 velocity=95 time=0
EXTRACT: note_off channel=4 note=66 velocity=95 time=0
EXTRACT: note_off channel=4 note=61 velocity=95 time=0
EXTRACT: note_off channel=4 note=58 velocity=95 time=0
EXTRACT: note_off channel=6 note=42 velocity=111 time=0
EXTRACT: note_on channel=6 note=39 velocity=111 time=0
EXTRACT: note_off channel=9 note=42 velocity=95 time=0
EXTRACT: note_off channel=9 note=35 velocity=95 time=0
EXTRACT: note_on channel=9 note=42 velocity=95 time=0
EXTRACT: note_off channel=0 note=63 velocity=127 time=0.25
EXTRACT: note_on channel=0 note=61 velocity=102 time=0
EXTRACT: note_off channel=6 note=39 velocity=111 time=0
EXTRACT: note_on channel=6 note=37 velocity=111 time=0
EXTRACT: note_off channel=9 note=42 velocity=95 time=0
EXTRACT: note_on channel=9 note=42 velocity=95 time=0
EXTRACT: note_on channel=9 note=38 velocity=95 time=0
EXTRACT: note_off channel=0 note=61 velocity=102 time=0.25
EXTRACT: note_on channel=0 note=61 velocity=127 time=0
EXTRACT: note_on channel=2 note=66 velocity=95 time=0
EXTRACT: note_on channel=2 note=61 velocity=95 time=0
EXTRACT: note_on channel=2 note=58 velocity=95 time=0
EXTRACT: note_on channel=4 note=66 velocity=95 time=0
EXTRACT: note_on channel=4 note=61 velocity=95 time=0
EXTRACT: note_on channel=4 note=58 velocity=95 time=0
EXTRACT: note_off channel=6 note=37 velocity=111 time=0
EXTRACT: note_on channel=6 note=42 velocity=111 time=0
EXTRACT: note_off channel=9 note=42 velocity=95 time=0
EXTRACT: note_off channel=9 note=38 velocity=95 time=0
EXTRACT: note_on channel=9 note=42 velocity=95 time=0
EXTRACT: note_off channel=2 note=66 velocity=95 time=0.25
EXTRACT: note_off channel=2 note=61 velocity=95 time=0
EXTRACT: note_off channel=2 note=58 velocity=95 time=0
EXTRACT: note_off channel=4 note=66 velocity=95 time=0
EXTRACT: note_off channel=4 note=61 velocity=95 time=0
EXTRACT: note_off channel=4 note=58 velocity=95 time=0
EXTRACT: note_off channel=6 note=42 velocity=111 time=0
EXTRACT: note_on channel=6 note=42 velocity=111 time=0
EXTRACT: note_off channel=9 note=42 velocity=95 time=0
EXTRACT: note_on channel=9 note=42 velocity=95 time=0
EXTRACT: note_on channel=9 note=35 velocity=95 time=0
EXTRACT: note_off channel=6 note=42 velocity=111 time=0.25
EXTRACT: note_on channel=6 note=39 velocity=111 time=0
EXTRACT: note_off channel=9 note=42 velocity=95 time=0
EXTRACT: note_off channel=9 note=35 velocity=95 time=0
EXTRACT: note_on channel=9 note=42 velocity=95 time=0
EXTRACT: note_off channel=0 note=61 velocity=127 time=0.25
EXTRACT: note_off channel=6 note=39 velocity=111 time=0
EXTRACT: note_on channel=6 note=37 velocity=111 time=0
EXTRACT: note_off channel=9 note=42 velocity=95 time=0
EXTRACT: note_on channel=9 note=42 velocity=95 time=0
EXTRACT: note_on channel=9 note=38 velocity=95 time=0
EXTRACT: note_off channel=6 note=37 velocity=111 time=0.25
EXTRACT: note_on channel=6 note=39 velocity=111 time=0
EXTRACT: note_off channel=9 note=42 velocity=95 time=0
EXTRACT: note_off channel=9 note=38 velocity=95 time=0
EXTRACT: note_on channel=9 note=42 velocity=95 time=0
EXTRACT: note_on channel=2 note=66 velocity=95 time=0.25
EXTRACT: note_on channel=2 note=61 velocity=95 time=0
EXTRACT: note_on channel=2 note=58 velocity=95 time=0
EXTRACT: note_off channel=6 note=39 velocity=111 time=0
EXTRACT: note_on channel=6 note=42 velocity=111 time=0
EXTRACT: note_off channel=9 note=42 velocity=95 time=0
EXTRACT: note_on channel=9 note=42 velocity=95 time=0
EXTRACT: note_on channel=9 note=35 velocity=95 time=0
EXTRACT: note_off channel=2 note=66 velocity=95 time=0.25
EXTRACT: note_off channel=2 note=61 velocity=95 time=0
EXTRACT: note_off channel=2 note=58 velocity=95 time=0
EXTRACT: note_off channel=6 note=42 velocity=111 time=0
EXTRACT: note_on channel=6 note=39 velocity=111 time=0
EXTRACT: note_off channel=9 note=42 velocity=95 time=0
EXTRACT: note_off channel=9 note=35 velocity=95 time=0
EXTRACT: note_on channel=9 note=42 velocity=95 time=0
EXTRACT: note_off channel=6 note=39 velocity=111 time=0.25
EXTRACT: note_on channel=6 note=37 velocity=111 time=0
EXTRACT: note_off channel=9 note=42 velocity=95 time=0
EXTRACT: note_on channel=9 note=42 velocity=95 time=0
EXTRACT: note_on channel=9 note=38 velocity=95 time=0
EXTRACT: note_on channel=2 note=66 velocity=95 time=0.25
EXTRACT: note_on channel=2 note=61 velocity=95 time=0
EXTRACT: note_on channel=2 note=58 velocity=95 time=0
EXTRACT: note_off channel=6 note=37 velocity=111 time=0
EXTRACT: note_on channel=6 note=42 velocity=111 time=0
EXTRACT: note_off channel=9 note=42 velocity=95 time=0
EXTRACT: note_off channel=9 note=38 velocity=95 time=0
EXTRACT: note_on channel=9 note=42 velocity=95 time=0
EXTRACT: note_off channel=2 note=66 velocity=95 time=0.25
EXTRACT: note_off channel=2 note=61 velocity=95 time=0
EXTRACT: note_off channel=2 note=58 velocity=95 time=0
EXTRACT: note_off channel=6 note=42 velocity=111 time=0
EXTRACT: note_on channel=6 note=42 velocity=111 time=0
EXTRACT: note_off channel=9 note=42 velocity=95 time=0
EXTRACT: note_on channel=9 note=42 velocity=95 time=0
EXTRACT: note_on channel=9 note=35 velocity=95 time=0
EXTRACT: note_on channel=0 note=61 velocity=127 time=0.25
EXTRACT: note_off channel=6 note=42 velocity=111 time=0
EXTRACT: note_on channel=6 note=39 velocity=111 time=0
EXTRACT: note_off channel=9 note=42 velocity=95 time=0
EXTRACT: note_off channel=9 note=35 velocity=95 time=0
EXTRACT: note_on channel=9 note=42 velocity=95 time=0
EXTRACT: note_off channel=0 note=61 velocity=127 time=0.25
EXTRACT: note_on channel=0 note=61 velocity=127 time=0
EXTRACT: note_off channel=6 note=39 velocity=111 time=0
EXTRACT: note_on channel=6 note=37 velocity=111 time=0
EXTRACT: note_off channel=9 note=42 velocity=95 time=0
EXTRACT: note_on channel=9 note=42 velocity=95 time=0
EXTRACT: note_on channel=9 note=38 velocity=95 time=0
EXTRACT: note_off channel=0 note=61 velocity=127 time=0.25
EXTRACT: note_on channel=0 note=70 velocity=127 time=0
EXTRACT: note_off channel=6 note=37 velocity=111 time=0
EXTRACT: note_on channel=6 note=39 velocity=111 time=0
EXTRACT: note_off channel=9 note=42 velocity=95 time=0
EXTRACT: note_off channel=9 note=38 velocity=95 time=0
EXTRACT: note_on channel=9 note=42 velocity=95 time=0
EXTRACT: note_on channel=2 note=66 velocity=95 time=0.25
EXTRACT: note_on channel=2 note=61 velocity=95 time=0
EXTRACT: note_on channel=2 note=58 velocity=95 time=0
EXTRACT: note_on channel=4 note=66 velocity=95 time=0
EXTRACT: note_on channel=4 note=61 velocity=95 time=0
EXTRACT: note_on channel=4 note=58 velocity=95 time=0
EXTRACT: note_off channel=6 note=39 velocity=111 time=0
EXTRACT: note_on channel=6 note=42 velocity=111 time=0
EXTRACT: note_off channel=9 note=42 velocity=95 time=0
EXTRACT: note_on channel=9 note=42 velocity=95 time=0
EXTRACT: note_on channel=9 note=35 velocity=95 time=0
EXTRACT: note_off channel=2 note=66 velocity=95 time=0.25
EXTRACT: note_off channel=2 note=61 velocity=95 time=0
EXTRACT: note_off channel=2 note=58 velocity=95 time=0
EXTRACT: note_off channel=4 note=66 velocity=95 time=0
EXTRACT: note_off channel=4 note=61 velocity=95 time=0
EXTRACT: note_off channel=4 note=58 velocity=95 time=0
EXTRACT: note_off channel=6 note=42 velocity=111 time=0
EXTRACT: note_on channel=6 note=39 velocity=111 time=0
EXTRACT: note_off channel=9 note=42 velocity=95 time=0
EXTRACT: note_off channel=9 note=35 velocity=95 time=0
EXTRACT: note_on channel=9 note=42 velocity=95 time=0
EXTRACT: note_off channel=0 note=70 velocity=127 time=0.25
EXTRACT: note_off channel=6 note=39 velocity=111 time=0
EXTRACT: note_on channel=6 note=37 velocity=111 time=0
EXTRACT: note_off channel=9 note=42 velocity=95 time=0
EXTRACT: note_on channel=9 note=42 velocity=95 time=0
EXTRACT: note_on channel=9 note=38 velocity=95 time=0
EXTRACT: note_on channel=2 note=66 velocity=95 time=0.25
EXTRACT: note_on channel=2 note=61 velocity=95 time=0
EXTRACT: note_on channel=2 note=58 velocity=95 time=0
EXTRACT: note_on channel=4 note=66 velocity=95 time=0
EXTRACT: note_on channel=4 note=61 velocity=95 time=0
EXTRACT: note_on channel=4 note=58 velocity=95 time=0
EXTRACT: note_off channel=6 note=37 velocity=111 time=0
EXTRACT: note_on channel=6 note=42 velocity=111 time=0
EXTRACT: note_off channel=9 note=42 velocity=95 time=0
EXTRACT: note_off channel=9 note=38 velocity=95 time=0
EXTRACT: note_on channel=9 note=42 velocity=95 time=0
EXTRACT: note_off channel=2 note=66 velocity=95 time=0.25
EXTRACT: note_off channel=2 note=61 velocity=95 time=0
EXTRACT: note_off channel=2 note=58 velocity=95 time=0
EXTRACT: note_off channel=4 note=66 velocity=95 time=0
EXTRACT: note_off channel=4 note=61 velocity=95 time=0
EXTRACT: note_off channel=4 note=58 velocity=95 time=0
EXTRACT: note_off channel=6 note=42 velocity=111 time=0
EXTRACT: note_on channel=6 note=42 velocity=111 time=0
EXTRACT: note_off channel=9 note=42 velocity=95 time=0
EXTRACT: note_on channel=9 note=42 velocity=95 time=0
EXTRACT: note_on channel=9 note=35 velocity=95 time=0
EXTRACT: note_on channel=0 note=68 velocity=127 time=0.25
EXTRACT: note_off channel=6 note=42 velocity=111 time=0
EXTRACT: note_on channel=6 note=39 velocity=111 time=0
EXTRACT: note_off channel=9 note=42 velocity=95 time=0
EXTRACT: note_off channel=9 note=35 velocity=95 time=0
EXTRACT: note_on channel=9 note=42 velocity=95 time=0
EXTRACT: note_off channel=0 note=68 velocity=127 time=0.25
EXTRACT: note_on channel=0 note=66 velocity=127 time=0
EXTRACT: note_off channel=6 note=39 velocity=111 time=0
EXTRACT: note_on channel=6 note=37 velocity=111 time=0
EXTRACT: note_off channel=9 note=42 velocity=95 time=0
EXTRACT: note_on channel=9 note=42 velocity=95 time=0
EXTRACT: note_on channel=9 note=38 velocity=95 time=0
EXTRACT: note_off channel=0 note=66 velocity=127 time=0.25
EXTRACT: note_on channel=0 note=66 velocity=127 time=0
EXTRACT: note_off channel=6 note=37 velocity=111 time=0
EXTRACT: note_on channel=6 note=39 velocity=111 time=0
EXTRACT: note_off channel=9 note=42 velocity=95 time=0
EXTRACT: note_off channel=9 note=38 velocity=95 time=0
EXTRACT: note_on channel=9 note=42 velocity=95 time=0
EXTRACT: note_on channel=2 note=66 velocity=95 time=0.25
EXTRACT: note_on channel=2 note=61 velocity=95 time=0
EXTRACT: note_on channel=2 note=58 velocity=95 time=0
EXTRACT: note_on channel=4 note=66 velocity=95 time=0
EXTRACT: note_on channel=4 note=61 velocity=95 time=0
EXTRACT: note_on channel=4 note=58 velocity=95 time=0
EXTRACT: note_off channel=6 note=39 velocity=111 time=0
EXTRACT: note_on channel=6 note=42 velocity=111 time=0
EXTRACT: note_off channel=9 note=42 velocity=95 time=0
EXTRACT: note_on channel=9 note=42 velocity=95 time=0
EXTRACT: note_on channel=9 note=35 velocity=95 time=0
EXTRACT: note_off channel=2 note=66 velocity=95 time=0.25
EXTRACT: note_off channel=2 note=61 velocity=95 time=0
EXTRACT: note_off channel=2 note=58 velocity=95 time=0
EXTRACT: note_off channel=4 note=66 velocity=95 time=0
EXTRACT: note_off channel=4 note=61 velocity=95 time=0
EXTRACT: note_off channel=4 note=58 velocity=95 time=0
EXTRACT: note_off channel=6 note=42 velocity=111 time=0
EXTRACT: note_on channel=6 note=39 velocity=111 time=0
EXTRACT: note_off channel=9 note=42 velocity=95 time=0
EXTRACT: note_off channel=9 note=35 velocity=95 time=0
EXTRACT: note_on channel=9 note=42 velocity=95 time=0
EXTRACT: note_off channel=0 note=66 velocity=127 time=0.25
EXTRACT: note_off channel=6 note=39 velocity=111 time=0
EXTRACT: note_on channel=6 note=37 velocity=111 time=0
EXTRACT: note_off channel=9 note=42 velocity=95 time=0
EXTRACT: note_on channel=9 note=42 velocity=95 time=0
EXTRACT: note_on channel=9 note=38 velocity=95 time=0
EXTRACT: note_on channel=2 note=66 velocity=95 time=0.25
EXTRACT: note_on channel=2 note=61 velocity=95 time=0
EXTRACT: note_on channel=2 note=58 velocity=95 time=0
EXTRACT: note_on channel=4 note=66 velocity=95 time=0
EXTRACT: note_on channel=4 note=61 velocity=95 time=0
EXTRACT: note_on channel=4 note=58 velocity=95 time=0
EXTRACT: note_on channel=8 note=61 velocity=95 time=0
EXTRACT: note_off channel=6 note=37 velocity=111 time=0
EXTRACT: note_on channel=6 note=42 velocity=111 time=0
EXTRACT: note_off channel=9 note=42 velocity=95 time=0
EXTRACT: note_off channel=9 note=38 velocity=95 time=0
EXTRACT: note_on channel=9 note=42 velocity=95 time=0
EXTRACT: note_off channel=8 note=61 velocity=95 time=0.125
EXTRACT: note_on channel=8 note=63 velocity=95 time=0
EXTRACT: note_off channel=2 note=66 velocity=95 time=0.125
EXTRACT: note_off channel=2 note=61 velocity=95 time=0
EXTRACT: note_off channel=2 note=58 velocity=95 time=0
EXTRACT: note_off channel=4 note=66 velocity=95 time=0
EXTRACT: note_off channel=4 note=61 velocity=95 time=0
EXTRACT: note_off channel=4 note=58 velocity=95 time=0
EXTRACT: note_off channel=8 note=63 velocity=95 time=0
EXTRACT: note_on channel=8 note=66 velocity=95 time=0
EXTRACT: note_off channel=6 note=42 velocity=111 time=0
EXTRACT: note_on channel=6 note=42 velocity=111 time=0
EXTRACT: note_off channel=9 note=42 velocity=95 time=0
EXTRACT: note_on channel=9 note=42 velocity=95 time=0
EXTRACT: note_on channel=9 note=35 velocity=95 time=0
EXTRACT: note_off channel=8 note=66 velocity=95 time=0.125
EXTRACT: note_on channel=8 note=66 velocity=95 time=0
EXTRACT: note_on channel=0 note=61 velocity=127 time=0.125
EXTRACT: note_off channel=8 note=66 velocity=95 time=0
EXTRACT: note_on channel=8 note=63 velocity=95 time=0
EXTRACT: note_off channel=6 note=42 velocity=111 time=0
EXTRACT: note_on channel=6 note=39 velocity=111 time=0
EXTRACT: note_off channel=9 note=42 velocity=95 time=0
EXTRACT: note_off channel=9 note=35 velocity=95 time=0
EXTRACT: note_on channel=9 note=42 velocity=95 time=0
EXTRACT: note_off channel=0 note=61 velocity=127 time=0.25
EXTRACT: note_on channel=0 note=61 velocity=127 time=0
EXTRACT: note_off channel=8 note=63 velocity=95 time=0
EXTRACT: note_off channel=6 note=39 velocity=111 time=0
EXTRACT: note_on channel=6 note=37 velocity=111 time=0
EXTRACT: note_off channel=9 note=42 velocity=95 time=0
EXTRACT: note_on channel=9 note=42 velocity=95 time=0
EXTRACT: note_on channel=9 note=38 velocity=95 time=0
EXTRACT: note_off channel=0 note=61 velocity=127 time=0.25
EXTRACT: note_on channel=0 note=70 velocity=127 time=0
EXTRACT: note_off channel=6 note=37 velocity=111 time=0
EXTRACT: note_on channel=6 note=39 velocity=111 time=0
EXTRACT: note_off channel=9 note=42 velocity=95 time=0
EXTRACT: note_off channel=9 note=38 velocity=95 time=0
EXTRACT: note_on channel=9 note=42 velocity=95 time=0
EXTRACT: note_on channel=2 note=66 velocity=95 time=0.25
EXTRACT: note_on channel=2 note=61 velocity=95 time=0
EXTRACT: note_on channel=2 note=58 velocity=95 time=0
EXTRACT: note_on channel=4 note=66 velocity=95 time=0
EXTRACT: note_on channel=4 note=61 velocity=95 time=0
EXTRACT: note_on channel=4 note=58 velocity=95 time=0
EXTRACT: note_off channel=6 note=39 velocity=111 time=0
EXTRACT: note_on channel=6 note=42 velocity=111 time=0
EXTRACT: note_off channel=9 note=42 velocity=95 time=0
EXTRACT: note_on channel=9 note=49 velocity=95 time=0
EXTRACT: note_on channel=9 note=35 velocity=95 time=0
EXTRACT: note_off channel=2 note=66 velocity=95 time=0.25
EXTRACT: note_off channel=2 note=61 velocity=95 time=0
EXTRACT: note_off channel=2 note=58 velocity=95 time=0
EXTRACT: note_off channel=4 note=66 velocity=95 time=0
EXTRACT: note_off channel=4 note=61 velocity=95 time=0
EXTRACT: note_off channel=4 note=58 velocity=95 time=0
EXTRACT: note_off channel=6 note=42 velocity=111 time=0
EXTRACT: note_on channel=6 note=39 velocity=111 time=0
EXTRACT: note_off channel=0 note=70 velocity=127 time=0.25
EXTRACT: note_off channel=6 note=39 velocity=111 time=0
EXTRACT: note_on channel=6 note=37 velocity=111 time=0
EXTRACT: note_off channel=9 note=49 velocity=95 time=0
EXTRACT: note_off channel=9 note=35 velocity=95 time=0
EXTRACT: note_on channel=9 note=42 velocity=95 time=0
EXTRACT: note_on channel=9 note=38 velocity=95 time=0
EXTRACT: note_on channel=2 note=66 velocity=95 time=0.25
EXTRACT: note_on channel=2 note=61 velocity=95 time=0
EXTRACT: note_on channel=2 note=58 velocity=95 time=0
EXTRACT: note_on channel=4 note=66 velocity=95 time=0
EXTRACT: note_on channel=4 note=61 velocity=95 time=0
EXTRACT: note_on channel=4 note=58 velocity=95 time=0
EXTRACT: note_off channel=6 note=37 velocity=111 time=0
EXTRACT: note_on channel=6 note=42 velocity=111 time=0
EXTRACT: note_off channel=9 note=42 velocity=95 time=0
EXTRACT: note_off channel=9 note=38 velocity=95 time=0
EXTRACT: note_on channel=9 note=42 velocity=95 time=0
EXTRACT: note_off channel=2 note=66 velocity=95 time=0.25
EXTRACT: note_off channel=2 note=61 velocity=95 time=0
EXTRACT: note_off channel=2 note=58 velocity=95 time=0
EXTRACT: note_off channel=4 note=66 velocity=95 time=0
EXTRACT: note_off channel=4 note=61 velocity=95 time=0
EXTRACT: note_off channel=4 note=58 velocity=95 time=0
EXTRACT: note_off channel=6 note=42 velocity=111 time=0
EXTRACT: note_on channel=6 note=42 velocity=111 time=0
EXTRACT: note_off channel=9 note=42 velocity=95 time=0
EXTRACT: note_on channel=9 note=42 velocity=95 time=0
EXTRACT: note_on channel=9 note=35 velocity=95 time=0
EXTRACT: note_on channel=0 note=68 velocity=127 time=0.25
EXTRACT: note_off channel=6 note=42 velocity=111 time=0
EXTRACT: note_on channel=6 note=39 velocity=111 time=0
EXTRACT: note_off channel=9 note=42 velocity=95 time=0
EXTRACT: note_off channel=9 note=35 velocity=95 time=0
EXTRACT: note_on channel=9 note=42 velocity=95 time=0
EXTRACT: note_off channel=0 note=68 velocity=127 time=0.25
EXTRACT: note_on channel=0 note=70 velocity=127 time=0
EXTRACT: note_off channel=6 note=39 velocity=111 time=0
EXTRACT: note_on channel=6 note=37 velocity=111 time=0
EXTRACT: note_off channel=9 note=42 velocity=95 time=0
EXTRACT: note_on channel=9 note=42 velocity=95 time=0
EXTRACT: note_on channel=9 note=38 velocity=95 time=0
EXTRACT: note_off channel=0 note=70 velocity=127 time=0.25
EXTRACT: note_on channel=0 note=71 velocity=127 time=0
EXTRACT: note_off channel=6 note=37 velocity=111 time=0
EXTRACT: note_on channel=6 note=39 velocity=111 time=0
EXTRACT: note_off channel=9 note=42 velocity=95 time=0
EXTRACT: note_off channel=9 note=38 velocity=95 time=0
EXTRACT: note_on channel=9 note=42 velocity=95 time=0
EXTRACT: note_on channel=2 note=66 velocity=95 time=0.25
EXTRACT: note_on channel=2 note=61 velocity=95 time=0
EXTRACT: note_on channel=2 note=58 velocity=95 time=0
EXTRACT: note_on channel=4 note=66 velocity=95 time=0
EXTRACT: note_on channel=4 note=61 velocity=95 time=0
EXTRACT: note_on channel=4 note=58 velocity=95 time=0
EXTRACT: note_off channel=6 note=39 velocity=111 time=0
EXTRACT: note_on channel=6 note=42 velocity=111 time=0
EXTRACT: note_off channel=9 note=42 velocity=95 time=0
EXTRACT: note_on channel=9 note=42 velocity=95 time=0
EXTRACT: note_on channel=9 note=35 velocity=95 time=0
EXTRACT: note_off channel=0 note=71 velocity=127 time=0.25
EXTRACT: note_on channel=0 note=73 velocity=127 time=0
EXTRACT: note_off channel=2 note=66 velocity=95 time=0
EXTRACT: note_off channel=2 note=61 velocity=95 time=0
EXTRACT: note_off channel=2 note=58 velocity=95 time=0
EXTRACT: note_off channel=4 note=66 velocity=95 time=0
EXTRACT: note_off channel=4 note=61 velocity=95 time=0
EXTRACT: note_off channel=4 note=58 velocity=95 time=0
EXTRACT: note_off channel=6 note=42 velocity=111 time=0
EXTRACT: note_on channel=6 note=39 velocity=111 time=0
EXTRACT: note_off channel=9 note=42 velocity=95 time=0
EXTRACT: note_off channel=9 note=35 velocity=95 time=0
EXTRACT: note_on channel=9 note=42 velocity=95 time=0
EXTRACT: note_off channel=6 note=39 velocity=111 time=0.25
EXTRACT: note_on channel=6 note=37 velocity=111 time=0
EXTRACT: note_off channel=9 note=42 velocity=95 time=0
EXTRACT: note_on channel=9 note=42 velocity=95 time=0
EXTRACT: note_on channel=9 note=38 velocity=95 time=0
EXTRACT: note_off channel=0 note=73 velocity=127 time=0.25
EXTRACT: note_on channel=0 note=70 velocity=127 time=0
EXTRACT: note_on channel=2 note=66 velocity=95 time=0
EXTRACT: note_on channel=2 note=61 velocity=95 time=0
EXTRACT: note_on channel=2 note=58 velocity=95 time=0
EXTRACT: note_on channel=4 note=66 velocity=95 time=0
EXTRACT: note_on channel=4 note=61 velocity=95 time=0
EXTRACT: note_on channel=4 note=58 velocity=95 time=0
EXTRACT: note_off channel=6 note=37 velocity=111 time=0
EXTRACT: note_on channel=6 note=42 velocity=111 time=0
EXTRACT: note_off channel=9 note=42 velocity=95 time=0
EXTRACT: note_off channel=9 note=38 velocity=95 time=0
EXTRACT: note_on channel=9 note=42 velocity=95 time=0
EXTRACT: note_off channel=0 note=70 velocity=127 time=0.25
EXTRACT: note_on channel=0 note=68 velocity=102 time=0
EXTRACT: note_off channel=2 note=66 velocity=95 time=0
EXTRACT: note_off channel=2 note=61 velocity=95 time=0
EXTRACT: note_off channel=2 note=58 velocity=95 time=0
EXTRACT: note_off channel=4 note=66 velocity=95 time=0
EXTRACT: note_off channel=4 note=61 velocity=95 time=0
EXTRACT: note_off channel=4 note=58 velocity=95 time=0
EXTRACT: note_off channel=6 note=42 velocity=111 time=0
EXTRACT: note_on channel=6 note=42 velocity=111 time=0
EXTRACT: note_off channel=9 note=42 velocity=95 time=0
EXTRACT: note_on channel=9 note=42 velocity=95 time=0
EXTRACT: note_on channel=9 note=35 velocity=95 time=0
EXTRACT: note_off channel=6 note=42 velocity=111 time=0.25
EXTRACT: note_on channel=6 note=39 velocity=111 time=0
EXTRACT: note_off channel=9 note=42 velocity=95 time=0
EXTRACT: note_off channel=9 note=35 velocity=95 time=0
EXTRACT: note_on channel=9 note=42 velocity=95 time=0
EXTRACT: note_off channel=9 note=42 velocity=95 time=0.125
EXTRACT: note_on channel=9 note=35 velocity=95 time=0
EXTRACT: note_off channel=0 note=68 velocity=102 time=0.125
EXTRACT: note_on channel=0 note=68 velocity=127 time=0
EXTRACT: note_off channel=6 note=39 velocity=111 time=0
EXTRACT: note_on channel=6 note=37 velocity=111 time=0
EXTRACT: note_off channel=9 note=35 velocity=95 time=0
EXTRACT: note_on channel=9 note=42 velocity=95 time=0
EXTRACT: note_on channel=9 note=38 velocity=95 time=0
EXTRACT: note_off channel=0 note=68 velocity=127 time=0.25
EXTRACT: note_on channel=0 note=66 velocity=127 time=0
EXTRACT: note_off channel=6 note=37 velocity=111 time=0
EXTRACT: note_on channel=6 note=39 velocity=111 time=0
EXTRACT: note_off channel=9 note=42 velocity=95 time=0
EXTRACT: note_off channel=9 note=38 velocity=95 time=0
EXTRACT: note_on channel=9 note=42 velocity=95 time=0
EXTRACT: note_off channel=0 note=66 velocity=127 time=0.25
EXTRACT: note_on channel=0 note=68 velocity=127 time=0
EXTRACT: note_on channel=2 note=68 velocity=95 time=0
EXTRACT: note_on channel=2 note=63 velocity=95 time=0
EXTRACT: note_on channel=2 note=59 velocity=95 time=0
EXTRACT: note_on channel=4 note=68 velocity=95 time=0
EXTRACT: note_on channel=4 note=66 velocity=95 time=0
EXTRACT: note_on channel=4 note=63 velocity=95 time=0
EXTRACT: note_on channel=4 note=59 velocity=95 time=0
EXTRACT: note_off channel=6 note=39 velocity=111 time=0
EXTRACT: note_on channel=6 note=44 velocity=111 time=0
EXTRACT: note_off channel=9 note=42 velocity=95 time=0
EXTRACT: note_on channel=9 note=49 velocity=95 time=0
EXTRACT: note_on channel=9 note=35 velocity=95 time=0
EXTRACT: note_off channel=0 note=68 velocity=127 time=0.25
EXTRACT: note_on channel=0 note=68 velocity=127 time=0
EXTRACT: note_off channel=6 note=44 velocity=111 time=0
EXTRACT: note_on channel=6 note=44 velocity=111 time=0
EXTRACT: note_off channel=9 note=49 velocity=95 time=0
EXTRACT: note_off channel=9 note=35 velocity=95 time=0
EXTRACT: note_on channel=9 note=42 velocity=95 time=0
EXTRACT: note_off channel=2 note=68 velocity=95 time=0.25
EXTRACT: note_off channel=2 note=63 velocity=95 time=0
EXTRACT: note_off channel=2 note=59 velocity=95 time=0
EXTRACT: note_on channel=2 note=68 velocity=95 time=0
EXTRACT: note_on channel=2 note=63 velocity=95 time=0
EXTRACT: note_on channel=2 note=59 velocity=95 time=0
EXTRACT: note_off channel=6 note=44 velocity=111 time=0
EXTRACT: note_on channel=6 note=44 velocity=111 time=0
EXTRACT: note_off channel=9 note=42 velocity=95 time=0
EXTRACT: note_on channel=9 note=38 velocity=95 time=0
EXTRACT: note_off channel=0 note=68 velocity=127 time=0.25
EXTRACT: note_on channel=0 note=68 velocity=102 time=0
EXTRACT: note_off channel=6 note=44 velocity=111 time=0
EXTRACT: note_on channel=6 note=44 velocity=111 time=0
EXTRACT: note_off channel=9 note=38 velocity=95 time=0
EXTRACT: note_on channel=9 note=42 velocity=95 time=0
EXTRACT: note_off channel=0 note=68 velocity=102 time=0.25
EXTRACT: note_on channel=0 note=66 velocity=102 time=0
EXTRACT: note_off channel=2 note=68 velocity=95 time=0
EXTRACT: note_off channel=2 note=63 velocity=95 time=0
EXTRACT: note_off channel=2 note=59 velocity=95 time=0
EXTRACT: note_on channel=2 note=68 velocity=95 time=0
EXTRACT: note_on channel=2 note=63 velocity=95 time=0
EXTRACT: note_on channel=2 note=59 velocity=95 time=0
EXTRACT: note_off channel=6 note=44 velocity=111 time=0
EXTRACT: note_on channel=6 note=44 velocity=111 time=0
EXTRACT: note_off channel=9 note=42 velocity=95 time=0
EXTRACT: note_on channel=9 note=42 velocity=95 time=0
EXTRACT: note_on channel=9 note=35 velocity=95 time=0
EXTRACT: note_off channel=0 note=66 velocity=102 time=0.25
EXTRACT: note_on channel=0 note=63 velocity=102 time=0
EXTRACT: note_off channel=2 note=68 velocity=95 time=0
EXTRACT: note_off channel=2 note=63 velocity=95 time=0
EXTRACT: note_off channel=2 note=59 velocity=95 time=0
EXTRACT: note_on channel=2 note=68 velocity=95 time=0
EXTRACT: note_on channel=2 note=63 velocity=95 time=0
EXTRACT: note_on channel=2 note=59 velocity=95 time=0
EXTRACT: note_off channel=6 note=44 velocity=111 time=0
EXTRACT: note_on channel=6 note=39 velocity=111 time=0
EXTRACT: note_off channel=9 note=42 velocity=95 time=0
EXTRACT: note_off channel=9 note=35 velocity=95 time=0
EXTRACT: note_on channel=9 note=42 velocity=95 time=0
EXTRACT: note_on channel=9 note=35 velocity=95 time=0
EXTRACT: note_off channel=2 note=68 velocity=95 time=0.25
EXTRACT: note_off channel=2 note=63 velocity=95 time=0
EXTRACT: note_off channel=2 note=59 velocity=95 time=0
EXTRACT: note_on channel=2 note=68 velocity=95 time=0
EXTRACT: note_on channel=2 note=63 velocity=95 time=0
EXTRACT: note_on channel=2 note=59 velocity=95 time=0
EXTRACT: note_off channel=6 note=39 velocity=111 time=0
EXTRACT: note_on channel=6 note=44 velocity=111 time=0
EXTRACT: note_off channel=9 note=42 velocity=95 time=0
EXTRACT: note_off channel=9 note=35 velocity=95 time=0
EXTRACT: note_on channel=9 note=42 velocity=95 time=0
EXTRACT: note_on channel=9 note=38 velocity=95 time=0
EXTRACT: note_off channel=2 note=68 velocity=95 time=0.25
EXTRACT: note_off channel=2 note=63 velocity=95 time=0
EXTRACT: note_off channel=2 note=59 velocity=95 time=0
EXTRACT: note_on channel=2 note=66 velocity=95 time=0
EXTRACT: note_on channel=2 note=61 velocity=95 time=0
EXTRACT: note_on channel=2 note=58 velocity=95 time=0
EXTRACT: note_off channel=4 note=68 velocity=95 time=0
EXTRACT: note_off channel=4 note=66 velocity=95 time=0
EXTRACT: note_off channel=4 note=63 velocity=95 time=0
EXTRACT: note_off channel=4 note=59 velocity=95 time=0
EXTRACT: note_on channel=4 note=66 velocity=95 time=0
EXTRACT: note_on channel=4 note=61 velocity=95 time=0
EXTRACT: note_on channel=4 note=58 velocity=95 time=0
EXTRACT: note_off channel=6 note=44 velocity=111 time=0
EXTRACT: note_on channel=6 note=39 velocity=111 time=0
EXTRACT: note_off channel=9 note=42 velocity=95 time=0
EXTRACT: note_off channel=9 note=38 velocity=95 time=0
EXTRACT: note_on channel=9 note=49 velocity=95 time=0
EXTRACT: note_on channel=9 note=35 velocity=95 time=0
EXTRACT: note_off channel=0 note=63 velocity=102 time=0.25
EXTRACT: note_off channel=9 note=35 velocity=95 time=0
EXTRACT: note_off channel=2 note=66 velocity=95 time=0.25
EXTRACT: note_off channel=2 note=61 velocity=95 time=0
EXTRACT: note_off channel=2 note=58 velocity=95 time=0
EXTRACT: note_on channel=2 note=66 velocity=95 time=0
EXTRACT: note_on channel=2 note=61 velocity=95 time=0
EXTRACT: note_on channel=2 note=58 velocity=95 time=0
EXTRACT: note_off channel=6 note=39 velocity=111 time=0
EXTRACT: note_on channel=6 note=39 velocity=111 time=0
EXTRACT: note_off channel=9 note=49 velocity=95 time=0
EXTRACT: note_on channel=9 note=42 velocity=95 time=0
EXTRACT: note_on channel=9 note=35 velocity=95 time=0
EXTRACT: note_off channel=2 note=66 velocity=95 time=0.25
EXTRACT: note_off channel=2 note=61 velocity=95 time=0
EXTRACT: note_off channel=2 note=58 velocity=95 time=0
EXTRACT: note_on channel=2 note=66 velocity=95 time=0
EXTRACT: note_on channel=2 note=61 velocity=95 time=0
EXTRACT: note_on channel=2 note=58 velocity=95 time=0
EXTRACT: note_off channel=6 note=39 velocity=111 time=0
EXTRACT: note_on channel=6 note=39 velocity=111 time=0
EXTRACT: note_off channel=9 note=42 velocity=95 time=0
EXTRACT: note_off channel=9 note=35 velocity=95 time=0
EXTRACT: note_on channel=9 note=42 velocity=95 time=0
EXTRACT: note_on channel=9 note=38 velocity=95 time=0
EXTRACT: note_off channel=2 note=66 velocity=95 time=0.25
EXTRACT: note_off channel=2 note=61 velocity=95 time=0
EXTRACT: note_off channel=2 note=58 velocity=95 time=0
EXTRACT: note_on channel=2 note=64 velocity=95 time=0
EXTRACT: note_on channel=2 note=59 velocity=95 time=0
EXTRACT: note_on channel=2 note=55 velocity=95 time=0
EXTRACT: note_off channel=6 note=39 velocity=111 time=0
EXTRACT: note_on channel=6 note=39 velocity=111 time=0
EXTRACT: note_off channel=9 note=42 velocity=95 time=0
EXTRACT: note_off channel=9 note=38 velocity=95 time=0
EXTRACT: note_on channel=9 note=42 velocity=95 time=0
EXTRACT: note_off channel=2 note=64 velocity=95 time=0.03125
EXTRACT: note_off channel=2 note=59 velocity=95 time=0
EXTRACT: note_off channel=2 note=55 velocity=95 time=0
EXTRACT: note_off channel=9 note=42 velocity=95 time=0.09375
EXTRACT: note_on channel=9 note=35 velocity=95 time=0
EXTRACT: note_on channel=2 note=64 velocity=95 time=0.125
EXTRACT: note_on channel=2 note=59 velocity=95 time=0
EXTRACT: note_on channel=2 note=55 velocity=95 time=0
EXTRACT: note_off channel=6 note=39 velocity=111 time=0
EXTRACT: note_on channel=6 note=39 velocity=111 time=0
EXTRACT: note_off channel=9 note=35 velocity=95 time=0
EXTRACT: note_on channel=9 note=42 velocity=95 time=0
EXTRACT: note_on channel=9 note=35 velocity=95 time=0
EXTRACT: note_off channel=2 note=64 velocity=95 time=0.03125
EXTRACT: note_off channel=2 note=59 velocity=95 time=0
EXTRACT: note_off channel=2 note=55 velocity=95 time=0
EXTRACT: note_on channel=2 note=66 velocity=95 time=0.21875
EXTRACT: note_on channel=2 note=61 velocity=95 time=0
EXTRACT: note_on channel=2 note=58 velocity=95 time=0
EXTRACT: note_off channel=6 note=39 velocity=111 time=0
EXTRACT: note_on channel=6 note=34 velocity=111 time=0
EXTRACT: note_off channel=9 note=42 velocity=95 time=0
EXTRACT: note_off channel=9 note=35 velocity=95 time=0
EXTRACT: note_on channel=9 note=42 velocity=95 time=0
EXTRACT: note_on channel=9 note=35 velocity=95 time=0
EXTRACT: note_on channel=0 note=68 velocity=127 time=0.25
EXTRACT: note_off channel=2 note=66 velocity=95 time=0
EXTRACT: note_off channel=2 note=61 velocity=95 time=0
EXTRACT: note_off channel=2 note=58 velocity=95 time=0
EXTRACT: note_on channel=2 note=66 velocity=95 time=0
EXTRACT: note_on channel=2 note=61 velocity=95 time=0
EXTRACT: note_on channel=2 note=58 velocity=95 time=0
EXTRACT: note_off channel=6 note=34 velocity=111 time=0
EXTRACT: note_on channel=6 note=39 velocity=111 time=0
EXTRACT: note_off channel=9 note=42 velocity=95 time=0
EXTRACT: note_off channel=9 note=35 velocity=95 time=0
EXTRACT: note_on channel=9 note=46 velocity=95 time=0
EXTRACT: note_on channel=9 note=38 velocity=95 time=0
EXTRACT: note_off channel=0 note=68 velocity=127 time=0.25
EXTRACT: note_on channel=0 note=70 velocity=127 time=0
EXTRACT: note_off channel=2 note=66 velocity=95 time=0
EXTRACT: note_off channel=2 note=61 velocity=95 time=0
EXTRACT: note_off channel=2 note=58 velocity=95 time=0
EXTRACT: note_on channel=2 note=64 velocity=95 time=0
EXTRACT: note_on channel=2 note=59 velocity=95 time=0
EXTRACT: note_on channel=2 note=55 velocity=95 time=0
EXTRACT: note_off channel=6 note=39 velocity=111 time=0
EXTRACT: note_on channel=6 note=34 velocity=111 time=0
EXTRACT: note_off channel=2 note=64 velocity=95 time=0.03125
EXTRACT: note_off channel=2 note=59 velocity=95 time=0
EXTRACT: note_off channel=2 note=55 velocity=95 time=0
EXTRACT: note_off channel=0 note=70 velocity=127 time=0.21875
EXTRACT: note_on channel=0 note=71 velocity=127 time=0
EXTRACT: note_on channel=2 note=68 velocity=95 time=0
EXTRACT: note_on channel=2 note=63 velocity=95 time=0
EXTRACT: note_on channel=2 note=59 velocity=95 time=0
EXTRACT: note_off channel=4 note=66 velocity=95 time=0
EXTRACT: note_off channel=4 note=61 velocity=95 time=0
EXTRACT: note_off channel=4 note=58 velocity=95 time=0
EXTRACT: note_on channel=4 note=68 velocity=95 time=0
EXTRACT: note_on channel=4 note=66 velocity=95 time=0
EXTRACT: note_on channel=4 note=63 velocity=95 time=0
EXTRACT: note_on channel=4 note=59 velocity=95 time=0
EXTRACT: note_off channel=6 note=34 velocity=111 time=0
EXTRACT: note_on channel=6 note=44 velocity=111 time=0
EXTRACT: note_off channel=9 note=46 velocity=95 time=0
EXTRACT: note_off channel=9 note=38 velocity=95 time=0
EXTRACT: note_on channel=9 note=49 velocity=95 time=0
EXTRACT: note_on channel=9 note=35 velocity=95 time=0
EXTRACT: note_off channel=0 note=71 velocity=127 time=0.25
EXTRACT: note_on channel=0 note=70 velocity=102 time=0
EXTRACT: note_off channel=6 note=44 velocity=111 time=0
EXTRACT: note_on channel=6 note=44 velocity=111 time=0
EXTRACT: note_off channel=9 note=49 velocity=95 time=0
EXTRACT: note_off channel=9 note=35 velocity=95 time=0
EXTRACT: note_on channel=9 note=42 velocity=95 time=0
EXTRACT: note_off channel=0 note=70 velocity=102 time=0.25
EXTRACT: note_on channel=0 note=68 velocity=102 time=0
EXTRACT: note_off channel=2 note=68 velocity=95 time=0
EXTRACT: note_off channel=2 note=63 velocity=95 time=0
EXTRACT: note_off channel=2 note=59 velocity=95 time=0
EXTRACT: note_on channel=2 note=68 velocity=95 time=0
EXTRACT: note_on channel=2 note=63 velocity=95 time=0
EXTRACT: note_on channel=2 note=59 velocity=95 time=0
EXTRACT: note_off channel=6 note=44 velocity=111 time=0
EXTRACT: note_on channel=6 note=44 velocity=111 time=0
EXTRACT: note_off channel=9 note=42 velocity=95 time=0
EXTRACT: note_on channel=9 note=38 velocity=95 time=0
EXTRACT: note_off channel=0 note=68 velocity=102 time=0.25
EXTRACT: note_on channel=0 note=66 velocity=102 time=0
EXTRACT: note_off channel=6 note=44 velocity=111 time=0
EXTRACT: note_on channel=6 note=44 velocity=111 time=0
EXTRACT: note_off channel=9 note=38 velocity=95 time=0
EXTRACT: note_on channel=9 note=42 velocity=95 time=0
EXTRACT: note_off channel=2 note=68 velocity=95 time=0.25
EXTRACT: note_off channel=2 note=63 velocity=95 time=0
EXTRACT: note_off channel=2 note=59 velocity=95 time=0
EXTRACT: note_on channel=2 note=68 velocity=95 time=0
EXTRACT: note_on channel=2 note=63 velocity=95 time=0
EXTRACT: note_on channel=2 note=59 velocity=95 time=0
EXTRACT: note_off channel=6 note=44 velocity=111 time=0
EXTRACT: note_on channel=6 note=44 velocity=111 time=0
EXTRACT: note_off channel=9 note=42 velocity=95 time=0
EXTRACT: note_on channel=9 note=42 velocity=95 time=0
EXTRACT: note_on channel=9 note=35 velocity=95 time=0
EXTRACT: note_off channel=0 note=66 velocity=102 time=0.25
EXTRACT: note_on channel=0 note=68 velocity=127 time=0
EXTRACT: note_off channel=2 note=68 velocity=95 time=0
EXTRACT: note_off channel=2 note=63 velocity=95 time=0
EXTRACT: note_off channel=2 note=59 velocity=95 time=0
EXTRACT: note_on channel=2 note=68 velocity=95 time=0
EXTRACT: note_on channel=2 note=63 velocity=95 time=0
EXTRACT: note_on channel=2 note=59 velocity=95 time=0
EXTRACT: note_off channel=6 note=44 velocity=111 time=0
EXTRACT: note_on channel=6 note=39 velocity=111 time=0
EXTRACT: note_off channel=9 note=42 velocity=95 time=0
EXTRACT: note_off channel=9 note=35 velocity=95 time=0
EXTRACT: note_on channel=9 note=42 velocity=95 time=0
EXTRACT: note_on channel=9 note=35 velocity=95 time=0
EXTRACT: note_off channel=2 note=68 velocity=95 time=0.25
EXTRACT: note_off channel=2 note=63 velocity=95 time=0
EXTRACT: note_off channel=2 note=59 velocity=95 time=0
EXTRACT: note_on channel=2 note=68 velocity=95 time=0
EXTRACT: note_on channel=2 note=63 velocity=95 time=0
EXTRACT: note_on channel=2 note=59 velocity=95 time=0
EXTRACT: note_off channel=6 note=39 velocity=111 time=0
EXTRACT: note_on channel=6 note=44 velocity=111 time=0
EXTRACT: note_off channel=9 note=42 velocity=95 time=0
EXTRACT: note_off channel=9 note=35 velocity=95 time=0
EXTRACT: note_on channel=9 note=42 velocity=95 time=0
EXTRACT: note_on channel=9 note=38 velocity=95 time=0
EXTRACT: note_off channel=0 note=68 velocity=127 time=0.25
EXTRACT: note_on channel=0 note=68 velocity=127 time=0
EXTRACT: note_off channel=2 note=68 velocity=95 time=0
EXTRACT: note_off channel=2 note=63 velocity=95 time=0
EXTRACT: note_off channel=2 note=59 velocity=95 time=0
EXTRACT: note_on channel=2 note=66 velocity=95 time=0
EXTRACT: note_on channel=2 note=61 velocity=95 time=0
EXTRACT: note_on channel=2 note=58 velocity=95 time=0
EXTRACT: note_off channel=4 note=68 velocity=95 time=0
EXTRACT: note_off channel=4 note=66 velocity=95 time=0
EXTRACT: note_off channel=4 note=63 velocity=95 time=0
EXTRACT: note_off channel=4 note=59 velocity=95 time=0
EXTRACT: note_on channel=4 note=66 velocity=95 time=0
EXTRACT: note_on channel=4 note=61 velocity=95 time=0
EXTRACT: note_on channel=4 note=58 velocity=95 time=0
EXTRACT: note_off channel=6 note=44 velocity=111 time=0
EXTRACT: note_on channel=6 note=39 velocity=111 time=0
EXTRACT: note_off channel=9 note=42 velocity=95 time=0
EXTRACT: note_off channel=9 note=38 velocity=95 time=0
EXTRACT: note_on channel=9 note=49 velocity=95 time=0
EXTRACT: note_on channel=9 note=35 velocity=95 time=0
EXTRACT: note_off channel=0 note=68 velocity=127 time=0.25
EXTRACT: note_on channel=0 note=66 velocity=102 time=0
EXTRACT: note_off channel=9 note=35 velocity=95 time=0
EXTRACT: note_off channel=2 note=66 velocity=95 time=0.25
EXTRACT: note_off channel=2 note=61 velocity=95 time=0
EXTRACT: note_off channel=2 note=58 velocity=95 time=0
EXTRACT: note_on channel=2 note=66 velocity=95 time=0
EXTRACT: note_on channel=2 note=61 velocity=95 time=0
EXTRACT: note_on channel=2 note=58 velocity=95 time=0
EXTRACT: note_off channel=6 note=39 velocity=111 time=0
EXTRACT: note_on channel=6 note=39 velocity=111 time=0
EXTRACT: note_off channel=9 note=49 velocity=95 time=0
EXTRACT: note_on channel=9 note=42 velocity=95 time=0
EXTRACT: note_on channel=9 note=35 velocity=95 time=0
EXTRACT: note_off channel=0 note=66 velocity=102 time=0.25
EXTRACT: note_off channel=2 note=66 velocity=95 time=0
EXTRACT: note_off channel=2 note=61 velocity=95 time=0
EXTRACT: note_off channel=2 note=58 velocity=95 time=0
EXTRACT: note_on channel=2 note=66 velocity=95 time=0
EXTRACT: note_on channel=2 note=61 velocity=95 time=0
EXTRACT: note_on channel=2 note=58 velocity=95 time=0
EXTRACT: note_off channel=6 note=39 velocity=111 time=0
EXTRACT: note_on channel=6 note=39 velocity=111 time=0
EXTRACT: note_off channel=9 note=42 velocity=95 time=0
EXTRACT: note_off channel=9 note=35 velocity=95 time=0
EXTRACT: note_on channel=9 note=42 velocity=95 time=0
EXTRACT: note_on channel=9 note=38 velocity=95 time=0
EXTRACT: note_off channel=2 note=66 velocity=95 time=0.25
EXTRACT: note_off channel=2 note=61 velocity=95 time=0
EXTRACT: note_off channel=2 note=58 velocity=95 time=0
EXTRACT: note_on channel=2 note=64 velocity=95 time=0
EXTRACT: note_on channel=2 note=59 velocity=95 time=0
EXTRACT: note_on channel=2 note=55 velocity=95 time=0
EXTRACT: note_off channel=6 note=39 velocity=111 time=0
EXTRACT: note_on channel=6 note=39 velocity=111 time=0
EXTRACT: note_off channel=9 note=42 velocity=95 time=0
EXTRACT: note_off channel=9 note=38 velocity=95 time=0
EXTRACT: note_on channel=9 note=42 velocity=95 time=0
EXTRACT: note_off channel=2 note=64 velocity=95 time=0.03125
EXTRACT: note_off channel=2 note=59 velocity=95 time=0
EXTRACT: note_off channel=2 note=55 velocity=95 time=0
EXTRACT: note_off channel=9 note=42 velocity=95 time=0.09375
EXTRACT: note_on channel=9 note=35 velocity=95 time=0
EXTRACT: note_on channel=0 note=66 velocity=127 time=0.125
EXTRACT: note_on channel=2 note=64 velocity=95 time=0
EXTRACT: note_on channel=2 note=59 velocity=95 time=0
EXTRACT: note_on channel=2 note=55 velocity=95 time=0
EXTRACT: note_off channel=6 note=39 velocity=111 time=0
EXTRACT: note_on channel=6 note=39 velocity=111 time=0
EXTRACT: note_off channel=9 note=35 velocity=95 time=0
EXTRACT: note_on channel=9 note=42 velocity=95 time=0
EXTRACT: note_on channel=9 note=35 velocity=95 time=0
EXTRACT: note_off channel=2 note=64 velocity=95 time=0.03125
EXTRACT: note_off channel=2 note=59 velocity=95 time=0
EXTRACT: note_off channel=2 note=55 velocity=95 time=0
EXTRACT: note_off channel=0 note=66 velocity=127 time=0.21875
EXTRACT: note_on channel=0 note=68 velocity=127 time=0
EXTRACT: note_on channel=2 note=66 velocity=95 time=0
EXTRACT: note_on channel=2 note=61 velocity=95 time=0
EXTRACT: note_on channel=2 note=58 velocity=95 time=0
EXTRACT: note_off channel=6 note=39 velocity=111 time=0
EXTRACT: note_on channel=6 note=34 velocity=111 time=0
EXTRACT: note_off channel=9 note=42 velocity=95 time=0
EXTRACT: note_off channel=9 note=35 velocity=95 time=0
EXTRACT: note_on channel=9 note=42 velocity=95 time=0
EXTRACT: note_on channel=9 note=35 velocity=95 time=0
EXTRACT: note_off channel=0 note=68 velocity=127 time=0.25
EXTRACT: note_on channel=0 note=70 velocity=127 time=0
EXTRACT: note_off channel=2 note=66 velocity=95 time=0
EXTRACT: note_off channel=2 note=61 velocity=95 time=0
EXTRACT: note_off channel=2 note=58 velocity=95 time=0
EXTRACT: note_on channel=2 note=66 velocity=95 time=0
EXTRACT: note_on channel=2 note=61 velocity=95 time=0
EXTRACT: note_on channel=2 note=58 velocity=95 time=0
EXTRACT: note_off channel=6 note=34 velocity=111 time=0
EXTRACT: note_on channel=6 note=39 velocity=111 time=0
EXTRACT: note_off channel=9 note=42 velocity=95 time=0
EXTRACT: note_off channel=9 note=35 velocity=95 time=0
EXTRACT: note_on channel=9 note=46 velocity=95 time=0
EXTRACT: note_on channel=9 note=38 velocity=95 time=0
EXTRACT: note_off channel=0 note=70 velocity=127 time=0.25
EXTRACT: note_on channel=0 note=70 velocity=127 time=0
EXTRACT: note_off channel=2 note=66 velocity=95 time=0
EXTRACT: note_off channel=2 note=61 velocity=95 time=0
EXTRACT: note_off channel=2 note=58 velocity=95 time=0
EXTRACT: note_on channel=2 note=64 velocity=95 time=0
EXTRACT: note_on channel=2 note=59 velocity=95 time=0
EXTRACT: note_on channel=2 note=55 velocity=95 time=0
EXTRACT: note_off channel=6 note=39 velocity=111 time=0
EXTRACT: note_on channel=6 note=34 velocity=111 time=0
EXTRACT: note_off channel=2 note=64 velocity=95 time=0.03125
EXTRACT: note_off channel=2 note=59 velocity=95 time=0
EXTRACT: note_off channel=2 note=55 velocity=95 time=0
EXTRACT: note_on channel=2 note=66 velocity=95 time=0.21875
EXTRACT: note_on channel=2 note=61 velocity=95 time=0
EXTRACT: note_on channel=2 note=56 velocity=95 time=0
EXTRACT: note_off channel=4 note=66 velocity=95 time=0
EXTRACT: note_off channel=4 note=61 velocity=95 time=0
EXTRACT: note_off channel=4 note=58 velocity=95 time=0
EXTRACT: note_on channel=4 note=66 velocity=95 time=0
EXTRACT: note_on channel=4 note=61 velocity=95 time=0
EXTRACT: note_on channel=4 note=56 velocity=95 time=0
EXTRACT: note_on channel=8 note=66 velocity=95 time=0
EXTRACT: note_on channel=8 note=61 velocity=95 time=0
EXTRACT: note_off channel=6 note=34 velocity=111 time=0
EXTRACT: note_on channel=6 note=37 velocity=111 time=0
EXTRACT: note_off channel=9 note=46 velocity=95 time=0
EXTRACT: note_off channel=9 note=38 velocity=95 time=0
EXTRACT: note_on channel=9 note=49 velocity=95 time=0
EXTRACT: note_on channel=9 note=35 velocity=95 time=0
EXTRACT: note_off channel=2 note=66 velocity=95 time=0.25
EXTRACT: note_off channel=2 note=61 velocity=95 time=0
EXTRACT: note_off channel=2 note=56 velocity=95 time=0
EXTRACT: note_off channel=8 note=66 velocity=95 time=0
EXTRACT: note_off channel=8 note=61 velocity=95 time=0
EXTRACT: note_off channel=6 note=37 velocity=111 time=0
EXTRACT: note_on channel=6 note=37 velocity=111 time=0
EXTRACT: note_off channel=9 note=49 velocity=95 time=0
EXTRACT: note_off channel=9 note=35 velocity=95 time=0
EXTRACT: note_on channel=9 note=42 velocity=95 time=0
EXTRACT: note_on channel=2 note=66 velocity=95 time=0.25
EXTRACT: note_on channel=2 note=61 velocity=95 time=0
EXTRACT: note_on channel=2 note=56 velocity=95 time=0
EXTRACT: note_on channel=8 note=66 velocity=95 time=0
EXTRACT: note_on channel=8 note=61 velocity=95 time=0
EXTRACT: note_off channel=6 note=37 velocity=111 time=0
EXTRACT: note_on channel=6 note=37 velocity=111 time=0
EXTRACT: note_off channel=9 note=42 velocity=95 time=0
EXTRACT: note_on channel=9 note=42 velocity=95 time=0
EXTRACT: note_on channel=9 note=38 velocity=95 time=0
EXTRACT: note_off channel=2 note=66 velocity=95 time=0.25
EXTRACT: note_off channel=2 note=61 velocity=95 time=0
EXTRACT: note_off channel=2 note=56 velocity=95 time=0
EXTRACT: note_off channel=8 note=66 velocity=95 time=0
EXTRACT: note_off channel=8 note=61 velocity=95 time=0
EXTRACT: note_off channel=6 note=37 velocity=111 time=0
EXTRACT: note_on channel=6 note=37 velocity=111 time=0
EXTRACT: note_off channel=9 note=42 velocity=95 time=0
EXTRACT: note_off channel=9 note=38 velocity=95 time=0
EXTRACT: note_on channel=9 note=42 velocity=95 time=0
EXTRACT: note_on channel=2 note=66 velocity=95 time=0.25
EXTRACT: note_on channel=2 note=61 velocity=95 time=0
EXTRACT: note_on channel=2 note=56 velocity=95 time=0
EXTRACT: note_on channel=8 note=66 velocity=95 time=0
EXTRACT: note_on channel=8 note=61 velocity=95 time=0
EXTRACT: note_off channel=6 note=37 velocity=111 time=0
EXTRACT: note_on channel=6 note=37 velocity=111 time=0
EXTRACT: note_off channel=9 note=42 velocity=95 time=0
EXTRACT: note_on channel=9 note=42 velocity=95 time=0
EXTRACT: note_on channel=9 note=35 velocity=95 time=0
EXTRACT: note_off channel=2 note=66 velocity=95 time=0.25
EXTRACT: note_off channel=2 note=61 velocity=95 time=0
EXTRACT: note_off channel=2 note=56 velocity=95 time=0
EXTRACT: note_off channel=8 note=66 velocity=95 time=0
EXTRACT: note_off channel=8 note=61 velocity=95 time=0
EXTRACT: note_off channel=6 note=37 velocity=111 time=0
EXTRACT: note_on channel=6 note=37 velocity=111 time=0
EXTRACT: note_off channel=9 note=42 velocity=95 time=0
EXTRACT: note_off channel=9 note=35 velocity=95 time=0
EXTRACT: note_on channel=9 note=42 velocity=95 time=0
EXTRACT: note_on channel=2 note=65 velocity=95 time=0.25
EXTRACT: note_on channel=2 note=61 velocity=95 time=0
EXTRACT: note_on channel=2 note=56 velocity=95 time=0
EXTRACT: note_off channel=4 note=66 velocity=95 time=0
EXTRACT: note_off channel=4 note=61 velocity=95 time=0
EXTRACT: note_off channel=4 note=56 velocity=95 time=0
EXTRACT: note_on channel=4 note=65 velocity=95 time=0
EXTRACT: note_on channel=4 note=61 velocity=95 time=0
EXTRACT: note_on channel=4 note=56 velocity=95 time=0
EXTRACT: note_on channel=8 note=65 velocity=95 time=0
EXTRACT: note_on channel=8 note=61 velocity=95 time=0
EXTRACT: note_off channel=6 note=37 velocity=111 time=0
EXTRACT: note_on channel=6 note=37 velocity=111 time=0
EXTRACT: note_off channel=9 note=42 velocity=95 time=0
EXTRACT: note_on channel=9 note=42 velocity=95 time=0
EXTRACT: note_on channel=9 note=38 velocity=95 time=0
EXTRACT: note_off channel=2 note=65 velocity=95 time=0.25
EXTRACT: note_off channel=2 note=61 velocity=95 time=0
EXTRACT: note_off channel=2 note=56 velocity=95 time=0
EXTRACT: note_off channel=4 note=65 velocity=95 time=0
EXTRACT: note_off channel=4 note=61 velocity=95 time=0
EXTRACT: note_off channel=4 note=56 velocity=95 time=0
EXTRACT: note_off channel=8 note=65 velocity=95 time=0
EXTRACT: note_off channel=8 note=61 velocity=95 time=0
EXTRACT: note_off channel=6 note=37 velocity=111 time=0
EXTRACT: note_on channel=6 note=37 velocity=111 time=0
EXTRACT: note_off channel=9 note=42 velocity=95 time=0
EXTRACT: note_off channel=9 note=38 velocity=95 time=0
EXTRACT: note_on channel=9 note=42 velocity=95 time=0
EXTRACT: note_off channel=0 note=70 velocity=127 time=0.25
EXTRACT: note_on channel=2 note=63 velocity=95 time=0
EXTRACT: note_on channel=2 note=61 velocity=95 time=0
EXTRACT: note_on channel=2 note=56 velocity=95 time=0
EXTRACT: note_on channel=4 note=63 velocity=95 time=0
EXTRACT: note_on channel=4 note=61 velocity=95 time=0
EXTRACT: note_on channel=4 note=56 velocity=95 time=0
EXTRACT: note_on channel=8 note=63 velocity=95 time=0
EXTRACT: note_on channel=8 note=61 velocity=95 time=0
EXTRACT: note_off channel=6 note=37 velocity=111 time=0
EXTRACT: note_on channel=6 note=37 velocity=111 time=0
EXTRACT: note_off channel=9 note=42 velocity=95 time=0
EXTRACT: note_on channel=9 note=42 velocity=95 time=0
EXTRACT: note_on channel=9 note=35 velocity=95 time=0
EXTRACT: note_off channel=2 note=63 velocity=95 time=0.25
EXTRACT: note_off channel=2 note=61 velocity=95 time=0
EXTRACT: note_off channel=2 note=56 velocity=95 time=0
EXTRACT: note_off channel=4 note=63 velocity=95 time=0
EXTRACT: note_off channel=4 note=61 velocity=95 time=0
EXTRACT: note_off channel=4 note=56 velocity=95 time=0
EXTRACT: note_off channel=8 note=63 velocity=95 time=0
EXTRACT: note_off channel=8 note=61 velocity=95 time=0
EXTRACT: note_off channel=6 note=37 velocity=111 time=0
EXTRACT: note_on channel=6 note=32 velocity=111 time=0
EXTRACT: note_off channel=9 note=42 velocity=95 time=0
EXTRACT: note_off channel=9 note=35 velocity=95 time=0
EXTRACT: note_on channel=9 note=42 velocity=95 time=0
EXTRACT: note_on channel=2 note=63 velocity=95 time=0.25
EXTRACT: note_on channel=2 note=61 velocity=95 time=0
EXTRACT: note_on channel=2 note=56 velocity=95 time=0
EXTRACT: note_on channel=4 note=63 velocity=95 time=0
EXTRACT: note_on channel=4 note=61 velocity=95 time=0
EXTRACT: note_on channel=4 note=56 velocity=95 time=0
EXTRACT: note_on channel=8 note=63 velocity=95 time=0
EXTRACT: note_on channel=8 note=61 velocity=95 time=0
EXTRACT: note_off channel=6 note=32 velocity=111 time=0
EXTRACT: note_on channel=6 note=37 velocity=111 time=0
EXTRACT: note_off channel=9 note=42 velocity=95 time=0
EXTRACT: note_on channel=9 note=42 velocity=95 time=0
EXTRACT: note_on channel=9 note=38 velocity=95 time=0
EXTRACT: note_off channel=2 note=63 velocity=95 time=0.25
EXTRACT: note_off channel=2 note=61 velocity=95 time=0
EXTRACT: note_off channel=2 note=56 velocity=95 time=0
EXTRACT: note_off channel=4 note=63 velocity=95 time=0
EXTRACT: note_off channel=4 note=61 velocity=95 time=0
EXTRACT: note_off channel=4 note=56 velocity=95 time=0
EXTRACT: note_off channel=8 note=63 velocity=95 time=0
EXTRACT: note_off channel=8 note=61 velocity=95 time=0
EXTRACT: note_off channel=6 note=37 velocity=111 time=0
EXTRACT: note_on channel=6 note=32 velocity=111 time=0
EXTRACT: note_off channel=9 note=42 velocity=95 time=0
EXTRACT: note_off channel=9 note=38 velocity=95 time=0
EXTRACT: note_on channel=9 note=42 velocity=95 time=0
EXTRACT: note_on channel=0 note=78 velocity=127 time=0.25
EXTRACT: note_on channel=2 note=65 velocity=95 time=0
EXTRACT: note_on channel=2 note=61 velocity=95 time=0
EXTRACT: note_on channel=2 note=56 velocity=95 time=0
EXTRACT: note_on channel=4 note=65 velocity=95 time=0
EXTRACT: note_on channel=4 note=61 velocity=95 time=0
EXTRACT: note_on channel=4 note=56 velocity=95 time=0
EXTRACT: note_on channel=8 note=65 velocity=95 time=0
EXTRACT: note_on channel=8 note=61 velocity=95 time=0
EXTRACT: note_off channel=6 note=32 velocity=111 time=0
EXTRACT: note_on channel=6 note=37 velocity=111 time=0
EXTRACT: note_off channel=9 note=42 velocity=95 time=0
EXTRACT: note_on channel=9 note=38 velocity=95 time=0
EXTRACT: note_off channel=9 note=38 velocity=95 time=0.125
EXTRACT: note_on channel=9 note=38 velocity=95 time=0
EXTRACT: note_off channel=2 note=65 velocity=95 time=0.125
EXTRACT: note_off channel=2 note=61 velocity=95 time=0
EXTRACT: note_off channel=2 note=56 velocity=95 time=0
EXTRACT: note_off channel=4 note=65 velocity=95 time=0
EXTRACT: note_off channel=4 note=61 velocity=95 time=0
EXTRACT: note_off channel=4 note=56 velocity=95 time=0
EXTRACT: note_off channel=8 note=65 velocity=95 time=0
EXTRACT: note_off channel=8 note=61 velocity=95 time=0
EXTRACT: note_off channel=6 note=37 velocity=111 time=0
EXTRACT: note_off channel=9 note=38 velocity=95 time=0
EXTRACT: note_on channel=9 note=38 velocity=95 time=0
EXTRACT: note_off channel=0 note=78 velocity=127 time=0.25
EXTRACT: note_on channel=0 note=61 velocity=127 time=0
EXTRACT: note_off channel=9 note=38 velocity=95 time=0
EXTRACT: note_on channel=9 note=38 velocity=95 time=0
EXTRACT: note_off channel=0 note=61 velocity=127 time=0.25
EXTRACT: note_on channel=0 note=63 velocity=127 time=0
EXTRACT: note_off channel=0 note=63 velocity=127 time=0.25
EXTRACT: note_on channel=0 note=66 velocity=127 time=0
EXTRACT: note_on channel=11 note=54 velocity=95 time=0
EXTRACT: note_on channel=6 note=42 velocity=111 time=0
EXTRACT: note_off channel=9 note=38 velocity=95 time=0
EXTRACT: note_on channel=9 note=49 velocity=95 time=0
EXTRACT: note_on channel=9 note=35 velocity=95 time=0
EXTRACT: note_off channel=11 note=54 velocity=95 time=0.25
EXTRACT: note_on channel=11 note=54 velocity=95 time=0
EXTRACT: note_on channel=4 note=66 velocity=95 time=0
EXTRACT: note_on channel=4 note=63 velocity=95 time=0
EXTRACT: note_on channel=4 note=61 velocity=95 time=0
EXTRACT: note_on channel=4 note=58 velocity=95 time=0
EXTRACT: note_off channel=6 note=42 velocity=111 time=0
EXTRACT: note_on channel=6 note=39 velocity=111 time=0
EXTRACT: note_off channel=11 note=54 velocity=95 time=0.125
EXTRACT: note_on channel=11 note=54 velocity=95 time=0
EXTRACT: note_off channel=0 note=66 velocity=127 time=0.125
EXTRACT: note_on channel=0 note=63 velocity=127 time=0
EXTRACT: note_off channel=11 note=54 velocity=95 time=0
EXTRACT: note_on channel=11 note=51 velocity=95 time=0
EXTRACT: note_off channel=4 note=66 velocity=95 time=0
EXTRACT: note_off channel=4 note=63 velocity=95 time=0
EXTRACT: note_off channel=4 note=61 velocity=95 time=0
EXTRACT: note_off channel=4 note=58 velocity=95 time=0
EXTRACT: note_on channel=8 note=61 velocity=95 time=0
EXTRACT: note_off channel=6 note=39 velocity=111 time=0
EXTRACT: note_on channel=6 note=37 velocity=111 time=0
EXTRACT: note_off channel=9 note=49 velocity=95 time=0
EXTRACT: note_off channel=9 note=35 velocity=95 time=0
EXTRACT: note_on channel=9 note=42 velocity=95 time=0
EXTRACT: note_on channel=9 note=38 velocity=95 time=0
EXTRACT: note_off channel=11 note=51 velocity=95 time=0.25
EXTRACT: note_on channel=11 note=49 velocity=95 time=0
EXTRACT: note_off channel=6 note=37 velocity=111 time=0
EXTRACT: note_on channel=6 note=42 velocity=111 time=0
EXTRACT: note_off channel=9 note=42 velocity=95 time=0
EXTRACT: note_off channel=9 note=38 velocity=95 time=0
EXTRACT: note_on channel=9 note=42 velocity=95 time=0
EXTRACT: note_off channel=11 note=49 velocity=95 time=0.125
EXTRACT: note_on channel=11 note=51 velocity=70 time=0
EXTRACT: note_off channel=0 note=63 velocity=127 time=0.125
EXTRACT: note_off channel=11 note=51 velocity=70 time=0
EXTRACT: note_on channel=11 note=54 velocity=95 time=0
EXTRACT: note_on channel=4 note=66 velocity=95 time=0
EXTRACT: note_on channel=4 note=63 velocity=95 time=0
EXTRACT: note_on channel=4 note=61 velocity=95 time=0
EXTRACT: note_on channel=4 note=58 velocity=95 time=0
EXTRACT: note_off channel=8 note=61 velocity=95 time=0
EXTRACT: note_on channel=8 note=73 velocity=95 time=0
EXTRACT: note_off channel=6 note=42 velocity=111 time=0
EXTRACT: note_on channel=6 note=42 velocity=111 time=0
EXTRACT: note_off channel=9 note=42 velocity=95 time=0
EXTRACT: note_on channel=9 note=42 velocity=95 time=0
EXTRACT: note_on channel=9 note=35 velocity=95 time=0
EXTRACT: note_off channel=11 note=54 velocity=95 time=0.125
EXTRACT: note_on channel=11 note=54 velocity=95 time=0
EXTRACT: note_off channel=11 note=54 velocity=95 time=0.125
EXTRACT: note_on channel=11 note=51 velocity=95 time=0
EXTRACT: note_off channel=4 note=66 velocity=95 time=0
EXTRACT: note_off channel=4 note=63 velocity=95 time=0
EXTRACT: note_off channel=4 note=61 velocity=95 time=0
EXTRACT: note_off channel=4 note=58 velocity=95 time=0
EXTRACT: note_off channel=6 note=42 velocity=111 time=0
EXTRACT: note_on channel=6 note=39 velocity=111 time=0
EXTRACT: note_off channel=9 note=42 velocity=95 time=0
EXTRACT: note_off channel=9 note=35 velocity=95 time=0
EXTRACT: note_on channel=9 note=42 velocity=95 time=0
EXTRACT: note_on channel=0 note=78 velocity=127 time=0.25
EXTRACT: note_off channel=11 note=51 velocity=95 time=0
EXTRACT: note_on channel=11 note=49 velocity=95 time=0
EXTRACT: note_off channel=8 note=73 velocity=95 time=0
EXTRACT: note_on channel=8 note=70 velocity=95 time=0
EXTRACT: note_off channel=6 note=39 velocity=111 time=0
EXTRACT: note_on channel=6 note=37 velocity=111 time=0
EXTRACT: note_off channel=9 note=42 velocity=95 time=0
EXTRACT: note_on channel=9 note=42 velocity=95 time=0
EXTRACT: note_on channel=9 note=38 velocity=95 time=0
EXTRACT: note_off channel=11 note=49 velocity=95 time=0.25
EXTRACT: note_on channel=11 note=51 velocity=95 time=0
EXTRACT: note_off channel=6 note=37 velocity=111 time=0
EXTRACT: note_on channel=6 note=39 velocity=111 time=0
EXTRACT: note_off channel=9 note=42 velocity=95 time=0
EXTRACT: note_off channel=9 note=38 velocity=95 time=0
EXTRACT: note_on channel=9 note=42 velocity=95 time=0
EXTRACT: note_off channel=0 note=78 velocity=127 time=0.25
EXTRACT: note_off channel=11 note=51 velocity=95 time=0
EXTRACT: note_on channel=11 note=54 velocity=95 time=0
EXTRACT: note_on channel=4 note=66 velocity=95 time=0
EXTRACT: note_on channel=4 note=63 velocity=95 time=0
EXTRACT: note_on channel=4 note=61 velocity=95 time=0
EXTRACT: note_on channel=4 note=58 velocity=95 time=0
EXTRACT: note_off channel=8 note=70 velocity=95 time=0
EXTRACT: note_on channel=8 note=66 velocity=95 time=0
EXTRACT: note_off channel=6 note=39 velocity=111 time=0
EXTRACT: note_on channel=6 note=42 velocity=111 time=0
EXTRACT: note_off channel=9 note=42 velocity=95 time=0
EXTRACT: note_on channel=9 note=42 velocity=95 time=0
EXTRACT: note_on channel=9 note=35 velocity=95 time=0
EXTRACT: note_off channel=11 note=54 velocity=95 time=0.25
EXTRACT: note_on channel=11 note=54 velocity=95 time=0
EXTRACT: note_off channel=4 note=66 velocity=95 time=0
EXTRACT: note_off channel=4 note=63 velocity=95 time=0
EXTRACT: note_off channel=4 note=61 velocity=95 time=0
EXTRACT: note_off channel=4 note=58 velocity=95 time=0
EXTRACT: note_off channel=6 note=42 velocity=111 time=0
EXTRACT: note_on channel=6 note=39 velocity=111 time=0
EXTRACT: note_off channel=9 note=42 velocity=95 time=0
EXTRACT: note_off channel=9 note=35 velocity=95 time=0
EXTRACT: note_on channel=9 note=42 velocity=95 time=0
EXTRACT: note_off channel=11 note=54 velocity=95 time=0.125
EXTRACT: note_on channel=11 note=54 velocity=95 time=0
EXTRACT: note_off channel=11 note=54 velocity=95 time=0.125
EXTRACT: note_on channel=11 note=51 velocity=95 time=0
EXTRACT: note_off channel=8 note=66 velocity=95 time=0
EXTRACT: note_off channel=6 note=39 velocity=111 time=0
EXTRACT: note_on channel=6 note=37 velocity=111 time=0
EXTRACT: note_off channel=9 note=42 velocity=95 time=0
EXTRACT: note_on channel=9 note=42 velocity=95 time=0
EXTRACT: note_on channel=9 note=38 velocity=95 time=0
EXTRACT: note_off channel=11 note=51 velocity=95 time=0.25
EXTRACT: note_on channel=11 note=49 velocity=95 time=0
EXTRACT: note_on channel=4 note=66 velocity=95 time=0
EXTRACT: note_on channel=4 note=63 velocity=95 time=0
EXTRACT: note_on channel=4 note=61 velocity=95 time=0
EXTRACT: note_on channel=4 note=58 velocity=95 time=0
EXTRACT: note_off channel=6 note=37 velocity=111 time=0
EXTRACT: note_on channel=6 note=42 velocity=111 time=0
EXTRACT: note_off channel=9 note=42 velocity=95 time=0
EXTRACT: note_off channel=9 note=38 velocity=95 time=0
EXTRACT: note_on channel=9 note=42 velocity=95 time=0
EXTRACT: note_off channel=11 note=49 velocity=95 time=0.125
EXTRACT: note_on channel=11 note=51 velocity=70 time=0
EXTRACT: note_on channel=0 note=68 velocity=127 time=0.125
EXTRACT: note_off channel=11 note=51 velocity=70 time=0
EXTRACT: note_on channel=11 note=54 velocity=95 time=0
EXTRACT: note_off channel=4 note=66 velocity=95 time=0
EXTRACT: note_off channel=4 note=63 velocity=95 time=0
EXTRACT: note_off channel=4 note=61 velocity=95 time=0
EXTRACT: note_off channel=4 note=58 velocity=95 time=0
EXTRACT: note_off channel=6 note=42 velocity=111 time=0
EXTRACT: note_on channel=6 note=42 velocity=111 time=0
EXTRACT: note_off channel=9 note=42 velocity=95 time=0
EXTRACT: note_on channel=9 note=42 velocity=95 time=0
EXTRACT: note_on channel=9 note=35 velocity=95 time=0
EXTRACT: note_off channel=11 note=54 velocity=95 time=0.125
EXTRACT: note_on channel=11 note=54 velocity=95 time=0
EXTRACT: note_off channel=11 note=54 velocity=95 time=0.125
EXTRACT: note_on channel=11 note=51 velocity=95 time=0
EXTRACT: note_off channel=6 note=42 velocity=111 time=0
EXTRACT: note_on channel=6 note=39 velocity=111 time=0
EXTRACT: note_off channel=9 note=42 velocity=95 time=0
EXTRACT: note_off channel=9 note=35 velocity=95 time=0
EXTRACT: note_on channel=9 note=42 velocity=95 time=0
EXTRACT: note_off channel=0 note=68 velocity=127 time=0.25
EXTRACT: note_on channel=0 note=68 velocity=127 time=0
EXTRACT: note_off channel=11 note=51 velocity=95 time=0
EXTRACT: note_on channel=11 note=49 velocity=95 time=0
EXTRACT: note_off channel=6 note=39 velocity=111 time=0
EXTRACT: note_on channel=6 note=37 velocity=111 time=0
EXTRACT: note_off channel=9 note=42 velocity=95 time=0
EXTRACT: note_on channel=9 note=42 velocity=95 time=0
EXTRACT: note_on channel=9 note=38 velocity=95 time=0
EXTRACT: note_off channel=0 note=68 velocity=127 time=0.25
EXTRACT: note_on channel=0 note=66 velocity=127 time=0
EXTRACT: note_off channel=11 note=49 velocity=95 time=0
EXTRACT: note_on channel=11 note=51 velocity=95 time=0
EXTRACT: note_off channel=6 note=37 velocity=111 time=0
EXTRACT: note_on channel=6 note=39 velocity=111 time=0
EXTRACT: note_off channel=9 note=42 velocity=95 time=0
EXTRACT: note_off channel=9 note=38 velocity=95 time=0
EXTRACT: note_on channel=9 note=42 velocity=95 time=0
EXTRACT: note_off channel=0 note=66 velocity=127 time=0.25
EXTRACT: note_on channel=0 note=68 velocity=127 time=0
EXTRACT: note_off channel=11 note=51 velocity=95 time=0
EXTRACT: note_on channel=11 note=54 velocity=95 time=0
EXTRACT: note_off channel=6 note=39 velocity=111 time=0
EXTRACT: note_on channel=6 note=42 velocity=111 time=0
EXTRACT: note_off channel=9 note=42 velocity=95 time=0
EXTRACT: note_on channel=9 note=42 velocity=95 time=0
EXTRACT: note_on channel=9 note=35 velocity=95 time=0
EXTRACT: note_off channel=0 note=68 velocity=127 time=0.25
EXTRACT: note_on channel=0 note=68 velocity=127 time=0
EXTRACT: note_off channel=11 note=54 velocity=95 time=0
EXTRACT: note_on channel=11 note=54 velocity=95 time=0
EXTRACT: note_on channel=4 note=66 velocity=95 time=0
EXTRACT: note_on channel=4 note=63 velocity=95 time=0
EXTRACT: note_on channel=4 note=61 velocity=95 time=0
EXTRACT: note_on channel=4 note=58 velocity=95 time=0
EXTRACT: note_off channel=6 note=42 velocity=111 time=0
EXTRACT: note_on channel=6 note=39 velocity=111 time=0
EXTRACT: note_off channel=9 note=42 velocity=95 time=0
EXTRACT: note_off channel=9 note=35 velocity=95 time=0
EXTRACT: note_on channel=9 note=42 velocity=95 time=0
EXTRACT: note_off channel=11 note=54 velocity=95 time=0.125
EXTRACT: note_on channel=11 note=54 velocity=95 time=0
EXTRACT: note_off channel=0 note=68 velocity=127 time=0.125
EXTRACT: note_on channel=0 note=73 velocity=127 time=0
EXTRACT: note_off channel=11 note=54 velocity=95 time=0
EXTRACT: note_on channel=11 note=51 velocity=95 time=0
EXTRACT: note_off channel=4 note=66 velocity=95 time=0
EXTRACT: note_off channel=4 note=63 velocity=95 time=0
EXTRACT: note_off channel=4 note=61 velocity=95 time=0
EXTRACT: note_off channel=4 note=58 velocity=95 time=0
EXTRACT: note_off channel=6 note=39 velocity=111 time=0
EXTRACT: note_on channel=6 note=37 velocity=111 time=0
EXTRACT: note_off channel=9 note=42 velocity=95 time=0
EXTRACT: note_on channel=9 note=42 velocity=95 time=0
EXTRACT: note_on channel=9 note=38 velocity=95 time=0
EXTRACT: note_off channel=11 note=51 velocity=95 time=0.25
EXTRACT: note_on channel=11 note=49 velocity=95 time=0
EXTRACT: note_off channel=6 note=37 velocity=111 time=0
EXTRACT: note_on channel=6 note=42 velocity=111 time=0
EXTRACT: note_off channel=9 note=42 velocity=95 time=0
EXTRACT: note_off channel=9 note=38 velocity=95 time=0
EXTRACT: note_on channel=9 note=42 velocity=95 time=0
EXTRACT: note_off channel=11 note=49 velocity=95 time=0.125
EXTRACT: note_on channel=11 note=51 velocity=70 time=0
EXTRACT: note_off channel=0 note=73 velocity=127 time=0.125
EXTRACT: note_on channel=1 note=70 velocity=127 time=0
EXTRACT: note_off channel=11 note=51 velocity=70 time=0
EXTRACT: note_on channel=11 note=54 velocity=95 time=0
EXTRACT: note_on channel=4 note=66 velocity=95 time=0
EXTRACT: note_on channel=4 note=63 velocity=95 time=0
EXTRACT: note_on channel=4 note=61 velocity=95 time=0
EXTRACT: note_on channel=4 note=58 velocity=95 time=0
EXTRACT: note_on channel=8 note=61 velocity=95 time=0
EXTRACT: note_off channel=6 note=42 velocity=111 time=0
EXTRACT: note_on channel=6 note=42 velocity=111 time=0
EXTRACT: note_off channel=9 note=42 velocity=95 time=0
EXTRACT: note_on channel=9 note=42 velocity=95 time=0
EXTRACT: note_on channel=9 note=35 velocity=95 time=0
EXTRACT: note_off channel=11 note=54 velocity=95 time=0.125
EXTRACT: note_on channel=11 note=54 velocity=95 time=0
EXTRACT: note_off channel=11 note=54 velocity=95 time=0.125
EXTRACT: note_on channel=11 note=51 velocity=95 time=0
EXTRACT: note_off channel=4 note=66 velocity=95 time=0
EXTRACT: note_off channel=4 note=63 velocity=95 time=0
EXTRACT: note_off channel=4 note=61 velocity=95 time=0
EXTRACT: note_off channel=4 note=58 velocity=95 time=0
EXTRACT: note_off channel=6 note=42 velocity=111 time=0
EXTRACT: note_on channel=6 note=39 velocity=111 time=0
EXTRACT: note_off channel=9 note=42 velocity=95 time=0
EXTRACT: note_off channel=9 note=35 velocity=95 time=0
EXTRACT: note_on channel=9 note=42 velocity=95 time=0
EXTRACT: note_off channel=11 note=51 velocity=95 time=0.25
EXTRACT: note_on channel=11 note=49 velocity=95 time=0
EXTRACT: note_off channel=8 note=61 velocity=95 time=0
EXTRACT: note_on channel=8 note=73 velocity=95 time=0
EXTRACT: note_off channel=6 note=39 velocity=111 time=0
EXTRACT: note_on channel=6 note=37 velocity=111 time=0
EXTRACT: note_off channel=9 note=42 velocity=95 time=0
EXTRACT: note_on channel=9 note=42 velocity=95 time=0
EXTRACT: note_on channel=9 note=38 velocity=95 time=0
EXTRACT: note_off channel=11 note=49 velocity=95 time=0.25
EXTRACT: note_on channel=11 note=51 velocity=95 time=0
EXTRACT: note_off channel=6 note=37 velocity=111 time=0
EXTRACT: note_on channel=6 note=39 velocity=111 time=0
EXTRACT: note_off channel=9 note=42 velocity=95 time=0
EXTRACT: note_off channel=9 note=38 velocity=95 time=0
EXTRACT: note_on channel=9 note=42 velocity=95 time=0
EXTRACT: note_off channel=1 note=70 velocity=127 time=0.25
EXTRACT: note_off channel=11 note=51 velocity=95 time=0
EXTRACT: note_on channel=11 note=54 velocity=95 time=0
EXTRACT: note_on channel=4 note=66 velocity=95 time=0
EXTRACT: note_on channel=4 note=63 velocity=95 time=0
EXTRACT: note_on channel=4 note=61 velocity=95 time=0
EXTRACT: note_on channel=4 note=58 velocity=95 time=0
EXTRACT: note_off channel=8 note=73 velocity=95 time=0
EXTRACT: note_on channel=8 note=70 velocity=95 time=0
EXTRACT: note_off channel=6 note=39 velocity=111 time=0
EXTRACT: note_on channel=6 note=42 velocity=111 time=0
EXTRACT: note_off channel=9 note=42 velocity=95 time=0
EXTRACT: note_on channel=9 note=42 velocity=95 time=0
EXTRACT: note_on channel=9 note=35 velocity=95 time=0
EXTRACT: note_off channel=11 note=54 velocity=95 time=0.25
EXTRACT: note_on channel=11 note=54 velocity=95 time=0
EXTRACT: note_off channel=4 note=66 velocity=95 time=0
EXTRACT: note_off channel=4 note=63 velocity=95 time=0
EXTRACT: note_off channel=4 note=61 velocity=95 time=0
EXTRACT: note_off channel=4 note=58 velocity=95 time=0
EXTRACT: note_off channel=6 note=42 velocity=111 time=0
EXTRACT: note_on channel=6 note=39 velocity=111 time=0
EXTRACT: note_off channel=9 note=42 velocity=95 time=0
EXTRACT: note_off channel=9 note=35 velocity=95 time=0
EXTRACT: note_on channel=9 note=42 velocity=95 time=0
EXTRACT: note_off channel=11 note=54 velocity=95 time=0.125
EXTRACT: note_on channel=11 note=54 velocity=95 time=0
EXTRACT: note_off channel=11 note=54 velocity=95 time=0.125
EXTRACT: note_on channel=11 note=51 velocity=95 time=0
EXTRACT: note_off channel=8 note=70 velocity=95 time=0
EXTRACT: note_on channel=8 note=66 velocity=95 time=0
EXTRACT: note_off channel=6 note=39 velocity=111 time=0
EXTRACT: note_on channel=6 note=37 velocity=111 time=0
EXTRACT: note_off channel=9 note=42 velocity=95 time=0
EXTRACT: note_on channel=9 note=42 velocity=95 time=0
EXTRACT: note_on channel=9 note=38 velocity=95 time=0
EXTRACT: note_off channel=11 note=51 velocity=95 time=0.25
EXTRACT: note_on channel=11 note=49 velocity=95 time=0
EXTRACT: note_on channel=4 note=66 velocity=95 time=0
EXTRACT: note_on channel=4 note=63 velocity=95 time=0
EXTRACT: note_on channel=4 note=61 velocity=95 time=0
EXTRACT: note_on channel=4 note=58 velocity=95 time=0
EXTRACT: note_off channel=6 note=37 velocity=111 time=0
EXTRACT: note_on channel=6 note=42 velocity=111 time=0
EXTRACT: note_off channel=9 note=42 velocity=95 time=0
EXTRACT: note_off channel=9 note=38 velocity=95 time=0
EXTRACT: note_on channel=9 note=42 velocity=95 time=0
EXTRACT: note_off channel=11 note=49 velocity=95 time=0.125
EXTRACT: note_on channel=11 note=51 velocity=70 time=0
EXTRACT: note_off channel=11 note=51 velocity=70 time=0.125
EXTRACT: note_on channel=11 note=54 velocity=95 time=0
EXTRACT: note_off channel=4 note=66 velocity=95 time=0
EXTRACT: note_off channel=4 note=63 velocity=95 time=0
EXTRACT: note_off channel=4 note=61 velocity=95 time=0
EXTRACT: note_off channel=4 note=58 velocity=95 time=0
EXTRACT: note_off channel=8 note=66 velocity=95 time=0
EXTRACT: note_on channel=8 note=68 velocity=95 time=0
EXTRACT: note_off channel=6 note=42 velocity=111 time=0
EXTRACT: note_on channel=6 note=42 velocity=111 time=0
EXTRACT: note_off channel=9 note=42 velocity=95 time=0
EXTRACT: note_on channel=9 note=42 velocity=95 time=0
EXTRACT: note_on channel=9 note=35 velocity=95 time=0
EXTRACT: note_off channel=11 note=54 velocity=95 time=0.125
EXTRACT: note_on channel=11 note=54 velocity=95 time=0
EXTRACT: note_off channel=11 note=54 velocity=95 time=0.125
EXTRACT: note_on channel=11 note=51 velocity=95 time=0
EXTRACT: note_off channel=6 note=42 velocity=111 time=0
EXTRACT: note_on channel=6 note=39 velocity=111 time=0
EXTRACT: note_off channel=9 note=42 velocity=95 time=0
EXTRACT: note_off channel=9 note=35 velocity=95 time=0
EXTRACT: note_on channel=9 note=42 velocity=95 time=0
EXTRACT: note_on channel=0 note=61 velocity=127 time=0.25
EXTRACT: note_off channel=11 note=51 velocity=95 time=0
EXTRACT: note_on channel=11 note=49 velocity=95 time=0
EXTRACT: note_off channel=8 note=68 velocity=95 time=0
EXTRACT: note_off channel=6 note=39 velocity=111 time=0
EXTRACT: note_on channel=6 note=37 velocity=111 time=0
EXTRACT: note_off channel=9 note=42 velocity=95 time=0
EXTRACT: note_on channel=9 note=42 velocity=95 time=0
EXTRACT: note_on channel=9 note=38 velocity=95 time=0
EXTRACT: note_off channel=0 note=61 velocity=127 time=0.25
EXTRACT: note_on channel=0 note=63 velocity=127 time=0
EXTRACT: note_off channel=11 note=49 velocity=95 time=0
EXTRACT: note_on channel=11 note=51 velocity=95 time=0
EXTRACT: note_off channel=6 note=37 velocity=111 time=0
EXTRACT: note_on channel=6 note=39 velocity=111 time=0
EXTRACT: note_off channel=9 note=42 velocity=95 time=0
EXTRACT: note_off channel=9 note=38 velocity=95 time=0
EXTRACT: note_on channel=9 note=42 velocity=95 time=0
EXTRACT: note_off channel=9 note=42 velocity=95 time=0.125
EXTRACT: note_on channel=9 note=38 velocity=95 time=0
EXTRACT: note_off channel=0 note=63 velocity=127 time=0.125
EXTRACT: note_on channel=0 note=70 velocity=127 time=0
EXTRACT: note_off channel=11 note=51 velocity=95 time=0
EXTRACT: note_on channel=11 note=56 velocity=95 time=0
EXTRACT: note_on channel=4 note=68 velocity=95 time=0
EXTRACT: note_on channel=4 note=66 velocity=95 time=0
EXTRACT: note_on channel=4 note=63 velocity=95 time=0
EXTRACT: note_on channel=4 note=59 velocity=95 time=0
EXTRACT: note_off channel=6 note=39 velocity=111 time=0
EXTRACT: note_on channel=6 note=44 velocity=111 time=0
EXTRACT: note_off channel=9 note=38 velocity=95 time=0
EXTRACT: note_on channel=9 note=49 velocity=95 time=0
EXTRACT: note_on channel=9 note=35 velocity=95 time=0
EXTRACT: note_off channel=11 note=56 velocity=95 time=0.25
EXTRACT: note_on channel=11 note=56 velocity=95 time=0
EXTRACT: note_off channel=4 note=68 velocity=95 time=0
EXTRACT: note_off channel=4 note=66 velocity=95 time=0
EXTRACT: note_off channel=4 note=63 velocity=95 time=0
EXTRACT: note_off channel=4 note=59 velocity=95 time=0
EXTRACT: note_off channel=6 note=44 velocity=111 time=0
EXTRACT: note_on channel=6 note=44 velocity=111 time=0
EXTRACT: note_off channel=11 note=56 velocity=95 time=0.125
EXTRACT: note_on channel=11 note=56 velocity=95 time=0
EXTRACT: note_off channel=0 note=70 velocity=127 time=0.125
EXTRACT: note_on channel=0 note=68 velocity=102 time=0
EXTRACT: note_off channel=11 note=56 velocity=95 time=0
EXTRACT: note_on channel=11 note=56 velocity=95 time=0
EXTRACT: note_off channel=6 note=44 velocity=111 time=0
EXTRACT: note_on channel=6 note=44 velocity=111 time=0
EXTRACT: note_off channel=9 note=49 velocity=95 time=0
EXTRACT: note_off channel=9 note=35 velocity=95 time=0
EXTRACT: note_on channel=9 note=42 velocity=95 time=0
EXTRACT: note_on channel=9 note=38 velocity=95 time=0
EXTRACT: note_off channel=11 note=56 velocity=95 time=0.25
EXTRACT: note_on channel=11 note=56 velocity=95 time=0
EXTRACT: note_on channel=4 note=68 velocity=95 time=0
EXTRACT: note_on channel=4 note=66 velocity=95 time=0
EXTRACT: note_on channel=4 note=63 velocity=95 time=0
EXTRACT: note_on channel=4 note=59 velocity=95 time=0
EXTRACT: note_off channel=6 note=44 velocity=111 time=0
EXTRACT: note_on channel=6 note=44 velocity=111 time=0
EXTRACT: note_off channel=9 note=42 velocity=95 time=0
EXTRACT: note_off channel=9 note=38 velocity=95 time=0
EXTRACT: note_on channel=9 note=42 velocity=95 time=0
EXTRACT: note_off channel=11 note=56 velocity=95 time=0.125
EXTRACT: note_on channel=11 note=56 velocity=95 time=0
EXTRACT: note_off channel=0 note=68 velocity=102 time=0.125
EXTRACT: note_on channel=0 note=66 velocity=102 time=0
EXTRACT: note_off channel=11 note=56 velocity=95 time=0
EXTRACT: note_on channel=11 note=56 velocity=95 time=0
EXTRACT: note_off channel=4 note=68 velocity=95 time=0
EXTRACT: note_off channel=4 note=66 velocity=95 time=0
EXTRACT: note_off channel=4 note=63 velocity=95 time=0
EXTRACT: note_off channel=4 note=59 velocity=95 time=0
EXTRACT: note_off channel=6 note=44 velocity=111 time=0
EXTRACT: note_on channel=6 note=44 velocity=111 time=0
EXTRACT: note_off channel=9 note=42 velocity=95 time=0
EXTRACT: note_on channel=9 note=42 velocity=95 time=0
EXTRACT: note_on channel=9 note=35 velocity=95 time=0
EXTRACT: note_off channel=11 note=56 velocity=95 time=0.125
EXTRACT: note_on channel=11 note=56 velocity=95 time=0
EXTRACT: note_off channel=0 note=66 velocity=102 time=0.125
EXTRACT: note_on channel=0 note=68 velocity=102 time=0
EXTRACT: note_off channel=11 note=56 velocity=95 time=0
EXTRACT: note_on channel=11 note=56 velocity=95 time=0
EXTRACT: note_off channel=6 note=44 velocity=111 time=0
EXTRACT: note_on channel=6 note=44 velocity=111 time=0
EXTRACT: note_off channel=9 note=42 velocity=95 time=0
EXTRACT: note_off channel=9 note=35 velocity=95 time=0
EXTRACT: note_on channel=9 note=42 velocity=95 time=0
EXTRACT: note_off channel=11 note=56 velocity=95 time=0.25
EXTRACT: note_on channel=11 note=56 velocity=95 time=0
EXTRACT: note_off channel=6 note=44 velocity=111 time=0
EXTRACT: note_on channel=6 note=39 velocity=111 time=0
EXTRACT: note_off channel=9 note=42 velocity=95 time=0
EXTRACT: note_on channel=9 note=42 velocity=95 time=0
EXTRACT: note_on channel=9 note=38 velocity=95 time=0
EXTRACT: note_off channel=0 note=68 velocity=102 time=0.25
EXTRACT: note_on channel=0 note=61 velocity=127 time=0
EXTRACT: note_off channel=11 note=56 velocity=95 time=0
EXTRACT: note_on channel=11 note=56 velocity=95 time=0
EXTRACT: note_off channel=6 note=39 velocity=111 time=0
EXTRACT: note_on channel=6 note=44 velocity=111 time=0
EXTRACT: note_off channel=9 note=42 velocity=95 time=0
EXTRACT: note_off channel=9 note=38 velocity=95 time=0
EXTRACT: note_on channel=9 note=42 velocity=95 time=0
EXTRACT: note_off channel=0 note=61 velocity=127 time=0.25
EXTRACT: note_on channel=0 note=63 velocity=102 time=0
EXTRACT: note_off channel=11 note=56 velocity=95 time=0
EXTRACT: note_on channel=11 note=56 velocity=95 time=0
EXTRACT: note_on channel=4 note=68 velocity=95 time=0
EXTRACT: note_on channel=4 note=66 velocity=95 time=0
EXTRACT: note_on channel=4 note=63 velocity=95 time=0
EXTRACT: note_on channel=4 note=59 velocity=95 time=0
EXTRACT: note_off channel=6 note=44 velocity=111 time=0
EXTRACT: note_on channel=6 note=32 velocity=111 time=0
EXTRACT: note_off channel=9 note=42 velocity=95 time=0
EXTRACT: note_on channel=9 note=42 velocity=95 time=0
EXTRACT: note_on channel=9 note=35 velocity=95 time=0
EXTRACT: note_off channel=11 note=56 velocity=95 time=0.25
EXTRACT: note_on channel=11 note=56 velocity=95 time=0
EXTRACT: note_off channel=4 note=68 velocity=95 time=0
EXTRACT: note_off channel=4 note=66 velocity=95 time=0
EXTRACT: note_off channel=4 note=63 velocity=95 time=0
EXTRACT: note_off channel=4 note=59 velocity=95 time=0
EXTRACT: note_off channel=6 note=32 velocity=111 time=0
EXTRACT: note_on channel=6 note=32 velocity=111 time=0
EXTRACT: note_off channel=9 note=42 velocity=95 time=0
EXTRACT: note_off channel=9 note=35 velocity=95 time=0
EXTRACT: note_on channel=9 note=42 velocity=95 time=0
EXTRACT: note_off channel=11 note=56 velocity=95 time=0.125
EXTRACT: note_on channel=11 note=56 velocity=95 time=0
EXTRACT: note_off channel=0 note=63 velocity=102 time=0.125
EXTRACT: note_off channel=11 note=56 velocity=95 time=0
EXTRACT: note_on channel=11 note=56 velocity=95 time=0
EXTRACT: note_on channel=8 note=61 velocity=95 time=0
EXTRACT: note_off channel=6 note=32 velocity=111 time=0
EXTRACT: note_on channel=6 note=32 velocity=111 time=0
EXTRACT: note_off channel=9 note=42 velocity=95 time=0
EXTRACT: note_on channel=9 note=42 velocity=95 time=0
EXTRACT: note_on channel=9 note=38 velocity=95 time=0
EXTRACT: note_off channel=11 note=56 velocity=95 time=0.25
EXTRACT: note_on channel=11 note=56 velocity=95 time=0
EXTRACT: note_on channel=4 note=68 velocity=95 time=0
EXTRACT: note_on channel=4 note=66 velocity=95 time=0
EXTRACT: note_on channel=4 note=63 velocity=95 time=0
EXTRACT: note_on channel=4 note=59 velocity=95 time=0
EXTRACT: note_off channel=6 note=32 velocity=111 time=0
EXTRACT: note_on channel=6 note=32 velocity=111 time=0
EXTRACT: note_off channel=9 note=42 velocity=95 time=0
EXTRACT: note_off channel=9 note=38 velocity=95 time=0
EXTRACT: note_on channel=9 note=42 velocity=95 time=0
EXTRACT: note_off channel=11 note=56 velocity=95 time=0.125
EXTRACT: note_on channel=11 note=56 velocity=95 time=0
EXTRACT: note_off channel=11 note=56 velocity=95 time=0.125
EXTRACT: note_on channel=11 note=56 velocity=95 time=0
EXTRACT: note_off channel=4 note=68 velocity=95 time=0
EXTRACT: note_off channel=4 note=66 velocity=95 time=0
EXTRACT: note_off channel=4 note=63 velocity=95 time=0
EXTRACT: note_off channel=4 note=59 velocity=95 time=0
EXTRACT: note_off channel=8 note=61 velocity=95 time=0
EXTRACT: note_on channel=8 note=73 velocity=95 time=0
EXTRACT: note_off channel=6 note=32 velocity=111 time=0
EXTRACT: note_on channel=6 note=32 velocity=111 time=0
EXTRACT: note_off channel=9 note=42 velocity=95 time=0
EXTRACT: note_on channel=9 note=38 velocity=95 time=0
EXTRACT: note_off channel=11 note=56 velocity=95 time=0.125
EXTRACT: note_on channel=11 note=56 velocity=95 time=0
EXTRACT: note_off channel=9 note=38 velocity=95 time=0
EXTRACT: note_on channel=9 note=38 velocity=95 time=0
EXTRACT: note_off channel=11 note=56 velocity=95 time=0.125
EXTRACT: note_on channel=11 note=56 velocity=95 time=0
EXTRACT: note_off channel=6 note=32 velocity=111 time=0
EXTRACT: note_on channel=6 note=32 velocity=111 time=0
EXTRACT: note_off channel=9 note=38 velocity=95 time=0
EXTRACT: note_on channel=9 note=38 velocity=95 time=0
EXTRACT: note_on channel=0 note=66 velocity=127 time=0.25
EXTRACT: note_off channel=11 note=56 velocity=95 time=0
EXTRACT: note_on channel=11 note=56 velocity=95 time=0
EXTRACT: note_off channel=8 note=73 velocity=95 time=0
EXTRACT: note_on channel=8 note=70 velocity=95 time=0
EXTRACT: note_off channel=6 note=32 velocity=111 time=0
EXTRACT: note_on channel=6 note=32 velocity=111 time=0
EXTRACT: note_off channel=9 note=38 velocity=95 time=0
EXTRACT: note_on channel=9 note=38 velocity=95 time=0
EXTRACT: note_off channel=0 note=66 velocity=127 time=0.25
EXTRACT: note_on channel=0 note=68 velocity=127 time=0
EXTRACT: note_off channel=11 note=56 velocity=95 time=0
EXTRACT: note_on channel=11 note=56 velocity=95 time=0
EXTRACT: note_off channel=6 note=32 velocity=111 time=0
EXTRACT: note_on channel=6 note=37 velocity=111 time=0
EXTRACT: note_off channel=9 note=38 velocity=95 time=0
EXTRACT: note_on channel=9 note=46 velocity=95 time=0
EXTRACT: note_off channel=0 note=68 velocity=127 time=0.25
EXTRACT: note_on channel=0 note=66 velocity=127 time=0
EXTRACT: note_off channel=11 note=56 velocity=95 time=0
EXTRACT: note_on channel=11 note=54 velocity=95 time=0
EXTRACT: note_off channel=8 note=70 velocity=95 time=0
EXTRACT: note_off channel=6 note=37 velocity=111 time=0
EXTRACT: note_on channel=6 note=42 velocity=111 time=0
EXTRACT: note_off channel=9 note=46 velocity=95 time=0
EXTRACT: note_on channel=9 note=42 velocity=95 time=0
EXTRACT: note_on channel=9 note=35 velocity=95 time=0
EXTRACT: note_off channel=11 note=54 velocity=95 time=0.25
EXTRACT: note_on channel=11 note=54 velocity=95 time=0
EXTRACT: note_on channel=4 note=66 velocity=95 time=0
EXTRACT: note_on channel=4 note=63 velocity=95 time=0
EXTRACT: note_on channel=4 note=61 velocity=95 time=0
EXTRACT: note_on channel=4 note=58 velocity=95 time=0
EXTRACT: note_off channel=6 note=42 velocity=111 time=0
EXTRACT: note_on channel=6 note=39 velocity=111 time=0
EXTRACT: note_off channel=9 note=42 velocity=95 time=0
EXTRACT: note_off channel=9 note=35 velocity=95 time=0
EXTRACT: note_on channel=9 note=42 velocity=95 time=0
EXTRACT: note_off channel=11 note=54 velocity=95 time=0.125
EXTRACT: note_on channel=11 note=54 velocity=95 time=0
EXTRACT: note_off channel=0 note=66 velocity=127 time=0.125
EXTRACT: note_on channel=0 note=63 velocity=127 time=0
EXTRACT: note_off channel=11 note=54 velocity=95 time=0
EXTRACT: note_on channel=11 note=51 velocity=95 time=0
EXTRACT: note_off channel=4 note=66 velocity=95 time=0
EXTRACT: note_off channel=4 note=63 velocity=95 time=0
EXTRACT: note_off channel=4 note=61 velocity=95 time=0
EXTRACT: note_off channel=4 note=58 velocity=95 time=0
EXTRACT: note_off channel=6 note=39 velocity=111 time=0
EXTRACT: note_on channel=6 note=37 velocity=111 time=0
EXTRACT: note_off channel=9 note=42 velocity=95 time=0
EXTRACT: note_on channel=9 note=49 velocity=95 time=0
EXTRACT: note_on channel=9 note=38 velocity=95 time=0
EXTRACT: note_off channel=11 note=51 velocity=95 time=0.25
EXTRACT: note_on channel=11 note=49 velocity=95 time=0
EXTRACT: note_off channel=6 note=37 velocity=111 time=0
EXTRACT: note_on channel=6 note=42 velocity=111 time=0
EXTRACT: note_off channel=11 note=49 velocity=95 time=0.125
EXTRACT: note_on channel=11 note=51 velocity=70 time=0
EXTRACT: note_off channel=0 note=63 velocity=127 time=0.125
EXTRACT: note_off channel=11 note=51 velocity=70 time=0
EXTRACT: note_on channel=11 note=54 velocity=95 time=0
EXTRACT: note_on channel=4 note=66 velocity=95 time=0
EXTRACT: note_on channel=4 note=63 velocity=95 time=0
EXTRACT: note_on channel=4 note=61 velocity=95 time=0
EXTRACT: note_on channel=4 note=58 velocity=95 time=0
EXTRACT: note_off channel=6 note=42 velocity=111 time=0
EXTRACT: note_on channel=6 note=42 velocity=111 time=0
EXTRACT: note_off channel=9 note=49 velocity=95 time=0
EXTRACT: note_off channel=9 note=38 velocity=95 time=0
EXTRACT: note_on channel=9 note=42 velocity=95 time=0
EXTRACT: note_on channel=9 note=35 velocity=95 time=0
EXTRACT: note_off channel=11 note=54 velocity=95 time=0.125
EXTRACT: note_on channel=11 note=54 velocity=95 time=0
EXTRACT: note_off channel=11 note=54 velocity=95 time=0.125
EXTRACT: note_on channel=11 note=51 velocity=95 time=0
EXTRACT: note_off channel=4 note=66 velocity=95 time=0
EXTRACT: note_off channel=4 note=63 velocity=95 time=0
EXTRACT: note_off channel=4 note=61 velocity=95 time=0
EXTRACT: note_off channel=4 note=58 velocity=95 time=0
EXTRACT: note_off channel=6 note=42 velocity=111 time=0
EXTRACT: note_on channel=6 note=39 velocity=111 time=0
EXTRACT: note_off channel=9 note=42 velocity=95 time=0
EXTRACT: note_off channel=9 note=35 velocity=95 time=0
EXTRACT: note_on channel=9 note=42 velocity=95 time=0
EXTRACT: note_off channel=11 note=51 velocity=95 time=0.25
EXTRACT: note_on channel=11 note=49 velocity=95 time=0
EXTRACT: note_off channel=6 note=39 velocity=111 time=0
EXTRACT: note_on channel=6 note=37 velocity=111 time=0
EXTRACT: note_off channel=9 note=42 velocity=95 time=0
EXTRACT: note_on channel=9 note=42 velocity=95 time=0
EXTRACT: note_on channel=9 note=38 velocity=95 time=0
EXTRACT: note_off channel=11 note=49 velocity=95 time=0.25
EXTRACT: note_on channel=11 note=51 velocity=95 time=0
EXTRACT: note_off channel=6 note=37 velocity=111 time=0
EXTRACT: note_on channel=6 note=39 velocity=111 time=0
EXTRACT: note_off channel=9 note=42 velocity=95 time=0
EXTRACT: note_off channel=9 note=38 velocity=95 time=0
EXTRACT: note_on channel=9 note=42 velocity=95 time=0
EXTRACT: note_on channel=0 note=70 velocity=127 time=0.25
EXTRACT: note_off channel=11 note=51 velocity=95 time=0
EXTRACT: note_on channel=11 note=54 velocity=95 time=0
EXTRACT: note_on channel=4 note=66 velocity=95 time=0
EXTRACT: note_on channel=4 note=63 velocity=95 time=0
EXTRACT: note_on channel=4 note=61 velocity=95 time=0
EXTRACT: note_on channel=4 note=58 velocity=95 time=0
EXTRACT: note_off channel=6 note=39 velocity=111 time=0
EXTRACT: note_on channel=6 note=42 velocity=111 time=0
EXTRACT: note_off channel=9 note=42 velocity=95 time=0
EXTRACT: note_on channel=9 note=42 velocity=95 time=0
EXTRACT: note_on channel=9 note=35 velocity=95 time=0
EXTRACT: note_off channel=0 note=70 velocity=127 time=0.25
EXTRACT: note_on channel=0 note=66 velocity=127 time=0
EXTRACT: note_off channel=11 note=54 velocity=95 time=0
EXTRACT: note_on channel=11 note=54 velocity=95 time=0
EXTRACT: note_off channel=4 note=66 velocity=95 time=0
EXTRACT: note_off channel=4 note=63 velocity=95 time=0
EXTRACT: note_off channel=4 note=61 velocity=95 time=0
EXTRACT: note_off channel=4 note=58 velocity=95 time=0
EXTRACT: note_off channel=6 note=42 velocity=111 time=0
EXTRACT: note_on channel=6 note=39 velocity=111 time=0
EXTRACT: note_off channel=9 note=42 velocity=95 time=0
EXTRACT: note_off channel=9 note=35 velocity=95 time=0
EXTRACT: note_on channel=9 note=42 velocity=95 time=0
EXTRACT: note_off channel=11 note=54 velocity=95 time=0.125
EXTRACT: note_on channel=11 note=54 velocity=95 time=0
EXTRACT: note_off channel=0 note=66 velocity=127 time=0.125
EXTRACT: note_on channel=0 note=68 velocity=102 time=0
EXTRACT: note_off channel=11 note=54 velocity=95 time=0
EXTRACT: note_on channel=11 note=51 velocity=95 time=0
EXTRACT: note_off channel=6 note=39 velocity=111 time=0
EXTRACT: note_on channel=6 note=37 velocity=111 time=0
EXTRACT: note_off channel=9 note=42 velocity=95 time=0
EXTRACT: note_on channel=9 note=42 velocity=95 time=0
EXTRACT: note_on channel=9 note=38 velocity=95 time=0
EXTRACT: note_off channel=0 note=68 velocity=102 time=0.25
EXTRACT: note_on channel=0 note=66 velocity=127 time=0
EXTRACT: note_off channel=11 note=51 velocity=95 time=0
EXTRACT: note_on channel=11 note=49 velocity=95 time=0
EXTRACT: note_on channel=4 note=66 velocity=95 time=0
EXTRACT: note_on channel=4 note=63 velocity=95 time=0
EXTRACT: note_on channel=4 note=61 velocity=95 time=0
EXTRACT: note_on channel=4 note=58 velocity=95 time=0
EXTRACT: note_off channel=6 note=37 velocity=111 time=0
EXTRACT: note_on channel=6 note=42 velocity=111 time=0
EXTRACT: note_off channel=9 note=42 velocity=95 time=0
EXTRACT: note_off channel=9 note=38 velocity=95 time=0
EXTRACT: note_on channel=9 note=42 velocity=95 time=0
EXTRACT: note_off channel=11 note=49 velocity=95 time=0.125
EXTRACT: note_on channel=11 note=51 velocity=70 time=0
EXTRACT: note_off channel=11 note=51 velocity=70 time=0.125
EXTRACT: note_on channel=11 note=54 velocity=95 time=0
EXTRACT: note_off channel=4 note=66 velocity=95 time=0
EXTRACT: note_off channel=4 note=63 velocity=95 time=0
EXTRACT: note_off channel=4 note=61 velocity=95 time=0
EXTRACT: note_off channel=4 note=58 velocity=95 time=0
EXTRACT: note_off channel=6 note=42 velocity=111 time=0
EXTRACT: note_on channel=6 note=34 velocity=111 time=0
EXTRACT: note_off channel=9 note=42 velocity=95 time=0
EXTRACT: note_on channel=9 note=42 velocity=95 time=0
EXTRACT: note_on channel=9 note=35 velocity=95 time=0
EXTRACT: note_off channel=11 note=54 velocity=95 time=0.125
EXTRACT: note_on channel=11 note=54 velocity=95 time=0
EXTRACT: note_off channel=0 note=66 velocity=127 time=0.125
EXTRACT: note_on channel=0 note=68 velocity=127 time=0
EXTRACT: note_off channel=11 note=54 velocity=95 time=0
EXTRACT: note_on channel=11 note=51 velocity=95 time=0
EXTRACT: note_off channel=6 note=34 velocity=111 time=0
EXTRACT: note_on channel=6 note=37 velocity=111 time=0
EXTRACT: note_off channel=9 note=42 velocity=95 time=0
EXTRACT: note_off channel=9 note=35 velocity=95 time=0
EXTRACT: note_on channel=9 note=42 velocity=95 time=0
EXTRACT: note_off channel=0 note=68 velocity=127 time=0.25
EXTRACT: note_on channel=0 note=66 velocity=102 time=0
EXTRACT: note_off channel=11 note=51 velocity=95 time=0
EXTRACT: note_on channel=11 note=49 velocity=95 time=0
EXTRACT: note_off channel=6 note=37 velocity=111 time=0
EXTRACT: note_on channel=6 note=39 velocity=111 time=0
EXTRACT: note_off channel=9 note=42 velocity=95 time=0
EXTRACT: note_on channel=9 note=42 velocity=95 time=0
EXTRACT: note_on channel=9 note=38 velocity=95 time=0
EXTRACT: note_off channel=0 note=66 velocity=102 time=0.25
EXTRACT: note_on channel=0 note=65 velocity=102 time=0
EXTRACT: note_off channel=11 note=49 velocity=95 time=0
EXTRACT: note_on channel=11 note=51 velocity=95 time=0
EXTRACT: note_off channel=6 note=39 velocity=111 time=0
EXTRACT: note_on channel=6 note=42 velocity=111 time=0
EXTRACT: note_off channel=9 note=42 velocity=95 time=0
EXTRACT: note_off channel=9 note=38 velocity=95 time=0
EXTRACT: note_on channel=9 note=46 velocity=95 time=0
EXTRACT: note_off channel=0 note=65 velocity=102 time=0.25
EXTRACT: note_on channel=0 note=63 velocity=127 time=0
EXTRACT: note_off channel=11 note=51 velocity=95 time=0
EXTRACT: note_on channel=11 note=54 velocity=95 time=0
EXTRACT: note_on channel=4 note=66 velocity=95 time=0
EXTRACT: note_on channel=4 note=65 velocity=95 time=0
EXTRACT: note_on channel=4 note=61 velocity=95 time=0
EXTRACT: note_on channel=4 note=58 velocity=95 time=0
EXTRACT: note_on channel=8 note=75 velocity=95 time=0
EXTRACT: note_on channel=13 note=75 velocity=95 time=0
EXTRACT: note_off channel=6 note=42 velocity=111 time=0
EXTRACT: note_on channel=6 note=39 velocity=111 time=0
EXTRACT: note_off channel=9 note=46 velocity=95 time=0
EXTRACT: note_on channel=9 note=49 velocity=95 time=0
EXTRACT: note_on channel=9 note=35 velocity=95 time=0
EXTRACT: note_off channel=11 note=54 velocity=95 time=0.25
EXTRACT: note_on channel=11 note=54 velocity=95 time=0
EXTRACT: note_off channel=8 note=75 velocity=95 time=0
EXTRACT: note_off channel=13 note=75 velocity=95 time=0
EXTRACT: note_off channel=6 note=39 velocity=111 time=0
EXTRACT: note_on channel=6 note=39 velocity=111 time=0
EXTRACT: note_off channel=9 note=49 velocity=95 time=0
EXTRACT: note_off channel=9 note=35 velocity=95 time=0
EXTRACT: note_on channel=9 note=42 velocity=95 time=0
EXTRACT: note_off channel=11 note=54 velocity=95 time=0.125
EXTRACT: note_on channel=11 note=54 velocity=95 time=0
EXTRACT: note_off channel=11 note=54 velocity=95 time=0.125
EXTRACT: note_on channel=11 note=54 velocity=95 time=0
EXTRACT: note_on channel=8 note=70 velocity=95 time=0
EXTRACT: note_on channel=13 note=70 velocity=95 time=0
EXTRACT: note_off channel=6 note=39 velocity=111 time=0
EXTRACT: note_on channel=6 note=39 velocity=111 time=0
EXTRACT: note_off channel=9 note=42 velocity=95 time=0
EXTRACT: note_on channel=9 note=42 velocity=95 time=0
EXTRACT: note_on channel=9 note=38 velocity=95 time=0
EXTRACT: note_off channel=11 note=54 velocity=95 time=0.25
EXTRACT: note_on channel=11 note=54 velocity=95 time=0
EXTRACT: note_off channel=8 note=70 velocity=95 time=0
EXTRACT: note_off channel=13 note=70 velocity=95 time=0
EXTRACT: note_off channel=6 note=39 velocity=111 time=0
EXTRACT: note_on channel=6 note=39 velocity=111 time=0
EXTRACT: note_off channel=9 note=42 velocity=95 time=0
EXTRACT: note_off channel=9 note=38 velocity=95 time=0
EXTRACT: note_on channel=9 note=42 velocity=95 time=0
EXTRACT: note_off channel=11 note=54 velocity=95 time=0.125
EXTRACT: note_on channel=11 note=54 velocity=95 time=0
EXTRACT: note_off channel=11 note=54 velocity=95 time=0.125
EXTRACT: note_on channel=11 note=54 velocity=95 time=0
EXTRACT: note_on channel=8 note=66 velocity=95 time=0
EXTRACT: note_on channel=13 note=66 velocity=95 time=0
EXTRACT: note_off channel=6 note=39 velocity=111 time=0
EXTRACT: note_on channel=6 note=39 velocity=111 time=0
EXTRACT: note_off channel=9 note=42 velocity=95 time=0
EXTRACT: note_on channel=9 note=42 velocity=95 time=0
EXTRACT: note_on channel=9 note=35 velocity=95 time=0
EXTRACT: note_off channel=11 note=54 velocity=95 time=0.25
EXTRACT: note_on channel=11 note=54 velocity=95 time=0
EXTRACT: note_off channel=8 note=66 velocity=95 time=0
EXTRACT: note_off channel=13 note=66 velocity=95 time=0
EXTRACT: note_off channel=6 note=39 velocity=111 time=0
EXTRACT: note_on channel=6 note=39 velocity=111 time=0
EXTRACT: note_off channel=9 note=42 velocity=95 time=0
EXTRACT: note_off channel=9 note=35 velocity=95 time=0
EXTRACT: note_on channel=9 note=42 velocity=95 time=0
EXTRACT: note_off channel=11 note=54 velocity=95 time=0.125
EXTRACT: note_on channel=11 note=54 velocity=95 time=0
EXTRACT: note_off channel=11 note=54 velocity=95 time=0.125
EXTRACT: note_on channel=11 note=54 velocity=95 time=0
EXTRACT: note_on channel=8 note=63 velocity=95 time=0
EXTRACT: note_on channel=13 note=63 velocity=95 time=0
EXTRACT: note_off channel=6 note=39 velocity=111 time=0
EXTRACT: note_on channel=6 note=39 velocity=111 time=0
EXTRACT: note_off channel=9 note=42 velocity=95 time=0
EXTRACT: note_on channel=9 note=42 velocity=95 time=0
EXTRACT: note_on channel=9 note=38 velocity=95 time=0
EXTRACT: note_off channel=11 note=54 velocity=95 time=0.25
EXTRACT: note_on channel=11 note=54 velocity=95 time=0
EXTRACT: note_off channel=8 note=63 velocity=95 time=0
EXTRACT: note_off channel=13 note=63 velocity=95 time=0
EXTRACT: note_off channel=6 note=39 velocity=111 time=0
EXTRACT: note_on channel=6 note=39 velocity=111 time=0
EXTRACT: note_off channel=9 note=42 velocity=95 time=0
EXTRACT: note_off channel=9 note=38 velocity=95 time=0
EXTRACT: note_on channel=9 note=42 velocity=95 time=0
EXTRACT: note_off channel=11 note=54 velocity=95 time=0.125
EXTRACT: note_on channel=11 note=54 velocity=95 time=0
EXTRACT: note_off channel=6 note=39 velocity=111 time=0
EXTRACT: note_on channel=6 note=32 velocity=111 time=0
EXTRACT: note_off channel=9 note=42 velocity=95 time=0
EXTRACT: note_on channel=9 note=35 velocity=95 time=0
EXTRACT: note_off channel=0 note=63 velocity=127 time=0.125
EXTRACT: note_off channel=11 note=54 velocity=95 time=0
EXTRACT: note_on channel=11 note=56 velocity=95 time=0
EXTRACT: note_off channel=4 note=66 velocity=95 time=0
EXTRACT: note_off channel=4 note=65 velocity=95 time=0
EXTRACT: note_off channel=4 note=61 velocity=95 time=0
EXTRACT: note_off channel=4 note=58 velocity=95 time=0
EXTRACT: note_on channel=4 note=68 velocity=95 time=0
EXTRACT: note_on channel=4 note=63 velocity=95 time=0
EXTRACT: note_on channel=4 note=59 velocity=95 time=0
EXTRACT: note_on channel=4 note=56 velocity=95 time=0
EXTRACT: note_on channel=8 note=68 velocity=95 time=0
EXTRACT: note_on channel=13 note=68 velocity=95 time=0
EXTRACT: note_off channel=6 note=32 velocity=111 time=0
EXTRACT: note_on channel=6 note=32 velocity=111 time=0
EXTRACT: note_off channel=9 note=35 velocity=95 time=0
EXTRACT: note_on channel=9 note=42 velocity=95 time=0
EXTRACT: note_on channel=9 note=35 velocity=95 time=0
EXTRACT: note_off channel=11 note=56 velocity=95 time=0.25
EXTRACT: note_on channel=11 note=56 velocity=95 time=0
EXTRACT: note_off channel=8 note=68 velocity=95 time=0
EXTRACT: note_off channel=13 note=68 velocity=95 time=0
EXTRACT: note_off channel=6 note=32 velocity=111 time=0
EXTRACT: note_on channel=6 note=32 velocity=111 time=0
EXTRACT: note_off channel=9 note=42 velocity=95 time=0
EXTRACT: note_off channel=9 note=35 velocity=95 time=0
EXTRACT: note_on channel=9 note=42 velocity=95 time=0
EXTRACT: note_off channel=11 note=56 velocity=95 time=0.125
EXTRACT: note_on channel=11 note=56 velocity=95 time=0
EXTRACT: note_off channel=11 note=56 velocity=95 time=0.125
EXTRACT: note_on channel=11 note=56 velocity=95 time=0
EXTRACT: note_on channel=8 note=63 velocity=95 time=0
EXTRACT: note_on channel=13 note=63 velocity=95 time=0
EXTRACT: note_off channel=6 note=32 velocity=111 time=0
EXTRACT: note_on channel=6 note=32 velocity=111 time=0
EXTRACT: note_off channel=9 note=42 velocity=95 time=0
EXTRACT: note_on channel=9 note=42 velocity=95 time=0
EXTRACT: note_on channel=9 note=38 velocity=95 time=0
EXTRACT: note_off channel=11 note=56 velocity=95 time=0.25
EXTRACT: note_on channel=11 note=56 velocity=95 time=0
EXTRACT: note_off channel=8 note=63 velocity=95 time=0
EXTRACT: note_off channel=13 note=63 velocity=95 time=0
EXTRACT: note_off channel=6 note=32 velocity=111 time=0
EXTRACT: note_on channel=6 note=32 velocity=111 time=0
EXTRACT: note_off channel=9 note=42 velocity=95 time=0
EXTRACT: note_off channel=9 note=38 velocity=95 time=0
EXTRACT: note_on channel=9 note=42 velocity=95 time=0
EXTRACT: note_off channel=11 note=56 velocity=95 time=0.125
EXTRACT: note_on channel=11 note=56 velocity=95 time=0
EXTRACT: note_off channel=6 note=32 velocity=111 time=0
EXTRACT: note_on channel=6 note=32 velocity=111 time=0
EXTRACT: note_off channel=9 note=42 velocity=95 time=0
EXTRACT: note_on channel=9 note=35 velocity=95 time=0
EXTRACT: note_on channel=0 note=66 velocity=102 time=0.125
EXTRACT: note_off channel=11 note=56 velocity=95 time=0
EXTRACT: note_on channel=11 note=56 velocity=95 time=0
EXTRACT: note_on channel=8 note=59 velocity=95 time=0
EXTRACT: note_on channel=13 note=59 velocity=95 time=0
EXTRACT: note_off channel=6 note=32 velocity=111 time=0
EXTRACT: note_on channel=6 note=32 velocity=111 time=0
EXTRACT: note_off channel=9 note=35 velocity=95 time=0
EXTRACT: note_on channel=9 note=42 velocity=95 time=0
EXTRACT: note_on channel=9 note=35 velocity=95 time=0
EXTRACT: note_off channel=0 note=66 velocity=102 time=0.25
EXTRACT: note_on channel=0 note=68 velocity=102 time=0
EXTRACT: note_off channel=11 note=56 velocity=95 time=0
EXTRACT: note_on channel=11 note=56 velocity=95 time=0
EXTRACT: note_off channel=8 note=59 velocity=95 time=0
EXTRACT: note_off channel=13 note=59 velocity=95 time=0
EXTRACT: note_off channel=6 note=32 velocity=111 time=0
EXTRACT: note_on channel=6 note=32 velocity=111 time=0
EXTRACT: note_off channel=9 note=42 velocity=95 time=0
EXTRACT: note_off channel=9 note=35 velocity=95 time=0
EXTRACT: note_on channel=9 note=42 velocity=95 time=0
EXTRACT: note_off channel=11 note=56 velocity=95 time=0.125
EXTRACT: note_on channel=11 note=56 velocity=95 time=0
EXTRACT: note_off channel=0 note=68 velocity=102 time=0.125
EXTRACT: note_on channel=0 note=66 velocity=102 time=0
EXTRACT: note_off channel=11 note=56 velocity=95 time=0
EXTRACT: note_on channel=11 note=56 velocity=95 time=0
EXTRACT: note_on channel=8 note=56 velocity=95 time=0
EXTRACT: note_on channel=13 note=56 velocity=95 time=0
EXTRACT: note_off channel=6 note=32 velocity=111 time=0
EXTRACT: note_on channel=6 note=32 velocity=111 time=0
EXTRACT: note_off channel=9 note=42 velocity=95 time=0
EXTRACT: note_on channel=9 note=42 velocity=95 time=0
EXTRACT: note_on channel=9 note=38 velocity=95 time=0
EXTRACT: note_off channel=0 note=66 velocity=102 time=0.25
EXTRACT: note_on channel=0 note=65 velocity=102 time=0
EXTRACT: note_off channel=11 note=56 velocity=95 time=0
EXTRACT: note_on channel=11 note=56 velocity=95 time=0
EXTRACT: note_off channel=8 note=56 velocity=95 time=0
EXTRACT: note_off channel=13 note=56 velocity=95 time=0
EXTRACT: note_off channel=6 note=32 velocity=111 time=0
EXTRACT: note_on channel=6 note=37 velocity=111 time=0
EXTRACT: note_off channel=9 note=42 velocity=95 time=0
EXTRACT: note_off channel=9 note=38 velocity=95 time=0
EXTRACT: note_on channel=9 note=42 velocity=95 time=0
EXTRACT: note_off channel=11 note=56 velocity=95 time=0.125
EXTRACT: note_on channel=11 note=56 velocity=95 time=0
EXTRACT: note_off channel=0 note=65 velocity=102 time=0.125
EXTRACT: note_on channel=0 note=65 velocity=127 time=0
EXTRACT: note_off channel=11 note=56 velocity=95 time=0
EXTRACT: note_on channel=11 note=54 velocity=95 time=0
EXTRACT: note_off channel=4 note=68 velocity=95 time=0
EXTRACT: note_off channel=4 note=63 velocity=95 time=0
EXTRACT: note_off channel=4 note=59 velocity=95 time=0
EXTRACT: note_off channel=4 note=56 velocity=95 time=0
EXTRACT: note_on channel=4 note=66 velocity=95 time=0
EXTRACT: note_on channel=4 note=65 velocity=95 time=0
EXTRACT: note_on channel=4 note=61 velocity=95 time=0
EXTRACT: note_on channel=4 note=58 velocity=95 time=0
EXTRACT: note_on channel=8 note=75 velocity=95 time=0
EXTRACT: note_on channel=13 note=75 velocity=95 time=0
EXTRACT: note_off channel=6 note=37 velocity=111 time=0
EXTRACT: note_on channel=6 note=39 velocity=111 time=0
EXTRACT: note_off channel=9 note=42 velocity=95 time=0
EXTRACT: note_on channel=9 note=42 velocity=95 time=0
EXTRACT: note_on channel=9 note=35 velocity=95 time=0
EXTRACT: note_off channel=11 note=54 velocity=95 time=0.25
EXTRACT: note_on channel=11 note=54 velocity=95 time=0
EXTRACT: note_off channel=8 note=75 velocity=95 time=0
EXTRACT: note_off channel=13 note=75 velocity=95 time=0
EXTRACT: note_off channel=6 note=39 velocity=111 time=0
EXTRACT: note_on channel=6 note=39 velocity=111 time=0
EXTRACT: note_off channel=9 note=42 velocity=95 time=0
EXTRACT: note_off channel=9 note=35 velocity=95 time=0
EXTRACT: note_on channel=9 note=42 velocity=95 time=0
EXTRACT: note_off channel=11 note=54 velocity=95 time=0.125
EXTRACT: note_on channel=11 note=54 velocity=95 time=0
EXTRACT: note_off channel=0 note=65 velocity=127 time=0.125
EXTRACT: note_on channel=0 note=63 velocity=102 time=0
EXTRACT: note_off channel=11 note=54 velocity=95 time=0
EXTRACT: note_on channel=11 note=54 velocity=95 time=0
EXTRACT: note_on channel=8 note=70 velocity=95 time=0
EXTRACT: note_on channel=13 note=70 velocity=95 time=0
EXTRACT: note_off channel=6 note=39 velocity=111 time=0
EXTRACT: note_on channel=6 note=39 velocity=111 time=0
EXTRACT: note_off channel=9 note=42 velocity=95 time=0
EXTRACT: note_on channel=9 note=42 velocity=95 time=0
EXTRACT: note_on channel=9 note=38 velocity=95 time=0
EXTRACT: note_off channel=11 note=54 velocity=95 time=0.25
EXTRACT: note_on channel=11 note=54 velocity=95 time=0
EXTRACT: note_off channel=8 note=70 velocity=95 time=0
EXTRACT: note_off channel=13 note=70 velocity=95 time=0
EXTRACT: note_off channel=6 note=39 velocity=111 time=0
EXTRACT: note_on channel=6 note=39 velocity=111 time=0
EXTRACT: note_off channel=9 note=42 velocity=95 time=0
EXTRACT: note_off channel=9 note=38 velocity=95 time=0
EXTRACT: note_on channel=9 note=42 velocity=95 time=0
EXTRACT: note_off channel=11 note=54 velocity=95 time=0.125
EXTRACT: note_on channel=11 note=54 velocity=95 time=0
EXTRACT: note_off channel=6 note=39 velocity=111 time=0
EXTRACT: note_on channel=6 note=39 velocity=111 time=0
EXTRACT: note_off channel=11 note=54 velocity=95 time=0.125
EXTRACT: note_on channel=11 note=54 velocity=95 time=0
EXTRACT: note_on channel=8 note=66 velocity=95 time=0
EXTRACT: note_on channel=13 note=66 velocity=95 time=0
EXTRACT: note_off channel=6 note=39 velocity=111 time=0
EXTRACT: note_on channel=6 note=39 velocity=111 time=0
EXTRACT: note_off channel=9 note=42 velocity=95 time=0
EXTRACT: note_on channel=9 note=42 velocity=95 time=0
EXTRACT: note_on channel=9 note=35 velocity=95 time=0
EXTRACT: note_off channel=11 note=54 velocity=95 time=0.25
EXTRACT: note_on channel=11 note=54 velocity=95 time=0
EXTRACT: note_off channel=8 note=66 velocity=95 time=0
EXTRACT: note_off channel=13 note=66 velocity=95 time=0
EXTRACT: note_off channel=6 note=39 velocity=111 time=0
EXTRACT: note_on channel=6 note=39 velocity=111 time=0
EXTRACT: note_off channel=9 note=42 velocity=95 time=0
EXTRACT: note_off channel=9 note=35 velocity=95 time=0
EXTRACT: note_on channel=9 note=42 velocity=95 time=0
EXTRACT: note_off channel=11 note=54 velocity=95 time=0.125
EXTRACT: note_on channel=11 note=54 velocity=95 time=0
EXTRACT: note_off channel=11 note=54 velocity=95 time=0.125
EXTRACT: note_on channel=11 note=54 velocity=95 time=0
EXTRACT: note_on channel=8 note=63 velocity=95 time=0
EXTRACT: note_on channel=13 note=63 velocity=95 time=0
EXTRACT: note_off channel=6 note=39 velocity=111 time=0
EXTRACT: note_on channel=6 note=39 velocity=111 time=0
EXTRACT: note_off channel=9 note=42 velocity=95 time=0
EXTRACT: note_on channel=9 note=42 velocity=95 time=0
EXTRACT: note_on channel=9 note=38 velocity=95 time=0
EXTRACT: note_off channel=11 note=54 velocity=95 time=0.25
EXTRACT: note_on channel=11 note=54 velocity=95 time=0
EXTRACT: note_off channel=8 note=63 velocity=95 time=0
EXTRACT: note_off channel=13 note=63 velocity=95 time=0
EXTRACT: note_off channel=6 note=39 velocity=111 time=0
EXTRACT: note_on channel=6 note=34 velocity=111 time=0
EXTRACT: note_off channel=9 note=42 velocity=95 time=0
EXTRACT: note_off channel=9 note=38 velocity=95 time=0
EXTRACT: note_on channel=9 note=42 velocity=95 time=0
EXTRACT: note_off channel=11 note=54 velocity=95 time=0.125
EXTRACT: note_on channel=11 note=54 velocity=95 time=0
EXTRACT: note_off channel=0 note=63 velocity=102 time=0.125
EXTRACT: note_off channel=11 note=54 velocity=95 time=0
EXTRACT: note_on channel=11 note=56 velocity=95 time=0
EXTRACT: note_off channel=4 note=66 velocity=95 time=0
EXTRACT: note_off channel=4 note=65 velocity=95 time=0
EXTRACT: note_off channel=4 note=61 velocity=95 time=0
EXTRACT: note_off channel=4 note=58 velocity=95 time=0
EXTRACT: note_on channel=4 note=68 velocity=95 time=0
EXTRACT: note_on channel=4 note=63 velocity=95 time=0
EXTRACT: note_on channel=4 note=59 velocity=95 time=0
EXTRACT: note_on channel=4 note=56 velocity=95 time=0
EXTRACT: note_on channel=8 note=68 velocity=95 time=0
EXTRACT: note_on channel=13 note=68 velocity=95 time=0
EXTRACT: note_off channel=6 note=34 velocity=111 time=0
EXTRACT: note_on channel=6 note=32 velocity=111 time=0
EXTRACT: note_off channel=9 note=42 velocity=95 time=0
EXTRACT: note_on channel=9 note=42 velocity=95 time=0
EXTRACT: note_on channel=9 note=35 velocity=95 time=0
EXTRACT: note_off channel=11 note=56 velocity=95 time=0.25
EXTRACT: note_on channel=11 note=56 velocity=95 time=0
EXTRACT: note_off channel=8 note=68 velocity=95 time=0
EXTRACT: note_off channel=13 note=68 velocity=95 time=0
EXTRACT: note_off channel=6 note=32 velocity=111 time=0
EXTRACT: note_on channel=6 note=32 velocity=111 time=0
EXTRACT: note_off channel=9 note=42 velocity=95 time=0
EXTRACT: note_off channel=9 note=35 velocity=95 time=0
EXTRACT: note_on channel=9 note=42 velocity=95 time=0
EXTRACT: note_off channel=11 note=56 velocity=95 time=0.125
EXTRACT: note_on channel=11 note=56 velocity=95 time=0
EXTRACT: note_off channel=11 note=56 velocity=95 time=0.125
EXTRACT: note_on channel=11 note=56 velocity=95 time=0
EXTRACT: note_on channel=8 note=63 velocity=95 time=0
EXTRACT: note_on channel=13 note=63 velocity=95 time=0
EXTRACT: note_off channel=6 note=32 velocity=111 time=0
EXTRACT: note_on channel=6 note=32 velocity=111 time=0
EXTRACT: note_off channel=9 note=42 velocity=95 time=0
EXTRACT: note_on channel=9 note=42 velocity=95 time=0
EXTRACT: note_on channel=9 note=38 velocity=95 time=0
EXTRACT: note_off channel=11 note=56 velocity=95 time=0.25
EXTRACT: note_on channel=11 note=56 velocity=95 time=0
EXTRACT: note_off channel=8 note=63 velocity=95 time=0
EXTRACT: note_off channel=13 note=63 velocity=95 time=0
EXTRACT: note_off channel=6 note=32 velocity=111 time=0
EXTRACT: note_on channel=6 note=32 velocity=111 time=0
EXTRACT: note_off channel=9 note=42 velocity=95 time=0
EXTRACT: note_off channel=9 note=38 velocity=95 time=0
EXTRACT: note_on channel=9 note=42 velocity=95 time=0
EXTRACT: note_off channel=11 note=56 velocity=95 time=0.125
EXTRACT: note_on channel=11 note=56 velocity=95 time=0
EXTRACT: note_off channel=6 note=32 velocity=111 time=0
EXTRACT: note_on channel=6 note=32 velocity=111 time=0
EXTRACT: note_on channel=0 note=66 velocity=102 time=0.125
EXTRACT: note_off channel=11 note=56 velocity=95 time=0
EXTRACT: note_on channel=11 note=56 velocity=95 time=0
EXTRACT: note_on channel=8 note=59 velocity=95 time=0
EXTRACT: note_on channel=13 note=59 velocity=95 time=0
EXTRACT: note_off channel=6 note=32 velocity=111 time=0
EXTRACT: note_on channel=6 note=32 velocity=111 time=0
EXTRACT: note_off channel=9 note=42 velocity=95 time=0
EXTRACT: note_on channel=9 note=42 velocity=95 time=0
EXTRACT: note_on channel=9 note=35 velocity=95 time=0
EXTRACT: note_off channel=0 note=66 velocity=102 time=0.25
EXTRACT: note_on channel=0 note=68 velocity=102 time=0
EXTRACT: note_off channel=11 note=56 velocity=95 time=0
EXTRACT: note_on channel=11 note=56 velocity=95 time=0
EXTRACT: note_off channel=8 note=59 velocity=95 time=0
EXTRACT: note_off channel=13 note=59 velocity=95 time=0
EXTRACT: note_off channel=6 note=32 velocity=111 time=0
EXTRACT: note_on channel=6 note=32 velocity=111 time=0
EXTRACT: note_off channel=9 note=42 velocity=95 time=0
EXTRACT: note_off channel=9 note=35 velocity=95 time=0
EXTRACT: note_on channel=9 note=42 velocity=95 time=0
EXTRACT: note_off channel=11 note=56 velocity=95 time=0.125
EXTRACT: note_on channel=11 note=56 velocity=95 time=0
EXTRACT: note_off channel=0 note=68 velocity=102 time=0.125
EXTRACT: note_on channel=0 note=66 velocity=102 time=0
EXTRACT: note_off channel=11 note=56 velocity=95 time=0
EXTRACT: note_on channel=11 note=56 velocity=95 time=0
EXTRACT: note_on channel=8 note=56 velocity=95 time=0
EXTRACT: note_on channel=13 note=56 velocity=95 time=0
EXTRACT: note_off channel=6 note=32 velocity=111 time=0
EXTRACT: note_on channel=6 note=32 velocity=111 time=0
EXTRACT: note_off channel=9 note=42 velocity=95 time=0
EXTRACT: note_on channel=9 note=42 velocity=95 time=0
EXTRACT: note_on channel=9 note=38 velocity=95 time=0
EXTRACT: note_off channel=0 note=66 velocity=102 time=0.25
EXTRACT: note_on channel=0 note=65 velocity=102 time=0
EXTRACT: note_off channel=11 note=56 velocity=95 time=0
EXTRACT: note_on channel=11 note=56 velocity=95 time=0
EXTRACT: note_off channel=8 note=56 velocity=95 time=0
EXTRACT: note_off channel=13 note=56 velocity=95 time=0
EXTRACT: note_off channel=6 note=32 velocity=111 time=0
EXTRACT: note_on channel=6 note=34 velocity=111 time=0
EXTRACT: note_off channel=9 note=42 velocity=95 time=0
EXTRACT: note_off channel=9 note=38 velocity=95 time=0
EXTRACT: note_on channel=9 note=42 velocity=95 time=0
EXTRACT: note_off channel=11 note=56 velocity=95 time=0.125
EXTRACT: note_on channel=11 note=56 velocity=95 time=0
EXTRACT: note_off channel=0 note=65 velocity=102 time=0.125
EXTRACT: note_on channel=0 note=65 velocity=127 time=0
EXTRACT: note_off channel=11 note=56 velocity=95 time=0
EXTRACT: note_on channel=11 note=54 velocity=95 time=0
EXTRACT: note_off channel=4 note=68 velocity=95 time=0
EXTRACT: note_off channel=4 note=63 velocity=95 time=0
EXTRACT: note_off channel=4 note=59 velocity=95 time=0
EXTRACT: note_off channel=4 note=56 velocity=95 time=0
EXTRACT: note_on channel=4 note=66 velocity=95 time=0
EXTRACT: note_on channel=4 note=65 velocity=95 time=0
EXTRACT: note_on channel=4 note=61 velocity=95 time=0
EXTRACT: note_on channel=4 note=58 velocity=95 time=0
EXTRACT: note_on channel=8 note=75 velocity=95 time=0
EXTRACT: note_on channel=13 note=75 velocity=95 time=0
EXTRACT: note_off channel=6 note=34 velocity=111 time=0
EXTRACT: note_on channel=6 note=39 velocity=111 time=0
EXTRACT: note_off channel=9 note=42 velocity=95 time=0
EXTRACT: note_on channel=9 note=49 velocity=95 time=0
EXTRACT: note_on channel=9 note=35 velocity=95 time=0
EXTRACT: note_off channel=11 note=54 velocity=95 time=0.25
EXTRACT: note_on channel=11 note=54 velocity=95 time=0
EXTRACT: note_off channel=8 note=75 velocity=95 time=0
EXTRACT: note_off channel=13 note=75 velocity=95 time=0
EXTRACT: note_off channel=6 note=39 velocity=111 time=0
EXTRACT: note_on channel=6 note=39 velocity=111 time=0
EXTRACT: note_off channel=9 note=49 velocity=95 time=0
EXTRACT: note_off channel=9 note=35 velocity=95 time=0
EXTRACT: note_on channel=9 note=42 velocity=95 time=0
EXTRACT: note_off channel=11 note=54 velocity=95 time=0.125
EXTRACT: note_on channel=11 note=54 velocity=95 time=0
EXTRACT: note_off channel=0 note=65 velocity=127 time=0.125
EXTRACT: note_on channel=0 note=63 velocity=102 time=0
EXTRACT: note_off channel=11 note=54 velocity=95 time=0
EXTRACT: note_on channel=11 note=54 velocity=95 time=0
EXTRACT: note_on channel=8 note=70 velocity=95 time=0
EXTRACT: note_on channel=13 note=70 velocity=95 time=0
EXTRACT: note_off channel=6 note=39 velocity=111 time=0
EXTRACT: note_on channel=6 note=39 velocity=111 time=0
EXTRACT: note_off channel=9 note=42 velocity=95 time=0
EXTRACT: note_on channel=9 note=42 velocity=95 time=0
EXTRACT: note_on channel=9 note=38 velocity=95 time=0
EXTRACT: note_off channel=11 note=54 velocity=95 time=0.25
EXTRACT: note_on channel=11 note=54 velocity=95 time=0
EXTRACT: note_off channel=8 note=70 velocity=95 time=0
EXTRACT: note_off channel=13 note=70 velocity=95 time=0
EXTRACT: note_off channel=6 note=39 velocity=111 time=0
EXTRACT: note_on channel=6 note=39 velocity=111 time=0
EXTRACT: note_off channel=9 note=42 velocity=95 time=0
EXTRACT: note_off channel=9 note=38 velocity=95 time=0
EXTRACT: note_on channel=9 note=42 velocity=95 time=0
EXTRACT: note_off channel=11 note=54 velocity=95 time=0.125
EXTRACT: note_on channel=11 note=54 velocity=95 time=0
EXTRACT: note_off channel=6 note=39 velocity=111 time=0
EXTRACT: note_on channel=6 note=39 velocity=111 time=0
EXTRACT: note_off channel=9 note=42 velocity=95 time=0
EXTRACT: note_on channel=9 note=35 velocity=95 time=0
EXTRACT: note_off channel=11 note=54 velocity=95 time=0.125
EXTRACT: note_on channel=11 note=54 velocity=95 time=0
EXTRACT: note_on channel=8 note=66 velocity=95 time=0
EXTRACT: note_on channel=13 note=66 velocity=95 time=0
EXTRACT: note_off channel=6 note=39 velocity=111 time=0
EXTRACT: note_on channel=6 note=39 velocity=111 time=0
EXTRACT: note_off channel=9 note=35 velocity=95 time=0
EXTRACT: note_on channel=9 note=42 velocity=95 time=0
EXTRACT: note_on channel=9 note=35 velocity=95 time=0
EXTRACT: note_off channel=11 note=54 velocity=95 time=0.25
EXTRACT: note_on channel=11 note=54 velocity=95 time=0
EXTRACT: note_off channel=8 note=66 velocity=95 time=0
EXTRACT: note_off channel=13 note=66 velocity=95 time=0
EXTRACT: note_off channel=6 note=39 velocity=111 time=0
EXTRACT: note_on channel=6 note=39 velocity=111 time=0
EXTRACT: note_off channel=9 note=42 velocity=95 time=0
EXTRACT: note_off channel=9 note=35 velocity=95 time=0
EXTRACT: note_on channel=9 note=42 velocity=95 time=0
EXTRACT: note_off channel=11 note=54 velocity=95 time=0.125
EXTRACT: note_on channel=11 note=54 velocity=95 time=0
EXTRACT: note_off channel=0 note=63 velocity=102 time=0.125
EXTRACT: note_off channel=11 note=54 velocity=95 time=0
EXTRACT: note_on channel=11 note=54 velocity=95 time=0
EXTRACT: note_on channel=8 note=63 velocity=95 time=0
EXTRACT: note_on channel=13 note=63 velocity=95 time=0
EXTRACT: note_off channel=6 note=39 velocity=111 time=0
EXTRACT: note_on channel=6 note=39 velocity=111 time=0
EXTRACT: note_off channel=9 note=42 velocity=95 time=0
EXTRACT: note_on channel=9 note=42 velocity=95 time=0
EXTRACT: note_on channel=9 note=38 velocity=95 time=0
EXTRACT: note_on channel=0 note=70 velocity=102 time=0.25
EXTRACT: note_off channel=11 note=54 velocity=95 time=0
EXTRACT: note_on channel=11 note=54 velocity=95 time=0
EXTRACT: note_off channel=8 note=63 velocity=95 time=0
EXTRACT: note_off channel=13 note=63 velocity=95 time=0
EXTRACT: note_off channel=6 note=39 velocity=111 time=0
EXTRACT: note_on channel=6 note=34 velocity=111 time=0
EXTRACT: note_off channel=9 note=42 velocity=95 time=0
EXTRACT: note_off channel=9 note=38 velocity=95 time=0
EXTRACT: note_on channel=9 note=42 velocity=95 time=0
EXTRACT: note_off channel=11 note=54 velocity=95 time=0.125
EXTRACT: note_on channel=11 note=54 velocity=95 time=0
EXTRACT: note_off channel=11 note=54 velocity=95 time=0.125
EXTRACT: note_on channel=11 note=56 velocity=95 time=0
EXTRACT: note_off channel=4 note=66 velocity=95 time=0
EXTRACT: note_off channel=4 note=65 velocity=95 time=0
EXTRACT: note_off channel=4 note=61 velocity=95 time=0
EXTRACT: note_off channel=4 note=58 velocity=95 time=0
EXTRACT: note_on channel=4 note=68 velocity=95 time=0
EXTRACT: note_on channel=4 note=63 velocity=95 time=0
EXTRACT: note_on channel=4 note=59 velocity=95 time=0
EXTRACT: note_on channel=4 note=56 velocity=95 time=0
EXTRACT: note_on channel=8 note=68 velocity=95 time=0
EXTRACT: note_on channel=13 note=68 velocity=95 time=0
EXTRACT: note_off channel=6 note=34 velocity=111 time=0
EXTRACT: note_on channel=6 note=32 velocity=111 time=0
EXTRACT: note_off channel=9 note=42 velocity=95 time=0
EXTRACT: note_on channel=9 note=42 velocity=95 time=0
EXTRACT: note_on channel=9 note=35 velocity=95 time=0
EXTRACT: note_off channel=11 note=56 velocity=95 time=0.25
EXTRACT: note_on channel=11 note=56 velocity=95 time=0
EXTRACT: note_off channel=8 note=68 velocity=95 time=0
EXTRACT: note_off channel=13 note=68 velocity=95 time=0
EXTRACT: note_off channel=6 note=32 velocity=111 time=0
EXTRACT: note_on channel=6 note=32 velocity=111 time=0
EXTRACT: note_off channel=9 note=42 velocity=95 time=0
EXTRACT: note_off channel=9 note=35 velocity=95 time=0
EXTRACT: note_on channel=9 note=42 velocity=95 time=0
EXTRACT: note_off channel=11 note=56 velocity=95 time=0.125
EXTRACT: note_on channel=11 note=56 velocity=95 time=0
EXTRACT: note_off channel=0 note=70 velocity=102 time=0.125
EXTRACT: note_off channel=11 note=56 velocity=95 time=0
EXTRACT: note_on channel=11 note=56 velocity=95 time=0
EXTRACT: note_on channel=8 note=63 velocity=95 time=0
EXTRACT: note_on channel=13 note=63 velocity=95 time=0
EXTRACT: note_off channel=6 note=32 velocity=111 time=0
EXTRACT: note_on channel=6 note=32 velocity=111 time=0
EXTRACT: note_off channel=9 note=42 velocity=95 time=0
EXTRACT: note_on channel=9 note=42 velocity=95 time=0
EXTRACT: note_on channel=9 note=38 velocity=95 time=0
EXTRACT: note_off channel=11 note=56 velocity=95 time=0.25
EXTRACT: note_on channel=11 note=56 velocity=95 time=0
EXTRACT: note_off channel=8 note=63 velocity=95 time=0
EXTRACT: note_off channel=13 note=63 velocity=95 time=0
EXTRACT: note_off channel=6 note=32 velocity=111 time=0
EXTRACT: note_on channel=6 note=32 velocity=111 time=0
EXTRACT: note_off channel=9 note=42 velocity=95 time=0
EXTRACT: note_off channel=9 note=38 velocity=95 time=0
EXTRACT: note_on channel=9 note=42 velocity=95 time=0
EXTRACT: note_off channel=11 note=56 velocity=95 time=0.125
EXTRACT: note_on channel=11 note=56 velocity=95 time=0
EXTRACT: note_off channel=6 note=32 velocity=111 time=0
EXTRACT: note_on channel=6 note=32 velocity=111 time=0
EXTRACT: note_off channel=9 note=42 velocity=95 time=0
EXTRACT: note_on channel=9 note=35 velocity=95 time=0
EXTRACT: note_on channel=0 note=66 velocity=127 time=0.125
EXTRACT: note_off channel=11 note=56 velocity=95 time=0
EXTRACT: note_on channel=11 note=56 velocity=95 time=0
EXTRACT: note_on channel=8 note=59 velocity=95 time=0
EXTRACT: note_on channel=13 note=59 velocity=95 time=0
EXTRACT: note_off channel=6 note=32 velocity=111 time=0
EXTRACT: note_on channel=6 note=32 velocity=111 time=0
EXTRACT: note_off channel=9 note=35 velocity=95 time=0
EXTRACT: note_on channel=9 note=42 velocity=95 time=0
EXTRACT: note_on channel=9 note=35 velocity=95 time=0
EXTRACT: note_off channel=0 note=66 velocity=127 time=0.25
EXTRACT: note_on channel=0 note=68 velocity=102 time=0
EXTRACT: note_off channel=11 note=56 velocity=95 time=0
EXTRACT: note_on channel=11 note=56 velocity=95 time=0
EXTRACT: note_off channel=8 note=59 velocity=95 time=0
EXTRACT: note_off channel=13 note=59 velocity=95 time=0
EXTRACT: note_off channel=6 note=32 velocity=111 time=0
EXTRACT: note_on channel=6 note=32 velocity=111 time=0
EXTRACT: note_off channel=9 note=42 velocity=95 time=0
EXTRACT: note_off channel=9 note=35 velocity=95 time=0
EXTRACT: note_on channel=9 note=42 velocity=95 time=0
EXTRACT: note_off channel=11 note=56 velocity=95 time=0.125
EXTRACT: note_on channel=11 note=56 velocity=95 time=0
EXTRACT: note_off channel=0 note=68 velocity=102 time=0.125
EXTRACT: note_on channel=0 note=66 velocity=102 time=0
EXTRACT: note_off channel=11 note=56 velocity=95 time=0
EXTRACT: note_on channel=11 note=56 velocity=95 time=0
EXTRACT: note_on channel=8 note=56 velocity=95 time=0
EXTRACT: note_on channel=13 note=56 velocity=95 time=0
EXTRACT: note_off channel=6 note=32 velocity=111 time=0
EXTRACT: note_on channel=6 note=32 velocity=111 time=0
EXTRACT: note_off channel=9 note=42 velocity=95 time=0
EXTRACT: note_on channel=9 note=42 velocity=95 time=0
EXTRACT: note_on channel=9 note=38 velocity=95 time=0
EXTRACT: note_off channel=0 note=66 velocity=102 time=0.25
EXTRACT: note_on channel=0 note=65 velocity=102 time=0
EXTRACT: note_off channel=11 note=56 velocity=95 time=0
EXTRACT: note_on channel=11 note=56 velocity=95 time=0
EXTRACT: note_off channel=8 note=56 velocity=95 time=0
EXTRACT: note_off channel=13 note=56 velocity=95 time=0
EXTRACT: note_off channel=6 note=32 velocity=111 time=0
EXTRACT: note_on channel=6 note=34 velocity=111 time=0
EXTRACT: note_off channel=9 note=42 velocity=95 time=0
EXTRACT: note_off channel=9 note=38 velocity=95 time=0
EXTRACT: note_on channel=9 note=42 velocity=95 time=0
EXTRACT: note_off channel=11 note=56 velocity=95 time=0.125
EXTRACT: note_on channel=11 note=56 velocity=95 time=0
EXTRACT: note_off channel=0 note=65 velocity=102 time=0.125
EXTRACT: note_on channel=1 note=63 velocity=127 time=0
EXTRACT: note_off channel=11 note=56 velocity=95 time=0
EXTRACT: note_on channel=11 note=54 velocity=95 time=0
EXTRACT: note_off channel=4 note=68 velocity=95 time=0
EXTRACT: note_off channel=4 note=63 velocity=95 time=0
EXTRACT: note_off channel=4 note=59 velocity=95 time=0
EXTRACT: note_off channel=4 note=56 velocity=95 time=0
EXTRACT: note_on channel=4 note=66 velocity=95 time=0
EXTRACT: note_on channel=4 note=63 velocity=95 time=0
EXTRACT: note_on channel=4 note=61 velocity=95 time=0
EXTRACT: note_on channel=4 note=58 velocity=95 time=0
EXTRACT: note_on channel=8 note=75 velocity=95 time=0
EXTRACT: note_on channel=13 note=75 velocity=95 time=0
EXTRACT: note_off channel=6 note=34 velocity=111 time=0
EXTRACT: note_on channel=6 note=39 velocity=111 time=0
EXTRACT: note_off channel=9 note=42 velocity=95 time=0
EXTRACT: note_on channel=9 note=42 velocity=95 time=0
EXTRACT: note_on channel=9 note=35 velocity=95 time=0
EXTRACT: note_off channel=11 note=54 velocity=95 time=0.25
EXTRACT: note_on channel=11 note=54 velocity=95 time=0
EXTRACT: note_off channel=8 note=75 velocity=95 time=0
EXTRACT: note_off channel=13 note=75 velocity=95 time=0
EXTRACT: note_off channel=6 note=39 velocity=111 time=0
EXTRACT: note_on channel=6 note=39 velocity=111 time=0
EXTRACT: note_off channel=9 note=42 velocity=95 time=0
EXTRACT: note_off channel=9 note=35 velocity=95 time=0
EXTRACT: note_on channel=9 note=42 velocity=95 time=0
EXTRACT: note_off channel=11 note=54 velocity=95 time=0.125
EXTRACT: note_on channel=11 note=54 velocity=95 time=0
EXTRACT: note_off channel=1 note=63 velocity=127 time=0.125
EXTRACT: note_off channel=11 note=54 velocity=95 time=0
EXTRACT: note_on channel=11 note=54 velocity=95 time=0
EXTRACT: note_on channel=8 note=70 velocity=95 time=0
EXTRACT: note_on channel=13 note=70 velocity=95 time=0
EXTRACT: note_off channel=6 note=39 velocity=111 time=0
EXTRACT: note_on channel=6 note=39 velocity=111 time=0
EXTRACT: note_off channel=9 note=42 velocity=95 time=0
EXTRACT: note_on channel=9 note=42 velocity=95 time=0
EXTRACT: note_on channel=9 note=38 velocity=95 time=0
EXTRACT: note_off channel=11 note=54 velocity=95 time=0.25
EXTRACT: note_on channel=11 note=54 velocity=95 time=0
EXTRACT: note_off channel=8 note=70 velocity=95 time=0
EXTRACT: note_off channel=13 note=70 velocity=95 time=0
EXTRACT: note_off channel=6 note=39 velocity=111 time=0
EXTRACT: note_on channel=6 note=39 velocity=111 time=0
EXTRACT: note_off channel=9 note=42 velocity=95 time=0
EXTRACT: note_off channel=9 note=38 velocity=95 time=0
EXTRACT: note_on channel=9 note=42 velocity=95 time=0
EXTRACT: note_off channel=11 note=54 velocity=95 time=0.125
EXTRACT: note_on channel=11 note=54 velocity=95 time=0
EXTRACT: note_off channel=6 note=39 velocity=111 time=0
EXTRACT: note_on channel=6 note=39 velocity=111 time=0
EXTRACT: note_off channel=9 note=42 velocity=95 time=0
EXTRACT: note_on channel=9 note=35 velocity=95 time=0
EXTRACT: note_off channel=11 note=54 velocity=95 time=0.125
EXTRACT: note_on channel=11 note=54 velocity=95 time=0
EXTRACT: note_on channel=8 note=66 velocity=95 time=0
EXTRACT: note_on channel=13 note=66 velocity=95 time=0
EXTRACT: note_off channel=6 note=39 velocity=111 time=0
EXTRACT: note_on channel=6 note=39 velocity=111 time=0
EXTRACT: note_off channel=9 note=35 velocity=95 time=0
EXTRACT: note_on channel=9 note=42 velocity=95 time=0
EXTRACT: note_on channel=9 note=35 velocity=95 time=0
EXTRACT: note_off channel=11 note=54 velocity=95 time=0.25
EXTRACT: note_on channel=11 note=54 velocity=95 time=0
EXTRACT: note_off channel=8 note=66 velocity=95 time=0
EXTRACT: note_off channel=13 note=66 velocity=95 time=0
EXTRACT: note_off channel=6 note=39 velocity=111 time=0
EXTRACT: note_on channel=6 note=39 velocity=111 time=0
EXTRACT: note_off channel=9 note=42 velocity=95 time=0
EXTRACT: note_off channel=9 note=35 velocity=95 time=0
EXTRACT: note_on channel=9 note=42 velocity=95 time=0
EXTRACT: note_off channel=11 note=54 velocity=95 time=0.125
EXTRACT: note_on channel=11 note=54 velocity=95 time=0
EXTRACT: note_off channel=11 note=54 velocity=95 time=0.125
EXTRACT: note_on channel=11 note=54 velocity=95 time=0
EXTRACT: note_on channel=8 note=63 velocity=95 time=0
EXTRACT: note_on channel=13 note=63 velocity=95 time=0
EXTRACT: note_off channel=6 note=39 velocity=111 time=0
EXTRACT: note_on channel=6 note=39 velocity=111 time=0
EXTRACT: note_off channel=9 note=42 velocity=95 time=0
EXTRACT: note_on channel=9 note=42 velocity=95 time=0
EXTRACT: note_on channel=9 note=38 velocity=95 time=0
EXTRACT: note_off channel=11 note=54 velocity=95 time=0.25
EXTRACT: note_on channel=11 note=54 velocity=95 time=0
EXTRACT: note_off channel=8 note=63 velocity=95 time=0
EXTRACT: note_off channel=13 note=63 velocity=95 time=0
EXTRACT: note_off channel=6 note=39 velocity=111 time=0
EXTRACT: note_on channel=6 note=34 velocity=111 time=0
EXTRACT: note_off channel=9 note=42 velocity=95 time=0
EXTRACT: note_off channel=9 note=38 velocity=95 time=0
EXTRACT: note_on channel=9 note=42 velocity=95 time=0
EXTRACT: note_off channel=11 note=54 velocity=95 time=0.125
EXTRACT: note_on channel=11 note=54 velocity=95 time=0
EXTRACT: note_on channel=2 note=56 velocity=95 time=0.125
EXTRACT: note_off channel=11 note=54 velocity=95 time=0
EXTRACT: note_on channel=11 note=56 velocity=95 time=0
EXTRACT: note_off channel=4 note=66 velocity=95 time=0
EXTRACT: note_off channel=4 note=63 velocity=95 time=0
EXTRACT: note_off channel=4 note=61 velocity=95 time=0
EXTRACT: note_off channel=4 note=58 velocity=95 time=0
EXTRACT: note_on channel=4 note=68 velocity=95 time=0
EXTRACT: note_on channel=4 note=63 velocity=95 time=0
EXTRACT: note_on channel=4 note=59 velocity=95 time=0
EXTRACT: note_on channel=4 note=56 velocity=95 time=0
EXTRACT: note_on channel=8 note=68 velocity=95 time=0
EXTRACT: note_on channel=13 note=68 velocity=95 time=0
EXTRACT: note_off channel=6 note=34 velocity=111 time=0
EXTRACT: note_on channel=6 note=44 velocity=111 time=0
EXTRACT: note_off channel=9 note=42 velocity=95 time=0
EXTRACT: note_on channel=9 note=49 velocity=111 time=0
EXTRACT: note_on channel=9 note=35 velocity=95 time=0
EXTRACT: note_off channel=2 note=56 velocity=95 time=0.25
EXTRACT: note_off channel=11 note=56 velocity=95 time=0
EXTRACT: note_off channel=4 note=68 velocity=95 time=0
EXTRACT: note_off channel=4 note=63 velocity=95 time=0
EXTRACT: note_off channel=4 note=59 velocity=95 time=0
EXTRACT: note_off channel=4 note=56 velocity=95 time=0
EXTRACT: note_off channel=8 note=68 velocity=95 time=0
EXTRACT: note_off channel=13 note=68 velocity=95 time=0
EXTRACT: note_off channel=6 note=44 velocity=111 time=0
EXTRACT: note_on channel=2 note=43 velocity=95 time=0.25
EXTRACT: note_on channel=11 note=43 velocity=95 time=0
EXTRACT: note_on channel=4 note=68 velocity=95 time=0
EXTRACT: note_on channel=4 note=63 velocity=95 time=0
EXTRACT: note_on channel=4 note=59 velocity=95 time=0
EXTRACT: note_on channel=4 note=56 velocity=95 time=0
EXTRACT: note_on channel=8 note=56 velocity=95 time=0
EXTRACT: note_on channel=13 note=56 velocity=95 time=0
EXTRACT: note_on channel=6 note=32 velocity=111 time=0
EXTRACT: note_off channel=9 note=49 velocity=111 time=0
EXTRACT: note_off channel=9 note=35 velocity=95 time=0
EXTRACT: note_on channel=9 note=49 velocity=111 time=0
EXTRACT: note_on channel=9 note=35 velocity=95 time=0
EXTRACT: note_off channel=2 note=43 velocity=95 time=0.25
EXTRACT: note_off channel=11 note=43 velocity=95 time=0
EXTRACT: note_off channel=4 note=68 velocity=95 time=0
EXTRACT: note_off channel=4 note=63 velocity=95 time=0
EXTRACT: note_off channel=4 note=59 velocity=95 time=0
EXTRACT: note_off channel=4 note=56 velocity=95 time=0
EXTRACT: note_off channel=8 note=56 velocity=95 time=0
EXTRACT: note_off channel=13 note=56 velocity=95 time=0
EXTRACT: note_off channel=6 note=32 velocity=111 time=0
EXTRACT: note_on channel=2 note=43 velocity=95 time=0.25
EXTRACT: note_on channel=11 note=43 velocity=95 time=0
EXTRACT: note_on channel=4 note=68 velocity=95 time=0
EXTRACT: note_on channel=4 note=63 velocity=95 time=0
EXTRACT: note_on channel=4 note=59 velocity=95 time=0
EXTRACT: note_on channel=4 note=56 velocity=95 time=0
EXTRACT: note_on channel=8 note=56 velocity=95 time=0
EXTRACT: note_on channel=13 note=56 velocity=95 time=0
EXTRACT: note_on channel=6 note=32 velocity=111 time=0
EXTRACT: note_off channel=9 note=49 velocity=111 time=0
EXTRACT: note_off channel=9 note=35 velocity=95 time=0
EXTRACT: note_on channel=9 note=49 velocity=111 time=0
EXTRACT: note_on channel=9 note=35 velocity=95 time=0
EXTRACT: note_on channel=0 note=61 velocity=127 time=0.25
EXTRACT: note_off channel=2 note=43 velocity=95 time=0
EXTRACT: note_off channel=11 note=43 velocity=95 time=0
EXTRACT: note_off channel=4 note=68 velocity=95 time=0
EXTRACT: note_off channel=4 note=63 velocity=95 time=0
EXTRACT: note_off channel=4 note=59 velocity=95 time=0
EXTRACT: note_off channel=4 note=56 velocity=95 time=0
EXTRACT: note_off channel=8 note=56 velocity=95 time=0
EXTRACT: note_off channel=13 note=56 velocity=95 time=0
EXTRACT: note_off channel=6 note=32 velocity=111 time=0
EXTRACT: note_off channel=0 note=61 velocity=127 time=0.25
EXTRACT: note_on channel=0 note=61 velocity=127 time=0
EXTRACT: note_off channel=9 note=49 velocity=111 time=0
EXTRACT: note_off channel=9 note=35 velocity=95 time=0
EXTRACT: note_on channel=9 note=38 velocity=95 time=0
EXTRACT: note_off channel=0 note=61 velocity=127 time=0.25
EXTRACT: note_on channel=0 note=70 velocity=102 time=0
EXTRACT: note_on channel=2 note=66 velocity=95 time=0.25
EXTRACT: note_on channel=2 note=61 velocity=95 time=0
EXTRACT: note_on channel=2 note=58 velocity=95 time=0
EXTRACT: note_on channel=4 note=66 velocity=95 time=0
EXTRACT: note_on channel=4 note=61 velocity=95 time=0
EXTRACT: note_on channel=4 note=58 velocity=95 time=0
EXTRACT: note_on channel=6 note=42 velocity=111 time=0
EXTRACT: note_off channel=9 note=38 velocity=95 time=0
EXTRACT: note_on channel=9 note=42 velocity=95 time=0
EXTRACT: note_on channel=9 note=35 velocity=95 time=0
EXTRACT: note_off channel=2 note=66 velocity=95 time=0.25
EXTRACT: note_off channel=2 note=61 velocity=95 time=0
EXTRACT: note_off channel=2 note=58 velocity=95 time=0
EXTRACT: note_off channel=4 note=66 velocity=95 time=0
EXTRACT: note_off channel=4 note=61 velocity=95 time=0
EXTRACT: note_off channel=4 note=58 velocity=95 time=0
EXTRACT: note_off channel=6 note=42 velocity=111 time=0
EXTRACT: note_on channel=6 note=39 velocity=111 time=0
EXTRACT: note_off channel=9 note=42 velocity=95 time=0
EXTRACT: note_off channel=9 note=35 velocity=95 time=0
EXTRACT: note_on channel=9 note=42 velocity=95 time=0
EXTRACT: note_off channel=0 note=70 velocity=102 time=0.25
EXTRACT: note_off channel=6 note=39 velocity=111 time=0
EXTRACT: note_on channel=6 note=37 velocity=111 time=0
EXTRACT: note_off channel=9 note=42 velocity=95 time=0
EXTRACT: note_on channel=9 note=42 velocity=95 time=0
EXTRACT: note_on channel=9 note=38 velocity=95 time=0
EXTRACT: note_on channel=2 note=66 velocity=95 time=0.25
EXTRACT: note_on channel=2 note=61 velocity=95 time=0
EXTRACT: note_on channel=2 note=58 velocity=95 time=0
EXTRACT: note_on channel=4 note=66 velocity=95 time=0
EXTRACT: note_on channel=4 note=61 velocity=95 time=0
EXTRACT: note_on channel=4 note=58 velocity=95 time=0
EXTRACT: note_off channel=6 note=37 velocity=111 time=0
EXTRACT: note_on channel=6 note=42 velocity=111 time=0
EXTRACT: note_off channel=9 note=42 velocity=95 time=0
EXTRACT: note_off channel=9 note=38 velocity=95 time=0
EXTRACT: note_on channel=9 note=42 velocity=95 time=0
EXTRACT: note_off channel=2 note=66 velocity=95 time=0.25
EXTRACT: note_off channel=2 note=61 velocity=95 time=0
EXTRACT: note_off channel=2 note=58 velocity=95 time=0
EXTRACT: note_off channel=4 note=66 velocity=95 time=0
EXTRACT: note_off channel=4 note=61 velocity=95 time=0
EXTRACT: note_off channel=4 note=58 velocity=95 time=0
EXTRACT: note_off channel=6 note=42 velocity=111 time=0
EXTRACT: note_on channel=6 note=42 velocity=111 time=0
EXTRACT: note_off channel=9 note=42 velocity=95 time=0
EXTRACT: note_on channel=9 note=42 velocity=95 time=0
EXTRACT: note_on channel=9 note=35 velocity=95 time=0
EXTRACT: note_on channel=0 note=68 velocity=127 time=0.25
EXTRACT: note_off channel=6 note=42 velocity=111 time=0
EXTRACT: note_on channel=6 note=39 velocity=111 time=0
EXTRACT: note_off channel=9 note=42 velocity=95 time=0
EXTRACT: note_off channel=9 note=35 velocity=95 time=0
EXTRACT: note_on channel=9 note=42 velocity=95 time=0
EXTRACT: note_off channel=0 note=68 velocity=127 time=0.25
EXTRACT: note_on channel=0 note=66 velocity=127 time=0
EXTRACT: note_off channel=6 note=39 velocity=111 time=0
EXTRACT: note_on channel=6 note=37 velocity=111 time=0
EXTRACT: note_off channel=9 note=42 velocity=95 time=0
EXTRACT: note_on channel=9 note=42 velocity=95 time=0
EXTRACT: note_on channel=9 note=38 velocity=95 time=0
EXTRACT: note_off channel=0 note=66 velocity=127 time=0.25
EXTRACT: note_on channel=0 note=66 velocity=127 time=0
EXTRACT: note_off channel=6 note=37 velocity=111 time=0
EXTRACT: note_on channel=6 note=39 velocity=111 time=0
EXTRACT: note_off channel=9 note=42 velocity=95 time=0
EXTRACT: note_off channel=9 note=38 velocity=95 time=0
EXTRACT: note_on channel=9 note=42 velocity=95 time=0
EXTRACT: note_on channel=2 note=66 velocity=95 time=0.25
EXTRACT: note_on channel=2 note=61 velocity=95 time=0
EXTRACT: note_on channel=2 note=58 velocity=95 time=0
EXTRACT: note_on channel=4 note=66 velocity=95 time=0
EXTRACT: note_on channel=4 note=61 velocity=95 time=0
EXTRACT: note_on channel=4 note=58 velocity=95 time=0
EXTRACT: note_off channel=6 note=39 velocity=111 time=0
EXTRACT: note_on channel=6 note=42 velocity=111 time=0
EXTRACT: note_off channel=9 note=42 velocity=95 time=0
EXTRACT: note_on channel=9 note=42 velocity=95 time=0
EXTRACT: note_on channel=9 note=35 velocity=95 time=0
EXTRACT: note_off channel=2 note=66 velocity=95 time=0.25
EXTRACT: note_off channel=2 note=61 velocity=95 time=0
EXTRACT: note_off channel=2 note=58 velocity=95 time=0
EXTRACT: note_off channel=4 note=66 velocity=95 time=0
EXTRACT: note_off channel=4 note=61 velocity=95 time=0
EXTRACT: note_off channel=4 note=58 velocity=95 time=0
EXTRACT: note_off channel=6 note=42 velocity=111 time=0
EXTRACT: note_on channel=6 note=39 velocity=111 time=0
EXTRACT: note_off channel=9 note=42 velocity=95 time=0
EXTRACT: note_off channel=9 note=35 velocity=95 time=0
EXTRACT: note_on channel=9 note=42 velocity=95 time=0
EXTRACT: note_off channel=0 note=66 velocity=127 time=0.25
EXTRACT: note_off channel=6 note=39 velocity=111 time=0
EXTRACT: note_on channel=6 note=37 velocity=111 time=0
EXTRACT: note_off channel=9 note=42 velocity=95 time=0
EXTRACT: note_on channel=9 note=42 velocity=95 time=0
EXTRACT: note_on channel=9 note=38 velocity=95 time=0
EXTRACT: note_on channel=2 note=66 velocity=95 time=0.25
EXTRACT: note_on channel=2 note=61 velocity=95 time=0
EXTRACT: note_on channel=2 note=58 velocity=95 time=0
EXTRACT: note_on channel=4 note=66 velocity=95 time=0
EXTRACT: note_on channel=4 note=61 velocity=95 time=0
EXTRACT: note_on channel=4 note=58 velocity=95 time=0
EXTRACT: note_on channel=8 note=61 velocity=95 time=0
EXTRACT: note_off channel=6 note=37 velocity=111 time=0
EXTRACT: note_on channel=6 note=42 velocity=111 time=0
EXTRACT: note_off channel=9 note=42 velocity=95 time=0
EXTRACT: note_off channel=9 note=38 velocity=95 time=0
EXTRACT: note_on channel=9 note=42 velocity=95 time=0
EXTRACT: note_off channel=8 note=61 velocity=95 time=0.125
EXTRACT: note_on channel=8 note=63 velocity=95 time=0
EXTRACT: note_off channel=2 note=66 velocity=95 time=0.125
EXTRACT: note_off channel=2 note=61 velocity=95 time=0
EXTRACT: note_off channel=2 note=58 velocity=95 time=0
EXTRACT: note_off channel=4 note=66 velocity=95 time=0
EXTRACT: note_off channel=4 note=61 velocity=95 time=0
EXTRACT: note_off channel=4 note=58 velocity=95 time=0
EXTRACT: note_off channel=8 note=63 velocity=95 time=0
EXTRACT: note_on channel=8 note=66 velocity=95 time=0
EXTRACT: note_off channel=6 note=42 velocity=111 time=0
EXTRACT: note_on channel=6 note=42 velocity=111 time=0
EXTRACT: note_off channel=9 note=42 velocity=95 time=0
EXTRACT: note_on channel=9 note=42 velocity=95 time=0
EXTRACT: note_on channel=9 note=35 velocity=95 time=0
EXTRACT: note_off channel=8 note=66 velocity=95 time=0.125
EXTRACT: note_on channel=8 note=66 velocity=95 time=0
EXTRACT: note_on channel=0 note=61 velocity=127 time=0.125
EXTRACT: note_off channel=8 note=66 velocity=95 time=0
EXTRACT: note_on channel=8 note=63 velocity=95 time=0
EXTRACT: note_off channel=6 note=42 velocity=111 time=0
EXTRACT: note_on channel=6 note=39 velocity=111 time=0
EXTRACT: note_off channel=9 note=42 velocity=95 time=0
EXTRACT: note_off channel=9 note=35 velocity=95 time=0
EXTRACT: note_on channel=9 note=42 velocity=95 time=0
EXTRACT: note_off channel=0 note=61 velocity=127 time=0.25
EXTRACT: note_on channel=0 note=61 velocity=127 time=0
EXTRACT: note_off channel=8 note=63 velocity=95 time=0
EXTRACT: note_off channel=6 note=39 velocity=111 time=0
EXTRACT: note_on channel=6 note=37 velocity=111 time=0
EXTRACT: note_off channel=9 note=42 velocity=95 time=0
EXTRACT: note_on channel=9 note=42 velocity=95 time=0
EXTRACT: note_on channel=9 note=38 velocity=95 time=0
EXTRACT: note_off channel=0 note=61 velocity=127 time=0.25
EXTRACT: note_on channel=0 note=70 velocity=127 time=0
EXTRACT: note_off channel=6 note=37 velocity=111 time=0
EXTRACT: note_on channel=6 note=39 velocity=111 time=0
EXTRACT: note_off channel=9 note=42 velocity=95 time=0
EXTRACT: note_off channel=9 note=38 velocity=95 time=0
EXTRACT: note_on channel=9 note=42 velocity=95 time=0
EXTRACT: note_on channel=2 note=66 velocity=95 time=0.25
EXTRACT: note_on channel=2 note=61 velocity=95 time=0
EXTRACT: note_on channel=2 note=58 velocity=95 time=0
EXTRACT: note_on channel=4 note=66 velocity=95 time=0
EXTRACT: note_on channel=4 note=61 velocity=95 time=0
EXTRACT: note_on channel=4 note=58 velocity=95 time=0
EXTRACT: note_off channel=6 note=39 velocity=111 time=0
EXTRACT: note_on channel=6 note=42 velocity=111 time=0
EXTRACT: note_off channel=9 note=42 velocity=95 time=0
EXTRACT: note_on channel=9 note=49 velocity=95 time=0
EXTRACT: note_on channel=9 note=35 velocity=95 time=0
EXTRACT: note_off channel=2 note=66 velocity=95 time=0.25
EXTRACT: note_off channel=2 note=61 velocity=95 time=0
EXTRACT: note_off channel=2 note=58 velocity=95 time=0
EXTRACT: note_off channel=4 note=66 velocity=95 time=0
EXTRACT: note_off channel=4 note=61 velocity=95 time=0
EXTRACT: note_off channel=4 note=58 velocity=95 time=0
EXTRACT: note_off channel=6 note=42 velocity=111 time=0
EXTRACT: note_on channel=6 note=39 velocity=111 time=0
EXTRACT: note_off channel=0 note=70 velocity=127 time=0.25
EXTRACT: note_off channel=6 note=39 velocity=111 time=0
EXTRACT: note_on channel=6 note=37 velocity=111 time=0
EXTRACT: note_off channel=9 note=49 velocity=95 time=0
EXTRACT: note_off channel=9 note=35 velocity=95 time=0
EXTRACT: note_on channel=9 note=42 velocity=95 time=0
EXTRACT: note_on channel=9 note=38 velocity=95 time=0
EXTRACT: note_on channel=2 note=66 velocity=95 time=0.25
EXTRACT: note_on channel=2 note=61 velocity=95 time=0
EXTRACT: note_on channel=2 note=58 velocity=95 time=0
EXTRACT: note_on channel=4 note=66 velocity=95 time=0
EXTRACT: note_on channel=4 note=61 velocity=95 time=0
EXTRACT: note_on channel=4 note=58 velocity=95 time=0
EXTRACT: note_off channel=6 note=37 velocity=111 time=0
EXTRACT: note_on channel=6 note=42 velocity=111 time=0
EXTRACT: note_off channel=9 note=42 velocity=95 time=0
EXTRACT: note_off channel=9 note=38 velocity=95 time=0
EXTRACT: note_on channel=9 note=42 velocity=95 time=0
EXTRACT: note_off channel=2 note=66 velocity=95 time=0.25
EXTRACT: note_off channel=2 note=61 velocity=95 time=0
EXTRACT: note_off channel=2 note=58 velocity=95 time=0
EXTRACT: note_off channel=4 note=66 velocity=95 time=0
EXTRACT: note_off channel=4 note=61 velocity=95 time=0
EXTRACT: note_off channel=4 note=58 velocity=95 time=0
EXTRACT: note_off channel=6 note=42 velocity=111 time=0
EXTRACT: note_on channel=6 note=42 velocity=111 time=0
EXTRACT: note_off channel=9 note=42 velocity=95 time=0
EXTRACT: note_on channel=9 note=42 velocity=95 time=0
EXTRACT: note_on channel=9 note=35 velocity=95 time=0
EXTRACT: note_on channel=0 note=68 velocity=127 time=0.25
EXTRACT: note_off channel=6 note=42 velocity=111 time=0
EXTRACT: note_on channel=6 note=39 velocity=111 time=0
EXTRACT: note_off channel=9 note=42 velocity=95 time=0
EXTRACT: note_off channel=9 note=35 velocity=95 time=0
EXTRACT: note_on channel=9 note=42 velocity=95 time=0
EXTRACT: note_off channel=0 note=68 velocity=127 time=0.25
EXTRACT: note_on channel=0 note=70 velocity=127 time=0
EXTRACT: note_off channel=6 note=39 velocity=111 time=0
EXTRACT: note_on channel=6 note=37 velocity=111 time=0
EXTRACT: note_off channel=9 note=42 velocity=95 time=0
EXTRACT: note_on channel=9 note=42 velocity=95 time=0
EXTRACT: note_on channel=9 note=38 velocity=95 time=0
EXTRACT: note_off channel=0 note=70 velocity=127 time=0.25
EXTRACT: note_on channel=0 note=71 velocity=127 time=0
EXTRACT: note_off channel=6 note=37 velocity=111 time=0
EXTRACT: note_on channel=6 note=39 velocity=111 time=0
EXTRACT: note_off channel=9 note=42 velocity=95 time=0
EXTRACT: note_off channel=9 note=38 velocity=95 time=0
EXTRACT: note_on channel=9 note=42 velocity=95 time=0
EXTRACT: note_on channel=2 note=66 velocity=95 time=0.25
EXTRACT: note_on channel=2 note=61 velocity=95 time=0
EXTRACT: note_on channel=2 note=58 velocity=95 time=0
EXTRACT: note_on channel=4 note=66 velocity=95 time=0
EXTRACT: note_on channel=4 note=61 velocity=95 time=0
EXTRACT: note_on channel=4 note=58 velocity=95 time=0
EXTRACT: note_off channel=6 note=39 velocity=111 time=0
EXTRACT: note_on channel=6 note=42 velocity=111 time=0
EXTRACT: note_off channel=9 note=42 velocity=95 time=0
EXTRACT: note_on channel=9 note=42 velocity=95 time=0
EXTRACT: note_on channel=9 note=35 velocity=95 time=0
EXTRACT: note_off channel=0 note=71 velocity=127 time=0.25
EXTRACT: note_on channel=0 note=73 velocity=127 time=0
EXTRACT: note_off channel=2 note=66 velocity=95 time=0
EXTRACT: note_off channel=2 note=61 velocity=95 time=0
EXTRACT: note_off channel=2 note=58 velocity=95 time=0
EXTRACT: note_off channel=4 note=66 velocity=95 time=0
EXTRACT: note_off channel=4 note=61 velocity=95 time=0
EXTRACT: note_off channel=4 note=58 velocity=95 time=0
EXTRACT: note_off channel=6 note=42 velocity=111 time=0
EXTRACT: note_on channel=6 note=39 velocity=111 time=0
EXTRACT: note_off channel=9 note=42 velocity=95 time=0
EXTRACT: note_off channel=9 note=35 velocity=95 time=0
EXTRACT: note_on channel=9 note=42 velocity=95 time=0
EXTRACT: note_off channel=6 note=39 velocity=111 time=0.25
EXTRACT: note_on channel=6 note=37 velocity=111 time=0
EXTRACT: note_off channel=9 note=42 velocity=95 time=0
EXTRACT: note_on channel=9 note=42 velocity=95 time=0
EXTRACT: note_on channel=9 note=38 velocity=95 time=0
EXTRACT: note_off channel=0 note=73 velocity=127 time=0.25
EXTRACT: note_on channel=0 note=70 velocity=127 time=0
EXTRACT: note_on channel=2 note=66 velocity=95 time=0
EXTRACT: note_on channel=2 note=61 velocity=95 time=0
EXTRACT: note_on channel=2 note=58 velocity=95 time=0
EXTRACT: note_on channel=4 note=66 velocity=95 time=0
EXTRACT: note_on channel=4 note=61 velocity=95 time=0
EXTRACT: note_on channel=4 note=58 velocity=95 time=0
EXTRACT: note_off channel=6 note=37 velocity=111 time=0
EXTRACT: note_on channel=6 note=42 velocity=111 time=0
EXTRACT: note_off channel=9 note=42 velocity=95 time=0
EXTRACT: note_off channel=9 note=38 velocity=95 time=0
EXTRACT: note_on channel=9 note=42 velocity=95 time=0
EXTRACT: note_off channel=0 note=70 velocity=127 time=0.25
EXTRACT: note_on channel=0 note=68 velocity=102 time=0
EXTRACT: note_off channel=2 note=66 velocity=95 time=0
EXTRACT: note_off channel=2 note=61 velocity=95 time=0
EXTRACT: note_off channel=2 note=58 velocity=95 time=0
EXTRACT: note_off channel=4 note=66 velocity=95 time=0
EXTRACT: note_off channel=4 note=61 velocity=95 time=0
EXTRACT: note_off channel=4 note=58 velocity=95 time=0
EXTRACT: note_off channel=6 note=42 velocity=111 time=0
EXTRACT: note_on channel=6 note=42 velocity=111 time=0
EXTRACT: note_off channel=9 note=42 velocity=95 time=0
EXTRACT: note_on channel=9 note=42 velocity=95 time=0
EXTRACT: note_on channel=9 note=35 velocity=95 time=0
EXTRACT: note_off channel=6 note=42 velocity=111 time=0.25
EXTRACT: note_on channel=6 note=39 velocity=111 time=0
EXTRACT: note_off channel=9 note=42 velocity=95 time=0
EXTRACT: note_off channel=9 note=35 velocity=95 time=0
EXTRACT: note_on channel=9 note=42 velocity=95 time=0
EXTRACT: note_off channel=9 note=42 velocity=95 time=0.125
EXTRACT: note_on channel=9 note=35 velocity=95 time=0
EXTRACT: note_off channel=0 note=68 velocity=102 time=0.125
EXTRACT: note_on channel=0 note=68 velocity=127 time=0
EXTRACT: note_off channel=6 note=39 velocity=111 time=0
EXTRACT: note_on channel=6 note=37 velocity=111 time=0
EXTRACT: note_off channel=9 note=35 velocity=95 time=0
EXTRACT: note_on channel=9 note=42 velocity=95 time=0
EXTRACT: note_on channel=9 note=38 velocity=95 time=0
EXTRACT: note_off channel=0 note=68 velocity=127 time=0.25
EXTRACT: note_on channel=0 note=66 velocity=127 time=0
EXTRACT: note_off channel=6 note=37 velocity=111 time=0
EXTRACT: note_on channel=6 note=39 velocity=111 time=0
EXTRACT: note_off channel=9 note=42 velocity=95 time=0
EXTRACT: note_off channel=9 note=38 velocity=95 time=0
EXTRACT: note_on channel=9 note=42 velocity=95 time=0
EXTRACT: note_off channel=0 note=66 velocity=127 time=0.25
EXTRACT: note_on channel=0 note=68 velocity=127 time=0
EXTRACT: note_on channel=2 note=68 velocity=95 time=0
EXTRACT: note_on channel=2 note=63 velocity=95 time=0
EXTRACT: note_on channel=2 note=59 velocity=95 time=0
EXTRACT: note_on channel=4 note=68 velocity=95 time=0
EXTRACT: note_on channel=4 note=66 velocity=95 time=0
EXTRACT: note_on channel=4 note=63 velocity=95 time=0
EXTRACT: note_on channel=4 note=59 velocity=95 time=0
EXTRACT: note_off channel=6 note=39 velocity=111 time=0
EXTRACT: note_on channel=6 note=44 velocity=111 time=0
EXTRACT: note_off channel=9 note=42 velocity=95 time=0
EXTRACT: note_on channel=9 note=49 velocity=95 time=0
EXTRACT: note_on channel=9 note=35 velocity=95 time=0
EXTRACT: note_off channel=0 note=68 velocity=127 time=0.25
EXTRACT: note_on channel=0 note=68 velocity=127 time=0
EXTRACT: note_off channel=6 note=44 velocity=111 time=0
EXTRACT: note_on channel=6 note=44 velocity=111 time=0
EXTRACT: note_off channel=9 note=49 velocity=95 time=0
EXTRACT: note_off channel=9 note=35 velocity=95 time=0
EXTRACT: note_on channel=9 note=42 velocity=95 time=0
EXTRACT: note_off channel=2 note=68 velocity=95 time=0.25
EXTRACT: note_off channel=2 note=63 velocity=95 time=0
EXTRACT: note_off channel=2 note=59 velocity=95 time=0
EXTRACT: note_on channel=2 note=68 velocity=95 time=0
EXTRACT: note_on channel=2 note=63 velocity=95 time=0
EXTRACT: note_on channel=2 note=59 velocity=95 time=0
EXTRACT: note_off channel=6 note=44 velocity=111 time=0
EXTRACT: note_on channel=6 note=44 velocity=111 time=0
EXTRACT: note_off channel=9 note=42 velocity=95 time=0
EXTRACT: note_on channel=9 note=38 velocity=95 time=0
EXTRACT: note_off channel=0 note=68 velocity=127 time=0.25
EXTRACT: note_on channel=0 note=68 velocity=102 time=0
EXTRACT: note_off channel=6 note=44 velocity=111 time=0
EXTRACT: note_on channel=6 note=44 velocity=111 time=0
EXTRACT: note_off channel=9 note=38 velocity=95 time=0
EXTRACT: note_on channel=9 note=42 velocity=95 time=0
EXTRACT: note_off channel=0 note=68 velocity=102 time=0.25
EXTRACT: note_on channel=0 note=66 velocity=102 time=0
EXTRACT: note_off channel=2 note=68 velocity=95 time=0
EXTRACT: note_off channel=2 note=63 velocity=95 time=0
EXTRACT: note_off channel=2 note=59 velocity=95 time=0
EXTRACT: note_on channel=2 note=68 velocity=95 time=0
EXTRACT: note_on channel=2 note=63 velocity=95 time=0
EXTRACT: note_on channel=2 note=59 velocity=95 time=0
EXTRACT: note_off channel=6 note=44 velocity=111 time=0
EXTRACT: note_on channel=6 note=44 velocity=111 time=0
EXTRACT: note_off channel=9 note=42 velocity=95 time=0
EXTRACT: note_on channel=9 note=42 velocity=95 time=0
EXTRACT: note_on channel=9 note=35 velocity=95 time=0
EXTRACT: note_off channel=0 note=66 velocity=102 time=0.25
EXTRACT: note_on channel=0 note=63 velocity=102 time=0
EXTRACT: note_off channel=2 note=68 velocity=95 time=0
EXTRACT: note_off channel=2 note=63 velocity=95 time=0
EXTRACT: note_off channel=2 note=59 velocity=95 time=0
EXTRACT: note_on channel=2 note=68 velocity=95 time=0
EXTRACT: note_on channel=2 note=63 velocity=95 time=0
EXTRACT: note_on channel=2 note=59 velocity=95 time=0
EXTRACT: note_off channel=6 note=44 velocity=111 time=0
EXTRACT: note_on channel=6 note=39 velocity=111 time=0
EXTRACT: note_off channel=9 note=42 velocity=95 time=0
EXTRACT: note_off channel=9 note=35 velocity=95 time=0
EXTRACT: note_on channel=9 note=42 velocity=95 time=0
EXTRACT: note_on channel=9 note=35 velocity=95 time=0
EXTRACT: note_off channel=2 note=68 velocity=95 time=0.25
EXTRACT: note_off channel=2 note=63 velocity=95 time=0
EXTRACT: note_off channel=2 note=59 velocity=95 time=0
EXTRACT: note_on channel=2 note=68 velocity=95 time=0
EXTRACT: note_on channel=2 note=63 velocity=95 time=0
EXTRACT: note_on channel=2 note=59 velocity=95 time=0
EXTRACT: note_off channel=6 note=39 velocity=111 time=0
EXTRACT: note_on channel=6 note=44 velocity=111 time=0
EXTRACT: note_off channel=9 note=42 velocity=95 time=0
EXTRACT: note_off channel=9 note=35 velocity=95 time=0
EXTRACT: note_on channel=9 note=42 velocity=95 time=0
EXTRACT: note_on channel=9 note=38 velocity=95 time=0
EXTRACT: note_off channel=2 note=68 velocity=95 time=0.25
EXTRACT: note_off channel=2 note=63 velocity=95 time=0
EXTRACT: note_off channel=2 note=59 velocity=95 time=0
EXTRACT: note_on channel=2 note=66 velocity=95 time=0
EXTRACT: note_on channel=2 note=61 velocity=95 time=0
EXTRACT: note_on channel=2 note=58 velocity=95 time=0
EXTRACT: note_off channel=4 note=68 velocity=95 time=0
EXTRACT: note_off channel=4 note=66 velocity=95 time=0
EXTRACT: note_off channel=4 note=63 velocity=95 time=0
EXTRACT: note_off channel=4 note=59 velocity=95 time=0
EXTRACT: note_on channel=4 note=66 velocity=95 time=0
EXTRACT: note_on channel=4 note=61 velocity=95 time=0
EXTRACT: note_on channel=4 note=58 velocity=95 time=0
EXTRACT: note_off channel=6 note=44 velocity=111 time=0
EXTRACT: note_on channel=6 note=39 velocity=111 time=0
EXTRACT: note_off channel=9 note=42 velocity=95 time=0
EXTRACT: note_off channel=9 note=38 velocity=95 time=0
EXTRACT: note_on channel=9 note=49 velocity=95 time=0
EXTRACT: note_on channel=9 note=35 velocity=95 time=0
EXTRACT: note_off channel=0 note=63 velocity=102 time=0.25
EXTRACT: note_off channel=9 note=35 velocity=95 time=0
EXTRACT: note_off channel=2 note=66 velocity=95 time=0.25
EXTRACT: note_off channel=2 note=61 velocity=95 time=0
EXTRACT: note_off channel=2 note=58 velocity=95 time=0
EXTRACT: note_on channel=2 note=66 velocity=95 time=0
EXTRACT: note_on channel=2 note=61 velocity=95 time=0
EXTRACT: note_on channel=2 note=58 velocity=95 time=0
EXTRACT: note_off channel=6 note=39 velocity=111 time=0
EXTRACT: note_on channel=6 note=39 velocity=111 time=0
EXTRACT: note_off channel=9 note=49 velocity=95 time=0
EXTRACT: note_on channel=9 note=42 velocity=95 time=0
EXTRACT: note_on channel=9 note=35 velocity=95 time=0
EXTRACT: note_off channel=2 note=66 velocity=95 time=0.25
EXTRACT: note_off channel=2 note=61 velocity=95 time=0
EXTRACT: note_off channel=2 note=58 velocity=95 time=0
EXTRACT: note_on channel=2 note=66 velocity=95 time=0
EXTRACT: note_on channel=2 note=61 velocity=95 time=0
EXTRACT: note_on channel=2 note=58 velocity=95 time=0
EXTRACT: note_off channel=6 note=39 velocity=111 time=0
EXTRACT: note_on channel=6 note=39 velocity=111 time=0
EXTRACT: note_off channel=9 note=42 velocity=95 time=0
EXTRACT: note_off channel=9 note=35 velocity=95 time=0
EXTRACT: note_on channel=9 note=42 velocity=95 time=0
EXTRACT: note_on channel=9 note=38 velocity=95 time=0
EXTRACT: note_off channel=2 note=66 velocity=95 time=0.25
EXTRACT: note_off channel=2 note=61 velocity=95 time=0
EXTRACT: note_off channel=2 note=58 velocity=95 time=0
EXTRACT: note_on channel=2 note=64 velocity=95 time=0
EXTRACT: note_on channel=2 note=59 velocity=95 time=0
EXTRACT: note_on channel=2 note=55 velocity=95 time=0
EXTRACT: note_off channel=6 note=39 velocity=111 time=0
EXTRACT: note_on channel=6 note=39 velocity=111 time=0
EXTRACT: note_off channel=9 note=42 velocity=95 time=0
EXTRACT: note_off channel=9 note=38 velocity=95 time=0
EXTRACT: note_on channel=9 note=42 velocity=95 time=0
EXTRACT: note_off channel=2 note=64 velocity=95 time=0.03125
EXTRACT: note_off channel=2 note=59 velocity=95 time=0
EXTRACT: note_off channel=2 note=55 velocity=95 time=0
EXTRACT: note_off channel=9 note=42 velocity=95 time=0.09375
EXTRACT: note_on channel=9 note=35 velocity=95 time=0
EXTRACT: note_on channel=2 note=64 velocity=95 time=0.125
EXTRACT: note_on channel=2 note=59 velocity=95 time=0
EXTRACT: note_on channel=2 note=55 velocity=95 time=0
EXTRACT: note_off channel=6 note=39 velocity=111 time=0
EXTRACT: note_on channel=6 note=39 velocity=111 time=0
EXTRACT: note_off channel=9 note=35 velocity=95 time=0
EXTRACT: note_on channel=9 note=42 velocity=95 time=0
EXTRACT: note_on channel=9 note=35 velocity=95 time=0
EXTRACT: note_off channel=2 note=64 velocity=95 time=0.03125
EXTRACT: note_off channel=2 note=59 velocity=95 time=0
EXTRACT: note_off channel=2 note=55 velocity=95 time=0
EXTRACT: note_on channel=2 note=66 velocity=95 time=0.21875
EXTRACT: note_on channel=2 note=61 velocity=95 time=0
EXTRACT: note_on channel=2 note=58 velocity=95 time=0
EXTRACT: note_off channel=6 note=39 velocity=111 time=0
EXTRACT: note_on channel=6 note=34 velocity=111 time=0
EXTRACT: note_off channel=9 note=42 velocity=95 time=0
EXTRACT: note_off channel=9 note=35 velocity=95 time=0
EXTRACT: note_on channel=9 note=42 velocity=95 time=0
EXTRACT: note_on channel=9 note=35 velocity=95 time=0
EXTRACT: note_on channel=0 note=68 velocity=127 time=0.25
EXTRACT: note_off channel=2 note=66 velocity=95 time=0
EXTRACT: note_off channel=2 note=61 velocity=95 time=0
EXTRACT: note_off channel=2 note=58 velocity=95 time=0
EXTRACT: note_on channel=2 note=66 velocity=95 time=0
EXTRACT: note_on channel=2 note=61 velocity=95 time=0
EXTRACT: note_on channel=2 note=58 velocity=95 time=0
EXTRACT: note_off channel=6 note=34 velocity=111 time=0
EXTRACT: note_on channel=6 note=39 velocity=111 time=0
EXTRACT: note_off channel=9 note=42 velocity=95 time=0
EXTRACT: note_off channel=9 note=35 velocity=95 time=0
EXTRACT: note_on channel=9 note=46 velocity=95 time=0
EXTRACT: note_on channel=9 note=38 velocity=95 time=0
EXTRACT: note_off channel=0 note=68 velocity=127 time=0.25
EXTRACT: note_on channel=0 note=70 velocity=127 time=0
EXTRACT: note_off channel=2 note=66 velocity=95 time=0
EXTRACT: note_off channel=2 note=61 velocity=95 time=0
EXTRACT: note_off channel=2 note=58 velocity=95 time=0
EXTRACT: note_on channel=2 note=64 velocity=95 time=0
EXTRACT: note_on channel=2 note=59 velocity=95 time=0
EXTRACT: note_on channel=2 note=55 velocity=95 time=0
EXTRACT: note_off channel=6 note=39 velocity=111 time=0
EXTRACT: note_on channel=6 note=34 velocity=111 time=0
EXTRACT: note_off channel=2 note=64 velocity=95 time=0.03125
EXTRACT: note_off channel=2 note=59 velocity=95 time=0
EXTRACT: note_off channel=2 note=55 velocity=95 time=0
EXTRACT: note_off channel=0 note=70 velocity=127 time=0.21875
EXTRACT: note_on channel=0 note=71 velocity=127 time=0
EXTRACT: note_on channel=2 note=68 velocity=95 time=0
EXTRACT: note_on channel=2 note=63 velocity=95 time=0
EXTRACT: note_on channel=2 note=59 velocity=95 time=0
EXTRACT: note_off channel=4 note=66 velocity=95 time=0
EXTRACT: note_off channel=4 note=61 velocity=95 time=0
EXTRACT: note_off channel=4 note=58 velocity=95 time=0
EXTRACT: note_on channel=4 note=68 velocity=95 time=0
EXTRACT: note_on channel=4 note=66 velocity=95 time=0
EXTRACT: note_on channel=4 note=63 velocity=95 time=0
EXTRACT: note_on channel=4 note=59 velocity=95 time=0
EXTRACT: note_off channel=6 note=34 velocity=111 time=0
EXTRACT: note_on channel=6 note=44 velocity=111 time=0
EXTRACT: note_off channel=9 note=46 velocity=95 time=0
EXTRACT: note_off channel=9 note=38 velocity=95 time=0
EXTRACT: note_on channel=9 note=49 velocity=95 time=0
EXTRACT: note_on channel=9 note=35 velocity=95 time=0
EXTRACT: note_off channel=0 note=71 velocity=127 time=0.25
EXTRACT: note_on channel=0 note=70 velocity=102 time=0
EXTRACT: note_off channel=6 note=44 velocity=111 time=0
EXTRACT: note_on channel=6 note=44 velocity=111 time=0
EXTRACT: note_off channel=9 note=49 velocity=95 time=0
EXTRACT: note_off channel=9 note=35 velocity=95 time=0
EXTRACT: note_on channel=9 note=42 velocity=95 time=0
EXTRACT: note_off channel=0 note=70 velocity=102 time=0.25
EXTRACT: note_on channel=0 note=68 velocity=102 time=0
EXTRACT: note_off channel=2 note=68 velocity=95 time=0
EXTRACT: note_off channel=2 note=63 velocity=95 time=0
EXTRACT: note_off channel=2 note=59 velocity=95 time=0
EXTRACT: note_on channel=2 note=68 velocity=95 time=0
EXTRACT: note_on channel=2 note=63 velocity=95 time=0
EXTRACT: note_on channel=2 note=59 velocity=95 time=0
EXTRACT: note_off channel=6 note=44 velocity=111 time=0
EXTRACT: note_on channel=6 note=44 velocity=111 time=0
EXTRACT: note_off channel=9 note=42 velocity=95 time=0
EXTRACT: note_on channel=9 note=38 velocity=95 time=0
EXTRACT: note_off channel=0 note=68 velocity=102 time=0.25
EXTRACT: note_on channel=0 note=66 velocity=102 time=0
EXTRACT: note_off channel=6 note=44 velocity=111 time=0
EXTRACT: note_on channel=6 note=44 velocity=111 time=0
EXTRACT: note_off channel=9 note=38 velocity=95 time=0
EXTRACT: note_on channel=9 note=42 velocity=95 time=0
EXTRACT: note_off channel=2 note=68 velocity=95 time=0.25
EXTRACT: note_off channel=2 note=63 velocity=95 time=0
EXTRACT: note_off channel=2 note=59 velocity=95 time=0
EXTRACT: note_on channel=2 note=68 velocity=95 time=0
EXTRACT: note_on channel=2 note=63 velocity=95 time=0
EXTRACT: note_on channel=2 note=59 velocity=95 time=0
EXTRACT: note_off channel=6 note=44 velocity=111 time=0
EXTRACT: note_on channel=6 note=44 velocity=111 time=0
EXTRACT: note_off channel=9 note=42 velocity=95 time=0
EXTRACT: note_on channel=9 note=42 velocity=95 time=0
EXTRACT: note_on channel=9 note=35 velocity=95 time=0
EXTRACT: note_off channel=0 note=66 velocity=102 time=0.25
EXTRACT: note_on channel=0 note=68 velocity=127 time=0
EXTRACT: note_off channel=2 note=68 velocity=95 time=0
EXTRACT: note_off channel=2 note=63 velocity=95 time=0
EXTRACT: note_off channel=2 note=59 velocity=95 time=0
EXTRACT: note_on channel=2 note=68 velocity=95 time=0
EXTRACT: note_on channel=2 note=63 velocity=95 time=0
EXTRACT: note_on channel=2 note=59 velocity=95 time=0
EXTRACT: note_off channel=6 note=44 velocity=111 time=0
EXTRACT: note_on channel=6 note=39 velocity=111 time=0
EXTRACT: note_off channel=9 note=42 velocity=95 time=0
EXTRACT: note_off channel=9 note=35 velocity=95 time=0
EXTRACT: note_on channel=9 note=42 velocity=95 time=0
EXTRACT: note_on channel=9 note=35 velocity=95 time=0
EXTRACT: note_off channel=2 note=68 velocity=95 time=0.25
EXTRACT: note_off channel=2 note=63 velocity=95 time=0
EXTRACT: note_off channel=2 note=59 velocity=95 time=0
EXTRACT: note_on channel=2 note=68 velocity=95 time=0
EXTRACT: note_on channel=2 note=63 velocity=95 time=0
EXTRACT: note_on channel=2 note=59 velocity=95 time=0
EXTRACT: note_off channel=6 note=39 velocity=111 time=0
EXTRACT: note_on channel=6 note=44 velocity=111 time=0
EXTRACT: note_off channel=9 note=42 velocity=95 time=0
EXTRACT: note_off channel=9 note=35 velocity=95 time=0
EXTRACT: note_on channel=9 note=42 velocity=95 time=0
EXTRACT: note_on channel=9 note=38 velocity=95 time=0
EXTRACT: note_off channel=0 note=68 velocity=127 time=0.25
EXTRACT: note_on channel=0 note=68 velocity=127 time=0
EXTRACT: note_off channel=2 note=68 velocity=95 time=0
EXTRACT: note_off channel=2 note=63 velocity=95 time=0
EXTRACT: note_off channel=2 note=59 velocity=95 time=0
EXTRACT: note_on channel=2 note=66 velocity=95 time=0
EXTRACT: note_on channel=2 note=61 velocity=95 time=0
EXTRACT: note_on channel=2 note=58 velocity=95 time=0
EXTRACT: note_off channel=4 note=68 velocity=95 time=0
EXTRACT: note_off channel=4 note=66 velocity=95 time=0
EXTRACT: note_off channel=4 note=63 velocity=95 time=0
EXTRACT: note_off channel=4 note=59 velocity=95 time=0
EXTRACT: note_on channel=4 note=66 velocity=95 time=0
EXTRACT: note_on channel=4 note=61 velocity=95 time=0
EXTRACT: note_on channel=4 note=58 velocity=95 time=0
EXTRACT: note_off channel=6 note=44 velocity=111 time=0
EXTRACT: note_on channel=6 note=39 velocity=111 time=0
EXTRACT: note_off channel=9 note=42 velocity=95 time=0
EXTRACT: note_off channel=9 note=38 velocity=95 time=0
EXTRACT: note_on channel=9 note=49 velocity=95 time=0
EXTRACT: note_on channel=9 note=35 velocity=95 time=0
EXTRACT: note_off channel=0 note=68 velocity=127 time=0.25
EXTRACT: note_on channel=0 note=66 velocity=102 time=0
EXTRACT: note_off channel=9 note=35 velocity=95 time=0
EXTRACT: note_off channel=2 note=66 velocity=95 time=0.25
EXTRACT: note_off channel=2 note=61 velocity=95 time=0
EXTRACT: note_off channel=2 note=58 velocity=95 time=0
EXTRACT: note_on channel=2 note=66 velocity=95 time=0
EXTRACT: note_on channel=2 note=61 velocity=95 time=0
EXTRACT: note_on channel=2 note=58 velocity=95 time=0
EXTRACT: note_off channel=6 note=39 velocity=111 time=0
EXTRACT: note_on channel=6 note=39 velocity=111 time=0
EXTRACT: note_off channel=9 note=49 velocity=95 time=0
EXTRACT: note_on channel=9 note=42 velocity=95 time=0
EXTRACT: note_on channel=9 note=35 velocity=95 time=0
EXTRACT: note_off channel=0 note=66 velocity=102 time=0.25
EXTRACT: note_off channel=2 note=66 velocity=95 time=0
EXTRACT: note_off channel=2 note=61 velocity=95 time=0
EXTRACT: note_off channel=2 note=58 velocity=95 time=0
EXTRACT: note_on channel=2 note=66 velocity=95 time=0
EXTRACT: note_on channel=2 note=61 velocity=95 time=0
EXTRACT: note_on channel=2 note=58 velocity=95 time=0
EXTRACT: note_off channel=6 note=39 velocity=111 time=0
EXTRACT: note_on channel=6 note=39 velocity=111 time=0
EXTRACT: note_off channel=9 note=42 velocity=95 time=0
EXTRACT: note_off channel=9 note=35 velocity=95 time=0
EXTRACT: note_on channel=9 note=42 velocity=95 time=0
EXTRACT: note_on channel=9 note=38 velocity=95 time=0
EXTRACT: note_off channel=2 note=66 velocity=95 time=0.25
EXTRACT: note_off channel=2 note=61 velocity=95 time=0
EXTRACT: note_off channel=2 note=58 velocity=95 time=0
EXTRACT: note_on channel=2 note=64 velocity=95 time=0
EXTRACT: note_on channel=2 note=59 velocity=95 time=0
EXTRACT: note_on channel=2 note=55 velocity=95 time=0
EXTRACT: note_off channel=6 note=39 velocity=111 time=0
EXTRACT: note_on channel=6 note=39 velocity=111 time=0
EXTRACT: note_off channel=9 note=42 velocity=95 time=0
EXTRACT: note_off channel=9 note=38 velocity=95 time=0
EXTRACT: note_on channel=9 note=42 velocity=95 time=0
EXTRACT: note_off channel=2 note=64 velocity=95 time=0.03125
EXTRACT: note_off channel=2 note=59 velocity=95 time=0
EXTRACT: note_off channel=2 note=55 velocity=95 time=0
EXTRACT: note_off channel=9 note=42 velocity=95 time=0.09375
EXTRACT: note_on channel=9 note=35 velocity=95 time=0
EXTRACT: note_on channel=0 note=66 velocity=127 time=0.125
EXTRACT: note_on channel=2 note=64 velocity=95 time=0
EXTRACT: note_on channel=2 note=59 velocity=95 time=0
EXTRACT: note_on channel=2 note=55 velocity=95 time=0
EXTRACT: note_off channel=6 note=39 velocity=111 time=0
EXTRACT: note_on channel=6 note=39 velocity=111 time=0
EXTRACT: note_off channel=9 note=35 velocity=95 time=0
EXTRACT: note_on channel=9 note=42 velocity=95 time=0
EXTRACT: note_on channel=9 note=35 velocity=95 time=0
EXTRACT: note_off channel=2 note=64 velocity=95 time=0.03125
EXTRACT: note_off channel=2 note=59 velocity=95 time=0
EXTRACT: note_off channel=2 note=55 velocity=95 time=0
EXTRACT: note_off channel=0 note=66 velocity=127 time=0.21875
EXTRACT: note_on channel=0 note=68 velocity=127 time=0
EXTRACT: note_on channel=2 note=66 velocity=95 time=0
EXTRACT: note_on channel=2 note=61 velocity=95 time=0
EXTRACT: note_on channel=2 note=58 velocity=95 time=0
EXTRACT: note_off channel=6 note=39 velocity=111 time=0
EXTRACT: note_on channel=6 note=34 velocity=111 time=0
EXTRACT: note_off channel=9 note=42 velocity=95 time=0
EXTRACT: note_off channel=9 note=35 velocity=95 time=0
EXTRACT: note_on channel=9 note=42 velocity=95 time=0
EXTRACT: note_on channel=9 note=35 velocity=95 time=0
EXTRACT: note_off channel=0 note=68 velocity=127 time=0.25
EXTRACT: note_on channel=0 note=70 velocity=127 time=0
EXTRACT: note_off channel=2 note=66 velocity=95 time=0
EXTRACT: note_off channel=2 note=61 velocity=95 time=0
EXTRACT: note_off channel=2 note=58 velocity=95 time=0
EXTRACT: note_on channel=2 note=66 velocity=95 time=0
EXTRACT: note_on channel=2 note=61 velocity=95 time=0
EXTRACT: note_on channel=2 note=58 velocity=95 time=0
EXTRACT: note_off channel=6 note=34 velocity=111 time=0
EXTRACT: note_on channel=6 note=39 velocity=111 time=0
EXTRACT: note_off channel=9 note=42 velocity=95 time=0
EXTRACT: note_off channel=9 note=35 velocity=95 time=0
EXTRACT: note_on channel=9 note=46 velocity=95 time=0
EXTRACT: note_on channel=9 note=38 velocity=95 time=0
EXTRACT: note_off channel=0 note=70 velocity=127 time=0.25
EXTRACT: note_on channel=0 note=70 velocity=127 time=0
EXTRACT: note_off channel=2 note=66 velocity=95 time=0
EXTRACT: note_off channel=2 note=61 velocity=95 time=0
EXTRACT: note_off channel=2 note=58 velocity=95 time=0
EXTRACT: note_on channel=2 note=64 velocity=95 time=0
EXTRACT: note_on channel=2 note=59 velocity=95 time=0
EXTRACT: note_on channel=2 note=55 velocity=95 time=0
EXTRACT: note_off channel=6 note=39 velocity=111 time=0
EXTRACT: note_on channel=6 note=34 velocity=111 time=0
EXTRACT: note_off channel=2 note=64 velocity=95 time=0.03125
EXTRACT: note_off channel=2 note=59 velocity=95 time=0
EXTRACT: note_off channel=2 note=55 velocity=95 time=0
EXTRACT: note_on channel=2 note=66 velocity=95 time=0.21875
EXTRACT: note_on channel=2 note=61 velocity=95 time=0
EXTRACT: note_on channel=2 note=56 velocity=95 time=0
EXTRACT: note_off channel=4 note=66 velocity=95 time=0
EXTRACT: note_off channel=4 note=61 velocity=95 time=0
EXTRACT: note_off channel=4 note=58 velocity=95 time=0
EXTRACT: note_on channel=4 note=66 velocity=95 time=0
EXTRACT: note_on channel=4 note=61 velocity=95 time=0
EXTRACT: note_on channel=4 note=56 velocity=95 time=0
EXTRACT: note_on channel=8 note=66 velocity=95 time=0
EXTRACT: note_on channel=8 note=61 velocity=95 time=0
EXTRACT: note_off channel=6 note=34 velocity=111 time=0
EXTRACT: note_on channel=6 note=37 velocity=111 time=0
EXTRACT: note_off channel=9 note=46 velocity=95 time=0
EXTRACT: note_off channel=9 note=38 velocity=95 time=0
EXTRACT: note_on channel=9 note=49 velocity=95 time=0
EXTRACT: note_on channel=9 note=35 velocity=95 time=0
EXTRACT: note_off channel=2 note=66 velocity=95 time=0.25
EXTRACT: note_off channel=2 note=61 velocity=95 time=0
EXTRACT: note_off channel=2 note=56 velocity=95 time=0
EXTRACT: note_off channel=8 note=66 velocity=95 time=0
EXTRACT: note_off channel=8 note=61 velocity=95 time=0
EXTRACT: note_off channel=6 note=37 velocity=111 time=0
EXTRACT: note_on channel=6 note=37 velocity=111 time=0
EXTRACT: note_off channel=9 note=49 velocity=95 time=0
EXTRACT: note_off channel=9 note=35 velocity=95 time=0
EXTRACT: note_on channel=9 note=42 velocity=95 time=0
EXTRACT: note_on channel=2 note=66 velocity=95 time=0.25
EXTRACT: note_on channel=2 note=61 velocity=95 time=0
EXTRACT: note_on channel=2 note=56 velocity=95 time=0
EXTRACT: note_on channel=8 note=66 velocity=95 time=0
EXTRACT: note_on channel=8 note=61 velocity=95 time=0
EXTRACT: note_off channel=6 note=37 velocity=111 time=0
EXTRACT: note_on channel=6 note=37 velocity=111 time=0
EXTRACT: note_off channel=9 note=42 velocity=95 time=0
EXTRACT: note_on channel=9 note=42 velocity=95 time=0
EXTRACT: note_on channel=9 note=38 velocity=95 time=0
EXTRACT: note_off channel=2 note=66 velocity=95 time=0.25
EXTRACT: note_off channel=2 note=61 velocity=95 time=0
EXTRACT: note_off channel=2 note=56 velocity=95 time=0
EXTRACT: note_off channel=8 note=66 velocity=95 time=0
EXTRACT: note_off channel=8 note=61 velocity=95 time=0
EXTRACT: note_off channel=6 note=37 velocity=111 time=0
EXTRACT: note_on channel=6 note=37 velocity=111 time=0
EXTRACT: note_off channel=9 note=42 velocity=95 time=0
EXTRACT: note_off channel=9 note=38 velocity=95 time=0
EXTRACT: note_on channel=9 note=42 velocity=95 time=0
EXTRACT: note_on channel=2 note=66 velocity=95 time=0.25
EXTRACT: note_on channel=2 note=61 velocity=95 time=0
EXTRACT: note_on channel=2 note=56 velocity=95 time=0
EXTRACT: note_on channel=8 note=66 velocity=95 time=0
EXTRACT: note_on channel=8 note=61 velocity=95 time=0
EXTRACT: note_off channel=6 note=37 velocity=111 time=0
EXTRACT: note_on channel=6 note=37 velocity=111 time=0
EXTRACT: note_off channel=9 note=42 velocity=95 time=0
EXTRACT: note_on channel=9 note=42 velocity=95 time=0
EXTRACT: note_on channel=9 note=35 velocity=95 time=0
EXTRACT: note_off channel=2 note=66 velocity=95 time=0.25
EXTRACT: note_off channel=2 note=61 velocity=95 time=0
EXTRACT: note_off channel=2 note=56 velocity=95 time=0
EXTRACT: note_off channel=8 note=66 velocity=95 time=0
EXTRACT: note_off channel=8 note=61 velocity=95 time=0
EXTRACT: note_off channel=6 note=37 velocity=111 time=0
EXTRACT: note_on channel=6 note=37 velocity=111 time=0
EXTRACT: note_off channel=9 note=42 velocity=95 time=0
EXTRACT: note_off channel=9 note=35 velocity=95 time=0
EXTRACT: note_on channel=9 note=42 velocity=95 time=0
EXTRACT: note_on channel=2 note=65 velocity=95 time=0.25
EXTRACT: note_on channel=2 note=61 velocity=95 time=0
EXTRACT: note_on channel=2 note=56 velocity=95 time=0
EXTRACT: note_off channel=4 note=66 velocity=95 time=0
EXTRACT: note_off channel=4 note=61 velocity=95 time=0
EXTRACT: note_off channel=4 note=56 velocity=95 time=0
EXTRACT: note_on channel=4 note=65 velocity=95 time=0
EXTRACT: note_on channel=4 note=61 velocity=95 time=0
EXTRACT: note_on channel=4 note=56 velocity=95 time=0
EXTRACT: note_on channel=8 note=65 velocity=95 time=0
EXTRACT: note_on channel=8 note=61 velocity=95 time=0
EXTRACT: note_off channel=6 note=37 velocity=111 time=0
EXTRACT: note_on channel=6 note=37 velocity=111 time=0
EXTRACT: note_off channel=9 note=42 velocity=95 time=0
EXTRACT: note_on channel=9 note=42 velocity=95 time=0
EXTRACT: note_on channel=9 note=38 velocity=95 time=0
EXTRACT: note_off channel=2 note=65 velocity=95 time=0.25
EXTRACT: note_off channel=2 note=61 velocity=95 time=0
EXTRACT: note_off channel=2 note=56 velocity=95 time=0
EXTRACT: note_off channel=4 note=65 velocity=95 time=0
EXTRACT: note_off channel=4 note=61 velocity=95 time=0
EXTRACT: note_off channel=4 note=56 velocity=95 time=0
EXTRACT: note_off channel=8 note=65 velocity=95 time=0
EXTRACT: note_off channel=8 note=61 velocity=95 time=0
EXTRACT: note_off channel=6 note=37 velocity=111 time=0
EXTRACT: note_on channel=6 note=37 velocity=111 time=0
EXTRACT: note_off channel=9 note=42 velocity=95 time=0
EXTRACT: note_off channel=9 note=38 velocity=95 time=0
EXTRACT: note_on channel=9 note=42 velocity=95 time=0
EXTRACT: note_off channel=0 note=70 velocity=127 time=0.25
EXTRACT: note_on channel=2 note=63 velocity=95 time=0
EXTRACT: note_on channel=2 note=61 velocity=95 time=0
EXTRACT: note_on channel=2 note=56 velocity=95 time=0
EXTRACT: note_on channel=4 note=63 velocity=95 time=0
EXTRACT: note_on channel=4 note=61 velocity=95 time=0
EXTRACT: note_on channel=4 note=56 velocity=95 time=0
EXTRACT: note_on channel=8 note=63 velocity=95 time=0
EXTRACT: note_on channel=8 note=61 velocity=95 time=0
EXTRACT: note_off channel=6 note=37 velocity=111 time=0
EXTRACT: note_on channel=6 note=37 velocity=111 time=0
EXTRACT: note_off channel=9 note=42 velocity=95 time=0
EXTRACT: note_on channel=9 note=42 velocity=95 time=0
EXTRACT: note_on channel=9 note=35 velocity=95 time=0
EXTRACT: note_off channel=2 note=63 velocity=95 time=0.25
EXTRACT: note_off channel=2 note=61 velocity=95 time=0
EXTRACT: note_off channel=2 note=56 velocity=95 time=0
EXTRACT: note_off channel=4 note=63 velocity=95 time=0
EXTRACT: note_off channel=4 note=61 velocity=95 time=0
EXTRACT: note_off channel=4 note=56 velocity=95 time=0
EXTRACT: note_off channel=8 note=63 velocity=95 time=0
EXTRACT: note_off channel=8 note=61 velocity=95 time=0
EXTRACT: note_off channel=6 note=37 velocity=111 time=0
EXTRACT: note_on channel=6 note=32 velocity=111 time=0
EXTRACT: note_off channel=9 note=42 velocity=95 time=0
EXTRACT: note_off channel=9 note=35 velocity=95 time=0
EXTRACT: note_on channel=9 note=42 velocity=95 time=0
EXTRACT: note_on channel=2 note=63 velocity=95 time=0.25
EXTRACT: note_on channel=2 note=61 velocity=95 time=0
EXTRACT: note_on channel=2 note=56 velocity=95 time=0
EXTRACT: note_on channel=4 note=63 velocity=95 time=0
EXTRACT: note_on channel=4 note=61 velocity=95 time=0
EXTRACT: note_on channel=4 note=56 velocity=95 time=0
EXTRACT: note_on channel=8 note=63 velocity=95 time=0
EXTRACT: note_on channel=8 note=61 velocity=95 time=0
EXTRACT: note_off channel=6 note=32 velocity=111 time=0
EXTRACT: note_on channel=6 note=37 velocity=111 time=0
EXTRACT: note_off channel=9 note=42 velocity=95 time=0
EXTRACT: note_on channel=9 note=42 velocity=95 time=0
EXTRACT: note_on channel=9 note=38 velocity=95 time=0
EXTRACT: note_off channel=2 note=63 velocity=95 time=0.25
EXTRACT: note_off channel=2 note=61 velocity=95 time=0
EXTRACT: note_off channel=2 note=56 velocity=95 time=0
EXTRACT: note_off channel=4 note=63 velocity=95 time=0
EXTRACT: note_off channel=4 note=61 velocity=95 time=0
EXTRACT: note_off channel=4 note=56 velocity=95 time=0
EXTRACT: note_off channel=8 note=63 velocity=95 time=0
EXTRACT: note_off channel=8 note=61 velocity=95 time=0
EXTRACT: note_off channel=6 note=37 velocity=111 time=0
EXTRACT: note_on channel=6 note=32 velocity=111 time=0
EXTRACT: note_off channel=9 note=42 velocity=95 time=0
EXTRACT: note_off channel=9 note=38 velocity=95 time=0
EXTRACT: note_on channel=9 note=42 velocity=95 time=0
EXTRACT: note_on channel=0 note=78 velocity=127 time=0.25
EXTRACT: note_on channel=2 note=65 velocity=95 time=0
EXTRACT: note_on channel=2 note=61 velocity=95 time=0
EXTRACT: note_on channel=2 note=56 velocity=95 time=0
EXTRACT: note_on channel=4 note=65 velocity=95 time=0
EXTRACT: note_on channel=4 note=61 velocity=95 time=0
EXTRACT: note_on channel=4 note=56 velocity=95 time=0
EXTRACT: note_on channel=8 note=65 velocity=95 time=0
EXTRACT: note_on channel=8 note=61 velocity=95 time=0
EXTRACT: note_off channel=6 note=32 velocity=111 time=0
EXTRACT: note_on channel=6 note=37 velocity=111 time=0
EXTRACT: note_off channel=9 note=42 velocity=95 time=0
EXTRACT: note_on channel=9 note=38 velocity=95 time=0
EXTRACT: note_off channel=9 note=38 velocity=95 time=0.125
EXTRACT: note_on channel=9 note=38 velocity=95 time=0
EXTRACT: note_off channel=2 note=65 velocity=95 time=0.125
EXTRACT: note_off channel=2 note=61 velocity=95 time=0
EXTRACT: note_off channel=2 note=56 velocity=95 time=0
EXTRACT: note_off channel=4 note=65 velocity=95 time=0
EXTRACT: note_off channel=4 note=61 velocity=95 time=0
EXTRACT: note_off channel=4 note=56 velocity=95 time=0
EXTRACT: note_off channel=8 note=65 velocity=95 time=0
EXTRACT: note_off channel=8 note=61 velocity=95 time=0
EXTRACT: note_off channel=6 note=37 velocity=111 time=0
EXTRACT: note_off channel=9 note=38 velocity=95 time=0
EXTRACT: note_on channel=9 note=38 velocity=95 time=0
EXTRACT: note_off channel=0 note=78 velocity=127 time=0.25
EXTRACT: note_on channel=0 note=61 velocity=127 time=0
EXTRACT: note_off channel=9 note=38 velocity=95 time=0
EXTRACT: note_on channel=9 note=38 velocity=95 time=0
EXTRACT: note_off channel=0 note=61 velocity=127 time=0.25
EXTRACT: note_on channel=0 note=63 velocity=127 time=0
EXTRACT: note_off channel=0 note=63 velocity=127 time=0.25
EXTRACT: note_on channel=0 note=66 velocity=127 time=0
EXTRACT: note_on channel=11 note=54 velocity=95 time=0
EXTRACT: note_on channel=6 note=42 velocity=111 time=0
EXTRACT: note_off channel=9 note=38 velocity=95 time=0
EXTRACT: note_on channel=9 note=49 velocity=95 time=0
EXTRACT: note_on channel=9 note=35 velocity=95 time=0
EXTRACT: note_off channel=11 note=54 velocity=95 time=0.25
EXTRACT: note_on channel=11 note=54 velocity=95 time=0
EXTRACT: note_on channel=4 note=66 velocity=95 time=0
EXTRACT: note_on channel=4 note=63 velocity=95 time=0
EXTRACT: note_on channel=4 note=61 velocity=95 time=0
EXTRACT: note_on channel=4 note=58 velocity=95 time=0
EXTRACT: note_off channel=6 note=42 velocity=111 time=0
EXTRACT: note_on channel=6 note=39 velocity=111 time=0
EXTRACT: note_off channel=11 note=54 velocity=95 time=0.125
EXTRACT: note_on channel=11 note=54 velocity=95 time=0
EXTRACT: note_off channel=0 note=66 velocity=127 time=0.125
EXTRACT: note_on channel=0 note=63 velocity=127 time=0
EXTRACT: note_off channel=11 note=54 velocity=95 time=0
EXTRACT: note_on channel=11 note=51 velocity=95 time=0
EXTRACT: note_off channel=4 note=66 velocity=95 time=0
EXTRACT: note_off channel=4 note=63 velocity=95 time=0
EXTRACT: note_off channel=4 note=61 velocity=95 time=0
EXTRACT: note_off channel=4 note=58 velocity=95 time=0
EXTRACT: note_on channel=8 note=61 velocity=95 time=0
EXTRACT: note_off channel=6 note=39 velocity=111 time=0
EXTRACT: note_on channel=6 note=37 velocity=111 time=0
EXTRACT: note_off channel=9 note=49 velocity=95 time=0
EXTRACT: note_off channel=9 note=35 velocity=95 time=0
EXTRACT: note_on channel=9 note=42 velocity=95 time=0
EXTRACT: note_on channel=9 note=38 velocity=95 time=0
EXTRACT: note_off channel=11 note=51 velocity=95 time=0.25
EXTRACT: note_on channel=11 note=49 velocity=95 time=0
EXTRACT: note_off channel=6 note=37 velocity=111 time=0
EXTRACT: note_on channel=6 note=42 velocity=111 time=0
EXTRACT: note_off channel=9 note=42 velocity=95 time=0
EXTRACT: note_off channel=9 note=38 velocity=95 time=0
EXTRACT: note_on channel=9 note=42 velocity=95 time=0
EXTRACT: note_off channel=11 note=49 velocity=95 time=0.125
EXTRACT: note_on channel=11 note=51 velocity=70 time=0
EXTRACT: note_off channel=0 note=63 velocity=127 time=0.125
EXTRACT: note_off channel=11 note=51 velocity=70 time=0
EXTRACT: note_on channel=11 note=54 velocity=95 time=0
EXTRACT: note_on channel=4 note=66 velocity=95 time=0
EXTRACT: note_on channel=4 note=63 velocity=95 time=0
EXTRACT: note_on channel=4 note=61 velocity=95 time=0
EXTRACT: note_on channel=4 note=58 velocity=95 time=0
EXTRACT: note_off channel=8 note=61 velocity=95 time=0
EXTRACT: note_on channel=8 note=73 velocity=95 time=0
EXTRACT: note_off channel=6 note=42 velocity=111 time=0
EXTRACT: note_on channel=6 note=42 velocity=111 time=0
EXTRACT: note_off channel=9 note=42 velocity=95 time=0
EXTRACT: note_on channel=9 note=42 velocity=95 time=0
EXTRACT: note_on channel=9 note=35 velocity=95 time=0
EXTRACT: note_off channel=11 note=54 velocity=95 time=0.125
EXTRACT: note_on channel=11 note=54 velocity=95 time=0
EXTRACT: note_off channel=11 note=54 velocity=95 time=0.125
EXTRACT: note_on channel=11 note=51 velocity=95 time=0
EXTRACT: note_off channel=4 note=66 velocity=95 time=0
EXTRACT: note_off channel=4 note=63 velocity=95 time=0
EXTRACT: note_off channel=4 note=61 velocity=95 time=0
EXTRACT: note_off channel=4 note=58 velocity=95 time=0
EXTRACT: note_off channel=6 note=42 velocity=111 time=0
EXTRACT: note_on channel=6 note=39 velocity=111 time=0
EXTRACT: note_off channel=9 note=42 velocity=95 time=0
EXTRACT: note_off channel=9 note=35 velocity=95 time=0
EXTRACT: note_on channel=9 note=42 velocity=95 time=0
EXTRACT: note_on channel=0 note=78 velocity=127 time=0.25
EXTRACT: note_off channel=11 note=51 velocity=95 time=0
EXTRACT: note_on channel=11 note=49 velocity=95 time=0
EXTRACT: note_off channel=8 note=73 velocity=95 time=0
EXTRACT: note_on channel=8 note=70 velocity=95 time=0
EXTRACT: note_off channel=6 note=39 velocity=111 time=0
EXTRACT: note_on channel=6 note=37 velocity=111 time=0
EXTRACT: note_off channel=9 note=42 velocity=95 time=0
EXTRACT: note_on channel=9 note=42 velocity=95 time=0
EXTRACT: note_on channel=9 note=38 velocity=95 time=0
EXTRACT: note_off channel=11 note=49 velocity=95 time=0.25
EXTRACT: note_on channel=11 note=51 velocity=95 time=0
EXTRACT: note_off channel=6 note=37 velocity=111 time=0
EXTRACT: note_on channel=6 note=39 velocity=111 time=0
EXTRACT: note_off channel=9 note=42 velocity=95 time=0
EXTRACT: note_off channel=9 note=38 velocity=95 time=0
EXTRACT: note_on channel=9 note=42 velocity=95 time=0
EXTRACT: note_off channel=0 note=78 velocity=127 time=0.25
EXTRACT: note_off channel=11 note=51 velocity=95 time=0
EXTRACT: note_on channel=11 note=54 velocity=95 time=0
EXTRACT: note_on channel=4 note=66 velocity=95 time=0
EXTRACT: note_on channel=4 note=63 velocity=95 time=0
EXTRACT: note_on channel=4 note=61 velocity=95 time=0
EXTRACT: note_on channel=4 note=58 velocity=95 time=0
EXTRACT: note_off channel=8 note=70 velocity=95 time=0
EXTRACT: note_on channel=8 note=66 velocity=95 time=0
EXTRACT: note_off channel=6 note=39 velocity=111 time=0
EXTRACT: note_on channel=6 note=42 velocity=111 time=0
EXTRACT: note_off channel=9 note=42 velocity=95 time=0
EXTRACT: note_on channel=9 note=42 velocity=95 time=0
EXTRACT: note_on channel=9 note=35 velocity=95 time=0
EXTRACT: note_off channel=11 note=54 velocity=95 time=0.25
EXTRACT: note_on channel=11 note=54 velocity=95 time=0
EXTRACT: note_off channel=4 note=66 velocity=95 time=0
EXTRACT: note_off channel=4 note=63 velocity=95 time=0
EXTRACT: note_off channel=4 note=61 velocity=95 time=0
EXTRACT: note_off channel=4 note=58 velocity=95 time=0
EXTRACT: note_off channel=6 note=42 velocity=111 time=0
EXTRACT: note_on channel=6 note=39 velocity=111 time=0
EXTRACT: note_off channel=9 note=42 velocity=95 time=0
EXTRACT: note_off channel=9 note=35 velocity=95 time=0
EXTRACT: note_on channel=9 note=42 velocity=95 time=0
EXTRACT: note_off channel=11 note=54 velocity=95 time=0.125
EXTRACT: note_on channel=11 note=54 velocity=95 time=0
EXTRACT: note_off channel=11 note=54 velocity=95 time=0.125
EXTRACT: note_on channel=11 note=51 velocity=95 time=0
EXTRACT: note_off channel=8 note=66 velocity=95 time=0
EXTRACT: note_off channel=6 note=39 velocity=111 time=0
EXTRACT: note_on channel=6 note=37 velocity=111 time=0
EXTRACT: note_off channel=9 note=42 velocity=95 time=0
EXTRACT: note_on channel=9 note=42 velocity=95 time=0
EXTRACT: note_on channel=9 note=38 velocity=95 time=0
EXTRACT: note_off channel=11 note=51 velocity=95 time=0.25
EXTRACT: note_on channel=11 note=49 velocity=95 time=0
EXTRACT: note_on channel=4 note=66 velocity=95 time=0
EXTRACT: note_on channel=4 note=63 velocity=95 time=0
EXTRACT: note_on channel=4 note=61 velocity=95 time=0
EXTRACT: note_on channel=4 note=58 velocity=95 time=0
EXTRACT: note_off channel=6 note=37 velocity=111 time=0
EXTRACT: note_on channel=6 note=42 velocity=111 time=0
EXTRACT: note_off channel=9 note=42 velocity=95 time=0
EXTRACT: note_off channel=9 note=38 velocity=95 time=0
EXTRACT: note_on channel=9 note=42 velocity=95 time=0
EXTRACT: note_off channel=11 note=49 velocity=95 time=0.125
EXTRACT: note_on channel=11 note=51 velocity=70 time=0
EXTRACT: note_on channel=0 note=68 velocity=127 time=0.125
EXTRACT: note_off channel=11 note=51 velocity=70 time=0
EXTRACT: note_on channel=11 note=54 velocity=95 time=0
EXTRACT: note_off channel=4 note=66 velocity=95 time=0
EXTRACT: note_off channel=4 note=63 velocity=95 time=0
EXTRACT: note_off channel=4 note=61 velocity=95 time=0
EXTRACT: note_off channel=4 note=58 velocity=95 time=0
EXTRACT: note_off channel=6 note=42 velocity=111 time=0
EXTRACT: note_on channel=6 note=42 velocity=111 time=0
EXTRACT: note_off channel=9 note=42 velocity=95 time=0
EXTRACT: note_on channel=9 note=42 velocity=95 time=0
EXTRACT: note_on channel=9 note=35 velocity=95 time=0
EXTRACT: note_off channel=11 note=54 velocity=95 time=0.125
EXTRACT: note_on channel=11 note=54 velocity=95 time=0
EXTRACT: note_off channel=11 note=54 velocity=95 time=0.125
EXTRACT: note_on channel=11 note=51 velocity=95 time=0
EXTRACT: note_off channel=6 note=42 velocity=111 time=0
EXTRACT: note_on channel=6 note=39 velocity=111 time=0
EXTRACT: note_off channel=9 note=42 velocity=95 time=0
EXTRACT: note_off channel=9 note=35 velocity=95 time=0
EXTRACT: note_on channel=9 note=42 velocity=95 time=0
EXTRACT: note_off channel=0 note=68 velocity=127 time=0.25
EXTRACT: note_on channel=0 note=68 velocity=127 time=0
EXTRACT: note_off channel=11 note=51 velocity=95 time=0
EXTRACT: note_on channel=11 note=49 velocity=95 time=0
EXTRACT: note_off channel=6 note=39 velocity=111 time=0
EXTRACT: note_on channel=6 note=37 velocity=111 time=0
EXTRACT: note_off channel=9 note=42 velocity=95 time=0
EXTRACT: note_on channel=9 note=42 velocity=95 time=0
EXTRACT: note_on channel=9 note=38 velocity=95 time=0
EXTRACT: note_off channel=0 note=68 velocity=127 time=0.25
EXTRACT: note_on channel=0 note=66 velocity=127 time=0
EXTRACT: note_off channel=11 note=49 velocity=95 time=0
EXTRACT: note_on channel=11 note=51 velocity=95 time=0
EXTRACT: note_off channel=6 note=37 velocity=111 time=0
EXTRACT: note_on channel=6 note=39 velocity=111 time=0
EXTRACT: note_off channel=9 note=42 velocity=95 time=0
EXTRACT: note_off channel=9 note=38 velocity=95 time=0
EXTRACT: note_on channel=9 note=42 velocity=95 time=0
EXTRACT: note_off channel=0 note=66 velocity=127 time=0.25
EXTRACT: note_on channel=0 note=68 velocity=127 time=0
EXTRACT: note_off channel=11 note=51 velocity=95 time=0
EXTRACT: note_on channel=11 note=54 velocity=95 time=0
EXTRACT: note_off channel=6 note=39 velocity=111 time=0
EXTRACT: note_on channel=6 note=42 velocity=111 time=0
EXTRACT: note_off channel=9 note=42 velocity=95 time=0
EXTRACT: note_on channel=9 note=42 velocity=95 time=0
EXTRACT: note_on channel=9 note=35 velocity=95 time=0
EXTRACT: note_off channel=0 note=68 velocity=127 time=0.25
EXTRACT: note_on channel=0 note=68 velocity=127 time=0
EXTRACT: note_off channel=11 note=54 velocity=95 time=0
EXTRACT: note_on channel=11 note=54 velocity=95 time=0
EXTRACT: note_on channel=4 note=66 velocity=95 time=0
EXTRACT: note_on channel=4 note=63 velocity=95 time=0
EXTRACT: note_on channel=4 note=61 velocity=95 time=0
EXTRACT: note_on channel=4 note=58 velocity=95 time=0
EXTRACT: note_off channel=6 note=42 velocity=111 time=0
EXTRACT: note_on channel=6 note=39 velocity=111 time=0
EXTRACT: note_off channel=9 note=42 velocity=95 time=0
EXTRACT: note_off channel=9 note=35 velocity=95 time=0
EXTRACT: note_on channel=9 note=42 velocity=95 time=0
EXTRACT: note_off channel=11 note=54 velocity=95 time=0.125
EXTRACT: note_on channel=11 note=54 velocity=95 time=0
EXTRACT: note_off channel=0 note=68 velocity=127 time=0.125
EXTRACT: note_on channel=0 note=73 velocity=127 time=0
EXTRACT: note_off channel=11 note=54 velocity=95 time=0
EXTRACT: note_on channel=11 note=51 velocity=95 time=0
EXTRACT: note_off channel=4 note=66 velocity=95 time=0
EXTRACT: note_off channel=4 note=63 velocity=95 time=0
EXTRACT: note_off channel=4 note=61 velocity=95 time=0
EXTRACT: note_off channel=4 note=58 velocity=95 time=0
EXTRACT: note_off channel=6 note=39 velocity=111 time=0
EXTRACT: note_on channel=6 note=37 velocity=111 time=0
EXTRACT: note_off channel=9 note=42 velocity=95 time=0
EXTRACT: note_on channel=9 note=42 velocity=95 time=0
EXTRACT: note_on channel=9 note=38 velocity=95 time=0
EXTRACT: note_off channel=11 note=51 velocity=95 time=0.25
EXTRACT: note_on channel=11 note=49 velocity=95 time=0
EXTRACT: note_off channel=6 note=37 velocity=111 time=0
EXTRACT: note_on channel=6 note=42 velocity=111 time=0
EXTRACT: note_off channel=9 note=42 velocity=95 time=0
EXTRACT: note_off channel=9 note=38 velocity=95 time=0
EXTRACT: note_on channel=9 note=42 velocity=95 time=0
EXTRACT: note_off channel=11 note=49 velocity=95 time=0.125
EXTRACT: note_on channel=11 note=51 velocity=70 time=0
EXTRACT: note_off channel=0 note=73 velocity=127 time=0.125
EXTRACT: note_on channel=1 note=70 velocity=127 time=0
EXTRACT: note_off channel=11 note=51 velocity=70 time=0
EXTRACT: note_on channel=11 note=54 velocity=95 time=0
EXTRACT: note_on channel=4 note=66 velocity=95 time=0
EXTRACT: note_on channel=4 note=63 velocity=95 time=0
EXTRACT: note_on channel=4 note=61 velocity=95 time=0
EXTRACT: note_on channel=4 note=58 velocity=95 time=0
EXTRACT: note_on channel=8 note=61 velocity=95 time=0
EXTRACT: note_off channel=6 note=42 velocity=111 time=0
EXTRACT: note_on channel=6 note=42 velocity=111 time=0
EXTRACT: note_off channel=9 note=42 velocity=95 time=0
EXTRACT: note_on channel=9 note=42 velocity=95 time=0
EXTRACT: note_on channel=9 note=35 velocity=95 time=0
EXTRACT: note_off channel=11 note=54 velocity=95 time=0.125
EXTRACT: note_on channel=11 note=54 velocity=95 time=0
EXTRACT: note_off channel=11 note=54 velocity=95 time=0.125
EXTRACT: note_on channel=11 note=51 velocity=95 time=0
EXTRACT: note_off channel=4 note=66 velocity=95 time=0
EXTRACT: note_off channel=4 note=63 velocity=95 time=0
EXTRACT: note_off channel=4 note=61 velocity=95 time=0
EXTRACT: note_off channel=4 note=58 velocity=95 time=0
EXTRACT: note_off channel=6 note=42 velocity=111 time=0
EXTRACT: note_on channel=6 note=39 velocity=111 time=0
EXTRACT: note_off channel=9 note=42 velocity=95 time=0
EXTRACT: note_off channel=9 note=35 velocity=95 time=0
EXTRACT: note_on channel=9 note=42 velocity=95 time=0
EXTRACT: note_off channel=11 note=51 velocity=95 time=0.25
EXTRACT: note_on channel=11 note=49 velocity=95 time=0
EXTRACT: note_off channel=8 note=61 velocity=95 time=0
EXTRACT: note_on channel=8 note=73 velocity=95 time=0
EXTRACT: note_off channel=6 note=39 velocity=111 time=0
EXTRACT: note_on channel=6 note=37 velocity=111 time=0
EXTRACT: note_off channel=9 note=42 velocity=95 time=0
EXTRACT: note_on channel=9 note=42 velocity=95 time=0
EXTRACT: note_on channel=9 note=38 velocity=95 time=0
EXTRACT: note_off channel=11 note=49 velocity=95 time=0.25
EXTRACT: note_on channel=11 note=51 velocity=95 time=0
EXTRACT: note_off channel=6 note=37 velocity=111 time=0
EXTRACT: note_on channel=6 note=39 velocity=111 time=0
EXTRACT: note_off channel=9 note=42 velocity=95 time=0
EXTRACT: note_off channel=9 note=38 velocity=95 time=0
EXTRACT: note_on channel=9 note=42 velocity=95 time=0
EXTRACT: note_off channel=1 note=70 velocity=127 time=0.25
EXTRACT: note_off channel=11 note=51 velocity=95 time=0
EXTRACT: note_on channel=11 note=54 velocity=95 time=0
EXTRACT: note_on channel=4 note=66 velocity=95 time=0
EXTRACT: note_on channel=4 note=63 velocity=95 time=0
EXTRACT: note_on channel=4 note=61 velocity=95 time=0
EXTRACT: note_on channel=4 note=58 velocity=95 time=0
EXTRACT: note_off channel=8 note=73 velocity=95 time=0
EXTRACT: note_on channel=8 note=70 velocity=95 time=0
EXTRACT: note_off channel=6 note=39 velocity=111 time=0
EXTRACT: note_on channel=6 note=42 velocity=111 time=0
EXTRACT: note_off channel=9 note=42 velocity=95 time=0
EXTRACT: note_on channel=9 note=42 velocity=95 time=0
EXTRACT: note_on channel=9 note=35 velocity=95 time=0
EXTRACT: note_off channel=11 note=54 velocity=95 time=0.25
EXTRACT: note_on channel=11 note=54 velocity=95 time=0
EXTRACT: note_off channel=4 note=66 velocity=95 time=0
EXTRACT: note_off channel=4 note=63 velocity=95 time=0
EXTRACT: note_off channel=4 note=61 velocity=95 time=0
EXTRACT: note_off channel=4 note=58 velocity=95 time=0
EXTRACT: note_off channel=6 note=42 velocity=111 time=0
EXTRACT: note_on channel=6 note=39 velocity=111 time=0
EXTRACT: note_off channel=9 note=42 velocity=95 time=0
EXTRACT: note_off channel=9 note=35 velocity=95 time=0
EXTRACT: note_on channel=9 note=42 velocity=95 time=0
EXTRACT: note_off channel=11 note=54 velocity=95 time=0.125
EXTRACT: note_on channel=11 note=54 velocity=95 time=0
EXTRACT: note_off channel=11 note=54 velocity=95 time=0.125
EXTRACT: note_on channel=11 note=51 velocity=95 time=0
EXTRACT: note_off channel=8 note=70 velocity=95 time=0
EXTRACT: note_on channel=8 note=66 velocity=95 time=0
EXTRACT: note_off channel=6 note=39 velocity=111 time=0
EXTRACT: note_on channel=6 note=37 velocity=111 time=0
EXTRACT: note_off channel=9 note=42 velocity=95 time=0
EXTRACT: note_on channel=9 note=42 velocity=95 time=0
EXTRACT: note_on channel=9 note=38 velocity=95 time=0
EXTRACT: note_off channel=11 note=51 velocity=95 time=0.25
EXTRACT: note_on channel=11 note=49 velocity=95 time=0
EXTRACT: note_on channel=4 note=66 velocity=95 time=0
EXTRACT: note_on channel=4 note=63 velocity=95 time=0
EXTRACT: note_on channel=4 note=61 velocity=95 time=0
EXTRACT: note_on channel=4 note=58 velocity=95 time=0
EXTRACT: note_off channel=6 note=37 velocity=111 time=0
EXTRACT: note_on channel=6 note=42 velocity=111 time=0
EXTRACT: note_off channel=9 note=42 velocity=95 time=0
EXTRACT: note_off channel=9 note=38 velocity=95 time=0
EXTRACT: note_on channel=9 note=42 velocity=95 time=0
EXTRACT: note_off channel=11 note=49 velocity=95 time=0.125
EXTRACT: note_on channel=11 note=51 velocity=70 time=0
EXTRACT: note_off channel=11 note=51 velocity=70 time=0.125
EXTRACT: note_on channel=11 note=54 velocity=95 time=0
EXTRACT: note_off channel=4 note=66 velocity=95 time=0
EXTRACT: note_off channel=4 note=63 velocity=95 time=0
EXTRACT: note_off channel=4 note=61 velocity=95 time=0
EXTRACT: note_off channel=4 note=58 velocity=95 time=0
EXTRACT: note_off channel=8 note=66 velocity=95 time=0
EXTRACT: note_on channel=8 note=68 velocity=95 time=0
EXTRACT: note_off channel=6 note=42 velocity=111 time=0
EXTRACT: note_on channel=6 note=42 velocity=111 time=0
EXTRACT: note_off channel=9 note=42 velocity=95 time=0
EXTRACT: note_on channel=9 note=42 velocity=95 time=0
EXTRACT: note_on channel=9 note=35 velocity=95 time=0
EXTRACT: note_off channel=11 note=54 velocity=95 time=0.125
EXTRACT: note_on channel=11 note=54 velocity=95 time=0
EXTRACT: note_off channel=11 note=54 velocity=95 time=0.125
EXTRACT: note_on channel=11 note=51 velocity=95 time=0
EXTRACT: note_off channel=6 note=42 velocity=111 time=0
EXTRACT: note_on channel=6 note=39 velocity=111 time=0
EXTRACT: note_off channel=9 note=42 velocity=95 time=0
EXTRACT: note_off channel=9 note=35 velocity=95 time=0
EXTRACT: note_on channel=9 note=42 velocity=95 time=0
EXTRACT: note_on channel=0 note=61 velocity=127 time=0.25
EXTRACT: note_off channel=11 note=51 velocity=95 time=0
EXTRACT: note_on channel=11 note=49 velocity=95 time=0
EXTRACT: note_off channel=8 note=68 velocity=95 time=0
EXTRACT: note_off channel=6 note=39 velocity=111 time=0
EXTRACT: note_on channel=6 note=37 velocity=111 time=0
EXTRACT: note_off channel=9 note=42 velocity=95 time=0
EXTRACT: note_on channel=9 note=42 velocity=95 time=0
EXTRACT: note_on channel=9 note=38 velocity=95 time=0
EXTRACT: note_off channel=0 note=61 velocity=127 time=0.25
EXTRACT: note_on channel=0 note=63 velocity=127 time=0
EXTRACT: note_off channel=11 note=49 velocity=95 time=0
EXTRACT: note_on channel=11 note=51 velocity=95 time=0
EXTRACT: note_off channel=6 note=37 velocity=111 time=0
EXTRACT: note_on channel=6 note=39 velocity=111 time=0
EXTRACT: note_off channel=9 note=42 velocity=95 time=0
EXTRACT: note_off channel=9 note=38 velocity=95 time=0
EXTRACT: note_on channel=9 note=42 velocity=95 time=0
EXTRACT: note_off channel=9 note=42 velocity=95 time=0.125
EXTRACT: note_on channel=9 note=38 velocity=95 time=0
EXTRACT: note_off channel=0 note=63 velocity=127 time=0.125
EXTRACT: note_on channel=0 note=70 velocity=127 time=0
EXTRACT: note_off channel=11 note=51 velocity=95 time=0
EXTRACT: note_on channel=11 note=56 velocity=95 time=0
EXTRACT: note_on channel=4 note=68 velocity=95 time=0
EXTRACT: note_on channel=4 note=66 velocity=95 time=0
EXTRACT: note_on channel=4 note=63 velocity=95 time=0
EXTRACT: note_on channel=4 note=59 velocity=95 time=0
EXTRACT: note_off channel=6 note=39 velocity=111 time=0
EXTRACT: note_on channel=6 note=44 velocity=111 time=0
EXTRACT: note_off channel=9 note=38 velocity=95 time=0
EXTRACT: note_on channel=9 note=49 velocity=95 time=0
EXTRACT: note_on channel=9 note=35 velocity=95 time=0
EXTRACT: note_off channel=11 note=56 velocity=95 time=0.25
EXTRACT: note_on channel=11 note=56 velocity=95 time=0
EXTRACT: note_off channel=4 note=68 velocity=95 time=0
EXTRACT: note_off channel=4 note=66 velocity=95 time=0
EXTRACT: note_off channel=4 note=63 velocity=95 time=0
EXTRACT: note_off channel=4 note=59 velocity=95 time=0
EXTRACT: note_off channel=6 note=44 velocity=111 time=0
EXTRACT: note_on channel=6 note=44 velocity=111 time=0
EXTRACT: note_off channel=11 note=56 velocity=95 time=0.125
EXTRACT: note_on channel=11 note=56 velocity=95 time=0
EXTRACT: note_off channel=0 note=70 velocity=127 time=0.125
EXTRACT: note_on channel=0 note=68 velocity=102 time=0
EXTRACT: note_off channel=11 note=56 velocity=95 time=0
EXTRACT: note_on channel=11 note=56 velocity=95 time=0
EXTRACT: note_off channel=6 note=44 velocity=111 time=0
EXTRACT: note_on channel=6 note=44 velocity=111 time=0
EXTRACT: note_off channel=9 note=49 velocity=95 time=0
EXTRACT: note_off channel=9 note=35 velocity=95 time=0
EXTRACT: note_on channel=9 note=42 velocity=95 time=0
EXTRACT: note_on channel=9 note=38 velocity=95 time=0
EXTRACT: note_off channel=11 note=56 velocity=95 time=0.25
EXTRACT: note_on channel=11 note=56 velocity=95 time=0
EXTRACT: note_on channel=4 note=68 velocity=95 time=0
EXTRACT: note_on channel=4 note=66 velocity=95 time=0
EXTRACT: note_on channel=4 note=63 velocity=95 time=0
EXTRACT: note_on channel=4 note=59 velocity=95 time=0
EXTRACT: note_off channel=6 note=44 velocity=111 time=0
EXTRACT: note_on channel=6 note=44 velocity=111 time=0
EXTRACT: note_off channel=9 note=42 velocity=95 time=0
EXTRACT: note_off channel=9 note=38 velocity=95 time=0
EXTRACT: note_on channel=9 note=42 velocity=95 time=0
EXTRACT: note_off channel=11 note=56 velocity=95 time=0.125
EXTRACT: note_on channel=11 note=56 velocity=95 time=0
EXTRACT: note_off channel=0 note=68 velocity=102 time=0.125
EXTRACT: note_on channel=0 note=66 velocity=102 time=0
EXTRACT: note_off channel=11 note=56 velocity=95 time=0
EXTRACT: note_on channel=11 note=56 velocity=95 time=0
EXTRACT: note_off channel=4 note=68 velocity=95 time=0
EXTRACT: note_off channel=4 note=66 velocity=95 time=0
EXTRACT: note_off channel=4 note=63 velocity=95 time=0
EXTRACT: note_off channel=4 note=59 velocity=95 time=0
EXTRACT: note_off channel=6 note=44 velocity=111 time=0
EXTRACT: note_on channel=6 note=44 velocity=111 time=0
EXTRACT: note_off channel=9 note=42 velocity=95 time=0
EXTRACT: note_on channel=9 note=42 velocity=95 time=0
EXTRACT: note_on channel=9 note=35 velocity=95 time=0
EXTRACT: note_off channel=11 note=56 velocity=95 time=0.125
EXTRACT: note_on channel=11 note=56 velocity=95 time=0
EXTRACT: note_off channel=0 note=66 velocity=102 time=0.125
EXTRACT: note_on channel=0 note=68 velocity=102 time=0
EXTRACT: note_off channel=11 note=56 velocity=95 time=0
EXTRACT: note_on channel=11 note=56 velocity=95 time=0
EXTRACT: note_off channel=6 note=44 velocity=111 time=0
EXTRACT: note_on channel=6 note=44 velocity=111 time=0
EXTRACT: note_off channel=9 note=42 velocity=95 time=0
EXTRACT: note_off channel=9 note=35 velocity=95 time=0
EXTRACT: note_on channel=9 note=42 velocity=95 time=0
EXTRACT: note_off channel=11 note=56 velocity=95 time=0.25
EXTRACT: note_on channel=11 note=56 velocity=95 time=0
EXTRACT: note_off channel=6 note=44 velocity=111 time=0
EXTRACT: note_on channel=6 note=39 velocity=111 time=0
EXTRACT: note_off channel=9 note=42 velocity=95 time=0
EXTRACT: note_on channel=9 note=42 velocity=95 time=0
EXTRACT: note_on channel=9 note=38 velocity=95 time=0
EXTRACT: note_off channel=0 note=68 velocity=102 time=0.25
EXTRACT: note_on channel=0 note=61 velocity=127 time=0
EXTRACT: note_off channel=11 note=56 velocity=95 time=0
EXTRACT: note_on channel=11 note=56 velocity=95 time=0
EXTRACT: note_off channel=6 note=39 velocity=111 time=0
EXTRACT: note_on channel=6 note=44 velocity=111 time=0
EXTRACT: note_off channel=9 note=42 velocity=95 time=0
EXTRACT: note_off channel=9 note=38 velocity=95 time=0
EXTRACT: note_on channel=9 note=42 velocity=95 time=0
EXTRACT: note_off channel=0 note=61 velocity=127 time=0.25
EXTRACT: note_on channel=0 note=63 velocity=102 time=0
EXTRACT: note_off channel=11 note=56 velocity=95 time=0
EXTRACT: note_on channel=11 note=56 velocity=95 time=0
EXTRACT: note_on channel=4 note=68 velocity=95 time=0
EXTRACT: note_on channel=4 note=66 velocity=95 time=0
EXTRACT: note_on channel=4 note=63 velocity=95 time=0
EXTRACT: note_on channel=4 note=59 velocity=95 time=0
EXTRACT: note_off channel=6 note=44 velocity=111 time=0
EXTRACT: note_on channel=6 note=32 velocity=111 time=0
EXTRACT: note_off channel=9 note=42 velocity=95 time=0
EXTRACT: note_on channel=9 note=42 velocity=95 time=0
EXTRACT: note_on channel=9 note=35 velocity=95 time=0
EXTRACT: note_off channel=11 note=56 velocity=95 time=0.25
EXTRACT: note_on channel=11 note=56 velocity=95 time=0
EXTRACT: note_off channel=4 note=68 velocity=95 time=0
EXTRACT: note_off channel=4 note=66 velocity=95 time=0
EXTRACT: note_off channel=4 note=63 velocity=95 time=0
EXTRACT: note_off channel=4 note=59 velocity=95 time=0
EXTRACT: note_off channel=6 note=32 velocity=111 time=0
EXTRACT: note_on channel=6 note=32 velocity=111 time=0
EXTRACT: note_off channel=9 note=42 velocity=95 time=0
EXTRACT: note_off channel=9 note=35 velocity=95 time=0
EXTRACT: note_on channel=9 note=42 velocity=95 time=0
EXTRACT: note_off channel=11 note=56 velocity=95 time=0.125
EXTRACT: note_on channel=11 note=56 velocity=95 time=0
EXTRACT: note_off channel=0 note=63 velocity=102 time=0.125
EXTRACT: note_off channel=11 note=56 velocity=95 time=0
EXTRACT: note_on channel=11 note=56 velocity=95 time=0
EXTRACT: note_on channel=8 note=61 velocity=95 time=0
EXTRACT: note_off channel=6 note=32 velocity=111 time=0
EXTRACT: note_on channel=6 note=32 velocity=111 time=0
EXTRACT: note_off channel=9 note=42 velocity=95 time=0
EXTRACT: note_on channel=9 note=42 velocity=95 time=0
EXTRACT: note_on channel=9 note=38 velocity=95 time=0
EXTRACT: note_off channel=11 note=56 velocity=95 time=0.25
EXTRACT: note_on channel=11 note=56 velocity=95 time=0
EXTRACT: note_on channel=4 note=68 velocity=95 time=0
EXTRACT: note_on channel=4 note=66 velocity=95 time=0
EXTRACT: note_on channel=4 note=63 velocity=95 time=0
EXTRACT: note_on channel=4 note=59 velocity=95 time=0
EXTRACT: note_off channel=6 note=32 velocity=111 time=0
EXTRACT: note_on channel=6 note=32 velocity=111 time=0
EXTRACT: note_off channel=9 note=42 velocity=95 time=0
EXTRACT: note_off channel=9 note=38 velocity=95 time=0
EXTRACT: note_on channel=9 note=42 velocity=95 time=0
EXTRACT: note_off channel=11 note=56 velocity=95 time=0.125
EXTRACT: note_on channel=11 note=56 velocity=95 time=0
EXTRACT: note_off channel=11 note=56 velocity=95 time=0.125
EXTRACT: note_on channel=11 note=56 velocity=95 time=0
EXTRACT: note_off channel=4 note=68 velocity=95 time=0
EXTRACT: note_off channel=4 note=66 velocity=95 time=0
EXTRACT: note_off channel=4 note=63 velocity=95 time=0
EXTRACT: note_off channel=4 note=59 velocity=95 time=0
EXTRACT: note_off channel=8 note=61 velocity=95 time=0
EXTRACT: note_on channel=8 note=73 velocity=95 time=0
EXTRACT: note_off channel=6 note=32 velocity=111 time=0
EXTRACT: note_on channel=6 note=32 velocity=111 time=0
EXTRACT: note_off channel=9 note=42 velocity=95 time=0
EXTRACT: note_on channel=9 note=38 velocity=95 time=0
EXTRACT: note_off channel=11 note=56 velocity=95 time=0.125
EXTRACT: note_on channel=11 note=56 velocity=95 time=0
EXTRACT: note_off channel=9 note=38 velocity=95 time=0
EXTRACT: note_on channel=9 note=38 velocity=95 time=0
EXTRACT: note_off channel=11 note=56 velocity=95 time=0.125
EXTRACT: note_on channel=11 note=56 velocity=95 time=0
EXTRACT: note_off channel=6 note=32 velocity=111 time=0
EXTRACT: note_on channel=6 note=32 velocity=111 time=0
EXTRACT: note_off channel=9 note=38 velocity=95 time=0
EXTRACT: note_on channel=9 note=38 velocity=95 time=0
EXTRACT: note_on channel=0 note=66 velocity=127 time=0.25
EXTRACT: note_off channel=11 note=56 velocity=95 time=0
EXTRACT: note_on channel=11 note=56 velocity=95 time=0
EXTRACT: note_off channel=8 note=73 velocity=95 time=0
EXTRACT: note_on channel=8 note=70 velocity=95 time=0
EXTRACT: note_off channel=6 note=32 velocity=111 time=0
EXTRACT: note_on channel=6 note=32 velocity=111 time=0
EXTRACT: note_off channel=9 note=38 velocity=95 time=0
EXTRACT: note_on channel=9 note=38 velocity=95 time=0
EXTRACT: note_off channel=0 note=66 velocity=127 time=0.25
EXTRACT: note_on channel=0 note=68 velocity=127 time=0
EXTRACT: note_off channel=11 note=56 velocity=95 time=0
EXTRACT: note_on channel=11 note=56 velocity=95 time=0
EXTRACT: note_off channel=6 note=32 velocity=111 time=0
EXTRACT: note_on channel=6 note=37 velocity=111 time=0
EXTRACT: note_off channel=9 note=38 velocity=95 time=0
EXTRACT: note_on channel=9 note=46 velocity=95 time=0
EXTRACT: note_off channel=0 note=68 velocity=127 time=0.25
EXTRACT: note_on channel=0 note=66 velocity=127 time=0
EXTRACT: note_off channel=11 note=56 velocity=95 time=0
EXTRACT: note_on channel=11 note=54 velocity=95 time=0
EXTRACT: note_off channel=8 note=70 velocity=95 time=0
EXTRACT: note_off channel=6 note=37 velocity=111 time=0
EXTRACT: note_on channel=6 note=42 velocity=111 time=0
EXTRACT: note_off channel=9 note=46 velocity=95 time=0
EXTRACT: note_on channel=9 note=42 velocity=95 time=0
EXTRACT: note_on channel=9 note=35 velocity=95 time=0
EXTRACT: note_off channel=11 note=54 velocity=95 time=0.25
EXTRACT: note_on channel=11 note=54 velocity=95 time=0
EXTRACT: note_on channel=4 note=66 velocity=95 time=0
EXTRACT: note_on channel=4 note=63 velocity=95 time=0
EXTRACT: note_on channel=4 note=61 velocity=95 time=0
EXTRACT: note_on channel=4 note=58 velocity=95 time=0
EXTRACT: note_off channel=6 note=42 velocity=111 time=0
EXTRACT: note_on channel=6 note=39 velocity=111 time=0
EXTRACT: note_off channel=9 note=42 velocity=95 time=0
EXTRACT: note_off channel=9 note=35 velocity=95 time=0
EXTRACT: note_on channel=9 note=42 velocity=95 time=0
EXTRACT: note_off channel=11 note=54 velocity=95 time=0.125
EXTRACT: note_on channel=11 note=54 velocity=95 time=0
EXTRACT: note_off channel=0 note=66 velocity=127 time=0.125
EXTRACT: note_on channel=0 note=63 velocity=127 time=0
EXTRACT: note_off channel=11 note=54 velocity=95 time=0
EXTRACT: note_on channel=11 note=51 velocity=95 time=0
EXTRACT: note_off channel=4 note=66 velocity=95 time=0
EXTRACT: note_off channel=4 note=63 velocity=95 time=0
EXTRACT: note_off channel=4 note=61 velocity=95 time=0
EXTRACT: note_off channel=4 note=58 velocity=95 time=0
EXTRACT: note_off channel=6 note=39 velocity=111 time=0
EXTRACT: note_on channel=6 note=37 velocity=111 time=0
EXTRACT: note_off channel=9 note=42 velocity=95 time=0
EXTRACT: note_on channel=9 note=49 velocity=95 time=0
EXTRACT: note_on channel=9 note=38 velocity=95 time=0
EXTRACT: note_off channel=11 note=51 velocity=95 time=0.25
EXTRACT: note_on channel=11 note=49 velocity=95 time=0
EXTRACT: note_off channel=6 note=37 velocity=111 time=0
EXTRACT: note_on channel=6 note=42 velocity=111 time=0
EXTRACT: note_off channel=11 note=49 velocity=95 time=0.125
EXTRACT: note_on channel=11 note=51 velocity=70 time=0
EXTRACT: note_off channel=0 note=63 velocity=127 time=0.125
EXTRACT: note_off channel=11 note=51 velocity=70 time=0
EXTRACT: note_on channel=11 note=54 velocity=95 time=0
EXTRACT: note_on channel=4 note=66 velocity=95 time=0
EXTRACT: note_on channel=4 note=63 velocity=95 time=0
EXTRACT: note_on channel=4 note=61 velocity=95 time=0
EXTRACT: note_on channel=4 note=58 velocity=95 time=0
EXTRACT: note_off channel=6 note=42 velocity=111 time=0
EXTRACT: note_on channel=6 note=42 velocity=111 time=0
EXTRACT: note_off channel=9 note=49 velocity=95 time=0
EXTRACT: note_off channel=9 note=38 velocity=95 time=0
EXTRACT: note_on channel=9 note=42 velocity=95 time=0
EXTRACT: note_on channel=9 note=35 velocity=95 time=0
EXTRACT: note_off channel=11 note=54 velocity=95 time=0.125
EXTRACT: note_on channel=11 note=54 velocity=95 time=0
EXTRACT: note_off channel=11 note=54 velocity=95 time=0.125
EXTRACT: note_on channel=11 note=51 velocity=95 time=0
EXTRACT: note_off channel=4 note=66 velocity=95 time=0
EXTRACT: note_off channel=4 note=63 velocity=95 time=0
EXTRACT: note_off channel=4 note=61 velocity=95 time=0
EXTRACT: note_off channel=4 note=58 velocity=95 time=0
EXTRACT: note_off channel=6 note=42 velocity=111 time=0
EXTRACT: note_on channel=6 note=39 velocity=111 time=0
EXTRACT: note_off channel=9 note=42 velocity=95 time=0
EXTRACT: note_off channel=9 note=35 velocity=95 time=0
EXTRACT: note_on channel=9 note=42 velocity=95 time=0
EXTRACT: note_off channel=11 note=51 velocity=95 time=0.25
EXTRACT: note_on channel=11 note=49 velocity=95 time=0
EXTRACT: note_off channel=6 note=39 velocity=111 time=0
EXTRACT: note_on channel=6 note=37 velocity=111 time=0
EXTRACT: note_off channel=9 note=42 velocity=95 time=0
EXTRACT: note_on channel=9 note=42 velocity=95 time=0
EXTRACT: note_on channel=9 note=38 velocity=95 time=0
EXTRACT: note_off channel=11 note=49 velocity=95 time=0.25
EXTRACT: note_on channel=11 note=51 velocity=95 time=0
EXTRACT: note_off channel=6 note=37 velocity=111 time=0
EXTRACT: note_on channel=6 note=39 velocity=111 time=0
EXTRACT: note_off channel=9 note=42 velocity=95 time=0
EXTRACT: note_off channel=9 note=38 velocity=95 time=0
EXTRACT: note_on channel=9 note=42 velocity=95 time=0
EXTRACT: note_on channel=0 note=70 velocity=127 time=0.25
EXTRACT: note_off channel=11 note=51 velocity=95 time=0
EXTRACT: note_on channel=11 note=54 velocity=95 time=0
EXTRACT: note_on channel=4 note=66 velocity=95 time=0
EXTRACT: note_on channel=4 note=63 velocity=95 time=0
EXTRACT: note_on channel=4 note=61 velocity=95 time=0
EXTRACT: note_on channel=4 note=58 velocity=95 time=0
EXTRACT: note_off channel=6 note=39 velocity=111 time=0
EXTRACT: note_on channel=6 note=42 velocity=111 time=0
EXTRACT: note_off channel=9 note=42 velocity=95 time=0
EXTRACT: note_on channel=9 note=42 velocity=95 time=0
EXTRACT: note_on channel=9 note=35 velocity=95 time=0
EXTRACT: note_off channel=0 note=70 velocity=127 time=0.25
EXTRACT: note_on channel=0 note=66 velocity=127 time=0
EXTRACT: note_off channel=11 note=54 velocity=95 time=0
EXTRACT: note_on channel=11 note=54 velocity=95 time=0
EXTRACT: note_off channel=4 note=66 velocity=95 time=0
EXTRACT: note_off channel=4 note=63 velocity=95 time=0
EXTRACT: note_off channel=4 note=61 velocity=95 time=0
EXTRACT: note_off channel=4 note=58 velocity=95 time=0
EXTRACT: note_off channel=6 note=42 velocity=111 time=0
EXTRACT: note_on channel=6 note=39 velocity=111 time=0
EXTRACT: note_off channel=9 note=42 velocity=95 time=0
EXTRACT: note_off channel=9 note=35 velocity=95 time=0
EXTRACT: note_on channel=9 note=42 velocity=95 time=0
EXTRACT: note_off channel=11 note=54 velocity=95 time=0.125
EXTRACT: note_on channel=11 note=54 velocity=95 time=0
EXTRACT: note_off channel=0 note=66 velocity=127 time=0.125
EXTRACT: note_on channel=0 note=68 velocity=102 time=0
EXTRACT: note_off channel=11 note=54 velocity=95 time=0
EXTRACT: note_on channel=11 note=51 velocity=95 time=0
EXTRACT: note_off channel=6 note=39 velocity=111 time=0
EXTRACT: note_on channel=6 note=37 velocity=111 time=0
EXTRACT: note_off channel=9 note=42 velocity=95 time=0
EXTRACT: note_on channel=9 note=42 velocity=95 time=0
EXTRACT: note_on channel=9 note=38 velocity=95 time=0
EXTRACT: note_off channel=0 note=68 velocity=102 time=0.25
EXTRACT: note_on channel=0 note=66 velocity=102 time=0
EXTRACT: note_off channel=11 note=51 velocity=95 time=0
EXTRACT: note_on channel=11 note=49 velocity=95 time=0
EXTRACT: note_on channel=4 note=66 velocity=95 time=0
EXTRACT: note_on channel=4 note=63 velocity=95 time=0
EXTRACT: note_on channel=4 note=61 velocity=95 time=0
EXTRACT: note_on channel=4 note=58 velocity=95 time=0
EXTRACT: note_off channel=6 note=37 velocity=111 time=0
EXTRACT: note_on channel=6 note=42 velocity=111 time=0
EXTRACT: note_off channel=9 note=42 velocity=95 time=0
EXTRACT: note_off channel=9 note=38 velocity=95 time=0
EXTRACT: note_on channel=9 note=42 velocity=95 time=0
EXTRACT: note_off channel=11 note=49 velocity=95 time=0.125
EXTRACT: note_on channel=11 note=51 velocity=70 time=0
EXTRACT: note_off channel=11 note=51 velocity=70 time=0.125
EXTRACT: note_on channel=11 note=54 velocity=95 time=0
EXTRACT: note_off channel=4 note=66 velocity=95 time=0
EXTRACT: note_off channel=4 note=63 velocity=95 time=0
EXTRACT: note_off channel=4 note=61 velocity=95 time=0
EXTRACT: note_off channel=4 note=58 velocity=95 time=0
EXTRACT: note_off channel=6 note=42 velocity=111 time=0
EXTRACT: note_on channel=6 note=34 velocity=111 time=0
EXTRACT: note_off channel=9 note=42 velocity=95 time=0
EXTRACT: note_on channel=9 note=42 velocity=95 time=0
EXTRACT: note_on channel=9 note=35 velocity=95 time=0
EXTRACT: note_off channel=11 note=54 velocity=95 time=0.125
EXTRACT: note_on channel=11 note=54 velocity=95 time=0
EXTRACT: note_off channel=11 note=54 velocity=95 time=0.125
EXTRACT: note_on channel=11 note=51 velocity=95 time=0
EXTRACT: note_off channel=6 note=34 velocity=111 time=0
EXTRACT: note_on channel=6 note=37 velocity=111 time=0
EXTRACT: note_off channel=9 note=42 velocity=95 time=0
EXTRACT: note_off channel=9 note=35 velocity=95 time=0
EXTRACT: note_on channel=9 note=42 velocity=95 time=0
EXTRACT: note_off channel=0 note=66 velocity=102 time=0.25
EXTRACT: note_on channel=0 note=61 velocity=127 time=0
EXTRACT: note_off channel=11 note=51 velocity=95 time=0
EXTRACT: note_on channel=11 note=49 velocity=95 time=0
EXTRACT: note_off channel=6 note=37 velocity=111 time=0
EXTRACT: note_on channel=6 note=39 velocity=111 time=0
EXTRACT: note_off channel=9 note=42 velocity=95 time=0
EXTRACT: note_on channel=9 note=42 velocity=95 time=0
EXTRACT: note_on channel=9 note=38 velocity=95 time=0
EXTRACT: note_off channel=0 note=61 velocity=127 time=0.25
EXTRACT: note_on channel=0 note=63 velocity=127 time=0
EXTRACT: note_off channel=11 note=49 velocity=95 time=0
EXTRACT: note_on channel=11 note=51 velocity=95 time=0
EXTRACT: note_off channel=6 note=39 velocity=111 time=0
EXTRACT: note_on channel=6 note=42 velocity=111 time=0
EXTRACT: note_off channel=9 note=42 velocity=95 time=0
EXTRACT: note_off channel=9 note=38 velocity=95 time=0
EXTRACT: note_on channel=9 note=42 velocity=95 time=0
EXTRACT: note_off channel=0 note=63 velocity=127 time=0.25
EXTRACT: note_on channel=0 note=66 velocity=127 time=0
EXTRACT: note_off channel=11 note=51 velocity=95 time=0
EXTRACT: note_on channel=11 note=54 velocity=95 time=0
EXTRACT: note_off channel=6 note=42 velocity=111 time=0
EXTRACT: note_on channel=6 note=42 velocity=111 time=0
EXTRACT: note_off channel=9 note=42 velocity=95 time=0
EXTRACT: note_on channel=9 note=42 velocity=95 time=0
EXTRACT: note_on channel=9 note=35 velocity=95 time=0
EXTRACT: note_off channel=11 note=54 velocity=95 time=0.25
EXTRACT: note_on channel=11 note=54 velocity=95 time=0
EXTRACT: note_on channel=4 note=66 velocity=95 time=0
EXTRACT: note_on channel=4 note=63 velocity=95 time=0
EXTRACT: note_on channel=4 note=61 velocity=95 time=0
EXTRACT: note_on channel=4 note=58 velocity=95 time=0
EXTRACT: note_off channel=6 note=42 velocity=111 time=0
EXTRACT: note_on channel=6 note=39 velocity=111 time=0
EXTRACT: note_off channel=9 note=42 velocity=95 time=0
EXTRACT: note_off channel=9 note=35 velocity=95 time=0
EXTRACT: note_on channel=9 note=42 velocity=95 time=0
EXTRACT: note_off channel=11 note=54 velocity=95 time=0.125
EXTRACT: note_on channel=11 note=54 velocity=95 time=0
EXTRACT: note_off channel=0 note=66 velocity=127 time=0.125
EXTRACT: note_on channel=0 note=70 velocity=127 time=0
EXTRACT: note_off channel=11 note=54 velocity=95 time=0
EXTRACT: note_on channel=11 note=51 velocity=95 time=0
EXTRACT: note_off channel=4 note=66 velocity=95 time=0
EXTRACT: note_off channel=4 note=63 velocity=95 time=0
EXTRACT: note_off channel=4 note=61 velocity=95 time=0
EXTRACT: note_off channel=4 note=58 velocity=95 time=0
EXTRACT: note_on channel=8 note=61 velocity=95 time=0
EXTRACT: note_off channel=6 note=39 velocity=111 time=0
EXTRACT: note_on channel=6 note=37 velocity=111 time=0
EXTRACT: note_off channel=9 note=42 velocity=95 time=0
EXTRACT: note_on channel=9 note=42 velocity=95 time=0
EXTRACT: note_on channel=9 note=38 velocity=95 time=0
EXTRACT: note_off channel=11 note=51 velocity=95 time=0.25
EXTRACT: note_on channel=11 note=49 velocity=95 time=0
EXTRACT: note_off channel=6 note=37 velocity=111 time=0
EXTRACT: note_on channel=6 note=42 velocity=111 time=0
EXTRACT: note_off channel=9 note=42 velocity=95 time=0
EXTRACT: note_off channel=9 note=38 velocity=95 time=0
EXTRACT: note_on channel=9 note=42 velocity=95 time=0
EXTRACT: note_off channel=11 note=49 velocity=95 time=0.125
EXTRACT: note_on channel=11 note=51 velocity=70 time=0
EXTRACT: note_off channel=0 note=70 velocity=127 time=0.125
EXTRACT: note_off channel=11 note=51 velocity=70 time=0
EXTRACT: note_on channel=11 note=54 velocity=95 time=0
EXTRACT: note_on channel=4 note=66 velocity=95 time=0
EXTRACT: note_on channel=4 note=63 velocity=95 time=0
EXTRACT: note_on channel=4 note=61 velocity=95 time=0
EXTRACT: note_on channel=4 note=58 velocity=95 time=0
EXTRACT: note_off channel=8 note=61 velocity=95 time=0
EXTRACT: note_on channel=8 note=73 velocity=95 time=0
EXTRACT: note_off channel=6 note=42 velocity=111 time=0
EXTRACT: note_on channel=6 note=42 velocity=111 time=0
EXTRACT: note_off channel=9 note=42 velocity=95 time=0
EXTRACT: note_on channel=9 note=42 velocity=95 time=0
EXTRACT: note_on channel=9 note=35 velocity=95 time=0
EXTRACT: note_off channel=11 note=54 velocity=95 time=0.125
EXTRACT: note_on channel=11 note=54 velocity=95 time=0
EXTRACT: note_off channel=11 note=54 velocity=95 time=0.125
EXTRACT: note_on channel=11 note=51 velocity=95 time=0
EXTRACT: note_off channel=4 note=66 velocity=95 time=0
EXTRACT: note_off channel=4 note=63 velocity=95 time=0
EXTRACT: note_off channel=4 note=61 velocity=95 time=0
EXTRACT: note_off channel=4 note=58 velocity=95 time=0
EXTRACT: note_off channel=6 note=42 velocity=111 time=0
EXTRACT: note_on channel=6 note=39 velocity=111 time=0
EXTRACT: note_off channel=9 note=42 velocity=95 time=0
EXTRACT: note_off channel=9 note=35 velocity=95 time=0
EXTRACT: note_on channel=9 note=42 velocity=95 time=0
EXTRACT: note_off channel=11 note=51 velocity=95 time=0.25
EXTRACT: note_on channel=11 note=49 velocity=95 time=0
EXTRACT: note_off channel=8 note=73 velocity=95 time=0
EXTRACT: note_on channel=8 note=70 velocity=95 time=0
EXTRACT: note_off channel=6 note=39 velocity=111 time=0
EXTRACT: note_on channel=6 note=37 velocity=111 time=0
EXTRACT: note_off channel=9 note=42 velocity=95 time=0
EXTRACT: note_on channel=9 note=42 velocity=95 time=0
EXTRACT: note_on channel=9 note=38 velocity=95 time=0
EXTRACT: note_off channel=11 note=49 velocity=95 time=0.25
EXTRACT: note_on channel=11 note=51 velocity=95 time=0
EXTRACT: note_off channel=6 note=37 velocity=111 time=0
EXTRACT: note_on channel=6 note=39 velocity=111 time=0
EXTRACT: note_off channel=9 note=42 velocity=95 time=0
EXTRACT: note_off channel=9 note=38 velocity=95 time=0
EXTRACT: note_on channel=9 note=42 velocity=95 time=0
EXTRACT: note_on channel=0 note=70 velocity=127 time=0.25
EXTRACT: note_off channel=11 note=51 velocity=95 time=0
EXTRACT: note_on channel=11 note=54 velocity=95 time=0
EXTRACT: note_on channel=4 note=66 velocity=95 time=0
EXTRACT: note_on channel=4 note=63 velocity=95 time=0
EXTRACT: note_on channel=4 note=61 velocity=95 time=0
EXTRACT: note_on channel=4 note=58 velocity=95 time=0
EXTRACT: note_off channel=8 note=70 velocity=95 time=0
EXTRACT: note_on channel=8 note=66 velocity=95 time=0
EXTRACT: note_off channel=6 note=39 velocity=111 time=0
EXTRACT: note_on channel=6 note=42 velocity=111 time=0
EXTRACT: note_off channel=9 note=42 velocity=95 time=0
EXTRACT: note_on channel=9 note=42 velocity=95 time=0
EXTRACT: note_on channel=9 note=35 velocity=95 time=0
EXTRACT: note_off channel=0 note=70 velocity=127 time=0.25
EXTRACT: note_on channel=0 note=68 velocity=102 time=0
EXTRACT: note_off channel=11 note=54 velocity=95 time=0
EXTRACT: note_on channel=11 note=54 velocity=95 time=0
EXTRACT: note_off channel=4 note=66 velocity=95 time=0
EXTRACT: note_off channel=4 note=63 velocity=95 time=0
EXTRACT: note_off channel=4 note=61 velocity=95 time=0
EXTRACT: note_off channel=4 note=58 velocity=95 time=0
EXTRACT: note_off channel=6 note=42 velocity=111 time=0
EXTRACT: note_on channel=6 note=39 velocity=111 time=0
EXTRACT: note_off channel=9 note=42 velocity=95 time=0
EXTRACT: note_off channel=9 note=35 velocity=95 time=0
EXTRACT: note_on channel=9 note=42 velocity=95 time=0
EXTRACT: note_off channel=11 note=54 velocity=95 time=0.125
EXTRACT: note_on channel=11 note=54 velocity=95 time=0
EXTRACT: note_off channel=0 note=68 velocity=102 time=0.125
EXTRACT: note_on channel=0 note=66 velocity=102 time=0
EXTRACT: note_off channel=11 note=54 velocity=95 time=0
EXTRACT: note_on channel=11 note=51 velocity=95 time=0
EXTRACT: note_off channel=8 note=66 velocity=95 time=0
EXTRACT: note_off channel=6 note=39 velocity=111 time=0
EXTRACT: note_on channel=6 note=37 velocity=111 time=0
EXTRACT: note_off channel=9 note=42 velocity=95 time=0
EXTRACT: note_on channel=9 note=42 velocity=95 time=0
EXTRACT: note_on channel=9 note=38 velocity=95 time=0
EXTRACT: note_off channel=0 note=66 velocity=102 time=0.25
EXTRACT: note_on channel=0 note=68 velocity=102 time=0
EXTRACT: note_off channel=11 note=51 velocity=95 time=0
EXTRACT: note_on channel=11 note=49 velocity=95 time=0
EXTRACT: note_on channel=4 note=66 velocity=95 time=0
EXTRACT: note_on channel=4 note=63 velocity=95 time=0
EXTRACT: note_on channel=4 note=61 velocity=95 time=0
EXTRACT: note_on channel=4 note=58 velocity=95 time=0
EXTRACT: note_off channel=6 note=37 velocity=111 time=0
EXTRACT: note_on channel=6 note=42 velocity=111 time=0
EXTRACT: note_off channel=9 note=42 velocity=95 time=0
EXTRACT: note_off channel=9 note=38 velocity=95 time=0
EXTRACT: note_on channel=9 note=42 velocity=95 time=0
EXTRACT: note_off channel=11 note=49 velocity=95 time=0.125
EXTRACT: note_on channel=11 note=51 velocity=70 time=0
EXTRACT: note_off channel=11 note=51 velocity=70 time=0.125
EXTRACT: note_on channel=11 note=54 velocity=95 time=0
EXTRACT: note_off channel=4 note=66 velocity=95 time=0
EXTRACT: note_off channel=4 note=63 velocity=95 time=0
EXTRACT: note_off channel=4 note=61 velocity=95 time=0
EXTRACT: note_off channel=4 note=58 velocity=95 time=0
EXTRACT: note_off channel=6 note=42 velocity=111 time=0
EXTRACT: note_on channel=6 note=42 velocity=111 time=0
EXTRACT: note_off channel=9 note=42 velocity=95 time=0
EXTRACT: note_on channel=9 note=42 velocity=95 time=0
EXTRACT: note_on channel=9 note=35 velocity=95 time=0
EXTRACT: note_off channel=11 note=54 velocity=95 time=0.125
EXTRACT: note_on channel=11 note=54 velocity=95 time=0
EXTRACT: note_off channel=0 note=68 velocity=102 time=0.125
EXTRACT: note_on channel=0 note=66 velocity=127 time=0
EXTRACT: note_off channel=11 note=54 velocity=95 time=0
EXTRACT: note_on channel=11 note=51 velocity=95 time=0
EXTRACT: note_off channel=6 note=42 velocity=111 time=0
EXTRACT: note_on channel=6 note=39 velocity=111 time=0
EXTRACT: note_off channel=9 note=42 velocity=95 time=0
EXTRACT: note_off channel=9 note=35 velocity=95 time=0
EXTRACT: note_on channel=9 note=42 velocity=95 time=0
EXTRACT: note_off channel=0 note=66 velocity=127 time=0.25
EXTRACT: note_on channel=0 note=68 velocity=127 time=0
EXTRACT: note_off channel=11 note=51 velocity=95 time=0
EXTRACT: note_on channel=11 note=49 velocity=95 time=0
EXTRACT: note_off channel=6 note=39 velocity=111 time=0
EXTRACT: note_on channel=6 note=37 velocity=111 time=0
EXTRACT: note_off channel=9 note=42 velocity=95 time=0
EXTRACT: note_on channel=9 note=42 velocity=95 time=0
EXTRACT: note_on channel=9 note=38 velocity=95 time=0
EXTRACT: note_off channel=0 note=68 velocity=127 time=0.25
EXTRACT: note_on channel=0 note=70 velocity=127 time=0
EXTRACT: note_off channel=11 note=49 velocity=95 time=0
EXTRACT: note_on channel=11 note=51 velocity=95 time=0
EXTRACT: note_off channel=6 note=37 velocity=111 time=0
EXTRACT: note_on channel=6 note=39 velocity=111 time=0
EXTRACT: note_off channel=9 note=42 velocity=95 time=0
EXTRACT: note_off channel=9 note=38 velocity=95 time=0
EXTRACT: note_on channel=9 note=42 velocity=95 time=0
EXTRACT: note_off channel=0 note=70 velocity=127 time=0.25
EXTRACT: note_on channel=0 note=68 velocity=127 time=0
EXTRACT: note_off channel=11 note=51 velocity=95 time=0
EXTRACT: note_on channel=11 note=54 velocity=95 time=0
EXTRACT: note_off channel=6 note=39 velocity=111 time=0
EXTRACT: note_on channel=6 note=42 velocity=111 time=0
EXTRACT: note_off channel=9 note=42 velocity=95 time=0
EXTRACT: note_on channel=9 note=49 velocity=95 time=0
EXTRACT: note_on channel=9 note=35 velocity=95 time=0
EXTRACT: note_off channel=0 note=68 velocity=127 time=0.25
EXTRACT: note_on channel=0 note=66 velocity=102 time=0
EXTRACT: note_off channel=11 note=54 velocity=95 time=0
EXTRACT: note_on channel=11 note=54 velocity=95 time=0
EXTRACT: note_on channel=4 note=66 velocity=95 time=0
EXTRACT: note_on channel=4 note=63 velocity=95 time=0
EXTRACT: note_on channel=4 note=61 velocity=95 time=0
EXTRACT: note_on channel=4 note=58 velocity=95 time=0
EXTRACT: note_off channel=6 note=42 velocity=111 time=0
EXTRACT: note_on channel=6 note=39 velocity=111 time=0
EXTRACT: note_off channel=9 note=49 velocity=95 time=0
EXTRACT: note_off channel=9 note=35 velocity=95 time=0
EXTRACT: note_on channel=9 note=42 velocity=95 time=0
EXTRACT: note_off channel=11 note=54 velocity=95 time=0.125
EXTRACT: note_on channel=11 note=54 velocity=95 time=0
EXTRACT: note_off channel=0 note=66 velocity=102 time=0.125
EXTRACT: note_on channel=0 note=66 velocity=127 time=0
EXTRACT: note_off channel=11 note=54 velocity=95 time=0
EXTRACT: note_on channel=11 note=51 velocity=95 time=0
EXTRACT: note_off channel=4 note=66 velocity=95 time=0
EXTRACT: note_off channel=4 note=63 velocity=95 time=0
EXTRACT: note_off channel=4 note=61 velocity=95 time=0
EXTRACT: note_off channel=4 note=58 velocity=95 time=0
EXTRACT: note_off channel=6 note=39 velocity=111 time=0
EXTRACT: note_on channel=6 note=37 velocity=111 time=0
EXTRACT: note_off channel=9 note=42 velocity=95 time=0
EXTRACT: note_on channel=9 note=42 velocity=95 time=0
EXTRACT: note_on channel=9 note=38 velocity=95 time=0
EXTRACT: note_off channel=11 note=51 velocity=95 time=0.25
EXTRACT: note_on channel=11 note=49 velocity=95 time=0
EXTRACT: note_off channel=6 note=37 velocity=111 time=0
EXTRACT: note_on channel=6 note=42 velocity=111 time=0
EXTRACT: note_off channel=9 note=42 velocity=95 time=0
EXTRACT: note_off channel=9 note=38 velocity=95 time=0
EXTRACT: note_on channel=9 note=42 velocity=95 time=0
EXTRACT: note_off channel=11 note=49 velocity=95 time=0.125
EXTRACT: note_on channel=11 note=51 velocity=70 time=0
EXTRACT: note_off channel=0 note=66 velocity=127 time=0.125
EXTRACT: note_off channel=11 note=51 velocity=70 time=0
EXTRACT: note_on channel=11 note=54 velocity=95 time=0
EXTRACT: note_on channel=4 note=66 velocity=95 time=0
EXTRACT: note_on channel=4 note=63 velocity=95 time=0
EXTRACT: note_on channel=4 note=61 velocity=95 time=0
EXTRACT: note_on channel=4 note=58 velocity=95 time=0
EXTRACT: note_on channel=8 note=61 velocity=95 time=0
EXTRACT: note_off channel=6 note=42 velocity=111 time=0
EXTRACT: note_on channel=6 note=42 velocity=111 time=0
EXTRACT: note_off channel=9 note=42 velocity=95 time=0
EXTRACT: note_on channel=9 note=42 velocity=95 time=0
EXTRACT: note_on channel=9 note=35 velocity=95 time=0
EXTRACT: note_off channel=11 note=54 velocity=95 time=0.125
EXTRACT: note_on channel=11 note=54 velocity=95 time=0
EXTRACT: note_off channel=11 note=54 velocity=95 time=0.125
EXTRACT: note_on channel=11 note=51 velocity=95 time=0
EXTRACT: note_off channel=4 note=66 velocity=95 time=0
EXTRACT: note_off channel=4 note=63 velocity=95 time=0
EXTRACT: note_off channel=4 note=61 velocity=95 time=0
EXTRACT: note_off channel=4 note=58 velocity=95 time=0
EXTRACT: note_off channel=6 note=42 velocity=111 time=0
EXTRACT: note_on channel=6 note=39 velocity=111 time=0
EXTRACT: note_off channel=9 note=42 velocity=95 time=0
EXTRACT: note_off channel=9 note=35 velocity=95 time=0
EXTRACT: note_on channel=9 note=42 velocity=95 time=0
EXTRACT: note_off channel=11 note=51 velocity=95 time=0.25
EXTRACT: note_on channel=11 note=49 velocity=95 time=0
EXTRACT: note_off channel=8 note=61 velocity=95 time=0
EXTRACT: note_on channel=8 note=73 velocity=95 time=0
EXTRACT: note_off channel=6 note=39 velocity=111 time=0
EXTRACT: note_on channel=6 note=37 velocity=111 time=0
EXTRACT: note_off channel=9 note=42 velocity=95 time=0
EXTRACT: note_on channel=9 note=42 velocity=95 time=0
EXTRACT: note_on channel=9 note=38 velocity=95 time=0
EXTRACT: note_off channel=11 note=49 velocity=95 time=0.25
EXTRACT: note_on channel=11 note=51 velocity=95 time=0
EXTRACT: note_off channel=6 note=37 velocity=111 time=0
EXTRACT: note_on channel=6 note=39 velocity=111 time=0
EXTRACT: note_off channel=9 note=42 velocity=95 time=0
EXTRACT: note_off channel=9 note=38 velocity=95 time=0
EXTRACT: note_on channel=9 note=42 velocity=95 time=0
EXTRACT: note_on channel=0 note=70 velocity=127 time=0.25
EXTRACT: note_off channel=11 note=51 velocity=95 time=0
EXTRACT: note_on channel=11 note=54 velocity=95 time=0
EXTRACT: note_on channel=4 note=66 velocity=95 time=0
EXTRACT: note_on channel=4 note=63 velocity=95 time=0
EXTRACT: note_on channel=4 note=61 velocity=95 time=0
EXTRACT: note_on channel=4 note=58 velocity=95 time=0
EXTRACT: note_off channel=8 note=73 velocity=95 time=0
EXTRACT: note_on channel=8 note=70 velocity=95 time=0
EXTRACT: note_off channel=6 note=39 velocity=111 time=0
EXTRACT: note_on channel=6 note=42 velocity=111 time=0
EXTRACT: note_off channel=9 note=42 velocity=95 time=0
EXTRACT: note_on channel=9 note=42 velocity=95 time=0
EXTRACT: note_on channel=9 note=35 velocity=95 time=0
EXTRACT: note_off channel=11 note=54 velocity=95 time=0.25
EXTRACT: note_on channel=11 note=54 velocity=95 time=0
EXTRACT: note_off channel=4 note=66 velocity=95 time=0
EXTRACT: note_off channel=4 note=63 velocity=95 time=0
EXTRACT: note_off channel=4 note=61 velocity=95 time=0
EXTRACT: note_off channel=4 note=58 velocity=95 time=0
EXTRACT: note_off channel=6 note=42 velocity=111 time=0
EXTRACT: note_on channel=6 note=39 velocity=111 time=0
EXTRACT: note_off channel=9 note=42 velocity=95 time=0
EXTRACT: note_off channel=9 note=35 velocity=95 time=0
EXTRACT: note_on channel=9 note=42 velocity=95 time=0
EXTRACT: note_off channel=11 note=54 velocity=95 time=0.125
EXTRACT: note_on channel=11 note=54 velocity=95 time=0
EXTRACT: note_off channel=0 note=70 velocity=127 time=0.125
EXTRACT: note_on channel=0 note=71 velocity=127 time=0
EXTRACT: note_off channel=11 note=54 velocity=95 time=0
EXTRACT: note_on channel=11 note=51 velocity=95 time=0
EXTRACT: note_off channel=8 note=70 velocity=95 time=0
EXTRACT: note_on channel=8 note=66 velocity=95 time=0
EXTRACT: note_off channel=6 note=39 velocity=111 time=0
EXTRACT: note_on channel=6 note=37 velocity=111 time=0
EXTRACT: note_off channel=9 note=42 velocity=95 time=0
EXTRACT: note_on channel=9 note=42 velocity=95 time=0
EXTRACT: note_on channel=9 note=38 velocity=95 time=0
EXTRACT: note_off channel=11 note=51 velocity=95 time=0.25
EXTRACT: note_on channel=11 note=49 velocity=95 time=0
EXTRACT: note_on channel=4 note=66 velocity=95 time=0
EXTRACT: note_on channel=4 note=63 velocity=95 time=0
EXTRACT: note_on channel=4 note=61 velocity=95 time=0
EXTRACT: note_on channel=4 note=58 velocity=95 time=0
EXTRACT: note_off channel=6 note=37 velocity=111 time=0
EXTRACT: note_on channel=6 note=42 velocity=111 time=0
EXTRACT: note_off channel=9 note=42 velocity=95 time=0
EXTRACT: note_off channel=9 note=38 velocity=95 time=0
EXTRACT: note_on channel=9 note=42 velocity=95 time=0
EXTRACT: note_off channel=11 note=49 velocity=95 time=0.125
EXTRACT: note_on channel=11 note=51 velocity=70 time=0
EXTRACT: note_off channel=0 note=71 velocity=127 time=0.125
EXTRACT: note_on channel=0 note=70 velocity=127 time=0
EXTRACT: note_off channel=11 note=51 velocity=70 time=0
EXTRACT: note_on channel=11 note=54 velocity=95 time=0
EXTRACT: note_off channel=4 note=66 velocity=95 time=0
EXTRACT: note_off channel=4 note=63 velocity=95 time=0
EXTRACT: note_off channel=4 note=61 velocity=95 time=0
EXTRACT: note_off channel=4 note=58 velocity=95 time=0
EXTRACT: note_off channel=8 note=66 velocity=95 time=0
EXTRACT: note_on channel=8 note=68 velocity=95 time=0
EXTRACT: note_off channel=6 note=42 velocity=111 time=0
EXTRACT: note_on channel=6 note=42 velocity=111 time=0
EXTRACT: note_off channel=9 note=42 velocity=95 time=0
EXTRACT: note_on channel=9 note=42 velocity=95 time=0
EXTRACT: note_on channel=9 note=35 velocity=95 time=0
EXTRACT: note_off channel=11 note=54 velocity=95 time=0.125
EXTRACT: note_on channel=11 note=54 velocity=95 time=0
EXTRACT: note_off channel=0 note=70 velocity=127 time=0.125
EXTRACT: note_on channel=0 note=68 velocity=102 time=0
EXTRACT: note_off channel=11 note=54 velocity=95 time=0
EXTRACT: note_on channel=11 note=51 velocity=95 time=0
EXTRACT: note_off channel=6 note=42 velocity=111 time=0
EXTRACT: note_on channel=6 note=39 velocity=111 time=0
EXTRACT: note_off channel=9 note=42 velocity=95 time=0
EXTRACT: note_off channel=9 note=35 velocity=95 time=0
EXTRACT: note_on channel=9 note=42 velocity=95 time=0
EXTRACT: note_off channel=0 note=68 velocity=102 time=0.25
EXTRACT: note_on channel=0 note=66 velocity=127 time=0
EXTRACT: note_off channel=11 note=51 velocity=95 time=0
EXTRACT: note_on channel=11 note=49 velocity=95 time=0
EXTRACT: note_off channel=8 note=68 velocity=95 time=0
EXTRACT: note_off channel=6 note=39 velocity=111 time=0
EXTRACT: note_on channel=6 note=37 velocity=111 time=0
EXTRACT: note_off channel=9 note=42 velocity=95 time=0
EXTRACT: note_on channel=9 note=42 velocity=95 time=0
EXTRACT: note_on channel=9 note=38 velocity=95 time=0
EXTRACT: note_off channel=0 note=66 velocity=127 time=0.25
EXTRACT: note_on channel=0 note=68 velocity=127 time=0
EXTRACT: note_off channel=11 note=49 velocity=95 time=0
EXTRACT: note_on channel=11 note=51 velocity=95 time=0
EXTRACT: note_off channel=6 note=37 velocity=111 time=0
EXTRACT: note_on channel=6 note=39 velocity=111 time=0
EXTRACT: note_off channel=9 note=42 velocity=95 time=0
EXTRACT: note_off channel=9 note=38 velocity=95 time=0
EXTRACT: note_on channel=9 note=49 velocity=95 time=0
EXTRACT: note_on channel=9 note=35 velocity=95 time=0
EXTRACT: note_off channel=0 note=68 velocity=127 time=0.25
EXTRACT: note_on channel=0 note=66 velocity=102 time=0
EXTRACT: note_off channel=11 note=51 velocity=95 time=0
EXTRACT: note_on channel=11 note=56 velocity=95 time=0
EXTRACT: note_on channel=4 note=68 velocity=95 time=0
EXTRACT: note_on channel=4 note=66 velocity=95 time=0
EXTRACT: note_on channel=4 note=63 velocity=95 time=0
EXTRACT: note_on channel=4 note=59 velocity=95 time=0
EXTRACT: note_off channel=6 note=39 velocity=111 time=0
EXTRACT: note_on channel=6 note=44 velocity=111 time=0
EXTRACT: note_off channel=9 note=49 velocity=95 time=0
EXTRACT: note_off channel=9 note=35 velocity=95 time=0
EXTRACT: note_on channel=9 note=49 velocity=95 time=0
EXTRACT: note_on channel=9 note=35 velocity=95 time=0
EXTRACT: note_off channel=11 note=56 velocity=95 time=0.25
EXTRACT: note_on channel=11 note=56 velocity=95 time=0
EXTRACT: note_off channel=4 note=68 velocity=95 time=0
EXTRACT: note_off channel=4 note=66 velocity=95 time=0
EXTRACT: note_off channel=4 note=63 velocity=95 time=0
EXTRACT: note_off channel=4 note=59 velocity=95 time=0
EXTRACT: note_off channel=6 note=44 velocity=111 time=0
EXTRACT: note_on channel=6 note=44 velocity=111 time=0
EXTRACT: note_off channel=9 note=49 velocity=95 time=0
EXTRACT: note_off channel=9 note=35 velocity=95 time=0
EXTRACT: note_on channel=9 note=42 velocity=95 time=0
EXTRACT: note_off channel=11 note=56 velocity=95 time=0.125
EXTRACT: note_on channel=11 note=56 velocity=95 time=0
EXTRACT: note_off channel=0 note=66 velocity=102 time=0.125
EXTRACT: note_off channel=11 note=56 velocity=95 time=0
EXTRACT: note_on channel=11 note=56 velocity=95 time=0
EXTRACT: note_off channel=6 note=44 velocity=111 time=0
EXTRACT: note_on channel=6 note=44 velocity=111 time=0
EXTRACT: note_off channel=9 note=42 velocity=95 time=0
EXTRACT: note_on channel=9 note=42 velocity=95 time=0
EXTRACT: note_on channel=9 note=38 velocity=95 time=0
EXTRACT: note_off channel=11 note=56 velocity=95 time=0.25
EXTRACT: note_on channel=11 note=56 velocity=95 time=0
EXTRACT: note_on channel=4 note=68 velocity=95 time=0
EXTRACT: note_on channel=4 note=66 velocity=95 time=0
EXTRACT: note_on channel=4 note=63 velocity=95 time=0
EXTRACT: note_on channel=4 note=59 velocity=95 time=0
EXTRACT: note_off channel=6 note=44 velocity=111 time=0
EXTRACT: note_on channel=6 note=44 velocity=111 time=0
EXTRACT: note_off channel=9 note=42 velocity=95 time=0
EXTRACT: note_off channel=9 note=38 velocity=95 time=0
EXTRACT: note_on channel=9 note=42 velocity=95 time=0
EXTRACT: note_off channel=11 note=56 velocity=95 time=0.125
EXTRACT: note_on channel=11 note=56 velocity=95 time=0
EXTRACT: note_off channel=11 note=56 velocity=95 time=0.125
EXTRACT: note_on channel=11 note=56 velocity=95 time=0
EXTRACT: note_off channel=4 note=68 velocity=95 time=0
EXTRACT: note_off channel=4 note=66 velocity=95 time=0
EXTRACT: note_off channel=4 note=63 velocity=95 time=0
EXTRACT: note_off channel=4 note=59 velocity=95 time=0
EXTRACT: note_off channel=6 note=44 velocity=111 time=0
EXTRACT: note_on channel=6 note=44 velocity=111 time=0
EXTRACT: note_off channel=9 note=42 velocity=95 time=0
EXTRACT: note_on channel=9 note=42 velocity=95 time=0
EXTRACT: note_on channel=9 note=35 velocity=95 time=0
EXTRACT: note_off channel=11 note=56 velocity=95 time=0.125
EXTRACT: note_on channel=11 note=56 velocity=95 time=0
EXTRACT: note_off channel=11 note=56 velocity=95 time=0.125
EXTRACT: note_on channel=11 note=56 velocity=95 time=0
EXTRACT: note_off channel=6 note=44 velocity=111 time=0
EXTRACT: note_on channel=6 note=44 velocity=111 time=0
EXTRACT: note_off channel=9 note=42 velocity=95 time=0
EXTRACT: note_off channel=9 note=35 velocity=95 time=0
EXTRACT: note_on channel=9 note=42 velocity=95 time=0
EXTRACT: note_off channel=11 note=56 velocity=95 time=0.25
EXTRACT: note_on channel=11 note=56 velocity=95 time=0
EXTRACT: note_off channel=6 note=44 velocity=111 time=0
EXTRACT: note_on channel=6 note=42 velocity=111 time=0
EXTRACT: note_off channel=9 note=42 velocity=95 time=0
EXTRACT: note_on channel=9 note=42 velocity=95 time=0
EXTRACT: note_on channel=9 note=38 velocity=95 time=0
EXTRACT: note_on channel=0 note=61 velocity=127 time=0.25
EXTRACT: note_off channel=11 note=56 velocity=95 time=0
EXTRACT: note_on channel=11 note=56 velocity=95 time=0
EXTRACT: note_off channel=6 note=42 velocity=111 time=0
EXTRACT: note_on channel=6 note=44 velocity=111 time=0
EXTRACT: note_off channel=9 note=42 velocity=95 time=0
EXTRACT: note_off channel=9 note=38 velocity=95 time=0
EXTRACT: note_on channel=9 note=42 velocity=95 time=0
EXTRACT: note_off channel=0 note=61 velocity=127 time=0.125
EXTRACT: note_on channel=0 note=63 velocity=127 time=0
EXTRACT: note_off channel=0 note=63 velocity=127 time=0.125
EXTRACT: note_on channel=0 note=66 velocity=127 time=0
EXTRACT: note_off channel=11 note=56 velocity=95 time=0
EXTRACT: note_on channel=11 note=56 velocity=95 time=0
EXTRACT: note_on channel=4 note=68 velocity=95 time=0
EXTRACT: note_on channel=4 note=66 velocity=95 time=0
EXTRACT: note_on channel=4 note=63 velocity=95 time=0
EXTRACT: note_on channel=4 note=59 velocity=95 time=0
EXTRACT: note_off channel=6 note=44 velocity=111 time=0
EXTRACT: note_on channel=6 note=32 velocity=111 time=0
EXTRACT: note_off channel=9 note=42 velocity=95 time=0
EXTRACT: note_on channel=9 note=42 velocity=95 time=0
EXTRACT: note_on channel=9 note=35 velocity=95 time=0
EXTRACT: note_off channel=0 note=66 velocity=127 time=0.25
EXTRACT: note_on channel=0 note=63 velocity=127 time=0
EXTRACT: note_off channel=11 note=56 velocity=95 time=0
EXTRACT: note_on channel=11 note=56 velocity=95 time=0
EXTRACT: note_off channel=4 note=68 velocity=95 time=0
EXTRACT: note_off channel=4 note=66 velocity=95 time=0
EXTRACT: note_off channel=4 note=63 velocity=95 time=0
EXTRACT: note_off channel=4 note=59 velocity=95 time=0
EXTRACT: note_off channel=6 note=32 velocity=111 time=0
EXTRACT: note_on channel=6 note=32 velocity=111 time=0
EXTRACT: note_off channel=9 note=42 velocity=95 time=0
EXTRACT: note_off channel=9 note=35 velocity=95 time=0
EXTRACT: note_on channel=9 note=42 velocity=95 time=0
EXTRACT: note_off channel=11 note=56 velocity=95 time=0.125
EXTRACT: note_on channel=11 note=56 velocity=95 time=0
EXTRACT: note_off channel=11 note=56 velocity=95 time=0.125
EXTRACT: note_on channel=11 note=56 velocity=95 time=0
EXTRACT: note_on channel=8 note=61 velocity=95 time=0
EXTRACT: note_off channel=6 note=32 velocity=111 time=0
EXTRACT: note_on channel=6 note=32 velocity=111 time=0
EXTRACT: note_off channel=9 note=42 velocity=95 time=0
EXTRACT: note_on channel=9 note=42 velocity=95 time=0
EXTRACT: note_on channel=9 note=38 velocity=95 time=0
EXTRACT: note_off channel=11 note=56 velocity=95 time=0.25
EXTRACT: note_on channel=11 note=56 velocity=95 time=0
EXTRACT: note_on channel=4 note=68 velocity=95 time=0
EXTRACT: note_on channel=4 note=66 velocity=95 time=0
EXTRACT: note_on channel=4 note=63 velocity=95 time=0
EXTRACT: note_on channel=4 note=59 velocity=95 time=0
EXTRACT: note_off channel=6 note=32 velocity=111 time=0
EXTRACT: note_on channel=6 note=32 velocity=111 time=0
EXTRACT: note_off channel=9 note=42 velocity=95 time=0
EXTRACT: note_off channel=9 note=38 velocity=95 time=0
EXTRACT: note_on channel=9 note=42 velocity=95 time=0
EXTRACT: note_off channel=11 note=56 velocity=95 time=0.125
EXTRACT: note_on channel=11 note=56 velocity=95 time=0
EXTRACT: note_off channel=0 note=63 velocity=127 time=0.125
EXTRACT: note_off channel=11 note=56 velocity=95 time=0
EXTRACT: note_on channel=11 note=56 velocity=95 time=0
EXTRACT: note_off channel=4 note=68 velocity=95 time=0
EXTRACT: note_off channel=4 note=66 velocity=95 time=0
EXTRACT: note_off channel=4 note=63 velocity=95 time=0
EXTRACT: note_off channel=4 note=59 velocity=95 time=0
EXTRACT: note_off channel=8 note=61 velocity=95 time=0
EXTRACT: note_on channel=8 note=73 velocity=95 time=0
EXTRACT: note_off channel=6 note=32 velocity=111 time=0
EXTRACT: note_on channel=6 note=32 velocity=111 time=0
EXTRACT: note_off channel=9 note=42 velocity=95 time=0
EXTRACT: note_on channel=9 note=42 velocity=95 time=0
EXTRACT: note_on channel=9 note=35 velocity=95 time=0
EXTRACT: note_off channel=11 note=56 velocity=95 time=0.125
EXTRACT: note_on channel=11 note=56 velocity=95 time=0
EXTRACT: note_off channel=11 note=56 velocity=95 time=0.125
EXTRACT: note_on channel=11 note=56 velocity=95 time=0
EXTRACT: note_off channel=6 note=32 velocity=111 time=0
EXTRACT: note_on channel=6 note=32 velocity=111 time=0
EXTRACT: note_off channel=9 note=42 velocity=95 time=0
EXTRACT: note_off channel=9 note=35 velocity=95 time=0
EXTRACT: note_on channel=9 note=42 velocity=95 time=0
EXTRACT: note_off channel=11 note=56 velocity=95 time=0.25
EXTRACT: note_on channel=11 note=56 velocity=95 time=0
EXTRACT: note_off channel=8 note=73 velocity=95 time=0
EXTRACT: note_on channel=8 note=70 velocity=95 time=0
EXTRACT: note_off channel=6 note=32 velocity=111 time=0
EXTRACT: note_on channel=6 note=32 velocity=111 time=0
EXTRACT: note_off channel=9 note=42 velocity=95 time=0
EXTRACT: note_on channel=9 note=42 velocity=95 time=0
EXTRACT: note_on channel=9 note=38 velocity=95 time=0
EXTRACT: note_on channel=0 note=61 velocity=127 time=0.25
EXTRACT: note_off channel=11 note=56 velocity=95 time=0
EXTRACT: note_on channel=11 note=56 velocity=95 time=0
EXTRACT: note_off channel=6 note=32 velocity=111 time=0
EXTRACT: note_on channel=6 note=37 velocity=111 time=0
EXTRACT: note_off channel=9 note=42 velocity=95 time=0
EXTRACT: note_off channel=9 note=38 velocity=95 time=0
EXTRACT: note_on channel=9 note=42 velocity=95 time=0
EXTRACT: note_off channel=0 note=61 velocity=127 time=0.125
EXTRACT: note_on channel=0 note=63 velocity=127 time=0
EXTRACT: note_off channel=9 note=42 velocity=95 time=0
EXTRACT: note_on channel=9 note=38 velocity=95 time=0
EXTRACT: note_off channel=0 note=63 velocity=127 time=0.125
EXTRACT: note_on channel=0 note=66 velocity=127 time=0
EXTRACT: note_off channel=11 note=56 velocity=95 time=0
EXTRACT: note_on channel=11 note=54 velocity=95 time=0
EXTRACT: note_off channel=8 note=70 velocity=95 time=0
EXTRACT: note_off channel=6 note=37 velocity=111 time=0
EXTRACT: note_on channel=6 note=42 velocity=111 time=0
EXTRACT: note_off channel=9 note=38 velocity=95 time=0
EXTRACT: note_on channel=9 note=49 velocity=95 time=0
EXTRACT: note_on channel=9 note=35 velocity=95 time=0
EXTRACT: note_off channel=0 note=66 velocity=127 time=0.25
EXTRACT: note_on channel=0 note=63 velocity=127 time=0
EXTRACT: note_off channel=11 note=54 velocity=95 time=0
EXTRACT: note_on channel=11 note=54 velocity=95 time=0
EXTRACT: note_on channel=4 note=66 velocity=95 time=0
EXTRACT: note_on channel=4 note=63 velocity=95 time=0
EXTRACT: note_on channel=4 note=61 velocity=95 time=0
EXTRACT: note_on channel=4 note=58 velocity=95 time=0
EXTRACT: note_off channel=6 note=42 velocity=111 time=0
EXTRACT: note_on channel=6 note=39 velocity=111 time=0
EXTRACT: note_off channel=9 note=49 velocity=95 time=0
EXTRACT: note_off channel=9 note=35 velocity=95 time=0
EXTRACT: note_on channel=9 note=42 velocity=95 time=0
EXTRACT: note_off channel=11 note=54 velocity=95 time=0.125
EXTRACT: note_on channel=11 note=54 velocity=95 time=0
EXTRACT: note_off channel=11 note=54 velocity=95 time=0.125
EXTRACT: note_on channel=11 note=51 velocity=95 time=0
EXTRACT: note_off channel=4 note=66 velocity=95 time=0
EXTRACT: note_off channel=4 note=63 velocity=95 time=0
EXTRACT: note_off channel=4 note=61 velocity=95 time=0
EXTRACT: note_off channel=4 note=58 velocity=95 time=0
EXTRACT: note_off channel=6 note=39 velocity=111 time=0
EXTRACT: note_on channel=6 note=37 velocity=111 time=0
EXTRACT: note_off channel=9 note=42 velocity=95 time=0
EXTRACT: note_on channel=9 note=42 velocity=95 time=0
EXTRACT: note_on channel=9 note=38 velocity=95 time=0
EXTRACT: note_off channel=11 note=51 velocity=95 time=0.25
EXTRACT: note_on channel=11 note=49 velocity=95 time=0
EXTRACT: note_off channel=6 note=37 velocity=111 time=0
EXTRACT: note_on channel=6 note=42 velocity=111 time=0
EXTRACT: note_off channel=9 note=42 velocity=95 time=0
EXTRACT: note_off channel=9 note=38 velocity=95 time=0
EXTRACT: note_on channel=9 note=42 velocity=95 time=0
EXTRACT: note_off channel=11 note=49 velocity=95 time=0.125
EXTRACT: note_on channel=11 note=51 velocity=70 time=0
EXTRACT: note_off channel=0 note=63 velocity=127 time=0.125
EXTRACT: note_off channel=11 note=51 velocity=70 time=0
EXTRACT: note_on channel=11 note=54 velocity=95 time=0
EXTRACT: note_on channel=4 note=66 velocity=95 time=0
EXTRACT: note_on channel=4 note=63 velocity=95 time=0
EXTRACT: note_on channel=4 note=61 velocity=95 time=0
EXTRACT: note_on channel=4 note=58 velocity=95 time=0
EXTRACT: note_off channel=6 note=42 velocity=111 time=0
EXTRACT: note_on channel=6 note=42 velocity=111 time=0
EXTRACT: note_off channel=9 note=42 velocity=95 time=0
EXTRACT: note_on channel=9 note=42 velocity=95 time=0
EXTRACT: note_on channel=9 note=35 velocity=95 time=0
EXTRACT: note_off channel=11 note=54 velocity=95 time=0.125
EXTRACT: note_on channel=11 note=54 velocity=95 time=0
EXTRACT: note_off channel=11 note=54 velocity=95 time=0.125
EXTRACT: note_on channel=11 note=51 velocity=95 time=0
EXTRACT: note_off channel=4 note=66 velocity=95 time=0
EXTRACT: note_off channel=4 note=63 velocity=95 time=0
EXTRACT: note_off channel=4 note=61 velocity=95 time=0
EXTRACT: note_off channel=4 note=58 velocity=95 time=0
EXTRACT: note_off channel=6 note=42 velocity=111 time=0
EXTRACT: note_on channel=6 note=39 velocity=111 time=0
EXTRACT: note_off channel=9 note=42 velocity=95 time=0
EXTRACT: note_off channel=9 note=35 velocity=95 time=0
EXTRACT: note_on channel=9 note=42 velocity=95 time=0
EXTRACT: note_off channel=11 note=51 velocity=95 time=0.25
EXTRACT: note_on channel=11 note=49 velocity=95 time=0
EXTRACT: note_off channel=6 note=39 velocity=111 time=0
EXTRACT: note_on channel=6 note=37 velocity=111 time=0
EXTRACT: note_off channel=9 note=42 velocity=95 time=0
EXTRACT: note_on channel=9 note=42 velocity=95 time=0
EXTRACT: note_on channel=9 note=38 velocity=95 time=0
EXTRACT: note_on channel=0 note=61 velocity=127 time=0.25
EXTRACT: note_off channel=11 note=49 velocity=95 time=0
EXTRACT: note_on channel=11 note=51 velocity=95 time=0
EXTRACT: note_off channel=6 note=37 velocity=111 time=0
EXTRACT: note_on channel=6 note=39 velocity=111 time=0
EXTRACT: note_off channel=9 note=42 velocity=95 time=0
EXTRACT: note_off channel=9 note=38 velocity=95 time=0
EXTRACT: note_on channel=9 note=42 velocity=95 time=0
EXTRACT: note_off channel=0 note=61 velocity=127 time=0.125
EXTRACT: note_on channel=0 note=63 velocity=127 time=0
EXTRACT: note_off channel=0 note=63 velocity=127 time=0.125
EXTRACT: note_on channel=0 note=66 velocity=127 time=0
EXTRACT: note_off channel=11 note=51 velocity=95 time=0
EXTRACT: note_on channel=11 note=54 velocity=95 time=0
EXTRACT: note_on channel=4 note=66 velocity=95 time=0
EXTRACT: note_on channel=4 note=63 velocity=95 time=0
EXTRACT: note_on channel=4 note=61 velocity=95 time=0
EXTRACT: note_on channel=4 note=58 velocity=95 time=0
EXTRACT: note_off channel=6 note=39 velocity=111 time=0
EXTRACT: note_on channel=6 note=42 velocity=111 time=0
EXTRACT: note_off channel=9 note=42 velocity=95 time=0
EXTRACT: note_on channel=9 note=42 velocity=95 time=0
EXTRACT: note_on channel=9 note=35 velocity=95 time=0
EXTRACT: note_off channel=0 note=66 velocity=127 time=0.25
EXTRACT: note_on channel=0 note=63 velocity=127 time=0
EXTRACT: note_off channel=11 note=54 velocity=95 time=0
EXTRACT: note_on channel=11 note=54 velocity=95 time=0
EXTRACT: note_off channel=4 note=66 velocity=95 time=0
EXTRACT: note_off channel=4 note=63 velocity=95 time=0
EXTRACT: note_off channel=4 note=61 velocity=95 time=0
EXTRACT: note_off channel=4 note=58 velocity=95 time=0
EXTRACT: note_off channel=6 note=42 velocity=111 time=0
EXTRACT: note_on channel=6 note=39 velocity=111 time=0
EXTRACT: note_off channel=9 note=42 velocity=95 time=0
EXTRACT: note_off channel=9 note=35 velocity=95 time=0
EXTRACT: note_on channel=9 note=42 velocity=95 time=0
EXTRACT: note_off channel=11 note=54 velocity=95 time=0.125
EXTRACT: note_on channel=11 note=54 velocity=95 time=0
EXTRACT: note_off channel=11 note=54 velocity=95 time=0.125
EXTRACT: note_on channel=11 note=51 velocity=95 time=0
EXTRACT: note_off channel=6 note=39 velocity=111 time=0
EXTRACT: note_on channel=6 note=37 velocity=111 time=0
EXTRACT: note_off channel=9 note=42 velocity=95 time=0
EXTRACT: note_on channel=9 note=42 velocity=95 time=0
EXTRACT: note_on channel=9 note=38 velocity=95 time=0
EXTRACT: note_off channel=11 note=51 velocity=95 time=0.25
EXTRACT: note_on channel=11 note=49 velocity=95 time=0
EXTRACT: note_on channel=4 note=66 velocity=95 time=0
EXTRACT: note_on channel=4 note=63 velocity=95 time=0
EXTRACT: note_on channel=4 note=61 velocity=95 time=0
EXTRACT: note_on channel=4 note=58 velocity=95 time=0
EXTRACT: note_off channel=6 note=37 velocity=111 time=0
EXTRACT: note_on channel=6 note=42 velocity=111 time=0
EXTRACT: note_off channel=9 note=42 velocity=95 time=0
EXTRACT: note_off channel=9 note=38 velocity=95 time=0
EXTRACT: note_on channel=9 note=42 velocity=95 time=0
EXTRACT: note_off channel=11 note=49 velocity=95 time=0.125
EXTRACT: note_on channel=11 note=51 velocity=70 time=0
EXTRACT: note_off channel=0 note=63 velocity=127 time=0.125
EXTRACT: note_off channel=11 note=51 velocity=70 time=0
EXTRACT: note_on channel=11 note=54 velocity=95 time=0
EXTRACT: note_off channel=4 note=66 velocity=95 time=0
EXTRACT: note_off channel=4 note=63 velocity=95 time=0
EXTRACT: note_off channel=4 note=61 velocity=95 time=0
EXTRACT: note_off channel=4 note=58 velocity=95 time=0
EXTRACT: note_off channel=6 note=42 velocity=111 time=0
EXTRACT: note_on channel=6 note=42 velocity=111 time=0
EXTRACT: note_off channel=9 note=42 velocity=95 time=0
EXTRACT: note_on channel=9 note=42 velocity=95 time=0
EXTRACT: note_on channel=9 note=35 velocity=95 time=0
EXTRACT: note_off channel=11 note=54 velocity=95 time=0.125
EXTRACT: note_on channel=11 note=54 velocity=95 time=0
EXTRACT: note_off channel=11 note=54 velocity=95 time=0.125
EXTRACT: note_on channel=11 note=51 velocity=95 time=0
EXTRACT: note_off channel=6 note=42 velocity=111 time=0
EXTRACT: note_on channel=6 note=39 velocity=111 time=0
EXTRACT: note_off channel=9 note=42 velocity=95 time=0
EXTRACT: note_off channel=9 note=35 velocity=95 time=0
EXTRACT: note_on channel=9 note=42 velocity=95 time=0
EXTRACT: note_on channel=0 note=68 velocity=127 time=0.25
EXTRACT: note_off channel=11 note=51 velocity=95 time=0
EXTRACT: note_on channel=11 note=49 velocity=95 time=0
EXTRACT: note_off channel=6 note=39 velocity=111 time=0
EXTRACT: note_on channel=6 note=37 velocity=111 time=0
EXTRACT: note_off channel=9 note=42 velocity=95 time=0
EXTRACT: note_on channel=9 note=42 velocity=95 time=0
EXTRACT: note_on channel=9 note=38 velocity=95 time=0
EXTRACT: note_off channel=11 note=49 velocity=95 time=0.25
EXTRACT: note_on channel=11 note=51 velocity=95 time=0
EXTRACT: note_off channel=6 note=37 velocity=111 time=0
EXTRACT: note_on channel=6 note=39 velocity=111 time=0
EXTRACT: note_off channel=9 note=42 velocity=95 time=0
EXTRACT: note_off channel=9 note=38 velocity=95 time=0
EXTRACT: note_on channel=9 note=42 velocity=95 time=0
EXTRACT: note_off channel=0 note=68 velocity=127 time=0.25
EXTRACT: note_on channel=0 note=66 velocity=127 time=0
EXTRACT: note_off channel=11 note=51 velocity=95 time=0
EXTRACT: note_on channel=11 note=54 velocity=95 time=0
EXTRACT: note_off channel=6 note=39 velocity=111 time=0
EXTRACT: note_on channel=6 note=42 velocity=111 time=0
EXTRACT: note_off channel=9 note=42 velocity=95 time=0
EXTRACT: note_on channel=9 note=42 velocity=95 time=0
EXTRACT: note_on channel=9 note=35 velocity=95 time=0
EXTRACT: note_off channel=11 note=54 velocity=95 time=0.25
EXTRACT: note_on channel=11 note=54 velocity=95 time=0
EXTRACT: note_on channel=4 note=66 velocity=95 time=0
EXTRACT: note_on channel=4 note=63 velocity=95 time=0
EXTRACT: note_on channel=4 note=61 velocity=95 time=0
EXTRACT: note_on channel=4 note=58 velocity=95 time=0
EXTRACT: note_off channel=6 note=42 velocity=111 time=0
EXTRACT: note_on channel=6 note=39 velocity=111 time=0
EXTRACT: note_off channel=9 note=42 velocity=95 time=0
EXTRACT: note_off channel=9 note=35 velocity=95 time=0
EXTRACT: note_on channel=9 note=42 velocity=95 time=0
EXTRACT: note_off channel=11 note=54 velocity=95 time=0.125
EXTRACT: note_on channel=11 note=54 velocity=95 time=0
EXTRACT: note_off channel=0 note=66 velocity=127 time=0.125
EXTRACT: note_on channel=0 note=68 velocity=127 time=0
EXTRACT: note_off channel=11 note=54 velocity=95 time=0
EXTRACT: note_on channel=11 note=51 velocity=95 time=0
EXTRACT: note_off channel=4 note=66 velocity=95 time=0
EXTRACT: note_off channel=4 note=63 velocity=95 time=0
EXTRACT: note_off channel=4 note=61 velocity=95 time=0
EXTRACT: note_off channel=4 note=58 velocity=95 time=0
EXTRACT: note_on channel=8 note=61 velocity=95 time=0
EXTRACT: note_off channel=6 note=39 velocity=111 time=0
EXTRACT: note_on channel=6 note=37 velocity=111 time=0
EXTRACT: note_off channel=9 note=42 velocity=95 time=0
EXTRACT: note_on channel=9 note=42 velocity=95 time=0
EXTRACT: note_on channel=9 note=38 velocity=95 time=0
EXTRACT: note_off channel=0 note=68 velocity=127 time=0.25
EXTRACT: note_on channel=0 note=70 velocity=127 time=0
EXTRACT: note_off channel=11 note=51 velocity=95 time=0
EXTRACT: note_on channel=11 note=49 velocity=95 time=0
EXTRACT: note_off channel=6 note=37 velocity=111 time=0
EXTRACT: note_on channel=6 note=42 velocity=111 time=0
EXTRACT: note_off channel=9 note=42 velocity=95 time=0
EXTRACT: note_off channel=9 note=38 velocity=95 time=0
EXTRACT: note_on channel=9 note=42 velocity=95 time=0
EXTRACT: note_off channel=11 note=49 velocity=95 time=0.125
EXTRACT: note_on channel=11 note=51 velocity=70 time=0
EXTRACT: note_off channel=11 note=51 velocity=70 time=0.125
EXTRACT: note_on channel=11 note=54 velocity=95 time=0
EXTRACT: note_on channel=4 note=66 velocity=95 time=0
EXTRACT: note_on channel=4 note=63 velocity=95 time=0
EXTRACT: note_on channel=4 note=61 velocity=95 time=0
EXTRACT: note_on channel=4 note=58 velocity=95 time=0
EXTRACT: note_off channel=8 note=61 velocity=95 time=0
EXTRACT: note_on channel=8 note=73 velocity=95 time=0
EXTRACT: note_off channel=6 note=42 velocity=111 time=0
EXTRACT: note_on channel=6 note=42 velocity=111 time=0
EXTRACT: note_off channel=9 note=42 velocity=95 time=0
EXTRACT: note_on channel=9 note=42 velocity=95 time=0
EXTRACT: note_on channel=9 note=35 velocity=95 time=0
EXTRACT: note_off channel=11 note=54 velocity=95 time=0.125
EXTRACT: note_on channel=11 note=54 velocity=95 time=0
EXTRACT: note_off channel=0 note=70 velocity=127 time=0.125
EXTRACT: note_off channel=11 note=54 velocity=95 time=0
EXTRACT: note_on channel=11 note=51 velocity=95 time=0
EXTRACT: note_off channel=4 note=66 velocity=95 time=0
EXTRACT: note_off channel=4 note=63 velocity=95 time=0
EXTRACT: note_off channel=4 note=61 velocity=95 time=0
EXTRACT: note_off channel=4 note=58 velocity=95 time=0
EXTRACT: note_off channel=6 note=42 velocity=111 time=0
EXTRACT: note_on channel=6 note=39 velocity=111 time=0
EXTRACT: note_off channel=9 note=42 velocity=95 time=0
EXTRACT: note_off channel=9 note=35 velocity=95 time=0
EXTRACT: note_on channel=9 note=42 velocity=95 time=0
EXTRACT: note_off channel=11 note=51 velocity=95 time=0.25
EXTRACT: note_on channel=11 note=49 velocity=95 time=0
EXTRACT: note_off channel=8 note=73 velocity=95 time=0
EXTRACT: note_on channel=8 note=70 velocity=95 time=0
EXTRACT: note_off channel=6 note=39 velocity=111 time=0
EXTRACT: note_on channel=6 note=37 velocity=111 time=0
EXTRACT: note_off channel=9 note=42 velocity=95 time=0
EXTRACT: note_on channel=9 note=42 velocity=95 time=0
EXTRACT: note_on channel=9 note=38 velocity=95 time=0
EXTRACT: note_off channel=11 note=49 velocity=95 time=0.25
EXTRACT: note_on channel=11 note=51 velocity=95 time=0
EXTRACT: note_off channel=6 note=37 velocity=111 time=0
EXTRACT: note_on channel=6 note=39 velocity=111 time=0
EXTRACT: note_off channel=9 note=42 velocity=95 time=0
EXTRACT: note_off channel=9 note=38 velocity=95 time=0
EXTRACT: note_on channel=9 note=42 velocity=95 time=0
EXTRACT: note_on channel=0 note=70 velocity=127 time=0.25
EXTRACT: note_off channel=11 note=51 velocity=95 time=0
EXTRACT: note_on channel=11 note=54 velocity=95 time=0
EXTRACT: note_on channel=4 note=66 velocity=95 time=0
EXTRACT: note_on channel=4 note=63 velocity=95 time=0
EXTRACT: note_on channel=4 note=61 velocity=95 time=0
EXTRACT: note_on channel=4 note=58 velocity=95 time=0
EXTRACT: note_off channel=8 note=70 velocity=95 time=0
EXTRACT: note_on channel=8 note=66 velocity=95 time=0
EXTRACT: note_off channel=6 note=39 velocity=111 time=0
EXTRACT: note_on channel=6 note=42 velocity=111 time=0
EXTRACT: note_off channel=9 note=42 velocity=95 time=0
EXTRACT: note_on channel=9 note=42 velocity=95 time=0
EXTRACT: note_on channel=9 note=35 velocity=95 time=0
EXTRACT: note_off channel=0 note=70 velocity=127 time=0.25
EXTRACT: note_on channel=0 note=68 velocity=102 time=0
EXTRACT: note_off channel=11 note=54 velocity=95 time=0
EXTRACT: note_on channel=11 note=54 velocity=95 time=0
EXTRACT: note_off channel=4 note=66 velocity=95 time=0
EXTRACT: note_off channel=4 note=63 velocity=95 time=0
EXTRACT: note_off channel=4 note=61 velocity=95 time=0
EXTRACT: note_off channel=4 note=58 velocity=95 time=0
EXTRACT: note_off channel=6 note=42 velocity=111 time=0
EXTRACT: note_on channel=6 note=39 velocity=111 time=0
EXTRACT: note_off channel=9 note=42 velocity=95 time=0
EXTRACT: note_off channel=9 note=35 velocity=95 time=0
EXTRACT: note_on channel=9 note=42 velocity=95 time=0
EXTRACT: note_off channel=11 note=54 velocity=95 time=0.125
EXTRACT: note_on channel=11 note=54 velocity=95 time=0
EXTRACT: note_off channel=0 note=68 velocity=102 time=0.125
EXTRACT: note_on channel=0 note=66 velocity=102 time=0
EXTRACT: note_off channel=11 note=54 velocity=95 time=0
EXTRACT: note_on channel=11 note=51 velocity=95 time=0
EXTRACT: note_off channel=8 note=66 velocity=95 time=0
EXTRACT: note_off channel=6 note=39 velocity=111 time=0
EXTRACT: note_on channel=6 note=37 velocity=111 time=0
EXTRACT: note_off channel=9 note=42 velocity=95 time=0
EXTRACT: note_on channel=9 note=42 velocity=95 time=0
EXTRACT: note_on channel=9 note=38 velocity=95 time=0
EXTRACT: note_off channel=0 note=66 velocity=102 time=0.25
EXTRACT: note_on channel=0 note=68 velocity=102 time=0
EXTRACT: note_off channel=11 note=51 velocity=95 time=0
EXTRACT: note_on channel=11 note=49 velocity=95 time=0
EXTRACT: note_on channel=4 note=66 velocity=95 time=0
EXTRACT: note_on channel=4 note=63 velocity=95 time=0
EXTRACT: note_on channel=4 note=61 velocity=95 time=0
EXTRACT: note_on channel=4 note=58 velocity=95 time=0
EXTRACT: note_off channel=6 note=37 velocity=111 time=0
EXTRACT: note_on channel=6 note=42 velocity=111 time=0
EXTRACT: note_off channel=9 note=42 velocity=95 time=0
EXTRACT: note_off channel=9 note=38 velocity=95 time=0
EXTRACT: note_on channel=9 note=42 velocity=95 time=0
EXTRACT: note_off channel=11 note=49 velocity=95 time=0.125
EXTRACT: note_on channel=11 note=51 velocity=70 time=0
EXTRACT: note_off channel=11 note=51 velocity=70 time=0.125
EXTRACT: note_on channel=11 note=54 velocity=95 time=0
EXTRACT: note_off channel=4 note=66 velocity=95 time=0
EXTRACT: note_off channel=4 note=63 velocity=95 time=0
EXTRACT: note_off channel=4 note=61 velocity=95 time=0
EXTRACT: note_off channel=4 note=58 velocity=95 time=0
EXTRACT: note_off channel=6 note=42 velocity=111 time=0
EXTRACT: note_on channel=6 note=42 velocity=111 time=0
EXTRACT: note_off channel=9 note=42 velocity=95 time=0
EXTRACT: note_on channel=9 note=42 velocity=95 time=0
EXTRACT: note_on channel=9 note=35 velocity=95 time=0
EXTRACT: note_off channel=11 note=54 velocity=95 time=0.125
EXTRACT: note_on channel=11 note=54 velocity=95 time=0
EXTRACT: note_off channel=0 note=68 velocity=102 time=0.125
EXTRACT: note_on channel=0 note=66 velocity=127 time=0
EXTRACT: note_off channel=11 note=54 velocity=95 time=0
EXTRACT: note_on channel=11 note=51 velocity=95 time=0
EXTRACT: note_off channel=6 note=42 velocity=111 time=0
EXTRACT: note_on channel=6 note=39 velocity=111 time=0
EXTRACT: note_off channel=9 note=42 velocity=95 time=0
EXTRACT: note_off channel=9 note=35 velocity=95 time=0
EXTRACT: note_on channel=9 note=42 velocity=95 time=0
EXTRACT: note_off channel=0 note=66 velocity=127 time=0.25
EXTRACT: note_on channel=0 note=68 velocity=127 time=0
EXTRACT: note_off channel=11 note=51 velocity=95 time=0
EXTRACT: note_on channel=11 note=49 velocity=95 time=0
EXTRACT: note_off channel=6 note=39 velocity=111 time=0
EXTRACT: note_on channel=6 note=37 velocity=111 time=0
EXTRACT: note_off channel=9 note=42 velocity=95 time=0
EXTRACT: note_on channel=9 note=42 velocity=95 time=0
EXTRACT: note_on channel=9 note=38 velocity=95 time=0
EXTRACT: note_off channel=0 note=68 velocity=127 time=0.25
EXTRACT: note_on channel=0 note=70 velocity=127 time=0
EXTRACT: note_off channel=11 note=49 velocity=95 time=0
EXTRACT: note_on channel=11 note=51 velocity=95 time=0
EXTRACT: note_off channel=6 note=37 velocity=111 time=0
EXTRACT: note_on channel=6 note=39 velocity=111 time=0
EXTRACT: note_off channel=9 note=42 velocity=95 time=0
EXTRACT: note_off channel=9 note=38 velocity=95 time=0
EXTRACT: note_on channel=9 note=42 velocity=95 time=0
EXTRACT: note_off channel=0 note=70 velocity=127 time=0.25
EXTRACT: note_on channel=0 note=68 velocity=127 time=0
EXTRACT: note_off channel=11 note=51 velocity=95 time=0
EXTRACT: note_on channel=11 note=54 velocity=95 time=0
EXTRACT: note_off channel=6 note=39 velocity=111 time=0
EXTRACT: note_on channel=6 note=42 velocity=111 time=0
EXTRACT: note_off channel=9 note=42 velocity=95 time=0
EXTRACT: note_on channel=9 note=49 velocity=95 time=0
EXTRACT: note_on channel=9 note=35 velocity=95 time=0
EXTRACT: note_off channel=0 note=68 velocity=127 time=0.25
EXTRACT: note_on channel=0 note=66 velocity=102 time=0
EXTRACT: note_off channel=11 note=54 velocity=95 time=0
EXTRACT: note_on channel=11 note=54 velocity=95 time=0
EXTRACT: note_on channel=4 note=66 velocity=95 time=0
EXTRACT: note_on channel=4 note=63 velocity=95 time=0
EXTRACT: note_on channel=4 note=61 velocity=95 time=0
EXTRACT: note_on channel=4 note=58 velocity=95 time=0
EXTRACT: note_off channel=6 note=42 velocity=111 time=0
EXTRACT: note_on channel=6 note=39 velocity=111 time=0
EXTRACT: note_off channel=9 note=49 velocity=95 time=0
EXTRACT: note_off channel=9 note=35 velocity=95 time=0
EXTRACT: note_on channel=9 note=42 velocity=95 time=0
EXTRACT: note_off channel=11 note=54 velocity=95 time=0.125
EXTRACT: note_on channel=11 note=54 velocity=95 time=0
EXTRACT: note_off channel=0 note=66 velocity=102 time=0.125
EXTRACT: note_on channel=0 note=66 velocity=127 time=0
EXTRACT: note_off channel=11 note=54 velocity=95 time=0
EXTRACT: note_on channel=11 note=51 velocity=95 time=0
EXTRACT: note_off channel=4 note=66 velocity=95 time=0
EXTRACT: note_off channel=4 note=63 velocity=95 time=0
EXTRACT: note_off channel=4 note=61 velocity=95 time=0
EXTRACT: note_off channel=4 note=58 velocity=95 time=0
EXTRACT: note_off channel=6 note=39 velocity=111 time=0
EXTRACT: note_on channel=6 note=37 velocity=111 time=0
EXTRACT: note_off channel=9 note=42 velocity=95 time=0
EXTRACT: note_on channel=9 note=42 velocity=95 time=0
EXTRACT: note_on channel=9 note=38 velocity=95 time=0
EXTRACT: note_off channel=11 note=51 velocity=95 time=0.25
EXTRACT: note_on channel=11 note=49 velocity=95 time=0
EXTRACT: note_off channel=6 note=37 velocity=111 time=0
EXTRACT: note_on channel=6 note=42 velocity=111 time=0
EXTRACT: note_off channel=9 note=42 velocity=95 time=0
EXTRACT: note_off channel=9 note=38 velocity=95 time=0
EXTRACT: note_on channel=9 note=42 velocity=95 time=0
EXTRACT: note_off channel=11 note=49 velocity=95 time=0.125
EXTRACT: note_on channel=11 note=51 velocity=70 time=0
EXTRACT: note_off channel=0 note=66 velocity=127 time=0.125
EXTRACT: note_off channel=11 note=51 velocity=70 time=0
EXTRACT: note_on channel=11 note=54 velocity=95 time=0
EXTRACT: note_on channel=4 note=66 velocity=95 time=0
EXTRACT: note_on channel=4 note=63 velocity=95 time=0
EXTRACT: note_on channel=4 note=61 velocity=95 time=0
EXTRACT: note_on channel=4 note=58 velocity=95 time=0
EXTRACT: note_on channel=8 note=61 velocity=95 time=0
EXTRACT: note_off channel=6 note=42 velocity=111 time=0
EXTRACT: note_on channel=6 note=42 velocity=111 time=0
EXTRACT: note_off channel=9 note=42 velocity=95 time=0
EXTRACT: note_on channel=9 note=42 velocity=95 time=0
EXTRACT: note_on channel=9 note=35 velocity=95 time=0
EXTRACT: note_off channel=11 note=54 velocity=95 time=0.125
EXTRACT: note_on channel=11 note=54 velocity=95 time=0
EXTRACT: note_off channel=11 note=54 velocity=95 time=0.125
EXTRACT: note_on channel=11 note=51 velocity=95 time=0
EXTRACT: note_off channel=4 note=66 velocity=95 time=0
EXTRACT: note_off channel=4 note=63 velocity=95 time=0
EXTRACT: note_off channel=4 note=61 velocity=95 time=0
EXTRACT: note_off channel=4 note=58 velocity=95 time=0
EXTRACT: note_off channel=6 note=42 velocity=111 time=0
EXTRACT: note_on channel=6 note=39 velocity=111 time=0
EXTRACT: note_off channel=9 note=42 velocity=95 time=0
EXTRACT: note_off channel=9 note=35 velocity=95 time=0
EXTRACT: note_on channel=9 note=42 velocity=95 time=0
EXTRACT: note_off channel=11 note=51 velocity=95 time=0.25
EXTRACT: note_on channel=11 note=49 velocity=95 time=0
EXTRACT: note_off channel=8 note=61 velocity=95 time=0
EXTRACT: note_on channel=8 note=73 velocity=95 time=0
EXTRACT: note_off channel=6 note=39 velocity=111 time=0
EXTRACT: note_on channel=6 note=37 velocity=111 time=0
EXTRACT: note_off channel=9 note=42 velocity=95 time=0
EXTRACT: note_on channel=9 note=42 velocity=95 time=0
EXTRACT: note_on channel=9 note=38 velocity=95 time=0
EXTRACT: note_off channel=11 note=49 velocity=95 time=0.25
EXTRACT: note_on channel=11 note=51 velocity=95 time=0
EXTRACT: note_off channel=6 note=37 velocity=111 time=0
EXTRACT: note_on channel=6 note=39 velocity=111 time=0
EXTRACT: note_off channel=9 note=42 velocity=95 time=0
EXTRACT: note_off channel=9 note=38 velocity=95 time=0
EXTRACT: note_on channel=9 note=42 velocity=95 time=0
EXTRACT: note_on channel=0 note=70 velocity=127 time=0.25
EXTRACT: note_off channel=11 note=51 velocity=95 time=0
EXTRACT: note_on channel=11 note=54 velocity=95 time=0
EXTRACT: note_on channel=4 note=66 velocity=95 time=0
EXTRACT: note_on channel=4 note=63 velocity=95 time=0
EXTRACT: note_on channel=4 note=61 velocity=95 time=0
EXTRACT: note_on channel=4 note=58 velocity=95 time=0
EXTRACT: note_off channel=8 note=73 velocity=95 time=0
EXTRACT: note_on channel=8 note=70 velocity=95 time=0
EXTRACT: note_off channel=6 note=39 velocity=111 time=0
EXTRACT: note_on channel=6 note=42 velocity=111 time=0
EXTRACT: note_off channel=9 note=42 velocity=95 time=0
EXTRACT: note_on channel=9 note=42 velocity=95 time=0
EXTRACT: note_on channel=9 note=35 velocity=95 time=0
EXTRACT: note_off channel=11 note=54 velocity=95 time=0.25
EXTRACT: note_on channel=11 note=54 velocity=95 time=0
EXTRACT: note_off channel=4 note=66 velocity=95 time=0
EXTRACT: note_off channel=4 note=63 velocity=95 time=0
EXTRACT: note_off channel=4 note=61 velocity=95 time=0
EXTRACT: note_off channel=4 note=58 velocity=95 time=0
EXTRACT: note_off channel=6 note=42 velocity=111 time=0
EXTRACT: note_on channel=6 note=39 velocity=111 time=0
EXTRACT: note_off channel=9 note=42 velocity=95 time=0
EXTRACT: note_off channel=9 note=35 velocity=95 time=0
EXTRACT: note_on channel=9 note=42 velocity=95 time=0
EXTRACT: note_off channel=11 note=54 velocity=95 time=0.125
EXTRACT: note_on channel=11 note=54 velocity=95 time=0
EXTRACT: note_off channel=0 note=70 velocity=127 time=0.125
EXTRACT: note_on channel=0 note=71 velocity=127 time=0
EXTRACT: note_off channel=11 note=54 velocity=95 time=0
EXTRACT: note_on channel=11 note=51 velocity=95 time=0
EXTRACT: note_off channel=8 note=70 velocity=95 time=0
EXTRACT: note_on channel=8 note=66 velocity=95 time=0
EXTRACT: note_off channel=6 note=39 velocity=111 time=0
EXTRACT: note_on channel=6 note=37 velocity=111 time=0
EXTRACT: note_off channel=9 note=42 velocity=95 time=0
EXTRACT: note_on channel=9 note=42 velocity=95 time=0
EXTRACT: note_on channel=9 note=38 velocity=95 time=0
EXTRACT: note_off channel=11 note=51 velocity=95 time=0.25
EXTRACT: note_on channel=11 note=49 velocity=95 time=0
EXTRACT: note_on channel=4 note=66 velocity=95 time=0
EXTRACT: note_on channel=4 note=63 velocity=95 time=0
EXTRACT: note_on channel=4 note=61 velocity=95 time=0
EXTRACT: note_on channel=4 note=58 velocity=95 time=0
EXTRACT: note_off channel=6 note=37 velocity=111 time=0
EXTRACT: note_on channel=6 note=42 velocity=111 time=0
EXTRACT: note_off channel=9 note=42 velocity=95 time=0
EXTRACT: note_off channel=9 note=38 velocity=95 time=0
EXTRACT: note_on channel=9 note=42 velocity=95 time=0
EXTRACT: note_off channel=11 note=49 velocity=95 time=0.125
EXTRACT: note_on channel=11 note=51 velocity=70 time=0
EXTRACT: note_off channel=0 note=71 velocity=127 time=0.125
EXTRACT: note_on channel=0 note=70 velocity=127 time=0
EXTRACT: note_off channel=11 note=51 velocity=70 time=0
EXTRACT: note_on channel=11 note=54 velocity=95 time=0
EXTRACT: note_off channel=4 note=66 velocity=95 time=0
EXTRACT: note_off channel=4 note=63 velocity=95 time=0
EXTRACT: note_off channel=4 note=61 velocity=95 time=0
EXTRACT: note_off channel=4 note=58 velocity=95 time=0
EXTRACT: note_off channel=8 note=66 velocity=95 time=0
EXTRACT: note_on channel=8 note=68 velocity=95 time=0
EXTRACT: note_off channel=6 note=42 velocity=111 time=0
EXTRACT: note_on channel=6 note=42 velocity=111 time=0
EXTRACT: note_off channel=9 note=42 velocity=95 time=0
EXTRACT: note_on channel=9 note=42 velocity=95 time=0
EXTRACT: note_on channel=9 note=35 velocity=95 time=0
EXTRACT: note_off channel=11 note=54 velocity=95 time=0.125
EXTRACT: note_on channel=11 note=54 velocity=95 time=0
EXTRACT: note_off channel=0 note=70 velocity=127 time=0.125
EXTRACT: note_on channel=0 note=68 velocity=102 time=0
EXTRACT: note_off channel=11 note=54 velocity=95 time=0
EXTRACT: note_on channel=11 note=51 velocity=95 time=0
EXTRACT: note_off channel=6 note=42 velocity=111 time=0
EXTRACT: note_on channel=6 note=39 velocity=111 time=0
EXTRACT: note_off channel=9 note=42 velocity=95 time=0
EXTRACT: note_off channel=9 note=35 velocity=95 time=0
EXTRACT: note_on channel=9 note=42 velocity=95 time=0
EXTRACT: note_off channel=0 note=68 velocity=102 time=0.25
EXTRACT: note_on channel=0 note=66 velocity=127 time=0
EXTRACT: note_off channel=11 note=51 velocity=95 time=0
EXTRACT: note_on channel=11 note=49 velocity=95 time=0
EXTRACT: note_off channel=8 note=68 velocity=95 time=0
EXTRACT: note_off channel=6 note=39 velocity=111 time=0
EXTRACT: note_on channel=6 note=37 velocity=111 time=0
EXTRACT: note_off channel=9 note=42 velocity=95 time=0
EXTRACT: note_on channel=9 note=42 velocity=95 time=0
EXTRACT: note_on channel=9 note=38 velocity=95 time=0
EXTRACT: note_off channel=0 note=66 velocity=127 time=0.25
EXTRACT: note_on channel=0 note=68 velocity=127 time=0
EXTRACT: note_off channel=11 note=49 velocity=95 time=0
EXTRACT: note_on channel=11 note=51 velocity=95 time=0
EXTRACT: note_off channel=6 note=37 velocity=111 time=0
EXTRACT: note_on channel=6 note=39 velocity=111 time=0
EXTRACT: note_off channel=9 note=42 velocity=95 time=0
EXTRACT: note_off channel=9 note=38 velocity=95 time=0
EXTRACT: note_on channel=9 note=49 velocity=95 time=0
EXTRACT: note_on channel=9 note=35 velocity=95 time=0
EXTRACT: note_off channel=0 note=68 velocity=127 time=0.25
EXTRACT: note_on channel=0 note=66 velocity=102 time=0
EXTRACT: note_off channel=11 note=51 velocity=95 time=0
EXTRACT: note_on channel=11 note=56 velocity=95 time=0
EXTRACT: note_on channel=4 note=68 velocity=95 time=0
EXTRACT: note_on channel=4 note=66 velocity=95 time=0
EXTRACT: note_on channel=4 note=63 velocity=95 time=0
EXTRACT: note_on channel=4 note=59 velocity=95 time=0
EXTRACT: note_off channel=6 note=39 velocity=111 time=0
EXTRACT: note_on channel=6 note=44 velocity=111 time=0
EXTRACT: note_off channel=9 note=49 velocity=95 time=0
EXTRACT: note_off channel=9 note=35 velocity=95 time=0
EXTRACT: note_on channel=9 note=49 velocity=95 time=0
EXTRACT: note_on channel=9 note=35 velocity=95 time=0
EXTRACT: note_off channel=11 note=56 velocity=95 time=0.25
EXTRACT: note_on channel=11 note=56 velocity=95 time=0
EXTRACT: note_off channel=4 note=68 velocity=95 time=0
EXTRACT: note_off channel=4 note=66 velocity=95 time=0
EXTRACT: note_off channel=4 note=63 velocity=95 time=0
EXTRACT: note_off channel=4 note=59 velocity=95 time=0
EXTRACT: note_off channel=6 note=44 velocity=111 time=0
EXTRACT: note_on channel=6 note=44 velocity=111 time=0
EXTRACT: note_off channel=9 note=49 velocity=95 time=0
EXTRACT: note_off channel=9 note=35 velocity=95 time=0
EXTRACT: note_on channel=9 note=42 velocity=95 time=0
EXTRACT: note_off channel=11 note=56 velocity=95 time=0.125
EXTRACT: note_on channel=11 note=56 velocity=95 time=0
EXTRACT: note_off channel=0 note=66 velocity=102 time=0.125
EXTRACT: note_off channel=11 note=56 velocity=95 time=0
EXTRACT: note_on channel=11 note=56 velocity=95 time=0
EXTRACT: note_off channel=6 note=44 velocity=111 time=0
EXTRACT: note_on channel=6 note=44 velocity=111 time=0
EXTRACT: note_off channel=9 note=42 velocity=95 time=0
EXTRACT: note_on channel=9 note=42 velocity=95 time=0
EXTRACT: note_on channel=9 note=38 velocity=95 time=0
EXTRACT: note_off channel=11 note=56 velocity=95 time=0.25
EXTRACT: note_on channel=11 note=56 velocity=95 time=0
EXTRACT: note_on channel=4 note=68 velocity=95 time=0
EXTRACT: note_on channel=4 note=66 velocity=95 time=0
EXTRACT: note_on channel=4 note=63 velocity=95 time=0
EXTRACT: note_on channel=4 note=59 velocity=95 time=0
EXTRACT: note_off channel=6 note=44 velocity=111 time=0
EXTRACT: note_on channel=6 note=44 velocity=111 time=0
EXTRACT: note_off channel=9 note=42 velocity=95 time=0
EXTRACT: note_off channel=9 note=38 velocity=95 time=0
EXTRACT: note_on channel=9 note=42 velocity=95 time=0
EXTRACT: note_off channel=11 note=56 velocity=95 time=0.125
EXTRACT: note_on channel=11 note=56 velocity=95 time=0
EXTRACT: note_off channel=11 note=56 velocity=95 time=0.125
EXTRACT: note_on channel=11 note=56 velocity=95 time=0
EXTRACT: note_off channel=4 note=68 velocity=95 time=0
EXTRACT: note_off channel=4 note=66 velocity=95 time=0
EXTRACT: note_off channel=4 note=63 velocity=95 time=0
EXTRACT: note_off channel=4 note=59 velocity=95 time=0
EXTRACT: note_off channel=6 note=44 velocity=111 time=0
EXTRACT: note_on channel=6 note=44 velocity=111 time=0
EXTRACT: note_off channel=9 note=42 velocity=95 time=0
EXTRACT: note_on channel=9 note=42 velocity=95 time=0
EXTRACT: note_on channel=9 note=35 velocity=95 time=0
EXTRACT: note_off channel=11 note=56 velocity=95 time=0.125
EXTRACT: note_on channel=11 note=56 velocity=95 time=0
EXTRACT: note_off channel=11 note=56 velocity=95 time=0.125
EXTRACT: note_on channel=11 note=56 velocity=95 time=0
EXTRACT: note_off channel=6 note=44 velocity=111 time=0
EXTRACT: note_on channel=6 note=44 velocity=111 time=0
EXTRACT: note_off channel=9 note=42 velocity=95 time=0
EXTRACT: note_off channel=9 note=35 velocity=95 time=0
EXTRACT: note_on channel=9 note=42 velocity=95 time=0
EXTRACT: note_off channel=11 note=56 velocity=95 time=0.25
EXTRACT: note_on channel=11 note=56 velocity=95 time=0
EXTRACT: note_off channel=6 note=44 velocity=111 time=0
EXTRACT: note_on channel=6 note=42 velocity=111 time=0
EXTRACT: note_off channel=9 note=42 velocity=95 time=0
EXTRACT: note_on channel=9 note=42 velocity=95 time=0
EXTRACT: note_on channel=9 note=38 velocity=95 time=0
EXTRACT: note_on channel=0 note=61 velocity=127 time=0.25
EXTRACT: note_off channel=11 note=56 velocity=95 time=0
EXTRACT: note_on channel=11 note=56 velocity=95 time=0
EXTRACT: note_off channel=6 note=42 velocity=111 time=0
EXTRACT: note_on channel=6 note=44 velocity=111 time=0
EXTRACT: note_off channel=9 note=42 velocity=95 time=0
EXTRACT: note_off channel=9 note=38 velocity=95 time=0
EXTRACT: note_on channel=9 note=42 velocity=95 time=0
EXTRACT: note_off channel=0 note=61 velocity=127 time=0.125
EXTRACT: note_on channel=0 note=63 velocity=127 time=0
EXTRACT: note_off channel=0 note=63 velocity=127 time=0.125
EXTRACT: note_on channel=0 note=66 velocity=127 time=0
EXTRACT: note_off channel=11 note=56 velocity=95 time=0
EXTRACT: note_on channel=11 note=56 velocity=95 time=0
EXTRACT: note_on channel=4 note=68 velocity=95 time=0
EXTRACT: note_on channel=4 note=66 velocity=95 time=0
EXTRACT: note_on channel=4 note=63 velocity=95 time=0
EXTRACT: note_on channel=4 note=59 velocity=95 time=0
EXTRACT: note_off channel=6 note=44 velocity=111 time=0
EXTRACT: note_on channel=6 note=32 velocity=111 time=0
EXTRACT: note_off channel=9 note=42 velocity=95 time=0
EXTRACT: note_on channel=9 note=42 velocity=95 time=0
EXTRACT: note_on channel=9 note=35 velocity=95 time=0
EXTRACT: note_off channel=0 note=66 velocity=127 time=0.25
EXTRACT: note_on channel=0 note=63 velocity=127 time=0
EXTRACT: note_off channel=11 note=56 velocity=95 time=0
EXTRACT: note_on channel=11 note=56 velocity=95 time=0
EXTRACT: note_off channel=4 note=68 velocity=95 time=0
EXTRACT: note_off channel=4 note=66 velocity=95 time=0
EXTRACT: note_off channel=4 note=63 velocity=95 time=0
EXTRACT: note_off channel=4 note=59 velocity=95 time=0
EXTRACT: note_off channel=6 note=32 velocity=111 time=0
EXTRACT: note_on channel=6 note=32 velocity=111 time=0
EXTRACT: note_off channel=9 note=42 velocity=95 time=0
EXTRACT: note_off channel=9 note=35 velocity=95 time=0
EXTRACT: note_on channel=9 note=42 velocity=95 time=0
EXTRACT: note_off channel=11 note=56 velocity=95 time=0.125
EXTRACT: note_on channel=11 note=56 velocity=95 time=0
EXTRACT: note_off channel=11 note=56 velocity=95 time=0.125
EXTRACT: note_on channel=11 note=56 velocity=95 time=0
EXTRACT: note_on channel=8 note=61 velocity=95 time=0
EXTRACT: note_off channel=6 note=32 velocity=111 time=0
EXTRACT: note_on channel=6 note=32 velocity=111 time=0
EXTRACT: note_off channel=9 note=42 velocity=95 time=0
EXTRACT: note_on channel=9 note=42 velocity=95 time=0
EXTRACT: note_on channel=9 note=38 velocity=95 time=0
EXTRACT: note_off channel=11 note=56 velocity=95 time=0.25
EXTRACT: note_on channel=11 note=56 velocity=95 time=0
EXTRACT: note_on channel=4 note=68 velocity=95 time=0
EXTRACT: note_on channel=4 note=66 velocity=95 time=0
EXTRACT: note_on channel=4 note=63 velocity=95 time=0
EXTRACT: note_on channel=4 note=59 velocity=95 time=0
EXTRACT: note_off channel=6 note=32 velocity=111 time=0
EXTRACT: note_on channel=6 note=32 velocity=111 time=0
EXTRACT: note_off channel=9 note=42 velocity=95 time=0
EXTRACT: note_off channel=9 note=38 velocity=95 time=0
EXTRACT: note_on channel=9 note=42 velocity=95 time=0
EXTRACT: note_off channel=11 note=56 velocity=95 time=0.125
EXTRACT: note_on channel=11 note=56 velocity=95 time=0
EXTRACT: note_off channel=0 note=63 velocity=127 time=0.125
EXTRACT: note_off channel=11 note=56 velocity=95 time=0
EXTRACT: note_on channel=11 note=56 velocity=95 time=0
EXTRACT: note_off channel=4 note=68 velocity=95 time=0
EXTRACT: note_off channel=4 note=66 velocity=95 time=0
EXTRACT: note_off channel=4 note=63 velocity=95 time=0
EXTRACT: note_off channel=4 note=59 velocity=95 time=0
EXTRACT: note_off channel=8 note=61 velocity=95 time=0
EXTRACT: note_on channel=8 note=73 velocity=95 time=0
EXTRACT: note_off channel=6 note=32 velocity=111 time=0
EXTRACT: note_on channel=6 note=32 velocity=111 time=0
EXTRACT: note_off channel=9 note=42 velocity=95 time=0
EXTRACT: note_on channel=9 note=42 velocity=95 time=0
EXTRACT: note_on channel=9 note=35 velocity=95 time=0
EXTRACT: note_off channel=11 note=56 velocity=95 time=0.125
EXTRACT: note_on channel=11 note=56 velocity=95 time=0
EXTRACT: note_off channel=11 note=56 velocity=95 time=0.125
EXTRACT: note_on channel=11 note=56 velocity=95 time=0
EXTRACT: note_off channel=6 note=32 velocity=111 time=0
EXTRACT: note_on channel=6 note=32 velocity=111 time=0
EXTRACT: note_off channel=9 note=42 velocity=95 time=0
EXTRACT: note_off channel=9 note=35 velocity=95 time=0
EXTRACT: note_on channel=9 note=42 velocity=95 time=0
EXTRACT: note_off channel=11 note=56 velocity=95 time=0.25
EXTRACT: note_on channel=11 note=56 velocity=95 time=0
EXTRACT: note_off channel=8 note=73 velocity=95 time=0
EXTRACT: note_on channel=8 note=70 velocity=95 time=0
EXTRACT: note_off channel=6 note=32 velocity=111 time=0
EXTRACT: note_on channel=6 note=32 velocity=111 time=0
EXTRACT: note_off channel=9 note=42 velocity=95 time=0
EXTRACT: note_on channel=9 note=42 velocity=95 time=0
EXTRACT: note_on channel=9 note=38 velocity=95 time=0
EXTRACT: note_on channel=0 note=61 velocity=127 time=0.25
EXTRACT: note_off channel=11 note=56 velocity=95 time=0
EXTRACT: note_on channel=11 note=56 velocity=95 time=0
EXTRACT: note_off channel=6 note=32 velocity=111 time=0
EXTRACT: note_on channel=6 note=37 velocity=111 time=0
EXTRACT: note_off channel=9 note=42 velocity=95 time=0
EXTRACT: note_off channel=9 note=38 velocity=95 time=0
EXTRACT: note_on channel=9 note=42 velocity=95 time=0
EXTRACT: note_off channel=0 note=61 velocity=127 time=0.125
EXTRACT: note_on channel=0 note=63 velocity=127 time=0
EXTRACT: note_off channel=9 note=42 velocity=95 time=0
EXTRACT: note_on channel=9 note=38 velocity=95 time=0
EXTRACT: note_off channel=0 note=63 velocity=127 time=0.125
EXTRACT: note_on channel=0 note=66 velocity=127 time=0
EXTRACT: note_off channel=11 note=56 velocity=95 time=0
EXTRACT: note_on channel=11 note=54 velocity=95 time=0
EXTRACT: note_off channel=8 note=70 velocity=95 time=0
EXTRACT: note_off channel=6 note=37 velocity=111 time=0
EXTRACT: note_on channel=6 note=42 velocity=111 time=0
EXTRACT: note_off channel=9 note=38 velocity=95 time=0
EXTRACT: note_on channel=9 note=49 velocity=95 time=0
EXTRACT: note_on channel=9 note=35 velocity=95 time=0
EXTRACT: note_off channel=0 note=66 velocity=127 time=0.25
EXTRACT: note_on channel=0 note=63 velocity=127 time=0
EXTRACT: note_off channel=11 note=54 velocity=95 time=0
EXTRACT: note_on channel=11 note=54 velocity=95 time=0
EXTRACT: note_on channel=4 note=66 velocity=95 time=0
EXTRACT: note_on channel=4 note=63 velocity=95 time=0
EXTRACT: note_on channel=4 note=61 velocity=95 time=0
EXTRACT: note_on channel=4 note=58 velocity=95 time=0
EXTRACT: note_off channel=6 note=42 velocity=111 time=0
EXTRACT: note_on channel=6 note=39 velocity=111 time=0
EXTRACT: note_off channel=9 note=49 velocity=95 time=0
EXTRACT: note_off channel=9 note=35 velocity=95 time=0
EXTRACT: note_on channel=9 note=42 velocity=95 time=0
EXTRACT: note_off channel=11 note=54 velocity=95 time=0.125
EXTRACT: note_on channel=11 note=54 velocity=95 time=0
EXTRACT: note_off channel=11 note=54 velocity=95 time=0.125
EXTRACT: note_on channel=11 note=51 velocity=95 time=0
EXTRACT: note_off channel=4 note=66 velocity=95 time=0
EXTRACT: note_off channel=4 note=63 velocity=95 time=0
EXTRACT: note_off channel=4 note=61 velocity=95 time=0
EXTRACT: note_off channel=4 note=58 velocity=95 time=0
EXTRACT: note_off channel=6 note=39 velocity=111 time=0
EXTRACT: note_on channel=6 note=37 velocity=111 time=0
EXTRACT: note_off channel=9 note=42 velocity=95 time=0
EXTRACT: note_on channel=9 note=42 velocity=95 time=0
EXTRACT: note_on channel=9 note=38 velocity=95 time=0
EXTRACT: note_off channel=11 note=51 velocity=95 time=0.25
EXTRACT: note_on channel=11 note=49 velocity=95 time=0
EXTRACT: note_off channel=6 note=37 velocity=111 time=0
EXTRACT: note_on channel=6 note=42 velocity=111 time=0
EXTRACT: note_off channel=9 note=42 velocity=95 time=0
EXTRACT: note_off channel=9 note=38 velocity=95 time=0
EXTRACT: note_on channel=9 note=42 velocity=95 time=0
EXTRACT: note_off channel=11 note=49 velocity=95 time=0.125
EXTRACT: note_on channel=11 note=51 velocity=70 time=0
EXTRACT: note_off channel=0 note=63 velocity=127 time=0.125
EXTRACT: note_off channel=11 note=51 velocity=70 time=0
EXTRACT: note_on channel=11 note=54 velocity=95 time=0
EXTRACT: note_on channel=4 note=66 velocity=95 time=0
EXTRACT: note_on channel=4 note=63 velocity=95 time=0
EXTRACT: note_on channel=4 note=61 velocity=95 time=0
EXTRACT: note_on channel=4 note=58 velocity=95 time=0
EXTRACT: note_off channel=6 note=42 velocity=111 time=0
EXTRACT: note_on channel=6 note=42 velocity=111 time=0
EXTRACT: note_off channel=9 note=42 velocity=95 time=0
EXTRACT: note_on channel=9 note=42 velocity=95 time=0
EXTRACT: note_on channel=9 note=35 velocity=95 time=0
EXTRACT: note_off channel=11 note=54 velocity=95 time=0.125
EXTRACT: note_on channel=11 note=54 velocity=95 time=0
EXTRACT: note_off channel=11 note=54 velocity=95 time=0.125
EXTRACT: note_on channel=11 note=51 velocity=95 time=0
EXTRACT: note_off channel=4 note=66 velocity=95 time=0
EXTRACT: note_off channel=4 note=63 velocity=95 time=0
EXTRACT: note_off channel=4 note=61 velocity=95 time=0
EXTRACT: note_off channel=4 note=58 velocity=95 time=0
EXTRACT: note_off channel=6 note=42 velocity=111 time=0
EXTRACT: note_on channel=6 note=39 velocity=111 time=0
EXTRACT: note_off channel=9 note=42 velocity=95 time=0
EXTRACT: note_off channel=9 note=35 velocity=95 time=0
EXTRACT: note_on channel=9 note=42 velocity=95 time=0
EXTRACT: note_off channel=11 note=51 velocity=95 time=0.25
EXTRACT: note_on channel=11 note=49 velocity=95 time=0
EXTRACT: note_off channel=6 note=39 velocity=111 time=0
EXTRACT: note_on channel=6 note=37 velocity=111 time=0
EXTRACT: note_off channel=9 note=42 velocity=95 time=0
EXTRACT: note_on channel=9 note=42 velocity=95 time=0
EXTRACT: note_on channel=9 note=38 velocity=95 time=0
EXTRACT: note_on channel=0 note=61 velocity=127 time=0.25
EXTRACT: note_off channel=11 note=49 velocity=95 time=0
EXTRACT: note_on channel=11 note=51 velocity=95 time=0
EXTRACT: note_off channel=6 note=37 velocity=111 time=0
EXTRACT: note_on channel=6 note=39 velocity=111 time=0
EXTRACT: note_off channel=9 note=42 velocity=95 time=0
EXTRACT: note_off channel=9 note=38 velocity=95 time=0
EXTRACT: note_on channel=9 note=42 velocity=95 time=0
EXTRACT: note_off channel=0 note=61 velocity=127 time=0.125
EXTRACT: note_on channel=0 note=63 velocity=127 time=0
EXTRACT: note_off channel=0 note=63 velocity=127 time=0.125
EXTRACT: note_on channel=0 note=66 velocity=127 time=0
EXTRACT: note_off channel=11 note=51 velocity=95 time=0
EXTRACT: note_on channel=11 note=54 velocity=95 time=0
EXTRACT: note_on channel=4 note=66 velocity=95 time=0
EXTRACT: note_on channel=4 note=63 velocity=95 time=0
EXTRACT: note_on channel=4 note=61 velocity=95 time=0
EXTRACT: note_on channel=4 note=58 velocity=95 time=0
EXTRACT: note_off channel=6 note=39 velocity=111 time=0
EXTRACT: note_on channel=6 note=42 velocity=111 time=0
EXTRACT: note_off channel=9 note=42 velocity=95 time=0
EXTRACT: note_on channel=9 note=42 velocity=95 time=0
EXTRACT: note_on channel=9 note=35 velocity=95 time=0
EXTRACT: note_off channel=0 note=66 velocity=127 time=0.25
EXTRACT: note_on channel=0 note=63 velocity=127 time=0
EXTRACT: note_off channel=11 note=54 velocity=95 time=0
EXTRACT: note_on channel=11 note=54 velocity=95 time=0
EXTRACT: note_off channel=4 note=66 velocity=95 time=0
EXTRACT: note_off channel=4 note=63 velocity=95 time=0
EXTRACT: note_off channel=4 note=61 velocity=95 time=0
EXTRACT: note_off channel=4 note=58 velocity=95 time=0
EXTRACT: note_off channel=6 note=42 velocity=111 time=0
EXTRACT: note_on channel=6 note=39 velocity=111 time=0
EXTRACT: note_off channel=9 note=42 velocity=95 time=0
EXTRACT: note_off channel=9 note=35 velocity=95 time=0
EXTRACT: note_on channel=9 note=42 velocity=95 time=0
EXTRACT: note_off channel=11 note=54 velocity=95 time=0.125
EXTRACT: note_on channel=11 note=54 velocity=95 time=0
EXTRACT: note_off channel=11 note=54 velocity=95 time=0.125
EXTRACT: note_on channel=11 note=51 velocity=95 time=0
EXTRACT: note_off channel=6 note=39 velocity=111 time=0
EXTRACT: note_on channel=6 note=37 velocity=111 time=0
EXTRACT: note_off channel=9 note=42 velocity=95 time=0
EXTRACT: note_on channel=9 note=42 velocity=95 time=0
EXTRACT: note_on channel=9 note=38 velocity=95 time=0
EXTRACT: note_off channel=11 note=51 velocity=95 time=0.25
EXTRACT: note_on channel=11 note=49 velocity=95 time=0
EXTRACT: note_on channel=4 note=66 velocity=95 time=0
EXTRACT: note_on channel=4 note=63 velocity=95 time=0
EXTRACT: note_on channel=4 note=61 velocity=95 time=0
EXTRACT: note_on channel=4 note=58 velocity=95 time=0
EXTRACT: note_off channel=6 note=37 velocity=111 time=0
EXTRACT: note_on channel=6 note=42 velocity=111 time=0
EXTRACT: note_off channel=9 note=42 velocity=95 time=0
EXTRACT: note_off channel=9 note=38 velocity=95 time=0
EXTRACT: note_on channel=9 note=42 velocity=95 time=0
EXTRACT: note_off channel=11 note=49 velocity=95 time=0.125
EXTRACT: note_on channel=11 note=51 velocity=70 time=0
EXTRACT: note_off channel=0 note=63 velocity=127 time=0.125
EXTRACT: note_off channel=11 note=51 velocity=70 time=0
EXTRACT: note_on channel=11 note=54 velocity=95 time=0
EXTRACT: note_off channel=4 note=66 velocity=95 time=0
EXTRACT: note_off channel=4 note=63 velocity=95 time=0
EXTRACT: note_off channel=4 note=61 velocity=95 time=0
EXTRACT: note_off channel=4 note=58 velocity=95 time=0
EXTRACT: note_off channel=6 note=42 velocity=111 time=0
EXTRACT: note_on channel=6 note=42 velocity=111 time=0
EXTRACT: note_off channel=9 note=42 velocity=95 time=0
EXTRACT: note_on channel=9 note=42 velocity=95 time=0
EXTRACT: note_on channel=9 note=35 velocity=95 time=0
EXTRACT: note_off channel=11 note=54 velocity=95 time=0.125
EXTRACT: note_on channel=11 note=54 velocity=95 time=0
EXTRACT: note_off channel=11 note=54 velocity=95 time=0.125
EXTRACT: note_on channel=11 note=51 velocity=95 time=0
EXTRACT: note_off channel=6 note=42 velocity=111 time=0
EXTRACT: note_on channel=6 note=39 velocity=111 time=0
EXTRACT: note_off channel=9 note=42 velocity=95 time=0
EXTRACT: note_off channel=9 note=35 velocity=95 time=0
EXTRACT: note_on channel=9 note=42 velocity=95 time=0
EXTRACT: note_on channel=0 note=68 velocity=127 time=0.25
EXTRACT: note_off channel=11 note=51 velocity=95 time=0
EXTRACT: note_on channel=11 note=49 velocity=95 time=0
EXTRACT: note_off channel=6 note=39 velocity=111 time=0
EXTRACT: note_on channel=6 note=37 velocity=111 time=0
EXTRACT: note_off channel=9 note=42 velocity=95 time=0
EXTRACT: note_on channel=9 note=42 velocity=95 time=0
EXTRACT: note_on channel=9 note=38 velocity=95 time=0
EXTRACT: note_off channel=11 note=49 velocity=95 time=0.25
EXTRACT: note_on channel=11 note=51 velocity=95 time=0
EXTRACT: note_off channel=6 note=37 velocity=111 time=0
EXTRACT: note_on channel=6 note=39 velocity=111 time=0
EXTRACT: note_off channel=9 note=42 velocity=95 time=0
EXTRACT: note_off channel=9 note=38 velocity=95 time=0
EXTRACT: note_on channel=9 note=42 velocity=95 time=0
EXTRACT: note_off channel=0 note=68 velocity=127 time=0.25
EXTRACT: note_off channel=11 note=51 velocity=95 time=0
EXTRACT: note_off channel=6 note=39 velocity=111 time=0
EXTRACT: note_off channel=9 note=42 velocity=95 time=0
INTERVALS104 - Madonna_-_Like_A_Virgin(1).mid
unison70
2m17
2M151
3m10
3M39
4m18
4M0
5m10
5M3
6m10
7m2
7M0