EXTRACT: note_off channel=0 note=81 velocity=0 time=0
EXTRACT: note_off channel=0 note=79 velocity=0 time=0.0007812499999999999
EXTRACT: note_off channel=0 note=61 velocity=0 time=0.0007812499999999999
EXTRACT: note_off channel=0 note=62 velocity=0 time=0.0007812499999999999
EXTRACT: note_off channel=0 note=61 velocity=0 time=0.0007812499999999999
EXTRACT: note_off channel=0 note=83 velocity=0 time=0.0007812499999999999
EXTRACT: note_off channel=0 note=67 velocity=0 time=0.0007812499999999999
EXTRACT: note_off channel=0 note=71 velocity=0 time=0.0007812499999999999
EXTRACT: note_off channel=0 note=61 velocity=0 time=0.0007812499999999999
EXTRACT: note_off channel=0 note=81 velocity=0 time=0.0007812499999999999
EXTRACT: sysex data=(126,127,9,1) time=0.0007812499999999999
EXTRACT: note_off channel=0 note=76 velocity=0 time=0
EXTRACT: note_off channel=0 note=61 velocity=0 time=0.0007812499999999999
EXTRACT: note_off channel=0 note=61 velocity=0 time=0.0007812499999999999
EXTRACT: note_off channel=0 note=79 velocity=0 time=0.0007812499999999999
EXTRACT: note_off channel=0 note=69 velocity=0 time=0.0007812499999999999
EXTRACT: note_off channel=0 note=69 velocity=0 time=0.0007812499999999999
EXTRACT: sysex data=(65,16,66,18,64,0,127,0,65) time=0.007031249999999999
EXTRACT: sysex data=(65,16,66,18,64,1,16,2,0,1,3,2,2,2,2,2,2,1,1,1,1,1,1,23) time=0.01875
EXTRACT: sysex data=(65,16,66,18,64,1,51,90,50) time=0.01875
EXTRACT: sysex data=(65,16,66,18,64,1,58,90,43) time=0.031249999999999997
EXTRACT: control_change channel=1 control=121 value=0 time=0.165625
EXTRACT: control_change channel=2 control=121 value=0 time=0.0031249999999999997
EXTRACT: control_change channel=3 control=121 value=0 time=0.0031249999999999997
EXTRACT: control_change channel=4 control=121 value=0 time=0.0031249999999999997
EXTRACT: control_change channel=5 control=121 value=0 time=0.0031249999999999997
EXTRACT: control_change channel=6 control=121 value=0 time=0.0031249999999999997
EXTRACT: control_change channel=9 control=121 value=0 time=0.009375
EXTRACT: control_change channel=11 control=121 value=0 time=0.0031249999999999997
EXTRACT: control_change channel=12 control=121 value=0 time=0.0062499999999999995
EXTRACT: note_off channel=0 note=81 velocity=0 time=0.00234375
EXTRACT: control_change channel=13 control=121 value=0 time=0.0007812499999999999
EXTRACT: control_change channel=14 control=121 value=0 time=0.0031249999999999997
EXTRACT: control_change channel=15 control=121 value=0 time=0.0031249999999999997
EXTRACT: control_change channel=0 control=0 value=0 time=0.0031249999999999997
EXTRACT: note_off channel=0 note=79 velocity=0 time=0.00234375
EXTRACT: control_change channel=0 control=32 value=0 time=0.0007812499999999999
EXTRACT: program_change channel=0 program=0 time=0.0031249999999999997
EXTRACT: control_change channel=1 control=0 value=0 time=0.009375
EXTRACT: control_change channel=1 control=32 value=0 time=0.0031249999999999997
EXTRACT: program_change channel=1 program=38 time=0.0031249999999999997
EXTRACT: control_change channel=1 control=7 value=100 time=0.0031249999999999997
EXTRACT: control_change channel=1 control=10 value=64 time=0
EXTRACT: control_change channel=1 control=11 value=127 time=0
EXTRACT: control_change channel=1 control=91 value=70 time=0.0031249999999999997
EXTRACT: control_change channel=1 control=93 value=5 time=0
EXTRACT: control_change channel=2 control=0 value=0 time=0.0031249999999999997
EXTRACT: control_change channel=2 control=32 value=0 time=0.0031249999999999997
EXTRACT: program_change channel=2 program=63 time=0.0031249999999999997
EXTRACT: control_change channel=2 control=7 value=100 time=0.0031249999999999997
EXTRACT: control_change channel=2 control=10 value=64 time=0
EXTRACT: control_change channel=2 control=11 value=127 time=0
EXTRACT: control_change channel=2 control=91 value=85 time=0.0031249999999999997
EXTRACT: control_change channel=2 control=93 value=10 time=0
EXTRACT: control_change channel=3 control=0 value=0 time=0.0031249999999999997
EXTRACT: control_change channel=3 control=32 value=0 time=0.0031249999999999997
EXTRACT: program_change channel=3 program=88 time=0.0031249999999999997
EXTRACT: control_change channel=3 control=7 value=100 time=0.0031249999999999997
EXTRACT: control_change channel=3 control=10 value=64 time=0
EXTRACT: control_change channel=3 control=11 value=127 time=0
EXTRACT: control_change channel=3 control=91 value=95 time=0.0031249999999999997
EXTRACT: control_change channel=3 control=93 value=0 time=0
EXTRACT: control_change channel=4 control=0 value=0 time=0.0031249999999999997
EXTRACT: control_change channel=4 control=32 value=0 time=0.0031249999999999997
EXTRACT: program_change channel=4 program=62 time=0.0031249999999999997
EXTRACT: control_change channel=4 control=7 value=100 time=0.0031249999999999997
EXTRACT: control_change channel=4 control=10 value=64 time=0
EXTRACT: control_change channel=4 control=11 value=127 time=0
EXTRACT: control_change channel=4 control=91 value=105 time=0.0031249999999999997
EXTRACT: control_change channel=4 control=93 value=10 time=0
EXTRACT: control_change channel=5 control=0 value=0 time=0.0031249999999999997
EXTRACT: control_change channel=5 control=32 value=0 time=0.0031249999999999997
EXTRACT: program_change channel=5 program=27 time=0.0031249999999999997
EXTRACT: control_change channel=5 control=7 value=100 time=0.0031249999999999997
EXTRACT: control_change channel=5 control=10 value=44 time=0
EXTRACT: control_change channel=5 control=11 value=127 time=0
EXTRACT: control_change channel=5 control=91 value=110 time=0.0031249999999999997
EXTRACT: control_change channel=5 control=93 value=10 time=0
EXTRACT: control_change channel=6 control=0 value=0 time=0.0031249999999999997
EXTRACT: control_change channel=6 control=32 value=0 time=0.0031249999999999997
EXTRACT: program_change channel=6 program=29 time=0.0031249999999999997
EXTRACT: control_change channel=6 control=7 value=100 time=0.0031249999999999997
EXTRACT: control_change channel=6 control=10 value=64 time=0
EXTRACT: control_change channel=6 control=11 value=127 time=0
EXTRACT: control_change channel=6 control=91 value=101 time=0.0031249999999999997
EXTRACT: control_change channel=6 control=93 value=85 time=0
EXTRACT: control_change channel=7 control=0 value=0 time=0.0031249999999999997
EXTRACT: control_change channel=7 control=32 value=0 time=0.0031249999999999997
EXTRACT: program_change channel=7 program=0 time=0.0031249999999999997
EXTRACT: note_off channel=0 note=61 velocity=0 time=0.00546875
EXTRACT: control_change channel=8 control=0 value=0 time=0.0039062499999999996
EXTRACT: control_change channel=8 control=32 value=0 time=0.0031249999999999997
EXTRACT: program_change channel=8 program=0 time=0.0031249999999999997
EXTRACT: control_change channel=9 control=0 value=0 time=0.009375
EXTRACT: control_change channel=9 control=32 value=0 time=0.0031249999999999997
EXTRACT: program_change channel=9 program=0 time=0.0031249999999999997
EXTRACT: control_change channel=9 control=7 value=100 time=0.0031249999999999997
EXTRACT: control_change channel=9 control=10 value=64 time=0
EXTRACT: control_change channel=9 control=11 value=127 time=0
EXTRACT: control_change channel=9 control=91 value=95 time=0.0031249999999999997
EXTRACT: control_change channel=9 control=93 value=5 time=0
EXTRACT: control_change channel=10 control=0 value=0 time=0.0031249999999999997
EXTRACT: control_change channel=10 control=32 value=0 time=0.0031249999999999997
EXTRACT: program_change channel=10 program=0 time=0.0031249999999999997
EXTRACT: control_change channel=11 control=0 value=0 time=0.009375
EXTRACT: control_change channel=11 control=32 value=0 time=0.0031249999999999997
EXTRACT: program_change channel=11 program=53 time=0.0031249999999999997
EXTRACT: control_change channel=11 control=10 value=0 time=0.008593749999999999
EXTRACT: control_change channel=11 control=7 value=100 time=0.0007812499999999999
EXTRACT: control_change channel=12 control=0 value=0 time=0
EXTRACT: control_change channel=11 control=11 value=127 time=0.00234375
EXTRACT: control_change channel=11 control=91 value=110 time=0
EXTRACT: control_change channel=12 control=32 value=0 time=0.0007812499999999999
EXTRACT: control_change channel=11 control=93 value=50 time=0.0007812499999999999
EXTRACT: program_change channel=12 program=53 time=0.00234375
EXTRACT: control_change channel=12 control=7 value=100 time=0.0031249999999999997
EXTRACT: control_change channel=12 control=10 value=64 time=0
EXTRACT: control_change channel=12 control=11 value=127 time=0
EXTRACT: control_change channel=12 control=91 value=105 time=0.0031249999999999997
EXTRACT: control_change channel=12 control=93 value=55 time=0
EXTRACT: control_change channel=13 control=0 value=0 time=0.0031249999999999997
EXTRACT: control_change channel=13 control=32 value=0 time=0.0031249999999999997
EXTRACT: program_change channel=13 program=53 time=0.0031249999999999997
EXTRACT: control_change channel=13 control=7 value=111 time=0.0031249999999999997
EXTRACT: control_change channel=13 control=10 value=127 time=0
EXTRACT: control_change channel=13 control=11 value=127 time=0
EXTRACT: control_change channel=13 control=91 value=105 time=0.0031249999999999997
EXTRACT: control_change channel=13 control=93 value=45 time=0
EXTRACT: control_change channel=14 control=0 value=0 time=0.0031249999999999997
EXTRACT: control_change channel=14 control=32 value=0 time=0.0031249999999999997
EXTRACT: program_change channel=14 program=53 time=0.0031249999999999997
EXTRACT: control_change channel=14 control=7 value=100 time=0.0031249999999999997
EXTRACT: control_change channel=14 control=10 value=64 time=0
EXTRACT: control_change channel=14 control=11 value=127 time=0
EXTRACT: control_change channel=14 control=91 value=75 time=0.0031249999999999997
EXTRACT: control_change channel=14 control=93 value=45 time=0
EXTRACT: control_change channel=15 control=0 value=0 time=0.0031249999999999997
EXTRACT: control_change channel=15 control=32 value=0 time=0.0031249999999999997
EXTRACT: program_change channel=15 program=65 time=0.0031249999999999997
EXTRACT: control_change channel=15 control=7 value=125 time=0.0031249999999999997
EXTRACT: control_change channel=15 control=10 value=64 time=0
EXTRACT: control_change channel=15 control=11 value=127 time=0
EXTRACT: control_change channel=15 control=91 value=110 time=0.0031249999999999997
EXTRACT: control_change channel=15 control=93 value=0 time=0
EXTRACT: note_off channel=0 note=62 velocity=0 time=0.0046875
EXTRACT: control_change channel=1 control=101 value=0 time=0.0640625
EXTRACT: control_change channel=1 control=100 value=0 time=0.0031249999999999997
EXTRACT: control_change channel=1 control=6 value=12 time=0.0031249999999999997
EXTRACT: control_change channel=1 control=101 value=127 time=0.0031249999999999997
EXTRACT: note_off channel=0 note=61 velocity=0 time=0
EXTRACT: control_change channel=1 control=100 value=127 time=0.0031249999999999997
EXTRACT: control_change channel=2 control=101 value=0 time=0.0031249999999999997
EXTRACT: control_change channel=2 control=100 value=0 time=0.0031249999999999997
EXTRACT: control_change channel=2 control=6 value=12 time=0.0031249999999999997
EXTRACT: control_change channel=2 control=101 value=127 time=0.0031249999999999997
EXTRACT: control_change channel=2 control=100 value=127 time=0.0031249999999999997
EXTRACT: control_change channel=3 control=101 value=0 time=0.0031249999999999997
EXTRACT: control_change channel=3 control=100 value=0 time=0.0031249999999999997
EXTRACT: control_change channel=3 control=6 value=12 time=0.0031249999999999997
EXTRACT: control_change channel=3 control=101 value=127 time=0.0031249999999999997
EXTRACT: control_change channel=3 control=100 value=127 time=0.0031249999999999997
EXTRACT: control_change channel=4 control=101 value=0 time=0.0031249999999999997
EXTRACT: control_change channel=4 control=100 value=0 time=0.0031249999999999997
EXTRACT: control_change channel=4 control=6 value=12 time=0.0031249999999999997
EXTRACT: control_change channel=4 control=101 value=127 time=0.0031249999999999997
EXTRACT: control_change channel=4 control=100 value=127 time=0.0031249999999999997
EXTRACT: control_change channel=5 control=101 value=0 time=0.0031249999999999997
EXTRACT: control_change channel=5 control=100 value=0 time=0.0031249999999999997
EXTRACT: control_change channel=5 control=6 value=12 time=0.0031249999999999997
EXTRACT: control_change channel=5 control=101 value=127 time=0.0031249999999999997
EXTRACT: control_change channel=4 control=1 value=75 time=0.0007812499999999999
EXTRACT: control_change channel=5 control=100 value=127 time=0.00234375
EXTRACT: control_change channel=6 control=101 value=0 time=0.0031249999999999997
EXTRACT: control_change channel=6 control=100 value=0 time=0.0031249999999999997
EXTRACT: note_off channel=0 note=83 velocity=0 time=0.0015624999999999999
EXTRACT: control_change channel=6 control=6 value=12 time=0.0015624999999999999
EXTRACT: control_change channel=6 control=101 value=127 time=0.0031249999999999997
EXTRACT: control_change channel=6 control=100 value=127 time=0.0031249999999999997
EXTRACT: control_change channel=9 control=101 value=0 time=0.034374999999999996
EXTRACT: control_change channel=9 control=100 value=0 time=0.0031249999999999997
EXTRACT: control_change channel=9 control=6 value=12 time=0.0031249999999999997
EXTRACT: control_change channel=9 control=101 value=127 time=0.0031249999999999997
EXTRACT: control_change channel=9 control=100 value=127 time=0.0031249999999999997
EXTRACT: control_change channel=11 control=101 value=0 time=0.0265625
EXTRACT: note_off channel=0 note=71 velocity=0 time=0.0015624999999999999
EXTRACT: control_change channel=11 control=100 value=0 time=0.0007812499999999999
EXTRACT: control_change channel=11 control=6 value=12 time=0.0039062499999999996
EXTRACT: control_change channel=12 control=101 value=0 time=0.0015624999999999999
EXTRACT: control_change channel=11 control=101 value=127 time=0.0031249999999999997
EXTRACT: control_change channel=12 control=100 value=0 time=0
EXTRACT: note_off channel=0 note=67 velocity=0 time=0.00234375
EXTRACT: control_change channel=12 control=6 value=12 time=0.0007812499999999999
EXTRACT: control_change channel=11 control=100 value=127 time=0.0007812499999999999
EXTRACT: control_change channel=12 control=101 value=127 time=0.00234375
EXTRACT: control_change channel=12 control=100 value=127 time=0.0031249999999999997
EXTRACT: control_change channel=13 control=101 value=0 time=0.0031249999999999997
EXTRACT: control_change channel=13 control=100 value=0 time=0.0031249999999999997
EXTRACT: control_change channel=13 control=6 value=12 time=0.0031249999999999997
EXTRACT: control_change channel=13 control=101 value=127 time=0.0031249999999999997
EXTRACT: control_change channel=13 control=100 value=127 time=0.0031249999999999997
EXTRACT: control_change channel=14 control=101 value=0 time=0.0031249999999999997
EXTRACT: control_change channel=14 control=100 value=0 time=0.0031249999999999997
EXTRACT: control_change channel=9 control=99 value=29 time=0.0031249999999999997
EXTRACT: control_change channel=14 control=6 value=12 time=0
EXTRACT: control_change channel=14 control=101 value=127 time=0.0031249999999999997
EXTRACT: control_change channel=14 control=100 value=127 time=0.0031249999999999997
EXTRACT: control_change channel=15 control=101 value=0 time=0.0031249999999999997
EXTRACT: control_change channel=15 control=100 value=0 time=0.0031249999999999997
EXTRACT: control_change channel=15 control=6 value=12 time=0.0031249999999999997
EXTRACT: control_change channel=15 control=101 value=127 time=0.0031249999999999997
EXTRACT: control_change channel=9 control=98 value=39 time=0.0031249999999999997
EXTRACT: control_change channel=15 control=100 value=127 time=0
EXTRACT: note_off channel=0 note=61 velocity=0 time=0.027343749999999997
EXTRACT: control_change channel=9 control=6 value=126 time=0.008593749999999999
EXTRACT: note_off channel=0 note=76 velocity=0 time=0.16015625
EXTRACT: note_off channel=0 note=61 velocity=0 time=0.0375
EXTRACT: note_off channel=0 note=81 velocity=0 time=0.009375
EXTRACT: note_off channel=0 note=61 velocity=0 time=0.024999999999999998
EXTRACT: sysex data=(65,16,69,18,16,0,0,80,114,111,103,114,97,109,109,101,100,32,98,121,32,72,97,110,100,115,32,79,110,46,32,32,14) time=0.017187499999999998
EXTRACT: note_off channel=0 note=79 velocity=0 time=0.061718749999999996
EXTRACT: note_off channel=0 note=69 velocity=0 time=0.06529833333333333
EXTRACT: note_off channel=0 note=69 velocity=0 time=0.03498125
EXTRACT: sysex data=(65,16,69,18,16,1,0,3,20,20,23,30,22,23,20,3,2,2,2,2,3,0,0,16,31,25,25,25,25,25,0,27,10,10,10,10,26,0,0,28,23,22,22,23,28,0,3,24,8,8,8,8,8,0,0,0,31,0,0,31,31,31,31,0,0,0,0,0,0,0,0,71) time=1.919304583333333
EXTRACT: note_on channel=9 note=36 velocity=127 time=0.8908558333333333
EXTRACT: note_off channel=9 note=36 velocity=127 time=0.004664166666666666
EXTRACT: note_on channel=9 note=38 velocity=114 time=0.20055916666666665
EXTRACT: note_off channel=9 note=38 velocity=114 time=0.004664166666666666
EXTRACT: note_on channel=9 note=38 velocity=125 time=0.013992499999999998
EXTRACT: note_off channel=9 note=38 velocity=125 time=0.004664166666666666
EXTRACT: note_on channel=1 note=36 velocity=122 time=0.4430958333333333
EXTRACT: note_on channel=9 note=36 velocity=127 time=0
EXTRACT: note_on channel=9 note=49 velocity=113 time=0
EXTRACT: note_off channel=9 note=49 velocity=113 time=0.004664166666666666
EXTRACT: note_off channel=9 note=36 velocity=127 time=0
EXTRACT: sysex data=(65,16,69,18,16,1,0,28,11,11,8,1,9,8,11,31,28,29,29,29,29,28,31,16,32,6,6,6,6,6,22,31,4,21,21,21,21,5,31,3,8,9,9,8,11,3,28,31,7,23,23,23,23,23,31,31,0,31,31,0,0,0,0,31,31,31,31,31,31,31,31,83) time=0.06529833333333333
EXTRACT: note_off channel=1 note=36 velocity=122 time=0.12126833333333333
EXTRACT: note_on channel=9 note=42 velocity=77 time=0.03264916666666667
EXTRACT: note_off channel=9 note=42 velocity=77 time=0.004664166666666666
EXTRACT: note_on channel=1 note=36 velocity=124 time=0.2192158333333333
EXTRACT: note_on channel=2 note=60 velocity=101 time=0
EXTRACT: note_on channel=2 note=65 velocity=105 time=0
EXTRACT: note_on channel=2 note=67 velocity=97 time=0
EXTRACT: note_on channel=5 note=48 velocity=100 time=0
EXTRACT: note_on channel=5 note=53 velocity=88 time=0
EXTRACT: note_on channel=5 note=55 velocity=99 time=0
EXTRACT: note_on channel=9 note=38 velocity=122 time=0
EXTRACT: note_on channel=9 note=42 velocity=61 time=0
EXTRACT: note_off channel=9 note=42 velocity=61 time=0.004664166666666666
EXTRACT: note_off channel=9 note=38 velocity=122 time=0
EXTRACT: note_off channel=2 note=67 velocity=97 time=0.09328333333333333
EXTRACT: note_off channel=2 note=65 velocity=105 time=0
EXTRACT: note_off channel=2 note=60 velocity=101 time=0
EXTRACT: note_off channel=5 note=55 velocity=99 time=0
EXTRACT: note_off channel=5 note=53 velocity=88 time=0
EXTRACT: note_off channel=5 note=48 velocity=100 time=0
EXTRACT: note_off channel=1 note=36 velocity=124 time=0.09328333333333333
EXTRACT: note_on channel=2 note=60 velocity=108 time=0.03264916666666667
EXTRACT: note_on channel=2 note=65 velocity=96 time=0
EXTRACT: note_on channel=2 note=67 velocity=107 time=0
EXTRACT: note_on channel=5 note=48 velocity=102 time=0
EXTRACT: note_on channel=5 note=53 velocity=99 time=0
EXTRACT: note_on channel=5 note=55 velocity=97 time=0
EXTRACT: note_on channel=9 note=42 velocity=77 time=0
EXTRACT: note_off channel=9 note=42 velocity=77 time=0.004664166666666666
EXTRACT: note_off channel=2 note=67 velocity=107 time=0.09328333333333333
EXTRACT: note_off channel=2 note=65 velocity=96 time=0
EXTRACT: note_off channel=2 note=60 velocity=108 time=0
EXTRACT: note_off channel=5 note=55 velocity=97 time=0
EXTRACT: note_off channel=5 note=53 velocity=99 time=0
EXTRACT: note_off channel=5 note=48 velocity=102 time=0
EXTRACT: note_on channel=1 note=31 velocity=119 time=0.1259325
EXTRACT: note_on channel=9 note=36 velocity=126 time=0
EXTRACT: note_on channel=9 note=42 velocity=68 time=0
EXTRACT: note_off channel=9 note=42 velocity=68 time=0.004664166666666666
EXTRACT: note_off channel=9 note=36 velocity=126 time=0
EXTRACT: note_off channel=1 note=31 velocity=119 time=0.18656666666666666
EXTRACT: note_on channel=1 note=36 velocity=115 time=0.03264916666666667
EXTRACT: note_on channel=9 note=42 velocity=68 time=0
EXTRACT: note_off channel=9 note=42 velocity=68 time=0.004664166666666666
EXTRACT: note_off channel=1 note=36 velocity=115 time=0.07462666666666666
EXTRACT: note_on channel=2 note=60 velocity=99 time=0.14458916666666666
EXTRACT: note_on channel=2 note=65 velocity=112 time=0
EXTRACT: note_on channel=2 note=67 velocity=106 time=0
EXTRACT: note_on channel=5 note=48 velocity=103 time=0
EXTRACT: note_on channel=5 note=53 velocity=88 time=0
EXTRACT: note_on channel=5 note=55 velocity=99 time=0
EXTRACT: note_on channel=9 note=38 velocity=127 time=0
EXTRACT: note_on channel=9 note=42 velocity=65 time=0
EXTRACT: note_off channel=9 note=42 velocity=65 time=0.004664166666666666
EXTRACT: note_off channel=9 note=38 velocity=127 time=0
EXTRACT: note_off channel=2 note=67 velocity=106 time=0.09328333333333333
EXTRACT: note_off channel=2 note=65 velocity=112 time=0
EXTRACT: note_off channel=2 note=60 velocity=99 time=0
EXTRACT: note_off channel=5 note=55 velocity=99 time=0
EXTRACT: note_off channel=5 note=53 velocity=88 time=0
EXTRACT: note_off channel=5 note=48 velocity=103 time=0
EXTRACT: note_on channel=1 note=31 velocity=109 time=0.1259325
EXTRACT: note_on channel=2 note=60 velocity=102 time=0
EXTRACT: note_on channel=2 note=65 velocity=106 time=0
EXTRACT: note_on channel=2 note=67 velocity=107 time=0
EXTRACT: note_on channel=5 note=48 velocity=89 time=0
EXTRACT: note_on channel=5 note=53 velocity=93 time=0
EXTRACT: note_on channel=5 note=55 velocity=87 time=0
EXTRACT: note_on channel=9 note=42 velocity=60 time=0
EXTRACT: note_off channel=9 note=42 velocity=60 time=0.004664166666666666
EXTRACT: note_off channel=2 note=67 velocity=107 time=0.09328333333333333
EXTRACT: note_off channel=2 note=65 velocity=106 time=0
EXTRACT: note_off channel=2 note=60 velocity=102 time=0
EXTRACT: note_off channel=5 note=55 velocity=87 time=0
EXTRACT: note_off channel=5 note=53 velocity=93 time=0
EXTRACT: note_off channel=5 note=48 velocity=89 time=0
EXTRACT: note_off channel=1 note=31 velocity=109 time=0.09328333333333333
EXTRACT: note_on channel=1 note=36 velocity=109 time=0.03264916666666667
EXTRACT: note_on channel=9 note=36 velocity=127 time=0
EXTRACT: note_on channel=9 note=42 velocity=71 time=0
EXTRACT: note_off channel=9 note=42 velocity=71 time=0.004664166666666666
EXTRACT: note_off channel=9 note=36 velocity=127 time=0
EXTRACT: note_off channel=1 note=36 velocity=109 time=0.18656666666666666
EXTRACT: note_on channel=9 note=42 velocity=58 time=0.03264916666666667
EXTRACT: note_off channel=9 note=42 velocity=58 time=0.004664166666666666
EXTRACT: note_on channel=1 note=36 velocity=112 time=0.2192158333333333
EXTRACT: note_on channel=2 note=60 velocity=95 time=0
EXTRACT: note_on channel=2 note=64 velocity=106 time=0
EXTRACT: note_on channel=2 note=67 velocity=98 time=0
EXTRACT: note_on channel=5 note=48 velocity=100 time=0
EXTRACT: note_on channel=5 note=52 velocity=86 time=0
EXTRACT: note_on channel=5 note=55 velocity=97 time=0
EXTRACT: note_on channel=9 note=38 velocity=120 time=0
EXTRACT: note_on channel=9 note=42 velocity=63 time=0
EXTRACT: note_off channel=9 note=42 velocity=63 time=0.004664166666666666
EXTRACT: note_off channel=9 note=38 velocity=120 time=0
EXTRACT: note_off channel=2 note=67 velocity=98 time=0.09328333333333333
EXTRACT: note_off channel=2 note=64 velocity=106 time=0
EXTRACT: note_off channel=2 note=60 velocity=95 time=0
EXTRACT: note_off channel=5 note=55 velocity=97 time=0
EXTRACT: note_off channel=5 note=52 velocity=86 time=0
EXTRACT: note_off channel=5 note=48 velocity=100 time=0
EXTRACT: note_off channel=1 note=36 velocity=112 time=0.09328333333333333
EXTRACT: note_on channel=2 note=60 velocity=100 time=0.03264916666666667
EXTRACT: note_on channel=2 note=64 velocity=113 time=0
EXTRACT: note_on channel=2 note=67 velocity=106 time=0
EXTRACT: note_on channel=5 note=48 velocity=99 time=0
EXTRACT: note_on channel=5 note=52 velocity=89 time=0
EXTRACT: note_on channel=5 note=55 velocity=95 time=0
EXTRACT: note_on channel=9 note=42 velocity=76 time=0
EXTRACT: note_off channel=9 note=42 velocity=76 time=0.004664166666666666
EXTRACT: note_off channel=2 note=67 velocity=106 time=0.09328333333333333
EXTRACT: note_off channel=2 note=64 velocity=113 time=0
EXTRACT: note_off channel=2 note=60 velocity=100 time=0
EXTRACT: note_off channel=5 note=55 velocity=95 time=0
EXTRACT: note_off channel=5 note=52 velocity=89 time=0
EXTRACT: note_off channel=5 note=48 velocity=99 time=0
EXTRACT: sysex data=(65,16,69,18,16,1,0,0,3,20,20,23,30,22,23,20,3,2,2,2,2,3,0,0,16,31,25,25,25,25,25,0,27,10,10,10,10,26,0,0,28,23,22,22,23,28,0,3,24,8,8,8,8,8,0,0,0,31,0,0,31,31,31,31,0,0,0,0,0,0,0,71) time=0.027984999999999996
EXTRACT: note_on channel=1 note=31 velocity=118 time=0.09794749999999999
EXTRACT: note_on channel=9 note=36 velocity=127 time=0
EXTRACT: note_on channel=9 note=42 velocity=58 time=0
EXTRACT: note_off channel=9 note=42 velocity=58 time=0.004664166666666666
EXTRACT: note_off channel=9 note=36 velocity=127 time=0
EXTRACT: note_off channel=1 note=31 velocity=118 time=0.18656666666666666
EXTRACT: note_on channel=1 note=36 velocity=123 time=0.03264916666666667
EXTRACT: note_on channel=9 note=42 velocity=63 time=0
EXTRACT: note_off channel=9 note=42 velocity=63 time=0.004664166666666666
EXTRACT: note_off channel=1 note=36 velocity=123 time=0.07462666666666666
EXTRACT: note_on channel=2 note=60 velocity=98 time=0.14458916666666666
EXTRACT: note_on channel=2 note=64 velocity=101 time=0
EXTRACT: note_on channel=2 note=67 velocity=107 time=0
EXTRACT: note_on channel=5 note=48 velocity=105 time=0
EXTRACT: note_on channel=5 note=52 velocity=100 time=0
EXTRACT: note_on channel=5 note=55 velocity=90 time=0
EXTRACT: note_on channel=9 note=39 velocity=93 time=0
EXTRACT: note_on channel=9 note=38 velocity=114 time=0
EXTRACT: note_on channel=9 note=42 velocity=68 time=0
EXTRACT: note_off channel=9 note=42 velocity=68 time=0.004664166666666666
EXTRACT: note_off channel=9 note=38 velocity=114 time=0
EXTRACT: note_off channel=9 note=39 velocity=93 time=0
EXTRACT: note_off channel=2 note=67 velocity=107 time=0.09328333333333333
EXTRACT: note_off channel=2 note=64 velocity=101 time=0
EXTRACT: note_off channel=2 note=60 velocity=98 time=0
EXTRACT: note_off channel=5 note=55 velocity=90 time=0
EXTRACT: note_off channel=5 note=52 velocity=100 time=0
EXTRACT: note_off channel=5 note=48 velocity=105 time=0
EXTRACT: note_on channel=1 note=31 velocity=107 time=0.1259325
EXTRACT: note_on channel=2 note=60 velocity=102 time=0
EXTRACT: note_on channel=2 note=64 velocity=102 time=0
EXTRACT: note_on channel=2 note=67 velocity=104 time=0
EXTRACT: note_on channel=5 note=48 velocity=101 time=0
EXTRACT: note_on channel=5 note=52 velocity=101 time=0
EXTRACT: note_on channel=5 note=55 velocity=102 time=0
EXTRACT: note_on channel=9 note=42 velocity=59 time=0
EXTRACT: note_off channel=9 note=42 velocity=59 time=0.004664166666666666
EXTRACT: note_off channel=2 note=67 velocity=104 time=0.09328333333333333
EXTRACT: note_off channel=2 note=64 velocity=102 time=0
EXTRACT: note_off channel=2 note=60 velocity=102 time=0
EXTRACT: note_off channel=5 note=55 velocity=102 time=0
EXTRACT: note_off channel=5 note=52 velocity=101 time=0
EXTRACT: note_off channel=5 note=48 velocity=101 time=0
EXTRACT: note_off channel=1 note=31 velocity=107 time=0.09328333333333333
EXTRACT: note_on channel=1 note=36 velocity=122 time=0.03264916666666667
EXTRACT: note_on channel=9 note=36 velocity=122 time=0
EXTRACT: note_on channel=9 note=42 velocity=58 time=0
EXTRACT: note_off channel=9 note=42 velocity=58 time=0.004664166666666666
EXTRACT: note_off channel=9 note=36 velocity=122 time=0
EXTRACT: note_off channel=1 note=36 velocity=122 time=0.18656666666666666
EXTRACT: note_on channel=9 note=42 velocity=66 time=0.03264916666666667
EXTRACT: note_off channel=9 note=42 velocity=66 time=0.004664166666666666
EXTRACT: note_on channel=1 note=36 velocity=109 time=0.2192158333333333
EXTRACT: note_on channel=2 note=60 velocity=113 time=0
EXTRACT: note_on channel=2 note=65 velocity=103 time=0
EXTRACT: note_on channel=2 note=67 velocity=109 time=0
EXTRACT: note_on channel=5 note=48 velocity=105 time=0
EXTRACT: note_on channel=5 note=53 velocity=98 time=0
EXTRACT: note_on channel=5 note=55 velocity=95 time=0
EXTRACT: note_on channel=9 note=38 velocity=123 time=0
EXTRACT: note_on channel=9 note=42 velocity=68 time=0
EXTRACT: note_off channel=9 note=42 velocity=68 time=0.004664166666666666
EXTRACT: note_off channel=9 note=38 velocity=123 time=0
EXTRACT: note_off channel=2 note=67 velocity=109 time=0.09328333333333333
EXTRACT: note_off channel=2 note=65 velocity=103 time=0
EXTRACT: note_off channel=2 note=60 velocity=113 time=0
EXTRACT: note_off channel=5 note=55 velocity=95 time=0
EXTRACT: note_off channel=5 note=53 velocity=98 time=0
EXTRACT: note_off channel=5 note=48 velocity=105 time=0
EXTRACT: note_off channel=1 note=36 velocity=109 time=0.09328333333333333
EXTRACT: note_on channel=2 note=60 velocity=101 time=0.03264916666666667
EXTRACT: note_on channel=2 note=65 velocity=100 time=0
EXTRACT: note_on channel=2 note=67 velocity=97 time=0
EXTRACT: note_on channel=5 note=48 velocity=104 time=0
EXTRACT: note_on channel=5 note=53 velocity=91 time=0
EXTRACT: note_on channel=5 note=55 velocity=91 time=0
EXTRACT: note_on channel=9 note=42 velocity=75 time=0
EXTRACT: note_off channel=9 note=42 velocity=75 time=0.004664166666666666
EXTRACT: note_off channel=2 note=67 velocity=97 time=0.09328333333333333
EXTRACT: note_off channel=2 note=65 velocity=100 time=0
EXTRACT: note_off channel=2 note=60 velocity=101 time=0
EXTRACT: note_off channel=5 note=55 velocity=91 time=0
EXTRACT: note_off channel=5 note=53 velocity=91 time=0
EXTRACT: note_off channel=5 note=48 velocity=104 time=0
EXTRACT: note_on channel=1 note=31 velocity=125 time=0.1259325
EXTRACT: note_on channel=9 note=36 velocity=127 time=0
EXTRACT: note_on channel=9 note=42 velocity=66 time=0
EXTRACT: note_off channel=9 note=42 velocity=66 time=0.004664166666666666
EXTRACT: note_off channel=9 note=36 velocity=127 time=0
EXTRACT: note_off channel=1 note=31 velocity=125 time=0.18656666666666666
EXTRACT: note_on channel=1 note=36 velocity=116 time=0.03264916666666667
EXTRACT: note_on channel=9 note=42 velocity=59 time=0
EXTRACT: note_off channel=9 note=42 velocity=59 time=0.004664166666666666
EXTRACT: note_off channel=1 note=36 velocity=116 time=0.07462666666666666
EXTRACT: note_on channel=2 note=60 velocity=98 time=0.14458916666666666
EXTRACT: note_on channel=2 note=65 velocity=111 time=0
EXTRACT: note_on channel=2 note=67 velocity=110 time=0
EXTRACT: note_on channel=5 note=48 velocity=86 time=0
EXTRACT: note_on channel=5 note=53 velocity=102 time=0
EXTRACT: note_on channel=5 note=55 velocity=96 time=0
EXTRACT: note_on channel=9 note=38 velocity=114 time=0
EXTRACT: note_on channel=9 note=42 velocity=66 time=0
EXTRACT: note_off channel=9 note=42 velocity=66 time=0.004664166666666666
EXTRACT: note_off channel=9 note=38 velocity=114 time=0
EXTRACT: note_off channel=2 note=67 velocity=110 time=0.09328333333333333
EXTRACT: note_off channel=2 note=65 velocity=111 time=0
EXTRACT: note_off channel=2 note=60 velocity=98 time=0
EXTRACT: note_off channel=5 note=55 velocity=96 time=0
EXTRACT: note_off channel=5 note=53 velocity=102 time=0
EXTRACT: note_off channel=5 note=48 velocity=86 time=0
EXTRACT: note_on channel=1 note=31 velocity=124 time=0.1259325
EXTRACT: note_on channel=2 note=60 velocity=98 time=0
EXTRACT: note_on channel=2 note=65 velocity=114 time=0
EXTRACT: note_on channel=2 note=67 velocity=99 time=0
EXTRACT: note_on channel=5 note=48 velocity=96 time=0
EXTRACT: note_on channel=5 note=53 velocity=99 time=0
EXTRACT: note_on channel=5 note=55 velocity=91 time=0
EXTRACT: note_on channel=9 note=42 velocity=69 time=0
EXTRACT: note_off channel=9 note=42 velocity=69 time=0.004664166666666666
EXTRACT: note_off channel=2 note=67 velocity=99 time=0.09328333333333333
EXTRACT: note_off channel=2 note=65 velocity=114 time=0
EXTRACT: note_off channel=2 note=60 velocity=98 time=0
EXTRACT: note_off channel=5 note=55 velocity=91 time=0
EXTRACT: note_off channel=5 note=53 velocity=99 time=0
EXTRACT: note_off channel=5 note=48 velocity=96 time=0
EXTRACT: note_off channel=1 note=31 velocity=124 time=0.09328333333333333
EXTRACT: note_on channel=1 note=36 velocity=125 time=0.03264916666666667
EXTRACT: note_on channel=9 note=36 velocity=127 time=0
EXTRACT: note_on channel=9 note=42 velocity=64 time=0
EXTRACT: note_off channel=9 note=42 velocity=64 time=0.004664166666666666
EXTRACT: note_off channel=9 note=36 velocity=127 time=0
EXTRACT: sysex data=(65,16,69,18,16,1,0,28,11,11,8,1,9,8,11,31,28,29,29,29,29,28,31,16,32,6,6,6,6,6,22,31,4,21,21,21,21,5,31,3,8,9,9,8,11,3,28,31,7,23,23,23,23,23,31,31,0,31,31,0,0,0,0,31,31,31,31,31,31,31,31,83) time=0.06529833333333333
EXTRACT: note_off channel=1 note=36 velocity=125 time=0.12126833333333333
EXTRACT: note_on channel=9 note=42 velocity=60 time=0.03264916666666667
EXTRACT: note_off channel=9 note=42 velocity=60 time=0.004664166666666666
EXTRACT: note_on channel=1 note=36 velocity=116 time=0.2192158333333333
EXTRACT: note_on channel=2 note=60 velocity=113 time=0
EXTRACT: note_on channel=2 note=64 velocity=107 time=0
EXTRACT: note_on channel=2 note=67 velocity=110 time=0
EXTRACT: note_on channel=5 note=48 velocity=88 time=0
EXTRACT: note_on channel=5 note=52 velocity=93 time=0
EXTRACT: note_on channel=5 note=55 velocity=96 time=0
EXTRACT: note_on channel=9 note=38 velocity=122 time=0
EXTRACT: note_on channel=9 note=42 velocity=75 time=0
EXTRACT: note_off channel=9 note=42 velocity=75 time=0.004664166666666666
EXTRACT: note_off channel=9 note=38 velocity=122 time=0
EXTRACT: note_off channel=2 note=67 velocity=110 time=0.09328333333333333
EXTRACT: note_off channel=2 note=64 velocity=107 time=0
EXTRACT: note_off channel=2 note=60 velocity=113 time=0
EXTRACT: note_off channel=5 note=55 velocity=96 time=0
EXTRACT: note_off channel=5 note=52 velocity=93 time=0
EXTRACT: note_off channel=5 note=48 velocity=88 time=0
EXTRACT: note_off channel=1 note=36 velocity=116 time=0.09328333333333333
EXTRACT: note_on channel=2 note=60 velocity=101 time=0.03264916666666667
EXTRACT: note_on channel=2 note=64 velocity=95 time=0
EXTRACT: note_on channel=2 note=67 velocity=108 time=0
EXTRACT: note_on channel=5 note=48 velocity=93 time=0
EXTRACT: note_on channel=5 note=52 velocity=96 time=0
EXTRACT: note_on channel=5 note=55 velocity=91 time=0
EXTRACT: note_on channel=9 note=42 velocity=62 time=0
EXTRACT: note_off channel=9 note=42 velocity=62 time=0.004664166666666666
EXTRACT: note_off channel=2 note=67 velocity=108 time=0.09328333333333333
EXTRACT: note_off channel=2 note=64 velocity=95 time=0
EXTRACT: note_off channel=2 note=60 velocity=101 time=0
EXTRACT: note_off channel=5 note=55 velocity=91 time=0
EXTRACT: note_off channel=5 note=52 velocity=96 time=0
EXTRACT: note_off channel=5 note=48 velocity=93 time=0
EXTRACT: note_on channel=1 note=31 velocity=122 time=0.1259325
EXTRACT: note_on channel=9 note=36 velocity=119 time=0
EXTRACT: note_on channel=9 note=46 velocity=109 time=0
EXTRACT: note_off channel=9 note=46 velocity=109 time=0.004664166666666666
EXTRACT: note_off channel=9 note=36 velocity=119 time=0
EXTRACT: note_off channel=1 note=31 velocity=122 time=0.18656666666666666
EXTRACT: note_on channel=1 note=36 velocity=122 time=0.03264916666666667
EXTRACT: note_on channel=9 note=42 velocity=62 time=0
EXTRACT: note_off channel=9 note=42 velocity=62 time=0.004664166666666666
EXTRACT: note_off channel=1 note=36 velocity=122 time=0.07462666666666666
EXTRACT: note_on channel=2 note=60 velocity=104 time=0.14458916666666666
EXTRACT: note_on channel=2 note=64 velocity=113 time=0
EXTRACT: note_on channel=2 note=67 velocity=105 time=0
EXTRACT: note_on channel=5 note=48 velocity=89 time=0
EXTRACT: note_on channel=5 note=52 velocity=91 time=0
EXTRACT: note_on channel=5 note=55 velocity=86 time=0
EXTRACT: note_on channel=9 note=39 velocity=94 time=0
EXTRACT: note_on channel=9 note=38 velocity=117 time=0
EXTRACT: note_on channel=9 note=46 velocity=107 time=0
EXTRACT: note_off channel=9 note=46 velocity=107 time=0.004664166666666666
EXTRACT: note_off channel=9 note=38 velocity=117 time=0
EXTRACT: note_off channel=9 note=39 velocity=94 time=0
EXTRACT: note_off channel=2 note=67 velocity=105 time=0.09328333333333333
EXTRACT: note_off channel=2 note=64 velocity=113 time=0
EXTRACT: note_off channel=2 note=60 velocity=104 time=0
EXTRACT: note_off channel=5 note=55 velocity=86 time=0
EXTRACT: note_off channel=5 note=52 velocity=91 time=0
EXTRACT: note_off channel=5 note=48 velocity=89 time=0
EXTRACT: note_on channel=1 note=31 velocity=107 time=0.1259325
EXTRACT: note_on channel=2 note=60 velocity=97 time=0
EXTRACT: note_on channel=2 note=64 velocity=111 time=0
EXTRACT: note_on channel=2 note=67 velocity=101 time=0
EXTRACT: note_on channel=5 note=48 velocity=98 time=0
EXTRACT: note_on channel=5 note=52 velocity=86 time=0
EXTRACT: note_on channel=5 note=55 velocity=97 time=0
EXTRACT: note_on channel=9 note=42 velocity=72 time=0
EXTRACT: note_off channel=9 note=42 velocity=72 time=0.004664166666666666
EXTRACT: note_off channel=2 note=67 velocity=101 time=0.09328333333333333
EXTRACT: note_off channel=2 note=64 velocity=111 time=0
EXTRACT: note_off channel=2 note=60 velocity=97 time=0
EXTRACT: note_off channel=5 note=55 velocity=97 time=0
EXTRACT: note_off channel=5 note=52 velocity=86 time=0
EXTRACT: note_off channel=5 note=48 velocity=98 time=0
EXTRACT: note_off channel=1 note=31 velocity=107 time=0.09328333333333333
EXTRACT: note_on channel=1 note=36 velocity=124 time=0.03264916666666667
EXTRACT: note_on channel=3 note=67 velocity=103 time=0
EXTRACT: note_on channel=3 note=70 velocity=93 time=0
EXTRACT: note_on channel=9 note=36 velocity=124 time=0
EXTRACT: note_on channel=9 note=42 velocity=77 time=0
EXTRACT: note_off channel=9 note=42 velocity=77 time=0.004664166666666666
EXTRACT: note_off channel=9 note=36 velocity=124 time=0
EXTRACT: control_change channel=3 control=1 value=83 time=0.10727583333333332
EXTRACT: note_off channel=1 note=36 velocity=124 time=0.07929083333333332
EXTRACT: note_on channel=9 note=42 velocity=66 time=0.03264916666666667
EXTRACT: note_off channel=9 note=42 velocity=66 time=0.004664166666666666
EXTRACT: note_on channel=1 note=36 velocity=121 time=0.2192158333333333
EXTRACT: note_on channel=2 note=60 velocity=112 time=0
EXTRACT: note_on channel=2 note=65 velocity=111 time=0
EXTRACT: note_on channel=2 note=67 velocity=110 time=0
EXTRACT: note_on channel=5 note=48 velocity=104 time=0
EXTRACT: note_on channel=5 note=53 velocity=102 time=0
EXTRACT: note_on channel=5 note=55 velocity=96 time=0
EXTRACT: note_on channel=9 note=38 velocity=123 time=0
EXTRACT: note_on channel=9 note=42 velocity=73 time=0
EXTRACT: note_off channel=9 note=42 velocity=73 time=0.004664166666666666
EXTRACT: note_off channel=9 note=38 velocity=123 time=0
EXTRACT: sysex data=(65,16,69,18,16,1,0,0,3,20,20,23,30,22,23,20,3,2,2,2,2,3,0,0,16,31,25,25,25,25,25,0,27,10,10,10,10,26,0,0,28,23,22,22,23,28,0,3,24,8,8,8,8,8,0,0,0,31,0,0,31,31,31,31,0,0,0,0,0,0,0,71) time=0.07929083333333332
EXTRACT: note_off channel=2 note=67 velocity=110 time=0.013992499999999998
EXTRACT: note_off channel=2 note=65 velocity=111 time=0
EXTRACT: note_off channel=2 note=60 velocity=112 time=0
EXTRACT: note_off channel=5 note=55 velocity=96 time=0
EXTRACT: note_off channel=5 note=53 velocity=102 time=0
EXTRACT: note_off channel=5 note=48 velocity=104 time=0
EXTRACT: note_off channel=1 note=36 velocity=121 time=0.09328333333333333
EXTRACT: note_on channel=2 note=60 velocity=102 time=0.03264916666666667
EXTRACT: note_on channel=2 note=65 velocity=102 time=0
EXTRACT: note_on channel=2 note=67 velocity=106 time=0
EXTRACT: note_on channel=5 note=48 velocity=103 time=0
EXTRACT: note_on channel=5 note=53 velocity=97 time=0
EXTRACT: note_on channel=5 note=55 velocity=101 time=0
EXTRACT: note_on channel=9 note=42 velocity=72 time=0
EXTRACT: note_off channel=9 note=42 velocity=72 time=0.004664166666666666
EXTRACT: note_off channel=2 note=67 velocity=106 time=0.09328333333333333
EXTRACT: note_off channel=2 note=65 velocity=102 time=0
EXTRACT: note_off channel=2 note=60 velocity=102 time=0
EXTRACT: note_off channel=5 note=55 velocity=101 time=0
EXTRACT: note_off channel=5 note=53 velocity=97 time=0
EXTRACT: note_off channel=5 note=48 velocity=103 time=0
EXTRACT: note_on channel=1 note=31 velocity=118 time=0.1259325
EXTRACT: note_on channel=9 note=36 velocity=127 time=0
EXTRACT: note_on channel=9 note=42 velocity=73 time=0
EXTRACT: note_off channel=9 note=42 velocity=73 time=0.004664166666666666
EXTRACT: note_off channel=9 note=36 velocity=127 time=0
EXTRACT: note_off channel=1 note=31 velocity=118 time=0.18656666666666666
EXTRACT: note_off channel=3 note=70 velocity=93 time=0.018656666666666665
EXTRACT: note_off channel=3 note=67 velocity=103 time=0
EXTRACT: note_on channel=1 note=36 velocity=110 time=0.013992499999999998
EXTRACT: note_on channel=9 note=42 velocity=61 time=0
EXTRACT: note_off channel=9 note=42 velocity=61 time=0.004664166666666666
EXTRACT: note_off channel=1 note=36 velocity=110 time=0.07462666666666666
EXTRACT: note_on channel=2 note=60 velocity=108 time=0.14458916666666666
EXTRACT: note_on channel=2 note=65 velocity=108 time=0
EXTRACT: note_on channel=2 note=67 velocity=108 time=0
EXTRACT: note_on channel=5 note=48 velocity=98 time=0
EXTRACT: note_on channel=5 note=53 velocity=105 time=0
EXTRACT: note_on channel=5 note=55 velocity=101 time=0
EXTRACT: note_on channel=9 note=38 velocity=113 time=0
EXTRACT: note_on channel=9 note=42 velocity=71 time=0
EXTRACT: note_off channel=9 note=42 velocity=71 time=0.004664166666666666
EXTRACT: note_off channel=9 note=38 velocity=113 time=0
EXTRACT: note_off channel=2 note=67 velocity=108 time=0.09328333333333333
EXTRACT: note_off channel=2 note=65 velocity=108 time=0
EXTRACT: note_off channel=2 note=60 velocity=108 time=0
EXTRACT: note_off channel=5 note=55 velocity=101 time=0
EXTRACT: note_off channel=5 note=53 velocity=105 time=0
EXTRACT: note_off channel=5 note=48 velocity=98 time=0
EXTRACT: note_on channel=1 note=31 velocity=107 time=0.1259325
EXTRACT: note_on channel=2 note=60 velocity=96 time=0
EXTRACT: note_on channel=2 note=65 velocity=95 time=0
EXTRACT: note_on channel=2 note=67 velocity=112 time=0
EXTRACT: control_change channel=3 control=1 value=0 time=0
EXTRACT: note_on channel=5 note=48 velocity=92 time=0
EXTRACT: note_on channel=5 note=53 velocity=105 time=0
EXTRACT: note_on channel=5 note=55 velocity=93 time=0
EXTRACT: note_on channel=9 note=42 velocity=77 time=0
EXTRACT: note_off channel=9 note=42 velocity=77 time=0.004664166666666666
EXTRACT: note_off channel=2 note=67 velocity=112 time=0.09328333333333333
EXTRACT: note_off channel=2 note=65 velocity=95 time=0
EXTRACT: note_off channel=2 note=60 velocity=96 time=0
EXTRACT: note_off channel=5 note=55 velocity=93 time=0
EXTRACT: note_off channel=5 note=53 velocity=105 time=0
EXTRACT: note_off channel=5 note=48 velocity=92 time=0
EXTRACT: note_off channel=1 note=31 velocity=107 time=0.09328333333333333
EXTRACT: note_on channel=1 note=36 velocity=111 time=0.03264916666666667
EXTRACT: note_on channel=3 note=60 velocity=105 time=0
EXTRACT: note_on channel=3 note=67 velocity=98 time=0
EXTRACT: note_on channel=9 note=36 velocity=121 time=0
EXTRACT: note_on channel=9 note=42 velocity=66 time=0
EXTRACT: note_off channel=9 note=42 velocity=66 time=0.004664166666666666
EXTRACT: note_off channel=9 note=36 velocity=121 time=0
EXTRACT: note_off channel=1 note=36 velocity=111 time=0.18656666666666666
EXTRACT: note_off channel=3 note=67 velocity=98 time=0.018656666666666665
EXTRACT: note_off channel=3 note=60 velocity=105 time=0
EXTRACT: note_on channel=9 note=42 velocity=66 time=0.013992499999999998
EXTRACT: note_off channel=9 note=42 velocity=66 time=0.004664166666666666
EXTRACT: note_on channel=1 note=36 velocity=115 time=0.2192158333333333
EXTRACT: note_on channel=2 note=60 velocity=113 time=0
EXTRACT: note_on channel=2 note=64 velocity=101 time=0
EXTRACT: note_on channel=2 note=67 velocity=97 time=0
EXTRACT: note_on channel=5 note=48 velocity=87 time=0
EXTRACT: note_on channel=5 note=52 velocity=98 time=0
EXTRACT: note_on channel=5 note=55 velocity=98 time=0
EXTRACT: note_on channel=9 note=38 velocity=114 time=0
EXTRACT: note_on channel=9 note=42 velocity=76 time=0
EXTRACT: note_off channel=9 note=42 velocity=76 time=0.004664166666666666
EXTRACT: note_off channel=9 note=38 velocity=114 time=0
EXTRACT: note_off channel=2 note=67 velocity=97 time=0.09328333333333333
EXTRACT: note_off channel=2 note=64 velocity=101 time=0
EXTRACT: note_off channel=2 note=60 velocity=113 time=0
EXTRACT: note_off channel=5 note=55 velocity=98 time=0
EXTRACT: note_off channel=5 note=52 velocity=98 time=0
EXTRACT: note_off channel=5 note=48 velocity=87 time=0
EXTRACT: note_off channel=1 note=36 velocity=115 time=0.09328333333333333
EXTRACT: note_on channel=2 note=60 velocity=104 time=0.03264916666666667
EXTRACT: note_on channel=2 note=64 velocity=110 time=0
EXTRACT: note_on channel=2 note=67 velocity=114 time=0
EXTRACT: note_on channel=5 note=48 velocity=93 time=0
EXTRACT: note_on channel=5 note=52 velocity=89 time=0
EXTRACT: note_on channel=5 note=55 velocity=98 time=0
EXTRACT: note_on channel=9 note=42 velocity=61 time=0
EXTRACT: note_off channel=9 note=42 velocity=61 time=0.004664166666666666
EXTRACT: note_off channel=2 note=67 velocity=114 time=0.09328333333333333
EXTRACT: note_off channel=2 note=64 velocity=110 time=0
EXTRACT: note_off channel=2 note=60 velocity=104 time=0
EXTRACT: note_off channel=5 note=55 velocity=98 time=0
EXTRACT: note_off channel=5 note=52 velocity=89 time=0
EXTRACT: note_off channel=5 note=48 velocity=93 time=0
EXTRACT: note_on channel=1 note=31 velocity=121 time=0.1259325
EXTRACT: note_on channel=9 note=36 velocity=124 time=0
EXTRACT: note_on channel=9 note=42 velocity=76 time=0
EXTRACT: note_off channel=9 note=42 velocity=76 time=0.004664166666666666
EXTRACT: note_off channel=9 note=36 velocity=124 time=0
EXTRACT: note_off channel=1 note=31 velocity=121 time=0.18656666666666666
EXTRACT: note_on channel=1 note=36 velocity=114 time=0.03264916666666667
EXTRACT: note_on channel=9 note=42 velocity=67 time=0
EXTRACT: note_off channel=9 note=42 velocity=67 time=0.004664166666666666
EXTRACT: note_off channel=1 note=36 velocity=114 time=0.07462666666666666
EXTRACT: note_on channel=2 note=60 velocity=105 time=0.14458916666666666
EXTRACT: note_on channel=2 note=64 velocity=108 time=0
EXTRACT: note_on channel=2 note=67 velocity=95 time=0
EXTRACT: note_on channel=3 note=67 velocity=100 time=0
EXTRACT: note_on channel=3 note=72 velocity=94 time=0
EXTRACT: note_on channel=5 note=48 velocity=93 time=0
EXTRACT: note_on channel=5 note=52 velocity=90 time=0
EXTRACT: note_on channel=5 note=55 velocity=102 time=0
EXTRACT: note_on channel=9 note=38 velocity=123 time=0
EXTRACT: note_on channel=9 note=42 velocity=70 time=0
EXTRACT: note_off channel=9 note=42 velocity=70 time=0.004664166666666666
EXTRACT: note_off channel=9 note=38 velocity=123 time=0
EXTRACT: note_off channel=2 note=67 velocity=95 time=0.09328333333333333
EXTRACT: note_off channel=2 note=64 velocity=108 time=0
EXTRACT: note_off channel=2 note=60 velocity=105 time=0
EXTRACT: note_off channel=5 note=55 velocity=102 time=0
EXTRACT: note_off channel=5 note=52 velocity=90 time=0
EXTRACT: note_off channel=5 note=48 velocity=93 time=0
EXTRACT: note_off channel=3 note=72 velocity=94 time=0.11193999999999998
EXTRACT: note_off channel=3 note=67 velocity=100 time=0
EXTRACT: note_on channel=1 note=31 velocity=125 time=0.013992499999999998
EXTRACT: note_on channel=2 note=60 velocity=102 time=0
EXTRACT: note_on channel=2 note=64 velocity=113 time=0
EXTRACT: note_on channel=2 note=67 velocity=104 time=0
EXTRACT: note_on channel=5 note=48 velocity=100 time=0
EXTRACT: note_on channel=5 note=52 velocity=89 time=0
EXTRACT: note_on channel=5 note=55 velocity=88 time=0
EXTRACT: note_on channel=9 note=42 velocity=66 time=0
EXTRACT: note_off channel=9 note=42 velocity=66 time=0.004664166666666666
EXTRACT: note_off channel=2 note=67 velocity=104 time=0.09328333333333333
EXTRACT: note_off channel=2 note=64 velocity=113 time=0
EXTRACT: note_off channel=2 note=60 velocity=102 time=0
EXTRACT: note_off channel=5 note=55 velocity=88 time=0
EXTRACT: note_off channel=5 note=52 velocity=89 time=0
EXTRACT: note_off channel=5 note=48 velocity=100 time=0
EXTRACT: note_off channel=1 note=31 velocity=125 time=0.09328333333333333
EXTRACT: note_on channel=1 note=36 velocity=124 time=0.03264916666666667
EXTRACT: note_on channel=3 note=67 velocity=102 time=0
EXTRACT: note_on channel=3 note=70 velocity=91 time=0
EXTRACT: note_on channel=9 note=36 velocity=127 time=0
EXTRACT: note_on channel=9 note=42 velocity=73 time=0
EXTRACT: note_off channel=9 note=42 velocity=73 time=0.004664166666666666
EXTRACT: note_off channel=9 note=36 velocity=127 time=0
EXTRACT: control_change channel=3 control=1 value=82 time=0.10727583333333332
EXTRACT: note_off channel=1 note=36 velocity=124 time=0.07929083333333332
EXTRACT: note_on channel=9 note=42 velocity=60 time=0.03264916666666667
EXTRACT: note_off channel=9 note=42 velocity=60 time=0.004664166666666666
EXTRACT: note_on channel=1 note=36 velocity=121 time=0.2192158333333333
EXTRACT: note_on channel=2 note=60 velocity=103 time=0
EXTRACT: note_on channel=2 note=65 velocity=103 time=0
EXTRACT: note_on channel=2 note=67 velocity=98 time=0
EXTRACT: note_on channel=5 note=48 velocity=87 time=0
EXTRACT: note_on channel=5 note=53 velocity=102 time=0
EXTRACT: note_on channel=5 note=55 velocity=89 time=0
EXTRACT: note_on channel=9 note=38 velocity=119 time=0
EXTRACT: note_on channel=9 note=42 velocity=67 time=0
EXTRACT: note_off channel=9 note=42 velocity=67 time=0.004664166666666666
EXTRACT: note_off channel=9 note=38 velocity=119 time=0
EXTRACT: note_off channel=2 note=67 velocity=98 time=0.09328333333333333
EXTRACT: note_off channel=2 note=65 velocity=103 time=0
EXTRACT: note_off channel=2 note=60 velocity=103 time=0
EXTRACT: note_off channel=5 note=55 velocity=89 time=0
EXTRACT: note_off channel=5 note=53 velocity=102 time=0
EXTRACT: note_off channel=5 note=48 velocity=87 time=0
EXTRACT: note_off channel=1 note=36 velocity=121 time=0.09328333333333333
EXTRACT: note_on channel=2 note=60 velocity=102 time=0.03264916666666667
EXTRACT: note_on channel=2 note=65 velocity=105 time=0
EXTRACT: note_on channel=2 note=67 velocity=97 time=0
EXTRACT: note_on channel=5 note=48 velocity=86 time=0
EXTRACT: note_on channel=5 note=53 velocity=100 time=0
EXTRACT: note_on channel=5 note=55 velocity=98 time=0
EXTRACT: note_on channel=9 note=42 velocity=74 time=0
EXTRACT: note_off channel=9 note=42 velocity=74 time=0.004664166666666666
EXTRACT: note_off channel=2 note=67 velocity=97 time=0.09328333333333333
EXTRACT: note_off channel=2 note=65 velocity=105 time=0
EXTRACT: note_off channel=2 note=60 velocity=102 time=0
EXTRACT: note_off channel=5 note=55 velocity=98 time=0
EXTRACT: note_off channel=5 note=53 velocity=100 time=0
EXTRACT: note_off channel=5 note=48 velocity=86 time=0
EXTRACT: note_on channel=1 note=31 velocity=112 time=0.1259325
EXTRACT: note_on channel=9 note=36 velocity=123 time=0
EXTRACT: note_on channel=9 note=42 velocity=69 time=0
EXTRACT: note_off channel=9 note=42 velocity=69 time=0.004664166666666666
EXTRACT: note_off channel=9 note=36 velocity=123 time=0
EXTRACT: note_off channel=1 note=31 velocity=112 time=0.18656666666666666
EXTRACT: note_on channel=1 note=36 velocity=113 time=0.03264916666666667
EXTRACT: note_on channel=9 note=42 velocity=65 time=0
EXTRACT: note_off channel=9 note=42 velocity=65 time=0.004664166666666666
EXTRACT: note_off channel=1 note=36 velocity=113 time=0.07462666666666666
EXTRACT: note_off channel=3 note=70 velocity=91 time=0.13059666666666667
EXTRACT: note_off channel=3 note=67 velocity=102 time=0
EXTRACT: note_on channel=2 note=60 velocity=114 time=0.013992499999999998
EXTRACT: note_on channel=2 note=65 velocity=107 time=0
EXTRACT: note_on channel=2 note=67 velocity=113 time=0
EXTRACT: note_on channel=5 note=48 velocity=101 time=0
EXTRACT: note_on channel=5 note=53 velocity=94 time=0
EXTRACT: note_on channel=5 note=55 velocity=96 time=0
EXTRACT: note_on channel=9 note=38 velocity=118 time=0
EXTRACT: note_on channel=9 note=42 velocity=67 time=0
EXTRACT: note_off channel=9 note=42 velocity=67 time=0.004664166666666666
EXTRACT: note_off channel=9 note=38 velocity=118 time=0
EXTRACT: note_off channel=2 note=67 velocity=113 time=0.09328333333333333
EXTRACT: note_off channel=2 note=65 velocity=107 time=0
EXTRACT: note_off channel=2 note=60 velocity=114 time=0
EXTRACT: note_off channel=5 note=55 velocity=96 time=0
EXTRACT: note_off channel=5 note=53 velocity=94 time=0
EXTRACT: note_off channel=5 note=48 velocity=101 time=0
EXTRACT: note_on channel=1 note=31 velocity=126 time=0.1259325
EXTRACT: note_on channel=2 note=60 velocity=107 time=0
EXTRACT: note_on channel=2 note=65 velocity=95 time=0
EXTRACT: note_on channel=2 note=67 velocity=107 time=0
EXTRACT: control_change channel=3 control=1 value=0 time=0
EXTRACT: note_on channel=5 note=48 velocity=103 time=0
EXTRACT: note_on channel=5 note=53 velocity=91 time=0
EXTRACT: note_on channel=5 note=55 velocity=99 time=0
EXTRACT: note_on channel=9 note=42 velocity=72 time=0
EXTRACT: note_off channel=9 note=42 velocity=72 time=0.004664166666666666
EXTRACT: note_off channel=2 note=67 velocity=107 time=0.09328333333333333
EXTRACT: note_off channel=2 note=65 velocity=95 time=0
EXTRACT: note_off channel=2 note=60 velocity=107 time=0
EXTRACT: note_off channel=5 note=55 velocity=99 time=0
EXTRACT: note_off channel=5 note=53 velocity=91 time=0
EXTRACT: note_off channel=5 note=48 velocity=103 time=0
EXTRACT: note_off channel=1 note=31 velocity=126 time=0.09328333333333333
EXTRACT: note_on channel=1 note=36 velocity=111 time=0.03264916666666667
EXTRACT: note_on channel=3 note=60 velocity=96 time=0
EXTRACT: note_on channel=3 note=67 velocity=91 time=0
EXTRACT: note_on channel=9 note=36 velocity=127 time=0
EXTRACT: note_on channel=9 note=42 velocity=77 time=0
EXTRACT: note_on channel=9 note=45 velocity=111 time=0
EXTRACT: note_off channel=9 note=45 velocity=111 time=0.004664166666666666
EXTRACT: note_off channel=9 note=42 velocity=77 time=0
EXTRACT: note_off channel=9 note=36 velocity=127 time=0
EXTRACT: note_off channel=1 note=36 velocity=111 time=0.18656666666666666
EXTRACT: note_off channel=3 note=67 velocity=91 time=0.018656666666666665
EXTRACT: note_off channel=3 note=60 velocity=96 time=0
EXTRACT: note_on channel=9 note=42 velocity=60 time=0.013992499999999998
EXTRACT: note_on channel=9 note=45 velocity=117 time=0
EXTRACT: note_off channel=9 note=45 velocity=117 time=0.004664166666666666
EXTRACT: note_off channel=9 note=42 velocity=60 time=0
EXTRACT: note_on channel=1 note=36 velocity=124 time=0.2192158333333333
EXTRACT: note_on channel=2 note=60 velocity=110 time=0
EXTRACT: note_on channel=2 note=64 velocity=109 time=0
EXTRACT: note_on channel=2 note=67 velocity=99 time=0
EXTRACT: note_on channel=5 note=48 velocity=88 time=0
EXTRACT: note_on channel=5 note=52 velocity=96 time=0
EXTRACT: note_on channel=5 note=55 velocity=93 time=0
EXTRACT: note_on channel=9 note=38 velocity=127 time=0
EXTRACT: note_on channel=9 note=42 velocity=59 time=0
EXTRACT: note_off channel=9 note=42 velocity=59 time=0.004664166666666666
EXTRACT: note_off channel=9 note=38 velocity=127 time=0
EXTRACT: note_off channel=2 note=67 velocity=99 time=0.09328333333333333
EXTRACT: note_off channel=2 note=64 velocity=109 time=0
EXTRACT: note_off channel=2 note=60 velocity=110 time=0
EXTRACT: note_off channel=5 note=55 velocity=93 time=0
EXTRACT: note_off channel=5 note=52 velocity=96 time=0
EXTRACT: note_off channel=5 note=48 velocity=88 time=0
EXTRACT: note_off channel=1 note=36 velocity=124 time=0.09328333333333333
EXTRACT: note_on channel=2 note=60 velocity=105 time=0.03264916666666667
EXTRACT: note_on channel=2 note=64 velocity=105 time=0
EXTRACT: note_on channel=2 note=67 velocity=98 time=0
EXTRACT: note_on channel=5 note=48 velocity=103 time=0
EXTRACT: note_on channel=5 note=52 velocity=95 time=0
EXTRACT: note_on channel=5 note=55 velocity=90 time=0
EXTRACT: note_on channel=9 note=42 velocity=76 time=0
EXTRACT: note_off channel=9 note=42 velocity=76 time=0.004664166666666666
EXTRACT: note_off channel=2 note=67 velocity=98 time=0.09328333333333333
EXTRACT: note_off channel=2 note=64 velocity=105 time=0
EXTRACT: note_off channel=2 note=60 velocity=105 time=0
EXTRACT: note_off channel=5 note=55 velocity=90 time=0
EXTRACT: note_off channel=5 note=52 velocity=95 time=0
EXTRACT: note_off channel=5 note=48 velocity=103 time=0
EXTRACT: note_on channel=1 note=31 velocity=125 time=0.1259325
EXTRACT: note_on channel=9 note=36 velocity=127 time=0
EXTRACT: note_on channel=9 note=45 velocity=115 time=0
EXTRACT: note_on channel=9 note=46 velocity=110 time=0
EXTRACT: note_off channel=9 note=46 velocity=110 time=0.004664166666666666
EXTRACT: note_off channel=9 note=45 velocity=115 time=0
EXTRACT: note_off channel=9 note=36 velocity=127 time=0
EXTRACT: note_off channel=1 note=31 velocity=125 time=0.18656666666666666
EXTRACT: note_on channel=1 note=36 velocity=110 time=0.03264916666666667
EXTRACT: note_on channel=9 note=42 velocity=74 time=0
EXTRACT: note_on channel=9 note=45 velocity=120 time=0
EXTRACT: note_off channel=9 note=45 velocity=120 time=0.004664166666666666
EXTRACT: note_off channel=9 note=42 velocity=74 time=0
EXTRACT: note_off channel=1 note=36 velocity=110 time=0.07462666666666666
EXTRACT: note_on channel=2 note=60 velocity=107 time=0.14458916666666666
EXTRACT: note_on channel=2 note=64 velocity=102 time=0
EXTRACT: note_on channel=2 note=67 velocity=95 time=0
EXTRACT: note_on channel=5 note=48 velocity=95 time=0
EXTRACT: note_on channel=5 note=52 velocity=89 time=0
EXTRACT: note_on channel=5 note=55 velocity=105 time=0
EXTRACT: note_on channel=9 note=41 velocity=118 time=0
EXTRACT: note_on channel=9 note=46 velocity=112 time=0
EXTRACT: note_off channel=9 note=46 velocity=112 time=0.004664166666666666
EXTRACT: note_off channel=9 note=41 velocity=118 time=0
EXTRACT: note_off channel=2 note=67 velocity=95 time=0.09328333333333333
EXTRACT: note_off channel=2 note=64 velocity=102 time=0
EXTRACT: note_off channel=2 note=60 velocity=107 time=0
EXTRACT: note_off channel=5 note=55 velocity=105 time=0
EXTRACT: note_off channel=5 note=52 velocity=89 time=0
EXTRACT: note_off channel=5 note=48 velocity=95 time=0
EXTRACT: note_on channel=1 note=31 velocity=126 time=0.1259325
EXTRACT: note_on channel=2 note=60 velocity=108 time=0
EXTRACT: note_on channel=2 note=64 velocity=113 time=0
EXTRACT: note_on channel=2 note=67 velocity=114 time=0
EXTRACT: note_on channel=5 note=48 velocity=90 time=0
EXTRACT: note_on channel=5 note=52 velocity=89 time=0
EXTRACT: note_on channel=5 note=55 velocity=99 time=0
EXTRACT: note_on channel=9 note=41 velocity=115 time=0
EXTRACT: note_on channel=9 note=42 velocity=71 time=0
EXTRACT: note_off channel=9 note=42 velocity=71 time=0.004664166666666666
EXTRACT: note_off channel=9 note=41 velocity=115 time=0
EXTRACT: note_off channel=2 note=67 velocity=114 time=0.09328333333333333
EXTRACT: note_off channel=2 note=64 velocity=113 time=0
EXTRACT: note_off channel=2 note=60 velocity=108 time=0
EXTRACT: note_off channel=5 note=55 velocity=99 time=0
EXTRACT: note_off channel=5 note=52 velocity=89 time=0
EXTRACT: note_off channel=5 note=48 velocity=90 time=0
EXTRACT: note_off channel=1 note=31 velocity=126 time=0.09328333333333333
EXTRACT: note_on channel=1 note=36 velocity=124 time=0.03264916666666667
EXTRACT: note_on channel=3 note=67 velocity=101 time=0
EXTRACT: note_on channel=3 note=70 velocity=109 time=0
EXTRACT: note_on channel=4 note=46 velocity=122 time=0
EXTRACT: note_on channel=9 note=36 velocity=127 time=0
EXTRACT: note_on channel=9 note=49 velocity=108 time=0
EXTRACT: note_off channel=9 note=49 velocity=108 time=0.004664166666666666
EXTRACT: note_off channel=9 note=36 velocity=127 time=0
EXTRACT: control_change channel=3 control=1 value=83 time=0.10727583333333332
EXTRACT: note_off channel=1 note=36 velocity=124 time=0.09328333333333333
EXTRACT: note_on channel=9 note=42 velocity=76 time=0.018656666666666665
EXTRACT: note_off channel=9 note=42 velocity=76 time=0.004664166666666666
EXTRACT: note_on channel=1 note=36 velocity=122 time=0.2192158333333333
EXTRACT: note_on channel=2 note=60 velocity=104 time=0
EXTRACT: note_on channel=2 note=65 velocity=110 time=0
EXTRACT: note_on channel=2 note=67 velocity=110 time=0
EXTRACT: note_on channel=5 note=48 velocity=86 time=0
EXTRACT: note_on channel=5 note=53 velocity=102 time=0
EXTRACT: note_on channel=5 note=55 velocity=95 time=0
EXTRACT: note_on channel=9 note=38 velocity=120 time=0
EXTRACT: note_on channel=9 note=42 velocity=73 time=0
EXTRACT: note_off channel=9 note=42 velocity=73 time=0.004664166666666666
EXTRACT: note_off channel=9 note=38 velocity=120 time=0
EXTRACT: note_off channel=2 note=67 velocity=110 time=0.09328333333333333
EXTRACT: note_off channel=2 note=65 velocity=110 time=0
EXTRACT: note_off channel=2 note=60 velocity=104 time=0
EXTRACT: note_off channel=5 note=55 velocity=95 time=0
EXTRACT: note_off channel=5 note=53 velocity=102 time=0
EXTRACT: note_off channel=5 note=48 velocity=86 time=0
EXTRACT: note_off channel=1 note=36 velocity=122 time=0.10727583333333332
EXTRACT: note_off channel=4 note=46 velocity=122 time=0.004664166666666666
EXTRACT: note_on channel=2 note=60 velocity=106 time=0.013992499999999998
EXTRACT: note_on channel=2 note=65 velocity=97 time=0
EXTRACT: note_on channel=2 note=67 velocity=98 time=0
EXTRACT: note_on channel=4 note=53 velocity=123 time=0
EXTRACT: note_on channel=5 note=48 velocity=100 time=0
EXTRACT: note_on channel=5 note=53 velocity=95 time=0
EXTRACT: note_on channel=5 note=55 velocity=102 time=0
EXTRACT: note_on channel=9 note=42 velocity=60 time=0
EXTRACT: note_off channel=9 note=42 velocity=60 time=0.004664166666666666
EXTRACT: note_off channel=2 note=67 velocity=98 time=0.09328333333333333
EXTRACT: note_off channel=2 note=65 velocity=97 time=0
EXTRACT: note_off channel=2 note=60 velocity=106 time=0
EXTRACT: note_off channel=5 note=55 velocity=102 time=0
EXTRACT: note_off channel=5 note=53 velocity=95 time=0
EXTRACT: note_off channel=5 note=48 velocity=100 time=0
EXTRACT: note_on channel=1 note=31 velocity=117 time=0.1259325
EXTRACT: note_on channel=9 note=36 velocity=125 time=0
EXTRACT: note_on channel=9 note=42 velocity=61 time=0
EXTRACT: note_off channel=9 note=42 velocity=61 time=0.004664166666666666
EXTRACT: note_off channel=9 note=36 velocity=125 time=0
EXTRACT: note_off channel=1 note=31 velocity=117 time=0.20055916666666665
EXTRACT: note_off channel=3 note=70 velocity=109 time=0.004664166666666666
EXTRACT: note_off channel=3 note=67 velocity=101 time=0
EXTRACT: note_on channel=1 note=36 velocity=113 time=0.013992499999999998
EXTRACT: note_on channel=9 note=42 velocity=66 time=0
EXTRACT: note_off channel=9 note=42 velocity=66 time=0.004664166666666666
EXTRACT: note_off channel=1 note=36 velocity=113 time=0.08861916666666667
EXTRACT: note_on channel=2 note=60 velocity=96 time=0.13059666666666667
EXTRACT: note_on channel=2 note=65 velocity=102 time=0
EXTRACT: note_on channel=2 note=67 velocity=95 time=0
EXTRACT: note_on channel=5 note=48 velocity=98 time=0
EXTRACT: note_on channel=5 note=53 velocity=90 time=0
EXTRACT: note_on channel=5 note=55 velocity=91 time=0
EXTRACT: note_on channel=9 note=38 velocity=127 time=0
EXTRACT: note_on channel=9 note=42 velocity=71 time=0
EXTRACT: note_off channel=9 note=42 velocity=71 time=0.004664166666666666
EXTRACT: note_off channel=9 note=38 velocity=127 time=0
EXTRACT: note_off channel=2 note=67 velocity=95 time=0.09328333333333333
EXTRACT: note_off channel=2 note=65 velocity=102 time=0
EXTRACT: note_off channel=2 note=60 velocity=96 time=0
EXTRACT: note_off channel=5 note=55 velocity=91 time=0
EXTRACT: note_off channel=5 note=53 velocity=90 time=0
EXTRACT: note_off channel=5 note=48 velocity=98 time=0
EXTRACT: note_off channel=4 note=53 velocity=123 time=0.11193999999999998
EXTRACT: note_on channel=1 note=31 velocity=119 time=0.013992499999999998
EXTRACT: note_on channel=2 note=60 velocity=106 time=0
EXTRACT: note_on channel=2 note=65 velocity=109 time=0
EXTRACT: note_on channel=2 note=67 velocity=105 time=0
EXTRACT: control_change channel=3 control=1 value=0 time=0
EXTRACT: note_on channel=5 note=48 velocity=97 time=0
EXTRACT: note_on channel=5 note=53 velocity=104 time=0
EXTRACT: note_on channel=5 note=55 velocity=92 time=0
EXTRACT: note_on channel=9 note=42 velocity=74 time=0
EXTRACT: note_off channel=9 note=42 velocity=74 time=0.004664166666666666
EXTRACT: note_off channel=2 note=67 velocity=105 time=0.09328333333333333
EXTRACT: note_off channel=2 note=65 velocity=109 time=0
EXTRACT: note_off channel=2 note=60 velocity=106 time=0
EXTRACT: note_off channel=5 note=55 velocity=92 time=0
EXTRACT: note_off channel=5 note=53 velocity=104 time=0
EXTRACT: note_off channel=5 note=48 velocity=97 time=0
EXTRACT: note_off channel=1 note=31 velocity=119 time=0.10727583333333332
EXTRACT: note_on channel=1 note=36 velocity=125 time=0.018656666666666665
EXTRACT: note_on channel=3 note=60 velocity=97 time=0
EXTRACT: note_on channel=3 note=67 velocity=109 time=0
EXTRACT: note_on channel=4 note=52 velocity=123 time=0
EXTRACT: note_on channel=9 note=36 velocity=125 time=0
EXTRACT: note_on channel=9 note=42 velocity=62 time=0
EXTRACT: note_off channel=9 note=42 velocity=62 time=0.004664166666666666
EXTRACT: note_off channel=9 note=36 velocity=125 time=0
EXTRACT: note_off channel=1 note=36 velocity=125 time=0.20055916666666665
EXTRACT: note_off channel=3 note=67 velocity=109 time=0.004664166666666666
EXTRACT: note_off channel=3 note=60 velocity=97 time=0
EXTRACT: note_off channel=4 note=52 velocity=123 time=0
EXTRACT: note_on channel=4 note=50 velocity=119 time=0.013992499999999998
EXTRACT: note_on channel=9 note=42 velocity=73 time=0
EXTRACT: note_off channel=9 note=42 velocity=73 time=0.004664166666666666
EXTRACT: note_off channel=4 note=50 velocity=119 time=0.2052233333333333
EXTRACT: note_on channel=1 note=36 velocity=115 time=0.013992499999999998
EXTRACT: note_on channel=2 note=60 velocity=112 time=0
EXTRACT: note_on channel=2 note=64 velocity=112 time=0
EXTRACT: note_on channel=2 note=67 velocity=99 time=0
EXTRACT: note_on channel=4 note=48 velocity=127 time=0
EXTRACT: note_on channel=5 note=48 velocity=101 time=0
EXTRACT: note_on channel=5 note=52 velocity=99 time=0
EXTRACT: note_on channel=5 note=55 velocity=97 time=0
EXTRACT: note_on channel=9 note=38 velocity=127 time=0
EXTRACT: note_on channel=9 note=42 velocity=71 time=0
EXTRACT: note_off channel=9 note=42 velocity=71 time=0.004664166666666666
EXTRACT: note_off channel=9 note=38 velocity=127 time=0
EXTRACT: note_off channel=2 note=67 velocity=99 time=0.09328333333333333
EXTRACT: note_off channel=2 note=64 velocity=112 time=0
EXTRACT: note_off channel=2 note=60 velocity=112 time=0
EXTRACT: note_off channel=5 note=55 velocity=97 time=0
EXTRACT: note_off channel=5 note=52 velocity=99 time=0
EXTRACT: note_off channel=5 note=48 velocity=101 time=0
EXTRACT: note_off channel=1 note=36 velocity=115 time=0.10727583333333332
EXTRACT: note_off channel=4 note=48 velocity=127 time=0.004664166666666666
EXTRACT: note_on channel=2 note=60 velocity=102 time=0.013992499999999998
EXTRACT: note_on channel=2 note=64 velocity=101 time=0
EXTRACT: note_on channel=2 note=67 velocity=112 time=0
EXTRACT: note_on channel=5 note=48 velocity=105 time=0
EXTRACT: note_on channel=5 note=52 velocity=102 time=0
EXTRACT: note_on channel=5 note=55 velocity=95 time=0
EXTRACT: note_on channel=9 note=42 velocity=72 time=0
EXTRACT: note_off channel=9 note=42 velocity=72 time=0.004664166666666666
EXTRACT: note_off channel=2 note=67 velocity=112 time=0.09328333333333333
EXTRACT: note_off channel=2 note=64 velocity=101 time=0
EXTRACT: note_off channel=2 note=60 velocity=102 time=0
EXTRACT: note_off channel=5 note=55 velocity=95 time=0
EXTRACT: note_off channel=5 note=52 velocity=102 time=0
EXTRACT: note_off channel=5 note=48 velocity=105 time=0
EXTRACT: note_on channel=1 note=31 velocity=108 time=0.1259325
EXTRACT: note_on channel=4 note=48 velocity=112 time=0
EXTRACT: note_on channel=9 note=36 velocity=127 time=0
EXTRACT: note_on channel=9 note=46 velocity=119 time=0
EXTRACT: note_off channel=9 note=46 velocity=119 time=0.004664166666666666
EXTRACT: note_off channel=9 note=36 velocity=127 time=0
EXTRACT: note_off channel=1 note=31 velocity=108 time=0.20055916666666665
EXTRACT: note_off channel=4 note=48 velocity=112 time=0.004664166666666666
EXTRACT: note_on channel=1 note=36 velocity=124 time=0.013992499999999998
EXTRACT: note_on channel=9 note=42 velocity=68 time=0
EXTRACT: note_off channel=9 note=42 velocity=68 time=0.004664166666666666
EXTRACT: note_off channel=1 note=36 velocity=124 time=0.08861916666666667
EXTRACT: note_on channel=2 note=60 velocity=114 time=0.13059666666666667
EXTRACT: note_on channel=2 note=64 velocity=106 time=0
EXTRACT: note_on channel=2 note=67 velocity=105 time=0
EXTRACT: note_on channel=3 note=67 velocity=95 time=0
EXTRACT: note_on channel=3 note=72 velocity=107 time=0
EXTRACT: note_on channel=5 note=48 velocity=105 time=0
EXTRACT: note_on channel=5 note=52 velocity=102 time=0
EXTRACT: note_on channel=5 note=55 velocity=87 time=0
EXTRACT: note_on channel=9 note=38 velocity=121 time=0
EXTRACT: note_on channel=9 note=46 velocity=118 time=0
EXTRACT: note_off channel=9 note=46 velocity=118 time=0.004664166666666666
EXTRACT: note_off channel=9 note=38 velocity=121 time=0
EXTRACT: note_off channel=2 note=67 velocity=105 time=0.09328333333333333
EXTRACT: note_off channel=2 note=64 velocity=106 time=0
EXTRACT: note_off channel=2 note=60 velocity=114 time=0
EXTRACT: note_off channel=5 note=55 velocity=87 time=0
EXTRACT: note_off channel=5 note=52 velocity=102 time=0
EXTRACT: note_off channel=5 note=48 velocity=105 time=0
EXTRACT: note_off channel=3 note=72 velocity=107 time=0.11193999999999998
EXTRACT: note_off channel=3 note=67 velocity=95 time=0
EXTRACT: note_on channel=1 note=31 velocity=126 time=0.013992499999999998
EXTRACT: note_on channel=2 note=60 velocity=96 time=0
EXTRACT: note_on channel=2 note=64 velocity=106 time=0
EXTRACT: note_on channel=2 note=67 velocity=99 time=0
EXTRACT: note_on channel=5 note=48 velocity=99 time=0
EXTRACT: note_on channel=5 note=52 velocity=94 time=0
EXTRACT: note_on channel=5 note=55 velocity=101 time=0
EXTRACT: note_on channel=9 note=42 velocity=72 time=0
EXTRACT: note_off channel=9 note=42 velocity=72 time=0.004664166666666666
EXTRACT: note_off channel=2 note=67 velocity=99 time=0.09328333333333333
EXTRACT: note_off channel=2 note=64 velocity=106 time=0
EXTRACT: note_off channel=2 note=60 velocity=96 time=0
EXTRACT: note_off channel=5 note=55 velocity=101 time=0
EXTRACT: note_off channel=5 note=52 velocity=94 time=0
EXTRACT: note_off channel=5 note=48 velocity=99 time=0
EXTRACT: note_off channel=1 note=31 velocity=126 time=0.10727583333333332
EXTRACT: note_on channel=1 note=36 velocity=112 time=0.018656666666666665
EXTRACT: note_on channel=3 note=67 velocity=93 time=0
EXTRACT: note_on channel=3 note=70 velocity=104 time=0
EXTRACT: note_on channel=4 note=46 velocity=124 time=0
EXTRACT: note_on channel=9 note=36 velocity=122 time=0
EXTRACT: note_on channel=9 note=42 velocity=75 time=0
EXTRACT: note_off channel=9 note=42 velocity=75 time=0.004664166666666666
EXTRACT: note_off channel=9 note=36 velocity=122 time=0
EXTRACT: control_change channel=3 control=1 value=82 time=0.10727583333333332
EXTRACT: note_off channel=1 note=36 velocity=112 time=0.09328333333333333
EXTRACT: note_on channel=9 note=42 velocity=74 time=0.018656666666666665
EXTRACT: note_off channel=9 note=42 velocity=74 time=0.004664166666666666
EXTRACT: note_on channel=1 note=36 velocity=111 time=0.2192158333333333
EXTRACT: note_on channel=2 note=60 velocity=108 time=0
EXTRACT: note_on channel=2 note=65 velocity=106 time=0
EXTRACT: note_on channel=2 note=67 velocity=106 time=0
EXTRACT: note_on channel=5 note=48 velocity=93 time=0
EXTRACT: note_on channel=5 note=53 velocity=98 time=0
EXTRACT: note_on channel=5 note=55 velocity=99 time=0
EXTRACT: note_on channel=9 note=38 velocity=124 time=0
EXTRACT: note_on channel=9 note=42 velocity=70 time=0
EXTRACT: note_off channel=9 note=42 velocity=70 time=0.004664166666666666
EXTRACT: note_off channel=9 note=38 velocity=124 time=0
EXTRACT: note_off channel=2 note=67 velocity=106 time=0.09328333333333333
EXTRACT: note_off channel=2 note=65 velocity=106 time=0
EXTRACT: note_off channel=2 note=60 velocity=108 time=0
EXTRACT: note_off channel=5 note=55 velocity=99 time=0
EXTRACT: note_off channel=5 note=53 velocity=98 time=0
EXTRACT: note_off channel=5 note=48 velocity=93 time=0
EXTRACT: note_off channel=1 note=36 velocity=111 time=0.10727583333333332
EXTRACT: note_off channel=4 note=46 velocity=124 time=0.004664166666666666
EXTRACT: note_on channel=2 note=60 velocity=102 time=0.013992499999999998
EXTRACT: note_on channel=2 note=65 velocity=100 time=0
EXTRACT: note_on channel=2 note=67 velocity=104 time=0
EXTRACT: note_on channel=4 note=53 velocity=127 time=0
EXTRACT: note_on channel=5 note=48 velocity=105 time=0
EXTRACT: note_on channel=5 note=53 velocity=93 time=0
EXTRACT: note_on channel=5 note=55 velocity=94 time=0
EXTRACT: note_on channel=9 note=42 velocity=64 time=0
EXTRACT: note_off channel=9 note=42 velocity=64 time=0.004664166666666666
EXTRACT: note_off channel=2 note=67 velocity=104 time=0.09328333333333333
EXTRACT: note_off channel=2 note=65 velocity=100 time=0
EXTRACT: note_off channel=2 note=60 velocity=102 time=0
EXTRACT: note_off channel=5 note=55 velocity=94 time=0
EXTRACT: note_off channel=5 note=53 velocity=93 time=0
EXTRACT: note_off channel=5 note=48 velocity=105 time=0
EXTRACT: note_on channel=1 note=31 velocity=107 time=0.1259325
EXTRACT: note_on channel=9 note=36 velocity=127 time=0
EXTRACT: note_on channel=9 note=42 velocity=75 time=0
EXTRACT: note_off channel=9 note=42 velocity=75 time=0.004664166666666666
EXTRACT: note_off channel=9 note=36 velocity=127 time=0
EXTRACT: note_off channel=1 note=31 velocity=107 time=0.20055916666666665
EXTRACT: note_on channel=1 note=36 velocity=120 time=0.018656666666666665
EXTRACT: note_on channel=9 note=42 velocity=71 time=0
EXTRACT: note_off channel=9 note=42 velocity=71 time=0.004664166666666666
EXTRACT: note_off channel=1 note=36 velocity=120 time=0.08861916666666667
EXTRACT: note_off channel=3 note=70 velocity=104 time=0.11660416666666666
EXTRACT: note_off channel=3 note=67 velocity=93 time=0
EXTRACT: note_on channel=2 note=60 velocity=113 time=0.013992499999999998
EXTRACT: note_on channel=2 note=65 velocity=103 time=0
EXTRACT: note_on channel=2 note=67 velocity=97 time=0
EXTRACT: note_on channel=5 note=48 velocity=89 time=0
EXTRACT: note_on channel=5 note=53 velocity=104 time=0
EXTRACT: note_on channel=5 note=55 velocity=87 time=0
EXTRACT: note_on channel=9 note=38 velocity=115 time=0
EXTRACT: note_on channel=9 note=42 velocity=60 time=0
EXTRACT: note_off channel=9 note=42 velocity=60 time=0.004664166666666666
EXTRACT: note_off channel=9 note=38 velocity=115 time=0
EXTRACT: note_off channel=2 note=67 velocity=97 time=0.09328333333333333
EXTRACT: note_off channel=2 note=65 velocity=103 time=0
EXTRACT: note_off channel=2 note=60 velocity=113 time=0
EXTRACT: note_off channel=5 note=55 velocity=87 time=0
EXTRACT: note_off channel=5 note=53 velocity=104 time=0
EXTRACT: note_off channel=5 note=48 velocity=89 time=0
EXTRACT: note_on channel=1 note=31 velocity=119 time=0.1259325
EXTRACT: note_on channel=2 note=60 velocity=103 time=0
EXTRACT: note_on channel=2 note=65 velocity=108 time=0
EXTRACT: note_on channel=2 note=67 velocity=105 time=0
EXTRACT: control_change channel=3 control=1 value=0 time=0
EXTRACT: note_on channel=5 note=48 velocity=93 time=0
EXTRACT: note_on channel=5 note=53 velocity=89 time=0
EXTRACT: note_on channel=5 note=55 velocity=105 time=0
EXTRACT: note_on channel=9 note=42 velocity=73 time=0
EXTRACT: note_off channel=9 note=42 velocity=73 time=0.004664166666666666
EXTRACT: note_off channel=2 note=67 velocity=105 time=0.09328333333333333
EXTRACT: note_off channel=2 note=65 velocity=108 time=0
EXTRACT: note_off channel=2 note=60 velocity=103 time=0
EXTRACT: note_off channel=5 note=55 velocity=105 time=0
EXTRACT: note_off channel=5 note=53 velocity=89 time=0
EXTRACT: note_off channel=5 note=48 velocity=93 time=0
EXTRACT: note_off channel=1 note=31 velocity=119 time=0.10727583333333332
EXTRACT: note_off channel=4 note=53 velocity=127 time=0.004664166666666666
EXTRACT: note_on channel=1 note=36 velocity=111 time=0.013992499999999998
EXTRACT: note_on channel=3 note=60 velocity=93 time=0
EXTRACT: note_on channel=3 note=67 velocity=109 time=0
EXTRACT: note_on channel=4 note=52 velocity=122 time=0
EXTRACT: note_on channel=9 note=36 velocity=125 time=0
EXTRACT: note_on channel=9 note=42 velocity=58 time=0
EXTRACT: note_off channel=9 note=42 velocity=58 time=0.004664166666666666
EXTRACT: note_off channel=9 note=36 velocity=125 time=0
EXTRACT: note_off channel=1 note=36 velocity=111 time=0.20055916666666665
EXTRACT: note_off channel=3 note=67 velocity=109 time=0.004664166666666666
EXTRACT: note_off channel=3 note=60 velocity=93 time=0
EXTRACT: note_off channel=4 note=52 velocity=122 time=0
EXTRACT: note_on channel=4 note=50 velocity=119 time=0.013992499999999998
EXTRACT: note_on channel=9 note=42 velocity=60 time=0
EXTRACT: note_off channel=9 note=42 velocity=60 time=0.004664166666666666
EXTRACT: note_off channel=4 note=50 velocity=119 time=0.2052233333333333
EXTRACT: note_on channel=1 note=36 velocity=113 time=0.013992499999999998
EXTRACT: note_on channel=2 note=60 velocity=114 time=0
EXTRACT: note_on channel=2 note=64 velocity=104 time=0
EXTRACT: note_on channel=2 note=67 velocity=109 time=0
EXTRACT: note_on channel=4 note=57 velocity=123 time=0
EXTRACT: note_on channel=5 note=48 velocity=95 time=0
EXTRACT: note_on channel=5 note=52 velocity=97 time=0
EXTRACT: note_on channel=5 note=55 velocity=93 time=0
EXTRACT: note_on channel=9 note=38 velocity=116 time=0
EXTRACT: note_on channel=9 note=42 velocity=58 time=0
EXTRACT: note_off channel=9 note=42 velocity=58 time=0.004664166666666666
EXTRACT: note_off channel=9 note=38 velocity=116 time=0
EXTRACT: note_off channel=2 note=67 velocity=109 time=0.09328333333333333
EXTRACT: note_off channel=2 note=64 velocity=104 time=0
EXTRACT: note_off channel=2 note=60 velocity=114 time=0
EXTRACT: note_off channel=5 note=55 velocity=93 time=0
EXTRACT: note_off channel=5 note=52 velocity=97 time=0
EXTRACT: note_off channel=5 note=48 velocity=95 time=0
EXTRACT: note_off channel=1 note=36 velocity=113 time=0.10727583333333332
EXTRACT: note_off channel=4 note=57 velocity=123 time=0.004664166666666666
EXTRACT: note_on channel=2 note=60 velocity=97 time=0.013992499999999998
EXTRACT: note_on channel=2 note=64 velocity=114 time=0
EXTRACT: note_on channel=2 note=67 velocity=112 time=0
EXTRACT: note_on channel=5 note=48 velocity=103 time=0
EXTRACT: note_on channel=5 note=52 velocity=89 time=0
EXTRACT: note_on channel=5 note=55 velocity=94 time=0
EXTRACT: note_on channel=9 note=42 velocity=71 time=0
EXTRACT: note_off channel=9 note=42 velocity=71 time=0.004664166666666666
EXTRACT: note_off channel=2 note=67 velocity=112 time=0.09328333333333333
EXTRACT: note_off channel=2 note=64 velocity=114 time=0
EXTRACT: note_off channel=2 note=60 velocity=97 time=0
EXTRACT: note_off channel=5 note=55 velocity=94 time=0
EXTRACT: note_off channel=5 note=52 velocity=89 time=0
EXTRACT: note_off channel=5 note=48 velocity=103 time=0
EXTRACT: note_on channel=1 note=31 velocity=126 time=0.1259325
EXTRACT: note_on channel=4 note=55 velocity=116 time=0
EXTRACT: note_on channel=9 note=36 velocity=127 time=0
EXTRACT: note_on channel=9 note=42 velocity=58 time=0
EXTRACT: note_off channel=9 note=42 velocity=58 time=0.004664166666666666
EXTRACT: note_off channel=9 note=36 velocity=127 time=0
EXTRACT: note_off channel=1 note=31 velocity=126 time=0.20055916666666665
EXTRACT: note_on channel=1 note=36 velocity=114 time=0.018656666666666665
EXTRACT: note_on channel=9 note=81 velocity=99 time=0
EXTRACT: note_on channel=9 note=42 velocity=69 time=0
EXTRACT: note_off channel=9 note=42 velocity=69 time=0.004664166666666666
EXTRACT: note_off channel=9 note=81 velocity=99 time=0
EXTRACT: note_off channel=1 note=36 velocity=114 time=0.08861916666666667
EXTRACT: note_off channel=4 note=55 velocity=116 time=0.004664166666666666
EXTRACT: note_on channel=2 note=60 velocity=95 time=0.1259325
EXTRACT: note_on channel=2 note=64 velocity=95 time=0
EXTRACT: note_on channel=2 note=67 velocity=99 time=0
EXTRACT: note_on channel=5 note=48 velocity=98 time=0
EXTRACT: note_on channel=5 note=52 velocity=98 time=0
EXTRACT: note_on channel=5 note=55 velocity=102 time=0
EXTRACT: note_on channel=9 note=38 velocity=127 time=0
EXTRACT: note_on channel=9 note=42 velocity=74 time=0
EXTRACT: note_off channel=9 note=42 velocity=74 time=0.004664166666666666
EXTRACT: note_off channel=9 note=38 velocity=127 time=0
EXTRACT: note_off channel=2 note=67 velocity=99 time=0.09328333333333333
EXTRACT: note_off channel=2 note=64 velocity=95 time=0
EXTRACT: note_off channel=2 note=60 velocity=95 time=0
EXTRACT: note_off channel=5 note=55 velocity=102 time=0
EXTRACT: note_off channel=5 note=52 velocity=98 time=0
EXTRACT: note_off channel=5 note=48 velocity=98 time=0
EXTRACT: note_on channel=1 note=31 velocity=107 time=0.1259325
EXTRACT: note_on channel=2 note=60 velocity=111 time=0
EXTRACT: note_on channel=2 note=64 velocity=112 time=0
EXTRACT: note_on channel=2 note=67 velocity=106 time=0
EXTRACT: note_on channel=5 note=48 velocity=102 time=0
EXTRACT: note_on channel=5 note=52 velocity=93 time=0
EXTRACT: note_on channel=5 note=55 velocity=87 time=0
EXTRACT: note_on channel=9 note=81 velocity=93 time=0
EXTRACT: note_on channel=9 note=42 velocity=73 time=0
EXTRACT: note_off channel=9 note=42 velocity=73 time=0.004664166666666666
EXTRACT: note_off channel=9 note=81 velocity=93 time=0
EXTRACT: note_off channel=2 note=67 velocity=106 time=0.09328333333333333
EXTRACT: note_off channel=2 note=64 velocity=112 time=0
EXTRACT: note_off channel=2 note=60 velocity=111 time=0
EXTRACT: note_off channel=5 note=55 velocity=87 time=0
EXTRACT: note_off channel=5 note=52 velocity=93 time=0
EXTRACT: note_off channel=5 note=48 velocity=102 time=0
EXTRACT: note_off channel=1 note=31 velocity=107 time=0.10727583333333332
EXTRACT: note_on channel=1 note=36 velocity=107 time=0.018656666666666665
EXTRACT: note_on channel=3 note=67 velocity=105 time=0
EXTRACT: note_on channel=3 note=70 velocity=95 time=0
EXTRACT: note_on channel=4 note=58 velocity=127 time=0
EXTRACT: note_on channel=9 note=36 velocity=120 time=0
EXTRACT: note_on channel=9 note=42 velocity=72 time=0
EXTRACT: note_off channel=9 note=42 velocity=72 time=0.004664166666666666
EXTRACT: note_off channel=9 note=36 velocity=120 time=0
EXTRACT: control_change channel=3 control=1 value=83 time=0.10727583333333332
EXTRACT: note_off channel=1 note=36 velocity=107 time=0.09328333333333333
EXTRACT: note_on channel=9 note=42 velocity=66 time=0.018656666666666665
EXTRACT: note_off channel=9 note=42 velocity=66 time=0.004664166666666666
EXTRACT: note_on channel=1 note=36 velocity=113 time=0.2192158333333333
EXTRACT: note_on channel=2 note=60 velocity=101 time=0
EXTRACT: note_on channel=2 note=65 velocity=103 time=0
EXTRACT: note_on channel=2 note=67 velocity=106 time=0
EXTRACT: note_on channel=5 note=48 velocity=87 time=0
EXTRACT: note_on channel=5 note=53 velocity=99 time=0
EXTRACT: note_on channel=5 note=55 velocity=102 time=0
EXTRACT: note_on channel=9 note=38 velocity=127 time=0
EXTRACT: note_on channel=9 note=42 velocity=68 time=0
EXTRACT: note_off channel=9 note=42 velocity=68 time=0.004664166666666666
EXTRACT: note_off channel=9 note=38 velocity=127 time=0
EXTRACT: note_off channel=2 note=67 velocity=106 time=0.09328333333333333
EXTRACT: note_off channel=2 note=65 velocity=103 time=0
EXTRACT: note_off channel=2 note=60 velocity=101 time=0
EXTRACT: note_off channel=5 note=55 velocity=102 time=0
EXTRACT: note_off channel=5 note=53 velocity=99 time=0
EXTRACT: note_off channel=5 note=48 velocity=87 time=0
EXTRACT: note_off channel=1 note=36 velocity=113 time=0.10727583333333332
EXTRACT: note_off channel=4 note=58 velocity=127 time=0.004664166666666666
EXTRACT: note_on channel=2 note=60 velocity=113 time=0.013992499999999998
EXTRACT: note_on channel=2 note=65 velocity=101 time=0
EXTRACT: note_on channel=2 note=67 velocity=96 time=0
EXTRACT: note_on channel=4 note=65 velocity=124 time=0
EXTRACT: note_on channel=5 note=48 velocity=87 time=0
EXTRACT: note_on channel=5 note=53 velocity=94 time=0
EXTRACT: note_on channel=5 note=55 velocity=101 time=0
EXTRACT: note_on channel=9 note=42 velocity=60 time=0
EXTRACT: note_off channel=9 note=42 velocity=60 time=0.004664166666666666
EXTRACT: note_off channel=2 note=67 velocity=96 time=0.09328333333333333
EXTRACT: note_off channel=2 note=65 velocity=101 time=0
EXTRACT: note_off channel=2 note=60 velocity=113 time=0
EXTRACT: note_off channel=5 note=55 velocity=101 time=0
EXTRACT: note_off channel=5 note=53 velocity=94 time=0
EXTRACT: note_off channel=5 note=48 velocity=87 time=0
EXTRACT: note_on channel=1 note=31 velocity=114 time=0.1259325
EXTRACT: note_on channel=9 note=36 velocity=127 time=0
EXTRACT: note_on channel=9 note=42 velocity=65 time=0
EXTRACT: note_off channel=9 note=42 velocity=65 time=0.004664166666666666
EXTRACT: note_off channel=9 note=36 velocity=127 time=0
EXTRACT: note_off channel=1 note=31 velocity=114 time=0.20055916666666665
EXTRACT: note_off channel=3 note=70 velocity=95 time=0.004664166666666666
EXTRACT: note_off channel=3 note=67 velocity=105 time=0
EXTRACT: note_on channel=1 note=36 velocity=110 time=0.013992499999999998
EXTRACT: note_on channel=9 note=42 velocity=62 time=0
EXTRACT: note_off channel=9 note=42 velocity=62 time=0.004664166666666666
EXTRACT: note_off channel=1 note=36 velocity=110 time=0.08861916666666667
EXTRACT: note_on channel=2 note=60 velocity=98 time=0.13059666666666667
EXTRACT: note_on channel=2 note=65 velocity=111 time=0
EXTRACT: note_on channel=2 note=67 velocity=100 time=0
EXTRACT: note_on channel=5 note=48 velocity=86 time=0
EXTRACT: note_on channel=5 note=53 velocity=93 time=0
EXTRACT: note_on channel=5 note=55 velocity=100 time=0
EXTRACT: note_on channel=9 note=38 velocity=127 time=0
EXTRACT: note_on channel=9 note=42 velocity=71 time=0
EXTRACT: note_off channel=9 note=42 velocity=71 time=0.004664166666666666
EXTRACT: note_off channel=9 note=38 velocity=127 time=0
EXTRACT: note_off channel=2 note=67 velocity=100 time=0.09328333333333333
EXTRACT: note_off channel=2 note=65 velocity=111 time=0
EXTRACT: note_off channel=2 note=60 velocity=98 time=0
EXTRACT: note_off channel=5 note=55 velocity=100 time=0
EXTRACT: note_off channel=5 note=53 velocity=93 time=0
EXTRACT: note_off channel=5 note=48 velocity=86 time=0
EXTRACT: note_on channel=1 note=31 velocity=121 time=0.1259325
EXTRACT: note_on channel=2 note=60 velocity=95 time=0
EXTRACT: note_on channel=2 note=65 velocity=109 time=0
EXTRACT: note_on channel=2 note=67 velocity=105 time=0
EXTRACT: control_change channel=3 control=1 value=0 time=0
EXTRACT: note_on channel=5 note=48 velocity=94 time=0
EXTRACT: note_on channel=5 note=53 velocity=103 time=0
EXTRACT: note_on channel=5 note=55 velocity=98 time=0
EXTRACT: note_on channel=9 note=42 velocity=73 time=0
EXTRACT: note_off channel=9 note=42 velocity=73 time=0.004664166666666666
EXTRACT: note_off channel=2 note=67 velocity=105 time=0.09328333333333333
EXTRACT: note_off channel=2 note=65 velocity=109 time=0
EXTRACT: note_off channel=2 note=60 velocity=95 time=0
EXTRACT: note_off channel=5 note=55 velocity=98 time=0
EXTRACT: note_off channel=5 note=53 velocity=103 time=0
EXTRACT: note_off channel=5 note=48 velocity=94 time=0
EXTRACT: note_off channel=1 note=31 velocity=121 time=0.10727583333333332
EXTRACT: note_off channel=4 note=65 velocity=124 time=0.004664166666666666
EXTRACT: note_on channel=1 note=36 velocity=124 time=0.013992499999999998
EXTRACT: note_on channel=3 note=60 velocity=100 time=0
EXTRACT: note_on channel=3 note=67 velocity=91 time=0
EXTRACT: note_on channel=4 note=64 velocity=122 time=0
EXTRACT: note_on channel=9 note=36 velocity=127 time=0
EXTRACT: note_on channel=9 note=42 velocity=63 time=0
EXTRACT: note_off channel=9 note=42 velocity=63 time=0.004664166666666666
EXTRACT: note_off channel=9 note=36 velocity=127 time=0
EXTRACT: note_off channel=1 note=36 velocity=124 time=0.20055916666666665
EXTRACT: note_off channel=3 note=67 velocity=91 time=0.004664166666666666
EXTRACT: note_off channel=3 note=60 velocity=100 time=0
EXTRACT: note_off channel=4 note=64 velocity=122 time=0
EXTRACT: note_on channel=4 note=62 velocity=118 time=0.013992499999999998
EXTRACT: note_on channel=9 note=42 velocity=62 time=0
EXTRACT: note_off channel=9 note=42 velocity=62 time=0.004664166666666666
EXTRACT: note_off channel=4 note=62 velocity=118 time=0.2052233333333333
EXTRACT: note_on channel=1 note=36 velocity=111 time=0.013992499999999998
EXTRACT: note_on channel=2 note=60 velocity=103 time=0
EXTRACT: note_on channel=2 note=64 velocity=96 time=0
EXTRACT: note_on channel=2 note=67 velocity=108 time=0
EXTRACT: note_on channel=4 note=60 velocity=125 time=0
EXTRACT: note_on channel=5 note=48 velocity=92 time=0
EXTRACT: note_on channel=5 note=52 velocity=98 time=0
EXTRACT: note_on channel=5 note=55 velocity=94 time=0
EXTRACT: note_on channel=9 note=38 velocity=113 time=0
EXTRACT: note_on channel=9 note=42 velocity=74 time=0
EXTRACT: note_off channel=9 note=42 velocity=74 time=0.004664166666666666
EXTRACT: note_off channel=9 note=38 velocity=113 time=0
EXTRACT: note_off channel=2 note=67 velocity=108 time=0.09328333333333333
EXTRACT: note_off channel=2 note=64 velocity=96 time=0
EXTRACT: note_off channel=2 note=60 velocity=103 time=0
EXTRACT: note_off channel=5 note=55 velocity=94 time=0
EXTRACT: note_off channel=5 note=52 velocity=98 time=0
EXTRACT: note_off channel=5 note=48 velocity=92 time=0
EXTRACT: note_off channel=1 note=36 velocity=111 time=0.10727583333333332
EXTRACT: note_off channel=4 note=60 velocity=125 time=0.004664166666666666
EXTRACT: note_on channel=2 note=60 velocity=114 time=0.013992499999999998
EXTRACT: note_on channel=2 note=64 velocity=114 time=0
EXTRACT: note_on channel=2 note=67 velocity=110 time=0
EXTRACT: note_on channel=5 note=48 velocity=86 time=0
EXTRACT: note_on channel=5 note=52 velocity=94 time=0
EXTRACT: note_on channel=5 note=55 velocity=95 time=0
EXTRACT: note_on channel=9 note=42 velocity=64 time=0
EXTRACT: note_off channel=9 note=42 velocity=64 time=0.004664166666666666
EXTRACT: note_off channel=2 note=67 velocity=110 time=0.09328333333333333
EXTRACT: note_off channel=2 note=64 velocity=114 time=0
EXTRACT: note_off channel=2 note=60 velocity=114 time=0
EXTRACT: note_off channel=5 note=55 velocity=95 time=0
EXTRACT: note_off channel=5 note=52 velocity=94 time=0
EXTRACT: note_off channel=5 note=48 velocity=86 time=0
EXTRACT: note_on channel=1 note=31 velocity=109 time=0.1259325
EXTRACT: note_on channel=4 note=60 velocity=118 time=0
EXTRACT: note_on channel=9 note=36 velocity=127 time=0
EXTRACT: note_on channel=9 note=46 velocity=108 time=0
EXTRACT: note_off channel=9 note=46 velocity=108 time=0.004664166666666666
EXTRACT: note_off channel=9 note=36 velocity=127 time=0
EXTRACT: note_off channel=1 note=31 velocity=109 time=0.20055916666666665
EXTRACT: note_off channel=4 note=60 velocity=118 time=0.004664166666666666
EXTRACT: note_on channel=1 note=36 velocity=125 time=0.013992499999999998
EXTRACT: note_on channel=9 note=42 velocity=64 time=0
EXTRACT: note_off channel=9 note=42 velocity=64 time=0.004664166666666666
EXTRACT: note_off channel=1 note=36 velocity=125 time=0.08861916666666667
EXTRACT: note_on channel=2 note=60 velocity=98 time=0.13059666666666667
EXTRACT: note_on channel=2 note=64 velocity=97 time=0
EXTRACT: note_on channel=2 note=67 velocity=98 time=0
EXTRACT: note_on channel=3 note=67 velocity=105 time=0
EXTRACT: note_on channel=3 note=72 velocity=109 time=0
EXTRACT: note_on channel=5 note=48 velocity=98 time=0
EXTRACT: note_on channel=5 note=52 velocity=99 time=0
EXTRACT: note_on channel=5 note=55 velocity=102 time=0
EXTRACT: note_on channel=9 note=38 velocity=113 time=0
EXTRACT: note_on channel=9 note=46 velocity=121 time=0
EXTRACT: note_off channel=9 note=46 velocity=121 time=0.004664166666666666
EXTRACT: note_off channel=9 note=38 velocity=113 time=0
EXTRACT: note_off channel=2 note=67 velocity=98 time=0.09328333333333333
EXTRACT: note_off channel=2 note=64 velocity=97 time=0
EXTRACT: note_off channel=2 note=60 velocity=98 time=0
EXTRACT: note_off channel=5 note=55 velocity=102 time=0
EXTRACT: note_off channel=5 note=52 velocity=99 time=0
EXTRACT: note_off channel=5 note=48 velocity=98 time=0
EXTRACT: note_off channel=3 note=72 velocity=109 time=0.11193999999999998
EXTRACT: note_off channel=3 note=67 velocity=105 time=0
EXTRACT: note_on channel=1 note=31 velocity=119 time=0.013992499999999998
EXTRACT: note_on channel=2 note=60 velocity=104 time=0
EXTRACT: note_on channel=2 note=64 velocity=101 time=0
EXTRACT: note_on channel=2 note=67 velocity=111 time=0
EXTRACT: note_on channel=5 note=48 velocity=101 time=0
EXTRACT: note_on channel=5 note=52 velocity=102 time=0
EXTRACT: note_on channel=5 note=55 velocity=103 time=0
EXTRACT: note_on channel=9 note=42 velocity=63 time=0
EXTRACT: note_off channel=9 note=42 velocity=63 time=0.004664166666666666
EXTRACT: note_off channel=2 note=67 velocity=111 time=0.09328333333333333
EXTRACT: note_off channel=2 note=64 velocity=101 time=0
EXTRACT: note_off channel=2 note=60 velocity=104 time=0
EXTRACT: note_off channel=5 note=55 velocity=103 time=0
EXTRACT: note_off channel=5 note=52 velocity=102 time=0
EXTRACT: note_off channel=5 note=48 velocity=101 time=0
EXTRACT: note_off channel=1 note=31 velocity=119 time=0.10727583333333332
EXTRACT: note_on channel=1 note=36 velocity=112 time=0.018656666666666665
EXTRACT: note_on channel=3 note=67 velocity=98 time=0
EXTRACT: note_on channel=3 note=70 velocity=104 time=0
EXTRACT: note_on channel=4 note=58 velocity=127 time=0
EXTRACT: note_on channel=9 note=36 velocity=127 time=0
EXTRACT: note_on channel=9 note=42 velocity=63 time=0
EXTRACT: note_off channel=9 note=42 velocity=63 time=0.004664166666666666
EXTRACT: note_off channel=9 note=36 velocity=127 time=0
EXTRACT: control_change channel=3 control=1 value=82 time=0.10727583333333332
EXTRACT: note_off channel=1 note=36 velocity=112 time=0.09328333333333333
EXTRACT: note_on channel=9 note=42 velocity=69 time=0.018656666666666665
EXTRACT: note_off channel=9 note=42 velocity=69 time=0.004664166666666666
EXTRACT: note_on channel=1 note=36 velocity=124 time=0.2192158333333333
EXTRACT: note_on channel=2 note=60 velocity=106 time=0
EXTRACT: note_on channel=2 note=65 velocity=99 time=0
EXTRACT: note_on channel=2 note=67 velocity=96 time=0
EXTRACT: note_on channel=5 note=48 velocity=92 time=0
EXTRACT: note_on channel=5 note=53 velocity=103 time=0
EXTRACT: note_on channel=5 note=55 velocity=94 time=0
EXTRACT: note_on channel=9 note=38 velocity=122 time=0
EXTRACT: note_on channel=9 note=42 velocity=63 time=0
EXTRACT: note_off channel=9 note=42 velocity=63 time=0.004664166666666666
EXTRACT: note_off channel=9 note=38 velocity=122 time=0
EXTRACT: note_off channel=2 note=67 velocity=96 time=0.09328333333333333
EXTRACT: note_off channel=2 note=65 velocity=99 time=0
EXTRACT: note_off channel=2 note=60 velocity=106 time=0
EXTRACT: note_off channel=5 note=55 velocity=94 time=0
EXTRACT: note_off channel=5 note=53 velocity=103 time=0
EXTRACT: note_off channel=5 note=48 velocity=92 time=0
EXTRACT: note_off channel=1 note=36 velocity=124 time=0.10727583333333332
EXTRACT: note_off channel=4 note=58 velocity=127 time=0.004664166666666666
EXTRACT: note_on channel=2 note=60 velocity=104 time=0.013992499999999998
EXTRACT: note_on channel=2 note=65 velocity=101 time=0
EXTRACT: note_on channel=2 note=67 velocity=99 time=0
EXTRACT: note_on channel=4 note=65 velocity=112 time=0
EXTRACT: note_on channel=5 note=48 velocity=87 time=0
EXTRACT: note_on channel=5 note=53 velocity=88 time=0
EXTRACT: note_on channel=5 note=55 velocity=90 time=0
EXTRACT: note_on channel=9 note=42 velocity=66 time=0
EXTRACT: note_off channel=9 note=42 velocity=66 time=0.004664166666666666
EXTRACT: note_off channel=2 note=67 velocity=99 time=0.09328333333333333
EXTRACT: note_off channel=2 note=65 velocity=101 time=0
EXTRACT: note_off channel=2 note=60 velocity=104 time=0
EXTRACT: note_off channel=5 note=55 velocity=90 time=0
EXTRACT: note_off channel=5 note=53 velocity=88 time=0
EXTRACT: note_off channel=5 note=48 velocity=87 time=0
EXTRACT: note_on channel=1 note=31 velocity=113 time=0.1259325
EXTRACT: note_on channel=9 note=36 velocity=122 time=0
EXTRACT: note_on channel=9 note=42 velocity=60 time=0
EXTRACT: note_off channel=9 note=42 velocity=60 time=0.004664166666666666
EXTRACT: note_off channel=9 note=36 velocity=122 time=0
EXTRACT: note_off channel=1 note=31 velocity=113 time=0.20055916666666665
EXTRACT: note_on channel=1 note=36 velocity=107 time=0.018656666666666665
EXTRACT: note_on channel=9 note=42 velocity=62 time=0
EXTRACT: note_off channel=9 note=42 velocity=62 time=0.004664166666666666
EXTRACT: note_off channel=1 note=36 velocity=107 time=0.08861916666666667
EXTRACT: note_off channel=4 note=65 velocity=112 time=0.004664166666666666
EXTRACT: note_off channel=3 note=70 velocity=104 time=0.11193999999999998
EXTRACT: note_off channel=3 note=67 velocity=98 time=0
EXTRACT: note_on channel=2 note=60 velocity=105 time=0.013992499999999998
EXTRACT: note_on channel=2 note=65 velocity=103 time=0
EXTRACT: note_on channel=2 note=67 velocity=96 time=0
EXTRACT: note_on channel=4 note=65 velocity=124 time=0
EXTRACT: note_on channel=5 note=48 velocity=102 time=0
EXTRACT: note_on channel=5 note=53 velocity=102 time=0
EXTRACT: note_on channel=5 note=55 velocity=95 time=0
EXTRACT: note_on channel=9 note=38 velocity=122 time=0
EXTRACT: note_on channel=9 note=42 velocity=74 time=0
EXTRACT: note_off channel=9 note=42 velocity=74 time=0.004664166666666666
EXTRACT: note_off channel=9 note=38 velocity=122 time=0
EXTRACT: note_off channel=2 note=67 velocity=96 time=0.09328333333333333
EXTRACT: note_off channel=2 note=65 velocity=103 time=0
EXTRACT: note_off channel=2 note=60 velocity=105 time=0
EXTRACT: note_off channel=4 note=65 velocity=124 time=0
EXTRACT: note_off channel=5 note=55 velocity=95 time=0
EXTRACT: note_off channel=5 note=53 velocity=102 time=0
EXTRACT: note_off channel=5 note=48 velocity=102 time=0
EXTRACT: note_on channel=4 note=64 velocity=126 time=0.013992499999999998
EXTRACT: note_off channel=4 note=64 velocity=126 time=0.09794749999999999
EXTRACT: note_on channel=1 note=31 velocity=107 time=0.013992499999999998
EXTRACT: note_on channel=2 note=60 velocity=96 time=0
EXTRACT: note_on channel=2 note=65 velocity=109 time=0
EXTRACT: note_on channel=2 note=67 velocity=98 time=0
EXTRACT: control_change channel=3 control=1 value=0 time=0
EXTRACT: note_on channel=4 note=65 velocity=119 time=0
EXTRACT: note_on channel=5 note=48 velocity=94 time=0
EXTRACT: note_on channel=5 note=53 velocity=91 time=0
EXTRACT: note_on channel=5 note=55 velocity=91 time=0
EXTRACT: note_on channel=9 note=42 velocity=69 time=0
EXTRACT: note_off channel=9 note=42 velocity=69 time=0.004664166666666666
EXTRACT: note_off channel=2 note=67 velocity=98 time=0.09328333333333333
EXTRACT: note_off channel=2 note=65 velocity=109 time=0
EXTRACT: note_off channel=2 note=60 velocity=96 time=0
EXTRACT: note_off channel=4 note=65 velocity=119 time=0
EXTRACT: note_off channel=5 note=55 velocity=91 time=0
EXTRACT: note_off channel=5 note=53 velocity=91 time=0
EXTRACT: note_off channel=5 note=48 velocity=94 time=0
EXTRACT: note_on channel=4 note=64 velocity=120 time=0.013992499999999998
EXTRACT: note_off channel=1 note=31 velocity=107 time=0.09328333333333333
EXTRACT: note_off channel=4 note=64 velocity=120 time=0.004664166666666666
EXTRACT: note_on channel=1 note=36 velocity=123 time=0.013992499999999998
EXTRACT: note_on channel=3 note=60 velocity=96 time=0
EXTRACT: note_on channel=3 note=67 velocity=109 time=0
EXTRACT: note_on channel=4 note=60 velocity=112 time=0
EXTRACT: note_on channel=9 note=36 velocity=127 time=0
EXTRACT: note_on channel=9 note=42 velocity=61 time=0
EXTRACT: note_off channel=9 note=42 velocity=61 time=0.004664166666666666
EXTRACT: note_off channel=9 note=36 velocity=127 time=0
EXTRACT: note_off channel=1 note=36 velocity=123 time=0.20055916666666665
EXTRACT: note_off channel=3 note=67 velocity=109 time=0.004664166666666666
EXTRACT: note_off channel=3 note=60 velocity=96 time=0
EXTRACT: note_on channel=9 note=42 velocity=63 time=0.013992499999999998
EXTRACT: note_off channel=9 note=42 velocity=63 time=0.004664166666666666
EXTRACT: note_on channel=1 note=36 velocity=118 time=0.2192158333333333
EXTRACT: note_on channel=2 note=60 velocity=113 time=0
EXTRACT: note_on channel=2 note=64 velocity=95 time=0
EXTRACT: note_on channel=2 note=67 velocity=103 time=0
EXTRACT: note_on channel=5 note=48 velocity=93 time=0
EXTRACT: note_on channel=5 note=52 velocity=86 time=0
EXTRACT: note_on channel=5 note=55 velocity=100 time=0
EXTRACT: note_on channel=9 note=38 velocity=116 time=0
EXTRACT: note_on channel=9 note=42 velocity=73 time=0
EXTRACT: note_off channel=9 note=42 velocity=73 time=0.004664166666666666
EXTRACT: note_off channel=9 note=38 velocity=116 time=0
EXTRACT: note_off channel=2 note=67 velocity=103 time=0.09328333333333333
EXTRACT: note_off channel=2 note=64 velocity=95 time=0
EXTRACT: note_off channel=2 note=60 velocity=113 time=0
EXTRACT: note_off channel=5 note=55 velocity=100 time=0
EXTRACT: note_off channel=5 note=52 velocity=86 time=0
EXTRACT: note_off channel=5 note=48 velocity=93 time=0
EXTRACT: note_off channel=1 note=36 velocity=118 time=0.10727583333333332
EXTRACT: note_on channel=2 note=60 velocity=103 time=0.018656666666666665
EXTRACT: note_on channel=2 note=64 velocity=107 time=0
EXTRACT: note_on channel=2 note=67 velocity=104 time=0
EXTRACT: note_on channel=5 note=48 velocity=87 time=0
EXTRACT: note_on channel=5 note=52 velocity=101 time=0
EXTRACT: note_on channel=5 note=55 velocity=102 time=0
EXTRACT: note_on channel=9 note=42 velocity=62 time=0
EXTRACT: note_off channel=9 note=42 velocity=62 time=0.004664166666666666
EXTRACT: note_off channel=2 note=67 velocity=104 time=0.09328333333333333
EXTRACT: note_off channel=2 note=64 velocity=107 time=0
EXTRACT: note_off channel=2 note=60 velocity=103 time=0
EXTRACT: note_off channel=5 note=55 velocity=102 time=0
EXTRACT: note_off channel=5 note=52 velocity=101 time=0
EXTRACT: note_off channel=5 note=48 velocity=87 time=0
EXTRACT: note_on channel=1 note=31 velocity=119 time=0.1259325
EXTRACT: note_on channel=9 note=36 velocity=120 time=0
EXTRACT: note_on channel=9 note=42 velocity=72 time=0
EXTRACT: note_off channel=9 note=42 velocity=72 time=0.004664166666666666
EXTRACT: note_off channel=9 note=36 velocity=120 time=0
EXTRACT: note_off channel=1 note=31 velocity=119 time=0.20055916666666665
EXTRACT: note_on channel=1 note=36 velocity=117 time=0.018656666666666665
EXTRACT: note_on channel=9 note=81 velocity=94 time=0
EXTRACT: note_on channel=9 note=42 velocity=74 time=0
EXTRACT: note_off channel=9 note=42 velocity=74 time=0.004664166666666666
EXTRACT: note_off channel=9 note=81 velocity=94 time=0
EXTRACT: note_off channel=1 note=36 velocity=117 time=0.08861916666666667
EXTRACT: note_off channel=4 note=60 velocity=112 time=0.004664166666666666
EXTRACT: note_on channel=2 note=60 velocity=97 time=0.1259325
EXTRACT: note_on channel=2 note=64 velocity=102 time=0
EXTRACT: note_on channel=2 note=67 velocity=97 time=0
EXTRACT: note_on channel=5 note=48 velocity=93 time=0
EXTRACT: note_on channel=5 note=52 velocity=102 time=0
EXTRACT: note_on channel=5 note=55 velocity=100 time=0
EXTRACT: note_on channel=9 note=38 velocity=127 time=0
EXTRACT: note_on channel=9 note=42 velocity=73 time=0
EXTRACT: note_off channel=9 note=42 velocity=73 time=0.004664166666666666
EXTRACT: note_off channel=9 note=38 velocity=127 time=0
EXTRACT: note_off channel=2 note=67 velocity=97 time=0.09328333333333333
EXTRACT: note_off channel=2 note=64 velocity=102 time=0
EXTRACT: note_off channel=2 note=60 velocity=97 time=0
EXTRACT: note_off channel=5 note=55 velocity=100 time=0
EXTRACT: note_off channel=5 note=52 velocity=102 time=0
EXTRACT: note_off channel=5 note=48 velocity=93 time=0
EXTRACT: note_on channel=1 note=31 velocity=124 time=0.1259325
EXTRACT: note_on channel=2 note=60 velocity=112 time=0
EXTRACT: note_on channel=2 note=64 velocity=106 time=0
EXTRACT: note_on channel=2 note=67 velocity=107 time=0
EXTRACT: note_on channel=5 note=48 velocity=86 time=0
EXTRACT: note_on channel=5 note=52 velocity=86 time=0
EXTRACT: note_on channel=5 note=55 velocity=103 time=0
EXTRACT: note_on channel=9 note=81 velocity=94 time=0
EXTRACT: note_on channel=9 note=36 velocity=127 time=0
EXTRACT: note_on channel=9 note=57 velocity=108 time=0
EXTRACT: note_off channel=9 note=57 velocity=108 time=0.004664166666666666
EXTRACT: note_off channel=9 note=36 velocity=127 time=0
EXTRACT: note_off channel=9 note=81 velocity=94 time=0
EXTRACT: note_off channel=2 note=67 velocity=107 time=0.09328333333333333
EXTRACT: note_off channel=2 note=64 velocity=106 time=0
EXTRACT: note_off channel=2 note=60 velocity=112 time=0
EXTRACT: note_off channel=5 note=55 velocity=103 time=0
EXTRACT: note_off channel=5 note=52 velocity=86 time=0
EXTRACT: note_off channel=5 note=48 velocity=86 time=0
EXTRACT: note_off channel=1 note=31 velocity=124 time=0.10727583333333332
EXTRACT: note_on channel=1 note=36 velocity=126 time=0.018656666666666665
EXTRACT: note_on channel=9 note=36 velocity=127 time=0
EXTRACT: note_on channel=9 note=49 velocity=112 time=0
EXTRACT: note_on channel=15 note=64 velocity=120 time=0
EXTRACT: note_off channel=9 note=49 velocity=112 time=0.004664166666666666
EXTRACT: note_off channel=9 note=36 velocity=127 time=0
EXTRACT: note_off channel=1 note=36 velocity=126 time=0.20055916666666665
EXTRACT: note_off channel=15 note=64 velocity=120 time=0
EXTRACT: note_on channel=9 note=42 velocity=63 time=0.018656666666666665
EXTRACT: note_on channel=15 note=65 velocity=117 time=0
EXTRACT: note_off channel=9 note=42 velocity=63 time=0.004664166666666666
EXTRACT: note_on channel=1 note=36 velocity=107 time=0.2192158333333333
EXTRACT: note_on channel=2 note=60 velocity=99 time=0
EXTRACT: note_on channel=2 note=65 velocity=108 time=0
EXTRACT: note_on channel=2 note=67 velocity=100 time=0
EXTRACT: note_on channel=5 note=48 velocity=97 time=0
EXTRACT: note_on channel=5 note=53 velocity=98 time=0
EXTRACT: note_on channel=5 note=55 velocity=101 time=0
EXTRACT: note_on channel=9 note=38 velocity=126 time=0
EXTRACT: note_on channel=9 note=42 velocity=74 time=0
EXTRACT: note_off channel=9 note=42 velocity=74 time=0.004664166666666666
EXTRACT: note_off channel=9 note=38 velocity=126 time=0
EXTRACT: note_off channel=2 note=67 velocity=100 time=0.09328333333333333
EXTRACT: note_off channel=2 note=65 velocity=108 time=0
EXTRACT: note_off channel=2 note=60 velocity=99 time=0
EXTRACT: note_off channel=5 note=55 velocity=101 time=0
EXTRACT: note_off channel=5 note=53 velocity=98 time=0
EXTRACT: note_off channel=5 note=48 velocity=97 time=0
EXTRACT: note_off channel=1 note=36 velocity=107 time=0.10727583333333332
EXTRACT: note_off channel=15 note=65 velocity=117 time=0
EXTRACT: note_on channel=2 note=60 velocity=114 time=0.018656666666666665
EXTRACT: note_on channel=2 note=65 velocity=106 time=0
EXTRACT: note_on channel=2 note=67 velocity=107 time=0
EXTRACT: note_on channel=5 note=48 velocity=90 time=0
EXTRACT: note_on channel=5 note=53 velocity=95 time=0
EXTRACT: note_on channel=5 note=55 velocity=97 time=0
EXTRACT: note_on channel=9 note=42 velocity=62 time=0
EXTRACT: note_on channel=15 note=64 velocity=127 time=0
EXTRACT: note_off channel=9 note=42 velocity=62 time=0.004664166666666666
EXTRACT: note_off channel=2 note=67 velocity=107 time=0.09328333333333333
EXTRACT: note_off channel=2 note=65 velocity=106 time=0
EXTRACT: note_off channel=2 note=60 velocity=114 time=0
EXTRACT: note_off channel=5 note=55 velocity=97 time=0
EXTRACT: note_off channel=5 note=53 velocity=95 time=0
EXTRACT: note_off channel=5 note=48 velocity=90 time=0
EXTRACT: note_on channel=1 note=31 velocity=112 time=0.1259325
EXTRACT: note_on channel=9 note=36 velocity=126 time=0
EXTRACT: note_on channel=9 note=42 velocity=59 time=0
EXTRACT: note_off channel=9 note=42 velocity=59 time=0.004664166666666666
EXTRACT: note_off channel=9 note=36 velocity=126 time=0
EXTRACT: note_off channel=1 note=31 velocity=112 time=0.20055916666666665
EXTRACT: note_off channel=15 note=64 velocity=127 time=0
EXTRACT: note_on channel=1 note=36 velocity=122 time=0.018656666666666665
EXTRACT: note_on channel=9 note=42 velocity=62 time=0
EXTRACT: note_on channel=15 note=65 velocity=123 time=0
EXTRACT: note_off channel=9 note=42 velocity=62 time=0.004664166666666666
EXTRACT: note_off channel=1 note=36 velocity=122 time=0.08861916666666667
EXTRACT: note_on channel=2 note=60 velocity=102 time=0.13059666666666667
EXTRACT: note_on channel=2 note=65 velocity=106 time=0
EXTRACT: note_on channel=2 note=67 velocity=114 time=0
EXTRACT: note_on channel=5 note=48 velocity=101 time=0
EXTRACT: note_on channel=5 note=53 velocity=101 time=0
EXTRACT: note_on channel=5 note=55 velocity=95 time=0
EXTRACT: note_on channel=9 note=38 velocity=127 time=0
EXTRACT: note_on channel=9 note=42 velocity=73 time=0
EXTRACT: note_off channel=9 note=42 velocity=73 time=0.004664166666666666
EXTRACT: note_off channel=9 note=38 velocity=127 time=0
EXTRACT: note_off channel=2 note=67 velocity=114 time=0.09328333333333333
EXTRACT: note_off channel=2 note=65 velocity=106 time=0
EXTRACT: note_off channel=2 note=60 velocity=102 time=0
EXTRACT: note_off channel=5 note=55 velocity=95 time=0
EXTRACT: note_off channel=5 note=53 velocity=101 time=0
EXTRACT: note_off channel=5 note=48 velocity=101 time=0
EXTRACT: note_off channel=15 note=65 velocity=123 time=0.10727583333333332
EXTRACT: note_on channel=1 note=31 velocity=107 time=0.018656666666666665
EXTRACT: note_on channel=2 note=60 velocity=104 time=0
EXTRACT: note_on channel=2 note=65 velocity=111 time=0
EXTRACT: note_on channel=2 note=67 velocity=103 time=0
EXTRACT: note_on channel=5 note=48 velocity=95 time=0
EXTRACT: note_on channel=5 note=53 velocity=97 time=0
EXTRACT: note_on channel=5 note=55 velocity=102 time=0
EXTRACT: note_on channel=9 note=42 velocity=68 time=0
EXTRACT: note_on channel=15 note=67 velocity=121 time=0
EXTRACT: note_off channel=9 note=42 velocity=68 time=0.004664166666666666
EXTRACT: note_off channel=2 note=67 velocity=103 time=0.09328333333333333
EXTRACT: note_off channel=2 note=65 velocity=111 time=0
EXTRACT: note_off channel=2 note=60 velocity=104 time=0
EXTRACT: note_off channel=5 note=55 velocity=102 time=0
EXTRACT: note_off channel=5 note=53 velocity=97 time=0
EXTRACT: note_off channel=5 note=48 velocity=95 time=0
EXTRACT: note_off channel=1 note=31 velocity=107 time=0.10727583333333332
EXTRACT: note_on channel=1 note=36 velocity=109 time=0.018656666666666665
EXTRACT: note_on channel=9 note=36 velocity=127 time=0
EXTRACT: note_on channel=9 note=42 velocity=58 time=0
EXTRACT: note_off channel=9 note=42 velocity=58 time=0.004664166666666666
EXTRACT: note_off channel=9 note=36 velocity=127 time=0
EXTRACT: note_off channel=1 note=36 velocity=109 time=0.20055916666666665
EXTRACT: note_off channel=15 note=67 velocity=121 time=0
EXTRACT: note_on channel=9 note=42 velocity=67 time=0.018656666666666665
EXTRACT: note_on channel=15 note=69 velocity=115 time=0
EXTRACT: note_off channel=9 note=42 velocity=67 time=0.004664166666666666
EXTRACT: note_on channel=1 note=36 velocity=112 time=0.2192158333333333
EXTRACT: note_on channel=2 note=60 velocity=111 time=0
EXTRACT: note_on channel=2 note=64 velocity=104 time=0
EXTRACT: note_on channel=2 note=67 velocity=107 time=0
EXTRACT: note_on channel=5 note=48 velocity=89 time=0
EXTRACT: note_on channel=5 note=52 velocity=97 time=0
EXTRACT: note_on channel=5 note=55 velocity=95 time=0
EXTRACT: note_on channel=9 note=38 velocity=126 time=0
EXTRACT: note_on channel=9 note=42 velocity=61 time=0
EXTRACT: note_off channel=9 note=42 velocity=61 time=0.004664166666666666
EXTRACT: note_off channel=9 note=38 velocity=126 time=0
EXTRACT: note_off channel=2 note=67 velocity=107 time=0.09328333333333333
EXTRACT: note_off channel=2 note=64 velocity=104 time=0
EXTRACT: note_off channel=2 note=60 velocity=111 time=0
EXTRACT: note_off channel=5 note=55 velocity=95 time=0
EXTRACT: note_off channel=5 note=52 velocity=97 time=0
EXTRACT: note_off channel=5 note=48 velocity=89 time=0
EXTRACT: note_off channel=1 note=36 velocity=112 time=0.10727583333333332
EXTRACT: note_off channel=15 note=69 velocity=115 time=0
EXTRACT: note_on channel=2 note=60 velocity=113 time=0.018656666666666665
EXTRACT: note_on channel=2 note=64 velocity=111 time=0
EXTRACT: note_on channel=2 note=67 velocity=108 time=0
EXTRACT: note_on channel=5 note=48 velocity=86 time=0
EXTRACT: note_on channel=5 note=52 velocity=105 time=0
EXTRACT: note_on channel=5 note=55 velocity=97 time=0
EXTRACT: note_on channel=9 note=42 velocity=72 time=0
EXTRACT: note_on channel=15 note=67 velocity=127 time=0
EXTRACT: note_off channel=9 note=42 velocity=72 time=0.004664166666666666
EXTRACT: note_off channel=2 note=67 velocity=108 time=0.09328333333333333
EXTRACT: note_off channel=2 note=64 velocity=111 time=0
EXTRACT: note_off channel=2 note=60 velocity=113 time=0
EXTRACT: note_off channel=5 note=55 velocity=97 time=0
EXTRACT: note_off channel=5 note=52 velocity=105 time=0
EXTRACT: note_off channel=5 note=48 velocity=86 time=0
EXTRACT: note_on channel=1 note=31 velocity=122 time=0.1259325
EXTRACT: note_on channel=9 note=36 velocity=127 time=0
EXTRACT: note_on channel=9 note=46 velocity=115 time=0
EXTRACT: note_off channel=9 note=46 velocity=115 time=0.004664166666666666
EXTRACT: note_off channel=9 note=36 velocity=127 time=0
EXTRACT: note_off channel=1 note=31 velocity=122 time=0.20055916666666665
EXTRACT: note_off channel=15 note=67 velocity=127 time=0
EXTRACT: note_on channel=1 note=36 velocity=114 time=0.018656666666666665
EXTRACT: note_on channel=9 note=42 velocity=70 time=0
EXTRACT: note_on channel=15 note=69 velocity=126 time=0
EXTRACT: note_off channel=9 note=42 velocity=70 time=0.004664166666666666
EXTRACT: note_off channel=1 note=36 velocity=114 time=0.08861916666666667
EXTRACT: note_off channel=15 note=69 velocity=126 time=0.11193999999999998
EXTRACT: note_on channel=2 note=60 velocity=105 time=0.018656666666666665
EXTRACT: note_on channel=2 note=64 velocity=95 time=0
EXTRACT: note_on channel=2 note=67 velocity=114 time=0
EXTRACT: note_on channel=5 note=48 velocity=99 time=0
EXTRACT: note_on channel=5 note=52 velocity=90 time=0
EXTRACT: note_on channel=5 note=55 velocity=96 time=0
EXTRACT: note_on channel=9 note=38 velocity=127 time=0
EXTRACT: note_on channel=9 note=46 velocity=116 time=0
EXTRACT: note_off channel=9 note=46 velocity=116 time=0.004664166666666666
EXTRACT: note_off channel=9 note=38 velocity=127 time=0
EXTRACT: note_off channel=2 note=67 velocity=114 time=0.09328333333333333
EXTRACT: note_off channel=2 note=64 velocity=95 time=0
EXTRACT: note_off channel=2 note=60 velocity=105 time=0
EXTRACT: note_off channel=5 note=55 velocity=96 time=0
EXTRACT: note_off channel=5 note=52 velocity=90 time=0
EXTRACT: note_off channel=5 note=48 velocity=99 time=0
EXTRACT: note_on channel=1 note=29 velocity=121 time=0.1259325
EXTRACT: note_on channel=2 note=60 velocity=99 time=0
EXTRACT: note_on channel=2 note=64 velocity=112 time=0
EXTRACT: note_on channel=2 note=67 velocity=96 time=0
EXTRACT: note_on channel=5 note=48 velocity=91 time=0
EXTRACT: note_on channel=5 note=52 velocity=93 time=0
EXTRACT: note_on channel=5 note=55 velocity=103 time=0
EXTRACT: note_on channel=9 note=42 velocity=72 time=0
EXTRACT: note_on channel=15 note=70 velocity=127 time=0
EXTRACT: note_off channel=9 note=42 velocity=72 time=0.004664166666666666
EXTRACT: note_off channel=2 note=67 velocity=96 time=0.09328333333333333
EXTRACT: note_off channel=2 note=64 velocity=112 time=0
EXTRACT: note_off channel=2 note=60 velocity=99 time=0
EXTRACT: note_off channel=5 note=55 velocity=103 time=0
EXTRACT: note_off channel=5 note=52 velocity=93 time=0
EXTRACT: note_off channel=5 note=48 velocity=91 time=0
EXTRACT: note_off channel=1 note=29 velocity=121 time=0.10727583333333332
EXTRACT: note_on channel=1 note=34 velocity=112 time=0.018656666666666665
EXTRACT: note_on channel=9 note=36 velocity=127 time=0
EXTRACT: note_on channel=9 note=42 velocity=74 time=0
EXTRACT: note_off channel=9 note=42 velocity=74 time=0.004664166666666666
EXTRACT: note_off channel=9 note=36 velocity=127 time=0
EXTRACT: note_off channel=1 note=34 velocity=112 time=0.20055916666666665
EXTRACT: note_on channel=9 note=42 velocity=73 time=0.018656666666666665
EXTRACT: note_off channel=9 note=42 velocity=73 time=0.004664166666666666
EXTRACT: note_off channel=15 note=70 velocity=127 time=0.20055916666666665
EXTRACT: note_on channel=1 note=34 velocity=115 time=0.018656666666666665
EXTRACT: note_on channel=2 note=58 velocity=113 time=0
EXTRACT: note_on channel=2 note=62 velocity=109 time=0
EXTRACT: note_on channel=2 note=65 velocity=109 time=0
EXTRACT: note_on channel=5 note=46 velocity=87 time=0
EXTRACT: note_on channel=5 note=50 velocity=86 time=0
EXTRACT: note_on channel=5 note=53 velocity=103 time=0
EXTRACT: note_on channel=9 note=38 velocity=127 time=0
EXTRACT: note_on channel=9 note=42 velocity=60 time=0
EXTRACT: note_on channel=15 note=69 velocity=115 time=0
EXTRACT: note_off channel=9 note=42 velocity=60 time=0.004664166666666666
EXTRACT: note_off channel=9 note=38 velocity=127 time=0
EXTRACT: note_off channel=2 note=65 velocity=109 time=0.09328333333333333
EXTRACT: note_off channel=2 note=62 velocity=109 time=0
EXTRACT: note_off channel=2 note=58 velocity=113 time=0
EXTRACT: note_off channel=5 note=53 velocity=103 time=0
EXTRACT: note_off channel=5 note=50 velocity=86 time=0
EXTRACT: note_off channel=5 note=46 velocity=87 time=0
EXTRACT: note_off channel=1 note=34 velocity=115 time=0.10727583333333332
EXTRACT: note_on channel=2 note=58 velocity=105 time=0.018656666666666665
EXTRACT: note_on channel=2 note=62 velocity=97 time=0
EXTRACT: note_on channel=2 note=65 velocity=97 time=0
EXTRACT: note_on channel=5 note=46 velocity=88 time=0
EXTRACT: note_on channel=5 note=50 velocity=96 time=0
EXTRACT: note_on channel=5 note=53 velocity=96 time=0
EXTRACT: note_on channel=9 note=42 velocity=65 time=0
EXTRACT: note_off channel=9 note=42 velocity=65 time=0.004664166666666666
EXTRACT: note_off channel=2 note=65 velocity=97 time=0.09328333333333333
EXTRACT: note_off channel=2 note=62 velocity=97 time=0
EXTRACT: note_off channel=2 note=58 velocity=105 time=0
EXTRACT: note_off channel=5 note=53 velocity=96 time=0
EXTRACT: note_off channel=5 note=50 velocity=96 time=0
EXTRACT: note_off channel=5 note=46 velocity=88 time=0
EXTRACT: note_off channel=15 note=69 velocity=115 time=0.10727583333333332
EXTRACT: note_on channel=1 note=29 velocity=126 time=0.018656666666666665
EXTRACT: note_on channel=9 note=36 velocity=121 time=0
EXTRACT: note_on channel=9 note=42 velocity=69 time=0
EXTRACT: note_on channel=15 note=67 velocity=109 time=0
EXTRACT: note_off channel=9 note=42 velocity=69 time=0.004664166666666666
EXTRACT: note_off channel=9 note=36 velocity=121 time=0
EXTRACT: note_off channel=1 note=29 velocity=126 time=0.20055916666666665
EXTRACT: note_off channel=15 note=67 velocity=109 time=0
EXTRACT: note_on channel=1 note=34 velocity=108 time=0.018656666666666665
EXTRACT: note_on channel=9 note=42 velocity=68 time=0
EXTRACT: note_on channel=15 note=65 velocity=112 time=0
EXTRACT: note_off channel=9 note=42 velocity=68 time=0.004664166666666666
EXTRACT: note_off channel=1 note=34 velocity=108 time=0.08861916666666667
EXTRACT: note_on channel=2 note=58 velocity=98 time=0.13059666666666667
EXTRACT: note_on channel=2 note=62 velocity=105 time=0
EXTRACT: note_on channel=2 note=65 velocity=96 time=0
EXTRACT: note_on channel=5 note=46 velocity=95 time=0
EXTRACT: note_on channel=5 note=50 velocity=92 time=0
EXTRACT: note_on channel=5 note=53 velocity=100 time=0
EXTRACT: note_on channel=9 note=38 velocity=121 time=0
EXTRACT: note_on channel=9 note=42 velocity=76 time=0
EXTRACT: note_off channel=9 note=42 velocity=76 time=0.004664166666666666
EXTRACT: note_off channel=9 note=38 velocity=121 time=0
EXTRACT: note_off channel=2 note=65 velocity=96 time=0.09328333333333333
EXTRACT: note_off channel=2 note=62 velocity=105 time=0
EXTRACT: note_off channel=2 note=58 velocity=98 time=0
EXTRACT: note_off channel=5 note=53 velocity=100 time=0
EXTRACT: note_off channel=5 note=50 velocity=92 time=0
EXTRACT: note_off channel=5 note=46 velocity=95 time=0
EXTRACT: note_off channel=15 note=65 velocity=112 time=0.10727583333333332
EXTRACT: note_on channel=1 note=28 velocity=113 time=0.018656666666666665
EXTRACT: note_on channel=2 note=58 velocity=114 time=0
EXTRACT: note_on channel=2 note=62 velocity=113 time=0
EXTRACT: note_on channel=2 note=65 velocity=108 time=0
EXTRACT: note_on channel=5 note=46 velocity=99 time=0
EXTRACT: note_on channel=5 note=50 velocity=91 time=0
EXTRACT: note_on channel=5 note=53 velocity=100 time=0
EXTRACT: note_on channel=9 note=42 velocity=76 time=0
EXTRACT: note_on channel=15 note=67 velocity=116 time=0
EXTRACT: note_off channel=9 note=42 velocity=76 time=0.004664166666666666
EXTRACT: note_off channel=2 note=65 velocity=108 time=0.09328333333333333
EXTRACT: note_off channel=2 note=62 velocity=113 time=0
EXTRACT: note_off channel=2 note=58 velocity=114 time=0
EXTRACT: note_off channel=5 note=53 velocity=100 time=0
EXTRACT: note_off channel=5 note=50 velocity=91 time=0
EXTRACT: note_off channel=5 note=46 velocity=99 time=0
EXTRACT: note_off channel=1 note=28 velocity=113 time=0.10727583333333332
EXTRACT: note_on channel=1 note=33 velocity=122 time=0.018656666666666665
EXTRACT: note_on channel=9 note=36 velocity=127 time=0
EXTRACT: note_on channel=9 note=42 velocity=58 time=0
EXTRACT: note_off channel=9 note=42 velocity=58 time=0.004664166666666666
EXTRACT: note_off channel=9 note=36 velocity=127 time=0
EXTRACT: note_off channel=1 note=33 velocity=122 time=0.20055916666666665
EXTRACT: note_off channel=15 note=67 velocity=116 time=0
EXTRACT: note_on channel=9 note=42 velocity=63 time=0.018656666666666665
EXTRACT: note_on channel=15 note=62 velocity=116 time=0
EXTRACT: note_off channel=9 note=42 velocity=63 time=0.004664166666666666
EXTRACT: note_off channel=15 note=62 velocity=116 time=0.20055916666666665
EXTRACT: note_on channel=1 note=33 velocity=119 time=0.018656666666666665
EXTRACT: note_on channel=2 note=57 velocity=111 time=0
EXTRACT: note_on channel=2 note=60 velocity=100 time=0
EXTRACT: note_on channel=2 note=64 velocity=101 time=0
EXTRACT: note_on channel=5 note=45 velocity=105 time=0
EXTRACT: note_on channel=5 note=48 velocity=88 time=0
EXTRACT: note_on channel=5 note=52 velocity=89 time=0
EXTRACT: note_on channel=9 note=38 velocity=115 time=0
EXTRACT: note_on channel=9 note=42 velocity=67 time=0
EXTRACT: note_on channel=15 note=64 velocity=123 time=0
EXTRACT: note_off channel=9 note=42 velocity=67 time=0.004664166666666666
EXTRACT: note_off channel=9 note=38 velocity=115 time=0
EXTRACT: note_off channel=2 note=64 velocity=101 time=0.09328333333333333
EXTRACT: note_off channel=2 note=60 velocity=100 time=0
EXTRACT: note_off channel=2 note=57 velocity=111 time=0
EXTRACT: note_off channel=5 note=52 velocity=89 time=0
EXTRACT: note_off channel=5 note=48 velocity=88 time=0
EXTRACT: note_off channel=5 note=45 velocity=105 time=0
EXTRACT: note_off channel=1 note=33 velocity=119 time=0.10727583333333332
EXTRACT: note_off channel=15 note=64 velocity=123 time=0
EXTRACT: note_on channel=2 note=57 velocity=103 time=0.018656666666666665
EXTRACT: note_on channel=2 note=60 velocity=103 time=0
EXTRACT: note_on channel=2 note=64 velocity=103 time=0
EXTRACT: note_on channel=5 note=45 velocity=94 time=0
EXTRACT: note_on channel=5 note=48 velocity=86 time=0
EXTRACT: note_on channel=5 note=52 velocity=105 time=0
EXTRACT: note_on channel=9 note=42 velocity=60 time=0
EXTRACT: note_off channel=9 note=42 velocity=60 time=0.004664166666666666
EXTRACT: note_off channel=2 note=64 velocity=103 time=0.09328333333333333
EXTRACT: note_off channel=2 note=60 velocity=103 time=0
EXTRACT: note_off channel=2 note=57 velocity=103 time=0
EXTRACT: note_off channel=5 note=52 velocity=105 time=0
EXTRACT: note_off channel=5 note=48 velocity=86 time=0
EXTRACT: note_off channel=5 note=45 velocity=94 time=0
EXTRACT: note_on channel=1 note=28 velocity=109 time=0.1259325
EXTRACT: note_on channel=9 note=36 velocity=123 time=0
EXTRACT: note_on channel=9 note=42 velocity=67 time=0
EXTRACT: note_off channel=9 note=42 velocity=67 time=0.004664166666666666
EXTRACT: note_off channel=9 note=36 velocity=123 time=0
EXTRACT: note_off channel=1 note=28 velocity=109 time=0.20055916666666665
EXTRACT: note_on channel=1 note=33 velocity=119 time=0.018656666666666665
EXTRACT: note_on channel=9 note=42 velocity=72 time=0
EXTRACT: note_off channel=9 note=42 velocity=72 time=0.004664166666666666
EXTRACT: note_off channel=1 note=33 velocity=119 time=0.08861916666666667
EXTRACT: note_on channel=2 note=57 velocity=99 time=0.13059666666666667
EXTRACT: note_on channel=2 note=60 velocity=104 time=0
EXTRACT: note_on channel=2 note=64 velocity=105 time=0
EXTRACT: note_on channel=5 note=45 velocity=92 time=0
EXTRACT: note_on channel=5 note=48 velocity=91 time=0
EXTRACT: note_on channel=5 note=52 velocity=103 time=0
EXTRACT: note_on channel=9 note=38 velocity=127 time=0
EXTRACT: note_on channel=9 note=42 velocity=67 time=0
EXTRACT: note_off channel=9 note=42 velocity=67 time=0.004664166666666666
EXTRACT: note_off channel=9 note=38 velocity=127 time=0
EXTRACT: note_off channel=2 note=64 velocity=105 time=0.09328333333333333
EXTRACT: note_off channel=2 note=60 velocity=104 time=0
EXTRACT: note_off channel=2 note=57 velocity=99 time=0
EXTRACT: note_off channel=5 note=52 velocity=103 time=0
EXTRACT: note_off channel=5 note=48 velocity=91 time=0
EXTRACT: note_off channel=5 note=45 velocity=92 time=0
EXTRACT: note_on channel=1 note=31 velocity=120 time=0.1259325
EXTRACT: note_on channel=2 note=57 velocity=112 time=0
EXTRACT: note_on channel=2 note=60 velocity=106 time=0
EXTRACT: note_on channel=2 note=64 velocity=99 time=0
EXTRACT: note_on channel=5 note=45 velocity=93 time=0
EXTRACT: note_on channel=5 note=48 velocity=100 time=0
EXTRACT: note_on channel=5 note=52 velocity=95 time=0
EXTRACT: note_on channel=9 note=42 velocity=75 time=0
EXTRACT: note_on channel=15 note=60 velocity=121 time=0
EXTRACT: note_off channel=9 note=42 velocity=75 time=0.004664166666666666
EXTRACT: note_off channel=2 note=64 velocity=99 time=0.09328333333333333
EXTRACT: note_off channel=2 note=60 velocity=106 time=0
EXTRACT: note_off channel=2 note=57 velocity=112 time=0
EXTRACT: note_off channel=5 note=52 velocity=95 time=0
EXTRACT: note_off channel=5 note=48 velocity=100 time=0
EXTRACT: note_off channel=5 note=45 velocity=93 time=0
EXTRACT: note_off channel=1 note=31 velocity=120 time=0.10727583333333332
EXTRACT: note_off channel=15 note=60 velocity=121 time=0
EXTRACT: note_on channel=1 note=36 velocity=115 time=0.018656666666666665
EXTRACT: note_on channel=9 note=36 velocity=127 time=0
EXTRACT: note_on channel=9 note=42 velocity=74 time=0
EXTRACT: note_on channel=15 note=64 velocity=114 time=0
EXTRACT: note_off channel=9 note=42 velocity=74 time=0.004664166666666666
EXTRACT: note_off channel=9 note=36 velocity=127 time=0
EXTRACT: note_off channel=1 note=36 velocity=115 time=0.20055916666666665
EXTRACT: note_off channel=15 note=64 velocity=114 time=0
EXTRACT: note_on channel=9 note=42 velocity=72 time=0.018656666666666665
EXTRACT: note_on channel=15 note=65 velocity=114 time=0
EXTRACT: note_off channel=9 note=42 velocity=72 time=0.004664166666666666
EXTRACT: note_on channel=1 note=36 velocity=113 time=0.2192158333333333
EXTRACT: note_on channel=2 note=60 velocity=111 time=0
EXTRACT: note_on channel=2 note=65 velocity=97 time=0
EXTRACT: note_on channel=2 note=67 velocity=111 time=0
EXTRACT: note_on channel=5 note=48 velocity=99 time=0
EXTRACT: note_on channel=5 note=53 velocity=94 time=0
EXTRACT: note_on channel=5 note=55 velocity=96 time=0
EXTRACT: note_on channel=9 note=38 velocity=124 time=0
EXTRACT: note_on channel=9 note=42 velocity=70 time=0
EXTRACT: note_off channel=9 note=42 velocity=70 time=0.004664166666666666
EXTRACT: note_off channel=9 note=38 velocity=124 time=0
EXTRACT: note_off channel=2 note=67 velocity=111 time=0.09328333333333333
EXTRACT: note_off channel=2 note=65 velocity=97 time=0
EXTRACT: note_off channel=2 note=60 velocity=111 time=0
EXTRACT: note_off channel=5 note=55 velocity=96 time=0
EXTRACT: note_off channel=5 note=53 velocity=94 time=0
EXTRACT: note_off channel=5 note=48 velocity=99 time=0
EXTRACT: note_off channel=1 note=36 velocity=113 time=0.10727583333333332
EXTRACT: note_off channel=15 note=65 velocity=114 time=0
EXTRACT: note_on channel=2 note=60 velocity=114 time=0.018656666666666665
EXTRACT: note_on channel=2 note=65 velocity=101 time=0
EXTRACT: note_on channel=2 note=67 velocity=96 time=0
EXTRACT: note_on channel=5 note=48 velocity=104 time=0
EXTRACT: note_on channel=5 note=53 velocity=91 time=0
EXTRACT: note_on channel=5 note=55 velocity=90 time=0
EXTRACT: note_on channel=9 note=42 velocity=68 time=0
EXTRACT: note_on channel=15 note=64 velocity=115 time=0
EXTRACT: note_off channel=9 note=42 velocity=68 time=0.004664166666666666
EXTRACT: note_off channel=2 note=67 velocity=96 time=0.09328333333333333
EXTRACT: note_off channel=2 note=65 velocity=101 time=0
EXTRACT: note_off channel=2 note=60 velocity=114 time=0
EXTRACT: note_off channel=5 note=55 velocity=90 time=0
EXTRACT: note_off channel=5 note=53 velocity=91 time=0
EXTRACT: note_off channel=5 note=48 velocity=104 time=0
EXTRACT: note_on channel=1 note=31 velocity=116 time=0.1259325
EXTRACT: note_on channel=9 note=36 velocity=123 time=0
EXTRACT: note_on channel=9 note=42 velocity=58 time=0
EXTRACT: note_off channel=9 note=42 velocity=58 time=0.004664166666666666
EXTRACT: note_off channel=9 note=36 velocity=123 time=0
EXTRACT: note_off channel=1 note=31 velocity=116 time=0.20055916666666665
EXTRACT: note_off channel=15 note=64 velocity=115 time=0
EXTRACT: note_on channel=1 note=36 velocity=112 time=0.018656666666666665
EXTRACT: note_on channel=9 note=42 velocity=61 time=0
EXTRACT: note_on channel=15 note=65 velocity=122 time=0
EXTRACT: note_off channel=9 note=42 velocity=61 time=0.004664166666666666
EXTRACT: note_off channel=1 note=36 velocity=112 time=0.08861916666666667
EXTRACT: note_on channel=2 note=60 velocity=114 time=0.13059666666666667
EXTRACT: note_on channel=2 note=65 velocity=113 time=0
EXTRACT: note_on channel=2 note=67 velocity=102 time=0
EXTRACT: note_on channel=5 note=48 velocity=100 time=0
EXTRACT: note_on channel=5 note=53 velocity=97 time=0
EXTRACT: note_on channel=5 note=55 velocity=97 time=0
EXTRACT: note_on channel=9 note=38 velocity=122 time=0
EXTRACT: note_on channel=9 note=42 velocity=62 time=0
EXTRACT: note_off channel=9 note=42 velocity=62 time=0.004664166666666666
EXTRACT: note_off channel=9 note=38 velocity=122 time=0
EXTRACT: note_off channel=2 note=67 velocity=102 time=0.09328333333333333
EXTRACT: note_off channel=2 note=65 velocity=113 time=0
EXTRACT: note_off channel=2 note=60 velocity=114 time=0
EXTRACT: note_off channel=5 note=55 velocity=97 time=0
EXTRACT: note_off channel=5 note=53 velocity=97 time=0
EXTRACT: note_off channel=5 note=48 velocity=100 time=0
EXTRACT: note_off channel=15 note=65 velocity=122 time=0.10727583333333332
EXTRACT: note_on channel=1 note=31 velocity=123 time=0.018656666666666665
EXTRACT: note_on channel=2 note=60 velocity=107 time=0
EXTRACT: note_on channel=2 note=65 velocity=104 time=0
EXTRACT: note_on channel=2 note=67 velocity=107 time=0
EXTRACT: note_on channel=5 note=48 velocity=97 time=0
EXTRACT: note_on channel=5 note=53 velocity=105 time=0
EXTRACT: note_on channel=5 note=55 velocity=93 time=0
EXTRACT: note_on channel=9 note=42 velocity=68 time=0
EXTRACT: note_on channel=15 note=67 velocity=121 time=0
EXTRACT: note_off channel=9 note=42 velocity=68 time=0.004664166666666666
EXTRACT: note_off channel=2 note=67 velocity=107 time=0.09328333333333333
EXTRACT: note_off channel=2 note=65 velocity=104 time=0
EXTRACT: note_off channel=2 note=60 velocity=107 time=0
EXTRACT: note_off channel=5 note=55 velocity=93 time=0
EXTRACT: note_off channel=5 note=53 velocity=105 time=0
EXTRACT: note_off channel=5 note=48 velocity=97 time=0
EXTRACT: note_off channel=1 note=31 velocity=123 time=0.10727583333333332
EXTRACT: note_on channel=1 note=36 velocity=119 time=0.018656666666666665
EXTRACT: note_on channel=9 note=36 velocity=127 time=0
EXTRACT: note_on channel=9 note=42 velocity=64 time=0
EXTRACT: note_off channel=9 note=42 velocity=64 time=0.004664166666666666
EXTRACT: note_off channel=9 note=36 velocity=127 time=0
EXTRACT: note_off channel=1 note=36 velocity=119 time=0.20055916666666665
EXTRACT: note_off channel=15 note=67 velocity=121 time=0
EXTRACT: note_on channel=9 note=42 velocity=77 time=0.018656666666666665
EXTRACT: note_on channel=15 note=69 velocity=113 time=0
EXTRACT: note_off channel=9 note=42 velocity=77 time=0.004664166666666666
EXTRACT: note_on channel=1 note=36 velocity=120 time=0.2192158333333333
EXTRACT: note_on channel=2 note=60 velocity=98 time=0
EXTRACT: note_on channel=2 note=64 velocity=100 time=0
EXTRACT: note_on channel=2 note=67 velocity=112 time=0
EXTRACT: note_on channel=5 note=48 velocity=99 time=0
EXTRACT: note_on channel=5 note=52 velocity=89 time=0
EXTRACT: note_on channel=5 note=55 velocity=89 time=0
EXTRACT: note_on channel=9 note=38 velocity=127 time=0
EXTRACT: note_on channel=9 note=42 velocity=74 time=0
EXTRACT: note_off channel=9 note=42 velocity=74 time=0.004664166666666666
EXTRACT: note_off channel=9 note=38 velocity=127 time=0
EXTRACT: note_off channel=2 note=67 velocity=112 time=0.09328333333333333
EXTRACT: note_off channel=2 note=64 velocity=100 time=0
EXTRACT: note_off channel=2 note=60 velocity=98 time=0
EXTRACT: note_off channel=5 note=55 velocity=89 time=0
EXTRACT: note_off channel=5 note=52 velocity=89 time=0
EXTRACT: note_off channel=5 note=48 velocity=99 time=0
EXTRACT: note_off channel=1 note=36 velocity=120 time=0.10727583333333332
EXTRACT: note_off channel=15 note=69 velocity=113 time=0
EXTRACT: note_on channel=2 note=60 velocity=109 time=0.018656666666666665
EXTRACT: note_on channel=2 note=64 velocity=110 time=0
EXTRACT: note_on channel=2 note=67 velocity=104 time=0
EXTRACT: note_on channel=5 note=48 velocity=87 time=0
EXTRACT: note_on channel=5 note=52 velocity=96 time=0
EXTRACT: note_on channel=5 note=55 velocity=94 time=0
EXTRACT: note_on channel=9 note=42 velocity=58 time=0
EXTRACT: note_on channel=15 note=67 velocity=113 time=0
EXTRACT: note_off channel=9 note=42 velocity=58 time=0.004664166666666666
EXTRACT: note_off channel=2 note=67 velocity=104 time=0.09328333333333333
EXTRACT: note_off channel=2 note=64 velocity=110 time=0
EXTRACT: note_off channel=2 note=60 velocity=109 time=0
EXTRACT: note_off channel=5 note=55 velocity=94 time=0
EXTRACT: note_off channel=5 note=52 velocity=96 time=0
EXTRACT: note_off channel=5 note=48 velocity=87 time=0
EXTRACT: note_on channel=1 note=31 velocity=111 time=0.1259325
EXTRACT: note_on channel=9 note=36 velocity=121 time=0
EXTRACT: note_on channel=9 note=42 velocity=77 time=0
EXTRACT: note_off channel=9 note=42 velocity=77 time=0.004664166666666666
EXTRACT: note_off channel=9 note=36 velocity=121 time=0
EXTRACT: note_off channel=1 note=31 velocity=111 time=0.20055916666666665
EXTRACT: note_off channel=15 note=67 velocity=113 time=0
EXTRACT: note_on channel=1 note=36 velocity=123 time=0.018656666666666665
EXTRACT: note_on channel=9 note=42 velocity=76 time=0
EXTRACT: note_on channel=15 note=69 velocity=113 time=0
EXTRACT: note_off channel=9 note=42 velocity=76 time=0.004664166666666666
EXTRACT: note_off channel=1 note=36 velocity=123 time=0.08861916666666667
EXTRACT: note_off channel=15 note=69 velocity=113 time=0.11193999999999998
EXTRACT: note_on channel=2 note=60 velocity=97 time=0.018656666666666665
EXTRACT: note_on channel=2 note=64 velocity=110 time=0
EXTRACT: note_on channel=2 note=67 velocity=107 time=0
EXTRACT: note_on channel=5 note=48 velocity=103 time=0
EXTRACT: note_on channel=5 note=52 velocity=100 time=0
EXTRACT: note_on channel=5 note=55 velocity=97 time=0
EXTRACT: note_on channel=9 note=38 velocity=120 time=0
EXTRACT: note_on channel=9 note=42 velocity=75 time=0
EXTRACT: note_off channel=9 note=42 velocity=75 time=0.004664166666666666
EXTRACT: note_off channel=9 note=38 velocity=120 time=0
EXTRACT: note_off channel=2 note=67 velocity=107 time=0.09328333333333333
EXTRACT: note_off channel=2 note=64 velocity=110 time=0
EXTRACT: note_off channel=2 note=60 velocity=97 time=0
EXTRACT: note_off channel=5 note=55 velocity=97 time=0
EXTRACT: note_off channel=5 note=52 velocity=100 time=0
EXTRACT: note_off channel=5 note=48 velocity=103 time=0
EXTRACT: note_on channel=1 note=36 velocity=122 time=0.1259325
EXTRACT: note_on channel=2 note=60 velocity=108 time=0
EXTRACT: note_on channel=2 note=64 velocity=108 time=0
EXTRACT: note_on channel=2 note=67 velocity=105 time=0
EXTRACT: note_on channel=5 note=48 velocity=100 time=0
EXTRACT: note_on channel=5 note=52 velocity=100 time=0
EXTRACT: note_on channel=5 note=55 velocity=105 time=0
EXTRACT: note_on channel=9 note=42 velocity=72 time=0
EXTRACT: note_on channel=14 note=69 velocity=116 time=0
EXTRACT: note_on channel=14 note=72 velocity=112 time=0
EXTRACT: note_on channel=15 note=64 velocity=110 time=0
EXTRACT: note_off channel=9 note=42 velocity=72 time=0.004664166666666666
EXTRACT: note_off channel=2 note=67 velocity=105 time=0.09328333333333333
EXTRACT: note_off channel=2 note=64 velocity=108 time=0
EXTRACT: note_off channel=2 note=60 velocity=108 time=0
EXTRACT: note_off channel=5 note=55 velocity=105 time=0
EXTRACT: note_off channel=5 note=52 velocity=100 time=0
EXTRACT: note_off channel=5 note=48 velocity=100 time=0
EXTRACT: note_off channel=1 note=36 velocity=122 time=0.10727583333333332
EXTRACT: note_on channel=1 note=38 velocity=108 time=0.018656666666666665
EXTRACT: note_on channel=9 note=36 velocity=127 time=0
EXTRACT: note_on channel=9 note=42 velocity=64 time=0
EXTRACT: note_off channel=9 note=42 velocity=64 time=0.004664166666666666
EXTRACT: note_off channel=9 note=36 velocity=127 time=0
EXTRACT: note_off channel=1 note=38 velocity=108 time=0.20055916666666665
EXTRACT: note_off channel=14 note=72 velocity=112 time=0
EXTRACT: note_off channel=14 note=69 velocity=116 time=0
EXTRACT: note_off channel=15 note=64 velocity=110 time=0
EXTRACT: note_on channel=9 note=42 velocity=58 time=0.018656666666666665
EXTRACT: note_on channel=14 note=69 velocity=102 time=0
EXTRACT: note_on channel=14 note=72 velocity=101 time=0
EXTRACT: note_on channel=15 note=65 velocity=126 time=0
EXTRACT: note_off channel=9 note=42 velocity=58 time=0.004664166666666666
EXTRACT: note_on channel=1 note=38 velocity=112 time=0.2192158333333333
EXTRACT: note_on channel=2 note=62 velocity=98 time=0
EXTRACT: note_on channel=2 note=65 velocity=114 time=0
EXTRACT: note_on channel=5 note=50 velocity=95 time=0
EXTRACT: note_on channel=5 note=53 velocity=88 time=0
EXTRACT: note_on channel=9 note=38 velocity=127 time=0
EXTRACT: note_on channel=9 note=42 velocity=71 time=0
EXTRACT: note_off channel=9 note=42 velocity=71 time=0.004664166666666666
EXTRACT: note_off channel=9 note=38 velocity=127 time=0
EXTRACT: note_off channel=2 note=65 velocity=114 time=0.09328333333333333
EXTRACT: note_off channel=2 note=62 velocity=98 time=0
EXTRACT: note_off channel=5 note=53 velocity=88 time=0
EXTRACT: note_off channel=5 note=50 velocity=95 time=0
EXTRACT: note_off channel=1 note=38 velocity=112 time=0.10727583333333332
EXTRACT: note_off channel=14 note=72 velocity=101 time=0
EXTRACT: note_off channel=14 note=69 velocity=102 time=0
EXTRACT: note_off channel=15 note=65 velocity=126 time=0
EXTRACT: note_on channel=2 note=62 velocity=101 time=0.018656666666666665
EXTRACT: note_on channel=2 note=65 velocity=99 time=0
EXTRACT: note_on channel=5 note=50 velocity=87 time=0
EXTRACT: note_on channel=5 note=53 velocity=97 time=0
EXTRACT: note_on channel=9 note=42 velocity=75 time=0
EXTRACT: note_on channel=14 note=69 velocity=108 time=0
EXTRACT: note_on channel=14 note=72 velocity=114 time=0
EXTRACT: note_on channel=15 note=64 velocity=109 time=0
EXTRACT: note_off channel=9 note=42 velocity=75 time=0.004664166666666666
EXTRACT: note_off channel=2 note=65 velocity=99 time=0.09328333333333333
EXTRACT: note_off channel=2 note=62 velocity=101 time=0
EXTRACT: note_off channel=5 note=53 velocity=97 time=0
EXTRACT: note_off channel=5 note=50 velocity=87 time=0
EXTRACT: note_on channel=1 note=31 velocity=114 time=0.1259325
EXTRACT: note_on channel=9 note=36 velocity=124 time=0
EXTRACT: note_on channel=9 note=42 velocity=73 time=0
EXTRACT: note_off channel=9 note=42 velocity=73 time=0.004664166666666666
EXTRACT: note_off channel=9 note=36 velocity=124 time=0
EXTRACT: note_off channel=1 note=31 velocity=114 time=0.20055916666666665
EXTRACT: note_off channel=14 note=72 velocity=114 time=0
EXTRACT: note_off channel=14 note=69 velocity=108 time=0
EXTRACT: note_off channel=15 note=64 velocity=109 time=0
EXTRACT: note_on channel=1 note=43 velocity=120 time=0.018656666666666665
EXTRACT: note_on channel=9 note=42 velocity=68 time=0
EXTRACT: note_on channel=14 note=69 velocity=113 time=0
EXTRACT: note_on channel=14 note=72 velocity=105 time=0
EXTRACT: note_on channel=15 note=65 velocity=109 time=0
EXTRACT: note_off channel=9 note=42 velocity=68 time=0.004664166666666666
EXTRACT: note_off channel=1 note=43 velocity=120 time=0.08861916666666667
EXTRACT: note_on channel=2 note=62 velocity=97 time=0.13059666666666667
EXTRACT: note_on channel=2 note=65 velocity=110 time=0
EXTRACT: note_on channel=5 note=50 velocity=104 time=0
EXTRACT: note_on channel=5 note=53 velocity=86 time=0
EXTRACT: note_on channel=9 note=38 velocity=122 time=0
EXTRACT: note_on channel=9 note=42 velocity=74 time=0
EXTRACT: note_off channel=9 note=42 velocity=74 time=0.004664166666666666
EXTRACT: note_off channel=9 note=38 velocity=122 time=0
EXTRACT: note_off channel=2 note=65 velocity=110 time=0.09328333333333333
EXTRACT: note_off channel=2 note=62 velocity=97 time=0
EXTRACT: note_off channel=5 note=53 velocity=86 time=0
EXTRACT: note_off channel=5 note=50 velocity=104 time=0
EXTRACT: note_off channel=14 note=72 velocity=105 time=0.10727583333333332
EXTRACT: note_off channel=14 note=69 velocity=113 time=0
EXTRACT: note_off channel=15 note=65 velocity=109 time=0
EXTRACT: note_on channel=1 note=31 velocity=110 time=0.018656666666666665
EXTRACT: note_on channel=2 note=62 velocity=113 time=0
EXTRACT: note_on channel=2 note=65 velocity=102 time=0
EXTRACT: note_on channel=5 note=50 velocity=87 time=0
EXTRACT: note_on channel=5 note=53 velocity=92 time=0
EXTRACT: note_on channel=9 note=42 velocity=68 time=0
EXTRACT: note_on channel=14 note=67 velocity=108 time=0
EXTRACT: note_on channel=14 note=72 velocity=101 time=0
EXTRACT: note_on channel=15 note=64 velocity=112 time=0
EXTRACT: note_off channel=9 note=42 velocity=68 time=0.004664166666666666
EXTRACT: note_off channel=2 note=65 velocity=102 time=0.09328333333333333
EXTRACT: note_off channel=2 note=62 velocity=113 time=0
EXTRACT: note_off channel=5 note=53 velocity=92 time=0
EXTRACT: note_off channel=5 note=50 velocity=87 time=0
EXTRACT: note_off channel=1 note=31 velocity=110 time=0.10727583333333332
EXTRACT: note_on channel=1 note=36 velocity=110 time=0.018656666666666665
EXTRACT: note_on channel=9 note=36 velocity=122 time=0
EXTRACT: note_on channel=9 note=42 velocity=63 time=0
EXTRACT: note_on channel=9 note=45 velocity=108 time=0
EXTRACT: note_off channel=9 note=45 velocity=108 time=0.004664166666666666
EXTRACT: note_off channel=9 note=42 velocity=63 time=0
EXTRACT: note_off channel=9 note=36 velocity=122 time=0
EXTRACT: note_off channel=1 note=36 velocity=110 time=0.20055916666666665
EXTRACT: note_off channel=14 note=72 velocity=101 time=0
EXTRACT: note_off channel=14 note=67 velocity=108 time=0
EXTRACT: note_off channel=15 note=64 velocity=112 time=0
EXTRACT: note_on channel=9 note=42 velocity=75 time=0.018656666666666665
EXTRACT: note_on channel=9 note=45 velocity=119 time=0
EXTRACT: note_on channel=14 note=64 velocity=115 time=0
EXTRACT: note_on channel=14 note=67 velocity=113 time=0
EXTRACT: note_on channel=15 note=60 velocity=121 time=0
EXTRACT: note_off channel=9 note=45 velocity=119 time=0.004664166666666666
EXTRACT: note_off channel=9 note=42 velocity=75 time=0
EXTRACT: note_off channel=14 note=67 velocity=113 time=0.20055916666666665
EXTRACT: note_off channel=14 note=64 velocity=115 time=0
EXTRACT: note_off channel=15 note=60 velocity=121 time=0
EXTRACT: note_on channel=1 note=36 velocity=126 time=0.018656666666666665
EXTRACT: note_on channel=2 note=60 velocity=100 time=0
EXTRACT: note_on channel=2 note=64 velocity=99 time=0
EXTRACT: note_on channel=5 note=48 velocity=104 time=0
EXTRACT: note_on channel=5 note=52 velocity=100 time=0
EXTRACT: note_on channel=9 note=38 velocity=123 time=0
EXTRACT: note_on channel=9 note=42 velocity=75 time=0
EXTRACT: note_off channel=9 note=42 velocity=75 time=0.004664166666666666
EXTRACT: note_off channel=9 note=38 velocity=123 time=0
EXTRACT: note_off channel=2 note=64 velocity=99 time=0.09328333333333333
EXTRACT: note_off channel=2 note=60 velocity=100 time=0
EXTRACT: note_off channel=5 note=52 velocity=100 time=0
EXTRACT: note_off channel=5 note=48 velocity=104 time=0
EXTRACT: note_off channel=1 note=36 velocity=126 time=0.10727583333333332
EXTRACT: note_on channel=2 note=60 velocity=107 time=0.018656666666666665
EXTRACT: note_on channel=2 note=64 velocity=108 time=0
EXTRACT: note_on channel=5 note=48 velocity=103 time=0
EXTRACT: note_on channel=5 note=52 velocity=87 time=0
EXTRACT: note_on channel=9 note=42 velocity=70 time=0
EXTRACT: note_off channel=9 note=42 velocity=70 time=0.004664166666666666
EXTRACT: note_off channel=2 note=64 velocity=108 time=0.09328333333333333
EXTRACT: note_off channel=2 note=60 velocity=107 time=0
EXTRACT: note_off channel=5 note=52 velocity=87 time=0
EXTRACT: note_off channel=5 note=48 velocity=103 time=0
EXTRACT: note_on channel=1 note=31 velocity=110 time=0.1259325
EXTRACT: note_on channel=9 note=36 velocity=127 time=0
EXTRACT: note_on channel=9 note=42 velocity=68 time=0
EXTRACT: note_off channel=9 note=42 velocity=68 time=0.004664166666666666
EXTRACT: note_off channel=9 note=36 velocity=127 time=0
EXTRACT: note_off channel=1 note=31 velocity=110 time=0.20055916666666665
EXTRACT: note_on channel=1 note=36 velocity=116 time=0.018656666666666665
EXTRACT: note_on channel=9 note=81 velocity=93 time=0
EXTRACT: note_on channel=9 note=42 velocity=69 time=0
EXTRACT: note_off channel=9 note=42 velocity=69 time=0.004664166666666666
EXTRACT: note_off channel=9 note=81 velocity=93 time=0
EXTRACT: note_off channel=1 note=36 velocity=116 time=0.08861916666666667
EXTRACT: note_on channel=2 note=60 velocity=106 time=0.13059666666666667
EXTRACT: note_on channel=2 note=64 velocity=112 time=0
EXTRACT: note_on channel=5 note=48 velocity=97 time=0
EXTRACT: note_on channel=5 note=52 velocity=87 time=0
EXTRACT: note_on channel=9 note=38 velocity=117 time=0
EXTRACT: note_on channel=9 note=42 velocity=75 time=0
EXTRACT: note_off channel=9 note=42 velocity=75 time=0.004664166666666666
EXTRACT: note_off channel=9 note=38 velocity=117 time=0
EXTRACT: note_off channel=2 note=64 velocity=112 time=0.09328333333333333
EXTRACT: note_off channel=2 note=60 velocity=106 time=0
EXTRACT: note_off channel=5 note=52 velocity=87 time=0
EXTRACT: note_off channel=5 note=48 velocity=97 time=0
EXTRACT: note_on channel=1 note=31 velocity=122 time=0.1259325
EXTRACT: note_on channel=2 note=60 velocity=97 time=0
EXTRACT: note_on channel=2 note=64 velocity=95 time=0
EXTRACT: note_on channel=5 note=48 velocity=99 time=0
EXTRACT: note_on channel=5 note=52 velocity=91 time=0
EXTRACT: note_on channel=9 note=81 velocity=107 time=0
EXTRACT: note_on channel=9 note=42 velocity=64 time=0
EXTRACT: note_off channel=9 note=42 velocity=64 time=0.004664166666666666
EXTRACT: note_off channel=9 note=81 velocity=107 time=0
EXTRACT: note_off channel=2 note=64 velocity=95 time=0.09328333333333333
EXTRACT: note_off channel=2 note=60 velocity=97 time=0
EXTRACT: note_off channel=5 note=52 velocity=91 time=0
EXTRACT: note_off channel=5 note=48 velocity=99 time=0
EXTRACT: note_off channel=1 note=31 velocity=122 time=0.10727583333333332
EXTRACT: note_on channel=1 note=36 velocity=121 time=0.018656666666666665
EXTRACT: note_on channel=9 note=36 velocity=124 time=0
EXTRACT: note_on channel=9 note=49 velocity=122 time=0
EXTRACT: note_on channel=15 note=64 velocity=124 time=0
EXTRACT: note_off channel=9 note=49 velocity=122 time=0.004664166666666666
EXTRACT: note_off channel=9 note=36 velocity=124 time=0
EXTRACT: note_off channel=1 note=36 velocity=121 time=0.20055916666666665
EXTRACT: note_off channel=15 note=64 velocity=124 time=0
EXTRACT: note_on channel=9 note=42 velocity=67 time=0.018656666666666665
EXTRACT: note_on channel=15 note=65 velocity=111 time=0
EXTRACT: note_off channel=9 note=42 velocity=67 time=0.004664166666666666
EXTRACT: note_on channel=1 note=36 velocity=109 time=0.2192158333333333
EXTRACT: note_on channel=2 note=60 velocity=98 time=0
EXTRACT: note_on channel=2 note=65 velocity=114 time=0
EXTRACT: note_on channel=2 note=67 velocity=102 time=0
EXTRACT: note_on channel=5 note=48 velocity=100 time=0
EXTRACT: note_on channel=5 note=53 velocity=87 time=0
EXTRACT: note_on channel=5 note=55 velocity=93 time=0
EXTRACT: note_on channel=9 note=38 velocity=127 time=0
EXTRACT: note_on channel=9 note=42 velocity=73 time=0
EXTRACT: note_off channel=9 note=42 velocity=73 time=0.004664166666666666
EXTRACT: note_off channel=9 note=38 velocity=127 time=0
EXTRACT: note_off channel=2 note=67 velocity=102 time=0.09328333333333333
EXTRACT: note_off channel=2 note=65 velocity=114 time=0
EXTRACT: note_off channel=2 note=60 velocity=98 time=0
EXTRACT: note_off channel=5 note=55 velocity=93 time=0
EXTRACT: note_off channel=5 note=53 velocity=87 time=0
EXTRACT: note_off channel=5 note=48 velocity=100 time=0
EXTRACT: note_off channel=1 note=36 velocity=109 time=0.10727583333333332
EXTRACT: note_off channel=15 note=65 velocity=111 time=0
EXTRACT: note_on channel=2 note=60 velocity=99 time=0.018656666666666665
EXTRACT: note_on channel=2 note=65 velocity=114 time=0
EXTRACT: note_on channel=2 note=67 velocity=106 time=0
EXTRACT: note_on channel=5 note=48 velocity=95 time=0
EXTRACT: note_on channel=5 note=53 velocity=96 time=0
EXTRACT: note_on channel=5 note=55 velocity=96 time=0
EXTRACT: note_on channel=9 note=42 velocity=74 time=0
EXTRACT: note_on channel=15 note=64 velocity=110 time=0
EXTRACT: note_off channel=9 note=42 velocity=74 time=0.004664166666666666
EXTRACT: note_off channel=2 note=67 velocity=106 time=0.09328333333333333
EXTRACT: note_off channel=2 note=65 velocity=114 time=0
EXTRACT: note_off channel=2 note=60 velocity=99 time=0
EXTRACT: note_off channel=5 note=55 velocity=96 time=0
EXTRACT: note_off channel=5 note=53 velocity=96 time=0
EXTRACT: note_off channel=5 note=48 velocity=95 time=0
EXTRACT: note_on channel=1 note=31 velocity=117 time=0.1259325
EXTRACT: note_on channel=9 note=36 velocity=123 time=0
EXTRACT: note_on channel=9 note=42 velocity=59 time=0
EXTRACT: note_off channel=9 note=42 velocity=59 time=0.004664166666666666
EXTRACT: note_off channel=9 note=36 velocity=123 time=0
EXTRACT: note_off channel=1 note=31 velocity=117 time=0.20055916666666665
EXTRACT: note_off channel=15 note=64 velocity=110 time=0
EXTRACT: note_on channel=1 note=36 velocity=114 time=0.018656666666666665
EXTRACT: note_on channel=9 note=42 velocity=59 time=0
EXTRACT: note_on channel=15 note=65 velocity=122 time=0
EXTRACT: note_off channel=9 note=42 velocity=59 time=0.004664166666666666
EXTRACT: note_off channel=1 note=36 velocity=114 time=0.08861916666666667
EXTRACT: note_on channel=2 note=60 velocity=98 time=0.13059666666666667
EXTRACT: note_on channel=2 note=65 velocity=101 time=0
EXTRACT: note_on channel=2 note=67 velocity=105 time=0
EXTRACT: note_on channel=5 note=48 velocity=99 time=0
EXTRACT: note_on channel=5 note=53 velocity=105 time=0
EXTRACT: note_on channel=5 note=55 velocity=98 time=0
EXTRACT: note_on channel=9 note=38 velocity=127 time=0
EXTRACT: note_on channel=9 note=42 velocity=63 time=0
EXTRACT: note_off channel=9 note=42 velocity=63 time=0.004664166666666666
EXTRACT: note_off channel=9 note=38 velocity=127 time=0
EXTRACT: note_off channel=2 note=67 velocity=105 time=0.09328333333333333
EXTRACT: note_off channel=2 note=65 velocity=101 time=0
EXTRACT: note_off channel=2 note=60 velocity=98 time=0
EXTRACT: note_off channel=5 note=55 velocity=98 time=0
EXTRACT: note_off channel=5 note=53 velocity=105 time=0
EXTRACT: note_off channel=5 note=48 velocity=99 time=0
EXTRACT: note_off channel=15 note=65 velocity=122 time=0.10727583333333332
EXTRACT: note_on channel=1 note=31 velocity=113 time=0.018656666666666665
EXTRACT: note_on channel=2 note=60 velocity=96 time=0
EXTRACT: note_on channel=2 note=65 velocity=111 time=0
EXTRACT: note_on channel=2 note=67 velocity=113 time=0
EXTRACT: note_on channel=5 note=48 velocity=89 time=0
EXTRACT: note_on channel=5 note=53 velocity=102 time=0
EXTRACT: note_on channel=5 note=55 velocity=87 time=0
EXTRACT: note_on channel=9 note=42 velocity=66 time=0
EXTRACT: note_on channel=15 note=67 velocity=120 time=0
EXTRACT: note_off channel=9 note=42 velocity=66 time=0.004664166666666666
EXTRACT: note_off channel=2 note=67 velocity=113 time=0.09328333333333333
EXTRACT: note_off channel=2 note=65 velocity=111 time=0
EXTRACT: note_off channel=2 note=60 velocity=96 time=0
EXTRACT: note_off channel=5 note=55 velocity=87 time=0
EXTRACT: note_off channel=5 note=53 velocity=102 time=0
EXTRACT: note_off channel=5 note=48 velocity=89 time=0
EXTRACT: note_off channel=1 note=31 velocity=113 time=0.10727583333333332
EXTRACT: note_on channel=1 note=36 velocity=116 time=0.018656666666666665
EXTRACT: note_on channel=9 note=36 velocity=127 time=0
EXTRACT: note_on channel=9 note=42 velocity=66 time=0
EXTRACT: note_off channel=9 note=42 velocity=66 time=0.004664166666666666
EXTRACT: note_off channel=9 note=36 velocity=127 time=0
EXTRACT: note_off channel=1 note=36 velocity=116 time=0.20055916666666665
EXTRACT: note_off channel=15 note=67 velocity=120 time=0
EXTRACT: note_on channel=9 note=42 velocity=66 time=0.018656666666666665
EXTRACT: note_on channel=15 note=69 velocity=125 time=0
EXTRACT: note_off channel=9 note=42 velocity=66 time=0.004664166666666666
EXTRACT: note_on channel=1 note=36 velocity=119 time=0.2192158333333333
EXTRACT: note_on channel=2 note=60 velocity=109 time=0
EXTRACT: note_on channel=2 note=64 velocity=99 time=0
EXTRACT: note_on channel=2 note=67 velocity=111 time=0
EXTRACT: note_on channel=5 note=48 velocity=96 time=0
EXTRACT: note_on channel=5 note=52 velocity=95 time=0
EXTRACT: note_on channel=5 note=55 velocity=91 time=0
EXTRACT: note_on channel=9 note=38 velocity=115 time=0
EXTRACT: note_on channel=9 note=42 velocity=66 time=0
EXTRACT: note_off channel=9 note=42 velocity=66 time=0.004664166666666666
EXTRACT: note_off channel=9 note=38 velocity=115 time=0
EXTRACT: note_off channel=2 note=67 velocity=111 time=0.09328333333333333
EXTRACT: note_off channel=2 note=64 velocity=99 time=0
EXTRACT: note_off channel=2 note=60 velocity=109 time=0
EXTRACT: note_off channel=5 note=55 velocity=91 time=0
EXTRACT: note_off channel=5 note=52 velocity=95 time=0
EXTRACT: note_off channel=5 note=48 velocity=96 time=0
EXTRACT: note_off channel=1 note=36 velocity=119 time=0.10727583333333332
EXTRACT: note_off channel=15 note=69 velocity=125 time=0
EXTRACT: note_on channel=2 note=60 velocity=113 time=0.018656666666666665
EXTRACT: note_on channel=2 note=64 velocity=102 time=0
EXTRACT: note_on channel=2 note=67 velocity=112 time=0
EXTRACT: note_on channel=5 note=48 velocity=90 time=0
EXTRACT: note_on channel=5 note=52 velocity=103 time=0
EXTRACT: note_on channel=5 note=55 velocity=100 time=0
EXTRACT: note_on channel=9 note=42 velocity=72 time=0
EXTRACT: note_on channel=15 note=67 velocity=118 time=0
EXTRACT: note_off channel=9 note=42 velocity=72 time=0.004664166666666666
EXTRACT: note_off channel=2 note=67 velocity=112 time=0.09328333333333333
EXTRACT: note_off channel=2 note=64 velocity=102 time=0
EXTRACT: note_off channel=2 note=60 velocity=113 time=0
EXTRACT: note_off channel=5 note=55 velocity=100 time=0
EXTRACT: note_off channel=5 note=52 velocity=103 time=0
EXTRACT: note_off channel=5 note=48 velocity=90 time=0
EXTRACT: note_on channel=1 note=31 velocity=116 time=0.1259325
EXTRACT: note_on channel=9 note=36 velocity=121 time=0
EXTRACT: note_on channel=9 note=46 velocity=115 time=0
EXTRACT: note_off channel=9 note=46 velocity=115 time=0.004664166666666666
EXTRACT: note_off channel=9 note=36 velocity=121 time=0
EXTRACT: note_off channel=1 note=31 velocity=116 time=0.20055916666666665
EXTRACT: note_off channel=15 note=67 velocity=118 time=0
EXTRACT: note_on channel=1 note=36 velocity=120 time=0.018656666666666665
EXTRACT: note_on channel=9 note=42 velocity=69 time=0
EXTRACT: note_on channel=15 note=69 velocity=112 time=0
EXTRACT: note_off channel=9 note=42 velocity=69 time=0.004664166666666666
EXTRACT: note_off channel=1 note=36 velocity=120 time=0.08861916666666667
EXTRACT: note_off channel=15 note=69 velocity=112 time=0.11193999999999998
EXTRACT: note_on channel=2 note=60 velocity=114 time=0.018656666666666665
EXTRACT: note_on channel=2 note=64 velocity=100 time=0
EXTRACT: note_on channel=2 note=67 velocity=100 time=0
EXTRACT: note_on channel=5 note=48 velocity=96 time=0
EXTRACT: note_on channel=5 note=52 velocity=104 time=0
EXTRACT: note_on channel=5 note=55 velocity=92 time=0
EXTRACT: note_on channel=9 note=38 velocity=123 time=0
EXTRACT: note_on channel=9 note=46 velocity=118 time=0
EXTRACT: note_off channel=9 note=46 velocity=118 time=0.004664166666666666
EXTRACT: note_off channel=9 note=38 velocity=123 time=0
EXTRACT: note_off channel=2 note=67 velocity=100 time=0.09328333333333333
EXTRACT: note_off channel=2 note=64 velocity=100 time=0
EXTRACT: note_off channel=2 note=60 velocity=114 time=0
EXTRACT: note_off channel=5 note=55 velocity=92 time=0
EXTRACT: note_off channel=5 note=52 velocity=104 time=0
EXTRACT: note_off channel=5 note=48 velocity=96 time=0
EXTRACT: note_on channel=1 note=29 velocity=123 time=0.1259325
EXTRACT: note_on channel=2 note=60 velocity=106 time=0
EXTRACT: note_on channel=2 note=64 velocity=96 time=0
EXTRACT: note_on channel=2 note=67 velocity=105 time=0
EXTRACT: note_on channel=5 note=48 velocity=102 time=0
EXTRACT: note_on channel=5 note=52 velocity=95 time=0
EXTRACT: note_on channel=5 note=55 velocity=89 time=0
EXTRACT: note_on channel=9 note=42 velocity=72 time=0
EXTRACT: note_on channel=15 note=70 velocity=109 time=0
EXTRACT: note_off channel=9 note=42 velocity=72 time=0.004664166666666666
EXTRACT: note_off channel=2 note=67 velocity=105 time=0.09328333333333333
EXTRACT: note_off channel=2 note=64 velocity=96 time=0
EXTRACT: note_off channel=2 note=60 velocity=106 time=0
EXTRACT: note_off channel=5 note=55 velocity=89 time=0
EXTRACT: note_off channel=5 note=52 velocity=95 time=0
EXTRACT: note_off channel=5 note=48 velocity=102 time=0
EXTRACT: note_off channel=1 note=29 velocity=123 time=0.10727583333333332
EXTRACT: note_on channel=1 note=34 velocity=118 time=0.018656666666666665
EXTRACT: note_on channel=9 note=36 velocity=127 time=0
EXTRACT: note_on channel=9 note=42 velocity=75 time=0
EXTRACT: note_off channel=9 note=42 velocity=75 time=0.004664166666666666
EXTRACT: note_off channel=9 note=36 velocity=127 time=0
EXTRACT: note_off channel=1 note=34 velocity=118 time=0.20055916666666665
EXTRACT: note_on channel=9 note=42 velocity=77 time=0.018656666666666665
EXTRACT: note_off channel=9 note=42 velocity=77 time=0.004664166666666666
EXTRACT: note_off channel=15 note=70 velocity=109 time=0.20055916666666665
EXTRACT: note_on channel=1 note=34 velocity=112 time=0.018656666666666665
EXTRACT: note_on channel=2 note=58 velocity=103 time=0
EXTRACT: note_on channel=2 note=62 velocity=110 time=0
EXTRACT: note_on channel=2 note=65 velocity=113 time=0
EXTRACT: note_on channel=5 note=46 velocity=88 time=0
EXTRACT: note_on channel=5 note=50 velocity=102 time=0
EXTRACT: note_on channel=5 note=53 velocity=91 time=0
EXTRACT: note_on channel=9 note=38 velocity=127 time=0
EXTRACT: note_on channel=9 note=42 velocity=61 time=0
EXTRACT: note_on channel=15 note=69 velocity=117 time=0
EXTRACT: note_off channel=9 note=42 velocity=61 time=0.004664166666666666
EXTRACT: note_off channel=9 note=38 velocity=127 time=0
EXTRACT: note_off channel=2 note=65 velocity=113 time=0.09328333333333333
EXTRACT: note_off channel=2 note=62 velocity=110 time=0
EXTRACT: note_off channel=2 note=58 velocity=103 time=0
EXTRACT: note_off channel=5 note=53 velocity=91 time=0
EXTRACT: note_off channel=5 note=50 velocity=102 time=0
EXTRACT: note_off channel=5 note=46 velocity=88 time=0
EXTRACT: note_off channel=1 note=34 velocity=112 time=0.10727583333333332
EXTRACT: note_on channel=2 note=58 velocity=108 time=0.018656666666666665
EXTRACT: note_on channel=2 note=62 velocity=104 time=0
EXTRACT: note_on channel=2 note=65 velocity=95 time=0
EXTRACT: note_on channel=5 note=46 velocity=101 time=0
EXTRACT: note_on channel=5 note=50 velocity=90 time=0
EXTRACT: note_on channel=5 note=53 velocity=86 time=0
EXTRACT: note_on channel=9 note=42 velocity=64 time=0
EXTRACT: note_off channel=9 note=42 velocity=64 time=0.004664166666666666
EXTRACT: note_off channel=2 note=65 velocity=95 time=0.09328333333333333
EXTRACT: note_off channel=2 note=62 velocity=104 time=0
EXTRACT: note_off channel=2 note=58 velocity=108 time=0
EXTRACT: note_off channel=5 note=53 velocity=86 time=0
EXTRACT: note_off channel=5 note=50 velocity=90 time=0
EXTRACT: note_off channel=5 note=46 velocity=101 time=0
EXTRACT: note_off channel=15 note=69 velocity=117 time=0.10727583333333332
EXTRACT: note_on channel=1 note=29 velocity=114 time=0.018656666666666665
EXTRACT: note_on channel=9 note=36 velocity=127 time=0
EXTRACT: note_on channel=9 note=42 velocity=67 time=0
EXTRACT: note_on channel=15 note=67 velocity=120 time=0
EXTRACT: note_off channel=9 note=42 velocity=67 time=0.004664166666666666
EXTRACT: note_off channel=9 note=36 velocity=127 time=0
EXTRACT: note_off channel=1 note=29 velocity=114 time=0.20055916666666665
EXTRACT: note_on channel=1 note=34 velocity=113 time=0.018656666666666665
EXTRACT: note_on channel=9 note=42 velocity=70 time=0
EXTRACT: note_off channel=9 note=42 velocity=70 time=0.004664166666666666
EXTRACT: note_off channel=1 note=34 velocity=113 time=0.08861916666666667
EXTRACT: note_off channel=15 note=67 velocity=120 time=0.11193999999999998
EXTRACT: note_on channel=2 note=58 velocity=112 time=0.018656666666666665
EXTRACT: note_on channel=2 note=62 velocity=105 time=0
EXTRACT: note_on channel=2 note=65 velocity=106 time=0
EXTRACT: note_on channel=5 note=46 velocity=105 time=0
EXTRACT: note_on channel=5 note=50 velocity=92 time=0
EXTRACT: note_on channel=5 note=53 velocity=87 time=0
EXTRACT: note_on channel=9 note=38 velocity=127 time=0
EXTRACT: note_on channel=9 note=42 velocity=70 time=0
EXTRACT: note_on channel=15 note=65 velocity=121 time=0
EXTRACT: note_off channel=9 note=42 velocity=70 time=0.004664166666666666
EXTRACT: note_off channel=9 note=38 velocity=127 time=0
EXTRACT: note_off channel=2 note=65 velocity=106 time=0.09328333333333333
EXTRACT: note_off channel=2 note=62 velocity=105 time=0
EXTRACT: note_off channel=2 note=58 velocity=112 time=0
EXTRACT: note_off channel=5 note=53 velocity=87 time=0
EXTRACT: note_off channel=5 note=50 velocity=92 time=0
EXTRACT: note_off channel=5 note=46 velocity=105 time=0
EXTRACT: note_off channel=15 note=65 velocity=121 time=0.10727583333333332
EXTRACT: note_on channel=1 note=28 velocity=118 time=0.018656666666666665
EXTRACT: note_on channel=2 note=58 velocity=108 time=0
EXTRACT: note_on channel=2 note=62 velocity=101 time=0
EXTRACT: note_on channel=2 note=65 velocity=113 time=0
EXTRACT: note_on channel=5 note=46 velocity=91 time=0
EXTRACT: note_on channel=5 note=50 velocity=89 time=0
EXTRACT: note_on channel=5 note=53 velocity=98 time=0
EXTRACT: note_on channel=9 note=42 velocity=64 time=0
EXTRACT: note_on channel=15 note=67 velocity=119 time=0
EXTRACT: note_off channel=9 note=42 velocity=64 time=0.004664166666666666
EXTRACT: note_off channel=2 note=65 velocity=113 time=0.09328333333333333
EXTRACT: note_off channel=2 note=62 velocity=101 time=0
EXTRACT: note_off channel=2 note=58 velocity=108 time=0
EXTRACT: note_off channel=5 note=53 velocity=98 time=0
EXTRACT: note_off channel=5 note=50 velocity=89 time=0
EXTRACT: note_off channel=5 note=46 velocity=91 time=0
EXTRACT: note_off channel=1 note=28 velocity=118 time=0.10727583333333332
EXTRACT: note_on channel=1 note=33 velocity=110 time=0.018656666666666665
EXTRACT: note_on channel=9 note=36 velocity=127 time=0
EXTRACT: note_on channel=9 note=42 velocity=65 time=0
EXTRACT: note_off channel=9 note=42 velocity=65 time=0.004664166666666666
EXTRACT: note_off channel=9 note=36 velocity=127 time=0
EXTRACT: note_off channel=1 note=33 velocity=110 time=0.20055916666666665
EXTRACT: note_off channel=15 note=67 velocity=119 time=0
EXTRACT: note_on channel=9 note=42 velocity=69 time=0.018656666666666665
EXTRACT: note_on channel=15 note=62 velocity=127 time=0
EXTRACT: note_off channel=9 note=42 velocity=69 time=0.004664166666666666
EXTRACT: note_off channel=15 note=62 velocity=127 time=0.20055916666666665
EXTRACT: note_on channel=1 note=33 velocity=125 time=0.018656666666666665
EXTRACT: note_on channel=2 note=57 velocity=99 time=0
EXTRACT: note_on channel=2 note=60 velocity=103 time=0
EXTRACT: note_on channel=2 note=64 velocity=106 time=0
EXTRACT: note_on channel=5 note=45 velocity=88 time=0
EXTRACT: note_on channel=5 note=48 velocity=97 time=0
EXTRACT: note_on channel=5 note=52 velocity=98 time=0
EXTRACT: note_on channel=9 note=38 velocity=127 time=0
EXTRACT: note_on channel=9 note=42 velocity=61 time=0
EXTRACT: note_on channel=12 note=69 velocity=116 time=0
EXTRACT: note_on channel=15 note=64 velocity=119 time=0
EXTRACT: note_off channel=9 note=42 velocity=61 time=0.004664166666666666
EXTRACT: note_off channel=9 note=38 velocity=127 time=0
EXTRACT: note_off channel=2 note=64 velocity=106 time=0.09328333333333333
EXTRACT: note_off channel=2 note=60 velocity=103 time=0
EXTRACT: note_off channel=2 note=57 velocity=99 time=0
EXTRACT: note_off channel=5 note=52 velocity=98 time=0
EXTRACT: note_off channel=5 note=48 velocity=97 time=0
EXTRACT: note_off channel=5 note=45 velocity=88 time=0
EXTRACT: note_off channel=1 note=33 velocity=125 time=0.10727583333333332
EXTRACT: note_off channel=12 note=69 velocity=116 time=0
EXTRACT: note_off channel=15 note=64 velocity=119 time=0
EXTRACT: note_on channel=2 note=57 velocity=104 time=0.018656666666666665
EXTRACT: note_on channel=2 note=60 velocity=106 time=0
EXTRACT: note_on channel=2 note=64 velocity=107 time=0
EXTRACT: note_on channel=5 note=45 velocity=100 time=0
EXTRACT: note_on channel=5 note=48 velocity=93 time=0
EXTRACT: note_on channel=5 note=52 velocity=102 time=0
EXTRACT: note_on channel=9 note=42 velocity=69 time=0
EXTRACT: note_on channel=12 note=64 velocity=111 time=0
EXTRACT: note_off channel=9 note=42 velocity=69 time=0.004664166666666666
EXTRACT: note_off channel=2 note=64 velocity=107 time=0.09328333333333333
EXTRACT: note_off channel=2 note=60 velocity=106 time=0
EXTRACT: note_off channel=2 note=57 velocity=104 time=0
EXTRACT: note_off channel=5 note=52 velocity=102 time=0
EXTRACT: note_off channel=5 note=48 velocity=93 time=0
EXTRACT: note_off channel=5 note=45 velocity=100 time=0
EXTRACT: note_off channel=12 note=64 velocity=111 time=0.10727583333333332
EXTRACT: note_on channel=1 note=28 velocity=111 time=0.018656666666666665
EXTRACT: note_on channel=9 note=36 velocity=125 time=0
EXTRACT: note_on channel=9 note=42 velocity=69 time=0
EXTRACT: note_off channel=9 note=42 velocity=69 time=0.004664166666666666
EXTRACT: note_off channel=9 note=36 velocity=125 time=0
EXTRACT: note_off channel=1 note=28 velocity=111 time=0.20055916666666665
EXTRACT: note_on channel=1 note=33 velocity=123 time=0.018656666666666665
EXTRACT: note_on channel=9 note=42 velocity=67 time=0
EXTRACT: note_off channel=9 note=42 velocity=67 time=0.004664166666666666
EXTRACT: note_off channel=1 note=33 velocity=123 time=0.08861916666666667
EXTRACT: note_on channel=2 note=57 velocity=114 time=0.13059666666666667
EXTRACT: note_on channel=2 note=60 velocity=109 time=0
EXTRACT: note_on channel=2 note=64 velocity=112 time=0
EXTRACT: note_on channel=5 note=45 velocity=98 time=0
EXTRACT: note_on channel=5 note=48 velocity=97 time=0
EXTRACT: note_on channel=5 note=52 velocity=96 time=0
EXTRACT: note_on channel=9 note=38 velocity=114 time=0
EXTRACT: note_on channel=9 note=42 velocity=62 time=0
EXTRACT: note_on channel=12 note=69 velocity=98 time=0
EXTRACT: note_off channel=9 note=42 velocity=62 time=0.004664166666666666
EXTRACT: note_off channel=9 note=38 velocity=114 time=0
EXTRACT: note_off channel=2 note=64 velocity=112 time=0.09328333333333333
EXTRACT: note_off channel=2 note=60 velocity=109 time=0
EXTRACT: note_off channel=2 note=57 velocity=114 time=0
EXTRACT: note_off channel=5 note=52 velocity=96 time=0
EXTRACT: note_off channel=5 note=48 velocity=97 time=0
EXTRACT: note_off channel=5 note=45 velocity=98 time=0
EXTRACT: note_off channel=12 note=69 velocity=98 time=0.10727583333333332
EXTRACT: note_on channel=1 note=31 velocity=125 time=0.018656666666666665
EXTRACT: note_on channel=2 note=57 velocity=101 time=0
EXTRACT: note_on channel=2 note=60 velocity=100 time=0
EXTRACT: note_on channel=2 note=64 velocity=110 time=0
EXTRACT: note_on channel=5 note=45 velocity=95 time=0
EXTRACT: note_on channel=5 note=48 velocity=99 time=0
EXTRACT: note_on channel=5 note=52 velocity=103 time=0
EXTRACT: note_on channel=9 note=42 velocity=66 time=0
EXTRACT: note_on channel=12 note=64 velocity=93 time=0
EXTRACT: note_on channel=15 note=60 velocity=120 time=0
EXTRACT: note_off channel=9 note=42 velocity=66 time=0.004664166666666666
EXTRACT: note_off channel=2 note=64 velocity=110 time=0.09328333333333333
EXTRACT: note_off channel=2 note=60 velocity=100 time=0
EXTRACT: note_off channel=2 note=57 velocity=101 time=0
EXTRACT: note_off channel=5 note=52 velocity=103 time=0
EXTRACT: note_off channel=5 note=48 velocity=99 time=0
EXTRACT: note_off channel=5 note=45 velocity=95 time=0
EXTRACT: note_off channel=1 note=31 velocity=125 time=0.10727583333333332
EXTRACT: note_off channel=12 note=64 velocity=93 time=0
EXTRACT: note_off channel=15 note=60 velocity=120 time=0
EXTRACT: note_on channel=1 note=36 velocity=116 time=0.018656666666666665
EXTRACT: note_on channel=9 note=36 velocity=127 time=0
EXTRACT: note_on channel=9 note=42 velocity=59 time=0
EXTRACT: note_on channel=15 note=64 velocity=113 time=0
EXTRACT: note_off channel=9 note=42 velocity=59 time=0.004664166666666666
EXTRACT: note_off channel=9 note=36 velocity=127 time=0
EXTRACT: note_off channel=1 note=36 velocity=116 time=0.20055916666666665
EXTRACT: note_off channel=15 note=64 velocity=113 time=0
EXTRACT: note_on channel=9 note=42 velocity=70 time=0.018656666666666665
EXTRACT: note_on channel=15 note=65 velocity=114 time=0
EXTRACT: note_off channel=9 note=42 velocity=70 time=0.004664166666666666
EXTRACT: note_on channel=1 note=36 velocity=120 time=0.2192158333333333
EXTRACT: note_on channel=2 note=60 velocity=100 time=0
EXTRACT: note_on channel=2 note=65 velocity=96 time=0
EXTRACT: note_on channel=2 note=67 velocity=100 time=0
EXTRACT: note_on channel=5 note=48 velocity=96 time=0
EXTRACT: note_on channel=5 note=53 velocity=88 time=0
EXTRACT: note_on channel=5 note=55 velocity=95 time=0
EXTRACT: note_on channel=9 note=38 velocity=118 time=0
EXTRACT: note_on channel=9 note=42 velocity=62 time=0
EXTRACT: note_on channel=12 note=69 velocity=80 time=0
EXTRACT: note_off channel=9 note=42 velocity=62 time=0.004664166666666666
EXTRACT: note_off channel=9 note=38 velocity=118 time=0
EXTRACT: note_off channel=2 note=67 velocity=100 time=0.09328333333333333
EXTRACT: note_off channel=2 note=65 velocity=96 time=0
EXTRACT: note_off channel=2 note=60 velocity=100 time=0
EXTRACT: note_off channel=5 note=55 velocity=95 time=0
EXTRACT: note_off channel=5 note=53 velocity=88 time=0
EXTRACT: note_off channel=5 note=48 velocity=96 time=0
EXTRACT: note_off channel=1 note=36 velocity=120 time=0.10727583333333332
EXTRACT: note_off channel=12 note=69 velocity=80 time=0
EXTRACT: note_off channel=15 note=65 velocity=114 time=0
EXTRACT: note_on channel=2 note=60 velocity=100 time=0.018656666666666665
EXTRACT: note_on channel=2 note=65 velocity=110 time=0
EXTRACT: note_on channel=2 note=67 velocity=106 time=0
EXTRACT: note_on channel=5 note=48 velocity=89 time=0
EXTRACT: note_on channel=5 note=53 velocity=99 time=0
EXTRACT: note_on channel=5 note=55 velocity=94 time=0
EXTRACT: note_on channel=9 note=42 velocity=77 time=0
EXTRACT: note_on channel=12 note=64 velocity=75 time=0
EXTRACT: note_on channel=15 note=64 velocity=127 time=0
EXTRACT: note_off channel=9 note=42 velocity=77 time=0.004664166666666666
EXTRACT: note_off channel=2 note=67 velocity=106 time=0.09328333333333333
EXTRACT: note_off channel=2 note=65 velocity=110 time=0
EXTRACT: note_off channel=2 note=60 velocity=100 time=0
EXTRACT: note_off channel=5 note=55 velocity=94 time=0
EXTRACT: note_off channel=5 note=53 velocity=99 time=0
EXTRACT: note_off channel=5 note=48 velocity=89 time=0
EXTRACT: note_off channel=12 note=64 velocity=75 time=0.10727583333333332
EXTRACT: note_on channel=1 note=31 velocity=123 time=0.018656666666666665
EXTRACT: note_on channel=9 note=36 velocity=127 time=0
EXTRACT: note_on channel=9 note=42 velocity=71 time=0
EXTRACT: note_off channel=9 note=42 velocity=71 time=0.004664166666666666
EXTRACT: note_off channel=9 note=36 velocity=127 time=0
EXTRACT: note_off channel=1 note=31 velocity=123 time=0.20055916666666665
EXTRACT: note_off channel=15 note=64 velocity=127 time=0
EXTRACT: note_on channel=1 note=36 velocity=112 time=0.018656666666666665
EXTRACT: note_on channel=9 note=42 velocity=72 time=0
EXTRACT: note_on channel=15 note=65 velocity=119 time=0
EXTRACT: note_off channel=9 note=42 velocity=72 time=0.004664166666666666
EXTRACT: note_off channel=1 note=36 velocity=112 time=0.08861916666666667
EXTRACT: note_on channel=2 note=60 velocity=105 time=0.13059666666666667
EXTRACT: note_on channel=2 note=65 velocity=108 time=0
EXTRACT: note_on channel=2 note=67 velocity=103 time=0
EXTRACT: note_on channel=5 note=48 velocity=94 time=0
EXTRACT: note_on channel=5 note=53 velocity=102 time=0
EXTRACT: note_on channel=5 note=55 velocity=99 time=0
EXTRACT: note_on channel=9 note=38 velocity=125 time=0
EXTRACT: note_on channel=9 note=42 velocity=65 time=0
EXTRACT: note_off channel=9 note=42 velocity=65 time=0.004664166666666666
EXTRACT: note_off channel=9 note=38 velocity=125 time=0
EXTRACT: note_off channel=2 note=67 velocity=103 time=0.09328333333333333
EXTRACT: note_off channel=2 note=65 velocity=108 time=0
EXTRACT: note_off channel=2 note=60 velocity=105 time=0
EXTRACT: note_off channel=5 note=55 velocity=99 time=0
EXTRACT: note_off channel=5 note=53 velocity=102 time=0
EXTRACT: note_off channel=5 note=48 velocity=94 time=0
EXTRACT: note_off channel=15 note=65 velocity=119 time=0.10727583333333332
EXTRACT: note_on channel=1 note=31 velocity=120 time=0.018656666666666665
EXTRACT: note_on channel=2 note=60 velocity=108 time=0
EXTRACT: note_on channel=2 note=65 velocity=108 time=0
EXTRACT: note_on channel=2 note=67 velocity=107 time=0
EXTRACT: note_on channel=5 note=48 velocity=101 time=0
EXTRACT: note_on channel=5 note=53 velocity=104 time=0
EXTRACT: note_on channel=5 note=55 velocity=88 time=0
EXTRACT: note_on channel=9 note=42 velocity=60 time=0
EXTRACT: note_on channel=15 note=67 velocity=125 time=0
EXTRACT: note_off channel=9 note=42 velocity=60 time=0.004664166666666666
EXTRACT: note_off channel=2 note=67 velocity=107 time=0.09328333333333333
EXTRACT: note_off channel=2 note=65 velocity=108 time=0
EXTRACT: note_off channel=2 note=60 velocity=108 time=0
EXTRACT: note_off channel=5 note=55 velocity=88 time=0
EXTRACT: note_off channel=5 note=53 velocity=104 time=0
EXTRACT: note_off channel=5 note=48 velocity=101 time=0
EXTRACT: note_off channel=1 note=31 velocity=120 time=0.10727583333333332
EXTRACT: note_on channel=1 note=36 velocity=119 time=0.018656666666666665
EXTRACT: note_on channel=9 note=36 velocity=127 time=0
EXTRACT: note_on channel=9 note=42 velocity=59 time=0
EXTRACT: note_off channel=9 note=42 velocity=59 time=0.004664166666666666
EXTRACT: note_off channel=9 note=36 velocity=127 time=0
EXTRACT: note_off channel=1 note=36 velocity=119 time=0.20055916666666665
EXTRACT: note_off channel=15 note=67 velocity=125 time=0
EXTRACT: note_on channel=9 note=42 velocity=59 time=0.018656666666666665
EXTRACT: note_on channel=15 note=69 velocity=112 time=0
EXTRACT: note_off channel=9 note=42 velocity=59 time=0.004664166666666666
EXTRACT: note_on channel=1 note=36 velocity=111 time=0.2192158333333333
EXTRACT: note_on channel=2 note=60 velocity=110 time=0
EXTRACT: note_on channel=2 note=64 velocity=112 time=0
EXTRACT: note_on channel=2 note=67 velocity=108 time=0
EXTRACT: note_on channel=5 note=48 velocity=90 time=0
EXTRACT: note_on channel=5 note=52 velocity=103 time=0
EXTRACT: note_on channel=5 note=55 velocity=96 time=0
EXTRACT: note_on channel=9 note=38 velocity=121 time=0
EXTRACT: note_on channel=9 note=42 velocity=72 time=0
EXTRACT: note_off channel=9 note=42 velocity=72 time=0.004664166666666666
EXTRACT: note_off channel=9 note=38 velocity=121 time=0
EXTRACT: note_off channel=2 note=67 velocity=108 time=0.09328333333333333
EXTRACT: note_off channel=2 note=64 velocity=112 time=0
EXTRACT: note_off channel=2 note=60 velocity=110 time=0
EXTRACT: note_off channel=5 note=55 velocity=96 time=0
EXTRACT: note_off channel=5 note=52 velocity=103 time=0
EXTRACT: note_off channel=5 note=48 velocity=90 time=0
EXTRACT: note_off channel=1 note=36 velocity=111 time=0.10727583333333332
EXTRACT: note_off channel=15 note=69 velocity=112 time=0
EXTRACT: note_on channel=2 note=60 velocity=103 time=0.018656666666666665
EXTRACT: note_on channel=2 note=64 velocity=110 time=0
EXTRACT: note_on channel=2 note=67 velocity=106 time=0
EXTRACT: note_on channel=5 note=48 velocity=103 time=0
EXTRACT: note_on channel=5 note=52 velocity=99 time=0
EXTRACT: note_on channel=5 note=55 velocity=105 time=0
EXTRACT: note_on channel=9 note=42 velocity=75 time=0
EXTRACT: note_on channel=15 note=67 velocity=110 time=0
EXTRACT: note_off channel=9 note=42 velocity=75 time=0.004664166666666666
EXTRACT: note_off channel=2 note=67 velocity=106 time=0.09328333333333333
EXTRACT: note_off channel=2 note=64 velocity=110 time=0
EXTRACT: note_off channel=2 note=60 velocity=103 time=0
EXTRACT: note_off channel=5 note=55 velocity=105 time=0
EXTRACT: note_off channel=5 note=52 velocity=99 time=0
EXTRACT: note_off channel=5 note=48 velocity=103 time=0
EXTRACT: note_on channel=1 note=31 velocity=123 time=0.1259325
EXTRACT: note_on channel=9 note=36 velocity=124 time=0
EXTRACT: note_on channel=9 note=46 velocity=124 time=0
EXTRACT: note_off channel=9 note=46 velocity=124 time=0.004664166666666666
EXTRACT: note_off channel=9 note=36 velocity=124 time=0
EXTRACT: note_off channel=1 note=31 velocity=123 time=0.20055916666666665
EXTRACT: note_off channel=15 note=67 velocity=110 time=0
EXTRACT: note_on channel=1 note=36 velocity=107 time=0.018656666666666665
EXTRACT: note_on channel=9 note=42 velocity=77 time=0
EXTRACT: note_on channel=15 note=69 velocity=112 time=0
EXTRACT: note_off channel=9 note=42 velocity=77 time=0.004664166666666666
EXTRACT: note_off channel=1 note=36 velocity=107 time=0.08861916666666667
EXTRACT: note_on channel=2 note=60 velocity=102 time=0.13059666666666667
EXTRACT: note_on channel=2 note=64 velocity=100 time=0
EXTRACT: note_on channel=2 note=67 velocity=108 time=0
EXTRACT: note_on channel=5 note=48 velocity=94 time=0
EXTRACT: note_on channel=5 note=52 velocity=104 time=0
EXTRACT: note_on channel=5 note=55 velocity=90 time=0
EXTRACT: note_on channel=9 note=38 velocity=120 time=0
EXTRACT: note_on channel=9 note=46 velocity=109 time=0
EXTRACT: note_off channel=9 note=46 velocity=109 time=0.004664166666666666
EXTRACT: note_off channel=9 note=38 velocity=120 time=0
EXTRACT: note_off channel=2 note=67 velocity=108 time=0.09328333333333333
EXTRACT: note_off channel=2 note=64 velocity=100 time=0
EXTRACT: note_off channel=2 note=60 velocity=102 time=0
EXTRACT: note_off channel=5 note=55 velocity=90 time=0
EXTRACT: note_off channel=5 note=52 velocity=104 time=0
EXTRACT: note_off channel=5 note=48 velocity=94 time=0
EXTRACT: note_off channel=15 note=69 velocity=112 time=0.10727583333333332
EXTRACT: note_on channel=1 note=36 velocity=109 time=0.018656666666666665
EXTRACT: note_on channel=2 note=60 velocity=97 time=0
EXTRACT: note_on channel=2 note=64 velocity=104 time=0
EXTRACT: note_on channel=2 note=67 velocity=100 time=0
EXTRACT: note_on channel=5 note=48 velocity=88 time=0
EXTRACT: note_on channel=5 note=52 velocity=98 time=0
EXTRACT: note_on channel=5 note=55 velocity=99 time=0
EXTRACT: note_on channel=9 note=42 velocity=62 time=0
EXTRACT: note_on channel=14 note=69 velocity=110 time=0
EXTRACT: note_on channel=14 note=72 velocity=109 time=0
EXTRACT: note_on channel=15 note=64 velocity=127 time=0
EXTRACT: note_off channel=9 note=42 velocity=62 time=0.004664166666666666
EXTRACT: note_off channel=2 note=67 velocity=100 time=0.09328333333333333
EXTRACT: note_off channel=2 note=64 velocity=104 time=0
EXTRACT: note_off channel=2 note=60 velocity=97 time=0
EXTRACT: note_off channel=5 note=55 velocity=99 time=0
EXTRACT: note_off channel=5 note=52 velocity=98 time=0
EXTRACT: note_off channel=5 note=48 velocity=88 time=0
EXTRACT: note_off channel=1 note=36 velocity=109 time=0.10727583333333332
EXTRACT: note_on channel=1 note=38 velocity=126 time=0.018656666666666665
EXTRACT: note_on channel=9 note=36 velocity=127 time=0
EXTRACT: note_on channel=9 note=42 velocity=65 time=0
EXTRACT: note_off channel=9 note=42 velocity=65 time=0.004664166666666666
EXTRACT: note_off channel=9 note=36 velocity=127 time=0
EXTRACT: note_off channel=1 note=38 velocity=126 time=0.20055916666666665
EXTRACT: note_off channel=14 note=72 velocity=109 time=0
EXTRACT: note_off channel=14 note=69 velocity=110 time=0
EXTRACT: note_off channel=15 note=64 velocity=127 time=0
EXTRACT: note_on channel=9 note=42 velocity=72 time=0.018656666666666665
EXTRACT: note_on channel=14 note=69 velocity=120 time=0
EXTRACT: note_on channel=14 note=72 velocity=102 time=0
EXTRACT: note_on channel=15 note=65 velocity=114 time=0
EXTRACT: note_off channel=9 note=42 velocity=72 time=0.004664166666666666
EXTRACT: note_on channel=1 note=38 velocity=111 time=0.2192158333333333
EXTRACT: note_on channel=2 note=62 velocity=96 time=0
EXTRACT: note_on channel=2 note=65 velocity=112 time=0
EXTRACT: note_on channel=5 note=50 velocity=95 time=0
EXTRACT: note_on channel=5 note=53 velocity=97 time=0
EXTRACT: note_on channel=9 note=38 velocity=127 time=0
EXTRACT: note_on channel=9 note=42 velocity=73 time=0
EXTRACT: note_off channel=9 note=42 velocity=73 time=0.004664166666666666
EXTRACT: note_off channel=9 note=38 velocity=127 time=0
EXTRACT: note_off channel=2 note=65 velocity=112 time=0.09328333333333333
EXTRACT: note_off channel=2 note=62 velocity=96 time=0
EXTRACT: note_off channel=5 note=53 velocity=97 time=0
EXTRACT: note_off channel=5 note=50 velocity=95 time=0
EXTRACT: note_off channel=1 note=38 velocity=111 time=0.10727583333333332
EXTRACT: note_off channel=14 note=72 velocity=102 time=0
EXTRACT: note_off channel=14 note=69 velocity=120 time=0
EXTRACT: note_off channel=15 note=65 velocity=114 time=0
EXTRACT: note_on channel=2 note=62 velocity=106 time=0.018656666666666665
EXTRACT: note_on channel=2 note=65 velocity=108 time=0
EXTRACT: note_on channel=5 note=50 velocity=100 time=0
EXTRACT: note_on channel=5 note=53 velocity=105 time=0
EXTRACT: note_on channel=9 note=42 velocity=71 time=0
EXTRACT: note_on channel=14 note=69 velocity=109 time=0
EXTRACT: note_on channel=14 note=72 velocity=104 time=0
EXTRACT: note_on channel=15 note=64 velocity=116 time=0
EXTRACT: note_off channel=9 note=42 velocity=71 time=0.004664166666666666
EXTRACT: note_off channel=2 note=65 velocity=108 time=0.09328333333333333
EXTRACT: note_off channel=2 note=62 velocity=106 time=0
EXTRACT: note_off channel=5 note=53 velocity=105 time=0
EXTRACT: note_off channel=5 note=50 velocity=100 time=0
EXTRACT: note_on channel=1 note=31 velocity=107 time=0.1259325
EXTRACT: note_on channel=9 note=36 velocity=127 time=0
EXTRACT: note_on channel=9 note=42 velocity=59 time=0
EXTRACT: note_off channel=9 note=42 velocity=59 time=0.004664166666666666
EXTRACT: note_off channel=9 note=36 velocity=127 time=0
EXTRACT: note_off channel=1 note=31 velocity=107 time=0.20055916666666665
EXTRACT: note_off channel=14 note=72 velocity=104 time=0
EXTRACT: note_off channel=14 note=69 velocity=109 time=0
EXTRACT: note_off channel=15 note=64 velocity=116 time=0
EXTRACT: note_on channel=1 note=43 velocity=124 time=0.018656666666666665
EXTRACT: note_on channel=9 note=42 velocity=69 time=0
EXTRACT: note_on channel=14 note=69 velocity=106 time=0
EXTRACT: note_on channel=14 note=72 velocity=112 time=0
EXTRACT: note_on channel=15 note=65 velocity=123 time=0
EXTRACT: note_off channel=9 note=42 velocity=69 time=0.004664166666666666
EXTRACT: note_off channel=1 note=43 velocity=124 time=0.08861916666666667
EXTRACT: note_on channel=2 note=62 velocity=110 time=0.13059666666666667
EXTRACT: note_on channel=2 note=65 velocity=99 time=0
EXTRACT: note_on channel=5 note=50 velocity=96 time=0
EXTRACT: note_on channel=5 note=53 velocity=103 time=0
EXTRACT: note_on channel=9 note=38 velocity=125 time=0
EXTRACT: note_on channel=9 note=42 velocity=75 time=0
EXTRACT: note_off channel=9 note=42 velocity=75 time=0.004664166666666666
EXTRACT: note_off channel=9 note=38 velocity=125 time=0
EXTRACT: note_off channel=2 note=65 velocity=99 time=0.09328333333333333
EXTRACT: note_off channel=2 note=62 velocity=110 time=0
EXTRACT: note_off channel=5 note=53 velocity=103 time=0
EXTRACT: note_off channel=5 note=50 velocity=96 time=0
EXTRACT: note_off channel=14 note=72 velocity=112 time=0.10727583333333332
EXTRACT: note_off channel=14 note=69 velocity=106 time=0
EXTRACT: note_off channel=15 note=65 velocity=123 time=0
EXTRACT: note_on channel=1 note=31 velocity=115 time=0.018656666666666665
EXTRACT: note_on channel=2 note=62 velocity=105 time=0
EXTRACT: note_on channel=2 note=65 velocity=96 time=0
EXTRACT: note_on channel=5 note=50 velocity=90 time=0
EXTRACT: note_on channel=5 note=53 velocity=89 time=0
EXTRACT: note_on channel=9 note=42 velocity=74 time=0
EXTRACT: note_on channel=14 note=67 velocity=117 time=0
EXTRACT: note_on channel=14 note=72 velocity=116 time=0
EXTRACT: note_on channel=15 note=64 velocity=117 time=0
EXTRACT: note_off channel=9 note=42 velocity=74 time=0.004664166666666666
EXTRACT: note_off channel=2 note=65 velocity=96 time=0.09328333333333333
EXTRACT: note_off channel=2 note=62 velocity=105 time=0
EXTRACT: note_off channel=5 note=53 velocity=89 time=0
EXTRACT: note_off channel=5 note=50 velocity=90 time=0
EXTRACT: note_off channel=1 note=31 velocity=115 time=0.10727583333333332
EXTRACT: note_on channel=1 note=36 velocity=115 time=0.018656666666666665
EXTRACT: note_on channel=9 note=36 velocity=127 time=0
EXTRACT: note_on channel=9 note=42 velocity=58 time=0
EXTRACT: note_off channel=9 note=42 velocity=58 time=0.004664166666666666
EXTRACT: note_off channel=9 note=36 velocity=127 time=0
EXTRACT: note_off channel=1 note=36 velocity=115 time=0.20055916666666665
EXTRACT: note_off channel=14 note=72 velocity=116 time=0
EXTRACT: note_off channel=14 note=67 velocity=117 time=0
EXTRACT: note_off channel=15 note=64 velocity=117 time=0
EXTRACT: note_on channel=9 note=42 velocity=58 time=0.018656666666666665
EXTRACT: note_on channel=14 note=64 velocity=108 time=0
EXTRACT: note_on channel=14 note=67 velocity=120 time=0
EXTRACT: note_on channel=15 note=60 velocity=118 time=0
EXTRACT: note_off channel=9 note=42 velocity=58 time=0.004664166666666666
EXTRACT: note_off channel=14 note=67 velocity=120 time=0.20055916666666665
EXTRACT: note_off channel=14 note=64 velocity=108 time=0
EXTRACT: note_on channel=1 note=36 velocity=109 time=0.018656666666666665
EXTRACT: note_on channel=2 note=60 velocity=97 time=0
EXTRACT: note_on channel=2 note=64 velocity=102 time=0
EXTRACT: note_on channel=5 note=48 velocity=96 time=0
EXTRACT: note_on channel=5 note=52 velocity=88 time=0
EXTRACT: note_on channel=9 note=38 velocity=121 time=0
EXTRACT: note_on channel=9 note=42 velocity=68 time=0
EXTRACT: note_off channel=9 note=42 velocity=68 time=0.004664166666666666
EXTRACT: note_off channel=9 note=38 velocity=121 time=0
EXTRACT: note_off channel=2 note=64 velocity=102 time=0.09328333333333333
EXTRACT: note_off channel=2 note=60 velocity=97 time=0
EXTRACT: note_off channel=5 note=52 velocity=88 time=0
EXTRACT: note_off channel=5 note=48 velocity=96 time=0
EXTRACT: note_off channel=1 note=36 velocity=109 time=0.10727583333333332
EXTRACT: note_off channel=15 note=60 velocity=118 time=0
EXTRACT: note_on channel=2 note=60 velocity=96 time=0.018656666666666665
EXTRACT: note_on channel=2 note=64 velocity=108 time=0
EXTRACT: note_on channel=5 note=48 velocity=86 time=0
EXTRACT: note_on channel=5 note=52 velocity=98 time=0
EXTRACT: note_on channel=9 note=42 velocity=67 time=0
EXTRACT: note_off channel=9 note=42 velocity=67 time=0.004664166666666666
EXTRACT: note_off channel=2 note=64 velocity=108 time=0.09328333333333333
EXTRACT: note_off channel=2 note=60 velocity=96 time=0
EXTRACT: note_off channel=5 note=52 velocity=98 time=0
EXTRACT: note_off channel=5 note=48 velocity=86 time=0
EXTRACT: note_on channel=1 note=31 velocity=120 time=0.1259325
EXTRACT: note_on channel=9 note=36 velocity=127 time=0
EXTRACT: note_on channel=9 note=38 velocity=127 time=0
EXTRACT: note_on channel=9 note=42 velocity=66 time=0
EXTRACT: note_off channel=9 note=42 velocity=66 time=0.004664166666666666
EXTRACT: note_off channel=9 note=38 velocity=127 time=0
EXTRACT: note_off channel=9 note=36 velocity=127 time=0
EXTRACT: note_on channel=9 note=38 velocity=122 time=0.10727583333333332
EXTRACT: note_off channel=9 note=38 velocity=122 time=0.004664166666666666
EXTRACT: note_off channel=1 note=31 velocity=120 time=0.08861916666666667
EXTRACT: note_on channel=1 note=36 velocity=109 time=0.018656666666666665
EXTRACT: note_on channel=9 note=38 velocity=120 time=0
EXTRACT: note_on channel=9 note=42 velocity=61 time=0
EXTRACT: note_on channel=15 note=60 velocity=114 time=0
EXTRACT: note_off channel=9 note=42 velocity=61 time=0.004664166666666666
EXTRACT: note_off channel=9 note=38 velocity=120 time=0
EXTRACT: note_off channel=1 note=36 velocity=109 time=0.08861916666666667
EXTRACT: note_off channel=15 note=60 velocity=114 time=0.11193999999999998
EXTRACT: note_on channel=2 note=60 velocity=101 time=0.018656666666666665
EXTRACT: note_on channel=2 note=64 velocity=97 time=0
EXTRACT: note_on channel=5 note=48 velocity=104 time=0
EXTRACT: note_on channel=5 note=52 velocity=90 time=0
EXTRACT: note_on channel=9 note=38 velocity=113 time=0
EXTRACT: note_on channel=9 note=42 velocity=60 time=0
EXTRACT: note_on channel=15 note=60 velocity=121 time=0
EXTRACT: note_off channel=9 note=42 velocity=60 time=0.004664166666666666
EXTRACT: note_off channel=9 note=38 velocity=113 time=0
EXTRACT: note_off channel=2 note=64 velocity=97 time=0.09328333333333333
EXTRACT: note_off channel=2 note=60 velocity=101 time=0
EXTRACT: note_off channel=5 note=52 velocity=90 time=0
EXTRACT: note_off channel=5 note=48 velocity=104 time=0
EXTRACT: note_off channel=15 note=60 velocity=121 time=0.10727583333333332
EXTRACT: note_on channel=1 note=28 velocity=111 time=0.018656666666666665
EXTRACT: note_on channel=2 note=60 velocity=109 time=0
EXTRACT: note_on channel=2 note=64 velocity=95 time=0
EXTRACT: note_on channel=5 note=48 velocity=86 time=0
EXTRACT: note_on channel=5 note=52 velocity=98 time=0
EXTRACT: note_on channel=9 note=38 velocity=114 time=0
EXTRACT: note_on channel=9 note=42 velocity=75 time=0
EXTRACT: note_on channel=15 note=60 velocity=117 time=0
EXTRACT: note_off channel=9 note=42 velocity=75 time=0.004664166666666666
EXTRACT: note_off channel=9 note=38 velocity=114 time=0
EXTRACT: note_off channel=2 note=64 velocity=95 time=0.09328333333333333
EXTRACT: note_off channel=2 note=60 velocity=109 time=0
EXTRACT: note_off channel=5 note=52 velocity=98 time=0
EXTRACT: note_off channel=5 note=48 velocity=86 time=0
EXTRACT: note_on channel=9 note=38 velocity=125 time=0.013992499999999998
EXTRACT: note_off channel=9 note=38 velocity=125 time=0.004664166666666666
EXTRACT: note_off channel=1 note=28 velocity=111 time=0.08861916666666667
EXTRACT: note_off channel=15 note=60 velocity=117 time=0
EXTRACT: note_on channel=1 note=29 velocity=114 time=0.018656666666666665
EXTRACT: note_on channel=6 note=65 velocity=86 time=0
EXTRACT: note_on channel=9 note=36 velocity=127 time=0
EXTRACT: note_on channel=9 note=49 velocity=121 time=0
EXTRACT: note_on channel=14 note=65 velocity=106 time=0
EXTRACT: note_on channel=14 note=69 velocity=116 time=0
EXTRACT: note_on channel=15 note=60 velocity=112 time=0
EXTRACT: note_off channel=9 note=49 velocity=121 time=0.004664166666666666
EXTRACT: note_off channel=9 note=36 velocity=127 time=0
EXTRACT: note_off channel=1 note=29 velocity=114 time=0.20055916666666665
EXTRACT: note_off channel=6 note=65 velocity=86 time=0.004664166666666666
EXTRACT: note_on channel=6 note=69 velocity=81 time=0.013992499999999998
EXTRACT: note_on channel=9 note=42 velocity=59 time=0
EXTRACT: note_off channel=9 note=42 velocity=59 time=0.004664166666666666
EXTRACT: note_off channel=6 note=69 velocity=81 time=0.2052233333333333
EXTRACT: note_on channel=1 note=29 velocity=122 time=0.013992499999999998
EXTRACT: note_on channel=6 note=72 velocity=91 time=0
EXTRACT: note_on channel=9 note=38 velocity=116 time=0
EXTRACT: note_on channel=9 note=42 velocity=64 time=0
EXTRACT: note_off channel=9 note=42 velocity=64 time=0.004664166666666666
EXTRACT: note_off channel=9 note=38 velocity=116 time=0
EXTRACT: note_off channel=1 note=29 velocity=122 time=0.20055916666666665
EXTRACT: note_off channel=14 note=69 velocity=116 time=0
EXTRACT: note_off channel=14 note=65 velocity=106 time=0
EXTRACT: note_off channel=15 note=60 velocity=112 time=0
EXTRACT: note_off channel=6 note=72 velocity=91 time=0.004664166666666666
EXTRACT: note_on channel=1 note=28 velocity=114 time=0.013992499999999998
EXTRACT: note_on channel=9 note=42 velocity=67 time=0
EXTRACT: note_on channel=14 note=67 velocity=105 time=0
EXTRACT: note_on channel=14 note=71 velocity=114 time=0
EXTRACT: note_on channel=15 note=62 velocity=124 time=0
EXTRACT: note_off channel=9 note=42 velocity=67 time=0.004664166666666666
EXTRACT: note_off channel=1 note=28 velocity=114 time=0.20055916666666665
EXTRACT: note_on channel=1 note=31 velocity=114 time=0.018656666666666665
EXTRACT: note_on channel=6 note=67 velocity=87 time=0
EXTRACT: note_on channel=9 note=36 velocity=119 time=0
EXTRACT: note_on channel=9 note=42 velocity=62 time=0
EXTRACT: note_off channel=9 note=42 velocity=62 time=0.004664166666666666
EXTRACT: note_off channel=9 note=36 velocity=119 time=0
EXTRACT: note_off channel=1 note=31 velocity=114 time=0.20055916666666665
EXTRACT: note_off channel=14 note=71 velocity=114 time=0
EXTRACT: note_off channel=14 note=67 velocity=105 time=0
EXTRACT: note_off channel=15 note=62 velocity=124 time=0
EXTRACT: note_off channel=6 note=67 velocity=87 time=0.004664166666666666
EXTRACT: note_on channel=1 note=43 velocity=126 time=0.013992499999999998
EXTRACT: note_on channel=6 note=71 velocity=87 time=0
EXTRACT: note_on channel=9 note=42 velocity=72 time=0
EXTRACT: note_on channel=14 note=67 velocity=113 time=0
EXTRACT: note_on channel=14 note=71 velocity=105 time=0
EXTRACT: note_on channel=15 note=62 velocity=117 time=0
EXTRACT: note_off channel=9 note=42 velocity=72 time=0.004664166666666666
EXTRACT: note_off channel=1 note=43 velocity=126 time=0.08861916666666667
EXTRACT: note_off channel=14 note=71 velocity=105 time=0.11193999999999998
EXTRACT: note_off channel=14 note=67 velocity=113 time=0
EXTRACT: note_off channel=15 note=62 velocity=117 time=0
EXTRACT: note_off channel=6 note=71 velocity=87 time=0.004664166666666666
EXTRACT: note_on channel=6 note=74 velocity=83 time=0.013992499999999998
EXTRACT: note_on channel=9 note=38 velocity=118 time=0
EXTRACT: note_on channel=9 note=42 velocity=58 time=0
EXTRACT: note_on channel=14 note=67 velocity=110 time=0
EXTRACT: note_on channel=14 note=71 velocity=101 time=0
EXTRACT: note_on channel=15 note=62 velocity=126 time=0
EXTRACT: note_off channel=9 note=42 velocity=58 time=0.004664166666666666
EXTRACT: note_off channel=9 note=38 velocity=118 time=0
EXTRACT: note_off channel=14 note=71 velocity=101 time=0.20055916666666665
EXTRACT: note_off channel=14 note=67 velocity=110 time=0
EXTRACT: note_off channel=15 note=62 velocity=126 time=0
EXTRACT: note_off channel=6 note=74 velocity=83 time=0.004664166666666666
EXTRACT: note_on channel=1 note=31 velocity=123 time=0.013992499999999998
EXTRACT: note_on channel=9 note=42 velocity=59 time=0
EXTRACT: note_on channel=14 note=67 velocity=107 time=0
EXTRACT: note_on channel=14 note=71 velocity=104 time=0
EXTRACT: note_on channel=15 note=62 velocity=120 time=0
EXTRACT: note_off channel=9 note=42 velocity=59 time=0.004664166666666666
EXTRACT: note_off channel=1 note=31 velocity=123 time=0.20055916666666665
EXTRACT: note_off channel=14 note=71 velocity=104 time=0
EXTRACT: note_off channel=14 note=67 velocity=107 time=0
EXTRACT: note_off channel=15 note=62 velocity=120 time=0
EXTRACT: note_on channel=1 note=31 velocity=116 time=0.018656666666666665
EXTRACT: note_on channel=9 note=36 velocity=127 time=0
EXTRACT: note_on channel=9 note=42 velocity=73 time=0
EXTRACT: note_on channel=14 note=67 velocity=114 time=0
EXTRACT: note_on channel=14 note=71 velocity=104 time=0
EXTRACT: note_on channel=15 note=62 velocity=112 time=0
EXTRACT: note_off channel=9 note=42 velocity=73 time=0.004664166666666666
EXTRACT: note_off channel=9 note=36 velocity=127 time=0
EXTRACT: note_off channel=1 note=31 velocity=116 time=0.20055916666666665
EXTRACT: note_off channel=14 note=71 velocity=104 time=0
EXTRACT: note_off channel=14 note=67 velocity=114 time=0
EXTRACT: note_off channel=15 note=62 velocity=112 time=0
EXTRACT: note_on channel=6 note=74 velocity=85 time=0.018656666666666665
EXTRACT: note_on channel=9 note=42 velocity=60 time=0
EXTRACT: note_on channel=14 note=67 velocity=108 time=0
EXTRACT: note_on channel=14 note=71 velocity=105 time=0
EXTRACT: note_on channel=15 note=64 velocity=109 time=0
EXTRACT: note_off channel=9 note=42 velocity=60 time=0.004664166666666666
EXTRACT: note_off channel=14 note=71 velocity=105 time=0.20055916666666665
EXTRACT: note_off channel=14 note=67 velocity=108 time=0
EXTRACT: note_off channel=15 note=64 velocity=109 time=0
EXTRACT: note_off channel=6 note=74 velocity=85 time=0.004664166666666666
EXTRACT: note_on channel=1 note=31 velocity=116 time=0.013992499999999998
EXTRACT: note_on channel=6 note=71 velocity=77 time=0
EXTRACT: note_on channel=9 note=38 velocity=118 time=0
EXTRACT: note_on channel=9 note=42 velocity=73 time=0
EXTRACT: note_on channel=14 note=67 velocity=108 time=0
EXTRACT: note_on channel=14 note=71 velocity=103 time=0
EXTRACT: note_on channel=15 note=62 velocity=113 time=0
EXTRACT: note_off channel=9 note=42 velocity=73 time=0.004664166666666666
EXTRACT: note_off channel=9 note=38 velocity=118 time=0
EXTRACT: note_off channel=1 note=31 velocity=116 time=0.20055916666666665
EXTRACT: note_off channel=14 note=71 velocity=103 time=0
EXTRACT: note_off channel=14 note=67 velocity=108 time=0
EXTRACT: note_off channel=15 note=62 velocity=113 time=0
EXTRACT: note_off channel=6 note=71 velocity=77 time=0.004664166666666666
EXTRACT: note_on channel=1 note=28 velocity=112 time=0.013992499999999998
EXTRACT: note_on channel=6 note=67 velocity=84 time=0
EXTRACT: note_on channel=9 note=42 velocity=59 time=0
EXTRACT: note_on channel=14 note=69 velocity=111 time=0
EXTRACT: note_on channel=14 note=72 velocity=114 time=0
EXTRACT: note_on channel=15 note=64 velocity=113 time=0
EXTRACT: note_off channel=9 note=42 velocity=59 time=0.004664166666666666
EXTRACT: note_off channel=1 note=28 velocity=112 time=0.20055916666666665
EXTRACT: note_off channel=6 note=67 velocity=84 time=0.004664166666666666
EXTRACT: note_on channel=1 note=33 velocity=118 time=0.013992499999999998
EXTRACT: note_on channel=6 note=76 velocity=78 time=0
EXTRACT: note_on channel=9 note=36 velocity=123 time=0
EXTRACT: note_on channel=9 note=46 velocity=124 time=0
EXTRACT: note_off channel=9 note=46 velocity=124 time=0.004664166666666666
EXTRACT: note_off channel=9 note=36 velocity=123 time=0
EXTRACT: note_off channel=1 note=33 velocity=118 time=0.20055916666666665
EXTRACT: note_off channel=6 note=76 velocity=78 time=0.004664166666666666
EXTRACT: note_on channel=1 note=45 velocity=123 time=0.013992499999999998
EXTRACT: note_on channel=6 note=72 velocity=89 time=0
EXTRACT: note_on channel=9 note=42 velocity=68 time=0
EXTRACT: note_off channel=9 note=42 velocity=68 time=0.004664166666666666
EXTRACT: note_off channel=1 note=45 velocity=123 time=0.20055916666666665
EXTRACT: note_off channel=14 note=72 velocity=114 time=0
EXTRACT: note_off channel=14 note=69 velocity=111 time=0
EXTRACT: note_off channel=15 note=64 velocity=113 time=0
EXTRACT: note_off channel=6 note=72 velocity=89 time=0.004664166666666666
EXTRACT: note_on channel=1 note=31 velocity=114 time=0.013992499999999998
EXTRACT: note_on channel=6 note=69 velocity=83 time=0
EXTRACT: note_on channel=9 note=38 velocity=116 time=0
EXTRACT: note_on channel=9 note=46 velocity=112 time=0
EXTRACT: note_on channel=14 note=65 velocity=119 time=0
EXTRACT: note_on channel=14 note=69 velocity=117 time=0
EXTRACT: note_on channel=15 note=60 velocity=109 time=0
EXTRACT: note_off channel=9 note=46 velocity=112 time=0.004664166666666666
EXTRACT: note_off channel=9 note=38 velocity=116 time=0
EXTRACT: note_off channel=1 note=31 velocity=114 time=0.20055916666666665
EXTRACT: note_off channel=14 note=69 velocity=117 time=0
EXTRACT: note_off channel=14 note=65 velocity=119 time=0
EXTRACT: note_off channel=15 note=60 velocity=109 time=0
EXTRACT: note_off channel=6 note=69 velocity=83 time=0.004664166666666666
EXTRACT: note_on channel=1 note=43 velocity=120 time=0.013992499999999998
EXTRACT: note_on channel=6 note=65 velocity=82 time=0
EXTRACT: note_on channel=9 note=42 velocity=67 time=0
EXTRACT: note_on channel=14 note=65 velocity=108 time=0
EXTRACT: note_on channel=14 note=69 velocity=109 time=0
EXTRACT: note_on channel=15 note=60 velocity=112 time=0
EXTRACT: note_off channel=9 note=42 velocity=67 time=0.004664166666666666
EXTRACT: note_off channel=1 note=43 velocity=120 time=0.20055916666666665
EXTRACT: note_off channel=6 note=65 velocity=82 time=0.004664166666666666
EXTRACT: note_on channel=1 note=29 velocity=116 time=0.013992499999999998
EXTRACT: note_on channel=6 note=65 velocity=79 time=0
EXTRACT: note_on channel=9 note=36 velocity=127 time=0
EXTRACT: note_on channel=9 note=42 velocity=66 time=0
EXTRACT: note_off channel=9 note=42 velocity=66 time=0.004664166666666666
EXTRACT: note_off channel=9 note=36 velocity=127 time=0
EXTRACT: note_off channel=1 note=29 velocity=116 time=0.20055916666666665
EXTRACT: note_off channel=14 note=69 velocity=109 time=0
EXTRACT: note_off channel=14 note=65 velocity=108 time=0
EXTRACT: note_off channel=15 note=60 velocity=112 time=0
EXTRACT: note_off channel=6 note=65 velocity=79 time=0.004664166666666666
EXTRACT: note_on channel=6 note=69 velocity=90 time=0.013992499999999998
EXTRACT: note_on channel=9 note=42 velocity=74 time=0
EXTRACT: note_on channel=14 note=65 velocity=108 time=0
EXTRACT: note_on channel=14 note=69 velocity=107 time=0
EXTRACT: note_on channel=15 note=60 velocity=119 time=0
EXTRACT: note_off channel=9 note=42 velocity=74 time=0.004664166666666666
EXTRACT: note_off channel=14 note=69 velocity=107 time=0.20055916666666665
EXTRACT: note_off channel=14 note=65 velocity=108 time=0
EXTRACT: note_off channel=15 note=60 velocity=119 time=0
EXTRACT: note_off channel=6 note=69 velocity=90 time=0.004664166666666666
EXTRACT: note_on channel=1 note=29 velocity=121 time=0.013992499999999998
EXTRACT: note_on channel=6 note=72 velocity=91 time=0
EXTRACT: note_on channel=9 note=38 velocity=127 time=0
EXTRACT: note_on channel=9 note=42 velocity=73 time=0
EXTRACT: note_on channel=14 note=65 velocity=112 time=0
EXTRACT: note_on channel=14 note=69 velocity=108 time=0
EXTRACT: note_on channel=15 note=60 velocity=122 time=0
EXTRACT: note_off channel=9 note=42 velocity=73 time=0.004664166666666666
EXTRACT: note_off channel=9 note=38 velocity=127 time=0
EXTRACT: note_off channel=1 note=29 velocity=121 time=0.20055916666666665
EXTRACT: note_off channel=14 note=69 velocity=108 time=0
EXTRACT: note_off channel=14 note=65 velocity=112 time=0
EXTRACT: note_off channel=15 note=60 velocity=122 time=0
EXTRACT: note_off channel=6 note=72 velocity=91 time=0.004664166666666666
EXTRACT: note_on channel=1 note=29 velocity=123 time=0.013992499999999998
EXTRACT: note_on channel=9 note=42 velocity=62 time=0
EXTRACT: note_on channel=14 note=65 velocity=112 time=0
EXTRACT: note_on channel=14 note=69 velocity=117 time=0
EXTRACT: note_on channel=15 note=60 velocity=109 time=0
EXTRACT: note_off channel=9 note=42 velocity=62 time=0.004664166666666666
EXTRACT: note_off channel=1 note=29 velocity=123 time=0.20055916666666665
EXTRACT: note_off channel=14 note=69 velocity=117 time=0
EXTRACT: note_off channel=14 note=65 velocity=112 time=0
EXTRACT: note_off channel=15 note=60 velocity=109 time=0
EXTRACT: note_on channel=1 note=31 velocity=116 time=0.018656666666666665
EXTRACT: note_on channel=6 note=67 velocity=75 time=0
EXTRACT: note_on channel=9 note=36 velocity=122 time=0
EXTRACT: note_on channel=9 note=42 velocity=62 time=0
EXTRACT: note_on channel=14 note=67 velocity=106 time=0
EXTRACT: note_on channel=14 note=71 velocity=101 time=0
EXTRACT: note_on channel=15 note=62 velocity=126 time=0
EXTRACT: note_off channel=9 note=42 velocity=62 time=0.004664166666666666
EXTRACT: note_off channel=9 note=36 velocity=122 time=0
EXTRACT: note_off channel=1 note=31 velocity=116 time=0.20055916666666665
EXTRACT: note_off channel=14 note=71 velocity=101 time=0
EXTRACT: note_off channel=14 note=67 velocity=106 time=0
EXTRACT: note_off channel=15 note=62 velocity=126 time=0
EXTRACT: note_off channel=6 note=67 velocity=75 time=0.004664166666666666
EXTRACT: note_on channel=1 note=43 velocity=120 time=0.013992499999999998
EXTRACT: note_on channel=6 note=71 velocity=74 time=0
EXTRACT: note_on channel=9 note=42 velocity=75 time=0
EXTRACT: note_on channel=14 note=67 velocity=108 time=0
EXTRACT: note_on channel=14 note=71 velocity=107 time=0
EXTRACT: note_on channel=15 note=64 velocity=119 time=0
EXTRACT: note_off channel=9 note=42 velocity=75 time=0.004664166666666666
EXTRACT: note_off channel=1 note=43 velocity=120 time=0.08861916666666667
EXTRACT: note_off channel=14 note=71 velocity=107 time=0.11193999999999998
EXTRACT: note_off channel=14 note=67 velocity=108 time=0
EXTRACT: note_off channel=15 note=64 velocity=119 time=0
EXTRACT: note_off channel=6 note=71 velocity=74 time=0.004664166666666666
EXTRACT: note_on channel=6 note=74 velocity=89 time=0.013992499999999998
EXTRACT: note_on channel=9 note=38 velocity=119 time=0
EXTRACT: note_on channel=9 note=42 velocity=76 time=0
EXTRACT: note_on channel=14 note=67 velocity=112 time=0
EXTRACT: note_on channel=14 note=71 velocity=110 time=0
EXTRACT: note_on channel=15 note=62 velocity=123 time=0
EXTRACT: note_off channel=9 note=42 velocity=76 time=0.004664166666666666
EXTRACT: note_off channel=9 note=38 velocity=119 time=0
EXTRACT: note_off channel=14 note=71 velocity=110 time=0.20055916666666665
EXTRACT: note_off channel=14 note=67 velocity=112 time=0
EXTRACT: note_off channel=15 note=62 velocity=123 time=0
EXTRACT: note_off channel=6 note=74 velocity=89 time=0.004664166666666666
EXTRACT: note_on channel=1 note=31 velocity=124 time=0.013992499999999998
EXTRACT: note_on channel=9 note=42 velocity=70 time=0
EXTRACT: note_on channel=14 note=69 velocity=106 time=0
EXTRACT: note_on channel=14 note=72 velocity=104 time=0
EXTRACT: note_on channel=15 note=64 velocity=127 time=0
EXTRACT: note_off channel=9 note=42 velocity=70 time=0.004664166666666666
EXTRACT: note_off channel=1 note=31 velocity=124 time=0.20055916666666665
EXTRACT: note_off channel=14 note=72 velocity=104 time=0
EXTRACT: note_off channel=14 note=69 velocity=106 time=0
EXTRACT: note_off channel=15 note=64 velocity=127 time=0
EXTRACT: note_on channel=1 note=33 velocity=112 time=0.018656666666666665
EXTRACT: note_on channel=9 note=36 velocity=127 time=0
EXTRACT: note_on channel=9 note=42 velocity=64 time=0
EXTRACT: note_off channel=9 note=42 velocity=64 time=0.004664166666666666
EXTRACT: note_off channel=9 note=36 velocity=127 time=0
EXTRACT: note_off channel=1 note=33 velocity=112 time=0.20055916666666665
EXTRACT: note_on channel=6 note=67 velocity=75 time=0.018656666666666665
EXTRACT: note_on channel=9 note=42 velocity=63 time=0
EXTRACT: note_off channel=9 note=42 velocity=63 time=0.004664166666666666
EXTRACT: note_off channel=6 note=67 velocity=75 time=0.2052233333333333
EXTRACT: note_on channel=1 note=33 velocity=111 time=0.013992499999999998
EXTRACT: note_on channel=6 note=71 velocity=87 time=0
EXTRACT: note_on channel=9 note=38 velocity=119 time=0
EXTRACT: note_on channel=9 note=42 velocity=70 time=0
EXTRACT: note_on channel=15 note=67 velocity=121 time=0
EXTRACT: note_off channel=9 note=42 velocity=70 time=0.004664166666666666
EXTRACT: note_off channel=9 note=38 velocity=119 time=0
EXTRACT: note_off channel=1 note=33 velocity=111 time=0.20055916666666665
EXTRACT: note_off channel=15 note=67 velocity=121 time=0
EXTRACT: note_off channel=6 note=71 velocity=87 time=0.004664166666666666
EXTRACT: note_on channel=1 note=28 velocity=111 time=0.013992499999999998
EXTRACT: note_on channel=6 note=74 velocity=75 time=0
EXTRACT: note_on channel=9 note=42 velocity=68 time=0
EXTRACT: note_on channel=15 note=67 velocity=115 time=0
EXTRACT: note_off channel=9 note=42 velocity=68 time=0.004664166666666666
EXTRACT: note_off channel=1 note=28 velocity=111 time=0.20055916666666665
EXTRACT: note_off channel=6 note=74 velocity=75 time=0.004664166666666666
EXTRACT: note_on channel=1 note=31 velocity=120 time=0.013992499999999998
EXTRACT: note_on channel=6 note=76 velocity=83 time=0
EXTRACT: note_on channel=9 note=36 velocity=127 time=0
EXTRACT: note_on channel=9 note=42 velocity=70 time=0
EXTRACT: note_off channel=9 note=42 velocity=70 time=0.004664166666666666
EXTRACT: note_off channel=9 note=36 velocity=127 time=0
EXTRACT: note_off channel=1 note=31 velocity=120 time=0.20055916666666665
EXTRACT: note_off channel=15 note=67 velocity=115 time=0
EXTRACT: note_off channel=6 note=76 velocity=83 time=0.004664166666666666
EXTRACT: note_on channel=1 note=43 velocity=109 time=0.013992499999999998
EXTRACT: note_on channel=6 note=74 velocity=76 time=0
EXTRACT: note_on channel=9 note=42 velocity=74 time=0
EXTRACT: note_on channel=15 note=67 velocity=120 time=0
EXTRACT: note_off channel=9 note=42 velocity=74 time=0.004664166666666666
EXTRACT: note_off channel=1 note=43 velocity=109 time=0.08861916666666667
EXTRACT: note_off channel=15 note=67 velocity=120 time=0.11193999999999998
EXTRACT: note_off channel=6 note=74 velocity=76 time=0.004664166666666666
EXTRACT: note_on channel=1 note=38 velocity=122 time=0.013992499999999998
EXTRACT: note_on channel=9 note=38 velocity=121 time=0
EXTRACT: note_on channel=9 note=42 velocity=72 time=0
EXTRACT: note_on channel=15 note=64 velocity=111 time=0
EXTRACT: note_off channel=9 note=42 velocity=72 time=0.004664166666666666
EXTRACT: note_off channel=9 note=38 velocity=121 time=0
EXTRACT: note_off channel=1 note=38 velocity=122 time=0.20055916666666665
EXTRACT: note_off channel=15 note=64 velocity=111 time=0
EXTRACT: note_on channel=1 note=28 velocity=121 time=0.018656666666666665
EXTRACT: note_on channel=9 note=42 velocity=64 time=0
EXTRACT: note_on channel=15 note=62 velocity=113 time=0
EXTRACT: note_off channel=9 note=42 velocity=64 time=0.004664166666666666
EXTRACT: note_off channel=1 note=28 velocity=121 time=0.20055916666666665
EXTRACT: note_off channel=15 note=62 velocity=113 time=0
EXTRACT: note_on channel=1 note=29 velocity=113 time=0.018656666666666665
EXTRACT: note_on channel=6 note=77 velocity=80 time=0
EXTRACT: note_on channel=9 note=36 velocity=127 time=0
EXTRACT: note_on channel=9 note=49 velocity=109 time=0
EXTRACT: note_on channel=14 note=65 velocity=115 time=0
EXTRACT: note_on channel=14 note=69 velocity=108 time=0
EXTRACT: note_on channel=15 note=60 velocity=126 time=0
EXTRACT: note_off channel=9 note=49 velocity=109 time=0.004664166666666666
EXTRACT: note_off channel=9 note=36 velocity=127 time=0
EXTRACT: note_off channel=1 note=29 velocity=113 time=0.20055916666666665
EXTRACT: note_off channel=6 note=77 velocity=80 time=0.004664166666666666
EXTRACT: note_on channel=6 note=81 velocity=81 time=0.013992499999999998
EXTRACT: note_on channel=9 note=42 velocity=72 time=0
EXTRACT: note_off channel=9 note=42 velocity=72 time=0.004664166666666666
EXTRACT: note_off channel=6 note=81 velocity=81 time=0.2052233333333333
EXTRACT: note_on channel=1 note=29 velocity=125 time=0.013992499999999998
EXTRACT: note_on channel=6 note=84 velocity=86 time=0
EXTRACT: note_on channel=9 note=38 velocity=116 time=0
EXTRACT: note_on channel=9 note=42 velocity=69 time=0
EXTRACT: note_off channel=9 note=42 velocity=69 time=0.004664166666666666
EXTRACT: note_off channel=9 note=38 velocity=116 time=0
EXTRACT: note_off channel=1 note=29 velocity=125 time=0.20055916666666665
EXTRACT: note_off channel=14 note=69 velocity=108 time=0
EXTRACT: note_off channel=14 note=65 velocity=115 time=0
EXTRACT: note_off channel=15 note=60 velocity=126 time=0
EXTRACT: note_off channel=6 note=84 velocity=86 time=0.004664166666666666
EXTRACT: note_on channel=1 note=28 velocity=115 time=0.013992499999999998
EXTRACT: note_on channel=6 note=77 velocity=89 time=0
EXTRACT: note_on channel=9 note=42 velocity=61 time=0
EXTRACT: note_on channel=14 note=67 velocity=104 time=0
EXTRACT: note_on channel=14 note=71 velocity=105 time=0
EXTRACT: note_on channel=15 note=62 velocity=119 time=0
EXTRACT: note_off channel=9 note=42 velocity=61 time=0.004664166666666666
EXTRACT: note_off channel=1 note=28 velocity=115 time=0.20055916666666665
EXTRACT: note_off channel=14 note=71 velocity=105 time=0
EXTRACT: note_off channel=14 note=67 velocity=104 time=0
EXTRACT: note_off channel=15 note=62 velocity=119 time=0
EXTRACT: note_off channel=6 note=77 velocity=89 time=0.004664166666666666
EXTRACT: note_on channel=1 note=31 velocity=124 time=0.013992499999999998
EXTRACT: note_on channel=6 note=79 velocity=83 time=0
EXTRACT: note_on channel=9 note=36 velocity=127 time=0
EXTRACT: note_on channel=9 note=42 velocity=69 time=0
EXTRACT: note_off channel=9 note=42 velocity=69 time=0.004664166666666666
EXTRACT: note_off channel=9 note=36 velocity=127 time=0
EXTRACT: note_off channel=1 note=31 velocity=124 time=0.20055916666666665
EXTRACT: note_off channel=6 note=79 velocity=83 time=0.004664166666666666
EXTRACT: note_on channel=1 note=43 velocity=119 time=0.013992499999999998
EXTRACT: note_on channel=6 note=83 velocity=90 time=0
EXTRACT: note_on channel=9 note=42 velocity=77 time=0
EXTRACT: note_on channel=14 note=67 velocity=103 time=0
EXTRACT: note_on channel=14 note=71 velocity=105 time=0
EXTRACT: note_on channel=15 note=62 velocity=109 time=0
EXTRACT: note_off channel=9 note=42 velocity=77 time=0.004664166666666666
EXTRACT: note_off channel=1 note=43 velocity=119 time=0.08861916666666667
EXTRACT: note_off channel=14 note=71 velocity=105 time=0.11193999999999998
EXTRACT: note_off channel=14 note=67 velocity=103 time=0
EXTRACT: note_off channel=15 note=62 velocity=109 time=0
EXTRACT: note_off channel=6 note=83 velocity=90 time=0.004664166666666666
EXTRACT: note_on channel=6 note=86 velocity=79 time=0.013992499999999998
EXTRACT: note_on channel=9 note=38 velocity=118 time=0
EXTRACT: note_on channel=9 note=42 velocity=63 time=0
EXTRACT: note_on channel=14 note=67 velocity=105 time=0
EXTRACT: note_on channel=14 note=71 velocity=101 time=0
EXTRACT: note_on channel=15 note=62 velocity=122 time=0
EXTRACT: note_off channel=9 note=42 velocity=63 time=0.004664166666666666
EXTRACT: note_off channel=9 note=38 velocity=118 time=0
EXTRACT: note_off channel=14 note=71 velocity=101 time=0.20055916666666665
EXTRACT: note_off channel=14 note=67 velocity=105 time=0
EXTRACT: note_off channel=15 note=62 velocity=122 time=0
EXTRACT: note_off channel=6 note=86 velocity=79 time=0.004664166666666666
EXTRACT: note_on channel=1 note=31 velocity=108 time=0.013992499999999998
EXTRACT: note_on channel=9 note=42 velocity=75 time=0
EXTRACT: note_on channel=14 note=67 velocity=117 time=0
EXTRACT: note_on channel=14 note=71 velocity=107 time=0
EXTRACT: note_on channel=15 note=62 velocity=113 time=0
EXTRACT: note_off channel=9 note=42 velocity=75 time=0.004664166666666666
EXTRACT: note_off channel=1 note=31 velocity=108 time=0.20055916666666665
EXTRACT: note_off channel=14 note=71 velocity=107 time=0
EXTRACT: note_off channel=14 note=67 velocity=117 time=0
EXTRACT: note_off channel=15 note=62 velocity=113 time=0
EXTRACT: note_on channel=1 note=31 velocity=114 time=0.018656666666666665
EXTRACT: note_on channel=9 note=36 velocity=125 time=0
EXTRACT: note_on channel=9 note=42 velocity=68 time=0
EXTRACT: note_on channel=14 note=67 velocity=114 time=0
EXTRACT: note_on channel=14 note=71 velocity=104 time=0
EXTRACT: note_on channel=15 note=62 velocity=119 time=0
EXTRACT: note_off channel=9 note=42 velocity=68 time=0.004664166666666666
EXTRACT: note_off channel=9 note=36 velocity=125 time=0
EXTRACT: note_off channel=14 note=71 velocity=104 time=0.20055916666666665
EXTRACT: note_off channel=14 note=67 velocity=114 time=0
EXTRACT: note_off channel=15 note=62 velocity=119 time=0
EXTRACT: note_on channel=6 note=86 velocity=89 time=0.018656666666666665
EXTRACT: note_on channel=9 note=42 velocity=71 time=0
EXTRACT: note_on channel=14 note=67 velocity=103 time=0
EXTRACT: note_on channel=14 note=71 velocity=104 time=0
EXTRACT: note_on channel=15 note=64 velocity=109 time=0
EXTRACT: note_off channel=9 note=42 velocity=71 time=0.004664166666666666
EXTRACT: note_off channel=1 note=31 velocity=114 time=0.20055916666666665
EXTRACT: note_off channel=14 note=71 velocity=104 time=0
EXTRACT: note_off channel=14 note=67 velocity=103 time=0
EXTRACT: note_off channel=15 note=64 velocity=109 time=0
EXTRACT: note_off channel=6 note=86 velocity=89 time=0.004664166666666666
EXTRACT: note_on channel=1 note=31 velocity=118 time=0.013992499999999998
EXTRACT: note_on channel=6 note=83 velocity=88 time=0
EXTRACT: note_on channel=9 note=38 velocity=126 time=0
EXTRACT: note_on channel=9 note=42 velocity=66 time=0
EXTRACT: note_on channel=14 note=67 velocity=115 time=0
EXTRACT: note_on channel=14 note=71 velocity=107 time=0
EXTRACT: note_on channel=15 note=62 velocity=115 time=0
EXTRACT: note_off channel=9 note=42 velocity=66 time=0.004664166666666666
EXTRACT: note_off channel=9 note=38 velocity=126 time=0
EXTRACT: note_off channel=1 note=31 velocity=118 time=0.20055916666666665
EXTRACT: note_off channel=14 note=71 velocity=107 time=0
EXTRACT: note_off channel=14 note=67 velocity=115 time=0
EXTRACT: note_off channel=15 note=62 velocity=115 time=0
EXTRACT: note_off channel=6 note=83 velocity=88 time=0.004664166666666666
EXTRACT: note_on channel=1 note=28 velocity=114 time=0.013992499999999998
EXTRACT: note_on channel=6 note=79 velocity=79 time=0
EXTRACT: note_on channel=9 note=42 velocity=61 time=0
EXTRACT: note_on channel=14 note=69 velocity=112 time=0
EXTRACT: note_on channel=14 note=72 velocity=120 time=0
EXTRACT: note_on channel=15 note=64 velocity=118 time=0
EXTRACT: note_off channel=9 note=42 velocity=61 time=0.004664166666666666
EXTRACT: note_off channel=1 note=28 velocity=114 time=0.20055916666666665
EXTRACT: note_off channel=6 note=79 velocity=79 time=0.004664166666666666
EXTRACT: note_on channel=1 note=33 velocity=117 time=0.013992499999999998
EXTRACT: note_on channel=6 note=88 velocity=80 time=0
EXTRACT: note_on channel=9 note=36 velocity=120 time=0
EXTRACT: note_on channel=9 note=46 velocity=119 time=0
EXTRACT: note_off channel=9 note=46 velocity=119 time=0.004664166666666666
EXTRACT: note_off channel=9 note=36 velocity=120 time=0
EXTRACT: note_off channel=1 note=33 velocity=117 time=0.20055916666666665
EXTRACT: note_off channel=14 note=72 velocity=120 time=0
EXTRACT: note_off channel=14 note=69 velocity=112 time=0
EXTRACT: note_off channel=15 note=64 velocity=118 time=0
EXTRACT: note_off channel=6 note=88 velocity=80 time=0.004664166666666666
EXTRACT: note_on channel=1 note=45 velocity=113 time=0.013992499999999998
EXTRACT: note_on channel=6 note=84 velocity=90 time=0
EXTRACT: note_on channel=9 note=42 velocity=66 time=0
EXTRACT: note_off channel=9 note=42 velocity=66 time=0.004664166666666666
EXTRACT: note_off channel=1 note=45 velocity=113 time=0.20055916666666665
EXTRACT: note_off channel=6 note=84 velocity=90 time=0.004664166666666666
EXTRACT: note_on channel=1 note=31 velocity=107 time=0.013992499999999998
EXTRACT: note_on channel=6 note=81 velocity=91 time=0
EXTRACT: note_on channel=9 note=38 velocity=115 time=0
EXTRACT: note_on channel=9 note=46 velocity=120 time=0
EXTRACT: note_on channel=14 note=65 velocity=117 time=0
EXTRACT: note_on channel=14 note=69 velocity=117 time=0
EXTRACT: note_on channel=15 note=60 velocity=119 time=0
EXTRACT: note_off channel=9 note=46 velocity=120 time=0.004664166666666666
EXTRACT: note_off channel=9 note=38 velocity=115 time=0
EXTRACT: note_off channel=1 note=31 velocity=107 time=0.20055916666666665
EXTRACT: note_off channel=14 note=69 velocity=117 time=0
EXTRACT: note_off channel=14 note=65 velocity=117 time=0
EXTRACT: note_off channel=15 note=60 velocity=119 time=0
EXTRACT: note_off channel=6 note=81 velocity=91 time=0.004664166666666666
EXTRACT: note_on channel=1 note=43 velocity=125 time=0.013992499999999998
EXTRACT: note_on channel=6 note=77 velocity=84 time=0
EXTRACT: note_on channel=9 note=42 velocity=75 time=0
EXTRACT: note_on channel=14 note=65 velocity=101 time=0
EXTRACT: note_on channel=14 note=69 velocity=115 time=0
EXTRACT: note_on channel=15 note=60 velocity=124 time=0
EXTRACT: note_off channel=9 note=42 velocity=75 time=0.004664166666666666
EXTRACT: note_off channel=1 note=43 velocity=125 time=0.20055916666666665
EXTRACT: note_off channel=6 note=77 velocity=84 time=0.004664166666666666
EXTRACT: note_on channel=1 note=29 velocity=111 time=0.013992499999999998
EXTRACT: note_on channel=6 note=77 velocity=88 time=0
EXTRACT: note_on channel=9 note=36 velocity=122 time=0
EXTRACT: note_on channel=9 note=42 velocity=68 time=0
EXTRACT: note_off channel=9 note=42 velocity=68 time=0.004664166666666666
EXTRACT: note_off channel=9 note=36 velocity=122 time=0
EXTRACT: note_off channel=1 note=29 velocity=111 time=0.20055916666666665
EXTRACT: note_off channel=14 note=69 velocity=115 time=0
EXTRACT: note_off channel=14 note=65 velocity=101 time=0
EXTRACT: note_off channel=15 note=60 velocity=124 time=0
EXTRACT: note_off channel=6 note=77 velocity=88 time=0.004664166666666666
EXTRACT: note_on channel=6 note=81 velocity=78 time=0.013992499999999998
EXTRACT: note_on channel=9 note=42 velocity=61 time=0
EXTRACT: note_on channel=14 note=65 velocity=109 time=0
EXTRACT: note_on channel=14 note=69 velocity=105 time=0
EXTRACT: note_on channel=15 note=60 velocity=113 time=0
EXTRACT: note_off channel=9 note=42 velocity=61 time=0.004664166666666666
EXTRACT: note_off channel=14 note=69 velocity=105 time=0.20055916666666665
EXTRACT: note_off channel=14 note=65 velocity=109 time=0
EXTRACT: note_off channel=15 note=60 velocity=113 time=0
EXTRACT: note_off channel=6 note=81 velocity=78 time=0.004664166666666666
EXTRACT: note_on channel=1 note=29 velocity=114 time=0.013992499999999998
EXTRACT: note_on channel=6 note=84 velocity=81 time=0
EXTRACT: note_on channel=9 note=38 velocity=122 time=0
EXTRACT: note_on channel=9 note=42 velocity=62 time=0
EXTRACT: note_on channel=14 note=65 velocity=107 time=0
EXTRACT: note_on channel=14 note=69 velocity=120 time=0
EXTRACT: note_on channel=15 note=60 velocity=120 time=0
EXTRACT: note_off channel=9 note=42 velocity=62 time=0.004664166666666666
EXTRACT: note_off channel=9 note=38 velocity=122 time=0
EXTRACT: note_off channel=1 note=29 velocity=114 time=0.20055916666666665
EXTRACT: note_off channel=14 note=69 velocity=120 time=0
EXTRACT: note_off channel=14 note=65 velocity=107 time=0
EXTRACT: note_off channel=15 note=60 velocity=120 time=0
EXTRACT: note_off channel=6 note=84 velocity=81 time=0.004664166666666666
EXTRACT: note_on channel=1 note=29 velocity=114 time=0.013992499999999998
EXTRACT: note_on channel=9 note=42 velocity=77 time=0
EXTRACT: note_on channel=14 note=65 velocity=114 time=0
EXTRACT: note_on channel=14 note=69 velocity=114 time=0
EXTRACT: note_on channel=15 note=60 velocity=118 time=0
EXTRACT: note_off channel=9 note=42 velocity=77 time=0.004664166666666666
EXTRACT: note_off channel=1 note=29 velocity=114 time=0.20055916666666665
EXTRACT: note_off channel=14 note=69 velocity=114 time=0
EXTRACT: note_off channel=14 note=65 velocity=114 time=0
EXTRACT: note_off channel=15 note=60 velocity=118 time=0
EXTRACT: note_on channel=1 note=31 velocity=107 time=0.018656666666666665
EXTRACT: note_on channel=6 note=79 velocity=87 time=0
EXTRACT: note_on channel=9 note=36 velocity=127 time=0
EXTRACT: note_on channel=9 note=42 velocity=74 time=0
EXTRACT: note_on channel=14 note=67 velocity=111 time=0
EXTRACT: note_on channel=14 note=71 velocity=113 time=0
EXTRACT: note_on channel=15 note=62 velocity=112 time=0
EXTRACT: note_off channel=9 note=42 velocity=74 time=0.004664166666666666
EXTRACT: note_off channel=9 note=36 velocity=127 time=0
EXTRACT: note_off channel=1 note=31 velocity=107 time=0.20055916666666665
EXTRACT: note_off channel=14 note=71 velocity=113 time=0
EXTRACT: note_off channel=14 note=67 velocity=111 time=0
EXTRACT: note_off channel=15 note=62 velocity=112 time=0
EXTRACT: note_off channel=6 note=79 velocity=87 time=0.004664166666666666
EXTRACT: note_on channel=1 note=43 velocity=108 time=0.013992499999999998
EXTRACT: note_on channel=6 note=83 velocity=81 time=0
EXTRACT: note_on channel=9 note=42 velocity=64 time=0
EXTRACT: note_on channel=14 note=67 velocity=106 time=0
EXTRACT: note_on channel=14 note=71 velocity=114 time=0
EXTRACT: note_on channel=15 note=64 velocity=109 time=0
EXTRACT: note_off channel=9 note=42 velocity=64 time=0.004664166666666666
EXTRACT: note_off channel=1 note=43 velocity=108 time=0.20055916666666665
EXTRACT: note_off channel=14 note=71 velocity=114 time=0
EXTRACT: note_off channel=14 note=67 velocity=106 time=0
EXTRACT: note_off channel=15 note=64 velocity=109 time=0
EXTRACT: note_off channel=6 note=83 velocity=81 time=0.004664166666666666
EXTRACT: note_on channel=6 note=86 velocity=85 time=0.013992499999999998
EXTRACT: note_on channel=9 note=38 velocity=126 time=0
EXTRACT: note_on channel=9 note=42 velocity=68 time=0
EXTRACT: note_on channel=14 note=67 velocity=109 time=0
EXTRACT: note_on channel=14 note=71 velocity=102 time=0
EXTRACT: note_on channel=15 note=62 velocity=123 time=0
EXTRACT: note_off channel=9 note=42 velocity=68 time=0.004664166666666666
EXTRACT: note_off channel=9 note=38 velocity=126 time=0
EXTRACT: note_off channel=6 note=86 velocity=85 time=0.09328333333333333
EXTRACT: note_off channel=14 note=71 velocity=102 time=0.10727583333333332
EXTRACT: note_off channel=14 note=67 velocity=109 time=0
EXTRACT: note_off channel=15 note=62 velocity=123 time=0
EXTRACT: note_on channel=1 note=31 velocity=115 time=0.018656666666666665
EXTRACT: note_on channel=9 note=49 velocity=119 time=0
EXTRACT: note_on channel=14 note=67 velocity=103 time=0
EXTRACT: note_on channel=14 note=72 velocity=119 time=0
EXTRACT: note_on channel=15 note=60 velocity=111 time=0
EXTRACT: note_off channel=9 note=49 velocity=119 time=0.004664166666666666
EXTRACT: note_off channel=1 note=31 velocity=115 time=0.20055916666666665
EXTRACT: note_on channel=1 note=36 velocity=115 time=0.018656666666666665
EXTRACT: note_on channel=3 note=67 velocity=107 time=0
EXTRACT: note_on channel=3 note=70 velocity=96 time=0
EXTRACT: note_on channel=4 note=46 velocity=116 time=0
EXTRACT: note_on channel=9 note=36 velocity=119 time=0
EXTRACT: note_on channel=9 note=57 velocity=111 time=0
EXTRACT: note_off channel=9 note=57 velocity=111 time=0.004664166666666666
EXTRACT: note_off channel=9 note=36 velocity=119 time=0
EXTRACT: control_change channel=3 control=1 value=83 time=0.10727583333333332
EXTRACT: note_off channel=1 note=36 velocity=115 time=0.09328333333333333
EXTRACT: note_on channel=9 note=42 velocity=71 time=0.018656666666666665
EXTRACT: note_off channel=9 note=42 velocity=71 time=0.004664166666666666
EXTRACT: note_on channel=1 note=36 velocity=118 time=0.2192158333333333
EXTRACT: note_on channel=2 note=60 velocity=104 time=0
EXTRACT: note_on channel=2 note=65 velocity=111 time=0
EXTRACT: note_on channel=2 note=67 velocity=112 time=0
EXTRACT: note_on channel=5 note=48 velocity=98 time=0
EXTRACT: note_on channel=5 note=53 velocity=96 time=0
EXTRACT: note_on channel=5 note=55 velocity=105 time=0
EXTRACT: note_on channel=9 note=38 velocity=113 time=0
EXTRACT: note_on channel=9 note=42 velocity=75 time=0
EXTRACT: note_off channel=9 note=42 velocity=75 time=0.004664166666666666
EXTRACT: note_off channel=9 note=38 velocity=113 time=0
EXTRACT: note_off channel=2 note=67 velocity=112 time=0.09328333333333333
EXTRACT: note_off channel=2 note=65 velocity=111 time=0
EXTRACT: note_off channel=2 note=60 velocity=104 time=0
EXTRACT: note_off channel=5 note=55 velocity=105 time=0
EXTRACT: note_off channel=5 note=53 velocity=96 time=0
EXTRACT: note_off channel=5 note=48 velocity=98 time=0
EXTRACT: note_off channel=1 note=36 velocity=118 time=0.10727583333333332
EXTRACT: note_off channel=14 note=72 velocity=119 time=0
EXTRACT: note_off channel=14 note=67 velocity=103 time=0
EXTRACT: note_off channel=15 note=60 velocity=111 time=0
EXTRACT: note_off channel=4 note=46 velocity=116 time=0.004664166666666666
EXTRACT: note_on channel=2 note=60 velocity=95 time=0.013992499999999998
EXTRACT: note_on channel=2 note=65 velocity=98 time=0
EXTRACT: note_on channel=2 note=67 velocity=108 time=0
EXTRACT: note_on channel=4 note=53 velocity=127 time=0
EXTRACT: note_on channel=5 note=48 velocity=92 time=0
EXTRACT: note_on channel=5 note=53 velocity=104 time=0
EXTRACT: note_on channel=5 note=55 velocity=97 time=0
EXTRACT: note_on channel=9 note=42 velocity=59 time=0
EXTRACT: note_off channel=9 note=42 velocity=59 time=0.004664166666666666
EXTRACT: note_off channel=2 note=67 velocity=108 time=0.09328333333333333
EXTRACT: note_off channel=2 note=65 velocity=98 time=0
EXTRACT: note_off channel=2 note=60 velocity=95 time=0
EXTRACT: note_off channel=5 note=55 velocity=97 time=0
EXTRACT: note_off channel=5 note=53 velocity=104 time=0
EXTRACT: note_off channel=5 note=48 velocity=92 time=0
EXTRACT: note_on channel=1 note=31 velocity=124 time=0.1259325
EXTRACT: note_on channel=9 note=36 velocity=125 time=0
EXTRACT: note_on channel=9 note=42 velocity=74 time=0
EXTRACT: note_off channel=9 note=42 velocity=74 time=0.004664166666666666
EXTRACT: note_off channel=9 note=36 velocity=125 time=0
EXTRACT: note_off channel=1 note=31 velocity=124 time=0.20055916666666665
EXTRACT: note_off channel=3 note=70 velocity=96 time=0.004664166666666666
EXTRACT: note_off channel=3 note=67 velocity=107 time=0
EXTRACT: note_on channel=1 note=36 velocity=113 time=0.013992499999999998
EXTRACT: note_on channel=9 note=42 velocity=63 time=0
EXTRACT: note_off channel=9 note=42 velocity=63 time=0.004664166666666666
EXTRACT: note_off channel=1 note=36 velocity=113 time=0.08861916666666667
EXTRACT: note_on channel=2 note=60 velocity=114 time=0.13059666666666667
EXTRACT: note_on channel=2 note=65 velocity=113 time=0
EXTRACT: note_on channel=2 note=67 velocity=95 time=0
EXTRACT: note_on channel=5 note=48 velocity=86 time=0
EXTRACT: note_on channel=5 note=53 velocity=98 time=0
EXTRACT: note_on channel=5 note=55 velocity=93 time=0
EXTRACT: note_on channel=9 note=38 velocity=120 time=0
EXTRACT: note_on channel=9 note=42 velocity=58 time=0
EXTRACT: note_off channel=9 note=42 velocity=58 time=0.004664166666666666
EXTRACT: note_off channel=9 note=38 velocity=120 time=0
EXTRACT: note_off channel=2 note=67 velocity=95 time=0.09328333333333333
EXTRACT: note_off channel=2 note=65 velocity=113 time=0
EXTRACT: note_off channel=2 note=60 velocity=114 time=0
EXTRACT: note_off channel=5 note=55 velocity=93 time=0
EXTRACT: note_off channel=5 note=53 velocity=98 time=0
EXTRACT: note_off channel=5 note=48 velocity=86 time=0
EXTRACT: note_off channel=4 note=53 velocity=127 time=0.11193999999999998
EXTRACT: note_on channel=1 note=31 velocity=115 time=0.013992499999999998
EXTRACT: note_on channel=2 note=60 velocity=104 time=0
EXTRACT: note_on channel=2 note=65 velocity=104 time=0
EXTRACT: note_on channel=2 note=67 velocity=113 time=0
EXTRACT: control_change channel=3 control=1 value=0 time=0
EXTRACT: note_on channel=4 note=52 velocity=115 time=0
EXTRACT: note_on channel=5 note=48 velocity=87 time=0
EXTRACT: note_on channel=5 note=53 velocity=99 time=0
EXTRACT: note_on channel=5 note=55 velocity=104 time=0
EXTRACT: note_on channel=9 note=42 velocity=62 time=0
EXTRACT: note_off channel=9 note=42 velocity=62 time=0.004664166666666666
EXTRACT: note_off channel=2 note=67 velocity=113 time=0.09328333333333333
EXTRACT: note_off channel=2 note=65 velocity=104 time=0
EXTRACT: note_off channel=2 note=60 velocity=104 time=0
EXTRACT: note_off channel=4 note=52 velocity=115 time=0
EXTRACT: note_off channel=5 note=55 velocity=104 time=0
EXTRACT: note_off channel=5 note=53 velocity=99 time=0
EXTRACT: note_off channel=5 note=48 velocity=87 time=0
EXTRACT: note_on channel=4 note=53 velocity=127 time=0.013992499999999998
EXTRACT: note_off channel=1 note=31 velocity=115 time=0.09328333333333333
EXTRACT: note_off channel=4 note=53 velocity=127 time=0.004664166666666666
EXTRACT: note_on channel=1 note=36 velocity=114 time=0.013992499999999998
EXTRACT: note_on channel=3 note=60 velocity=109 time=0
EXTRACT: note_on channel=3 note=67 velocity=108 time=0
EXTRACT: note_on channel=4 note=52 velocity=126 time=0
EXTRACT: note_on channel=9 note=36 velocity=121 time=0
EXTRACT: note_on channel=9 note=42 velocity=59 time=0
EXTRACT: note_off channel=9 note=42 velocity=59 time=0.004664166666666666
EXTRACT: note_off channel=9 note=36 velocity=121 time=0
EXTRACT: note_off channel=1 note=36 velocity=114 time=0.20055916666666665
EXTRACT: note_off channel=3 note=67 velocity=108 time=0.004664166666666666
EXTRACT: note_off channel=3 note=60 velocity=109 time=0
EXTRACT: note_off channel=4 note=52 velocity=126 time=0
EXTRACT: note_on channel=4 note=50 velocity=123 time=0.013992499999999998
EXTRACT: note_on channel=9 note=42 velocity=59 time=0
EXTRACT: note_off channel=9 note=42 velocity=59 time=0.004664166666666666
EXTRACT: note_off channel=4 note=50 velocity=123 time=0.2052233333333333
EXTRACT: note_on channel=1 note=36 velocity=125 time=0.013992499999999998
EXTRACT: note_on channel=2 note=60 velocity=95 time=0
EXTRACT: note_on channel=2 note=64 velocity=96 time=0
EXTRACT: note_on channel=2 note=67 velocity=102 time=0
EXTRACT: note_on channel=4 note=48 velocity=127 time=0
EXTRACT: note_on channel=5 note=48 velocity=97 time=0
EXTRACT: note_on channel=5 note=52 velocity=96 time=0
EXTRACT: note_on channel=5 note=55 velocity=86 time=0
EXTRACT: note_on channel=9 note=38 velocity=127 time=0
EXTRACT: note_on channel=9 note=42 velocity=58 time=0
EXTRACT: note_off channel=9 note=42 velocity=58 time=0.004664166666666666
EXTRACT: note_off channel=9 note=38 velocity=127 time=0
EXTRACT: note_off channel=2 note=67 velocity=102 time=0.09328333333333333
EXTRACT: note_off channel=2 note=64 velocity=96 time=0
EXTRACT: note_off channel=2 note=60 velocity=95 time=0
EXTRACT: note_off channel=5 note=55 velocity=86 time=0
EXTRACT: note_off channel=5 note=52 velocity=96 time=0
EXTRACT: note_off channel=5 note=48 velocity=97 time=0
EXTRACT: note_off channel=1 note=36 velocity=125 time=0.10727583333333332
EXTRACT: note_off channel=4 note=48 velocity=127 time=0.004664166666666666
EXTRACT: note_on channel=2 note=60 velocity=109 time=0.013992499999999998
EXTRACT: note_on channel=2 note=64 velocity=101 time=0
EXTRACT: note_on channel=2 note=67 velocity=110 time=0
EXTRACT: note_on channel=5 note=48 velocity=89 time=0
EXTRACT: note_on channel=5 note=52 velocity=98 time=0
EXTRACT: note_on channel=5 note=55 velocity=95 time=0
EXTRACT: note_on channel=9 note=42 velocity=61 time=0
EXTRACT: note_off channel=9 note=42 velocity=61 time=0.004664166666666666
EXTRACT: note_off channel=2 note=67 velocity=110 time=0.09328333333333333
EXTRACT: note_off channel=2 note=64 velocity=101 time=0
EXTRACT: note_off channel=2 note=60 velocity=109 time=0
EXTRACT: note_off channel=5 note=55 velocity=95 time=0
EXTRACT: note_off channel=5 note=52 velocity=98 time=0
EXTRACT: note_off channel=5 note=48 velocity=89 time=0
EXTRACT: note_on channel=1 note=31 velocity=120 time=0.1259325
EXTRACT: note_on channel=4 note=46 velocity=125 time=0
EXTRACT: note_on channel=9 note=36 velocity=127 time=0
EXTRACT: note_on channel=9 note=42 velocity=72 time=0
EXTRACT: note_off channel=9 note=42 velocity=72 time=0.004664166666666666
EXTRACT: note_off channel=9 note=36 velocity=127 time=0
EXTRACT: note_off channel=1 note=31 velocity=120 time=0.20055916666666665
EXTRACT: note_on channel=1 note=36 velocity=118 time=0.018656666666666665
EXTRACT: note_on channel=9 note=81 velocity=101 time=0
EXTRACT: note_on channel=9 note=42 velocity=61 time=0
EXTRACT: note_off channel=9 note=42 velocity=61 time=0.004664166666666666
EXTRACT: note_off channel=9 note=81 velocity=101 time=0
EXTRACT: note_off channel=1 note=36 velocity=118 time=0.08861916666666667
EXTRACT: note_off channel=4 note=46 velocity=125 time=0.004664166666666666
EXTRACT: note_on channel=2 note=60 velocity=106 time=0.1259325
EXTRACT: note_on channel=2 note=64 velocity=104 time=0
EXTRACT: note_on channel=2 note=67 velocity=97 time=0
EXTRACT: note_on channel=3 note=67 velocity=105 time=0
EXTRACT: note_on channel=3 note=72 velocity=102 time=0
EXTRACT: note_on channel=5 note=48 velocity=93 time=0
EXTRACT: note_on channel=5 note=52 velocity=88 time=0
EXTRACT: note_on channel=5 note=55 velocity=99 time=0
EXTRACT: note_on channel=9 note=38 velocity=125 time=0
EXTRACT: note_on channel=9 note=42 velocity=68 time=0
EXTRACT: note_off channel=9 note=42 velocity=68 time=0.004664166666666666
EXTRACT: note_off channel=9 note=38 velocity=125 time=0
EXTRACT: note_off channel=2 note=67 velocity=97 time=0.09328333333333333
EXTRACT: note_off channel=2 note=64 velocity=104 time=0
EXTRACT: note_off channel=2 note=60 velocity=106 time=0
EXTRACT: note_off channel=5 note=55 velocity=99 time=0
EXTRACT: note_off channel=5 note=52 velocity=88 time=0
EXTRACT: note_off channel=5 note=48 velocity=93 time=0
EXTRACT: note_off channel=3 note=72 velocity=102 time=0.11193999999999998
EXTRACT: note_off channel=3 note=67 velocity=105 time=0
EXTRACT: note_on channel=1 note=31 velocity=114 time=0.013992499999999998
EXTRACT: note_on channel=2 note=60 velocity=100 time=0
EXTRACT: note_on channel=2 note=64 velocity=114 time=0
EXTRACT: note_on channel=2 note=67 velocity=95 time=0
EXTRACT: note_on channel=5 note=48 velocity=95 time=0
EXTRACT: note_on channel=5 note=52 velocity=103 time=0
EXTRACT: note_on channel=5 note=55 velocity=86 time=0
EXTRACT: note_on channel=9 note=81 velocity=108 time=0
EXTRACT: note_on channel=9 note=42 velocity=69 time=0
EXTRACT: note_off channel=9 note=42 velocity=69 time=0.004664166666666666
EXTRACT: note_off channel=9 note=81 velocity=108 time=0
EXTRACT: note_off channel=2 note=67 velocity=95 time=0.09328333333333333
EXTRACT: note_off channel=2 note=64 velocity=114 time=0
EXTRACT: note_off channel=2 note=60 velocity=100 time=0
EXTRACT: note_off channel=5 note=55 velocity=86 time=0
EXTRACT: note_off channel=5 note=52 velocity=103 time=0
EXTRACT: note_off channel=5 note=48 velocity=95 time=0
EXTRACT: note_off channel=1 note=31 velocity=114 time=0.10727583333333332
EXTRACT: note_on channel=1 note=36 velocity=115 time=0.018656666666666665
EXTRACT: note_on channel=3 note=67 velocity=104 time=0
EXTRACT: note_on channel=3 note=70 velocity=107 time=0
EXTRACT: note_on channel=4 note=46 velocity=120 time=0
EXTRACT: note_on channel=9 note=36 velocity=127 time=0
EXTRACT: note_on channel=9 note=42 velocity=63 time=0
EXTRACT: note_off channel=9 note=42 velocity=63 time=0.004664166666666666
EXTRACT: note_off channel=9 note=36 velocity=127 time=0
EXTRACT: control_change channel=3 control=1 value=82 time=0.10727583333333332
EXTRACT: note_off channel=1 note=36 velocity=115 time=0.09328333333333333
EXTRACT: note_on channel=9 note=42 velocity=70 time=0.018656666666666665
EXTRACT: note_off channel=9 note=42 velocity=70 time=0.004664166666666666
EXTRACT: note_on channel=1 note=36 velocity=120 time=0.2192158333333333
EXTRACT: note_on channel=2 note=60 velocity=96 time=0
EXTRACT: note_on channel=2 note=65 velocity=107 time=0
EXTRACT: note_on channel=2 note=67 velocity=103 time=0
EXTRACT: note_on channel=5 note=48 velocity=97 time=0
EXTRACT: note_on channel=5 note=53 velocity=105 time=0
EXTRACT: note_on channel=5 note=55 velocity=94 time=0
EXTRACT: note_on channel=9 note=38 velocity=116 time=0
EXTRACT: note_on channel=9 note=42 velocity=69 time=0
EXTRACT: note_off channel=9 note=42 velocity=69 time=0.004664166666666666
EXTRACT: note_off channel=9 note=38 velocity=116 time=0
EXTRACT: note_off channel=2 note=67 velocity=103 time=0.09328333333333333
EXTRACT: note_off channel=2 note=65 velocity=107 time=0
EXTRACT: note_off channel=2 note=60 velocity=96 time=0
EXTRACT: note_off channel=5 note=55 velocity=94 time=0
EXTRACT: note_off channel=5 note=53 velocity=105 time=0
EXTRACT: note_off channel=5 note=48 velocity=97 time=0
EXTRACT: note_off channel=1 note=36 velocity=120 time=0.10727583333333332
EXTRACT: note_off channel=4 note=46 velocity=120 time=0.004664166666666666
EXTRACT: note_on channel=2 note=60 velocity=99 time=0.013992499999999998
EXTRACT: note_on channel=2 note=65 velocity=108 time=0
EXTRACT: note_on channel=2 note=67 velocity=105 time=0
EXTRACT: note_on channel=4 note=53 velocity=127 time=0
EXTRACT: note_on channel=5 note=48 velocity=95 time=0
EXTRACT: note_on channel=5 note=53 velocity=92 time=0
EXTRACT: note_on channel=5 note=55 velocity=97 time=0
EXTRACT: note_on channel=9 note=42 velocity=66 time=0
EXTRACT: note_off channel=9 note=42 velocity=66 time=0.004664166666666666
EXTRACT: note_off channel=2 note=67 velocity=105 time=0.09328333333333333
EXTRACT: note_off channel=2 note=65 velocity=108 time=0
EXTRACT: note_off channel=2 note=60 velocity=99 time=0
EXTRACT: note_off channel=5 note=55 velocity=97 time=0
EXTRACT: note_off channel=5 note=53 velocity=92 time=0
EXTRACT: note_off channel=5 note=48 velocity=95 time=0
EXTRACT: note_on channel=1 note=31 velocity=115 time=0.1259325
EXTRACT: note_on channel=9 note=36 velocity=120 time=0
EXTRACT: note_on channel=9 note=42 velocity=59 time=0
EXTRACT: note_off channel=9 note=42 velocity=59 time=0.004664166666666666
EXTRACT: note_off channel=9 note=36 velocity=120 time=0
EXTRACT: note_off channel=1 note=31 velocity=115 time=0.20055916666666665
EXTRACT: note_on channel=1 note=36 velocity=119 time=0.018656666666666665
EXTRACT: note_on channel=9 note=42 velocity=66 time=0
EXTRACT: note_off channel=9 note=42 velocity=66 time=0.004664166666666666
EXTRACT: note_off channel=1 note=36 velocity=119 time=0.08861916666666667
EXTRACT: note_off channel=3 note=70 velocity=107 time=0.11660416666666666
EXTRACT: note_off channel=3 note=67 velocity=104 time=0
EXTRACT: note_on channel=2 note=60 velocity=98 time=0.013992499999999998
EXTRACT: note_on channel=2 note=65 velocity=107 time=0
EXTRACT: note_on channel=2 note=67 velocity=113 time=0
EXTRACT: note_on channel=5 note=48 velocity=105 time=0
EXTRACT: note_on channel=5 note=53 velocity=95 time=0
EXTRACT: note_on channel=5 note=55 velocity=104 time=0
EXTRACT: note_on channel=9 note=38 velocity=127 time=0
EXTRACT: note_on channel=9 note=42 velocity=75 time=0
EXTRACT: note_off channel=9 note=42 velocity=75 time=0.004664166666666666
EXTRACT: note_off channel=9 note=38 velocity=127 time=0
EXTRACT: note_off channel=2 note=67 velocity=113 time=0.09328333333333333
EXTRACT: note_off channel=2 note=65 velocity=107 time=0
EXTRACT: note_off channel=2 note=60 velocity=98 time=0
EXTRACT: note_off channel=5 note=55 velocity=104 time=0
EXTRACT: note_off channel=5 note=53 velocity=95 time=0
EXTRACT: note_off channel=5 note=48 velocity=105 time=0
EXTRACT: note_off channel=4 note=53 velocity=127 time=0.11193999999999998
EXTRACT: note_on channel=1 note=31 velocity=115 time=0.013992499999999998
EXTRACT: note_on channel=2 note=60 velocity=113 time=0
EXTRACT: note_on channel=2 note=65 velocity=103 time=0
EXTRACT: note_on channel=2 note=67 velocity=106 time=0
EXTRACT: control_change channel=3 control=1 value=0 time=0
EXTRACT: note_on channel=4 note=53 velocity=115 time=0
EXTRACT: note_on channel=5 note=48 velocity=99 time=0
EXTRACT: note_on channel=5 note=53 velocity=103 time=0
EXTRACT: note_on channel=5 note=55 velocity=98 time=0
EXTRACT: note_on channel=9 note=42 velocity=63 time=0
EXTRACT: note_off channel=9 note=42 velocity=63 time=0.004664166666666666
EXTRACT: note_off channel=2 note=67 velocity=106 time=0.09328333333333333
EXTRACT: note_off channel=2 note=65 velocity=103 time=0
EXTRACT: note_off channel=2 note=60 velocity=113 time=0
EXTRACT: note_off channel=4 note=53 velocity=115 time=0
EXTRACT: note_off channel=5 note=55 velocity=98 time=0
EXTRACT: note_off channel=5 note=53 velocity=103 time=0
EXTRACT: note_off channel=5 note=48 velocity=99 time=0
EXTRACT: note_on channel=4 note=52 velocity=119 time=0.013992499999999998
EXTRACT: note_off channel=1 note=31 velocity=115 time=0.09328333333333333
EXTRACT: note_off channel=4 note=52 velocity=119 time=0.004664166666666666
EXTRACT: note_on channel=1 note=36 velocity=115 time=0.013992499999999998
EXTRACT: note_on channel=3 note=60 velocity=93 time=0
EXTRACT: note_on channel=3 note=67 velocity=98 time=0
EXTRACT: note_on channel=4 note=48 velocity=127 time=0
EXTRACT: note_on channel=9 note=36 velocity=127 time=0
EXTRACT: note_on channel=9 note=42 velocity=69 time=0
EXTRACT: note_off channel=9 note=42 velocity=69 time=0.004664166666666666
EXTRACT: note_off channel=9 note=36 velocity=127 time=0
EXTRACT: note_off channel=1 note=36 velocity=115 time=0.20055916666666665
EXTRACT: note_off channel=3 note=67 velocity=98 time=0.004664166666666666
EXTRACT: note_off channel=3 note=60 velocity=93 time=0
EXTRACT: note_on channel=9 note=42 velocity=71 time=0.013992499999999998
EXTRACT: note_off channel=9 note=42 velocity=71 time=0.004664166666666666
EXTRACT: note_on channel=1 note=36 velocity=113 time=0.2192158333333333
EXTRACT: note_on channel=2 note=60 velocity=102 time=0
EXTRACT: note_on channel=2 note=64 velocity=111 time=0
EXTRACT: note_on channel=2 note=67 velocity=100 time=0
EXTRACT: note_on channel=5 note=48 velocity=91 time=0
EXTRACT: note_on channel=5 note=52 velocity=97 time=0
EXTRACT: note_on channel=5 note=55 velocity=100 time=0
EXTRACT: note_on channel=9 note=38 velocity=113 time=0
EXTRACT: note_on channel=9 note=42 velocity=77 time=0
EXTRACT: note_off channel=9 note=42 velocity=77 time=0.004664166666666666
EXTRACT: note_off channel=9 note=38 velocity=113 time=0
EXTRACT: note_off channel=2 note=67 velocity=100 time=0.09328333333333333
EXTRACT: note_off channel=2 note=64 velocity=111 time=0
EXTRACT: note_off channel=2 note=60 velocity=102 time=0
EXTRACT: note_off channel=5 note=55 velocity=100 time=0
EXTRACT: note_off channel=5 note=52 velocity=97 time=0
EXTRACT: note_off channel=5 note=48 velocity=91 time=0
EXTRACT: note_off channel=1 note=36 velocity=113 time=0.10727583333333332
EXTRACT: note_on channel=2 note=60 velocity=96 time=0.018656666666666665
EXTRACT: note_on channel=2 note=64 velocity=105 time=0
EXTRACT: note_on channel=2 note=67 velocity=99 time=0
EXTRACT: note_on channel=5 note=48 velocity=97 time=0
EXTRACT: note_on channel=5 note=52 velocity=95 time=0
EXTRACT: note_on channel=5 note=55 velocity=91 time=0
EXTRACT: note_on channel=9 note=42 velocity=75 time=0
EXTRACT: note_off channel=9 note=42 velocity=75 time=0.004664166666666666
EXTRACT: note_off channel=2 note=67 velocity=99 time=0.09328333333333333
EXTRACT: note_off channel=2 note=64 velocity=105 time=0
EXTRACT: note_off channel=2 note=60 velocity=96 time=0
EXTRACT: note_off channel=5 note=55 velocity=91 time=0
EXTRACT: note_off channel=5 note=52 velocity=95 time=0
EXTRACT: note_off channel=5 note=48 velocity=97 time=0
EXTRACT: note_on channel=1 note=31 velocity=126 time=0.1259325
EXTRACT: note_on channel=9 note=36 velocity=127 time=0
EXTRACT: note_on channel=9 note=46 velocity=116 time=0
EXTRACT: note_off channel=9 note=46 velocity=116 time=0.004664166666666666
EXTRACT: note_off channel=9 note=36 velocity=127 time=0
EXTRACT: note_off channel=1 note=31 velocity=126 time=0.20055916666666665
EXTRACT: note_on channel=1 note=36 velocity=124 time=0.018656666666666665
EXTRACT: note_on channel=9 note=81 velocity=97 time=0
EXTRACT: note_on channel=9 note=42 velocity=60 time=0
EXTRACT: note_off channel=9 note=42 velocity=60 time=0.004664166666666666
EXTRACT: note_off channel=9 note=81 velocity=97 time=0
EXTRACT: note_off channel=1 note=36 velocity=124 time=0.08861916666666667
EXTRACT: note_off channel=4 note=48 velocity=127 time=0.004664166666666666
EXTRACT: note_on channel=2 note=60 velocity=106 time=0.1259325
EXTRACT: note_on channel=2 note=64 velocity=104 time=0
EXTRACT: note_on channel=2 note=67 velocity=114 time=0
EXTRACT: note_on channel=5 note=48 velocity=92 time=0
EXTRACT: note_on channel=5 note=52 velocity=87 time=0
EXTRACT: note_on channel=5 note=55 velocity=98 time=0
EXTRACT: note_on channel=9 note=38 velocity=127 time=0
EXTRACT: note_on channel=9 note=46 velocity=111 time=0
EXTRACT: note_off channel=9 note=46 velocity=111 time=0.004664166666666666
EXTRACT: note_off channel=9 note=38 velocity=127 time=0
EXTRACT: note_off channel=2 note=67 velocity=114 time=0.09328333333333333
EXTRACT: note_off channel=2 note=64 velocity=104 time=0
EXTRACT: note_off channel=2 note=60 velocity=106 time=0
EXTRACT: note_off channel=5 note=55 velocity=98 time=0
EXTRACT: note_off channel=5 note=52 velocity=87 time=0
EXTRACT: note_off channel=5 note=48 velocity=92 time=0
EXTRACT: note_on channel=1 note=31 velocity=112 time=0.1259325
EXTRACT: note_on channel=2 note=60 velocity=106 time=0
EXTRACT: note_on channel=2 note=64 velocity=110 time=0
EXTRACT: note_on channel=2 note=67 velocity=114 time=0
EXTRACT: note_on channel=5 note=48 velocity=91 time=0
EXTRACT: note_on channel=5 note=52 velocity=88 time=0
EXTRACT: note_on channel=5 note=55 velocity=96 time=0
EXTRACT: note_on channel=9 note=81 velocity=97 time=0
EXTRACT: note_on channel=9 note=42 velocity=75 time=0
EXTRACT: note_off channel=9 note=42 velocity=75 time=0.004664166666666666
EXTRACT: note_off channel=9 note=81 velocity=97 time=0
EXTRACT: note_off channel=2 note=67 velocity=114 time=0.09328333333333333
EXTRACT: note_off channel=2 note=64 velocity=110 time=0
EXTRACT: note_off channel=2 note=60 velocity=106 time=0
EXTRACT: note_off channel=5 note=55 velocity=96 time=0
EXTRACT: note_off channel=5 note=52 velocity=88 time=0
EXTRACT: note_off channel=5 note=48 velocity=91 time=0
EXTRACT: note_off channel=1 note=31 velocity=112 time=0.10727583333333332
EXTRACT: note_on channel=1 note=36 velocity=126 time=0.018656666666666665
EXTRACT: note_on channel=9 note=36 velocity=123 time=0
EXTRACT: note_on channel=9 note=42 velocity=60 time=0
EXTRACT: note_on channel=15 note=64 velocity=116 time=0
EXTRACT: note_off channel=9 note=42 velocity=60 time=0.004664166666666666
EXTRACT: note_off channel=9 note=36 velocity=123 time=0
EXTRACT: note_off channel=1 note=36 velocity=126 time=0.20055916666666665
EXTRACT: note_off channel=15 note=64 velocity=116 time=0
EXTRACT: note_on channel=9 note=42 velocity=63 time=0.018656666666666665
EXTRACT: note_on channel=15 note=65 velocity=121 time=0
EXTRACT: note_off channel=9 note=42 velocity=63 time=0.004664166666666666
EXTRACT: note_on channel=1 note=36 velocity=126 time=0.2192158333333333
EXTRACT: note_on channel=2 note=60 velocity=104 time=0
EXTRACT: note_on channel=2 note=65 velocity=97 time=0
EXTRACT: note_on channel=2 note=67 velocity=113 time=0
EXTRACT: note_on channel=5 note=48 velocity=96 time=0
EXTRACT: note_on channel=5 note=53 velocity=101 time=0
EXTRACT: note_on channel=5 note=55 velocity=104 time=0
EXTRACT: note_on channel=9 note=38 velocity=120 time=0
EXTRACT: note_on channel=9 note=42 velocity=60 time=0
EXTRACT: note_off channel=9 note=42 velocity=60 time=0.004664166666666666
EXTRACT: note_off channel=9 note=38 velocity=120 time=0
EXTRACT: note_off channel=2 note=67 velocity=113 time=0.09328333333333333
EXTRACT: note_off channel=2 note=65 velocity=97 time=0
EXTRACT: note_off channel=2 note=60 velocity=104 time=0
EXTRACT: note_off channel=5 note=55 velocity=104 time=0
EXTRACT: note_off channel=5 note=53 velocity=101 time=0
EXTRACT: note_off channel=5 note=48 velocity=96 time=0
EXTRACT: note_off channel=1 note=36 velocity=126 time=0.10727583333333332
EXTRACT: note_off channel=15 note=65 velocity=121 time=0
EXTRACT: note_on channel=2 note=60 velocity=108 time=0.018656666666666665
EXTRACT: note_on channel=2 note=65 velocity=107 time=0
EXTRACT: note_on channel=2 note=67 velocity=112 time=0
EXTRACT: note_on channel=5 note=48 velocity=87 time=0
EXTRACT: note_on channel=5 note=53 velocity=86 time=0
EXTRACT: note_on channel=5 note=55 velocity=101 time=0
EXTRACT: note_on channel=9 note=42 velocity=62 time=0
EXTRACT: note_on channel=15 note=64 velocity=123 time=0
EXTRACT: note_off channel=9 note=42 velocity=62 time=0.004664166666666666
EXTRACT: note_off channel=2 note=67 velocity=112 time=0.09328333333333333
EXTRACT: note_off channel=2 note=65 velocity=107 time=0
EXTRACT: note_off channel=2 note=60 velocity=108 time=0
EXTRACT: note_off channel=5 note=55 velocity=101 time=0
EXTRACT: note_off channel=5 note=53 velocity=86 time=0
EXTRACT: note_off channel=5 note=48 velocity=87 time=0
EXTRACT: note_on channel=1 note=31 velocity=109 time=0.1259325
EXTRACT: note_on channel=9 note=36 velocity=127 time=0
EXTRACT: note_on channel=9 note=42 velocity=63 time=0
EXTRACT: note_off channel=9 note=42 velocity=63 time=0.004664166666666666
EXTRACT: note_off channel=9 note=36 velocity=127 time=0
EXTRACT: note_off channel=1 note=31 velocity=109 time=0.20055916666666665
EXTRACT: note_off channel=15 note=64 velocity=123 time=0
EXTRACT: note_on channel=1 note=36 velocity=114 time=0.018656666666666665
EXTRACT: note_on channel=9 note=42 velocity=70 time=0
EXTRACT: note_on channel=15 note=65 velocity=122 time=0
EXTRACT: note_off channel=9 note=42 velocity=70 time=0.004664166666666666
EXTRACT: note_off channel=1 note=36 velocity=114 time=0.08861916666666667
EXTRACT: note_on channel=2 note=60 velocity=98 time=0.13059666666666667
EXTRACT: note_on channel=2 note=65 velocity=107 time=0
EXTRACT: note_on channel=2 note=67 velocity=103 time=0
EXTRACT: note_on channel=5 note=48 velocity=99 time=0
EXTRACT: note_on channel=5 note=53 velocity=102 time=0
EXTRACT: note_on channel=5 note=55 velocity=95 time=0
EXTRACT: note_on channel=9 note=38 velocity=121 time=0
EXTRACT: note_on channel=9 note=42 velocity=58 time=0
EXTRACT: note_off channel=9 note=42 velocity=58 time=0.004664166666666666
EXTRACT: note_off channel=9 note=38 velocity=121 time=0
EXTRACT: note_off channel=2 note=67 velocity=103 time=0.09328333333333333
EXTRACT: note_off channel=2 note=65 velocity=107 time=0
EXTRACT: note_off channel=2 note=60 velocity=98 time=0
EXTRACT: note_off channel=5 note=55 velocity=95 time=0
EXTRACT: note_off channel=5 note=53 velocity=102 time=0
EXTRACT: note_off channel=5 note=48 velocity=99 time=0
EXTRACT: note_off channel=15 note=65 velocity=122 time=0.10727583333333332
EXTRACT: note_on channel=1 note=31 velocity=109 time=0.018656666666666665
EXTRACT: note_on channel=2 note=60 velocity=107 time=0
EXTRACT: note_on channel=2 note=65 velocity=100 time=0
EXTRACT: note_on channel=2 note=67 velocity=103 time=0
EXTRACT: note_on channel=5 note=48 velocity=92 time=0
EXTRACT: note_on channel=5 note=53 velocity=91 time=0
EXTRACT: note_on channel=5 note=55 velocity=91 time=0
EXTRACT: note_on channel=9 note=42 velocity=61 time=0
EXTRACT: note_on channel=15 note=67 velocity=115 time=0
EXTRACT: note_off channel=9 note=42 velocity=61 time=0.004664166666666666
EXTRACT: note_off channel=2 note=67 velocity=103 time=0.09328333333333333
EXTRACT: note_off channel=2 note=65 velocity=100 time=0
EXTRACT: note_off channel=2 note=60 velocity=107 time=0
EXTRACT: note_off channel=5 note=55 velocity=91 time=0
EXTRACT: note_off channel=5 note=53 velocity=91 time=0
EXTRACT: note_off channel=5 note=48 velocity=92 time=0
EXTRACT: note_off channel=1 note=31 velocity=109 time=0.10727583333333332
EXTRACT: note_on channel=1 note=36 velocity=124 time=0.018656666666666665
EXTRACT: note_on channel=9 note=36 velocity=127 time=0
EXTRACT: note_on channel=9 note=42 velocity=63 time=0
EXTRACT: note_off channel=9 note=42 velocity=63 time=0.004664166666666666
EXTRACT: note_off channel=9 note=36 velocity=127 time=0
EXTRACT: note_off channel=1 note=36 velocity=124 time=0.20055916666666665
EXTRACT: note_off channel=15 note=67 velocity=115 time=0
EXTRACT: note_on channel=9 note=42 velocity=58 time=0.018656666666666665
EXTRACT: note_on channel=15 note=69 velocity=118 time=0
EXTRACT: note_off channel=9 note=42 velocity=58 time=0.004664166666666666
EXTRACT: note_on channel=1 note=36 velocity=112 time=0.2192158333333333
EXTRACT: note_on channel=2 note=60 velocity=104 time=0
EXTRACT: note_on channel=2 note=64 velocity=98 time=0
EXTRACT: note_on channel=2 note=67 velocity=102 time=0
EXTRACT: note_on channel=5 note=48 velocity=97 time=0
EXTRACT: note_on channel=5 note=52 velocity=101 time=0
EXTRACT: note_on channel=5 note=55 velocity=97 time=0
EXTRACT: note_on channel=9 note=38 velocity=127 time=0
EXTRACT: note_on channel=9 note=42 velocity=76 time=0
EXTRACT: note_off channel=9 note=42 velocity=76 time=0.004664166666666666
EXTRACT: note_off channel=9 note=38 velocity=127 time=0
EXTRACT: note_off channel=2 note=67 velocity=102 time=0.09328333333333333
EXTRACT: note_off channel=2 note=64 velocity=98 time=0
EXTRACT: note_off channel=2 note=60 velocity=104 time=0
EXTRACT: note_off channel=5 note=55 velocity=97 time=0
EXTRACT: note_off channel=5 note=52 velocity=101 time=0
EXTRACT: note_off channel=5 note=48 velocity=97 time=0
EXTRACT: note_off channel=1 note=36 velocity=112 time=0.10727583333333332
EXTRACT: note_off channel=15 note=69 velocity=118 time=0
EXTRACT: note_on channel=2 note=60 velocity=106 time=0.018656666666666665
EXTRACT: note_on channel=2 note=64 velocity=112 time=0
EXTRACT: note_on channel=2 note=67 velocity=113 time=0
EXTRACT: note_on channel=5 note=48 velocity=98 time=0
EXTRACT: note_on channel=5 note=52 velocity=103 time=0
EXTRACT: note_on channel=5 note=55 velocity=103 time=0
EXTRACT: note_on channel=9 note=42 velocity=76 time=0
EXTRACT: note_on channel=15 note=67 velocity=126 time=0
EXTRACT: note_off channel=9 note=42 velocity=76 time=0.004664166666666666
EXTRACT: note_off channel=2 note=67 velocity=113 time=0.09328333333333333
EXTRACT: note_off channel=2 note=64 velocity=112 time=0
EXTRACT: note_off channel=2 note=60 velocity=106 time=0
EXTRACT: note_off channel=5 note=55 velocity=103 time=0
EXTRACT: note_off channel=5 note=52 velocity=103 time=0
EXTRACT: note_off channel=5 note=48 velocity=98 time=0
EXTRACT: note_on channel=1 note=31 velocity=125 time=0.1259325
EXTRACT: note_on channel=9 note=36 velocity=127 time=0
EXTRACT: note_on channel=9 note=42 velocity=66 time=0
EXTRACT: note_off channel=9 note=42 velocity=66 time=0.004664166666666666
EXTRACT: note_off channel=9 note=36 velocity=127 time=0
EXTRACT: note_off channel=1 note=31 velocity=125 time=0.20055916666666665
EXTRACT: note_off channel=15 note=67 velocity=126 time=0
EXTRACT: note_on channel=1 note=36 velocity=114 time=0.018656666666666665
EXTRACT: note_on channel=9 note=42 velocity=69 time=0
EXTRACT: note_on channel=15 note=69 velocity=126 time=0
EXTRACT: note_off channel=9 note=42 velocity=69 time=0.004664166666666666
EXTRACT: note_off channel=1 note=36 velocity=114 time=0.08861916666666667
EXTRACT: note_off channel=15 note=69 velocity=126 time=0.11193999999999998
EXTRACT: note_on channel=2 note=60 velocity=102 time=0.018656666666666665
EXTRACT: note_on channel=2 note=64 velocity=111 time=0
EXTRACT: note_on channel=2 note=67 velocity=97 time=0
EXTRACT: note_on channel=5 note=48 velocity=100 time=0
EXTRACT: note_on channel=5 note=52 velocity=87 time=0
EXTRACT: note_on channel=5 note=55 velocity=93 time=0
EXTRACT: note_on channel=9 note=38 velocity=119 time=0
EXTRACT: note_on channel=9 note=42 velocity=59 time=0
EXTRACT: note_off channel=9 note=42 velocity=59 time=0.004664166666666666
EXTRACT: note_off channel=9 note=38 velocity=119 time=0
EXTRACT: note_off channel=2 note=67 velocity=97 time=0.09328333333333333
EXTRACT: note_off channel=2 note=64 velocity=111 time=0
EXTRACT: note_off channel=2 note=60 velocity=102 time=0
EXTRACT: note_off channel=5 note=55 velocity=93 time=0
EXTRACT: note_off channel=5 note=52 velocity=87 time=0
EXTRACT: note_off channel=5 note=48 velocity=100 time=0
EXTRACT: note_on channel=1 note=29 velocity=120 time=0.1259325
EXTRACT: note_on channel=2 note=60 velocity=109 time=0
EXTRACT: note_on channel=2 note=64 velocity=114 time=0
EXTRACT: note_on channel=2 note=67 velocity=114 time=0
EXTRACT: note_on channel=5 note=48 velocity=86 time=0
EXTRACT: note_on channel=5 note=52 velocity=101 time=0
EXTRACT: note_on channel=5 note=55 velocity=93 time=0
EXTRACT: note_on channel=9 note=42 velocity=69 time=0
EXTRACT: note_on channel=15 note=70 velocity=112 time=0
EXTRACT: note_off channel=9 note=42 velocity=69 time=0.004664166666666666
EXTRACT: note_off channel=2 note=67 velocity=114 time=0.09328333333333333
EXTRACT: note_off channel=2 note=64 velocity=114 time=0
EXTRACT: note_off channel=2 note=60 velocity=109 time=0
EXTRACT: note_off channel=5 note=55 velocity=93 time=0
EXTRACT: note_off channel=5 note=52 velocity=101 time=0
EXTRACT: note_off channel=5 note=48 velocity=86 time=0
EXTRACT: note_off channel=1 note=29 velocity=120 time=0.10727583333333332
EXTRACT: note_on channel=1 note=34 velocity=116 time=0.018656666666666665
EXTRACT: note_on channel=9 note=36 velocity=120 time=0
EXTRACT: note_on channel=9 note=42 velocity=60 time=0
EXTRACT: note_off channel=9 note=42 velocity=60 time=0.004664166666666666
EXTRACT: note_off channel=9 note=36 velocity=120 time=0
EXTRACT: note_off channel=1 note=34 velocity=116 time=0.20055916666666665
EXTRACT: note_on channel=9 note=42 velocity=67 time=0.018656666666666665
EXTRACT: note_off channel=9 note=42 velocity=67 time=0.004664166666666666
EXTRACT: note_off channel=15 note=70 velocity=112 time=0.20055916666666665
EXTRACT: note_on channel=1 note=34 velocity=125 time=0.018656666666666665
EXTRACT: note_on channel=2 note=58 velocity=105 time=0
EXTRACT: note_on channel=2 note=62 velocity=109 time=0
EXTRACT: note_on channel=2 note=65 velocity=107 time=0
EXTRACT: note_on channel=5 note=46 velocity=93 time=0
EXTRACT: note_on channel=5 note=50 velocity=96 time=0
EXTRACT: note_on channel=5 note=53 velocity=98 time=0
EXTRACT: note_on channel=9 note=38 velocity=127 time=0
EXTRACT: note_on channel=9 note=42 velocity=73 time=0
EXTRACT: note_on channel=15 note=69 velocity=110 time=0
EXTRACT: note_off channel=9 note=42 velocity=73 time=0.004664166666666666
EXTRACT: note_off channel=9 note=38 velocity=127 time=0
EXTRACT: note_off channel=2 note=65 velocity=107 time=0.09328333333333333
EXTRACT: note_off channel=2 note=62 velocity=109 time=0
EXTRACT: note_off channel=2 note=58 velocity=105 time=0
EXTRACT: note_off channel=5 note=53 velocity=98 time=0
EXTRACT: note_off channel=5 note=50 velocity=96 time=0
EXTRACT: note_off channel=5 note=46 velocity=93 time=0
EXTRACT: note_off channel=1 note=34 velocity=125 time=0.10727583333333332
EXTRACT: note_on channel=2 note=58 velocity=104 time=0.018656666666666665
EXTRACT: note_on channel=2 note=62 velocity=100 time=0
EXTRACT: note_on channel=2 note=65 velocity=95 time=0
EXTRACT: note_on channel=5 note=46 velocity=91 time=0
EXTRACT: note_on channel=5 note=50 velocity=86 time=0
EXTRACT: note_on channel=5 note=53 velocity=86 time=0
EXTRACT: note_on channel=9 note=42 velocity=67 time=0
EXTRACT: note_off channel=9 note=42 velocity=67 time=0.004664166666666666
EXTRACT: note_off channel=2 note=65 velocity=95 time=0.09328333333333333
EXTRACT: note_off channel=2 note=62 velocity=100 time=0
EXTRACT: note_off channel=2 note=58 velocity=104 time=0
EXTRACT: note_off channel=5 note=53 velocity=86 time=0
EXTRACT: note_off channel=5 note=50 velocity=86 time=0
EXTRACT: note_off channel=5 note=46 velocity=91 time=0
EXTRACT: note_off channel=15 note=69 velocity=110 time=0.10727583333333332
EXTRACT: note_on channel=1 note=29 velocity=121 time=0.018656666666666665
EXTRACT: note_on channel=9 note=36 velocity=123 time=0
EXTRACT: note_on channel=9 note=42 velocity=75 time=0
EXTRACT: note_on channel=15 note=67 velocity=121 time=0
EXTRACT: note_off channel=9 note=42 velocity=75 time=0.004664166666666666
EXTRACT: note_off channel=9 note=36 velocity=123 time=0
EXTRACT: note_off channel=1 note=29 velocity=121 time=0.20055916666666665
EXTRACT: note_off channel=15 note=67 velocity=121 time=0
EXTRACT: note_on channel=1 note=34 velocity=110 time=0.018656666666666665
EXTRACT: note_on channel=9 note=42 velocity=71 time=0
EXTRACT: note_on channel=15 note=65 velocity=113 time=0
EXTRACT: note_off channel=9 note=42 velocity=71 time=0.004664166666666666
EXTRACT: note_off channel=1 note=34 velocity=110 time=0.08861916666666667
EXTRACT: note_on channel=2 note=58 velocity=96 time=0.13059666666666667
EXTRACT: note_on channel=2 note=62 velocity=97 time=0
EXTRACT: note_on channel=2 note=65 velocity=110 time=0
EXTRACT: note_on channel=5 note=46 velocity=101 time=0
EXTRACT: note_on channel=5 note=50 velocity=92 time=0
EXTRACT: note_on channel=5 note=53 velocity=88 time=0
EXTRACT: note_on channel=9 note=38 velocity=127 time=0
EXTRACT: note_on channel=9 note=42 velocity=65 time=0
EXTRACT: note_off channel=9 note=42 velocity=65 time=0.004664166666666666
EXTRACT: note_off channel=9 note=38 velocity=127 time=0
EXTRACT: note_off channel=2 note=65 velocity=110 time=0.09328333333333333
EXTRACT: note_off channel=2 note=62 velocity=97 time=0
EXTRACT: note_off channel=2 note=58 velocity=96 time=0
EXTRACT: note_off channel=5 note=53 velocity=88 time=0
EXTRACT: note_off channel=5 note=50 velocity=92 time=0
EXTRACT: note_off channel=5 note=46 velocity=101 time=0
EXTRACT: note_off channel=15 note=65 velocity=113 time=0.10727583333333332
EXTRACT: note_on channel=1 note=28 velocity=115 time=0.018656666666666665
EXTRACT: note_on channel=2 note=58 velocity=109 time=0
EXTRACT: note_on channel=2 note=62 velocity=108 time=0
EXTRACT: note_on channel=2 note=65 velocity=112 time=0
EXTRACT: note_on channel=5 note=46 velocity=87 time=0
EXTRACT: note_on channel=5 note=50 velocity=93 time=0
EXTRACT: note_on channel=5 note=53 velocity=97 time=0
EXTRACT: note_on channel=9 note=42 velocity=74 time=0
EXTRACT: note_on channel=15 note=67 velocity=113 time=0
EXTRACT: note_off channel=9 note=42 velocity=74 time=0.004664166666666666
EXTRACT: note_off channel=2 note=65 velocity=112 time=0.09328333333333333
EXTRACT: note_off channel=2 note=62 velocity=108 time=0
EXTRACT: note_off channel=2 note=58 velocity=109 time=0
EXTRACT: note_off channel=5 note=53 velocity=97 time=0
EXTRACT: note_off channel=5 note=50 velocity=93 time=0
EXTRACT: note_off channel=5 note=46 velocity=87 time=0
EXTRACT: note_off channel=1 note=28 velocity=115 time=0.10727583333333332
EXTRACT: note_on channel=1 note=33 velocity=124 time=0.018656666666666665
EXTRACT: note_on channel=9 note=36 velocity=127 time=0
EXTRACT: note_on channel=9 note=42 velocity=77 time=0
EXTRACT: note_off channel=9 note=42 velocity=77 time=0.004664166666666666
EXTRACT: note_off channel=9 note=36 velocity=127 time=0
EXTRACT: note_off channel=1 note=33 velocity=124 time=0.20055916666666665
EXTRACT: note_off channel=15 note=67 velocity=113 time=0
EXTRACT: note_on channel=9 note=42 velocity=64 time=0.018656666666666665
EXTRACT: note_on channel=15 note=62 velocity=117 time=0
EXTRACT: note_off channel=9 note=42 velocity=64 time=0.004664166666666666
EXTRACT: note_off channel=15 note=62 velocity=117 time=0.20055916666666665
EXTRACT: note_on channel=1 note=33 velocity=121 time=0.018656666666666665
EXTRACT: note_on channel=2 note=57 velocity=95 time=0
EXTRACT: note_on channel=2 note=60 velocity=102 time=0
EXTRACT: note_on channel=2 note=64 velocity=106 time=0
EXTRACT: note_on channel=5 note=45 velocity=105 time=0
EXTRACT: note_on channel=5 note=48 velocity=86 time=0
EXTRACT: note_on channel=5 note=52 velocity=103 time=0
EXTRACT: note_on channel=9 note=38 velocity=113 time=0
EXTRACT: note_on channel=9 note=42 velocity=70 time=0
EXTRACT: note_on channel=15 note=64 velocity=114 time=0
EXTRACT: note_off channel=9 note=42 velocity=70 time=0.004664166666666666
EXTRACT: note_off channel=9 note=38 velocity=113 time=0
EXTRACT: note_off channel=2 note=64 velocity=106 time=0.09328333333333333
EXTRACT: note_off channel=2 note=60 velocity=102 time=0
EXTRACT: note_off channel=2 note=57 velocity=95 time=0
EXTRACT: note_off channel=5 note=52 velocity=103 time=0
EXTRACT: note_off channel=5 note=48 velocity=86 time=0
EXTRACT: note_off channel=5 note=45 velocity=105 time=0
EXTRACT: note_off channel=1 note=33 velocity=121 time=0.10727583333333332
EXTRACT: note_off channel=15 note=64 velocity=114 time=0
EXTRACT: note_on channel=2 note=57 velocity=95 time=0.018656666666666665
EXTRACT: note_on channel=2 note=60 velocity=101 time=0
EXTRACT: note_on channel=2 note=64 velocity=100 time=0
EXTRACT: note_on channel=5 note=45 velocity=88 time=0
EXTRACT: note_on channel=5 note=48 velocity=102 time=0
EXTRACT: note_on channel=5 note=52 velocity=104 time=0
EXTRACT: note_on channel=9 note=42 velocity=73 time=0
EXTRACT: note_off channel=9 note=42 velocity=73 time=0.004664166666666666
EXTRACT: note_off channel=2 note=64 velocity=100 time=0.09328333333333333
EXTRACT: note_off channel=2 note=60 velocity=101 time=0
EXTRACT: note_off channel=2 note=57 velocity=95 time=0
EXTRACT: note_off channel=5 note=52 velocity=104 time=0
EXTRACT: note_off channel=5 note=48 velocity=102 time=0
EXTRACT: note_off channel=5 note=45 velocity=88 time=0
EXTRACT: note_on channel=1 note=28 velocity=109 time=0.1259325
EXTRACT: note_on channel=9 note=36 velocity=126 time=0
EXTRACT: note_on channel=9 note=42 velocity=62 time=0
EXTRACT: note_off channel=9 note=42 velocity=62 time=0.004664166666666666
EXTRACT: note_off channel=9 note=36 velocity=126 time=0
EXTRACT: note_off channel=1 note=28 velocity=109 time=0.20055916666666665
EXTRACT: note_on channel=1 note=33 velocity=113 time=0.018656666666666665
EXTRACT: note_on channel=9 note=42 velocity=64 time=0
EXTRACT: note_off channel=9 note=42 velocity=64 time=0.004664166666666666
EXTRACT: note_off channel=1 note=33 velocity=113 time=0.08861916666666667
EXTRACT: note_on channel=2 note=57 velocity=106 time=0.13059666666666667
EXTRACT: note_on channel=2 note=60 velocity=112 time=0
EXTRACT: note_on channel=2 note=64 velocity=103 time=0
EXTRACT: note_on channel=5 note=45 velocity=103 time=0
EXTRACT: note_on channel=5 note=48 velocity=101 time=0
EXTRACT: note_on channel=5 note=52 velocity=95 time=0
EXTRACT: note_on channel=9 note=38 velocity=127 time=0
EXTRACT: note_on channel=9 note=42 velocity=62 time=0
EXTRACT: note_off channel=9 note=42 velocity=62 time=0.004664166666666666
EXTRACT: note_off channel=9 note=38 velocity=127 time=0
EXTRACT: note_off channel=2 note=64 velocity=103 time=0.09328333333333333
EXTRACT: note_off channel=2 note=60 velocity=112 time=0
EXTRACT: note_off channel=2 note=57 velocity=106 time=0
EXTRACT: note_off channel=5 note=52 velocity=95 time=0
EXTRACT: note_off channel=5 note=48 velocity=101 time=0
EXTRACT: note_off channel=5 note=45 velocity=103 time=0
EXTRACT: note_on channel=1 note=31 velocity=115 time=0.1259325
EXTRACT: note_on channel=2 note=57 velocity=103 time=0
EXTRACT: note_on channel=2 note=60 velocity=108 time=0
EXTRACT: note_on channel=2 note=64 velocity=113 time=0
EXTRACT: note_on channel=5 note=45 velocity=90 time=0
EXTRACT: note_on channel=5 note=48 velocity=89 time=0
EXTRACT: note_on channel=5 note=52 velocity=91 time=0
EXTRACT: note_on channel=9 note=42 velocity=73 time=0
EXTRACT: note_on channel=15 note=60 velocity=124 time=0
EXTRACT: note_off channel=9 note=42 velocity=73 time=0.004664166666666666
EXTRACT: note_off channel=2 note=64 velocity=113 time=0.09328333333333333
EXTRACT: note_off channel=2 note=60 velocity=108 time=0
EXTRACT: note_off channel=2 note=57 velocity=103 time=0
EXTRACT: note_off channel=5 note=52 velocity=91 time=0
EXTRACT: note_off channel=5 note=48 velocity=89 time=0
EXTRACT: note_off channel=5 note=45 velocity=90 time=0
EXTRACT: note_on channel=9 note=38 velocity=127 time=0.013992499999999998
EXTRACT: note_off channel=9 note=38 velocity=127 time=0.004664166666666666
EXTRACT: note_off channel=1 note=31 velocity=115 time=0.08861916666666667
EXTRACT: note_off channel=15 note=60 velocity=124 time=0
EXTRACT: note_on channel=1 note=36 velocity=117 time=0.018656666666666665
EXTRACT: note_on channel=9 note=36 velocity=127 time=0
EXTRACT: note_on channel=9 note=49 velocity=113 time=0
EXTRACT: note_on channel=15 note=64 velocity=109 time=0
EXTRACT: note_off channel=9 note=49 velocity=113 time=0.004664166666666666
EXTRACT: note_off channel=9 note=36 velocity=127 time=0
EXTRACT: note_off channel=1 note=36 velocity=117 time=0.20055916666666665
EXTRACT: note_off channel=15 note=64 velocity=109 time=0
EXTRACT: note_on channel=9 note=42 velocity=71 time=0.018656666666666665
EXTRACT: note_on channel=15 note=65 velocity=113 time=0
EXTRACT: note_off channel=9 note=42 velocity=71 time=0.004664166666666666
EXTRACT: note_on channel=1 note=36 velocity=126 time=0.2192158333333333
EXTRACT: note_on channel=2 note=60 velocity=106 time=0
EXTRACT: note_on channel=2 note=65 velocity=108 time=0
EXTRACT: note_on channel=2 note=67 velocity=107 time=0
EXTRACT: note_on channel=5 note=48 velocity=98 time=0
EXTRACT: note_on channel=5 note=53 velocity=92 time=0
EXTRACT: note_on channel=5 note=55 velocity=91 time=0
EXTRACT: note_on channel=9 note=38 velocity=113 time=0
EXTRACT: note_on channel=9 note=42 velocity=77 time=0
EXTRACT: note_off channel=9 note=42 velocity=77 time=0.004664166666666666
EXTRACT: note_off channel=9 note=38 velocity=113 time=0
EXTRACT: note_off channel=2 note=67 velocity=107 time=0.09328333333333333
EXTRACT: note_off channel=2 note=65 velocity=108 time=0
EXTRACT: note_off channel=2 note=60 velocity=106 time=0
EXTRACT: note_off channel=5 note=55 velocity=91 time=0
EXTRACT: note_off channel=5 note=53 velocity=92 time=0
EXTRACT: note_off channel=5 note=48 velocity=98 time=0
EXTRACT: note_off channel=1 note=36 velocity=126 time=0.10727583333333332
EXTRACT: note_off channel=15 note=65 velocity=113 time=0
EXTRACT: note_on channel=2 note=60 velocity=102 time=0.018656666666666665
EXTRACT: note_on channel=2 note=65 velocity=97 time=0
EXTRACT: note_on channel=2 note=67 velocity=107 time=0
EXTRACT: note_on channel=5 note=48 velocity=91 time=0
EXTRACT: note_on channel=5 note=53 velocity=104 time=0
EXTRACT: note_on channel=5 note=55 velocity=94 time=0
EXTRACT: note_on channel=9 note=42 velocity=61 time=0
EXTRACT: note_on channel=15 note=64 velocity=110 time=0
EXTRACT: note_off channel=9 note=42 velocity=61 time=0.004664166666666666
EXTRACT: note_off channel=2 note=67 velocity=107 time=0.09328333333333333
EXTRACT: note_off channel=2 note=65 velocity=97 time=0
EXTRACT: note_off channel=2 note=60 velocity=102 time=0
EXTRACT: note_off channel=5 note=55 velocity=94 time=0
EXTRACT: note_off channel=5 note=53 velocity=104 time=0
EXTRACT: note_off channel=5 note=48 velocity=91 time=0
EXTRACT: note_on channel=1 note=31 velocity=108 time=0.1259325
EXTRACT: note_on channel=9 note=36 velocity=119 time=0
EXTRACT: note_on channel=9 note=42 velocity=76 time=0
EXTRACT: note_off channel=9 note=42 velocity=76 time=0.004664166666666666
EXTRACT: note_off channel=9 note=36 velocity=119 time=0
EXTRACT: note_off channel=1 note=31 velocity=108 time=0.20055916666666665
EXTRACT: note_off channel=15 note=64 velocity=110 time=0
EXTRACT: note_on channel=1 note=36 velocity=112 time=0.018656666666666665
EXTRACT: note_on channel=9 note=42 velocity=75 time=0
EXTRACT: note_on channel=15 note=65 velocity=119 time=0
EXTRACT: note_off channel=9 note=42 velocity=75 time=0.004664166666666666
EXTRACT: note_off channel=1 note=36 velocity=112 time=0.08861916666666667
EXTRACT: note_on channel=2 note=60 velocity=107 time=0.13059666666666667
EXTRACT: note_on channel=2 note=65 velocity=108 time=0
EXTRACT: note_on channel=2 note=67 velocity=98 time=0
EXTRACT: note_on channel=5 note=48 velocity=95 time=0
EXTRACT: note_on channel=5 note=53 velocity=105 time=0
EXTRACT: note_on channel=5 note=55 velocity=102 time=0
EXTRACT: note_on channel=9 note=38 velocity=118 time=0
EXTRACT: note_on channel=9 note=42 velocity=69 time=0
EXTRACT: note_off channel=9 note=42 velocity=69 time=0.004664166666666666
EXTRACT: note_off channel=9 note=38 velocity=118 time=0
EXTRACT: note_off channel=2 note=67 velocity=98 time=0.09328333333333333
EXTRACT: note_off channel=2 note=65 velocity=108 time=0
EXTRACT: note_off channel=2 note=60 velocity=107 time=0
EXTRACT: note_off channel=5 note=55 velocity=102 time=0
EXTRACT: note_off channel=5 note=53 velocity=105 time=0
EXTRACT: note_off channel=5 note=48 velocity=95 time=0
EXTRACT: note_off channel=15 note=65 velocity=119 time=0.10727583333333332
EXTRACT: note_on channel=1 note=31 velocity=119 time=0.018656666666666665
EXTRACT: note_on channel=2 note=60 velocity=110 time=0
EXTRACT: note_on channel=2 note=65 velocity=108 time=0
EXTRACT: note_on channel=2 note=67 velocity=106 time=0
EXTRACT: note_on channel=5 note=48 velocity=95 time=0
EXTRACT: note_on channel=5 note=53 velocity=105 time=0
EXTRACT: note_on channel=5 note=55 velocity=98 time=0
EXTRACT: note_on channel=9 note=42 velocity=76 time=0
EXTRACT: note_on channel=15 note=67 velocity=124 time=0
EXTRACT: note_off channel=9 note=42 velocity=76 time=0.004664166666666666
EXTRACT: note_off channel=2 note=67 velocity=106 time=0.09328333333333333
EXTRACT: note_off channel=2 note=65 velocity=108 time=0
EXTRACT: note_off channel=2 note=60 velocity=110 time=0
EXTRACT: note_off channel=5 note=55 velocity=98 time=0
EXTRACT: note_off channel=5 note=53 velocity=105 time=0
EXTRACT: note_off channel=5 note=48 velocity=95 time=0
EXTRACT: note_off channel=1 note=31 velocity=119 time=0.10727583333333332
EXTRACT: note_on channel=1 note=36 velocity=118 time=0.018656666666666665
EXTRACT: note_on channel=9 note=36 velocity=120 time=0
EXTRACT: note_on channel=9 note=42 velocity=68 time=0
EXTRACT: note_off channel=9 note=42 velocity=68 time=0.004664166666666666
EXTRACT: note_off channel=9 note=36 velocity=120 time=0
EXTRACT: note_off channel=1 note=36 velocity=118 time=0.20055916666666665
EXTRACT: note_off channel=15 note=67 velocity=124 time=0
EXTRACT: note_on channel=9 note=42 velocity=67 time=0.018656666666666665
EXTRACT: note_on channel=15 note=69 velocity=125 time=0
EXTRACT: note_off channel=9 note=42 velocity=67 time=0.004664166666666666
EXTRACT: note_on channel=1 note=36 velocity=114 time=0.2192158333333333
EXTRACT: note_on channel=2 note=60 velocity=107 time=0
EXTRACT: note_on channel=2 note=64 velocity=108 time=0
EXTRACT: note_on channel=2 note=67 velocity=110 time=0
EXTRACT: note_on channel=5 note=48 velocity=97 time=0
EXTRACT: note_on channel=5 note=52 velocity=93 time=0
EXTRACT: note_on channel=5 note=55 velocity=101 time=0
EXTRACT: note_on channel=9 note=38 velocity=125 time=0
EXTRACT: note_on channel=9 note=42 velocity=58 time=0
EXTRACT: note_off channel=9 note=42 velocity=58 time=0.004664166666666666
EXTRACT: note_off channel=9 note=38 velocity=125 time=0
EXTRACT: note_off channel=2 note=67 velocity=110 time=0.09328333333333333
EXTRACT: note_off channel=2 note=64 velocity=108 time=0
EXTRACT: note_off channel=2 note=60 velocity=107 time=0
EXTRACT: note_off channel=5 note=55 velocity=101 time=0
EXTRACT: note_off channel=5 note=52 velocity=93 time=0
EXTRACT: note_off channel=5 note=48 velocity=97 time=0
EXTRACT: note_off channel=1 note=36 velocity=114 time=0.10727583333333332
EXTRACT: note_off channel=15 note=69 velocity=125 time=0
EXTRACT: note_on channel=2 note=60 velocity=99 time=0.018656666666666665
EXTRACT: note_on channel=2 note=64 velocity=103 time=0
EXTRACT: note_on channel=2 note=67 velocity=105 time=0
EXTRACT: note_on channel=5 note=48 velocity=89 time=0
EXTRACT: note_on channel=5 note=52 velocity=99 time=0
EXTRACT: note_on channel=5 note=55 velocity=90 time=0
EXTRACT: note_on channel=9 note=42 velocity=65 time=0
EXTRACT: note_on channel=15 note=67 velocity=111 time=0
EXTRACT: note_off channel=9 note=42 velocity=65 time=0.004664166666666666
EXTRACT: note_off channel=2 note=67 velocity=105 time=0.09328333333333333
EXTRACT: note_off channel=2 note=64 velocity=103 time=0
EXTRACT: note_off channel=2 note=60 velocity=99 time=0
EXTRACT: note_off channel=5 note=55 velocity=90 time=0
EXTRACT: note_off channel=5 note=52 velocity=99 time=0
EXTRACT: note_off channel=5 note=48 velocity=89 time=0
EXTRACT: note_on channel=1 note=31 velocity=109 time=0.1259325
EXTRACT: note_on channel=9 note=36 velocity=127 time=0
EXTRACT: note_on channel=9 note=46 velocity=105 time=0
EXTRACT: note_off channel=9 note=46 velocity=105 time=0.004664166666666666
EXTRACT: note_off channel=9 note=36 velocity=127 time=0
EXTRACT: note_off channel=1 note=31 velocity=109 time=0.20055916666666665
EXTRACT: note_off channel=15 note=67 velocity=111 time=0
EXTRACT: note_on channel=1 note=36 velocity=112 time=0.018656666666666665
EXTRACT: note_on channel=9 note=42 velocity=76 time=0
EXTRACT: note_on channel=15 note=69 velocity=127 time=0
EXTRACT: note_off channel=9 note=42 velocity=76 time=0.004664166666666666
EXTRACT: note_off channel=1 note=36 velocity=112 time=0.08861916666666667
EXTRACT: note_off channel=15 note=69 velocity=127 time=0.11193999999999998
EXTRACT: note_on channel=2 note=60 velocity=108 time=0.018656666666666665
EXTRACT: note_on channel=2 note=64 velocity=107 time=0
EXTRACT: note_on channel=2 note=67 velocity=95 time=0
EXTRACT: note_on channel=5 note=48 velocity=92 time=0
EXTRACT: note_on channel=5 note=52 velocity=100 time=0
EXTRACT: note_on channel=5 note=55 velocity=102 time=0
EXTRACT: note_on channel=9 note=38 velocity=127 time=0
EXTRACT: note_on channel=9 note=46 velocity=105 time=0
EXTRACT: note_off channel=9 note=46 velocity=105 time=0.004664166666666666
EXTRACT: note_off channel=9 note=38 velocity=127 time=0
EXTRACT: note_off channel=2 note=67 velocity=95 time=0.09328333333333333
EXTRACT: note_off channel=2 note=64 velocity=107 time=0
EXTRACT: note_off channel=2 note=60 velocity=108 time=0
EXTRACT: note_off channel=5 note=55 velocity=102 time=0
EXTRACT: note_off channel=5 note=52 velocity=100 time=0
EXTRACT: note_off channel=5 note=48 velocity=92 time=0
EXTRACT: note_on channel=1 note=36 velocity=108 time=0.1259325
EXTRACT: note_on channel=2 note=60 velocity=95 time=0
EXTRACT: note_on channel=2 note=64 velocity=106 time=0
EXTRACT: note_on channel=2 note=67 velocity=101 time=0
EXTRACT: note_on channel=5 note=48 velocity=87 time=0
EXTRACT: note_on channel=5 note=52 velocity=86 time=0
EXTRACT: note_on channel=5 note=55 velocity=98 time=0
EXTRACT: note_on channel=9 note=42 velocity=77 time=0
EXTRACT: note_on channel=14 note=69 velocity=110 time=0
EXTRACT: note_on channel=14 note=72 velocity=101 time=0
EXTRACT: note_on channel=15 note=64 velocity=127 time=0
EXTRACT: note_off channel=9 note=42 velocity=77 time=0.004664166666666666
EXTRACT: note_off channel=2 note=67 velocity=101 time=0.09328333333333333
EXTRACT: note_off channel=2 note=64 velocity=106 time=0
EXTRACT: note_off channel=2 note=60 velocity=95 time=0
EXTRACT: note_off channel=5 note=55 velocity=98 time=0
EXTRACT: note_off channel=5 note=52 velocity=86 time=0
EXTRACT: note_off channel=5 note=48 velocity=87 time=0
EXTRACT: note_off channel=1 note=36 velocity=108 time=0.10727583333333332
EXTRACT: note_on channel=1 note=38 velocity=120 time=0.018656666666666665
EXTRACT: note_on channel=9 note=36 velocity=127 time=0
EXTRACT: note_on channel=9 note=42 velocity=71 time=0
EXTRACT: note_off channel=9 note=42 velocity=71 time=0.004664166666666666
EXTRACT: note_off channel=9 note=36 velocity=127 time=0
EXTRACT: note_off channel=1 note=38 velocity=120 time=0.20055916666666665
EXTRACT: note_off channel=14 note=72 velocity=101 time=0
EXTRACT: note_off channel=14 note=69 velocity=110 time=0
EXTRACT: note_off channel=15 note=64 velocity=127 time=0
EXTRACT: note_on channel=9 note=42 velocity=69 time=0.018656666666666665
EXTRACT: note_on channel=14 note=69 velocity=116 time=0
EXTRACT: note_on channel=14 note=72 velocity=113 time=0
EXTRACT: note_on channel=15 note=65 velocity=122 time=0
EXTRACT: note_off channel=9 note=42 velocity=69 time=0.004664166666666666
EXTRACT: note_on channel=1 note=38 velocity=119 time=0.2192158333333333
EXTRACT: note_on channel=2 note=62 velocity=95 time=0
EXTRACT: note_on channel=2 note=65 velocity=102 time=0
EXTRACT: note_on channel=5 note=50 velocity=104 time=0
EXTRACT: note_on channel=5 note=53 velocity=105 time=0
EXTRACT: note_on channel=9 note=38 velocity=127 time=0
EXTRACT: note_on channel=9 note=42 velocity=71 time=0
EXTRACT: note_off channel=9 note=42 velocity=71 time=0.004664166666666666
EXTRACT: note_off channel=9 note=38 velocity=127 time=0
EXTRACT: note_off channel=2 note=65 velocity=102 time=0.09328333333333333
EXTRACT: note_off channel=2 note=62 velocity=95 time=0
EXTRACT: note_off channel=5 note=53 velocity=105 time=0
EXTRACT: note_off channel=5 note=50 velocity=104 time=0
EXTRACT: note_off channel=1 note=38 velocity=119 time=0.10727583333333332
EXTRACT: note_off channel=14 note=72 velocity=113 time=0
EXTRACT: note_off channel=14 note=69 velocity=116 time=0
EXTRACT: note_off channel=15 note=65 velocity=122 time=0
EXTRACT: note_on channel=2 note=62 velocity=100 time=0.018656666666666665
EXTRACT: note_on channel=2 note=65 velocity=99 time=0
EXTRACT: note_on channel=5 note=50 velocity=93 time=0
EXTRACT: note_on channel=5 note=53 velocity=100 time=0
EXTRACT: note_on channel=9 note=42 velocity=63 time=0
EXTRACT: note_on channel=14 note=69 velocity=112 time=0
EXTRACT: note_on channel=14 note=72 velocity=113 time=0
EXTRACT: note_on channel=15 note=64 velocity=116 time=0
EXTRACT: note_off channel=9 note=42 velocity=63 time=0.004664166666666666
EXTRACT: note_off channel=2 note=65 velocity=99 time=0.09328333333333333
EXTRACT: note_off channel=2 note=62 velocity=100 time=0
EXTRACT: note_off channel=5 note=53 velocity=100 time=0
EXTRACT: note_off channel=5 note=50 velocity=93 time=0
EXTRACT: note_on channel=1 note=31 velocity=122 time=0.1259325
EXTRACT: note_on channel=9 note=36 velocity=127 time=0
EXTRACT: note_on channel=9 note=42 velocity=76 time=0
EXTRACT: note_off channel=9 note=42 velocity=76 time=0.004664166666666666
EXTRACT: note_off channel=9 note=36 velocity=127 time=0
EXTRACT: note_off channel=1 note=31 velocity=122 time=0.20055916666666665
EXTRACT: note_off channel=14 note=72 velocity=113 time=0
EXTRACT: note_off channel=14 note=69 velocity=112 time=0
EXTRACT: note_off channel=15 note=64 velocity=116 time=0
EXTRACT: note_on channel=1 note=43 velocity=116 time=0.018656666666666665
EXTRACT: note_on channel=9 note=42 velocity=58 time=0
EXTRACT: note_on channel=14 note=69 velocity=112 time=0
EXTRACT: note_on channel=14 note=72 velocity=110 time=0
EXTRACT: note_on channel=15 note=65 velocity=123 time=0
EXTRACT: note_off channel=9 note=42 velocity=58 time=0.004664166666666666
EXTRACT: note_off channel=1 note=43 velocity=116 time=0.08861916666666667
EXTRACT: note_on channel=2 note=62 velocity=102 time=0.13059666666666667
EXTRACT: note_on channel=2 note=65 velocity=106 time=0
EXTRACT: note_on channel=5 note=50 velocity=100 time=0
EXTRACT: note_on channel=5 note=53 velocity=88 time=0
EXTRACT: note_on channel=9 note=38 velocity=116 time=0
EXTRACT: note_on channel=9 note=42 velocity=65 time=0
EXTRACT: note_off channel=9 note=42 velocity=65 time=0.004664166666666666
EXTRACT: note_off channel=9 note=38 velocity=116 time=0
EXTRACT: note_off channel=2 note=65 velocity=106 time=0.09328333333333333
EXTRACT: note_off channel=2 note=62 velocity=102 time=0
EXTRACT: note_off channel=5 note=53 velocity=88 time=0
EXTRACT: note_off channel=5 note=50 velocity=100 time=0
EXTRACT: note_off channel=14 note=72 velocity=110 time=0.10727583333333332
EXTRACT: note_off channel=14 note=69 velocity=112 time=0
EXTRACT: note_off channel=15 note=65 velocity=123 time=0
EXTRACT: note_on channel=1 note=31 velocity=119 time=0.018656666666666665
EXTRACT: note_on channel=2 note=62 velocity=108 time=0
EXTRACT: note_on channel=2 note=65 velocity=112 time=0
EXTRACT: note_on channel=5 note=50 velocity=101 time=0
EXTRACT: note_on channel=5 note=53 velocity=88 time=0
EXTRACT: note_on channel=9 note=42 velocity=75 time=0
EXTRACT: note_on channel=14 note=67 velocity=107 time=0
EXTRACT: note_on channel=14 note=72 velocity=120 time=0
EXTRACT: note_on channel=15 note=64 velocity=127 time=0
EXTRACT: note_off channel=9 note=42 velocity=75 time=0.004664166666666666
EXTRACT: note_off channel=2 note=65 velocity=112 time=0.09328333333333333
EXTRACT: note_off channel=2 note=62 velocity=108 time=0
EXTRACT: note_off channel=5 note=53 velocity=88 time=0
EXTRACT: note_off channel=5 note=50 velocity=101 time=0
EXTRACT: note_off channel=1 note=31 velocity=119 time=0.10727583333333332
EXTRACT: note_on channel=1 note=36 velocity=114 time=0.018656666666666665
EXTRACT: note_on channel=9 note=36 velocity=127 time=0
EXTRACT: note_on channel=9 note=42 velocity=66 time=0
EXTRACT: note_off channel=9 note=42 velocity=66 time=0.004664166666666666
EXTRACT: note_off channel=9 note=36 velocity=127 time=0
EXTRACT: note_off channel=1 note=36 velocity=114 time=0.20055916666666665
EXTRACT: note_off channel=14 note=72 velocity=120 time=0
EXTRACT: note_off channel=14 note=67 velocity=107 time=0
EXTRACT: note_off channel=15 note=64 velocity=127 time=0
EXTRACT: note_on channel=9 note=42 velocity=70 time=0.018656666666666665
EXTRACT: note_on channel=14 note=64 velocity=109 time=0
EXTRACT: note_on channel=14 note=67 velocity=118 time=0
EXTRACT: note_on channel=15 note=60 velocity=113 time=0
EXTRACT: note_off channel=9 note=42 velocity=70 time=0.004664166666666666
EXTRACT: note_off channel=14 note=67 velocity=118 time=0.20055916666666665
EXTRACT: note_off channel=14 note=64 velocity=109 time=0
EXTRACT: note_off channel=15 note=60 velocity=113 time=0
EXTRACT: note_on channel=1 note=36 velocity=115 time=0.018656666666666665
EXTRACT: note_on channel=2 note=60 velocity=100 time=0
EXTRACT: note_on channel=2 note=64 velocity=113 time=0
EXTRACT: note_on channel=5 note=48 velocity=92 time=0
EXTRACT: note_on channel=5 note=52 velocity=88 time=0
EXTRACT: note_on channel=9 note=38 velocity=117 time=0
EXTRACT: note_on channel=9 note=42 velocity=58 time=0
EXTRACT: note_off channel=9 note=42 velocity=58 time=0.004664166666666666
EXTRACT: note_off channel=9 note=38 velocity=117 time=0
EXTRACT: note_off channel=2 note=64 velocity=113 time=0.09328333333333333
EXTRACT: note_off channel=2 note=60 velocity=100 time=0
EXTRACT: note_off channel=5 note=52 velocity=88 time=0
EXTRACT: note_off channel=5 note=48 velocity=92 time=0
EXTRACT: note_off channel=1 note=36 velocity=115 time=0.10727583333333332
EXTRACT: note_on channel=2 note=60 velocity=97 time=0.018656666666666665
EXTRACT: note_on channel=2 note=64 velocity=110 time=0
EXTRACT: note_on channel=5 note=48 velocity=105 time=0
EXTRACT: note_on channel=5 note=52 velocity=89 time=0
EXTRACT: note_on channel=9 note=42 velocity=62 time=0
EXTRACT: note_off channel=9 note=42 velocity=62 time=0.004664166666666666
EXTRACT: note_off channel=2 note=64 velocity=110 time=0.09328333333333333
EXTRACT: note_off channel=2 note=60 velocity=97 time=0
EXTRACT: note_off channel=5 note=52 velocity=89 time=0
EXTRACT: note_off channel=5 note=48 velocity=105 time=0
EXTRACT: note_on channel=1 note=31 velocity=108 time=0.1259325
EXTRACT: note_on channel=9 note=36 velocity=127 time=0
EXTRACT: note_on channel=9 note=42 velocity=59 time=0
EXTRACT: note_off channel=9 note=42 velocity=59 time=0.004664166666666666
EXTRACT: note_off channel=9 note=36 velocity=127 time=0
EXTRACT: note_off channel=1 note=31 velocity=108 time=0.20055916666666665
EXTRACT: note_on channel=1 note=36 velocity=121 time=0.018656666666666665
EXTRACT: note_on channel=9 note=81 velocity=97 time=0
EXTRACT: note_on channel=9 note=42 velocity=73 time=0
EXTRACT: note_off channel=9 note=42 velocity=73 time=0.004664166666666666
EXTRACT: note_off channel=9 note=81 velocity=97 time=0
EXTRACT: note_off channel=1 note=36 velocity=121 time=0.08861916666666667
EXTRACT: note_on channel=2 note=60 velocity=97 time=0.13059666666666667
EXTRACT: note_on channel=2 note=64 velocity=113 time=0
EXTRACT: note_on channel=5 note=48 velocity=88 time=0
EXTRACT: note_on channel=5 note=52 velocity=92 time=0
EXTRACT: note_on channel=9 note=38 velocity=127 time=0
EXTRACT: note_on channel=9 note=42 velocity=69 time=0
EXTRACT: note_off channel=9 note=42 velocity=69 time=0.004664166666666666
EXTRACT: note_off channel=9 note=38 velocity=127 time=0
EXTRACT: note_off channel=2 note=64 velocity=113 time=0.09328333333333333
EXTRACT: note_off channel=2 note=60 velocity=97 time=0
EXTRACT: note_off channel=5 note=52 velocity=92 time=0
EXTRACT: note_off channel=5 note=48 velocity=88 time=0
EXTRACT: note_on channel=1 note=31 velocity=116 time=0.1259325
EXTRACT: note_on channel=2 note=60 velocity=107 time=0
EXTRACT: note_on channel=2 note=64 velocity=101 time=0
EXTRACT: note_on channel=5 note=48 velocity=105 time=0
EXTRACT: note_on channel=5 note=52 velocity=104 time=0
EXTRACT: note_on channel=9 note=81 velocity=95 time=0
EXTRACT: note_on channel=9 note=42 velocity=69 time=0
EXTRACT: note_off channel=9 note=42 velocity=69 time=0.004664166666666666
EXTRACT: note_off channel=9 note=81 velocity=95 time=0
EXTRACT: note_off channel=2 note=64 velocity=101 time=0.09328333333333333
EXTRACT: note_off channel=2 note=60 velocity=107 time=0
EXTRACT: note_off channel=5 note=52 velocity=104 time=0
EXTRACT: note_off channel=5 note=48 velocity=105 time=0
EXTRACT: note_off channel=1 note=31 velocity=116 time=0.10727583333333332
EXTRACT: note_on channel=1 note=36 velocity=112 time=0.018656666666666665
EXTRACT: note_on channel=9 note=36 velocity=124 time=0
EXTRACT: note_on channel=9 note=49 velocity=107 time=0
EXTRACT: note_on channel=15 note=64 velocity=125 time=0
EXTRACT: note_off channel=9 note=49 velocity=107 time=0.004664166666666666
EXTRACT: note_off channel=9 note=36 velocity=124 time=0
EXTRACT: note_off channel=1 note=36 velocity=112 time=0.20055916666666665
EXTRACT: note_off channel=15 note=64 velocity=125 time=0
EXTRACT: note_on channel=9 note=42 velocity=71 time=0.018656666666666665
EXTRACT: note_on channel=15 note=65 velocity=127 time=0
EXTRACT: note_off channel=9 note=42 velocity=71 time=0.004664166666666666
EXTRACT: note_on channel=1 note=36 velocity=112 time=0.2192158333333333
EXTRACT: note_on channel=2 note=60 velocity=109 time=0
EXTRACT: note_on channel=2 note=65 velocity=98 time=0
EXTRACT: note_on channel=2 note=67 velocity=106 time=0
EXTRACT: note_on channel=5 note=48 velocity=101 time=0
EXTRACT: note_on channel=5 note=53 velocity=98 time=0
EXTRACT: note_on channel=5 note=55 velocity=103 time=0
EXTRACT: note_on channel=9 note=38 velocity=115 time=0
EXTRACT: note_on channel=9 note=42 velocity=66 time=0
EXTRACT: note_off channel=9 note=42 velocity=66 time=0.004664166666666666
EXTRACT: note_off channel=9 note=38 velocity=115 time=0
EXTRACT: note_off channel=2 note=67 velocity=106 time=0.09328333333333333
EXTRACT: note_off channel=2 note=65 velocity=98 time=0
EXTRACT: note_off channel=2 note=60 velocity=109 time=0
EXTRACT: note_off channel=5 note=55 velocity=103 time=0
EXTRACT: note_off channel=5 note=53 velocity=98 time=0
EXTRACT: note_off channel=5 note=48 velocity=101 time=0
EXTRACT: note_off channel=1 note=36 velocity=112 time=0.10727583333333332
EXTRACT: note_off channel=15 note=65 velocity=127 time=0
EXTRACT: note_on channel=2 note=60 velocity=100 time=0.018656666666666665
EXTRACT: note_on channel=2 note=65 velocity=110 time=0
EXTRACT: note_on channel=2 note=67 velocity=113 time=0
EXTRACT: note_on channel=5 note=48 velocity=94 time=0
EXTRACT: note_on channel=5 note=53 velocity=99 time=0
EXTRACT: note_on channel=5 note=55 velocity=86 time=0
EXTRACT: note_on channel=9 note=42 velocity=66 time=0
EXTRACT: note_on channel=15 note=64 velocity=119 time=0
EXTRACT: note_off channel=9 note=42 velocity=66 time=0.004664166666666666
EXTRACT: note_off channel=2 note=67 velocity=113 time=0.09328333333333333
EXTRACT: note_off channel=2 note=65 velocity=110 time=0
EXTRACT: note_off channel=2 note=60 velocity=100 time=0
EXTRACT: note_off channel=5 note=55 velocity=86 time=0
EXTRACT: note_off channel=5 note=53 velocity=99 time=0
EXTRACT: note_off channel=5 note=48 velocity=94 time=0
EXTRACT: note_on channel=1 note=31 velocity=108 time=0.1259325
EXTRACT: note_on channel=9 note=36 velocity=127 time=0
EXTRACT: note_on channel=9 note=42 velocity=74 time=0
EXTRACT: note_off channel=9 note=42 velocity=74 time=0.004664166666666666
EXTRACT: note_off channel=9 note=36 velocity=127 time=0
EXTRACT: note_off channel=1 note=31 velocity=108 time=0.20055916666666665
EXTRACT: note_off channel=15 note=64 velocity=119 time=0
EXTRACT: note_on channel=1 note=36 velocity=110 time=0.018656666666666665
EXTRACT: note_on channel=9 note=42 velocity=62 time=0
EXTRACT: note_on channel=15 note=65 velocity=118 time=0
EXTRACT: note_off channel=9 note=42 velocity=62 time=0.004664166666666666
EXTRACT: note_off channel=1 note=36 velocity=110 time=0.08861916666666667
EXTRACT: note_on channel=2 note=60 velocity=102 time=0.13059666666666667
EXTRACT: note_on channel=2 note=65 velocity=103 time=0
EXTRACT: note_on channel=2 note=67 velocity=109 time=0
EXTRACT: note_on channel=5 note=48 velocity=99 time=0
EXTRACT: note_on channel=5 note=53 velocity=93 time=0
EXTRACT: note_on channel=5 note=55 velocity=98 time=0
EXTRACT: note_on channel=9 note=38 velocity=127 time=0
EXTRACT: note_on channel=9 note=42 velocity=70 time=0
EXTRACT: note_off channel=9 note=42 velocity=70 time=0.004664166666666666
EXTRACT: note_off channel=9 note=38 velocity=127 time=0
EXTRACT: note_off channel=2 note=67 velocity=109 time=0.09328333333333333
EXTRACT: note_off channel=2 note=65 velocity=103 time=0
EXTRACT: note_off channel=2 note=60 velocity=102 time=0
EXTRACT: note_off channel=5 note=55 velocity=98 time=0
EXTRACT: note_off channel=5 note=53 velocity=93 time=0
EXTRACT: note_off channel=5 note=48 velocity=99 time=0
EXTRACT: note_off channel=15 note=65 velocity=118 time=0.10727583333333332
EXTRACT: note_on channel=1 note=31 velocity=118 time=0.018656666666666665
EXTRACT: note_on channel=2 note=60 velocity=100 time=0
EXTRACT: note_on channel=2 note=65 velocity=114 time=0
EXTRACT: note_on channel=2 note=67 velocity=106 time=0
EXTRACT: note_on channel=5 note=48 velocity=95 time=0
EXTRACT: note_on channel=5 note=53 velocity=88 time=0
EXTRACT: note_on channel=5 note=55 velocity=89 time=0
EXTRACT: note_on channel=9 note=42 velocity=62 time=0
EXTRACT: note_on channel=15 note=67 velocity=126 time=0
EXTRACT: note_off channel=9 note=42 velocity=62 time=0.004664166666666666
EXTRACT: note_off channel=2 note=67 velocity=106 time=0.09328333333333333
EXTRACT: note_off channel=2 note=65 velocity=114 time=0
EXTRACT: note_off channel=2 note=60 velocity=100 time=0
EXTRACT: note_off channel=5 note=55 velocity=89 time=0
EXTRACT: note_off channel=5 note=53 velocity=88 time=0
EXTRACT: note_off channel=5 note=48 velocity=95 time=0
EXTRACT: note_off channel=1 note=31 velocity=118 time=0.10727583333333332
EXTRACT: note_on channel=1 note=36 velocity=115 time=0.018656666666666665
EXTRACT: note_on channel=9 note=36 velocity=126 time=0
EXTRACT: note_on channel=9 note=42 velocity=77 time=0
EXTRACT: note_off channel=9 note=42 velocity=77 time=0.004664166666666666
EXTRACT: note_off channel=9 note=36 velocity=126 time=0
EXTRACT: note_off channel=1 note=36 velocity=115 time=0.20055916666666665
EXTRACT: note_off channel=15 note=67 velocity=126 time=0
EXTRACT: note_on channel=9 note=42 velocity=63 time=0.018656666666666665
EXTRACT: note_on channel=15 note=69 velocity=115 time=0
EXTRACT: note_off channel=9 note=42 velocity=63 time=0.004664166666666666
EXTRACT: note_on channel=1 note=36 velocity=115 time=0.2192158333333333
EXTRACT: note_on channel=2 note=60 velocity=102 time=0
EXTRACT: note_on channel=2 note=64 velocity=100 time=0
EXTRACT: note_on channel=2 note=67 velocity=109 time=0
EXTRACT: note_on channel=5 note=48 velocity=94 time=0
EXTRACT: note_on channel=5 note=52 velocity=87 time=0
EXTRACT: note_on channel=5 note=55 velocity=91 time=0
EXTRACT: note_on channel=9 note=38 velocity=121 time=0
EXTRACT: note_on channel=9 note=42 velocity=61 time=0
EXTRACT: note_off channel=9 note=42 velocity=61 time=0.004664166666666666
EXTRACT: note_off channel=9 note=38 velocity=121 time=0
EXTRACT: note_off channel=2 note=67 velocity=109 time=0.09328333333333333
EXTRACT: note_off channel=2 note=64 velocity=100 time=0
EXTRACT: note_off channel=2 note=60 velocity=102 time=0
EXTRACT: note_off channel=5 note=55 velocity=91 time=0
EXTRACT: note_off channel=5 note=52 velocity=87 time=0
EXTRACT: note_off channel=5 note=48 velocity=94 time=0
EXTRACT: note_off channel=1 note=36 velocity=115 time=0.10727583333333332
EXTRACT: note_off channel=15 note=69 velocity=115 time=0
EXTRACT: note_on channel=2 note=60 velocity=107 time=0.018656666666666665
EXTRACT: note_on channel=2 note=64 velocity=110 time=0
EXTRACT: note_on channel=2 note=67 velocity=111 time=0
EXTRACT: note_on channel=5 note=48 velocity=101 time=0
EXTRACT: note_on channel=5 note=52 velocity=95 time=0
EXTRACT: note_on channel=5 note=55 velocity=99 time=0
EXTRACT: note_on channel=9 note=42 velocity=74 time=0
EXTRACT: note_on channel=15 note=67 velocity=127 time=0
EXTRACT: note_off channel=9 note=42 velocity=74 time=0.004664166666666666
EXTRACT: note_off channel=2 note=67 velocity=111 time=0.09328333333333333
EXTRACT: note_off channel=2 note=64 velocity=110 time=0
EXTRACT: note_off channel=2 note=60 velocity=107 time=0
EXTRACT: note_off channel=5 note=55 velocity=99 time=0
EXTRACT: note_off channel=5 note=52 velocity=95 time=0
EXTRACT: note_off channel=5 note=48 velocity=101 time=0
EXTRACT: note_on channel=1 note=31 velocity=120 time=0.1259325
EXTRACT: note_on channel=9 note=36 velocity=121 time=0
EXTRACT: note_on channel=9 note=42 velocity=67 time=0
EXTRACT: note_off channel=9 note=42 velocity=67 time=0.004664166666666666
EXTRACT: note_off channel=9 note=36 velocity=121 time=0
EXTRACT: note_off channel=1 note=31 velocity=120 time=0.20055916666666665
EXTRACT: note_off channel=15 note=67 velocity=127 time=0
EXTRACT: note_on channel=1 note=36 velocity=110 time=0.018656666666666665
EXTRACT: note_on channel=9 note=42 velocity=64 time=0
EXTRACT: note_on channel=15 note=69 velocity=117 time=0
EXTRACT: note_off channel=9 note=42 velocity=64 time=0.004664166666666666
EXTRACT: note_off channel=1 note=36 velocity=110 time=0.08861916666666667
EXTRACT: note_off channel=15 note=69 velocity=117 time=0.11193999999999998
EXTRACT: note_on channel=2 note=60 velocity=102 time=0.018656666666666665
EXTRACT: note_on channel=2 note=64 velocity=114 time=0
EXTRACT: note_on channel=2 note=67 velocity=113 time=0
EXTRACT: note_on channel=5 note=48 velocity=101 time=0
EXTRACT: note_on channel=5 note=52 velocity=86 time=0
EXTRACT: note_on channel=5 note=55 velocity=103 time=0
EXTRACT: note_on channel=9 note=38 velocity=122 time=0
EXTRACT: note_on channel=9 note=42 velocity=73 time=0
EXTRACT: note_off channel=9 note=42 velocity=73 time=0.004664166666666666
EXTRACT: note_off channel=9 note=38 velocity=122 time=0
EXTRACT: note_off channel=2 note=67 velocity=113 time=0.09328333333333333
EXTRACT: note_off channel=2 note=64 velocity=114 time=0
EXTRACT: note_off channel=2 note=60 velocity=102 time=0
EXTRACT: note_off channel=5 note=55 velocity=103 time=0
EXTRACT: note_off channel=5 note=52 velocity=86 time=0
EXTRACT: note_off channel=5 note=48 velocity=101 time=0
EXTRACT: note_on channel=1 note=29 velocity=116 time=0.1259325
EXTRACT: note_on channel=2 note=60 velocity=95 time=0
EXTRACT: note_on channel=2 note=64 velocity=110 time=0
EXTRACT: note_on channel=2 note=67 velocity=102 time=0
EXTRACT: note_on channel=5 note=48 velocity=86 time=0
EXTRACT: note_on channel=5 note=52 velocity=96 time=0
EXTRACT: note_on channel=5 note=55 velocity=94 time=0
EXTRACT: note_on channel=9 note=42 velocity=74 time=0
EXTRACT: note_on channel=15 note=70 velocity=117 time=0
EXTRACT: note_off channel=9 note=42 velocity=74 time=0.004664166666666666
EXTRACT: note_off channel=2 note=67 velocity=102 time=0.09328333333333333
EXTRACT: note_off channel=2 note=64 velocity=110 time=0
EXTRACT: note_off channel=2 note=60 velocity=95 time=0
EXTRACT: note_off channel=5 note=55 velocity=94 time=0
EXTRACT: note_off channel=5 note=52 velocity=96 time=0
EXTRACT: note_off channel=5 note=48 velocity=86 time=0
EXTRACT: note_off channel=1 note=29 velocity=116 time=0.10727583333333332
EXTRACT: note_on channel=1 note=34 velocity=124 time=0.018656666666666665
EXTRACT: note_on channel=9 note=36 velocity=124 time=0
EXTRACT: note_on channel=9 note=42 velocity=69 time=0
EXTRACT: note_off channel=9 note=42 velocity=69 time=0.004664166666666666
EXTRACT: note_off channel=9 note=36 velocity=124 time=0
EXTRACT: note_off channel=1 note=34 velocity=124 time=0.20055916666666665
EXTRACT: note_on channel=9 note=42 velocity=65 time=0.018656666666666665
EXTRACT: note_off channel=9 note=42 velocity=65 time=0.004664166666666666
EXTRACT: note_off channel=15 note=70 velocity=117 time=0.20055916666666665
EXTRACT: note_on channel=1 note=34 velocity=119 time=0.018656666666666665
EXTRACT: note_on channel=2 note=58 velocity=98 time=0
EXTRACT: note_on channel=2 note=62 velocity=107 time=0
EXTRACT: note_on channel=2 note=65 velocity=113 time=0
EXTRACT: note_on channel=5 note=46 velocity=95 time=0
EXTRACT: note_on channel=5 note=50 velocity=91 time=0
EXTRACT: note_on channel=5 note=53 velocity=87 time=0
EXTRACT: note_on channel=9 note=38 velocity=127 time=0
EXTRACT: note_on channel=9 note=42 velocity=60 time=0
EXTRACT: note_on channel=15 note=69 velocity=119 time=0
EXTRACT: note_off channel=9 note=42 velocity=60 time=0.004664166666666666
EXTRACT: note_off channel=9 note=38 velocity=127 time=0
EXTRACT: note_off channel=2 note=65 velocity=113 time=0.09328333333333333
EXTRACT: note_off channel=2 note=62 velocity=107 time=0
EXTRACT: note_off channel=2 note=58 velocity=98 time=0
EXTRACT: note_off channel=5 note=53 velocity=87 time=0
EXTRACT: note_off channel=5 note=50 velocity=91 time=0
EXTRACT: note_off channel=5 note=46 velocity=95 time=0
EXTRACT: note_off channel=1 note=34 velocity=119 time=0.10727583333333332
EXTRACT: note_on channel=2 note=58 velocity=108 time=0.018656666666666665
EXTRACT: note_on channel=2 note=62 velocity=110 time=0
EXTRACT: note_on channel=2 note=65 velocity=113 time=0
EXTRACT: note_on channel=5 note=46 velocity=100 time=0
EXTRACT: note_on channel=5 note=50 velocity=88 time=0
EXTRACT: note_on channel=5 note=53 velocity=93 time=0
EXTRACT: note_on channel=9 note=42 velocity=59 time=0
EXTRACT: note_off channel=9 note=42 velocity=59 time=0.004664166666666666
EXTRACT: note_off channel=2 note=65 velocity=113 time=0.09328333333333333
EXTRACT: note_off channel=2 note=62 velocity=110 time=0
EXTRACT: note_off channel=2 note=58 velocity=108 time=0
EXTRACT: note_off channel=5 note=53 velocity=93 time=0
EXTRACT: note_off channel=5 note=50 velocity=88 time=0
EXTRACT: note_off channel=5 note=46 velocity=100 time=0
EXTRACT: note_off channel=15 note=69 velocity=119 time=0.10727583333333332
EXTRACT: note_on channel=1 note=29 velocity=111 time=0.018656666666666665
EXTRACT: note_on channel=9 note=36 velocity=127 time=0
EXTRACT: note_on channel=9 note=42 velocity=74 time=0
EXTRACT: note_on channel=15 note=67 velocity=119 time=0
EXTRACT: note_off channel=9 note=42 velocity=74 time=0.004664166666666666
EXTRACT: note_off channel=9 note=36 velocity=127 time=0
EXTRACT: note_off channel=1 note=29 velocity=111 time=0.20055916666666665
EXTRACT: note_on channel=1 note=34 velocity=113 time=0.018656666666666665
EXTRACT: note_on channel=9 note=42 velocity=58 time=0
EXTRACT: note_off channel=9 note=42 velocity=58 time=0.004664166666666666
EXTRACT: note_off channel=1 note=34 velocity=113 time=0.08861916666666667
EXTRACT: note_off channel=15 note=67 velocity=119 time=0.11193999999999998
EXTRACT: note_on channel=2 note=58 velocity=105 time=0.018656666666666665
EXTRACT: note_on channel=2 note=62 velocity=114 time=0
EXTRACT: note_on channel=2 note=65 velocity=103 time=0
EXTRACT: note_on channel=5 note=46 velocity=99 time=0
EXTRACT: note_on channel=5 note=50 velocity=89 time=0
EXTRACT: note_on channel=5 note=53 velocity=98 time=0
EXTRACT: note_on channel=9 note=38 velocity=122 time=0
EXTRACT: note_on channel=9 note=42 velocity=71 time=0
EXTRACT: note_on channel=15 note=65 velocity=118 time=0
EXTRACT: note_off channel=9 note=42 velocity=71 time=0.004664166666666666
EXTRACT: note_off channel=9 note=38 velocity=122 time=0
EXTRACT: note_off channel=2 note=65 velocity=103 time=0.09328333333333333
EXTRACT: note_off channel=2 note=62 velocity=114 time=0
EXTRACT: note_off channel=2 note=58 velocity=105 time=0
EXTRACT: note_off channel=5 note=53 velocity=98 time=0
EXTRACT: note_off channel=5 note=50 velocity=89 time=0
EXTRACT: note_off channel=5 note=46 velocity=99 time=0
EXTRACT: note_off channel=15 note=65 velocity=118 time=0.10727583333333332
EXTRACT: note_on channel=1 note=28 velocity=107 time=0.018656666666666665
EXTRACT: note_on channel=2 note=58 velocity=111 time=0
EXTRACT: note_on channel=2 note=62 velocity=102 time=0
EXTRACT: note_on channel=2 note=65 velocity=100 time=0
EXTRACT: note_on channel=5 note=46 velocity=92 time=0
EXTRACT: note_on channel=5 note=50 velocity=105 time=0
EXTRACT: note_on channel=5 note=53 velocity=102 time=0
EXTRACT: note_on channel=9 note=42 velocity=62 time=0
EXTRACT: note_on channel=15 note=67 velocity=116 time=0
EXTRACT: note_off channel=9 note=42 velocity=62 time=0.004664166666666666
EXTRACT: note_off channel=2 note=65 velocity=100 time=0.09328333333333333
EXTRACT: note_off channel=2 note=62 velocity=102 time=0
EXTRACT: note_off channel=2 note=58 velocity=111 time=0
EXTRACT: note_off channel=5 note=53 velocity=102 time=0
EXTRACT: note_off channel=5 note=50 velocity=105 time=0
EXTRACT: note_off channel=5 note=46 velocity=92 time=0
EXTRACT: note_off channel=1 note=28 velocity=107 time=0.10727583333333332
EXTRACT: note_on channel=1 note=33 velocity=109 time=0.018656666666666665
EXTRACT: note_on channel=9 note=36 velocity=126 time=0
EXTRACT: note_on channel=9 note=42 velocity=58 time=0
EXTRACT: note_off channel=9 note=42 velocity=58 time=0.004664166666666666
EXTRACT: note_off channel=9 note=36 velocity=126 time=0
EXTRACT: note_off channel=1 note=33 velocity=109 time=0.20055916666666665
EXTRACT: note_off channel=15 note=67 velocity=116 time=0
EXTRACT: note_on channel=9 note=42 velocity=60 time=0.018656666666666665
EXTRACT: note_on channel=15 note=62 velocity=118 time=0
EXTRACT: note_off channel=9 note=42 velocity=60 time=0.004664166666666666
EXTRACT: note_off channel=15 note=62 velocity=118 time=0.20055916666666665
EXTRACT: note_on channel=1 note=33 velocity=108 time=0.018656666666666665
EXTRACT: note_on channel=2 note=57 velocity=103 time=0
EXTRACT: note_on channel=2 note=60 velocity=97 time=0
EXTRACT: note_on channel=2 note=64 velocity=101 time=0
EXTRACT: note_on channel=5 note=45 velocity=103 time=0
EXTRACT: note_on channel=5 note=48 velocity=93 time=0
EXTRACT: note_on channel=5 note=52 velocity=86 time=0
EXTRACT: note_on channel=9 note=38 velocity=124 time=0
EXTRACT: note_on channel=9 note=42 velocity=61 time=0
EXTRACT: note_on channel=12 note=69 velocity=116 time=0
EXTRACT: note_on channel=15 note=64 velocity=125 time=0
EXTRACT: note_off channel=9 note=42 velocity=61 time=0.004664166666666666
EXTRACT: note_off channel=9 note=38 velocity=124 time=0
EXTRACT: note_off channel=2 note=64 velocity=101 time=0.09328333333333333
EXTRACT: note_off channel=2 note=60 velocity=97 time=0
EXTRACT: note_off channel=2 note=57 velocity=103 time=0
EXTRACT: note_off channel=5 note=52 velocity=86 time=0
EXTRACT: note_off channel=5 note=48 velocity=93 time=0
EXTRACT: note_off channel=5 note=45 velocity=103 time=0
EXTRACT: note_off channel=1 note=33 velocity=108 time=0.10727583333333332
EXTRACT: note_off channel=12 note=69 velocity=116 time=0
EXTRACT: note_off channel=15 note=64 velocity=125 time=0
EXTRACT: note_on channel=2 note=57 velocity=111 time=0.018656666666666665
EXTRACT: note_on channel=2 note=60 velocity=110 time=0
EXTRACT: note_on channel=2 note=64 velocity=111 time=0
EXTRACT: note_on channel=5 note=45 velocity=103 time=0
EXTRACT: note_on channel=5 note=48 velocity=90 time=0
EXTRACT: note_on channel=5 note=52 velocity=101 time=0
EXTRACT: note_on channel=9 note=42 velocity=75 time=0
EXTRACT: note_on channel=12 note=64 velocity=111 time=0
EXTRACT: note_off channel=9 note=42 velocity=75 time=0.004664166666666666
EXTRACT: note_off channel=2 note=64 velocity=111 time=0.09328333333333333
EXTRACT: note_off channel=2 note=60 velocity=110 time=0
EXTRACT: note_off channel=2 note=57 velocity=111 time=0
EXTRACT: note_off channel=5 note=52 velocity=101 time=0
EXTRACT: note_off channel=5 note=48 velocity=90 time=0
EXTRACT: note_off channel=5 note=45 velocity=103 time=0
EXTRACT: note_off channel=12 note=64 velocity=111 time=0.10727583333333332
EXTRACT: note_on channel=1 note=28 velocity=118 time=0.018656666666666665
EXTRACT: note_on channel=9 note=36 velocity=127 time=0
EXTRACT: note_on channel=9 note=42 velocity=65 time=0
EXTRACT: note_off channel=9 note=42 velocity=65 time=0.004664166666666666
EXTRACT: note_off channel=9 note=36 velocity=127 time=0
EXTRACT: note_off channel=1 note=28 velocity=118 time=0.20055916666666665
EXTRACT: note_on channel=1 note=33 velocity=111 time=0.018656666666666665
EXTRACT: note_on channel=9 note=42 velocity=69 time=0
EXTRACT: note_off channel=9 note=42 velocity=69 time=0.004664166666666666
EXTRACT: note_off channel=1 note=33 velocity=111 time=0.08861916666666667
EXTRACT: note_on channel=2 note=57 velocity=105 time=0.13059666666666667
EXTRACT: note_on channel=2 note=60 velocity=101 time=0
EXTRACT: note_on channel=2 note=64 velocity=110 time=0
EXTRACT: note_on channel=5 note=45 velocity=92 time=0
EXTRACT: note_on channel=5 note=48 velocity=94 time=0
EXTRACT: note_on channel=5 note=52 velocity=97 time=0
EXTRACT: note_on channel=9 note=38 velocity=113 time=0
EXTRACT: note_on channel=9 note=42 velocity=73 time=0
EXTRACT: note_on channel=12 note=69 velocity=98 time=0
EXTRACT: note_off channel=9 note=42 velocity=73 time=0.004664166666666666
EXTRACT: note_off channel=9 note=38 velocity=113 time=0
EXTRACT: note_off channel=2 note=64 velocity=110 time=0.09328333333333333
EXTRACT: note_off channel=2 note=60 velocity=101 time=0
EXTRACT: note_off channel=2 note=57 velocity=105 time=0
EXTRACT: note_off channel=5 note=52 velocity=97 time=0
EXTRACT: note_off channel=5 note=48 velocity=94 time=0
EXTRACT: note_off channel=5 note=45 velocity=92 time=0
EXTRACT: note_off channel=12 note=69 velocity=98 time=0.10727583333333332
EXTRACT: note_on channel=1 note=31 velocity=121 time=0.018656666666666665
EXTRACT: note_on channel=2 note=57 velocity=103 time=0
EXTRACT: note_on channel=2 note=60 velocity=104 time=0
EXTRACT: note_on channel=2 note=64 velocity=113 time=0
EXTRACT: note_on channel=5 note=45 velocity=90 time=0
EXTRACT: note_on channel=5 note=48 velocity=89 time=0
EXTRACT: note_on channel=5 note=52 velocity=98 time=0
EXTRACT: note_on channel=9 note=42 velocity=75 time=0
EXTRACT: note_on channel=12 note=64 velocity=93 time=0
EXTRACT: note_off channel=9 note=42 velocity=75 time=0.004664166666666666
EXTRACT: note_off channel=2 note=64 velocity=113 time=0.09328333333333333
EXTRACT: note_off channel=2 note=60 velocity=104 time=0
EXTRACT: note_off channel=2 note=57 velocity=103 time=0
EXTRACT: note_off channel=5 note=52 velocity=98 time=0
EXTRACT: note_off channel=5 note=48 velocity=89 time=0
EXTRACT: note_off channel=5 note=45 velocity=90 time=0
EXTRACT: note_off channel=1 note=31 velocity=121 time=0.10727583333333332
EXTRACT: note_off channel=12 note=64 velocity=93 time=0
EXTRACT: note_on channel=1 note=36 velocity=125 time=0.018656666666666665
EXTRACT: note_on channel=9 note=36 velocity=123 time=0
EXTRACT: note_on channel=9 note=49 velocity=116 time=0
EXTRACT: note_on channel=15 note=64 velocity=115 time=0
EXTRACT: note_off channel=9 note=49 velocity=116 time=0.004664166666666666
EXTRACT: note_off channel=9 note=36 velocity=123 time=0
EXTRACT: note_off channel=1 note=36 velocity=125 time=0.20055916666666665
EXTRACT: note_off channel=15 note=64 velocity=115 time=0
EXTRACT: note_on channel=9 note=42 velocity=76 time=0.018656666666666665
EXTRACT: note_on channel=15 note=65 velocity=126 time=0
EXTRACT: note_off channel=9 note=42 velocity=76 time=0.004664166666666666
EXTRACT: note_on channel=1 note=36 velocity=120 time=0.2192158333333333
EXTRACT: note_on channel=2 note=60 velocity=109 time=0
EXTRACT: note_on channel=2 note=65 velocity=103 time=0
EXTRACT: note_on channel=2 note=67 velocity=112 time=0
EXTRACT: note_on channel=5 note=48 velocity=97 time=0
EXTRACT: note_on channel=5 note=53 velocity=86 time=0
EXTRACT: note_on channel=5 note=55 velocity=89 time=0
EXTRACT: note_on channel=9 note=38 velocity=126 time=0
EXTRACT: note_on channel=9 note=42 velocity=61 time=0
EXTRACT: note_on channel=12 note=69 velocity=80 time=0
EXTRACT: note_off channel=9 note=42 velocity=61 time=0.004664166666666666
EXTRACT: note_off channel=9 note=38 velocity=126 time=0
EXTRACT: note_off channel=2 note=67 velocity=112 time=0.09328333333333333
EXTRACT: note_off channel=2 note=65 velocity=103 time=0
EXTRACT: note_off channel=2 note=60 velocity=109 time=0
EXTRACT: note_off channel=5 note=55 velocity=89 time=0
EXTRACT: note_off channel=5 note=53 velocity=86 time=0
EXTRACT: note_off channel=5 note=48 velocity=97 time=0
EXTRACT: note_off channel=1 note=36 velocity=120 time=0.10727583333333332
EXTRACT: note_off channel=12 note=69 velocity=80 time=0
EXTRACT: note_off channel=15 note=65 velocity=126 time=0
EXTRACT: note_on channel=2 note=60 velocity=111 time=0.018656666666666665
EXTRACT: note_on channel=2 note=65 velocity=111 time=0
EXTRACT: note_on channel=2 note=67 velocity=96 time=0
EXTRACT: note_on channel=5 note=48 velocity=97 time=0
EXTRACT: note_on channel=5 note=53 velocity=87 time=0
EXTRACT: note_on channel=5 note=55 velocity=88 time=0
EXTRACT: note_on channel=9 note=42 velocity=60 time=0
EXTRACT: note_on channel=12 note=64 velocity=75 time=0
EXTRACT: note_on channel=15 note=64 velocity=115 time=0
EXTRACT: note_off channel=9 note=42 velocity=60 time=0.004664166666666666
EXTRACT: note_off channel=2 note=67 velocity=96 time=0.09328333333333333
EXTRACT: note_off channel=2 note=65 velocity=111 time=0
EXTRACT: note_off channel=2 note=60 velocity=111 time=0
EXTRACT: note_off channel=5 note=55 velocity=88 time=0
EXTRACT: note_off channel=5 note=53 velocity=87 time=0
EXTRACT: note_off channel=5 note=48 velocity=97 time=0
EXTRACT: note_off channel=12 note=64 velocity=75 time=0.10727583333333332
EXTRACT: note_on channel=1 note=31 velocity=114 time=0.018656666666666665
EXTRACT: note_on channel=9 note=36 velocity=127 time=0
EXTRACT: note_on channel=9 note=42 velocity=74 time=0
EXTRACT: note_off channel=9 note=42 velocity=74 time=0.004664166666666666
EXTRACT: note_off channel=9 note=36 velocity=127 time=0
EXTRACT: note_off channel=1 note=31 velocity=114 time=0.20055916666666665
EXTRACT: note_off channel=15 note=64 velocity=115 time=0
EXTRACT: note_on channel=1 note=36 velocity=107 time=0.018656666666666665
EXTRACT: note_on channel=9 note=42 velocity=60 time=0
EXTRACT: note_on channel=15 note=65 velocity=109 time=0
EXTRACT: note_off channel=9 note=42 velocity=60 time=0.004664166666666666
EXTRACT: note_off channel=1 note=36 velocity=107 time=0.08861916666666667
EXTRACT: note_on channel=2 note=60 velocity=103 time=0.13059666666666667
EXTRACT: note_on channel=2 note=65 velocity=107 time=0
EXTRACT: note_on channel=2 note=67 velocity=103 time=0
EXTRACT: note_on channel=5 note=48 velocity=86 time=0
EXTRACT: note_on channel=5 note=53 velocity=89 time=0
EXTRACT: note_on channel=5 note=55 velocity=100 time=0
EXTRACT: note_on channel=9 note=38 velocity=122 time=0
EXTRACT: note_on channel=9 note=42 velocity=64 time=0
EXTRACT: note_off channel=9 note=42 velocity=64 time=0.004664166666666666
EXTRACT: note_off channel=9 note=38 velocity=122 time=0
EXTRACT: note_off channel=2 note=67 velocity=103 time=0.09328333333333333
EXTRACT: note_off channel=2 note=65 velocity=107 time=0
EXTRACT: note_off channel=2 note=60 velocity=103 time=0
EXTRACT: note_off channel=5 note=55 velocity=100 time=0
EXTRACT: note_off channel=5 note=53 velocity=89 time=0
EXTRACT: note_off channel=5 note=48 velocity=86 time=0
EXTRACT: note_off channel=15 note=65 velocity=109 time=0.10727583333333332
EXTRACT: note_on channel=1 note=31 velocity=119 time=0.018656666666666665
EXTRACT: note_on channel=2 note=60 velocity=105 time=0
EXTRACT: note_on channel=2 note=65 velocity=114 time=0
EXTRACT: note_on channel=2 note=67 velocity=107 time=0
EXTRACT: note_on channel=5 note=48 velocity=88 time=0
EXTRACT: note_on channel=5 note=53 velocity=86 time=0
EXTRACT: note_on channel=5 note=55 velocity=88 time=0
EXTRACT: note_on channel=9 note=42 velocity=67 time=0
EXTRACT: note_on channel=15 note=67 velocity=122 time=0
EXTRACT: note_off channel=9 note=42 velocity=67 time=0.004664166666666666
EXTRACT: note_off channel=2 note=67 velocity=107 time=0.09328333333333333
EXTRACT: note_off channel=2 note=65 velocity=114 time=0
EXTRACT: note_off channel=2 note=60 velocity=105 time=0
EXTRACT: note_off channel=5 note=55 velocity=88 time=0
EXTRACT: note_off channel=5 note=53 velocity=86 time=0
EXTRACT: note_off channel=5 note=48 velocity=88 time=0
EXTRACT: note_off channel=1 note=31 velocity=119 time=0.10727583333333332
EXTRACT: note_on channel=1 note=36 velocity=112 time=0.018656666666666665
EXTRACT: note_on channel=9 note=36 velocity=127 time=0
EXTRACT: note_on channel=9 note=42 velocity=74 time=0
EXTRACT: note_off channel=9 note=42 velocity=74 time=0.004664166666666666
EXTRACT: note_off channel=9 note=36 velocity=127 time=0
EXTRACT: note_off channel=1 note=36 velocity=112 time=0.20055916666666665
EXTRACT: note_off channel=15 note=67 velocity=122 time=0
EXTRACT: note_on channel=9 note=42 velocity=77 time=0.018656666666666665
EXTRACT: note_on channel=15 note=69 velocity=126 time=0
EXTRACT: note_off channel=9 note=42 velocity=77 time=0.004664166666666666
EXTRACT: note_on channel=1 note=36 velocity=118 time=0.2192158333333333
EXTRACT: note_on channel=2 note=60 velocity=111 time=0
EXTRACT: note_on channel=2 note=64 velocity=95 time=0
EXTRACT: note_on channel=2 note=67 velocity=109 time=0
EXTRACT: note_on channel=5 note=48 velocity=91 time=0
EXTRACT: note_on channel=5 note=52 velocity=91 time=0
EXTRACT: note_on channel=5 note=55 velocity=92 time=0
EXTRACT: note_on channel=9 note=38 velocity=118 time=0
EXTRACT: note_on channel=9 note=42 velocity=63 time=0
EXTRACT: note_off channel=9 note=42 velocity=63 time=0.004664166666666666
EXTRACT: note_off channel=9 note=38 velocity=118 time=0
EXTRACT: note_off channel=2 note=67 velocity=109 time=0.09328333333333333
EXTRACT: note_off channel=2 note=64 velocity=95 time=0
EXTRACT: note_off channel=2 note=60 velocity=111 time=0
EXTRACT: note_off channel=5 note=55 velocity=92 time=0
EXTRACT: note_off channel=5 note=52 velocity=91 time=0
EXTRACT: note_off channel=5 note=48 velocity=91 time=0
EXTRACT: note_off channel=1 note=36 velocity=118 time=0.10727583333333332
EXTRACT: note_off channel=15 note=69 velocity=126 time=0
EXTRACT: note_on channel=2 note=60 velocity=110 time=0.018656666666666665
EXTRACT: note_on channel=2 note=64 velocity=103 time=0
EXTRACT: note_on channel=2 note=67 velocity=106 time=0
EXTRACT: note_on channel=5 note=48 velocity=91 time=0
EXTRACT: note_on channel=5 note=52 velocity=93 time=0
EXTRACT: note_on channel=5 note=55 velocity=104 time=0
EXTRACT: note_on channel=9 note=42 velocity=75 time=0
EXTRACT: note_on channel=15 note=67 velocity=110 time=0
EXTRACT: note_off channel=9 note=42 velocity=75 time=0.004664166666666666
EXTRACT: note_off channel=2 note=67 velocity=106 time=0.09328333333333333
EXTRACT: note_off channel=2 note=64 velocity=103 time=0
EXTRACT: note_off channel=2 note=60 velocity=110 time=0
EXTRACT: note_off channel=5 note=55 velocity=104 time=0
EXTRACT: note_off channel=5 note=52 velocity=93 time=0
EXTRACT: note_off channel=5 note=48 velocity=91 time=0
EXTRACT: note_on channel=1 note=31 velocity=114 time=0.1259325
EXTRACT: note_on channel=9 note=36 velocity=127 time=0
EXTRACT: note_on channel=9 note=42 velocity=64 time=0
EXTRACT: note_off channel=9 note=42 velocity=64 time=0.004664166666666666
EXTRACT: note_off channel=9 note=36 velocity=127 time=0
EXTRACT: note_off channel=1 note=31 velocity=114 time=0.20055916666666665
EXTRACT: note_off channel=15 note=67 velocity=110 time=0
EXTRACT: note_on channel=1 note=36 velocity=108 time=0.018656666666666665
EXTRACT: note_on channel=9 note=42 velocity=62 time=0
EXTRACT: note_on channel=15 note=69 velocity=113 time=0
EXTRACT: note_off channel=9 note=42 velocity=62 time=0.004664166666666666
EXTRACT: note_off channel=1 note=36 velocity=108 time=0.08861916666666667
EXTRACT: note_on channel=2 note=60 velocity=95 time=0.13059666666666667
EXTRACT: note_on channel=2 note=64 velocity=97 time=0
EXTRACT: note_on channel=2 note=67 velocity=100 time=0
EXTRACT: note_on channel=5 note=48 velocity=91 time=0
EXTRACT: note_on channel=5 note=52 velocity=94 time=0
EXTRACT: note_on channel=5 note=55 velocity=98 time=0
EXTRACT: note_on channel=9 note=38 velocity=125 time=0
EXTRACT: note_on channel=9 note=42 velocity=69 time=0
EXTRACT: note_off channel=9 note=42 velocity=69 time=0.004664166666666666
EXTRACT: note_off channel=9 note=38 velocity=125 time=0
EXTRACT: note_off channel=2 note=67 velocity=100 time=0.09328333333333333
EXTRACT: note_off channel=2 note=64 velocity=97 time=0
EXTRACT: note_off channel=2 note=60 velocity=95 time=0
EXTRACT: note_off channel=5 note=55 velocity=98 time=0
EXTRACT: note_off channel=5 note=52 velocity=94 time=0
EXTRACT: note_off channel=5 note=48 velocity=91 time=0
EXTRACT: note_off channel=15 note=69 velocity=113 time=0.10727583333333332
EXTRACT: note_on channel=1 note=36 velocity=116 time=0.018656666666666665
EXTRACT: note_on channel=2 note=60 velocity=106 time=0
EXTRACT: note_on channel=2 note=64 velocity=97 time=0
EXTRACT: note_on channel=2 note=67 velocity=104 time=0
EXTRACT: note_on channel=5 note=48 velocity=90 time=0
EXTRACT: note_on channel=5 note=52 velocity=87 time=0
EXTRACT: note_on channel=5 note=55 velocity=86 time=0
EXTRACT: note_on channel=9 note=42 velocity=66 time=0
EXTRACT: note_on channel=14 note=69 velocity=102 time=0
EXTRACT: note_on channel=14 note=72 velocity=112 time=0
EXTRACT: note_on channel=15 note=64 velocity=122 time=0
EXTRACT: note_off channel=9 note=42 velocity=66 time=0.004664166666666666
EXTRACT: note_off channel=2 note=67 velocity=104 time=0.09328333333333333
EXTRACT: note_off channel=2 note=64 velocity=97 time=0
EXTRACT: note_off channel=2 note=60 velocity=106 time=0
EXTRACT: note_off channel=5 note=55 velocity=86 time=0
EXTRACT: note_off channel=5 note=52 velocity=87 time=0
EXTRACT: note_off channel=5 note=48 velocity=90 time=0
EXTRACT: note_off channel=1 note=36 velocity=116 time=0.10727583333333332
EXTRACT: note_on channel=1 note=38 velocity=116 time=0.018656666666666665
EXTRACT: note_on channel=9 note=36 velocity=127 time=0
EXTRACT: note_on channel=9 note=42 velocity=71 time=0
EXTRACT: note_off channel=9 note=42 velocity=71 time=0.004664166666666666
EXTRACT: note_off channel=9 note=36 velocity=127 time=0
EXTRACT: note_off channel=1 note=38 velocity=116 time=0.20055916666666665
EXTRACT: note_off channel=14 note=72 velocity=112 time=0
EXTRACT: note_off channel=14 note=69 velocity=102 time=0
EXTRACT: note_off channel=15 note=64 velocity=122 time=0
EXTRACT: note_on channel=9 note=42 velocity=72 time=0.018656666666666665
EXTRACT: note_on channel=14 note=69 velocity=104 time=0
EXTRACT: note_on channel=14 note=72 velocity=114 time=0
EXTRACT: note_on channel=15 note=65 velocity=114 time=0
EXTRACT: note_off channel=9 note=42 velocity=72 time=0.004664166666666666
EXTRACT: note_on channel=1 note=38 velocity=118 time=0.2192158333333333
EXTRACT: note_on channel=2 note=62 velocity=112 time=0
EXTRACT: note_on channel=2 note=65 velocity=96 time=0
EXTRACT: note_on channel=5 note=50 velocity=105 time=0
EXTRACT: note_on channel=5 note=53 velocity=92 time=0
EXTRACT: note_on channel=9 note=38 velocity=113 time=0
EXTRACT: note_on channel=9 note=42 velocity=73 time=0
EXTRACT: note_off channel=9 note=42 velocity=73 time=0.004664166666666666
EXTRACT: note_off channel=9 note=38 velocity=113 time=0
EXTRACT: note_off channel=2 note=65 velocity=96 time=0.09328333333333333
EXTRACT: note_off channel=2 note=62 velocity=112 time=0
EXTRACT: note_off channel=5 note=53 velocity=92 time=0
EXTRACT: note_off channel=5 note=50 velocity=105 time=0
EXTRACT: note_off channel=1 note=38 velocity=118 time=0.10727583333333332
EXTRACT: note_off channel=14 note=72 velocity=114 time=0
EXTRACT: note_off channel=14 note=69 velocity=104 time=0
EXTRACT: note_off channel=15 note=65 velocity=114 time=0
EXTRACT: note_on channel=2 note=62 velocity=101 time=0.018656666666666665
EXTRACT: note_on channel=2 note=65 velocity=103 time=0
EXTRACT: note_on channel=5 note=50 velocity=86 time=0
EXTRACT: note_on channel=5 note=53 velocity=90 time=0
EXTRACT: note_on channel=9 note=42 velocity=60 time=0
EXTRACT: note_on channel=14 note=69 velocity=120 time=0
EXTRACT: note_on channel=14 note=72 velocity=113 time=0
EXTRACT: note_on channel=15 note=64 velocity=114 time=0
EXTRACT: note_off channel=9 note=42 velocity=60 time=0.004664166666666666
EXTRACT: note_off channel=2 note=65 velocity=103 time=0.09328333333333333
EXTRACT: note_off channel=2 note=62 velocity=101 time=0
EXTRACT: note_off channel=5 note=53 velocity=90 time=0
EXTRACT: note_off channel=5 note=50 velocity=86 time=0
EXTRACT: note_on channel=1 note=31 velocity=121 time=0.1259325
EXTRACT: note_on channel=9 note=36 velocity=127 time=0
EXTRACT: note_on channel=9 note=42 velocity=71 time=0
EXTRACT: note_off channel=9 note=42 velocity=71 time=0.004664166666666666
EXTRACT: note_off channel=9 note=36 velocity=127 time=0
EXTRACT: note_off channel=1 note=31 velocity=121 time=0.20055916666666665
EXTRACT: note_off channel=14 note=72 velocity=113 time=0
EXTRACT: note_off channel=14 note=69 velocity=120 time=0
EXTRACT: note_off channel=15 note=64 velocity=114 time=0
EXTRACT: note_on channel=1 note=43 velocity=107 time=0.018656666666666665
EXTRACT: note_on channel=9 note=42 velocity=63 time=0
EXTRACT: note_on channel=14 note=69 velocity=114 time=0
EXTRACT: note_on channel=14 note=72 velocity=102 time=0
EXTRACT: note_on channel=15 note=65 velocity=117 time=0
EXTRACT: note_off channel=9 note=42 velocity=63 time=0.004664166666666666
EXTRACT: note_off channel=1 note=43 velocity=107 time=0.08861916666666667
EXTRACT: note_on channel=2 note=62 velocity=114 time=0.13059666666666667
EXTRACT: note_on channel=2 note=65 velocity=111 time=0
EXTRACT: note_on channel=5 note=50 velocity=105 time=0
EXTRACT: note_on channel=5 note=53 velocity=102 time=0
EXTRACT: note_on channel=9 note=38 velocity=127 time=0
EXTRACT: note_on channel=9 note=42 velocity=67 time=0
EXTRACT: note_off channel=9 note=42 velocity=67 time=0.004664166666666666
EXTRACT: note_off channel=9 note=38 velocity=127 time=0
EXTRACT: note_off channel=2 note=65 velocity=111 time=0.09328333333333333
EXTRACT: note_off channel=2 note=62 velocity=114 time=0
EXTRACT: note_off channel=5 note=53 velocity=102 time=0
EXTRACT: note_off channel=5 note=50 velocity=105 time=0
EXTRACT: note_off channel=14 note=72 velocity=102 time=0.10727583333333332
EXTRACT: note_off channel=14 note=69 velocity=114 time=0
EXTRACT: note_off channel=15 note=65 velocity=117 time=0
EXTRACT: note_on channel=1 note=31 velocity=113 time=0.018656666666666665
EXTRACT: note_on channel=2 note=62 velocity=99 time=0
EXTRACT: note_on channel=2 note=65 velocity=103 time=0
EXTRACT: note_on channel=5 note=50 velocity=88 time=0
EXTRACT: note_on channel=5 note=53 velocity=89 time=0
EXTRACT: note_on channel=9 note=42 velocity=69 time=0
EXTRACT: note_on channel=14 note=67 velocity=112 time=0
EXTRACT: note_on channel=14 note=72 velocity=109 time=0
EXTRACT: note_on channel=15 note=64 velocity=109 time=0
EXTRACT: note_off channel=9 note=42 velocity=69 time=0.004664166666666666
EXTRACT: note_off channel=2 note=65 velocity=103 time=0.09328333333333333
EXTRACT: note_off channel=2 note=62 velocity=99 time=0
EXTRACT: note_off channel=5 note=53 velocity=89 time=0
EXTRACT: note_off channel=5 note=50 velocity=88 time=0
EXTRACT: note_off channel=1 note=31 velocity=113 time=0.10727583333333332
EXTRACT: note_on channel=1 note=36 velocity=112 time=0.018656666666666665
EXTRACT: note_on channel=9 note=36 velocity=127 time=0
EXTRACT: note_on channel=9 note=38 velocity=113 time=0
EXTRACT: note_on channel=9 note=42 velocity=65 time=0
EXTRACT: note_off channel=9 note=42 velocity=65 time=0.004664166666666666
EXTRACT: note_off channel=9 note=38 velocity=113 time=0
EXTRACT: note_off channel=9 note=36 velocity=127 time=0
EXTRACT: note_on channel=9 note=38 velocity=121 time=0.10727583333333332
EXTRACT: note_off channel=9 note=38 velocity=121 time=0.004664166666666666
EXTRACT: note_off channel=1 note=36 velocity=112 time=0.08861916666666667
EXTRACT: note_off channel=14 note=72 velocity=109 time=0
EXTRACT: note_off channel=14 note=67 velocity=112 time=0
EXTRACT: note_off channel=15 note=64 velocity=109 time=0
EXTRACT: note_on channel=9 note=38 velocity=115 time=0.018656666666666665
EXTRACT: note_on channel=9 note=42 velocity=74 time=0
EXTRACT: note_on channel=14 note=64 velocity=106 time=0
EXTRACT: note_on channel=14 note=67 velocity=102 time=0
EXTRACT: note_on channel=15 note=60 velocity=124 time=0
EXTRACT: note_off channel=9 note=42 velocity=74 time=0.004664166666666666
EXTRACT: note_off channel=9 note=38 velocity=115 time=0
EXTRACT: note_off channel=14 note=67 velocity=102 time=0.20055916666666665
EXTRACT: note_off channel=14 note=64 velocity=106 time=0
EXTRACT: note_on channel=1 note=36 velocity=112 time=0.018656666666666665
EXTRACT: note_on channel=2 note=60 velocity=97 time=0
EXTRACT: note_on channel=2 note=64 velocity=95 time=0
EXTRACT: note_on channel=5 note=48 velocity=99 time=0
EXTRACT: note_on channel=5 note=52 velocity=103 time=0
EXTRACT: note_on channel=9 note=38 velocity=124 time=0
EXTRACT: note_on channel=9 note=42 velocity=73 time=0
EXTRACT: note_off channel=9 note=42 velocity=73 time=0.004664166666666666
EXTRACT: note_off channel=9 note=38 velocity=124 time=0
EXTRACT: note_off channel=2 note=64 velocity=95 time=0.09328333333333333
EXTRACT: note_off channel=2 note=60 velocity=97 time=0
EXTRACT: note_off channel=5 note=52 velocity=103 time=0
EXTRACT: note_off channel=5 note=48 velocity=99 time=0
EXTRACT: note_off channel=1 note=36 velocity=112 time=0.10727583333333332
EXTRACT: note_off channel=15 note=60 velocity=124 time=0
EXTRACT: note_on channel=2 note=60 velocity=108 time=0.018656666666666665
EXTRACT: note_on channel=2 note=64 velocity=101 time=0
EXTRACT: note_on channel=5 note=48 velocity=100 time=0
EXTRACT: note_on channel=5 note=52 velocity=91 time=0
EXTRACT: note_on channel=9 note=38 velocity=121 time=0
EXTRACT: note_on channel=9 note=42 velocity=63 time=0
EXTRACT: note_off channel=9 note=42 velocity=63 time=0.004664166666666666
EXTRACT: note_off channel=9 note=38 velocity=121 time=0
EXTRACT: note_off channel=2 note=64 velocity=101 time=0.09328333333333333
EXTRACT: note_off channel=2 note=60 velocity=108 time=0
EXTRACT: note_off channel=5 note=52 velocity=91 time=0
EXTRACT: note_off channel=5 note=48 velocity=100 time=0
EXTRACT: note_on channel=1 note=31 velocity=109 time=0.1259325
EXTRACT: note_on channel=9 note=36 velocity=122 time=0
EXTRACT: note_on channel=9 note=38 velocity=115 time=0
EXTRACT: note_on channel=9 note=42 velocity=65 time=0
EXTRACT: note_off channel=9 note=42 velocity=65 time=0.004664166666666666
EXTRACT: note_off channel=9 note=38 velocity=115 time=0
EXTRACT: note_off channel=9 note=36 velocity=122 time=0
EXTRACT: note_on channel=9 note=45 velocity=106 time=0.10727583333333332
EXTRACT: note_off channel=9 note=45 velocity=106 time=0.004664166666666666
EXTRACT: note_off channel=1 note=31 velocity=109 time=0.08861916666666667
EXTRACT: note_on channel=1 note=36 velocity=124 time=0.018656666666666665
EXTRACT: note_on channel=9 note=41 velocity=106 time=0
EXTRACT: note_on channel=9 note=42 velocity=72 time=0
EXTRACT: note_on channel=15 note=60 velocity=109 time=0
EXTRACT: note_off channel=9 note=42 velocity=72 time=0.004664166666666666
EXTRACT: note_off channel=9 note=41 velocity=106 time=0
EXTRACT: note_off channel=1 note=36 velocity=124 time=0.08861916666666667
EXTRACT: note_on channel=9 note=36 velocity=125 time=0.018656666666666665
EXTRACT: note_off channel=9 note=36 velocity=125 time=0.004664166666666666
EXTRACT: note_off channel=15 note=60 velocity=109 time=0.08861916666666667
EXTRACT: note_on channel=2 note=60 velocity=110 time=0.018656666666666665
EXTRACT: note_on channel=2 note=64 velocity=96 time=0
EXTRACT: note_on channel=5 note=48 velocity=98 time=0
EXTRACT: note_on channel=5 note=52 velocity=102 time=0
EXTRACT: note_on channel=9 note=38 velocity=127 time=0
EXTRACT: note_on channel=9 note=42 velocity=66 time=0
EXTRACT: note_on channel=15 note=60 velocity=123 time=0
EXTRACT: note_off channel=9 note=42 velocity=66 time=0.004664166666666666
EXTRACT: note_off channel=9 note=38 velocity=127 time=0
EXTRACT: note_off channel=2 note=64 velocity=96 time=0.09328333333333333
EXTRACT: note_off channel=2 note=60 velocity=110 time=0
EXTRACT: note_off channel=5 note=52 velocity=102 time=0
EXTRACT: note_off channel=5 note=48 velocity=98 time=0
EXTRACT: note_off channel=15 note=60 velocity=123 time=0.10727583333333332
EXTRACT: note_on channel=1 note=28 velocity=114 time=0.018656666666666665
EXTRACT: note_on channel=2 note=60 velocity=98 time=0
EXTRACT: note_on channel=2 note=64 velocity=108 time=0
EXTRACT: note_on channel=5 note=48 velocity=90 time=0
EXTRACT: note_on channel=5 note=52 velocity=86 time=0
EXTRACT: note_on channel=9 note=42 velocity=59 time=0
EXTRACT: note_on channel=15 note=60 velocity=122 time=0
EXTRACT: note_off channel=9 note=42 velocity=59 time=0.004664166666666666
EXTRACT: note_off channel=2 note=64 velocity=108 time=0.09328333333333333
EXTRACT: note_off channel=2 note=60 velocity=98 time=0
EXTRACT: note_off channel=5 note=52 velocity=86 time=0
EXTRACT: note_off channel=5 note=48 velocity=90 time=0
EXTRACT: note_off channel=1 note=28 velocity=114 time=0.10727583333333332
EXTRACT: note_off channel=15 note=60 velocity=122 time=0
EXTRACT: note_on channel=1 note=29 velocity=117 time=0.018656666666666665
EXTRACT: note_on channel=6 note=65 velocity=74 time=0
EXTRACT: note_on channel=9 note=36 velocity=120 time=0
EXTRACT: note_on channel=9 note=49 velocity=120 time=0
EXTRACT: note_on channel=14 note=65 velocity=106 time=0
EXTRACT: note_on channel=14 note=69 velocity=113 time=0
EXTRACT: note_on channel=15 note=60 velocity=119 time=0
EXTRACT: note_off channel=9 note=49 velocity=120 time=0.004664166666666666
EXTRACT: note_off channel=9 note=36 velocity=120 time=0
EXTRACT: note_off channel=1 note=29 velocity=117 time=0.20055916666666665
EXTRACT: note_off channel=6 note=65 velocity=74 time=0.004664166666666666
EXTRACT: note_on channel=6 note=69 velocity=76 time=0.013992499999999998
EXTRACT: note_on channel=9 note=42 velocity=66 time=0
EXTRACT: note_off channel=9 note=42 velocity=66 time=0.004664166666666666
EXTRACT: note_off channel=6 note=69 velocity=76 time=0.2052233333333333
EXTRACT: note_on channel=1 note=29 velocity=121 time=0.013992499999999998
EXTRACT: note_on channel=6 note=72 velocity=84 time=0
EXTRACT: note_on channel=9 note=38 velocity=127 time=0
EXTRACT: note_on channel=9 note=42 velocity=63 time=0
EXTRACT: note_off channel=9 note=42 velocity=63 time=0.004664166666666666
EXTRACT: note_off channel=9 note=38 velocity=127 time=0
EXTRACT: note_off channel=1 note=29 velocity=121 time=0.20055916666666665
EXTRACT: note_off channel=14 note=69 velocity=113 time=0
EXTRACT: note_off channel=14 note=65 velocity=106 time=0
EXTRACT: note_off channel=15 note=60 velocity=119 time=0
EXTRACT: note_off channel=6 note=72 velocity=84 time=0.004664166666666666
EXTRACT: note_on channel=1 note=28 velocity=108 time=0.013992499999999998
EXTRACT: note_on channel=9 note=42 velocity=77 time=0
EXTRACT: note_on channel=14 note=67 velocity=103 time=0
EXTRACT: note_on channel=14 note=71 velocity=109 time=0
EXTRACT: note_on channel=15 note=62 velocity=118 time=0
EXTRACT: note_off channel=9 note=42 velocity=77 time=0.004664166666666666
EXTRACT: note_off channel=1 note=28 velocity=108 time=0.20055916666666665
EXTRACT: note_on channel=1 note=31 velocity=114 time=0.018656666666666665
EXTRACT: note_on channel=6 note=67 velocity=77 time=0
EXTRACT: note_on channel=9 note=36 velocity=127 time=0
EXTRACT: note_on channel=9 note=42 velocity=66 time=0
EXTRACT: note_off channel=9 note=42 velocity=66 time=0.004664166666666666
EXTRACT: note_off channel=9 note=36 velocity=127 time=0
EXTRACT: note_off channel=1 note=31 velocity=114 time=0.20055916666666665
EXTRACT: note_off channel=14 note=71 velocity=109 time=0
EXTRACT: note_off channel=14 note=67 velocity=103 time=0
EXTRACT: note_off channel=15 note=62 velocity=118 time=0
EXTRACT: note_off channel=6 note=67 velocity=77 time=0.004664166666666666
EXTRACT: note_on channel=1 note=43 velocity=124 time=0.013992499999999998
EXTRACT: note_on channel=6 note=71 velocity=90 time=0
EXTRACT: note_on channel=9 note=42 velocity=66 time=0
EXTRACT: note_on channel=14 note=67 velocity=104 time=0
EXTRACT: note_on channel=14 note=71 velocity=106 time=0
EXTRACT: note_on channel=15 note=62 velocity=116 time=0
EXTRACT: note_off channel=9 note=42 velocity=66 time=0.004664166666666666
EXTRACT: note_off channel=1 note=43 velocity=124 time=0.08861916666666667
EXTRACT: note_off channel=14 note=71 velocity=106 time=0.11193999999999998
EXTRACT: note_off channel=14 note=67 velocity=104 time=0
EXTRACT: note_off channel=15 note=62 velocity=116 time=0
EXTRACT: note_off channel=6 note=71 velocity=90 time=0.004664166666666666
EXTRACT: note_on channel=6 note=74 velocity=84 time=0.013992499999999998
EXTRACT: note_on channel=9 note=38 velocity=122 time=0
EXTRACT: note_on channel=9 note=42 velocity=58 time=0
EXTRACT: note_on channel=14 note=67 velocity=116 time=0
EXTRACT: note_on channel=14 note=71 velocity=118 time=0
EXTRACT: note_on channel=15 note=62 velocity=122 time=0
EXTRACT: note_off channel=9 note=42 velocity=58 time=0.004664166666666666
EXTRACT: note_off channel=9 note=38 velocity=122 time=0
EXTRACT: note_off channel=14 note=71 velocity=118 time=0.20055916666666665
EXTRACT: note_off channel=14 note=67 velocity=116 time=0
EXTRACT: note_off channel=15 note=62 velocity=122 time=0
EXTRACT: note_off channel=6 note=74 velocity=84 time=0.004664166666666666
EXTRACT: note_on channel=1 note=31 velocity=110 time=0.013992499999999998
EXTRACT: note_on channel=9 note=42 velocity=72 time=0
EXTRACT: note_on channel=14 note=67 velocity=102 time=0
EXTRACT: note_on channel=14 note=71 velocity=108 time=0
EXTRACT: note_on channel=15 note=62 velocity=126 time=0
EXTRACT: note_off channel=9 note=42 velocity=72 time=0.004664166666666666
EXTRACT: note_off channel=1 note=31 velocity=110 time=0.20055916666666665
EXTRACT: note_off channel=14 note=71 velocity=108 time=0
EXTRACT: note_off channel=14 note=67 velocity=102 time=0
EXTRACT: note_off channel=15 note=62 velocity=126 time=0
EXTRACT: note_on channel=1 note=31 velocity=112 time=0.018656666666666665
EXTRACT: note_on channel=9 note=36 velocity=123 time=0
EXTRACT: note_on channel=9 note=42 velocity=77 time=0
EXTRACT: note_on channel=14 note=67 velocity=114 time=0
EXTRACT: note_on channel=14 note=71 velocity=115 time=0
EXTRACT: note_on channel=15 note=62 velocity=114 time=0
EXTRACT: note_off channel=9 note=42 velocity=77 time=0.004664166666666666
EXTRACT: note_off channel=9 note=36 velocity=123 time=0
EXTRACT: note_off channel=1 note=31 velocity=112 time=0.20055916666666665
EXTRACT: note_off channel=14 note=71 velocity=115 time=0
EXTRACT: note_off channel=14 note=67 velocity=114 time=0
EXTRACT: note_off channel=15 note=62 velocity=114 time=0
EXTRACT: note_on channel=6 note=74 velocity=81 time=0.018656666666666665
EXTRACT: note_on channel=9 note=42 velocity=74 time=0
EXTRACT: note_on channel=14 note=67 velocity=106 time=0
EXTRACT: note_on channel=14 note=71 velocity=101 time=0
EXTRACT: note_on channel=15 note=64 velocity=126 time=0
EXTRACT: note_off channel=9 note=42 velocity=74 time=0.004664166666666666
EXTRACT: note_off channel=14 note=71 velocity=101 time=0.20055916666666665
EXTRACT: note_off channel=14 note=67 velocity=106 time=0
EXTRACT: note_off channel=15 note=64 velocity=126 time=0
EXTRACT: note_off channel=6 note=74 velocity=81 time=0.004664166666666666
EXTRACT: note_on channel=1 note=31 velocity=124 time=0.013992499999999998
EXTRACT: note_on channel=6 note=71 velocity=73 time=0
EXTRACT: note_on channel=9 note=38 velocity=116 time=0
EXTRACT: note_on channel=9 note=42 velocity=68 time=0
EXTRACT: note_on channel=14 note=67 velocity=103 time=0
EXTRACT: note_on channel=14 note=71 velocity=120 time=0
EXTRACT: note_on channel=15 note=62 velocity=118 time=0
EXTRACT: note_off channel=9 note=42 velocity=68 time=0.004664166666666666
EXTRACT: note_off channel=9 note=38 velocity=116 time=0
EXTRACT: note_off channel=1 note=31 velocity=124 time=0.20055916666666665
EXTRACT: note_off channel=14 note=71 velocity=120 time=0
EXTRACT: note_off channel=14 note=67 velocity=103 time=0
EXTRACT: note_off channel=15 note=62 velocity=118 time=0
EXTRACT: note_off channel=6 note=71 velocity=73 time=0.004664166666666666
EXTRACT: note_on channel=1 note=28 velocity=117 time=0.013992499999999998
EXTRACT: note_on channel=6 note=67 velocity=81 time=0
EXTRACT: note_on channel=9 note=42 velocity=75 time=0
EXTRACT: note_on channel=14 note=69 velocity=103 time=0
EXTRACT: note_on channel=14 note=72 velocity=112 time=0
EXTRACT: note_on channel=15 note=64 velocity=119 time=0
EXTRACT: note_off channel=9 note=42 velocity=75 time=0.004664166666666666
EXTRACT: note_off channel=1 note=28 velocity=117 time=0.20055916666666665
EXTRACT: note_off channel=6 note=67 velocity=81 time=0.004664166666666666
EXTRACT: note_on channel=1 note=33 velocity=126 time=0.013992499999999998
EXTRACT: note_on channel=6 note=76 velocity=90 time=0
EXTRACT: note_on channel=9 note=36 velocity=120 time=0
EXTRACT: note_on channel=9 note=46 velocity=114 time=0
EXTRACT: note_off channel=9 note=46 velocity=114 time=0.004664166666666666
EXTRACT: note_off channel=9 note=36 velocity=120 time=0
EXTRACT: note_off channel=1 note=33 velocity=126 time=0.20055916666666665
EXTRACT: note_off channel=6 note=76 velocity=90 time=0.004664166666666666
EXTRACT: note_on channel=1 note=45 velocity=116 time=0.013992499999999998
EXTRACT: note_on channel=6 note=72 velocity=73 time=0
EXTRACT: note_on channel=9 note=42 velocity=62 time=0
EXTRACT: note_off channel=9 note=42 velocity=62 time=0.004664166666666666
EXTRACT: note_off channel=1 note=45 velocity=116 time=0.20055916666666665
EXTRACT: note_off channel=14 note=72 velocity=112 time=0
EXTRACT: note_off channel=14 note=69 velocity=103 time=0
EXTRACT: note_off channel=15 note=64 velocity=119 time=0
EXTRACT: note_off channel=6 note=72 velocity=73 time=0.004664166666666666
EXTRACT: note_on channel=1 note=31 velocity=110 time=0.013992499999999998
EXTRACT: note_on channel=6 note=69 velocity=89 time=0
EXTRACT: note_on channel=9 note=38 velocity=127 time=0
EXTRACT: note_on channel=9 note=46 velocity=117 time=0
EXTRACT: note_on channel=14 note=65 velocity=107 time=0
EXTRACT: note_on channel=14 note=69 velocity=108 time=0
EXTRACT: note_on channel=15 note=60 velocity=110 time=0
EXTRACT: note_off channel=9 note=46 velocity=117 time=0.004664166666666666
EXTRACT: note_off channel=9 note=38 velocity=127 time=0
EXTRACT: note_off channel=1 note=31 velocity=110 time=0.20055916666666665
EXTRACT: note_off channel=14 note=69 velocity=108 time=0
EXTRACT: note_off channel=14 note=65 velocity=107 time=0
EXTRACT: note_off channel=15 note=60 velocity=110 time=0
EXTRACT: note_off channel=6 note=69 velocity=89 time=0.004664166666666666
EXTRACT: note_on channel=1 note=43 velocity=115 time=0.013992499999999998
EXTRACT: note_on channel=6 note=65 velocity=91 time=0
EXTRACT: note_on channel=9 note=42 velocity=69 time=0
EXTRACT: note_on channel=14 note=65 velocity=102 time=0
EXTRACT: note_on channel=14 note=69 velocity=114 time=0
EXTRACT: note_on channel=15 note=60 velocity=117 time=0
EXTRACT: note_off channel=9 note=42 velocity=69 time=0.004664166666666666
EXTRACT: note_off channel=1 note=43 velocity=115 time=0.20055916666666665
EXTRACT: note_off channel=6 note=65 velocity=91 time=0.004664166666666666
EXTRACT: note_on channel=1 note=29 velocity=120 time=0.013992499999999998
EXTRACT: note_on channel=6 note=65 velocity=85 time=0
EXTRACT: note_on channel=9 note=36 velocity=127 time=0
EXTRACT: note_on channel=9 note=42 velocity=66 time=0
EXTRACT: note_off channel=9 note=42 velocity=66 time=0.004664166666666666
EXTRACT: note_off channel=9 note=36 velocity=127 time=0
EXTRACT: note_off channel=1 note=29 velocity=120 time=0.20055916666666665
EXTRACT: note_off channel=14 note=69 velocity=114 time=0
EXTRACT: note_off channel=14 note=65 velocity=102 time=0
EXTRACT: note_off channel=15 note=60 velocity=117 time=0
EXTRACT: note_off channel=6 note=65 velocity=85 time=0.004664166666666666
EXTRACT: note_on channel=6 note=69 velocity=78 time=0.013992499999999998
EXTRACT: note_on channel=9 note=42 velocity=68 time=0
EXTRACT: note_on channel=14 note=65 velocity=108 time=0
EXTRACT: note_on channel=14 note=69 velocity=103 time=0
EXTRACT: note_on channel=15 note=60 velocity=116 time=0
EXTRACT: note_off channel=9 note=42 velocity=68 time=0.004664166666666666
EXTRACT: note_off channel=14 note=69 velocity=103 time=0.20055916666666665
EXTRACT: note_off channel=14 note=65 velocity=108 time=0
EXTRACT: note_off channel=15 note=60 velocity=116 time=0
EXTRACT: note_off channel=6 note=69 velocity=78 time=0.004664166666666666
EXTRACT: note_on channel=1 note=29 velocity=107 time=0.013992499999999998
EXTRACT: note_on channel=6 note=72 velocity=85 time=0
EXTRACT: note_on channel=9 note=38 velocity=120 time=0
EXTRACT: note_on channel=9 note=42 velocity=76 time=0
EXTRACT: note_on channel=14 note=65 velocity=109 time=0
EXTRACT: note_on channel=14 note=69 velocity=112 time=0
EXTRACT: note_on channel=15 note=60 velocity=122 time=0
EXTRACT: note_off channel=9 note=42 velocity=76 time=0.004664166666666666
EXTRACT: note_off channel=9 note=38 velocity=120 time=0
EXTRACT: note_off channel=1 note=29 velocity=107 time=0.20055916666666665
EXTRACT: note_off channel=14 note=69 velocity=112 time=0
EXTRACT: note_off channel=14 note=65 velocity=109 time=0
EXTRACT: note_off channel=15 note=60 velocity=122 time=0
EXTRACT: note_off channel=6 note=72 velocity=85 time=0.004664166666666666
EXTRACT: note_on channel=1 note=29 velocity=109 time=0.013992499999999998
EXTRACT: note_on channel=9 note=42 velocity=72 time=0
EXTRACT: note_on channel=14 note=65 velocity=105 time=0
EXTRACT: note_on channel=14 note=69 velocity=109 time=0
EXTRACT: note_on channel=15 note=60 velocity=117 time=0
EXTRACT: note_off channel=9 note=42 velocity=72 time=0.004664166666666666
EXTRACT: note_off channel=1 note=29 velocity=109 time=0.20055916666666665
EXTRACT: note_off channel=14 note=69 velocity=109 time=0
EXTRACT: note_off channel=14 note=65 velocity=105 time=0
EXTRACT: note_off channel=15 note=60 velocity=117 time=0
EXTRACT: note_on channel=1 note=31 velocity=111 time=0.018656666666666665
EXTRACT: note_on channel=6 note=67 velocity=88 time=0
EXTRACT: note_on channel=9 note=36 velocity=119 time=0
EXTRACT: note_on channel=9 note=42 velocity=68 time=0
EXTRACT: note_on channel=14 note=67 velocity=106 time=0
EXTRACT: note_on channel=14 note=71 velocity=117 time=0
EXTRACT: note_on channel=15 note=62 velocity=123 time=0
EXTRACT: note_off channel=9 note=42 velocity=68 time=0.004664166666666666
EXTRACT: note_off channel=9 note=36 velocity=119 time=0
EXTRACT: note_off channel=1 note=31 velocity=111 time=0.20055916666666665
EXTRACT: note_off channel=14 note=71 velocity=117 time=0
EXTRACT: note_off channel=14 note=67 velocity=106 time=0
EXTRACT: note_off channel=15 note=62 velocity=123 time=0
EXTRACT: note_off channel=6 note=67 velocity=88 time=0.004664166666666666
EXTRACT: note_on channel=1 note=43 velocity=119 time=0.013992499999999998
EXTRACT: note_on channel=6 note=71 velocity=92 time=0
EXTRACT: note_on channel=9 note=42 velocity=74 time=0
EXTRACT: note_on channel=14 note=67 velocity=101 time=0
EXTRACT: note_on channel=14 note=71 velocity=115 time=0
EXTRACT: note_on channel=15 note=64 velocity=115 time=0
EXTRACT: note_off channel=9 note=42 velocity=74 time=0.004664166666666666
EXTRACT: note_off channel=1 note=43 velocity=119 time=0.08861916666666667
EXTRACT: note_off channel=14 note=71 velocity=115 time=0.11193999999999998
EXTRACT: note_off channel=14 note=67 velocity=101 time=0
EXTRACT: note_off channel=15 note=64 velocity=115 time=0
EXTRACT: note_off channel=6 note=71 velocity=92 time=0.004664166666666666
EXTRACT: note_on channel=6 note=74 velocity=92 time=0.013992499999999998
EXTRACT: note_on channel=9 note=38 velocity=120 time=0
EXTRACT: note_on channel=9 note=42 velocity=72 time=0
EXTRACT: note_on channel=14 note=67 velocity=119 time=0
EXTRACT: note_on channel=14 note=71 velocity=101 time=0
EXTRACT: note_on channel=15 note=62 velocity=122 time=0
EXTRACT: note_off channel=9 note=42 velocity=72 time=0.004664166666666666
EXTRACT: note_off channel=9 note=38 velocity=120 time=0
EXTRACT: note_off channel=14 note=71 velocity=101 time=0.20055916666666665
EXTRACT: note_off channel=14 note=67 velocity=119 time=0
EXTRACT: note_off channel=15 note=62 velocity=122 time=0
EXTRACT: note_off channel=6 note=74 velocity=92 time=0.004664166666666666
EXTRACT: note_on channel=1 note=31 velocity=115 time=0.013992499999999998
EXTRACT: note_on channel=9 note=42 velocity=67 time=0
EXTRACT: note_on channel=14 note=69 velocity=113 time=0
EXTRACT: note_on channel=14 note=72 velocity=113 time=0
EXTRACT: note_on channel=15 note=64 velocity=126 time=0
EXTRACT: note_off channel=9 note=42 velocity=67 time=0.004664166666666666
EXTRACT: note_off channel=1 note=31 velocity=115 time=0.20055916666666665
EXTRACT: note_off channel=14 note=72 velocity=113 time=0
EXTRACT: note_off channel=14 note=69 velocity=113 time=0
EXTRACT: note_off channel=15 note=64 velocity=126 time=0
EXTRACT: note_on channel=1 note=33 velocity=115 time=0.018656666666666665
EXTRACT: note_on channel=9 note=36 velocity=126 time=0
EXTRACT: note_on channel=9 note=42 velocity=75 time=0
EXTRACT: note_off channel=9 note=42 velocity=75 time=0.004664166666666666
EXTRACT: note_off channel=9 note=36 velocity=126 time=0
EXTRACT: note_off channel=1 note=33 velocity=115 time=0.20055916666666665
EXTRACT: note_on channel=6 note=67 velocity=73 time=0.018656666666666665
EXTRACT: note_on channel=9 note=42 velocity=77 time=0
EXTRACT: note_off channel=9 note=42 velocity=77 time=0.004664166666666666
EXTRACT: note_off channel=6 note=67 velocity=73 time=0.2052233333333333
EXTRACT: note_on channel=1 note=33 velocity=112 time=0.013992499999999998
EXTRACT: note_on channel=6 note=71 velocity=85 time=0
EXTRACT: note_on channel=9 note=38 velocity=127 time=0
EXTRACT: note_on channel=9 note=42 velocity=67 time=0
EXTRACT: note_on channel=15 note=67 velocity=122 time=0
EXTRACT: note_off channel=9 note=42 velocity=67 time=0.004664166666666666
EXTRACT: note_off channel=9 note=38 velocity=127 time=0
EXTRACT: note_off channel=1 note=33 velocity=112 time=0.20055916666666665
EXTRACT: note_off channel=15 note=67 velocity=122 time=0
EXTRACT: note_off channel=6 note=71 velocity=85 time=0.004664166666666666
EXTRACT: note_on channel=1 note=28 velocity=123 time=0.013992499999999998
EXTRACT: note_on channel=6 note=74 velocity=84 time=0
EXTRACT: note_on channel=9 note=42 velocity=58 time=0
EXTRACT: note_on channel=15 note=67 velocity=125 time=0
EXTRACT: note_off channel=9 note=42 velocity=58 time=0.004664166666666666
EXTRACT: note_off channel=1 note=28 velocity=123 time=0.20055916666666665
EXTRACT: note_off channel=6 note=74 velocity=84 time=0.004664166666666666
EXTRACT: note_on channel=1 note=31 velocity=116 time=0.013992499999999998
EXTRACT: note_on channel=6 note=76 velocity=81 time=0
EXTRACT: note_on channel=9 note=36 velocity=121 time=0
EXTRACT: note_on channel=9 note=42 velocity=66 time=0
EXTRACT: note_off channel=9 note=42 velocity=66 time=0.004664166666666666
EXTRACT: note_off channel=9 note=36 velocity=121 time=0
EXTRACT: note_off channel=1 note=31 velocity=116 time=0.20055916666666665
EXTRACT: note_off channel=15 note=67 velocity=125 time=0
EXTRACT: note_off channel=6 note=76 velocity=81 time=0.004664166666666666
EXTRACT: note_on channel=1 note=43 velocity=124 time=0.013992499999999998
EXTRACT: note_on channel=4 note=74 velocity=103 time=0
EXTRACT: note_on channel=4 note=71 velocity=94 time=0
EXTRACT: note_on channel=4 note=79 velocity=96 time=0
EXTRACT: note_on channel=6 note=74 velocity=80 time=0
EXTRACT: note_on channel=9 note=42 velocity=70 time=0
EXTRACT: note_on channel=15 note=67 velocity=125 time=0
EXTRACT: note_off channel=9 note=42 velocity=70 time=0.004664166666666666
EXTRACT: note_off channel=1 note=43 velocity=124 time=0.08861916666666667
EXTRACT: note_off channel=4 note=79 velocity=96 time=0.11193999999999998
EXTRACT: note_off channel=4 note=71 velocity=94 time=0
EXTRACT: note_off channel=4 note=74 velocity=103 time=0
EXTRACT: note_off channel=15 note=67 velocity=125 time=0
EXTRACT: note_off channel=6 note=74 velocity=80 time=0.004664166666666666
EXTRACT: note_on channel=1 note=38 velocity=118 time=0.013992499999999998
EXTRACT: note_on channel=9 note=38 velocity=125 time=0
EXTRACT: note_on channel=9 note=42 velocity=68 time=0
EXTRACT: note_on channel=15 note=64 velocity=116 time=0
EXTRACT: note_off channel=9 note=42 velocity=68 time=0.004664166666666666
EXTRACT: note_off channel=9 note=38 velocity=125 time=0
EXTRACT: note_off channel=1 note=38 velocity=118 time=0.20055916666666665
EXTRACT: note_off channel=15 note=64 velocity=116 time=0
EXTRACT: note_on channel=1 note=28 velocity=114 time=0.018656666666666665
EXTRACT: note_on channel=4 note=71 velocity=102 time=0
EXTRACT: note_on channel=4 note=74 velocity=95 time=0
EXTRACT: note_on channel=4 note=79 velocity=108 time=0
EXTRACT: note_on channel=9 note=42 velocity=68 time=0
EXTRACT: note_on channel=15 note=62 velocity=122 time=0
EXTRACT: note_off channel=9 note=42 velocity=68 time=0.004664166666666666
EXTRACT: note_off channel=1 note=28 velocity=114 time=0.20055916666666665
EXTRACT: note_off channel=4 note=79 velocity=108 time=0
EXTRACT: note_off channel=4 note=74 velocity=95 time=0
EXTRACT: note_off channel=4 note=71 velocity=102 time=0
EXTRACT: note_off channel=15 note=62 velocity=122 time=0
EXTRACT: note_on channel=1 note=29 velocity=120 time=0.018656666666666665
EXTRACT: note_on channel=6 note=77 velocity=84 time=0
EXTRACT: note_on channel=9 note=36 velocity=124 time=0
EXTRACT: note_on channel=9 note=49 velocity=120 time=0
EXTRACT: note_on channel=14 note=65 velocity=115 time=0
EXTRACT: note_on channel=14 note=69 velocity=101 time=0
EXTRACT: note_on channel=15 note=60 velocity=113 time=0
EXTRACT: note_off channel=9 note=49 velocity=120 time=0.004664166666666666
EXTRACT: note_off channel=9 note=36 velocity=124 time=0
EXTRACT: note_off channel=1 note=29 velocity=120 time=0.20055916666666665
EXTRACT: note_off channel=6 note=77 velocity=84 time=0.004664166666666666
EXTRACT: note_on channel=6 note=81 velocity=92 time=0.013992499999999998
EXTRACT: note_on channel=9 note=42 velocity=65 time=0
EXTRACT: note_off channel=9 note=42 velocity=65 time=0.004664166666666666
EXTRACT: note_off channel=6 note=81 velocity=92 time=0.2052233333333333
EXTRACT: note_on channel=1 note=29 velocity=115 time=0.013992499999999998
EXTRACT: note_on channel=6 note=84 velocity=87 time=0
EXTRACT: note_on channel=9 note=38 velocity=127 time=0
EXTRACT: note_on channel=9 note=42 velocity=62 time=0
EXTRACT: note_off channel=9 note=42 velocity=62 time=0.004664166666666666
EXTRACT: note_off channel=9 note=38 velocity=127 time=0
EXTRACT: note_off channel=1 note=29 velocity=115 time=0.20055916666666665
EXTRACT: note_off channel=14 note=69 velocity=101 time=0
EXTRACT: note_off channel=14 note=65 velocity=115 time=0
EXTRACT: note_off channel=15 note=60 velocity=113 time=0
EXTRACT: note_off channel=6 note=84 velocity=87 time=0.004664166666666666
EXTRACT: note_on channel=1 note=28 velocity=125 time=0.013992499999999998
EXTRACT: note_on channel=6 note=77 velocity=87 time=0
EXTRACT: note_on channel=9 note=42 velocity=65 time=0
EXTRACT: note_on channel=14 note=67 velocity=108 time=0
EXTRACT: note_on channel=14 note=71 velocity=115 time=0
EXTRACT: note_on channel=15 note=62 velocity=117 time=0
EXTRACT: note_off channel=9 note=42 velocity=65 time=0.004664166666666666
EXTRACT: note_off channel=1 note=28 velocity=125 time=0.20055916666666665
EXTRACT: note_off channel=14 note=71 velocity=115 time=0
EXTRACT: note_off channel=14 note=67 velocity=108 time=0
EXTRACT: note_off channel=15 note=62 velocity=117 time=0
EXTRACT: note_off channel=6 note=77 velocity=87 time=0.004664166666666666
EXTRACT: note_on channel=1 note=31 velocity=109 time=0.013992499999999998
EXTRACT: note_on channel=6 note=79 velocity=86 time=0
EXTRACT: note_on channel=9 note=36 velocity=127 time=0
EXTRACT: note_on channel=9 note=42 velocity=65 time=0
EXTRACT: note_off channel=9 note=42 velocity=65 time=0.004664166666666666
EXTRACT: note_off channel=9 note=36 velocity=127 time=0
EXTRACT: note_off channel=1 note=31 velocity=109 time=0.20055916666666665
EXTRACT: note_off channel=6 note=79 velocity=86 time=0.004664166666666666
EXTRACT: note_on channel=1 note=43 velocity=121 time=0.013992499999999998
EXTRACT: note_on channel=6 note=83 velocity=78 time=0
EXTRACT: note_on channel=9 note=42 velocity=72 time=0
EXTRACT: note_on channel=14 note=67 velocity=108 time=0
EXTRACT: note_on channel=14 note=71 velocity=107 time=0
EXTRACT: note_on channel=15 note=62 velocity=123 time=0
EXTRACT: note_off channel=9 note=42 velocity=72 time=0.004664166666666666
EXTRACT: note_off channel=1 note=43 velocity=121 time=0.08861916666666667
EXTRACT: note_off channel=14 note=71 velocity=107 time=0.11193999999999998
EXTRACT: note_off channel=14 note=67 velocity=108 time=0
EXTRACT: note_off channel=15 note=62 velocity=123 time=0
EXTRACT: note_off channel=6 note=83 velocity=78 time=0.004664166666666666
EXTRACT: note_on channel=6 note=86 velocity=77 time=0.013992499999999998
EXTRACT: note_on channel=9 note=38 velocity=117 time=0
EXTRACT: note_on channel=9 note=42 velocity=63 time=0
EXTRACT: note_on channel=14 note=67 velocity=104 time=0
EXTRACT: note_on channel=14 note=71 velocity=101 time=0
EXTRACT: note_on channel=15 note=62 velocity=109 time=0
EXTRACT: note_off channel=9 note=42 velocity=63 time=0.004664166666666666
EXTRACT: note_off channel=9 note=38 velocity=117 time=0
EXTRACT: note_off channel=14 note=71 velocity=101 time=0.20055916666666665
EXTRACT: note_off channel=14 note=67 velocity=104 time=0
EXTRACT: note_off channel=15 note=62 velocity=109 time=0
EXTRACT: note_off channel=6 note=86 velocity=77 time=0.004664166666666666
EXTRACT: note_on channel=1 note=31 velocity=116 time=0.013992499999999998
EXTRACT: note_on channel=9 note=42 velocity=63 time=0
EXTRACT: note_on channel=14 note=67 velocity=110 time=0
EXTRACT: note_on channel=14 note=71 velocity=112 time=0
EXTRACT: note_on channel=15 note=62 velocity=114 time=0
EXTRACT: note_off channel=9 note=42 velocity=63 time=0.004664166666666666
EXTRACT: note_off channel=1 note=31 velocity=116 time=0.20055916666666665
EXTRACT: note_off channel=14 note=71 velocity=112 time=0
EXTRACT: note_off channel=14 note=67 velocity=110 time=0
EXTRACT: note_off channel=15 note=62 velocity=114 time=0
EXTRACT: note_on channel=1 note=31 velocity=118 time=0.018656666666666665
EXTRACT: note_on channel=9 note=36 velocity=127 time=0
EXTRACT: note_on channel=9 note=42 velocity=58 time=0
EXTRACT: note_on channel=14 note=67 velocity=120 time=0
EXTRACT: note_on channel=14 note=71 velocity=103 time=0
EXTRACT: note_on channel=15 note=62 velocity=127 time=0
EXTRACT: note_off channel=9 note=42 velocity=58 time=0.004664166666666666
EXTRACT: note_off channel=9 note=36 velocity=127 time=0
EXTRACT: note_off channel=14 note=71 velocity=103 time=0.20055916666666665
EXTRACT: note_off channel=14 note=67 velocity=120 time=0
EXTRACT: note_off channel=15 note=62 velocity=127 time=0
EXTRACT: note_on channel=6 note=86 velocity=87 time=0.018656666666666665
EXTRACT: note_on channel=9 note=42 velocity=70 time=0
EXTRACT: note_on channel=14 note=67 velocity=115 time=0
EXTRACT: note_on channel=14 note=71 velocity=109 time=0
EXTRACT: note_on channel=15 note=64 velocity=124 time=0
EXTRACT: note_off channel=9 note=42 velocity=70 time=0.004664166666666666
EXTRACT: note_off channel=1 note=31 velocity=118 time=0.20055916666666665
EXTRACT: note_off channel=14 note=71 velocity=109 time=0
EXTRACT: note_off channel=14 note=67 velocity=115 time=0
EXTRACT: note_off channel=15 note=64 velocity=124 time=0
EXTRACT: note_off channel=6 note=86 velocity=87 time=0.004664166666666666
EXTRACT: note_on channel=1 note=31 velocity=112 time=0.013992499999999998
EXTRACT: note_on channel=6 note=83 velocity=91 time=0
EXTRACT: note_on channel=9 note=38 velocity=113 time=0
EXTRACT: note_on channel=9 note=42 velocity=65 time=0
EXTRACT: note_on channel=14 note=67 velocity=117 time=0
EXTRACT: note_on channel=14 note=71 velocity=108 time=0
EXTRACT: note_on channel=15 note=62 velocity=121 time=0
EXTRACT: note_off channel=9 note=42 velocity=65 time=0.004664166666666666
EXTRACT: note_off channel=9 note=38 velocity=113 time=0
EXTRACT: note_off channel=1 note=31 velocity=112 time=0.20055916666666665
EXTRACT: note_off channel=14 note=71 velocity=108 time=0
EXTRACT: note_off channel=14 note=67 velocity=117 time=0
EXTRACT: note_off channel=15 note=62 velocity=121 time=0
EXTRACT: note_off channel=6 note=83 velocity=91 time=0.004664166666666666
EXTRACT: note_on channel=1 note=28 velocity=114 time=0.013992499999999998
EXTRACT: note_on channel=6 note=79 velocity=73 time=0
EXTRACT: note_on channel=9 note=42 velocity=73 time=0
EXTRACT: note_on channel=14 note=69 velocity=111 time=0
EXTRACT: note_on channel=14 note=72 velocity=117 time=0
EXTRACT: note_on channel=15 note=64 velocity=119 time=0
EXTRACT: note_off channel=9 note=42 velocity=73 time=0.004664166666666666
EXTRACT: note_off channel=1 note=28 velocity=114 time=0.20055916666666665
EXTRACT: note_off channel=6 note=79 velocity=73 time=0.004664166666666666
EXTRACT: note_on channel=1 note=33 velocity=122 time=0.013992499999999998
EXTRACT: note_on channel=6 note=88 velocity=76 time=0
EXTRACT: note_on channel=9 note=36 velocity=127 time=0
EXTRACT: note_on channel=9 note=46 velocity=114 time=0
EXTRACT: note_off channel=9 note=46 velocity=114 time=0.004664166666666666
EXTRACT: note_off channel=9 note=36 velocity=127 time=0
EXTRACT: note_off channel=1 note=33 velocity=122 time=0.20055916666666665
EXTRACT: note_off channel=14 note=72 velocity=117 time=0
EXTRACT: note_off channel=14 note=69 velocity=111 time=0
EXTRACT: note_off channel=15 note=64 velocity=119 time=0
EXTRACT: note_off channel=6 note=88 velocity=76 time=0.004664166666666666
EXTRACT: note_on channel=1 note=45 velocity=121 time=0.013992499999999998
EXTRACT: note_on channel=6 note=84 velocity=91 time=0
EXTRACT: note_on channel=9 note=42 velocity=75 time=0
EXTRACT: note_off channel=9 note=42 velocity=75 time=0.004664166666666666
EXTRACT: note_off channel=1 note=45 velocity=121 time=0.20055916666666665
EXTRACT: note_off channel=6 note=84 velocity=91 time=0.004664166666666666
EXTRACT: note_on channel=1 note=31 velocity=115 time=0.013992499999999998
EXTRACT: note_on channel=6 note=81 velocity=76 time=0
EXTRACT: note_on channel=9 note=38 velocity=127 time=0
EXTRACT: note_on channel=9 note=42 velocity=68 time=0
EXTRACT: note_on channel=14 note=65 velocity=105 time=0
EXTRACT: note_on channel=14 note=69 velocity=107 time=0
EXTRACT: note_on channel=15 note=60 velocity=124 time=0
EXTRACT: note_off channel=9 note=42 velocity=68 time=0.004664166666666666
EXTRACT: note_off channel=9 note=38 velocity=127 time=0
EXTRACT: note_off channel=1 note=31 velocity=115 time=0.20055916666666665
EXTRACT: note_off channel=14 note=69 velocity=107 time=0
EXTRACT: note_off channel=14 note=65 velocity=105 time=0
EXTRACT: note_off channel=15 note=60 velocity=124 time=0
EXTRACT: note_off channel=6 note=81 velocity=76 time=0.004664166666666666
EXTRACT: note_on channel=1 note=43 velocity=123 time=0.013992499999999998
EXTRACT: note_on channel=6 note=77 velocity=78 time=0
EXTRACT: note_on channel=9 note=46 velocity=111 time=0
EXTRACT: note_on channel=14 note=65 velocity=111 time=0
EXTRACT: note_on channel=14 note=69 velocity=101 time=0
EXTRACT: note_on channel=15 note=60 velocity=112 time=0
EXTRACT: note_off channel=9 note=46 velocity=111 time=0.004664166666666666
EXTRACT: note_off channel=1 note=43 velocity=123 time=0.20055916666666665
EXTRACT: note_off channel=6 note=77 velocity=78 time=0.004664166666666666
EXTRACT: note_on channel=1 note=29 velocity=109 time=0.013992499999999998
EXTRACT: note_on channel=6 note=77 velocity=82 time=0
EXTRACT: note_on channel=9 note=36 velocity=127 time=0
EXTRACT: note_on channel=9 note=42 velocity=63 time=0
EXTRACT: note_off channel=9 note=42 velocity=63 time=0.004664166666666666
EXTRACT: note_off channel=9 note=36 velocity=127 time=0
EXTRACT: note_off channel=1 note=29 velocity=109 time=0.20055916666666665
EXTRACT: note_off channel=14 note=69 velocity=101 time=0
EXTRACT: note_off channel=14 note=65 velocity=111 time=0
EXTRACT: note_off channel=15 note=60 velocity=112 time=0
EXTRACT: note_off channel=6 note=77 velocity=82 time=0.004664166666666666
EXTRACT: note_on channel=6 note=81 velocity=75 time=0.013992499999999998
EXTRACT: note_on channel=9 note=42 velocity=66 time=0
EXTRACT: note_on channel=14 note=65 velocity=117 time=0
EXTRACT: note_on channel=14 note=69 velocity=113 time=0
EXTRACT: note_on channel=15 note=60 velocity=126 time=0
EXTRACT: note_off channel=9 note=42 velocity=66 time=0.004664166666666666
EXTRACT: note_off channel=14 note=69 velocity=113 time=0.20055916666666665
EXTRACT: note_off channel=14 note=65 velocity=117 time=0
EXTRACT: note_off channel=15 note=60 velocity=126 time=0
EXTRACT: note_off channel=6 note=81 velocity=75 time=0.004664166666666666
EXTRACT: note_on channel=1 note=29 velocity=120 time=0.013992499999999998
EXTRACT: note_on channel=6 note=84 velocity=81 time=0
EXTRACT: note_on channel=9 note=38 velocity=127 time=0
EXTRACT: note_on channel=9 note=42 velocity=66 time=0
EXTRACT: note_on channel=14 note=65 velocity=109 time=0
EXTRACT: note_on channel=14 note=69 velocity=114 time=0
EXTRACT: note_on channel=15 note=60 velocity=126 time=0
EXTRACT: note_off channel=9 note=42 velocity=66 time=0.004664166666666666
EXTRACT: note_off channel=9 note=38 velocity=127 time=0
EXTRACT: note_off channel=1 note=29 velocity=120 time=0.20055916666666665
EXTRACT: note_off channel=14 note=69 velocity=114 time=0
EXTRACT: note_off channel=14 note=65 velocity=109 time=0
EXTRACT: note_off channel=15 note=60 velocity=126 time=0
EXTRACT: note_off channel=6 note=84 velocity=81 time=0.004664166666666666
EXTRACT: note_on channel=1 note=29 velocity=108 time=0.013992499999999998
EXTRACT: note_on channel=9 note=42 velocity=58 time=0
EXTRACT: note_on channel=14 note=65 velocity=117 time=0
EXTRACT: note_on channel=14 note=69 velocity=116 time=0
EXTRACT: note_on channel=15 note=60 velocity=125 time=0
EXTRACT: note_off channel=9 note=42 velocity=58 time=0.004664166666666666
EXTRACT: note_off channel=1 note=29 velocity=108 time=0.20055916666666665
EXTRACT: note_off channel=14 note=69 velocity=116 time=0
EXTRACT: note_off channel=14 note=65 velocity=117 time=0
EXTRACT: note_off channel=15 note=60 velocity=125 time=0
EXTRACT: note_on channel=1 note=31 velocity=118 time=0.018656666666666665
EXTRACT: note_on channel=6 note=79 velocity=90 time=0
EXTRACT: note_on channel=9 note=36 velocity=127 time=0
EXTRACT: note_on channel=9 note=42 velocity=76 time=0
EXTRACT: note_on channel=14 note=67 velocity=111 time=0
EXTRACT: note_on channel=14 note=71 velocity=105 time=0
EXTRACT: note_on channel=15 note=62 velocity=126 time=0
EXTRACT: note_off channel=9 note=42 velocity=76 time=0.004664166666666666
EXTRACT: note_off channel=9 note=36 velocity=127 time=0
EXTRACT: note_off channel=1 note=31 velocity=118 time=0.20055916666666665
EXTRACT: note_off channel=14 note=71 velocity=105 time=0
EXTRACT: note_off channel=14 note=67 velocity=111 time=0
EXTRACT: note_off channel=15 note=62 velocity=126 time=0
EXTRACT: note_off channel=6 note=79 velocity=90 time=0.004664166666666666
EXTRACT: note_on channel=1 note=43 velocity=121 time=0.013992499999999998
EXTRACT: note_on channel=6 note=83 velocity=78 time=0
EXTRACT: note_on channel=9 note=42 velocity=61 time=0
EXTRACT: note_on channel=14 note=67 velocity=112 time=0
EXTRACT: note_on channel=14 note=71 velocity=110 time=0
EXTRACT: note_on channel=15 note=64 velocity=125 time=0
EXTRACT: note_off channel=9 note=42 velocity=61 time=0.004664166666666666
EXTRACT: note_off channel=1 note=43 velocity=121 time=0.20055916666666665
EXTRACT: note_off channel=14 note=71 velocity=110 time=0
EXTRACT: note_off channel=14 note=67 velocity=112 time=0
EXTRACT: note_off channel=15 note=64 velocity=125 time=0
EXTRACT: note_off channel=6 note=83 velocity=78 time=0.004664166666666666
EXTRACT: note_on channel=6 note=86 velocity=79 time=0.013992499999999998
EXTRACT: note_on channel=9 note=38 velocity=116 time=0
EXTRACT: note_on channel=9 note=42 velocity=63 time=0
EXTRACT: note_on channel=14 note=67 velocity=112 time=0
EXTRACT: note_on channel=14 note=71 velocity=106 time=0
EXTRACT: note_on channel=15 note=62 velocity=112 time=0
EXTRACT: note_off channel=9 note=42 velocity=63 time=0.004664166666666666
EXTRACT: note_off channel=9 note=38 velocity=116 time=0
EXTRACT: note_off channel=6 note=86 velocity=79 time=0.09328333333333333
EXTRACT: note_off channel=14 note=71 velocity=106 time=0.10727583333333332
EXTRACT: note_off channel=14 note=67 velocity=112 time=0
EXTRACT: note_off channel=15 note=62 velocity=112 time=0
EXTRACT: note_on channel=1 note=31 velocity=108 time=0.018656666666666665
EXTRACT: note_on channel=9 note=38 velocity=114 time=0
EXTRACT: note_on channel=9 note=42 velocity=75 time=0
EXTRACT: note_on channel=14 note=67 velocity=106 time=0
EXTRACT: note_on channel=14 note=72 velocity=106 time=0
EXTRACT: note_on channel=15 note=60 velocity=124 time=0
EXTRACT: note_off channel=9 note=42 velocity=75 time=0.004664166666666666
EXTRACT: note_off channel=9 note=38 velocity=114 time=0
EXTRACT: note_on channel=9 note=38 velocity=114 time=0.10727583333333332
EXTRACT: note_off channel=9 note=38 velocity=114 time=0.004664166666666666
EXTRACT: note_off channel=1 note=31 velocity=108 time=0.08861916666666667
EXTRACT: note_on channel=1 note=36 velocity=126 time=0.018656666666666665
EXTRACT: note_on channel=3 note=67 velocity=101 time=0
EXTRACT: note_on channel=3 note=70 velocity=91 time=0
EXTRACT: note_on channel=4 note=46 velocity=123 time=0
EXTRACT: note_on channel=9 note=36 velocity=122 time=0
EXTRACT: note_on channel=9 note=49 velocity=120 time=0
EXTRACT: note_off channel=9 note=49 velocity=120 time=0.004664166666666666
EXTRACT: note_off channel=9 note=36 velocity=122 time=0
EXTRACT: control_change channel=3 control=1 value=83 time=0.10727583333333332
EXTRACT: note_off channel=1 note=36 velocity=126 time=0.09328333333333333
EXTRACT: note_on channel=9 note=42 velocity=72 time=0.018656666666666665
EXTRACT: note_off channel=9 note=42 velocity=72 time=0.004664166666666666
EXTRACT: note_on channel=1 note=36 velocity=117 time=0.2192158333333333
EXTRACT: note_on channel=2 note=60 velocity=102 time=0
EXTRACT: note_on channel=2 note=65 velocity=106 time=0
EXTRACT: note_on channel=2 note=67 velocity=99 time=0
EXTRACT: note_on channel=5 note=48 velocity=101 time=0
EXTRACT: note_on channel=5 note=53 velocity=102 time=0
EXTRACT: note_on channel=5 note=55 velocity=87 time=0
EXTRACT: note_on channel=9 note=38 velocity=114 time=0
EXTRACT: note_on channel=9 note=42 velocity=70 time=0
EXTRACT: note_off channel=9 note=42 velocity=70 time=0.004664166666666666
EXTRACT: note_off channel=9 note=38 velocity=114 time=0
EXTRACT: note_off channel=2 note=67 velocity=99 time=0.09328333333333333
EXTRACT: note_off channel=2 note=65 velocity=106 time=0
EXTRACT: note_off channel=2 note=60 velocity=102 time=0
EXTRACT: note_off channel=5 note=55 velocity=87 time=0
EXTRACT: note_off channel=5 note=53 velocity=102 time=0
EXTRACT: note_off channel=5 note=48 velocity=101 time=0
EXTRACT: note_off channel=1 note=36 velocity=117 time=0.10727583333333332
EXTRACT: note_off channel=14 note=72 velocity=106 time=0
EXTRACT: note_off channel=14 note=67 velocity=106 time=0
EXTRACT: note_off channel=15 note=60 velocity=124 time=0
EXTRACT: note_off channel=4 note=46 velocity=123 time=0.004664166666666666
EXTRACT: note_on channel=2 note=60 velocity=100 time=0.013992499999999998
EXTRACT: note_on channel=2 note=65 velocity=95 time=0
EXTRACT: note_on channel=2 note=67 velocity=105 time=0
EXTRACT: note_on channel=4 note=53 velocity=125 time=0
EXTRACT: note_on channel=5 note=48 velocity=89 time=0
EXTRACT: note_on channel=5 note=53 velocity=98 time=0
EXTRACT: note_on channel=5 note=55 velocity=101 time=0
EXTRACT: note_on channel=9 note=42 velocity=65 time=0
EXTRACT: note_off channel=9 note=42 velocity=65 time=0.004664166666666666
EXTRACT: note_off channel=2 note=67 velocity=105 time=0.09328333333333333
EXTRACT: note_off channel=2 note=65 velocity=95 time=0
EXTRACT: note_off channel=2 note=60 velocity=100 time=0
EXTRACT: note_off channel=5 note=55 velocity=101 time=0
EXTRACT: note_off channel=5 note=53 velocity=98 time=0
EXTRACT: note_off channel=5 note=48 velocity=89 time=0
EXTRACT: note_on channel=1 note=31 velocity=115 time=0.1259325
EXTRACT: note_on channel=9 note=36 velocity=127 time=0
EXTRACT: note_on channel=9 note=42 velocity=67 time=0
EXTRACT: note_off channel=9 note=42 velocity=67 time=0.004664166666666666
EXTRACT: note_off channel=9 note=36 velocity=127 time=0
EXTRACT: note_off channel=1 note=31 velocity=115 time=0.20055916666666665
EXTRACT: note_off channel=3 note=70 velocity=91 time=0.004664166666666666
EXTRACT: note_off channel=3 note=67 velocity=101 time=0
EXTRACT: note_on channel=1 note=36 velocity=113 time=0.013992499999999998
EXTRACT: note_on channel=9 note=42 velocity=71 time=0
EXTRACT: note_off channel=9 note=42 velocity=71 time=0.004664166666666666
EXTRACT: note_off channel=1 note=36 velocity=113 time=0.08861916666666667
EXTRACT: note_on channel=2 note=60 velocity=109 time=0.13059666666666667
EXTRACT: note_on channel=2 note=65 velocity=110 time=0
EXTRACT: note_on channel=2 note=67 velocity=95 time=0
EXTRACT: note_on channel=5 note=48 velocity=101 time=0
EXTRACT: note_on channel=5 note=53 velocity=94 time=0
EXTRACT: note_on channel=5 note=55 velocity=94 time=0
EXTRACT: note_on channel=9 note=38 velocity=127 time=0
EXTRACT: note_on channel=9 note=42 velocity=67 time=0
EXTRACT: note_off channel=9 note=42 velocity=67 time=0.004664166666666666
EXTRACT: note_off channel=9 note=38 velocity=127 time=0
EXTRACT: note_off channel=2 note=67 velocity=95 time=0.09328333333333333
EXTRACT: note_off channel=2 note=65 velocity=110 time=0
EXTRACT: note_off channel=2 note=60 velocity=109 time=0
EXTRACT: note_off channel=5 note=55 velocity=94 time=0
EXTRACT: note_off channel=5 note=53 velocity=94 time=0
EXTRACT: note_off channel=5 note=48 velocity=101 time=0
EXTRACT: note_off channel=4 note=53 velocity=125 time=0.11193999999999998
EXTRACT: note_on channel=1 note=31 velocity=124 time=0.013992499999999998
EXTRACT: note_on channel=2 note=60 velocity=100 time=0
EXTRACT: note_on channel=2 note=65 velocity=105 time=0
EXTRACT: note_on channel=2 note=67 velocity=102 time=0
EXTRACT: control_change channel=3 control=1 value=0 time=0
EXTRACT: note_on channel=5 note=48 velocity=101 time=0
EXTRACT: note_on channel=5 note=53 velocity=95 time=0
EXTRACT: note_on channel=5 note=55 velocity=99 time=0
EXTRACT: note_on channel=9 note=42 velocity=64 time=0
EXTRACT: note_off channel=9 note=42 velocity=64 time=0.004664166666666666
EXTRACT: note_off channel=2 note=67 velocity=102 time=0.09328333333333333
EXTRACT: note_off channel=2 note=65 velocity=105 time=0
EXTRACT: note_off channel=2 note=60 velocity=100 time=0
EXTRACT: note_off channel=5 note=55 velocity=99 time=0
EXTRACT: note_off channel=5 note=53 velocity=95 time=0
EXTRACT: note_off channel=5 note=48 velocity=101 time=0
EXTRACT: note_off channel=1 note=31 velocity=124 time=0.10727583333333332
EXTRACT: note_on channel=1 note=36 velocity=118 time=0.018656666666666665
EXTRACT: note_on channel=3 note=60 velocity=90 time=0
EXTRACT: note_on channel=3 note=67 velocity=92 time=0
EXTRACT: note_on channel=4 note=52 velocity=114 time=0
EXTRACT: note_on channel=9 note=36 velocity=127 time=0
EXTRACT: note_on channel=9 note=42 velocity=64 time=0
EXTRACT: note_off channel=9 note=42 velocity=64 time=0.004664166666666666
EXTRACT: note_off channel=9 note=36 velocity=127 time=0
EXTRACT: note_off channel=1 note=36 velocity=118 time=0.20055916666666665
EXTRACT: note_off channel=3 note=67 velocity=92 time=0.004664166666666666
EXTRACT: note_off channel=3 note=60 velocity=90 time=0
EXTRACT: note_off channel=4 note=52 velocity=114 time=0
EXTRACT: note_on channel=4 note=50 velocity=127 time=0.013992499999999998
EXTRACT: note_on channel=9 note=42 velocity=64 time=0
EXTRACT: note_off channel=9 note=42 velocity=64 time=0.004664166666666666
EXTRACT: note_off channel=4 note=50 velocity=127 time=0.2052233333333333
EXTRACT: note_on channel=1 note=36 velocity=119 time=0.013992499999999998
EXTRACT: note_on channel=2 note=60 velocity=95 time=0
EXTRACT: note_on channel=2 note=64 velocity=108 time=0
EXTRACT: note_on channel=2 note=67 velocity=97 time=0
EXTRACT: note_on channel=4 note=48 velocity=120 time=0
EXTRACT: note_on channel=5 note=48 velocity=99 time=0
EXTRACT: note_on channel=5 note=52 velocity=103 time=0
EXTRACT: note_on channel=5 note=55 velocity=97 time=0
EXTRACT: note_on channel=9 note=38 velocity=122 time=0
EXTRACT: note_on channel=9 note=42 velocity=71 time=0
EXTRACT: note_off channel=9 note=42 velocity=71 time=0.004664166666666666
EXTRACT: note_off channel=9 note=38 velocity=122 time=0
EXTRACT: note_off channel=2 note=67 velocity=97 time=0.09328333333333333
EXTRACT: note_off channel=2 note=64 velocity=108 time=0
EXTRACT: note_off channel=2 note=60 velocity=95 time=0
EXTRACT: note_off channel=5 note=55 velocity=97 time=0
EXTRACT: note_off channel=5 note=52 velocity=103 time=0
EXTRACT: note_off channel=5 note=48 velocity=99 time=0
EXTRACT: note_off channel=1 note=36 velocity=119 time=0.10727583333333332
EXTRACT: note_off channel=4 note=48 velocity=120 time=0.004664166666666666
EXTRACT: note_on channel=2 note=60 velocity=103 time=0.013992499999999998
EXTRACT: note_on channel=2 note=64 velocity=98 time=0
EXTRACT: note_on channel=2 note=67 velocity=111 time=0
EXTRACT: note_on channel=5 note=48 velocity=98 time=0
EXTRACT: note_on channel=5 note=52 velocity=88 time=0
EXTRACT: note_on channel=5 note=55 velocity=103 time=0
EXTRACT: note_on channel=9 note=42 velocity=67 time=0
EXTRACT: note_off channel=9 note=42 velocity=67 time=0.004664166666666666
EXTRACT: note_off channel=2 note=67 velocity=111 time=0.09328333333333333
EXTRACT: note_off channel=2 note=64 velocity=98 time=0
EXTRACT: note_off channel=2 note=60 velocity=103 time=0
EXTRACT: note_off channel=5 note=55 velocity=103 time=0
EXTRACT: note_off channel=5 note=52 velocity=88 time=0
EXTRACT: note_off channel=5 note=48 velocity=98 time=0
EXTRACT: note_on channel=1 note=31 velocity=113 time=0.1259325
EXTRACT: note_on channel=4 note=48 velocity=116 time=0
EXTRACT: note_on channel=9 note=36 velocity=127 time=0
EXTRACT: note_on channel=9 note=42 velocity=61 time=0
EXTRACT: note_off channel=9 note=42 velocity=61 time=0.004664166666666666
EXTRACT: note_off channel=9 note=36 velocity=127 time=0
EXTRACT: note_off channel=1 note=31 velocity=113 time=0.20055916666666665
EXTRACT: note_off channel=4 note=48 velocity=116 time=0.004664166666666666
EXTRACT: note_on channel=1 note=36 velocity=126 time=0.013992499999999998
EXTRACT: note_on channel=9 note=81 velocity=106 time=0
EXTRACT: note_on channel=9 note=42 velocity=77 time=0
EXTRACT: note_off channel=9 note=42 velocity=77 time=0.004664166666666666
EXTRACT: note_off channel=9 note=81 velocity=106 time=0
EXTRACT: note_off channel=1 note=36 velocity=126 time=0.08861916666666667
EXTRACT: note_on channel=2 note=60 velocity=100 time=0.13059666666666667
EXTRACT: note_on channel=2 note=64 velocity=105 time=0
EXTRACT: note_on channel=2 note=67 velocity=107 time=0
EXTRACT: note_on channel=3 note=67 velocity=107 time=0
EXTRACT: note_on channel=3 note=72 velocity=99 time=0
EXTRACT: note_on channel=5 note=48 velocity=102 time=0
EXTRACT: note_on channel=5 note=52 velocity=86 time=0
EXTRACT: note_on channel=5 note=55 velocity=101 time=0
EXTRACT: note_on channel=9 note=38 velocity=124 time=0
EXTRACT: note_on channel=9 note=42 velocity=61 time=0
EXTRACT: note_off channel=9 note=42 velocity=61 time=0.004664166666666666
EXTRACT: note_off channel=9 note=38 velocity=124 time=0
EXTRACT: note_off channel=2 note=67 velocity=107 time=0.09328333333333333
EXTRACT: note_off channel=2 note=64 velocity=105 time=0
EXTRACT: note_off channel=2 note=60 velocity=100 time=0
EXTRACT: note_off channel=5 note=55 velocity=101 time=0
EXTRACT: note_off channel=5 note=52 velocity=86 time=0
EXTRACT: note_off channel=5 note=48 velocity=102 time=0
EXTRACT: note_off channel=3 note=72 velocity=99 time=0.11193999999999998
EXTRACT: note_off channel=3 note=67 velocity=107 time=0
EXTRACT: note_on channel=1 note=31 velocity=122 time=0.013992499999999998
EXTRACT: note_on channel=2 note=60 velocity=110 time=0
EXTRACT: note_on channel=2 note=64 velocity=106 time=0
EXTRACT: note_on channel=2 note=67 velocity=99 time=0
EXTRACT: note_on channel=5 note=48 velocity=99 time=0
EXTRACT: note_on channel=5 note=52 velocity=93 time=0
EXTRACT: note_on channel=5 note=55 velocity=92 time=0
EXTRACT: note_on channel=9 note=81 velocity=97 time=0
EXTRACT: note_on channel=9 note=42 velocity=76 time=0
EXTRACT: note_off channel=9 note=42 velocity=76 time=0.004664166666666666
EXTRACT: note_off channel=9 note=81 velocity=97 time=0
EXTRACT: note_off channel=2 note=67 velocity=99 time=0.09328333333333333
EXTRACT: note_off channel=2 note=64 velocity=106 time=0
EXTRACT: note_off channel=2 note=60 velocity=110 time=0
EXTRACT: note_off channel=5 note=55 velocity=92 time=0
EXTRACT: note_off channel=5 note=52 velocity=93 time=0
EXTRACT: note_off channel=5 note=48 velocity=99 time=0
EXTRACT: note_off channel=1 note=31 velocity=122 time=0.10727583333333332
EXTRACT: note_on channel=1 note=36 velocity=126 time=0.018656666666666665
EXTRACT: note_on channel=3 note=67 velocity=90 time=0
EXTRACT: note_on channel=3 note=70 velocity=96 time=0
EXTRACT: note_on channel=4 note=46 velocity=120 time=0
EXTRACT: note_on channel=9 note=36 velocity=127 time=0
EXTRACT: note_on channel=9 note=42 velocity=75 time=0
EXTRACT: note_off channel=9 note=42 velocity=75 time=0.004664166666666666
EXTRACT: note_off channel=9 note=36 velocity=127 time=0
EXTRACT: control_change channel=3 control=1 value=82 time=0.10727583333333332
EXTRACT: note_off channel=1 note=36 velocity=126 time=0.09328333333333333
EXTRACT: note_on channel=9 note=42 velocity=65 time=0.018656666666666665
EXTRACT: note_off channel=9 note=42 velocity=65 time=0.004664166666666666
EXTRACT: note_on channel=1 note=36 velocity=115 time=0.2192158333333333
EXTRACT: note_on channel=2 note=60 velocity=98 time=0
EXTRACT: note_on channel=2 note=65 velocity=104 time=0
EXTRACT: note_on channel=2 note=67 velocity=111 time=0
EXTRACT: note_on channel=5 note=48 velocity=87 time=0
EXTRACT: note_on channel=5 note=53 velocity=93 time=0
EXTRACT: note_on channel=5 note=55 velocity=90 time=0
EXTRACT: note_on channel=9 note=38 velocity=117 time=0
EXTRACT: note_on channel=9 note=42 velocity=58 time=0
EXTRACT: note_off channel=9 note=42 velocity=58 time=0.004664166666666666
EXTRACT: note_off channel=9 note=38 velocity=117 time=0
EXTRACT: note_off channel=2 note=67 velocity=111 time=0.09328333333333333
EXTRACT: note_off channel=2 note=65 velocity=104 time=0
EXTRACT: note_off channel=2 note=60 velocity=98 time=0
EXTRACT: note_off channel=5 note=55 velocity=90 time=0
EXTRACT: note_off channel=5 note=53 velocity=93 time=0
EXTRACT: note_off channel=5 note=48 velocity=87 time=0
EXTRACT: note_off channel=1 note=36 velocity=115 time=0.10727583333333332
EXTRACT: note_off channel=4 note=46 velocity=120 time=0.004664166666666666
EXTRACT: note_on channel=2 note=60 velocity=95 time=0.013992499999999998
EXTRACT: note_on channel=2 note=65 velocity=105 time=0
EXTRACT: note_on channel=2 note=67 velocity=102 time=0
EXTRACT: note_on channel=4 note=53 velocity=122 time=0
EXTRACT: note_on channel=5 note=48 velocity=97 time=0
EXTRACT: note_on channel=5 note=53 velocity=93 time=0
EXTRACT: note_on channel=5 note=55 velocity=94 time=0
EXTRACT: note_on channel=9 note=42 velocity=68 time=0
EXTRACT: note_off channel=9 note=42 velocity=68 time=0.004664166666666666
EXTRACT: note_off channel=2 note=67 velocity=102 time=0.09328333333333333
EXTRACT: note_off channel=2 note=65 velocity=105 time=0
EXTRACT: note_off channel=2 note=60 velocity=95 time=0
EXTRACT: note_off channel=5 note=55 velocity=94 time=0
EXTRACT: note_off channel=5 note=53 velocity=93 time=0
EXTRACT: note_off channel=5 note=48 velocity=97 time=0
EXTRACT: note_on channel=1 note=31 velocity=119 time=0.1259325
EXTRACT: note_on channel=9 note=36 velocity=127 time=0
EXTRACT: note_on channel=9 note=42 velocity=69 time=0
EXTRACT: note_off channel=9 note=42 velocity=69 time=0.004664166666666666
EXTRACT: note_off channel=9 note=36 velocity=127 time=0
EXTRACT: note_off channel=1 note=31 velocity=119 time=0.20055916666666665
EXTRACT: note_on channel=1 note=36 velocity=119 time=0.018656666666666665
EXTRACT: note_on channel=9 note=42 velocity=60 time=0
EXTRACT: note_off channel=9 note=42 velocity=60 time=0.004664166666666666
EXTRACT: note_off channel=1 note=36 velocity=119 time=0.08861916666666667
EXTRACT: note_off channel=3 note=70 velocity=96 time=0.11660416666666666
EXTRACT: note_off channel=3 note=67 velocity=90 time=0
EXTRACT: note_on channel=2 note=60 velocity=102 time=0.013992499999999998
EXTRACT: note_on channel=2 note=65 velocity=107 time=0
EXTRACT: note_on channel=2 note=67 velocity=98 time=0
EXTRACT: note_on channel=5 note=48 velocity=101 time=0
EXTRACT: note_on channel=5 note=53 velocity=86 time=0
EXTRACT: note_on channel=5 note=55 velocity=98 time=0
EXTRACT: note_on channel=9 note=38 velocity=124 time=0
EXTRACT: note_on channel=9 note=42 velocity=68 time=0
EXTRACT: note_off channel=9 note=42 velocity=68 time=0.004664166666666666
EXTRACT: note_off channel=9 note=38 velocity=124 time=0
EXTRACT: note_off channel=2 note=67 velocity=98 time=0.09328333333333333
EXTRACT: note_off channel=2 note=65 velocity=107 time=0
EXTRACT: note_off channel=2 note=60 velocity=102 time=0
EXTRACT: note_off channel=5 note=55 velocity=98 time=0
EXTRACT: note_off channel=5 note=53 velocity=86 time=0
EXTRACT: note_off channel=5 note=48 velocity=101 time=0
EXTRACT: note_on channel=1 note=31 velocity=118 time=0.1259325
EXTRACT: note_on channel=2 note=60 velocity=105 time=0
EXTRACT: note_on channel=2 note=65 velocity=107 time=0
EXTRACT: note_on channel=2 note=67 velocity=98 time=0
EXTRACT: control_change channel=3 control=1 value=0 time=0
EXTRACT: note_on channel=5 note=48 velocity=90 time=0
EXTRACT: note_on channel=5 note=53 velocity=92 time=0
EXTRACT: note_on channel=5 note=55 velocity=91 time=0
EXTRACT: note_on channel=9 note=42 velocity=75 time=0
EXTRACT: note_off channel=9 note=42 velocity=75 time=0.004664166666666666
EXTRACT: note_off channel=2 note=67 velocity=98 time=0.09328333333333333
EXTRACT: note_off channel=2 note=65 velocity=107 time=0
EXTRACT: note_off channel=2 note=60 velocity=105 time=0
EXTRACT: note_off channel=5 note=55 velocity=91 time=0
EXTRACT: note_off channel=5 note=53 velocity=92 time=0
EXTRACT: note_off channel=5 note=48 velocity=90 time=0
EXTRACT: note_off channel=1 note=31 velocity=118 time=0.10727583333333332
EXTRACT: note_off channel=4 note=53 velocity=122 time=0.004664166666666666
EXTRACT: note_on channel=1 note=36 velocity=124 time=0.013992499999999998
EXTRACT: note_on channel=3 note=60 velocity=91 time=0
EXTRACT: note_on channel=3 note=67 velocity=102 time=0
EXTRACT: note_on channel=4 note=52 velocity=121 time=0
EXTRACT: note_on channel=9 note=36 velocity=127 time=0
EXTRACT: note_on channel=9 note=42 velocity=74 time=0
EXTRACT: note_off channel=9 note=42 velocity=74 time=0.004664166666666666
EXTRACT: note_off channel=9 note=36 velocity=127 time=0
EXTRACT: note_off channel=1 note=36 velocity=124 time=0.20055916666666665
EXTRACT: note_off channel=3 note=67 velocity=102 time=0.004664166666666666
EXTRACT: note_off channel=3 note=60 velocity=91 time=0
EXTRACT: note_off channel=4 note=52 velocity=121 time=0
EXTRACT: note_on channel=4 note=50 velocity=125 time=0.013992499999999998
EXTRACT: note_on channel=9 note=42 velocity=66 time=0
EXTRACT: note_off channel=9 note=42 velocity=66 time=0.004664166666666666
EXTRACT: note_off channel=4 note=50 velocity=125 time=0.2052233333333333
EXTRACT: note_on channel=1 note=36 velocity=113 time=0.013992499999999998
EXTRACT: note_on channel=2 note=60 velocity=96 time=0
EXTRACT: note_on channel=2 note=64 velocity=111 time=0
EXTRACT: note_on channel=2 note=67 velocity=114 time=0
EXTRACT: note_on channel=4 note=57 velocity=127 time=0
EXTRACT: note_on channel=5 note=48 velocity=97 time=0
EXTRACT: note_on channel=5 note=52 velocity=96 time=0
EXTRACT: note_on channel=5 note=55 velocity=98 time=0
EXTRACT: note_on channel=9 note=38 velocity=123 time=0
EXTRACT: note_on channel=9 note=42 velocity=72 time=0
EXTRACT: note_off channel=9 note=42 velocity=72 time=0.004664166666666666
EXTRACT: note_off channel=9 note=38 velocity=123 time=0
EXTRACT: note_off channel=2 note=67 velocity=114 time=0.09328333333333333
EXTRACT: note_off channel=2 note=64 velocity=111 time=0
EXTRACT: note_off channel=2 note=60 velocity=96 time=0
EXTRACT: note_off channel=5 note=55 velocity=98 time=0
EXTRACT: note_off channel=5 note=52 velocity=96 time=0
EXTRACT: note_off channel=5 note=48 velocity=97 time=0
EXTRACT: note_off channel=1 note=36 velocity=113 time=0.10727583333333332
EXTRACT: note_off channel=4 note=57 velocity=127 time=0.004664166666666666
EXTRACT: note_on channel=2 note=60 velocity=96 time=0.013992499999999998
EXTRACT: note_on channel=2 note=64 velocity=102 time=0
EXTRACT: note_on channel=2 note=67 velocity=109 time=0
EXTRACT: note_on channel=5 note=48 velocity=96 time=0
EXTRACT: note_on channel=5 note=52 velocity=91 time=0
EXTRACT: note_on channel=5 note=55 velocity=102 time=0
EXTRACT: note_on channel=9 note=42 velocity=74 time=0
EXTRACT: note_off channel=9 note=42 velocity=74 time=0.004664166666666666
EXTRACT: note_off channel=2 note=67 velocity=109 time=0.09328333333333333
EXTRACT: note_off channel=2 note=64 velocity=102 time=0
EXTRACT: note_off channel=2 note=60 velocity=96 time=0
EXTRACT: note_off channel=5 note=55 velocity=102 time=0
EXTRACT: note_off channel=5 note=52 velocity=91 time=0
EXTRACT: note_off channel=5 note=48 velocity=96 time=0
EXTRACT: note_on channel=1 note=31 velocity=125 time=0.1259325
EXTRACT: note_on channel=4 note=55 velocity=127 time=0
EXTRACT: note_on channel=9 note=36 velocity=127 time=0
EXTRACT: note_on channel=9 note=46 velocity=108 time=0
EXTRACT: note_off channel=9 note=46 velocity=108 time=0.004664166666666666
EXTRACT: note_off channel=9 note=36 velocity=127 time=0
EXTRACT: note_off channel=1 note=31 velocity=125 time=0.20055916666666665
EXTRACT: note_on channel=1 note=36 velocity=120 time=0.018656666666666665
EXTRACT: note_on channel=9 note=42 velocity=60 time=0
EXTRACT: note_off channel=9 note=42 velocity=60 time=0.004664166666666666
EXTRACT: note_off channel=1 note=36 velocity=120 time=0.08861916666666667
EXTRACT: note_off channel=4 note=55 velocity=127 time=0.004664166666666666
EXTRACT: note_on channel=2 note=60 velocity=110 time=0.1259325
EXTRACT: note_on channel=2 note=64 velocity=108 time=0
EXTRACT: note_on channel=2 note=67 velocity=104 time=0
EXTRACT: note_on channel=5 note=48 velocity=97 time=0
EXTRACT: note_on channel=5 note=52 velocity=93 time=0
EXTRACT: note_on channel=5 note=55 velocity=103 time=0
EXTRACT: note_on channel=9 note=38 velocity=127 time=0
EXTRACT: note_on channel=9 note=46 velocity=120 time=0
EXTRACT: note_off channel=9 note=46 velocity=120 time=0.004664166666666666
EXTRACT: note_off channel=9 note=38 velocity=127 time=0
EXTRACT: note_off channel=2 note=67 velocity=104 time=0.09328333333333333
EXTRACT: note_off channel=2 note=64 velocity=108 time=0
EXTRACT: note_off channel=2 note=60 velocity=110 time=0
EXTRACT: note_off channel=5 note=55 velocity=103 time=0
EXTRACT: note_off channel=5 note=52 velocity=93 time=0
EXTRACT: note_off channel=5 note=48 velocity=97 time=0
EXTRACT: note_on channel=1 note=31 velocity=125 time=0.1259325
EXTRACT: note_on channel=2 note=60 velocity=110 time=0
EXTRACT: note_on channel=2 note=64 velocity=113 time=0
EXTRACT: note_on channel=2 note=67 velocity=112 time=0
EXTRACT: note_on channel=5 note=48 velocity=97 time=0
EXTRACT: note_on channel=5 note=52 velocity=89 time=0
EXTRACT: note_on channel=5 note=55 velocity=102 time=0
EXTRACT: note_on channel=9 note=42 velocity=70 time=0
EXTRACT: note_off channel=9 note=42 velocity=70 time=0.004664166666666666
EXTRACT: note_off channel=2 note=67 velocity=112 time=0.09328333333333333
EXTRACT: note_off channel=2 note=64 velocity=113 time=0
EXTRACT: note_off channel=2 note=60 velocity=110 time=0
EXTRACT: note_off channel=5 note=55 velocity=102 time=0
EXTRACT: note_off channel=5 note=52 velocity=89 time=0
EXTRACT: note_off channel=5 note=48 velocity=97 time=0
EXTRACT: note_off channel=1 note=31 velocity=125 time=0.10727583333333332
EXTRACT: note_on channel=1 note=36 velocity=114 time=0.018656666666666665
EXTRACT: note_on channel=3 note=67 velocity=97 time=0
EXTRACT: note_on channel=3 note=70 velocity=94 time=0
EXTRACT: note_on channel=4 note=58 velocity=127 time=0
EXTRACT: note_on channel=9 note=36 velocity=127 time=0
EXTRACT: note_on channel=9 note=42 velocity=65 time=0
EXTRACT: note_off channel=9 note=42 velocity=65 time=0.004664166666666666
EXTRACT: note_off channel=9 note=36 velocity=127 time=0
EXTRACT: control_change channel=3 control=1 value=83 time=0.10727583333333332
EXTRACT: note_off channel=1 note=36 velocity=114 time=0.09328333333333333
EXTRACT: note_on channel=9 note=42 velocity=69 time=0.018656666666666665
EXTRACT: note_off channel=9 note=42 velocity=69 time=0.004664166666666666
EXTRACT: note_on channel=1 note=36 velocity=112 time=0.2192158333333333
EXTRACT: note_on channel=2 note=60 velocity=114 time=0
EXTRACT: note_on channel=2 note=65 velocity=113 time=0
EXTRACT: note_on channel=2 note=67 velocity=102 time=0
EXTRACT: note_on channel=5 note=48 velocity=101 time=0
EXTRACT: note_on channel=5 note=53 velocity=96 time=0
EXTRACT: note_on channel=5 note=55 velocity=88 time=0
EXTRACT: note_on channel=9 note=38 velocity=126 time=0
EXTRACT: note_on channel=9 note=42 velocity=75 time=0
EXTRACT: note_off channel=9 note=42 velocity=75 time=0.004664166666666666
EXTRACT: note_off channel=9 note=38 velocity=126 time=0
EXTRACT: note_off channel=2 note=67 velocity=102 time=0.09328333333333333
EXTRACT: note_off channel=2 note=65 velocity=113 time=0
EXTRACT: note_off channel=2 note=60 velocity=114 time=0
EXTRACT: note_off channel=5 note=55 velocity=88 time=0
EXTRACT: note_off channel=5 note=53 velocity=96 time=0
EXTRACT: note_off channel=5 note=48 velocity=101 time=0
EXTRACT: note_off channel=1 note=36 velocity=112 time=0.10727583333333332
EXTRACT: note_off channel=4 note=58 velocity=127 time=0.004664166666666666
EXTRACT: note_on channel=2 note=60 velocity=97 time=0.013992499999999998
EXTRACT: note_on channel=2 note=65 velocity=104 time=0
EXTRACT: note_on channel=2 note=67 velocity=108 time=0
EXTRACT: note_on channel=4 note=65 velocity=125 time=0
EXTRACT: note_on channel=5 note=48 velocity=95 time=0
EXTRACT: note_on channel=5 note=53 velocity=87 time=0
EXTRACT: note_on channel=5 note=55 velocity=90 time=0
EXTRACT: note_on channel=9 note=42 velocity=68 time=0
EXTRACT: note_off channel=9 note=42 velocity=68 time=0.004664166666666666
EXTRACT: note_off channel=2 note=67 velocity=108 time=0.09328333333333333
EXTRACT: note_off channel=2 note=65 velocity=104 time=0
EXTRACT: note_off channel=2 note=60 velocity=97 time=0
EXTRACT: note_off channel=5 note=55 velocity=90 time=0
EXTRACT: note_off channel=5 note=53 velocity=87 time=0
EXTRACT: note_off channel=5 note=48 velocity=95 time=0
EXTRACT: note_on channel=1 note=31 velocity=124 time=0.1259325
EXTRACT: note_on channel=9 note=36 velocity=127 time=0
EXTRACT: note_on channel=9 note=42 velocity=58 time=0
EXTRACT: note_off channel=9 note=42 velocity=58 time=0.004664166666666666
EXTRACT: note_off channel=9 note=36 velocity=127 time=0
EXTRACT: note_off channel=1 note=31 velocity=124 time=0.20055916666666665
EXTRACT: note_off channel=3 note=70 velocity=94 time=0.004664166666666666
EXTRACT: note_off channel=3 note=67 velocity=97 time=0
EXTRACT: note_on channel=1 note=36 velocity=126 time=0.013992499999999998
EXTRACT: note_on channel=9 note=42 velocity=66 time=0
EXTRACT: note_off channel=9 note=42 velocity=66 time=0.004664166666666666
EXTRACT: note_off channel=1 note=36 velocity=126 time=0.08861916666666667
EXTRACT: note_on channel=2 note=60 velocity=112 time=0.13059666666666667
EXTRACT: note_on channel=2 note=65 velocity=101 time=0
EXTRACT: note_on channel=2 note=67 velocity=98 time=0
EXTRACT: note_on channel=5 note=48 velocity=100 time=0
EXTRACT: note_on channel=5 note=53 velocity=102 time=0
EXTRACT: note_on channel=5 note=55 velocity=95 time=0
EXTRACT: note_on channel=9 note=38 velocity=127 time=0
EXTRACT: note_on channel=9 note=42 velocity=75 time=0
EXTRACT: note_off channel=9 note=42 velocity=75 time=0.004664166666666666
EXTRACT: note_off channel=9 note=38 velocity=127 time=0
EXTRACT: note_off channel=2 note=67 velocity=98 time=0.09328333333333333
EXTRACT: note_off channel=2 note=65 velocity=101 time=0
EXTRACT: note_off channel=2 note=60 velocity=112 time=0
EXTRACT: note_off channel=5 note=55 velocity=95 time=0
EXTRACT: note_off channel=5 note=53 velocity=102 time=0
EXTRACT: note_off channel=5 note=48 velocity=100 time=0
EXTRACT: note_on channel=1 note=31 velocity=126 time=0.1259325
EXTRACT: note_on channel=2 note=60 velocity=107 time=0
EXTRACT: note_on channel=2 note=65 velocity=99 time=0
EXTRACT: note_on channel=2 note=67 velocity=106 time=0
EXTRACT: control_change channel=3 control=1 value=0 time=0
EXTRACT: note_on channel=5 note=48 velocity=86 time=0
EXTRACT: note_on channel=5 note=53 velocity=89 time=0
EXTRACT: note_on channel=5 note=55 velocity=95 time=0
EXTRACT: note_on channel=9 note=42 velocity=61 time=0
EXTRACT: note_off channel=9 note=42 velocity=61 time=0.004664166666666666
EXTRACT: note_off channel=2 note=67 velocity=106 time=0.09328333333333333
EXTRACT: note_off channel=2 note=65 velocity=99 time=0
EXTRACT: note_off channel=2 note=60 velocity=107 time=0
EXTRACT: note_off channel=5 note=55 velocity=95 time=0
EXTRACT: note_off channel=5 note=53 velocity=89 time=0
EXTRACT: note_off channel=5 note=48 velocity=86 time=0
EXTRACT: note_off channel=1 note=31 velocity=126 time=0.10727583333333332
EXTRACT: note_off channel=4 note=65 velocity=125 time=0.004664166666666666
EXTRACT: note_on channel=1 note=36 velocity=118 time=0.013992499999999998
EXTRACT: note_on channel=3 note=60 velocity=105 time=0
EXTRACT: note_on channel=3 note=67 velocity=90 time=0
EXTRACT: note_on channel=4 note=64 velocity=127 time=0
EXTRACT: note_on channel=9 note=36 velocity=127 time=0
EXTRACT: note_on channel=9 note=42 velocity=63 time=0
EXTRACT: note_off channel=9 note=42 velocity=63 time=0.004664166666666666
EXTRACT: note_off channel=9 note=36 velocity=127 time=0
EXTRACT: note_off channel=1 note=36 velocity=118 time=0.20055916666666665
EXTRACT: note_off channel=3 note=67 velocity=90 time=0.004664166666666666
EXTRACT: note_off channel=3 note=60 velocity=105 time=0
EXTRACT: note_off channel=4 note=64 velocity=127 time=0
EXTRACT: note_on channel=4 note=62 velocity=119 time=0.013992499999999998
EXTRACT: note_on channel=9 note=42 velocity=67 time=0
EXTRACT: note_off channel=9 note=42 velocity=67 time=0.004664166666666666
EXTRACT: note_off channel=4 note=62 velocity=119 time=0.2052233333333333
EXTRACT: note_on channel=1 note=36 velocity=115 time=0.013992499999999998
EXTRACT: note_on channel=2 note=60 velocity=111 time=0
EXTRACT: note_on channel=2 note=64 velocity=100 time=0
EXTRACT: note_on channel=2 note=67 velocity=107 time=0
EXTRACT: note_on channel=4 note=60 velocity=121 time=0
EXTRACT: note_on channel=5 note=48 velocity=86 time=0
EXTRACT: note_on channel=5 note=52 velocity=92 time=0
EXTRACT: note_on channel=5 note=55 velocity=96 time=0
EXTRACT: note_on channel=9 note=38 velocity=114 time=0
EXTRACT: note_on channel=9 note=42 velocity=69 time=0
EXTRACT: note_off channel=9 note=42 velocity=69 time=0.004664166666666666
EXTRACT: note_off channel=9 note=38 velocity=114 time=0
EXTRACT: note_off channel=2 note=67 velocity=107 time=0.09328333333333333
EXTRACT: note_off channel=2 note=64 velocity=100 time=0
EXTRACT: note_off channel=2 note=60 velocity=111 time=0
EXTRACT: note_off channel=5 note=55 velocity=96 time=0
EXTRACT: note_off channel=5 note=52 velocity=92 time=0
EXTRACT: note_off channel=5 note=48 velocity=86 time=0
EXTRACT: note_off channel=1 note=36 velocity=115 time=0.10727583333333332
EXTRACT: note_off channel=4 note=60 velocity=121 time=0.004664166666666666
EXTRACT: note_on channel=2 note=60 velocity=106 time=0.013992499999999998
EXTRACT: note_on channel=2 note=64 velocity=95 time=0
EXTRACT: note_on channel=2 note=67 velocity=99 time=0
EXTRACT: note_on channel=5 note=48 velocity=103 time=0
EXTRACT: note_on channel=5 note=52 velocity=95 time=0
EXTRACT: note_on channel=5 note=55 velocity=93 time=0
EXTRACT: note_on channel=9 note=42 velocity=75 time=0
EXTRACT: note_off channel=9 note=42 velocity=75 time=0.004664166666666666
EXTRACT: note_off channel=2 note=67 velocity=99 time=0.09328333333333333
EXTRACT: note_off channel=2 note=64 velocity=95 time=0
EXTRACT: note_off channel=2 note=60 velocity=106 time=0
EXTRACT: note_off channel=5 note=55 velocity=93 time=0
EXTRACT: note_off channel=5 note=52 velocity=95 time=0
EXTRACT: note_off channel=5 note=48 velocity=103 time=0
EXTRACT: note_on channel=1 note=31 velocity=111 time=0.1259325
EXTRACT: note_on channel=4 note=60 velocity=127 time=0
EXTRACT: note_on channel=9 note=36 velocity=127 time=0
EXTRACT: note_on channel=9 note=42 velocity=62 time=0
EXTRACT: note_off channel=9 note=42 velocity=62 time=0.004664166666666666
EXTRACT: note_off channel=9 note=36 velocity=127 time=0
EXTRACT: note_off channel=1 note=31 velocity=111 time=0.20055916666666665
EXTRACT: note_off channel=4 note=60 velocity=127 time=0.004664166666666666
EXTRACT: note_on channel=1 note=36 velocity=112 time=0.013992499999999998
EXTRACT: note_on channel=9 note=81 velocity=98 time=0
EXTRACT: note_on channel=9 note=42 velocity=64 time=0
EXTRACT: note_off channel=9 note=42 velocity=64 time=0.004664166666666666
EXTRACT: note_off channel=9 note=81 velocity=98 time=0
EXTRACT: note_off channel=1 note=36 velocity=112 time=0.08861916666666667
EXTRACT: note_on channel=2 note=60 velocity=98 time=0.13059666666666667
EXTRACT: note_on channel=2 note=64 velocity=113 time=0
EXTRACT: note_on channel=2 note=67 velocity=108 time=0
EXTRACT: note_on channel=3 note=67 velocity=100 time=0
EXTRACT: note_on channel=3 note=72 velocity=104 time=0
EXTRACT: note_on channel=5 note=48 velocity=87 time=0
EXTRACT: note_on channel=5 note=52 velocity=100 time=0
EXTRACT: note_on channel=5 note=55 velocity=90 time=0
EXTRACT: note_on channel=9 note=38 velocity=113 time=0
EXTRACT: note_on channel=9 note=42 velocity=74 time=0
EXTRACT: note_off channel=9 note=42 velocity=74 time=0.004664166666666666
EXTRACT: note_off channel=9 note=38 velocity=113 time=0
EXTRACT: note_off channel=2 note=67 velocity=108 time=0.09328333333333333
EXTRACT: note_off channel=2 note=64 velocity=113 time=0
EXTRACT: note_off channel=2 note=60 velocity=98 time=0
EXTRACT: note_off channel=5 note=55 velocity=90 time=0
EXTRACT: note_off channel=5 note=52 velocity=100 time=0
EXTRACT: note_off channel=5 note=48 velocity=87 time=0
EXTRACT: note_off channel=3 note=72 velocity=104 time=0.11193999999999998
EXTRACT: note_off channel=3 note=67 velocity=100 time=0
EXTRACT: note_on channel=1 note=31 velocity=126 time=0.013992499999999998
EXTRACT: note_on channel=2 note=60 velocity=98 time=0
EXTRACT: note_on channel=2 note=64 velocity=113 time=0
EXTRACT: note_on channel=2 note=67 velocity=109 time=0
EXTRACT: note_on channel=5 note=48 velocity=90 time=0
EXTRACT: note_on channel=5 note=52 velocity=94 time=0
EXTRACT: note_on channel=5 note=55 velocity=103 time=0
EXTRACT: note_on channel=9 note=81 velocity=94 time=0
EXTRACT: note_on channel=9 note=42 velocity=69 time=0
EXTRACT: note_off channel=9 note=42 velocity=69 time=0.004664166666666666
EXTRACT: note_off channel=9 note=81 velocity=94 time=0
EXTRACT: note_off channel=2 note=67 velocity=109 time=0.09328333333333333
EXTRACT: note_off channel=2 note=64 velocity=113 time=0
EXTRACT: note_off channel=2 note=60 velocity=98 time=0
EXTRACT: note_off channel=5 note=55 velocity=103 time=0
EXTRACT: note_off channel=5 note=52 velocity=94 time=0
EXTRACT: note_off channel=5 note=48 velocity=90 time=0
EXTRACT: note_off channel=1 note=31 velocity=126 time=0.10727583333333332
EXTRACT: note_on channel=1 note=36 velocity=113 time=0.018656666666666665
EXTRACT: note_on channel=3 note=67 velocity=105 time=0
EXTRACT: note_on channel=3 note=70 velocity=95 time=0
EXTRACT: note_on channel=4 note=58 velocity=116 time=0
EXTRACT: note_on channel=9 note=36 velocity=127 time=0
EXTRACT: note_on channel=9 note=42 velocity=66 time=0
EXTRACT: note_off channel=9 note=42 velocity=66 time=0.004664166666666666
EXTRACT: note_off channel=9 note=36 velocity=127 time=0
EXTRACT: control_change channel=3 control=1 value=82 time=0.10727583333333332
EXTRACT: note_off channel=1 note=36 velocity=113 time=0.09328333333333333
EXTRACT: note_on channel=9 note=42 velocity=63 time=0.018656666666666665
EXTRACT: note_off channel=9 note=42 velocity=63 time=0.004664166666666666
EXTRACT: note_on channel=1 note=36 velocity=108 time=0.2192158333333333
EXTRACT: note_on channel=2 note=60 velocity=110 time=0
EXTRACT: note_on channel=2 note=65 velocity=110 time=0
EXTRACT: note_on channel=2 note=67 velocity=110 time=0
EXTRACT: note_on channel=5 note=48 velocity=87 time=0
EXTRACT: note_on channel=5 note=53 velocity=104 time=0
EXTRACT: note_on channel=5 note=55 velocity=101 time=0
EXTRACT: note_on channel=9 note=38 velocity=113 time=0
EXTRACT: note_on channel=9 note=42 velocity=68 time=0
EXTRACT: note_off channel=9 note=42 velocity=68 time=0.004664166666666666
EXTRACT: note_off channel=9 note=38 velocity=113 time=0
EXTRACT: note_off channel=2 note=67 velocity=110 time=0.09328333333333333
EXTRACT: note_off channel=2 note=65 velocity=110 time=0
EXTRACT: note_off channel=2 note=60 velocity=110 time=0
EXTRACT: note_off channel=5 note=55 velocity=101 time=0
EXTRACT: note_off channel=5 note=53 velocity=104 time=0
EXTRACT: note_off channel=5 note=48 velocity=87 time=0
EXTRACT: note_off channel=1 note=36 velocity=108 time=0.10727583333333332
EXTRACT: note_off channel=4 note=58 velocity=116 time=0.004664166666666666
EXTRACT: note_on channel=2 note=60 velocity=107 time=0.013992499999999998
EXTRACT: note_on channel=2 note=65 velocity=100 time=0
EXTRACT: note_on channel=2 note=67 velocity=97 time=0
EXTRACT: note_on channel=4 note=65 velocity=120 time=0
EXTRACT: note_on channel=5 note=48 velocity=89 time=0
EXTRACT: note_on channel=5 note=53 velocity=105 time=0
EXTRACT: note_on channel=5 note=55 velocity=90 time=0
EXTRACT: note_on channel=9 note=42 velocity=63 time=0
EXTRACT: note_off channel=9 note=42 velocity=63 time=0.004664166666666666
EXTRACT: note_off channel=2 note=67 velocity=97 time=0.09328333333333333
EXTRACT: note_off channel=2 note=65 velocity=100 time=0
EXTRACT: note_off channel=2 note=60 velocity=107 time=0
EXTRACT: note_off channel=5 note=55 velocity=90 time=0
EXTRACT: note_off channel=5 note=53 velocity=105 time=0
EXTRACT: note_off channel=5 note=48 velocity=89 time=0
EXTRACT: note_on channel=1 note=31 velocity=112 time=0.1259325
EXTRACT: note_on channel=9 note=36 velocity=127 time=0
EXTRACT: note_on channel=9 note=42 velocity=61 time=0
EXTRACT: note_off channel=9 note=42 velocity=61 time=0.004664166666666666
EXTRACT: note_off channel=9 note=36 velocity=127 time=0
EXTRACT: note_off channel=1 note=31 velocity=112 time=0.20055916666666665
EXTRACT: note_on channel=1 note=36 velocity=125 time=0.018656666666666665
EXTRACT: note_on channel=9 note=42 velocity=62 time=0
EXTRACT: note_off channel=9 note=42 velocity=62 time=0.004664166666666666
EXTRACT: note_off channel=1 note=36 velocity=125 time=0.08861916666666667
EXTRACT: note_off channel=4 note=65 velocity=120 time=0.004664166666666666
EXTRACT: note_off channel=3 note=70 velocity=95 time=0.11193999999999998
EXTRACT: note_off channel=3 note=67 velocity=105 time=0
EXTRACT: note_on channel=2 note=60 velocity=114 time=0.013992499999999998
EXTRACT: note_on channel=2 note=65 velocity=112 time=0
EXTRACT: note_on channel=2 note=67 velocity=103 time=0
EXTRACT: note_on channel=4 note=65 velocity=119 time=0
EXTRACT: note_on channel=5 note=48 velocity=97 time=0
EXTRACT: note_on channel=5 note=53 velocity=90 time=0
EXTRACT: note_on channel=5 note=55 velocity=103 time=0
EXTRACT: note_on channel=9 note=38 velocity=123 time=0
EXTRACT: note_on channel=9 note=42 velocity=67 time=0
EXTRACT: note_off channel=9 note=42 velocity=67 time=0.004664166666666666
EXTRACT: note_off channel=9 note=38 velocity=123 time=0
EXTRACT: note_off channel=2 note=67 velocity=103 time=0.09328333333333333
EXTRACT: note_off channel=2 note=65 velocity=112 time=0
EXTRACT: note_off channel=2 note=60 velocity=114 time=0
EXTRACT: note_off channel=4 note=65 velocity=119 time=0
EXTRACT: note_off channel=5 note=55 velocity=103 time=0
EXTRACT: note_off channel=5 note=53 velocity=90 time=0
EXTRACT: note_off channel=5 note=48 velocity=97 time=0
EXTRACT: note_on channel=4 note=64 velocity=124 time=0.013992499999999998
EXTRACT: note_off channel=4 note=64 velocity=124 time=0.09794749999999999
EXTRACT: note_on channel=1 note=31 velocity=119 time=0.013992499999999998
EXTRACT: note_on channel=2 note=60 velocity=99 time=0
EXTRACT: note_on channel=2 note=65 velocity=106 time=0
EXTRACT: note_on channel=2 note=67 velocity=113 time=0
EXTRACT: control_change channel=3 control=1 value=0 time=0
EXTRACT: note_on channel=4 note=65 velocity=126 time=0
EXTRACT: note_on channel=5 note=48 velocity=89 time=0
EXTRACT: note_on channel=5 note=53 velocity=103 time=0
EXTRACT: note_on channel=5 note=55 velocity=99 time=0
EXTRACT: note_on channel=9 note=42 velocity=70 time=0
EXTRACT: note_off channel=9 note=42 velocity=70 time=0.004664166666666666
EXTRACT: note_off channel=2 note=67 velocity=113 time=0.09328333333333333
EXTRACT: note_off channel=2 note=65 velocity=106 time=0
EXTRACT: note_off channel=2 note=60 velocity=99 time=0
EXTRACT: note_off channel=4 note=65 velocity=126 time=0
EXTRACT: note_off channel=5 note=55 velocity=99 time=0
EXTRACT: note_off channel=5 note=53 velocity=103 time=0
EXTRACT: note_off channel=5 note=48 velocity=89 time=0
EXTRACT: note_on channel=4 note=64 velocity=113 time=0.013992499999999998
EXTRACT: note_off channel=1 note=31 velocity=119 time=0.09328333333333333
EXTRACT: note_off channel=4 note=64 velocity=113 time=0.004664166666666666
EXTRACT: note_on channel=1 note=36 velocity=119 time=0.013992499999999998
EXTRACT: note_on channel=3 note=60 velocity=92 time=0
EXTRACT: note_on channel=3 note=67 velocity=96 time=0
EXTRACT: note_on channel=4 note=60 velocity=119 time=0
EXTRACT: note_on channel=9 note=36 velocity=127 time=0
EXTRACT: note_on channel=9 note=42 velocity=58 time=0
EXTRACT: note_off channel=9 note=42 velocity=58 time=0.004664166666666666
EXTRACT: note_off channel=9 note=36 velocity=127 time=0
EXTRACT: note_off channel=1 note=36 velocity=119 time=0.20055916666666665
EXTRACT: note_off channel=3 note=67 velocity=96 time=0.004664166666666666
EXTRACT: note_off channel=3 note=60 velocity=92 time=0
EXTRACT: note_on channel=9 note=42 velocity=76 time=0.013992499999999998
EXTRACT: note_off channel=9 note=42 velocity=76 time=0.004664166666666666
EXTRACT: note_on channel=1 note=36 velocity=116 time=0.2192158333333333
EXTRACT: note_on channel=2 note=60 velocity=100 time=0
EXTRACT: note_on channel=2 note=64 velocity=111 time=0
EXTRACT: note_on channel=2 note=67 velocity=107 time=0
EXTRACT: note_on channel=5 note=48 velocity=105 time=0
EXTRACT: note_on channel=5 note=52 velocity=100 time=0
EXTRACT: note_on channel=5 note=55 velocity=105 time=0
EXTRACT: note_on channel=9 note=38 velocity=113 time=0
EXTRACT: note_on channel=9 note=42 velocity=60 time=0
EXTRACT: note_off channel=9 note=42 velocity=60 time=0.004664166666666666
EXTRACT: note_off channel=9 note=38 velocity=113 time=0
EXTRACT: note_off channel=2 note=67 velocity=107 time=0.09328333333333333
EXTRACT: note_off channel=2 note=64 velocity=111 time=0
EXTRACT: note_off channel=2 note=60 velocity=100 time=0
EXTRACT: note_off channel=5 note=55 velocity=105 time=0
EXTRACT: note_off channel=5 note=52 velocity=100 time=0
EXTRACT: note_off channel=5 note=48 velocity=105 time=0
EXTRACT: note_off channel=1 note=36 velocity=116 time=0.10727583333333332
EXTRACT: note_on channel=2 note=60 velocity=112 time=0.018656666666666665
EXTRACT: note_on channel=2 note=64 velocity=99 time=0
EXTRACT: note_on channel=2 note=67 velocity=101 time=0
EXTRACT: note_on channel=5 note=48 velocity=93 time=0
EXTRACT: note_on channel=5 note=52 velocity=97 time=0
EXTRACT: note_on channel=5 note=55 velocity=105 time=0
EXTRACT: note_on channel=9 note=42 velocity=60 time=0
EXTRACT: note_off channel=9 note=42 velocity=60 time=0.004664166666666666
EXTRACT: note_off channel=2 note=67 velocity=101 time=0.09328333333333333
EXTRACT: note_off channel=2 note=64 velocity=99 time=0
EXTRACT: note_off channel=2 note=60 velocity=112 time=0
EXTRACT: note_off channel=5 note=55 velocity=105 time=0
EXTRACT: note_off channel=5 note=52 velocity=97 time=0
EXTRACT: note_off channel=5 note=48 velocity=93 time=0
EXTRACT: note_on channel=1 note=31 velocity=118 time=0.1259325
EXTRACT: note_on channel=9 note=36 velocity=127 time=0
EXTRACT: note_on channel=9 note=46 velocity=110 time=0
EXTRACT: note_off channel=9 note=46 velocity=110 time=0.004664166666666666
EXTRACT: note_off channel=9 note=36 velocity=127 time=0
EXTRACT: note_off channel=1 note=31 velocity=118 time=0.20055916666666665
EXTRACT: note_on channel=1 note=36 velocity=109 time=0.018656666666666665
EXTRACT: note_on channel=9 note=81 velocity=106 time=0
EXTRACT: note_on channel=9 note=42 velocity=67 time=0
EXTRACT: note_off channel=9 note=42 velocity=67 time=0.004664166666666666
EXTRACT: note_off channel=9 note=81 velocity=106 time=0
EXTRACT: note_off channel=1 note=36 velocity=109 time=0.08861916666666667
EXTRACT: note_off channel=4 note=60 velocity=119 time=0.004664166666666666
EXTRACT: note_on channel=2 note=60 velocity=111 time=0.1259325
EXTRACT: note_on channel=2 note=64 velocity=105 time=0
EXTRACT: note_on channel=2 note=67 velocity=101 time=0
EXTRACT: note_on channel=5 note=48 velocity=90 time=0
EXTRACT: note_on channel=5 note=52 velocity=92 time=0
EXTRACT: note_on channel=5 note=55 velocity=87 time=0
EXTRACT: note_on channel=9 note=38 velocity=118 time=0
EXTRACT: note_on channel=9 note=46 velocity=117 time=0
EXTRACT: note_off channel=9 note=46 velocity=117 time=0.004664166666666666
EXTRACT: note_off channel=9 note=38 velocity=118 time=0
EXTRACT: note_off channel=2 note=67 velocity=101 time=0.09328333333333333
EXTRACT: note_off channel=2 note=64 velocity=105 time=0
EXTRACT: note_off channel=2 note=60 velocity=111 time=0
EXTRACT: note_off channel=5 note=55 velocity=87 time=0
EXTRACT: note_off channel=5 note=52 velocity=92 time=0
EXTRACT: note_off channel=5 note=48 velocity=90 time=0
EXTRACT: note_on channel=1 note=31 velocity=114 time=0.1259325
EXTRACT: note_on channel=2 note=60 velocity=99 time=0
EXTRACT: note_on channel=2 note=64 velocity=100 time=0
EXTRACT: note_on channel=2 note=67 velocity=108 time=0
EXTRACT: note_on channel=5 note=48 velocity=102 time=0
EXTRACT: note_on channel=5 note=52 velocity=103 time=0
EXTRACT: note_on channel=5 note=55 velocity=103 time=0
EXTRACT: note_on channel=9 note=81 velocity=92 time=0
EXTRACT: note_on channel=9 note=42 velocity=74 time=0
EXTRACT: note_off channel=9 note=42 velocity=74 time=0.004664166666666666
EXTRACT: note_off channel=9 note=81 velocity=92 time=0
EXTRACT: note_off channel=2 note=67 velocity=108 time=0.09328333333333333
EXTRACT: note_off channel=2 note=64 velocity=100 time=0
EXTRACT: note_off channel=2 note=60 velocity=99 time=0
EXTRACT: note_off channel=5 note=55 velocity=103 time=0
EXTRACT: note_off channel=5 note=52 velocity=103 time=0
EXTRACT: note_off channel=5 note=48 velocity=102 time=0
EXTRACT: note_off channel=1 note=31 velocity=114 time=0.10727583333333332
EXTRACT: note_on channel=1 note=36 velocity=123 time=0.018656666666666665
EXTRACT: note_on channel=3 note=67 velocity=108 time=0
EXTRACT: note_on channel=3 note=70 velocity=93 time=0
EXTRACT: note_on channel=9 note=36 velocity=127 time=0
EXTRACT: note_on channel=9 note=49 velocity=106 time=0
EXTRACT: note_on channel=13 note=48 velocity=117 time=0
EXTRACT: note_off channel=9 note=49 velocity=106 time=0.004664166666666666
EXTRACT: note_off channel=9 note=36 velocity=127 time=0
EXTRACT: control_change channel=3 control=1 value=83 time=0.10727583333333332
EXTRACT: note_off channel=1 note=36 velocity=123 time=0.09328333333333333
EXTRACT: note_off channel=13 note=48 velocity=117 time=0
EXTRACT: note_on channel=9 note=42 velocity=67 time=0.018656666666666665
EXTRACT: note_off channel=9 note=42 velocity=67 time=0.004664166666666666
EXTRACT: note_on channel=1 note=36 velocity=111 time=0.2192158333333333
EXTRACT: note_on channel=2 note=60 velocity=98 time=0
EXTRACT: note_on channel=2 note=65 velocity=106 time=0
EXTRACT: note_on channel=2 note=67 velocity=111 time=0
EXTRACT: note_on channel=5 note=48 velocity=101 time=0
EXTRACT: note_on channel=5 note=53 velocity=93 time=0
EXTRACT: note_on channel=5 note=55 velocity=91 time=0
EXTRACT: note_on channel=9 note=38 velocity=122 time=0
EXTRACT: note_on channel=9 note=42 velocity=75 time=0
EXTRACT: note_off channel=9 note=42 velocity=75 time=0.004664166666666666
EXTRACT: note_off channel=9 note=38 velocity=122 time=0
EXTRACT: note_off channel=2 note=67 velocity=111 time=0.09328333333333333
EXTRACT: note_off channel=2 note=65 velocity=106 time=0
EXTRACT: note_off channel=2 note=60 velocity=98 time=0
EXTRACT: note_off channel=5 note=55 velocity=91 time=0
EXTRACT: note_off channel=5 note=53 velocity=93 time=0
EXTRACT: note_off channel=5 note=48 velocity=101 time=0
EXTRACT: note_off channel=1 note=36 velocity=111 time=0.10727583333333332
EXTRACT: note_on channel=2 note=60 velocity=97 time=0.018656666666666665
EXTRACT: note_on channel=2 note=65 velocity=106 time=0
EXTRACT: note_on channel=2 note=67 velocity=114 time=0
EXTRACT: note_on channel=5 note=48 velocity=86 time=0
EXTRACT: note_on channel=5 note=53 velocity=102 time=0
EXTRACT: note_on channel=5 note=55 velocity=98 time=0
EXTRACT: note_on channel=9 note=42 velocity=69 time=0
EXTRACT: note_on channel=13 note=48 velocity=104 time=0
EXTRACT: note_off channel=9 note=42 velocity=69 time=0.004664166666666666
EXTRACT: note_off channel=2 note=67 velocity=114 time=0.09328333333333333
EXTRACT: note_off channel=2 note=65 velocity=106 time=0
EXTRACT: note_off channel=2 note=60 velocity=97 time=0
EXTRACT: note_off channel=5 note=55 velocity=98 time=0
EXTRACT: note_off channel=5 note=53 velocity=102 time=0
EXTRACT: note_off channel=5 note=48 velocity=86 time=0
EXTRACT: note_off channel=13 note=48 velocity=104 time=0.10727583333333332
EXTRACT: note_on channel=1 note=31 velocity=115 time=0.018656666666666665
EXTRACT: note_on channel=9 note=36 velocity=127 time=0
EXTRACT: note_on channel=9 note=42 velocity=72 time=0
EXTRACT: note_off channel=9 note=42 velocity=72 time=0.004664166666666666
EXTRACT: note_off channel=9 note=36 velocity=127 time=0
EXTRACT: note_off channel=1 note=31 velocity=115 time=0.20055916666666665
EXTRACT: note_off channel=3 note=70 velocity=93 time=0.004664166666666666
EXTRACT: note_off channel=3 note=67 velocity=108 time=0
EXTRACT: note_on channel=1 note=36 velocity=108 time=0.013992499999999998
EXTRACT: note_on channel=9 note=42 velocity=73 time=0
EXTRACT: note_on channel=13 note=48 velocity=118 time=0
EXTRACT: note_off channel=9 note=42 velocity=73 time=0.004664166666666666
EXTRACT: note_off channel=1 note=36 velocity=108 time=0.08861916666666667
EXTRACT: note_off channel=13 note=48 velocity=118 time=0.11193999999999998
EXTRACT: note_on channel=2 note=60 velocity=97 time=0.018656666666666665
EXTRACT: note_on channel=2 note=65 velocity=113 time=0
EXTRACT: note_on channel=2 note=67 velocity=102 time=0
EXTRACT: note_on channel=5 note=48 velocity=99 time=0
EXTRACT: note_on channel=5 note=53 velocity=101 time=0
EXTRACT: note_on channel=5 note=55 velocity=102 time=0
EXTRACT: note_on channel=9 note=38 velocity=116 time=0
EXTRACT: note_on channel=9 note=42 velocity=75 time=0
EXTRACT: note_on channel=13 note=48 velocity=117 time=0
EXTRACT: note_off channel=9 note=42 velocity=75 time=0.004664166666666666
EXTRACT: note_off channel=9 note=38 velocity=116 time=0
EXTRACT: note_off channel=2 note=67 velocity=102 time=0.09328333333333333
EXTRACT: note_off channel=2 note=65 velocity=113 time=0
EXTRACT: note_off channel=2 note=60 velocity=97 time=0
EXTRACT: note_off channel=5 note=55 velocity=102 time=0
EXTRACT: note_off channel=5 note=53 velocity=101 time=0
EXTRACT: note_off channel=5 note=48 velocity=99 time=0
EXTRACT: note_off channel=13 note=48 velocity=117 time=0.10727583333333332
EXTRACT: note_on channel=1 note=31 velocity=108 time=0.018656666666666665
EXTRACT: note_on channel=2 note=60 velocity=100 time=0
EXTRACT: note_on channel=2 note=65 velocity=105 time=0
EXTRACT: note_on channel=2 note=67 velocity=110 time=0
EXTRACT: control_change channel=3 control=1 value=0 time=0
EXTRACT: note_on channel=5 note=48 velocity=93 time=0
EXTRACT: note_on channel=5 note=53 velocity=103 time=0
EXTRACT: note_on channel=5 note=55 velocity=89 time=0
EXTRACT: note_on channel=9 note=42 velocity=70 time=0
EXTRACT: note_on channel=13 note=48 velocity=120 time=0
EXTRACT: note_off channel=9 note=42 velocity=70 time=0.004664166666666666
EXTRACT: note_off channel=2 note=67 velocity=110 time=0.09328333333333333
EXTRACT: note_off channel=2 note=65 velocity=105 time=0
EXTRACT: note_off channel=2 note=60 velocity=100 time=0
EXTRACT: note_off channel=5 note=55 velocity=89 time=0
EXTRACT: note_off channel=5 note=53 velocity=103 time=0
EXTRACT: note_off channel=5 note=48 velocity=93 time=0
EXTRACT: note_off channel=1 note=31 velocity=108 time=0.10727583333333332
EXTRACT: note_off channel=13 note=48 velocity=120 time=0
EXTRACT: note_on channel=1 note=36 velocity=119 time=0.018656666666666665
EXTRACT: note_on channel=9 note=36 velocity=125 time=0
EXTRACT: note_on channel=9 note=42 velocity=65 time=0
EXTRACT: note_on channel=13 note=48 velocity=106 time=0
EXTRACT: note_off channel=9 note=42 velocity=65 time=0.004664166666666666
EXTRACT: note_off channel=9 note=36 velocity=125 time=0
EXTRACT: note_off channel=1 note=36 velocity=119 time=0.20055916666666665
EXTRACT: note_off channel=13 note=48 velocity=106 time=0
EXTRACT: note_on channel=9 note=42 velocity=62 time=0.018656666666666665
EXTRACT: note_on channel=13 note=48 velocity=110 time=0
EXTRACT: note_off channel=9 note=42 velocity=62 time=0.004664166666666666
EXTRACT: note_off channel=13 note=48 velocity=110 time=0.20055916666666665
EXTRACT: note_on channel=1 note=36 velocity=125 time=0.018656666666666665
EXTRACT: note_on channel=2 note=60 velocity=98 time=0
EXTRACT: note_on channel=2 note=64 velocity=98 time=0
EXTRACT: note_on channel=2 note=67 velocity=108 time=0
EXTRACT: note_on channel=5 note=48 velocity=94 time=0
EXTRACT: note_on channel=5 note=52 velocity=86 time=0
EXTRACT: note_on channel=5 note=55 velocity=90 time=0
EXTRACT: note_on channel=9 note=38 velocity=127 time=0
EXTRACT: note_on channel=9 note=42 velocity=64 time=0
EXTRACT: note_on channel=13 note=48 velocity=120 time=0
EXTRACT: note_off channel=9 note=42 velocity=64 time=0.004664166666666666
EXTRACT: note_off channel=9 note=38 velocity=127 time=0
EXTRACT: note_off channel=2 note=67 velocity=108 time=0.09328333333333333
EXTRACT: note_off channel=2 note=64 velocity=98 time=0
EXTRACT: note_off channel=2 note=60 velocity=98 time=0
EXTRACT: note_off channel=5 note=55 velocity=90 time=0
EXTRACT: note_off channel=5 note=52 velocity=86 time=0
EXTRACT: note_off channel=5 note=48 velocity=94 time=0
EXTRACT: note_off channel=1 note=36 velocity=125 time=0.10727583333333332
EXTRACT: note_off channel=13 note=48 velocity=120 time=0
EXTRACT: note_on channel=2 note=60 velocity=105 time=0.018656666666666665
EXTRACT: note_on channel=2 note=64 velocity=111 time=0
EXTRACT: note_on channel=2 note=67 velocity=107 time=0
EXTRACT: note_on channel=5 note=48 velocity=88 time=0
EXTRACT: note_on channel=5 note=52 velocity=93 time=0
EXTRACT: note_on channel=5 note=55 velocity=96 time=0
EXTRACT: note_on channel=9 note=42 velocity=64 time=0
EXTRACT: note_off channel=9 note=42 velocity=64 time=0.004664166666666666
EXTRACT: note_off channel=2 note=67 velocity=107 time=0.09328333333333333
EXTRACT: note_off channel=2 note=64 velocity=111 time=0
EXTRACT: note_off channel=2 note=60 velocity=105 time=0
EXTRACT: note_off channel=5 note=55 velocity=96 time=0
EXTRACT: note_off channel=5 note=52 velocity=93 time=0
EXTRACT: note_off channel=5 note=48 velocity=88 time=0
EXTRACT: note_on channel=1 note=31 velocity=111 time=0.1259325
EXTRACT: note_on channel=9 note=36 velocity=127 time=0
EXTRACT: note_on channel=9 note=42 velocity=58 time=0
EXTRACT: note_on channel=13 note=48 velocity=107 time=0
EXTRACT: note_off channel=9 note=42 velocity=58 time=0.004664166666666666
EXTRACT: note_off channel=9 note=36 velocity=127 time=0
EXTRACT: note_off channel=1 note=31 velocity=111 time=0.20055916666666665
EXTRACT: note_off channel=13 note=48 velocity=107 time=0
EXTRACT: note_on channel=1 note=36 velocity=117 time=0.018656666666666665
EXTRACT: note_on channel=9 note=42 velocity=61 time=0
EXTRACT: note_on channel=12 note=60 velocity=99 time=0
EXTRACT: note_off channel=9 note=42 velocity=61 time=0.004664166666666666
EXTRACT: note_off channel=1 note=36 velocity=117 time=0.08861916666666667
EXTRACT: note_off channel=12 note=60 velocity=99 time=0.11193999999999998
EXTRACT: note_on channel=2 note=60 velocity=113 time=0.018656666666666665
EXTRACT: note_on channel=2 note=64 velocity=103 time=0
EXTRACT: note_on channel=2 note=67 velocity=109 time=0
EXTRACT: note_on channel=5 note=48 velocity=104 time=0
EXTRACT: note_on channel=5 note=52 velocity=87 time=0
EXTRACT: note_on channel=5 note=55 velocity=92 time=0
EXTRACT: note_on channel=9 note=38 velocity=127 time=0
EXTRACT: note_on channel=9 note=42 velocity=60 time=0
EXTRACT: note_on channel=12 note=72 velocity=94 time=0
EXTRACT: note_off channel=9 note=42 velocity=60 time=0.004664166666666666
EXTRACT: note_off channel=9 note=38 velocity=127 time=0
EXTRACT: note_off channel=2 note=67 velocity=109 time=0.09328333333333333
EXTRACT: note_off channel=2 note=64 velocity=103 time=0
EXTRACT: note_off channel=2 note=60 velocity=113 time=0
EXTRACT: note_off channel=5 note=55 velocity=92 time=0
EXTRACT: note_off channel=5 note=52 velocity=87 time=0
EXTRACT: note_off channel=5 note=48 velocity=104 time=0
EXTRACT: note_off channel=12 note=72 velocity=94 time=0.10727583333333332
EXTRACT: note_on channel=1 note=29 velocity=115 time=0.018656666666666665
EXTRACT: note_on channel=2 note=60 velocity=107 time=0
EXTRACT: note_on channel=2 note=64 velocity=101 time=0
EXTRACT: note_on channel=2 note=67 velocity=114 time=0
EXTRACT: note_on channel=5 note=48 velocity=91 time=0
EXTRACT: note_on channel=5 note=52 velocity=91 time=0
EXTRACT: note_on channel=5 note=55 velocity=101 time=0
EXTRACT: note_on channel=9 note=42 velocity=72 time=0
EXTRACT: note_on channel=12 note=72 velocity=93 time=0
EXTRACT: note_off channel=9 note=42 velocity=72 time=0.004664166666666666
EXTRACT: note_off channel=2 note=67 velocity=114 time=0.09328333333333333
EXTRACT: note_off channel=2 note=64 velocity=101 time=0
EXTRACT: note_off channel=2 note=60 velocity=107 time=0
EXTRACT: note_off channel=5 note=55 velocity=101 time=0
EXTRACT: note_off channel=5 note=52 velocity=91 time=0
EXTRACT: note_off channel=5 note=48 velocity=91 time=0
EXTRACT: note_off channel=1 note=29 velocity=115 time=0.10727583333333332
EXTRACT: note_off channel=12 note=72 velocity=93 time=0
EXTRACT: note_on channel=1 note=34 velocity=116 time=0.018656666666666665
EXTRACT: note_on channel=9 note=36 velocity=127 time=0
EXTRACT: note_on channel=9 note=42 velocity=67 time=0
EXTRACT: note_on channel=12 note=69 velocity=91 time=0
EXTRACT: note_on channel=13 note=48 velocity=118 time=0
EXTRACT: note_off channel=9 note=42 velocity=67 time=0.004664166666666666
EXTRACT: note_off channel=9 note=36 velocity=127 time=0
EXTRACT: note_off channel=1 note=34 velocity=116 time=0.20055916666666665
EXTRACT: note_off channel=12 note=69 velocity=91 time=0
EXTRACT: note_off channel=13 note=48 velocity=118 time=0
EXTRACT: note_on channel=9 note=42 velocity=65 time=0.018656666666666665
EXTRACT: note_on channel=11 note=60 velocity=104 time=0
EXTRACT: note_off channel=9 note=42 velocity=65 time=0.004664166666666666
EXTRACT: note_off channel=11 note=60 velocity=104 time=0.20055916666666665
EXTRACT: note_on channel=1 note=34 velocity=114 time=0.018656666666666665
EXTRACT: note_on channel=2 note=58 velocity=107 time=0
EXTRACT: note_on channel=2 note=62 velocity=102 time=0
EXTRACT: note_on channel=2 note=65 velocity=108 time=0
EXTRACT: note_on channel=5 note=46 velocity=86 time=0
EXTRACT: note_on channel=5 note=50 velocity=102 time=0
EXTRACT: note_on channel=5 note=53 velocity=91 time=0
EXTRACT: note_on channel=9 note=38 velocity=126 time=0
EXTRACT: note_on channel=9 note=42 velocity=74 time=0
EXTRACT: note_on channel=11 note=72 velocity=96 time=0
EXTRACT: note_off channel=9 note=42 velocity=74 time=0.004664166666666666
EXTRACT: note_off channel=9 note=38 velocity=126 time=0
EXTRACT: note_off channel=2 note=65 velocity=108 time=0.09328333333333333
EXTRACT: note_off channel=2 note=62 velocity=102 time=0
EXTRACT: note_off channel=2 note=58 velocity=107 time=0
EXTRACT: note_off channel=5 note=53 velocity=91 time=0
EXTRACT: note_off channel=5 note=50 velocity=102 time=0
EXTRACT: note_off channel=5 note=46 velocity=86 time=0
EXTRACT: note_off channel=1 note=34 velocity=114 time=0.10727583333333332
EXTRACT: note_off channel=11 note=72 velocity=96 time=0
EXTRACT: note_on channel=2 note=58 velocity=105 time=0.018656666666666665
EXTRACT: note_on channel=2 note=62 velocity=110 time=0
EXTRACT: note_on channel=2 note=65 velocity=104 time=0
EXTRACT: note_on channel=5 note=46 velocity=92 time=0
EXTRACT: note_on channel=5 note=50 velocity=100 time=0
EXTRACT: note_on channel=5 note=53 velocity=86 time=0
EXTRACT: note_on channel=9 note=42 velocity=67 time=0
EXTRACT: note_on channel=11 note=72 velocity=88 time=0
EXTRACT: note_on channel=13 note=48 velocity=120 time=0
EXTRACT: note_off channel=9 note=42 velocity=67 time=0.004664166666666666
EXTRACT: note_off channel=2 note=65 velocity=104 time=0.09328333333333333
EXTRACT: note_off channel=2 note=62 velocity=110 time=0
EXTRACT: note_off channel=2 note=58 velocity=105 time=0
EXTRACT: note_off channel=5 note=53 velocity=86 time=0
EXTRACT: note_off channel=5 note=50 velocity=100 time=0
EXTRACT: note_off channel=5 note=46 velocity=92 time=0
EXTRACT: note_off channel=11 note=72 velocity=88 time=0.10727583333333332
EXTRACT: note_off channel=13 note=48 velocity=120 time=0
EXTRACT: note_on channel=1 note=29 velocity=116 time=0.018656666666666665
EXTRACT: note_on channel=9 note=36 velocity=127 time=0
EXTRACT: note_on channel=9 note=42 velocity=58 time=0
EXTRACT: note_on channel=11 note=69 velocity=80 time=0
EXTRACT: note_off channel=9 note=42 velocity=58 time=0.004664166666666666
EXTRACT: note_off channel=9 note=36 velocity=127 time=0
EXTRACT: note_off channel=1 note=29 velocity=116 time=0.20055916666666665
EXTRACT: note_off channel=11 note=69 velocity=80 time=0
EXTRACT: note_on channel=1 note=34 velocity=111 time=0.018656666666666665
EXTRACT: note_on channel=9 note=42 velocity=65 time=0
EXTRACT: note_on channel=11 note=60 velocity=88 time=0
EXTRACT: note_on channel=13 note=48 velocity=117 time=0
EXTRACT: note_off channel=9 note=42 velocity=65 time=0.004664166666666666
EXTRACT: note_off channel=1 note=34 velocity=111 time=0.08861916666666667
EXTRACT: note_off channel=11 note=60 velocity=88 time=0.11193999999999998
EXTRACT: note_off channel=13 note=48 velocity=117 time=0
EXTRACT: note_on channel=2 note=58 velocity=112 time=0.018656666666666665
EXTRACT: note_on channel=2 note=62 velocity=112 time=0
EXTRACT: note_on channel=2 note=65 velocity=110 time=0
EXTRACT: note_on channel=5 note=46 velocity=103 time=0
EXTRACT: note_on channel=5 note=50 velocity=99 time=0
EXTRACT: note_on channel=5 note=53 velocity=90 time=0
EXTRACT: note_on channel=9 note=38 velocity=125 time=0
EXTRACT: note_on channel=9 note=42 velocity=65 time=0
EXTRACT: note_on channel=11 note=72 velocity=78 time=0
EXTRACT: note_on channel=13 note=48 velocity=106 time=0
EXTRACT: note_off channel=9 note=42 velocity=65 time=0.004664166666666666
EXTRACT: note_off channel=9 note=38 velocity=125 time=0
EXTRACT: note_off channel=2 note=65 velocity=110 time=0.09328333333333333
EXTRACT: note_off channel=2 note=62 velocity=112 time=0
EXTRACT: note_off channel=2 note=58 velocity=112 time=0
EXTRACT: note_off channel=5 note=53 velocity=90 time=0
EXTRACT: note_off channel=5 note=50 velocity=99 time=0
EXTRACT: note_off channel=5 note=46 velocity=103 time=0
EXTRACT: note_off channel=11 note=72 velocity=78 time=0.10727583333333332
EXTRACT: note_off channel=13 note=48 velocity=106 time=0
EXTRACT: note_on channel=1 note=28 velocity=122 time=0.018656666666666665
EXTRACT: note_on channel=2 note=58 velocity=103 time=0
EXTRACT: note_on channel=2 note=62 velocity=106 time=0
EXTRACT: note_on channel=2 note=65 velocity=102 time=0
EXTRACT: note_on channel=5 note=46 velocity=90 time=0
EXTRACT: note_on channel=5 note=50 velocity=94 time=0
EXTRACT: note_on channel=5 note=53 velocity=96 time=0
EXTRACT: note_on channel=9 note=42 velocity=77 time=0
EXTRACT: note_on channel=11 note=72 velocity=68 time=0
EXTRACT: note_on channel=13 note=48 velocity=107 time=0
EXTRACT: note_off channel=9 note=42 velocity=77 time=0.004664166666666666
EXTRACT: note_off channel=2 note=65 velocity=102 time=0.09328333333333333
EXTRACT: note_off channel=2 note=62 velocity=106 time=0
EXTRACT: note_off channel=2 note=58 velocity=103 time=0
EXTRACT: note_off channel=5 note=53 velocity=96 time=0
EXTRACT: note_off channel=5 note=50 velocity=94 time=0
EXTRACT: note_off channel=5 note=46 velocity=90 time=0
EXTRACT: note_off channel=1 note=28 velocity=122 time=0.10727583333333332
EXTRACT: note_off channel=11 note=72 velocity=68 time=0
EXTRACT: note_off channel=13 note=48 velocity=107 time=0
EXTRACT: note_on channel=1 note=33 velocity=124 time=0.018656666666666665
EXTRACT: note_on channel=9 note=36 velocity=121 time=0
EXTRACT: note_on channel=9 note=42 velocity=60 time=0
EXTRACT: note_on channel=11 note=69 velocity=58 time=0
EXTRACT: note_on channel=13 note=48 velocity=120 time=0
EXTRACT: note_off channel=9 note=42 velocity=60 time=0.004664166666666666
EXTRACT: note_off channel=9 note=36 velocity=121 time=0
EXTRACT: note_off channel=1 note=33 velocity=124 time=0.20055916666666665
EXTRACT: note_off channel=11 note=69 velocity=58 time=0
EXTRACT: note_off channel=13 note=48 velocity=120 time=0
EXTRACT: note_on channel=9 note=42 velocity=70 time=0.018656666666666665
EXTRACT: note_on channel=11 note=60 velocity=66 time=0
EXTRACT: note_on channel=13 note=48 velocity=112 time=0
EXTRACT: note_off channel=9 note=42 velocity=70 time=0.004664166666666666
EXTRACT: note_off channel=11 note=60 velocity=66 time=0.20055916666666665
EXTRACT: note_off channel=13 note=48 velocity=112 time=0
EXTRACT: note_on channel=1 note=33 velocity=118 time=0.018656666666666665
EXTRACT: note_on channel=2 note=57 velocity=104 time=0
EXTRACT: note_on channel=2 note=60 velocity=106 time=0
EXTRACT: note_on channel=2 note=64 velocity=114 time=0
EXTRACT: note_on channel=5 note=45 velocity=100 time=0
EXTRACT: note_on channel=5 note=48 velocity=87 time=0
EXTRACT: note_on channel=5 note=52 velocity=96 time=0
EXTRACT: note_on channel=9 note=38 velocity=127 time=0
EXTRACT: note_on channel=9 note=42 velocity=75 time=0
EXTRACT: note_on channel=11 note=72 velocity=56 time=0
EXTRACT: note_on channel=13 note=48 velocity=113 time=0
EXTRACT: note_off channel=9 note=42 velocity=75 time=0.004664166666666666
EXTRACT: note_off channel=9 note=38 velocity=127 time=0
EXTRACT: note_off channel=2 note=64 velocity=114 time=0.09328333333333333
EXTRACT: note_off channel=2 note=60 velocity=106 time=0
EXTRACT: note_off channel=2 note=57 velocity=104 time=0
EXTRACT: note_off channel=5 note=52 velocity=96 time=0
EXTRACT: note_off channel=5 note=48 velocity=87 time=0
EXTRACT: note_off channel=5 note=45 velocity=100 time=0
EXTRACT: note_off channel=1 note=33 velocity=118 time=0.10727583333333332
EXTRACT: note_off channel=11 note=72 velocity=56 time=0
EXTRACT: note_off channel=13 note=48 velocity=113 time=0
EXTRACT: note_on channel=2 note=57 velocity=108 time=0.018656666666666665
EXTRACT: note_on channel=2 note=60 velocity=102 time=0
EXTRACT: note_on channel=2 note=64 velocity=96 time=0
EXTRACT: note_on channel=5 note=45 velocity=104 time=0
EXTRACT: note_on channel=5 note=48 velocity=100 time=0
EXTRACT: note_on channel=5 note=52 velocity=95 time=0
EXTRACT: note_on channel=9 note=42 velocity=70 time=0
EXTRACT: note_on channel=11 note=72 velocity=45 time=0
EXTRACT: note_off channel=9 note=42 velocity=70 time=0.004664166666666666
EXTRACT: note_off channel=2 note=64 velocity=96 time=0.09328333333333333
EXTRACT: note_off channel=2 note=60 velocity=102 time=0
EXTRACT: note_off channel=2 note=57 velocity=108 time=0
EXTRACT: note_off channel=5 note=52 velocity=95 time=0
EXTRACT: note_off channel=5 note=48 velocity=100 time=0
EXTRACT: note_off channel=5 note=45 velocity=104 time=0
EXTRACT: note_off channel=11 note=72 velocity=45 time=0.10727583333333332
EXTRACT: note_on channel=1 note=28 velocity=117 time=0.018656666666666665
EXTRACT: note_on channel=9 note=36 velocity=127 time=0
EXTRACT: note_on channel=9 note=46 velocity=106 time=0
EXTRACT: note_on channel=11 note=69 velocity=35 time=0
EXTRACT: note_on channel=13 note=48 velocity=121 time=0
EXTRACT: note_off channel=9 note=46 velocity=106 time=0.004664166666666666
EXTRACT: note_off channel=9 note=36 velocity=127 time=0
EXTRACT: note_off channel=1 note=28 velocity=117 time=0.20055916666666665
EXTRACT: note_off channel=11 note=69 velocity=35 time=0
EXTRACT: note_off channel=13 note=48 velocity=121 time=0
EXTRACT: note_on channel=1 note=33 velocity=115 time=0.018656666666666665
EXTRACT: note_on channel=9 note=42 velocity=66 time=0
EXTRACT: note_off channel=9 note=42 velocity=66 time=0.004664166666666666
EXTRACT: note_off channel=1 note=33 velocity=115 time=0.08861916666666667
EXTRACT: note_on channel=2 note=57 velocity=113 time=0.13059666666666667
EXTRACT: note_on channel=2 note=60 velocity=109 time=0
EXTRACT: note_on channel=2 note=64 velocity=112 time=0
EXTRACT: note_on channel=5 note=45 velocity=100 time=0
EXTRACT: note_on channel=5 note=48 velocity=94 time=0
EXTRACT: note_on channel=5 note=52 velocity=94 time=0
EXTRACT: note_on channel=9 note=38 velocity=116 time=0
EXTRACT: note_on channel=9 note=46 velocity=112 time=0
EXTRACT: note_off channel=9 note=46 velocity=112 time=0.004664166666666666
EXTRACT: note_off channel=9 note=38 velocity=116 time=0
EXTRACT: note_off channel=2 note=64 velocity=112 time=0.09328333333333333
EXTRACT: note_off channel=2 note=60 velocity=109 time=0
EXTRACT: note_off channel=2 note=57 velocity=113 time=0
EXTRACT: note_off channel=5 note=52 velocity=94 time=0
EXTRACT: note_off channel=5 note=48 velocity=94 time=0
EXTRACT: note_off channel=5 note=45 velocity=100 time=0
EXTRACT: note_on channel=1 note=31 velocity=124 time=0.1259325
EXTRACT: note_on channel=2 note=57 velocity=99 time=0
EXTRACT: note_on channel=2 note=60 velocity=105 time=0
EXTRACT: note_on channel=2 note=64 velocity=112 time=0
EXTRACT: note_on channel=5 note=45 velocity=93 time=0
EXTRACT: note_on channel=5 note=48 velocity=105 time=0
EXTRACT: note_on channel=5 note=52 velocity=94 time=0
EXTRACT: note_on channel=9 note=81 velocity=93 time=0
EXTRACT: note_on channel=9 note=42 velocity=62 time=0
EXTRACT: note_off channel=9 note=42 velocity=62 time=0.004664166666666666
EXTRACT: note_off channel=9 note=81 velocity=93 time=0
EXTRACT: note_off channel=2 note=64 velocity=112 time=0.09328333333333333
EXTRACT: note_off channel=2 note=60 velocity=105 time=0
EXTRACT: note_off channel=2 note=57 velocity=99 time=0
EXTRACT: note_off channel=5 note=52 velocity=94 time=0
EXTRACT: note_off channel=5 note=48 velocity=105 time=0
EXTRACT: note_off channel=5 note=45 velocity=93 time=0
EXTRACT: note_off channel=1 note=31 velocity=124 time=0.10727583333333332
EXTRACT: note_on channel=1 note=36 velocity=124 time=0.018656666666666665
EXTRACT: note_on channel=3 note=67 velocity=90 time=0
EXTRACT: note_on channel=3 note=70 velocity=92 time=0
EXTRACT: note_on channel=9 note=36 velocity=126 time=0
EXTRACT: note_on channel=9 note=42 velocity=63 time=0
EXTRACT: note_on channel=13 note=48 velocity=113 time=0
EXTRACT: note_off channel=9 note=42 velocity=63 time=0.004664166666666666
EXTRACT: note_off channel=9 note=36 velocity=126 time=0
EXTRACT: control_change channel=3 control=1 value=83 time=0.10727583333333332
EXTRACT: note_off channel=1 note=36 velocity=124 time=0.09328333333333333
EXTRACT: note_off channel=13 note=48 velocity=113 time=0
EXTRACT: note_on channel=9 note=42 velocity=64 time=0.018656666666666665
EXTRACT: note_off channel=9 note=42 velocity=64 time=0.004664166666666666
EXTRACT: note_on channel=1 note=36 velocity=110 time=0.2192158333333333
EXTRACT: note_on channel=2 note=60 velocity=100 time=0
EXTRACT: note_on channel=2 note=65 velocity=111 time=0
EXTRACT: note_on channel=2 note=67 velocity=100 time=0
EXTRACT: note_on channel=5 note=48 velocity=97 time=0
EXTRACT: note_on channel=5 note=53 velocity=93 time=0
EXTRACT: note_on channel=5 note=55 velocity=93 time=0
EXTRACT: note_on channel=9 note=38 velocity=122 time=0
EXTRACT: note_on channel=9 note=42 velocity=61 time=0
EXTRACT: note_off channel=9 note=42 velocity=61 time=0.004664166666666666
EXTRACT: note_off channel=9 note=38 velocity=122 time=0
EXTRACT: note_off channel=2 note=67 velocity=100 time=0.09328333333333333
EXTRACT: note_off channel=2 note=65 velocity=111 time=0
EXTRACT: note_off channel=2 note=60 velocity=100 time=0
EXTRACT: note_off channel=5 note=55 velocity=93 time=0
EXTRACT: note_off channel=5 note=53 velocity=93 time=0
EXTRACT: note_off channel=5 note=48 velocity=97 time=0
EXTRACT: note_off channel=1 note=36 velocity=110 time=0.10727583333333332
EXTRACT: note_on channel=2 note=60 velocity=100 time=0.018656666666666665
EXTRACT: note_on channel=2 note=65 velocity=105 time=0
EXTRACT: note_on channel=2 note=67 velocity=102 time=0
EXTRACT: note_on channel=5 note=48 velocity=102 time=0
EXTRACT: note_on channel=5 note=53 velocity=88 time=0
EXTRACT: note_on channel=5 note=55 velocity=89 time=0
EXTRACT: note_on channel=9 note=42 velocity=59 time=0
EXTRACT: note_on channel=13 note=48 velocity=110 time=0
EXTRACT: note_off channel=9 note=42 velocity=59 time=0.004664166666666666
EXTRACT: note_off channel=2 note=67 velocity=102 time=0.09328333333333333
EXTRACT: note_off channel=2 note=65 velocity=105 time=0
EXTRACT: note_off channel=2 note=60 velocity=100 time=0
EXTRACT: note_off channel=5 note=55 velocity=89 time=0
EXTRACT: note_off channel=5 note=53 velocity=88 time=0
EXTRACT: note_off channel=5 note=48 velocity=102 time=0
EXTRACT: note_off channel=13 note=48 velocity=110 time=0.10727583333333332
EXTRACT: note_on channel=1 note=31 velocity=110 time=0.018656666666666665
EXTRACT: note_on channel=9 note=36 velocity=127 time=0
EXTRACT: note_on channel=9 note=42 velocity=72 time=0
EXTRACT: note_off channel=9 note=42 velocity=72 time=0.004664166666666666
EXTRACT: note_off channel=9 note=36 velocity=127 time=0
EXTRACT: note_off channel=1 note=31 velocity=110 time=0.20055916666666665
EXTRACT: note_off channel=3 note=70 velocity=92 time=0.004664166666666666
EXTRACT: note_off channel=3 note=67 velocity=90 time=0
EXTRACT: note_on channel=1 note=36 velocity=119 time=0.013992499999999998
EXTRACT: note_on channel=9 note=42 velocity=73 time=0
EXTRACT: note_on channel=13 note=48 velocity=123 time=0
EXTRACT: note_off channel=9 note=42 velocity=73 time=0.004664166666666666
EXTRACT: note_off channel=1 note=36 velocity=119 time=0.08861916666666667
EXTRACT: note_off channel=13 note=48 velocity=123 time=0.11193999999999998
EXTRACT: note_on channel=2 note=60 velocity=103 time=0.018656666666666665
EXTRACT: note_on channel=2 note=65 velocity=108 time=0
EXTRACT: note_on channel=2 note=67 velocity=107 time=0
EXTRACT: note_on channel=5 note=48 velocity=93 time=0
EXTRACT: note_on channel=5 note=53 velocity=90 time=0
EXTRACT: note_on channel=5 note=55 velocity=86 time=0
EXTRACT: note_on channel=9 note=38 velocity=116 time=0
EXTRACT: note_on channel=9 note=42 velocity=68 time=0
EXTRACT: note_on channel=13 note=48 velocity=114 time=0
EXTRACT: note_off channel=9 note=42 velocity=68 time=0.004664166666666666
EXTRACT: note_off channel=9 note=38 velocity=116 time=0
EXTRACT: note_off channel=2 note=67 velocity=107 time=0.09328333333333333
EXTRACT: note_off channel=2 note=65 velocity=108 time=0
EXTRACT: note_off channel=2 note=60 velocity=103 time=0
EXTRACT: note_off channel=5 note=55 velocity=86 time=0
EXTRACT: note_off channel=5 note=53 velocity=90 time=0
EXTRACT: note_off channel=5 note=48 velocity=93 time=0
EXTRACT: note_off channel=13 note=48 velocity=114 time=0.10727583333333332
EXTRACT: note_on channel=1 note=31 velocity=118 time=0.018656666666666665
EXTRACT: note_on channel=2 note=60 velocity=108 time=0
EXTRACT: note_on channel=2 note=65 velocity=108 time=0
EXTRACT: note_on channel=2 note=67 velocity=97 time=0
EXTRACT: control_change channel=3 control=1 value=0 time=0
EXTRACT: note_on channel=5 note=48 velocity=93 time=0
EXTRACT: note_on channel=5 note=53 velocity=86 time=0
EXTRACT: note_on channel=5 note=55 velocity=89 time=0
EXTRACT: note_on channel=9 note=42 velocity=69 time=0
EXTRACT: note_on channel=13 note=48 velocity=117 time=0
EXTRACT: note_off channel=9 note=42 velocity=69 time=0.004664166666666666
EXTRACT: note_off channel=2 note=67 velocity=97 time=0.09328333333333333
EXTRACT: note_off channel=2 note=65 velocity=108 time=0
EXTRACT: note_off channel=2 note=60 velocity=108 time=0
EXTRACT: note_off channel=5 note=55 velocity=89 time=0
EXTRACT: note_off channel=5 note=53 velocity=86 time=0
EXTRACT: note_off channel=5 note=48 velocity=93 time=0
EXTRACT: note_off channel=1 note=31 velocity=118 time=0.10727583333333332
EXTRACT: note_off channel=13 note=48 velocity=117 time=0
EXTRACT: note_on channel=1 note=36 velocity=109 time=0.018656666666666665
EXTRACT: note_on channel=9 note=36 velocity=126 time=0
EXTRACT: note_on channel=9 note=42 velocity=75 time=0
EXTRACT: note_on channel=13 note=48 velocity=117 time=0
EXTRACT: note_off channel=9 note=42 velocity=75 time=0.004664166666666666
EXTRACT: note_off channel=9 note=36 velocity=126 time=0
EXTRACT: note_off channel=1 note=36 velocity=109 time=0.20055916666666665
EXTRACT: note_off channel=13 note=48 velocity=117 time=0
EXTRACT: note_on channel=9 note=42 velocity=69 time=0.018656666666666665
EXTRACT: note_on channel=13 note=48 velocity=114 time=0
EXTRACT: note_off channel=9 note=42 velocity=69 time=0.004664166666666666
EXTRACT: note_off channel=13 note=48 velocity=114 time=0.20055916666666665
EXTRACT: note_on channel=1 note=36 velocity=111 time=0.018656666666666665
EXTRACT: note_on channel=2 note=60 velocity=113 time=0
EXTRACT: note_on channel=2 note=64 velocity=102 time=0
EXTRACT: note_on channel=2 note=67 velocity=112 time=0
EXTRACT: note_on channel=5 note=48 velocity=93 time=0
EXTRACT: note_on channel=5 note=52 velocity=101 time=0
EXTRACT: note_on channel=5 note=55 velocity=88 time=0
EXTRACT: note_on channel=9 note=38 velocity=119 time=0
EXTRACT: note_on channel=9 note=42 velocity=75 time=0
EXTRACT: note_on channel=13 note=48 velocity=106 time=0
EXTRACT: note_off channel=9 note=42 velocity=75 time=0.004664166666666666
EXTRACT: note_off channel=9 note=38 velocity=119 time=0
EXTRACT: note_off channel=2 note=67 velocity=112 time=0.09328333333333333
EXTRACT: note_off channel=2 note=64 velocity=102 time=0
EXTRACT: note_off channel=2 note=60 velocity=113 time=0
EXTRACT: note_off channel=5 note=55 velocity=88 time=0
EXTRACT: note_off channel=5 note=52 velocity=101 time=0
EXTRACT: note_off channel=5 note=48 velocity=93 time=0
EXTRACT: note_off channel=1 note=36 velocity=111 time=0.10727583333333332
EXTRACT: note_off channel=13 note=48 velocity=106 time=0
EXTRACT: note_on channel=2 note=60 velocity=103 time=0.018656666666666665
EXTRACT: note_on channel=2 note=64 velocity=98 time=0
EXTRACT: note_on channel=2 note=67 velocity=105 time=0
EXTRACT: note_on channel=5 note=48 velocity=105 time=0
EXTRACT: note_on channel=5 note=52 velocity=88 time=0
EXTRACT: note_on channel=5 note=55 velocity=98 time=0
EXTRACT: note_on channel=9 note=42 velocity=67 time=0
EXTRACT: note_off channel=9 note=42 velocity=67 time=0.004664166666666666
EXTRACT: note_off channel=2 note=67 velocity=105 time=0.09328333333333333
EXTRACT: note_off channel=2 note=64 velocity=98 time=0
EXTRACT: note_off channel=2 note=60 velocity=103 time=0
EXTRACT: note_off channel=5 note=55 velocity=98 time=0
EXTRACT: note_off channel=5 note=52 velocity=88 time=0
EXTRACT: note_off channel=5 note=48 velocity=105 time=0
EXTRACT: note_on channel=1 note=31 velocity=124 time=0.1259325
EXTRACT: note_on channel=9 note=36 velocity=120 time=0
EXTRACT: note_on channel=9 note=42 velocity=74 time=0
EXTRACT: note_on channel=13 note=48 velocity=115 time=0
EXTRACT: note_off channel=9 note=42 velocity=74 time=0.004664166666666666
EXTRACT: note_off channel=9 note=36 velocity=120 time=0
EXTRACT: note_off channel=1 note=31 velocity=124 time=0.20055916666666665
EXTRACT: note_off channel=13 note=48 velocity=115 time=0
EXTRACT: note_on channel=1 note=36 velocity=120 time=0.018656666666666665
EXTRACT: note_on channel=9 note=42 velocity=58 time=0
EXTRACT: note_on channel=12 note=60 velocity=106 time=0
EXTRACT: note_off channel=9 note=42 velocity=58 time=0.004664166666666666
EXTRACT: note_off channel=1 note=36 velocity=120 time=0.08861916666666667
EXTRACT: note_off channel=12 note=60 velocity=106 time=0.11193999999999998
EXTRACT: note_on channel=2 note=60 velocity=101 time=0.018656666666666665
EXTRACT: note_on channel=2 note=64 velocity=99 time=0
EXTRACT: note_on channel=2 note=67 velocity=97 time=0
EXTRACT: note_on channel=5 note=48 velocity=90 time=0
EXTRACT: note_on channel=5 note=52 velocity=90 time=0
EXTRACT: note_on channel=5 note=55 velocity=100 time=0
EXTRACT: note_on channel=9 note=38 velocity=127 time=0
EXTRACT: note_on channel=9 note=42 velocity=61 time=0
EXTRACT: note_on channel=12 note=72 velocity=101 time=0
EXTRACT: note_off channel=9 note=42 velocity=61 time=0.004664166666666666
EXTRACT: note_off channel=9 note=38 velocity=127 time=0
EXTRACT: note_off channel=2 note=67 velocity=97 time=0.09328333333333333
EXTRACT: note_off channel=2 note=64 velocity=99 time=0
EXTRACT: note_off channel=2 note=60 velocity=101 time=0
EXTRACT: note_off channel=5 note=55 velocity=100 time=0
EXTRACT: note_off channel=5 note=52 velocity=90 time=0
EXTRACT: note_off channel=5 note=48 velocity=90 time=0
EXTRACT: note_off channel=12 note=72 velocity=101 time=0.10727583333333332
EXTRACT: note_on channel=1 note=36 velocity=123 time=0.018656666666666665
EXTRACT: note_on channel=2 note=60 velocity=101 time=0
EXTRACT: note_on channel=2 note=64 velocity=113 time=0
EXTRACT: note_on channel=2 note=67 velocity=97 time=0
EXTRACT: note_on channel=5 note=48 velocity=88 time=0
EXTRACT: note_on channel=5 note=52 velocity=96 time=0
EXTRACT: note_on channel=5 note=55 velocity=94 time=0
EXTRACT: note_on channel=9 note=42 velocity=72 time=0
EXTRACT: note_on channel=12 note=72 velocity=93 time=0
EXTRACT: note_off channel=9 note=42 velocity=72 time=0.004664166666666666
EXTRACT: note_off channel=2 note=67 velocity=97 time=0.09328333333333333
EXTRACT: note_off channel=2 note=64 velocity=113 time=0
EXTRACT: note_off channel=2 note=60 velocity=101 time=0
EXTRACT: note_off channel=5 note=55 velocity=94 time=0
EXTRACT: note_off channel=5 note=52 velocity=96 time=0
EXTRACT: note_off channel=5 note=48 velocity=88 time=0
EXTRACT: note_off channel=1 note=36 velocity=123 time=0.10727583333333332
EXTRACT: note_off channel=12 note=72 velocity=93 time=0
EXTRACT: note_on channel=1 note=38 velocity=125 time=0.018656666666666665
EXTRACT: note_on channel=9 note=36 velocity=123 time=0
EXTRACT: note_on channel=9 note=42 velocity=62 time=0
EXTRACT: note_on channel=12 note=69 velocity=105 time=0
EXTRACT: note_on channel=13 note=48 velocity=112 time=0
EXTRACT: note_off channel=9 note=42 velocity=62 time=0.004664166666666666
EXTRACT: note_off channel=9 note=36 velocity=123 time=0
EXTRACT: note_off channel=1 note=38 velocity=125 time=0.20055916666666665
EXTRACT: note_off channel=12 note=69 velocity=105 time=0
EXTRACT: note_off channel=13 note=48 velocity=112 time=0
EXTRACT: note_on channel=9 note=42 velocity=77 time=0.018656666666666665
EXTRACT: note_on channel=11 note=60 velocity=104 time=0
EXTRACT: note_off channel=9 note=42 velocity=77 time=0.004664166666666666
EXTRACT: note_off channel=11 note=60 velocity=104 time=0.20055916666666665
EXTRACT: note_on channel=1 note=38 velocity=120 time=0.018656666666666665
EXTRACT: note_on channel=2 note=62 velocity=96 time=0
EXTRACT: note_on channel=2 note=65 velocity=95 time=0
EXTRACT: note_on channel=5 note=50 velocity=86 time=0
EXTRACT: note_on channel=5 note=53 velocity=101 time=0
EXTRACT: note_on channel=9 note=38 velocity=119 time=0
EXTRACT: note_on channel=9 note=42 velocity=71 time=0
EXTRACT: note_on channel=11 note=72 velocity=96 time=0
EXTRACT: note_off channel=9 note=42 velocity=71 time=0.004664166666666666
EXTRACT: note_off channel=9 note=38 velocity=119 time=0
EXTRACT: note_off channel=2 note=65 velocity=95 time=0.09328333333333333
EXTRACT: note_off channel=2 note=62 velocity=96 time=0
EXTRACT: note_off channel=5 note=53 velocity=101 time=0
EXTRACT: note_off channel=5 note=50 velocity=86 time=0
EXTRACT: note_off channel=1 note=38 velocity=120 time=0.10727583333333332
EXTRACT: note_off channel=11 note=72 velocity=96 time=0
EXTRACT: note_on channel=2 note=62 velocity=95 time=0.018656666666666665
EXTRACT: note_on channel=2 note=65 velocity=97 time=0
EXTRACT: note_on channel=5 note=50 velocity=99 time=0
EXTRACT: note_on channel=5 note=53 velocity=97 time=0
EXTRACT: note_on channel=9 note=42 velocity=70 time=0
EXTRACT: note_on channel=11 note=72 velocity=88 time=0
EXTRACT: note_on channel=12 note=67 velocity=108 time=0
EXTRACT: note_on channel=13 note=48 velocity=115 time=0
EXTRACT: note_off channel=9 note=42 velocity=70 time=0.004664166666666666
EXTRACT: note_off channel=2 note=65 velocity=97 time=0.09328333333333333
EXTRACT: note_off channel=2 note=62 velocity=95 time=0
EXTRACT: note_off channel=5 note=53 velocity=97 time=0
EXTRACT: note_off channel=5 note=50 velocity=99 time=0
EXTRACT: note_off channel=11 note=72 velocity=88 time=0.10727583333333332
EXTRACT: note_off channel=12 note=67 velocity=108 time=0
EXTRACT: note_off channel=13 note=48 velocity=115 time=0
EXTRACT: note_on channel=1 note=31 velocity=110 time=0.018656666666666665
EXTRACT: note_on channel=9 note=36 velocity=127 time=0
EXTRACT: note_on channel=9 note=42 velocity=62 time=0
EXTRACT: note_on channel=11 note=69 velocity=80 time=0
EXTRACT: note_off channel=9 note=42 velocity=62 time=0.004664166666666666
EXTRACT: note_off channel=9 note=36 velocity=127 time=0
EXTRACT: note_off channel=1 note=31 velocity=110 time=0.20055916666666665
EXTRACT: note_off channel=11 note=69 velocity=80 time=0
EXTRACT: note_on channel=1 note=43 velocity=125 time=0.018656666666666665
EXTRACT: note_on channel=9 note=42 velocity=74 time=0
EXTRACT: note_on channel=11 note=60 velocity=88 time=0
EXTRACT: note_on channel=13 note=48 velocity=108 time=0
EXTRACT: note_off channel=9 note=42 velocity=74 time=0.004664166666666666
EXTRACT: note_off channel=1 note=43 velocity=125 time=0.08861916666666667
EXTRACT: note_off channel=11 note=60 velocity=88 time=0.11193999999999998
EXTRACT: note_off channel=13 note=48 velocity=108 time=0
EXTRACT: note_on channel=2 note=62 velocity=97 time=0.018656666666666665
EXTRACT: note_on channel=2 note=65 velocity=107 time=0
EXTRACT: note_on channel=5 note=50 velocity=103 time=0
EXTRACT: note_on channel=5 note=53 velocity=94 time=0
EXTRACT: note_on channel=9 note=38 velocity=127 time=0
EXTRACT: note_on channel=9 note=42 velocity=66 time=0
EXTRACT: note_on channel=11 note=72 velocity=78 time=0
EXTRACT: note_on channel=13 note=48 velocity=110 time=0
EXTRACT: note_off channel=9 note=42 velocity=66 time=0.004664166666666666
EXTRACT: note_off channel=9 note=38 velocity=127 time=0
EXTRACT: note_off channel=2 note=65 velocity=107 time=0.09328333333333333
EXTRACT: note_off channel=2 note=62 velocity=97 time=0
EXTRACT: note_off channel=5 note=53 velocity=94 time=0
EXTRACT: note_off channel=5 note=50 velocity=103 time=0
EXTRACT: note_off channel=11 note=72 velocity=78 time=0.10727583333333332
EXTRACT: note_off channel=13 note=48 velocity=110 time=0
EXTRACT: note_on channel=1 note=31 velocity=123 time=0.018656666666666665
EXTRACT: note_on channel=2 note=62 velocity=95 time=0
EXTRACT: note_on channel=2 note=65 velocity=96 time=0
EXTRACT: note_on channel=5 note=50 velocity=93 time=0
EXTRACT: note_on channel=5 note=53 velocity=89 time=0
EXTRACT: note_on channel=9 note=42 velocity=73 time=0
EXTRACT: note_on channel=11 note=72 velocity=68 time=0
EXTRACT: note_on channel=13 note=48 velocity=111 time=0
EXTRACT: note_off channel=9 note=42 velocity=73 time=0.004664166666666666
EXTRACT: note_off channel=2 note=65 velocity=96 time=0.09328333333333333
EXTRACT: note_off channel=2 note=62 velocity=95 time=0
EXTRACT: note_off channel=5 note=53 velocity=89 time=0
EXTRACT: note_off channel=5 note=50 velocity=93 time=0
EXTRACT: note_off channel=1 note=31 velocity=123 time=0.10727583333333332
EXTRACT: note_off channel=11 note=72 velocity=68 time=0
EXTRACT: note_off channel=13 note=48 velocity=111 time=0
EXTRACT: note_on channel=1 note=36 velocity=110 time=0.018656666666666665
EXTRACT: note_on channel=9 note=36 velocity=125 time=0
EXTRACT: note_on channel=9 note=42 velocity=77 time=0
EXTRACT: note_on channel=11 note=69 velocity=58 time=0
EXTRACT: note_on channel=13 note=48 velocity=118 time=0
EXTRACT: note_off channel=9 note=42 velocity=77 time=0.004664166666666666
EXTRACT: note_off channel=9 note=36 velocity=125 time=0
EXTRACT: note_off channel=1 note=36 velocity=110 time=0.20055916666666665
EXTRACT: note_off channel=11 note=69 velocity=58 time=0
EXTRACT: note_off channel=13 note=48 velocity=118 time=0
EXTRACT: note_on channel=9 note=42 velocity=59 time=0.018656666666666665
EXTRACT: note_on channel=11 note=60 velocity=66 time=0
EXTRACT: note_on channel=13 note=48 velocity=111 time=0
EXTRACT: note_off channel=9 note=42 velocity=59 time=0.004664166666666666
EXTRACT: note_off channel=11 note=60 velocity=66 time=0.20055916666666665
EXTRACT: note_off channel=13 note=48 velocity=111 time=0
EXTRACT: note_on channel=1 note=36 velocity=109 time=0.018656666666666665
EXTRACT: note_on channel=2 note=60 velocity=97 time=0
EXTRACT: note_on channel=2 note=64 velocity=111 time=0
EXTRACT: note_on channel=5 note=48 velocity=98 time=0
EXTRACT: note_on channel=5 note=52 velocity=89 time=0
EXTRACT: note_on channel=9 note=38 velocity=127 time=0
EXTRACT: note_on channel=9 note=42 velocity=65 time=0
EXTRACT: note_on channel=11 note=72 velocity=56 time=0
EXTRACT: note_on channel=13 note=48 velocity=104 time=0
EXTRACT: note_off channel=9 note=42 velocity=65 time=0.004664166666666666
EXTRACT: note_off channel=9 note=38 velocity=127 time=0
EXTRACT: note_off channel=2 note=64 velocity=111 time=0.09328333333333333
EXTRACT: note_off channel=2 note=60 velocity=97 time=0
EXTRACT: note_off channel=5 note=52 velocity=89 time=0
EXTRACT: note_off channel=5 note=48 velocity=98 time=0
EXTRACT: note_off channel=1 note=36 velocity=109 time=0.10727583333333332
EXTRACT: note_off channel=11 note=72 velocity=56 time=0
EXTRACT: note_off channel=13 note=48 velocity=104 time=0
EXTRACT: note_on channel=2 note=60 velocity=108 time=0.018656666666666665
EXTRACT: note_on channel=2 note=64 velocity=96 time=0
EXTRACT: note_on channel=5 note=48 velocity=98 time=0
EXTRACT: note_on channel=5 note=52 velocity=94 time=0
EXTRACT: note_on channel=9 note=42 velocity=72 time=0
EXTRACT: note_on channel=11 note=72 velocity=45 time=0
EXTRACT: note_off channel=9 note=42 velocity=72 time=0.004664166666666666
EXTRACT: note_off channel=2 note=64 velocity=96 time=0.09328333333333333
EXTRACT: note_off channel=2 note=60 velocity=108 time=0
EXTRACT: note_off channel=5 note=52 velocity=94 time=0
EXTRACT: note_off channel=5 note=48 velocity=98 time=0
EXTRACT: note_off channel=11 note=72 velocity=45 time=0.10727583333333332
EXTRACT: note_on channel=1 note=31 velocity=110 time=0.018656666666666665
EXTRACT: note_on channel=9 note=36 velocity=124 time=0
EXTRACT: note_on channel=9 note=38 velocity=120 time=0
EXTRACT: note_on channel=9 note=42 velocity=58 time=0
EXTRACT: note_on channel=11 note=69 velocity=35 time=0
EXTRACT: note_on channel=13 note=48 velocity=108 time=0
EXTRACT: note_off channel=9 note=42 velocity=58 time=0.004664166666666666
EXTRACT: note_off channel=9 note=38 velocity=120 time=0
EXTRACT: note_off channel=9 note=36 velocity=124 time=0
EXTRACT: note_on channel=9 note=45 velocity=112 time=0.10727583333333332
EXTRACT: note_off channel=9 note=45 velocity=112 time=0.004664166666666666
EXTRACT: note_off channel=1 note=31 velocity=110 time=0.08861916666666667
EXTRACT: note_off channel=11 note=69 velocity=35 time=0
EXTRACT: note_off channel=13 note=48 velocity=108 time=0
EXTRACT: note_on channel=1 note=36 velocity=117 time=0.018656666666666665
EXTRACT: note_on channel=9 note=81 velocity=127 time=0
EXTRACT: note_on channel=9 note=41 velocity=115 time=0
EXTRACT: note_on channel=9 note=42 velocity=60 time=0
EXTRACT: note_off channel=9 note=42 velocity=60 time=0.004664166666666666
EXTRACT: note_off channel=9 note=41 velocity=115 time=0
EXTRACT: note_off channel=9 note=81 velocity=127 time=0
EXTRACT: note_off channel=1 note=36 velocity=117 time=0.08861916666666667
EXTRACT: note_on channel=9 note=36 velocity=125 time=0.018656666666666665
EXTRACT: note_off channel=9 note=36 velocity=125 time=0.004664166666666666
EXTRACT: note_on channel=2 note=60 velocity=102 time=0.10727583333333332
EXTRACT: note_on channel=2 note=64 velocity=103 time=0
EXTRACT: note_on channel=5 note=48 velocity=92 time=0
EXTRACT: note_on channel=5 note=52 velocity=99 time=0
EXTRACT: note_on channel=9 note=38 velocity=121 time=0
EXTRACT: note_on channel=9 note=42 velocity=75 time=0
EXTRACT: note_off channel=9 note=42 velocity=75 time=0.004664166666666666
EXTRACT: note_off channel=9 note=38 velocity=121 time=0
EXTRACT: note_off channel=2 note=64 velocity=103 time=0.09328333333333333
EXTRACT: note_off channel=2 note=60 velocity=102 time=0
EXTRACT: note_off channel=5 note=52 velocity=99 time=0
EXTRACT: note_off channel=5 note=48 velocity=92 time=0
EXTRACT: note_on channel=1 note=31 velocity=112 time=0.1259325
EXTRACT: note_on channel=2 note=60 velocity=103 time=0
EXTRACT: note_on channel=2 note=64 velocity=97 time=0
EXTRACT: note_on channel=5 note=48 velocity=90 time=0
EXTRACT: note_on channel=5 note=52 velocity=89 time=0
EXTRACT: note_on channel=9 note=81 velocity=127 time=0
EXTRACT: note_on channel=9 note=42 velocity=70 time=0
EXTRACT: note_off channel=9 note=42 velocity=70 time=0.004664166666666666
EXTRACT: note_off channel=9 note=81 velocity=127 time=0
EXTRACT: note_off channel=2 note=64 velocity=97 time=0.09328333333333333
EXTRACT: note_off channel=2 note=60 velocity=103 time=0
EXTRACT: note_off channel=5 note=52 velocity=89 time=0
EXTRACT: note_off channel=5 note=48 velocity=90 time=0
EXTRACT: note_off channel=1 note=31 velocity=112 time=0.10727583333333332
EXTRACT: note_on channel=1 note=36 velocity=118 time=0.018656666666666665
EXTRACT: note_on channel=9 note=36 velocity=127 time=0
EXTRACT: note_on channel=9 note=49 velocity=107 time=0
EXTRACT: note_on channel=15 note=64 velocity=123 time=0
EXTRACT: note_off channel=9 note=49 velocity=107 time=0.004664166666666666
EXTRACT: note_off channel=9 note=36 velocity=127 time=0
EXTRACT: note_off channel=1 note=36 velocity=118 time=0.20055916666666665
EXTRACT: note_off channel=15 note=64 velocity=123 time=0
EXTRACT: note_on channel=9 note=42 velocity=77 time=0.018656666666666665
EXTRACT: note_on channel=15 note=65 velocity=119 time=0
EXTRACT: note_off channel=9 note=42 velocity=77 time=0.004664166666666666
EXTRACT: note_on channel=1 note=36 velocity=112 time=0.2192158333333333
EXTRACT: note_on channel=2 note=60 velocity=101 time=0
EXTRACT: note_on channel=2 note=65 velocity=95 time=0
EXTRACT: note_on channel=2 note=67 velocity=111 time=0
EXTRACT: note_on channel=5 note=48 velocity=86 time=0
EXTRACT: note_on channel=5 note=53 velocity=96 time=0
EXTRACT: note_on channel=5 note=55 velocity=105 time=0
EXTRACT: note_on channel=9 note=38 velocity=127 time=0
EXTRACT: note_on channel=9 note=42 velocity=58 time=0
EXTRACT: note_off channel=9 note=42 velocity=58 time=0.004664166666666666
EXTRACT: note_off channel=9 note=38 velocity=127 time=0
EXTRACT: note_off channel=2 note=67 velocity=111 time=0.09328333333333333
EXTRACT: note_off channel=2 note=65 velocity=95 time=0
EXTRACT: note_off channel=2 note=60 velocity=101 time=0
EXTRACT: note_off channel=5 note=55 velocity=105 time=0
EXTRACT: note_off channel=5 note=53 velocity=96 time=0
EXTRACT: note_off channel=5 note=48 velocity=86 time=0
EXTRACT: note_off channel=1 note=36 velocity=112 time=0.10727583333333332
EXTRACT: note_off channel=15 note=65 velocity=119 time=0
EXTRACT: note_on channel=2 note=60 velocity=113 time=0.018656666666666665
EXTRACT: note_on channel=2 note=65 velocity=103 time=0
EXTRACT: note_on channel=2 note=67 velocity=101 time=0
EXTRACT: note_on channel=5 note=48 velocity=93 time=0
EXTRACT: note_on channel=5 note=53 velocity=89 time=0
EXTRACT: note_on channel=5 note=55 velocity=96 time=0
EXTRACT: note_on channel=9 note=42 velocity=66 time=0
EXTRACT: note_on channel=15 note=64 velocity=114 time=0
EXTRACT: note_off channel=9 note=42 velocity=66 time=0.004664166666666666
EXTRACT: note_off channel=2 note=67 velocity=101 time=0.09328333333333333
EXTRACT: note_off channel=2 note=65 velocity=103 time=0
EXTRACT: note_off channel=2 note=60 velocity=113 time=0
EXTRACT: note_off channel=5 note=55 velocity=96 time=0
EXTRACT: note_off channel=5 note=53 velocity=89 time=0
EXTRACT: note_off channel=5 note=48 velocity=93 time=0
EXTRACT: note_on channel=1 note=31 velocity=117 time=0.1259325
EXTRACT: note_on channel=9 note=36 velocity=127 time=0
EXTRACT: note_on channel=9 note=42 velocity=74 time=0
EXTRACT: note_off channel=9 note=42 velocity=74 time=0.004664166666666666
EXTRACT: note_off channel=9 note=36 velocity=127 time=0
EXTRACT: note_off channel=1 note=31 velocity=117 time=0.20055916666666665
EXTRACT: note_off channel=15 note=64 velocity=114 time=0
EXTRACT: note_on channel=1 note=36 velocity=119 time=0.018656666666666665
EXTRACT: note_on channel=9 note=42 velocity=76 time=0
EXTRACT: note_on channel=15 note=65 velocity=111 time=0
EXTRACT: note_off channel=9 note=42 velocity=76 time=0.004664166666666666
EXTRACT: note_off channel=1 note=36 velocity=119 time=0.08861916666666667
EXTRACT: note_on channel=2 note=60 velocity=109 time=0.13059666666666667
EXTRACT: note_on channel=2 note=65 velocity=101 time=0
EXTRACT: note_on channel=2 note=67 velocity=104 time=0
EXTRACT: note_on channel=5 note=48 velocity=89 time=0
EXTRACT: note_on channel=5 note=53 velocity=99 time=0
EXTRACT: note_on channel=5 note=55 velocity=93 time=0
EXTRACT: note_on channel=9 note=38 velocity=127 time=0
EXTRACT: note_on channel=9 note=42 velocity=67 time=0
EXTRACT: note_off channel=9 note=42 velocity=67 time=0.004664166666666666
EXTRACT: note_off channel=9 note=38 velocity=127 time=0
EXTRACT: note_off channel=2 note=67 velocity=104 time=0.09328333333333333
EXTRACT: note_off channel=2 note=65 velocity=101 time=0
EXTRACT: note_off channel=2 note=60 velocity=109 time=0
EXTRACT: note_off channel=5 note=55 velocity=93 time=0
EXTRACT: note_off channel=5 note=53 velocity=99 time=0
EXTRACT: note_off channel=5 note=48 velocity=89 time=0
EXTRACT: note_off channel=15 note=65 velocity=111 time=0.10727583333333332
EXTRACT: note_on channel=1 note=31 velocity=124 time=0.018656666666666665
EXTRACT: note_on channel=2 note=60 velocity=111 time=0
EXTRACT: note_on channel=2 note=65 velocity=97 time=0
EXTRACT: note_on channel=2 note=67 velocity=102 time=0
EXTRACT: note_on channel=5 note=48 velocity=92 time=0
EXTRACT: note_on channel=5 note=53 velocity=101 time=0
EXTRACT: note_on channel=5 note=55 velocity=100 time=0
EXTRACT: note_on channel=9 note=42 velocity=66 time=0
EXTRACT: note_on channel=15 note=67 velocity=119 time=0
EXTRACT: note_off channel=9 note=42 velocity=66 time=0.004664166666666666
EXTRACT: note_off channel=2 note=67 velocity=102 time=0.09328333333333333
EXTRACT: note_off channel=2 note=65 velocity=97 time=0
EXTRACT: note_off channel=2 note=60 velocity=111 time=0
EXTRACT: note_off channel=5 note=55 velocity=100 time=0
EXTRACT: note_off channel=5 note=53 velocity=101 time=0
EXTRACT: note_off channel=5 note=48 velocity=92 time=0
EXTRACT: note_off channel=1 note=31 velocity=124 time=0.10727583333333332
EXTRACT: note_on channel=1 note=36 velocity=120 time=0.018656666666666665
EXTRACT: note_on channel=9 note=36 velocity=127 time=0
EXTRACT: note_on channel=9 note=42 velocity=69 time=0
EXTRACT: note_off channel=9 note=42 velocity=69 time=0.004664166666666666
EXTRACT: note_off channel=9 note=36 velocity=127 time=0
EXTRACT: note_off channel=1 note=36 velocity=120 time=0.20055916666666665
EXTRACT: note_off channel=15 note=67 velocity=119 time=0
EXTRACT: note_on channel=9 note=42 velocity=67 time=0.018656666666666665
EXTRACT: note_on channel=15 note=69 velocity=127 time=0
EXTRACT: note_off channel=9 note=42 velocity=67 time=0.004664166666666666
EXTRACT: note_on channel=1 note=36 velocity=118 time=0.2192158333333333
EXTRACT: note_on channel=2 note=60 velocity=98 time=0
EXTRACT: note_on channel=2 note=64 velocity=105 time=0
EXTRACT: note_on channel=2 note=67 velocity=105 time=0
EXTRACT: note_on channel=5 note=48 velocity=98 time=0
EXTRACT: note_on channel=5 note=52 velocity=95 time=0
EXTRACT: note_on channel=5 note=55 velocity=100 time=0
EXTRACT: note_on channel=9 note=38 velocity=125 time=0
EXTRACT: note_on channel=9 note=42 velocity=64 time=0
EXTRACT: note_off channel=9 note=42 velocity=64 time=0.004664166666666666
EXTRACT: note_off channel=9 note=38 velocity=125 time=0
EXTRACT: note_off channel=2 note=67 velocity=105 time=0.09328333333333333
EXTRACT: note_off channel=2 note=64 velocity=105 time=0
EXTRACT: note_off channel=2 note=60 velocity=98 time=0
EXTRACT: note_off channel=5 note=55 velocity=100 time=0
EXTRACT: note_off channel=5 note=52 velocity=95 time=0
EXTRACT: note_off channel=5 note=48 velocity=98 time=0
EXTRACT: note_off channel=1 note=36 velocity=118 time=0.10727583333333332
EXTRACT: note_off channel=15 note=69 velocity=127 time=0
EXTRACT: note_on channel=2 note=60 velocity=102 time=0.018656666666666665
EXTRACT: note_on channel=2 note=64 velocity=107 time=0
EXTRACT: note_on channel=2 note=67 velocity=114 time=0
EXTRACT: note_on channel=5 note=48 velocity=101 time=0
EXTRACT: note_on channel=5 note=52 velocity=86 time=0
EXTRACT: note_on channel=5 note=55 velocity=99 time=0
EXTRACT: note_on channel=9 note=42 velocity=69 time=0
EXTRACT: note_on channel=15 note=67 velocity=116 time=0
EXTRACT: note_off channel=9 note=42 velocity=69 time=0.004664166666666666
EXTRACT: note_off channel=2 note=67 velocity=114 time=0.09328333333333333
EXTRACT: note_off channel=2 note=64 velocity=107 time=0
EXTRACT: note_off channel=2 note=60 velocity=102 time=0
EXTRACT: note_off channel=5 note=55 velocity=99 time=0
EXTRACT: note_off channel=5 note=52 velocity=86 time=0
EXTRACT: note_off channel=5 note=48 velocity=101 time=0
EXTRACT: note_on channel=1 note=31 velocity=119 time=0.1259325
EXTRACT: note_on channel=9 note=36 velocity=127 time=0
EXTRACT: note_on channel=9 note=42 velocity=59 time=0
EXTRACT: note_off channel=9 note=42 velocity=59 time=0.004664166666666666
EXTRACT: note_off channel=9 note=36 velocity=127 time=0
EXTRACT: note_off channel=1 note=31 velocity=119 time=0.20055916666666665
EXTRACT: note_off channel=15 note=67 velocity=116 time=0
EXTRACT: note_on channel=1 note=36 velocity=109 time=0.018656666666666665
EXTRACT: note_on channel=9 note=42 velocity=70 time=0
EXTRACT: note_on channel=15 note=69 velocity=109 time=0
EXTRACT: note_off channel=9 note=42 velocity=70 time=0.004664166666666666
EXTRACT: note_off channel=1 note=36 velocity=109 time=0.08861916666666667
EXTRACT: note_off channel=15 note=69 velocity=109 time=0.11193999999999998
EXTRACT: note_on channel=2 note=60 velocity=110 time=0.018656666666666665
EXTRACT: note_on channel=2 note=64 velocity=104 time=0
EXTRACT: note_on channel=2 note=67 velocity=106 time=0
EXTRACT: note_on channel=5 note=48 velocity=101 time=0
EXTRACT: note_on channel=5 note=52 velocity=96 time=0
EXTRACT: note_on channel=5 note=55 velocity=94 time=0
EXTRACT: note_on channel=9 note=38 velocity=126 time=0
EXTRACT: note_on channel=9 note=42 velocity=59 time=0
EXTRACT: note_off channel=9 note=42 velocity=59 time=0.004664166666666666
EXTRACT: note_off channel=9 note=38 velocity=126 time=0
EXTRACT: note_off channel=2 note=67 velocity=106 time=0.09328333333333333
EXTRACT: note_off channel=2 note=64 velocity=104 time=0
EXTRACT: note_off channel=2 note=60 velocity=110 time=0
EXTRACT: note_off channel=5 note=55 velocity=94 time=0
EXTRACT: note_off channel=5 note=52 velocity=96 time=0
EXTRACT: note_off channel=5 note=48 velocity=101 time=0
EXTRACT: note_on channel=1 note=29 velocity=120 time=0.1259325
EXTRACT: note_on channel=2 note=60 velocity=108 time=0
EXTRACT: note_on channel=2 note=64 velocity=107 time=0
EXTRACT: note_on channel=2 note=67 velocity=98 time=0
EXTRACT: note_on channel=5 note=48 velocity=100 time=0
EXTRACT: note_on channel=5 note=52 velocity=86 time=0
EXTRACT: note_on channel=5 note=55 velocity=90 time=0
EXTRACT: note_on channel=9 note=42 velocity=77 time=0
EXTRACT: note_on channel=15 note=70 velocity=122 time=0
EXTRACT: note_off channel=9 note=42 velocity=77 time=0.004664166666666666
EXTRACT: note_off channel=2 note=67 velocity=98 time=0.09328333333333333
EXTRACT: note_off channel=2 note=64 velocity=107 time=0
EXTRACT: note_off channel=2 note=60 velocity=108 time=0
EXTRACT: note_off channel=5 note=55 velocity=90 time=0
EXTRACT: note_off channel=5 note=52 velocity=86 time=0
EXTRACT: note_off channel=5 note=48 velocity=100 time=0
EXTRACT: note_off channel=1 note=29 velocity=120 time=0.10727583333333332
EXTRACT: note_on channel=1 note=34 velocity=120 time=0.018656666666666665
EXTRACT: note_on channel=9 note=36 velocity=127 time=0
EXTRACT: note_on channel=9 note=42 velocity=58 time=0
EXTRACT: note_off channel=9 note=42 velocity=58 time=0.004664166666666666
EXTRACT: note_off channel=9 note=36 velocity=127 time=0
EXTRACT: note_off channel=1 note=34 velocity=120 time=0.20055916666666665
EXTRACT: note_on channel=9 note=42 velocity=64 time=0.018656666666666665
EXTRACT: note_off channel=9 note=42 velocity=64 time=0.004664166666666666
EXTRACT: note_off channel=15 note=70 velocity=122 time=0.20055916666666665
EXTRACT: note_on channel=1 note=34 velocity=114 time=0.018656666666666665
EXTRACT: note_on channel=2 note=58 velocity=104 time=0
EXTRACT: note_on channel=2 note=62 velocity=102 time=0
EXTRACT: note_on channel=2 note=65 velocity=97 time=0
EXTRACT: note_on channel=5 note=46 velocity=86 time=0
EXTRACT: note_on channel=5 note=50 velocity=102 time=0
EXTRACT: note_on channel=5 note=53 velocity=101 time=0
EXTRACT: note_on channel=9 note=38 velocity=122 time=0
EXTRACT: note_on channel=9 note=42 velocity=71 time=0
EXTRACT: note_on channel=15 note=69 velocity=123 time=0
EXTRACT: note_off channel=9 note=42 velocity=71 time=0.004664166666666666
EXTRACT: note_off channel=9 note=38 velocity=122 time=0
EXTRACT: note_off channel=2 note=65 velocity=97 time=0.09328333333333333
EXTRACT: note_off channel=2 note=62 velocity=102 time=0
EXTRACT: note_off channel=2 note=58 velocity=104 time=0
EXTRACT: note_off channel=5 note=53 velocity=101 time=0
EXTRACT: note_off channel=5 note=50 velocity=102 time=0
EXTRACT: note_off channel=5 note=46 velocity=86 time=0
EXTRACT: note_off channel=1 note=34 velocity=114 time=0.10727583333333332
EXTRACT: note_on channel=2 note=58 velocity=102 time=0.018656666666666665
EXTRACT: note_on channel=2 note=62 velocity=96 time=0
EXTRACT: note_on channel=2 note=65 velocity=97 time=0
EXTRACT: note_on channel=5 note=46 velocity=86 time=0
EXTRACT: note_on channel=5 note=50 velocity=93 time=0
EXTRACT: note_on channel=5 note=53 velocity=91 time=0
EXTRACT: note_on channel=9 note=42 velocity=72 time=0
EXTRACT: note_off channel=9 note=42 velocity=72 time=0.004664166666666666
EXTRACT: note_off channel=2 note=65 velocity=97 time=0.09328333333333333
EXTRACT: note_off channel=2 note=62 velocity=96 time=0
EXTRACT: note_off channel=2 note=58 velocity=102 time=0
EXTRACT: note_off channel=5 note=53 velocity=91 time=0
EXTRACT: note_off channel=5 note=50 velocity=93 time=0
EXTRACT: note_off channel=5 note=46 velocity=86 time=0
EXTRACT: note_off channel=15 note=69 velocity=123 time=0.10727583333333332
EXTRACT: note_on channel=1 note=29 velocity=111 time=0.018656666666666665
EXTRACT: note_on channel=9 note=36 velocity=122 time=0
EXTRACT: note_on channel=9 note=42 velocity=70 time=0
EXTRACT: note_on channel=15 note=67 velocity=113 time=0
EXTRACT: note_off channel=9 note=42 velocity=70 time=0.004664166666666666
EXTRACT: note_off channel=9 note=36 velocity=122 time=0
EXTRACT: note_off channel=1 note=29 velocity=111 time=0.20055916666666665
EXTRACT: note_on channel=1 note=34 velocity=120 time=0.018656666666666665
EXTRACT: note_on channel=9 note=42 velocity=61 time=0
EXTRACT: note_off channel=9 note=42 velocity=61 time=0.004664166666666666
EXTRACT: note_off channel=1 note=34 velocity=120 time=0.08861916666666667
EXTRACT: note_off channel=15 note=67 velocity=113 time=0.11193999999999998
EXTRACT: note_on channel=2 note=58 velocity=109 time=0.018656666666666665
EXTRACT: note_on channel=2 note=62 velocity=102 time=0
EXTRACT: note_on channel=2 note=65 velocity=95 time=0
EXTRACT: note_on channel=5 note=46 velocity=93 time=0
EXTRACT: note_on channel=5 note=50 velocity=94 time=0
EXTRACT: note_on channel=5 note=53 velocity=102 time=0
EXTRACT: note_on channel=9 note=38 velocity=124 time=0
EXTRACT: note_on channel=9 note=42 velocity=59 time=0
EXTRACT: note_on channel=15 note=65 velocity=124 time=0
EXTRACT: note_off channel=9 note=42 velocity=59 time=0.004664166666666666
EXTRACT: note_off channel=9 note=38 velocity=124 time=0
EXTRACT: note_off channel=2 note=65 velocity=95 time=0.09328333333333333
EXTRACT: note_off channel=2 note=62 velocity=102 time=0
EXTRACT: note_off channel=2 note=58 velocity=109 time=0
EXTRACT: note_off channel=5 note=53 velocity=102 time=0
EXTRACT: note_off channel=5 note=50 velocity=94 time=0
EXTRACT: note_off channel=5 note=46 velocity=93 time=0
EXTRACT: note_off channel=15 note=65 velocity=124 time=0.10727583333333332
EXTRACT: note_on channel=1 note=28 velocity=113 time=0.018656666666666665
EXTRACT: note_on channel=2 note=58 velocity=100 time=0
EXTRACT: note_on channel=2 note=62 velocity=97 time=0
EXTRACT: note_on channel=2 note=65 velocity=105 time=0
EXTRACT: note_on channel=5 note=46 velocity=87 time=0
EXTRACT: note_on channel=5 note=50 velocity=104 time=0
EXTRACT: note_on channel=5 note=53 velocity=91 time=0
EXTRACT: note_on channel=9 note=42 velocity=67 time=0
EXTRACT: note_on channel=15 note=67 velocity=110 time=0
EXTRACT: note_off channel=9 note=42 velocity=67 time=0.004664166666666666
EXTRACT: note_off channel=2 note=65 velocity=105 time=0.09328333333333333
EXTRACT: note_off channel=2 note=62 velocity=97 time=0
EXTRACT: note_off channel=2 note=58 velocity=100 time=0
EXTRACT: note_off channel=5 note=53 velocity=91 time=0
EXTRACT: note_off channel=5 note=50 velocity=104 time=0
EXTRACT: note_off channel=5 note=46 velocity=87 time=0
EXTRACT: note_off channel=1 note=28 velocity=113 time=0.10727583333333332
EXTRACT: note_on channel=1 note=33 velocity=126 time=0.018656666666666665
EXTRACT: note_on channel=9 note=36 velocity=127 time=0
EXTRACT: note_on channel=9 note=42 velocity=69 time=0
EXTRACT: note_off channel=9 note=42 velocity=69 time=0.004664166666666666
EXTRACT: note_off channel=9 note=36 velocity=127 time=0
EXTRACT: note_off channel=1 note=33 velocity=126 time=0.20055916666666665
EXTRACT: note_off channel=15 note=67 velocity=110 time=0
EXTRACT: note_on channel=9 note=42 velocity=60 time=0.018656666666666665
EXTRACT: note_on channel=15 note=62 velocity=112 time=0
EXTRACT: note_off channel=9 note=42 velocity=60 time=0.004664166666666666
EXTRACT: note_off channel=15 note=62 velocity=112 time=0.20055916666666665
EXTRACT: note_on channel=1 note=33 velocity=118 time=0.018656666666666665
EXTRACT: note_on channel=2 note=57 velocity=96 time=0
EXTRACT: note_on channel=2 note=60 velocity=107 time=0
EXTRACT: note_on channel=2 note=64 velocity=113 time=0
EXTRACT: note_on channel=5 note=45 velocity=94 time=0
EXTRACT: note_on channel=5 note=48 velocity=105 time=0
EXTRACT: note_on channel=5 note=52 velocity=89 time=0
EXTRACT: note_on channel=9 note=38 velocity=113 time=0
EXTRACT: note_on channel=9 note=42 velocity=67 time=0
EXTRACT: note_on channel=15 note=64 velocity=111 time=0
EXTRACT: note_off channel=9 note=42 velocity=67 time=0.004664166666666666
EXTRACT: note_off channel=9 note=38 velocity=113 time=0
EXTRACT: note_off channel=2 note=64 velocity=113 time=0.09328333333333333
EXTRACT: note_off channel=2 note=60 velocity=107 time=0
EXTRACT: note_off channel=2 note=57 velocity=96 time=0
EXTRACT: note_off channel=5 note=52 velocity=89 time=0
EXTRACT: note_off channel=5 note=48 velocity=105 time=0
EXTRACT: note_off channel=5 note=45 velocity=94 time=0
EXTRACT: note_off channel=1 note=33 velocity=118 time=0.10727583333333332
EXTRACT: note_off channel=15 note=64 velocity=111 time=0
EXTRACT: note_on channel=2 note=57 velocity=108 time=0.018656666666666665
EXTRACT: note_on channel=2 note=60 velocity=114 time=0
EXTRACT: note_on channel=2 note=64 velocity=96 time=0
EXTRACT: note_on channel=5 note=45 velocity=97 time=0
EXTRACT: note_on channel=5 note=48 velocity=98 time=0
EXTRACT: note_on channel=5 note=52 velocity=87 time=0
EXTRACT: note_on channel=9 note=42 velocity=65 time=0
EXTRACT: note_off channel=9 note=42 velocity=65 time=0.004664166666666666
EXTRACT: note_off channel=2 note=64 velocity=96 time=0.09328333333333333
EXTRACT: note_off channel=2 note=60 velocity=114 time=0
EXTRACT: note_off channel=2 note=57 velocity=108 time=0
EXTRACT: note_off channel=5 note=52 velocity=87 time=0
EXTRACT: note_off channel=5 note=48 velocity=98 time=0
EXTRACT: note_off channel=5 note=45 velocity=97 time=0
EXTRACT: note_on channel=1 note=28 velocity=108 time=0.1259325
EXTRACT: note_on channel=9 note=36 velocity=127 time=0
EXTRACT: note_on channel=9 note=46 velocity=117 time=0
EXTRACT: note_off channel=9 note=46 velocity=117 time=0.004664166666666666
EXTRACT: note_off channel=9 note=36 velocity=127 time=0
EXTRACT: note_off channel=1 note=28 velocity=108 time=0.20055916666666665
EXTRACT: note_on channel=1 note=33 velocity=124 time=0.018656666666666665
EXTRACT: note_on channel=9 note=42 velocity=59 time=0
EXTRACT: note_off channel=9 note=42 velocity=59 time=0.004664166666666666
EXTRACT: note_off channel=1 note=33 velocity=124 time=0.08861916666666667
EXTRACT: note_on channel=2 note=57 velocity=112 time=0.13059666666666667
EXTRACT: note_on channel=2 note=60 velocity=100 time=0
EXTRACT: note_on channel=2 note=64 velocity=103 time=0
EXTRACT: note_on channel=5 note=45 velocity=99 time=0
EXTRACT: note_on channel=5 note=48 velocity=95 time=0
EXTRACT: note_on channel=5 note=52 velocity=86 time=0
EXTRACT: note_on channel=9 note=38 velocity=127 time=0
EXTRACT: note_on channel=9 note=46 velocity=115 time=0
EXTRACT: note_off channel=9 note=46 velocity=115 time=0.004664166666666666
EXTRACT: note_off channel=9 note=38 velocity=127 time=0
EXTRACT: note_off channel=2 note=64 velocity=103 time=0.09328333333333333
EXTRACT: note_off channel=2 note=60 velocity=100 time=0
EXTRACT: note_off channel=2 note=57 velocity=112 time=0
EXTRACT: note_off channel=5 note=52 velocity=86 time=0
EXTRACT: note_off channel=5 note=48 velocity=95 time=0
EXTRACT: note_off channel=5 note=45 velocity=99 time=0
EXTRACT: note_on channel=1 note=31 velocity=122 time=0.1259325
EXTRACT: note_on channel=2 note=57 velocity=106 time=0
EXTRACT: note_on channel=2 note=60 velocity=98 time=0
EXTRACT: note_on channel=2 note=64 velocity=103 time=0
EXTRACT: note_on channel=5 note=45 velocity=99 time=0
EXTRACT: note_on channel=5 note=48 velocity=96 time=0
EXTRACT: note_on channel=5 note=52 velocity=97 time=0
EXTRACT: note_on channel=9 note=42 velocity=63 time=0
EXTRACT: note_on channel=15 note=60 velocity=112 time=0
EXTRACT: note_off channel=9 note=42 velocity=63 time=0.004664166666666666
EXTRACT: note_off channel=2 note=64 velocity=103 time=0.09328333333333333
EXTRACT: note_off channel=2 note=60 velocity=98 time=0
EXTRACT: note_off channel=2 note=57 velocity=106 time=0
EXTRACT: note_off channel=5 note=52 velocity=97 time=0
EXTRACT: note_off channel=5 note=48 velocity=96 time=0
EXTRACT: note_off channel=5 note=45 velocity=99 time=0
EXTRACT: note_off channel=1 note=31 velocity=122 time=0.10727583333333332
EXTRACT: note_off channel=15 note=60 velocity=112 time=0
EXTRACT: note_on channel=1 note=36 velocity=123 time=0.018656666666666665
EXTRACT: note_on channel=9 note=36 velocity=120 time=0
EXTRACT: note_on channel=9 note=42 velocity=74 time=0
EXTRACT: note_on channel=15 note=64 velocity=115 time=0
EXTRACT: note_off channel=9 note=42 velocity=74 time=0.004664166666666666
EXTRACT: note_off channel=9 note=36 velocity=120 time=0
EXTRACT: note_off channel=1 note=36 velocity=123 time=0.20055916666666665
EXTRACT: note_off channel=15 note=64 velocity=115 time=0
EXTRACT: note_on channel=9 note=42 velocity=61 time=0.018656666666666665
EXTRACT: note_on channel=15 note=65 velocity=109 time=0
EXTRACT: note_off channel=9 note=42 velocity=61 time=0.004664166666666666
EXTRACT: note_on channel=1 note=36 velocity=123 time=0.2192158333333333
EXTRACT: note_on channel=2 note=60 velocity=100 time=0
EXTRACT: note_on channel=2 note=65 velocity=110 time=0
EXTRACT: note_on channel=2 note=67 velocity=96 time=0
EXTRACT: note_on channel=5 note=48 velocity=104 time=0
EXTRACT: note_on channel=5 note=53 velocity=93 time=0
EXTRACT: note_on channel=5 note=55 velocity=90 time=0
EXTRACT: note_on channel=9 note=38 velocity=117 time=0
EXTRACT: note_on channel=9 note=42 velocity=75 time=0
EXTRACT: note_off channel=9 note=42 velocity=75 time=0.004664166666666666
EXTRACT: note_off channel=9 note=38 velocity=117 time=0
EXTRACT: note_off channel=2 note=67 velocity=96 time=0.09328333333333333
EXTRACT: note_off channel=2 note=65 velocity=110 time=0
EXTRACT: note_off channel=2 note=60 velocity=100 time=0
EXTRACT: note_off channel=5 note=55 velocity=90 time=0
EXTRACT: note_off channel=5 note=53 velocity=93 time=0
EXTRACT: note_off channel=5 note=48 velocity=104 time=0
EXTRACT: note_off channel=1 note=36 velocity=123 time=0.10727583333333332
EXTRACT: note_off channel=15 note=65 velocity=109 time=0
EXTRACT: note_on channel=2 note=60 velocity=104 time=0.018656666666666665
EXTRACT: note_on channel=2 note=65 velocity=95 time=0
EXTRACT: note_on channel=2 note=67 velocity=110 time=0
EXTRACT: note_on channel=5 note=48 velocity=91 time=0
EXTRACT: note_on channel=5 note=53 velocity=105 time=0
EXTRACT: note_on channel=5 note=55 velocity=88 time=0
EXTRACT: note_on channel=9 note=42 velocity=65 time=0
EXTRACT: note_on channel=15 note=64 velocity=124 time=0
EXTRACT: note_off channel=9 note=42 velocity=65 time=0.004664166666666666
EXTRACT: note_off channel=2 note=67 velocity=110 time=0.09328333333333333
EXTRACT: note_off channel=2 note=65 velocity=95 time=0
EXTRACT: note_off channel=2 note=60 velocity=104 time=0
EXTRACT: note_off channel=5 note=55 velocity=88 time=0
EXTRACT: note_off channel=5 note=53 velocity=105 time=0
EXTRACT: note_off channel=5 note=48 velocity=91 time=0
EXTRACT: note_on channel=1 note=31 velocity=111 time=0.1259325
EXTRACT: note_on channel=9 note=36 velocity=127 time=0
EXTRACT: note_on channel=9 note=42 velocity=75 time=0
EXTRACT: note_off channel=9 note=42 velocity=75 time=0.004664166666666666
EXTRACT: note_off channel=9 note=36 velocity=127 time=0
EXTRACT: note_off channel=1 note=31 velocity=111 time=0.20055916666666665
EXTRACT: note_off channel=15 note=64 velocity=124 time=0
EXTRACT: note_on channel=1 note=36 velocity=115 time=0.018656666666666665
EXTRACT: note_on channel=9 note=42 velocity=76 time=0
EXTRACT: note_on channel=15 note=65 velocity=119 time=0
EXTRACT: note_off channel=9 note=42 velocity=76 time=0.004664166666666666
EXTRACT: note_off channel=1 note=36 velocity=115 time=0.08861916666666667
EXTRACT: note_on channel=2 note=60 velocity=110 time=0.13059666666666667
EXTRACT: note_on channel=2 note=65 velocity=101 time=0
EXTRACT: note_on channel=2 note=67 velocity=107 time=0
EXTRACT: note_on channel=5 note=48 velocity=94 time=0
EXTRACT: note_on channel=5 note=53 velocity=87 time=0
EXTRACT: note_on channel=5 note=55 velocity=91 time=0
EXTRACT: note_on channel=9 note=38 velocity=127 time=0
EXTRACT: note_on channel=9 note=42 velocity=67 time=0
EXTRACT: note_off channel=9 note=42 velocity=67 time=0.004664166666666666
EXTRACT: note_off channel=9 note=38 velocity=127 time=0
EXTRACT: note_off channel=2 note=67 velocity=107 time=0.09328333333333333
EXTRACT: note_off channel=2 note=65 velocity=101 time=0
EXTRACT: note_off channel=2 note=60 velocity=110 time=0
EXTRACT: note_off channel=5 note=55 velocity=91 time=0
EXTRACT: note_off channel=5 note=53 velocity=87 time=0
EXTRACT: note_off channel=5 note=48 velocity=94 time=0
EXTRACT: note_off channel=15 note=65 velocity=119 time=0.10727583333333332
EXTRACT: note_on channel=1 note=31 velocity=124 time=0.018656666666666665
EXTRACT: note_on channel=2 note=60 velocity=101 time=0
EXTRACT: note_on channel=2 note=65 velocity=104 time=0
EXTRACT: note_on channel=2 note=67 velocity=111 time=0
EXTRACT: note_on channel=5 note=48 velocity=91 time=0
EXTRACT: note_on channel=5 note=53 velocity=88 time=0
EXTRACT: note_on channel=5 note=55 velocity=98 time=0
EXTRACT: note_on channel=9 note=42 velocity=71 time=0
EXTRACT: note_on channel=15 note=67 velocity=124 time=0
EXTRACT: note_off channel=9 note=42 velocity=71 time=0.004664166666666666
EXTRACT: note_off channel=2 note=67 velocity=111 time=0.09328333333333333
EXTRACT: note_off channel=2 note=65 velocity=104 time=0
EXTRACT: note_off channel=2 note=60 velocity=101 time=0
EXTRACT: note_off channel=5 note=55 velocity=98 time=0
EXTRACT: note_off channel=5 note=53 velocity=88 time=0
EXTRACT: note_off channel=5 note=48 velocity=91 time=0
EXTRACT: note_off channel=1 note=31 velocity=124 time=0.10727583333333332
EXTRACT: note_on channel=1 note=36 velocity=121 time=0.018656666666666665
EXTRACT: note_on channel=9 note=36 velocity=127 time=0
EXTRACT: note_on channel=9 note=42 velocity=74 time=0
EXTRACT: note_off channel=9 note=42 velocity=74 time=0.004664166666666666
EXTRACT: note_off channel=9 note=36 velocity=127 time=0
EXTRACT: note_off channel=1 note=36 velocity=121 time=0.20055916666666665
EXTRACT: note_off channel=15 note=67 velocity=124 time=0
EXTRACT: note_on channel=9 note=42 velocity=77 time=0.018656666666666665
EXTRACT: note_on channel=15 note=69 velocity=109 time=0
EXTRACT: note_off channel=9 note=42 velocity=77 time=0.004664166666666666
EXTRACT: note_on channel=1 note=36 velocity=122 time=0.2192158333333333
EXTRACT: note_on channel=2 note=60 velocity=100 time=0
EXTRACT: note_on channel=2 note=64 velocity=111 time=0
EXTRACT: note_on channel=2 note=67 velocity=111 time=0
EXTRACT: note_on channel=5 note=48 velocity=95 time=0
EXTRACT: note_on channel=5 note=52 velocity=88 time=0
EXTRACT: note_on channel=5 note=55 velocity=90 time=0
EXTRACT: note_on channel=9 note=38 velocity=114 time=0
EXTRACT: note_on channel=9 note=42 velocity=77 time=0
EXTRACT: note_off channel=9 note=42 velocity=77 time=0.004664166666666666
EXTRACT: note_off channel=9 note=38 velocity=114 time=0
EXTRACT: note_off channel=2 note=67 velocity=111 time=0.09328333333333333
EXTRACT: note_off channel=2 note=64 velocity=111 time=0
EXTRACT: note_off channel=2 note=60 velocity=100 time=0
EXTRACT: note_off channel=5 note=55 velocity=90 time=0
EXTRACT: note_off channel=5 note=52 velocity=88 time=0
EXTRACT: note_off channel=5 note=48 velocity=95 time=0
EXTRACT: note_off channel=1 note=36 velocity=122 time=0.10727583333333332
EXTRACT: note_off channel=15 note=69 velocity=109 time=0
EXTRACT: note_on channel=2 note=60 velocity=106 time=0.018656666666666665
EXTRACT: note_on channel=2 note=64 velocity=113 time=0
EXTRACT: note_on channel=2 note=67 velocity=100 time=0
EXTRACT: note_on channel=5 note=48 velocity=98 time=0
EXTRACT: note_on channel=5 note=52 velocity=92 time=0
EXTRACT: note_on channel=5 note=55 velocity=94 time=0
EXTRACT: note_on channel=9 note=42 velocity=70 time=0
EXTRACT: note_on channel=15 note=67 velocity=121 time=0
EXTRACT: note_off channel=9 note=42 velocity=70 time=0.004664166666666666
EXTRACT: note_off channel=2 note=67 velocity=100 time=0.09328333333333333
EXTRACT: note_off channel=2 note=64 velocity=113 time=0
EXTRACT: note_off channel=2 note=60 velocity=106 time=0
EXTRACT: note_off channel=5 note=55 velocity=94 time=0
EXTRACT: note_off channel=5 note=52 velocity=92 time=0
EXTRACT: note_off channel=5 note=48 velocity=98 time=0
EXTRACT: note_on channel=1 note=31 velocity=117 time=0.1259325
EXTRACT: note_on channel=9 note=36 velocity=127 time=0
EXTRACT: note_on channel=9 note=42 velocity=74 time=0
EXTRACT: note_off channel=9 note=42 velocity=74 time=0.004664166666666666
EXTRACT: note_off channel=9 note=36 velocity=127 time=0
EXTRACT: note_off channel=1 note=31 velocity=117 time=0.20055916666666665
EXTRACT: note_off channel=15 note=67 velocity=121 time=0
EXTRACT: note_on channel=1 note=36 velocity=109 time=0.018656666666666665
EXTRACT: note_on channel=9 note=42 velocity=64 time=0
EXTRACT: note_on channel=15 note=69 velocity=117 time=0
EXTRACT: note_off channel=9 note=42 velocity=64 time=0.004664166666666666
EXTRACT: note_off channel=1 note=36 velocity=109 time=0.08861916666666667
EXTRACT: note_on channel=2 note=60 velocity=104 time=0.13059666666666667
EXTRACT: note_on channel=2 note=64 velocity=105 time=0
EXTRACT: note_on channel=2 note=67 velocity=104 time=0
EXTRACT: note_on channel=5 note=48 velocity=102 time=0
EXTRACT: note_on channel=5 note=52 velocity=101 time=0
EXTRACT: note_on channel=5 note=55 velocity=87 time=0
EXTRACT: note_on channel=9 note=38 velocity=122 time=0
EXTRACT: note_on channel=9 note=42 velocity=69 time=0
EXTRACT: note_off channel=9 note=42 velocity=69 time=0.004664166666666666
EXTRACT: note_off channel=9 note=38 velocity=122 time=0
EXTRACT: note_off channel=2 note=67 velocity=104 time=0.09328333333333333
EXTRACT: note_off channel=2 note=64 velocity=105 time=0
EXTRACT: note_off channel=2 note=60 velocity=104 time=0
EXTRACT: note_off channel=5 note=55 velocity=87 time=0
EXTRACT: note_off channel=5 note=52 velocity=101 time=0
EXTRACT: note_off channel=5 note=48 velocity=102 time=0
EXTRACT: note_off channel=15 note=69 velocity=117 time=0.10727583333333332
EXTRACT: note_on channel=1 note=36 velocity=120 time=0.018656666666666665
EXTRACT: note_on channel=2 note=60 velocity=107 time=0
EXTRACT: note_on channel=2 note=64 velocity=113 time=0
EXTRACT: note_on channel=2 note=67 velocity=106 time=0
EXTRACT: note_on channel=5 note=48 velocity=91 time=0
EXTRACT: note_on channel=5 note=52 velocity=100 time=0
EXTRACT: note_on channel=5 note=55 velocity=88 time=0
EXTRACT: note_on channel=9 note=42 velocity=66 time=0
EXTRACT: note_on channel=14 note=69 velocity=118 time=0
EXTRACT: note_on channel=14 note=72 velocity=102 time=0
EXTRACT: note_on channel=15 note=64 velocity=120 time=0
EXTRACT: note_off channel=9 note=42 velocity=66 time=0.004664166666666666
EXTRACT: note_off channel=2 note=67 velocity=106 time=0.09328333333333333
EXTRACT: note_off channel=2 note=64 velocity=113 time=0
EXTRACT: note_off channel=2 note=60 velocity=107 time=0
EXTRACT: note_off channel=5 note=55 velocity=88 time=0
EXTRACT: note_off channel=5 note=52 velocity=100 time=0
EXTRACT: note_off channel=5 note=48 velocity=91 time=0
EXTRACT: note_off channel=1 note=36 velocity=120 time=0.10727583333333332
EXTRACT: note_on channel=1 note=38 velocity=116 time=0.018656666666666665
EXTRACT: note_on channel=9 note=36 velocity=127 time=0
EXTRACT: note_on channel=9 note=42 velocity=73 time=0
EXTRACT: note_off channel=9 note=42 velocity=73 time=0.004664166666666666
EXTRACT: note_off channel=9 note=36 velocity=127 time=0
EXTRACT: note_off channel=1 note=38 velocity=116 time=0.20055916666666665
EXTRACT: note_off channel=14 note=72 velocity=102 time=0
EXTRACT: note_off channel=14 note=69 velocity=118 time=0
EXTRACT: note_off channel=15 note=64 velocity=120 time=0
EXTRACT: note_on channel=9 note=42 velocity=76 time=0.018656666666666665
EXTRACT: note_on channel=14 note=69 velocity=119 time=0
EXTRACT: note_on channel=14 note=72 velocity=102 time=0
EXTRACT: note_on channel=15 note=65 velocity=121 time=0
EXTRACT: note_off channel=9 note=42 velocity=76 time=0.004664166666666666
EXTRACT: note_on channel=1 note=38 velocity=111 time=0.2192158333333333
EXTRACT: note_on channel=2 note=62 velocity=111 time=0
EXTRACT: note_on channel=2 note=65 velocity=99 time=0
EXTRACT: note_on channel=5 note=50 velocity=104 time=0
EXTRACT: note_on channel=5 note=53 velocity=87 time=0
EXTRACT: note_on channel=9 note=38 velocity=121 time=0
EXTRACT: note_on channel=9 note=42 velocity=70 time=0
EXTRACT: note_off channel=9 note=42 velocity=70 time=0.004664166666666666
EXTRACT: note_off channel=9 note=38 velocity=121 time=0
EXTRACT: note_off channel=2 note=65 velocity=99 time=0.09328333333333333
EXTRACT: note_off channel=2 note=62 velocity=111 time=0
EXTRACT: note_off channel=5 note=53 velocity=87 time=0
EXTRACT: note_off channel=5 note=50 velocity=104 time=0
EXTRACT: note_off channel=1 note=38 velocity=111 time=0.10727583333333332
EXTRACT: note_off channel=14 note=72 velocity=102 time=0
EXTRACT: note_off channel=14 note=69 velocity=119 time=0
EXTRACT: note_off channel=15 note=65 velocity=121 time=0
EXTRACT: note_on channel=2 note=62 velocity=107 time=0.018656666666666665
EXTRACT: note_on channel=2 note=65 velocity=107 time=0
EXTRACT: note_on channel=5 note=50 velocity=97 time=0
EXTRACT: note_on channel=5 note=53 velocity=100 time=0
EXTRACT: note_on channel=9 note=42 velocity=60 time=0
EXTRACT: note_on channel=14 note=69 velocity=106 time=0
EXTRACT: note_on channel=14 note=72 velocity=115 time=0
EXTRACT: note_on channel=15 note=64 velocity=111 time=0
EXTRACT: note_off channel=9 note=42 velocity=60 time=0.004664166666666666
EXTRACT: note_off channel=2 note=65 velocity=107 time=0.09328333333333333
EXTRACT: note_off channel=2 note=62 velocity=107 time=0
EXTRACT: note_off channel=5 note=53 velocity=100 time=0
EXTRACT: note_off channel=5 note=50 velocity=97 time=0
EXTRACT: note_on channel=1 note=31 velocity=113 time=0.1259325
EXTRACT: note_on channel=9 note=36 velocity=127 time=0
EXTRACT: note_on channel=9 note=42 velocity=75 time=0
EXTRACT: note_off channel=9 note=42 velocity=75 time=0.004664166666666666
EXTRACT: note_off channel=9 note=36 velocity=127 time=0
EXTRACT: note_off channel=1 note=31 velocity=113 time=0.20055916666666665
EXTRACT: note_off channel=14 note=72 velocity=115 time=0
EXTRACT: note_off channel=14 note=69 velocity=106 time=0
EXTRACT: note_off channel=15 note=64 velocity=111 time=0
EXTRACT: note_on channel=1 note=43 velocity=114 time=0.018656666666666665
EXTRACT: note_on channel=9 note=42 velocity=59 time=0
EXTRACT: note_on channel=14 note=69 velocity=116 time=0
EXTRACT: note_on channel=14 note=72 velocity=107 time=0
EXTRACT: note_on channel=15 note=65 velocity=116 time=0
EXTRACT: note_off channel=9 note=42 velocity=59 time=0.004664166666666666
EXTRACT: note_off channel=1 note=43 velocity=114 time=0.08861916666666667
EXTRACT: note_on channel=2 note=62 velocity=105 time=0.13059666666666667
EXTRACT: note_on channel=2 note=65 velocity=110 time=0
EXTRACT: note_on channel=5 note=50 velocity=89 time=0
EXTRACT: note_on channel=5 note=53 velocity=100 time=0
EXTRACT: note_on channel=9 note=38 velocity=127 time=0
EXTRACT: note_on channel=9 note=42 velocity=58 time=0
EXTRACT: note_off channel=9 note=42 velocity=58 time=0.004664166666666666
EXTRACT: note_off channel=9 note=38 velocity=127 time=0
EXTRACT: note_off channel=2 note=65 velocity=110 time=0.09328333333333333
EXTRACT: note_off channel=2 note=62 velocity=105 time=0
EXTRACT: note_off channel=5 note=53 velocity=100 time=0
EXTRACT: note_off channel=5 note=50 velocity=89 time=0
EXTRACT: note_off channel=14 note=72 velocity=107 time=0.10727583333333332
EXTRACT: note_off channel=14 note=69 velocity=116 time=0
EXTRACT: note_off channel=15 note=65 velocity=116 time=0
EXTRACT: note_on channel=1 note=31 velocity=115 time=0.018656666666666665
EXTRACT: note_on channel=2 note=62 velocity=102 time=0
EXTRACT: note_on channel=2 note=65 velocity=104 time=0
EXTRACT: note_on channel=5 note=50 velocity=101 time=0
EXTRACT: note_on channel=5 note=53 velocity=98 time=0
EXTRACT: note_on channel=9 note=42 velocity=75 time=0
EXTRACT: note_on channel=14 note=67 velocity=108 time=0
EXTRACT: note_on channel=14 note=72 velocity=117 time=0
EXTRACT: note_on channel=15 note=64 velocity=111 time=0
EXTRACT: note_off channel=9 note=42 velocity=75 time=0.004664166666666666
EXTRACT: note_off channel=2 note=65 velocity=104 time=0.09328333333333333
EXTRACT: note_off channel=2 note=62 velocity=102 time=0
EXTRACT: note_off channel=5 note=53 velocity=98 time=0
EXTRACT: note_off channel=5 note=50 velocity=101 time=0
EXTRACT: note_off channel=1 note=31 velocity=115 time=0.10727583333333332
EXTRACT: note_on channel=1 note=36 velocity=114 time=0.018656666666666665
EXTRACT: note_on channel=9 note=38 velocity=121 time=0
EXTRACT: note_on channel=9 note=42 velocity=65 time=0
EXTRACT: note_off channel=9 note=42 velocity=65 time=0.004664166666666666
EXTRACT: note_off channel=9 note=38 velocity=121 time=0
EXTRACT: note_on channel=9 note=38 velocity=118 time=0.10727583333333332
EXTRACT: note_off channel=9 note=38 velocity=118 time=0.004664166666666666
EXTRACT: note_off channel=1 note=36 velocity=114 time=0.08861916666666667
EXTRACT: note_off channel=14 note=72 velocity=117 time=0
EXTRACT: note_off channel=14 note=67 velocity=108 time=0
EXTRACT: note_off channel=15 note=64 velocity=111 time=0
EXTRACT: note_on channel=9 note=36 velocity=122 time=0.018656666666666665
EXTRACT: note_on channel=9 note=42 velocity=74 time=0
EXTRACT: note_on channel=14 note=64 velocity=113 time=0
EXTRACT: note_on channel=14 note=67 velocity=105 time=0
EXTRACT: note_on channel=15 note=60 velocity=117 time=0
EXTRACT: note_off channel=9 note=42 velocity=74 time=0.004664166666666666
EXTRACT: note_off channel=9 note=36 velocity=122 time=0
EXTRACT: note_off channel=14 note=67 velocity=105 time=0.20055916666666665
EXTRACT: note_off channel=14 note=64 velocity=113 time=0
EXTRACT: note_on channel=1 note=36 velocity=125 time=0.018656666666666665
EXTRACT: note_on channel=2 note=60 velocity=99 time=0
EXTRACT: note_on channel=2 note=64 velocity=99 time=0
EXTRACT: note_on channel=5 note=48 velocity=98 time=0
EXTRACT: note_on channel=5 note=52 velocity=101 time=0
EXTRACT: note_on channel=9 note=38 velocity=123 time=0
EXTRACT: note_on channel=9 note=42 velocity=71 time=0
EXTRACT: note_off channel=9 note=42 velocity=71 time=0.004664166666666666
EXTRACT: note_off channel=9 note=38 velocity=123 time=0
EXTRACT: note_off channel=2 note=64 velocity=99 time=0.09328333333333333
EXTRACT: note_off channel=2 note=60 velocity=99 time=0
EXTRACT: note_off channel=5 note=52 velocity=101 time=0
EXTRACT: note_off channel=5 note=48 velocity=98 time=0
EXTRACT: note_on channel=9 note=38 velocity=120 time=0.013992499999999998
EXTRACT: note_off channel=9 note=38 velocity=120 time=0.004664166666666666
EXTRACT: note_off channel=1 note=36 velocity=125 time=0.08861916666666667
EXTRACT: note_off channel=15 note=60 velocity=117 time=0
EXTRACT: note_on channel=2 note=60 velocity=114 time=0.018656666666666665
EXTRACT: note_on channel=2 note=64 velocity=107 time=0
EXTRACT: note_on channel=5 note=48 velocity=104 time=0
EXTRACT: note_on channel=5 note=52 velocity=101 time=0
EXTRACT: note_on channel=9 note=38 velocity=127 time=0
EXTRACT: note_on channel=9 note=42 velocity=61 time=0
EXTRACT: note_off channel=9 note=42 velocity=61 time=0.004664166666666666
EXTRACT: note_off channel=9 note=38 velocity=127 time=0
EXTRACT: note_off channel=2 note=64 velocity=107 time=0.09328333333333333
EXTRACT: note_off channel=2 note=60 velocity=114 time=0
EXTRACT: note_off channel=5 note=52 velocity=101 time=0
EXTRACT: note_off channel=5 note=48 velocity=104 time=0
EXTRACT: note_on channel=1 note=31 velocity=109 time=0.1259325
EXTRACT: note_on channel=9 note=36 velocity=127 time=0
EXTRACT: note_on channel=9 note=38 velocity=122 time=0
EXTRACT: note_on channel=9 note=42 velocity=71 time=0
EXTRACT: note_off channel=9 note=42 velocity=71 time=0.004664166666666666
EXTRACT: note_off channel=9 note=38 velocity=122 time=0
EXTRACT: note_off channel=9 note=36 velocity=127 time=0
EXTRACT: note_on channel=9 note=38 velocity=115 time=0.10727583333333332
EXTRACT: note_off channel=9 note=38 velocity=115 time=0.004664166666666666
EXTRACT: note_off channel=1 note=31 velocity=109 time=0.08861916666666667
EXTRACT: note_on channel=1 note=36 velocity=114 time=0.018656666666666665
EXTRACT: note_on channel=9 note=38 velocity=125 time=0
EXTRACT: note_on channel=9 note=42 velocity=72 time=0
EXTRACT: note_on channel=15 note=60 velocity=124 time=0
EXTRACT: note_off channel=9 note=42 velocity=72 time=0.004664166666666666
EXTRACT: note_off channel=9 note=38 velocity=125 time=0
EXTRACT: note_off channel=1 note=36 velocity=114 time=0.08861916666666667
EXTRACT: note_on channel=9 note=36 velocity=127 time=0.018656666666666665
EXTRACT: note_off channel=9 note=36 velocity=127 time=0.004664166666666666
EXTRACT: note_off channel=15 note=60 velocity=124 time=0.08861916666666667
EXTRACT: note_on channel=2 note=60 velocity=98 time=0.018656666666666665
EXTRACT: note_on channel=2 note=64 velocity=100 time=0
EXTRACT: note_on channel=5 note=48 velocity=87 time=0
EXTRACT: note_on channel=5 note=52 velocity=87 time=0
EXTRACT: note_on channel=9 note=38 velocity=118 time=0
EXTRACT: note_on channel=9 note=42 velocity=59 time=0
EXTRACT: note_on channel=15 note=60 velocity=109 time=0
EXTRACT: note_off channel=9 note=42 velocity=59 time=0.004664166666666666
EXTRACT: note_off channel=9 note=38 velocity=118 time=0
EXTRACT: note_off channel=2 note=64 velocity=100 time=0.09328333333333333
EXTRACT: note_off channel=2 note=60 velocity=98 time=0
EXTRACT: note_off channel=5 note=52 velocity=87 time=0
EXTRACT: note_off channel=5 note=48 velocity=87 time=0
EXTRACT: note_off channel=15 note=60 velocity=109 time=0.10727583333333332
EXTRACT: note_on channel=1 note=28 velocity=115 time=0.018656666666666665
EXTRACT: note_on channel=2 note=60 velocity=113 time=0
EXTRACT: note_on channel=2 note=64 velocity=106 time=0
EXTRACT: note_on channel=5 note=48 velocity=105 time=0
EXTRACT: note_on channel=5 note=52 velocity=102 time=0
EXTRACT: note_on channel=9 note=42 velocity=76 time=0
EXTRACT: note_on channel=15 note=60 velocity=118 time=0
EXTRACT: note_off channel=9 note=42 velocity=76 time=0.004664166666666666
EXTRACT: note_off channel=2 note=64 velocity=106 time=0.09328333333333333
EXTRACT: note_off channel=2 note=60 velocity=113 time=0
EXTRACT: note_off channel=5 note=52 velocity=102 time=0
EXTRACT: note_off channel=5 note=48 velocity=105 time=0
EXTRACT: note_off channel=1 note=28 velocity=115 time=0.10727583333333332
EXTRACT: note_off channel=15 note=60 velocity=118 time=0
EXTRACT: note_on channel=1 note=29 velocity=115 time=0.018656666666666665
EXTRACT: note_on channel=6 note=65 velocity=73 time=0
EXTRACT: note_on channel=9 note=36 velocity=119 time=0
EXTRACT: note_on channel=9 note=49 velocity=113 time=0
EXTRACT: note_on channel=14 note=65 velocity=113 time=0
EXTRACT: note_on channel=14 note=69 velocity=109 time=0
EXTRACT: note_on channel=15 note=60 velocity=116 time=0
EXTRACT: note_off channel=9 note=49 velocity=113 time=0.004664166666666666
EXTRACT: note_off channel=9 note=36 velocity=119 time=0
EXTRACT: note_off channel=1 note=29 velocity=115 time=0.20055916666666665
EXTRACT: note_off channel=6 note=65 velocity=73 time=0.004664166666666666
EXTRACT: note_on channel=6 note=69 velocity=83 time=0.013992499999999998
EXTRACT: note_on channel=9 note=42 velocity=59 time=0
EXTRACT: note_off channel=9 note=42 velocity=59 time=0.004664166666666666
EXTRACT: note_off channel=6 note=69 velocity=83 time=0.2052233333333333
EXTRACT: note_on channel=1 note=29 velocity=125 time=0.013992499999999998
EXTRACT: note_on channel=6 note=72 velocity=73 time=0
EXTRACT: note_on channel=9 note=38 velocity=127 time=0
EXTRACT: note_on channel=9 note=42 velocity=72 time=0
EXTRACT: note_off channel=9 note=42 velocity=72 time=0.004664166666666666
EXTRACT: note_off channel=9 note=38 velocity=127 time=0
EXTRACT: note_off channel=1 note=29 velocity=125 time=0.20055916666666665
EXTRACT: note_off channel=14 note=69 velocity=109 time=0
EXTRACT: note_off channel=14 note=65 velocity=113 time=0
EXTRACT: note_off channel=15 note=60 velocity=116 time=0
EXTRACT: note_off channel=6 note=72 velocity=73 time=0.004664166666666666
EXTRACT: note_on channel=1 note=28 velocity=122 time=0.013992499999999998
EXTRACT: note_on channel=9 note=42 velocity=76 time=0
EXTRACT: note_on channel=14 note=67 velocity=112 time=0
EXTRACT: note_on channel=14 note=71 velocity=113 time=0
EXTRACT: note_on channel=15 note=62 velocity=125 time=0
EXTRACT: note_off channel=9 note=42 velocity=76 time=0.004664166666666666
EXTRACT: note_off channel=1 note=28 velocity=122 time=0.20055916666666665
EXTRACT: note_on channel=1 note=31 velocity=116 time=0.018656666666666665
EXTRACT: note_on channel=6 note=67 velocity=75 time=0
EXTRACT: note_on channel=9 note=36 velocity=119 time=0
EXTRACT: note_on channel=9 note=42 velocity=72 time=0
EXTRACT: note_off channel=9 note=42 velocity=72 time=0.004664166666666666
EXTRACT: note_off channel=9 note=36 velocity=119 time=0
EXTRACT: note_off channel=1 note=31 velocity=116 time=0.20055916666666665
EXTRACT: note_off channel=14 note=71 velocity=113 time=0
EXTRACT: note_off channel=14 note=67 velocity=112 time=0
EXTRACT: note_off channel=15 note=62 velocity=125 time=0
EXTRACT: note_off channel=6 note=67 velocity=75 time=0.004664166666666666
EXTRACT: note_on channel=1 note=43 velocity=120 time=0.013992499999999998
EXTRACT: note_on channel=6 note=71 velocity=80 time=0
EXTRACT: note_on channel=9 note=42 velocity=62 time=0
EXTRACT: note_on channel=14 note=67 velocity=102 time=0
EXTRACT: note_on channel=14 note=71 velocity=117 time=0
EXTRACT: note_on channel=15 note=62 velocity=112 time=0
EXTRACT: note_off channel=9 note=42 velocity=62 time=0.004664166666666666
EXTRACT: note_off channel=1 note=43 velocity=120 time=0.08861916666666667
EXTRACT: note_off channel=14 note=71 velocity=117 time=0.11193999999999998
EXTRACT: note_off channel=14 note=67 velocity=102 time=0
EXTRACT: note_off channel=15 note=62 velocity=112 time=0
EXTRACT: note_off channel=6 note=71 velocity=80 time=0.004664166666666666
EXTRACT: note_on channel=6 note=74 velocity=89 time=0.013992499999999998
EXTRACT: note_on channel=9 note=38 velocity=116 time=0
EXTRACT: note_on channel=9 note=42 velocity=59 time=0
EXTRACT: note_on channel=14 note=67 velocity=114 time=0
EXTRACT: note_on channel=14 note=71 velocity=111 time=0
EXTRACT: note_on channel=15 note=62 velocity=119 time=0
EXTRACT: note_off channel=9 note=42 velocity=59 time=0.004664166666666666
EXTRACT: note_off channel=9 note=38 velocity=116 time=0
EXTRACT: note_off channel=14 note=71 velocity=111 time=0.20055916666666665
EXTRACT: note_off channel=14 note=67 velocity=114 time=0
EXTRACT: note_off channel=15 note=62 velocity=119 time=0
EXTRACT: note_off channel=6 note=74 velocity=89 time=0.004664166666666666
EXTRACT: note_on channel=1 note=31 velocity=124 time=0.013992499999999998
EXTRACT: note_on channel=9 note=42 velocity=68 time=0
EXTRACT: note_on channel=14 note=67 velocity=110 time=0
EXTRACT: note_on channel=14 note=71 velocity=103 time=0
EXTRACT: note_on channel=15 note=62 velocity=124 time=0
EXTRACT: note_off channel=9 note=42 velocity=68 time=0.004664166666666666
EXTRACT: note_off channel=1 note=31 velocity=124 time=0.20055916666666665
EXTRACT: note_off channel=14 note=71 velocity=103 time=0
EXTRACT: note_off channel=14 note=67 velocity=110 time=0
EXTRACT: note_off channel=15 note=62 velocity=124 time=0
EXTRACT: note_on channel=1 note=31 velocity=123 time=0.018656666666666665
EXTRACT: note_on channel=9 note=36 velocity=121 time=0
EXTRACT: note_on channel=9 note=42 velocity=72 time=0
EXTRACT: note_on channel=14 note=67 velocity=118 time=0
EXTRACT: note_on channel=14 note=71 velocity=103 time=0
EXTRACT: note_on channel=15 note=62 velocity=124 time=0
EXTRACT: note_off channel=9 note=42 velocity=72 time=0.004664166666666666
EXTRACT: note_off channel=9 note=36 velocity=121 time=0
EXTRACT: note_off channel=1 note=31 velocity=123 time=0.20055916666666665
EXTRACT: note_off channel=14 note=71 velocity=103 time=0
EXTRACT: note_off channel=14 note=67 velocity=118 time=0
EXTRACT: note_off channel=15 note=62 velocity=124 time=0
EXTRACT: note_on channel=6 note=74 velocity=79 time=0.018656666666666665
EXTRACT: note_on channel=9 note=42 velocity=77 time=0
EXTRACT: note_on channel=14 note=67 velocity=104 time=0
EXTRACT: note_on channel=14 note=71 velocity=115 time=0
EXTRACT: note_on channel=15 note=64 velocity=123 time=0
EXTRACT: note_off channel=9 note=42 velocity=77 time=0.004664166666666666
EXTRACT: note_off channel=14 note=71 velocity=115 time=0.20055916666666665
EXTRACT: note_off channel=14 note=67 velocity=104 time=0
EXTRACT: note_off channel=15 note=64 velocity=123 time=0
EXTRACT: note_off channel=6 note=74 velocity=79 time=0.004664166666666666
EXTRACT: note_on channel=1 note=31 velocity=113 time=0.013992499999999998
EXTRACT: note_on channel=6 note=71 velocity=80 time=0
EXTRACT: note_on channel=9 note=38 velocity=116 time=0
EXTRACT: note_on channel=9 note=42 velocity=60 time=0
EXTRACT: note_on channel=14 note=67 velocity=118 time=0
EXTRACT: note_on channel=14 note=71 velocity=105 time=0
EXTRACT: note_on channel=15 note=62 velocity=123 time=0
EXTRACT: note_off channel=9 note=42 velocity=60 time=0.004664166666666666
EXTRACT: note_off channel=9 note=38 velocity=116 time=0
EXTRACT: note_off channel=1 note=31 velocity=113 time=0.20055916666666665
EXTRACT: note_off channel=14 note=71 velocity=105 time=0
EXTRACT: note_off channel=14 note=67 velocity=118 time=0
EXTRACT: note_off channel=15 note=62 velocity=123 time=0
EXTRACT: note_off channel=6 note=71 velocity=80 time=0.004664166666666666
EXTRACT: note_on channel=1 note=28 velocity=111 time=0.013992499999999998
EXTRACT: note_on channel=6 note=67 velocity=73 time=0
EXTRACT: note_on channel=9 note=42 velocity=63 time=0
EXTRACT: note_on channel=14 note=69 velocity=107 time=0
EXTRACT: note_on channel=14 note=72 velocity=120 time=0
EXTRACT: note_on channel=15 note=64 velocity=124 time=0
EXTRACT: note_off channel=9 note=42 velocity=63 time=0.004664166666666666
EXTRACT: note_off channel=1 note=28 velocity=111 time=0.20055916666666665
EXTRACT: note_off channel=6 note=67 velocity=73 time=0.004664166666666666
EXTRACT: note_on channel=1 note=33 velocity=123 time=0.013992499999999998
EXTRACT: note_on channel=6 note=76 velocity=73 time=0
EXTRACT: note_on channel=9 note=36 velocity=126 time=0
EXTRACT: note_on channel=9 note=46 velocity=112 time=0
EXTRACT: note_off channel=9 note=46 velocity=112 time=0.004664166666666666
EXTRACT: note_off channel=9 note=36 velocity=126 time=0
EXTRACT: note_off channel=1 note=33 velocity=123 time=0.20055916666666665
EXTRACT: note_off channel=6 note=76 velocity=73 time=0.004664166666666666
EXTRACT: note_on channel=1 note=45 velocity=110 time=0.013992499999999998
EXTRACT: note_on channel=6 note=72 velocity=74 time=0
EXTRACT: note_on channel=9 note=42 velocity=63 time=0
EXTRACT: note_off channel=9 note=42 velocity=63 time=0.004664166666666666
EXTRACT: note_off channel=1 note=45 velocity=110 time=0.20055916666666665
EXTRACT: note_off channel=14 note=72 velocity=120 time=0
EXTRACT: note_off channel=14 note=69 velocity=107 time=0
EXTRACT: note_off channel=15 note=64 velocity=124 time=0
EXTRACT: note_off channel=6 note=72 velocity=74 time=0.004664166666666666
EXTRACT: note_on channel=1 note=31 velocity=108 time=0.013992499999999998
EXTRACT: note_on channel=6 note=69 velocity=83 time=0
EXTRACT: note_on channel=9 note=38 velocity=127 time=0
EXTRACT: note_on channel=9 note=46 velocity=110 time=0
EXTRACT: note_on channel=14 note=65 velocity=118 time=0
EXTRACT: note_on channel=14 note=69 velocity=104 time=0
EXTRACT: note_on channel=15 note=60 velocity=119 time=0
EXTRACT: note_off channel=9 note=46 velocity=110 time=0.004664166666666666
EXTRACT: note_off channel=9 note=38 velocity=127 time=0
EXTRACT: note_off channel=1 note=31 velocity=108 time=0.20055916666666665
EXTRACT: note_off channel=14 note=69 velocity=104 time=0
EXTRACT: note_off channel=14 note=65 velocity=118 time=0
EXTRACT: note_off channel=15 note=60 velocity=119 time=0
EXTRACT: note_off channel=6 note=69 velocity=83 time=0.004664166666666666
EXTRACT: note_on channel=1 note=43 velocity=112 time=0.013992499999999998
EXTRACT: note_on channel=6 note=65 velocity=83 time=0
EXTRACT: note_on channel=9 note=42 velocity=71 time=0
EXTRACT: note_on channel=14 note=65 velocity=105 time=0
EXTRACT: note_on channel=14 note=69 velocity=110 time=0
EXTRACT: note_on channel=15 note=60 velocity=109 time=0
EXTRACT: note_off channel=9 note=42 velocity=71 time=0.004664166666666666
EXTRACT: note_off channel=1 note=43 velocity=112 time=0.20055916666666665
EXTRACT: note_off channel=6 note=65 velocity=83 time=0.004664166666666666
EXTRACT: note_on channel=1 note=29 velocity=108 time=0.013992499999999998
EXTRACT: note_on channel=6 note=65 velocity=89 time=0
EXTRACT: note_on channel=9 note=36 velocity=127 time=0
EXTRACT: note_on channel=9 note=42 velocity=74 time=0
EXTRACT: note_off channel=9 note=42 velocity=74 time=0.004664166666666666
EXTRACT: note_off channel=9 note=36 velocity=127 time=0
EXTRACT: note_off channel=1 note=29 velocity=108 time=0.20055916666666665
EXTRACT: note_off channel=14 note=69 velocity=110 time=0
EXTRACT: note_off channel=14 note=65 velocity=105 time=0
EXTRACT: note_off channel=15 note=60 velocity=109 time=0
EXTRACT: note_off channel=6 note=65 velocity=89 time=0.004664166666666666
EXTRACT: note_on channel=6 note=69 velocity=75 time=0.013992499999999998
EXTRACT: note_on channel=9 note=42 velocity=62 time=0
EXTRACT: note_on channel=14 note=65 velocity=102 time=0
EXTRACT: note_on channel=14 note=69 velocity=113 time=0
EXTRACT: note_on channel=15 note=60 velocity=123 time=0
EXTRACT: note_off channel=9 note=42 velocity=62 time=0.004664166666666666
EXTRACT: note_off channel=14 note=69 velocity=113 time=0.20055916666666665
EXTRACT: note_off channel=14 note=65 velocity=102 time=0
EXTRACT: note_off channel=15 note=60 velocity=123 time=0
EXTRACT: note_off channel=6 note=69 velocity=75 time=0.004664166666666666
EXTRACT: note_on channel=1 note=29 velocity=108 time=0.013992499999999998
EXTRACT: note_on channel=6 note=72 velocity=82 time=0
EXTRACT: note_on channel=9 note=38 velocity=127 time=0
EXTRACT: note_on channel=9 note=42 velocity=71 time=0
EXTRACT: note_on channel=14 note=65 velocity=114 time=0
EXTRACT: note_on channel=14 note=69 velocity=120 time=0
EXTRACT: note_on channel=15 note=60 velocity=126 time=0
EXTRACT: note_off channel=9 note=42 velocity=71 time=0.004664166666666666
EXTRACT: note_off channel=9 note=38 velocity=127 time=0
EXTRACT: note_off channel=1 note=29 velocity=108 time=0.20055916666666665
EXTRACT: note_off channel=14 note=69 velocity=120 time=0
EXTRACT: note_off channel=14 note=65 velocity=114 time=0
EXTRACT: note_off channel=15 note=60 velocity=126 time=0
EXTRACT: note_off channel=6 note=72 velocity=82 time=0.004664166666666666
EXTRACT: note_on channel=1 note=29 velocity=124 time=0.013992499999999998
EXTRACT: note_on channel=9 note=42 velocity=69 time=0
EXTRACT: note_on channel=14 note=65 velocity=112 time=0
EXTRACT: note_on channel=14 note=69 velocity=112 time=0
EXTRACT: note_on channel=15 note=60 velocity=119 time=0
EXTRACT: note_off channel=9 note=42 velocity=69 time=0.004664166666666666
EXTRACT: note_off channel=1 note=29 velocity=124 time=0.20055916666666665
EXTRACT: note_off channel=14 note=69 velocity=112 time=0
EXTRACT: note_off channel=14 note=65 velocity=112 time=0
EXTRACT: note_off channel=15 note=60 velocity=119 time=0
EXTRACT: note_on channel=1 note=31 velocity=122 time=0.018656666666666665
EXTRACT: note_on channel=6 note=67 velocity=74 time=0
EXTRACT: note_on channel=9 note=36 velocity=121 time=0
EXTRACT: note_on channel=9 note=42 velocity=73 time=0
EXTRACT: note_on channel=14 note=67 velocity=112 time=0
EXTRACT: note_on channel=14 note=71 velocity=117 time=0
EXTRACT: note_on channel=15 note=62 velocity=116 time=0
EXTRACT: note_off channel=9 note=42 velocity=73 time=0.004664166666666666
EXTRACT: note_off channel=9 note=36 velocity=121 time=0
EXTRACT: note_off channel=1 note=31 velocity=122 time=0.20055916666666665
EXTRACT: note_off channel=14 note=71 velocity=117 time=0
EXTRACT: note_off channel=14 note=67 velocity=112 time=0
EXTRACT: note_off channel=15 note=62 velocity=116 time=0
EXTRACT: note_off channel=6 note=67 velocity=74 time=0.004664166666666666
EXTRACT: note_on channel=1 note=43 velocity=120 time=0.013992499999999998
EXTRACT: note_on channel=6 note=71 velocity=92 time=0
EXTRACT: note_on channel=9 note=42 velocity=71 time=0
EXTRACT: note_on channel=14 note=67 velocity=109 time=0
EXTRACT: note_on channel=14 note=71 velocity=108 time=0
EXTRACT: note_on channel=15 note=64 velocity=127 time=0
EXTRACT: note_off channel=9 note=42 velocity=71 time=0.004664166666666666
EXTRACT: note_off channel=1 note=43 velocity=120 time=0.08861916666666667
EXTRACT: note_off channel=14 note=71 velocity=108 time=0.11193999999999998
EXTRACT: note_off channel=14 note=67 velocity=109 time=0
EXTRACT: note_off channel=15 note=64 velocity=127 time=0
EXTRACT: note_off channel=6 note=71 velocity=92 time=0.004664166666666666
EXTRACT: note_on channel=6 note=74 velocity=78 time=0.013992499999999998
EXTRACT: note_on channel=9 note=38 velocity=124 time=0
EXTRACT: note_on channel=9 note=42 velocity=72 time=0
EXTRACT: note_on channel=14 note=67 velocity=120 time=0
EXTRACT: note_on channel=14 note=71 velocity=109 time=0
EXTRACT: note_on channel=15 note=62 velocity=111 time=0
EXTRACT: note_off channel=9 note=42 velocity=72 time=0.004664166666666666
EXTRACT: note_off channel=9 note=38 velocity=124 time=0
EXTRACT: note_off channel=14 note=71 velocity=109 time=0.20055916666666665
EXTRACT: note_off channel=14 note=67 velocity=120 time=0
EXTRACT: note_off channel=15 note=62 velocity=111 time=0
EXTRACT: note_off channel=6 note=74 velocity=78 time=0.004664166666666666
EXTRACT: note_on channel=1 note=31 velocity=125 time=0.013992499999999998
EXTRACT: note_on channel=9 note=42 velocity=59 time=0
EXTRACT: note_on channel=14 note=69 velocity=115 time=0
EXTRACT: note_on channel=14 note=72 velocity=112 time=0
EXTRACT: note_on channel=15 note=64 velocity=114 time=0
EXTRACT: note_off channel=9 note=42 velocity=59 time=0.004664166666666666
EXTRACT: note_off channel=1 note=31 velocity=125 time=0.20055916666666665
EXTRACT: note_off channel=14 note=72 velocity=112 time=0
EXTRACT: note_off channel=14 note=69 velocity=115 time=0
EXTRACT: note_off channel=15 note=64 velocity=114 time=0
EXTRACT: note_on channel=1 note=33 velocity=122 time=0.018656666666666665
EXTRACT: note_on channel=9 note=36 velocity=127 time=0
EXTRACT: note_on channel=9 note=42 velocity=61 time=0
EXTRACT: note_off channel=9 note=42 velocity=61 time=0.004664166666666666
EXTRACT: note_off channel=9 note=36 velocity=127 time=0
EXTRACT: note_off channel=1 note=33 velocity=122 time=0.20055916666666665
EXTRACT: note_on channel=6 note=67 velocity=91 time=0.018656666666666665
EXTRACT: note_on channel=9 note=42 velocity=72 time=0
EXTRACT: note_off channel=9 note=42 velocity=72 time=0.004664166666666666
EXTRACT: note_off channel=6 note=67 velocity=91 time=0.2052233333333333
EXTRACT: note_on channel=1 note=33 velocity=114 time=0.013992499999999998
EXTRACT: note_on channel=6 note=71 velocity=91 time=0
EXTRACT: note_on channel=9 note=38 velocity=119 time=0
EXTRACT: note_on channel=9 note=42 velocity=77 time=0
EXTRACT: note_on channel=15 note=67 velocity=126 time=0
EXTRACT: note_off channel=9 note=42 velocity=77 time=0.004664166666666666
EXTRACT: note_off channel=9 note=38 velocity=119 time=0
EXTRACT: note_off channel=1 note=33 velocity=114 time=0.20055916666666665
EXTRACT: note_off channel=15 note=67 velocity=126 time=0
EXTRACT: note_off channel=6 note=71 velocity=91 time=0.004664166666666666
EXTRACT: note_on channel=1 note=28 velocity=120 time=0.013992499999999998
EXTRACT: note_on channel=6 note=74 velocity=77 time=0
EXTRACT: note_on channel=9 note=42 velocity=58 time=0
EXTRACT: note_on channel=15 note=67 velocity=117 time=0
EXTRACT: note_off channel=9 note=42 velocity=58 time=0.004664166666666666
EXTRACT: note_off channel=1 note=28 velocity=120 time=0.20055916666666665
EXTRACT: note_off channel=6 note=74 velocity=77 time=0.004664166666666666
EXTRACT: note_on channel=1 note=31 velocity=124 time=0.013992499999999998
EXTRACT: note_on channel=6 note=76 velocity=83 time=0
EXTRACT: note_on channel=9 note=36 velocity=127 time=0
EXTRACT: note_on channel=9 note=42 velocity=61 time=0
EXTRACT: note_off channel=9 note=42 velocity=61 time=0.004664166666666666
EXTRACT: note_off channel=9 note=36 velocity=127 time=0
EXTRACT: note_off channel=1 note=31 velocity=124 time=0.20055916666666665
EXTRACT: note_off channel=15 note=67 velocity=117 time=0
EXTRACT: note_off channel=6 note=76 velocity=83 time=0.004664166666666666
EXTRACT: note_on channel=1 note=43 velocity=112 time=0.013992499999999998
EXTRACT: note_on channel=4 note=74 velocity=103 time=0
EXTRACT: note_on channel=4 note=71 velocity=94 time=0
EXTRACT: note_on channel=4 note=79 velocity=96 time=0
EXTRACT: note_on channel=6 note=74 velocity=76 time=0
EXTRACT: note_on channel=9 note=42 velocity=77 time=0
EXTRACT: note_on channel=15 note=67 velocity=109 time=0
EXTRACT: note_off channel=9 note=42 velocity=77 time=0.004664166666666666
EXTRACT: note_off channel=1 note=43 velocity=112 time=0.08861916666666667
EXTRACT: note_off channel=4 note=79 velocity=96 time=0.11193999999999998
EXTRACT: note_off channel=4 note=71 velocity=94 time=0
EXTRACT: note_off channel=4 note=74 velocity=103 time=0
EXTRACT: note_off channel=15 note=67 velocity=109 time=0
EXTRACT: note_off channel=6 note=74 velocity=76 time=0.004664166666666666
EXTRACT: note_on channel=1 note=38 velocity=118 time=0.013992499999999998
EXTRACT: note_on channel=9 note=38 velocity=127 time=0
EXTRACT: note_on channel=9 note=42 velocity=59 time=0
EXTRACT: note_on channel=15 note=64 velocity=111 time=0
EXTRACT: note_off channel=9 note=42 velocity=59 time=0.004664166666666666
EXTRACT: note_off channel=9 note=38 velocity=127 time=0
EXTRACT: note_off channel=1 note=38 velocity=118 time=0.20055916666666665
EXTRACT: note_off channel=15 note=64 velocity=111 time=0
EXTRACT: note_on channel=1 note=28 velocity=121 time=0.018656666666666665
EXTRACT: note_on channel=4 note=71 velocity=102 time=0
EXTRACT: note_on channel=4 note=74 velocity=95 time=0
EXTRACT: note_on channel=4 note=79 velocity=108 time=0
EXTRACT: note_on channel=9 note=42 velocity=76 time=0
EXTRACT: note_on channel=15 note=62 velocity=116 time=0
EXTRACT: note_off channel=9 note=42 velocity=76 time=0.004664166666666666
EXTRACT: note_off channel=1 note=28 velocity=121 time=0.20055916666666665
EXTRACT: note_off channel=4 note=79 velocity=108 time=0
EXTRACT: note_off channel=4 note=74 velocity=95 time=0
EXTRACT: note_off channel=4 note=71 velocity=102 time=0
EXTRACT: note_off channel=15 note=62 velocity=116 time=0
EXTRACT: note_on channel=1 note=29 velocity=121 time=0.018656666666666665
EXTRACT: note_on channel=6 note=77 velocity=90 time=0
EXTRACT: note_on channel=9 note=36 velocity=120 time=0
EXTRACT: note_on channel=9 note=49 velocity=121 time=0
EXTRACT: note_on channel=14 note=65 velocity=103 time=0
EXTRACT: note_on channel=14 note=69 velocity=107 time=0
EXTRACT: note_on channel=15 note=60 velocity=122 time=0
EXTRACT: note_off channel=9 note=49 velocity=121 time=0.004664166666666666
EXTRACT: note_off channel=9 note=36 velocity=120 time=0
EXTRACT: note_off channel=1 note=29 velocity=121 time=0.20055916666666665
EXTRACT: note_off channel=6 note=77 velocity=90 time=0.004664166666666666
EXTRACT: note_on channel=6 note=81 velocity=86 time=0.013992499999999998
EXTRACT: note_on channel=9 note=42 velocity=64 time=0
EXTRACT: note_off channel=9 note=42 velocity=64 time=0.004664166666666666
EXTRACT: note_off channel=6 note=81 velocity=86 time=0.2052233333333333
EXTRACT: note_on channel=1 note=29 velocity=113 time=0.013992499999999998
EXTRACT: note_on channel=6 note=84 velocity=85 time=0
EXTRACT: note_on channel=9 note=38 velocity=123 time=0
EXTRACT: note_on channel=9 note=42 velocity=64 time=0
EXTRACT: note_off channel=9 note=42 velocity=64 time=0.004664166666666666
EXTRACT: note_off channel=9 note=38 velocity=123 time=0
EXTRACT: note_off channel=1 note=29 velocity=113 time=0.20055916666666665
EXTRACT: note_off channel=14 note=69 velocity=107 time=0
EXTRACT: note_off channel=14 note=65 velocity=103 time=0
EXTRACT: note_off channel=15 note=60 velocity=122 time=0
EXTRACT: note_off channel=6 note=84 velocity=85 time=0.004664166666666666
EXTRACT: note_on channel=1 note=28 velocity=125 time=0.013992499999999998
EXTRACT: note_on channel=6 note=77 velocity=87 time=0
EXTRACT: note_on channel=9 note=42 velocity=69 time=0
EXTRACT: note_on channel=14 note=67 velocity=112 time=0
EXTRACT: note_on channel=14 note=71 velocity=107 time=0
EXTRACT: note_on channel=15 note=62 velocity=112 time=0
EXTRACT: note_off channel=9 note=42 velocity=69 time=0.004664166666666666
EXTRACT: note_off channel=1 note=28 velocity=125 time=0.20055916666666665
EXTRACT: note_off channel=14 note=71 velocity=107 time=0
EXTRACT: note_off channel=14 note=67 velocity=112 time=0
EXTRACT: note_off channel=15 note=62 velocity=112 time=0
EXTRACT: note_off channel=6 note=77 velocity=87 time=0.004664166666666666
EXTRACT: note_on channel=1 note=31 velocity=107 time=0.013992499999999998
EXTRACT: note_on channel=6 note=79 velocity=78 time=0
EXTRACT: note_on channel=9 note=36 velocity=127 time=0
EXTRACT: note_on channel=9 note=42 velocity=67 time=0
EXTRACT: note_off channel=9 note=42 velocity=67 time=0.004664166666666666
EXTRACT: note_off channel=9 note=36 velocity=127 time=0
EXTRACT: note_off channel=1 note=31 velocity=107 time=0.20055916666666665
EXTRACT: note_off channel=6 note=79 velocity=78 time=0.004664166666666666
EXTRACT: note_on channel=1 note=43 velocity=112 time=0.013992499999999998
EXTRACT: note_on channel=6 note=83 velocity=83 time=0
EXTRACT: note_on channel=9 note=42 velocity=64 time=0
EXTRACT: note_on channel=14 note=67 velocity=101 time=0
EXTRACT: note_on channel=14 note=71 velocity=103 time=0
EXTRACT: note_on channel=15 note=62 velocity=112 time=0
EXTRACT: note_off channel=9 note=42 velocity=64 time=0.004664166666666666
EXTRACT: note_off channel=1 note=43 velocity=112 time=0.08861916666666667
EXTRACT: note_off channel=14 note=71 velocity=103 time=0.11193999999999998
EXTRACT: note_off channel=14 note=67 velocity=101 time=0
EXTRACT: note_off channel=15 note=62 velocity=112 time=0
EXTRACT: note_off channel=6 note=83 velocity=83 time=0.004664166666666666
EXTRACT: note_on channel=6 note=86 velocity=91 time=0.013992499999999998
EXTRACT: note_on channel=9 note=38 velocity=127 time=0
EXTRACT: note_on channel=9 note=42 velocity=59 time=0
EXTRACT: note_on channel=14 note=67 velocity=109 time=0
EXTRACT: note_on channel=14 note=71 velocity=111 time=0
EXTRACT: note_on channel=15 note=62 velocity=127 time=0
EXTRACT: note_off channel=9 note=42 velocity=59 time=0.004664166666666666
EXTRACT: note_off channel=9 note=38 velocity=127 time=0
EXTRACT: note_off channel=14 note=71 velocity=111 time=0.20055916666666665
EXTRACT: note_off channel=14 note=67 velocity=109 time=0
EXTRACT: note_off channel=15 note=62 velocity=127 time=0
EXTRACT: note_off channel=6 note=86 velocity=91 time=0.004664166666666666
EXTRACT: note_on channel=1 note=31 velocity=118 time=0.013992499999999998
EXTRACT: note_on channel=9 note=42 velocity=63 time=0
EXTRACT: note_on channel=14 note=67 velocity=120 time=0
EXTRACT: note_on channel=14 note=71 velocity=120 time=0
EXTRACT: note_on channel=15 note=62 velocity=119 time=0
EXTRACT: note_off channel=9 note=42 velocity=63 time=0.004664166666666666
EXTRACT: note_off channel=1 note=31 velocity=118 time=0.20055916666666665
EXTRACT: note_off channel=14 note=71 velocity=120 time=0
EXTRACT: note_off channel=14 note=67 velocity=120 time=0
EXTRACT: note_off channel=15 note=62 velocity=119 time=0
EXTRACT: note_on channel=1 note=31 velocity=114 time=0.018656666666666665
EXTRACT: note_on channel=9 note=36 velocity=127 time=0
EXTRACT: note_on channel=9 note=42 velocity=74 time=0
EXTRACT: note_on channel=14 note=67 velocity=108 time=0
EXTRACT: note_on channel=14 note=71 velocity=102 time=0
EXTRACT: note_on channel=15 note=62 velocity=123 time=0
EXTRACT: note_off channel=9 note=42 velocity=74 time=0.004664166666666666
EXTRACT: note_off channel=9 note=36 velocity=127 time=0
EXTRACT: note_off channel=14 note=71 velocity=102 time=0.20055916666666665
EXTRACT: note_off channel=14 note=67 velocity=108 time=0
EXTRACT: note_off channel=15 note=62 velocity=123 time=0
EXTRACT: note_on channel=6 note=86 velocity=84 time=0.018656666666666665
EXTRACT: note_on channel=9 note=42 velocity=71 time=0
EXTRACT: note_on channel=14 note=67 velocity=113 time=0
EXTRACT: note_on channel=14 note=71 velocity=102 time=0
EXTRACT: note_on channel=15 note=64 velocity=119 time=0
EXTRACT: note_off channel=9 note=42 velocity=71 time=0.004664166666666666
EXTRACT: note_off channel=1 note=31 velocity=114 time=0.20055916666666665
EXTRACT: note_off channel=14 note=71 velocity=102 time=0
EXTRACT: note_off channel=14 note=67 velocity=113 time=0
EXTRACT: note_off channel=15 note=64 velocity=119 time=0
EXTRACT: note_off channel=6 note=86 velocity=84 time=0.004664166666666666
EXTRACT: note_on channel=1 note=31 velocity=112 time=0.013992499999999998
EXTRACT: note_on channel=6 note=83 velocity=76 time=0
EXTRACT: note_on channel=9 note=38 velocity=123 time=0
EXTRACT: note_on channel=9 note=42 velocity=64 time=0
EXTRACT: note_on channel=14 note=67 velocity=110 time=0
EXTRACT: note_on channel=14 note=71 velocity=104 time=0
EXTRACT: note_on channel=15 note=62 velocity=111 time=0
EXTRACT: note_off channel=9 note=42 velocity=64 time=0.004664166666666666
EXTRACT: note_off channel=9 note=38 velocity=123 time=0
EXTRACT: note_off channel=1 note=31 velocity=112 time=0.20055916666666665
EXTRACT: note_off channel=14 note=71 velocity=104 time=0
EXTRACT: note_off channel=14 note=67 velocity=110 time=0
EXTRACT: note_off channel=15 note=62 velocity=111 time=0
EXTRACT: note_off channel=6 note=83 velocity=76 time=0.004664166666666666
EXTRACT: note_on channel=1 note=28 velocity=113 time=0.013992499999999998
EXTRACT: note_on channel=6 note=79 velocity=76 time=0
EXTRACT: note_on channel=9 note=42 velocity=67 time=0
EXTRACT: note_on channel=14 note=69 velocity=119 time=0
EXTRACT: note_on channel=14 note=72 velocity=112 time=0
EXTRACT: note_on channel=15 note=64 velocity=114 time=0
EXTRACT: note_off channel=9 note=42 velocity=67 time=0.004664166666666666
EXTRACT: note_off channel=1 note=28 velocity=113 time=0.20055916666666665
EXTRACT: note_off channel=6 note=79 velocity=76 time=0.004664166666666666
EXTRACT: note_on channel=1 note=33 velocity=123 time=0.013992499999999998
EXTRACT: note_on channel=6 note=88 velocity=91 time=0
EXTRACT: note_on channel=9 note=36 velocity=125 time=0
EXTRACT: note_on channel=9 note=46 velocity=105 time=0
EXTRACT: note_off channel=9 note=46 velocity=105 time=0.004664166666666666
EXTRACT: note_off channel=9 note=36 velocity=125 time=0
EXTRACT: note_off channel=1 note=33 velocity=123 time=0.20055916666666665
EXTRACT: note_off channel=14 note=72 velocity=112 time=0
EXTRACT: note_off channel=14 note=69 velocity=119 time=0
EXTRACT: note_off channel=15 note=64 velocity=114 time=0
EXTRACT: note_off channel=6 note=88 velocity=91 time=0.004664166666666666
EXTRACT: note_on channel=1 note=45 velocity=118 time=0.013992499999999998
EXTRACT: note_on channel=6 note=84 velocity=76 time=0
EXTRACT: note_on channel=9 note=42 velocity=76 time=0
EXTRACT: note_off channel=9 note=42 velocity=76 time=0.004664166666666666
EXTRACT: note_off channel=1 note=45 velocity=118 time=0.20055916666666665
EXTRACT: note_off channel=6 note=84 velocity=76 time=0.004664166666666666
EXTRACT: note_on channel=1 note=31 velocity=112 time=0.013992499999999998
EXTRACT: note_on channel=6 note=81 velocity=81 time=0
EXTRACT: note_on channel=9 note=38 velocity=127 time=0
EXTRACT: note_on channel=9 note=46 velocity=120 time=0
EXTRACT: note_on channel=14 note=65 velocity=103 time=0
EXTRACT: note_on channel=14 note=69 velocity=108 time=0
EXTRACT: note_on channel=15 note=60 velocity=120 time=0
EXTRACT: note_off channel=9 note=46 velocity=120 time=0.004664166666666666
EXTRACT: note_off channel=9 note=38 velocity=127 time=0
EXTRACT: note_off channel=1 note=31 velocity=112 time=0.20055916666666665
EXTRACT: note_off channel=14 note=69 velocity=108 time=0
EXTRACT: note_off channel=14 note=65 velocity=103 time=0
EXTRACT: note_off channel=15 note=60 velocity=120 time=0
EXTRACT: note_off channel=6 note=81 velocity=81 time=0.004664166666666666
EXTRACT: note_on channel=1 note=43 velocity=124 time=0.013992499999999998
EXTRACT: note_on channel=6 note=77 velocity=92 time=0
EXTRACT: note_on channel=9 note=42 velocity=75 time=0
EXTRACT: note_on channel=14 note=65 velocity=119 time=0
EXTRACT: note_on channel=14 note=69 velocity=115 time=0
EXTRACT: note_on channel=15 note=60 velocity=124 time=0
EXTRACT: note_off channel=9 note=42 velocity=75 time=0.004664166666666666
EXTRACT: note_off channel=1 note=43 velocity=124 time=0.20055916666666665
EXTRACT: note_off channel=6 note=77 velocity=92 time=0.004664166666666666
EXTRACT: note_on channel=1 note=29 velocity=124 time=0.013992499999999998
EXTRACT: note_on channel=6 note=77 velocity=73 time=0
EXTRACT: note_on channel=9 note=36 velocity=122 time=0
EXTRACT: note_on channel=9 note=42 velocity=73 time=0
EXTRACT: note_off channel=9 note=42 velocity=73 time=0.004664166666666666
EXTRACT: note_off channel=9 note=36 velocity=122 time=0
EXTRACT: note_off channel=1 note=29 velocity=124 time=0.20055916666666665
EXTRACT: note_off channel=14 note=69 velocity=115 time=0
EXTRACT: note_off channel=14 note=65 velocity=119 time=0
EXTRACT: note_off channel=15 note=60 velocity=124 time=0
EXTRACT: note_off channel=6 note=77 velocity=73 time=0.004664166666666666
EXTRACT: note_on channel=6 note=81 velocity=80 time=0.013992499999999998
EXTRACT: note_on channel=9 note=42 velocity=72 time=0
EXTRACT: note_on channel=14 note=65 velocity=101 time=0
EXTRACT: note_on channel=14 note=69 velocity=106 time=0
EXTRACT: note_on channel=15 note=60 velocity=112 time=0
EXTRACT: note_off channel=9 note=42 velocity=72 time=0.004664166666666666
EXTRACT: note_off channel=14 note=69 velocity=106 time=0.20055916666666665
EXTRACT: note_off channel=14 note=65 velocity=101 time=0
EXTRACT: note_off channel=15 note=60 velocity=112 time=0
EXTRACT: note_off channel=6 note=81 velocity=80 time=0.004664166666666666
EXTRACT: note_on channel=1 note=29 velocity=114 time=0.013992499999999998
EXTRACT: note_on channel=6 note=84 velocity=82 time=0
EXTRACT: note_on channel=9 note=38 velocity=123 time=0
EXTRACT: note_on channel=9 note=42 velocity=70 time=0
EXTRACT: note_on channel=14 note=65 velocity=120 time=0
EXTRACT: note_on channel=14 note=69 velocity=106 time=0
EXTRACT: note_on channel=15 note=60 velocity=127 time=0
EXTRACT: note_off channel=9 note=42 velocity=70 time=0.004664166666666666
EXTRACT: note_off channel=9 note=38 velocity=123 time=0
EXTRACT: note_off channel=1 note=29 velocity=114 time=0.20055916666666665
EXTRACT: note_off channel=14 note=69 velocity=106 time=0
EXTRACT: note_off channel=14 note=65 velocity=120 time=0
EXTRACT: note_off channel=15 note=60 velocity=127 time=0
EXTRACT: note_off channel=6 note=84 velocity=82 time=0.004664166666666666
EXTRACT: note_on channel=1 note=29 velocity=112 time=0.013992499999999998
EXTRACT: note_on channel=9 note=42 velocity=72 time=0
EXTRACT: note_on channel=14 note=65 velocity=104 time=0
EXTRACT: note_on channel=14 note=69 velocity=118 time=0
EXTRACT: note_on channel=15 note=60 velocity=113 time=0
EXTRACT: note_off channel=9 note=42 velocity=72 time=0.004664166666666666
EXTRACT: note_off channel=1 note=29 velocity=112 time=0.20055916666666665
EXTRACT: note_off channel=14 note=69 velocity=118 time=0
EXTRACT: note_off channel=14 note=65 velocity=104 time=0
EXTRACT: note_off channel=15 note=60 velocity=113 time=0
EXTRACT: note_on channel=1 note=31 velocity=120 time=0.018656666666666665
EXTRACT: note_on channel=6 note=79 velocity=74 time=0
EXTRACT: note_on channel=9 note=36 velocity=127 time=0
EXTRACT: note_on channel=9 note=42 velocity=59 time=0
EXTRACT: note_on channel=14 note=67 velocity=102 time=0
EXTRACT: note_on channel=14 note=71 velocity=118 time=0
EXTRACT: note_on channel=15 note=62 velocity=123 time=0
EXTRACT: note_off channel=9 note=42 velocity=59 time=0.004664166666666666
EXTRACT: note_off channel=9 note=36 velocity=127 time=0
EXTRACT: note_off channel=1 note=31 velocity=120 time=0.20055916666666665
EXTRACT: note_off channel=14 note=71 velocity=118 time=0
EXTRACT: note_off channel=14 note=67 velocity=102 time=0
EXTRACT: note_off channel=15 note=62 velocity=123 time=0
EXTRACT: note_off channel=6 note=79 velocity=74 time=0.004664166666666666
EXTRACT: note_on channel=1 note=43 velocity=115 time=0.013992499999999998
EXTRACT: note_on channel=6 note=83 velocity=86 time=0
EXTRACT: note_on channel=9 note=42 velocity=69 time=0
EXTRACT: note_on channel=14 note=67 velocity=102 time=0
EXTRACT: note_on channel=14 note=71 velocity=102 time=0
EXTRACT: note_on channel=15 note=64 velocity=121 time=0
EXTRACT: note_off channel=9 note=42 velocity=69 time=0.004664166666666666
EXTRACT: note_off channel=1 note=43 velocity=115 time=0.20055916666666665
EXTRACT: note_off channel=14 note=71 velocity=102 time=0
EXTRACT: note_off channel=14 note=67 velocity=102 time=0
EXTRACT: note_off channel=15 note=64 velocity=121 time=0
EXTRACT: note_off channel=6 note=83 velocity=86 time=0.004664166666666666
EXTRACT: note_on channel=6 note=86 velocity=88 time=0.013992499999999998
EXTRACT: note_on channel=9 note=38 velocity=127 time=0
EXTRACT: note_on channel=9 note=42 velocity=74 time=0
EXTRACT: note_on channel=14 note=67 velocity=115 time=0
EXTRACT: note_on channel=14 note=71 velocity=103 time=0
EXTRACT: note_on channel=15 note=62 velocity=126 time=0
EXTRACT: note_off channel=9 note=42 velocity=74 time=0.004664166666666666
EXTRACT: note_off channel=9 note=38 velocity=127 time=0
EXTRACT: note_off channel=6 note=86 velocity=88 time=0.09328333333333333
EXTRACT: note_on channel=9 note=38 velocity=127 time=0.013992499999999998
EXTRACT: note_off channel=9 note=38 velocity=127 time=0.004664166666666666
EXTRACT: note_off channel=14 note=71 velocity=103 time=0.08861916666666667
EXTRACT: note_off channel=14 note=67 velocity=115 time=0
EXTRACT: note_off channel=15 note=62 velocity=126 time=0
EXTRACT: note_on channel=1 note=31 velocity=115 time=0.018656666666666665
EXTRACT: note_on channel=9 note=38 velocity=127 time=0
EXTRACT: note_on channel=9 note=42 velocity=68 time=0
EXTRACT: note_on channel=14 note=67 velocity=110 time=0
EXTRACT: note_on channel=14 note=72 velocity=106 time=0
EXTRACT: note_on channel=15 note=60 velocity=118 time=0
EXTRACT: note_off channel=9 note=42 velocity=68 time=0.004664166666666666
EXTRACT: note_off channel=9 note=38 velocity=127 time=0
EXTRACT: note_on channel=9 note=38 velocity=127 time=0.10727583333333332
EXTRACT: note_off channel=9 note=38 velocity=127 time=0.004664166666666666
EXTRACT: note_off channel=1 note=31 velocity=115 time=0.08861916666666667
EXTRACT: note_on channel=1 note=36 velocity=126 time=0.018656666666666665
EXTRACT: note_on channel=3 note=67 velocity=94 time=0
EXTRACT: note_on channel=3 note=70 velocity=91 time=0
EXTRACT: note_on channel=4 note=46 velocity=127 time=0
EXTRACT: note_on channel=9 note=36 velocity=127 time=0
EXTRACT: note_on channel=9 note=49 velocity=105 time=0
EXTRACT: note_off channel=9 note=49 velocity=105 time=0.004664166666666666
EXTRACT: note_off channel=9 note=36 velocity=127 time=0
EXTRACT: control_change channel=3 control=1 value=83 time=0.10727583333333332
EXTRACT: note_off channel=1 note=36 velocity=126 time=0.09328333333333333
EXTRACT: note_on channel=9 note=42 velocity=74 time=0.018656666666666665
EXTRACT: note_off channel=9 note=42 velocity=74 time=0.004664166666666666
EXTRACT: note_on channel=1 note=36 velocity=118 time=0.2192158333333333
EXTRACT: note_on channel=2 note=60 velocity=110 time=0
EXTRACT: note_on channel=2 note=65 velocity=106 time=0
EXTRACT: note_on channel=2 note=67 velocity=110 time=0
EXTRACT: note_on channel=5 note=48 velocity=86 time=0
EXTRACT: note_on channel=5 note=53 velocity=91 time=0
EXTRACT: note_on channel=5 note=55 velocity=104 time=0
EXTRACT: note_on channel=9 note=38 velocity=119 time=0
EXTRACT: note_on channel=9 note=42 velocity=71 time=0
EXTRACT: note_off channel=9 note=42 velocity=71 time=0.004664166666666666
EXTRACT: note_off channel=9 note=38 velocity=119 time=0
EXTRACT: note_off channel=2 note=67 velocity=110 time=0.09328333333333333
EXTRACT: note_off channel=2 note=65 velocity=106 time=0
EXTRACT: note_off channel=2 note=60 velocity=110 time=0
EXTRACT: note_off channel=5 note=55 velocity=104 time=0
EXTRACT: note_off channel=5 note=53 velocity=91 time=0
EXTRACT: note_off channel=5 note=48 velocity=86 time=0
EXTRACT: note_off channel=1 note=36 velocity=118 time=0.10727583333333332
EXTRACT: note_off channel=14 note=72 velocity=106 time=0
EXTRACT: note_off channel=14 note=67 velocity=110 time=0
EXTRACT: note_off channel=15 note=60 velocity=118 time=0
EXTRACT: note_off channel=4 note=46 velocity=127 time=0.004664166666666666
EXTRACT: note_on channel=2 note=60 velocity=114 time=0.013992499999999998
EXTRACT: note_on channel=2 note=65 velocity=109 time=0
EXTRACT: note_on channel=2 note=67 velocity=112 time=0
EXTRACT: note_on channel=4 note=53 velocity=127 time=0
EXTRACT: note_on channel=5 note=48 velocity=103 time=0
EXTRACT: note_on channel=5 note=53 velocity=91 time=0
EXTRACT: note_on channel=5 note=55 velocity=105 time=0
EXTRACT: note_on channel=9 note=42 velocity=74 time=0
EXTRACT: note_off channel=9 note=42 velocity=74 time=0.004664166666666666
EXTRACT: note_off channel=2 note=67 velocity=112 time=0.09328333333333333
EXTRACT: note_off channel=2 note=65 velocity=109 time=0
EXTRACT: note_off channel=2 note=60 velocity=114 time=0
EXTRACT: note_off channel=5 note=55 velocity=105 time=0
EXTRACT: note_off channel=5 note=53 velocity=91 time=0
EXTRACT: note_off channel=5 note=48 velocity=103 time=0
EXTRACT: note_on channel=1 note=31 velocity=110 time=0.1259325
EXTRACT: note_on channel=9 note=36 velocity=127 time=0
EXTRACT: note_on channel=9 note=42 velocity=76 time=0
EXTRACT: note_off channel=9 note=42 velocity=76 time=0.004664166666666666
EXTRACT: note_off channel=9 note=36 velocity=127 time=0
EXTRACT: note_off channel=1 note=31 velocity=110 time=0.20055916666666665
EXTRACT: note_off channel=3 note=70 velocity=91 time=0.004664166666666666
EXTRACT: note_off channel=3 note=67 velocity=94 time=0
EXTRACT: note_on channel=1 note=36 velocity=121 time=0.013992499999999998
EXTRACT: note_on channel=9 note=42 velocity=72 time=0
EXTRACT: note_off channel=9 note=42 velocity=72 time=0.004664166666666666
EXTRACT: note_off channel=1 note=36 velocity=121 time=0.08861916666666667
EXTRACT: note_on channel=2 note=60 velocity=99 time=0.13059666666666667
EXTRACT: note_on channel=2 note=65 velocity=109 time=0
EXTRACT: note_on channel=2 note=67 velocity=100 time=0
EXTRACT: note_on channel=5 note=48 velocity=94 time=0
EXTRACT: note_on channel=5 note=53 velocity=97 time=0
EXTRACT: note_on channel=5 note=55 velocity=88 time=0
EXTRACT: note_on channel=9 note=38 velocity=127 time=0
EXTRACT: note_on channel=9 note=42 velocity=66 time=0
EXTRACT: note_off channel=9 note=42 velocity=66 time=0.004664166666666666
EXTRACT: note_off channel=9 note=38 velocity=127 time=0
EXTRACT: note_off channel=2 note=67 velocity=100 time=0.09328333333333333
EXTRACT: note_off channel=2 note=65 velocity=109 time=0
EXTRACT: note_off channel=2 note=60 velocity=99 time=0
EXTRACT: note_off channel=5 note=55 velocity=88 time=0
EXTRACT: note_off channel=5 note=53 velocity=97 time=0
EXTRACT: note_off channel=5 note=48 velocity=94 time=0
EXTRACT: note_off channel=4 note=53 velocity=127 time=0.11193999999999998
EXTRACT: note_on channel=1 note=31 velocity=121 time=0.013992499999999998
EXTRACT: note_on channel=2 note=60 velocity=112 time=0
EXTRACT: note_on channel=2 note=65 velocity=112 time=0
EXTRACT: note_on channel=2 note=67 velocity=105 time=0
EXTRACT: control_change channel=3 control=1 value=0 time=0
EXTRACT: note_on channel=5 note=48 velocity=97 time=0
EXTRACT: note_on channel=5 note=53 velocity=103 time=0
EXTRACT: note_on channel=5 note=55 velocity=90 time=0
EXTRACT: note_on channel=9 note=42 velocity=59 time=0
EXTRACT: note_off channel=9 note=42 velocity=59 time=0.004664166666666666
EXTRACT: note_off channel=2 note=67 velocity=105 time=0.09328333333333333
EXTRACT: note_off channel=2 note=65 velocity=112 time=0
EXTRACT: note_off channel=2 note=60 velocity=112 time=0
EXTRACT: note_off channel=5 note=55 velocity=90 time=0
EXTRACT: note_off channel=5 note=53 velocity=103 time=0
EXTRACT: note_off channel=5 note=48 velocity=97 time=0
EXTRACT: note_off channel=1 note=31 velocity=121 time=0.10727583333333332
EXTRACT: note_on channel=1 note=29 velocity=122 time=0.018656666666666665
EXTRACT: note_on channel=6 note=65 velocity=73 time=0
EXTRACT: note_on channel=9 note=36 velocity=126 time=0
EXTRACT: note_on channel=9 note=42 velocity=59 time=0
EXTRACT: note_on channel=14 note=65 velocity=113 time=0
EXTRACT: note_on channel=14 note=69 velocity=114 time=0
EXTRACT: note_on channel=15 note=60 velocity=119 time=0
EXTRACT: note_off channel=9 note=42 velocity=59 time=0.004664166666666666
EXTRACT: note_off channel=9 note=36 velocity=126 time=0
EXTRACT: note_off channel=1 note=29 velocity=122 time=0.20055916666666665
EXTRACT: note_off channel=6 note=65 velocity=73 time=0.004664166666666666
EXTRACT: note_on channel=6 note=69 velocity=90 time=0.013992499999999998
EXTRACT: note_on channel=9 note=42 velocity=58 time=0
EXTRACT: note_off channel=9 note=42 velocity=58 time=0.004664166666666666
EXTRACT: note_off channel=6 note=69 velocity=90 time=0.2052233333333333
EXTRACT: note_on channel=1 note=29 velocity=120 time=0.013992499999999998
EXTRACT: note_on channel=6 note=72 velocity=92 time=0
EXTRACT: note_on channel=9 note=38 velocity=126 time=0
EXTRACT: note_on channel=9 note=42 velocity=63 time=0
EXTRACT: note_off channel=9 note=42 velocity=63 time=0.004664166666666666
EXTRACT: note_off channel=9 note=38 velocity=126 time=0
EXTRACT: note_off channel=1 note=29 velocity=120 time=0.20055916666666665
EXTRACT: note_off channel=14 note=69 velocity=114 time=0
EXTRACT: note_off channel=14 note=65 velocity=113 time=0
EXTRACT: note_off channel=15 note=60 velocity=119 time=0
EXTRACT: note_off channel=6 note=72 velocity=92 time=0.004664166666666666
EXTRACT: note_on channel=1 note=28 velocity=112 time=0.013992499999999998
EXTRACT: note_on channel=9 note=42 velocity=71 time=0
EXTRACT: note_on channel=14 note=67 velocity=118 time=0
EXTRACT: note_on channel=14 note=71 velocity=115 time=0
EXTRACT: note_on channel=15 note=62 velocity=127 time=0
EXTRACT: note_off channel=9 note=42 velocity=71 time=0.004664166666666666
EXTRACT: note_off channel=1 note=28 velocity=112 time=0.20055916666666665
EXTRACT: note_on channel=1 note=31 velocity=118 time=0.018656666666666665
EXTRACT: note_on channel=6 note=67 velocity=82 time=0
EXTRACT: note_on channel=9 note=36 velocity=125 time=0
EXTRACT: note_on channel=9 note=42 velocity=65 time=0
EXTRACT: note_off channel=9 note=42 velocity=65 time=0.004664166666666666
EXTRACT: note_off channel=9 note=36 velocity=125 time=0
EXTRACT: note_off channel=1 note=31 velocity=118 time=0.20055916666666665
EXTRACT: note_off channel=14 note=71 velocity=115 time=0
EXTRACT: note_off channel=14 note=67 velocity=118 time=0
EXTRACT: note_off channel=15 note=62 velocity=127 time=0
EXTRACT: note_off channel=6 note=67 velocity=82 time=0.004664166666666666
EXTRACT: note_on channel=1 note=43 velocity=123 time=0.013992499999999998
EXTRACT: note_on channel=6 note=71 velocity=86 time=0
EXTRACT: note_on channel=9 note=42 velocity=64 time=0
EXTRACT: note_on channel=14 note=67 velocity=101 time=0
EXTRACT: note_on channel=14 note=71 velocity=111 time=0
EXTRACT: note_on channel=15 note=62 velocity=124 time=0
EXTRACT: note_off channel=9 note=42 velocity=64 time=0.004664166666666666
EXTRACT: note_off channel=1 note=43 velocity=123 time=0.08861916666666667
EXTRACT: note_off channel=14 note=71 velocity=111 time=0.11193999999999998
EXTRACT: note_off channel=14 note=67 velocity=101 time=0
EXTRACT: note_off channel=15 note=62 velocity=124 time=0
EXTRACT: note_off channel=6 note=71 velocity=86 time=0.004664166666666666
EXTRACT: note_on channel=6 note=74 velocity=78 time=0.013992499999999998
EXTRACT: note_on channel=9 note=38 velocity=123 time=0
EXTRACT: note_on channel=9 note=42 velocity=58 time=0
EXTRACT: note_on channel=14 note=67 velocity=119 time=0
EXTRACT: note_on channel=14 note=71 velocity=105 time=0
EXTRACT: note_on channel=15 note=62 velocity=126 time=0
EXTRACT: note_off channel=9 note=42 velocity=58 time=0.004664166666666666
EXTRACT: note_off channel=9 note=38 velocity=123 time=0
EXTRACT: note_off channel=14 note=71 velocity=105 time=0.20055916666666665
EXTRACT: note_off channel=14 note=67 velocity=119 time=0
EXTRACT: note_off channel=15 note=62 velocity=126 time=0
EXTRACT: note_off channel=6 note=74 velocity=78 time=0.004664166666666666
EXTRACT: note_on channel=1 note=31 velocity=120 time=0.013992499999999998
EXTRACT: note_on channel=9 note=42 velocity=71 time=0
EXTRACT: note_on channel=14 note=67 velocity=120 time=0
EXTRACT: note_on channel=14 note=71 velocity=112 time=0
EXTRACT: note_on channel=15 note=62 velocity=121 time=0
EXTRACT: note_off channel=9 note=42 velocity=71 time=0.004664166666666666
EXTRACT: note_off channel=1 note=31 velocity=120 time=0.20055916666666665
EXTRACT: note_off channel=14 note=71 velocity=112 time=0
EXTRACT: note_off channel=14 note=67 velocity=120 time=0
EXTRACT: note_off channel=15 note=62 velocity=121 time=0
EXTRACT: note_on channel=1 note=31 velocity=111 time=0.018656666666666665
EXTRACT: note_on channel=9 note=36 velocity=125 time=0
EXTRACT: note_on channel=9 note=42 velocity=58 time=0
EXTRACT: note_on channel=14 note=67 velocity=109 time=0
EXTRACT: note_on channel=14 note=71 velocity=101 time=0
EXTRACT: note_on channel=15 note=62 velocity=127 time=0
EXTRACT: note_off channel=9 note=42 velocity=58 time=0.004664166666666666
EXTRACT: note_off channel=9 note=36 velocity=125 time=0
EXTRACT: note_off channel=1 note=31 velocity=111 time=0.20055916666666665
EXTRACT: note_off channel=14 note=71 velocity=101 time=0
EXTRACT: note_off channel=14 note=67 velocity=109 time=0
EXTRACT: note_off channel=15 note=62 velocity=127 time=0
EXTRACT: note_on channel=6 note=74 velocity=77 time=0.018656666666666665
EXTRACT: note_on channel=9 note=42 velocity=67 time=0
EXTRACT: note_on channel=14 note=67 velocity=106 time=0
EXTRACT: note_on channel=14 note=71 velocity=114 time=0
EXTRACT: note_on channel=15 note=64 velocity=122 time=0
EXTRACT: note_off channel=9 note=42 velocity=67 time=0.004664166666666666
EXTRACT: note_off channel=14 note=71 velocity=114 time=0.20055916666666665
EXTRACT: note_off channel=14 note=67 velocity=106 time=0
EXTRACT: note_off channel=15 note=64 velocity=122 time=0
EXTRACT: note_off channel=6 note=74 velocity=77 time=0.004664166666666666
EXTRACT: note_on channel=1 note=31 velocity=112 time=0.013992499999999998
EXTRACT: note_on channel=6 note=71 velocity=79 time=0
EXTRACT: note_on channel=9 note=38 velocity=113 time=0
EXTRACT: note_on channel=9 note=42 velocity=59 time=0
EXTRACT: note_on channel=14 note=67 velocity=102 time=0
EXTRACT: note_on channel=14 note=71 velocity=108 time=0
EXTRACT: note_on channel=15 note=62 velocity=125 time=0
EXTRACT: note_off channel=9 note=42 velocity=59 time=0.004664166666666666
EXTRACT: note_off channel=9 note=38 velocity=113 time=0
EXTRACT: note_off channel=1 note=31 velocity=112 time=0.20055916666666665
EXTRACT: note_off channel=14 note=71 velocity=108 time=0
EXTRACT: note_off channel=14 note=67 velocity=102 time=0
EXTRACT: note_off channel=15 note=62 velocity=125 time=0
EXTRACT: note_off channel=6 note=71 velocity=79 time=0.004664166666666666
EXTRACT: note_on channel=1 note=28 velocity=108 time=0.013992499999999998
EXTRACT: note_on channel=6 note=67 velocity=76 time=0
EXTRACT: note_on channel=9 note=42 velocity=68 time=0
EXTRACT: note_on channel=14 note=69 velocity=101 time=0
EXTRACT: note_on channel=14 note=72 velocity=111 time=0
EXTRACT: note_on channel=15 note=64 velocity=119 time=0
EXTRACT: note_off channel=9 note=42 velocity=68 time=0.004664166666666666
EXTRACT: note_off channel=1 note=28 velocity=108 time=0.20055916666666665
EXTRACT: note_off channel=6 note=67 velocity=76 time=0.004664166666666666
EXTRACT: note_on channel=1 note=33 velocity=112 time=0.013992499999999998
EXTRACT: note_on channel=6 note=76 velocity=80 time=0
EXTRACT: note_on channel=9 note=36 velocity=127 time=0
EXTRACT: note_on channel=9 note=46 velocity=117 time=0
EXTRACT: note_off channel=9 note=46 velocity=117 time=0.004664166666666666
EXTRACT: note_off channel=9 note=36 velocity=127 time=0
EXTRACT: note_off channel=1 note=33 velocity=112 time=0.20055916666666665
EXTRACT: note_off channel=6 note=76 velocity=80 time=0.004664166666666666
EXTRACT: note_on channel=1 note=45 velocity=112 time=0.013992499999999998
EXTRACT: note_on channel=6 note=72 velocity=86 time=0
EXTRACT: note_on channel=9 note=42 velocity=60 time=0
EXTRACT: note_off channel=9 note=42 velocity=60 time=0.004664166666666666
EXTRACT: note_off channel=1 note=45 velocity=112 time=0.20055916666666665
EXTRACT: note_off channel=14 note=72 velocity=111 time=0
EXTRACT: note_off channel=14 note=69 velocity=101 time=0
EXTRACT: note_off channel=15 note=64 velocity=119 time=0
EXTRACT: note_off channel=6 note=72 velocity=86 time=0.004664166666666666
EXTRACT: note_on channel=1 note=31 velocity=123 time=0.013992499999999998
EXTRACT: note_on channel=6 note=69 velocity=82 time=0
EXTRACT: note_on channel=9 note=38 velocity=127 time=0
EXTRACT: note_on channel=9 note=46 velocity=121 time=0
EXTRACT: note_on channel=14 note=65 velocity=102 time=0
EXTRACT: note_on channel=14 note=69 velocity=113 time=0
EXTRACT: note_on channel=15 note=60 velocity=116 time=0
EXTRACT: note_off channel=9 note=46 velocity=121 time=0.004664166666666666
EXTRACT: note_off channel=9 note=38 velocity=127 time=0
EXTRACT: note_off channel=1 note=31 velocity=123 time=0.20055916666666665
EXTRACT: note_off channel=14 note=69 velocity=113 time=0
EXTRACT: note_off channel=14 note=65 velocity=102 time=0
EXTRACT: note_off channel=15 note=60 velocity=116 time=0
EXTRACT: note_off channel=6 note=69 velocity=82 time=0.004664166666666666
EXTRACT: note_on channel=1 note=43 velocity=113 time=0.013992499999999998
EXTRACT: note_on channel=6 note=65 velocity=77 time=0
EXTRACT: note_on channel=9 note=42 velocity=71 time=0
EXTRACT: note_on channel=14 note=65 velocity=104 time=0
EXTRACT: note_on channel=14 note=69 velocity=105 time=0
EXTRACT: note_on channel=15 note=60 velocity=113 time=0
EXTRACT: note_off channel=9 note=42 velocity=71 time=0.004664166666666666
EXTRACT: note_off channel=1 note=43 velocity=113 time=0.20055916666666665
EXTRACT: note_off channel=6 note=65 velocity=77 time=0.004664166666666666
EXTRACT: note_on channel=1 note=29 velocity=110 time=0.013992499999999998
EXTRACT: note_on channel=6 note=65 velocity=90 time=0
EXTRACT: note_on channel=9 note=36 velocity=127 time=0
EXTRACT: note_on channel=9 note=42 velocity=74 time=0
EXTRACT: note_off channel=9 note=42 velocity=74 time=0.004664166666666666
EXTRACT: note_off channel=9 note=36 velocity=127 time=0
EXTRACT: note_off channel=1 note=29 velocity=110 time=0.20055916666666665
EXTRACT: note_off channel=14 note=69 velocity=105 time=0
EXTRACT: note_off channel=14 note=65 velocity=104 time=0
EXTRACT: note_off channel=15 note=60 velocity=113 time=0
EXTRACT: note_off channel=6 note=65 velocity=90 time=0.004664166666666666
EXTRACT: note_on channel=6 note=69 velocity=92 time=0.013992499999999998
EXTRACT: note_on channel=9 note=42 velocity=58 time=0
EXTRACT: note_on channel=14 note=65 velocity=109 time=0
EXTRACT: note_on channel=14 note=69 velocity=106 time=0
EXTRACT: note_on channel=15 note=60 velocity=122 time=0
EXTRACT: note_off channel=9 note=42 velocity=58 time=0.004664166666666666
EXTRACT: note_off channel=14 note=69 velocity=106 time=0.20055916666666665
EXTRACT: note_off channel=14 note=65 velocity=109 time=0
EXTRACT: note_off channel=15 note=60 velocity=122 time=0
EXTRACT: note_off channel=6 note=69 velocity=92 time=0.004664166666666666
EXTRACT: note_on channel=1 note=29 velocity=123 time=0.013992499999999998
EXTRACT: note_on channel=6 note=72 velocity=80 time=0
EXTRACT: note_on channel=9 note=38 velocity=123 time=0
EXTRACT: note_on channel=9 note=42 velocity=69 time=0
EXTRACT: note_on channel=14 note=65 velocity=113 time=0
EXTRACT: note_on channel=14 note=69 velocity=114 time=0
EXTRACT: note_on channel=15 note=60 velocity=115 time=0
EXTRACT: note_off channel=9 note=42 velocity=69 time=0.004664166666666666
EXTRACT: note_off channel=9 note=38 velocity=123 time=0
EXTRACT: note_off channel=1 note=29 velocity=123 time=0.20055916666666665
EXTRACT: note_off channel=14 note=69 velocity=114 time=0
EXTRACT: note_off channel=14 note=65 velocity=113 time=0
EXTRACT: note_off channel=15 note=60 velocity=115 time=0
EXTRACT: note_off channel=6 note=72 velocity=80 time=0.004664166666666666
EXTRACT: note_on channel=1 note=29 velocity=121 time=0.013992499999999998
EXTRACT: note_on channel=9 note=42 velocity=62 time=0
EXTRACT: note_on channel=14 note=65 velocity=120 time=0
EXTRACT: note_on channel=14 note=69 velocity=114 time=0
EXTRACT: note_on channel=15 note=60 velocity=118 time=0
EXTRACT: note_off channel=9 note=42 velocity=62 time=0.004664166666666666
EXTRACT: note_off channel=1 note=29 velocity=121 time=0.20055916666666665
EXTRACT: note_off channel=14 note=69 velocity=114 time=0
EXTRACT: note_off channel=14 note=65 velocity=120 time=0
EXTRACT: note_off channel=15 note=60 velocity=118 time=0
EXTRACT: note_on channel=1 note=31 velocity=124 time=0.018656666666666665
EXTRACT: note_on channel=6 note=67 velocity=81 time=0
EXTRACT: note_on channel=9 note=36 velocity=124 time=0
EXTRACT: note_on channel=9 note=42 velocity=64 time=0
EXTRACT: note_on channel=14 note=67 velocity=102 time=0
EXTRACT: note_on channel=14 note=71 velocity=113 time=0
EXTRACT: note_on channel=15 note=62 velocity=118 time=0
EXTRACT: note_off channel=9 note=42 velocity=64 time=0.004664166666666666
EXTRACT: note_off channel=9 note=36 velocity=124 time=0
EXTRACT: note_off channel=1 note=31 velocity=124 time=0.20055916666666665
EXTRACT: note_off channel=14 note=71 velocity=113 time=0
EXTRACT: note_off channel=14 note=67 velocity=102 time=0
EXTRACT: note_off channel=15 note=62 velocity=118 time=0
EXTRACT: note_off channel=6 note=67 velocity=81 time=0.004664166666666666
EXTRACT: note_on channel=1 note=43 velocity=111 time=0.013992499999999998
EXTRACT: note_on channel=6 note=71 velocity=84 time=0
EXTRACT: note_on channel=9 note=42 velocity=60 time=0
EXTRACT: note_on channel=14 note=67 velocity=103 time=0
EXTRACT: note_on channel=14 note=71 velocity=113 time=0
EXTRACT: note_on channel=15 note=64 velocity=111 time=0
EXTRACT: note_off channel=9 note=42 velocity=60 time=0.004664166666666666
EXTRACT: note_off channel=1 note=43 velocity=111 time=0.08861916666666667
EXTRACT: note_off channel=14 note=71 velocity=113 time=0.11193999999999998
EXTRACT: note_off channel=14 note=67 velocity=103 time=0
EXTRACT: note_off channel=15 note=64 velocity=111 time=0
EXTRACT: note_off channel=6 note=71 velocity=84 time=0.004664166666666666
EXTRACT: note_on channel=6 note=74 velocity=75 time=0.013992499999999998
EXTRACT: note_on channel=9 note=38 velocity=122 time=0
EXTRACT: note_on channel=9 note=42 velocity=76 time=0
EXTRACT: note_on channel=14 note=67 velocity=119 time=0
EXTRACT: note_on channel=14 note=71 velocity=114 time=0
EXTRACT: note_on channel=15 note=62 velocity=124 time=0
EXTRACT: note_off channel=9 note=42 velocity=76 time=0.004664166666666666
EXTRACT: note_off channel=9 note=38 velocity=122 time=0
EXTRACT: note_off channel=14 note=71 velocity=114 time=0.20055916666666665
EXTRACT: note_off channel=14 note=67 velocity=119 time=0
EXTRACT: note_off channel=15 note=62 velocity=124 time=0
EXTRACT: note_off channel=6 note=74 velocity=75 time=0.004664166666666666
EXTRACT: note_on channel=1 note=31 velocity=112 time=0.013992499999999998
EXTRACT: note_on channel=9 note=42 velocity=65 time=0
EXTRACT: note_on channel=14 note=69 velocity=112 time=0
EXTRACT: note_on channel=14 note=72 velocity=108 time=0
EXTRACT: note_on channel=15 note=64 velocity=125 time=0
EXTRACT: note_off channel=9 note=42 velocity=65 time=0.004664166666666666
EXTRACT: note_off channel=1 note=31 velocity=112 time=0.20055916666666665
EXTRACT: note_off channel=14 note=72 velocity=108 time=0
EXTRACT: note_off channel=14 note=69 velocity=112 time=0
EXTRACT: note_off channel=15 note=64 velocity=125 time=0
EXTRACT: note_on channel=1 note=33 velocity=113 time=0.018656666666666665
EXTRACT: note_on channel=9 note=36 velocity=127 time=0
EXTRACT: note_on channel=9 note=42 velocity=68 time=0
EXTRACT: note_off channel=9 note=42 velocity=68 time=0.004664166666666666
EXTRACT: note_off channel=9 note=36 velocity=127 time=0
EXTRACT: note_off channel=1 note=33 velocity=113 time=0.20055916666666665
EXTRACT: note_on channel=6 note=67 velocity=81 time=0.018656666666666665
EXTRACT: note_on channel=9 note=42 velocity=73 time=0
EXTRACT: note_off channel=9 note=42 velocity=73 time=0.004664166666666666
EXTRACT: note_off channel=6 note=67 velocity=81 time=0.2052233333333333
EXTRACT: note_on channel=1 note=33 velocity=116 time=0.013992499999999998
EXTRACT: note_on channel=6 note=71 velocity=88 time=0
EXTRACT: note_on channel=9 note=38 velocity=127 time=0
EXTRACT: note_on channel=9 note=42 velocity=70 time=0
EXTRACT: note_on channel=15 note=67 velocity=120 time=0
EXTRACT: note_off channel=9 note=42 velocity=70 time=0.004664166666666666
EXTRACT: note_off channel=9 note=38 velocity=127 time=0
EXTRACT: note_off channel=1 note=33 velocity=116 time=0.20055916666666665
EXTRACT: note_off channel=15 note=67 velocity=120 time=0
EXTRACT: note_off channel=6 note=71 velocity=88 time=0.004664166666666666
EXTRACT: note_on channel=1 note=28 velocity=124 time=0.013992499999999998
EXTRACT: note_on channel=6 note=74 velocity=77 time=0
EXTRACT: note_on channel=9 note=42 velocity=66 time=0
EXTRACT: note_on channel=15 note=67 velocity=126 time=0
EXTRACT: note_off channel=9 note=42 velocity=66 time=0.004664166666666666
EXTRACT: note_off channel=1 note=28 velocity=124 time=0.20055916666666665
EXTRACT: note_off channel=6 note=74 velocity=77 time=0.004664166666666666
EXTRACT: note_on channel=1 note=31 velocity=122 time=0.013992499999999998
EXTRACT: note_on channel=6 note=76 velocity=85 time=0
EXTRACT: note_on channel=9 note=36 velocity=127 time=0
EXTRACT: note_on channel=9 note=42 velocity=72 time=0
EXTRACT: note_off channel=9 note=42 velocity=72 time=0.004664166666666666
EXTRACT: note_off channel=9 note=36 velocity=127 time=0
EXTRACT: note_off channel=1 note=31 velocity=122 time=0.20055916666666665
EXTRACT: note_off channel=15 note=67 velocity=126 time=0
EXTRACT: note_off channel=6 note=76 velocity=85 time=0.004664166666666666
EXTRACT: note_on channel=1 note=43 velocity=115 time=0.013992499999999998
EXTRACT: note_on channel=4 note=74 velocity=103 time=0
EXTRACT: note_on channel=4 note=71 velocity=94 time=0
EXTRACT: note_on channel=4 note=79 velocity=96 time=0
EXTRACT: note_on channel=6 note=74 velocity=76 time=0
EXTRACT: note_on channel=9 note=42 velocity=72 time=0
EXTRACT: note_on channel=15 note=67 velocity=120 time=0
EXTRACT: note_off channel=9 note=42 velocity=72 time=0.004664166666666666
EXTRACT: note_off channel=1 note=43 velocity=115 time=0.08861916666666667
EXTRACT: note_off channel=4 note=79 velocity=96 time=0.11193999999999998
EXTRACT: note_off channel=4 note=71 velocity=94 time=0
EXTRACT: note_off channel=4 note=74 velocity=103 time=0
EXTRACT: note_off channel=15 note=67 velocity=120 time=0
EXTRACT: note_off channel=6 note=74 velocity=76 time=0.004664166666666666
EXTRACT: note_on channel=1 note=38 velocity=126 time=0.013992499999999998
EXTRACT: note_on channel=9 note=38 velocity=127 time=0
EXTRACT: note_on channel=9 note=42 velocity=59 time=0
EXTRACT: note_on channel=15 note=64 velocity=109 time=0
EXTRACT: note_off channel=9 note=42 velocity=59 time=0.004664166666666666
EXTRACT: note_off channel=9 note=38 velocity=127 time=0
EXTRACT: note_off channel=1 note=38 velocity=126 time=0.20055916666666665
EXTRACT: note_off channel=15 note=64 velocity=109 time=0
EXTRACT: note_on channel=1 note=28 velocity=118 time=0.018656666666666665
EXTRACT: note_on channel=4 note=71 velocity=102 time=0
EXTRACT: note_on channel=4 note=74 velocity=95 time=0
EXTRACT: note_on channel=4 note=79 velocity=108 time=0
EXTRACT: note_on channel=9 note=42 velocity=58 time=0
EXTRACT: note_on channel=15 note=62 velocity=111 time=0
EXTRACT: note_off channel=9 note=42 velocity=58 time=0.004664166666666666
EXTRACT: note_off channel=1 note=28 velocity=118 time=0.20055916666666665
EXTRACT: note_off channel=4 note=79 velocity=108 time=0
EXTRACT: note_off channel=4 note=74 velocity=95 time=0
EXTRACT: note_off channel=4 note=71 velocity=102 time=0
EXTRACT: note_off channel=15 note=62 velocity=111 time=0
EXTRACT: note_on channel=1 note=29 velocity=118 time=0.018656666666666665
EXTRACT: note_on channel=6 note=77 velocity=78 time=0
EXTRACT: note_on channel=9 note=36 velocity=124 time=0
EXTRACT: note_on channel=9 note=49 velocity=105 time=0
EXTRACT: note_on channel=14 note=65 velocity=109 time=0
EXTRACT: note_on channel=14 note=69 velocity=115 time=0
EXTRACT: note_on channel=15 note=60 velocity=123 time=0
EXTRACT: note_off channel=9 note=49 velocity=105 time=0.004664166666666666
EXTRACT: note_off channel=9 note=36 velocity=124 time=0
EXTRACT: note_off channel=1 note=29 velocity=118 time=0.20055916666666665
EXTRACT: note_off channel=6 note=77 velocity=78 time=0.004664166666666666
EXTRACT: note_on channel=6 note=81 velocity=77 time=0.013992499999999998
EXTRACT: note_on channel=9 note=42 velocity=65 time=0
EXTRACT: note_off channel=9 note=42 velocity=65 time=0.004664166666666666
EXTRACT: note_off channel=6 note=81 velocity=77 time=0.2052233333333333
EXTRACT: note_on channel=1 note=29 velocity=108 time=0.013992499999999998
EXTRACT: note_on channel=6 note=84 velocity=80 time=0
EXTRACT: note_on channel=9 note=38 velocity=119 time=0
EXTRACT: note_on channel=9 note=42 velocity=59 time=0
EXTRACT: note_off channel=9 note=42 velocity=59 time=0.004664166666666666
EXTRACT: note_off channel=9 note=38 velocity=119 time=0
EXTRACT: note_off channel=1 note=29 velocity=108 time=0.20055916666666665
EXTRACT: note_off channel=14 note=69 velocity=115 time=0
EXTRACT: note_off channel=14 note=65 velocity=109 time=0
EXTRACT: note_off channel=15 note=60 velocity=123 time=0
EXTRACT: note_off channel=6 note=84 velocity=80 time=0.004664166666666666
EXTRACT: note_on channel=1 note=28 velocity=122 time=0.013992499999999998
EXTRACT: note_on channel=6 note=77 velocity=85 time=0
EXTRACT: note_on channel=9 note=42 velocity=67 time=0
EXTRACT: note_on channel=14 note=67 velocity=107 time=0
EXTRACT: note_on channel=14 note=71 velocity=119 time=0
EXTRACT: note_on channel=15 note=62 velocity=124 time=0
EXTRACT: note_off channel=9 note=42 velocity=67 time=0.004664166666666666
EXTRACT: note_off channel=1 note=28 velocity=122 time=0.20055916666666665
EXTRACT: note_off channel=14 note=71 velocity=119 time=0
EXTRACT: note_off channel=14 note=67 velocity=107 time=0
EXTRACT: note_off channel=15 note=62 velocity=124 time=0
EXTRACT: note_off channel=6 note=77 velocity=85 time=0.004664166666666666
EXTRACT: note_on channel=1 note=31 velocity=119 time=0.013992499999999998
EXTRACT: note_on channel=6 note=79 velocity=76 time=0
EXTRACT: note_on channel=9 note=36 velocity=127 time=0
EXTRACT: note_on channel=9 note=42 velocity=64 time=0
EXTRACT: note_off channel=9 note=42 velocity=64 time=0.004664166666666666
EXTRACT: note_off channel=9 note=36 velocity=127 time=0
EXTRACT: note_off channel=1 note=31 velocity=119 time=0.20055916666666665
EXTRACT: note_off channel=6 note=79 velocity=76 time=0.004664166666666666
EXTRACT: note_on channel=1 note=43 velocity=117 time=0.013992499999999998
EXTRACT: note_on channel=6 note=83 velocity=79 time=0
EXTRACT: note_on channel=9 note=42 velocity=68 time=0
EXTRACT: note_on channel=14 note=67 velocity=102 time=0
EXTRACT: note_on channel=14 note=71 velocity=109 time=0
EXTRACT: note_on channel=15 note=62 velocity=119 time=0
EXTRACT: note_off channel=9 note=42 velocity=68 time=0.004664166666666666
EXTRACT: note_off channel=1 note=43 velocity=117 time=0.08861916666666667
EXTRACT: note_off channel=14 note=71 velocity=109 time=0.11193999999999998
EXTRACT: note_off channel=14 note=67 velocity=102 time=0
EXTRACT: note_off channel=15 note=62 velocity=119 time=0
EXTRACT: note_off channel=6 note=83 velocity=79 time=0.004664166666666666
EXTRACT: note_on channel=6 note=86 velocity=78 time=0.013992499999999998
EXTRACT: note_on channel=9 note=38 velocity=122 time=0
EXTRACT: note_on channel=9 note=42 velocity=75 time=0
EXTRACT: note_on channel=14 note=67 velocity=102 time=0
EXTRACT: note_on channel=14 note=71 velocity=108 time=0
EXTRACT: note_on channel=15 note=62 velocity=112 time=0
EXTRACT: note_off channel=9 note=42 velocity=75 time=0.004664166666666666
EXTRACT: note_off channel=9 note=38 velocity=122 time=0
EXTRACT: note_off channel=14 note=71 velocity=108 time=0.20055916666666665
EXTRACT: note_off channel=14 note=67 velocity=102 time=0
EXTRACT: note_off channel=15 note=62 velocity=112 time=0
EXTRACT: note_off channel=6 note=86 velocity=78 time=0.004664166666666666
EXTRACT: note_on channel=1 note=31 velocity=123 time=0.013992499999999998
EXTRACT: note_on channel=9 note=42 velocity=73 time=0
EXTRACT: note_on channel=14 note=67 velocity=108 time=0
EXTRACT: note_on channel=14 note=71 velocity=104 time=0
EXTRACT: note_on channel=15 note=62 velocity=116 time=0
EXTRACT: note_off channel=9 note=42 velocity=73 time=0.004664166666666666
EXTRACT: note_off channel=1 note=31 velocity=123 time=0.20055916666666665
EXTRACT: note_off channel=14 note=71 velocity=104 time=0
EXTRACT: note_off channel=14 note=67 velocity=108 time=0
EXTRACT: note_off channel=15 note=62 velocity=116 time=0
EXTRACT: note_on channel=1 note=31 velocity=126 time=0.018656666666666665
EXTRACT: note_on channel=9 note=36 velocity=127 time=0
EXTRACT: note_on channel=9 note=42 velocity=73 time=0
EXTRACT: note_on channel=14 note=67 velocity=114 time=0
EXTRACT: note_on channel=14 note=71 velocity=117 time=0
EXTRACT: note_on channel=15 note=62 velocity=117 time=0
EXTRACT: note_off channel=9 note=42 velocity=73 time=0.004664166666666666
EXTRACT: note_off channel=9 note=36 velocity=127 time=0
EXTRACT: note_off channel=14 note=71 velocity=117 time=0.20055916666666665
EXTRACT: note_off channel=14 note=67 velocity=114 time=0
EXTRACT: note_off channel=15 note=62 velocity=117 time=0
EXTRACT: note_on channel=6 note=86 velocity=76 time=0.018656666666666665
EXTRACT: note_on channel=9 note=42 velocity=64 time=0
EXTRACT: note_on channel=14 note=67 velocity=113 time=0
EXTRACT: note_on channel=14 note=71 velocity=106 time=0
EXTRACT: note_on channel=15 note=64 velocity=121 time=0
EXTRACT: note_off channel=9 note=42 velocity=64 time=0.004664166666666666
EXTRACT: note_off channel=1 note=31 velocity=126 time=0.20055916666666665
EXTRACT: note_off channel=14 note=71 velocity=106 time=0
EXTRACT: note_off channel=14 note=67 velocity=113 time=0
EXTRACT: note_off channel=15 note=64 velocity=121 time=0
EXTRACT: note_off channel=6 note=86 velocity=76 time=0.004664166666666666
EXTRACT: note_on channel=1 note=31 velocity=126 time=0.013992499999999998
EXTRACT: note_on channel=6 note=83 velocity=92 time=0
EXTRACT: note_on channel=9 note=38 velocity=117 time=0
EXTRACT: note_on channel=9 note=42 velocity=61 time=0
EXTRACT: note_on channel=14 note=67 velocity=101 time=0
EXTRACT: note_on channel=14 note=71 velocity=106 time=0
EXTRACT: note_on channel=15 note=62 velocity=113 time=0
EXTRACT: note_off channel=9 note=42 velocity=61 time=0.004664166666666666
EXTRACT: note_off channel=9 note=38 velocity=117 time=0
EXTRACT: note_off channel=1 note=31 velocity=126 time=0.20055916666666665
EXTRACT: note_off channel=14 note=71 velocity=106 time=0
EXTRACT: note_off channel=14 note=67 velocity=101 time=0
EXTRACT: note_off channel=15 note=62 velocity=113 time=0
EXTRACT: note_off channel=6 note=83 velocity=92 time=0.004664166666666666
EXTRACT: note_on channel=1 note=28 velocity=109 time=0.013992499999999998
EXTRACT: note_on channel=6 note=79 velocity=91 time=0
EXTRACT: note_on channel=9 note=42 velocity=76 time=0
EXTRACT: note_on channel=14 note=69 velocity=107 time=0
EXTRACT: note_on channel=14 note=72 velocity=102 time=0
EXTRACT: note_on channel=15 note=64 velocity=116 time=0
EXTRACT: note_off channel=9 note=42 velocity=76 time=0.004664166666666666
EXTRACT: note_off channel=1 note=28 velocity=109 time=0.20055916666666665
EXTRACT: note_off channel=6 note=79 velocity=91 time=0.004664166666666666
EXTRACT: note_on channel=1 note=33 velocity=125 time=0.013992499999999998
EXTRACT: note_on channel=6 note=88 velocity=83 time=0
EXTRACT: note_on channel=9 note=36 velocity=122 time=0
EXTRACT: note_on channel=9 note=46 velocity=121 time=0
EXTRACT: note_off channel=9 note=46 velocity=121 time=0.004664166666666666
EXTRACT: note_off channel=9 note=36 velocity=122 time=0
EXTRACT: note_off channel=1 note=33 velocity=125 time=0.20055916666666665
EXTRACT: note_off channel=14 note=72 velocity=102 time=0
EXTRACT: note_off channel=14 note=69 velocity=107 time=0
EXTRACT: note_off channel=15 note=64 velocity=116 time=0
EXTRACT: note_off channel=6 note=88 velocity=83 time=0.004664166666666666
EXTRACT: note_on channel=1 note=45 velocity=114 time=0.013992499999999998
EXTRACT: note_on channel=6 note=84 velocity=78 time=0
EXTRACT: note_on channel=9 note=42 velocity=72 time=0
EXTRACT: note_off channel=9 note=42 velocity=72 time=0.004664166666666666
EXTRACT: note_off channel=1 note=45 velocity=114 time=0.20055916666666665
EXTRACT: note_off channel=6 note=84 velocity=78 time=0.004664166666666666
EXTRACT: note_on channel=1 note=31 velocity=118 time=0.013992499999999998
EXTRACT: note_on channel=6 note=81 velocity=73 time=0
EXTRACT: note_on channel=9 note=38 velocity=127 time=0
EXTRACT: note_on channel=9 note=46 velocity=105 time=0
EXTRACT: note_on channel=14 note=65 velocity=120 time=0
EXTRACT: note_on channel=14 note=69 velocity=117 time=0
EXTRACT: note_on channel=15 note=60 velocity=127 time=0
EXTRACT: note_off channel=9 note=46 velocity=105 time=0.004664166666666666
EXTRACT: note_off channel=9 note=38 velocity=127 time=0
EXTRACT: note_off channel=1 note=31 velocity=118 time=0.20055916666666665
EXTRACT: note_off channel=14 note=69 velocity=117 time=0
EXTRACT: note_off channel=14 note=65 velocity=120 time=0
EXTRACT: note_off channel=15 note=60 velocity=127 time=0
EXTRACT: note_off channel=6 note=81 velocity=73 time=0.004664166666666666
EXTRACT: note_on channel=1 note=43 velocity=109 time=0.013992499999999998
EXTRACT: note_on channel=6 note=77 velocity=73 time=0
EXTRACT: note_on channel=9 note=42 velocity=61 time=0
EXTRACT: note_on channel=14 note=65 velocity=103 time=0
EXTRACT: note_on channel=14 note=69 velocity=117 time=0
EXTRACT: note_on channel=15 note=60 velocity=127 time=0
EXTRACT: note_off channel=9 note=42 velocity=61 time=0.004664166666666666
EXTRACT: note_off channel=1 note=43 velocity=109 time=0.20055916666666665
EXTRACT: note_off channel=6 note=77 velocity=73 time=0.004664166666666666
EXTRACT: note_on channel=1 note=29 velocity=107 time=0.013992499999999998
EXTRACT: note_on channel=6 note=77 velocity=91 time=0
EXTRACT: note_on channel=9 note=36 velocity=124 time=0
EXTRACT: note_on channel=9 note=42 velocity=61 time=0
EXTRACT: note_off channel=9 note=42 velocity=61 time=0.004664166666666666
EXTRACT: note_off channel=9 note=36 velocity=124 time=0
EXTRACT: note_off channel=1 note=29 velocity=107 time=0.20055916666666665
EXTRACT: note_off channel=14 note=69 velocity=117 time=0
EXTRACT: note_off channel=14 note=65 velocity=103 time=0
EXTRACT: note_off channel=15 note=60 velocity=127 time=0
EXTRACT: note_off channel=6 note=77 velocity=91 time=0.004664166666666666
EXTRACT: note_on channel=6 note=81 velocity=87 time=0.013992499999999998
EXTRACT: note_on channel=9 note=42 velocity=65 time=0
EXTRACT: note_on channel=14 note=65 velocity=115 time=0
EXTRACT: note_on channel=14 note=69 velocity=105 time=0
EXTRACT: note_on channel=15 note=60 velocity=123 time=0
EXTRACT: note_off channel=9 note=42 velocity=65 time=0.004664166666666666
EXTRACT: note_off channel=14 note=69 velocity=105 time=0.20055916666666665
EXTRACT: note_off channel=14 note=65 velocity=115 time=0
EXTRACT: note_off channel=15 note=60 velocity=123 time=0
EXTRACT: note_off channel=6 note=81 velocity=87 time=0.004664166666666666
EXTRACT: note_on channel=1 note=29 velocity=107 time=0.013992499999999998
EXTRACT: note_on channel=6 note=84 velocity=74 time=0
EXTRACT: note_on channel=9 note=38 velocity=116 time=0
EXTRACT: note_on channel=9 note=42 velocity=64 time=0
EXTRACT: note_on channel=14 note=65 velocity=104 time=0
EXTRACT: note_on channel=14 note=69 velocity=107 time=0
EXTRACT: note_on channel=15 note=60 velocity=113 time=0
EXTRACT: note_off channel=9 note=42 velocity=64 time=0.004664166666666666
EXTRACT: note_off channel=9 note=38 velocity=116 time=0
EXTRACT: note_off channel=1 note=29 velocity=107 time=0.20055916666666665
EXTRACT: note_off channel=14 note=69 velocity=107 time=0
EXTRACT: note_off channel=14 note=65 velocity=104 time=0
EXTRACT: note_off channel=15 note=60 velocity=113 time=0
EXTRACT: note_off channel=6 note=84 velocity=74 time=0.004664166666666666
EXTRACT: note_on channel=1 note=29 velocity=124 time=0.013992499999999998
EXTRACT: note_on channel=9 note=42 velocity=59 time=0
EXTRACT: note_on channel=14 note=65 velocity=109 time=0
EXTRACT: note_on channel=14 note=69 velocity=111 time=0
EXTRACT: note_on channel=15 note=60 velocity=122 time=0
EXTRACT: note_off channel=9 note=42 velocity=59 time=0.004664166666666666
EXTRACT: note_off channel=1 note=29 velocity=124 time=0.20055916666666665
EXTRACT: note_off channel=14 note=69 velocity=111 time=0
EXTRACT: note_off channel=14 note=65 velocity=109 time=0
EXTRACT: note_off channel=15 note=60 velocity=122 time=0
EXTRACT: note_on channel=1 note=31 velocity=112 time=0.018656666666666665
EXTRACT: note_on channel=6 note=79 velocity=73 time=0
EXTRACT: note_on channel=9 note=36 velocity=127 time=0
EXTRACT: note_on channel=9 note=42 velocity=67 time=0
EXTRACT: note_on channel=14 note=67 velocity=110 time=0
EXTRACT: note_on channel=14 note=71 velocity=104 time=0
EXTRACT: note_on channel=15 note=62 velocity=120 time=0
EXTRACT: note_off channel=9 note=42 velocity=67 time=0.004664166666666666
EXTRACT: note_off channel=9 note=36 velocity=127 time=0
EXTRACT: note_off channel=1 note=31 velocity=112 time=0.20055916666666665
EXTRACT: note_off channel=14 note=71 velocity=104 time=0
EXTRACT: note_off channel=14 note=67 velocity=110 time=0
EXTRACT: note_off channel=15 note=62 velocity=120 time=0
EXTRACT: note_off channel=6 note=79 velocity=73 time=0.004664166666666666
EXTRACT: note_on channel=1 note=43 velocity=107 time=0.013992499999999998
EXTRACT: note_on channel=6 note=83 velocity=80 time=0
EXTRACT: note_on channel=9 note=42 velocity=64 time=0
EXTRACT: note_on channel=14 note=67 velocity=117 time=0
EXTRACT: note_on channel=14 note=71 velocity=105 time=0
EXTRACT: note_on channel=15 note=64 velocity=116 time=0
EXTRACT: note_off channel=9 note=42 velocity=64 time=0.004664166666666666
EXTRACT: note_off channel=1 note=43 velocity=107 time=0.20055916666666665
EXTRACT: note_off channel=14 note=71 velocity=105 time=0
EXTRACT: note_off channel=14 note=67 velocity=117 time=0
EXTRACT: note_off channel=15 note=64 velocity=116 time=0
EXTRACT: note_off channel=6 note=83 velocity=80 time=0.004664166666666666
EXTRACT: note_on channel=6 note=86 velocity=73 time=0.013992499999999998
EXTRACT: note_on channel=9 note=38 velocity=125 time=0
EXTRACT: note_on channel=9 note=42 velocity=61 time=0
EXTRACT: note_on channel=14 note=67 velocity=105 time=0
EXTRACT: note_on channel=14 note=71 velocity=103 time=0
EXTRACT: note_on channel=15 note=62 velocity=124 time=0
EXTRACT: note_off channel=9 note=42 velocity=61 time=0.004664166666666666
EXTRACT: note_off channel=9 note=38 velocity=125 time=0
EXTRACT: note_off channel=6 note=86 velocity=73 time=0.09328333333333333
EXTRACT: note_off channel=14 note=71 velocity=103 time=0.10727583333333332
EXTRACT: note_off channel=14 note=67 velocity=105 time=0
EXTRACT: note_off channel=15 note=62 velocity=124 time=0
EXTRACT: note_on channel=1 note=31 velocity=121 time=0.018656666666666665
EXTRACT: note_on channel=9 note=49 velocity=114 time=0
EXTRACT: note_on channel=14 note=67 velocity=109 time=0
EXTRACT: note_on channel=14 note=72 velocity=108 time=0
EXTRACT: note_on channel=15 note=60 velocity=113 time=0
EXTRACT: note_off channel=9 note=49 velocity=114 time=0.004664166666666666
EXTRACT: note_off channel=1 note=31 velocity=121 time=0.20055916666666665
EXTRACT: note_on channel=1 note=36 velocity=117 time=0.018656666666666665
EXTRACT: note_on channel=3 note=67 velocity=103 time=0
EXTRACT: note_on channel=3 note=70 velocity=97 time=0
EXTRACT: note_on channel=4 note=46 velocity=113 time=0
EXTRACT: note_on channel=9 note=36 velocity=127 time=0
EXTRACT: note_on channel=9 note=57 velocity=122 time=0
EXTRACT: note_off channel=9 note=57 velocity=122 time=0.004664166666666666
EXTRACT: note_off channel=9 note=36 velocity=127 time=0
EXTRACT: control_change channel=3 control=1 value=83 time=0.10727583333333332
EXTRACT: note_off channel=1 note=36 velocity=117 time=0.09328333333333333
EXTRACT: note_on channel=9 note=42 velocity=71 time=0.018656666666666665
EXTRACT: note_off channel=9 note=42 velocity=71 time=0.004664166666666666
EXTRACT: note_on channel=1 note=36 velocity=117 time=0.2192158333333333
EXTRACT: note_on channel=2 note=60 velocity=104 time=0
EXTRACT: note_on channel=2 note=65 velocity=108 time=0
EXTRACT: note_on channel=2 note=67 velocity=98 time=0
EXTRACT: note_on channel=5 note=48 velocity=86 time=0
EXTRACT: note_on channel=5 note=53 velocity=89 time=0
EXTRACT: note_on channel=5 note=55 velocity=87 time=0
EXTRACT: note_on channel=9 note=38 velocity=116 time=0
EXTRACT: note_on channel=9 note=42 velocity=62 time=0
EXTRACT: note_off channel=9 note=42 velocity=62 time=0.004664166666666666
EXTRACT: note_off channel=9 note=38 velocity=116 time=0
EXTRACT: note_off channel=2 note=67 velocity=98 time=0.09328333333333333
EXTRACT: note_off channel=2 note=65 velocity=108 time=0
EXTRACT: note_off channel=2 note=60 velocity=104 time=0
EXTRACT: note_off channel=5 note=55 velocity=87 time=0
EXTRACT: note_off channel=5 note=53 velocity=89 time=0
EXTRACT: note_off channel=5 note=48 velocity=86 time=0
EXTRACT: note_off channel=1 note=36 velocity=117 time=0.10727583333333332
EXTRACT: note_off channel=14 note=72 velocity=108 time=0
EXTRACT: note_off channel=14 note=67 velocity=109 time=0
EXTRACT: note_off channel=15 note=60 velocity=113 time=0
EXTRACT: note_off channel=4 note=46 velocity=113 time=0.004664166666666666
EXTRACT: note_on channel=2 note=60 velocity=98 time=0.013992499999999998
EXTRACT: note_on channel=2 note=65 velocity=101 time=0
EXTRACT: note_on channel=2 note=67 velocity=95 time=0
EXTRACT: note_on channel=4 note=53 velocity=116 time=0
EXTRACT: note_on channel=5 note=48 velocity=103 time=0
EXTRACT: note_on channel=5 note=53 velocity=95 time=0
EXTRACT: note_on channel=5 note=55 velocity=99 time=0
EXTRACT: note_on channel=9 note=42 velocity=58 time=0
EXTRACT: note_off channel=9 note=42 velocity=58 time=0.004664166666666666
EXTRACT: note_off channel=2 note=67 velocity=95 time=0.09328333333333333
EXTRACT: note_off channel=2 note=65 velocity=101 time=0
EXTRACT: note_off channel=2 note=60 velocity=98 time=0
EXTRACT: note_off channel=5 note=55 velocity=99 time=0
EXTRACT: note_off channel=5 note=53 velocity=95 time=0
EXTRACT: note_off channel=5 note=48 velocity=103 time=0
EXTRACT: note_on channel=1 note=31 velocity=111 time=0.1259325
EXTRACT: note_on channel=9 note=36 velocity=127 time=0
EXTRACT: note_on channel=9 note=42 velocity=69 time=0
EXTRACT: note_off channel=9 note=42 velocity=69 time=0.004664166666666666
EXTRACT: note_off channel=9 note=36 velocity=127 time=0
EXTRACT: note_off channel=1 note=31 velocity=111 time=0.20055916666666665
EXTRACT: note_off channel=3 note=70 velocity=97 time=0.004664166666666666
EXTRACT: note_off channel=3 note=67 velocity=103 time=0
EXTRACT: note_on channel=1 note=36 velocity=109 time=0.013992499999999998
EXTRACT: note_on channel=9 note=42 velocity=61 time=0
EXTRACT: note_off channel=9 note=42 velocity=61 time=0.004664166666666666
EXTRACT: note_off channel=1 note=36 velocity=109 time=0.08861916666666667
EXTRACT: note_on channel=2 note=60 velocity=100 time=0.13059666666666667
EXTRACT: note_on channel=2 note=65 velocity=114 time=0
EXTRACT: note_on channel=2 note=67 velocity=99 time=0
EXTRACT: note_on channel=5 note=48 velocity=86 time=0
EXTRACT: note_on channel=5 note=53 velocity=105 time=0
EXTRACT: note_on channel=5 note=55 velocity=96 time=0
EXTRACT: note_on channel=9 note=38 velocity=126 time=0
EXTRACT: note_on channel=9 note=42 velocity=75 time=0
EXTRACT: note_off channel=9 note=42 velocity=75 time=0.004664166666666666
EXTRACT: note_off channel=9 note=38 velocity=126 time=0
EXTRACT: note_off channel=2 note=67 velocity=99 time=0.09328333333333333
EXTRACT: note_off channel=2 note=65 velocity=114 time=0
EXTRACT: note_off channel=2 note=60 velocity=100 time=0
EXTRACT: note_off channel=5 note=55 velocity=96 time=0
EXTRACT: note_off channel=5 note=53 velocity=105 time=0
EXTRACT: note_off channel=5 note=48 velocity=86 time=0
EXTRACT: note_on channel=1 note=31 velocity=113 time=0.1259325
EXTRACT: note_on channel=2 note=60 velocity=104 time=0
EXTRACT: note_on channel=2 note=65 velocity=106 time=0
EXTRACT: note_on channel=2 note=67 velocity=106 time=0
EXTRACT: control_change channel=3 control=1 value=0 time=0
EXTRACT: note_on channel=5 note=48 velocity=100 time=0
EXTRACT: note_on channel=5 note=53 velocity=88 time=0
EXTRACT: note_on channel=5 note=55 velocity=95 time=0
EXTRACT: note_on channel=9 note=42 velocity=68 time=0
EXTRACT: note_off channel=9 note=42 velocity=68 time=0.004664166666666666
EXTRACT: note_off channel=2 note=67 velocity=106 time=0.09328333333333333
EXTRACT: note_off channel=2 note=65 velocity=106 time=0
EXTRACT: note_off channel=2 note=60 velocity=104 time=0
EXTRACT: note_off channel=5 note=55 velocity=95 time=0
EXTRACT: note_off channel=5 note=53 velocity=88 time=0
EXTRACT: note_off channel=5 note=48 velocity=100 time=0
EXTRACT: note_off channel=1 note=31 velocity=113 time=0.10727583333333332
EXTRACT: note_off channel=4 note=53 velocity=116 time=0.004664166666666666
EXTRACT: note_on channel=1 note=36 velocity=109 time=0.013992499999999998
EXTRACT: note_on channel=3 note=60 velocity=96 time=0
EXTRACT: note_on channel=3 note=67 velocity=91 time=0
EXTRACT: note_on channel=4 note=52 velocity=116 time=0
EXTRACT: note_on channel=9 note=36 velocity=127 time=0
EXTRACT: note_on channel=9 note=42 velocity=77 time=0
EXTRACT: note_off channel=9 note=42 velocity=77 time=0.004664166666666666
EXTRACT: note_off channel=9 note=36 velocity=127 time=0
EXTRACT: note_off channel=1 note=36 velocity=109 time=0.20055916666666665
EXTRACT: note_off channel=3 note=67 velocity=91 time=0.004664166666666666
EXTRACT: note_off channel=3 note=60 velocity=96 time=0
EXTRACT: note_off channel=4 note=52 velocity=116 time=0
EXTRACT: note_on channel=4 note=50 velocity=127 time=0.013992499999999998
EXTRACT: note_on channel=9 note=42 velocity=67 time=0
EXTRACT: note_off channel=9 note=42 velocity=67 time=0.004664166666666666
EXTRACT: note_off channel=4 note=50 velocity=127 time=0.2052233333333333
EXTRACT: note_on channel=1 note=36 velocity=117 time=0.013992499999999998
EXTRACT: note_on channel=2 note=60 velocity=109 time=0
EXTRACT: note_on channel=2 note=64 velocity=99 time=0
EXTRACT: note_on channel=2 note=67 velocity=102 time=0
EXTRACT: note_on channel=4 note=48 velocity=116 time=0
EXTRACT: note_on channel=5 note=48 velocity=96 time=0
EXTRACT: note_on channel=5 note=52 velocity=89 time=0
EXTRACT: note_on channel=5 note=55 velocity=100 time=0
EXTRACT: note_on channel=9 note=38 velocity=120 time=0
EXTRACT: note_on channel=9 note=42 velocity=72 time=0
EXTRACT: note_off channel=9 note=42 velocity=72 time=0.004664166666666666
EXTRACT: note_off channel=9 note=38 velocity=120 time=0
EXTRACT: note_off channel=2 note=67 velocity=102 time=0.09328333333333333
EXTRACT: note_off channel=2 note=64 velocity=99 time=0
EXTRACT: note_off channel=2 note=60 velocity=109 time=0
EXTRACT: note_off channel=5 note=55 velocity=100 time=0
EXTRACT: note_off channel=5 note=52 velocity=89 time=0
EXTRACT: note_off channel=5 note=48 velocity=96 time=0
EXTRACT: note_off channel=1 note=36 velocity=117 time=0.10727583333333332
EXTRACT: note_off channel=4 note=48 velocity=116 time=0.004664166666666666
EXTRACT: note_on channel=2 note=60 velocity=106 time=0.013992499999999998
EXTRACT: note_on channel=2 note=64 velocity=108 time=0
EXTRACT: note_on channel=2 note=67 velocity=104 time=0
EXTRACT: note_on channel=5 note=48 velocity=102 time=0
EXTRACT: note_on channel=5 note=52 velocity=104 time=0
EXTRACT: note_on channel=5 note=55 velocity=95 time=0
EXTRACT: note_on channel=9 note=42 velocity=67 time=0
EXTRACT: note_off channel=9 note=42 velocity=67 time=0.004664166666666666
EXTRACT: note_off channel=2 note=67 velocity=104 time=0.09328333333333333
EXTRACT: note_off channel=2 note=64 velocity=108 time=0
EXTRACT: note_off channel=2 note=60 velocity=106 time=0
EXTRACT: note_off channel=5 note=55 velocity=95 time=0
EXTRACT: note_off channel=5 note=52 velocity=104 time=0
EXTRACT: note_off channel=5 note=48 velocity=102 time=0
EXTRACT: note_on channel=1 note=31 velocity=122 time=0.1259325
EXTRACT: note_on channel=4 note=48 velocity=113 time=0
EXTRACT: note_on channel=9 note=36 velocity=127 time=0
EXTRACT: note_on channel=9 note=42 velocity=72 time=0
EXTRACT: note_off channel=9 note=42 velocity=72 time=0.004664166666666666
EXTRACT: note_off channel=9 note=36 velocity=127 time=0
EXTRACT: note_off channel=1 note=31 velocity=122 time=0.20055916666666665
EXTRACT: note_off channel=4 note=48 velocity=113 time=0.004664166666666666
EXTRACT: note_on channel=1 note=36 velocity=117 time=0.013992499999999998
EXTRACT: note_on channel=9 note=81 velocity=127 time=0
EXTRACT: note_on channel=9 note=42 velocity=70 time=0
EXTRACT: note_off channel=9 note=42 velocity=70 time=0.004664166666666666
EXTRACT: note_off channel=9 note=81 velocity=127 time=0
EXTRACT: note_off channel=1 note=36 velocity=117 time=0.08861916666666667
EXTRACT: note_on channel=2 note=60 velocity=107 time=0.13059666666666667
EXTRACT: note_on channel=2 note=64 velocity=95 time=0
EXTRACT: note_on channel=2 note=67 velocity=97 time=0
EXTRACT: note_on channel=3 note=67 velocity=104 time=0
EXTRACT: note_on channel=3 note=72 velocity=100 time=0
EXTRACT: note_on channel=5 note=48 velocity=99 time=0
EXTRACT: note_on channel=5 note=52 velocity=86 time=0
EXTRACT: note_on channel=5 note=55 velocity=105 time=0
EXTRACT: note_on channel=9 note=38 velocity=121 time=0
EXTRACT: note_on channel=9 note=42 velocity=74 time=0
EXTRACT: note_off channel=9 note=42 velocity=74 time=0.004664166666666666
EXTRACT: note_off channel=9 note=38 velocity=121 time=0
EXTRACT: note_off channel=2 note=67 velocity=97 time=0.09328333333333333
EXTRACT: note_off channel=2 note=64 velocity=95 time=0
EXTRACT: note_off channel=2 note=60 velocity=107 time=0
EXTRACT: note_off channel=5 note=55 velocity=105 time=0
EXTRACT: note_off channel=5 note=52 velocity=86 time=0
EXTRACT: note_off channel=5 note=48 velocity=99 time=0
EXTRACT: note_off channel=3 note=72 velocity=100 time=0.11193999999999998
EXTRACT: note_off channel=3 note=67 velocity=104 time=0
EXTRACT: note_on channel=1 note=31 velocity=113 time=0.013992499999999998
EXTRACT: note_on channel=2 note=60 velocity=112 time=0
EXTRACT: note_on channel=2 note=64 velocity=114 time=0
EXTRACT: note_on channel=2 note=67 velocity=103 time=0
EXTRACT: note_on channel=5 note=48 velocity=100 time=0
EXTRACT: note_on channel=5 note=52 velocity=88 time=0
EXTRACT: note_on channel=5 note=55 velocity=91 time=0
EXTRACT: note_on channel=9 note=81 velocity=127 time=0
EXTRACT: note_on channel=9 note=42 velocity=69 time=0
EXTRACT: note_off channel=9 note=42 velocity=69 time=0.004664166666666666
EXTRACT: note_off channel=9 note=81 velocity=127 time=0
EXTRACT: note_off channel=2 note=67 velocity=103 time=0.09328333333333333
EXTRACT: note_off channel=2 note=64 velocity=114 time=0
EXTRACT: note_off channel=2 note=60 velocity=112 time=0
EXTRACT: note_off channel=5 note=55 velocity=91 time=0
EXTRACT: note_off channel=5 note=52 velocity=88 time=0
EXTRACT: note_off channel=5 note=48 velocity=100 time=0
EXTRACT: note_off channel=1 note=31 velocity=113 time=0.10727583333333332
EXTRACT: note_on channel=1 note=36 velocity=111 time=0.018656666666666665
EXTRACT: note_on channel=3 note=67 velocity=90 time=0
EXTRACT: note_on channel=3 note=70 velocity=94 time=0
EXTRACT: note_on channel=4 note=46 velocity=127 time=0
EXTRACT: note_on channel=9 note=36 velocity=127 time=0
EXTRACT: note_on channel=9 note=42 velocity=68 time=0
EXTRACT: note_off channel=9 note=42 velocity=68 time=0.004664166666666666
EXTRACT: note_off channel=9 note=36 velocity=127 time=0
EXTRACT: control_change channel=3 control=1 value=82 time=0.10727583333333332
EXTRACT: note_off channel=1 note=36 velocity=111 time=0.09328333333333333
EXTRACT: note_on channel=9 note=42 velocity=73 time=0.018656666666666665
EXTRACT: note_off channel=9 note=42 velocity=73 time=0.004664166666666666
EXTRACT: note_on channel=1 note=36 velocity=120 time=0.2192158333333333
EXTRACT: note_on channel=2 note=60 velocity=97 time=0
EXTRACT: note_on channel=2 note=65 velocity=106 time=0
EXTRACT: note_on channel=2 note=67 velocity=101 time=0
EXTRACT: note_on channel=5 note=48 velocity=98 time=0
EXTRACT: note_on channel=5 note=53 velocity=99 time=0
EXTRACT: note_on channel=5 note=55 velocity=97 time=0
EXTRACT: note_on channel=9 note=38 velocity=118 time=0
EXTRACT: note_on channel=9 note=42 velocity=77 time=0
EXTRACT: note_off channel=9 note=42 velocity=77 time=0.004664166666666666
EXTRACT: note_off channel=9 note=38 velocity=118 time=0
EXTRACT: note_off channel=2 note=67 velocity=101 time=0.09328333333333333
EXTRACT: note_off channel=2 note=65 velocity=106 time=0
EXTRACT: note_off channel=2 note=60 velocity=97 time=0
EXTRACT: note_off channel=5 note=55 velocity=97 time=0
EXTRACT: note_off channel=5 note=53 velocity=99 time=0
EXTRACT: note_off channel=5 note=48 velocity=98 time=0
EXTRACT: note_off channel=1 note=36 velocity=120 time=0.10727583333333332
EXTRACT: note_off channel=4 note=46 velocity=127 time=0.004664166666666666
EXTRACT: note_on channel=2 note=60 velocity=95 time=0.013992499999999998
EXTRACT: note_on channel=2 note=65 velocity=99 time=0
EXTRACT: note_on channel=2 note=67 velocity=113 time=0
EXTRACT: note_on channel=4 note=53 velocity=118 time=0
EXTRACT: note_on channel=5 note=48 velocity=103 time=0
EXTRACT: note_on channel=5 note=53 velocity=105 time=0
EXTRACT: note_on channel=5 note=55 velocity=90 time=0
EXTRACT: note_on channel=9 note=42 velocity=71 time=0
EXTRACT: note_off channel=9 note=42 velocity=71 time=0.004664166666666666
EXTRACT: note_off channel=2 note=67 velocity=113 time=0.09328333333333333
EXTRACT: note_off channel=2 note=65 velocity=99 time=0
EXTRACT: note_off channel=2 note=60 velocity=95 time=0
EXTRACT: note_off channel=5 note=55 velocity=90 time=0
EXTRACT: note_off channel=5 note=53 velocity=105 time=0
EXTRACT: note_off channel=5 note=48 velocity=103 time=0
EXTRACT: note_on channel=1 note=31 velocity=112 time=0.1259325
EXTRACT: note_on channel=9 note=36 velocity=122 time=0
EXTRACT: note_on channel=9 note=42 velocity=68 time=0
EXTRACT: note_off channel=9 note=42 velocity=68 time=0.004664166666666666
EXTRACT: note_off channel=9 note=36 velocity=122 time=0
EXTRACT: note_off channel=1 note=31 velocity=112 time=0.20055916666666665
EXTRACT: note_on channel=1 note=36 velocity=107 time=0.018656666666666665
EXTRACT: note_on channel=9 note=42 velocity=73 time=0
EXTRACT: note_off channel=9 note=42 velocity=73 time=0.004664166666666666
EXTRACT: note_off channel=1 note=36 velocity=107 time=0.08861916666666667
EXTRACT: note_off channel=4 note=53 velocity=118 time=0.004664166666666666
EXTRACT: note_off channel=3 note=70 velocity=94 time=0.11193999999999998
EXTRACT: note_off channel=3 note=67 velocity=90 time=0
EXTRACT: note_on channel=2 note=60 velocity=101 time=0.013992499999999998
EXTRACT: note_on channel=2 note=65 velocity=96 time=0
EXTRACT: note_on channel=2 note=67 velocity=109 time=0
EXTRACT: note_on channel=4 note=53 velocity=113 time=0
EXTRACT: note_on channel=5 note=48 velocity=105 time=0
EXTRACT: note_on channel=5 note=53 velocity=90 time=0
EXTRACT: note_on channel=5 note=55 velocity=90 time=0
EXTRACT: note_on channel=9 note=38 velocity=127 time=0
EXTRACT: note_on channel=9 note=42 velocity=76 time=0
EXTRACT: note_off channel=9 note=42 velocity=76 time=0.004664166666666666
EXTRACT: note_off channel=9 note=38 velocity=127 time=0
EXTRACT: note_off channel=2 note=67 velocity=109 time=0.09328333333333333
EXTRACT: note_off channel=2 note=65 velocity=96 time=0
EXTRACT: note_off channel=2 note=60 velocity=101 time=0
EXTRACT: note_off channel=4 note=53 velocity=113 time=0
EXTRACT: note_off channel=5 note=55 velocity=90 time=0
EXTRACT: note_off channel=5 note=53 velocity=90 time=0
EXTRACT: note_off channel=5 note=48 velocity=105 time=0
EXTRACT: note_on channel=4 note=52 velocity=125 time=0.013992499999999998
EXTRACT: note_off channel=4 note=52 velocity=125 time=0.09794749999999999
EXTRACT: note_on channel=1 note=31 velocity=122 time=0.013992499999999998
EXTRACT: note_on channel=2 note=60 velocity=97 time=0
EXTRACT: note_on channel=2 note=65 velocity=97 time=0
EXTRACT: note_on channel=2 note=67 velocity=104 time=0
EXTRACT: control_change channel=3 control=1 value=0 time=0
EXTRACT: note_on channel=4 note=53 velocity=120 time=0
EXTRACT: note_on channel=5 note=48 velocity=94 time=0
EXTRACT: note_on channel=5 note=53 velocity=98 time=0
EXTRACT: note_on channel=5 note=55 velocity=88 time=0
EXTRACT: note_on channel=9 note=42 velocity=77 time=0
EXTRACT: note_off channel=9 note=42 velocity=77 time=0.004664166666666666
EXTRACT: note_off channel=2 note=67 velocity=104 time=0.09328333333333333
EXTRACT: note_off channel=2 note=65 velocity=97 time=0
EXTRACT: note_off channel=2 note=60 velocity=97 time=0
EXTRACT: note_off channel=4 note=53 velocity=120 time=0
EXTRACT: note_off channel=5 note=55 velocity=88 time=0
EXTRACT: note_off channel=5 note=53 velocity=98 time=0
EXTRACT: note_off channel=5 note=48 velocity=94 time=0
EXTRACT: note_on channel=4 note=52 velocity=114 time=0.013992499999999998
EXTRACT: note_off channel=1 note=31 velocity=122 time=0.09328333333333333
EXTRACT: note_off channel=4 note=52 velocity=114 time=0.004664166666666666
EXTRACT: note_on channel=3 note=60 velocity=97 time=0
EXTRACT: note_on channel=3 note=67 velocity=93 time=0
EXTRACT: note_on channel=4 note=36 velocity=127 time=0
EXTRACT: note_on channel=4 note=48 velocity=112 time=0
EXTRACT: note_on channel=9 note=36 velocity=127 time=0
EXTRACT: note_on channel=9 note=38 velocity=67 time=0
EXTRACT: note_on channel=9 note=42 velocity=66 time=0
EXTRACT: note_off channel=9 note=42 velocity=66 time=0.0048828125
EXTRACT: note_off channel=9 note=38 velocity=67 time=0
EXTRACT: note_off channel=9 note=36 velocity=127 time=0
EXTRACT: control_change channel=12 control=10 value=115 time=0.1123046875
EXTRACT: note_off channel=3 note=67 velocity=93 time=0.1025390625
EXTRACT: note_off channel=3 note=60 velocity=97 time=0
EXTRACT: note_off channel=4 note=48 velocity=112 time=0
EXTRACT: note_on channel=12 note=60 velocity=91 time=0.2490234375
EXTRACT: note_off channel=12 note=60 velocity=91 time=0.21484375
EXTRACT: note_on channel=12 note=60 velocity=109 time=0.01953125
EXTRACT: note_off channel=12 note=60 velocity=109 time=0.21484375
EXTRACT: note_on channel=12 note=64 velocity=103 time=0.01953125
EXTRACT: note_off channel=12 note=64 velocity=103 time=0.21484375
EXTRACT: note_on channel=12 note=64 velocity=100 time=0.01953125
EXTRACT: note_off channel=12 note=64 velocity=100 time=0.21484375
EXTRACT: note_on channel=11 note=60 velocity=100 time=0.01953125
EXTRACT: note_on channel=12 note=62 velocity=92 time=0
EXTRACT: note_off channel=11 note=60 velocity=100 time=0.21484375
EXTRACT: note_on channel=11 note=60 velocity=118 time=0.01953125
EXTRACT: note_off channel=12 note=62 velocity=92 time=0.09765625
EXTRACT: note_off channel=11 note=60 velocity=118 time=0.1171875
EXTRACT: note_on channel=11 note=64 velocity=112 time=0.01953125
EXTRACT: note_off channel=11 note=64 velocity=112 time=0.21484375
EXTRACT: note_on channel=11 note=64 velocity=109 time=0.01953125
EXTRACT: note_off channel=11 note=64 velocity=109 time=0.21484375
EXTRACT: note_on channel=11 note=62 velocity=101 time=0.01953125
EXTRACT: note_on channel=12 note=60 velocity=106 time=0
EXTRACT: note_off channel=12 note=60 velocity=106 time=0.21484375
EXTRACT: note_on channel=12 note=60 velocity=101 time=0.01953125
EXTRACT: note_off channel=11 note=62 velocity=101 time=0.09765625
EXTRACT: note_off channel=12 note=60 velocity=101 time=0.1171875
EXTRACT: note_on channel=12 note=64 velocity=103 time=0.01953125
EXTRACT: note_off channel=12 note=64 velocity=103 time=0.21484375
EXTRACT: note_on channel=12 note=64 velocity=102 time=0.01953125
EXTRACT: note_off channel=12 note=64 velocity=102 time=0.21484375
EXTRACT: note_on channel=11 note=60 velocity=115 time=0.01953125
EXTRACT: note_on channel=12 note=62 velocity=95 time=0
EXTRACT: note_off channel=11 note=60 velocity=115 time=0.21484375
EXTRACT: note_on channel=11 note=60 velocity=110 time=0.01953125
EXTRACT: note_off channel=12 note=62 velocity=95 time=0.09765625
EXTRACT: note_off channel=11 note=60 velocity=110 time=0.1171875
EXTRACT: note_on channel=11 note=64 velocity=112 time=0.01953125
EXTRACT: note_off channel=11 note=64 velocity=112 time=0.21484375
EXTRACT: note_on channel=11 note=64 velocity=111 time=0.01953125
EXTRACT: note_off channel=11 note=64 velocity=111 time=0.21484375
EXTRACT: note_on channel=11 note=62 velocity=104 time=0.01953125
EXTRACT: note_on channel=12 note=60 velocity=96 time=0
EXTRACT: note_off channel=12 note=60 velocity=96 time=0.21484375
EXTRACT: note_on channel=12 note=60 velocity=94 time=0.01953125
EXTRACT: note_off channel=11 note=62 velocity=104 time=0.09765625
EXTRACT: note_off channel=12 note=60 velocity=94 time=0.1171875
EXTRACT: note_on channel=12 note=64 velocity=104 time=0.01953125
EXTRACT: note_off channel=12 note=64 velocity=104 time=0.21484375
EXTRACT: note_on channel=12 note=64 velocity=109 time=0.01953125
EXTRACT: note_off channel=12 note=64 velocity=109 time=0.21484375
EXTRACT: note_on channel=11 note=60 velocity=105 time=0.01953125
EXTRACT: note_on channel=12 note=62 velocity=96 time=0
EXTRACT: note_off channel=11 note=60 velocity=105 time=0.21484375
EXTRACT: note_on channel=11 note=60 velocity=103 time=0.01953125
EXTRACT: note_off channel=12 note=62 velocity=96 time=0.09765625
EXTRACT: note_off channel=11 note=60 velocity=103 time=0.1171875
EXTRACT: note_on channel=11 note=64 velocity=113 time=0.01953125
EXTRACT: note_off channel=11 note=64 velocity=113 time=0.21484375
EXTRACT: note_on channel=11 note=64 velocity=118 time=0.01953125
EXTRACT: note_off channel=11 note=64 velocity=118 time=0.21484375
EXTRACT: note_on channel=11 note=62 velocity=105 time=0.01953125
EXTRACT: note_on channel=12 note=60 velocity=106 time=0
EXTRACT: note_off channel=12 note=60 velocity=106 time=0.21484375
EXTRACT: note_on channel=12 note=60 velocity=109 time=0.01953125
EXTRACT: note_off channel=11 note=62 velocity=105 time=0.09765625
EXTRACT: note_on channel=9 note=38 velocity=67 time=0.09765625
EXTRACT: note_off channel=9 note=38 velocity=67 time=0.0048828125
EXTRACT: note_off channel=12 note=60 velocity=109 time=0.0146484375
EXTRACT: note_on channel=9 note=38 velocity=89 time=0.01953125
EXTRACT: note_on channel=12 note=64 velocity=102 time=0
EXTRACT: note_off channel=9 note=38 velocity=89 time=0.0048828125
EXTRACT: note_on channel=9 note=38 velocity=102 time=0.1123046875
EXTRACT: note_off channel=9 note=38 velocity=102 time=0.0048828125
EXTRACT: note_off channel=12 note=64 velocity=102 time=0.0927734375
EXTRACT: note_on channel=9 note=38 velocity=115 time=0.01953125
EXTRACT: note_on channel=12 note=64 velocity=93 time=0
EXTRACT: note_off channel=9 note=38 velocity=115 time=0.0048828125
EXTRACT: note_on channel=9 note=38 velocity=127 time=0.1123046875
EXTRACT: note_off channel=9 note=38 velocity=127 time=0.0048828125
EXTRACT: note_off channel=12 note=64 velocity=93 time=0.0927734375
EXTRACT: note_on channel=9 note=38 velocity=127 time=0.01953125
EXTRACT: note_on channel=12 note=62 velocity=91 time=0
EXTRACT: note_off channel=9 note=38 velocity=127 time=0.0048828125
EXTRACT: note_off channel=12 note=62 velocity=91 time=0.3271484375
EXTRACT: note_off channel=4 note=36 velocity=127 time=0.098876953125
EXTRACT: note_on channel=1 note=36 velocity=122 time=0
EXTRACT: note_on channel=9 note=36 velocity=127 time=0
EXTRACT: note_on channel=9 note=49 velocity=127 time=0
EXTRACT: control_change channel=12 control=10 value=64 time=0
EXTRACT: note_on channel=13 note=48 velocity=114 time=0
EXTRACT: note_off channel=9 note=49 velocity=127 time=0.004664166666666666
EXTRACT: note_off channel=9 note=36 velocity=127 time=0
EXTRACT: note_off channel=1 note=36 velocity=122 time=0.20055916666666665
EXTRACT: note_off channel=13 note=48 velocity=114 time=0
EXTRACT: note_on channel=9 note=42 velocity=76 time=0.018656666666666665
EXTRACT: note_off channel=9 note=42 velocity=76 time=0.004664166666666666
EXTRACT: note_on channel=1 note=36 velocity=115 time=0.2192158333333333
EXTRACT: note_on channel=2 note=60 velocity=106 time=0
EXTRACT: note_on channel=2 note=65 velocity=101 time=0
EXTRACT: note_on channel=2 note=67 velocity=110 time=0
EXTRACT: note_on channel=5 note=48 velocity=89 time=0
EXTRACT: note_on channel=5 note=53 velocity=90 time=0
EXTRACT: note_on channel=5 note=55 velocity=100 time=0
EXTRACT: note_on channel=9 note=38 velocity=127 time=0
EXTRACT: note_on channel=9 note=42 velocity=60 time=0
EXTRACT: note_off channel=9 note=42 velocity=60 time=0.004664166666666666
EXTRACT: note_off channel=9 note=38 velocity=127 time=0
EXTRACT: note_off channel=2 note=67 velocity=110 time=0.09328333333333333
EXTRACT: note_off channel=2 note=65 velocity=101 time=0
EXTRACT: note_off channel=2 note=60 velocity=106 time=0
EXTRACT: note_off channel=5 note=55 velocity=100 time=0
EXTRACT: note_off channel=5 note=53 velocity=90 time=0
EXTRACT: note_off channel=5 note=48 velocity=89 time=0
EXTRACT: note_off channel=1 note=36 velocity=115 time=0.10727583333333332
EXTRACT: note_on channel=2 note=60 velocity=113 time=0.018656666666666665
EXTRACT: note_on channel=2 note=65 velocity=99 time=0
EXTRACT: note_on channel=2 note=67 velocity=95 time=0
EXTRACT: note_on channel=5 note=48 velocity=99 time=0
EXTRACT: note_on channel=5 note=53 velocity=103 time=0
EXTRACT: note_on channel=5 note=55 velocity=91 time=0
EXTRACT: note_on channel=9 note=42 velocity=77 time=0
EXTRACT: note_on channel=13 note=48 velocity=116 time=0
EXTRACT: note_off channel=9 note=42 velocity=77 time=0.004664166666666666
EXTRACT: note_off channel=2 note=67 velocity=95 time=0.09328333333333333
EXTRACT: note_off channel=2 note=65 velocity=99 time=0
EXTRACT: note_off channel=2 note=60 velocity=113 time=0
EXTRACT: note_off channel=5 note=55 velocity=91 time=0
EXTRACT: note_off channel=5 note=53 velocity=103 time=0
EXTRACT: note_off channel=5 note=48 velocity=99 time=0
EXTRACT: note_off channel=13 note=48 velocity=116 time=0.10727583333333332
EXTRACT: note_on channel=1 note=31 velocity=109 time=0.018656666666666665
EXTRACT: note_on channel=9 note=36 velocity=124 time=0
EXTRACT: note_on channel=9 note=42 velocity=68 time=0
EXTRACT: note_off channel=9 note=42 velocity=68 time=0.004664166666666666
EXTRACT: note_off channel=9 note=36 velocity=124 time=0
EXTRACT: note_off channel=1 note=31 velocity=109 time=0.20055916666666665
EXTRACT: note_on channel=1 note=36 velocity=126 time=0.018656666666666665
EXTRACT: note_on channel=9 note=42 velocity=59 time=0
EXTRACT: note_on channel=13 note=48 velocity=123 time=0
EXTRACT: note_off channel=9 note=42 velocity=59 time=0.004664166666666666
EXTRACT: note_off channel=1 note=36 velocity=126 time=0.08861916666666667
EXTRACT: note_off channel=13 note=48 velocity=123 time=0.11193999999999998
EXTRACT: note_on channel=2 note=60 velocity=99 time=0.018656666666666665
EXTRACT: note_on channel=2 note=65 velocity=111 time=0
EXTRACT: note_on channel=2 note=67 velocity=114 time=0
EXTRACT: note_on channel=5 note=48 velocity=89 time=0
EXTRACT: note_on channel=5 note=53 velocity=102 time=0
EXTRACT: note_on channel=5 note=55 velocity=101 time=0
EXTRACT: note_on channel=9 note=38 velocity=122 time=0
EXTRACT: note_on channel=9 note=42 velocity=68 time=0
EXTRACT: note_on channel=13 note=48 velocity=112 time=0
EXTRACT: note_off channel=9 note=42 velocity=68 time=0.004664166666666666
EXTRACT: note_off channel=9 note=38 velocity=122 time=0
EXTRACT: note_off channel=2 note=67 velocity=114 time=0.09328333333333333
EXTRACT: note_off channel=2 note=65 velocity=111 time=0
EXTRACT: note_off channel=2 note=60 velocity=99 time=0
EXTRACT: note_off channel=5 note=55 velocity=101 time=0
EXTRACT: note_off channel=5 note=53 velocity=102 time=0
EXTRACT: note_off channel=5 note=48 velocity=89 time=0
EXTRACT: note_off channel=13 note=48 velocity=112 time=0.10727583333333332
EXTRACT: note_on channel=1 note=31 velocity=109 time=0.018656666666666665
EXTRACT: note_on channel=2 note=60 velocity=106 time=0
EXTRACT: note_on channel=2 note=65 velocity=101 time=0
EXTRACT: note_on channel=2 note=67 velocity=113 time=0
EXTRACT: note_on channel=5 note=48 velocity=90 time=0
EXTRACT: note_on channel=5 note=53 velocity=105 time=0
EXTRACT: note_on channel=5 note=55 velocity=86 time=0
EXTRACT: note_on channel=9 note=42 velocity=70 time=0
EXTRACT: note_on channel=13 note=48 velocity=117 time=0
EXTRACT: note_off channel=9 note=42 velocity=70 time=0.004664166666666666
EXTRACT: note_off channel=2 note=67 velocity=113 time=0.09328333333333333
EXTRACT: note_off channel=2 note=65 velocity=101 time=0
EXTRACT: note_off channel=2 note=60 velocity=106 time=0
EXTRACT: note_off channel=5 note=55 velocity=86 time=0
EXTRACT: note_off channel=5 note=53 velocity=105 time=0
EXTRACT: note_off channel=5 note=48 velocity=90 time=0
EXTRACT: note_off channel=1 note=31 velocity=109 time=0.10727583333333332
EXTRACT: note_off channel=13 note=48 velocity=117 time=0
EXTRACT: note_on channel=1 note=36 velocity=113 time=0.018656666666666665
EXTRACT: note_on channel=9 note=36 velocity=121 time=0
EXTRACT: note_on channel=9 note=42 velocity=75 time=0
EXTRACT: note_on channel=13 note=48 velocity=115 time=0
EXTRACT: note_off channel=9 note=42 velocity=75 time=0.004664166666666666
EXTRACT: note_off channel=9 note=36 velocity=121 time=0
EXTRACT: note_off channel=1 note=36 velocity=113 time=0.20055916666666665
EXTRACT: note_off channel=13 note=48 velocity=115 time=0
EXTRACT: note_on channel=9 note=42 velocity=74 time=0.018656666666666665
EXTRACT: note_on channel=13 note=48 velocity=108 time=0
EXTRACT: note_off channel=9 note=42 velocity=74 time=0.004664166666666666
EXTRACT: note_off channel=13 note=48 velocity=108 time=0.20055916666666665
EXTRACT: note_on channel=1 note=36 velocity=112 time=0.018656666666666665
EXTRACT: note_on channel=2 note=60 velocity=101 time=0
EXTRACT: note_on channel=2 note=64 velocity=109 time=0
EXTRACT: note_on channel=2 note=67 velocity=100 time=0
EXTRACT: note_on channel=5 note=48 velocity=104 time=0
EXTRACT: note_on channel=5 note=52 velocity=102 time=0
EXTRACT: note_on channel=5 note=55 velocity=96 time=0
EXTRACT: note_on channel=9 note=38 velocity=126 time=0
EXTRACT: note_on channel=9 note=42 velocity=76 time=0
EXTRACT: note_on channel=13 note=48 velocity=117 time=0
EXTRACT: note_off channel=9 note=42 velocity=76 time=0.004664166666666666
EXTRACT: note_off channel=9 note=38 velocity=126 time=0
EXTRACT: note_off channel=2 note=67 velocity=100 time=0.09328333333333333
EXTRACT: note_off channel=2 note=64 velocity=109 time=0
EXTRACT: note_off channel=2 note=60 velocity=101 time=0
EXTRACT: note_off channel=5 note=55 velocity=96 time=0
EXTRACT: note_off channel=5 note=52 velocity=102 time=0
EXTRACT: note_off channel=5 note=48 velocity=104 time=0
EXTRACT: note_off channel=1 note=36 velocity=112 time=0.10727583333333332
EXTRACT: note_off channel=13 note=48 velocity=117 time=0
EXTRACT: note_on channel=2 note=60 velocity=109 time=0.018656666666666665
EXTRACT: note_on channel=2 note=64 velocity=112 time=0
EXTRACT: note_on channel=2 note=67 velocity=98 time=0
EXTRACT: note_on channel=5 note=48 velocity=91 time=0
EXTRACT: note_on channel=5 note=52 velocity=101 time=0
EXTRACT: note_on channel=5 note=55 velocity=96 time=0
EXTRACT: note_on channel=9 note=42 velocity=68 time=0
EXTRACT: note_off channel=9 note=42 velocity=68 time=0.004664166666666666
EXTRACT: note_off channel=2 note=67 velocity=98 time=0.09328333333333333
EXTRACT: note_off channel=2 note=64 velocity=112 time=0
EXTRACT: note_off channel=2 note=60 velocity=109 time=0
EXTRACT: note_off channel=5 note=55 velocity=96 time=0
EXTRACT: note_off channel=5 note=52 velocity=101 time=0
EXTRACT: note_off channel=5 note=48 velocity=91 time=0
EXTRACT: note_on channel=1 note=31 velocity=108 time=0.1259325
EXTRACT: note_on channel=9 note=36 velocity=125 time=0
EXTRACT: note_on channel=9 note=42 velocity=76 time=0
EXTRACT: note_on channel=13 note=48 velocity=108 time=0
EXTRACT: note_off channel=9 note=42 velocity=76 time=0.004664166666666666
EXTRACT: note_off channel=9 note=36 velocity=125 time=0
EXTRACT: note_off channel=1 note=31 velocity=108 time=0.20055916666666665
EXTRACT: note_off channel=13 note=48 velocity=108 time=0
EXTRACT: note_on channel=1 note=36 velocity=120 time=0.018656666666666665
EXTRACT: note_on channel=9 note=42 velocity=66 time=0
EXTRACT: note_on channel=12 note=60 velocity=103 time=0
EXTRACT: note_off channel=9 note=42 velocity=66 time=0.004664166666666666
EXTRACT: note_off channel=1 note=36 velocity=120 time=0.08861916666666667
EXTRACT: note_off channel=12 note=60 velocity=103 time=0.11193999999999998
EXTRACT: note_on channel=2 note=60 velocity=96 time=0.018656666666666665
EXTRACT: note_on channel=2 note=64 velocity=111 time=0
EXTRACT: note_on channel=2 note=67 velocity=98 time=0
EXTRACT: note_on channel=5 note=48 velocity=105 time=0
EXTRACT: note_on channel=5 note=52 velocity=94 time=0
EXTRACT: note_on channel=5 note=55 velocity=99 time=0
EXTRACT: note_on channel=9 note=39 velocity=127 time=0
EXTRACT: note_on channel=9 note=38 velocity=120 time=0
EXTRACT: note_on channel=9 note=42 velocity=67 time=0
EXTRACT: note_on channel=12 note=72 velocity=109 time=0
EXTRACT: note_off channel=9 note=42 velocity=67 time=0.004664166666666666
EXTRACT: note_off channel=9 note=38 velocity=120 time=0
EXTRACT: note_off channel=9 note=39 velocity=127 time=0
EXTRACT: note_off channel=2 note=67 velocity=98 time=0.09328333333333333
EXTRACT: note_off channel=2 note=64 velocity=111 time=0
EXTRACT: note_off channel=2 note=60 velocity=96 time=0
EXTRACT: note_off channel=5 note=55 velocity=99 time=0
EXTRACT: note_off channel=5 note=52 velocity=94 time=0
EXTRACT: note_off channel=5 note=48 velocity=105 time=0
EXTRACT: note_off channel=12 note=72 velocity=109 time=0.10727583333333332
EXTRACT: note_on channel=1 note=29 velocity=112 time=0.018656666666666665
EXTRACT: note_on channel=2 note=60 velocity=101 time=0
EXTRACT: note_on channel=2 note=64 velocity=108 time=0
EXTRACT: note_on channel=2 note=67 velocity=105 time=0
EXTRACT: note_on channel=5 note=48 velocity=90 time=0
EXTRACT: note_on channel=5 note=52 velocity=101 time=0
EXTRACT: note_on channel=5 note=55 velocity=86 time=0
EXTRACT: note_on channel=9 note=42 velocity=67 time=0
EXTRACT: note_on channel=12 note=72 velocity=104 time=0
EXTRACT: note_off channel=9 note=42 velocity=67 time=0.004664166666666666
EXTRACT: note_off channel=2 note=67 velocity=105 time=0.09328333333333333
EXTRACT: note_off channel=2 note=64 velocity=108 time=0
EXTRACT: note_off channel=2 note=60 velocity=101 time=0
EXTRACT: note_off channel=5 note=55 velocity=86 time=0
EXTRACT: note_off channel=5 note=52 velocity=101 time=0
EXTRACT: note_off channel=5 note=48 velocity=90 time=0
EXTRACT: note_off channel=1 note=29 velocity=112 time=0.10727583333333332
EXTRACT: note_off channel=12 note=72 velocity=104 time=0
EXTRACT: note_on channel=1 note=34 velocity=108 time=0.018656666666666665
EXTRACT: note_on channel=9 note=36 velocity=127 time=0
EXTRACT: note_on channel=9 note=42 velocity=61 time=0
EXTRACT: note_on channel=12 note=69 velocity=104 time=0
EXTRACT: note_on channel=13 note=48 velocity=115 time=0
EXTRACT: note_off channel=9 note=42 velocity=61 time=0.004664166666666666
EXTRACT: note_off channel=9 note=36 velocity=127 time=0
EXTRACT: note_off channel=1 note=34 velocity=108 time=0.20055916666666665
EXTRACT: note_off channel=12 note=69 velocity=104 time=0
EXTRACT: note_off channel=13 note=48 velocity=115 time=0
EXTRACT: note_on channel=9 note=42 velocity=65 time=0.018656666666666665
EXTRACT: note_on channel=11 note=60 velocity=104 time=0
EXTRACT: note_off channel=9 note=42 velocity=65 time=0.004664166666666666
EXTRACT: note_off channel=11 note=60 velocity=104 time=0.20055916666666665
EXTRACT: note_on channel=1 note=34 velocity=125 time=0.018656666666666665
EXTRACT: note_on channel=2 note=58 velocity=95 time=0
EXTRACT: note_on channel=2 note=62 velocity=100 time=0
EXTRACT: note_on channel=2 note=65 velocity=110 time=0
EXTRACT: note_on channel=5 note=46 velocity=100 time=0
EXTRACT: note_on channel=5 note=50 velocity=89 time=0
EXTRACT: note_on channel=5 note=53 velocity=94 time=0
EXTRACT: note_on channel=9 note=38 velocity=121 time=0
EXTRACT: note_on channel=9 note=42 velocity=60 time=0
EXTRACT: note_on channel=11 note=72 velocity=96 time=0
EXTRACT: note_off channel=9 note=42 velocity=60 time=0.004664166666666666
EXTRACT: note_off channel=9 note=38 velocity=121 time=0
EXTRACT: note_off channel=2 note=65 velocity=110 time=0.09328333333333333
EXTRACT: note_off channel=2 note=62 velocity=100 time=0
EXTRACT: note_off channel=2 note=58 velocity=95 time=0
EXTRACT: note_off channel=5 note=53 velocity=94 time=0
EXTRACT: note_off channel=5 note=50 velocity=89 time=0
EXTRACT: note_off channel=5 note=46 velocity=100 time=0
EXTRACT: note_off channel=1 note=34 velocity=125 time=0.10727583333333332
EXTRACT: note_off channel=11 note=72 velocity=96 time=0
EXTRACT: note_on channel=2 note=58 velocity=111 time=0.018656666666666665
EXTRACT: note_on channel=2 note=62 velocity=114 time=0
EXTRACT: note_on channel=2 note=65 velocity=100 time=0
EXTRACT: note_on channel=5 note=46 velocity=95 time=0
EXTRACT: note_on channel=5 note=50 velocity=101 time=0
EXTRACT: note_on channel=5 note=53 velocity=92 time=0
EXTRACT: note_on channel=9 note=42 velocity=62 time=0
EXTRACT: note_on channel=11 note=72 velocity=88 time=0
EXTRACT: note_on channel=13 note=48 velocity=106 time=0
EXTRACT: note_off channel=9 note=42 velocity=62 time=0.004664166666666666
EXTRACT: note_off channel=2 note=65 velocity=100 time=0.09328333333333333
EXTRACT: note_off channel=2 note=62 velocity=114 time=0
EXTRACT: note_off channel=2 note=58 velocity=111 time=0
EXTRACT: note_off channel=5 note=53 velocity=92 time=0
EXTRACT: note_off channel=5 note=50 velocity=101 time=0
EXTRACT: note_off channel=5 note=46 velocity=95 time=0
EXTRACT: note_off channel=11 note=72 velocity=88 time=0.10727583333333332
EXTRACT: note_off channel=13 note=48 velocity=106 time=0
EXTRACT: note_on channel=1 note=29 velocity=110 time=0.018656666666666665
EXTRACT: note_on channel=9 note=36 velocity=125 time=0
EXTRACT: note_on channel=9 note=42 velocity=68 time=0
EXTRACT: note_on channel=11 note=69 velocity=80 time=0
EXTRACT: note_off channel=9 note=42 velocity=68 time=0.004664166666666666
EXTRACT: note_off channel=9 note=36 velocity=125 time=0
EXTRACT: note_off channel=1 note=29 velocity=110 time=0.20055916666666665
EXTRACT: note_off channel=11 note=69 velocity=80 time=0
EXTRACT: note_on channel=1 note=34 velocity=123 time=0.018656666666666665
EXTRACT: note_on channel=9 note=42 velocity=68 time=0
EXTRACT: note_on channel=11 note=60 velocity=88 time=0
EXTRACT: note_on channel=13 note=48 velocity=109 time=0
EXTRACT: note_off channel=9 note=42 velocity=68 time=0.004664166666666666
EXTRACT: note_off channel=1 note=34 velocity=123 time=0.08861916666666667
EXTRACT: note_off channel=11 note=60 velocity=88 time=0.11193999999999998
EXTRACT: note_off channel=13 note=48 velocity=109 time=0
EXTRACT: note_on channel=2 note=58 velocity=101 time=0.018656666666666665
EXTRACT: note_on channel=2 note=62 velocity=108 time=0
EXTRACT: note_on channel=2 note=65 velocity=113 time=0
EXTRACT: note_on channel=5 note=46 velocity=95 time=0
EXTRACT: note_on channel=5 note=50 velocity=102 time=0
EXTRACT: note_on channel=5 note=53 velocity=98 time=0
EXTRACT: note_on channel=9 note=38 velocity=124 time=0
EXTRACT: note_on channel=9 note=42 velocity=58 time=0
EXTRACT: note_on channel=11 note=72 velocity=78 time=0
EXTRACT: note_on channel=13 note=48 velocity=113 time=0
EXTRACT: note_off channel=9 note=42 velocity=58 time=0.004664166666666666
EXTRACT: note_off channel=9 note=38 velocity=124 time=0
EXTRACT: note_off channel=2 note=65 velocity=113 time=0.09328333333333333
EXTRACT: note_off channel=2 note=62 velocity=108 time=0
EXTRACT: note_off channel=2 note=58 velocity=101 time=0
EXTRACT: note_off channel=5 note=53 velocity=98 time=0
EXTRACT: note_off channel=5 note=50 velocity=102 time=0
EXTRACT: note_off channel=5 note=46 velocity=95 time=0
EXTRACT: note_off channel=11 note=72 velocity=78 time=0.10727583333333332
EXTRACT: note_off channel=13 note=48 velocity=113 time=0
EXTRACT: note_on channel=1 note=28 velocity=113 time=0.018656666666666665
EXTRACT: note_on channel=2 note=58 velocity=95 time=0
EXTRACT: note_on channel=2 note=62 velocity=98 time=0
EXTRACT: note_on channel=2 note=65 velocity=97 time=0
EXTRACT: note_on channel=5 note=46 velocity=94 time=0
EXTRACT: note_on channel=5 note=50 velocity=105 time=0
EXTRACT: note_on channel=5 note=53 velocity=88 time=0
EXTRACT: note_on channel=9 note=42 velocity=67 time=0
EXTRACT: note_on channel=11 note=72 velocity=68 time=0
EXTRACT: note_on channel=13 note=48 velocity=104 time=0
EXTRACT: note_off channel=9 note=42 velocity=67 time=0.004664166666666666
EXTRACT: note_off channel=2 note=65 velocity=97 time=0.09328333333333333
EXTRACT: note_off channel=2 note=62 velocity=98 time=0
EXTRACT: note_off channel=2 note=58 velocity=95 time=0
EXTRACT: note_off channel=5 note=53 velocity=88 time=0
EXTRACT: note_off channel=5 note=50 velocity=105 time=0
EXTRACT: note_off channel=5 note=46 velocity=94 time=0
EXTRACT: note_off channel=1 note=28 velocity=113 time=0.10727583333333332
EXTRACT: note_off channel=11 note=72 velocity=68 time=0
EXTRACT: note_off channel=13 note=48 velocity=104 time=0
EXTRACT: note_on channel=1 note=33 velocity=109 time=0.018656666666666665
EXTRACT: note_on channel=9 note=36 velocity=126 time=0
EXTRACT: note_on channel=9 note=42 velocity=62 time=0
EXTRACT: note_on channel=11 note=69 velocity=58 time=0
EXTRACT: note_on channel=13 note=48 velocity=114 time=0
EXTRACT: note_off channel=9 note=42 velocity=62 time=0.004664166666666666
EXTRACT: note_off channel=9 note=36 velocity=126 time=0
EXTRACT: note_off channel=1 note=33 velocity=109 time=0.20055916666666665
EXTRACT: note_off channel=11 note=69 velocity=58 time=0
EXTRACT: note_off channel=13 note=48 velocity=114 time=0
EXTRACT: note_on channel=9 note=42 velocity=66 time=0.018656666666666665
EXTRACT: note_on channel=11 note=60 velocity=66 time=0
EXTRACT: note_on channel=13 note=48 velocity=104 time=0
EXTRACT: note_off channel=9 note=42 velocity=66 time=0.004664166666666666
EXTRACT: note_off channel=11 note=60 velocity=66 time=0.20055916666666665
EXTRACT: note_off channel=13 note=48 velocity=104 time=0
EXTRACT: note_on channel=1 note=33 velocity=115 time=0.018656666666666665
EXTRACT: note_on channel=2 note=57 velocity=100 time=0
EXTRACT: note_on channel=2 note=60 velocity=110 time=0
EXTRACT: note_on channel=2 note=64 velocity=112 time=0
EXTRACT: note_on channel=5 note=45 velocity=98 time=0
EXTRACT: note_on channel=5 note=48 velocity=104 time=0
EXTRACT: note_on channel=5 note=52 velocity=96 time=0
EXTRACT: note_on channel=9 note=38 velocity=117 time=0
EXTRACT: note_on channel=9 note=42 velocity=68 time=0
EXTRACT: note_on channel=11 note=72 velocity=56 time=0
EXTRACT: note_on channel=13 note=48 velocity=114 time=0
EXTRACT: note_off channel=9 note=42 velocity=68 time=0.004664166666666666
EXTRACT: note_off channel=9 note=38 velocity=117 time=0
EXTRACT: note_off channel=2 note=64 velocity=112 time=0.09328333333333333
EXTRACT: note_off channel=2 note=60 velocity=110 time=0
EXTRACT: note_off channel=2 note=57 velocity=100 time=0
EXTRACT: note_off channel=5 note=52 velocity=96 time=0
EXTRACT: note_off channel=5 note=48 velocity=104 time=0
EXTRACT: note_off channel=5 note=45 velocity=98 time=0
EXTRACT: note_off channel=1 note=33 velocity=115 time=0.10727583333333332
EXTRACT: note_off channel=11 note=72 velocity=56 time=0
EXTRACT: note_off channel=13 note=48 velocity=114 time=0
EXTRACT: note_on channel=2 note=57 velocity=101 time=0.018656666666666665
EXTRACT: note_on channel=2 note=60 velocity=98 time=0
EXTRACT: note_on channel=2 note=64 velocity=97 time=0
EXTRACT: note_on channel=5 note=45 velocity=96 time=0
EXTRACT: note_on channel=5 note=48 velocity=102 time=0
EXTRACT: note_on channel=5 note=52 velocity=97 time=0
EXTRACT: note_on channel=9 note=42 velocity=69 time=0
EXTRACT: note_on channel=11 note=72 velocity=45 time=0
EXTRACT: note_off channel=9 note=42 velocity=69 time=0.004664166666666666
EXTRACT: note_off channel=2 note=64 velocity=97 time=0.09328333333333333
EXTRACT: note_off channel=2 note=60 velocity=98 time=0
EXTRACT: note_off channel=2 note=57 velocity=101 time=0
EXTRACT: note_off channel=5 note=52 velocity=97 time=0
EXTRACT: note_off channel=5 note=48 velocity=102 time=0
EXTRACT: note_off channel=5 note=45 velocity=96 time=0
EXTRACT: note_off channel=11 note=72 velocity=45 time=0.10727583333333332
EXTRACT: note_on channel=1 note=28 velocity=123 time=0.018656666666666665
EXTRACT: note_on channel=9 note=36 velocity=127 time=0
EXTRACT: note_on channel=9 note=46 velocity=106 time=0
EXTRACT: note_on channel=11 note=69 velocity=35 time=0
EXTRACT: note_on channel=13 note=48 velocity=106 time=0
EXTRACT: note_off channel=9 note=46 velocity=106 time=0.004664166666666666
EXTRACT: note_off channel=9 note=36 velocity=127 time=0
EXTRACT: note_off channel=1 note=28 velocity=123 time=0.20055916666666665
EXTRACT: note_off channel=11 note=69 velocity=35 time=0
EXTRACT: note_off channel=13 note=48 velocity=106 time=0
EXTRACT: note_on channel=1 note=33 velocity=114 time=0.018656666666666665
EXTRACT: note_on channel=9 note=42 velocity=59 time=0
EXTRACT: note_off channel=9 note=42 velocity=59 time=0.004664166666666666
EXTRACT: note_off channel=1 note=33 velocity=114 time=0.20055916666666665
EXTRACT: note_on channel=1 note=35 velocity=121 time=0.018656666666666665
EXTRACT: note_on channel=2 note=57 velocity=109 time=0
EXTRACT: note_on channel=2 note=60 velocity=99 time=0
EXTRACT: note_on channel=2 note=64 velocity=111 time=0
EXTRACT: note_on channel=5 note=45 velocity=91 time=0
EXTRACT: note_on channel=5 note=48 velocity=93 time=0
EXTRACT: note_on channel=5 note=52 velocity=88 time=0
EXTRACT: note_on channel=9 note=39 velocity=127 time=0
EXTRACT: note_on channel=9 note=38 velocity=116 time=0
EXTRACT: note_on channel=9 note=46 velocity=118 time=0
EXTRACT: note_off channel=9 note=46 velocity=118 time=0.004664166666666666
EXTRACT: note_off channel=9 note=38 velocity=116 time=0
EXTRACT: note_off channel=9 note=39 velocity=127 time=0
EXTRACT: note_off channel=2 note=64 velocity=111 time=0.09328333333333333
EXTRACT: note_off channel=2 note=60 velocity=99 time=0
EXTRACT: note_off channel=2 note=57 velocity=109 time=0
EXTRACT: note_off channel=5 note=52 velocity=88 time=0
EXTRACT: note_off channel=5 note=48 velocity=93 time=0
EXTRACT: note_off channel=5 note=45 velocity=91 time=0
EXTRACT: note_off channel=1 note=35 velocity=121 time=0.10727583333333332
EXTRACT: note_on channel=1 note=28 velocity=118 time=0.018656666666666665
EXTRACT: note_on channel=2 note=57 velocity=103 time=0
EXTRACT: note_on channel=2 note=60 velocity=102 time=0
EXTRACT: note_on channel=2 note=64 velocity=112 time=0
EXTRACT: note_on channel=5 note=45 velocity=103 time=0
EXTRACT: note_on channel=5 note=48 velocity=93 time=0
EXTRACT: note_on channel=5 note=52 velocity=101 time=0
EXTRACT: note_on channel=9 note=42 velocity=67 time=0
EXTRACT: note_off channel=9 note=42 velocity=67 time=0.004664166666666666
EXTRACT: note_off channel=2 note=64 velocity=112 time=0.09328333333333333
EXTRACT: note_off channel=2 note=60 velocity=102 time=0
EXTRACT: note_off channel=2 note=57 velocity=103 time=0
EXTRACT: note_off channel=5 note=52 velocity=101 time=0
EXTRACT: note_off channel=5 note=48 velocity=93 time=0
EXTRACT: note_off channel=5 note=45 velocity=103 time=0
EXTRACT: note_off channel=1 note=28 velocity=118 time=0.10727583333333332
EXTRACT: note_on channel=1 note=36 velocity=123 time=0.018656666666666665
EXTRACT: note_on channel=3 note=67 velocity=91 time=0
EXTRACT: note_on channel=3 note=70 velocity=101 time=0
EXTRACT: note_on channel=9 note=36 velocity=127 time=0
EXTRACT: note_on channel=9 note=49 velocity=122 time=0
EXTRACT: note_on channel=13 note=48 velocity=121 time=0
EXTRACT: note_off channel=9 note=49 velocity=122 time=0.004664166666666666
EXTRACT: note_off channel=9 note=36 velocity=127 time=0
EXTRACT: control_change channel=3 control=1 value=83 time=0.10727583333333332
EXTRACT: note_off channel=1 note=36 velocity=123 time=0.09328333333333333
EXTRACT: note_off channel=13 note=48 velocity=121 time=0
EXTRACT: note_on channel=9 note=42 velocity=73 time=0.018656666666666665
EXTRACT: note_off channel=9 note=42 velocity=73 time=0.004664166666666666
EXTRACT: note_on channel=1 note=36 velocity=115 time=0.2192158333333333
EXTRACT: note_on channel=2 note=60 velocity=101 time=0
EXTRACT: note_on channel=2 note=65 velocity=100 time=0
EXTRACT: note_on channel=2 note=67 velocity=95 time=0
EXTRACT: note_on channel=5 note=48 velocity=99 time=0
EXTRACT: note_on channel=5 note=53 velocity=105 time=0
EXTRACT: note_on channel=5 note=55 velocity=89 time=0
EXTRACT: note_on channel=9 note=38 velocity=125 time=0
EXTRACT: note_on channel=9 note=42 velocity=76 time=0
EXTRACT: note_off channel=9 note=42 velocity=76 time=0.004664166666666666
EXTRACT: note_off channel=9 note=38 velocity=125 time=0
EXTRACT: note_off channel=2 note=67 velocity=95 time=0.09328333333333333
EXTRACT: note_off channel=2 note=65 velocity=100 time=0
EXTRACT: note_off channel=2 note=60 velocity=101 time=0
EXTRACT: note_off channel=5 note=55 velocity=89 time=0
EXTRACT: note_off channel=5 note=53 velocity=105 time=0
EXTRACT: note_off channel=5 note=48 velocity=99 time=0
EXTRACT: note_off channel=1 note=36 velocity=115 time=0.10727583333333332
EXTRACT: note_on channel=2 note=60 velocity=108 time=0.018656666666666665
EXTRACT: note_on channel=2 note=65 velocity=107 time=0
EXTRACT: note_on channel=2 note=67 velocity=103 time=0
EXTRACT: note_on channel=5 note=48 velocity=100 time=0
EXTRACT: note_on channel=5 note=53 velocity=99 time=0
EXTRACT: note_on channel=5 note=55 velocity=93 time=0
EXTRACT: note_on channel=9 note=42 velocity=59 time=0
EXTRACT: note_on channel=13 note=48 velocity=111 time=0
EXTRACT: note_off channel=9 note=42 velocity=59 time=0.004664166666666666
EXTRACT: note_off channel=2 note=67 velocity=103 time=0.09328333333333333
EXTRACT: note_off channel=2 note=65 velocity=107 time=0
EXTRACT: note_off channel=2 note=60 velocity=108 time=0
EXTRACT: note_off channel=5 note=55 velocity=93 time=0
EXTRACT: note_off channel=5 note=53 velocity=99 time=0
EXTRACT: note_off channel=5 note=48 velocity=100 time=0
EXTRACT: note_off channel=13 note=48 velocity=111 time=0.10727583333333332
EXTRACT: note_on channel=1 note=31 velocity=113 time=0.018656666666666665
EXTRACT: note_on channel=9 note=36 velocity=127 time=0
EXTRACT: note_on channel=9 note=42 velocity=63 time=0
EXTRACT: note_off channel=9 note=42 velocity=63 time=0.004664166666666666
EXTRACT: note_off channel=9 note=36 velocity=127 time=0
EXTRACT: note_off channel=1 note=31 velocity=113 time=0.20055916666666665
EXTRACT: note_off channel=3 note=70 velocity=101 time=0.004664166666666666
EXTRACT: note_off channel=3 note=67 velocity=91 time=0
EXTRACT: note_on channel=1 note=36 velocity=123 time=0.013992499999999998
EXTRACT: note_on channel=9 note=42 velocity=70 time=0
EXTRACT: note_on channel=13 note=48 velocity=114 time=0
EXTRACT: note_off channel=9 note=42 velocity=70 time=0.004664166666666666
EXTRACT: note_off channel=1 note=36 velocity=123 time=0.08861916666666667
EXTRACT: note_off channel=13 note=48 velocity=114 time=0.11193999999999998
EXTRACT: note_on channel=2 note=60 velocity=109 time=0.018656666666666665
EXTRACT: note_on channel=2 note=65 velocity=100 time=0
EXTRACT: note_on channel=2 note=67 velocity=114 time=0
EXTRACT: note_on channel=5 note=48 velocity=90 time=0
EXTRACT: note_on channel=5 note=53 velocity=99 time=0
EXTRACT: note_on channel=5 note=55 velocity=99 time=0
EXTRACT: note_on channel=9 note=38 velocity=122 time=0
EXTRACT: note_on channel=9 note=42 velocity=65 time=0
EXTRACT: note_on channel=13 note=48 velocity=122 time=0
EXTRACT: note_off channel=9 note=42 velocity=65 time=0.004664166666666666
EXTRACT: note_off channel=9 note=38 velocity=122 time=0
EXTRACT: note_off channel=2 note=67 velocity=114 time=0.09328333333333333
EXTRACT: note_off channel=2 note=65 velocity=100 time=0
EXTRACT: note_off channel=2 note=60 velocity=109 time=0
EXTRACT: note_off channel=5 note=55 velocity=99 time=0
EXTRACT: note_off channel=5 note=53 velocity=99 time=0
EXTRACT: note_off channel=5 note=48 velocity=90 time=0
EXTRACT: note_off channel=13 note=48 velocity=122 time=0.10727583333333332
EXTRACT: note_on channel=1 note=31 velocity=108 time=0.018656666666666665
EXTRACT: note_on channel=2 note=60 velocity=110 time=0
EXTRACT: note_on channel=2 note=65 velocity=97 time=0
EXTRACT: note_on channel=2 note=67 velocity=101 time=0
EXTRACT: control_change channel=3 control=1 value=0 time=0
EXTRACT: note_on channel=5 note=48 velocity=90 time=0
EXTRACT: note_on channel=5 note=53 velocity=87 time=0
EXTRACT: note_on channel=5 note=55 velocity=93 time=0
EXTRACT: note_on channel=9 note=42 velocity=70 time=0
EXTRACT: note_on channel=13 note=48 velocity=120 time=0
EXTRACT: note_off channel=9 note=42 velocity=70 time=0.004664166666666666
EXTRACT: note_off channel=2 note=67 velocity=101 time=0.09328333333333333
EXTRACT: note_off channel=2 note=65 velocity=97 time=0
EXTRACT: note_off channel=2 note=60 velocity=110 time=0
EXTRACT: note_off channel=5 note=55 velocity=93 time=0
EXTRACT: note_off channel=5 note=53 velocity=87 time=0
EXTRACT: note_off channel=5 note=48 velocity=90 time=0
EXTRACT: note_off channel=1 note=31 velocity=108 time=0.10727583333333332
EXTRACT: note_off channel=13 note=48 velocity=120 time=0
EXTRACT: note_on channel=1 note=36 velocity=124 time=0.018656666666666665
EXTRACT: note_on channel=9 note=36 velocity=123 time=0
EXTRACT: note_on channel=9 note=42 velocity=61 time=0
EXTRACT: note_on channel=13 note=48 velocity=112 time=0
EXTRACT: note_off channel=9 note=42 velocity=61 time=0.004664166666666666
EXTRACT: note_off channel=9 note=36 velocity=123 time=0
EXTRACT: note_off channel=1 note=36 velocity=124 time=0.20055916666666665
EXTRACT: note_off channel=13 note=48 velocity=112 time=0
EXTRACT: note_on channel=9 note=42 velocity=68 time=0.018656666666666665
EXTRACT: note_on channel=13 note=48 velocity=104 time=0
EXTRACT: note_off channel=9 note=42 velocity=68 time=0.004664166666666666
EXTRACT: note_off channel=13 note=48 velocity=104 time=0.20055916666666665
EXTRACT: note_on channel=1 note=36 velocity=120 time=0.018656666666666665
EXTRACT: note_on channel=2 note=60 velocity=112 time=0
EXTRACT: note_on channel=2 note=64 velocity=105 time=0
EXTRACT: note_on channel=2 note=67 velocity=98 time=0
EXTRACT: note_on channel=5 note=48 velocity=100 time=0
EXTRACT: note_on channel=5 note=52 velocity=101 time=0
EXTRACT: note_on channel=5 note=55 velocity=86 time=0
EXTRACT: note_on channel=9 note=38 velocity=121 time=0
EXTRACT: note_on channel=9 note=42 velocity=72 time=0
EXTRACT: note_on channel=13 note=48 velocity=106 time=0
EXTRACT: note_off channel=9 note=42 velocity=72 time=0.004664166666666666
EXTRACT: note_off channel=9 note=38 velocity=121 time=0
EXTRACT: note_off channel=2 note=67 velocity=98 time=0.09328333333333333
EXTRACT: note_off channel=2 note=64 velocity=105 time=0
EXTRACT: note_off channel=2 note=60 velocity=112 time=0
EXTRACT: note_off channel=5 note=55 velocity=86 time=0
EXTRACT: note_off channel=5 note=52 velocity=101 time=0
EXTRACT: note_off channel=5 note=48 velocity=100 time=0
EXTRACT: note_off channel=1 note=36 velocity=120 time=0.10727583333333332
EXTRACT: note_off channel=13 note=48 velocity=106 time=0
EXTRACT: note_on channel=2 note=60 velocity=110 time=0.018656666666666665
EXTRACT: note_on channel=2 note=64 velocity=105 time=0
EXTRACT: note_on channel=2 note=67 velocity=114 time=0
EXTRACT: note_on channel=5 note=48 velocity=102 time=0
EXTRACT: note_on channel=5 note=52 velocity=101 time=0
EXTRACT: note_on channel=5 note=55 velocity=104 time=0
EXTRACT: note_on channel=9 note=42 velocity=62 time=0
EXTRACT: note_off channel=9 note=42 velocity=62 time=0.004664166666666666
EXTRACT: note_off channel=2 note=67 velocity=114 time=0.09328333333333333
EXTRACT: note_off channel=2 note=64 velocity=105 time=0
EXTRACT: note_off channel=2 note=60 velocity=110 time=0
EXTRACT: note_off channel=5 note=55 velocity=104 time=0
EXTRACT: note_off channel=5 note=52 velocity=101 time=0
EXTRACT: note_off channel=5 note=48 velocity=102 time=0
EXTRACT: note_on channel=1 note=31 velocity=115 time=0.1259325
EXTRACT: note_on channel=9 note=36 velocity=127 time=0
EXTRACT: note_on channel=9 note=42 velocity=77 time=0
EXTRACT: note_on channel=13 note=48 velocity=118 time=0
EXTRACT: note_off channel=9 note=42 velocity=77 time=0.004664166666666666
EXTRACT: note_off channel=9 note=36 velocity=127 time=0
EXTRACT: note_off channel=1 note=31 velocity=115 time=0.20055916666666665
EXTRACT: note_off channel=13 note=48 velocity=118 time=0
EXTRACT: note_on channel=1 note=36 velocity=111 time=0.018656666666666665
EXTRACT: note_on channel=9 note=53 velocity=120 time=0
EXTRACT: note_on channel=12 note=60 velocity=97 time=0
EXTRACT: note_off channel=9 note=53 velocity=120 time=0.004664166666666666
EXTRACT: note_off channel=1 note=36 velocity=111 time=0.08861916666666667
EXTRACT: note_off channel=12 note=60 velocity=97 time=0.11193999999999998
EXTRACT: note_on channel=2 note=60 velocity=102 time=0.018656666666666665
EXTRACT: note_on channel=2 note=64 velocity=96 time=0
EXTRACT: note_on channel=2 note=67 velocity=96 time=0
EXTRACT: note_on channel=5 note=48 velocity=97 time=0
EXTRACT: note_on channel=5 note=52 velocity=104 time=0
EXTRACT: note_on channel=5 note=55 velocity=94 time=0
EXTRACT: note_on channel=9 note=39 velocity=127 time=0
EXTRACT: note_on channel=9 note=38 velocity=121 time=0
EXTRACT: note_on channel=9 note=42 velocity=62 time=0
EXTRACT: note_on channel=12 note=72 velocity=92 time=0
EXTRACT: note_off channel=9 note=42 velocity=62 time=0.004664166666666666
EXTRACT: note_off channel=9 note=38 velocity=121 time=0
EXTRACT: note_off channel=9 note=39 velocity=127 time=0
EXTRACT: note_off channel=2 note=67 velocity=96 time=0.09328333333333333
EXTRACT: note_off channel=2 note=64 velocity=96 time=0
EXTRACT: note_off channel=2 note=60 velocity=102 time=0
EXTRACT: note_off channel=5 note=55 velocity=94 time=0
EXTRACT: note_off channel=5 note=52 velocity=104 time=0
EXTRACT: note_off channel=5 note=48 velocity=97 time=0
EXTRACT: note_off channel=12 note=72 velocity=92 time=0.10727583333333332
EXTRACT: note_on channel=1 note=36 velocity=111 time=0.018656666666666665
EXTRACT: note_on channel=2 note=60 velocity=96 time=0
EXTRACT: note_on channel=2 note=64 velocity=113 time=0
EXTRACT: note_on channel=2 note=67 velocity=97 time=0
EXTRACT: note_on channel=5 note=48 velocity=96 time=0
EXTRACT: note_on channel=5 note=52 velocity=97 time=0
EXTRACT: note_on channel=5 note=55 velocity=89 time=0
EXTRACT: note_on channel=9 note=42 velocity=60 time=0
EXTRACT: note_on channel=12 note=72 velocity=91 time=0
EXTRACT: note_off channel=9 note=42 velocity=60 time=0.004664166666666666
EXTRACT: note_off channel=2 note=67 velocity=97 time=0.09328333333333333
EXTRACT: note_off channel=2 note=64 velocity=113 time=0
EXTRACT: note_off channel=2 note=60 velocity=96 time=0
EXTRACT: note_off channel=5 note=55 velocity=89 time=0
EXTRACT: note_off channel=5 note=52 velocity=97 time=0
EXTRACT: note_off channel=5 note=48 velocity=96 time=0
EXTRACT: note_off channel=1 note=36 velocity=111 time=0.10727583333333332
EXTRACT: note_off channel=12 note=72 velocity=91 time=0
EXTRACT: note_on channel=1 note=38 velocity=118 time=0.018656666666666665
EXTRACT: note_on channel=9 note=36 velocity=127 time=0
EXTRACT: note_on channel=9 note=42 velocity=66 time=0
EXTRACT: note_on channel=12 note=69 velocity=109 time=0
EXTRACT: note_on channel=13 note=48 velocity=120 time=0
EXTRACT: note_off channel=9 note=42 velocity=66 time=0.004664166666666666
EXTRACT: note_off channel=9 note=36 velocity=127 time=0
EXTRACT: note_off channel=1 note=38 velocity=118 time=0.20055916666666665
EXTRACT: note_off channel=12 note=69 velocity=109 time=0
EXTRACT: note_off channel=13 note=48 velocity=120 time=0
EXTRACT: note_on channel=9 note=42 velocity=70 time=0.018656666666666665
EXTRACT: note_on channel=11 note=60 velocity=104 time=0
EXTRACT: note_off channel=9 note=42 velocity=70 time=0.004664166666666666
EXTRACT: note_off channel=11 note=60 velocity=104 time=0.20055916666666665
EXTRACT: note_on channel=1 note=38 velocity=122 time=0.018656666666666665
EXTRACT: note_on channel=2 note=62 velocity=106 time=0
EXTRACT: note_on channel=2 note=65 velocity=109 time=0
EXTRACT: note_on channel=5 note=50 velocity=104 time=0
EXTRACT: note_on channel=5 note=53 velocity=88 time=0
EXTRACT: note_on channel=9 note=38 velocity=119 time=0
EXTRACT: note_on channel=9 note=42 velocity=70 time=0
EXTRACT: note_on channel=11 note=72 velocity=96 time=0
EXTRACT: note_off channel=9 note=42 velocity=70 time=0.004664166666666666
EXTRACT: note_off channel=9 note=38 velocity=119 time=0
EXTRACT: note_off channel=2 note=65 velocity=109 time=0.09328333333333333
EXTRACT: note_off channel=2 note=62 velocity=106 time=0
EXTRACT: note_off channel=5 note=53 velocity=88 time=0
EXTRACT: note_off channel=5 note=50 velocity=104 time=0
EXTRACT: note_off channel=1 note=38 velocity=122 time=0.10727583333333332
EXTRACT: note_off channel=11 note=72 velocity=96 time=0
EXTRACT: note_on channel=2 note=62 velocity=106 time=0.018656666666666665
EXTRACT: note_on channel=2 note=65 velocity=96 time=0
EXTRACT: note_on channel=5 note=50 velocity=103 time=0
EXTRACT: note_on channel=5 note=53 velocity=92 time=0
EXTRACT: note_on channel=9 note=42 velocity=67 time=0
EXTRACT: note_on channel=11 note=72 velocity=88 time=0
EXTRACT: note_on channel=12 note=67 velocity=98 time=0
EXTRACT: note_on channel=13 note=48 velocity=116 time=0
EXTRACT: note_off channel=9 note=42 velocity=67 time=0.004664166666666666
EXTRACT: note_off channel=2 note=65 velocity=96 time=0.09328333333333333
EXTRACT: note_off channel=2 note=62 velocity=106 time=0
EXTRACT: note_off channel=5 note=53 velocity=92 time=0
EXTRACT: note_off channel=5 note=50 velocity=103 time=0
EXTRACT: note_off channel=11 note=72 velocity=88 time=0.10727583333333332
EXTRACT: note_off channel=12 note=67 velocity=98 time=0
EXTRACT: note_off channel=13 note=48 velocity=116 time=0
EXTRACT: note_on channel=1 note=43 velocity=122 time=0.018656666666666665
EXTRACT: note_on channel=9 note=36 velocity=123 time=0
EXTRACT: note_on channel=9 note=42 velocity=60 time=0
EXTRACT: note_on channel=11 note=69 velocity=80 time=0
EXTRACT: note_off channel=9 note=42 velocity=60 time=0.004664166666666666
EXTRACT: note_off channel=9 note=36 velocity=123 time=0
EXTRACT: note_off channel=1 note=43 velocity=122 time=0.20055916666666665
EXTRACT: note_off channel=11 note=69 velocity=80 time=0
EXTRACT: note_on channel=1 note=31 velocity=111 time=0.018656666666666665
EXTRACT: note_on channel=9 note=42 velocity=69 time=0
EXTRACT: note_on channel=11 note=60 velocity=88 time=0
EXTRACT: note_on channel=13 note=48 velocity=122 time=0
EXTRACT: note_off channel=9 note=42 velocity=69 time=0.004664166666666666
EXTRACT: note_off channel=1 note=31 velocity=111 time=0.08861916666666667
EXTRACT: note_off channel=11 note=60 velocity=88 time=0.11193999999999998
EXTRACT: note_off channel=13 note=48 velocity=122 time=0
EXTRACT: note_on channel=2 note=62 velocity=112 time=0.018656666666666665
EXTRACT: note_on channel=2 note=65 velocity=111 time=0
EXTRACT: note_on channel=5 note=50 velocity=101 time=0
EXTRACT: note_on channel=5 note=53 velocity=101 time=0
EXTRACT: note_on channel=9 note=38 velocity=124 time=0
EXTRACT: note_on channel=9 note=42 velocity=77 time=0
EXTRACT: note_on channel=11 note=72 velocity=78 time=0
EXTRACT: note_on channel=13 note=48 velocity=122 time=0
EXTRACT: note_off channel=9 note=42 velocity=77 time=0.004664166666666666
EXTRACT: note_off channel=9 note=38 velocity=124 time=0
EXTRACT: note_off channel=2 note=65 velocity=111 time=0.09328333333333333
EXTRACT: note_off channel=2 note=62 velocity=112 time=0
EXTRACT: note_off channel=5 note=53 velocity=101 time=0
EXTRACT: note_off channel=5 note=50 velocity=101 time=0
EXTRACT: note_off channel=11 note=72 velocity=78 time=0.10727583333333332
EXTRACT: note_off channel=13 note=48 velocity=122 time=0
EXTRACT: note_on channel=1 note=31 velocity=108 time=0.018656666666666665
EXTRACT: note_on channel=2 note=62 velocity=102 time=0
EXTRACT: note_on channel=2 note=65 velocity=104 time=0
EXTRACT: note_on channel=5 note=50 velocity=104 time=0
EXTRACT: note_on channel=5 note=53 velocity=103 time=0
EXTRACT: note_on channel=9 note=42 velocity=60 time=0
EXTRACT: note_on channel=11 note=72 velocity=68 time=0
EXTRACT: note_on channel=13 note=48 velocity=108 time=0
EXTRACT: note_off channel=9 note=42 velocity=60 time=0.004664166666666666
EXTRACT: note_off channel=2 note=65 velocity=104 time=0.09328333333333333
EXTRACT: note_off channel=2 note=62 velocity=102 time=0
EXTRACT: note_off channel=5 note=53 velocity=103 time=0
EXTRACT: note_off channel=5 note=50 velocity=104 time=0
EXTRACT: note_off channel=1 note=31 velocity=108 time=0.10727583333333332
EXTRACT: note_off channel=11 note=72 velocity=68 time=0
EXTRACT: note_off channel=13 note=48 velocity=108 time=0
EXTRACT: note_on channel=1 note=36 velocity=122 time=0.018656666666666665
EXTRACT: note_on channel=9 note=36 velocity=127 time=0
EXTRACT: note_on channel=9 note=42 velocity=70 time=0
EXTRACT: note_on channel=11 note=69 velocity=58 time=0
EXTRACT: note_on channel=13 note=48 velocity=119 time=0
EXTRACT: note_off channel=9 note=42 velocity=70 time=0.004664166666666666
EXTRACT: note_off channel=9 note=36 velocity=127 time=0
EXTRACT: note_off channel=1 note=36 velocity=122 time=0.20055916666666665
EXTRACT: note_off channel=11 note=69 velocity=58 time=0
EXTRACT: note_off channel=13 note=48 velocity=119 time=0
EXTRACT: note_on channel=9 note=42 velocity=74 time=0.018656666666666665
EXTRACT: note_on channel=11 note=60 velocity=66 time=0
EXTRACT: note_on channel=13 note=48 velocity=112 time=0
EXTRACT: note_off channel=9 note=42 velocity=74 time=0.004664166666666666
EXTRACT: note_off channel=11 note=60 velocity=66 time=0.20055916666666665
EXTRACT: note_off channel=13 note=48 velocity=112 time=0
EXTRACT: note_on channel=1 note=36 velocity=116 time=0.018656666666666665
EXTRACT: note_on channel=2 note=60 velocity=107 time=0
EXTRACT: note_on channel=2 note=64 velocity=114 time=0
EXTRACT: note_on channel=5 note=48 velocity=105 time=0
EXTRACT: note_on channel=5 note=52 velocity=92 time=0
EXTRACT: note_on channel=9 note=38 velocity=114 time=0
EXTRACT: note_on channel=9 note=42 velocity=59 time=0
EXTRACT: note_on channel=11 note=72 velocity=56 time=0
EXTRACT: note_on channel=13 note=48 velocity=119 time=0
EXTRACT: note_off channel=9 note=42 velocity=59 time=0.004664166666666666
EXTRACT: note_off channel=9 note=38 velocity=114 time=0
EXTRACT: note_off channel=2 note=64 velocity=114 time=0.09328333333333333
EXTRACT: note_off channel=2 note=60 velocity=107 time=0
EXTRACT: note_off channel=5 note=52 velocity=92 time=0
EXTRACT: note_off channel=5 note=48 velocity=105 time=0
EXTRACT: note_off channel=1 note=36 velocity=116 time=0.10727583333333332
EXTRACT: note_off channel=11 note=72 velocity=56 time=0
EXTRACT: note_off channel=13 note=48 velocity=119 time=0
EXTRACT: note_on channel=2 note=60 velocity=110 time=0.018656666666666665
EXTRACT: note_on channel=2 note=64 velocity=107 time=0
EXTRACT: note_on channel=5 note=48 velocity=89 time=0
EXTRACT: note_on channel=5 note=52 velocity=100 time=0
EXTRACT: note_on channel=9 note=42 velocity=72 time=0
EXTRACT: note_on channel=11 note=72 velocity=45 time=0
EXTRACT: note_off channel=9 note=42 velocity=72 time=0.004664166666666666
EXTRACT: note_off channel=2 note=64 velocity=107 time=0.09328333333333333
EXTRACT: note_off channel=2 note=60 velocity=110 time=0
EXTRACT: note_off channel=5 note=52 velocity=100 time=0
EXTRACT: note_off channel=5 note=48 velocity=89 time=0
EXTRACT: note_off channel=11 note=72 velocity=45 time=0.10727583333333332
EXTRACT: note_on channel=1 note=31 velocity=108 time=0.018656666666666665
EXTRACT: note_on channel=9 note=36 velocity=127 time=0
EXTRACT: note_on channel=9 note=46 velocity=105 time=0
EXTRACT: note_on channel=11 note=69 velocity=35 time=0
EXTRACT: note_on channel=13 note=48 velocity=116 time=0
EXTRACT: note_off channel=9 note=46 velocity=105 time=0.004664166666666666
EXTRACT: note_off channel=9 note=36 velocity=127 time=0
EXTRACT: note_off channel=1 note=31 velocity=108 time=0.20055916666666665
EXTRACT: note_off channel=11 note=69 velocity=35 time=0
EXTRACT: note_off channel=13 note=48 velocity=116 time=0
EXTRACT: note_on channel=1 note=36 velocity=119 time=0.018656666666666665
EXTRACT: note_on channel=9 note=81 velocity=127 time=0
EXTRACT: note_on channel=9 note=42 velocity=58 time=0
EXTRACT: note_off channel=9 note=42 velocity=58 time=0.004664166666666666
EXTRACT: note_off channel=9 note=81 velocity=127 time=0
EXTRACT: note_off channel=1 note=36 velocity=119 time=0.08861916666666667
EXTRACT: note_on channel=2 note=60 velocity=99 time=0.13059666666666667
EXTRACT: note_on channel=2 note=64 velocity=100 time=0
EXTRACT: note_on channel=5 note=48 velocity=92 time=0
EXTRACT: note_on channel=5 note=52 velocity=99 time=0
EXTRACT: note_on channel=9 note=39 velocity=127 time=0
EXTRACT: note_on channel=9 note=38 velocity=113 time=0
EXTRACT: note_on channel=9 note=46 velocity=124 time=0
EXTRACT: note_off channel=9 note=46 velocity=124 time=0.004664166666666666
EXTRACT: note_off channel=9 note=38 velocity=113 time=0
EXTRACT: note_off channel=9 note=39 velocity=127 time=0
EXTRACT: note_off channel=2 note=64 velocity=100 time=0.09328333333333333
EXTRACT: note_off channel=2 note=60 velocity=99 time=0
EXTRACT: note_off channel=5 note=52 velocity=99 time=0
EXTRACT: note_off channel=5 note=48 velocity=92 time=0
EXTRACT: note_on channel=1 note=31 velocity=122 time=0.1259325
EXTRACT: note_on channel=2 note=60 velocity=112 time=0
EXTRACT: note_on channel=2 note=64 velocity=103 time=0
EXTRACT: note_on channel=5 note=48 velocity=95 time=0
EXTRACT: note_on channel=5 note=52 velocity=104 time=0
EXTRACT: note_on channel=9 note=81 velocity=127 time=0
EXTRACT: note_on channel=9 note=42 velocity=58 time=0
EXTRACT: note_off channel=9 note=42 velocity=58 time=0.004664166666666666
EXTRACT: note_off channel=9 note=81 velocity=127 time=0
EXTRACT: note_off channel=2 note=64 velocity=103 time=0.09328333333333333
EXTRACT: note_off channel=2 note=60 velocity=112 time=0
EXTRACT: note_off channel=5 note=52 velocity=104 time=0
EXTRACT: note_off channel=5 note=48 velocity=95 time=0
EXTRACT: note_off channel=1 note=31 velocity=122 time=0.10727583333333332
EXTRACT: note_on channel=1 note=36 velocity=125 time=0.018656666666666665
EXTRACT: note_on channel=3 note=67 velocity=97 time=0
EXTRACT: note_on channel=3 note=70 velocity=98 time=0
EXTRACT: note_on channel=13 note=48 velocity=121 time=0
EXTRACT: control_change channel=3 control=1 value=83 time=0.11193999999999998
EXTRACT: note_off channel=1 note=36 velocity=125 time=0.09328333333333333
EXTRACT: note_off channel=13 note=48 velocity=121 time=0
EXTRACT: note_on channel=1 note=36 velocity=125 time=0.24253666666666665
EXTRACT: note_off channel=1 note=36 velocity=125 time=0.2052233333333333
EXTRACT: note_on channel=13 note=48 velocity=116 time=0.018656666666666665
EXTRACT: note_off channel=13 note=48 velocity=116 time=0.2052233333333333
EXTRACT: note_on channel=1 note=31 velocity=125 time=0.018656666666666665
EXTRACT: note_off channel=1 note=31 velocity=125 time=0.2052233333333333
EXTRACT: note_off channel=3 note=70 velocity=98 time=0.004664166666666666
EXTRACT: note_off channel=3 note=67 velocity=97 time=0
EXTRACT: note_on channel=1 note=36 velocity=109 time=0.013992499999999998
EXTRACT: note_on channel=13 note=48 velocity=108 time=0
EXTRACT: note_off channel=1 note=36 velocity=109 time=0.09328333333333333
EXTRACT: note_off channel=13 note=48 velocity=108 time=0.11193999999999998
EXTRACT: note_on channel=13 note=48 velocity=114 time=0.018656666666666665
EXTRACT: note_off channel=13 note=48 velocity=114 time=0.2052233333333333
EXTRACT: note_on channel=1 note=31 velocity=125 time=0.018656666666666665
EXTRACT: control_change channel=3 control=1 value=0 time=0
EXTRACT: note_on channel=13 note=48 velocity=116 time=0
EXTRACT: note_off channel=1 note=31 velocity=125 time=0.2052233333333333
EXTRACT: note_off channel=13 note=48 velocity=116 time=0
EXTRACT: note_on channel=1 note=36 velocity=120 time=0.018656666666666665
EXTRACT: note_on channel=13 note=48 velocity=116 time=0
EXTRACT: note_off channel=1 note=36 velocity=120 time=0.2052233333333333
EXTRACT: note_off channel=13 note=48 velocity=116 time=0
EXTRACT: note_on channel=13 note=48 velocity=112 time=0.018656666666666665
EXTRACT: note_off channel=13 note=48 velocity=112 time=0.2052233333333333
EXTRACT: note_on channel=1 note=36 velocity=117 time=0.018656666666666665
EXTRACT: note_on channel=13 note=48 velocity=114 time=0
EXTRACT: note_off channel=1 note=36 velocity=117 time=0.2052233333333333
EXTRACT: note_off channel=13 note=48 velocity=114 time=0
EXTRACT: note_on channel=1 note=31 velocity=119 time=0.24253666666666665
EXTRACT: note_on channel=13 note=48 velocity=119 time=0
EXTRACT: note_off channel=1 note=31 velocity=119 time=0.2052233333333333
EXTRACT: note_off channel=13 note=48 velocity=119 time=0
EXTRACT: note_on channel=1 note=36 velocity=112 time=0.018656666666666665
EXTRACT: note_on channel=12 note=60 velocity=103 time=0
EXTRACT: note_off channel=1 note=36 velocity=112 time=0.09328333333333333
EXTRACT: note_off channel=12 note=60 velocity=103 time=0.11193999999999998
EXTRACT: note_on channel=9 note=39 velocity=127 time=0.018656666666666665
EXTRACT: note_on channel=12 note=72 velocity=107 time=0
EXTRACT: note_off channel=9 note=39 velocity=127 time=0.004664166666666666
EXTRACT: note_off channel=12 note=72 velocity=107 time=0.20055916666666665
EXTRACT: note_on channel=1 note=29 velocity=112 time=0.018656666666666665
EXTRACT: note_on channel=12 note=72 velocity=102 time=0
EXTRACT: note_off channel=1 note=29 velocity=112 time=0.2052233333333333
EXTRACT: note_off channel=12 note=72 velocity=102 time=0
EXTRACT: note_on channel=1 note=34 velocity=111 time=0.018656666666666665
EXTRACT: note_on channel=12 note=69 velocity=92 time=0
EXTRACT: note_on channel=13 note=48 velocity=105 time=0
EXTRACT: note_off channel=1 note=34 velocity=111 time=0.2052233333333333
EXTRACT: note_off channel=12 note=69 velocity=92 time=0
EXTRACT: note_off channel=13 note=48 velocity=105 time=0
EXTRACT: note_on channel=11 note=60 velocity=104 time=0.018656666666666665
EXTRACT: note_off channel=11 note=60 velocity=104 time=0.2052233333333333
EXTRACT: note_on channel=1 note=34 velocity=123 time=0.018656666666666665
EXTRACT: note_on channel=11 note=72 velocity=96 time=0
EXTRACT: note_off channel=1 note=34 velocity=123 time=0.2052233333333333
EXTRACT: note_off channel=11 note=72 velocity=96 time=0
EXTRACT: note_on channel=11 note=72 velocity=88 time=0.018656666666666665
EXTRACT: note_on channel=13 note=48 velocity=123 time=0
EXTRACT: note_off channel=11 note=72 velocity=88 time=0.2052233333333333
EXTRACT: note_off channel=13 note=48 velocity=123 time=0
EXTRACT: note_on channel=1 note=29 velocity=117 time=0.018656666666666665
EXTRACT: note_on channel=11 note=69 velocity=80 time=0
EXTRACT: note_off channel=1 note=29 velocity=117 time=0.2052233333333333
EXTRACT: note_off channel=11 note=69 velocity=80 time=0
EXTRACT: note_on channel=1 note=34 velocity=117 time=0.018656666666666665
EXTRACT: note_on channel=11 note=60 velocity=88 time=0
EXTRACT: note_on channel=13 note=48 velocity=122 time=0
EXTRACT: note_off channel=1 note=34 velocity=117 time=0.09328333333333333
EXTRACT: note_off channel=11 note=60 velocity=88 time=0.11193999999999998
EXTRACT: note_off channel=13 note=48 velocity=122 time=0
EXTRACT: note_on channel=11 note=72 velocity=78 time=0.018656666666666665
EXTRACT: note_on channel=13 note=48 velocity=120 time=0
EXTRACT: note_off channel=11 note=72 velocity=78 time=0.2052233333333333
EXTRACT: note_off channel=13 note=48 velocity=120 time=0
EXTRACT: note_on channel=1 note=28 velocity=110 time=0.018656666666666665
EXTRACT: note_on channel=11 note=72 velocity=68 time=0
EXTRACT: note_on channel=13 note=48 velocity=116 time=0
EXTRACT: note_off channel=1 note=28 velocity=110 time=0.2052233333333333
EXTRACT: note_off channel=11 note=72 velocity=68 time=0
EXTRACT: note_off channel=13 note=48 velocity=116 time=0
EXTRACT: note_on channel=1 note=33 velocity=122 time=0.018656666666666665
EXTRACT: note_on channel=11 note=69 velocity=58 time=0
EXTRACT: note_on channel=13 note=48 velocity=120 time=0
EXTRACT: note_off channel=1 note=33 velocity=122 time=0.2052233333333333
EXTRACT: note_off channel=11 note=69 velocity=58 time=0
EXTRACT: note_off channel=13 note=48 velocity=120 time=0
EXTRACT: note_on channel=11 note=60 velocity=66 time=0.018656666666666665
EXTRACT: note_on channel=13 note=48 velocity=105 time=0
EXTRACT: note_off channel=11 note=60 velocity=66 time=0.2052233333333333
EXTRACT: note_off channel=13 note=48 velocity=105 time=0
EXTRACT: note_on channel=1 note=33 velocity=120 time=0.018656666666666665
EXTRACT: note_on channel=11 note=72 velocity=56 time=0
EXTRACT: note_on channel=13 note=48 velocity=107 time=0
EXTRACT: note_off channel=1 note=33 velocity=120 time=0.2052233333333333
EXTRACT: note_off channel=11 note=72 velocity=56 time=0
EXTRACT: note_off channel=13 note=48 velocity=107 time=0
EXTRACT: note_on channel=11 note=72 velocity=45 time=0.018656666666666665
EXTRACT: note_off channel=11 note=72 velocity=45 time=0.2052233333333333
EXTRACT: note_on channel=1 note=28 velocity=111 time=0.018656666666666665
EXTRACT: note_on channel=11 note=69 velocity=35 time=0
EXTRACT: note_on channel=13 note=48 velocity=106 time=0
EXTRACT: note_off channel=1 note=28 velocity=111 time=0.2052233333333333
EXTRACT: note_off channel=11 note=69 velocity=35 time=0
EXTRACT: note_off channel=13 note=48 velocity=106 time=0
EXTRACT: note_on channel=1 note=33 velocity=121 time=0.018656666666666665
EXTRACT: note_off channel=1 note=33 velocity=121 time=0.2052233333333333
EXTRACT: note_on channel=1 note=35 velocity=121 time=0.018656666666666665
EXTRACT: note_on channel=9 note=39 velocity=127 time=0
EXTRACT: note_off channel=9 note=39 velocity=127 time=0.004664166666666666
EXTRACT: note_off channel=1 note=35 velocity=121 time=0.20055916666666665
EXTRACT: note_on channel=1 note=28 velocity=109 time=0.018656666666666665
EXTRACT: note_off channel=1 note=28 velocity=109 time=0.2052233333333333
EXTRACT: note_on channel=1 note=36 velocity=115 time=0.018656666666666665
EXTRACT: note_on channel=13 note=48 velocity=104 time=0
EXTRACT: note_off channel=1 note=36 velocity=115 time=0.2052233333333333
EXTRACT: note_off channel=13 note=48 velocity=104 time=0
EXTRACT: note_on channel=1 note=36 velocity=125 time=0.24253666666666665
EXTRACT: note_off channel=1 note=36 velocity=125 time=0.2052233333333333
EXTRACT: note_on channel=13 note=48 velocity=114 time=0.018656666666666665
EXTRACT: note_off channel=13 note=48 velocity=114 time=0.2052233333333333
EXTRACT: note_on channel=1 note=31 velocity=121 time=0.018656666666666665
EXTRACT: note_off channel=1 note=31 velocity=121 time=0.2052233333333333
EXTRACT: note_on channel=1 note=36 velocity=124 time=0.018656666666666665
EXTRACT: note_on channel=13 note=48 velocity=113 time=0
EXTRACT: note_off channel=1 note=36 velocity=124 time=0.09328333333333333
EXTRACT: note_off channel=13 note=48 velocity=113 time=0.11193999999999998
EXTRACT: note_on channel=13 note=48 velocity=118 time=0.018656666666666665
EXTRACT: note_off channel=13 note=48 velocity=118 time=0.2052233333333333
EXTRACT: note_on channel=1 note=31 velocity=123 time=0.018656666666666665
EXTRACT: note_on channel=13 note=48 velocity=110 time=0
EXTRACT: note_off channel=1 note=31 velocity=123 time=0.2052233333333333
EXTRACT: note_off channel=13 note=48 velocity=110 time=0
EXTRACT: note_on channel=1 note=36 velocity=110 time=0.018656666666666665
EXTRACT: note_on channel=13 note=48 velocity=115 time=0
EXTRACT: note_off channel=1 note=36 velocity=110 time=0.2052233333333333
EXTRACT: note_off channel=13 note=48 velocity=115 time=0
EXTRACT: note_on channel=13 note=48 velocity=110 time=0.018656666666666665
EXTRACT: note_off channel=13 note=48 velocity=110 time=0.2052233333333333
EXTRACT: note_on channel=1 note=36 velocity=118 time=0.018656666666666665
EXTRACT: note_on channel=13 note=48 velocity=107 time=0
EXTRACT: note_off channel=1 note=36 velocity=118 time=0.2052233333333333
EXTRACT: note_off channel=13 note=48 velocity=107 time=0
EXTRACT: note_on channel=1 note=31 velocity=109 time=0.24253666666666665
EXTRACT: note_on channel=13 note=48 velocity=106 time=0
EXTRACT: note_off channel=1 note=31 velocity=109 time=0.2052233333333333
EXTRACT: note_off channel=13 note=48 velocity=106 time=0
EXTRACT: note_on channel=1 note=36 velocity=124 time=0.018656666666666665
EXTRACT: note_on channel=12 note=60 velocity=91 time=0
EXTRACT: note_off channel=1 note=36 velocity=124 time=0.09328333333333333
EXTRACT: note_off channel=12 note=60 velocity=91 time=0.11193999999999998
EXTRACT: note_on channel=9 note=39 velocity=127 time=0.018656666666666665
EXTRACT: note_on channel=12 note=72 velocity=106 time=0
EXTRACT: note_off channel=9 note=39 velocity=127 time=0.004664166666666666
EXTRACT: note_off channel=12 note=72 velocity=106 time=0.20055916666666665
EXTRACT: note_on channel=1 note=36 velocity=125 time=0.018656666666666665
EXTRACT: note_on channel=12 note=72 velocity=103 time=0
EXTRACT: note_off channel=1 note=36 velocity=125 time=0.2052233333333333
EXTRACT: note_off channel=12 note=72 velocity=103 time=0
EXTRACT: note_on channel=1 note=38 velocity=123 time=0.018656666666666665
EXTRACT: note_on channel=12 note=69 velocity=91 time=0
EXTRACT: note_on channel=13 note=48 velocity=104 time=0
EXTRACT: note_off channel=1 note=38 velocity=123 time=0.2052233333333333
EXTRACT: note_off channel=12 note=69 velocity=91 time=0
EXTRACT: note_off channel=13 note=48 velocity=104 time=0
EXTRACT: note_on channel=1 note=38 velocity=123 time=0.24253666666666665
EXTRACT: note_off channel=1 note=38 velocity=123 time=0.2052233333333333
EXTRACT: note_on channel=12 note=67 velocity=97 time=0.018656666666666665
EXTRACT: note_on channel=13 note=48 velocity=104 time=0
EXTRACT: note_off channel=12 note=67 velocity=97 time=0.2052233333333333
EXTRACT: note_off channel=13 note=48 velocity=104 time=0
EXTRACT: note_on channel=1 note=43 velocity=117 time=0.018656666666666665
EXTRACT: note_off channel=1 note=43 velocity=117 time=0.2052233333333333
EXTRACT: note_on channel=1 note=31 velocity=126 time=0.018656666666666665
EXTRACT: note_on channel=13 note=48 velocity=115 time=0
EXTRACT: note_off channel=1 note=31 velocity=126 time=0.09328333333333333
EXTRACT: note_off channel=13 note=48 velocity=115 time=0.11193999999999998
EXTRACT: note_on channel=13 note=48 velocity=122 time=0.018656666666666665
EXTRACT: note_off channel=13 note=48 velocity=122 time=0.2052233333333333
EXTRACT: note_on channel=1 note=31 velocity=116 time=0.018656666666666665
EXTRACT: note_on channel=13 note=48 velocity=110 time=0
EXTRACT: note_off channel=1 note=31 velocity=116 time=0.2052233333333333
EXTRACT: note_off channel=13 note=48 velocity=110 time=0
EXTRACT: note_on channel=1 note=36 velocity=123 time=0.018656666666666665
EXTRACT: note_on channel=13 note=48 velocity=118 time=0
EXTRACT: note_off channel=1 note=36 velocity=123 time=0.2052233333333333
EXTRACT: note_off channel=13 note=48 velocity=118 time=0
EXTRACT: note_on channel=13 note=48 velocity=113 time=0.018656666666666665
EXTRACT: note_off channel=13 note=48 velocity=113 time=0.2052233333333333
EXTRACT: note_on channel=1 note=36 velocity=122 time=0.018656666666666665
EXTRACT: note_on channel=13 note=48 velocity=115 time=0
EXTRACT: note_off channel=1 note=36 velocity=122 time=0.2052233333333333
EXTRACT: note_off channel=13 note=48 velocity=115 time=0
EXTRACT: note_on channel=1 note=24 velocity=121 time=0.24253666666666665
EXTRACT: note_on channel=1 note=36 velocity=115 time=0
EXTRACT: note_on channel=13 note=48 velocity=117 time=0
EXTRACT: note_off channel=1 note=36 velocity=115 time=0.2052233333333333
EXTRACT: note_off channel=1 note=24 velocity=121 time=0
EXTRACT: note_off channel=13 note=48 velocity=117 time=0
EXTRACT: sysex data=(126,127,9,1) time=2.2959360416666663
EXTRACT: sysex data=(65,16,66,18,64,0,127,127,66) time=0.09095125
INTERVALS105 - Madonna - Material Girl 1.mid
unison0
2m0
2M0
3m0
3M0
4m0
4M0
5m0
5M0
6m0
7m0
7M0