EXTRACT: program_change channel=0 program=33 time=0
EXTRACT: control_change channel=0 control=10 value=64 time=0
EXTRACT: program_change channel=1 program=25 time=0
EXTRACT: control_change channel=1 control=10 value=104 time=0
EXTRACT: program_change channel=2 program=17 time=0
EXTRACT: control_change channel=2 control=10 value=14 time=0
EXTRACT: program_change channel=3 program=18 time=0
EXTRACT: control_change channel=3 control=10 value=64 time=0
EXTRACT: program_change channel=5 program=30 time=0
EXTRACT: control_change channel=5 control=10 value=64 time=0
EXTRACT: program_change channel=6 program=26 time=0
EXTRACT: control_change channel=6 control=10 value=64 time=0
EXTRACT: program_change channel=7 program=18 time=0
EXTRACT: control_change channel=7 control=10 value=64 time=0
EXTRACT: program_change channel=8 program=119 time=0
EXTRACT: control_change channel=8 control=10 value=64 time=0
EXTRACT: program_change channel=9 program=0 time=0
EXTRACT: control_change channel=9 control=10 value=64 time=0
EXTRACT: control_change channel=9 control=0 value=0 time=0.020588224999999998
EXTRACT: control_change channel=9 control=32 value=0 time=0
EXTRACT: control_change channel=0 control=0 value=0 time=0.0235294
EXTRACT: control_change channel=0 control=7 value=127 time=0
EXTRACT: control_change channel=0 control=121 value=0 time=0
EXTRACT: control_change channel=0 control=11 value=100 time=0
EXTRACT: control_change channel=0 control=91 value=20 time=0
EXTRACT: control_change channel=0 control=93 value=0 time=0
EXTRACT: control_change channel=1 control=0 value=0 time=0
EXTRACT: control_change channel=1 control=7 value=127 time=0
EXTRACT: control_change channel=1 control=121 value=0 time=0
EXTRACT: control_change channel=1 control=11 value=96 time=0
EXTRACT: control_change channel=1 control=91 value=20 time=0
EXTRACT: control_change channel=1 control=93 value=20 time=0
EXTRACT: control_change channel=1 control=99 value=1 time=0
EXTRACT: control_change channel=1 control=98 value=100 time=0
EXTRACT: control_change channel=2 control=0 value=0 time=0
EXTRACT: control_change channel=2 control=7 value=127 time=0
EXTRACT: control_change channel=2 control=121 value=0 time=0
EXTRACT: control_change channel=2 control=11 value=88 time=0
EXTRACT: control_change channel=2 control=91 value=50 time=0
EXTRACT: control_change channel=2 control=93 value=127 time=0
EXTRACT: control_change channel=3 control=0 value=0 time=0
EXTRACT: control_change channel=3 control=7 value=127 time=0
EXTRACT: control_change channel=3 control=121 value=0 time=0
EXTRACT: control_change channel=3 control=11 value=127 time=0
EXTRACT: control_change channel=3 control=91 value=50 time=0
EXTRACT: control_change channel=3 control=93 value=127 time=0
EXTRACT: control_change channel=5 control=0 value=0 time=0
EXTRACT: control_change channel=5 control=7 value=127 time=0
EXTRACT: control_change channel=5 control=121 value=0 time=0
EXTRACT: control_change channel=5 control=11 value=112 time=0
EXTRACT: control_change channel=5 control=91 value=50 time=0
EXTRACT: control_change channel=5 control=93 value=50 time=0
EXTRACT: control_change channel=6 control=0 value=0 time=0
EXTRACT: control_change channel=6 control=7 value=127 time=0
EXTRACT: control_change channel=6 control=121 value=0 time=0
EXTRACT: control_change channel=6 control=11 value=100 time=0
EXTRACT: control_change channel=6 control=91 value=50 time=0
EXTRACT: control_change channel=6 control=93 value=127 time=0
EXTRACT: control_change channel=7 control=0 value=0 time=0
EXTRACT: control_change channel=7 control=7 value=127 time=0
EXTRACT: control_change channel=7 control=121 value=0 time=0
EXTRACT: control_change channel=7 control=11 value=127 time=0
EXTRACT: control_change channel=7 control=91 value=50 time=0
EXTRACT: control_change channel=7 control=93 value=127 time=0
EXTRACT: control_change channel=8 control=0 value=0 time=0
EXTRACT: control_change channel=8 control=7 value=127 time=0
EXTRACT: control_change channel=8 control=121 value=0 time=0
EXTRACT: control_change channel=8 control=11 value=100 time=0
EXTRACT: control_change channel=8 control=91 value=50 time=0
EXTRACT: control_change channel=8 control=93 value=0 time=0
EXTRACT: note_on channel=9 note=42 velocity=66 time=0
EXTRACT: control_change channel=9 control=7 value=127 time=0
EXTRACT: control_change channel=9 control=121 value=0 time=0
EXTRACT: control_change channel=9 control=11 value=127 time=0
EXTRACT: control_change channel=9 control=91 value=75 time=0
EXTRACT: control_change channel=9 control=93 value=0 time=0
EXTRACT: note_on channel=9 note=42 velocity=0 time=0.00588235
EXTRACT: control_change channel=1 control=6 value=72 time=0.038235275
EXTRACT: note_on channel=9 note=42 velocity=66 time=0.61764675
EXTRACT: note_on channel=9 note=42 velocity=0 time=0.00588235
EXTRACT: note_on channel=9 note=42 velocity=66 time=0.69999965
EXTRACT: note_on channel=9 note=42 velocity=0 time=0.00588235
EXTRACT: note_on channel=9 note=42 velocity=66 time=0.69999965
EXTRACT: note_on channel=9 note=42 velocity=0 time=0.00588235
EXTRACT: pitchwheel channel=4 pitch=0 time=0.59411735
EXTRACT: pitchwheel channel=10 pitch=0 time=0
EXTRACT: note_on channel=1 note=52 velocity=116 time=0.05294115
EXTRACT: note_on channel=1 note=56 velocity=100 time=0.014705875
EXTRACT: note_on channel=1 note=59 velocity=70 time=0.0117647
EXTRACT: note_on channel=1 note=63 velocity=74 time=0.014705875
EXTRACT: note_on channel=1 note=71 velocity=74 time=0.0117647
EXTRACT: control_change channel=1 control=64 value=127 time=0.126470525
EXTRACT: note_on channel=1 note=56 velocity=0 time=0.0941176
EXTRACT: note_on channel=1 note=59 velocity=0 time=0.020588224999999998
EXTRACT: note_on channel=1 note=63 velocity=0 time=0.002941175
EXTRACT: note_on channel=1 note=56 velocity=62 time=0.097058775
EXTRACT: note_on channel=1 note=59 velocity=42 time=0.008823524999999999
EXTRACT: note_on channel=1 note=63 velocity=44 time=0.0117647
EXTRACT: note_on channel=1 note=52 velocity=0 time=0.0117647
EXTRACT: note_on channel=1 note=71 velocity=0 time=0.05294115
EXTRACT: note_on channel=1 note=56 velocity=0 time=0.026470575
EXTRACT: note_on channel=1 note=59 velocity=0 time=0.014705875
EXTRACT: note_on channel=1 note=63 velocity=0 time=0.002941175
EXTRACT: note_on channel=1 note=71 velocity=97 time=0.0470588
EXTRACT: note_on channel=1 note=56 velocity=76 time=0.014705875
EXTRACT: note_on channel=1 note=59 velocity=92 time=0.002941175
EXTRACT: note_on channel=1 note=63 velocity=87 time=0
EXTRACT: note_on channel=1 note=71 velocity=0 time=0.420588025
EXTRACT: note_on channel=1 note=56 velocity=0 time=0.002941175
EXTRACT: note_on channel=1 note=63 velocity=0 time=0.002941175
EXTRACT: note_on channel=1 note=59 velocity=0 time=0.008823524999999999
EXTRACT: note_on channel=1 note=59 velocity=96 time=0.085294075
EXTRACT: note_on channel=1 note=56 velocity=87 time=0.002941175
EXTRACT: note_on channel=1 note=63 velocity=87 time=0.002941175
EXTRACT: note_on channel=1 note=52 velocity=63 time=0.00588235
EXTRACT: note_on channel=1 note=63 velocity=0 time=0.420588025
EXTRACT: note_on channel=1 note=56 velocity=0 time=0
EXTRACT: note_on channel=1 note=59 velocity=0 time=0.002941175
EXTRACT: note_on channel=1 note=52 velocity=0 time=0.00588235
EXTRACT: note_on channel=1 note=63 velocity=78 time=0.25588222499999996
EXTRACT: note_on channel=1 note=52 velocity=95 time=0.008823524999999999
EXTRACT: note_on channel=1 note=56 velocity=81 time=0.002941175
EXTRACT: note_on channel=1 note=71 velocity=89 time=0.002941175
EXTRACT: note_on channel=1 note=59 velocity=99 time=0.002941175
EXTRACT: note_on channel=1 note=63 velocity=0 time=0.179411675
EXTRACT: note_on channel=1 note=56 velocity=0 time=0.014705875
EXTRACT: note_on channel=1 note=59 velocity=0 time=0.0117647
EXTRACT: note_on channel=1 note=56 velocity=50 time=0.13235287499999998
EXTRACT: note_on channel=1 note=63 velocity=48 time=0.0117647
EXTRACT: note_on channel=1 note=59 velocity=64 time=0.002941175
EXTRACT: note_on channel=1 note=52 velocity=0 time=0.06470585
EXTRACT: note_on channel=1 note=71 velocity=0 time=0.017647049999999997
EXTRACT: note_on channel=1 note=56 velocity=0 time=0.02941175
EXTRACT: note_on channel=1 note=63 velocity=0 time=0.008823524999999999
EXTRACT: note_on channel=1 note=59 velocity=0 time=0.014705875
EXTRACT: note_on channel=1 note=59 velocity=92 time=0.026470575
EXTRACT: note_on channel=1 note=63 velocity=87 time=0.002941175
EXTRACT: note_on channel=1 note=56 velocity=76 time=0
EXTRACT: note_on channel=1 note=71 velocity=97 time=0.014705875
EXTRACT: note_on channel=1 note=63 velocity=0 time=0.4117645
EXTRACT: note_on channel=1 note=56 velocity=0 time=0.002941175
EXTRACT: control_change channel=1 control=64 value=0 time=0.002941175
EXTRACT: note_on channel=1 note=59 velocity=0 time=0
EXTRACT: note_on channel=1 note=71 velocity=0 time=0.020588224999999998
EXTRACT: note_on channel=1 note=73 velocity=81 time=0.07058819999999999
EXTRACT: note_on channel=1 note=63 velocity=81 time=0
EXTRACT: note_on channel=1 note=54 velocity=110 time=0.002941175
EXTRACT: note_on channel=1 note=58 velocity=99 time=0.00588235
EXTRACT: note_on channel=1 note=59 velocity=71 time=0.0117647
EXTRACT: control_change channel=1 control=64 value=127 time=0.332352775
EXTRACT: note_on channel=1 note=73 velocity=0 time=0.07058819999999999
EXTRACT: note_on channel=1 note=63 velocity=0 time=0.002941175
EXTRACT: note_on channel=1 note=54 velocity=0 time=0.002941175
EXTRACT: note_on channel=1 note=58 velocity=0 time=0.008823524999999999
EXTRACT: note_on channel=1 note=59 velocity=0 time=0.017647049999999997
EXTRACT: note_on channel=1 note=59 velocity=92 time=0.079411725
EXTRACT: note_on channel=1 note=63 velocity=87 time=0.002941175
EXTRACT: note_on channel=1 note=58 velocity=76 time=0.008823524999999999
EXTRACT: note_on channel=1 note=73 velocity=97 time=0.002941175
EXTRACT: note_on channel=1 note=63 velocity=0 time=0.4117645
EXTRACT: note_on channel=1 note=59 velocity=0 time=0.008823524999999999
EXTRACT: note_on channel=1 note=58 velocity=0 time=0.002941175
EXTRACT: note_on channel=1 note=73 velocity=0 time=0.014705875
EXTRACT: note_on channel=1 note=63 velocity=87 time=0.079411725
EXTRACT: note_on channel=1 note=58 velocity=87 time=0.008823524999999999
EXTRACT: note_on channel=1 note=54 velocity=63 time=0
EXTRACT: note_on channel=1 note=59 velocity=96 time=0
EXTRACT: note_on channel=1 note=63 velocity=0 time=0.41764684999999996
EXTRACT: note_on channel=1 note=58 velocity=0 time=0.0117647
EXTRACT: note_on channel=1 note=54 velocity=0 time=0
EXTRACT: note_on channel=1 note=59 velocity=0 time=0.00588235
EXTRACT: note_on channel=1 note=59 velocity=54 time=0.08235289999999999
EXTRACT: note_on channel=1 note=73 velocity=61 time=0.002941175
EXTRACT: note_on channel=1 note=58 velocity=49 time=0.00588235
EXTRACT: note_on channel=1 note=63 velocity=52 time=0.002941175
EXTRACT: note_on channel=1 note=73 velocity=0 time=0.12058817499999999
EXTRACT: note_on channel=1 note=59 velocity=0 time=0.008823524999999999
EXTRACT: note_on channel=1 note=58 velocity=0 time=0
EXTRACT: note_on channel=1 note=63 velocity=0 time=0
EXTRACT: note_on channel=1 note=73 velocity=85 time=0.035294099999999995
EXTRACT: note_on channel=1 note=54 velocity=90 time=0.00588235
EXTRACT: note_on channel=1 note=59 velocity=95 time=0
EXTRACT: note_on channel=1 note=58 velocity=77 time=0.002941175
EXTRACT: note_on channel=1 note=63 velocity=75 time=0.002941175
EXTRACT: note_on channel=1 note=54 velocity=0 time=0.420588025
EXTRACT: note_on channel=1 note=58 velocity=0 time=0.002941175
EXTRACT: note_on channel=1 note=73 velocity=0 time=0.002941175
EXTRACT: note_on channel=1 note=63 velocity=0 time=0
EXTRACT: note_on channel=1 note=59 velocity=0 time=0.002941175
EXTRACT: note_on channel=1 note=58 velocity=76 time=0.08235289999999999
EXTRACT: note_on channel=1 note=63 velocity=87 time=0
EXTRACT: note_on channel=1 note=73 velocity=97 time=0.00588235
EXTRACT: note_on channel=1 note=59 velocity=92 time=0.014705875
EXTRACT: note_on channel=1 note=63 velocity=0 time=0.40588215
EXTRACT: note_on channel=1 note=58 velocity=0 time=0
EXTRACT: control_change channel=1 control=64 value=0 time=0.0117647
EXTRACT: note_on channel=1 note=73 velocity=0 time=0.00588235
EXTRACT: note_on channel=1 note=59 velocity=0 time=0.0117647
EXTRACT: note_on channel=1 note=71 velocity=81 time=0.073529375
EXTRACT: note_on channel=1 note=63 velocity=81 time=0.002941175
EXTRACT: note_on channel=1 note=56 velocity=109 time=0.0117647
EXTRACT: note_on channel=1 note=52 velocity=119 time=0.002941175
EXTRACT: note_on channel=1 note=59 velocity=77 time=0.002941175
EXTRACT: control_change channel=1 control=64 value=127 time=0.117647
EXTRACT: note_on channel=1 note=63 velocity=0 time=0.12058817499999999
EXTRACT: note_on channel=1 note=56 velocity=0 time=0.014705875
EXTRACT: note_on channel=1 note=59 velocity=0 time=0.0117647
EXTRACT: note_on channel=1 note=56 velocity=60 time=0.079411725
EXTRACT: note_on channel=1 note=59 velocity=40 time=0.00588235
EXTRACT: note_on channel=1 note=63 velocity=41 time=0.002941175
EXTRACT: note_on channel=1 note=71 velocity=0 time=0.049999974999999995
EXTRACT: note_on channel=1 note=52 velocity=0 time=0.020588224999999998
EXTRACT: note_on channel=1 note=56 velocity=0 time=0.032352925
EXTRACT: note_on channel=1 note=63 velocity=0 time=0.00588235
EXTRACT: note_on channel=1 note=59 velocity=0 time=0.00588235
EXTRACT: note_on channel=1 note=63 velocity=87 time=0.05294115
EXTRACT: note_on channel=1 note=59 velocity=92 time=0.002941175
EXTRACT: note_on channel=1 note=56 velocity=76 time=0
EXTRACT: note_on channel=1 note=71 velocity=97 time=0
EXTRACT: note_on channel=1 note=63 velocity=0 time=0.4235292
EXTRACT: note_on channel=1 note=56 velocity=0 time=0.002941175
EXTRACT: note_on channel=1 note=59 velocity=0 time=0.008823524999999999
EXTRACT: note_on channel=1 note=71 velocity=0 time=0.002941175
EXTRACT: note_on channel=1 note=63 velocity=87 time=0.07647055
EXTRACT: note_on channel=1 note=59 velocity=96 time=0.008823524999999999
EXTRACT: note_on channel=1 note=56 velocity=87 time=0.008823524999999999
EXTRACT: note_on channel=1 note=52 velocity=63 time=0.002941175
EXTRACT: note_on channel=1 note=63 velocity=0 time=0.402940975
EXTRACT: note_on channel=1 note=59 velocity=0 time=0.020588224999999998
EXTRACT: note_on channel=1 note=56 velocity=0 time=0
EXTRACT: note_on channel=1 note=52 velocity=0 time=0.002941175
EXTRACT: note_on channel=1 note=59 velocity=99 time=0.267646925
EXTRACT: note_on channel=1 note=52 velocity=95 time=0
EXTRACT: note_on channel=1 note=71 velocity=89 time=0.002941175
EXTRACT: note_on channel=1 note=56 velocity=81 time=0.002941175
EXTRACT: note_on channel=1 note=63 velocity=78 time=0.002941175
EXTRACT: note_on channel=1 note=56 velocity=0 time=0.138235225
EXTRACT: note_on channel=1 note=59 velocity=0 time=0.002941175
EXTRACT: note_on channel=1 note=63 velocity=0 time=0
EXTRACT: note_on channel=1 note=56 velocity=50 time=0.0235294
EXTRACT: note_on channel=1 note=59 velocity=64 time=0.008823524999999999
EXTRACT: note_on channel=1 note=63 velocity=48 time=0.00588235
EXTRACT: note_on channel=1 note=56 velocity=0 time=0.11176465
EXTRACT: note_on channel=1 note=63 velocity=0 time=0.0117647
EXTRACT: note_on channel=1 note=59 velocity=0 time=0.00588235
EXTRACT: note_on channel=1 note=63 velocity=48 time=0.038235275
EXTRACT: note_on channel=1 note=56 velocity=50 time=0.00588235
EXTRACT: note_on channel=1 note=59 velocity=64 time=0.002941175
EXTRACT: note_on channel=1 note=52 velocity=0 time=0.061764675
EXTRACT: note_on channel=1 note=71 velocity=0 time=0.014705875
EXTRACT: note_on channel=1 note=63 velocity=0 time=0.038235275
EXTRACT: note_on channel=1 note=56 velocity=0 time=0.008823524999999999
EXTRACT: note_on channel=1 note=59 velocity=0 time=0.0117647
EXTRACT: note_on channel=1 note=59 velocity=92 time=0.020588224999999998
EXTRACT: note_on channel=1 note=63 velocity=87 time=0.00588235
EXTRACT: note_on channel=1 note=56 velocity=76 time=0.00588235
EXTRACT: note_on channel=1 note=71 velocity=97 time=0.00588235
EXTRACT: control_change channel=1 control=64 value=0 time=0.3176469
EXTRACT: note_on channel=1 note=63 velocity=0 time=0.097058775
EXTRACT: note_on channel=1 note=71 velocity=0 time=0.0235294
EXTRACT: note_on channel=1 note=71 velocity=102 time=0.085294075
EXTRACT: note_on channel=1 note=52 velocity=85 time=0
EXTRACT: note_on channel=1 note=54 velocity=52 time=0.352941
EXTRACT: note_on channel=1 note=71 velocity=0 time=0.12058817499999999
EXTRACT: note_on channel=1 note=52 velocity=0 time=0.02941175
EXTRACT: note_on channel=1 note=70 velocity=107 time=0.026470575
EXTRACT: note_on channel=1 note=52 velocity=85 time=0
EXTRACT: note_on channel=1 note=54 velocity=0 time=0.079411725
EXTRACT: note_on channel=1 note=70 velocity=0 time=0.3882351
EXTRACT: note_on channel=1 note=52 velocity=0 time=0.0235294
EXTRACT: note_on channel=1 note=52 velocity=78 time=0.038235275
EXTRACT: note_on channel=1 note=66 velocity=96 time=0
EXTRACT: note_on channel=1 note=59 velocity=0 time=0.68823495
EXTRACT: note_on channel=1 note=59 velocity=69 time=0.017647049999999997
EXTRACT: note_on channel=1 note=49 velocity=55 time=0.705882
EXTRACT: note_on channel=1 note=66 velocity=0 time=0.267646925
EXTRACT: note_on channel=1 note=59 velocity=0 time=0.038235275
EXTRACT: note_on channel=1 note=56 velocity=0 time=0.002941175
EXTRACT: note_on channel=1 note=52 velocity=0 time=0.00588235
EXTRACT: note_on channel=1 note=54 velocity=86 time=0.032352925
EXTRACT: note_on channel=1 note=49 velocity=0 time=0.002941175
EXTRACT: note_on channel=1 note=61 velocity=86 time=0
EXTRACT: note_on channel=1 note=66 velocity=86 time=0
EXTRACT: note_on channel=1 note=46 velocity=86 time=0.00588235
EXTRACT: note_on channel=1 note=66 velocity=0 time=0.7411761
EXTRACT: note_on channel=1 note=46 velocity=0 time=0.020588224999999998
EXTRACT: note_on channel=1 note=54 velocity=0 time=0.002941175
EXTRACT: note_on channel=1 note=61 velocity=0 time=0.008823524999999999
EXTRACT: note_on channel=1 note=47 velocity=86 time=0.2705881
EXTRACT: note_on channel=1 note=63 velocity=86 time=0.002941175
EXTRACT: note_on channel=1 note=61 velocity=86 time=0.002941175
EXTRACT: note_on channel=1 note=54 velocity=86 time=0.002941175
EXTRACT: note_on channel=1 note=66 velocity=86 time=0
EXTRACT: note_on channel=1 note=66 velocity=0 time=1.4382345749999998
EXTRACT: note_on channel=1 note=63 velocity=0 time=0
EXTRACT: note_on channel=1 note=61 velocity=0 time=0.008823524999999999
EXTRACT: note_on channel=1 note=47 velocity=0 time=0.00588235
EXTRACT: note_on channel=1 note=54 velocity=0 time=0.017647049999999997
EXTRACT: note_on channel=1 note=61 velocity=86 time=0.28823515
EXTRACT: note_on channel=1 note=54 velocity=86 time=0.002941175
EXTRACT: note_on channel=1 note=46 velocity=86 time=0.00588235
EXTRACT: note_on channel=1 note=66 velocity=86 time=0.00588235
EXTRACT: note_on channel=1 note=46 velocity=0 time=0.72352905
EXTRACT: note_on channel=1 note=54 velocity=0 time=0.032352925
EXTRACT: note_on channel=1 note=66 velocity=0 time=0.0117647
EXTRACT: note_on channel=1 note=61 velocity=0 time=0.0117647
EXTRACT: note_on channel=1 note=63 velocity=86 time=0.2588234
EXTRACT: note_on channel=1 note=44 velocity=86 time=0
EXTRACT: note_on channel=1 note=59 velocity=86 time=0.008823524999999999
EXTRACT: note_on channel=1 note=54 velocity=86 time=0.00588235
EXTRACT: note_on channel=1 note=51 velocity=86 time=0.002941175
EXTRACT: note_on channel=1 note=44 velocity=0 time=1.4029404749999999
EXTRACT: note_on channel=1 note=51 velocity=0 time=0.017647049999999997
EXTRACT: note_on channel=1 note=59 velocity=0 time=0.014705875
EXTRACT: note_on channel=1 note=63 velocity=0 time=0.014705875
EXTRACT: note_on channel=1 note=54 velocity=0 time=0.014705875
EXTRACT: note_on channel=1 note=61 velocity=86 time=0.285293975
EXTRACT: note_on channel=1 note=54 velocity=86 time=0
EXTRACT: note_on channel=1 note=66 velocity=86 time=0.00588235
EXTRACT: note_on channel=1 note=46 velocity=86 time=0.00588235
EXTRACT: note_on channel=1 note=66 velocity=0 time=0.7441172749999999
EXTRACT: note_on channel=1 note=46 velocity=0 time=0.017647049999999997
EXTRACT: note_on channel=1 note=54 velocity=0 time=0.002941175
EXTRACT: note_on channel=1 note=61 velocity=0 time=0.00588235
EXTRACT: note_on channel=1 note=66 velocity=86 time=0.27647045
EXTRACT: note_on channel=1 note=63 velocity=86 time=0
EXTRACT: note_on channel=1 note=61 velocity=86 time=0.0117647
EXTRACT: note_on channel=1 note=47 velocity=86 time=0.002941175
EXTRACT: note_on channel=1 note=54 velocity=86 time=0
EXTRACT: note_on channel=1 note=66 velocity=0 time=1.420587525
EXTRACT: note_on channel=1 note=63 velocity=0 time=0.0117647
EXTRACT: note_on channel=1 note=61 velocity=0 time=0.014705875
EXTRACT: note_on channel=1 note=47 velocity=0 time=0.014705875
EXTRACT: note_on channel=1 note=54 velocity=0 time=0.0117647
EXTRACT: note_on channel=1 note=61 velocity=86 time=0.27647045
EXTRACT: note_on channel=1 note=54 velocity=86 time=0.002941175
EXTRACT: note_on channel=1 note=46 velocity=86 time=0.002941175
EXTRACT: note_on channel=1 note=66 velocity=86 time=0.52352915
EXTRACT: note_on channel=1 note=46 velocity=0 time=0.31176455
EXTRACT: note_on channel=1 note=54 velocity=0 time=0.035294099999999995
EXTRACT: note_on channel=1 note=61 velocity=0 time=0.0235294
EXTRACT: note_on channel=1 note=54 velocity=86 time=0.161764625
EXTRACT: note_on channel=1 note=44 velocity=86 time=0.008823524999999999
EXTRACT: note_on channel=1 note=51 velocity=86 time=0.002941175
EXTRACT: note_on channel=1 note=59 velocity=86 time=0
EXTRACT: note_on channel=1 note=44 velocity=0 time=1.4176463499999998
EXTRACT: note_on channel=1 note=51 velocity=0 time=0.002941175
EXTRACT: note_on channel=1 note=66 velocity=0 time=0.020588224999999998
EXTRACT: note_on channel=1 note=59 velocity=0 time=0.002941175
EXTRACT: note_on channel=1 note=54 velocity=0 time=0.0117647
EXTRACT: note_on channel=1 note=66 velocity=86 time=0.291176325
EXTRACT: note_on channel=1 note=61 velocity=86 time=0
EXTRACT: note_on channel=1 note=46 velocity=86 time=0.008823524999999999
EXTRACT: note_on channel=1 note=54 velocity=86 time=0.002941175
EXTRACT: note_on channel=1 note=61 velocity=0 time=0.502940925
EXTRACT: note_on channel=1 note=66 velocity=0 time=0.00588235
EXTRACT: note_on channel=1 note=61 velocity=76 time=0.0117647
EXTRACT: note_on channel=1 note=66 velocity=76 time=0.00588235
EXTRACT: note_on channel=1 note=46 velocity=0 time=0.214705775
EXTRACT: note_on channel=1 note=66 velocity=0 time=0.002941175
EXTRACT: note_on channel=1 note=61 velocity=0 time=0.0117647
EXTRACT: note_on channel=1 note=54 velocity=0 time=0.002941175
EXTRACT: note_on channel=1 note=47 velocity=86 time=0.28823515
EXTRACT: note_on channel=1 note=49 velocity=46 time=0.002941175
EXTRACT: note_on channel=1 note=66 velocity=86 time=0.002941175
EXTRACT: note_on channel=1 note=61 velocity=86 time=0.014705875
EXTRACT: note_on channel=1 note=54 velocity=86 time=0
EXTRACT: note_on channel=1 note=66 velocity=0 time=1.420587525
EXTRACT: note_on channel=1 note=49 velocity=0 time=0.00588235
EXTRACT: note_on channel=1 note=47 velocity=0 time=0.017647049999999997
EXTRACT: note_on channel=1 note=61 velocity=0 time=0.00588235
EXTRACT: note_on channel=1 note=54 velocity=0 time=0.0235294
EXTRACT: note_on channel=1 note=61 velocity=86 time=0.27647045
EXTRACT: note_on channel=1 note=46 velocity=86 time=0.00588235
EXTRACT: note_on channel=1 note=54 velocity=86 time=0.00588235
EXTRACT: note_on channel=1 note=66 velocity=86 time=0.002941175
EXTRACT: note_on channel=1 note=46 velocity=0 time=0.75882315
EXTRACT: note_on channel=1 note=54 velocity=0 time=0.0470588
EXTRACT: note_on channel=1 note=66 velocity=0 time=0.002941175
EXTRACT: note_on channel=1 note=61 velocity=0 time=0.0117647
EXTRACT: note_on channel=1 note=59 velocity=86 time=0.21764694999999998
EXTRACT: note_on channel=1 note=51 velocity=86 time=0.002941175
EXTRACT: note_on channel=1 note=44 velocity=86 time=0.0117647
EXTRACT: note_on channel=1 note=54 velocity=86 time=0.002941175
EXTRACT: note_on channel=1 note=63 velocity=86 time=0.002941175
EXTRACT: note_on channel=1 note=51 velocity=0 time=1.4029404749999999
EXTRACT: note_on channel=1 note=44 velocity=0 time=0.0117647
EXTRACT: note_on channel=1 note=59 velocity=0 time=0.008823524999999999
EXTRACT: note_on channel=1 note=54 velocity=0 time=0.041176449999999996
EXTRACT: note_on channel=1 note=63 velocity=0 time=0.00588235
EXTRACT: note_on channel=1 note=61 velocity=86 time=0.28235279999999996
EXTRACT: note_on channel=1 note=46 velocity=86 time=0.00588235
EXTRACT: note_on channel=1 note=54 velocity=86 time=0
EXTRACT: note_on channel=1 note=54 velocity=66 time=0.5147056249999999
EXTRACT: note_on channel=1 note=46 velocity=0 time=0.002941175
EXTRACT: note_on channel=1 note=54 velocity=0 time=0.002941175
EXTRACT: note_on channel=1 note=46 velocity=66 time=0.00588235
EXTRACT: note_on channel=1 note=66 velocity=86 time=0.002941175
EXTRACT: note_on channel=1 note=61 velocity=0 time=0.2470587
EXTRACT: note_on channel=1 note=46 velocity=0 time=0.008823524999999999
EXTRACT: note_on channel=1 note=54 velocity=0 time=0.002941175
EXTRACT: note_on channel=1 note=54 velocity=86 time=0.25588222499999996
EXTRACT: note_on channel=1 note=47 velocity=86 time=0
EXTRACT: note_on channel=1 note=61 velocity=86 time=0.014705875
EXTRACT: note_on channel=1 note=63 velocity=46 time=0.002941175
EXTRACT: note_on channel=1 note=63 velocity=0 time=1.4441169249999999
EXTRACT: note_on channel=1 note=47 velocity=0 time=0
EXTRACT: note_on channel=1 note=61 velocity=0 time=0.002941175
EXTRACT: note_on channel=1 note=54 velocity=0 time=0.00588235
EXTRACT: note_on channel=1 note=66 velocity=0 time=0.002941175
EXTRACT: note_on channel=1 note=54 velocity=86 time=0.29999985
EXTRACT: note_on channel=1 note=61 velocity=86 time=0.002941175
EXTRACT: note_on channel=1 note=46 velocity=86 time=0.002941175
EXTRACT: note_on channel=1 note=66 velocity=86 time=0.53529385
EXTRACT: note_on channel=1 note=46 velocity=0 time=0.29999985
EXTRACT: note_on channel=1 note=54 velocity=0 time=0.032352925
EXTRACT: note_on channel=1 note=61 velocity=0 time=0.032352925
EXTRACT: note_on channel=1 note=59 velocity=86 time=0.144117575
EXTRACT: note_on channel=1 note=54 velocity=86 time=0.008823524999999999
EXTRACT: note_on channel=1 note=51 velocity=86 time=0.0117647
EXTRACT: note_on channel=1 note=44 velocity=86 time=0
EXTRACT: control_change channel=2 control=1 value=2 time=1.1432921875
EXTRACT: control_change channel=2 control=11 value=22 time=0.1737804125
EXTRACT: note_on channel=1 note=44 velocity=0 time=0.0457316875
EXTRACT: note_on channel=1 note=51 velocity=0 time=0
EXTRACT: note_on channel=1 note=59 velocity=0 time=0.0030487791666666667
EXTRACT: note_on channel=1 note=54 velocity=0 time=0.033536570833333335
EXTRACT: note_on channel=1 note=66 velocity=0 time=0
EXTRACT: note_on channel=1 note=61 velocity=86 time=0.06097558333333333
EXTRACT: note_on channel=2 note=78 velocity=35 time=0
EXTRACT: note_on channel=2 note=73 velocity=35 time=0
EXTRACT: note_on channel=1 note=46 velocity=86 time=0.002941175
EXTRACT: note_on channel=1 note=54 velocity=86 time=0
EXTRACT: note_on channel=2 note=82 velocity=35 time=0
EXTRACT: note_on channel=1 note=54 velocity=66 time=0.5147056249999999
EXTRACT: note_on channel=1 note=46 velocity=0 time=0.002941175
EXTRACT: note_on channel=1 note=54 velocity=0 time=0.002941175
EXTRACT: note_on channel=1 note=46 velocity=66 time=0.00588235
EXTRACT: note_on channel=1 note=66 velocity=86 time=0.002941175
EXTRACT: note_on channel=1 note=61 velocity=0 time=0.2470587
EXTRACT: note_on channel=1 note=46 velocity=0 time=0.008823524999999999
EXTRACT: note_on channel=1 note=54 velocity=0 time=0.002941175
EXTRACT: control_change channel=2 control=11 value=34 time=0.017647049999999997
EXTRACT: note_on channel=1 note=47 velocity=86 time=0.238235175
EXTRACT: note_on channel=1 note=54 velocity=79 time=0
EXTRACT: note_on channel=2 note=83 velocity=44 time=0.008823524999999999
EXTRACT: note_on channel=2 note=75 velocity=44 time=0
EXTRACT: note_on channel=1 note=61 velocity=86 time=0.00588235
EXTRACT: note_on channel=1 note=63 velocity=46 time=0.002941175
EXTRACT: note_on channel=2 note=82 velocity=0 time=0.002941175
EXTRACT: note_on channel=2 note=73 velocity=0 time=0.041176449999999996
EXTRACT: note_on channel=1 note=54 velocity=0 time=0.6588231999999999
EXTRACT: note_on channel=1 note=47 velocity=0 time=0
EXTRACT: note_on channel=1 note=47 velocity=66 time=0.002941175
EXTRACT: note_on channel=1 note=54 velocity=60 time=0
EXTRACT: control_change channel=2 control=11 value=48 time=0.061764675
EXTRACT: note_on channel=1 note=66 velocity=0 time=0.238235175
EXTRACT: note_on channel=1 note=66 velocity=86 time=0.0235294
EXTRACT: control_change channel=2 control=1 value=2 time=0.1529411
EXTRACT: control_change channel=2 control=1 value=2 time=0.12058817499999999
EXTRACT: note_on channel=1 note=47 velocity=0 time=0.07058819999999999
EXTRACT: note_on channel=1 note=54 velocity=0 time=0
EXTRACT: note_on channel=1 note=47 velocity=66 time=0.020588224999999998
EXTRACT: note_on channel=1 note=54 velocity=60 time=0
EXTRACT: control_change channel=2 control=1 value=3 time=0.032352925
EXTRACT: control_change channel=2 control=1 value=5 time=0.12058817499999999
EXTRACT: note_on channel=1 note=66 velocity=0 time=0.0941176
EXTRACT: note_on channel=1 note=63 velocity=0 time=0.014705875
EXTRACT: note_on channel=1 note=61 velocity=0 time=0.002941175
EXTRACT: control_change channel=2 control=1 value=6 time=0.0117647
EXTRACT: note_on channel=1 note=54 velocity=0 time=0.008823524999999999
EXTRACT: note_on channel=1 note=47 velocity=0 time=0
EXTRACT: note_on channel=1 note=54 velocity=86 time=0.07647055
EXTRACT: note_on channel=2 note=73 velocity=55 time=0
EXTRACT: note_on channel=1 note=61 velocity=86 time=0.002941175
EXTRACT: note_on channel=1 note=46 velocity=86 time=0.002941175
EXTRACT: note_on channel=2 note=82 velocity=55 time=0
EXTRACT: note_on channel=2 note=75 velocity=0 time=0.026470575
EXTRACT: control_change channel=2 control=1 value=7 time=0.002941175
EXTRACT: note_on channel=2 note=83 velocity=0 time=0.00588235
EXTRACT: control_change channel=2 control=11 value=61 time=0
EXTRACT: control_change channel=2 control=1 value=8 time=0.117647
EXTRACT: control_change channel=2 control=1 value=10 time=0.12058817499999999
EXTRACT: control_change channel=2 control=1 value=11 time=0.12352935
EXTRACT: control_change channel=2 control=1 value=12 time=0.12058817499999999
EXTRACT: note_on channel=1 note=66 velocity=86 time=0.017647049999999997
EXTRACT: control_change channel=2 control=1 value=14 time=0.1058823
EXTRACT: control_change channel=2 control=1 value=15 time=0.12058817499999999
EXTRACT: note_on channel=1 note=46 velocity=0 time=0.073529375
EXTRACT: note_on channel=1 note=54 velocity=0 time=0.032352925
EXTRACT: control_change channel=2 control=1 value=16 time=0.017647049999999997
EXTRACT: note_on channel=1 note=61 velocity=0 time=0.014705875
EXTRACT: control_change channel=2 control=1 value=17 time=0.1058823
EXTRACT: note_on channel=1 note=59 velocity=86 time=0.038235275
EXTRACT: note_on channel=2 note=71 velocity=51 time=0.00588235
EXTRACT: note_on channel=1 note=54 velocity=86 time=0.002941175
EXTRACT: note_on channel=2 note=80 velocity=51 time=0
EXTRACT: note_on channel=2 note=82 velocity=0 time=0.00588235
EXTRACT: control_change channel=2 control=11 value=74 time=0.002941175
EXTRACT: note_on channel=1 note=51 velocity=86 time=0.002941175
EXTRACT: note_on channel=1 note=44 velocity=86 time=0
EXTRACT: note_on channel=2 note=73 velocity=0 time=0.002941175
EXTRACT: control_change channel=2 control=1 value=19 time=0.061764675
EXTRACT: control_change channel=2 control=1 value=20 time=0.12058817499999999
EXTRACT: control_change channel=2 control=1 value=21 time=0.12352935
EXTRACT: note_on channel=9 note=40 velocity=105 time=0.035294099999999995
EXTRACT: control_change channel=2 control=1 value=23 time=0.085294075
EXTRACT: note_on channel=9 note=40 velocity=0 time=0.049999974999999995
EXTRACT: control_change channel=2 control=1 value=24 time=0.073529375
EXTRACT: control_change channel=2 control=1 value=25 time=0.12058817499999999
EXTRACT: note_on channel=9 note=40 velocity=102 time=0.0235294
EXTRACT: control_change channel=2 control=1 value=26 time=0.09999994999999999
EXTRACT: note_on channel=9 note=40 velocity=0 time=0.041176449999999996
EXTRACT: control_change channel=2 control=1 value=28 time=0.079411725
EXTRACT: control_change channel=2 control=11 value=88 time=0.1058823
EXTRACT: control_change channel=2 control=1 value=29 time=0.017647049999999997
EXTRACT: note_on channel=7 note=85 velocity=64 time=0
EXTRACT: note_on channel=9 note=40 velocity=105 time=0.008823524999999999
EXTRACT: note_on channel=2 note=36 velocity=55 time=0.026470575
EXTRACT: note_on channel=7 note=87 velocity=64 time=0
EXTRACT: note_on channel=7 note=85 velocity=0 time=0.0470588
EXTRACT: note_on channel=9 note=40 velocity=0 time=0.017647049999999997
EXTRACT: control_change channel=2 control=1 value=30 time=0.020588224999999998
EXTRACT: note_on channel=2 note=38 velocity=42 time=0.0117647
EXTRACT: note_on channel=9 note=40 velocity=97 time=0.05294115
EXTRACT: note_on channel=2 note=40 velocity=44 time=0.026470575
EXTRACT: control_change channel=2 control=1 value=32 time=0.032352925
EXTRACT: note_on channel=2 note=36 velocity=0 time=0.002941175
EXTRACT: note_on channel=2 note=41 velocity=44 time=0.0235294
EXTRACT: note_on channel=2 note=38 velocity=0 time=0.002941175
EXTRACT: note_on channel=9 note=40 velocity=0 time=0.044117625
EXTRACT: note_on channel=2 note=43 velocity=45 time=0.00588235
EXTRACT: note_on channel=2 note=40 velocity=0 time=0.02941175
EXTRACT: note_on channel=7 note=85 velocity=64 time=0
EXTRACT: note_on channel=9 note=41 velocity=109 time=0.008823524999999999
EXTRACT: control_change channel=2 control=1 value=33 time=0.002941175
EXTRACT: note_on channel=2 note=45 velocity=47 time=0.00588235
EXTRACT: note_on channel=7 note=87 velocity=0 time=0.014705875
EXTRACT: note_on channel=2 note=41 velocity=0 time=0.008823524999999999
EXTRACT: note_on channel=2 note=47 velocity=48 time=0.017647049999999997
EXTRACT: note_on channel=2 note=43 velocity=0 time=0.026470575
EXTRACT: note_on channel=2 note=48 velocity=50 time=0.014705875
EXTRACT: note_on channel=2 note=45 velocity=0 time=0.017647049999999997
EXTRACT: control_change channel=2 control=1 value=34 time=0.017647049999999997
EXTRACT: note_on channel=2 note=50 velocity=52 time=0.002941175
EXTRACT: note_on channel=2 note=47 velocity=0 time=0.014705875
EXTRACT: note_on channel=7 note=85 velocity=0 time=0.008823524999999999
EXTRACT: note_on channel=2 note=52 velocity=54 time=0.002941175
EXTRACT: note_on channel=2 note=48 velocity=0 time=0.014705875
EXTRACT: note_on channel=5 note=61 velocity=80 time=0
EXTRACT: note_on channel=7 note=82 velocity=64 time=0.002941175
EXTRACT: note_on channel=2 note=53 velocity=56 time=0.0117647
EXTRACT: note_on channel=2 note=50 velocity=0 time=0.014705875
EXTRACT: note_on channel=2 note=55 velocity=58 time=0.0117647
EXTRACT: note_on channel=9 note=41 velocity=0 time=0.002941175
EXTRACT: note_on channel=2 note=52 velocity=0 time=0.008823524999999999
EXTRACT: note_on channel=5 note=58 velocity=80 time=0.002941175
EXTRACT: note_on channel=2 note=57 velocity=60 time=0.0117647
EXTRACT: note_on channel=2 note=53 velocity=0 time=0.008823524999999999
EXTRACT: control_change channel=2 control=1 value=35 time=0
EXTRACT: note_on channel=1 note=44 velocity=0 time=0.008823524999999999
EXTRACT: note_on channel=1 note=51 velocity=0 time=0
EXTRACT: note_on channel=1 note=59 velocity=0 time=0.002941175
EXTRACT: note_on channel=2 note=59 velocity=61 time=0
EXTRACT: note_on channel=2 note=55 velocity=0 time=0.0117647
EXTRACT: note_on channel=5 note=42 velocity=80 time=0.008823524999999999
EXTRACT: note_on channel=2 note=60 velocity=63 time=0.002941175
EXTRACT: note_on channel=1 note=54 velocity=0 time=0.008823524999999999
EXTRACT: note_on channel=1 note=66 velocity=0 time=0
EXTRACT: note_on channel=2 note=78 velocity=0 time=0.002941175
EXTRACT: note_on channel=2 note=57 velocity=0 time=0.002941175
EXTRACT: note_on channel=2 note=62 velocity=66 time=0.008823524999999999
EXTRACT: note_on channel=2 note=59 velocity=0 time=0.0117647
EXTRACT: note_on channel=2 note=80 velocity=0 time=0.00588235
EXTRACT: note_on channel=5 note=58 velocity=0 time=0.008823524999999999
EXTRACT: note_on channel=1 note=66 velocity=87 time=0.002941175
EXTRACT: note_on channel=2 note=64 velocity=69 time=0
EXTRACT: note_on channel=1 note=42 velocity=76 time=0.002941175
EXTRACT: note_on channel=2 note=60 velocity=0 time=0
EXTRACT: note_on channel=5 note=61 velocity=0 time=0.002941175
EXTRACT: note_on channel=5 note=58 velocity=84 time=0
EXTRACT: note_on channel=2 note=71 velocity=0 time=0.002941175
EXTRACT: note_on channel=1 note=61 velocity=87 time=0.002941175
EXTRACT: note_on channel=2 note=82 velocity=57 time=0
EXTRACT: note_on channel=5 note=61 velocity=80 time=0
EXTRACT: note_on channel=0 note=30 velocity=106 time=0.00588235
EXTRACT: note_on channel=2 note=62 velocity=0 time=0
EXTRACT: note_on channel=2 note=78 velocity=57 time=0
EXTRACT: note_on channel=9 note=36 velocity=90 time=0
EXTRACT: note_on channel=9 note=49 velocity=82 time=0
EXTRACT: note_on channel=9 note=35 velocity=90 time=0
EXTRACT: note_on channel=1 note=54 velocity=87 time=0.002941175
EXTRACT: note_on channel=2 note=73 velocity=57 time=0
EXTRACT: note_on channel=5 note=42 velocity=0 time=0.002941175
EXTRACT: note_on channel=1 note=49 velocity=76 time=0.002941175
EXTRACT: note_on channel=5 note=42 velocity=125 time=0.002941175
EXTRACT: note_on channel=2 note=64 velocity=0 time=0.002941175
EXTRACT: control_change channel=2 control=1 value=38 time=0
EXTRACT: note_on channel=9 note=35 velocity=0 time=0.117647
EXTRACT: note_on channel=9 note=49 velocity=0 time=0
EXTRACT: note_on channel=9 note=36 velocity=0 time=0
EXTRACT: note_on channel=9 note=51 velocity=85 time=0.220588125
EXTRACT: note_on channel=9 note=51 velocity=0 time=0.06470585
EXTRACT: note_on channel=0 note=30 velocity=0 time=0.06470585
EXTRACT: note_on channel=1 note=66 velocity=0 time=0.002941175
EXTRACT: note_on channel=1 note=42 velocity=0 time=0.00588235
EXTRACT: note_on channel=1 note=61 velocity=0 time=0.008823524999999999
EXTRACT: note_on channel=1 note=54 velocity=0 time=0.008823524999999999
EXTRACT: note_on channel=1 note=49 velocity=0 time=0.002941175
EXTRACT: note_on channel=1 note=61 velocity=72 time=0.002941175
EXTRACT: note_on channel=1 note=66 velocity=72 time=0.002941175
EXTRACT: note_on channel=1 note=42 velocity=63 time=0.002941175
EXTRACT: note_on channel=0 note=30 velocity=95 time=0.00588235
EXTRACT: note_on channel=9 note=35 velocity=90 time=0.002941175
EXTRACT: note_on channel=9 note=36 velocity=90 time=0
EXTRACT: note_on channel=1 note=49 velocity=63 time=0.008823524999999999
EXTRACT: note_on channel=1 note=54 velocity=72 time=0
EXTRACT: note_on channel=9 note=36 velocity=0 time=0.12352935
EXTRACT: note_on channel=9 note=35 velocity=0 time=0
EXTRACT: note_on channel=1 note=54 velocity=0 time=0.014705875
EXTRACT: note_on channel=1 note=61 velocity=0 time=0.00588235
EXTRACT: note_on channel=0 note=30 velocity=0 time=0.002941175
EXTRACT: note_on channel=1 note=54 velocity=84 time=0
EXTRACT: note_on channel=1 note=61 velocity=84 time=0
EXTRACT: note_on channel=1 note=66 velocity=0 time=0
EXTRACT: note_on channel=1 note=42 velocity=0 time=0.002941175
EXTRACT: note_on channel=1 note=49 velocity=0 time=0.002941175
EXTRACT: note_on channel=9 note=38 velocity=89 time=0.002941175
EXTRACT: note_on channel=9 note=40 velocity=89 time=0
EXTRACT: note_on channel=1 note=42 velocity=73 time=0.002941175
EXTRACT: note_on channel=0 note=30 velocity=95 time=0.002941175
EXTRACT: note_on channel=1 note=49 velocity=73 time=0
EXTRACT: note_on channel=5 note=43 velocity=113 time=0
EXTRACT: note_on channel=1 note=66 velocity=84 time=0.00588235
EXTRACT: note_on channel=9 note=35 velocity=90 time=0
EXTRACT: note_on channel=9 note=36 velocity=90 time=0
EXTRACT: note_on channel=9 note=41 velocity=51 time=0
EXTRACT: note_on channel=9 note=51 velocity=95 time=0
EXTRACT: note_on channel=5 note=44 velocity=108 time=0.049999974999999995
EXTRACT: note_on channel=5 note=42 velocity=0 time=0.00588235
EXTRACT: note_on channel=9 note=51 velocity=0 time=0.038235275
EXTRACT: note_on channel=5 note=43 velocity=0 time=0.008823524999999999
EXTRACT: note_on channel=5 note=45 velocity=102 time=0.002941175
EXTRACT: note_on channel=9 note=38 velocity=0 time=0.014705875
EXTRACT: note_on channel=9 note=40 velocity=0 time=0
EXTRACT: note_on channel=9 note=36 velocity=0 time=0.0117647
EXTRACT: note_on channel=9 note=41 velocity=0 time=0
EXTRACT: note_on channel=9 note=35 velocity=0 time=0
EXTRACT: note_on channel=5 note=61 velocity=0 time=0.017647049999999997
EXTRACT: note_on channel=5 note=58 velocity=0 time=0.002941175
EXTRACT: note_on channel=5 note=44 velocity=0 time=0.00588235
EXTRACT: note_on channel=5 note=46 velocity=97 time=0.002941175
EXTRACT: note_on channel=5 note=63 velocity=80 time=0.008823524999999999
EXTRACT: note_on channel=5 note=59 velocity=80 time=0.02941175
EXTRACT: note_on channel=5 note=45 velocity=0 time=0.0117647
EXTRACT: note_on channel=5 note=47 velocity=92 time=0.00588235
EXTRACT: note_on channel=5 note=46 velocity=0 time=0.049999974999999995
EXTRACT: note_on channel=1 note=61 velocity=0 time=0.055882325
EXTRACT: note_on channel=1 note=54 velocity=0 time=0
EXTRACT: note_on channel=0 note=30 velocity=0 time=0.002941175
EXTRACT: note_on channel=5 note=59 velocity=0 time=0.002941175
EXTRACT: note_on channel=1 note=42 velocity=0 time=0.00588235
EXTRACT: note_on channel=1 note=49 velocity=0 time=0.00588235
EXTRACT: note_on channel=5 note=63 velocity=0 time=0
EXTRACT: note_on channel=1 note=66 velocity=0 time=0.002941175
EXTRACT: note_on channel=1 note=54 velocity=83 time=0
EXTRACT: note_on channel=5 note=59 velocity=84 time=0
EXTRACT: note_on channel=1 note=66 velocity=83 time=0.002941175
EXTRACT: note_on channel=2 note=75 velocity=57 time=0
EXTRACT: note_on channel=5 note=47 velocity=0 time=0
EXTRACT: note_on channel=2 note=73 velocity=0 time=0.002941175
EXTRACT: note_on channel=7 note=83 velocity=64 time=0
EXTRACT: note_on channel=5 note=63 velocity=80 time=0.002941175
EXTRACT: note_on channel=9 note=36 velocity=97 time=0
EXTRACT: note_on channel=9 note=35 velocity=97 time=0
EXTRACT: note_on channel=9 note=51 velocity=85 time=0
EXTRACT: note_on channel=9 note=53 velocity=55 time=0
EXTRACT: note_on channel=0 note=35 velocity=106 time=0.002941175
EXTRACT: note_on channel=1 note=59 velocity=83 time=0
EXTRACT: note_on channel=2 note=83 velocity=57 time=0
EXTRACT: note_on channel=2 note=82 velocity=0 time=0.002941175
EXTRACT: note_on channel=5 note=47 velocity=125 time=0
EXTRACT: note_on channel=1 note=63 velocity=83 time=0.002941175
EXTRACT: note_on channel=1 note=47 velocity=73 time=0.00588235
EXTRACT: note_on channel=7 note=82 velocity=0 time=0.0117647
EXTRACT: note_on channel=9 note=53 velocity=0 time=0.073529375
EXTRACT: note_on channel=9 note=51 velocity=0 time=0
EXTRACT: note_on channel=9 note=35 velocity=0 time=0.032352925
EXTRACT: note_on channel=9 note=36 velocity=0 time=0
EXTRACT: note_on channel=9 note=41 velocity=43 time=0.032352925
EXTRACT: note_on channel=9 note=41 velocity=0 time=0.13235287499999998
EXTRACT: note_on channel=9 note=51 velocity=85 time=0.055882325
EXTRACT: note_on channel=9 note=51 velocity=0 time=0.102941125
EXTRACT: note_on channel=0 note=35 velocity=0 time=0.02941175
EXTRACT: note_on channel=1 note=54 velocity=0 time=0.008823524999999999
EXTRACT: note_on channel=1 note=66 velocity=0 time=0.002941175
EXTRACT: note_on channel=1 note=59 velocity=0 time=0.008823524999999999
EXTRACT: note_on channel=1 note=63 velocity=0 time=0.00588235
EXTRACT: note_on channel=1 note=47 velocity=0 time=0.00588235
EXTRACT: note_on channel=1 note=63 velocity=69 time=0.002941175
EXTRACT: note_on channel=0 note=34 velocity=95 time=0.00588235
EXTRACT: note_on channel=1 note=59 velocity=69 time=0
EXTRACT: note_on channel=1 note=47 velocity=60 time=0.002941175
EXTRACT: note_on channel=9 note=38 velocity=81 time=0
EXTRACT: note_on channel=9 note=40 velocity=81 time=0
EXTRACT: note_on channel=1 note=54 velocity=69 time=0.0117647
EXTRACT: note_on channel=1 note=66 velocity=69 time=0
EXTRACT: note_on channel=9 note=40 velocity=0 time=0.12058817499999999
EXTRACT: note_on channel=9 note=38 velocity=0 time=0
EXTRACT: note_on channel=1 note=59 velocity=0 time=0.0117647
EXTRACT: note_on channel=1 note=47 velocity=0 time=0.002941175
EXTRACT: note_on channel=1 note=63 velocity=0 time=0.002941175
EXTRACT: note_on channel=1 note=59 velocity=80 time=0
EXTRACT: note_on channel=1 note=63 velocity=80 time=0.00588235
EXTRACT: note_on channel=1 note=47 velocity=69 time=0
EXTRACT: note_on channel=0 note=34 velocity=0 time=0.00588235
EXTRACT: note_on channel=1 note=66 velocity=0 time=0
EXTRACT: note_on channel=1 note=66 velocity=80 time=0.002941175
EXTRACT: note_on channel=9 note=36 velocity=90 time=0
EXTRACT: note_on channel=9 note=35 velocity=90 time=0
EXTRACT: note_on channel=1 note=54 velocity=0 time=0.00588235
EXTRACT: note_on channel=0 note=35 velocity=103 time=0.00588235
EXTRACT: note_on channel=9 note=51 velocity=88 time=0
EXTRACT: note_on channel=1 note=54 velocity=80 time=0.002941175
EXTRACT: note_on channel=9 note=51 velocity=0 time=0.0941176
EXTRACT: note_on channel=9 note=35 velocity=0 time=0.0235294
EXTRACT: note_on channel=9 note=36 velocity=0 time=0
EXTRACT: note_on channel=9 note=38 velocity=89 time=0.23235282499999999
EXTRACT: note_on channel=9 note=40 velocity=89 time=0
EXTRACT: note_on channel=9 note=41 velocity=57 time=0
EXTRACT: note_on channel=9 note=51 velocity=95 time=0
EXTRACT: note_on channel=9 note=53 velocity=63 time=0
EXTRACT: note_on channel=9 note=53 velocity=0 time=0.11176465
EXTRACT: note_on channel=9 note=51 velocity=0 time=0
EXTRACT: note_on channel=9 note=38 velocity=0 time=0.020588224999999998
EXTRACT: note_on channel=9 note=40 velocity=0 time=0
EXTRACT: note_on channel=9 note=41 velocity=0 time=0
EXTRACT: note_on channel=1 note=63 velocity=0 time=0.0235294
EXTRACT: note_on channel=1 note=59 velocity=0 time=0.002941175
EXTRACT: note_on channel=1 note=66 velocity=0 time=0.00588235
EXTRACT: note_on channel=1 note=54 velocity=0 time=0.002941175
EXTRACT: note_on channel=1 note=59 velocity=66 time=0
EXTRACT: note_on channel=1 note=63 velocity=66 time=0
EXTRACT: note_on channel=1 note=47 velocity=0 time=0.002941175
EXTRACT: note_on channel=1 note=54 velocity=66 time=0.00588235
EXTRACT: note_on channel=1 note=66 velocity=66 time=0
EXTRACT: note_on channel=1 note=47 velocity=57 time=0.0117647
EXTRACT: note_on channel=0 note=35 velocity=0 time=0.10882347499999999
EXTRACT: note_on channel=1 note=59 velocity=0 time=0.0235294
EXTRACT: note_on channel=1 note=47 velocity=0 time=0.002941175
EXTRACT: note_on channel=1 note=59 velocity=76 time=0
EXTRACT: note_on channel=1 note=47 velocity=67 time=0
EXTRACT: note_on channel=7 note=82 velocity=64 time=0.002941175
EXTRACT: note_on channel=1 note=63 velocity=0 time=0.00588235
EXTRACT: note_on channel=1 note=66 velocity=0 time=0.00588235
EXTRACT: note_on channel=1 note=54 velocity=0 time=0.002941175
EXTRACT: note_on channel=1 note=66 velocity=76 time=0
EXTRACT: note_on channel=1 note=63 velocity=76 time=0
EXTRACT: note_on channel=1 note=54 velocity=76 time=0.00588235
EXTRACT: note_on channel=9 note=51 velocity=85 time=0.00588235
EXTRACT: note_on channel=0 note=35 velocity=110 time=0.002941175
EXTRACT: note_on channel=7 note=83 velocity=0 time=0.035294099999999995
EXTRACT: note_on channel=7 note=82 velocity=0 time=0.061764675
EXTRACT: note_on channel=9 note=51 velocity=0 time=0
EXTRACT: note_on channel=0 note=35 velocity=0 time=0.032352925
EXTRACT: note_on channel=5 note=63 velocity=0 time=0
EXTRACT: note_on channel=7 note=80 velocity=64 time=0.002941175
EXTRACT: note_on channel=5 note=59 velocity=0 time=0.014705875
EXTRACT: note_on channel=5 note=47 velocity=0 time=0.017647049999999997
EXTRACT: note_on channel=5 note=61 velocity=80 time=0.002941175
EXTRACT: note_on channel=0 note=35 velocity=110 time=0.002941175
EXTRACT: note_on channel=5 note=58 velocity=80 time=0.05294115
EXTRACT: note_on channel=5 note=42 velocity=80 time=0.05294115
EXTRACT: note_on channel=7 note=80 velocity=0 time=0.02941175
EXTRACT: note_on channel=1 note=59 velocity=0 time=0.002941175
EXTRACT: note_on channel=1 note=47 velocity=0 time=0
EXTRACT: note_on channel=7 note=82 velocity=64 time=0.002941175
EXTRACT: note_on channel=0 note=35 velocity=0 time=0.002941175
EXTRACT: note_on channel=1 note=63 velocity=0 time=0.0117647
EXTRACT: note_on channel=1 note=66 velocity=0 time=0
EXTRACT: note_on channel=5 note=58 velocity=0 time=0.002941175
EXTRACT: note_on channel=1 note=54 velocity=0 time=0.002941175
EXTRACT: note_on channel=1 note=66 velocity=87 time=0
EXTRACT: note_on channel=1 note=42 velocity=76 time=0.002941175
EXTRACT: note_on channel=5 note=61 velocity=0 time=0.002941175
EXTRACT: note_on channel=5 note=58 velocity=84 time=0
EXTRACT: note_on channel=0 note=30 velocity=106 time=0.00588235
EXTRACT: note_on channel=1 note=61 velocity=87 time=0
EXTRACT: note_on channel=2 note=82 velocity=57 time=0
EXTRACT: note_on channel=5 note=61 velocity=80 time=0
EXTRACT: note_on channel=2 note=73 velocity=57 time=0.00588235
EXTRACT: note_on channel=9 note=36 velocity=90 time=0
EXTRACT: note_on channel=9 note=51 velocity=82 time=0
EXTRACT: note_on channel=9 note=35 velocity=90 time=0
EXTRACT: note_on channel=1 note=54 velocity=87 time=0.002941175
EXTRACT: note_on channel=5 note=42 velocity=0 time=0.002941175
EXTRACT: note_on channel=1 note=49 velocity=76 time=0.002941175
EXTRACT: note_on channel=5 note=42 velocity=125 time=0.002941175
EXTRACT: note_on channel=2 note=83 velocity=0 time=0.026470575
EXTRACT: note_on channel=2 note=75 velocity=0 time=0.038235275
EXTRACT: note_on channel=7 note=82 velocity=0 time=0.002941175
EXTRACT: note_on channel=9 note=35 velocity=0 time=0.05294115
EXTRACT: note_on channel=9 note=51 velocity=0 time=0
EXTRACT: note_on channel=9 note=36 velocity=0 time=0
EXTRACT: note_on channel=7 note=82 velocity=64 time=0.026470575
EXTRACT: note_on channel=9 note=51 velocity=85 time=0.19411755
EXTRACT: note_on channel=9 note=51 velocity=0 time=0.06470585
EXTRACT: note_on channel=0 note=30 velocity=0 time=0.06470585
EXTRACT: note_on channel=1 note=66 velocity=0 time=0.014705875
EXTRACT: note_on channel=1 note=42 velocity=0 time=0.002941175
EXTRACT: note_on channel=1 note=61 velocity=0 time=0.008823524999999999
EXTRACT: note_on channel=1 note=61 velocity=72 time=0.00588235
EXTRACT: note_on channel=1 note=54 velocity=0 time=0.002941175
EXTRACT: note_on channel=1 note=66 velocity=72 time=0
EXTRACT: note_on channel=1 note=42 velocity=63 time=0.002941175
EXTRACT: note_on channel=1 note=49 velocity=0 time=0.002941175
EXTRACT: note_on channel=0 note=30 velocity=95 time=0.002941175
EXTRACT: note_on channel=9 note=35 velocity=90 time=0.002941175
EXTRACT: note_on channel=9 note=36 velocity=90 time=0
EXTRACT: note_on channel=1 note=49 velocity=63 time=0.008823524999999999
EXTRACT: note_on channel=1 note=54 velocity=72 time=0
EXTRACT: note_on channel=9 note=36 velocity=0 time=0.12352935
EXTRACT: note_on channel=9 note=35 velocity=0 time=0
EXTRACT: note_on channel=1 note=54 velocity=0 time=0.017647049999999997
EXTRACT: note_on channel=1 note=61 velocity=0 time=0.002941175
EXTRACT: note_on channel=0 note=30 velocity=0 time=0.002941175
EXTRACT: note_on channel=1 note=54 velocity=84 time=0
EXTRACT: note_on channel=1 note=61 velocity=84 time=0
EXTRACT: note_on channel=1 note=66 velocity=0 time=0
EXTRACT: note_on channel=1 note=42 velocity=0 time=0.002941175
EXTRACT: note_on channel=9 note=38 velocity=89 time=0.00588235
EXTRACT: note_on channel=9 note=40 velocity=89 time=0
EXTRACT: note_on channel=1 note=49 velocity=0 time=0.002941175
EXTRACT: note_on channel=1 note=42 velocity=73 time=0
EXTRACT: note_on channel=0 note=30 velocity=95 time=0.002941175
EXTRACT: note_on channel=1 note=49 velocity=73 time=0
EXTRACT: note_on channel=1 note=66 velocity=84 time=0.00588235
EXTRACT: note_on channel=9 note=35 velocity=90 time=0
EXTRACT: note_on channel=9 note=36 velocity=90 time=0
EXTRACT: note_on channel=9 note=41 velocity=51 time=0
EXTRACT: note_on channel=9 note=51 velocity=95 time=0
EXTRACT: note_on channel=9 note=51 velocity=0 time=0.0941176
EXTRACT: note_on channel=9 note=38 velocity=0 time=0.026470575
EXTRACT: note_on channel=9 note=40 velocity=0 time=0
EXTRACT: note_on channel=9 note=36 velocity=0 time=0.0117647
EXTRACT: note_on channel=9 note=41 velocity=0 time=0
EXTRACT: note_on channel=9 note=35 velocity=0 time=0
EXTRACT: note_on channel=5 note=61 velocity=0 time=0.008823524999999999
EXTRACT: note_on channel=5 note=58 velocity=0 time=0.00588235
EXTRACT: note_on channel=5 note=42 velocity=0 time=0.0117647
EXTRACT: note_on channel=5 note=63 velocity=80 time=0.0117647
EXTRACT: note_on channel=7 note=82 velocity=0 time=0.002941175
EXTRACT: note_on channel=5 note=59 velocity=80 time=0.032352925
EXTRACT: note_on channel=5 note=44 velocity=80 time=0.041176449999999996
EXTRACT: note_on channel=7 note=82 velocity=64 time=0.049999974999999995
EXTRACT: note_on channel=0 note=30 velocity=0 time=0.026470575
EXTRACT: note_on channel=1 note=54 velocity=0 time=0.0117647
EXTRACT: note_on channel=1 note=61 velocity=0 time=0
EXTRACT: note_on channel=5 note=44 velocity=0 time=0
EXTRACT: note_on channel=5 note=59 velocity=0 time=0
EXTRACT: note_on channel=7 note=83 velocity=64 time=0.002941175
EXTRACT: note_on channel=2 note=82 velocity=0 time=0.002941175
EXTRACT: note_on channel=5 note=63 velocity=0 time=0
EXTRACT: note_on channel=1 note=66 velocity=0 time=0.002941175
EXTRACT: note_on channel=1 note=51 velocity=83 time=0
EXTRACT: note_on channel=5 note=59 velocity=84 time=0
EXTRACT: note_on channel=1 note=42 velocity=0 time=0.002941175
EXTRACT: note_on channel=1 note=66 velocity=83 time=0
EXTRACT: note_on channel=2 note=80 velocity=57 time=0
EXTRACT: note_on channel=2 note=71 velocity=57 time=0.002941175
EXTRACT: note_on channel=0 note=32 velocity=106 time=0.002941175
EXTRACT: note_on channel=1 note=49 velocity=0 time=0
EXTRACT: note_on channel=5 note=63 velocity=80 time=0
EXTRACT: note_on channel=9 note=36 velocity=97 time=0
EXTRACT: note_on channel=9 note=35 velocity=97 time=0
EXTRACT: note_on channel=9 note=51 velocity=85 time=0
EXTRACT: note_on channel=9 note=53 velocity=55 time=0
EXTRACT: note_on channel=1 note=59 velocity=83 time=0.002941175
EXTRACT: note_on channel=5 note=44 velocity=125 time=0.002941175
EXTRACT: note_on channel=1 note=63 velocity=83 time=0.002941175
EXTRACT: note_on channel=2 note=73 velocity=0 time=0
EXTRACT: note_on channel=1 note=44 velocity=73 time=0.00588235
EXTRACT: note_on channel=7 note=82 velocity=0 time=0.02941175
EXTRACT: note_on channel=9 note=53 velocity=0 time=0.055882325
EXTRACT: note_on channel=9 note=51 velocity=0 time=0
EXTRACT: note_on channel=9 note=35 velocity=0 time=0.032352925
EXTRACT: note_on channel=9 note=36 velocity=0 time=0
EXTRACT: note_on channel=9 note=41 velocity=43 time=0.032352925
EXTRACT: note_on channel=9 note=41 velocity=0 time=0.13235287499999998
EXTRACT: note_on channel=9 note=51 velocity=85 time=0.055882325
EXTRACT: note_on channel=7 note=83 velocity=0 time=0.061764675
EXTRACT: note_on channel=9 note=51 velocity=0 time=0.041176449999999996
EXTRACT: note_on channel=0 note=32 velocity=0 time=0.02941175
EXTRACT: note_on channel=1 note=51 velocity=0 time=0.008823524999999999
EXTRACT: note_on channel=1 note=66 velocity=0 time=0.002941175
EXTRACT: note_on channel=1 note=59 velocity=0 time=0.008823524999999999
EXTRACT: note_on channel=1 note=63 velocity=0 time=0.00588235
EXTRACT: note_on channel=1 note=44 velocity=0 time=0.00588235
EXTRACT: note_on channel=1 note=63 velocity=69 time=0.002941175
EXTRACT: note_on channel=0 note=30 velocity=95 time=0.00588235
EXTRACT: note_on channel=1 note=59 velocity=69 time=0
EXTRACT: note_on channel=1 note=44 velocity=60 time=0.002941175
EXTRACT: note_on channel=9 note=38 velocity=81 time=0
EXTRACT: note_on channel=9 note=40 velocity=81 time=0
EXTRACT: note_on channel=1 note=51 velocity=69 time=0.0117647
EXTRACT: note_on channel=1 note=66 velocity=69 time=0
EXTRACT: note_on channel=9 note=40 velocity=0 time=0.12058817499999999
EXTRACT: note_on channel=9 note=38 velocity=0 time=0
EXTRACT: note_on channel=1 note=59 velocity=0 time=0.008823524999999999
EXTRACT: note_on channel=1 note=44 velocity=0 time=0.002941175
EXTRACT: note_on channel=1 note=63 velocity=0 time=0.00588235
EXTRACT: note_on channel=1 note=59 velocity=80 time=0
EXTRACT: note_on channel=1 note=63 velocity=80 time=0.00588235
EXTRACT: note_on channel=1 note=44 velocity=69 time=0
EXTRACT: note_on channel=0 note=30 velocity=0 time=0.002941175
EXTRACT: note_on channel=1 note=66 velocity=0 time=0
EXTRACT: note_on channel=1 note=66 velocity=80 time=0.00588235
EXTRACT: note_on channel=9 note=36 velocity=90 time=0
EXTRACT: note_on channel=9 note=35 velocity=90 time=0
EXTRACT: note_on channel=1 note=51 velocity=0 time=0.00588235
EXTRACT: note_on channel=0 note=32 velocity=103 time=0.002941175
EXTRACT: note_on channel=9 note=51 velocity=88 time=0.002941175
EXTRACT: note_on channel=1 note=51 velocity=80 time=0.002941175
EXTRACT: note_on channel=9 note=51 velocity=0 time=0.0941176
EXTRACT: note_on channel=9 note=35 velocity=0 time=0.0235294
EXTRACT: note_on channel=9 note=36 velocity=0 time=0
EXTRACT: note_on channel=7 note=85 velocity=64 time=0.23235282499999999
EXTRACT: note_on channel=9 note=38 velocity=89 time=0
EXTRACT: note_on channel=9 note=40 velocity=89 time=0
EXTRACT: note_on channel=9 note=41 velocity=57 time=0
EXTRACT: note_on channel=9 note=51 velocity=95 time=0
EXTRACT: note_on channel=9 note=53 velocity=63 time=0
EXTRACT: note_on channel=7 note=87 velocity=64 time=0.0235294
EXTRACT: note_on channel=7 note=85 velocity=0 time=0.06470585
EXTRACT: note_on channel=9 note=53 velocity=0 time=0.0235294
EXTRACT: note_on channel=9 note=51 velocity=0 time=0
EXTRACT: note_on channel=9 note=38 velocity=0 time=0.020588224999999998
EXTRACT: note_on channel=9 note=40 velocity=0 time=0
EXTRACT: note_on channel=9 note=41 velocity=0 time=0
EXTRACT: note_on channel=1 note=63 velocity=0 time=0.02941175
EXTRACT: note_on channel=1 note=59 velocity=0 time=0
EXTRACT: note_on channel=1 note=59 velocity=66 time=0.00588235
EXTRACT: note_on channel=1 note=63 velocity=66 time=0
EXTRACT: note_on channel=1 note=66 velocity=0 time=0
EXTRACT: note_on channel=1 note=44 velocity=0 time=0.002941175
EXTRACT: note_on channel=1 note=51 velocity=0 time=0
EXTRACT: note_on channel=1 note=51 velocity=66 time=0.00588235
EXTRACT: note_on channel=1 note=66 velocity=66 time=0
EXTRACT: note_on channel=1 note=44 velocity=57 time=0.0117647
EXTRACT: note_on channel=0 note=32 velocity=0 time=0.1058823
EXTRACT: note_on channel=1 note=59 velocity=0 time=0.026470575
EXTRACT: note_on channel=1 note=44 velocity=0 time=0
EXTRACT: note_on channel=1 note=59 velocity=76 time=0.002941175
EXTRACT: note_on channel=1 note=44 velocity=67 time=0
EXTRACT: note_on channel=1 note=63 velocity=0 time=0.008823524999999999
EXTRACT: note_on channel=1 note=66 velocity=0 time=0.002941175
EXTRACT: note_on channel=1 note=51 velocity=0 time=0.00588235
EXTRACT: note_on channel=1 note=66 velocity=76 time=0
EXTRACT: note_on channel=1 note=63 velocity=76 time=0
EXTRACT: note_on channel=1 note=51 velocity=76 time=0.00588235
EXTRACT: note_on channel=7 note=85 velocity=64 time=0.002941175
EXTRACT: note_on channel=0 note=32 velocity=110 time=0.002941175
EXTRACT: note_on channel=9 note=51 velocity=85 time=0
EXTRACT: note_on channel=7 note=87 velocity=0 time=0.041176449999999996
EXTRACT: note_on channel=9 note=51 velocity=0 time=0.0588235
EXTRACT: note_on channel=7 note=85 velocity=0 time=0.026470575
EXTRACT: note_on channel=0 note=32 velocity=0 time=0.00588235
EXTRACT: note_on channel=5 note=44 velocity=0 time=0.017647049999999997
EXTRACT: note_on channel=5 note=59 velocity=0 time=0.002941175
EXTRACT: note_on channel=7 note=82 velocity=64 time=0.008823524999999999
EXTRACT: note_on channel=5 note=63 velocity=0 time=0.002941175
EXTRACT: note_on channel=5 note=61 velocity=80 time=0.00588235
EXTRACT: note_on channel=0 note=32 velocity=110 time=0.00588235
EXTRACT: note_on channel=5 note=58 velocity=80 time=0.049999974999999995
EXTRACT: note_on channel=7 note=82 velocity=0 time=0.00588235
EXTRACT: note_on channel=7 note=83 velocity=64 time=0.002941175
EXTRACT: note_on channel=2 note=78 velocity=0 time=0.014705875
EXTRACT: note_on channel=5 note=42 velocity=80 time=0.02941175
EXTRACT: note_on channel=2 note=80 velocity=0 time=0.014705875
EXTRACT: note_on channel=1 note=59 velocity=0 time=0.017647049999999997
EXTRACT: note_on channel=1 note=44 velocity=0 time=0
EXTRACT: note_on channel=2 note=71 velocity=0 time=0
EXTRACT: note_on channel=1 note=63 velocity=0 time=0.017647049999999997
EXTRACT: note_on channel=1 note=66 velocity=0 time=0
EXTRACT: note_on channel=5 note=58 velocity=0 time=0.002941175
EXTRACT: note_on channel=1 note=51 velocity=0 time=0.002941175
EXTRACT: note_on channel=1 note=66 velocity=87 time=0
EXTRACT: note_on channel=0 note=32 velocity=0 time=0.002941175
EXTRACT: note_on channel=1 note=42 velocity=76 time=0
EXTRACT: note_on channel=5 note=61 velocity=0 time=0.002941175
EXTRACT: note_on channel=5 note=58 velocity=84 time=0
EXTRACT: note_on channel=1 note=61 velocity=87 time=0.00588235
EXTRACT: note_on channel=2 note=82 velocity=57 time=0
EXTRACT: note_on channel=5 note=61 velocity=80 time=0
EXTRACT: note_on channel=0 note=30 velocity=106 time=0.00588235
EXTRACT: note_on channel=2 note=78 velocity=57 time=0
EXTRACT: note_on channel=9 note=36 velocity=90 time=0
EXTRACT: note_on channel=9 note=51 velocity=82 time=0
EXTRACT: note_on channel=9 note=35 velocity=90 time=0
EXTRACT: note_on channel=1 note=54 velocity=87 time=0.002941175
EXTRACT: note_on channel=2 note=73 velocity=57 time=0
EXTRACT: note_on channel=5 note=42 velocity=0 time=0.002941175
EXTRACT: note_on channel=1 note=49 velocity=76 time=0.002941175
EXTRACT: note_on channel=5 note=42 velocity=125 time=0.002941175
EXTRACT: note_on channel=9 note=35 velocity=0 time=0.12058817499999999
EXTRACT: note_on channel=9 note=51 velocity=0 time=0
EXTRACT: note_on channel=9 note=36 velocity=0 time=0
EXTRACT: note_on channel=7 note=85 velocity=64 time=0.097058775
EXTRACT: note_on channel=7 note=83 velocity=0 time=0.014705875
EXTRACT: note_on channel=7 note=85 velocity=0 time=0.0941176
EXTRACT: note_on channel=7 note=83 velocity=64 time=0.002941175
EXTRACT: note_on channel=9 note=51 velocity=85 time=0.0117647
EXTRACT: note_on channel=9 note=53 velocity=59 time=0.017647049999999997
EXTRACT: note_on channel=9 note=51 velocity=0 time=0.0470588
EXTRACT: note_on channel=0 note=30 velocity=0 time=0.06470585
EXTRACT: note_on channel=1 note=66 velocity=0 time=0.002941175
EXTRACT: note_on channel=1 note=42 velocity=0 time=0.00588235
EXTRACT: note_on channel=1 note=61 velocity=0 time=0.008823524999999999
EXTRACT: note_on channel=9 note=53 velocity=0 time=0.002941175
EXTRACT: note_on channel=1 note=54 velocity=0 time=0.00588235
EXTRACT: note_on channel=1 note=49 velocity=0 time=0.002941175
EXTRACT: note_on channel=1 note=61 velocity=72 time=0.002941175
EXTRACT: note_on channel=1 note=66 velocity=72 time=0.002941175
EXTRACT: note_on channel=1 note=42 velocity=63 time=0.002941175
EXTRACT: note_on channel=0 note=30 velocity=95 time=0.00588235
EXTRACT: note_on channel=9 note=35 velocity=90 time=0.002941175
EXTRACT: note_on channel=9 note=36 velocity=90 time=0
EXTRACT: note_on channel=1 note=49 velocity=63 time=0.008823524999999999
EXTRACT: note_on channel=1 note=54 velocity=72 time=0
EXTRACT: note_on channel=9 note=36 velocity=0 time=0.12352935
EXTRACT: note_on channel=9 note=35 velocity=0 time=0
EXTRACT: note_on channel=1 note=54 velocity=0 time=0.014705875
EXTRACT: note_on channel=7 note=82 velocity=64 time=0
EXTRACT: note_on channel=7 note=83 velocity=0 time=0.002941175
EXTRACT: note_on channel=1 note=61 velocity=0 time=0.002941175
EXTRACT: note_on channel=0 note=30 velocity=0 time=0.002941175
EXTRACT: note_on channel=1 note=54 velocity=84 time=0
EXTRACT: note_on channel=1 note=61 velocity=84 time=0
EXTRACT: note_on channel=1 note=66 velocity=0 time=0
EXTRACT: note_on channel=1 note=42 velocity=0 time=0.002941175
EXTRACT: note_on channel=1 note=49 velocity=0 time=0.002941175
EXTRACT: note_on channel=9 note=38 velocity=89 time=0.002941175
EXTRACT: note_on channel=9 note=40 velocity=89 time=0
EXTRACT: note_on channel=1 note=42 velocity=73 time=0.002941175
EXTRACT: note_on channel=0 note=30 velocity=95 time=0.002941175
EXTRACT: note_on channel=1 note=49 velocity=73 time=0
EXTRACT: note_on channel=5 note=43 velocity=113 time=0
EXTRACT: note_on channel=1 note=66 velocity=84 time=0.00588235
EXTRACT: note_on channel=9 note=35 velocity=90 time=0
EXTRACT: note_on channel=9 note=36 velocity=90 time=0
EXTRACT: note_on channel=9 note=41 velocity=51 time=0
EXTRACT: note_on channel=9 note=51 velocity=95 time=0
EXTRACT: note_on channel=5 note=44 velocity=108 time=0.049999974999999995
EXTRACT: note_on channel=5 note=42 velocity=0 time=0.00588235
EXTRACT: note_on channel=9 note=51 velocity=0 time=0.038235275
EXTRACT: note_on channel=5 note=43 velocity=0 time=0.008823524999999999
EXTRACT: note_on channel=5 note=45 velocity=102 time=0.002941175
EXTRACT: note_on channel=9 note=38 velocity=0 time=0.014705875
EXTRACT: note_on channel=9 note=40 velocity=0 time=0
EXTRACT: note_on channel=9 note=36 velocity=0 time=0.0117647
EXTRACT: note_on channel=9 note=41 velocity=0 time=0
EXTRACT: note_on channel=9 note=35 velocity=0 time=0
EXTRACT: note_on channel=5 note=61 velocity=0 time=0.017647049999999997
EXTRACT: note_on channel=5 note=58 velocity=0 time=0.002941175
EXTRACT: note_on channel=5 note=44 velocity=0 time=0.00588235
EXTRACT: note_on channel=5 note=46 velocity=97 time=0.002941175
EXTRACT: note_on channel=5 note=63 velocity=80 time=0.008823524999999999
EXTRACT: note_on channel=5 note=59 velocity=80 time=0.02941175
EXTRACT: note_on channel=5 note=45 velocity=0 time=0.0117647
EXTRACT: note_on channel=5 note=47 velocity=92 time=0.00588235
EXTRACT: note_on channel=5 note=46 velocity=0 time=0.049999974999999995
EXTRACT: note_on channel=1 note=61 velocity=0 time=0.055882325
EXTRACT: note_on channel=1 note=54 velocity=0 time=0
EXTRACT: note_on channel=0 note=30 velocity=0 time=0.002941175
EXTRACT: note_on channel=5 note=59 velocity=0 time=0.002941175
EXTRACT: note_on channel=1 note=42 velocity=0 time=0.00588235
EXTRACT: note_on channel=1 note=49 velocity=0 time=0.00588235
EXTRACT: note_on channel=5 note=63 velocity=0 time=0
EXTRACT: note_on channel=1 note=66 velocity=0 time=0.002941175
EXTRACT: note_on channel=1 note=54 velocity=83 time=0
EXTRACT: note_on channel=5 note=59 velocity=84 time=0
EXTRACT: note_on channel=1 note=66 velocity=83 time=0.002941175
EXTRACT: note_on channel=2 note=75 velocity=57 time=0
EXTRACT: note_on channel=5 note=47 velocity=0 time=0
EXTRACT: note_on channel=2 note=73 velocity=0 time=0.002941175
EXTRACT: note_on channel=5 note=63 velocity=80 time=0.002941175
EXTRACT: note_on channel=9 note=36 velocity=97 time=0
EXTRACT: note_on channel=9 note=35 velocity=97 time=0
EXTRACT: note_on channel=9 note=51 velocity=85 time=0
EXTRACT: note_on channel=9 note=53 velocity=55 time=0
EXTRACT: note_on channel=0 note=35 velocity=106 time=0.002941175
EXTRACT: note_on channel=1 note=59 velocity=83 time=0
EXTRACT: note_on channel=2 note=83 velocity=57 time=0
EXTRACT: note_on channel=2 note=82 velocity=0 time=0.002941175
EXTRACT: note_on channel=5 note=47 velocity=125 time=0
EXTRACT: note_on channel=1 note=63 velocity=83 time=0.002941175
EXTRACT: note_on channel=1 note=47 velocity=73 time=0.00588235
EXTRACT: note_on channel=9 note=53 velocity=0 time=0.085294075
EXTRACT: note_on channel=9 note=51 velocity=0 time=0
EXTRACT: note_on channel=9 note=35 velocity=0 time=0.032352925
EXTRACT: note_on channel=9 note=36 velocity=0 time=0
EXTRACT: note_on channel=7 note=83 velocity=64 time=0.0235294
EXTRACT: note_on channel=9 note=41 velocity=43 time=0.008823524999999999
EXTRACT: note_on channel=7 note=82 velocity=0 time=0.020588224999999998
EXTRACT: note_on channel=9 note=41 velocity=0 time=0.11176465
EXTRACT: note_on channel=9 note=51 velocity=85 time=0.055882325
EXTRACT: note_on channel=9 note=51 velocity=0 time=0.102941125
EXTRACT: note_on channel=0 note=35 velocity=0 time=0.02941175
EXTRACT: note_on channel=1 note=54 velocity=0 time=0.008823524999999999
EXTRACT: note_on channel=1 note=66 velocity=0 time=0.002941175
EXTRACT: note_on channel=1 note=59 velocity=0 time=0.008823524999999999
EXTRACT: note_on channel=1 note=63 velocity=0 time=0.00588235
EXTRACT: note_on channel=1 note=47 velocity=0 time=0.00588235
EXTRACT: note_on channel=1 note=63 velocity=69 time=0.002941175
EXTRACT: note_on channel=0 note=34 velocity=95 time=0.00588235
EXTRACT: note_on channel=1 note=59 velocity=69 time=0
EXTRACT: note_on channel=1 note=47 velocity=60 time=0.002941175
EXTRACT: note_on channel=9 note=38 velocity=81 time=0
EXTRACT: note_on channel=9 note=40 velocity=81 time=0
EXTRACT: note_on channel=1 note=54 velocity=69 time=0.0117647
EXTRACT: note_on channel=1 note=66 velocity=69 time=0
EXTRACT: note_on channel=9 note=40 velocity=0 time=0.12058817499999999
EXTRACT: note_on channel=9 note=38 velocity=0 time=0
EXTRACT: note_on channel=1 note=59 velocity=0 time=0.0117647
EXTRACT: note_on channel=1 note=47 velocity=0 time=0.002941175
EXTRACT: note_on channel=1 note=63 velocity=0 time=0.002941175
EXTRACT: note_on channel=1 note=59 velocity=80 time=0
EXTRACT: note_on channel=1 note=63 velocity=80 time=0.00588235
EXTRACT: note_on channel=1 note=47 velocity=69 time=0
EXTRACT: note_on channel=0 note=34 velocity=0 time=0.00588235
EXTRACT: note_on channel=1 note=66 velocity=0 time=0
EXTRACT: note_on channel=1 note=66 velocity=80 time=0.002941175
EXTRACT: note_on channel=9 note=36 velocity=90 time=0
EXTRACT: note_on channel=9 note=35 velocity=90 time=0
EXTRACT: note_on channel=1 note=54 velocity=0 time=0.00588235
EXTRACT: note_on channel=0 note=35 velocity=103 time=0.00588235
EXTRACT: note_on channel=9 note=51 velocity=88 time=0
EXTRACT: note_on channel=1 note=54 velocity=80 time=0.002941175
EXTRACT: note_on channel=9 note=51 velocity=0 time=0.0941176
EXTRACT: note_on channel=9 note=35 velocity=0 time=0.0235294
EXTRACT: note_on channel=9 note=36 velocity=0 time=0
EXTRACT: note_on channel=9 note=38 velocity=89 time=0.23235282499999999
EXTRACT: note_on channel=9 note=40 velocity=89 time=0
EXTRACT: note_on channel=9 note=41 velocity=57 time=0
EXTRACT: note_on channel=9 note=51 velocity=95 time=0
EXTRACT: note_on channel=9 note=53 velocity=63 time=0
EXTRACT: note_on channel=9 note=53 velocity=0 time=0.11176465
EXTRACT: note_on channel=9 note=51 velocity=0 time=0
EXTRACT: note_on channel=9 note=38 velocity=0 time=0.020588224999999998
EXTRACT: note_on channel=9 note=40 velocity=0 time=0
EXTRACT: note_on channel=9 note=41 velocity=0 time=0
EXTRACT: note_on channel=1 note=63 velocity=0 time=0.0235294
EXTRACT: note_on channel=1 note=59 velocity=0 time=0.002941175
EXTRACT: note_on channel=1 note=66 velocity=0 time=0.00588235
EXTRACT: note_on channel=1 note=54 velocity=0 time=0.002941175
EXTRACT: note_on channel=1 note=59 velocity=66 time=0
EXTRACT: note_on channel=1 note=63 velocity=66 time=0
EXTRACT: note_on channel=1 note=47 velocity=0 time=0.002941175
EXTRACT: note_on channel=1 note=54 velocity=66 time=0.00588235
EXTRACT: note_on channel=1 note=66 velocity=66 time=0
EXTRACT: note_on channel=1 note=47 velocity=57 time=0.0117647
EXTRACT: note_on channel=0 note=35 velocity=0 time=0.10882347499999999
EXTRACT: note_on channel=7 note=83 velocity=0 time=0
EXTRACT: note_on channel=1 note=59 velocity=0 time=0.0235294
EXTRACT: note_on channel=1 note=47 velocity=0 time=0.002941175
EXTRACT: note_on channel=1 note=59 velocity=76 time=0
EXTRACT: note_on channel=1 note=47 velocity=67 time=0
EXTRACT: note_on channel=1 note=63 velocity=0 time=0.008823524999999999
EXTRACT: note_on channel=1 note=66 velocity=0 time=0.00588235
EXTRACT: note_on channel=7 note=82 velocity=64 time=0
EXTRACT: note_on channel=1 note=54 velocity=0 time=0.002941175
EXTRACT: note_on channel=1 note=66 velocity=76 time=0
EXTRACT: note_on channel=1 note=63 velocity=76 time=0
EXTRACT: note_on channel=1 note=54 velocity=76 time=0.00588235
EXTRACT: note_on channel=9 note=51 velocity=85 time=0.00588235
EXTRACT: note_on channel=0 note=35 velocity=110 time=0.002941175
EXTRACT: note_on channel=9 note=51 velocity=0 time=0.097058775
EXTRACT: note_on channel=0 note=35 velocity=0 time=0.032352925
EXTRACT: note_on channel=5 note=63 velocity=0 time=0
EXTRACT: note_on channel=7 note=82 velocity=0 time=0.014705875
EXTRACT: note_on channel=5 note=59 velocity=0 time=0.002941175
EXTRACT: note_on channel=5 note=47 velocity=0 time=0.017647049999999997
EXTRACT: note_on channel=7 note=80 velocity=64 time=0
EXTRACT: note_on channel=5 note=61 velocity=80 time=0.002941175
EXTRACT: note_on channel=0 note=35 velocity=110 time=0.002941175
EXTRACT: note_on channel=5 note=58 velocity=80 time=0.05294115
EXTRACT: note_on channel=5 note=42 velocity=80 time=0.05294115
EXTRACT: note_on channel=7 note=80 velocity=0 time=0.002941175
EXTRACT: note_on channel=1 note=59 velocity=0 time=0.02941175
EXTRACT: note_on channel=1 note=47 velocity=0 time=0
EXTRACT: note_on channel=0 note=35 velocity=0 time=0.00588235
EXTRACT: note_on channel=1 note=63 velocity=0 time=0.0117647
EXTRACT: note_on channel=1 note=66 velocity=0 time=0
EXTRACT: note_on channel=5 note=58 velocity=0 time=0.002941175
EXTRACT: note_on channel=1 note=54 velocity=0 time=0.002941175
EXTRACT: note_on channel=1 note=66 velocity=87 time=0
EXTRACT: note_on channel=1 note=42 velocity=76 time=0.002941175
EXTRACT: note_on channel=5 note=61 velocity=0 time=0.002941175
EXTRACT: note_on channel=5 note=58 velocity=84 time=0
EXTRACT: note_on channel=7 note=82 velocity=64 time=0.002941175
EXTRACT: note_on channel=0 note=30 velocity=106 time=0.002941175
EXTRACT: note_on channel=1 note=61 velocity=87 time=0
EXTRACT: note_on channel=2 note=82 velocity=58 time=0
EXTRACT: note_on channel=5 note=61 velocity=80 time=0
EXTRACT: note_on channel=2 note=73 velocity=58 time=0.00588235
EXTRACT: note_on channel=9 note=36 velocity=90 time=0
EXTRACT: note_on channel=9 note=51 velocity=82 time=0
EXTRACT: note_on channel=9 note=35 velocity=90 time=0
EXTRACT: note_on channel=1 note=54 velocity=87 time=0.002941175
EXTRACT: note_on channel=5 note=42 velocity=0 time=0.002941175
EXTRACT: note_on channel=1 note=49 velocity=76 time=0.002941175
EXTRACT: note_on channel=5 note=42 velocity=125 time=0.002941175
EXTRACT: note_on channel=7 note=83 velocity=64 time=0.017647049999999997
EXTRACT: note_on channel=2 note=83 velocity=0 time=0.008823524999999999
EXTRACT: note_on channel=7 note=82 velocity=0 time=0.035294099999999995
EXTRACT: note_on channel=2 note=75 velocity=0 time=0.002941175
EXTRACT: note_on channel=9 note=35 velocity=0 time=0.055882325
EXTRACT: note_on channel=9 note=51 velocity=0 time=0
EXTRACT: note_on channel=9 note=36 velocity=0 time=0
EXTRACT: note_on channel=9 note=51 velocity=85 time=0.220588125
EXTRACT: note_on channel=7 note=82 velocity=64 time=0.0117647
EXTRACT: note_on channel=9 note=51 velocity=0 time=0.05294115
EXTRACT: note_on channel=7 note=83 velocity=0 time=0.00588235
EXTRACT: note_on channel=0 note=30 velocity=0 time=0.0588235
EXTRACT: note_on channel=1 note=66 velocity=0 time=0.014705875
EXTRACT: note_on channel=1 note=42 velocity=0 time=0.002941175
EXTRACT: note_on channel=1 note=61 velocity=0 time=0.008823524999999999
EXTRACT: note_on channel=1 note=61 velocity=72 time=0.00588235
EXTRACT: note_on channel=1 note=54 velocity=0 time=0.002941175
EXTRACT: note_on channel=1 note=66 velocity=72 time=0
EXTRACT: note_on channel=1 note=42 velocity=63 time=0.002941175
EXTRACT: note_on channel=1 note=49 velocity=0 time=0.002941175
EXTRACT: note_on channel=0 note=30 velocity=95 time=0.002941175
EXTRACT: note_on channel=9 note=35 velocity=90 time=0.002941175
EXTRACT: note_on channel=9 note=36 velocity=90 time=0
EXTRACT: note_on channel=1 note=49 velocity=63 time=0.008823524999999999
EXTRACT: note_on channel=1 note=54 velocity=72 time=0
EXTRACT: note_on channel=9 note=36 velocity=0 time=0.12352935
EXTRACT: note_on channel=9 note=35 velocity=0 time=0
EXTRACT: note_on channel=1 note=54 velocity=0 time=0.017647049999999997
EXTRACT: note_on channel=1 note=61 velocity=0 time=0.002941175
EXTRACT: note_on channel=0 note=30 velocity=0 time=0.002941175
EXTRACT: note_on channel=1 note=54 velocity=84 time=0
EXTRACT: note_on channel=1 note=61 velocity=84 time=0
EXTRACT: note_on channel=1 note=66 velocity=0 time=0
EXTRACT: note_on channel=1 note=42 velocity=0 time=0.002941175
EXTRACT: note_on channel=7 note=83 velocity=64 time=0
EXTRACT: note_on channel=9 note=38 velocity=89 time=0.00588235
EXTRACT: note_on channel=9 note=40 velocity=89 time=0
EXTRACT: note_on channel=1 note=49 velocity=0 time=0.002941175
EXTRACT: note_on channel=1 note=42 velocity=73 time=0
EXTRACT: note_on channel=7 note=82 velocity=0 time=0
EXTRACT: note_on channel=0 note=30 velocity=95 time=0.002941175
EXTRACT: note_on channel=1 note=49 velocity=73 time=0
EXTRACT: note_on channel=1 note=66 velocity=84 time=0.00588235
EXTRACT: note_on channel=9 note=35 velocity=90 time=0
EXTRACT: note_on channel=9 note=36 velocity=90 time=0
EXTRACT: note_on channel=9 note=41 velocity=51 time=0
EXTRACT: note_on channel=9 note=51 velocity=95 time=0
EXTRACT: note_on channel=9 note=51 velocity=0 time=0.0941176
EXTRACT: note_on channel=9 note=38 velocity=0 time=0.026470575
EXTRACT: note_on channel=9 note=40 velocity=0 time=0
EXTRACT: note_on channel=9 note=36 velocity=0 time=0.0117647
EXTRACT: note_on channel=9 note=41 velocity=0 time=0
EXTRACT: note_on channel=9 note=35 velocity=0 time=0
EXTRACT: note_on channel=5 note=61 velocity=0 time=0.008823524999999999
EXTRACT: note_on channel=5 note=58 velocity=0 time=0.00588235
EXTRACT: note_on channel=5 note=42 velocity=0 time=0.0117647
EXTRACT: note_on channel=5 note=63 velocity=80 time=0.0117647
EXTRACT: note_on channel=5 note=59 velocity=80 time=0.035294099999999995
EXTRACT: note_on channel=5 note=44 velocity=80 time=0.041176449999999996
EXTRACT: note_on channel=0 note=30 velocity=0 time=0.07647055
EXTRACT: note_on channel=1 note=54 velocity=0 time=0.0117647
EXTRACT: note_on channel=1 note=61 velocity=0 time=0
EXTRACT: note_on channel=5 note=44 velocity=0 time=0
EXTRACT: note_on channel=5 note=59 velocity=0 time=0
EXTRACT: note_on channel=2 note=82 velocity=0 time=0.00588235
EXTRACT: note_on channel=5 note=63 velocity=0 time=0
EXTRACT: note_on channel=1 note=66 velocity=0 time=0.002941175
EXTRACT: note_on channel=1 note=51 velocity=83 time=0
EXTRACT: note_on channel=5 note=59 velocity=84 time=0
EXTRACT: note_on channel=1 note=42 velocity=0 time=0.002941175
EXTRACT: note_on channel=1 note=66 velocity=83 time=0
EXTRACT: note_on channel=2 note=80 velocity=58 time=0
EXTRACT: note_on channel=2 note=71 velocity=58 time=0.002941175
EXTRACT: note_on channel=0 note=32 velocity=106 time=0.002941175
EXTRACT: note_on channel=1 note=49 velocity=0 time=0
EXTRACT: note_on channel=5 note=63 velocity=80 time=0
EXTRACT: note_on channel=9 note=36 velocity=97 time=0
EXTRACT: note_on channel=9 note=35 velocity=97 time=0
EXTRACT: note_on channel=9 note=51 velocity=85 time=0
EXTRACT: note_on channel=9 note=53 velocity=55 time=0
EXTRACT: note_on channel=1 note=59 velocity=83 time=0.002941175
EXTRACT: note_on channel=5 note=44 velocity=125 time=0.002941175
EXTRACT: note_on channel=1 note=63 velocity=83 time=0.002941175
EXTRACT: note_on channel=2 note=73 velocity=0 time=0
EXTRACT: note_on channel=7 note=80 velocity=64 time=0
EXTRACT: note_on channel=1 note=44 velocity=73 time=0.00588235
EXTRACT: note_on channel=7 note=83 velocity=0 time=0.002941175
EXTRACT: note_on channel=9 note=53 velocity=0 time=0.08235289999999999
EXTRACT: note_on channel=9 note=51 velocity=0 time=0
EXTRACT: note_on channel=9 note=35 velocity=0 time=0.032352925
EXTRACT: note_on channel=9 note=36 velocity=0 time=0
EXTRACT: note_on channel=9 note=41 velocity=43 time=0.032352925
EXTRACT: note_on channel=9 note=41 velocity=0 time=0.13235287499999998
EXTRACT: note_on channel=9 note=51 velocity=85 time=0.055882325
EXTRACT: note_on channel=9 note=51 velocity=0 time=0.102941125
EXTRACT: note_on channel=0 note=32 velocity=0 time=0.02941175
EXTRACT: note_on channel=1 note=51 velocity=0 time=0.008823524999999999
EXTRACT: note_on channel=1 note=66 velocity=0 time=0.002941175
EXTRACT: note_on channel=1 note=59 velocity=0 time=0.008823524999999999
EXTRACT: note_on channel=1 note=63 velocity=0 time=0.00588235
EXTRACT: note_on channel=1 note=44 velocity=0 time=0.00588235
EXTRACT: note_on channel=1 note=63 velocity=69 time=0.002941175
EXTRACT: note_on channel=0 note=30 velocity=95 time=0.00588235
EXTRACT: note_on channel=1 note=59 velocity=69 time=0
EXTRACT: note_on channel=1 note=44 velocity=60 time=0.002941175
EXTRACT: note_on channel=9 note=38 velocity=81 time=0
EXTRACT: note_on channel=9 note=40 velocity=81 time=0
EXTRACT: note_on channel=1 note=51 velocity=69 time=0.0117647
EXTRACT: note_on channel=1 note=66 velocity=69 time=0
EXTRACT: note_on channel=7 note=80 velocity=0 time=0.026470575
EXTRACT: note_on channel=9 note=40 velocity=0 time=0.0941176
EXTRACT: note_on channel=9 note=38 velocity=0 time=0
EXTRACT: note_on channel=1 note=59 velocity=0 time=0.008823524999999999
EXTRACT: note_on channel=1 note=44 velocity=0 time=0.002941175
EXTRACT: note_on channel=1 note=63 velocity=0 time=0.00588235
EXTRACT: note_on channel=1 note=59 velocity=80 time=0
EXTRACT: note_on channel=1 note=63 velocity=80 time=0.00588235
EXTRACT: note_on channel=1 note=44 velocity=69 time=0
EXTRACT: note_on channel=0 note=30 velocity=0 time=0.002941175
EXTRACT: note_on channel=1 note=66 velocity=0 time=0
EXTRACT: note_on channel=1 note=66 velocity=80 time=0.00588235
EXTRACT: note_on channel=9 note=36 velocity=90 time=0
EXTRACT: note_on channel=9 note=35 velocity=90 time=0
EXTRACT: note_on channel=1 note=51 velocity=0 time=0.00588235
EXTRACT: note_on channel=0 note=32 velocity=103 time=0.002941175
EXTRACT: note_on channel=9 note=51 velocity=88 time=0.002941175
EXTRACT: note_on channel=1 note=51 velocity=80 time=0.002941175
EXTRACT: note_on channel=9 note=51 velocity=0 time=0.0941176
EXTRACT: note_on channel=9 note=35 velocity=0 time=0.0235294
EXTRACT: note_on channel=9 note=36 velocity=0 time=0
EXTRACT: note_on channel=7 note=85 velocity=64 time=0.22647047499999998
EXTRACT: note_on channel=9 note=38 velocity=89 time=0.00588235
EXTRACT: note_on channel=9 note=40 velocity=89 time=0
EXTRACT: note_on channel=9 note=41 velocity=57 time=0
EXTRACT: note_on channel=9 note=51 velocity=95 time=0
EXTRACT: note_on channel=9 note=53 velocity=63 time=0
EXTRACT: note_on channel=7 note=87 velocity=64 time=0.008823524999999999
EXTRACT: note_on channel=7 note=85 velocity=0 time=0.07647055
EXTRACT: note_on channel=9 note=53 velocity=0 time=0.026470575
EXTRACT: note_on channel=9 note=51 velocity=0 time=0
EXTRACT: note_on channel=9 note=38 velocity=0 time=0.020588224999999998
EXTRACT: note_on channel=9 note=40 velocity=0 time=0
EXTRACT: note_on channel=9 note=41 velocity=0 time=0
EXTRACT: note_on channel=1 note=63 velocity=0 time=0.02941175
EXTRACT: note_on channel=1 note=59 velocity=0 time=0
EXTRACT: note_on channel=1 note=59 velocity=66 time=0.00588235
EXTRACT: note_on channel=1 note=63 velocity=66 time=0
EXTRACT: note_on channel=1 note=66 velocity=0 time=0
EXTRACT: note_on channel=1 note=44 velocity=0 time=0.002941175
EXTRACT: note_on channel=1 note=51 velocity=0 time=0
EXTRACT: note_on channel=1 note=51 velocity=66 time=0.00588235
EXTRACT: note_on channel=1 note=66 velocity=66 time=0
EXTRACT: note_on channel=1 note=44 velocity=57 time=0.0117647
EXTRACT: note_on channel=0 note=32 velocity=0 time=0.1058823
EXTRACT: note_on channel=1 note=59 velocity=0 time=0.026470575
EXTRACT: note_on channel=1 note=44 velocity=0 time=0
EXTRACT: note_on channel=1 note=59 velocity=76 time=0.002941175
EXTRACT: note_on channel=1 note=44 velocity=67 time=0
EXTRACT: note_on channel=1 note=63 velocity=0 time=0.008823524999999999
EXTRACT: note_on channel=1 note=66 velocity=0 time=0.002941175
EXTRACT: note_on channel=1 note=51 velocity=0 time=0.00588235
EXTRACT: note_on channel=1 note=66 velocity=76 time=0
EXTRACT: note_on channel=1 note=63 velocity=76 time=0
EXTRACT: note_on channel=1 note=51 velocity=76 time=0.00588235
EXTRACT: note_on channel=0 note=32 velocity=110 time=0.00588235
EXTRACT: note_on channel=7 note=85 velocity=64 time=0
EXTRACT: note_on channel=9 note=51 velocity=85 time=0
EXTRACT: note_on channel=7 note=87 velocity=0 time=0.038235275
EXTRACT: note_on channel=9 note=51 velocity=0 time=0.061764675
EXTRACT: note_on channel=7 note=85 velocity=0 time=0.0235294
EXTRACT: note_on channel=0 note=32 velocity=0 time=0.008823524999999999
EXTRACT: note_on channel=5 note=44 velocity=0 time=0.017647049999999997
EXTRACT: note_on channel=5 note=59 velocity=0 time=0.002941175
EXTRACT: note_on channel=5 note=63 velocity=0 time=0.0117647
EXTRACT: note_on channel=5 note=61 velocity=80 time=0.00588235
EXTRACT: note_on channel=0 note=32 velocity=110 time=0.00588235
EXTRACT: note_on channel=7 note=82 velocity=64 time=0.008823524999999999
EXTRACT: note_on channel=5 note=58 velocity=80 time=0.041176449999999996
EXTRACT: note_on channel=2 note=78 velocity=0 time=0.0235294
EXTRACT: note_on channel=5 note=42 velocity=80 time=0.02941175
EXTRACT: note_on channel=2 note=80 velocity=0 time=0.014705875
EXTRACT: note_on channel=1 note=59 velocity=0 time=0.017647049999999997
EXTRACT: note_on channel=1 note=44 velocity=0 time=0
EXTRACT: note_on channel=2 note=71 velocity=0 time=0
EXTRACT: note_on channel=1 note=63 velocity=0 time=0.017647049999999997
EXTRACT: note_on channel=1 note=66 velocity=0 time=0
EXTRACT: note_on channel=5 note=58 velocity=0 time=0.002941175
EXTRACT: note_on channel=1 note=51 velocity=0 time=0.002941175
EXTRACT: note_on channel=1 note=66 velocity=87 time=0
EXTRACT: note_on channel=0 note=32 velocity=0 time=0.002941175
EXTRACT: note_on channel=1 note=42 velocity=76 time=0
EXTRACT: note_on channel=5 note=61 velocity=0 time=0.002941175
EXTRACT: note_on channel=5 note=58 velocity=84 time=0
EXTRACT: note_on channel=1 note=61 velocity=87 time=0.00588235
EXTRACT: note_on channel=2 note=82 velocity=58 time=0
EXTRACT: note_on channel=5 note=61 velocity=80 time=0
EXTRACT: note_on channel=0 note=30 velocity=106 time=0.00588235
EXTRACT: note_on channel=2 note=78 velocity=58 time=0
EXTRACT: note_on channel=9 note=36 velocity=90 time=0
EXTRACT: note_on channel=9 note=51 velocity=82 time=0
EXTRACT: note_on channel=9 note=35 velocity=90 time=0
EXTRACT: note_on channel=1 note=54 velocity=87 time=0.002941175
EXTRACT: note_on channel=2 note=73 velocity=58 time=0
EXTRACT: note_on channel=5 note=42 velocity=0 time=0.002941175
EXTRACT: note_on channel=1 note=49 velocity=76 time=0.002941175
EXTRACT: note_on channel=5 note=42 velocity=125 time=0.002941175
EXTRACT: note_on channel=9 note=35 velocity=0 time=0.12058817499999999
EXTRACT: note_on channel=9 note=51 velocity=0 time=0
EXTRACT: note_on channel=9 note=36 velocity=0 time=0
EXTRACT: note_on channel=9 note=51 velocity=85 time=0.220588125
EXTRACT: note_on channel=9 note=53 velocity=59 time=0.017647049999999997
EXTRACT: note_on channel=9 note=51 velocity=0 time=0.0470588
EXTRACT: note_on channel=0 note=30 velocity=0 time=0.06470585
EXTRACT: note_on channel=1 note=66 velocity=0 time=0.002941175
EXTRACT: note_on channel=1 note=42 velocity=0 time=0.00588235
EXTRACT: note_on channel=1 note=61 velocity=0 time=0.008823524999999999
EXTRACT: note_on channel=9 note=53 velocity=0 time=0.002941175
EXTRACT: note_on channel=1 note=54 velocity=0 time=0.00588235
EXTRACT: note_on channel=1 note=49 velocity=0 time=0.002941175
EXTRACT: note_on channel=1 note=61 velocity=72 time=0.002941175
EXTRACT: note_on channel=1 note=66 velocity=72 time=0.002941175
EXTRACT: note_on channel=1 note=42 velocity=63 time=0.002941175
EXTRACT: note_on channel=0 note=30 velocity=95 time=0.00588235
EXTRACT: note_on channel=9 note=35 velocity=90 time=0.002941175
EXTRACT: note_on channel=9 note=36 velocity=90 time=0
EXTRACT: note_on channel=1 note=49 velocity=63 time=0.008823524999999999
EXTRACT: note_on channel=1 note=54 velocity=72 time=0
EXTRACT: note_on channel=9 note=36 velocity=0 time=0.12352935
EXTRACT: note_on channel=9 note=35 velocity=0 time=0
EXTRACT: note_on channel=1 note=54 velocity=0 time=0.014705875
EXTRACT: note_on channel=1 note=61 velocity=0 time=0.00588235
EXTRACT: note_on channel=0 note=30 velocity=0 time=0.002941175
EXTRACT: note_on channel=1 note=54 velocity=84 time=0
EXTRACT: note_on channel=1 note=61 velocity=84 time=0
EXTRACT: note_on channel=1 note=66 velocity=0 time=0
EXTRACT: note_on channel=1 note=42 velocity=0 time=0.002941175
EXTRACT: note_on channel=1 note=49 velocity=0 time=0.002941175
EXTRACT: note_on channel=9 note=38 velocity=89 time=0.002941175
EXTRACT: note_on channel=9 note=40 velocity=89 time=0
EXTRACT: note_on channel=1 note=42 velocity=73 time=0.002941175
EXTRACT: note_on channel=0 note=30 velocity=95 time=0.002941175
EXTRACT: note_on channel=1 note=49 velocity=73 time=0
EXTRACT: note_on channel=5 note=43 velocity=113 time=0
EXTRACT: note_on channel=1 note=66 velocity=84 time=0.00588235
EXTRACT: note_on channel=9 note=35 velocity=90 time=0
EXTRACT: note_on channel=9 note=36 velocity=90 time=0
EXTRACT: note_on channel=9 note=41 velocity=51 time=0
EXTRACT: note_on channel=9 note=51 velocity=95 time=0
EXTRACT: note_on channel=5 note=44 velocity=108 time=0.049999974999999995
EXTRACT: note_on channel=5 note=42 velocity=0 time=0.00588235
EXTRACT: note_on channel=9 note=51 velocity=0 time=0.038235275
EXTRACT: note_on channel=5 note=43 velocity=0 time=0.008823524999999999
EXTRACT: note_on channel=5 note=45 velocity=102 time=0.002941175
EXTRACT: note_on channel=9 note=38 velocity=0 time=0.014705875
EXTRACT: note_on channel=9 note=40 velocity=0 time=0
EXTRACT: note_on channel=9 note=36 velocity=0 time=0.0117647
EXTRACT: note_on channel=9 note=41 velocity=0 time=0
EXTRACT: note_on channel=9 note=35 velocity=0 time=0
EXTRACT: note_on channel=5 note=61 velocity=0 time=0.017647049999999997
EXTRACT: note_on channel=5 note=58 velocity=0 time=0.002941175
EXTRACT: note_on channel=5 note=44 velocity=0 time=0.00588235
EXTRACT: note_on channel=5 note=46 velocity=97 time=0.002941175
EXTRACT: note_on channel=5 note=63 velocity=80 time=0.008823524999999999
EXTRACT: note_on channel=5 note=59 velocity=80 time=0.02941175
EXTRACT: note_on channel=5 note=45 velocity=0 time=0.0117647
EXTRACT: note_on channel=5 note=47 velocity=92 time=0.00588235
EXTRACT: note_on channel=5 note=46 velocity=0 time=0.049999974999999995
EXTRACT: note_on channel=1 note=61 velocity=0 time=0.055882325
EXTRACT: note_on channel=1 note=54 velocity=0 time=0
EXTRACT: note_on channel=0 note=30 velocity=0 time=0.002941175
EXTRACT: note_on channel=5 note=59 velocity=0 time=0.002941175
EXTRACT: note_on channel=1 note=42 velocity=0 time=0.00588235
EXTRACT: note_on channel=1 note=49 velocity=0 time=0.00588235
EXTRACT: note_on channel=5 note=63 velocity=0 time=0
EXTRACT: note_on channel=1 note=66 velocity=0 time=0.002941175
EXTRACT: note_on channel=1 note=54 velocity=83 time=0
EXTRACT: note_on channel=5 note=59 velocity=84 time=0
EXTRACT: note_on channel=1 note=66 velocity=83 time=0.002941175
EXTRACT: note_on channel=2 note=75 velocity=58 time=0
EXTRACT: note_on channel=5 note=47 velocity=0 time=0
EXTRACT: note_on channel=2 note=73 velocity=0 time=0.002941175
EXTRACT: note_on channel=7 note=83 velocity=64 time=0
EXTRACT: note_on channel=5 note=63 velocity=80 time=0.002941175
EXTRACT: note_on channel=9 note=36 velocity=97 time=0
EXTRACT: note_on channel=9 note=35 velocity=97 time=0
EXTRACT: note_on channel=9 note=51 velocity=85 time=0
EXTRACT: note_on channel=9 note=53 velocity=55 time=0
EXTRACT: note_on channel=0 note=35 velocity=106 time=0.002941175
EXTRACT: note_on channel=1 note=59 velocity=83 time=0
EXTRACT: note_on channel=2 note=83 velocity=58 time=0
EXTRACT: note_on channel=2 note=82 velocity=0 time=0.002941175
EXTRACT: note_on channel=5 note=47 velocity=125 time=0
EXTRACT: note_on channel=7 note=82 velocity=0 time=0
EXTRACT: note_on channel=1 note=63 velocity=83 time=0.002941175
EXTRACT: note_on channel=1 note=47 velocity=73 time=0.00588235
EXTRACT: note_on channel=9 note=53 velocity=0 time=0.085294075
EXTRACT: note_on channel=9 note=51 velocity=0 time=0
EXTRACT: note_on channel=9 note=35 velocity=0 time=0.032352925
EXTRACT: note_on channel=9 note=36 velocity=0 time=0
EXTRACT: note_on channel=9 note=41 velocity=43 time=0.032352925
EXTRACT: note_on channel=9 note=41 velocity=0 time=0.13235287499999998
EXTRACT: note_on channel=9 note=51 velocity=85 time=0.055882325
EXTRACT: note_on channel=9 note=51 velocity=0 time=0.102941125
EXTRACT: note_on channel=0 note=35 velocity=0 time=0.02941175
EXTRACT: note_on channel=1 note=54 velocity=0 time=0.008823524999999999
EXTRACT: note_on channel=1 note=66 velocity=0 time=0.002941175
EXTRACT: note_on channel=1 note=59 velocity=0 time=0.008823524999999999
EXTRACT: note_on channel=1 note=63 velocity=0 time=0.00588235
EXTRACT: note_on channel=1 note=47 velocity=0 time=0.00588235
EXTRACT: note_on channel=1 note=63 velocity=69 time=0.002941175
EXTRACT: note_on channel=0 note=34 velocity=95 time=0.00588235
EXTRACT: note_on channel=1 note=59 velocity=69 time=0
EXTRACT: note_on channel=1 note=47 velocity=60 time=0.002941175
EXTRACT: note_on channel=9 note=38 velocity=81 time=0
EXTRACT: note_on channel=9 note=40 velocity=81 time=0
EXTRACT: note_on channel=1 note=54 velocity=69 time=0.0117647
EXTRACT: note_on channel=1 note=66 velocity=69 time=0
EXTRACT: note_on channel=9 note=40 velocity=0 time=0.12058817499999999
EXTRACT: note_on channel=9 note=38 velocity=0 time=0
EXTRACT: note_on channel=1 note=59 velocity=0 time=0.0117647
EXTRACT: note_on channel=1 note=47 velocity=0 time=0.002941175
EXTRACT: note_on channel=1 note=63 velocity=0 time=0.002941175
EXTRACT: note_on channel=1 note=59 velocity=80 time=0
EXTRACT: note_on channel=1 note=63 velocity=80 time=0.00588235
EXTRACT: note_on channel=1 note=47 velocity=69 time=0
EXTRACT: note_on channel=0 note=34 velocity=0 time=0.00588235
EXTRACT: note_on channel=1 note=66 velocity=0 time=0
EXTRACT: note_on channel=1 note=66 velocity=80 time=0.002941175
EXTRACT: note_on channel=9 note=36 velocity=90 time=0
EXTRACT: note_on channel=9 note=35 velocity=90 time=0
EXTRACT: note_on channel=1 note=54 velocity=0 time=0.00588235
EXTRACT: note_on channel=0 note=35 velocity=103 time=0.00588235
EXTRACT: note_on channel=9 note=51 velocity=88 time=0
EXTRACT: note_on channel=1 note=54 velocity=80 time=0.002941175
EXTRACT: note_on channel=9 note=51 velocity=0 time=0.0941176
EXTRACT: note_on channel=9 note=35 velocity=0 time=0.0235294
EXTRACT: note_on channel=9 note=36 velocity=0 time=0
EXTRACT: note_on channel=9 note=38 velocity=89 time=0.23235282499999999
EXTRACT: note_on channel=9 note=40 velocity=89 time=0
EXTRACT: note_on channel=9 note=41 velocity=57 time=0
EXTRACT: note_on channel=9 note=51 velocity=95 time=0
EXTRACT: note_on channel=9 note=53 velocity=63 time=0
EXTRACT: note_on channel=9 note=53 velocity=0 time=0.11176465
EXTRACT: note_on channel=9 note=51 velocity=0 time=0
EXTRACT: note_on channel=9 note=38 velocity=0 time=0.020588224999999998
EXTRACT: note_on channel=9 note=40 velocity=0 time=0
EXTRACT: note_on channel=9 note=41 velocity=0 time=0
EXTRACT: note_on channel=1 note=63 velocity=0 time=0.0235294
EXTRACT: note_on channel=1 note=59 velocity=0 time=0.002941175
EXTRACT: note_on channel=1 note=66 velocity=0 time=0.00588235
EXTRACT: note_on channel=1 note=54 velocity=0 time=0.002941175
EXTRACT: note_on channel=1 note=59 velocity=66 time=0
EXTRACT: note_on channel=1 note=63 velocity=66 time=0
EXTRACT: note_on channel=1 note=47 velocity=0 time=0.002941175
EXTRACT: note_on channel=1 note=54 velocity=66 time=0.00588235
EXTRACT: note_on channel=1 note=66 velocity=66 time=0
EXTRACT: note_on channel=1 note=47 velocity=57 time=0.0117647
EXTRACT: note_on channel=0 note=35 velocity=0 time=0.10882347499999999
EXTRACT: note_on channel=7 note=82 velocity=64 time=0.00588235
EXTRACT: note_on channel=1 note=59 velocity=0 time=0.017647049999999997
EXTRACT: note_on channel=1 note=47 velocity=0 time=0.002941175
EXTRACT: note_on channel=1 note=59 velocity=76 time=0
EXTRACT: note_on channel=1 note=47 velocity=67 time=0
EXTRACT: note_on channel=1 note=63 velocity=0 time=0.008823524999999999
EXTRACT: note_on channel=1 note=66 velocity=0 time=0.00588235
EXTRACT: note_on channel=1 note=54 velocity=0 time=0.002941175
EXTRACT: note_on channel=1 note=66 velocity=76 time=0
EXTRACT: note_on channel=1 note=63 velocity=76 time=0
EXTRACT: note_on channel=1 note=54 velocity=76 time=0.00588235
EXTRACT: note_on channel=9 note=51 velocity=85 time=0.00588235
EXTRACT: note_on channel=0 note=35 velocity=110 time=0.002941175
EXTRACT: note_on channel=7 note=83 velocity=0 time=0.02941175
EXTRACT: note_on channel=9 note=51 velocity=0 time=0.067647025
EXTRACT: note_on channel=7 note=82 velocity=0 time=0.020588224999999998
EXTRACT: note_on channel=0 note=35 velocity=0 time=0.0117647
EXTRACT: note_on channel=5 note=63 velocity=0 time=0
EXTRACT: note_on channel=7 note=80 velocity=64 time=0
EXTRACT: note_on channel=5 note=59 velocity=0 time=0.017647049999999997
EXTRACT: note_on channel=5 note=47 velocity=0 time=0.017647049999999997
EXTRACT: note_on channel=5 note=61 velocity=80 time=0.002941175
EXTRACT: note_on channel=0 note=35 velocity=110 time=0.002941175
EXTRACT: note_on channel=5 note=58 velocity=80 time=0.05294115
EXTRACT: note_on channel=7 note=80 velocity=0 time=0.026470575
EXTRACT: note_on channel=5 note=42 velocity=80 time=0.026470575
EXTRACT: note_on channel=1 note=59 velocity=0 time=0.032352925
EXTRACT: note_on channel=1 note=47 velocity=0 time=0
EXTRACT: note_on channel=0 note=35 velocity=0 time=0.00588235
EXTRACT: note_on channel=7 note=82 velocity=64 time=0.00588235
EXTRACT: note_on channel=1 note=63 velocity=0 time=0.00588235
EXTRACT: note_on channel=1 note=66 velocity=0 time=0
EXTRACT: note_on channel=5 note=58 velocity=0 time=0.002941175
EXTRACT: note_on channel=1 note=54 velocity=0 time=0.002941175
EXTRACT: note_on channel=1 note=66 velocity=87 time=0
EXTRACT: note_on channel=1 note=42 velocity=76 time=0.002941175
EXTRACT: note_on channel=5 note=61 velocity=0 time=0.002941175
EXTRACT: note_on channel=5 note=58 velocity=84 time=0
EXTRACT: note_on channel=0 note=30 velocity=106 time=0.00588235
EXTRACT: note_on channel=1 note=61 velocity=87 time=0
EXTRACT: note_on channel=2 note=82 velocity=58 time=0
EXTRACT: note_on channel=5 note=61 velocity=80 time=0
EXTRACT: note_on channel=2 note=73 velocity=58 time=0.00588235
EXTRACT: note_on channel=9 note=36 velocity=90 time=0
EXTRACT: note_on channel=9 note=51 velocity=82 time=0
EXTRACT: note_on channel=9 note=35 velocity=90 time=0
EXTRACT: note_on channel=1 note=54 velocity=87 time=0.002941175
EXTRACT: note_on channel=5 note=42 velocity=0 time=0.002941175
EXTRACT: note_on channel=1 note=49 velocity=76 time=0.002941175
EXTRACT: note_on channel=5 note=42 velocity=125 time=0.002941175
EXTRACT: note_on channel=2 note=83 velocity=0 time=0.026470575
EXTRACT: note_on channel=2 note=75 velocity=0 time=0.038235275
EXTRACT: note_on channel=7 note=82 velocity=0 time=0.008823524999999999
EXTRACT: note_on channel=9 note=35 velocity=0 time=0.0470588
EXTRACT: note_on channel=9 note=51 velocity=0 time=0
EXTRACT: note_on channel=9 note=36 velocity=0 time=0
EXTRACT: note_on channel=7 note=82 velocity=64 time=0.19411755
EXTRACT: note_on channel=9 note=51 velocity=85 time=0.026470575
EXTRACT: note_on channel=9 note=51 velocity=0 time=0.06470585
EXTRACT: note_on channel=0 note=30 velocity=0 time=0.06470585
EXTRACT: note_on channel=1 note=66 velocity=0 time=0.014705875
EXTRACT: note_on channel=1 note=42 velocity=0 time=0.002941175
EXTRACT: note_on channel=1 note=61 velocity=0 time=0.008823524999999999
EXTRACT: note_on channel=1 note=61 velocity=72 time=0.00588235
EXTRACT: note_on channel=1 note=54 velocity=0 time=0.002941175
EXTRACT: note_on channel=1 note=66 velocity=72 time=0
EXTRACT: note_on channel=1 note=42 velocity=63 time=0.002941175
EXTRACT: note_on channel=1 note=49 velocity=0 time=0.002941175
EXTRACT: note_on channel=0 note=30 velocity=95 time=0.002941175
EXTRACT: note_on channel=9 note=35 velocity=90 time=0.002941175
EXTRACT: note_on channel=9 note=36 velocity=90 time=0
EXTRACT: note_on channel=1 note=49 velocity=63 time=0.008823524999999999
EXTRACT: note_on channel=1 note=54 velocity=72 time=0
EXTRACT: note_on channel=9 note=36 velocity=0 time=0.12352935
EXTRACT: note_on channel=9 note=35 velocity=0 time=0
EXTRACT: note_on channel=7 note=82 velocity=0 time=0.00588235
EXTRACT: note_on channel=1 note=54 velocity=0 time=0.0117647
EXTRACT: note_on channel=1 note=61 velocity=0 time=0.002941175
EXTRACT: note_on channel=0 note=30 velocity=0 time=0.002941175
EXTRACT: note_on channel=1 note=54 velocity=84 time=0
EXTRACT: note_on channel=1 note=61 velocity=84 time=0
EXTRACT: note_on channel=1 note=66 velocity=0 time=0
EXTRACT: note_on channel=1 note=42 velocity=0 time=0.002941175
EXTRACT: note_on channel=9 note=38 velocity=89 time=0.00588235
EXTRACT: note_on channel=9 note=40 velocity=89 time=0
EXTRACT: note_on channel=1 note=49 velocity=0 time=0.002941175
EXTRACT: note_on channel=1 note=42 velocity=73 time=0
EXTRACT: note_on channel=0 note=30 velocity=95 time=0.002941175
EXTRACT: note_on channel=1 note=49 velocity=73 time=0
EXTRACT: note_on channel=7 note=82 velocity=64 time=0.002941175
EXTRACT: note_on channel=1 note=66 velocity=84 time=0.002941175
EXTRACT: note_on channel=9 note=35 velocity=90 time=0
EXTRACT: note_on channel=9 note=36 velocity=90 time=0
EXTRACT: note_on channel=9 note=41 velocity=51 time=0
EXTRACT: note_on channel=9 note=51 velocity=95 time=0
EXTRACT: note_on channel=9 note=51 velocity=0 time=0.0941176
EXTRACT: note_on channel=9 note=38 velocity=0 time=0.026470575
EXTRACT: note_on channel=9 note=40 velocity=0 time=0
EXTRACT: note_on channel=9 note=36 velocity=0 time=0.0117647
EXTRACT: note_on channel=9 note=41 velocity=0 time=0
EXTRACT: note_on channel=9 note=35 velocity=0 time=0
EXTRACT: note_on channel=5 note=61 velocity=0 time=0.008823524999999999
EXTRACT: note_on channel=5 note=58 velocity=0 time=0.00588235
EXTRACT: note_on channel=5 note=42 velocity=0 time=0.0117647
EXTRACT: note_on channel=5 note=63 velocity=80 time=0.0117647
EXTRACT: note_on channel=5 note=59 velocity=80 time=0.035294099999999995
EXTRACT: note_on channel=7 note=82 velocity=0 time=0.0235294
EXTRACT: note_on channel=5 note=44 velocity=80 time=0.017647049999999997
EXTRACT: note_on channel=7 note=83 velocity=64 time=0.032352925
EXTRACT: note_on channel=0 note=30 velocity=0 time=0.044117625
EXTRACT: note_on channel=1 note=54 velocity=0 time=0.0117647
EXTRACT: note_on channel=1 note=61 velocity=0 time=0
EXTRACT: note_on channel=5 note=44 velocity=0 time=0
EXTRACT: note_on channel=5 note=59 velocity=0 time=0
EXTRACT: note_on channel=2 note=82 velocity=0 time=0.00588235
EXTRACT: note_on channel=5 note=63 velocity=0 time=0
EXTRACT: note_on channel=1 note=66 velocity=0 time=0.002941175
EXTRACT: note_on channel=1 note=51 velocity=83 time=0
EXTRACT: note_on channel=5 note=59 velocity=84 time=0
EXTRACT: note_on channel=1 note=42 velocity=0 time=0.002941175
EXTRACT: note_on channel=1 note=66 velocity=83 time=0
EXTRACT: note_on channel=2 note=80 velocity=58 time=0
EXTRACT: note_on channel=2 note=71 velocity=58 time=0.002941175
EXTRACT: note_on channel=0 note=32 velocity=106 time=0.002941175
EXTRACT: note_on channel=1 note=49 velocity=0 time=0
EXTRACT: note_on channel=5 note=63 velocity=80 time=0
EXTRACT: note_on channel=9 note=36 velocity=97 time=0
EXTRACT: note_on channel=9 note=35 velocity=97 time=0
EXTRACT: note_on channel=9 note=51 velocity=85 time=0
EXTRACT: note_on channel=9 note=53 velocity=55 time=0
EXTRACT: note_on channel=1 note=59 velocity=83 time=0.002941175
EXTRACT: note_on channel=5 note=44 velocity=125 time=0.002941175
EXTRACT: note_on channel=1 note=63 velocity=83 time=0.002941175
EXTRACT: note_on channel=2 note=73 velocity=0 time=0
EXTRACT: note_on channel=1 note=44 velocity=73 time=0.00588235
EXTRACT: note_on channel=9 note=53 velocity=0 time=0.085294075
EXTRACT: note_on channel=9 note=51 velocity=0 time=0
EXTRACT: note_on channel=9 note=35 velocity=0 time=0.032352925
EXTRACT: note_on channel=9 note=36 velocity=0 time=0
EXTRACT: note_on channel=9 note=41 velocity=43 time=0.032352925
EXTRACT: note_on channel=9 note=41 velocity=0 time=0.13235287499999998
EXTRACT: note_on channel=9 note=51 velocity=85 time=0.055882325
EXTRACT: note_on channel=9 note=51 velocity=0 time=0.102941125
EXTRACT: note_on channel=0 note=32 velocity=0 time=0.02941175
EXTRACT: note_on channel=1 note=51 velocity=0 time=0.008823524999999999
EXTRACT: note_on channel=1 note=66 velocity=0 time=0.002941175
EXTRACT: note_on channel=1 note=59 velocity=0 time=0.008823524999999999
EXTRACT: note_on channel=1 note=63 velocity=0 time=0.00588235
EXTRACT: note_on channel=1 note=44 velocity=0 time=0.00588235
EXTRACT: note_on channel=1 note=63 velocity=69 time=0.002941175
EXTRACT: note_on channel=0 note=30 velocity=95 time=0.00588235
EXTRACT: note_on channel=1 note=59 velocity=69 time=0
EXTRACT: note_on channel=1 note=44 velocity=60 time=0.002941175
EXTRACT: note_on channel=9 note=38 velocity=81 time=0
EXTRACT: note_on channel=9 note=40 velocity=81 time=0
EXTRACT: note_on channel=1 note=51 velocity=69 time=0.0117647
EXTRACT: note_on channel=1 note=66 velocity=69 time=0
EXTRACT: note_on channel=9 note=40 velocity=0 time=0.12058817499999999
EXTRACT: note_on channel=9 note=38 velocity=0 time=0
EXTRACT: note_on channel=1 note=59 velocity=0 time=0.008823524999999999
EXTRACT: note_on channel=1 note=44 velocity=0 time=0.002941175
EXTRACT: note_on channel=1 note=63 velocity=0 time=0.00588235
EXTRACT: note_on channel=1 note=59 velocity=80 time=0
EXTRACT: note_on channel=1 note=63 velocity=80 time=0.00588235
EXTRACT: note_on channel=1 note=44 velocity=69 time=0
EXTRACT: note_on channel=0 note=30 velocity=0 time=0.002941175
EXTRACT: note_on channel=1 note=66 velocity=0 time=0
EXTRACT: note_on channel=1 note=66 velocity=80 time=0.00588235
EXTRACT: note_on channel=9 note=36 velocity=90 time=0
EXTRACT: note_on channel=9 note=35 velocity=90 time=0
EXTRACT: note_on channel=1 note=51 velocity=0 time=0.00588235
EXTRACT: note_on channel=0 note=32 velocity=103 time=0.002941175
EXTRACT: note_on channel=7 note=83 velocity=0 time=0
EXTRACT: note_on channel=9 note=51 velocity=88 time=0.002941175
EXTRACT: note_on channel=1 note=51 velocity=80 time=0.002941175
EXTRACT: note_on channel=9 note=51 velocity=0 time=0.0941176
EXTRACT: note_on channel=9 note=35 velocity=0 time=0.0235294
EXTRACT: note_on channel=9 note=36 velocity=0 time=0
EXTRACT: note_on channel=9 note=38 velocity=89 time=0.23235282499999999
EXTRACT: note_on channel=9 note=40 velocity=89 time=0
EXTRACT: note_on channel=9 note=41 velocity=57 time=0
EXTRACT: note_on channel=9 note=51 velocity=95 time=0
EXTRACT: note_on channel=9 note=53 velocity=63 time=0
EXTRACT: note_on channel=9 note=53 velocity=0 time=0.11176465
EXTRACT: note_on channel=9 note=51 velocity=0 time=0
EXTRACT: note_on channel=9 note=38 velocity=0 time=0.020588224999999998
EXTRACT: note_on channel=9 note=40 velocity=0 time=0
EXTRACT: note_on channel=9 note=41 velocity=0 time=0
EXTRACT: note_on channel=1 note=63 velocity=0 time=0.02941175
EXTRACT: note_on channel=1 note=59 velocity=0 time=0
EXTRACT: note_on channel=1 note=59 velocity=66 time=0.00588235
EXTRACT: note_on channel=1 note=63 velocity=66 time=0
EXTRACT: note_on channel=1 note=66 velocity=0 time=0
EXTRACT: note_on channel=1 note=44 velocity=0 time=0.002941175
EXTRACT: note_on channel=1 note=51 velocity=0 time=0
EXTRACT: note_on channel=1 note=51 velocity=66 time=0.00588235
EXTRACT: note_on channel=1 note=66 velocity=66 time=0
EXTRACT: note_on channel=1 note=44 velocity=57 time=0.0117647
EXTRACT: note_on channel=0 note=32 velocity=0 time=0.1058823
EXTRACT: note_on channel=1 note=59 velocity=0 time=0.026470575
EXTRACT: note_on channel=1 note=44 velocity=0 time=0
EXTRACT: note_on channel=1 note=59 velocity=76 time=0.002941175
EXTRACT: note_on channel=1 note=44 velocity=67 time=0
EXTRACT: note_on channel=1 note=63 velocity=0 time=0.008823524999999999
EXTRACT: note_on channel=1 note=66 velocity=0 time=0.002941175
EXTRACT: note_on channel=1 note=51 velocity=0 time=0.00588235
EXTRACT: note_on channel=1 note=66 velocity=76 time=0
EXTRACT: note_on channel=1 note=63 velocity=76 time=0
EXTRACT: note_on channel=1 note=51 velocity=76 time=0.00588235
EXTRACT: note_on channel=0 note=32 velocity=110 time=0.00588235
EXTRACT: note_on channel=9 note=51 velocity=85 time=0
EXTRACT: note_on channel=9 note=51 velocity=0 time=0.09999994999999999
EXTRACT: note_on channel=0 note=32 velocity=0 time=0.032352925
EXTRACT: note_on channel=5 note=44 velocity=0 time=0.017647049999999997
EXTRACT: note_on channel=5 note=59 velocity=0 time=0.002941175
EXTRACT: note_on channel=5 note=63 velocity=0 time=0.0117647
EXTRACT: note_on channel=5 note=64 velocity=80 time=0.00588235
EXTRACT: note_on channel=0 note=32 velocity=110 time=0.00588235
EXTRACT: note_on channel=5 note=61 velocity=80 time=0.049999974999999995
EXTRACT: note_on channel=2 note=78 velocity=0 time=0.0235294
EXTRACT: note_on channel=5 note=45 velocity=80 time=0.02941175
EXTRACT: note_on channel=2 note=80 velocity=0 time=0.014705875
EXTRACT: note_on channel=1 note=59 velocity=0 time=0.017647049999999997
EXTRACT: note_on channel=1 note=44 velocity=0 time=0
EXTRACT: note_on channel=2 note=71 velocity=0 time=0
EXTRACT: note_on channel=1 note=63 velocity=0 time=0.017647049999999997
EXTRACT: note_on channel=1 note=66 velocity=0 time=0
EXTRACT: note_on channel=5 note=61 velocity=0 time=0.002941175
EXTRACT: note_on channel=1 note=51 velocity=0 time=0.002941175
EXTRACT: note_on channel=1 note=64 velocity=87 time=0
EXTRACT: note_on channel=0 note=32 velocity=0 time=0.002941175
EXTRACT: note_on channel=1 note=45 velocity=76 time=0
EXTRACT: note_on channel=5 note=64 velocity=0 time=0.002941175
EXTRACT: note_on channel=5 note=61 velocity=84 time=0
EXTRACT: note_on channel=1 note=61 velocity=87 time=0.00588235
EXTRACT: note_on channel=2 note=76 velocity=58 time=0
EXTRACT: note_on channel=5 note=64 velocity=80 time=0
EXTRACT: note_on channel=0 note=33 velocity=104 time=0.002941175
EXTRACT: note_on channel=7 note=83 velocity=64 time=0
EXTRACT: note_on channel=2 note=73 velocity=58 time=0.002941175
EXTRACT: note_on channel=2 note=81 velocity=58 time=0
EXTRACT: note_on channel=9 note=36 velocity=90 time=0
EXTRACT: note_on channel=9 note=51 velocity=82 time=0
EXTRACT: note_on channel=9 note=35 velocity=90 time=0
EXTRACT: note_on channel=1 note=57 velocity=87 time=0.002941175
EXTRACT: note_on channel=5 note=45 velocity=0 time=0.002941175
EXTRACT: note_on channel=1 note=52 velocity=76 time=0.002941175
EXTRACT: note_on channel=5 note=45 velocity=125 time=0.002941175
EXTRACT: note_on channel=7 note=85 velocity=64 time=0
EXTRACT: note_on channel=7 note=83 velocity=0 time=0.09117642499999999
EXTRACT: note_on channel=9 note=35 velocity=0 time=0.02941175
EXTRACT: note_on channel=9 note=51 velocity=0 time=0
EXTRACT: note_on channel=9 note=36 velocity=0 time=0
EXTRACT: note_on channel=0 note=32 velocity=104 time=0.220588125
EXTRACT: note_on channel=7 note=83 velocity=64 time=0
EXTRACT: note_on channel=9 note=51 velocity=85 time=0
EXTRACT: note_on channel=9 note=53 velocity=59 time=0.017647049999999997
EXTRACT: note_on channel=0 note=33 velocity=0 time=0.008823524999999999
EXTRACT: note_on channel=7 note=85 velocity=0 time=0
EXTRACT: note_on channel=9 note=51 velocity=0 time=0.038235275
EXTRACT: note_on channel=1 note=64 velocity=0 time=0.067647025
EXTRACT: note_on channel=1 note=45 velocity=0 time=0.00588235
EXTRACT: note_on channel=1 note=61 velocity=0 time=0.008823524999999999
EXTRACT: note_on channel=9 note=53 velocity=0 time=0.002941175
EXTRACT: note_on channel=1 note=57 velocity=0 time=0.00588235
EXTRACT: note_on channel=1 note=52 velocity=0 time=0.002941175
EXTRACT: note_on channel=1 note=61 velocity=72 time=0.002941175
EXTRACT: note_on channel=1 note=64 velocity=72 time=0.002941175
EXTRACT: note_on channel=1 note=45 velocity=63 time=0.002941175
EXTRACT: note_on channel=9 note=35 velocity=90 time=0.008823524999999999
EXTRACT: note_on channel=9 note=36 velocity=90 time=0
EXTRACT: note_on channel=1 note=52 velocity=63 time=0.008823524999999999
EXTRACT: note_on channel=1 note=57 velocity=72 time=0
EXTRACT: note_on channel=9 note=36 velocity=0 time=0.12352935
EXTRACT: note_on channel=9 note=35 velocity=0 time=0
EXTRACT: note_on channel=1 note=57 velocity=0 time=0.014705875
EXTRACT: note_on channel=1 note=61 velocity=0 time=0.00588235
EXTRACT: note_on channel=1 note=57 velocity=84 time=0.002941175
EXTRACT: note_on channel=1 note=61 velocity=84 time=0
EXTRACT: note_on channel=1 note=64 velocity=0 time=0
EXTRACT: note_on channel=1 note=45 velocity=0 time=0.002941175
EXTRACT: note_on channel=1 note=52 velocity=0 time=0.002941175
EXTRACT: note_on channel=7 note=81 velocity=64 time=0
EXTRACT: note_on channel=9 note=38 velocity=89 time=0.002941175
EXTRACT: note_on channel=9 note=40 velocity=89 time=0
EXTRACT: note_on channel=1 note=45 velocity=73 time=0.002941175
EXTRACT: note_on channel=1 note=52 velocity=73 time=0.002941175
EXTRACT: note_on channel=0 note=30 velocity=104 time=0.002941175
EXTRACT: note_on channel=1 note=64 velocity=84 time=0.002941175
EXTRACT: note_on channel=9 note=35 velocity=90 time=0
EXTRACT: note_on channel=9 note=36 velocity=90 time=0
EXTRACT: note_on channel=9 note=41 velocity=51 time=0
EXTRACT: note_on channel=9 note=51 velocity=95 time=0
EXTRACT: note_on channel=0 note=32 velocity=0 time=0.014705875
EXTRACT: note_on channel=7 note=83 velocity=0 time=0.041176449999999996
EXTRACT: note_on channel=9 note=51 velocity=0 time=0.038235275
EXTRACT: note_on channel=9 note=38 velocity=0 time=0.026470575
EXTRACT: note_on channel=9 note=40 velocity=0 time=0
EXTRACT: note_on channel=9 note=36 velocity=0 time=0.0117647
EXTRACT: note_on channel=9 note=41 velocity=0 time=0
EXTRACT: note_on channel=9 note=35 velocity=0 time=0
EXTRACT: note_on channel=5 note=64 velocity=0 time=0.008823524999999999
EXTRACT: note_on channel=5 note=61 velocity=0 time=0.02941175
EXTRACT: note_on channel=5 note=64 velocity=80 time=0
EXTRACT: note_on channel=5 note=45 velocity=0 time=0.02941175
EXTRACT: note_on channel=5 note=56 velocity=80 time=0.00588235
EXTRACT: note_on channel=5 note=40 velocity=80 time=0.041176449999999996
EXTRACT: note_on channel=1 note=61 velocity=0 time=0.07647055
EXTRACT: note_on channel=1 note=57 velocity=0 time=0
EXTRACT: note_on channel=1 note=45 velocity=0 time=0.0117647
EXTRACT: note_on channel=5 note=40 velocity=0 time=0
EXTRACT: note_on channel=5 note=56 velocity=0 time=0
EXTRACT: note_on channel=0 note=30 velocity=0 time=0.00588235
EXTRACT: note_on channel=1 note=52 velocity=0 time=0
EXTRACT: note_on channel=5 note=64 velocity=0 time=0
EXTRACT: note_on channel=1 note=64 velocity=0 time=0.002941175
EXTRACT: note_on channel=1 note=47 velocity=86 time=0
EXTRACT: note_on channel=5 note=56 velocity=84 time=0
EXTRACT: note_on channel=1 note=64 velocity=86 time=0.002941175
EXTRACT: note_on channel=2 note=80 velocity=58 time=0
EXTRACT: note_on channel=7 note=81 velocity=0 time=0
EXTRACT: note_on channel=2 note=81 velocity=0 time=0.002941175
EXTRACT: note_on channel=2 note=71 velocity=58 time=0
EXTRACT: note_on channel=0 note=28 velocity=104 time=0.002941175
EXTRACT: note_on channel=5 note=64 velocity=80 time=0
EXTRACT: note_on channel=9 note=36 velocity=97 time=0
EXTRACT: note_on channel=9 note=35 velocity=97 time=0
EXTRACT: note_on channel=9 note=51 velocity=85 time=0
EXTRACT: note_on channel=9 note=53 velocity=55 time=0
EXTRACT: note_on channel=1 note=52 velocity=86 time=0.002941175
EXTRACT: note_on channel=5 note=40 velocity=125 time=0.002941175
EXTRACT: note_on channel=1 note=59 velocity=86 time=0.002941175
EXTRACT: note_on channel=1 note=40 velocity=76 time=0.00588235
EXTRACT: note_on channel=7 note=83 velocity=64 time=0
EXTRACT: note_on channel=2 note=73 velocity=0 time=0.05294115
EXTRACT: note_on channel=9 note=53 velocity=0 time=0.032352925
EXTRACT: note_on channel=9 note=51 velocity=0 time=0
EXTRACT: note_on channel=9 note=35 velocity=0 time=0.032352925
EXTRACT: note_on channel=9 note=36 velocity=0 time=0
EXTRACT: note_on channel=9 note=41 velocity=43 time=0.032352925
EXTRACT: note_on channel=9 note=41 velocity=0 time=0.13235287499999998
EXTRACT: note_on channel=9 note=51 velocity=85 time=0.055882325
EXTRACT: note_on channel=9 note=51 velocity=0 time=0.102941125
EXTRACT: note_on channel=1 note=47 velocity=0 time=0.038235275
EXTRACT: note_on channel=1 note=64 velocity=0 time=0.002941175
EXTRACT: note_on channel=1 note=52 velocity=0 time=0.008823524999999999
EXTRACT: note_on channel=1 note=59 velocity=0 time=0.00588235
EXTRACT: note_on channel=1 note=40 velocity=0 time=0.00588235
EXTRACT: note_on channel=1 note=59 velocity=77 time=0.002941175
EXTRACT: note_on channel=1 note=52 velocity=77 time=0.00588235
EXTRACT: note_on channel=1 note=40 velocity=67 time=0.002941175
EXTRACT: note_on channel=9 note=38 velocity=81 time=0
EXTRACT: note_on channel=9 note=40 velocity=81 time=0
EXTRACT: note_on channel=1 note=47 velocity=77 time=0.0117647
EXTRACT: note_on channel=1 note=64 velocity=77 time=0
EXTRACT: note_on channel=9 note=40 velocity=0 time=0.12058817499999999
EXTRACT: note_on channel=9 note=38 velocity=0 time=0
EXTRACT: note_on channel=1 note=52 velocity=0 time=0.008823524999999999
EXTRACT: note_on channel=1 note=40 velocity=0 time=0.002941175
EXTRACT: note_on channel=1 note=59 velocity=0 time=0.00588235
EXTRACT: note_on channel=1 note=52 velocity=78 time=0
EXTRACT: note_on channel=1 note=59 velocity=78 time=0.00588235
EXTRACT: note_on channel=1 note=40 velocity=67 time=0
EXTRACT: note_on channel=1 note=64 velocity=0 time=0.002941175
EXTRACT: note_on channel=1 note=64 velocity=78 time=0.00588235
EXTRACT: note_on channel=9 note=36 velocity=90 time=0
EXTRACT: note_on channel=9 note=35 velocity=90 time=0
EXTRACT: note_on channel=1 note=47 velocity=0 time=0.00588235
EXTRACT: note_on channel=9 note=51 velocity=88 time=0.00588235
EXTRACT: note_on channel=1 note=47 velocity=78 time=0.002941175
EXTRACT: note_on channel=9 note=51 velocity=0 time=0.0941176
EXTRACT: note_on channel=9 note=35 velocity=0 time=0.0235294
EXTRACT: note_on channel=9 note=36 velocity=0 time=0
EXTRACT: note_on channel=0 note=39 velocity=102 time=0.22941165
EXTRACT: note_on channel=9 note=38 velocity=89 time=0.002941175
EXTRACT: note_on channel=9 note=40 velocity=89 time=0
EXTRACT: note_on channel=9 note=41 velocity=57 time=0
EXTRACT: note_on channel=9 note=51 velocity=95 time=0
EXTRACT: note_on channel=9 note=53 velocity=63 time=0
EXTRACT: note_on channel=0 note=28 velocity=0 time=0.026470575
EXTRACT: pitchwheel channel=0 pitch=381 time=0.035294099999999995
EXTRACT: pitchwheel channel=0 pitch=763 time=0.014705875
EXTRACT: pitchwheel channel=0 pitch=1528 time=0.017647049999999997
EXTRACT: pitchwheel channel=0 pitch=2293 time=0.014705875
EXTRACT: note_on channel=9 note=53 velocity=0 time=0.002941175
EXTRACT: note_on channel=9 note=51 velocity=0 time=0
EXTRACT: pitchwheel channel=0 pitch=2676 time=0.0117647
EXTRACT: note_on channel=9 note=38 velocity=0 time=0.008823524999999999
EXTRACT: note_on channel=9 note=40 velocity=0 time=0
EXTRACT: note_on channel=9 note=41 velocity=0 time=0
EXTRACT: pitchwheel channel=0 pitch=3058 time=0.00588235
EXTRACT: note_on channel=7 note=80 velocity=64 time=0.014705875
EXTRACT: note_on channel=1 note=59 velocity=0 time=0.00588235
EXTRACT: note_on channel=1 note=52 velocity=0 time=0
EXTRACT: note_on channel=1 note=64 velocity=0 time=0.008823524999999999
EXTRACT: note_on channel=1 note=52 velocity=59 time=0
EXTRACT: note_on channel=1 note=59 velocity=59 time=0
EXTRACT: note_on channel=1 note=40 velocity=0 time=0
EXTRACT: note_on channel=1 note=47 velocity=0 time=0.002941175
EXTRACT: note_on channel=7 note=83 velocity=0 time=0
EXTRACT: note_on channel=1 note=47 velocity=59 time=0.00588235
EXTRACT: note_on channel=1 note=64 velocity=59 time=0
EXTRACT: note_on channel=1 note=40 velocity=52 time=0.0117647
EXTRACT: pitchwheel channel=0 pitch=3441 time=0.014705875
EXTRACT: note_on channel=1 note=47 velocity=0 time=0.0588235
EXTRACT: pitchwheel channel=0 pitch=3826 time=0.002941175
EXTRACT: note_on channel=1 note=52 velocity=0 time=0.0117647
EXTRACT: note_on channel=1 note=40 velocity=0 time=0.002941175
EXTRACT: note_on channel=7 note=80 velocity=0 time=0.002941175
EXTRACT: note_on channel=1 note=59 velocity=0 time=0.00588235
EXTRACT: note_on channel=1 note=64 velocity=0 time=0.00588235
EXTRACT: note_on channel=1 note=52 velocity=74 time=0.02941175
EXTRACT: note_on channel=1 note=40 velocity=65 time=0
EXTRACT: note_on channel=1 note=64 velocity=74 time=0.017647049999999997
EXTRACT: note_on channel=1 note=59 velocity=74 time=0
EXTRACT: note_on channel=7 note=83 velocity=64 time=0
EXTRACT: note_on channel=1 note=47 velocity=74 time=0.00588235
EXTRACT: note_on channel=9 note=51 velocity=85 time=0.00588235
EXTRACT: note_on channel=9 note=51 velocity=0 time=0.09999994999999999
EXTRACT: pitchwheel channel=0 pitch=2948 time=0.0470588
EXTRACT: note_on channel=5 note=40 velocity=0 time=0.002941175
EXTRACT: note_on channel=5 note=56 velocity=0 time=0.002941175
EXTRACT: pitchwheel channel=0 pitch=2620 time=0.008823524999999999
EXTRACT: note_on channel=5 note=64 velocity=0 time=0.002941175
EXTRACT: note_on channel=5 note=61 velocity=80 time=0.00588235
EXTRACT: pitchwheel channel=0 pitch=1965 time=0.00588235
EXTRACT: pitchwheel channel=0 pitch=1309 time=0.0235294
EXTRACT: pitchwheel channel=0 pitch=982 time=0.008823524999999999
EXTRACT: pitchwheel channel=0 pitch=654 time=0.014705875
EXTRACT: note_on channel=5 note=58 velocity=80 time=0.002941175
EXTRACT: pitchwheel channel=0 pitch=327 time=0.0117647
EXTRACT: note_on channel=7 note=82 velocity=64 time=0.00588235
EXTRACT: pitchwheel channel=0 pitch=0 time=0.0117647
EXTRACT: note_on channel=5 note=42 velocity=80 time=0.0235294
EXTRACT: note_on channel=7 note=83 velocity=0 time=0.002941175
EXTRACT: note_on channel=1 note=40 velocity=0 time=0.014705875
EXTRACT: note_on channel=1 note=52 velocity=0 time=0
EXTRACT: note_on channel=1 note=59 velocity=0 time=0.017647049999999997
EXTRACT: note_on channel=1 note=64 velocity=0 time=0
EXTRACT: note_on channel=1 note=47 velocity=0 time=0.00588235
EXTRACT: note_on channel=2 note=80 velocity=0 time=0.002941175
EXTRACT: pitchwheel channel=0 pitch=0 time=0.00588235
EXTRACT: note_on channel=5 note=58 velocity=0 time=0.002941175
EXTRACT: note_on channel=1 note=66 velocity=87 time=0.002941175
EXTRACT: note_on channel=1 note=42 velocity=76 time=0.002941175
EXTRACT: note_on channel=5 note=61 velocity=0 time=0.002941175
EXTRACT: note_on channel=5 note=58 velocity=84 time=0
EXTRACT: note_on channel=1 note=61 velocity=87 time=0.00588235
EXTRACT: note_on channel=2 note=82 velocity=58 time=0
EXTRACT: note_on channel=5 note=61 velocity=80 time=0
EXTRACT: note_on channel=0 note=30 velocity=104 time=0.00588235
EXTRACT: note_on channel=9 note=36 velocity=90 time=0
EXTRACT: note_on channel=9 note=51 velocity=82 time=0
EXTRACT: note_on channel=9 note=35 velocity=90 time=0
EXTRACT: note_on channel=0 note=39 velocity=0 time=0.002941175
EXTRACT: note_on channel=1 note=54 velocity=87 time=0
EXTRACT: note_on channel=2 note=73 velocity=58 time=0
EXTRACT: note_on channel=2 note=78 velocity=58 time=0
EXTRACT: note_on channel=5 note=42 velocity=0 time=0.002941175
EXTRACT: note_on channel=1 note=49 velocity=76 time=0.002941175
EXTRACT: note_on channel=5 note=42 velocity=125 time=0.002941175
EXTRACT: note_on channel=2 note=71 velocity=0 time=0.014705875
EXTRACT: note_on channel=2 note=76 velocity=0 time=0.020588224999999998
EXTRACT: note_on channel=9 note=35 velocity=0 time=0.085294075
EXTRACT: note_on channel=9 note=51 velocity=0 time=0
EXTRACT: note_on channel=9 note=36 velocity=0 time=0
EXTRACT: note_on channel=9 note=51 velocity=85 time=0.220588125
EXTRACT: note_on channel=9 note=51 velocity=0 time=0.06470585
EXTRACT: note_on channel=1 note=66 velocity=0 time=0.079411725
EXTRACT: note_on channel=1 note=42 velocity=0 time=0.002941175
EXTRACT: note_on channel=1 note=61 velocity=0 time=0.008823524999999999
EXTRACT: note_on channel=1 note=61 velocity=72 time=0.00588235
EXTRACT: note_on channel=1 note=54 velocity=0 time=0.002941175
EXTRACT: note_on channel=1 note=66 velocity=72 time=0
EXTRACT: note_on channel=0 note=30 velocity=0 time=0.002941175
EXTRACT: note_on channel=1 note=42 velocity=63 time=0
EXTRACT: note_on channel=1 note=49 velocity=0 time=0.002941175
EXTRACT: note_on channel=0 note=30 velocity=104 time=0.002941175
EXTRACT: note_on channel=9 note=35 velocity=90 time=0.002941175
EXTRACT: note_on channel=9 note=36 velocity=90 time=0
EXTRACT: note_on channel=1 note=49 velocity=63 time=0.008823524999999999
EXTRACT: note_on channel=1 note=54 velocity=72 time=0
EXTRACT: note_on channel=0 note=30 velocity=0 time=0.12058817499999999
EXTRACT: note_on channel=9 note=36 velocity=0 time=0.002941175
EXTRACT: note_on channel=9 note=35 velocity=0 time=0
EXTRACT: note_on channel=1 note=54 velocity=0 time=0.017647049999999997
EXTRACT: note_on channel=1 note=61 velocity=0 time=0.002941175
EXTRACT: note_on channel=1 note=54 velocity=84 time=0.002941175
EXTRACT: note_on channel=1 note=61 velocity=84 time=0
EXTRACT: note_on channel=1 note=66 velocity=0 time=0
EXTRACT: note_on channel=1 note=42 velocity=0 time=0.002941175
EXTRACT: note_on channel=9 note=38 velocity=89 time=0.00588235
EXTRACT: note_on channel=9 note=40 velocity=89 time=0
EXTRACT: note_on channel=1 note=49 velocity=0 time=0.002941175
EXTRACT: note_on channel=1 note=42 velocity=73 time=0
EXTRACT: note_on channel=1 note=49 velocity=73 time=0.002941175
EXTRACT: note_on channel=0 note=30 velocity=104 time=0.002941175
EXTRACT: note_on channel=1 note=66 velocity=84 time=0.002941175
EXTRACT: note_on channel=9 note=35 velocity=90 time=0
EXTRACT: note_on channel=9 note=36 velocity=90 time=0
EXTRACT: note_on channel=9 note=41 velocity=51 time=0
EXTRACT: note_on channel=9 note=51 velocity=95 time=0
EXTRACT: note_on channel=9 note=51 velocity=0 time=0.0941176
EXTRACT: note_on channel=9 note=38 velocity=0 time=0.026470575
EXTRACT: note_on channel=9 note=40 velocity=0 time=0
EXTRACT: note_on channel=9 note=36 velocity=0 time=0.0117647
EXTRACT: note_on channel=9 note=41 velocity=0 time=0
EXTRACT: note_on channel=9 note=35 velocity=0 time=0
EXTRACT: note_on channel=5 note=61 velocity=0 time=0.008823524999999999
EXTRACT: note_on channel=5 note=58 velocity=0 time=0.02941175
EXTRACT: note_on channel=5 note=61 velocity=80 time=0
EXTRACT: note_on channel=5 note=42 velocity=0 time=0.035294099999999995
EXTRACT: note_on channel=5 note=58 velocity=80 time=0
EXTRACT: note_on channel=5 note=42 velocity=80 time=0.041176449999999996
EXTRACT: note_on channel=0 note=30 velocity=0 time=0.020588224999999998
EXTRACT: note_on channel=1 note=49 velocity=0 time=0.0588235
EXTRACT: note_on channel=1 note=54 velocity=0 time=0.008823524999999999
EXTRACT: note_on channel=1 note=61 velocity=0 time=0
EXTRACT: note_on channel=5 note=42 velocity=0 time=0
EXTRACT: note_on channel=5 note=58 velocity=0 time=0
EXTRACT: note_on channel=5 note=61 velocity=0 time=0.00588235
EXTRACT: note_on channel=1 note=66 velocity=0 time=0.002941175
EXTRACT: note_on channel=1 note=49 velocity=83 time=0
EXTRACT: note_on channel=5 note=58 velocity=84 time=0
EXTRACT: note_on channel=1 note=42 velocity=0 time=0.002941175
EXTRACT: note_on channel=1 note=66 velocity=83 time=0
EXTRACT: note_on channel=0 note=30 velocity=104 time=0.00588235
EXTRACT: note_on channel=5 note=61 velocity=80 time=0
EXTRACT: note_on channel=9 note=36 velocity=97 time=0
EXTRACT: note_on channel=9 note=35 velocity=97 time=0
EXTRACT: note_on channel=9 note=51 velocity=85 time=0
EXTRACT: note_on channel=9 note=53 velocity=55 time=0
EXTRACT: note_on channel=1 note=54 velocity=83 time=0.002941175
EXTRACT: note_on channel=5 note=42 velocity=125 time=0.002941175
EXTRACT: note_on channel=1 note=61 velocity=83 time=0.002941175
EXTRACT: note_on channel=1 note=42 velocity=73 time=0.00588235
EXTRACT: note_on channel=9 note=53 velocity=0 time=0.085294075
EXTRACT: note_on channel=9 note=51 velocity=0 time=0
EXTRACT: note_on channel=9 note=35 velocity=0 time=0.032352925
EXTRACT: note_on channel=9 note=36 velocity=0 time=0
EXTRACT: note_on channel=9 note=41 velocity=43 time=0.032352925
EXTRACT: note_on channel=9 note=41 velocity=0 time=0.13235287499999998
EXTRACT: note_on channel=9 note=51 velocity=85 time=0.055882325
EXTRACT: control_change channel=2 control=1 value=38 time=0.00588235
EXTRACT: control_change channel=2 control=1 value=37 time=0.055882325
EXTRACT: note_on channel=9 note=51 velocity=0 time=0.041176449999999996
EXTRACT: control_change channel=2 control=1 value=36 time=0.017647049999999997
EXTRACT: note_on channel=1 note=49 velocity=0 time=0.020588224999999998
EXTRACT: note_on channel=1 note=66 velocity=0 time=0.002941175
EXTRACT: note_on channel=1 note=54 velocity=0 time=0.008823524999999999
EXTRACT: note_on channel=1 note=61 velocity=0 time=0.00588235
EXTRACT: note_on channel=1 note=42 velocity=0 time=0.00588235
EXTRACT: note_on channel=1 note=61 velocity=74 time=0.002941175
EXTRACT: note_on channel=0 note=46 velocity=104 time=0.00588235
EXTRACT: note_on channel=1 note=54 velocity=74 time=0
EXTRACT: note_on channel=1 note=42 velocity=65 time=0.002941175
EXTRACT: note_on channel=9 note=38 velocity=81 time=0
EXTRACT: note_on channel=9 note=40 velocity=81 time=0
EXTRACT: control_change channel=2 control=1 value=35 time=0.002941175
EXTRACT: note_on channel=0 note=30 velocity=0 time=0.00588235
EXTRACT: pitchwheel channel=0 pitch=327 time=0
EXTRACT: note_on channel=1 note=49 velocity=74 time=0.002941175
EXTRACT: note_on channel=1 note=66 velocity=74 time=0
EXTRACT: pitchwheel channel=0 pitch=654 time=0.0117647
EXTRACT: pitchwheel channel=0 pitch=982 time=0.017647049999999997
EXTRACT: pitchwheel channel=0 pitch=1309 time=0.014705875
EXTRACT: control_change channel=2 control=1 value=34 time=0.00588235
EXTRACT: pitchwheel channel=0 pitch=1965 time=0.008823524999999999
EXTRACT: pitchwheel channel=0 pitch=2292 time=0.032352925
EXTRACT: control_change channel=2 control=1 value=33 time=0.017647049999999997
EXTRACT: pitchwheel channel=0 pitch=2620 time=0.0117647
EXTRACT: note_on channel=9 note=40 velocity=0 time=0
EXTRACT: note_on channel=9 note=38 velocity=0 time=0
EXTRACT: note_on channel=1 note=54 velocity=0 time=0.008823524999999999
EXTRACT: note_on channel=1 note=42 velocity=0 time=0.002941175
EXTRACT: note_on channel=1 note=61 velocity=0 time=0.00588235
EXTRACT: note_on channel=1 note=54 velocity=75 time=0
EXTRACT: note_on channel=1 note=61 velocity=75 time=0.00588235
EXTRACT: note_on channel=1 note=42 velocity=65 time=0
EXTRACT: note_on channel=1 note=66 velocity=0 time=0.002941175
EXTRACT: note_on channel=1 note=66 velocity=75 time=0.00588235
EXTRACT: note_on channel=9 note=36 velocity=90 time=0
EXTRACT: note_on channel=9 note=35 velocity=90 time=0
EXTRACT: note_on channel=1 note=49 velocity=0 time=0.00588235
EXTRACT: note_on channel=9 note=51 velocity=88 time=0.00588235
EXTRACT: note_on channel=1 note=49 velocity=75 time=0.002941175
EXTRACT: control_change channel=2 control=1 value=32 time=0
EXTRACT: control_change channel=2 control=1 value=31 time=0.0588235
EXTRACT: note_on channel=9 note=51 velocity=0 time=0.035294099999999995
EXTRACT: pitchwheel channel=0 pitch=2292 time=0.014705875
EXTRACT: control_change channel=2 control=1 value=30 time=0.008823524999999999
EXTRACT: note_on channel=9 note=35 velocity=0 time=0
EXTRACT: note_on channel=9 note=36 velocity=0 time=0
EXTRACT: pitchwheel channel=0 pitch=1638 time=0.008823524999999999
EXTRACT: pitchwheel channel=0 pitch=654 time=0.014705875
EXTRACT: pitchwheel channel=0 pitch=327 time=0.014705875
EXTRACT: pitchwheel channel=0 pitch=0 time=0.014705875
EXTRACT: control_change channel=2 control=1 value=29 time=0.00588235
EXTRACT: control_change channel=2 control=1 value=28 time=0.055882325
EXTRACT: pitchwheel channel=0 pitch=0 time=0.0235294
EXTRACT: control_change channel=2 control=1 value=27 time=0.035294099999999995
EXTRACT: note_on channel=1 note=61 velocity=0 time=0.041176449999999996
EXTRACT: note_on channel=1 note=54 velocity=0 time=0
EXTRACT: note_on channel=1 note=66 velocity=0 time=0.008823524999999999
EXTRACT: note_on channel=1 note=54 velocity=57 time=0
EXTRACT: note_on channel=1 note=61 velocity=57 time=0
EXTRACT: note_on channel=1 note=42 velocity=0 time=0
EXTRACT: note_on channel=1 note=49 velocity=0 time=0.002941175
EXTRACT: note_on channel=0 note=42 velocity=104 time=0.00588235
EXTRACT: note_on channel=1 note=49 velocity=57 time=0
EXTRACT: note_on channel=1 note=66 velocity=57 time=0
EXTRACT: control_change channel=2 control=1 value=26 time=0
EXTRACT: note_on channel=9 note=38 velocity=89 time=0
EXTRACT: note_on channel=9 note=40 velocity=89 time=0
EXTRACT: note_on channel=9 note=41 velocity=57 time=0
EXTRACT: note_on channel=9 note=51 velocity=95 time=0
EXTRACT: note_on channel=9 note=53 velocity=63 time=0
EXTRACT: note_on channel=1 note=42 velocity=50 time=0.0117647
EXTRACT: note_on channel=7 note=82 velocity=0 time=0.00588235
EXTRACT: note_on channel=0 note=46 velocity=0 time=0.017647049999999997
EXTRACT: control_change channel=2 control=1 value=25 time=0.0235294
EXTRACT: control_change channel=2 control=11 value=88 time=0.0235294
EXTRACT: note_on channel=1 note=49 velocity=0 time=0.002941175
EXTRACT: note_on channel=1 note=54 velocity=0 time=0.014705875
EXTRACT: note_on channel=1 note=42 velocity=0 time=0.002941175
EXTRACT: note_on channel=1 note=61 velocity=0 time=0.008823524999999999
EXTRACT: note_on channel=9 note=53 velocity=0 time=0
EXTRACT: note_on channel=9 note=51 velocity=0 time=0
EXTRACT: control_change channel=2 control=11 value=86 time=0.002941175
EXTRACT: note_on channel=1 note=66 velocity=0 time=0.002941175
EXTRACT: control_change channel=2 control=1 value=24 time=0
EXTRACT: note_on channel=9 note=38 velocity=0 time=0.014705875
EXTRACT: note_on channel=9 note=40 velocity=0 time=0
EXTRACT: note_on channel=9 note=41 velocity=0 time=0
EXTRACT: control_change channel=2 control=11 value=85 time=0.0117647
EXTRACT: note_on channel=1 note=54 velocity=71 time=0.002941175
EXTRACT: note_on channel=1 note=42 velocity=63 time=0
EXTRACT: note_on channel=1 note=66 velocity=71 time=0.017647049999999997
EXTRACT: note_on channel=1 note=61 velocity=71 time=0
EXTRACT: note_on channel=1 note=49 velocity=71 time=0.00588235
EXTRACT: note_on channel=0 note=37 velocity=95 time=0.002941175
EXTRACT: control_change channel=2 control=1 value=23 time=0.002941175
EXTRACT: control_change channel=2 control=11 value=84 time=0
EXTRACT: note_on channel=0 note=42 velocity=0 time=0.008823524999999999
EXTRACT: control_change channel=5 control=11 value=112 time=0.020588224999999998
EXTRACT: control_change channel=2 control=11 value=83 time=0.002941175
EXTRACT: control_change channel=2 control=1 value=22 time=0.026470575
EXTRACT: control_change channel=5 control=11 value=110 time=0.002941175
EXTRACT: control_change channel=2 control=11 value=82 time=0.002941175
EXTRACT: control_change channel=2 control=11 value=81 time=0.032352925
EXTRACT: control_change channel=2 control=1 value=21 time=0.020588224999999998
EXTRACT: control_change channel=5 control=11 value=109 time=0.008823524999999999
EXTRACT: control_change channel=2 control=11 value=80 time=0.002941175
EXTRACT: control_change channel=5 control=11 value=108 time=0.02941175
EXTRACT: control_change channel=2 control=11 value=78 time=0.002941175
EXTRACT: note_on channel=0 note=35 velocity=95 time=0.0117647
EXTRACT: control_change channel=2 control=1 value=20 time=0.002941175
EXTRACT: note_on channel=9 note=51 velocity=85 time=0
EXTRACT: control_change channel=5 control=11 value=105 time=0.0117647
EXTRACT: control_change channel=2 control=11 value=77 time=0.00588235
EXTRACT: note_on channel=0 note=37 velocity=0 time=0.0117647
EXTRACT: control_change channel=5 control=11 value=103 time=0.014705875
EXTRACT: control_change channel=2 control=11 value=76 time=0.002941175
EXTRACT: control_change channel=2 control=1 value=19 time=0.0117647
EXTRACT: control_change channel=5 control=11 value=101 time=0.017647049999999997
EXTRACT: control_change channel=2 control=11 value=76 time=0.002941175
EXTRACT: note_on channel=9 note=51 velocity=0 time=0.020588224999999998
EXTRACT: control_change channel=5 control=11 value=98 time=0.008823524999999999
EXTRACT: control_change channel=2 control=11 value=75 time=0.002941175
EXTRACT: control_change channel=2 control=1 value=18 time=0.002941175
EXTRACT: control_change channel=5 control=11 value=95 time=0.026470575
EXTRACT: control_change channel=2 control=11 value=74 time=0.002941175
EXTRACT: control_change channel=2 control=1 value=17 time=0.02941175
EXTRACT: control_change channel=5 control=11 value=91 time=0
EXTRACT: control_change channel=1 control=93 value=60 time=0.002941175
EXTRACT: control_change channel=2 control=11 value=73 time=0
EXTRACT: control_change channel=5 control=11 value=88 time=0.026470575
EXTRACT: control_change channel=2 control=11 value=72 time=0.00588235
EXTRACT: control_change channel=2 control=1 value=16 time=0.0235294
EXTRACT: control_change channel=5 control=11 value=84 time=0.002941175
EXTRACT: control_change channel=2 control=11 value=71 time=0.00588235
EXTRACT: control_change channel=5 control=11 value=77 time=0.026470575
EXTRACT: control_change channel=2 control=11 value=70 time=0.00588235
EXTRACT: control_change channel=2 control=1 value=15 time=0.017647049999999997
EXTRACT: note_on channel=1 note=42 velocity=0 time=0.00588235
EXTRACT: note_on channel=1 note=54 velocity=0 time=0
EXTRACT: control_change channel=5 control=11 value=73 time=0.002941175
EXTRACT: control_change channel=2 control=11 value=69 time=0.002941175
EXTRACT: note_on channel=1 note=61 velocity=0 time=0.0117647
EXTRACT: note_on channel=1 note=66 velocity=0 time=0
EXTRACT: note_on channel=1 note=49 velocity=0 time=0.00588235
EXTRACT: control_change channel=5 control=11 value=68 time=0.0117647
EXTRACT: note_on channel=1 note=66 velocity=79 time=0.002941175
EXTRACT: control_change channel=2 control=11 value=68 time=0
EXTRACT: note_on channel=1 note=42 velocity=70 time=0.002941175
EXTRACT: note_on channel=1 note=61 velocity=79 time=0.008823524999999999
EXTRACT: control_change channel=2 control=1 value=14 time=0.002941175
EXTRACT: note_on channel=0 note=34 velocity=101 time=0.002941175
EXTRACT: note_on channel=6 note=61 velocity=64 time=0
EXTRACT: note_on channel=9 note=42 velocity=81 time=0
EXTRACT: note_on channel=9 note=36 velocity=90 time=0
EXTRACT: note_on channel=9 note=35 velocity=90 time=0
EXTRACT: note_on channel=1 note=54 velocity=79 time=0.002941175
EXTRACT: note_on channel=1 note=49 velocity=70 time=0.00588235
EXTRACT: control_change channel=5 control=11 value=61 time=0.002941175
EXTRACT: control_change channel=2 control=11 value=67 time=0.002941175
EXTRACT: note_on channel=0 note=35 velocity=0 time=0.017647049999999997
EXTRACT: control_change channel=5 control=11 value=56 time=0.008823524999999999
EXTRACT: control_change channel=2 control=11 value=66 time=0.00588235
EXTRACT: control_change channel=2 control=1 value=13 time=0.008823524999999999
EXTRACT: control_change channel=5 control=11 value=48 time=0.017647049999999997
EXTRACT: control_change channel=2 control=11 value=66 time=0.00588235
EXTRACT: control_change channel=5 control=11 value=41 time=0.026470575
EXTRACT: control_change channel=6 control=64 value=127 time=0.002941175
EXTRACT: control_change channel=2 control=11 value=64 time=0.002941175
EXTRACT: control_change channel=2 control=1 value=12 time=0.002941175
EXTRACT: note_on channel=9 note=35 velocity=0 time=0.017647049999999997
EXTRACT: note_on channel=9 note=36 velocity=0 time=0
EXTRACT: note_on channel=9 note=42 velocity=0 time=0
EXTRACT: control_change channel=5 control=11 value=34 time=0.00588235
EXTRACT: control_change channel=2 control=11 value=63 time=0.00588235
EXTRACT: control_change channel=5 control=11 value=24 time=0.026470575
EXTRACT: control_change channel=2 control=1 value=11 time=0.002941175
EXTRACT: control_change channel=2 control=11 value=62 time=0.002941175
EXTRACT: control_change channel=5 control=11 value=17 time=0.026470575
EXTRACT: control_change channel=2 control=11 value=61 time=0.002941175
EXTRACT: control_change channel=2 control=1 value=10 time=0.026470575
EXTRACT: control_change channel=5 control=11 value=8 time=0
EXTRACT: control_change channel=2 control=11 value=60 time=0.00588235
EXTRACT: control_change channel=5 control=11 value=0 time=0.026470575
EXTRACT: control_change channel=2 control=11 value=59 time=0.00588235
EXTRACT: control_change channel=2 control=1 value=9 time=0.017647049999999997
EXTRACT: control_change channel=2 control=11 value=58 time=0.014705875
EXTRACT: control_change channel=2 control=11 value=56 time=0.032352925
EXTRACT: control_change channel=2 control=1 value=8 time=0.0117647
EXTRACT: note_on channel=9 note=42 velocity=77 time=0.00588235
EXTRACT: control_change channel=2 control=11 value=55 time=0.014705875
EXTRACT: control_change channel=2 control=11 value=54 time=0.032352925
EXTRACT: control_change channel=2 control=1 value=7 time=0.00588235
EXTRACT: note_on channel=9 note=42 velocity=0 time=0.0117647
EXTRACT: note_on channel=6 note=61 velocity=0 time=0.008823524999999999
EXTRACT: control_change channel=2 control=11 value=54 time=0.00588235
EXTRACT: control_change channel=2 control=11 value=53 time=0.02941175
EXTRACT: control_change channel=2 control=1 value=6 time=0.002941175
EXTRACT: note_on channel=0 note=34 velocity=0 time=0.020588224999999998
EXTRACT: note_on channel=1 note=66 velocity=0 time=0
EXTRACT: note_on channel=1 note=42 velocity=0 time=0.00588235
EXTRACT: control_change channel=2 control=11 value=52 time=0.002941175
EXTRACT: note_on channel=1 note=61 velocity=0 time=0.00588235
EXTRACT: note_on channel=1 note=54 velocity=0 time=0.008823524999999999
EXTRACT: note_on channel=1 note=49 velocity=0 time=0.002941175
EXTRACT: note_on channel=1 note=61 velocity=66 time=0.002941175
EXTRACT: note_on channel=1 note=66 velocity=66 time=0.002941175
EXTRACT: note_on channel=1 note=42 velocity=57 time=0.002941175
EXTRACT: note_on channel=5 note=42 velocity=0 time=0
EXTRACT: control_change channel=2 control=1 value=5 time=0.002941175
EXTRACT: note_on channel=5 note=58 velocity=0 time=0
EXTRACT: note_on channel=0 note=34 velocity=103 time=0.002941175
EXTRACT: control_change channel=2 control=11 value=51 time=0
EXTRACT: note_on channel=9 note=35 velocity=90 time=0.002941175
EXTRACT: note_on channel=9 note=36 velocity=90 time=0
EXTRACT: note_on channel=5 note=61 velocity=0 time=0.00588235
EXTRACT: note_on channel=1 note=49 velocity=57 time=0.002941175
EXTRACT: note_on channel=1 note=54 velocity=66 time=0
EXTRACT: note_on channel=6 note=66 velocity=64 time=0.00588235
EXTRACT: control_change channel=2 control=11 value=49 time=0.014705875
EXTRACT: control_change channel=2 control=1 value=4 time=0.0235294
EXTRACT: control_change channel=2 control=11 value=48 time=0.008823524999999999
EXTRACT: control_change channel=2 control=11 value=48 time=0.032352925
EXTRACT: control_change channel=2 control=1 value=3 time=0.017647049999999997
EXTRACT: control_change channel=2 control=11 value=47 time=0.014705875
EXTRACT: note_on channel=9 note=36 velocity=0 time=0.00588235
EXTRACT: note_on channel=9 note=35 velocity=0 time=0
EXTRACT: note_on channel=6 note=66 velocity=0 time=0.00588235
EXTRACT: note_on channel=1 note=54 velocity=0 time=0.008823524999999999
EXTRACT: note_on channel=1 note=61 velocity=0 time=0.00588235
EXTRACT: note_on channel=1 note=54 velocity=72 time=0.002941175
EXTRACT: note_on channel=1 note=61 velocity=72 time=0
EXTRACT: note_on channel=1 note=66 velocity=0 time=0
EXTRACT: note_on channel=1 note=42 velocity=0 time=0.002941175
EXTRACT: control_change channel=2 control=11 value=46 time=0
EXTRACT: note_on channel=9 note=70 velocity=88 time=0
EXTRACT: note_on channel=1 note=49 velocity=0 time=0.002941175
EXTRACT: note_on channel=9 note=82 velocity=47 time=0.002941175
EXTRACT: note_on channel=9 note=42 velocity=99 time=0
EXTRACT: note_on channel=9 note=39 velocity=65 time=0
EXTRACT: note_on channel=9 note=40 velocity=81 time=0
EXTRACT: note_on channel=1 note=42 velocity=64 time=0.002941175
EXTRACT: note_on channel=1 note=49 velocity=64 time=0.002941175
EXTRACT: control_change channel=2 control=1 value=2 time=0
EXTRACT: note_on channel=1 note=66 velocity=72 time=0.00588235
EXTRACT: control_change channel=2 control=11 value=45 time=0.0117647
EXTRACT: control_change channel=2 control=11 value=44 time=0.032352925
EXTRACT: control_change channel=2 control=1 value=1 time=0.008823524999999999
EXTRACT: control_change channel=2 control=11 value=44 time=0.0235294
EXTRACT: note_on channel=9 note=42 velocity=0 time=0.00588235
EXTRACT: control_change channel=2 control=1 value=0 time=0.026470575
EXTRACT: control_change channel=2 control=11 value=42 time=0
EXTRACT: note_on channel=9 note=70 velocity=0 time=0.00588235
EXTRACT: note_on channel=9 note=82 velocity=0 time=0.00588235
EXTRACT: note_on channel=9 note=39 velocity=0 time=0
EXTRACT: note_on channel=9 note=40 velocity=0 time=0
EXTRACT: control_change channel=2 control=11 value=41 time=0.020588224999999998
EXTRACT: control_change channel=2 control=11 value=40 time=0.032352925
EXTRACT: control_change channel=2 control=11 value=39 time=0.032352925
EXTRACT: control_change channel=2 control=11 value=38 time=0.032352925
EXTRACT: control_change channel=2 control=11 value=37 time=0.02941175
EXTRACT: note_on channel=0 note=34 velocity=0 time=0.0235294
EXTRACT: control_change channel=2 control=11 value=36 time=0.008823524999999999
EXTRACT: note_on channel=1 note=61 velocity=0 time=0.0235294
EXTRACT: note_on channel=1 note=54 velocity=0 time=0
EXTRACT: control_change channel=2 control=11 value=34 time=0.008823524999999999
EXTRACT: note_on channel=1 note=42 velocity=0 time=0.002941175
EXTRACT: note_on channel=1 note=49 velocity=0 time=0.00588235
EXTRACT: note_on channel=1 note=66 velocity=0 time=0.002941175
EXTRACT: note_on channel=1 note=54 velocity=72 time=0
EXTRACT: note_on channel=1 note=66 velocity=72 time=0.002941175
EXTRACT: note_on channel=0 note=35 velocity=101 time=0.00588235
EXTRACT: note_on channel=6 note=63 velocity=64 time=0
EXTRACT: note_on channel=9 note=42 velocity=77 time=0
EXTRACT: note_on channel=9 note=36 velocity=97 time=0
EXTRACT: note_on channel=9 note=35 velocity=97 time=0
EXTRACT: note_on channel=1 note=59 velocity=72 time=0.002941175
EXTRACT: note_on channel=1 note=63 velocity=72 time=0.00588235
EXTRACT: control_change channel=2 control=11 value=33 time=0.002941175
EXTRACT: note_on channel=1 note=47 velocity=64 time=0.002941175
EXTRACT: control_change channel=2 control=11 value=32 time=0.02941175
EXTRACT: control_change channel=2 control=11 value=32 time=0.032352925
EXTRACT: note_on channel=6 note=63 velocity=0 time=0.0117647
EXTRACT: note_on channel=9 note=42 velocity=0 time=0.0117647
EXTRACT: control_change channel=2 control=11 value=31 time=0.008823524999999999
EXTRACT: note_on channel=9 note=35 velocity=0 time=0.0235294
EXTRACT: note_on channel=9 note=36 velocity=0 time=0
EXTRACT: control_change channel=2 control=11 value=30 time=0.008823524999999999
EXTRACT: control_change channel=2 control=11 value=29 time=0.02941175
EXTRACT: control_change channel=2 control=11 value=27 time=0.032352925
EXTRACT: control_change channel=2 control=11 value=26 time=0.032352925
EXTRACT: control_change channel=2 control=11 value=25 time=0.032352925
EXTRACT: control_change channel=5 control=11 value=112 time=0
EXTRACT: control_change channel=2 control=11 value=24 time=0.032352925
EXTRACT: control_change channel=2 control=11 value=24 time=0.032352925
EXTRACT: note_on channel=9 note=42 velocity=76 time=0.020588224999999998
EXTRACT: control_change channel=2 control=11 value=23 time=0.0117647
EXTRACT: control_change channel=2 control=11 value=22 time=0.02941175
EXTRACT: note_on channel=9 note=42 velocity=0 time=0.061764675
EXTRACT: note_on channel=2 note=82 velocity=0 time=0.008823524999999999
EXTRACT: note_on channel=2 note=78 velocity=0 time=0.020588224999999998
EXTRACT: note_on channel=2 note=73 velocity=0 time=0.00588235
EXTRACT: note_on channel=1 note=54 velocity=0 time=0.002941175
EXTRACT: note_on channel=1 note=66 velocity=0 time=0.002941175
EXTRACT: note_on channel=1 note=59 velocity=0 time=0.008823524999999999
EXTRACT: note_on channel=1 note=63 velocity=0 time=0.00588235
EXTRACT: note_on channel=1 note=47 velocity=0 time=0.00588235
EXTRACT: note_on channel=9 note=70 velocity=57 time=0
EXTRACT: note_on channel=1 note=63 velocity=60 time=0.002941175
EXTRACT: note_on channel=9 note=82 velocity=30 time=0.002941175
EXTRACT: note_on channel=1 note=59 velocity=60 time=0.002941175
EXTRACT: note_on channel=1 note=47 velocity=52 time=0.002941175
EXTRACT: note_on channel=9 note=40 velocity=46 time=0
EXTRACT: note_on channel=1 note=54 velocity=60 time=0.0117647
EXTRACT: note_on channel=1 note=66 velocity=60 time=0
EXTRACT: note_on channel=0 note=35 velocity=0 time=0.07058819999999999
EXTRACT: note_on channel=9 note=70 velocity=0 time=0.038235275
EXTRACT: note_on channel=9 note=82 velocity=0 time=0.00588235
EXTRACT: note_on channel=9 note=40 velocity=0 time=0.00588235
EXTRACT: note_on channel=1 note=59 velocity=0 time=0.0117647
EXTRACT: note_on channel=1 note=47 velocity=0 time=0.002941175
EXTRACT: note_on channel=1 note=63 velocity=0 time=0.002941175
EXTRACT: note_on channel=1 note=59 velocity=69 time=0
EXTRACT: note_on channel=1 note=63 velocity=69 time=0.00588235
EXTRACT: note_on channel=1 note=47 velocity=60 time=0
EXTRACT: note_on channel=5 note=61 velocity=76 time=0.002941175
EXTRACT: note_on channel=1 note=66 velocity=0 time=0.002941175
EXTRACT: note_on channel=1 note=66 velocity=69 time=0.002941175
EXTRACT: note_on channel=9 note=42 velocity=79 time=0
EXTRACT: note_on channel=9 note=36 velocity=90 time=0
EXTRACT: note_on channel=9 note=35 velocity=90 time=0
EXTRACT: note_on channel=1 note=54 velocity=0 time=0.00588235
EXTRACT: note_on channel=0 note=35 velocity=102 time=0.002941175
EXTRACT: note_on channel=1 note=54 velocity=69 time=0.00588235
EXTRACT: note_on channel=9 note=42 velocity=0 time=0.08235289999999999
EXTRACT: note_on channel=9 note=35 velocity=0 time=0.035294099999999995
EXTRACT: note_on channel=9 note=36 velocity=0 time=0
EXTRACT: note_on channel=5 note=63 velocity=71 time=0.026470575
EXTRACT: note_on channel=5 note=61 velocity=0 time=0.044117625
EXTRACT: note_on channel=9 note=70 velocity=88 time=0.155882275
EXTRACT: note_on channel=9 note=82 velocity=47 time=0.00588235
EXTRACT: note_on channel=9 note=42 velocity=99 time=0
EXTRACT: note_on channel=9 note=39 velocity=65 time=0
EXTRACT: note_on channel=9 note=40 velocity=81 time=0
EXTRACT: pitchwheel channel=5 pitch=264 time=0.038235275
EXTRACT: pitchwheel channel=5 pitch=1056 time=0.014705875
EXTRACT: pitchwheel channel=5 pitch=1585 time=0.017647049999999997
EXTRACT: pitchwheel channel=5 pitch=1849 time=0.014705875
EXTRACT: note_on channel=0 note=35 velocity=0 time=0.017647049999999997
EXTRACT: note_on channel=9 note=42 velocity=0 time=0.008823524999999999
EXTRACT: pitchwheel channel=5 pitch=1585 time=0.002941175
EXTRACT: note_on channel=9 note=70 velocity=0 time=0.0117647
EXTRACT: note_on channel=9 note=82 velocity=0 time=0.00588235
EXTRACT: note_on channel=9 note=39 velocity=0 time=0
EXTRACT: note_on channel=9 note=40 velocity=0 time=0
EXTRACT: pitchwheel channel=5 pitch=792 time=0.00588235
EXTRACT: pitchwheel channel=5 pitch=264 time=0.008823524999999999
EXTRACT: note_on channel=1 note=63 velocity=0 time=0.008823524999999999
EXTRACT: note_on channel=1 note=59 velocity=0 time=0.002941175
EXTRACT: pitchwheel channel=5 pitch=0 time=0.002941175
EXTRACT: note_on channel=1 note=66 velocity=0 time=0.002941175
EXTRACT: note_on channel=1 note=54 velocity=0 time=0.002941175
EXTRACT: note_on channel=1 note=59 velocity=57 time=0
EXTRACT: note_on channel=1 note=63 velocity=57 time=0
EXTRACT: note_on channel=1 note=47 velocity=0 time=0.002941175
EXTRACT: note_on channel=0 note=35 velocity=99 time=0.002941175
EXTRACT: note_on channel=1 note=54 velocity=57 time=0.002941175
EXTRACT: note_on channel=1 note=66 velocity=57 time=0
EXTRACT: note_on channel=1 note=47 velocity=49 time=0.0117647
EXTRACT: pitchwheel channel=5 pitch=528 time=0.038235275
EXTRACT: pitchwheel channel=5 pitch=1056 time=0.014705875
EXTRACT: pitchwheel channel=5 pitch=1585 time=0.014705875
EXTRACT: pitchwheel channel=5 pitch=1849 time=0.014705875
EXTRACT: pitchwheel channel=5 pitch=1585 time=0.032352925
EXTRACT: note_on channel=1 note=59 velocity=0 time=0.017647049999999997
EXTRACT: note_on channel=1 note=47 velocity=0 time=0.002941175
EXTRACT: note_on channel=1 note=59 velocity=67 time=0
EXTRACT: note_on channel=1 note=47 velocity=58 time=0
EXTRACT: pitchwheel channel=5 pitch=1056 time=0
EXTRACT: note_on channel=1 note=63 velocity=0 time=0.008823524999999999
EXTRACT: pitchwheel channel=5 pitch=528 time=0
EXTRACT: note_on channel=1 note=66 velocity=0 time=0.00588235
EXTRACT: note_on channel=1 note=54 velocity=0 time=0.002941175
EXTRACT: note_on channel=1 note=66 velocity=67 time=0
EXTRACT: note_on channel=1 note=63 velocity=67 time=0
EXTRACT: note_on channel=1 note=54 velocity=67 time=0.00588235
EXTRACT: note_on channel=5 note=61 velocity=67 time=0
EXTRACT: pitchwheel channel=5 pitch=0 time=0.002941175
EXTRACT: note_on channel=9 note=42 velocity=77 time=0.002941175
EXTRACT: note_on channel=5 note=63 velocity=0 time=0.049999974999999995
EXTRACT: note_on channel=9 note=42 velocity=0 time=0.049999974999999995
EXTRACT: pitchwheel channel=5 pitch=0 time=0.020588224999999998
EXTRACT: note_on channel=5 note=59 velocity=56 time=0.02941175
EXTRACT: note_on channel=5 note=61 velocity=0 time=0.014705875
EXTRACT: control_change channel=2 control=11 value=88 time=0.08823525
EXTRACT: control_change channel=6 control=64 value=0 time=0.017647049999999997
EXTRACT: note_on channel=0 note=35 velocity=0 time=0.038235275
EXTRACT: note_on channel=1 note=59 velocity=0 time=0.002941175
EXTRACT: note_on channel=1 note=47 velocity=0 time=0
EXTRACT: note_on channel=5 note=61 velocity=76 time=0.008823524999999999
EXTRACT: note_on channel=1 note=63 velocity=0 time=0.008823524999999999
EXTRACT: note_on channel=1 note=66 velocity=0 time=0
EXTRACT: note_on channel=1 note=54 velocity=0 time=0.00588235
EXTRACT: note_on channel=1 note=66 velocity=75 time=0
EXTRACT: note_on channel=1 note=42 velocity=67 time=0.002941175
EXTRACT: note_on channel=1 note=61 velocity=75 time=0.008823524999999999
EXTRACT: note_on channel=0 note=34 velocity=102 time=0.002941175
EXTRACT: note_on channel=6 note=61 velocity=64 time=0.002941175
EXTRACT: note_on channel=9 note=42 velocity=81 time=0
EXTRACT: note_on channel=9 note=36 velocity=90 time=0
EXTRACT: note_on channel=9 note=35 velocity=90 time=0
EXTRACT: note_on channel=1 note=54 velocity=75 time=0.002941175
EXTRACT: note_on channel=5 note=59 velocity=0 time=0.002941175
EXTRACT: note_on channel=1 note=49 velocity=67 time=0.002941175
EXTRACT: note_on channel=9 note=35 velocity=0 time=0.12352935
EXTRACT: note_on channel=9 note=36 velocity=0 time=0
EXTRACT: note_on channel=9 note=42 velocity=0 time=0
EXTRACT: control_change channel=6 control=64 value=127 time=0.020588224999999998
EXTRACT: pitchwheel channel=5 pitch=187 time=0.067647025
EXTRACT: pitchwheel channel=5 pitch=749 time=0.017647049999999997
EXTRACT: pitchwheel channel=5 pitch=1125 time=0.014705875
EXTRACT: pitchwheel channel=5 pitch=1312 time=0.014705875
EXTRACT: pitchwheel channel=5 pitch=1125 time=0.032352925
EXTRACT: pitchwheel channel=5 pitch=562 time=0.020588224999999998
EXTRACT: pitchwheel channel=5 pitch=187 time=0.008823524999999999
EXTRACT: pitchwheel channel=5 pitch=0 time=0.017647049999999997
EXTRACT: note_on channel=9 note=42 velocity=77 time=0.00588235
EXTRACT: note_on channel=6 note=61 velocity=0 time=0.017647049999999997
EXTRACT: pitchwheel channel=5 pitch=374 time=0.038235275
EXTRACT: note_on channel=9 note=42 velocity=0 time=0.008823524999999999
EXTRACT: pitchwheel channel=5 pitch=749 time=0.00588235
EXTRACT: pitchwheel channel=5 pitch=1125 time=0.014705875
EXTRACT: pitchwheel channel=5 pitch=1312 time=0.017647049999999997
EXTRACT: note_on channel=0 note=34 velocity=0 time=0.026470575
EXTRACT: pitchwheel channel=5 pitch=1125 time=0.002941175
EXTRACT: note_on channel=5 note=61 velocity=0 time=0.008823524999999999
EXTRACT: note_on channel=1 note=66 velocity=0 time=0.002941175
EXTRACT: note_on channel=1 note=42 velocity=0 time=0.002941175
EXTRACT: note_on channel=1 note=61 velocity=0 time=0.008823524999999999
EXTRACT: pitchwheel channel=5 pitch=749 time=0
EXTRACT: note_on channel=5 note=61 velocity=80 time=0.002941175
EXTRACT: note_on channel=1 note=61 velocity=63 time=0.002941175
EXTRACT: note_on channel=1 note=54 velocity=0 time=0.002941175
EXTRACT: note_on channel=1 note=66 velocity=63 time=0
EXTRACT: pitchwheel channel=5 pitch=374 time=0
EXTRACT: note_on channel=1 note=42 velocity=54 time=0.002941175
EXTRACT: note_on channel=1 note=49 velocity=0 time=0.002941175
EXTRACT: note_on channel=0 note=34 velocity=99 time=0.00588235
EXTRACT: note_on channel=9 note=35 velocity=90 time=0
EXTRACT: note_on channel=9 note=36 velocity=90 time=0
EXTRACT: pitchwheel channel=5 pitch=0 time=0.00588235
EXTRACT: note_on channel=1 note=49 velocity=54 time=0.002941175
EXTRACT: note_on channel=1 note=54 velocity=63 time=0
EXTRACT: note_on channel=6 note=63 velocity=64 time=0.00588235
EXTRACT: note_on channel=5 note=63 velocity=71 time=0.06470585
EXTRACT: note_on channel=5 note=61 velocity=0 time=0.032352925
EXTRACT: note_on channel=6 note=63 velocity=0 time=0.017647049999999997
EXTRACT: pitchwheel channel=5 pitch=0 time=0.002941175
EXTRACT: note_on channel=9 note=36 velocity=0 time=0
EXTRACT: note_on channel=9 note=35 velocity=0 time=0
EXTRACT: note_on channel=1 note=54 velocity=0 time=0.017647049999999997
EXTRACT: note_on channel=1 note=61 velocity=0 time=0.002941175
EXTRACT: note_on channel=1 note=54 velocity=72 time=0.002941175
EXTRACT: note_on channel=1 note=61 velocity=72 time=0
EXTRACT: note_on channel=1 note=66 velocity=0 time=0
EXTRACT: note_on channel=1 note=42 velocity=0 time=0.002941175
EXTRACT: note_on channel=9 note=70 velocity=88 time=0
EXTRACT: note_on channel=9 note=82 velocity=47 time=0.00588235
EXTRACT: note_on channel=9 note=42 velocity=99 time=0
EXTRACT: note_on channel=9 note=39 velocity=65 time=0
EXTRACT: note_on channel=9 note=40 velocity=81 time=0
EXTRACT: note_on channel=1 note=49 velocity=0 time=0.002941175
EXTRACT: note_on channel=1 note=42 velocity=64 time=0
EXTRACT: note_on channel=1 note=49 velocity=64 time=0.002941175
EXTRACT: note_on channel=1 note=66 velocity=72 time=0.00588235
EXTRACT: note_on channel=9 note=42 velocity=0 time=0.08235289999999999
EXTRACT: note_on channel=9 note=70 velocity=0 time=0.032352925
EXTRACT: note_on channel=9 note=82 velocity=0 time=0.00588235
EXTRACT: note_on channel=9 note=39 velocity=0 time=0
EXTRACT: note_on channel=9 note=40 velocity=0 time=0
EXTRACT: note_on channel=0 note=34 velocity=0 time=0.1882352
EXTRACT: note_on channel=1 note=54 velocity=0 time=0.026470575
EXTRACT: note_on channel=1 note=61 velocity=0 time=0
EXTRACT: note_on channel=5 note=63 velocity=0 time=0.00588235
EXTRACT: note_on channel=1 note=66 velocity=0 time=0.002941175
EXTRACT: note_on channel=1 note=51 velocity=72 time=0
EXTRACT: note_on channel=1 note=42 velocity=0 time=0.002941175
EXTRACT: note_on channel=1 note=66 velocity=72 time=0
EXTRACT: note_on channel=5 note=56 velocity=79 time=0
EXTRACT: note_on channel=0 note=32 velocity=100 time=0.00588235
EXTRACT: note_on channel=1 note=49 velocity=0 time=0
EXTRACT: note_on channel=6 note=59 velocity=60 time=0
EXTRACT: note_on channel=9 note=42 velocity=77 time=0
EXTRACT: note_on channel=9 note=36 velocity=97 time=0
EXTRACT: note_on channel=9 note=35 velocity=97 time=0
EXTRACT: note_on channel=1 note=59 velocity=72 time=0.002941175
EXTRACT: note_on channel=1 note=63 velocity=72 time=0.00588235
EXTRACT: note_on channel=1 note=44 velocity=64 time=0.00588235
EXTRACT: note_on channel=9 note=42 velocity=0 time=0.085294075
EXTRACT: note_on channel=6 note=59 velocity=0 time=0.008823524999999999
EXTRACT: note_on channel=9 note=35 velocity=0 time=0.0235294
EXTRACT: note_on channel=9 note=36 velocity=0 time=0
EXTRACT: pitchwheel channel=5 pitch=327 time=0.179411675
EXTRACT: pitchwheel channel=5 pitch=654 time=0.014705875
EXTRACT: note_on channel=9 note=42 velocity=76 time=0.026470575
EXTRACT: pitchwheel channel=5 pitch=327 time=0.020588224999999998
EXTRACT: pitchwheel channel=5 pitch=0 time=0.014705875
EXTRACT: note_on channel=9 note=42 velocity=0 time=0.067647025
EXTRACT: note_on channel=1 note=51 velocity=0 time=0.038235275
EXTRACT: note_on channel=1 note=66 velocity=0 time=0.002941175
EXTRACT: pitchwheel channel=5 pitch=765 time=0
EXTRACT: note_on channel=1 note=59 velocity=0 time=0.008823524999999999
EXTRACT: note_on channel=1 note=63 velocity=0 time=0.00588235
EXTRACT: pitchwheel channel=5 pitch=1277 time=0
EXTRACT: note_on channel=1 note=44 velocity=0 time=0.00588235
EXTRACT: note_on channel=9 note=70 velocity=57 time=0
EXTRACT: note_on channel=1 note=63 velocity=60 time=0.002941175
EXTRACT: note_on channel=9 note=82 velocity=30 time=0.002941175
EXTRACT: note_on channel=1 note=59 velocity=60 time=0.002941175
EXTRACT: pitchwheel channel=5 pitch=1788 time=0
EXTRACT: note_on channel=1 note=44 velocity=52 time=0.002941175
EXTRACT: note_on channel=9 note=40 velocity=46 time=0
EXTRACT: note_on channel=1 note=51 velocity=60 time=0.0117647
EXTRACT: note_on channel=1 note=66 velocity=60 time=0
EXTRACT: pitchwheel channel=5 pitch=1532 time=0.032352925
EXTRACT: pitchwheel channel=5 pitch=765 time=0.014705875
EXTRACT: pitchwheel channel=5 pitch=254 time=0.014705875
EXTRACT: pitchwheel channel=5 pitch=0 time=0.017647049999999997
EXTRACT: note_on channel=9 note=70 velocity=0 time=0.02941175
EXTRACT: note_on channel=9 note=82 velocity=0 time=0.00588235
EXTRACT: note_on channel=9 note=40 velocity=0 time=0.00588235
EXTRACT: note_on channel=0 note=32 velocity=0 time=0.00588235
EXTRACT: note_on channel=1 note=59 velocity=0 time=0.002941175
EXTRACT: note_on channel=1 note=44 velocity=0 time=0.002941175
EXTRACT: note_on channel=1 note=63 velocity=0 time=0.00588235
EXTRACT: note_on channel=1 note=59 velocity=69 time=0
EXTRACT: note_on channel=1 note=63 velocity=69 time=0.00588235
EXTRACT: note_on channel=1 note=44 velocity=60 time=0
EXTRACT: note_on channel=1 note=66 velocity=0 time=0.002941175
EXTRACT: note_on channel=1 note=66 velocity=69 time=0.00588235
EXTRACT: note_on channel=9 note=42 velocity=79 time=0
EXTRACT: note_on channel=9 note=36 velocity=90 time=0
EXTRACT: note_on channel=9 note=35 velocity=90 time=0
EXTRACT: note_on channel=1 note=51 velocity=0 time=0.00588235
EXTRACT: note_on channel=0 note=32 velocity=102 time=0.00588235
EXTRACT: note_on channel=1 note=51 velocity=69 time=0.002941175
EXTRACT: pitchwheel channel=5 pitch=529 time=0.020588224999999998
EXTRACT: pitchwheel channel=5 pitch=1060 time=0.014705875
EXTRACT: pitchwheel channel=5 pitch=1590 time=0.014705875
EXTRACT: note_on channel=9 note=42 velocity=0 time=0.032352925
EXTRACT: pitchwheel channel=5 pitch=529 time=0.02941175
EXTRACT: note_on channel=9 note=35 velocity=0 time=0.00588235
EXTRACT: note_on channel=9 note=36 velocity=0 time=0
EXTRACT: pitchwheel channel=5 pitch=0 time=0.008823524999999999
EXTRACT: pitchwheel channel=5 pitch=529 time=0.14117639999999998
EXTRACT: pitchwheel channel=5 pitch=1060 time=0.014705875
EXTRACT: note_on channel=1 note=63 velocity=0 time=0.049999974999999995
EXTRACT: note_on channel=1 note=59 velocity=0 time=0
EXTRACT: note_on channel=1 note=66 velocity=0 time=0.008823524999999999
EXTRACT: note_on channel=1 note=59 velocity=53 time=0
EXTRACT: note_on channel=1 note=63 velocity=53 time=0
EXTRACT: note_on channel=1 note=44 velocity=0 time=0
EXTRACT: note_on channel=1 note=51 velocity=0 time=0.002941175
EXTRACT: note_on channel=9 note=70 velocity=88 time=0
EXTRACT: note_on channel=1 note=51 velocity=53 time=0.00588235
EXTRACT: note_on channel=1 note=66 velocity=53 time=0
EXTRACT: note_on channel=9 note=82 velocity=47 time=0
EXTRACT: note_on channel=9 note=42 velocity=99 time=0
EXTRACT: note_on channel=9 note=39 velocity=65 time=0
EXTRACT: note_on channel=9 note=40 velocity=81 time=0
EXTRACT: pitchwheel channel=5 pitch=529 time=0.008823524999999999
EXTRACT: note_on channel=1 note=44 velocity=46 time=0.002941175
EXTRACT: pitchwheel channel=5 pitch=0 time=0.014705875
EXTRACT: note_on channel=1 note=51 velocity=0 time=0.0588235
EXTRACT: note_on channel=1 note=59 velocity=0 time=0.014705875
EXTRACT: note_on channel=1 note=44 velocity=0 time=0.002941175
EXTRACT: note_on channel=1 note=63 velocity=0 time=0.008823524999999999
EXTRACT: note_on channel=9 note=42 velocity=0 time=0
EXTRACT: note_on channel=1 note=66 velocity=0 time=0.00588235
EXTRACT: note_on channel=9 note=70 velocity=0 time=0.008823524999999999
EXTRACT: note_on channel=9 note=82 velocity=0 time=0.00588235
EXTRACT: note_on channel=9 note=39 velocity=0 time=0
EXTRACT: note_on channel=9 note=40 velocity=0 time=0
EXTRACT: note_on channel=1 note=59 velocity=67 time=0.014705875
EXTRACT: note_on channel=1 note=44 velocity=58 time=0
EXTRACT: note_on channel=1 note=66 velocity=67 time=0.017647049999999997
EXTRACT: note_on channel=1 note=63 velocity=67 time=0
EXTRACT: pitchwheel channel=5 pitch=529 time=0
EXTRACT: note_on channel=1 note=51 velocity=67 time=0.00588235
EXTRACT: pitchwheel channel=5 pitch=1060 time=0.0235294
EXTRACT: pitchwheel channel=5 pitch=0 time=0.0470588
EXTRACT: note_on channel=0 note=32 velocity=0 time=0.05294115
EXTRACT: note_on channel=0 note=30 velocity=98 time=0.055882325
EXTRACT: note_on channel=9 note=42 velocity=77 time=0.002941175
EXTRACT: pitchwheel channel=5 pitch=654 time=0.026470575
EXTRACT: pitchwheel channel=5 pitch=982 time=0.014705875
EXTRACT: pitchwheel channel=5 pitch=1309 time=0.032352925
EXTRACT: note_on channel=9 note=42 velocity=0 time=0.026470575
EXTRACT: pitchwheel channel=5 pitch=982 time=0.00588235
EXTRACT: pitchwheel channel=5 pitch=327 time=0.014705875
EXTRACT: pitchwheel channel=5 pitch=0 time=0.014705875
EXTRACT: note_on channel=0 note=32 velocity=103 time=0.041176449999999996
EXTRACT: note_on channel=0 note=30 velocity=0 time=0.008823524999999999
EXTRACT: note_on channel=1 note=44 velocity=0 time=0.11176465
EXTRACT: note_on channel=1 note=59 velocity=0 time=0
EXTRACT: control_change channel=6 control=64 value=0 time=0.008823524999999999
EXTRACT: note_on channel=1 note=63 velocity=0 time=0.008823524999999999
EXTRACT: note_on channel=1 note=66 velocity=0 time=0
EXTRACT: pitchwheel channel=5 pitch=0 time=0
EXTRACT: note_on channel=1 note=51 velocity=0 time=0.00588235
EXTRACT: note_on channel=1 note=66 velocity=75 time=0.014705875
EXTRACT: note_on channel=1 note=42 velocity=67 time=0.002941175
EXTRACT: note_on channel=1 note=61 velocity=75 time=0.008823524999999999
EXTRACT: note_on channel=0 note=34 velocity=101 time=0.00588235
EXTRACT: note_on channel=6 note=61 velocity=64 time=0
EXTRACT: note_on channel=9 note=42 velocity=81 time=0
EXTRACT: note_on channel=9 note=36 velocity=90 time=0
EXTRACT: note_on channel=9 note=35 velocity=90 time=0
EXTRACT: note_on channel=1 note=54 velocity=75 time=0.002941175
EXTRACT: note_on channel=1 note=49 velocity=67 time=0.00588235
EXTRACT: note_on channel=0 note=32 velocity=0 time=0.0117647
EXTRACT: control_change channel=6 control=64 value=127 time=0.08823525
EXTRACT: note_on channel=5 note=56 velocity=0 time=0.00588235
EXTRACT: note_on channel=9 note=35 velocity=0 time=0.017647049999999997
EXTRACT: note_on channel=9 note=36 velocity=0 time=0
EXTRACT: note_on channel=9 note=42 velocity=0 time=0
EXTRACT: note_on channel=9 note=42 velocity=77 time=0.220588125
EXTRACT: note_on channel=9 note=42 velocity=0 time=0.06470585
EXTRACT: note_on channel=6 note=61 velocity=0 time=0.008823524999999999
EXTRACT: note_on channel=0 note=34 velocity=0 time=0.0588235
EXTRACT: note_on channel=1 note=66 velocity=0 time=0
EXTRACT: note_on channel=1 note=42 velocity=0 time=0.00588235
EXTRACT: note_on channel=1 note=61 velocity=0 time=0.008823524999999999
EXTRACT: note_on channel=1 note=54 velocity=0 time=0.008823524999999999
EXTRACT: note_on channel=1 note=49 velocity=0 time=0.002941175
EXTRACT: note_on channel=1 note=61 velocity=63 time=0.002941175
EXTRACT: note_on channel=1 note=66 velocity=63 time=0.002941175
EXTRACT: note_on channel=1 note=42 velocity=54 time=0.002941175
EXTRACT: note_on channel=0 note=34 velocity=100 time=0.00588235
EXTRACT: note_on channel=9 note=35 velocity=90 time=0.002941175
EXTRACT: note_on channel=9 note=36 velocity=90 time=0
EXTRACT: note_on channel=1 note=49 velocity=54 time=0.008823524999999999
EXTRACT: note_on channel=1 note=54 velocity=63 time=0
EXTRACT: note_on channel=6 note=66 velocity=64 time=0.00588235
EXTRACT: note_on channel=9 note=36 velocity=0 time=0.117647
EXTRACT: note_on channel=9 note=35 velocity=0 time=0
EXTRACT: note_on channel=6 note=66 velocity=0 time=0.00588235
EXTRACT: note_on channel=1 note=54 velocity=0 time=0.008823524999999999
EXTRACT: note_on channel=1 note=61 velocity=0 time=0.00588235
EXTRACT: note_on channel=1 note=54 velocity=72 time=0.002941175
EXTRACT: note_on channel=1 note=61 velocity=72 time=0
EXTRACT: note_on channel=1 note=66 velocity=0 time=0
EXTRACT: note_on channel=1 note=42 velocity=0 time=0.002941175
EXTRACT: note_on channel=9 note=70 velocity=88 time=0
EXTRACT: note_on channel=1 note=49 velocity=0 time=0.002941175
EXTRACT: note_on channel=9 note=82 velocity=47 time=0.002941175
EXTRACT: note_on channel=9 note=42 velocity=99 time=0
EXTRACT: note_on channel=9 note=39 velocity=65 time=0
EXTRACT: note_on channel=9 note=40 velocity=81 time=0
EXTRACT: note_on channel=1 note=42 velocity=64 time=0.002941175
EXTRACT: note_on channel=1 note=49 velocity=64 time=0.002941175
EXTRACT: note_on channel=1 note=66 velocity=72 time=0.00588235
EXTRACT: note_on channel=9 note=42 velocity=0 time=0.08235289999999999
EXTRACT: note_on channel=9 note=70 velocity=0 time=0.032352925
EXTRACT: note_on channel=9 note=82 velocity=0 time=0.00588235
EXTRACT: note_on channel=9 note=39 velocity=0 time=0
EXTRACT: note_on channel=9 note=40 velocity=0 time=0
EXTRACT: note_on channel=1 note=61 velocity=0 time=0.202941075
EXTRACT: note_on channel=1 note=54 velocity=0 time=0
EXTRACT: note_on channel=0 note=34 velocity=0 time=0.00588235
EXTRACT: note_on channel=1 note=42 velocity=0 time=0.00588235
EXTRACT: note_on channel=1 note=49 velocity=0 time=0.00588235
EXTRACT: note_on channel=1 note=66 velocity=0 time=0.002941175
EXTRACT: note_on channel=1 note=54 velocity=72 time=0
EXTRACT: note_on channel=1 note=66 velocity=72 time=0.002941175
EXTRACT: note_on channel=0 note=35 velocity=99 time=0.002941175
EXTRACT: note_on channel=6 note=63 velocity=64 time=0.002941175
EXTRACT: note_on channel=9 note=42 velocity=77 time=0
EXTRACT: note_on channel=9 note=36 velocity=97 time=0
EXTRACT: note_on channel=9 note=35 velocity=97 time=0
EXTRACT: note_on channel=1 note=59 velocity=72 time=0.002941175
EXTRACT: note_on channel=1 note=63 velocity=72 time=0.00588235
EXTRACT: note_on channel=1 note=47 velocity=64 time=0.00588235
EXTRACT: note_on channel=6 note=63 velocity=0 time=0.073529375
EXTRACT: note_on channel=9 note=42 velocity=0 time=0.0117647
EXTRACT: note_on channel=9 note=35 velocity=0 time=0.032352925
EXTRACT: note_on channel=9 note=36 velocity=0 time=0
EXTRACT: note_on channel=9 note=42 velocity=76 time=0.220588125
EXTRACT: note_on channel=9 note=42 velocity=0 time=0.102941125
EXTRACT: note_on channel=1 note=54 velocity=0 time=0.038235275
EXTRACT: note_on channel=1 note=66 velocity=0 time=0.002941175
EXTRACT: note_on channel=1 note=59 velocity=0 time=0.008823524999999999
EXTRACT: note_on channel=1 note=63 velocity=0 time=0.00588235
EXTRACT: note_on channel=1 note=47 velocity=0 time=0.00588235
EXTRACT: note_on channel=9 note=70 velocity=57 time=0
EXTRACT: note_on channel=1 note=63 velocity=60 time=0.002941175
EXTRACT: note_on channel=9 note=82 velocity=30 time=0.002941175
EXTRACT: note_on channel=1 note=59 velocity=60 time=0.002941175
EXTRACT: note_on channel=1 note=47 velocity=52 time=0.002941175
EXTRACT: note_on channel=9 note=40 velocity=46 time=0
EXTRACT: note_on channel=1 note=54 velocity=60 time=0.0117647
EXTRACT: note_on channel=1 note=66 velocity=60 time=0
EXTRACT: note_on channel=0 note=35 velocity=0 time=0.038235275
EXTRACT: note_on channel=9 note=70 velocity=0 time=0.07058819999999999
EXTRACT: note_on channel=9 note=82 velocity=0 time=0.00588235
EXTRACT: note_on channel=9 note=40 velocity=0 time=0.00588235
EXTRACT: note_on channel=1 note=59 velocity=0 time=0.0117647
EXTRACT: note_on channel=1 note=47 velocity=0 time=0.002941175
EXTRACT: note_on channel=1 note=63 velocity=0 time=0.002941175
EXTRACT: note_on channel=1 note=59 velocity=69 time=0
EXTRACT: note_on channel=1 note=63 velocity=69 time=0.00588235
EXTRACT: note_on channel=1 note=47 velocity=60 time=0
EXTRACT: note_on channel=1 note=66 velocity=0 time=0.00588235
EXTRACT: note_on channel=1 note=66 velocity=69 time=0.002941175
EXTRACT: note_on channel=9 note=42 velocity=79 time=0
EXTRACT: note_on channel=9 note=36 velocity=90 time=0
EXTRACT: note_on channel=9 note=35 velocity=90 time=0
EXTRACT: note_on channel=1 note=54 velocity=0 time=0.00588235
EXTRACT: note_on channel=0 note=35 velocity=98 time=0.00588235
EXTRACT: note_on channel=1 note=54 velocity=69 time=0.002941175
EXTRACT: note_on channel=9 note=42 velocity=0 time=0.08235289999999999
EXTRACT: note_on channel=9 note=35 velocity=0 time=0.035294099999999995
EXTRACT: note_on channel=9 note=36 velocity=0 time=0
EXTRACT: note_on channel=9 note=70 velocity=88 time=0.22647047499999998
EXTRACT: note_on channel=9 note=82 velocity=47 time=0.00588235
EXTRACT: note_on channel=9 note=42 velocity=99 time=0
EXTRACT: note_on channel=9 note=39 velocity=65 time=0
EXTRACT: note_on channel=9 note=40 velocity=81 time=0
EXTRACT: note_on channel=9 note=42 velocity=0 time=0.11176465
EXTRACT: note_on channel=9 note=70 velocity=0 time=0.014705875
EXTRACT: note_on channel=9 note=82 velocity=0 time=0.00588235
EXTRACT: note_on channel=9 note=39 velocity=0 time=0
EXTRACT: note_on channel=9 note=40 velocity=0 time=0
EXTRACT: note_on channel=1 note=63 velocity=0 time=0.0235294
EXTRACT: note_on channel=1 note=59 velocity=0 time=0.002941175
EXTRACT: note_on channel=1 note=66 velocity=0 time=0.00588235
EXTRACT: note_on channel=1 note=54 velocity=0 time=0.002941175
EXTRACT: note_on channel=1 note=59 velocity=57 time=0
EXTRACT: note_on channel=1 note=63 velocity=57 time=0
EXTRACT: note_on channel=1 note=47 velocity=0 time=0.002941175
EXTRACT: note_on channel=1 note=54 velocity=57 time=0.00588235
EXTRACT: note_on channel=1 note=66 velocity=57 time=0
EXTRACT: note_on channel=1 note=47 velocity=49 time=0.0117647
EXTRACT: note_on channel=1 note=59 velocity=0 time=0.13235287499999998
EXTRACT: note_on channel=1 note=47 velocity=0 time=0.002941175
EXTRACT: note_on channel=1 note=59 velocity=67 time=0
EXTRACT: note_on channel=1 note=47 velocity=58 time=0
EXTRACT: note_on channel=1 note=63 velocity=0 time=0.008823524999999999
EXTRACT: note_on channel=1 note=66 velocity=0 time=0.00588235
EXTRACT: note_on channel=1 note=54 velocity=0 time=0.002941175
EXTRACT: note_on channel=1 note=66 velocity=67 time=0
EXTRACT: note_on channel=1 note=63 velocity=67 time=0
EXTRACT: note_on channel=1 note=54 velocity=67 time=0.00588235
EXTRACT: note_on channel=0 note=37 velocity=101 time=0.00588235
EXTRACT: note_on channel=9 note=42 velocity=77 time=0
EXTRACT: note_on channel=0 note=35 velocity=0 time=0.06470585
EXTRACT: note_on channel=9 note=42 velocity=0 time=0.035294099999999995
EXTRACT: note_on channel=0 note=37 velocity=0 time=0.05294115
EXTRACT: note_on channel=0 note=35 velocity=102 time=0.0235294
EXTRACT: control_change channel=6 control=64 value=0 time=0.0941176
EXTRACT: note_on channel=1 note=59 velocity=0 time=0.041176449999999996
EXTRACT: note_on channel=1 note=47 velocity=0 time=0
EXTRACT: note_on channel=1 note=63 velocity=0 time=0.017647049999999997
EXTRACT: note_on channel=1 note=66 velocity=0 time=0
EXTRACT: note_on channel=1 note=54 velocity=0 time=0.00588235
EXTRACT: note_on channel=1 note=66 velocity=75 time=0
EXTRACT: note_on channel=1 note=42 velocity=67 time=0.002941175
EXTRACT: note_on channel=1 note=61 velocity=75 time=0.008823524999999999
EXTRACT: note_on channel=0 note=34 velocity=98 time=0.002941175
EXTRACT: note_on channel=6 note=61 velocity=64 time=0.002941175
EXTRACT: note_on channel=9 note=42 velocity=81 time=0
EXTRACT: note_on channel=9 note=36 velocity=90 time=0
EXTRACT: note_on channel=9 note=35 velocity=90 time=0
EXTRACT: note_on channel=1 note=54 velocity=75 time=0.002941175
EXTRACT: note_on channel=1 note=49 velocity=67 time=0.00588235
EXTRACT: note_on channel=0 note=35 velocity=0 time=0.061764675
EXTRACT: note_on channel=9 note=35 velocity=0 time=0.061764675
EXTRACT: note_on channel=9 note=36 velocity=0 time=0
EXTRACT: note_on channel=9 note=42 velocity=0 time=0
EXTRACT: control_change channel=6 control=64 value=127 time=0.020588224999999998
EXTRACT: note_on channel=9 note=42 velocity=77 time=0.19999989999999998
EXTRACT: note_on channel=6 note=61 velocity=0 time=0.017647049999999997
EXTRACT: note_on channel=9 note=42 velocity=0 time=0.0470588
EXTRACT: note_on channel=0 note=34 velocity=0 time=0.067647025
EXTRACT: note_on channel=1 note=66 velocity=0 time=0.0117647
EXTRACT: note_on channel=1 note=42 velocity=0 time=0.002941175
EXTRACT: note_on channel=1 note=61 velocity=0 time=0.008823524999999999
EXTRACT: note_on channel=1 note=61 velocity=63 time=0.00588235
EXTRACT: note_on channel=1 note=54 velocity=0 time=0.002941175
EXTRACT: note_on channel=1 note=66 velocity=63 time=0
EXTRACT: note_on channel=1 note=42 velocity=54 time=0.002941175
EXTRACT: note_on channel=1 note=49 velocity=0 time=0.002941175
EXTRACT: note_on channel=0 note=34 velocity=99 time=0.00588235
EXTRACT: note_on channel=9 note=35 velocity=90 time=0
EXTRACT: note_on channel=9 note=36 velocity=90 time=0
EXTRACT: note_on channel=1 note=49 velocity=54 time=0.008823524999999999
EXTRACT: note_on channel=1 note=54 velocity=63 time=0
EXTRACT: note_on channel=6 note=63 velocity=64 time=0.00588235
EXTRACT: note_on channel=6 note=63 velocity=0 time=0.114705825
EXTRACT: note_on channel=9 note=36 velocity=0 time=0.002941175
EXTRACT: note_on channel=9 note=35 velocity=0 time=0
EXTRACT: note_on channel=1 note=54 velocity=0 time=0.017647049999999997
EXTRACT: note_on channel=1 note=61 velocity=0 time=0.002941175
EXTRACT: note_on channel=1 note=54 velocity=72 time=0.002941175
EXTRACT: note_on channel=1 note=61 velocity=72 time=0
EXTRACT: note_on channel=1 note=66 velocity=0 time=0
EXTRACT: note_on channel=1 note=42 velocity=0 time=0.002941175
EXTRACT: note_on channel=9 note=70 velocity=88 time=0
EXTRACT: note_on channel=9 note=82 velocity=47 time=0.00588235
EXTRACT: note_on channel=9 note=42 velocity=99 time=0
EXTRACT: note_on channel=9 note=39 velocity=65 time=0
EXTRACT: note_on channel=9 note=40 velocity=81 time=0
EXTRACT: note_on channel=1 note=49 velocity=0 time=0.002941175
EXTRACT: note_on channel=1 note=42 velocity=64 time=0
EXTRACT: note_on channel=1 note=49 velocity=64 time=0.002941175
EXTRACT: note_on channel=1 note=66 velocity=72 time=0.00588235
EXTRACT: note_on channel=9 note=42 velocity=0 time=0.08235289999999999
EXTRACT: note_on channel=9 note=70 velocity=0 time=0.032352925
EXTRACT: note_on channel=9 note=82 velocity=0 time=0.00588235
EXTRACT: note_on channel=9 note=39 velocity=0 time=0
EXTRACT: note_on channel=9 note=40 velocity=0 time=0
EXTRACT: note_on channel=0 note=34 velocity=0 time=0.197058725
EXTRACT: note_on channel=1 note=54 velocity=0 time=0.017647049999999997
EXTRACT: note_on channel=1 note=61 velocity=0 time=0
EXTRACT: note_on channel=1 note=66 velocity=0 time=0.008823524999999999
EXTRACT: note_on channel=1 note=51 velocity=72 time=0
EXTRACT: note_on channel=1 note=42 velocity=0 time=0.002941175
EXTRACT: note_on channel=1 note=66 velocity=72 time=0
EXTRACT: note_on channel=0 note=32 velocity=102 time=0.00588235
EXTRACT: note_on channel=1 note=49 velocity=0 time=0
EXTRACT: note_on channel=6 note=59 velocity=60 time=0
EXTRACT: note_on channel=9 note=42 velocity=77 time=0
EXTRACT: note_on channel=9 note=36 velocity=97 time=0
EXTRACT: note_on channel=9 note=35 velocity=97 time=0
EXTRACT: note_on channel=1 note=59 velocity=72 time=0.002941175
EXTRACT: note_on channel=1 note=63 velocity=72 time=0.00588235
EXTRACT: note_on channel=1 note=44 velocity=64 time=0.00588235
EXTRACT: note_on channel=9 note=42 velocity=0 time=0.085294075
EXTRACT: note_on channel=6 note=59 velocity=0 time=0.008823524999999999
EXTRACT: note_on channel=9 note=35 velocity=0 time=0.0235294
EXTRACT: note_on channel=9 note=36 velocity=0 time=0
EXTRACT: note_on channel=9 note=42 velocity=76 time=0.220588125
EXTRACT: note_on channel=9 note=42 velocity=0 time=0.102941125
EXTRACT: note_on channel=1 note=51 velocity=0 time=0.038235275
EXTRACT: note_on channel=1 note=66 velocity=0 time=0.002941175
EXTRACT: note_on channel=1 note=59 velocity=0 time=0.008823524999999999
EXTRACT: note_on channel=1 note=63 velocity=0 time=0.00588235
EXTRACT: note_on channel=1 note=44 velocity=0 time=0.00588235
EXTRACT: note_on channel=9 note=70 velocity=57 time=0
EXTRACT: note_on channel=1 note=63 velocity=60 time=0.002941175
EXTRACT: note_on channel=9 note=82 velocity=30 time=0.002941175
EXTRACT: note_on channel=1 note=59 velocity=60 time=0.002941175
EXTRACT: note_on channel=0 note=35 velocity=102 time=0.002941175
EXTRACT: note_on channel=1 note=44 velocity=52 time=0
EXTRACT: note_on channel=9 note=40 velocity=46 time=0
EXTRACT: note_on channel=1 note=51 velocity=60 time=0.0117647
EXTRACT: note_on channel=1 note=66 velocity=60 time=0
EXTRACT: note_on channel=0 note=32 velocity=0 time=0.00588235
EXTRACT: note_on channel=9 note=70 velocity=0 time=0.102941125
EXTRACT: note_on channel=9 note=82 velocity=0 time=0.00588235
EXTRACT: note_on channel=9 note=40 velocity=0 time=0.00588235
EXTRACT: note_on channel=1 note=59 velocity=0 time=0.008823524999999999
EXTRACT: note_on channel=1 note=44 velocity=0 time=0.002941175
EXTRACT: note_on channel=1 note=63 velocity=0 time=0.00588235
EXTRACT: note_on channel=1 note=59 velocity=69 time=0
EXTRACT: note_on channel=1 note=63 velocity=69 time=0.00588235
EXTRACT: note_on channel=1 note=44 velocity=60 time=0
EXTRACT: note_on channel=1 note=66 velocity=0 time=0.002941175
EXTRACT: note_on channel=5 note=61 velocity=80 time=0
EXTRACT: note_on channel=1 note=66 velocity=69 time=0.00588235
EXTRACT: note_on channel=9 note=42 velocity=79 time=0
EXTRACT: note_on channel=9 note=36 velocity=90 time=0
EXTRACT: note_on channel=9 note=35 velocity=90 time=0
EXTRACT: note_on channel=1 note=51 velocity=0 time=0.00588235
EXTRACT: note_on channel=0 note=37 velocity=100 time=0.002941175
EXTRACT: note_on channel=0 note=35 velocity=0 time=0.00588235
EXTRACT: note_on channel=1 note=51 velocity=69 time=0
EXTRACT: note_on channel=9 note=42 velocity=0 time=0.08235289999999999
EXTRACT: note_on channel=9 note=35 velocity=0 time=0.035294099999999995
EXTRACT: note_on channel=9 note=36 velocity=0 time=0
EXTRACT: note_on channel=5 note=63 velocity=74 time=0.026470575
EXTRACT: note_on channel=0 note=39 velocity=82 time=0.026470575
EXTRACT: note_on channel=5 note=61 velocity=0 time=0.017647049999999997
EXTRACT: note_on channel=0 note=37 velocity=0 time=0.002941175
EXTRACT: pitchwheel channel=0 pitch=411 time=0.08823525
EXTRACT: pitchwheel channel=0 pitch=823 time=0.017647049999999997
EXTRACT: pitchwheel channel=0 pitch=1030 time=0.017647049999999997
EXTRACT: pitchwheel channel=0 pitch=1442 time=0.017647049999999997
EXTRACT: note_on channel=1 note=63 velocity=0 time=0
EXTRACT: note_on channel=1 note=59 velocity=0 time=0
EXTRACT: note_on channel=1 note=66 velocity=0 time=0.008823524999999999
EXTRACT: note_on channel=1 note=59 velocity=53 time=0
EXTRACT: note_on channel=1 note=63 velocity=53 time=0
EXTRACT: note_on channel=1 note=44 velocity=0 time=0
EXTRACT: note_on channel=1 note=51 velocity=0 time=0.002941175
EXTRACT: note_on channel=9 note=70 velocity=88 time=0
EXTRACT: note_on channel=1 note=51 velocity=53 time=0.00588235
EXTRACT: note_on channel=1 note=66 velocity=53 time=0
EXTRACT: note_on channel=9 note=82 velocity=47 time=0
EXTRACT: note_on channel=9 note=42 velocity=99 time=0
EXTRACT: note_on channel=9 note=39 velocity=65 time=0
EXTRACT: note_on channel=9 note=40 velocity=81 time=0
EXTRACT: pitchwheel channel=0 pitch=1648 time=0.00588235
EXTRACT: note_on channel=1 note=44 velocity=46 time=0.00588235
EXTRACT: pitchwheel channel=5 pitch=264 time=0.026470575
EXTRACT: pitchwheel channel=5 pitch=1056 time=0.014705875
EXTRACT: pitchwheel channel=0 pitch=1236 time=0.008823524999999999
EXTRACT: pitchwheel channel=5 pitch=1585 time=0.008823524999999999
EXTRACT: pitchwheel channel=0 pitch=617 time=0.008823524999999999
EXTRACT: note_on channel=1 note=51 velocity=0 time=0.00588235
EXTRACT: pitchwheel channel=5 pitch=1849 time=0
EXTRACT: pitchwheel channel=0 pitch=205 time=0.014705875
EXTRACT: note_on channel=1 note=59 velocity=0 time=0
EXTRACT: note_on channel=1 note=44 velocity=0 time=0.002941175
EXTRACT: note_on channel=1 note=63 velocity=0 time=0.008823524999999999
EXTRACT: note_on channel=9 note=42 velocity=0 time=0
EXTRACT: pitchwheel channel=5 pitch=1585 time=0.002941175
EXTRACT: pitchwheel channel=0 pitch=0 time=0.002941175
EXTRACT: note_on channel=1 note=66 velocity=0 time=0
EXTRACT: note_on channel=9 note=70 velocity=0 time=0.008823524999999999
EXTRACT: note_on channel=9 note=82 velocity=0 time=0.00588235
EXTRACT: note_on channel=9 note=39 velocity=0 time=0
EXTRACT: note_on channel=9 note=40 velocity=0 time=0
EXTRACT: pitchwheel channel=5 pitch=792 time=0.00588235
EXTRACT: note_on channel=1 note=59 velocity=67 time=0.008823524999999999
EXTRACT: note_on channel=1 note=44 velocity=58 time=0
EXTRACT: pitchwheel channel=5 pitch=264 time=0
EXTRACT: pitchwheel channel=5 pitch=0 time=0.014705875
EXTRACT: note_on channel=1 note=66 velocity=67 time=0.002941175
EXTRACT: note_on channel=1 note=63 velocity=67 time=0
EXTRACT: note_on channel=1 note=51 velocity=67 time=0.00588235
EXTRACT: pitchwheel channel=0 pitch=354 time=0.008823524999999999
EXTRACT: pitchwheel channel=0 pitch=710 time=0.014705875
EXTRACT: pitchwheel channel=0 pitch=1184 time=0.017647049999999997
EXTRACT: pitchwheel channel=5 pitch=528 time=0.014705875
EXTRACT: pitchwheel channel=0 pitch=1539 time=0.002941175
EXTRACT: pitchwheel channel=5 pitch=1056 time=0.0117647
EXTRACT: pitchwheel channel=0 pitch=1659 time=0.00588235
EXTRACT: pitchwheel channel=5 pitch=1585 time=0.008823524999999999
EXTRACT: pitchwheel channel=5 pitch=1849 time=0.014705875
EXTRACT: pitchwheel channel=0 pitch=1303 time=0.017647049999999997
EXTRACT: pitchwheel channel=5 pitch=1585 time=0.014705875
EXTRACT: pitchwheel channel=0 pitch=828 time=0.00588235
EXTRACT: note_on channel=0 note=39 velocity=0 time=0.0117647
EXTRACT: pitchwheel channel=5 pitch=1056 time=0.002941175
EXTRACT: pitchwheel channel=0 pitch=591 time=0.002941175
EXTRACT: pitchwheel channel=5 pitch=528 time=0.00588235
EXTRACT: pitchwheel channel=0 pitch=354 time=0.0117647
EXTRACT: note_on channel=5 note=61 velocity=75 time=0.002941175
EXTRACT: pitchwheel channel=5 pitch=0 time=0.002941175
EXTRACT: note_on channel=0 note=37 velocity=102 time=0.002941175
EXTRACT: note_on channel=9 note=42 velocity=77 time=0
EXTRACT: pitchwheel channel=0 pitch=235 time=0.008823524999999999
EXTRACT: pitchwheel channel=0 pitch=117 time=0.020588224999999998
EXTRACT: pitchwheel channel=0 pitch=0 time=0.017647049999999997
EXTRACT: note_on channel=5 note=63 velocity=0 time=0.002941175
EXTRACT: note_on channel=9 note=42 velocity=0 time=0.049999974999999995
EXTRACT: pitchwheel channel=0 pitch=0 time=0.038235275
EXTRACT: pitchwheel channel=5 pitch=0 time=0.00588235
EXTRACT: note_on channel=5 note=59 velocity=63 time=0.00588235
EXTRACT: note_on channel=0 note=37 velocity=0 time=0.0117647
EXTRACT: note_on channel=5 note=61 velocity=0 time=0.002941175
EXTRACT: note_on channel=0 note=35 velocity=98 time=0.0117647
EXTRACT: note_on channel=1 note=44 velocity=0 time=0.12058817499999999
EXTRACT: note_on channel=1 note=59 velocity=0 time=0
EXTRACT: control_change channel=6 control=64 value=0 time=0.008823524999999999
EXTRACT: note_on channel=1 note=63 velocity=0 time=0.008823524999999999
EXTRACT: note_on channel=1 note=66 velocity=0 time=0
EXTRACT: note_on channel=1 note=51 velocity=0 time=0.00588235
EXTRACT: note_on channel=5 note=61 velocity=80 time=0
EXTRACT: note_on channel=1 note=66 velocity=75 time=0.014705875
EXTRACT: note_on channel=1 note=42 velocity=67 time=0.002941175
EXTRACT: note_on channel=1 note=61 velocity=75 time=0.008823524999999999
EXTRACT: note_on channel=0 note=34 velocity=100 time=0.002941175
EXTRACT: note_on channel=6 note=61 velocity=64 time=0.002941175
EXTRACT: note_on channel=9 note=42 velocity=81 time=0
EXTRACT: note_on channel=9 note=36 velocity=90 time=0
EXTRACT: note_on channel=9 note=35 velocity=90 time=0
EXTRACT: note_on channel=1 note=54 velocity=75 time=0.002941175
EXTRACT: note_on channel=5 note=59 velocity=0 time=0.002941175
EXTRACT: note_on channel=1 note=49 velocity=67 time=0.002941175
EXTRACT: note_on channel=0 note=35 velocity=0 time=0.0470588
EXTRACT: control_change channel=6 control=64 value=127 time=0.05294115
EXTRACT: note_on channel=9 note=35 velocity=0 time=0.0235294
EXTRACT: note_on channel=9 note=36 velocity=0 time=0
EXTRACT: note_on channel=9 note=42 velocity=0 time=0
EXTRACT: pitchwheel channel=5 pitch=187 time=0.08823525
EXTRACT: pitchwheel channel=5 pitch=749 time=0.017647049999999997
EXTRACT: pitchwheel channel=5 pitch=1125 time=0.014705875
EXTRACT: pitchwheel channel=5 pitch=1312 time=0.014705875
EXTRACT: pitchwheel channel=5 pitch=1125 time=0.032352925
EXTRACT: pitchwheel channel=5 pitch=562 time=0.020588224999999998
EXTRACT: pitchwheel channel=5 pitch=187 time=0.008823524999999999
EXTRACT: pitchwheel channel=5 pitch=0 time=0.017647049999999997
EXTRACT: note_on channel=9 note=42 velocity=77 time=0.00588235
EXTRACT: pitchwheel channel=5 pitch=374 time=0.055882325
EXTRACT: note_on channel=9 note=42 velocity=0 time=0.008823524999999999
EXTRACT: pitchwheel channel=5 pitch=749 time=0.00588235
EXTRACT: note_on channel=6 note=61 velocity=0 time=0.002941175
EXTRACT: pitchwheel channel=5 pitch=1125 time=0.0117647
EXTRACT: pitchwheel channel=5 pitch=1312 time=0.017647049999999997
EXTRACT: note_on channel=0 note=34 velocity=0 time=0.026470575
EXTRACT: note_on channel=1 note=66 velocity=0 time=0.002941175
EXTRACT: pitchwheel channel=5 pitch=1125 time=0
EXTRACT: note_on channel=1 note=42 velocity=0 time=0.00588235
EXTRACT: note_on channel=5 note=61 velocity=0 time=0.002941175
EXTRACT: note_on channel=1 note=61 velocity=0 time=0.00588235
EXTRACT: note_on channel=1 note=54 velocity=0 time=0.008823524999999999
EXTRACT: pitchwheel channel=5 pitch=749 time=0
EXTRACT: note_on channel=1 note=49 velocity=0 time=0.002941175
EXTRACT: note_on channel=5 note=61 velocity=76 time=0
EXTRACT: note_on channel=1 note=61 velocity=63 time=0.002941175
EXTRACT: note_on channel=1 note=66 velocity=63 time=0.002941175
EXTRACT: pitchwheel channel=5 pitch=374 time=0
EXTRACT: note_on channel=1 note=42 velocity=54 time=0.002941175
EXTRACT: note_on channel=0 note=34 velocity=98 time=0.00588235
EXTRACT: note_on channel=9 note=35 velocity=90 time=0.002941175
EXTRACT: note_on channel=9 note=36 velocity=90 time=0
EXTRACT: pitchwheel channel=5 pitch=0 time=0.00588235
EXTRACT: note_on channel=1 note=49 velocity=54 time=0.002941175
EXTRACT: note_on channel=1 note=54 velocity=63 time=0
EXTRACT: note_on channel=6 note=66 velocity=64 time=0.00588235
EXTRACT: note_on channel=9 note=36 velocity=0 time=0.117647
EXTRACT: note_on channel=9 note=35 velocity=0 time=0
EXTRACT: note_on channel=6 note=66 velocity=0 time=0.00588235
EXTRACT: note_on channel=1 note=54 velocity=0 time=0.008823524999999999
EXTRACT: note_on channel=1 note=61 velocity=0 time=0.00588235
EXTRACT: note_on channel=1 note=54 velocity=72 time=0.002941175
EXTRACT: note_on channel=1 note=61 velocity=72 time=0
EXTRACT: note_on channel=1 note=66 velocity=0 time=0
EXTRACT: note_on channel=1 note=42 velocity=0 time=0.002941175
EXTRACT: note_on channel=9 note=70 velocity=88 time=0
EXTRACT: note_on channel=1 note=49 velocity=0 time=0.002941175
EXTRACT: note_on channel=9 note=82 velocity=47 time=0.002941175
EXTRACT: note_on channel=9 note=42 velocity=99 time=0
EXTRACT: note_on channel=9 note=39 velocity=65 time=0
EXTRACT: note_on channel=9 note=40 velocity=81 time=0
EXTRACT: note_on channel=1 note=42 velocity=64 time=0.002941175
EXTRACT: note_on channel=1 note=49 velocity=64 time=0.002941175
EXTRACT: note_on channel=1 note=66 velocity=72 time=0.00588235
EXTRACT: pitchwheel channel=5 pitch=0 time=0.035294099999999995
EXTRACT: note_on channel=9 note=42 velocity=0 time=0.0470588
EXTRACT: note_on channel=9 note=70 velocity=0 time=0.032352925
EXTRACT: note_on channel=9 note=82 velocity=0 time=0.00588235
EXTRACT: note_on channel=9 note=39 velocity=0 time=0
EXTRACT: note_on channel=9 note=40 velocity=0 time=0
EXTRACT: note_on channel=1 note=61 velocity=0 time=0.202941075
EXTRACT: note_on channel=1 note=54 velocity=0 time=0
EXTRACT: note_on channel=5 note=61 velocity=0 time=0.002941175
EXTRACT: note_on channel=1 note=42 velocity=0 time=0.008823524999999999
EXTRACT: note_on channel=0 note=34 velocity=0 time=0.002941175
EXTRACT: note_on channel=1 note=49 velocity=0 time=0.002941175
EXTRACT: note_on channel=1 note=66 velocity=0 time=0.002941175
EXTRACT: note_on channel=1 note=54 velocity=72 time=0
EXTRACT: note_on channel=1 note=66 velocity=72 time=0.002941175
EXTRACT: note_on channel=5 note=63 velocity=79 time=0
EXTRACT: note_on channel=0 note=35 velocity=98 time=0.00588235
EXTRACT: note_on channel=6 note=63 velocity=64 time=0
EXTRACT: note_on channel=9 note=42 velocity=77 time=0
EXTRACT: note_on channel=9 note=36 velocity=97 time=0
EXTRACT: note_on channel=9 note=35 velocity=97 time=0
EXTRACT: note_on channel=1 note=59 velocity=72 time=0.002941175
EXTRACT: note_on channel=1 note=63 velocity=72 time=0.00588235
EXTRACT: note_on channel=1 note=47 velocity=64 time=0.00588235
EXTRACT: note_on channel=6 note=63 velocity=0 time=0.073529375
EXTRACT: note_on channel=9 note=42 velocity=0 time=0.0117647
EXTRACT: note_on channel=9 note=35 velocity=0 time=0.032352925
EXTRACT: note_on channel=9 note=36 velocity=0 time=0
EXTRACT: pitchwheel channel=5 pitch=327 time=0.179411675
EXTRACT: pitchwheel channel=5 pitch=654 time=0.014705875
EXTRACT: note_on channel=9 note=42 velocity=76 time=0.026470575
EXTRACT: pitchwheel channel=5 pitch=327 time=0.020588224999999998
EXTRACT: pitchwheel channel=5 pitch=0 time=0.014705875
EXTRACT: note_on channel=9 note=42 velocity=0 time=0.067647025
EXTRACT: note_on channel=1 note=54 velocity=0 time=0.038235275
EXTRACT: note_on channel=1 note=66 velocity=0 time=0.002941175
EXTRACT: pitchwheel channel=5 pitch=765 time=0
EXTRACT: note_on channel=1 note=59 velocity=0 time=0.008823524999999999
EXTRACT: note_on channel=1 note=63 velocity=0 time=0.00588235
EXTRACT: pitchwheel channel=5 pitch=1277 time=0
EXTRACT: note_on channel=1 note=47 velocity=0 time=0.00588235
EXTRACT: note_on channel=9 note=70 velocity=57 time=0
EXTRACT: note_on channel=1 note=63 velocity=60 time=0.002941175
EXTRACT: note_on channel=9 note=82 velocity=30 time=0.002941175
EXTRACT: note_on channel=1 note=59 velocity=60 time=0.002941175
EXTRACT: pitchwheel channel=5 pitch=1788 time=0
EXTRACT: note_on channel=1 note=47 velocity=52 time=0.002941175
EXTRACT: note_on channel=9 note=40 velocity=46 time=0
EXTRACT: note_on channel=1 note=54 velocity=60 time=0.0117647
EXTRACT: note_on channel=1 note=66 velocity=60 time=0
EXTRACT: pitchwheel channel=5 pitch=1532 time=0.032352925
EXTRACT: pitchwheel channel=5 pitch=765 time=0.014705875
EXTRACT: pitchwheel channel=5 pitch=254 time=0.014705875
EXTRACT: pitchwheel channel=5 pitch=0 time=0.017647049999999997
EXTRACT: note_on channel=0 note=35 velocity=0 time=0.00588235
EXTRACT: note_on channel=9 note=70 velocity=0 time=0.0235294
EXTRACT: note_on channel=9 note=82 velocity=0 time=0.00588235
EXTRACT: note_on channel=9 note=40 velocity=0 time=0.00588235
EXTRACT: note_on channel=1 note=59 velocity=0 time=0.0117647
EXTRACT: note_on channel=1 note=47 velocity=0 time=0.002941175
EXTRACT: note_on channel=1 note=63 velocity=0 time=0.002941175
EXTRACT: note_on channel=1 note=59 velocity=69 time=0
EXTRACT: note_on channel=1 note=63 velocity=69 time=0.00588235
EXTRACT: note_on channel=1 note=47 velocity=60 time=0
EXTRACT: note_on channel=1 note=66 velocity=0 time=0.00588235
EXTRACT: note_on channel=1 note=66 velocity=69 time=0.002941175
EXTRACT: note_on channel=9 note=42 velocity=79 time=0
EXTRACT: note_on channel=9 note=36 velocity=90 time=0
EXTRACT: note_on channel=9 note=35 velocity=90 time=0
EXTRACT: note_on channel=1 note=54 velocity=0 time=0.00588235
EXTRACT: note_on channel=0 note=35 velocity=99 time=0.002941175
EXTRACT: note_on channel=1 note=54 velocity=69 time=0.00588235
EXTRACT: pitchwheel channel=5 pitch=529 time=0.020588224999999998
EXTRACT: pitchwheel channel=5 pitch=1060 time=0.014705875
EXTRACT: pitchwheel channel=5 pitch=1590 time=0.014705875
EXTRACT: note_on channel=9 note=42 velocity=0 time=0.032352925
EXTRACT: pitchwheel channel=5 pitch=529 time=0.02941175
EXTRACT: note_on channel=9 note=35 velocity=0 time=0.00588235
EXTRACT: note_on channel=9 note=36 velocity=0 time=0
EXTRACT: pitchwheel channel=5 pitch=0 time=0.008823524999999999
EXTRACT: pitchwheel channel=5 pitch=529 time=0.14117639999999998
EXTRACT: pitchwheel channel=5 pitch=1060 time=0.014705875
EXTRACT: note_on channel=9 note=70 velocity=88 time=0.061764675
EXTRACT: note_on channel=9 note=82 velocity=47 time=0.00588235
EXTRACT: note_on channel=9 note=42 velocity=99 time=0
EXTRACT: note_on channel=9 note=39 velocity=65 time=0
EXTRACT: note_on channel=9 note=40 velocity=81 time=0
EXTRACT: pitchwheel channel=5 pitch=529 time=0.008823524999999999
EXTRACT: pitchwheel channel=5 pitch=0 time=0.017647049999999997
EXTRACT: note_on channel=0 note=35 velocity=0 time=0.085294075
EXTRACT: note_on channel=9 note=42 velocity=0 time=0
EXTRACT: note_on channel=9 note=70 velocity=0 time=0.014705875
EXTRACT: note_on channel=9 note=82 velocity=0 time=0.00588235
EXTRACT: note_on channel=9 note=39 velocity=0 time=0
EXTRACT: note_on channel=9 note=40 velocity=0 time=0
EXTRACT: note_on channel=1 note=63 velocity=0 time=0.0235294
EXTRACT: note_on channel=1 note=59 velocity=0 time=0.002941175
EXTRACT: note_on channel=1 note=66 velocity=0 time=0.00588235
EXTRACT: pitchwheel channel=5 pitch=529 time=0
EXTRACT: note_on channel=1 note=54 velocity=0 time=0.002941175
EXTRACT: note_on channel=1 note=59 velocity=57 time=0
EXTRACT: note_on channel=1 note=63 velocity=57 time=0
EXTRACT: note_on channel=1 note=47 velocity=0 time=0.002941175
EXTRACT: note_on channel=0 note=35 velocity=101 time=0.00588235
EXTRACT: note_on channel=1 note=54 velocity=57 time=0
EXTRACT: note_on channel=1 note=66 velocity=57 time=0
EXTRACT: note_on channel=1 note=47 velocity=49 time=0.0117647
EXTRACT: pitchwheel channel=5 pitch=1060 time=0.00588235
EXTRACT: pitchwheel channel=5 pitch=0 time=0.0470588
EXTRACT: note_on channel=1 note=59 velocity=0 time=0.079411725
EXTRACT: note_on channel=1 note=47 velocity=0 time=0.002941175
EXTRACT: note_on channel=1 note=59 velocity=67 time=0
EXTRACT: note_on channel=1 note=47 velocity=58 time=0
EXTRACT: note_on channel=1 note=63 velocity=0 time=0.008823524999999999
EXTRACT: note_on channel=1 note=66 velocity=0 time=0.00588235
EXTRACT: note_on channel=1 note=54 velocity=0 time=0.002941175
EXTRACT: note_on channel=1 note=66 velocity=67 time=0
EXTRACT: note_on channel=1 note=63 velocity=67 time=0
EXTRACT: note_on channel=1 note=54 velocity=67 time=0.00588235
EXTRACT: note_on channel=9 note=42 velocity=77 time=0.00588235
EXTRACT: pitchwheel channel=5 pitch=654 time=0.026470575
EXTRACT: pitchwheel channel=5 pitch=982 time=0.014705875
EXTRACT: pitchwheel channel=5 pitch=1309 time=0.032352925
EXTRACT: note_on channel=9 note=42 velocity=0 time=0.026470575
EXTRACT: pitchwheel channel=5 pitch=982 time=0.00588235
EXTRACT: pitchwheel channel=5 pitch=327 time=0.014705875
EXTRACT: pitchwheel channel=5 pitch=0 time=0.014705875
EXTRACT: control_change channel=6 control=64 value=0 time=0.13529405
EXTRACT: note_on channel=0 note=35 velocity=0 time=0.014705875
EXTRACT: note_on channel=1 note=59 velocity=0 time=0.026470575
EXTRACT: note_on channel=1 note=47 velocity=0 time=0
EXTRACT: note_on channel=1 note=63 velocity=0 time=0.017647049999999997
EXTRACT: note_on channel=1 note=66 velocity=0 time=0
EXTRACT: note_on channel=1 note=54 velocity=0 time=0.00588235
EXTRACT: note_on channel=1 note=66 velocity=75 time=0
EXTRACT: note_on channel=1 note=42 velocity=67 time=0.002941175
EXTRACT: note_on channel=1 note=61 velocity=75 time=0.008823524999999999
EXTRACT: note_on channel=0 note=34 velocity=98 time=0.002941175
EXTRACT: note_on channel=6 note=61 velocity=64 time=0.002941175
EXTRACT: note_on channel=9 note=42 velocity=81 time=0
EXTRACT: note_on channel=9 note=36 velocity=90 time=0
EXTRACT: note_on channel=9 note=35 velocity=90 time=0
EXTRACT: note_on channel=1 note=54 velocity=75 time=0.002941175
EXTRACT: note_on channel=1 note=49 velocity=67 time=0.00588235
EXTRACT: pitchwheel channel=5 pitch=0 time=0.00588235
EXTRACT: note_on channel=5 note=63 velocity=0 time=0.09999994999999999
EXTRACT: note_on channel=9 note=35 velocity=0 time=0.017647049999999997
EXTRACT: note_on channel=9 note=36 velocity=0 time=0
EXTRACT: note_on channel=9 note=42 velocity=0 time=0
EXTRACT: control_change channel=6 control=64 value=127 time=0.020588224999999998
EXTRACT: note_on channel=9 note=42 velocity=77 time=0.19999989999999998
EXTRACT: note_on channel=6 note=61 velocity=0 time=0.017647049999999997
EXTRACT: note_on channel=9 note=42 velocity=0 time=0.0470588
EXTRACT: note_on channel=0 note=34 velocity=0 time=0.06470585
EXTRACT: note_on channel=1 note=66 velocity=0 time=0.014705875
EXTRACT: note_on channel=1 note=42 velocity=0 time=0.002941175
EXTRACT: note_on channel=1 note=61 velocity=0 time=0.008823524999999999
EXTRACT: note_on channel=1 note=61 velocity=63 time=0.00588235
EXTRACT: note_on channel=1 note=54 velocity=0 time=0.002941175
EXTRACT: note_on channel=1 note=66 velocity=63 time=0
EXTRACT: note_on channel=1 note=42 velocity=54 time=0.002941175
EXTRACT: note_on channel=1 note=49 velocity=0 time=0.002941175
EXTRACT: note_on channel=0 note=34 velocity=98 time=0.00588235
EXTRACT: note_on channel=9 note=35 velocity=90 time=0
EXTRACT: note_on channel=9 note=36 velocity=90 time=0
EXTRACT: note_on channel=1 note=49 velocity=54 time=0.008823524999999999
EXTRACT: note_on channel=1 note=54 velocity=63 time=0
EXTRACT: note_on channel=6 note=63 velocity=64 time=0.00588235
EXTRACT: note_on channel=6 note=63 velocity=0 time=0.114705825
EXTRACT: note_on channel=9 note=36 velocity=0 time=0.002941175
EXTRACT: note_on channel=9 note=35 velocity=0 time=0
EXTRACT: note_on channel=1 note=54 velocity=0 time=0.017647049999999997
EXTRACT: note_on channel=1 note=61 velocity=0 time=0.002941175
EXTRACT: note_on channel=1 note=54 velocity=72 time=0.002941175
EXTRACT: note_on channel=1 note=61 velocity=72 time=0
EXTRACT: note_on channel=1 note=66 velocity=0 time=0
EXTRACT: note_on channel=1 note=42 velocity=0 time=0.002941175
EXTRACT: note_on channel=9 note=70 velocity=88 time=0
EXTRACT: note_on channel=9 note=82 velocity=47 time=0.00588235
EXTRACT: note_on channel=9 note=42 velocity=99 time=0
EXTRACT: note_on channel=9 note=39 velocity=65 time=0
EXTRACT: note_on channel=9 note=40 velocity=81 time=0
EXTRACT: note_on channel=1 note=49 velocity=0 time=0.002941175
EXTRACT: note_on channel=1 note=42 velocity=64 time=0
EXTRACT: note_on channel=1 note=49 velocity=64 time=0.002941175
EXTRACT: note_on channel=1 note=66 velocity=72 time=0.00588235
EXTRACT: note_on channel=9 note=42 velocity=0 time=0.08235289999999999
EXTRACT: note_on channel=9 note=70 velocity=0 time=0.032352925
EXTRACT: note_on channel=9 note=82 velocity=0 time=0.00588235
EXTRACT: note_on channel=9 note=39 velocity=0 time=0
EXTRACT: note_on channel=9 note=40 velocity=0 time=0
EXTRACT: note_on channel=0 note=34 velocity=0 time=0.179411675
EXTRACT: note_on channel=1 note=54 velocity=0 time=0.035294099999999995
EXTRACT: note_on channel=1 note=61 velocity=0 time=0
EXTRACT: note_on channel=1 note=66 velocity=0 time=0.008823524999999999
EXTRACT: note_on channel=1 note=51 velocity=72 time=0
EXTRACT: note_on channel=1 note=42 velocity=0 time=0.002941175
EXTRACT: note_on channel=1 note=66 velocity=72 time=0
EXTRACT: note_on channel=0 note=32 velocity=98 time=0.00588235
EXTRACT: note_on channel=1 note=49 velocity=0 time=0
EXTRACT: note_on channel=6 note=59 velocity=60 time=0
EXTRACT: note_on channel=9 note=42 velocity=77 time=0
EXTRACT: note_on channel=9 note=36 velocity=97 time=0
EXTRACT: note_on channel=9 note=35 velocity=97 time=0
EXTRACT: note_on channel=1 note=59 velocity=72 time=0.002941175
EXTRACT: note_on channel=1 note=63 velocity=72 time=0.00588235
EXTRACT: note_on channel=1 note=44 velocity=64 time=0.00588235
EXTRACT: note_on channel=9 note=42 velocity=0 time=0.085294075
EXTRACT: note_on channel=6 note=59 velocity=0 time=0.008823524999999999
EXTRACT: note_on channel=9 note=35 velocity=0 time=0.0235294
EXTRACT: note_on channel=9 note=36 velocity=0 time=0
EXTRACT: note_on channel=9 note=42 velocity=76 time=0.220588125
EXTRACT: note_on channel=9 note=42 velocity=0 time=0.102941125
EXTRACT: note_on channel=1 note=51 velocity=0 time=0.038235275
EXTRACT: note_on channel=1 note=66 velocity=0 time=0.002941175
EXTRACT: note_on channel=1 note=59 velocity=0 time=0.008823524999999999
EXTRACT: note_on channel=1 note=63 velocity=0 time=0.00588235
EXTRACT: note_on channel=1 note=44 velocity=0 time=0.00588235
EXTRACT: note_on channel=9 note=70 velocity=57 time=0
EXTRACT: note_on channel=1 note=63 velocity=60 time=0.002941175
EXTRACT: note_on channel=9 note=82 velocity=30 time=0.002941175
EXTRACT: note_on channel=1 note=59 velocity=60 time=0.002941175
EXTRACT: note_on channel=1 note=44 velocity=52 time=0.002941175
EXTRACT: note_on channel=9 note=40 velocity=46 time=0
EXTRACT: note_on channel=1 note=51 velocity=60 time=0.0117647
EXTRACT: note_on channel=1 note=66 velocity=60 time=0
EXTRACT: note_on channel=0 note=32 velocity=0 time=0.07058819999999999
EXTRACT: note_on channel=9 note=70 velocity=0 time=0.038235275
EXTRACT: note_on channel=9 note=82 velocity=0 time=0.00588235
EXTRACT: note_on channel=9 note=40 velocity=0 time=0.00588235
EXTRACT: note_on channel=1 note=59 velocity=0 time=0.008823524999999999
EXTRACT: note_on channel=1 note=44 velocity=0 time=0.002941175
EXTRACT: note_on channel=1 note=63 velocity=0 time=0.00588235
EXTRACT: note_on channel=1 note=59 velocity=69 time=0
EXTRACT: note_on channel=1 note=63 velocity=69 time=0.00588235
EXTRACT: note_on channel=1 note=44 velocity=60 time=0
EXTRACT: note_on channel=1 note=66 velocity=0 time=0.002941175
EXTRACT: note_on channel=5 note=66 velocity=80 time=0
EXTRACT: note_on channel=1 note=66 velocity=69 time=0.00588235
EXTRACT: note_on channel=9 note=42 velocity=79 time=0
EXTRACT: note_on channel=9 note=36 velocity=90 time=0
EXTRACT: note_on channel=9 note=35 velocity=90 time=0
EXTRACT: note_on channel=1 note=51 velocity=0 time=0.00588235
EXTRACT: note_on channel=0 note=32 velocity=98 time=0.002941175
EXTRACT: note_on channel=1 note=51 velocity=69 time=0.00588235
EXTRACT: note_on channel=9 note=42 velocity=0 time=0.08235289999999999
EXTRACT: note_on channel=9 note=35 velocity=0 time=0.035294099999999995
EXTRACT: note_on channel=9 note=36 velocity=0 time=0
EXTRACT: note_on channel=5 note=68 velocity=74 time=0.026470575
EXTRACT: note_on channel=5 note=66 velocity=0 time=0.044117625
EXTRACT: note_on channel=1 note=63 velocity=0 time=0.144117575
EXTRACT: note_on channel=1 note=59 velocity=0 time=0
EXTRACT: note_on channel=1 note=66 velocity=0 time=0.008823524999999999
EXTRACT: note_on channel=1 note=59 velocity=53 time=0
EXTRACT: note_on channel=1 note=63 velocity=53 time=0
EXTRACT: note_on channel=1 note=44 velocity=0 time=0
EXTRACT: note_on channel=1 note=51 velocity=0 time=0.002941175
EXTRACT: note_on channel=9 note=70 velocity=88 time=0
EXTRACT: note_on channel=1 note=51 velocity=53 time=0.00588235
EXTRACT: note_on channel=1 note=66 velocity=53 time=0
EXTRACT: note_on channel=9 note=82 velocity=47 time=0
EXTRACT: note_on channel=9 note=42 velocity=99 time=0
EXTRACT: note_on channel=9 note=39 velocity=65 time=0
EXTRACT: note_on channel=9 note=40 velocity=81 time=0
EXTRACT: note_on channel=1 note=44 velocity=46 time=0.0117647
EXTRACT: pitchwheel channel=5 pitch=264 time=0.026470575
EXTRACT: pitchwheel channel=5 pitch=1056 time=0.014705875
EXTRACT: pitchwheel channel=5 pitch=1585 time=0.017647049999999997
EXTRACT: note_on channel=1 note=51 velocity=0 time=0.014705875
EXTRACT: pitchwheel channel=5 pitch=1849 time=0
EXTRACT: note_on channel=1 note=59 velocity=0 time=0.014705875
EXTRACT: note_on channel=1 note=44 velocity=0 time=0.002941175
EXTRACT: note_on channel=1 note=63 velocity=0 time=0.008823524999999999
EXTRACT: note_on channel=9 note=42 velocity=0 time=0
EXTRACT: pitchwheel channel=5 pitch=1585 time=0.002941175
EXTRACT: note_on channel=1 note=66 velocity=0 time=0.002941175
EXTRACT: note_on channel=9 note=70 velocity=0 time=0.008823524999999999
EXTRACT: note_on channel=9 note=82 velocity=0 time=0.00588235
EXTRACT: note_on channel=9 note=39 velocity=0 time=0
EXTRACT: note_on channel=9 note=40 velocity=0 time=0
EXTRACT: pitchwheel channel=5 pitch=792 time=0.00588235
EXTRACT: note_on channel=1 note=59 velocity=67 time=0.008823524999999999
EXTRACT: note_on channel=1 note=44 velocity=58 time=0
EXTRACT: pitchwheel channel=5 pitch=264 time=0
EXTRACT: pitchwheel channel=5 pitch=0 time=0.014705875
EXTRACT: note_on channel=1 note=66 velocity=67 time=0.002941175
EXTRACT: note_on channel=1 note=63 velocity=67 time=0
EXTRACT: note_on channel=1 note=51 velocity=67 time=0.00588235
EXTRACT: pitchwheel channel=5 pitch=528 time=0.055882325
EXTRACT: pitchwheel channel=5 pitch=1056 time=0.014705875
EXTRACT: pitchwheel channel=5 pitch=1585 time=0.014705875
EXTRACT: pitchwheel channel=5 pitch=1849 time=0.014705875
EXTRACT: pitchwheel channel=5 pitch=1585 time=0.032352925
EXTRACT: pitchwheel channel=5 pitch=1056 time=0.020588224999999998
EXTRACT: pitchwheel channel=5 pitch=528 time=0.008823524999999999
EXTRACT: note_on channel=0 note=32 velocity=0 time=0.014705875
EXTRACT: note_on channel=5 note=66 velocity=75 time=0
EXTRACT: note_on channel=0 note=30 velocity=101 time=0.002941175
EXTRACT: pitchwheel channel=5 pitch=0 time=0
EXTRACT: note_on channel=9 note=42 velocity=77 time=0.002941175
EXTRACT: note_on channel=5 note=68 velocity=0 time=0.049999974999999995
EXTRACT: note_on channel=9 note=42 velocity=0 time=0.049999974999999995
EXTRACT: note_on channel=5 note=63 velocity=63 time=0.049999974999999995
EXTRACT: note_on channel=5 note=66 velocity=0 time=0.014705875
EXTRACT: note_on channel=0 note=32 velocity=101 time=0.0117647
EXTRACT: pitchwheel channel=5 pitch=0 time=0.020588224999999998
EXTRACT: note_on channel=0 note=30 velocity=0 time=0.00588235
EXTRACT: note_on channel=1 note=44 velocity=0 time=0.0941176
EXTRACT: note_on channel=1 note=59 velocity=0 time=0
EXTRACT: control_change channel=6 control=64 value=0 time=0.008823524999999999
EXTRACT: note_on channel=1 note=63 velocity=0 time=0.008823524999999999
EXTRACT: note_on channel=1 note=66 velocity=0 time=0
EXTRACT: note_on channel=1 note=51 velocity=0 time=0.00588235
EXTRACT: note_on channel=5 note=66 velocity=76 time=0
EXTRACT: note_on channel=1 note=66 velocity=75 time=0.014705875
EXTRACT: note_on channel=1 note=42 velocity=67 time=0.002941175
EXTRACT: note_on channel=1 note=61 velocity=75 time=0.008823524999999999
EXTRACT: note_on channel=0 note=34 velocity=99 time=0.00588235
EXTRACT: note_on channel=6 note=61 velocity=64 time=0
EXTRACT: note_on channel=9 note=42 velocity=81 time=0
EXTRACT: note_on channel=9 note=36 velocity=90 time=0
EXTRACT: note_on channel=9 note=35 velocity=90 time=0
EXTRACT: note_on channel=1 note=54 velocity=75 time=0.002941175
EXTRACT: note_on channel=5 note=63 velocity=0 time=0.002941175
EXTRACT: note_on channel=1 note=49 velocity=67 time=0.002941175
EXTRACT: note_on channel=0 note=32 velocity=0 time=0.017647049999999997
EXTRACT: control_change channel=6 control=64 value=127 time=0.08235289999999999
EXTRACT: note_on channel=9 note=35 velocity=0 time=0.0235294
EXTRACT: note_on channel=9 note=36 velocity=0 time=0
EXTRACT: note_on channel=9 note=42 velocity=0 time=0
EXTRACT: pitchwheel channel=5 pitch=187 time=0.08823525
EXTRACT: pitchwheel channel=5 pitch=749 time=0.017647049999999997
EXTRACT: pitchwheel channel=5 pitch=1125 time=0.014705875
EXTRACT: pitchwheel channel=5 pitch=1312 time=0.014705875
EXTRACT: pitchwheel channel=5 pitch=1125 time=0.032352925
EXTRACT: pitchwheel channel=5 pitch=562 time=0.020588224999999998
EXTRACT: pitchwheel channel=5 pitch=187 time=0.008823524999999999
EXTRACT: pitchwheel channel=5 pitch=0 time=0.017647049999999997
EXTRACT: note_on channel=9 note=42 velocity=77 time=0.00588235
EXTRACT: pitchwheel channel=5 pitch=374 time=0.055882325
EXTRACT: note_on channel=9 note=42 velocity=0 time=0.008823524999999999
EXTRACT: pitchwheel channel=5 pitch=749 time=0.00588235
EXTRACT: note_on channel=6 note=61 velocity=0 time=0.002941175
EXTRACT: pitchwheel channel=5 pitch=1125 time=0.0117647
EXTRACT: pitchwheel channel=5 pitch=1312 time=0.017647049999999997
EXTRACT: note_on channel=0 note=34 velocity=0 time=0.02941175
EXTRACT: note_on channel=1 note=66 velocity=0 time=0
EXTRACT: pitchwheel channel=5 pitch=1125 time=0
EXTRACT: note_on channel=1 note=42 velocity=0 time=0.00588235
EXTRACT: note_on channel=1 note=61 velocity=0 time=0.008823524999999999
EXTRACT: note_on channel=1 note=54 velocity=0 time=0.008823524999999999
EXTRACT: pitchwheel channel=5 pitch=749 time=0
EXTRACT: note_on channel=1 note=49 velocity=0 time=0.002941175
EXTRACT: note_on channel=1 note=61 velocity=63 time=0.002941175
EXTRACT: note_on channel=1 note=66 velocity=63 time=0.002941175
EXTRACT: pitchwheel channel=5 pitch=374 time=0
EXTRACT: note_on channel=1 note=42 velocity=54 time=0.002941175
EXTRACT: note_on channel=0 note=34 velocity=102 time=0.008823524999999999
EXTRACT: note_on channel=9 note=35 velocity=90 time=0
EXTRACT: note_on channel=9 note=36 velocity=90 time=0
EXTRACT: pitchwheel channel=5 pitch=0 time=0.00588235
EXTRACT: note_on channel=1 note=49 velocity=54 time=0.002941175
EXTRACT: note_on channel=1 note=54 velocity=63 time=0
EXTRACT: note_on channel=6 note=66 velocity=64 time=0.00588235
EXTRACT: note_on channel=9 note=36 velocity=0 time=0.117647
EXTRACT: note_on channel=9 note=35 velocity=0 time=0
EXTRACT: note_on channel=6 note=66 velocity=0 time=0.00588235
EXTRACT: note_on channel=1 note=54 velocity=0 time=0.008823524999999999
EXTRACT: note_on channel=1 note=61 velocity=0 time=0.00588235
EXTRACT: note_on channel=1 note=54 velocity=72 time=0.002941175
EXTRACT: note_on channel=1 note=61 velocity=72 time=0
EXTRACT: note_on channel=1 note=66 velocity=0 time=0
EXTRACT: note_on channel=1 note=42 velocity=0 time=0.002941175
EXTRACT: note_on channel=9 note=70 velocity=88 time=0
EXTRACT: note_on channel=1 note=49 velocity=0 time=0.002941175
EXTRACT: note_on channel=9 note=82 velocity=47 time=0.002941175
EXTRACT: note_on channel=9 note=42 velocity=99 time=0
EXTRACT: note_on channel=9 note=39 velocity=65 time=0
EXTRACT: note_on channel=9 note=40 velocity=81 time=0
EXTRACT: note_on channel=1 note=42 velocity=64 time=0.002941175
EXTRACT: note_on channel=1 note=49 velocity=64 time=0.002941175
EXTRACT: note_on channel=1 note=66 velocity=72 time=0.00588235
EXTRACT: pitchwheel channel=5 pitch=0 time=0.00588235
EXTRACT: note_on channel=9 note=42 velocity=0 time=0.07647055
EXTRACT: note_on channel=9 note=70 velocity=0 time=0.032352925
EXTRACT: note_on channel=9 note=82 velocity=0 time=0.00588235
EXTRACT: note_on channel=9 note=39 velocity=0 time=0
EXTRACT: note_on channel=9 note=40 velocity=0 time=0
EXTRACT: note_on channel=1 note=61 velocity=0 time=0.202941075
EXTRACT: note_on channel=1 note=54 velocity=0 time=0
EXTRACT: note_on channel=1 note=42 velocity=0 time=0.0117647
EXTRACT: note_on channel=1 note=49 velocity=0 time=0.00588235
EXTRACT: note_on channel=1 note=66 velocity=0 time=0.002941175
EXTRACT: note_on channel=1 note=54 velocity=72 time=0
EXTRACT: note_on channel=1 note=66 velocity=72 time=0.002941175
EXTRACT: note_on channel=0 note=35 velocity=101 time=0.00588235
EXTRACT: note_on channel=6 note=63 velocity=64 time=0
EXTRACT: note_on channel=9 note=42 velocity=77 time=0
EXTRACT: note_on channel=9 note=36 velocity=97 time=0
EXTRACT: note_on channel=9 note=35 velocity=97 time=0
EXTRACT: note_on channel=0 note=34 velocity=0 time=0.002941175
EXTRACT: note_on channel=1 note=59 velocity=72 time=0
EXTRACT: note_on channel=1 note=63 velocity=72 time=0.00588235
EXTRACT: note_on channel=1 note=47 velocity=64 time=0.00588235
EXTRACT: note_on channel=6 note=63 velocity=0 time=0.073529375
EXTRACT: note_on channel=9 note=42 velocity=0 time=0.0117647
EXTRACT: note_on channel=9 note=35 velocity=0 time=0.032352925
EXTRACT: note_on channel=9 note=36 velocity=0 time=0
EXTRACT: pitchwheel channel=5 pitch=327 time=0.179411675
EXTRACT: pitchwheel channel=5 pitch=654 time=0.014705875
EXTRACT: note_on channel=9 note=42 velocity=76 time=0.026470575
EXTRACT: pitchwheel channel=5 pitch=327 time=0.020588224999999998
EXTRACT: pitchwheel channel=5 pitch=0 time=0.014705875
EXTRACT: note_on channel=9 note=42 velocity=0 time=0.067647025
EXTRACT: note_on channel=1 note=54 velocity=0 time=0.038235275
EXTRACT: note_on channel=1 note=66 velocity=0 time=0.002941175
EXTRACT: pitchwheel channel=5 pitch=765 time=0
EXTRACT: note_on channel=1 note=59 velocity=0 time=0.008823524999999999
EXTRACT: note_on channel=1 note=63 velocity=0 time=0.00588235
EXTRACT: pitchwheel channel=5 pitch=1277 time=0
EXTRACT: note_on channel=1 note=47 velocity=0 time=0.00588235
EXTRACT: note_on channel=9 note=70 velocity=57 time=0
EXTRACT: note_on channel=1 note=63 velocity=60 time=0.002941175
EXTRACT: note_on channel=9 note=82 velocity=30 time=0.002941175
EXTRACT: note_on channel=1 note=59 velocity=60 time=0.002941175
EXTRACT: pitchwheel channel=5 pitch=1788 time=0
EXTRACT: note_on channel=1 note=47 velocity=52 time=0.002941175
EXTRACT: note_on channel=9 note=40 velocity=46 time=0
EXTRACT: note_on channel=1 note=54 velocity=60 time=0.0117647
EXTRACT: note_on channel=1 note=66 velocity=60 time=0
EXTRACT: pitchwheel channel=5 pitch=1532 time=0.032352925
EXTRACT: pitchwheel channel=5 pitch=765 time=0.014705875
EXTRACT: pitchwheel channel=5 pitch=254 time=0.014705875
EXTRACT: note_on channel=0 note=35 velocity=0 time=0.014705875
EXTRACT: pitchwheel channel=5 pitch=0 time=0.002941175
EXTRACT: note_on channel=9 note=70 velocity=0 time=0.02941175
EXTRACT: note_on channel=9 note=82 velocity=0 time=0.00588235
EXTRACT: note_on channel=9 note=40 velocity=0 time=0.00588235
EXTRACT: note_on channel=1 note=59 velocity=0 time=0.0117647
EXTRACT: note_on channel=1 note=47 velocity=0 time=0.002941175
EXTRACT: note_on channel=1 note=63 velocity=0 time=0.002941175
EXTRACT: note_on channel=1 note=59 velocity=69 time=0
EXTRACT: note_on channel=1 note=63 velocity=69 time=0.00588235
EXTRACT: note_on channel=1 note=47 velocity=60 time=0
EXTRACT: note_on channel=1 note=66 velocity=0 time=0.00588235
EXTRACT: note_on channel=1 note=66 velocity=69 time=0.002941175
EXTRACT: note_on channel=9 note=42 velocity=79 time=0
EXTRACT: note_on channel=9 note=36 velocity=90 time=0
EXTRACT: note_on channel=9 note=35 velocity=90 time=0
EXTRACT: note_on channel=1 note=54 velocity=0 time=0.00588235
EXTRACT: note_on channel=0 note=35 velocity=100 time=0.002941175
EXTRACT: note_on channel=1 note=54 velocity=69 time=0.00588235
EXTRACT: pitchwheel channel=5 pitch=529 time=0.020588224999999998
EXTRACT: pitchwheel channel=5 pitch=1060 time=0.014705875
EXTRACT: pitchwheel channel=5 pitch=1590 time=0.014705875
EXTRACT: note_on channel=9 note=42 velocity=0 time=0.032352925
EXTRACT: pitchwheel channel=5 pitch=529 time=0.02941175
EXTRACT: note_on channel=9 note=35 velocity=0 time=0.00588235
EXTRACT: note_on channel=9 note=36 velocity=0 time=0
EXTRACT: pitchwheel channel=5 pitch=0 time=0.008823524999999999
EXTRACT: pitchwheel channel=5 pitch=529 time=0.14117639999999998
EXTRACT: pitchwheel channel=5 pitch=1060 time=0.014705875
EXTRACT: note_on channel=9 note=70 velocity=88 time=0.061764675
EXTRACT: note_on channel=9 note=82 velocity=47 time=0.00588235
EXTRACT: note_on channel=9 note=42 velocity=99 time=0
EXTRACT: note_on channel=9 note=39 velocity=65 time=0
EXTRACT: note_on channel=9 note=40 velocity=81 time=0
EXTRACT: pitchwheel channel=5 pitch=529 time=0.008823524999999999
EXTRACT: pitchwheel channel=5 pitch=0 time=0.017647049999999997
EXTRACT: note_on channel=9 note=42 velocity=0 time=0.085294075
EXTRACT: note_on channel=9 note=70 velocity=0 time=0.014705875
EXTRACT: note_on channel=9 note=82 velocity=0 time=0.00588235
EXTRACT: note_on channel=9 note=39 velocity=0 time=0
EXTRACT: note_on channel=9 note=40 velocity=0 time=0
EXTRACT: note_on channel=1 note=63 velocity=0 time=0.0235294
EXTRACT: note_on channel=1 note=59 velocity=0 time=0.002941175
EXTRACT: note_on channel=1 note=66 velocity=0 time=0.00588235
EXTRACT: pitchwheel channel=5 pitch=529 time=0
EXTRACT: note_on channel=1 note=54 velocity=0 time=0.002941175
EXTRACT: note_on channel=1 note=59 velocity=57 time=0
EXTRACT: note_on channel=1 note=63 velocity=57 time=0
EXTRACT: note_on channel=1 note=47 velocity=0 time=0.002941175
EXTRACT: note_on channel=1 note=54 velocity=57 time=0.00588235
EXTRACT: note_on channel=1 note=66 velocity=57 time=0
EXTRACT: note_on channel=1 note=47 velocity=49 time=0.0117647
EXTRACT: pitchwheel channel=5 pitch=1060 time=0.00588235
EXTRACT: pitchwheel channel=5 pitch=0 time=0.0470588
EXTRACT: note_on channel=1 note=59 velocity=0 time=0.079411725
EXTRACT: note_on channel=1 note=47 velocity=0 time=0.002941175
EXTRACT: note_on channel=1 note=59 velocity=67 time=0
EXTRACT: note_on channel=1 note=47 velocity=58 time=0
EXTRACT: note_on channel=1 note=63 velocity=0 time=0.008823524999999999
EXTRACT: note_on channel=1 note=66 velocity=0 time=0.00588235
EXTRACT: note_on channel=1 note=54 velocity=0 time=0.002941175
EXTRACT: note_on channel=1 note=66 velocity=67 time=0
EXTRACT: note_on channel=1 note=63 velocity=67 time=0
EXTRACT: note_on channel=1 note=54 velocity=67 time=0.00588235
EXTRACT: note_on channel=0 note=37 velocity=101 time=0.00588235
EXTRACT: note_on channel=9 note=42 velocity=77 time=0
EXTRACT: pitchwheel channel=5 pitch=654 time=0.026470575
EXTRACT: note_on channel=0 note=35 velocity=0 time=0.0117647
EXTRACT: pitchwheel channel=5 pitch=982 time=0.002941175
EXTRACT: pitchwheel channel=5 pitch=1309 time=0.032352925
EXTRACT: note_on channel=9 note=42 velocity=0 time=0.026470575
EXTRACT: pitchwheel channel=5 pitch=982 time=0.00588235
EXTRACT: pitchwheel channel=5 pitch=327 time=0.014705875
EXTRACT: pitchwheel channel=5 pitch=0 time=0.014705875
EXTRACT: note_on channel=0 note=35 velocity=103 time=0.038235275
EXTRACT: note_on channel=0 note=37 velocity=0 time=0.044117625
EXTRACT: control_change channel=6 control=64 value=0 time=0.05294115
EXTRACT: note_on channel=1 note=59 velocity=0 time=0.041176449999999996
EXTRACT: note_on channel=1 note=47 velocity=0 time=0
EXTRACT: note_on channel=1 note=63 velocity=0 time=0.017647049999999997
EXTRACT: note_on channel=1 note=66 velocity=0 time=0
EXTRACT: note_on channel=1 note=54 velocity=0 time=0.00588235
EXTRACT: note_on channel=1 note=66 velocity=75 time=0
EXTRACT: note_on channel=1 note=42 velocity=67 time=0.002941175
EXTRACT: note_on channel=1 note=61 velocity=75 time=0.008823524999999999
EXTRACT: note_on channel=0 note=34 velocity=98 time=0.002941175
EXTRACT: note_on channel=6 note=61 velocity=64 time=0.002941175
EXTRACT: note_on channel=9 note=42 velocity=81 time=0
EXTRACT: note_on channel=9 note=36 velocity=90 time=0
EXTRACT: note_on channel=9 note=35 velocity=90 time=0
EXTRACT: note_on channel=1 note=54 velocity=75 time=0.002941175
EXTRACT: note_on channel=1 note=49 velocity=67 time=0.00588235
EXTRACT: pitchwheel channel=5 pitch=0 time=0.002941175
EXTRACT: note_on channel=0 note=35 velocity=0 time=0.041176449999999996
EXTRACT: note_on channel=5 note=66 velocity=0 time=0.026470575
EXTRACT: note_on channel=9 note=35 velocity=0 time=0.05294115
EXTRACT: note_on channel=9 note=36 velocity=0 time=0
EXTRACT: note_on channel=9 note=42 velocity=0 time=0
EXTRACT: control_change channel=6 control=64 value=127 time=0.020588224999999998
EXTRACT: note_on channel=9 note=42 velocity=77 time=0.19999989999999998
EXTRACT: note_on channel=6 note=61 velocity=0 time=0.017647049999999997
EXTRACT: note_on channel=9 note=42 velocity=0 time=0.0470588
EXTRACT: note_on channel=0 note=34 velocity=0 time=0.067647025
EXTRACT: note_on channel=1 note=66 velocity=0 time=0.0117647
EXTRACT: note_on channel=1 note=42 velocity=0 time=0.002941175
EXTRACT: note_on channel=1 note=61 velocity=0 time=0.008823524999999999
EXTRACT: note_on channel=1 note=61 velocity=63 time=0.00588235
EXTRACT: note_on channel=1 note=54 velocity=0 time=0.002941175
EXTRACT: note_on channel=1 note=66 velocity=63 time=0
EXTRACT: note_on channel=1 note=42 velocity=54 time=0.002941175
EXTRACT: note_on channel=1 note=49 velocity=0 time=0.002941175
EXTRACT: note_on channel=0 note=34 velocity=98 time=0.002941175
EXTRACT: note_on channel=9 note=35 velocity=90 time=0.002941175
EXTRACT: note_on channel=9 note=36 velocity=90 time=0
EXTRACT: note_on channel=1 note=49 velocity=54 time=0.008823524999999999
EXTRACT: note_on channel=1 note=54 velocity=63 time=0
EXTRACT: note_on channel=6 note=63 velocity=64 time=0.00588235
EXTRACT: note_on channel=6 note=63 velocity=0 time=0.114705825
EXTRACT: note_on channel=9 note=36 velocity=0 time=0.002941175
EXTRACT: note_on channel=9 note=35 velocity=0 time=0
EXTRACT: note_on channel=1 note=54 velocity=0 time=0.017647049999999997
EXTRACT: note_on channel=1 note=61 velocity=0 time=0.002941175
EXTRACT: note_on channel=1 note=54 velocity=72 time=0.002941175
EXTRACT: note_on channel=1 note=61 velocity=72 time=0
EXTRACT: note_on channel=1 note=66 velocity=0 time=0
EXTRACT: note_on channel=1 note=42 velocity=0 time=0.002941175
EXTRACT: note_on channel=9 note=70 velocity=88 time=0
EXTRACT: note_on channel=9 note=82 velocity=47 time=0.00588235
EXTRACT: note_on channel=9 note=42 velocity=99 time=0
EXTRACT: note_on channel=9 note=39 velocity=65 time=0
EXTRACT: note_on channel=9 note=40 velocity=81 time=0
EXTRACT: note_on channel=1 note=49 velocity=0 time=0.002941175
EXTRACT: note_on channel=1 note=42 velocity=64 time=0
EXTRACT: note_on channel=1 note=49 velocity=64 time=0.002941175
EXTRACT: note_on channel=1 note=66 velocity=72 time=0.00588235
EXTRACT: note_on channel=9 note=42 velocity=0 time=0.08235289999999999
EXTRACT: note_on channel=9 note=70 velocity=0 time=0.032352925
EXTRACT: note_on channel=9 note=82 velocity=0 time=0.00588235
EXTRACT: note_on channel=9 note=39 velocity=0 time=0
EXTRACT: note_on channel=9 note=40 velocity=0 time=0
EXTRACT: note_on channel=0 note=34 velocity=0 time=0.19999989999999998
EXTRACT: note_on channel=1 note=54 velocity=0 time=0.014705875
EXTRACT: note_on channel=1 note=61 velocity=0 time=0
EXTRACT: note_on channel=1 note=66 velocity=0 time=0.008823524999999999
EXTRACT: note_on channel=1 note=51 velocity=72 time=0
EXTRACT: note_on channel=1 note=42 velocity=0 time=0.002941175
EXTRACT: note_on channel=1 note=66 velocity=72 time=0
EXTRACT: note_on channel=0 note=32 velocity=102 time=0.00588235
EXTRACT: note_on channel=1 note=49 velocity=0 time=0
EXTRACT: note_on channel=6 note=59 velocity=60 time=0
EXTRACT: note_on channel=9 note=42 velocity=77 time=0
EXTRACT: note_on channel=9 note=36 velocity=97 time=0
EXTRACT: note_on channel=9 note=35 velocity=97 time=0
EXTRACT: note_on channel=1 note=59 velocity=72 time=0.002941175
EXTRACT: note_on channel=1 note=63 velocity=72 time=0.00588235
EXTRACT: note_on channel=1 note=44 velocity=64 time=0.00588235
EXTRACT: note_on channel=9 note=42 velocity=0 time=0.085294075
EXTRACT: note_on channel=6 note=59 velocity=0 time=0.008823524999999999
EXTRACT: note_on channel=9 note=35 velocity=0 time=0.0235294
EXTRACT: note_on channel=9 note=36 velocity=0 time=0
EXTRACT: note_on channel=9 note=42 velocity=76 time=0.220588125
EXTRACT: note_on channel=9 note=42 velocity=0 time=0.102941125
EXTRACT: note_on channel=1 note=51 velocity=0 time=0.038235275
EXTRACT: note_on channel=1 note=66 velocity=0 time=0.002941175
EXTRACT: note_on channel=1 note=59 velocity=0 time=0.008823524999999999
EXTRACT: note_on channel=1 note=63 velocity=0 time=0.00588235
EXTRACT: note_on channel=1 note=44 velocity=0 time=0.00588235
EXTRACT: note_on channel=9 note=70 velocity=57 time=0
EXTRACT: note_on channel=1 note=63 velocity=60 time=0.002941175
EXTRACT: note_on channel=9 note=82 velocity=30 time=0.002941175
EXTRACT: note_on channel=1 note=59 velocity=60 time=0.002941175
EXTRACT: note_on channel=1 note=44 velocity=52 time=0.002941175
EXTRACT: note_on channel=9 note=40 velocity=46 time=0
EXTRACT: note_on channel=1 note=51 velocity=60 time=0.0117647
EXTRACT: note_on channel=1 note=66 velocity=60 time=0
EXTRACT: note_on channel=0 note=32 velocity=0 time=0.1058823
EXTRACT: note_on channel=9 note=70 velocity=0 time=0.002941175
EXTRACT: note_on channel=9 note=82 velocity=0 time=0.00588235
EXTRACT: note_on channel=9 note=40 velocity=0 time=0.00588235
EXTRACT: note_on channel=1 note=59 velocity=0 time=0.008823524999999999
EXTRACT: note_on channel=1 note=44 velocity=0 time=0.002941175
EXTRACT: note_on channel=1 note=63 velocity=0 time=0.00588235
EXTRACT: note_on channel=1 note=59 velocity=69 time=0
EXTRACT: note_on channel=1 note=63 velocity=69 time=0.00588235
EXTRACT: note_on channel=1 note=44 velocity=60 time=0
EXTRACT: note_on channel=1 note=66 velocity=0 time=0.002941175
EXTRACT: note_on channel=1 note=66 velocity=69 time=0.00588235
EXTRACT: note_on channel=9 note=42 velocity=79 time=0
EXTRACT: note_on channel=9 note=36 velocity=90 time=0
EXTRACT: note_on channel=9 note=35 velocity=90 time=0
EXTRACT: note_on channel=1 note=51 velocity=0 time=0.00588235
EXTRACT: note_on channel=0 note=32 velocity=99 time=0.00588235
EXTRACT: note_on channel=1 note=51 velocity=69 time=0.002941175
EXTRACT: note_on channel=9 note=42 velocity=0 time=0.08235289999999999
EXTRACT: note_on channel=9 note=35 velocity=0 time=0.035294099999999995
EXTRACT: note_on channel=9 note=36 velocity=0 time=0
EXTRACT: note_on channel=1 note=63 velocity=0 time=0.214705775
EXTRACT: note_on channel=1 note=59 velocity=0 time=0
EXTRACT: note_on channel=1 note=66 velocity=0 time=0.008823524999999999
EXTRACT: note_on channel=1 note=59 velocity=53 time=0
EXTRACT: note_on channel=1 note=63 velocity=53 time=0
EXTRACT: note_on channel=1 note=44 velocity=0 time=0
EXTRACT: note_on channel=1 note=51 velocity=0 time=0.002941175
EXTRACT: note_on channel=9 note=70 velocity=88 time=0
EXTRACT: note_on channel=1 note=51 velocity=53 time=0.00588235
EXTRACT: note_on channel=1 note=66 velocity=53 time=0
EXTRACT: note_on channel=9 note=82 velocity=47 time=0
EXTRACT: note_on channel=9 note=42 velocity=99 time=0
EXTRACT: note_on channel=9 note=39 velocity=65 time=0
EXTRACT: note_on channel=9 note=40 velocity=81 time=0
EXTRACT: note_on channel=1 note=44 velocity=46 time=0.0117647
EXTRACT: note_on channel=1 note=51 velocity=0 time=0.073529375
EXTRACT: note_on channel=1 note=59 velocity=0 time=0.014705875
EXTRACT: note_on channel=1 note=44 velocity=0 time=0.002941175
EXTRACT: note_on channel=1 note=63 velocity=0 time=0.008823524999999999
EXTRACT: note_on channel=9 note=42 velocity=0 time=0
EXTRACT: note_on channel=1 note=66 velocity=0 time=0.00588235
EXTRACT: note_on channel=9 note=70 velocity=0 time=0.008823524999999999
EXTRACT: note_on channel=9 note=82 velocity=0 time=0.00588235
EXTRACT: note_on channel=9 note=39 velocity=0 time=0
EXTRACT: note_on channel=9 note=40 velocity=0 time=0
EXTRACT: note_on channel=1 note=59 velocity=67 time=0.014705875
EXTRACT: note_on channel=1 note=44 velocity=58 time=0
EXTRACT: note_on channel=1 note=66 velocity=67 time=0.017647049999999997
EXTRACT: note_on channel=1 note=63 velocity=67 time=0
EXTRACT: note_on channel=1 note=51 velocity=67 time=0.00588235
EXTRACT: note_on channel=0 note=44 velocity=94 time=0.035294099999999995
EXTRACT: note_on channel=0 note=32 velocity=0 time=0.126470525
EXTRACT: note_on channel=9 note=42 velocity=77 time=0.020588224999999998
EXTRACT: pitchwheel channel=0 pitch=528 time=0.026470575
EXTRACT: pitchwheel channel=0 pitch=792 time=0.0235294
EXTRACT: pitchwheel channel=0 pitch=1321 time=0.0235294
EXTRACT: pitchwheel channel=0 pitch=1849 time=0.0235294
EXTRACT: note_on channel=9 note=42 velocity=0 time=0.002941175
EXTRACT: pitchwheel channel=0 pitch=2378 time=0.017647049999999997
EXTRACT: pitchwheel channel=0 pitch=2906 time=0.026470575
EXTRACT: pitchwheel channel=0 pitch=3170 time=0.0235294
EXTRACT: pitchwheel channel=0 pitch=3699 time=0.0235294
EXTRACT: pitchwheel channel=0 pitch=4227 time=0.0235294
EXTRACT: pitchwheel channel=0 pitch=4491 time=0.02941175
EXTRACT: pitchwheel channel=0 pitch=5020 time=0.017647049999999997
EXTRACT: pitchwheel channel=0 pitch=5548 time=0.020588224999999998
EXTRACT: note_on channel=1 note=44 velocity=0 time=0.014705875
EXTRACT: note_on channel=1 note=59 velocity=0 time=0
EXTRACT: control_change channel=6 control=64 value=0 time=0.008823524999999999
EXTRACT: pitchwheel channel=0 pitch=6077 time=0.002941175
EXTRACT: note_on channel=1 note=63 velocity=0 time=0.00588235
EXTRACT: note_on channel=1 note=66 velocity=0 time=0
EXTRACT: note_on channel=1 note=51 velocity=0 time=0.00588235
EXTRACT: pitchwheel channel=0 pitch=6605 time=0.0117647
EXTRACT: note_on channel=1 note=66 velocity=75 time=0.002941175
EXTRACT: note_on channel=1 note=42 velocity=67 time=0.002941175
EXTRACT: note_on channel=1 note=61 velocity=75 time=0.008823524999999999
EXTRACT: note_on channel=6 note=61 velocity=64 time=0.00588235
EXTRACT: note_on channel=9 note=42 velocity=81 time=0
EXTRACT: note_on channel=9 note=36 velocity=90 time=0
EXTRACT: note_on channel=9 note=35 velocity=90 time=0
EXTRACT: pitchwheel channel=0 pitch=6869 time=0.002941175
EXTRACT: note_on channel=1 note=54 velocity=75 time=0
EXTRACT: note_on channel=1 note=49 velocity=67 time=0.00588235
EXTRACT: pitchwheel channel=0 pitch=7134 time=0.017647049999999997
EXTRACT: pitchwheel channel=0 pitch=7398 time=0.0235294
EXTRACT: pitchwheel channel=0 pitch=7926 time=0.0235294
EXTRACT: pitchwheel channel=0 pitch=8191 time=0.0235294
EXTRACT: control_change channel=6 control=64 value=127 time=0.0117647
EXTRACT: note_on channel=9 note=35 velocity=0 time=0.0235294
EXTRACT: note_on channel=9 note=36 velocity=0 time=0
EXTRACT: note_on channel=9 note=42 velocity=0 time=0
EXTRACT: note_on channel=9 note=42 velocity=77 time=0.220588125
EXTRACT: note_on channel=9 note=42 velocity=0 time=0.06470585
EXTRACT: note_on channel=6 note=61 velocity=0 time=0.008823524999999999
EXTRACT: note_on channel=0 note=44 velocity=0 time=0.041176449999999996
EXTRACT: note_on channel=1 note=66 velocity=0 time=0.017647049999999997
EXTRACT: note_on channel=1 note=42 velocity=0 time=0.00588235
EXTRACT: note_on channel=1 note=61 velocity=0 time=0.008823524999999999
EXTRACT: note_on channel=1 note=54 velocity=0 time=0.008823524999999999
EXTRACT: note_on channel=1 note=49 velocity=0 time=0.002941175
EXTRACT: note_on channel=1 note=61 velocity=63 time=0.002941175
EXTRACT: note_on channel=1 note=66 velocity=63 time=0.002941175
EXTRACT: note_on channel=1 note=42 velocity=54 time=0.002941175
EXTRACT: note_on channel=0 note=44 velocity=94 time=0.00588235
EXTRACT: note_on channel=9 note=35 velocity=90 time=0.002941175
EXTRACT: note_on channel=9 note=36 velocity=90 time=0
EXTRACT: note_on channel=1 note=49 velocity=54 time=0.008823524999999999
EXTRACT: note_on channel=1 note=54 velocity=63 time=0
EXTRACT: note_on channel=6 note=66 velocity=64 time=0.00588235
EXTRACT: note_on channel=9 note=36 velocity=0 time=0.117647
EXTRACT: note_on channel=9 note=35 velocity=0 time=0
EXTRACT: note_on channel=6 note=66 velocity=0 time=0.00588235
EXTRACT: note_on channel=1 note=54 velocity=0 time=0.008823524999999999
EXTRACT: note_on channel=1 note=61 velocity=0 time=0.00588235
EXTRACT: note_on channel=1 note=54 velocity=72 time=0.002941175
EXTRACT: note_on channel=1 note=61 velocity=72 time=0
EXTRACT: note_on channel=1 note=66 velocity=0 time=0
EXTRACT: note_on channel=1 note=42 velocity=0 time=0.002941175
EXTRACT: note_on channel=9 note=70 velocity=88 time=0
EXTRACT: note_on channel=1 note=49 velocity=0 time=0.002941175
EXTRACT: note_on channel=9 note=82 velocity=47 time=0.002941175
EXTRACT: note_on channel=9 note=42 velocity=99 time=0
EXTRACT: note_on channel=9 note=39 velocity=65 time=0
EXTRACT: note_on channel=9 note=40 velocity=81 time=0
EXTRACT: note_on channel=1 note=42 velocity=64 time=0.002941175
EXTRACT: note_on channel=1 note=49 velocity=64 time=0.002941175
EXTRACT: note_on channel=1 note=66 velocity=72 time=0.00588235
EXTRACT: note_on channel=9 note=42 velocity=0 time=0.08235289999999999
EXTRACT: note_on channel=9 note=70 velocity=0 time=0.032352925
EXTRACT: note_on channel=9 note=82 velocity=0 time=0.00588235
EXTRACT: note_on channel=9 note=39 velocity=0 time=0
EXTRACT: note_on channel=9 note=40 velocity=0 time=0
EXTRACT: note_on channel=0 note=44 velocity=0 time=0.19999989999999998
EXTRACT: note_on channel=1 note=61 velocity=0 time=0.002941175
EXTRACT: note_on channel=1 note=54 velocity=0 time=0
EXTRACT: note_on channel=1 note=42 velocity=0 time=0.0117647
EXTRACT: note_on channel=1 note=49 velocity=0 time=0.00588235
EXTRACT: pitchwheel channel=0 pitch=0 time=0.002941175
EXTRACT: note_on channel=1 note=66 velocity=0 time=0
EXTRACT: note_on channel=1 note=54 velocity=72 time=0
EXTRACT: note_on channel=1 note=66 velocity=72 time=0.002941175
EXTRACT: note_on channel=0 note=47 velocity=99 time=0.002941175
EXTRACT: note_on channel=6 note=63 velocity=64 time=0.002941175
EXTRACT: note_on channel=9 note=42 velocity=77 time=0
EXTRACT: note_on channel=9 note=36 velocity=97 time=0
EXTRACT: note_on channel=9 note=35 velocity=97 time=0
EXTRACT: note_on channel=1 note=59 velocity=72 time=0.002941175
EXTRACT: note_on channel=1 note=63 velocity=72 time=0.00588235
EXTRACT: note_on channel=1 note=47 velocity=64 time=0.00588235
EXTRACT: note_on channel=6 note=63 velocity=0 time=0.073529375
EXTRACT: note_on channel=9 note=42 velocity=0 time=0.0117647
EXTRACT: note_on channel=9 note=35 velocity=0 time=0.032352925
EXTRACT: note_on channel=9 note=36 velocity=0 time=0
EXTRACT: note_on channel=9 note=42 velocity=76 time=0.220588125
EXTRACT: note_on channel=9 note=42 velocity=0 time=0.102941125
EXTRACT: note_on channel=1 note=54 velocity=0 time=0.038235275
EXTRACT: note_on channel=1 note=66 velocity=0 time=0.002941175
EXTRACT: note_on channel=1 note=59 velocity=0 time=0.008823524999999999
EXTRACT: note_on channel=1 note=63 velocity=0 time=0.00588235
EXTRACT: note_on channel=1 note=47 velocity=0 time=0.00588235
EXTRACT: note_on channel=9 note=70 velocity=57 time=0
EXTRACT: note_on channel=1 note=63 velocity=60 time=0.002941175
EXTRACT: note_on channel=9 note=82 velocity=30 time=0.002941175
EXTRACT: note_on channel=1 note=59 velocity=60 time=0.002941175
EXTRACT: note_on channel=1 note=47 velocity=52 time=0.002941175
EXTRACT: note_on channel=9 note=40 velocity=46 time=0
EXTRACT: note_on channel=1 note=54 velocity=60 time=0.0117647
EXTRACT: note_on channel=1 note=66 velocity=60 time=0
EXTRACT: note_on channel=0 note=47 velocity=0 time=0.038235275
EXTRACT: note_on channel=9 note=70 velocity=0 time=0.07058819999999999
EXTRACT: note_on channel=9 note=82 velocity=0 time=0.00588235
EXTRACT: note_on channel=9 note=40 velocity=0 time=0.00588235
EXTRACT: note_on channel=1 note=59 velocity=0 time=0.0117647
EXTRACT: note_on channel=1 note=47 velocity=0 time=0.002941175
EXTRACT: note_on channel=1 note=63 velocity=0 time=0.002941175
EXTRACT: note_on channel=1 note=59 velocity=69 time=0
EXTRACT: note_on channel=1 note=63 velocity=69 time=0.00588235
EXTRACT: note_on channel=1 note=47 velocity=60 time=0
EXTRACT: note_on channel=1 note=66 velocity=0 time=0.00588235
EXTRACT: note_on channel=1 note=66 velocity=69 time=0.002941175
EXTRACT: note_on channel=9 note=42 velocity=79 time=0
EXTRACT: note_on channel=9 note=36 velocity=90 time=0
EXTRACT: note_on channel=9 note=35 velocity=90 time=0
EXTRACT: note_on channel=1 note=54 velocity=0 time=0.00588235
EXTRACT: note_on channel=0 note=47 velocity=98 time=0.00588235
EXTRACT: note_on channel=5 note=66 velocity=75 time=0
EXTRACT: note_on channel=1 note=54 velocity=69 time=0.002941175
EXTRACT: note_on channel=9 note=42 velocity=0 time=0.08235289999999999
EXTRACT: note_on channel=9 note=35 velocity=0 time=0.035294099999999995
EXTRACT: note_on channel=9 note=36 velocity=0 time=0
EXTRACT: pitchwheel channel=5 pitch=1585 time=0.014705875
EXTRACT: pitchwheel channel=5 pitch=3699 time=0.014705875
EXTRACT: pitchwheel channel=5 pitch=6077 time=0.014705875
EXTRACT: pitchwheel channel=5 pitch=7662 time=0.017647049999999997
EXTRACT: pitchwheel channel=5 pitch=8191 time=0.014705875
EXTRACT: note_on channel=9 note=70 velocity=88 time=0.149999925
EXTRACT: note_on channel=5 note=71 velocity=72 time=0.00588235
EXTRACT: note_on channel=9 note=82 velocity=47 time=0
EXTRACT: note_on channel=9 note=42 velocity=99 time=0
EXTRACT: note_on channel=9 note=39 velocity=65 time=0
EXTRACT: note_on channel=9 note=40 velocity=81 time=0
EXTRACT: note_on channel=9 note=42 velocity=0 time=0.11176465
EXTRACT: note_on channel=5 note=66 velocity=0 time=0.00588235
EXTRACT: note_on channel=9 note=70 velocity=0 time=0.008823524999999999
EXTRACT: note_on channel=9 note=82 velocity=0 time=0.00588235
EXTRACT: note_on channel=9 note=39 velocity=0 time=0
EXTRACT: note_on channel=9 note=40 velocity=0 time=0
EXTRACT: note_on channel=1 note=63 velocity=0 time=0.0235294
EXTRACT: note_on channel=1 note=59 velocity=0 time=0.002941175
EXTRACT: note_on channel=1 note=66 velocity=0 time=0.00588235
EXTRACT: note_on channel=1 note=54 velocity=0 time=0.002941175
EXTRACT: note_on channel=1 note=59 velocity=57 time=0
EXTRACT: note_on channel=1 note=63 velocity=57 time=0
EXTRACT: note_on channel=1 note=47 velocity=0 time=0.002941175
EXTRACT: note_on channel=1 note=54 velocity=57 time=0.00588235
EXTRACT: note_on channel=1 note=66 velocity=57 time=0
EXTRACT: note_on channel=1 note=47 velocity=49 time=0.0117647
EXTRACT: note_on channel=5 note=66 velocity=71 time=0.002941175
EXTRACT: note_on channel=5 note=71 velocity=0 time=0.008823524999999999
EXTRACT: note_on channel=1 note=59 velocity=0 time=0.12058817499999999
EXTRACT: note_on channel=1 note=47 velocity=0 time=0.002941175
EXTRACT: note_on channel=1 note=59 velocity=67 time=0
EXTRACT: note_on channel=1 note=47 velocity=58 time=0
EXTRACT: note_on channel=1 note=63 velocity=0 time=0.008823524999999999
EXTRACT: note_on channel=1 note=66 velocity=0 time=0.00588235
EXTRACT: note_on channel=1 note=54 velocity=0 time=0.002941175
EXTRACT: note_on channel=1 note=66 velocity=67 time=0
EXTRACT: note_on channel=1 note=63 velocity=67 time=0
EXTRACT: note_on channel=1 note=54 velocity=67 time=0.00588235
EXTRACT: note_on channel=0 note=49 velocity=101 time=0.00588235
EXTRACT: note_on channel=9 note=42 velocity=77 time=0
EXTRACT: pitchwheel channel=5 pitch=5548 time=0.0235294
EXTRACT: pitchwheel channel=5 pitch=3434 time=0.014705875
EXTRACT: pitchwheel channel=5 pitch=2378 time=0.014705875
EXTRACT: note_on channel=0 note=47 velocity=0 time=0.0117647
EXTRACT: pitchwheel channel=5 pitch=1585 time=0.00588235
EXTRACT: pitchwheel channel=5 pitch=1056 time=0.014705875
EXTRACT: pitchwheel channel=5 pitch=528 time=0.014705875
EXTRACT: note_on channel=9 note=42 velocity=0 time=0
EXTRACT: pitchwheel channel=5 pitch=264 time=0.014705875
EXTRACT: pitchwheel channel=5 pitch=0 time=0.032352925
EXTRACT: note_on channel=0 note=49 velocity=0 time=0.00588235
EXTRACT: note_on channel=0 note=47 velocity=102 time=0.0235294
EXTRACT: note_on channel=5 note=71 velocity=71 time=0.014705875
EXTRACT: note_on channel=5 note=66 velocity=0 time=0.020588224999999998
EXTRACT: pitchwheel channel=5 pitch=0 time=0.038235275
EXTRACT: control_change channel=6 control=64 value=0 time=0.020588224999999998
EXTRACT: note_on channel=1 note=59 velocity=0 time=0.041176449999999996
EXTRACT: note_on channel=1 note=47 velocity=0 time=0
EXTRACT: note_on channel=1 note=63 velocity=0 time=0.017647049999999997
EXTRACT: note_on channel=1 note=66 velocity=0 time=0
EXTRACT: note_on channel=1 note=54 velocity=0 time=0.00588235
EXTRACT: note_on channel=1 note=66 velocity=75 time=0
EXTRACT: note_on channel=1 note=42 velocity=67 time=0.002941175
EXTRACT: note_on channel=1 note=61 velocity=75 time=0.008823524999999999
EXTRACT: note_on channel=0 note=46 velocity=98 time=0.002941175
EXTRACT: note_on channel=5 note=66 velocity=70 time=0.002941175
EXTRACT: note_on channel=6 note=61 velocity=64 time=0
EXTRACT: note_on channel=9 note=42 velocity=81 time=0
EXTRACT: note_on channel=9 note=36 velocity=90 time=0
EXTRACT: note_on channel=9 note=35 velocity=90 time=0
EXTRACT: note_on channel=1 note=54 velocity=75 time=0.002941175
EXTRACT: note_on channel=1 note=49 velocity=67 time=0.00588235
EXTRACT: note_on channel=5 note=71 velocity=0 time=0
EXTRACT: note_on channel=0 note=47 velocity=0 time=0.061764675
EXTRACT: note_on channel=9 note=35 velocity=0 time=0.061764675
EXTRACT: note_on channel=9 note=36 velocity=0 time=0
EXTRACT: note_on channel=9 note=42 velocity=0 time=0
EXTRACT: control_change channel=6 control=64 value=127 time=0.020588224999999998
EXTRACT: pitchwheel channel=5 pitch=168 time=0.079411725
EXTRACT: pitchwheel channel=5 pitch=675 time=0.014705875
EXTRACT: pitchwheel channel=5 pitch=1183 time=0.017647049999999997
EXTRACT: pitchwheel channel=5 pitch=1521 time=0.014705875
EXTRACT: pitchwheel channel=5 pitch=1690 time=0.014705875
EXTRACT: pitchwheel channel=5 pitch=1521 time=0.032352925
EXTRACT: pitchwheel channel=5 pitch=1183 time=0.014705875
EXTRACT: note_on channel=9 note=42 velocity=77 time=0.0117647
EXTRACT: pitchwheel channel=5 pitch=675 time=0.00588235
EXTRACT: pitchwheel channel=5 pitch=337 time=0.0117647
EXTRACT: note_on channel=6 note=61 velocity=0 time=0
EXTRACT: pitchwheel channel=5 pitch=0 time=0.017647049999999997
EXTRACT: note_on channel=9 note=42 velocity=0 time=0.02941175
EXTRACT: pitchwheel channel=5 pitch=337 time=0.061764675
EXTRACT: note_on channel=0 note=46 velocity=0 time=0.00588235
EXTRACT: pitchwheel channel=5 pitch=675 time=0.008823524999999999
EXTRACT: note_on channel=1 note=66 velocity=0 time=0.002941175
EXTRACT: note_on channel=1 note=42 velocity=0 time=0.002941175
EXTRACT: note_on channel=1 note=61 velocity=0 time=0.008823524999999999
EXTRACT: pitchwheel channel=5 pitch=1183 time=0.002941175
EXTRACT: note_on channel=1 note=61 velocity=63 time=0.002941175
EXTRACT: note_on channel=1 note=54 velocity=0 time=0.002941175
EXTRACT: note_on channel=1 note=66 velocity=63 time=0
EXTRACT: note_on channel=1 note=42 velocity=54 time=0.002941175
EXTRACT: note_on channel=1 note=49 velocity=0 time=0.002941175
EXTRACT: note_on channel=0 note=46 velocity=99 time=0.00588235
EXTRACT: note_on channel=9 note=35 velocity=90 time=0
EXTRACT: note_on channel=9 note=36 velocity=90 time=0
EXTRACT: pitchwheel channel=5 pitch=1521 time=0.002941175
EXTRACT: note_on channel=1 note=49 velocity=54 time=0.00588235
EXTRACT: note_on channel=1 note=54 velocity=63 time=0
EXTRACT: pitchwheel channel=5 pitch=1859 time=0.002941175
EXTRACT: note_on channel=6 note=63 velocity=64 time=0.002941175
EXTRACT: pitchwheel channel=5 pitch=1690 time=0.0470588
EXTRACT: pitchwheel channel=5 pitch=1352 time=0.014705875
EXTRACT: pitchwheel channel=5 pitch=845 time=0.014705875
EXTRACT: pitchwheel channel=5 pitch=506 time=0.014705875
EXTRACT: pitchwheel channel=5 pitch=337 time=0.014705875
EXTRACT: note_on channel=6 note=63 velocity=0 time=0.008823524999999999
EXTRACT: note_on channel=9 note=36 velocity=0 time=0.002941175
EXTRACT: note_on channel=9 note=35 velocity=0 time=0
EXTRACT: pitchwheel channel=5 pitch=0 time=0.00588235
EXTRACT: note_on channel=1 note=54 velocity=0 time=0.0117647
EXTRACT: note_on channel=1 note=61 velocity=0 time=0.002941175
EXTRACT: note_on channel=1 note=54 velocity=72 time=0.002941175
EXTRACT: note_on channel=1 note=61 velocity=72 time=0
EXTRACT: note_on channel=1 note=66 velocity=0 time=0
EXTRACT: note_on channel=1 note=42 velocity=0 time=0.002941175
EXTRACT: note_on channel=9 note=70 velocity=88 time=0
EXTRACT: note_on channel=9 note=82 velocity=47 time=0.00588235
EXTRACT: note_on channel=9 note=42 velocity=99 time=0
EXTRACT: note_on channel=9 note=39 velocity=65 time=0
EXTRACT: note_on channel=9 note=40 velocity=81 time=0
EXTRACT: note_on channel=1 note=49 velocity=0 time=0.002941175
EXTRACT: note_on channel=1 note=42 velocity=64 time=0
EXTRACT: note_on channel=1 note=49 velocity=64 time=0.002941175
EXTRACT: note_on channel=1 note=66 velocity=72 time=0.00588235
EXTRACT: pitchwheel channel=5 pitch=506 time=0.0235294
EXTRACT: pitchwheel channel=5 pitch=845 time=0.017647049999999997
EXTRACT: pitchwheel channel=5 pitch=1183 time=0.014705875
EXTRACT: pitchwheel channel=5 pitch=1690 time=0.014705875
EXTRACT: note_on channel=9 note=42 velocity=0 time=0.0117647
EXTRACT: pitchwheel channel=5 pitch=1859 time=0.002941175
EXTRACT: pitchwheel channel=5 pitch=2028 time=0.014705875
EXTRACT: note_on channel=9 note=70 velocity=0 time=0.014705875
EXTRACT: note_on channel=9 note=82 velocity=0 time=0.00588235
EXTRACT: note_on channel=9 note=39 velocity=0 time=0
EXTRACT: note_on channel=9 note=40 velocity=0 time=0
EXTRACT: pitchwheel channel=5 pitch=1859 time=0.0117647
EXTRACT: pitchwheel channel=5 pitch=1690 time=0.014705875
EXTRACT: pitchwheel channel=5 pitch=1183 time=0.017647049999999997
EXTRACT: pitchwheel channel=5 pitch=845 time=0.014705875
EXTRACT: pitchwheel channel=5 pitch=506 time=0.014705875
EXTRACT: pitchwheel channel=5 pitch=168 time=0.014705875
EXTRACT: pitchwheel channel=5 pitch=0 time=0.014705875
EXTRACT: pitchwheel channel=5 pitch=264 time=0.0470588
EXTRACT: pitchwheel channel=5 pitch=792 time=0.014705875
EXTRACT: pitchwheel channel=5 pitch=1056 time=0.014705875
EXTRACT: note_on channel=0 note=46 velocity=0 time=0.017647049999999997
EXTRACT: pitchwheel channel=5 pitch=1585 time=0
EXTRACT: pitchwheel channel=5 pitch=1849 time=0.014705875
EXTRACT: note_on channel=1 note=54 velocity=0 time=0.002941175
EXTRACT: note_on channel=1 note=61 velocity=0 time=0
EXTRACT: note_on channel=1 note=66 velocity=0 time=0.008823524999999999
EXTRACT: note_on channel=1 note=51 velocity=72 time=0
EXTRACT: note_on channel=1 note=42 velocity=0 time=0.002941175
EXTRACT: note_on channel=1 note=66 velocity=72 time=0
EXTRACT: pitchwheel channel=5 pitch=2113 time=0
EXTRACT: note_on channel=0 note=44 velocity=102 time=0.00588235
EXTRACT: note_on channel=1 note=49 velocity=0 time=0
EXTRACT: note_on channel=6 note=59 velocity=60 time=0
EXTRACT: note_on channel=9 note=42 velocity=77 time=0
EXTRACT: note_on channel=9 note=36 velocity=97 time=0
EXTRACT: note_on channel=9 note=35 velocity=97 time=0
EXTRACT: note_on channel=1 note=59 velocity=72 time=0.002941175
EXTRACT: note_on channel=1 note=63 velocity=72 time=0.00588235
EXTRACT: note_on channel=1 note=44 velocity=64 time=0.00588235
EXTRACT: pitchwheel channel=5 pitch=1849 time=0.026470575
EXTRACT: pitchwheel channel=5 pitch=1585 time=0.017647049999999997
EXTRACT: pitchwheel channel=5 pitch=1056 time=0.014705875
EXTRACT: pitchwheel channel=5 pitch=528 time=0.014705875
EXTRACT: note_on channel=9 note=42 velocity=0 time=0.0117647
EXTRACT: pitchwheel channel=5 pitch=264 time=0.002941175
EXTRACT: note_on channel=6 note=59 velocity=0 time=0.00588235
EXTRACT: note_on channel=9 note=35 velocity=0 time=0.0235294
EXTRACT: note_on channel=9 note=36 velocity=0 time=0
EXTRACT: pitchwheel channel=5 pitch=528 time=0.017647049999999997
EXTRACT: pitchwheel channel=5 pitch=792 time=0.014705875
EXTRACT: pitchwheel channel=5 pitch=1321 time=0.017647049999999997
EXTRACT: pitchwheel channel=5 pitch=1585 time=0.02941175
EXTRACT: pitchwheel channel=5 pitch=1056 time=0.032352925
EXTRACT: pitchwheel channel=5 pitch=792 time=0.014705875
EXTRACT: pitchwheel channel=5 pitch=264 time=0.014705875
EXTRACT: pitchwheel channel=5 pitch=0 time=0.017647049999999997
EXTRACT: note_on channel=9 note=42 velocity=76 time=0.061764675
EXTRACT: note_on channel=9 note=42 velocity=0 time=0.102941125
EXTRACT: pitchwheel channel=5 pitch=0 time=0.02941175
EXTRACT: note_on channel=1 note=51 velocity=0 time=0.008823524999999999
EXTRACT: note_on channel=1 note=66 velocity=0 time=0.002941175
EXTRACT: note_on channel=1 note=59 velocity=0 time=0.008823524999999999
EXTRACT: note_on channel=1 note=63 velocity=0 time=0.00588235
EXTRACT: note_on channel=9 note=70 velocity=50 time=0
EXTRACT: note_on channel=1 note=44 velocity=0 time=0.00588235
EXTRACT: note_on channel=9 note=82 velocity=26 time=0
EXTRACT: note_on channel=1 note=63 velocity=60 time=0.002941175
EXTRACT: note_on channel=9 note=40 velocity=84 time=0.002941175
EXTRACT: note_on channel=9 note=38 velocity=84 time=0
EXTRACT: note_on channel=1 note=59 velocity=60 time=0.002941175
EXTRACT: note_on channel=1 note=44 velocity=52 time=0.002941175
EXTRACT: note_on channel=1 note=51 velocity=60 time=0.0117647
EXTRACT: note_on channel=1 note=66 velocity=60 time=0
EXTRACT: note_on channel=0 note=44 velocity=0 time=0.0588235
EXTRACT: note_on channel=9 note=70 velocity=0 time=0.044117625
EXTRACT: note_on channel=9 note=82 velocity=0 time=0.00588235
EXTRACT: note_on channel=9 note=40 velocity=0 time=0.00588235
EXTRACT: note_on channel=9 note=38 velocity=0 time=0
EXTRACT: note_on channel=1 note=59 velocity=0 time=0.014705875
EXTRACT: note_on channel=1 note=44 velocity=0 time=0.002941175
EXTRACT: note_on channel=1 note=63 velocity=0 time=0.00588235
EXTRACT: note_on channel=1 note=59 velocity=69 time=0
EXTRACT: note_on channel=9 note=38 velocity=74 time=0
EXTRACT: note_on channel=9 note=40 velocity=99 time=0
EXTRACT: note_on channel=1 note=63 velocity=69 time=0.00588235
EXTRACT: note_on channel=1 note=44 velocity=60 time=0
EXTRACT: note_on channel=9 note=42 velocity=79 time=0
EXTRACT: note_on channel=1 note=66 velocity=0 time=0.002941175
EXTRACT: note_on channel=1 note=66 velocity=69 time=0.00588235
EXTRACT: note_on channel=1 note=51 velocity=0 time=0.00588235
EXTRACT: note_on channel=0 note=44 velocity=102 time=0.002941175
EXTRACT: note_on channel=1 note=51 velocity=69 time=0.00588235
EXTRACT: note_on channel=9 note=42 velocity=0 time=0.073529375
EXTRACT: note_on channel=9 note=40 velocity=0 time=0.02941175
EXTRACT: note_on channel=9 note=38 velocity=0 time=0
EXTRACT: note_on channel=2 note=36 velocity=55 time=0.15882345
EXTRACT: note_on channel=1 note=63 velocity=0 time=0.07058819999999999
EXTRACT: note_on channel=1 note=59 velocity=0 time=0
EXTRACT: note_on channel=1 note=66 velocity=0 time=0.008823524999999999
EXTRACT: note_on channel=1 note=59 velocity=53 time=0
EXTRACT: note_on channel=1 note=63 velocity=53 time=0
EXTRACT: note_on channel=1 note=44 velocity=0 time=0
EXTRACT: control_change channel=2 control=1 value=29 time=0
EXTRACT: note_on channel=7 note=85 velocity=64 time=0
EXTRACT: note_on channel=1 note=51 velocity=0 time=0.002941175
EXTRACT: note_on channel=9 note=70 velocity=88 time=0
EXTRACT: note_on channel=1 note=51 velocity=53 time=0.00588235
EXTRACT: note_on channel=1 note=66 velocity=53 time=0
EXTRACT: note_on channel=9 note=82 velocity=47 time=0
EXTRACT: note_on channel=9 note=42 velocity=99 time=0
EXTRACT: note_on channel=9 note=38 velocity=78 time=0
EXTRACT: note_on channel=9 note=40 velocity=81 time=0
EXTRACT: note_on channel=9 note=35 velocity=81 time=0.002941175
EXTRACT: note_on channel=1 note=44 velocity=46 time=0.008823524999999999
EXTRACT: note_on channel=7 note=87 velocity=64 time=0.014705875
EXTRACT: note_on channel=2 note=38 velocity=45 time=0.008823524999999999
EXTRACT: note_on channel=7 note=85 velocity=0 time=0.038235275
EXTRACT: note_on channel=5 note=66 velocity=0 time=0.008823524999999999
EXTRACT: note_on channel=1 note=51 velocity=0 time=0.002941175
EXTRACT: note_on channel=1 note=59 velocity=0 time=0.014705875
EXTRACT: note_on channel=0 note=44 velocity=0 time=0.002941175
EXTRACT: note_on channel=1 note=44 velocity=0 time=0
EXTRACT: note_on channel=1 note=63 velocity=0 time=0.008823524999999999
EXTRACT: control_change channel=2 control=1 value=30 time=0
EXTRACT: note_on channel=9 note=42 velocity=0 time=0
EXTRACT: note_on channel=1 note=66 velocity=0 time=0.00588235
EXTRACT: note_on channel=9 note=70 velocity=0 time=0.008823524999999999
EXTRACT: note_on channel=9 note=38 velocity=0 time=0.00588235
EXTRACT: note_on channel=9 note=82 velocity=0 time=0
EXTRACT: note_on channel=9 note=40 velocity=0 time=0
EXTRACT: note_on channel=2 note=40 velocity=47 time=0.002941175
EXTRACT: note_on channel=9 note=35 velocity=0 time=0
EXTRACT: note_on channel=1 note=59 velocity=67 time=0.0117647
EXTRACT: note_on channel=1 note=44 velocity=58 time=0
EXTRACT: note_on channel=1 note=66 velocity=67 time=0.017647049999999997
EXTRACT: note_on channel=1 note=63 velocity=67 time=0
EXTRACT: note_on channel=1 note=51 velocity=67 time=0.00588235
EXTRACT: note_on channel=0 note=44 velocity=99 time=0.002941175
EXTRACT: note_on channel=2 note=36 velocity=0 time=0.00588235
EXTRACT: note_on channel=9 note=38 velocity=72 time=0.00588235
EXTRACT: note_on channel=9 note=40 velocity=95 time=0
EXTRACT: note_on channel=2 note=41 velocity=47 time=0.0235294
EXTRACT: note_on channel=2 note=38 velocity=0 time=0.00588235
EXTRACT: control_change channel=2 control=1 value=32 time=0.020588224999999998
EXTRACT: note_on channel=2 note=43 velocity=48 time=0.038235275
EXTRACT: note_on channel=2 note=40 velocity=0 time=0.038235275
EXTRACT: note_on channel=9 note=40 velocity=0 time=0.00588235
EXTRACT: note_on channel=9 note=38 velocity=0 time=0
EXTRACT: note_on channel=2 note=45 velocity=50 time=0.017647049999999997
EXTRACT: note_on channel=7 note=85 velocity=64 time=0.008823524999999999
EXTRACT: note_on channel=9 note=42 velocity=77 time=0
EXTRACT: note_on channel=9 note=45 velocity=109 time=0
EXTRACT: control_change channel=2 control=1 value=33 time=0.0117647
EXTRACT: note_on channel=2 note=41 velocity=0 time=0.008823524999999999
EXTRACT: note_on channel=7 note=87 velocity=0 time=0.0117647
EXTRACT: note_on channel=2 note=47 velocity=51 time=0.008823524999999999
EXTRACT: note_on channel=2 note=43 velocity=0 time=0.032352925
EXTRACT: note_on channel=2 note=48 velocity=54 time=0.017647049999999997
EXTRACT: note_on channel=9 note=42 velocity=0 time=0.008823524999999999
EXTRACT: note_on channel=2 note=45 velocity=0 time=0.017647049999999997
EXTRACT: control_change channel=2 control=1 value=34 time=0.017647049999999997
EXTRACT: note_on channel=2 note=50 velocity=56 time=0.00588235
EXTRACT: note_on channel=9 note=45 velocity=0 time=0.008823524999999999
EXTRACT: note_on channel=2 note=47 velocity=0 time=0.008823524999999999
EXTRACT: note_on channel=7 note=85 velocity=0 time=0.002941175
EXTRACT: note_on channel=2 note=52 velocity=58 time=0.014705875
EXTRACT: note_on channel=5 note=61 velocity=80 time=0.002941175
EXTRACT: note_on channel=7 note=82 velocity=64 time=0.002941175
EXTRACT: note_on channel=2 note=48 velocity=0 time=0.0117647
EXTRACT: note_on channel=9 note=41 velocity=76 time=0
EXTRACT: note_on channel=2 note=53 velocity=60 time=0.017647049999999997
EXTRACT: note_on channel=2 note=50 velocity=0 time=0.017647049999999997
EXTRACT: note_on channel=5 note=58 velocity=80 time=0.00588235
EXTRACT: note_on channel=2 note=55 velocity=62 time=0.008823524999999999
EXTRACT: control_change channel=2 control=1 value=35 time=0.0117647
EXTRACT: note_on channel=2 note=52 velocity=0 time=0.00588235
EXTRACT: note_on channel=2 note=57 velocity=64 time=0.014705875
EXTRACT: note_on channel=5 note=42 velocity=80 time=0.0117647
EXTRACT: note_on channel=2 note=53 velocity=0 time=0.002941175
EXTRACT: note_on channel=2 note=59 velocity=65 time=0.0117647
EXTRACT: note_on channel=1 note=44 velocity=0 time=0.002941175
EXTRACT: note_on channel=1 note=59 velocity=0 time=0
EXTRACT: control_change channel=6 control=64 value=0 time=0.008823524999999999
EXTRACT: note_on channel=0 note=44 velocity=0 time=0.002941175
EXTRACT: note_on channel=2 note=55 velocity=0 time=0.002941175
EXTRACT: note_on channel=1 note=63 velocity=0 time=0.002941175
EXTRACT: note_on channel=1 note=66 velocity=0 time=0
EXTRACT: note_on channel=1 note=51 velocity=0 time=0.00588235
EXTRACT: note_on channel=2 note=60 velocity=68 time=0.002941175
EXTRACT: note_on channel=5 note=58 velocity=0 time=0.008823524999999999
EXTRACT: note_on channel=1 note=66 velocity=87 time=0.002941175
EXTRACT: note_on channel=1 note=42 velocity=76 time=0.002941175
EXTRACT: note_on channel=2 note=57 velocity=0 time=0.002941175
EXTRACT: note_on channel=5 note=61 velocity=0 time=0
EXTRACT: note_on channel=5 note=58 velocity=84 time=0
EXTRACT: note_on channel=1 note=61 velocity=87 time=0.00588235
EXTRACT: note_on channel=2 note=82 velocity=57 time=0
EXTRACT: note_on channel=5 note=61 velocity=80 time=0
EXTRACT: note_on channel=0 note=30 velocity=106 time=0.00588235
EXTRACT: note_on channel=2 note=78 velocity=57 time=0
EXTRACT: note_on channel=9 note=36 velocity=90 time=0
EXTRACT: note_on channel=9 note=49 velocity=82 time=0
EXTRACT: note_on channel=9 note=35 velocity=90 time=0
EXTRACT: note_on channel=1 note=54 velocity=87 time=0.002941175
EXTRACT: note_on channel=2 note=73 velocity=57 time=0
EXTRACT: note_on channel=2 note=62 velocity=71 time=0
EXTRACT: note_on channel=5 note=42 velocity=0 time=0.002941175
EXTRACT: note_on channel=1 note=49 velocity=76 time=0.002941175
EXTRACT: note_on channel=5 note=42 velocity=125 time=0.002941175
EXTRACT: note_on channel=2 note=59 velocity=0 time=0.002941175
EXTRACT: control_change channel=2 control=1 value=38 time=0
EXTRACT: note_on channel=9 note=41 velocity=0 time=0.008823524999999999
EXTRACT: note_on channel=2 note=64 velocity=74 time=0.014705875
EXTRACT: note_on channel=2 note=60 velocity=0 time=0.002941175
EXTRACT: note_on channel=2 note=62 velocity=0 time=0.020588224999999998
EXTRACT: note_on channel=2 note=64 velocity=0 time=0.017647049999999997
EXTRACT: note_on channel=9 note=36 velocity=0 time=0.05294115
EXTRACT: note_on channel=9 note=49 velocity=0 time=0
EXTRACT: note_on channel=9 note=35 velocity=0 time=0
EXTRACT: note_on channel=9 note=51 velocity=85 time=0.220588125
EXTRACT: note_on channel=9 note=51 velocity=0 time=0.06470585
EXTRACT: note_on channel=0 note=30 velocity=0 time=0.06470585
EXTRACT: note_on channel=1 note=66 velocity=0 time=0.002941175
EXTRACT: note_on channel=1 note=42 velocity=0 time=0.00588235
EXTRACT: note_on channel=1 note=61 velocity=0 time=0.008823524999999999
EXTRACT: note_on channel=1 note=54 velocity=0 time=0.008823524999999999
EXTRACT: note_on channel=1 note=49 velocity=0 time=0.002941175
EXTRACT: note_on channel=1 note=61 velocity=72 time=0.002941175
EXTRACT: note_on channel=1 note=66 velocity=72 time=0.002941175
EXTRACT: note_on channel=1 note=42 velocity=63 time=0.002941175
EXTRACT: note_on channel=0 note=30 velocity=95 time=0.00588235
EXTRACT: note_on channel=9 note=35 velocity=90 time=0.002941175
EXTRACT: note_on channel=9 note=36 velocity=90 time=0
EXTRACT: note_on channel=1 note=49 velocity=63 time=0.008823524999999999
EXTRACT: note_on channel=1 note=54 velocity=72 time=0
EXTRACT: note_on channel=9 note=36 velocity=0 time=0.12352935
EXTRACT: note_on channel=9 note=35 velocity=0 time=0
EXTRACT: note_on channel=1 note=54 velocity=0 time=0.014705875
EXTRACT: note_on channel=1 note=61 velocity=0 time=0.00588235
EXTRACT: note_on channel=0 note=30 velocity=0 time=0.002941175
EXTRACT: note_on channel=1 note=54 velocity=84 time=0
EXTRACT: note_on channel=1 note=61 velocity=84 time=0
EXTRACT: note_on channel=1 note=66 velocity=0 time=0
EXTRACT: note_on channel=1 note=42 velocity=0 time=0.002941175
EXTRACT: note_on channel=1 note=49 velocity=0 time=0.002941175
EXTRACT: note_on channel=9 note=38 velocity=89 time=0.002941175
EXTRACT: note_on channel=9 note=40 velocity=89 time=0
EXTRACT: note_on channel=1 note=42 velocity=73 time=0.002941175
EXTRACT: note_on channel=0 note=30 velocity=95 time=0.002941175
EXTRACT: note_on channel=1 note=49 velocity=73 time=0
EXTRACT: note_on channel=5 note=43 velocity=113 time=0
EXTRACT: note_on channel=1 note=66 velocity=84 time=0.00588235
EXTRACT: note_on channel=9 note=35 velocity=90 time=0
EXTRACT: note_on channel=9 note=36 velocity=90 time=0
EXTRACT: note_on channel=9 note=41 velocity=51 time=0
EXTRACT: note_on channel=9 note=51 velocity=95 time=0
EXTRACT: note_on channel=5 note=44 velocity=108 time=0.049999974999999995
EXTRACT: note_on channel=5 note=42 velocity=0 time=0.00588235
EXTRACT: note_on channel=9 note=51 velocity=0 time=0.038235275
EXTRACT: note_on channel=5 note=43 velocity=0 time=0.008823524999999999
EXTRACT: note_on channel=5 note=45 velocity=102 time=0.002941175
EXTRACT: note_on channel=9 note=38 velocity=0 time=0.014705875
EXTRACT: note_on channel=9 note=40 velocity=0 time=0
EXTRACT: note_on channel=9 note=36 velocity=0 time=0.0117647
EXTRACT: note_on channel=9 note=41 velocity=0 time=0
EXTRACT: note_on channel=9 note=35 velocity=0 time=0
EXTRACT: note_on channel=5 note=61 velocity=0 time=0.017647049999999997
EXTRACT: note_on channel=5 note=58 velocity=0 time=0.002941175
EXTRACT: note_on channel=5 note=44 velocity=0 time=0.00588235
EXTRACT: note_on channel=5 note=46 velocity=97 time=0.002941175
EXTRACT: note_on channel=5 note=63 velocity=80 time=0.008823524999999999
EXTRACT: note_on channel=5 note=59 velocity=80 time=0.02941175
EXTRACT: note_on channel=5 note=45 velocity=0 time=0.0117647
EXTRACT: note_on channel=5 note=47 velocity=92 time=0.00588235
EXTRACT: note_on channel=5 note=46 velocity=0 time=0.049999974999999995
EXTRACT: note_on channel=1 note=61 velocity=0 time=0.055882325
EXTRACT: note_on channel=1 note=54 velocity=0 time=0
EXTRACT: note_on channel=0 note=30 velocity=0 time=0.002941175
EXTRACT: note_on channel=5 note=59 velocity=0 time=0.002941175
EXTRACT: note_on channel=1 note=42 velocity=0 time=0.00588235
EXTRACT: note_on channel=1 note=49 velocity=0 time=0.00588235
EXTRACT: note_on channel=5 note=63 velocity=0 time=0
EXTRACT: note_on channel=1 note=66 velocity=0 time=0.002941175
EXTRACT: note_on channel=1 note=54 velocity=83 time=0
EXTRACT: note_on channel=5 note=59 velocity=84 time=0
EXTRACT: note_on channel=1 note=66 velocity=83 time=0.002941175
EXTRACT: note_on channel=2 note=75 velocity=57 time=0
EXTRACT: note_on channel=5 note=47 velocity=0 time=0
EXTRACT: note_on channel=2 note=73 velocity=0 time=0.002941175
EXTRACT: note_on channel=7 note=83 velocity=64 time=0
EXTRACT: note_on channel=5 note=63 velocity=80 time=0.002941175
EXTRACT: note_on channel=9 note=36 velocity=97 time=0
EXTRACT: note_on channel=9 note=35 velocity=97 time=0
EXTRACT: note_on channel=9 note=51 velocity=85 time=0
EXTRACT: note_on channel=9 note=53 velocity=55 time=0
EXTRACT: note_on channel=0 note=35 velocity=106 time=0.002941175
EXTRACT: note_on channel=1 note=59 velocity=83 time=0
EXTRACT: note_on channel=2 note=83 velocity=57 time=0
EXTRACT: note_on channel=2 note=82 velocity=0 time=0.002941175
EXTRACT: note_on channel=5 note=47 velocity=125 time=0
EXTRACT: note_on channel=1 note=63 velocity=83 time=0.002941175
EXTRACT: note_on channel=1 note=47 velocity=73 time=0.00588235
EXTRACT: note_on channel=7 note=82 velocity=0 time=0.0117647
EXTRACT: note_on channel=9 note=53 velocity=0 time=0.073529375
EXTRACT: note_on channel=9 note=51 velocity=0 time=0
EXTRACT: note_on channel=9 note=35 velocity=0 time=0.032352925
EXTRACT: note_on channel=9 note=36 velocity=0 time=0
EXTRACT: note_on channel=9 note=41 velocity=43 time=0.032352925
EXTRACT: note_on channel=9 note=41 velocity=0 time=0.13235287499999998
EXTRACT: note_on channel=9 note=51 velocity=85 time=0.055882325
EXTRACT: note_on channel=9 note=51 velocity=0 time=0.102941125
EXTRACT: note_on channel=0 note=35 velocity=0 time=0.02941175
EXTRACT: note_on channel=1 note=54 velocity=0 time=0.008823524999999999
EXTRACT: note_on channel=1 note=66 velocity=0 time=0.002941175
EXTRACT: note_on channel=1 note=59 velocity=0 time=0.008823524999999999
EXTRACT: note_on channel=1 note=63 velocity=0 time=0.00588235
EXTRACT: note_on channel=1 note=47 velocity=0 time=0.00588235
EXTRACT: note_on channel=1 note=63 velocity=69 time=0.002941175
EXTRACT: note_on channel=0 note=34 velocity=95 time=0.00588235
EXTRACT: note_on channel=1 note=59 velocity=69 time=0
EXTRACT: note_on channel=1 note=47 velocity=60 time=0.002941175
EXTRACT: note_on channel=9 note=38 velocity=81 time=0
EXTRACT: note_on channel=9 note=40 velocity=81 time=0
EXTRACT: note_on channel=1 note=54 velocity=69 time=0.0117647
EXTRACT: note_on channel=1 note=66 velocity=69 time=0
EXTRACT: note_on channel=9 note=40 velocity=0 time=0.12058817499999999
EXTRACT: note_on channel=9 note=38 velocity=0 time=0
EXTRACT: note_on channel=1 note=59 velocity=0 time=0.0117647
EXTRACT: note_on channel=1 note=47 velocity=0 time=0.002941175
EXTRACT: note_on channel=1 note=63 velocity=0 time=0.002941175
EXTRACT: note_on channel=1 note=59 velocity=80 time=0
EXTRACT: note_on channel=1 note=63 velocity=80 time=0.00588235
EXTRACT: note_on channel=1 note=47 velocity=69 time=0
EXTRACT: note_on channel=0 note=34 velocity=0 time=0.00588235
EXTRACT: note_on channel=1 note=66 velocity=0 time=0
EXTRACT: note_on channel=1 note=66 velocity=80 time=0.002941175
EXTRACT: note_on channel=9 note=36 velocity=90 time=0
EXTRACT: note_on channel=9 note=35 velocity=90 time=0
EXTRACT: note_on channel=1 note=54 velocity=0 time=0.00588235
EXTRACT: note_on channel=0 note=35 velocity=103 time=0.00588235
EXTRACT: note_on channel=9 note=51 velocity=88 time=0
EXTRACT: note_on channel=1 note=54 velocity=80 time=0.002941175
EXTRACT: note_on channel=9 note=51 velocity=0 time=0.0941176
EXTRACT: note_on channel=9 note=35 velocity=0 time=0.0235294
EXTRACT: note_on channel=9 note=36 velocity=0 time=0
EXTRACT: note_on channel=9 note=38 velocity=89 time=0.23235282499999999
EXTRACT: note_on channel=9 note=40 velocity=89 time=0
EXTRACT: note_on channel=9 note=41 velocity=57 time=0
EXTRACT: note_on channel=9 note=51 velocity=95 time=0
EXTRACT: note_on channel=9 note=53 velocity=63 time=0
EXTRACT: note_on channel=9 note=53 velocity=0 time=0.11176465
EXTRACT: note_on channel=9 note=51 velocity=0 time=0
EXTRACT: note_on channel=9 note=38 velocity=0 time=0.020588224999999998
EXTRACT: note_on channel=9 note=40 velocity=0 time=0
EXTRACT: note_on channel=9 note=41 velocity=0 time=0
EXTRACT: note_on channel=1 note=63 velocity=0 time=0.0235294
EXTRACT: note_on channel=1 note=59 velocity=0 time=0.002941175
EXTRACT: note_on channel=1 note=66 velocity=0 time=0.00588235
EXTRACT: note_on channel=1 note=54 velocity=0 time=0.002941175
EXTRACT: note_on channel=1 note=59 velocity=66 time=0
EXTRACT: note_on channel=1 note=63 velocity=66 time=0
EXTRACT: note_on channel=1 note=47 velocity=0 time=0.002941175
EXTRACT: note_on channel=1 note=54 velocity=66 time=0.00588235
EXTRACT: note_on channel=1 note=66 velocity=66 time=0
EXTRACT: note_on channel=1 note=47 velocity=57 time=0.0117647
EXTRACT: note_on channel=0 note=35 velocity=0 time=0.10882347499999999
EXTRACT: note_on channel=1 note=59 velocity=0 time=0.0235294
EXTRACT: note_on channel=1 note=47 velocity=0 time=0.002941175
EXTRACT: note_on channel=1 note=59 velocity=76 time=0
EXTRACT: note_on channel=1 note=47 velocity=67 time=0
EXTRACT: note_on channel=7 note=82 velocity=64 time=0.002941175
EXTRACT: note_on channel=1 note=63 velocity=0 time=0.00588235
EXTRACT: note_on channel=1 note=66 velocity=0 time=0.00588235
EXTRACT: note_on channel=1 note=54 velocity=0 time=0.002941175
EXTRACT: note_on channel=1 note=66 velocity=76 time=0
EXTRACT: note_on channel=1 note=63 velocity=76 time=0
EXTRACT: note_on channel=1 note=54 velocity=76 time=0.00588235
EXTRACT: note_on channel=9 note=51 velocity=85 time=0.00588235
EXTRACT: note_on channel=0 note=35 velocity=110 time=0.002941175
EXTRACT: note_on channel=7 note=83 velocity=0 time=0.035294099999999995
EXTRACT: note_on channel=7 note=82 velocity=0 time=0.061764675
EXTRACT: note_on channel=9 note=51 velocity=0 time=0
EXTRACT: note_on channel=0 note=35 velocity=0 time=0.032352925
EXTRACT: note_on channel=5 note=63 velocity=0 time=0
EXTRACT: note_on channel=7 note=80 velocity=64 time=0.002941175
EXTRACT: note_on channel=5 note=59 velocity=0 time=0.014705875
EXTRACT: note_on channel=5 note=47 velocity=0 time=0.017647049999999997
EXTRACT: note_on channel=5 note=61 velocity=80 time=0.002941175
EXTRACT: note_on channel=0 note=35 velocity=110 time=0.002941175
EXTRACT: note_on channel=5 note=58 velocity=80 time=0.05294115
EXTRACT: note_on channel=5 note=42 velocity=80 time=0.05294115
EXTRACT: note_on channel=7 note=80 velocity=0 time=0.02941175
EXTRACT: note_on channel=1 note=59 velocity=0 time=0.002941175
EXTRACT: note_on channel=1 note=47 velocity=0 time=0
EXTRACT: note_on channel=7 note=82 velocity=64 time=0.002941175
EXTRACT: note_on channel=0 note=35 velocity=0 time=0.002941175
EXTRACT: note_on channel=1 note=63 velocity=0 time=0.0117647
EXTRACT: note_on channel=1 note=66 velocity=0 time=0
EXTRACT: note_on channel=5 note=58 velocity=0 time=0.002941175
EXTRACT: note_on channel=1 note=54 velocity=0 time=0.002941175
EXTRACT: note_on channel=1 note=66 velocity=87 time=0
EXTRACT: note_on channel=1 note=42 velocity=76 time=0.002941175
EXTRACT: note_on channel=5 note=61 velocity=0 time=0.002941175
EXTRACT: note_on channel=5 note=58 velocity=84 time=0
EXTRACT: note_on channel=0 note=30 velocity=106 time=0.00588235
EXTRACT: note_on channel=1 note=61 velocity=87 time=0
EXTRACT: note_on channel=2 note=82 velocity=57 time=0
EXTRACT: note_on channel=5 note=61 velocity=80 time=0
EXTRACT: note_on channel=2 note=73 velocity=57 time=0.00588235
EXTRACT: note_on channel=9 note=36 velocity=90 time=0
EXTRACT: note_on channel=9 note=51 velocity=82 time=0
EXTRACT: note_on channel=9 note=35 velocity=90 time=0
EXTRACT: note_on channel=1 note=54 velocity=87 time=0.002941175
EXTRACT: note_on channel=5 note=42 velocity=0 time=0.002941175
EXTRACT: note_on channel=1 note=49 velocity=76 time=0.002941175
EXTRACT: note_on channel=5 note=42 velocity=125 time=0.002941175
EXTRACT: note_on channel=2 note=83 velocity=0 time=0.026470575
EXTRACT: note_on channel=2 note=75 velocity=0 time=0.038235275
EXTRACT: note_on channel=7 note=82 velocity=0 time=0.002941175
EXTRACT: note_on channel=9 note=35 velocity=0 time=0.05294115
EXTRACT: note_on channel=9 note=51 velocity=0 time=0
EXTRACT: note_on channel=9 note=36 velocity=0 time=0
EXTRACT: note_on channel=7 note=82 velocity=64 time=0.026470575
EXTRACT: note_on channel=9 note=51 velocity=85 time=0.19411755
EXTRACT: note_on channel=9 note=51 velocity=0 time=0.06470585
EXTRACT: note_on channel=0 note=30 velocity=0 time=0.06470585
EXTRACT: note_on channel=1 note=66 velocity=0 time=0.014705875
EXTRACT: note_on channel=1 note=42 velocity=0 time=0.002941175
EXTRACT: note_on channel=1 note=61 velocity=0 time=0.008823524999999999
EXTRACT: note_on channel=1 note=61 velocity=72 time=0.00588235
EXTRACT: note_on channel=1 note=54 velocity=0 time=0.002941175
EXTRACT: note_on channel=1 note=66 velocity=72 time=0
EXTRACT: note_on channel=1 note=42 velocity=63 time=0.002941175
EXTRACT: note_on channel=1 note=49 velocity=0 time=0.002941175
EXTRACT: note_on channel=0 note=30 velocity=95 time=0.002941175
EXTRACT: note_on channel=9 note=35 velocity=90 time=0.002941175
EXTRACT: note_on channel=9 note=36 velocity=90 time=0
EXTRACT: note_on channel=1 note=49 velocity=63 time=0.008823524999999999
EXTRACT: note_on channel=1 note=54 velocity=72 time=0
EXTRACT: note_on channel=9 note=36 velocity=0 time=0.12352935
EXTRACT: note_on channel=9 note=35 velocity=0 time=0
EXTRACT: note_on channel=1 note=54 velocity=0 time=0.017647049999999997
EXTRACT: note_on channel=1 note=61 velocity=0 time=0.002941175
EXTRACT: note_on channel=0 note=30 velocity=0 time=0.002941175
EXTRACT: note_on channel=1 note=54 velocity=84 time=0
EXTRACT: note_on channel=1 note=61 velocity=84 time=0
EXTRACT: note_on channel=1 note=66 velocity=0 time=0
EXTRACT: note_on channel=1 note=42 velocity=0 time=0.002941175
EXTRACT: note_on channel=9 note=38 velocity=89 time=0.00588235
EXTRACT: note_on channel=9 note=40 velocity=89 time=0
EXTRACT: note_on channel=1 note=49 velocity=0 time=0.002941175
EXTRACT: note_on channel=1 note=42 velocity=73 time=0
EXTRACT: note_on channel=0 note=30 velocity=95 time=0.002941175
EXTRACT: note_on channel=1 note=49 velocity=73 time=0
EXTRACT: note_on channel=1 note=66 velocity=84 time=0.00588235
EXTRACT: note_on channel=9 note=35 velocity=90 time=0
EXTRACT: note_on channel=9 note=36 velocity=90 time=0
EXTRACT: note_on channel=9 note=41 velocity=51 time=0
EXTRACT: note_on channel=9 note=51 velocity=95 time=0
EXTRACT: note_on channel=9 note=51 velocity=0 time=0.0941176
EXTRACT: note_on channel=9 note=38 velocity=0 time=0.026470575
EXTRACT: note_on channel=9 note=40 velocity=0 time=0
EXTRACT: note_on channel=9 note=36 velocity=0 time=0.0117647
EXTRACT: note_on channel=9 note=41 velocity=0 time=0
EXTRACT: note_on channel=9 note=35 velocity=0 time=0
EXTRACT: note_on channel=5 note=61 velocity=0 time=0.008823524999999999
EXTRACT: note_on channel=5 note=58 velocity=0 time=0.00588235
EXTRACT: note_on channel=5 note=42 velocity=0 time=0.0117647
EXTRACT: note_on channel=5 note=63 velocity=80 time=0.0117647
EXTRACT: note_on channel=7 note=82 velocity=0 time=0.002941175
EXTRACT: note_on channel=5 note=59 velocity=80 time=0.032352925
EXTRACT: note_on channel=5 note=44 velocity=80 time=0.041176449999999996
EXTRACT: note_on channel=7 note=82 velocity=64 time=0.049999974999999995
EXTRACT: note_on channel=0 note=30 velocity=0 time=0.026470575
EXTRACT: note_on channel=1 note=54 velocity=0 time=0.0117647
EXTRACT: note_on channel=1 note=61 velocity=0 time=0
EXTRACT: note_on channel=5 note=44 velocity=0 time=0
EXTRACT: note_on channel=5 note=59 velocity=0 time=0
EXTRACT: note_on channel=7 note=83 velocity=64 time=0.002941175
EXTRACT: note_on channel=2 note=82 velocity=0 time=0.002941175
EXTRACT: note_on channel=5 note=63 velocity=0 time=0
EXTRACT: note_on channel=1 note=66 velocity=0 time=0.002941175
EXTRACT: note_on channel=1 note=51 velocity=83 time=0
EXTRACT: note_on channel=5 note=59 velocity=84 time=0
EXTRACT: note_on channel=1 note=42 velocity=0 time=0.002941175
EXTRACT: note_on channel=1 note=66 velocity=83 time=0
EXTRACT: note_on channel=2 note=80 velocity=57 time=0
EXTRACT: note_on channel=2 note=71 velocity=57 time=0.002941175
EXTRACT: note_on channel=0 note=32 velocity=106 time=0.002941175
EXTRACT: note_on channel=1 note=49 velocity=0 time=0
EXTRACT: note_on channel=5 note=63 velocity=80 time=0
EXTRACT: note_on channel=9 note=36 velocity=97 time=0
EXTRACT: note_on channel=9 note=35 velocity=97 time=0
EXTRACT: note_on channel=9 note=51 velocity=85 time=0
EXTRACT: note_on channel=9 note=53 velocity=55 time=0
EXTRACT: note_on channel=1 note=59 velocity=83 time=0.002941175
EXTRACT: note_on channel=5 note=44 velocity=125 time=0.002941175
EXTRACT: note_on channel=1 note=63 velocity=83 time=0.002941175
EXTRACT: note_on channel=2 note=73 velocity=0 time=0
EXTRACT: note_on channel=1 note=44 velocity=73 time=0.00588235
EXTRACT: note_on channel=7 note=82 velocity=0 time=0.02941175
EXTRACT: note_on channel=9 note=53 velocity=0 time=0.055882325
EXTRACT: note_on channel=9 note=51 velocity=0 time=0
EXTRACT: note_on channel=9 note=35 velocity=0 time=0.032352925
EXTRACT: note_on channel=9 note=36 velocity=0 time=0
EXTRACT: note_on channel=9 note=41 velocity=43 time=0.032352925
EXTRACT: note_on channel=9 note=41 velocity=0 time=0.13235287499999998
EXTRACT: note_on channel=9 note=51 velocity=85 time=0.055882325
EXTRACT: note_on channel=7 note=83 velocity=0 time=0.061764675
EXTRACT: note_on channel=9 note=51 velocity=0 time=0.041176449999999996
EXTRACT: note_on channel=0 note=32 velocity=0 time=0.02941175
EXTRACT: note_on channel=1 note=51 velocity=0 time=0.008823524999999999
EXTRACT: note_on channel=1 note=66 velocity=0 time=0.002941175
EXTRACT: note_on channel=1 note=59 velocity=0 time=0.008823524999999999
EXTRACT: note_on channel=1 note=63 velocity=0 time=0.00588235
EXTRACT: note_on channel=1 note=44 velocity=0 time=0.00588235
EXTRACT: note_on channel=1 note=63 velocity=69 time=0.002941175
EXTRACT: note_on channel=0 note=30 velocity=95 time=0.00588235
EXTRACT: note_on channel=1 note=59 velocity=69 time=0
EXTRACT: note_on channel=1 note=44 velocity=60 time=0.002941175
EXTRACT: note_on channel=9 note=38 velocity=81 time=0
EXTRACT: note_on channel=9 note=40 velocity=81 time=0
EXTRACT: note_on channel=1 note=51 velocity=69 time=0.0117647
EXTRACT: note_on channel=1 note=66 velocity=69 time=0
EXTRACT: note_on channel=9 note=40 velocity=0 time=0.12058817499999999
EXTRACT: note_on channel=9 note=38 velocity=0 time=0
EXTRACT: note_on channel=1 note=59 velocity=0 time=0.008823524999999999
EXTRACT: note_on channel=1 note=44 velocity=0 time=0.002941175
EXTRACT: note_on channel=1 note=63 velocity=0 time=0.00588235
EXTRACT: note_on channel=1 note=59 velocity=80 time=0
EXTRACT: note_on channel=1 note=63 velocity=80 time=0.00588235
EXTRACT: note_on channel=1 note=44 velocity=69 time=0
EXTRACT: note_on channel=0 note=30 velocity=0 time=0.002941175
EXTRACT: note_on channel=1 note=66 velocity=0 time=0
EXTRACT: note_on channel=1 note=66 velocity=80 time=0.00588235
EXTRACT: note_on channel=9 note=36 velocity=90 time=0
EXTRACT: note_on channel=9 note=35 velocity=90 time=0
EXTRACT: note_on channel=1 note=51 velocity=0 time=0.00588235
EXTRACT: note_on channel=0 note=32 velocity=103 time=0.002941175
EXTRACT: note_on channel=9 note=51 velocity=88 time=0.002941175
EXTRACT: note_on channel=1 note=51 velocity=80 time=0.002941175
EXTRACT: note_on channel=9 note=51 velocity=0 time=0.0941176
EXTRACT: note_on channel=9 note=35 velocity=0 time=0.0235294
EXTRACT: note_on channel=9 note=36 velocity=0 time=0
EXTRACT: note_on channel=7 note=85 velocity=64 time=0.23235282499999999
EXTRACT: note_on channel=9 note=38 velocity=89 time=0
EXTRACT: note_on channel=9 note=40 velocity=89 time=0
EXTRACT: note_on channel=9 note=41 velocity=57 time=0
EXTRACT: note_on channel=9 note=51 velocity=95 time=0
EXTRACT: note_on channel=9 note=53 velocity=63 time=0
EXTRACT: note_on channel=7 note=87 velocity=64 time=0.0235294
EXTRACT: note_on channel=7 note=85 velocity=0 time=0.06470585
EXTRACT: note_on channel=9 note=53 velocity=0 time=0.0235294
EXTRACT: note_on channel=9 note=51 velocity=0 time=0
EXTRACT: note_on channel=9 note=38 velocity=0 time=0.020588224999999998
EXTRACT: note_on channel=9 note=40 velocity=0 time=0
EXTRACT: note_on channel=9 note=41 velocity=0 time=0
EXTRACT: note_on channel=1 note=63 velocity=0 time=0.02941175
EXTRACT: note_on channel=1 note=59 velocity=0 time=0
EXTRACT: note_on channel=1 note=59 velocity=66 time=0.00588235
EXTRACT: note_on channel=1 note=63 velocity=66 time=0
EXTRACT: note_on channel=1 note=66 velocity=0 time=0
EXTRACT: note_on channel=1 note=44 velocity=0 time=0.002941175
EXTRACT: note_on channel=1 note=51 velocity=0 time=0
EXTRACT: note_on channel=1 note=51 velocity=66 time=0.00588235
EXTRACT: note_on channel=1 note=66 velocity=66 time=0
EXTRACT: note_on channel=1 note=44 velocity=57 time=0.0117647
EXTRACT: note_on channel=0 note=32 velocity=0 time=0.1058823
EXTRACT: note_on channel=1 note=59 velocity=0 time=0.026470575
EXTRACT: note_on channel=1 note=44 velocity=0 time=0
EXTRACT: note_on channel=1 note=59 velocity=76 time=0.002941175
EXTRACT: note_on channel=1 note=44 velocity=67 time=0
EXTRACT: note_on channel=1 note=63 velocity=0 time=0.008823524999999999
EXTRACT: note_on channel=1 note=66 velocity=0 time=0.002941175
EXTRACT: note_on channel=1 note=51 velocity=0 time=0.00588235
EXTRACT: note_on channel=1 note=66 velocity=76 time=0
EXTRACT: note_on channel=1 note=63 velocity=76 time=0
EXTRACT: note_on channel=1 note=51 velocity=76 time=0.00588235
EXTRACT: note_on channel=7 note=85 velocity=64 time=0.002941175
EXTRACT: note_on channel=0 note=32 velocity=110 time=0.002941175
EXTRACT: note_on channel=9 note=51 velocity=85 time=0
EXTRACT: note_on channel=7 note=87 velocity=0 time=0.041176449999999996
EXTRACT: note_on channel=9 note=51 velocity=0 time=0.0588235
EXTRACT: note_on channel=7 note=85 velocity=0 time=0.026470575
EXTRACT: note_on channel=0 note=32 velocity=0 time=0.00588235
EXTRACT: note_on channel=5 note=44 velocity=0 time=0.017647049999999997
EXTRACT: note_on channel=5 note=59 velocity=0 time=0.002941175
EXTRACT: note_on channel=7 note=82 velocity=64 time=0.008823524999999999
EXTRACT: note_on channel=5 note=63 velocity=0 time=0.002941175
EXTRACT: note_on channel=5 note=61 velocity=80 time=0.00588235
EXTRACT: note_on channel=0 note=32 velocity=110 time=0.00588235
EXTRACT: note_on channel=5 note=58 velocity=80 time=0.049999974999999995
EXTRACT: note_on channel=7 note=82 velocity=0 time=0.00588235
EXTRACT: note_on channel=7 note=83 velocity=64 time=0.002941175
EXTRACT: note_on channel=2 note=78 velocity=0 time=0.014705875
EXTRACT: note_on channel=5 note=42 velocity=80 time=0.02941175
EXTRACT: note_on channel=2 note=80 velocity=0 time=0.014705875
EXTRACT: note_on channel=1 note=59 velocity=0 time=0.017647049999999997
EXTRACT: note_on channel=1 note=44 velocity=0 time=0
EXTRACT: note_on channel=2 note=71 velocity=0 time=0
EXTRACT: note_on channel=1 note=63 velocity=0 time=0.017647049999999997
EXTRACT: note_on channel=1 note=66 velocity=0 time=0
EXTRACT: note_on channel=5 note=58 velocity=0 time=0.002941175
EXTRACT: note_on channel=1 note=51 velocity=0 time=0.002941175
EXTRACT: note_on channel=1 note=66 velocity=87 time=0
EXTRACT: note_on channel=0 note=32 velocity=0 time=0.002941175
EXTRACT: note_on channel=1 note=42 velocity=76 time=0
EXTRACT: note_on channel=5 note=61 velocity=0 time=0.002941175
EXTRACT: note_on channel=5 note=58 velocity=84 time=0
EXTRACT: note_on channel=1 note=61 velocity=87 time=0.00588235
EXTRACT: note_on channel=2 note=82 velocity=57 time=0
EXTRACT: note_on channel=5 note=61 velocity=80 time=0
EXTRACT: note_on channel=0 note=30 velocity=106 time=0.00588235
EXTRACT: note_on channel=2 note=78 velocity=57 time=0
EXTRACT: note_on channel=9 note=36 velocity=90 time=0
EXTRACT: note_on channel=9 note=51 velocity=82 time=0
EXTRACT: note_on channel=9 note=35 velocity=90 time=0
EXTRACT: note_on channel=1 note=54 velocity=87 time=0.002941175
EXTRACT: note_on channel=2 note=73 velocity=57 time=0
EXTRACT: note_on channel=5 note=42 velocity=0 time=0.002941175
EXTRACT: note_on channel=1 note=49 velocity=76 time=0.002941175
EXTRACT: note_on channel=5 note=42 velocity=125 time=0.002941175
EXTRACT: note_on channel=9 note=35 velocity=0 time=0.12058817499999999
EXTRACT: note_on channel=9 note=51 velocity=0 time=0
EXTRACT: note_on channel=9 note=36 velocity=0 time=0
EXTRACT: note_on channel=7 note=85 velocity=64 time=0.097058775
EXTRACT: note_on channel=7 note=83 velocity=0 time=0.014705875
EXTRACT: note_on channel=7 note=85 velocity=0 time=0.0941176
EXTRACT: note_on channel=7 note=83 velocity=64 time=0.002941175
EXTRACT: note_on channel=9 note=51 velocity=85 time=0.0117647
EXTRACT: note_on channel=9 note=53 velocity=59 time=0.017647049999999997
EXTRACT: note_on channel=9 note=51 velocity=0 time=0.0470588
EXTRACT: note_on channel=0 note=30 velocity=0 time=0.06470585
EXTRACT: note_on channel=1 note=66 velocity=0 time=0.002941175
EXTRACT: note_on channel=1 note=42 velocity=0 time=0.00588235
EXTRACT: note_on channel=1 note=61 velocity=0 time=0.008823524999999999
EXTRACT: note_on channel=9 note=53 velocity=0 time=0.002941175
EXTRACT: note_on channel=1 note=54 velocity=0 time=0.00588235
EXTRACT: note_on channel=1 note=49 velocity=0 time=0.002941175
EXTRACT: note_on channel=1 note=61 velocity=72 time=0.002941175
EXTRACT: note_on channel=1 note=66 velocity=72 time=0.002941175
EXTRACT: note_on channel=1 note=42 velocity=63 time=0.002941175
EXTRACT: note_on channel=0 note=30 velocity=95 time=0.00588235
EXTRACT: note_on channel=9 note=35 velocity=90 time=0.002941175
EXTRACT: note_on channel=9 note=36 velocity=90 time=0
EXTRACT: note_on channel=1 note=49 velocity=63 time=0.008823524999999999
EXTRACT: note_on channel=1 note=54 velocity=72 time=0
EXTRACT: note_on channel=9 note=36 velocity=0 time=0.12352935
EXTRACT: note_on channel=9 note=35 velocity=0 time=0
EXTRACT: note_on channel=1 note=54 velocity=0 time=0.014705875
EXTRACT: note_on channel=7 note=82 velocity=64 time=0
EXTRACT: note_on channel=7 note=83 velocity=0 time=0.002941175
EXTRACT: note_on channel=1 note=61 velocity=0 time=0.002941175
EXTRACT: note_on channel=0 note=30 velocity=0 time=0.002941175
EXTRACT: note_on channel=1 note=54 velocity=84 time=0
EXTRACT: note_on channel=1 note=61 velocity=84 time=0
EXTRACT: note_on channel=1 note=66 velocity=0 time=0
EXTRACT: note_on channel=1 note=42 velocity=0 time=0.002941175
EXTRACT: note_on channel=1 note=49 velocity=0 time=0.002941175
EXTRACT: note_on channel=9 note=38 velocity=89 time=0.002941175
EXTRACT: note_on channel=9 note=40 velocity=89 time=0
EXTRACT: note_on channel=1 note=42 velocity=73 time=0.002941175
EXTRACT: note_on channel=0 note=30 velocity=95 time=0.002941175
EXTRACT: note_on channel=1 note=49 velocity=73 time=0
EXTRACT: note_on channel=5 note=43 velocity=113 time=0
EXTRACT: note_on channel=1 note=66 velocity=84 time=0.00588235
EXTRACT: note_on channel=9 note=35 velocity=90 time=0
EXTRACT: note_on channel=9 note=36 velocity=90 time=0
EXTRACT: note_on channel=9 note=41 velocity=51 time=0
EXTRACT: note_on channel=9 note=51 velocity=95 time=0
EXTRACT: note_on channel=5 note=44 velocity=108 time=0.049999974999999995
EXTRACT: note_on channel=5 note=42 velocity=0 time=0.00588235
EXTRACT: note_on channel=9 note=51 velocity=0 time=0.038235275
EXTRACT: note_on channel=5 note=43 velocity=0 time=0.008823524999999999
EXTRACT: note_on channel=5 note=45 velocity=102 time=0.002941175
EXTRACT: note_on channel=9 note=38 velocity=0 time=0.014705875
EXTRACT: note_on channel=9 note=40 velocity=0 time=0
EXTRACT: note_on channel=9 note=36 velocity=0 time=0.0117647
EXTRACT: note_on channel=9 note=41 velocity=0 time=0
EXTRACT: note_on channel=9 note=35 velocity=0 time=0
EXTRACT: note_on channel=5 note=61 velocity=0 time=0.017647049999999997
EXTRACT: note_on channel=5 note=58 velocity=0 time=0.002941175
EXTRACT: note_on channel=5 note=44 velocity=0 time=0.00588235
EXTRACT: note_on channel=5 note=46 velocity=97 time=0.002941175
EXTRACT: note_on channel=5 note=63 velocity=80 time=0.008823524999999999
EXTRACT: note_on channel=5 note=59 velocity=80 time=0.02941175
EXTRACT: note_on channel=5 note=45 velocity=0 time=0.0117647
EXTRACT: note_on channel=5 note=47 velocity=92 time=0.00588235
EXTRACT: note_on channel=5 note=46 velocity=0 time=0.049999974999999995
EXTRACT: note_on channel=1 note=61 velocity=0 time=0.055882325
EXTRACT: note_on channel=1 note=54 velocity=0 time=0
EXTRACT: note_on channel=0 note=30 velocity=0 time=0.002941175
EXTRACT: note_on channel=5 note=59 velocity=0 time=0.002941175
EXTRACT: note_on channel=1 note=42 velocity=0 time=0.00588235
EXTRACT: note_on channel=1 note=49 velocity=0 time=0.00588235
EXTRACT: note_on channel=5 note=63 velocity=0 time=0
EXTRACT: note_on channel=1 note=66 velocity=0 time=0.002941175
EXTRACT: note_on channel=1 note=54 velocity=83 time=0
EXTRACT: note_on channel=5 note=59 velocity=84 time=0
EXTRACT: note_on channel=1 note=66 velocity=83 time=0.002941175
EXTRACT: note_on channel=2 note=75 velocity=57 time=0
EXTRACT: note_on channel=5 note=47 velocity=0 time=0
EXTRACT: note_on channel=2 note=73 velocity=0 time=0.002941175
EXTRACT: note_on channel=5 note=63 velocity=80 time=0.002941175
EXTRACT: note_on channel=9 note=36 velocity=97 time=0
EXTRACT: note_on channel=9 note=35 velocity=97 time=0
EXTRACT: note_on channel=9 note=51 velocity=85 time=0
EXTRACT: note_on channel=9 note=53 velocity=55 time=0
EXTRACT: note_on channel=0 note=35 velocity=106 time=0.002941175
EXTRACT: note_on channel=1 note=59 velocity=83 time=0
EXTRACT: note_on channel=2 note=83 velocity=57 time=0
EXTRACT: note_on channel=2 note=82 velocity=0 time=0.002941175
EXTRACT: note_on channel=5 note=47 velocity=125 time=0
EXTRACT: note_on channel=1 note=63 velocity=83 time=0.002941175
EXTRACT: note_on channel=1 note=47 velocity=73 time=0.00588235
EXTRACT: note_on channel=9 note=53 velocity=0 time=0.085294075
EXTRACT: note_on channel=9 note=51 velocity=0 time=0
EXTRACT: note_on channel=9 note=35 velocity=0 time=0.032352925
EXTRACT: note_on channel=9 note=36 velocity=0 time=0
EXTRACT: note_on channel=7 note=83 velocity=64 time=0.0235294
EXTRACT: note_on channel=9 note=41 velocity=43 time=0.008823524999999999
EXTRACT: note_on channel=7 note=82 velocity=0 time=0.020588224999999998
EXTRACT: note_on channel=9 note=41 velocity=0 time=0.11176465
EXTRACT: note_on channel=9 note=51 velocity=85 time=0.055882325
EXTRACT: note_on channel=9 note=51 velocity=0 time=0.102941125
EXTRACT: note_on channel=0 note=35 velocity=0 time=0.02941175
EXTRACT: note_on channel=1 note=54 velocity=0 time=0.008823524999999999
EXTRACT: note_on channel=1 note=66 velocity=0 time=0.002941175
EXTRACT: note_on channel=1 note=59 velocity=0 time=0.008823524999999999
EXTRACT: note_on channel=1 note=63 velocity=0 time=0.00588235
EXTRACT: note_on channel=1 note=47 velocity=0 time=0.00588235
EXTRACT: note_on channel=1 note=63 velocity=69 time=0.002941175
EXTRACT: note_on channel=0 note=34 velocity=95 time=0.00588235
EXTRACT: note_on channel=1 note=59 velocity=69 time=0
EXTRACT: note_on channel=1 note=47 velocity=60 time=0.002941175
EXTRACT: note_on channel=9 note=38 velocity=81 time=0
EXTRACT: note_on channel=9 note=40 velocity=81 time=0
EXTRACT: note_on channel=1 note=54 velocity=69 time=0.0117647
EXTRACT: note_on channel=1 note=66 velocity=69 time=0
EXTRACT: note_on channel=9 note=40 velocity=0 time=0.12058817499999999
EXTRACT: note_on channel=9 note=38 velocity=0 time=0
EXTRACT: note_on channel=1 note=59 velocity=0 time=0.0117647
EXTRACT: note_on channel=1 note=47 velocity=0 time=0.002941175
EXTRACT: note_on channel=1 note=63 velocity=0 time=0.002941175
EXTRACT: note_on channel=1 note=59 velocity=80 time=0
EXTRACT: note_on channel=1 note=63 velocity=80 time=0.00588235
EXTRACT: note_on channel=1 note=47 velocity=69 time=0
EXTRACT: note_on channel=0 note=34 velocity=0 time=0.00588235
EXTRACT: note_on channel=1 note=66 velocity=0 time=0
EXTRACT: note_on channel=1 note=66 velocity=80 time=0.002941175
EXTRACT: note_on channel=9 note=36 velocity=90 time=0
EXTRACT: note_on channel=9 note=35 velocity=90 time=0
EXTRACT: note_on channel=1 note=54 velocity=0 time=0.00588235
EXTRACT: note_on channel=0 note=35 velocity=103 time=0.00588235
EXTRACT: note_on channel=9 note=51 velocity=88 time=0
EXTRACT: note_on channel=1 note=54 velocity=80 time=0.002941175
EXTRACT: note_on channel=9 note=51 velocity=0 time=0.0941176
EXTRACT: note_on channel=9 note=35 velocity=0 time=0.0235294
EXTRACT: note_on channel=9 note=36 velocity=0 time=0
EXTRACT: note_on channel=9 note=38 velocity=89 time=0.23235282499999999
EXTRACT: note_on channel=9 note=40 velocity=89 time=0
EXTRACT: note_on channel=9 note=41 velocity=57 time=0
EXTRACT: note_on channel=9 note=51 velocity=95 time=0
EXTRACT: note_on channel=9 note=53 velocity=63 time=0
EXTRACT: note_on channel=9 note=53 velocity=0 time=0.11176465
EXTRACT: note_on channel=9 note=51 velocity=0 time=0
EXTRACT: note_on channel=9 note=38 velocity=0 time=0.020588224999999998
EXTRACT: note_on channel=9 note=40 velocity=0 time=0
EXTRACT: note_on channel=9 note=41 velocity=0 time=0
EXTRACT: note_on channel=1 note=63 velocity=0 time=0.0235294
EXTRACT: note_on channel=1 note=59 velocity=0 time=0.002941175
EXTRACT: note_on channel=1 note=66 velocity=0 time=0.00588235
EXTRACT: note_on channel=1 note=54 velocity=0 time=0.002941175
EXTRACT: note_on channel=1 note=59 velocity=66 time=0
EXTRACT: note_on channel=1 note=63 velocity=66 time=0
EXTRACT: note_on channel=1 note=47 velocity=0 time=0.002941175
EXTRACT: note_on channel=1 note=54 velocity=66 time=0.00588235
EXTRACT: note_on channel=1 note=66 velocity=66 time=0
EXTRACT: note_on channel=1 note=47 velocity=57 time=0.0117647
EXTRACT: note_on channel=0 note=35 velocity=0 time=0.10882347499999999
EXTRACT: note_on channel=7 note=83 velocity=0 time=0
EXTRACT: note_on channel=1 note=59 velocity=0 time=0.0235294
EXTRACT: note_on channel=1 note=47 velocity=0 time=0.002941175
EXTRACT: note_on channel=1 note=59 velocity=76 time=0
EXTRACT: note_on channel=1 note=47 velocity=67 time=0
EXTRACT: note_on channel=1 note=63 velocity=0 time=0.008823524999999999
EXTRACT: note_on channel=1 note=66 velocity=0 time=0.00588235
EXTRACT: note_on channel=7 note=82 velocity=64 time=0
EXTRACT: note_on channel=1 note=54 velocity=0 time=0.002941175
EXTRACT: note_on channel=1 note=66 velocity=76 time=0
EXTRACT: note_on channel=1 note=63 velocity=76 time=0
EXTRACT: note_on channel=1 note=54 velocity=76 time=0.00588235
EXTRACT: note_on channel=9 note=51 velocity=85 time=0.00588235
EXTRACT: note_on channel=0 note=35 velocity=110 time=0.002941175
EXTRACT: note_on channel=9 note=51 velocity=0 time=0.097058775
EXTRACT: note_on channel=0 note=35 velocity=0 time=0.032352925
EXTRACT: note_on channel=5 note=63 velocity=0 time=0
EXTRACT: note_on channel=7 note=82 velocity=0 time=0.014705875
EXTRACT: note_on channel=5 note=59 velocity=0 time=0.002941175
EXTRACT: note_on channel=5 note=47 velocity=0 time=0.017647049999999997
EXTRACT: note_on channel=7 note=80 velocity=64 time=0
EXTRACT: note_on channel=5 note=61 velocity=80 time=0.002941175
EXTRACT: note_on channel=0 note=35 velocity=110 time=0.002941175
EXTRACT: note_on channel=5 note=58 velocity=80 time=0.05294115
EXTRACT: note_on channel=5 note=42 velocity=80 time=0.05294115
EXTRACT: note_on channel=7 note=80 velocity=0 time=0.002941175
EXTRACT: note_on channel=1 note=59 velocity=0 time=0.02941175
EXTRACT: note_on channel=1 note=47 velocity=0 time=0
EXTRACT: note_on channel=0 note=35 velocity=0 time=0.00588235
EXTRACT: note_on channel=1 note=63 velocity=0 time=0.0117647
EXTRACT: note_on channel=1 note=66 velocity=0 time=0
EXTRACT: note_on channel=5 note=58 velocity=0 time=0.002941175
EXTRACT: note_on channel=1 note=54 velocity=0 time=0.002941175
EXTRACT: note_on channel=1 note=66 velocity=87 time=0
EXTRACT: note_on channel=1 note=42 velocity=76 time=0.002941175
EXTRACT: note_on channel=5 note=61 velocity=0 time=0.002941175
EXTRACT: note_on channel=5 note=58 velocity=84 time=0
EXTRACT: note_on channel=7 note=82 velocity=64 time=0.002941175
EXTRACT: note_on channel=0 note=30 velocity=106 time=0.002941175
EXTRACT: note_on channel=1 note=61 velocity=87 time=0
EXTRACT: note_on channel=2 note=82 velocity=58 time=0
EXTRACT: note_on channel=5 note=61 velocity=80 time=0
EXTRACT: note_on channel=2 note=73 velocity=58 time=0.00588235
EXTRACT: note_on channel=9 note=36 velocity=90 time=0
EXTRACT: note_on channel=9 note=51 velocity=82 time=0
EXTRACT: note_on channel=9 note=35 velocity=90 time=0
EXTRACT: note_on channel=1 note=54 velocity=87 time=0.002941175
EXTRACT: note_on channel=5 note=42 velocity=0 time=0.002941175
EXTRACT: note_on channel=1 note=49 velocity=76 time=0.002941175
EXTRACT: note_on channel=5 note=42 velocity=125 time=0.002941175
EXTRACT: note_on channel=7 note=83 velocity=64 time=0.017647049999999997
EXTRACT: note_on channel=2 note=83 velocity=0 time=0.008823524999999999
EXTRACT: note_on channel=7 note=82 velocity=0 time=0.035294099999999995
EXTRACT: note_on channel=2 note=75 velocity=0 time=0.002941175
EXTRACT: note_on channel=9 note=35 velocity=0 time=0.055882325
EXTRACT: note_on channel=9 note=51 velocity=0 time=0
EXTRACT: note_on channel=9 note=36 velocity=0 time=0
EXTRACT: note_on channel=9 note=51 velocity=85 time=0.220588125
EXTRACT: note_on channel=7 note=82 velocity=64 time=0.0117647
EXTRACT: note_on channel=9 note=51 velocity=0 time=0.05294115
EXTRACT: note_on channel=7 note=83 velocity=0 time=0.00588235
EXTRACT: note_on channel=0 note=30 velocity=0 time=0.0588235
EXTRACT: note_on channel=1 note=66 velocity=0 time=0.014705875
EXTRACT: note_on channel=1 note=42 velocity=0 time=0.002941175
EXTRACT: note_on channel=1 note=61 velocity=0 time=0.008823524999999999
EXTRACT: note_on channel=1 note=61 velocity=72 time=0.00588235
EXTRACT: note_on channel=1 note=54 velocity=0 time=0.002941175
EXTRACT: note_on channel=1 note=66 velocity=72 time=0
EXTRACT: note_on channel=1 note=42 velocity=63 time=0.002941175
EXTRACT: note_on channel=1 note=49 velocity=0 time=0.002941175
EXTRACT: note_on channel=0 note=30 velocity=95 time=0.002941175
EXTRACT: note_on channel=9 note=35 velocity=90 time=0.002941175
EXTRACT: note_on channel=9 note=36 velocity=90 time=0
EXTRACT: note_on channel=1 note=49 velocity=63 time=0.008823524999999999
EXTRACT: note_on channel=1 note=54 velocity=72 time=0
EXTRACT: note_on channel=9 note=36 velocity=0 time=0.12352935
EXTRACT: note_on channel=9 note=35 velocity=0 time=0
EXTRACT: note_on channel=1 note=54 velocity=0 time=0.017647049999999997
EXTRACT: note_on channel=1 note=61 velocity=0 time=0.002941175
EXTRACT: note_on channel=0 note=30 velocity=0 time=0.002941175
EXTRACT: note_on channel=1 note=54 velocity=84 time=0
EXTRACT: note_on channel=1 note=61 velocity=84 time=0
EXTRACT: note_on channel=1 note=66 velocity=0 time=0
EXTRACT: note_on channel=1 note=42 velocity=0 time=0.002941175
EXTRACT: note_on channel=7 note=83 velocity=64 time=0
EXTRACT: note_on channel=9 note=38 velocity=89 time=0.00588235
EXTRACT: note_on channel=9 note=40 velocity=89 time=0
EXTRACT: note_on channel=1 note=49 velocity=0 time=0.002941175
EXTRACT: note_on channel=1 note=42 velocity=73 time=0
EXTRACT: note_on channel=7 note=82 velocity=0 time=0
EXTRACT: note_on channel=0 note=30 velocity=95 time=0.002941175
EXTRACT: note_on channel=1 note=49 velocity=73 time=0
EXTRACT: note_on channel=1 note=66 velocity=84 time=0.00588235
EXTRACT: note_on channel=9 note=35 velocity=90 time=0
EXTRACT: note_on channel=9 note=36 velocity=90 time=0
EXTRACT: note_on channel=9 note=41 velocity=51 time=0
EXTRACT: note_on channel=9 note=51 velocity=95 time=0
EXTRACT: note_on channel=9 note=51 velocity=0 time=0.0941176
EXTRACT: note_on channel=9 note=38 velocity=0 time=0.026470575
EXTRACT: note_on channel=9 note=40 velocity=0 time=0
EXTRACT: note_on channel=9 note=36 velocity=0 time=0.0117647
EXTRACT: note_on channel=9 note=41 velocity=0 time=0
EXTRACT: note_on channel=9 note=35 velocity=0 time=0
EXTRACT: note_on channel=5 note=61 velocity=0 time=0.008823524999999999
EXTRACT: note_on channel=5 note=58 velocity=0 time=0.00588235
EXTRACT: note_on channel=5 note=42 velocity=0 time=0.0117647
EXTRACT: note_on channel=5 note=63 velocity=80 time=0.0117647
EXTRACT: note_on channel=5 note=59 velocity=80 time=0.035294099999999995
EXTRACT: note_on channel=5 note=44 velocity=80 time=0.041176449999999996
EXTRACT: note_on channel=0 note=30 velocity=0 time=0.07647055
EXTRACT: note_on channel=1 note=54 velocity=0 time=0.0117647
EXTRACT: note_on channel=1 note=61 velocity=0 time=0
EXTRACT: note_on channel=5 note=44 velocity=0 time=0
EXTRACT: note_on channel=5 note=59 velocity=0 time=0
EXTRACT: note_on channel=2 note=82 velocity=0 time=0.00588235
EXTRACT: note_on channel=5 note=63 velocity=0 time=0
EXTRACT: note_on channel=1 note=66 velocity=0 time=0.002941175
EXTRACT: note_on channel=1 note=51 velocity=83 time=0
EXTRACT: note_on channel=5 note=59 velocity=84 time=0
EXTRACT: note_on channel=1 note=42 velocity=0 time=0.002941175
EXTRACT: note_on channel=1 note=66 velocity=83 time=0
EXTRACT: note_on channel=2 note=80 velocity=58 time=0
EXTRACT: note_on channel=2 note=71 velocity=58 time=0.002941175
EXTRACT: note_on channel=0 note=32 velocity=106 time=0.002941175
EXTRACT: note_on channel=1 note=49 velocity=0 time=0
EXTRACT: note_on channel=5 note=63 velocity=80 time=0
EXTRACT: note_on channel=9 note=36 velocity=97 time=0
EXTRACT: note_on channel=9 note=35 velocity=97 time=0
EXTRACT: note_on channel=9 note=51 velocity=85 time=0
EXTRACT: note_on channel=9 note=53 velocity=55 time=0
EXTRACT: note_on channel=1 note=59 velocity=83 time=0.002941175
EXTRACT: note_on channel=5 note=44 velocity=125 time=0.002941175
EXTRACT: note_on channel=1 note=63 velocity=83 time=0.002941175
EXTRACT: note_on channel=2 note=73 velocity=0 time=0
EXTRACT: note_on channel=7 note=80 velocity=64 time=0
EXTRACT: note_on channel=1 note=44 velocity=73 time=0.00588235
EXTRACT: note_on channel=7 note=83 velocity=0 time=0.002941175
EXTRACT: note_on channel=9 note=53 velocity=0 time=0.08235289999999999
EXTRACT: note_on channel=9 note=51 velocity=0 time=0
EXTRACT: note_on channel=9 note=35 velocity=0 time=0.032352925
EXTRACT: note_on channel=9 note=36 velocity=0 time=0
EXTRACT: note_on channel=9 note=41 velocity=43 time=0.032352925
EXTRACT: note_on channel=9 note=41 velocity=0 time=0.13235287499999998
EXTRACT: note_on channel=9 note=51 velocity=85 time=0.055882325
EXTRACT: note_on channel=9 note=51 velocity=0 time=0.102941125
EXTRACT: note_on channel=0 note=32 velocity=0 time=0.02941175
EXTRACT: note_on channel=1 note=51 velocity=0 time=0.008823524999999999
EXTRACT: note_on channel=1 note=66 velocity=0 time=0.002941175
EXTRACT: note_on channel=1 note=59 velocity=0 time=0.008823524999999999
EXTRACT: note_on channel=1 note=63 velocity=0 time=0.00588235
EXTRACT: note_on channel=1 note=44 velocity=0 time=0.00588235
EXTRACT: note_on channel=1 note=63 velocity=69 time=0.002941175
EXTRACT: note_on channel=0 note=30 velocity=95 time=0.00588235
EXTRACT: note_on channel=1 note=59 velocity=69 time=0
EXTRACT: note_on channel=1 note=44 velocity=60 time=0.002941175
EXTRACT: note_on channel=9 note=38 velocity=81 time=0
EXTRACT: note_on channel=9 note=40 velocity=81 time=0
EXTRACT: note_on channel=1 note=51 velocity=69 time=0.0117647
EXTRACT: note_on channel=1 note=66 velocity=69 time=0
EXTRACT: note_on channel=7 note=80 velocity=0 time=0.026470575
EXTRACT: note_on channel=9 note=40 velocity=0 time=0.0941176
EXTRACT: note_on channel=9 note=38 velocity=0 time=0
EXTRACT: note_on channel=1 note=59 velocity=0 time=0.008823524999999999
EXTRACT: note_on channel=1 note=44 velocity=0 time=0.002941175
EXTRACT: note_on channel=1 note=63 velocity=0 time=0.00588235
EXTRACT: note_on channel=1 note=59 velocity=80 time=0
EXTRACT: note_on channel=1 note=63 velocity=80 time=0.00588235
EXTRACT: note_on channel=1 note=44 velocity=69 time=0
EXTRACT: note_on channel=0 note=30 velocity=0 time=0.002941175
EXTRACT: note_on channel=1 note=66 velocity=0 time=0
EXTRACT: note_on channel=1 note=66 velocity=80 time=0.00588235
EXTRACT: note_on channel=9 note=36 velocity=90 time=0
EXTRACT: note_on channel=9 note=35 velocity=90 time=0
EXTRACT: note_on channel=1 note=51 velocity=0 time=0.00588235
EXTRACT: note_on channel=0 note=32 velocity=103 time=0.002941175
EXTRACT: note_on channel=9 note=51 velocity=88 time=0.002941175
EXTRACT: note_on channel=1 note=51 velocity=80 time=0.002941175
EXTRACT: note_on channel=9 note=51 velocity=0 time=0.0941176
EXTRACT: note_on channel=9 note=35 velocity=0 time=0.0235294
EXTRACT: note_on channel=9 note=36 velocity=0 time=0
EXTRACT: note_on channel=7 note=85 velocity=64 time=0.22647047499999998
EXTRACT: note_on channel=9 note=38 velocity=89 time=0.00588235
EXTRACT: note_on channel=9 note=40 velocity=89 time=0
EXTRACT: note_on channel=9 note=41 velocity=57 time=0
EXTRACT: note_on channel=9 note=51 velocity=95 time=0
EXTRACT: note_on channel=9 note=53 velocity=63 time=0
EXTRACT: note_on channel=7 note=87 velocity=64 time=0.008823524999999999
EXTRACT: note_on channel=7 note=85 velocity=0 time=0.07647055
EXTRACT: note_on channel=9 note=53 velocity=0 time=0.026470575
EXTRACT: note_on channel=9 note=51 velocity=0 time=0
EXTRACT: note_on channel=9 note=38 velocity=0 time=0.020588224999999998
EXTRACT: note_on channel=9 note=40 velocity=0 time=0
EXTRACT: note_on channel=9 note=41 velocity=0 time=0
EXTRACT: note_on channel=1 note=63 velocity=0 time=0.02941175
EXTRACT: note_on channel=1 note=59 velocity=0 time=0
EXTRACT: note_on channel=1 note=59 velocity=66 time=0.00588235
EXTRACT: note_on channel=1 note=63 velocity=66 time=0
EXTRACT: note_on channel=1 note=66 velocity=0 time=0
EXTRACT: note_on channel=1 note=44 velocity=0 time=0.002941175
EXTRACT: note_on channel=1 note=51 velocity=0 time=0
EXTRACT: note_on channel=1 note=51 velocity=66 time=0.00588235
EXTRACT: note_on channel=1 note=66 velocity=66 time=0
EXTRACT: note_on channel=1 note=44 velocity=57 time=0.0117647
EXTRACT: note_on channel=0 note=32 velocity=0 time=0.1058823
EXTRACT: note_on channel=1 note=59 velocity=0 time=0.026470575
EXTRACT: note_on channel=1 note=44 velocity=0 time=0
EXTRACT: note_on channel=1 note=59 velocity=76 time=0.002941175
EXTRACT: note_on channel=1 note=44 velocity=67 time=0
EXTRACT: note_on channel=1 note=63 velocity=0 time=0.008823524999999999
EXTRACT: note_on channel=1 note=66 velocity=0 time=0.002941175
EXTRACT: note_on channel=1 note=51 velocity=0 time=0.00588235
EXTRACT: note_on channel=1 note=66 velocity=76 time=0
EXTRACT: note_on channel=1 note=63 velocity=76 time=0
EXTRACT: note_on channel=1 note=51 velocity=76 time=0.00588235
EXTRACT: note_on channel=0 note=32 velocity=110 time=0.00588235
EXTRACT: note_on channel=7 note=85 velocity=64 time=0
EXTRACT: note_on channel=9 note=51 velocity=85 time=0
EXTRACT: note_on channel=7 note=87 velocity=0 time=0.038235275
EXTRACT: note_on channel=9 note=51 velocity=0 time=0.061764675
EXTRACT: note_on channel=7 note=85 velocity=0 time=0.0235294
EXTRACT: note_on channel=0 note=32 velocity=0 time=0.008823524999999999
EXTRACT: note_on channel=5 note=44 velocity=0 time=0.017647049999999997
EXTRACT: note_on channel=5 note=59 velocity=0 time=0.002941175
EXTRACT: note_on channel=5 note=63 velocity=0 time=0.0117647
EXTRACT: note_on channel=5 note=61 velocity=80 time=0.00588235
EXTRACT: note_on channel=0 note=32 velocity=110 time=0.00588235
EXTRACT: note_on channel=7 note=82 velocity=64 time=0.008823524999999999
EXTRACT: note_on channel=5 note=58 velocity=80 time=0.041176449999999996
EXTRACT: note_on channel=2 note=78 velocity=0 time=0.0235294
EXTRACT: note_on channel=5 note=42 velocity=80 time=0.02941175
EXTRACT: note_on channel=2 note=80 velocity=0 time=0.014705875
EXTRACT: note_on channel=1 note=59 velocity=0 time=0.017647049999999997
EXTRACT: note_on channel=1 note=44 velocity=0 time=0
EXTRACT: note_on channel=2 note=71 velocity=0 time=0
EXTRACT: note_on channel=1 note=63 velocity=0 time=0.017647049999999997
EXTRACT: note_on channel=1 note=66 velocity=0 time=0
EXTRACT: note_on channel=5 note=58 velocity=0 time=0.002941175
EXTRACT: note_on channel=1 note=51 velocity=0 time=0.002941175
EXTRACT: note_on channel=1 note=66 velocity=87 time=0
EXTRACT: note_on channel=0 note=32 velocity=0 time=0.002941175
EXTRACT: note_on channel=1 note=42 velocity=76 time=0
EXTRACT: note_on channel=5 note=61 velocity=0 time=0.002941175
EXTRACT: note_on channel=5 note=58 velocity=84 time=0
EXTRACT: note_on channel=1 note=61 velocity=87 time=0.00588235
EXTRACT: note_on channel=2 note=82 velocity=58 time=0
EXTRACT: note_on channel=5 note=61 velocity=80 time=0
EXTRACT: note_on channel=0 note=30 velocity=106 time=0.00588235
EXTRACT: note_on channel=2 note=78 velocity=58 time=0
EXTRACT: note_on channel=9 note=36 velocity=90 time=0
EXTRACT: note_on channel=9 note=51 velocity=82 time=0
EXTRACT: note_on channel=9 note=35 velocity=90 time=0
EXTRACT: note_on channel=1 note=54 velocity=87 time=0.002941175
EXTRACT: note_on channel=2 note=73 velocity=58 time=0
EXTRACT: note_on channel=5 note=42 velocity=0 time=0.002941175
EXTRACT: note_on channel=1 note=49 velocity=76 time=0.002941175
EXTRACT: note_on channel=5 note=42 velocity=125 time=0.002941175
EXTRACT: note_on channel=9 note=35 velocity=0 time=0.12058817499999999
EXTRACT: note_on channel=9 note=51 velocity=0 time=0
EXTRACT: note_on channel=9 note=36 velocity=0 time=0
EXTRACT: note_on channel=9 note=51 velocity=85 time=0.220588125
EXTRACT: note_on channel=9 note=53 velocity=59 time=0.017647049999999997
EXTRACT: note_on channel=9 note=51 velocity=0 time=0.0470588
EXTRACT: note_on channel=0 note=30 velocity=0 time=0.06470585
EXTRACT: note_on channel=1 note=66 velocity=0 time=0.002941175
EXTRACT: note_on channel=1 note=42 velocity=0 time=0.00588235
EXTRACT: note_on channel=1 note=61 velocity=0 time=0.008823524999999999
EXTRACT: note_on channel=9 note=53 velocity=0 time=0.002941175
EXTRACT: note_on channel=1 note=54 velocity=0 time=0.00588235
EXTRACT: note_on channel=1 note=49 velocity=0 time=0.002941175
EXTRACT: note_on channel=1 note=61 velocity=72 time=0.002941175
EXTRACT: note_on channel=1 note=66 velocity=72 time=0.002941175
EXTRACT: note_on channel=1 note=42 velocity=63 time=0.002941175
EXTRACT: note_on channel=0 note=30 velocity=95 time=0.00588235
EXTRACT: note_on channel=9 note=35 velocity=90 time=0.002941175
EXTRACT: note_on channel=9 note=36 velocity=90 time=0
EXTRACT: note_on channel=1 note=49 velocity=63 time=0.008823524999999999
EXTRACT: note_on channel=1 note=54 velocity=72 time=0
EXTRACT: note_on channel=9 note=36 velocity=0 time=0.12352935
EXTRACT: note_on channel=9 note=35 velocity=0 time=0
EXTRACT: note_on channel=1 note=54 velocity=0 time=0.014705875
EXTRACT: note_on channel=1 note=61 velocity=0 time=0.00588235
EXTRACT: note_on channel=0 note=30 velocity=0 time=0.002941175
EXTRACT: note_on channel=1 note=54 velocity=84 time=0
EXTRACT: note_on channel=1 note=61 velocity=84 time=0
EXTRACT: note_on channel=1 note=66 velocity=0 time=0
EXTRACT: note_on channel=1 note=42 velocity=0 time=0.002941175
EXTRACT: note_on channel=1 note=49 velocity=0 time=0.002941175
EXTRACT: note_on channel=9 note=38 velocity=89 time=0.002941175
EXTRACT: note_on channel=9 note=40 velocity=89 time=0
EXTRACT: note_on channel=1 note=42 velocity=73 time=0.002941175
EXTRACT: note_on channel=0 note=30 velocity=95 time=0.002941175
EXTRACT: note_on channel=1 note=49 velocity=73 time=0
EXTRACT: note_on channel=5 note=43 velocity=113 time=0
EXTRACT: note_on channel=1 note=66 velocity=84 time=0.00588235
EXTRACT: note_on channel=9 note=35 velocity=90 time=0
EXTRACT: note_on channel=9 note=36 velocity=90 time=0
EXTRACT: note_on channel=9 note=41 velocity=51 time=0
EXTRACT: note_on channel=9 note=51 velocity=95 time=0
EXTRACT: note_on channel=5 note=44 velocity=108 time=0.049999974999999995
EXTRACT: note_on channel=5 note=42 velocity=0 time=0.00588235
EXTRACT: note_on channel=9 note=51 velocity=0 time=0.038235275
EXTRACT: note_on channel=5 note=43 velocity=0 time=0.008823524999999999
EXTRACT: note_on channel=5 note=45 velocity=102 time=0.002941175
EXTRACT: note_on channel=9 note=38 velocity=0 time=0.014705875
EXTRACT: note_on channel=9 note=40 velocity=0 time=0
EXTRACT: note_on channel=9 note=36 velocity=0 time=0.0117647
EXTRACT: note_on channel=9 note=41 velocity=0 time=0
EXTRACT: note_on channel=9 note=35 velocity=0 time=0
EXTRACT: note_on channel=5 note=61 velocity=0 time=0.017647049999999997
EXTRACT: note_on channel=5 note=58 velocity=0 time=0.002941175
EXTRACT: note_on channel=5 note=44 velocity=0 time=0.00588235
EXTRACT: note_on channel=5 note=46 velocity=97 time=0.002941175
EXTRACT: note_on channel=5 note=63 velocity=80 time=0.008823524999999999
EXTRACT: note_on channel=5 note=59 velocity=80 time=0.02941175
EXTRACT: note_on channel=5 note=45 velocity=0 time=0.0117647
EXTRACT: note_on channel=5 note=47 velocity=92 time=0.00588235
EXTRACT: note_on channel=5 note=46 velocity=0 time=0.049999974999999995
EXTRACT: note_on channel=1 note=61 velocity=0 time=0.055882325
EXTRACT: note_on channel=1 note=54 velocity=0 time=0
EXTRACT: note_on channel=0 note=30 velocity=0 time=0.002941175
EXTRACT: note_on channel=5 note=59 velocity=0 time=0.002941175
EXTRACT: note_on channel=1 note=42 velocity=0 time=0.00588235
EXTRACT: note_on channel=1 note=49 velocity=0 time=0.00588235
EXTRACT: note_on channel=5 note=63 velocity=0 time=0
EXTRACT: note_on channel=1 note=66 velocity=0 time=0.002941175
EXTRACT: note_on channel=1 note=54 velocity=83 time=0
EXTRACT: note_on channel=5 note=59 velocity=84 time=0
EXTRACT: note_on channel=1 note=66 velocity=83 time=0.002941175
EXTRACT: note_on channel=2 note=75 velocity=58 time=0
EXTRACT: note_on channel=5 note=47 velocity=0 time=0
EXTRACT: note_on channel=2 note=73 velocity=0 time=0.002941175
EXTRACT: note_on channel=7 note=83 velocity=64 time=0
EXTRACT: note_on channel=5 note=63 velocity=80 time=0.002941175
EXTRACT: note_on channel=9 note=36 velocity=97 time=0
EXTRACT: note_on channel=9 note=35 velocity=97 time=0
EXTRACT: note_on channel=9 note=51 velocity=85 time=0
EXTRACT: note_on channel=9 note=53 velocity=55 time=0
EXTRACT: note_on channel=0 note=35 velocity=106 time=0.002941175
EXTRACT: note_on channel=1 note=59 velocity=83 time=0
EXTRACT: note_on channel=2 note=83 velocity=58 time=0
EXTRACT: note_on channel=2 note=82 velocity=0 time=0.002941175
EXTRACT: note_on channel=5 note=47 velocity=125 time=0
EXTRACT: note_on channel=7 note=82 velocity=0 time=0
EXTRACT: note_on channel=1 note=63 velocity=83 time=0.002941175
EXTRACT: note_on channel=1 note=47 velocity=73 time=0.00588235
EXTRACT: note_on channel=9 note=53 velocity=0 time=0.085294075
EXTRACT: note_on channel=9 note=51 velocity=0 time=0
EXTRACT: note_on channel=9 note=35 velocity=0 time=0.032352925
EXTRACT: note_on channel=9 note=36 velocity=0 time=0
EXTRACT: note_on channel=9 note=41 velocity=43 time=0.032352925
EXTRACT: note_on channel=9 note=41 velocity=0 time=0.13235287499999998
EXTRACT: note_on channel=9 note=51 velocity=85 time=0.055882325
EXTRACT: note_on channel=9 note=51 velocity=0 time=0.102941125
EXTRACT: note_on channel=0 note=35 velocity=0 time=0.02941175
EXTRACT: note_on channel=1 note=54 velocity=0 time=0.008823524999999999
EXTRACT: note_on channel=1 note=66 velocity=0 time=0.002941175
EXTRACT: note_on channel=1 note=59 velocity=0 time=0.008823524999999999
EXTRACT: note_on channel=1 note=63 velocity=0 time=0.00588235
EXTRACT: note_on channel=1 note=47 velocity=0 time=0.00588235
EXTRACT: note_on channel=1 note=63 velocity=69 time=0.002941175
EXTRACT: note_on channel=0 note=34 velocity=95 time=0.00588235
EXTRACT: note_on channel=1 note=59 velocity=69 time=0
EXTRACT: note_on channel=1 note=47 velocity=60 time=0.002941175
EXTRACT: note_on channel=9 note=38 velocity=81 time=0
EXTRACT: note_on channel=9 note=40 velocity=81 time=0
EXTRACT: note_on channel=1 note=54 velocity=69 time=0.0117647
EXTRACT: note_on channel=1 note=66 velocity=69 time=0
EXTRACT: note_on channel=9 note=40 velocity=0 time=0.12058817499999999
EXTRACT: note_on channel=9 note=38 velocity=0 time=0
EXTRACT: note_on channel=1 note=59 velocity=0 time=0.0117647
EXTRACT: note_on channel=1 note=47 velocity=0 time=0.002941175
EXTRACT: note_on channel=1 note=63 velocity=0 time=0.002941175
EXTRACT: note_on channel=1 note=59 velocity=80 time=0
EXTRACT: note_on channel=1 note=63 velocity=80 time=0.00588235
EXTRACT: note_on channel=1 note=47 velocity=69 time=0
EXTRACT: note_on channel=0 note=34 velocity=0 time=0.00588235
EXTRACT: note_on channel=1 note=66 velocity=0 time=0
EXTRACT: note_on channel=1 note=66 velocity=80 time=0.002941175
EXTRACT: note_on channel=9 note=36 velocity=90 time=0
EXTRACT: note_on channel=9 note=35 velocity=90 time=0
EXTRACT: note_on channel=1 note=54 velocity=0 time=0.00588235
EXTRACT: note_on channel=0 note=35 velocity=103 time=0.00588235
EXTRACT: note_on channel=9 note=51 velocity=88 time=0
EXTRACT: note_on channel=1 note=54 velocity=80 time=0.002941175
EXTRACT: note_on channel=9 note=51 velocity=0 time=0.0941176
EXTRACT: note_on channel=9 note=35 velocity=0 time=0.0235294
EXTRACT: note_on channel=9 note=36 velocity=0 time=0
EXTRACT: note_on channel=9 note=38 velocity=89 time=0.23235282499999999
EXTRACT: note_on channel=9 note=40 velocity=89 time=0
EXTRACT: note_on channel=9 note=41 velocity=57 time=0
EXTRACT: note_on channel=9 note=51 velocity=95 time=0
EXTRACT: note_on channel=9 note=53 velocity=63 time=0
EXTRACT: note_on channel=9 note=53 velocity=0 time=0.11176465
EXTRACT: note_on channel=9 note=51 velocity=0 time=0
EXTRACT: note_on channel=9 note=38 velocity=0 time=0.020588224999999998
EXTRACT: note_on channel=9 note=40 velocity=0 time=0
EXTRACT: note_on channel=9 note=41 velocity=0 time=0
EXTRACT: note_on channel=1 note=63 velocity=0 time=0.0235294
EXTRACT: note_on channel=1 note=59 velocity=0 time=0.002941175
EXTRACT: note_on channel=1 note=66 velocity=0 time=0.00588235
EXTRACT: note_on channel=1 note=54 velocity=0 time=0.002941175
EXTRACT: note_on channel=1 note=59 velocity=66 time=0
EXTRACT: note_on channel=1 note=63 velocity=66 time=0
EXTRACT: note_on channel=1 note=47 velocity=0 time=0.002941175
EXTRACT: note_on channel=1 note=54 velocity=66 time=0.00588235
EXTRACT: note_on channel=1 note=66 velocity=66 time=0
EXTRACT: note_on channel=1 note=47 velocity=57 time=0.0117647
EXTRACT: note_on channel=0 note=35 velocity=0 time=0.10882347499999999
EXTRACT: note_on channel=7 note=82 velocity=64 time=0.00588235
EXTRACT: note_on channel=1 note=59 velocity=0 time=0.017647049999999997
EXTRACT: note_on channel=1 note=47 velocity=0 time=0.002941175
EXTRACT: note_on channel=1 note=59 velocity=76 time=0
EXTRACT: note_on channel=1 note=47 velocity=67 time=0
EXTRACT: note_on channel=1 note=63 velocity=0 time=0.008823524999999999
EXTRACT: note_on channel=1 note=66 velocity=0 time=0.00588235
EXTRACT: note_on channel=1 note=54 velocity=0 time=0.002941175
EXTRACT: note_on channel=1 note=66 velocity=76 time=0
EXTRACT: note_on channel=1 note=63 velocity=76 time=0
EXTRACT: note_on channel=1 note=54 velocity=76 time=0.00588235
EXTRACT: note_on channel=9 note=51 velocity=85 time=0.00588235
EXTRACT: note_on channel=0 note=35 velocity=110 time=0.002941175
EXTRACT: note_on channel=7 note=83 velocity=0 time=0.02941175
EXTRACT: note_on channel=9 note=51 velocity=0 time=0.067647025
EXTRACT: note_on channel=7 note=82 velocity=0 time=0.020588224999999998
EXTRACT: note_on channel=0 note=35 velocity=0 time=0.0117647
EXTRACT: note_on channel=5 note=63 velocity=0 time=0
EXTRACT: note_on channel=7 note=80 velocity=64 time=0
EXTRACT: note_on channel=5 note=59 velocity=0 time=0.017647049999999997
EXTRACT: note_on channel=5 note=47 velocity=0 time=0.017647049999999997
EXTRACT: note_on channel=5 note=61 velocity=80 time=0.002941175
EXTRACT: note_on channel=0 note=35 velocity=110 time=0.002941175
EXTRACT: note_on channel=5 note=58 velocity=80 time=0.05294115
EXTRACT: note_on channel=7 note=80 velocity=0 time=0.026470575
EXTRACT: note_on channel=5 note=42 velocity=80 time=0.026470575
EXTRACT: note_on channel=1 note=59 velocity=0 time=0.032352925
EXTRACT: note_on channel=1 note=47 velocity=0 time=0
EXTRACT: note_on channel=0 note=35 velocity=0 time=0.00588235
EXTRACT: note_on channel=7 note=82 velocity=64 time=0.00588235
EXTRACT: note_on channel=1 note=63 velocity=0 time=0.00588235
EXTRACT: note_on channel=1 note=66 velocity=0 time=0
EXTRACT: note_on channel=5 note=58 velocity=0 time=0.002941175
EXTRACT: note_on channel=1 note=54 velocity=0 time=0.002941175
EXTRACT: note_on channel=1 note=66 velocity=87 time=0
EXTRACT: note_on channel=1 note=42 velocity=76 time=0.002941175
EXTRACT: note_on channel=5 note=61 velocity=0 time=0.002941175
EXTRACT: note_on channel=5 note=58 velocity=84 time=0
EXTRACT: note_on channel=0 note=30 velocity=106 time=0.00588235
EXTRACT: note_on channel=1 note=61 velocity=87 time=0
EXTRACT: note_on channel=2 note=82 velocity=58 time=0
EXTRACT: note_on channel=5 note=61 velocity=80 time=0
EXTRACT: note_on channel=2 note=73 velocity=58 time=0.00588235
EXTRACT: note_on channel=9 note=36 velocity=90 time=0
EXTRACT: note_on channel=9 note=51 velocity=82 time=0
EXTRACT: note_on channel=9 note=35 velocity=90 time=0
EXTRACT: note_on channel=1 note=54 velocity=87 time=0.002941175
EXTRACT: note_on channel=5 note=42 velocity=0 time=0.002941175
EXTRACT: note_on channel=1 note=49 velocity=76 time=0.002941175
EXTRACT: note_on channel=5 note=42 velocity=125 time=0.002941175
EXTRACT: note_on channel=2 note=83 velocity=0 time=0.026470575
EXTRACT: note_on channel=2 note=75 velocity=0 time=0.038235275
EXTRACT: note_on channel=7 note=82 velocity=0 time=0.008823524999999999
EXTRACT: note_on channel=9 note=35 velocity=0 time=0.0470588
EXTRACT: note_on channel=9 note=51 velocity=0 time=0
EXTRACT: note_on channel=9 note=36 velocity=0 time=0
EXTRACT: note_on channel=7 note=82 velocity=64 time=0.19411755
EXTRACT: note_on channel=9 note=51 velocity=85 time=0.026470575
EXTRACT: note_on channel=9 note=51 velocity=0 time=0.06470585
EXTRACT: note_on channel=0 note=30 velocity=0 time=0.06470585
EXTRACT: note_on channel=1 note=66 velocity=0 time=0.014705875
EXTRACT: note_on channel=1 note=42 velocity=0 time=0.002941175
EXTRACT: note_on channel=1 note=61 velocity=0 time=0.008823524999999999
EXTRACT: note_on channel=1 note=61 velocity=72 time=0.00588235
EXTRACT: note_on channel=1 note=54 velocity=0 time=0.002941175
EXTRACT: note_on channel=1 note=66 velocity=72 time=0
EXTRACT: note_on channel=1 note=42 velocity=63 time=0.002941175
EXTRACT: note_on channel=1 note=49 velocity=0 time=0.002941175
EXTRACT: note_on channel=0 note=30 velocity=95 time=0.002941175
EXTRACT: note_on channel=9 note=35 velocity=90 time=0.002941175
EXTRACT: note_on channel=9 note=36 velocity=90 time=0
EXTRACT: note_on channel=1 note=49 velocity=63 time=0.008823524999999999
EXTRACT: note_on channel=1 note=54 velocity=72 time=0
EXTRACT: note_on channel=9 note=36 velocity=0 time=0.12352935
EXTRACT: note_on channel=9 note=35 velocity=0 time=0
EXTRACT: note_on channel=7 note=82 velocity=0 time=0.00588235
EXTRACT: note_on channel=1 note=54 velocity=0 time=0.0117647
EXTRACT: note_on channel=1 note=61 velocity=0 time=0.002941175
EXTRACT: note_on channel=0 note=30 velocity=0 time=0.002941175
EXTRACT: note_on channel=1 note=54 velocity=84 time=0
EXTRACT: note_on channel=1 note=61 velocity=84 time=0
EXTRACT: note_on channel=1 note=66 velocity=0 time=0
EXTRACT: note_on channel=1 note=42 velocity=0 time=0.002941175
EXTRACT: note_on channel=9 note=38 velocity=89 time=0.00588235
EXTRACT: note_on channel=9 note=40 velocity=89 time=0
EXTRACT: note_on channel=1 note=49 velocity=0 time=0.002941175
EXTRACT: note_on channel=1 note=42 velocity=73 time=0
EXTRACT: note_on channel=0 note=30 velocity=95 time=0.002941175
EXTRACT: note_on channel=1 note=49 velocity=73 time=0
EXTRACT: note_on channel=7 note=82 velocity=64 time=0.002941175
EXTRACT: note_on channel=1 note=66 velocity=84 time=0.002941175
EXTRACT: note_on channel=9 note=35 velocity=90 time=0
EXTRACT: note_on channel=9 note=36 velocity=90 time=0
EXTRACT: note_on channel=9 note=41 velocity=51 time=0
EXTRACT: note_on channel=9 note=51 velocity=95 time=0
EXTRACT: note_on channel=9 note=51 velocity=0 time=0.0941176
EXTRACT: note_on channel=9 note=38 velocity=0 time=0.026470575
EXTRACT: note_on channel=9 note=40 velocity=0 time=0
EXTRACT: note_on channel=9 note=36 velocity=0 time=0.0117647
EXTRACT: note_on channel=9 note=41 velocity=0 time=0
EXTRACT: note_on channel=9 note=35 velocity=0 time=0
EXTRACT: note_on channel=5 note=61 velocity=0 time=0.008823524999999999
EXTRACT: note_on channel=5 note=58 velocity=0 time=0.00588235
EXTRACT: note_on channel=5 note=42 velocity=0 time=0.0117647
EXTRACT: note_on channel=5 note=63 velocity=80 time=0.0117647
EXTRACT: note_on channel=5 note=59 velocity=80 time=0.035294099999999995
EXTRACT: note_on channel=7 note=82 velocity=0 time=0.0235294
EXTRACT: note_on channel=5 note=44 velocity=80 time=0.017647049999999997
EXTRACT: note_on channel=7 note=83 velocity=64 time=0.032352925
EXTRACT: note_on channel=0 note=30 velocity=0 time=0.044117625
EXTRACT: note_on channel=1 note=54 velocity=0 time=0.0117647
EXTRACT: note_on channel=1 note=61 velocity=0 time=0
EXTRACT: note_on channel=5 note=44 velocity=0 time=0
EXTRACT: note_on channel=5 note=59 velocity=0 time=0
EXTRACT: note_on channel=2 note=82 velocity=0 time=0.00588235
EXTRACT: note_on channel=5 note=63 velocity=0 time=0
EXTRACT: note_on channel=1 note=66 velocity=0 time=0.002941175
EXTRACT: note_on channel=1 note=51 velocity=83 time=0
EXTRACT: note_on channel=5 note=59 velocity=84 time=0
EXTRACT: note_on channel=1 note=42 velocity=0 time=0.002941175
EXTRACT: note_on channel=1 note=66 velocity=83 time=0
EXTRACT: note_on channel=2 note=80 velocity=58 time=0
EXTRACT: note_on channel=2 note=71 velocity=58 time=0.002941175
EXTRACT: note_on channel=0 note=32 velocity=106 time=0.002941175
EXTRACT: note_on channel=1 note=49 velocity=0 time=0
EXTRACT: note_on channel=5 note=63 velocity=80 time=0
EXTRACT: note_on channel=9 note=36 velocity=97 time=0
EXTRACT: note_on channel=9 note=35 velocity=97 time=0
EXTRACT: note_on channel=9 note=51 velocity=85 time=0
EXTRACT: note_on channel=9 note=53 velocity=55 time=0
EXTRACT: note_on channel=1 note=59 velocity=83 time=0.002941175
EXTRACT: note_on channel=5 note=44 velocity=125 time=0.002941175
EXTRACT: note_on channel=1 note=63 velocity=83 time=0.002941175
EXTRACT: note_on channel=2 note=73 velocity=0 time=0
EXTRACT: note_on channel=1 note=44 velocity=73 time=0.00588235
EXTRACT: note_on channel=9 note=53 velocity=0 time=0.085294075
EXTRACT: note_on channel=9 note=51 velocity=0 time=0
EXTRACT: note_on channel=9 note=35 velocity=0 time=0.032352925
EXTRACT: note_on channel=9 note=36 velocity=0 time=0
EXTRACT: note_on channel=9 note=41 velocity=43 time=0.032352925
EXTRACT: note_on channel=9 note=41 velocity=0 time=0.13235287499999998
EXTRACT: note_on channel=9 note=51 velocity=85 time=0.055882325
EXTRACT: note_on channel=9 note=51 velocity=0 time=0.102941125
EXTRACT: note_on channel=0 note=32 velocity=0 time=0.02941175
EXTRACT: note_on channel=1 note=51 velocity=0 time=0.008823524999999999
EXTRACT: note_on channel=1 note=66 velocity=0 time=0.002941175
EXTRACT: note_on channel=1 note=59 velocity=0 time=0.008823524999999999
EXTRACT: note_on channel=1 note=63 velocity=0 time=0.00588235
EXTRACT: note_on channel=1 note=44 velocity=0 time=0.00588235
EXTRACT: note_on channel=1 note=63 velocity=69 time=0.002941175
EXTRACT: note_on channel=0 note=30 velocity=95 time=0.00588235
EXTRACT: note_on channel=1 note=59 velocity=69 time=0
EXTRACT: note_on channel=1 note=44 velocity=60 time=0.002941175
EXTRACT: note_on channel=9 note=38 velocity=81 time=0
EXTRACT: note_on channel=9 note=40 velocity=81 time=0
EXTRACT: note_on channel=1 note=51 velocity=69 time=0.0117647
EXTRACT: note_on channel=1 note=66 velocity=69 time=0
EXTRACT: note_on channel=9 note=40 velocity=0 time=0.12058817499999999
EXTRACT: note_on channel=9 note=38 velocity=0 time=0
EXTRACT: note_on channel=1 note=59 velocity=0 time=0.008823524999999999
EXTRACT: note_on channel=1 note=44 velocity=0 time=0.002941175
EXTRACT: note_on channel=1 note=63 velocity=0 time=0.00588235
EXTRACT: note_on channel=1 note=59 velocity=80 time=0
EXTRACT: note_on channel=1 note=63 velocity=80 time=0.00588235
EXTRACT: note_on channel=1 note=44 velocity=69 time=0
EXTRACT: note_on channel=0 note=30 velocity=0 time=0.002941175
EXTRACT: note_on channel=1 note=66 velocity=0 time=0
EXTRACT: note_on channel=1 note=66 velocity=80 time=0.00588235
EXTRACT: note_on channel=9 note=36 velocity=90 time=0
EXTRACT: note_on channel=9 note=35 velocity=90 time=0
EXTRACT: note_on channel=1 note=51 velocity=0 time=0.00588235
EXTRACT: note_on channel=0 note=32 velocity=103 time=0.002941175
EXTRACT: note_on channel=7 note=83 velocity=0 time=0
EXTRACT: note_on channel=9 note=51 velocity=88 time=0.002941175
EXTRACT: note_on channel=1 note=51 velocity=80 time=0.002941175
EXTRACT: note_on channel=9 note=51 velocity=0 time=0.0941176
EXTRACT: note_on channel=9 note=35 velocity=0 time=0.0235294
EXTRACT: note_on channel=9 note=36 velocity=0 time=0
EXTRACT: note_on channel=9 note=38 velocity=89 time=0.23235282499999999
EXTRACT: note_on channel=9 note=40 velocity=89 time=0
EXTRACT: note_on channel=9 note=41 velocity=57 time=0
EXTRACT: note_on channel=9 note=51 velocity=95 time=0
EXTRACT: note_on channel=9 note=53 velocity=63 time=0
EXTRACT: note_on channel=9 note=53 velocity=0 time=0.11176465
EXTRACT: note_on channel=9 note=51 velocity=0 time=0
EXTRACT: note_on channel=9 note=38 velocity=0 time=0.020588224999999998
EXTRACT: note_on channel=9 note=40 velocity=0 time=0
EXTRACT: note_on channel=9 note=41 velocity=0 time=0
EXTRACT: note_on channel=1 note=63 velocity=0 time=0.02941175
EXTRACT: note_on channel=1 note=59 velocity=0 time=0
EXTRACT: note_on channel=1 note=59 velocity=66 time=0.00588235
EXTRACT: note_on channel=1 note=63 velocity=66 time=0
EXTRACT: note_on channel=1 note=66 velocity=0 time=0
EXTRACT: note_on channel=1 note=44 velocity=0 time=0.002941175
EXTRACT: note_on channel=1 note=51 velocity=0 time=0
EXTRACT: note_on channel=1 note=51 velocity=66 time=0.00588235
EXTRACT: note_on channel=1 note=66 velocity=66 time=0
EXTRACT: note_on channel=1 note=44 velocity=57 time=0.0117647
EXTRACT: note_on channel=0 note=32 velocity=0 time=0.1058823
EXTRACT: note_on channel=1 note=59 velocity=0 time=0.026470575
EXTRACT: note_on channel=1 note=44 velocity=0 time=0
EXTRACT: note_on channel=1 note=59 velocity=76 time=0.002941175
EXTRACT: note_on channel=1 note=44 velocity=67 time=0
EXTRACT: note_on channel=1 note=63 velocity=0 time=0.008823524999999999
EXTRACT: note_on channel=1 note=66 velocity=0 time=0.002941175
EXTRACT: note_on channel=1 note=51 velocity=0 time=0.00588235
EXTRACT: note_on channel=1 note=66 velocity=76 time=0
EXTRACT: note_on channel=1 note=63 velocity=76 time=0
EXTRACT: note_on channel=1 note=51 velocity=76 time=0.00588235
EXTRACT: note_on channel=0 note=32 velocity=110 time=0.00588235
EXTRACT: note_on channel=9 note=51 velocity=85 time=0
EXTRACT: note_on channel=9 note=51 velocity=0 time=0.09999994999999999
EXTRACT: note_on channel=0 note=32 velocity=0 time=0.032352925
EXTRACT: note_on channel=5 note=44 velocity=0 time=0.017647049999999997
EXTRACT: note_on channel=5 note=59 velocity=0 time=0.002941175
EXTRACT: note_on channel=5 note=63 velocity=0 time=0.0117647
EXTRACT: note_on channel=5 note=64 velocity=80 time=0.00588235
EXTRACT: note_on channel=0 note=32 velocity=110 time=0.00588235
EXTRACT: note_on channel=5 note=61 velocity=80 time=0.049999974999999995
EXTRACT: note_on channel=2 note=78 velocity=0 time=0.0235294
EXTRACT: note_on channel=5 note=45 velocity=80 time=0.02941175
EXTRACT: note_on channel=2 note=80 velocity=0 time=0.014705875
EXTRACT: note_on channel=1 note=59 velocity=0 time=0.017647049999999997
EXTRACT: note_on channel=1 note=44 velocity=0 time=0
EXTRACT: note_on channel=2 note=71 velocity=0 time=0
EXTRACT: note_on channel=1 note=63 velocity=0 time=0.017647049999999997
EXTRACT: note_on channel=1 note=66 velocity=0 time=0
EXTRACT: note_on channel=5 note=61 velocity=0 time=0.002941175
EXTRACT: note_on channel=1 note=51 velocity=0 time=0.002941175
EXTRACT: note_on channel=1 note=64 velocity=87 time=0
EXTRACT: note_on channel=0 note=32 velocity=0 time=0.002941175
EXTRACT: note_on channel=1 note=45 velocity=76 time=0
EXTRACT: note_on channel=5 note=64 velocity=0 time=0.002941175
EXTRACT: note_on channel=5 note=61 velocity=84 time=0
EXTRACT: note_on channel=1 note=61 velocity=87 time=0.00588235
EXTRACT: note_on channel=2 note=76 velocity=58 time=0
EXTRACT: note_on channel=5 note=64 velocity=80 time=0
EXTRACT: note_on channel=0 note=33 velocity=104 time=0.002941175
EXTRACT: note_on channel=7 note=83 velocity=64 time=0
EXTRACT: note_on channel=2 note=73 velocity=58 time=0.002941175
EXTRACT: note_on channel=2 note=81 velocity=58 time=0
EXTRACT: note_on channel=9 note=36 velocity=90 time=0
EXTRACT: note_on channel=9 note=51 velocity=82 time=0
EXTRACT: note_on channel=9 note=35 velocity=90 time=0
EXTRACT: note_on channel=1 note=57 velocity=87 time=0.002941175
EXTRACT: note_on channel=5 note=45 velocity=0 time=0.002941175
EXTRACT: note_on channel=1 note=52 velocity=76 time=0.002941175
EXTRACT: note_on channel=5 note=45 velocity=125 time=0.002941175
EXTRACT: note_on channel=7 note=85 velocity=64 time=0
EXTRACT: note_on channel=7 note=83 velocity=0 time=0.09117642499999999
EXTRACT: note_on channel=9 note=35 velocity=0 time=0.02941175
EXTRACT: note_on channel=9 note=51 velocity=0 time=0
EXTRACT: note_on channel=9 note=36 velocity=0 time=0
EXTRACT: note_on channel=0 note=32 velocity=104 time=0.220588125
EXTRACT: note_on channel=7 note=83 velocity=64 time=0
EXTRACT: note_on channel=9 note=51 velocity=85 time=0
EXTRACT: note_on channel=9 note=53 velocity=59 time=0.017647049999999997
EXTRACT: note_on channel=0 note=33 velocity=0 time=0.008823524999999999
EXTRACT: note_on channel=7 note=85 velocity=0 time=0
EXTRACT: note_on channel=9 note=51 velocity=0 time=0.038235275
EXTRACT: note_on channel=1 note=64 velocity=0 time=0.067647025
EXTRACT: note_on channel=1 note=45 velocity=0 time=0.00588235
EXTRACT: note_on channel=1 note=61 velocity=0 time=0.008823524999999999
EXTRACT: note_on channel=9 note=53 velocity=0 time=0.002941175
EXTRACT: note_on channel=1 note=57 velocity=0 time=0.00588235
EXTRACT: note_on channel=1 note=52 velocity=0 time=0.002941175
EXTRACT: note_on channel=1 note=61 velocity=72 time=0.002941175
EXTRACT: note_on channel=1 note=64 velocity=72 time=0.002941175
EXTRACT: note_on channel=1 note=45 velocity=63 time=0.002941175
EXTRACT: note_on channel=9 note=35 velocity=90 time=0.008823524999999999
EXTRACT: note_on channel=9 note=36 velocity=90 time=0
EXTRACT: note_on channel=1 note=52 velocity=63 time=0.008823524999999999
EXTRACT: note_on channel=1 note=57 velocity=72 time=0
EXTRACT: note_on channel=9 note=36 velocity=0 time=0.12352935
EXTRACT: note_on channel=9 note=35 velocity=0 time=0
EXTRACT: note_on channel=1 note=57 velocity=0 time=0.014705875
EXTRACT: note_on channel=1 note=61 velocity=0 time=0.00588235
EXTRACT: note_on channel=1 note=57 velocity=84 time=0.002941175
EXTRACT: note_on channel=1 note=61 velocity=84 time=0
EXTRACT: note_on channel=1 note=64 velocity=0 time=0
EXTRACT: note_on channel=1 note=45 velocity=0 time=0.002941175
EXTRACT: note_on channel=1 note=52 velocity=0 time=0.002941175
EXTRACT: note_on channel=7 note=81 velocity=64 time=0
EXTRACT: note_on channel=9 note=38 velocity=89 time=0.002941175
EXTRACT: note_on channel=9 note=40 velocity=89 time=0
EXTRACT: note_on channel=1 note=45 velocity=73 time=0.002941175
EXTRACT: note_on channel=1 note=52 velocity=73 time=0.002941175
EXTRACT: note_on channel=0 note=30 velocity=104 time=0.002941175
EXTRACT: note_on channel=1 note=64 velocity=84 time=0.002941175
EXTRACT: note_on channel=9 note=35 velocity=90 time=0
EXTRACT: note_on channel=9 note=36 velocity=90 time=0
EXTRACT: note_on channel=9 note=41 velocity=51 time=0
EXTRACT: note_on channel=9 note=51 velocity=95 time=0
EXTRACT: note_on channel=0 note=32 velocity=0 time=0.014705875
EXTRACT: note_on channel=7 note=83 velocity=0 time=0.041176449999999996
EXTRACT: note_on channel=9 note=51 velocity=0 time=0.038235275
EXTRACT: note_on channel=9 note=38 velocity=0 time=0.026470575
EXTRACT: note_on channel=9 note=40 velocity=0 time=0
EXTRACT: note_on channel=9 note=36 velocity=0 time=0.0117647
EXTRACT: note_on channel=9 note=41 velocity=0 time=0
EXTRACT: note_on channel=9 note=35 velocity=0 time=0
EXTRACT: note_on channel=5 note=64 velocity=0 time=0.008823524999999999
EXTRACT: note_on channel=5 note=61 velocity=0 time=0.02941175
EXTRACT: note_on channel=5 note=64 velocity=80 time=0
EXTRACT: note_on channel=5 note=45 velocity=0 time=0.02941175
EXTRACT: note_on channel=5 note=56 velocity=80 time=0.00588235
EXTRACT: note_on channel=5 note=40 velocity=80 time=0.041176449999999996
EXTRACT: note_on channel=1 note=61 velocity=0 time=0.07647055
EXTRACT: note_on channel=1 note=57 velocity=0 time=0
EXTRACT: note_on channel=1 note=45 velocity=0 time=0.0117647
EXTRACT: note_on channel=5 note=40 velocity=0 time=0
EXTRACT: note_on channel=5 note=56 velocity=0 time=0
EXTRACT: note_on channel=0 note=30 velocity=0 time=0.00588235
EXTRACT: note_on channel=1 note=52 velocity=0 time=0
EXTRACT: note_on channel=5 note=64 velocity=0 time=0
EXTRACT: note_on channel=1 note=64 velocity=0 time=0.002941175
EXTRACT: note_on channel=1 note=47 velocity=86 time=0
EXTRACT: note_on channel=5 note=56 velocity=84 time=0
EXTRACT: note_on channel=1 note=64 velocity=86 time=0.002941175
EXTRACT: note_on channel=2 note=80 velocity=58 time=0
EXTRACT: note_on channel=7 note=81 velocity=0 time=0
EXTRACT: note_on channel=2 note=81 velocity=0 time=0.002941175
EXTRACT: note_on channel=2 note=71 velocity=58 time=0
EXTRACT: note_on channel=0 note=28 velocity=104 time=0.002941175
EXTRACT: note_on channel=5 note=64 velocity=80 time=0
EXTRACT: note_on channel=9 note=36 velocity=97 time=0
EXTRACT: note_on channel=9 note=35 velocity=97 time=0
EXTRACT: note_on channel=9 note=51 velocity=85 time=0
EXTRACT: note_on channel=9 note=53 velocity=55 time=0
EXTRACT: note_on channel=1 note=52 velocity=86 time=0.002941175
EXTRACT: note_on channel=5 note=40 velocity=125 time=0.002941175
EXTRACT: note_on channel=1 note=59 velocity=86 time=0.002941175
EXTRACT: note_on channel=1 note=40 velocity=76 time=0.00588235
EXTRACT: note_on channel=7 note=83 velocity=64 time=0
EXTRACT: note_on channel=2 note=73 velocity=0 time=0.05294115
EXTRACT: note_on channel=9 note=53 velocity=0 time=0.032352925
EXTRACT: note_on channel=9 note=51 velocity=0 time=0
EXTRACT: note_on channel=9 note=35 velocity=0 time=0.032352925
EXTRACT: note_on channel=9 note=36 velocity=0 time=0
EXTRACT: note_on channel=9 note=41 velocity=43 time=0.032352925
EXTRACT: note_on channel=9 note=41 velocity=0 time=0.13235287499999998
EXTRACT: note_on channel=9 note=51 velocity=85 time=0.055882325
EXTRACT: note_on channel=9 note=51 velocity=0 time=0.102941125
EXTRACT: note_on channel=1 note=47 velocity=0 time=0.038235275
EXTRACT: note_on channel=1 note=64 velocity=0 time=0.002941175
EXTRACT: note_on channel=1 note=52 velocity=0 time=0.008823524999999999
EXTRACT: note_on channel=1 note=59 velocity=0 time=0.00588235
EXTRACT: note_on channel=1 note=40 velocity=0 time=0.00588235
EXTRACT: note_on channel=1 note=59 velocity=77 time=0.002941175
EXTRACT: note_on channel=1 note=52 velocity=77 time=0.00588235
EXTRACT: note_on channel=1 note=40 velocity=67 time=0.002941175
EXTRACT: note_on channel=9 note=38 velocity=81 time=0
EXTRACT: note_on channel=9 note=40 velocity=81 time=0
EXTRACT: note_on channel=1 note=47 velocity=77 time=0.0117647
EXTRACT: note_on channel=1 note=64 velocity=77 time=0
EXTRACT: note_on channel=9 note=40 velocity=0 time=0.12058817499999999
EXTRACT: note_on channel=9 note=38 velocity=0 time=0
EXTRACT: note_on channel=1 note=52 velocity=0 time=0.008823524999999999
EXTRACT: note_on channel=1 note=40 velocity=0 time=0.002941175
EXTRACT: note_on channel=1 note=59 velocity=0 time=0.00588235
EXTRACT: note_on channel=1 note=52 velocity=78 time=0
EXTRACT: note_on channel=1 note=59 velocity=78 time=0.00588235
EXTRACT: note_on channel=1 note=40 velocity=67 time=0
EXTRACT: note_on channel=1 note=64 velocity=0 time=0.002941175
EXTRACT: note_on channel=1 note=64 velocity=78 time=0.00588235
EXTRACT: note_on channel=9 note=36 velocity=90 time=0
EXTRACT: note_on channel=9 note=35 velocity=90 time=0
EXTRACT: note_on channel=1 note=47 velocity=0 time=0.00588235
EXTRACT: note_on channel=9 note=51 velocity=88 time=0.00588235
EXTRACT: note_on channel=1 note=47 velocity=78 time=0.002941175
EXTRACT: note_on channel=9 note=51 velocity=0 time=0.0941176
EXTRACT: note_on channel=9 note=35 velocity=0 time=0.0235294
EXTRACT: note_on channel=9 note=36 velocity=0 time=0
EXTRACT: note_on channel=0 note=39 velocity=102 time=0.22941165
EXTRACT: note_on channel=9 note=38 velocity=89 time=0.002941175
EXTRACT: note_on channel=9 note=40 velocity=89 time=0
EXTRACT: note_on channel=9 note=41 velocity=57 time=0
EXTRACT: note_on channel=9 note=51 velocity=95 time=0
EXTRACT: note_on channel=9 note=53 velocity=63 time=0
EXTRACT: note_on channel=0 note=28 velocity=0 time=0.026470575
EXTRACT: pitchwheel channel=0 pitch=381 time=0.035294099999999995
EXTRACT: pitchwheel channel=0 pitch=763 time=0.014705875
EXTRACT: pitchwheel channel=0 pitch=1528 time=0.017647049999999997
EXTRACT: pitchwheel channel=0 pitch=2293 time=0.014705875
EXTRACT: note_on channel=9 note=53 velocity=0 time=0.002941175
EXTRACT: note_on channel=9 note=51 velocity=0 time=0
EXTRACT: pitchwheel channel=0 pitch=2676 time=0.0117647
EXTRACT: note_on channel=9 note=38 velocity=0 time=0.008823524999999999
EXTRACT: note_on channel=9 note=40 velocity=0 time=0
EXTRACT: note_on channel=9 note=41 velocity=0 time=0
EXTRACT: pitchwheel channel=0 pitch=3058 time=0.00588235
EXTRACT: note_on channel=7 note=80 velocity=64 time=0.014705875
EXTRACT: note_on channel=1 note=59 velocity=0 time=0.00588235
EXTRACT: note_on channel=1 note=52 velocity=0 time=0
EXTRACT: note_on channel=1 note=64 velocity=0 time=0.008823524999999999
EXTRACT: note_on channel=1 note=52 velocity=59 time=0
EXTRACT: note_on channel=1 note=59 velocity=59 time=0
EXTRACT: note_on channel=1 note=40 velocity=0 time=0
EXTRACT: note_on channel=1 note=47 velocity=0 time=0.002941175
EXTRACT: note_on channel=7 note=83 velocity=0 time=0
EXTRACT: note_on channel=1 note=47 velocity=59 time=0.00588235
EXTRACT: note_on channel=1 note=64 velocity=59 time=0
EXTRACT: note_on channel=1 note=40 velocity=52 time=0.0117647
EXTRACT: pitchwheel channel=0 pitch=3441 time=0.014705875
EXTRACT: note_on channel=1 note=47 velocity=0 time=0.0588235
EXTRACT: pitchwheel channel=0 pitch=3826 time=0.002941175
EXTRACT: note_on channel=1 note=52 velocity=0 time=0.0117647
EXTRACT: note_on channel=1 note=40 velocity=0 time=0.002941175
EXTRACT: note_on channel=7 note=80 velocity=0 time=0.002941175
EXTRACT: note_on channel=1 note=59 velocity=0 time=0.00588235
EXTRACT: note_on channel=1 note=64 velocity=0 time=0.00588235
EXTRACT: note_on channel=1 note=52 velocity=74 time=0.02941175
EXTRACT: note_on channel=1 note=40 velocity=65 time=0
EXTRACT: note_on channel=1 note=64 velocity=74 time=0.017647049999999997
EXTRACT: note_on channel=1 note=59 velocity=74 time=0
EXTRACT: note_on channel=7 note=83 velocity=64 time=0
EXTRACT: note_on channel=1 note=47 velocity=74 time=0.00588235
EXTRACT: note_on channel=9 note=51 velocity=85 time=0.00588235
EXTRACT: note_on channel=9 note=51 velocity=0 time=0.09999994999999999
EXTRACT: pitchwheel channel=0 pitch=2948 time=0.0470588
EXTRACT: note_on channel=5 note=40 velocity=0 time=0.002941175
EXTRACT: note_on channel=5 note=56 velocity=0 time=0.002941175
EXTRACT: pitchwheel channel=0 pitch=2620 time=0.008823524999999999
EXTRACT: note_on channel=5 note=64 velocity=0 time=0.002941175
EXTRACT: note_on channel=5 note=61 velocity=80 time=0.00588235
EXTRACT: pitchwheel channel=0 pitch=1965 time=0.00588235
EXTRACT: pitchwheel channel=0 pitch=1309 time=0.0235294
EXTRACT: pitchwheel channel=0 pitch=982 time=0.008823524999999999
EXTRACT: pitchwheel channel=0 pitch=654 time=0.014705875
EXTRACT: note_on channel=5 note=58 velocity=80 time=0.002941175
EXTRACT: pitchwheel channel=0 pitch=327 time=0.0117647
EXTRACT: note_on channel=7 note=82 velocity=64 time=0.00588235
EXTRACT: pitchwheel channel=0 pitch=0 time=0.0117647
EXTRACT: note_on channel=5 note=42 velocity=80 time=0.0235294
EXTRACT: note_on channel=7 note=83 velocity=0 time=0.002941175
EXTRACT: note_on channel=1 note=40 velocity=0 time=0.014705875
EXTRACT: note_on channel=1 note=52 velocity=0 time=0
EXTRACT: note_on channel=1 note=59 velocity=0 time=0.017647049999999997
EXTRACT: note_on channel=1 note=64 velocity=0 time=0
EXTRACT: note_on channel=1 note=47 velocity=0 time=0.00588235
EXTRACT: pitchwheel channel=0 pitch=0 time=0.002941175
EXTRACT: note_on channel=2 note=80 velocity=0 time=0
EXTRACT: note_on channel=5 note=58 velocity=0 time=0.008823524999999999
EXTRACT: note_on channel=1 note=66 velocity=87 time=0.002941175
EXTRACT: note_on channel=1 note=42 velocity=76 time=0.002941175
EXTRACT: note_on channel=5 note=61 velocity=0 time=0.002941175
EXTRACT: note_on channel=5 note=58 velocity=84 time=0
EXTRACT: note_on channel=1 note=61 velocity=87 time=0.00588235
EXTRACT: note_on channel=2 note=82 velocity=58 time=0
EXTRACT: note_on channel=5 note=61 velocity=80 time=0
EXTRACT: note_on channel=0 note=30 velocity=104 time=0.00588235
EXTRACT: note_on channel=9 note=36 velocity=90 time=0
EXTRACT: note_on channel=9 note=51 velocity=82 time=0
EXTRACT: note_on channel=9 note=35 velocity=90 time=0
EXTRACT: note_on channel=0 note=39 velocity=0 time=0.002941175
EXTRACT: note_on channel=1 note=54 velocity=87 time=0
EXTRACT: note_on channel=2 note=73 velocity=58 time=0
EXTRACT: note_on channel=2 note=78 velocity=58 time=0
EXTRACT: note_on channel=5 note=42 velocity=0 time=0.002941175
EXTRACT: note_on channel=1 note=49 velocity=76 time=0.002941175
EXTRACT: note_on channel=5 note=42 velocity=125 time=0.002941175
EXTRACT: note_on channel=2 note=71 velocity=0 time=0.014705875
EXTRACT: note_on channel=2 note=76 velocity=0 time=0.020588224999999998
EXTRACT: note_on channel=9 note=35 velocity=0 time=0.085294075
EXTRACT: note_on channel=9 note=51 velocity=0 time=0
EXTRACT: note_on channel=9 note=36 velocity=0 time=0
EXTRACT: note_on channel=9 note=51 velocity=85 time=0.220588125
EXTRACT: note_on channel=9 note=51 velocity=0 time=0.06470585
EXTRACT: note_on channel=1 note=66 velocity=0 time=0.079411725
EXTRACT: note_on channel=1 note=42 velocity=0 time=0.002941175
EXTRACT: note_on channel=1 note=61 velocity=0 time=0.008823524999999999
EXTRACT: note_on channel=1 note=61 velocity=72 time=0.00588235
EXTRACT: note_on channel=1 note=54 velocity=0 time=0.002941175
EXTRACT: note_on channel=1 note=66 velocity=72 time=0
EXTRACT: note_on channel=0 note=30 velocity=0 time=0.002941175
EXTRACT: note_on channel=1 note=42 velocity=63 time=0
EXTRACT: note_on channel=1 note=49 velocity=0 time=0.002941175
EXTRACT: note_on channel=0 note=30 velocity=104 time=0.002941175
EXTRACT: note_on channel=9 note=35 velocity=90 time=0.002941175
EXTRACT: note_on channel=9 note=36 velocity=90 time=0
EXTRACT: note_on channel=1 note=49 velocity=63 time=0.008823524999999999
EXTRACT: note_on channel=1 note=54 velocity=72 time=0
EXTRACT: note_on channel=0 note=30 velocity=0 time=0.12058817499999999
EXTRACT: note_on channel=9 note=36 velocity=0 time=0.002941175
EXTRACT: note_on channel=9 note=35 velocity=0 time=0
EXTRACT: note_on channel=1 note=54 velocity=0 time=0.017647049999999997
EXTRACT: note_on channel=1 note=61 velocity=0 time=0.002941175
EXTRACT: note_on channel=1 note=54 velocity=84 time=0.002941175
EXTRACT: note_on channel=1 note=61 velocity=84 time=0
EXTRACT: note_on channel=1 note=66 velocity=0 time=0
EXTRACT: note_on channel=1 note=42 velocity=0 time=0.002941175
EXTRACT: note_on channel=9 note=38 velocity=89 time=0.00588235
EXTRACT: note_on channel=9 note=40 velocity=89 time=0
EXTRACT: note_on channel=1 note=49 velocity=0 time=0.002941175
EXTRACT: note_on channel=1 note=42 velocity=73 time=0
EXTRACT: note_on channel=1 note=49 velocity=73 time=0.002941175
EXTRACT: note_on channel=0 note=30 velocity=104 time=0.002941175
EXTRACT: note_on channel=1 note=66 velocity=84 time=0.002941175
EXTRACT: note_on channel=9 note=35 velocity=90 time=0
EXTRACT: note_on channel=9 note=36 velocity=90 time=0
EXTRACT: note_on channel=9 note=41 velocity=51 time=0
EXTRACT: note_on channel=9 note=51 velocity=95 time=0
EXTRACT: note_on channel=9 note=51 velocity=0 time=0.0941176
EXTRACT: note_on channel=9 note=38 velocity=0 time=0.026470575
EXTRACT: note_on channel=9 note=40 velocity=0 time=0
EXTRACT: note_on channel=9 note=36 velocity=0 time=0.0117647
EXTRACT: note_on channel=9 note=41 velocity=0 time=0
EXTRACT: note_on channel=9 note=35 velocity=0 time=0
EXTRACT: note_on channel=5 note=61 velocity=0 time=0.008823524999999999
EXTRACT: note_on channel=5 note=58 velocity=0 time=0.02941175
EXTRACT: note_on channel=5 note=61 velocity=80 time=0
EXTRACT: note_on channel=5 note=42 velocity=0 time=0.035294099999999995
EXTRACT: note_on channel=5 note=58 velocity=80 time=0
EXTRACT: note_on channel=5 note=42 velocity=80 time=0.041176449999999996
EXTRACT: note_on channel=0 note=30 velocity=0 time=0.049999974999999995
EXTRACT: note_on channel=1 note=49 velocity=0 time=0.02941175
EXTRACT: note_on channel=1 note=54 velocity=0 time=0.008823524999999999
EXTRACT: note_on channel=1 note=61 velocity=0 time=0
EXTRACT: note_on channel=5 note=42 velocity=0 time=0
EXTRACT: note_on channel=5 note=58 velocity=0 time=0
EXTRACT: note_on channel=5 note=61 velocity=0 time=0.00588235
EXTRACT: note_on channel=1 note=66 velocity=0 time=0.002941175
EXTRACT: note_on channel=1 note=49 velocity=83 time=0
EXTRACT: note_on channel=5 note=58 velocity=84 time=0
EXTRACT: note_on channel=1 note=42 velocity=0 time=0.002941175
EXTRACT: note_on channel=1 note=66 velocity=83 time=0
EXTRACT: note_on channel=0 note=30 velocity=106 time=0.00588235
EXTRACT: note_on channel=5 note=61 velocity=80 time=0
EXTRACT: note_on channel=9 note=36 velocity=97 time=0
EXTRACT: note_on channel=9 note=35 velocity=97 time=0
EXTRACT: note_on channel=9 note=51 velocity=85 time=0
EXTRACT: note_on channel=9 note=53 velocity=55 time=0
EXTRACT: note_on channel=1 note=54 velocity=83 time=0.002941175
EXTRACT: note_on channel=5 note=42 velocity=125 time=0.002941175
EXTRACT: note_on channel=1 note=61 velocity=83 time=0.002941175
EXTRACT: note_on channel=1 note=42 velocity=73 time=0.00588235
EXTRACT: note_on channel=9 note=53 velocity=0 time=0.085294075
EXTRACT: note_on channel=9 note=51 velocity=0 time=0
EXTRACT: note_on channel=9 note=35 velocity=0 time=0.032352925
EXTRACT: note_on channel=9 note=36 velocity=0 time=0
EXTRACT: note_on channel=9 note=41 velocity=43 time=0.032352925
EXTRACT: note_on channel=0 note=37 velocity=100 time=0.0117647
EXTRACT: note_on channel=0 note=30 velocity=0 time=0.032352925
EXTRACT: note_on channel=9 note=41 velocity=0 time=0.08823525
EXTRACT: note_on channel=0 note=42 velocity=106 time=0.055882325
EXTRACT: note_on channel=9 note=51 velocity=85 time=0
EXTRACT: control_change channel=2 control=1 value=38 time=0.00588235
EXTRACT: control_change channel=2 control=1 value=37 time=0.055882325
EXTRACT: note_on channel=0 note=37 velocity=0 time=0.02941175
EXTRACT: note_on channel=9 note=51 velocity=0 time=0.0117647
EXTRACT: control_change channel=2 control=1 value=36 time=0.017647049999999997
EXTRACT: note_on channel=1 note=49 velocity=0 time=0.020588224999999998
EXTRACT: note_on channel=1 note=66 velocity=0 time=0.002941175
EXTRACT: note_on channel=1 note=54 velocity=0 time=0.008823524999999999
EXTRACT: note_on channel=1 note=61 velocity=0 time=0.00588235
EXTRACT: note_on channel=1 note=42 velocity=0 time=0.00588235
EXTRACT: note_on channel=1 note=61 velocity=74 time=0.002941175
EXTRACT: note_on channel=1 note=54 velocity=74 time=0.00588235
EXTRACT: note_on channel=1 note=42 velocity=65 time=0.002941175
EXTRACT: note_on channel=9 note=38 velocity=81 time=0
EXTRACT: note_on channel=9 note=40 velocity=81 time=0
EXTRACT: control_change channel=2 control=1 value=35 time=0.002941175
EXTRACT: note_on channel=1 note=49 velocity=74 time=0.008823524999999999
EXTRACT: note_on channel=1 note=66 velocity=74 time=0
EXTRACT: control_change channel=2 control=1 value=34 time=0.049999974999999995
EXTRACT: note_on channel=0 note=42 velocity=0 time=0.044117625
EXTRACT: control_change channel=2 control=1 value=33 time=0.014705875
EXTRACT: note_on channel=9 note=40 velocity=0 time=0.0117647
EXTRACT: note_on channel=9 note=38 velocity=0 time=0
EXTRACT: note_on channel=1 note=54 velocity=0 time=0.008823524999999999
EXTRACT: note_on channel=1 note=42 velocity=0 time=0.002941175
EXTRACT: note_on channel=1 note=61 velocity=0 time=0.00588235
EXTRACT: note_on channel=1 note=54 velocity=75 time=0
EXTRACT: note_on channel=1 note=61 velocity=75 time=0.00588235
EXTRACT: note_on channel=1 note=42 velocity=65 time=0
EXTRACT: note_on channel=1 note=66 velocity=0 time=0.002941175
EXTRACT: note_on channel=1 note=66 velocity=75 time=0.00588235
EXTRACT: note_on channel=9 note=36 velocity=90 time=0
EXTRACT: note_on channel=9 note=35 velocity=90 time=0
EXTRACT: note_on channel=1 note=49 velocity=0 time=0.00588235
EXTRACT: note_on channel=0 note=42 velocity=106 time=0.00588235
EXTRACT: note_on channel=9 note=51 velocity=88 time=0
EXTRACT: note_on channel=1 note=49 velocity=75 time=0.002941175
EXTRACT: control_change channel=2 control=1 value=32 time=0
EXTRACT: control_change channel=2 control=1 value=31 time=0.0588235
EXTRACT: note_on channel=9 note=51 velocity=0 time=0.035294099999999995
EXTRACT: control_change channel=2 control=1 value=30 time=0.0235294
EXTRACT: note_on channel=9 note=35 velocity=0 time=0
EXTRACT: note_on channel=9 note=36 velocity=0 time=0
EXTRACT: note_on channel=0 note=37 velocity=100 time=0.055882325
EXTRACT: control_change channel=2 control=1 value=29 time=0.002941175
EXTRACT: note_on channel=0 note=42 velocity=0 time=0.0470588
EXTRACT: control_change channel=2 control=1 value=28 time=0.008823524999999999
EXTRACT: control_change channel=2 control=1 value=27 time=0.0588235
EXTRACT: note_on channel=1 note=61 velocity=0 time=0.041176449999999996
EXTRACT: note_on channel=1 note=54 velocity=0 time=0
EXTRACT: note_on channel=1 note=66 velocity=0 time=0.008823524999999999
EXTRACT: note_on channel=1 note=54 velocity=57 time=0
EXTRACT: note_on channel=1 note=61 velocity=57 time=0
EXTRACT: note_on channel=1 note=42 velocity=0 time=0
EXTRACT: note_on channel=1 note=49 velocity=0 time=0.002941175
EXTRACT: note_on channel=0 note=30 velocity=106 time=0.00588235
EXTRACT: note_on channel=1 note=49 velocity=57 time=0
EXTRACT: note_on channel=1 note=66 velocity=57 time=0
EXTRACT: control_change channel=2 control=1 value=26 time=0
EXTRACT: note_on channel=9 note=38 velocity=89 time=0
EXTRACT: note_on channel=9 note=40 velocity=89 time=0
EXTRACT: note_on channel=9 note=41 velocity=57 time=0
EXTRACT: note_on channel=9 note=51 velocity=95 time=0
EXTRACT: note_on channel=9 note=53 velocity=63 time=0
EXTRACT: note_on channel=1 note=42 velocity=50 time=0.0117647
EXTRACT: note_on channel=7 note=82 velocity=0 time=0.00588235
EXTRACT: note_on channel=0 note=37 velocity=0 time=0.038235275
EXTRACT: control_change channel=2 control=1 value=25 time=0.002941175
EXTRACT: control_change channel=2 control=11 value=88 time=0.0235294
EXTRACT: note_on channel=1 note=49 velocity=0 time=0.002941175
EXTRACT: note_on channel=1 note=54 velocity=0 time=0.014705875
EXTRACT: note_on channel=1 note=42 velocity=0 time=0.002941175
EXTRACT: note_on channel=1 note=61 velocity=0 time=0.008823524999999999
EXTRACT: note_on channel=9 note=53 velocity=0 time=0
EXTRACT: note_on channel=9 note=51 velocity=0 time=0
EXTRACT: control_change channel=2 control=11 value=86 time=0.002941175
EXTRACT: note_on channel=1 note=66 velocity=0 time=0.002941175
EXTRACT: control_change channel=2 control=1 value=24 time=0
EXTRACT: note_on channel=9 note=38 velocity=0 time=0.014705875
EXTRACT: note_on channel=9 note=40 velocity=0 time=0
EXTRACT: note_on channel=9 note=41 velocity=0 time=0
EXTRACT: control_change channel=2 control=11 value=85 time=0.0117647
EXTRACT: note_on channel=1 note=54 velocity=71 time=0.002941175
EXTRACT: note_on channel=1 note=42 velocity=63 time=0
EXTRACT: note_on channel=1 note=66 velocity=71 time=0.017647049999999997
EXTRACT: note_on channel=1 note=61 velocity=71 time=0
EXTRACT: note_on channel=1 note=49 velocity=71 time=0.00588235
EXTRACT: control_change channel=2 control=1 value=23 time=0.00588235
EXTRACT: control_change channel=2 control=11 value=84 time=0
EXTRACT: control_change channel=5 control=11 value=112 time=0.02941175
EXTRACT: control_change channel=2 control=11 value=83 time=0.002941175
EXTRACT: control_change channel=2 control=1 value=22 time=0.026470575
EXTRACT: control_change channel=5 control=11 value=110 time=0.002941175
EXTRACT: control_change channel=2 control=11 value=82 time=0.002941175
EXTRACT: control_change channel=2 control=11 value=81 time=0.032352925
EXTRACT: control_change channel=2 control=1 value=21 time=0.020588224999999998
EXTRACT: control_change channel=5 control=11 value=109 time=0.008823524999999999
EXTRACT: control_change channel=2 control=11 value=80 time=0.002941175
EXTRACT: control_change channel=5 control=11 value=108 time=0.02941175
EXTRACT: control_change channel=2 control=11 value=78 time=0.002941175
EXTRACT: note_on channel=0 note=30 velocity=0 time=0.002941175
EXTRACT: pitchwheel channel=0 pitch=-7936 time=0.00588235
EXTRACT: note_on channel=0 note=37 velocity=106 time=0.00588235
EXTRACT: control_change channel=2 control=1 value=20 time=0
EXTRACT: note_on channel=9 note=51 velocity=85 time=0
EXTRACT: control_change channel=5 control=11 value=105 time=0.0117647
EXTRACT: control_change channel=2 control=11 value=77 time=0.00588235
EXTRACT: control_change channel=5 control=11 value=103 time=0.026470575
EXTRACT: control_change channel=2 control=11 value=76 time=0.002941175
EXTRACT: control_change channel=2 control=1 value=19 time=0.0117647
EXTRACT: control_change channel=5 control=11 value=101 time=0.017647049999999997
EXTRACT: control_change channel=2 control=11 value=76 time=0.002941175
EXTRACT: pitchwheel channel=0 pitch=-7936 time=0.00588235
EXTRACT: note_on channel=9 note=51 velocity=0 time=0.014705875
EXTRACT: control_change channel=5 control=11 value=98 time=0.008823524999999999
EXTRACT: control_change channel=2 control=11 value=75 time=0.002941175
EXTRACT: control_change channel=2 control=1 value=18 time=0.002941175
EXTRACT: pitchwheel channel=0 pitch=-7685 time=0.002941175
EXTRACT: control_change channel=5 control=11 value=95 time=0.0235294
EXTRACT: control_change channel=2 control=11 value=74 time=0.002941175
EXTRACT: pitchwheel channel=0 pitch=-6995 time=0.002941175
EXTRACT: control_change channel=2 control=1 value=17 time=0.026470575
EXTRACT: control_change channel=5 control=11 value=91 time=0
EXTRACT: control_change channel=1 control=93 value=60 time=0.002941175
EXTRACT: control_change channel=2 control=11 value=73 time=0
EXTRACT: pitchwheel channel=0 pitch=-5801 time=0.002941175
EXTRACT: control_change channel=5 control=11 value=88 time=0.0235294
EXTRACT: control_change channel=2 control=11 value=72 time=0.00588235
EXTRACT: pitchwheel channel=0 pitch=-4126 time=0.002941175
EXTRACT: control_change channel=2 control=1 value=16 time=0.020588224999999998
EXTRACT: control_change channel=5 control=11 value=84 time=0.002941175
EXTRACT: control_change channel=2 control=11 value=71 time=0.00588235
EXTRACT: pitchwheel channel=0 pitch=-2077 time=0.002941175
EXTRACT: control_change channel=5 control=11 value=77 time=0.0235294
EXTRACT: control_change channel=2 control=11 value=70 time=0.00588235
EXTRACT: pitchwheel channel=0 pitch=540 time=0.002941175
EXTRACT: control_change channel=2 control=1 value=15 time=0.014705875
EXTRACT: note_on channel=1 note=42 velocity=0 time=0.00588235
EXTRACT: note_on channel=1 note=54 velocity=0 time=0
EXTRACT: control_change channel=5 control=11 value=73 time=0.002941175
EXTRACT: control_change channel=2 control=11 value=69 time=0.002941175
EXTRACT: pitchwheel channel=0 pitch=3639 time=0.00588235
EXTRACT: note_on channel=1 note=61 velocity=0 time=0.00588235
EXTRACT: note_on channel=1 note=66 velocity=0 time=0
EXTRACT: note_on channel=1 note=49 velocity=0 time=0.00588235
EXTRACT: control_change channel=5 control=11 value=68 time=0.0117647
EXTRACT: control_change channel=2 control=11 value=68 time=0.002941175
EXTRACT: pitchwheel channel=0 pitch=7047 time=0.002941175
EXTRACT: note_on channel=0 note=37 velocity=0 time=0.00588235
EXTRACT: note_on channel=1 note=71 velocity=62 time=0.002941175
EXTRACT: pitchwheel channel=0 pitch=8191 time=0.002941175
EXTRACT: note_on channel=1 note=52 velocity=97 time=0
EXTRACT: control_change channel=2 control=1 value=14 time=0
EXTRACT: note_on channel=2 note=83 velocity=57 time=0
EXTRACT: note_on channel=0 note=38 velocity=106 time=0.002941175
EXTRACT: note_on channel=2 note=80 velocity=40 time=0
EXTRACT: note_on channel=6 note=71 velocity=76 time=0
EXTRACT: note_on channel=6 note=63 velocity=59 time=0
EXTRACT: note_on channel=8 note=56 velocity=63 time=0
EXTRACT: note_on channel=9 note=46 velocity=59 time=0
EXTRACT: note_on channel=9 note=36 velocity=90 time=0
EXTRACT: note_on channel=9 note=35 velocity=90 time=0
EXTRACT: note_on channel=1 note=63 velocity=62 time=0.002941175
EXTRACT: note_on channel=1 note=59 velocity=58 time=0
EXTRACT: note_on channel=2 note=75 velocity=43 time=0
EXTRACT: note_on channel=1 note=56 velocity=84 time=0.002941175
EXTRACT: control_change channel=5 control=11 value=61 time=0.00588235
EXTRACT: control_change channel=2 control=11 value=67 time=0.002941175
EXTRACT: note_on channel=2 note=82 velocity=0 time=0.020588224999999998
EXTRACT: control_change channel=5 control=11 value=56 time=0.00588235
EXTRACT: control_change channel=6 control=64 value=0 time=0.002941175
EXTRACT: control_change channel=2 control=11 value=66 time=0.002941175
EXTRACT: note_on channel=2 note=78 velocity=0 time=0.008823524999999999
EXTRACT: control_change channel=2 control=1 value=13 time=0
EXTRACT: note_on channel=2 note=73 velocity=0 time=0.00588235
EXTRACT: control_change channel=5 control=11 value=48 time=0.0117647
EXTRACT: control_change channel=2 control=11 value=66 time=0.00588235
EXTRACT: control_change channel=5 control=11 value=41 time=0.026470575
EXTRACT: control_change channel=2 control=11 value=64 time=0.00588235
EXTRACT: control_change channel=2 control=1 value=12 time=0.002941175
EXTRACT: control_change channel=6 control=64 value=127 time=0.002941175
EXTRACT: control_change channel=1 control=64 value=127 time=0.008823524999999999
EXTRACT: note_on channel=9 note=35 velocity=0 time=0.00588235
EXTRACT: note_on channel=9 note=36 velocity=0 time=0
EXTRACT: note_on channel=9 note=46 velocity=0 time=0
EXTRACT: control_change channel=5 control=11 value=34 time=0.00588235
EXTRACT: control_change channel=2 control=11 value=63 time=0.00588235
EXTRACT: control_change channel=5 control=11 value=24 time=0.026470575
EXTRACT: control_change channel=2 control=1 value=11 time=0.002941175
EXTRACT: control_change channel=2 control=11 value=62 time=0.002941175
EXTRACT: control_change channel=5 control=11 value=17 time=0.026470575
EXTRACT: control_change channel=2 control=11 value=61 time=0.002941175
EXTRACT: control_change channel=2 control=1 value=10 time=0.026470575
EXTRACT: control_change channel=5 control=11 value=8 time=0
EXTRACT: control_change channel=2 control=11 value=60 time=0.00588235
EXTRACT: note_on channel=1 note=63 velocity=0 time=0.020588224999999998
EXTRACT: note_on channel=1 note=56 velocity=0 time=0.00588235
EXTRACT: control_change channel=5 control=11 value=0 time=0
EXTRACT: note_on channel=1 note=59 velocity=0 time=0.00588235
EXTRACT: control_change channel=2 control=11 value=59 time=0
EXTRACT: control_change channel=2 control=1 value=9 time=0.017647049999999997
EXTRACT: note_on channel=6 note=63 velocity=0 time=0.0117647
EXTRACT: note_on channel=6 note=71 velocity=0 time=0.026470575
EXTRACT: note_on channel=1 note=56 velocity=52 time=0.014705875
EXTRACT: control_change channel=2 control=1 value=8 time=0.00588235
EXTRACT: note_on channel=1 note=59 velocity=34 time=0.002941175
EXTRACT: note_on channel=6 note=63 velocity=33 time=0.002941175
EXTRACT: note_on channel=1 note=63 velocity=36 time=0.008823524999999999
EXTRACT: control_change channel=2 control=1 value=7 time=0.044117625
EXTRACT: note_on channel=1 note=71 velocity=0 time=0.0117647
EXTRACT: note_on channel=1 note=52 velocity=0 time=0.00588235
EXTRACT: note_on channel=6 note=63 velocity=0 time=0.020588224999999998
EXTRACT: note_on channel=1 note=56 velocity=0 time=0.008823524999999999
EXTRACT: control_change channel=2 control=1 value=6 time=0.0117647
EXTRACT: note_on channel=1 note=59 velocity=0 time=0.002941175
EXTRACT: note_on channel=1 note=63 velocity=0 time=0.002941175
EXTRACT: note_on channel=1 note=71 velocity=81 time=0.0470588
EXTRACT: note_on channel=5 note=42 velocity=0 time=0.002941175
EXTRACT: control_change channel=2 control=1 value=5 time=0.002941175
EXTRACT: note_on channel=5 note=58 velocity=0 time=0
EXTRACT: note_on channel=6 note=63 velocity=49 time=0.00588235
EXTRACT: note_on channel=6 note=71 velocity=65 time=0
EXTRACT: note_on channel=9 note=35 velocity=90 time=0
EXTRACT: note_on channel=9 note=36 velocity=90 time=0
EXTRACT: note_on channel=1 note=56 velocity=63 time=0.002941175
EXTRACT: note_on channel=1 note=59 velocity=77 time=0.002941175
EXTRACT: note_on channel=1 note=63 velocity=73 time=0
EXTRACT: note_on channel=5 note=61 velocity=0 time=0
EXTRACT: control_change channel=2 control=1 value=4 time=0.0470588
EXTRACT: note_on channel=6 note=63 velocity=0 time=0.038235275
EXTRACT: control_change channel=2 control=1 value=3 time=0.020588224999999998
EXTRACT: note_on channel=6 note=71 velocity=0 time=0.002941175
EXTRACT: note_on channel=9 note=36 velocity=0 time=0.017647049999999997
EXTRACT: note_on channel=9 note=35 velocity=0 time=0
EXTRACT: note_on channel=9 note=70 velocity=88 time=0.026470575
EXTRACT: note_on channel=9 note=82 velocity=47 time=0.00588235
EXTRACT: note_on channel=9 note=42 velocity=99 time=0
EXTRACT: note_on channel=9 note=39 velocity=65 time=0
EXTRACT: note_on channel=9 note=40 velocity=89 time=0
EXTRACT: control_change channel=2 control=1 value=2 time=0.00588235
EXTRACT: note_on channel=8 note=56 velocity=0 time=0.00588235
EXTRACT: control_change channel=2 control=1 value=1 time=0.05294115
EXTRACT: note_on channel=9 note=42 velocity=0 time=0.02941175
EXTRACT: control_change channel=2 control=1 value=0 time=0.026470575
EXTRACT: note_on channel=9 note=70 velocity=0 time=0.00588235
EXTRACT: note_on channel=9 note=82 velocity=0 time=0.00588235
EXTRACT: note_on channel=9 note=39 velocity=0 time=0
EXTRACT: note_on channel=9 note=40 velocity=0 time=0
EXTRACT: note_on channel=6 note=63 velocity=32 time=0.055882325
EXTRACT: note_on channel=1 note=71 velocity=0 time=0.073529375
EXTRACT: note_on channel=1 note=56 velocity=0 time=0.002941175
EXTRACT: note_on channel=1 note=63 velocity=0 time=0.002941175
EXTRACT: note_on channel=1 note=59 velocity=0 time=0.008823524999999999
EXTRACT: note_on channel=6 note=63 velocity=0 time=0.014705875
EXTRACT: note_on channel=0 note=38 velocity=0 time=0.049999974999999995
EXTRACT: note_on channel=1 note=59 velocity=80 time=0.020588224999999998
EXTRACT: note_on channel=0 note=38 velocity=106 time=0.002941175
EXTRACT: note_on channel=1 note=56 velocity=73 time=0
EXTRACT: note_on channel=6 note=63 velocity=51 time=0
EXTRACT: note_on channel=6 note=71 velocity=71 time=0
EXTRACT: note_on channel=8 note=56 velocity=63 time=0
EXTRACT: note_on channel=9 note=46 velocity=49 time=0
EXTRACT: note_on channel=9 note=36 velocity=97 time=0
EXTRACT: note_on channel=9 note=35 velocity=97 time=0
EXTRACT: note_on channel=1 note=63 velocity=73 time=0.002941175
EXTRACT: note_on channel=1 note=52 velocity=52 time=0.00588235
EXTRACT: note_on channel=9 note=46 velocity=0 time=0.09117642499999999
EXTRACT: note_on channel=6 note=63 velocity=0 time=0.002941175
EXTRACT: note_on channel=6 note=71 velocity=0 time=0.020588224999999998
EXTRACT: note_on channel=9 note=35 velocity=0 time=0.008823524999999999
EXTRACT: note_on channel=9 note=36 velocity=0 time=0
EXTRACT: note_on channel=9 note=41 velocity=43 time=0.032352925
EXTRACT: control_change channel=5 control=11 value=112 time=0.102941125
EXTRACT: note_on channel=9 note=41 velocity=0 time=0.02941175
EXTRACT: note_on channel=9 note=42 velocity=76 time=0.055882325
EXTRACT: note_on channel=8 note=56 velocity=0 time=0.044117625
EXTRACT: note_on channel=1 note=63 velocity=0 time=0.032352925
EXTRACT: note_on channel=1 note=56 velocity=0 time=0
EXTRACT: note_on channel=1 note=59 velocity=0 time=0.002941175
EXTRACT: note_on channel=1 note=52 velocity=0 time=0.00588235
EXTRACT: note_on channel=9 note=42 velocity=0 time=0.017647049999999997
EXTRACT: note_on channel=9 note=70 velocity=57 time=0.061764675
EXTRACT: note_on channel=9 note=82 velocity=30 time=0.00588235
EXTRACT: note_on channel=6 note=63 velocity=30 time=0.00588235
EXTRACT: note_on channel=9 note=40 velocity=51 time=0
EXTRACT: note_on channel=6 note=63 velocity=0 time=0.097058775
EXTRACT: note_on channel=9 note=70 velocity=0 time=0.0235294
EXTRACT: note_on channel=9 note=82 velocity=0 time=0.00588235
EXTRACT: note_on channel=9 note=40 velocity=0 time=0.00588235
EXTRACT: note_on channel=0 note=38 velocity=0 time=0.014705875
EXTRACT: note_on channel=1 note=63 velocity=65 time=0.017647049999999997
EXTRACT: note_on channel=9 note=46 velocity=51 time=0
EXTRACT: note_on channel=9 note=36 velocity=90 time=0
EXTRACT: note_on channel=9 note=35 velocity=90 time=0
EXTRACT: note_on channel=1 note=52 velocity=80 time=0.008823524999999999
EXTRACT: note_on channel=0 note=38 velocity=106 time=0.002941175
EXTRACT: note_on channel=1 note=56 velocity=68 time=0
EXTRACT: note_on channel=6 note=63 velocity=49 time=0
EXTRACT: note_on channel=6 note=71 velocity=65 time=0
EXTRACT: note_on channel=8 note=56 velocity=63 time=0
EXTRACT: note_on channel=1 note=71 velocity=74 time=0.002941175
EXTRACT: note_on channel=1 note=59 velocity=83 time=0.002941175
EXTRACT: note_on channel=9 note=46 velocity=0 time=0.079411725
EXTRACT: note_on channel=6 note=63 velocity=0 time=0.0117647
EXTRACT: note_on channel=9 note=35 velocity=0 time=0.0235294
EXTRACT: note_on channel=9 note=36 velocity=0 time=0
EXTRACT: note_on channel=6 note=71 velocity=0 time=0.032352925
EXTRACT: note_on channel=1 note=63 velocity=0 time=0.032352925
EXTRACT: note_on channel=1 note=56 velocity=0 time=0.014705875
EXTRACT: note_on channel=1 note=59 velocity=0 time=0.0117647
EXTRACT: note_on channel=1 note=56 velocity=42 time=0.13235287499999998
EXTRACT: note_on channel=9 note=70 velocity=88 time=0.002941175
EXTRACT: note_on channel=6 note=63 velocity=32 time=0.00588235
EXTRACT: note_on channel=9 note=82 velocity=47 time=0
EXTRACT: note_on channel=9 note=42 velocity=99 time=0
EXTRACT: note_on channel=9 note=39 velocity=65 time=0
EXTRACT: note_on channel=9 note=40 velocity=89 time=0
EXTRACT: note_on channel=1 note=63 velocity=40 time=0.002941175
EXTRACT: note_on channel=1 note=59 velocity=53 time=0.002941175
EXTRACT: note_on channel=8 note=56 velocity=0 time=0.038235275
EXTRACT: note_on channel=1 note=52 velocity=0 time=0.026470575
EXTRACT: note_on channel=1 note=71 velocity=0 time=0.017647049999999997
EXTRACT: note_on channel=6 note=63 velocity=0 time=0.00588235
EXTRACT: note_on channel=9 note=42 velocity=0 time=0.017647049999999997
EXTRACT: note_on channel=1 note=56 velocity=0 time=0.00588235
EXTRACT: note_on channel=1 note=63 velocity=0 time=0.008823524999999999
EXTRACT: note_on channel=9 note=70 velocity=0 time=0
EXTRACT: note_on channel=9 note=82 velocity=0 time=0.00588235
EXTRACT: note_on channel=9 note=39 velocity=0 time=0
EXTRACT: note_on channel=9 note=40 velocity=0 time=0
EXTRACT: note_on channel=1 note=59 velocity=0 time=0.008823524999999999
EXTRACT: note_on channel=1 note=59 velocity=77 time=0.026470575
EXTRACT: note_on channel=1 note=63 velocity=73 time=0.002941175
EXTRACT: note_on channel=1 note=56 velocity=63 time=0
EXTRACT: note_on channel=6 note=71 velocity=71 time=0.00588235
EXTRACT: note_on channel=6 note=63 velocity=52 time=0
EXTRACT: note_on channel=1 note=71 velocity=81 time=0.008823524999999999
EXTRACT: note_on channel=6 note=63 velocity=0 time=0.085294075
EXTRACT: note_on channel=6 note=71 velocity=0 time=0.07647055
EXTRACT: note_on channel=9 note=42 velocity=77 time=0.00588235
EXTRACT: note_on channel=9 note=42 velocity=0 time=0.09999994999999999
EXTRACT: note_on channel=6 note=63 velocity=33 time=0.07647055
EXTRACT: note_on channel=1 note=63 velocity=0 time=0.067647025
EXTRACT: note_on channel=1 note=56 velocity=0 time=0.002941175
EXTRACT: control_change channel=1 control=64 value=0 time=0.002941175
EXTRACT: note_on channel=1 note=59 velocity=0 time=0
EXTRACT: note_on channel=1 note=71 velocity=0 time=0.020588224999999998
EXTRACT: control_change channel=6 control=64 value=0 time=0.00588235
EXTRACT: pitchwheel channel=0 pitch=0 time=0.035294099999999995
EXTRACT: note_on channel=0 note=38 velocity=0 time=0.002941175
EXTRACT: note_on channel=6 note=63 velocity=0 time=0.0235294
EXTRACT: note_on channel=1 note=73 velocity=68 time=0.002941175
EXTRACT: note_on channel=1 note=63 velocity=68 time=0
EXTRACT: note_on channel=1 note=54 velocity=92 time=0.002941175
EXTRACT: note_on channel=1 note=58 velocity=83 time=0.00588235
EXTRACT: note_on channel=2 note=78 velocity=48 time=0
EXTRACT: note_on channel=0 note=42 velocity=106 time=0.002941175
EXTRACT: note_on channel=2 note=82 velocity=57 time=0
EXTRACT: note_on channel=2 note=73 velocity=49 time=0
EXTRACT: note_on channel=6 note=63 velocity=59 time=0
EXTRACT: note_on channel=6 note=73 velocity=72 time=0
EXTRACT: note_on channel=8 note=56 velocity=63 time=0
EXTRACT: note_on channel=9 note=46 velocity=59 time=0
EXTRACT: note_on channel=9 note=36 velocity=90 time=0
EXTRACT: note_on channel=9 note=35 velocity=90 time=0
EXTRACT: note_on channel=1 note=59 velocity=59 time=0.008823524999999999
EXTRACT: note_on channel=2 note=75 velocity=0 time=0.014705875
EXTRACT: note_on channel=2 note=80 velocity=0 time=0.00588235
EXTRACT: note_on channel=2 note=83 velocity=0 time=0.002941175
EXTRACT: control_change channel=6 control=64 value=127 time=0.061764675
EXTRACT: note_on channel=9 note=35 velocity=0 time=0.038235275
EXTRACT: note_on channel=9 note=36 velocity=0 time=0
EXTRACT: note_on channel=9 note=46 velocity=0 time=0
EXTRACT: note_on channel=6 note=63 velocity=0 time=0.13235287499999998
EXTRACT: control_change channel=1 control=64 value=127 time=0.07647055
EXTRACT: note_on channel=6 note=63 velocity=25 time=0.0117647
EXTRACT: note_on channel=1 note=73 velocity=0 time=0.0588235
EXTRACT: note_on channel=6 note=73 velocity=0 time=0
EXTRACT: note_on channel=1 note=63 velocity=0 time=0.002941175
EXTRACT: note_on channel=1 note=54 velocity=0 time=0.002941175
EXTRACT: note_on channel=1 note=58 velocity=0 time=0.008823524999999999
EXTRACT: note_on channel=6 note=63 velocity=0 time=0.014705875
EXTRACT: note_on channel=1 note=59 velocity=0 time=0.002941175
EXTRACT: note_on channel=1 note=59 velocity=77 time=0.079411725
EXTRACT: note_on channel=1 note=63 velocity=73 time=0.002941175
EXTRACT: note_on channel=6 note=63 velocity=44 time=0.002941175
EXTRACT: note_on channel=6 note=73 velocity=66 time=0
EXTRACT: note_on channel=9 note=35 velocity=90 time=0
EXTRACT: note_on channel=9 note=36 velocity=90 time=0
EXTRACT: note_on channel=1 note=58 velocity=63 time=0.00588235
EXTRACT: note_on channel=1 note=73 velocity=81 time=0.002941175
EXTRACT: note_on channel=6 note=63 velocity=0 time=0.079411725
EXTRACT: note_on channel=6 note=73 velocity=0 time=0.014705875
EXTRACT: note_on channel=9 note=36 velocity=0 time=0.02941175
EXTRACT: note_on channel=9 note=35 velocity=0 time=0
EXTRACT: note_on channel=9 note=70 velocity=88 time=0.026470575
EXTRACT: note_on channel=9 note=82 velocity=47 time=0.00588235
EXTRACT: note_on channel=9 note=42 velocity=99 time=0
EXTRACT: note_on channel=9 note=39 velocity=65 time=0
EXTRACT: note_on channel=9 note=40 velocity=89 time=0
EXTRACT: note_on channel=8 note=56 velocity=0 time=0.0117647
EXTRACT: note_on channel=9 note=42 velocity=0 time=0.08235289999999999
EXTRACT: note_on channel=9 note=70 velocity=0 time=0.032352925
EXTRACT: note_on channel=9 note=82 velocity=0 time=0.00588235
EXTRACT: note_on channel=9 note=39 velocity=0 time=0
EXTRACT: note_on channel=9 note=40 velocity=0 time=0
EXTRACT: note_on channel=6 note=63 velocity=32 time=0.055882325
EXTRACT: note_on channel=1 note=63 velocity=0 time=0.067647025
EXTRACT: note_on channel=1 note=59 velocity=0 time=0.008823524999999999
EXTRACT: note_on channel=1 note=58 velocity=0 time=0.002941175
EXTRACT: note_on channel=1 note=73 velocity=0 time=0.014705875
EXTRACT: note_on channel=6 note=63 velocity=0 time=0.017647049999999997
EXTRACT: note_on channel=0 note=42 velocity=0 time=0.041176449999999996
EXTRACT: note_on channel=1 note=63 velocity=73 time=0.020588224999999998
EXTRACT: note_on channel=0 note=42 velocity=106 time=0.002941175
EXTRACT: note_on channel=6 note=63 velocity=52 time=0
EXTRACT: note_on channel=6 note=73 velocity=71 time=0
EXTRACT: note_on channel=8 note=56 velocity=63 time=0
EXTRACT: note_on channel=9 note=46 velocity=49 time=0
EXTRACT: note_on channel=9 note=36 velocity=97 time=0
EXTRACT: note_on channel=9 note=35 velocity=97 time=0
EXTRACT: note_on channel=1 note=58 velocity=73 time=0.00588235
EXTRACT: note_on channel=1 note=54 velocity=52 time=0
EXTRACT: note_on channel=1 note=59 velocity=80 time=0
EXTRACT: note_on channel=9 note=46 velocity=0 time=0.0941176
EXTRACT: note_on channel=6 note=73 velocity=0 time=0.00588235
EXTRACT: note_on channel=6 note=63 velocity=0 time=0.00588235
EXTRACT: note_on channel=9 note=35 velocity=0 time=0.020588224999999998
EXTRACT: note_on channel=9 note=36 velocity=0 time=0
EXTRACT: note_on channel=9 note=41 velocity=43 time=0.032352925
EXTRACT: note_on channel=9 note=41 velocity=0 time=0.13235287499999998
EXTRACT: note_on channel=9 note=42 velocity=76 time=0.055882325
EXTRACT: note_on channel=8 note=56 velocity=0 time=0.044117625
EXTRACT: note_on channel=1 note=63 velocity=0 time=0.026470575
EXTRACT: note_on channel=1 note=58 velocity=0 time=0.0117647
EXTRACT: note_on channel=1 note=54 velocity=0 time=0
EXTRACT: note_on channel=1 note=59 velocity=0 time=0.00588235
EXTRACT: note_on channel=9 note=42 velocity=0 time=0.014705875
EXTRACT: note_on channel=9 note=70 velocity=57 time=0.061764675
EXTRACT: note_on channel=1 note=59 velocity=45 time=0.00588235
EXTRACT: note_on channel=9 note=82 velocity=30 time=0
EXTRACT: note_on channel=1 note=73 velocity=51 time=0.002941175
EXTRACT: note_on channel=6 note=63 velocity=34 time=0.002941175
EXTRACT: note_on channel=9 note=40 velocity=51 time=0
EXTRACT: note_on channel=1 note=58 velocity=41 time=0.002941175
EXTRACT: note_on channel=1 note=63 velocity=43 time=0.002941175
EXTRACT: note_on channel=9 note=70 velocity=0 time=0.114705825
EXTRACT: note_on channel=1 note=73 velocity=0 time=0.00588235
EXTRACT: note_on channel=9 note=82 velocity=0 time=0
EXTRACT: note_on channel=9 note=40 velocity=0 time=0.00588235
EXTRACT: note_on channel=1 note=59 velocity=0 time=0.002941175
EXTRACT: note_on channel=1 note=58 velocity=0 time=0
EXTRACT: note_on channel=1 note=63 velocity=0 time=0
EXTRACT: note_on channel=6 note=63 velocity=0 time=0.008823524999999999
EXTRACT: note_on channel=0 note=42 velocity=0 time=0.002941175
EXTRACT: control_change channel=6 control=64 value=0 time=0.008823524999999999
EXTRACT: note_on channel=9 note=46 velocity=51 time=0.008823524999999999
EXTRACT: note_on channel=9 note=36 velocity=90 time=0
EXTRACT: note_on channel=9 note=35 velocity=90 time=0
EXTRACT: note_on channel=1 note=75 velocity=71 time=0.00588235
EXTRACT: note_on channel=0 note=42 velocity=106 time=0.00588235
EXTRACT: note_on channel=1 note=54 velocity=75 time=0
EXTRACT: note_on channel=1 note=59 velocity=80 time=0
EXTRACT: note_on channel=6 note=75 velocity=68 time=0
EXTRACT: note_on channel=6 note=63 velocity=55 time=0
EXTRACT: note_on channel=8 note=56 velocity=63 time=0
EXTRACT: note_on channel=1 note=58 velocity=64 time=0.002941175
EXTRACT: note_on channel=1 note=63 velocity=63 time=0.002941175
EXTRACT: note_on channel=9 note=46 velocity=0 time=0.079411725
EXTRACT: note_on channel=9 note=35 velocity=0 time=0.035294099999999995
EXTRACT: note_on channel=9 note=36 velocity=0 time=0
EXTRACT: control_change channel=6 control=64 value=127 time=0.017647049999999997
EXTRACT: note_on channel=6 note=63 velocity=0 time=0.079411725
EXTRACT: note_on channel=6 note=75 velocity=0 time=0.041176449999999996
EXTRACT: note_on channel=9 note=70 velocity=88 time=0.08823525
EXTRACT: note_on channel=6 note=63 velocity=32 time=0.00588235
EXTRACT: note_on channel=9 note=82 velocity=47 time=0
EXTRACT: note_on channel=9 note=42 velocity=99 time=0
EXTRACT: note_on channel=9 note=39 velocity=65 time=0
EXTRACT: note_on channel=9 note=40 velocity=89 time=0
EXTRACT: note_on channel=8 note=56 velocity=0 time=0.044117625
EXTRACT: note_on channel=1 note=54 velocity=0 time=0.02941175
EXTRACT: note_on channel=1 note=58 velocity=0 time=0.002941175
EXTRACT: note_on channel=1 note=75 velocity=0 time=0.002941175
EXTRACT: note_on channel=1 note=63 velocity=0 time=0
EXTRACT: note_on channel=1 note=59 velocity=0 time=0.002941175
EXTRACT: note_on channel=9 note=42 velocity=0 time=0.02941175
EXTRACT: note_on channel=9 note=70 velocity=0 time=0.014705875
EXTRACT: note_on channel=9 note=82 velocity=0 time=0.00588235
EXTRACT: note_on channel=9 note=39 velocity=0 time=0
EXTRACT: note_on channel=9 note=40 velocity=0 time=0
EXTRACT: control_change channel=6 control=64 value=0 time=0.00588235
EXTRACT: note_on channel=6 note=63 velocity=0 time=0.008823524999999999
EXTRACT: note_on channel=1 note=58 velocity=63 time=0.017647049999999997
EXTRACT: note_on channel=1 note=63 velocity=73 time=0
EXTRACT: note_on channel=1 note=73 velocity=81 time=0.00588235
EXTRACT: note_on channel=6 note=63 velocity=52 time=0.00588235
EXTRACT: note_on channel=6 note=73 velocity=63 time=0
EXTRACT: note_on channel=1 note=59 velocity=77 time=0.008823524999999999
EXTRACT: control_change channel=6 control=64 value=127 time=0.12352935
EXTRACT: note_on channel=9 note=42 velocity=77 time=0.044117625
EXTRACT: note_on channel=6 note=73 velocity=0 time=0.0117647
EXTRACT: note_on channel=6 note=63 velocity=0 time=0.032352925
EXTRACT: note_on channel=9 note=42 velocity=0 time=0.055882325
EXTRACT: note_on channel=1 note=63 velocity=0 time=0.138235225
EXTRACT: note_on channel=1 note=58 velocity=0 time=0
EXTRACT: control_change channel=1 control=64 value=0 time=0.0117647
EXTRACT: note_on channel=1 note=73 velocity=0 time=0.00588235
EXTRACT: note_on channel=1 note=59 velocity=0 time=0.0117647
EXTRACT: note_on channel=0 note=42 velocity=0 time=0.035294099999999995
EXTRACT: note_on channel=2 note=78 velocity=0 time=0.002941175
EXTRACT: note_on channel=2 note=73 velocity=0 time=0.0117647
EXTRACT: note_on channel=2 note=82 velocity=0 time=0.008823524999999999
EXTRACT: note_on channel=1 note=71 velocity=62 time=0.020588224999999998
EXTRACT: note_on channel=1 note=52 velocity=97 time=0.002941175
EXTRACT: note_on channel=2 note=83 velocity=57 time=0
EXTRACT: note_on channel=0 note=40 velocity=106 time=0.002941175
EXTRACT: note_on channel=2 note=80 velocity=40 time=0
EXTRACT: note_on channel=6 note=71 velocity=73 time=0
EXTRACT: note_on channel=6 note=63 velocity=59 time=0
EXTRACT: note_on channel=8 note=56 velocity=63 time=0
EXTRACT: note_on channel=9 note=46 velocity=59 time=0
EXTRACT: note_on channel=9 note=36 velocity=90 time=0
EXTRACT: note_on channel=9 note=35 velocity=90 time=0
EXTRACT: note_on channel=1 note=63 velocity=62 time=0.002941175
EXTRACT: note_on channel=1 note=59 velocity=58 time=0
EXTRACT: note_on channel=2 note=75 velocity=43 time=0
EXTRACT: note_on channel=1 note=56 velocity=84 time=0.002941175
EXTRACT: control_change channel=6 control=64 value=0 time=0.038235275
EXTRACT: control_change channel=6 control=64 value=127 time=0.073529375
EXTRACT: control_change channel=1 control=64 value=127 time=0.008823524999999999
EXTRACT: note_on channel=9 note=35 velocity=0 time=0.00588235
EXTRACT: note_on channel=9 note=36 velocity=0 time=0
EXTRACT: note_on channel=9 note=46 velocity=0 time=0
EXTRACT: note_on channel=1 note=63 velocity=0 time=0.126470525
EXTRACT: note_on channel=1 note=56 velocity=0 time=0.00588235
EXTRACT: note_on channel=1 note=59 velocity=0 time=0.00588235
EXTRACT: note_on channel=6 note=63 velocity=0 time=0.02941175
EXTRACT: note_on channel=6 note=71 velocity=0 time=0.026470575
EXTRACT: note_on channel=1 note=56 velocity=52 time=0.014705875
EXTRACT: note_on channel=1 note=59 velocity=34 time=0.008823524999999999
EXTRACT: note_on channel=6 note=63 velocity=31 time=0.002941175
EXTRACT: note_on channel=1 note=63 velocity=36 time=0.008823524999999999
EXTRACT: note_on channel=1 note=71 velocity=0 time=0.055882325
EXTRACT: note_on channel=1 note=52 velocity=0 time=0.00588235
EXTRACT: note_on channel=6 note=63 velocity=0 time=0.020588224999999998
EXTRACT: note_on channel=1 note=56 velocity=0 time=0.008823524999999999
EXTRACT: note_on channel=1 note=59 velocity=0 time=0.014705875
EXTRACT: note_on channel=1 note=63 velocity=0 time=0.002941175
EXTRACT: note_on channel=1 note=71 velocity=81 time=0.0470588
EXTRACT: note_on channel=6 note=63 velocity=49 time=0.0117647
EXTRACT: note_on channel=6 note=71 velocity=65 time=0
EXTRACT: note_on channel=9 note=35 velocity=90 time=0
EXTRACT: note_on channel=9 note=36 velocity=90 time=0
EXTRACT: note_on channel=1 note=56 velocity=63 time=0.002941175
EXTRACT: note_on channel=1 note=59 velocity=77 time=0.002941175
EXTRACT: note_on channel=1 note=63 velocity=73 time=0
EXTRACT: note_on channel=6 note=63 velocity=0 time=0.085294075
EXTRACT: note_on channel=6 note=71 velocity=0 time=0.0235294
EXTRACT: note_on channel=9 note=36 velocity=0 time=0.017647049999999997
EXTRACT: note_on channel=9 note=35 velocity=0 time=0
EXTRACT: note_on channel=9 note=70 velocity=88 time=0.026470575
EXTRACT: note_on channel=9 note=82 velocity=47 time=0.00588235
EXTRACT: note_on channel=9 note=42 velocity=99 time=0
EXTRACT: note_on channel=9 note=39 velocity=65 time=0
EXTRACT: note_on channel=9 note=40 velocity=89 time=0
EXTRACT: note_on channel=8 note=56 velocity=0 time=0.0117647
EXTRACT: note_on channel=9 note=42 velocity=0 time=0.08235289999999999
EXTRACT: note_on channel=9 note=70 velocity=0 time=0.032352925
EXTRACT: note_on channel=9 note=82 velocity=0 time=0.00588235
EXTRACT: note_on channel=9 note=39 velocity=0 time=0
EXTRACT: note_on channel=9 note=40 velocity=0 time=0
EXTRACT: note_on channel=6 note=63 velocity=32 time=0.055882325
EXTRACT: note_on channel=1 note=71 velocity=0 time=0.073529375
EXTRACT: note_on channel=1 note=56 velocity=0 time=0.002941175
EXTRACT: note_on channel=1 note=63 velocity=0 time=0.002941175
EXTRACT: note_on channel=1 note=59 velocity=0 time=0.008823524999999999
EXTRACT: note_on channel=6 note=63 velocity=0 time=0.014705875
EXTRACT: note_on channel=0 note=40 velocity=0 time=0.049999974999999995
EXTRACT: note_on channel=1 note=59 velocity=80 time=0.020588224999999998
EXTRACT: note_on channel=0 note=40 velocity=106 time=0.002941175
EXTRACT: note_on channel=1 note=56 velocity=73 time=0
EXTRACT: note_on channel=6 note=63 velocity=51 time=0
EXTRACT: note_on channel=6 note=71 velocity=71 time=0
EXTRACT: note_on channel=8 note=56 velocity=63 time=0
EXTRACT: note_on channel=9 note=46 velocity=49 time=0
EXTRACT: note_on channel=9 note=36 velocity=97 time=0
EXTRACT: note_on channel=9 note=35 velocity=97 time=0
EXTRACT: note_on channel=1 note=63 velocity=73 time=0.002941175
EXTRACT: note_on channel=1 note=52 velocity=52 time=0.00588235
EXTRACT: note_on channel=9 note=46 velocity=0 time=0.09117642499999999
EXTRACT: note_on channel=6 note=63 velocity=0 time=0.002941175
EXTRACT: note_on channel=6 note=71 velocity=0 time=0.020588224999999998
EXTRACT: note_on channel=9 note=35 velocity=0 time=0.008823524999999999
EXTRACT: note_on channel=9 note=36 velocity=0 time=0
EXTRACT: note_on channel=9 note=41 velocity=43 time=0.032352925
EXTRACT: note_on channel=9 note=41 velocity=0 time=0.13235287499999998
EXTRACT: note_on channel=9 note=42 velocity=76 time=0.055882325
EXTRACT: note_on channel=8 note=56 velocity=0 time=0.044117625
EXTRACT: note_on channel=1 note=63 velocity=0 time=0.032352925
EXTRACT: note_on channel=1 note=56 velocity=0 time=0
EXTRACT: note_on channel=1 note=59 velocity=0 time=0.002941175
EXTRACT: note_on channel=1 note=52 velocity=0 time=0.00588235
EXTRACT: note_on channel=9 note=42 velocity=0 time=0.017647049999999997
EXTRACT: note_on channel=9 note=70 velocity=57 time=0.061764675
EXTRACT: note_on channel=9 note=82 velocity=30 time=0.00588235
EXTRACT: note_on channel=6 note=63 velocity=30 time=0.00588235
EXTRACT: note_on channel=9 note=40 velocity=51 time=0
EXTRACT: pitchwheel channel=5 pitch=-1058 time=0.067647025
EXTRACT: pitchwheel channel=5 pitch=-2380 time=0.014705875
EXTRACT: note_on channel=6 note=63 velocity=0 time=0.014705875
EXTRACT: pitchwheel channel=5 pitch=-4229 time=0.002941175
EXTRACT: pitchwheel channel=5 pitch=-5814 time=0.014705875
EXTRACT: note_on channel=9 note=70 velocity=0 time=0.00588235
EXTRACT: note_on channel=9 note=82 velocity=0 time=0.00588235
EXTRACT: pitchwheel channel=5 pitch=-7400 time=0.002941175
EXTRACT: note_on channel=9 note=40 velocity=0 time=0.002941175
EXTRACT: pitchwheel channel=5 pitch=-8192 time=0.0117647
EXTRACT: note_on channel=1 note=63 velocity=65 time=0.020588224999999998
EXTRACT: note_on channel=9 note=46 velocity=51 time=0
EXTRACT: note_on channel=9 note=36 velocity=90 time=0
EXTRACT: note_on channel=9 note=35 velocity=90 time=0
EXTRACT: note_on channel=5 note=68 velocity=81 time=0.00588235
EXTRACT: note_on channel=0 note=40 velocity=0 time=0.002941175
EXTRACT: note_on channel=1 note=52 velocity=80 time=0
EXTRACT: note_on channel=0 note=42 velocity=99 time=0.002941175
EXTRACT: note_on channel=1 note=56 velocity=68 time=0
EXTRACT: note_on channel=6 note=63 velocity=49 time=0
EXTRACT: note_on channel=6 note=71 velocity=65 time=0
EXTRACT: note_on channel=8 note=56 velocity=63 time=0
EXTRACT: note_on channel=1 note=71 velocity=74 time=0.002941175
EXTRACT: note_on channel=1 note=59 velocity=83 time=0.002941175
EXTRACT: note_on channel=9 note=46 velocity=0 time=0.079411725
EXTRACT: pitchwheel channel=0 pitch=264 time=0.0117647
EXTRACT: note_on channel=6 note=63 velocity=0 time=0
EXTRACT: pitchwheel channel=0 pitch=792 time=0.014705875
EXTRACT: note_on channel=9 note=35 velocity=0 time=0.008823524999999999
EXTRACT: note_on channel=9 note=36 velocity=0 time=0
EXTRACT: pitchwheel channel=0 pitch=1321 time=0.008823524999999999
EXTRACT: pitchwheel channel=0 pitch=2113 time=0.014705875
EXTRACT: note_on channel=6 note=71 velocity=0 time=0.008823524999999999
EXTRACT: pitchwheel channel=0 pitch=2906 time=0.00588235
EXTRACT: pitchwheel channel=5 pitch=-7400 time=0.008823524999999999
EXTRACT: pitchwheel channel=0 pitch=3963 time=0.00588235
EXTRACT: pitchwheel channel=5 pitch=-5814 time=0.008823524999999999
EXTRACT: note_on channel=1 note=63 velocity=0 time=0.002941175
EXTRACT: pitchwheel channel=0 pitch=4756 time=0.00588235
EXTRACT: pitchwheel channel=5 pitch=-3701 time=0.00588235
EXTRACT: note_on channel=1 note=56 velocity=0 time=0.002941175
EXTRACT: pitchwheel channel=0 pitch=5548 time=0.00588235
EXTRACT: note_on channel=1 note=59 velocity=0 time=0.00588235
EXTRACT: pitchwheel channel=5 pitch=-1587 time=0
EXTRACT: pitchwheel channel=0 pitch=6341 time=0.008823524999999999
EXTRACT: pitchwheel channel=5 pitch=-530 time=0.008823524999999999
EXTRACT: pitchwheel channel=0 pitch=6869 time=0.00588235
EXTRACT: pitchwheel channel=5 pitch=0 time=0.008823524999999999
EXTRACT: pitchwheel channel=0 pitch=7662 time=0.00588235
EXTRACT: pitchwheel channel=0 pitch=8191 time=0.014705875
EXTRACT: pitchwheel channel=5 pitch=0 time=0.02941175
EXTRACT: note_on channel=5 note=73 velocity=82 time=0.020588224999999998
EXTRACT: note_on channel=1 note=56 velocity=42 time=0.02941175
EXTRACT: note_on channel=9 note=70 velocity=88 time=0.002941175
EXTRACT: note_on channel=6 note=63 velocity=32 time=0.00588235
EXTRACT: note_on channel=9 note=82 velocity=47 time=0
EXTRACT: note_on channel=9 note=42 velocity=99 time=0
EXTRACT: note_on channel=9 note=39 velocity=65 time=0
EXTRACT: note_on channel=9 note=40 velocity=89 time=0
EXTRACT: note_on channel=1 note=63 velocity=40 time=0.002941175
EXTRACT: note_on channel=1 note=59 velocity=53 time=0.002941175
EXTRACT: note_on channel=5 note=68 velocity=0 time=0.00588235
EXTRACT: note_on channel=8 note=56 velocity=0 time=0.032352925
EXTRACT: note_on channel=1 note=52 velocity=0 time=0.026470575
EXTRACT: note_on channel=1 note=71 velocity=0 time=0.017647049999999997
EXTRACT: note_on channel=6 note=63 velocity=0 time=0.00588235
EXTRACT: note_on channel=9 note=42 velocity=0 time=0.017647049999999997
EXTRACT: note_on channel=1 note=56 velocity=0 time=0.00588235
EXTRACT: note_on channel=1 note=63 velocity=0 time=0.008823524999999999
EXTRACT: note_on channel=9 note=70 velocity=0 time=0
EXTRACT: note_on channel=9 note=82 velocity=0 time=0.00588235
EXTRACT: note_on channel=9 note=39 velocity=0 time=0
EXTRACT: note_on channel=9 note=40 velocity=0 time=0
EXTRACT: note_on channel=1 note=59 velocity=0 time=0.008823524999999999
EXTRACT: note_on channel=5 note=68 velocity=83 time=0.008823524999999999
EXTRACT: note_on channel=1 note=59 velocity=77 time=0.017647049999999997
EXTRACT: note_on channel=1 note=63 velocity=73 time=0.002941175
EXTRACT: note_on channel=1 note=56 velocity=63 time=0
EXTRACT: note_on channel=0 note=45 velocity=108 time=0.00588235
EXTRACT: note_on channel=6 note=71 velocity=71 time=0
EXTRACT: note_on channel=6 note=63 velocity=52 time=0
EXTRACT: note_on channel=1 note=71 velocity=81 time=0.008823524999999999
EXTRACT: note_on channel=5 note=73 velocity=0 time=0
EXTRACT: note_on channel=0 note=42 velocity=0 time=0.017647049999999997
EXTRACT: note_on channel=6 note=63 velocity=0 time=0.067647025
EXTRACT: pitchwheel channel=5 pitch=-794 time=0.035294099999999995
EXTRACT: pitchwheel channel=5 pitch=-2380 time=0.017647049999999997
EXTRACT: pitchwheel channel=5 pitch=-4229 time=0.014705875
EXTRACT: note_on channel=6 note=71 velocity=0 time=0.008823524999999999
EXTRACT: pitchwheel channel=5 pitch=-5814 time=0.00588235
EXTRACT: note_on channel=9 note=42 velocity=77 time=0
EXTRACT: pitchwheel channel=5 pitch=-7400 time=0.014705875
EXTRACT: pitchwheel channel=5 pitch=-8192 time=0.017647049999999997
EXTRACT: note_on channel=9 note=42 velocity=0 time=0.067647025
EXTRACT: note_on channel=6 note=63 velocity=33 time=0.07647055
EXTRACT: note_on channel=1 note=63 velocity=0 time=0.067647025
EXTRACT: note_on channel=1 note=56 velocity=0 time=0.002941175
EXTRACT: control_change channel=1 control=64 value=0 time=0.002941175
EXTRACT: note_on channel=1 note=59 velocity=0 time=0
EXTRACT: note_on channel=1 note=71 velocity=0 time=0.020588224999999998
EXTRACT: control_change channel=6 control=64 value=0 time=0.00588235
EXTRACT: note_on channel=6 note=63 velocity=0 time=0.061764675
EXTRACT: note_on channel=1 note=73 velocity=68 time=0.002941175
EXTRACT: note_on channel=1 note=63 velocity=68 time=0
EXTRACT: note_on channel=1 note=54 velocity=92 time=0.002941175
EXTRACT: note_on channel=0 note=45 velocity=0 time=0.002941175
EXTRACT: pitchwheel channel=0 pitch=0 time=0
EXTRACT: note_on channel=1 note=58 velocity=83 time=0.002941175
EXTRACT: note_on channel=2 note=78 velocity=48 time=0
EXTRACT: note_on channel=0 note=42 velocity=106 time=0.002941175
EXTRACT: note_on channel=2 note=82 velocity=57 time=0
EXTRACT: note_on channel=2 note=73 velocity=49 time=0
EXTRACT: note_on channel=6 note=63 velocity=59 time=0
EXTRACT: note_on channel=6 note=73 velocity=72 time=0
EXTRACT: note_on channel=8 note=56 velocity=63 time=0
EXTRACT: note_on channel=9 note=46 velocity=59 time=0
EXTRACT: note_on channel=9 note=36 velocity=90 time=0
EXTRACT: note_on channel=9 note=35 velocity=90 time=0
EXTRACT: note_on channel=1 note=59 velocity=59 time=0.008823524999999999
EXTRACT: note_on channel=2 note=75 velocity=0 time=0.014705875
EXTRACT: note_on channel=2 note=80 velocity=0 time=0.00588235
EXTRACT: note_on channel=2 note=83 velocity=0 time=0.002941175
EXTRACT: control_change channel=6 control=64 value=127 time=0.061764675
EXTRACT: note_on channel=9 note=35 velocity=0 time=0.038235275
EXTRACT: note_on channel=9 note=36 velocity=0 time=0
EXTRACT: note_on channel=9 note=46 velocity=0 time=0
EXTRACT: note_on channel=6 note=63 velocity=0 time=0.13235287499999998
EXTRACT: note_on channel=5 note=68 velocity=0 time=0.073529375
EXTRACT: control_change channel=1 control=64 value=127 time=0.002941175
EXTRACT: note_on channel=5 note=63 velocity=75 time=0.00588235
EXTRACT: note_on channel=6 note=63 velocity=25 time=0.00588235
EXTRACT: note_on channel=1 note=73 velocity=0 time=0.0588235
EXTRACT: note_on channel=6 note=73 velocity=0 time=0
EXTRACT: note_on channel=1 note=63 velocity=0 time=0.002941175
EXTRACT: note_on channel=1 note=54 velocity=0 time=0.002941175
EXTRACT: note_on channel=1 note=58 velocity=0 time=0.008823524999999999
EXTRACT: note_on channel=6 note=63 velocity=0 time=0.014705875
EXTRACT: note_on channel=1 note=59 velocity=0 time=0.002941175
EXTRACT: pitchwheel channel=5 pitch=-7664 time=0.035294099999999995
EXTRACT: pitchwheel channel=5 pitch=-6607 time=0.017647049999999997
EXTRACT: pitchwheel channel=5 pitch=-5286 time=0.014705875
EXTRACT: note_on channel=1 note=59 velocity=77 time=0.0117647
EXTRACT: note_on channel=1 note=63 velocity=73 time=0.002941175
EXTRACT: pitchwheel channel=5 pitch=-4229 time=0
EXTRACT: note_on channel=6 note=63 velocity=44 time=0.002941175
EXTRACT: note_on channel=6 note=73 velocity=66 time=0
EXTRACT: note_on channel=9 note=35 velocity=90 time=0
EXTRACT: note_on channel=9 note=36 velocity=90 time=0
EXTRACT: note_on channel=1 note=58 velocity=63 time=0.00588235
EXTRACT: note_on channel=1 note=73 velocity=81 time=0.002941175
EXTRACT: pitchwheel channel=5 pitch=-2908 time=0.002941175
EXTRACT: pitchwheel channel=5 pitch=-1587 time=0.014705875
EXTRACT: pitchwheel channel=5 pitch=-530 time=0.014705875
EXTRACT: pitchwheel channel=5 pitch=0 time=0.014705875
EXTRACT: note_on channel=6 note=63 velocity=0 time=0.032352925
EXTRACT: pitchwheel channel=5 pitch=0 time=0.014705875
EXTRACT: note_on channel=6 note=73 velocity=0 time=0
EXTRACT: note_on channel=9 note=36 velocity=0 time=0.02941175
EXTRACT: note_on channel=9 note=35 velocity=0 time=0
EXTRACT: note_on channel=9 note=70 velocity=88 time=0.026470575
EXTRACT: note_on channel=9 note=82 velocity=47 time=0.00588235
EXTRACT: note_on channel=9 note=42 velocity=99 time=0
EXTRACT: note_on channel=9 note=39 velocity=65 time=0
EXTRACT: note_on channel=9 note=40 velocity=89 time=0
EXTRACT: note_on channel=8 note=56 velocity=0 time=0.0117647
EXTRACT: note_on channel=9 note=42 velocity=0 time=0.08235289999999999
EXTRACT: note_on channel=9 note=70 velocity=0 time=0.032352925
EXTRACT: note_on channel=9 note=82 velocity=0 time=0.00588235
EXTRACT: note_on channel=9 note=39 velocity=0 time=0
EXTRACT: note_on channel=9 note=40 velocity=0 time=0
EXTRACT: pitchwheel channel=5 pitch=598 time=0.02941175
EXTRACT: pitchwheel channel=5 pitch=1200 time=0.008823524999999999
EXTRACT: note_on channel=6 note=63 velocity=32 time=0.017647049999999997
EXTRACT: pitchwheel channel=5 pitch=0 time=0.044117625
EXTRACT: note_on channel=1 note=63 velocity=0 time=0.0235294
EXTRACT: note_on channel=1 note=59 velocity=0 time=0.008823524999999999
EXTRACT: note_on channel=1 note=58 velocity=0 time=0.002941175
EXTRACT: note_on channel=1 note=73 velocity=0 time=0.014705875
EXTRACT: note_on channel=6 note=63 velocity=0 time=0.017647049999999997
EXTRACT: note_on channel=0 note=42 velocity=0 time=0.041176449999999996
EXTRACT: note_on channel=1 note=63 velocity=73 time=0.020588224999999998
EXTRACT: note_on channel=0 note=42 velocity=106 time=0.002941175
EXTRACT: note_on channel=6 note=63 velocity=52 time=0
EXTRACT: note_on channel=6 note=73 velocity=71 time=0
EXTRACT: note_on channel=8 note=56 velocity=63 time=0
EXTRACT: note_on channel=9 note=46 velocity=49 time=0
EXTRACT: note_on channel=9 note=36 velocity=97 time=0
EXTRACT: note_on channel=9 note=35 velocity=97 time=0
EXTRACT: note_on channel=1 note=58 velocity=73 time=0.00588235
EXTRACT: note_on channel=1 note=54 velocity=52 time=0
EXTRACT: note_on channel=1 note=59 velocity=80 time=0
EXTRACT: pitchwheel channel=5 pitch=384 time=0
EXTRACT: pitchwheel channel=5 pitch=1154 time=0.014705875
EXTRACT: pitchwheel channel=5 pitch=1540 time=0.017647049999999997
EXTRACT: pitchwheel channel=5 pitch=1926 time=0.014705875
EXTRACT: note_on channel=9 note=46 velocity=0 time=0.0470588
EXTRACT: note_on channel=6 note=73 velocity=0 time=0.00588235
EXTRACT: note_on channel=6 note=63 velocity=0 time=0.00588235
EXTRACT: pitchwheel channel=5 pitch=769 time=0.002941175
EXTRACT: pitchwheel channel=5 pitch=384 time=0.014705875
EXTRACT: note_on channel=9 note=35 velocity=0 time=0.002941175
EXTRACT: note_on channel=9 note=36 velocity=0 time=0
EXTRACT: pitchwheel channel=5 pitch=0 time=0.014705875
EXTRACT: note_on channel=9 note=41 velocity=43 time=0.017647049999999997
EXTRACT: pitchwheel channel=5 pitch=283 time=0.0588235
EXTRACT: pitchwheel channel=5 pitch=853 time=0.014705875
EXTRACT: pitchwheel channel=5 pitch=1425 time=0.014705875
EXTRACT: pitchwheel channel=5 pitch=1710 time=0.014705875
EXTRACT: pitchwheel channel=5 pitch=1995 time=0.014705875
EXTRACT: note_on channel=9 note=41 velocity=0 time=0.014705875
EXTRACT: pitchwheel channel=5 pitch=1710 time=0.017647049999999997
EXTRACT: pitchwheel channel=5 pitch=1138 time=0.014705875
EXTRACT: pitchwheel channel=5 pitch=283 time=0.014705875
EXTRACT: note_on channel=9 note=42 velocity=76 time=0.008823524999999999
EXTRACT: pitchwheel channel=5 pitch=0 time=0.008823524999999999
EXTRACT: note_on channel=8 note=56 velocity=0 time=0.035294099999999995
EXTRACT: note_on channel=1 note=63 velocity=0 time=0.026470575
EXTRACT: note_on channel=1 note=58 velocity=0 time=0.0117647
EXTRACT: note_on channel=1 note=54 velocity=0 time=0
EXTRACT: pitchwheel channel=5 pitch=384 time=0.002941175
EXTRACT: note_on channel=1 note=59 velocity=0 time=0.002941175
EXTRACT: pitchwheel channel=5 pitch=769 time=0.0117647
EXTRACT: note_on channel=9 note=42 velocity=0 time=0.002941175
EXTRACT: pitchwheel channel=5 pitch=1540 time=0.0117647
EXTRACT: pitchwheel channel=5 pitch=1926 time=0.014705875
EXTRACT: note_on channel=9 note=70 velocity=57 time=0.035294099999999995
EXTRACT: note_on channel=1 note=59 velocity=45 time=0.00588235
EXTRACT: note_on channel=9 note=82 velocity=30 time=0
EXTRACT: note_on channel=1 note=73 velocity=51 time=0.002941175
EXTRACT: note_on channel=6 note=63 velocity=34 time=0.002941175
EXTRACT: note_on channel=9 note=40 velocity=51 time=0
EXTRACT: note_on channel=1 note=58 velocity=41 time=0.002941175
EXTRACT: note_on channel=1 note=63 velocity=43 time=0.002941175
EXTRACT: pitchwheel channel=5 pitch=1540 time=0.0117647
EXTRACT: pitchwheel channel=5 pitch=769 time=0.014705875
EXTRACT: pitchwheel channel=5 pitch=0 time=0.014705875
EXTRACT: note_on channel=9 note=70 velocity=0 time=0.073529375
EXTRACT: note_on channel=1 note=73 velocity=0 time=0.00588235
EXTRACT: note_on channel=9 note=82 velocity=0 time=0
EXTRACT: note_on channel=9 note=40 velocity=0 time=0.00588235
EXTRACT: note_on channel=1 note=59 velocity=0 time=0.002941175
EXTRACT: note_on channel=1 note=58 velocity=0 time=0
EXTRACT: note_on channel=1 note=63 velocity=0 time=0
EXTRACT: note_on channel=6 note=63 velocity=0 time=0.008823524999999999
EXTRACT: pitchwheel channel=5 pitch=384 time=0.0117647
EXTRACT: control_change channel=6 control=64 value=0 time=0
EXTRACT: note_on channel=0 note=42 velocity=0 time=0.002941175
EXTRACT: note_on channel=9 note=46 velocity=51 time=0.00588235
EXTRACT: note_on channel=9 note=36 velocity=90 time=0
EXTRACT: note_on channel=9 note=35 velocity=90 time=0
EXTRACT: note_on channel=1 note=75 velocity=71 time=0.00588235
EXTRACT: pitchwheel channel=5 pitch=769 time=0
EXTRACT: note_on channel=0 note=42 velocity=106 time=0.00588235
EXTRACT: note_on channel=1 note=54 velocity=75 time=0
EXTRACT: note_on channel=1 note=59 velocity=80 time=0
EXTRACT: note_on channel=6 note=75 velocity=68 time=0
EXTRACT: note_on channel=6 note=63 velocity=55 time=0
EXTRACT: note_on channel=8 note=56 velocity=63 time=0
EXTRACT: note_on channel=1 note=58 velocity=64 time=0.002941175
EXTRACT: note_on channel=1 note=63 velocity=63 time=0.002941175
EXTRACT: pitchwheel channel=5 pitch=1154 time=0.002941175
EXTRACT: pitchwheel channel=5 pitch=769 time=0.0470588
EXTRACT: pitchwheel channel=5 pitch=384 time=0.014705875
EXTRACT: pitchwheel channel=5 pitch=0 time=0.014705875
EXTRACT: note_on channel=9 note=46 velocity=0 time=0
EXTRACT: note_on channel=9 note=35 velocity=0 time=0.035294099999999995
EXTRACT: note_on channel=9 note=36 velocity=0 time=0
EXTRACT: control_change channel=6 control=64 value=127 time=0.017647049999999997
EXTRACT: pitchwheel channel=5 pitch=384 time=0.041176449999999996
EXTRACT: pitchwheel channel=5 pitch=769 time=0.014705875
EXTRACT: pitchwheel channel=5 pitch=1154 time=0.014705875
EXTRACT: note_on channel=6 note=63 velocity=0 time=0.008823524999999999
EXTRACT: pitchwheel channel=5 pitch=1540 time=0.008823524999999999
EXTRACT: note_on channel=6 note=75 velocity=0 time=0.032352925
EXTRACT: pitchwheel channel=5 pitch=769 time=0.0117647
EXTRACT: pitchwheel channel=5 pitch=384 time=0.017647049999999997
EXTRACT: pitchwheel channel=5 pitch=0 time=0.014705875
EXTRACT: note_on channel=9 note=70 velocity=88 time=0.044117625
EXTRACT: note_on channel=6 note=63 velocity=32 time=0.00588235
EXTRACT: note_on channel=9 note=82 velocity=47 time=0
EXTRACT: note_on channel=9 note=42 velocity=99 time=0
EXTRACT: note_on channel=9 note=39 velocity=65 time=0
EXTRACT: note_on channel=9 note=40 velocity=89 time=0
EXTRACT: pitchwheel channel=5 pitch=384 time=0.041176449999999996
EXTRACT: note_on channel=8 note=56 velocity=0 time=0.002941175
EXTRACT: pitchwheel channel=5 pitch=1154 time=0.0117647
EXTRACT: note_on channel=1 note=54 velocity=0 time=0.017647049999999997
EXTRACT: note_on channel=1 note=58 velocity=0 time=0.002941175
EXTRACT: note_on channel=1 note=75 velocity=0 time=0.002941175
EXTRACT: note_on channel=1 note=63 velocity=0 time=0
EXTRACT: note_on channel=1 note=59 velocity=0 time=0.002941175
EXTRACT: pitchwheel channel=5 pitch=1540 time=0.00588235
EXTRACT: note_on channel=9 note=42 velocity=0 time=0.0235294
EXTRACT: pitchwheel channel=5 pitch=1154 time=0.008823524999999999
EXTRACT: note_on channel=9 note=70 velocity=0 time=0.00588235
EXTRACT: note_on channel=9 note=82 velocity=0 time=0.00588235
EXTRACT: note_on channel=9 note=39 velocity=0 time=0
EXTRACT: note_on channel=9 note=40 velocity=0 time=0
EXTRACT: pitchwheel channel=5 pitch=384 time=0.002941175
EXTRACT: control_change channel=6 control=64 value=0 time=0.002941175
EXTRACT: note_on channel=6 note=63 velocity=0 time=0.008823524999999999
EXTRACT: pitchwheel channel=5 pitch=0 time=0.002941175
EXTRACT: note_on channel=1 note=58 velocity=63 time=0.014705875
EXTRACT: note_on channel=1 note=63 velocity=73 time=0
EXTRACT: note_on channel=1 note=73 velocity=81 time=0.00588235
EXTRACT: note_on channel=6 note=63 velocity=52 time=0.00588235
EXTRACT: note_on channel=6 note=73 velocity=63 time=0
EXTRACT: note_on channel=1 note=59 velocity=77 time=0.008823524999999999
EXTRACT: pitchwheel channel=5 pitch=384 time=0.044117625
EXTRACT: pitchwheel channel=5 pitch=769 time=0.014705875
EXTRACT: pitchwheel channel=5 pitch=1540 time=0.014705875
EXTRACT: pitchwheel channel=5 pitch=1926 time=0.014705875
EXTRACT: control_change channel=6 control=64 value=127 time=0.035294099999999995
EXTRACT: pitchwheel channel=5 pitch=1540 time=0.0117647
EXTRACT: note_on channel=0 note=42 velocity=0 time=0.014705875
EXTRACT: pitchwheel channel=5 pitch=384 time=0
EXTRACT: pitchwheel channel=5 pitch=0 time=0.014705875
EXTRACT: note_on channel=0 note=35 velocity=78 time=0.002941175
EXTRACT: note_on channel=9 note=42 velocity=77 time=0
EXTRACT: note_on channel=6 note=73 velocity=0 time=0.0117647
EXTRACT: note_on channel=6 note=63 velocity=0 time=0.032352925
EXTRACT: pitchwheel channel=5 pitch=384 time=0.032352925
EXTRACT: pitchwheel channel=5 pitch=1154 time=0.014705875
EXTRACT: note_on channel=9 note=42 velocity=0 time=0.008823524999999999
EXTRACT: pitchwheel channel=5 pitch=1540 time=0.008823524999999999
EXTRACT: pitchwheel channel=5 pitch=1926 time=0.014705875
EXTRACT: pitchwheel channel=5 pitch=1154 time=0.0470588
EXTRACT: note_on channel=0 note=37 velocity=87 time=0.00588235
EXTRACT: pitchwheel channel=5 pitch=384 time=0.00588235
EXTRACT: pitchwheel channel=5 pitch=0 time=0.017647049999999997
EXTRACT: note_on channel=0 note=35 velocity=0 time=0.00588235
EXTRACT: note_on channel=1 note=63 velocity=0 time=0.032352925
EXTRACT: note_on channel=1 note=58 velocity=0 time=0
EXTRACT: control_change channel=1 control=64 value=0 time=0.0117647
EXTRACT: note_on channel=1 note=73 velocity=0 time=0.00588235
EXTRACT: note_on channel=1 note=59 velocity=0 time=0.0117647
EXTRACT: note_on channel=2 note=78 velocity=0 time=0.038235275
EXTRACT: pitchwheel channel=5 pitch=0 time=0.008823524999999999
EXTRACT: note_on channel=2 note=73 velocity=0 time=0.002941175
EXTRACT: note_on channel=2 note=82 velocity=0 time=0.008823524999999999
EXTRACT: note_on channel=1 note=71 velocity=62 time=0.020588224999999998
EXTRACT: note_on channel=1 note=52 velocity=97 time=0.002941175
EXTRACT: note_on channel=2 note=83 velocity=57 time=0
EXTRACT: note_on channel=0 note=40 velocity=106 time=0.002941175
EXTRACT: note_on channel=2 note=80 velocity=40 time=0
EXTRACT: note_on channel=6 note=71 velocity=73 time=0
EXTRACT: note_on channel=6 note=63 velocity=59 time=0
EXTRACT: note_on channel=8 note=56 velocity=63 time=0
EXTRACT: note_on channel=9 note=46 velocity=59 time=0
EXTRACT: note_on channel=9 note=36 velocity=90 time=0
EXTRACT: note_on channel=9 note=35 velocity=90 time=0
EXTRACT: note_on channel=0 note=37 velocity=0 time=0.002941175
EXTRACT: note_on channel=1 note=63 velocity=62 time=0
EXTRACT: note_on channel=1 note=59 velocity=58 time=0
EXTRACT: note_on channel=2 note=75 velocity=43 time=0
EXTRACT: note_on channel=1 note=56 velocity=84 time=0.002941175
EXTRACT: control_change channel=6 control=64 value=0 time=0.038235275
EXTRACT: note_on channel=5 note=63 velocity=0 time=0.008823524999999999
EXTRACT: control_change channel=6 control=64 value=127 time=0.06470585
EXTRACT: control_change channel=1 control=64 value=127 time=0.008823524999999999
EXTRACT: note_on channel=9 note=35 velocity=0 time=0.00588235
EXTRACT: note_on channel=9 note=36 velocity=0 time=0
EXTRACT: note_on channel=9 note=46 velocity=0 time=0
EXTRACT: note_on channel=1 note=63 velocity=0 time=0.126470525
EXTRACT: note_on channel=1 note=56 velocity=0 time=0.00588235
EXTRACT: note_on channel=1 note=59 velocity=0 time=0.00588235
EXTRACT: note_on channel=6 note=63 velocity=0 time=0.02941175
EXTRACT: note_on channel=6 note=71 velocity=0 time=0.026470575
EXTRACT: note_on channel=1 note=56 velocity=52 time=0.014705875
EXTRACT: note_on channel=1 note=59 velocity=34 time=0.008823524999999999
EXTRACT: note_on channel=6 note=63 velocity=31 time=0.002941175
EXTRACT: note_on channel=1 note=63 velocity=36 time=0.008823524999999999
EXTRACT: note_on channel=1 note=71 velocity=0 time=0.055882325
EXTRACT: note_on channel=1 note=52 velocity=0 time=0.00588235
EXTRACT: note_on channel=6 note=63 velocity=0 time=0.020588224999999998
EXTRACT: note_on channel=1 note=56 velocity=0 time=0.008823524999999999
EXTRACT: note_on channel=1 note=59 velocity=0 time=0.014705875
EXTRACT: note_on channel=1 note=63 velocity=0 time=0.002941175
EXTRACT: note_on channel=1 note=71 velocity=81 time=0.0470588
EXTRACT: note_on channel=6 note=63 velocity=49 time=0.0117647
EXTRACT: note_on channel=6 note=71 velocity=65 time=0
EXTRACT: note_on channel=9 note=35 velocity=90 time=0
EXTRACT: note_on channel=9 note=36 velocity=90 time=0
EXTRACT: note_on channel=1 note=56 velocity=63 time=0.002941175
EXTRACT: note_on channel=1 note=59 velocity=77 time=0.002941175
EXTRACT: note_on channel=1 note=63 velocity=73 time=0
EXTRACT: note_on channel=6 note=63 velocity=0 time=0.085294075
EXTRACT: note_on channel=6 note=71 velocity=0 time=0.0235294
EXTRACT: note_on channel=9 note=36 velocity=0 time=0.017647049999999997
EXTRACT: note_on channel=9 note=35 velocity=0 time=0
EXTRACT: note_on channel=9 note=70 velocity=88 time=0.026470575
EXTRACT: note_on channel=9 note=82 velocity=47 time=0.00588235
EXTRACT: note_on channel=9 note=42 velocity=99 time=0
EXTRACT: note_on channel=9 note=39 velocity=65 time=0
EXTRACT: note_on channel=9 note=40 velocity=89 time=0
EXTRACT: note_on channel=8 note=56 velocity=0 time=0.0117647
EXTRACT: note_on channel=9 note=42 velocity=0 time=0.08235289999999999
EXTRACT: note_on channel=9 note=70 velocity=0 time=0.032352925
EXTRACT: note_on channel=9 note=82 velocity=0 time=0.00588235
EXTRACT: note_on channel=9 note=39 velocity=0 time=0
EXTRACT: note_on channel=9 note=40 velocity=0 time=0
EXTRACT: note_on channel=6 note=63 velocity=32 time=0.055882325
EXTRACT: note_on channel=1 note=71 velocity=0 time=0.073529375
EXTRACT: note_on channel=1 note=56 velocity=0 time=0.002941175
EXTRACT: note_on channel=1 note=63 velocity=0 time=0.002941175
EXTRACT: note_on channel=1 note=59 velocity=0 time=0.008823524999999999
EXTRACT: note_on channel=6 note=63 velocity=0 time=0.014705875
EXTRACT: note_on channel=0 note=40 velocity=0 time=0.049999974999999995
EXTRACT: note_on channel=1 note=59 velocity=80 time=0.020588224999999998
EXTRACT: note_on channel=0 note=40 velocity=106 time=0.002941175
EXTRACT: note_on channel=1 note=56 velocity=73 time=0
EXTRACT: note_on channel=6 note=63 velocity=51 time=0
EXTRACT: note_on channel=6 note=71 velocity=71 time=0
EXTRACT: note_on channel=8 note=56 velocity=63 time=0
EXTRACT: note_on channel=9 note=46 velocity=49 time=0
EXTRACT: note_on channel=9 note=36 velocity=97 time=0
EXTRACT: note_on channel=9 note=35 velocity=97 time=0
EXTRACT: note_on channel=1 note=63 velocity=73 time=0.002941175
EXTRACT: note_on channel=1 note=52 velocity=52 time=0.00588235
EXTRACT: note_on channel=9 note=46 velocity=0 time=0.09117642499999999
EXTRACT: note_on channel=6 note=63 velocity=0 time=0.002941175
EXTRACT: note_on channel=6 note=71 velocity=0 time=0.020588224999999998
EXTRACT: note_on channel=9 note=35 velocity=0 time=0.008823524999999999
EXTRACT: note_on channel=9 note=36 velocity=0 time=0
EXTRACT: note_on channel=9 note=41 velocity=43 time=0.032352925
EXTRACT: note_on channel=9 note=41 velocity=0 time=0.13235287499999998
EXTRACT: note_on channel=9 note=42 velocity=76 time=0.055882325
EXTRACT: note_on channel=8 note=56 velocity=0 time=0.044117625
EXTRACT: note_on channel=1 note=63 velocity=0 time=0.032352925
EXTRACT: note_on channel=1 note=56 velocity=0 time=0
EXTRACT: note_on channel=1 note=59 velocity=0 time=0.002941175
EXTRACT: note_on channel=1 note=52 velocity=0 time=0.00588235
EXTRACT: note_on channel=9 note=42 velocity=0 time=0.017647049999999997
EXTRACT: note_on channel=9 note=70 velocity=57 time=0.061764675
EXTRACT: note_on channel=9 note=82 velocity=30 time=0.00588235
EXTRACT: note_on channel=6 note=63 velocity=30 time=0.00588235
EXTRACT: note_on channel=9 note=40 velocity=51 time=0
EXTRACT: note_on channel=6 note=63 velocity=0 time=0.097058775
EXTRACT: note_on channel=9 note=70 velocity=0 time=0.0235294
EXTRACT: note_on channel=9 note=82 velocity=0 time=0.00588235
EXTRACT: note_on channel=9 note=40 velocity=0 time=0.00588235
EXTRACT: note_on channel=0 note=40 velocity=0 time=0.02941175
EXTRACT: note_on channel=1 note=63 velocity=65 time=0.002941175
EXTRACT: note_on channel=9 note=46 velocity=51 time=0
EXTRACT: note_on channel=9 note=36 velocity=90 time=0
EXTRACT: note_on channel=9 note=35 velocity=90 time=0
EXTRACT: note_on channel=5 note=66 velocity=81 time=0.00588235
EXTRACT: note_on channel=1 note=52 velocity=80 time=0.002941175
EXTRACT: note_on channel=0 note=40 velocity=106 time=0.002941175
EXTRACT: note_on channel=1 note=56 velocity=68 time=0
EXTRACT: note_on channel=6 note=63 velocity=49 time=0
EXTRACT: note_on channel=6 note=71 velocity=65 time=0
EXTRACT: note_on channel=8 note=56 velocity=63 time=0
EXTRACT: note_on channel=1 note=71 velocity=74 time=0.002941175
EXTRACT: note_on channel=1 note=59 velocity=83 time=0.002941175
EXTRACT: note_on channel=9 note=46 velocity=0 time=0.079411725
EXTRACT: note_on channel=6 note=63 velocity=0 time=0.0117647
EXTRACT: note_on channel=9 note=35 velocity=0 time=0.0235294
EXTRACT: note_on channel=9 note=36 velocity=0 time=0
EXTRACT: note_on channel=6 note=71 velocity=0 time=0.032352925
EXTRACT: pitchwheel channel=5 pitch=792 time=0.014705875
EXTRACT: pitchwheel channel=5 pitch=2378 time=0.014705875
EXTRACT: note_on channel=1 note=63 velocity=0 time=0.002941175
EXTRACT: pitchwheel channel=5 pitch=4491 time=0.0117647
EXTRACT: note_on channel=1 note=56 velocity=0 time=0.002941175
EXTRACT: note_on channel=1 note=59 velocity=0 time=0.0117647
EXTRACT: pitchwheel channel=5 pitch=6605 time=0
EXTRACT: pitchwheel channel=5 pitch=7662 time=0.017647049999999997
EXTRACT: pitchwheel channel=5 pitch=8191 time=0.014705875
EXTRACT: note_on channel=5 note=71 velocity=78 time=0.07058819999999999
EXTRACT: note_on channel=1 note=56 velocity=42 time=0.02941175
EXTRACT: note_on channel=9 note=70 velocity=88 time=0.002941175
EXTRACT: note_on channel=6 note=63 velocity=32 time=0.00588235
EXTRACT: note_on channel=9 note=82 velocity=47 time=0
EXTRACT: note_on channel=9 note=42 velocity=99 time=0
EXTRACT: note_on channel=9 note=39 velocity=65 time=0
EXTRACT: note_on channel=9 note=40 velocity=89 time=0
EXTRACT: note_on channel=1 note=63 velocity=40 time=0.002941175
EXTRACT: note_on channel=1 note=59 velocity=53 time=0.002941175
EXTRACT: note_on channel=5 note=66 velocity=0 time=0.00588235
EXTRACT: note_on channel=8 note=56 velocity=0 time=0.032352925
EXTRACT: note_on channel=1 note=52 velocity=0 time=0.026470575
EXTRACT: note_on channel=1 note=71 velocity=0 time=0.017647049999999997
EXTRACT: note_on channel=6 note=63 velocity=0 time=0.00588235
EXTRACT: note_on channel=9 note=42 velocity=0 time=0.017647049999999997
EXTRACT: note_on channel=1 note=56 velocity=0 time=0.00588235
EXTRACT: note_on channel=1 note=63 velocity=0 time=0.008823524999999999
EXTRACT: note_on channel=9 note=70 velocity=0 time=0
EXTRACT: note_on channel=9 note=82 velocity=0 time=0.00588235
EXTRACT: note_on channel=9 note=39 velocity=0 time=0
EXTRACT: note_on channel=9 note=40 velocity=0 time=0
EXTRACT: note_on channel=1 note=59 velocity=0 time=0.008823524999999999
EXTRACT: note_on channel=5 note=66 velocity=83 time=0.008823524999999999
EXTRACT: note_on channel=1 note=59 velocity=77 time=0.017647049999999997
EXTRACT: note_on channel=1 note=63 velocity=73 time=0.002941175
EXTRACT: note_on channel=1 note=56 velocity=63 time=0
EXTRACT: note_on channel=6 note=71 velocity=71 time=0.00588235
EXTRACT: note_on channel=6 note=63 velocity=52 time=0
EXTRACT: note_on channel=1 note=71 velocity=81 time=0.008823524999999999
EXTRACT: note_on channel=5 note=71 velocity=0 time=0
EXTRACT: note_on channel=6 note=63 velocity=0 time=0.085294075
EXTRACT: pitchwheel channel=5 pitch=7398 time=0.035294099999999995
EXTRACT: pitchwheel channel=5 pitch=5812 time=0.017647049999999997
EXTRACT: pitchwheel channel=5 pitch=3963 time=0.014705875
EXTRACT: note_on channel=6 note=71 velocity=0 time=0.008823524999999999
EXTRACT: pitchwheel channel=5 pitch=2378 time=0.00588235
EXTRACT: note_on channel=9 note=42 velocity=77 time=0
EXTRACT: pitchwheel channel=5 pitch=792 time=0.014705875
EXTRACT: pitchwheel channel=5 pitch=0 time=0.017647049999999997
EXTRACT: note_on channel=9 note=42 velocity=0 time=0.067647025
EXTRACT: pitchwheel channel=5 pitch=0 time=0.073529375
EXTRACT: note_on channel=6 note=63 velocity=33 time=0.002941175
EXTRACT: note_on channel=1 note=63 velocity=0 time=0.067647025
EXTRACT: note_on channel=1 note=56 velocity=0 time=0.002941175
EXTRACT: control_change channel=1 control=64 value=0 time=0.002941175
EXTRACT: note_on channel=1 note=59 velocity=0 time=0
EXTRACT: note_on channel=1 note=71 velocity=0 time=0.020588224999999998
EXTRACT: control_change channel=6 control=64 value=0 time=0.00588235
EXTRACT: note_on channel=0 note=40 velocity=0 time=0.0117647
EXTRACT: note_on channel=6 note=63 velocity=0 time=0.049999974999999995
EXTRACT: note_on channel=1 note=73 velocity=68 time=0.002941175
EXTRACT: note_on channel=1 note=63 velocity=68 time=0
EXTRACT: note_on channel=1 note=54 velocity=92 time=0.002941175
EXTRACT: note_on channel=1 note=58 velocity=83 time=0.00588235
EXTRACT: note_on channel=2 note=78 velocity=48 time=0
EXTRACT: note_on channel=0 note=42 velocity=106 time=0.002941175
EXTRACT: note_on channel=2 note=82 velocity=57 time=0
EXTRACT: note_on channel=2 note=73 velocity=49 time=0
EXTRACT: note_on channel=6 note=63 velocity=59 time=0
EXTRACT: note_on channel=6 note=73 velocity=72 time=0
EXTRACT: note_on channel=8 note=56 velocity=63 time=0
EXTRACT: note_on channel=9 note=46 velocity=59 time=0
EXTRACT: note_on channel=9 note=36 velocity=90 time=0
EXTRACT: note_on channel=9 note=35 velocity=90 time=0
EXTRACT: note_on channel=1 note=59 velocity=59 time=0.008823524999999999
EXTRACT: note_on channel=2 note=75 velocity=0 time=0.014705875
EXTRACT: note_on channel=2 note=80 velocity=0 time=0.00588235
EXTRACT: note_on channel=2 note=83 velocity=0 time=0.002941175
EXTRACT: control_change channel=6 control=64 value=127 time=0.061764675
EXTRACT: note_on channel=9 note=35 velocity=0 time=0.038235275
EXTRACT: note_on channel=9 note=36 velocity=0 time=0
EXTRACT: note_on channel=9 note=46 velocity=0 time=0
EXTRACT: note_on channel=6 note=63 velocity=0 time=0.13235287499999998
EXTRACT: control_change channel=1 control=64 value=127 time=0.07647055
EXTRACT: note_on channel=6 note=63 velocity=25 time=0.0117647
EXTRACT: note_on channel=1 note=73 velocity=0 time=0.0588235
EXTRACT: note_on channel=6 note=73 velocity=0 time=0
EXTRACT: note_on channel=1 note=63 velocity=0 time=0.002941175
EXTRACT: note_on channel=1 note=54 velocity=0 time=0.002941175
EXTRACT: note_on channel=1 note=58 velocity=0 time=0.008823524999999999
EXTRACT: note_on channel=6 note=63 velocity=0 time=0.014705875
EXTRACT: note_on channel=1 note=59 velocity=0 time=0.002941175
EXTRACT: note_on channel=1 note=59 velocity=77 time=0.079411725
EXTRACT: note_on channel=1 note=63 velocity=73 time=0.002941175
EXTRACT: note_on channel=6 note=63 velocity=44 time=0.002941175
EXTRACT: note_on channel=6 note=73 velocity=66 time=0
EXTRACT: note_on channel=9 note=35 velocity=90 time=0
EXTRACT: note_on channel=9 note=36 velocity=90 time=0
EXTRACT: note_on channel=1 note=58 velocity=63 time=0.00588235
EXTRACT: note_on channel=1 note=73 velocity=81 time=0.002941175
EXTRACT: note_on channel=6 note=63 velocity=0 time=0.079411725
EXTRACT: note_on channel=6 note=73 velocity=0 time=0.014705875
EXTRACT: note_on channel=9 note=36 velocity=0 time=0.02941175
EXTRACT: note_on channel=9 note=35 velocity=0 time=0
EXTRACT: note_on channel=9 note=70 velocity=88 time=0.026470575
EXTRACT: note_on channel=9 note=82 velocity=47 time=0.00588235
EXTRACT: note_on channel=9 note=42 velocity=99 time=0
EXTRACT: note_on channel=9 note=39 velocity=65 time=0
EXTRACT: note_on channel=9 note=40 velocity=89 time=0
EXTRACT: note_on channel=8 note=56 velocity=0 time=0.0117647
EXTRACT: note_on channel=9 note=42 velocity=0 time=0.08235289999999999
EXTRACT: note_on channel=9 note=70 velocity=0 time=0.032352925
EXTRACT: note_on channel=9 note=82 velocity=0 time=0.00588235
EXTRACT: note_on channel=9 note=39 velocity=0 time=0
EXTRACT: note_on channel=9 note=40 velocity=0 time=0
EXTRACT: note_on channel=6 note=63 velocity=32 time=0.055882325
EXTRACT: note_on channel=1 note=63 velocity=0 time=0.067647025
EXTRACT: note_on channel=1 note=59 velocity=0 time=0.008823524999999999
EXTRACT: note_on channel=1 note=58 velocity=0 time=0.002941175
EXTRACT: note_on channel=1 note=73 velocity=0 time=0.014705875
EXTRACT: note_on channel=6 note=63 velocity=0 time=0.017647049999999997
EXTRACT: note_on channel=0 note=42 velocity=0 time=0.041176449999999996
EXTRACT: note_on channel=1 note=63 velocity=73 time=0.020588224999999998
EXTRACT: note_on channel=0 note=42 velocity=106 time=0.002941175
EXTRACT: note_on channel=6 note=63 velocity=52 time=0
EXTRACT: note_on channel=6 note=73 velocity=71 time=0
EXTRACT: note_on channel=8 note=56 velocity=63 time=0
EXTRACT: note_on channel=9 note=46 velocity=49 time=0
EXTRACT: note_on channel=9 note=36 velocity=97 time=0
EXTRACT: note_on channel=9 note=35 velocity=97 time=0
EXTRACT: note_on channel=1 note=58 velocity=73 time=0.00588235
EXTRACT: note_on channel=1 note=54 velocity=52 time=0
EXTRACT: note_on channel=1 note=59 velocity=80 time=0
EXTRACT: note_on channel=9 note=46 velocity=0 time=0.0941176
EXTRACT: note_on channel=6 note=73 velocity=0 time=0.00588235
EXTRACT: note_on channel=6 note=63 velocity=0 time=0.00588235
EXTRACT: note_on channel=9 note=35 velocity=0 time=0.020588224999999998
EXTRACT: note_on channel=9 note=36 velocity=0 time=0
EXTRACT: note_on channel=9 note=41 velocity=43 time=0.032352925
EXTRACT: note_on channel=9 note=41 velocity=0 time=0.13235287499999998
EXTRACT: note_on channel=9 note=42 velocity=76 time=0.055882325
EXTRACT: note_on channel=8 note=56 velocity=0 time=0.044117625
EXTRACT: note_on channel=1 note=63 velocity=0 time=0.026470575
EXTRACT: note_on channel=1 note=58 velocity=0 time=0.0117647
EXTRACT: note_on channel=1 note=54 velocity=0 time=0
EXTRACT: note_on channel=1 note=59 velocity=0 time=0.00588235
EXTRACT: note_on channel=9 note=42 velocity=0 time=0.014705875
EXTRACT: note_on channel=9 note=70 velocity=57 time=0.061764675
EXTRACT: note_on channel=1 note=59 velocity=45 time=0.00588235
EXTRACT: note_on channel=9 note=82 velocity=30 time=0
EXTRACT: note_on channel=1 note=73 velocity=51 time=0.002941175
EXTRACT: note_on channel=6 note=63 velocity=34 time=0.002941175
EXTRACT: note_on channel=9 note=40 velocity=51 time=0
EXTRACT: note_on channel=1 note=58 velocity=41 time=0.002941175
EXTRACT: note_on channel=1 note=63 velocity=43 time=0.002941175
EXTRACT: note_on channel=9 note=70 velocity=0 time=0.114705825
EXTRACT: note_on channel=1 note=73 velocity=0 time=0.00588235
EXTRACT: note_on channel=9 note=82 velocity=0 time=0
EXTRACT: note_on channel=9 note=40 velocity=0 time=0.00588235
EXTRACT: note_on channel=1 note=59 velocity=0 time=0.002941175
EXTRACT: note_on channel=1 note=58 velocity=0 time=0
EXTRACT: note_on channel=1 note=63 velocity=0 time=0
EXTRACT: note_on channel=6 note=63 velocity=0 time=0.008823524999999999
EXTRACT: note_on channel=0 note=42 velocity=0 time=0.002941175
EXTRACT: control_change channel=6 control=64 value=0 time=0.008823524999999999
EXTRACT: note_on channel=9 note=46 velocity=51 time=0.008823524999999999
EXTRACT: note_on channel=9 note=36 velocity=90 time=0
EXTRACT: note_on channel=9 note=35 velocity=90 time=0
EXTRACT: note_on channel=1 note=75 velocity=71 time=0.00588235
EXTRACT: note_on channel=0 note=42 velocity=96 time=0.00588235
EXTRACT: note_on channel=1 note=54 velocity=75 time=0
EXTRACT: note_on channel=1 note=59 velocity=80 time=0
EXTRACT: note_on channel=6 note=75 velocity=68 time=0
EXTRACT: note_on channel=6 note=63 velocity=55 time=0
EXTRACT: note_on channel=8 note=56 velocity=63 time=0
EXTRACT: note_on channel=1 note=58 velocity=64 time=0.002941175
EXTRACT: note_on channel=1 note=63 velocity=63 time=0.002941175
EXTRACT: pitchwheel channel=0 pitch=792 time=0.05294115
EXTRACT: pitchwheel channel=0 pitch=2378 time=0.014705875
EXTRACT: note_on channel=9 note=46 velocity=0 time=0.0117647
EXTRACT: pitchwheel channel=0 pitch=4227 time=0.002941175
EXTRACT: pitchwheel channel=0 pitch=5812 time=0.017647049999999997
EXTRACT: pitchwheel channel=0 pitch=7134 time=0.014705875
EXTRACT: note_on channel=9 note=35 velocity=0 time=0
EXTRACT: note_on channel=9 note=36 velocity=0 time=0
EXTRACT: pitchwheel channel=0 pitch=8191 time=0.014705875
EXTRACT: control_change channel=6 control=64 value=127 time=0.002941175
EXTRACT: note_on channel=6 note=63 velocity=0 time=0.079411725
EXTRACT: note_on channel=6 note=75 velocity=0 time=0.041176449999999996
EXTRACT: note_on channel=0 note=42 velocity=0 time=0.035294099999999995
EXTRACT: note_on channel=9 note=70 velocity=88 time=0.05294115
EXTRACT: note_on channel=6 note=63 velocity=32 time=0.00588235
EXTRACT: note_on channel=9 note=82 velocity=47 time=0
EXTRACT: note_on channel=9 note=42 velocity=99 time=0
EXTRACT: note_on channel=9 note=39 velocity=65 time=0
EXTRACT: note_on channel=9 note=40 velocity=89 time=0
EXTRACT: note_on channel=8 note=56 velocity=0 time=0.044117625
EXTRACT: pitchwheel channel=0 pitch=0 time=0.020588224999999998
EXTRACT: note_on channel=1 note=54 velocity=0 time=0.008823524999999999
EXTRACT: note_on channel=1 note=58 velocity=0 time=0.002941175
EXTRACT: note_on channel=1 note=75 velocity=0 time=0.002941175
EXTRACT: note_on channel=1 note=63 velocity=0 time=0
EXTRACT: note_on channel=1 note=59 velocity=0 time=0.002941175
EXTRACT: note_on channel=9 note=42 velocity=0 time=0.02941175
EXTRACT: note_on channel=9 note=70 velocity=0 time=0.014705875
EXTRACT: note_on channel=9 note=82 velocity=0 time=0.00588235
EXTRACT: note_on channel=9 note=39 velocity=0 time=0
EXTRACT: note_on channel=9 note=40 velocity=0 time=0
EXTRACT: control_change channel=6 control=64 value=0 time=0.00588235
EXTRACT: note_on channel=6 note=63 velocity=0 time=0.008823524999999999
EXTRACT: note_on channel=1 note=58 velocity=63 time=0.017647049999999997
EXTRACT: note_on channel=1 note=63 velocity=73 time=0
EXTRACT: note_on channel=1 note=73 velocity=81 time=0.00588235
EXTRACT: note_on channel=0 note=42 velocity=110 time=0.00588235
EXTRACT: note_on channel=6 note=63 velocity=52 time=0
EXTRACT: note_on channel=6 note=73 velocity=63 time=0
EXTRACT: note_on channel=1 note=59 velocity=77 time=0.008823524999999999
EXTRACT: control_change channel=6 control=64 value=127 time=0.12352935
EXTRACT: note_on channel=9 note=42 velocity=77 time=0.044117625
EXTRACT: note_on channel=6 note=73 velocity=0 time=0.0117647
EXTRACT: note_on channel=6 note=63 velocity=0 time=0.032352925
EXTRACT: note_on channel=9 note=42 velocity=0 time=0.055882325
EXTRACT: note_on channel=1 note=63 velocity=0 time=0.138235225
EXTRACT: note_on channel=1 note=58 velocity=0 time=0
EXTRACT: control_change channel=1 control=64 value=0 time=0.0117647
EXTRACT: note_on channel=1 note=73 velocity=0 time=0.00588235
EXTRACT: note_on channel=1 note=59 velocity=0 time=0.0117647
EXTRACT: note_on channel=0 note=42 velocity=0 time=0.026470575
EXTRACT: note_on channel=2 note=78 velocity=0 time=0.0117647
EXTRACT: note_on channel=2 note=73 velocity=0 time=0.0117647
EXTRACT: note_on channel=2 note=82 velocity=0 time=0.008823524999999999
EXTRACT: note_on channel=1 note=71 velocity=62 time=0.020588224999999998
EXTRACT: note_on channel=1 note=52 velocity=97 time=0.002941175
EXTRACT: note_on channel=2 note=83 velocity=57 time=0
EXTRACT: note_on channel=0 note=40 velocity=106 time=0.002941175
EXTRACT: note_on channel=2 note=80 velocity=40 time=0
EXTRACT: note_on channel=6 note=71 velocity=73 time=0
EXTRACT: note_on channel=6 note=63 velocity=59 time=0
EXTRACT: note_on channel=8 note=56 velocity=63 time=0
EXTRACT: note_on channel=9 note=46 velocity=59 time=0
EXTRACT: note_on channel=9 note=36 velocity=90 time=0
EXTRACT: note_on channel=9 note=35 velocity=90 time=0
EXTRACT: note_on channel=1 note=63 velocity=62 time=0.002941175
EXTRACT: note_on channel=1 note=59 velocity=58 time=0
EXTRACT: note_on channel=2 note=75 velocity=43 time=0
EXTRACT: note_on channel=1 note=56 velocity=84 time=0.002941175
EXTRACT: control_change channel=6 control=64 value=0 time=0.038235275
EXTRACT: control_change channel=6 control=64 value=127 time=0.073529375
EXTRACT: control_change channel=1 control=64 value=127 time=0.008823524999999999
EXTRACT: note_on channel=9 note=35 velocity=0 time=0.00588235
EXTRACT: note_on channel=9 note=36 velocity=0 time=0
EXTRACT: note_on channel=9 note=46 velocity=0 time=0
EXTRACT: note_on channel=1 note=63 velocity=0 time=0.126470525
EXTRACT: note_on channel=1 note=56 velocity=0 time=0.00588235
EXTRACT: note_on channel=1 note=59 velocity=0 time=0.00588235
EXTRACT: note_on channel=6 note=63 velocity=0 time=0.02941175
EXTRACT: note_on channel=6 note=71 velocity=0 time=0.026470575
EXTRACT: note_on channel=1 note=56 velocity=52 time=0.014705875
EXTRACT: note_on channel=1 note=59 velocity=34 time=0.008823524999999999
EXTRACT: note_on channel=6 note=63 velocity=31 time=0.002941175
EXTRACT: note_on channel=1 note=63 velocity=36 time=0.008823524999999999
EXTRACT: note_on channel=1 note=71 velocity=0 time=0.055882325
EXTRACT: note_on channel=1 note=52 velocity=0 time=0.00588235
EXTRACT: note_on channel=6 note=63 velocity=0 time=0.020588224999999998
EXTRACT: note_on channel=1 note=56 velocity=0 time=0.008823524999999999
EXTRACT: note_on channel=1 note=59 velocity=0 time=0.014705875
EXTRACT: note_on channel=1 note=63 velocity=0 time=0.002941175
EXTRACT: note_on channel=1 note=71 velocity=81 time=0.0470588
EXTRACT: note_on channel=6 note=63 velocity=49 time=0.0117647
EXTRACT: note_on channel=6 note=71 velocity=65 time=0
EXTRACT: note_on channel=9 note=35 velocity=90 time=0
EXTRACT: note_on channel=9 note=36 velocity=90 time=0
EXTRACT: note_on channel=1 note=56 velocity=63 time=0.002941175
EXTRACT: note_on channel=1 note=59 velocity=77 time=0.002941175
EXTRACT: note_on channel=1 note=63 velocity=73 time=0
EXTRACT: note_on channel=6 note=63 velocity=0 time=0.085294075
EXTRACT: note_on channel=6 note=71 velocity=0 time=0.0235294
EXTRACT: note_on channel=9 note=36 velocity=0 time=0.017647049999999997
EXTRACT: note_on channel=9 note=35 velocity=0 time=0
EXTRACT: note_on channel=9 note=70 velocity=88 time=0.026470575
EXTRACT: note_on channel=9 note=82 velocity=47 time=0.00588235
EXTRACT: note_on channel=9 note=42 velocity=99 time=0
EXTRACT: note_on channel=9 note=39 velocity=65 time=0
EXTRACT: note_on channel=9 note=40 velocity=89 time=0
EXTRACT: note_on channel=8 note=56 velocity=0 time=0.0117647
EXTRACT: note_on channel=9 note=42 velocity=0 time=0.08235289999999999
EXTRACT: note_on channel=9 note=70 velocity=0 time=0.032352925
EXTRACT: note_on channel=9 note=82 velocity=0 time=0.00588235
EXTRACT: note_on channel=9 note=39 velocity=0 time=0
EXTRACT: note_on channel=9 note=40 velocity=0 time=0
EXTRACT: note_on channel=6 note=63 velocity=32 time=0.055882325
EXTRACT: note_on channel=1 note=71 velocity=0 time=0.073529375
EXTRACT: note_on channel=1 note=56 velocity=0 time=0.002941175
EXTRACT: note_on channel=1 note=63 velocity=0 time=0.002941175
EXTRACT: note_on channel=1 note=59 velocity=0 time=0.008823524999999999
EXTRACT: note_on channel=6 note=63 velocity=0 time=0.014705875
EXTRACT: note_on channel=0 note=40 velocity=0 time=0.049999974999999995
EXTRACT: note_on channel=1 note=59 velocity=80 time=0.020588224999999998
EXTRACT: note_on channel=0 note=40 velocity=106 time=0.002941175
EXTRACT: note_on channel=1 note=56 velocity=73 time=0
EXTRACT: note_on channel=6 note=63 velocity=51 time=0
EXTRACT: note_on channel=6 note=71 velocity=71 time=0
EXTRACT: note_on channel=8 note=56 velocity=63 time=0
EXTRACT: note_on channel=9 note=46 velocity=49 time=0
EXTRACT: note_on channel=9 note=36 velocity=97 time=0
EXTRACT: note_on channel=9 note=35 velocity=97 time=0
EXTRACT: note_on channel=1 note=63 velocity=73 time=0.002941175
EXTRACT: note_on channel=1 note=52 velocity=52 time=0.00588235
EXTRACT: note_on channel=9 note=46 velocity=0 time=0.09117642499999999
EXTRACT: note_on channel=6 note=63 velocity=0 time=0.002941175
EXTRACT: note_on channel=6 note=71 velocity=0 time=0.020588224999999998
EXTRACT: note_on channel=9 note=35 velocity=0 time=0.008823524999999999
EXTRACT: note_on channel=9 note=36 velocity=0 time=0
EXTRACT: note_on channel=9 note=41 velocity=43 time=0.032352925
EXTRACT: note_on channel=9 note=41 velocity=0 time=0.13235287499999998
EXTRACT: note_on channel=9 note=42 velocity=76 time=0.055882325
EXTRACT: note_on channel=8 note=56 velocity=0 time=0.044117625
EXTRACT: note_on channel=1 note=63 velocity=0 time=0.032352925
EXTRACT: note_on channel=1 note=56 velocity=0 time=0
EXTRACT: note_on channel=1 note=59 velocity=0 time=0.002941175
EXTRACT: note_on channel=1 note=52 velocity=0 time=0.00588235
EXTRACT: note_on channel=9 note=42 velocity=0 time=0.017647049999999997
EXTRACT: note_on channel=9 note=70 velocity=57 time=0.061764675
EXTRACT: note_on channel=9 note=82 velocity=30 time=0.00588235
EXTRACT: note_on channel=6 note=63 velocity=30 time=0.00588235
EXTRACT: note_on channel=9 note=40 velocity=51 time=0
EXTRACT: note_on channel=6 note=63 velocity=0 time=0.097058775
EXTRACT: note_on channel=9 note=70 velocity=0 time=0.0235294
EXTRACT: note_on channel=9 note=82 velocity=0 time=0.00588235
EXTRACT: note_on channel=9 note=40 velocity=0 time=0.00588235
EXTRACT: note_on channel=0 note=40 velocity=0 time=0.008823524999999999
EXTRACT: note_on channel=1 note=63 velocity=65 time=0.0235294
EXTRACT: note_on channel=9 note=46 velocity=51 time=0
EXTRACT: note_on channel=9 note=36 velocity=90 time=0
EXTRACT: note_on channel=9 note=35 velocity=90 time=0
EXTRACT: note_on channel=1 note=52 velocity=80 time=0.008823524999999999
EXTRACT: note_on channel=0 note=40 velocity=106 time=0.002941175
EXTRACT: note_on channel=1 note=56 velocity=68 time=0
EXTRACT: note_on channel=6 note=63 velocity=49 time=0
EXTRACT: note_on channel=6 note=71 velocity=65 time=0
EXTRACT: note_on channel=8 note=56 velocity=63 time=0
EXTRACT: note_on channel=1 note=71 velocity=74 time=0.002941175
EXTRACT: note_on channel=1 note=59 velocity=83 time=0.002941175
EXTRACT: note_on channel=9 note=46 velocity=0 time=0.079411725
EXTRACT: note_on channel=6 note=63 velocity=0 time=0.0117647
EXTRACT: note_on channel=9 note=35 velocity=0 time=0.0235294
EXTRACT: note_on channel=9 note=36 velocity=0 time=0
EXTRACT: note_on channel=6 note=71 velocity=0 time=0.032352925
EXTRACT: note_on channel=1 note=63 velocity=0 time=0.032352925
EXTRACT: note_on channel=1 note=56 velocity=0 time=0.014705875
EXTRACT: note_on channel=1 note=59 velocity=0 time=0.0117647
EXTRACT: note_on channel=1 note=56 velocity=42 time=0.13235287499999998
EXTRACT: note_on channel=9 note=70 velocity=88 time=0.002941175
EXTRACT: note_on channel=6 note=63 velocity=32 time=0.00588235
EXTRACT: note_on channel=9 note=82 velocity=47 time=0
EXTRACT: note_on channel=9 note=42 velocity=99 time=0
EXTRACT: note_on channel=9 note=39 velocity=65 time=0
EXTRACT: note_on channel=9 note=40 velocity=89 time=0
EXTRACT: note_on channel=1 note=63 velocity=40 time=0.002941175
EXTRACT: note_on channel=1 note=59 velocity=53 time=0.002941175
EXTRACT: note_on channel=5 note=66 velocity=0 time=0.002941175
EXTRACT: note_on channel=8 note=56 velocity=0 time=0.035294099999999995
EXTRACT: note_on channel=1 note=52 velocity=0 time=0.026470575
EXTRACT: note_on channel=1 note=71 velocity=0 time=0.017647049999999997
EXTRACT: note_on channel=6 note=63 velocity=0 time=0.00588235
EXTRACT: note_on channel=9 note=42 velocity=0 time=0.017647049999999997
EXTRACT: note_on channel=1 note=56 velocity=0 time=0.00588235
EXTRACT: note_on channel=1 note=63 velocity=0 time=0.008823524999999999
EXTRACT: note_on channel=9 note=70 velocity=0 time=0
EXTRACT: note_on channel=9 note=82 velocity=0 time=0.00588235
EXTRACT: note_on channel=9 note=39 velocity=0 time=0
EXTRACT: note_on channel=9 note=40 velocity=0 time=0
EXTRACT: note_on channel=1 note=59 velocity=0 time=0.008823524999999999
EXTRACT: note_on channel=1 note=59 velocity=77 time=0.0235294
EXTRACT: note_on channel=1 note=63 velocity=73 time=0.00588235
EXTRACT: note_on channel=1 note=56 velocity=63 time=0.00588235
EXTRACT: note_on channel=6 note=71 velocity=71 time=0
EXTRACT: note_on channel=6 note=63 velocity=52 time=0
EXTRACT: note_on channel=1 note=71 velocity=81 time=0.00588235
EXTRACT: note_on channel=6 note=63 velocity=0 time=0.08823525
EXTRACT: note_on channel=0 note=40 velocity=0 time=0.0470588
EXTRACT: note_on channel=6 note=71 velocity=0 time=0.02941175
EXTRACT: note_on channel=0 note=42 velocity=94 time=0.00588235
EXTRACT: note_on channel=9 note=42 velocity=77 time=0
EXTRACT: note_on channel=9 note=42 velocity=0 time=0.09999994999999999
EXTRACT: note_on channel=0 note=44 velocity=70 time=0.07058819999999999
EXTRACT: note_on channel=6 note=63 velocity=33 time=0.00588235
EXTRACT: note_on channel=0 note=42 velocity=0 time=0.049999974999999995
EXTRACT: note_on channel=1 note=63 velocity=0 time=0.017647049999999997
EXTRACT: control_change channel=1 control=64 value=0 time=0.00588235
EXTRACT: note_on channel=1 note=71 velocity=0 time=0.017647049999999997
EXTRACT: control_change channel=6 control=64 value=0 time=0.008823524999999999
EXTRACT: note_on channel=6 note=63 velocity=0 time=0.061764675
EXTRACT: note_on channel=0 note=47 velocity=112 time=0.014705875
EXTRACT: note_on channel=1 note=71 velocity=102 time=0
EXTRACT: note_on channel=1 note=52 velocity=85 time=0
EXTRACT: note_on channel=5 note=71 velocity=80 time=0
EXTRACT: note_on channel=6 note=71 velocity=69 time=0
EXTRACT: note_on channel=8 note=56 velocity=63 time=0
EXTRACT: note_on channel=9 note=46 velocity=54 time=0
EXTRACT: note_on channel=9 note=36 velocity=90 time=0
EXTRACT: note_on channel=9 note=35 velocity=90 time=0
EXTRACT: note_on channel=0 note=44 velocity=0 time=0.026470575
EXTRACT: control_change channel=6 control=64 value=127 time=0.067647025
EXTRACT: note_on channel=2 note=75 velocity=0 time=0.026470575
EXTRACT: note_on channel=2 note=80 velocity=0 time=0.00588235
EXTRACT: note_on channel=2 note=83 velocity=0 time=0.002941175
EXTRACT: note_on channel=9 note=35 velocity=0 time=0.002941175
EXTRACT: note_on channel=9 note=36 velocity=0 time=0
EXTRACT: note_on channel=9 note=46 velocity=0 time=0
EXTRACT: note_on channel=1 note=54 velocity=52 time=0.220588125
EXTRACT: note_on channel=1 note=71 velocity=0 time=0.12058817499999999
EXTRACT: note_on channel=6 note=71 velocity=0 time=0
EXTRACT: note_on channel=5 note=71 velocity=0 time=0.020588224999999998
EXTRACT: note_on channel=1 note=52 velocity=0 time=0.008823524999999999
EXTRACT: note_on channel=0 note=47 velocity=0 time=0.008823524999999999
EXTRACT: note_on channel=6 note=70 velocity=72 time=0.0117647
EXTRACT: note_on channel=0 note=46 velocity=107 time=0.00588235
EXTRACT: note_on channel=1 note=70 velocity=107 time=0
EXTRACT: note_on channel=1 note=52 velocity=85 time=0
EXTRACT: note_on channel=5 note=70 velocity=76 time=0
EXTRACT: note_on channel=9 note=35 velocity=90 time=0
EXTRACT: note_on channel=9 note=36 velocity=90 time=0
EXTRACT: note_on channel=1 note=54 velocity=0 time=0.079411725
EXTRACT: pitchwheel channel=5 pitch=554 time=0.002941175
EXTRACT: pitchwheel channel=5 pitch=1666 time=0.014705875
EXTRACT: pitchwheel channel=5 pitch=2221 time=0.014705875
EXTRACT: note_on channel=9 note=36 velocity=0 time=0.020588224999999998
EXTRACT: note_on channel=9 note=35 velocity=0 time=0
EXTRACT: note_on channel=9 note=70 velocity=88 time=0.026470575
EXTRACT: note_on channel=9 note=82 velocity=47 time=0.00588235
EXTRACT: note_on channel=9 note=42 velocity=99 time=0
EXTRACT: note_on channel=9 note=39 velocity=65 time=0
EXTRACT: note_on channel=9 note=40 velocity=89 time=0
EXTRACT: note_on channel=8 note=56 velocity=0 time=0.0117647
EXTRACT: pitchwheel channel=5 pitch=1110 time=0.0117647
EXTRACT: pitchwheel channel=5 pitch=0 time=0.014705875
EXTRACT: note_on channel=9 note=42 velocity=0 time=0.055882325
EXTRACT: note_on channel=9 note=70 velocity=0 time=0.032352925
EXTRACT: pitchwheel channel=5 pitch=554 time=0.002941175
EXTRACT: note_on channel=9 note=82 velocity=0 time=0.002941175
EXTRACT: note_on channel=9 note=39 velocity=0 time=0
EXTRACT: note_on channel=9 note=40 velocity=0 time=0
EXTRACT: pitchwheel channel=5 pitch=1666 time=0.014705875
EXTRACT: pitchwheel channel=5 pitch=2221 time=0.014705875
EXTRACT: pitchwheel channel=5 pitch=2780 time=0.014705875
EXTRACT: pitchwheel channel=5 pitch=1666 time=0.0470588
EXTRACT: pitchwheel channel=5 pitch=1110 time=0.014705875
EXTRACT: pitchwheel channel=5 pitch=0 time=0.017647049999999997
EXTRACT: note_on channel=6 note=70 velocity=0 time=0.044117625
EXTRACT: note_on channel=1 note=70 velocity=0 time=0.002941175
EXTRACT: note_on channel=1 note=52 velocity=0 time=0.0235294
EXTRACT: note_on channel=5 note=70 velocity=0 time=0.0235294
EXTRACT: note_on channel=5 note=66 velocity=76 time=0.00588235
EXTRACT: note_on channel=0 note=42 velocity=102 time=0.008823524999999999
EXTRACT: note_on channel=1 note=52 velocity=78 time=0
EXTRACT: note_on channel=1 note=66 velocity=96 time=0
EXTRACT: note_on channel=6 note=66 velocity=65 time=0
EXTRACT: note_on channel=8 note=56 velocity=58 time=0
EXTRACT: note_on channel=9 note=46 velocity=45 time=0
EXTRACT: note_on channel=9 note=36 velocity=97 time=0
EXTRACT: note_on channel=9 note=35 velocity=97 time=0
EXTRACT: note_on channel=0 note=46 velocity=0 time=0.014705875
EXTRACT: pitchwheel channel=5 pitch=0 time=0
EXTRACT: note_on channel=9 note=46 velocity=0 time=0.085294075
EXTRACT: note_on channel=9 note=35 velocity=0 time=0.032352925
EXTRACT: note_on channel=9 note=36 velocity=0 time=0
EXTRACT: note_on channel=9 note=41 velocity=43 time=0.032352925
EXTRACT: note_on channel=9 note=41 velocity=0 time=0.13235287499999998
EXTRACT: note_on channel=9 note=42 velocity=76 time=0.055882325
EXTRACT: note_on channel=8 note=56 velocity=0 time=0.044117625
EXTRACT: note_on channel=9 note=42 velocity=0 time=0.0588235
EXTRACT: note_on channel=9 note=70 velocity=57 time=0.061764675
EXTRACT: note_on channel=9 note=82 velocity=30 time=0.00588235
EXTRACT: note_on channel=9 note=40 velocity=51 time=0.00588235
EXTRACT: note_on channel=6 note=66 velocity=0 time=0.06470585
EXTRACT: note_on channel=5 note=66 velocity=0 time=0.049999974999999995
EXTRACT: note_on channel=9 note=70 velocity=0 time=0.00588235
EXTRACT: note_on channel=9 note=82 velocity=0 time=0.00588235
EXTRACT: note_on channel=9 note=40 velocity=0 time=0.00588235
EXTRACT: note_on channel=5 note=59 velocity=72 time=0.0117647
EXTRACT: note_on channel=1 note=59 velocity=0 time=0.014705875
EXTRACT: note_on channel=9 note=46 velocity=46 time=0.00588235
EXTRACT: note_on channel=9 note=36 velocity=90 time=0
EXTRACT: note_on channel=9 note=35 velocity=90 time=0
EXTRACT: note_on channel=6 note=59 velocity=55 time=0.00588235
EXTRACT: note_on channel=0 note=35 velocity=97 time=0.00588235
EXTRACT: note_on channel=0 note=42 velocity=0 time=0
EXTRACT: note_on channel=1 note=59 velocity=82 time=0
EXTRACT: note_on channel=8 note=56 velocity=71 time=0
EXTRACT: note_on channel=8 note=68 velocity=107 time=0
EXTRACT: note_on channel=9 note=46 velocity=0 time=0.085294075
EXTRACT: note_on channel=9 note=35 velocity=0 time=0.035294099999999995
EXTRACT: note_on channel=9 note=36 velocity=0 time=0
EXTRACT: control_change channel=5 control=11 value=112 time=0.07647055
EXTRACT: control_change channel=5 control=11 value=110 time=0.032352925
EXTRACT: pitchwheel channel=5 pitch=342 time=0.09117642499999999
EXTRACT: note_on channel=9 note=70 velocity=88 time=0.026470575
EXTRACT: pitchwheel channel=5 pitch=685 time=0.002941175
EXTRACT: note_on channel=9 note=82 velocity=47 time=0.002941175
EXTRACT: note_on channel=9 note=42 velocity=99 time=0
EXTRACT: note_on channel=9 note=39 velocity=65 time=0
EXTRACT: note_on channel=9 note=40 velocity=89 time=0
EXTRACT: control_change channel=5 control=11 value=109 time=0.035294099999999995
EXTRACT: pitchwheel channel=5 pitch=342 time=0.008823524999999999
EXTRACT: note_on channel=8 note=56 velocity=0 time=0
EXTRACT: pitchwheel channel=5 pitch=0 time=0.014705875
EXTRACT: control_change channel=5 control=11 value=108 time=0.041176449999999996
EXTRACT: note_on channel=9 note=42 velocity=0 time=0.0117647
EXTRACT: note_on channel=9 note=70 velocity=0 time=0.014705875
EXTRACT: control_change channel=5 control=11 value=106 time=0.00588235
EXTRACT: note_on channel=9 note=82 velocity=0 time=0
EXTRACT: note_on channel=9 note=39 velocity=0 time=0
EXTRACT: note_on channel=9 note=40 velocity=0 time=0
EXTRACT: pitchwheel channel=5 pitch=342 time=0.049999974999999995
EXTRACT: control_change channel=5 control=11 value=105 time=0.0117647
EXTRACT: pitchwheel channel=5 pitch=685 time=0.002941175
EXTRACT: pitchwheel channel=5 pitch=1028 time=0.017647049999999997
EXTRACT: control_change channel=5 control=11 value=104 time=0.0117647
EXTRACT: control_change channel=5 control=11 value=103 time=0.032352925
EXTRACT: pitchwheel channel=5 pitch=685 time=0.017647049999999997
EXTRACT: control_change channel=5 control=11 value=102 time=0.014705875
EXTRACT: pitchwheel channel=5 pitch=342 time=0
EXTRACT: pitchwheel channel=5 pitch=0 time=0.014705875
EXTRACT: control_change channel=5 control=11 value=101 time=0.017647049999999997
EXTRACT: note_on channel=1 note=49 velocity=55 time=0.02941175
EXTRACT: note_on channel=9 note=42 velocity=77 time=0
EXTRACT: control_change channel=5 control=11 value=99 time=0.002941175
EXTRACT: control_change channel=5 control=11 value=98 time=0.02941175
EXTRACT: pitchwheel channel=5 pitch=342 time=0.02941175
EXTRACT: control_change channel=5 control=11 value=97 time=0.002941175
EXTRACT: pitchwheel channel=5 pitch=1028 time=0.0117647
EXTRACT: pitchwheel channel=5 pitch=1371 time=0.014705875
EXTRACT: control_change channel=5 control=11 value=95 time=0.00588235
EXTRACT: note_on channel=9 note=42 velocity=0 time=0.002941175
EXTRACT: control_change channel=5 control=11 value=93 time=0.02941175
EXTRACT: control_change channel=5 control=11 value=91 time=0.032352925
EXTRACT: pitchwheel channel=5 pitch=685 time=0.008823524999999999
EXTRACT: pitchwheel channel=5 pitch=0 time=0.014705875
EXTRACT: control_change channel=5 control=11 value=89 time=0.008823524999999999
EXTRACT: control_change channel=5 control=11 value=88 time=0.02941175
EXTRACT: control_change channel=1 control=64 value=0 time=0.026470575
EXTRACT: control_change channel=5 control=11 value=86 time=0.00588235
EXTRACT: note_on channel=1 note=66 velocity=0 time=0.0117647
EXTRACT: pitchwheel channel=5 pitch=342 time=0.008823524999999999
EXTRACT: control_change channel=5 control=11 value=84 time=0.0117647
EXTRACT: pitchwheel channel=5 pitch=1028 time=0.002941175
EXTRACT: note_on channel=6 note=59 velocity=0 time=0.0117647
EXTRACT: note_on channel=1 note=59 velocity=0 time=0.002941175
EXTRACT: note_on channel=1 note=56 velocity=0 time=0.002941175
EXTRACT: pitchwheel channel=5 pitch=1371 time=0
EXTRACT: note_on channel=1 note=52 velocity=0 time=0.00588235
EXTRACT: control_change channel=5 control=11 value=81 time=0.00588235
EXTRACT: pitchwheel channel=5 pitch=1715 time=0.002941175
EXTRACT: note_on channel=1 note=66 velocity=71 time=0.0117647
EXTRACT: note_on channel=1 note=42 velocity=61 time=0.002941175
EXTRACT: note_on channel=0 note=35 velocity=0 time=0.002941175
EXTRACT: note_on channel=1 note=61 velocity=71 time=0.00588235
EXTRACT: note_on channel=1 note=49 velocity=0 time=0.002941175
EXTRACT: note_on channel=8 note=68 velocity=0 time=0
EXTRACT: note_on channel=0 note=46 velocity=92 time=0.002941175
EXTRACT: control_change channel=5 control=11 value=78 time=0
EXTRACT: note_on channel=6 note=61 velocity=64 time=0
EXTRACT: note_on channel=1 note=54 velocity=69 time=0.002941175
EXTRACT: note_on channel=1 note=49 velocity=61 time=0.00588235
EXTRACT: control_change channel=6 control=64 value=2 time=0
EXTRACT: pitchwheel channel=5 pitch=1028 time=0.008823524999999999
EXTRACT: control_change channel=5 control=11 value=76 time=0.0117647
EXTRACT: pitchwheel channel=5 pitch=685 time=0.002941175
EXTRACT: pitchwheel channel=5 pitch=0 time=0.014705875
EXTRACT: control_change channel=5 control=11 value=74 time=0.014705875
EXTRACT: control_change channel=5 control=11 value=71 time=0.032352925
EXTRACT: control_change channel=6 control=64 value=127 time=0.014705875
EXTRACT: control_change channel=5 control=11 value=69 time=0.017647049999999997
EXTRACT: pitchwheel channel=5 pitch=685 time=0.02941175
EXTRACT: control_change channel=5 control=11 value=65 time=0.002941175
EXTRACT: pitchwheel channel=5 pitch=1028 time=0.0117647
EXTRACT: control_change channel=5 control=11 value=63 time=0.020588224999999998
EXTRACT: pitchwheel channel=5 pitch=1371 time=0.0117647
EXTRACT: control_change channel=5 control=11 value=60 time=0.017647049999999997
EXTRACT: pitchwheel channel=5 pitch=1028 time=0.0117647
EXTRACT: pitchwheel channel=5 pitch=685 time=0.017647049999999997
EXTRACT: control_change channel=5 control=11 value=58 time=0.002941175
EXTRACT: pitchwheel channel=5 pitch=342 time=0.0117647
EXTRACT: pitchwheel channel=5 pitch=0 time=0.014705875
EXTRACT: control_change channel=5 control=11 value=54 time=0.00588235
EXTRACT: control_change channel=5 control=11 value=50 time=0.032352925
EXTRACT: control_change channel=5 control=11 value=47 time=0.032352925
EXTRACT: note_on channel=9 note=75 velocity=47 time=0.002941175
EXTRACT: pitchwheel channel=5 pitch=342 time=0.002941175
EXTRACT: pitchwheel channel=5 pitch=685 time=0.014705875
EXTRACT: control_change channel=5 control=11 value=44 time=0.0117647
EXTRACT: pitchwheel channel=5 pitch=1028 time=0.002941175
EXTRACT: control_change channel=5 control=11 value=41 time=0.026470575
EXTRACT: pitchwheel channel=5 pitch=1371 time=0.00588235
EXTRACT: note_on channel=6 note=61 velocity=0 time=0.008823524999999999
EXTRACT: control_change channel=5 control=11 value=37 time=0.017647049999999997
EXTRACT: pitchwheel channel=5 pitch=1028 time=0.00588235
EXTRACT: pitchwheel channel=5 pitch=685 time=0.014705875
EXTRACT: note_on channel=9 note=75 velocity=0 time=0
EXTRACT: control_change channel=5 control=11 value=33 time=0.0117647
EXTRACT: pitchwheel channel=5 pitch=342 time=0.002941175
EXTRACT: pitchwheel channel=5 pitch=0 time=0.014705875
EXTRACT: note_on channel=1 note=66 velocity=0 time=0.002941175
EXTRACT: note_on channel=1 note=42 velocity=0 time=0.002941175
EXTRACT: note_on channel=1 note=61 velocity=0 time=0.008823524999999999
EXTRACT: control_change channel=5 control=11 value=30 time=0
EXTRACT: note_on channel=1 note=61 velocity=73 time=0.00588235
EXTRACT: note_on channel=1 note=54 velocity=0 time=0.002941175
EXTRACT: note_on channel=1 note=66 velocity=73 time=0
EXTRACT: note_on channel=1 note=42 velocity=51 time=0.002941175
EXTRACT: note_on channel=1 note=49 velocity=0 time=0.002941175
EXTRACT: note_on channel=1 note=49 velocity=51 time=0.014705875
EXTRACT: note_on channel=1 note=54 velocity=66 time=0
EXTRACT: control_change channel=5 control=11 value=25 time=0.002941175
EXTRACT: note_on channel=6 note=66 velocity=64 time=0.002941175
EXTRACT: note_on channel=9 note=46 velocity=66 time=0
EXTRACT: pitchwheel channel=5 pitch=342 time=0.02941175
EXTRACT: control_change channel=5 control=11 value=21 time=0
EXTRACT: pitchwheel channel=5 pitch=685 time=0.02941175
EXTRACT: control_change channel=5 control=11 value=18 time=0
EXTRACT: control_change channel=5 control=11 value=14 time=0.032352925
EXTRACT: note_on channel=9 note=46 velocity=0 time=0.026470575
EXTRACT: pitchwheel channel=5 pitch=342 time=0.00588235
EXTRACT: control_change channel=5 control=11 value=9 time=0
EXTRACT: note_on channel=6 note=66 velocity=0 time=0
EXTRACT: note_on channel=1 note=54 velocity=0 time=0.0117647
EXTRACT: note_on channel=1 note=61 velocity=0 time=0.002941175
EXTRACT: pitchwheel channel=5 pitch=0 time=0
EXTRACT: note_on channel=1 note=54 velocity=64 time=0.002941175
EXTRACT: note_on channel=1 note=61 velocity=64 time=0
EXTRACT: note_on channel=1 note=66 velocity=0 time=0
EXTRACT: note_on channel=1 note=42 velocity=0 time=0.002941175
EXTRACT: note_on channel=1 note=49 velocity=0 time=0.008823524999999999
EXTRACT: note_on channel=1 note=42 velocity=55 time=0
EXTRACT: note_on channel=1 note=49 velocity=55 time=0.002941175
EXTRACT: control_change channel=5 control=11 value=6 time=0
EXTRACT: note_on channel=1 note=66 velocity=64 time=0.00588235
EXTRACT: note_on channel=9 note=42 velocity=1 time=0.014705875
EXTRACT: control_change channel=5 control=11 value=2 time=0.0117647
EXTRACT: control_change channel=5 control=11 value=0 time=0.017647049999999997
EXTRACT: note_on channel=5 note=59 velocity=0 time=0.0470588
EXTRACT: pitchwheel channel=5 pitch=685 time=0.008823524999999999
EXTRACT: note_on channel=9 note=42 velocity=0 time=0.02941175
EXTRACT: pitchwheel channel=5 pitch=0 time=0.0470588
EXTRACT: pitchwheel channel=5 pitch=0 time=0.13529405
EXTRACT: note_on channel=0 note=46 velocity=0 time=0.008823524999999999
EXTRACT: note_on channel=1 note=54 velocity=0 time=0.014705875
EXTRACT: note_on channel=1 note=61 velocity=0 time=0
EXTRACT: note_on channel=1 note=66 velocity=0 time=0.008823524999999999
EXTRACT: note_on channel=1 note=54 velocity=64 time=0
EXTRACT: note_on channel=1 note=42 velocity=0 time=0.002941175
EXTRACT: note_on channel=1 note=66 velocity=64 time=0
EXTRACT: note_on channel=0 note=47 velocity=92 time=0.002941175
EXTRACT: note_on channel=1 note=49 velocity=0 time=0.002941175
EXTRACT: note_on channel=6 note=63 velocity=64 time=0
EXTRACT: note_on channel=1 note=59 velocity=64 time=0.002941175
EXTRACT: note_on channel=1 note=63 velocity=64 time=0.00588235
EXTRACT: note_on channel=1 note=47 velocity=56 time=0.00588235
EXTRACT: note_on channel=6 note=63 velocity=0 time=0.073529375
EXTRACT: note_on channel=9 note=70 velocity=96 time=0.26470574999999996
EXTRACT: note_on channel=9 note=70 velocity=0 time=0.126470525
EXTRACT: note_on channel=1 note=54 velocity=0 time=0.014705875
EXTRACT: note_on channel=1 note=66 velocity=0 time=0.002941175
EXTRACT: note_on channel=1 note=59 velocity=0 time=0.008823524999999999
EXTRACT: note_on channel=1 note=63 velocity=0 time=0.00588235
EXTRACT: note_on channel=1 note=47 velocity=0 time=0.00588235
EXTRACT: note_on channel=1 note=63 velocity=69 time=0.002941175
EXTRACT: note_on channel=1 note=59 velocity=65 time=0.00588235
EXTRACT: note_on channel=1 note=47 velocity=39 time=0.002941175
EXTRACT: control_change channel=5 control=11 value=112 time=0
EXTRACT: note_on channel=1 note=54 velocity=47 time=0.0117647
EXTRACT: note_on channel=1 note=66 velocity=69 time=0
EXTRACT: note_on channel=1 note=59 velocity=0 time=0.1294117
EXTRACT: note_on channel=1 note=47 velocity=0 time=0.002941175
EXTRACT: note_on channel=1 note=63 velocity=0 time=0.00588235
EXTRACT: note_on channel=1 note=59 velocity=63 time=0
EXTRACT: note_on channel=1 note=63 velocity=63 time=0.00588235
EXTRACT: note_on channel=1 note=47 velocity=55 time=0
EXTRACT: note_on channel=1 note=66 velocity=0 time=0.002941175
EXTRACT: note_on channel=1 note=66 velocity=63 time=0.00588235
EXTRACT: note_on channel=1 note=54 velocity=0 time=0.00588235
EXTRACT: note_on channel=9 note=60 velocity=56 time=0
EXTRACT: note_on channel=1 note=54 velocity=63 time=0.008823524999999999
EXTRACT: note_on channel=9 note=60 velocity=0 time=0.12058817499999999
EXTRACT: note_on channel=1 note=66 velocity=0 time=0.220588125
EXTRACT: note_on channel=1 note=47 velocity=0 time=0
EXTRACT: note_on channel=1 note=54 velocity=0 time=0.002941175
EXTRACT: note_on channel=1 note=59 velocity=0 time=0
EXTRACT: note_on channel=1 note=63 velocity=0 time=0
EXTRACT: note_on channel=1 note=59 velocity=48 time=0.002941175
EXTRACT: note_on channel=1 note=63 velocity=60 time=0
EXTRACT: note_on channel=1 note=47 velocity=21 time=0
EXTRACT: note_on channel=9 note=82 velocity=49 time=0.002941175
EXTRACT: note_on channel=9 note=64 velocity=56 time=0
EXTRACT: note_on channel=1 note=54 velocity=24 time=0.00588235
EXTRACT: note_on channel=1 note=66 velocity=60 time=0
EXTRACT: note_on channel=1 note=47 velocity=0 time=0.002941175
EXTRACT: note_on channel=1 note=59 velocity=0 time=0
EXTRACT: note_on channel=1 note=63 velocity=0 time=0
EXTRACT: note_on channel=1 note=54 velocity=0 time=0.008823524999999999
EXTRACT: note_on channel=1 note=66 velocity=0 time=0.002941175
EXTRACT: note_on channel=9 note=82 velocity=0 time=0.11176465
EXTRACT: note_on channel=1 note=59 velocity=63 time=0.014705875
EXTRACT: note_on channel=1 note=47 velocity=55 time=0
EXTRACT: note_on channel=1 note=66 velocity=63 time=0.017647049999999997
EXTRACT: note_on channel=1 note=63 velocity=63 time=0
EXTRACT: note_on channel=9 note=64 velocity=0 time=0
EXTRACT: note_on channel=1 note=54 velocity=63 time=0.00588235
EXTRACT: note_on channel=9 note=46 velocity=45 time=0.014705875
EXTRACT: note_on channel=9 note=46 velocity=0 time=0.097058775
EXTRACT: control_change channel=6 control=64 value=0 time=0.3411763
EXTRACT: note_on channel=1 note=47 velocity=0 time=0.026470575
EXTRACT: note_on channel=1 note=59 velocity=0 time=0
EXTRACT: note_on channel=1 note=63 velocity=0 time=0.017647049999999997
EXTRACT: note_on channel=1 note=66 velocity=0 time=0
EXTRACT: note_on channel=1 note=54 velocity=0 time=0.00588235
EXTRACT: note_on channel=1 note=66 velocity=71 time=0.014705875
EXTRACT: note_on channel=1 note=42 velocity=61 time=0.002941175
EXTRACT: note_on channel=1 note=61 velocity=71 time=0.008823524999999999
EXTRACT: note_on channel=0 note=46 velocity=92 time=0.002941175
EXTRACT: note_on channel=6 note=61 velocity=64 time=0.002941175
EXTRACT: note_on channel=1 note=54 velocity=69 time=0.002941175
EXTRACT: note_on channel=1 note=49 velocity=61 time=0.00588235
EXTRACT: note_on channel=0 note=47 velocity=0 time=0.10882347499999999
EXTRACT: control_change channel=6 control=64 value=127 time=0.035294099999999995
EXTRACT: note_on channel=9 note=75 velocity=47 time=0.19999989999999998
EXTRACT: note_on channel=6 note=61 velocity=0 time=0.017647049999999997
EXTRACT: note_on channel=9 note=75 velocity=0 time=0.0941176
EXTRACT: note_on channel=1 note=66 velocity=0 time=0.032352925
EXTRACT: note_on channel=1 note=42 velocity=0 time=0.002941175
EXTRACT: note_on channel=1 note=61 velocity=0 time=0.008823524999999999
EXTRACT: note_on channel=1 note=61 velocity=73 time=0.00588235
EXTRACT: note_on channel=1 note=54 velocity=0 time=0.002941175
EXTRACT: note_on channel=1 note=66 velocity=73 time=0
EXTRACT: note_on channel=1 note=42 velocity=51 time=0.002941175
EXTRACT: note_on channel=1 note=49 velocity=0 time=0.002941175
EXTRACT: note_on channel=1 note=49 velocity=51 time=0.014705875
EXTRACT: note_on channel=1 note=54 velocity=66 time=0
EXTRACT: note_on channel=6 note=63 velocity=64 time=0.00588235
EXTRACT: note_on channel=9 note=46 velocity=66 time=0
EXTRACT: note_on channel=6 note=63 velocity=0 time=0.114705825
EXTRACT: note_on channel=9 note=46 velocity=0 time=0.002941175
EXTRACT: note_on channel=1 note=54 velocity=0 time=0.017647049999999997
EXTRACT: note_on channel=1 note=61 velocity=0 time=0.002941175
EXTRACT: note_on channel=1 note=54 velocity=64 time=0.002941175
EXTRACT: note_on channel=1 note=61 velocity=64 time=0
EXTRACT: note_on channel=1 note=66 velocity=0 time=0
EXTRACT: note_on channel=1 note=42 velocity=0 time=0.002941175
EXTRACT: note_on channel=1 note=49 velocity=0 time=0.008823524999999999
EXTRACT: note_on channel=1 note=42 velocity=55 time=0
EXTRACT: note_on channel=1 note=49 velocity=55 time=0.002941175
EXTRACT: note_on channel=1 note=66 velocity=64 time=0.00588235
EXTRACT: note_on channel=9 note=42 velocity=1 time=0.014705875
EXTRACT: note_on channel=9 note=42 velocity=0 time=0.114705825
EXTRACT: note_on channel=0 note=46 velocity=0 time=0.202941075
EXTRACT: note_on channel=1 note=54 velocity=0 time=0.002941175
EXTRACT: note_on channel=1 note=61 velocity=0 time=0
EXTRACT: note_on channel=1 note=66 velocity=0 time=0.008823524999999999
EXTRACT: note_on channel=1 note=51 velocity=64 time=0
EXTRACT: note_on channel=1 note=42 velocity=0 time=0.002941175
EXTRACT: note_on channel=1 note=66 velocity=64 time=0
EXTRACT: note_on channel=0 note=44 velocity=92 time=0.00588235
EXTRACT: note_on channel=1 note=49 velocity=0 time=0
EXTRACT: note_on channel=6 note=59 velocity=60 time=0
EXTRACT: note_on channel=1 note=59 velocity=64 time=0.002941175
EXTRACT: note_on channel=1 note=63 velocity=64 time=0.00588235
EXTRACT: note_on channel=1 note=44 velocity=56 time=0.00588235
EXTRACT: note_on channel=6 note=59 velocity=0 time=0.0941176
EXTRACT: note_on channel=9 note=70 velocity=96 time=0.244117525
EXTRACT: note_on channel=9 note=70 velocity=0 time=0.126470525
EXTRACT: note_on channel=1 note=51 velocity=0 time=0.014705875
EXTRACT: note_on channel=1 note=66 velocity=0 time=0.002941175
EXTRACT: note_on channel=1 note=59 velocity=0 time=0.008823524999999999
EXTRACT: note_on channel=1 note=63 velocity=0 time=0.00588235
EXTRACT: note_on channel=1 note=44 velocity=0 time=0.00588235
EXTRACT: note_on channel=1 note=63 velocity=69 time=0.002941175
EXTRACT: note_on channel=1 note=59 velocity=65 time=0.00588235
EXTRACT: note_on channel=1 note=44 velocity=39 time=0.002941175
EXTRACT: note_on channel=1 note=51 velocity=47 time=0.0117647
EXTRACT: note_on channel=1 note=66 velocity=69 time=0
EXTRACT: note_on channel=1 note=59 velocity=0 time=0.1294117
EXTRACT: note_on channel=1 note=44 velocity=0 time=0.002941175
EXTRACT: note_on channel=1 note=63 velocity=0 time=0.00588235
EXTRACT: note_on channel=1 note=59 velocity=63 time=0
EXTRACT: note_on channel=1 note=63 velocity=63 time=0.00588235
EXTRACT: note_on channel=1 note=44 velocity=55 time=0
EXTRACT: note_on channel=1 note=66 velocity=0 time=0.002941175
EXTRACT: note_on channel=1 note=66 velocity=63 time=0.00588235
EXTRACT: note_on channel=1 note=51 velocity=0 time=0.00588235
EXTRACT: note_on channel=9 note=60 velocity=56 time=0
EXTRACT: note_on channel=1 note=51 velocity=63 time=0.008823524999999999
EXTRACT: note_on channel=9 note=60 velocity=0 time=0.12058817499999999
EXTRACT: note_on channel=1 note=66 velocity=0 time=0.220588125
EXTRACT: note_on channel=1 note=44 velocity=0 time=0
EXTRACT: note_on channel=1 note=51 velocity=0 time=0.002941175
EXTRACT: note_on channel=1 note=59 velocity=0 time=0
EXTRACT: note_on channel=1 note=63 velocity=0 time=0
EXTRACT: note_on channel=1 note=59 velocity=48 time=0.002941175
EXTRACT: note_on channel=1 note=63 velocity=60 time=0
EXTRACT: note_on channel=1 note=44 velocity=21 time=0
EXTRACT: note_on channel=9 note=82 velocity=49 time=0.002941175
EXTRACT: note_on channel=9 note=64 velocity=56 time=0
EXTRACT: note_on channel=1 note=51 velocity=24 time=0.00588235
EXTRACT: note_on channel=1 note=66 velocity=60 time=0
EXTRACT: note_on channel=1 note=44 velocity=0 time=0.002941175
EXTRACT: note_on channel=1 note=59 velocity=0 time=0
EXTRACT: note_on channel=1 note=63 velocity=0 time=0
EXTRACT: note_on channel=1 note=51 velocity=0 time=0.008823524999999999
EXTRACT: note_on channel=1 note=66 velocity=0 time=0.002941175
EXTRACT: note_on channel=9 note=82 velocity=0 time=0.11176465
EXTRACT: note_on channel=1 note=59 velocity=63 time=0.014705875
EXTRACT: note_on channel=1 note=44 velocity=55 time=0
EXTRACT: note_on channel=1 note=66 velocity=63 time=0.017647049999999997
EXTRACT: note_on channel=1 note=63 velocity=63 time=0
EXTRACT: note_on channel=9 note=64 velocity=0 time=0
EXTRACT: note_on channel=1 note=51 velocity=63 time=0.00588235
EXTRACT: note_on channel=9 note=46 velocity=45 time=0.014705875
EXTRACT: note_on channel=9 note=46 velocity=0 time=0.097058775
EXTRACT: note_on channel=0 note=44 velocity=0 time=0.332352775
EXTRACT: note_on channel=1 note=44 velocity=0 time=0.035294099999999995
EXTRACT: note_on channel=1 note=59 velocity=0 time=0
EXTRACT: control_change channel=6 control=64 value=0 time=0.008823524999999999
EXTRACT: note_on channel=1 note=63 velocity=0 time=0.008823524999999999
EXTRACT: note_on channel=1 note=66 velocity=0 time=0
EXTRACT: note_on channel=1 note=51 velocity=0 time=0.00588235
EXTRACT: note_on channel=1 note=66 velocity=71 time=0.014705875
EXTRACT: note_on channel=1 note=42 velocity=61 time=0.002941175
EXTRACT: note_on channel=1 note=61 velocity=71 time=0.008823524999999999
EXTRACT: note_on channel=0 note=46 velocity=92 time=0.00588235
EXTRACT: note_on channel=6 note=61 velocity=64 time=0
EXTRACT: note_on channel=1 note=54 velocity=69 time=0.002941175
EXTRACT: note_on channel=1 note=49 velocity=61 time=0.00588235
EXTRACT: control_change channel=6 control=64 value=127 time=0.09999994999999999
EXTRACT: note_on channel=9 note=75 velocity=47 time=0.244117525
EXTRACT: note_on channel=6 note=61 velocity=0 time=0.073529375
EXTRACT: note_on channel=9 note=75 velocity=0 time=0.038235275
EXTRACT: note_on channel=1 note=66 velocity=0 time=0.032352925
EXTRACT: note_on channel=1 note=42 velocity=0 time=0.002941175
EXTRACT: note_on channel=1 note=61 velocity=0 time=0.008823524999999999
EXTRACT: note_on channel=1 note=61 velocity=73 time=0.00588235
EXTRACT: note_on channel=1 note=54 velocity=0 time=0.002941175
EXTRACT: note_on channel=1 note=66 velocity=73 time=0
EXTRACT: note_on channel=1 note=42 velocity=51 time=0.002941175
EXTRACT: note_on channel=1 note=49 velocity=0 time=0.002941175
EXTRACT: note_on channel=1 note=49 velocity=51 time=0.014705875
EXTRACT: note_on channel=1 note=54 velocity=66 time=0
EXTRACT: note_on channel=6 note=66 velocity=64 time=0.00588235
EXTRACT: note_on channel=9 note=46 velocity=66 time=0
EXTRACT: note_on channel=9 note=46 velocity=0 time=0.117647
EXTRACT: note_on channel=6 note=66 velocity=0 time=0.00588235
EXTRACT: note_on channel=1 note=54 velocity=0 time=0.0117647
EXTRACT: note_on channel=1 note=61 velocity=0 time=0.002941175
EXTRACT: note_on channel=1 note=54 velocity=64 time=0.002941175
EXTRACT: note_on channel=1 note=61 velocity=64 time=0
EXTRACT: note_on channel=1 note=66 velocity=0 time=0
EXTRACT: note_on channel=1 note=42 velocity=0 time=0.002941175
EXTRACT: note_on channel=1 note=49 velocity=0 time=0.008823524999999999
EXTRACT: note_on channel=1 note=42 velocity=55 time=0
EXTRACT: note_on channel=1 note=49 velocity=55 time=0.002941175
EXTRACT: note_on channel=1 note=66 velocity=64 time=0.00588235
EXTRACT: note_on channel=9 note=42 velocity=1 time=0.014705875
EXTRACT: note_on channel=9 note=42 velocity=0 time=0.114705825
EXTRACT: note_on channel=0 note=46 velocity=0 time=0.19117637499999998
EXTRACT: note_on channel=1 note=54 velocity=0 time=0.014705875
EXTRACT: note_on channel=1 note=61 velocity=0 time=0
EXTRACT: note_on channel=1 note=66 velocity=0 time=0.008823524999999999
EXTRACT: note_on channel=1 note=54 velocity=64 time=0
EXTRACT: note_on channel=1 note=42 velocity=0 time=0.002941175
EXTRACT: note_on channel=1 note=66 velocity=64 time=0
EXTRACT: note_on channel=0 note=47 velocity=92 time=0.002941175
EXTRACT: note_on channel=1 note=49 velocity=0 time=0.002941175
EXTRACT: note_on channel=6 note=63 velocity=64 time=0
EXTRACT: note_on channel=1 note=59 velocity=64 time=0.002941175
EXTRACT: note_on channel=1 note=63 velocity=64 time=0.00588235
EXTRACT: note_on channel=1 note=47 velocity=56 time=0.00588235
EXTRACT: note_on channel=6 note=63 velocity=0 time=0.073529375
EXTRACT: note_on channel=9 note=70 velocity=96 time=0.26470574999999996
EXTRACT: note_on channel=9 note=70 velocity=0 time=0.126470525
EXTRACT: note_on channel=1 note=54 velocity=0 time=0.014705875
EXTRACT: note_on channel=1 note=66 velocity=0 time=0.002941175
EXTRACT: note_on channel=1 note=59 velocity=0 time=0.008823524999999999
EXTRACT: note_on channel=1 note=63 velocity=0 time=0.00588235
EXTRACT: note_on channel=1 note=47 velocity=0 time=0.00588235
EXTRACT: note_on channel=1 note=63 velocity=69 time=0.002941175
EXTRACT: note_on channel=1 note=59 velocity=65 time=0.00588235
EXTRACT: note_on channel=1 note=47 velocity=39 time=0.002941175
EXTRACT: note_on channel=1 note=54 velocity=47 time=0.0117647
EXTRACT: note_on channel=1 note=66 velocity=69 time=0
EXTRACT: note_on channel=1 note=59 velocity=0 time=0.1294117
EXTRACT: note_on channel=1 note=47 velocity=0 time=0.002941175
EXTRACT: note_on channel=1 note=63 velocity=0 time=0.00588235
EXTRACT: note_on channel=1 note=59 velocity=63 time=0
EXTRACT: note_on channel=1 note=63 velocity=63 time=0.00588235
EXTRACT: note_on channel=1 note=47 velocity=55 time=0
EXTRACT: note_on channel=1 note=66 velocity=0 time=0.002941175
EXTRACT: note_on channel=1 note=66 velocity=63 time=0.00588235
EXTRACT: note_on channel=1 note=54 velocity=0 time=0.00588235
EXTRACT: note_on channel=9 note=60 velocity=56 time=0
EXTRACT: note_on channel=1 note=54 velocity=63 time=0.008823524999999999
EXTRACT: note_on channel=9 note=60 velocity=0 time=0.12058817499999999
EXTRACT: note_on channel=1 note=66 velocity=0 time=0.220588125
EXTRACT: note_on channel=1 note=47 velocity=0 time=0
EXTRACT: note_on channel=1 note=54 velocity=0 time=0.002941175
EXTRACT: note_on channel=1 note=59 velocity=0 time=0
EXTRACT: note_on channel=1 note=63 velocity=0 time=0
EXTRACT: note_on channel=1 note=59 velocity=48 time=0.002941175
EXTRACT: note_on channel=1 note=63 velocity=60 time=0
EXTRACT: note_on channel=1 note=47 velocity=21 time=0
EXTRACT: note_on channel=9 note=82 velocity=49 time=0.002941175
EXTRACT: note_on channel=9 note=64 velocity=56 time=0
EXTRACT: note_on channel=1 note=54 velocity=24 time=0.00588235
EXTRACT: note_on channel=1 note=66 velocity=60 time=0
EXTRACT: note_on channel=1 note=47 velocity=0 time=0.002941175
EXTRACT: note_on channel=1 note=59 velocity=0 time=0
EXTRACT: note_on channel=1 note=63 velocity=0 time=0
EXTRACT: note_on channel=1 note=54 velocity=0 time=0.008823524999999999
EXTRACT: note_on channel=1 note=66 velocity=0 time=0.002941175
EXTRACT: note_on channel=9 note=82 velocity=0 time=0.11176465
EXTRACT: note_on channel=1 note=59 velocity=63 time=0.014705875
EXTRACT: note_on channel=1 note=47 velocity=55 time=0
EXTRACT: note_on channel=1 note=66 velocity=63 time=0.017647049999999997
EXTRACT: note_on channel=1 note=63 velocity=63 time=0
EXTRACT: note_on channel=9 note=64 velocity=0 time=0
EXTRACT: note_on channel=1 note=54 velocity=63 time=0.00588235
EXTRACT: note_on channel=9 note=46 velocity=45 time=0.014705875
EXTRACT: note_on channel=9 note=46 velocity=0 time=0.097058775
EXTRACT: control_change channel=6 control=64 value=0 time=0.3411763
EXTRACT: note_on channel=1 note=47 velocity=0 time=0.026470575
EXTRACT: note_on channel=1 note=59 velocity=0 time=0
EXTRACT: note_on channel=1 note=63 velocity=0 time=0.017647049999999997
EXTRACT: note_on channel=1 note=66 velocity=0 time=0
EXTRACT: note_on channel=1 note=54 velocity=0 time=0.00588235
EXTRACT: note_on channel=1 note=66 velocity=71 time=0.014705875
EXTRACT: note_on channel=1 note=42 velocity=61 time=0.002941175
EXTRACT: note_on channel=1 note=61 velocity=71 time=0.008823524999999999
EXTRACT: note_on channel=0 note=46 velocity=92 time=0.002941175
EXTRACT: note_on channel=6 note=61 velocity=64 time=0.002941175
EXTRACT: note_on channel=1 note=54 velocity=69 time=0.002941175
EXTRACT: note_on channel=1 note=49 velocity=61 time=0.00588235
EXTRACT: note_on channel=0 note=47 velocity=0 time=0.10882347499999999
EXTRACT: control_change channel=6 control=64 value=127 time=0.035294099999999995
EXTRACT: note_on channel=9 note=75 velocity=47 time=0.19999989999999998
EXTRACT: note_on channel=6 note=61 velocity=0 time=0.017647049999999997
EXTRACT: note_on channel=9 note=75 velocity=0 time=0.0941176
EXTRACT: note_on channel=1 note=66 velocity=0 time=0.032352925
EXTRACT: note_on channel=1 note=42 velocity=0 time=0.002941175
EXTRACT: note_on channel=1 note=61 velocity=0 time=0.008823524999999999
EXTRACT: note_on channel=1 note=61 velocity=73 time=0.00588235
EXTRACT: note_on channel=1 note=54 velocity=0 time=0.002941175
EXTRACT: note_on channel=1 note=66 velocity=73 time=0
EXTRACT: note_on channel=1 note=42 velocity=51 time=0.002941175
EXTRACT: note_on channel=1 note=49 velocity=0 time=0.002941175
EXTRACT: note_on channel=1 note=49 velocity=51 time=0.014705875
EXTRACT: note_on channel=1 note=54 velocity=66 time=0
EXTRACT: note_on channel=6 note=63 velocity=64 time=0.00588235
EXTRACT: note_on channel=9 note=46 velocity=66 time=0
EXTRACT: note_on channel=6 note=63 velocity=0 time=0.114705825
EXTRACT: note_on channel=9 note=46 velocity=0 time=0.002941175
EXTRACT: note_on channel=1 note=54 velocity=0 time=0.017647049999999997
EXTRACT: note_on channel=1 note=61 velocity=0 time=0.002941175
EXTRACT: note_on channel=1 note=54 velocity=64 time=0.002941175
EXTRACT: note_on channel=1 note=61 velocity=64 time=0
EXTRACT: note_on channel=1 note=66 velocity=0 time=0
EXTRACT: note_on channel=1 note=42 velocity=0 time=0.002941175
EXTRACT: note_on channel=1 note=49 velocity=0 time=0.008823524999999999
EXTRACT: note_on channel=1 note=42 velocity=55 time=0
EXTRACT: note_on channel=1 note=49 velocity=55 time=0.002941175
EXTRACT: note_on channel=1 note=66 velocity=64 time=0.00588235
EXTRACT: note_on channel=9 note=42 velocity=1 time=0.014705875
EXTRACT: note_on channel=9 note=42 velocity=0 time=0.114705825
EXTRACT: note_on channel=0 note=46 velocity=0 time=0.202941075
EXTRACT: note_on channel=1 note=54 velocity=0 time=0.002941175
EXTRACT: note_on channel=1 note=61 velocity=0 time=0
EXTRACT: note_on channel=1 note=66 velocity=0 time=0.008823524999999999
EXTRACT: note_on channel=1 note=51 velocity=64 time=0
EXTRACT: note_on channel=1 note=42 velocity=0 time=0.002941175
EXTRACT: note_on channel=1 note=66 velocity=64 time=0
EXTRACT: note_on channel=0 note=44 velocity=92 time=0.00588235
EXTRACT: note_on channel=1 note=49 velocity=0 time=0
EXTRACT: note_on channel=6 note=59 velocity=60 time=0
EXTRACT: note_on channel=1 note=59 velocity=64 time=0.002941175
EXTRACT: note_on channel=1 note=63 velocity=64 time=0.00588235
EXTRACT: note_on channel=1 note=44 velocity=56 time=0.00588235
EXTRACT: note_on channel=6 note=59 velocity=0 time=0.0941176
EXTRACT: note_on channel=9 note=70 velocity=96 time=0.244117525
EXTRACT: note_on channel=9 note=70 velocity=0 time=0.126470525
EXTRACT: note_on channel=1 note=51 velocity=0 time=0.014705875
EXTRACT: note_on channel=1 note=66 velocity=0 time=0.002941175
EXTRACT: note_on channel=1 note=59 velocity=0 time=0.008823524999999999
EXTRACT: note_on channel=1 note=63 velocity=0 time=0.00588235
EXTRACT: note_on channel=1 note=44 velocity=0 time=0.00588235
EXTRACT: note_on channel=1 note=63 velocity=69 time=0.002941175
EXTRACT: note_on channel=1 note=59 velocity=65 time=0.00588235
EXTRACT: note_on channel=1 note=44 velocity=39 time=0.002941175
EXTRACT: note_on channel=1 note=51 velocity=47 time=0.0117647
EXTRACT: note_on channel=1 note=66 velocity=69 time=0
EXTRACT: note_on channel=1 note=59 velocity=0 time=0.1294117
EXTRACT: note_on channel=1 note=44 velocity=0 time=0.002941175
EXTRACT: note_on channel=1 note=63 velocity=0 time=0.00588235
EXTRACT: note_on channel=1 note=59 velocity=63 time=0
EXTRACT: note_on channel=1 note=63 velocity=63 time=0.00588235
EXTRACT: note_on channel=1 note=44 velocity=55 time=0
EXTRACT: note_on channel=1 note=66 velocity=0 time=0.002941175
EXTRACT: note_on channel=1 note=66 velocity=63 time=0.00588235
EXTRACT: note_on channel=1 note=51 velocity=0 time=0.00588235
EXTRACT: note_on channel=9 note=60 velocity=56 time=0
EXTRACT: note_on channel=1 note=51 velocity=63 time=0.008823524999999999
EXTRACT: note_on channel=9 note=60 velocity=0 time=0.12058817499999999
EXTRACT: note_on channel=1 note=66 velocity=0 time=0.220588125
EXTRACT: note_on channel=1 note=44 velocity=0 time=0
EXTRACT: note_on channel=1 note=51 velocity=0 time=0.002941175
EXTRACT: note_on channel=1 note=59 velocity=0 time=0
EXTRACT: note_on channel=1 note=63 velocity=0 time=0
EXTRACT: note_on channel=1 note=59 velocity=48 time=0.002941175
EXTRACT: note_on channel=1 note=63 velocity=60 time=0
EXTRACT: note_on channel=1 note=44 velocity=21 time=0
EXTRACT: note_on channel=9 note=82 velocity=49 time=0.002941175
EXTRACT: note_on channel=9 note=64 velocity=56 time=0
EXTRACT: note_on channel=1 note=51 velocity=24 time=0.00588235
EXTRACT: note_on channel=1 note=66 velocity=60 time=0
EXTRACT: note_on channel=1 note=44 velocity=0 time=0.002941175
EXTRACT: note_on channel=1 note=59 velocity=0 time=0
EXTRACT: note_on channel=1 note=63 velocity=0 time=0
EXTRACT: note_on channel=1 note=51 velocity=0 time=0.008823524999999999
EXTRACT: note_on channel=1 note=66 velocity=0 time=0.002941175
EXTRACT: note_on channel=9 note=82 velocity=0 time=0.11176465
EXTRACT: note_on channel=1 note=59 velocity=63 time=0.014705875
EXTRACT: note_on channel=1 note=44 velocity=55 time=0
EXTRACT: note_on channel=1 note=66 velocity=63 time=0.017647049999999997
EXTRACT: note_on channel=1 note=63 velocity=63 time=0
EXTRACT: note_on channel=9 note=64 velocity=0 time=0
EXTRACT: note_on channel=1 note=51 velocity=63 time=0.00588235
EXTRACT: note_on channel=9 note=46 velocity=45 time=0.014705875
EXTRACT: note_on channel=9 note=46 velocity=0 time=0.097058775
EXTRACT: note_on channel=0 note=44 velocity=0 time=0.332352775
EXTRACT: note_on channel=1 note=44 velocity=0 time=0.035294099999999995
EXTRACT: note_on channel=1 note=59 velocity=0 time=0
EXTRACT: control_change channel=6 control=64 value=0 time=0.008823524999999999
EXTRACT: note_on channel=1 note=63 velocity=0 time=0.008823524999999999
EXTRACT: note_on channel=1 note=66 velocity=0 time=0
EXTRACT: note_on channel=1 note=51 velocity=0 time=0.00588235
EXTRACT: note_on channel=1 note=66 velocity=71 time=0.014705875
EXTRACT: note_on channel=1 note=42 velocity=61 time=0.002941175
EXTRACT: note_on channel=1 note=61 velocity=71 time=0.008823524999999999
EXTRACT: note_on channel=0 note=46 velocity=92 time=0.00588235
EXTRACT: note_on channel=6 note=61 velocity=64 time=0
EXTRACT: note_on channel=1 note=54 velocity=69 time=0.002941175
EXTRACT: note_on channel=1 note=49 velocity=61 time=0.00588235
EXTRACT: control_change channel=6 control=64 value=127 time=0.09999994999999999
EXTRACT: note_on channel=9 note=75 velocity=47 time=0.244117525
EXTRACT: note_on channel=6 note=61 velocity=0 time=0.073529375
EXTRACT: note_on channel=9 note=75 velocity=0 time=0.038235275
EXTRACT: note_on channel=1 note=66 velocity=0 time=0.032352925
EXTRACT: note_on channel=1 note=42 velocity=0 time=0.002941175
EXTRACT: note_on channel=1 note=61 velocity=0 time=0.008823524999999999
EXTRACT: note_on channel=1 note=61 velocity=73 time=0.00588235
EXTRACT: note_on channel=1 note=54 velocity=0 time=0.002941175
EXTRACT: note_on channel=1 note=66 velocity=73 time=0
EXTRACT: note_on channel=1 note=42 velocity=51 time=0.002941175
EXTRACT: note_on channel=1 note=49 velocity=0 time=0.002941175
EXTRACT: note_on channel=1 note=49 velocity=51 time=0.014705875
EXTRACT: note_on channel=1 note=54 velocity=66 time=0
EXTRACT: note_on channel=6 note=66 velocity=64 time=0.00588235
EXTRACT: note_on channel=9 note=46 velocity=66 time=0
EXTRACT: note_on channel=9 note=46 velocity=0 time=0.117647
EXTRACT: note_on channel=6 note=66 velocity=0 time=0.00588235
EXTRACT: note_on channel=1 note=54 velocity=0 time=0.0117647
EXTRACT: note_on channel=1 note=61 velocity=0 time=0.002941175
EXTRACT: note_on channel=1 note=54 velocity=64 time=0.002941175
EXTRACT: note_on channel=1 note=61 velocity=64 time=0
EXTRACT: note_on channel=1 note=66 velocity=0 time=0
EXTRACT: note_on channel=1 note=42 velocity=0 time=0.002941175
EXTRACT: note_on channel=1 note=49 velocity=0 time=0.008823524999999999
EXTRACT: note_on channel=1 note=42 velocity=55 time=0
EXTRACT: note_on channel=1 note=49 velocity=55 time=0.002941175
EXTRACT: note_on channel=1 note=66 velocity=64 time=0.00588235
EXTRACT: note_on channel=9 note=42 velocity=1 time=0.014705875
EXTRACT: note_on channel=9 note=42 velocity=0 time=0.114705825
EXTRACT: note_on channel=0 note=46 velocity=0 time=0.19117637499999998
EXTRACT: note_on channel=1 note=54 velocity=0 time=0.014705875
EXTRACT: note_on channel=1 note=61 velocity=0 time=0
EXTRACT: note_on channel=1 note=66 velocity=0 time=0.008823524999999999
EXTRACT: note_on channel=1 note=54 velocity=64 time=0
EXTRACT: note_on channel=1 note=42 velocity=0 time=0.002941175
EXTRACT: note_on channel=1 note=66 velocity=64 time=0
EXTRACT: note_on channel=0 note=47 velocity=92 time=0.002941175
EXTRACT: note_on channel=1 note=49 velocity=0 time=0.002941175
EXTRACT: note_on channel=6 note=63 velocity=64 time=0
EXTRACT: note_on channel=1 note=59 velocity=64 time=0.002941175
EXTRACT: note_on channel=1 note=63 velocity=64 time=0.00588235
EXTRACT: note_on channel=1 note=47 velocity=56 time=0.00588235
EXTRACT: note_on channel=6 note=63 velocity=0 time=0.073529375
EXTRACT: note_on channel=9 note=70 velocity=96 time=0.26470574999999996
EXTRACT: note_on channel=9 note=70 velocity=0 time=0.126470525
EXTRACT: note_on channel=1 note=54 velocity=0 time=0.014705875
EXTRACT: note_on channel=1 note=66 velocity=0 time=0.002941175
EXTRACT: note_on channel=1 note=59 velocity=0 time=0.008823524999999999
EXTRACT: note_on channel=1 note=63 velocity=0 time=0.00588235
EXTRACT: note_on channel=1 note=47 velocity=0 time=0.00588235
EXTRACT: note_on channel=1 note=63 velocity=69 time=0.002941175
EXTRACT: note_on channel=1 note=59 velocity=65 time=0.00588235
EXTRACT: note_on channel=1 note=47 velocity=39 time=0.002941175
EXTRACT: note_on channel=1 note=54 velocity=47 time=0.0117647
EXTRACT: note_on channel=1 note=66 velocity=69 time=0
EXTRACT: note_on channel=1 note=59 velocity=0 time=0.1294117
EXTRACT: note_on channel=1 note=47 velocity=0 time=0.002941175
EXTRACT: note_on channel=1 note=63 velocity=0 time=0.00588235
EXTRACT: note_on channel=1 note=59 velocity=63 time=0
EXTRACT: note_on channel=1 note=63 velocity=63 time=0.00588235
EXTRACT: note_on channel=1 note=47 velocity=55 time=0
EXTRACT: note_on channel=1 note=66 velocity=0 time=0.002941175
EXTRACT: note_on channel=1 note=66 velocity=63 time=0.00588235
EXTRACT: note_on channel=1 note=54 velocity=0 time=0.00588235
EXTRACT: note_on channel=9 note=60 velocity=56 time=0
EXTRACT: note_on channel=1 note=54 velocity=63 time=0.008823524999999999
EXTRACT: note_on channel=9 note=60 velocity=0 time=0.12058817499999999
EXTRACT: note_on channel=1 note=66 velocity=0 time=0.220588125
EXTRACT: note_on channel=1 note=47 velocity=0 time=0
EXTRACT: note_on channel=1 note=54 velocity=0 time=0.002941175
EXTRACT: note_on channel=1 note=59 velocity=0 time=0
EXTRACT: note_on channel=1 note=63 velocity=0 time=0
EXTRACT: note_on channel=1 note=59 velocity=48 time=0.002941175
EXTRACT: note_on channel=1 note=63 velocity=60 time=0
EXTRACT: note_on channel=1 note=47 velocity=21 time=0
EXTRACT: note_on channel=9 note=82 velocity=49 time=0.002941175
EXTRACT: note_on channel=9 note=64 velocity=56 time=0
EXTRACT: note_on channel=1 note=54 velocity=24 time=0.00588235
EXTRACT: note_on channel=1 note=66 velocity=60 time=0
EXTRACT: note_on channel=1 note=47 velocity=0 time=0.002941175
EXTRACT: note_on channel=1 note=59 velocity=0 time=0
EXTRACT: note_on channel=1 note=63 velocity=0 time=0
EXTRACT: note_on channel=1 note=54 velocity=0 time=0.008823524999999999
EXTRACT: note_on channel=1 note=66 velocity=0 time=0.002941175
EXTRACT: note_on channel=9 note=82 velocity=0 time=0.11176465
EXTRACT: note_on channel=1 note=59 velocity=63 time=0.014705875
EXTRACT: note_on channel=1 note=47 velocity=55 time=0
EXTRACT: note_on channel=1 note=66 velocity=63 time=0.017647049999999997
EXTRACT: note_on channel=1 note=63 velocity=63 time=0
EXTRACT: note_on channel=9 note=64 velocity=0 time=0
EXTRACT: note_on channel=1 note=54 velocity=63 time=0.00588235
EXTRACT: note_on channel=9 note=46 velocity=45 time=0.014705875
EXTRACT: note_on channel=9 note=46 velocity=0 time=0.097058775
EXTRACT: control_change channel=6 control=64 value=0 time=0.3411763
EXTRACT: note_on channel=1 note=47 velocity=0 time=0.026470575
EXTRACT: note_on channel=1 note=59 velocity=0 time=0
EXTRACT: note_on channel=1 note=63 velocity=0 time=0.017647049999999997
EXTRACT: note_on channel=1 note=66 velocity=0 time=0
EXTRACT: note_on channel=1 note=54 velocity=0 time=0.00588235
EXTRACT: note_on channel=1 note=66 velocity=71 time=0.014705875
EXTRACT: note_on channel=1 note=42 velocity=61 time=0.002941175
EXTRACT: note_on channel=1 note=61 velocity=71 time=0.008823524999999999
EXTRACT: note_on channel=0 note=46 velocity=92 time=0.002941175
EXTRACT: note_on channel=6 note=61 velocity=64 time=0.002941175
EXTRACT: note_on channel=1 note=54 velocity=69 time=0.002941175
EXTRACT: note_on channel=1 note=49 velocity=61 time=0.00588235
EXTRACT: note_on channel=0 note=47 velocity=0 time=0.10882347499999999
EXTRACT: control_change channel=6 control=64 value=127 time=0.035294099999999995
EXTRACT: note_on channel=9 note=75 velocity=47 time=0.19999989999999998
EXTRACT: note_on channel=6 note=61 velocity=0 time=0.017647049999999997
EXTRACT: note_on channel=9 note=75 velocity=0 time=0.0941176
EXTRACT: note_on channel=1 note=66 velocity=0 time=0.032352925
EXTRACT: note_on channel=1 note=42 velocity=0 time=0.002941175
EXTRACT: note_on channel=1 note=61 velocity=0 time=0.008823524999999999
EXTRACT: note_on channel=1 note=61 velocity=73 time=0.00588235
EXTRACT: note_on channel=1 note=54 velocity=0 time=0.002941175
EXTRACT: note_on channel=1 note=66 velocity=73 time=0
EXTRACT: note_on channel=1 note=42 velocity=51 time=0.002941175
EXTRACT: note_on channel=1 note=49 velocity=0 time=0.002941175
EXTRACT: note_on channel=1 note=49 velocity=51 time=0.014705875
EXTRACT: note_on channel=1 note=54 velocity=66 time=0
EXTRACT: note_on channel=6 note=63 velocity=64 time=0.00588235
EXTRACT: note_on channel=9 note=46 velocity=66 time=0
EXTRACT: note_on channel=6 note=63 velocity=0 time=0.114705825
EXTRACT: note_on channel=9 note=46 velocity=0 time=0.002941175
EXTRACT: note_on channel=1 note=54 velocity=0 time=0.017647049999999997
EXTRACT: note_on channel=1 note=61 velocity=0 time=0.002941175
EXTRACT: note_on channel=1 note=54 velocity=64 time=0.002941175
EXTRACT: note_on channel=1 note=61 velocity=64 time=0
EXTRACT: note_on channel=1 note=66 velocity=0 time=0
EXTRACT: note_on channel=1 note=42 velocity=0 time=0.002941175
EXTRACT: note_on channel=1 note=49 velocity=0 time=0.008823524999999999
EXTRACT: note_on channel=1 note=42 velocity=55 time=0
EXTRACT: note_on channel=1 note=49 velocity=55 time=0.002941175
EXTRACT: note_on channel=1 note=66 velocity=64 time=0.00588235
EXTRACT: note_on channel=9 note=42 velocity=1 time=0.014705875
EXTRACT: note_on channel=9 note=42 velocity=0 time=0.114705825
EXTRACT: note_on channel=0 note=46 velocity=0 time=0.202941075
EXTRACT: note_on channel=1 note=54 velocity=0 time=0.002941175
EXTRACT: note_on channel=1 note=61 velocity=0 time=0
EXTRACT: note_on channel=1 note=66 velocity=0 time=0.008823524999999999
EXTRACT: note_on channel=1 note=51 velocity=64 time=0
EXTRACT: note_on channel=1 note=42 velocity=0 time=0.002941175
EXTRACT: note_on channel=1 note=66 velocity=64 time=0
EXTRACT: note_on channel=0 note=44 velocity=92 time=0.00588235
EXTRACT: note_on channel=1 note=49 velocity=0 time=0
EXTRACT: note_on channel=6 note=59 velocity=60 time=0
EXTRACT: note_on channel=1 note=59 velocity=64 time=0.002941175
EXTRACT: note_on channel=1 note=63 velocity=64 time=0.00588235
EXTRACT: note_on channel=1 note=44 velocity=56 time=0.00588235
EXTRACT: note_on channel=6 note=59 velocity=0 time=0.0941176
EXTRACT: note_on channel=9 note=70 velocity=96 time=0.244117525
EXTRACT: note_on channel=9 note=70 velocity=0 time=0.126470525
EXTRACT: note_on channel=1 note=51 velocity=0 time=0.014705875
EXTRACT: note_on channel=1 note=66 velocity=0 time=0.002941175
EXTRACT: note_on channel=1 note=59 velocity=0 time=0.008823524999999999
EXTRACT: note_on channel=1 note=63 velocity=0 time=0.00588235
EXTRACT: note_on channel=1 note=44 velocity=0 time=0.00588235
EXTRACT: note_on channel=1 note=63 velocity=69 time=0.002941175
EXTRACT: note_on channel=1 note=59 velocity=65 time=0.00588235
EXTRACT: note_on channel=1 note=44 velocity=39 time=0.002941175
EXTRACT: note_on channel=1 note=51 velocity=47 time=0.0117647
EXTRACT: note_on channel=1 note=66 velocity=69 time=0
EXTRACT: note_on channel=1 note=59 velocity=0 time=0.1294117
EXTRACT: note_on channel=1 note=44 velocity=0 time=0.002941175
EXTRACT: note_on channel=1 note=63 velocity=0 time=0.00588235
EXTRACT: note_on channel=1 note=59 velocity=63 time=0
EXTRACT: note_on channel=1 note=63 velocity=63 time=0.00588235
EXTRACT: note_on channel=1 note=44 velocity=55 time=0
EXTRACT: note_on channel=1 note=66 velocity=0 time=0.002941175
EXTRACT: note_on channel=1 note=66 velocity=63 time=0.00588235
EXTRACT: note_on channel=1 note=51 velocity=0 time=0.00588235
EXTRACT: note_on channel=9 note=60 velocity=56 time=0
EXTRACT: note_on channel=1 note=51 velocity=63 time=0.008823524999999999
EXTRACT: note_on channel=9 note=60 velocity=0 time=0.12058817499999999
EXTRACT: note_on channel=1 note=66 velocity=0 time=0.220588125
EXTRACT: note_on channel=1 note=44 velocity=0 time=0
EXTRACT: note_on channel=1 note=51 velocity=0 time=0.002941175
EXTRACT: note_on channel=1 note=59 velocity=0 time=0
EXTRACT: note_on channel=1 note=63 velocity=0 time=0
EXTRACT: note_on channel=1 note=59 velocity=48 time=0.002941175
EXTRACT: note_on channel=1 note=63 velocity=60 time=0
EXTRACT: note_on channel=1 note=44 velocity=21 time=0
EXTRACT: note_on channel=9 note=82 velocity=49 time=0.002941175
EXTRACT: note_on channel=9 note=64 velocity=56 time=0
EXTRACT: note_on channel=1 note=51 velocity=24 time=0.00588235
EXTRACT: note_on channel=1 note=66 velocity=60 time=0
EXTRACT: note_on channel=1 note=44 velocity=0 time=0.002941175
EXTRACT: note_on channel=1 note=59 velocity=0 time=0
EXTRACT: note_on channel=1 note=63 velocity=0 time=0
EXTRACT: note_on channel=1 note=51 velocity=0 time=0.008823524999999999
EXTRACT: note_on channel=1 note=66 velocity=0 time=0.002941175
EXTRACT: note_on channel=9 note=82 velocity=0 time=0.11176465
EXTRACT: note_on channel=1 note=59 velocity=63 time=0.014705875
EXTRACT: note_on channel=1 note=44 velocity=55 time=0
EXTRACT: note_on channel=1 note=66 velocity=63 time=0.017647049999999997
EXTRACT: note_on channel=1 note=63 velocity=63 time=0
EXTRACT: note_on channel=9 note=64 velocity=0 time=0
EXTRACT: note_on channel=1 note=51 velocity=63 time=0.00588235
EXTRACT: note_on channel=9 note=46 velocity=45 time=0.014705875
EXTRACT: note_on channel=9 note=46 velocity=0 time=0.097058775
EXTRACT: note_on channel=0 note=44 velocity=0 time=0.332352775
EXTRACT: note_on channel=1 note=44 velocity=0 time=0.035294099999999995
EXTRACT: note_on channel=1 note=59 velocity=0 time=0
EXTRACT: control_change channel=6 control=64 value=0 time=0.008823524999999999
EXTRACT: note_on channel=1 note=63 velocity=0 time=0.008823524999999999
EXTRACT: note_on channel=1 note=66 velocity=0 time=0
EXTRACT: note_on channel=1 note=51 velocity=0 time=0.00588235
EXTRACT: note_on channel=1 note=66 velocity=71 time=0.014705875
EXTRACT: note_on channel=1 note=42 velocity=61 time=0.002941175
EXTRACT: note_on channel=1 note=61 velocity=71 time=0.008823524999999999
EXTRACT: note_on channel=0 note=46 velocity=92 time=0.00588235
EXTRACT: note_on channel=6 note=61 velocity=64 time=0
EXTRACT: note_on channel=1 note=54 velocity=69 time=0.002941175
EXTRACT: note_on channel=1 note=49 velocity=61 time=0.00588235
EXTRACT: control_change channel=6 control=64 value=127 time=0.09999994999999999
EXTRACT: note_on channel=9 note=75 velocity=47 time=0.244117525
EXTRACT: note_on channel=6 note=61 velocity=0 time=0.073529375
EXTRACT: note_on channel=9 note=75 velocity=0 time=0.038235275
EXTRACT: note_on channel=1 note=66 velocity=0 time=0.032352925
EXTRACT: note_on channel=1 note=42 velocity=0 time=0.002941175
EXTRACT: note_on channel=1 note=61 velocity=0 time=0.008823524999999999
EXTRACT: note_on channel=1 note=61 velocity=73 time=0.00588235
EXTRACT: note_on channel=1 note=54 velocity=0 time=0.002941175
EXTRACT: note_on channel=1 note=66 velocity=73 time=0
EXTRACT: note_on channel=1 note=42 velocity=51 time=0.002941175
EXTRACT: note_on channel=1 note=49 velocity=0 time=0.002941175
EXTRACT: note_on channel=1 note=49 velocity=51 time=0.014705875
EXTRACT: note_on channel=1 note=54 velocity=66 time=0
EXTRACT: note_on channel=6 note=66 velocity=64 time=0.00588235
EXTRACT: note_on channel=9 note=46 velocity=66 time=0
EXTRACT: note_on channel=9 note=46 velocity=0 time=0.117647
EXTRACT: note_on channel=6 note=66 velocity=0 time=0.00588235
EXTRACT: note_on channel=1 note=54 velocity=0 time=0.0117647
EXTRACT: note_on channel=1 note=61 velocity=0 time=0.002941175
EXTRACT: note_on channel=1 note=54 velocity=64 time=0.002941175
EXTRACT: note_on channel=1 note=61 velocity=64 time=0
EXTRACT: note_on channel=1 note=66 velocity=0 time=0
EXTRACT: note_on channel=1 note=42 velocity=0 time=0.002941175
EXTRACT: note_on channel=1 note=49 velocity=0 time=0.008823524999999999
EXTRACT: note_on channel=1 note=42 velocity=55 time=0
EXTRACT: note_on channel=1 note=49 velocity=55 time=0.002941175
EXTRACT: note_on channel=1 note=66 velocity=64 time=0.00588235
EXTRACT: note_on channel=9 note=42 velocity=1 time=0.014705875
EXTRACT: note_on channel=9 note=42 velocity=0 time=0.114705825
EXTRACT: note_on channel=0 note=46 velocity=0 time=0.19117637499999998
EXTRACT: note_on channel=1 note=54 velocity=0 time=0.014705875
EXTRACT: note_on channel=1 note=61 velocity=0 time=0
EXTRACT: note_on channel=1 note=66 velocity=0 time=0.008823524999999999
EXTRACT: note_on channel=1 note=54 velocity=64 time=0
EXTRACT: note_on channel=1 note=42 velocity=0 time=0.002941175
EXTRACT: note_on channel=1 note=66 velocity=64 time=0
EXTRACT: note_on channel=0 note=47 velocity=92 time=0.002941175
EXTRACT: note_on channel=1 note=49 velocity=0 time=0.002941175
EXTRACT: note_on channel=6 note=63 velocity=64 time=0
EXTRACT: note_on channel=1 note=59 velocity=64 time=0.002941175
EXTRACT: note_on channel=1 note=63 velocity=64 time=0.00588235
EXTRACT: note_on channel=1 note=47 velocity=56 time=0.00588235
EXTRACT: note_on channel=6 note=63 velocity=0 time=0.073529375
EXTRACT: note_on channel=9 note=70 velocity=96 time=0.26470574999999996
EXTRACT: note_on channel=9 note=70 velocity=0 time=0.126470525
EXTRACT: note_on channel=1 note=54 velocity=0 time=0.014705875
EXTRACT: note_on channel=1 note=66 velocity=0 time=0.002941175
EXTRACT: note_on channel=1 note=59 velocity=0 time=0.008823524999999999
EXTRACT: note_on channel=1 note=63 velocity=0 time=0.00588235
EXTRACT: note_on channel=1 note=47 velocity=0 time=0.00588235
EXTRACT: note_on channel=1 note=63 velocity=69 time=0.002941175
EXTRACT: note_on channel=1 note=59 velocity=65 time=0.00588235
EXTRACT: note_on channel=1 note=47 velocity=39 time=0.002941175
EXTRACT: note_on channel=1 note=54 velocity=47 time=0.0117647
EXTRACT: note_on channel=1 note=66 velocity=69 time=0
EXTRACT: note_on channel=1 note=59 velocity=0 time=0.1294117
EXTRACT: note_on channel=1 note=47 velocity=0 time=0.002941175
EXTRACT: note_on channel=1 note=63 velocity=0 time=0.00588235
EXTRACT: note_on channel=1 note=59 velocity=63 time=0
EXTRACT: note_on channel=1 note=63 velocity=63 time=0.00588235
EXTRACT: note_on channel=1 note=47 velocity=55 time=0
EXTRACT: note_on channel=1 note=66 velocity=0 time=0.002941175
EXTRACT: note_on channel=1 note=66 velocity=63 time=0.00588235
EXTRACT: note_on channel=1 note=54 velocity=0 time=0.00588235
EXTRACT: note_on channel=9 note=60 velocity=56 time=0
EXTRACT: note_on channel=1 note=54 velocity=63 time=0.008823524999999999
EXTRACT: note_on channel=9 note=60 velocity=0 time=0.12058817499999999
EXTRACT: note_on channel=1 note=66 velocity=0 time=0.220588125
EXTRACT: note_on channel=1 note=47 velocity=0 time=0
EXTRACT: note_on channel=1 note=54 velocity=0 time=0.002941175
EXTRACT: note_on channel=1 note=59 velocity=0 time=0
EXTRACT: note_on channel=1 note=63 velocity=0 time=0
EXTRACT: note_on channel=1 note=59 velocity=48 time=0.002941175
EXTRACT: note_on channel=1 note=63 velocity=60 time=0
EXTRACT: note_on channel=1 note=47 velocity=21 time=0
EXTRACT: note_on channel=9 note=82 velocity=49 time=0.002941175
EXTRACT: note_on channel=9 note=64 velocity=56 time=0
EXTRACT: note_on channel=1 note=54 velocity=24 time=0.00588235
EXTRACT: note_on channel=1 note=66 velocity=60 time=0
EXTRACT: note_on channel=1 note=47 velocity=0 time=0.002941175
EXTRACT: note_on channel=1 note=59 velocity=0 time=0
EXTRACT: note_on channel=1 note=63 velocity=0 time=0
EXTRACT: note_on channel=1 note=54 velocity=0 time=0.008823524999999999
EXTRACT: note_on channel=1 note=66 velocity=0 time=0.002941175
EXTRACT: note_on channel=9 note=82 velocity=0 time=0.11176465
EXTRACT: note_on channel=1 note=59 velocity=63 time=0.014705875
EXTRACT: note_on channel=1 note=47 velocity=55 time=0
EXTRACT: note_on channel=1 note=66 velocity=63 time=0.017647049999999997
EXTRACT: note_on channel=1 note=63 velocity=63 time=0
EXTRACT: note_on channel=9 note=64 velocity=0 time=0
EXTRACT: note_on channel=1 note=54 velocity=63 time=0.00588235
EXTRACT: note_on channel=9 note=46 velocity=45 time=0.014705875
EXTRACT: note_on channel=9 note=46 velocity=0 time=0.097058775
EXTRACT: control_change channel=6 control=64 value=0 time=0.3411763
EXTRACT: note_on channel=1 note=47 velocity=0 time=0.026470575
EXTRACT: note_on channel=1 note=59 velocity=0 time=0
EXTRACT: note_on channel=1 note=63 velocity=0 time=0.017647049999999997
EXTRACT: note_on channel=1 note=66 velocity=0 time=0
EXTRACT: note_on channel=1 note=54 velocity=0 time=0.00588235
EXTRACT: note_on channel=1 note=66 velocity=71 time=0.014705875
EXTRACT: note_on channel=1 note=42 velocity=61 time=0.002941175
EXTRACT: note_on channel=1 note=61 velocity=71 time=0.008823524999999999
EXTRACT: note_on channel=0 note=46 velocity=92 time=0.002941175
EXTRACT: note_on channel=6 note=61 velocity=64 time=0.002941175
EXTRACT: note_on channel=1 note=54 velocity=69 time=0.002941175
EXTRACT: note_on channel=1 note=49 velocity=61 time=0.00588235
EXTRACT: note_on channel=0 note=47 velocity=0 time=0.10882347499999999
EXTRACT: control_change channel=6 control=64 value=127 time=0.035294099999999995
EXTRACT: note_on channel=9 note=75 velocity=47 time=0.19999989999999998
EXTRACT: note_on channel=6 note=61 velocity=0 time=0.017647049999999997
EXTRACT: note_on channel=9 note=75 velocity=0 time=0.0941176
EXTRACT: note_on channel=1 note=66 velocity=0 time=0.032352925
EXTRACT: note_on channel=1 note=42 velocity=0 time=0.002941175
EXTRACT: note_on channel=1 note=61 velocity=0 time=0.008823524999999999
EXTRACT: note_on channel=1 note=61 velocity=73 time=0.00588235
EXTRACT: note_on channel=1 note=54 velocity=0 time=0.002941175
EXTRACT: note_on channel=1 note=66 velocity=73 time=0
EXTRACT: note_on channel=1 note=42 velocity=51 time=0.002941175
EXTRACT: note_on channel=1 note=49 velocity=0 time=0.002941175
EXTRACT: note_on channel=1 note=49 velocity=51 time=0.014705875
EXTRACT: note_on channel=1 note=54 velocity=66 time=0
EXTRACT: note_on channel=6 note=63 velocity=64 time=0.00588235
EXTRACT: note_on channel=9 note=46 velocity=66 time=0
EXTRACT: note_on channel=6 note=63 velocity=0 time=0.114705825
EXTRACT: note_on channel=9 note=46 velocity=0 time=0.002941175
EXTRACT: note_on channel=1 note=54 velocity=0 time=0.017647049999999997
EXTRACT: note_on channel=1 note=61 velocity=0 time=0.002941175
EXTRACT: note_on channel=1 note=54 velocity=64 time=0.002941175
EXTRACT: note_on channel=1 note=61 velocity=64 time=0
EXTRACT: note_on channel=1 note=66 velocity=0 time=0
EXTRACT: note_on channel=1 note=42 velocity=0 time=0.002941175
EXTRACT: note_on channel=1 note=49 velocity=0 time=0.008823524999999999
EXTRACT: note_on channel=1 note=42 velocity=55 time=0
EXTRACT: note_on channel=1 note=49 velocity=55 time=0.002941175
EXTRACT: note_on channel=1 note=66 velocity=64 time=0.00588235
EXTRACT: note_on channel=9 note=42 velocity=1 time=0.014705875
EXTRACT: note_on channel=9 note=42 velocity=0 time=0.114705825
EXTRACT: note_on channel=0 note=46 velocity=0 time=0.202941075
EXTRACT: note_on channel=1 note=54 velocity=0 time=0.002941175
EXTRACT: note_on channel=1 note=61 velocity=0 time=0
EXTRACT: note_on channel=1 note=66 velocity=0 time=0.008823524999999999
EXTRACT: note_on channel=1 note=51 velocity=64 time=0
EXTRACT: note_on channel=1 note=42 velocity=0 time=0.002941175
EXTRACT: note_on channel=1 note=66 velocity=64 time=0
EXTRACT: note_on channel=0 note=44 velocity=92 time=0.00588235
EXTRACT: note_on channel=1 note=49 velocity=0 time=0
EXTRACT: note_on channel=6 note=59 velocity=60 time=0
EXTRACT: note_on channel=9 note=46 velocity=45 time=0
EXTRACT: note_on channel=1 note=59 velocity=64 time=0.002941175
EXTRACT: note_on channel=1 note=63 velocity=64 time=0.00588235
EXTRACT: note_on channel=1 note=44 velocity=56 time=0.00588235
EXTRACT: note_on channel=9 note=46 velocity=0 time=0.079411725
EXTRACT: note_on channel=6 note=59 velocity=0 time=0.014705875
EXTRACT: note_on channel=9 note=70 velocity=96 time=0.244117525
EXTRACT: control_change channel=6 control=11 value=100 time=0.049999974999999995
EXTRACT: control_change channel=6 control=11 value=100 time=0.061764675
EXTRACT: note_on channel=9 note=70 velocity=0 time=0.014705875
EXTRACT: control_change channel=6 control=11 value=101 time=0.049999974999999995
EXTRACT: control_change channel=6 control=11 value=102 time=0.061764675
EXTRACT: control_change channel=6 control=11 value=103 time=0.06470585
EXTRACT: pitchwheel channel=6 pitch=-530 time=0.026470575
EXTRACT: pitchwheel channel=6 pitch=-1323 time=0.017647049999999997
EXTRACT: note_on channel=9 note=60 velocity=56 time=0
EXTRACT: control_change channel=6 control=11 value=104 time=0.017647049999999997
EXTRACT: pitchwheel channel=6 pitch=-1587 time=0.00588235
EXTRACT: pitchwheel channel=6 pitch=-1058 time=0.041176449999999996
EXTRACT: control_change channel=6 control=11 value=105 time=0.014705875
EXTRACT: pitchwheel channel=6 pitch=-266 time=0.00588235
EXTRACT: pitchwheel channel=6 pitch=0 time=0.020588224999999998
EXTRACT: note_on channel=9 note=60 velocity=0 time=0.0235294
EXTRACT: control_change channel=6 control=11 value=106 time=0.014705875
EXTRACT: control_change channel=6 control=11 value=107 time=0.061764675
EXTRACT: pitchwheel channel=6 pitch=-530 time=0.0235294
EXTRACT: pitchwheel channel=6 pitch=-1323 time=0.020588224999999998
EXTRACT: control_change channel=6 control=11 value=108 time=0.020588224999999998
EXTRACT: pitchwheel channel=6 pitch=-1587 time=0
EXTRACT: pitchwheel channel=6 pitch=-1058 time=0.041176449999999996
EXTRACT: control_change channel=6 control=11 value=109 time=0.020588224999999998
EXTRACT: pitchwheel channel=6 pitch=-266 time=0
EXTRACT: pitchwheel channel=6 pitch=0 time=0.020588224999999998
EXTRACT: note_on channel=9 note=82 velocity=49 time=0.00588235
EXTRACT: note_on channel=9 note=64 velocity=56 time=0
EXTRACT: control_change channel=6 control=11 value=110 time=0.035294099999999995
EXTRACT: control_change channel=6 control=11 value=111 time=0.06470585
EXTRACT: pitchwheel channel=6 pitch=-530 time=0.017647049999999997
EXTRACT: note_on channel=9 note=82 velocity=0 time=0.014705875
EXTRACT: pitchwheel channel=6 pitch=-1323 time=0.00588235
EXTRACT: pitchwheel channel=6 pitch=-1587 time=0.020588224999999998
EXTRACT: control_change channel=6 control=11 value=112 time=0.002941175
EXTRACT: note_on channel=9 note=64 velocity=0 time=0.002941175
EXTRACT: pitchwheel channel=6 pitch=-1058 time=0.035294099999999995
EXTRACT: pitchwheel channel=6 pitch=-266 time=0.020588224999999998
EXTRACT: control_change channel=6 control=11 value=113 time=0.002941175
EXTRACT: pitchwheel channel=6 pitch=0 time=0.020588224999999998
EXTRACT: control_change channel=6 control=11 value=114 time=0.044117625
EXTRACT: control_change channel=6 control=11 value=115 time=0.061764675
EXTRACT: pitchwheel channel=6 pitch=-530 time=0.014705875
EXTRACT: pitchwheel channel=6 pitch=-1323 time=0.020588224999999998
EXTRACT: pitchwheel channel=6 pitch=-1587 time=0.0235294
EXTRACT: control_change channel=6 control=11 value=116 time=0.00588235
EXTRACT: pitchwheel channel=6 pitch=-1058 time=0.035294099999999995
EXTRACT: pitchwheel channel=6 pitch=-266 time=0.017647049999999997
EXTRACT: control_change channel=6 control=11 value=117 time=0.008823524999999999
EXTRACT: pitchwheel channel=6 pitch=0 time=0.014705875
EXTRACT: control_change channel=6 control=11 value=118 time=0.0470588
EXTRACT: control_change channel=6 control=11 value=119 time=0.06470585
EXTRACT: pitchwheel channel=6 pitch=-530 time=0.0117647
EXTRACT: pitchwheel channel=6 pitch=-1323 time=0.017647049999999997
EXTRACT: pitchwheel channel=6 pitch=-1587 time=0.0235294
EXTRACT: control_change channel=6 control=11 value=120 time=0.008823524999999999
EXTRACT: pitchwheel channel=6 pitch=-1058 time=0.032352925
EXTRACT: note_on channel=9 note=70 velocity=96 time=0.008823524999999999
EXTRACT: pitchwheel channel=6 pitch=-266 time=0.0117647
EXTRACT: control_change channel=6 control=11 value=121 time=0.0117647
EXTRACT: pitchwheel channel=6 pitch=0 time=0.008823524999999999
EXTRACT: control_change channel=6 control=11 value=122 time=0.05294115
EXTRACT: note_on channel=9 note=70 velocity=0 time=0.041176449999999996
EXTRACT: control_change channel=6 control=11 value=123 time=0.020588224999999998
EXTRACT: pitchwheel channel=6 pitch=-530 time=0.008823524999999999
EXTRACT: pitchwheel channel=6 pitch=-1323 time=0.020588224999999998
EXTRACT: pitchwheel channel=6 pitch=-1587 time=0.020588224999999998
EXTRACT: control_change channel=6 control=11 value=124 time=0.014705875
EXTRACT: pitchwheel channel=6 pitch=-1058 time=0.026470575
EXTRACT: pitchwheel channel=6 pitch=-266 time=0.020588224999999998
EXTRACT: control_change channel=6 control=11 value=125 time=0.014705875
EXTRACT: pitchwheel channel=6 pitch=0 time=0.00588235
EXTRACT: control_change channel=6 control=11 value=127 time=0.055882325
EXTRACT: note_on channel=9 note=63 velocity=58 time=0.0117647
EXTRACT: pitchwheel channel=6 pitch=-530 time=0.055882325
EXTRACT: pitchwheel channel=6 pitch=-1323 time=0.020588224999999998
EXTRACT: note_on channel=9 note=63 velocity=0 time=0.00588235
EXTRACT: pitchwheel channel=6 pitch=-1587 time=0.014705875
EXTRACT: pitchwheel channel=6 pitch=-1058 time=0.041176449999999996
EXTRACT: pitchwheel channel=6 pitch=-266 time=0.020588224999999998
EXTRACT: pitchwheel channel=6 pitch=0 time=0.0235294
EXTRACT: pitchwheel channel=6 pitch=-530 time=0.12058817499999999
EXTRACT: pitchwheel channel=6 pitch=-1323 time=0.020588224999999998
EXTRACT: pitchwheel channel=6 pitch=-1587 time=0.020588224999999998
EXTRACT: note_on channel=9 note=64 velocity=58 time=0.0117647
EXTRACT: note_on channel=9 note=82 velocity=49 time=0.002941175
EXTRACT: pitchwheel channel=6 pitch=-1058 time=0.02941175
EXTRACT: pitchwheel channel=6 pitch=-266 time=0.017647049999999997
EXTRACT: pitchwheel channel=6 pitch=0 time=0.0235294
EXTRACT: note_on channel=9 note=64 velocity=0 time=0.0588235
EXTRACT: note_on channel=9 note=82 velocity=0 time=0.002941175
EXTRACT: pitchwheel channel=6 pitch=-530 time=0.061764675
EXTRACT: pitchwheel channel=6 pitch=-1323 time=0.017647049999999997
EXTRACT: pitchwheel channel=6 pitch=-1587 time=0.0235294
EXTRACT: pitchwheel channel=6 pitch=-1058 time=0.041176449999999996
EXTRACT: pitchwheel channel=6 pitch=-266 time=0.020588224999999998
EXTRACT: pitchwheel channel=6 pitch=0 time=0.020588224999999998
EXTRACT: note_on channel=9 note=62 velocity=58 time=0.035294099999999995
EXTRACT: pitchwheel channel=6 pitch=-530 time=0.08823525
EXTRACT: note_on channel=9 note=62 velocity=0 time=0.017647049999999997
EXTRACT: pitchwheel channel=6 pitch=-1323 time=0.002941175
EXTRACT: pitchwheel channel=6 pitch=-1587 time=0.020588224999999998
EXTRACT: pitchwheel channel=6 pitch=-1058 time=0.041176449999999996
EXTRACT: pitchwheel channel=6 pitch=-266 time=0.020588224999999998
EXTRACT: pitchwheel channel=6 pitch=0 time=0.020588224999999998
EXTRACT: note_on channel=1 note=51 velocity=0 time=0.08823525
EXTRACT: note_on channel=1 note=66 velocity=0 time=0.002941175
EXTRACT: pitchwheel channel=6 pitch=0 time=0
EXTRACT: note_on channel=1 note=59 velocity=0 time=0.008823524999999999
EXTRACT: note_on channel=0 note=44 velocity=0 time=0.00588235
EXTRACT: note_on channel=1 note=63 velocity=0 time=0
EXTRACT: control_change channel=2 control=11 value=58 time=0
EXTRACT: note_on channel=1 note=44 velocity=0 time=0.00588235
EXTRACT: note_on channel=0 note=46 velocity=92 time=0.02941175
EXTRACT: note_on channel=1 note=46 velocity=83 time=0
EXTRACT: note_on channel=2 note=78 velocity=23 time=0
EXTRACT: note_on channel=2 note=85 velocity=40 time=0.002941175
EXTRACT: control_change channel=6 control=64 value=2 time=0.055882325
EXTRACT: control_change channel=6 control=11 value=100 time=0.117647
EXTRACT: note_on channel=1 note=54 velocity=64 time=0.002941175
EXTRACT: control_change channel=2 control=11 value=58 time=0.117647
EXTRACT: note_on channel=1 note=61 velocity=61 time=0.05294115
EXTRACT: note_on channel=9 note=75 velocity=47 time=0.002941175
EXTRACT: note_on channel=9 note=75 velocity=0 time=0.11176465
EXTRACT: note_on channel=1 note=66 velocity=93 time=0.067647025
EXTRACT: control_change channel=2 control=11 value=59 time=0.097058775
EXTRACT: note_on channel=1 note=46 velocity=0 time=0.138235225
EXTRACT: note_on channel=1 note=59 velocity=62 time=0.114705825
EXTRACT: control_change channel=2 control=11 value=60 time=0.079411725
EXTRACT: note_on channel=1 note=61 velocity=0 time=0.0117647
EXTRACT: note_on channel=1 note=54 velocity=0 time=0.008823524999999999
EXTRACT: note_on channel=0 note=46 velocity=0 time=0.044117625
EXTRACT: note_on channel=2 note=87 velocity=43 time=0.0235294
EXTRACT: note_on channel=0 note=47 velocity=92 time=0.00588235
EXTRACT: note_on channel=1 note=47 velocity=77 time=0.002941175
EXTRACT: note_on channel=1 note=66 velocity=0 time=0.038235275
EXTRACT: note_on channel=2 note=85 velocity=0 time=0.017647049999999997
EXTRACT: note_on channel=1 note=54 velocity=58 time=0.114705825
EXTRACT: note_on channel=1 note=59 velocity=0 time=0.026470575
EXTRACT: control_change channel=2 control=11 value=61 time=0.038235275
EXTRACT: note_on channel=1 note=59 velocity=69 time=0.11176465
EXTRACT: note_on channel=9 note=70 velocity=96 time=0.00588235
EXTRACT: note_on channel=9 note=70 velocity=0 time=0.126470525
EXTRACT: note_on channel=1 note=66 velocity=87 time=0.049999974999999995
EXTRACT: control_change channel=2 control=11 value=62 time=0.038235275
EXTRACT: note_on channel=9 note=60 velocity=56 time=0.13235287499999998
EXTRACT: note_on channel=9 note=60 velocity=0 time=0.1294117
EXTRACT: control_change channel=2 control=11 value=63 time=0.07058819999999999
EXTRACT: note_on channel=9 note=82 velocity=49 time=0.15882345
EXTRACT: note_on channel=9 note=64 velocity=56 time=0
EXTRACT: note_on channel=9 note=82 velocity=0 time=0.13235287499999998
EXTRACT: note_on channel=9 note=64 velocity=0 time=0.032352925
EXTRACT: control_change channel=2 control=11 value=64 time=0.008823524999999999
EXTRACT: note_on channel=1 note=47 velocity=0 time=0.25588222499999996
EXTRACT: note_on channel=1 note=54 velocity=0 time=0.014705875
EXTRACT: control_change channel=2 control=11 value=65 time=0.061764675
EXTRACT: note_on channel=1 note=66 velocity=0 time=0.035294099999999995
EXTRACT: note_on channel=1 note=59 velocity=0 time=0.09117642499999999
EXTRACT: note_on channel=0 note=46 velocity=92 time=0.07058819999999999
EXTRACT: note_on channel=2 note=85 velocity=46 time=0
EXTRACT: note_on channel=1 note=46 velocity=83 time=0.002941175
EXTRACT: note_on channel=2 note=87 velocity=0 time=0.038235275
EXTRACT: note_on channel=0 note=47 velocity=0 time=0.079411725
EXTRACT: control_change channel=2 control=11 value=66 time=0.014705875
EXTRACT: note_on channel=1 note=54 velocity=64 time=0.0470588
EXTRACT: note_on channel=1 note=61 velocity=61 time=0.17058815
EXTRACT: note_on channel=9 note=75 velocity=47 time=0.002941175
EXTRACT: note_on channel=9 note=75 velocity=0 time=0.11176465
EXTRACT: control_change channel=2 control=11 value=67 time=0.002941175
EXTRACT: note_on channel=1 note=66 velocity=93 time=0.06470585
EXTRACT: note_on channel=1 note=46 velocity=0 time=0.235294
EXTRACT: control_change channel=2 control=11 value=68 time=0.032352925
EXTRACT: note_on channel=1 note=59 velocity=62 time=0.08235289999999999
EXTRACT: note_on channel=1 note=61 velocity=0 time=0.09117642499999999
EXTRACT: note_on channel=1 note=54 velocity=0 time=0.008823524999999999
EXTRACT: note_on channel=0 note=46 velocity=0 time=0.055882325
EXTRACT: note_on channel=2 note=83 velocity=48 time=0.002941175
EXTRACT: note_on channel=0 note=44 velocity=92 time=0.017647049999999997
EXTRACT: note_on channel=1 note=44 velocity=77 time=0
EXTRACT: note_on channel=2 note=85 velocity=0 time=0.002941175
EXTRACT: note_on channel=1 note=66 velocity=0 time=0.035294099999999995
EXTRACT: control_change channel=2 control=11 value=69 time=0.035294099999999995
EXTRACT: note_on channel=1 note=54 velocity=58 time=0.097058775
EXTRACT: note_on channel=1 note=59 velocity=0 time=0.026470575
EXTRACT: note_on channel=1 note=59 velocity=69 time=0.149999925
EXTRACT: note_on channel=9 note=70 velocity=96 time=0.00588235
EXTRACT: control_change channel=2 control=11 value=70 time=0.05294115
EXTRACT: note_on channel=9 note=70 velocity=0 time=0.073529375
EXTRACT: note_on channel=1 note=66 velocity=87 time=0.049999974999999995
EXTRACT: note_on channel=9 note=60 velocity=56 time=0.17058815
EXTRACT: control_change channel=2 control=11 value=71 time=0.038235275
EXTRACT: note_on channel=9 note=60 velocity=0 time=0.09117642499999999
EXTRACT: note_on channel=9 note=82 velocity=49 time=0.22941165
EXTRACT: note_on channel=9 note=64 velocity=56 time=0
EXTRACT: control_change channel=2 control=11 value=72 time=0.0117647
EXTRACT: note_on channel=9 note=82 velocity=0 time=0.12058817499999999
EXTRACT: note_on channel=9 note=64 velocity=0 time=0.032352925
EXTRACT: control_change channel=2 control=11 value=73 time=0.179411675
EXTRACT: note_on channel=1 note=44 velocity=0 time=0.085294075
EXTRACT: note_on channel=1 note=54 velocity=0 time=0.014705875
EXTRACT: note_on channel=1 note=66 velocity=0 time=0.097058775
EXTRACT: note_on channel=0 note=44 velocity=0 time=0.073529375
EXTRACT: note_on channel=1 note=59 velocity=0 time=0.017647049999999997
EXTRACT: control_change channel=2 control=11 value=74 time=0.044117625
EXTRACT: note_on channel=2 note=85 velocity=52 time=0.020588224999999998
EXTRACT: note_on channel=0 note=46 velocity=92 time=0.008823524999999999
EXTRACT: note_on channel=1 note=46 velocity=83 time=0
EXTRACT: note_on channel=2 note=83 velocity=0 time=0.055882325
EXTRACT: note_on channel=1 note=54 velocity=64 time=0.12352935
EXTRACT: control_change channel=2 control=11 value=75 time=0.12352935
EXTRACT: note_on channel=1 note=61 velocity=61 time=0.0470588
EXTRACT: note_on channel=9 note=75 velocity=47 time=0.002941175
EXTRACT: note_on channel=9 note=75 velocity=0 time=0.11176465
EXTRACT: note_on channel=1 note=66 velocity=93 time=0.067647025
EXTRACT: control_change channel=2 control=11 value=76 time=0.102941125
EXTRACT: note_on channel=1 note=46 velocity=0 time=0.13235287499999998
EXTRACT: note_on channel=1 note=59 velocity=62 time=0.114705825
EXTRACT: control_change channel=2 control=11 value=77 time=0.08823525
EXTRACT: note_on channel=1 note=61 velocity=0 time=0.002941175
EXTRACT: note_on channel=1 note=54 velocity=0 time=0.008823524999999999
EXTRACT: note_on channel=0 note=46 velocity=0 time=0.044117625
EXTRACT: note_on channel=0 note=47 velocity=92 time=0.02941175
EXTRACT: note_on channel=1 note=47 velocity=77 time=0.002941175
EXTRACT: note_on channel=2 note=87 velocity=54 time=0
EXTRACT: note_on channel=1 note=61 velocity=77 time=0.017647049999999997
EXTRACT: note_on channel=1 note=66 velocity=0 time=0.020588224999999998
EXTRACT: note_on channel=2 note=85 velocity=0 time=0.026470575
EXTRACT: note_on channel=1 note=54 velocity=58 time=0.1058823
EXTRACT: note_on channel=1 note=59 velocity=0 time=0.026470575
EXTRACT: control_change channel=2 control=11 value=78 time=0.0470588
EXTRACT: note_on channel=1 note=59 velocity=69 time=0.102941125
EXTRACT: note_on channel=9 note=70 velocity=96 time=0.00588235
EXTRACT: note_on channel=9 note=70 velocity=0 time=0.126470525
EXTRACT: note_on channel=1 note=63 velocity=51 time=0.0470588
EXTRACT: note_on channel=1 note=66 velocity=87 time=0.002941175
EXTRACT: control_change channel=2 control=11 value=79 time=0.0470588
EXTRACT: note_on channel=1 note=63 velocity=0 time=0.0470588
EXTRACT: note_on channel=9 note=60 velocity=56 time=0.07647055
EXTRACT: note_on channel=1 note=61 velocity=0 time=0.00588235
EXTRACT: note_on channel=1 note=71 velocity=89 time=0.002941175
EXTRACT: note_on channel=9 note=60 velocity=0 time=0.12058817499999999
EXTRACT: control_change channel=2 control=11 value=80 time=0.079411725
EXTRACT: note_on channel=1 note=71 velocity=0 time=0.035294099999999995
EXTRACT: note_on channel=1 note=70 velocity=72 time=0.114705825
EXTRACT: note_on channel=9 note=82 velocity=49 time=0
EXTRACT: note_on channel=9 note=64 velocity=56 time=0
EXTRACT: note_on channel=9 note=82 velocity=0 time=0.13235287499999998
EXTRACT: note_on channel=9 note=64 velocity=0 time=0.032352925
EXTRACT: note_on channel=1 note=68 velocity=75 time=0.014705875
EXTRACT: control_change channel=2 control=11 value=81 time=0.002941175
EXTRACT: note_on channel=1 note=70 velocity=0 time=0.0117647
EXTRACT: note_on channel=1 note=47 velocity=0 time=0.235294
EXTRACT: note_on channel=1 note=54 velocity=0 time=0.014705875
EXTRACT: control_change channel=2 control=11 value=82 time=0.07058819999999999
EXTRACT: note_on channel=1 note=66 velocity=0 time=0.026470575
EXTRACT: note_on channel=1 note=59 velocity=0 time=0.09117642499999999
EXTRACT: note_on channel=0 note=46 velocity=92 time=0.07058819999999999
EXTRACT: note_on channel=2 note=85 velocity=57 time=0
EXTRACT: note_on channel=1 note=46 velocity=83 time=0.002941175
EXTRACT: note_on channel=2 note=87 velocity=0 time=0.035294099999999995
EXTRACT: note_on channel=0 note=47 velocity=0 time=0.08235289999999999
EXTRACT: control_change channel=2 control=11 value=83 time=0.0235294
EXTRACT: note_on channel=1 note=54 velocity=64 time=0.038235275
EXTRACT: note_on channel=1 note=61 velocity=61 time=0.17058815
EXTRACT: note_on channel=9 note=75 velocity=47 time=0.002941175
EXTRACT: note_on channel=9 note=75 velocity=0 time=0.11176465
EXTRACT: control_change channel=2 control=11 value=84 time=0.008823524999999999
EXTRACT: note_on channel=1 note=66 velocity=93 time=0.0588235
EXTRACT: note_on channel=1 note=68 velocity=0 time=0.0470588
EXTRACT: note_on channel=1 note=46 velocity=0 time=0.1882352
EXTRACT: control_change channel=2 control=11 value=85 time=0.038235275
EXTRACT: note_on channel=1 note=59 velocity=62 time=0.07647055
EXTRACT: note_on channel=1 note=61 velocity=0 time=0.09117642499999999
EXTRACT: note_on channel=1 note=54 velocity=0 time=0.008823524999999999
EXTRACT: note_on channel=0 note=46 velocity=0 time=0.055882325
EXTRACT: note_on channel=2 note=83 velocity=59 time=0.00588235
EXTRACT: note_on channel=0 note=44 velocity=92 time=0.014705875
EXTRACT: note_on channel=1 note=44 velocity=77 time=0
EXTRACT: note_on channel=2 note=85 velocity=0 time=0.002941175
EXTRACT: note_on channel=1 note=66 velocity=0 time=0.035294099999999995
EXTRACT: control_change channel=2 control=11 value=86 time=0.041176449999999996
EXTRACT: note_on channel=1 note=54 velocity=58 time=0.09117642499999999
EXTRACT: note_on channel=1 note=59 velocity=0 time=0.026470575
EXTRACT: note_on channel=1 note=59 velocity=69 time=0.149999925
EXTRACT: note_on channel=9 note=70 velocity=96 time=0.00588235
EXTRACT: control_change channel=2 control=11 value=88 time=0.0588235
EXTRACT: note_on channel=9 note=70 velocity=0 time=0.067647025
EXTRACT: note_on channel=9 note=40 velocity=84 time=0.044117625
EXTRACT: note_on channel=9 note=38 velocity=84 time=0
EXTRACT: note_on channel=1 note=66 velocity=87 time=0.00588235
EXTRACT: note_on channel=9 note=38 velocity=0 time=0.126470525
EXTRACT: note_on channel=9 note=40 velocity=0 time=0
EXTRACT: note_on channel=9 note=38 velocity=74 time=0.0235294
EXTRACT: note_on channel=9 note=40 velocity=99 time=0
EXTRACT: note_on channel=9 note=60 velocity=56 time=0.020588224999999998
EXTRACT: note_on channel=9 note=40 velocity=0 time=0.11176465
EXTRACT: note_on channel=9 note=38 velocity=0 time=0
EXTRACT: note_on channel=9 note=60 velocity=0 time=0.017647049999999997
EXTRACT: control_change channel=2 control=1 value=29 time=0.220588125
EXTRACT: note_on channel=7 note=85 velocity=64 time=0
EXTRACT: note_on channel=9 note=82 velocity=49 time=0.008823524999999999
EXTRACT: note_on channel=9 note=38 velocity=78 time=0
EXTRACT: note_on channel=9 note=40 velocity=81 time=0
EXTRACT: note_on channel=9 note=64 velocity=56 time=0
EXTRACT: note_on channel=9 note=35 velocity=81 time=0.002941175
EXTRACT: note_on channel=2 note=36 velocity=55 time=0.0235294
EXTRACT: note_on channel=7 note=87 velocity=64 time=0
EXTRACT: note_on channel=7 note=85 velocity=0 time=0.0470588
EXTRACT: control_change channel=2 control=1 value=30 time=0.038235275
EXTRACT: note_on channel=2 note=38 velocity=42 time=0.0117647
EXTRACT: note_on channel=9 note=40 velocity=0 time=0.008823524999999999
EXTRACT: note_on channel=9 note=82 velocity=0 time=0
EXTRACT: note_on channel=9 note=38 velocity=0 time=0
EXTRACT: note_on channel=9 note=35 velocity=0 time=0.002941175
EXTRACT: note_on channel=9 note=64 velocity=0 time=0.02941175
EXTRACT: note_on channel=9 note=38 velocity=72 time=0.020588224999999998
EXTRACT: note_on channel=9 note=40 velocity=95 time=0
EXTRACT: note_on channel=2 note=40 velocity=44 time=0.017647049999999997
EXTRACT: control_change channel=2 control=1 value=32 time=0.032352925
EXTRACT: note_on channel=2 note=36 velocity=0 time=0.002941175
EXTRACT: note_on channel=2 note=41 velocity=44 time=0.0235294
EXTRACT: note_on channel=2 note=38 velocity=0 time=0.002941175
EXTRACT: note_on channel=2 note=43 velocity=45 time=0.049999974999999995
EXTRACT: note_on channel=9 note=40 velocity=0 time=0.002941175
EXTRACT: note_on channel=9 note=38 velocity=0 time=0
EXTRACT: note_on channel=2 note=40 velocity=0 time=0.026470575
EXTRACT: note_on channel=7 note=85 velocity=64 time=0
EXTRACT: note_on channel=9 note=45 velocity=109 time=0
EXTRACT: control_change channel=2 control=1 value=33 time=0.0117647
EXTRACT: note_on channel=2 note=45 velocity=47 time=0.00588235
EXTRACT: note_on channel=7 note=87 velocity=0 time=0.014705875
EXTRACT: note_on channel=2 note=41 velocity=0 time=0.008823524999999999
EXTRACT: note_on channel=2 note=47 velocity=48 time=0.017647049999999997
EXTRACT: note_on channel=1 note=44 velocity=0 time=0.026470575
EXTRACT: note_on channel=2 note=43 velocity=0 time=0
EXTRACT: note_on channel=1 note=54 velocity=0 time=0.014705875
EXTRACT: note_on channel=2 note=48 velocity=50 time=0
EXTRACT: note_on channel=2 note=45 velocity=0 time=0.017647049999999997
EXTRACT: control_change channel=2 control=1 value=34 time=0.017647049999999997
EXTRACT: note_on channel=2 note=50 velocity=52 time=0.002941175
EXTRACT: note_on channel=9 note=45 velocity=0 time=0.0117647
EXTRACT: note_on channel=2 note=47 velocity=0 time=0.002941175
EXTRACT: note_on channel=7 note=85 velocity=0 time=0.008823524999999999
EXTRACT: note_on channel=2 note=52 velocity=54 time=0.002941175
EXTRACT: note_on channel=2 note=48 velocity=0 time=0.014705875
EXTRACT: note_on channel=5 note=61 velocity=80 time=0
EXTRACT: note_on channel=7 note=82 velocity=64 time=0.002941175
EXTRACT: note_on channel=2 note=53 velocity=56 time=0.0117647
EXTRACT: note_on channel=9 note=41 velocity=76 time=0
EXTRACT: note_on channel=1 note=66 velocity=0 time=0.002941175
EXTRACT: note_on channel=2 note=50 velocity=0 time=0.0117647
EXTRACT: note_on channel=2 note=55 velocity=58 time=0.0117647
EXTRACT: note_on channel=2 note=52 velocity=0 time=0.0117647
EXTRACT: note_on channel=5 note=58 velocity=80 time=0.002941175
EXTRACT: note_on channel=2 note=57 velocity=60 time=0.0117647
EXTRACT: note_on channel=2 note=53 velocity=0 time=0.008823524999999999
EXTRACT: control_change channel=2 control=1 value=35 time=0
EXTRACT: note_on channel=2 note=59 velocity=61 time=0.0117647
EXTRACT: note_on channel=0 note=44 velocity=0 time=0.002941175
EXTRACT: note_on channel=2 note=55 velocity=0 time=0.008823524999999999
EXTRACT: note_on channel=1 note=59 velocity=0 time=0.008823524999999999
EXTRACT: note_on channel=5 note=42 velocity=80 time=0
EXTRACT: note_on channel=2 note=60 velocity=63 time=0.002941175
EXTRACT: note_on channel=2 note=57 velocity=0 time=0.014705875
EXTRACT: note_on channel=2 note=78 velocity=0 time=0.002941175
EXTRACT: note_on channel=2 note=83 velocity=0 time=0.00588235
EXTRACT: note_on channel=2 note=62 velocity=66 time=0
EXTRACT: note_on channel=2 note=59 velocity=0 time=0.0117647
EXTRACT: note_on channel=5 note=58 velocity=0 time=0.014705875
EXTRACT: note_on channel=1 note=66 velocity=87 time=0.002941175
EXTRACT: note_on channel=2 note=64 velocity=69 time=0
EXTRACT: note_on channel=1 note=42 velocity=76 time=0.002941175
EXTRACT: note_on channel=2 note=60 velocity=0 time=0
EXTRACT: note_on channel=5 note=61 velocity=0 time=0.002941175
EXTRACT: note_on channel=5 note=58 velocity=84 time=0
EXTRACT: note_on channel=1 note=61 velocity=87 time=0.00588235
EXTRACT: note_on channel=2 note=82 velocity=57 time=0
EXTRACT: note_on channel=5 note=61 velocity=80 time=0
EXTRACT: note_on channel=0 note=30 velocity=106 time=0.00588235
EXTRACT: note_on channel=2 note=62 velocity=0 time=0
EXTRACT: note_on channel=2 note=78 velocity=57 time=0
EXTRACT: note_on channel=9 note=36 velocity=90 time=0
EXTRACT: note_on channel=9 note=49 velocity=82 time=0
EXTRACT: note_on channel=9 note=35 velocity=90 time=0
EXTRACT: note_on channel=1 note=54 velocity=87 time=0.002941175
EXTRACT: note_on channel=2 note=73 velocity=57 time=0
EXTRACT: note_on channel=5 note=42 velocity=0 time=0.002941175
EXTRACT: note_on channel=1 note=49 velocity=76 time=0.002941175
EXTRACT: note_on channel=5 note=42 velocity=125 time=0.002941175
EXTRACT: note_on channel=2 note=64 velocity=0 time=0.002941175
EXTRACT: control_change channel=2 control=1 value=38 time=0
EXTRACT: note_on channel=9 note=41 velocity=0 time=0.008823524999999999
EXTRACT: note_on channel=9 note=36 velocity=0 time=0.10882347499999999
EXTRACT: note_on channel=9 note=49 velocity=0 time=0
EXTRACT: note_on channel=9 note=35 velocity=0 time=0
EXTRACT: note_on channel=9 note=51 velocity=85 time=0.220588125
EXTRACT: note_on channel=9 note=51 velocity=0 time=0.06470585
EXTRACT: note_on channel=0 note=30 velocity=0 time=0.06470585
EXTRACT: note_on channel=1 note=66 velocity=0 time=0.002941175
EXTRACT: note_on channel=1 note=42 velocity=0 time=0.00588235
EXTRACT: note_on channel=1 note=61 velocity=0 time=0.008823524999999999
EXTRACT: note_on channel=1 note=54 velocity=0 time=0.008823524999999999
EXTRACT: note_on channel=1 note=49 velocity=0 time=0.002941175
EXTRACT: note_on channel=1 note=61 velocity=72 time=0.002941175
EXTRACT: note_on channel=1 note=66 velocity=72 time=0.002941175
EXTRACT: note_on channel=1 note=42 velocity=63 time=0.002941175
EXTRACT: note_on channel=0 note=30 velocity=95 time=0.00588235
EXTRACT: note_on channel=9 note=35 velocity=90 time=0.002941175
EXTRACT: note_on channel=9 note=36 velocity=90 time=0
EXTRACT: note_on channel=1 note=49 velocity=63 time=0.008823524999999999
EXTRACT: note_on channel=1 note=54 velocity=72 time=0
EXTRACT: note_on channel=9 note=36 velocity=0 time=0.12352935
EXTRACT: note_on channel=9 note=35 velocity=0 time=0
EXTRACT: note_on channel=1 note=54 velocity=0 time=0.014705875
EXTRACT: note_on channel=1 note=61 velocity=0 time=0.00588235
EXTRACT: note_on channel=0 note=30 velocity=0 time=0.002941175
EXTRACT: note_on channel=1 note=54 velocity=84 time=0
EXTRACT: note_on channel=1 note=61 velocity=84 time=0
EXTRACT: note_on channel=1 note=66 velocity=0 time=0
EXTRACT: note_on channel=1 note=42 velocity=0 time=0.002941175
EXTRACT: note_on channel=1 note=49 velocity=0 time=0.002941175
EXTRACT: note_on channel=9 note=38 velocity=89 time=0.002941175
EXTRACT: note_on channel=9 note=40 velocity=89 time=0
EXTRACT: note_on channel=1 note=42 velocity=73 time=0.002941175
EXTRACT: note_on channel=0 note=30 velocity=95 time=0.002941175
EXTRACT: note_on channel=1 note=49 velocity=73 time=0
EXTRACT: note_on channel=5 note=43 velocity=113 time=0
EXTRACT: note_on channel=1 note=66 velocity=84 time=0.00588235
EXTRACT: note_on channel=9 note=35 velocity=90 time=0
EXTRACT: note_on channel=9 note=36 velocity=90 time=0
EXTRACT: note_on channel=9 note=41 velocity=51 time=0
EXTRACT: note_on channel=9 note=51 velocity=95 time=0
EXTRACT: note_on channel=5 note=44 velocity=108 time=0.049999974999999995
EXTRACT: note_on channel=5 note=42 velocity=0 time=0.00588235
EXTRACT: note_on channel=9 note=51 velocity=0 time=0.038235275
EXTRACT: note_on channel=5 note=43 velocity=0 time=0.008823524999999999
EXTRACT: note_on channel=5 note=45 velocity=102 time=0.002941175
EXTRACT: note_on channel=9 note=38 velocity=0 time=0.014705875
EXTRACT: note_on channel=9 note=40 velocity=0 time=0
EXTRACT: note_on channel=9 note=36 velocity=0 time=0.0117647
EXTRACT: note_on channel=9 note=41 velocity=0 time=0
EXTRACT: note_on channel=9 note=35 velocity=0 time=0
EXTRACT: note_on channel=5 note=61 velocity=0 time=0.017647049999999997
EXTRACT: note_on channel=5 note=58 velocity=0 time=0.002941175
EXTRACT: note_on channel=5 note=44 velocity=0 time=0.00588235
EXTRACT: note_on channel=5 note=46 velocity=97 time=0.002941175
EXTRACT: note_on channel=5 note=63 velocity=80 time=0.008823524999999999
EXTRACT: note_on channel=5 note=59 velocity=80 time=0.02941175
EXTRACT: note_on channel=5 note=45 velocity=0 time=0.0117647
EXTRACT: note_on channel=5 note=47 velocity=92 time=0.00588235
EXTRACT: note_on channel=5 note=46 velocity=0 time=0.049999974999999995
EXTRACT: note_on channel=1 note=61 velocity=0 time=0.055882325
EXTRACT: note_on channel=1 note=54 velocity=0 time=0
EXTRACT: note_on channel=0 note=30 velocity=0 time=0.002941175
EXTRACT: note_on channel=5 note=59 velocity=0 time=0.002941175
EXTRACT: note_on channel=1 note=42 velocity=0 time=0.00588235
EXTRACT: note_on channel=1 note=49 velocity=0 time=0.00588235
EXTRACT: note_on channel=5 note=63 velocity=0 time=0
EXTRACT: note_on channel=1 note=66 velocity=0 time=0.002941175
EXTRACT: note_on channel=1 note=54 velocity=83 time=0
EXTRACT: note_on channel=5 note=59 velocity=84 time=0
EXTRACT: note_on channel=1 note=66 velocity=83 time=0.002941175
EXTRACT: note_on channel=2 note=75 velocity=57 time=0
EXTRACT: note_on channel=5 note=47 velocity=0 time=0
EXTRACT: note_on channel=2 note=73 velocity=0 time=0.002941175
EXTRACT: note_on channel=7 note=83 velocity=64 time=0
EXTRACT: note_on channel=5 note=63 velocity=80 time=0.002941175
EXTRACT: note_on channel=9 note=36 velocity=97 time=0
EXTRACT: note_on channel=9 note=35 velocity=97 time=0
EXTRACT: note_on channel=9 note=51 velocity=85 time=0
EXTRACT: note_on channel=9 note=53 velocity=55 time=0
EXTRACT: note_on channel=0 note=35 velocity=106 time=0.002941175
EXTRACT: note_on channel=1 note=59 velocity=83 time=0
EXTRACT: note_on channel=2 note=83 velocity=57 time=0
EXTRACT: note_on channel=2 note=82 velocity=0 time=0.002941175
EXTRACT: note_on channel=5 note=47 velocity=125 time=0
EXTRACT: note_on channel=1 note=63 velocity=83 time=0.002941175
EXTRACT: note_on channel=1 note=47 velocity=73 time=0.00588235
EXTRACT: note_on channel=7 note=82 velocity=0 time=0.0117647
EXTRACT: note_on channel=9 note=53 velocity=0 time=0.073529375
EXTRACT: note_on channel=9 note=51 velocity=0 time=0
EXTRACT: note_on channel=9 note=35 velocity=0 time=0.032352925
EXTRACT: note_on channel=9 note=36 velocity=0 time=0
EXTRACT: note_on channel=9 note=41 velocity=43 time=0.032352925
EXTRACT: note_on channel=9 note=41 velocity=0 time=0.13235287499999998
EXTRACT: note_on channel=9 note=51 velocity=85 time=0.055882325
EXTRACT: note_on channel=9 note=51 velocity=0 time=0.102941125
EXTRACT: note_on channel=0 note=35 velocity=0 time=0.02941175
EXTRACT: note_on channel=1 note=54 velocity=0 time=0.008823524999999999
EXTRACT: note_on channel=1 note=66 velocity=0 time=0.002941175
EXTRACT: note_on channel=1 note=59 velocity=0 time=0.008823524999999999
EXTRACT: note_on channel=1 note=63 velocity=0 time=0.00588235
EXTRACT: note_on channel=1 note=47 velocity=0 time=0.00588235
EXTRACT: note_on channel=1 note=63 velocity=69 time=0.002941175
EXTRACT: note_on channel=0 note=34 velocity=95 time=0.00588235
EXTRACT: note_on channel=1 note=59 velocity=69 time=0
EXTRACT: note_on channel=1 note=47 velocity=60 time=0.002941175
EXTRACT: note_on channel=9 note=38 velocity=81 time=0
EXTRACT: note_on channel=9 note=40 velocity=81 time=0
EXTRACT: note_on channel=1 note=54 velocity=69 time=0.0117647
EXTRACT: note_on channel=1 note=66 velocity=69 time=0
EXTRACT: note_on channel=9 note=40 velocity=0 time=0.12058817499999999
EXTRACT: note_on channel=9 note=38 velocity=0 time=0
EXTRACT: note_on channel=1 note=59 velocity=0 time=0.0117647
EXTRACT: note_on channel=1 note=47 velocity=0 time=0.002941175
EXTRACT: note_on channel=1 note=63 velocity=0 time=0.002941175
EXTRACT: note_on channel=1 note=59 velocity=80 time=0
EXTRACT: note_on channel=1 note=63 velocity=80 time=0.00588235
EXTRACT: note_on channel=1 note=47 velocity=69 time=0
EXTRACT: note_on channel=0 note=34 velocity=0 time=0.00588235
EXTRACT: note_on channel=1 note=66 velocity=0 time=0
EXTRACT: note_on channel=1 note=66 velocity=80 time=0.002941175
EXTRACT: note_on channel=9 note=36 velocity=90 time=0
EXTRACT: note_on channel=9 note=35 velocity=90 time=0
EXTRACT: note_on channel=1 note=54 velocity=0 time=0.00588235
EXTRACT: note_on channel=0 note=35 velocity=103 time=0.00588235
EXTRACT: note_on channel=9 note=51 velocity=88 time=0
EXTRACT: note_on channel=1 note=54 velocity=80 time=0.002941175
EXTRACT: note_on channel=9 note=51 velocity=0 time=0.0941176
EXTRACT: note_on channel=9 note=35 velocity=0 time=0.0235294
EXTRACT: note_on channel=9 note=36 velocity=0 time=0
EXTRACT: note_on channel=9 note=38 velocity=89 time=0.23235282499999999
EXTRACT: note_on channel=9 note=40 velocity=89 time=0
EXTRACT: note_on channel=9 note=41 velocity=57 time=0
EXTRACT: note_on channel=9 note=51 velocity=95 time=0
EXTRACT: note_on channel=9 note=53 velocity=63 time=0
EXTRACT: note_on channel=9 note=53 velocity=0 time=0.11176465
EXTRACT: note_on channel=9 note=51 velocity=0 time=0
EXTRACT: note_on channel=9 note=38 velocity=0 time=0.020588224999999998
EXTRACT: note_on channel=9 note=40 velocity=0 time=0
EXTRACT: note_on channel=9 note=41 velocity=0 time=0
EXTRACT: note_on channel=1 note=63 velocity=0 time=0.0235294
EXTRACT: note_on channel=1 note=59 velocity=0 time=0.002941175
EXTRACT: note_on channel=1 note=66 velocity=0 time=0.00588235
EXTRACT: note_on channel=1 note=54 velocity=0 time=0.002941175
EXTRACT: note_on channel=1 note=59 velocity=66 time=0
EXTRACT: note_on channel=1 note=63 velocity=66 time=0
EXTRACT: note_on channel=1 note=47 velocity=0 time=0.002941175
EXTRACT: note_on channel=1 note=54 velocity=66 time=0.00588235
EXTRACT: note_on channel=1 note=66 velocity=66 time=0
EXTRACT: note_on channel=1 note=47 velocity=57 time=0.0117647
EXTRACT: note_on channel=0 note=35 velocity=0 time=0.10882347499999999
EXTRACT: note_on channel=1 note=59 velocity=0 time=0.0235294
EXTRACT: note_on channel=1 note=47 velocity=0 time=0.002941175
EXTRACT: note_on channel=1 note=59 velocity=76 time=0
EXTRACT: note_on channel=1 note=47 velocity=67 time=0
EXTRACT: note_on channel=7 note=82 velocity=64 time=0.002941175
EXTRACT: note_on channel=1 note=63 velocity=0 time=0.00588235
EXTRACT: note_on channel=1 note=66 velocity=0 time=0.00588235
EXTRACT: note_on channel=1 note=54 velocity=0 time=0.002941175
EXTRACT: note_on channel=1 note=66 velocity=76 time=0
EXTRACT: note_on channel=1 note=63 velocity=76 time=0
EXTRACT: note_on channel=1 note=54 velocity=76 time=0.00588235
EXTRACT: note_on channel=9 note=51 velocity=85 time=0.00588235
EXTRACT: note_on channel=0 note=35 velocity=110 time=0.002941175
EXTRACT: note_on channel=7 note=83 velocity=0 time=0.035294099999999995
EXTRACT: note_on channel=7 note=82 velocity=0 time=0.061764675
EXTRACT: note_on channel=9 note=51 velocity=0 time=0
EXTRACT: note_on channel=0 note=35 velocity=0 time=0.032352925
EXTRACT: note_on channel=5 note=63 velocity=0 time=0
EXTRACT: note_on channel=7 note=80 velocity=64 time=0.002941175
EXTRACT: note_on channel=5 note=59 velocity=0 time=0.014705875
EXTRACT: note_on channel=5 note=47 velocity=0 time=0.017647049999999997
EXTRACT: note_on channel=5 note=61 velocity=80 time=0.002941175
EXTRACT: note_on channel=0 note=35 velocity=110 time=0.002941175
EXTRACT: note_on channel=5 note=58 velocity=80 time=0.05294115
EXTRACT: note_on channel=5 note=42 velocity=80 time=0.05294115
EXTRACT: note_on channel=7 note=80 velocity=0 time=0.02941175
EXTRACT: note_on channel=1 note=59 velocity=0 time=0.002941175
EXTRACT: note_on channel=1 note=47 velocity=0 time=0
EXTRACT: note_on channel=7 note=82 velocity=64 time=0.002941175
EXTRACT: note_on channel=0 note=35 velocity=0 time=0.002941175
EXTRACT: note_on channel=1 note=63 velocity=0 time=0.0117647
EXTRACT: note_on channel=1 note=66 velocity=0 time=0
EXTRACT: note_on channel=5 note=58 velocity=0 time=0.002941175
EXTRACT: note_on channel=1 note=54 velocity=0 time=0.002941175
EXTRACT: note_on channel=1 note=66 velocity=87 time=0
EXTRACT: note_on channel=1 note=42 velocity=76 time=0.002941175
EXTRACT: note_on channel=5 note=61 velocity=0 time=0.002941175
EXTRACT: note_on channel=5 note=58 velocity=84 time=0
EXTRACT: note_on channel=0 note=30 velocity=106 time=0.00588235
EXTRACT: note_on channel=1 note=61 velocity=87 time=0
EXTRACT: note_on channel=2 note=82 velocity=57 time=0
EXTRACT: note_on channel=5 note=61 velocity=80 time=0
EXTRACT: note_on channel=2 note=73 velocity=57 time=0.00588235
EXTRACT: note_on channel=9 note=36 velocity=90 time=0
EXTRACT: note_on channel=9 note=51 velocity=82 time=0
EXTRACT: note_on channel=9 note=35 velocity=90 time=0
EXTRACT: note_on channel=1 note=54 velocity=87 time=0.002941175
EXTRACT: note_on channel=5 note=42 velocity=0 time=0.002941175
EXTRACT: note_on channel=1 note=49 velocity=76 time=0.002941175
EXTRACT: note_on channel=5 note=42 velocity=125 time=0.002941175
EXTRACT: note_on channel=2 note=83 velocity=0 time=0.026470575
EXTRACT: note_on channel=2 note=75 velocity=0 time=0.038235275
EXTRACT: note_on channel=7 note=82 velocity=0 time=0.002941175
EXTRACT: note_on channel=9 note=35 velocity=0 time=0.05294115
EXTRACT: note_on channel=9 note=51 velocity=0 time=0
EXTRACT: note_on channel=9 note=36 velocity=0 time=0
EXTRACT: note_on channel=7 note=82 velocity=64 time=0.026470575
EXTRACT: note_on channel=9 note=51 velocity=85 time=0.19411755
EXTRACT: note_on channel=9 note=51 velocity=0 time=0.06470585
EXTRACT: note_on channel=0 note=30 velocity=0 time=0.06470585
EXTRACT: note_on channel=1 note=66 velocity=0 time=0.014705875
EXTRACT: note_on channel=1 note=42 velocity=0 time=0.002941175
EXTRACT: note_on channel=1 note=61 velocity=0 time=0.008823524999999999
EXTRACT: note_on channel=1 note=61 velocity=72 time=0.00588235
EXTRACT: note_on channel=1 note=54 velocity=0 time=0.002941175
EXTRACT: note_on channel=1 note=66 velocity=72 time=0
EXTRACT: note_on channel=1 note=42 velocity=63 time=0.002941175
EXTRACT: note_on channel=1 note=49 velocity=0 time=0.002941175
EXTRACT: note_on channel=0 note=30 velocity=95 time=0.002941175
EXTRACT: note_on channel=9 note=35 velocity=90 time=0.002941175
EXTRACT: note_on channel=9 note=36 velocity=90 time=0
EXTRACT: note_on channel=1 note=49 velocity=63 time=0.008823524999999999
EXTRACT: note_on channel=1 note=54 velocity=72 time=0
EXTRACT: note_on channel=9 note=36 velocity=0 time=0.12352935
EXTRACT: note_on channel=9 note=35 velocity=0 time=0
EXTRACT: note_on channel=1 note=54 velocity=0 time=0.017647049999999997
EXTRACT: note_on channel=1 note=61 velocity=0 time=0.002941175
EXTRACT: note_on channel=0 note=30 velocity=0 time=0.002941175
EXTRACT: note_on channel=1 note=54 velocity=84 time=0
EXTRACT: note_on channel=1 note=61 velocity=84 time=0
EXTRACT: note_on channel=1 note=66 velocity=0 time=0
EXTRACT: note_on channel=1 note=42 velocity=0 time=0.002941175
EXTRACT: note_on channel=9 note=38 velocity=89 time=0.00588235
EXTRACT: note_on channel=9 note=40 velocity=89 time=0
EXTRACT: note_on channel=1 note=49 velocity=0 time=0.002941175
EXTRACT: note_on channel=1 note=42 velocity=73 time=0
EXTRACT: note_on channel=0 note=30 velocity=95 time=0.002941175
EXTRACT: note_on channel=1 note=49 velocity=73 time=0
EXTRACT: note_on channel=1 note=66 velocity=84 time=0.00588235
EXTRACT: note_on channel=9 note=35 velocity=90 time=0
EXTRACT: note_on channel=9 note=36 velocity=90 time=0
EXTRACT: note_on channel=9 note=41 velocity=51 time=0
EXTRACT: note_on channel=9 note=51 velocity=95 time=0
EXTRACT: note_on channel=9 note=51 velocity=0 time=0.0941176
EXTRACT: note_on channel=9 note=38 velocity=0 time=0.026470575
EXTRACT: note_on channel=9 note=40 velocity=0 time=0
EXTRACT: note_on channel=9 note=36 velocity=0 time=0.0117647
EXTRACT: note_on channel=9 note=41 velocity=0 time=0
EXTRACT: note_on channel=9 note=35 velocity=0 time=0
EXTRACT: note_on channel=5 note=61 velocity=0 time=0.008823524999999999
EXTRACT: note_on channel=5 note=58 velocity=0 time=0.00588235
EXTRACT: note_on channel=5 note=42 velocity=0 time=0.0117647
EXTRACT: note_on channel=5 note=63 velocity=80 time=0.0117647
EXTRACT: note_on channel=7 note=82 velocity=0 time=0.002941175
EXTRACT: note_on channel=5 note=59 velocity=80 time=0.032352925
EXTRACT: note_on channel=5 note=44 velocity=80 time=0.041176449999999996
EXTRACT: note_on channel=7 note=82 velocity=64 time=0.049999974999999995
EXTRACT: note_on channel=0 note=30 velocity=0 time=0.026470575
EXTRACT: note_on channel=1 note=54 velocity=0 time=0.0117647
EXTRACT: note_on channel=1 note=61 velocity=0 time=0
EXTRACT: note_on channel=5 note=44 velocity=0 time=0
EXTRACT: note_on channel=5 note=59 velocity=0 time=0
EXTRACT: note_on channel=7 note=83 velocity=64 time=0.002941175
EXTRACT: note_on channel=2 note=82 velocity=0 time=0.002941175
EXTRACT: note_on channel=5 note=63 velocity=0 time=0
EXTRACT: note_on channel=1 note=66 velocity=0 time=0.002941175
EXTRACT: note_on channel=1 note=51 velocity=83 time=0
EXTRACT: note_on channel=5 note=59 velocity=84 time=0
EXTRACT: note_on channel=1 note=42 velocity=0 time=0.002941175
EXTRACT: note_on channel=1 note=66 velocity=83 time=0
EXTRACT: note_on channel=2 note=80 velocity=57 time=0
EXTRACT: note_on channel=2 note=71 velocity=57 time=0.002941175
EXTRACT: note_on channel=0 note=32 velocity=106 time=0.002941175
EXTRACT: note_on channel=1 note=49 velocity=0 time=0
EXTRACT: note_on channel=5 note=63 velocity=80 time=0
EXTRACT: note_on channel=9 note=36 velocity=97 time=0
EXTRACT: note_on channel=9 note=35 velocity=97 time=0
EXTRACT: note_on channel=9 note=51 velocity=85 time=0
EXTRACT: note_on channel=9 note=53 velocity=55 time=0
EXTRACT: note_on channel=1 note=59 velocity=83 time=0.002941175
EXTRACT: note_on channel=5 note=44 velocity=125 time=0.002941175
EXTRACT: note_on channel=1 note=63 velocity=83 time=0.002941175
EXTRACT: note_on channel=2 note=73 velocity=0 time=0
EXTRACT: note_on channel=1 note=44 velocity=73 time=0.00588235
EXTRACT: note_on channel=7 note=82 velocity=0 time=0.02941175
EXTRACT: note_on channel=9 note=53 velocity=0 time=0.055882325
EXTRACT: note_on channel=9 note=51 velocity=0 time=0
EXTRACT: note_on channel=9 note=35 velocity=0 time=0.032352925
EXTRACT: note_on channel=9 note=36 velocity=0 time=0
EXTRACT: note_on channel=9 note=41 velocity=43 time=0.032352925
EXTRACT: note_on channel=9 note=41 velocity=0 time=0.13235287499999998
EXTRACT: note_on channel=9 note=51 velocity=85 time=0.055882325
EXTRACT: note_on channel=7 note=83 velocity=0 time=0.061764675
EXTRACT: note_on channel=9 note=51 velocity=0 time=0.041176449999999996
EXTRACT: note_on channel=0 note=32 velocity=0 time=0.02941175
EXTRACT: note_on channel=1 note=51 velocity=0 time=0.008823524999999999
EXTRACT: note_on channel=1 note=66 velocity=0 time=0.002941175
EXTRACT: note_on channel=1 note=59 velocity=0 time=0.008823524999999999
EXTRACT: note_on channel=1 note=63 velocity=0 time=0.00588235
EXTRACT: note_on channel=1 note=44 velocity=0 time=0.00588235
EXTRACT: note_on channel=1 note=63 velocity=69 time=0.002941175
EXTRACT: note_on channel=0 note=30 velocity=95 time=0.00588235
EXTRACT: note_on channel=1 note=59 velocity=69 time=0
EXTRACT: note_on channel=1 note=44 velocity=60 time=0.002941175
EXTRACT: note_on channel=9 note=38 velocity=81 time=0
EXTRACT: note_on channel=9 note=40 velocity=81 time=0
EXTRACT: note_on channel=1 note=51 velocity=69 time=0.0117647
EXTRACT: note_on channel=1 note=66 velocity=69 time=0
EXTRACT: note_on channel=9 note=40 velocity=0 time=0.12058817499999999
EXTRACT: note_on channel=9 note=38 velocity=0 time=0
EXTRACT: note_on channel=1 note=59 velocity=0 time=0.008823524999999999
EXTRACT: note_on channel=1 note=44 velocity=0 time=0.002941175
EXTRACT: note_on channel=1 note=63 velocity=0 time=0.00588235
EXTRACT: note_on channel=1 note=59 velocity=80 time=0
EXTRACT: note_on channel=1 note=63 velocity=80 time=0.00588235
EXTRACT: note_on channel=1 note=44 velocity=69 time=0
EXTRACT: note_on channel=0 note=30 velocity=0 time=0.002941175
EXTRACT: note_on channel=1 note=66 velocity=0 time=0
EXTRACT: note_on channel=1 note=66 velocity=80 time=0.00588235
EXTRACT: note_on channel=9 note=36 velocity=90 time=0
EXTRACT: note_on channel=9 note=35 velocity=90 time=0
EXTRACT: note_on channel=1 note=51 velocity=0 time=0.00588235
EXTRACT: note_on channel=0 note=32 velocity=103 time=0.002941175
EXTRACT: note_on channel=9 note=51 velocity=88 time=0.002941175
EXTRACT: note_on channel=1 note=51 velocity=80 time=0.002941175
EXTRACT: note_on channel=9 note=51 velocity=0 time=0.0941176
EXTRACT: note_on channel=9 note=35 velocity=0 time=0.0235294
EXTRACT: note_on channel=9 note=36 velocity=0 time=0
EXTRACT: note_on channel=7 note=85 velocity=64 time=0.23235282499999999
EXTRACT: note_on channel=9 note=38 velocity=89 time=0
EXTRACT: note_on channel=9 note=40 velocity=89 time=0
EXTRACT: note_on channel=9 note=41 velocity=57 time=0
EXTRACT: note_on channel=9 note=51 velocity=95 time=0
EXTRACT: note_on channel=9 note=53 velocity=63 time=0
EXTRACT: note_on channel=7 note=87 velocity=64 time=0.0235294
EXTRACT: note_on channel=7 note=85 velocity=0 time=0.06470585
EXTRACT: note_on channel=9 note=53 velocity=0 time=0.0235294
EXTRACT: note_on channel=9 note=51 velocity=0 time=0
EXTRACT: note_on channel=9 note=38 velocity=0 time=0.020588224999999998
EXTRACT: note_on channel=9 note=40 velocity=0 time=0
EXTRACT: note_on channel=9 note=41 velocity=0 time=0
EXTRACT: note_on channel=1 note=63 velocity=0 time=0.02941175
EXTRACT: note_on channel=1 note=59 velocity=0 time=0
EXTRACT: note_on channel=1 note=59 velocity=66 time=0.00588235
EXTRACT: note_on channel=1 note=63 velocity=66 time=0
EXTRACT: note_on channel=1 note=66 velocity=0 time=0
EXTRACT: note_on channel=1 note=44 velocity=0 time=0.002941175
EXTRACT: note_on channel=1 note=51 velocity=0 time=0
EXTRACT: note_on channel=1 note=51 velocity=66 time=0.00588235
EXTRACT: note_on channel=1 note=66 velocity=66 time=0
EXTRACT: note_on channel=1 note=44 velocity=57 time=0.0117647
EXTRACT: note_on channel=0 note=32 velocity=0 time=0.1058823
EXTRACT: note_on channel=1 note=59 velocity=0 time=0.026470575
EXTRACT: note_on channel=1 note=44 velocity=0 time=0
EXTRACT: note_on channel=1 note=59 velocity=76 time=0.002941175
EXTRACT: note_on channel=1 note=44 velocity=67 time=0
EXTRACT: note_on channel=1 note=63 velocity=0 time=0.008823524999999999
EXTRACT: note_on channel=1 note=66 velocity=0 time=0.002941175
EXTRACT: note_on channel=1 note=51 velocity=0 time=0.00588235
EXTRACT: note_on channel=1 note=66 velocity=76 time=0
EXTRACT: note_on channel=1 note=63 velocity=76 time=0
EXTRACT: note_on channel=1 note=51 velocity=76 time=0.00588235
EXTRACT: note_on channel=7 note=85 velocity=64 time=0.002941175
EXTRACT: note_on channel=0 note=32 velocity=110 time=0.002941175
EXTRACT: note_on channel=9 note=51 velocity=85 time=0
EXTRACT: note_on channel=7 note=87 velocity=0 time=0.041176449999999996
EXTRACT: note_on channel=9 note=51 velocity=0 time=0.0588235
EXTRACT: note_on channel=7 note=85 velocity=0 time=0.026470575
EXTRACT: note_on channel=0 note=32 velocity=0 time=0.00588235
EXTRACT: note_on channel=5 note=44 velocity=0 time=0.017647049999999997
EXTRACT: note_on channel=5 note=59 velocity=0 time=0.002941175
EXTRACT: note_on channel=7 note=82 velocity=64 time=0.008823524999999999
EXTRACT: note_on channel=5 note=63 velocity=0 time=0.002941175
EXTRACT: note_on channel=5 note=61 velocity=80 time=0.00588235
EXTRACT: note_on channel=0 note=32 velocity=110 time=0.00588235
EXTRACT: note_on channel=5 note=58 velocity=80 time=0.049999974999999995
EXTRACT: note_on channel=7 note=82 velocity=0 time=0.00588235
EXTRACT: note_on channel=7 note=83 velocity=64 time=0.002941175
EXTRACT: note_on channel=2 note=78 velocity=0 time=0.014705875
EXTRACT: note_on channel=5 note=42 velocity=80 time=0.02941175
EXTRACT: note_on channel=2 note=80 velocity=0 time=0.014705875
EXTRACT: note_on channel=1 note=59 velocity=0 time=0.017647049999999997
EXTRACT: note_on channel=1 note=44 velocity=0 time=0
EXTRACT: note_on channel=2 note=71 velocity=0 time=0
EXTRACT: note_on channel=1 note=63 velocity=0 time=0.017647049999999997
EXTRACT: note_on channel=1 note=66 velocity=0 time=0
EXTRACT: note_on channel=5 note=58 velocity=0 time=0.002941175
EXTRACT: note_on channel=1 note=51 velocity=0 time=0.002941175
EXTRACT: note_on channel=1 note=66 velocity=87 time=0
EXTRACT: note_on channel=0 note=32 velocity=0 time=0.002941175
EXTRACT: note_on channel=1 note=42 velocity=76 time=0
EXTRACT: note_on channel=5 note=61 velocity=0 time=0.002941175
EXTRACT: note_on channel=5 note=58 velocity=84 time=0
EXTRACT: note_on channel=1 note=61 velocity=87 time=0.00588235
EXTRACT: note_on channel=2 note=82 velocity=57 time=0
EXTRACT: note_on channel=5 note=61 velocity=80 time=0
EXTRACT: note_on channel=0 note=30 velocity=106 time=0.00588235
EXTRACT: note_on channel=2 note=78 velocity=57 time=0
EXTRACT: note_on channel=9 note=36 velocity=90 time=0
EXTRACT: note_on channel=9 note=51 velocity=82 time=0
EXTRACT: note_on channel=9 note=35 velocity=90 time=0
EXTRACT: note_on channel=1 note=54 velocity=87 time=0.002941175
EXTRACT: note_on channel=2 note=73 velocity=57 time=0
EXTRACT: note_on channel=5 note=42 velocity=0 time=0.002941175
EXTRACT: note_on channel=1 note=49 velocity=76 time=0.002941175
EXTRACT: note_on channel=5 note=42 velocity=125 time=0.002941175
EXTRACT: note_on channel=9 note=35 velocity=0 time=0.12058817499999999
EXTRACT: note_on channel=9 note=51 velocity=0 time=0
EXTRACT: note_on channel=9 note=36 velocity=0 time=0
EXTRACT: note_on channel=7 note=85 velocity=64 time=0.097058775
EXTRACT: note_on channel=7 note=83 velocity=0 time=0.014705875
EXTRACT: note_on channel=7 note=85 velocity=0 time=0.0941176
EXTRACT: note_on channel=7 note=83 velocity=64 time=0.002941175
EXTRACT: note_on channel=9 note=51 velocity=85 time=0.0117647
EXTRACT: note_on channel=9 note=53 velocity=59 time=0.017647049999999997
EXTRACT: note_on channel=9 note=51 velocity=0 time=0.0470588
EXTRACT: note_on channel=0 note=30 velocity=0 time=0.06470585
EXTRACT: note_on channel=1 note=66 velocity=0 time=0.002941175
EXTRACT: note_on channel=1 note=42 velocity=0 time=0.00588235
EXTRACT: note_on channel=1 note=61 velocity=0 time=0.008823524999999999
EXTRACT: note_on channel=9 note=53 velocity=0 time=0.002941175
EXTRACT: note_on channel=1 note=54 velocity=0 time=0.00588235
EXTRACT: note_on channel=1 note=49 velocity=0 time=0.002941175
EXTRACT: note_on channel=1 note=61 velocity=72 time=0.002941175
EXTRACT: note_on channel=1 note=66 velocity=72 time=0.002941175
EXTRACT: note_on channel=1 note=42 velocity=63 time=0.002941175
EXTRACT: note_on channel=0 note=30 velocity=95 time=0.00588235
EXTRACT: note_on channel=9 note=35 velocity=90 time=0.002941175
EXTRACT: note_on channel=9 note=36 velocity=90 time=0
EXTRACT: note_on channel=1 note=49 velocity=63 time=0.008823524999999999
EXTRACT: note_on channel=1 note=54 velocity=72 time=0
EXTRACT: note_on channel=9 note=36 velocity=0 time=0.12352935
EXTRACT: note_on channel=9 note=35 velocity=0 time=0
EXTRACT: note_on channel=1 note=54 velocity=0 time=0.014705875
EXTRACT: note_on channel=7 note=82 velocity=64 time=0
EXTRACT: note_on channel=7 note=83 velocity=0 time=0.002941175
EXTRACT: note_on channel=1 note=61 velocity=0 time=0.002941175
EXTRACT: note_on channel=0 note=30 velocity=0 time=0.002941175
EXTRACT: note_on channel=1 note=54 velocity=84 time=0
EXTRACT: note_on channel=1 note=61 velocity=84 time=0
EXTRACT: note_on channel=1 note=66 velocity=0 time=0
EXTRACT: note_on channel=1 note=42 velocity=0 time=0.002941175
EXTRACT: note_on channel=1 note=49 velocity=0 time=0.002941175
EXTRACT: note_on channel=9 note=38 velocity=89 time=0.002941175
EXTRACT: note_on channel=9 note=40 velocity=89 time=0
EXTRACT: note_on channel=1 note=42 velocity=73 time=0.002941175
EXTRACT: note_on channel=0 note=30 velocity=95 time=0.002941175
EXTRACT: note_on channel=1 note=49 velocity=73 time=0
EXTRACT: note_on channel=5 note=43 velocity=113 time=0
EXTRACT: note_on channel=1 note=66 velocity=84 time=0.00588235
EXTRACT: note_on channel=9 note=35 velocity=90 time=0
EXTRACT: note_on channel=9 note=36 velocity=90 time=0
EXTRACT: note_on channel=9 note=41 velocity=51 time=0
EXTRACT: note_on channel=9 note=51 velocity=95 time=0
EXTRACT: note_on channel=5 note=44 velocity=108 time=0.049999974999999995
EXTRACT: note_on channel=5 note=42 velocity=0 time=0.00588235
EXTRACT: note_on channel=9 note=51 velocity=0 time=0.038235275
EXTRACT: note_on channel=5 note=43 velocity=0 time=0.008823524999999999
EXTRACT: note_on channel=5 note=45 velocity=102 time=0.002941175
EXTRACT: note_on channel=9 note=38 velocity=0 time=0.014705875
EXTRACT: note_on channel=9 note=40 velocity=0 time=0
EXTRACT: note_on channel=9 note=36 velocity=0 time=0.0117647
EXTRACT: note_on channel=9 note=41 velocity=0 time=0
EXTRACT: note_on channel=9 note=35 velocity=0 time=0
EXTRACT: note_on channel=5 note=61 velocity=0 time=0.017647049999999997
EXTRACT: note_on channel=5 note=58 velocity=0 time=0.002941175
EXTRACT: note_on channel=5 note=44 velocity=0 time=0.00588235
EXTRACT: note_on channel=5 note=46 velocity=97 time=0.002941175
EXTRACT: note_on channel=5 note=63 velocity=80 time=0.008823524999999999
EXTRACT: note_on channel=5 note=59 velocity=80 time=0.02941175
EXTRACT: note_on channel=5 note=45 velocity=0 time=0.0117647
EXTRACT: note_on channel=5 note=47 velocity=92 time=0.00588235
EXTRACT: note_on channel=5 note=46 velocity=0 time=0.049999974999999995
EXTRACT: note_on channel=1 note=61 velocity=0 time=0.055882325
EXTRACT: note_on channel=1 note=54 velocity=0 time=0
EXTRACT: note_on channel=0 note=30 velocity=0 time=0.002941175
EXTRACT: note_on channel=5 note=59 velocity=0 time=0.002941175
EXTRACT: note_on channel=1 note=42 velocity=0 time=0.00588235
EXTRACT: note_on channel=1 note=49 velocity=0 time=0.00588235
EXTRACT: note_on channel=5 note=63 velocity=0 time=0
EXTRACT: note_on channel=1 note=66 velocity=0 time=0.002941175
EXTRACT: note_on channel=1 note=54 velocity=83 time=0
EXTRACT: note_on channel=5 note=59 velocity=84 time=0
EXTRACT: note_on channel=1 note=66 velocity=83 time=0.002941175
EXTRACT: note_on channel=2 note=75 velocity=57 time=0
EXTRACT: note_on channel=5 note=47 velocity=0 time=0
EXTRACT: note_on channel=2 note=73 velocity=0 time=0.002941175
EXTRACT: note_on channel=5 note=63 velocity=80 time=0.002941175
EXTRACT: note_on channel=9 note=36 velocity=97 time=0
EXTRACT: note_on channel=9 note=35 velocity=97 time=0
EXTRACT: note_on channel=9 note=51 velocity=85 time=0
EXTRACT: note_on channel=9 note=53 velocity=55 time=0
EXTRACT: note_on channel=0 note=35 velocity=106 time=0.002941175
EXTRACT: note_on channel=1 note=59 velocity=83 time=0
EXTRACT: note_on channel=2 note=83 velocity=57 time=0
EXTRACT: note_on channel=2 note=82 velocity=0 time=0.002941175
EXTRACT: note_on channel=5 note=47 velocity=125 time=0
EXTRACT: note_on channel=1 note=63 velocity=83 time=0.002941175
EXTRACT: note_on channel=1 note=47 velocity=73 time=0.00588235
EXTRACT: note_on channel=9 note=53 velocity=0 time=0.085294075
EXTRACT: note_on channel=9 note=51 velocity=0 time=0
EXTRACT: note_on channel=9 note=35 velocity=0 time=0.032352925
EXTRACT: note_on channel=9 note=36 velocity=0 time=0
EXTRACT: note_on channel=7 note=83 velocity=64 time=0.0235294
EXTRACT: note_on channel=9 note=41 velocity=43 time=0.008823524999999999
EXTRACT: note_on channel=7 note=82 velocity=0 time=0.020588224999999998
EXTRACT: note_on channel=9 note=41 velocity=0 time=0.11176465
EXTRACT: note_on channel=9 note=51 velocity=85 time=0.055882325
EXTRACT: note_on channel=9 note=51 velocity=0 time=0.102941125
EXTRACT: note_on channel=0 note=35 velocity=0 time=0.02941175
EXTRACT: note_on channel=1 note=54 velocity=0 time=0.008823524999999999
EXTRACT: note_on channel=1 note=66 velocity=0 time=0.002941175
EXTRACT: note_on channel=1 note=59 velocity=0 time=0.008823524999999999
EXTRACT: note_on channel=1 note=63 velocity=0 time=0.00588235
EXTRACT: note_on channel=1 note=47 velocity=0 time=0.00588235
EXTRACT: note_on channel=1 note=63 velocity=69 time=0.002941175
EXTRACT: note_on channel=0 note=34 velocity=95 time=0.00588235
EXTRACT: note_on channel=1 note=59 velocity=69 time=0
EXTRACT: note_on channel=1 note=47 velocity=60 time=0.002941175
EXTRACT: note_on channel=9 note=38 velocity=81 time=0
EXTRACT: note_on channel=9 note=40 velocity=81 time=0
EXTRACT: note_on channel=1 note=54 velocity=69 time=0.0117647
EXTRACT: note_on channel=1 note=66 velocity=69 time=0
EXTRACT: note_on channel=9 note=40 velocity=0 time=0.12058817499999999
EXTRACT: note_on channel=9 note=38 velocity=0 time=0
EXTRACT: note_on channel=1 note=59 velocity=0 time=0.0117647
EXTRACT: note_on channel=1 note=47 velocity=0 time=0.002941175
EXTRACT: note_on channel=1 note=63 velocity=0 time=0.002941175
EXTRACT: note_on channel=1 note=59 velocity=80 time=0
EXTRACT: note_on channel=1 note=63 velocity=80 time=0.00588235
EXTRACT: note_on channel=1 note=47 velocity=69 time=0
EXTRACT: note_on channel=0 note=34 velocity=0 time=0.00588235
EXTRACT: note_on channel=1 note=66 velocity=0 time=0
EXTRACT: note_on channel=1 note=66 velocity=80 time=0.002941175
EXTRACT: note_on channel=9 note=36 velocity=90 time=0
EXTRACT: note_on channel=9 note=35 velocity=90 time=0
EXTRACT: note_on channel=1 note=54 velocity=0 time=0.00588235
EXTRACT: note_on channel=0 note=35 velocity=103 time=0.00588235
EXTRACT: note_on channel=9 note=51 velocity=88 time=0
EXTRACT: note_on channel=1 note=54 velocity=80 time=0.002941175
EXTRACT: note_on channel=9 note=51 velocity=0 time=0.0941176
EXTRACT: note_on channel=9 note=35 velocity=0 time=0.0235294
EXTRACT: note_on channel=9 note=36 velocity=0 time=0
EXTRACT: note_on channel=9 note=38 velocity=89 time=0.23235282499999999
EXTRACT: note_on channel=9 note=40 velocity=89 time=0
EXTRACT: note_on channel=9 note=41 velocity=57 time=0
EXTRACT: note_on channel=9 note=51 velocity=95 time=0
EXTRACT: note_on channel=9 note=53 velocity=63 time=0
EXTRACT: note_on channel=9 note=53 velocity=0 time=0.11176465
EXTRACT: note_on channel=9 note=51 velocity=0 time=0
EXTRACT: note_on channel=9 note=38 velocity=0 time=0.020588224999999998
EXTRACT: note_on channel=9 note=40 velocity=0 time=0
EXTRACT: note_on channel=9 note=41 velocity=0 time=0
EXTRACT: note_on channel=1 note=63 velocity=0 time=0.0235294
EXTRACT: note_on channel=1 note=59 velocity=0 time=0.002941175
EXTRACT: note_on channel=1 note=66 velocity=0 time=0.00588235
EXTRACT: note_on channel=1 note=54 velocity=0 time=0.002941175
EXTRACT: note_on channel=1 note=59 velocity=66 time=0
EXTRACT: note_on channel=1 note=63 velocity=66 time=0
EXTRACT: note_on channel=1 note=47 velocity=0 time=0.002941175
EXTRACT: note_on channel=1 note=54 velocity=66 time=0.00588235
EXTRACT: note_on channel=1 note=66 velocity=66 time=0
EXTRACT: note_on channel=1 note=47 velocity=57 time=0.0117647
EXTRACT: note_on channel=0 note=35 velocity=0 time=0.10882347499999999
EXTRACT: note_on channel=7 note=83 velocity=0 time=0
EXTRACT: note_on channel=1 note=59 velocity=0 time=0.0235294
EXTRACT: note_on channel=1 note=47 velocity=0 time=0.002941175
EXTRACT: note_on channel=1 note=59 velocity=76 time=0
EXTRACT: note_on channel=1 note=47 velocity=67 time=0
EXTRACT: note_on channel=1 note=63 velocity=0 time=0.008823524999999999
EXTRACT: note_on channel=1 note=66 velocity=0 time=0.00588235
EXTRACT: note_on channel=7 note=82 velocity=64 time=0
EXTRACT: note_on channel=1 note=54 velocity=0 time=0.002941175
EXTRACT: note_on channel=1 note=66 velocity=76 time=0
EXTRACT: note_on channel=1 note=63 velocity=76 time=0
EXTRACT: note_on channel=1 note=54 velocity=76 time=0.00588235
EXTRACT: note_on channel=9 note=51 velocity=85 time=0.00588235
EXTRACT: note_on channel=0 note=35 velocity=110 time=0.002941175
EXTRACT: note_on channel=9 note=51 velocity=0 time=0.097058775
EXTRACT: note_on channel=0 note=35 velocity=0 time=0.032352925
EXTRACT: note_on channel=5 note=63 velocity=0 time=0
EXTRACT: note_on channel=7 note=82 velocity=0 time=0.014705875
EXTRACT: note_on channel=5 note=59 velocity=0 time=0.002941175
EXTRACT: note_on channel=5 note=47 velocity=0 time=0.017647049999999997
EXTRACT: note_on channel=7 note=80 velocity=64 time=0
EXTRACT: note_on channel=5 note=61 velocity=80 time=0.002941175
EXTRACT: note_on channel=0 note=35 velocity=110 time=0.002941175
EXTRACT: note_on channel=5 note=58 velocity=80 time=0.05294115
EXTRACT: note_on channel=5 note=42 velocity=80 time=0.05294115
EXTRACT: note_on channel=7 note=80 velocity=0 time=0.002941175
EXTRACT: note_on channel=1 note=59 velocity=0 time=0.02941175
EXTRACT: note_on channel=1 note=47 velocity=0 time=0
EXTRACT: note_on channel=0 note=35 velocity=0 time=0.00588235
EXTRACT: note_on channel=1 note=63 velocity=0 time=0.0117647
EXTRACT: note_on channel=1 note=66 velocity=0 time=0
EXTRACT: note_on channel=5 note=58 velocity=0 time=0.002941175
EXTRACT: note_on channel=1 note=54 velocity=0 time=0.002941175
EXTRACT: note_on channel=1 note=66 velocity=87 time=0
EXTRACT: note_on channel=1 note=42 velocity=76 time=0.002941175
EXTRACT: note_on channel=5 note=61 velocity=0 time=0.002941175
EXTRACT: note_on channel=5 note=58 velocity=84 time=0
EXTRACT: note_on channel=7 note=82 velocity=64 time=0.002941175
EXTRACT: note_on channel=0 note=30 velocity=106 time=0.002941175
EXTRACT: note_on channel=1 note=61 velocity=87 time=0
EXTRACT: note_on channel=2 note=82 velocity=58 time=0
EXTRACT: note_on channel=5 note=61 velocity=80 time=0
EXTRACT: note_on channel=2 note=73 velocity=58 time=0.00588235
EXTRACT: note_on channel=9 note=36 velocity=90 time=0
EXTRACT: note_on channel=9 note=51 velocity=82 time=0
EXTRACT: note_on channel=9 note=35 velocity=90 time=0
EXTRACT: note_on channel=1 note=54 velocity=87 time=0.002941175
EXTRACT: note_on channel=5 note=42 velocity=0 time=0.002941175
EXTRACT: note_on channel=1 note=49 velocity=76 time=0.002941175
EXTRACT: note_on channel=5 note=42 velocity=125 time=0.002941175
EXTRACT: note_on channel=7 note=83 velocity=64 time=0.017647049999999997
EXTRACT: note_on channel=2 note=83 velocity=0 time=0.008823524999999999
EXTRACT: note_on channel=7 note=82 velocity=0 time=0.035294099999999995
EXTRACT: note_on channel=2 note=75 velocity=0 time=0.002941175
EXTRACT: note_on channel=9 note=35 velocity=0 time=0.055882325
EXTRACT: note_on channel=9 note=51 velocity=0 time=0
EXTRACT: note_on channel=9 note=36 velocity=0 time=0
EXTRACT: note_on channel=9 note=51 velocity=85 time=0.220588125
EXTRACT: note_on channel=7 note=82 velocity=64 time=0.0117647
EXTRACT: note_on channel=9 note=51 velocity=0 time=0.05294115
EXTRACT: note_on channel=7 note=83 velocity=0 time=0.00588235
EXTRACT: note_on channel=0 note=30 velocity=0 time=0.0588235
EXTRACT: note_on channel=1 note=66 velocity=0 time=0.014705875
EXTRACT: note_on channel=1 note=42 velocity=0 time=0.002941175
EXTRACT: note_on channel=1 note=61 velocity=0 time=0.008823524999999999
EXTRACT: note_on channel=1 note=61 velocity=72 time=0.00588235
EXTRACT: note_on channel=1 note=54 velocity=0 time=0.002941175
EXTRACT: note_on channel=1 note=66 velocity=72 time=0
EXTRACT: note_on channel=1 note=42 velocity=63 time=0.002941175
EXTRACT: note_on channel=1 note=49 velocity=0 time=0.002941175
EXTRACT: note_on channel=0 note=30 velocity=95 time=0.002941175
EXTRACT: note_on channel=9 note=35 velocity=90 time=0.002941175
EXTRACT: note_on channel=9 note=36 velocity=90 time=0
EXTRACT: note_on channel=1 note=49 velocity=63 time=0.008823524999999999
EXTRACT: note_on channel=1 note=54 velocity=72 time=0
EXTRACT: note_on channel=9 note=36 velocity=0 time=0.12352935
EXTRACT: note_on channel=9 note=35 velocity=0 time=0
EXTRACT: note_on channel=1 note=54 velocity=0 time=0.017647049999999997
EXTRACT: note_on channel=1 note=61 velocity=0 time=0.002941175
EXTRACT: note_on channel=0 note=30 velocity=0 time=0.002941175
EXTRACT: note_on channel=1 note=54 velocity=84 time=0
EXTRACT: note_on channel=1 note=61 velocity=84 time=0
EXTRACT: note_on channel=1 note=66 velocity=0 time=0
EXTRACT: note_on channel=1 note=42 velocity=0 time=0.002941175
EXTRACT: note_on channel=7 note=83 velocity=64 time=0
EXTRACT: note_on channel=9 note=38 velocity=89 time=0.00588235
EXTRACT: note_on channel=9 note=40 velocity=89 time=0
EXTRACT: note_on channel=1 note=49 velocity=0 time=0.002941175
EXTRACT: note_on channel=1 note=42 velocity=73 time=0
EXTRACT: note_on channel=7 note=82 velocity=0 time=0
EXTRACT: note_on channel=0 note=30 velocity=95 time=0.002941175
EXTRACT: note_on channel=1 note=49 velocity=73 time=0
EXTRACT: note_on channel=1 note=66 velocity=84 time=0.00588235
EXTRACT: note_on channel=9 note=35 velocity=90 time=0
EXTRACT: note_on channel=9 note=36 velocity=90 time=0
EXTRACT: note_on channel=9 note=41 velocity=51 time=0
EXTRACT: note_on channel=9 note=51 velocity=95 time=0
EXTRACT: note_on channel=9 note=51 velocity=0 time=0.0941176
EXTRACT: note_on channel=9 note=38 velocity=0 time=0.026470575
EXTRACT: note_on channel=9 note=40 velocity=0 time=0
EXTRACT: note_on channel=9 note=36 velocity=0 time=0.0117647
EXTRACT: note_on channel=9 note=41 velocity=0 time=0
EXTRACT: note_on channel=9 note=35 velocity=0 time=0
EXTRACT: note_on channel=5 note=61 velocity=0 time=0.008823524999999999
EXTRACT: note_on channel=5 note=58 velocity=0 time=0.00588235
EXTRACT: note_on channel=5 note=42 velocity=0 time=0.0117647
EXTRACT: note_on channel=5 note=63 velocity=80 time=0.0117647
EXTRACT: note_on channel=5 note=59 velocity=80 time=0.035294099999999995
EXTRACT: note_on channel=5 note=44 velocity=80 time=0.041176449999999996
EXTRACT: note_on channel=0 note=30 velocity=0 time=0.07647055
EXTRACT: note_on channel=1 note=54 velocity=0 time=0.0117647
EXTRACT: note_on channel=1 note=61 velocity=0 time=0
EXTRACT: note_on channel=5 note=44 velocity=0 time=0
EXTRACT: note_on channel=5 note=59 velocity=0 time=0
EXTRACT: note_on channel=2 note=82 velocity=0 time=0.00588235
EXTRACT: note_on channel=5 note=63 velocity=0 time=0
EXTRACT: note_on channel=1 note=66 velocity=0 time=0.002941175
EXTRACT: note_on channel=1 note=51 velocity=83 time=0
EXTRACT: note_on channel=5 note=59 velocity=84 time=0
EXTRACT: note_on channel=1 note=42 velocity=0 time=0.002941175
EXTRACT: note_on channel=1 note=66 velocity=83 time=0
EXTRACT: note_on channel=2 note=80 velocity=58 time=0
EXTRACT: note_on channel=2 note=71 velocity=58 time=0.002941175
EXTRACT: note_on channel=0 note=32 velocity=106 time=0.002941175
EXTRACT: note_on channel=1 note=49 velocity=0 time=0
EXTRACT: note_on channel=5 note=63 velocity=80 time=0
EXTRACT: note_on channel=9 note=36 velocity=97 time=0
EXTRACT: note_on channel=9 note=35 velocity=97 time=0
EXTRACT: note_on channel=9 note=51 velocity=85 time=0
EXTRACT: note_on channel=9 note=53 velocity=55 time=0
EXTRACT: note_on channel=1 note=59 velocity=83 time=0.002941175
EXTRACT: note_on channel=5 note=44 velocity=125 time=0.002941175
EXTRACT: note_on channel=1 note=63 velocity=83 time=0.002941175
EXTRACT: note_on channel=2 note=73 velocity=0 time=0
EXTRACT: note_on channel=7 note=80 velocity=64 time=0
EXTRACT: note_on channel=1 note=44 velocity=73 time=0.00588235
EXTRACT: note_on channel=7 note=83 velocity=0 time=0.002941175
EXTRACT: note_on channel=9 note=53 velocity=0 time=0.08235289999999999
EXTRACT: note_on channel=9 note=51 velocity=0 time=0
EXTRACT: note_on channel=9 note=35 velocity=0 time=0.032352925
EXTRACT: note_on channel=9 note=36 velocity=0 time=0
EXTRACT: note_on channel=9 note=41 velocity=43 time=0.032352925
EXTRACT: note_on channel=9 note=41 velocity=0 time=0.13235287499999998
EXTRACT: note_on channel=9 note=51 velocity=85 time=0.055882325
EXTRACT: note_on channel=9 note=51 velocity=0 time=0.102941125
EXTRACT: note_on channel=0 note=32 velocity=0 time=0.02941175
EXTRACT: note_on channel=1 note=51 velocity=0 time=0.008823524999999999
EXTRACT: note_on channel=1 note=66 velocity=0 time=0.002941175
EXTRACT: note_on channel=1 note=59 velocity=0 time=0.008823524999999999
EXTRACT: note_on channel=1 note=63 velocity=0 time=0.00588235
EXTRACT: note_on channel=1 note=44 velocity=0 time=0.00588235
EXTRACT: note_on channel=1 note=63 velocity=69 time=0.002941175
EXTRACT: note_on channel=0 note=30 velocity=95 time=0.00588235
EXTRACT: note_on channel=1 note=59 velocity=69 time=0
EXTRACT: note_on channel=1 note=44 velocity=60 time=0.002941175
EXTRACT: note_on channel=9 note=38 velocity=81 time=0
EXTRACT: note_on channel=9 note=40 velocity=81 time=0
EXTRACT: note_on channel=1 note=51 velocity=69 time=0.0117647
EXTRACT: note_on channel=1 note=66 velocity=69 time=0
EXTRACT: note_on channel=7 note=80 velocity=0 time=0.026470575
EXTRACT: note_on channel=9 note=40 velocity=0 time=0.0941176
EXTRACT: note_on channel=9 note=38 velocity=0 time=0
EXTRACT: note_on channel=1 note=59 velocity=0 time=0.008823524999999999
EXTRACT: note_on channel=1 note=44 velocity=0 time=0.002941175
EXTRACT: note_on channel=1 note=63 velocity=0 time=0.00588235
EXTRACT: note_on channel=1 note=59 velocity=80 time=0
EXTRACT: note_on channel=1 note=63 velocity=80 time=0.00588235
EXTRACT: note_on channel=1 note=44 velocity=69 time=0
EXTRACT: note_on channel=0 note=30 velocity=0 time=0.002941175
EXTRACT: note_on channel=1 note=66 velocity=0 time=0
EXTRACT: note_on channel=1 note=66 velocity=80 time=0.00588235
EXTRACT: note_on channel=9 note=36 velocity=90 time=0
EXTRACT: note_on channel=9 note=35 velocity=90 time=0
EXTRACT: note_on channel=1 note=51 velocity=0 time=0.00588235
EXTRACT: note_on channel=0 note=32 velocity=103 time=0.002941175
EXTRACT: note_on channel=9 note=51 velocity=88 time=0.002941175
EXTRACT: note_on channel=1 note=51 velocity=80 time=0.002941175
EXTRACT: note_on channel=9 note=51 velocity=0 time=0.0941176
EXTRACT: note_on channel=9 note=35 velocity=0 time=0.0235294
EXTRACT: note_on channel=9 note=36 velocity=0 time=0
EXTRACT: note_on channel=7 note=85 velocity=64 time=0.22647047499999998
EXTRACT: note_on channel=9 note=38 velocity=89 time=0.00588235
EXTRACT: note_on channel=9 note=40 velocity=89 time=0
EXTRACT: note_on channel=9 note=41 velocity=57 time=0
EXTRACT: note_on channel=9 note=51 velocity=95 time=0
EXTRACT: note_on channel=9 note=53 velocity=63 time=0
EXTRACT: note_on channel=7 note=87 velocity=64 time=0.008823524999999999
EXTRACT: note_on channel=7 note=85 velocity=0 time=0.07647055
EXTRACT: note_on channel=9 note=53 velocity=0 time=0.026470575
EXTRACT: note_on channel=9 note=51 velocity=0 time=0
EXTRACT: note_on channel=9 note=38 velocity=0 time=0.020588224999999998
EXTRACT: note_on channel=9 note=40 velocity=0 time=0
EXTRACT: note_on channel=9 note=41 velocity=0 time=0
EXTRACT: note_on channel=1 note=63 velocity=0 time=0.02941175
EXTRACT: note_on channel=1 note=59 velocity=0 time=0
EXTRACT: note_on channel=1 note=59 velocity=66 time=0.00588235
EXTRACT: note_on channel=1 note=63 velocity=66 time=0
EXTRACT: note_on channel=1 note=66 velocity=0 time=0
EXTRACT: note_on channel=1 note=44 velocity=0 time=0.002941175
EXTRACT: note_on channel=1 note=51 velocity=0 time=0
EXTRACT: note_on channel=1 note=51 velocity=66 time=0.00588235
EXTRACT: note_on channel=1 note=66 velocity=66 time=0
EXTRACT: note_on channel=1 note=44 velocity=57 time=0.0117647
EXTRACT: note_on channel=0 note=32 velocity=0 time=0.1058823
EXTRACT: note_on channel=1 note=59 velocity=0 time=0.026470575
EXTRACT: note_on channel=1 note=44 velocity=0 time=0
EXTRACT: note_on channel=1 note=59 velocity=76 time=0.002941175
EXTRACT: note_on channel=1 note=44 velocity=67 time=0
EXTRACT: note_on channel=1 note=63 velocity=0 time=0.008823524999999999
EXTRACT: note_on channel=1 note=66 velocity=0 time=0.002941175
EXTRACT: note_on channel=1 note=51 velocity=0 time=0.00588235
EXTRACT: note_on channel=1 note=66 velocity=76 time=0
EXTRACT: note_on channel=1 note=63 velocity=76 time=0
EXTRACT: note_on channel=1 note=51 velocity=76 time=0.00588235
EXTRACT: note_on channel=0 note=32 velocity=110 time=0.00588235
EXTRACT: note_on channel=7 note=85 velocity=64 time=0
EXTRACT: note_on channel=9 note=51 velocity=85 time=0
EXTRACT: note_on channel=7 note=87 velocity=0 time=0.038235275
EXTRACT: note_on channel=9 note=51 velocity=0 time=0.061764675
EXTRACT: note_on channel=7 note=85 velocity=0 time=0.0235294
EXTRACT: note_on channel=0 note=32 velocity=0 time=0.008823524999999999
EXTRACT: note_on channel=5 note=44 velocity=0 time=0.017647049999999997
EXTRACT: note_on channel=5 note=59 velocity=0 time=0.002941175
EXTRACT: note_on channel=5 note=63 velocity=0 time=0.0117647
EXTRACT: note_on channel=5 note=61 velocity=80 time=0.00588235
EXTRACT: note_on channel=0 note=32 velocity=110 time=0.00588235
EXTRACT: note_on channel=7 note=82 velocity=64 time=0.008823524999999999
EXTRACT: note_on channel=5 note=58 velocity=80 time=0.041176449999999996
EXTRACT: note_on channel=2 note=78 velocity=0 time=0.0235294
EXTRACT: note_on channel=5 note=42 velocity=80 time=0.02941175
EXTRACT: note_on channel=2 note=80 velocity=0 time=0.014705875
EXTRACT: note_on channel=1 note=59 velocity=0 time=0.017647049999999997
EXTRACT: note_on channel=1 note=44 velocity=0 time=0
EXTRACT: note_on channel=2 note=71 velocity=0 time=0
EXTRACT: note_on channel=1 note=63 velocity=0 time=0.017647049999999997
EXTRACT: note_on channel=1 note=66 velocity=0 time=0
EXTRACT: note_on channel=5 note=58 velocity=0 time=0.002941175
EXTRACT: note_on channel=1 note=51 velocity=0 time=0.002941175
EXTRACT: note_on channel=1 note=66 velocity=87 time=0
EXTRACT: note_on channel=0 note=32 velocity=0 time=0.002941175
EXTRACT: note_on channel=1 note=42 velocity=76 time=0
EXTRACT: note_on channel=5 note=61 velocity=0 time=0.002941175
EXTRACT: note_on channel=5 note=58 velocity=84 time=0
EXTRACT: note_on channel=1 note=61 velocity=87 time=0.00588235
EXTRACT: note_on channel=2 note=82 velocity=58 time=0
EXTRACT: note_on channel=5 note=61 velocity=80 time=0
EXTRACT: note_on channel=0 note=30 velocity=106 time=0.00588235
EXTRACT: note_on channel=2 note=78 velocity=58 time=0
EXTRACT: note_on channel=9 note=36 velocity=90 time=0
EXTRACT: note_on channel=9 note=51 velocity=82 time=0
EXTRACT: note_on channel=9 note=35 velocity=90 time=0
EXTRACT: note_on channel=1 note=54 velocity=87 time=0.002941175
EXTRACT: note_on channel=2 note=73 velocity=58 time=0
EXTRACT: note_on channel=5 note=42 velocity=0 time=0.002941175
EXTRACT: note_on channel=1 note=49 velocity=76 time=0.002941175
EXTRACT: note_on channel=5 note=42 velocity=125 time=0.002941175
EXTRACT: note_on channel=9 note=35 velocity=0 time=0.12058817499999999
EXTRACT: note_on channel=9 note=51 velocity=0 time=0
EXTRACT: note_on channel=9 note=36 velocity=0 time=0
EXTRACT: note_on channel=9 note=51 velocity=85 time=0.220588125
EXTRACT: note_on channel=9 note=53 velocity=59 time=0.017647049999999997
EXTRACT: note_on channel=9 note=51 velocity=0 time=0.0470588
EXTRACT: note_on channel=0 note=30 velocity=0 time=0.06470585
EXTRACT: note_on channel=1 note=66 velocity=0 time=0.002941175
EXTRACT: note_on channel=1 note=42 velocity=0 time=0.00588235
EXTRACT: note_on channel=1 note=61 velocity=0 time=0.008823524999999999
EXTRACT: note_on channel=9 note=53 velocity=0 time=0.002941175
EXTRACT: note_on channel=1 note=54 velocity=0 time=0.00588235
EXTRACT: note_on channel=1 note=49 velocity=0 time=0.002941175
EXTRACT: note_on channel=1 note=61 velocity=72 time=0.002941175
EXTRACT: note_on channel=1 note=66 velocity=72 time=0.002941175
EXTRACT: note_on channel=1 note=42 velocity=63 time=0.002941175
EXTRACT: note_on channel=0 note=30 velocity=95 time=0.00588235
EXTRACT: note_on channel=9 note=35 velocity=90 time=0.002941175
EXTRACT: note_on channel=9 note=36 velocity=90 time=0
EXTRACT: note_on channel=1 note=49 velocity=63 time=0.008823524999999999
EXTRACT: note_on channel=1 note=54 velocity=72 time=0
EXTRACT: note_on channel=9 note=36 velocity=0 time=0.12352935
EXTRACT: note_on channel=9 note=35 velocity=0 time=0
EXTRACT: note_on channel=1 note=54 velocity=0 time=0.014705875
EXTRACT: note_on channel=1 note=61 velocity=0 time=0.00588235
EXTRACT: note_on channel=0 note=30 velocity=0 time=0.002941175
EXTRACT: note_on channel=1 note=54 velocity=84 time=0
EXTRACT: note_on channel=1 note=61 velocity=84 time=0
EXTRACT: note_on channel=1 note=66 velocity=0 time=0
EXTRACT: note_on channel=1 note=42 velocity=0 time=0.002941175
EXTRACT: note_on channel=1 note=49 velocity=0 time=0.002941175
EXTRACT: note_on channel=9 note=38 velocity=89 time=0.002941175
EXTRACT: note_on channel=9 note=40 velocity=89 time=0
EXTRACT: note_on channel=1 note=42 velocity=73 time=0.002941175
EXTRACT: note_on channel=0 note=30 velocity=95 time=0.002941175
EXTRACT: note_on channel=1 note=49 velocity=73 time=0
EXTRACT: note_on channel=5 note=43 velocity=113 time=0
EXTRACT: note_on channel=1 note=66 velocity=84 time=0.00588235
EXTRACT: note_on channel=9 note=35 velocity=90 time=0
EXTRACT: note_on channel=9 note=36 velocity=90 time=0
EXTRACT: note_on channel=9 note=41 velocity=51 time=0
EXTRACT: note_on channel=9 note=51 velocity=95 time=0
EXTRACT: note_on channel=5 note=44 velocity=108 time=0.049999974999999995
EXTRACT: note_on channel=5 note=42 velocity=0 time=0.00588235
EXTRACT: note_on channel=9 note=51 velocity=0 time=0.038235275
EXTRACT: note_on channel=5 note=43 velocity=0 time=0.008823524999999999
EXTRACT: note_on channel=5 note=45 velocity=102 time=0.002941175
EXTRACT: note_on channel=9 note=38 velocity=0 time=0.014705875
EXTRACT: note_on channel=9 note=40 velocity=0 time=0
EXTRACT: note_on channel=9 note=36 velocity=0 time=0.0117647
EXTRACT: note_on channel=9 note=41 velocity=0 time=0
EXTRACT: note_on channel=9 note=35 velocity=0 time=0
EXTRACT: note_on channel=5 note=61 velocity=0 time=0.017647049999999997
EXTRACT: note_on channel=5 note=58 velocity=0 time=0.002941175
EXTRACT: note_on channel=5 note=44 velocity=0 time=0.00588235
EXTRACT: note_on channel=5 note=46 velocity=97 time=0.002941175
EXTRACT: note_on channel=5 note=63 velocity=80 time=0.008823524999999999
EXTRACT: note_on channel=5 note=59 velocity=80 time=0.02941175
EXTRACT: note_on channel=5 note=45 velocity=0 time=0.0117647
EXTRACT: note_on channel=5 note=47 velocity=92 time=0.00588235
EXTRACT: note_on channel=5 note=46 velocity=0 time=0.049999974999999995
EXTRACT: note_on channel=1 note=61 velocity=0 time=0.055882325
EXTRACT: note_on channel=1 note=54 velocity=0 time=0
EXTRACT: note_on channel=0 note=30 velocity=0 time=0.002941175
EXTRACT: note_on channel=5 note=59 velocity=0 time=0.002941175
EXTRACT: note_on channel=1 note=42 velocity=0 time=0.00588235
EXTRACT: note_on channel=1 note=49 velocity=0 time=0.00588235
EXTRACT: note_on channel=5 note=63 velocity=0 time=0
EXTRACT: note_on channel=1 note=66 velocity=0 time=0.002941175
EXTRACT: note_on channel=1 note=54 velocity=83 time=0
EXTRACT: note_on channel=5 note=59 velocity=84 time=0
EXTRACT: note_on channel=1 note=66 velocity=83 time=0.002941175
EXTRACT: note_on channel=2 note=75 velocity=58 time=0
EXTRACT: note_on channel=5 note=47 velocity=0 time=0
EXTRACT: note_on channel=2 note=73 velocity=0 time=0.002941175
EXTRACT: note_on channel=7 note=83 velocity=64 time=0
EXTRACT: note_on channel=5 note=63 velocity=80 time=0.002941175
EXTRACT: note_on channel=9 note=36 velocity=97 time=0
EXTRACT: note_on channel=9 note=35 velocity=97 time=0
EXTRACT: note_on channel=9 note=51 velocity=85 time=0
EXTRACT: note_on channel=9 note=53 velocity=55 time=0
EXTRACT: note_on channel=0 note=35 velocity=106 time=0.002941175
EXTRACT: note_on channel=1 note=59 velocity=83 time=0
EXTRACT: note_on channel=2 note=83 velocity=58 time=0
EXTRACT: note_on channel=2 note=82 velocity=0 time=0.002941175
EXTRACT: note_on channel=5 note=47 velocity=125 time=0
EXTRACT: note_on channel=7 note=82 velocity=0 time=0
EXTRACT: note_on channel=1 note=63 velocity=83 time=0.002941175
EXTRACT: note_on channel=1 note=47 velocity=73 time=0.00588235
EXTRACT: note_on channel=9 note=53 velocity=0 time=0.085294075
EXTRACT: note_on channel=9 note=51 velocity=0 time=0
EXTRACT: note_on channel=9 note=35 velocity=0 time=0.032352925
EXTRACT: note_on channel=9 note=36 velocity=0 time=0
EXTRACT: note_on channel=9 note=41 velocity=43 time=0.032352925
EXTRACT: note_on channel=9 note=41 velocity=0 time=0.13235287499999998
EXTRACT: note_on channel=9 note=51 velocity=85 time=0.055882325
EXTRACT: note_on channel=9 note=51 velocity=0 time=0.102941125
EXTRACT: note_on channel=0 note=35 velocity=0 time=0.02941175
EXTRACT: note_on channel=1 note=54 velocity=0 time=0.008823524999999999
EXTRACT: note_on channel=1 note=66 velocity=0 time=0.002941175
EXTRACT: note_on channel=1 note=59 velocity=0 time=0.008823524999999999
EXTRACT: note_on channel=1 note=63 velocity=0 time=0.00588235
EXTRACT: note_on channel=1 note=47 velocity=0 time=0.00588235
EXTRACT: note_on channel=1 note=63 velocity=69 time=0.002941175
EXTRACT: note_on channel=0 note=34 velocity=95 time=0.00588235
EXTRACT: note_on channel=1 note=59 velocity=69 time=0
EXTRACT: note_on channel=1 note=47 velocity=60 time=0.002941175
EXTRACT: note_on channel=9 note=38 velocity=81 time=0
EXTRACT: note_on channel=9 note=40 velocity=81 time=0
EXTRACT: note_on channel=1 note=54 velocity=69 time=0.0117647
EXTRACT: note_on channel=1 note=66 velocity=69 time=0
EXTRACT: note_on channel=9 note=40 velocity=0 time=0.12058817499999999
EXTRACT: note_on channel=9 note=38 velocity=0 time=0
EXTRACT: note_on channel=1 note=59 velocity=0 time=0.0117647
EXTRACT: note_on channel=1 note=47 velocity=0 time=0.002941175
EXTRACT: note_on channel=1 note=63 velocity=0 time=0.002941175
EXTRACT: note_on channel=1 note=59 velocity=80 time=0
EXTRACT: note_on channel=1 note=63 velocity=80 time=0.00588235
EXTRACT: note_on channel=1 note=47 velocity=69 time=0
EXTRACT: note_on channel=0 note=34 velocity=0 time=0.00588235
EXTRACT: note_on channel=1 note=66 velocity=0 time=0
EXTRACT: note_on channel=1 note=66 velocity=80 time=0.002941175
EXTRACT: note_on channel=9 note=36 velocity=90 time=0
EXTRACT: note_on channel=9 note=35 velocity=90 time=0
EXTRACT: note_on channel=1 note=54 velocity=0 time=0.00588235
EXTRACT: note_on channel=0 note=35 velocity=103 time=0.00588235
EXTRACT: note_on channel=9 note=51 velocity=88 time=0
EXTRACT: note_on channel=1 note=54 velocity=80 time=0.002941175
EXTRACT: note_on channel=9 note=51 velocity=0 time=0.0941176
EXTRACT: note_on channel=9 note=35 velocity=0 time=0.0235294
EXTRACT: note_on channel=9 note=36 velocity=0 time=0
EXTRACT: note_on channel=9 note=38 velocity=89 time=0.23235282499999999
EXTRACT: note_on channel=9 note=40 velocity=89 time=0
EXTRACT: note_on channel=9 note=41 velocity=57 time=0
EXTRACT: note_on channel=9 note=51 velocity=95 time=0
EXTRACT: note_on channel=9 note=53 velocity=63 time=0
EXTRACT: note_on channel=9 note=53 velocity=0 time=0.11176465
EXTRACT: note_on channel=9 note=51 velocity=0 time=0
EXTRACT: note_on channel=9 note=38 velocity=0 time=0.020588224999999998
EXTRACT: note_on channel=9 note=40 velocity=0 time=0
EXTRACT: note_on channel=9 note=41 velocity=0 time=0
EXTRACT: note_on channel=1 note=63 velocity=0 time=0.0235294
EXTRACT: note_on channel=1 note=59 velocity=0 time=0.002941175
EXTRACT: note_on channel=1 note=66 velocity=0 time=0.00588235
EXTRACT: note_on channel=1 note=54 velocity=0 time=0.002941175
EXTRACT: note_on channel=1 note=59 velocity=66 time=0
EXTRACT: note_on channel=1 note=63 velocity=66 time=0
EXTRACT: note_on channel=1 note=47 velocity=0 time=0.002941175
EXTRACT: note_on channel=1 note=54 velocity=66 time=0.00588235
EXTRACT: note_on channel=1 note=66 velocity=66 time=0
EXTRACT: note_on channel=1 note=47 velocity=57 time=0.0117647
EXTRACT: note_on channel=0 note=35 velocity=0 time=0.10882347499999999
EXTRACT: note_on channel=7 note=82 velocity=64 time=0.00588235
EXTRACT: note_on channel=1 note=59 velocity=0 time=0.017647049999999997
EXTRACT: note_on channel=1 note=47 velocity=0 time=0.002941175
EXTRACT: note_on channel=1 note=59 velocity=76 time=0
EXTRACT: note_on channel=1 note=47 velocity=67 time=0
EXTRACT: note_on channel=1 note=63 velocity=0 time=0.008823524999999999
EXTRACT: note_on channel=1 note=66 velocity=0 time=0.00588235
EXTRACT: note_on channel=1 note=54 velocity=0 time=0.002941175
EXTRACT: note_on channel=1 note=66 velocity=76 time=0
EXTRACT: note_on channel=1 note=63 velocity=76 time=0
EXTRACT: note_on channel=1 note=54 velocity=76 time=0.00588235
EXTRACT: note_on channel=9 note=51 velocity=85 time=0.00588235
EXTRACT: note_on channel=0 note=35 velocity=110 time=0.002941175
EXTRACT: note_on channel=7 note=83 velocity=0 time=0.02941175
EXTRACT: note_on channel=9 note=51 velocity=0 time=0.067647025
EXTRACT: note_on channel=7 note=82 velocity=0 time=0.020588224999999998
EXTRACT: note_on channel=0 note=35 velocity=0 time=0.0117647
EXTRACT: note_on channel=5 note=63 velocity=0 time=0
EXTRACT: note_on channel=7 note=80 velocity=64 time=0
EXTRACT: note_on channel=5 note=59 velocity=0 time=0.017647049999999997
EXTRACT: note_on channel=5 note=47 velocity=0 time=0.017647049999999997
EXTRACT: note_on channel=5 note=61 velocity=80 time=0.002941175
EXTRACT: note_on channel=0 note=35 velocity=110 time=0.002941175
EXTRACT: note_on channel=5 note=58 velocity=80 time=0.05294115
EXTRACT: note_on channel=7 note=80 velocity=0 time=0.026470575
EXTRACT: note_on channel=5 note=42 velocity=80 time=0.026470575
EXTRACT: note_on channel=1 note=59 velocity=0 time=0.032352925
EXTRACT: note_on channel=1 note=47 velocity=0 time=0
EXTRACT: note_on channel=0 note=35 velocity=0 time=0.00588235
EXTRACT: note_on channel=7 note=82 velocity=64 time=0.00588235
EXTRACT: note_on channel=1 note=63 velocity=0 time=0.00588235
EXTRACT: note_on channel=1 note=66 velocity=0 time=0
EXTRACT: note_on channel=5 note=58 velocity=0 time=0.002941175
EXTRACT: note_on channel=1 note=54 velocity=0 time=0.002941175
EXTRACT: note_on channel=1 note=66 velocity=87 time=0
EXTRACT: note_on channel=1 note=42 velocity=76 time=0.002941175
EXTRACT: note_on channel=5 note=61 velocity=0 time=0.002941175
EXTRACT: note_on channel=5 note=58 velocity=84 time=0
EXTRACT: note_on channel=0 note=30 velocity=106 time=0.00588235
EXTRACT: note_on channel=1 note=61 velocity=87 time=0
EXTRACT: note_on channel=2 note=82 velocity=58 time=0
EXTRACT: note_on channel=5 note=61 velocity=80 time=0
EXTRACT: note_on channel=2 note=73 velocity=58 time=0.00588235
EXTRACT: note_on channel=9 note=36 velocity=90 time=0
EXTRACT: note_on channel=9 note=51 velocity=82 time=0
EXTRACT: note_on channel=9 note=35 velocity=90 time=0
EXTRACT: note_on channel=1 note=54 velocity=87 time=0.002941175
EXTRACT: note_on channel=5 note=42 velocity=0 time=0.002941175
EXTRACT: note_on channel=1 note=49 velocity=76 time=0.002941175
EXTRACT: note_on channel=5 note=42 velocity=125 time=0.002941175
EXTRACT: note_on channel=2 note=83 velocity=0 time=0.026470575
EXTRACT: note_on channel=2 note=75 velocity=0 time=0.038235275
EXTRACT: note_on channel=7 note=82 velocity=0 time=0.008823524999999999
EXTRACT: note_on channel=9 note=35 velocity=0 time=0.0470588
EXTRACT: note_on channel=9 note=51 velocity=0 time=0
EXTRACT: note_on channel=9 note=36 velocity=0 time=0
EXTRACT: note_on channel=7 note=82 velocity=64 time=0.19411755
EXTRACT: note_on channel=9 note=51 velocity=85 time=0.026470575
EXTRACT: note_on channel=9 note=51 velocity=0 time=0.06470585
EXTRACT: note_on channel=0 note=30 velocity=0 time=0.06470585
EXTRACT: note_on channel=1 note=66 velocity=0 time=0.014705875
EXTRACT: note_on channel=1 note=42 velocity=0 time=0.002941175
EXTRACT: note_on channel=1 note=61 velocity=0 time=0.008823524999999999
EXTRACT: note_on channel=1 note=61 velocity=72 time=0.00588235
EXTRACT: note_on channel=1 note=54 velocity=0 time=0.002941175
EXTRACT: note_on channel=1 note=66 velocity=72 time=0
EXTRACT: note_on channel=1 note=42 velocity=63 time=0.002941175
EXTRACT: note_on channel=1 note=49 velocity=0 time=0.002941175
EXTRACT: note_on channel=0 note=30 velocity=95 time=0.002941175
EXTRACT: note_on channel=9 note=35 velocity=90 time=0.002941175
EXTRACT: note_on channel=9 note=36 velocity=90 time=0
EXTRACT: note_on channel=1 note=49 velocity=63 time=0.008823524999999999
EXTRACT: note_on channel=1 note=54 velocity=72 time=0
EXTRACT: note_on channel=9 note=36 velocity=0 time=0.12352935
EXTRACT: note_on channel=9 note=35 velocity=0 time=0
EXTRACT: note_on channel=7 note=82 velocity=0 time=0.00588235
EXTRACT: note_on channel=1 note=54 velocity=0 time=0.0117647
EXTRACT: note_on channel=1 note=61 velocity=0 time=0.002941175
EXTRACT: note_on channel=0 note=30 velocity=0 time=0.002941175
EXTRACT: note_on channel=1 note=54 velocity=84 time=0
EXTRACT: note_on channel=1 note=61 velocity=84 time=0
EXTRACT: note_on channel=1 note=66 velocity=0 time=0
EXTRACT: note_on channel=1 note=42 velocity=0 time=0.002941175
EXTRACT: note_on channel=9 note=38 velocity=89 time=0.00588235
EXTRACT: note_on channel=9 note=40 velocity=89 time=0
EXTRACT: note_on channel=1 note=49 velocity=0 time=0.002941175
EXTRACT: note_on channel=1 note=42 velocity=73 time=0
EXTRACT: note_on channel=0 note=30 velocity=95 time=0.002941175
EXTRACT: note_on channel=1 note=49 velocity=73 time=0
EXTRACT: note_on channel=7 note=82 velocity=64 time=0.002941175
EXTRACT: note_on channel=1 note=66 velocity=84 time=0.002941175
EXTRACT: note_on channel=9 note=35 velocity=90 time=0
EXTRACT: note_on channel=9 note=36 velocity=90 time=0
EXTRACT: note_on channel=9 note=41 velocity=51 time=0
EXTRACT: note_on channel=9 note=51 velocity=95 time=0
EXTRACT: note_on channel=9 note=51 velocity=0 time=0.0941176
EXTRACT: note_on channel=9 note=38 velocity=0 time=0.026470575
EXTRACT: note_on channel=9 note=40 velocity=0 time=0
EXTRACT: note_on channel=9 note=36 velocity=0 time=0.0117647
EXTRACT: note_on channel=9 note=41 velocity=0 time=0
EXTRACT: note_on channel=9 note=35 velocity=0 time=0
EXTRACT: note_on channel=5 note=61 velocity=0 time=0.008823524999999999
EXTRACT: note_on channel=5 note=58 velocity=0 time=0.00588235
EXTRACT: note_on channel=5 note=42 velocity=0 time=0.0117647
EXTRACT: note_on channel=5 note=63 velocity=80 time=0.0117647
EXTRACT: note_on channel=5 note=59 velocity=80 time=0.035294099999999995
EXTRACT: note_on channel=7 note=82 velocity=0 time=0.0235294
EXTRACT: note_on channel=5 note=44 velocity=80 time=0.017647049999999997
EXTRACT: note_on channel=7 note=83 velocity=64 time=0.032352925
EXTRACT: note_on channel=0 note=30 velocity=0 time=0.044117625
EXTRACT: note_on channel=1 note=54 velocity=0 time=0.0117647
EXTRACT: note_on channel=1 note=61 velocity=0 time=0
EXTRACT: note_on channel=5 note=44 velocity=0 time=0
EXTRACT: note_on channel=5 note=59 velocity=0 time=0
EXTRACT: note_on channel=2 note=82 velocity=0 time=0.00588235
EXTRACT: note_on channel=5 note=63 velocity=0 time=0
EXTRACT: note_on channel=1 note=66 velocity=0 time=0.002941175
EXTRACT: note_on channel=1 note=51 velocity=83 time=0
EXTRACT: note_on channel=5 note=59 velocity=84 time=0
EXTRACT: note_on channel=1 note=42 velocity=0 time=0.002941175
EXTRACT: note_on channel=1 note=66 velocity=83 time=0
EXTRACT: note_on channel=2 note=80 velocity=58 time=0
EXTRACT: note_on channel=2 note=71 velocity=58 time=0.002941175
EXTRACT: note_on channel=0 note=32 velocity=106 time=0.002941175
EXTRACT: note_on channel=1 note=49 velocity=0 time=0
EXTRACT: note_on channel=5 note=63 velocity=80 time=0
EXTRACT: note_on channel=9 note=36 velocity=97 time=0
EXTRACT: note_on channel=9 note=35 velocity=97 time=0
EXTRACT: note_on channel=9 note=51 velocity=85 time=0
EXTRACT: note_on channel=9 note=53 velocity=55 time=0
EXTRACT: note_on channel=1 note=59 velocity=83 time=0.002941175
EXTRACT: note_on channel=5 note=44 velocity=125 time=0.002941175
EXTRACT: note_on channel=1 note=63 velocity=83 time=0.002941175
EXTRACT: note_on channel=2 note=73 velocity=0 time=0
EXTRACT: note_on channel=1 note=44 velocity=73 time=0.00588235
EXTRACT: note_on channel=9 note=53 velocity=0 time=0.085294075
EXTRACT: note_on channel=9 note=51 velocity=0 time=0
EXTRACT: note_on channel=9 note=35 velocity=0 time=0.032352925
EXTRACT: note_on channel=9 note=36 velocity=0 time=0
EXTRACT: note_on channel=9 note=41 velocity=43 time=0.032352925
EXTRACT: note_on channel=9 note=41 velocity=0 time=0.13235287499999998
EXTRACT: note_on channel=9 note=51 velocity=85 time=0.055882325
EXTRACT: note_on channel=9 note=51 velocity=0 time=0.102941125
EXTRACT: note_on channel=0 note=32 velocity=0 time=0.02941175
EXTRACT: note_on channel=1 note=51 velocity=0 time=0.008823524999999999
EXTRACT: note_on channel=1 note=66 velocity=0 time=0.002941175
EXTRACT: note_on channel=1 note=59 velocity=0 time=0.008823524999999999
EXTRACT: note_on channel=1 note=63 velocity=0 time=0.00588235
EXTRACT: note_on channel=1 note=44 velocity=0 time=0.00588235
EXTRACT: note_on channel=1 note=63 velocity=69 time=0.002941175
EXTRACT: note_on channel=0 note=30 velocity=95 time=0.00588235
EXTRACT: note_on channel=1 note=59 velocity=69 time=0
EXTRACT: note_on channel=1 note=44 velocity=60 time=0.002941175
EXTRACT: note_on channel=9 note=38 velocity=81 time=0
EXTRACT: note_on channel=9 note=40 velocity=81 time=0
EXTRACT: note_on channel=1 note=51 velocity=69 time=0.0117647
EXTRACT: note_on channel=1 note=66 velocity=69 time=0
EXTRACT: note_on channel=9 note=40 velocity=0 time=0.12058817499999999
EXTRACT: note_on channel=9 note=38 velocity=0 time=0
EXTRACT: note_on channel=1 note=59 velocity=0 time=0.008823524999999999
EXTRACT: note_on channel=1 note=44 velocity=0 time=0.002941175
EXTRACT: note_on channel=1 note=63 velocity=0 time=0.00588235
EXTRACT: note_on channel=1 note=59 velocity=80 time=0
EXTRACT: note_on channel=1 note=63 velocity=80 time=0.00588235
EXTRACT: note_on channel=1 note=44 velocity=69 time=0
EXTRACT: note_on channel=0 note=30 velocity=0 time=0.002941175
EXTRACT: note_on channel=1 note=66 velocity=0 time=0
EXTRACT: note_on channel=1 note=66 velocity=80 time=0.00588235
EXTRACT: note_on channel=9 note=36 velocity=90 time=0
EXTRACT: note_on channel=9 note=35 velocity=90 time=0
EXTRACT: note_on channel=1 note=51 velocity=0 time=0.00588235
EXTRACT: note_on channel=0 note=32 velocity=103 time=0.002941175
EXTRACT: note_on channel=7 note=83 velocity=0 time=0
EXTRACT: note_on channel=9 note=51 velocity=88 time=0.002941175
EXTRACT: note_on channel=1 note=51 velocity=80 time=0.002941175
EXTRACT: note_on channel=9 note=51 velocity=0 time=0.0941176
EXTRACT: note_on channel=9 note=35 velocity=0 time=0.0235294
EXTRACT: note_on channel=9 note=36 velocity=0 time=0
EXTRACT: note_on channel=9 note=38 velocity=89 time=0.23235282499999999
EXTRACT: note_on channel=9 note=40 velocity=89 time=0
EXTRACT: note_on channel=9 note=41 velocity=57 time=0
EXTRACT: note_on channel=9 note=51 velocity=95 time=0
EXTRACT: note_on channel=9 note=53 velocity=63 time=0
EXTRACT: note_on channel=9 note=53 velocity=0 time=0.11176465
EXTRACT: note_on channel=9 note=51 velocity=0 time=0
EXTRACT: note_on channel=9 note=38 velocity=0 time=0.020588224999999998
EXTRACT: note_on channel=9 note=40 velocity=0 time=0
EXTRACT: note_on channel=9 note=41 velocity=0 time=0
EXTRACT: note_on channel=1 note=63 velocity=0 time=0.02941175
EXTRACT: note_on channel=1 note=59 velocity=0 time=0
EXTRACT: note_on channel=1 note=59 velocity=66 time=0.00588235
EXTRACT: note_on channel=1 note=63 velocity=66 time=0
EXTRACT: note_on channel=1 note=66 velocity=0 time=0
EXTRACT: note_on channel=1 note=44 velocity=0 time=0.002941175
EXTRACT: note_on channel=1 note=51 velocity=0 time=0
EXTRACT: note_on channel=1 note=51 velocity=66 time=0.00588235
EXTRACT: note_on channel=1 note=66 velocity=66 time=0
EXTRACT: note_on channel=1 note=44 velocity=57 time=0.0117647
EXTRACT: note_on channel=0 note=32 velocity=0 time=0.1058823
EXTRACT: note_on channel=1 note=59 velocity=0 time=0.026470575
EXTRACT: note_on channel=1 note=44 velocity=0 time=0
EXTRACT: note_on channel=1 note=59 velocity=76 time=0.002941175
EXTRACT: note_on channel=1 note=44 velocity=67 time=0
EXTRACT: note_on channel=1 note=63 velocity=0 time=0.008823524999999999
EXTRACT: note_on channel=1 note=66 velocity=0 time=0.002941175
EXTRACT: note_on channel=1 note=51 velocity=0 time=0.00588235
EXTRACT: note_on channel=1 note=66 velocity=76 time=0
EXTRACT: note_on channel=1 note=63 velocity=76 time=0
EXTRACT: note_on channel=1 note=51 velocity=76 time=0.00588235
EXTRACT: note_on channel=0 note=32 velocity=110 time=0.00588235
EXTRACT: note_on channel=9 note=51 velocity=85 time=0
EXTRACT: note_on channel=9 note=51 velocity=0 time=0.09999994999999999
EXTRACT: note_on channel=0 note=32 velocity=0 time=0.032352925
EXTRACT: note_on channel=5 note=44 velocity=0 time=0.017647049999999997
EXTRACT: note_on channel=5 note=59 velocity=0 time=0.002941175
EXTRACT: note_on channel=5 note=63 velocity=0 time=0.0117647
EXTRACT: note_on channel=5 note=64 velocity=80 time=0.00588235
EXTRACT: note_on channel=0 note=32 velocity=110 time=0.00588235
EXTRACT: note_on channel=5 note=61 velocity=80 time=0.049999974999999995
EXTRACT: note_on channel=2 note=78 velocity=0 time=0.0235294
EXTRACT: note_on channel=5 note=45 velocity=80 time=0.02941175
EXTRACT: note_on channel=2 note=80 velocity=0 time=0.014705875
EXTRACT: note_on channel=1 note=59 velocity=0 time=0.017647049999999997
EXTRACT: note_on channel=1 note=44 velocity=0 time=0
EXTRACT: note_on channel=2 note=71 velocity=0 time=0
EXTRACT: note_on channel=1 note=63 velocity=0 time=0.017647049999999997
EXTRACT: note_on channel=1 note=66 velocity=0 time=0
EXTRACT: note_on channel=5 note=61 velocity=0 time=0.002941175
EXTRACT: note_on channel=1 note=51 velocity=0 time=0.002941175
EXTRACT: note_on channel=1 note=64 velocity=87 time=0
EXTRACT: note_on channel=0 note=32 velocity=0 time=0.002941175
EXTRACT: note_on channel=1 note=45 velocity=76 time=0
EXTRACT: note_on channel=5 note=64 velocity=0 time=0.002941175
EXTRACT: note_on channel=5 note=61 velocity=84 time=0
EXTRACT: note_on channel=1 note=61 velocity=87 time=0.00588235
EXTRACT: note_on channel=2 note=76 velocity=58 time=0
EXTRACT: note_on channel=5 note=64 velocity=80 time=0
EXTRACT: note_on channel=0 note=33 velocity=104 time=0.002941175
EXTRACT: note_on channel=7 note=83 velocity=64 time=0
EXTRACT: note_on channel=2 note=73 velocity=58 time=0.002941175
EXTRACT: note_on channel=2 note=81 velocity=58 time=0
EXTRACT: note_on channel=9 note=36 velocity=90 time=0
EXTRACT: note_on channel=9 note=51 velocity=82 time=0
EXTRACT: note_on channel=9 note=35 velocity=90 time=0
EXTRACT: note_on channel=1 note=57 velocity=87 time=0.002941175
EXTRACT: note_on channel=5 note=45 velocity=0 time=0.002941175
EXTRACT: note_on channel=1 note=52 velocity=76 time=0.002941175
EXTRACT: note_on channel=5 note=45 velocity=125 time=0.002941175
EXTRACT: note_on channel=7 note=85 velocity=64 time=0
EXTRACT: note_on channel=7 note=83 velocity=0 time=0.09117642499999999
EXTRACT: note_on channel=9 note=35 velocity=0 time=0.02941175
EXTRACT: note_on channel=9 note=51 velocity=0 time=0
EXTRACT: note_on channel=9 note=36 velocity=0 time=0
EXTRACT: note_on channel=0 note=32 velocity=104 time=0.220588125
EXTRACT: note_on channel=7 note=83 velocity=64 time=0
EXTRACT: note_on channel=9 note=51 velocity=85 time=0
EXTRACT: note_on channel=9 note=53 velocity=59 time=0.017647049999999997
EXTRACT: note_on channel=0 note=33 velocity=0 time=0.008823524999999999
EXTRACT: note_on channel=7 note=85 velocity=0 time=0
EXTRACT: note_on channel=9 note=51 velocity=0 time=0.038235275
EXTRACT: note_on channel=1 note=64 velocity=0 time=0.067647025
EXTRACT: note_on channel=1 note=45 velocity=0 time=0.00588235
EXTRACT: note_on channel=1 note=61 velocity=0 time=0.008823524999999999
EXTRACT: note_on channel=9 note=53 velocity=0 time=0.002941175
EXTRACT: note_on channel=1 note=57 velocity=0 time=0.00588235
EXTRACT: note_on channel=1 note=52 velocity=0 time=0.002941175
EXTRACT: note_on channel=1 note=61 velocity=72 time=0.002941175
EXTRACT: note_on channel=1 note=64 velocity=72 time=0.002941175
EXTRACT: note_on channel=1 note=45 velocity=63 time=0.002941175
EXTRACT: note_on channel=9 note=35 velocity=90 time=0.008823524999999999
EXTRACT: note_on channel=9 note=36 velocity=90 time=0
EXTRACT: note_on channel=1 note=52 velocity=63 time=0.008823524999999999
EXTRACT: note_on channel=1 note=57 velocity=72 time=0
EXTRACT: note_on channel=9 note=36 velocity=0 time=0.12352935
EXTRACT: note_on channel=9 note=35 velocity=0 time=0
EXTRACT: note_on channel=1 note=57 velocity=0 time=0.014705875
EXTRACT: note_on channel=1 note=61 velocity=0 time=0.00588235
EXTRACT: note_on channel=1 note=57 velocity=84 time=0.002941175
EXTRACT: note_on channel=1 note=61 velocity=84 time=0
EXTRACT: note_on channel=1 note=64 velocity=0 time=0
EXTRACT: note_on channel=1 note=45 velocity=0 time=0.002941175
EXTRACT: note_on channel=1 note=52 velocity=0 time=0.002941175
EXTRACT: note_on channel=7 note=81 velocity=64 time=0
EXTRACT: note_on channel=9 note=38 velocity=89 time=0.002941175
EXTRACT: note_on channel=9 note=40 velocity=89 time=0
EXTRACT: note_on channel=1 note=45 velocity=73 time=0.002941175
EXTRACT: note_on channel=1 note=52 velocity=73 time=0.002941175
EXTRACT: note_on channel=0 note=30 velocity=104 time=0.002941175
EXTRACT: note_on channel=1 note=64 velocity=84 time=0.002941175
EXTRACT: note_on channel=9 note=35 velocity=90 time=0
EXTRACT: note_on channel=9 note=36 velocity=90 time=0
EXTRACT: note_on channel=9 note=41 velocity=51 time=0
EXTRACT: note_on channel=9 note=51 velocity=95 time=0
EXTRACT: note_on channel=0 note=32 velocity=0 time=0.014705875
EXTRACT: note_on channel=7 note=83 velocity=0 time=0.041176449999999996
EXTRACT: note_on channel=9 note=51 velocity=0 time=0.038235275
EXTRACT: note_on channel=9 note=38 velocity=0 time=0.026470575
EXTRACT: note_on channel=9 note=40 velocity=0 time=0
EXTRACT: note_on channel=9 note=36 velocity=0 time=0.0117647
EXTRACT: note_on channel=9 note=41 velocity=0 time=0
EXTRACT: note_on channel=9 note=35 velocity=0 time=0
EXTRACT: note_on channel=5 note=64 velocity=0 time=0.008823524999999999
EXTRACT: note_on channel=5 note=61 velocity=0 time=0.02941175
EXTRACT: note_on channel=5 note=64 velocity=80 time=0
EXTRACT: note_on channel=5 note=45 velocity=0 time=0.02941175
EXTRACT: note_on channel=5 note=56 velocity=80 time=0.00588235
EXTRACT: note_on channel=5 note=40 velocity=80 time=0.041176449999999996
EXTRACT: note_on channel=1 note=61 velocity=0 time=0.07647055
EXTRACT: note_on channel=1 note=57 velocity=0 time=0
EXTRACT: note_on channel=1 note=45 velocity=0 time=0.0117647
EXTRACT: note_on channel=5 note=40 velocity=0 time=0
EXTRACT: note_on channel=5 note=56 velocity=0 time=0
EXTRACT: note_on channel=0 note=30 velocity=0 time=0.00588235
EXTRACT: note_on channel=1 note=52 velocity=0 time=0
EXTRACT: note_on channel=5 note=64 velocity=0 time=0
EXTRACT: note_on channel=1 note=64 velocity=0 time=0.002941175
EXTRACT: note_on channel=1 note=47 velocity=86 time=0
EXTRACT: note_on channel=5 note=56 velocity=84 time=0
EXTRACT: note_on channel=1 note=64 velocity=86 time=0.002941175
EXTRACT: note_on channel=2 note=80 velocity=58 time=0
EXTRACT: note_on channel=7 note=81 velocity=0 time=0
EXTRACT: note_on channel=2 note=81 velocity=0 time=0.002941175
EXTRACT: note_on channel=2 note=71 velocity=58 time=0
EXTRACT: note_on channel=0 note=28 velocity=104 time=0.002941175
EXTRACT: note_on channel=5 note=64 velocity=80 time=0
EXTRACT: note_on channel=9 note=36 velocity=97 time=0
EXTRACT: note_on channel=9 note=35 velocity=97 time=0
EXTRACT: note_on channel=9 note=51 velocity=85 time=0
EXTRACT: note_on channel=9 note=53 velocity=55 time=0
EXTRACT: note_on channel=1 note=52 velocity=86 time=0.002941175
EXTRACT: note_on channel=5 note=40 velocity=125 time=0.002941175
EXTRACT: note_on channel=1 note=59 velocity=86 time=0.002941175
EXTRACT: note_on channel=1 note=40 velocity=76 time=0.00588235
EXTRACT: note_on channel=7 note=83 velocity=64 time=0
EXTRACT: note_on channel=2 note=73 velocity=0 time=0.05294115
EXTRACT: note_on channel=9 note=53 velocity=0 time=0.032352925
EXTRACT: note_on channel=9 note=51 velocity=0 time=0
EXTRACT: note_on channel=9 note=35 velocity=0 time=0.032352925
EXTRACT: note_on channel=9 note=36 velocity=0 time=0
EXTRACT: note_on channel=9 note=41 velocity=43 time=0.032352925
EXTRACT: note_on channel=9 note=41 velocity=0 time=0.13235287499999998
EXTRACT: note_on channel=9 note=51 velocity=85 time=0.055882325
EXTRACT: note_on channel=9 note=51 velocity=0 time=0.102941125
EXTRACT: note_on channel=1 note=47 velocity=0 time=0.038235275
EXTRACT: note_on channel=1 note=64 velocity=0 time=0.002941175
EXTRACT: note_on channel=1 note=52 velocity=0 time=0.008823524999999999
EXTRACT: note_on channel=1 note=59 velocity=0 time=0.00588235
EXTRACT: note_on channel=1 note=40 velocity=0 time=0.00588235
EXTRACT: note_on channel=1 note=59 velocity=77 time=0.002941175
EXTRACT: note_on channel=1 note=52 velocity=77 time=0.00588235
EXTRACT: note_on channel=1 note=40 velocity=67 time=0.002941175
EXTRACT: note_on channel=9 note=38 velocity=81 time=0
EXTRACT: note_on channel=9 note=40 velocity=81 time=0
EXTRACT: note_on channel=1 note=47 velocity=77 time=0.0117647
EXTRACT: note_on channel=1 note=64 velocity=77 time=0
EXTRACT: note_on channel=9 note=40 velocity=0 time=0.12058817499999999
EXTRACT: note_on channel=9 note=38 velocity=0 time=0
EXTRACT: note_on channel=1 note=52 velocity=0 time=0.008823524999999999
EXTRACT: note_on channel=1 note=40 velocity=0 time=0.002941175
EXTRACT: note_on channel=1 note=59 velocity=0 time=0.00588235
EXTRACT: note_on channel=1 note=52 velocity=78 time=0
EXTRACT: note_on channel=1 note=59 velocity=78 time=0.00588235
EXTRACT: note_on channel=1 note=40 velocity=67 time=0
EXTRACT: note_on channel=1 note=64 velocity=0 time=0.002941175
EXTRACT: note_on channel=1 note=64 velocity=78 time=0.00588235
EXTRACT: note_on channel=9 note=36 velocity=90 time=0
EXTRACT: note_on channel=9 note=35 velocity=90 time=0
EXTRACT: note_on channel=1 note=47 velocity=0 time=0.00588235
EXTRACT: note_on channel=9 note=51 velocity=88 time=0.00588235
EXTRACT: note_on channel=1 note=47 velocity=78 time=0.002941175
EXTRACT: note_on channel=9 note=51 velocity=0 time=0.0941176
EXTRACT: note_on channel=9 note=35 velocity=0 time=0.0235294
EXTRACT: note_on channel=9 note=36 velocity=0 time=0
EXTRACT: note_on channel=0 note=39 velocity=102 time=0.22941165
EXTRACT: note_on channel=9 note=38 velocity=89 time=0.002941175
EXTRACT: note_on channel=9 note=40 velocity=89 time=0
EXTRACT: note_on channel=9 note=41 velocity=57 time=0
EXTRACT: note_on channel=9 note=51 velocity=95 time=0
EXTRACT: note_on channel=9 note=53 velocity=63 time=0
EXTRACT: note_on channel=0 note=28 velocity=0 time=0.026470575
EXTRACT: pitchwheel channel=0 pitch=381 time=0.035294099999999995
EXTRACT: pitchwheel channel=0 pitch=763 time=0.014705875
EXTRACT: pitchwheel channel=0 pitch=1528 time=0.017647049999999997
EXTRACT: pitchwheel channel=0 pitch=2293 time=0.014705875
EXTRACT: note_on channel=9 note=53 velocity=0 time=0.002941175
EXTRACT: note_on channel=9 note=51 velocity=0 time=0
EXTRACT: pitchwheel channel=0 pitch=2676 time=0.0117647
EXTRACT: note_on channel=9 note=38 velocity=0 time=0.008823524999999999
EXTRACT: note_on channel=9 note=40 velocity=0 time=0
EXTRACT: note_on channel=9 note=41 velocity=0 time=0
EXTRACT: pitchwheel channel=0 pitch=3058 time=0.00588235
EXTRACT: note_on channel=7 note=80 velocity=64 time=0.014705875
EXTRACT: note_on channel=1 note=59 velocity=0 time=0.00588235
EXTRACT: note_on channel=1 note=52 velocity=0 time=0
EXTRACT: note_on channel=1 note=64 velocity=0 time=0.008823524999999999
EXTRACT: note_on channel=1 note=52 velocity=59 time=0
EXTRACT: note_on channel=1 note=59 velocity=59 time=0
EXTRACT: note_on channel=1 note=40 velocity=0 time=0
EXTRACT: note_on channel=1 note=47 velocity=0 time=0.002941175
EXTRACT: note_on channel=7 note=83 velocity=0 time=0
EXTRACT: note_on channel=1 note=47 velocity=59 time=0.00588235
EXTRACT: note_on channel=1 note=64 velocity=59 time=0
EXTRACT: note_on channel=1 note=40 velocity=52 time=0.0117647
EXTRACT: pitchwheel channel=0 pitch=3441 time=0.014705875
EXTRACT: note_on channel=1 note=47 velocity=0 time=0.0588235
EXTRACT: pitchwheel channel=0 pitch=3826 time=0.002941175
EXTRACT: note_on channel=1 note=52 velocity=0 time=0.0117647
EXTRACT: note_on channel=1 note=40 velocity=0 time=0.002941175
EXTRACT: note_on channel=7 note=80 velocity=0 time=0.002941175
EXTRACT: note_on channel=1 note=59 velocity=0 time=0.00588235
EXTRACT: note_on channel=1 note=64 velocity=0 time=0.00588235
EXTRACT: note_on channel=1 note=52 velocity=74 time=0.02941175
EXTRACT: note_on channel=1 note=40 velocity=65 time=0
EXTRACT: note_on channel=1 note=64 velocity=74 time=0.017647049999999997
EXTRACT: note_on channel=1 note=59 velocity=74 time=0
EXTRACT: note_on channel=7 note=83 velocity=64 time=0
EXTRACT: note_on channel=1 note=47 velocity=74 time=0.00588235
EXTRACT: note_on channel=9 note=51 velocity=85 time=0.00588235
EXTRACT: note_on channel=9 note=51 velocity=0 time=0.09999994999999999
EXTRACT: pitchwheel channel=0 pitch=2948 time=0.0470588
EXTRACT: note_on channel=5 note=40 velocity=0 time=0.002941175
EXTRACT: note_on channel=5 note=56 velocity=0 time=0.002941175
EXTRACT: pitchwheel channel=0 pitch=2620 time=0.008823524999999999
EXTRACT: note_on channel=5 note=64 velocity=0 time=0.002941175
EXTRACT: note_on channel=5 note=61 velocity=80 time=0.00588235
EXTRACT: pitchwheel channel=0 pitch=1965 time=0.00588235
EXTRACT: pitchwheel channel=0 pitch=1309 time=0.0235294
EXTRACT: pitchwheel channel=0 pitch=982 time=0.008823524999999999
EXTRACT: pitchwheel channel=0 pitch=654 time=0.014705875
EXTRACT: note_on channel=5 note=58 velocity=80 time=0.002941175
EXTRACT: pitchwheel channel=0 pitch=327 time=0.0117647
EXTRACT: note_on channel=7 note=82 velocity=64 time=0.00588235
EXTRACT: pitchwheel channel=0 pitch=0 time=0.0117647
EXTRACT: note_on channel=5 note=42 velocity=80 time=0.0235294
EXTRACT: note_on channel=7 note=83 velocity=0 time=0.002941175
EXTRACT: note_on channel=1 note=40 velocity=0 time=0.014705875
EXTRACT: note_on channel=1 note=52 velocity=0 time=0
EXTRACT: note_on channel=1 note=59 velocity=0 time=0.017647049999999997
EXTRACT: note_on channel=1 note=64 velocity=0 time=0
EXTRACT: note_on channel=1 note=47 velocity=0 time=0.00588235
EXTRACT: note_on channel=2 note=80 velocity=0 time=0.002941175
EXTRACT: pitchwheel channel=0 pitch=0 time=0.00588235
EXTRACT: note_on channel=5 note=58 velocity=0 time=0.002941175
EXTRACT: note_on channel=1 note=66 velocity=87 time=0.002941175
EXTRACT: note_on channel=1 note=42 velocity=76 time=0.002941175
EXTRACT: note_on channel=5 note=61 velocity=0 time=0.002941175
EXTRACT: note_on channel=5 note=58 velocity=84 time=0
EXTRACT: note_on channel=1 note=61 velocity=87 time=0.00588235
EXTRACT: note_on channel=2 note=82 velocity=58 time=0
EXTRACT: note_on channel=5 note=61 velocity=80 time=0
EXTRACT: note_on channel=0 note=30 velocity=104 time=0.00588235
EXTRACT: note_on channel=9 note=36 velocity=90 time=0
EXTRACT: note_on channel=9 note=51 velocity=82 time=0
EXTRACT: note_on channel=9 note=35 velocity=90 time=0
EXTRACT: note_on channel=0 note=39 velocity=0 time=0.002941175
EXTRACT: note_on channel=1 note=54 velocity=87 time=0
EXTRACT: note_on channel=2 note=73 velocity=58 time=0
EXTRACT: note_on channel=2 note=78 velocity=58 time=0
EXTRACT: note_on channel=5 note=42 velocity=0 time=0.002941175
EXTRACT: note_on channel=1 note=49 velocity=76 time=0.002941175
EXTRACT: note_on channel=5 note=42 velocity=125 time=0.002941175
EXTRACT: note_on channel=2 note=71 velocity=0 time=0.014705875
EXTRACT: note_on channel=2 note=76 velocity=0 time=0.020588224999999998
EXTRACT: note_on channel=9 note=35 velocity=0 time=0.085294075
EXTRACT: note_on channel=9 note=51 velocity=0 time=0
EXTRACT: note_on channel=9 note=36 velocity=0 time=0
EXTRACT: note_on channel=9 note=51 velocity=85 time=0.220588125
EXTRACT: note_on channel=9 note=51 velocity=0 time=0.06470585
EXTRACT: note_on channel=1 note=66 velocity=0 time=0.079411725
EXTRACT: note_on channel=1 note=42 velocity=0 time=0.002941175
EXTRACT: note_on channel=1 note=61 velocity=0 time=0.008823524999999999
EXTRACT: note_on channel=1 note=61 velocity=72 time=0.00588235
EXTRACT: note_on channel=1 note=54 velocity=0 time=0.002941175
EXTRACT: note_on channel=1 note=66 velocity=72 time=0
EXTRACT: note_on channel=0 note=30 velocity=0 time=0.002941175
EXTRACT: note_on channel=1 note=42 velocity=63 time=0
EXTRACT: note_on channel=1 note=49 velocity=0 time=0.002941175
EXTRACT: note_on channel=0 note=30 velocity=104 time=0.002941175
EXTRACT: note_on channel=9 note=35 velocity=90 time=0.002941175
EXTRACT: note_on channel=9 note=36 velocity=90 time=0
EXTRACT: note_on channel=1 note=49 velocity=63 time=0.008823524999999999
EXTRACT: note_on channel=1 note=54 velocity=72 time=0
EXTRACT: note_on channel=0 note=30 velocity=0 time=0.12058817499999999
EXTRACT: note_on channel=9 note=36 velocity=0 time=0.002941175
EXTRACT: note_on channel=9 note=35 velocity=0 time=0
EXTRACT: note_on channel=1 note=54 velocity=0 time=0.017647049999999997
EXTRACT: note_on channel=1 note=61 velocity=0 time=0.002941175
EXTRACT: note_on channel=1 note=54 velocity=84 time=0.002941175
EXTRACT: note_on channel=1 note=61 velocity=84 time=0
EXTRACT: note_on channel=1 note=66 velocity=0 time=0
EXTRACT: note_on channel=1 note=42 velocity=0 time=0.002941175
EXTRACT: note_on channel=9 note=38 velocity=89 time=0.00588235
EXTRACT: note_on channel=9 note=40 velocity=89 time=0
EXTRACT: note_on channel=1 note=49 velocity=0 time=0.002941175
EXTRACT: note_on channel=1 note=42 velocity=73 time=0
EXTRACT: note_on channel=1 note=49 velocity=73 time=0.002941175
EXTRACT: note_on channel=0 note=30 velocity=104 time=0.002941175
EXTRACT: note_on channel=1 note=66 velocity=84 time=0.002941175
EXTRACT: note_on channel=9 note=35 velocity=90 time=0
EXTRACT: note_on channel=9 note=36 velocity=90 time=0
EXTRACT: note_on channel=9 note=41 velocity=51 time=0
EXTRACT: note_on channel=9 note=51 velocity=95 time=0
EXTRACT: note_on channel=9 note=51 velocity=0 time=0.0941176
EXTRACT: note_on channel=9 note=38 velocity=0 time=0.026470575
EXTRACT: note_on channel=9 note=40 velocity=0 time=0
EXTRACT: note_on channel=9 note=36 velocity=0 time=0.0117647
EXTRACT: note_on channel=9 note=41 velocity=0 time=0
EXTRACT: note_on channel=9 note=35 velocity=0 time=0
EXTRACT: note_on channel=5 note=61 velocity=0 time=0.008823524999999999
EXTRACT: note_on channel=5 note=58 velocity=0 time=0.02941175
EXTRACT: note_on channel=5 note=61 velocity=80 time=0
EXTRACT: note_on channel=5 note=42 velocity=0 time=0.035294099999999995
EXTRACT: note_on channel=5 note=58 velocity=80 time=0
EXTRACT: note_on channel=5 note=42 velocity=80 time=0.041176449999999996
EXTRACT: note_on channel=0 note=30 velocity=0 time=0.049999974999999995
EXTRACT: note_on channel=1 note=49 velocity=0 time=0.02941175
EXTRACT: note_on channel=1 note=54 velocity=0 time=0.008823524999999999
EXTRACT: note_on channel=1 note=61 velocity=0 time=0
EXTRACT: note_on channel=5 note=42 velocity=0 time=0
EXTRACT: note_on channel=5 note=58 velocity=0 time=0
EXTRACT: note_on channel=5 note=61 velocity=0 time=0.00588235
EXTRACT: note_on channel=1 note=66 velocity=0 time=0.002941175
EXTRACT: note_on channel=1 note=49 velocity=83 time=0
EXTRACT: note_on channel=5 note=58 velocity=84 time=0
EXTRACT: note_on channel=1 note=42 velocity=0 time=0.002941175
EXTRACT: note_on channel=1 note=66 velocity=83 time=0
EXTRACT: note_on channel=0 note=30 velocity=106 time=0.00588235
EXTRACT: note_on channel=5 note=61 velocity=80 time=0
EXTRACT: note_on channel=9 note=36 velocity=97 time=0
EXTRACT: note_on channel=9 note=35 velocity=97 time=0
EXTRACT: note_on channel=9 note=51 velocity=85 time=0
EXTRACT: note_on channel=9 note=53 velocity=55 time=0
EXTRACT: note_on channel=1 note=54 velocity=83 time=0.002941175
EXTRACT: note_on channel=5 note=42 velocity=125 time=0.002941175
EXTRACT: note_on channel=1 note=61 velocity=83 time=0.002941175
EXTRACT: note_on channel=1 note=42 velocity=73 time=0.00588235
EXTRACT: note_on channel=9 note=53 velocity=0 time=0.085294075
EXTRACT: note_on channel=9 note=51 velocity=0 time=0
EXTRACT: note_on channel=9 note=35 velocity=0 time=0.032352925
EXTRACT: note_on channel=9 note=36 velocity=0 time=0
EXTRACT: note_on channel=9 note=41 velocity=43 time=0.032352925
EXTRACT: note_on channel=0 note=37 velocity=100 time=0.0117647
EXTRACT: note_on channel=0 note=30 velocity=0 time=0.032352925
EXTRACT: note_on channel=9 note=41 velocity=0 time=0.08823525
EXTRACT: note_on channel=0 note=42 velocity=106 time=0.055882325
EXTRACT: note_on channel=9 note=51 velocity=85 time=0
EXTRACT: control_change channel=2 control=1 value=38 time=0.00588235
EXTRACT: control_change channel=2 control=1 value=37 time=0.055882325
EXTRACT: note_on channel=0 note=37 velocity=0 time=0.02941175
EXTRACT: note_on channel=9 note=51 velocity=0 time=0.0117647
EXTRACT: control_change channel=2 control=1 value=36 time=0.017647049999999997
EXTRACT: note_on channel=1 note=49 velocity=0 time=0.020588224999999998
EXTRACT: note_on channel=1 note=66 velocity=0 time=0.002941175
EXTRACT: note_on channel=1 note=54 velocity=0 time=0.008823524999999999
EXTRACT: note_on channel=1 note=61 velocity=0 time=0.00588235
EXTRACT: note_on channel=1 note=42 velocity=0 time=0.00588235
EXTRACT: note_on channel=1 note=61 velocity=74 time=0.002941175
EXTRACT: note_on channel=1 note=54 velocity=74 time=0.00588235
EXTRACT: note_on channel=1 note=42 velocity=65 time=0.002941175
EXTRACT: note_on channel=9 note=38 velocity=81 time=0
EXTRACT: note_on channel=9 note=40 velocity=81 time=0
EXTRACT: control_change channel=2 control=1 value=35 time=0.002941175
EXTRACT: note_on channel=1 note=49 velocity=74 time=0.008823524999999999
EXTRACT: note_on channel=1 note=66 velocity=74 time=0
EXTRACT: control_change channel=2 control=1 value=34 time=0.049999974999999995
EXTRACT: note_on channel=0 note=42 velocity=0 time=0.044117625
EXTRACT: control_change channel=2 control=1 value=33 time=0.014705875
EXTRACT: note_on channel=9 note=40 velocity=0 time=0.0117647
EXTRACT: note_on channel=9 note=38 velocity=0 time=0
EXTRACT: note_on channel=1 note=54 velocity=0 time=0.008823524999999999
EXTRACT: note_on channel=1 note=42 velocity=0 time=0.002941175
EXTRACT: note_on channel=1 note=61 velocity=0 time=0.00588235
EXTRACT: note_on channel=1 note=54 velocity=75 time=0
EXTRACT: note_on channel=1 note=61 velocity=75 time=0.00588235
EXTRACT: note_on channel=1 note=42 velocity=65 time=0
EXTRACT: note_on channel=1 note=66 velocity=0 time=0.002941175
EXTRACT: note_on channel=1 note=66 velocity=75 time=0.00588235
EXTRACT: note_on channel=9 note=36 velocity=90 time=0
EXTRACT: note_on channel=9 note=35 velocity=90 time=0
EXTRACT: note_on channel=1 note=49 velocity=0 time=0.00588235
EXTRACT: note_on channel=0 note=30 velocity=106 time=0.00588235
EXTRACT: note_on channel=9 note=51 velocity=88 time=0
EXTRACT: note_on channel=1 note=49 velocity=75 time=0.002941175
EXTRACT: control_change channel=2 control=1 value=32 time=0
EXTRACT: control_change channel=2 control=1 value=31 time=0.0588235
EXTRACT: note_on channel=9 note=51 velocity=0 time=0.035294099999999995
EXTRACT: control_change channel=2 control=1 value=30 time=0.0235294
EXTRACT: note_on channel=9 note=35 velocity=0 time=0
EXTRACT: note_on channel=9 note=36 velocity=0 time=0
EXTRACT: note_on channel=0 note=37 velocity=100 time=0.055882325
EXTRACT: control_change channel=2 control=1 value=29 time=0.002941175
EXTRACT: note_on channel=0 note=30 velocity=0 time=0.0470588
EXTRACT: control_change channel=2 control=1 value=28 time=0.008823524999999999
EXTRACT: control_change channel=2 control=1 value=27 time=0.0588235
EXTRACT: note_on channel=1 note=61 velocity=0 time=0.041176449999999996
EXTRACT: note_on channel=1 note=54 velocity=0 time=0
EXTRACT: note_on channel=1 note=66 velocity=0 time=0.008823524999999999
EXTRACT: note_on channel=1 note=54 velocity=57 time=0
EXTRACT: note_on channel=1 note=61 velocity=57 time=0
EXTRACT: note_on channel=1 note=42 velocity=0 time=0
EXTRACT: note_on channel=1 note=49 velocity=0 time=0.002941175
EXTRACT: note_on channel=0 note=42 velocity=106 time=0.00588235
EXTRACT: note_on channel=1 note=49 velocity=57 time=0
EXTRACT: note_on channel=1 note=66 velocity=57 time=0
EXTRACT: control_change channel=2 control=1 value=26 time=0
EXTRACT: note_on channel=9 note=38 velocity=89 time=0
EXTRACT: note_on channel=9 note=40 velocity=89 time=0
EXTRACT: note_on channel=9 note=41 velocity=57 time=0
EXTRACT: note_on channel=9 note=51 velocity=95 time=0
EXTRACT: note_on channel=9 note=53 velocity=63 time=0
EXTRACT: note_on channel=1 note=42 velocity=50 time=0.0117647
EXTRACT: note_on channel=7 note=82 velocity=0 time=0.00588235
EXTRACT: note_on channel=0 note=37 velocity=0 time=0.038235275
EXTRACT: control_change channel=2 control=1 value=25 time=0.002941175
EXTRACT: control_change channel=2 control=11 value=88 time=0.0235294
EXTRACT: note_on channel=1 note=49 velocity=0 time=0.002941175
EXTRACT: note_on channel=1 note=54 velocity=0 time=0.014705875
EXTRACT: note_on channel=1 note=42 velocity=0 time=0.002941175
EXTRACT: note_on channel=1 note=61 velocity=0 time=0.008823524999999999
EXTRACT: note_on channel=9 note=53 velocity=0 time=0
EXTRACT: note_on channel=9 note=51 velocity=0 time=0
EXTRACT: control_change channel=2 control=11 value=86 time=0.002941175
EXTRACT: note_on channel=1 note=66 velocity=0 time=0.002941175
EXTRACT: control_change channel=2 control=1 value=24 time=0
EXTRACT: note_on channel=9 note=38 velocity=0 time=0.014705875
EXTRACT: note_on channel=9 note=40 velocity=0 time=0
EXTRACT: note_on channel=9 note=41 velocity=0 time=0
EXTRACT: control_change channel=2 control=11 value=85 time=0.0117647
EXTRACT: note_on channel=1 note=54 velocity=71 time=0.002941175
EXTRACT: note_on channel=1 note=42 velocity=63 time=0
EXTRACT: note_on channel=1 note=66 velocity=71 time=0.017647049999999997
EXTRACT: note_on channel=1 note=61 velocity=71 time=0
EXTRACT: note_on channel=1 note=49 velocity=71 time=0.00588235
EXTRACT: control_change channel=2 control=1 value=23 time=0.00588235
EXTRACT: control_change channel=2 control=11 value=84 time=0
EXTRACT: control_change channel=5 control=11 value=112 time=0.02941175
EXTRACT: control_change channel=2 control=11 value=83 time=0.002941175
EXTRACT: control_change channel=2 control=1 value=22 time=0.026470575
EXTRACT: control_change channel=5 control=11 value=110 time=0.002941175
EXTRACT: control_change channel=2 control=11 value=82 time=0.002941175
EXTRACT: control_change channel=2 control=11 value=81 time=0.032352925
EXTRACT: control_change channel=2 control=1 value=21 time=0.020588224999999998
EXTRACT: control_change channel=5 control=11 value=109 time=0.008823524999999999
EXTRACT: control_change channel=2 control=11 value=80 time=0.002941175
EXTRACT: control_change channel=5 control=11 value=108 time=0.02941175
EXTRACT: control_change channel=2 control=11 value=78 time=0.002941175
EXTRACT: note_on channel=0 note=42 velocity=0 time=0.002941175
EXTRACT: pitchwheel channel=0 pitch=-7936 time=0.00588235
EXTRACT: note_on channel=0 note=49 velocity=106 time=0.00588235
EXTRACT: control_change channel=2 control=1 value=20 time=0
EXTRACT: note_on channel=9 note=51 velocity=85 time=0
EXTRACT: control_change channel=5 control=11 value=105 time=0.0117647
EXTRACT: control_change channel=2 control=11 value=77 time=0.00588235
EXTRACT: control_change channel=5 control=11 value=103 time=0.026470575
EXTRACT: control_change channel=2 control=11 value=76 time=0.002941175
EXTRACT: control_change channel=2 control=1 value=19 time=0.0117647
EXTRACT: control_change channel=5 control=11 value=101 time=0.017647049999999997
EXTRACT: control_change channel=2 control=11 value=76 time=0.002941175
EXTRACT: pitchwheel channel=0 pitch=-7936 time=0.00588235
EXTRACT: note_on channel=9 note=51 velocity=0 time=0.014705875
EXTRACT: control_change channel=5 control=11 value=98 time=0.008823524999999999
EXTRACT: control_change channel=2 control=11 value=75 time=0.002941175
EXTRACT: control_change channel=2 control=1 value=18 time=0.002941175
EXTRACT: pitchwheel channel=0 pitch=-7685 time=0.002941175
EXTRACT: control_change channel=5 control=11 value=95 time=0.0235294
EXTRACT: control_change channel=2 control=11 value=74 time=0.002941175
EXTRACT: pitchwheel channel=0 pitch=-6995 time=0.002941175
EXTRACT: control_change channel=2 control=1 value=17 time=0.026470575
EXTRACT: control_change channel=5 control=11 value=91 time=0
EXTRACT: control_change channel=1 control=93 value=60 time=0.002941175
EXTRACT: control_change channel=2 control=11 value=73 time=0
EXTRACT: pitchwheel channel=0 pitch=-5801 time=0.002941175
EXTRACT: control_change channel=5 control=11 value=88 time=0.0235294
EXTRACT: control_change channel=2 control=11 value=72 time=0.00588235
EXTRACT: pitchwheel channel=0 pitch=-4126 time=0.002941175
EXTRACT: control_change channel=2 control=1 value=16 time=0.020588224999999998
EXTRACT: control_change channel=5 control=11 value=84 time=0.002941175
EXTRACT: control_change channel=2 control=11 value=71 time=0.00588235
EXTRACT: pitchwheel channel=0 pitch=-2077 time=0.002941175
EXTRACT: control_change channel=5 control=11 value=77 time=0.0235294
EXTRACT: control_change channel=2 control=11 value=70 time=0.00588235
EXTRACT: pitchwheel channel=0 pitch=540 time=0.002941175
EXTRACT: control_change channel=2 control=1 value=15 time=0.014705875
EXTRACT: note_on channel=1 note=42 velocity=0 time=0.00588235
EXTRACT: note_on channel=1 note=54 velocity=0 time=0
EXTRACT: control_change channel=5 control=11 value=73 time=0.002941175
EXTRACT: control_change channel=2 control=11 value=69 time=0.002941175
EXTRACT: pitchwheel channel=0 pitch=3639 time=0.00588235
EXTRACT: note_on channel=1 note=61 velocity=0 time=0.00588235
EXTRACT: note_on channel=1 note=66 velocity=0 time=0
EXTRACT: note_on channel=1 note=49 velocity=0 time=0.00588235
EXTRACT: control_change channel=5 control=11 value=68 time=0.0117647
EXTRACT: control_change channel=2 control=11 value=68 time=0.002941175
EXTRACT: pitchwheel channel=0 pitch=7047 time=0.002941175
EXTRACT: note_on channel=0 note=49 velocity=0 time=0.00588235
EXTRACT: note_on channel=1 note=71 velocity=59 time=0.002941175
EXTRACT: pitchwheel channel=0 pitch=8191 time=0.002941175
EXTRACT: note_on channel=1 note=52 velocity=92 time=0
EXTRACT: control_change channel=2 control=1 value=14 time=0
EXTRACT: note_on channel=0 note=50 velocity=106 time=0.002941175
EXTRACT: note_on channel=6 note=71 velocity=57 time=0
EXTRACT: note_on channel=6 note=63 velocity=44 time=0
EXTRACT: note_on channel=9 note=46 velocity=52 time=0
EXTRACT: note_on channel=1 note=63 velocity=59 time=0.002941175
EXTRACT: note_on channel=1 note=59 velocity=55 time=0
EXTRACT: note_on channel=1 note=56 velocity=80 time=0.002941175
EXTRACT: control_change channel=5 control=11 value=61 time=0.00588235
EXTRACT: control_change channel=2 control=11 value=67 time=0.002941175
EXTRACT: control_change channel=5 control=11 value=56 time=0.026470575
EXTRACT: control_change channel=6 control=64 value=0 time=0.002941175
EXTRACT: control_change channel=2 control=11 value=66 time=0.002941175
EXTRACT: control_change channel=2 control=1 value=13 time=0.008823524999999999
EXTRACT: control_change channel=5 control=11 value=48 time=0.017647049999999997
EXTRACT: control_change channel=2 control=11 value=66 time=0.00588235
EXTRACT: control_change channel=5 control=11 value=41 time=0.026470575
EXTRACT: control_change channel=2 control=11 value=64 time=0.00588235
EXTRACT: control_change channel=2 control=1 value=12 time=0.002941175
EXTRACT: control_change channel=6 control=64 value=127 time=0.002941175
EXTRACT: control_change channel=1 control=64 value=127 time=0.008823524999999999
EXTRACT: note_on channel=9 note=46 velocity=0 time=0
EXTRACT: control_change channel=5 control=11 value=34 time=0.0117647
EXTRACT: control_change channel=2 control=11 value=63 time=0.00588235
EXTRACT: control_change channel=5 control=11 value=24 time=0.026470575
EXTRACT: control_change channel=2 control=1 value=11 time=0.002941175
EXTRACT: control_change channel=2 control=11 value=62 time=0.002941175
EXTRACT: control_change channel=5 control=11 value=17 time=0.026470575
EXTRACT: control_change channel=2 control=11 value=61 time=0.002941175
EXTRACT: control_change channel=2 control=1 value=10 time=0.026470575
EXTRACT: control_change channel=5 control=11 value=8 time=0
EXTRACT: control_change channel=2 control=11 value=60 time=0.00588235
EXTRACT: note_on channel=1 note=63 velocity=0 time=0.020588224999999998
EXTRACT: note_on channel=1 note=56 velocity=0 time=0.00588235
EXTRACT: control_change channel=5 control=11 value=0 time=0
EXTRACT: note_on channel=1 note=59 velocity=0 time=0.00588235
EXTRACT: control_change channel=2 control=11 value=59 time=0
EXTRACT: control_change channel=2 control=1 value=9 time=0.017647049999999997
EXTRACT: note_on channel=6 note=63 velocity=0 time=0.0117647
EXTRACT: control_change channel=2 control=11 value=58 time=0.002941175
EXTRACT: note_on channel=6 note=71 velocity=0 time=0.0235294
EXTRACT: control_change channel=2 control=11 value=56 time=0.008823524999999999
EXTRACT: note_on channel=1 note=56 velocity=48 time=0.00588235
EXTRACT: control_change channel=2 control=1 value=8 time=0.00588235
EXTRACT: note_on channel=1 note=59 velocity=32 time=0.002941175
EXTRACT: note_on channel=6 note=63 velocity=26 time=0.002941175
EXTRACT: note_on channel=9 note=75 velocity=47 time=0
EXTRACT: note_on channel=1 note=63 velocity=34 time=0.008823524999999999
EXTRACT: control_change channel=2 control=11 value=55 time=0.00588235
EXTRACT: control_change channel=2 control=11 value=54 time=0.032352925
EXTRACT: control_change channel=2 control=1 value=7 time=0.00588235
EXTRACT: note_on channel=1 note=71 velocity=0 time=0.0117647
EXTRACT: note_on channel=1 note=52 velocity=0 time=0.00588235
EXTRACT: control_change channel=2 control=11 value=54 time=0.008823524999999999
EXTRACT: note_on channel=6 note=63 velocity=0 time=0.0117647
EXTRACT: note_on channel=1 note=56 velocity=0 time=0.008823524999999999
EXTRACT: control_change channel=2 control=11 value=53 time=0.008823524999999999
EXTRACT: control_change channel=2 control=1 value=6 time=0.002941175
EXTRACT: note_on channel=9 note=75 velocity=0 time=0
EXTRACT: note_on channel=1 note=59 velocity=0 time=0.002941175
EXTRACT: note_on channel=1 note=63 velocity=0 time=0.002941175
EXTRACT: control_change channel=2 control=11 value=52 time=0.0235294
EXTRACT: note_on channel=1 note=71 velocity=76 time=0.0235294
EXTRACT: note_on channel=5 note=42 velocity=0 time=0.002941175
EXTRACT: control_change channel=2 control=1 value=5 time=0.002941175
EXTRACT: note_on channel=5 note=58 velocity=0 time=0
EXTRACT: control_change channel=2 control=11 value=51 time=0.002941175
EXTRACT: note_on channel=6 note=63 velocity=39 time=0.002941175
EXTRACT: note_on channel=6 note=71 velocity=52 time=0
EXTRACT: note_on channel=1 note=56 velocity=59 time=0.002941175
EXTRACT: note_on channel=9 note=46 velocity=49 time=0
EXTRACT: note_on channel=1 note=59 velocity=72 time=0.002941175
EXTRACT: note_on channel=1 note=63 velocity=69 time=0
EXTRACT: note_on channel=5 note=61 velocity=0 time=0
EXTRACT: control_change channel=2 control=11 value=49 time=0.0235294
EXTRACT: control_change channel=2 control=1 value=4 time=0.0235294
EXTRACT: control_change channel=2 control=11 value=48 time=0.008823524999999999
EXTRACT: note_on channel=6 note=63 velocity=0 time=0.02941175
EXTRACT: control_change channel=2 control=11 value=48 time=0.002941175
EXTRACT: control_change channel=2 control=1 value=3 time=0.017647049999999997
EXTRACT: note_on channel=6 note=71 velocity=0 time=0.002941175
EXTRACT: note_on channel=9 note=46 velocity=0 time=0.00588235
EXTRACT: control_change channel=2 control=11 value=47 time=0.00588235
EXTRACT: control_change channel=2 control=11 value=46 time=0.032352925
EXTRACT: control_change channel=2 control=1 value=2 time=0.0117647
EXTRACT: control_change channel=2 control=11 value=45 time=0.017647049999999997
EXTRACT: control_change channel=2 control=11 value=44 time=0.032352925
EXTRACT: control_change channel=2 control=1 value=1 time=0.008823524999999999
EXTRACT: control_change channel=2 control=11 value=44 time=0.0235294
EXTRACT: control_change channel=2 control=1 value=0 time=0.032352925
EXTRACT: control_change channel=2 control=11 value=42 time=0
EXTRACT: control_change channel=2 control=11 value=41 time=0.032352925
EXTRACT: control_change channel=2 control=11 value=40 time=0.032352925
EXTRACT: note_on channel=6 note=63 velocity=26 time=0.002941175
EXTRACT: control_change channel=2 control=11 value=39 time=0.02941175
EXTRACT: control_change channel=2 control=11 value=38 time=0.032352925
EXTRACT: note_on channel=1 note=71 velocity=0 time=0.0117647
EXTRACT: note_on channel=1 note=56 velocity=0 time=0.002941175
EXTRACT: note_on channel=1 note=63 velocity=0 time=0.002941175
EXTRACT: note_on channel=1 note=59 velocity=0 time=0.008823524999999999
EXTRACT: control_change channel=2 control=11 value=37 time=0.002941175
EXTRACT: note_on channel=6 note=63 velocity=0 time=0.0117647
EXTRACT: control_change channel=2 control=11 value=36 time=0.020588224999999998
EXTRACT: control_change channel=2 control=11 value=34 time=0.032352925
EXTRACT: note_on channel=1 note=59 velocity=75 time=0.017647049999999997
EXTRACT: note_on channel=9 note=46 velocity=52 time=0
EXTRACT: note_on channel=1 note=56 velocity=69 time=0.002941175
EXTRACT: note_on channel=6 note=63 velocity=43 time=0
EXTRACT: note_on channel=6 note=71 velocity=61 time=0
EXTRACT: note_on channel=1 note=63 velocity=69 time=0.002941175
EXTRACT: note_on channel=1 note=52 velocity=48 time=0.00588235
EXTRACT: control_change channel=2 control=11 value=33 time=0.002941175
EXTRACT: control_change channel=2 control=11 value=32 time=0.032352925
EXTRACT: control_change channel=2 control=11 value=32 time=0.032352925
EXTRACT: note_on channel=6 note=63 velocity=0 time=0.026470575
EXTRACT: control_change channel=2 control=11 value=31 time=0.00588235
EXTRACT: note_on channel=6 note=71 velocity=0 time=0.014705875
EXTRACT: control_change channel=2 control=11 value=30 time=0.017647049999999997
EXTRACT: control_change channel=2 control=11 value=29 time=0.02941175
EXTRACT: note_on channel=9 note=46 velocity=0 time=0.00588235
EXTRACT: control_change channel=2 control=11 value=27 time=0.026470575
EXTRACT: control_change channel=2 control=11 value=26 time=0.032352925
EXTRACT: control_change channel=2 control=11 value=25 time=0.032352925
EXTRACT: control_change channel=5 control=11 value=112 time=0
EXTRACT: control_change channel=2 control=11 value=24 time=0.032352925
EXTRACT: control_change channel=2 control=11 value=24 time=0.032352925
EXTRACT: note_on channel=9 note=70 velocity=96 time=0.020588224999999998
EXTRACT: control_change channel=2 control=11 value=23 time=0.0117647
EXTRACT: control_change channel=2 control=11 value=22 time=0.02941175
EXTRACT: note_on channel=1 note=63 velocity=0 time=0.035294099999999995
EXTRACT: note_on channel=1 note=56 velocity=0 time=0
EXTRACT: note_on channel=1 note=59 velocity=0 time=0.002941175
EXTRACT: note_on channel=1 note=52 velocity=0 time=0.00588235
EXTRACT: note_on channel=2 note=82 velocity=0 time=0.026470575
EXTRACT: note_on channel=9 note=70 velocity=0 time=0.014705875
EXTRACT: note_on channel=2 note=78 velocity=0 time=0.00588235
EXTRACT: note_on channel=2 note=73 velocity=0 time=0.00588235
EXTRACT: note_on channel=6 note=63 velocity=27 time=0.038235275
EXTRACT: note_on channel=6 note=63 velocity=0 time=0.097058775
EXTRACT: note_on channel=1 note=63 velocity=61 time=0.067647025
EXTRACT: note_on channel=9 note=60 velocity=56 time=0.00588235
EXTRACT: note_on channel=9 note=46 velocity=46 time=0
EXTRACT: note_on channel=1 note=52 velocity=75 time=0.002941175
EXTRACT: note_on channel=1 note=56 velocity=64 time=0.002941175
EXTRACT: note_on channel=6 note=63 velocity=45 time=0
EXTRACT: note_on channel=6 note=71 velocity=59 time=0
EXTRACT: note_on channel=1 note=71 velocity=70 time=0.002941175
EXTRACT: note_on channel=1 note=59 velocity=79 time=0.002941175
EXTRACT: note_on channel=6 note=63 velocity=0 time=0.09117642499999999
EXTRACT: note_on channel=9 note=46 velocity=0 time=0.020588224999999998
EXTRACT: note_on channel=9 note=60 velocity=0 time=0.00588235
EXTRACT: note_on channel=6 note=71 velocity=0 time=0.02941175
EXTRACT: note_on channel=1 note=63 velocity=0 time=0.032352925
EXTRACT: note_on channel=1 note=56 velocity=0 time=0.014705875
EXTRACT: note_on channel=1 note=59 velocity=0 time=0.0117647
EXTRACT: note_on channel=0 note=50 velocity=0 time=0.1058823
EXTRACT: pitchwheel channel=0 pitch=0 time=0.020588224999999998
EXTRACT: note_on channel=1 note=56 velocity=39 time=0.00588235
EXTRACT: note_on channel=6 note=63 velocity=30 time=0.008823524999999999
EXTRACT: note_on channel=9 note=82 velocity=49 time=0
EXTRACT: note_on channel=9 note=64 velocity=56 time=0
EXTRACT: note_on channel=0 note=54 velocity=80 time=0.002941175
EXTRACT: note_on channel=1 note=63 velocity=37 time=0
EXTRACT: note_on channel=1 note=59 velocity=49 time=0.002941175
EXTRACT: note_on channel=1 note=52 velocity=0 time=0.06470585
EXTRACT: note_on channel=1 note=71 velocity=0 time=0.017647049999999997
EXTRACT: pitchwheel channel=0 pitch=264 time=0.002941175
EXTRACT: note_on channel=6 note=63 velocity=0 time=0.002941175
EXTRACT: pitchwheel channel=0 pitch=1056 time=0.0117647
EXTRACT: note_on channel=1 note=56 velocity=0 time=0.0117647
EXTRACT: pitchwheel channel=0 pitch=2378 time=0.002941175
EXTRACT: note_on channel=1 note=63 velocity=0 time=0.00588235
EXTRACT: note_on channel=9 note=82 velocity=0 time=0.00588235
EXTRACT: pitchwheel channel=0 pitch=3434 time=0.002941175
EXTRACT: note_on channel=1 note=59 velocity=0 time=0.00588235
EXTRACT: pitchwheel channel=0 pitch=4756 time=0.008823524999999999
EXTRACT: note_on channel=9 note=64 velocity=0 time=0.014705875
EXTRACT: pitchwheel channel=0 pitch=5812 time=0.002941175
EXTRACT: note_on channel=1 note=59 velocity=72 time=0
EXTRACT: note_on channel=1 note=63 velocity=69 time=0.002941175
EXTRACT: note_on channel=1 note=56 velocity=59 time=0
EXTRACT: note_on channel=9 note=46 velocity=49 time=0
EXTRACT: note_on channel=6 note=71 velocity=68 time=0.00588235
EXTRACT: note_on channel=6 note=63 velocity=50 time=0
EXTRACT: pitchwheel channel=0 pitch=6869 time=0.00588235
EXTRACT: note_on channel=1 note=71 velocity=76 time=0.002941175
EXTRACT: pitchwheel channel=0 pitch=7662 time=0.0117647
EXTRACT: pitchwheel channel=0 pitch=7926 time=0.014705875
EXTRACT: pitchwheel channel=0 pitch=8191 time=0.014705875
EXTRACT: note_on channel=6 note=63 velocity=0 time=0.044117625
EXTRACT: note_on channel=9 note=46 velocity=0 time=0.014705875
EXTRACT: note_on channel=6 note=71 velocity=0 time=0.061764675
EXTRACT: note_on channel=6 note=63 velocity=33 time=0.18235284999999998
EXTRACT: note_on channel=1 note=63 velocity=0 time=0.067647025
EXTRACT: note_on channel=1 note=56 velocity=0 time=0.002941175
EXTRACT: control_change channel=1 control=64 value=0 time=0.002941175
EXTRACT: note_on channel=1 note=59 velocity=0 time=0
EXTRACT: control_change channel=2 control=11 value=88 time=0.002941175
EXTRACT: note_on channel=1 note=71 velocity=0 time=0.017647049999999997
EXTRACT: control_change channel=6 control=64 value=0 time=0.00588235
EXTRACT: note_on channel=0 note=54 velocity=0 time=0.008823524999999999
EXTRACT: note_on channel=6 note=63 velocity=0 time=0.05294115
EXTRACT: note_on channel=1 note=73 velocity=64 time=0.002941175
EXTRACT: note_on channel=1 note=63 velocity=64 time=0
EXTRACT: note_on channel=1 note=54 velocity=87 time=0.002941175
EXTRACT: note_on channel=0 note=54 velocity=72 time=0.00588235
EXTRACT: note_on channel=1 note=58 velocity=79 time=0
EXTRACT: note_on channel=6 note=63 velocity=59 time=0.002941175
EXTRACT: note_on channel=6 note=73 velocity=72 time=0
EXTRACT: note_on channel=9 note=46 velocity=49 time=0
EXTRACT: note_on channel=1 note=59 velocity=56 time=0.008823524999999999
EXTRACT: pitchwheel channel=0 pitch=7134 time=0.055882325
EXTRACT: pitchwheel channel=0 pitch=4756 time=0.014705875
EXTRACT: pitchwheel channel=0 pitch=2906 time=0.014705875
EXTRACT: control_change channel=6 control=64 value=127 time=0
EXTRACT: pitchwheel channel=0 pitch=1849 time=0.014705875
EXTRACT: pitchwheel channel=0 pitch=1056 time=0.017647049999999997
EXTRACT: note_on channel=9 note=46 velocity=0 time=0.0117647
EXTRACT: pitchwheel channel=0 pitch=528 time=0.002941175
EXTRACT: pitchwheel channel=0 pitch=264 time=0.017647049999999997
EXTRACT: pitchwheel channel=0 pitch=0 time=0.014705875
EXTRACT: pitchwheel channel=0 pitch=0 time=0.07647055
EXTRACT: note_on channel=6 note=63 velocity=0 time=0.014705875
EXTRACT: control_change channel=1 control=64 value=127 time=0.07647055
EXTRACT: note_on channel=6 note=63 velocity=25 time=0.0117647
EXTRACT: note_on channel=9 note=75 velocity=47 time=0
EXTRACT: note_on channel=1 note=73 velocity=0 time=0.0588235
EXTRACT: note_on channel=6 note=73 velocity=0 time=0
EXTRACT: note_on channel=1 note=63 velocity=0 time=0.002941175
EXTRACT: note_on channel=1 note=54 velocity=0 time=0.002941175
EXTRACT: note_on channel=1 note=58 velocity=0 time=0.008823524999999999
EXTRACT: note_on channel=6 note=63 velocity=0 time=0.014705875
EXTRACT: note_on channel=1 note=59 velocity=0 time=0.002941175
EXTRACT: pitchwheel channel=0 pitch=264 time=0.00588235
EXTRACT: pitchwheel channel=0 pitch=528 time=0.014705875
EXTRACT: note_on channel=9 note=75 velocity=0 time=0
EXTRACT: pitchwheel channel=0 pitch=264 time=0.0470588
EXTRACT: note_on channel=1 note=59 velocity=72 time=0.0117647
EXTRACT: pitchwheel channel=0 pitch=0 time=0.002941175
EXTRACT: note_on channel=1 note=63 velocity=69 time=0
EXTRACT: note_on channel=9 note=46 velocity=47 time=0
EXTRACT: note_on channel=6 note=63 velocity=44 time=0.002941175
EXTRACT: note_on channel=6 note=73 velocity=66 time=0
EXTRACT: note_on channel=1 note=58 velocity=59 time=0.00588235
EXTRACT: note_on channel=1 note=73 velocity=76 time=0.002941175
EXTRACT: note_on channel=6 note=63 velocity=0 time=0.079411725
EXTRACT: pitchwheel channel=0 pitch=0 time=0.00588235
EXTRACT: note_on channel=6 note=73 velocity=0 time=0.008823524999999999
EXTRACT: note_on channel=9 note=46 velocity=0 time=0.038235275
EXTRACT: pitchwheel channel=0 pitch=264 time=0.041176449999999996
EXTRACT: pitchwheel channel=0 pitch=528 time=0.017647049999999997
EXTRACT: pitchwheel channel=0 pitch=792 time=0.02941175
EXTRACT: pitchwheel channel=0 pitch=528 time=0.0470588
EXTRACT: pitchwheel channel=0 pitch=264 time=0.014705875
EXTRACT: pitchwheel channel=0 pitch=0 time=0.014705875
EXTRACT: note_on channel=6 note=63 velocity=32 time=0.0470588
EXTRACT: pitchwheel channel=0 pitch=0 time=0.032352925
EXTRACT: note_on channel=1 note=63 velocity=0 time=0.035294099999999995
EXTRACT: note_on channel=1 note=59 velocity=0 time=0.008823524999999999
EXTRACT: note_on channel=1 note=58 velocity=0 time=0.002941175
EXTRACT: pitchwheel channel=0 pitch=528 time=0.0117647
EXTRACT: note_on channel=1 note=73 velocity=0 time=0.002941175
EXTRACT: pitchwheel channel=0 pitch=792 time=0.014705875
EXTRACT: note_on channel=6 note=63 velocity=0 time=0.002941175
EXTRACT: pitchwheel channel=0 pitch=1056 time=0.0117647
EXTRACT: note_on channel=1 note=63 velocity=69 time=0.049999974999999995
EXTRACT: note_on channel=6 note=63 velocity=52 time=0.002941175
EXTRACT: note_on channel=6 note=73 velocity=71 time=0
EXTRACT: note_on channel=9 note=46 velocity=49 time=0
EXTRACT: note_on channel=1 note=58 velocity=69 time=0.00588235
EXTRACT: note_on channel=1 note=54 velocity=48 time=0
EXTRACT: note_on channel=1 note=59 velocity=75 time=0
EXTRACT: pitchwheel channel=0 pitch=528 time=0.002941175
EXTRACT: pitchwheel channel=0 pitch=264 time=0.014705875
EXTRACT: pitchwheel channel=0 pitch=0 time=0.014705875
EXTRACT: note_on channel=6 note=73 velocity=0 time=0.067647025
EXTRACT: note_on channel=6 note=63 velocity=0 time=0.00588235
EXTRACT: pitchwheel channel=0 pitch=0 time=0.017647049999999997
EXTRACT: note_on channel=9 note=46 velocity=0 time=0.102941125
EXTRACT: pitchwheel channel=0 pitch=264 time=0.008823524999999999
EXTRACT: pitchwheel channel=0 pitch=528 time=0.032352925
EXTRACT: pitchwheel channel=0 pitch=264 time=0.061764675
EXTRACT: pitchwheel channel=0 pitch=0 time=0.014705875
EXTRACT: note_on channel=9 note=70 velocity=96 time=0.002941175
EXTRACT: note_on channel=1 note=63 velocity=0 time=0.07058819999999999
EXTRACT: note_on channel=1 note=58 velocity=0 time=0.0117647
EXTRACT: note_on channel=1 note=54 velocity=0 time=0
EXTRACT: note_on channel=1 note=59 velocity=0 time=0.00588235
EXTRACT: pitchwheel channel=0 pitch=0 time=0.02941175
EXTRACT: note_on channel=9 note=70 velocity=0 time=0.008823524999999999
EXTRACT: note_on channel=1 note=59 velocity=42 time=0.044117625
EXTRACT: note_on channel=1 note=73 velocity=47 time=0.002941175
EXTRACT: note_on channel=6 note=63 velocity=34 time=0.002941175
EXTRACT: note_on channel=1 note=58 velocity=38 time=0.002941175
EXTRACT: note_on channel=1 note=63 velocity=40 time=0.002941175
EXTRACT: pitchwheel channel=0 pitch=264 time=0.032352925
EXTRACT: pitchwheel channel=0 pitch=0 time=0.02941175
EXTRACT: note_on channel=1 note=73 velocity=0 time=0.0588235
EXTRACT: note_on channel=1 note=59 velocity=0 time=0.008823524999999999
EXTRACT: note_on channel=1 note=58 velocity=0 time=0
EXTRACT: note_on channel=1 note=63 velocity=0 time=0
EXTRACT: note_on channel=6 note=63 velocity=0 time=0.008823524999999999
EXTRACT: control_change channel=6 control=64 value=0 time=0.0117647
EXTRACT: note_on channel=1 note=75 velocity=67 time=0.014705875
EXTRACT: note_on channel=9 note=60 velocity=56 time=0
EXTRACT: note_on channel=1 note=54 velocity=71 time=0.00588235
EXTRACT: note_on channel=1 note=59 velocity=75 time=0
EXTRACT: note_on channel=6 note=75 velocity=68 time=0
EXTRACT: note_on channel=6 note=63 velocity=55 time=0
EXTRACT: note_on channel=1 note=58 velocity=60 time=0.002941175
EXTRACT: note_on channel=9 note=46 velocity=49 time=0
EXTRACT: note_on channel=1 note=63 velocity=59 time=0.002941175
EXTRACT: pitchwheel channel=0 pitch=264 time=0.07058819999999999
EXTRACT: note_on channel=9 note=60 velocity=0 time=0.0470588
EXTRACT: pitchwheel channel=0 pitch=0 time=0.014705875
EXTRACT: control_change channel=6 control=64 value=127 time=0
EXTRACT: note_on channel=9 note=46 velocity=0 time=0.014705875
EXTRACT: note_on channel=6 note=63 velocity=0 time=0.06470585
EXTRACT: note_on channel=6 note=75 velocity=0 time=0.041176449999999996
EXTRACT: pitchwheel channel=0 pitch=264 time=0.017647049999999997
EXTRACT: pitchwheel channel=0 pitch=528 time=0.014705875
EXTRACT: note_on channel=6 note=63 velocity=32 time=0.061764675
EXTRACT: note_on channel=9 note=82 velocity=49 time=0
EXTRACT: note_on channel=9 note=64 velocity=56 time=0
EXTRACT: pitchwheel channel=0 pitch=0 time=0.002941175
EXTRACT: note_on channel=0 note=54 velocity=0 time=0.0235294
EXTRACT: pitchwheel channel=0 pitch=0 time=0.0470588
EXTRACT: note_on channel=1 note=54 velocity=0 time=0
EXTRACT: note_on channel=1 note=58 velocity=0 time=0.002941175
EXTRACT: note_on channel=1 note=75 velocity=0 time=0.002941175
EXTRACT: note_on channel=1 note=63 velocity=0 time=0
EXTRACT: note_on channel=1 note=59 velocity=0 time=0.002941175
EXTRACT: note_on channel=9 note=82 velocity=0 time=0.049999974999999995
EXTRACT: control_change channel=6 control=64 value=0 time=0.00588235
EXTRACT: note_on channel=6 note=63 velocity=0 time=0.008823524999999999
EXTRACT: note_on channel=1 note=58 velocity=59 time=0.017647049999999997
EXTRACT: note_on channel=1 note=63 velocity=69 time=0
EXTRACT: note_on channel=9 note=64 velocity=0 time=0
EXTRACT: note_on channel=1 note=73 velocity=76 time=0.00588235
EXTRACT: note_on channel=9 note=46 velocity=46 time=0
EXTRACT: note_on channel=6 note=63 velocity=52 time=0.00588235
EXTRACT: note_on channel=6 note=73 velocity=63 time=0
EXTRACT: note_on channel=1 note=59 velocity=72 time=0.008823524999999999
EXTRACT: pitchwheel channel=5 pitch=-530 time=0.026470575
EXTRACT: pitchwheel channel=5 pitch=-1851 time=0.014705875
EXTRACT: pitchwheel channel=5 pitch=-3172 time=0.014705875
EXTRACT: pitchwheel channel=5 pitch=-4493 time=0.017647049999999997
EXTRACT: pitchwheel channel=5 pitch=-6079 time=0.014705875
EXTRACT: pitchwheel channel=5 pitch=-7400 time=0.014705875
EXTRACT: note_on channel=9 note=46 velocity=0 time=0
EXTRACT: pitchwheel channel=5 pitch=-8192 time=0.014705875
EXTRACT: control_change channel=6 control=64 value=127 time=0.00588235
EXTRACT: note_on channel=5 note=68 velocity=60 time=0.02941175
EXTRACT: note_on channel=0 note=47 velocity=73 time=0.014705875
EXTRACT: note_on channel=6 note=73 velocity=0 time=0.0117647
EXTRACT: note_on channel=6 note=63 velocity=0 time=0.032352925
EXTRACT: pitchwheel channel=5 pitch=-7928 time=0.061764675
EXTRACT: pitchwheel channel=5 pitch=-6871 time=0.014705875
EXTRACT: pitchwheel channel=5 pitch=-5814 time=0.017647049999999997
EXTRACT: pitchwheel channel=5 pitch=-5022 time=0.014705875
EXTRACT: pitchwheel channel=5 pitch=-3965 time=0.014705875
EXTRACT: note_on channel=0 note=49 velocity=54 time=0.008823524999999999
EXTRACT: pitchwheel channel=5 pitch=-2908 time=0.00588235
EXTRACT: pitchwheel channel=5 pitch=-2115 time=0.014705875
EXTRACT: pitchwheel channel=5 pitch=-1058 time=0.014705875
EXTRACT: pitchwheel channel=5 pitch=-266 time=0.017647049999999997
EXTRACT: note_on channel=1 note=63 velocity=0 time=0.008823524999999999
EXTRACT: note_on channel=1 note=58 velocity=0 time=0
EXTRACT: pitchwheel channel=5 pitch=0 time=0.00588235
EXTRACT: control_change channel=1 control=64 value=0 time=0.00588235
EXTRACT: note_on channel=1 note=73 velocity=0 time=0.00588235
EXTRACT: note_on channel=1 note=59 velocity=0 time=0.0117647
EXTRACT: pitchwheel channel=5 pitch=0 time=0.020588224999999998
EXTRACT: note_on channel=0 note=47 velocity=0 time=0.00588235
EXTRACT: note_on channel=1 note=71 velocity=59 time=0.05294115
EXTRACT: note_on channel=0 note=52 velocity=80 time=0.002941175
EXTRACT: note_on channel=1 note=52 velocity=92 time=0
EXTRACT: note_on channel=6 note=71 velocity=73 time=0.002941175
EXTRACT: note_on channel=6 note=63 velocity=59 time=0
EXTRACT: note_on channel=9 note=46 velocity=49 time=0
EXTRACT: note_on channel=1 note=63 velocity=59 time=0.002941175
EXTRACT: note_on channel=1 note=59 velocity=55 time=0
EXTRACT: note_on channel=1 note=56 velocity=80 time=0.002941175
EXTRACT: note_on channel=0 note=49 velocity=0 time=0.02941175
EXTRACT: control_change channel=6 control=64 value=0 time=0.008823524999999999
EXTRACT: note_on channel=9 note=46 velocity=0 time=0.06470585
EXTRACT: control_change channel=6 control=64 value=127 time=0.008823524999999999
EXTRACT: control_change channel=1 control=64 value=127 time=0.008823524999999999
EXTRACT: note_on channel=1 note=63 velocity=0 time=0.13235287499999998
EXTRACT: note_on channel=1 note=56 velocity=0 time=0.00588235
EXTRACT: note_on channel=1 note=59 velocity=0 time=0.00588235
EXTRACT: note_on channel=6 note=63 velocity=0 time=0.02941175
EXTRACT: note_on channel=6 note=71 velocity=0 time=0.026470575
EXTRACT: note_on channel=1 note=56 velocity=48 time=0.014705875
EXTRACT: note_on channel=1 note=59 velocity=32 time=0.008823524999999999
EXTRACT: note_on channel=6 note=63 velocity=31 time=0.002941175
EXTRACT: note_on channel=9 note=75 velocity=47 time=0
EXTRACT: note_on channel=1 note=63 velocity=34 time=0.008823524999999999
EXTRACT: pitchwheel channel=5 pitch=264 time=0.05294115
EXTRACT: note_on channel=1 note=71 velocity=0 time=0.002941175
EXTRACT: note_on channel=1 note=52 velocity=0 time=0.00588235
EXTRACT: note_on channel=6 note=63 velocity=0 time=0.020588224999999998
EXTRACT: pitchwheel channel=5 pitch=528 time=0.002941175
EXTRACT: note_on channel=1 note=56 velocity=0 time=0.00588235
EXTRACT: note_on channel=9 note=75 velocity=0 time=0.0117647
EXTRACT: note_on channel=1 note=59 velocity=0 time=0.002941175
EXTRACT: note_on channel=1 note=63 velocity=0 time=0.002941175
EXTRACT: pitchwheel channel=5 pitch=264 time=0.038235275
EXTRACT: note_on channel=1 note=71 velocity=76 time=0.008823524999999999
EXTRACT: pitchwheel channel=5 pitch=0 time=0.00588235
EXTRACT: note_on channel=6 note=63 velocity=49 time=0.00588235
EXTRACT: note_on channel=6 note=71 velocity=65 time=0
EXTRACT: note_on channel=9 note=46 velocity=53 time=0
EXTRACT: note_on channel=1 note=56 velocity=59 time=0.002941175
EXTRACT: note_on channel=1 note=59 velocity=72 time=0.002941175
EXTRACT: note_on channel=1 note=63 velocity=69 time=0
EXTRACT: note_on channel=6 note=63 velocity=0 time=0.085294075
EXTRACT: note_on channel=9 note=46 velocity=0 time=0.020588224999999998
EXTRACT: note_on channel=6 note=71 velocity=0 time=0.002941175
EXTRACT: pitchwheel channel=5 pitch=528 time=0.0941176
EXTRACT: pitchwheel channel=5 pitch=264 time=0.079411725
EXTRACT: pitchwheel channel=5 pitch=0 time=0.014705875
EXTRACT: note_on channel=6 note=63 velocity=32 time=0.049999974999999995
EXTRACT: note_on channel=1 note=71 velocity=0 time=0.073529375
EXTRACT: note_on channel=1 note=56 velocity=0 time=0.002941175
EXTRACT: note_on channel=1 note=63 velocity=0 time=0.002941175
EXTRACT: note_on channel=1 note=59 velocity=0 time=0.008823524999999999
EXTRACT: note_on channel=6 note=63 velocity=0 time=0.014705875
EXTRACT: pitchwheel channel=5 pitch=528 time=0.032352925
EXTRACT: pitchwheel channel=5 pitch=792 time=0.014705875
EXTRACT: pitchwheel channel=5 pitch=1056 time=0.014705875
EXTRACT: note_on channel=1 note=59 velocity=75 time=0.008823524999999999
EXTRACT: note_on channel=1 note=56 velocity=69 time=0.002941175
EXTRACT: note_on channel=6 note=63 velocity=51 time=0
EXTRACT: note_on channel=6 note=71 velocity=71 time=0
EXTRACT: note_on channel=1 note=63 velocity=69 time=0.002941175
EXTRACT: note_on channel=9 note=46 velocity=51 time=0
EXTRACT: note_on channel=1 note=52 velocity=48 time=0.00588235
EXTRACT: pitchwheel channel=5 pitch=528 time=0.044117625
EXTRACT: pitchwheel channel=5 pitch=264 time=0.014705875
EXTRACT: pitchwheel channel=5 pitch=0 time=0.014705875
EXTRACT: note_on channel=6 note=63 velocity=0 time=0.020588224999999998
EXTRACT: note_on channel=9 note=46 velocity=0 time=0.0117647
EXTRACT: note_on channel=6 note=71 velocity=0 time=0.008823524999999999
EXTRACT: pitchwheel channel=5 pitch=264 time=0.097058775
EXTRACT: pitchwheel channel=5 pitch=528 time=0.014705875
EXTRACT: pitchwheel channel=5 pitch=792 time=0.017647049999999997
EXTRACT: pitchwheel channel=5 pitch=1056 time=0.014705875
EXTRACT: pitchwheel channel=5 pitch=528 time=0.07647055
EXTRACT: note_on channel=9 note=70 velocity=96 time=0.008823524999999999
EXTRACT: pitchwheel channel=5 pitch=264 time=0.00588235
EXTRACT: pitchwheel channel=5 pitch=0 time=0.014705875
EXTRACT: note_on channel=1 note=63 velocity=0 time=0.055882325
EXTRACT: note_on channel=1 note=56 velocity=0 time=0
EXTRACT: note_on channel=1 note=59 velocity=0 time=0.002941175
EXTRACT: note_on channel=1 note=52 velocity=0 time=0.00588235
EXTRACT: note_on channel=9 note=70 velocity=0 time=0.041176449999999996
EXTRACT: pitchwheel channel=5 pitch=264 time=0.020588224999999998
EXTRACT: note_on channel=0 note=52 velocity=0 time=0.017647049999999997
EXTRACT: pitchwheel channel=5 pitch=528 time=0.0117647
EXTRACT: note_on channel=6 note=63 velocity=30 time=0
EXTRACT: pitchwheel channel=5 pitch=792 time=0.032352925
EXTRACT: pitchwheel channel=5 pitch=528 time=0.0470588
EXTRACT: pitchwheel channel=5 pitch=264 time=0.014705875
EXTRACT: note_on channel=6 note=63 velocity=0 time=0.002941175
EXTRACT: pitchwheel channel=5 pitch=0 time=0.0117647
EXTRACT: note_on channel=1 note=63 velocity=61 time=0.055882325
EXTRACT: note_on channel=9 note=60 velocity=56 time=0.00588235
EXTRACT: note_on channel=9 note=46 velocity=51 time=0
EXTRACT: note_on channel=0 note=54 velocity=85 time=0.002941175
EXTRACT: note_on channel=1 note=52 velocity=75 time=0
EXTRACT: note_on channel=1 note=56 velocity=64 time=0.002941175
EXTRACT: note_on channel=6 note=63 velocity=49 time=0
EXTRACT: note_on channel=6 note=71 velocity=65 time=0
EXTRACT: note_on channel=1 note=71 velocity=70 time=0.002941175
EXTRACT: note_on channel=1 note=59 velocity=79 time=0.002941175
EXTRACT: pitchwheel channel=5 pitch=264 time=0.067647025
EXTRACT: pitchwheel channel=5 pitch=528 time=0.014705875
EXTRACT: note_on channel=6 note=63 velocity=0 time=0.008823524999999999
EXTRACT: pitchwheel channel=5 pitch=792 time=0.00588235
EXTRACT: pitchwheel channel=5 pitch=1056 time=0.014705875
EXTRACT: note_on channel=9 note=60 velocity=0 time=0.00588235
EXTRACT: pitchwheel channel=0 pitch=264 time=0.014705875
EXTRACT: note_on channel=9 note=46 velocity=0 time=0.008823524999999999
EXTRACT: pitchwheel channel=5 pitch=1321 time=0.002941175
EXTRACT: pitchwheel channel=0 pitch=792 time=0.002941175
EXTRACT: note_on channel=6 note=71 velocity=0 time=0
EXTRACT: pitchwheel channel=0 pitch=1585 time=0.014705875
EXTRACT: pitchwheel channel=0 pitch=2113 time=0.014705875
EXTRACT: note_on channel=1 note=63 velocity=0 time=0.002941175
EXTRACT: pitchwheel channel=0 pitch=2378 time=0.0117647
EXTRACT: pitchwheel channel=5 pitch=792 time=0
EXTRACT: note_on channel=1 note=56 velocity=0 time=0.002941175
EXTRACT: pitchwheel channel=0 pitch=2906 time=0.0117647
EXTRACT: note_on channel=1 note=59 velocity=0 time=0
EXTRACT: pitchwheel channel=5 pitch=528 time=0
EXTRACT: pitchwheel channel=5 pitch=264 time=0.014705875
EXTRACT: pitchwheel channel=0 pitch=3170 time=0.002941175
EXTRACT: pitchwheel channel=5 pitch=0 time=0.0117647
EXTRACT: pitchwheel channel=0 pitch=3699 time=0.002941175
EXTRACT: pitchwheel channel=0 pitch=4227 time=0.014705875
EXTRACT: pitchwheel channel=0 pitch=4491 time=0.014705875
EXTRACT: pitchwheel channel=0 pitch=5020 time=0.014705875
EXTRACT: pitchwheel channel=0 pitch=5548 time=0.014705875
EXTRACT: pitchwheel channel=0 pitch=6077 time=0.017647049999999997
EXTRACT: pitchwheel channel=0 pitch=6605 time=0.014705875
EXTRACT: note_on channel=1 note=56 velocity=39 time=0.008823524999999999
EXTRACT: pitchwheel channel=0 pitch=6869 time=0.00588235
EXTRACT: note_on channel=6 note=63 velocity=32 time=0.002941175
EXTRACT: note_on channel=9 note=82 velocity=49 time=0
EXTRACT: note_on channel=9 note=64 velocity=56 time=0
EXTRACT: note_on channel=1 note=63 velocity=37 time=0.002941175
EXTRACT: note_on channel=1 note=59 velocity=49 time=0.002941175
EXTRACT: pitchwheel channel=0 pitch=7134 time=0.00588235
EXTRACT: pitchwheel channel=5 pitch=264 time=0.017647049999999997
EXTRACT: pitchwheel channel=0 pitch=7662 time=0.014705875
EXTRACT: pitchwheel channel=0 pitch=7926 time=0.014705875
EXTRACT: pitchwheel channel=5 pitch=528 time=0
EXTRACT: note_on channel=1 note=52 velocity=0 time=0.0117647
EXTRACT: pitchwheel channel=0 pitch=8191 time=0.002941175
EXTRACT: note_on channel=1 note=71 velocity=0 time=0.014705875
EXTRACT: note_on channel=6 note=63 velocity=0 time=0.00588235
EXTRACT: note_on channel=1 note=56 velocity=0 time=0.0235294
EXTRACT: note_on channel=1 note=63 velocity=0 time=0.008823524999999999
EXTRACT: note_on channel=9 note=82 velocity=0 time=0.00588235
EXTRACT: note_on channel=0 note=54 velocity=0 time=0.002941175
EXTRACT: pitchwheel channel=0 pitch=7398 time=0
EXTRACT: note_on channel=1 note=59 velocity=0 time=0.00588235
EXTRACT: pitchwheel channel=0 pitch=5812 time=0.008823524999999999
EXTRACT: pitchwheel channel=5 pitch=264 time=0.002941175
EXTRACT: pitchwheel channel=0 pitch=3963 time=0.0117647
EXTRACT: note_on channel=9 note=64 velocity=0 time=0
EXTRACT: note_on channel=1 note=59 velocity=72 time=0.002941175
EXTRACT: note_on channel=1 note=63 velocity=69 time=0.002941175
EXTRACT: note_on channel=1 note=56 velocity=59 time=0
EXTRACT: note_on channel=0 note=54 velocity=80 time=0.002941175
EXTRACT: note_on channel=6 note=71 velocity=71 time=0.002941175
EXTRACT: note_on channel=6 note=63 velocity=52 time=0
EXTRACT: note_on channel=9 note=46 velocity=53 time=0
EXTRACT: pitchwheel channel=0 pitch=2378 time=0.00588235
EXTRACT: note_on channel=1 note=71 velocity=76 time=0.002941175
EXTRACT: pitchwheel channel=5 pitch=0 time=0
EXTRACT: pitchwheel channel=0 pitch=1321 time=0.0117647
EXTRACT: pitchwheel channel=0 pitch=792 time=0.014705875
EXTRACT: pitchwheel channel=0 pitch=528 time=0.017647049999999997
EXTRACT: pitchwheel channel=0 pitch=1056 time=0.014705875
EXTRACT: pitchwheel channel=0 pitch=2113 time=0.014705875
EXTRACT: note_on channel=6 note=63 velocity=0 time=0.0117647
EXTRACT: pitchwheel channel=0 pitch=3434 time=0.002941175
EXTRACT: note_on channel=9 note=46 velocity=0 time=0
EXTRACT: pitchwheel channel=0 pitch=4756 time=0.020588224999999998
EXTRACT: pitchwheel channel=0 pitch=5548 time=0.008823524999999999
EXTRACT: pitchwheel channel=5 pitch=264 time=0.00588235
EXTRACT: pitchwheel channel=0 pitch=6341 time=0.0117647
EXTRACT: pitchwheel channel=0 pitch=6605 time=0.014705875
EXTRACT: pitchwheel channel=5 pitch=528 time=0.002941175
EXTRACT: note_on channel=6 note=71 velocity=0 time=0.008823524999999999
EXTRACT: pitchwheel channel=0 pitch=6869 time=0.002941175
EXTRACT: pitchwheel channel=5 pitch=792 time=0.017647049999999997
EXTRACT: pitchwheel channel=0 pitch=7134 time=0.014705875
EXTRACT: pitchwheel channel=5 pitch=528 time=0.049999974999999995
EXTRACT: pitchwheel channel=5 pitch=264 time=0.014705875
EXTRACT: pitchwheel channel=5 pitch=0 time=0.014705875
EXTRACT: pitchwheel channel=0 pitch=7398 time=0.0117647
EXTRACT: pitchwheel channel=0 pitch=7926 time=0.032352925
EXTRACT: pitchwheel channel=0 pitch=8191 time=0.014705875
EXTRACT: note_on channel=6 note=63 velocity=33 time=0.008823524999999999
EXTRACT: note_on channel=1 note=63 velocity=0 time=0.067647025
EXTRACT: note_on channel=1 note=56 velocity=0 time=0.002941175
EXTRACT: control_change channel=1 control=64 value=0 time=0.002941175
EXTRACT: note_on channel=1 note=59 velocity=0 time=0
EXTRACT: pitchwheel channel=5 pitch=264 time=0
EXTRACT: note_on channel=1 note=71 velocity=0 time=0.020588224999999998
EXTRACT: control_change channel=6 control=64 value=0 time=0.00588235
EXTRACT: pitchwheel channel=5 pitch=528 time=0.00588235
EXTRACT: pitchwheel channel=5 pitch=792 time=0.02941175
EXTRACT: note_on channel=0 note=54 velocity=0 time=0.020588224999999998
EXTRACT: note_on channel=6 note=63 velocity=0 time=0.00588235
EXTRACT: note_on channel=1 note=73 velocity=64 time=0.002941175
EXTRACT: note_on channel=1 note=63 velocity=64 time=0
EXTRACT: note_on channel=1 note=54 velocity=87 time=0.002941175
EXTRACT: note_on channel=9 note=46 velocity=46 time=0.002941175
EXTRACT: note_on channel=1 note=58 velocity=79 time=0.002941175
EXTRACT: note_on channel=6 note=63 velocity=59 time=0.002941175
EXTRACT: note_on channel=6 note=73 velocity=72 time=0
EXTRACT: note_on channel=0 note=54 velocity=78 time=0.002941175
EXTRACT: note_on channel=1 note=59 velocity=56 time=0.00588235
EXTRACT: pitchwheel channel=0 pitch=6869 time=0.00588235
EXTRACT: pitchwheel channel=5 pitch=528 time=0.00588235
EXTRACT: pitchwheel channel=0 pitch=5020 time=0.008823524999999999
EXTRACT: pitchwheel channel=0 pitch=3170 time=0.014705875
EXTRACT: pitchwheel channel=5 pitch=264 time=0.008823524999999999
EXTRACT: pitchwheel channel=0 pitch=1849 time=0.00588235
EXTRACT: pitchwheel channel=0 pitch=1056 time=0.017647049999999997
EXTRACT: pitchwheel channel=5 pitch=0 time=0.008823524999999999
EXTRACT: pitchwheel channel=0 pitch=528 time=0.00588235
EXTRACT: control_change channel=6 control=64 value=127 time=0.002941175
EXTRACT: note_on channel=9 note=46 velocity=0 time=0.008823524999999999
EXTRACT: pitchwheel channel=0 pitch=0 time=0.00588235
EXTRACT: pitchwheel channel=0 pitch=0 time=0.07647055
EXTRACT: pitchwheel channel=5 pitch=264 time=0.008823524999999999
EXTRACT: pitchwheel channel=5 pitch=528 time=0.02941175
EXTRACT: note_on channel=6 note=63 velocity=0 time=0.041176449999999996
EXTRACT: pitchwheel channel=5 pitch=264 time=0.05294115
EXTRACT: control_change channel=1 control=64 value=127 time=0.0235294
EXTRACT: pitchwheel channel=5 pitch=0 time=0.008823524999999999
EXTRACT: note_on channel=6 note=63 velocity=25 time=0.002941175
EXTRACT: note_on channel=9 note=75 velocity=47 time=0
EXTRACT: note_on channel=1 note=73 velocity=0 time=0.0588235
EXTRACT: note_on channel=6 note=73 velocity=0 time=0
EXTRACT: note_on channel=1 note=63 velocity=0 time=0.002941175
EXTRACT: note_on channel=1 note=54 velocity=0 time=0.002941175
EXTRACT: note_on channel=1 note=58 velocity=0 time=0.008823524999999999
EXTRACT: note_on channel=6 note=63 velocity=0 time=0.014705875
EXTRACT: note_on channel=1 note=59 velocity=0 time=0.002941175
EXTRACT: note_on channel=9 note=75 velocity=0 time=0.020588224999999998
EXTRACT: pitchwheel channel=5 pitch=264 time=0.008823524999999999
EXTRACT: pitchwheel channel=5 pitch=528 time=0.02941175
EXTRACT: note_on channel=1 note=59 velocity=72 time=0.020588224999999998
EXTRACT: note_on channel=1 note=63 velocity=69 time=0.002941175
EXTRACT: note_on channel=6 note=63 velocity=44 time=0.002941175
EXTRACT: note_on channel=6 note=73 velocity=66 time=0
EXTRACT: note_on channel=9 note=46 velocity=51 time=0.002941175
EXTRACT: note_on channel=1 note=58 velocity=59 time=0.002941175
EXTRACT: note_on channel=1 note=73 velocity=76 time=0.002941175
EXTRACT: pitchwheel channel=5 pitch=264 time=0.0588235
EXTRACT: note_on channel=6 note=63 velocity=0 time=0.020588224999999998
EXTRACT: pitchwheel channel=5 pitch=0 time=0.0117647
EXTRACT: note_on channel=6 note=73 velocity=0 time=0.002941175
EXTRACT: note_on channel=9 note=46 velocity=0 time=0.008823524999999999
EXTRACT: note_on channel=5 note=68 velocity=0 time=0.09117642499999999
EXTRACT: pitchwheel channel=5 pitch=0 time=0.041176449999999996
EXTRACT: note_on channel=6 note=63 velocity=32 time=0.10882347499999999
EXTRACT: note_on channel=1 note=63 velocity=0 time=0.067647025
EXTRACT: note_on channel=1 note=59 velocity=0 time=0.008823524999999999
EXTRACT: note_on channel=1 note=58 velocity=0 time=0.002941175
EXTRACT: note_on channel=1 note=73 velocity=0 time=0.014705875
EXTRACT: note_on channel=6 note=63 velocity=0 time=0.017647049999999997
EXTRACT: note_on channel=1 note=63 velocity=69 time=0.061764675
EXTRACT: note_on channel=9 note=46 velocity=49 time=0
EXTRACT: note_on channel=6 note=63 velocity=52 time=0.002941175
EXTRACT: note_on channel=6 note=73 velocity=71 time=0
EXTRACT: note_on channel=1 note=58 velocity=69 time=0.00588235
EXTRACT: note_on channel=1 note=54 velocity=48 time=0
EXTRACT: note_on channel=1 note=59 velocity=75 time=0
EXTRACT: pitchwheel channel=0 pitch=264 time=0.044117625
EXTRACT: note_on channel=9 note=46 velocity=0 time=0.05294115
EXTRACT: note_on channel=6 note=73 velocity=0 time=0.002941175
EXTRACT: note_on channel=6 note=63 velocity=0 time=0.00588235
EXTRACT: pitchwheel channel=0 pitch=0 time=0.017647049999999997
EXTRACT: note_on channel=9 note=70 velocity=96 time=0.2235293
EXTRACT: note_on channel=1 note=63 velocity=0 time=0.07058819999999999
EXTRACT: note_on channel=1 note=58 velocity=0 time=0.0117647
EXTRACT: note_on channel=1 note=54 velocity=0 time=0
EXTRACT: note_on channel=1 note=59 velocity=0 time=0.00588235
EXTRACT: note_on channel=9 note=70 velocity=0 time=0.038235275
EXTRACT: note_on channel=1 note=59 velocity=42 time=0.044117625
EXTRACT: note_on channel=1 note=73 velocity=47 time=0.002941175
EXTRACT: note_on channel=6 note=63 velocity=34 time=0.002941175
EXTRACT: note_on channel=1 note=58 velocity=38 time=0.002941175
EXTRACT: note_on channel=1 note=63 velocity=40 time=0.002941175
EXTRACT: pitchwheel channel=5 pitch=-1058 time=0.061764675
EXTRACT: pitchwheel channel=5 pitch=-2380 time=0.014705875
EXTRACT: pitchwheel channel=5 pitch=-4229 time=0.014705875
EXTRACT: pitchwheel channel=5 pitch=-6079 time=0.014705875
EXTRACT: note_on channel=1 note=73 velocity=0 time=0.014705875
EXTRACT: pitchwheel channel=5 pitch=-7136 time=0
EXTRACT: note_on channel=1 note=59 velocity=0 time=0.008823524999999999
EXTRACT: note_on channel=1 note=58 velocity=0 time=0
EXTRACT: note_on channel=1 note=63 velocity=0 time=0
EXTRACT: pitchwheel channel=5 pitch=-8192 time=0.008823524999999999
EXTRACT: note_on channel=6 note=63 velocity=0 time=0
EXTRACT: control_change channel=6 control=64 value=0 time=0.0117647
EXTRACT: note_on channel=5 note=73 velocity=68 time=0.0117647
EXTRACT: note_on channel=1 note=75 velocity=67 time=0.002941175
EXTRACT: note_on channel=9 note=60 velocity=56 time=0
EXTRACT: note_on channel=9 note=46 velocity=51 time=0.002941175
EXTRACT: note_on channel=1 note=54 velocity=71 time=0.002941175
EXTRACT: note_on channel=1 note=59 velocity=75 time=0
EXTRACT: note_on channel=6 note=75 velocity=68 time=0
EXTRACT: note_on channel=6 note=63 velocity=55 time=0
EXTRACT: note_on channel=1 note=58 velocity=60 time=0.002941175
EXTRACT: note_on channel=1 note=63 velocity=59 time=0.002941175
EXTRACT: pitchwheel channel=5 pitch=-7664 time=0.067647025
EXTRACT: pitchwheel channel=5 pitch=-6607 time=0.014705875
EXTRACT: pitchwheel channel=5 pitch=-5022 time=0.017647049999999997
EXTRACT: note_on channel=9 note=46 velocity=0 time=0.008823524999999999
EXTRACT: pitchwheel channel=5 pitch=-3436 time=0.00588235
EXTRACT: note_on channel=9 note=60 velocity=0 time=0.002941175
EXTRACT: pitchwheel channel=5 pitch=-1851 time=0.0117647
EXTRACT: control_change channel=6 control=64 value=127 time=0.002941175
EXTRACT: pitchwheel channel=5 pitch=-530 time=0.0117647
EXTRACT: pitchwheel channel=5 pitch=-1 time=0.014705875
EXTRACT: pitchwheel channel=5 pitch=0 time=0.014705875
EXTRACT: note_on channel=6 note=63 velocity=0 time=0.038235275
EXTRACT: note_on channel=6 note=75 velocity=0 time=0.041176449999999996
EXTRACT: pitchwheel channel=5 pitch=0 time=0.035294099999999995
EXTRACT: note_on channel=0 note=54 velocity=0 time=0.0470588
EXTRACT: note_on channel=6 note=63 velocity=32 time=0.0117647
EXTRACT: note_on channel=9 note=82 velocity=49 time=0
EXTRACT: note_on channel=9 note=64 velocity=56 time=0
EXTRACT: note_on channel=1 note=54 velocity=0 time=0.073529375
EXTRACT: note_on channel=1 note=58 velocity=0 time=0.002941175
EXTRACT: note_on channel=1 note=75 velocity=0 time=0.002941175
EXTRACT: note_on channel=1 note=63 velocity=0 time=0
EXTRACT: note_on channel=1 note=59 velocity=0 time=0.002941175
EXTRACT: pitchwheel channel=0 pitch=792 time=0.02941175
EXTRACT: pitchwheel channel=0 pitch=1849 time=0.017647049999999997
EXTRACT: note_on channel=9 note=82 velocity=0 time=0.002941175
EXTRACT: note_on channel=5 note=73 velocity=0 time=0.002941175
EXTRACT: control_change channel=6 control=64 value=0 time=0.002941175
EXTRACT: pitchwheel channel=0 pitch=2906 time=0.00588235
EXTRACT: note_on channel=6 note=63 velocity=0 time=0.002941175
EXTRACT: note_on channel=5 note=73 velocity=66 time=0.00588235
EXTRACT: pitchwheel channel=0 pitch=3963 time=0.00588235
EXTRACT: note_on channel=1 note=58 velocity=59 time=0.00588235
EXTRACT: note_on channel=1 note=63 velocity=69 time=0
EXTRACT: note_on channel=9 note=64 velocity=0 time=0
EXTRACT: note_on channel=1 note=73 velocity=76 time=0.00588235
EXTRACT: pitchwheel channel=0 pitch=5020 time=0.002941175
EXTRACT: note_on channel=9 note=46 velocity=49 time=0
EXTRACT: note_on channel=0 note=54 velocity=80 time=0.002941175
EXTRACT: note_on channel=6 note=63 velocity=52 time=0
EXTRACT: note_on channel=6 note=73 velocity=63 time=0
EXTRACT: note_on channel=1 note=59 velocity=72 time=0.008823524999999999
EXTRACT: pitchwheel channel=0 pitch=5812 time=0.00588235
EXTRACT: note_on channel=9 note=59 velocity=60 time=0.00588235
EXTRACT: pitchwheel channel=0 pitch=6869 time=0.008823524999999999
EXTRACT: pitchwheel channel=5 pitch=-1 time=0.00588235
EXTRACT: pitchwheel channel=0 pitch=7662 time=0.008823524999999999
EXTRACT: pitchwheel channel=5 pitch=-1058 time=0.00588235
EXTRACT: pitchwheel channel=0 pitch=8191 time=0.008823524999999999
EXTRACT: pitchwheel channel=5 pitch=-2380 time=0.008823524999999999
EXTRACT: pitchwheel channel=5 pitch=-3965 time=0.014705875
EXTRACT: note_on channel=9 note=59 velocity=0 time=0
EXTRACT: pitchwheel channel=5 pitch=-5814 time=0.014705875
EXTRACT: note_on channel=9 note=46 velocity=0 time=0.002941175
EXTRACT: pitchwheel channel=5 pitch=-7136 time=0.014705875
EXTRACT: pitchwheel channel=5 pitch=-7928 time=0.014705875
EXTRACT: control_change channel=6 control=64 value=127 time=0.002941175
EXTRACT: note_on channel=9 note=51 velocity=45 time=0
EXTRACT: pitchwheel channel=5 pitch=-8192 time=0.0117647
EXTRACT: note_on channel=6 note=73 velocity=0 time=0.044117625
EXTRACT: note_on channel=9 note=51 velocity=0 time=0.014705875
EXTRACT: note_on channel=6 note=63 velocity=0 time=0.017647049999999997
EXTRACT: note_on channel=9 note=59 velocity=63 time=0.002941175
EXTRACT: note_on channel=9 note=59 velocity=0 time=0.073529375
EXTRACT: pitchwheel channel=0 pitch=7926 time=0.0470588
EXTRACT: note_on channel=9 note=51 velocity=50 time=0
EXTRACT: pitchwheel channel=0 pitch=6869 time=0.014705875
EXTRACT: pitchwheel channel=0 pitch=5812 time=0.014705875
EXTRACT: pitchwheel channel=0 pitch=4491 time=0.017647049999999997
EXTRACT: pitchwheel channel=0 pitch=2906 time=0.014705875
EXTRACT: note_on channel=9 note=59 velocity=64 time=0
EXTRACT: note_on channel=1 note=63 velocity=0 time=0.008823524999999999
EXTRACT: note_on channel=1 note=58 velocity=0 time=0
EXTRACT: pitchwheel channel=0 pitch=1849 time=0.00588235
EXTRACT: control_change channel=1 control=64 value=0 time=0.00588235
EXTRACT: note_on channel=9 note=51 velocity=0 time=0.002941175
EXTRACT: note_on channel=1 note=73 velocity=0 time=0.002941175
EXTRACT: pitchwheel channel=0 pitch=792 time=0.002941175
EXTRACT: note_on channel=1 note=59 velocity=0 time=0.008823524999999999
EXTRACT: pitchwheel channel=0 pitch=264 time=0.00588235
EXTRACT: pitchwheel channel=0 pitch=0 time=0.017647049999999997
EXTRACT: note_on channel=0 note=54 velocity=0 time=0.017647049999999997
EXTRACT: note_on channel=9 note=59 velocity=0 time=0.014705875
EXTRACT: note_on channel=5 note=73 velocity=0 time=0.008823524999999999
EXTRACT: note_on channel=1 note=71 velocity=59 time=0.014705875
EXTRACT: note_on channel=1 note=52 velocity=92 time=0.002941175
EXTRACT: note_on channel=0 note=52 velocity=68 time=0.002941175
EXTRACT: note_on channel=6 note=71 velocity=73 time=0
EXTRACT: note_on channel=6 note=63 velocity=59 time=0
EXTRACT: note_on channel=9 note=46 velocity=52 time=0
EXTRACT: note_on channel=1 note=63 velocity=59 time=0.002941175
EXTRACT: note_on channel=1 note=59 velocity=55 time=0
EXTRACT: note_on channel=1 note=56 velocity=80 time=0.002941175
EXTRACT: note_on channel=5 note=68 velocity=61 time=0.00588235
EXTRACT: pitchwheel channel=0 pitch=0 time=0.002941175
EXTRACT: note_on channel=9 note=51 velocity=60 time=0.00588235
EXTRACT: control_change channel=6 control=64 value=0 time=0.0235294
EXTRACT: note_on channel=9 note=51 velocity=0 time=0.06470585
EXTRACT: control_change channel=6 control=64 value=127 time=0.008823524999999999
EXTRACT: control_change channel=1 control=64 value=127 time=0.008823524999999999
EXTRACT: note_on channel=9 note=46 velocity=0 time=0
EXTRACT: pitchwheel channel=5 pitch=-7928 time=0.044117625
EXTRACT: pitchwheel channel=5 pitch=-7136 time=0.014705875
EXTRACT: pitchwheel channel=5 pitch=-6079 time=0.014705875
EXTRACT: pitchwheel channel=5 pitch=-5022 time=0.014705875
EXTRACT: pitchwheel channel=5 pitch=-3701 time=0.014705875
EXTRACT: pitchwheel channel=5 pitch=-2644 time=0.017647049999999997
EXTRACT: note_on channel=1 note=63 velocity=0 time=0.0117647
EXTRACT: pitchwheel channel=5 pitch=-1323 time=0.002941175
EXTRACT: note_on channel=1 note=56 velocity=0 time=0.002941175
EXTRACT: note_on channel=1 note=59 velocity=0 time=0.00588235
EXTRACT: pitchwheel channel=5 pitch=-266 time=0.00588235
EXTRACT: pitchwheel channel=5 pitch=0 time=0.014705875
EXTRACT: note_on channel=6 note=63 velocity=0 time=0.008823524999999999
EXTRACT: note_on channel=6 note=71 velocity=0 time=0.026470575
EXTRACT: note_on channel=1 note=56 velocity=48 time=0.014705875
EXTRACT: note_on channel=1 note=59 velocity=32 time=0.008823524999999999
EXTRACT: note_on channel=6 note=63 velocity=31 time=0.002941175
EXTRACT: note_on channel=9 note=75 velocity=47 time=0
EXTRACT: note_on channel=1 note=63 velocity=34 time=0.008823524999999999
EXTRACT: pitchwheel channel=5 pitch=0 time=0.0470588
EXTRACT: note_on channel=1 note=71 velocity=0 time=0.008823524999999999
EXTRACT: note_on channel=1 note=52 velocity=0 time=0.00588235
EXTRACT: note_on channel=6 note=63 velocity=0 time=0.020588224999999998
EXTRACT: note_on channel=1 note=56 velocity=0 time=0.008823524999999999
EXTRACT: note_on channel=9 note=75 velocity=0 time=0.0117647
EXTRACT: note_on channel=1 note=59 velocity=0 time=0.002941175
EXTRACT: note_on channel=1 note=63 velocity=0 time=0.002941175
EXTRACT: note_on channel=1 note=71 velocity=76 time=0.0470588
EXTRACT: note_on channel=6 note=63 velocity=49 time=0.0117647
EXTRACT: note_on channel=6 note=71 velocity=65 time=0
EXTRACT: note_on channel=1 note=56 velocity=59 time=0.002941175
EXTRACT: note_on channel=9 note=46 velocity=49 time=0
EXTRACT: note_on channel=1 note=59 velocity=72 time=0.002941175
EXTRACT: note_on channel=1 note=63 velocity=69 time=0
EXTRACT: pitchwheel channel=5 pitch=264 time=0.020588224999999998
EXTRACT: pitchwheel channel=5 pitch=528 time=0.014705875
EXTRACT: pitchwheel channel=5 pitch=792 time=0.014705875
EXTRACT: pitchwheel channel=5 pitch=1056 time=0.0235294
EXTRACT: note_on channel=6 note=63 velocity=0 time=0.0117647
EXTRACT: pitchwheel channel=5 pitch=1321 time=0.0117647
EXTRACT: note_on channel=6 note=71 velocity=0 time=0.0117647
EXTRACT: note_on channel=9 note=46 velocity=0 time=0.00588235
EXTRACT: pitchwheel channel=5 pitch=1056 time=0.02941175
EXTRACT: pitchwheel channel=5 pitch=528 time=0.014705875
EXTRACT: pitchwheel channel=5 pitch=264 time=0.014705875
EXTRACT: pitchwheel channel=5 pitch=0 time=0.017647049999999997
EXTRACT: pitchwheel channel=0 pitch=264 time=0.041176449999999996
EXTRACT: pitchwheel channel=5 pitch=264 time=0.035294099999999995
EXTRACT: pitchwheel channel=5 pitch=792 time=0.014705875
EXTRACT: pitchwheel channel=5 pitch=1056 time=0.017647049999999997
EXTRACT: pitchwheel channel=0 pitch=0 time=0.0117647
EXTRACT: pitchwheel channel=5 pitch=1585 time=0.002941175
EXTRACT: pitchwheel channel=5 pitch=1849 time=0.014705875
EXTRACT: note_on channel=6 note=63 velocity=32 time=0.017647049999999997
EXTRACT: pitchwheel channel=5 pitch=1321 time=0.02941175
EXTRACT: pitchwheel channel=5 pitch=792 time=0.014705875
EXTRACT: pitchwheel channel=5 pitch=264 time=0.014705875
EXTRACT: pitchwheel channel=0 pitch=0 time=0.0117647
EXTRACT: note_on channel=1 note=71 velocity=0 time=0.002941175
EXTRACT: note_on channel=1 note=56 velocity=0 time=0.002941175
EXTRACT: pitchwheel channel=5 pitch=0 time=0
EXTRACT: note_on channel=1 note=63 velocity=0 time=0.002941175
EXTRACT: note_on channel=1 note=59 velocity=0 time=0.008823524999999999
EXTRACT: note_on channel=6 note=63 velocity=0 time=0.014705875
EXTRACT: pitchwheel channel=5 pitch=264 time=0.06470585
EXTRACT: note_on channel=1 note=59 velocity=75 time=0.00588235
EXTRACT: note_on channel=9 note=46 velocity=52 time=0
EXTRACT: note_on channel=1 note=56 velocity=69 time=0.002941175
EXTRACT: note_on channel=6 note=63 velocity=51 time=0
EXTRACT: note_on channel=6 note=71 velocity=71 time=0
EXTRACT: note_on channel=1 note=63 velocity=69 time=0.002941175
EXTRACT: pitchwheel channel=5 pitch=528 time=0.002941175
EXTRACT: note_on channel=1 note=52 velocity=48 time=0.002941175
EXTRACT: pitchwheel channel=0 pitch=264 time=0.008823524999999999
EXTRACT: pitchwheel channel=5 pitch=792 time=0.00588235
EXTRACT: pitchwheel channel=5 pitch=1056 time=0.014705875
EXTRACT: pitchwheel channel=5 pitch=1321 time=0.014705875
EXTRACT: pitchwheel channel=0 pitch=0 time=0.026470575
EXTRACT: pitchwheel channel=5 pitch=1056 time=0.020588224999999998
EXTRACT: note_on channel=6 note=63 velocity=0 time=0.002941175
EXTRACT: pitchwheel channel=5 pitch=792 time=0.0117647
EXTRACT: note_on channel=6 note=71 velocity=0 time=0.008823524999999999
EXTRACT: pitchwheel channel=5 pitch=528 time=0.00588235
EXTRACT: pitchwheel channel=5 pitch=0 time=0.017647049999999997
EXTRACT: note_on channel=9 note=46 velocity=0 time=0.02941175
EXTRACT: pitchwheel channel=0 pitch=0 time=0.041176449999999996
EXTRACT: pitchwheel channel=5 pitch=264 time=0.038235275
EXTRACT: pitchwheel channel=5 pitch=528 time=0.014705875
EXTRACT: pitchwheel channel=5 pitch=792 time=0.014705875
EXTRACT: pitchwheel channel=5 pitch=1056 time=0.014705875
EXTRACT: pitchwheel channel=5 pitch=1321 time=0.014705875
EXTRACT: pitchwheel channel=5 pitch=1585 time=0.017647049999999997
EXTRACT: note_on channel=9 note=70 velocity=96 time=0.020588224999999998
EXTRACT: pitchwheel channel=5 pitch=1056 time=0.0235294
EXTRACT: pitchwheel channel=5 pitch=792 time=0.017647049999999997
EXTRACT: pitchwheel channel=5 pitch=528 time=0.014705875
EXTRACT: pitchwheel channel=5 pitch=0 time=0.014705875
EXTRACT: note_on channel=1 note=63 velocity=0 time=0.00588235
EXTRACT: note_on channel=1 note=56 velocity=0 time=0
EXTRACT: note_on channel=1 note=59 velocity=0 time=0.002941175
EXTRACT: note_on channel=1 note=52 velocity=0 time=0.00588235
EXTRACT: note_on channel=9 note=70 velocity=0 time=0.041176449999999996
EXTRACT: pitchwheel channel=5 pitch=264 time=0.020588224999999998
EXTRACT: note_on channel=6 note=63 velocity=30 time=0.02941175
EXTRACT: pitchwheel channel=5 pitch=792 time=0.002941175
EXTRACT: note_on channel=0 note=52 velocity=0 time=0.00588235
EXTRACT: pitchwheel channel=5 pitch=1056 time=0.008823524999999999
EXTRACT: pitchwheel channel=5 pitch=1321 time=0.014705875
EXTRACT: pitchwheel channel=5 pitch=1585 time=0.014705875
EXTRACT: note_on channel=6 note=63 velocity=0 time=0.049999974999999995
EXTRACT: pitchwheel channel=5 pitch=1321 time=0.0117647
EXTRACT: pitchwheel channel=5 pitch=1056 time=0.017647049999999997
EXTRACT: pitchwheel channel=5 pitch=528 time=0.014705875
EXTRACT: pitchwheel channel=5 pitch=264 time=0.014705875
EXTRACT: note_on channel=1 note=63 velocity=61 time=0.008823524999999999
EXTRACT: note_on channel=9 note=60 velocity=56 time=0.00588235
EXTRACT: note_on channel=9 note=46 velocity=46 time=0
EXTRACT: note_on channel=1 note=52 velocity=75 time=0.002941175
EXTRACT: note_on channel=1 note=56 velocity=64 time=0.002941175
EXTRACT: note_on channel=6 note=63 velocity=49 time=0
EXTRACT: note_on channel=6 note=71 velocity=65 time=0
EXTRACT: note_on channel=0 note=54 velocity=80 time=0.002941175
EXTRACT: note_on channel=1 note=71 velocity=70 time=0
EXTRACT: note_on channel=1 note=59 velocity=79 time=0.002941175
EXTRACT: pitchwheel channel=5 pitch=528 time=0.049999974999999995
EXTRACT: pitchwheel channel=0 pitch=792 time=0.017647049999999997
EXTRACT: pitchwheel channel=5 pitch=792 time=0
EXTRACT: pitchwheel channel=0 pitch=2113 time=0.014705875
EXTRACT: pitchwheel channel=5 pitch=1321 time=0
EXTRACT: note_on channel=6 note=63 velocity=0 time=0.008823524999999999
EXTRACT: pitchwheel channel=0 pitch=3699 time=0.00588235
EXTRACT: pitchwheel channel=5 pitch=1585 time=0.002941175
EXTRACT: pitchwheel channel=0 pitch=5548 time=0.0117647
EXTRACT: note_on channel=9 note=46 velocity=0 time=0
EXTRACT: pitchwheel channel=5 pitch=1849 time=0.002941175
EXTRACT: note_on channel=9 note=60 velocity=0 time=0.002941175
EXTRACT: pitchwheel channel=0 pitch=7134 time=0.0117647
EXTRACT: pitchwheel channel=0 pitch=8191 time=0.014705875
EXTRACT: note_on channel=6 note=71 velocity=0 time=0.002941175
EXTRACT: note_on channel=1 note=63 velocity=0 time=0.032352925
EXTRACT: pitchwheel channel=5 pitch=1321 time=0.0117647
EXTRACT: note_on channel=1 note=56 velocity=0 time=0.002941175
EXTRACT: note_on channel=1 note=59 velocity=0 time=0.0117647
EXTRACT: pitchwheel channel=5 pitch=792 time=0.002941175
EXTRACT: pitchwheel channel=5 pitch=528 time=0.014705875
EXTRACT: pitchwheel channel=5 pitch=264 time=0.02941175
EXTRACT: pitchwheel channel=5 pitch=528 time=0.032352925
EXTRACT: pitchwheel channel=5 pitch=792 time=0.014705875
EXTRACT: pitchwheel channel=5 pitch=1056 time=0.014705875
EXTRACT: pitchwheel channel=5 pitch=1321 time=0.014705875
EXTRACT: note_on channel=1 note=56 velocity=39 time=0.008823524999999999
EXTRACT: pitchwheel channel=5 pitch=1585 time=0.008823524999999999
EXTRACT: note_on channel=6 note=63 velocity=32 time=0
EXTRACT: note_on channel=9 note=82 velocity=49 time=0
EXTRACT: note_on channel=9 note=64 velocity=56 time=0
EXTRACT: note_on channel=1 note=63 velocity=37 time=0.002941175
EXTRACT: note_on channel=1 note=59 velocity=49 time=0.002941175
EXTRACT: note_on channel=1 note=52 velocity=0 time=0.06470585
EXTRACT: pitchwheel channel=5 pitch=1321 time=0.00588235
EXTRACT: note_on channel=1 note=71 velocity=0 time=0.0117647
EXTRACT: pitchwheel channel=5 pitch=1056 time=0.002941175
EXTRACT: note_on channel=6 note=63 velocity=0 time=0.002941175
EXTRACT: pitchwheel channel=5 pitch=792 time=0.0117647
EXTRACT: note_on channel=1 note=56 velocity=0 time=0.0117647
EXTRACT: pitchwheel channel=5 pitch=528 time=0.002941175
EXTRACT: note_on channel=1 note=63 velocity=0 time=0.00588235
EXTRACT: note_on channel=9 note=82 velocity=0 time=0.00588235
EXTRACT: note_on channel=1 note=59 velocity=0 time=0.008823524999999999
EXTRACT: note_on channel=9 note=64 velocity=0 time=0.0235294
EXTRACT: note_on channel=1 note=59 velocity=72 time=0.002941175
EXTRACT: note_on channel=1 note=63 velocity=69 time=0.002941175
EXTRACT: note_on channel=1 note=56 velocity=59 time=0
EXTRACT: note_on channel=9 note=46 velocity=49 time=0
EXTRACT: note_on channel=6 note=71 velocity=71 time=0.00588235
EXTRACT: note_on channel=6 note=63 velocity=52 time=0
EXTRACT: note_on channel=1 note=71 velocity=76 time=0.008823524999999999
EXTRACT: pitchwheel channel=5 pitch=792 time=0
EXTRACT: pitchwheel channel=5 pitch=1056 time=0.014705875
EXTRACT: pitchwheel channel=5 pitch=1321 time=0.014705875
EXTRACT: pitchwheel channel=5 pitch=1585 time=0.014705875
EXTRACT: pitchwheel channel=5 pitch=1849 time=0.014705875
EXTRACT: note_on channel=6 note=63 velocity=0 time=0.026470575
EXTRACT: note_on channel=9 note=46 velocity=0 time=0.014705875
EXTRACT: pitchwheel channel=5 pitch=1585 time=0.0235294
EXTRACT: pitchwheel channel=5 pitch=1321 time=0.014705875
EXTRACT: pitchwheel channel=5 pitch=1056 time=0.014705875
EXTRACT: note_on channel=6 note=71 velocity=0 time=0.008823524999999999
EXTRACT: pitchwheel channel=5 pitch=792 time=0.00588235
EXTRACT: pitchwheel channel=5 pitch=1056 time=0.079411725
EXTRACT: pitchwheel channel=5 pitch=1321 time=0.014705875
EXTRACT: pitchwheel channel=5 pitch=1849 time=0.014705875
EXTRACT: pitchwheel channel=5 pitch=2113 time=0.014705875
EXTRACT: pitchwheel channel=5 pitch=2378 time=0.032352925
EXTRACT: note_on channel=6 note=63 velocity=33 time=0.020588224999999998
EXTRACT: pitchwheel channel=5 pitch=2113 time=0.026470575
EXTRACT: pitchwheel channel=5 pitch=1585 time=0.014705875
EXTRACT: pitchwheel channel=5 pitch=1321 time=0.014705875
EXTRACT: note_on channel=1 note=63 velocity=0 time=0.0117647
EXTRACT: note_on channel=1 note=56 velocity=0 time=0.002941175
EXTRACT: control_change channel=1 control=64 value=0 time=0.002941175
EXTRACT: note_on channel=1 note=59 velocity=0 time=0
EXTRACT: note_on channel=0 note=54 velocity=0 time=0.014705875
EXTRACT: pitchwheel channel=5 pitch=792 time=0
EXTRACT: note_on channel=1 note=71 velocity=0 time=0.00588235
EXTRACT: control_change channel=6 control=64 value=0 time=0.00588235
EXTRACT: pitchwheel channel=5 pitch=1056 time=0.035294099999999995
EXTRACT: pitchwheel channel=5 pitch=1321 time=0.014705875
EXTRACT: note_on channel=6 note=63 velocity=0 time=0.0117647
EXTRACT: note_on channel=1 note=73 velocity=64 time=0.002941175
EXTRACT: note_on channel=1 note=63 velocity=64 time=0
EXTRACT: pitchwheel channel=5 pitch=1849 time=0
EXTRACT: note_on channel=1 note=54 velocity=87 time=0.002941175
EXTRACT: note_on channel=0 note=54 velocity=70 time=0.002941175
EXTRACT: note_on channel=1 note=58 velocity=79 time=0.002941175
EXTRACT: note_on channel=6 note=63 velocity=59 time=0.002941175
EXTRACT: note_on channel=6 note=73 velocity=72 time=0
EXTRACT: note_on channel=9 note=46 velocity=49 time=0
EXTRACT: pitchwheel channel=5 pitch=2113 time=0.002941175
EXTRACT: note_on channel=1 note=59 velocity=56 time=0.00588235
EXTRACT: pitchwheel channel=5 pitch=1585 time=0.073529375
EXTRACT: pitchwheel channel=0 pitch=7134 time=0.0117647
EXTRACT: control_change channel=6 control=64 value=127 time=0
EXTRACT: pitchwheel channel=5 pitch=1056 time=0.002941175
EXTRACT: pitchwheel channel=0 pitch=4491 time=0.0117647
EXTRACT: pitchwheel channel=5 pitch=792 time=0.002941175
EXTRACT: pitchwheel channel=0 pitch=2906 time=0.0117647
EXTRACT: pitchwheel channel=0 pitch=1585 time=0.014705875
EXTRACT: note_on channel=9 note=46 velocity=0 time=0
EXTRACT: pitchwheel channel=5 pitch=528 time=0.00588235
EXTRACT: pitchwheel channel=0 pitch=1056 time=0.008823524999999999
EXTRACT: note_on channel=5 note=68 velocity=0 time=0.014705875
EXTRACT: pitchwheel channel=0 pitch=528 time=0.008823524999999999
EXTRACT: pitchwheel channel=0 pitch=264 time=0.008823524999999999
EXTRACT: pitchwheel channel=0 pitch=0 time=0.017647049999999997
EXTRACT: pitchwheel channel=5 pitch=264 time=0.002941175
EXTRACT: pitchwheel channel=5 pitch=0 time=0.014705875
EXTRACT: pitchwheel channel=0 pitch=0 time=0.026470575
EXTRACT: note_on channel=6 note=63 velocity=0 time=0.017647049999999997
EXTRACT: control_change channel=1 control=64 value=127 time=0.07647055
EXTRACT: pitchwheel channel=5 pitch=0 time=0.008823524999999999
EXTRACT: note_on channel=6 note=63 velocity=25 time=0.002941175
EXTRACT: note_on channel=9 note=75 velocity=47 time=0
EXTRACT: note_on channel=9 note=59 velocity=72 time=0.00588235
EXTRACT: note_on channel=1 note=73 velocity=0 time=0.05294115
EXTRACT: note_on channel=6 note=73 velocity=0 time=0
EXTRACT: note_on channel=1 note=63 velocity=0 time=0.002941175
EXTRACT: note_on channel=1 note=54 velocity=0 time=0.002941175
EXTRACT: note_on channel=1 note=58 velocity=0 time=0.008823524999999999
EXTRACT: note_on channel=6 note=63 velocity=0 time=0.014705875
EXTRACT: note_on channel=1 note=59 velocity=0 time=0.002941175
EXTRACT: note_on channel=9 note=59 velocity=0 time=0.014705875
EXTRACT: note_on channel=9 note=75 velocity=0 time=0.00588235
EXTRACT: note_on channel=1 note=59 velocity=72 time=0.0588235
EXTRACT: note_on channel=1 note=63 velocity=69 time=0.002941175
EXTRACT: note_on channel=9 note=46 velocity=47 time=0
EXTRACT: note_on channel=6 note=63 velocity=44 time=0.002941175
EXTRACT: note_on channel=6 note=73 velocity=66 time=0
EXTRACT: note_on channel=1 note=58 velocity=59 time=0.00588235
EXTRACT: note_on channel=1 note=73 velocity=76 time=0.002941175
EXTRACT: note_on channel=6 note=63 velocity=0 time=0.079411725
EXTRACT: note_on channel=6 note=73 velocity=0 time=0.014705875
EXTRACT: note_on channel=9 note=46 velocity=0 time=0.038235275
EXTRACT: note_on channel=6 note=63 velocity=32 time=0.2117646
EXTRACT: note_on channel=1 note=63 velocity=0 time=0.067647025
EXTRACT: note_on channel=1 note=59 velocity=0 time=0.008823524999999999
EXTRACT: note_on channel=1 note=58 velocity=0 time=0.002941175
EXTRACT: note_on channel=1 note=73 velocity=0 time=0.014705875
EXTRACT: note_on channel=6 note=63 velocity=0 time=0.017647049999999997
EXTRACT: note_on channel=1 note=63 velocity=69 time=0.061764675
EXTRACT: note_on channel=6 note=63 velocity=52 time=0.002941175
EXTRACT: note_on channel=6 note=73 velocity=71 time=0
EXTRACT: note_on channel=9 note=46 velocity=49 time=0
EXTRACT: note_on channel=1 note=58 velocity=69 time=0.00588235
EXTRACT: note_on channel=1 note=54 velocity=48 time=0
EXTRACT: note_on channel=1 note=59 velocity=75 time=0
EXTRACT: note_on channel=6 note=73 velocity=0 time=0.09999994999999999
EXTRACT: note_on channel=6 note=63 velocity=0 time=0.00588235
EXTRACT: note_on channel=9 note=46 velocity=0 time=0.12058817499999999
EXTRACT: note_on channel=9 note=70 velocity=96 time=0.12058817499999999
EXTRACT: note_on channel=9 note=51 velocity=68 time=0.014705875
EXTRACT: note_on channel=1 note=63 velocity=0 time=0.055882325
EXTRACT: note_on channel=1 note=58 velocity=0 time=0.0117647
EXTRACT: note_on channel=1 note=54 velocity=0 time=0
EXTRACT: note_on channel=1 note=59 velocity=0 time=0.00588235
EXTRACT: note_on channel=9 note=51 velocity=0 time=0.02941175
EXTRACT: note_on channel=9 note=70 velocity=0 time=0.008823524999999999
EXTRACT: note_on channel=1 note=59 velocity=42 time=0.044117625
EXTRACT: note_on channel=1 note=73 velocity=47 time=0.002941175
EXTRACT: note_on channel=6 note=63 velocity=34 time=0.002941175
EXTRACT: note_on channel=1 note=58 velocity=38 time=0.002941175
EXTRACT: note_on channel=1 note=63 velocity=40 time=0.002941175
EXTRACT: note_on channel=0 note=54 velocity=0 time=0.09117642499999999
EXTRACT: note_on channel=1 note=73 velocity=0 time=0.02941175
EXTRACT: note_on channel=1 note=59 velocity=0 time=0.008823524999999999
EXTRACT: note_on channel=1 note=58 velocity=0 time=0
EXTRACT: note_on channel=1 note=63 velocity=0 time=0
EXTRACT: note_on channel=6 note=63 velocity=0 time=0.008823524999999999
EXTRACT: control_change channel=6 control=64 value=0 time=0.0117647
EXTRACT: note_on channel=1 note=75 velocity=67 time=0.014705875
EXTRACT: note_on channel=9 note=60 velocity=56 time=0
EXTRACT: note_on channel=1 note=54 velocity=71 time=0.00588235
EXTRACT: note_on channel=1 note=59 velocity=75 time=0
EXTRACT: note_on channel=6 note=75 velocity=68 time=0
EXTRACT: note_on channel=6 note=63 velocity=55 time=0
EXTRACT: note_on channel=0 note=47 velocity=66 time=0.002941175
EXTRACT: note_on channel=1 note=58 velocity=60 time=0
EXTRACT: note_on channel=9 note=46 velocity=49 time=0
EXTRACT: note_on channel=1 note=63 velocity=59 time=0.002941175
EXTRACT: note_on channel=9 note=60 velocity=0 time=0.117647
EXTRACT: control_change channel=6 control=64 value=127 time=0.014705875
EXTRACT: note_on channel=9 note=46 velocity=0 time=0.014705875
EXTRACT: note_on channel=0 note=49 velocity=36 time=0.026470575
EXTRACT: note_on channel=6 note=63 velocity=0 time=0.038235275
EXTRACT: note_on channel=0 note=47 velocity=0 time=0.035294099999999995
EXTRACT: note_on channel=6 note=75 velocity=0 time=0.00588235
EXTRACT: note_on channel=6 note=63 velocity=32 time=0.0941176
EXTRACT: note_on channel=9 note=82 velocity=49 time=0
EXTRACT: note_on channel=9 note=64 velocity=56 time=0
EXTRACT: note_on channel=0 note=49 velocity=0 time=0.044117625
EXTRACT: note_on channel=1 note=54 velocity=0 time=0.02941175
EXTRACT: note_on channel=1 note=58 velocity=0 time=0.002941175
EXTRACT: note_on channel=1 note=75 velocity=0 time=0.002941175
EXTRACT: note_on channel=1 note=63 velocity=0 time=0
EXTRACT: note_on channel=1 note=59 velocity=0 time=0.002941175
EXTRACT: note_on channel=9 note=82 velocity=0 time=0.049999974999999995
EXTRACT: control_change channel=6 control=64 value=0 time=0.00588235
EXTRACT: note_on channel=6 note=63 velocity=0 time=0.008823524999999999
EXTRACT: note_on channel=1 note=58 velocity=59 time=0.017647049999999997
EXTRACT: note_on channel=1 note=63 velocity=69 time=0
EXTRACT: note_on channel=9 note=64 velocity=0 time=0
EXTRACT: note_on channel=1 note=73 velocity=76 time=0.00588235
EXTRACT: note_on channel=9 note=46 velocity=46 time=0
EXTRACT: note_on channel=0 note=47 velocity=66 time=0.00588235
EXTRACT: note_on channel=6 note=63 velocity=52 time=0
EXTRACT: note_on channel=6 note=73 velocity=63 time=0
EXTRACT: note_on channel=1 note=59 velocity=72 time=0.008823524999999999
EXTRACT: note_on channel=9 note=46 velocity=0 time=0.102941125
EXTRACT: control_change channel=6 control=64 value=127 time=0.020588224999999998
EXTRACT: note_on channel=9 note=53 velocity=41 time=0.02941175
EXTRACT: note_on channel=0 note=49 velocity=36 time=0.017647049999999997
EXTRACT: note_on channel=6 note=73 velocity=0 time=0.008823524999999999
EXTRACT: note_on channel=6 note=63 velocity=0 time=0.032352925
EXTRACT: note_on channel=0 note=47 velocity=0 time=0.049999974999999995
EXTRACT: note_on channel=9 note=53 velocity=0 time=0.008823524999999999
EXTRACT: note_on channel=1 note=63 velocity=0 time=0.13529405
EXTRACT: note_on channel=1 note=58 velocity=0 time=0
EXTRACT: control_change channel=1 control=64 value=0 time=0.0117647
EXTRACT: note_on channel=1 note=73 velocity=0 time=0.00588235
EXTRACT: note_on channel=1 note=59 velocity=0 time=0.0117647
EXTRACT: note_on channel=0 note=49 velocity=0 time=0.07647055
EXTRACT: note_on channel=1 note=71 velocity=59 time=0.002941175
EXTRACT: note_on channel=1 note=52 velocity=92 time=0.002941175
EXTRACT: note_on channel=0 note=52 velocity=69 time=0.002941175
EXTRACT: note_on channel=6 note=71 velocity=73 time=0
EXTRACT: note_on channel=6 note=63 velocity=59 time=0
EXTRACT: note_on channel=9 note=46 velocity=49 time=0
EXTRACT: note_on channel=1 note=63 velocity=59 time=0.002941175
EXTRACT: note_on channel=1 note=59 velocity=55 time=0
EXTRACT: note_on channel=1 note=56 velocity=80 time=0.002941175
EXTRACT: control_change channel=6 control=64 value=0 time=0.038235275
EXTRACT: note_on channel=9 note=46 velocity=0 time=0.06470585
EXTRACT: control_change channel=6 control=64 value=127 time=0.008823524999999999
EXTRACT: control_change channel=1 control=64 value=127 time=0.008823524999999999
EXTRACT: note_on channel=1 note=63 velocity=0 time=0.13235287499999998
EXTRACT: note_on channel=1 note=56 velocity=0 time=0.00588235
EXTRACT: note_on channel=1 note=59 velocity=0 time=0.00588235
EXTRACT: note_on channel=6 note=63 velocity=0 time=0.02941175
EXTRACT: note_on channel=6 note=71 velocity=0 time=0.026470575
EXTRACT: note_on channel=1 note=56 velocity=48 time=0.014705875
EXTRACT: note_on channel=1 note=59 velocity=32 time=0.008823524999999999
EXTRACT: note_on channel=6 note=63 velocity=31 time=0.002941175
EXTRACT: note_on channel=9 note=75 velocity=47 time=0
EXTRACT: note_on channel=1 note=63 velocity=34 time=0.008823524999999999
EXTRACT: note_on channel=9 note=59 velocity=73 time=0.00588235
EXTRACT: note_on channel=1 note=71 velocity=0 time=0.049999974999999995
EXTRACT: note_on channel=1 note=52 velocity=0 time=0.00588235
EXTRACT: note_on channel=6 note=63 velocity=0 time=0.020588224999999998
EXTRACT: note_on channel=1 note=56 velocity=0 time=0.008823524999999999
EXTRACT: note_on channel=9 note=59 velocity=0 time=0.00588235
EXTRACT: note_on channel=9 note=75 velocity=0 time=0.00588235
EXTRACT: note_on channel=1 note=59 velocity=0 time=0.002941175
EXTRACT: note_on channel=1 note=63 velocity=0 time=0.002941175
EXTRACT: note_on channel=1 note=71 velocity=76 time=0.0470588
EXTRACT: note_on channel=6 note=63 velocity=49 time=0.0117647
EXTRACT: note_on channel=6 note=71 velocity=65 time=0
EXTRACT: note_on channel=9 note=46 velocity=53 time=0
EXTRACT: note_on channel=1 note=56 velocity=59 time=0.002941175
EXTRACT: note_on channel=1 note=59 velocity=72 time=0.002941175
EXTRACT: note_on channel=1 note=63 velocity=69 time=0
EXTRACT: note_on channel=6 note=63 velocity=0 time=0.085294075
EXTRACT: note_on channel=9 note=46 velocity=0 time=0.020588224999999998
EXTRACT: note_on channel=6 note=71 velocity=0 time=0.002941175
EXTRACT: note_on channel=6 note=63 velocity=32 time=0.238235175
EXTRACT: note_on channel=1 note=71 velocity=0 time=0.073529375
EXTRACT: note_on channel=1 note=56 velocity=0 time=0.002941175
EXTRACT: note_on channel=1 note=63 velocity=0 time=0.002941175
EXTRACT: note_on channel=1 note=59 velocity=0 time=0.008823524999999999
EXTRACT: note_on channel=6 note=63 velocity=0 time=0.014705875
EXTRACT: note_on channel=1 note=59 velocity=75 time=0.07058819999999999
EXTRACT: note_on channel=1 note=56 velocity=69 time=0.002941175
EXTRACT: note_on channel=6 note=63 velocity=51 time=0
EXTRACT: note_on channel=6 note=71 velocity=71 time=0
EXTRACT: note_on channel=1 note=63 velocity=69 time=0.002941175
EXTRACT: note_on channel=9 note=46 velocity=51 time=0
EXTRACT: note_on channel=1 note=52 velocity=48 time=0.00588235
EXTRACT: note_on channel=6 note=63 velocity=0 time=0.0941176
EXTRACT: note_on channel=9 note=46 velocity=0 time=0.0117647
EXTRACT: note_on channel=6 note=71 velocity=0 time=0.008823524999999999
EXTRACT: note_on channel=9 note=70 velocity=96 time=0.22941165
EXTRACT: note_on channel=1 note=63 velocity=0 time=0.07647055
EXTRACT: note_on channel=1 note=56 velocity=0 time=0
EXTRACT: note_on channel=1 note=59 velocity=0 time=0.002941175
EXTRACT: note_on channel=1 note=52 velocity=0 time=0.00588235
EXTRACT: note_on channel=9 note=70 velocity=0 time=0.041176449999999996
EXTRACT: note_on channel=6 note=63 velocity=30 time=0.049999974999999995
EXTRACT: note_on channel=6 note=63 velocity=0 time=0.097058775
EXTRACT: note_on channel=1 note=63 velocity=61 time=0.067647025
EXTRACT: note_on channel=9 note=60 velocity=56 time=0.00588235
EXTRACT: note_on channel=9 note=46 velocity=51 time=0
EXTRACT: note_on channel=1 note=52 velocity=75 time=0.002941175
EXTRACT: note_on channel=1 note=56 velocity=64 time=0.002941175
EXTRACT: note_on channel=6 note=63 velocity=49 time=0
EXTRACT: note_on channel=6 note=71 velocity=65 time=0
EXTRACT: note_on channel=1 note=71 velocity=70 time=0.002941175
EXTRACT: note_on channel=1 note=59 velocity=79 time=0.002941175
EXTRACT: note_on channel=9 note=51 velocity=64 time=0.014705875
EXTRACT: note_on channel=6 note=63 velocity=0 time=0.07647055
EXTRACT: note_on channel=9 note=60 velocity=0 time=0.026470575
EXTRACT: note_on channel=9 note=46 velocity=0 time=0.0235294
EXTRACT: note_on channel=9 note=51 velocity=0 time=0
EXTRACT: note_on channel=6 note=71 velocity=0 time=0.00588235
EXTRACT: note_on channel=1 note=63 velocity=0 time=0.032352925
EXTRACT: note_on channel=1 note=56 velocity=0 time=0.014705875
EXTRACT: note_on channel=1 note=59 velocity=0 time=0.0117647
EXTRACT: note_on channel=1 note=56 velocity=39 time=0.13235287499999998
EXTRACT: note_on channel=6 note=63 velocity=32 time=0.008823524999999999
EXTRACT: note_on channel=9 note=82 velocity=49 time=0
EXTRACT: note_on channel=9 note=64 velocity=56 time=0
EXTRACT: note_on channel=1 note=63 velocity=37 time=0.002941175
EXTRACT: note_on channel=1 note=59 velocity=49 time=0.002941175
EXTRACT: note_on channel=1 note=52 velocity=0 time=0.06470585
EXTRACT: note_on channel=1 note=71 velocity=0 time=0.017647049999999997
EXTRACT: note_on channel=6 note=63 velocity=0 time=0.00588235
EXTRACT: note_on channel=1 note=56 velocity=0 time=0.0235294
EXTRACT: note_on channel=1 note=63 velocity=0 time=0.008823524999999999
EXTRACT: note_on channel=9 note=82 velocity=0 time=0.00588235
EXTRACT: note_on channel=1 note=59 velocity=0 time=0.008823524999999999
EXTRACT: note_on channel=9 note=64 velocity=0 time=0.0235294
EXTRACT: note_on channel=1 note=59 velocity=72 time=0.002941175
EXTRACT: note_on channel=1 note=63 velocity=69 time=0.002941175
EXTRACT: note_on channel=1 note=56 velocity=59 time=0
EXTRACT: note_on channel=6 note=71 velocity=71 time=0.00588235
EXTRACT: note_on channel=6 note=63 velocity=52 time=0
EXTRACT: note_on channel=9 note=46 velocity=53 time=0
EXTRACT: note_on channel=1 note=71 velocity=76 time=0.008823524999999999
EXTRACT: note_on channel=6 note=63 velocity=0 time=0.085294075
EXTRACT: note_on channel=9 note=46 velocity=0 time=0.002941175
EXTRACT: note_on channel=6 note=71 velocity=0 time=0.073529375
EXTRACT: note_on channel=1 note=63 velocity=0 time=0.12058817499999999
EXTRACT: note_on channel=1 note=56 velocity=0 time=0.002941175
EXTRACT: note_on channel=1 note=59 velocity=0 time=0.002941175
EXTRACT: control_change channel=6 control=11 value=100 time=0.038235275
EXTRACT: note_on channel=1 note=56 velocity=37 time=0.008823524999999999
EXTRACT: note_on channel=6 note=63 velocity=33 time=0.008823524999999999
EXTRACT: note_on channel=1 note=63 velocity=35 time=0.002941175
EXTRACT: note_on channel=1 note=59 velocity=47 time=0.002941175
EXTRACT: control_change channel=6 control=11 value=99 time=0.008823524999999999
EXTRACT: note_on channel=1 note=71 velocity=0 time=0.079411725
EXTRACT: note_on channel=1 note=56 velocity=0 time=0.0235294
EXTRACT: note_on channel=1 note=63 velocity=0 time=0.008823524999999999
EXTRACT: note_on channel=1 note=59 velocity=0 time=0.014705875
EXTRACT: note_on channel=6 note=63 velocity=0 time=0.020588224999999998
EXTRACT: note_on channel=1 note=63 velocity=57 time=0.002941175
EXTRACT: note_on channel=9 note=46 velocity=46 time=0.00588235
EXTRACT: note_on channel=1 note=52 velocity=71 time=0.002941175
EXTRACT: note_on channel=1 note=56 velocity=60 time=0.002941175
EXTRACT: note_on channel=1 note=71 velocity=66 time=0.002941175
EXTRACT: note_on channel=1 note=59 velocity=75 time=0.002941175
EXTRACT: control_change channel=9 control=11 value=127 time=0.026470575
EXTRACT: note_on channel=9 note=59 velocity=77 time=0.014705875
EXTRACT: note_on channel=9 note=46 velocity=0 time=0.055882325
EXTRACT: control_change channel=9 control=11 value=126 time=0.026470575
EXTRACT: note_on channel=9 note=59 velocity=0 time=0.00588235
EXTRACT: note_on channel=1 note=63 velocity=0 time=0.049999974999999995
EXTRACT: note_on channel=0 note=52 velocity=0 time=0.014705875
EXTRACT: note_on channel=1 note=56 velocity=0 time=0
EXTRACT: note_on channel=1 note=59 velocity=0 time=0.0117647
EXTRACT: control_change channel=9 control=11 value=125 time=0.017647049999999997
EXTRACT: control_change channel=0 control=11 value=100 time=0.08235289999999999
EXTRACT: control_change channel=9 control=11 value=124 time=0.014705875
EXTRACT: note_on channel=6 note=71 velocity=60 time=0.0117647
EXTRACT: control_change channel=0 control=11 value=99 time=0.00588235
EXTRACT: note_on channel=1 note=56 velocity=35 time=0
EXTRACT: note_on channel=9 note=75 velocity=47 time=0.008823524999999999
EXTRACT: note_on channel=1 note=63 velocity=33 time=0.002941175
EXTRACT: note_on channel=1 note=59 velocity=44 time=0.002941175
EXTRACT: note_on channel=1 note=52 velocity=0 time=0.06470585
EXTRACT: control_change channel=9 control=11 value=123 time=0.002941175
EXTRACT: note_on channel=1 note=71 velocity=0 time=0.014705875
EXTRACT: note_on channel=9 note=75 velocity=0 time=0.0235294
EXTRACT: note_on channel=1 note=56 velocity=0 time=0.00588235
EXTRACT: note_on channel=1 note=63 velocity=0 time=0.008823524999999999
EXTRACT: note_on channel=1 note=59 velocity=0 time=0.014705875
EXTRACT: control_change channel=6 control=11 value=98 time=0.0117647
EXTRACT: note_on channel=1 note=59 velocity=64 time=0.014705875
EXTRACT: note_on channel=1 note=63 velocity=61 time=0.002941175
EXTRACT: note_on channel=1 note=56 velocity=52 time=0
EXTRACT: control_change channel=9 control=11 value=122 time=0
EXTRACT: note_on channel=6 note=71 velocity=0 time=0.008823524999999999
EXTRACT: note_on channel=9 note=46 velocity=51 time=0
EXTRACT: note_on channel=1 note=71 velocity=67 time=0.00588235
EXTRACT: note_on channel=9 note=53 velocity=44 time=0.07647055
EXTRACT: control_change channel=9 control=11 value=120 time=0.008823524999999999
EXTRACT: note_on channel=9 note=46 velocity=0 time=0.017647049999999997
EXTRACT: control_change channel=1 control=11 value=96 time=0.0470588
EXTRACT: control_change channel=1 control=11 value=95 time=0.032352925
EXTRACT: control_change channel=9 control=11 value=120 time=0.002941175
EXTRACT: control_change channel=1 control=11 value=94 time=0.026470575
EXTRACT: note_on channel=9 note=53 velocity=0 time=0.002941175
EXTRACT: control_change channel=6 control=11 value=97 time=0.038235275
EXTRACT: control_change channel=1 control=11 value=93 time=0.0235294
EXTRACT: control_change channel=9 control=11 value=119 time=0.00588235
EXTRACT: control_change channel=1 control=11 value=92 time=0.0588235
EXTRACT: note_on channel=9 note=51 velocity=54 time=0.02941175
EXTRACT: control_change channel=9 control=11 value=118 time=0.0117647
EXTRACT: control_change channel=1 control=11 value=91 time=0.020588224999999998
EXTRACT: note_on channel=1 note=63 velocity=0 time=0.008823524999999999
EXTRACT: note_on channel=1 note=56 velocity=0 time=0.002941175
EXTRACT: note_on channel=1 note=59 velocity=0 time=0.002941175
EXTRACT: note_on channel=1 note=71 velocity=0 time=0.020588224999999998
EXTRACT: note_on channel=9 note=51 velocity=0 time=0.002941175
EXTRACT: control_change channel=1 control=11 value=90 time=0.026470575
EXTRACT: control_change channel=6 control=11 value=96 time=0.008823524999999999
EXTRACT: control_change channel=9 control=11 value=117 time=0.002941175
EXTRACT: note_on channel=1 note=63 velocity=51 time=0.02941175
EXTRACT: note_on channel=1 note=52 velocity=63 time=0.008823524999999999
EXTRACT: note_on channel=9 note=46 velocity=49 time=0
EXTRACT: note_on channel=1 note=56 velocity=53 time=0.002941175
EXTRACT: note_on channel=1 note=71 velocity=58 time=0.002941175
EXTRACT: note_on channel=1 note=59 velocity=66 time=0.002941175
EXTRACT: control_change channel=1 control=11 value=89 time=0.00588235
EXTRACT: note_on channel=9 note=51 velocity=58 time=0.02941175
EXTRACT: control_change channel=9 control=11 value=116 time=0.017647049999999997
EXTRACT: control_change channel=1 control=11 value=88 time=0.014705875
EXTRACT: note_on channel=6 note=68 velocity=44 time=0.014705875
EXTRACT: note_on channel=9 note=46 velocity=0 time=0.014705875
EXTRACT: control_change channel=1 control=11 value=87 time=0.035294099999999995
EXTRACT: control_change channel=6 control=11 value=95 time=0.008823524999999999
EXTRACT: control_change channel=9 control=11 value=115 time=0.008823524999999999
EXTRACT: note_on channel=9 note=51 velocity=0 time=0.00588235
EXTRACT: note_on channel=1 note=63 velocity=0 time=0.0235294
EXTRACT: note_on channel=1 note=56 velocity=0 time=0.014705875
EXTRACT: control_change channel=1 control=11 value=86 time=0.002941175
EXTRACT: note_on channel=6 note=68 velocity=0 time=0
EXTRACT: note_on channel=1 note=59 velocity=0 time=0.008823524999999999
EXTRACT: control_change channel=9 control=11 value=114 time=0.044117625
EXTRACT: control_change channel=1 control=11 value=85 time=0.008823524999999999
EXTRACT: control_change channel=6 control=11 value=94 time=0.041176449999999996
EXTRACT: control_change channel=1 control=11 value=84 time=0.0235294
EXTRACT: note_on channel=1 note=56 velocity=31 time=0.014705875
EXTRACT: note_on channel=9 note=70 velocity=96 time=0.008823524999999999
EXTRACT: note_on channel=1 note=63 velocity=29 time=0.002941175
EXTRACT: control_change channel=9 control=11 value=113 time=0
EXTRACT: note_on channel=1 note=59 velocity=39 time=0.002941175
EXTRACT: note_on channel=1 note=52 velocity=0 time=0.06470585
EXTRACT: control_change channel=1 control=11 value=83 time=0
EXTRACT: note_on channel=1 note=71 velocity=0 time=0.017647049999999997
EXTRACT: note_on channel=0 note=52 velocity=65 time=0.0117647
EXTRACT: control_change channel=9 control=11 value=112 time=0
EXTRACT: control_change channel=0 control=11 value=98 time=0.008823524999999999
EXTRACT: control_change channel=6 control=11 value=93 time=0.00588235
EXTRACT: note_on channel=1 note=56 velocity=0 time=0.002941175
EXTRACT: note_on channel=1 note=63 velocity=0 time=0.008823524999999999
EXTRACT: note_on channel=9 note=70 velocity=0 time=0
EXTRACT: control_change channel=1 control=11 value=82 time=0.008823524999999999
EXTRACT: note_on channel=1 note=59 velocity=0 time=0.00588235
EXTRACT: note_on channel=1 note=59 velocity=56 time=0.026470575
EXTRACT: note_on channel=1 note=63 velocity=54 time=0.002941175
EXTRACT: note_on channel=1 note=56 velocity=46 time=0
EXTRACT: note_on channel=1 note=71 velocity=60 time=0.014705875
EXTRACT: control_change channel=1 control=11 value=81 time=0.014705875
EXTRACT: control_change channel=9 control=11 value=111 time=0
EXTRACT: pitchwheel channel=0 pitch=792 time=0.020588224999999998
EXTRACT: pitchwheel channel=0 pitch=1585 time=0.017647049999999997
EXTRACT: control_change channel=6 control=11 value=92 time=0.002941175
EXTRACT: pitchwheel channel=0 pitch=2642 time=0.0117647
EXTRACT: control_change channel=1 control=11 value=80 time=0.008823524999999999
EXTRACT: pitchwheel channel=0 pitch=3963 time=0.00588235
EXTRACT: pitchwheel channel=0 pitch=5284 time=0.014705875
EXTRACT: pitchwheel channel=0 pitch=6605 time=0.014705875
EXTRACT: control_change channel=9 control=11 value=110 time=0
EXTRACT: pitchwheel channel=0 pitch=7926 time=0.014705875
EXTRACT: control_change channel=1 control=11 value=79 time=0.014705875
EXTRACT: pitchwheel channel=0 pitch=8191 time=0.002941175
EXTRACT: note_on channel=9 note=60 velocity=56 time=0.017647049999999997
EXTRACT: note_on channel=9 note=46 velocity=51 time=0.002941175
EXTRACT: control_change channel=6 control=11 value=91 time=0.017647049999999997
EXTRACT: control_change channel=1 control=11 value=78 time=0.0235294
EXTRACT: control_change channel=9 control=11 value=109 time=0.00588235
EXTRACT: note_on channel=9 note=59 velocity=61 time=0.0235294
EXTRACT: note_on channel=1 note=63 velocity=0 time=0.0470588
EXTRACT: note_on channel=9 note=46 velocity=0 time=0
EXTRACT: note_on channel=1 note=56 velocity=0 time=0.002941175
EXTRACT: note_on channel=1 note=59 velocity=0 time=0.002941175
EXTRACT: note_on channel=9 note=60 velocity=0 time=0.002941175
EXTRACT: control_change channel=1 control=11 value=77 time=0.008823524999999999
EXTRACT: control_change channel=9 control=11 value=108 time=0.008823524999999999
EXTRACT: control_change channel=6 control=11 value=90 time=0.002941175
EXTRACT: note_on channel=9 note=59 velocity=0 time=0.014705875
EXTRACT: note_on channel=1 note=56 velocity=29 time=0.008823524999999999
EXTRACT: note_on channel=9 note=53 velocity=44 time=0.00588235
EXTRACT: note_on channel=1 note=63 velocity=28 time=0.00588235
EXTRACT: note_on channel=1 note=59 velocity=37 time=0.002941175
EXTRACT: control_change channel=1 control=11 value=76 time=0.014705875
EXTRACT: control_change channel=0 control=11 value=97 time=0.038235275
EXTRACT: control_change channel=6 control=11 value=89 time=0.002941175
EXTRACT: control_change channel=9 control=11 value=107 time=0.002941175
EXTRACT: control_change channel=1 control=11 value=75 time=0.020588224999999998
EXTRACT: note_on channel=1 note=71 velocity=0 time=0.008823524999999999
EXTRACT: note_on channel=9 note=53 velocity=0 time=0.00588235
EXTRACT: note_on channel=1 note=56 velocity=0 time=0.017647049999999997
EXTRACT: note_on channel=1 note=63 velocity=0 time=0.008823524999999999
EXTRACT: note_on channel=1 note=59 velocity=0 time=0.014705875
EXTRACT: control_change channel=1 control=11 value=74 time=0.00588235
EXTRACT: control_change channel=6 control=11 value=88 time=0.008823524999999999
EXTRACT: note_on channel=1 note=63 velocity=45 time=0.008823524999999999
EXTRACT: control_change channel=9 control=11 value=106 time=0
EXTRACT: note_on channel=1 note=52 velocity=55 time=0.008823524999999999
EXTRACT: note_on channel=1 note=56 velocity=47 time=0.002941175
EXTRACT: note_on channel=9 note=82 velocity=49 time=0
EXTRACT: note_on channel=9 note=64 velocity=43 time=0
EXTRACT: note_on channel=1 note=71 velocity=51 time=0.002941175
EXTRACT: note_on channel=1 note=59 velocity=58 time=0.002941175
EXTRACT: control_change channel=1 control=11 value=73 time=0.061764675
EXTRACT: control_change channel=9 control=11 value=105 time=0.017647049999999997
EXTRACT: control_change channel=6 control=11 value=87 time=0.0235294
EXTRACT: control_change channel=1 control=11 value=72 time=0.020588224999999998
EXTRACT: note_on channel=9 note=82 velocity=0 time=0.002941175
EXTRACT: note_on channel=9 note=64 velocity=0 time=0.032352925
EXTRACT: note_on channel=9 note=46 velocity=49 time=0.008823524999999999
EXTRACT: note_on channel=1 note=63 velocity=0 time=0.0117647
EXTRACT: control_change channel=9 control=11 value=104 time=0
EXTRACT: control_change channel=1 control=11 value=71 time=0.008823524999999999
EXTRACT: note_on channel=1 note=56 velocity=0 time=0.00588235
EXTRACT: control_change channel=6 control=11 value=86 time=0.002941175
EXTRACT: pitchwheel channel=0 pitch=7662 time=0.00588235
EXTRACT: note_on channel=1 note=59 velocity=0 time=0.002941175
EXTRACT: pitchwheel channel=0 pitch=6077 time=0.0117647
EXTRACT: pitchwheel channel=0 pitch=4491 time=0.014705875
EXTRACT: pitchwheel channel=0 pitch=2906 time=0.014705875
EXTRACT: control_change channel=0 control=11 value=96 time=0.0117647
EXTRACT: pitchwheel channel=0 pitch=1585 time=0.00588235
EXTRACT: note_on channel=9 note=46 velocity=0 time=0.00588235
EXTRACT: control_change channel=9 control=11 value=103 time=0.00588235
EXTRACT: pitchwheel channel=0 pitch=792 time=0.002941175
EXTRACT: note_on channel=0 note=47 velocity=54 time=0.002941175
EXTRACT: control_change channel=1 control=11 value=70 time=0.002941175
EXTRACT: pitchwheel channel=0 pitch=264 time=0.008823524999999999
EXTRACT: control_change channel=6 control=11 value=85 time=0
EXTRACT: pitchwheel channel=0 pitch=0 time=0.014705875
EXTRACT: note_on channel=1 note=56 velocity=27 time=0.02941175
EXTRACT: pitchwheel channel=0 pitch=264 time=0.002941175
EXTRACT: control_change channel=1 control=11 value=69 time=0.00588235
EXTRACT: note_on channel=1 note=63 velocity=26 time=0.002941175
EXTRACT: note_on channel=1 note=59 velocity=34 time=0.002941175
EXTRACT: pitchwheel channel=0 pitch=792 time=0.002941175
EXTRACT: note_on channel=0 note=52 velocity=0 time=0.00588235
EXTRACT: pitchwheel channel=0 pitch=1849 time=0.008823524999999999
EXTRACT: control_change channel=9 control=11 value=102 time=0.00588235
EXTRACT: pitchwheel channel=0 pitch=3170 time=0.008823524999999999
EXTRACT: control_change channel=6 control=11 value=84 time=0.002941175
EXTRACT: pitchwheel channel=0 pitch=4756 time=0.0117647
EXTRACT: control_change channel=1 control=11 value=68 time=0.0117647
EXTRACT: pitchwheel channel=0 pitch=6341 time=0.00588235
EXTRACT: note_on channel=1 note=52 velocity=0 time=0
EXTRACT: pitchwheel channel=0 pitch=7398 time=0.014705875
EXTRACT: note_on channel=1 note=71 velocity=0 time=0.002941175
EXTRACT: pitchwheel channel=0 pitch=8191 time=0.0117647
EXTRACT: control_change channel=6 control=11 value=83 time=0.00588235
EXTRACT: note_on channel=1 note=56 velocity=0 time=0.0117647
EXTRACT: note_on channel=1 note=63 velocity=0 time=0.008823524999999999
EXTRACT: control_change channel=9 control=11 value=101 time=0
EXTRACT: note_on channel=1 note=59 velocity=0 time=0.014705875
EXTRACT: control_change channel=1 control=11 value=67 time=0.017647049999999997
EXTRACT: note_on channel=1 note=59 velocity=50 time=0.008823524999999999
EXTRACT: note_on channel=1 note=63 velocity=48 time=0.002941175
EXTRACT: note_on channel=1 note=56 velocity=41 time=0
EXTRACT: note_on channel=1 note=71 velocity=53 time=0.014705875
EXTRACT: control_change channel=6 control=11 value=82 time=0.014705875
EXTRACT: control_change channel=1 control=11 value=66 time=0.0235294
EXTRACT: control_change channel=9 control=11 value=100 time=0.002941175
EXTRACT: control_change channel=0 control=11 value=95 time=0.002941175
EXTRACT: control_change channel=6 control=11 value=81 time=0.035294099999999995
EXTRACT: control_change channel=1 control=11 value=65 time=0.0235294
EXTRACT: control_change channel=9 control=11 value=99 time=0.035294099999999995
EXTRACT: note_on channel=6 note=63 velocity=31 time=0.00588235
EXTRACT: control_change channel=6 control=11 value=80 time=0.032352925
EXTRACT: control_change channel=1 control=11 value=64 time=0.020588224999999998
EXTRACT: note_on channel=9 note=59 velocity=60 time=0.014705875
EXTRACT: note_on channel=6 note=63 velocity=0 time=0.026470575
EXTRACT: control_change channel=6 control=11 value=79 time=0
EXTRACT: control_change channel=9 control=11 value=98 time=0
EXTRACT: control_change channel=1 control=11 value=63 time=0.0235294
EXTRACT: control_change channel=0 control=11 value=94 time=0.038235275
EXTRACT: note_on channel=9 note=59 velocity=0 time=0
EXTRACT: control_change channel=6 control=11 value=78 time=0.035294099999999995
EXTRACT: control_change channel=9 control=11 value=97 time=0.002941175
EXTRACT: control_change channel=1 control=11 value=62 time=0.017647049999999997
EXTRACT: note_on channel=9 note=51 velocity=43 time=0.038235275
EXTRACT: control_change channel=6 control=11 value=77 time=0.002941175
EXTRACT: note_on channel=1 note=63 velocity=0 time=0.014705875
EXTRACT: note_on channel=1 note=56 velocity=0 time=0.002941175
EXTRACT: note_on channel=1 note=59 velocity=0 time=0.002941175
EXTRACT: control_change channel=1 control=11 value=61 time=0.002941175
EXTRACT: control_change channel=9 control=11 value=96 time=0.014705875
EXTRACT: note_on channel=1 note=71 velocity=0 time=0.002941175
EXTRACT: control_change channel=6 control=11 value=76 time=0.0235294
EXTRACT: note_on channel=1 note=63 velocity=40 time=0.0470588
EXTRACT: note_on channel=9 note=51 velocity=0 time=0
EXTRACT: control_change channel=1 control=11 value=60 time=0.00588235
EXTRACT: note_on channel=1 note=52 velocity=49 time=0.002941175
EXTRACT: note_on channel=1 note=56 velocity=42 time=0.002941175
EXTRACT: note_on channel=1 note=71 velocity=46 time=0.002941175
EXTRACT: note_on channel=1 note=59 velocity=52 time=0.002941175
EXTRACT: control_change channel=9 control=11 value=95 time=0.008823524999999999
EXTRACT: control_change channel=0 control=11 value=93 time=0.017647049999999997
EXTRACT: control_change channel=6 control=11 value=75 time=0.00588235
EXTRACT: control_change channel=1 control=11 value=59 time=0.020588224999999998
EXTRACT: control_change channel=6 control=11 value=74 time=0.041176449999999996
EXTRACT: control_change channel=9 control=11 value=94 time=0.0117647
EXTRACT: control_change channel=1 control=11 value=58 time=0.044117625
EXTRACT: note_on channel=9 note=53 velocity=39 time=0.00588235
EXTRACT: control_change channel=6 control=11 value=73 time=0.002941175
EXTRACT: note_on channel=1 note=63 velocity=0 time=0.020588224999999998
EXTRACT: note_on channel=1 note=56 velocity=0 time=0.014705875
EXTRACT: note_on channel=1 note=59 velocity=0 time=0.0117647
EXTRACT: control_change channel=9 control=11 value=93 time=0
EXTRACT: control_change channel=6 control=11 value=72 time=0.017647049999999997
EXTRACT: control_change channel=1 control=11 value=57 time=0.020588224999999998
EXTRACT: note_on channel=9 note=53 velocity=0 time=0.02941175
EXTRACT: control_change channel=0 control=11 value=92 time=0.008823524999999999
EXTRACT: control_change channel=6 control=11 value=71 time=0.002941175
EXTRACT: control_change channel=9 control=11 value=92 time=0.017647049999999997
EXTRACT: control_change channel=1 control=11 value=56 time=0.00588235
EXTRACT: note_on channel=1 note=56 velocity=24 time=0.02941175
EXTRACT: note_on channel=1 note=63 velocity=23 time=0.0117647
EXTRACT: control_change channel=6 control=11 value=70 time=0
EXTRACT: note_on channel=1 note=59 velocity=30 time=0.002941175
EXTRACT: control_change channel=1 control=11 value=55 time=0.049999974999999995
EXTRACT: control_change channel=9 control=11 value=91 time=0
EXTRACT: control_change channel=6 control=11 value=69 time=0.0117647
EXTRACT: note_on channel=1 note=52 velocity=0 time=0.002941175
EXTRACT: note_on channel=1 note=71 velocity=0 time=0.017647049999999997
EXTRACT: note_on channel=1 note=56 velocity=0 time=0.02941175
EXTRACT: control_change channel=0 control=11 value=91 time=0.008823524999999999
EXTRACT: note_on channel=1 note=63 velocity=0 time=0
EXTRACT: control_change channel=6 control=11 value=68 time=0.002941175
EXTRACT: note_on channel=1 note=59 velocity=0 time=0.0117647
EXTRACT: control_change channel=1 control=11 value=54 time=0.0117647
EXTRACT: control_change channel=9 control=11 value=90 time=0.002941175
EXTRACT: note_on channel=1 note=59 velocity=44 time=0.0117647
EXTRACT: note_on channel=1 note=63 velocity=42 time=0.002941175
EXTRACT: note_on channel=1 note=56 velocity=36 time=0
EXTRACT: note_on channel=1 note=71 velocity=47 time=0.014705875
EXTRACT: control_change channel=6 control=11 value=67 time=0.008823524999999999
EXTRACT: control_change channel=1 control=11 value=53 time=0.020588224999999998
EXTRACT: control_change channel=9 control=11 value=89 time=0.038235275
EXTRACT: control_change channel=6 control=11 value=66 time=0.002941175
EXTRACT: control_change channel=1 control=11 value=52 time=0.055882325
EXTRACT: control_change channel=6 control=11 value=65 time=0.008823524999999999
EXTRACT: control_change channel=0 control=11 value=90 time=0.02941175
EXTRACT: control_change channel=9 control=11 value=88 time=0.002941175
EXTRACT: note_on channel=9 note=51 velocity=45 time=0.026470575
EXTRACT: control_change channel=6 control=11 value=64 time=0.00588235
EXTRACT: control_change channel=1 control=11 value=51 time=0.020588224999999998
EXTRACT: pitchwheel channel=0 pitch=7926 time=0.035294099999999995
EXTRACT: control_change channel=6 control=11 value=63 time=0.00588235
EXTRACT: control_change channel=9 control=11 value=87 time=0.002941175
EXTRACT: note_on channel=1 note=63 velocity=0 time=0.017647049999999997
EXTRACT: note_on channel=1 note=56 velocity=0 time=0.002941175
EXTRACT: pitchwheel channel=0 pitch=7662 time=0.002941175
EXTRACT: note_on channel=1 note=59 velocity=0 time=0
EXTRACT: control_change channel=6 control=11 value=62 time=0.00588235
EXTRACT: note_on channel=9 note=51 velocity=0 time=0.014705875
EXTRACT: control_change channel=1 control=11 value=50 time=0.008823524999999999
EXTRACT: pitchwheel channel=0 pitch=7398 time=0.002941175
EXTRACT: note_on channel=1 note=56 velocity=23 time=0.014705875
EXTRACT: note_on channel=1 note=63 velocity=21 time=0.0117647
EXTRACT: pitchwheel channel=0 pitch=7134 time=0.002941175
EXTRACT: note_on channel=1 note=59 velocity=28 time=0
EXTRACT: control_change channel=0 control=11 value=89 time=0.00588235
EXTRACT: control_change channel=6 control=11 value=61 time=0.002941175
EXTRACT: control_change channel=9 control=11 value=86 time=0.00588235
EXTRACT: pitchwheel channel=0 pitch=6869 time=0.002941175
EXTRACT: pitchwheel channel=0 pitch=6605 time=0.014705875
EXTRACT: pitchwheel channel=0 pitch=6077 time=0.014705875
EXTRACT: pitchwheel channel=0 pitch=5812 time=0.014705875
EXTRACT: control_change channel=1 control=11 value=49 time=0
EXTRACT: control_change channel=6 control=11 value=60 time=0.0117647
EXTRACT: pitchwheel channel=0 pitch=5548 time=0.00588235
EXTRACT: note_on channel=1 note=71 velocity=0 time=0.008823524999999999
EXTRACT: pitchwheel channel=0 pitch=5020 time=0.00588235
EXTRACT: pitchwheel channel=0 pitch=4756 time=0.014705875
EXTRACT: note_on channel=1 note=56 velocity=0 time=0.002941175
EXTRACT: control_change channel=9 control=11 value=85 time=0
EXTRACT: note_on channel=1 note=63 velocity=0 time=0.008823524999999999
EXTRACT: pitchwheel channel=0 pitch=4491 time=0.00588235
EXTRACT: control_change channel=1 control=11 value=48 time=0
EXTRACT: note_on channel=1 note=59 velocity=0 time=0.008823524999999999
EXTRACT: control_change channel=6 control=11 value=59 time=0
EXTRACT: pitchwheel channel=0 pitch=4227 time=0.00588235
EXTRACT: pitchwheel channel=0 pitch=3699 time=0.014705875
EXTRACT: note_on channel=1 note=63 velocity=35 time=0.002941175
EXTRACT: control_change channel=0 control=11 value=88 time=0.00588235
EXTRACT: note_on channel=1 note=52 velocity=43 time=0.002941175
EXTRACT: control_change channel=6 control=11 value=58 time=0
EXTRACT: pitchwheel channel=0 pitch=3434 time=0.002941175
EXTRACT: note_on channel=1 note=56 velocity=37 time=0
EXTRACT: note_on channel=1 note=71 velocity=40 time=0.002941175
EXTRACT: note_on channel=1 note=59 velocity=45 time=0.002941175
EXTRACT: pitchwheel channel=0 pitch=3170 time=0.0117647
EXTRACT: pitchwheel channel=0 pitch=2642 time=0.014705875
EXTRACT: control_change channel=9 control=11 value=84 time=0.008823524999999999
EXTRACT: pitchwheel channel=0 pitch=2378 time=0.00588235
EXTRACT: control_change channel=1 control=11 value=47 time=0.002941175
EXTRACT: control_change channel=6 control=11 value=57 time=0.0117647
EXTRACT: pitchwheel channel=0 pitch=2113 time=0.017647049999999997
EXTRACT: note_on channel=9 note=59 velocity=46 time=0.0117647
EXTRACT: pitchwheel channel=0 pitch=1585 time=0.020588224999999998
EXTRACT: control_change channel=6 control=11 value=56 time=0.0117647
EXTRACT: pitchwheel channel=0 pitch=1321 time=0.002941175
EXTRACT: control_change channel=9 control=11 value=83 time=0.0117647
EXTRACT: pitchwheel channel=0 pitch=1056 time=0.002941175
EXTRACT: control_change channel=1 control=11 value=46 time=0.00588235
EXTRACT: control_change channel=6 control=11 value=55 time=0.008823524999999999
EXTRACT: pitchwheel channel=0 pitch=792 time=0.014705875
EXTRACT: control_change channel=0 control=11 value=87 time=0.014705875
EXTRACT: pitchwheel channel=0 pitch=528 time=0
EXTRACT: note_on channel=1 note=63 velocity=0 time=0
EXTRACT: note_on channel=1 note=56 velocity=0 time=0.014705875
EXTRACT: note_on channel=1 note=59 velocity=0 time=0.0117647
EXTRACT: note_on channel=6 note=56 velocity=19 time=0
EXTRACT: pitchwheel channel=0 pitch=264 time=0.00588235
EXTRACT: note_on channel=9 note=59 velocity=0 time=0
EXTRACT: control_change channel=6 control=11 value=54 time=0.002941175
EXTRACT: pitchwheel channel=0 pitch=0 time=0.014705875
EXTRACT: control_change channel=9 control=11 value=82 time=0.002941175
EXTRACT: control_change channel=1 control=11 value=45 time=0.002941175
EXTRACT: control_change channel=6 control=11 value=53 time=0.044117625
EXTRACT: pitchwheel channel=0 pitch=0 time=0.0117647
EXTRACT: note_on channel=6 note=56 velocity=0 time=0.008823524999999999
EXTRACT: control_change channel=6 control=11 value=52 time=0.008823524999999999
EXTRACT: control_change channel=1 control=11 value=44 time=0.0235294
EXTRACT: control_change channel=9 control=11 value=81 time=0
EXTRACT: control_change channel=0 control=11 value=86 time=0.00588235
EXTRACT: note_on channel=1 note=56 velocity=21 time=0
EXTRACT: note_on channel=1 note=63 velocity=20 time=0.0117647
EXTRACT: note_on channel=1 note=59 velocity=27 time=0.002941175
EXTRACT: control_change channel=6 control=11 value=51 time=0.020588224999999998
EXTRACT: control_change channel=6 control=11 value=50 time=0.032352925
EXTRACT: note_on channel=1 note=52 velocity=0 time=0.0117647
EXTRACT: control_change channel=1 control=11 value=43 time=0.008823524999999999
EXTRACT: control_change channel=9 control=11 value=80 time=0.002941175
EXTRACT: note_on channel=1 note=71 velocity=0 time=0.00588235
EXTRACT: note_on channel=1 note=56 velocity=0 time=0.02941175
EXTRACT: control_change channel=6 control=11 value=49 time=0.00588235
EXTRACT: note_on channel=1 note=63 velocity=0 time=0.002941175
EXTRACT: note_on channel=1 note=59 velocity=0 time=0.014705875
EXTRACT: control_change channel=0 control=11 value=85 time=0.008823524999999999
EXTRACT: control_change channel=6 control=11 value=48 time=0.002941175
EXTRACT: note_on channel=1 note=59 velocity=39 time=0.014705875
EXTRACT: note_on channel=1 note=63 velocity=37 time=0.002941175
EXTRACT: note_on channel=1 note=56 velocity=32 time=0
EXTRACT: control_change channel=9 control=11 value=79 time=0.0117647
EXTRACT: note_on channel=1 note=71 velocity=41 time=0.002941175
EXTRACT: control_change channel=1 control=11 value=42 time=0.0235294
EXTRACT: control_change channel=6 control=11 value=47 time=0.008823524999999999
EXTRACT: note_on channel=9 note=53 velocity=34 time=0.008823524999999999
EXTRACT: control_change channel=6 control=11 value=46 time=0.0235294
EXTRACT: control_change channel=9 control=11 value=78 time=0.02941175
EXTRACT: control_change channel=1 control=11 value=41 time=0.0235294
EXTRACT: control_change channel=0 control=11 value=84 time=0.00588235
EXTRACT: control_change channel=6 control=11 value=45 time=0.00588235
EXTRACT: control_change channel=6 control=11 value=44 time=0.02941175
EXTRACT: note_on channel=9 note=53 velocity=0 time=0.017647049999999997
EXTRACT: control_change channel=9 control=11 value=77 time=0.017647049999999997
EXTRACT: control_change channel=1 control=11 value=40 time=0.020588224999999998
EXTRACT: control_change channel=6 control=11 value=43 time=0.008823524999999999
EXTRACT: control_change channel=6 control=11 value=42 time=0.032352925
EXTRACT: control_change channel=0 control=11 value=83 time=0.026470575
EXTRACT: control_change channel=9 control=11 value=76 time=0.008823524999999999
EXTRACT: control_change channel=1 control=11 value=39 time=0.017647049999999997
EXTRACT: control_change channel=6 control=11 value=41 time=0.0117647
EXTRACT: control_change channel=6 control=11 value=40 time=0.02941175
EXTRACT: control_change channel=6 control=11 value=39 time=0.032352925
EXTRACT: control_change channel=9 control=11 value=75 time=0.008823524999999999
EXTRACT: control_change channel=1 control=11 value=38 time=0.014705875
EXTRACT: control_change channel=0 control=11 value=82 time=0.00588235
EXTRACT: note_on channel=1 note=63 velocity=0 time=0
EXTRACT: note_on channel=1 note=56 velocity=0 time=0.002941175
EXTRACT: note_on channel=1 note=59 velocity=0 time=0.002941175
EXTRACT: note_on channel=1 note=71 velocity=0 time=0.020588224999999998
EXTRACT: control_change channel=6 control=11 value=38 time=0.008823524999999999
EXTRACT: control_change channel=6 control=11 value=37 time=0.032352925
EXTRACT: control_change channel=9 control=11 value=74 time=0.0117647
EXTRACT: note_on channel=1 note=63 velocity=31 time=0.017647049999999997
EXTRACT: note_on channel=1 note=52 velocity=39 time=0.008823524999999999
EXTRACT: note_on channel=1 note=56 velocity=33 time=0.002941175
EXTRACT: note_on channel=1 note=71 velocity=36 time=0.002941175
EXTRACT: note_on channel=1 note=59 velocity=41 time=0.002941175
EXTRACT: control_change channel=1 control=11 value=37 time=0.00588235
EXTRACT: control_change channel=6 control=11 value=36 time=0.008823524999999999
EXTRACT: control_change channel=0 control=11 value=81 time=0.02941175
EXTRACT: control_change channel=6 control=11 value=35 time=0.002941175
EXTRACT: control_change channel=9 control=11 value=73 time=0.014705875
EXTRACT: control_change channel=6 control=11 value=34 time=0.017647049999999997
EXTRACT: note_on channel=0 note=28 velocity=36 time=0.008823524999999999
EXTRACT: control_change channel=1 control=11 value=36 time=0.014705875
EXTRACT: control_change channel=6 control=11 value=33 time=0.041176449999999996
EXTRACT: note_on channel=0 note=47 velocity=0 time=0.008823524999999999
EXTRACT: control_change channel=9 control=11 value=72 time=0.008823524999999999
EXTRACT: control_change channel=0 control=11 value=80 time=0.008823524999999999
EXTRACT: control_change channel=6 control=11 value=32 time=0.002941175
EXTRACT: note_on channel=1 note=63 velocity=0 time=0.00588235
EXTRACT: note_on channel=1 note=56 velocity=0 time=0.014705875
EXTRACT: note_on channel=1 note=59 velocity=0 time=0.0117647
EXTRACT: control_change channel=6 control=11 value=31 time=0
EXTRACT: control_change channel=1 control=11 value=35 time=0.0235294
EXTRACT: control_change channel=9 control=11 value=71 time=0.02941175
EXTRACT: control_change channel=6 control=11 value=30 time=0.0117647
EXTRACT: control_change channel=0 control=11 value=79 time=0.02941175
EXTRACT: control_change channel=6 control=11 value=29 time=0.002941175
EXTRACT: control_change channel=1 control=11 value=34 time=0.020588224999999998
EXTRACT: control_change channel=6 control=11 value=28 time=0.0117647
EXTRACT: note_on channel=1 note=56 velocity=19 time=0.002941175
EXTRACT: note_on channel=1 note=63 velocity=18 time=0.0117647
EXTRACT: note_on channel=1 note=59 velocity=24 time=0.002941175
EXTRACT: control_change channel=9 control=11 value=70 time=0.00588235
EXTRACT: note_on channel=9 note=51 velocity=26 time=0.026470575
EXTRACT: control_change channel=6 control=11 value=27 time=0.0117647
EXTRACT: note_on channel=1 note=52 velocity=0 time=0.020588224999999998
EXTRACT: control_change channel=0 control=11 value=78 time=0.008823524999999999
EXTRACT: control_change channel=6 control=11 value=26 time=0.002941175
EXTRACT: note_on channel=1 note=71 velocity=0 time=0.00588235
EXTRACT: note_on channel=9 note=51 velocity=0 time=0.0117647
EXTRACT: control_change channel=1 control=11 value=33 time=0.00588235
EXTRACT: control_change channel=9 control=11 value=69 time=0.002941175
EXTRACT: control_change channel=6 control=11 value=25 time=0.00588235
EXTRACT: note_on channel=1 note=56 velocity=0 time=0.002941175
EXTRACT: note_on channel=1 note=63 velocity=0 time=0.008823524999999999
EXTRACT: note_on channel=1 note=59 velocity=0 time=0.014705875
EXTRACT: control_change channel=6 control=11 value=24 time=0.00588235
EXTRACT: note_on channel=1 note=59 velocity=35 time=0.020588224999999998
EXTRACT: note_on channel=1 note=63 velocity=33 time=0.002941175
EXTRACT: note_on channel=1 note=56 velocity=28 time=0
EXTRACT: note_on channel=1 note=71 velocity=37 time=0.014705875
EXTRACT: control_change channel=1 control=11 value=32 time=0.014705875
EXTRACT: control_change channel=0 control=11 value=77 time=0.00588235
EXTRACT: control_change channel=6 control=11 value=23 time=0.002941175
EXTRACT: control_change channel=9 control=11 value=68 time=0
EXTRACT: control_change channel=6 control=11 value=22 time=0.032352925
EXTRACT: note_on channel=9 note=51 velocity=27 time=0.026470575
EXTRACT: control_change channel=6 control=11 value=21 time=0.00588235
EXTRACT: control_change channel=6 control=11 value=20 time=0.032352925
EXTRACT: control_change channel=9 control=11 value=67 time=0.002941175
EXTRACT: control_change channel=1 control=11 value=31 time=0.017647049999999997
EXTRACT: control_change channel=0 control=11 value=76 time=0.008823524999999999
EXTRACT: control_change channel=6 control=11 value=19 time=0.002941175
EXTRACT: note_on channel=9 note=51 velocity=0 time=0.0470588
EXTRACT: control_change channel=6 control=11 value=18 time=0.014705875
EXTRACT: control_change channel=9 control=11 value=66 time=0.00588235
EXTRACT: control_change channel=6 control=11 value=17 time=0.026470575
EXTRACT: control_change channel=1 control=11 value=30 time=0.0235294
EXTRACT: control_change channel=0 control=11 value=75 time=0.00588235
EXTRACT: control_change channel=6 control=11 value=16 time=0.002941175
EXTRACT: note_on channel=1 note=63 velocity=0 time=0.002941175
EXTRACT: note_on channel=1 note=56 velocity=0 time=0.002941175
EXTRACT: note_on channel=1 note=59 velocity=0 time=0.002941175
EXTRACT: control_change channel=6 control=11 value=15 time=0.0235294
EXTRACT: control_change channel=9 control=11 value=65 time=0.008823524999999999
EXTRACT: note_on channel=1 note=56 velocity=18 time=0.014705875
EXTRACT: control_change channel=6 control=11 value=14 time=0.008823524999999999
EXTRACT: note_on channel=1 note=63 velocity=17 time=0.002941175
EXTRACT: note_on channel=1 note=59 velocity=23 time=0.002941175
EXTRACT: control_change channel=1 control=11 value=29 time=0.0470588
EXTRACT: control_change channel=0 control=11 value=74 time=0.00588235
EXTRACT: control_change channel=6 control=11 value=13 time=0.002941175
EXTRACT: control_change channel=9 control=11 value=64 time=0.0117647
EXTRACT: note_on channel=1 note=71 velocity=0 time=0.020588224999999998
EXTRACT: control_change channel=6 control=11 value=12 time=0
EXTRACT: note_on channel=1 note=56 velocity=0 time=0.0235294
EXTRACT: note_on channel=1 note=63 velocity=0 time=0.008823524999999999
EXTRACT: control_change channel=6 control=11 value=11 time=0
EXTRACT: note_on channel=9 note=53 velocity=25 time=0.002941175
EXTRACT: note_on channel=1 note=59 velocity=0 time=0.0117647
EXTRACT: control_change channel=6 control=11 value=10 time=0.017647049999999997
EXTRACT: note_on channel=1 note=63 velocity=28 time=0.00588235
EXTRACT: note_on channel=1 note=52 velocity=34 time=0.008823524999999999
EXTRACT: control_change channel=9 control=11 value=63 time=0
EXTRACT: note_on channel=1 note=56 velocity=29 time=0.002941175
EXTRACT: note_on channel=1 note=71 velocity=32 time=0.002941175
EXTRACT: control_change channel=1 control=11 value=28 time=0
EXTRACT: note_on channel=1 note=59 velocity=36 time=0.002941175
EXTRACT: control_change channel=0 control=11 value=73 time=0.002941175
EXTRACT: control_change channel=6 control=11 value=9 time=0.00588235
EXTRACT: control_change channel=6 control=11 value=8 time=0.032352925
EXTRACT: note_on channel=9 note=53 velocity=0 time=0.0235294
EXTRACT: control_change channel=9 control=11 value=62 time=0.0235294
EXTRACT: control_change channel=0 control=11 value=72 time=0.0117647
EXTRACT: control_change channel=6 control=11 value=7 time=0.002941175
EXTRACT: control_change channel=1 control=11 value=27 time=0.0235294
EXTRACT: control_change channel=6 control=11 value=6 time=0.008823524999999999
EXTRACT: control_change channel=6 control=11 value=5 time=0.032352925
EXTRACT: note_on channel=9 note=59 velocity=33 time=0.002941175
EXTRACT: note_on channel=1 note=63 velocity=0 time=0.008823524999999999
EXTRACT: control_change channel=9 control=11 value=61 time=0.008823524999999999
EXTRACT: note_on channel=1 note=56 velocity=0 time=0.00588235
EXTRACT: control_change channel=6 control=11 value=4 time=0.00588235
EXTRACT: note_on channel=1 note=59 velocity=0 time=0.00588235
EXTRACT: control_change channel=0 control=11 value=71 time=0.020588224999999998
EXTRACT: control_change channel=6 control=11 value=3 time=0.00588235
EXTRACT: control_change channel=1 control=11 value=26 time=0.020588224999999998
EXTRACT: control_change channel=6 control=11 value=2 time=0.008823524999999999
EXTRACT: note_on channel=9 note=59 velocity=0 time=0.0235294
EXTRACT: control_change channel=9 control=11 value=60 time=0
EXTRACT: control_change channel=6 control=11 value=1 time=0.008823524999999999
EXTRACT: control_change channel=0 control=11 value=70 time=0.02941175
EXTRACT: control_change channel=6 control=11 value=0 time=0.002941175
EXTRACT: note_on channel=1 note=56 velocity=17 time=0.0117647
EXTRACT: note_on channel=1 note=63 velocity=16 time=0.0117647
EXTRACT: note_on channel=1 note=59 velocity=21 time=0.002941175
EXTRACT: control_change channel=9 control=11 value=59 time=0.032352925
EXTRACT: control_change channel=1 control=11 value=25 time=0.026470575
EXTRACT: note_on channel=1 note=52 velocity=0 time=0.00588235
EXTRACT: note_on channel=1 note=71 velocity=0 time=0.017647049999999997
EXTRACT: control_change channel=0 control=11 value=69 time=0.014705875
EXTRACT: note_on channel=1 note=56 velocity=0 time=0.014705875
EXTRACT: note_on channel=1 note=63 velocity=0 time=0.008823524999999999
EXTRACT: control_change channel=9 control=11 value=58 time=0.0117647
EXTRACT: note_on channel=1 note=59 velocity=0 time=0.002941175
EXTRACT: note_on channel=1 note=59 velocity=31 time=0.026470575
EXTRACT: note_on channel=1 note=63 velocity=30 time=0.002941175
EXTRACT: note_on channel=1 note=56 velocity=25 time=0
EXTRACT: note_on channel=1 note=71 velocity=33 time=0.014705875
EXTRACT: control_change channel=1 control=11 value=24 time=0.008823524999999999
EXTRACT: control_change channel=0 control=11 value=68 time=0.00588235
EXTRACT: control_change channel=9 control=11 value=57 time=0.035294099999999995
EXTRACT: control_change channel=0 control=11 value=67 time=0.0588235
EXTRACT: control_change channel=9 control=11 value=56 time=0.041176449999999996
EXTRACT: control_change channel=1 control=11 value=23 time=0.017647049999999997
EXTRACT: control_change channel=0 control=11 value=66 time=0.067647025
EXTRACT: control_change channel=9 control=11 value=55 time=0.0117647
EXTRACT: control_change channel=1 control=11 value=22 time=0.0470588
EXTRACT: control_change channel=0 control=11 value=65 time=0.038235275
EXTRACT: control_change channel=9 control=11 value=54 time=0.014705875
EXTRACT: note_on channel=1 note=63 velocity=0 time=0.06470585
EXTRACT: note_on channel=1 note=56 velocity=0 time=0.002941175
EXTRACT: note_on channel=1 note=59 velocity=0 time=0.002941175
EXTRACT: control_change channel=0 control=11 value=64 time=0.008823524999999999
EXTRACT: note_on channel=1 note=71 velocity=0 time=0.0117647
EXTRACT: control_change channel=9 control=11 value=53 time=0.00588235
EXTRACT: control_change channel=1 control=11 value=21 time=0.008823524999999999
EXTRACT: note_on channel=1 note=63 velocity=25 time=0.055882325
EXTRACT: note_on channel=1 note=52 velocity=31 time=0.008823524999999999
EXTRACT: note_on channel=1 note=56 velocity=26 time=0.002941175
EXTRACT: control_change channel=0 control=11 value=63 time=0.002941175
EXTRACT: note_on channel=1 note=71 velocity=29 time=0
EXTRACT: note_on channel=1 note=59 velocity=33 time=0.002941175
EXTRACT: note_on channel=9 note=51 velocity=22 time=0.008823524999999999
EXTRACT: control_change channel=9 control=11 value=52 time=0.008823524999999999
EXTRACT: control_change channel=1 control=11 value=20 time=0.067647025
EXTRACT: control_change channel=0 control=11 value=62 time=0.00588235
EXTRACT: note_on channel=9 note=51 velocity=0 time=0.00588235
EXTRACT: control_change channel=9 control=11 value=51 time=0.020588224999999998
EXTRACT: note_on channel=1 note=63 velocity=0 time=0.061764675
EXTRACT: control_change channel=0 control=11 value=61 time=0.008823524999999999
EXTRACT: note_on channel=1 note=56 velocity=0 time=0.00588235
EXTRACT: note_on channel=1 note=59 velocity=0 time=0.0117647
EXTRACT: control_change channel=9 control=11 value=50 time=0.008823524999999999
EXTRACT: control_change channel=1 control=11 value=19 time=0.02941175
EXTRACT: control_change channel=0 control=11 value=60 time=0.038235275
EXTRACT: control_change channel=9 control=11 value=49 time=0.032352925
EXTRACT: note_on channel=1 note=56 velocity=15 time=0.0235294
EXTRACT: note_on channel=1 note=63 velocity=14 time=0.0117647
EXTRACT: note_on channel=1 note=59 velocity=19 time=0.002941175
EXTRACT: control_change channel=0 control=11 value=59 time=0.026470575
EXTRACT: control_change channel=9 control=11 value=48 time=0.032352925
EXTRACT: note_on channel=1 note=52 velocity=0 time=0.00588235
EXTRACT: note_on channel=1 note=71 velocity=0 time=0.017647049999999997
EXTRACT: control_change channel=1 control=11 value=18 time=0
EXTRACT: note_on channel=1 note=56 velocity=0 time=0.02941175
EXTRACT: control_change channel=0 control=11 value=58 time=0.008823524999999999
EXTRACT: note_on channel=1 note=63 velocity=0 time=0
EXTRACT: note_on channel=1 note=59 velocity=0 time=0.014705875
EXTRACT: control_change channel=9 control=11 value=47 time=0.0235294
EXTRACT: note_on channel=1 note=59 velocity=28 time=0.002941175
EXTRACT: note_on channel=1 note=63 velocity=27 time=0.002941175
EXTRACT: note_on channel=1 note=56 velocity=23 time=0
EXTRACT: note_on channel=1 note=71 velocity=30 time=0.014705875
EXTRACT: control_change channel=0 control=11 value=57 time=0.038235275
EXTRACT: control_change channel=9 control=11 value=46 time=0.038235275
EXTRACT: control_change channel=1 control=11 value=17 time=0.017647049999999997
EXTRACT: control_change channel=0 control=11 value=56 time=0.038235275
EXTRACT: control_change channel=9 control=11 value=45 time=0.044117625
EXTRACT: control_change channel=0 control=11 value=55 time=0.020588224999999998
EXTRACT: control_change channel=9 control=11 value=44 time=0.07647055
EXTRACT: note_on channel=1 note=63 velocity=0 time=0.008823524999999999
EXTRACT: note_on channel=1 note=56 velocity=0 time=0.002941175
EXTRACT: control_change channel=1 control=11 value=16 time=0
EXTRACT: note_on channel=1 note=59 velocity=0 time=0.002941175
EXTRACT: control_change channel=0 control=11 value=54 time=0.002941175
EXTRACT: note_on channel=1 note=56 velocity=15 time=0.044117625
EXTRACT: note_on channel=1 note=63 velocity=14 time=0.0117647
EXTRACT: note_on channel=1 note=59 velocity=19 time=0.002941175
EXTRACT: control_change channel=0 control=11 value=53 time=0.038235275
EXTRACT: note_on channel=1 note=71 velocity=0 time=0.049999974999999995
EXTRACT: note_on channel=1 note=56 velocity=0 time=0.0235294
EXTRACT: note_on channel=1 note=63 velocity=0 time=0.008823524999999999
EXTRACT: control_change channel=1 control=11 value=15 time=0.00588235
EXTRACT: control_change channel=0 control=11 value=52 time=0.00588235
EXTRACT: note_on channel=1 note=59 velocity=0 time=0.002941175
EXTRACT: note_on channel=1 note=63 velocity=23 time=0.0235294
EXTRACT: note_on channel=1 note=52 velocity=28 time=0.008823524999999999
EXTRACT: note_on channel=1 note=56 velocity=24 time=0.002941175
EXTRACT: note_on channel=1 note=71 velocity=26 time=0.002941175
EXTRACT: note_on channel=1 note=59 velocity=30 time=0.002941175
EXTRACT: control_change channel=0 control=11 value=51 time=0.020588224999999998
EXTRACT: control_change channel=0 control=11 value=50 time=0.097058775
EXTRACT: control_change channel=1 control=11 value=14 time=0.055882325
EXTRACT: note_on channel=1 note=63 velocity=0 time=0.00588235
EXTRACT: note_on channel=1 note=56 velocity=0 time=0.014705875
EXTRACT: note_on channel=1 note=59 velocity=0 time=0.0117647
EXTRACT: control_change channel=0 control=11 value=49 time=0.00588235
EXTRACT: control_change channel=0 control=11 value=48 time=0.06470585
EXTRACT: note_on channel=1 note=56 velocity=14 time=0.061764675
EXTRACT: note_on channel=1 note=63 velocity=13 time=0.0117647
EXTRACT: note_on channel=1 note=59 velocity=18 time=0.002941175
EXTRACT: control_change channel=0 control=11 value=47 time=0.017647049999999997
EXTRACT: control_change channel=1 control=11 value=13 time=0.026470575
EXTRACT: note_on channel=1 note=52 velocity=0 time=0.020588224999999998
EXTRACT: control_change channel=0 control=11 value=46 time=0.017647049999999997
EXTRACT: note_on channel=1 note=71 velocity=0 time=0
EXTRACT: note_on channel=1 note=56 velocity=0 time=0.02941175
EXTRACT: note_on channel=1 note=63 velocity=0 time=0.008823524999999999
EXTRACT: note_on channel=1 note=59 velocity=0 time=0.014705875
EXTRACT: note_on channel=1 note=59 velocity=26 time=0.026470575
EXTRACT: note_on channel=1 note=63 velocity=25 time=0.002941175
EXTRACT: note_on channel=1 note=56 velocity=21 time=0
EXTRACT: control_change channel=0 control=11 value=45 time=0.0117647
EXTRACT: note_on channel=1 note=71 velocity=28 time=0.002941175
EXTRACT: control_change channel=0 control=11 value=44 time=0.061764675
EXTRACT: control_change channel=1 control=11 value=12 time=0.0588235
EXTRACT: control_change channel=0 control=11 value=43 time=0.038235275
EXTRACT: control_change channel=0 control=11 value=42 time=0.061764675
EXTRACT: control_change channel=0 control=11 value=41 time=0.097058775
EXTRACT: control_change channel=0 control=11 value=40 time=0.061764675
EXTRACT: control_change channel=1 control=11 value=11 time=0.026470575
EXTRACT: note_on channel=1 note=63 velocity=0 time=0.00588235
EXTRACT: note_on channel=1 note=56 velocity=0 time=0.002941175
EXTRACT: note_on channel=1 note=59 velocity=0 time=0.002941175
EXTRACT: note_on channel=1 note=71 velocity=0 time=0.020588224999999998
EXTRACT: control_change channel=0 control=11 value=39 time=0.038235275
EXTRACT: note_on channel=1 note=63 velocity=21 time=0.032352925
EXTRACT: note_on channel=1 note=52 velocity=27 time=0.008823524999999999
EXTRACT: note_on channel=1 note=56 velocity=23 time=0.002941175
EXTRACT: note_on channel=1 note=71 velocity=25 time=0.002941175
EXTRACT: note_on channel=1 note=59 velocity=28 time=0.002941175
EXTRACT: control_change channel=0 control=11 value=38 time=0.0117647
EXTRACT: control_change channel=0 control=11 value=37 time=0.06470585
EXTRACT: control_change channel=0 control=11 value=36 time=0.097058775
EXTRACT: note_on channel=1 note=63 velocity=0 time=0.00588235
EXTRACT: note_on channel=1 note=56 velocity=0 time=0.014705875
EXTRACT: control_change channel=1 control=11 value=10 time=0.002941175
EXTRACT: note_on channel=1 note=59 velocity=0 time=0.008823524999999999
EXTRACT: control_change channel=0 control=11 value=35 time=0.02941175
EXTRACT: control_change channel=0 control=11 value=34 time=0.06470585
EXTRACT: note_on channel=1 note=56 velocity=13 time=0.038235275
EXTRACT: note_on channel=1 note=63 velocity=12 time=0.0117647
EXTRACT: note_on channel=1 note=59 velocity=17 time=0.002941175
EXTRACT: note_on channel=1 note=52 velocity=0 time=0.06470585
EXTRACT: note_on channel=1 note=71 velocity=0 time=0.017647049999999997
EXTRACT: note_on channel=1 note=56 velocity=0 time=0.02941175
EXTRACT: note_on channel=1 note=63 velocity=0 time=0.008823524999999999
EXTRACT: note_on channel=1 note=59 velocity=0 time=0.014705875
EXTRACT: note_on channel=1 note=59 velocity=25 time=0.026470575
EXTRACT: note_on channel=1 note=63 velocity=24 time=0.002941175
EXTRACT: note_on channel=1 note=56 velocity=20 time=0
EXTRACT: note_on channel=1 note=71 velocity=26 time=0.014705875
EXTRACT: control_change channel=1 control=11 value=9 time=0.017647049999999997
EXTRACT: note_on channel=1 note=63 velocity=0 time=0.26470574999999996
EXTRACT: note_on channel=1 note=56 velocity=0 time=0.002941175
EXTRACT: note_on channel=1 note=59 velocity=0 time=0.002941175
EXTRACT: control_change channel=6 control=64 value=0 time=0.002941175
EXTRACT: note_on channel=1 note=56 velocity=13 time=0.044117625
EXTRACT: note_on channel=1 note=63 velocity=12 time=0.0117647
EXTRACT: note_on channel=1 note=59 velocity=17 time=0.002941175
EXTRACT: note_on channel=1 note=71 velocity=0 time=0.08823525
EXTRACT: note_on channel=1 note=56 velocity=0 time=0.0235294
EXTRACT: note_on channel=1 note=63 velocity=0 time=0.008823524999999999
EXTRACT: note_on channel=1 note=59 velocity=0 time=0.014705875
EXTRACT: note_on channel=1 note=63 velocity=21 time=0.0235294
EXTRACT: note_on channel=1 note=52 velocity=26 time=0.008823524999999999
EXTRACT: note_on channel=1 note=56 velocity=22 time=0.002941175
EXTRACT: note_on channel=1 note=71 velocity=24 time=0.002941175
EXTRACT: control_change channel=1 control=11 value=8 time=0.002941175
EXTRACT: note_on channel=1 note=59 velocity=27 time=0
EXTRACT: note_on channel=1 note=63 velocity=0 time=0.179411675
EXTRACT: note_on channel=1 note=56 velocity=0 time=0.014705875
EXTRACT: note_on channel=1 note=59 velocity=0 time=0.0117647
EXTRACT: note_on channel=1 note=56 velocity=13 time=0.13235287499999998
EXTRACT: note_on channel=1 note=63 velocity=12 time=0.0117647
EXTRACT: note_on channel=1 note=59 velocity=17 time=0.002941175
EXTRACT: note_on channel=1 note=52 velocity=0 time=0.06470585
EXTRACT: note_on channel=1 note=71 velocity=0 time=0.017647049999999997
EXTRACT: note_on channel=1 note=56 velocity=0 time=0.02941175
EXTRACT: note_on channel=1 note=63 velocity=0 time=0.008823524999999999
EXTRACT: note_on channel=1 note=59 velocity=0 time=0.014705875
EXTRACT: note_on channel=1 note=59 velocity=25 time=0.026470575
EXTRACT: note_on channel=1 note=63 velocity=24 time=0.002941175
EXTRACT: note_on channel=1 note=56 velocity=20 time=0
EXTRACT: note_on channel=1 note=71 velocity=26 time=0.014705875
EXTRACT: note_on channel=0 note=28 velocity=0 time=0.28823515
EXTRACT: note_on channel=1 note=63 velocity=0 time=0.12352935
EXTRACT: note_on channel=1 note=56 velocity=0 time=0.002941175
EXTRACT: note_on channel=1 note=59 velocity=0 time=0.002941175
EXTRACT: note_on channel=1 note=71 velocity=0 time=0.020588224999999998
EXTRACT: control_change channel=0 control=121 value=0 time=1.8470578999999998
EXTRACT: control_change channel=1 control=121 value=0 time=0
EXTRACT: control_change channel=2 control=121 value=0 time=0
EXTRACT: control_change channel=5 control=121 value=0 time=0
EXTRACT: control_change channel=6 control=121 value=0 time=0
EXTRACT: control_change channel=7 control=121 value=0 time=0
EXTRACT: control_change channel=8 control=121 value=0 time=0
EXTRACT: control_change channel=9 control=121 value=0 time=0
EXTRACT: control_change channel=0 control=93 value=0 time=0.002941175
EXTRACT: control_change channel=0 control=91 value=0 time=0
EXTRACT: control_change channel=1 control=93 value=0 time=0
EXTRACT: control_change channel=1 control=91 value=0 time=0
EXTRACT: control_change channel=2 control=93 value=0 time=0
EXTRACT: control_change channel=2 control=91 value=0 time=0
EXTRACT: control_change channel=5 control=93 value=0 time=0
EXTRACT: control_change channel=5 control=91 value=0 time=0
EXTRACT: control_change channel=6 control=93 value=0 time=0
EXTRACT: control_change channel=6 control=91 value=0 time=0
EXTRACT: control_change channel=7 control=93 value=0 time=0
EXTRACT: control_change channel=7 control=91 value=0 time=0
EXTRACT: control_change channel=8 control=93 value=0 time=0
EXTRACT: control_change channel=8 control=91 value=0 time=0
EXTRACT: control_change channel=9 control=93 value=0 time=0
EXTRACT: control_change channel=9 control=91 value=0 time=0
EXTRACT: control_change channel=1 control=99 value=1 time=0.002941175
EXTRACT: control_change channel=1 control=98 value=100 time=0
EXTRACT: control_change channel=1 control=6 value=64 time=0.044117625
INTERVALS32 - ironic.mid
unison348
2m75
2M109
3m8
3M19
4m33
4M0
5m16
5M0
6m7
7m0
7M8