EXTRACT: program_change channel=9 program=0 time=0
EXTRACT: program_change channel=9 program=0 time=0
EXTRACT: program_change channel=10 program=5 time=0
EXTRACT: program_change channel=11 program=29 time=0
EXTRACT: note_on channel=11 note=60 velocity=127 time=0
EXTRACT: note_on channel=11 note=63 velocity=127 time=0
EXTRACT: note_on channel=11 note=67 velocity=127 time=0
EXTRACT: program_change channel=12 program=2 time=0
EXTRACT: program_change channel=13 program=25 time=0
EXTRACT: program_change channel=14 program=26 time=0
EXTRACT: program_change channel=0 program=127 time=0
EXTRACT: program_change channel=10 program=5 time=0
EXTRACT: program_change channel=10 program=5 time=0
EXTRACT: note_on channel=11 note=60 velocity=0 time=0.43382331249999995
EXTRACT: note_on channel=11 note=63 velocity=0 time=0
EXTRACT: note_on channel=11 note=67 velocity=0 time=0
EXTRACT: note_on channel=11 note=60 velocity=127 time=0.007352937499999999
EXTRACT: note_on channel=11 note=63 velocity=127 time=0
EXTRACT: note_on channel=11 note=67 velocity=127 time=0
EXTRACT: note_on channel=11 note=60 velocity=0 time=0.43382331249999995
EXTRACT: note_on channel=11 note=63 velocity=0 time=0
EXTRACT: note_on channel=11 note=67 velocity=0 time=0
EXTRACT: note_on channel=11 note=60 velocity=127 time=0.007352937499999999
EXTRACT: note_on channel=11 note=63 velocity=127 time=0
EXTRACT: note_on channel=11 note=68 velocity=127 time=0
EXTRACT: note_on channel=11 note=60 velocity=0 time=1.32352875
EXTRACT: note_on channel=11 note=63 velocity=0 time=0
EXTRACT: note_on channel=11 note=68 velocity=0 time=0
EXTRACT: control_change channel=9 control=7 value=127 time=0
EXTRACT: note_on channel=9 note=46 velocity=127 time=0
EXTRACT: note_on channel=9 note=54 velocity=127 time=0
EXTRACT: note_on channel=9 note=56 velocity=127 time=0
EXTRACT: control_change channel=9 control=7 value=127 time=0
EXTRACT: note_on channel=9 note=36 velocity=127 time=0
EXTRACT: control_change channel=10 control=7 value=127 time=0
EXTRACT: control_change channel=11 control=7 value=127 time=0
EXTRACT: control_change channel=12 control=7 value=127 time=0
EXTRACT: control_change channel=13 control=7 value=127 time=0
EXTRACT: control_change channel=14 control=7 value=127 time=0
EXTRACT: control_change channel=0 control=7 value=127 time=0
EXTRACT: note_on channel=9 note=46 velocity=0 time=0.13571414999999998
EXTRACT: note_on channel=9 note=54 velocity=0 time=0
EXTRACT: note_on channel=9 note=56 velocity=0 time=0
EXTRACT: note_on channel=9 note=36 velocity=0 time=0
EXTRACT: note_on channel=9 note=54 velocity=127 time=0.007142849999999999
EXTRACT: note_on channel=9 note=42 velocity=127 time=0
EXTRACT: note_on channel=9 note=54 velocity=0 time=0.13571414999999998
EXTRACT: note_on channel=9 note=46 velocity=127 time=0.007142849999999999
EXTRACT: note_on channel=9 note=54 velocity=127 time=0
EXTRACT: note_on channel=9 note=56 velocity=127 time=0
EXTRACT: note_on channel=9 note=46 velocity=0 time=0.13571414999999998
EXTRACT: note_on channel=9 note=54 velocity=0 time=0
EXTRACT: note_on channel=9 note=56 velocity=0 time=0
EXTRACT: note_on channel=9 note=42 velocity=0 time=0
EXTRACT: note_on channel=9 note=54 velocity=127 time=0.007142849999999999
EXTRACT: note_on channel=9 note=42 velocity=127 time=0
EXTRACT: note_on channel=9 note=54 velocity=0 time=0.13571414999999998
EXTRACT: note_on channel=9 note=42 velocity=0 time=0
EXTRACT: note_on channel=9 note=54 velocity=127 time=0.007142849999999999
EXTRACT: note_on channel=9 note=56 velocity=127 time=0
EXTRACT: note_on channel=9 note=39 velocity=127 time=0
EXTRACT: note_on channel=9 note=42 velocity=127 time=0
EXTRACT: note_on channel=9 note=39 velocity=0 time=0.13571414999999998
EXTRACT: note_on channel=9 note=42 velocity=0 time=0
EXTRACT: note_on channel=9 note=42 velocity=127 time=0.007142849999999999
EXTRACT: note_on channel=9 note=54 velocity=0 time=0.13571414999999998
EXTRACT: note_on channel=9 note=56 velocity=0 time=0
EXTRACT: note_on channel=9 note=42 velocity=0 time=0
EXTRACT: note_on channel=9 note=54 velocity=127 time=0.007142849999999999
EXTRACT: note_on channel=9 note=36 velocity=127 time=0
EXTRACT: note_on channel=9 note=42 velocity=127 time=0
EXTRACT: note_on channel=9 note=54 velocity=0 time=0.13571414999999998
EXTRACT: note_on channel=9 note=36 velocity=0 time=0
EXTRACT: note_on channel=9 note=42 velocity=0 time=0
EXTRACT: note_on channel=9 note=54 velocity=127 time=0.007142849999999999
EXTRACT: note_on channel=9 note=56 velocity=127 time=0
EXTRACT: note_on channel=9 note=42 velocity=127 time=0
EXTRACT: note_on channel=9 note=54 velocity=0 time=0.13571414999999998
EXTRACT: note_on channel=9 note=56 velocity=0 time=0
EXTRACT: note_on channel=9 note=42 velocity=0 time=0
EXTRACT: note_on channel=9 note=54 velocity=127 time=0.007142849999999999
EXTRACT: note_on channel=9 note=42 velocity=127 time=0
EXTRACT: note_on channel=9 note=54 velocity=0 time=0.13571414999999998
EXTRACT: note_on channel=9 note=42 velocity=0 time=0
EXTRACT: note_on channel=9 note=46 velocity=127 time=0.007142849999999999
EXTRACT: note_on channel=9 note=54 velocity=127 time=0
EXTRACT: note_on channel=9 note=56 velocity=127 time=0
EXTRACT: note_on channel=9 note=36 velocity=127 time=0
EXTRACT: note_on channel=9 note=46 velocity=0 time=0.13571414999999998
EXTRACT: note_on channel=9 note=54 velocity=0 time=0
EXTRACT: note_on channel=9 note=56 velocity=0 time=0
EXTRACT: note_on channel=9 note=36 velocity=0 time=0
EXTRACT: note_on channel=9 note=54 velocity=127 time=0.007142849999999999
EXTRACT: note_on channel=9 note=56 velocity=127 time=0
EXTRACT: note_on channel=9 note=36 velocity=127 time=0
EXTRACT: note_on channel=9 note=42 velocity=127 time=0
EXTRACT: note_on channel=9 note=54 velocity=0 time=0.13571414999999998
EXTRACT: note_on channel=9 note=56 velocity=0 time=0
EXTRACT: note_on channel=9 note=36 velocity=0 time=0
EXTRACT: note_on channel=9 note=42 velocity=0 time=0
EXTRACT: note_on channel=9 note=56 velocity=127 time=0.007142849999999999
EXTRACT: note_on channel=9 note=36 velocity=127 time=0
EXTRACT: note_on channel=9 note=42 velocity=127 time=0
EXTRACT: note_on channel=9 note=56 velocity=0 time=0.13571414999999998
EXTRACT: note_on channel=9 note=36 velocity=0 time=0
EXTRACT: note_on channel=9 note=42 velocity=0 time=0
EXTRACT: note_on channel=9 note=46 velocity=127 time=0.007142849999999999
EXTRACT: note_on channel=9 note=54 velocity=127 time=0
EXTRACT: note_on channel=9 note=56 velocity=127 time=0
EXTRACT: note_on channel=9 note=39 velocity=127 time=0
EXTRACT: note_on channel=9 note=46 velocity=0 time=0.13571414999999998
EXTRACT: note_on channel=9 note=54 velocity=0 time=0
EXTRACT: note_on channel=9 note=56 velocity=0 time=0
EXTRACT: note_on channel=9 note=39 velocity=0 time=0
EXTRACT: note_on channel=9 note=54 velocity=127 time=0.007142849999999999
EXTRACT: note_on channel=9 note=42 velocity=127 time=0
EXTRACT: note_on channel=9 note=54 velocity=0 time=0.13571414999999998
EXTRACT: note_on channel=9 note=42 velocity=0 time=0
EXTRACT: note_on channel=9 note=54 velocity=127 time=0.007142849999999999
EXTRACT: note_on channel=9 note=56 velocity=127 time=0
EXTRACT: note_on channel=9 note=36 velocity=127 time=0
EXTRACT: note_on channel=9 note=42 velocity=127 time=0
EXTRACT: note_on channel=9 note=54 velocity=0 time=0.13571414999999998
EXTRACT: note_on channel=9 note=56 velocity=0 time=0
EXTRACT: note_on channel=9 note=36 velocity=0 time=0
EXTRACT: note_on channel=9 note=42 velocity=0 time=0
EXTRACT: note_on channel=9 note=54 velocity=127 time=0.007142849999999999
EXTRACT: note_on channel=9 note=42 velocity=127 time=0
EXTRACT: note_on channel=9 note=54 velocity=0 time=0.13571414999999998
EXTRACT: note_on channel=9 note=42 velocity=0 time=0
EXTRACT: note_on channel=9 note=46 velocity=127 time=0
EXTRACT: note_on channel=9 note=54 velocity=127 time=0
EXTRACT: note_on channel=9 note=56 velocity=127 time=0
EXTRACT: note_on channel=9 note=36 velocity=127 time=0
EXTRACT: note_on channel=9 note=46 velocity=0 time=0.13571414999999998
EXTRACT: note_on channel=9 note=54 velocity=0 time=0
EXTRACT: note_on channel=9 note=56 velocity=0 time=0
EXTRACT: note_on channel=9 note=36 velocity=0 time=0
EXTRACT: note_on channel=9 note=54 velocity=127 time=0.007142849999999999
EXTRACT: note_on channel=9 note=42 velocity=127 time=0
EXTRACT: note_on channel=9 note=54 velocity=0 time=0.13571414999999998
EXTRACT: note_on channel=9 note=46 velocity=127 time=0.007142849999999999
EXTRACT: note_on channel=9 note=54 velocity=127 time=0
EXTRACT: note_on channel=9 note=56 velocity=127 time=0
EXTRACT: note_on channel=9 note=46 velocity=0 time=0.13571414999999998
EXTRACT: note_on channel=9 note=54 velocity=0 time=0
EXTRACT: note_on channel=9 note=56 velocity=0 time=0
EXTRACT: note_on channel=9 note=42 velocity=0 time=0
EXTRACT: note_on channel=9 note=54 velocity=127 time=0.007142849999999999
EXTRACT: note_on channel=9 note=42 velocity=127 time=0
EXTRACT: note_on channel=9 note=54 velocity=0 time=0.13571414999999998
EXTRACT: note_on channel=9 note=42 velocity=0 time=0
EXTRACT: note_on channel=9 note=54 velocity=127 time=0.007142849999999999
EXTRACT: note_on channel=9 note=56 velocity=127 time=0
EXTRACT: note_on channel=9 note=39 velocity=127 time=0
EXTRACT: note_on channel=9 note=42 velocity=127 time=0
EXTRACT: note_on channel=9 note=39 velocity=0 time=0.13571414999999998
EXTRACT: note_on channel=9 note=42 velocity=0 time=0
EXTRACT: note_on channel=9 note=42 velocity=127 time=0.007142849999999999
EXTRACT: note_on channel=9 note=54 velocity=0 time=0.13571414999999998
EXTRACT: note_on channel=9 note=56 velocity=0 time=0
EXTRACT: note_on channel=9 note=42 velocity=0 time=0
EXTRACT: note_on channel=9 note=54 velocity=127 time=0.007142849999999999
EXTRACT: note_on channel=9 note=36 velocity=127 time=0
EXTRACT: note_on channel=9 note=42 velocity=127 time=0
EXTRACT: note_on channel=9 note=54 velocity=0 time=0.13571414999999998
EXTRACT: note_on channel=9 note=36 velocity=0 time=0
EXTRACT: note_on channel=9 note=42 velocity=0 time=0
EXTRACT: note_on channel=9 note=54 velocity=127 time=0.007142849999999999
EXTRACT: note_on channel=9 note=56 velocity=127 time=0
EXTRACT: note_on channel=9 note=42 velocity=127 time=0
EXTRACT: note_on channel=9 note=54 velocity=0 time=0.13571414999999998
EXTRACT: note_on channel=9 note=56 velocity=0 time=0
EXTRACT: note_on channel=9 note=42 velocity=0 time=0
EXTRACT: note_on channel=9 note=54 velocity=127 time=0.007142849999999999
EXTRACT: note_on channel=9 note=42 velocity=127 time=0
EXTRACT: note_on channel=9 note=54 velocity=0 time=0.13571414999999998
EXTRACT: note_on channel=9 note=42 velocity=0 time=0
EXTRACT: note_on channel=9 note=46 velocity=127 time=0.007142849999999999
EXTRACT: note_on channel=9 note=54 velocity=127 time=0
EXTRACT: note_on channel=9 note=56 velocity=127 time=0
EXTRACT: note_on channel=9 note=36 velocity=127 time=0
EXTRACT: note_on channel=9 note=46 velocity=0 time=0.13571414999999998
EXTRACT: note_on channel=9 note=54 velocity=0 time=0
EXTRACT: note_on channel=9 note=56 velocity=0 time=0
EXTRACT: note_on channel=9 note=36 velocity=0 time=0
EXTRACT: note_on channel=9 note=54 velocity=127 time=0.007142849999999999
EXTRACT: note_on channel=9 note=56 velocity=127 time=0
EXTRACT: note_on channel=9 note=36 velocity=127 time=0
EXTRACT: note_on channel=9 note=42 velocity=127 time=0
EXTRACT: note_on channel=9 note=54 velocity=0 time=0.13571414999999998
EXTRACT: note_on channel=9 note=56 velocity=0 time=0
EXTRACT: note_on channel=9 note=36 velocity=0 time=0
EXTRACT: note_on channel=9 note=42 velocity=0 time=0
EXTRACT: note_on channel=9 note=56 velocity=127 time=0.007142849999999999
EXTRACT: note_on channel=9 note=36 velocity=127 time=0
EXTRACT: note_on channel=9 note=42 velocity=127 time=0
EXTRACT: note_on channel=9 note=56 velocity=0 time=0.13571414999999998
EXTRACT: note_on channel=9 note=36 velocity=0 time=0
EXTRACT: note_on channel=9 note=42 velocity=0 time=0
EXTRACT: note_on channel=9 note=46 velocity=127 time=0.007142849999999999
EXTRACT: note_on channel=9 note=54 velocity=127 time=0
EXTRACT: note_on channel=9 note=56 velocity=127 time=0
EXTRACT: note_on channel=9 note=39 velocity=127 time=0
EXTRACT: note_on channel=9 note=46 velocity=0 time=0.13571414999999998
EXTRACT: note_on channel=9 note=54 velocity=0 time=0
EXTRACT: note_on channel=9 note=56 velocity=0 time=0
EXTRACT: note_on channel=9 note=39 velocity=0 time=0
EXTRACT: note_on channel=9 note=54 velocity=127 time=0.007142849999999999
EXTRACT: note_on channel=9 note=42 velocity=127 time=0
EXTRACT: note_on channel=9 note=54 velocity=0 time=0.13571414999999998
EXTRACT: note_on channel=9 note=42 velocity=0 time=0
EXTRACT: note_on channel=9 note=54 velocity=127 time=0.007142849999999999
EXTRACT: note_on channel=9 note=56 velocity=127 time=0
EXTRACT: note_on channel=9 note=36 velocity=127 time=0
EXTRACT: note_on channel=9 note=42 velocity=127 time=0
EXTRACT: note_on channel=9 note=54 velocity=0 time=0.13571414999999998
EXTRACT: note_on channel=9 note=56 velocity=0 time=0
EXTRACT: note_on channel=9 note=36 velocity=0 time=0
EXTRACT: note_on channel=9 note=42 velocity=0 time=0
EXTRACT: note_on channel=9 note=54 velocity=127 time=0.007142849999999999
EXTRACT: note_on channel=9 note=42 velocity=127 time=0
EXTRACT: note_on channel=9 note=54 velocity=0 time=0.13571414999999998
EXTRACT: note_on channel=9 note=42 velocity=0 time=0
EXTRACT: note_on channel=9 note=46 velocity=127 time=0
EXTRACT: note_on channel=9 note=54 velocity=127 time=0
EXTRACT: note_on channel=9 note=56 velocity=127 time=0
EXTRACT: note_on channel=9 note=36 velocity=127 time=0
EXTRACT: note_on channel=11 note=60 velocity=127 time=0
EXTRACT: note_on channel=11 note=63 velocity=127 time=0
EXTRACT: note_on channel=11 note=67 velocity=127 time=0
EXTRACT: note_on channel=12 note=48 velocity=127 time=0
EXTRACT: note_on channel=13 note=60 velocity=127 time=0
EXTRACT: note_on channel=13 note=63 velocity=127 time=0
EXTRACT: note_on channel=13 note=67 velocity=127 time=0
EXTRACT: note_on channel=14 note=48 velocity=127 time=0
EXTRACT: note_on channel=9 note=46 velocity=0 time=0.13571414999999998
EXTRACT: note_on channel=9 note=54 velocity=0 time=0
EXTRACT: note_on channel=9 note=56 velocity=0 time=0
EXTRACT: note_on channel=9 note=36 velocity=0 time=0
EXTRACT: note_on channel=9 note=54 velocity=127 time=0.007142849999999999
EXTRACT: note_on channel=9 note=42 velocity=127 time=0
EXTRACT: note_on channel=9 note=54 velocity=0 time=0.13571414999999998
EXTRACT: note_on channel=12 note=48 velocity=0 time=0
EXTRACT: note_on channel=14 note=48 velocity=0 time=0
EXTRACT: note_on channel=9 note=46 velocity=127 time=0.007142849999999999
EXTRACT: note_on channel=9 note=54 velocity=127 time=0
EXTRACT: note_on channel=9 note=56 velocity=127 time=0
EXTRACT: note_on channel=12 note=48 velocity=127 time=0
EXTRACT: note_on channel=14 note=48 velocity=127 time=0
EXTRACT: note_on channel=9 note=46 velocity=0 time=0.13571414999999998
EXTRACT: note_on channel=9 note=54 velocity=0 time=0
EXTRACT: note_on channel=9 note=56 velocity=0 time=0
EXTRACT: note_on channel=9 note=42 velocity=0 time=0
EXTRACT: note_on channel=11 note=60 velocity=0 time=0
EXTRACT: note_on channel=11 note=63 velocity=0 time=0
EXTRACT: note_on channel=11 note=67 velocity=0 time=0
EXTRACT: note_on channel=13 note=60 velocity=0 time=0
EXTRACT: note_on channel=13 note=63 velocity=0 time=0
EXTRACT: note_on channel=13 note=67 velocity=0 time=0
EXTRACT: note_on channel=9 note=54 velocity=127 time=0.007142849999999999
EXTRACT: note_on channel=9 note=42 velocity=127 time=0
EXTRACT: note_on channel=11 note=60 velocity=127 time=0
EXTRACT: note_on channel=11 note=63 velocity=127 time=0
EXTRACT: note_on channel=11 note=67 velocity=127 time=0
EXTRACT: note_on channel=13 note=60 velocity=127 time=0
EXTRACT: note_on channel=13 note=63 velocity=127 time=0
EXTRACT: note_on channel=13 note=67 velocity=127 time=0
EXTRACT: note_on channel=9 note=54 velocity=0 time=0.13571414999999998
EXTRACT: note_on channel=9 note=42 velocity=0 time=0
EXTRACT: note_on channel=12 note=48 velocity=0 time=0
EXTRACT: note_on channel=14 note=48 velocity=0 time=0
EXTRACT: note_on channel=9 note=54 velocity=127 time=0.007142849999999999
EXTRACT: note_on channel=9 note=56 velocity=127 time=0
EXTRACT: note_on channel=9 note=39 velocity=127 time=0
EXTRACT: note_on channel=9 note=42 velocity=127 time=0
EXTRACT: note_on channel=12 note=48 velocity=127 time=0
EXTRACT: note_on channel=14 note=48 velocity=127 time=0
EXTRACT: note_on channel=9 note=39 velocity=0 time=0.13571414999999998
EXTRACT: note_on channel=9 note=42 velocity=0 time=0
EXTRACT: note_on channel=9 note=42 velocity=127 time=0.007142849999999999
EXTRACT: note_on channel=9 note=54 velocity=0 time=0.13571414999999998
EXTRACT: note_on channel=9 note=56 velocity=0 time=0
EXTRACT: note_on channel=9 note=42 velocity=0 time=0
EXTRACT: note_on channel=11 note=60 velocity=0 time=0
EXTRACT: note_on channel=11 note=63 velocity=0 time=0
EXTRACT: note_on channel=11 note=67 velocity=0 time=0
EXTRACT: note_on channel=12 note=48 velocity=0 time=0
EXTRACT: note_on channel=13 note=60 velocity=0 time=0
EXTRACT: note_on channel=13 note=63 velocity=0 time=0
EXTRACT: note_on channel=13 note=67 velocity=0 time=0
EXTRACT: note_on channel=14 note=48 velocity=0 time=0
EXTRACT: note_on channel=9 note=54 velocity=127 time=0.007142849999999999
EXTRACT: note_on channel=9 note=36 velocity=127 time=0
EXTRACT: note_on channel=9 note=42 velocity=127 time=0
EXTRACT: note_on channel=11 note=60 velocity=127 time=0
EXTRACT: note_on channel=11 note=63 velocity=127 time=0
EXTRACT: note_on channel=11 note=68 velocity=127 time=0
EXTRACT: note_on channel=12 note=43 velocity=127 time=0
EXTRACT: note_on channel=13 note=60 velocity=127 time=0
EXTRACT: note_on channel=13 note=63 velocity=127 time=0
EXTRACT: note_on channel=13 note=68 velocity=127 time=0
EXTRACT: note_on channel=14 note=43 velocity=127 time=0
EXTRACT: note_on channel=9 note=54 velocity=0 time=0.13571414999999998
EXTRACT: note_on channel=9 note=36 velocity=0 time=0
EXTRACT: note_on channel=9 note=42 velocity=0 time=0
EXTRACT: note_on channel=9 note=54 velocity=127 time=0.007142849999999999
EXTRACT: note_on channel=9 note=56 velocity=127 time=0
EXTRACT: note_on channel=9 note=42 velocity=127 time=0
EXTRACT: note_on channel=9 note=54 velocity=0 time=0.13571414999999998
EXTRACT: note_on channel=9 note=56 velocity=0 time=0
EXTRACT: note_on channel=9 note=42 velocity=0 time=0
EXTRACT: note_on channel=12 note=43 velocity=0 time=0
EXTRACT: note_on channel=14 note=43 velocity=0 time=0
EXTRACT: note_on channel=9 note=54 velocity=127 time=0.007142849999999999
EXTRACT: note_on channel=9 note=42 velocity=127 time=0
EXTRACT: note_on channel=12 note=44 velocity=127 time=0
EXTRACT: note_on channel=14 note=44 velocity=127 time=0
EXTRACT: note_on channel=9 note=54 velocity=0 time=0.13571414999999998
EXTRACT: note_on channel=9 note=42 velocity=0 time=0
EXTRACT: note_on channel=9 note=46 velocity=127 time=0.007142849999999999
EXTRACT: note_on channel=9 note=54 velocity=127 time=0
EXTRACT: note_on channel=9 note=56 velocity=127 time=0
EXTRACT: note_on channel=9 note=36 velocity=127 time=0
EXTRACT: note_on channel=9 note=46 velocity=0 time=0.13571414999999998
EXTRACT: note_on channel=9 note=54 velocity=0 time=0
EXTRACT: note_on channel=9 note=56 velocity=0 time=0
EXTRACT: note_on channel=9 note=36 velocity=0 time=0
EXTRACT: note_on channel=12 note=44 velocity=0 time=0
EXTRACT: note_on channel=14 note=44 velocity=0 time=0
EXTRACT: note_on channel=9 note=54 velocity=127 time=0.007142849999999999
EXTRACT: note_on channel=9 note=56 velocity=127 time=0
EXTRACT: note_on channel=9 note=36 velocity=127 time=0
EXTRACT: note_on channel=9 note=42 velocity=127 time=0
EXTRACT: note_on channel=12 note=44 velocity=127 time=0
EXTRACT: note_on channel=14 note=44 velocity=127 time=0
EXTRACT: note_on channel=9 note=54 velocity=0 time=0.13571414999999998
EXTRACT: note_on channel=9 note=56 velocity=0 time=0
EXTRACT: note_on channel=9 note=36 velocity=0 time=0
EXTRACT: note_on channel=9 note=42 velocity=0 time=0
EXTRACT: note_on channel=9 note=56 velocity=127 time=0.007142849999999999
EXTRACT: note_on channel=9 note=36 velocity=127 time=0
EXTRACT: note_on channel=9 note=42 velocity=127 time=0
EXTRACT: note_on channel=9 note=56 velocity=0 time=0.13571414999999998
EXTRACT: note_on channel=9 note=36 velocity=0 time=0
EXTRACT: note_on channel=9 note=42 velocity=0 time=0
EXTRACT: note_on channel=9 note=46 velocity=127 time=0.007142849999999999
EXTRACT: note_on channel=9 note=54 velocity=127 time=0
EXTRACT: note_on channel=9 note=56 velocity=127 time=0
EXTRACT: note_on channel=9 note=39 velocity=127 time=0
EXTRACT: note_on channel=9 note=46 velocity=0 time=0.13571414999999998
EXTRACT: note_on channel=9 note=54 velocity=0 time=0
EXTRACT: note_on channel=9 note=56 velocity=0 time=0
EXTRACT: note_on channel=9 note=39 velocity=0 time=0
EXTRACT: note_on channel=9 note=54 velocity=127 time=0.007142849999999999
EXTRACT: note_on channel=9 note=42 velocity=127 time=0
EXTRACT: note_on channel=9 note=54 velocity=0 time=0.13571414999999998
EXTRACT: note_on channel=9 note=42 velocity=0 time=0
EXTRACT: note_on channel=9 note=54 velocity=127 time=0.007142849999999999
EXTRACT: note_on channel=9 note=56 velocity=127 time=0
EXTRACT: note_on channel=9 note=36 velocity=127 time=0
EXTRACT: note_on channel=9 note=42 velocity=127 time=0
EXTRACT: note_on channel=9 note=54 velocity=0 time=0.13571414999999998
EXTRACT: note_on channel=9 note=56 velocity=0 time=0
EXTRACT: note_on channel=9 note=36 velocity=0 time=0
EXTRACT: note_on channel=9 note=42 velocity=0 time=0
EXTRACT: note_on channel=9 note=54 velocity=127 time=0.007142849999999999
EXTRACT: note_on channel=9 note=42 velocity=127 time=0
EXTRACT: note_on channel=11 note=60 velocity=0 time=0
EXTRACT: note_on channel=11 note=63 velocity=0 time=0
EXTRACT: note_on channel=11 note=68 velocity=0 time=0
EXTRACT: note_on channel=13 note=60 velocity=0 time=0
EXTRACT: note_on channel=13 note=63 velocity=0 time=0
EXTRACT: note_on channel=13 note=68 velocity=0 time=0
EXTRACT: note_on channel=12 note=44 velocity=0 time=0.047618999999999995
EXTRACT: note_on channel=14 note=44 velocity=0 time=0
EXTRACT: note_on channel=9 note=54 velocity=0 time=0.08809514999999998
EXTRACT: note_on channel=9 note=42 velocity=0 time=0
EXTRACT: note_on channel=9 note=46 velocity=127 time=0
EXTRACT: note_on channel=9 note=54 velocity=127 time=0
EXTRACT: note_on channel=9 note=56 velocity=127 time=0
EXTRACT: note_on channel=9 note=36 velocity=127 time=0
EXTRACT: note_on channel=11 note=59 velocity=127 time=0
EXTRACT: note_on channel=11 note=62 velocity=127 time=0
EXTRACT: note_on channel=11 note=67 velocity=127 time=0
EXTRACT: note_on channel=12 note=43 velocity=127 time=0
EXTRACT: note_on channel=13 note=59 velocity=127 time=0
EXTRACT: note_on channel=13 note=62 velocity=127 time=0
EXTRACT: note_on channel=13 note=67 velocity=127 time=0
EXTRACT: note_on channel=14 note=43 velocity=127 time=0
EXTRACT: note_on channel=9 note=46 velocity=0 time=0.13571414999999998
EXTRACT: note_on channel=9 note=54 velocity=0 time=0
EXTRACT: note_on channel=9 note=56 velocity=0 time=0
EXTRACT: note_on channel=9 note=36 velocity=0 time=0
EXTRACT: note_on channel=9 note=54 velocity=127 time=0.007142849999999999
EXTRACT: note_on channel=9 note=42 velocity=127 time=0
EXTRACT: note_on channel=9 note=54 velocity=0 time=0.13571414999999998
EXTRACT: note_on channel=12 note=43 velocity=0 time=0
EXTRACT: note_on channel=14 note=43 velocity=0 time=0
EXTRACT: note_on channel=9 note=46 velocity=127 time=0.007142849999999999
EXTRACT: note_on channel=9 note=54 velocity=127 time=0
EXTRACT: note_on channel=9 note=56 velocity=127 time=0
EXTRACT: note_on channel=12 note=43 velocity=127 time=0
EXTRACT: note_on channel=14 note=43 velocity=127 time=0
EXTRACT: note_on channel=9 note=46 velocity=0 time=0.13571414999999998
EXTRACT: note_on channel=9 note=54 velocity=0 time=0
EXTRACT: note_on channel=9 note=56 velocity=0 time=0
EXTRACT: note_on channel=9 note=42 velocity=0 time=0
EXTRACT: note_on channel=11 note=59 velocity=0 time=0
EXTRACT: note_on channel=11 note=62 velocity=0 time=0
EXTRACT: note_on channel=11 note=67 velocity=0 time=0
EXTRACT: note_on channel=13 note=59 velocity=0 time=0
EXTRACT: note_on channel=13 note=62 velocity=0 time=0
EXTRACT: note_on channel=13 note=67 velocity=0 time=0
EXTRACT: note_on channel=9 note=54 velocity=127 time=0.007142849999999999
EXTRACT: note_on channel=9 note=42 velocity=127 time=0
EXTRACT: note_on channel=11 note=59 velocity=127 time=0
EXTRACT: note_on channel=11 note=62 velocity=127 time=0
EXTRACT: note_on channel=11 note=67 velocity=127 time=0
EXTRACT: note_on channel=13 note=59 velocity=127 time=0
EXTRACT: note_on channel=13 note=62 velocity=127 time=0
EXTRACT: note_on channel=13 note=67 velocity=127 time=0
EXTRACT: note_on channel=9 note=54 velocity=0 time=0.13571414999999998
EXTRACT: note_on channel=9 note=42 velocity=0 time=0
EXTRACT: note_on channel=12 note=43 velocity=0 time=0
EXTRACT: note_on channel=14 note=43 velocity=0 time=0
EXTRACT: note_on channel=9 note=54 velocity=127 time=0.007142849999999999
EXTRACT: note_on channel=9 note=56 velocity=127 time=0
EXTRACT: note_on channel=9 note=39 velocity=127 time=0
EXTRACT: note_on channel=9 note=42 velocity=127 time=0
EXTRACT: note_on channel=12 note=43 velocity=127 time=0
EXTRACT: note_on channel=14 note=43 velocity=127 time=0
EXTRACT: note_on channel=9 note=39 velocity=0 time=0.13571414999999998
EXTRACT: note_on channel=9 note=42 velocity=0 time=0
EXTRACT: note_on channel=9 note=42 velocity=127 time=0.007142849999999999
EXTRACT: note_on channel=9 note=54 velocity=0 time=0.13571414999999998
EXTRACT: note_on channel=9 note=56 velocity=0 time=0
EXTRACT: note_on channel=9 note=42 velocity=0 time=0
EXTRACT: note_on channel=11 note=59 velocity=0 time=0
EXTRACT: note_on channel=11 note=62 velocity=0 time=0
EXTRACT: note_on channel=11 note=67 velocity=0 time=0
EXTRACT: note_on channel=12 note=43 velocity=0 time=0
EXTRACT: note_on channel=13 note=59 velocity=0 time=0
EXTRACT: note_on channel=13 note=62 velocity=0 time=0
EXTRACT: note_on channel=13 note=67 velocity=0 time=0
EXTRACT: note_on channel=14 note=43 velocity=0 time=0
EXTRACT: note_on channel=9 note=54 velocity=127 time=0.007142849999999999
EXTRACT: note_on channel=9 note=36 velocity=127 time=0
EXTRACT: note_on channel=9 note=42 velocity=127 time=0
EXTRACT: note_on channel=11 note=60 velocity=127 time=0
EXTRACT: note_on channel=11 note=63 velocity=127 time=0
EXTRACT: note_on channel=11 note=67 velocity=127 time=0
EXTRACT: note_on channel=12 note=47 velocity=127 time=0
EXTRACT: note_on channel=13 note=60 velocity=127 time=0
EXTRACT: note_on channel=13 note=63 velocity=127 time=0
EXTRACT: note_on channel=13 note=67 velocity=127 time=0
EXTRACT: note_on channel=14 note=47 velocity=127 time=0
EXTRACT: note_on channel=9 note=54 velocity=0 time=0.13571414999999998
EXTRACT: note_on channel=9 note=36 velocity=0 time=0
EXTRACT: note_on channel=9 note=42 velocity=0 time=0
EXTRACT: note_on channel=9 note=54 velocity=127 time=0.007142849999999999
EXTRACT: note_on channel=9 note=56 velocity=127 time=0
EXTRACT: note_on channel=9 note=42 velocity=127 time=0
EXTRACT: note_on channel=9 note=54 velocity=0 time=0.13571414999999998
EXTRACT: note_on channel=9 note=56 velocity=0 time=0
EXTRACT: note_on channel=9 note=42 velocity=0 time=0
EXTRACT: note_on channel=12 note=47 velocity=0 time=0
EXTRACT: note_on channel=14 note=47 velocity=0 time=0
EXTRACT: note_on channel=9 note=54 velocity=127 time=0.007142849999999999
EXTRACT: note_on channel=9 note=42 velocity=127 time=0
EXTRACT: note_on channel=12 note=48 velocity=127 time=0
EXTRACT: note_on channel=14 note=48 velocity=127 time=0
EXTRACT: note_on channel=9 note=54 velocity=0 time=0.13571414999999998
EXTRACT: note_on channel=9 note=42 velocity=0 time=0
EXTRACT: note_on channel=9 note=46 velocity=127 time=0.007142849999999999
EXTRACT: note_on channel=9 note=54 velocity=127 time=0
EXTRACT: note_on channel=9 note=56 velocity=127 time=0
EXTRACT: note_on channel=9 note=36 velocity=127 time=0
EXTRACT: note_on channel=9 note=46 velocity=0 time=0.13571414999999998
EXTRACT: note_on channel=9 note=54 velocity=0 time=0
EXTRACT: note_on channel=9 note=56 velocity=0 time=0
EXTRACT: note_on channel=9 note=36 velocity=0 time=0
EXTRACT: note_on channel=12 note=48 velocity=0 time=0
EXTRACT: note_on channel=14 note=48 velocity=0 time=0
EXTRACT: note_on channel=9 note=54 velocity=127 time=0.007142849999999999
EXTRACT: note_on channel=9 note=56 velocity=127 time=0
EXTRACT: note_on channel=9 note=36 velocity=127 time=0
EXTRACT: note_on channel=9 note=42 velocity=127 time=0
EXTRACT: note_on channel=12 note=48 velocity=127 time=0
EXTRACT: note_on channel=14 note=48 velocity=127 time=0
EXTRACT: note_on channel=9 note=54 velocity=0 time=0.13571414999999998
EXTRACT: note_on channel=9 note=56 velocity=0 time=0
EXTRACT: note_on channel=9 note=36 velocity=0 time=0
EXTRACT: note_on channel=9 note=42 velocity=0 time=0
EXTRACT: note_on channel=9 note=56 velocity=127 time=0.007142849999999999
EXTRACT: note_on channel=9 note=36 velocity=127 time=0
EXTRACT: note_on channel=9 note=42 velocity=127 time=0
EXTRACT: note_on channel=9 note=56 velocity=0 time=0.13571414999999998
EXTRACT: note_on channel=9 note=36 velocity=0 time=0
EXTRACT: note_on channel=9 note=42 velocity=0 time=0
EXTRACT: note_on channel=9 note=46 velocity=127 time=0.007142849999999999
EXTRACT: note_on channel=9 note=54 velocity=127 time=0
EXTRACT: note_on channel=9 note=56 velocity=127 time=0
EXTRACT: note_on channel=9 note=39 velocity=127 time=0
EXTRACT: note_on channel=9 note=46 velocity=0 time=0.13571414999999998
EXTRACT: note_on channel=9 note=54 velocity=0 time=0
EXTRACT: note_on channel=9 note=56 velocity=0 time=0
EXTRACT: note_on channel=9 note=39 velocity=0 time=0
EXTRACT: note_on channel=9 note=54 velocity=127 time=0.007142849999999999
EXTRACT: note_on channel=9 note=42 velocity=127 time=0
EXTRACT: note_on channel=9 note=54 velocity=0 time=0.13571414999999998
EXTRACT: note_on channel=9 note=42 velocity=0 time=0
EXTRACT: note_on channel=12 note=48 velocity=0 time=0
EXTRACT: note_on channel=14 note=48 velocity=0 time=0
EXTRACT: note_on channel=9 note=54 velocity=127 time=0.007142849999999999
EXTRACT: note_on channel=9 note=56 velocity=127 time=0
EXTRACT: note_on channel=9 note=36 velocity=127 time=0
EXTRACT: note_on channel=9 note=42 velocity=127 time=0
EXTRACT: note_on channel=12 note=43 velocity=127 time=0
EXTRACT: note_on channel=14 note=43 velocity=127 time=0
EXTRACT: note_on channel=9 note=54 velocity=0 time=0.13571414999999998
EXTRACT: note_on channel=9 note=56 velocity=0 time=0
EXTRACT: note_on channel=9 note=36 velocity=0 time=0
EXTRACT: note_on channel=9 note=42 velocity=0 time=0
EXTRACT: note_on channel=9 note=54 velocity=127 time=0.007142849999999999
EXTRACT: note_on channel=9 note=42 velocity=127 time=0
EXTRACT: note_on channel=11 note=60 velocity=0 time=0
EXTRACT: note_on channel=11 note=63 velocity=0 time=0
EXTRACT: note_on channel=11 note=67 velocity=0 time=0
EXTRACT: note_on channel=13 note=60 velocity=0 time=0
EXTRACT: note_on channel=13 note=63 velocity=0 time=0
EXTRACT: note_on channel=13 note=67 velocity=0 time=0
EXTRACT: note_on channel=9 note=54 velocity=0 time=0.13571414999999998
EXTRACT: note_on channel=9 note=42 velocity=0 time=0
EXTRACT: note_on channel=12 note=43 velocity=0 time=0
EXTRACT: note_on channel=14 note=43 velocity=0 time=0
EXTRACT: note_on channel=9 note=46 velocity=127 time=0
EXTRACT: note_on channel=9 note=54 velocity=127 time=0
EXTRACT: note_on channel=9 note=56 velocity=127 time=0
EXTRACT: note_on channel=9 note=36 velocity=127 time=0
EXTRACT: note_on channel=11 note=60 velocity=127 time=0
EXTRACT: note_on channel=11 note=63 velocity=127 time=0
EXTRACT: note_on channel=11 note=67 velocity=127 time=0
EXTRACT: note_on channel=12 note=48 velocity=127 time=0
EXTRACT: note_on channel=13 note=60 velocity=127 time=0
EXTRACT: note_on channel=13 note=63 velocity=127 time=0
EXTRACT: note_on channel=13 note=67 velocity=127 time=0
EXTRACT: note_on channel=14 note=48 velocity=127 time=0
EXTRACT: note_on channel=9 note=46 velocity=0 time=0.1331774125
EXTRACT: note_on channel=9 note=54 velocity=0 time=0
EXTRACT: note_on channel=9 note=56 velocity=0 time=0
EXTRACT: note_on channel=9 note=36 velocity=0 time=0
EXTRACT: note_on channel=9 note=54 velocity=127 time=0.0070093375
EXTRACT: note_on channel=9 note=42 velocity=127 time=0
EXTRACT: note_on channel=9 note=54 velocity=0 time=0.1331774125
EXTRACT: note_on channel=12 note=48 velocity=0 time=0
EXTRACT: note_on channel=14 note=48 velocity=0 time=0
EXTRACT: note_on channel=9 note=46 velocity=127 time=0.0070093375
EXTRACT: note_on channel=9 note=54 velocity=127 time=0
EXTRACT: note_on channel=9 note=56 velocity=127 time=0
EXTRACT: note_on channel=12 note=48 velocity=127 time=0
EXTRACT: note_on channel=14 note=48 velocity=127 time=0
EXTRACT: note_on channel=9 note=46 velocity=0 time=0.1331774125
EXTRACT: note_on channel=9 note=54 velocity=0 time=0
EXTRACT: note_on channel=9 note=56 velocity=0 time=0
EXTRACT: note_on channel=9 note=42 velocity=0 time=0
EXTRACT: note_on channel=11 note=60 velocity=0 time=0
EXTRACT: note_on channel=11 note=63 velocity=0 time=0
EXTRACT: note_on channel=11 note=67 velocity=0 time=0
EXTRACT: note_on channel=13 note=60 velocity=0 time=0
EXTRACT: note_on channel=13 note=63 velocity=0 time=0
EXTRACT: note_on channel=13 note=67 velocity=0 time=0
EXTRACT: note_on channel=9 note=54 velocity=127 time=0.0070093375
EXTRACT: note_on channel=9 note=42 velocity=127 time=0
EXTRACT: note_on channel=11 note=60 velocity=127 time=0
EXTRACT: note_on channel=11 note=63 velocity=127 time=0
EXTRACT: note_on channel=11 note=67 velocity=127 time=0
EXTRACT: note_on channel=13 note=60 velocity=127 time=0
EXTRACT: note_on channel=13 note=63 velocity=127 time=0
EXTRACT: note_on channel=13 note=67 velocity=127 time=0
EXTRACT: note_on channel=9 note=54 velocity=0 time=0.1331774125
EXTRACT: note_on channel=9 note=42 velocity=0 time=0
EXTRACT: note_on channel=12 note=48 velocity=0 time=0
EXTRACT: note_on channel=14 note=48 velocity=0 time=0
EXTRACT: note_on channel=9 note=54 velocity=127 time=0.0070093375
EXTRACT: note_on channel=9 note=56 velocity=127 time=0
EXTRACT: note_on channel=9 note=39 velocity=127 time=0
EXTRACT: note_on channel=9 note=42 velocity=127 time=0
EXTRACT: note_on channel=12 note=48 velocity=127 time=0
EXTRACT: note_on channel=14 note=48 velocity=127 time=0
EXTRACT: note_on channel=9 note=39 velocity=0 time=0.1331774125
EXTRACT: note_on channel=9 note=42 velocity=0 time=0
EXTRACT: note_on channel=9 note=42 velocity=127 time=0.0070093375
EXTRACT: note_on channel=9 note=54 velocity=0 time=0.1331774125
EXTRACT: note_on channel=9 note=56 velocity=0 time=0
EXTRACT: note_on channel=9 note=42 velocity=0 time=0
EXTRACT: note_on channel=11 note=60 velocity=0 time=0
EXTRACT: note_on channel=11 note=63 velocity=0 time=0
EXTRACT: note_on channel=11 note=67 velocity=0 time=0
EXTRACT: note_on channel=12 note=48 velocity=0 time=0
EXTRACT: note_on channel=13 note=60 velocity=0 time=0
EXTRACT: note_on channel=13 note=63 velocity=0 time=0
EXTRACT: note_on channel=13 note=67 velocity=0 time=0
EXTRACT: note_on channel=14 note=48 velocity=0 time=0
EXTRACT: note_on channel=9 note=54 velocity=127 time=0.0070093375
EXTRACT: note_on channel=9 note=36 velocity=127 time=0
EXTRACT: note_on channel=9 note=42 velocity=127 time=0
EXTRACT: note_on channel=11 note=60 velocity=127 time=0
EXTRACT: note_on channel=11 note=63 velocity=127 time=0
EXTRACT: note_on channel=11 note=68 velocity=127 time=0
EXTRACT: note_on channel=12 note=43 velocity=127 time=0
EXTRACT: note_on channel=13 note=60 velocity=127 time=0
EXTRACT: note_on channel=13 note=63 velocity=127 time=0
EXTRACT: note_on channel=13 note=68 velocity=127 time=0
EXTRACT: note_on channel=14 note=43 velocity=127 time=0
EXTRACT: note_on channel=9 note=54 velocity=0 time=0.1331774125
EXTRACT: note_on channel=9 note=36 velocity=0 time=0
EXTRACT: note_on channel=9 note=42 velocity=0 time=0
EXTRACT: note_on channel=9 note=54 velocity=127 time=0.0070093375
EXTRACT: note_on channel=9 note=56 velocity=127 time=0
EXTRACT: note_on channel=9 note=42 velocity=127 time=0
EXTRACT: note_on channel=9 note=54 velocity=0 time=0.1331774125
EXTRACT: note_on channel=9 note=56 velocity=0 time=0
EXTRACT: note_on channel=9 note=42 velocity=0 time=0
EXTRACT: note_on channel=12 note=43 velocity=0 time=0
EXTRACT: note_on channel=14 note=43 velocity=0 time=0
EXTRACT: note_on channel=9 note=54 velocity=127 time=0.0070093375
EXTRACT: note_on channel=9 note=42 velocity=127 time=0
EXTRACT: note_on channel=12 note=44 velocity=127 time=0
EXTRACT: note_on channel=14 note=44 velocity=127 time=0
EXTRACT: note_on channel=9 note=54 velocity=0 time=0.1331774125
EXTRACT: note_on channel=9 note=42 velocity=0 time=0
EXTRACT: note_on channel=9 note=46 velocity=127 time=0.0070093375
EXTRACT: note_on channel=9 note=54 velocity=127 time=0
EXTRACT: note_on channel=9 note=56 velocity=127 time=0
EXTRACT: note_on channel=9 note=36 velocity=127 time=0
EXTRACT: note_on channel=9 note=46 velocity=0 time=0.1331774125
EXTRACT: note_on channel=9 note=54 velocity=0 time=0
EXTRACT: note_on channel=9 note=56 velocity=0 time=0
EXTRACT: note_on channel=9 note=36 velocity=0 time=0
EXTRACT: note_on channel=12 note=44 velocity=0 time=0
EXTRACT: note_on channel=14 note=44 velocity=0 time=0
EXTRACT: note_on channel=9 note=54 velocity=127 time=0.0070093375
EXTRACT: note_on channel=9 note=56 velocity=127 time=0
EXTRACT: note_on channel=9 note=36 velocity=127 time=0
EXTRACT: note_on channel=9 note=42 velocity=127 time=0
EXTRACT: note_on channel=12 note=44 velocity=127 time=0
EXTRACT: note_on channel=14 note=44 velocity=127 time=0
EXTRACT: note_on channel=9 note=54 velocity=0 time=0.1331774125
EXTRACT: note_on channel=9 note=56 velocity=0 time=0
EXTRACT: note_on channel=9 note=36 velocity=0 time=0
EXTRACT: note_on channel=9 note=42 velocity=0 time=0
EXTRACT: note_on channel=9 note=56 velocity=127 time=0.0070093375
EXTRACT: note_on channel=9 note=36 velocity=127 time=0
EXTRACT: note_on channel=9 note=42 velocity=127 time=0
EXTRACT: note_on channel=9 note=56 velocity=0 time=0.1331774125
EXTRACT: note_on channel=9 note=36 velocity=0 time=0
EXTRACT: note_on channel=9 note=42 velocity=0 time=0
EXTRACT: note_on channel=9 note=46 velocity=127 time=0.0070093375
EXTRACT: note_on channel=9 note=54 velocity=127 time=0
EXTRACT: note_on channel=9 note=56 velocity=127 time=0
EXTRACT: note_on channel=9 note=39 velocity=127 time=0
EXTRACT: note_on channel=9 note=46 velocity=0 time=0.1331774125
EXTRACT: note_on channel=9 note=54 velocity=0 time=0
EXTRACT: note_on channel=9 note=56 velocity=0 time=0
EXTRACT: note_on channel=9 note=39 velocity=0 time=0
EXTRACT: note_on channel=9 note=54 velocity=127 time=0.0070093375
EXTRACT: note_on channel=9 note=42 velocity=127 time=0
EXTRACT: note_on channel=9 note=54 velocity=0 time=0.1331774125
EXTRACT: note_on channel=9 note=42 velocity=0 time=0
EXTRACT: note_on channel=9 note=54 velocity=127 time=0.0070093375
EXTRACT: note_on channel=9 note=56 velocity=127 time=0
EXTRACT: note_on channel=9 note=36 velocity=127 time=0
EXTRACT: note_on channel=9 note=42 velocity=127 time=0
EXTRACT: note_on channel=9 note=54 velocity=0 time=0.1331774125
EXTRACT: note_on channel=9 note=56 velocity=0 time=0
EXTRACT: note_on channel=9 note=36 velocity=0 time=0
EXTRACT: note_on channel=9 note=42 velocity=0 time=0
EXTRACT: note_on channel=9 note=54 velocity=127 time=0.0070093375
EXTRACT: note_on channel=9 note=42 velocity=127 time=0
EXTRACT: note_on channel=11 note=60 velocity=0 time=0
EXTRACT: note_on channel=11 note=63 velocity=0 time=0
EXTRACT: note_on channel=11 note=68 velocity=0 time=0
EXTRACT: note_on channel=13 note=60 velocity=0 time=0
EXTRACT: note_on channel=13 note=63 velocity=0 time=0
EXTRACT: note_on channel=13 note=68 velocity=0 time=0
EXTRACT: note_on channel=12 note=44 velocity=0 time=0.04672891666666666
EXTRACT: note_on channel=14 note=44 velocity=0 time=0
EXTRACT: note_on channel=9 note=54 velocity=0 time=0.08644849583333333
EXTRACT: note_on channel=9 note=42 velocity=0 time=0
EXTRACT: note_on channel=9 note=46 velocity=127 time=0
EXTRACT: note_on channel=9 note=54 velocity=127 time=0
EXTRACT: note_on channel=9 note=56 velocity=127 time=0
EXTRACT: note_on channel=9 note=36 velocity=127 time=0
EXTRACT: note_on channel=11 note=59 velocity=127 time=0
EXTRACT: note_on channel=11 note=62 velocity=127 time=0
EXTRACT: note_on channel=11 note=67 velocity=127 time=0
EXTRACT: note_on channel=12 note=43 velocity=127 time=0
EXTRACT: note_on channel=13 note=59 velocity=127 time=0
EXTRACT: note_on channel=13 note=62 velocity=127 time=0
EXTRACT: note_on channel=13 note=67 velocity=127 time=0
EXTRACT: note_on channel=14 note=43 velocity=127 time=0
EXTRACT: note_on channel=9 note=46 velocity=0 time=0.13571414999999998
EXTRACT: note_on channel=9 note=54 velocity=0 time=0
EXTRACT: note_on channel=9 note=56 velocity=0 time=0
EXTRACT: note_on channel=9 note=36 velocity=0 time=0
EXTRACT: note_on channel=9 note=54 velocity=127 time=0.007142849999999999
EXTRACT: note_on channel=9 note=42 velocity=127 time=0
EXTRACT: note_on channel=9 note=54 velocity=0 time=0.13571414999999998
EXTRACT: note_on channel=12 note=43 velocity=0 time=0
EXTRACT: note_on channel=14 note=43 velocity=0 time=0
EXTRACT: note_on channel=9 note=46 velocity=127 time=0.007142849999999999
EXTRACT: note_on channel=9 note=54 velocity=127 time=0
EXTRACT: note_on channel=9 note=56 velocity=127 time=0
EXTRACT: note_on channel=12 note=43 velocity=127 time=0
EXTRACT: note_on channel=14 note=43 velocity=127 time=0
EXTRACT: note_on channel=9 note=46 velocity=0 time=0.13571414999999998
EXTRACT: note_on channel=9 note=54 velocity=0 time=0
EXTRACT: note_on channel=9 note=56 velocity=0 time=0
EXTRACT: note_on channel=9 note=42 velocity=0 time=0
EXTRACT: note_on channel=11 note=59 velocity=0 time=0
EXTRACT: note_on channel=11 note=62 velocity=0 time=0
EXTRACT: note_on channel=11 note=67 velocity=0 time=0
EXTRACT: note_on channel=13 note=59 velocity=0 time=0
EXTRACT: note_on channel=13 note=62 velocity=0 time=0
EXTRACT: note_on channel=13 note=67 velocity=0 time=0
EXTRACT: note_on channel=9 note=54 velocity=127 time=0.007142849999999999
EXTRACT: note_on channel=9 note=42 velocity=127 time=0
EXTRACT: note_on channel=11 note=59 velocity=127 time=0
EXTRACT: note_on channel=11 note=62 velocity=127 time=0
EXTRACT: note_on channel=11 note=67 velocity=127 time=0
EXTRACT: note_on channel=13 note=59 velocity=127 time=0
EXTRACT: note_on channel=13 note=62 velocity=127 time=0
EXTRACT: note_on channel=13 note=67 velocity=127 time=0
EXTRACT: note_on channel=9 note=54 velocity=0 time=0.13571414999999998
EXTRACT: note_on channel=9 note=42 velocity=0 time=0
EXTRACT: note_on channel=12 note=43 velocity=0 time=0
EXTRACT: note_on channel=14 note=43 velocity=0 time=0
EXTRACT: note_on channel=9 note=54 velocity=127 time=0.007142849999999999
EXTRACT: note_on channel=9 note=56 velocity=127 time=0
EXTRACT: note_on channel=9 note=39 velocity=127 time=0
EXTRACT: note_on channel=9 note=42 velocity=127 time=0
EXTRACT: note_on channel=12 note=43 velocity=127 time=0
EXTRACT: note_on channel=14 note=43 velocity=127 time=0
EXTRACT: note_on channel=9 note=39 velocity=0 time=0.13571414999999998
EXTRACT: note_on channel=9 note=42 velocity=0 time=0
EXTRACT: note_on channel=9 note=42 velocity=127 time=0.007142849999999999
EXTRACT: note_on channel=9 note=54 velocity=0 time=0.13571414999999998
EXTRACT: note_on channel=9 note=56 velocity=0 time=0
EXTRACT: note_on channel=9 note=42 velocity=0 time=0
EXTRACT: note_on channel=11 note=59 velocity=0 time=0
EXTRACT: note_on channel=11 note=62 velocity=0 time=0
EXTRACT: note_on channel=11 note=67 velocity=0 time=0
EXTRACT: note_on channel=12 note=43 velocity=0 time=0
EXTRACT: note_on channel=13 note=59 velocity=0 time=0
EXTRACT: note_on channel=13 note=62 velocity=0 time=0
EXTRACT: note_on channel=13 note=67 velocity=0 time=0
EXTRACT: note_on channel=14 note=43 velocity=0 time=0
EXTRACT: note_on channel=9 note=54 velocity=127 time=0.007142849999999999
EXTRACT: note_on channel=9 note=36 velocity=127 time=0
EXTRACT: note_on channel=9 note=42 velocity=127 time=0
EXTRACT: note_on channel=11 note=60 velocity=127 time=0
EXTRACT: note_on channel=11 note=63 velocity=127 time=0
EXTRACT: note_on channel=11 note=67 velocity=127 time=0
EXTRACT: note_on channel=12 note=47 velocity=127 time=0
EXTRACT: note_on channel=13 note=60 velocity=127 time=0
EXTRACT: note_on channel=13 note=63 velocity=127 time=0
EXTRACT: note_on channel=13 note=67 velocity=127 time=0
EXTRACT: note_on channel=14 note=47 velocity=127 time=0
EXTRACT: note_on channel=9 note=54 velocity=0 time=0.13571414999999998
EXTRACT: note_on channel=9 note=36 velocity=0 time=0
EXTRACT: note_on channel=9 note=42 velocity=0 time=0
EXTRACT: note_on channel=9 note=54 velocity=127 time=0.007142849999999999
EXTRACT: note_on channel=9 note=56 velocity=127 time=0
EXTRACT: note_on channel=9 note=42 velocity=127 time=0
EXTRACT: note_on channel=9 note=54 velocity=0 time=0.13571414999999998
EXTRACT: note_on channel=9 note=56 velocity=0 time=0
EXTRACT: note_on channel=9 note=42 velocity=0 time=0
EXTRACT: note_on channel=12 note=47 velocity=0 time=0
EXTRACT: note_on channel=14 note=47 velocity=0 time=0
EXTRACT: note_on channel=9 note=54 velocity=127 time=0.007142849999999999
EXTRACT: note_on channel=9 note=42 velocity=127 time=0
EXTRACT: note_on channel=12 note=48 velocity=127 time=0
EXTRACT: note_on channel=14 note=48 velocity=127 time=0
EXTRACT: note_on channel=9 note=54 velocity=0 time=0.13571414999999998
EXTRACT: note_on channel=9 note=42 velocity=0 time=0
EXTRACT: note_on channel=9 note=46 velocity=127 time=0.007142849999999999
EXTRACT: note_on channel=9 note=54 velocity=127 time=0
EXTRACT: note_on channel=9 note=56 velocity=127 time=0
EXTRACT: note_on channel=9 note=36 velocity=127 time=0
EXTRACT: note_on channel=9 note=46 velocity=0 time=0.13571414999999998
EXTRACT: note_on channel=9 note=54 velocity=0 time=0
EXTRACT: note_on channel=9 note=56 velocity=0 time=0
EXTRACT: note_on channel=9 note=36 velocity=0 time=0
EXTRACT: note_on channel=12 note=48 velocity=0 time=0
EXTRACT: note_on channel=14 note=48 velocity=0 time=0
EXTRACT: note_on channel=9 note=54 velocity=127 time=0.007142849999999999
EXTRACT: note_on channel=9 note=56 velocity=127 time=0
EXTRACT: note_on channel=9 note=36 velocity=127 time=0
EXTRACT: note_on channel=9 note=42 velocity=127 time=0
EXTRACT: note_on channel=12 note=48 velocity=127 time=0
EXTRACT: note_on channel=14 note=48 velocity=127 time=0
EXTRACT: note_on channel=9 note=54 velocity=0 time=0.13571414999999998
EXTRACT: note_on channel=9 note=56 velocity=0 time=0
EXTRACT: note_on channel=9 note=36 velocity=0 time=0
EXTRACT: note_on channel=9 note=42 velocity=0 time=0
EXTRACT: note_on channel=9 note=56 velocity=127 time=0.007142849999999999
EXTRACT: note_on channel=9 note=36 velocity=127 time=0
EXTRACT: note_on channel=9 note=42 velocity=127 time=0
EXTRACT: note_on channel=9 note=56 velocity=0 time=0.13571414999999998
EXTRACT: note_on channel=9 note=36 velocity=0 time=0
EXTRACT: note_on channel=9 note=42 velocity=0 time=0
EXTRACT: note_on channel=9 note=46 velocity=127 time=0.007142849999999999
EXTRACT: note_on channel=9 note=54 velocity=127 time=0
EXTRACT: note_on channel=9 note=56 velocity=127 time=0
EXTRACT: note_on channel=9 note=39 velocity=127 time=0
EXTRACT: note_on channel=9 note=46 velocity=0 time=0.13571414999999998
EXTRACT: note_on channel=9 note=54 velocity=0 time=0
EXTRACT: note_on channel=9 note=56 velocity=0 time=0
EXTRACT: note_on channel=9 note=39 velocity=0 time=0
EXTRACT: note_on channel=9 note=54 velocity=127 time=0.007142849999999999
EXTRACT: note_on channel=9 note=42 velocity=127 time=0
EXTRACT: note_on channel=9 note=54 velocity=0 time=0.13571414999999998
EXTRACT: note_on channel=9 note=42 velocity=0 time=0
EXTRACT: note_on channel=12 note=48 velocity=0 time=0
EXTRACT: note_on channel=14 note=48 velocity=0 time=0
EXTRACT: note_on channel=9 note=54 velocity=127 time=0.007142849999999999
EXTRACT: note_on channel=9 note=56 velocity=127 time=0
EXTRACT: note_on channel=9 note=36 velocity=127 time=0
EXTRACT: note_on channel=9 note=42 velocity=127 time=0
EXTRACT: note_on channel=12 note=43 velocity=127 time=0
EXTRACT: note_on channel=14 note=43 velocity=127 time=0
EXTRACT: note_on channel=9 note=54 velocity=0 time=0.13571414999999998
EXTRACT: note_on channel=9 note=56 velocity=0 time=0
EXTRACT: note_on channel=9 note=36 velocity=0 time=0
EXTRACT: note_on channel=9 note=42 velocity=0 time=0
EXTRACT: note_on channel=9 note=54 velocity=127 time=0.007142849999999999
EXTRACT: note_on channel=9 note=42 velocity=127 time=0
EXTRACT: note_on channel=11 note=60 velocity=0 time=0
EXTRACT: note_on channel=11 note=63 velocity=0 time=0
EXTRACT: note_on channel=11 note=67 velocity=0 time=0
EXTRACT: note_on channel=13 note=60 velocity=0 time=0
EXTRACT: note_on channel=13 note=63 velocity=0 time=0
EXTRACT: note_on channel=13 note=67 velocity=0 time=0
EXTRACT: note_on channel=9 note=54 velocity=0 time=0.13571414999999998
EXTRACT: note_on channel=9 note=42 velocity=0 time=0
EXTRACT: note_on channel=12 note=43 velocity=0 time=0
EXTRACT: note_on channel=14 note=43 velocity=0 time=0
EXTRACT: note_on channel=9 note=46 velocity=127 time=0
EXTRACT: note_on channel=9 note=54 velocity=127 time=0
EXTRACT: note_on channel=9 note=56 velocity=127 time=0
EXTRACT: note_on channel=9 note=36 velocity=127 time=0
EXTRACT: note_on channel=10 note=63 velocity=127 time=0
EXTRACT: note_on channel=11 note=60 velocity=127 time=0
EXTRACT: note_on channel=11 note=63 velocity=127 time=0
EXTRACT: note_on channel=11 note=67 velocity=127 time=0
EXTRACT: note_on channel=12 note=48 velocity=127 time=0
EXTRACT: note_on channel=13 note=60 velocity=127 time=0
EXTRACT: note_on channel=13 note=63 velocity=127 time=0
EXTRACT: note_on channel=13 note=67 velocity=127 time=0
EXTRACT: note_on channel=14 note=48 velocity=127 time=0
EXTRACT: note_on channel=10 note=63 velocity=127 time=0
EXTRACT: note_on channel=10 note=63 velocity=127 time=0
EXTRACT: note_on channel=9 note=46 velocity=0 time=0.1319443125
EXTRACT: note_on channel=9 note=54 velocity=0 time=0
EXTRACT: note_on channel=9 note=56 velocity=0 time=0
EXTRACT: note_on channel=9 note=36 velocity=0 time=0
EXTRACT: note_on channel=9 note=54 velocity=127 time=0.0069444375
EXTRACT: note_on channel=9 note=42 velocity=127 time=0
EXTRACT: note_on channel=9 note=54 velocity=0 time=0.1319443125
EXTRACT: note_on channel=9 note=46 velocity=127 time=0.0069444375
EXTRACT: note_on channel=9 note=54 velocity=127 time=0
EXTRACT: note_on channel=9 note=56 velocity=127 time=0
EXTRACT: note_on channel=9 note=46 velocity=0 time=0.1319443125
EXTRACT: note_on channel=9 note=54 velocity=0 time=0
EXTRACT: note_on channel=9 note=56 velocity=0 time=0
EXTRACT: note_on channel=9 note=42 velocity=0 time=0
EXTRACT: note_on channel=11 note=60 velocity=0 time=0
EXTRACT: note_on channel=11 note=63 velocity=0 time=0
EXTRACT: note_on channel=11 note=67 velocity=0 time=0
EXTRACT: note_on channel=13 note=60 velocity=0 time=0
EXTRACT: note_on channel=13 note=63 velocity=0 time=0
EXTRACT: note_on channel=13 note=67 velocity=0 time=0
EXTRACT: note_on channel=9 note=54 velocity=127 time=0.0069444375
EXTRACT: note_on channel=9 note=42 velocity=127 time=0
EXTRACT: note_on channel=11 note=60 velocity=127 time=0
EXTRACT: note_on channel=11 note=63 velocity=127 time=0
EXTRACT: note_on channel=11 note=67 velocity=127 time=0
EXTRACT: note_on channel=13 note=60 velocity=127 time=0
EXTRACT: note_on channel=13 note=63 velocity=127 time=0
EXTRACT: note_on channel=13 note=67 velocity=127 time=0
EXTRACT: note_on channel=12 note=48 velocity=0 time=0.04629625
EXTRACT: note_on channel=14 note=48 velocity=0 time=0
EXTRACT: note_on channel=9 note=54 velocity=0 time=0.0856480625
EXTRACT: note_on channel=9 note=42 velocity=0 time=0
EXTRACT: note_on channel=9 note=54 velocity=127 time=0.0069444375
EXTRACT: note_on channel=9 note=56 velocity=127 time=0
EXTRACT: note_on channel=9 note=39 velocity=127 time=0
EXTRACT: note_on channel=9 note=42 velocity=127 time=0
EXTRACT: note_on channel=12 note=48 velocity=127 time=0
EXTRACT: note_on channel=14 note=48 velocity=127 time=0
EXTRACT: note_on channel=9 note=39 velocity=0 time=0.1319443125
EXTRACT: note_on channel=9 note=42 velocity=0 time=0
EXTRACT: note_on channel=9 note=42 velocity=127 time=0.0069444375
EXTRACT: note_on channel=10 note=63 velocity=0 time=0.04629625
EXTRACT: note_on channel=10 note=63 velocity=0 time=0
EXTRACT: note_on channel=10 note=63 velocity=0 time=0
EXTRACT: note_on channel=9 note=54 velocity=0 time=0.0856480625
EXTRACT: note_on channel=9 note=56 velocity=0 time=0
EXTRACT: note_on channel=9 note=42 velocity=0 time=0
EXTRACT: note_on channel=11 note=60 velocity=0 time=0
EXTRACT: note_on channel=11 note=63 velocity=0 time=0
EXTRACT: note_on channel=11 note=67 velocity=0 time=0
EXTRACT: note_on channel=12 note=48 velocity=0 time=0
EXTRACT: note_on channel=13 note=60 velocity=0 time=0
EXTRACT: note_on channel=13 note=63 velocity=0 time=0
EXTRACT: note_on channel=13 note=67 velocity=0 time=0
EXTRACT: note_on channel=14 note=48 velocity=0 time=0
EXTRACT: note_on channel=9 note=54 velocity=127 time=0.0069444375
EXTRACT: note_on channel=9 note=36 velocity=127 time=0
EXTRACT: note_on channel=9 note=42 velocity=127 time=0
EXTRACT: note_on channel=10 note=60 velocity=127 time=0
EXTRACT: note_on channel=11 note=60 velocity=127 time=0
EXTRACT: note_on channel=11 note=63 velocity=127 time=0
EXTRACT: note_on channel=11 note=68 velocity=127 time=0
EXTRACT: note_on channel=12 note=43 velocity=127 time=0
EXTRACT: note_on channel=13 note=60 velocity=127 time=0
EXTRACT: note_on channel=13 note=63 velocity=127 time=0
EXTRACT: note_on channel=13 note=68 velocity=127 time=0
EXTRACT: note_on channel=14 note=43 velocity=127 time=0
EXTRACT: note_on channel=10 note=60 velocity=127 time=0
EXTRACT: note_on channel=10 note=60 velocity=127 time=0
EXTRACT: note_on channel=9 note=54 velocity=0 time=0.1319443125
EXTRACT: note_on channel=9 note=36 velocity=0 time=0
EXTRACT: note_on channel=9 note=42 velocity=0 time=0
EXTRACT: note_on channel=9 note=54 velocity=127 time=0.0069444375
EXTRACT: note_on channel=9 note=56 velocity=127 time=0
EXTRACT: note_on channel=9 note=42 velocity=127 time=0
EXTRACT: note_on channel=9 note=54 velocity=0 time=0.1319443125
EXTRACT: note_on channel=9 note=56 velocity=0 time=0
EXTRACT: note_on channel=9 note=42 velocity=0 time=0
EXTRACT: note_on channel=12 note=43 velocity=0 time=0
EXTRACT: note_on channel=14 note=43 velocity=0 time=0
EXTRACT: note_on channel=9 note=54 velocity=127 time=0.0069444375
EXTRACT: note_on channel=9 note=42 velocity=127 time=0
EXTRACT: note_on channel=12 note=44 velocity=127 time=0
EXTRACT: note_on channel=14 note=44 velocity=127 time=0
EXTRACT: note_on channel=9 note=54 velocity=0 time=0.1319443125
EXTRACT: note_on channel=9 note=42 velocity=0 time=0
EXTRACT: note_on channel=9 note=46 velocity=127 time=0.0069444375
EXTRACT: note_on channel=9 note=54 velocity=127 time=0
EXTRACT: note_on channel=9 note=56 velocity=127 time=0
EXTRACT: note_on channel=9 note=36 velocity=127 time=0
EXTRACT: note_on channel=9 note=46 velocity=0 time=0.1319443125
EXTRACT: note_on channel=9 note=54 velocity=0 time=0
EXTRACT: note_on channel=9 note=56 velocity=0 time=0
EXTRACT: note_on channel=9 note=36 velocity=0 time=0
EXTRACT: note_on channel=12 note=44 velocity=0 time=0
EXTRACT: note_on channel=14 note=44 velocity=0 time=0
EXTRACT: note_on channel=9 note=54 velocity=127 time=0.0069444375
EXTRACT: note_on channel=9 note=56 velocity=127 time=0
EXTRACT: note_on channel=9 note=36 velocity=127 time=0
EXTRACT: note_on channel=9 note=42 velocity=127 time=0
EXTRACT: note_on channel=12 note=44 velocity=127 time=0
EXTRACT: note_on channel=14 note=44 velocity=127 time=0
EXTRACT: note_on channel=9 note=54 velocity=0 time=0.1319443125
EXTRACT: note_on channel=9 note=56 velocity=0 time=0
EXTRACT: note_on channel=9 note=36 velocity=0 time=0
EXTRACT: note_on channel=9 note=42 velocity=0 time=0
EXTRACT: note_on channel=9 note=56 velocity=127 time=0.0069444375
EXTRACT: note_on channel=9 note=36 velocity=127 time=0
EXTRACT: note_on channel=9 note=42 velocity=127 time=0
EXTRACT: note_on channel=10 note=60 velocity=0 time=0.04629625
EXTRACT: note_on channel=10 note=60 velocity=0 time=0
EXTRACT: note_on channel=10 note=60 velocity=0 time=0
EXTRACT: note_on channel=9 note=56 velocity=0 time=0.0856480625
EXTRACT: note_on channel=9 note=36 velocity=0 time=0
EXTRACT: note_on channel=9 note=42 velocity=0 time=0
EXTRACT: note_on channel=9 note=46 velocity=127 time=0.0069444375
EXTRACT: note_on channel=9 note=54 velocity=127 time=0
EXTRACT: note_on channel=9 note=56 velocity=127 time=0
EXTRACT: note_on channel=9 note=39 velocity=127 time=0
EXTRACT: note_on channel=9 note=46 velocity=0 time=0.1319443125
EXTRACT: note_on channel=9 note=54 velocity=0 time=0
EXTRACT: note_on channel=9 note=56 velocity=0 time=0
EXTRACT: note_on channel=9 note=39 velocity=0 time=0
EXTRACT: note_on channel=9 note=54 velocity=127 time=0.0069444375
EXTRACT: note_on channel=9 note=42 velocity=127 time=0
EXTRACT: note_on channel=9 note=54 velocity=0 time=0.1319443125
EXTRACT: note_on channel=9 note=42 velocity=0 time=0
EXTRACT: note_on channel=9 note=54 velocity=127 time=0.0069444375
EXTRACT: note_on channel=9 note=56 velocity=127 time=0
EXTRACT: note_on channel=9 note=36 velocity=127 time=0
EXTRACT: note_on channel=9 note=42 velocity=127 time=0
EXTRACT: note_on channel=10 note=60 velocity=127 time=0
EXTRACT: note_on channel=10 note=60 velocity=127 time=0
EXTRACT: note_on channel=10 note=60 velocity=127 time=0
EXTRACT: note_on channel=9 note=54 velocity=0 time=0.1319443125
EXTRACT: note_on channel=9 note=56 velocity=0 time=0
EXTRACT: note_on channel=9 note=36 velocity=0 time=0
EXTRACT: note_on channel=9 note=42 velocity=0 time=0
EXTRACT: note_on channel=9 note=54 velocity=127 time=0.0069444375
EXTRACT: note_on channel=9 note=42 velocity=127 time=0
EXTRACT: note_on channel=11 note=60 velocity=0 time=0
EXTRACT: note_on channel=11 note=63 velocity=0 time=0
EXTRACT: note_on channel=11 note=68 velocity=0 time=0
EXTRACT: note_on channel=13 note=60 velocity=0 time=0
EXTRACT: note_on channel=13 note=63 velocity=0 time=0
EXTRACT: note_on channel=13 note=68 velocity=0 time=0
EXTRACT: note_on channel=12 note=44 velocity=0 time=0.04629625
EXTRACT: note_on channel=14 note=44 velocity=0 time=0
EXTRACT: note_on channel=9 note=54 velocity=0 time=0.0856480625
EXTRACT: note_on channel=9 note=42 velocity=0 time=0
EXTRACT: note_on channel=10 note=60 velocity=0 time=0
EXTRACT: note_on channel=10 note=60 velocity=0 time=0
EXTRACT: note_on channel=10 note=60 velocity=0 time=0
EXTRACT: note_on channel=9 note=46 velocity=127 time=0
EXTRACT: note_on channel=9 note=54 velocity=127 time=0
EXTRACT: note_on channel=9 note=56 velocity=127 time=0
EXTRACT: note_on channel=9 note=36 velocity=127 time=0
EXTRACT: note_on channel=10 note=62 velocity=127 time=0
EXTRACT: note_on channel=11 note=59 velocity=127 time=0
EXTRACT: note_on channel=11 note=62 velocity=127 time=0
EXTRACT: note_on channel=11 note=67 velocity=127 time=0
EXTRACT: note_on channel=12 note=43 velocity=127 time=0
EXTRACT: note_on channel=13 note=59 velocity=127 time=0
EXTRACT: note_on channel=13 note=62 velocity=127 time=0
EXTRACT: note_on channel=13 note=67 velocity=127 time=0
EXTRACT: note_on channel=14 note=43 velocity=127 time=0
EXTRACT: note_on channel=10 note=62 velocity=127 time=0
EXTRACT: note_on channel=10 note=62 velocity=127 time=0
EXTRACT: note_on channel=9 note=46 velocity=0 time=0.1319443125
EXTRACT: note_on channel=9 note=54 velocity=0 time=0
EXTRACT: note_on channel=9 note=56 velocity=0 time=0
EXTRACT: note_on channel=9 note=36 velocity=0 time=0
EXTRACT: note_on channel=9 note=54 velocity=127 time=0.0069444375
EXTRACT: note_on channel=9 note=42 velocity=127 time=0
EXTRACT: note_on channel=9 note=54 velocity=0 time=0.1319443125
EXTRACT: note_on channel=10 note=62 velocity=0 time=0
EXTRACT: note_on channel=10 note=62 velocity=0 time=0
EXTRACT: note_on channel=10 note=62 velocity=0 time=0
EXTRACT: note_on channel=9 note=46 velocity=127 time=0.0069444375
EXTRACT: note_on channel=9 note=54 velocity=127 time=0
EXTRACT: note_on channel=9 note=56 velocity=127 time=0
EXTRACT: note_on channel=10 note=62 velocity=127 time=0
EXTRACT: note_on channel=10 note=62 velocity=127 time=0
EXTRACT: note_on channel=10 note=62 velocity=127 time=0
EXTRACT: note_on channel=9 note=46 velocity=0 time=0.1319443125
EXTRACT: note_on channel=9 note=54 velocity=0 time=0
EXTRACT: note_on channel=9 note=56 velocity=0 time=0
EXTRACT: note_on channel=9 note=42 velocity=0 time=0
EXTRACT: note_on channel=11 note=59 velocity=0 time=0
EXTRACT: note_on channel=11 note=62 velocity=0 time=0
EXTRACT: note_on channel=11 note=67 velocity=0 time=0
EXTRACT: note_on channel=13 note=59 velocity=0 time=0
EXTRACT: note_on channel=13 note=62 velocity=0 time=0
EXTRACT: note_on channel=13 note=67 velocity=0 time=0
EXTRACT: note_on channel=9 note=54 velocity=127 time=0.0069444375
EXTRACT: note_on channel=9 note=42 velocity=127 time=0
EXTRACT: note_on channel=11 note=59 velocity=127 time=0
EXTRACT: note_on channel=11 note=62 velocity=127 time=0
EXTRACT: note_on channel=11 note=67 velocity=127 time=0
EXTRACT: note_on channel=13 note=59 velocity=127 time=0
EXTRACT: note_on channel=13 note=62 velocity=127 time=0
EXTRACT: note_on channel=13 note=67 velocity=127 time=0
EXTRACT: note_on channel=12 note=43 velocity=0 time=0.04629625
EXTRACT: note_on channel=14 note=43 velocity=0 time=0
EXTRACT: note_on channel=9 note=54 velocity=0 time=0.0856480625
EXTRACT: note_on channel=9 note=42 velocity=0 time=0
EXTRACT: note_on channel=10 note=62 velocity=0 time=0
EXTRACT: note_on channel=10 note=62 velocity=0 time=0
EXTRACT: note_on channel=10 note=62 velocity=0 time=0
EXTRACT: note_on channel=9 note=54 velocity=127 time=0.0069444375
EXTRACT: note_on channel=9 note=56 velocity=127 time=0
EXTRACT: note_on channel=9 note=39 velocity=127 time=0
EXTRACT: note_on channel=9 note=42 velocity=127 time=0
EXTRACT: note_on channel=10 note=60 velocity=127 time=0
EXTRACT: note_on channel=12 note=43 velocity=127 time=0
EXTRACT: note_on channel=14 note=43 velocity=127 time=0
EXTRACT: note_on channel=10 note=60 velocity=127 time=0
EXTRACT: note_on channel=10 note=60 velocity=127 time=0
EXTRACT: note_on channel=9 note=39 velocity=0 time=0.1319443125
EXTRACT: note_on channel=9 note=42 velocity=0 time=0
EXTRACT: note_on channel=9 note=42 velocity=127 time=0.0069444375
EXTRACT: note_on channel=9 note=54 velocity=0 time=0.1319443125
EXTRACT: note_on channel=9 note=56 velocity=0 time=0
EXTRACT: note_on channel=9 note=42 velocity=0 time=0
EXTRACT: note_on channel=10 note=60 velocity=0 time=0
EXTRACT: note_on channel=11 note=59 velocity=0 time=0
EXTRACT: note_on channel=11 note=62 velocity=0 time=0
EXTRACT: note_on channel=11 note=67 velocity=0 time=0
EXTRACT: note_on channel=12 note=43 velocity=0 time=0
EXTRACT: note_on channel=13 note=59 velocity=0 time=0
EXTRACT: note_on channel=13 note=62 velocity=0 time=0
EXTRACT: note_on channel=13 note=67 velocity=0 time=0
EXTRACT: note_on channel=14 note=43 velocity=0 time=0
EXTRACT: note_on channel=10 note=60 velocity=0 time=0
EXTRACT: note_on channel=10 note=60 velocity=0 time=0
EXTRACT: note_on channel=9 note=54 velocity=127 time=0.0069444375
EXTRACT: note_on channel=9 note=36 velocity=127 time=0
EXTRACT: note_on channel=9 note=42 velocity=127 time=0
EXTRACT: note_on channel=10 note=60 velocity=127 time=0
EXTRACT: note_on channel=11 note=60 velocity=127 time=0
EXTRACT: note_on channel=11 note=63 velocity=127 time=0
EXTRACT: note_on channel=11 note=67 velocity=127 time=0
EXTRACT: note_on channel=12 note=47 velocity=127 time=0
EXTRACT: note_on channel=13 note=60 velocity=127 time=0
EXTRACT: note_on channel=13 note=63 velocity=127 time=0
EXTRACT: note_on channel=13 note=67 velocity=127 time=0
EXTRACT: note_on channel=14 note=47 velocity=127 time=0
EXTRACT: note_on channel=10 note=60 velocity=127 time=0
EXTRACT: note_on channel=10 note=60 velocity=127 time=0
EXTRACT: note_on channel=9 note=54 velocity=0 time=0.1319443125
EXTRACT: note_on channel=9 note=36 velocity=0 time=0
EXTRACT: note_on channel=9 note=42 velocity=0 time=0
EXTRACT: note_on channel=9 note=54 velocity=127 time=0.0069444375
EXTRACT: note_on channel=9 note=56 velocity=127 time=0
EXTRACT: note_on channel=9 note=42 velocity=127 time=0
EXTRACT: note_on channel=9 note=54 velocity=0 time=0.1319443125
EXTRACT: note_on channel=9 note=56 velocity=0 time=0
EXTRACT: note_on channel=9 note=42 velocity=0 time=0
EXTRACT: note_on channel=12 note=47 velocity=0 time=0
EXTRACT: note_on channel=14 note=47 velocity=0 time=0
EXTRACT: note_on channel=9 note=54 velocity=127 time=0.0069444375
EXTRACT: note_on channel=9 note=42 velocity=127 time=0
EXTRACT: note_on channel=12 note=48 velocity=127 time=0
EXTRACT: note_on channel=14 note=48 velocity=127 time=0
EXTRACT: note_on channel=9 note=54 velocity=0 time=0.1319443125
EXTRACT: note_on channel=9 note=42 velocity=0 time=0
EXTRACT: note_on channel=10 note=60 velocity=0 time=0
EXTRACT: note_on channel=10 note=60 velocity=0 time=0
EXTRACT: note_on channel=10 note=60 velocity=0 time=0
EXTRACT: note_on channel=9 note=46 velocity=127 time=0.0069444375
EXTRACT: note_on channel=9 note=54 velocity=127 time=0
EXTRACT: note_on channel=9 note=56 velocity=127 time=0
EXTRACT: note_on channel=9 note=36 velocity=127 time=0
EXTRACT: note_on channel=10 note=58 velocity=127 time=0
EXTRACT: note_on channel=10 note=58 velocity=127 time=0
EXTRACT: note_on channel=10 note=58 velocity=127 time=0
EXTRACT: note_on channel=9 note=46 velocity=0 time=0.1319443125
EXTRACT: note_on channel=9 note=54 velocity=0 time=0
EXTRACT: note_on channel=9 note=56 velocity=0 time=0
EXTRACT: note_on channel=9 note=36 velocity=0 time=0
EXTRACT: note_on channel=10 note=58 velocity=0 time=0
EXTRACT: note_on channel=12 note=48 velocity=0 time=0
EXTRACT: note_on channel=14 note=48 velocity=0 time=0
EXTRACT: note_on channel=10 note=58 velocity=0 time=0
EXTRACT: note_on channel=10 note=58 velocity=0 time=0
EXTRACT: note_on channel=9 note=54 velocity=127 time=0.0069444375
EXTRACT: note_on channel=9 note=56 velocity=127 time=0
EXTRACT: note_on channel=9 note=36 velocity=127 time=0
EXTRACT: note_on channel=9 note=42 velocity=127 time=0
EXTRACT: note_on channel=10 note=55 velocity=127 time=0
EXTRACT: note_on channel=12 note=48 velocity=127 time=0
EXTRACT: note_on channel=14 note=48 velocity=127 time=0
EXTRACT: note_on channel=10 note=55 velocity=127 time=0
EXTRACT: note_on channel=10 note=55 velocity=127 time=0
EXTRACT: note_on channel=9 note=54 velocity=0 time=0.1319443125
EXTRACT: note_on channel=9 note=56 velocity=0 time=0
EXTRACT: note_on channel=9 note=36 velocity=0 time=0
EXTRACT: note_on channel=9 note=42 velocity=0 time=0
EXTRACT: note_on channel=9 note=56 velocity=127 time=0.0069444375
EXTRACT: note_on channel=9 note=36 velocity=127 time=0
EXTRACT: note_on channel=9 note=42 velocity=127 time=0
EXTRACT: note_on channel=9 note=56 velocity=0 time=0.1319443125
EXTRACT: note_on channel=9 note=36 velocity=0 time=0
EXTRACT: note_on channel=9 note=42 velocity=0 time=0
EXTRACT: note_on channel=10 note=55 velocity=0 time=0
EXTRACT: note_on channel=10 note=55 velocity=0 time=0
EXTRACT: note_on channel=10 note=55 velocity=0 time=0
EXTRACT: note_on channel=9 note=46 velocity=127 time=0.0069444375
EXTRACT: note_on channel=9 note=54 velocity=127 time=0
EXTRACT: note_on channel=9 note=56 velocity=127 time=0
EXTRACT: note_on channel=9 note=39 velocity=127 time=0
EXTRACT: note_on channel=9 note=46 velocity=0 time=0.1319443125
EXTRACT: note_on channel=9 note=54 velocity=0 time=0
EXTRACT: note_on channel=9 note=56 velocity=0 time=0
EXTRACT: note_on channel=9 note=39 velocity=0 time=0
EXTRACT: note_on channel=9 note=54 velocity=127 time=0.0069444375
EXTRACT: note_on channel=9 note=42 velocity=127 time=0
EXTRACT: note_on channel=9 note=54 velocity=0 time=0.1319443125
EXTRACT: note_on channel=9 note=42 velocity=0 time=0
EXTRACT: note_on channel=9 note=54 velocity=127 time=0.0069444375
EXTRACT: note_on channel=9 note=56 velocity=127 time=0
EXTRACT: note_on channel=9 note=36 velocity=127 time=0
EXTRACT: note_on channel=9 note=42 velocity=127 time=0
EXTRACT: note_on channel=9 note=54 velocity=0 time=0.1319443125
EXTRACT: note_on channel=9 note=56 velocity=0 time=0
EXTRACT: note_on channel=9 note=36 velocity=0 time=0
EXTRACT: note_on channel=9 note=42 velocity=0 time=0
EXTRACT: note_on channel=9 note=54 velocity=127 time=0.0069444375
EXTRACT: note_on channel=9 note=42 velocity=127 time=0
EXTRACT: note_on channel=11 note=60 velocity=0 time=0
EXTRACT: note_on channel=11 note=63 velocity=0 time=0
EXTRACT: note_on channel=11 note=67 velocity=0 time=0
EXTRACT: note_on channel=13 note=60 velocity=0 time=0
EXTRACT: note_on channel=13 note=63 velocity=0 time=0
EXTRACT: note_on channel=13 note=67 velocity=0 time=0
EXTRACT: note_on channel=12 note=48 velocity=0 time=0.04629625
EXTRACT: note_on channel=14 note=48 velocity=0 time=0
EXTRACT: note_on channel=9 note=54 velocity=0 time=0.0856480625
EXTRACT: note_on channel=9 note=42 velocity=0 time=0
EXTRACT: note_on channel=9 note=46 velocity=127 time=0
EXTRACT: note_on channel=9 note=54 velocity=127 time=0
EXTRACT: note_on channel=9 note=56 velocity=127 time=0
EXTRACT: note_on channel=9 note=36 velocity=127 time=0
EXTRACT: note_on channel=11 note=60 velocity=127 time=0
EXTRACT: note_on channel=11 note=63 velocity=127 time=0
EXTRACT: note_on channel=11 note=67 velocity=127 time=0
EXTRACT: note_on channel=12 note=48 velocity=127 time=0
EXTRACT: note_on channel=13 note=60 velocity=127 time=0
EXTRACT: note_on channel=13 note=63 velocity=127 time=0
EXTRACT: note_on channel=13 note=67 velocity=127 time=0
EXTRACT: note_on channel=14 note=48 velocity=127 time=0
EXTRACT: note_on channel=9 note=46 velocity=0 time=0.1344337875
EXTRACT: note_on channel=9 note=54 velocity=0 time=0
EXTRACT: note_on channel=9 note=56 velocity=0 time=0
EXTRACT: note_on channel=9 note=36 velocity=0 time=0
EXTRACT: note_on channel=9 note=54 velocity=127 time=0.0070754625
EXTRACT: note_on channel=9 note=42 velocity=127 time=0
EXTRACT: note_on channel=9 note=54 velocity=0 time=0.1344337875
EXTRACT: note_on channel=9 note=46 velocity=127 time=0.0070754625
EXTRACT: note_on channel=9 note=54 velocity=127 time=0
EXTRACT: note_on channel=9 note=56 velocity=127 time=0
EXTRACT: note_on channel=10 note=63 velocity=127 time=0
EXTRACT: note_on channel=10 note=63 velocity=127 time=0
EXTRACT: note_on channel=10 note=63 velocity=127 time=0
EXTRACT: note_on channel=9 note=46 velocity=0 time=0.1344337875
EXTRACT: note_on channel=9 note=54 velocity=0 time=0
EXTRACT: note_on channel=9 note=56 velocity=0 time=0
EXTRACT: note_on channel=9 note=42 velocity=0 time=0
EXTRACT: note_on channel=11 note=60 velocity=0 time=0
EXTRACT: note_on channel=11 note=63 velocity=0 time=0
EXTRACT: note_on channel=11 note=67 velocity=0 time=0
EXTRACT: note_on channel=13 note=60 velocity=0 time=0
EXTRACT: note_on channel=13 note=63 velocity=0 time=0
EXTRACT: note_on channel=13 note=67 velocity=0 time=0
EXTRACT: note_on channel=9 note=54 velocity=127 time=0.0070754625
EXTRACT: note_on channel=9 note=42 velocity=127 time=0
EXTRACT: note_on channel=11 note=60 velocity=127 time=0
EXTRACT: note_on channel=11 note=63 velocity=127 time=0
EXTRACT: note_on channel=11 note=67 velocity=127 time=0
EXTRACT: note_on channel=13 note=60 velocity=127 time=0
EXTRACT: note_on channel=13 note=63 velocity=127 time=0
EXTRACT: note_on channel=13 note=67 velocity=127 time=0
EXTRACT: note_on channel=12 note=48 velocity=0 time=0.047169749999999996
EXTRACT: note_on channel=14 note=48 velocity=0 time=0
EXTRACT: note_on channel=9 note=54 velocity=0 time=0.0872640375
EXTRACT: note_on channel=9 note=42 velocity=0 time=0
EXTRACT: note_on channel=10 note=63 velocity=0 time=0
EXTRACT: note_on channel=10 note=63 velocity=0 time=0
EXTRACT: note_on channel=10 note=63 velocity=0 time=0
EXTRACT: note_on channel=9 note=54 velocity=127 time=0.0070754625
EXTRACT: note_on channel=9 note=56 velocity=127 time=0
EXTRACT: note_on channel=9 note=39 velocity=127 time=0
EXTRACT: note_on channel=9 note=42 velocity=127 time=0
EXTRACT: note_on channel=10 note=63 velocity=127 time=0
EXTRACT: note_on channel=12 note=48 velocity=127 time=0
EXTRACT: note_on channel=14 note=48 velocity=127 time=0
EXTRACT: note_on channel=10 note=63 velocity=127 time=0
EXTRACT: note_on channel=10 note=63 velocity=127 time=0
EXTRACT: note_on channel=9 note=39 velocity=0 time=0.1344337875
EXTRACT: note_on channel=9 note=42 velocity=0 time=0
EXTRACT: note_on channel=9 note=42 velocity=127 time=0.0070754625
EXTRACT: note_on channel=9 note=54 velocity=0 time=0.1344337875
EXTRACT: note_on channel=9 note=56 velocity=0 time=0
EXTRACT: note_on channel=9 note=42 velocity=0 time=0
EXTRACT: note_on channel=10 note=63 velocity=0 time=0
EXTRACT: note_on channel=11 note=60 velocity=0 time=0
EXTRACT: note_on channel=11 note=63 velocity=0 time=0
EXTRACT: note_on channel=11 note=67 velocity=0 time=0
EXTRACT: note_on channel=12 note=48 velocity=0 time=0
EXTRACT: note_on channel=13 note=60 velocity=0 time=0
EXTRACT: note_on channel=13 note=63 velocity=0 time=0
EXTRACT: note_on channel=13 note=67 velocity=0 time=0
EXTRACT: note_on channel=14 note=48 velocity=0 time=0
EXTRACT: note_on channel=10 note=63 velocity=0 time=0
EXTRACT: note_on channel=10 note=63 velocity=0 time=0
EXTRACT: note_on channel=9 note=54 velocity=127 time=0.0070754625
EXTRACT: note_on channel=9 note=36 velocity=127 time=0
EXTRACT: note_on channel=9 note=42 velocity=127 time=0
EXTRACT: note_on channel=10 note=60 velocity=127 time=0
EXTRACT: note_on channel=11 note=60 velocity=127 time=0
EXTRACT: note_on channel=11 note=63 velocity=127 time=0
EXTRACT: note_on channel=11 note=68 velocity=127 time=0
EXTRACT: note_on channel=12 note=43 velocity=127 time=0
EXTRACT: note_on channel=13 note=60 velocity=127 time=0
EXTRACT: note_on channel=13 note=63 velocity=127 time=0
EXTRACT: note_on channel=13 note=68 velocity=127 time=0
EXTRACT: note_on channel=14 note=43 velocity=127 time=0
EXTRACT: note_on channel=10 note=60 velocity=127 time=0
EXTRACT: note_on channel=10 note=60 velocity=127 time=0
EXTRACT: note_on channel=9 note=54 velocity=0 time=0.1344337875
EXTRACT: note_on channel=9 note=36 velocity=0 time=0
EXTRACT: note_on channel=9 note=42 velocity=0 time=0
EXTRACT: note_on channel=9 note=54 velocity=127 time=0.0070754625
EXTRACT: note_on channel=9 note=56 velocity=127 time=0
EXTRACT: note_on channel=9 note=42 velocity=127 time=0
EXTRACT: note_on channel=9 note=54 velocity=0 time=0.1344337875
EXTRACT: note_on channel=9 note=56 velocity=0 time=0
EXTRACT: note_on channel=9 note=42 velocity=0 time=0
EXTRACT: note_on channel=10 note=60 velocity=0 time=0
EXTRACT: note_on channel=12 note=43 velocity=0 time=0
EXTRACT: note_on channel=14 note=43 velocity=0 time=0
EXTRACT: note_on channel=10 note=60 velocity=0 time=0
EXTRACT: note_on channel=10 note=60 velocity=0 time=0
EXTRACT: note_on channel=9 note=54 velocity=127 time=0.0070754625
EXTRACT: note_on channel=9 note=42 velocity=127 time=0
EXTRACT: note_on channel=10 note=63 velocity=127 time=0
EXTRACT: note_on channel=12 note=44 velocity=127 time=0
EXTRACT: note_on channel=14 note=44 velocity=127 time=0
EXTRACT: note_on channel=10 note=63 velocity=127 time=0
EXTRACT: note_on channel=10 note=63 velocity=127 time=0
EXTRACT: note_on channel=9 note=54 velocity=0 time=0.1344337875
EXTRACT: note_on channel=9 note=42 velocity=0 time=0
EXTRACT: note_on channel=9 note=46 velocity=127 time=0.0070754625
EXTRACT: note_on channel=9 note=54 velocity=127 time=0
EXTRACT: note_on channel=9 note=56 velocity=127 time=0
EXTRACT: note_on channel=9 note=36 velocity=127 time=0
EXTRACT: note_on channel=9 note=46 velocity=0 time=0.1344337875
EXTRACT: note_on channel=9 note=54 velocity=0 time=0
EXTRACT: note_on channel=9 note=56 velocity=0 time=0
EXTRACT: note_on channel=9 note=36 velocity=0 time=0
EXTRACT: note_on channel=10 note=63 velocity=0 time=0
EXTRACT: note_on channel=12 note=44 velocity=0 time=0
EXTRACT: note_on channel=14 note=44 velocity=0 time=0
EXTRACT: note_on channel=10 note=63 velocity=0 time=0
EXTRACT: note_on channel=10 note=63 velocity=0 time=0
EXTRACT: note_on channel=9 note=54 velocity=127 time=0.0070754625
EXTRACT: note_on channel=9 note=56 velocity=127 time=0
EXTRACT: note_on channel=9 note=36 velocity=127 time=0
EXTRACT: note_on channel=9 note=42 velocity=127 time=0
EXTRACT: note_on channel=10 note=60 velocity=127 time=0
EXTRACT: note_on channel=12 note=44 velocity=127 time=0
EXTRACT: note_on channel=14 note=44 velocity=127 time=0
EXTRACT: note_on channel=10 note=60 velocity=127 time=0
EXTRACT: note_on channel=10 note=60 velocity=127 time=0
EXTRACT: note_on channel=9 note=54 velocity=0 time=0.1344337875
EXTRACT: note_on channel=9 note=56 velocity=0 time=0
EXTRACT: note_on channel=9 note=36 velocity=0 time=0
EXTRACT: note_on channel=9 note=42 velocity=0 time=0
EXTRACT: note_on channel=9 note=56 velocity=127 time=0.0070754625
EXTRACT: note_on channel=9 note=36 velocity=127 time=0
EXTRACT: note_on channel=9 note=42 velocity=127 time=0
EXTRACT: note_on channel=9 note=56 velocity=0 time=0.1344337875
EXTRACT: note_on channel=9 note=36 velocity=0 time=0
EXTRACT: note_on channel=9 note=42 velocity=0 time=0
EXTRACT: note_on channel=10 note=60 velocity=0 time=0
EXTRACT: note_on channel=10 note=60 velocity=0 time=0
EXTRACT: note_on channel=10 note=60 velocity=0 time=0
EXTRACT: note_on channel=9 note=46 velocity=127 time=0.0070754625
EXTRACT: note_on channel=9 note=54 velocity=127 time=0
EXTRACT: note_on channel=9 note=56 velocity=127 time=0
EXTRACT: note_on channel=9 note=39 velocity=127 time=0
EXTRACT: note_on channel=9 note=46 velocity=0 time=0.1344337875
EXTRACT: note_on channel=9 note=54 velocity=0 time=0
EXTRACT: note_on channel=9 note=56 velocity=0 time=0
EXTRACT: note_on channel=9 note=39 velocity=0 time=0
EXTRACT: note_on channel=9 note=54 velocity=127 time=0.0070754625
EXTRACT: note_on channel=9 note=42 velocity=127 time=0
EXTRACT: note_on channel=9 note=54 velocity=0 time=0.1344337875
EXTRACT: note_on channel=9 note=42 velocity=0 time=0
EXTRACT: note_on channel=9 note=54 velocity=127 time=0.0070754625
EXTRACT: note_on channel=9 note=56 velocity=127 time=0
EXTRACT: note_on channel=9 note=36 velocity=127 time=0
EXTRACT: note_on channel=9 note=42 velocity=127 time=0
EXTRACT: note_on channel=9 note=54 velocity=0 time=0.1344337875
EXTRACT: note_on channel=9 note=56 velocity=0 time=0
EXTRACT: note_on channel=9 note=36 velocity=0 time=0
EXTRACT: note_on channel=9 note=42 velocity=0 time=0
EXTRACT: note_on channel=9 note=54 velocity=127 time=0.0070754625
EXTRACT: note_on channel=9 note=42 velocity=127 time=0
EXTRACT: note_on channel=11 note=60 velocity=0 time=0
EXTRACT: note_on channel=11 note=63 velocity=0 time=0
EXTRACT: note_on channel=11 note=68 velocity=0 time=0
EXTRACT: note_on channel=13 note=60 velocity=0 time=0
EXTRACT: note_on channel=13 note=63 velocity=0 time=0
EXTRACT: note_on channel=13 note=68 velocity=0 time=0
EXTRACT: note_on channel=12 note=44 velocity=0 time=0.047169749999999996
EXTRACT: note_on channel=14 note=44 velocity=0 time=0
EXTRACT: note_on channel=9 note=54 velocity=0 time=0.0872640375
EXTRACT: note_on channel=9 note=42 velocity=0 time=0
EXTRACT: note_on channel=9 note=46 velocity=127 time=0
EXTRACT: note_on channel=9 note=54 velocity=127 time=0
EXTRACT: note_on channel=9 note=56 velocity=127 time=0
EXTRACT: note_on channel=9 note=36 velocity=127 time=0
EXTRACT: note_on channel=10 note=59 velocity=127 time=0
EXTRACT: note_on channel=11 note=59 velocity=127 time=0
EXTRACT: note_on channel=11 note=62 velocity=127 time=0
EXTRACT: note_on channel=11 note=67 velocity=127 time=0
EXTRACT: note_on channel=12 note=43 velocity=127 time=0
EXTRACT: note_on channel=13 note=59 velocity=127 time=0
EXTRACT: note_on channel=13 note=62 velocity=127 time=0
EXTRACT: note_on channel=13 note=67 velocity=127 time=0
EXTRACT: note_on channel=14 note=43 velocity=127 time=0
EXTRACT: note_on channel=10 note=59 velocity=127 time=0
EXTRACT: note_on channel=10 note=59 velocity=127 time=0
EXTRACT: note_on channel=9 note=46 velocity=0 time=0.12954532500000002
EXTRACT: note_on channel=9 note=54 velocity=0 time=0
EXTRACT: note_on channel=9 note=56 velocity=0 time=0
EXTRACT: note_on channel=9 note=36 velocity=0 time=0
EXTRACT: note_on channel=9 note=54 velocity=127 time=0.006818175000000001
EXTRACT: note_on channel=9 note=42 velocity=127 time=0
EXTRACT: note_on channel=9 note=54 velocity=0 time=0.12954532500000002
EXTRACT: note_on channel=10 note=59 velocity=0 time=0
EXTRACT: note_on channel=10 note=59 velocity=0 time=0
EXTRACT: note_on channel=10 note=59 velocity=0 time=0
EXTRACT: note_on channel=9 note=46 velocity=127 time=0.006818175000000001
EXTRACT: note_on channel=9 note=54 velocity=127 time=0
EXTRACT: note_on channel=9 note=56 velocity=127 time=0
EXTRACT: note_on channel=10 note=60 velocity=127 time=0
EXTRACT: note_on channel=10 note=60 velocity=127 time=0
EXTRACT: note_on channel=10 note=60 velocity=127 time=0
EXTRACT: note_on channel=9 note=46 velocity=0 time=0.12954532500000002
EXTRACT: note_on channel=9 note=54 velocity=0 time=0
EXTRACT: note_on channel=9 note=56 velocity=0 time=0
EXTRACT: note_on channel=9 note=42 velocity=0 time=0
EXTRACT: note_on channel=11 note=59 velocity=0 time=0
EXTRACT: note_on channel=11 note=62 velocity=0 time=0
EXTRACT: note_on channel=11 note=67 velocity=0 time=0
EXTRACT: note_on channel=13 note=59 velocity=0 time=0
EXTRACT: note_on channel=13 note=62 velocity=0 time=0
EXTRACT: note_on channel=13 note=67 velocity=0 time=0
EXTRACT: note_on channel=9 note=54 velocity=127 time=0.006818175000000001
EXTRACT: note_on channel=9 note=42 velocity=127 time=0
EXTRACT: note_on channel=11 note=59 velocity=127 time=0
EXTRACT: note_on channel=11 note=62 velocity=127 time=0
EXTRACT: note_on channel=11 note=67 velocity=127 time=0
EXTRACT: note_on channel=13 note=59 velocity=127 time=0
EXTRACT: note_on channel=13 note=62 velocity=127 time=0
EXTRACT: note_on channel=13 note=67 velocity=127 time=0
EXTRACT: note_on channel=12 note=43 velocity=0 time=0.0454545
EXTRACT: note_on channel=14 note=43 velocity=0 time=0
EXTRACT: note_on channel=9 note=54 velocity=0 time=0.08409082500000001
EXTRACT: note_on channel=9 note=42 velocity=0 time=0
EXTRACT: note_on channel=10 note=60 velocity=0 time=0
EXTRACT: note_on channel=10 note=60 velocity=0 time=0
EXTRACT: note_on channel=10 note=60 velocity=0 time=0
EXTRACT: note_on channel=9 note=54 velocity=127 time=0.006818175000000001
EXTRACT: note_on channel=9 note=56 velocity=127 time=0
EXTRACT: note_on channel=9 note=39 velocity=127 time=0
EXTRACT: note_on channel=9 note=42 velocity=127 time=0
EXTRACT: note_on channel=10 note=62 velocity=127 time=0
EXTRACT: note_on channel=12 note=43 velocity=127 time=0
EXTRACT: note_on channel=14 note=43 velocity=127 time=0
EXTRACT: note_on channel=10 note=62 velocity=127 time=0
EXTRACT: note_on channel=10 note=62 velocity=127 time=0
EXTRACT: note_on channel=9 note=39 velocity=0 time=0.12954532500000002
EXTRACT: note_on channel=9 note=42 velocity=0 time=0
EXTRACT: note_on channel=9 note=42 velocity=127 time=0.006818175000000001
EXTRACT: note_on channel=9 note=54 velocity=0 time=0.12954532500000002
EXTRACT: note_on channel=9 note=56 velocity=0 time=0
EXTRACT: note_on channel=9 note=42 velocity=0 time=0
EXTRACT: note_on channel=10 note=62 velocity=0 time=0
EXTRACT: note_on channel=11 note=59 velocity=0 time=0
EXTRACT: note_on channel=11 note=62 velocity=0 time=0
EXTRACT: note_on channel=11 note=67 velocity=0 time=0
EXTRACT: note_on channel=12 note=43 velocity=0 time=0
EXTRACT: note_on channel=13 note=59 velocity=0 time=0
EXTRACT: note_on channel=13 note=62 velocity=0 time=0
EXTRACT: note_on channel=13 note=67 velocity=0 time=0
EXTRACT: note_on channel=14 note=43 velocity=0 time=0
EXTRACT: note_on channel=10 note=62 velocity=0 time=0
EXTRACT: note_on channel=10 note=62 velocity=0 time=0
EXTRACT: note_on channel=9 note=54 velocity=127 time=0.006818175000000001
EXTRACT: note_on channel=9 note=36 velocity=127 time=0
EXTRACT: note_on channel=9 note=42 velocity=127 time=0
EXTRACT: note_on channel=10 note=60 velocity=127 time=0
EXTRACT: note_on channel=11 note=60 velocity=127 time=0
EXTRACT: note_on channel=11 note=63 velocity=127 time=0
EXTRACT: note_on channel=11 note=67 velocity=127 time=0
EXTRACT: note_on channel=12 note=47 velocity=127 time=0
EXTRACT: note_on channel=13 note=60 velocity=127 time=0
EXTRACT: note_on channel=13 note=63 velocity=127 time=0
EXTRACT: note_on channel=13 note=67 velocity=127 time=0
EXTRACT: note_on channel=14 note=47 velocity=127 time=0
EXTRACT: note_on channel=10 note=60 velocity=127 time=0
EXTRACT: note_on channel=10 note=60 velocity=127 time=0
EXTRACT: note_on channel=9 note=54 velocity=0 time=0.12954532500000002
EXTRACT: note_on channel=9 note=36 velocity=0 time=0
EXTRACT: note_on channel=9 note=42 velocity=0 time=0
EXTRACT: note_on channel=9 note=54 velocity=127 time=0.006818175000000001
EXTRACT: note_on channel=9 note=56 velocity=127 time=0
EXTRACT: note_on channel=9 note=42 velocity=127 time=0
EXTRACT: note_on channel=9 note=54 velocity=0 time=0.12954532500000002
EXTRACT: note_on channel=9 note=56 velocity=0 time=0
EXTRACT: note_on channel=9 note=42 velocity=0 time=0
EXTRACT: note_on channel=12 note=47 velocity=0 time=0
EXTRACT: note_on channel=14 note=47 velocity=0 time=0
EXTRACT: note_on channel=9 note=54 velocity=127 time=0.006818175000000001
EXTRACT: note_on channel=9 note=42 velocity=127 time=0
EXTRACT: note_on channel=12 note=48 velocity=127 time=0
EXTRACT: note_on channel=14 note=48 velocity=127 time=0
EXTRACT: note_on channel=9 note=54 velocity=0 time=0.12954532500000002
EXTRACT: note_on channel=9 note=42 velocity=0 time=0
EXTRACT: note_on channel=9 note=46 velocity=127 time=0.006818175000000001
EXTRACT: note_on channel=9 note=54 velocity=127 time=0
EXTRACT: note_on channel=9 note=56 velocity=127 time=0
EXTRACT: note_on channel=9 note=36 velocity=127 time=0
EXTRACT: note_on channel=9 note=46 velocity=0 time=0.12954532500000002
EXTRACT: note_on channel=9 note=54 velocity=0 time=0
EXTRACT: note_on channel=9 note=56 velocity=0 time=0
EXTRACT: note_on channel=9 note=36 velocity=0 time=0
EXTRACT: note_on channel=12 note=48 velocity=0 time=0
EXTRACT: note_on channel=14 note=48 velocity=0 time=0
EXTRACT: note_on channel=9 note=54 velocity=127 time=0.006818175000000001
EXTRACT: note_on channel=9 note=56 velocity=127 time=0
EXTRACT: note_on channel=9 note=36 velocity=127 time=0
EXTRACT: note_on channel=9 note=42 velocity=127 time=0
EXTRACT: note_on channel=12 note=48 velocity=127 time=0
EXTRACT: note_on channel=14 note=48 velocity=127 time=0
EXTRACT: note_on channel=9 note=54 velocity=0 time=0.12954532500000002
EXTRACT: note_on channel=9 note=56 velocity=0 time=0
EXTRACT: note_on channel=9 note=36 velocity=0 time=0
EXTRACT: note_on channel=9 note=42 velocity=0 time=0
EXTRACT: note_on channel=9 note=56 velocity=127 time=0.006818175000000001
EXTRACT: note_on channel=9 note=36 velocity=127 time=0
EXTRACT: note_on channel=9 note=42 velocity=127 time=0
EXTRACT: note_on channel=9 note=56 velocity=0 time=0.12954532500000002
EXTRACT: note_on channel=9 note=36 velocity=0 time=0
EXTRACT: note_on channel=9 note=42 velocity=0 time=0
EXTRACT: note_on channel=9 note=46 velocity=127 time=0.006818175000000001
EXTRACT: note_on channel=9 note=54 velocity=127 time=0
EXTRACT: note_on channel=9 note=56 velocity=127 time=0
EXTRACT: note_on channel=9 note=39 velocity=127 time=0
EXTRACT: note_on channel=9 note=46 velocity=0 time=0.12954532500000002
EXTRACT: note_on channel=9 note=54 velocity=0 time=0
EXTRACT: note_on channel=9 note=56 velocity=0 time=0
EXTRACT: note_on channel=9 note=39 velocity=0 time=0
EXTRACT: note_on channel=9 note=54 velocity=127 time=0.006818175000000001
EXTRACT: note_on channel=9 note=42 velocity=127 time=0
EXTRACT: note_on channel=9 note=54 velocity=0 time=0.12954532500000002
EXTRACT: note_on channel=9 note=42 velocity=0 time=0
EXTRACT: note_on channel=9 note=54 velocity=127 time=0.006818175000000001
EXTRACT: note_on channel=9 note=56 velocity=127 time=0
EXTRACT: note_on channel=9 note=36 velocity=127 time=0
EXTRACT: note_on channel=9 note=42 velocity=127 time=0
EXTRACT: note_on channel=9 note=54 velocity=0 time=0.12954532500000002
EXTRACT: note_on channel=9 note=56 velocity=0 time=0
EXTRACT: note_on channel=9 note=36 velocity=0 time=0
EXTRACT: note_on channel=9 note=42 velocity=0 time=0
EXTRACT: note_on channel=9 note=54 velocity=127 time=0.006818175000000001
EXTRACT: note_on channel=9 note=42 velocity=127 time=0
EXTRACT: note_on channel=10 note=60 velocity=0 time=0
EXTRACT: note_on channel=11 note=60 velocity=0 time=0
EXTRACT: note_on channel=11 note=63 velocity=0 time=0
EXTRACT: note_on channel=11 note=67 velocity=0 time=0
EXTRACT: note_on channel=13 note=60 velocity=0 time=0
EXTRACT: note_on channel=13 note=63 velocity=0 time=0
EXTRACT: note_on channel=13 note=67 velocity=0 time=0
EXTRACT: note_on channel=10 note=60 velocity=0 time=0
EXTRACT: note_on channel=10 note=60 velocity=0 time=0
EXTRACT: note_on channel=12 note=48 velocity=0 time=0.0454545
EXTRACT: note_on channel=14 note=48 velocity=0 time=0
EXTRACT: note_on channel=9 note=54 velocity=0 time=0.08409082500000001
EXTRACT: note_on channel=9 note=42 velocity=0 time=0
EXTRACT: note_on channel=9 note=46 velocity=127 time=0
EXTRACT: note_on channel=9 note=54 velocity=127 time=0
EXTRACT: note_on channel=9 note=56 velocity=127 time=0
EXTRACT: note_on channel=9 note=36 velocity=127 time=0
EXTRACT: note_on channel=10 note=63 velocity=127 time=0
EXTRACT: note_on channel=11 note=60 velocity=127 time=0
EXTRACT: note_on channel=11 note=63 velocity=127 time=0
EXTRACT: note_on channel=11 note=67 velocity=127 time=0
EXTRACT: note_on channel=12 note=48 velocity=127 time=0
EXTRACT: note_on channel=13 note=60 velocity=127 time=0
EXTRACT: note_on channel=13 note=63 velocity=127 time=0
EXTRACT: note_on channel=13 note=67 velocity=127 time=0
EXTRACT: note_on channel=14 note=48 velocity=127 time=0
EXTRACT: note_on channel=10 note=63 velocity=127 time=0
EXTRACT: note_on channel=10 note=63 velocity=127 time=0
EXTRACT: note_on channel=9 note=46 velocity=0 time=0.1344337875
EXTRACT: note_on channel=9 note=54 velocity=0 time=0
EXTRACT: note_on channel=9 note=56 velocity=0 time=0
EXTRACT: note_on channel=9 note=36 velocity=0 time=0
EXTRACT: note_on channel=9 note=54 velocity=127 time=0.0070754625
EXTRACT: note_on channel=9 note=42 velocity=127 time=0
EXTRACT: note_on channel=9 note=54 velocity=0 time=0.1344337875
EXTRACT: note_on channel=9 note=46 velocity=127 time=0.0070754625
EXTRACT: note_on channel=9 note=54 velocity=127 time=0
EXTRACT: note_on channel=9 note=56 velocity=127 time=0
EXTRACT: note_on channel=9 note=46 velocity=0 time=0.1344337875
EXTRACT: note_on channel=9 note=54 velocity=0 time=0
EXTRACT: note_on channel=9 note=56 velocity=0 time=0
EXTRACT: note_on channel=9 note=42 velocity=0 time=0
EXTRACT: note_on channel=11 note=60 velocity=0 time=0
EXTRACT: note_on channel=11 note=63 velocity=0 time=0
EXTRACT: note_on channel=11 note=67 velocity=0 time=0
EXTRACT: note_on channel=13 note=60 velocity=0 time=0
EXTRACT: note_on channel=13 note=63 velocity=0 time=0
EXTRACT: note_on channel=13 note=67 velocity=0 time=0
EXTRACT: note_on channel=9 note=54 velocity=127 time=0.0070754625
EXTRACT: note_on channel=9 note=42 velocity=127 time=0
EXTRACT: note_on channel=11 note=60 velocity=127 time=0
EXTRACT: note_on channel=11 note=63 velocity=127 time=0
EXTRACT: note_on channel=11 note=67 velocity=127 time=0
EXTRACT: note_on channel=13 note=60 velocity=127 time=0
EXTRACT: note_on channel=13 note=63 velocity=127 time=0
EXTRACT: note_on channel=13 note=67 velocity=127 time=0
EXTRACT: note_on channel=12 note=48 velocity=0 time=0.047169749999999996
EXTRACT: note_on channel=14 note=48 velocity=0 time=0
EXTRACT: note_on channel=9 note=54 velocity=0 time=0.0872640375
EXTRACT: note_on channel=9 note=42 velocity=0 time=0
EXTRACT: note_on channel=9 note=54 velocity=127 time=0.0070754625
EXTRACT: note_on channel=9 note=56 velocity=127 time=0
EXTRACT: note_on channel=9 note=39 velocity=127 time=0
EXTRACT: note_on channel=9 note=42 velocity=127 time=0
EXTRACT: note_on channel=12 note=48 velocity=127 time=0
EXTRACT: note_on channel=14 note=48 velocity=127 time=0
EXTRACT: note_on channel=9 note=39 velocity=0 time=0.1344337875
EXTRACT: note_on channel=9 note=42 velocity=0 time=0
EXTRACT: note_on channel=9 note=42 velocity=127 time=0.0070754625
EXTRACT: note_on channel=10 note=63 velocity=0 time=0.047169749999999996
EXTRACT: note_on channel=10 note=63 velocity=0 time=0
EXTRACT: note_on channel=10 note=63 velocity=0 time=0
EXTRACT: note_on channel=9 note=54 velocity=0 time=0.0872640375
EXTRACT: note_on channel=9 note=56 velocity=0 time=0
EXTRACT: note_on channel=9 note=42 velocity=0 time=0
EXTRACT: note_on channel=11 note=60 velocity=0 time=0
EXTRACT: note_on channel=11 note=63 velocity=0 time=0
EXTRACT: note_on channel=11 note=67 velocity=0 time=0
EXTRACT: note_on channel=12 note=48 velocity=0 time=0
EXTRACT: note_on channel=13 note=60 velocity=0 time=0
EXTRACT: note_on channel=13 note=63 velocity=0 time=0
EXTRACT: note_on channel=13 note=67 velocity=0 time=0
EXTRACT: note_on channel=14 note=48 velocity=0 time=0
EXTRACT: note_on channel=9 note=54 velocity=127 time=0.0070754625
EXTRACT: note_on channel=9 note=36 velocity=127 time=0
EXTRACT: note_on channel=9 note=42 velocity=127 time=0
EXTRACT: note_on channel=10 note=60 velocity=127 time=0
EXTRACT: note_on channel=11 note=60 velocity=127 time=0
EXTRACT: note_on channel=11 note=63 velocity=127 time=0
EXTRACT: note_on channel=11 note=68 velocity=127 time=0
EXTRACT: note_on channel=12 note=43 velocity=127 time=0
EXTRACT: note_on channel=13 note=60 velocity=127 time=0
EXTRACT: note_on channel=13 note=63 velocity=127 time=0
EXTRACT: note_on channel=13 note=68 velocity=127 time=0
EXTRACT: note_on channel=14 note=43 velocity=127 time=0
EXTRACT: note_on channel=10 note=60 velocity=127 time=0
EXTRACT: note_on channel=10 note=60 velocity=127 time=0
EXTRACT: note_on channel=9 note=54 velocity=0 time=0.1344337875
EXTRACT: note_on channel=9 note=36 velocity=0 time=0
EXTRACT: note_on channel=9 note=42 velocity=0 time=0
EXTRACT: note_on channel=9 note=54 velocity=127 time=0.0070754625
EXTRACT: note_on channel=9 note=56 velocity=127 time=0
EXTRACT: note_on channel=9 note=42 velocity=127 time=0
EXTRACT: note_on channel=9 note=54 velocity=0 time=0.1344337875
EXTRACT: note_on channel=9 note=56 velocity=0 time=0
EXTRACT: note_on channel=9 note=42 velocity=0 time=0
EXTRACT: note_on channel=12 note=43 velocity=0 time=0
EXTRACT: note_on channel=14 note=43 velocity=0 time=0
EXTRACT: note_on channel=9 note=54 velocity=127 time=0.0070754625
EXTRACT: note_on channel=9 note=42 velocity=127 time=0
EXTRACT: note_on channel=12 note=44 velocity=127 time=0
EXTRACT: note_on channel=14 note=44 velocity=127 time=0
EXTRACT: note_on channel=9 note=54 velocity=0 time=0.1344337875
EXTRACT: note_on channel=9 note=42 velocity=0 time=0
EXTRACT: note_on channel=9 note=46 velocity=127 time=0.0070754625
EXTRACT: note_on channel=9 note=54 velocity=127 time=0
EXTRACT: note_on channel=9 note=56 velocity=127 time=0
EXTRACT: note_on channel=9 note=36 velocity=127 time=0
EXTRACT: note_on channel=9 note=46 velocity=0 time=0.1344337875
EXTRACT: note_on channel=9 note=54 velocity=0 time=0
EXTRACT: note_on channel=9 note=56 velocity=0 time=0
EXTRACT: note_on channel=9 note=36 velocity=0 time=0
EXTRACT: note_on channel=12 note=44 velocity=0 time=0
EXTRACT: note_on channel=14 note=44 velocity=0 time=0
EXTRACT: note_on channel=9 note=54 velocity=127 time=0.0070754625
EXTRACT: note_on channel=9 note=56 velocity=127 time=0
EXTRACT: note_on channel=9 note=36 velocity=127 time=0
EXTRACT: note_on channel=9 note=42 velocity=127 time=0
EXTRACT: note_on channel=12 note=44 velocity=127 time=0
EXTRACT: note_on channel=14 note=44 velocity=127 time=0
EXTRACT: note_on channel=9 note=54 velocity=0 time=0.1344337875
EXTRACT: note_on channel=9 note=56 velocity=0 time=0
EXTRACT: note_on channel=9 note=36 velocity=0 time=0
EXTRACT: note_on channel=9 note=42 velocity=0 time=0
EXTRACT: note_on channel=9 note=56 velocity=127 time=0.0070754625
EXTRACT: note_on channel=9 note=36 velocity=127 time=0
EXTRACT: note_on channel=9 note=42 velocity=127 time=0
EXTRACT: note_on channel=9 note=56 velocity=0 time=0.1344337875
EXTRACT: note_on channel=9 note=36 velocity=0 time=0
EXTRACT: note_on channel=9 note=42 velocity=0 time=0
EXTRACT: note_on channel=9 note=46 velocity=127 time=0.0070754625
EXTRACT: note_on channel=9 note=54 velocity=127 time=0
EXTRACT: note_on channel=9 note=56 velocity=127 time=0
EXTRACT: note_on channel=9 note=39 velocity=127 time=0
EXTRACT: note_on channel=9 note=46 velocity=0 time=0.1344337875
EXTRACT: note_on channel=9 note=54 velocity=0 time=0
EXTRACT: note_on channel=9 note=56 velocity=0 time=0
EXTRACT: note_on channel=9 note=39 velocity=0 time=0
EXTRACT: note_on channel=9 note=54 velocity=127 time=0.0070754625
EXTRACT: note_on channel=9 note=42 velocity=127 time=0
EXTRACT: note_on channel=10 note=60 velocity=0 time=0.047169749999999996
EXTRACT: note_on channel=10 note=60 velocity=0 time=0
EXTRACT: note_on channel=10 note=60 velocity=0 time=0
EXTRACT: note_on channel=9 note=54 velocity=0 time=0.0872640375
EXTRACT: note_on channel=9 note=42 velocity=0 time=0
EXTRACT: note_on channel=9 note=54 velocity=127 time=0.0070754625
EXTRACT: note_on channel=9 note=56 velocity=127 time=0
EXTRACT: note_on channel=9 note=36 velocity=127 time=0
EXTRACT: note_on channel=9 note=42 velocity=127 time=0
EXTRACT: note_on channel=10 note=60 velocity=127 time=0
EXTRACT: note_on channel=10 note=60 velocity=127 time=0
EXTRACT: note_on channel=10 note=60 velocity=127 time=0
EXTRACT: note_on channel=9 note=54 velocity=0 time=0.1344337875
EXTRACT: note_on channel=9 note=56 velocity=0 time=0
EXTRACT: note_on channel=9 note=36 velocity=0 time=0
EXTRACT: note_on channel=9 note=42 velocity=0 time=0
EXTRACT: note_on channel=9 note=54 velocity=127 time=0.0070754625
EXTRACT: note_on channel=9 note=42 velocity=127 time=0
EXTRACT: note_on channel=11 note=60 velocity=0 time=0
EXTRACT: note_on channel=11 note=63 velocity=0 time=0
EXTRACT: note_on channel=11 note=68 velocity=0 time=0
EXTRACT: note_on channel=13 note=60 velocity=0 time=0
EXTRACT: note_on channel=13 note=63 velocity=0 time=0
EXTRACT: note_on channel=13 note=68 velocity=0 time=0
EXTRACT: note_on channel=12 note=44 velocity=0 time=0.047169749999999996
EXTRACT: note_on channel=14 note=44 velocity=0 time=0
EXTRACT: note_on channel=9 note=54 velocity=0 time=0.0872640375
EXTRACT: note_on channel=9 note=42 velocity=0 time=0
EXTRACT: note_on channel=10 note=60 velocity=0 time=0
EXTRACT: note_on channel=10 note=60 velocity=0 time=0
EXTRACT: note_on channel=10 note=60 velocity=0 time=0
EXTRACT: note_on channel=9 note=46 velocity=127 time=0
EXTRACT: note_on channel=9 note=54 velocity=127 time=0
EXTRACT: note_on channel=9 note=56 velocity=127 time=0
EXTRACT: note_on channel=9 note=36 velocity=127 time=0
EXTRACT: note_on channel=10 note=59 velocity=127 time=0
EXTRACT: note_on channel=11 note=59 velocity=127 time=0
EXTRACT: note_on channel=11 note=62 velocity=127 time=0
EXTRACT: note_on channel=11 note=67 velocity=127 time=0
EXTRACT: note_on channel=12 note=43 velocity=127 time=0
EXTRACT: note_on channel=13 note=59 velocity=127 time=0
EXTRACT: note_on channel=13 note=62 velocity=127 time=0
EXTRACT: note_on channel=13 note=67 velocity=127 time=0
EXTRACT: note_on channel=14 note=43 velocity=127 time=0
EXTRACT: note_on channel=10 note=59 velocity=127 time=0
EXTRACT: note_on channel=10 note=59 velocity=127 time=0
EXTRACT: note_on channel=9 note=46 velocity=0 time=0.1344337875
EXTRACT: note_on channel=9 note=54 velocity=0 time=0
EXTRACT: note_on channel=9 note=56 velocity=0 time=0
EXTRACT: note_on channel=9 note=36 velocity=0 time=0
EXTRACT: note_on channel=9 note=54 velocity=127 time=0.0070754625
EXTRACT: note_on channel=9 note=42 velocity=127 time=0
EXTRACT: note_on channel=9 note=54 velocity=0 time=0.1344337875
EXTRACT: note_on channel=10 note=59 velocity=0 time=0
EXTRACT: note_on channel=10 note=59 velocity=0 time=0
EXTRACT: note_on channel=10 note=59 velocity=0 time=0
EXTRACT: note_on channel=9 note=46 velocity=127 time=0.0070754625
EXTRACT: note_on channel=9 note=54 velocity=127 time=0
EXTRACT: note_on channel=9 note=56 velocity=127 time=0
EXTRACT: note_on channel=10 note=60 velocity=127 time=0
EXTRACT: note_on channel=10 note=60 velocity=127 time=0
EXTRACT: note_on channel=10 note=60 velocity=127 time=0
EXTRACT: note_on channel=9 note=46 velocity=0 time=0.1344337875
EXTRACT: note_on channel=9 note=54 velocity=0 time=0
EXTRACT: note_on channel=9 note=56 velocity=0 time=0
EXTRACT: note_on channel=9 note=42 velocity=0 time=0
EXTRACT: note_on channel=11 note=59 velocity=0 time=0
EXTRACT: note_on channel=11 note=62 velocity=0 time=0
EXTRACT: note_on channel=11 note=67 velocity=0 time=0
EXTRACT: note_on channel=13 note=59 velocity=0 time=0
EXTRACT: note_on channel=13 note=62 velocity=0 time=0
EXTRACT: note_on channel=13 note=67 velocity=0 time=0
EXTRACT: note_on channel=9 note=54 velocity=127 time=0.0070754625
EXTRACT: note_on channel=9 note=42 velocity=127 time=0
EXTRACT: note_on channel=11 note=59 velocity=127 time=0
EXTRACT: note_on channel=11 note=62 velocity=127 time=0
EXTRACT: note_on channel=11 note=67 velocity=127 time=0
EXTRACT: note_on channel=13 note=59 velocity=127 time=0
EXTRACT: note_on channel=13 note=62 velocity=127 time=0
EXTRACT: note_on channel=13 note=67 velocity=127 time=0
EXTRACT: note_on channel=12 note=43 velocity=0 time=0.047169749999999996
EXTRACT: note_on channel=14 note=43 velocity=0 time=0
EXTRACT: note_on channel=9 note=54 velocity=0 time=0.0872640375
EXTRACT: note_on channel=9 note=42 velocity=0 time=0
EXTRACT: note_on channel=10 note=60 velocity=0 time=0
EXTRACT: note_on channel=10 note=60 velocity=0 time=0
EXTRACT: note_on channel=10 note=60 velocity=0 time=0
EXTRACT: note_on channel=9 note=54 velocity=127 time=0.0070754625
EXTRACT: note_on channel=9 note=56 velocity=127 time=0
EXTRACT: note_on channel=9 note=39 velocity=127 time=0
EXTRACT: note_on channel=9 note=42 velocity=127 time=0
EXTRACT: note_on channel=10 note=62 velocity=127 time=0
EXTRACT: note_on channel=12 note=43 velocity=127 time=0
EXTRACT: note_on channel=14 note=43 velocity=127 time=0
EXTRACT: note_on channel=10 note=62 velocity=127 time=0
EXTRACT: note_on channel=10 note=62 velocity=127 time=0
EXTRACT: note_on channel=9 note=39 velocity=0 time=0.1344337875
EXTRACT: note_on channel=9 note=42 velocity=0 time=0
EXTRACT: note_on channel=9 note=42 velocity=127 time=0.0070754625
EXTRACT: note_on channel=9 note=54 velocity=0 time=0.1344337875
EXTRACT: note_on channel=9 note=56 velocity=0 time=0
EXTRACT: note_on channel=9 note=42 velocity=0 time=0
EXTRACT: note_on channel=10 note=62 velocity=0 time=0
EXTRACT: note_on channel=11 note=59 velocity=0 time=0
EXTRACT: note_on channel=11 note=62 velocity=0 time=0
EXTRACT: note_on channel=11 note=67 velocity=0 time=0
EXTRACT: note_on channel=12 note=43 velocity=0 time=0
EXTRACT: note_on channel=13 note=59 velocity=0 time=0
EXTRACT: note_on channel=13 note=62 velocity=0 time=0
EXTRACT: note_on channel=13 note=67 velocity=0 time=0
EXTRACT: note_on channel=14 note=43 velocity=0 time=0
EXTRACT: note_on channel=10 note=62 velocity=0 time=0
EXTRACT: note_on channel=10 note=62 velocity=0 time=0
EXTRACT: note_on channel=9 note=54 velocity=127 time=0.0070754625
EXTRACT: note_on channel=9 note=36 velocity=127 time=0
EXTRACT: note_on channel=9 note=42 velocity=127 time=0
EXTRACT: note_on channel=10 note=60 velocity=127 time=0
EXTRACT: note_on channel=11 note=60 velocity=127 time=0
EXTRACT: note_on channel=11 note=63 velocity=127 time=0
EXTRACT: note_on channel=11 note=67 velocity=127 time=0
EXTRACT: note_on channel=12 note=47 velocity=127 time=0
EXTRACT: note_on channel=13 note=60 velocity=127 time=0
EXTRACT: note_on channel=13 note=63 velocity=127 time=0
EXTRACT: note_on channel=13 note=67 velocity=127 time=0
EXTRACT: note_on channel=14 note=47 velocity=127 time=0
EXTRACT: note_on channel=10 note=60 velocity=127 time=0
EXTRACT: note_on channel=10 note=60 velocity=127 time=0
EXTRACT: note_on channel=9 note=54 velocity=0 time=0.1344337875
EXTRACT: note_on channel=9 note=36 velocity=0 time=0
EXTRACT: note_on channel=9 note=42 velocity=0 time=0
EXTRACT: note_on channel=9 note=54 velocity=127 time=0.0070754625
EXTRACT: note_on channel=9 note=56 velocity=127 time=0
EXTRACT: note_on channel=9 note=42 velocity=127 time=0
EXTRACT: note_on channel=9 note=54 velocity=0 time=0.1344337875
EXTRACT: note_on channel=9 note=56 velocity=0 time=0
EXTRACT: note_on channel=9 note=42 velocity=0 time=0
EXTRACT: note_on channel=12 note=47 velocity=0 time=0
EXTRACT: note_on channel=14 note=47 velocity=0 time=0
EXTRACT: note_on channel=9 note=54 velocity=127 time=0.0070754625
EXTRACT: note_on channel=9 note=42 velocity=127 time=0
EXTRACT: note_on channel=12 note=48 velocity=127 time=0
EXTRACT: note_on channel=14 note=48 velocity=127 time=0
EXTRACT: note_on channel=9 note=54 velocity=0 time=0.1344337875
EXTRACT: note_on channel=9 note=42 velocity=0 time=0
EXTRACT: note_on channel=9 note=46 velocity=127 time=0.0070754625
EXTRACT: note_on channel=9 note=54 velocity=127 time=0
EXTRACT: note_on channel=9 note=56 velocity=127 time=0
EXTRACT: note_on channel=9 note=36 velocity=127 time=0
EXTRACT: note_on channel=9 note=46 velocity=0 time=0.1344337875
EXTRACT: note_on channel=9 note=54 velocity=0 time=0
EXTRACT: note_on channel=9 note=56 velocity=0 time=0
EXTRACT: note_on channel=9 note=36 velocity=0 time=0
EXTRACT: note_on channel=12 note=48 velocity=0 time=0
EXTRACT: note_on channel=14 note=48 velocity=0 time=0
EXTRACT: note_on channel=9 note=54 velocity=127 time=0.0070754625
EXTRACT: note_on channel=9 note=56 velocity=127 time=0
EXTRACT: note_on channel=9 note=36 velocity=127 time=0
EXTRACT: note_on channel=9 note=42 velocity=127 time=0
EXTRACT: note_on channel=10 note=60 velocity=0 time=0
EXTRACT: note_on channel=10 note=63 velocity=127 time=0
EXTRACT: note_on channel=12 note=48 velocity=127 time=0
EXTRACT: note_on channel=14 note=48 velocity=127 time=0
EXTRACT: note_on channel=10 note=60 velocity=0 time=0
EXTRACT: note_on channel=10 note=63 velocity=127 time=0
EXTRACT: note_on channel=10 note=60 velocity=0 time=0
EXTRACT: note_on channel=10 note=63 velocity=127 time=0
EXTRACT: note_on channel=9 note=54 velocity=0 time=0.1344337875
EXTRACT: note_on channel=9 note=56 velocity=0 time=0
EXTRACT: note_on channel=9 note=36 velocity=0 time=0
EXTRACT: note_on channel=9 note=42 velocity=0 time=0
EXTRACT: note_on channel=9 note=56 velocity=127 time=0.0070754625
EXTRACT: note_on channel=9 note=36 velocity=127 time=0
EXTRACT: note_on channel=9 note=42 velocity=127 time=0
EXTRACT: note_on channel=9 note=56 velocity=0 time=0.1344337875
EXTRACT: note_on channel=9 note=36 velocity=0 time=0
EXTRACT: note_on channel=9 note=42 velocity=0 time=0
EXTRACT: note_on channel=10 note=63 velocity=0 time=0
EXTRACT: note_on channel=10 note=63 velocity=0 time=0
EXTRACT: note_on channel=10 note=63 velocity=0 time=0
EXTRACT: note_on channel=9 note=46 velocity=127 time=0.0070754625
EXTRACT: note_on channel=9 note=54 velocity=127 time=0
EXTRACT: note_on channel=9 note=56 velocity=127 time=0
EXTRACT: note_on channel=9 note=39 velocity=127 time=0
EXTRACT: note_on channel=9 note=46 velocity=0 time=0.1344337875
EXTRACT: note_on channel=9 note=54 velocity=0 time=0
EXTRACT: note_on channel=9 note=56 velocity=0 time=0
EXTRACT: note_on channel=9 note=39 velocity=0 time=0
EXTRACT: note_on channel=9 note=54 velocity=127 time=0.0070754625
EXTRACT: note_on channel=9 note=42 velocity=127 time=0
EXTRACT: note_on channel=9 note=54 velocity=0 time=0.1344337875
EXTRACT: note_on channel=9 note=42 velocity=0 time=0
EXTRACT: note_on channel=9 note=54 velocity=127 time=0.0070754625
EXTRACT: note_on channel=9 note=56 velocity=127 time=0
EXTRACT: note_on channel=9 note=36 velocity=127 time=0
EXTRACT: note_on channel=9 note=42 velocity=127 time=0
EXTRACT: note_on channel=9 note=54 velocity=0 time=0.1344337875
EXTRACT: note_on channel=9 note=56 velocity=0 time=0
EXTRACT: note_on channel=9 note=36 velocity=0 time=0
EXTRACT: note_on channel=9 note=42 velocity=0 time=0
EXTRACT: note_on channel=9 note=54 velocity=127 time=0.0070754625
EXTRACT: note_on channel=9 note=42 velocity=127 time=0
EXTRACT: note_on channel=11 note=60 velocity=0 time=0
EXTRACT: note_on channel=11 note=63 velocity=0 time=0
EXTRACT: note_on channel=11 note=67 velocity=0 time=0
EXTRACT: note_on channel=13 note=60 velocity=0 time=0
EXTRACT: note_on channel=13 note=63 velocity=0 time=0
EXTRACT: note_on channel=13 note=67 velocity=0 time=0
EXTRACT: note_on channel=12 note=48 velocity=0 time=0.047169749999999996
EXTRACT: note_on channel=14 note=48 velocity=0 time=0
EXTRACT: note_on channel=9 note=54 velocity=0 time=0.0872640375
EXTRACT: note_on channel=9 note=42 velocity=0 time=0
EXTRACT: note_on channel=9 note=46 velocity=127 time=0
EXTRACT: note_on channel=9 note=54 velocity=127 time=0
EXTRACT: note_on channel=9 note=56 velocity=127 time=0
EXTRACT: note_on channel=9 note=36 velocity=127 time=0
EXTRACT: note_on channel=11 note=60 velocity=127 time=0
EXTRACT: note_on channel=11 note=63 velocity=127 time=0
EXTRACT: note_on channel=11 note=67 velocity=127 time=0
EXTRACT: note_on channel=12 note=48 velocity=127 time=0
EXTRACT: note_on channel=13 note=60 velocity=127 time=0
EXTRACT: note_on channel=13 note=63 velocity=127 time=0
EXTRACT: note_on channel=13 note=67 velocity=127 time=0
EXTRACT: note_on channel=14 note=48 velocity=127 time=0
EXTRACT: note_on channel=9 note=46 velocity=0 time=0.1344337875
EXTRACT: note_on channel=9 note=54 velocity=0 time=0
EXTRACT: note_on channel=9 note=56 velocity=0 time=0
EXTRACT: note_on channel=9 note=36 velocity=0 time=0
EXTRACT: note_on channel=9 note=54 velocity=127 time=0.0070754625
EXTRACT: note_on channel=9 note=42 velocity=127 time=0
EXTRACT: note_on channel=9 note=54 velocity=0 time=0.1344337875
EXTRACT: note_on channel=9 note=46 velocity=127 time=0.0070754625
EXTRACT: note_on channel=9 note=54 velocity=127 time=0
EXTRACT: note_on channel=9 note=56 velocity=127 time=0
EXTRACT: note_on channel=10 note=63 velocity=127 time=0
EXTRACT: note_on channel=10 note=63 velocity=127 time=0
EXTRACT: note_on channel=10 note=63 velocity=127 time=0
EXTRACT: note_on channel=9 note=46 velocity=0 time=0.1344337875
EXTRACT: note_on channel=9 note=54 velocity=0 time=0
EXTRACT: note_on channel=9 note=56 velocity=0 time=0
EXTRACT: note_on channel=9 note=42 velocity=0 time=0
EXTRACT: note_on channel=11 note=60 velocity=0 time=0
EXTRACT: note_on channel=11 note=63 velocity=0 time=0
EXTRACT: note_on channel=11 note=67 velocity=0 time=0
EXTRACT: note_on channel=13 note=60 velocity=0 time=0
EXTRACT: note_on channel=13 note=63 velocity=0 time=0
EXTRACT: note_on channel=13 note=67 velocity=0 time=0
EXTRACT: note_on channel=9 note=54 velocity=127 time=0.0070754625
EXTRACT: note_on channel=9 note=42 velocity=127 time=0
EXTRACT: note_on channel=11 note=60 velocity=127 time=0
EXTRACT: note_on channel=11 note=63 velocity=127 time=0
EXTRACT: note_on channel=11 note=67 velocity=127 time=0
EXTRACT: note_on channel=13 note=60 velocity=127 time=0
EXTRACT: note_on channel=13 note=63 velocity=127 time=0
EXTRACT: note_on channel=13 note=67 velocity=127 time=0
EXTRACT: note_on channel=12 note=48 velocity=0 time=0.047169749999999996
EXTRACT: note_on channel=14 note=48 velocity=0 time=0
EXTRACT: note_on channel=9 note=54 velocity=0 time=0.0872640375
EXTRACT: note_on channel=9 note=42 velocity=0 time=0
EXTRACT: note_on channel=10 note=63 velocity=0 time=0
EXTRACT: note_on channel=10 note=63 velocity=0 time=0
EXTRACT: note_on channel=10 note=63 velocity=0 time=0
EXTRACT: note_on channel=9 note=54 velocity=127 time=0.0070754625
EXTRACT: note_on channel=9 note=56 velocity=127 time=0
EXTRACT: note_on channel=9 note=39 velocity=127 time=0
EXTRACT: note_on channel=9 note=42 velocity=127 time=0
EXTRACT: note_on channel=10 note=63 velocity=127 time=0
EXTRACT: note_on channel=12 note=48 velocity=127 time=0
EXTRACT: note_on channel=14 note=48 velocity=127 time=0
EXTRACT: note_on channel=10 note=63 velocity=127 time=0
EXTRACT: note_on channel=10 note=63 velocity=127 time=0
EXTRACT: note_on channel=9 note=39 velocity=0 time=0.1344337875
EXTRACT: note_on channel=9 note=42 velocity=0 time=0
EXTRACT: note_on channel=9 note=42 velocity=127 time=0.0070754625
EXTRACT: note_on channel=9 note=54 velocity=0 time=0.1344337875
EXTRACT: note_on channel=9 note=56 velocity=0 time=0
EXTRACT: note_on channel=9 note=42 velocity=0 time=0
EXTRACT: note_on channel=10 note=63 velocity=0 time=0
EXTRACT: note_on channel=11 note=60 velocity=0 time=0
EXTRACT: note_on channel=11 note=63 velocity=0 time=0
EXTRACT: note_on channel=11 note=67 velocity=0 time=0
EXTRACT: note_on channel=12 note=48 velocity=0 time=0
EXTRACT: note_on channel=13 note=60 velocity=0 time=0
EXTRACT: note_on channel=13 note=63 velocity=0 time=0
EXTRACT: note_on channel=13 note=67 velocity=0 time=0
EXTRACT: note_on channel=14 note=48 velocity=0 time=0
EXTRACT: note_on channel=10 note=63 velocity=0 time=0
EXTRACT: note_on channel=10 note=63 velocity=0 time=0
EXTRACT: note_on channel=9 note=54 velocity=127 time=0.0070754625
EXTRACT: note_on channel=9 note=36 velocity=127 time=0
EXTRACT: note_on channel=9 note=42 velocity=127 time=0
EXTRACT: note_on channel=10 note=60 velocity=127 time=0
EXTRACT: note_on channel=11 note=60 velocity=127 time=0
EXTRACT: note_on channel=11 note=63 velocity=127 time=0
EXTRACT: note_on channel=11 note=68 velocity=127 time=0
EXTRACT: note_on channel=12 note=43 velocity=127 time=0
EXTRACT: note_on channel=13 note=60 velocity=127 time=0
EXTRACT: note_on channel=13 note=63 velocity=127 time=0
EXTRACT: note_on channel=13 note=68 velocity=127 time=0
EXTRACT: note_on channel=14 note=43 velocity=127 time=0
EXTRACT: note_on channel=10 note=60 velocity=127 time=0
EXTRACT: note_on channel=10 note=60 velocity=127 time=0
EXTRACT: note_on channel=9 note=54 velocity=0 time=0.1344337875
EXTRACT: note_on channel=9 note=36 velocity=0 time=0
EXTRACT: note_on channel=9 note=42 velocity=0 time=0
EXTRACT: note_on channel=9 note=54 velocity=127 time=0.0070754625
EXTRACT: note_on channel=9 note=56 velocity=127 time=0
EXTRACT: note_on channel=9 note=42 velocity=127 time=0
EXTRACT: note_on channel=9 note=54 velocity=0 time=0.1344337875
EXTRACT: note_on channel=9 note=56 velocity=0 time=0
EXTRACT: note_on channel=9 note=42 velocity=0 time=0
EXTRACT: note_on channel=10 note=60 velocity=0 time=0
EXTRACT: note_on channel=12 note=43 velocity=0 time=0
EXTRACT: note_on channel=14 note=43 velocity=0 time=0
EXTRACT: note_on channel=10 note=60 velocity=0 time=0
EXTRACT: note_on channel=10 note=60 velocity=0 time=0
EXTRACT: note_on channel=9 note=54 velocity=127 time=0.0070754625
EXTRACT: note_on channel=9 note=42 velocity=127 time=0
EXTRACT: note_on channel=10 note=63 velocity=127 time=0
EXTRACT: note_on channel=12 note=44 velocity=127 time=0
EXTRACT: note_on channel=14 note=44 velocity=127 time=0
EXTRACT: note_on channel=10 note=63 velocity=127 time=0
EXTRACT: note_on channel=10 note=63 velocity=127 time=0
EXTRACT: note_on channel=9 note=54 velocity=0 time=0.1344337875
EXTRACT: note_on channel=9 note=42 velocity=0 time=0
EXTRACT: note_on channel=9 note=46 velocity=127 time=0.0070754625
EXTRACT: note_on channel=9 note=54 velocity=127 time=0
EXTRACT: note_on channel=9 note=56 velocity=127 time=0
EXTRACT: note_on channel=9 note=36 velocity=127 time=0
EXTRACT: note_on channel=9 note=46 velocity=0 time=0.1344337875
EXTRACT: note_on channel=9 note=54 velocity=0 time=0
EXTRACT: note_on channel=9 note=56 velocity=0 time=0
EXTRACT: note_on channel=9 note=36 velocity=0 time=0
EXTRACT: note_on channel=10 note=63 velocity=0 time=0
EXTRACT: note_on channel=12 note=44 velocity=0 time=0
EXTRACT: note_on channel=14 note=44 velocity=0 time=0
EXTRACT: note_on channel=10 note=63 velocity=0 time=0
EXTRACT: note_on channel=10 note=63 velocity=0 time=0
EXTRACT: note_on channel=9 note=54 velocity=127 time=0.0070754625
EXTRACT: note_on channel=9 note=56 velocity=127 time=0
EXTRACT: note_on channel=9 note=36 velocity=127 time=0
EXTRACT: note_on channel=9 note=42 velocity=127 time=0
EXTRACT: note_on channel=10 note=60 velocity=127 time=0
EXTRACT: note_on channel=12 note=44 velocity=127 time=0
EXTRACT: note_on channel=14 note=44 velocity=127 time=0
EXTRACT: note_on channel=10 note=60 velocity=127 time=0
EXTRACT: note_on channel=10 note=60 velocity=127 time=0
EXTRACT: note_on channel=9 note=54 velocity=0 time=0.1344337875
EXTRACT: note_on channel=9 note=56 velocity=0 time=0
EXTRACT: note_on channel=9 note=36 velocity=0 time=0
EXTRACT: note_on channel=9 note=42 velocity=0 time=0
EXTRACT: note_on channel=9 note=56 velocity=127 time=0.0070754625
EXTRACT: note_on channel=9 note=36 velocity=127 time=0
EXTRACT: note_on channel=9 note=42 velocity=127 time=0
EXTRACT: note_on channel=9 note=56 velocity=0 time=0.1344337875
EXTRACT: note_on channel=9 note=36 velocity=0 time=0
EXTRACT: note_on channel=9 note=42 velocity=0 time=0
EXTRACT: note_on channel=10 note=60 velocity=0 time=0
EXTRACT: note_on channel=10 note=60 velocity=0 time=0
EXTRACT: note_on channel=10 note=60 velocity=0 time=0
EXTRACT: note_on channel=9 note=46 velocity=127 time=0.0070754625
EXTRACT: note_on channel=9 note=54 velocity=127 time=0
EXTRACT: note_on channel=9 note=56 velocity=127 time=0
EXTRACT: note_on channel=9 note=39 velocity=127 time=0
EXTRACT: note_on channel=9 note=46 velocity=0 time=0.1344337875
EXTRACT: note_on channel=9 note=54 velocity=0 time=0
EXTRACT: note_on channel=9 note=56 velocity=0 time=0
EXTRACT: note_on channel=9 note=39 velocity=0 time=0
EXTRACT: note_on channel=9 note=54 velocity=127 time=0.0070754625
EXTRACT: note_on channel=9 note=42 velocity=127 time=0
EXTRACT: note_on channel=9 note=54 velocity=0 time=0.1344337875
EXTRACT: note_on channel=9 note=42 velocity=0 time=0
EXTRACT: note_on channel=9 note=54 velocity=127 time=0.0070754625
EXTRACT: note_on channel=9 note=56 velocity=127 time=0
EXTRACT: note_on channel=9 note=36 velocity=127 time=0
EXTRACT: note_on channel=9 note=42 velocity=127 time=0
EXTRACT: note_on channel=10 note=60 velocity=127 time=0
EXTRACT: note_on channel=10 note=60 velocity=127 time=0
EXTRACT: note_on channel=10 note=60 velocity=127 time=0
EXTRACT: note_on channel=9 note=54 velocity=0 time=0.1344337875
EXTRACT: note_on channel=9 note=56 velocity=0 time=0
EXTRACT: note_on channel=9 note=36 velocity=0 time=0
EXTRACT: note_on channel=9 note=42 velocity=0 time=0
EXTRACT: note_on channel=10 note=60 velocity=0 time=0
EXTRACT: note_on channel=10 note=60 velocity=0 time=0
EXTRACT: note_on channel=10 note=60 velocity=0 time=0
EXTRACT: note_on channel=9 note=54 velocity=127 time=0.0070754625
EXTRACT: note_on channel=9 note=42 velocity=127 time=0
EXTRACT: note_on channel=10 note=60 velocity=127 time=0
EXTRACT: note_on channel=11 note=60 velocity=0 time=0
EXTRACT: note_on channel=11 note=63 velocity=0 time=0
EXTRACT: note_on channel=11 note=68 velocity=0 time=0
EXTRACT: note_on channel=13 note=60 velocity=0 time=0
EXTRACT: note_on channel=13 note=63 velocity=0 time=0
EXTRACT: note_on channel=13 note=68 velocity=0 time=0
EXTRACT: note_on channel=10 note=60 velocity=127 time=0
EXTRACT: note_on channel=10 note=60 velocity=127 time=0
EXTRACT: note_on channel=12 note=44 velocity=0 time=0.047169749999999996
EXTRACT: note_on channel=14 note=44 velocity=0 time=0
EXTRACT: note_on channel=9 note=54 velocity=0 time=0.0872640375
EXTRACT: note_on channel=9 note=42 velocity=0 time=0
EXTRACT: note_on channel=10 note=60 velocity=0 time=0
EXTRACT: note_on channel=10 note=60 velocity=0 time=0
EXTRACT: note_on channel=10 note=60 velocity=0 time=0
EXTRACT: note_on channel=9 note=46 velocity=127 time=0
EXTRACT: note_on channel=9 note=54 velocity=127 time=0
EXTRACT: note_on channel=9 note=56 velocity=127 time=0
EXTRACT: note_on channel=9 note=36 velocity=127 time=0
EXTRACT: note_on channel=10 note=59 velocity=127 time=0
EXTRACT: note_on channel=11 note=59 velocity=127 time=0
EXTRACT: note_on channel=11 note=62 velocity=127 time=0
EXTRACT: note_on channel=11 note=67 velocity=127 time=0
EXTRACT: note_on channel=12 note=43 velocity=127 time=0
EXTRACT: note_on channel=13 note=59 velocity=127 time=0
EXTRACT: note_on channel=13 note=62 velocity=127 time=0
EXTRACT: note_on channel=13 note=67 velocity=127 time=0
EXTRACT: note_on channel=14 note=43 velocity=127 time=0
EXTRACT: note_on channel=10 note=59 velocity=127 time=0
EXTRACT: note_on channel=10 note=59 velocity=127 time=0
EXTRACT: note_on channel=9 note=46 velocity=0 time=0.1331774125
EXTRACT: note_on channel=9 note=54 velocity=0 time=0
EXTRACT: note_on channel=9 note=56 velocity=0 time=0
EXTRACT: note_on channel=9 note=36 velocity=0 time=0
EXTRACT: note_on channel=9 note=54 velocity=127 time=0.0070093375
EXTRACT: note_on channel=9 note=42 velocity=127 time=0
EXTRACT: note_on channel=9 note=54 velocity=0 time=0.1331774125
EXTRACT: note_on channel=10 note=59 velocity=0 time=0
EXTRACT: note_on channel=10 note=59 velocity=0 time=0
EXTRACT: note_on channel=10 note=59 velocity=0 time=0
EXTRACT: note_on channel=9 note=46 velocity=127 time=0.0070093375
EXTRACT: note_on channel=9 note=54 velocity=127 time=0
EXTRACT: note_on channel=9 note=56 velocity=127 time=0
EXTRACT: note_on channel=10 note=60 velocity=127 time=0
EXTRACT: note_on channel=10 note=60 velocity=127 time=0
EXTRACT: note_on channel=10 note=60 velocity=127 time=0
EXTRACT: note_on channel=9 note=46 velocity=0 time=0.1331774125
EXTRACT: note_on channel=9 note=54 velocity=0 time=0
EXTRACT: note_on channel=9 note=56 velocity=0 time=0
EXTRACT: note_on channel=9 note=42 velocity=0 time=0
EXTRACT: note_on channel=11 note=59 velocity=0 time=0
EXTRACT: note_on channel=11 note=62 velocity=0 time=0
EXTRACT: note_on channel=11 note=67 velocity=0 time=0
EXTRACT: note_on channel=13 note=59 velocity=0 time=0
EXTRACT: note_on channel=13 note=62 velocity=0 time=0
EXTRACT: note_on channel=13 note=67 velocity=0 time=0
EXTRACT: note_on channel=9 note=54 velocity=127 time=0.0070093375
EXTRACT: note_on channel=9 note=42 velocity=127 time=0
EXTRACT: note_on channel=11 note=59 velocity=127 time=0
EXTRACT: note_on channel=11 note=62 velocity=127 time=0
EXTRACT: note_on channel=11 note=67 velocity=127 time=0
EXTRACT: note_on channel=13 note=59 velocity=127 time=0
EXTRACT: note_on channel=13 note=62 velocity=127 time=0
EXTRACT: note_on channel=13 note=67 velocity=127 time=0
EXTRACT: note_on channel=12 note=43 velocity=0 time=0.04672891666666666
EXTRACT: note_on channel=14 note=43 velocity=0 time=0
EXTRACT: note_on channel=9 note=54 velocity=0 time=0.08644849583333333
EXTRACT: note_on channel=9 note=42 velocity=0 time=0
EXTRACT: note_on channel=10 note=60 velocity=0 time=0
EXTRACT: note_on channel=10 note=60 velocity=0 time=0
EXTRACT: note_on channel=10 note=60 velocity=0 time=0
EXTRACT: note_on channel=9 note=54 velocity=127 time=0.0070093375
EXTRACT: note_on channel=9 note=56 velocity=127 time=0
EXTRACT: note_on channel=9 note=39 velocity=127 time=0
EXTRACT: note_on channel=9 note=42 velocity=127 time=0
EXTRACT: note_on channel=10 note=62 velocity=127 time=0
EXTRACT: note_on channel=12 note=43 velocity=127 time=0
EXTRACT: note_on channel=14 note=43 velocity=127 time=0
EXTRACT: note_on channel=10 note=62 velocity=127 time=0
EXTRACT: note_on channel=10 note=62 velocity=127 time=0
EXTRACT: note_on channel=9 note=39 velocity=0 time=0.1331774125
EXTRACT: note_on channel=9 note=42 velocity=0 time=0
EXTRACT: note_on channel=9 note=42 velocity=127 time=0.0070093375
EXTRACT: note_on channel=9 note=54 velocity=0 time=0.1331774125
EXTRACT: note_on channel=9 note=56 velocity=0 time=0
EXTRACT: note_on channel=9 note=42 velocity=0 time=0
EXTRACT: note_on channel=10 note=62 velocity=0 time=0
EXTRACT: note_on channel=11 note=59 velocity=0 time=0
EXTRACT: note_on channel=11 note=62 velocity=0 time=0
EXTRACT: note_on channel=11 note=67 velocity=0 time=0
EXTRACT: note_on channel=12 note=43 velocity=0 time=0
EXTRACT: note_on channel=13 note=59 velocity=0 time=0
EXTRACT: note_on channel=13 note=62 velocity=0 time=0
EXTRACT: note_on channel=13 note=67 velocity=0 time=0
EXTRACT: note_on channel=14 note=43 velocity=0 time=0
EXTRACT: note_on channel=10 note=62 velocity=0 time=0
EXTRACT: note_on channel=10 note=62 velocity=0 time=0
EXTRACT: note_on channel=9 note=54 velocity=127 time=0.0070093375
EXTRACT: note_on channel=9 note=36 velocity=127 time=0
EXTRACT: note_on channel=9 note=42 velocity=127 time=0
EXTRACT: note_on channel=10 note=60 velocity=127 time=0
EXTRACT: note_on channel=11 note=60 velocity=127 time=0
EXTRACT: note_on channel=11 note=63 velocity=127 time=0
EXTRACT: note_on channel=11 note=67 velocity=127 time=0
EXTRACT: note_on channel=12 note=47 velocity=127 time=0
EXTRACT: note_on channel=13 note=60 velocity=127 time=0
EXTRACT: note_on channel=13 note=63 velocity=127 time=0
EXTRACT: note_on channel=13 note=67 velocity=127 time=0
EXTRACT: note_on channel=14 note=47 velocity=127 time=0
EXTRACT: note_on channel=10 note=60 velocity=127 time=0
EXTRACT: note_on channel=10 note=60 velocity=127 time=0
EXTRACT: note_on channel=9 note=54 velocity=0 time=0.1331774125
EXTRACT: note_on channel=9 note=36 velocity=0 time=0
EXTRACT: note_on channel=9 note=42 velocity=0 time=0
EXTRACT: note_on channel=9 note=54 velocity=127 time=0.0070093375
EXTRACT: note_on channel=9 note=56 velocity=127 time=0
EXTRACT: note_on channel=9 note=42 velocity=127 time=0
EXTRACT: note_on channel=9 note=54 velocity=0 time=0.1331774125
EXTRACT: note_on channel=9 note=56 velocity=0 time=0
EXTRACT: note_on channel=9 note=42 velocity=0 time=0
EXTRACT: note_on channel=12 note=47 velocity=0 time=0
EXTRACT: note_on channel=14 note=47 velocity=0 time=0
EXTRACT: note_on channel=9 note=54 velocity=127 time=0.0070093375
EXTRACT: note_on channel=9 note=42 velocity=127 time=0
EXTRACT: note_on channel=12 note=48 velocity=127 time=0
EXTRACT: note_on channel=14 note=48 velocity=127 time=0
EXTRACT: note_on channel=9 note=54 velocity=0 time=0.1331774125
EXTRACT: note_on channel=9 note=42 velocity=0 time=0
EXTRACT: note_on channel=9 note=46 velocity=127 time=0.0070093375
EXTRACT: note_on channel=9 note=54 velocity=127 time=0
EXTRACT: note_on channel=9 note=56 velocity=127 time=0
EXTRACT: note_on channel=9 note=36 velocity=127 time=0
EXTRACT: note_on channel=9 note=46 velocity=0 time=0.1331774125
EXTRACT: note_on channel=9 note=54 velocity=0 time=0
EXTRACT: note_on channel=9 note=56 velocity=0 time=0
EXTRACT: note_on channel=9 note=36 velocity=0 time=0
EXTRACT: note_on channel=12 note=48 velocity=0 time=0
EXTRACT: note_on channel=14 note=48 velocity=0 time=0
EXTRACT: note_on channel=9 note=54 velocity=127 time=0.0070093375
EXTRACT: note_on channel=9 note=56 velocity=127 time=0
EXTRACT: note_on channel=9 note=36 velocity=127 time=0
EXTRACT: note_on channel=9 note=42 velocity=127 time=0
EXTRACT: note_on channel=12 note=48 velocity=127 time=0
EXTRACT: note_on channel=14 note=48 velocity=127 time=0
EXTRACT: note_on channel=9 note=54 velocity=0 time=0.1331774125
EXTRACT: note_on channel=9 note=56 velocity=0 time=0
EXTRACT: note_on channel=9 note=36 velocity=0 time=0
EXTRACT: note_on channel=9 note=42 velocity=0 time=0
EXTRACT: note_on channel=9 note=56 velocity=127 time=0.0070093375
EXTRACT: note_on channel=9 note=36 velocity=127 time=0
EXTRACT: note_on channel=9 note=42 velocity=127 time=0
EXTRACT: note_on channel=10 note=60 velocity=0 time=0.04672891666666666
EXTRACT: note_on channel=10 note=60 velocity=0 time=0
EXTRACT: note_on channel=10 note=60 velocity=0 time=0
EXTRACT: note_on channel=9 note=56 velocity=0 time=0.08644849583333333
EXTRACT: note_on channel=9 note=36 velocity=0 time=0
EXTRACT: note_on channel=9 note=42 velocity=0 time=0
EXTRACT: note_on channel=9 note=46 velocity=127 time=0.0070093375
EXTRACT: note_on channel=9 note=54 velocity=127 time=0
EXTRACT: note_on channel=9 note=56 velocity=127 time=0
EXTRACT: note_on channel=9 note=39 velocity=127 time=0
EXTRACT: note_on channel=9 note=46 velocity=0 time=0.1331774125
EXTRACT: note_on channel=9 note=54 velocity=0 time=0
EXTRACT: note_on channel=9 note=56 velocity=0 time=0
EXTRACT: note_on channel=9 note=39 velocity=0 time=0
EXTRACT: note_on channel=9 note=54 velocity=127 time=0.0070093375
EXTRACT: note_on channel=9 note=42 velocity=127 time=0
EXTRACT: note_on channel=9 note=54 velocity=0 time=0.1331774125
EXTRACT: note_on channel=9 note=42 velocity=0 time=0
EXTRACT: note_on channel=9 note=54 velocity=127 time=0.0070093375
EXTRACT: note_on channel=9 note=56 velocity=127 time=0
EXTRACT: note_on channel=9 note=36 velocity=127 time=0
EXTRACT: note_on channel=9 note=42 velocity=127 time=0
EXTRACT: note_on channel=9 note=54 velocity=0 time=0.1331774125
EXTRACT: note_on channel=9 note=56 velocity=0 time=0
EXTRACT: note_on channel=9 note=36 velocity=0 time=0
EXTRACT: note_on channel=9 note=42 velocity=0 time=0
EXTRACT: note_on channel=9 note=54 velocity=127 time=0.0070093375
EXTRACT: note_on channel=9 note=42 velocity=127 time=0
EXTRACT: note_on channel=11 note=60 velocity=0 time=0
EXTRACT: note_on channel=11 note=63 velocity=0 time=0
EXTRACT: note_on channel=11 note=67 velocity=0 time=0
EXTRACT: note_on channel=13 note=60 velocity=0 time=0
EXTRACT: note_on channel=13 note=63 velocity=0 time=0
EXTRACT: note_on channel=13 note=67 velocity=0 time=0
EXTRACT: note_on channel=12 note=48 velocity=0 time=0.04672891666666666
EXTRACT: note_on channel=14 note=48 velocity=0 time=0
EXTRACT: note_on channel=9 note=54 velocity=0 time=0.08644849583333333
EXTRACT: note_on channel=9 note=42 velocity=0 time=0
EXTRACT: note_on channel=9 note=46 velocity=127 time=0
EXTRACT: note_on channel=9 note=54 velocity=127 time=0
EXTRACT: note_on channel=9 note=56 velocity=127 time=0
EXTRACT: note_on channel=9 note=36 velocity=127 time=0
EXTRACT: note_on channel=10 note=60 velocity=127 time=0
EXTRACT: note_on channel=11 note=60 velocity=127 time=0
EXTRACT: note_on channel=11 note=63 velocity=127 time=0
EXTRACT: note_on channel=11 note=67 velocity=127 time=0
EXTRACT: note_on channel=12 note=48 velocity=127 time=0
EXTRACT: note_on channel=13 note=60 velocity=127 time=0
EXTRACT: note_on channel=13 note=63 velocity=127 time=0
EXTRACT: note_on channel=13 note=67 velocity=127 time=0
EXTRACT: note_on channel=14 note=48 velocity=127 time=0
EXTRACT: note_on channel=10 note=60 velocity=127 time=0
EXTRACT: note_on channel=10 note=60 velocity=127 time=0
EXTRACT: note_on channel=9 note=46 velocity=0 time=0.1331774125
EXTRACT: note_on channel=9 note=54 velocity=0 time=0
EXTRACT: note_on channel=9 note=56 velocity=0 time=0
EXTRACT: note_on channel=9 note=36 velocity=0 time=0
EXTRACT: note_on channel=9 note=54 velocity=127 time=0.0070093375
EXTRACT: note_on channel=9 note=42 velocity=127 time=0
EXTRACT: note_on channel=9 note=54 velocity=0 time=0.1331774125
EXTRACT: note_on channel=9 note=46 velocity=127 time=0.0070093375
EXTRACT: note_on channel=9 note=54 velocity=127 time=0
EXTRACT: note_on channel=9 note=56 velocity=127 time=0
EXTRACT: note_on channel=9 note=46 velocity=0 time=0.1331774125
EXTRACT: note_on channel=9 note=54 velocity=0 time=0
EXTRACT: note_on channel=9 note=56 velocity=0 time=0
EXTRACT: note_on channel=9 note=42 velocity=0 time=0
EXTRACT: note_on channel=11 note=60 velocity=0 time=0
EXTRACT: note_on channel=11 note=63 velocity=0 time=0
EXTRACT: note_on channel=11 note=67 velocity=0 time=0
EXTRACT: note_on channel=13 note=60 velocity=0 time=0
EXTRACT: note_on channel=13 note=63 velocity=0 time=0
EXTRACT: note_on channel=13 note=67 velocity=0 time=0
EXTRACT: note_on channel=9 note=54 velocity=127 time=0.0070093375
EXTRACT: note_on channel=9 note=42 velocity=127 time=0
EXTRACT: note_on channel=11 note=60 velocity=127 time=0
EXTRACT: note_on channel=11 note=63 velocity=127 time=0
EXTRACT: note_on channel=11 note=67 velocity=127 time=0
EXTRACT: note_on channel=13 note=60 velocity=127 time=0
EXTRACT: note_on channel=13 note=63 velocity=127 time=0
EXTRACT: note_on channel=13 note=67 velocity=127 time=0
EXTRACT: note_on channel=10 note=60 velocity=0 time=0.04672891666666666
EXTRACT: note_on channel=12 note=48 velocity=0 time=0
EXTRACT: note_on channel=14 note=48 velocity=0 time=0
EXTRACT: note_on channel=10 note=60 velocity=0 time=0
EXTRACT: note_on channel=10 note=60 velocity=0 time=0
EXTRACT: note_on channel=9 note=54 velocity=0 time=0.08644849583333333
EXTRACT: note_on channel=9 note=42 velocity=0 time=0
EXTRACT: note_on channel=9 note=54 velocity=127 time=0.0070093375
EXTRACT: note_on channel=9 note=56 velocity=127 time=0
EXTRACT: note_on channel=9 note=39 velocity=127 time=0
EXTRACT: note_on channel=9 note=42 velocity=127 time=0
EXTRACT: note_on channel=10 note=67 velocity=127 time=0
EXTRACT: note_on channel=12 note=48 velocity=127 time=0
EXTRACT: note_on channel=14 note=48 velocity=127 time=0
EXTRACT: note_on channel=10 note=67 velocity=127 time=0
EXTRACT: note_on channel=10 note=67 velocity=127 time=0
EXTRACT: note_on channel=9 note=39 velocity=0 time=0.1331774125
EXTRACT: note_on channel=9 note=42 velocity=0 time=0
EXTRACT: note_on channel=9 note=42 velocity=127 time=0.0070093375
EXTRACT: note_on channel=9 note=54 velocity=0 time=0.1331774125
EXTRACT: note_on channel=9 note=56 velocity=0 time=0
EXTRACT: note_on channel=9 note=42 velocity=0 time=0
EXTRACT: note_on channel=11 note=60 velocity=0 time=0
EXTRACT: note_on channel=11 note=63 velocity=0 time=0
EXTRACT: note_on channel=11 note=67 velocity=0 time=0
EXTRACT: note_on channel=12 note=48 velocity=0 time=0
EXTRACT: note_on channel=13 note=60 velocity=0 time=0
EXTRACT: note_on channel=13 note=63 velocity=0 time=0
EXTRACT: note_on channel=13 note=67 velocity=0 time=0
EXTRACT: note_on channel=14 note=48 velocity=0 time=0
EXTRACT: note_on channel=9 note=54 velocity=127 time=0.0070093375
EXTRACT: note_on channel=9 note=36 velocity=127 time=0
EXTRACT: note_on channel=9 note=42 velocity=127 time=0
EXTRACT: note_on channel=10 note=67 velocity=0 time=0
EXTRACT: note_on channel=10 note=65 velocity=127 time=0
EXTRACT: note_on channel=11 note=60 velocity=127 time=0
EXTRACT: note_on channel=11 note=63 velocity=127 time=0
EXTRACT: note_on channel=11 note=68 velocity=127 time=0
EXTRACT: note_on channel=12 note=43 velocity=127 time=0
EXTRACT: note_on channel=13 note=60 velocity=127 time=0
EXTRACT: note_on channel=13 note=63 velocity=127 time=0
EXTRACT: note_on channel=13 note=68 velocity=127 time=0
EXTRACT: note_on channel=14 note=43 velocity=127 time=0
EXTRACT: note_on channel=10 note=67 velocity=0 time=0
EXTRACT: note_on channel=10 note=65 velocity=127 time=0
EXTRACT: note_on channel=10 note=67 velocity=0 time=0
EXTRACT: note_on channel=10 note=65 velocity=127 time=0
EXTRACT: note_on channel=9 note=54 velocity=0 time=0.1331774125
EXTRACT: note_on channel=9 note=36 velocity=0 time=0
EXTRACT: note_on channel=9 note=42 velocity=0 time=0
EXTRACT: note_on channel=9 note=54 velocity=127 time=0.0070093375
EXTRACT: note_on channel=9 note=56 velocity=127 time=0
EXTRACT: note_on channel=9 note=42 velocity=127 time=0
EXTRACT: note_on channel=9 note=54 velocity=0 time=0.1331774125
EXTRACT: note_on channel=9 note=56 velocity=0 time=0
EXTRACT: note_on channel=9 note=42 velocity=0 time=0
EXTRACT: note_on channel=10 note=65 velocity=0 time=0
EXTRACT: note_on channel=12 note=43 velocity=0 time=0
EXTRACT: note_on channel=14 note=43 velocity=0 time=0
EXTRACT: note_on channel=10 note=65 velocity=0 time=0
EXTRACT: note_on channel=10 note=65 velocity=0 time=0
EXTRACT: note_on channel=9 note=54 velocity=127 time=0.0070093375
EXTRACT: note_on channel=9 note=42 velocity=127 time=0
EXTRACT: note_on channel=10 note=65 velocity=127 time=0
EXTRACT: note_on channel=12 note=44 velocity=127 time=0
EXTRACT: note_on channel=14 note=44 velocity=127 time=0
EXTRACT: note_on channel=10 note=65 velocity=127 time=0
EXTRACT: note_on channel=10 note=65 velocity=127 time=0
EXTRACT: note_on channel=9 note=54 velocity=0 time=0.1331774125
EXTRACT: note_on channel=9 note=42 velocity=0 time=0
EXTRACT: note_on channel=9 note=46 velocity=127 time=0.0070093375
EXTRACT: note_on channel=9 note=54 velocity=127 time=0
EXTRACT: note_on channel=9 note=56 velocity=127 time=0
EXTRACT: note_on channel=9 note=36 velocity=127 time=0
EXTRACT: note_on channel=9 note=46 velocity=0 time=0.1331774125
EXTRACT: note_on channel=9 note=54 velocity=0 time=0
EXTRACT: note_on channel=9 note=56 velocity=0 time=0
EXTRACT: note_on channel=9 note=36 velocity=0 time=0
EXTRACT: note_on channel=12 note=44 velocity=0 time=0
EXTRACT: note_on channel=14 note=44 velocity=0 time=0
EXTRACT: note_on channel=9 note=54 velocity=127 time=0.0070093375
EXTRACT: note_on channel=9 note=56 velocity=127 time=0
EXTRACT: note_on channel=9 note=36 velocity=127 time=0
EXTRACT: note_on channel=9 note=42 velocity=127 time=0
EXTRACT: note_on channel=10 note=65 velocity=0 time=0
EXTRACT: note_on channel=10 note=63 velocity=127 time=0
EXTRACT: note_on channel=12 note=44 velocity=127 time=0
EXTRACT: note_on channel=14 note=44 velocity=127 time=0
EXTRACT: note_on channel=10 note=65 velocity=0 time=0
EXTRACT: note_on channel=10 note=63 velocity=127 time=0
EXTRACT: note_on channel=10 note=65 velocity=0 time=0
EXTRACT: note_on channel=10 note=63 velocity=127 time=0
EXTRACT: note_on channel=9 note=54 velocity=0 time=0.1331774125
EXTRACT: note_on channel=9 note=56 velocity=0 time=0
EXTRACT: note_on channel=9 note=36 velocity=0 time=0
EXTRACT: note_on channel=9 note=42 velocity=0 time=0
EXTRACT: note_on channel=9 note=56 velocity=127 time=0.0070093375
EXTRACT: note_on channel=9 note=36 velocity=127 time=0
EXTRACT: note_on channel=9 note=42 velocity=127 time=0
EXTRACT: note_on channel=9 note=56 velocity=0 time=0.1331774125
EXTRACT: note_on channel=9 note=36 velocity=0 time=0
EXTRACT: note_on channel=9 note=42 velocity=0 time=0
EXTRACT: note_on channel=10 note=63 velocity=0 time=0
EXTRACT: note_on channel=10 note=63 velocity=0 time=0
EXTRACT: note_on channel=10 note=63 velocity=0 time=0
EXTRACT: note_on channel=9 note=46 velocity=127 time=0.0070093375
EXTRACT: note_on channel=9 note=54 velocity=127 time=0
EXTRACT: note_on channel=9 note=56 velocity=127 time=0
EXTRACT: note_on channel=9 note=39 velocity=127 time=0
EXTRACT: note_on channel=10 note=63 velocity=127 time=0
EXTRACT: note_on channel=10 note=63 velocity=127 time=0
EXTRACT: note_on channel=10 note=63 velocity=127 time=0
EXTRACT: note_on channel=9 note=46 velocity=0 time=0.1331774125
EXTRACT: note_on channel=9 note=54 velocity=0 time=0
EXTRACT: note_on channel=9 note=56 velocity=0 time=0
EXTRACT: note_on channel=9 note=39 velocity=0 time=0
EXTRACT: note_on channel=9 note=54 velocity=127 time=0.0070093375
EXTRACT: note_on channel=9 note=42 velocity=127 time=0
EXTRACT: note_on channel=9 note=54 velocity=0 time=0.1331774125
EXTRACT: note_on channel=9 note=42 velocity=0 time=0
EXTRACT: note_on channel=9 note=54 velocity=127 time=0.0070093375
EXTRACT: note_on channel=9 note=56 velocity=127 time=0
EXTRACT: note_on channel=9 note=36 velocity=127 time=0
EXTRACT: note_on channel=9 note=42 velocity=127 time=0
EXTRACT: note_on channel=10 note=63 velocity=0 time=0
EXTRACT: note_on channel=10 note=62 velocity=127 time=0
EXTRACT: note_on channel=10 note=63 velocity=0 time=0
EXTRACT: note_on channel=10 note=62 velocity=127 time=0
EXTRACT: note_on channel=10 note=63 velocity=0 time=0
EXTRACT: note_on channel=10 note=62 velocity=127 time=0
EXTRACT: note_on channel=9 note=54 velocity=0 time=0.1331774125
EXTRACT: note_on channel=9 note=56 velocity=0 time=0
EXTRACT: note_on channel=9 note=36 velocity=0 time=0
EXTRACT: note_on channel=9 note=42 velocity=0 time=0
EXTRACT: note_on channel=9 note=54 velocity=127 time=0.0070093375
EXTRACT: note_on channel=9 note=42 velocity=127 time=0
EXTRACT: note_on channel=11 note=60 velocity=0 time=0
EXTRACT: note_on channel=11 note=63 velocity=0 time=0
EXTRACT: note_on channel=11 note=68 velocity=0 time=0
EXTRACT: note_on channel=13 note=60 velocity=0 time=0
EXTRACT: note_on channel=13 note=63 velocity=0 time=0
EXTRACT: note_on channel=13 note=68 velocity=0 time=0
EXTRACT: note_on channel=12 note=44 velocity=0 time=0.04672891666666666
EXTRACT: note_on channel=14 note=44 velocity=0 time=0
EXTRACT: note_on channel=9 note=54 velocity=0 time=0.08644849583333333
EXTRACT: note_on channel=9 note=42 velocity=0 time=0
EXTRACT: note_on channel=10 note=62 velocity=0 time=0
EXTRACT: note_on channel=10 note=62 velocity=0 time=0
EXTRACT: note_on channel=10 note=62 velocity=0 time=0
EXTRACT: note_on channel=9 note=46 velocity=127 time=0
EXTRACT: note_on channel=9 note=54 velocity=127 time=0
EXTRACT: note_on channel=9 note=56 velocity=127 time=0
EXTRACT: note_on channel=9 note=36 velocity=127 time=0
EXTRACT: note_on channel=10 note=62 velocity=127 time=0
EXTRACT: note_on channel=11 note=59 velocity=127 time=0
EXTRACT: note_on channel=11 note=62 velocity=127 time=0
EXTRACT: note_on channel=11 note=67 velocity=127 time=0
EXTRACT: note_on channel=12 note=43 velocity=127 time=0
EXTRACT: note_on channel=13 note=59 velocity=127 time=0
EXTRACT: note_on channel=13 note=62 velocity=127 time=0
EXTRACT: note_on channel=13 note=67 velocity=127 time=0
EXTRACT: note_on channel=14 note=43 velocity=127 time=0
EXTRACT: note_on channel=10 note=62 velocity=127 time=0
EXTRACT: note_on channel=10 note=62 velocity=127 time=0
EXTRACT: note_on channel=9 note=46 velocity=0 time=0.1344337875
EXTRACT: note_on channel=9 note=54 velocity=0 time=0
EXTRACT: note_on channel=9 note=56 velocity=0 time=0
EXTRACT: note_on channel=9 note=36 velocity=0 time=0
EXTRACT: note_on channel=9 note=54 velocity=127 time=0.0070754625
EXTRACT: note_on channel=9 note=42 velocity=127 time=0
EXTRACT: note_on channel=9 note=54 velocity=0 time=0.1344337875
EXTRACT: note_on channel=9 note=46 velocity=127 time=0.0070754625
EXTRACT: note_on channel=9 note=54 velocity=127 time=0
EXTRACT: note_on channel=9 note=56 velocity=127 time=0
EXTRACT: note_on channel=9 note=46 velocity=0 time=0.1344337875
EXTRACT: note_on channel=9 note=54 velocity=0 time=0
EXTRACT: note_on channel=9 note=56 velocity=0 time=0
EXTRACT: note_on channel=9 note=42 velocity=0 time=0
EXTRACT: note_on channel=10 note=62 velocity=0 time=0
EXTRACT: note_on channel=11 note=59 velocity=0 time=0
EXTRACT: note_on channel=11 note=62 velocity=0 time=0
EXTRACT: note_on channel=11 note=67 velocity=0 time=0
EXTRACT: note_on channel=13 note=59 velocity=0 time=0
EXTRACT: note_on channel=13 note=62 velocity=0 time=0
EXTRACT: note_on channel=13 note=67 velocity=0 time=0
EXTRACT: note_on channel=10 note=62 velocity=0 time=0
EXTRACT: note_on channel=10 note=62 velocity=0 time=0
EXTRACT: note_on channel=9 note=54 velocity=127 time=0.0070754625
EXTRACT: note_on channel=9 note=42 velocity=127 time=0
EXTRACT: note_on channel=10 note=65 velocity=127 time=0
EXTRACT: note_on channel=11 note=59 velocity=127 time=0
EXTRACT: note_on channel=11 note=62 velocity=127 time=0
EXTRACT: note_on channel=11 note=67 velocity=127 time=0
EXTRACT: note_on channel=13 note=59 velocity=127 time=0
EXTRACT: note_on channel=13 note=62 velocity=127 time=0
EXTRACT: note_on channel=13 note=67 velocity=127 time=0
EXTRACT: note_on channel=10 note=65 velocity=127 time=0
EXTRACT: note_on channel=10 note=65 velocity=127 time=0
EXTRACT: note_on channel=12 note=43 velocity=0 time=0.047169749999999996
EXTRACT: note_on channel=14 note=43 velocity=0 time=0
EXTRACT: note_on channel=9 note=54 velocity=0 time=0.0872640375
EXTRACT: note_on channel=9 note=42 velocity=0 time=0
EXTRACT: note_on channel=9 note=54 velocity=127 time=0.0070754625
EXTRACT: note_on channel=9 note=56 velocity=127 time=0
EXTRACT: note_on channel=9 note=39 velocity=127 time=0
EXTRACT: note_on channel=9 note=42 velocity=127 time=0
EXTRACT: note_on channel=12 note=43 velocity=127 time=0
EXTRACT: note_on channel=14 note=43 velocity=127 time=0
EXTRACT: note_on channel=9 note=39 velocity=0 time=0.1344337875
EXTRACT: note_on channel=9 note=42 velocity=0 time=0
EXTRACT: note_on channel=9 note=42 velocity=127 time=0.0070754625
EXTRACT: note_on channel=9 note=54 velocity=0 time=0.1344337875
EXTRACT: note_on channel=9 note=56 velocity=0 time=0
EXTRACT: note_on channel=9 note=42 velocity=0 time=0
EXTRACT: note_on channel=10 note=65 velocity=0 time=0
EXTRACT: note_on channel=11 note=59 velocity=0 time=0
EXTRACT: note_on channel=11 note=62 velocity=0 time=0
EXTRACT: note_on channel=11 note=67 velocity=0 time=0
EXTRACT: note_on channel=12 note=43 velocity=0 time=0
EXTRACT: note_on channel=13 note=59 velocity=0 time=0
EXTRACT: note_on channel=13 note=62 velocity=0 time=0
EXTRACT: note_on channel=13 note=67 velocity=0 time=0
EXTRACT: note_on channel=14 note=43 velocity=0 time=0
EXTRACT: note_on channel=10 note=65 velocity=0 time=0
EXTRACT: note_on channel=10 note=65 velocity=0 time=0
EXTRACT: note_on channel=9 note=54 velocity=127 time=0.0070754625
EXTRACT: note_on channel=9 note=36 velocity=127 time=0
EXTRACT: note_on channel=9 note=42 velocity=127 time=0
EXTRACT: note_on channel=10 note=63 velocity=127 time=0
EXTRACT: note_on channel=11 note=60 velocity=127 time=0
EXTRACT: note_on channel=11 note=63 velocity=127 time=0
EXTRACT: note_on channel=11 note=67 velocity=127 time=0
EXTRACT: note_on channel=12 note=47 velocity=127 time=0
EXTRACT: note_on channel=13 note=60 velocity=127 time=0
EXTRACT: note_on channel=13 note=63 velocity=127 time=0
EXTRACT: note_on channel=13 note=67 velocity=127 time=0
EXTRACT: note_on channel=14 note=47 velocity=127 time=0
EXTRACT: note_on channel=10 note=63 velocity=127 time=0
EXTRACT: note_on channel=10 note=63 velocity=127 time=0
EXTRACT: note_on channel=9 note=54 velocity=0 time=0.1344337875
EXTRACT: note_on channel=9 note=36 velocity=0 time=0
EXTRACT: note_on channel=9 note=42 velocity=0 time=0
EXTRACT: note_on channel=9 note=54 velocity=127 time=0.0070754625
EXTRACT: note_on channel=9 note=56 velocity=127 time=0
EXTRACT: note_on channel=9 note=42 velocity=127 time=0
EXTRACT: note_on channel=9 note=54 velocity=0 time=0.1344337875
EXTRACT: note_on channel=9 note=56 velocity=0 time=0
EXTRACT: note_on channel=9 note=42 velocity=0 time=0
EXTRACT: note_on channel=12 note=47 velocity=0 time=0
EXTRACT: note_on channel=14 note=47 velocity=0 time=0
EXTRACT: note_on channel=9 note=54 velocity=127 time=0.0070754625
EXTRACT: note_on channel=9 note=42 velocity=127 time=0
EXTRACT: note_on channel=12 note=48 velocity=127 time=0
EXTRACT: note_on channel=14 note=48 velocity=127 time=0
EXTRACT: note_on channel=9 note=54 velocity=0 time=0.1344337875
EXTRACT: note_on channel=9 note=42 velocity=0 time=0
EXTRACT: note_on channel=9 note=46 velocity=127 time=0.0070754625
EXTRACT: note_on channel=9 note=54 velocity=127 time=0
EXTRACT: note_on channel=9 note=56 velocity=127 time=0
EXTRACT: note_on channel=9 note=36 velocity=127 time=0
EXTRACT: note_on channel=10 note=63 velocity=0 time=0
EXTRACT: note_on channel=10 note=62 velocity=127 time=0
EXTRACT: note_on channel=10 note=63 velocity=0 time=0
EXTRACT: note_on channel=10 note=62 velocity=127 time=0
EXTRACT: note_on channel=10 note=63 velocity=0 time=0
EXTRACT: note_on channel=10 note=62 velocity=127 time=0
EXTRACT: note_on channel=9 note=46 velocity=0 time=0.1344337875
EXTRACT: note_on channel=9 note=54 velocity=0 time=0
EXTRACT: note_on channel=9 note=56 velocity=0 time=0
EXTRACT: note_on channel=9 note=36 velocity=0 time=0
EXTRACT: note_on channel=12 note=48 velocity=0 time=0
EXTRACT: note_on channel=14 note=48 velocity=0 time=0
EXTRACT: note_on channel=9 note=54 velocity=127 time=0.0070754625
EXTRACT: note_on channel=9 note=56 velocity=127 time=0
EXTRACT: note_on channel=9 note=36 velocity=127 time=0
EXTRACT: note_on channel=9 note=42 velocity=127 time=0
EXTRACT: note_on channel=10 note=62 velocity=0 time=0
EXTRACT: note_on channel=10 note=60 velocity=127 time=0
EXTRACT: note_on channel=12 note=48 velocity=127 time=0
EXTRACT: note_on channel=14 note=48 velocity=127 time=0
EXTRACT: note_on channel=10 note=62 velocity=0 time=0
EXTRACT: note_on channel=10 note=60 velocity=127 time=0
EXTRACT: note_on channel=10 note=62 velocity=0 time=0
EXTRACT: note_on channel=10 note=60 velocity=127 time=0
EXTRACT: note_on channel=9 note=54 velocity=0 time=0.1344337875
EXTRACT: note_on channel=9 note=56 velocity=0 time=0
EXTRACT: note_on channel=9 note=36 velocity=0 time=0
EXTRACT: note_on channel=9 note=42 velocity=0 time=0
EXTRACT: note_on channel=9 note=56 velocity=127 time=0.0070754625
EXTRACT: note_on channel=9 note=36 velocity=127 time=0
EXTRACT: note_on channel=9 note=42 velocity=127 time=0
EXTRACT: note_on channel=9 note=56 velocity=0 time=0.1344337875
EXTRACT: note_on channel=9 note=36 velocity=0 time=0
EXTRACT: note_on channel=9 note=42 velocity=0 time=0
EXTRACT: note_on channel=10 note=60 velocity=0 time=0
EXTRACT: note_on channel=10 note=60 velocity=0 time=0
EXTRACT: note_on channel=10 note=60 velocity=0 time=0
EXTRACT: note_on channel=9 note=46 velocity=127 time=0.0070754625
EXTRACT: note_on channel=9 note=54 velocity=127 time=0
EXTRACT: note_on channel=9 note=56 velocity=127 time=0
EXTRACT: note_on channel=9 note=39 velocity=127 time=0
EXTRACT: note_on channel=9 note=46 velocity=0 time=0.1344337875
EXTRACT: note_on channel=9 note=54 velocity=0 time=0
EXTRACT: note_on channel=9 note=56 velocity=0 time=0
EXTRACT: note_on channel=9 note=39 velocity=0 time=0
EXTRACT: note_on channel=9 note=54 velocity=127 time=0.0070754625
EXTRACT: note_on channel=9 note=42 velocity=127 time=0
EXTRACT: note_on channel=9 note=54 velocity=0 time=0.1344337875
EXTRACT: note_on channel=9 note=42 velocity=0 time=0
EXTRACT: note_on channel=9 note=54 velocity=127 time=0.0070754625
EXTRACT: note_on channel=9 note=56 velocity=127 time=0
EXTRACT: note_on channel=9 note=36 velocity=127 time=0
EXTRACT: note_on channel=9 note=42 velocity=127 time=0
EXTRACT: note_on channel=9 note=54 velocity=0 time=0.1344337875
EXTRACT: note_on channel=9 note=56 velocity=0 time=0
EXTRACT: note_on channel=9 note=36 velocity=0 time=0
EXTRACT: note_on channel=9 note=42 velocity=0 time=0
EXTRACT: note_on channel=9 note=54 velocity=127 time=0.0070754625
EXTRACT: note_on channel=9 note=42 velocity=127 time=0
EXTRACT: note_on channel=11 note=60 velocity=0 time=0
EXTRACT: note_on channel=11 note=63 velocity=0 time=0
EXTRACT: note_on channel=11 note=67 velocity=0 time=0
EXTRACT: note_on channel=13 note=60 velocity=0 time=0
EXTRACT: note_on channel=13 note=63 velocity=0 time=0
EXTRACT: note_on channel=13 note=67 velocity=0 time=0
EXTRACT: note_on channel=12 note=48 velocity=0 time=0.047169749999999996
EXTRACT: note_on channel=14 note=48 velocity=0 time=0
EXTRACT: note_on channel=9 note=54 velocity=0 time=0.0872640375
EXTRACT: note_on channel=9 note=42 velocity=0 time=0
EXTRACT: note_on channel=9 note=46 velocity=127 time=0
EXTRACT: note_on channel=9 note=54 velocity=127 time=0
EXTRACT: note_on channel=9 note=56 velocity=127 time=0
EXTRACT: note_on channel=9 note=36 velocity=127 time=0
EXTRACT: note_on channel=11 note=60 velocity=127 time=0
EXTRACT: note_on channel=11 note=63 velocity=127 time=0
EXTRACT: note_on channel=11 note=67 velocity=127 time=0
EXTRACT: note_on channel=12 note=48 velocity=127 time=0
EXTRACT: note_on channel=13 note=60 velocity=127 time=0
EXTRACT: note_on channel=13 note=63 velocity=127 time=0
EXTRACT: note_on channel=13 note=67 velocity=127 time=0
EXTRACT: note_on channel=14 note=48 velocity=127 time=0
EXTRACT: note_on channel=9 note=46 velocity=0 time=0.13571414999999998
EXTRACT: note_on channel=9 note=54 velocity=0 time=0
EXTRACT: note_on channel=9 note=56 velocity=0 time=0
EXTRACT: note_on channel=9 note=36 velocity=0 time=0
EXTRACT: note_on channel=9 note=54 velocity=127 time=0.007142849999999999
EXTRACT: note_on channel=9 note=42 velocity=127 time=0
EXTRACT: note_on channel=9 note=54 velocity=0 time=0.13571414999999998
EXTRACT: note_on channel=9 note=46 velocity=127 time=0.007142849999999999
EXTRACT: note_on channel=9 note=54 velocity=127 time=0
EXTRACT: note_on channel=9 note=56 velocity=127 time=0
EXTRACT: note_on channel=10 note=63 velocity=127 time=0
EXTRACT: note_on channel=10 note=63 velocity=127 time=0
EXTRACT: note_on channel=10 note=63 velocity=127 time=0
EXTRACT: note_on channel=9 note=46 velocity=0 time=0.13571414999999998
EXTRACT: note_on channel=9 note=54 velocity=0 time=0
EXTRACT: note_on channel=9 note=56 velocity=0 time=0
EXTRACT: note_on channel=9 note=42 velocity=0 time=0
EXTRACT: note_on channel=11 note=60 velocity=0 time=0
EXTRACT: note_on channel=11 note=63 velocity=0 time=0
EXTRACT: note_on channel=11 note=67 velocity=0 time=0
EXTRACT: note_on channel=13 note=60 velocity=0 time=0
EXTRACT: note_on channel=13 note=63 velocity=0 time=0
EXTRACT: note_on channel=13 note=67 velocity=0 time=0
EXTRACT: note_on channel=9 note=54 velocity=127 time=0.007142849999999999
EXTRACT: note_on channel=9 note=42 velocity=127 time=0
EXTRACT: note_on channel=11 note=60 velocity=127 time=0
EXTRACT: note_on channel=11 note=63 velocity=127 time=0
EXTRACT: note_on channel=11 note=67 velocity=127 time=0
EXTRACT: note_on channel=13 note=60 velocity=127 time=0
EXTRACT: note_on channel=13 note=63 velocity=127 time=0
EXTRACT: note_on channel=13 note=67 velocity=127 time=0
EXTRACT: note_on channel=12 note=48 velocity=0 time=0.047618999999999995
EXTRACT: note_on channel=14 note=48 velocity=0 time=0
EXTRACT: note_on channel=9 note=54 velocity=0 time=0.08809514999999998
EXTRACT: note_on channel=9 note=42 velocity=0 time=0
EXTRACT: note_on channel=10 note=63 velocity=0 time=0
EXTRACT: note_on channel=10 note=63 velocity=0 time=0
EXTRACT: note_on channel=10 note=63 velocity=0 time=0
EXTRACT: note_on channel=9 note=54 velocity=127 time=0.007142849999999999
EXTRACT: note_on channel=9 note=56 velocity=127 time=0
EXTRACT: note_on channel=9 note=39 velocity=127 time=0
EXTRACT: note_on channel=9 note=42 velocity=127 time=0
EXTRACT: note_on channel=10 note=63 velocity=127 time=0
EXTRACT: note_on channel=12 note=48 velocity=127 time=0
EXTRACT: note_on channel=14 note=48 velocity=127 time=0
EXTRACT: note_on channel=10 note=63 velocity=127 time=0
EXTRACT: note_on channel=10 note=63 velocity=127 time=0
EXTRACT: note_on channel=9 note=39 velocity=0 time=0.13571414999999998
EXTRACT: note_on channel=9 note=42 velocity=0 time=0
EXTRACT: note_on channel=9 note=42 velocity=127 time=0.007142849999999999
EXTRACT: note_on channel=9 note=54 velocity=0 time=0.13571414999999998
EXTRACT: note_on channel=9 note=56 velocity=0 time=0
EXTRACT: note_on channel=9 note=42 velocity=0 time=0
EXTRACT: note_on channel=10 note=63 velocity=0 time=0
EXTRACT: note_on channel=11 note=60 velocity=0 time=0
EXTRACT: note_on channel=11 note=63 velocity=0 time=0
EXTRACT: note_on channel=11 note=67 velocity=0 time=0
EXTRACT: note_on channel=12 note=48 velocity=0 time=0
EXTRACT: note_on channel=13 note=60 velocity=0 time=0
EXTRACT: note_on channel=13 note=63 velocity=0 time=0
EXTRACT: note_on channel=13 note=67 velocity=0 time=0
EXTRACT: note_on channel=14 note=48 velocity=0 time=0
EXTRACT: note_on channel=10 note=63 velocity=0 time=0
EXTRACT: note_on channel=10 note=63 velocity=0 time=0
EXTRACT: note_on channel=9 note=54 velocity=127 time=0.007142849999999999
EXTRACT: note_on channel=9 note=36 velocity=127 time=0
EXTRACT: note_on channel=9 note=42 velocity=127 time=0
EXTRACT: note_on channel=10 note=60 velocity=127 time=0
EXTRACT: note_on channel=11 note=60 velocity=127 time=0
EXTRACT: note_on channel=11 note=63 velocity=127 time=0
EXTRACT: note_on channel=11 note=68 velocity=127 time=0
EXTRACT: note_on channel=12 note=43 velocity=127 time=0
EXTRACT: note_on channel=13 note=60 velocity=127 time=0
EXTRACT: note_on channel=13 note=63 velocity=127 time=0
EXTRACT: note_on channel=13 note=68 velocity=127 time=0
EXTRACT: note_on channel=14 note=43 velocity=127 time=0
EXTRACT: note_on channel=10 note=60 velocity=127 time=0
EXTRACT: note_on channel=10 note=60 velocity=127 time=0
EXTRACT: note_on channel=9 note=54 velocity=0 time=0.13571414999999998
EXTRACT: note_on channel=9 note=36 velocity=0 time=0
EXTRACT: note_on channel=9 note=42 velocity=0 time=0
EXTRACT: note_on channel=9 note=54 velocity=127 time=0.007142849999999999
EXTRACT: note_on channel=9 note=56 velocity=127 time=0
EXTRACT: note_on channel=9 note=42 velocity=127 time=0
EXTRACT: note_on channel=9 note=54 velocity=0 time=0.13571414999999998
EXTRACT: note_on channel=9 note=56 velocity=0 time=0
EXTRACT: note_on channel=9 note=42 velocity=0 time=0
EXTRACT: note_on channel=10 note=60 velocity=0 time=0
EXTRACT: note_on channel=12 note=43 velocity=0 time=0
EXTRACT: note_on channel=14 note=43 velocity=0 time=0
EXTRACT: note_on channel=10 note=60 velocity=0 time=0
EXTRACT: note_on channel=10 note=60 velocity=0 time=0
EXTRACT: note_on channel=9 note=54 velocity=127 time=0.007142849999999999
EXTRACT: note_on channel=9 note=42 velocity=127 time=0
EXTRACT: note_on channel=10 note=63 velocity=127 time=0
EXTRACT: note_on channel=12 note=44 velocity=127 time=0
EXTRACT: note_on channel=14 note=44 velocity=127 time=0
EXTRACT: note_on channel=10 note=63 velocity=127 time=0
EXTRACT: note_on channel=10 note=63 velocity=127 time=0
EXTRACT: note_on channel=9 note=54 velocity=0 time=0.13571414999999998
EXTRACT: note_on channel=9 note=42 velocity=0 time=0
EXTRACT: note_on channel=9 note=46 velocity=127 time=0.007142849999999999
EXTRACT: note_on channel=9 note=54 velocity=127 time=0
EXTRACT: note_on channel=9 note=56 velocity=127 time=0
EXTRACT: note_on channel=9 note=36 velocity=127 time=0
EXTRACT: note_on channel=9 note=46 velocity=0 time=0.13571414999999998
EXTRACT: note_on channel=9 note=54 velocity=0 time=0
EXTRACT: note_on channel=9 note=56 velocity=0 time=0
EXTRACT: note_on channel=9 note=36 velocity=0 time=0
EXTRACT: note_on channel=10 note=63 velocity=0 time=0
EXTRACT: note_on channel=12 note=44 velocity=0 time=0
EXTRACT: note_on channel=14 note=44 velocity=0 time=0
EXTRACT: note_on channel=10 note=63 velocity=0 time=0
EXTRACT: note_on channel=10 note=63 velocity=0 time=0
EXTRACT: note_on channel=9 note=54 velocity=127 time=0.007142849999999999
EXTRACT: note_on channel=9 note=56 velocity=127 time=0
EXTRACT: note_on channel=9 note=36 velocity=127 time=0
EXTRACT: note_on channel=9 note=42 velocity=127 time=0
EXTRACT: note_on channel=10 note=60 velocity=127 time=0
EXTRACT: note_on channel=12 note=44 velocity=127 time=0
EXTRACT: note_on channel=14 note=44 velocity=127 time=0
EXTRACT: note_on channel=10 note=60 velocity=127 time=0
EXTRACT: note_on channel=10 note=60 velocity=127 time=0
EXTRACT: note_on channel=9 note=54 velocity=0 time=0.13571414999999998
EXTRACT: note_on channel=9 note=56 velocity=0 time=0
EXTRACT: note_on channel=9 note=36 velocity=0 time=0
EXTRACT: note_on channel=9 note=42 velocity=0 time=0
EXTRACT: note_on channel=9 note=56 velocity=127 time=0.007142849999999999
EXTRACT: note_on channel=9 note=36 velocity=127 time=0
EXTRACT: note_on channel=9 note=42 velocity=127 time=0
EXTRACT: note_on channel=9 note=56 velocity=0 time=0.13571414999999998
EXTRACT: note_on channel=9 note=36 velocity=0 time=0
EXTRACT: note_on channel=9 note=42 velocity=0 time=0
EXTRACT: note_on channel=10 note=60 velocity=0 time=0
EXTRACT: note_on channel=10 note=60 velocity=0 time=0
EXTRACT: note_on channel=10 note=60 velocity=0 time=0
EXTRACT: note_on channel=9 note=46 velocity=127 time=0.007142849999999999
EXTRACT: note_on channel=9 note=54 velocity=127 time=0
EXTRACT: note_on channel=9 note=56 velocity=127 time=0
EXTRACT: note_on channel=9 note=39 velocity=127 time=0
EXTRACT: note_on channel=9 note=46 velocity=0 time=0.13571414999999998
EXTRACT: note_on channel=9 note=54 velocity=0 time=0
EXTRACT: note_on channel=9 note=56 velocity=0 time=0
EXTRACT: note_on channel=9 note=39 velocity=0 time=0
EXTRACT: note_on channel=9 note=54 velocity=127 time=0.007142849999999999
EXTRACT: note_on channel=9 note=42 velocity=127 time=0
EXTRACT: note_on channel=9 note=54 velocity=0 time=0.13571414999999998
EXTRACT: note_on channel=9 note=42 velocity=0 time=0
EXTRACT: note_on channel=9 note=54 velocity=127 time=0.007142849999999999
EXTRACT: note_on channel=9 note=56 velocity=127 time=0
EXTRACT: note_on channel=9 note=36 velocity=127 time=0
EXTRACT: note_on channel=9 note=42 velocity=127 time=0
EXTRACT: note_on channel=10 note=60 velocity=127 time=0
EXTRACT: note_on channel=10 note=60 velocity=127 time=0
EXTRACT: note_on channel=10 note=60 velocity=127 time=0
EXTRACT: note_on channel=9 note=54 velocity=0 time=0.13571414999999998
EXTRACT: note_on channel=9 note=56 velocity=0 time=0
EXTRACT: note_on channel=9 note=36 velocity=0 time=0
EXTRACT: note_on channel=9 note=42 velocity=0 time=0
EXTRACT: note_on channel=9 note=54 velocity=127 time=0.007142849999999999
EXTRACT: note_on channel=9 note=42 velocity=127 time=0
EXTRACT: note_on channel=11 note=60 velocity=0 time=0
EXTRACT: note_on channel=11 note=63 velocity=0 time=0
EXTRACT: note_on channel=11 note=68 velocity=0 time=0
EXTRACT: note_on channel=13 note=60 velocity=0 time=0
EXTRACT: note_on channel=13 note=63 velocity=0 time=0
EXTRACT: note_on channel=13 note=68 velocity=0 time=0
EXTRACT: note_on channel=12 note=44 velocity=0 time=0.047618999999999995
EXTRACT: note_on channel=14 note=44 velocity=0 time=0
EXTRACT: note_on channel=9 note=54 velocity=0 time=0.08809514999999998
EXTRACT: note_on channel=9 note=42 velocity=0 time=0
EXTRACT: note_on channel=10 note=60 velocity=0 time=0
EXTRACT: note_on channel=10 note=60 velocity=0 time=0
EXTRACT: note_on channel=10 note=60 velocity=0 time=0
EXTRACT: note_on channel=9 note=46 velocity=127 time=0
EXTRACT: note_on channel=9 note=54 velocity=127 time=0
EXTRACT: note_on channel=9 note=56 velocity=127 time=0
EXTRACT: note_on channel=9 note=36 velocity=127 time=0
EXTRACT: note_on channel=10 note=59 velocity=127 time=0
EXTRACT: note_on channel=11 note=59 velocity=127 time=0
EXTRACT: note_on channel=11 note=62 velocity=127 time=0
EXTRACT: note_on channel=11 note=67 velocity=127 time=0
EXTRACT: note_on channel=12 note=43 velocity=127 time=0
EXTRACT: note_on channel=13 note=59 velocity=127 time=0
EXTRACT: note_on channel=13 note=62 velocity=127 time=0
EXTRACT: note_on channel=13 note=67 velocity=127 time=0
EXTRACT: note_on channel=14 note=43 velocity=127 time=0
EXTRACT: note_on channel=10 note=59 velocity=127 time=0
EXTRACT: note_on channel=10 note=59 velocity=127 time=0
EXTRACT: note_on channel=9 note=46 velocity=0 time=0.1344337875
EXTRACT: note_on channel=9 note=54 velocity=0 time=0
EXTRACT: note_on channel=9 note=56 velocity=0 time=0
EXTRACT: note_on channel=9 note=36 velocity=0 time=0
EXTRACT: note_on channel=9 note=54 velocity=127 time=0.0070754625
EXTRACT: note_on channel=9 note=42 velocity=127 time=0
EXTRACT: note_on channel=9 note=54 velocity=0 time=0.1344337875
EXTRACT: note_on channel=10 note=59 velocity=0 time=0
EXTRACT: note_on channel=10 note=59 velocity=0 time=0
EXTRACT: note_on channel=10 note=59 velocity=0 time=0
EXTRACT: note_on channel=9 note=46 velocity=127 time=0.0070754625
EXTRACT: note_on channel=9 note=54 velocity=127 time=0
EXTRACT: note_on channel=9 note=56 velocity=127 time=0
EXTRACT: note_on channel=10 note=60 velocity=127 time=0
EXTRACT: note_on channel=10 note=60 velocity=127 time=0
EXTRACT: note_on channel=10 note=60 velocity=127 time=0
EXTRACT: note_on channel=9 note=46 velocity=0 time=0.1344337875
EXTRACT: note_on channel=9 note=54 velocity=0 time=0
EXTRACT: note_on channel=9 note=56 velocity=0 time=0
EXTRACT: note_on channel=9 note=42 velocity=0 time=0
EXTRACT: note_on channel=11 note=59 velocity=0 time=0
EXTRACT: note_on channel=11 note=62 velocity=0 time=0
EXTRACT: note_on channel=11 note=67 velocity=0 time=0
EXTRACT: note_on channel=13 note=59 velocity=0 time=0
EXTRACT: note_on channel=13 note=62 velocity=0 time=0
EXTRACT: note_on channel=13 note=67 velocity=0 time=0
EXTRACT: note_on channel=9 note=54 velocity=127 time=0.0070754625
EXTRACT: note_on channel=9 note=42 velocity=127 time=0
EXTRACT: note_on channel=11 note=59 velocity=127 time=0
EXTRACT: note_on channel=11 note=62 velocity=127 time=0
EXTRACT: note_on channel=11 note=67 velocity=127 time=0
EXTRACT: note_on channel=13 note=59 velocity=127 time=0
EXTRACT: note_on channel=13 note=62 velocity=127 time=0
EXTRACT: note_on channel=13 note=67 velocity=127 time=0
EXTRACT: note_on channel=12 note=43 velocity=0 time=0.047169749999999996
EXTRACT: note_on channel=14 note=43 velocity=0 time=0
EXTRACT: note_on channel=9 note=54 velocity=0 time=0.0872640375
EXTRACT: note_on channel=9 note=42 velocity=0 time=0
EXTRACT: note_on channel=10 note=60 velocity=0 time=0
EXTRACT: note_on channel=10 note=60 velocity=0 time=0
EXTRACT: note_on channel=10 note=60 velocity=0 time=0
EXTRACT: note_on channel=9 note=54 velocity=127 time=0.0070754625
EXTRACT: note_on channel=9 note=56 velocity=127 time=0
EXTRACT: note_on channel=9 note=39 velocity=127 time=0
EXTRACT: note_on channel=9 note=42 velocity=127 time=0
EXTRACT: note_on channel=10 note=62 velocity=127 time=0
EXTRACT: note_on channel=12 note=43 velocity=127 time=0
EXTRACT: note_on channel=14 note=43 velocity=127 time=0
EXTRACT: note_on channel=10 note=62 velocity=127 time=0
EXTRACT: note_on channel=10 note=62 velocity=127 time=0
EXTRACT: note_on channel=9 note=39 velocity=0 time=0.1344337875
EXTRACT: note_on channel=9 note=42 velocity=0 time=0
EXTRACT: note_on channel=9 note=42 velocity=127 time=0.0070754625
EXTRACT: note_on channel=9 note=54 velocity=0 time=0.1344337875
EXTRACT: note_on channel=9 note=56 velocity=0 time=0
EXTRACT: note_on channel=9 note=42 velocity=0 time=0
EXTRACT: note_on channel=10 note=62 velocity=0 time=0
EXTRACT: note_on channel=11 note=59 velocity=0 time=0
EXTRACT: note_on channel=11 note=62 velocity=0 time=0
EXTRACT: note_on channel=11 note=67 velocity=0 time=0
EXTRACT: note_on channel=12 note=43 velocity=0 time=0
EXTRACT: note_on channel=13 note=59 velocity=0 time=0
EXTRACT: note_on channel=13 note=62 velocity=0 time=0
EXTRACT: note_on channel=13 note=67 velocity=0 time=0
EXTRACT: note_on channel=14 note=43 velocity=0 time=0
EXTRACT: note_on channel=10 note=62 velocity=0 time=0
EXTRACT: note_on channel=10 note=62 velocity=0 time=0
EXTRACT: note_on channel=9 note=54 velocity=127 time=0.0070754625
EXTRACT: note_on channel=9 note=36 velocity=127 time=0
EXTRACT: note_on channel=9 note=42 velocity=127 time=0
EXTRACT: note_on channel=10 note=60 velocity=127 time=0
EXTRACT: note_on channel=11 note=60 velocity=127 time=0
EXTRACT: note_on channel=11 note=63 velocity=127 time=0
EXTRACT: note_on channel=11 note=67 velocity=127 time=0
EXTRACT: note_on channel=12 note=47 velocity=127 time=0
EXTRACT: note_on channel=13 note=60 velocity=127 time=0
EXTRACT: note_on channel=13 note=63 velocity=127 time=0
EXTRACT: note_on channel=13 note=67 velocity=127 time=0
EXTRACT: note_on channel=14 note=47 velocity=127 time=0
EXTRACT: note_on channel=10 note=60 velocity=127 time=0
EXTRACT: note_on channel=10 note=60 velocity=127 time=0
EXTRACT: note_on channel=9 note=54 velocity=0 time=0.1344337875
EXTRACT: note_on channel=9 note=36 velocity=0 time=0
EXTRACT: note_on channel=9 note=42 velocity=0 time=0
EXTRACT: note_on channel=9 note=54 velocity=127 time=0.0070754625
EXTRACT: note_on channel=9 note=56 velocity=127 time=0
EXTRACT: note_on channel=9 note=42 velocity=127 time=0
EXTRACT: note_on channel=9 note=54 velocity=0 time=0.1344337875
EXTRACT: note_on channel=9 note=56 velocity=0 time=0
EXTRACT: note_on channel=9 note=42 velocity=0 time=0
EXTRACT: note_on channel=12 note=47 velocity=0 time=0
EXTRACT: note_on channel=14 note=47 velocity=0 time=0
EXTRACT: note_on channel=9 note=54 velocity=127 time=0.0070754625
EXTRACT: note_on channel=9 note=42 velocity=127 time=0
EXTRACT: note_on channel=12 note=48 velocity=127 time=0
EXTRACT: note_on channel=14 note=48 velocity=127 time=0
EXTRACT: note_on channel=9 note=54 velocity=0 time=0.1344337875
EXTRACT: note_on channel=9 note=42 velocity=0 time=0
EXTRACT: note_on channel=9 note=46 velocity=127 time=0.0070754625
EXTRACT: note_on channel=9 note=54 velocity=127 time=0
EXTRACT: note_on channel=9 note=56 velocity=127 time=0
EXTRACT: note_on channel=9 note=36 velocity=127 time=0
EXTRACT: note_on channel=9 note=46 velocity=0 time=0.1344337875
EXTRACT: note_on channel=9 note=54 velocity=0 time=0
EXTRACT: note_on channel=9 note=56 velocity=0 time=0
EXTRACT: note_on channel=9 note=36 velocity=0 time=0
EXTRACT: note_on channel=12 note=48 velocity=0 time=0
EXTRACT: note_on channel=14 note=48 velocity=0 time=0
EXTRACT: note_on channel=9 note=54 velocity=127 time=0.0070754625
EXTRACT: note_on channel=9 note=56 velocity=127 time=0
EXTRACT: note_on channel=9 note=36 velocity=127 time=0
EXTRACT: note_on channel=9 note=42 velocity=127 time=0
EXTRACT: note_on channel=12 note=48 velocity=127 time=0
EXTRACT: note_on channel=14 note=48 velocity=127 time=0
EXTRACT: note_on channel=9 note=54 velocity=0 time=0.1344337875
EXTRACT: note_on channel=9 note=56 velocity=0 time=0
EXTRACT: note_on channel=9 note=36 velocity=0 time=0
EXTRACT: note_on channel=9 note=42 velocity=0 time=0
EXTRACT: note_on channel=9 note=56 velocity=127 time=0.0070754625
EXTRACT: note_on channel=9 note=36 velocity=127 time=0
EXTRACT: note_on channel=9 note=42 velocity=127 time=0
EXTRACT: note_on channel=10 note=60 velocity=0 time=0.047169749999999996
EXTRACT: note_on channel=10 note=60 velocity=0 time=0
EXTRACT: note_on channel=10 note=60 velocity=0 time=0
EXTRACT: note_on channel=9 note=56 velocity=0 time=0.0872640375
EXTRACT: note_on channel=9 note=36 velocity=0 time=0
EXTRACT: note_on channel=9 note=42 velocity=0 time=0
EXTRACT: note_on channel=9 note=46 velocity=127 time=0.0070754625
EXTRACT: note_on channel=9 note=54 velocity=127 time=0
EXTRACT: note_on channel=9 note=56 velocity=127 time=0
EXTRACT: note_on channel=9 note=39 velocity=127 time=0
EXTRACT: note_on channel=9 note=46 velocity=0 time=0.1344337875
EXTRACT: note_on channel=9 note=54 velocity=0 time=0
EXTRACT: note_on channel=9 note=56 velocity=0 time=0
EXTRACT: note_on channel=9 note=39 velocity=0 time=0
EXTRACT: note_on channel=9 note=54 velocity=127 time=0.0070754625
EXTRACT: note_on channel=9 note=42 velocity=127 time=0
EXTRACT: note_on channel=9 note=54 velocity=0 time=0.1344337875
EXTRACT: note_on channel=9 note=42 velocity=0 time=0
EXTRACT: note_on channel=9 note=54 velocity=127 time=0.0070754625
EXTRACT: note_on channel=9 note=56 velocity=127 time=0
EXTRACT: note_on channel=9 note=36 velocity=127 time=0
EXTRACT: note_on channel=9 note=42 velocity=127 time=0
EXTRACT: note_on channel=9 note=54 velocity=0 time=0.1344337875
EXTRACT: note_on channel=9 note=56 velocity=0 time=0
EXTRACT: note_on channel=9 note=36 velocity=0 time=0
EXTRACT: note_on channel=9 note=42 velocity=0 time=0
EXTRACT: note_on channel=9 note=54 velocity=127 time=0.0070754625
EXTRACT: note_on channel=9 note=42 velocity=127 time=0
EXTRACT: note_on channel=11 note=60 velocity=0 time=0
EXTRACT: note_on channel=11 note=63 velocity=0 time=0
EXTRACT: note_on channel=11 note=67 velocity=0 time=0
EXTRACT: note_on channel=13 note=60 velocity=0 time=0
EXTRACT: note_on channel=13 note=63 velocity=0 time=0
EXTRACT: note_on channel=13 note=67 velocity=0 time=0
EXTRACT: note_on channel=12 note=48 velocity=0 time=0.047169749999999996
EXTRACT: note_on channel=14 note=48 velocity=0 time=0
EXTRACT: note_on channel=9 note=54 velocity=0 time=0.0872640375
EXTRACT: note_on channel=9 note=42 velocity=0 time=0
EXTRACT: note_on channel=9 note=46 velocity=127 time=0
EXTRACT: note_on channel=9 note=54 velocity=127 time=0
EXTRACT: note_on channel=9 note=56 velocity=127 time=0
EXTRACT: note_on channel=9 note=36 velocity=127 time=0
EXTRACT: note_on channel=10 note=60 velocity=127 time=0
EXTRACT: note_on channel=11 note=60 velocity=127 time=0
EXTRACT: note_on channel=11 note=63 velocity=127 time=0
EXTRACT: note_on channel=11 note=67 velocity=127 time=0
EXTRACT: note_on channel=12 note=48 velocity=127 time=0
EXTRACT: note_on channel=13 note=60 velocity=127 time=0
EXTRACT: note_on channel=13 note=63 velocity=127 time=0
EXTRACT: note_on channel=13 note=67 velocity=127 time=0
EXTRACT: note_on channel=14 note=48 velocity=127 time=0
EXTRACT: note_on channel=10 note=60 velocity=127 time=0
EXTRACT: note_on channel=10 note=60 velocity=127 time=0
EXTRACT: note_on channel=9 note=46 velocity=0 time=0.1344337875
EXTRACT: note_on channel=9 note=54 velocity=0 time=0
EXTRACT: note_on channel=9 note=56 velocity=0 time=0
EXTRACT: note_on channel=9 note=36 velocity=0 time=0
EXTRACT: note_on channel=9 note=54 velocity=127 time=0.0070754625
EXTRACT: note_on channel=9 note=42 velocity=127 time=0
EXTRACT: note_on channel=9 note=54 velocity=0 time=0.1344337875
EXTRACT: note_on channel=9 note=46 velocity=127 time=0.0070754625
EXTRACT: note_on channel=9 note=54 velocity=127 time=0
EXTRACT: note_on channel=9 note=56 velocity=127 time=0
EXTRACT: note_on channel=9 note=46 velocity=0 time=0.1344337875
EXTRACT: note_on channel=9 note=54 velocity=0 time=0
EXTRACT: note_on channel=9 note=56 velocity=0 time=0
EXTRACT: note_on channel=9 note=42 velocity=0 time=0
EXTRACT: note_on channel=11 note=60 velocity=0 time=0
EXTRACT: note_on channel=11 note=63 velocity=0 time=0
EXTRACT: note_on channel=11 note=67 velocity=0 time=0
EXTRACT: note_on channel=13 note=60 velocity=0 time=0
EXTRACT: note_on channel=13 note=63 velocity=0 time=0
EXTRACT: note_on channel=13 note=67 velocity=0 time=0
EXTRACT: note_on channel=9 note=54 velocity=127 time=0.0070754625
EXTRACT: note_on channel=9 note=42 velocity=127 time=0
EXTRACT: note_on channel=11 note=60 velocity=127 time=0
EXTRACT: note_on channel=11 note=63 velocity=127 time=0
EXTRACT: note_on channel=11 note=67 velocity=127 time=0
EXTRACT: note_on channel=13 note=60 velocity=127 time=0
EXTRACT: note_on channel=13 note=63 velocity=127 time=0
EXTRACT: note_on channel=13 note=67 velocity=127 time=0
EXTRACT: note_on channel=10 note=60 velocity=0 time=0.047169749999999996
EXTRACT: note_on channel=12 note=48 velocity=0 time=0
EXTRACT: note_on channel=14 note=48 velocity=0 time=0
EXTRACT: note_on channel=10 note=60 velocity=0 time=0
EXTRACT: note_on channel=10 note=60 velocity=0 time=0
EXTRACT: note_on channel=9 note=54 velocity=0 time=0.0872640375
EXTRACT: note_on channel=9 note=42 velocity=0 time=0
EXTRACT: note_on channel=9 note=54 velocity=127 time=0.0070754625
EXTRACT: note_on channel=9 note=56 velocity=127 time=0
EXTRACT: note_on channel=9 note=39 velocity=127 time=0
EXTRACT: note_on channel=9 note=42 velocity=127 time=0
EXTRACT: note_on channel=10 note=67 velocity=127 time=0
EXTRACT: note_on channel=12 note=48 velocity=127 time=0
EXTRACT: note_on channel=14 note=48 velocity=127 time=0
EXTRACT: note_on channel=10 note=67 velocity=127 time=0
EXTRACT: note_on channel=10 note=67 velocity=127 time=0
EXTRACT: note_on channel=9 note=39 velocity=0 time=0.1344337875
EXTRACT: note_on channel=9 note=42 velocity=0 time=0
EXTRACT: note_on channel=9 note=42 velocity=127 time=0.0070754625
EXTRACT: note_on channel=9 note=54 velocity=0 time=0.1344337875
EXTRACT: note_on channel=9 note=56 velocity=0 time=0
EXTRACT: note_on channel=9 note=42 velocity=0 time=0
EXTRACT: note_on channel=11 note=60 velocity=0 time=0
EXTRACT: note_on channel=11 note=63 velocity=0 time=0
EXTRACT: note_on channel=11 note=67 velocity=0 time=0
EXTRACT: note_on channel=12 note=48 velocity=0 time=0
EXTRACT: note_on channel=13 note=60 velocity=0 time=0
EXTRACT: note_on channel=13 note=63 velocity=0 time=0
EXTRACT: note_on channel=13 note=67 velocity=0 time=0
EXTRACT: note_on channel=14 note=48 velocity=0 time=0
EXTRACT: note_on channel=9 note=54 velocity=127 time=0.0070754625
EXTRACT: note_on channel=9 note=36 velocity=127 time=0
EXTRACT: note_on channel=9 note=42 velocity=127 time=0
EXTRACT: note_on channel=10 note=67 velocity=0 time=0
EXTRACT: note_on channel=10 note=65 velocity=127 time=0
EXTRACT: note_on channel=11 note=60 velocity=127 time=0
EXTRACT: note_on channel=11 note=63 velocity=127 time=0
EXTRACT: note_on channel=11 note=68 velocity=127 time=0
EXTRACT: note_on channel=12 note=43 velocity=127 time=0
EXTRACT: note_on channel=13 note=60 velocity=127 time=0
EXTRACT: note_on channel=13 note=63 velocity=127 time=0
EXTRACT: note_on channel=13 note=68 velocity=127 time=0
EXTRACT: note_on channel=14 note=43 velocity=127 time=0
EXTRACT: note_on channel=10 note=67 velocity=0 time=0
EXTRACT: note_on channel=10 note=65 velocity=127 time=0
EXTRACT: note_on channel=10 note=67 velocity=0 time=0
EXTRACT: note_on channel=10 note=65 velocity=127 time=0
EXTRACT: note_on channel=9 note=54 velocity=0 time=0.1344337875
EXTRACT: note_on channel=9 note=36 velocity=0 time=0
EXTRACT: note_on channel=9 note=42 velocity=0 time=0
EXTRACT: note_on channel=9 note=54 velocity=127 time=0.0070754625
EXTRACT: note_on channel=9 note=56 velocity=127 time=0
EXTRACT: note_on channel=9 note=42 velocity=127 time=0
EXTRACT: note_on channel=9 note=54 velocity=0 time=0.1344337875
EXTRACT: note_on channel=9 note=56 velocity=0 time=0
EXTRACT: note_on channel=9 note=42 velocity=0 time=0
EXTRACT: note_on channel=10 note=65 velocity=0 time=0
EXTRACT: note_on channel=12 note=43 velocity=0 time=0
EXTRACT: note_on channel=14 note=43 velocity=0 time=0
EXTRACT: note_on channel=10 note=65 velocity=0 time=0
EXTRACT: note_on channel=10 note=65 velocity=0 time=0
EXTRACT: note_on channel=9 note=54 velocity=127 time=0.0070754625
EXTRACT: note_on channel=9 note=42 velocity=127 time=0
EXTRACT: note_on channel=10 note=65 velocity=127 time=0
EXTRACT: note_on channel=12 note=44 velocity=127 time=0
EXTRACT: note_on channel=14 note=44 velocity=127 time=0
EXTRACT: note_on channel=10 note=65 velocity=127 time=0
EXTRACT: note_on channel=10 note=65 velocity=127 time=0
EXTRACT: note_on channel=9 note=54 velocity=0 time=0.1344337875
EXTRACT: note_on channel=9 note=42 velocity=0 time=0
EXTRACT: note_on channel=9 note=46 velocity=127 time=0.0070754625
EXTRACT: note_on channel=9 note=54 velocity=127 time=0
EXTRACT: note_on channel=9 note=56 velocity=127 time=0
EXTRACT: note_on channel=9 note=36 velocity=127 time=0
EXTRACT: note_on channel=9 note=46 velocity=0 time=0.1344337875
EXTRACT: note_on channel=9 note=54 velocity=0 time=0
EXTRACT: note_on channel=9 note=56 velocity=0 time=0
EXTRACT: note_on channel=9 note=36 velocity=0 time=0
EXTRACT: note_on channel=12 note=44 velocity=0 time=0
EXTRACT: note_on channel=14 note=44 velocity=0 time=0
EXTRACT: note_on channel=9 note=54 velocity=127 time=0.0070754625
EXTRACT: note_on channel=9 note=56 velocity=127 time=0
EXTRACT: note_on channel=9 note=36 velocity=127 time=0
EXTRACT: note_on channel=9 note=42 velocity=127 time=0
EXTRACT: note_on channel=10 note=65 velocity=0 time=0
EXTRACT: note_on channel=10 note=63 velocity=127 time=0
EXTRACT: note_on channel=12 note=44 velocity=127 time=0
EXTRACT: note_on channel=14 note=44 velocity=127 time=0
EXTRACT: note_on channel=10 note=65 velocity=0 time=0
EXTRACT: note_on channel=10 note=63 velocity=127 time=0
EXTRACT: note_on channel=10 note=65 velocity=0 time=0
EXTRACT: note_on channel=10 note=63 velocity=127 time=0
EXTRACT: note_on channel=9 note=54 velocity=0 time=0.1344337875
EXTRACT: note_on channel=9 note=56 velocity=0 time=0
EXTRACT: note_on channel=9 note=36 velocity=0 time=0
EXTRACT: note_on channel=9 note=42 velocity=0 time=0
EXTRACT: note_on channel=9 note=56 velocity=127 time=0.0070754625
EXTRACT: note_on channel=9 note=36 velocity=127 time=0
EXTRACT: note_on channel=9 note=42 velocity=127 time=0
EXTRACT: note_on channel=9 note=56 velocity=0 time=0.1344337875
EXTRACT: note_on channel=9 note=36 velocity=0 time=0
EXTRACT: note_on channel=9 note=42 velocity=0 time=0
EXTRACT: note_on channel=10 note=63 velocity=0 time=0
EXTRACT: note_on channel=10 note=63 velocity=0 time=0
EXTRACT: note_on channel=10 note=63 velocity=0 time=0
EXTRACT: note_on channel=9 note=46 velocity=127 time=0.0070754625
EXTRACT: note_on channel=9 note=54 velocity=127 time=0
EXTRACT: note_on channel=9 note=56 velocity=127 time=0
EXTRACT: note_on channel=9 note=39 velocity=127 time=0
EXTRACT: note_on channel=10 note=63 velocity=127 time=0
EXTRACT: note_on channel=10 note=63 velocity=127 time=0
EXTRACT: note_on channel=10 note=63 velocity=127 time=0
EXTRACT: note_on channel=9 note=46 velocity=0 time=0.1344337875
EXTRACT: note_on channel=9 note=54 velocity=0 time=0
EXTRACT: note_on channel=9 note=56 velocity=0 time=0
EXTRACT: note_on channel=9 note=39 velocity=0 time=0
EXTRACT: note_on channel=9 note=54 velocity=127 time=0.0070754625
EXTRACT: note_on channel=9 note=42 velocity=127 time=0
EXTRACT: note_on channel=9 note=54 velocity=0 time=0.1344337875
EXTRACT: note_on channel=9 note=42 velocity=0 time=0
EXTRACT: note_on channel=9 note=54 velocity=127 time=0.0070754625
EXTRACT: note_on channel=9 note=56 velocity=127 time=0
EXTRACT: note_on channel=9 note=36 velocity=127 time=0
EXTRACT: note_on channel=9 note=42 velocity=127 time=0
EXTRACT: note_on channel=9 note=54 velocity=0 time=0.1344337875
EXTRACT: note_on channel=9 note=56 velocity=0 time=0
EXTRACT: note_on channel=9 note=36 velocity=0 time=0
EXTRACT: note_on channel=9 note=42 velocity=0 time=0
EXTRACT: note_on channel=9 note=54 velocity=127 time=0.0070754625
EXTRACT: note_on channel=9 note=42 velocity=127 time=0
EXTRACT: note_on channel=11 note=60 velocity=0 time=0
EXTRACT: note_on channel=11 note=63 velocity=0 time=0
EXTRACT: note_on channel=11 note=68 velocity=0 time=0
EXTRACT: note_on channel=13 note=60 velocity=0 time=0
EXTRACT: note_on channel=13 note=63 velocity=0 time=0
EXTRACT: note_on channel=13 note=68 velocity=0 time=0
EXTRACT: note_on channel=10 note=63 velocity=0 time=0.047169749999999996
EXTRACT: note_on channel=12 note=44 velocity=0 time=0
EXTRACT: note_on channel=14 note=44 velocity=0 time=0
EXTRACT: note_on channel=10 note=63 velocity=0 time=0
EXTRACT: note_on channel=10 note=63 velocity=0 time=0
EXTRACT: note_on channel=9 note=54 velocity=0 time=0.0872640375
EXTRACT: note_on channel=9 note=42 velocity=0 time=0
EXTRACT: note_on channel=9 note=46 velocity=127 time=0
EXTRACT: note_on channel=9 note=54 velocity=127 time=0
EXTRACT: note_on channel=9 note=56 velocity=127 time=0
EXTRACT: note_on channel=9 note=36 velocity=127 time=0
EXTRACT: note_on channel=10 note=70 velocity=127 time=0
EXTRACT: note_on channel=11 note=59 velocity=127 time=0
EXTRACT: note_on channel=11 note=62 velocity=127 time=0
EXTRACT: note_on channel=11 note=67 velocity=127 time=0
EXTRACT: note_on channel=12 note=43 velocity=127 time=0
EXTRACT: note_on channel=13 note=59 velocity=127 time=0
EXTRACT: note_on channel=13 note=62 velocity=127 time=0
EXTRACT: note_on channel=13 note=67 velocity=127 time=0
EXTRACT: note_on channel=14 note=43 velocity=127 time=0
EXTRACT: note_on channel=10 note=70 velocity=127 time=0
EXTRACT: note_on channel=10 note=70 velocity=127 time=0
EXTRACT: note_on channel=9 note=46 velocity=0 time=0.1331774125
EXTRACT: note_on channel=9 note=54 velocity=0 time=0
EXTRACT: note_on channel=9 note=56 velocity=0 time=0
EXTRACT: note_on channel=9 note=36 velocity=0 time=0
EXTRACT: note_on channel=9 note=54 velocity=127 time=0.0070093375
EXTRACT: note_on channel=9 note=42 velocity=127 time=0
EXTRACT: note_on channel=9 note=54 velocity=0 time=0.1331774125
EXTRACT: note_on channel=9 note=46 velocity=127 time=0.0070093375
EXTRACT: note_on channel=9 note=54 velocity=127 time=0
EXTRACT: note_on channel=9 note=56 velocity=127 time=0
EXTRACT: note_on channel=9 note=46 velocity=0 time=0.1331774125
EXTRACT: note_on channel=9 note=54 velocity=0 time=0
EXTRACT: note_on channel=9 note=56 velocity=0 time=0
EXTRACT: note_on channel=9 note=42 velocity=0 time=0
EXTRACT: note_on channel=10 note=70 velocity=0 time=0
EXTRACT: note_on channel=11 note=59 velocity=0 time=0
EXTRACT: note_on channel=11 note=62 velocity=0 time=0
EXTRACT: note_on channel=11 note=67 velocity=0 time=0
EXTRACT: note_on channel=13 note=59 velocity=0 time=0
EXTRACT: note_on channel=13 note=62 velocity=0 time=0
EXTRACT: note_on channel=13 note=67 velocity=0 time=0
EXTRACT: note_on channel=10 note=70 velocity=0 time=0
EXTRACT: note_on channel=10 note=70 velocity=0 time=0
EXTRACT: note_on channel=9 note=54 velocity=127 time=0.0070093375
EXTRACT: note_on channel=9 note=42 velocity=127 time=0
EXTRACT: note_on channel=10 note=68 velocity=127 time=0
EXTRACT: note_on channel=11 note=59 velocity=127 time=0
EXTRACT: note_on channel=11 note=62 velocity=127 time=0
EXTRACT: note_on channel=11 note=67 velocity=127 time=0
EXTRACT: note_on channel=13 note=59 velocity=127 time=0
EXTRACT: note_on channel=13 note=62 velocity=127 time=0
EXTRACT: note_on channel=13 note=67 velocity=127 time=0
EXTRACT: note_on channel=10 note=68 velocity=127 time=0
EXTRACT: note_on channel=10 note=68 velocity=127 time=0
EXTRACT: note_on channel=12 note=43 velocity=0 time=0.04672891666666666
EXTRACT: note_on channel=14 note=43 velocity=0 time=0
EXTRACT: note_on channel=9 note=54 velocity=0 time=0.08644849583333333
EXTRACT: note_on channel=9 note=42 velocity=0 time=0
EXTRACT: note_on channel=9 note=54 velocity=127 time=0.0070093375
EXTRACT: note_on channel=9 note=56 velocity=127 time=0
EXTRACT: note_on channel=9 note=39 velocity=127 time=0
EXTRACT: note_on channel=9 note=42 velocity=127 time=0
EXTRACT: note_on channel=12 note=43 velocity=127 time=0
EXTRACT: note_on channel=14 note=43 velocity=127 time=0
EXTRACT: note_on channel=9 note=39 velocity=0 time=0.1331774125
EXTRACT: note_on channel=9 note=42 velocity=0 time=0
EXTRACT: note_on channel=9 note=42 velocity=127 time=0.0070093375
EXTRACT: note_on channel=9 note=54 velocity=0 time=0.1331774125
EXTRACT: note_on channel=9 note=56 velocity=0 time=0
EXTRACT: note_on channel=9 note=42 velocity=0 time=0
EXTRACT: note_on channel=10 note=68 velocity=0 time=0
EXTRACT: note_on channel=11 note=59 velocity=0 time=0
EXTRACT: note_on channel=11 note=62 velocity=0 time=0
EXTRACT: note_on channel=11 note=67 velocity=0 time=0
EXTRACT: note_on channel=12 note=43 velocity=0 time=0
EXTRACT: note_on channel=13 note=59 velocity=0 time=0
EXTRACT: note_on channel=13 note=62 velocity=0 time=0
EXTRACT: note_on channel=13 note=67 velocity=0 time=0
EXTRACT: note_on channel=14 note=43 velocity=0 time=0
EXTRACT: note_on channel=10 note=68 velocity=0 time=0
EXTRACT: note_on channel=10 note=68 velocity=0 time=0
EXTRACT: note_on channel=9 note=54 velocity=127 time=0.0070093375
EXTRACT: note_on channel=9 note=36 velocity=127 time=0
EXTRACT: note_on channel=9 note=42 velocity=127 time=0
EXTRACT: note_on channel=10 note=67 velocity=127 time=0
EXTRACT: note_on channel=11 note=60 velocity=127 time=0
EXTRACT: note_on channel=11 note=63 velocity=127 time=0
EXTRACT: note_on channel=11 note=67 velocity=127 time=0
EXTRACT: note_on channel=12 note=47 velocity=127 time=0
EXTRACT: note_on channel=13 note=60 velocity=127 time=0
EXTRACT: note_on channel=13 note=63 velocity=127 time=0
EXTRACT: note_on channel=13 note=67 velocity=127 time=0
EXTRACT: note_on channel=14 note=47 velocity=127 time=0
EXTRACT: note_on channel=10 note=67 velocity=127 time=0
EXTRACT: note_on channel=10 note=67 velocity=127 time=0
EXTRACT: note_on channel=9 note=54 velocity=0 time=0.1331774125
EXTRACT: note_on channel=9 note=36 velocity=0 time=0
EXTRACT: note_on channel=9 note=42 velocity=0 time=0
EXTRACT: note_on channel=9 note=54 velocity=127 time=0.0070093375
EXTRACT: note_on channel=9 note=56 velocity=127 time=0
EXTRACT: note_on channel=9 note=42 velocity=127 time=0
EXTRACT: note_on channel=9 note=54 velocity=0 time=0.1331774125
EXTRACT: note_on channel=9 note=56 velocity=0 time=0
EXTRACT: note_on channel=9 note=42 velocity=0 time=0
EXTRACT: note_on channel=12 note=47 velocity=0 time=0
EXTRACT: note_on channel=14 note=47 velocity=0 time=0
EXTRACT: note_on channel=9 note=54 velocity=127 time=0.0070093375
EXTRACT: note_on channel=9 note=42 velocity=127 time=0
EXTRACT: note_on channel=12 note=48 velocity=127 time=0
EXTRACT: note_on channel=14 note=48 velocity=127 time=0
EXTRACT: note_on channel=9 note=54 velocity=0 time=0.1331774125
EXTRACT: note_on channel=9 note=42 velocity=0 time=0
EXTRACT: note_on channel=9 note=46 velocity=127 time=0.0070093375
EXTRACT: note_on channel=9 note=54 velocity=127 time=0
EXTRACT: note_on channel=9 note=56 velocity=127 time=0
EXTRACT: note_on channel=9 note=36 velocity=127 time=0
EXTRACT: note_on channel=10 note=67 velocity=0 time=0
EXTRACT: note_on channel=10 note=65 velocity=127 time=0
EXTRACT: note_on channel=10 note=67 velocity=0 time=0
EXTRACT: note_on channel=10 note=65 velocity=127 time=0
EXTRACT: note_on channel=10 note=67 velocity=0 time=0
EXTRACT: note_on channel=10 note=65 velocity=127 time=0
EXTRACT: note_on channel=9 note=46 velocity=0 time=0.1331774125
EXTRACT: note_on channel=9 note=54 velocity=0 time=0
EXTRACT: note_on channel=9 note=56 velocity=0 time=0
EXTRACT: note_on channel=9 note=36 velocity=0 time=0
EXTRACT: note_on channel=12 note=48 velocity=0 time=0
EXTRACT: note_on channel=14 note=48 velocity=0 time=0
EXTRACT: note_on channel=9 note=54 velocity=127 time=0.0070093375
EXTRACT: note_on channel=9 note=56 velocity=127 time=0
EXTRACT: note_on channel=9 note=36 velocity=127 time=0
EXTRACT: note_on channel=9 note=42 velocity=127 time=0
EXTRACT: note_on channel=10 note=65 velocity=0 time=0
EXTRACT: note_on channel=10 note=63 velocity=127 time=0
EXTRACT: note_on channel=12 note=48 velocity=127 time=0
EXTRACT: note_on channel=14 note=48 velocity=127 time=0
EXTRACT: note_on channel=10 note=65 velocity=0 time=0
EXTRACT: note_on channel=10 note=63 velocity=127 time=0
EXTRACT: note_on channel=10 note=65 velocity=0 time=0
EXTRACT: note_on channel=10 note=63 velocity=127 time=0
EXTRACT: note_on channel=9 note=54 velocity=0 time=0.1331774125
EXTRACT: note_on channel=9 note=56 velocity=0 time=0
EXTRACT: note_on channel=9 note=36 velocity=0 time=0
EXTRACT: note_on channel=9 note=42 velocity=0 time=0
EXTRACT: note_on channel=9 note=56 velocity=127 time=0.0070093375
EXTRACT: note_on channel=9 note=36 velocity=127 time=0
EXTRACT: note_on channel=9 note=42 velocity=127 time=0
EXTRACT: note_on channel=9 note=56 velocity=0 time=0.1331774125
EXTRACT: note_on channel=9 note=36 velocity=0 time=0
EXTRACT: note_on channel=9 note=42 velocity=0 time=0
EXTRACT: note_on channel=10 note=63 velocity=0 time=0
EXTRACT: note_on channel=10 note=63 velocity=0 time=0
EXTRACT: note_on channel=10 note=63 velocity=0 time=0
EXTRACT: note_on channel=9 note=46 velocity=127 time=0.0070093375
EXTRACT: note_on channel=9 note=54 velocity=127 time=0
EXTRACT: note_on channel=9 note=56 velocity=127 time=0
EXTRACT: note_on channel=9 note=39 velocity=127 time=0
EXTRACT: note_on channel=9 note=46 velocity=0 time=0.1331774125
EXTRACT: note_on channel=9 note=54 velocity=0 time=0
EXTRACT: note_on channel=9 note=56 velocity=0 time=0
EXTRACT: note_on channel=9 note=39 velocity=0 time=0
EXTRACT: note_on channel=9 note=54 velocity=127 time=0.0070093375
EXTRACT: note_on channel=9 note=42 velocity=127 time=0
EXTRACT: note_on channel=9 note=54 velocity=0 time=0.1331774125
EXTRACT: note_on channel=9 note=42 velocity=0 time=0
EXTRACT: note_on channel=9 note=54 velocity=127 time=0.0070093375
EXTRACT: note_on channel=9 note=56 velocity=127 time=0
EXTRACT: note_on channel=9 note=36 velocity=127 time=0
EXTRACT: note_on channel=9 note=42 velocity=127 time=0
EXTRACT: note_on channel=9 note=54 velocity=0 time=0.1331774125
EXTRACT: note_on channel=9 note=56 velocity=0 time=0
EXTRACT: note_on channel=9 note=36 velocity=0 time=0
EXTRACT: note_on channel=9 note=42 velocity=0 time=0
EXTRACT: note_on channel=9 note=54 velocity=127 time=0.0070093375
EXTRACT: note_on channel=9 note=42 velocity=127 time=0
EXTRACT: note_on channel=11 note=60 velocity=0 time=0
EXTRACT: note_on channel=11 note=63 velocity=0 time=0
EXTRACT: note_on channel=11 note=67 velocity=0 time=0
EXTRACT: note_on channel=13 note=60 velocity=0 time=0
EXTRACT: note_on channel=13 note=63 velocity=0 time=0
EXTRACT: note_on channel=13 note=67 velocity=0 time=0
EXTRACT: note_on channel=12 note=48 velocity=0 time=0.04672891666666666
EXTRACT: note_on channel=14 note=48 velocity=0 time=0
EXTRACT: note_on channel=9 note=54 velocity=0 time=0.08644849583333333
EXTRACT: note_on channel=9 note=42 velocity=0 time=0
EXTRACT: note_on channel=9 note=46 velocity=127 time=0
EXTRACT: note_on channel=9 note=54 velocity=127 time=0
EXTRACT: note_on channel=9 note=56 velocity=127 time=0
EXTRACT: note_on channel=9 note=36 velocity=127 time=0
EXTRACT: note_on channel=10 note=60 velocity=127 time=0
EXTRACT: note_on channel=11 note=60 velocity=127 time=0
EXTRACT: note_on channel=11 note=63 velocity=127 time=0
EXTRACT: note_on channel=11 note=67 velocity=127 time=0
EXTRACT: note_on channel=12 note=48 velocity=127 time=0
EXTRACT: note_on channel=13 note=60 velocity=127 time=0
EXTRACT: note_on channel=13 note=63 velocity=127 time=0
EXTRACT: note_on channel=13 note=67 velocity=127 time=0
EXTRACT: note_on channel=14 note=48 velocity=127 time=0
EXTRACT: note_on channel=10 note=60 velocity=127 time=0
EXTRACT: note_on channel=10 note=60 velocity=127 time=0
EXTRACT: note_on channel=9 note=46 velocity=0 time=0.1319443125
EXTRACT: note_on channel=9 note=54 velocity=0 time=0
EXTRACT: note_on channel=9 note=56 velocity=0 time=0
EXTRACT: note_on channel=9 note=36 velocity=0 time=0
EXTRACT: note_on channel=9 note=54 velocity=127 time=0.0069444375
EXTRACT: note_on channel=9 note=42 velocity=127 time=0
EXTRACT: note_on channel=9 note=54 velocity=0 time=0.1319443125
EXTRACT: note_on channel=10 note=60 velocity=0 time=0
EXTRACT: note_on channel=10 note=60 velocity=0 time=0
EXTRACT: note_on channel=10 note=60 velocity=0 time=0
EXTRACT: note_on channel=9 note=46 velocity=127 time=0.0069444375
EXTRACT: note_on channel=9 note=54 velocity=127 time=0
EXTRACT: note_on channel=9 note=56 velocity=127 time=0
EXTRACT: note_on channel=10 note=60 velocity=127 time=0
EXTRACT: note_on channel=10 note=60 velocity=127 time=0
EXTRACT: note_on channel=10 note=60 velocity=127 time=0
EXTRACT: note_on channel=9 note=46 velocity=0 time=0.1319443125
EXTRACT: note_on channel=9 note=54 velocity=0 time=0
EXTRACT: note_on channel=9 note=56 velocity=0 time=0
EXTRACT: note_on channel=9 note=42 velocity=0 time=0
EXTRACT: note_on channel=11 note=60 velocity=0 time=0
EXTRACT: note_on channel=11 note=63 velocity=0 time=0
EXTRACT: note_on channel=11 note=67 velocity=0 time=0
EXTRACT: note_on channel=13 note=60 velocity=0 time=0
EXTRACT: note_on channel=13 note=63 velocity=0 time=0
EXTRACT: note_on channel=13 note=67 velocity=0 time=0
EXTRACT: note_on channel=9 note=54 velocity=127 time=0.0069444375
EXTRACT: note_on channel=9 note=42 velocity=127 time=0
EXTRACT: note_on channel=11 note=60 velocity=127 time=0
EXTRACT: note_on channel=11 note=63 velocity=127 time=0
EXTRACT: note_on channel=11 note=67 velocity=127 time=0
EXTRACT: note_on channel=13 note=60 velocity=127 time=0
EXTRACT: note_on channel=13 note=63 velocity=127 time=0
EXTRACT: note_on channel=13 note=67 velocity=127 time=0
EXTRACT: note_on channel=12 note=48 velocity=0 time=0.04629625
EXTRACT: note_on channel=14 note=48 velocity=0 time=0
EXTRACT: note_on channel=9 note=54 velocity=0 time=0.0856480625
EXTRACT: note_on channel=9 note=42 velocity=0 time=0
EXTRACT: note_on channel=10 note=60 velocity=0 time=0
EXTRACT: note_on channel=10 note=60 velocity=0 time=0
EXTRACT: note_on channel=10 note=60 velocity=0 time=0
EXTRACT: note_on channel=9 note=54 velocity=127 time=0.0069444375
EXTRACT: note_on channel=9 note=56 velocity=127 time=0
EXTRACT: note_on channel=9 note=39 velocity=127 time=0
EXTRACT: note_on channel=9 note=42 velocity=127 time=0
EXTRACT: note_on channel=10 note=63 velocity=127 time=0
EXTRACT: note_on channel=12 note=48 velocity=127 time=0
EXTRACT: note_on channel=14 note=48 velocity=127 time=0
EXTRACT: note_on channel=10 note=63 velocity=127 time=0
EXTRACT: note_on channel=10 note=63 velocity=127 time=0
EXTRACT: note_on channel=9 note=39 velocity=0 time=0.1319443125
EXTRACT: note_on channel=9 note=42 velocity=0 time=0
EXTRACT: note_on channel=9 note=42 velocity=127 time=0.0069444375
EXTRACT: note_on channel=9 note=54 velocity=0 time=0.1319443125
EXTRACT: note_on channel=9 note=56 velocity=0 time=0
EXTRACT: note_on channel=9 note=42 velocity=0 time=0
EXTRACT: note_on channel=10 note=63 velocity=0 time=0
EXTRACT: note_on channel=11 note=60 velocity=0 time=0
EXTRACT: note_on channel=11 note=63 velocity=0 time=0
EXTRACT: note_on channel=11 note=67 velocity=0 time=0
EXTRACT: note_on channel=12 note=48 velocity=0 time=0
EXTRACT: note_on channel=13 note=60 velocity=0 time=0
EXTRACT: note_on channel=13 note=63 velocity=0 time=0
EXTRACT: note_on channel=13 note=67 velocity=0 time=0
EXTRACT: note_on channel=14 note=48 velocity=0 time=0
EXTRACT: note_on channel=10 note=63 velocity=0 time=0
EXTRACT: note_on channel=10 note=63 velocity=0 time=0
EXTRACT: note_on channel=9 note=54 velocity=127 time=0.0069444375
EXTRACT: note_on channel=9 note=36 velocity=127 time=0
EXTRACT: note_on channel=9 note=42 velocity=127 time=0
EXTRACT: note_on channel=10 note=63 velocity=127 time=0
EXTRACT: note_on channel=11 note=60 velocity=127 time=0
EXTRACT: note_on channel=11 note=63 velocity=127 time=0
EXTRACT: note_on channel=11 note=68 velocity=127 time=0
EXTRACT: note_on channel=12 note=43 velocity=127 time=0
EXTRACT: note_on channel=13 note=60 velocity=127 time=0
EXTRACT: note_on channel=13 note=63 velocity=127 time=0
EXTRACT: note_on channel=13 note=68 velocity=127 time=0
EXTRACT: note_on channel=14 note=43 velocity=127 time=0
EXTRACT: note_on channel=10 note=63 velocity=127 time=0
EXTRACT: note_on channel=10 note=63 velocity=127 time=0
EXTRACT: note_on channel=9 note=54 velocity=0 time=0.1319443125
EXTRACT: note_on channel=9 note=36 velocity=0 time=0
EXTRACT: note_on channel=9 note=42 velocity=0 time=0
EXTRACT: note_on channel=9 note=54 velocity=127 time=0.0069444375
EXTRACT: note_on channel=9 note=56 velocity=127 time=0
EXTRACT: note_on channel=9 note=42 velocity=127 time=0
EXTRACT: note_on channel=9 note=54 velocity=0 time=0.1319443125
EXTRACT: note_on channel=9 note=56 velocity=0 time=0
EXTRACT: note_on channel=9 note=42 velocity=0 time=0
EXTRACT: note_on channel=10 note=63 velocity=0 time=0
EXTRACT: note_on channel=12 note=43 velocity=0 time=0
EXTRACT: note_on channel=14 note=43 velocity=0 time=0
EXTRACT: note_on channel=10 note=63 velocity=0 time=0
EXTRACT: note_on channel=10 note=63 velocity=0 time=0
EXTRACT: note_on channel=9 note=54 velocity=127 time=0.0069444375
EXTRACT: note_on channel=9 note=42 velocity=127 time=0
EXTRACT: note_on channel=10 note=65 velocity=127 time=0
EXTRACT: note_on channel=12 note=44 velocity=127 time=0
EXTRACT: note_on channel=14 note=44 velocity=127 time=0
EXTRACT: note_on channel=10 note=65 velocity=127 time=0
EXTRACT: note_on channel=10 note=65 velocity=127 time=0
EXTRACT: note_on channel=9 note=54 velocity=0 time=0.1319443125
EXTRACT: note_on channel=9 note=42 velocity=0 time=0
EXTRACT: note_on channel=9 note=46 velocity=127 time=0.0069444375
EXTRACT: note_on channel=9 note=54 velocity=127 time=0
EXTRACT: note_on channel=9 note=56 velocity=127 time=0
EXTRACT: note_on channel=9 note=36 velocity=127 time=0
EXTRACT: note_on channel=9 note=46 velocity=0 time=0.1319443125
EXTRACT: note_on channel=9 note=54 velocity=0 time=0
EXTRACT: note_on channel=9 note=56 velocity=0 time=0
EXTRACT: note_on channel=9 note=36 velocity=0 time=0
EXTRACT: note_on channel=10 note=65 velocity=0 time=0
EXTRACT: note_on channel=12 note=44 velocity=0 time=0
EXTRACT: note_on channel=14 note=44 velocity=0 time=0
EXTRACT: note_on channel=10 note=65 velocity=0 time=0
EXTRACT: note_on channel=10 note=65 velocity=0 time=0
EXTRACT: note_on channel=9 note=54 velocity=127 time=0.0069444375
EXTRACT: note_on channel=9 note=56 velocity=127 time=0
EXTRACT: note_on channel=9 note=36 velocity=127 time=0
EXTRACT: note_on channel=9 note=42 velocity=127 time=0
EXTRACT: note_on channel=10 note=65 velocity=127 time=0
EXTRACT: note_on channel=12 note=44 velocity=127 time=0
EXTRACT: note_on channel=14 note=44 velocity=127 time=0
EXTRACT: note_on channel=10 note=65 velocity=127 time=0
EXTRACT: note_on channel=10 note=65 velocity=127 time=0
EXTRACT: note_on channel=9 note=54 velocity=0 time=0.1319443125
EXTRACT: note_on channel=9 note=56 velocity=0 time=0
EXTRACT: note_on channel=9 note=36 velocity=0 time=0
EXTRACT: note_on channel=9 note=42 velocity=0 time=0
EXTRACT: note_on channel=9 note=56 velocity=127 time=0.0069444375
EXTRACT: note_on channel=9 note=36 velocity=127 time=0
EXTRACT: note_on channel=9 note=42 velocity=127 time=0
EXTRACT: note_on channel=9 note=56 velocity=0 time=0.1319443125
EXTRACT: note_on channel=9 note=36 velocity=0 time=0
EXTRACT: note_on channel=9 note=42 velocity=0 time=0
EXTRACT: note_on channel=10 note=65 velocity=0 time=0
EXTRACT: note_on channel=10 note=65 velocity=0 time=0
EXTRACT: note_on channel=10 note=65 velocity=0 time=0
EXTRACT: note_on channel=9 note=46 velocity=127 time=0.0069444375
EXTRACT: note_on channel=9 note=54 velocity=127 time=0
EXTRACT: note_on channel=9 note=56 velocity=127 time=0
EXTRACT: note_on channel=9 note=39 velocity=127 time=0
EXTRACT: note_on channel=10 note=67 velocity=127 time=0
EXTRACT: note_on channel=10 note=67 velocity=127 time=0
EXTRACT: note_on channel=10 note=67 velocity=127 time=0
EXTRACT: note_on channel=9 note=46 velocity=0 time=0.1319443125
EXTRACT: note_on channel=9 note=54 velocity=0 time=0
EXTRACT: note_on channel=9 note=56 velocity=0 time=0
EXTRACT: note_on channel=9 note=39 velocity=0 time=0
EXTRACT: note_on channel=9 note=54 velocity=127 time=0.0069444375
EXTRACT: note_on channel=9 note=42 velocity=127 time=0
EXTRACT: note_on channel=9 note=54 velocity=0 time=0.1319443125
EXTRACT: note_on channel=9 note=42 velocity=0 time=0
EXTRACT: note_on channel=10 note=67 velocity=0 time=0
EXTRACT: note_on channel=10 note=67 velocity=0 time=0
EXTRACT: note_on channel=10 note=67 velocity=0 time=0
EXTRACT: note_on channel=9 note=54 velocity=127 time=0.0069444375
EXTRACT: note_on channel=9 note=56 velocity=127 time=0
EXTRACT: note_on channel=9 note=36 velocity=127 time=0
EXTRACT: note_on channel=9 note=42 velocity=127 time=0
EXTRACT: note_on channel=10 note=67 velocity=127 time=0
EXTRACT: note_on channel=10 note=67 velocity=127 time=0
EXTRACT: note_on channel=10 note=67 velocity=127 time=0
EXTRACT: note_on channel=9 note=54 velocity=0 time=0.1319443125
EXTRACT: note_on channel=9 note=56 velocity=0 time=0
EXTRACT: note_on channel=9 note=36 velocity=0 time=0
EXTRACT: note_on channel=9 note=42 velocity=0 time=0
EXTRACT: note_on channel=9 note=54 velocity=127 time=0.0069444375
EXTRACT: note_on channel=9 note=42 velocity=127 time=0
EXTRACT: note_on channel=11 note=60 velocity=0 time=0
EXTRACT: note_on channel=11 note=63 velocity=0 time=0
EXTRACT: note_on channel=11 note=68 velocity=0 time=0
EXTRACT: note_on channel=13 note=60 velocity=0 time=0
EXTRACT: note_on channel=13 note=63 velocity=0 time=0
EXTRACT: note_on channel=13 note=68 velocity=0 time=0
EXTRACT: note_on channel=12 note=44 velocity=0 time=0.04629625
EXTRACT: note_on channel=14 note=44 velocity=0 time=0
EXTRACT: note_on channel=9 note=54 velocity=0 time=0.0856480625
EXTRACT: note_on channel=9 note=42 velocity=0 time=0
EXTRACT: note_on channel=10 note=67 velocity=0 time=0
EXTRACT: note_on channel=10 note=67 velocity=0 time=0
EXTRACT: note_on channel=10 note=67 velocity=0 time=0
EXTRACT: note_on channel=9 note=46 velocity=127 time=0
EXTRACT: note_on channel=9 note=54 velocity=127 time=0
EXTRACT: note_on channel=9 note=56 velocity=127 time=0
EXTRACT: note_on channel=9 note=36 velocity=127 time=0
EXTRACT: note_on channel=10 note=70 velocity=127 time=0
EXTRACT: note_on channel=11 note=59 velocity=127 time=0
EXTRACT: note_on channel=11 note=62 velocity=127 time=0
EXTRACT: note_on channel=11 note=67 velocity=127 time=0
EXTRACT: note_on channel=12 note=43 velocity=127 time=0
EXTRACT: note_on channel=13 note=59 velocity=127 time=0
EXTRACT: note_on channel=13 note=62 velocity=127 time=0
EXTRACT: note_on channel=13 note=67 velocity=127 time=0
EXTRACT: note_on channel=14 note=43 velocity=127 time=0
EXTRACT: note_on channel=10 note=70 velocity=127 time=0
EXTRACT: note_on channel=10 note=70 velocity=127 time=0
EXTRACT: note_on channel=9 note=46 velocity=0 time=0.1319443125
EXTRACT: note_on channel=9 note=54 velocity=0 time=0
EXTRACT: note_on channel=9 note=56 velocity=0 time=0
EXTRACT: note_on channel=9 note=36 velocity=0 time=0
EXTRACT: note_on channel=9 note=54 velocity=127 time=0.0069444375
EXTRACT: note_on channel=9 note=42 velocity=127 time=0
EXTRACT: note_on channel=9 note=54 velocity=0 time=0.1319443125
EXTRACT: note_on channel=9 note=46 velocity=127 time=0.0069444375
EXTRACT: note_on channel=9 note=54 velocity=127 time=0
EXTRACT: note_on channel=9 note=56 velocity=127 time=0
EXTRACT: note_on channel=9 note=46 velocity=0 time=0.1319443125
EXTRACT: note_on channel=9 note=54 velocity=0 time=0
EXTRACT: note_on channel=9 note=56 velocity=0 time=0
EXTRACT: note_on channel=9 note=42 velocity=0 time=0
EXTRACT: note_on channel=10 note=70 velocity=0 time=0
EXTRACT: note_on channel=11 note=59 velocity=0 time=0
EXTRACT: note_on channel=11 note=62 velocity=0 time=0
EXTRACT: note_on channel=11 note=67 velocity=0 time=0
EXTRACT: note_on channel=13 note=59 velocity=0 time=0
EXTRACT: note_on channel=13 note=62 velocity=0 time=0
EXTRACT: note_on channel=13 note=67 velocity=0 time=0
EXTRACT: note_on channel=10 note=70 velocity=0 time=0
EXTRACT: note_on channel=10 note=70 velocity=0 time=0
EXTRACT: note_on channel=9 note=54 velocity=127 time=0.0069444375
EXTRACT: note_on channel=9 note=42 velocity=127 time=0
EXTRACT: note_on channel=10 note=72 velocity=127 time=0
EXTRACT: note_on channel=11 note=59 velocity=127 time=0
EXTRACT: note_on channel=11 note=62 velocity=127 time=0
EXTRACT: note_on channel=11 note=67 velocity=127 time=0
EXTRACT: note_on channel=13 note=59 velocity=127 time=0
EXTRACT: note_on channel=13 note=62 velocity=127 time=0
EXTRACT: note_on channel=13 note=67 velocity=127 time=0
EXTRACT: note_on channel=10 note=72 velocity=127 time=0
EXTRACT: note_on channel=10 note=72 velocity=127 time=0
EXTRACT: note_on channel=12 note=43 velocity=0 time=0.04629625
EXTRACT: note_on channel=14 note=43 velocity=0 time=0
EXTRACT: note_on channel=9 note=54 velocity=0 time=0.0856480625
EXTRACT: note_on channel=9 note=42 velocity=0 time=0
EXTRACT: note_on channel=9 note=54 velocity=127 time=0.0069444375
EXTRACT: note_on channel=9 note=56 velocity=127 time=0
EXTRACT: note_on channel=9 note=39 velocity=127 time=0
EXTRACT: note_on channel=9 note=42 velocity=127 time=0
EXTRACT: note_on channel=12 note=43 velocity=127 time=0
EXTRACT: note_on channel=14 note=43 velocity=127 time=0
EXTRACT: note_on channel=9 note=39 velocity=0 time=0.1319443125
EXTRACT: note_on channel=9 note=42 velocity=0 time=0
EXTRACT: note_on channel=9 note=42 velocity=127 time=0.0069444375
EXTRACT: note_on channel=9 note=54 velocity=0 time=0.1319443125
EXTRACT: note_on channel=9 note=56 velocity=0 time=0
EXTRACT: note_on channel=9 note=42 velocity=0 time=0
EXTRACT: note_on channel=10 note=72 velocity=0 time=0
EXTRACT: note_on channel=11 note=59 velocity=0 time=0
EXTRACT: note_on channel=11 note=62 velocity=0 time=0
EXTRACT: note_on channel=11 note=67 velocity=0 time=0
EXTRACT: note_on channel=12 note=43 velocity=0 time=0
EXTRACT: note_on channel=13 note=59 velocity=0 time=0
EXTRACT: note_on channel=13 note=62 velocity=0 time=0
EXTRACT: note_on channel=13 note=67 velocity=0 time=0
EXTRACT: note_on channel=14 note=43 velocity=0 time=0
EXTRACT: note_on channel=10 note=72 velocity=0 time=0
EXTRACT: note_on channel=10 note=72 velocity=0 time=0
EXTRACT: note_on channel=9 note=54 velocity=127 time=0.0069444375
EXTRACT: note_on channel=9 note=36 velocity=127 time=0
EXTRACT: note_on channel=9 note=42 velocity=127 time=0
EXTRACT: note_on channel=10 note=72 velocity=127 time=0
EXTRACT: note_on channel=11 note=60 velocity=127 time=0
EXTRACT: note_on channel=11 note=63 velocity=127 time=0
EXTRACT: note_on channel=11 note=67 velocity=127 time=0
EXTRACT: note_on channel=12 note=47 velocity=127 time=0
EXTRACT: note_on channel=13 note=60 velocity=127 time=0
EXTRACT: note_on channel=13 note=63 velocity=127 time=0
EXTRACT: note_on channel=13 note=67 velocity=127 time=0
EXTRACT: note_on channel=14 note=47 velocity=127 time=0
EXTRACT: note_on channel=10 note=72 velocity=127 time=0
EXTRACT: note_on channel=10 note=72 velocity=127 time=0
EXTRACT: note_on channel=9 note=54 velocity=0 time=0.1319443125
EXTRACT: note_on channel=9 note=36 velocity=0 time=0
EXTRACT: note_on channel=9 note=42 velocity=0 time=0
EXTRACT: note_on channel=9 note=54 velocity=127 time=0.0069444375
EXTRACT: note_on channel=9 note=56 velocity=127 time=0
EXTRACT: note_on channel=9 note=42 velocity=127 time=0
EXTRACT: note_on channel=9 note=54 velocity=0 time=0.1319443125
EXTRACT: note_on channel=9 note=56 velocity=0 time=0
EXTRACT: note_on channel=9 note=42 velocity=0 time=0
EXTRACT: note_on channel=12 note=47 velocity=0 time=0
EXTRACT: note_on channel=14 note=47 velocity=0 time=0
EXTRACT: note_on channel=9 note=54 velocity=127 time=0.0069444375
EXTRACT: note_on channel=9 note=42 velocity=127 time=0
EXTRACT: note_on channel=12 note=48 velocity=127 time=0
EXTRACT: note_on channel=14 note=48 velocity=127 time=0
EXTRACT: note_on channel=9 note=54 velocity=0 time=0.1319443125
EXTRACT: note_on channel=9 note=42 velocity=0 time=0
EXTRACT: note_on channel=9 note=46 velocity=127 time=0.0069444375
EXTRACT: note_on channel=9 note=54 velocity=127 time=0
EXTRACT: note_on channel=9 note=56 velocity=127 time=0
EXTRACT: note_on channel=9 note=36 velocity=127 time=0
EXTRACT: note_on channel=9 note=46 velocity=0 time=0.1319443125
EXTRACT: note_on channel=9 note=54 velocity=0 time=0
EXTRACT: note_on channel=9 note=56 velocity=0 time=0
EXTRACT: note_on channel=9 note=36 velocity=0 time=0
EXTRACT: note_on channel=10 note=72 velocity=0 time=0
EXTRACT: note_on channel=12 note=48 velocity=0 time=0
EXTRACT: note_on channel=14 note=48 velocity=0 time=0
EXTRACT: note_on channel=10 note=72 velocity=0 time=0
EXTRACT: note_on channel=10 note=72 velocity=0 time=0
EXTRACT: note_on channel=9 note=54 velocity=127 time=0.0069444375
EXTRACT: note_on channel=9 note=56 velocity=127 time=0
EXTRACT: note_on channel=9 note=36 velocity=127 time=0
EXTRACT: note_on channel=9 note=42 velocity=127 time=0
EXTRACT: note_on channel=10 note=60 velocity=127 time=0
EXTRACT: note_on channel=12 note=48 velocity=127 time=0
EXTRACT: note_on channel=14 note=48 velocity=127 time=0
EXTRACT: note_on channel=10 note=60 velocity=127 time=0
EXTRACT: note_on channel=10 note=60 velocity=127 time=0
EXTRACT: note_on channel=9 note=54 velocity=0 time=0.1319443125
EXTRACT: note_on channel=9 note=56 velocity=0 time=0
EXTRACT: note_on channel=9 note=36 velocity=0 time=0
EXTRACT: note_on channel=9 note=42 velocity=0 time=0
EXTRACT: note_on channel=9 note=56 velocity=127 time=0.0069444375
EXTRACT: note_on channel=9 note=36 velocity=127 time=0
EXTRACT: note_on channel=9 note=42 velocity=127 time=0
EXTRACT: note_on channel=9 note=56 velocity=0 time=0.1319443125
EXTRACT: note_on channel=9 note=36 velocity=0 time=0
EXTRACT: note_on channel=9 note=42 velocity=0 time=0
EXTRACT: note_on channel=10 note=60 velocity=0 time=0
EXTRACT: note_on channel=10 note=60 velocity=0 time=0
EXTRACT: note_on channel=10 note=60 velocity=0 time=0
EXTRACT: note_on channel=9 note=46 velocity=127 time=0.0069444375
EXTRACT: note_on channel=9 note=54 velocity=127 time=0
EXTRACT: note_on channel=9 note=56 velocity=127 time=0
EXTRACT: note_on channel=9 note=39 velocity=127 time=0
EXTRACT: note_on channel=10 note=63 velocity=127 time=0
EXTRACT: note_on channel=10 note=63 velocity=127 time=0
EXTRACT: note_on channel=10 note=63 velocity=127 time=0
EXTRACT: note_on channel=9 note=46 velocity=0 time=0.1319443125
EXTRACT: note_on channel=9 note=54 velocity=0 time=0
EXTRACT: note_on channel=9 note=56 velocity=0 time=0
EXTRACT: note_on channel=9 note=39 velocity=0 time=0
EXTRACT: note_on channel=9 note=54 velocity=127 time=0.0069444375
EXTRACT: note_on channel=9 note=42 velocity=127 time=0
EXTRACT: note_on channel=9 note=54 velocity=0 time=0.1319443125
EXTRACT: note_on channel=9 note=42 velocity=0 time=0
EXTRACT: note_on channel=10 note=63 velocity=0 time=0
EXTRACT: note_on channel=10 note=63 velocity=0 time=0
EXTRACT: note_on channel=10 note=63 velocity=0 time=0
EXTRACT: note_on channel=9 note=54 velocity=127 time=0.0069444375
EXTRACT: note_on channel=9 note=56 velocity=127 time=0
EXTRACT: note_on channel=9 note=36 velocity=127 time=0
EXTRACT: note_on channel=9 note=42 velocity=127 time=0
EXTRACT: note_on channel=10 note=65 velocity=127 time=0
EXTRACT: note_on channel=10 note=65 velocity=127 time=0
EXTRACT: note_on channel=10 note=65 velocity=127 time=0
EXTRACT: note_on channel=9 note=54 velocity=0 time=0.1319443125
EXTRACT: note_on channel=9 note=56 velocity=0 time=0
EXTRACT: note_on channel=9 note=36 velocity=0 time=0
EXTRACT: note_on channel=9 note=42 velocity=0 time=0
EXTRACT: note_on channel=9 note=54 velocity=127 time=0.0069444375
EXTRACT: note_on channel=9 note=42 velocity=127 time=0
EXTRACT: note_on channel=11 note=60 velocity=0 time=0
EXTRACT: note_on channel=11 note=63 velocity=0 time=0
EXTRACT: note_on channel=11 note=67 velocity=0 time=0
EXTRACT: note_on channel=13 note=60 velocity=0 time=0
EXTRACT: note_on channel=13 note=63 velocity=0 time=0
EXTRACT: note_on channel=13 note=67 velocity=0 time=0
EXTRACT: note_on channel=12 note=48 velocity=0 time=0.04629625
EXTRACT: note_on channel=14 note=48 velocity=0 time=0
EXTRACT: note_on channel=9 note=54 velocity=0 time=0.0856480625
EXTRACT: note_on channel=9 note=42 velocity=0 time=0
EXTRACT: note_on channel=10 note=65 velocity=0 time=0
EXTRACT: note_on channel=10 note=65 velocity=0 time=0
EXTRACT: note_on channel=10 note=65 velocity=0 time=0
EXTRACT: note_on channel=9 note=46 velocity=127 time=0
EXTRACT: note_on channel=9 note=54 velocity=127 time=0
EXTRACT: note_on channel=9 note=56 velocity=127 time=0
EXTRACT: note_on channel=9 note=36 velocity=127 time=0
EXTRACT: note_on channel=10 note=67 velocity=127 time=0
EXTRACT: note_on channel=11 note=60 velocity=127 time=0
EXTRACT: note_on channel=11 note=63 velocity=127 time=0
EXTRACT: note_on channel=11 note=67 velocity=127 time=0
EXTRACT: note_on channel=12 note=48 velocity=127 time=0
EXTRACT: note_on channel=13 note=60 velocity=127 time=0
EXTRACT: note_on channel=13 note=63 velocity=127 time=0
EXTRACT: note_on channel=13 note=67 velocity=127 time=0
EXTRACT: note_on channel=14 note=48 velocity=127 time=0
EXTRACT: note_on channel=10 note=67 velocity=127 time=0
EXTRACT: note_on channel=10 note=67 velocity=127 time=0
EXTRACT: note_on channel=9 note=46 velocity=0 time=0.1319443125
EXTRACT: note_on channel=9 note=54 velocity=0 time=0
EXTRACT: note_on channel=9 note=56 velocity=0 time=0
EXTRACT: note_on channel=9 note=36 velocity=0 time=0
EXTRACT: note_on channel=9 note=54 velocity=127 time=0.0069444375
EXTRACT: note_on channel=9 note=42 velocity=127 time=0
EXTRACT: note_on channel=9 note=54 velocity=0 time=0.1319443125
EXTRACT: note_on channel=9 note=46 velocity=127 time=0.0069444375
EXTRACT: note_on channel=9 note=54 velocity=127 time=0
EXTRACT: note_on channel=9 note=56 velocity=127 time=0
EXTRACT: note_on channel=9 note=46 velocity=0 time=0.1319443125
EXTRACT: note_on channel=9 note=54 velocity=0 time=0
EXTRACT: note_on channel=9 note=56 velocity=0 time=0
EXTRACT: note_on channel=9 note=42 velocity=0 time=0
EXTRACT: note_on channel=11 note=60 velocity=0 time=0
EXTRACT: note_on channel=11 note=63 velocity=0 time=0
EXTRACT: note_on channel=11 note=67 velocity=0 time=0
EXTRACT: note_on channel=13 note=60 velocity=0 time=0
EXTRACT: note_on channel=13 note=63 velocity=0 time=0
EXTRACT: note_on channel=13 note=67 velocity=0 time=0
EXTRACT: note_on channel=9 note=54 velocity=127 time=0.0069444375
EXTRACT: note_on channel=9 note=42 velocity=127 time=0
EXTRACT: note_on channel=11 note=60 velocity=127 time=0
EXTRACT: note_on channel=11 note=63 velocity=127 time=0
EXTRACT: note_on channel=11 note=67 velocity=127 time=0
EXTRACT: note_on channel=13 note=60 velocity=127 time=0
EXTRACT: note_on channel=13 note=63 velocity=127 time=0
EXTRACT: note_on channel=13 note=67 velocity=127 time=0
EXTRACT: note_on channel=12 note=48 velocity=0 time=0.04629625
EXTRACT: note_on channel=14 note=48 velocity=0 time=0
EXTRACT: note_on channel=9 note=54 velocity=0 time=0.0856480625
EXTRACT: note_on channel=9 note=42 velocity=0 time=0
EXTRACT: note_on channel=9 note=54 velocity=127 time=0.0069444375
EXTRACT: note_on channel=9 note=56 velocity=127 time=0
EXTRACT: note_on channel=9 note=39 velocity=127 time=0
EXTRACT: note_on channel=9 note=42 velocity=127 time=0
EXTRACT: note_on channel=12 note=48 velocity=127 time=0
EXTRACT: note_on channel=14 note=48 velocity=127 time=0
EXTRACT: note_on channel=9 note=39 velocity=0 time=0.1319443125
EXTRACT: note_on channel=9 note=42 velocity=0 time=0
EXTRACT: note_on channel=9 note=42 velocity=127 time=0.0069444375
EXTRACT: note_on channel=10 note=67 velocity=0 time=0.04629625
EXTRACT: note_on channel=10 note=67 velocity=0 time=0
EXTRACT: note_on channel=10 note=67 velocity=0 time=0
EXTRACT: note_on channel=9 note=54 velocity=0 time=0.0856480625
EXTRACT: note_on channel=9 note=56 velocity=0 time=0
EXTRACT: note_on channel=9 note=42 velocity=0 time=0
EXTRACT: note_on channel=11 note=60 velocity=0 time=0
EXTRACT: note_on channel=11 note=63 velocity=0 time=0
EXTRACT: note_on channel=11 note=67 velocity=0 time=0
EXTRACT: note_on channel=12 note=48 velocity=0 time=0
EXTRACT: note_on channel=13 note=60 velocity=0 time=0
EXTRACT: note_on channel=13 note=63 velocity=0 time=0
EXTRACT: note_on channel=13 note=67 velocity=0 time=0
EXTRACT: note_on channel=14 note=48 velocity=0 time=0
EXTRACT: note_on channel=9 note=54 velocity=127 time=0.0069444375
EXTRACT: note_on channel=9 note=36 velocity=127 time=0
EXTRACT: note_on channel=9 note=42 velocity=127 time=0
EXTRACT: note_on channel=10 note=68 velocity=127 time=0
EXTRACT: note_on channel=11 note=60 velocity=127 time=0
EXTRACT: note_on channel=11 note=63 velocity=127 time=0
EXTRACT: note_on channel=11 note=68 velocity=127 time=0
EXTRACT: note_on channel=12 note=43 velocity=127 time=0
EXTRACT: note_on channel=13 note=60 velocity=127 time=0
EXTRACT: note_on channel=13 note=63 velocity=127 time=0
EXTRACT: note_on channel=13 note=68 velocity=127 time=0
EXTRACT: note_on channel=14 note=43 velocity=127 time=0
EXTRACT: note_on channel=10 note=68 velocity=127 time=0
EXTRACT: note_on channel=10 note=68 velocity=127 time=0
EXTRACT: note_on channel=9 note=54 velocity=0 time=0.1319443125
EXTRACT: note_on channel=9 note=36 velocity=0 time=0
EXTRACT: note_on channel=9 note=42 velocity=0 time=0
EXTRACT: note_on channel=9 note=54 velocity=127 time=0.0069444375
EXTRACT: note_on channel=9 note=56 velocity=127 time=0
EXTRACT: note_on channel=9 note=42 velocity=127 time=0
EXTRACT: note_on channel=9 note=54 velocity=0 time=0.1319443125
EXTRACT: note_on channel=9 note=56 velocity=0 time=0
EXTRACT: note_on channel=9 note=42 velocity=0 time=0
EXTRACT: note_on channel=12 note=43 velocity=0 time=0
EXTRACT: note_on channel=14 note=43 velocity=0 time=0
EXTRACT: note_on channel=9 note=54 velocity=127 time=0.0069444375
EXTRACT: note_on channel=9 note=42 velocity=127 time=0
EXTRACT: note_on channel=12 note=44 velocity=127 time=0
EXTRACT: note_on channel=14 note=44 velocity=127 time=0
EXTRACT: note_on channel=9 note=54 velocity=0 time=0.1319443125
EXTRACT: note_on channel=9 note=42 velocity=0 time=0
EXTRACT: note_on channel=9 note=46 velocity=127 time=0.0069444375
EXTRACT: note_on channel=9 note=54 velocity=127 time=0
EXTRACT: note_on channel=9 note=56 velocity=127 time=0
EXTRACT: note_on channel=9 note=36 velocity=127 time=0
EXTRACT: note_on channel=9 note=46 velocity=0 time=0.1319443125
EXTRACT: note_on channel=9 note=54 velocity=0 time=0
EXTRACT: note_on channel=9 note=56 velocity=0 time=0
EXTRACT: note_on channel=9 note=36 velocity=0 time=0
EXTRACT: note_on channel=12 note=44 velocity=0 time=0
EXTRACT: note_on channel=14 note=44 velocity=0 time=0
EXTRACT: note_on channel=9 note=54 velocity=127 time=0.0069444375
EXTRACT: note_on channel=9 note=56 velocity=127 time=0
EXTRACT: note_on channel=9 note=36 velocity=127 time=0
EXTRACT: note_on channel=9 note=42 velocity=127 time=0
EXTRACT: note_on channel=12 note=44 velocity=127 time=0
EXTRACT: note_on channel=14 note=44 velocity=127 time=0
EXTRACT: note_on channel=9 note=54 velocity=0 time=0.1319443125
EXTRACT: note_on channel=9 note=56 velocity=0 time=0
EXTRACT: note_on channel=9 note=36 velocity=0 time=0
EXTRACT: note_on channel=9 note=42 velocity=0 time=0
EXTRACT: note_on channel=9 note=56 velocity=127 time=0.0069444375
EXTRACT: note_on channel=9 note=36 velocity=127 time=0
EXTRACT: note_on channel=9 note=42 velocity=127 time=0
EXTRACT: note_on channel=9 note=56 velocity=0 time=0.1319443125
EXTRACT: note_on channel=9 note=36 velocity=0 time=0
EXTRACT: note_on channel=9 note=42 velocity=0 time=0
EXTRACT: note_on channel=9 note=46 velocity=127 time=0.0069444375
EXTRACT: note_on channel=9 note=54 velocity=127 time=0
EXTRACT: note_on channel=9 note=56 velocity=127 time=0
EXTRACT: note_on channel=9 note=39 velocity=127 time=0
EXTRACT: note_on channel=9 note=46 velocity=0 time=0.1319443125
EXTRACT: note_on channel=9 note=54 velocity=0 time=0
EXTRACT: note_on channel=9 note=56 velocity=0 time=0
EXTRACT: note_on channel=9 note=39 velocity=0 time=0
EXTRACT: note_on channel=9 note=54 velocity=127 time=0.0069444375
EXTRACT: note_on channel=9 note=42 velocity=127 time=0
EXTRACT: note_on channel=10 note=68 velocity=0 time=0.04629625
EXTRACT: note_on channel=10 note=68 velocity=0 time=0
EXTRACT: note_on channel=10 note=68 velocity=0 time=0
EXTRACT: note_on channel=9 note=54 velocity=0 time=0.0856480625
EXTRACT: note_on channel=9 note=42 velocity=0 time=0
EXTRACT: note_on channel=9 note=54 velocity=127 time=0.0069444375
EXTRACT: note_on channel=9 note=56 velocity=127 time=0
EXTRACT: note_on channel=9 note=36 velocity=127 time=0
EXTRACT: note_on channel=9 note=42 velocity=127 time=0
EXTRACT: note_on channel=10 note=63 velocity=127 time=0
EXTRACT: note_on channel=10 note=63 velocity=127 time=0
EXTRACT: note_on channel=10 note=63 velocity=127 time=0
EXTRACT: note_on channel=9 note=54 velocity=0 time=0.1319443125
EXTRACT: note_on channel=9 note=56 velocity=0 time=0
EXTRACT: note_on channel=9 note=36 velocity=0 time=0
EXTRACT: note_on channel=9 note=42 velocity=0 time=0
EXTRACT: note_on channel=9 note=54 velocity=127 time=0.0069444375
EXTRACT: note_on channel=9 note=42 velocity=127 time=0
EXTRACT: note_on channel=11 note=60 velocity=0 time=0
EXTRACT: note_on channel=11 note=63 velocity=0 time=0
EXTRACT: note_on channel=11 note=68 velocity=0 time=0
EXTRACT: note_on channel=13 note=60 velocity=0 time=0
EXTRACT: note_on channel=13 note=63 velocity=0 time=0
EXTRACT: note_on channel=13 note=68 velocity=0 time=0
EXTRACT: note_on channel=12 note=44 velocity=0 time=0.04629625
EXTRACT: note_on channel=14 note=44 velocity=0 time=0
EXTRACT: note_on channel=9 note=54 velocity=0 time=0.0856480625
EXTRACT: note_on channel=9 note=42 velocity=0 time=0
EXTRACT: note_on channel=10 note=63 velocity=0 time=0
EXTRACT: note_on channel=10 note=63 velocity=0 time=0
EXTRACT: note_on channel=10 note=63 velocity=0 time=0
EXTRACT: note_on channel=9 note=46 velocity=127 time=0
EXTRACT: note_on channel=9 note=54 velocity=127 time=0
EXTRACT: note_on channel=9 note=56 velocity=127 time=0
EXTRACT: note_on channel=9 note=36 velocity=127 time=0
EXTRACT: note_on channel=10 note=62 velocity=127 time=0
EXTRACT: note_on channel=11 note=59 velocity=127 time=0
EXTRACT: note_on channel=11 note=62 velocity=127 time=0
EXTRACT: note_on channel=11 note=67 velocity=127 time=0
EXTRACT: note_on channel=12 note=43 velocity=127 time=0
EXTRACT: note_on channel=13 note=59 velocity=127 time=0
EXTRACT: note_on channel=13 note=62 velocity=127 time=0
EXTRACT: note_on channel=13 note=67 velocity=127 time=0
EXTRACT: note_on channel=14 note=43 velocity=127 time=0
EXTRACT: note_on channel=10 note=62 velocity=127 time=0
EXTRACT: note_on channel=10 note=62 velocity=127 time=0
EXTRACT: note_on channel=9 note=46 velocity=0 time=0.1319443125
EXTRACT: note_on channel=9 note=54 velocity=0 time=0
EXTRACT: note_on channel=9 note=56 velocity=0 time=0
EXTRACT: note_on channel=9 note=36 velocity=0 time=0
EXTRACT: note_on channel=9 note=54 velocity=127 time=0.0069444375
EXTRACT: note_on channel=9 note=42 velocity=127 time=0
EXTRACT: note_on channel=9 note=54 velocity=0 time=0.1319443125
EXTRACT: note_on channel=9 note=46 velocity=127 time=0.0069444375
EXTRACT: note_on channel=9 note=54 velocity=127 time=0
EXTRACT: note_on channel=9 note=56 velocity=127 time=0
EXTRACT: note_on channel=9 note=46 velocity=0 time=0.1319443125
EXTRACT: note_on channel=9 note=54 velocity=0 time=0
EXTRACT: note_on channel=9 note=56 velocity=0 time=0
EXTRACT: note_on channel=9 note=42 velocity=0 time=0
EXTRACT: note_on channel=10 note=62 velocity=0 time=0
EXTRACT: note_on channel=11 note=59 velocity=0 time=0
EXTRACT: note_on channel=11 note=62 velocity=0 time=0
EXTRACT: note_on channel=11 note=67 velocity=0 time=0
EXTRACT: note_on channel=13 note=59 velocity=0 time=0
EXTRACT: note_on channel=13 note=62 velocity=0 time=0
EXTRACT: note_on channel=13 note=67 velocity=0 time=0
EXTRACT: note_on channel=10 note=62 velocity=0 time=0
EXTRACT: note_on channel=10 note=62 velocity=0 time=0
EXTRACT: note_on channel=9 note=54 velocity=127 time=0.0069444375
EXTRACT: note_on channel=9 note=42 velocity=127 time=0
EXTRACT: note_on channel=10 note=65 velocity=127 time=0
EXTRACT: note_on channel=11 note=59 velocity=127 time=0
EXTRACT: note_on channel=11 note=62 velocity=127 time=0
EXTRACT: note_on channel=11 note=67 velocity=127 time=0
EXTRACT: note_on channel=13 note=59 velocity=127 time=0
EXTRACT: note_on channel=13 note=62 velocity=127 time=0
EXTRACT: note_on channel=13 note=67 velocity=127 time=0
EXTRACT: note_on channel=10 note=65 velocity=127 time=0
EXTRACT: note_on channel=10 note=65 velocity=127 time=0
EXTRACT: note_on channel=12 note=43 velocity=0 time=0.04629625
EXTRACT: note_on channel=14 note=43 velocity=0 time=0
EXTRACT: note_on channel=9 note=54 velocity=0 time=0.0856480625
EXTRACT: note_on channel=9 note=42 velocity=0 time=0
EXTRACT: note_on channel=9 note=54 velocity=127 time=0.0069444375
EXTRACT: note_on channel=9 note=56 velocity=127 time=0
EXTRACT: note_on channel=9 note=39 velocity=127 time=0
EXTRACT: note_on channel=9 note=42 velocity=127 time=0
EXTRACT: note_on channel=12 note=43 velocity=127 time=0
EXTRACT: note_on channel=14 note=43 velocity=127 time=0
EXTRACT: note_on channel=9 note=39 velocity=0 time=0.1319443125
EXTRACT: note_on channel=9 note=42 velocity=0 time=0
EXTRACT: note_on channel=9 note=42 velocity=127 time=0.0069444375
EXTRACT: note_on channel=9 note=54 velocity=0 time=0.1319443125
EXTRACT: note_on channel=9 note=56 velocity=0 time=0
EXTRACT: note_on channel=9 note=42 velocity=0 time=0
EXTRACT: note_on channel=10 note=65 velocity=0 time=0
EXTRACT: note_on channel=11 note=59 velocity=0 time=0
EXTRACT: note_on channel=11 note=62 velocity=0 time=0
EXTRACT: note_on channel=11 note=67 velocity=0 time=0
EXTRACT: note_on channel=12 note=43 velocity=0 time=0
EXTRACT: note_on channel=13 note=59 velocity=0 time=0
EXTRACT: note_on channel=13 note=62 velocity=0 time=0
EXTRACT: note_on channel=13 note=67 velocity=0 time=0
EXTRACT: note_on channel=14 note=43 velocity=0 time=0
EXTRACT: note_on channel=10 note=65 velocity=0 time=0
EXTRACT: note_on channel=10 note=65 velocity=0 time=0
EXTRACT: note_on channel=9 note=54 velocity=127 time=0.0069444375
EXTRACT: note_on channel=9 note=36 velocity=127 time=0
EXTRACT: note_on channel=9 note=42 velocity=127 time=0
EXTRACT: note_on channel=10 note=63 velocity=127 time=0
EXTRACT: note_on channel=11 note=60 velocity=127 time=0
EXTRACT: note_on channel=11 note=63 velocity=127 time=0
EXTRACT: note_on channel=11 note=67 velocity=127 time=0
EXTRACT: note_on channel=12 note=47 velocity=127 time=0
EXTRACT: note_on channel=13 note=60 velocity=127 time=0
EXTRACT: note_on channel=13 note=63 velocity=127 time=0
EXTRACT: note_on channel=13 note=67 velocity=127 time=0
EXTRACT: note_on channel=14 note=47 velocity=127 time=0
EXTRACT: note_on channel=10 note=63 velocity=127 time=0
EXTRACT: note_on channel=10 note=63 velocity=127 time=0
EXTRACT: note_on channel=9 note=54 velocity=0 time=0.1319443125
EXTRACT: note_on channel=9 note=36 velocity=0 time=0
EXTRACT: note_on channel=9 note=42 velocity=0 time=0
EXTRACT: note_on channel=9 note=54 velocity=127 time=0.0069444375
EXTRACT: note_on channel=9 note=56 velocity=127 time=0
EXTRACT: note_on channel=9 note=42 velocity=127 time=0
EXTRACT: note_on channel=9 note=54 velocity=0 time=0.1319443125
EXTRACT: note_on channel=9 note=56 velocity=0 time=0
EXTRACT: note_on channel=9 note=42 velocity=0 time=0
EXTRACT: note_on channel=12 note=47 velocity=0 time=0
EXTRACT: note_on channel=14 note=47 velocity=0 time=0
EXTRACT: note_on channel=9 note=54 velocity=127 time=0.0069444375
EXTRACT: note_on channel=9 note=42 velocity=127 time=0
EXTRACT: note_on channel=12 note=48 velocity=127 time=0
EXTRACT: note_on channel=14 note=48 velocity=127 time=0
EXTRACT: note_on channel=9 note=54 velocity=0 time=0.1319443125
EXTRACT: note_on channel=9 note=42 velocity=0 time=0
EXTRACT: note_on channel=9 note=46 velocity=127 time=0.0069444375
EXTRACT: note_on channel=9 note=54 velocity=127 time=0
EXTRACT: note_on channel=9 note=56 velocity=127 time=0
EXTRACT: note_on channel=9 note=36 velocity=127 time=0
EXTRACT: note_on channel=9 note=46 velocity=0 time=0.1319443125
EXTRACT: note_on channel=9 note=54 velocity=0 time=0
EXTRACT: note_on channel=9 note=56 velocity=0 time=0
EXTRACT: note_on channel=9 note=36 velocity=0 time=0
EXTRACT: note_on channel=12 note=48 velocity=0 time=0
EXTRACT: note_on channel=14 note=48 velocity=0 time=0
EXTRACT: note_on channel=9 note=54 velocity=127 time=0.0069444375
EXTRACT: note_on channel=9 note=56 velocity=127 time=0
EXTRACT: note_on channel=9 note=36 velocity=127 time=0
EXTRACT: note_on channel=9 note=42 velocity=127 time=0
EXTRACT: note_on channel=12 note=48 velocity=127 time=0
EXTRACT: note_on channel=14 note=48 velocity=127 time=0
EXTRACT: note_on channel=9 note=54 velocity=0 time=0.1319443125
EXTRACT: note_on channel=9 note=56 velocity=0 time=0
EXTRACT: note_on channel=9 note=36 velocity=0 time=0
EXTRACT: note_on channel=9 note=42 velocity=0 time=0
EXTRACT: note_on channel=9 note=56 velocity=127 time=0.0069444375
EXTRACT: note_on channel=9 note=36 velocity=127 time=0
EXTRACT: note_on channel=9 note=42 velocity=127 time=0
EXTRACT: note_on channel=10 note=63 velocity=0 time=0.04629625
EXTRACT: note_on channel=10 note=63 velocity=0 time=0
EXTRACT: note_on channel=10 note=63 velocity=0 time=0
EXTRACT: note_on channel=9 note=56 velocity=0 time=0.0856480625
EXTRACT: note_on channel=9 note=36 velocity=0 time=0
EXTRACT: note_on channel=9 note=42 velocity=0 time=0
EXTRACT: note_on channel=9 note=46 velocity=127 time=0.0069444375
EXTRACT: note_on channel=9 note=54 velocity=127 time=0
EXTRACT: note_on channel=9 note=56 velocity=127 time=0
EXTRACT: note_on channel=9 note=39 velocity=127 time=0
EXTRACT: note_on channel=9 note=46 velocity=0 time=0.1319443125
EXTRACT: note_on channel=9 note=54 velocity=0 time=0
EXTRACT: note_on channel=9 note=56 velocity=0 time=0
EXTRACT: note_on channel=9 note=39 velocity=0 time=0
EXTRACT: note_on channel=9 note=54 velocity=127 time=0.0069444375
EXTRACT: note_on channel=9 note=42 velocity=127 time=0
EXTRACT: note_on channel=9 note=54 velocity=0 time=0.1319443125
EXTRACT: note_on channel=9 note=42 velocity=0 time=0
EXTRACT: note_on channel=9 note=54 velocity=127 time=0.0069444375
EXTRACT: note_on channel=9 note=56 velocity=127 time=0
EXTRACT: note_on channel=9 note=36 velocity=127 time=0
EXTRACT: note_on channel=9 note=42 velocity=127 time=0
EXTRACT: note_on channel=9 note=54 velocity=0 time=0.1319443125
EXTRACT: note_on channel=9 note=56 velocity=0 time=0
EXTRACT: note_on channel=9 note=36 velocity=0 time=0
EXTRACT: note_on channel=9 note=42 velocity=0 time=0
EXTRACT: note_on channel=9 note=54 velocity=127 time=0.0069444375
EXTRACT: note_on channel=9 note=42 velocity=127 time=0
EXTRACT: note_on channel=11 note=60 velocity=0 time=0
EXTRACT: note_on channel=11 note=63 velocity=0 time=0
EXTRACT: note_on channel=11 note=67 velocity=0 time=0
EXTRACT: note_on channel=13 note=60 velocity=0 time=0
EXTRACT: note_on channel=13 note=63 velocity=0 time=0
EXTRACT: note_on channel=13 note=67 velocity=0 time=0
EXTRACT: note_on channel=12 note=48 velocity=0 time=0.04629625
EXTRACT: note_on channel=14 note=48 velocity=0 time=0
EXTRACT: note_on channel=9 note=54 velocity=0 time=0.0856480625
EXTRACT: note_on channel=9 note=42 velocity=0 time=0
EXTRACT: note_on channel=9 note=46 velocity=127 time=0
EXTRACT: note_on channel=9 note=54 velocity=127 time=0
EXTRACT: note_on channel=9 note=56 velocity=127 time=0
EXTRACT: note_on channel=9 note=36 velocity=127 time=0
EXTRACT: note_on channel=11 note=60 velocity=127 time=0
EXTRACT: note_on channel=11 note=63 velocity=127 time=0
EXTRACT: note_on channel=11 note=67 velocity=127 time=0
EXTRACT: note_on channel=12 note=48 velocity=127 time=0
EXTRACT: note_on channel=13 note=60 velocity=127 time=0
EXTRACT: note_on channel=13 note=63 velocity=127 time=0
EXTRACT: note_on channel=13 note=67 velocity=127 time=0
EXTRACT: note_on channel=14 note=48 velocity=127 time=0
EXTRACT: note_on channel=9 note=46 velocity=0 time=0.1319443125
EXTRACT: note_on channel=9 note=54 velocity=0 time=0
EXTRACT: note_on channel=9 note=56 velocity=0 time=0
EXTRACT: note_on channel=9 note=36 velocity=0 time=0
EXTRACT: note_on channel=9 note=54 velocity=127 time=0.0069444375
EXTRACT: note_on channel=9 note=42 velocity=127 time=0
EXTRACT: note_on channel=9 note=54 velocity=0 time=0.1319443125
EXTRACT: note_on channel=9 note=46 velocity=127 time=0.0069444375
EXTRACT: note_on channel=9 note=54 velocity=127 time=0
EXTRACT: note_on channel=9 note=56 velocity=127 time=0
EXTRACT: note_on channel=10 note=67 velocity=127 time=0
EXTRACT: note_on channel=10 note=67 velocity=127 time=0
EXTRACT: note_on channel=10 note=67 velocity=127 time=0
EXTRACT: note_on channel=9 note=46 velocity=0 time=0.1319443125
EXTRACT: note_on channel=9 note=54 velocity=0 time=0
EXTRACT: note_on channel=9 note=56 velocity=0 time=0
EXTRACT: note_on channel=9 note=42 velocity=0 time=0
EXTRACT: note_on channel=11 note=60 velocity=0 time=0
EXTRACT: note_on channel=11 note=63 velocity=0 time=0
EXTRACT: note_on channel=11 note=67 velocity=0 time=0
EXTRACT: note_on channel=13 note=60 velocity=0 time=0
EXTRACT: note_on channel=13 note=63 velocity=0 time=0
EXTRACT: note_on channel=13 note=67 velocity=0 time=0
EXTRACT: note_on channel=9 note=54 velocity=127 time=0.0069444375
EXTRACT: note_on channel=9 note=42 velocity=127 time=0
EXTRACT: note_on channel=11 note=60 velocity=127 time=0
EXTRACT: note_on channel=11 note=63 velocity=127 time=0
EXTRACT: note_on channel=11 note=67 velocity=127 time=0
EXTRACT: note_on channel=13 note=60 velocity=127 time=0
EXTRACT: note_on channel=13 note=63 velocity=127 time=0
EXTRACT: note_on channel=13 note=67 velocity=127 time=0
EXTRACT: note_on channel=12 note=48 velocity=0 time=0.04629625
EXTRACT: note_on channel=14 note=48 velocity=0 time=0
EXTRACT: note_on channel=9 note=54 velocity=0 time=0.0856480625
EXTRACT: note_on channel=9 note=42 velocity=0 time=0
EXTRACT: note_on channel=10 note=67 velocity=0 time=0
EXTRACT: note_on channel=10 note=67 velocity=0 time=0
EXTRACT: note_on channel=10 note=67 velocity=0 time=0
EXTRACT: note_on channel=9 note=54 velocity=127 time=0.0069444375
EXTRACT: note_on channel=9 note=56 velocity=127 time=0
EXTRACT: note_on channel=9 note=39 velocity=127 time=0
EXTRACT: note_on channel=9 note=42 velocity=127 time=0
EXTRACT: note_on channel=10 note=67 velocity=127 time=0
EXTRACT: note_on channel=12 note=48 velocity=127 time=0
EXTRACT: note_on channel=14 note=48 velocity=127 time=0
EXTRACT: note_on channel=10 note=67 velocity=127 time=0
EXTRACT: note_on channel=10 note=67 velocity=127 time=0
EXTRACT: note_on channel=9 note=39 velocity=0 time=0.1319443125
EXTRACT: note_on channel=9 note=42 velocity=0 time=0
EXTRACT: note_on channel=9 note=42 velocity=127 time=0.0069444375
EXTRACT: note_on channel=9 note=54 velocity=0 time=0.1319443125
EXTRACT: note_on channel=9 note=56 velocity=0 time=0
EXTRACT: note_on channel=9 note=42 velocity=0 time=0
EXTRACT: note_on channel=10 note=67 velocity=0 time=0
EXTRACT: note_on channel=11 note=60 velocity=0 time=0
EXTRACT: note_on channel=11 note=63 velocity=0 time=0
EXTRACT: note_on channel=11 note=67 velocity=0 time=0
EXTRACT: note_on channel=12 note=48 velocity=0 time=0
EXTRACT: note_on channel=13 note=60 velocity=0 time=0
EXTRACT: note_on channel=13 note=63 velocity=0 time=0
EXTRACT: note_on channel=13 note=67 velocity=0 time=0
EXTRACT: note_on channel=14 note=48 velocity=0 time=0
EXTRACT: note_on channel=10 note=67 velocity=0 time=0
EXTRACT: note_on channel=10 note=67 velocity=0 time=0
EXTRACT: note_on channel=9 note=54 velocity=127 time=0.0069444375
EXTRACT: note_on channel=9 note=36 velocity=127 time=0
EXTRACT: note_on channel=9 note=42 velocity=127 time=0
EXTRACT: note_on channel=10 note=65 velocity=127 time=0
EXTRACT: note_on channel=11 note=60 velocity=127 time=0
EXTRACT: note_on channel=11 note=63 velocity=127 time=0
EXTRACT: note_on channel=11 note=68 velocity=127 time=0
EXTRACT: note_on channel=12 note=43 velocity=127 time=0
EXTRACT: note_on channel=13 note=60 velocity=127 time=0
EXTRACT: note_on channel=13 note=63 velocity=127 time=0
EXTRACT: note_on channel=13 note=68 velocity=127 time=0
EXTRACT: note_on channel=14 note=43 velocity=127 time=0
EXTRACT: note_on channel=10 note=65 velocity=127 time=0
EXTRACT: note_on channel=10 note=65 velocity=127 time=0
EXTRACT: note_on channel=9 note=54 velocity=0 time=0.1319443125
EXTRACT: note_on channel=9 note=36 velocity=0 time=0
EXTRACT: note_on channel=9 note=42 velocity=0 time=0
EXTRACT: note_on channel=9 note=54 velocity=127 time=0.0069444375
EXTRACT: note_on channel=9 note=56 velocity=127 time=0
EXTRACT: note_on channel=9 note=42 velocity=127 time=0
EXTRACT: note_on channel=9 note=54 velocity=0 time=0.1319443125
EXTRACT: note_on channel=9 note=56 velocity=0 time=0
EXTRACT: note_on channel=9 note=42 velocity=0 time=0
EXTRACT: note_on channel=10 note=65 velocity=0 time=0
EXTRACT: note_on channel=12 note=43 velocity=0 time=0
EXTRACT: note_on channel=14 note=43 velocity=0 time=0
EXTRACT: note_on channel=10 note=65 velocity=0 time=0
EXTRACT: note_on channel=10 note=65 velocity=0 time=0
EXTRACT: note_on channel=9 note=54 velocity=127 time=0.0069444375
EXTRACT: note_on channel=9 note=42 velocity=127 time=0
EXTRACT: note_on channel=10 note=65 velocity=127 time=0
EXTRACT: note_on channel=12 note=44 velocity=127 time=0
EXTRACT: note_on channel=14 note=44 velocity=127 time=0
EXTRACT: note_on channel=10 note=65 velocity=127 time=0
EXTRACT: note_on channel=10 note=65 velocity=127 time=0
EXTRACT: note_on channel=9 note=54 velocity=0 time=0.1319443125
EXTRACT: note_on channel=9 note=42 velocity=0 time=0
EXTRACT: note_on channel=9 note=46 velocity=127 time=0.0069444375
EXTRACT: note_on channel=9 note=54 velocity=127 time=0
EXTRACT: note_on channel=9 note=56 velocity=127 time=0
EXTRACT: note_on channel=9 note=36 velocity=127 time=0
EXTRACT: note_on channel=9 note=46 velocity=0 time=0.1319443125
EXTRACT: note_on channel=9 note=54 velocity=0 time=0
EXTRACT: note_on channel=9 note=56 velocity=0 time=0
EXTRACT: note_on channel=9 note=36 velocity=0 time=0
EXTRACT: note_on channel=10 note=65 velocity=0 time=0
EXTRACT: note_on channel=12 note=44 velocity=0 time=0
EXTRACT: note_on channel=14 note=44 velocity=0 time=0
EXTRACT: note_on channel=10 note=65 velocity=0 time=0
EXTRACT: note_on channel=10 note=65 velocity=0 time=0
EXTRACT: note_on channel=9 note=54 velocity=127 time=0.0069444375
EXTRACT: note_on channel=9 note=56 velocity=127 time=0
EXTRACT: note_on channel=9 note=36 velocity=127 time=0
EXTRACT: note_on channel=9 note=42 velocity=127 time=0
EXTRACT: note_on channel=10 note=63 velocity=127 time=0
EXTRACT: note_on channel=12 note=44 velocity=127 time=0
EXTRACT: note_on channel=14 note=44 velocity=127 time=0
EXTRACT: note_on channel=10 note=63 velocity=127 time=0
EXTRACT: note_on channel=10 note=63 velocity=127 time=0
EXTRACT: note_on channel=9 note=54 velocity=0 time=0.1319443125
EXTRACT: note_on channel=9 note=56 velocity=0 time=0
EXTRACT: note_on channel=9 note=36 velocity=0 time=0
EXTRACT: note_on channel=9 note=42 velocity=0 time=0
EXTRACT: note_on channel=9 note=56 velocity=127 time=0.0069444375
EXTRACT: note_on channel=9 note=36 velocity=127 time=0
EXTRACT: note_on channel=9 note=42 velocity=127 time=0
EXTRACT: note_on channel=9 note=56 velocity=0 time=0.1319443125
EXTRACT: note_on channel=9 note=36 velocity=0 time=0
EXTRACT: note_on channel=9 note=42 velocity=0 time=0
EXTRACT: note_on channel=10 note=63 velocity=0 time=0
EXTRACT: note_on channel=10 note=63 velocity=0 time=0
EXTRACT: note_on channel=10 note=63 velocity=0 time=0
EXTRACT: note_on channel=9 note=46 velocity=127 time=0.0069444375
EXTRACT: note_on channel=9 note=54 velocity=127 time=0
EXTRACT: note_on channel=9 note=56 velocity=127 time=0
EXTRACT: note_on channel=9 note=39 velocity=127 time=0
EXTRACT: note_on channel=9 note=46 velocity=0 time=0.1319443125
EXTRACT: note_on channel=9 note=54 velocity=0 time=0
EXTRACT: note_on channel=9 note=56 velocity=0 time=0
EXTRACT: note_on channel=9 note=39 velocity=0 time=0
EXTRACT: note_on channel=9 note=54 velocity=127 time=0.0069444375
EXTRACT: note_on channel=9 note=42 velocity=127 time=0
EXTRACT: note_on channel=9 note=54 velocity=0 time=0.1319443125
EXTRACT: note_on channel=9 note=42 velocity=0 time=0
EXTRACT: note_on channel=9 note=54 velocity=127 time=0.0069444375
EXTRACT: note_on channel=9 note=56 velocity=127 time=0
EXTRACT: note_on channel=9 note=36 velocity=127 time=0
EXTRACT: note_on channel=9 note=42 velocity=127 time=0
EXTRACT: note_on channel=10 note=60 velocity=127 time=0
EXTRACT: note_on channel=10 note=60 velocity=127 time=0
EXTRACT: note_on channel=10 note=60 velocity=127 time=0
EXTRACT: note_on channel=9 note=54 velocity=0 time=0.1319443125
EXTRACT: note_on channel=9 note=56 velocity=0 time=0
EXTRACT: note_on channel=9 note=36 velocity=0 time=0
EXTRACT: note_on channel=9 note=42 velocity=0 time=0
EXTRACT: note_on channel=9 note=54 velocity=127 time=0.0069444375
EXTRACT: note_on channel=9 note=42 velocity=127 time=0
EXTRACT: note_on channel=11 note=60 velocity=0 time=0
EXTRACT: note_on channel=11 note=63 velocity=0 time=0
EXTRACT: note_on channel=11 note=68 velocity=0 time=0
EXTRACT: note_on channel=13 note=60 velocity=0 time=0
EXTRACT: note_on channel=13 note=63 velocity=0 time=0
EXTRACT: note_on channel=13 note=68 velocity=0 time=0
EXTRACT: note_on channel=12 note=44 velocity=0 time=0.04629625
EXTRACT: note_on channel=14 note=44 velocity=0 time=0
EXTRACT: note_on channel=9 note=54 velocity=0 time=0.0856480625
EXTRACT: note_on channel=9 note=42 velocity=0 time=0
EXTRACT: note_on channel=10 note=60 velocity=0 time=0
EXTRACT: note_on channel=10 note=60 velocity=0 time=0
EXTRACT: note_on channel=10 note=60 velocity=0 time=0
EXTRACT: note_on channel=9 note=46 velocity=127 time=0
EXTRACT: note_on channel=9 note=54 velocity=127 time=0
EXTRACT: note_on channel=9 note=56 velocity=127 time=0
EXTRACT: note_on channel=9 note=36 velocity=127 time=0
EXTRACT: note_on channel=10 note=59 velocity=127 time=0
EXTRACT: note_on channel=11 note=59 velocity=127 time=0
EXTRACT: note_on channel=11 note=62 velocity=127 time=0
EXTRACT: note_on channel=11 note=67 velocity=127 time=0
EXTRACT: note_on channel=12 note=43 velocity=127 time=0
EXTRACT: note_on channel=13 note=59 velocity=127 time=0
EXTRACT: note_on channel=13 note=62 velocity=127 time=0
EXTRACT: note_on channel=13 note=67 velocity=127 time=0
EXTRACT: note_on channel=14 note=43 velocity=127 time=0
EXTRACT: note_on channel=10 note=59 velocity=127 time=0
EXTRACT: note_on channel=10 note=59 velocity=127 time=0
EXTRACT: note_on channel=9 note=46 velocity=0 time=0.1319443125
EXTRACT: note_on channel=9 note=54 velocity=0 time=0
EXTRACT: note_on channel=9 note=56 velocity=0 time=0
EXTRACT: note_on channel=9 note=36 velocity=0 time=0
EXTRACT: note_on channel=9 note=54 velocity=127 time=0.0069444375
EXTRACT: note_on channel=9 note=42 velocity=127 time=0
EXTRACT: note_on channel=9 note=54 velocity=0 time=0.1319443125
EXTRACT: note_on channel=9 note=46 velocity=127 time=0.0069444375
EXTRACT: note_on channel=9 note=54 velocity=127 time=0
EXTRACT: note_on channel=9 note=56 velocity=127 time=0
EXTRACT: note_on channel=9 note=46 velocity=0 time=0.1319443125
EXTRACT: note_on channel=9 note=54 velocity=0 time=0
EXTRACT: note_on channel=9 note=56 velocity=0 time=0
EXTRACT: note_on channel=9 note=42 velocity=0 time=0
EXTRACT: note_on channel=10 note=59 velocity=0 time=0
EXTRACT: note_on channel=11 note=59 velocity=0 time=0
EXTRACT: note_on channel=11 note=62 velocity=0 time=0
EXTRACT: note_on channel=11 note=67 velocity=0 time=0
EXTRACT: note_on channel=13 note=59 velocity=0 time=0
EXTRACT: note_on channel=13 note=62 velocity=0 time=0
EXTRACT: note_on channel=13 note=67 velocity=0 time=0
EXTRACT: note_on channel=10 note=59 velocity=0 time=0
EXTRACT: note_on channel=10 note=59 velocity=0 time=0
EXTRACT: note_on channel=9 note=54 velocity=127 time=0.0069444375
EXTRACT: note_on channel=9 note=42 velocity=127 time=0
EXTRACT: note_on channel=10 note=65 velocity=127 time=0
EXTRACT: note_on channel=11 note=59 velocity=127 time=0
EXTRACT: note_on channel=11 note=62 velocity=127 time=0
EXTRACT: note_on channel=11 note=67 velocity=127 time=0
EXTRACT: note_on channel=13 note=59 velocity=127 time=0
EXTRACT: note_on channel=13 note=62 velocity=127 time=0
EXTRACT: note_on channel=13 note=67 velocity=127 time=0
EXTRACT: note_on channel=10 note=65 velocity=127 time=0
EXTRACT: note_on channel=10 note=65 velocity=127 time=0
EXTRACT: note_on channel=12 note=43 velocity=0 time=0.04629625
EXTRACT: note_on channel=14 note=43 velocity=0 time=0
EXTRACT: note_on channel=9 note=54 velocity=0 time=0.0856480625
EXTRACT: note_on channel=9 note=42 velocity=0 time=0
EXTRACT: note_on channel=9 note=54 velocity=127 time=0.0069444375
EXTRACT: note_on channel=9 note=56 velocity=127 time=0
EXTRACT: note_on channel=9 note=39 velocity=127 time=0
EXTRACT: note_on channel=9 note=42 velocity=127 time=0
EXTRACT: note_on channel=12 note=43 velocity=127 time=0
EXTRACT: note_on channel=14 note=43 velocity=127 time=0
EXTRACT: note_on channel=9 note=39 velocity=0 time=0.1319443125
EXTRACT: note_on channel=9 note=42 velocity=0 time=0
EXTRACT: note_on channel=9 note=42 velocity=127 time=0.0069444375
EXTRACT: note_on channel=9 note=54 velocity=0 time=0.1319443125
EXTRACT: note_on channel=9 note=56 velocity=0 time=0
EXTRACT: note_on channel=9 note=42 velocity=0 time=0
EXTRACT: note_on channel=10 note=65 velocity=0 time=0
EXTRACT: note_on channel=11 note=59 velocity=0 time=0
EXTRACT: note_on channel=11 note=62 velocity=0 time=0
EXTRACT: note_on channel=11 note=67 velocity=0 time=0
EXTRACT: note_on channel=12 note=43 velocity=0 time=0
EXTRACT: note_on channel=13 note=59 velocity=0 time=0
EXTRACT: note_on channel=13 note=62 velocity=0 time=0
EXTRACT: note_on channel=13 note=67 velocity=0 time=0
EXTRACT: note_on channel=14 note=43 velocity=0 time=0
EXTRACT: note_on channel=10 note=65 velocity=0 time=0
EXTRACT: note_on channel=10 note=65 velocity=0 time=0
EXTRACT: note_on channel=9 note=54 velocity=127 time=0.0069444375
EXTRACT: note_on channel=9 note=36 velocity=127 time=0
EXTRACT: note_on channel=9 note=42 velocity=127 time=0
EXTRACT: note_on channel=10 note=63 velocity=127 time=0
EXTRACT: note_on channel=11 note=60 velocity=127 time=0
EXTRACT: note_on channel=11 note=63 velocity=127 time=0
EXTRACT: note_on channel=11 note=67 velocity=127 time=0
EXTRACT: note_on channel=12 note=47 velocity=127 time=0
EXTRACT: note_on channel=13 note=60 velocity=127 time=0
EXTRACT: note_on channel=13 note=63 velocity=127 time=0
EXTRACT: note_on channel=13 note=67 velocity=127 time=0
EXTRACT: note_on channel=14 note=47 velocity=127 time=0
EXTRACT: note_on channel=10 note=63 velocity=127 time=0
EXTRACT: note_on channel=10 note=63 velocity=127 time=0
EXTRACT: note_on channel=9 note=54 velocity=0 time=0.1319443125
EXTRACT: note_on channel=9 note=36 velocity=0 time=0
EXTRACT: note_on channel=9 note=42 velocity=0 time=0
EXTRACT: note_on channel=9 note=54 velocity=127 time=0.0069444375
EXTRACT: note_on channel=9 note=56 velocity=127 time=0
EXTRACT: note_on channel=9 note=42 velocity=127 time=0
EXTRACT: note_on channel=9 note=54 velocity=0 time=0.1319443125
EXTRACT: note_on channel=9 note=56 velocity=0 time=0
EXTRACT: note_on channel=9 note=42 velocity=0 time=0
EXTRACT: note_on channel=12 note=47 velocity=0 time=0
EXTRACT: note_on channel=14 note=47 velocity=0 time=0
EXTRACT: note_on channel=9 note=54 velocity=127 time=0.0069444375
EXTRACT: note_on channel=9 note=42 velocity=127 time=0
EXTRACT: note_on channel=12 note=48 velocity=127 time=0
EXTRACT: note_on channel=14 note=48 velocity=127 time=0
EXTRACT: note_on channel=9 note=54 velocity=0 time=0.1319443125
EXTRACT: note_on channel=9 note=42 velocity=0 time=0
EXTRACT: note_on channel=9 note=46 velocity=127 time=0.0069444375
EXTRACT: note_on channel=9 note=54 velocity=127 time=0
EXTRACT: note_on channel=9 note=56 velocity=127 time=0
EXTRACT: note_on channel=9 note=36 velocity=127 time=0
EXTRACT: note_on channel=9 note=46 velocity=0 time=0.1319443125
EXTRACT: note_on channel=9 note=54 velocity=0 time=0
EXTRACT: note_on channel=9 note=56 velocity=0 time=0
EXTRACT: note_on channel=9 note=36 velocity=0 time=0
EXTRACT: note_on channel=10 note=63 velocity=0 time=0
EXTRACT: note_on channel=12 note=48 velocity=0 time=0
EXTRACT: note_on channel=14 note=48 velocity=0 time=0
EXTRACT: note_on channel=10 note=63 velocity=0 time=0
EXTRACT: note_on channel=10 note=63 velocity=0 time=0
EXTRACT: note_on channel=9 note=54 velocity=127 time=0.0069444375
EXTRACT: note_on channel=9 note=56 velocity=127 time=0
EXTRACT: note_on channel=9 note=36 velocity=127 time=0
EXTRACT: note_on channel=9 note=42 velocity=127 time=0
EXTRACT: note_on channel=10 note=60 velocity=127 time=0
EXTRACT: note_on channel=12 note=48 velocity=127 time=0
EXTRACT: note_on channel=14 note=48 velocity=127 time=0
EXTRACT: note_on channel=10 note=60 velocity=127 time=0
EXTRACT: note_on channel=10 note=60 velocity=127 time=0
EXTRACT: note_on channel=9 note=54 velocity=0 time=0.1319443125
EXTRACT: note_on channel=9 note=56 velocity=0 time=0
EXTRACT: note_on channel=9 note=36 velocity=0 time=0
EXTRACT: note_on channel=9 note=42 velocity=0 time=0
EXTRACT: note_on channel=9 note=56 velocity=127 time=0.0069444375
EXTRACT: note_on channel=9 note=36 velocity=127 time=0
EXTRACT: note_on channel=9 note=42 velocity=127 time=0
EXTRACT: note_on channel=9 note=56 velocity=0 time=0.1319443125
EXTRACT: note_on channel=9 note=36 velocity=0 time=0
EXTRACT: note_on channel=9 note=42 velocity=0 time=0
EXTRACT: note_on channel=10 note=60 velocity=0 time=0
EXTRACT: note_on channel=10 note=60 velocity=0 time=0
EXTRACT: note_on channel=10 note=60 velocity=0 time=0
EXTRACT: note_on channel=9 note=46 velocity=127 time=0.0069444375
EXTRACT: note_on channel=9 note=54 velocity=127 time=0
EXTRACT: note_on channel=9 note=56 velocity=127 time=0
EXTRACT: note_on channel=9 note=39 velocity=127 time=0
EXTRACT: note_on channel=10 note=63 velocity=127 time=0
EXTRACT: note_on channel=10 note=63 velocity=127 time=0
EXTRACT: note_on channel=10 note=63 velocity=127 time=0
EXTRACT: note_on channel=9 note=46 velocity=0 time=0.1319443125
EXTRACT: note_on channel=9 note=54 velocity=0 time=0
EXTRACT: note_on channel=9 note=56 velocity=0 time=0
EXTRACT: note_on channel=9 note=39 velocity=0 time=0
EXTRACT: note_on channel=9 note=54 velocity=127 time=0.0069444375
EXTRACT: note_on channel=9 note=42 velocity=127 time=0
EXTRACT: note_on channel=9 note=54 velocity=0 time=0.1319443125
EXTRACT: note_on channel=9 note=42 velocity=0 time=0
EXTRACT: note_on channel=10 note=63 velocity=0 time=0
EXTRACT: note_on channel=10 note=63 velocity=0 time=0
EXTRACT: note_on channel=10 note=63 velocity=0 time=0
EXTRACT: note_on channel=9 note=54 velocity=127 time=0.0069444375
EXTRACT: note_on channel=9 note=56 velocity=127 time=0
EXTRACT: note_on channel=9 note=36 velocity=127 time=0
EXTRACT: note_on channel=9 note=42 velocity=127 time=0
EXTRACT: note_on channel=10 note=65 velocity=127 time=0
EXTRACT: note_on channel=10 note=65 velocity=127 time=0
EXTRACT: note_on channel=10 note=65 velocity=127 time=0
EXTRACT: note_on channel=9 note=54 velocity=0 time=0.1319443125
EXTRACT: note_on channel=9 note=56 velocity=0 time=0
EXTRACT: note_on channel=9 note=36 velocity=0 time=0
EXTRACT: note_on channel=9 note=42 velocity=0 time=0
EXTRACT: note_on channel=9 note=54 velocity=127 time=0.0069444375
EXTRACT: note_on channel=9 note=42 velocity=127 time=0
EXTRACT: note_on channel=11 note=60 velocity=0 time=0
EXTRACT: note_on channel=11 note=63 velocity=0 time=0
EXTRACT: note_on channel=11 note=67 velocity=0 time=0
EXTRACT: note_on channel=13 note=60 velocity=0 time=0
EXTRACT: note_on channel=13 note=63 velocity=0 time=0
EXTRACT: note_on channel=13 note=67 velocity=0 time=0
EXTRACT: note_on channel=12 note=48 velocity=0 time=0.04629625
EXTRACT: note_on channel=14 note=48 velocity=0 time=0
EXTRACT: note_on channel=9 note=54 velocity=0 time=0.0856480625
EXTRACT: note_on channel=9 note=42 velocity=0 time=0
EXTRACT: note_on channel=10 note=65 velocity=0 time=0
EXTRACT: note_on channel=10 note=65 velocity=0 time=0
EXTRACT: note_on channel=10 note=65 velocity=0 time=0
EXTRACT: note_on channel=9 note=46 velocity=127 time=0
EXTRACT: note_on channel=9 note=54 velocity=127 time=0
EXTRACT: note_on channel=9 note=56 velocity=127 time=0
EXTRACT: note_on channel=9 note=36 velocity=127 time=0
EXTRACT: note_on channel=10 note=67 velocity=127 time=0
EXTRACT: note_on channel=11 note=60 velocity=127 time=0
EXTRACT: note_on channel=11 note=63 velocity=127 time=0
EXTRACT: note_on channel=11 note=67 velocity=127 time=0
EXTRACT: note_on channel=12 note=48 velocity=127 time=0
EXTRACT: note_on channel=13 note=60 velocity=127 time=0
EXTRACT: note_on channel=13 note=63 velocity=127 time=0
EXTRACT: note_on channel=13 note=67 velocity=127 time=0
EXTRACT: note_on channel=14 note=48 velocity=127 time=0
EXTRACT: note_on channel=10 note=67 velocity=127 time=0
EXTRACT: note_on channel=10 note=67 velocity=127 time=0
EXTRACT: note_on channel=9 note=46 velocity=0 time=0.1319443125
EXTRACT: note_on channel=9 note=54 velocity=0 time=0
EXTRACT: note_on channel=9 note=56 velocity=0 time=0
EXTRACT: note_on channel=9 note=36 velocity=0 time=0
EXTRACT: note_on channel=9 note=54 velocity=127 time=0.0069444375
EXTRACT: note_on channel=9 note=42 velocity=127 time=0
EXTRACT: note_on channel=9 note=54 velocity=0 time=0.1319443125
EXTRACT: note_on channel=9 note=46 velocity=127 time=0.0069444375
EXTRACT: note_on channel=9 note=54 velocity=127 time=0
EXTRACT: note_on channel=9 note=56 velocity=127 time=0
EXTRACT: note_on channel=9 note=46 velocity=0 time=0.1319443125
EXTRACT: note_on channel=9 note=54 velocity=0 time=0
EXTRACT: note_on channel=9 note=56 velocity=0 time=0
EXTRACT: note_on channel=9 note=42 velocity=0 time=0
EXTRACT: note_on channel=11 note=60 velocity=0 time=0
EXTRACT: note_on channel=11 note=63 velocity=0 time=0
EXTRACT: note_on channel=11 note=67 velocity=0 time=0
EXTRACT: note_on channel=13 note=60 velocity=0 time=0
EXTRACT: note_on channel=13 note=63 velocity=0 time=0
EXTRACT: note_on channel=13 note=67 velocity=0 time=0
EXTRACT: note_on channel=9 note=54 velocity=127 time=0.0069444375
EXTRACT: note_on channel=9 note=42 velocity=127 time=0
EXTRACT: note_on channel=11 note=60 velocity=127 time=0
EXTRACT: note_on channel=11 note=63 velocity=127 time=0
EXTRACT: note_on channel=11 note=67 velocity=127 time=0
EXTRACT: note_on channel=13 note=60 velocity=127 time=0
EXTRACT: note_on channel=13 note=63 velocity=127 time=0
EXTRACT: note_on channel=13 note=67 velocity=127 time=0
EXTRACT: note_on channel=12 note=48 velocity=0 time=0.04629625
EXTRACT: note_on channel=14 note=48 velocity=0 time=0
EXTRACT: note_on channel=9 note=54 velocity=0 time=0.0856480625
EXTRACT: note_on channel=9 note=42 velocity=0 time=0
EXTRACT: note_on channel=9 note=54 velocity=127 time=0.0069444375
EXTRACT: note_on channel=9 note=56 velocity=127 time=0
EXTRACT: note_on channel=9 note=39 velocity=127 time=0
EXTRACT: note_on channel=9 note=42 velocity=127 time=0
EXTRACT: note_on channel=12 note=48 velocity=127 time=0
EXTRACT: note_on channel=14 note=48 velocity=127 time=0
EXTRACT: note_on channel=9 note=39 velocity=0 time=0.1319443125
EXTRACT: note_on channel=9 note=42 velocity=0 time=0
EXTRACT: note_on channel=9 note=42 velocity=127 time=0.0069444375
EXTRACT: note_on channel=10 note=67 velocity=0 time=0.04629625
EXTRACT: note_on channel=10 note=67 velocity=0 time=0
EXTRACT: note_on channel=10 note=67 velocity=0 time=0
EXTRACT: note_on channel=9 note=54 velocity=0 time=0.0856480625
EXTRACT: note_on channel=9 note=56 velocity=0 time=0
EXTRACT: note_on channel=9 note=42 velocity=0 time=0
EXTRACT: note_on channel=11 note=60 velocity=0 time=0
EXTRACT: note_on channel=11 note=63 velocity=0 time=0
EXTRACT: note_on channel=11 note=67 velocity=0 time=0
EXTRACT: note_on channel=12 note=48 velocity=0 time=0
EXTRACT: note_on channel=13 note=60 velocity=0 time=0
EXTRACT: note_on channel=13 note=63 velocity=0 time=0
EXTRACT: note_on channel=13 note=67 velocity=0 time=0
EXTRACT: note_on channel=14 note=48 velocity=0 time=0
EXTRACT: note_on channel=9 note=54 velocity=127 time=0.0069444375
EXTRACT: note_on channel=9 note=36 velocity=127 time=0
EXTRACT: note_on channel=9 note=42 velocity=127 time=0
EXTRACT: note_on channel=10 note=68 velocity=127 time=0
EXTRACT: note_on channel=11 note=60 velocity=127 time=0
EXTRACT: note_on channel=11 note=63 velocity=127 time=0
EXTRACT: note_on channel=11 note=68 velocity=127 time=0
EXTRACT: note_on channel=12 note=43 velocity=127 time=0
EXTRACT: note_on channel=13 note=60 velocity=127 time=0
EXTRACT: note_on channel=13 note=63 velocity=127 time=0
EXTRACT: note_on channel=13 note=68 velocity=127 time=0
EXTRACT: note_on channel=14 note=43 velocity=127 time=0
EXTRACT: note_on channel=10 note=68 velocity=127 time=0
EXTRACT: note_on channel=10 note=68 velocity=127 time=0
EXTRACT: note_on channel=9 note=54 velocity=0 time=0.1319443125
EXTRACT: note_on channel=9 note=36 velocity=0 time=0
EXTRACT: note_on channel=9 note=42 velocity=0 time=0
EXTRACT: note_on channel=9 note=54 velocity=127 time=0.0069444375
EXTRACT: note_on channel=9 note=56 velocity=127 time=0
EXTRACT: note_on channel=9 note=42 velocity=127 time=0
EXTRACT: note_on channel=9 note=54 velocity=0 time=0.1319443125
EXTRACT: note_on channel=9 note=56 velocity=0 time=0
EXTRACT: note_on channel=9 note=42 velocity=0 time=0
EXTRACT: note_on channel=12 note=43 velocity=0 time=0
EXTRACT: note_on channel=14 note=43 velocity=0 time=0
EXTRACT: note_on channel=9 note=54 velocity=127 time=0.0069444375
EXTRACT: note_on channel=9 note=42 velocity=127 time=0
EXTRACT: note_on channel=12 note=44 velocity=127 time=0
EXTRACT: note_on channel=14 note=44 velocity=127 time=0
EXTRACT: note_on channel=9 note=54 velocity=0 time=0.1319443125
EXTRACT: note_on channel=9 note=42 velocity=0 time=0
EXTRACT: note_on channel=9 note=46 velocity=127 time=0.0069444375
EXTRACT: note_on channel=9 note=54 velocity=127 time=0
EXTRACT: note_on channel=9 note=56 velocity=127 time=0
EXTRACT: note_on channel=9 note=36 velocity=127 time=0
EXTRACT: note_on channel=9 note=46 velocity=0 time=0.1319443125
EXTRACT: note_on channel=9 note=54 velocity=0 time=0
EXTRACT: note_on channel=9 note=56 velocity=0 time=0
EXTRACT: note_on channel=9 note=36 velocity=0 time=0
EXTRACT: note_on channel=12 note=44 velocity=0 time=0
EXTRACT: note_on channel=14 note=44 velocity=0 time=0
EXTRACT: note_on channel=9 note=54 velocity=127 time=0.0069444375
EXTRACT: note_on channel=9 note=56 velocity=127 time=0
EXTRACT: note_on channel=9 note=36 velocity=127 time=0
EXTRACT: note_on channel=9 note=42 velocity=127 time=0
EXTRACT: note_on channel=12 note=44 velocity=127 time=0
EXTRACT: note_on channel=14 note=44 velocity=127 time=0
EXTRACT: note_on channel=9 note=54 velocity=0 time=0.1319443125
EXTRACT: note_on channel=9 note=56 velocity=0 time=0
EXTRACT: note_on channel=9 note=36 velocity=0 time=0
EXTRACT: note_on channel=9 note=42 velocity=0 time=0
EXTRACT: note_on channel=9 note=56 velocity=127 time=0.0069444375
EXTRACT: note_on channel=9 note=36 velocity=127 time=0
EXTRACT: note_on channel=9 note=42 velocity=127 time=0
EXTRACT: note_on channel=10 note=68 velocity=0 time=0.04629625
EXTRACT: note_on channel=10 note=68 velocity=0 time=0
EXTRACT: note_on channel=10 note=68 velocity=0 time=0
EXTRACT: note_on channel=9 note=56 velocity=0 time=0.0856480625
EXTRACT: note_on channel=9 note=36 velocity=0 time=0
EXTRACT: note_on channel=9 note=42 velocity=0 time=0
EXTRACT: note_on channel=9 note=46 velocity=127 time=0.0069444375
EXTRACT: note_on channel=9 note=54 velocity=127 time=0
EXTRACT: note_on channel=9 note=56 velocity=127 time=0
EXTRACT: note_on channel=9 note=39 velocity=127 time=0
EXTRACT: note_on channel=10 note=63 velocity=127 time=0
EXTRACT: note_on channel=10 note=63 velocity=127 time=0
EXTRACT: note_on channel=10 note=63 velocity=127 time=0
EXTRACT: note_on channel=9 note=46 velocity=0 time=0.1319443125
EXTRACT: note_on channel=9 note=54 velocity=0 time=0
EXTRACT: note_on channel=9 note=56 velocity=0 time=0
EXTRACT: note_on channel=9 note=39 velocity=0 time=0
EXTRACT: note_on channel=9 note=54 velocity=127 time=0.0069444375
EXTRACT: note_on channel=9 note=42 velocity=127 time=0
EXTRACT: note_on channel=9 note=54 velocity=0 time=0.1319443125
EXTRACT: note_on channel=9 note=42 velocity=0 time=0
EXTRACT: note_on channel=10 note=63 velocity=0 time=0
EXTRACT: note_on channel=10 note=63 velocity=0 time=0
EXTRACT: note_on channel=10 note=63 velocity=0 time=0
EXTRACT: note_on channel=9 note=54 velocity=127 time=0.0069444375
EXTRACT: note_on channel=9 note=56 velocity=127 time=0
EXTRACT: note_on channel=9 note=36 velocity=127 time=0
EXTRACT: note_on channel=9 note=42 velocity=127 time=0
EXTRACT: note_on channel=10 note=63 velocity=127 time=0
EXTRACT: note_on channel=10 note=63 velocity=127 time=0
EXTRACT: note_on channel=10 note=63 velocity=127 time=0
EXTRACT: note_on channel=9 note=54 velocity=0 time=0.1319443125
EXTRACT: note_on channel=9 note=56 velocity=0 time=0
EXTRACT: note_on channel=9 note=36 velocity=0 time=0
EXTRACT: note_on channel=9 note=42 velocity=0 time=0
EXTRACT: note_on channel=9 note=54 velocity=127 time=0.0069444375
EXTRACT: note_on channel=9 note=42 velocity=127 time=0
EXTRACT: note_on channel=11 note=60 velocity=0 time=0
EXTRACT: note_on channel=11 note=63 velocity=0 time=0
EXTRACT: note_on channel=11 note=68 velocity=0 time=0
EXTRACT: note_on channel=13 note=60 velocity=0 time=0
EXTRACT: note_on channel=13 note=63 velocity=0 time=0
EXTRACT: note_on channel=13 note=68 velocity=0 time=0
EXTRACT: note_on channel=12 note=44 velocity=0 time=0.04629625
EXTRACT: note_on channel=14 note=44 velocity=0 time=0
EXTRACT: note_on channel=9 note=54 velocity=0 time=0.0856480625
EXTRACT: note_on channel=9 note=42 velocity=0 time=0
EXTRACT: note_on channel=10 note=63 velocity=0 time=0
EXTRACT: note_on channel=10 note=63 velocity=0 time=0
EXTRACT: note_on channel=10 note=63 velocity=0 time=0
EXTRACT: note_on channel=9 note=46 velocity=127 time=0
EXTRACT: note_on channel=9 note=54 velocity=127 time=0
EXTRACT: note_on channel=9 note=56 velocity=127 time=0
EXTRACT: note_on channel=9 note=36 velocity=127 time=0
EXTRACT: note_on channel=10 note=70 velocity=127 time=0
EXTRACT: note_on channel=11 note=62 velocity=127 time=0
EXTRACT: note_on channel=11 note=65 velocity=127 time=0
EXTRACT: note_on channel=11 note=70 velocity=127 time=0
EXTRACT: note_on channel=12 note=46 velocity=127 time=0
EXTRACT: note_on channel=13 note=62 velocity=127 time=0
EXTRACT: note_on channel=13 note=65 velocity=127 time=0
EXTRACT: note_on channel=13 note=70 velocity=127 time=0
EXTRACT: note_on channel=14 note=46 velocity=127 time=0
EXTRACT: note_on channel=10 note=70 velocity=127 time=0
EXTRACT: note_on channel=10 note=70 velocity=127 time=0
EXTRACT: note_on channel=9 note=46 velocity=0 time=0.1319443125
EXTRACT: note_on channel=9 note=54 velocity=0 time=0
EXTRACT: note_on channel=9 note=56 velocity=0 time=0
EXTRACT: note_on channel=9 note=36 velocity=0 time=0
EXTRACT: note_on channel=9 note=54 velocity=127 time=0.0069444375
EXTRACT: note_on channel=9 note=42 velocity=127 time=0
EXTRACT: note_on channel=9 note=54 velocity=0 time=0.1319443125
EXTRACT: note_on channel=9 note=46 velocity=127 time=0.0069444375
EXTRACT: note_on channel=9 note=54 velocity=127 time=0
EXTRACT: note_on channel=9 note=56 velocity=127 time=0
EXTRACT: note_on channel=9 note=46 velocity=0 time=0.1319443125
EXTRACT: note_on channel=9 note=54 velocity=0 time=0
EXTRACT: note_on channel=9 note=56 velocity=0 time=0
EXTRACT: note_on channel=9 note=42 velocity=0 time=0
EXTRACT: note_on channel=10 note=70 velocity=0 time=0
EXTRACT: note_on channel=11 note=62 velocity=0 time=0
EXTRACT: note_on channel=11 note=65 velocity=0 time=0
EXTRACT: note_on channel=11 note=70 velocity=0 time=0
EXTRACT: note_on channel=13 note=62 velocity=0 time=0
EXTRACT: note_on channel=13 note=65 velocity=0 time=0
EXTRACT: note_on channel=13 note=70 velocity=0 time=0
EXTRACT: note_on channel=10 note=70 velocity=0 time=0
EXTRACT: note_on channel=10 note=70 velocity=0 time=0
EXTRACT: note_on channel=9 note=54 velocity=127 time=0.0069444375
EXTRACT: note_on channel=9 note=42 velocity=127 time=0
EXTRACT: note_on channel=10 note=68 velocity=127 time=0
EXTRACT: note_on channel=11 note=68 velocity=127 time=0
EXTRACT: note_on channel=13 note=68 velocity=127 time=0
EXTRACT: note_on channel=10 note=68 velocity=127 time=0
EXTRACT: note_on channel=10 note=68 velocity=127 time=0
EXTRACT: note_on channel=9 note=54 velocity=0 time=0.1319443125
EXTRACT: note_on channel=9 note=42 velocity=0 time=0
EXTRACT: note_on channel=9 note=54 velocity=127 time=0.0069444375
EXTRACT: note_on channel=9 note=56 velocity=127 time=0
EXTRACT: note_on channel=9 note=39 velocity=127 time=0
EXTRACT: note_on channel=9 note=42 velocity=127 time=0
EXTRACT: note_on channel=9 note=39 velocity=0 time=0.1319443125
EXTRACT: note_on channel=9 note=42 velocity=0 time=0
EXTRACT: note_on channel=9 note=42 velocity=127 time=0.0069444375
EXTRACT: note_on channel=12 note=46 velocity=0 time=0.04629625
EXTRACT: note_on channel=14 note=46 velocity=0 time=0
EXTRACT: note_on channel=9 note=54 velocity=0 time=0.0856480625
EXTRACT: note_on channel=9 note=56 velocity=0 time=0
EXTRACT: note_on channel=9 note=42 velocity=0 time=0
EXTRACT: note_on channel=10 note=68 velocity=0 time=0
EXTRACT: note_on channel=11 note=68 velocity=0 time=0
EXTRACT: note_on channel=13 note=68 velocity=0 time=0
EXTRACT: note_on channel=10 note=68 velocity=0 time=0
EXTRACT: note_on channel=10 note=68 velocity=0 time=0
EXTRACT: note_on channel=9 note=54 velocity=127 time=0.0069444375
EXTRACT: note_on channel=9 note=36 velocity=127 time=0
EXTRACT: note_on channel=9 note=42 velocity=127 time=0
EXTRACT: note_on channel=10 note=67 velocity=127 time=0
EXTRACT: note_on channel=11 note=58 velocity=127 time=0
EXTRACT: note_on channel=11 note=63 velocity=127 time=0
EXTRACT: note_on channel=11 note=67 velocity=127 time=0
EXTRACT: note_on channel=12 note=38 velocity=127 time=0
EXTRACT: note_on channel=13 note=58 velocity=127 time=0
EXTRACT: note_on channel=13 note=63 velocity=127 time=0
EXTRACT: note_on channel=13 note=67 velocity=127 time=0
EXTRACT: note_on channel=14 note=38 velocity=127 time=0
EXTRACT: note_on channel=10 note=67 velocity=127 time=0
EXTRACT: note_on channel=10 note=67 velocity=127 time=0
EXTRACT: note_on channel=9 note=54 velocity=0 time=0.1319443125
EXTRACT: note_on channel=9 note=36 velocity=0 time=0
EXTRACT: note_on channel=9 note=42 velocity=0 time=0
EXTRACT: note_on channel=9 note=54 velocity=127 time=0.0069444375
EXTRACT: note_on channel=9 note=56 velocity=127 time=0
EXTRACT: note_on channel=9 note=42 velocity=127 time=0
EXTRACT: note_on channel=9 note=54 velocity=0 time=0.1319443125
EXTRACT: note_on channel=9 note=56 velocity=0 time=0
EXTRACT: note_on channel=9 note=42 velocity=0 time=0
EXTRACT: note_on channel=12 note=38 velocity=0 time=0
EXTRACT: note_on channel=14 note=38 velocity=0 time=0
EXTRACT: note_on channel=9 note=54 velocity=127 time=0.0069444375
EXTRACT: note_on channel=9 note=42 velocity=127 time=0
EXTRACT: note_on channel=12 note=39 velocity=127 time=0
EXTRACT: note_on channel=14 note=39 velocity=127 time=0
EXTRACT: note_on channel=9 note=54 velocity=0 time=0.1319443125
EXTRACT: note_on channel=9 note=42 velocity=0 time=0
EXTRACT: note_on channel=11 note=67 velocity=0 time=0
EXTRACT: note_on channel=13 note=67 velocity=0 time=0
EXTRACT: note_on channel=9 note=46 velocity=127 time=0.0069444375
EXTRACT: note_on channel=9 note=54 velocity=127 time=0
EXTRACT: note_on channel=9 note=56 velocity=127 time=0
EXTRACT: note_on channel=9 note=36 velocity=127 time=0
EXTRACT: note_on channel=10 note=67 velocity=0 time=0
EXTRACT: note_on channel=10 note=65 velocity=127 time=0
EXTRACT: note_on channel=11 note=65 velocity=127 time=0
EXTRACT: note_on channel=13 note=65 velocity=127 time=0
EXTRACT: note_on channel=10 note=67 velocity=0 time=0
EXTRACT: note_on channel=10 note=65 velocity=127 time=0
EXTRACT: note_on channel=10 note=67 velocity=0 time=0
EXTRACT: note_on channel=10 note=65 velocity=127 time=0
EXTRACT: note_on channel=9 note=46 velocity=0 time=0.1319443125
EXTRACT: note_on channel=9 note=54 velocity=0 time=0
EXTRACT: note_on channel=9 note=56 velocity=0 time=0
EXTRACT: note_on channel=9 note=36 velocity=0 time=0
EXTRACT: note_on channel=11 note=58 velocity=0 time=0
EXTRACT: note_on channel=11 note=63 velocity=0 time=0
EXTRACT: note_on channel=11 note=65 velocity=0 time=0
EXTRACT: note_on channel=12 note=39 velocity=0 time=0
EXTRACT: note_on channel=13 note=58 velocity=0 time=0
EXTRACT: note_on channel=13 note=63 velocity=0 time=0
EXTRACT: note_on channel=13 note=65 velocity=0 time=0
EXTRACT: note_on channel=14 note=39 velocity=0 time=0
EXTRACT: note_on channel=9 note=54 velocity=127 time=0.0069444375
EXTRACT: note_on channel=9 note=56 velocity=127 time=0
EXTRACT: note_on channel=9 note=36 velocity=127 time=0
EXTRACT: note_on channel=9 note=42 velocity=127 time=0
EXTRACT: note_on channel=10 note=65 velocity=0 time=0
EXTRACT: note_on channel=10 note=63 velocity=127 time=0
EXTRACT: note_on channel=11 note=63 velocity=127 time=0
EXTRACT: note_on channel=12 note=39 velocity=127 time=0
EXTRACT: note_on channel=13 note=63 velocity=127 time=0
EXTRACT: note_on channel=14 note=39 velocity=127 time=0
EXTRACT: note_on channel=10 note=65 velocity=0 time=0
EXTRACT: note_on channel=10 note=63 velocity=127 time=0
EXTRACT: note_on channel=10 note=65 velocity=0 time=0
EXTRACT: note_on channel=10 note=63 velocity=127 time=0
EXTRACT: note_on channel=9 note=54 velocity=0 time=0.1319443125
EXTRACT: note_on channel=9 note=56 velocity=0 time=0
EXTRACT: note_on channel=9 note=36 velocity=0 time=0
EXTRACT: note_on channel=9 note=42 velocity=0 time=0
EXTRACT: note_on channel=9 note=56 velocity=127 time=0.0069444375
EXTRACT: note_on channel=9 note=36 velocity=127 time=0
EXTRACT: note_on channel=9 note=42 velocity=127 time=0
EXTRACT: note_on channel=9 note=56 velocity=0 time=0.1319443125
EXTRACT: note_on channel=9 note=36 velocity=0 time=0
EXTRACT: note_on channel=9 note=42 velocity=0 time=0
EXTRACT: note_on channel=10 note=63 velocity=0 time=0
EXTRACT: note_on channel=11 note=63 velocity=0 time=0
EXTRACT: note_on channel=12 note=39 velocity=0 time=0
EXTRACT: note_on channel=13 note=63 velocity=0 time=0
EXTRACT: note_on channel=14 note=39 velocity=0 time=0
EXTRACT: note_on channel=10 note=63 velocity=0 time=0
EXTRACT: note_on channel=10 note=63 velocity=0 time=0
EXTRACT: note_on channel=9 note=46 velocity=127 time=0.0069444375
EXTRACT: note_on channel=9 note=54 velocity=127 time=0
EXTRACT: note_on channel=9 note=56 velocity=127 time=0
EXTRACT: note_on channel=9 note=39 velocity=127 time=0
EXTRACT: note_on channel=11 note=58 velocity=127 time=0
EXTRACT: note_on channel=11 note=65 velocity=127 time=0
EXTRACT: note_on channel=12 note=38 velocity=127 time=0
EXTRACT: note_on channel=13 note=58 velocity=127 time=0
EXTRACT: note_on channel=13 note=65 velocity=127 time=0
EXTRACT: note_on channel=14 note=38 velocity=127 time=0
EXTRACT: note_on channel=9 note=46 velocity=0 time=0.1319443125
EXTRACT: note_on channel=9 note=54 velocity=0 time=0
EXTRACT: note_on channel=9 note=56 velocity=0 time=0
EXTRACT: note_on channel=9 note=39 velocity=0 time=0
EXTRACT: note_on channel=9 note=54 velocity=127 time=0.0069444375
EXTRACT: note_on channel=9 note=42 velocity=127 time=0
EXTRACT: note_on channel=9 note=54 velocity=0 time=0.1319443125
EXTRACT: note_on channel=9 note=42 velocity=0 time=0
EXTRACT: note_on channel=9 note=54 velocity=127 time=0.0069444375
EXTRACT: note_on channel=9 note=56 velocity=127 time=0
EXTRACT: note_on channel=9 note=36 velocity=127 time=0
EXTRACT: note_on channel=9 note=42 velocity=127 time=0
EXTRACT: note_on channel=9 note=54 velocity=0 time=0.1319443125
EXTRACT: note_on channel=9 note=56 velocity=0 time=0
EXTRACT: note_on channel=9 note=36 velocity=0 time=0
EXTRACT: note_on channel=9 note=42 velocity=0 time=0
EXTRACT: note_on channel=9 note=54 velocity=127 time=0.0069444375
EXTRACT: note_on channel=9 note=42 velocity=127 time=0
EXTRACT: note_on channel=11 note=58 velocity=0 time=0.04629625
EXTRACT: note_on channel=11 note=65 velocity=0 time=0
EXTRACT: note_on channel=12 note=38 velocity=0 time=0
EXTRACT: note_on channel=13 note=58 velocity=0 time=0
EXTRACT: note_on channel=13 note=65 velocity=0 time=0
EXTRACT: note_on channel=14 note=38 velocity=0 time=0
EXTRACT: note_on channel=9 note=54 velocity=0 time=0.0856480625
EXTRACT: note_on channel=9 note=42 velocity=0 time=0
EXTRACT: note_on channel=9 note=46 velocity=127 time=0
EXTRACT: note_on channel=9 note=54 velocity=127 time=0
EXTRACT: note_on channel=9 note=56 velocity=127 time=0
EXTRACT: note_on channel=9 note=36 velocity=127 time=0
EXTRACT: note_on channel=10 note=67 velocity=127 time=0
EXTRACT: note_on channel=11 note=60 velocity=127 time=0
EXTRACT: note_on channel=11 note=63 velocity=127 time=0
EXTRACT: note_on channel=11 note=67 velocity=127 time=0
EXTRACT: note_on channel=12 note=38 velocity=127 time=0
EXTRACT: note_on channel=13 note=60 velocity=127 time=0
EXTRACT: note_on channel=13 note=63 velocity=127 time=0
EXTRACT: note_on channel=13 note=67 velocity=127 time=0
EXTRACT: note_on channel=14 note=38 velocity=127 time=0
EXTRACT: note_on channel=10 note=67 velocity=127 time=0
EXTRACT: note_on channel=10 note=67 velocity=127 time=0
EXTRACT: note_on channel=9 note=46 velocity=0 time=0.1319443125
EXTRACT: note_on channel=9 note=54 velocity=0 time=0
EXTRACT: note_on channel=9 note=56 velocity=0 time=0
EXTRACT: note_on channel=9 note=36 velocity=0 time=0
EXTRACT: note_on channel=9 note=54 velocity=127 time=0.0069444375
EXTRACT: note_on channel=9 note=42 velocity=127 time=0
EXTRACT: note_on channel=9 note=54 velocity=0 time=0.1319443125
EXTRACT: note_on channel=10 note=67 velocity=0 time=0
EXTRACT: note_on channel=11 note=60 velocity=0 time=0
EXTRACT: note_on channel=11 note=63 velocity=0 time=0
EXTRACT: note_on channel=11 note=67 velocity=0 time=0
EXTRACT: note_on channel=13 note=60 velocity=0 time=0
EXTRACT: note_on channel=13 note=63 velocity=0 time=0
EXTRACT: note_on channel=13 note=67 velocity=0 time=0
EXTRACT: note_on channel=10 note=67 velocity=0 time=0
EXTRACT: note_on channel=10 note=67 velocity=0 time=0
EXTRACT: note_on channel=9 note=46 velocity=127 time=0.0069444375
EXTRACT: note_on channel=9 note=54 velocity=127 time=0
EXTRACT: note_on channel=9 note=56 velocity=127 time=0
EXTRACT: note_on channel=10 note=68 velocity=127 time=0
EXTRACT: note_on channel=11 note=68 velocity=127 time=0
EXTRACT: note_on channel=13 note=68 velocity=127 time=0
EXTRACT: note_on channel=10 note=68 velocity=127 time=0
EXTRACT: note_on channel=10 note=68 velocity=127 time=0
EXTRACT: note_on channel=9 note=46 velocity=0 time=0.1319443125
EXTRACT: note_on channel=9 note=54 velocity=0 time=0
EXTRACT: note_on channel=9 note=56 velocity=0 time=0
EXTRACT: note_on channel=9 note=42 velocity=0 time=0
EXTRACT: note_on channel=9 note=54 velocity=127 time=0.0069444375
EXTRACT: note_on channel=9 note=42 velocity=127 time=0
EXTRACT: note_on channel=12 note=38 velocity=0 time=0.04629625
EXTRACT: note_on channel=14 note=38 velocity=0 time=0
EXTRACT: note_on channel=9 note=54 velocity=0 time=0.0856480625
EXTRACT: note_on channel=9 note=42 velocity=0 time=0
EXTRACT: note_on channel=10 note=68 velocity=0 time=0
EXTRACT: note_on channel=11 note=68 velocity=0 time=0
EXTRACT: note_on channel=13 note=68 velocity=0 time=0
EXTRACT: note_on channel=10 note=68 velocity=0 time=0
EXTRACT: note_on channel=10 note=68 velocity=0 time=0
EXTRACT: note_on channel=9 note=54 velocity=127 time=0.0069444375
EXTRACT: note_on channel=9 note=56 velocity=127 time=0
EXTRACT: note_on channel=9 note=39 velocity=127 time=0
EXTRACT: note_on channel=9 note=42 velocity=127 time=0
EXTRACT: note_on channel=10 note=67 velocity=127 time=0
EXTRACT: note_on channel=11 note=67 velocity=127 time=0
EXTRACT: note_on channel=12 note=38 velocity=127 time=0
EXTRACT: note_on channel=13 note=67 velocity=127 time=0
EXTRACT: note_on channel=14 note=38 velocity=127 time=0
EXTRACT: note_on channel=10 note=67 velocity=127 time=0
EXTRACT: note_on channel=10 note=67 velocity=127 time=0
EXTRACT: note_on channel=9 note=39 velocity=0 time=0.1319443125
EXTRACT: note_on channel=9 note=42 velocity=0 time=0
EXTRACT: note_on channel=9 note=42 velocity=127 time=0.0069444375
EXTRACT: note_on channel=9 note=54 velocity=0 time=0.1319443125
EXTRACT: note_on channel=9 note=56 velocity=0 time=0
EXTRACT: note_on channel=9 note=42 velocity=0 time=0
EXTRACT: note_on channel=10 note=67 velocity=0 time=0
EXTRACT: note_on channel=11 note=67 velocity=0 time=0
EXTRACT: note_on channel=12 note=38 velocity=0 time=0
EXTRACT: note_on channel=13 note=67 velocity=0 time=0
EXTRACT: note_on channel=14 note=38 velocity=0 time=0
EXTRACT: note_on channel=10 note=67 velocity=0 time=0
EXTRACT: note_on channel=10 note=67 velocity=0 time=0
EXTRACT: note_on channel=9 note=54 velocity=127 time=0.0069444375
EXTRACT: note_on channel=9 note=36 velocity=127 time=0
EXTRACT: note_on channel=9 note=42 velocity=127 time=0
EXTRACT: note_on channel=10 note=68 velocity=127 time=0
EXTRACT: note_on channel=11 note=60 velocity=127 time=0
EXTRACT: note_on channel=11 note=63 velocity=127 time=0
EXTRACT: note_on channel=11 note=68 velocity=127 time=0
EXTRACT: note_on channel=12 note=43 velocity=127 time=0
EXTRACT: note_on channel=13 note=60 velocity=127 time=0
EXTRACT: note_on channel=13 note=63 velocity=127 time=0
EXTRACT: note_on channel=13 note=68 velocity=127 time=0
EXTRACT: note_on channel=14 note=43 velocity=127 time=0
EXTRACT: note_on channel=10 note=68 velocity=127 time=0
EXTRACT: note_on channel=10 note=68 velocity=127 time=0
EXTRACT: note_on channel=9 note=54 velocity=0 time=0.1319443125
EXTRACT: note_on channel=9 note=36 velocity=0 time=0
EXTRACT: note_on channel=9 note=42 velocity=0 time=0
EXTRACT: note_on channel=9 note=54 velocity=127 time=0.0069444375
EXTRACT: note_on channel=9 note=56 velocity=127 time=0
EXTRACT: note_on channel=9 note=42 velocity=127 time=0
EXTRACT: note_on channel=9 note=54 velocity=0 time=0.1319443125
EXTRACT: note_on channel=9 note=56 velocity=0 time=0
EXTRACT: note_on channel=9 note=42 velocity=0 time=0
EXTRACT: note_on channel=10 note=68 velocity=0 time=0
EXTRACT: note_on channel=11 note=60 velocity=0 time=0
EXTRACT: note_on channel=11 note=63 velocity=0 time=0
EXTRACT: note_on channel=11 note=68 velocity=0 time=0
EXTRACT: note_on channel=12 note=43 velocity=0 time=0
EXTRACT: note_on channel=13 note=60 velocity=0 time=0
EXTRACT: note_on channel=13 note=63 velocity=0 time=0
EXTRACT: note_on channel=13 note=68 velocity=0 time=0
EXTRACT: note_on channel=14 note=43 velocity=0 time=0
EXTRACT: note_on channel=10 note=68 velocity=0 time=0
EXTRACT: note_on channel=10 note=68 velocity=0 time=0
EXTRACT: note_on channel=9 note=54 velocity=127 time=0.0069444375
EXTRACT: note_on channel=9 note=42 velocity=127 time=0
EXTRACT: note_on channel=10 note=67 velocity=127 time=0
EXTRACT: note_on channel=11 note=67 velocity=127 time=0
EXTRACT: note_on channel=12 note=44 velocity=127 time=0
EXTRACT: note_on channel=13 note=67 velocity=127 time=0
EXTRACT: note_on channel=14 note=44 velocity=127 time=0
EXTRACT: note_on channel=10 note=67 velocity=127 time=0
EXTRACT: note_on channel=10 note=67 velocity=127 time=0
EXTRACT: note_on channel=9 note=54 velocity=0 time=0.1319443125
EXTRACT: note_on channel=9 note=42 velocity=0 time=0
EXTRACT: note_on channel=9 note=46 velocity=127 time=0.0069444375
EXTRACT: note_on channel=9 note=54 velocity=127 time=0
EXTRACT: note_on channel=9 note=56 velocity=127 time=0
EXTRACT: note_on channel=9 note=36 velocity=127 time=0
EXTRACT: note_on channel=9 note=46 velocity=0 time=0.1319443125
EXTRACT: note_on channel=9 note=54 velocity=0 time=0
EXTRACT: note_on channel=9 note=56 velocity=0 time=0
EXTRACT: note_on channel=9 note=36 velocity=0 time=0
EXTRACT: note_on channel=10 note=67 velocity=0 time=0
EXTRACT: note_on channel=11 note=67 velocity=0 time=0
EXTRACT: note_on channel=12 note=44 velocity=0 time=0
EXTRACT: note_on channel=13 note=67 velocity=0 time=0
EXTRACT: note_on channel=14 note=44 velocity=0 time=0
EXTRACT: note_on channel=10 note=67 velocity=0 time=0
EXTRACT: note_on channel=10 note=67 velocity=0 time=0
EXTRACT: note_on channel=9 note=54 velocity=127 time=0.0069444375
EXTRACT: note_on channel=9 note=56 velocity=127 time=0
EXTRACT: note_on channel=9 note=36 velocity=127 time=0
EXTRACT: note_on channel=9 note=42 velocity=127 time=0
EXTRACT: note_on channel=10 note=65 velocity=127 time=0
EXTRACT: note_on channel=11 note=65 velocity=127 time=0
EXTRACT: note_on channel=12 note=44 velocity=127 time=0
EXTRACT: note_on channel=13 note=65 velocity=127 time=0
EXTRACT: note_on channel=14 note=44 velocity=127 time=0
EXTRACT: note_on channel=10 note=65 velocity=127 time=0
EXTRACT: note_on channel=10 note=65 velocity=127 time=0
EXTRACT: note_on channel=9 note=54 velocity=0 time=0.1319443125
EXTRACT: note_on channel=9 note=56 velocity=0 time=0
EXTRACT: note_on channel=9 note=36 velocity=0 time=0
EXTRACT: note_on channel=9 note=42 velocity=0 time=0
EXTRACT: note_on channel=9 note=56 velocity=127 time=0.0069444375
EXTRACT: note_on channel=9 note=36 velocity=127 time=0
EXTRACT: note_on channel=9 note=42 velocity=127 time=0
EXTRACT: note_on channel=9 note=56 velocity=0 time=0.1319443125
EXTRACT: note_on channel=9 note=36 velocity=0 time=0
EXTRACT: note_on channel=9 note=42 velocity=0 time=0
EXTRACT: note_on channel=10 note=65 velocity=0 time=0
EXTRACT: note_on channel=11 note=65 velocity=0 time=0
EXTRACT: note_on channel=13 note=65 velocity=0 time=0
EXTRACT: note_on channel=10 note=65 velocity=0 time=0
EXTRACT: note_on channel=10 note=65 velocity=0 time=0
EXTRACT: note_on channel=9 note=46 velocity=127 time=0.0069444375
EXTRACT: note_on channel=9 note=54 velocity=127 time=0
EXTRACT: note_on channel=9 note=56 velocity=127 time=0
EXTRACT: note_on channel=9 note=39 velocity=127 time=0
EXTRACT: note_on channel=10 note=63 velocity=127 time=0
EXTRACT: note_on channel=11 note=63 velocity=127 time=0
EXTRACT: note_on channel=13 note=63 velocity=127 time=0
EXTRACT: note_on channel=10 note=63 velocity=127 time=0
EXTRACT: note_on channel=10 note=63 velocity=127 time=0
EXTRACT: note_on channel=9 note=46 velocity=0 time=0.1319443125
EXTRACT: note_on channel=9 note=54 velocity=0 time=0
EXTRACT: note_on channel=9 note=56 velocity=0 time=0
EXTRACT: note_on channel=9 note=39 velocity=0 time=0
EXTRACT: note_on channel=9 note=54 velocity=127 time=0.0069444375
EXTRACT: note_on channel=9 note=42 velocity=127 time=0
EXTRACT: note_on channel=12 note=44 velocity=0 time=0.04629625
EXTRACT: note_on channel=14 note=44 velocity=0 time=0
EXTRACT: note_on channel=9 note=54 velocity=0 time=0.0856480625
EXTRACT: note_on channel=9 note=42 velocity=0 time=0
EXTRACT: note_on channel=10 note=63 velocity=0 time=0
EXTRACT: note_on channel=11 note=63 velocity=0 time=0
EXTRACT: note_on channel=13 note=63 velocity=0 time=0
EXTRACT: note_on channel=10 note=63 velocity=0 time=0
EXTRACT: note_on channel=10 note=63 velocity=0 time=0
EXTRACT: note_on channel=9 note=54 velocity=127 time=0.0069444375
EXTRACT: note_on channel=9 note=56 velocity=127 time=0
EXTRACT: note_on channel=9 note=36 velocity=127 time=0
EXTRACT: note_on channel=9 note=42 velocity=127 time=0
EXTRACT: note_on channel=10 note=60 velocity=127 time=0
EXTRACT: note_on channel=11 note=60 velocity=127 time=0
EXTRACT: note_on channel=12 note=44 velocity=127 time=0
EXTRACT: note_on channel=13 note=60 velocity=127 time=0
EXTRACT: note_on channel=14 note=44 velocity=127 time=0
EXTRACT: note_on channel=10 note=60 velocity=127 time=0
EXTRACT: note_on channel=10 note=60 velocity=127 time=0
EXTRACT: note_on channel=9 note=54 velocity=0 time=0.1319443125
EXTRACT: note_on channel=9 note=56 velocity=0 time=0
EXTRACT: note_on channel=9 note=36 velocity=0 time=0
EXTRACT: note_on channel=9 note=42 velocity=0 time=0
EXTRACT: note_on channel=9 note=54 velocity=127 time=0.0069444375
EXTRACT: note_on channel=9 note=42 velocity=127 time=0
EXTRACT: note_on channel=9 note=54 velocity=0 time=0.1319443125
EXTRACT: note_on channel=9 note=42 velocity=0 time=0
EXTRACT: note_on channel=10 note=60 velocity=0 time=0
EXTRACT: note_on channel=11 note=60 velocity=0 time=0
EXTRACT: note_on channel=12 note=44 velocity=0 time=0
EXTRACT: note_on channel=13 note=60 velocity=0 time=0
EXTRACT: note_on channel=14 note=44 velocity=0 time=0
EXTRACT: note_on channel=10 note=60 velocity=0 time=0
EXTRACT: note_on channel=10 note=60 velocity=0 time=0
EXTRACT: note_on channel=9 note=46 velocity=127 time=0
EXTRACT: note_on channel=9 note=54 velocity=127 time=0
EXTRACT: note_on channel=9 note=56 velocity=127 time=0
EXTRACT: note_on channel=9 note=36 velocity=127 time=0
EXTRACT: note_on channel=10 note=59 velocity=127 time=0
EXTRACT: note_on channel=11 note=55 velocity=127 time=0
EXTRACT: note_on channel=11 note=59 velocity=127 time=0
EXTRACT: note_on channel=12 note=43 velocity=127 time=0
EXTRACT: note_on channel=13 note=55 velocity=127 time=0
EXTRACT: note_on channel=13 note=59 velocity=127 time=0
EXTRACT: note_on channel=14 note=43 velocity=127 time=0
EXTRACT: note_on channel=10 note=59 velocity=127 time=0
EXTRACT: note_on channel=10 note=59 velocity=127 time=0
EXTRACT: note_on channel=9 note=46 velocity=0 time=0.1319443125
EXTRACT: note_on channel=9 note=54 velocity=0 time=0
EXTRACT: note_on channel=9 note=56 velocity=0 time=0
EXTRACT: note_on channel=9 note=36 velocity=0 time=0
EXTRACT: note_on channel=9 note=54 velocity=127 time=0.0069444375
EXTRACT: note_on channel=9 note=42 velocity=127 time=0
EXTRACT: note_on channel=9 note=54 velocity=0 time=0.1319443125
EXTRACT: note_on channel=9 note=46 velocity=127 time=0.0069444375
EXTRACT: note_on channel=9 note=54 velocity=127 time=0
EXTRACT: note_on channel=9 note=56 velocity=127 time=0
EXTRACT: note_on channel=9 note=46 velocity=0 time=0.1319443125
EXTRACT: note_on channel=9 note=54 velocity=0 time=0
EXTRACT: note_on channel=9 note=56 velocity=0 time=0
EXTRACT: note_on channel=9 note=42 velocity=0 time=0
EXTRACT: note_on channel=10 note=59 velocity=0 time=0
EXTRACT: note_on channel=11 note=55 velocity=0 time=0
EXTRACT: note_on channel=11 note=59 velocity=0 time=0
EXTRACT: note_on channel=13 note=55 velocity=0 time=0
EXTRACT: note_on channel=13 note=59 velocity=0 time=0
EXTRACT: note_on channel=10 note=59 velocity=0 time=0
EXTRACT: note_on channel=10 note=59 velocity=0 time=0
EXTRACT: note_on channel=9 note=54 velocity=127 time=0.0069444375
EXTRACT: note_on channel=9 note=42 velocity=127 time=0
EXTRACT: note_on channel=10 note=62 velocity=127 time=0
EXTRACT: note_on channel=11 note=55 velocity=127 time=0
EXTRACT: note_on channel=11 note=59 velocity=127 time=0
EXTRACT: note_on channel=11 note=62 velocity=127 time=0
EXTRACT: note_on channel=13 note=55 velocity=127 time=0
EXTRACT: note_on channel=13 note=59 velocity=127 time=0
EXTRACT: note_on channel=13 note=62 velocity=127 time=0
EXTRACT: note_on channel=10 note=62 velocity=127 time=0
EXTRACT: note_on channel=10 note=62 velocity=127 time=0
EXTRACT: note_on channel=12 note=43 velocity=0 time=0.04629625
EXTRACT: note_on channel=14 note=43 velocity=0 time=0
EXTRACT: note_on channel=9 note=54 velocity=0 time=0.0856480625
EXTRACT: note_on channel=9 note=42 velocity=0 time=0
EXTRACT: note_on channel=9 note=54 velocity=127 time=0.0069444375
EXTRACT: note_on channel=9 note=56 velocity=127 time=0
EXTRACT: note_on channel=9 note=39 velocity=127 time=0
EXTRACT: note_on channel=9 note=42 velocity=127 time=0
EXTRACT: note_on channel=12 note=43 velocity=127 time=0
EXTRACT: note_on channel=14 note=43 velocity=127 time=0
EXTRACT: note_on channel=9 note=39 velocity=0 time=0.1319443125
EXTRACT: note_on channel=9 note=42 velocity=0 time=0
EXTRACT: note_on channel=9 note=42 velocity=127 time=0.0069444375
EXTRACT: note_on channel=9 note=54 velocity=0 time=0.1319443125
EXTRACT: note_on channel=9 note=56 velocity=0 time=0
EXTRACT: note_on channel=9 note=42 velocity=0 time=0
EXTRACT: note_on channel=10 note=62 velocity=0 time=0
EXTRACT: note_on channel=11 note=55 velocity=0 time=0
EXTRACT: note_on channel=11 note=59 velocity=0 time=0
EXTRACT: note_on channel=11 note=62 velocity=0 time=0
EXTRACT: note_on channel=12 note=43 velocity=0 time=0
EXTRACT: note_on channel=13 note=55 velocity=0 time=0
EXTRACT: note_on channel=13 note=59 velocity=0 time=0
EXTRACT: note_on channel=13 note=62 velocity=0 time=0
EXTRACT: note_on channel=14 note=43 velocity=0 time=0
EXTRACT: note_on channel=10 note=62 velocity=0 time=0
EXTRACT: note_on channel=10 note=62 velocity=0 time=0
EXTRACT: note_on channel=9 note=54 velocity=127 time=0.0069444375
EXTRACT: note_on channel=9 note=36 velocity=127 time=0
EXTRACT: note_on channel=9 note=42 velocity=127 time=0
EXTRACT: note_on channel=10 note=60 velocity=127 time=0
EXTRACT: note_on channel=11 note=52 velocity=127 time=0
EXTRACT: note_on channel=11 note=55 velocity=127 time=0
EXTRACT: note_on channel=11 note=60 velocity=127 time=0
EXTRACT: note_on channel=12 note=47 velocity=127 time=0
EXTRACT: note_on channel=13 note=51 velocity=127 time=0
EXTRACT: note_on channel=13 note=55 velocity=127 time=0
EXTRACT: note_on channel=13 note=60 velocity=127 time=0
EXTRACT: note_on channel=14 note=47 velocity=127 time=0
EXTRACT: note_on channel=10 note=60 velocity=127 time=0
EXTRACT: note_on channel=10 note=60 velocity=127 time=0
EXTRACT: note_on channel=9 note=54 velocity=0 time=0.1319443125
EXTRACT: note_on channel=9 note=36 velocity=0 time=0
EXTRACT: note_on channel=9 note=42 velocity=0 time=0
EXTRACT: note_on channel=9 note=54 velocity=127 time=0.0069444375
EXTRACT: note_on channel=9 note=56 velocity=127 time=0
EXTRACT: note_on channel=9 note=42 velocity=127 time=0
EXTRACT: note_on channel=9 note=54 velocity=0 time=0.1319443125
EXTRACT: note_on channel=9 note=56 velocity=0 time=0
EXTRACT: note_on channel=9 note=42 velocity=0 time=0
EXTRACT: note_on channel=12 note=47 velocity=0 time=0
EXTRACT: note_on channel=14 note=47 velocity=0 time=0
EXTRACT: note_on channel=9 note=54 velocity=127 time=0.0069444375
EXTRACT: note_on channel=9 note=42 velocity=127 time=0
EXTRACT: note_on channel=12 note=48 velocity=127 time=0
EXTRACT: note_on channel=14 note=48 velocity=127 time=0
EXTRACT: note_on channel=9 note=54 velocity=0 time=0.1319443125
EXTRACT: note_on channel=9 note=42 velocity=0 time=0
EXTRACT: note_on channel=9 note=46 velocity=127 time=0.0069444375
EXTRACT: note_on channel=9 note=54 velocity=127 time=0
EXTRACT: note_on channel=9 note=56 velocity=127 time=0
EXTRACT: note_on channel=9 note=36 velocity=127 time=0
EXTRACT: note_on channel=9 note=46 velocity=0 time=0.1319443125
EXTRACT: note_on channel=9 note=54 velocity=0 time=0
EXTRACT: note_on channel=9 note=56 velocity=0 time=0
EXTRACT: note_on channel=9 note=36 velocity=0 time=0
EXTRACT: note_on channel=12 note=48 velocity=0 time=0
EXTRACT: note_on channel=14 note=48 velocity=0 time=0
EXTRACT: note_on channel=9 note=54 velocity=127 time=0.0069444375
EXTRACT: note_on channel=9 note=56 velocity=127 time=0
EXTRACT: note_on channel=9 note=36 velocity=127 time=0
EXTRACT: note_on channel=9 note=42 velocity=127 time=0
EXTRACT: note_on channel=12 note=48 velocity=127 time=0
EXTRACT: note_on channel=14 note=48 velocity=127 time=0
EXTRACT: note_on channel=9 note=54 velocity=0 time=0.1319443125
EXTRACT: note_on channel=9 note=56 velocity=0 time=0
EXTRACT: note_on channel=9 note=36 velocity=0 time=0
EXTRACT: note_on channel=9 note=42 velocity=0 time=0
EXTRACT: note_on channel=9 note=56 velocity=127 time=0.0069444375
EXTRACT: note_on channel=9 note=36 velocity=127 time=0
EXTRACT: note_on channel=9 note=42 velocity=127 time=0
EXTRACT: note_on channel=10 note=60 velocity=0 time=0.04629625
EXTRACT: note_on channel=10 note=60 velocity=0 time=0
EXTRACT: note_on channel=10 note=60 velocity=0 time=0
EXTRACT: note_on channel=9 note=56 velocity=0 time=0.0856480625
EXTRACT: note_on channel=9 note=36 velocity=0 time=0
EXTRACT: note_on channel=9 note=42 velocity=0 time=0
EXTRACT: note_on channel=9 note=46 velocity=127 time=0.0069444375
EXTRACT: note_on channel=9 note=54 velocity=127 time=0
EXTRACT: note_on channel=9 note=56 velocity=127 time=0
EXTRACT: note_on channel=9 note=39 velocity=127 time=0
EXTRACT: note_on channel=9 note=46 velocity=0 time=0.1319443125
EXTRACT: note_on channel=9 note=54 velocity=0 time=0
EXTRACT: note_on channel=9 note=56 velocity=0 time=0
EXTRACT: note_on channel=9 note=39 velocity=0 time=0
EXTRACT: note_on channel=9 note=54 velocity=127 time=0.0069444375
EXTRACT: note_on channel=9 note=42 velocity=127 time=0
EXTRACT: note_on channel=9 note=54 velocity=0 time=0.1319443125
EXTRACT: note_on channel=9 note=42 velocity=0 time=0
EXTRACT: note_on channel=9 note=54 velocity=127 time=0.0069444375
EXTRACT: note_on channel=9 note=56 velocity=127 time=0
EXTRACT: note_on channel=9 note=36 velocity=127 time=0
EXTRACT: note_on channel=9 note=42 velocity=127 time=0
EXTRACT: note_on channel=9 note=54 velocity=0 time=0.1319443125
EXTRACT: note_on channel=9 note=56 velocity=0 time=0
EXTRACT: note_on channel=9 note=36 velocity=0 time=0
EXTRACT: note_on channel=9 note=42 velocity=0 time=0
EXTRACT: note_on channel=9 note=54 velocity=127 time=0.0069444375
EXTRACT: note_on channel=9 note=42 velocity=127 time=0
EXTRACT: note_on channel=11 note=52 velocity=0 time=0
EXTRACT: note_on channel=11 note=55 velocity=0 time=0
EXTRACT: note_on channel=11 note=60 velocity=0 time=0
EXTRACT: note_on channel=13 note=51 velocity=0 time=0
EXTRACT: note_on channel=13 note=55 velocity=0 time=0
EXTRACT: note_on channel=13 note=60 velocity=0 time=0
EXTRACT: note_on channel=12 note=48 velocity=0 time=0.04629625
EXTRACT: note_on channel=14 note=48 velocity=0 time=0
EXTRACT: note_on channel=9 note=54 velocity=0 time=0.0856480625
EXTRACT: note_on channel=9 note=42 velocity=0 time=0
EXTRACT: note_on channel=9 note=46 velocity=127 time=0
EXTRACT: note_on channel=9 note=54 velocity=127 time=0
EXTRACT: note_on channel=9 note=56 velocity=127 time=0
EXTRACT: note_on channel=9 note=36 velocity=127 time=0
EXTRACT: note_on channel=11 note=60 velocity=127 time=0
EXTRACT: note_on channel=11 note=63 velocity=127 time=0
EXTRACT: note_on channel=11 note=67 velocity=127 time=0
EXTRACT: note_on channel=13 note=60 velocity=127 time=0
EXTRACT: note_on channel=13 note=63 velocity=127 time=0
EXTRACT: note_on channel=13 note=67 velocity=127 time=0
EXTRACT: note_on channel=9 note=46 velocity=0 time=0.1319443125
EXTRACT: note_on channel=9 note=54 velocity=0 time=0
EXTRACT: note_on channel=9 note=56 velocity=0 time=0
EXTRACT: note_on channel=9 note=36 velocity=0 time=0
EXTRACT: note_on channel=9 note=54 velocity=127 time=0.0069444375
EXTRACT: note_on channel=9 note=42 velocity=127 time=0
EXTRACT: note_on channel=9 note=54 velocity=0 time=0.1319443125
EXTRACT: note_on channel=9 note=46 velocity=127 time=0.0069444375
EXTRACT: note_on channel=9 note=54 velocity=127 time=0
EXTRACT: note_on channel=9 note=56 velocity=127 time=0
EXTRACT: note_on channel=9 note=46 velocity=0 time=0.1319443125
EXTRACT: note_on channel=9 note=54 velocity=0 time=0
EXTRACT: note_on channel=9 note=56 velocity=0 time=0
EXTRACT: note_on channel=9 note=42 velocity=0 time=0
EXTRACT: note_on channel=11 note=60 velocity=0 time=0
EXTRACT: note_on channel=11 note=63 velocity=0 time=0
EXTRACT: note_on channel=11 note=67 velocity=0 time=0
EXTRACT: note_on channel=13 note=60 velocity=0 time=0
EXTRACT: note_on channel=13 note=63 velocity=0 time=0
EXTRACT: note_on channel=13 note=67 velocity=0 time=0
EXTRACT: note_on channel=9 note=54 velocity=127 time=0.0069444375
EXTRACT: note_on channel=9 note=42 velocity=127 time=0
EXTRACT: note_on channel=11 note=60 velocity=127 time=0
EXTRACT: note_on channel=11 note=63 velocity=127 time=0
EXTRACT: note_on channel=11 note=67 velocity=127 time=0
EXTRACT: note_on channel=13 note=60 velocity=127 time=0
EXTRACT: note_on channel=13 note=63 velocity=127 time=0
EXTRACT: note_on channel=13 note=67 velocity=127 time=0
EXTRACT: note_on channel=9 note=54 velocity=0 time=0.1319443125
EXTRACT: note_on channel=9 note=42 velocity=0 time=0
EXTRACT: note_on channel=9 note=54 velocity=127 time=0.0069444375
EXTRACT: note_on channel=9 note=56 velocity=127 time=0
EXTRACT: note_on channel=9 note=39 velocity=127 time=0
EXTRACT: note_on channel=9 note=42 velocity=127 time=0
EXTRACT: note_on channel=9 note=39 velocity=0 time=0.1319443125
EXTRACT: note_on channel=9 note=42 velocity=0 time=0
EXTRACT: note_on channel=9 note=42 velocity=127 time=0.0069444375
EXTRACT: note_on channel=9 note=54 velocity=0 time=0.1319443125
EXTRACT: note_on channel=9 note=56 velocity=0 time=0
EXTRACT: note_on channel=9 note=42 velocity=0 time=0
EXTRACT: note_on channel=11 note=60 velocity=0 time=0
EXTRACT: note_on channel=11 note=63 velocity=0 time=0
EXTRACT: note_on channel=11 note=67 velocity=0 time=0
EXTRACT: note_on channel=13 note=60 velocity=0 time=0
EXTRACT: note_on channel=13 note=63 velocity=0 time=0
EXTRACT: note_on channel=13 note=67 velocity=0 time=0
EXTRACT: note_on channel=9 note=54 velocity=127 time=0.0069444375
EXTRACT: note_on channel=9 note=36 velocity=127 time=0
EXTRACT: note_on channel=9 note=42 velocity=127 time=0
EXTRACT: note_on channel=11 note=60 velocity=127 time=0
EXTRACT: note_on channel=11 note=63 velocity=127 time=0
EXTRACT: note_on channel=11 note=68 velocity=127 time=0
EXTRACT: note_on channel=13 note=60 velocity=127 time=0
EXTRACT: note_on channel=13 note=63 velocity=127 time=0
EXTRACT: note_on channel=13 note=68 velocity=127 time=0
EXTRACT: note_on channel=9 note=54 velocity=0 time=0.1319443125
EXTRACT: note_on channel=9 note=36 velocity=0 time=0
EXTRACT: note_on channel=9 note=42 velocity=0 time=0
EXTRACT: note_on channel=9 note=54 velocity=127 time=0.0069444375
EXTRACT: note_on channel=9 note=56 velocity=127 time=0
EXTRACT: note_on channel=9 note=42 velocity=127 time=0
EXTRACT: note_on channel=9 note=54 velocity=0 time=0.1319443125
EXTRACT: note_on channel=9 note=56 velocity=0 time=0
EXTRACT: note_on channel=9 note=42 velocity=0 time=0
EXTRACT: note_on channel=9 note=54 velocity=127 time=0.0069444375
EXTRACT: note_on channel=9 note=42 velocity=127 time=0
EXTRACT: note_on channel=9 note=54 velocity=0 time=0.1319443125
EXTRACT: note_on channel=9 note=42 velocity=0 time=0
EXTRACT: note_on channel=9 note=46 velocity=127 time=0.0069444375
EXTRACT: note_on channel=9 note=54 velocity=127 time=0
EXTRACT: note_on channel=9 note=56 velocity=127 time=0
EXTRACT: note_on channel=9 note=36 velocity=127 time=0
EXTRACT: note_on channel=9 note=46 velocity=0 time=0.1319443125
EXTRACT: note_on channel=9 note=54 velocity=0 time=0
EXTRACT: note_on channel=9 note=56 velocity=0 time=0
EXTRACT: note_on channel=9 note=36 velocity=0 time=0
EXTRACT: note_on channel=11 note=60 velocity=0 time=0
EXTRACT: note_on channel=11 note=63 velocity=0 time=0
EXTRACT: note_on channel=11 note=68 velocity=0 time=0
EXTRACT: note_on channel=13 note=60 velocity=0 time=0
EXTRACT: note_on channel=13 note=63 velocity=0 time=0
EXTRACT: note_on channel=13 note=68 velocity=0 time=0
EXTRACT: note_on channel=9 note=54 velocity=127 time=0.0069444375
EXTRACT: note_on channel=9 note=56 velocity=127 time=0
EXTRACT: note_on channel=9 note=36 velocity=127 time=0
EXTRACT: note_on channel=9 note=42 velocity=127 time=0
EXTRACT: note_on channel=9 note=54 velocity=0 time=0.1319443125
EXTRACT: note_on channel=9 note=56 velocity=0 time=0
EXTRACT: note_on channel=9 note=36 velocity=0 time=0
EXTRACT: note_on channel=9 note=42 velocity=0 time=0
EXTRACT: note_on channel=9 note=56 velocity=127 time=0.0069444375
EXTRACT: note_on channel=9 note=36 velocity=127 time=0
EXTRACT: note_on channel=9 note=42 velocity=127 time=0
EXTRACT: note_on channel=9 note=56 velocity=0 time=0.1319443125
EXTRACT: note_on channel=9 note=36 velocity=0 time=0
EXTRACT: note_on channel=9 note=42 velocity=0 time=0
EXTRACT: note_on channel=9 note=46 velocity=127 time=0.0069444375
EXTRACT: note_on channel=9 note=54 velocity=127 time=0
EXTRACT: note_on channel=9 note=56 velocity=127 time=0
EXTRACT: note_on channel=9 note=39 velocity=127 time=0
EXTRACT: note_on channel=9 note=46 velocity=0 time=0.1319443125
EXTRACT: note_on channel=9 note=54 velocity=0 time=0
EXTRACT: note_on channel=9 note=56 velocity=0 time=0
EXTRACT: note_on channel=9 note=39 velocity=0 time=0
EXTRACT: note_on channel=9 note=54 velocity=127 time=0.0069444375
EXTRACT: note_on channel=9 note=42 velocity=127 time=0
EXTRACT: note_on channel=9 note=54 velocity=0 time=0.1319443125
EXTRACT: note_on channel=9 note=42 velocity=0 time=0
EXTRACT: note_on channel=9 note=54 velocity=127 time=0.0069444375
EXTRACT: note_on channel=9 note=56 velocity=127 time=0
EXTRACT: note_on channel=9 note=36 velocity=127 time=0
EXTRACT: note_on channel=9 note=42 velocity=127 time=0
EXTRACT: note_on channel=9 note=54 velocity=0 time=0.1319443125
EXTRACT: note_on channel=9 note=56 velocity=0 time=0
EXTRACT: note_on channel=9 note=36 velocity=0 time=0
EXTRACT: note_on channel=9 note=42 velocity=0 time=0
EXTRACT: note_on channel=9 note=54 velocity=127 time=0.0069444375
EXTRACT: note_on channel=9 note=42 velocity=127 time=0
EXTRACT: note_on channel=9 note=54 velocity=0 time=0.1319443125
EXTRACT: note_on channel=9 note=42 velocity=0 time=0
EXTRACT: note_on channel=9 note=46 velocity=127 time=0
EXTRACT: note_on channel=9 note=54 velocity=127 time=0
EXTRACT: note_on channel=9 note=56 velocity=127 time=0
EXTRACT: note_on channel=9 note=36 velocity=127 time=0
EXTRACT: note_on channel=11 note=59 velocity=127 time=0
EXTRACT: note_on channel=11 note=62 velocity=127 time=0
EXTRACT: note_on channel=11 note=67 velocity=127 time=0
EXTRACT: note_on channel=13 note=59 velocity=127 time=0
EXTRACT: note_on channel=13 note=62 velocity=127 time=0
EXTRACT: note_on channel=13 note=67 velocity=127 time=0
EXTRACT: note_on channel=9 note=46 velocity=0 time=0.1319443125
EXTRACT: note_on channel=9 note=54 velocity=0 time=0
EXTRACT: note_on channel=9 note=56 velocity=0 time=0
EXTRACT: note_on channel=9 note=36 velocity=0 time=0
EXTRACT: note_on channel=9 note=54 velocity=127 time=0.0069444375
EXTRACT: note_on channel=9 note=42 velocity=127 time=0
EXTRACT: note_on channel=9 note=54 velocity=0 time=0.1319443125
EXTRACT: note_on channel=9 note=46 velocity=127 time=0.0069444375
EXTRACT: note_on channel=9 note=54 velocity=127 time=0
EXTRACT: note_on channel=9 note=56 velocity=127 time=0
EXTRACT: note_on channel=9 note=46 velocity=0 time=0.1319443125
EXTRACT: note_on channel=9 note=54 velocity=0 time=0
EXTRACT: note_on channel=9 note=56 velocity=0 time=0
EXTRACT: note_on channel=9 note=42 velocity=0 time=0
EXTRACT: note_on channel=11 note=59 velocity=0 time=0
EXTRACT: note_on channel=11 note=62 velocity=0 time=0
EXTRACT: note_on channel=11 note=67 velocity=0 time=0
EXTRACT: note_on channel=13 note=59 velocity=0 time=0
EXTRACT: note_on channel=13 note=62 velocity=0 time=0
EXTRACT: note_on channel=13 note=67 velocity=0 time=0
EXTRACT: note_on channel=9 note=54 velocity=127 time=0.0069444375
EXTRACT: note_on channel=9 note=42 velocity=127 time=0
EXTRACT: note_on channel=11 note=59 velocity=127 time=0
EXTRACT: note_on channel=11 note=62 velocity=127 time=0
EXTRACT: note_on channel=11 note=67 velocity=127 time=0
EXTRACT: note_on channel=13 note=59 velocity=127 time=0
EXTRACT: note_on channel=13 note=62 velocity=127 time=0
EXTRACT: note_on channel=13 note=67 velocity=127 time=0
EXTRACT: note_on channel=9 note=54 velocity=0 time=0.1319443125
EXTRACT: note_on channel=9 note=42 velocity=0 time=0
EXTRACT: note_on channel=9 note=54 velocity=127 time=0.0069444375
EXTRACT: note_on channel=9 note=56 velocity=127 time=0
EXTRACT: note_on channel=9 note=39 velocity=127 time=0
EXTRACT: note_on channel=9 note=42 velocity=127 time=0
EXTRACT: note_on channel=9 note=39 velocity=0 time=0.1319443125
EXTRACT: note_on channel=9 note=42 velocity=0 time=0
EXTRACT: note_on channel=9 note=42 velocity=127 time=0.0069444375
EXTRACT: note_on channel=9 note=54 velocity=0 time=0.1319443125
EXTRACT: note_on channel=9 note=56 velocity=0 time=0
EXTRACT: note_on channel=9 note=42 velocity=0 time=0
EXTRACT: note_on channel=11 note=59 velocity=0 time=0
EXTRACT: note_on channel=11 note=62 velocity=0 time=0
EXTRACT: note_on channel=11 note=67 velocity=0 time=0
EXTRACT: note_on channel=13 note=59 velocity=0 time=0
EXTRACT: note_on channel=13 note=62 velocity=0 time=0
EXTRACT: note_on channel=13 note=67 velocity=0 time=0
EXTRACT: note_on channel=9 note=54 velocity=127 time=0.0069444375
EXTRACT: note_on channel=9 note=36 velocity=127 time=0
EXTRACT: note_on channel=9 note=42 velocity=127 time=0
EXTRACT: note_on channel=11 note=60 velocity=127 time=0
EXTRACT: note_on channel=11 note=63 velocity=127 time=0
EXTRACT: note_on channel=11 note=67 velocity=127 time=0
EXTRACT: note_on channel=13 note=60 velocity=127 time=0
EXTRACT: note_on channel=13 note=63 velocity=127 time=0
EXTRACT: note_on channel=13 note=67 velocity=127 time=0
EXTRACT: note_on channel=9 note=54 velocity=0 time=0.1319443125
EXTRACT: note_on channel=9 note=36 velocity=0 time=0
EXTRACT: note_on channel=9 note=42 velocity=0 time=0
EXTRACT: note_on channel=9 note=54 velocity=127 time=0.0069444375
EXTRACT: note_on channel=9 note=56 velocity=127 time=0
EXTRACT: note_on channel=9 note=42 velocity=127 time=0
EXTRACT: note_on channel=9 note=54 velocity=0 time=0.1319443125
EXTRACT: note_on channel=9 note=56 velocity=0 time=0
EXTRACT: note_on channel=9 note=42 velocity=0 time=0
EXTRACT: note_on channel=9 note=54 velocity=127 time=0.0069444375
EXTRACT: note_on channel=9 note=42 velocity=127 time=0
EXTRACT: note_on channel=9 note=54 velocity=0 time=0.1319443125
EXTRACT: note_on channel=9 note=42 velocity=0 time=0
EXTRACT: note_on channel=9 note=46 velocity=127 time=0.0069444375
EXTRACT: note_on channel=9 note=54 velocity=127 time=0
EXTRACT: note_on channel=9 note=56 velocity=127 time=0
EXTRACT: note_on channel=9 note=36 velocity=127 time=0
EXTRACT: note_on channel=9 note=46 velocity=0 time=0.1319443125
EXTRACT: note_on channel=9 note=54 velocity=0 time=0
EXTRACT: note_on channel=9 note=56 velocity=0 time=0
EXTRACT: note_on channel=9 note=36 velocity=0 time=0
EXTRACT: note_on channel=11 note=60 velocity=0 time=0
EXTRACT: note_on channel=11 note=63 velocity=0 time=0
EXTRACT: note_on channel=11 note=67 velocity=0 time=0
EXTRACT: note_on channel=13 note=60 velocity=0 time=0
EXTRACT: note_on channel=13 note=63 velocity=0 time=0
EXTRACT: note_on channel=13 note=67 velocity=0 time=0
EXTRACT: note_on channel=9 note=54 velocity=127 time=0.0069444375
EXTRACT: note_on channel=9 note=56 velocity=127 time=0
EXTRACT: note_on channel=9 note=36 velocity=127 time=0
EXTRACT: note_on channel=9 note=42 velocity=127 time=0
EXTRACT: note_on channel=9 note=54 velocity=0 time=0.1319443125
EXTRACT: note_on channel=9 note=56 velocity=0 time=0
EXTRACT: note_on channel=9 note=36 velocity=0 time=0
EXTRACT: note_on channel=9 note=42 velocity=0 time=0
EXTRACT: note_on channel=9 note=56 velocity=127 time=0.0069444375
EXTRACT: note_on channel=9 note=36 velocity=127 time=0
EXTRACT: note_on channel=9 note=42 velocity=127 time=0
EXTRACT: note_on channel=9 note=56 velocity=0 time=0.1319443125
EXTRACT: note_on channel=9 note=36 velocity=0 time=0
EXTRACT: note_on channel=9 note=42 velocity=0 time=0
EXTRACT: note_on channel=9 note=46 velocity=127 time=0.0069444375
EXTRACT: note_on channel=9 note=54 velocity=127 time=0
EXTRACT: note_on channel=9 note=56 velocity=127 time=0
EXTRACT: note_on channel=9 note=39 velocity=127 time=0
EXTRACT: note_on channel=9 note=46 velocity=0 time=0.1319443125
EXTRACT: note_on channel=9 note=54 velocity=0 time=0
EXTRACT: note_on channel=9 note=56 velocity=0 time=0
EXTRACT: note_on channel=9 note=39 velocity=0 time=0
EXTRACT: note_on channel=9 note=54 velocity=127 time=0.0069444375
EXTRACT: note_on channel=9 note=42 velocity=127 time=0
EXTRACT: note_on channel=9 note=54 velocity=0 time=0.1319443125
EXTRACT: note_on channel=9 note=42 velocity=0 time=0
EXTRACT: note_on channel=9 note=54 velocity=127 time=0.0069444375
EXTRACT: note_on channel=9 note=56 velocity=127 time=0
EXTRACT: note_on channel=9 note=36 velocity=127 time=0
EXTRACT: note_on channel=9 note=42 velocity=127 time=0
EXTRACT: note_on channel=9 note=54 velocity=0 time=0.1319443125
EXTRACT: note_on channel=9 note=56 velocity=0 time=0
EXTRACT: note_on channel=9 note=36 velocity=0 time=0
EXTRACT: note_on channel=9 note=42 velocity=0 time=0
EXTRACT: note_on channel=9 note=54 velocity=127 time=0.0069444375
EXTRACT: note_on channel=9 note=42 velocity=127 time=0
EXTRACT: note_on channel=9 note=54 velocity=0 time=0.1319443125
EXTRACT: note_on channel=9 note=42 velocity=0 time=0
EXTRACT: note_on channel=9 note=46 velocity=127 time=0
EXTRACT: note_on channel=9 note=54 velocity=127 time=0
EXTRACT: note_on channel=9 note=56 velocity=127 time=0
EXTRACT: note_on channel=9 note=36 velocity=127 time=0
EXTRACT: note_on channel=11 note=60 velocity=127 time=0
EXTRACT: note_on channel=11 note=63 velocity=127 time=0
EXTRACT: note_on channel=11 note=67 velocity=127 time=0
EXTRACT: note_on channel=13 note=60 velocity=127 time=0
EXTRACT: note_on channel=13 note=63 velocity=127 time=0
EXTRACT: note_on channel=13 note=67 velocity=127 time=0
EXTRACT: note_on channel=9 note=46 velocity=0 time=0.1319443125
EXTRACT: note_on channel=9 note=54 velocity=0 time=0
EXTRACT: note_on channel=9 note=56 velocity=0 time=0
EXTRACT: note_on channel=9 note=36 velocity=0 time=0
EXTRACT: note_on channel=9 note=54 velocity=127 time=0.0069444375
EXTRACT: note_on channel=9 note=42 velocity=127 time=0
EXTRACT: note_on channel=9 note=54 velocity=0 time=0.1319443125
EXTRACT: note_on channel=9 note=46 velocity=127 time=0.0069444375
EXTRACT: note_on channel=9 note=54 velocity=127 time=0
EXTRACT: note_on channel=9 note=56 velocity=127 time=0
EXTRACT: note_on channel=9 note=46 velocity=0 time=0.1319443125
EXTRACT: note_on channel=9 note=54 velocity=0 time=0
EXTRACT: note_on channel=9 note=56 velocity=0 time=0
EXTRACT: note_on channel=9 note=42 velocity=0 time=0
EXTRACT: note_on channel=11 note=60 velocity=0 time=0
EXTRACT: note_on channel=11 note=63 velocity=0 time=0
EXTRACT: note_on channel=11 note=67 velocity=0 time=0
EXTRACT: note_on channel=13 note=60 velocity=0 time=0
EXTRACT: note_on channel=13 note=63 velocity=0 time=0
EXTRACT: note_on channel=13 note=67 velocity=0 time=0
EXTRACT: note_on channel=9 note=54 velocity=127 time=0.0069444375
EXTRACT: note_on channel=9 note=42 velocity=127 time=0
EXTRACT: note_on channel=11 note=60 velocity=127 time=0
EXTRACT: note_on channel=11 note=63 velocity=127 time=0
EXTRACT: note_on channel=11 note=67 velocity=127 time=0
EXTRACT: note_on channel=13 note=60 velocity=127 time=0
EXTRACT: note_on channel=13 note=63 velocity=127 time=0
EXTRACT: note_on channel=13 note=67 velocity=127 time=0
EXTRACT: note_on channel=9 note=54 velocity=0 time=0.1319443125
EXTRACT: note_on channel=9 note=42 velocity=0 time=0
EXTRACT: note_on channel=9 note=54 velocity=127 time=0.0069444375
EXTRACT: note_on channel=9 note=56 velocity=127 time=0
EXTRACT: note_on channel=9 note=39 velocity=127 time=0
EXTRACT: note_on channel=9 note=42 velocity=127 time=0
EXTRACT: note_on channel=9 note=39 velocity=0 time=0.1319443125
EXTRACT: note_on channel=9 note=42 velocity=0 time=0
EXTRACT: note_on channel=9 note=42 velocity=127 time=0.0069444375
EXTRACT: note_on channel=9 note=54 velocity=0 time=0.1319443125
EXTRACT: note_on channel=9 note=56 velocity=0 time=0
EXTRACT: note_on channel=9 note=42 velocity=0 time=0
EXTRACT: note_on channel=11 note=60 velocity=0 time=0
EXTRACT: note_on channel=11 note=63 velocity=0 time=0
EXTRACT: note_on channel=11 note=67 velocity=0 time=0
EXTRACT: note_on channel=13 note=60 velocity=0 time=0
EXTRACT: note_on channel=13 note=63 velocity=0 time=0
EXTRACT: note_on channel=13 note=67 velocity=0 time=0
EXTRACT: note_on channel=9 note=54 velocity=127 time=0.0069444375
EXTRACT: note_on channel=9 note=36 velocity=127 time=0
EXTRACT: note_on channel=9 note=42 velocity=127 time=0
EXTRACT: note_on channel=11 note=60 velocity=127 time=0
EXTRACT: note_on channel=11 note=63 velocity=127 time=0
EXTRACT: note_on channel=11 note=68 velocity=127 time=0
EXTRACT: note_on channel=13 note=60 velocity=127 time=0
EXTRACT: note_on channel=13 note=63 velocity=127 time=0
EXTRACT: note_on channel=13 note=68 velocity=127 time=0
EXTRACT: note_on channel=9 note=54 velocity=0 time=0.1319443125
EXTRACT: note_on channel=9 note=36 velocity=0 time=0
EXTRACT: note_on channel=9 note=42 velocity=0 time=0
EXTRACT: note_on channel=9 note=54 velocity=127 time=0.0069444375
EXTRACT: note_on channel=9 note=56 velocity=127 time=0
EXTRACT: note_on channel=9 note=42 velocity=127 time=0
EXTRACT: note_on channel=9 note=54 velocity=0 time=0.1319443125
EXTRACT: note_on channel=9 note=56 velocity=0 time=0
EXTRACT: note_on channel=9 note=42 velocity=0 time=0
EXTRACT: note_on channel=9 note=54 velocity=127 time=0.0069444375
EXTRACT: note_on channel=9 note=42 velocity=127 time=0
EXTRACT: note_on channel=9 note=54 velocity=0 time=0.1319443125
EXTRACT: note_on channel=9 note=42 velocity=0 time=0
EXTRACT: note_on channel=9 note=46 velocity=127 time=0.0069444375
EXTRACT: note_on channel=9 note=54 velocity=127 time=0
EXTRACT: note_on channel=9 note=56 velocity=127 time=0
EXTRACT: note_on channel=9 note=36 velocity=127 time=0
EXTRACT: note_on channel=9 note=46 velocity=0 time=0.1319443125
EXTRACT: note_on channel=9 note=54 velocity=0 time=0
EXTRACT: note_on channel=9 note=56 velocity=0 time=0
EXTRACT: note_on channel=9 note=36 velocity=0 time=0
EXTRACT: note_on channel=11 note=60 velocity=0 time=0
EXTRACT: note_on channel=11 note=63 velocity=0 time=0
EXTRACT: note_on channel=11 note=68 velocity=0 time=0
EXTRACT: note_on channel=13 note=60 velocity=0 time=0
EXTRACT: note_on channel=13 note=63 velocity=0 time=0
EXTRACT: note_on channel=13 note=68 velocity=0 time=0
EXTRACT: note_on channel=9 note=54 velocity=127 time=0.0069444375
EXTRACT: note_on channel=9 note=56 velocity=127 time=0
EXTRACT: note_on channel=9 note=36 velocity=127 time=0
EXTRACT: note_on channel=9 note=42 velocity=127 time=0
EXTRACT: note_on channel=9 note=54 velocity=0 time=0.1319443125
EXTRACT: note_on channel=9 note=56 velocity=0 time=0
EXTRACT: note_on channel=9 note=36 velocity=0 time=0
EXTRACT: note_on channel=9 note=42 velocity=0 time=0
EXTRACT: note_on channel=9 note=56 velocity=127 time=0.0069444375
EXTRACT: note_on channel=9 note=36 velocity=127 time=0
EXTRACT: note_on channel=9 note=42 velocity=127 time=0
EXTRACT: note_on channel=9 note=56 velocity=0 time=0.1319443125
EXTRACT: note_on channel=9 note=36 velocity=0 time=0
EXTRACT: note_on channel=9 note=42 velocity=0 time=0
EXTRACT: note_on channel=9 note=46 velocity=127 time=0.0069444375
EXTRACT: note_on channel=9 note=54 velocity=127 time=0
EXTRACT: note_on channel=9 note=56 velocity=127 time=0
EXTRACT: note_on channel=9 note=39 velocity=127 time=0
EXTRACT: note_on channel=9 note=46 velocity=0 time=0.1319443125
EXTRACT: note_on channel=9 note=54 velocity=0 time=0
EXTRACT: note_on channel=9 note=56 velocity=0 time=0
EXTRACT: note_on channel=9 note=39 velocity=0 time=0
EXTRACT: note_on channel=9 note=54 velocity=127 time=0.0069444375
EXTRACT: note_on channel=9 note=42 velocity=127 time=0
EXTRACT: note_on channel=9 note=54 velocity=0 time=0.1319443125
EXTRACT: note_on channel=9 note=42 velocity=0 time=0
EXTRACT: note_on channel=9 note=54 velocity=127 time=0.0069444375
EXTRACT: note_on channel=9 note=56 velocity=127 time=0
EXTRACT: note_on channel=9 note=36 velocity=127 time=0
EXTRACT: note_on channel=9 note=42 velocity=127 time=0
EXTRACT: note_on channel=9 note=54 velocity=0 time=0.1319443125
EXTRACT: note_on channel=9 note=56 velocity=0 time=0
EXTRACT: note_on channel=9 note=36 velocity=0 time=0
EXTRACT: note_on channel=9 note=42 velocity=0 time=0
EXTRACT: note_on channel=9 note=54 velocity=127 time=0.0069444375
EXTRACT: note_on channel=9 note=42 velocity=127 time=0
EXTRACT: note_on channel=9 note=54 velocity=0 time=0.1319443125
EXTRACT: note_on channel=9 note=42 velocity=0 time=0
EXTRACT: note_on channel=9 note=46 velocity=127 time=0
EXTRACT: note_on channel=9 note=54 velocity=127 time=0
EXTRACT: note_on channel=9 note=56 velocity=127 time=0
EXTRACT: note_on channel=9 note=36 velocity=127 time=0
EXTRACT: note_on channel=11 note=59 velocity=127 time=0
EXTRACT: note_on channel=11 note=62 velocity=127 time=0
EXTRACT: note_on channel=11 note=67 velocity=127 time=0
EXTRACT: note_on channel=13 note=59 velocity=127 time=0
EXTRACT: note_on channel=13 note=62 velocity=127 time=0
EXTRACT: note_on channel=13 note=67 velocity=127 time=0
EXTRACT: note_on channel=9 note=46 velocity=0 time=0.1319443125
EXTRACT: note_on channel=9 note=54 velocity=0 time=0
EXTRACT: note_on channel=9 note=56 velocity=0 time=0
EXTRACT: note_on channel=9 note=36 velocity=0 time=0
EXTRACT: note_on channel=9 note=54 velocity=127 time=0.0069444375
EXTRACT: note_on channel=9 note=42 velocity=127 time=0
EXTRACT: note_on channel=9 note=54 velocity=0 time=0.1319443125
EXTRACT: note_on channel=9 note=46 velocity=127 time=0.0069444375
EXTRACT: note_on channel=9 note=54 velocity=127 time=0
EXTRACT: note_on channel=9 note=56 velocity=127 time=0
EXTRACT: note_on channel=9 note=46 velocity=0 time=0.1319443125
EXTRACT: note_on channel=9 note=54 velocity=0 time=0
EXTRACT: note_on channel=9 note=56 velocity=0 time=0
EXTRACT: note_on channel=9 note=42 velocity=0 time=0
EXTRACT: note_on channel=11 note=59 velocity=0 time=0
EXTRACT: note_on channel=11 note=62 velocity=0 time=0
EXTRACT: note_on channel=11 note=67 velocity=0 time=0
EXTRACT: note_on channel=13 note=59 velocity=0 time=0
EXTRACT: note_on channel=13 note=62 velocity=0 time=0
EXTRACT: note_on channel=13 note=67 velocity=0 time=0
EXTRACT: note_on channel=9 note=54 velocity=127 time=0.0069444375
EXTRACT: note_on channel=9 note=42 velocity=127 time=0
EXTRACT: note_on channel=11 note=59 velocity=127 time=0
EXTRACT: note_on channel=11 note=62 velocity=127 time=0
EXTRACT: note_on channel=11 note=67 velocity=127 time=0
EXTRACT: note_on channel=13 note=59 velocity=127 time=0
EXTRACT: note_on channel=13 note=62 velocity=127 time=0
EXTRACT: note_on channel=13 note=67 velocity=127 time=0
EXTRACT: note_on channel=9 note=54 velocity=0 time=0.1319443125
EXTRACT: note_on channel=9 note=42 velocity=0 time=0
EXTRACT: note_on channel=9 note=54 velocity=127 time=0.0069444375
EXTRACT: note_on channel=9 note=56 velocity=127 time=0
EXTRACT: note_on channel=9 note=39 velocity=127 time=0
EXTRACT: note_on channel=9 note=42 velocity=127 time=0
EXTRACT: note_on channel=9 note=39 velocity=0 time=0.1319443125
EXTRACT: note_on channel=9 note=42 velocity=0 time=0
EXTRACT: note_on channel=9 note=42 velocity=127 time=0.0069444375
EXTRACT: note_on channel=9 note=54 velocity=0 time=0.1319443125
EXTRACT: note_on channel=9 note=56 velocity=0 time=0
EXTRACT: note_on channel=9 note=42 velocity=0 time=0
EXTRACT: note_on channel=11 note=59 velocity=0 time=0
EXTRACT: note_on channel=11 note=62 velocity=0 time=0
EXTRACT: note_on channel=11 note=67 velocity=0 time=0
EXTRACT: note_on channel=13 note=59 velocity=0 time=0
EXTRACT: note_on channel=13 note=62 velocity=0 time=0
EXTRACT: note_on channel=13 note=67 velocity=0 time=0
EXTRACT: note_on channel=9 note=54 velocity=127 time=0.0069444375
EXTRACT: note_on channel=9 note=36 velocity=127 time=0
EXTRACT: note_on channel=9 note=42 velocity=127 time=0
EXTRACT: note_on channel=11 note=60 velocity=127 time=0
EXTRACT: note_on channel=11 note=63 velocity=127 time=0
EXTRACT: note_on channel=11 note=67 velocity=127 time=0
EXTRACT: note_on channel=13 note=60 velocity=127 time=0
EXTRACT: note_on channel=13 note=63 velocity=127 time=0
EXTRACT: note_on channel=13 note=67 velocity=127 time=0
EXTRACT: note_on channel=9 note=54 velocity=0 time=0.1319443125
EXTRACT: note_on channel=9 note=36 velocity=0 time=0
EXTRACT: note_on channel=9 note=42 velocity=0 time=0
EXTRACT: note_on channel=9 note=54 velocity=127 time=0.0069444375
EXTRACT: note_on channel=9 note=56 velocity=127 time=0
EXTRACT: note_on channel=9 note=42 velocity=127 time=0
EXTRACT: note_on channel=9 note=54 velocity=0 time=0.1319443125
EXTRACT: note_on channel=9 note=56 velocity=0 time=0
EXTRACT: note_on channel=9 note=42 velocity=0 time=0
EXTRACT: note_on channel=9 note=54 velocity=127 time=0.0069444375
EXTRACT: note_on channel=9 note=42 velocity=127 time=0
EXTRACT: note_on channel=9 note=54 velocity=0 time=0.1319443125
EXTRACT: note_on channel=9 note=42 velocity=0 time=0
EXTRACT: note_on channel=9 note=46 velocity=127 time=0.0069444375
EXTRACT: note_on channel=9 note=54 velocity=127 time=0
EXTRACT: note_on channel=9 note=56 velocity=127 time=0
EXTRACT: note_on channel=9 note=36 velocity=127 time=0
EXTRACT: note_on channel=9 note=46 velocity=0 time=0.1319443125
EXTRACT: note_on channel=9 note=54 velocity=0 time=0
EXTRACT: note_on channel=9 note=56 velocity=0 time=0
EXTRACT: note_on channel=9 note=36 velocity=0 time=0
EXTRACT: note_on channel=11 note=60 velocity=0 time=0
EXTRACT: note_on channel=11 note=63 velocity=0 time=0
EXTRACT: note_on channel=11 note=67 velocity=0 time=0
EXTRACT: note_on channel=13 note=60 velocity=0 time=0
EXTRACT: note_on channel=13 note=63 velocity=0 time=0
EXTRACT: note_on channel=13 note=67 velocity=0 time=0
EXTRACT: note_on channel=9 note=54 velocity=127 time=0.0069444375
EXTRACT: note_on channel=9 note=56 velocity=127 time=0
EXTRACT: note_on channel=9 note=36 velocity=127 time=0
EXTRACT: note_on channel=9 note=42 velocity=127 time=0
EXTRACT: note_on channel=9 note=54 velocity=0 time=0.1319443125
EXTRACT: note_on channel=9 note=56 velocity=0 time=0
EXTRACT: note_on channel=9 note=36 velocity=0 time=0
EXTRACT: note_on channel=9 note=42 velocity=0 time=0
EXTRACT: note_on channel=9 note=56 velocity=127 time=0.0069444375
EXTRACT: note_on channel=9 note=36 velocity=127 time=0
EXTRACT: note_on channel=9 note=42 velocity=127 time=0
EXTRACT: note_on channel=9 note=56 velocity=0 time=0.1319443125
EXTRACT: note_on channel=9 note=36 velocity=0 time=0
EXTRACT: note_on channel=9 note=42 velocity=0 time=0
EXTRACT: note_on channel=9 note=46 velocity=127 time=0.0069444375
EXTRACT: note_on channel=9 note=54 velocity=127 time=0
EXTRACT: note_on channel=9 note=56 velocity=127 time=0
EXTRACT: note_on channel=9 note=39 velocity=127 time=0
EXTRACT: note_on channel=9 note=46 velocity=0 time=0.1319443125
EXTRACT: note_on channel=9 note=54 velocity=0 time=0
EXTRACT: note_on channel=9 note=56 velocity=0 time=0
EXTRACT: note_on channel=9 note=39 velocity=0 time=0
EXTRACT: note_on channel=9 note=54 velocity=127 time=0.0069444375
EXTRACT: note_on channel=9 note=42 velocity=127 time=0
EXTRACT: note_on channel=9 note=54 velocity=0 time=0.1319443125
EXTRACT: note_on channel=9 note=42 velocity=0 time=0
EXTRACT: note_on channel=9 note=54 velocity=127 time=0.0069444375
EXTRACT: note_on channel=9 note=56 velocity=127 time=0
EXTRACT: note_on channel=9 note=36 velocity=127 time=0
EXTRACT: note_on channel=9 note=42 velocity=127 time=0
EXTRACT: note_on channel=9 note=54 velocity=0 time=0.1319443125
EXTRACT: note_on channel=9 note=56 velocity=0 time=0
EXTRACT: note_on channel=9 note=36 velocity=0 time=0
EXTRACT: note_on channel=9 note=42 velocity=0 time=0
EXTRACT: note_on channel=9 note=54 velocity=127 time=0.0069444375
EXTRACT: note_on channel=9 note=42 velocity=127 time=0
EXTRACT: note_on channel=9 note=54 velocity=0 time=0.1319443125
EXTRACT: note_on channel=9 note=42 velocity=0 time=0
EXTRACT: note_on channel=9 note=46 velocity=127 time=0
EXTRACT: note_on channel=9 note=54 velocity=127 time=0
EXTRACT: note_on channel=9 note=56 velocity=127 time=0
EXTRACT: note_on channel=9 note=36 velocity=127 time=0
EXTRACT: note_on channel=10 note=63 velocity=127 time=0
EXTRACT: note_on channel=11 note=60 velocity=127 time=0
EXTRACT: note_on channel=11 note=63 velocity=127 time=0
EXTRACT: note_on channel=11 note=67 velocity=127 time=0
EXTRACT: note_on channel=12 note=48 velocity=127 time=0
EXTRACT: note_on channel=13 note=60 velocity=127 time=0
EXTRACT: note_on channel=13 note=63 velocity=127 time=0
EXTRACT: note_on channel=13 note=67 velocity=127 time=0
EXTRACT: note_on channel=14 note=48 velocity=127 time=0
EXTRACT: note_on channel=10 note=63 velocity=127 time=0
EXTRACT: note_on channel=10 note=63 velocity=127 time=0
EXTRACT: note_on channel=9 note=46 velocity=0 time=0.1319443125
EXTRACT: note_on channel=9 note=54 velocity=0 time=0
EXTRACT: note_on channel=9 note=56 velocity=0 time=0
EXTRACT: note_on channel=9 note=36 velocity=0 time=0
EXTRACT: note_on channel=9 note=54 velocity=127 time=0.0069444375
EXTRACT: note_on channel=9 note=42 velocity=127 time=0
EXTRACT: note_on channel=9 note=54 velocity=0 time=0.1319443125
EXTRACT: note_on channel=9 note=46 velocity=127 time=0.0069444375
EXTRACT: note_on channel=9 note=54 velocity=127 time=0
EXTRACT: note_on channel=9 note=56 velocity=127 time=0
EXTRACT: note_on channel=9 note=46 velocity=0 time=0.1319443125
EXTRACT: note_on channel=9 note=54 velocity=0 time=0
EXTRACT: note_on channel=9 note=56 velocity=0 time=0
EXTRACT: note_on channel=9 note=42 velocity=0 time=0
EXTRACT: note_on channel=11 note=60 velocity=0 time=0
EXTRACT: note_on channel=11 note=63 velocity=0 time=0
EXTRACT: note_on channel=11 note=67 velocity=0 time=0
EXTRACT: note_on channel=13 note=60 velocity=0 time=0
EXTRACT: note_on channel=13 note=63 velocity=0 time=0
EXTRACT: note_on channel=13 note=67 velocity=0 time=0
EXTRACT: note_on channel=9 note=54 velocity=127 time=0.0069444375
EXTRACT: note_on channel=9 note=42 velocity=127 time=0
EXTRACT: note_on channel=11 note=60 velocity=127 time=0
EXTRACT: note_on channel=11 note=63 velocity=127 time=0
EXTRACT: note_on channel=11 note=67 velocity=127 time=0
EXTRACT: note_on channel=13 note=60 velocity=127 time=0
EXTRACT: note_on channel=13 note=63 velocity=127 time=0
EXTRACT: note_on channel=13 note=67 velocity=127 time=0
EXTRACT: note_on channel=12 note=48 velocity=0 time=0.04629625
EXTRACT: note_on channel=14 note=48 velocity=0 time=0
EXTRACT: note_on channel=9 note=54 velocity=0 time=0.0856480625
EXTRACT: note_on channel=9 note=42 velocity=0 time=0
EXTRACT: note_on channel=9 note=54 velocity=127 time=0.0069444375
EXTRACT: note_on channel=9 note=56 velocity=127 time=0
EXTRACT: note_on channel=9 note=39 velocity=127 time=0
EXTRACT: note_on channel=9 note=42 velocity=127 time=0
EXTRACT: note_on channel=12 note=48 velocity=127 time=0
EXTRACT: note_on channel=14 note=48 velocity=127 time=0
EXTRACT: note_on channel=9 note=39 velocity=0 time=0.1319443125
EXTRACT: note_on channel=9 note=42 velocity=0 time=0
EXTRACT: note_on channel=9 note=42 velocity=127 time=0.0069444375
EXTRACT: note_on channel=10 note=63 velocity=0 time=0.04629625
EXTRACT: note_on channel=10 note=63 velocity=0 time=0
EXTRACT: note_on channel=10 note=63 velocity=0 time=0
EXTRACT: note_on channel=9 note=54 velocity=0 time=0.0856480625
EXTRACT: note_on channel=9 note=56 velocity=0 time=0
EXTRACT: note_on channel=9 note=42 velocity=0 time=0
EXTRACT: note_on channel=11 note=60 velocity=0 time=0
EXTRACT: note_on channel=11 note=63 velocity=0 time=0
EXTRACT: note_on channel=11 note=67 velocity=0 time=0
EXTRACT: note_on channel=12 note=48 velocity=0 time=0
EXTRACT: note_on channel=13 note=60 velocity=0 time=0
EXTRACT: note_on channel=13 note=63 velocity=0 time=0
EXTRACT: note_on channel=13 note=67 velocity=0 time=0
EXTRACT: note_on channel=14 note=48 velocity=0 time=0
EXTRACT: note_on channel=9 note=54 velocity=127 time=0.0069444375
EXTRACT: note_on channel=9 note=36 velocity=127 time=0
EXTRACT: note_on channel=9 note=42 velocity=127 time=0
EXTRACT: note_on channel=10 note=60 velocity=127 time=0
EXTRACT: note_on channel=11 note=60 velocity=127 time=0
EXTRACT: note_on channel=11 note=63 velocity=127 time=0
EXTRACT: note_on channel=11 note=68 velocity=127 time=0
EXTRACT: note_on channel=12 note=43 velocity=127 time=0
EXTRACT: note_on channel=13 note=60 velocity=127 time=0
EXTRACT: note_on channel=13 note=63 velocity=127 time=0
EXTRACT: note_on channel=13 note=68 velocity=127 time=0
EXTRACT: note_on channel=14 note=43 velocity=127 time=0
EXTRACT: note_on channel=10 note=60 velocity=127 time=0
EXTRACT: note_on channel=10 note=60 velocity=127 time=0
EXTRACT: note_on channel=9 note=54 velocity=0 time=0.1319443125
EXTRACT: note_on channel=9 note=36 velocity=0 time=0
EXTRACT: note_on channel=9 note=42 velocity=0 time=0
EXTRACT: note_on channel=9 note=54 velocity=127 time=0.0069444375
EXTRACT: note_on channel=9 note=56 velocity=127 time=0
EXTRACT: note_on channel=9 note=42 velocity=127 time=0
EXTRACT: note_on channel=9 note=54 velocity=0 time=0.1319443125
EXTRACT: note_on channel=9 note=56 velocity=0 time=0
EXTRACT: note_on channel=9 note=42 velocity=0 time=0
EXTRACT: note_on channel=12 note=43 velocity=0 time=0
EXTRACT: note_on channel=14 note=43 velocity=0 time=0
EXTRACT: note_on channel=9 note=54 velocity=127 time=0.0069444375
EXTRACT: note_on channel=9 note=42 velocity=127 time=0
EXTRACT: note_on channel=12 note=44 velocity=127 time=0
EXTRACT: note_on channel=14 note=44 velocity=127 time=0
EXTRACT: note_on channel=9 note=54 velocity=0 time=0.1319443125
EXTRACT: note_on channel=9 note=42 velocity=0 time=0
EXTRACT: note_on channel=9 note=46 velocity=127 time=0.0069444375
EXTRACT: note_on channel=9 note=54 velocity=127 time=0
EXTRACT: note_on channel=9 note=56 velocity=127 time=0
EXTRACT: note_on channel=9 note=36 velocity=127 time=0
EXTRACT: note_on channel=9 note=46 velocity=0 time=0.1319443125
EXTRACT: note_on channel=9 note=54 velocity=0 time=0
EXTRACT: note_on channel=9 note=56 velocity=0 time=0
EXTRACT: note_on channel=9 note=36 velocity=0 time=0
EXTRACT: note_on channel=12 note=44 velocity=0 time=0
EXTRACT: note_on channel=14 note=44 velocity=0 time=0
EXTRACT: note_on channel=9 note=54 velocity=127 time=0.0069444375
EXTRACT: note_on channel=9 note=56 velocity=127 time=0
EXTRACT: note_on channel=9 note=36 velocity=127 time=0
EXTRACT: note_on channel=9 note=42 velocity=127 time=0
EXTRACT: note_on channel=12 note=44 velocity=127 time=0
EXTRACT: note_on channel=14 note=44 velocity=127 time=0
EXTRACT: note_on channel=9 note=54 velocity=0 time=0.1319443125
EXTRACT: note_on channel=9 note=56 velocity=0 time=0
EXTRACT: note_on channel=9 note=36 velocity=0 time=0
EXTRACT: note_on channel=9 note=42 velocity=0 time=0
EXTRACT: note_on channel=9 note=56 velocity=127 time=0.0069444375
EXTRACT: note_on channel=9 note=36 velocity=127 time=0
EXTRACT: note_on channel=9 note=42 velocity=127 time=0
EXTRACT: note_on channel=10 note=60 velocity=0 time=0.04629625
EXTRACT: note_on channel=10 note=60 velocity=0 time=0
EXTRACT: note_on channel=10 note=60 velocity=0 time=0
EXTRACT: note_on channel=9 note=56 velocity=0 time=0.0856480625
EXTRACT: note_on channel=9 note=36 velocity=0 time=0
EXTRACT: note_on channel=9 note=42 velocity=0 time=0
EXTRACT: note_on channel=9 note=46 velocity=127 time=0.0069444375
EXTRACT: note_on channel=9 note=54 velocity=127 time=0
EXTRACT: note_on channel=9 note=56 velocity=127 time=0
EXTRACT: note_on channel=9 note=39 velocity=127 time=0
EXTRACT: note_on channel=9 note=46 velocity=0 time=0.1319443125
EXTRACT: note_on channel=9 note=54 velocity=0 time=0
EXTRACT: note_on channel=9 note=56 velocity=0 time=0
EXTRACT: note_on channel=9 note=39 velocity=0 time=0
EXTRACT: note_on channel=9 note=54 velocity=127 time=0.0069444375
EXTRACT: note_on channel=9 note=42 velocity=127 time=0
EXTRACT: note_on channel=9 note=54 velocity=0 time=0.1319443125
EXTRACT: note_on channel=9 note=42 velocity=0 time=0
EXTRACT: note_on channel=9 note=54 velocity=127 time=0.0069444375
EXTRACT: note_on channel=9 note=56 velocity=127 time=0
EXTRACT: note_on channel=9 note=36 velocity=127 time=0
EXTRACT: note_on channel=9 note=42 velocity=127 time=0
EXTRACT: note_on channel=10 note=60 velocity=127 time=0
EXTRACT: note_on channel=10 note=60 velocity=127 time=0
EXTRACT: note_on channel=10 note=60 velocity=127 time=0
EXTRACT: note_on channel=9 note=54 velocity=0 time=0.1319443125
EXTRACT: note_on channel=9 note=56 velocity=0 time=0
EXTRACT: note_on channel=9 note=36 velocity=0 time=0
EXTRACT: note_on channel=9 note=42 velocity=0 time=0
EXTRACT: note_on channel=9 note=54 velocity=127 time=0.0069444375
EXTRACT: note_on channel=9 note=42 velocity=127 time=0
EXTRACT: note_on channel=11 note=60 velocity=0 time=0
EXTRACT: note_on channel=11 note=63 velocity=0 time=0
EXTRACT: note_on channel=11 note=68 velocity=0 time=0
EXTRACT: note_on channel=13 note=60 velocity=0 time=0
EXTRACT: note_on channel=13 note=63 velocity=0 time=0
EXTRACT: note_on channel=13 note=68 velocity=0 time=0
EXTRACT: note_on channel=12 note=44 velocity=0 time=0.04629625
EXTRACT: note_on channel=14 note=44 velocity=0 time=0
EXTRACT: note_on channel=9 note=54 velocity=0 time=0.0856480625
EXTRACT: note_on channel=9 note=42 velocity=0 time=0
EXTRACT: note_on channel=10 note=60 velocity=0 time=0
EXTRACT: note_on channel=10 note=60 velocity=0 time=0
EXTRACT: note_on channel=10 note=60 velocity=0 time=0
EXTRACT: note_on channel=9 note=46 velocity=127 time=0
EXTRACT: note_on channel=9 note=54 velocity=127 time=0
EXTRACT: note_on channel=9 note=56 velocity=127 time=0
EXTRACT: note_on channel=9 note=36 velocity=127 time=0
EXTRACT: note_on channel=10 note=62 velocity=127 time=0
EXTRACT: note_on channel=11 note=59 velocity=127 time=0
EXTRACT: note_on channel=11 note=62 velocity=127 time=0
EXTRACT: note_on channel=11 note=67 velocity=127 time=0
EXTRACT: note_on channel=12 note=43 velocity=127 time=0
EXTRACT: note_on channel=13 note=59 velocity=127 time=0
EXTRACT: note_on channel=13 note=62 velocity=127 time=0
EXTRACT: note_on channel=13 note=67 velocity=127 time=0
EXTRACT: note_on channel=14 note=43 velocity=127 time=0
EXTRACT: note_on channel=10 note=62 velocity=127 time=0
EXTRACT: note_on channel=10 note=62 velocity=127 time=0
EXTRACT: note_on channel=9 note=46 velocity=0 time=0.1319443125
EXTRACT: note_on channel=9 note=54 velocity=0 time=0
EXTRACT: note_on channel=9 note=56 velocity=0 time=0
EXTRACT: note_on channel=9 note=36 velocity=0 time=0
EXTRACT: note_on channel=9 note=54 velocity=127 time=0.0069444375
EXTRACT: note_on channel=9 note=42 velocity=127 time=0
EXTRACT: note_on channel=9 note=54 velocity=0 time=0.1319443125
EXTRACT: note_on channel=10 note=62 velocity=0 time=0
EXTRACT: note_on channel=10 note=62 velocity=0 time=0
EXTRACT: note_on channel=10 note=62 velocity=0 time=0
EXTRACT: note_on channel=9 note=46 velocity=127 time=0.0069444375
EXTRACT: note_on channel=9 note=54 velocity=127 time=0
EXTRACT: note_on channel=9 note=56 velocity=127 time=0
EXTRACT: note_on channel=10 note=62 velocity=127 time=0
EXTRACT: note_on channel=10 note=62 velocity=127 time=0
EXTRACT: note_on channel=10 note=62 velocity=127 time=0
EXTRACT: note_on channel=9 note=46 velocity=0 time=0.1319443125
EXTRACT: note_on channel=9 note=54 velocity=0 time=0
EXTRACT: note_on channel=9 note=56 velocity=0 time=0
EXTRACT: note_on channel=9 note=42 velocity=0 time=0
EXTRACT: note_on channel=11 note=59 velocity=0 time=0
EXTRACT: note_on channel=11 note=62 velocity=0 time=0
EXTRACT: note_on channel=11 note=67 velocity=0 time=0
EXTRACT: note_on channel=13 note=59 velocity=0 time=0
EXTRACT: note_on channel=13 note=62 velocity=0 time=0
EXTRACT: note_on channel=13 note=67 velocity=0 time=0
EXTRACT: note_on channel=9 note=54 velocity=127 time=0.0069444375
EXTRACT: note_on channel=9 note=42 velocity=127 time=0
EXTRACT: note_on channel=11 note=59 velocity=127 time=0
EXTRACT: note_on channel=11 note=62 velocity=127 time=0
EXTRACT: note_on channel=11 note=67 velocity=127 time=0
EXTRACT: note_on channel=13 note=59 velocity=127 time=0
EXTRACT: note_on channel=13 note=62 velocity=127 time=0
EXTRACT: note_on channel=13 note=67 velocity=127 time=0
EXTRACT: note_on channel=12 note=43 velocity=0 time=0.04629625
EXTRACT: note_on channel=14 note=43 velocity=0 time=0
EXTRACT: note_on channel=9 note=54 velocity=0 time=0.0856480625
EXTRACT: note_on channel=9 note=42 velocity=0 time=0
EXTRACT: note_on channel=10 note=62 velocity=0 time=0
EXTRACT: note_on channel=10 note=62 velocity=0 time=0
EXTRACT: note_on channel=10 note=62 velocity=0 time=0
EXTRACT: note_on channel=9 note=54 velocity=127 time=0.0069444375
EXTRACT: note_on channel=9 note=56 velocity=127 time=0
EXTRACT: note_on channel=9 note=39 velocity=127 time=0
EXTRACT: note_on channel=9 note=42 velocity=127 time=0
EXTRACT: note_on channel=10 note=60 velocity=127 time=0
EXTRACT: note_on channel=12 note=43 velocity=127 time=0
EXTRACT: note_on channel=14 note=43 velocity=127 time=0
EXTRACT: note_on channel=10 note=60 velocity=127 time=0
EXTRACT: note_on channel=10 note=60 velocity=127 time=0
EXTRACT: note_on channel=9 note=39 velocity=0 time=0.1319443125
EXTRACT: note_on channel=9 note=42 velocity=0 time=0
EXTRACT: note_on channel=9 note=42 velocity=127 time=0.0069444375
EXTRACT: note_on channel=9 note=54 velocity=0 time=0.1319443125
EXTRACT: note_on channel=9 note=56 velocity=0 time=0
EXTRACT: note_on channel=9 note=42 velocity=0 time=0
EXTRACT: note_on channel=10 note=60 velocity=0 time=0
EXTRACT: note_on channel=11 note=59 velocity=0 time=0
EXTRACT: note_on channel=11 note=62 velocity=0 time=0
EXTRACT: note_on channel=11 note=67 velocity=0 time=0
EXTRACT: note_on channel=12 note=43 velocity=0 time=0
EXTRACT: note_on channel=13 note=59 velocity=0 time=0
EXTRACT: note_on channel=13 note=62 velocity=0 time=0
EXTRACT: note_on channel=13 note=67 velocity=0 time=0
EXTRACT: note_on channel=14 note=43 velocity=0 time=0
EXTRACT: note_on channel=10 note=60 velocity=0 time=0
EXTRACT: note_on channel=10 note=60 velocity=0 time=0
EXTRACT: note_on channel=9 note=54 velocity=127 time=0.0069444375
EXTRACT: note_on channel=9 note=36 velocity=127 time=0
EXTRACT: note_on channel=9 note=42 velocity=127 time=0
EXTRACT: note_on channel=10 note=60 velocity=127 time=0
EXTRACT: note_on channel=11 note=60 velocity=127 time=0
EXTRACT: note_on channel=11 note=63 velocity=127 time=0
EXTRACT: note_on channel=11 note=67 velocity=127 time=0
EXTRACT: note_on channel=12 note=47 velocity=127 time=0
EXTRACT: note_on channel=13 note=60 velocity=127 time=0
EXTRACT: note_on channel=13 note=63 velocity=127 time=0
EXTRACT: note_on channel=13 note=67 velocity=127 time=0
EXTRACT: note_on channel=14 note=47 velocity=127 time=0
EXTRACT: note_on channel=10 note=60 velocity=127 time=0
EXTRACT: note_on channel=10 note=60 velocity=127 time=0
EXTRACT: note_on channel=9 note=54 velocity=0 time=0.1319443125
EXTRACT: note_on channel=9 note=36 velocity=0 time=0
EXTRACT: note_on channel=9 note=42 velocity=0 time=0
EXTRACT: note_on channel=9 note=54 velocity=127 time=0.0069444375
EXTRACT: note_on channel=9 note=56 velocity=127 time=0
EXTRACT: note_on channel=9 note=42 velocity=127 time=0
EXTRACT: note_on channel=9 note=54 velocity=0 time=0.1319443125
EXTRACT: note_on channel=9 note=56 velocity=0 time=0
EXTRACT: note_on channel=9 note=42 velocity=0 time=0
EXTRACT: note_on channel=12 note=47 velocity=0 time=0
EXTRACT: note_on channel=14 note=47 velocity=0 time=0
EXTRACT: note_on channel=9 note=54 velocity=127 time=0.0069444375
EXTRACT: note_on channel=9 note=42 velocity=127 time=0
EXTRACT: note_on channel=12 note=48 velocity=127 time=0
EXTRACT: note_on channel=14 note=48 velocity=127 time=0
EXTRACT: note_on channel=9 note=54 velocity=0 time=0.1319443125
EXTRACT: note_on channel=9 note=42 velocity=0 time=0
EXTRACT: note_on channel=10 note=60 velocity=0 time=0
EXTRACT: note_on channel=10 note=60 velocity=0 time=0
EXTRACT: note_on channel=10 note=60 velocity=0 time=0
EXTRACT: note_on channel=9 note=46 velocity=127 time=0.0069444375
EXTRACT: note_on channel=9 note=54 velocity=127 time=0
EXTRACT: note_on channel=9 note=56 velocity=127 time=0
EXTRACT: note_on channel=9 note=36 velocity=127 time=0
EXTRACT: note_on channel=10 note=58 velocity=127 time=0
EXTRACT: note_on channel=10 note=58 velocity=127 time=0
EXTRACT: note_on channel=10 note=58 velocity=127 time=0
EXTRACT: note_on channel=9 note=46 velocity=0 time=0.1319443125
EXTRACT: note_on channel=9 note=54 velocity=0 time=0
EXTRACT: note_on channel=9 note=56 velocity=0 time=0
EXTRACT: note_on channel=9 note=36 velocity=0 time=0
EXTRACT: note_on channel=10 note=58 velocity=0 time=0
EXTRACT: note_on channel=12 note=48 velocity=0 time=0
EXTRACT: note_on channel=14 note=48 velocity=0 time=0
EXTRACT: note_on channel=10 note=58 velocity=0 time=0
EXTRACT: note_on channel=10 note=58 velocity=0 time=0
EXTRACT: note_on channel=9 note=54 velocity=127 time=0.0069444375
EXTRACT: note_on channel=9 note=56 velocity=127 time=0
EXTRACT: note_on channel=9 note=36 velocity=127 time=0
EXTRACT: note_on channel=9 note=42 velocity=127 time=0
EXTRACT: note_on channel=10 note=55 velocity=127 time=0
EXTRACT: note_on channel=12 note=48 velocity=127 time=0
EXTRACT: note_on channel=14 note=48 velocity=127 time=0
EXTRACT: note_on channel=10 note=55 velocity=127 time=0
EXTRACT: note_on channel=10 note=55 velocity=127 time=0
EXTRACT: note_on channel=9 note=54 velocity=0 time=0.1319443125
EXTRACT: note_on channel=9 note=56 velocity=0 time=0
EXTRACT: note_on channel=9 note=36 velocity=0 time=0
EXTRACT: note_on channel=9 note=42 velocity=0 time=0
EXTRACT: note_on channel=9 note=56 velocity=127 time=0.0069444375
EXTRACT: note_on channel=9 note=36 velocity=127 time=0
EXTRACT: note_on channel=9 note=42 velocity=127 time=0
EXTRACT: note_on channel=9 note=56 velocity=0 time=0.1319443125
EXTRACT: note_on channel=9 note=36 velocity=0 time=0
EXTRACT: note_on channel=9 note=42 velocity=0 time=0
EXTRACT: note_on channel=10 note=55 velocity=0 time=0
EXTRACT: note_on channel=10 note=55 velocity=0 time=0
EXTRACT: note_on channel=10 note=55 velocity=0 time=0
EXTRACT: note_on channel=9 note=46 velocity=127 time=0.0069444375
EXTRACT: note_on channel=9 note=54 velocity=127 time=0
EXTRACT: note_on channel=9 note=56 velocity=127 time=0
EXTRACT: note_on channel=9 note=39 velocity=127 time=0
EXTRACT: note_on channel=9 note=46 velocity=0 time=0.1319443125
EXTRACT: note_on channel=9 note=54 velocity=0 time=0
EXTRACT: note_on channel=9 note=56 velocity=0 time=0
EXTRACT: note_on channel=9 note=39 velocity=0 time=0
EXTRACT: note_on channel=9 note=54 velocity=127 time=0.0069444375
EXTRACT: note_on channel=9 note=42 velocity=127 time=0
EXTRACT: note_on channel=9 note=54 velocity=0 time=0.1319443125
EXTRACT: note_on channel=9 note=42 velocity=0 time=0
EXTRACT: note_on channel=9 note=54 velocity=127 time=0.0069444375
EXTRACT: note_on channel=9 note=56 velocity=127 time=0
EXTRACT: note_on channel=9 note=36 velocity=127 time=0
EXTRACT: note_on channel=9 note=42 velocity=127 time=0
EXTRACT: note_on channel=9 note=54 velocity=0 time=0.1319443125
EXTRACT: note_on channel=9 note=56 velocity=0 time=0
EXTRACT: note_on channel=9 note=36 velocity=0 time=0
EXTRACT: note_on channel=9 note=42 velocity=0 time=0
EXTRACT: note_on channel=9 note=54 velocity=127 time=0.0069444375
EXTRACT: note_on channel=9 note=42 velocity=127 time=0
EXTRACT: note_on channel=11 note=60 velocity=0 time=0
EXTRACT: note_on channel=11 note=63 velocity=0 time=0
EXTRACT: note_on channel=11 note=67 velocity=0 time=0
EXTRACT: note_on channel=13 note=60 velocity=0 time=0
EXTRACT: note_on channel=13 note=63 velocity=0 time=0
EXTRACT: note_on channel=13 note=67 velocity=0 time=0
EXTRACT: note_on channel=12 note=48 velocity=0 time=0.04629625
EXTRACT: note_on channel=14 note=48 velocity=0 time=0
EXTRACT: note_on channel=9 note=54 velocity=0 time=0.0856480625
EXTRACT: note_on channel=9 note=42 velocity=0 time=0
EXTRACT: note_on channel=9 note=46 velocity=127 time=0
EXTRACT: note_on channel=9 note=54 velocity=127 time=0
EXTRACT: note_on channel=9 note=56 velocity=127 time=0
EXTRACT: note_on channel=9 note=36 velocity=127 time=0
EXTRACT: note_on channel=11 note=60 velocity=127 time=0
EXTRACT: note_on channel=11 note=63 velocity=127 time=0
EXTRACT: note_on channel=11 note=67 velocity=127 time=0
EXTRACT: note_on channel=12 note=48 velocity=127 time=0
EXTRACT: note_on channel=13 note=60 velocity=127 time=0
EXTRACT: note_on channel=13 note=63 velocity=127 time=0
EXTRACT: note_on channel=13 note=67 velocity=127 time=0
EXTRACT: note_on channel=14 note=48 velocity=127 time=0
EXTRACT: note_on channel=9 note=46 velocity=0 time=0.1319443125
EXTRACT: note_on channel=9 note=54 velocity=0 time=0
EXTRACT: note_on channel=9 note=56 velocity=0 time=0
EXTRACT: note_on channel=9 note=36 velocity=0 time=0
EXTRACT: note_on channel=9 note=54 velocity=127 time=0.0069444375
EXTRACT: note_on channel=9 note=42 velocity=127 time=0
EXTRACT: note_on channel=9 note=54 velocity=0 time=0.1319443125
EXTRACT: note_on channel=9 note=46 velocity=127 time=0.0069444375
EXTRACT: note_on channel=9 note=54 velocity=127 time=0
EXTRACT: note_on channel=9 note=56 velocity=127 time=0
EXTRACT: note_on channel=10 note=63 velocity=127 time=0
EXTRACT: note_on channel=10 note=63 velocity=127 time=0
EXTRACT: note_on channel=10 note=63 velocity=127 time=0
EXTRACT: note_on channel=9 note=46 velocity=0 time=0.1319443125
EXTRACT: note_on channel=9 note=54 velocity=0 time=0
EXTRACT: note_on channel=9 note=56 velocity=0 time=0
EXTRACT: note_on channel=9 note=42 velocity=0 time=0
EXTRACT: note_on channel=11 note=60 velocity=0 time=0
EXTRACT: note_on channel=11 note=63 velocity=0 time=0
EXTRACT: note_on channel=11 note=67 velocity=0 time=0
EXTRACT: note_on channel=13 note=60 velocity=0 time=0
EXTRACT: note_on channel=13 note=63 velocity=0 time=0
EXTRACT: note_on channel=13 note=67 velocity=0 time=0
EXTRACT: note_on channel=9 note=54 velocity=127 time=0.0069444375
EXTRACT: note_on channel=9 note=42 velocity=127 time=0
EXTRACT: note_on channel=11 note=60 velocity=127 time=0
EXTRACT: note_on channel=11 note=63 velocity=127 time=0
EXTRACT: note_on channel=11 note=67 velocity=127 time=0
EXTRACT: note_on channel=13 note=60 velocity=127 time=0
EXTRACT: note_on channel=13 note=63 velocity=127 time=0
EXTRACT: note_on channel=13 note=67 velocity=127 time=0
EXTRACT: note_on channel=12 note=48 velocity=0 time=0.04629625
EXTRACT: note_on channel=14 note=48 velocity=0 time=0
EXTRACT: note_on channel=9 note=54 velocity=0 time=0.0856480625
EXTRACT: note_on channel=9 note=42 velocity=0 time=0
EXTRACT: note_on channel=10 note=63 velocity=0 time=0
EXTRACT: note_on channel=10 note=63 velocity=0 time=0
EXTRACT: note_on channel=10 note=63 velocity=0 time=0
EXTRACT: note_on channel=9 note=54 velocity=127 time=0.0069444375
EXTRACT: note_on channel=9 note=56 velocity=127 time=0
EXTRACT: note_on channel=9 note=39 velocity=127 time=0
EXTRACT: note_on channel=9 note=42 velocity=127 time=0
EXTRACT: note_on channel=10 note=63 velocity=127 time=0
EXTRACT: note_on channel=12 note=48 velocity=127 time=0
EXTRACT: note_on channel=14 note=48 velocity=127 time=0
EXTRACT: note_on channel=10 note=63 velocity=127 time=0
EXTRACT: note_on channel=10 note=63 velocity=127 time=0
EXTRACT: note_on channel=9 note=39 velocity=0 time=0.1319443125
EXTRACT: note_on channel=9 note=42 velocity=0 time=0
EXTRACT: note_on channel=9 note=42 velocity=127 time=0.0069444375
EXTRACT: note_on channel=9 note=54 velocity=0 time=0.1319443125
EXTRACT: note_on channel=9 note=56 velocity=0 time=0
EXTRACT: note_on channel=9 note=42 velocity=0 time=0
EXTRACT: note_on channel=10 note=63 velocity=0 time=0
EXTRACT: note_on channel=11 note=60 velocity=0 time=0
EXTRACT: note_on channel=11 note=63 velocity=0 time=0
EXTRACT: note_on channel=11 note=67 velocity=0 time=0
EXTRACT: note_on channel=12 note=48 velocity=0 time=0
EXTRACT: note_on channel=13 note=60 velocity=0 time=0
EXTRACT: note_on channel=13 note=63 velocity=0 time=0
EXTRACT: note_on channel=13 note=67 velocity=0 time=0
EXTRACT: note_on channel=14 note=48 velocity=0 time=0
EXTRACT: note_on channel=10 note=63 velocity=0 time=0
EXTRACT: note_on channel=10 note=63 velocity=0 time=0
EXTRACT: note_on channel=9 note=54 velocity=127 time=0.0069444375
EXTRACT: note_on channel=9 note=36 velocity=127 time=0
EXTRACT: note_on channel=9 note=42 velocity=127 time=0
EXTRACT: note_on channel=10 note=60 velocity=127 time=0
EXTRACT: note_on channel=11 note=60 velocity=127 time=0
EXTRACT: note_on channel=11 note=63 velocity=127 time=0
EXTRACT: note_on channel=11 note=68 velocity=127 time=0
EXTRACT: note_on channel=12 note=43 velocity=127 time=0
EXTRACT: note_on channel=13 note=60 velocity=127 time=0
EXTRACT: note_on channel=13 note=63 velocity=127 time=0
EXTRACT: note_on channel=13 note=68 velocity=127 time=0
EXTRACT: note_on channel=14 note=43 velocity=127 time=0
EXTRACT: note_on channel=10 note=60 velocity=127 time=0
EXTRACT: note_on channel=10 note=60 velocity=127 time=0
EXTRACT: note_on channel=9 note=54 velocity=0 time=0.1319443125
EXTRACT: note_on channel=9 note=36 velocity=0 time=0
EXTRACT: note_on channel=9 note=42 velocity=0 time=0
EXTRACT: note_on channel=9 note=54 velocity=127 time=0.0069444375
EXTRACT: note_on channel=9 note=56 velocity=127 time=0
EXTRACT: note_on channel=9 note=42 velocity=127 time=0
EXTRACT: note_on channel=9 note=54 velocity=0 time=0.1319443125
EXTRACT: note_on channel=9 note=56 velocity=0 time=0
EXTRACT: note_on channel=9 note=42 velocity=0 time=0
EXTRACT: note_on channel=10 note=60 velocity=0 time=0
EXTRACT: note_on channel=12 note=43 velocity=0 time=0
EXTRACT: note_on channel=14 note=43 velocity=0 time=0
EXTRACT: note_on channel=10 note=60 velocity=0 time=0
EXTRACT: note_on channel=10 note=60 velocity=0 time=0
EXTRACT: note_on channel=9 note=54 velocity=127 time=0.0069444375
EXTRACT: note_on channel=9 note=42 velocity=127 time=0
EXTRACT: note_on channel=10 note=63 velocity=127 time=0
EXTRACT: note_on channel=12 note=44 velocity=127 time=0
EXTRACT: note_on channel=14 note=44 velocity=127 time=0
EXTRACT: note_on channel=10 note=63 velocity=127 time=0
EXTRACT: note_on channel=10 note=63 velocity=127 time=0
EXTRACT: note_on channel=9 note=54 velocity=0 time=0.1319443125
EXTRACT: note_on channel=9 note=42 velocity=0 time=0
EXTRACT: note_on channel=9 note=46 velocity=127 time=0.0069444375
EXTRACT: note_on channel=9 note=54 velocity=127 time=0
EXTRACT: note_on channel=9 note=56 velocity=127 time=0
EXTRACT: note_on channel=9 note=36 velocity=127 time=0
EXTRACT: note_on channel=9 note=46 velocity=0 time=0.1319443125
EXTRACT: note_on channel=9 note=54 velocity=0 time=0
EXTRACT: note_on channel=9 note=56 velocity=0 time=0
EXTRACT: note_on channel=9 note=36 velocity=0 time=0
EXTRACT: note_on channel=10 note=63 velocity=0 time=0
EXTRACT: note_on channel=12 note=44 velocity=0 time=0
EXTRACT: note_on channel=14 note=44 velocity=0 time=0
EXTRACT: note_on channel=10 note=63 velocity=0 time=0
EXTRACT: note_on channel=10 note=63 velocity=0 time=0
EXTRACT: note_on channel=9 note=54 velocity=127 time=0.0069444375
EXTRACT: note_on channel=9 note=56 velocity=127 time=0
EXTRACT: note_on channel=9 note=36 velocity=127 time=0
EXTRACT: note_on channel=9 note=42 velocity=127 time=0
EXTRACT: note_on channel=10 note=60 velocity=127 time=0
EXTRACT: note_on channel=12 note=44 velocity=127 time=0
EXTRACT: note_on channel=14 note=44 velocity=127 time=0
EXTRACT: note_on channel=10 note=60 velocity=127 time=0
EXTRACT: note_on channel=10 note=60 velocity=127 time=0
EXTRACT: note_on channel=9 note=54 velocity=0 time=0.1319443125
EXTRACT: note_on channel=9 note=56 velocity=0 time=0
EXTRACT: note_on channel=9 note=36 velocity=0 time=0
EXTRACT: note_on channel=9 note=42 velocity=0 time=0
EXTRACT: note_on channel=9 note=56 velocity=127 time=0.0069444375
EXTRACT: note_on channel=9 note=36 velocity=127 time=0
EXTRACT: note_on channel=9 note=42 velocity=127 time=0
EXTRACT: note_on channel=9 note=56 velocity=0 time=0.1319443125
EXTRACT: note_on channel=9 note=36 velocity=0 time=0
EXTRACT: note_on channel=9 note=42 velocity=0 time=0
EXTRACT: note_on channel=10 note=60 velocity=0 time=0
EXTRACT: note_on channel=10 note=60 velocity=0 time=0
EXTRACT: note_on channel=10 note=60 velocity=0 time=0
EXTRACT: note_on channel=9 note=46 velocity=127 time=0.0069444375
EXTRACT: note_on channel=9 note=54 velocity=127 time=0
EXTRACT: note_on channel=9 note=56 velocity=127 time=0
EXTRACT: note_on channel=9 note=39 velocity=127 time=0
EXTRACT: note_on channel=9 note=46 velocity=0 time=0.1319443125
EXTRACT: note_on channel=9 note=54 velocity=0 time=0
EXTRACT: note_on channel=9 note=56 velocity=0 time=0
EXTRACT: note_on channel=9 note=39 velocity=0 time=0
EXTRACT: note_on channel=9 note=54 velocity=127 time=0.0069444375
EXTRACT: note_on channel=9 note=42 velocity=127 time=0
EXTRACT: note_on channel=9 note=54 velocity=0 time=0.1319443125
EXTRACT: note_on channel=9 note=42 velocity=0 time=0
EXTRACT: note_on channel=9 note=54 velocity=127 time=0.0069444375
EXTRACT: note_on channel=9 note=56 velocity=127 time=0
EXTRACT: note_on channel=9 note=36 velocity=127 time=0
EXTRACT: note_on channel=9 note=42 velocity=127 time=0
EXTRACT: note_on channel=9 note=54 velocity=0 time=0.1319443125
EXTRACT: note_on channel=9 note=56 velocity=0 time=0
EXTRACT: note_on channel=9 note=36 velocity=0 time=0
EXTRACT: note_on channel=9 note=42 velocity=0 time=0
EXTRACT: note_on channel=9 note=54 velocity=127 time=0.0069444375
EXTRACT: note_on channel=9 note=42 velocity=127 time=0
EXTRACT: note_on channel=11 note=60 velocity=0 time=0
EXTRACT: note_on channel=11 note=63 velocity=0 time=0
EXTRACT: note_on channel=11 note=68 velocity=0 time=0
EXTRACT: note_on channel=13 note=60 velocity=0 time=0
EXTRACT: note_on channel=13 note=63 velocity=0 time=0
EXTRACT: note_on channel=13 note=68 velocity=0 time=0
EXTRACT: note_on channel=12 note=44 velocity=0 time=0.04629625
EXTRACT: note_on channel=14 note=44 velocity=0 time=0
EXTRACT: note_on channel=9 note=54 velocity=0 time=0.0856480625
EXTRACT: note_on channel=9 note=42 velocity=0 time=0
EXTRACT: note_on channel=9 note=46 velocity=127 time=0
EXTRACT: note_on channel=9 note=54 velocity=127 time=0
EXTRACT: note_on channel=9 note=56 velocity=127 time=0
EXTRACT: note_on channel=9 note=36 velocity=127 time=0
EXTRACT: note_on channel=10 note=59 velocity=127 time=0
EXTRACT: note_on channel=11 note=59 velocity=127 time=0
EXTRACT: note_on channel=11 note=62 velocity=127 time=0
EXTRACT: note_on channel=11 note=67 velocity=127 time=0
EXTRACT: note_on channel=12 note=43 velocity=127 time=0
EXTRACT: note_on channel=13 note=59 velocity=127 time=0
EXTRACT: note_on channel=13 note=62 velocity=127 time=0
EXTRACT: note_on channel=13 note=67 velocity=127 time=0
EXTRACT: note_on channel=14 note=43 velocity=127 time=0
EXTRACT: note_on channel=10 note=59 velocity=127 time=0
EXTRACT: note_on channel=10 note=59 velocity=127 time=0
EXTRACT: note_on channel=9 note=46 velocity=0 time=0.1319443125
EXTRACT: note_on channel=9 note=54 velocity=0 time=0
EXTRACT: note_on channel=9 note=56 velocity=0 time=0
EXTRACT: note_on channel=9 note=36 velocity=0 time=0
EXTRACT: note_on channel=9 note=54 velocity=127 time=0.0069444375
EXTRACT: note_on channel=9 note=42 velocity=127 time=0
EXTRACT: note_on channel=9 note=54 velocity=0 time=0.1319443125
EXTRACT: note_on channel=10 note=59 velocity=0 time=0
EXTRACT: note_on channel=10 note=59 velocity=0 time=0
EXTRACT: note_on channel=10 note=59 velocity=0 time=0
EXTRACT: note_on channel=9 note=46 velocity=127 time=0.0069444375
EXTRACT: note_on channel=9 note=54 velocity=127 time=0
EXTRACT: note_on channel=9 note=56 velocity=127 time=0
EXTRACT: note_on channel=10 note=60 velocity=127 time=0
EXTRACT: note_on channel=10 note=60 velocity=127 time=0
EXTRACT: note_on channel=10 note=60 velocity=127 time=0
EXTRACT: note_on channel=9 note=46 velocity=0 time=0.1319443125
EXTRACT: note_on channel=9 note=54 velocity=0 time=0
EXTRACT: note_on channel=9 note=56 velocity=0 time=0
EXTRACT: note_on channel=9 note=42 velocity=0 time=0
EXTRACT: note_on channel=11 note=59 velocity=0 time=0
EXTRACT: note_on channel=11 note=62 velocity=0 time=0
EXTRACT: note_on channel=11 note=67 velocity=0 time=0
EXTRACT: note_on channel=13 note=59 velocity=0 time=0
EXTRACT: note_on channel=13 note=62 velocity=0 time=0
EXTRACT: note_on channel=13 note=67 velocity=0 time=0
EXTRACT: note_on channel=9 note=54 velocity=127 time=0.0069444375
EXTRACT: note_on channel=9 note=42 velocity=127 time=0
EXTRACT: note_on channel=11 note=59 velocity=127 time=0
EXTRACT: note_on channel=11 note=62 velocity=127 time=0
EXTRACT: note_on channel=11 note=67 velocity=127 time=0
EXTRACT: note_on channel=13 note=59 velocity=127 time=0
EXTRACT: note_on channel=13 note=62 velocity=127 time=0
EXTRACT: note_on channel=13 note=67 velocity=127 time=0
EXTRACT: note_on channel=12 note=43 velocity=0 time=0.04629625
EXTRACT: note_on channel=14 note=43 velocity=0 time=0
EXTRACT: note_on channel=9 note=54 velocity=0 time=0.0856480625
EXTRACT: note_on channel=9 note=42 velocity=0 time=0
EXTRACT: note_on channel=10 note=60 velocity=0 time=0
EXTRACT: note_on channel=10 note=60 velocity=0 time=0
EXTRACT: note_on channel=10 note=60 velocity=0 time=0
EXTRACT: note_on channel=9 note=54 velocity=127 time=0.0069444375
EXTRACT: note_on channel=9 note=56 velocity=127 time=0
EXTRACT: note_on channel=9 note=39 velocity=127 time=0
EXTRACT: note_on channel=9 note=42 velocity=127 time=0
EXTRACT: note_on channel=10 note=62 velocity=127 time=0
EXTRACT: note_on channel=12 note=43 velocity=127 time=0
EXTRACT: note_on channel=14 note=43 velocity=127 time=0
EXTRACT: note_on channel=10 note=62 velocity=127 time=0
EXTRACT: note_on channel=10 note=62 velocity=127 time=0
EXTRACT: note_on channel=9 note=39 velocity=0 time=0.1319443125
EXTRACT: note_on channel=9 note=42 velocity=0 time=0
EXTRACT: note_on channel=9 note=42 velocity=127 time=0.0069444375
EXTRACT: note_on channel=9 note=54 velocity=0 time=0.1319443125
EXTRACT: note_on channel=9 note=56 velocity=0 time=0
EXTRACT: note_on channel=9 note=42 velocity=0 time=0
EXTRACT: note_on channel=10 note=62 velocity=0 time=0
EXTRACT: note_on channel=11 note=59 velocity=0 time=0
EXTRACT: note_on channel=11 note=62 velocity=0 time=0
EXTRACT: note_on channel=11 note=67 velocity=0 time=0
EXTRACT: note_on channel=12 note=43 velocity=0 time=0
EXTRACT: note_on channel=13 note=59 velocity=0 time=0
EXTRACT: note_on channel=13 note=62 velocity=0 time=0
EXTRACT: note_on channel=13 note=67 velocity=0 time=0
EXTRACT: note_on channel=14 note=43 velocity=0 time=0
EXTRACT: note_on channel=10 note=62 velocity=0 time=0
EXTRACT: note_on channel=10 note=62 velocity=0 time=0
EXTRACT: note_on channel=9 note=54 velocity=127 time=0.0069444375
EXTRACT: note_on channel=9 note=36 velocity=127 time=0
EXTRACT: note_on channel=9 note=42 velocity=127 time=0
EXTRACT: note_on channel=10 note=60 velocity=127 time=0
EXTRACT: note_on channel=11 note=60 velocity=127 time=0
EXTRACT: note_on channel=11 note=63 velocity=127 time=0
EXTRACT: note_on channel=11 note=67 velocity=127 time=0
EXTRACT: note_on channel=12 note=47 velocity=127 time=0
EXTRACT: note_on channel=13 note=60 velocity=127 time=0
EXTRACT: note_on channel=13 note=63 velocity=127 time=0
EXTRACT: note_on channel=13 note=67 velocity=127 time=0
EXTRACT: note_on channel=14 note=47 velocity=127 time=0
EXTRACT: note_on channel=10 note=60 velocity=127 time=0
EXTRACT: note_on channel=10 note=60 velocity=127 time=0
EXTRACT: note_on channel=9 note=54 velocity=0 time=0.1319443125
EXTRACT: note_on channel=9 note=36 velocity=0 time=0
EXTRACT: note_on channel=9 note=42 velocity=0 time=0
EXTRACT: note_on channel=9 note=54 velocity=127 time=0.0069444375
EXTRACT: note_on channel=9 note=56 velocity=127 time=0
EXTRACT: note_on channel=9 note=42 velocity=127 time=0
EXTRACT: note_on channel=9 note=54 velocity=0 time=0.1319443125
EXTRACT: note_on channel=9 note=56 velocity=0 time=0
EXTRACT: note_on channel=9 note=42 velocity=0 time=0
EXTRACT: note_on channel=12 note=47 velocity=0 time=0
EXTRACT: note_on channel=14 note=47 velocity=0 time=0
EXTRACT: note_on channel=9 note=54 velocity=127 time=0.0069444375
EXTRACT: note_on channel=9 note=42 velocity=127 time=0
EXTRACT: note_on channel=12 note=48 velocity=127 time=0
EXTRACT: note_on channel=14 note=48 velocity=127 time=0
EXTRACT: note_on channel=9 note=54 velocity=0 time=0.1319443125
EXTRACT: note_on channel=9 note=42 velocity=0 time=0
EXTRACT: note_on channel=9 note=46 velocity=127 time=0.0069444375
EXTRACT: note_on channel=9 note=54 velocity=127 time=0
EXTRACT: note_on channel=9 note=56 velocity=127 time=0
EXTRACT: note_on channel=9 note=36 velocity=127 time=0
EXTRACT: note_on channel=9 note=46 velocity=0 time=0.1319443125
EXTRACT: note_on channel=9 note=54 velocity=0 time=0
EXTRACT: note_on channel=9 note=56 velocity=0 time=0
EXTRACT: note_on channel=9 note=36 velocity=0 time=0
EXTRACT: note_on channel=12 note=48 velocity=0 time=0
EXTRACT: note_on channel=14 note=48 velocity=0 time=0
EXTRACT: note_on channel=9 note=54 velocity=127 time=0.0069444375
EXTRACT: note_on channel=9 note=56 velocity=127 time=0
EXTRACT: note_on channel=9 note=36 velocity=127 time=0
EXTRACT: note_on channel=9 note=42 velocity=127 time=0
EXTRACT: note_on channel=12 note=48 velocity=127 time=0
EXTRACT: note_on channel=14 note=48 velocity=127 time=0
EXTRACT: note_on channel=9 note=54 velocity=0 time=0.1319443125
EXTRACT: note_on channel=9 note=56 velocity=0 time=0
EXTRACT: note_on channel=9 note=36 velocity=0 time=0
EXTRACT: note_on channel=9 note=42 velocity=0 time=0
EXTRACT: note_on channel=9 note=56 velocity=127 time=0.0069444375
EXTRACT: note_on channel=9 note=36 velocity=127 time=0
EXTRACT: note_on channel=9 note=42 velocity=127 time=0
EXTRACT: note_on channel=9 note=56 velocity=0 time=0.1319443125
EXTRACT: note_on channel=9 note=36 velocity=0 time=0
EXTRACT: note_on channel=9 note=42 velocity=0 time=0
EXTRACT: note_on channel=9 note=46 velocity=127 time=0.0069444375
EXTRACT: note_on channel=9 note=54 velocity=127 time=0
EXTRACT: note_on channel=9 note=56 velocity=127 time=0
EXTRACT: note_on channel=9 note=39 velocity=127 time=0
EXTRACT: note_on channel=9 note=46 velocity=0 time=0.1319443125
EXTRACT: note_on channel=9 note=54 velocity=0 time=0
EXTRACT: note_on channel=9 note=56 velocity=0 time=0
EXTRACT: note_on channel=9 note=39 velocity=0 time=0
EXTRACT: note_on channel=9 note=54 velocity=127 time=0.0069444375
EXTRACT: note_on channel=9 note=42 velocity=127 time=0
EXTRACT: note_on channel=9 note=54 velocity=0 time=0.1319443125
EXTRACT: note_on channel=9 note=42 velocity=0 time=0
EXTRACT: note_on channel=9 note=54 velocity=127 time=0.0069444375
EXTRACT: note_on channel=9 note=56 velocity=127 time=0
EXTRACT: note_on channel=9 note=36 velocity=127 time=0
EXTRACT: note_on channel=9 note=42 velocity=127 time=0
EXTRACT: note_on channel=9 note=54 velocity=0 time=0.1319443125
EXTRACT: note_on channel=9 note=56 velocity=0 time=0
EXTRACT: note_on channel=9 note=36 velocity=0 time=0
EXTRACT: note_on channel=9 note=42 velocity=0 time=0
EXTRACT: note_on channel=9 note=54 velocity=127 time=0.0069444375
EXTRACT: note_on channel=9 note=42 velocity=127 time=0
EXTRACT: note_on channel=10 note=60 velocity=0 time=0
EXTRACT: note_on channel=11 note=60 velocity=0 time=0
EXTRACT: note_on channel=11 note=63 velocity=0 time=0
EXTRACT: note_on channel=11 note=67 velocity=0 time=0
EXTRACT: note_on channel=13 note=60 velocity=0 time=0
EXTRACT: note_on channel=13 note=63 velocity=0 time=0
EXTRACT: note_on channel=13 note=67 velocity=0 time=0
EXTRACT: note_on channel=10 note=60 velocity=0 time=0
EXTRACT: note_on channel=10 note=60 velocity=0 time=0
EXTRACT: note_on channel=12 note=48 velocity=0 time=0.04629625
EXTRACT: note_on channel=14 note=48 velocity=0 time=0
EXTRACT: note_on channel=9 note=54 velocity=0 time=0.0856480625
EXTRACT: note_on channel=9 note=42 velocity=0 time=0
EXTRACT: note_on channel=9 note=46 velocity=127 time=0
EXTRACT: note_on channel=9 note=54 velocity=127 time=0
EXTRACT: note_on channel=9 note=56 velocity=127 time=0
EXTRACT: note_on channel=9 note=36 velocity=127 time=0
EXTRACT: note_on channel=10 note=63 velocity=127 time=0
EXTRACT: note_on channel=11 note=60 velocity=127 time=0
EXTRACT: note_on channel=11 note=63 velocity=127 time=0
EXTRACT: note_on channel=11 note=67 velocity=127 time=0
EXTRACT: note_on channel=12 note=48 velocity=127 time=0
EXTRACT: note_on channel=13 note=60 velocity=127 time=0
EXTRACT: note_on channel=13 note=63 velocity=127 time=0
EXTRACT: note_on channel=13 note=67 velocity=127 time=0
EXTRACT: note_on channel=14 note=48 velocity=127 time=0
EXTRACT: note_on channel=10 note=63 velocity=127 time=0
EXTRACT: note_on channel=10 note=63 velocity=127 time=0
EXTRACT: note_on channel=9 note=46 velocity=0 time=0.1319443125
EXTRACT: note_on channel=9 note=54 velocity=0 time=0
EXTRACT: note_on channel=9 note=56 velocity=0 time=0
EXTRACT: note_on channel=9 note=36 velocity=0 time=0
EXTRACT: note_on channel=9 note=54 velocity=127 time=0.0069444375
EXTRACT: note_on channel=9 note=42 velocity=127 time=0
EXTRACT: note_on channel=9 note=54 velocity=0 time=0.1319443125
EXTRACT: note_on channel=9 note=46 velocity=127 time=0.0069444375
EXTRACT: note_on channel=9 note=54 velocity=127 time=0
EXTRACT: note_on channel=9 note=56 velocity=127 time=0
EXTRACT: note_on channel=9 note=46 velocity=0 time=0.1319443125
EXTRACT: note_on channel=9 note=54 velocity=0 time=0
EXTRACT: note_on channel=9 note=56 velocity=0 time=0
EXTRACT: note_on channel=9 note=42 velocity=0 time=0
EXTRACT: note_on channel=11 note=60 velocity=0 time=0
EXTRACT: note_on channel=11 note=63 velocity=0 time=0
EXTRACT: note_on channel=11 note=67 velocity=0 time=0
EXTRACT: note_on channel=13 note=60 velocity=0 time=0
EXTRACT: note_on channel=13 note=63 velocity=0 time=0
EXTRACT: note_on channel=13 note=67 velocity=0 time=0
EXTRACT: note_on channel=9 note=54 velocity=127 time=0.0069444375
EXTRACT: note_on channel=9 note=42 velocity=127 time=0
EXTRACT: note_on channel=11 note=60 velocity=127 time=0
EXTRACT: note_on channel=11 note=63 velocity=127 time=0
EXTRACT: note_on channel=11 note=67 velocity=127 time=0
EXTRACT: note_on channel=13 note=60 velocity=127 time=0
EXTRACT: note_on channel=13 note=63 velocity=127 time=0
EXTRACT: note_on channel=13 note=67 velocity=127 time=0
EXTRACT: note_on channel=12 note=48 velocity=0 time=0.04629625
EXTRACT: note_on channel=14 note=48 velocity=0 time=0
EXTRACT: note_on channel=9 note=54 velocity=0 time=0.0856480625
EXTRACT: note_on channel=9 note=42 velocity=0 time=0
EXTRACT: note_on channel=9 note=54 velocity=127 time=0.0069444375
EXTRACT: note_on channel=9 note=56 velocity=127 time=0
EXTRACT: note_on channel=9 note=39 velocity=127 time=0
EXTRACT: note_on channel=9 note=42 velocity=127 time=0
EXTRACT: note_on channel=12 note=48 velocity=127 time=0
EXTRACT: note_on channel=14 note=48 velocity=127 time=0
EXTRACT: note_on channel=9 note=39 velocity=0 time=0.1319443125
EXTRACT: note_on channel=9 note=42 velocity=0 time=0
EXTRACT: note_on channel=9 note=42 velocity=127 time=0.0069444375
EXTRACT: note_on channel=10 note=63 velocity=0 time=0.04629625
EXTRACT: note_on channel=10 note=63 velocity=0 time=0
EXTRACT: note_on channel=10 note=63 velocity=0 time=0
EXTRACT: note_on channel=9 note=54 velocity=0 time=0.0856480625
EXTRACT: note_on channel=9 note=56 velocity=0 time=0
EXTRACT: note_on channel=9 note=42 velocity=0 time=0
EXTRACT: note_on channel=11 note=60 velocity=0 time=0
EXTRACT: note_on channel=11 note=63 velocity=0 time=0
EXTRACT: note_on channel=11 note=67 velocity=0 time=0
EXTRACT: note_on channel=12 note=48 velocity=0 time=0
EXTRACT: note_on channel=13 note=60 velocity=0 time=0
EXTRACT: note_on channel=13 note=63 velocity=0 time=0
EXTRACT: note_on channel=13 note=67 velocity=0 time=0
EXTRACT: note_on channel=14 note=48 velocity=0 time=0
EXTRACT: note_on channel=9 note=54 velocity=127 time=0.0069444375
EXTRACT: note_on channel=9 note=36 velocity=127 time=0
EXTRACT: note_on channel=9 note=42 velocity=127 time=0
EXTRACT: note_on channel=10 note=60 velocity=127 time=0
EXTRACT: note_on channel=11 note=60 velocity=127 time=0
EXTRACT: note_on channel=11 note=63 velocity=127 time=0
EXTRACT: note_on channel=11 note=68 velocity=127 time=0
EXTRACT: note_on channel=12 note=43 velocity=127 time=0
EXTRACT: note_on channel=13 note=60 velocity=127 time=0
EXTRACT: note_on channel=13 note=63 velocity=127 time=0
EXTRACT: note_on channel=13 note=68 velocity=127 time=0
EXTRACT: note_on channel=14 note=43 velocity=127 time=0
EXTRACT: note_on channel=10 note=60 velocity=127 time=0
EXTRACT: note_on channel=10 note=60 velocity=127 time=0
EXTRACT: note_on channel=9 note=54 velocity=0 time=0.1319443125
EXTRACT: note_on channel=9 note=36 velocity=0 time=0
EXTRACT: note_on channel=9 note=42 velocity=0 time=0
EXTRACT: note_on channel=9 note=54 velocity=127 time=0.0069444375
EXTRACT: note_on channel=9 note=56 velocity=127 time=0
EXTRACT: note_on channel=9 note=42 velocity=127 time=0
EXTRACT: note_on channel=9 note=54 velocity=0 time=0.1319443125
EXTRACT: note_on channel=9 note=56 velocity=0 time=0
EXTRACT: note_on channel=9 note=42 velocity=0 time=0
EXTRACT: note_on channel=12 note=43 velocity=0 time=0
EXTRACT: note_on channel=14 note=43 velocity=0 time=0
EXTRACT: note_on channel=9 note=54 velocity=127 time=0.0069444375
EXTRACT: note_on channel=9 note=42 velocity=127 time=0
EXTRACT: note_on channel=12 note=44 velocity=127 time=0
EXTRACT: note_on channel=14 note=44 velocity=127 time=0
EXTRACT: note_on channel=9 note=54 velocity=0 time=0.1319443125
EXTRACT: note_on channel=9 note=42 velocity=0 time=0
EXTRACT: note_on channel=9 note=46 velocity=127 time=0.0069444375
EXTRACT: note_on channel=9 note=54 velocity=127 time=0
EXTRACT: note_on channel=9 note=56 velocity=127 time=0
EXTRACT: note_on channel=9 note=36 velocity=127 time=0
EXTRACT: note_on channel=9 note=46 velocity=0 time=0.1319443125
EXTRACT: note_on channel=9 note=54 velocity=0 time=0
EXTRACT: note_on channel=9 note=56 velocity=0 time=0
EXTRACT: note_on channel=9 note=36 velocity=0 time=0
EXTRACT: note_on channel=12 note=44 velocity=0 time=0
EXTRACT: note_on channel=14 note=44 velocity=0 time=0
EXTRACT: note_on channel=9 note=54 velocity=127 time=0.0069444375
EXTRACT: note_on channel=9 note=56 velocity=127 time=0
EXTRACT: note_on channel=9 note=36 velocity=127 time=0
EXTRACT: note_on channel=9 note=42 velocity=127 time=0
EXTRACT: note_on channel=12 note=44 velocity=127 time=0
EXTRACT: note_on channel=14 note=44 velocity=127 time=0
EXTRACT: note_on channel=9 note=54 velocity=0 time=0.1319443125
EXTRACT: note_on channel=9 note=56 velocity=0 time=0
EXTRACT: note_on channel=9 note=36 velocity=0 time=0
EXTRACT: note_on channel=9 note=42 velocity=0 time=0
EXTRACT: note_on channel=9 note=56 velocity=127 time=0.0069444375
EXTRACT: note_on channel=9 note=36 velocity=127 time=0
EXTRACT: note_on channel=9 note=42 velocity=127 time=0
EXTRACT: note_on channel=9 note=56 velocity=0 time=0.1319443125
EXTRACT: note_on channel=9 note=36 velocity=0 time=0
EXTRACT: note_on channel=9 note=42 velocity=0 time=0
EXTRACT: note_on channel=9 note=46 velocity=127 time=0.0069444375
EXTRACT: note_on channel=9 note=54 velocity=127 time=0
EXTRACT: note_on channel=9 note=56 velocity=127 time=0
EXTRACT: note_on channel=9 note=39 velocity=127 time=0
EXTRACT: note_on channel=9 note=46 velocity=0 time=0.1319443125
EXTRACT: note_on channel=9 note=54 velocity=0 time=0
EXTRACT: note_on channel=9 note=56 velocity=0 time=0
EXTRACT: note_on channel=9 note=39 velocity=0 time=0
EXTRACT: note_on channel=9 note=54 velocity=127 time=0.0069444375
EXTRACT: note_on channel=9 note=42 velocity=127 time=0
EXTRACT: note_on channel=10 note=60 velocity=0 time=0.04629625
EXTRACT: note_on channel=10 note=60 velocity=0 time=0
EXTRACT: note_on channel=10 note=60 velocity=0 time=0
EXTRACT: note_on channel=9 note=54 velocity=0 time=0.0856480625
EXTRACT: note_on channel=9 note=42 velocity=0 time=0
EXTRACT: note_on channel=9 note=54 velocity=127 time=0.0069444375
EXTRACT: note_on channel=9 note=56 velocity=127 time=0
EXTRACT: note_on channel=9 note=36 velocity=127 time=0
EXTRACT: note_on channel=9 note=42 velocity=127 time=0
EXTRACT: note_on channel=10 note=60 velocity=127 time=0
EXTRACT: note_on channel=10 note=60 velocity=127 time=0
EXTRACT: note_on channel=10 note=60 velocity=127 time=0
EXTRACT: note_on channel=9 note=54 velocity=0 time=0.1319443125
EXTRACT: note_on channel=9 note=56 velocity=0 time=0
EXTRACT: note_on channel=9 note=36 velocity=0 time=0
EXTRACT: note_on channel=9 note=42 velocity=0 time=0
EXTRACT: note_on channel=9 note=54 velocity=127 time=0.0069444375
EXTRACT: note_on channel=9 note=42 velocity=127 time=0
EXTRACT: note_on channel=11 note=60 velocity=0 time=0
EXTRACT: note_on channel=11 note=63 velocity=0 time=0
EXTRACT: note_on channel=11 note=68 velocity=0 time=0
EXTRACT: note_on channel=13 note=60 velocity=0 time=0
EXTRACT: note_on channel=13 note=63 velocity=0 time=0
EXTRACT: note_on channel=13 note=68 velocity=0 time=0
EXTRACT: note_on channel=12 note=44 velocity=0 time=0.04629625
EXTRACT: note_on channel=14 note=44 velocity=0 time=0
EXTRACT: note_on channel=9 note=54 velocity=0 time=0.0856480625
EXTRACT: note_on channel=9 note=42 velocity=0 time=0
EXTRACT: note_on channel=10 note=60 velocity=0 time=0
EXTRACT: note_on channel=10 note=60 velocity=0 time=0
EXTRACT: note_on channel=10 note=60 velocity=0 time=0
EXTRACT: note_on channel=9 note=46 velocity=127 time=0
EXTRACT: note_on channel=9 note=54 velocity=127 time=0
EXTRACT: note_on channel=9 note=56 velocity=127 time=0
EXTRACT: note_on channel=9 note=36 velocity=127 time=0
EXTRACT: note_on channel=10 note=59 velocity=127 time=0
EXTRACT: note_on channel=11 note=59 velocity=127 time=0
EXTRACT: note_on channel=11 note=62 velocity=127 time=0
EXTRACT: note_on channel=11 note=67 velocity=127 time=0
EXTRACT: note_on channel=12 note=43 velocity=127 time=0
EXTRACT: note_on channel=13 note=59 velocity=127 time=0
EXTRACT: note_on channel=13 note=62 velocity=127 time=0
EXTRACT: note_on channel=13 note=67 velocity=127 time=0
EXTRACT: note_on channel=14 note=43 velocity=127 time=0
EXTRACT: note_on channel=10 note=59 velocity=127 time=0
EXTRACT: note_on channel=10 note=59 velocity=127 time=0
EXTRACT: note_on channel=9 note=46 velocity=0 time=0.1319443125
EXTRACT: note_on channel=9 note=54 velocity=0 time=0
EXTRACT: note_on channel=9 note=56 velocity=0 time=0
EXTRACT: note_on channel=9 note=36 velocity=0 time=0
EXTRACT: note_on channel=9 note=54 velocity=127 time=0.0069444375
EXTRACT: note_on channel=9 note=42 velocity=127 time=0
EXTRACT: note_on channel=9 note=54 velocity=0 time=0.1319443125
EXTRACT: note_on channel=10 note=59 velocity=0 time=0
EXTRACT: note_on channel=10 note=59 velocity=0 time=0
EXTRACT: note_on channel=10 note=59 velocity=0 time=0
EXTRACT: note_on channel=9 note=46 velocity=127 time=0.0069444375
EXTRACT: note_on channel=9 note=54 velocity=127 time=0
EXTRACT: note_on channel=9 note=56 velocity=127 time=0
EXTRACT: note_on channel=10 note=60 velocity=127 time=0
EXTRACT: note_on channel=10 note=60 velocity=127 time=0
EXTRACT: note_on channel=10 note=60 velocity=127 time=0
EXTRACT: note_on channel=9 note=46 velocity=0 time=0.1319443125
EXTRACT: note_on channel=9 note=54 velocity=0 time=0
EXTRACT: note_on channel=9 note=56 velocity=0 time=0
EXTRACT: note_on channel=9 note=42 velocity=0 time=0
EXTRACT: note_on channel=11 note=59 velocity=0 time=0
EXTRACT: note_on channel=11 note=62 velocity=0 time=0
EXTRACT: note_on channel=11 note=67 velocity=0 time=0
EXTRACT: note_on channel=13 note=59 velocity=0 time=0
EXTRACT: note_on channel=13 note=62 velocity=0 time=0
EXTRACT: note_on channel=13 note=67 velocity=0 time=0
EXTRACT: note_on channel=9 note=54 velocity=127 time=0.0069444375
EXTRACT: note_on channel=9 note=42 velocity=127 time=0
EXTRACT: note_on channel=11 note=59 velocity=127 time=0
EXTRACT: note_on channel=11 note=62 velocity=127 time=0
EXTRACT: note_on channel=11 note=67 velocity=127 time=0
EXTRACT: note_on channel=13 note=59 velocity=127 time=0
EXTRACT: note_on channel=13 note=62 velocity=127 time=0
EXTRACT: note_on channel=13 note=67 velocity=127 time=0
EXTRACT: note_on channel=12 note=43 velocity=0 time=0.04629625
EXTRACT: note_on channel=14 note=43 velocity=0 time=0
EXTRACT: note_on channel=9 note=54 velocity=0 time=0.0856480625
EXTRACT: note_on channel=9 note=42 velocity=0 time=0
EXTRACT: note_on channel=10 note=60 velocity=0 time=0
EXTRACT: note_on channel=10 note=60 velocity=0 time=0
EXTRACT: note_on channel=10 note=60 velocity=0 time=0
EXTRACT: note_on channel=9 note=54 velocity=127 time=0.0069444375
EXTRACT: note_on channel=9 note=56 velocity=127 time=0
EXTRACT: note_on channel=9 note=39 velocity=127 time=0
EXTRACT: note_on channel=9 note=42 velocity=127 time=0
EXTRACT: note_on channel=10 note=62 velocity=127 time=0
EXTRACT: note_on channel=12 note=43 velocity=127 time=0
EXTRACT: note_on channel=14 note=43 velocity=127 time=0
EXTRACT: note_on channel=10 note=62 velocity=127 time=0
EXTRACT: note_on channel=10 note=62 velocity=127 time=0
EXTRACT: note_on channel=9 note=39 velocity=0 time=0.1319443125
EXTRACT: note_on channel=9 note=42 velocity=0 time=0
EXTRACT: note_on channel=9 note=42 velocity=127 time=0.0069444375
EXTRACT: note_on channel=9 note=54 velocity=0 time=0.1319443125
EXTRACT: note_on channel=9 note=56 velocity=0 time=0
EXTRACT: note_on channel=9 note=42 velocity=0 time=0
EXTRACT: note_on channel=10 note=62 velocity=0 time=0
EXTRACT: note_on channel=11 note=59 velocity=0 time=0
EXTRACT: note_on channel=11 note=62 velocity=0 time=0
EXTRACT: note_on channel=11 note=67 velocity=0 time=0
EXTRACT: note_on channel=12 note=43 velocity=0 time=0
EXTRACT: note_on channel=13 note=59 velocity=0 time=0
EXTRACT: note_on channel=13 note=62 velocity=0 time=0
EXTRACT: note_on channel=13 note=67 velocity=0 time=0
EXTRACT: note_on channel=14 note=43 velocity=0 time=0
EXTRACT: note_on channel=10 note=62 velocity=0 time=0
EXTRACT: note_on channel=10 note=62 velocity=0 time=0
EXTRACT: note_on channel=9 note=54 velocity=127 time=0.0069444375
EXTRACT: note_on channel=9 note=36 velocity=127 time=0
EXTRACT: note_on channel=9 note=42 velocity=127 time=0
EXTRACT: note_on channel=10 note=60 velocity=127 time=0
EXTRACT: note_on channel=11 note=60 velocity=127 time=0
EXTRACT: note_on channel=11 note=63 velocity=127 time=0
EXTRACT: note_on channel=11 note=67 velocity=127 time=0
EXTRACT: note_on channel=12 note=47 velocity=127 time=0
EXTRACT: note_on channel=13 note=60 velocity=127 time=0
EXTRACT: note_on channel=13 note=63 velocity=127 time=0
EXTRACT: note_on channel=13 note=67 velocity=127 time=0
EXTRACT: note_on channel=14 note=47 velocity=127 time=0
EXTRACT: note_on channel=10 note=60 velocity=127 time=0
EXTRACT: note_on channel=10 note=60 velocity=127 time=0
EXTRACT: note_on channel=9 note=54 velocity=0 time=0.1319443125
EXTRACT: note_on channel=9 note=36 velocity=0 time=0
EXTRACT: note_on channel=9 note=42 velocity=0 time=0
EXTRACT: note_on channel=9 note=54 velocity=127 time=0.0069444375
EXTRACT: note_on channel=9 note=56 velocity=127 time=0
EXTRACT: note_on channel=9 note=42 velocity=127 time=0
EXTRACT: note_on channel=9 note=54 velocity=0 time=0.1319443125
EXTRACT: note_on channel=9 note=56 velocity=0 time=0
EXTRACT: note_on channel=9 note=42 velocity=0 time=0
EXTRACT: note_on channel=12 note=47 velocity=0 time=0
EXTRACT: note_on channel=14 note=47 velocity=0 time=0
EXTRACT: note_on channel=9 note=54 velocity=127 time=0.0069444375
EXTRACT: note_on channel=9 note=42 velocity=127 time=0
EXTRACT: note_on channel=12 note=48 velocity=127 time=0
EXTRACT: note_on channel=14 note=48 velocity=127 time=0
EXTRACT: note_on channel=9 note=54 velocity=0 time=0.1319443125
EXTRACT: note_on channel=9 note=42 velocity=0 time=0
EXTRACT: note_on channel=9 note=46 velocity=127 time=0.0069444375
EXTRACT: note_on channel=9 note=54 velocity=127 time=0
EXTRACT: note_on channel=9 note=56 velocity=127 time=0
EXTRACT: note_on channel=9 note=36 velocity=127 time=0
EXTRACT: note_on channel=9 note=46 velocity=0 time=0.1319443125
EXTRACT: note_on channel=9 note=54 velocity=0 time=0
EXTRACT: note_on channel=9 note=56 velocity=0 time=0
EXTRACT: note_on channel=9 note=36 velocity=0 time=0
EXTRACT: note_on channel=12 note=48 velocity=0 time=0
EXTRACT: note_on channel=14 note=48 velocity=0 time=0
EXTRACT: note_on channel=9 note=54 velocity=127 time=0.0069444375
EXTRACT: note_on channel=9 note=56 velocity=127 time=0
EXTRACT: note_on channel=9 note=36 velocity=127 time=0
EXTRACT: note_on channel=9 note=42 velocity=127 time=0
EXTRACT: note_on channel=10 note=60 velocity=0 time=0
EXTRACT: note_on channel=10 note=63 velocity=127 time=0
EXTRACT: note_on channel=12 note=48 velocity=127 time=0
EXTRACT: note_on channel=14 note=48 velocity=127 time=0
EXTRACT: note_on channel=10 note=60 velocity=0 time=0
EXTRACT: note_on channel=10 note=63 velocity=127 time=0
EXTRACT: note_on channel=10 note=60 velocity=0 time=0
EXTRACT: note_on channel=10 note=63 velocity=127 time=0
EXTRACT: note_on channel=9 note=54 velocity=0 time=0.1319443125
EXTRACT: note_on channel=9 note=56 velocity=0 time=0
EXTRACT: note_on channel=9 note=36 velocity=0 time=0
EXTRACT: note_on channel=9 note=42 velocity=0 time=0
EXTRACT: note_on channel=9 note=56 velocity=127 time=0.0069444375
EXTRACT: note_on channel=9 note=36 velocity=127 time=0
EXTRACT: note_on channel=9 note=42 velocity=127 time=0
EXTRACT: note_on channel=9 note=56 velocity=0 time=0.1319443125
EXTRACT: note_on channel=9 note=36 velocity=0 time=0
EXTRACT: note_on channel=9 note=42 velocity=0 time=0
EXTRACT: note_on channel=10 note=63 velocity=0 time=0
EXTRACT: note_on channel=10 note=63 velocity=0 time=0
EXTRACT: note_on channel=10 note=63 velocity=0 time=0
EXTRACT: note_on channel=9 note=46 velocity=127 time=0.0069444375
EXTRACT: note_on channel=9 note=54 velocity=127 time=0
EXTRACT: note_on channel=9 note=56 velocity=127 time=0
EXTRACT: note_on channel=9 note=39 velocity=127 time=0
EXTRACT: note_on channel=9 note=46 velocity=0 time=0.1319443125
EXTRACT: note_on channel=9 note=54 velocity=0 time=0
EXTRACT: note_on channel=9 note=56 velocity=0 time=0
EXTRACT: note_on channel=9 note=39 velocity=0 time=0
EXTRACT: note_on channel=9 note=54 velocity=127 time=0.0069444375
EXTRACT: note_on channel=9 note=42 velocity=127 time=0
EXTRACT: note_on channel=9 note=54 velocity=0 time=0.1319443125
EXTRACT: note_on channel=9 note=42 velocity=0 time=0
EXTRACT: note_on channel=9 note=54 velocity=127 time=0.0069444375
EXTRACT: note_on channel=9 note=56 velocity=127 time=0
EXTRACT: note_on channel=9 note=36 velocity=127 time=0
EXTRACT: note_on channel=9 note=42 velocity=127 time=0
EXTRACT: note_on channel=9 note=54 velocity=0 time=0.1319443125
EXTRACT: note_on channel=9 note=56 velocity=0 time=0
EXTRACT: note_on channel=9 note=36 velocity=0 time=0
EXTRACT: note_on channel=9 note=42 velocity=0 time=0
EXTRACT: note_on channel=9 note=54 velocity=127 time=0.0069444375
EXTRACT: note_on channel=9 note=42 velocity=127 time=0
EXTRACT: note_on channel=11 note=60 velocity=0 time=0
EXTRACT: note_on channel=11 note=63 velocity=0 time=0
EXTRACT: note_on channel=11 note=67 velocity=0 time=0
EXTRACT: note_on channel=13 note=60 velocity=0 time=0
EXTRACT: note_on channel=13 note=63 velocity=0 time=0
EXTRACT: note_on channel=13 note=67 velocity=0 time=0
EXTRACT: note_on channel=12 note=48 velocity=0 time=0.04629625
EXTRACT: note_on channel=14 note=48 velocity=0 time=0
EXTRACT: note_on channel=9 note=54 velocity=0 time=0.0856480625
EXTRACT: note_on channel=9 note=42 velocity=0 time=0
EXTRACT: note_on channel=9 note=46 velocity=127 time=0
EXTRACT: note_on channel=9 note=54 velocity=127 time=0
EXTRACT: note_on channel=9 note=56 velocity=127 time=0
EXTRACT: note_on channel=9 note=36 velocity=127 time=0
EXTRACT: note_on channel=11 note=60 velocity=127 time=0
EXTRACT: note_on channel=11 note=63 velocity=127 time=0
EXTRACT: note_on channel=11 note=67 velocity=127 time=0
EXTRACT: note_on channel=12 note=48 velocity=127 time=0
EXTRACT: note_on channel=13 note=60 velocity=127 time=0
EXTRACT: note_on channel=13 note=63 velocity=127 time=0
EXTRACT: note_on channel=13 note=67 velocity=127 time=0
EXTRACT: note_on channel=14 note=48 velocity=127 time=0
EXTRACT: note_on channel=9 note=46 velocity=0 time=0.1319443125
EXTRACT: note_on channel=9 note=54 velocity=0 time=0
EXTRACT: note_on channel=9 note=56 velocity=0 time=0
EXTRACT: note_on channel=9 note=36 velocity=0 time=0
EXTRACT: note_on channel=9 note=54 velocity=127 time=0.0069444375
EXTRACT: note_on channel=9 note=42 velocity=127 time=0
EXTRACT: note_on channel=9 note=54 velocity=0 time=0.1319443125
EXTRACT: note_on channel=9 note=46 velocity=127 time=0.0069444375
EXTRACT: note_on channel=9 note=54 velocity=127 time=0
EXTRACT: note_on channel=9 note=56 velocity=127 time=0
EXTRACT: note_on channel=10 note=63 velocity=127 time=0
EXTRACT: note_on channel=10 note=63 velocity=127 time=0
EXTRACT: note_on channel=10 note=63 velocity=127 time=0
EXTRACT: note_on channel=9 note=46 velocity=0 time=0.1319443125
EXTRACT: note_on channel=9 note=54 velocity=0 time=0
EXTRACT: note_on channel=9 note=56 velocity=0 time=0
EXTRACT: note_on channel=9 note=42 velocity=0 time=0
EXTRACT: note_on channel=11 note=60 velocity=0 time=0
EXTRACT: note_on channel=11 note=63 velocity=0 time=0
EXTRACT: note_on channel=11 note=67 velocity=0 time=0
EXTRACT: note_on channel=13 note=60 velocity=0 time=0
EXTRACT: note_on channel=13 note=63 velocity=0 time=0
EXTRACT: note_on channel=13 note=67 velocity=0 time=0
EXTRACT: note_on channel=9 note=54 velocity=127 time=0.0069444375
EXTRACT: note_on channel=9 note=42 velocity=127 time=0
EXTRACT: note_on channel=11 note=60 velocity=127 time=0
EXTRACT: note_on channel=11 note=63 velocity=127 time=0
EXTRACT: note_on channel=11 note=67 velocity=127 time=0
EXTRACT: note_on channel=13 note=60 velocity=127 time=0
EXTRACT: note_on channel=13 note=63 velocity=127 time=0
EXTRACT: note_on channel=13 note=67 velocity=127 time=0
EXTRACT: note_on channel=12 note=48 velocity=0 time=0.04629625
EXTRACT: note_on channel=14 note=48 velocity=0 time=0
EXTRACT: note_on channel=9 note=54 velocity=0 time=0.0856480625
EXTRACT: note_on channel=9 note=42 velocity=0 time=0
EXTRACT: note_on channel=10 note=63 velocity=0 time=0
EXTRACT: note_on channel=10 note=63 velocity=0 time=0
EXTRACT: note_on channel=10 note=63 velocity=0 time=0
EXTRACT: note_on channel=9 note=54 velocity=127 time=0.0069444375
EXTRACT: note_on channel=9 note=56 velocity=127 time=0
EXTRACT: note_on channel=9 note=39 velocity=127 time=0
EXTRACT: note_on channel=9 note=42 velocity=127 time=0
EXTRACT: note_on channel=10 note=63 velocity=127 time=0
EXTRACT: note_on channel=12 note=48 velocity=127 time=0
EXTRACT: note_on channel=14 note=48 velocity=127 time=0
EXTRACT: note_on channel=10 note=63 velocity=127 time=0
EXTRACT: note_on channel=10 note=63 velocity=127 time=0
EXTRACT: note_on channel=9 note=39 velocity=0 time=0.1319443125
EXTRACT: note_on channel=9 note=42 velocity=0 time=0
EXTRACT: note_on channel=9 note=42 velocity=127 time=0.0069444375
EXTRACT: note_on channel=9 note=54 velocity=0 time=0.1319443125
EXTRACT: note_on channel=9 note=56 velocity=0 time=0
EXTRACT: note_on channel=9 note=42 velocity=0 time=0
EXTRACT: note_on channel=10 note=63 velocity=0 time=0
EXTRACT: note_on channel=11 note=60 velocity=0 time=0
EXTRACT: note_on channel=11 note=63 velocity=0 time=0
EXTRACT: note_on channel=11 note=67 velocity=0 time=0
EXTRACT: note_on channel=12 note=48 velocity=0 time=0
EXTRACT: note_on channel=13 note=60 velocity=0 time=0
EXTRACT: note_on channel=13 note=63 velocity=0 time=0
EXTRACT: note_on channel=13 note=67 velocity=0 time=0
EXTRACT: note_on channel=14 note=48 velocity=0 time=0
EXTRACT: note_on channel=10 note=63 velocity=0 time=0
EXTRACT: note_on channel=10 note=63 velocity=0 time=0
EXTRACT: note_on channel=9 note=54 velocity=127 time=0.0069444375
EXTRACT: note_on channel=9 note=36 velocity=127 time=0
EXTRACT: note_on channel=9 note=42 velocity=127 time=0
EXTRACT: note_on channel=10 note=60 velocity=127 time=0
EXTRACT: note_on channel=11 note=60 velocity=127 time=0
EXTRACT: note_on channel=11 note=63 velocity=127 time=0
EXTRACT: note_on channel=11 note=68 velocity=127 time=0
EXTRACT: note_on channel=12 note=43 velocity=127 time=0
EXTRACT: note_on channel=13 note=60 velocity=127 time=0
EXTRACT: note_on channel=13 note=63 velocity=127 time=0
EXTRACT: note_on channel=13 note=68 velocity=127 time=0
EXTRACT: note_on channel=14 note=43 velocity=127 time=0
EXTRACT: note_on channel=10 note=60 velocity=127 time=0
EXTRACT: note_on channel=10 note=60 velocity=127 time=0
EXTRACT: note_on channel=9 note=54 velocity=0 time=0.1319443125
EXTRACT: note_on channel=9 note=36 velocity=0 time=0
EXTRACT: note_on channel=9 note=42 velocity=0 time=0
EXTRACT: note_on channel=9 note=54 velocity=127 time=0.0069444375
EXTRACT: note_on channel=9 note=56 velocity=127 time=0
EXTRACT: note_on channel=9 note=42 velocity=127 time=0
EXTRACT: note_on channel=9 note=54 velocity=0 time=0.1319443125
EXTRACT: note_on channel=9 note=56 velocity=0 time=0
EXTRACT: note_on channel=9 note=42 velocity=0 time=0
EXTRACT: note_on channel=10 note=60 velocity=0 time=0
EXTRACT: note_on channel=12 note=43 velocity=0 time=0
EXTRACT: note_on channel=14 note=43 velocity=0 time=0
EXTRACT: note_on channel=10 note=60 velocity=0 time=0
EXTRACT: note_on channel=10 note=60 velocity=0 time=0
EXTRACT: note_on channel=9 note=54 velocity=127 time=0.0069444375
EXTRACT: note_on channel=9 note=42 velocity=127 time=0
EXTRACT: note_on channel=10 note=63 velocity=127 time=0
EXTRACT: note_on channel=12 note=44 velocity=127 time=0
EXTRACT: note_on channel=14 note=44 velocity=127 time=0
EXTRACT: note_on channel=10 note=63 velocity=127 time=0
EXTRACT: note_on channel=10 note=63 velocity=127 time=0
EXTRACT: note_on channel=9 note=54 velocity=0 time=0.1319443125
EXTRACT: note_on channel=9 note=42 velocity=0 time=0
EXTRACT: note_on channel=9 note=46 velocity=127 time=0.0069444375
EXTRACT: note_on channel=9 note=54 velocity=127 time=0
EXTRACT: note_on channel=9 note=56 velocity=127 time=0
EXTRACT: note_on channel=9 note=36 velocity=127 time=0
EXTRACT: note_on channel=9 note=46 velocity=0 time=0.1319443125
EXTRACT: note_on channel=9 note=54 velocity=0 time=0
EXTRACT: note_on channel=9 note=56 velocity=0 time=0
EXTRACT: note_on channel=9 note=36 velocity=0 time=0
EXTRACT: note_on channel=10 note=63 velocity=0 time=0
EXTRACT: note_on channel=12 note=44 velocity=0 time=0
EXTRACT: note_on channel=14 note=44 velocity=0 time=0
EXTRACT: note_on channel=10 note=63 velocity=0 time=0
EXTRACT: note_on channel=10 note=63 velocity=0 time=0
EXTRACT: note_on channel=9 note=54 velocity=127 time=0.0069444375
EXTRACT: note_on channel=9 note=56 velocity=127 time=0
EXTRACT: note_on channel=9 note=36 velocity=127 time=0
EXTRACT: note_on channel=9 note=42 velocity=127 time=0
EXTRACT: note_on channel=10 note=60 velocity=127 time=0
EXTRACT: note_on channel=12 note=44 velocity=127 time=0
EXTRACT: note_on channel=14 note=44 velocity=127 time=0
EXTRACT: note_on channel=10 note=60 velocity=127 time=0
EXTRACT: note_on channel=10 note=60 velocity=127 time=0
EXTRACT: note_on channel=9 note=54 velocity=0 time=0.1319443125
EXTRACT: note_on channel=9 note=56 velocity=0 time=0
EXTRACT: note_on channel=9 note=36 velocity=0 time=0
EXTRACT: note_on channel=9 note=42 velocity=0 time=0
EXTRACT: note_on channel=9 note=56 velocity=127 time=0.0069444375
EXTRACT: note_on channel=9 note=36 velocity=127 time=0
EXTRACT: note_on channel=9 note=42 velocity=127 time=0
EXTRACT: note_on channel=9 note=56 velocity=0 time=0.1319443125
EXTRACT: note_on channel=9 note=36 velocity=0 time=0
EXTRACT: note_on channel=9 note=42 velocity=0 time=0
EXTRACT: note_on channel=10 note=60 velocity=0 time=0
EXTRACT: note_on channel=10 note=60 velocity=0 time=0
EXTRACT: note_on channel=10 note=60 velocity=0 time=0
EXTRACT: note_on channel=9 note=46 velocity=127 time=0.0069444375
EXTRACT: note_on channel=9 note=54 velocity=127 time=0
EXTRACT: note_on channel=9 note=56 velocity=127 time=0
EXTRACT: note_on channel=9 note=39 velocity=127 time=0
EXTRACT: note_on channel=9 note=46 velocity=0 time=0.1319443125
EXTRACT: note_on channel=9 note=54 velocity=0 time=0
EXTRACT: note_on channel=9 note=56 velocity=0 time=0
EXTRACT: note_on channel=9 note=39 velocity=0 time=0
EXTRACT: note_on channel=9 note=54 velocity=127 time=0.0069444375
EXTRACT: note_on channel=9 note=42 velocity=127 time=0
EXTRACT: note_on channel=9 note=54 velocity=0 time=0.1319443125
EXTRACT: note_on channel=9 note=42 velocity=0 time=0
EXTRACT: note_on channel=9 note=54 velocity=127 time=0.0069444375
EXTRACT: note_on channel=9 note=56 velocity=127 time=0
EXTRACT: note_on channel=9 note=36 velocity=127 time=0
EXTRACT: note_on channel=9 note=42 velocity=127 time=0
EXTRACT: note_on channel=10 note=60 velocity=127 time=0
EXTRACT: note_on channel=10 note=60 velocity=127 time=0
EXTRACT: note_on channel=10 note=60 velocity=127 time=0
EXTRACT: note_on channel=9 note=54 velocity=0 time=0.1319443125
EXTRACT: note_on channel=9 note=56 velocity=0 time=0
EXTRACT: note_on channel=9 note=36 velocity=0 time=0
EXTRACT: note_on channel=9 note=42 velocity=0 time=0
EXTRACT: note_on channel=10 note=60 velocity=0 time=0
EXTRACT: note_on channel=10 note=60 velocity=0 time=0
EXTRACT: note_on channel=10 note=60 velocity=0 time=0
EXTRACT: note_on channel=9 note=54 velocity=127 time=0.0069444375
EXTRACT: note_on channel=9 note=42 velocity=127 time=0
EXTRACT: note_on channel=10 note=60 velocity=127 time=0
EXTRACT: note_on channel=11 note=60 velocity=0 time=0
EXTRACT: note_on channel=11 note=63 velocity=0 time=0
EXTRACT: note_on channel=11 note=68 velocity=0 time=0
EXTRACT: note_on channel=13 note=60 velocity=0 time=0
EXTRACT: note_on channel=13 note=63 velocity=0 time=0
EXTRACT: note_on channel=13 note=68 velocity=0 time=0
EXTRACT: note_on channel=10 note=60 velocity=127 time=0
EXTRACT: note_on channel=10 note=60 velocity=127 time=0
EXTRACT: note_on channel=12 note=44 velocity=0 time=0.04629625
EXTRACT: note_on channel=14 note=44 velocity=0 time=0
EXTRACT: note_on channel=9 note=54 velocity=0 time=0.0856480625
EXTRACT: note_on channel=9 note=42 velocity=0 time=0
EXTRACT: note_on channel=10 note=60 velocity=0 time=0
EXTRACT: note_on channel=10 note=60 velocity=0 time=0
EXTRACT: note_on channel=10 note=60 velocity=0 time=0
EXTRACT: note_on channel=9 note=46 velocity=127 time=0
EXTRACT: note_on channel=9 note=54 velocity=127 time=0
EXTRACT: note_on channel=9 note=56 velocity=127 time=0
EXTRACT: note_on channel=9 note=36 velocity=127 time=0
EXTRACT: note_on channel=10 note=59 velocity=127 time=0
EXTRACT: note_on channel=11 note=59 velocity=127 time=0
EXTRACT: note_on channel=11 note=62 velocity=127 time=0
EXTRACT: note_on channel=11 note=67 velocity=127 time=0
EXTRACT: note_on channel=12 note=43 velocity=127 time=0
EXTRACT: note_on channel=13 note=59 velocity=127 time=0
EXTRACT: note_on channel=13 note=62 velocity=127 time=0
EXTRACT: note_on channel=13 note=67 velocity=127 time=0
EXTRACT: note_on channel=14 note=43 velocity=127 time=0
EXTRACT: note_on channel=10 note=59 velocity=127 time=0
EXTRACT: note_on channel=10 note=59 velocity=127 time=0
EXTRACT: note_on channel=9 note=46 velocity=0 time=0.1319443125
EXTRACT: note_on channel=9 note=54 velocity=0 time=0
EXTRACT: note_on channel=9 note=56 velocity=0 time=0
EXTRACT: note_on channel=9 note=36 velocity=0 time=0
EXTRACT: note_on channel=9 note=54 velocity=127 time=0.0069444375
EXTRACT: note_on channel=9 note=42 velocity=127 time=0
EXTRACT: note_on channel=9 note=54 velocity=0 time=0.1319443125
EXTRACT: note_on channel=10 note=59 velocity=0 time=0
EXTRACT: note_on channel=10 note=59 velocity=0 time=0
EXTRACT: note_on channel=10 note=59 velocity=0 time=0
EXTRACT: note_on channel=9 note=46 velocity=127 time=0.0069444375
EXTRACT: note_on channel=9 note=54 velocity=127 time=0
EXTRACT: note_on channel=9 note=56 velocity=127 time=0
EXTRACT: note_on channel=10 note=60 velocity=127 time=0
EXTRACT: note_on channel=10 note=60 velocity=127 time=0
EXTRACT: note_on channel=10 note=60 velocity=127 time=0
EXTRACT: note_on channel=9 note=46 velocity=0 time=0.1319443125
EXTRACT: note_on channel=9 note=54 velocity=0 time=0
EXTRACT: note_on channel=9 note=56 velocity=0 time=0
EXTRACT: note_on channel=9 note=42 velocity=0 time=0
EXTRACT: note_on channel=11 note=59 velocity=0 time=0
EXTRACT: note_on channel=11 note=62 velocity=0 time=0
EXTRACT: note_on channel=11 note=67 velocity=0 time=0
EXTRACT: note_on channel=13 note=59 velocity=0 time=0
EXTRACT: note_on channel=13 note=62 velocity=0 time=0
EXTRACT: note_on channel=13 note=67 velocity=0 time=0
EXTRACT: note_on channel=9 note=54 velocity=127 time=0.0069444375
EXTRACT: note_on channel=9 note=42 velocity=127 time=0
EXTRACT: note_on channel=11 note=59 velocity=127 time=0
EXTRACT: note_on channel=11 note=62 velocity=127 time=0
EXTRACT: note_on channel=11 note=67 velocity=127 time=0
EXTRACT: note_on channel=13 note=59 velocity=127 time=0
EXTRACT: note_on channel=13 note=62 velocity=127 time=0
EXTRACT: note_on channel=13 note=67 velocity=127 time=0
EXTRACT: note_on channel=12 note=43 velocity=0 time=0.04629625
EXTRACT: note_on channel=14 note=43 velocity=0 time=0
EXTRACT: note_on channel=9 note=54 velocity=0 time=0.0856480625
EXTRACT: note_on channel=9 note=42 velocity=0 time=0
EXTRACT: note_on channel=10 note=60 velocity=0 time=0
EXTRACT: note_on channel=10 note=60 velocity=0 time=0
EXTRACT: note_on channel=10 note=60 velocity=0 time=0
EXTRACT: note_on channel=9 note=54 velocity=127 time=0.0069444375
EXTRACT: note_on channel=9 note=56 velocity=127 time=0
EXTRACT: note_on channel=9 note=39 velocity=127 time=0
EXTRACT: note_on channel=9 note=42 velocity=127 time=0
EXTRACT: note_on channel=10 note=62 velocity=127 time=0
EXTRACT: note_on channel=12 note=43 velocity=127 time=0
EXTRACT: note_on channel=14 note=43 velocity=127 time=0
EXTRACT: note_on channel=10 note=62 velocity=127 time=0
EXTRACT: note_on channel=10 note=62 velocity=127 time=0
EXTRACT: note_on channel=9 note=39 velocity=0 time=0.1319443125
EXTRACT: note_on channel=9 note=42 velocity=0 time=0
EXTRACT: note_on channel=9 note=42 velocity=127 time=0.0069444375
EXTRACT: note_on channel=9 note=54 velocity=0 time=0.1319443125
EXTRACT: note_on channel=9 note=56 velocity=0 time=0
EXTRACT: note_on channel=9 note=42 velocity=0 time=0
EXTRACT: note_on channel=10 note=62 velocity=0 time=0
EXTRACT: note_on channel=11 note=59 velocity=0 time=0
EXTRACT: note_on channel=11 note=62 velocity=0 time=0
EXTRACT: note_on channel=11 note=67 velocity=0 time=0
EXTRACT: note_on channel=12 note=43 velocity=0 time=0
EXTRACT: note_on channel=13 note=59 velocity=0 time=0
EXTRACT: note_on channel=13 note=62 velocity=0 time=0
EXTRACT: note_on channel=13 note=67 velocity=0 time=0
EXTRACT: note_on channel=14 note=43 velocity=0 time=0
EXTRACT: note_on channel=10 note=62 velocity=0 time=0
EXTRACT: note_on channel=10 note=62 velocity=0 time=0
EXTRACT: note_on channel=9 note=54 velocity=127 time=0.0069444375
EXTRACT: note_on channel=9 note=36 velocity=127 time=0
EXTRACT: note_on channel=9 note=42 velocity=127 time=0
EXTRACT: note_on channel=10 note=60 velocity=127 time=0
EXTRACT: note_on channel=11 note=60 velocity=127 time=0
EXTRACT: note_on channel=11 note=63 velocity=127 time=0
EXTRACT: note_on channel=11 note=67 velocity=127 time=0
EXTRACT: note_on channel=12 note=47 velocity=127 time=0
EXTRACT: note_on channel=13 note=60 velocity=127 time=0
EXTRACT: note_on channel=13 note=63 velocity=127 time=0
EXTRACT: note_on channel=13 note=67 velocity=127 time=0
EXTRACT: note_on channel=14 note=47 velocity=127 time=0
EXTRACT: note_on channel=10 note=60 velocity=127 time=0
EXTRACT: note_on channel=10 note=60 velocity=127 time=0
EXTRACT: note_on channel=9 note=54 velocity=0 time=0.1319443125
EXTRACT: note_on channel=9 note=36 velocity=0 time=0
EXTRACT: note_on channel=9 note=42 velocity=0 time=0
EXTRACT: note_on channel=9 note=54 velocity=127 time=0.0069444375
EXTRACT: note_on channel=9 note=56 velocity=127 time=0
EXTRACT: note_on channel=9 note=42 velocity=127 time=0
EXTRACT: note_on channel=9 note=54 velocity=0 time=0.1319443125
EXTRACT: note_on channel=9 note=56 velocity=0 time=0
EXTRACT: note_on channel=9 note=42 velocity=0 time=0
EXTRACT: note_on channel=12 note=47 velocity=0 time=0
EXTRACT: note_on channel=14 note=47 velocity=0 time=0
EXTRACT: note_on channel=9 note=54 velocity=127 time=0.0069444375
EXTRACT: note_on channel=9 note=42 velocity=127 time=0
EXTRACT: note_on channel=12 note=48 velocity=127 time=0
EXTRACT: note_on channel=14 note=48 velocity=127 time=0
EXTRACT: note_on channel=9 note=54 velocity=0 time=0.1319443125
EXTRACT: note_on channel=9 note=42 velocity=0 time=0
EXTRACT: note_on channel=9 note=46 velocity=127 time=0.0069444375
EXTRACT: note_on channel=9 note=54 velocity=127 time=0
EXTRACT: note_on channel=9 note=56 velocity=127 time=0
EXTRACT: note_on channel=9 note=36 velocity=127 time=0
EXTRACT: note_on channel=9 note=46 velocity=0 time=0.1319443125
EXTRACT: note_on channel=9 note=54 velocity=0 time=0
EXTRACT: note_on channel=9 note=56 velocity=0 time=0
EXTRACT: note_on channel=9 note=36 velocity=0 time=0
EXTRACT: note_on channel=12 note=48 velocity=0 time=0
EXTRACT: note_on channel=14 note=48 velocity=0 time=0
EXTRACT: note_on channel=9 note=54 velocity=127 time=0.0069444375
EXTRACT: note_on channel=9 note=56 velocity=127 time=0
EXTRACT: note_on channel=9 note=36 velocity=127 time=0
EXTRACT: note_on channel=9 note=42 velocity=127 time=0
EXTRACT: note_on channel=12 note=48 velocity=127 time=0
EXTRACT: note_on channel=14 note=48 velocity=127 time=0
EXTRACT: note_on channel=9 note=54 velocity=0 time=0.1319443125
EXTRACT: note_on channel=9 note=56 velocity=0 time=0
EXTRACT: note_on channel=9 note=36 velocity=0 time=0
EXTRACT: note_on channel=9 note=42 velocity=0 time=0
EXTRACT: note_on channel=9 note=56 velocity=127 time=0.0069444375
EXTRACT: note_on channel=9 note=36 velocity=127 time=0
EXTRACT: note_on channel=9 note=42 velocity=127 time=0
EXTRACT: note_on channel=10 note=60 velocity=0 time=0.04629625
EXTRACT: note_on channel=10 note=60 velocity=0 time=0
EXTRACT: note_on channel=10 note=60 velocity=0 time=0
EXTRACT: note_on channel=9 note=56 velocity=0 time=0.0856480625
EXTRACT: note_on channel=9 note=36 velocity=0 time=0
EXTRACT: note_on channel=9 note=42 velocity=0 time=0
EXTRACT: note_on channel=9 note=46 velocity=127 time=0.0069444375
EXTRACT: note_on channel=9 note=54 velocity=127 time=0
EXTRACT: note_on channel=9 note=56 velocity=127 time=0
EXTRACT: note_on channel=9 note=39 velocity=127 time=0
EXTRACT: note_on channel=9 note=46 velocity=0 time=0.1319443125
EXTRACT: note_on channel=9 note=54 velocity=0 time=0
EXTRACT: note_on channel=9 note=56 velocity=0 time=0
EXTRACT: note_on channel=9 note=39 velocity=0 time=0
EXTRACT: note_on channel=9 note=54 velocity=127 time=0.0069444375
EXTRACT: note_on channel=9 note=42 velocity=127 time=0
EXTRACT: note_on channel=9 note=54 velocity=0 time=0.1319443125
EXTRACT: note_on channel=9 note=42 velocity=0 time=0
EXTRACT: note_on channel=9 note=54 velocity=127 time=0.0069444375
EXTRACT: note_on channel=9 note=56 velocity=127 time=0
EXTRACT: note_on channel=9 note=36 velocity=127 time=0
EXTRACT: note_on channel=9 note=42 velocity=127 time=0
EXTRACT: note_on channel=9 note=54 velocity=0 time=0.1319443125
EXTRACT: note_on channel=9 note=56 velocity=0 time=0
EXTRACT: note_on channel=9 note=36 velocity=0 time=0
EXTRACT: note_on channel=9 note=42 velocity=0 time=0
EXTRACT: note_on channel=9 note=54 velocity=127 time=0.0069444375
EXTRACT: note_on channel=9 note=42 velocity=127 time=0
EXTRACT: note_on channel=11 note=60 velocity=0 time=0
EXTRACT: note_on channel=11 note=63 velocity=0 time=0
EXTRACT: note_on channel=11 note=67 velocity=0 time=0
EXTRACT: note_on channel=13 note=60 velocity=0 time=0
EXTRACT: note_on channel=13 note=63 velocity=0 time=0
EXTRACT: note_on channel=13 note=67 velocity=0 time=0
EXTRACT: note_on channel=12 note=48 velocity=0 time=0.04629625
EXTRACT: note_on channel=14 note=48 velocity=0 time=0
EXTRACT: note_on channel=9 note=54 velocity=0 time=0.0856480625
EXTRACT: note_on channel=9 note=42 velocity=0 time=0
EXTRACT: note_on channel=9 note=46 velocity=127 time=0
EXTRACT: note_on channel=9 note=54 velocity=127 time=0
EXTRACT: note_on channel=9 note=56 velocity=127 time=0
EXTRACT: note_on channel=9 note=36 velocity=127 time=0
EXTRACT: note_on channel=10 note=60 velocity=127 time=0
EXTRACT: note_on channel=11 note=60 velocity=127 time=0
EXTRACT: note_on channel=11 note=63 velocity=127 time=0
EXTRACT: note_on channel=11 note=67 velocity=127 time=0
EXTRACT: note_on channel=12 note=48 velocity=127 time=0
EXTRACT: note_on channel=13 note=60 velocity=127 time=0
EXTRACT: note_on channel=13 note=63 velocity=127 time=0
EXTRACT: note_on channel=13 note=67 velocity=127 time=0
EXTRACT: note_on channel=14 note=48 velocity=127 time=0
EXTRACT: note_on channel=10 note=60 velocity=127 time=0
EXTRACT: note_on channel=10 note=60 velocity=127 time=0
EXTRACT: note_on channel=9 note=46 velocity=0 time=0.1319443125
EXTRACT: note_on channel=9 note=54 velocity=0 time=0
EXTRACT: note_on channel=9 note=56 velocity=0 time=0
EXTRACT: note_on channel=9 note=36 velocity=0 time=0
EXTRACT: note_on channel=9 note=54 velocity=127 time=0.0069444375
EXTRACT: note_on channel=9 note=42 velocity=127 time=0
EXTRACT: note_on channel=9 note=54 velocity=0 time=0.1319443125
EXTRACT: note_on channel=9 note=46 velocity=127 time=0.0069444375
EXTRACT: note_on channel=9 note=54 velocity=127 time=0
EXTRACT: note_on channel=9 note=56 velocity=127 time=0
EXTRACT: note_on channel=9 note=46 velocity=0 time=0.1319443125
EXTRACT: note_on channel=9 note=54 velocity=0 time=0
EXTRACT: note_on channel=9 note=56 velocity=0 time=0
EXTRACT: note_on channel=9 note=42 velocity=0 time=0
EXTRACT: note_on channel=11 note=60 velocity=0 time=0
EXTRACT: note_on channel=11 note=63 velocity=0 time=0
EXTRACT: note_on channel=11 note=67 velocity=0 time=0
EXTRACT: note_on channel=13 note=60 velocity=0 time=0
EXTRACT: note_on channel=13 note=63 velocity=0 time=0
EXTRACT: note_on channel=13 note=67 velocity=0 time=0
EXTRACT: note_on channel=9 note=54 velocity=127 time=0.0069444375
EXTRACT: note_on channel=9 note=42 velocity=127 time=0
EXTRACT: note_on channel=11 note=60 velocity=127 time=0
EXTRACT: note_on channel=11 note=63 velocity=127 time=0
EXTRACT: note_on channel=11 note=67 velocity=127 time=0
EXTRACT: note_on channel=13 note=60 velocity=127 time=0
EXTRACT: note_on channel=13 note=63 velocity=127 time=0
EXTRACT: note_on channel=13 note=67 velocity=127 time=0
EXTRACT: note_on channel=10 note=60 velocity=0 time=0.04629625
EXTRACT: note_on channel=12 note=48 velocity=0 time=0
EXTRACT: note_on channel=14 note=48 velocity=0 time=0
EXTRACT: note_on channel=10 note=60 velocity=0 time=0
EXTRACT: note_on channel=10 note=60 velocity=0 time=0
EXTRACT: note_on channel=9 note=54 velocity=0 time=0.0856480625
EXTRACT: note_on channel=9 note=42 velocity=0 time=0
EXTRACT: note_on channel=9 note=54 velocity=127 time=0.0069444375
EXTRACT: note_on channel=9 note=56 velocity=127 time=0
EXTRACT: note_on channel=9 note=39 velocity=127 time=0
EXTRACT: note_on channel=9 note=42 velocity=127 time=0
EXTRACT: note_on channel=10 note=67 velocity=127 time=0
EXTRACT: note_on channel=12 note=48 velocity=127 time=0
EXTRACT: note_on channel=14 note=48 velocity=127 time=0
EXTRACT: note_on channel=10 note=67 velocity=127 time=0
EXTRACT: note_on channel=10 note=67 velocity=127 time=0
EXTRACT: note_on channel=9 note=39 velocity=0 time=0.1319443125
EXTRACT: note_on channel=9 note=42 velocity=0 time=0
EXTRACT: note_on channel=9 note=42 velocity=127 time=0.0069444375
EXTRACT: note_on channel=9 note=54 velocity=0 time=0.1319443125
EXTRACT: note_on channel=9 note=56 velocity=0 time=0
EXTRACT: note_on channel=9 note=42 velocity=0 time=0
EXTRACT: note_on channel=11 note=60 velocity=0 time=0
EXTRACT: note_on channel=11 note=63 velocity=0 time=0
EXTRACT: note_on channel=11 note=67 velocity=0 time=0
EXTRACT: note_on channel=12 note=48 velocity=0 time=0
EXTRACT: note_on channel=13 note=60 velocity=0 time=0
EXTRACT: note_on channel=13 note=63 velocity=0 time=0
EXTRACT: note_on channel=13 note=67 velocity=0 time=0
EXTRACT: note_on channel=14 note=48 velocity=0 time=0
EXTRACT: note_on channel=9 note=54 velocity=127 time=0.0069444375
EXTRACT: note_on channel=9 note=36 velocity=127 time=0
EXTRACT: note_on channel=9 note=42 velocity=127 time=0
EXTRACT: note_on channel=10 note=67 velocity=0 time=0
EXTRACT: note_on channel=10 note=65 velocity=127 time=0
EXTRACT: note_on channel=11 note=60 velocity=127 time=0
EXTRACT: note_on channel=11 note=63 velocity=127 time=0
EXTRACT: note_on channel=11 note=68 velocity=127 time=0
EXTRACT: note_on channel=12 note=43 velocity=127 time=0
EXTRACT: note_on channel=13 note=60 velocity=127 time=0
EXTRACT: note_on channel=13 note=63 velocity=127 time=0
EXTRACT: note_on channel=13 note=68 velocity=127 time=0
EXTRACT: note_on channel=14 note=43 velocity=127 time=0
EXTRACT: note_on channel=10 note=67 velocity=0 time=0
EXTRACT: note_on channel=10 note=65 velocity=127 time=0
EXTRACT: note_on channel=10 note=67 velocity=0 time=0
EXTRACT: note_on channel=10 note=65 velocity=127 time=0
EXTRACT: note_on channel=9 note=54 velocity=0 time=0.1319443125
EXTRACT: note_on channel=9 note=36 velocity=0 time=0
EXTRACT: note_on channel=9 note=42 velocity=0 time=0
EXTRACT: note_on channel=9 note=54 velocity=127 time=0.0069444375
EXTRACT: note_on channel=9 note=56 velocity=127 time=0
EXTRACT: note_on channel=9 note=42 velocity=127 time=0
EXTRACT: note_on channel=9 note=54 velocity=0 time=0.1319443125
EXTRACT: note_on channel=9 note=56 velocity=0 time=0
EXTRACT: note_on channel=9 note=42 velocity=0 time=0
EXTRACT: note_on channel=10 note=65 velocity=0 time=0
EXTRACT: note_on channel=12 note=43 velocity=0 time=0
EXTRACT: note_on channel=14 note=43 velocity=0 time=0
EXTRACT: note_on channel=10 note=65 velocity=0 time=0
EXTRACT: note_on channel=10 note=65 velocity=0 time=0
EXTRACT: note_on channel=9 note=54 velocity=127 time=0.0069444375
EXTRACT: note_on channel=9 note=42 velocity=127 time=0
EXTRACT: note_on channel=10 note=65 velocity=127 time=0
EXTRACT: note_on channel=12 note=44 velocity=127 time=0
EXTRACT: note_on channel=14 note=44 velocity=127 time=0
EXTRACT: note_on channel=10 note=65 velocity=127 time=0
EXTRACT: note_on channel=10 note=65 velocity=127 time=0
EXTRACT: note_on channel=9 note=54 velocity=0 time=0.1319443125
EXTRACT: note_on channel=9 note=42 velocity=0 time=0
EXTRACT: note_on channel=9 note=46 velocity=127 time=0.0069444375
EXTRACT: note_on channel=9 note=54 velocity=127 time=0
EXTRACT: note_on channel=9 note=56 velocity=127 time=0
EXTRACT: note_on channel=9 note=36 velocity=127 time=0
EXTRACT: note_on channel=9 note=46 velocity=0 time=0.1319443125
EXTRACT: note_on channel=9 note=54 velocity=0 time=0
EXTRACT: note_on channel=9 note=56 velocity=0 time=0
EXTRACT: note_on channel=9 note=36 velocity=0 time=0
EXTRACT: note_on channel=12 note=44 velocity=0 time=0
EXTRACT: note_on channel=14 note=44 velocity=0 time=0
EXTRACT: note_on channel=9 note=54 velocity=127 time=0.0069444375
EXTRACT: note_on channel=9 note=56 velocity=127 time=0
EXTRACT: note_on channel=9 note=36 velocity=127 time=0
EXTRACT: note_on channel=9 note=42 velocity=127 time=0
EXTRACT: note_on channel=10 note=65 velocity=0 time=0
EXTRACT: note_on channel=10 note=63 velocity=127 time=0
EXTRACT: note_on channel=12 note=44 velocity=127 time=0
EXTRACT: note_on channel=14 note=44 velocity=127 time=0
EXTRACT: note_on channel=10 note=65 velocity=0 time=0
EXTRACT: note_on channel=10 note=63 velocity=127 time=0
EXTRACT: note_on channel=10 note=65 velocity=0 time=0
EXTRACT: note_on channel=10 note=63 velocity=127 time=0
EXTRACT: note_on channel=9 note=54 velocity=0 time=0.1319443125
EXTRACT: note_on channel=9 note=56 velocity=0 time=0
EXTRACT: note_on channel=9 note=36 velocity=0 time=0
EXTRACT: note_on channel=9 note=42 velocity=0 time=0
EXTRACT: note_on channel=9 note=56 velocity=127 time=0.0069444375
EXTRACT: note_on channel=9 note=36 velocity=127 time=0
EXTRACT: note_on channel=9 note=42 velocity=127 time=0
EXTRACT: note_on channel=9 note=56 velocity=0 time=0.1319443125
EXTRACT: note_on channel=9 note=36 velocity=0 time=0
EXTRACT: note_on channel=9 note=42 velocity=0 time=0
EXTRACT: note_on channel=10 note=63 velocity=0 time=0
EXTRACT: note_on channel=10 note=63 velocity=0 time=0
EXTRACT: note_on channel=10 note=63 velocity=0 time=0
EXTRACT: note_on channel=9 note=46 velocity=127 time=0.0069444375
EXTRACT: note_on channel=9 note=54 velocity=127 time=0
EXTRACT: note_on channel=9 note=56 velocity=127 time=0
EXTRACT: note_on channel=9 note=39 velocity=127 time=0
EXTRACT: note_on channel=10 note=63 velocity=127 time=0
EXTRACT: note_on channel=10 note=63 velocity=127 time=0
EXTRACT: note_on channel=10 note=63 velocity=127 time=0
EXTRACT: note_on channel=9 note=46 velocity=0 time=0.1319443125
EXTRACT: note_on channel=9 note=54 velocity=0 time=0
EXTRACT: note_on channel=9 note=56 velocity=0 time=0
EXTRACT: note_on channel=9 note=39 velocity=0 time=0
EXTRACT: note_on channel=9 note=54 velocity=127 time=0.0069444375
EXTRACT: note_on channel=9 note=42 velocity=127 time=0
EXTRACT: note_on channel=9 note=54 velocity=0 time=0.1319443125
EXTRACT: note_on channel=9 note=42 velocity=0 time=0
EXTRACT: note_on channel=9 note=54 velocity=127 time=0.0069444375
EXTRACT: note_on channel=9 note=56 velocity=127 time=0
EXTRACT: note_on channel=9 note=36 velocity=127 time=0
EXTRACT: note_on channel=9 note=42 velocity=127 time=0
EXTRACT: note_on channel=9 note=54 velocity=0 time=0.1319443125
EXTRACT: note_on channel=9 note=56 velocity=0 time=0
EXTRACT: note_on channel=9 note=36 velocity=0 time=0
EXTRACT: note_on channel=9 note=42 velocity=0 time=0
EXTRACT: note_on channel=9 note=54 velocity=127 time=0.0069444375
EXTRACT: note_on channel=9 note=42 velocity=127 time=0
EXTRACT: note_on channel=11 note=60 velocity=0 time=0
EXTRACT: note_on channel=11 note=63 velocity=0 time=0
EXTRACT: note_on channel=11 note=68 velocity=0 time=0
EXTRACT: note_on channel=13 note=60 velocity=0 time=0
EXTRACT: note_on channel=13 note=63 velocity=0 time=0
EXTRACT: note_on channel=13 note=68 velocity=0 time=0
EXTRACT: note_on channel=10 note=63 velocity=0 time=0.04629625
EXTRACT: note_on channel=12 note=44 velocity=0 time=0
EXTRACT: note_on channel=14 note=44 velocity=0 time=0
EXTRACT: note_on channel=10 note=63 velocity=0 time=0
EXTRACT: note_on channel=10 note=63 velocity=0 time=0
EXTRACT: note_on channel=9 note=54 velocity=0 time=0.0856480625
EXTRACT: note_on channel=9 note=42 velocity=0 time=0
EXTRACT: note_on channel=9 note=46 velocity=127 time=0
EXTRACT: note_on channel=9 note=54 velocity=127 time=0
EXTRACT: note_on channel=9 note=56 velocity=127 time=0
EXTRACT: note_on channel=9 note=36 velocity=127 time=0
EXTRACT: note_on channel=10 note=70 velocity=127 time=0
EXTRACT: note_on channel=11 note=59 velocity=127 time=0
EXTRACT: note_on channel=11 note=62 velocity=127 time=0
EXTRACT: note_on channel=11 note=67 velocity=127 time=0
EXTRACT: note_on channel=12 note=43 velocity=127 time=0
EXTRACT: note_on channel=13 note=59 velocity=127 time=0
EXTRACT: note_on channel=13 note=62 velocity=127 time=0
EXTRACT: note_on channel=13 note=67 velocity=127 time=0
EXTRACT: note_on channel=14 note=43 velocity=127 time=0
EXTRACT: note_on channel=10 note=70 velocity=127 time=0
EXTRACT: note_on channel=10 note=70 velocity=127 time=0
EXTRACT: note_on channel=9 note=46 velocity=0 time=0.1319443125
EXTRACT: note_on channel=9 note=54 velocity=0 time=0
EXTRACT: note_on channel=9 note=56 velocity=0 time=0
EXTRACT: note_on channel=9 note=36 velocity=0 time=0
EXTRACT: note_on channel=9 note=54 velocity=127 time=0.0069444375
EXTRACT: note_on channel=9 note=42 velocity=127 time=0
EXTRACT: note_on channel=9 note=54 velocity=0 time=0.1319443125
EXTRACT: note_on channel=9 note=46 velocity=127 time=0.0069444375
EXTRACT: note_on channel=9 note=54 velocity=127 time=0
EXTRACT: note_on channel=9 note=56 velocity=127 time=0
EXTRACT: note_on channel=9 note=46 velocity=0 time=0.1319443125
EXTRACT: note_on channel=9 note=54 velocity=0 time=0
EXTRACT: note_on channel=9 note=56 velocity=0 time=0
EXTRACT: note_on channel=9 note=42 velocity=0 time=0
EXTRACT: note_on channel=10 note=70 velocity=0 time=0
EXTRACT: note_on channel=11 note=59 velocity=0 time=0
EXTRACT: note_on channel=11 note=62 velocity=0 time=0
EXTRACT: note_on channel=11 note=67 velocity=0 time=0
EXTRACT: note_on channel=13 note=59 velocity=0 time=0
EXTRACT: note_on channel=13 note=62 velocity=0 time=0
EXTRACT: note_on channel=13 note=67 velocity=0 time=0
EXTRACT: note_on channel=10 note=70 velocity=0 time=0
EXTRACT: note_on channel=10 note=70 velocity=0 time=0
EXTRACT: note_on channel=9 note=54 velocity=127 time=0.0069444375
EXTRACT: note_on channel=9 note=42 velocity=127 time=0
EXTRACT: note_on channel=10 note=68 velocity=127 time=0
EXTRACT: note_on channel=11 note=59 velocity=127 time=0
EXTRACT: note_on channel=11 note=62 velocity=127 time=0
EXTRACT: note_on channel=11 note=67 velocity=127 time=0
EXTRACT: note_on channel=13 note=59 velocity=127 time=0
EXTRACT: note_on channel=13 note=62 velocity=127 time=0
EXTRACT: note_on channel=13 note=67 velocity=127 time=0
EXTRACT: note_on channel=10 note=68 velocity=127 time=0
EXTRACT: note_on channel=10 note=68 velocity=127 time=0
EXTRACT: note_on channel=12 note=43 velocity=0 time=0.04629625
EXTRACT: note_on channel=14 note=43 velocity=0 time=0
EXTRACT: note_on channel=9 note=54 velocity=0 time=0.0856480625
EXTRACT: note_on channel=9 note=42 velocity=0 time=0
EXTRACT: note_on channel=9 note=54 velocity=127 time=0.0069444375
EXTRACT: note_on channel=9 note=56 velocity=127 time=0
EXTRACT: note_on channel=9 note=39 velocity=127 time=0
EXTRACT: note_on channel=9 note=42 velocity=127 time=0
EXTRACT: note_on channel=12 note=43 velocity=127 time=0
EXTRACT: note_on channel=14 note=43 velocity=127 time=0
EXTRACT: note_on channel=9 note=39 velocity=0 time=0.1319443125
EXTRACT: note_on channel=9 note=42 velocity=0 time=0
EXTRACT: note_on channel=9 note=42 velocity=127 time=0.0069444375
EXTRACT: note_on channel=9 note=54 velocity=0 time=0.1319443125
EXTRACT: note_on channel=9 note=56 velocity=0 time=0
EXTRACT: note_on channel=9 note=42 velocity=0 time=0
EXTRACT: note_on channel=10 note=68 velocity=0 time=0
EXTRACT: note_on channel=11 note=59 velocity=0 time=0
EXTRACT: note_on channel=11 note=62 velocity=0 time=0
EXTRACT: note_on channel=11 note=67 velocity=0 time=0
EXTRACT: note_on channel=12 note=43 velocity=0 time=0
EXTRACT: note_on channel=13 note=59 velocity=0 time=0
EXTRACT: note_on channel=13 note=62 velocity=0 time=0
EXTRACT: note_on channel=13 note=67 velocity=0 time=0
EXTRACT: note_on channel=14 note=43 velocity=0 time=0
EXTRACT: note_on channel=10 note=68 velocity=0 time=0
EXTRACT: note_on channel=10 note=68 velocity=0 time=0
EXTRACT: note_on channel=9 note=54 velocity=127 time=0.0069444375
EXTRACT: note_on channel=9 note=36 velocity=127 time=0
EXTRACT: note_on channel=9 note=42 velocity=127 time=0
EXTRACT: note_on channel=10 note=67 velocity=127 time=0
EXTRACT: note_on channel=11 note=60 velocity=127 time=0
EXTRACT: note_on channel=11 note=63 velocity=127 time=0
EXTRACT: note_on channel=11 note=67 velocity=127 time=0
EXTRACT: note_on channel=12 note=47 velocity=127 time=0
EXTRACT: note_on channel=13 note=60 velocity=127 time=0
EXTRACT: note_on channel=13 note=63 velocity=127 time=0
EXTRACT: note_on channel=13 note=67 velocity=127 time=0
EXTRACT: note_on channel=14 note=47 velocity=127 time=0
EXTRACT: note_on channel=10 note=67 velocity=127 time=0
EXTRACT: note_on channel=10 note=67 velocity=127 time=0
EXTRACT: note_on channel=9 note=54 velocity=0 time=0.1319443125
EXTRACT: note_on channel=9 note=36 velocity=0 time=0
EXTRACT: note_on channel=9 note=42 velocity=0 time=0
EXTRACT: note_on channel=9 note=54 velocity=127 time=0.0069444375
EXTRACT: note_on channel=9 note=56 velocity=127 time=0
EXTRACT: note_on channel=9 note=42 velocity=127 time=0
EXTRACT: note_on channel=9 note=54 velocity=0 time=0.1319443125
EXTRACT: note_on channel=9 note=56 velocity=0 time=0
EXTRACT: note_on channel=9 note=42 velocity=0 time=0
EXTRACT: note_on channel=12 note=47 velocity=0 time=0
EXTRACT: note_on channel=14 note=47 velocity=0 time=0
EXTRACT: note_on channel=9 note=54 velocity=127 time=0.0069444375
EXTRACT: note_on channel=9 note=42 velocity=127 time=0
EXTRACT: note_on channel=12 note=48 velocity=127 time=0
EXTRACT: note_on channel=14 note=48 velocity=127 time=0
EXTRACT: note_on channel=9 note=54 velocity=0 time=0.1319443125
EXTRACT: note_on channel=9 note=42 velocity=0 time=0
EXTRACT: note_on channel=9 note=46 velocity=127 time=0.0069444375
EXTRACT: note_on channel=9 note=54 velocity=127 time=0
EXTRACT: note_on channel=9 note=56 velocity=127 time=0
EXTRACT: note_on channel=9 note=36 velocity=127 time=0
EXTRACT: note_on channel=10 note=67 velocity=0 time=0
EXTRACT: note_on channel=10 note=65 velocity=127 time=0
EXTRACT: note_on channel=10 note=67 velocity=0 time=0
EXTRACT: note_on channel=10 note=65 velocity=127 time=0
EXTRACT: note_on channel=10 note=67 velocity=0 time=0
EXTRACT: note_on channel=10 note=65 velocity=127 time=0
EXTRACT: note_on channel=9 note=46 velocity=0 time=0.1319443125
EXTRACT: note_on channel=9 note=54 velocity=0 time=0
EXTRACT: note_on channel=9 note=56 velocity=0 time=0
EXTRACT: note_on channel=9 note=36 velocity=0 time=0
EXTRACT: note_on channel=12 note=48 velocity=0 time=0
EXTRACT: note_on channel=14 note=48 velocity=0 time=0
EXTRACT: note_on channel=9 note=54 velocity=127 time=0.0069444375
EXTRACT: note_on channel=9 note=56 velocity=127 time=0
EXTRACT: note_on channel=9 note=36 velocity=127 time=0
EXTRACT: note_on channel=9 note=42 velocity=127 time=0
EXTRACT: note_on channel=10 note=65 velocity=0 time=0
EXTRACT: note_on channel=10 note=63 velocity=127 time=0
EXTRACT: note_on channel=12 note=48 velocity=127 time=0
EXTRACT: note_on channel=14 note=48 velocity=127 time=0
EXTRACT: note_on channel=10 note=65 velocity=0 time=0
EXTRACT: note_on channel=10 note=63 velocity=127 time=0
EXTRACT: note_on channel=10 note=65 velocity=0 time=0
EXTRACT: note_on channel=10 note=63 velocity=127 time=0
EXTRACT: note_on channel=9 note=54 velocity=0 time=0.1319443125
EXTRACT: note_on channel=9 note=56 velocity=0 time=0
EXTRACT: note_on channel=9 note=36 velocity=0 time=0
EXTRACT: note_on channel=9 note=42 velocity=0 time=0
EXTRACT: note_on channel=9 note=56 velocity=127 time=0.0069444375
EXTRACT: note_on channel=9 note=36 velocity=127 time=0
EXTRACT: note_on channel=9 note=42 velocity=127 time=0
EXTRACT: note_on channel=9 note=56 velocity=0 time=0.1319443125
EXTRACT: note_on channel=9 note=36 velocity=0 time=0
EXTRACT: note_on channel=9 note=42 velocity=0 time=0
EXTRACT: note_on channel=10 note=63 velocity=0 time=0
EXTRACT: note_on channel=10 note=63 velocity=0 time=0
EXTRACT: note_on channel=10 note=63 velocity=0 time=0
EXTRACT: note_on channel=9 note=46 velocity=127 time=0.0069444375
EXTRACT: note_on channel=9 note=54 velocity=127 time=0
EXTRACT: note_on channel=9 note=56 velocity=127 time=0
EXTRACT: note_on channel=9 note=39 velocity=127 time=0
EXTRACT: note_on channel=9 note=46 velocity=0 time=0.1319443125
EXTRACT: note_on channel=9 note=54 velocity=0 time=0
EXTRACT: note_on channel=9 note=56 velocity=0 time=0
EXTRACT: note_on channel=9 note=39 velocity=0 time=0
EXTRACT: note_on channel=9 note=54 velocity=127 time=0.0069444375
EXTRACT: note_on channel=9 note=42 velocity=127 time=0
EXTRACT: note_on channel=9 note=54 velocity=0 time=0.1319443125
EXTRACT: note_on channel=9 note=42 velocity=0 time=0
EXTRACT: note_on channel=9 note=54 velocity=127 time=0.0069444375
EXTRACT: note_on channel=9 note=56 velocity=127 time=0
EXTRACT: note_on channel=9 note=36 velocity=127 time=0
EXTRACT: note_on channel=9 note=42 velocity=127 time=0
EXTRACT: note_on channel=9 note=54 velocity=0 time=0.1319443125
EXTRACT: note_on channel=9 note=56 velocity=0 time=0
EXTRACT: note_on channel=9 note=36 velocity=0 time=0
EXTRACT: note_on channel=9 note=42 velocity=0 time=0
EXTRACT: note_on channel=9 note=54 velocity=127 time=0.0069444375
EXTRACT: note_on channel=9 note=42 velocity=127 time=0
EXTRACT: note_on channel=11 note=60 velocity=0 time=0
EXTRACT: note_on channel=11 note=63 velocity=0 time=0
EXTRACT: note_on channel=11 note=67 velocity=0 time=0
EXTRACT: note_on channel=13 note=60 velocity=0 time=0
EXTRACT: note_on channel=13 note=63 velocity=0 time=0
EXTRACT: note_on channel=13 note=67 velocity=0 time=0
EXTRACT: note_on channel=12 note=48 velocity=0 time=0.04629625
EXTRACT: note_on channel=14 note=48 velocity=0 time=0
EXTRACT: note_on channel=9 note=54 velocity=0 time=0.0856480625
EXTRACT: note_on channel=9 note=42 velocity=0 time=0
EXTRACT: note_on channel=9 note=46 velocity=127 time=0
EXTRACT: note_on channel=9 note=54 velocity=127 time=0
EXTRACT: note_on channel=9 note=56 velocity=127 time=0
EXTRACT: note_on channel=9 note=36 velocity=127 time=0
EXTRACT: note_on channel=10 note=60 velocity=127 time=0
EXTRACT: note_on channel=11 note=60 velocity=127 time=0
EXTRACT: note_on channel=11 note=63 velocity=127 time=0
EXTRACT: note_on channel=11 note=67 velocity=127 time=0
EXTRACT: note_on channel=12 note=48 velocity=127 time=0
EXTRACT: note_on channel=13 note=60 velocity=127 time=0
EXTRACT: note_on channel=13 note=63 velocity=127 time=0
EXTRACT: note_on channel=13 note=67 velocity=127 time=0
EXTRACT: note_on channel=14 note=48 velocity=127 time=0
EXTRACT: note_on channel=10 note=60 velocity=127 time=0
EXTRACT: note_on channel=10 note=60 velocity=127 time=0
EXTRACT: note_on channel=9 note=46 velocity=0 time=0.1319443125
EXTRACT: note_on channel=9 note=54 velocity=0 time=0
EXTRACT: note_on channel=9 note=56 velocity=0 time=0
EXTRACT: note_on channel=9 note=36 velocity=0 time=0
EXTRACT: note_on channel=9 note=54 velocity=127 time=0.0069444375
EXTRACT: note_on channel=9 note=42 velocity=127 time=0
EXTRACT: note_on channel=9 note=54 velocity=0 time=0.1319443125
EXTRACT: note_on channel=10 note=60 velocity=0 time=0
EXTRACT: note_on channel=10 note=60 velocity=0 time=0
EXTRACT: note_on channel=10 note=60 velocity=0 time=0
EXTRACT: note_on channel=9 note=46 velocity=127 time=0.0069444375
EXTRACT: note_on channel=9 note=54 velocity=127 time=0
EXTRACT: note_on channel=9 note=56 velocity=127 time=0
EXTRACT: note_on channel=10 note=60 velocity=127 time=0
EXTRACT: note_on channel=10 note=60 velocity=127 time=0
EXTRACT: note_on channel=10 note=60 velocity=127 time=0
EXTRACT: note_on channel=9 note=46 velocity=0 time=0.1319443125
EXTRACT: note_on channel=9 note=54 velocity=0 time=0
EXTRACT: note_on channel=9 note=56 velocity=0 time=0
EXTRACT: note_on channel=9 note=42 velocity=0 time=0
EXTRACT: note_on channel=11 note=60 velocity=0 time=0
EXTRACT: note_on channel=11 note=63 velocity=0 time=0
EXTRACT: note_on channel=11 note=67 velocity=0 time=0
EXTRACT: note_on channel=13 note=60 velocity=0 time=0
EXTRACT: note_on channel=13 note=63 velocity=0 time=0
EXTRACT: note_on channel=13 note=67 velocity=0 time=0
EXTRACT: note_on channel=9 note=54 velocity=127 time=0.0069444375
EXTRACT: note_on channel=9 note=42 velocity=127 time=0
EXTRACT: note_on channel=11 note=60 velocity=127 time=0
EXTRACT: note_on channel=11 note=63 velocity=127 time=0
EXTRACT: note_on channel=11 note=67 velocity=127 time=0
EXTRACT: note_on channel=13 note=60 velocity=127 time=0
EXTRACT: note_on channel=13 note=63 velocity=127 time=0
EXTRACT: note_on channel=13 note=67 velocity=127 time=0
EXTRACT: note_on channel=12 note=48 velocity=0 time=0.04629625
EXTRACT: note_on channel=14 note=48 velocity=0 time=0
EXTRACT: note_on channel=9 note=54 velocity=0 time=0.0856480625
EXTRACT: note_on channel=9 note=42 velocity=0 time=0
EXTRACT: note_on channel=10 note=60 velocity=0 time=0
EXTRACT: note_on channel=10 note=60 velocity=0 time=0
EXTRACT: note_on channel=10 note=60 velocity=0 time=0
EXTRACT: note_on channel=9 note=54 velocity=127 time=0.0069444375
EXTRACT: note_on channel=9 note=56 velocity=127 time=0
EXTRACT: note_on channel=9 note=39 velocity=127 time=0
EXTRACT: note_on channel=9 note=42 velocity=127 time=0
EXTRACT: note_on channel=10 note=63 velocity=127 time=0
EXTRACT: note_on channel=12 note=48 velocity=127 time=0
EXTRACT: note_on channel=14 note=48 velocity=127 time=0
EXTRACT: note_on channel=10 note=63 velocity=127 time=0
EXTRACT: note_on channel=10 note=63 velocity=127 time=0
EXTRACT: note_on channel=9 note=39 velocity=0 time=0.1319443125
EXTRACT: note_on channel=9 note=42 velocity=0 time=0
EXTRACT: note_on channel=9 note=42 velocity=127 time=0.0069444375
EXTRACT: note_on channel=9 note=54 velocity=0 time=0.1319443125
EXTRACT: note_on channel=9 note=56 velocity=0 time=0
EXTRACT: note_on channel=9 note=42 velocity=0 time=0
EXTRACT: note_on channel=10 note=63 velocity=0 time=0
EXTRACT: note_on channel=11 note=60 velocity=0 time=0
EXTRACT: note_on channel=11 note=63 velocity=0 time=0
EXTRACT: note_on channel=11 note=67 velocity=0 time=0
EXTRACT: note_on channel=12 note=48 velocity=0 time=0
EXTRACT: note_on channel=13 note=60 velocity=0 time=0
EXTRACT: note_on channel=13 note=63 velocity=0 time=0
EXTRACT: note_on channel=13 note=67 velocity=0 time=0
EXTRACT: note_on channel=14 note=48 velocity=0 time=0
EXTRACT: note_on channel=10 note=63 velocity=0 time=0
EXTRACT: note_on channel=10 note=63 velocity=0 time=0
EXTRACT: note_on channel=9 note=54 velocity=127 time=0.0069444375
EXTRACT: note_on channel=9 note=36 velocity=127 time=0
EXTRACT: note_on channel=9 note=42 velocity=127 time=0
EXTRACT: note_on channel=10 note=63 velocity=127 time=0
EXTRACT: note_on channel=11 note=60 velocity=127 time=0
EXTRACT: note_on channel=11 note=63 velocity=127 time=0
EXTRACT: note_on channel=11 note=68 velocity=127 time=0
EXTRACT: note_on channel=12 note=43 velocity=127 time=0
EXTRACT: note_on channel=13 note=60 velocity=127 time=0
EXTRACT: note_on channel=13 note=63 velocity=127 time=0
EXTRACT: note_on channel=13 note=68 velocity=127 time=0
EXTRACT: note_on channel=14 note=43 velocity=127 time=0
EXTRACT: note_on channel=10 note=63 velocity=127 time=0
EXTRACT: note_on channel=10 note=63 velocity=127 time=0
EXTRACT: note_on channel=9 note=54 velocity=0 time=0.1319443125
EXTRACT: note_on channel=9 note=36 velocity=0 time=0
EXTRACT: note_on channel=9 note=42 velocity=0 time=0
EXTRACT: note_on channel=9 note=54 velocity=127 time=0.0069444375
EXTRACT: note_on channel=9 note=56 velocity=127 time=0
EXTRACT: note_on channel=9 note=42 velocity=127 time=0
EXTRACT: note_on channel=9 note=54 velocity=0 time=0.1319443125
EXTRACT: note_on channel=9 note=56 velocity=0 time=0
EXTRACT: note_on channel=9 note=42 velocity=0 time=0
EXTRACT: note_on channel=10 note=63 velocity=0 time=0
EXTRACT: note_on channel=12 note=43 velocity=0 time=0
EXTRACT: note_on channel=14 note=43 velocity=0 time=0
EXTRACT: note_on channel=10 note=63 velocity=0 time=0
EXTRACT: note_on channel=10 note=63 velocity=0 time=0
EXTRACT: note_on channel=9 note=54 velocity=127 time=0.0069444375
EXTRACT: note_on channel=9 note=42 velocity=127 time=0
EXTRACT: note_on channel=10 note=65 velocity=127 time=0
EXTRACT: note_on channel=12 note=44 velocity=127 time=0
EXTRACT: note_on channel=14 note=44 velocity=127 time=0
EXTRACT: note_on channel=10 note=65 velocity=127 time=0
EXTRACT: note_on channel=10 note=65 velocity=127 time=0
EXTRACT: note_on channel=9 note=54 velocity=0 time=0.1319443125
EXTRACT: note_on channel=9 note=42 velocity=0 time=0
EXTRACT: note_on channel=9 note=46 velocity=127 time=0.0069444375
EXTRACT: note_on channel=9 note=54 velocity=127 time=0
EXTRACT: note_on channel=9 note=56 velocity=127 time=0
EXTRACT: note_on channel=9 note=36 velocity=127 time=0
EXTRACT: note_on channel=9 note=46 velocity=0 time=0.1319443125
EXTRACT: note_on channel=9 note=54 velocity=0 time=0
EXTRACT: note_on channel=9 note=56 velocity=0 time=0
EXTRACT: note_on channel=9 note=36 velocity=0 time=0
EXTRACT: note_on channel=10 note=65 velocity=0 time=0
EXTRACT: note_on channel=12 note=44 velocity=0 time=0
EXTRACT: note_on channel=14 note=44 velocity=0 time=0
EXTRACT: note_on channel=10 note=65 velocity=0 time=0
EXTRACT: note_on channel=10 note=65 velocity=0 time=0
EXTRACT: note_on channel=9 note=54 velocity=127 time=0.0069444375
EXTRACT: note_on channel=9 note=56 velocity=127 time=0
EXTRACT: note_on channel=9 note=36 velocity=127 time=0
EXTRACT: note_on channel=9 note=42 velocity=127 time=0
EXTRACT: note_on channel=10 note=65 velocity=127 time=0
EXTRACT: note_on channel=12 note=44 velocity=127 time=0
EXTRACT: note_on channel=14 note=44 velocity=127 time=0
EXTRACT: note_on channel=10 note=65 velocity=127 time=0
EXTRACT: note_on channel=10 note=65 velocity=127 time=0
EXTRACT: note_on channel=9 note=54 velocity=0 time=0.1319443125
EXTRACT: note_on channel=9 note=56 velocity=0 time=0
EXTRACT: note_on channel=9 note=36 velocity=0 time=0
EXTRACT: note_on channel=9 note=42 velocity=0 time=0
EXTRACT: note_on channel=9 note=56 velocity=127 time=0.0069444375
EXTRACT: note_on channel=9 note=36 velocity=127 time=0
EXTRACT: note_on channel=9 note=42 velocity=127 time=0
EXTRACT: note_on channel=9 note=56 velocity=0 time=0.1319443125
EXTRACT: note_on channel=9 note=36 velocity=0 time=0
EXTRACT: note_on channel=9 note=42 velocity=0 time=0
EXTRACT: note_on channel=10 note=65 velocity=0 time=0
EXTRACT: note_on channel=10 note=65 velocity=0 time=0
EXTRACT: note_on channel=10 note=65 velocity=0 time=0
EXTRACT: note_on channel=9 note=46 velocity=127 time=0.0069444375
EXTRACT: note_on channel=9 note=54 velocity=127 time=0
EXTRACT: note_on channel=9 note=56 velocity=127 time=0
EXTRACT: note_on channel=9 note=39 velocity=127 time=0
EXTRACT: note_on channel=10 note=67 velocity=127 time=0
EXTRACT: note_on channel=10 note=67 velocity=127 time=0
EXTRACT: note_on channel=10 note=67 velocity=127 time=0
EXTRACT: note_on channel=9 note=46 velocity=0 time=0.1319443125
EXTRACT: note_on channel=9 note=54 velocity=0 time=0
EXTRACT: note_on channel=9 note=56 velocity=0 time=0
EXTRACT: note_on channel=9 note=39 velocity=0 time=0
EXTRACT: note_on channel=9 note=54 velocity=127 time=0.0069444375
EXTRACT: note_on channel=9 note=42 velocity=127 time=0
EXTRACT: note_on channel=9 note=54 velocity=0 time=0.1319443125
EXTRACT: note_on channel=9 note=42 velocity=0 time=0
EXTRACT: note_on channel=10 note=67 velocity=0 time=0
EXTRACT: note_on channel=10 note=67 velocity=0 time=0
EXTRACT: note_on channel=10 note=67 velocity=0 time=0
EXTRACT: note_on channel=9 note=54 velocity=127 time=0.0069444375
EXTRACT: note_on channel=9 note=56 velocity=127 time=0
EXTRACT: note_on channel=9 note=36 velocity=127 time=0
EXTRACT: note_on channel=9 note=42 velocity=127 time=0
EXTRACT: note_on channel=10 note=67 velocity=127 time=0
EXTRACT: note_on channel=10 note=67 velocity=127 time=0
EXTRACT: note_on channel=10 note=67 velocity=127 time=0
EXTRACT: note_on channel=9 note=54 velocity=0 time=0.1319443125
EXTRACT: note_on channel=9 note=56 velocity=0 time=0
EXTRACT: note_on channel=9 note=36 velocity=0 time=0
EXTRACT: note_on channel=9 note=42 velocity=0 time=0
EXTRACT: note_on channel=9 note=54 velocity=127 time=0.0069444375
EXTRACT: note_on channel=9 note=42 velocity=127 time=0
EXTRACT: note_on channel=11 note=60 velocity=0 time=0
EXTRACT: note_on channel=11 note=63 velocity=0 time=0
EXTRACT: note_on channel=11 note=68 velocity=0 time=0
EXTRACT: note_on channel=13 note=60 velocity=0 time=0
EXTRACT: note_on channel=13 note=63 velocity=0 time=0
EXTRACT: note_on channel=13 note=68 velocity=0 time=0
EXTRACT: note_on channel=12 note=44 velocity=0 time=0.04629625
EXTRACT: note_on channel=14 note=44 velocity=0 time=0
EXTRACT: note_on channel=9 note=54 velocity=0 time=0.0856480625
EXTRACT: note_on channel=9 note=42 velocity=0 time=0
EXTRACT: note_on channel=10 note=67 velocity=0 time=0
EXTRACT: note_on channel=10 note=67 velocity=0 time=0
EXTRACT: note_on channel=10 note=67 velocity=0 time=0
EXTRACT: note_on channel=9 note=46 velocity=127 time=0
EXTRACT: note_on channel=9 note=54 velocity=127 time=0
EXTRACT: note_on channel=9 note=56 velocity=127 time=0
EXTRACT: note_on channel=9 note=36 velocity=127 time=0
EXTRACT: note_on channel=10 note=70 velocity=127 time=0
EXTRACT: note_on channel=11 note=59 velocity=127 time=0
EXTRACT: note_on channel=11 note=62 velocity=127 time=0
EXTRACT: note_on channel=11 note=67 velocity=127 time=0
EXTRACT: note_on channel=12 note=43 velocity=127 time=0
EXTRACT: note_on channel=13 note=59 velocity=127 time=0
EXTRACT: note_on channel=13 note=62 velocity=127 time=0
EXTRACT: note_on channel=13 note=67 velocity=127 time=0
EXTRACT: note_on channel=14 note=43 velocity=127 time=0
EXTRACT: note_on channel=10 note=70 velocity=127 time=0
EXTRACT: note_on channel=10 note=70 velocity=127 time=0
EXTRACT: note_on channel=9 note=46 velocity=0 time=0.1319443125
EXTRACT: note_on channel=9 note=54 velocity=0 time=0
EXTRACT: note_on channel=9 note=56 velocity=0 time=0
EXTRACT: note_on channel=9 note=36 velocity=0 time=0
EXTRACT: note_on channel=9 note=54 velocity=127 time=0.0069444375
EXTRACT: note_on channel=9 note=42 velocity=127 time=0
EXTRACT: note_on channel=9 note=54 velocity=0 time=0.1319443125
EXTRACT: note_on channel=9 note=46 velocity=127 time=0.0069444375
EXTRACT: note_on channel=9 note=54 velocity=127 time=0
EXTRACT: note_on channel=9 note=56 velocity=127 time=0
EXTRACT: note_on channel=9 note=46 velocity=0 time=0.1319443125
EXTRACT: note_on channel=9 note=54 velocity=0 time=0
EXTRACT: note_on channel=9 note=56 velocity=0 time=0
EXTRACT: note_on channel=9 note=42 velocity=0 time=0
EXTRACT: note_on channel=10 note=70 velocity=0 time=0
EXTRACT: note_on channel=11 note=59 velocity=0 time=0
EXTRACT: note_on channel=11 note=62 velocity=0 time=0
EXTRACT: note_on channel=11 note=67 velocity=0 time=0
EXTRACT: note_on channel=13 note=59 velocity=0 time=0
EXTRACT: note_on channel=13 note=62 velocity=0 time=0
EXTRACT: note_on channel=13 note=67 velocity=0 time=0
EXTRACT: note_on channel=10 note=70 velocity=0 time=0
EXTRACT: note_on channel=10 note=70 velocity=0 time=0
EXTRACT: note_on channel=9 note=54 velocity=127 time=0.0069444375
EXTRACT: note_on channel=9 note=42 velocity=127 time=0
EXTRACT: note_on channel=10 note=72 velocity=127 time=0
EXTRACT: note_on channel=11 note=59 velocity=127 time=0
EXTRACT: note_on channel=11 note=62 velocity=127 time=0
EXTRACT: note_on channel=11 note=67 velocity=127 time=0
EXTRACT: note_on channel=13 note=59 velocity=127 time=0
EXTRACT: note_on channel=13 note=62 velocity=127 time=0
EXTRACT: note_on channel=13 note=67 velocity=127 time=0
EXTRACT: note_on channel=10 note=72 velocity=127 time=0
EXTRACT: note_on channel=10 note=72 velocity=127 time=0
EXTRACT: note_on channel=12 note=43 velocity=0 time=0.04629625
EXTRACT: note_on channel=14 note=43 velocity=0 time=0
EXTRACT: note_on channel=9 note=54 velocity=0 time=0.0856480625
EXTRACT: note_on channel=9 note=42 velocity=0 time=0
EXTRACT: note_on channel=9 note=54 velocity=127 time=0.0069444375
EXTRACT: note_on channel=9 note=56 velocity=127 time=0
EXTRACT: note_on channel=9 note=39 velocity=127 time=0
EXTRACT: note_on channel=9 note=42 velocity=127 time=0
EXTRACT: note_on channel=12 note=43 velocity=127 time=0
EXTRACT: note_on channel=14 note=43 velocity=127 time=0
EXTRACT: note_on channel=9 note=39 velocity=0 time=0.1319443125
EXTRACT: note_on channel=9 note=42 velocity=0 time=0
EXTRACT: note_on channel=9 note=42 velocity=127 time=0.0069444375
EXTRACT: note_on channel=9 note=54 velocity=0 time=0.1319443125
EXTRACT: note_on channel=9 note=56 velocity=0 time=0
EXTRACT: note_on channel=9 note=42 velocity=0 time=0
EXTRACT: note_on channel=10 note=72 velocity=0 time=0
EXTRACT: note_on channel=11 note=59 velocity=0 time=0
EXTRACT: note_on channel=11 note=62 velocity=0 time=0
EXTRACT: note_on channel=11 note=67 velocity=0 time=0
EXTRACT: note_on channel=12 note=43 velocity=0 time=0
EXTRACT: note_on channel=13 note=59 velocity=0 time=0
EXTRACT: note_on channel=13 note=62 velocity=0 time=0
EXTRACT: note_on channel=13 note=67 velocity=0 time=0
EXTRACT: note_on channel=14 note=43 velocity=0 time=0
EXTRACT: note_on channel=10 note=72 velocity=0 time=0
EXTRACT: note_on channel=10 note=72 velocity=0 time=0
EXTRACT: note_on channel=9 note=54 velocity=127 time=0.0069444375
EXTRACT: note_on channel=9 note=36 velocity=127 time=0
EXTRACT: note_on channel=9 note=42 velocity=127 time=0
EXTRACT: note_on channel=10 note=72 velocity=127 time=0
EXTRACT: note_on channel=11 note=60 velocity=127 time=0
EXTRACT: note_on channel=11 note=63 velocity=127 time=0
EXTRACT: note_on channel=11 note=67 velocity=127 time=0
EXTRACT: note_on channel=12 note=47 velocity=127 time=0
EXTRACT: note_on channel=13 note=60 velocity=127 time=0
EXTRACT: note_on channel=13 note=63 velocity=127 time=0
EXTRACT: note_on channel=13 note=67 velocity=127 time=0
EXTRACT: note_on channel=14 note=47 velocity=127 time=0
EXTRACT: note_on channel=10 note=72 velocity=127 time=0
EXTRACT: note_on channel=10 note=72 velocity=127 time=0
EXTRACT: note_on channel=9 note=54 velocity=0 time=0.1319443125
EXTRACT: note_on channel=9 note=36 velocity=0 time=0
EXTRACT: note_on channel=9 note=42 velocity=0 time=0
EXTRACT: note_on channel=9 note=54 velocity=127 time=0.0069444375
EXTRACT: note_on channel=9 note=56 velocity=127 time=0
EXTRACT: note_on channel=9 note=42 velocity=127 time=0
EXTRACT: note_on channel=9 note=54 velocity=0 time=0.1319443125
EXTRACT: note_on channel=9 note=56 velocity=0 time=0
EXTRACT: note_on channel=9 note=42 velocity=0 time=0
EXTRACT: note_on channel=12 note=47 velocity=0 time=0
EXTRACT: note_on channel=14 note=47 velocity=0 time=0
EXTRACT: note_on channel=9 note=54 velocity=127 time=0.0069444375
EXTRACT: note_on channel=9 note=42 velocity=127 time=0
EXTRACT: note_on channel=12 note=48 velocity=127 time=0
EXTRACT: note_on channel=14 note=48 velocity=127 time=0
EXTRACT: note_on channel=9 note=54 velocity=0 time=0.1319443125
EXTRACT: note_on channel=9 note=42 velocity=0 time=0
EXTRACT: note_on channel=9 note=46 velocity=127 time=0.0069444375
EXTRACT: note_on channel=9 note=54 velocity=127 time=0
EXTRACT: note_on channel=9 note=56 velocity=127 time=0
EXTRACT: note_on channel=9 note=36 velocity=127 time=0
EXTRACT: note_on channel=9 note=46 velocity=0 time=0.1319443125
EXTRACT: note_on channel=9 note=54 velocity=0 time=0
EXTRACT: note_on channel=9 note=56 velocity=0 time=0
EXTRACT: note_on channel=9 note=36 velocity=0 time=0
EXTRACT: note_on channel=10 note=72 velocity=0 time=0
EXTRACT: note_on channel=12 note=48 velocity=0 time=0
EXTRACT: note_on channel=14 note=48 velocity=0 time=0
EXTRACT: note_on channel=10 note=72 velocity=0 time=0
EXTRACT: note_on channel=10 note=72 velocity=0 time=0
EXTRACT: note_on channel=9 note=54 velocity=127 time=0.0069444375
EXTRACT: note_on channel=9 note=56 velocity=127 time=0
EXTRACT: note_on channel=9 note=36 velocity=127 time=0
EXTRACT: note_on channel=9 note=42 velocity=127 time=0
EXTRACT: note_on channel=10 note=60 velocity=127 time=0
EXTRACT: note_on channel=12 note=48 velocity=127 time=0
EXTRACT: note_on channel=14 note=48 velocity=127 time=0
EXTRACT: note_on channel=10 note=60 velocity=127 time=0
EXTRACT: note_on channel=10 note=60 velocity=127 time=0
EXTRACT: note_on channel=9 note=54 velocity=0 time=0.1319443125
EXTRACT: note_on channel=9 note=56 velocity=0 time=0
EXTRACT: note_on channel=9 note=36 velocity=0 time=0
EXTRACT: note_on channel=9 note=42 velocity=0 time=0
EXTRACT: note_on channel=9 note=56 velocity=127 time=0.0069444375
EXTRACT: note_on channel=9 note=36 velocity=127 time=0
EXTRACT: note_on channel=9 note=42 velocity=127 time=0
EXTRACT: note_on channel=9 note=56 velocity=0 time=0.1319443125
EXTRACT: note_on channel=9 note=36 velocity=0 time=0
EXTRACT: note_on channel=9 note=42 velocity=0 time=0
EXTRACT: note_on channel=10 note=60 velocity=0 time=0
EXTRACT: note_on channel=10 note=60 velocity=0 time=0
EXTRACT: note_on channel=10 note=60 velocity=0 time=0
EXTRACT: note_on channel=9 note=46 velocity=127 time=0.0069444375
EXTRACT: note_on channel=9 note=54 velocity=127 time=0
EXTRACT: note_on channel=9 note=56 velocity=127 time=0
EXTRACT: note_on channel=9 note=39 velocity=127 time=0
EXTRACT: note_on channel=10 note=63 velocity=127 time=0
EXTRACT: note_on channel=10 note=63 velocity=127 time=0
EXTRACT: note_on channel=10 note=63 velocity=127 time=0
EXTRACT: note_on channel=9 note=46 velocity=0 time=0.1319443125
EXTRACT: note_on channel=9 note=54 velocity=0 time=0
EXTRACT: note_on channel=9 note=56 velocity=0 time=0
EXTRACT: note_on channel=9 note=39 velocity=0 time=0
EXTRACT: note_on channel=9 note=54 velocity=127 time=0.0069444375
EXTRACT: note_on channel=9 note=42 velocity=127 time=0
EXTRACT: note_on channel=9 note=54 velocity=0 time=0.1319443125
EXTRACT: note_on channel=9 note=42 velocity=0 time=0
EXTRACT: note_on channel=10 note=63 velocity=0 time=0
EXTRACT: note_on channel=10 note=63 velocity=0 time=0
EXTRACT: note_on channel=10 note=63 velocity=0 time=0
EXTRACT: note_on channel=9 note=54 velocity=127 time=0.0069444375
EXTRACT: note_on channel=9 note=56 velocity=127 time=0
EXTRACT: note_on channel=9 note=36 velocity=127 time=0
EXTRACT: note_on channel=9 note=42 velocity=127 time=0
EXTRACT: note_on channel=10 note=65 velocity=127 time=0
EXTRACT: note_on channel=10 note=65 velocity=127 time=0
EXTRACT: note_on channel=10 note=65 velocity=127 time=0
EXTRACT: note_on channel=9 note=54 velocity=0 time=0.1319443125
EXTRACT: note_on channel=9 note=56 velocity=0 time=0
EXTRACT: note_on channel=9 note=36 velocity=0 time=0
EXTRACT: note_on channel=9 note=42 velocity=0 time=0
EXTRACT: note_on channel=9 note=54 velocity=127 time=0.0069444375
EXTRACT: note_on channel=9 note=42 velocity=127 time=0
EXTRACT: note_on channel=11 note=60 velocity=0 time=0
EXTRACT: note_on channel=11 note=63 velocity=0 time=0
EXTRACT: note_on channel=11 note=67 velocity=0 time=0
EXTRACT: note_on channel=13 note=60 velocity=0 time=0
EXTRACT: note_on channel=13 note=63 velocity=0 time=0
EXTRACT: note_on channel=13 note=67 velocity=0 time=0
EXTRACT: note_on channel=12 note=48 velocity=0 time=0.04629625
EXTRACT: note_on channel=14 note=48 velocity=0 time=0
EXTRACT: note_on channel=9 note=54 velocity=0 time=0.0856480625
EXTRACT: note_on channel=9 note=42 velocity=0 time=0
EXTRACT: note_on channel=10 note=65 velocity=0 time=0
EXTRACT: note_on channel=10 note=65 velocity=0 time=0
EXTRACT: note_on channel=10 note=65 velocity=0 time=0
EXTRACT: note_on channel=9 note=46 velocity=127 time=0
EXTRACT: note_on channel=9 note=54 velocity=127 time=0
EXTRACT: note_on channel=9 note=56 velocity=127 time=0
EXTRACT: note_on channel=9 note=36 velocity=127 time=0
EXTRACT: note_on channel=10 note=67 velocity=127 time=0
EXTRACT: note_on channel=11 note=60 velocity=127 time=0
EXTRACT: note_on channel=11 note=63 velocity=127 time=0
EXTRACT: note_on channel=11 note=67 velocity=127 time=0
EXTRACT: note_on channel=12 note=48 velocity=127 time=0
EXTRACT: note_on channel=13 note=60 velocity=127 time=0
EXTRACT: note_on channel=13 note=63 velocity=127 time=0
EXTRACT: note_on channel=13 note=67 velocity=127 time=0
EXTRACT: note_on channel=14 note=48 velocity=127 time=0
EXTRACT: note_on channel=10 note=67 velocity=127 time=0
EXTRACT: note_on channel=10 note=67 velocity=127 time=0
EXTRACT: note_on channel=9 note=46 velocity=0 time=0.1319443125
EXTRACT: note_on channel=9 note=54 velocity=0 time=0
EXTRACT: note_on channel=9 note=56 velocity=0 time=0
EXTRACT: note_on channel=9 note=36 velocity=0 time=0
EXTRACT: note_on channel=9 note=54 velocity=127 time=0.0069444375
EXTRACT: note_on channel=9 note=42 velocity=127 time=0
EXTRACT: note_on channel=9 note=54 velocity=0 time=0.1319443125
EXTRACT: note_on channel=9 note=46 velocity=127 time=0.0069444375
EXTRACT: note_on channel=9 note=54 velocity=127 time=0
EXTRACT: note_on channel=9 note=56 velocity=127 time=0
EXTRACT: note_on channel=9 note=46 velocity=0 time=0.1319443125
EXTRACT: note_on channel=9 note=54 velocity=0 time=0
EXTRACT: note_on channel=9 note=56 velocity=0 time=0
EXTRACT: note_on channel=9 note=42 velocity=0 time=0
EXTRACT: note_on channel=11 note=60 velocity=0 time=0
EXTRACT: note_on channel=11 note=63 velocity=0 time=0
EXTRACT: note_on channel=11 note=67 velocity=0 time=0
EXTRACT: note_on channel=13 note=60 velocity=0 time=0
EXTRACT: note_on channel=13 note=63 velocity=0 time=0
EXTRACT: note_on channel=13 note=67 velocity=0 time=0
EXTRACT: note_on channel=9 note=54 velocity=127 time=0.0069444375
EXTRACT: note_on channel=9 note=42 velocity=127 time=0
EXTRACT: note_on channel=11 note=60 velocity=127 time=0
EXTRACT: note_on channel=11 note=63 velocity=127 time=0
EXTRACT: note_on channel=11 note=67 velocity=127 time=0
EXTRACT: note_on channel=13 note=60 velocity=127 time=0
EXTRACT: note_on channel=13 note=63 velocity=127 time=0
EXTRACT: note_on channel=13 note=67 velocity=127 time=0
EXTRACT: note_on channel=12 note=48 velocity=0 time=0.04629625
EXTRACT: note_on channel=14 note=48 velocity=0 time=0
EXTRACT: note_on channel=9 note=54 velocity=0 time=0.0856480625
EXTRACT: note_on channel=9 note=42 velocity=0 time=0
EXTRACT: note_on channel=9 note=54 velocity=127 time=0.0069444375
EXTRACT: note_on channel=9 note=56 velocity=127 time=0
EXTRACT: note_on channel=9 note=39 velocity=127 time=0
EXTRACT: note_on channel=9 note=42 velocity=127 time=0
EXTRACT: note_on channel=12 note=48 velocity=127 time=0
EXTRACT: note_on channel=14 note=48 velocity=127 time=0
EXTRACT: note_on channel=9 note=39 velocity=0 time=0.1319443125
EXTRACT: note_on channel=9 note=42 velocity=0 time=0
EXTRACT: note_on channel=9 note=42 velocity=127 time=0.0069444375
EXTRACT: note_on channel=10 note=67 velocity=0 time=0.04629625
EXTRACT: note_on channel=10 note=67 velocity=0 time=0
EXTRACT: note_on channel=10 note=67 velocity=0 time=0
EXTRACT: note_on channel=9 note=54 velocity=0 time=0.0856480625
EXTRACT: note_on channel=9 note=56 velocity=0 time=0
EXTRACT: note_on channel=9 note=42 velocity=0 time=0
EXTRACT: note_on channel=11 note=60 velocity=0 time=0
EXTRACT: note_on channel=11 note=63 velocity=0 time=0
EXTRACT: note_on channel=11 note=67 velocity=0 time=0
EXTRACT: note_on channel=12 note=48 velocity=0 time=0
EXTRACT: note_on channel=13 note=60 velocity=0 time=0
EXTRACT: note_on channel=13 note=63 velocity=0 time=0
EXTRACT: note_on channel=13 note=67 velocity=0 time=0
EXTRACT: note_on channel=14 note=48 velocity=0 time=0
EXTRACT: note_on channel=9 note=54 velocity=127 time=0.0069444375
EXTRACT: note_on channel=9 note=36 velocity=127 time=0
EXTRACT: note_on channel=9 note=42 velocity=127 time=0
EXTRACT: note_on channel=10 note=68 velocity=127 time=0
EXTRACT: note_on channel=11 note=60 velocity=127 time=0
EXTRACT: note_on channel=11 note=63 velocity=127 time=0
EXTRACT: note_on channel=11 note=68 velocity=127 time=0
EXTRACT: note_on channel=12 note=43 velocity=127 time=0
EXTRACT: note_on channel=13 note=60 velocity=127 time=0
EXTRACT: note_on channel=13 note=63 velocity=127 time=0
EXTRACT: note_on channel=13 note=68 velocity=127 time=0
EXTRACT: note_on channel=14 note=43 velocity=127 time=0
EXTRACT: note_on channel=10 note=68 velocity=127 time=0
EXTRACT: note_on channel=10 note=68 velocity=127 time=0
EXTRACT: note_on channel=9 note=54 velocity=0 time=0.1319443125
EXTRACT: note_on channel=9 note=36 velocity=0 time=0
EXTRACT: note_on channel=9 note=42 velocity=0 time=0
EXTRACT: note_on channel=9 note=54 velocity=127 time=0.0069444375
EXTRACT: note_on channel=9 note=56 velocity=127 time=0
EXTRACT: note_on channel=9 note=42 velocity=127 time=0
EXTRACT: note_on channel=9 note=54 velocity=0 time=0.1319443125
EXTRACT: note_on channel=9 note=56 velocity=0 time=0
EXTRACT: note_on channel=9 note=42 velocity=0 time=0
EXTRACT: note_on channel=12 note=43 velocity=0 time=0
EXTRACT: note_on channel=14 note=43 velocity=0 time=0
EXTRACT: note_on channel=9 note=54 velocity=127 time=0.0069444375
EXTRACT: note_on channel=9 note=42 velocity=127 time=0
EXTRACT: note_on channel=12 note=44 velocity=127 time=0
EXTRACT: note_on channel=14 note=44 velocity=127 time=0
EXTRACT: note_on channel=9 note=54 velocity=0 time=0.1319443125
EXTRACT: note_on channel=9 note=42 velocity=0 time=0
EXTRACT: note_on channel=9 note=46 velocity=127 time=0.0069444375
EXTRACT: note_on channel=9 note=54 velocity=127 time=0
EXTRACT: note_on channel=9 note=56 velocity=127 time=0
EXTRACT: note_on channel=9 note=36 velocity=127 time=0
EXTRACT: note_on channel=9 note=46 velocity=0 time=0.1319443125
EXTRACT: note_on channel=9 note=54 velocity=0 time=0
EXTRACT: note_on channel=9 note=56 velocity=0 time=0
EXTRACT: note_on channel=9 note=36 velocity=0 time=0
EXTRACT: note_on channel=12 note=44 velocity=0 time=0
EXTRACT: note_on channel=14 note=44 velocity=0 time=0
EXTRACT: note_on channel=9 note=54 velocity=127 time=0.0069444375
EXTRACT: note_on channel=9 note=56 velocity=127 time=0
EXTRACT: note_on channel=9 note=36 velocity=127 time=0
EXTRACT: note_on channel=9 note=42 velocity=127 time=0
EXTRACT: note_on channel=12 note=44 velocity=127 time=0
EXTRACT: note_on channel=14 note=44 velocity=127 time=0
EXTRACT: note_on channel=9 note=54 velocity=0 time=0.1319443125
EXTRACT: note_on channel=9 note=56 velocity=0 time=0
EXTRACT: note_on channel=9 note=36 velocity=0 time=0
EXTRACT: note_on channel=9 note=42 velocity=0 time=0
EXTRACT: note_on channel=9 note=56 velocity=127 time=0.0069444375
EXTRACT: note_on channel=9 note=36 velocity=127 time=0
EXTRACT: note_on channel=9 note=42 velocity=127 time=0
EXTRACT: note_on channel=9 note=56 velocity=0 time=0.1319443125
EXTRACT: note_on channel=9 note=36 velocity=0 time=0
EXTRACT: note_on channel=9 note=42 velocity=0 time=0
EXTRACT: note_on channel=9 note=46 velocity=127 time=0.0069444375
EXTRACT: note_on channel=9 note=54 velocity=127 time=0
EXTRACT: note_on channel=9 note=56 velocity=127 time=0
EXTRACT: note_on channel=9 note=39 velocity=127 time=0
EXTRACT: note_on channel=9 note=46 velocity=0 time=0.1319443125
EXTRACT: note_on channel=9 note=54 velocity=0 time=0
EXTRACT: note_on channel=9 note=56 velocity=0 time=0
EXTRACT: note_on channel=9 note=39 velocity=0 time=0
EXTRACT: note_on channel=9 note=54 velocity=127 time=0.0069444375
EXTRACT: note_on channel=9 note=42 velocity=127 time=0
EXTRACT: note_on channel=10 note=68 velocity=0 time=0.04629625
EXTRACT: note_on channel=10 note=68 velocity=0 time=0
EXTRACT: note_on channel=10 note=68 velocity=0 time=0
EXTRACT: note_on channel=9 note=54 velocity=0 time=0.0856480625
EXTRACT: note_on channel=9 note=42 velocity=0 time=0
EXTRACT: note_on channel=9 note=54 velocity=127 time=0.0069444375
EXTRACT: note_on channel=9 note=56 velocity=127 time=0
EXTRACT: note_on channel=9 note=36 velocity=127 time=0
EXTRACT: note_on channel=9 note=42 velocity=127 time=0
EXTRACT: note_on channel=10 note=63 velocity=127 time=0
EXTRACT: note_on channel=10 note=63 velocity=127 time=0
EXTRACT: note_on channel=10 note=63 velocity=127 time=0
EXTRACT: note_on channel=9 note=54 velocity=0 time=0.1319443125
EXTRACT: note_on channel=9 note=56 velocity=0 time=0
EXTRACT: note_on channel=9 note=36 velocity=0 time=0
EXTRACT: note_on channel=9 note=42 velocity=0 time=0
EXTRACT: note_on channel=9 note=54 velocity=127 time=0.0069444375
EXTRACT: note_on channel=9 note=42 velocity=127 time=0
EXTRACT: note_on channel=11 note=60 velocity=0 time=0
EXTRACT: note_on channel=11 note=63 velocity=0 time=0
EXTRACT: note_on channel=11 note=68 velocity=0 time=0
EXTRACT: note_on channel=13 note=60 velocity=0 time=0
EXTRACT: note_on channel=13 note=63 velocity=0 time=0
EXTRACT: note_on channel=13 note=68 velocity=0 time=0
EXTRACT: note_on channel=12 note=44 velocity=0 time=0.04629625
EXTRACT: note_on channel=14 note=44 velocity=0 time=0
EXTRACT: note_on channel=9 note=54 velocity=0 time=0.0856480625
EXTRACT: note_on channel=9 note=42 velocity=0 time=0
EXTRACT: note_on channel=10 note=63 velocity=0 time=0
EXTRACT: note_on channel=10 note=63 velocity=0 time=0
EXTRACT: note_on channel=10 note=63 velocity=0 time=0
EXTRACT: note_on channel=9 note=46 velocity=127 time=0
EXTRACT: note_on channel=9 note=54 velocity=127 time=0
EXTRACT: note_on channel=9 note=56 velocity=127 time=0
EXTRACT: note_on channel=9 note=36 velocity=127 time=0
EXTRACT: note_on channel=10 note=62 velocity=127 time=0
EXTRACT: note_on channel=11 note=59 velocity=127 time=0
EXTRACT: note_on channel=11 note=62 velocity=127 time=0
EXTRACT: note_on channel=11 note=67 velocity=127 time=0
EXTRACT: note_on channel=12 note=43 velocity=127 time=0
EXTRACT: note_on channel=13 note=59 velocity=127 time=0
EXTRACT: note_on channel=13 note=62 velocity=127 time=0
EXTRACT: note_on channel=13 note=67 velocity=127 time=0
EXTRACT: note_on channel=14 note=43 velocity=127 time=0
EXTRACT: note_on channel=10 note=62 velocity=127 time=0
EXTRACT: note_on channel=10 note=62 velocity=127 time=0
EXTRACT: note_on channel=9 note=46 velocity=0 time=0.1319443125
EXTRACT: note_on channel=9 note=54 velocity=0 time=0
EXTRACT: note_on channel=9 note=56 velocity=0 time=0
EXTRACT: note_on channel=9 note=36 velocity=0 time=0
EXTRACT: note_on channel=9 note=54 velocity=127 time=0.0069444375
EXTRACT: note_on channel=9 note=42 velocity=127 time=0
EXTRACT: note_on channel=9 note=54 velocity=0 time=0.1319443125
EXTRACT: note_on channel=9 note=46 velocity=127 time=0.0069444375
EXTRACT: note_on channel=9 note=54 velocity=127 time=0
EXTRACT: note_on channel=9 note=56 velocity=127 time=0
EXTRACT: note_on channel=9 note=46 velocity=0 time=0.1319443125
EXTRACT: note_on channel=9 note=54 velocity=0 time=0
EXTRACT: note_on channel=9 note=56 velocity=0 time=0
EXTRACT: note_on channel=9 note=42 velocity=0 time=0
EXTRACT: note_on channel=10 note=62 velocity=0 time=0
EXTRACT: note_on channel=11 note=59 velocity=0 time=0
EXTRACT: note_on channel=11 note=62 velocity=0 time=0
EXTRACT: note_on channel=11 note=67 velocity=0 time=0
EXTRACT: note_on channel=13 note=59 velocity=0 time=0
EXTRACT: note_on channel=13 note=62 velocity=0 time=0
EXTRACT: note_on channel=13 note=67 velocity=0 time=0
EXTRACT: note_on channel=10 note=62 velocity=0 time=0
EXTRACT: note_on channel=10 note=62 velocity=0 time=0
EXTRACT: note_on channel=9 note=54 velocity=127 time=0.0069444375
EXTRACT: note_on channel=9 note=42 velocity=127 time=0
EXTRACT: note_on channel=10 note=65 velocity=127 time=0
EXTRACT: note_on channel=11 note=59 velocity=127 time=0
EXTRACT: note_on channel=11 note=62 velocity=127 time=0
EXTRACT: note_on channel=11 note=67 velocity=127 time=0
EXTRACT: note_on channel=13 note=59 velocity=127 time=0
EXTRACT: note_on channel=13 note=62 velocity=127 time=0
EXTRACT: note_on channel=13 note=67 velocity=127 time=0
EXTRACT: note_on channel=10 note=65 velocity=127 time=0
EXTRACT: note_on channel=10 note=65 velocity=127 time=0
EXTRACT: note_on channel=12 note=43 velocity=0 time=0.04629625
EXTRACT: note_on channel=14 note=43 velocity=0 time=0
EXTRACT: note_on channel=9 note=54 velocity=0 time=0.0856480625
EXTRACT: note_on channel=9 note=42 velocity=0 time=0
EXTRACT: note_on channel=9 note=54 velocity=127 time=0.0069444375
EXTRACT: note_on channel=9 note=56 velocity=127 time=0
EXTRACT: note_on channel=9 note=39 velocity=127 time=0
EXTRACT: note_on channel=9 note=42 velocity=127 time=0
EXTRACT: note_on channel=12 note=43 velocity=127 time=0
EXTRACT: note_on channel=14 note=43 velocity=127 time=0
EXTRACT: note_on channel=9 note=39 velocity=0 time=0.1319443125
EXTRACT: note_on channel=9 note=42 velocity=0 time=0
EXTRACT: note_on channel=9 note=42 velocity=127 time=0.0069444375
EXTRACT: note_on channel=9 note=54 velocity=0 time=0.1319443125
EXTRACT: note_on channel=9 note=56 velocity=0 time=0
EXTRACT: note_on channel=9 note=42 velocity=0 time=0
EXTRACT: note_on channel=10 note=65 velocity=0 time=0
EXTRACT: note_on channel=11 note=59 velocity=0 time=0
EXTRACT: note_on channel=11 note=62 velocity=0 time=0
EXTRACT: note_on channel=11 note=67 velocity=0 time=0
EXTRACT: note_on channel=12 note=43 velocity=0 time=0
EXTRACT: note_on channel=13 note=59 velocity=0 time=0
EXTRACT: note_on channel=13 note=62 velocity=0 time=0
EXTRACT: note_on channel=13 note=67 velocity=0 time=0
EXTRACT: note_on channel=14 note=43 velocity=0 time=0
EXTRACT: note_on channel=10 note=65 velocity=0 time=0
EXTRACT: note_on channel=10 note=65 velocity=0 time=0
EXTRACT: note_on channel=9 note=54 velocity=127 time=0.0069444375
EXTRACT: note_on channel=9 note=36 velocity=127 time=0
EXTRACT: note_on channel=9 note=42 velocity=127 time=0
EXTRACT: note_on channel=10 note=63 velocity=127 time=0
EXTRACT: note_on channel=11 note=60 velocity=127 time=0
EXTRACT: note_on channel=11 note=63 velocity=127 time=0
EXTRACT: note_on channel=11 note=67 velocity=127 time=0
EXTRACT: note_on channel=12 note=47 velocity=127 time=0
EXTRACT: note_on channel=13 note=60 velocity=127 time=0
EXTRACT: note_on channel=13 note=63 velocity=127 time=0
EXTRACT: note_on channel=13 note=67 velocity=127 time=0
EXTRACT: note_on channel=14 note=47 velocity=127 time=0
EXTRACT: note_on channel=10 note=63 velocity=127 time=0
EXTRACT: note_on channel=10 note=63 velocity=127 time=0
EXTRACT: note_on channel=9 note=54 velocity=0 time=0.1319443125
EXTRACT: note_on channel=9 note=36 velocity=0 time=0
EXTRACT: note_on channel=9 note=42 velocity=0 time=0
EXTRACT: note_on channel=9 note=54 velocity=127 time=0.0069444375
EXTRACT: note_on channel=9 note=56 velocity=127 time=0
EXTRACT: note_on channel=9 note=42 velocity=127 time=0
EXTRACT: note_on channel=9 note=54 velocity=0 time=0.1319443125
EXTRACT: note_on channel=9 note=56 velocity=0 time=0
EXTRACT: note_on channel=9 note=42 velocity=0 time=0
EXTRACT: note_on channel=12 note=47 velocity=0 time=0
EXTRACT: note_on channel=14 note=47 velocity=0 time=0
EXTRACT: note_on channel=9 note=54 velocity=127 time=0.0069444375
EXTRACT: note_on channel=9 note=42 velocity=127 time=0
EXTRACT: note_on channel=12 note=48 velocity=127 time=0
EXTRACT: note_on channel=14 note=48 velocity=127 time=0
EXTRACT: note_on channel=9 note=54 velocity=0 time=0.1319443125
EXTRACT: note_on channel=9 note=42 velocity=0 time=0
EXTRACT: note_on channel=9 note=46 velocity=127 time=0.0069444375
EXTRACT: note_on channel=9 note=54 velocity=127 time=0
EXTRACT: note_on channel=9 note=56 velocity=127 time=0
EXTRACT: note_on channel=9 note=36 velocity=127 time=0
EXTRACT: note_on channel=9 note=46 velocity=0 time=0.1319443125
EXTRACT: note_on channel=9 note=54 velocity=0 time=0
EXTRACT: note_on channel=9 note=56 velocity=0 time=0
EXTRACT: note_on channel=9 note=36 velocity=0 time=0
EXTRACT: note_on channel=12 note=48 velocity=0 time=0
EXTRACT: note_on channel=14 note=48 velocity=0 time=0
EXTRACT: note_on channel=9 note=54 velocity=127 time=0.0069444375
EXTRACT: note_on channel=9 note=56 velocity=127 time=0
EXTRACT: note_on channel=9 note=36 velocity=127 time=0
EXTRACT: note_on channel=9 note=42 velocity=127 time=0
EXTRACT: note_on channel=12 note=48 velocity=127 time=0
EXTRACT: note_on channel=14 note=48 velocity=127 time=0
EXTRACT: note_on channel=9 note=54 velocity=0 time=0.1319443125
EXTRACT: note_on channel=9 note=56 velocity=0 time=0
EXTRACT: note_on channel=9 note=36 velocity=0 time=0
EXTRACT: note_on channel=9 note=42 velocity=0 time=0
EXTRACT: note_on channel=9 note=56 velocity=127 time=0.0069444375
EXTRACT: note_on channel=9 note=36 velocity=127 time=0
EXTRACT: note_on channel=9 note=42 velocity=127 time=0
EXTRACT: note_on channel=10 note=63 velocity=0 time=0.04629625
EXTRACT: note_on channel=10 note=63 velocity=0 time=0
EXTRACT: note_on channel=10 note=63 velocity=0 time=0
EXTRACT: note_on channel=9 note=56 velocity=0 time=0.0856480625
EXTRACT: note_on channel=9 note=36 velocity=0 time=0
EXTRACT: note_on channel=9 note=42 velocity=0 time=0
EXTRACT: note_on channel=9 note=46 velocity=127 time=0.0069444375
EXTRACT: note_on channel=9 note=54 velocity=127 time=0
EXTRACT: note_on channel=9 note=56 velocity=127 time=0
EXTRACT: note_on channel=9 note=39 velocity=127 time=0
EXTRACT: note_on channel=9 note=46 velocity=0 time=0.1319443125
EXTRACT: note_on channel=9 note=54 velocity=0 time=0
EXTRACT: note_on channel=9 note=56 velocity=0 time=0
EXTRACT: note_on channel=9 note=39 velocity=0 time=0
EXTRACT: note_on channel=9 note=54 velocity=127 time=0.0069444375
EXTRACT: note_on channel=9 note=42 velocity=127 time=0
EXTRACT: note_on channel=9 note=54 velocity=0 time=0.1319443125
EXTRACT: note_on channel=9 note=42 velocity=0 time=0
EXTRACT: note_on channel=9 note=54 velocity=127 time=0.0069444375
EXTRACT: note_on channel=9 note=56 velocity=127 time=0
EXTRACT: note_on channel=9 note=36 velocity=127 time=0
EXTRACT: note_on channel=9 note=42 velocity=127 time=0
EXTRACT: note_on channel=9 note=54 velocity=0 time=0.1319443125
EXTRACT: note_on channel=9 note=56 velocity=0 time=0
EXTRACT: note_on channel=9 note=36 velocity=0 time=0
EXTRACT: note_on channel=9 note=42 velocity=0 time=0
EXTRACT: note_on channel=9 note=54 velocity=127 time=0.0069444375
EXTRACT: note_on channel=9 note=42 velocity=127 time=0
EXTRACT: note_on channel=11 note=60 velocity=0 time=0
EXTRACT: note_on channel=11 note=63 velocity=0 time=0
EXTRACT: note_on channel=11 note=67 velocity=0 time=0
EXTRACT: note_on channel=13 note=60 velocity=0 time=0
EXTRACT: note_on channel=13 note=63 velocity=0 time=0
EXTRACT: note_on channel=13 note=67 velocity=0 time=0
EXTRACT: note_on channel=12 note=48 velocity=0 time=0.04629625
EXTRACT: note_on channel=14 note=48 velocity=0 time=0
EXTRACT: note_on channel=9 note=54 velocity=0 time=0.0856480625
EXTRACT: note_on channel=9 note=42 velocity=0 time=0
EXTRACT: note_on channel=9 note=46 velocity=127 time=0
EXTRACT: note_on channel=9 note=54 velocity=127 time=0
EXTRACT: note_on channel=9 note=56 velocity=127 time=0
EXTRACT: note_on channel=9 note=36 velocity=127 time=0
EXTRACT: note_on channel=11 note=60 velocity=127 time=0
EXTRACT: note_on channel=11 note=63 velocity=127 time=0
EXTRACT: note_on channel=11 note=67 velocity=127 time=0
EXTRACT: note_on channel=12 note=48 velocity=127 time=0
EXTRACT: note_on channel=13 note=60 velocity=127 time=0
EXTRACT: note_on channel=13 note=63 velocity=127 time=0
EXTRACT: note_on channel=13 note=67 velocity=127 time=0
EXTRACT: note_on channel=14 note=48 velocity=127 time=0
EXTRACT: note_on channel=9 note=46 velocity=0 time=0.1319443125
EXTRACT: note_on channel=9 note=54 velocity=0 time=0
EXTRACT: note_on channel=9 note=56 velocity=0 time=0
EXTRACT: note_on channel=9 note=36 velocity=0 time=0
EXTRACT: note_on channel=9 note=54 velocity=127 time=0.0069444375
EXTRACT: note_on channel=9 note=42 velocity=127 time=0
EXTRACT: note_on channel=9 note=54 velocity=0 time=0.1319443125
EXTRACT: note_on channel=9 note=46 velocity=127 time=0.0069444375
EXTRACT: note_on channel=9 note=54 velocity=127 time=0
EXTRACT: note_on channel=9 note=56 velocity=127 time=0
EXTRACT: note_on channel=10 note=67 velocity=127 time=0
EXTRACT: note_on channel=10 note=67 velocity=127 time=0
EXTRACT: note_on channel=10 note=67 velocity=127 time=0
EXTRACT: note_on channel=9 note=46 velocity=0 time=0.1319443125
EXTRACT: note_on channel=9 note=54 velocity=0 time=0
EXTRACT: note_on channel=9 note=56 velocity=0 time=0
EXTRACT: note_on channel=9 note=42 velocity=0 time=0
EXTRACT: note_on channel=11 note=60 velocity=0 time=0
EXTRACT: note_on channel=11 note=63 velocity=0 time=0
EXTRACT: note_on channel=11 note=67 velocity=0 time=0
EXTRACT: note_on channel=13 note=60 velocity=0 time=0
EXTRACT: note_on channel=13 note=63 velocity=0 time=0
EXTRACT: note_on channel=13 note=67 velocity=0 time=0
EXTRACT: note_on channel=9 note=54 velocity=127 time=0.0069444375
EXTRACT: note_on channel=9 note=42 velocity=127 time=0
EXTRACT: note_on channel=11 note=60 velocity=127 time=0
EXTRACT: note_on channel=11 note=63 velocity=127 time=0
EXTRACT: note_on channel=11 note=67 velocity=127 time=0
EXTRACT: note_on channel=13 note=60 velocity=127 time=0
EXTRACT: note_on channel=13 note=63 velocity=127 time=0
EXTRACT: note_on channel=13 note=67 velocity=127 time=0
EXTRACT: note_on channel=12 note=48 velocity=0 time=0.04629625
EXTRACT: note_on channel=14 note=48 velocity=0 time=0
EXTRACT: note_on channel=9 note=54 velocity=0 time=0.0856480625
EXTRACT: note_on channel=9 note=42 velocity=0 time=0
EXTRACT: note_on channel=10 note=67 velocity=0 time=0
EXTRACT: note_on channel=10 note=67 velocity=0 time=0
EXTRACT: note_on channel=10 note=67 velocity=0 time=0
EXTRACT: note_on channel=9 note=54 velocity=127 time=0.0069444375
EXTRACT: note_on channel=9 note=56 velocity=127 time=0
EXTRACT: note_on channel=9 note=39 velocity=127 time=0
EXTRACT: note_on channel=9 note=42 velocity=127 time=0
EXTRACT: note_on channel=10 note=67 velocity=127 time=0
EXTRACT: note_on channel=12 note=48 velocity=127 time=0
EXTRACT: note_on channel=14 note=48 velocity=127 time=0
EXTRACT: note_on channel=10 note=67 velocity=127 time=0
EXTRACT: note_on channel=10 note=67 velocity=127 time=0
EXTRACT: note_on channel=9 note=39 velocity=0 time=0.1319443125
EXTRACT: note_on channel=9 note=42 velocity=0 time=0
EXTRACT: note_on channel=9 note=42 velocity=127 time=0.0069444375
EXTRACT: note_on channel=9 note=54 velocity=0 time=0.1319443125
EXTRACT: note_on channel=9 note=56 velocity=0 time=0
EXTRACT: note_on channel=9 note=42 velocity=0 time=0
EXTRACT: note_on channel=10 note=67 velocity=0 time=0
EXTRACT: note_on channel=11 note=60 velocity=0 time=0
EXTRACT: note_on channel=11 note=63 velocity=0 time=0
EXTRACT: note_on channel=11 note=67 velocity=0 time=0
EXTRACT: note_on channel=12 note=48 velocity=0 time=0
EXTRACT: note_on channel=13 note=60 velocity=0 time=0
EXTRACT: note_on channel=13 note=63 velocity=0 time=0
EXTRACT: note_on channel=13 note=67 velocity=0 time=0
EXTRACT: note_on channel=14 note=48 velocity=0 time=0
EXTRACT: note_on channel=10 note=67 velocity=0 time=0
EXTRACT: note_on channel=10 note=67 velocity=0 time=0
EXTRACT: note_on channel=9 note=54 velocity=127 time=0.0069444375
EXTRACT: note_on channel=9 note=36 velocity=127 time=0
EXTRACT: note_on channel=9 note=42 velocity=127 time=0
EXTRACT: note_on channel=10 note=65 velocity=127 time=0
EXTRACT: note_on channel=11 note=60 velocity=127 time=0
EXTRACT: note_on channel=11 note=63 velocity=127 time=0
EXTRACT: note_on channel=11 note=68 velocity=127 time=0
EXTRACT: note_on channel=12 note=43 velocity=127 time=0
EXTRACT: note_on channel=13 note=60 velocity=127 time=0
EXTRACT: note_on channel=13 note=63 velocity=127 time=0
EXTRACT: note_on channel=13 note=68 velocity=127 time=0
EXTRACT: note_on channel=14 note=43 velocity=127 time=0
EXTRACT: note_on channel=10 note=65 velocity=127 time=0
EXTRACT: note_on channel=10 note=65 velocity=127 time=0
EXTRACT: note_on channel=9 note=54 velocity=0 time=0.1319443125
EXTRACT: note_on channel=9 note=36 velocity=0 time=0
EXTRACT: note_on channel=9 note=42 velocity=0 time=0
EXTRACT: note_on channel=9 note=54 velocity=127 time=0.0069444375
EXTRACT: note_on channel=9 note=56 velocity=127 time=0
EXTRACT: note_on channel=9 note=42 velocity=127 time=0
EXTRACT: note_on channel=9 note=54 velocity=0 time=0.1319443125
EXTRACT: note_on channel=9 note=56 velocity=0 time=0
EXTRACT: note_on channel=9 note=42 velocity=0 time=0
EXTRACT: note_on channel=10 note=65 velocity=0 time=0
EXTRACT: note_on channel=12 note=43 velocity=0 time=0
EXTRACT: note_on channel=14 note=43 velocity=0 time=0
EXTRACT: note_on channel=10 note=65 velocity=0 time=0
EXTRACT: note_on channel=10 note=65 velocity=0 time=0
EXTRACT: note_on channel=9 note=54 velocity=127 time=0.0069444375
EXTRACT: note_on channel=9 note=42 velocity=127 time=0
EXTRACT: note_on channel=10 note=65 velocity=127 time=0
EXTRACT: note_on channel=12 note=44 velocity=127 time=0
EXTRACT: note_on channel=14 note=44 velocity=127 time=0
EXTRACT: note_on channel=10 note=65 velocity=127 time=0
EXTRACT: note_on channel=10 note=65 velocity=127 time=0
EXTRACT: note_on channel=9 note=54 velocity=0 time=0.1319443125
EXTRACT: note_on channel=9 note=42 velocity=0 time=0
EXTRACT: note_on channel=9 note=46 velocity=127 time=0.0069444375
EXTRACT: note_on channel=9 note=54 velocity=127 time=0
EXTRACT: note_on channel=9 note=56 velocity=127 time=0
EXTRACT: note_on channel=9 note=36 velocity=127 time=0
EXTRACT: note_on channel=9 note=46 velocity=0 time=0.1319443125
EXTRACT: note_on channel=9 note=54 velocity=0 time=0
EXTRACT: note_on channel=9 note=56 velocity=0 time=0
EXTRACT: note_on channel=9 note=36 velocity=0 time=0
EXTRACT: note_on channel=10 note=65 velocity=0 time=0
EXTRACT: note_on channel=12 note=44 velocity=0 time=0
EXTRACT: note_on channel=14 note=44 velocity=0 time=0
EXTRACT: note_on channel=10 note=65 velocity=0 time=0
EXTRACT: note_on channel=10 note=65 velocity=0 time=0
EXTRACT: note_on channel=9 note=54 velocity=127 time=0.0069444375
EXTRACT: note_on channel=9 note=56 velocity=127 time=0
EXTRACT: note_on channel=9 note=36 velocity=127 time=0
EXTRACT: note_on channel=9 note=42 velocity=127 time=0
EXTRACT: note_on channel=10 note=63 velocity=127 time=0
EXTRACT: note_on channel=12 note=44 velocity=127 time=0
EXTRACT: note_on channel=14 note=44 velocity=127 time=0
EXTRACT: note_on channel=10 note=63 velocity=127 time=0
EXTRACT: note_on channel=10 note=63 velocity=127 time=0
EXTRACT: note_on channel=9 note=54 velocity=0 time=0.1319443125
EXTRACT: note_on channel=9 note=56 velocity=0 time=0
EXTRACT: note_on channel=9 note=36 velocity=0 time=0
EXTRACT: note_on channel=9 note=42 velocity=0 time=0
EXTRACT: note_on channel=9 note=56 velocity=127 time=0.0069444375
EXTRACT: note_on channel=9 note=36 velocity=127 time=0
EXTRACT: note_on channel=9 note=42 velocity=127 time=0
EXTRACT: note_on channel=9 note=56 velocity=0 time=0.1319443125
EXTRACT: note_on channel=9 note=36 velocity=0 time=0
EXTRACT: note_on channel=9 note=42 velocity=0 time=0
EXTRACT: note_on channel=10 note=63 velocity=0 time=0
EXTRACT: note_on channel=10 note=63 velocity=0 time=0
EXTRACT: note_on channel=10 note=63 velocity=0 time=0
EXTRACT: note_on channel=9 note=46 velocity=127 time=0.0069444375
EXTRACT: note_on channel=9 note=54 velocity=127 time=0
EXTRACT: note_on channel=9 note=56 velocity=127 time=0
EXTRACT: note_on channel=9 note=39 velocity=127 time=0
EXTRACT: note_on channel=9 note=46 velocity=0 time=0.1319443125
EXTRACT: note_on channel=9 note=54 velocity=0 time=0
EXTRACT: note_on channel=9 note=56 velocity=0 time=0
EXTRACT: note_on channel=9 note=39 velocity=0 time=0
EXTRACT: note_on channel=9 note=54 velocity=127 time=0.0069444375
EXTRACT: note_on channel=9 note=42 velocity=127 time=0
EXTRACT: note_on channel=9 note=54 velocity=0 time=0.1319443125
EXTRACT: note_on channel=9 note=42 velocity=0 time=0
EXTRACT: note_on channel=9 note=54 velocity=127 time=0.0069444375
EXTRACT: note_on channel=9 note=56 velocity=127 time=0
EXTRACT: note_on channel=9 note=36 velocity=127 time=0
EXTRACT: note_on channel=9 note=42 velocity=127 time=0
EXTRACT: note_on channel=10 note=60 velocity=127 time=0
EXTRACT: note_on channel=10 note=60 velocity=127 time=0
EXTRACT: note_on channel=10 note=60 velocity=127 time=0
EXTRACT: note_on channel=9 note=54 velocity=0 time=0.1319443125
EXTRACT: note_on channel=9 note=56 velocity=0 time=0
EXTRACT: note_on channel=9 note=36 velocity=0 time=0
EXTRACT: note_on channel=9 note=42 velocity=0 time=0
EXTRACT: note_on channel=9 note=54 velocity=127 time=0.0069444375
EXTRACT: note_on channel=9 note=42 velocity=127 time=0
EXTRACT: note_on channel=11 note=60 velocity=0 time=0
EXTRACT: note_on channel=11 note=63 velocity=0 time=0
EXTRACT: note_on channel=11 note=68 velocity=0 time=0
EXTRACT: note_on channel=13 note=60 velocity=0 time=0
EXTRACT: note_on channel=13 note=63 velocity=0 time=0
EXTRACT: note_on channel=13 note=68 velocity=0 time=0
EXTRACT: note_on channel=12 note=44 velocity=0 time=0.04629625
EXTRACT: note_on channel=14 note=44 velocity=0 time=0
EXTRACT: note_on channel=9 note=54 velocity=0 time=0.0856480625
EXTRACT: note_on channel=9 note=42 velocity=0 time=0
EXTRACT: note_on channel=10 note=60 velocity=0 time=0
EXTRACT: note_on channel=10 note=60 velocity=0 time=0
EXTRACT: note_on channel=10 note=60 velocity=0 time=0
EXTRACT: note_on channel=9 note=46 velocity=127 time=0
EXTRACT: note_on channel=9 note=54 velocity=127 time=0
EXTRACT: note_on channel=9 note=56 velocity=127 time=0
EXTRACT: note_on channel=9 note=36 velocity=127 time=0
EXTRACT: note_on channel=10 note=59 velocity=127 time=0
EXTRACT: note_on channel=11 note=59 velocity=127 time=0
EXTRACT: note_on channel=11 note=62 velocity=127 time=0
EXTRACT: note_on channel=11 note=67 velocity=127 time=0
EXTRACT: note_on channel=12 note=43 velocity=127 time=0
EXTRACT: note_on channel=13 note=59 velocity=127 time=0
EXTRACT: note_on channel=13 note=62 velocity=127 time=0
EXTRACT: note_on channel=13 note=67 velocity=127 time=0
EXTRACT: note_on channel=14 note=43 velocity=127 time=0
EXTRACT: note_on channel=10 note=59 velocity=127 time=0
EXTRACT: note_on channel=10 note=59 velocity=127 time=0
EXTRACT: note_on channel=9 note=46 velocity=0 time=0.1319443125
EXTRACT: note_on channel=9 note=54 velocity=0 time=0
EXTRACT: note_on channel=9 note=56 velocity=0 time=0
EXTRACT: note_on channel=9 note=36 velocity=0 time=0
EXTRACT: note_on channel=9 note=54 velocity=127 time=0.0069444375
EXTRACT: note_on channel=9 note=42 velocity=127 time=0
EXTRACT: note_on channel=9 note=54 velocity=0 time=0.1319443125
EXTRACT: note_on channel=9 note=46 velocity=127 time=0.0069444375
EXTRACT: note_on channel=9 note=54 velocity=127 time=0
EXTRACT: note_on channel=9 note=56 velocity=127 time=0
EXTRACT: note_on channel=9 note=46 velocity=0 time=0.1319443125
EXTRACT: note_on channel=9 note=54 velocity=0 time=0
EXTRACT: note_on channel=9 note=56 velocity=0 time=0
EXTRACT: note_on channel=9 note=42 velocity=0 time=0
EXTRACT: note_on channel=10 note=59 velocity=0 time=0
EXTRACT: note_on channel=11 note=59 velocity=0 time=0
EXTRACT: note_on channel=11 note=62 velocity=0 time=0
EXTRACT: note_on channel=11 note=67 velocity=0 time=0
EXTRACT: note_on channel=13 note=59 velocity=0 time=0
EXTRACT: note_on channel=13 note=62 velocity=0 time=0
EXTRACT: note_on channel=13 note=67 velocity=0 time=0
EXTRACT: note_on channel=10 note=59 velocity=0 time=0
EXTRACT: note_on channel=10 note=59 velocity=0 time=0
EXTRACT: note_on channel=9 note=54 velocity=127 time=0.0069444375
EXTRACT: note_on channel=9 note=42 velocity=127 time=0
EXTRACT: note_on channel=10 note=65 velocity=127 time=0
EXTRACT: note_on channel=11 note=59 velocity=127 time=0
EXTRACT: note_on channel=11 note=62 velocity=127 time=0
EXTRACT: note_on channel=11 note=67 velocity=127 time=0
EXTRACT: note_on channel=13 note=59 velocity=127 time=0
EXTRACT: note_on channel=13 note=62 velocity=127 time=0
EXTRACT: note_on channel=13 note=67 velocity=127 time=0
EXTRACT: note_on channel=10 note=65 velocity=127 time=0
EXTRACT: note_on channel=10 note=65 velocity=127 time=0
EXTRACT: note_on channel=12 note=43 velocity=0 time=0.04629625
EXTRACT: note_on channel=14 note=43 velocity=0 time=0
EXTRACT: note_on channel=9 note=54 velocity=0 time=0.0856480625
EXTRACT: note_on channel=9 note=42 velocity=0 time=0
EXTRACT: note_on channel=9 note=54 velocity=127 time=0.0069444375
EXTRACT: note_on channel=9 note=56 velocity=127 time=0
EXTRACT: note_on channel=9 note=39 velocity=127 time=0
EXTRACT: note_on channel=9 note=42 velocity=127 time=0
EXTRACT: note_on channel=12 note=43 velocity=127 time=0
EXTRACT: note_on channel=14 note=43 velocity=127 time=0
EXTRACT: note_on channel=9 note=39 velocity=0 time=0.1319443125
EXTRACT: note_on channel=9 note=42 velocity=0 time=0
EXTRACT: note_on channel=9 note=42 velocity=127 time=0.0069444375
EXTRACT: note_on channel=9 note=54 velocity=0 time=0.1319443125
EXTRACT: note_on channel=9 note=56 velocity=0 time=0
EXTRACT: note_on channel=9 note=42 velocity=0 time=0
EXTRACT: note_on channel=10 note=65 velocity=0 time=0
EXTRACT: note_on channel=11 note=59 velocity=0 time=0
EXTRACT: note_on channel=11 note=62 velocity=0 time=0
EXTRACT: note_on channel=11 note=67 velocity=0 time=0
EXTRACT: note_on channel=12 note=43 velocity=0 time=0
EXTRACT: note_on channel=13 note=59 velocity=0 time=0
EXTRACT: note_on channel=13 note=62 velocity=0 time=0
EXTRACT: note_on channel=13 note=67 velocity=0 time=0
EXTRACT: note_on channel=14 note=43 velocity=0 time=0
EXTRACT: note_on channel=10 note=65 velocity=0 time=0
EXTRACT: note_on channel=10 note=65 velocity=0 time=0
EXTRACT: note_on channel=9 note=54 velocity=127 time=0.0069444375
EXTRACT: note_on channel=9 note=36 velocity=127 time=0
EXTRACT: note_on channel=9 note=42 velocity=127 time=0
EXTRACT: note_on channel=10 note=63 velocity=127 time=0
EXTRACT: note_on channel=11 note=60 velocity=127 time=0
EXTRACT: note_on channel=11 note=63 velocity=127 time=0
EXTRACT: note_on channel=11 note=67 velocity=127 time=0
EXTRACT: note_on channel=12 note=47 velocity=127 time=0
EXTRACT: note_on channel=13 note=60 velocity=127 time=0
EXTRACT: note_on channel=13 note=63 velocity=127 time=0
EXTRACT: note_on channel=13 note=67 velocity=127 time=0
EXTRACT: note_on channel=14 note=47 velocity=127 time=0
EXTRACT: note_on channel=10 note=63 velocity=127 time=0
EXTRACT: note_on channel=10 note=63 velocity=127 time=0
EXTRACT: note_on channel=9 note=54 velocity=0 time=0.1319443125
EXTRACT: note_on channel=9 note=36 velocity=0 time=0
EXTRACT: note_on channel=9 note=42 velocity=0 time=0
EXTRACT: note_on channel=9 note=54 velocity=127 time=0.0069444375
EXTRACT: note_on channel=9 note=56 velocity=127 time=0
EXTRACT: note_on channel=9 note=42 velocity=127 time=0
EXTRACT: note_on channel=9 note=54 velocity=0 time=0.1319443125
EXTRACT: note_on channel=9 note=56 velocity=0 time=0
EXTRACT: note_on channel=9 note=42 velocity=0 time=0
EXTRACT: note_on channel=12 note=47 velocity=0 time=0
EXTRACT: note_on channel=14 note=47 velocity=0 time=0
EXTRACT: note_on channel=9 note=54 velocity=127 time=0.0069444375
EXTRACT: note_on channel=9 note=42 velocity=127 time=0
EXTRACT: note_on channel=12 note=48 velocity=127 time=0
EXTRACT: note_on channel=14 note=48 velocity=127 time=0
EXTRACT: note_on channel=9 note=54 velocity=0 time=0.1319443125
EXTRACT: note_on channel=9 note=42 velocity=0 time=0
EXTRACT: note_on channel=9 note=46 velocity=127 time=0.0069444375
EXTRACT: note_on channel=9 note=54 velocity=127 time=0
EXTRACT: note_on channel=9 note=56 velocity=127 time=0
EXTRACT: note_on channel=9 note=36 velocity=127 time=0
EXTRACT: note_on channel=9 note=46 velocity=0 time=0.1319443125
EXTRACT: note_on channel=9 note=54 velocity=0 time=0
EXTRACT: note_on channel=9 note=56 velocity=0 time=0
EXTRACT: note_on channel=9 note=36 velocity=0 time=0
EXTRACT: note_on channel=10 note=63 velocity=0 time=0
EXTRACT: note_on channel=12 note=48 velocity=0 time=0
EXTRACT: note_on channel=14 note=48 velocity=0 time=0
EXTRACT: note_on channel=10 note=63 velocity=0 time=0
EXTRACT: note_on channel=10 note=63 velocity=0 time=0
EXTRACT: note_on channel=9 note=54 velocity=127 time=0.0069444375
EXTRACT: note_on channel=9 note=56 velocity=127 time=0
EXTRACT: note_on channel=9 note=36 velocity=127 time=0
EXTRACT: note_on channel=9 note=42 velocity=127 time=0
EXTRACT: note_on channel=10 note=60 velocity=127 time=0
EXTRACT: note_on channel=12 note=48 velocity=127 time=0
EXTRACT: note_on channel=14 note=48 velocity=127 time=0
EXTRACT: note_on channel=10 note=60 velocity=127 time=0
EXTRACT: note_on channel=10 note=60 velocity=127 time=0
EXTRACT: note_on channel=9 note=54 velocity=0 time=0.1319443125
EXTRACT: note_on channel=9 note=56 velocity=0 time=0
EXTRACT: note_on channel=9 note=36 velocity=0 time=0
EXTRACT: note_on channel=9 note=42 velocity=0 time=0
EXTRACT: note_on channel=9 note=56 velocity=127 time=0.0069444375
EXTRACT: note_on channel=9 note=36 velocity=127 time=0
EXTRACT: note_on channel=9 note=42 velocity=127 time=0
EXTRACT: note_on channel=9 note=56 velocity=0 time=0.1319443125
EXTRACT: note_on channel=9 note=36 velocity=0 time=0
EXTRACT: note_on channel=9 note=42 velocity=0 time=0
EXTRACT: note_on channel=10 note=60 velocity=0 time=0
EXTRACT: note_on channel=10 note=60 velocity=0 time=0
EXTRACT: note_on channel=10 note=60 velocity=0 time=0
EXTRACT: note_on channel=9 note=46 velocity=127 time=0.0069444375
EXTRACT: note_on channel=9 note=54 velocity=127 time=0
EXTRACT: note_on channel=9 note=56 velocity=127 time=0
EXTRACT: note_on channel=9 note=39 velocity=127 time=0
EXTRACT: note_on channel=10 note=63 velocity=127 time=0
EXTRACT: note_on channel=10 note=63 velocity=127 time=0
EXTRACT: note_on channel=10 note=63 velocity=127 time=0
EXTRACT: note_on channel=9 note=46 velocity=0 time=0.1319443125
EXTRACT: note_on channel=9 note=54 velocity=0 time=0
EXTRACT: note_on channel=9 note=56 velocity=0 time=0
EXTRACT: note_on channel=9 note=39 velocity=0 time=0
EXTRACT: note_on channel=9 note=54 velocity=127 time=0.0069444375
EXTRACT: note_on channel=9 note=42 velocity=127 time=0
EXTRACT: note_on channel=9 note=54 velocity=0 time=0.1319443125
EXTRACT: note_on channel=9 note=42 velocity=0 time=0
EXTRACT: note_on channel=10 note=63 velocity=0 time=0
EXTRACT: note_on channel=10 note=63 velocity=0 time=0
EXTRACT: note_on channel=10 note=63 velocity=0 time=0
EXTRACT: note_on channel=9 note=54 velocity=127 time=0.0069444375
EXTRACT: note_on channel=9 note=56 velocity=127 time=0
EXTRACT: note_on channel=9 note=36 velocity=127 time=0
EXTRACT: note_on channel=9 note=42 velocity=127 time=0
EXTRACT: note_on channel=10 note=65 velocity=127 time=0
EXTRACT: note_on channel=10 note=65 velocity=127 time=0
EXTRACT: note_on channel=10 note=65 velocity=127 time=0
EXTRACT: note_on channel=9 note=54 velocity=0 time=0.1319443125
EXTRACT: note_on channel=9 note=56 velocity=0 time=0
EXTRACT: note_on channel=9 note=36 velocity=0 time=0
EXTRACT: note_on channel=9 note=42 velocity=0 time=0
EXTRACT: note_on channel=9 note=54 velocity=127 time=0.0069444375
EXTRACT: note_on channel=9 note=42 velocity=127 time=0
EXTRACT: note_on channel=11 note=60 velocity=0 time=0
EXTRACT: note_on channel=11 note=63 velocity=0 time=0
EXTRACT: note_on channel=11 note=67 velocity=0 time=0
EXTRACT: note_on channel=13 note=60 velocity=0 time=0
EXTRACT: note_on channel=13 note=63 velocity=0 time=0
EXTRACT: note_on channel=13 note=67 velocity=0 time=0
EXTRACT: note_on channel=12 note=48 velocity=0 time=0.04629625
EXTRACT: note_on channel=14 note=48 velocity=0 time=0
EXTRACT: note_on channel=9 note=54 velocity=0 time=0.0856480625
EXTRACT: note_on channel=9 note=42 velocity=0 time=0
EXTRACT: note_on channel=10 note=65 velocity=0 time=0
EXTRACT: note_on channel=10 note=65 velocity=0 time=0
EXTRACT: note_on channel=10 note=65 velocity=0 time=0
EXTRACT: note_on channel=9 note=46 velocity=127 time=0
EXTRACT: note_on channel=9 note=54 velocity=127 time=0
EXTRACT: note_on channel=9 note=56 velocity=127 time=0
EXTRACT: note_on channel=9 note=36 velocity=127 time=0
EXTRACT: note_on channel=10 note=67 velocity=127 time=0
EXTRACT: note_on channel=11 note=60 velocity=127 time=0
EXTRACT: note_on channel=11 note=63 velocity=127 time=0
EXTRACT: note_on channel=11 note=67 velocity=127 time=0
EXTRACT: note_on channel=12 note=48 velocity=127 time=0
EXTRACT: note_on channel=13 note=60 velocity=127 time=0
EXTRACT: note_on channel=13 note=63 velocity=127 time=0
EXTRACT: note_on channel=13 note=67 velocity=127 time=0
EXTRACT: note_on channel=14 note=48 velocity=127 time=0
EXTRACT: note_on channel=10 note=67 velocity=127 time=0
EXTRACT: note_on channel=10 note=67 velocity=127 time=0
EXTRACT: note_on channel=9 note=46 velocity=0 time=0.1319443125
EXTRACT: note_on channel=9 note=54 velocity=0 time=0
EXTRACT: note_on channel=9 note=56 velocity=0 time=0
EXTRACT: note_on channel=9 note=36 velocity=0 time=0
EXTRACT: note_on channel=9 note=54 velocity=127 time=0.0069444375
EXTRACT: note_on channel=9 note=42 velocity=127 time=0
EXTRACT: note_on channel=9 note=54 velocity=0 time=0.1319443125
EXTRACT: note_on channel=9 note=46 velocity=127 time=0.0069444375
EXTRACT: note_on channel=9 note=54 velocity=127 time=0
EXTRACT: note_on channel=9 note=56 velocity=127 time=0
EXTRACT: note_on channel=9 note=46 velocity=0 time=0.1319443125
EXTRACT: note_on channel=9 note=54 velocity=0 time=0
EXTRACT: note_on channel=9 note=56 velocity=0 time=0
EXTRACT: note_on channel=9 note=42 velocity=0 time=0
EXTRACT: note_on channel=11 note=60 velocity=0 time=0
EXTRACT: note_on channel=11 note=63 velocity=0 time=0
EXTRACT: note_on channel=11 note=67 velocity=0 time=0
EXTRACT: note_on channel=13 note=60 velocity=0 time=0
EXTRACT: note_on channel=13 note=63 velocity=0 time=0
EXTRACT: note_on channel=13 note=67 velocity=0 time=0
EXTRACT: note_on channel=9 note=54 velocity=127 time=0.0069444375
EXTRACT: note_on channel=9 note=42 velocity=127 time=0
EXTRACT: note_on channel=11 note=60 velocity=127 time=0
EXTRACT: note_on channel=11 note=63 velocity=127 time=0
EXTRACT: note_on channel=11 note=67 velocity=127 time=0
EXTRACT: note_on channel=13 note=60 velocity=127 time=0
EXTRACT: note_on channel=13 note=63 velocity=127 time=0
EXTRACT: note_on channel=13 note=67 velocity=127 time=0
EXTRACT: note_on channel=12 note=48 velocity=0 time=0.04629625
EXTRACT: note_on channel=14 note=48 velocity=0 time=0
EXTRACT: note_on channel=9 note=54 velocity=0 time=0.0856480625
EXTRACT: note_on channel=9 note=42 velocity=0 time=0
EXTRACT: note_on channel=9 note=54 velocity=127 time=0.0069444375
EXTRACT: note_on channel=9 note=56 velocity=127 time=0
EXTRACT: note_on channel=9 note=39 velocity=127 time=0
EXTRACT: note_on channel=9 note=42 velocity=127 time=0
EXTRACT: note_on channel=12 note=48 velocity=127 time=0
EXTRACT: note_on channel=14 note=48 velocity=127 time=0
EXTRACT: note_on channel=9 note=39 velocity=0 time=0.1319443125
EXTRACT: note_on channel=9 note=42 velocity=0 time=0
EXTRACT: note_on channel=9 note=42 velocity=127 time=0.0069444375
EXTRACT: note_on channel=10 note=67 velocity=0 time=0.04629625
EXTRACT: note_on channel=10 note=67 velocity=0 time=0
EXTRACT: note_on channel=10 note=67 velocity=0 time=0
EXTRACT: note_on channel=9 note=54 velocity=0 time=0.0856480625
EXTRACT: note_on channel=9 note=56 velocity=0 time=0
EXTRACT: note_on channel=9 note=42 velocity=0 time=0
EXTRACT: note_on channel=11 note=60 velocity=0 time=0
EXTRACT: note_on channel=11 note=63 velocity=0 time=0
EXTRACT: note_on channel=11 note=67 velocity=0 time=0
EXTRACT: note_on channel=12 note=48 velocity=0 time=0
EXTRACT: note_on channel=13 note=60 velocity=0 time=0
EXTRACT: note_on channel=13 note=63 velocity=0 time=0
EXTRACT: note_on channel=13 note=67 velocity=0 time=0
EXTRACT: note_on channel=14 note=48 velocity=0 time=0
EXTRACT: note_on channel=9 note=54 velocity=127 time=0.0069444375
EXTRACT: note_on channel=9 note=36 velocity=127 time=0
EXTRACT: note_on channel=9 note=42 velocity=127 time=0
EXTRACT: note_on channel=10 note=68 velocity=127 time=0
EXTRACT: note_on channel=11 note=60 velocity=127 time=0
EXTRACT: note_on channel=11 note=63 velocity=127 time=0
EXTRACT: note_on channel=11 note=68 velocity=127 time=0
EXTRACT: note_on channel=12 note=43 velocity=127 time=0
EXTRACT: note_on channel=13 note=60 velocity=127 time=0
EXTRACT: note_on channel=13 note=63 velocity=127 time=0
EXTRACT: note_on channel=13 note=68 velocity=127 time=0
EXTRACT: note_on channel=14 note=43 velocity=127 time=0
EXTRACT: note_on channel=10 note=68 velocity=127 time=0
EXTRACT: note_on channel=10 note=68 velocity=127 time=0
EXTRACT: note_on channel=9 note=54 velocity=0 time=0.1319443125
EXTRACT: note_on channel=9 note=36 velocity=0 time=0
EXTRACT: note_on channel=9 note=42 velocity=0 time=0
EXTRACT: note_on channel=9 note=54 velocity=127 time=0.0069444375
EXTRACT: note_on channel=9 note=56 velocity=127 time=0
EXTRACT: note_on channel=9 note=42 velocity=127 time=0
EXTRACT: note_on channel=9 note=54 velocity=0 time=0.1319443125
EXTRACT: note_on channel=9 note=56 velocity=0 time=0
EXTRACT: note_on channel=9 note=42 velocity=0 time=0
EXTRACT: note_on channel=12 note=43 velocity=0 time=0
EXTRACT: note_on channel=14 note=43 velocity=0 time=0
EXTRACT: note_on channel=9 note=54 velocity=127 time=0.0069444375
EXTRACT: note_on channel=9 note=42 velocity=127 time=0
EXTRACT: note_on channel=12 note=44 velocity=127 time=0
EXTRACT: note_on channel=14 note=44 velocity=127 time=0
EXTRACT: note_on channel=9 note=54 velocity=0 time=0.1319443125
EXTRACT: note_on channel=9 note=42 velocity=0 time=0
EXTRACT: note_on channel=9 note=46 velocity=127 time=0.0069444375
EXTRACT: note_on channel=9 note=54 velocity=127 time=0
EXTRACT: note_on channel=9 note=56 velocity=127 time=0
EXTRACT: note_on channel=9 note=36 velocity=127 time=0
EXTRACT: note_on channel=9 note=46 velocity=0 time=0.1319443125
EXTRACT: note_on channel=9 note=54 velocity=0 time=0
EXTRACT: note_on channel=9 note=56 velocity=0 time=0
EXTRACT: note_on channel=9 note=36 velocity=0 time=0
EXTRACT: note_on channel=12 note=44 velocity=0 time=0
EXTRACT: note_on channel=14 note=44 velocity=0 time=0
EXTRACT: note_on channel=9 note=54 velocity=127 time=0.0069444375
EXTRACT: note_on channel=9 note=56 velocity=127 time=0
EXTRACT: note_on channel=9 note=36 velocity=127 time=0
EXTRACT: note_on channel=9 note=42 velocity=127 time=0
EXTRACT: note_on channel=12 note=44 velocity=127 time=0
EXTRACT: note_on channel=14 note=44 velocity=127 time=0
EXTRACT: note_on channel=9 note=54 velocity=0 time=0.1319443125
EXTRACT: note_on channel=9 note=56 velocity=0 time=0
EXTRACT: note_on channel=9 note=36 velocity=0 time=0
EXTRACT: note_on channel=9 note=42 velocity=0 time=0
EXTRACT: note_on channel=9 note=56 velocity=127 time=0.0069444375
EXTRACT: note_on channel=9 note=36 velocity=127 time=0
EXTRACT: note_on channel=9 note=42 velocity=127 time=0
EXTRACT: note_on channel=10 note=68 velocity=0 time=0.04629625
EXTRACT: note_on channel=10 note=68 velocity=0 time=0
EXTRACT: note_on channel=10 note=68 velocity=0 time=0
EXTRACT: note_on channel=9 note=56 velocity=0 time=0.0856480625
EXTRACT: note_on channel=9 note=36 velocity=0 time=0
EXTRACT: note_on channel=9 note=42 velocity=0 time=0
EXTRACT: note_on channel=9 note=46 velocity=127 time=0.0069444375
EXTRACT: note_on channel=9 note=54 velocity=127 time=0
EXTRACT: note_on channel=9 note=56 velocity=127 time=0
EXTRACT: note_on channel=9 note=39 velocity=127 time=0
EXTRACT: note_on channel=10 note=63 velocity=127 time=0
EXTRACT: note_on channel=10 note=63 velocity=127 time=0
EXTRACT: note_on channel=10 note=63 velocity=127 time=0
EXTRACT: note_on channel=9 note=46 velocity=0 time=0.1319443125
EXTRACT: note_on channel=9 note=54 velocity=0 time=0
EXTRACT: note_on channel=9 note=56 velocity=0 time=0
EXTRACT: note_on channel=9 note=39 velocity=0 time=0
EXTRACT: note_on channel=9 note=54 velocity=127 time=0.0069444375
EXTRACT: note_on channel=9 note=42 velocity=127 time=0
EXTRACT: note_on channel=9 note=54 velocity=0 time=0.1319443125
EXTRACT: note_on channel=9 note=42 velocity=0 time=0
EXTRACT: note_on channel=10 note=63 velocity=0 time=0
EXTRACT: note_on channel=10 note=63 velocity=0 time=0
EXTRACT: note_on channel=10 note=63 velocity=0 time=0
EXTRACT: note_on channel=9 note=54 velocity=127 time=0.0069444375
EXTRACT: note_on channel=9 note=56 velocity=127 time=0
EXTRACT: note_on channel=9 note=36 velocity=127 time=0
EXTRACT: note_on channel=9 note=42 velocity=127 time=0
EXTRACT: note_on channel=10 note=63 velocity=127 time=0
EXTRACT: note_on channel=10 note=63 velocity=127 time=0
EXTRACT: note_on channel=10 note=63 velocity=127 time=0
EXTRACT: note_on channel=9 note=54 velocity=0 time=0.1319443125
EXTRACT: note_on channel=9 note=56 velocity=0 time=0
EXTRACT: note_on channel=9 note=36 velocity=0 time=0
EXTRACT: note_on channel=9 note=42 velocity=0 time=0
EXTRACT: note_on channel=9 note=54 velocity=127 time=0.0069444375
EXTRACT: note_on channel=9 note=42 velocity=127 time=0
EXTRACT: note_on channel=11 note=60 velocity=0 time=0
EXTRACT: note_on channel=11 note=63 velocity=0 time=0
EXTRACT: note_on channel=11 note=68 velocity=0 time=0
EXTRACT: note_on channel=13 note=60 velocity=0 time=0
EXTRACT: note_on channel=13 note=63 velocity=0 time=0
EXTRACT: note_on channel=13 note=68 velocity=0 time=0
EXTRACT: note_on channel=12 note=44 velocity=0 time=0.04629625
EXTRACT: note_on channel=14 note=44 velocity=0 time=0
EXTRACT: note_on channel=9 note=54 velocity=0 time=0.0856480625
EXTRACT: note_on channel=9 note=42 velocity=0 time=0
EXTRACT: note_on channel=10 note=63 velocity=0 time=0
EXTRACT: note_on channel=10 note=63 velocity=0 time=0
EXTRACT: note_on channel=10 note=63 velocity=0 time=0
EXTRACT: note_on channel=9 note=46 velocity=127 time=0
EXTRACT: note_on channel=9 note=54 velocity=127 time=0
EXTRACT: note_on channel=9 note=56 velocity=127 time=0
EXTRACT: note_on channel=9 note=36 velocity=127 time=0
EXTRACT: note_on channel=10 note=70 velocity=127 time=0
EXTRACT: note_on channel=11 note=62 velocity=127 time=0
EXTRACT: note_on channel=11 note=65 velocity=127 time=0
EXTRACT: note_on channel=11 note=70 velocity=127 time=0
EXTRACT: note_on channel=12 note=46 velocity=127 time=0
EXTRACT: note_on channel=13 note=62 velocity=127 time=0
EXTRACT: note_on channel=13 note=65 velocity=127 time=0
EXTRACT: note_on channel=13 note=70 velocity=127 time=0
EXTRACT: note_on channel=14 note=46 velocity=127 time=0
EXTRACT: note_on channel=10 note=70 velocity=127 time=0
EXTRACT: note_on channel=10 note=70 velocity=127 time=0
EXTRACT: note_on channel=9 note=46 velocity=0 time=0.1319443125
EXTRACT: note_on channel=9 note=54 velocity=0 time=0
EXTRACT: note_on channel=9 note=56 velocity=0 time=0
EXTRACT: note_on channel=9 note=36 velocity=0 time=0
EXTRACT: note_on channel=9 note=54 velocity=127 time=0.0069444375
EXTRACT: note_on channel=9 note=42 velocity=127 time=0
EXTRACT: note_on channel=9 note=54 velocity=0 time=0.1319443125
EXTRACT: note_on channel=9 note=46 velocity=127 time=0.0069444375
EXTRACT: note_on channel=9 note=54 velocity=127 time=0
EXTRACT: note_on channel=9 note=56 velocity=127 time=0
EXTRACT: note_on channel=9 note=46 velocity=0 time=0.1319443125
EXTRACT: note_on channel=9 note=54 velocity=0 time=0
EXTRACT: note_on channel=9 note=56 velocity=0 time=0
EXTRACT: note_on channel=9 note=42 velocity=0 time=0
EXTRACT: note_on channel=10 note=70 velocity=0 time=0
EXTRACT: note_on channel=11 note=62 velocity=0 time=0
EXTRACT: note_on channel=11 note=65 velocity=0 time=0
EXTRACT: note_on channel=11 note=70 velocity=0 time=0
EXTRACT: note_on channel=13 note=62 velocity=0 time=0
EXTRACT: note_on channel=13 note=65 velocity=0 time=0
EXTRACT: note_on channel=13 note=70 velocity=0 time=0
EXTRACT: note_on channel=10 note=70 velocity=0 time=0
EXTRACT: note_on channel=10 note=70 velocity=0 time=0
EXTRACT: note_on channel=9 note=54 velocity=127 time=0.0069444375
EXTRACT: note_on channel=9 note=42 velocity=127 time=0
EXTRACT: note_on channel=10 note=68 velocity=127 time=0
EXTRACT: note_on channel=11 note=68 velocity=127 time=0
EXTRACT: note_on channel=13 note=68 velocity=127 time=0
EXTRACT: note_on channel=10 note=68 velocity=127 time=0
EXTRACT: note_on channel=10 note=68 velocity=127 time=0
EXTRACT: note_on channel=9 note=54 velocity=0 time=0.1319443125
EXTRACT: note_on channel=9 note=42 velocity=0 time=0
EXTRACT: note_on channel=9 note=54 velocity=127 time=0.0069444375
EXTRACT: note_on channel=9 note=56 velocity=127 time=0
EXTRACT: note_on channel=9 note=39 velocity=127 time=0
EXTRACT: note_on channel=9 note=42 velocity=127 time=0
EXTRACT: note_on channel=9 note=39 velocity=0 time=0.1319443125
EXTRACT: note_on channel=9 note=42 velocity=0 time=0
EXTRACT: note_on channel=9 note=42 velocity=127 time=0.0069444375
EXTRACT: note_on channel=12 note=46 velocity=0 time=0.04629625
EXTRACT: note_on channel=14 note=46 velocity=0 time=0
EXTRACT: note_on channel=9 note=54 velocity=0 time=0.0856480625
EXTRACT: note_on channel=9 note=56 velocity=0 time=0
EXTRACT: note_on channel=9 note=42 velocity=0 time=0
EXTRACT: note_on channel=10 note=68 velocity=0 time=0
EXTRACT: note_on channel=11 note=68 velocity=0 time=0
EXTRACT: note_on channel=13 note=68 velocity=0 time=0
EXTRACT: note_on channel=10 note=68 velocity=0 time=0
EXTRACT: note_on channel=10 note=68 velocity=0 time=0
EXTRACT: note_on channel=9 note=54 velocity=127 time=0.0069444375
EXTRACT: note_on channel=9 note=36 velocity=127 time=0
EXTRACT: note_on channel=9 note=42 velocity=127 time=0
EXTRACT: note_on channel=10 note=67 velocity=127 time=0
EXTRACT: note_on channel=11 note=58 velocity=127 time=0
EXTRACT: note_on channel=11 note=63 velocity=127 time=0
EXTRACT: note_on channel=11 note=67 velocity=127 time=0
EXTRACT: note_on channel=12 note=38 velocity=127 time=0
EXTRACT: note_on channel=13 note=58 velocity=127 time=0
EXTRACT: note_on channel=13 note=63 velocity=127 time=0
EXTRACT: note_on channel=13 note=67 velocity=127 time=0
EXTRACT: note_on channel=14 note=38 velocity=127 time=0
EXTRACT: note_on channel=10 note=67 velocity=127 time=0
EXTRACT: note_on channel=10 note=67 velocity=127 time=0
EXTRACT: note_on channel=9 note=54 velocity=0 time=0.1319443125
EXTRACT: note_on channel=9 note=36 velocity=0 time=0
EXTRACT: note_on channel=9 note=42 velocity=0 time=0
EXTRACT: note_on channel=9 note=54 velocity=127 time=0.0069444375
EXTRACT: note_on channel=9 note=56 velocity=127 time=0
EXTRACT: note_on channel=9 note=42 velocity=127 time=0
EXTRACT: note_on channel=9 note=54 velocity=0 time=0.1319443125
EXTRACT: note_on channel=9 note=56 velocity=0 time=0
EXTRACT: note_on channel=9 note=42 velocity=0 time=0
EXTRACT: note_on channel=12 note=38 velocity=0 time=0
EXTRACT: note_on channel=14 note=38 velocity=0 time=0
EXTRACT: note_on channel=9 note=54 velocity=127 time=0.0069444375
EXTRACT: note_on channel=9 note=42 velocity=127 time=0
EXTRACT: note_on channel=12 note=39 velocity=127 time=0
EXTRACT: note_on channel=14 note=39 velocity=127 time=0
EXTRACT: note_on channel=9 note=54 velocity=0 time=0.1319443125
EXTRACT: note_on channel=9 note=42 velocity=0 time=0
EXTRACT: note_on channel=11 note=67 velocity=0 time=0
EXTRACT: note_on channel=13 note=67 velocity=0 time=0
EXTRACT: note_on channel=9 note=46 velocity=127 time=0.0069444375
EXTRACT: note_on channel=9 note=54 velocity=127 time=0
EXTRACT: note_on channel=9 note=56 velocity=127 time=0
EXTRACT: note_on channel=9 note=36 velocity=127 time=0
EXTRACT: note_on channel=10 note=67 velocity=0 time=0
EXTRACT: note_on channel=10 note=65 velocity=127 time=0
EXTRACT: note_on channel=11 note=65 velocity=127 time=0
EXTRACT: note_on channel=13 note=65 velocity=127 time=0
EXTRACT: note_on channel=10 note=67 velocity=0 time=0
EXTRACT: note_on channel=10 note=65 velocity=127 time=0
EXTRACT: note_on channel=10 note=67 velocity=0 time=0
EXTRACT: note_on channel=10 note=65 velocity=127 time=0
EXTRACT: note_on channel=9 note=46 velocity=0 time=0.1319443125
EXTRACT: note_on channel=9 note=54 velocity=0 time=0
EXTRACT: note_on channel=9 note=56 velocity=0 time=0
EXTRACT: note_on channel=9 note=36 velocity=0 time=0
EXTRACT: note_on channel=11 note=58 velocity=0 time=0
EXTRACT: note_on channel=11 note=63 velocity=0 time=0
EXTRACT: note_on channel=11 note=65 velocity=0 time=0
EXTRACT: note_on channel=12 note=39 velocity=0 time=0
EXTRACT: note_on channel=13 note=58 velocity=0 time=0
EXTRACT: note_on channel=13 note=63 velocity=0 time=0
EXTRACT: note_on channel=13 note=65 velocity=0 time=0
EXTRACT: note_on channel=14 note=39 velocity=0 time=0
EXTRACT: note_on channel=9 note=54 velocity=127 time=0.0069444375
EXTRACT: note_on channel=9 note=56 velocity=127 time=0
EXTRACT: note_on channel=9 note=36 velocity=127 time=0
EXTRACT: note_on channel=9 note=42 velocity=127 time=0
EXTRACT: note_on channel=10 note=65 velocity=0 time=0
EXTRACT: note_on channel=10 note=63 velocity=127 time=0
EXTRACT: note_on channel=11 note=63 velocity=127 time=0
EXTRACT: note_on channel=12 note=39 velocity=127 time=0
EXTRACT: note_on channel=13 note=63 velocity=127 time=0
EXTRACT: note_on channel=14 note=39 velocity=127 time=0
EXTRACT: note_on channel=10 note=65 velocity=0 time=0
EXTRACT: note_on channel=10 note=63 velocity=127 time=0
EXTRACT: note_on channel=10 note=65 velocity=0 time=0
EXTRACT: note_on channel=10 note=63 velocity=127 time=0
EXTRACT: note_on channel=9 note=54 velocity=0 time=0.1319443125
EXTRACT: note_on channel=9 note=56 velocity=0 time=0
EXTRACT: note_on channel=9 note=36 velocity=0 time=0
EXTRACT: note_on channel=9 note=42 velocity=0 time=0
EXTRACT: note_on channel=9 note=56 velocity=127 time=0.0069444375
EXTRACT: note_on channel=9 note=36 velocity=127 time=0
EXTRACT: note_on channel=9 note=42 velocity=127 time=0
EXTRACT: note_on channel=9 note=56 velocity=0 time=0.1319443125
EXTRACT: note_on channel=9 note=36 velocity=0 time=0
EXTRACT: note_on channel=9 note=42 velocity=0 time=0
EXTRACT: note_on channel=10 note=63 velocity=0 time=0
EXTRACT: note_on channel=11 note=63 velocity=0 time=0
EXTRACT: note_on channel=12 note=39 velocity=0 time=0
EXTRACT: note_on channel=13 note=63 velocity=0 time=0
EXTRACT: note_on channel=14 note=39 velocity=0 time=0
EXTRACT: note_on channel=10 note=63 velocity=0 time=0
EXTRACT: note_on channel=10 note=63 velocity=0 time=0
EXTRACT: note_on channel=9 note=46 velocity=127 time=0.0069444375
EXTRACT: note_on channel=9 note=54 velocity=127 time=0
EXTRACT: note_on channel=9 note=56 velocity=127 time=0
EXTRACT: note_on channel=9 note=39 velocity=127 time=0
EXTRACT: note_on channel=11 note=58 velocity=127 time=0
EXTRACT: note_on channel=11 note=65 velocity=127 time=0
EXTRACT: note_on channel=12 note=38 velocity=127 time=0
EXTRACT: note_on channel=13 note=58 velocity=127 time=0
EXTRACT: note_on channel=13 note=65 velocity=127 time=0
EXTRACT: note_on channel=14 note=38 velocity=127 time=0
EXTRACT: note_on channel=9 note=46 velocity=0 time=0.1319443125
EXTRACT: note_on channel=9 note=54 velocity=0 time=0
EXTRACT: note_on channel=9 note=56 velocity=0 time=0
EXTRACT: note_on channel=9 note=39 velocity=0 time=0
EXTRACT: note_on channel=9 note=54 velocity=127 time=0.0069444375
EXTRACT: note_on channel=9 note=42 velocity=127 time=0
EXTRACT: note_on channel=9 note=54 velocity=0 time=0.1319443125
EXTRACT: note_on channel=9 note=42 velocity=0 time=0
EXTRACT: note_on channel=9 note=54 velocity=127 time=0.0069444375
EXTRACT: note_on channel=9 note=56 velocity=127 time=0
EXTRACT: note_on channel=9 note=36 velocity=127 time=0
EXTRACT: note_on channel=9 note=42 velocity=127 time=0
EXTRACT: note_on channel=9 note=54 velocity=0 time=0.1319443125
EXTRACT: note_on channel=9 note=56 velocity=0 time=0
EXTRACT: note_on channel=9 note=36 velocity=0 time=0
EXTRACT: note_on channel=9 note=42 velocity=0 time=0
EXTRACT: note_on channel=9 note=54 velocity=127 time=0.0069444375
EXTRACT: note_on channel=9 note=42 velocity=127 time=0
EXTRACT: note_on channel=11 note=58 velocity=0 time=0.04629625
EXTRACT: note_on channel=11 note=65 velocity=0 time=0
EXTRACT: note_on channel=12 note=38 velocity=0 time=0
EXTRACT: note_on channel=13 note=58 velocity=0 time=0
EXTRACT: note_on channel=13 note=65 velocity=0 time=0
EXTRACT: note_on channel=14 note=38 velocity=0 time=0
EXTRACT: note_on channel=9 note=54 velocity=0 time=0.0856480625
EXTRACT: note_on channel=9 note=42 velocity=0 time=0
EXTRACT: note_on channel=9 note=46 velocity=127 time=0
EXTRACT: note_on channel=9 note=54 velocity=127 time=0
EXTRACT: note_on channel=9 note=56 velocity=127 time=0
EXTRACT: note_on channel=9 note=36 velocity=127 time=0
EXTRACT: note_on channel=10 note=67 velocity=127 time=0
EXTRACT: note_on channel=11 note=60 velocity=127 time=0
EXTRACT: note_on channel=11 note=63 velocity=127 time=0
EXTRACT: note_on channel=11 note=67 velocity=127 time=0
EXTRACT: note_on channel=12 note=38 velocity=127 time=0
EXTRACT: note_on channel=13 note=60 velocity=127 time=0
EXTRACT: note_on channel=13 note=63 velocity=127 time=0
EXTRACT: note_on channel=13 note=67 velocity=127 time=0
EXTRACT: note_on channel=14 note=38 velocity=127 time=0
EXTRACT: note_on channel=10 note=67 velocity=127 time=0
EXTRACT: note_on channel=10 note=67 velocity=127 time=0
EXTRACT: note_on channel=9 note=46 velocity=0 time=0.1319443125
EXTRACT: note_on channel=9 note=54 velocity=0 time=0
EXTRACT: note_on channel=9 note=56 velocity=0 time=0
EXTRACT: note_on channel=9 note=36 velocity=0 time=0
EXTRACT: note_on channel=9 note=54 velocity=127 time=0.0069444375
EXTRACT: note_on channel=9 note=42 velocity=127 time=0
EXTRACT: note_on channel=9 note=54 velocity=0 time=0.1319443125
EXTRACT: note_on channel=10 note=67 velocity=0 time=0
EXTRACT: note_on channel=11 note=60 velocity=0 time=0
EXTRACT: note_on channel=11 note=63 velocity=0 time=0
EXTRACT: note_on channel=11 note=67 velocity=0 time=0
EXTRACT: note_on channel=13 note=60 velocity=0 time=0
EXTRACT: note_on channel=13 note=63 velocity=0 time=0
EXTRACT: note_on channel=13 note=67 velocity=0 time=0
EXTRACT: note_on channel=10 note=67 velocity=0 time=0
EXTRACT: note_on channel=10 note=67 velocity=0 time=0
EXTRACT: note_on channel=9 note=46 velocity=127 time=0.0069444375
EXTRACT: note_on channel=9 note=54 velocity=127 time=0
EXTRACT: note_on channel=9 note=56 velocity=127 time=0
EXTRACT: note_on channel=10 note=68 velocity=127 time=0
EXTRACT: note_on channel=11 note=68 velocity=127 time=0
EXTRACT: note_on channel=13 note=68 velocity=127 time=0
EXTRACT: note_on channel=10 note=68 velocity=127 time=0
EXTRACT: note_on channel=10 note=68 velocity=127 time=0
EXTRACT: note_on channel=9 note=46 velocity=0 time=0.1319443125
EXTRACT: note_on channel=9 note=54 velocity=0 time=0
EXTRACT: note_on channel=9 note=56 velocity=0 time=0
EXTRACT: note_on channel=9 note=42 velocity=0 time=0
EXTRACT: note_on channel=9 note=54 velocity=127 time=0.0069444375
EXTRACT: note_on channel=9 note=42 velocity=127 time=0
EXTRACT: note_on channel=12 note=38 velocity=0 time=0.04629625
EXTRACT: note_on channel=14 note=38 velocity=0 time=0
EXTRACT: note_on channel=9 note=54 velocity=0 time=0.0856480625
EXTRACT: note_on channel=9 note=42 velocity=0 time=0
EXTRACT: note_on channel=10 note=68 velocity=0 time=0
EXTRACT: note_on channel=11 note=68 velocity=0 time=0
EXTRACT: note_on channel=13 note=68 velocity=0 time=0
EXTRACT: note_on channel=10 note=68 velocity=0 time=0
EXTRACT: note_on channel=10 note=68 velocity=0 time=0
EXTRACT: note_on channel=9 note=54 velocity=127 time=0.0069444375
EXTRACT: note_on channel=9 note=56 velocity=127 time=0
EXTRACT: note_on channel=9 note=39 velocity=127 time=0
EXTRACT: note_on channel=9 note=42 velocity=127 time=0
EXTRACT: note_on channel=10 note=67 velocity=127 time=0
EXTRACT: note_on channel=11 note=67 velocity=127 time=0
EXTRACT: note_on channel=12 note=38 velocity=127 time=0
EXTRACT: note_on channel=13 note=67 velocity=127 time=0
EXTRACT: note_on channel=14 note=38 velocity=127 time=0
EXTRACT: note_on channel=10 note=67 velocity=127 time=0
EXTRACT: note_on channel=10 note=67 velocity=127 time=0
EXTRACT: note_on channel=9 note=39 velocity=0 time=0.1319443125
EXTRACT: note_on channel=9 note=42 velocity=0 time=0
EXTRACT: note_on channel=9 note=42 velocity=127 time=0.0069444375
EXTRACT: note_on channel=9 note=54 velocity=0 time=0.1319443125
EXTRACT: note_on channel=9 note=56 velocity=0 time=0
EXTRACT: note_on channel=9 note=42 velocity=0 time=0
EXTRACT: note_on channel=10 note=67 velocity=0 time=0
EXTRACT: note_on channel=11 note=67 velocity=0 time=0
EXTRACT: note_on channel=12 note=38 velocity=0 time=0
EXTRACT: note_on channel=13 note=67 velocity=0 time=0
EXTRACT: note_on channel=14 note=38 velocity=0 time=0
EXTRACT: note_on channel=10 note=67 velocity=0 time=0
EXTRACT: note_on channel=10 note=67 velocity=0 time=0
EXTRACT: note_on channel=9 note=54 velocity=127 time=0.0069444375
EXTRACT: note_on channel=9 note=36 velocity=127 time=0
EXTRACT: note_on channel=9 note=42 velocity=127 time=0
EXTRACT: note_on channel=10 note=68 velocity=127 time=0
EXTRACT: note_on channel=11 note=60 velocity=127 time=0
EXTRACT: note_on channel=11 note=63 velocity=127 time=0
EXTRACT: note_on channel=11 note=68 velocity=127 time=0
EXTRACT: note_on channel=12 note=43 velocity=127 time=0
EXTRACT: note_on channel=13 note=60 velocity=127 time=0
EXTRACT: note_on channel=13 note=63 velocity=127 time=0
EXTRACT: note_on channel=13 note=68 velocity=127 time=0
EXTRACT: note_on channel=14 note=43 velocity=127 time=0
EXTRACT: note_on channel=10 note=68 velocity=127 time=0
EXTRACT: note_on channel=10 note=68 velocity=127 time=0
EXTRACT: note_on channel=9 note=54 velocity=0 time=0.1319443125
EXTRACT: note_on channel=9 note=36 velocity=0 time=0
EXTRACT: note_on channel=9 note=42 velocity=0 time=0
EXTRACT: note_on channel=9 note=54 velocity=127 time=0.0069444375
EXTRACT: note_on channel=9 note=56 velocity=127 time=0
EXTRACT: note_on channel=9 note=42 velocity=127 time=0
EXTRACT: note_on channel=9 note=54 velocity=0 time=0.1319443125
EXTRACT: note_on channel=9 note=56 velocity=0 time=0
EXTRACT: note_on channel=9 note=42 velocity=0 time=0
EXTRACT: note_on channel=10 note=68 velocity=0 time=0
EXTRACT: note_on channel=11 note=60 velocity=0 time=0
EXTRACT: note_on channel=11 note=63 velocity=0 time=0
EXTRACT: note_on channel=11 note=68 velocity=0 time=0
EXTRACT: note_on channel=12 note=43 velocity=0 time=0
EXTRACT: note_on channel=13 note=60 velocity=0 time=0
EXTRACT: note_on channel=13 note=63 velocity=0 time=0
EXTRACT: note_on channel=13 note=68 velocity=0 time=0
EXTRACT: note_on channel=14 note=43 velocity=0 time=0
EXTRACT: note_on channel=10 note=68 velocity=0 time=0
EXTRACT: note_on channel=10 note=68 velocity=0 time=0
EXTRACT: note_on channel=9 note=54 velocity=127 time=0.0069444375
EXTRACT: note_on channel=9 note=42 velocity=127 time=0
EXTRACT: note_on channel=10 note=67 velocity=127 time=0
EXTRACT: note_on channel=11 note=67 velocity=127 time=0
EXTRACT: note_on channel=12 note=44 velocity=127 time=0
EXTRACT: note_on channel=13 note=67 velocity=127 time=0
EXTRACT: note_on channel=14 note=44 velocity=127 time=0
EXTRACT: note_on channel=10 note=67 velocity=127 time=0
EXTRACT: note_on channel=10 note=67 velocity=127 time=0
EXTRACT: note_on channel=9 note=54 velocity=0 time=0.1319443125
EXTRACT: note_on channel=9 note=42 velocity=0 time=0
EXTRACT: note_on channel=9 note=46 velocity=127 time=0.0069444375
EXTRACT: note_on channel=9 note=54 velocity=127 time=0
EXTRACT: note_on channel=9 note=56 velocity=127 time=0
EXTRACT: note_on channel=9 note=36 velocity=127 time=0
EXTRACT: note_on channel=9 note=46 velocity=0 time=0.1319443125
EXTRACT: note_on channel=9 note=54 velocity=0 time=0
EXTRACT: note_on channel=9 note=56 velocity=0 time=0
EXTRACT: note_on channel=9 note=36 velocity=0 time=0
EXTRACT: note_on channel=10 note=67 velocity=0 time=0
EXTRACT: note_on channel=11 note=67 velocity=0 time=0
EXTRACT: note_on channel=12 note=44 velocity=0 time=0
EXTRACT: note_on channel=13 note=67 velocity=0 time=0
EXTRACT: note_on channel=14 note=44 velocity=0 time=0
EXTRACT: note_on channel=10 note=67 velocity=0 time=0
EXTRACT: note_on channel=10 note=67 velocity=0 time=0
EXTRACT: note_on channel=9 note=54 velocity=127 time=0.0069444375
EXTRACT: note_on channel=9 note=56 velocity=127 time=0
EXTRACT: note_on channel=9 note=36 velocity=127 time=0
EXTRACT: note_on channel=9 note=42 velocity=127 time=0
EXTRACT: note_on channel=10 note=65 velocity=127 time=0
EXTRACT: note_on channel=11 note=65 velocity=127 time=0
EXTRACT: note_on channel=12 note=44 velocity=127 time=0
EXTRACT: note_on channel=13 note=65 velocity=127 time=0
EXTRACT: note_on channel=14 note=44 velocity=127 time=0
EXTRACT: note_on channel=10 note=65 velocity=127 time=0
EXTRACT: note_on channel=10 note=65 velocity=127 time=0
EXTRACT: note_on channel=9 note=54 velocity=0 time=0.1319443125
EXTRACT: note_on channel=9 note=56 velocity=0 time=0
EXTRACT: note_on channel=9 note=36 velocity=0 time=0
EXTRACT: note_on channel=9 note=42 velocity=0 time=0
EXTRACT: note_on channel=9 note=56 velocity=127 time=0.0069444375
EXTRACT: note_on channel=9 note=36 velocity=127 time=0
EXTRACT: note_on channel=9 note=42 velocity=127 time=0
EXTRACT: note_on channel=9 note=56 velocity=0 time=0.1319443125
EXTRACT: note_on channel=9 note=36 velocity=0 time=0
EXTRACT: note_on channel=9 note=42 velocity=0 time=0
EXTRACT: note_on channel=10 note=65 velocity=0 time=0
EXTRACT: note_on channel=11 note=65 velocity=0 time=0
EXTRACT: note_on channel=13 note=65 velocity=0 time=0
EXTRACT: note_on channel=10 note=65 velocity=0 time=0
EXTRACT: note_on channel=10 note=65 velocity=0 time=0
EXTRACT: note_on channel=9 note=46 velocity=127 time=0.0069444375
EXTRACT: note_on channel=9 note=54 velocity=127 time=0
EXTRACT: note_on channel=9 note=56 velocity=127 time=0
EXTRACT: note_on channel=9 note=39 velocity=127 time=0
EXTRACT: note_on channel=10 note=63 velocity=127 time=0
EXTRACT: note_on channel=11 note=63 velocity=127 time=0
EXTRACT: note_on channel=13 note=63 velocity=127 time=0
EXTRACT: note_on channel=10 note=63 velocity=127 time=0
EXTRACT: note_on channel=10 note=63 velocity=127 time=0
EXTRACT: note_on channel=9 note=46 velocity=0 time=0.1319443125
EXTRACT: note_on channel=9 note=54 velocity=0 time=0
EXTRACT: note_on channel=9 note=56 velocity=0 time=0
EXTRACT: note_on channel=9 note=39 velocity=0 time=0
EXTRACT: note_on channel=9 note=54 velocity=127 time=0.0069444375
EXTRACT: note_on channel=9 note=42 velocity=127 time=0
EXTRACT: note_on channel=12 note=44 velocity=0 time=0.04629625
EXTRACT: note_on channel=14 note=44 velocity=0 time=0
EXTRACT: note_on channel=9 note=54 velocity=0 time=0.0856480625
EXTRACT: note_on channel=9 note=42 velocity=0 time=0
EXTRACT: note_on channel=10 note=63 velocity=0 time=0
EXTRACT: note_on channel=11 note=63 velocity=0 time=0
EXTRACT: note_on channel=13 note=63 velocity=0 time=0
EXTRACT: note_on channel=10 note=63 velocity=0 time=0
EXTRACT: note_on channel=10 note=63 velocity=0 time=0
EXTRACT: note_on channel=9 note=54 velocity=127 time=0.0069444375
EXTRACT: note_on channel=9 note=56 velocity=127 time=0
EXTRACT: note_on channel=9 note=36 velocity=127 time=0
EXTRACT: note_on channel=9 note=42 velocity=127 time=0
EXTRACT: note_on channel=10 note=60 velocity=127 time=0
EXTRACT: note_on channel=11 note=60 velocity=127 time=0
EXTRACT: note_on channel=12 note=44 velocity=127 time=0
EXTRACT: note_on channel=13 note=60 velocity=127 time=0
EXTRACT: note_on channel=14 note=44 velocity=127 time=0
EXTRACT: note_on channel=10 note=60 velocity=127 time=0
EXTRACT: note_on channel=10 note=60 velocity=127 time=0
EXTRACT: note_on channel=9 note=54 velocity=0 time=0.1319443125
EXTRACT: note_on channel=9 note=56 velocity=0 time=0
EXTRACT: note_on channel=9 note=36 velocity=0 time=0
EXTRACT: note_on channel=9 note=42 velocity=0 time=0
EXTRACT: note_on channel=9 note=54 velocity=127 time=0.0069444375
EXTRACT: note_on channel=9 note=42 velocity=127 time=0
EXTRACT: note_on channel=9 note=54 velocity=0 time=0.1319443125
EXTRACT: note_on channel=9 note=42 velocity=0 time=0
EXTRACT: note_on channel=10 note=60 velocity=0 time=0
EXTRACT: note_on channel=11 note=60 velocity=0 time=0
EXTRACT: note_on channel=12 note=44 velocity=0 time=0
EXTRACT: note_on channel=13 note=60 velocity=0 time=0
EXTRACT: note_on channel=14 note=44 velocity=0 time=0
EXTRACT: note_on channel=10 note=60 velocity=0 time=0
EXTRACT: note_on channel=10 note=60 velocity=0 time=0
EXTRACT: note_on channel=9 note=46 velocity=127 time=0
EXTRACT: note_on channel=9 note=54 velocity=127 time=0
EXTRACT: note_on channel=9 note=56 velocity=127 time=0
EXTRACT: note_on channel=9 note=36 velocity=127 time=0
EXTRACT: note_on channel=10 note=59 velocity=127 time=0
EXTRACT: note_on channel=11 note=55 velocity=127 time=0
EXTRACT: note_on channel=11 note=59 velocity=127 time=0
EXTRACT: note_on channel=12 note=43 velocity=127 time=0
EXTRACT: note_on channel=13 note=55 velocity=127 time=0
EXTRACT: note_on channel=13 note=59 velocity=127 time=0
EXTRACT: note_on channel=14 note=43 velocity=127 time=0
EXTRACT: note_on channel=10 note=59 velocity=127 time=0
EXTRACT: note_on channel=10 note=59 velocity=127 time=0
EXTRACT: note_on channel=9 note=46 velocity=0 time=0.1319443125
EXTRACT: note_on channel=9 note=54 velocity=0 time=0
EXTRACT: note_on channel=9 note=56 velocity=0 time=0
EXTRACT: note_on channel=9 note=36 velocity=0 time=0
EXTRACT: note_on channel=9 note=54 velocity=127 time=0.0069444375
EXTRACT: note_on channel=9 note=42 velocity=127 time=0
EXTRACT: note_on channel=9 note=54 velocity=0 time=0.1319443125
EXTRACT: note_on channel=9 note=46 velocity=127 time=0.0069444375
EXTRACT: note_on channel=9 note=54 velocity=127 time=0
EXTRACT: note_on channel=9 note=56 velocity=127 time=0
EXTRACT: note_on channel=9 note=46 velocity=0 time=0.1319443125
EXTRACT: note_on channel=9 note=54 velocity=0 time=0
EXTRACT: note_on channel=9 note=56 velocity=0 time=0
EXTRACT: note_on channel=9 note=42 velocity=0 time=0
EXTRACT: note_on channel=10 note=59 velocity=0 time=0
EXTRACT: note_on channel=11 note=55 velocity=0 time=0
EXTRACT: note_on channel=11 note=59 velocity=0 time=0
EXTRACT: note_on channel=13 note=55 velocity=0 time=0
EXTRACT: note_on channel=13 note=59 velocity=0 time=0
EXTRACT: note_on channel=10 note=59 velocity=0 time=0
EXTRACT: note_on channel=10 note=59 velocity=0 time=0
EXTRACT: note_on channel=9 note=54 velocity=127 time=0.0069444375
EXTRACT: note_on channel=9 note=42 velocity=127 time=0
EXTRACT: note_on channel=10 note=62 velocity=127 time=0
EXTRACT: note_on channel=11 note=55 velocity=127 time=0
EXTRACT: note_on channel=11 note=59 velocity=127 time=0
EXTRACT: note_on channel=11 note=62 velocity=127 time=0
EXTRACT: note_on channel=13 note=55 velocity=127 time=0
EXTRACT: note_on channel=13 note=59 velocity=127 time=0
EXTRACT: note_on channel=13 note=62 velocity=127 time=0
EXTRACT: note_on channel=10 note=62 velocity=127 time=0
EXTRACT: note_on channel=10 note=62 velocity=127 time=0
EXTRACT: note_on channel=12 note=43 velocity=0 time=0.04629625
EXTRACT: note_on channel=14 note=43 velocity=0 time=0
EXTRACT: note_on channel=9 note=54 velocity=0 time=0.0856480625
EXTRACT: note_on channel=9 note=42 velocity=0 time=0
EXTRACT: note_on channel=9 note=54 velocity=127 time=0.0069444375
EXTRACT: note_on channel=9 note=56 velocity=127 time=0
EXTRACT: note_on channel=9 note=39 velocity=127 time=0
EXTRACT: note_on channel=9 note=42 velocity=127 time=0
EXTRACT: note_on channel=12 note=43 velocity=127 time=0
EXTRACT: note_on channel=14 note=43 velocity=127 time=0
EXTRACT: note_on channel=9 note=39 velocity=0 time=0.1319443125
EXTRACT: note_on channel=9 note=42 velocity=0 time=0
EXTRACT: note_on channel=9 note=42 velocity=127 time=0.0069444375
EXTRACT: note_on channel=9 note=54 velocity=0 time=0.1319443125
EXTRACT: note_on channel=9 note=56 velocity=0 time=0
EXTRACT: note_on channel=9 note=42 velocity=0 time=0
EXTRACT: note_on channel=10 note=62 velocity=0 time=0
EXTRACT: note_on channel=11 note=55 velocity=0 time=0
EXTRACT: note_on channel=11 note=59 velocity=0 time=0
EXTRACT: note_on channel=11 note=62 velocity=0 time=0
EXTRACT: note_on channel=12 note=43 velocity=0 time=0
EXTRACT: note_on channel=13 note=55 velocity=0 time=0
EXTRACT: note_on channel=13 note=59 velocity=0 time=0
EXTRACT: note_on channel=13 note=62 velocity=0 time=0
EXTRACT: note_on channel=14 note=43 velocity=0 time=0
EXTRACT: note_on channel=10 note=62 velocity=0 time=0
EXTRACT: note_on channel=10 note=62 velocity=0 time=0
EXTRACT: note_on channel=9 note=54 velocity=127 time=0.0069444375
EXTRACT: note_on channel=9 note=36 velocity=127 time=0
EXTRACT: note_on channel=9 note=42 velocity=127 time=0
EXTRACT: note_on channel=10 note=60 velocity=127 time=0
EXTRACT: note_on channel=11 note=51 velocity=127 time=0
EXTRACT: note_on channel=11 note=55 velocity=127 time=0
EXTRACT: note_on channel=11 note=60 velocity=127 time=0
EXTRACT: note_on channel=12 note=47 velocity=127 time=0
EXTRACT: note_on channel=13 note=51 velocity=127 time=0
EXTRACT: note_on channel=13 note=55 velocity=127 time=0
EXTRACT: note_on channel=13 note=60 velocity=127 time=0
EXTRACT: note_on channel=14 note=47 velocity=127 time=0
EXTRACT: note_on channel=10 note=60 velocity=127 time=0
EXTRACT: note_on channel=10 note=60 velocity=127 time=0
EXTRACT: note_on channel=9 note=54 velocity=0 time=0.1319443125
EXTRACT: note_on channel=9 note=36 velocity=0 time=0
EXTRACT: note_on channel=9 note=42 velocity=0 time=0
EXTRACT: note_on channel=9 note=54 velocity=127 time=0.0069444375
EXTRACT: note_on channel=9 note=56 velocity=127 time=0
EXTRACT: note_on channel=9 note=42 velocity=127 time=0
EXTRACT: note_on channel=9 note=54 velocity=0 time=0.1319443125
EXTRACT: note_on channel=9 note=56 velocity=0 time=0
EXTRACT: note_on channel=9 note=42 velocity=0 time=0
EXTRACT: note_on channel=12 note=47 velocity=0 time=0
EXTRACT: note_on channel=14 note=47 velocity=0 time=0
EXTRACT: note_on channel=9 note=54 velocity=127 time=0.0069444375
EXTRACT: note_on channel=9 note=42 velocity=127 time=0
EXTRACT: note_on channel=12 note=48 velocity=127 time=0
EXTRACT: note_on channel=14 note=48 velocity=127 time=0
EXTRACT: note_on channel=9 note=54 velocity=0 time=0.1319443125
EXTRACT: note_on channel=9 note=42 velocity=0 time=0
EXTRACT: note_on channel=9 note=46 velocity=127 time=0.0069444375
EXTRACT: note_on channel=9 note=54 velocity=127 time=0
EXTRACT: note_on channel=9 note=56 velocity=127 time=0
EXTRACT: note_on channel=9 note=36 velocity=127 time=0
EXTRACT: note_on channel=9 note=46 velocity=0 time=0.1319443125
EXTRACT: note_on channel=9 note=54 velocity=0 time=0
EXTRACT: note_on channel=9 note=56 velocity=0 time=0
EXTRACT: note_on channel=9 note=36 velocity=0 time=0
EXTRACT: note_on channel=12 note=48 velocity=0 time=0
EXTRACT: note_on channel=14 note=48 velocity=0 time=0
EXTRACT: note_on channel=9 note=54 velocity=127 time=0.0069444375
EXTRACT: note_on channel=9 note=56 velocity=127 time=0
EXTRACT: note_on channel=9 note=36 velocity=127 time=0
EXTRACT: note_on channel=9 note=42 velocity=127 time=0
EXTRACT: note_on channel=12 note=48 velocity=127 time=0
EXTRACT: note_on channel=14 note=48 velocity=127 time=0
EXTRACT: note_on channel=9 note=54 velocity=0 time=0.1319443125
EXTRACT: note_on channel=9 note=56 velocity=0 time=0
EXTRACT: note_on channel=9 note=36 velocity=0 time=0
EXTRACT: note_on channel=9 note=42 velocity=0 time=0
EXTRACT: note_on channel=9 note=56 velocity=127 time=0.0069444375
EXTRACT: note_on channel=9 note=36 velocity=127 time=0
EXTRACT: note_on channel=9 note=42 velocity=127 time=0
EXTRACT: note_on channel=10 note=60 velocity=0 time=0.04629625
EXTRACT: note_on channel=10 note=60 velocity=0 time=0
EXTRACT: note_on channel=10 note=60 velocity=0 time=0
EXTRACT: note_on channel=9 note=56 velocity=0 time=0.0856480625
EXTRACT: note_on channel=9 note=36 velocity=0 time=0
EXTRACT: note_on channel=9 note=42 velocity=0 time=0
EXTRACT: note_on channel=9 note=46 velocity=127 time=0.0069444375
EXTRACT: note_on channel=9 note=54 velocity=127 time=0
EXTRACT: note_on channel=9 note=56 velocity=127 time=0
EXTRACT: note_on channel=9 note=39 velocity=127 time=0
EXTRACT: note_on channel=9 note=46 velocity=0 time=0.1319443125
EXTRACT: note_on channel=9 note=54 velocity=0 time=0
EXTRACT: note_on channel=9 note=56 velocity=0 time=0
EXTRACT: note_on channel=9 note=39 velocity=0 time=0
EXTRACT: note_on channel=9 note=54 velocity=127 time=0.0069444375
EXTRACT: note_on channel=9 note=42 velocity=127 time=0
EXTRACT: note_on channel=12 note=48 velocity=0 time=0.04629625
EXTRACT: note_on channel=14 note=48 velocity=0 time=0
EXTRACT: note_on channel=9 note=54 velocity=0 time=0.0856480625
EXTRACT: note_on channel=9 note=42 velocity=0 time=0
EXTRACT: note_on channel=9 note=54 velocity=127 time=0.0069444375
EXTRACT: note_on channel=9 note=56 velocity=127 time=0
EXTRACT: note_on channel=9 note=36 velocity=127 time=0
EXTRACT: note_on channel=9 note=42 velocity=127 time=0
EXTRACT: note_on channel=12 note=38 velocity=127 time=0
EXTRACT: note_on channel=14 note=38 velocity=127 time=0
EXTRACT: note_on channel=9 note=54 velocity=0 time=0.1319443125
EXTRACT: note_on channel=9 note=56 velocity=0 time=0
EXTRACT: note_on channel=9 note=36 velocity=0 time=0
EXTRACT: note_on channel=9 note=42 velocity=0 time=0
EXTRACT: note_on channel=9 note=54 velocity=127 time=0.0069444375
EXTRACT: note_on channel=9 note=42 velocity=127 time=0
EXTRACT: note_on channel=11 note=51 velocity=0 time=0
EXTRACT: note_on channel=11 note=55 velocity=0 time=0
EXTRACT: note_on channel=11 note=60 velocity=0 time=0
EXTRACT: note_on channel=13 note=51 velocity=0 time=0
EXTRACT: note_on channel=13 note=55 velocity=0 time=0
EXTRACT: note_on channel=13 note=60 velocity=0 time=0
EXTRACT: note_on channel=9 note=54 velocity=0 time=0.1319443125
EXTRACT: note_on channel=9 note=42 velocity=0 time=0
EXTRACT: note_on channel=12 note=38 velocity=0 time=0
EXTRACT: note_on channel=14 note=38 velocity=0 time=0
EXTRACT: note_on channel=10 note=70 velocity=127 time=0
EXTRACT: note_on channel=11 note=63 velocity=127 time=0
EXTRACT: note_on channel=11 note=67 velocity=127 time=0
EXTRACT: note_on channel=11 note=70 velocity=127 time=0
EXTRACT: note_on channel=12 note=39 velocity=127 time=0
EXTRACT: note_on channel=13 note=63 velocity=127 time=0
EXTRACT: note_on channel=13 note=67 velocity=127 time=0
EXTRACT: note_on channel=13 note=70 velocity=127 time=0
EXTRACT: note_on channel=14 note=39 velocity=127 time=0
EXTRACT: note_on channel=10 note=70 velocity=127 time=0
EXTRACT: note_on channel=10 note=70 velocity=127 time=0
EXTRACT: note_on channel=10 note=70 velocity=0 time=0.74074
EXTRACT: note_on channel=11 note=63 velocity=0 time=0
EXTRACT: note_on channel=11 note=67 velocity=0 time=0
EXTRACT: note_on channel=11 note=70 velocity=0 time=0
EXTRACT: note_on channel=13 note=63 velocity=0 time=0
EXTRACT: note_on channel=13 note=67 velocity=0 time=0
EXTRACT: note_on channel=13 note=70 velocity=0 time=0
EXTRACT: note_on channel=10 note=70 velocity=0 time=0
EXTRACT: note_on channel=10 note=70 velocity=0 time=0
EXTRACT: note_on channel=10 note=70 velocity=127 time=0.0925925
EXTRACT: note_on channel=11 note=63 velocity=127 time=0
EXTRACT: note_on channel=11 note=67 velocity=127 time=0
EXTRACT: note_on channel=11 note=70 velocity=127 time=0
EXTRACT: note_on channel=13 note=63 velocity=127 time=0
EXTRACT: note_on channel=13 note=67 velocity=127 time=0
EXTRACT: note_on channel=13 note=70 velocity=127 time=0
EXTRACT: note_on channel=10 note=70 velocity=127 time=0
EXTRACT: note_on channel=10 note=70 velocity=127 time=0
EXTRACT: note_on channel=12 note=39 velocity=0 time=0.13888875
EXTRACT: note_on channel=14 note=39 velocity=0 time=0
EXTRACT: note_on channel=12 note=39 velocity=127 time=0.13888875
EXTRACT: note_on channel=14 note=39 velocity=127 time=0
EXTRACT: note_on channel=10 note=70 velocity=0 time=0.4629625
EXTRACT: note_on channel=10 note=70 velocity=0 time=0
EXTRACT: note_on channel=10 note=70 velocity=0 time=0
EXTRACT: note_on channel=11 note=63 velocity=0 time=0.2777775
EXTRACT: note_on channel=11 note=67 velocity=0 time=0
EXTRACT: note_on channel=11 note=70 velocity=0 time=0
EXTRACT: note_on channel=13 note=63 velocity=0 time=0
EXTRACT: note_on channel=13 note=67 velocity=0 time=0
EXTRACT: note_on channel=13 note=70 velocity=0 time=0
EXTRACT: note_on channel=10 note=65 velocity=127 time=0.0925925
EXTRACT: note_on channel=11 note=65 velocity=127 time=0
EXTRACT: note_on channel=13 note=65 velocity=127 time=0
EXTRACT: note_on channel=10 note=65 velocity=127 time=0
EXTRACT: note_on channel=10 note=65 velocity=127 time=0
EXTRACT: note_on channel=12 note=39 velocity=0 time=0.13888875
EXTRACT: note_on channel=14 note=39 velocity=0 time=0
EXTRACT: note_on channel=10 note=65 velocity=0 time=0.1319443125
EXTRACT: note_on channel=11 note=65 velocity=0 time=0
EXTRACT: note_on channel=13 note=65 velocity=0 time=0
EXTRACT: note_on channel=10 note=65 velocity=0 time=0
EXTRACT: note_on channel=10 note=65 velocity=0 time=0
EXTRACT: note_on channel=10 note=65 velocity=127 time=0
EXTRACT: note_on channel=11 note=58 velocity=127 time=0
EXTRACT: note_on channel=11 note=63 velocity=127 time=0
EXTRACT: note_on channel=11 note=65 velocity=127 time=0
EXTRACT: note_on channel=12 note=39 velocity=127 time=0
EXTRACT: note_on channel=13 note=58 velocity=127 time=0
EXTRACT: note_on channel=13 note=63 velocity=127 time=0
EXTRACT: note_on channel=13 note=65 velocity=127 time=0
EXTRACT: note_on channel=14 note=39 velocity=127 time=0
EXTRACT: note_on channel=10 note=65 velocity=127 time=0
EXTRACT: note_on channel=10 note=65 velocity=127 time=0
EXTRACT: note_on channel=10 note=65 velocity=0 time=0.4097218125
EXTRACT: note_on channel=11 note=58 velocity=0 time=0
EXTRACT: note_on channel=11 note=63 velocity=0 time=0
EXTRACT: note_on channel=11 note=65 velocity=0 time=0
EXTRACT: note_on channel=13 note=58 velocity=0 time=0
EXTRACT: note_on channel=13 note=63 velocity=0 time=0
EXTRACT: note_on channel=13 note=65 velocity=0 time=0
EXTRACT: note_on channel=10 note=65 velocity=0 time=0
EXTRACT: note_on channel=10 note=65 velocity=0 time=0
EXTRACT: note_on channel=10 note=67 velocity=127 time=0.0069444375
EXTRACT: note_on channel=11 note=67 velocity=127 time=0
EXTRACT: note_on channel=13 note=67 velocity=127 time=0
EXTRACT: note_on channel=10 note=67 velocity=127 time=0
EXTRACT: note_on channel=10 note=67 velocity=127 time=0
EXTRACT: note_on channel=12 note=39 velocity=0 time=0.32407375
EXTRACT: note_on channel=14 note=39 velocity=0 time=0
EXTRACT: note_on channel=10 note=67 velocity=0 time=0.0856480625
EXTRACT: note_on channel=11 note=67 velocity=0 time=0
EXTRACT: note_on channel=13 note=67 velocity=0 time=0
EXTRACT: note_on channel=10 note=67 velocity=0 time=0
EXTRACT: note_on channel=10 note=67 velocity=0 time=0
EXTRACT: note_on channel=10 note=63 velocity=127 time=0.0069444375
EXTRACT: note_on channel=11 note=55 velocity=127 time=0
EXTRACT: note_on channel=11 note=58 velocity=127 time=0
EXTRACT: note_on channel=11 note=63 velocity=127 time=0
EXTRACT: note_on channel=12 note=39 velocity=127 time=0
EXTRACT: note_on channel=13 note=55 velocity=127 time=0
EXTRACT: note_on channel=13 note=58 velocity=127 time=0
EXTRACT: note_on channel=13 note=63 velocity=127 time=0
EXTRACT: note_on channel=14 note=39 velocity=127 time=0
EXTRACT: note_on channel=10 note=63 velocity=127 time=0
EXTRACT: note_on channel=10 note=63 velocity=127 time=0
EXTRACT: note_on channel=12 note=39 velocity=0 time=0.2708330625
EXTRACT: note_on channel=14 note=39 velocity=0 time=0
EXTRACT: note_on channel=12 note=39 velocity=127 time=0.0069444375
EXTRACT: note_on channel=14 note=39 velocity=127 time=0
EXTRACT: note_on channel=12 note=39 velocity=0 time=0.4629625
EXTRACT: note_on channel=14 note=39 velocity=0 time=0
EXTRACT: note_on channel=12 note=46 velocity=127 time=0.0925925
EXTRACT: note_on channel=14 note=46 velocity=127 time=0
EXTRACT: note_on channel=10 note=63 velocity=0 time=0.41666625
EXTRACT: note_on channel=11 note=55 velocity=0 time=0
EXTRACT: note_on channel=11 note=58 velocity=0 time=0
EXTRACT: note_on channel=11 note=63 velocity=0 time=0
EXTRACT: note_on channel=13 note=55 velocity=0 time=0
EXTRACT: note_on channel=13 note=58 velocity=0 time=0
EXTRACT: note_on channel=13 note=63 velocity=0 time=0
EXTRACT: note_on channel=10 note=63 velocity=0 time=0
EXTRACT: note_on channel=10 note=63 velocity=0 time=0
EXTRACT: note_on channel=12 note=46 velocity=0 time=0.04629625
EXTRACT: note_on channel=14 note=46 velocity=0 time=0
EXTRACT: note_on channel=11 note=63 velocity=127 time=0
EXTRACT: note_on channel=11 note=67 velocity=127 time=0
EXTRACT: note_on channel=12 note=39 velocity=127 time=0
EXTRACT: note_on channel=13 note=63 velocity=127 time=0
EXTRACT: note_on channel=13 note=67 velocity=127 time=0
EXTRACT: note_on channel=14 note=39 velocity=127 time=0
EXTRACT: note_on channel=11 note=63 velocity=0 time=0.2708330625
EXTRACT: note_on channel=11 note=67 velocity=0 time=0
EXTRACT: note_on channel=13 note=63 velocity=0 time=0
EXTRACT: note_on channel=13 note=67 velocity=0 time=0
EXTRACT: note_on channel=10 note=70 velocity=127 time=0.0069444375
EXTRACT: note_on channel=11 note=70 velocity=127 time=0
EXTRACT: note_on channel=13 note=70 velocity=127 time=0
EXTRACT: note_on channel=10 note=70 velocity=127 time=0
EXTRACT: note_on channel=10 note=70 velocity=127 time=0
EXTRACT: note_on channel=10 note=70 velocity=0 time=0.2708330625
EXTRACT: note_on channel=11 note=70 velocity=0 time=0
EXTRACT: note_on channel=13 note=70 velocity=0 time=0
EXTRACT: note_on channel=10 note=70 velocity=0 time=0
EXTRACT: note_on channel=10 note=70 velocity=0 time=0
EXTRACT: note_on channel=10 note=70 velocity=127 time=0.0069444375
EXTRACT: note_on channel=11 note=70 velocity=127 time=0
EXTRACT: note_on channel=13 note=70 velocity=127 time=0
EXTRACT: note_on channel=10 note=70 velocity=127 time=0
EXTRACT: note_on channel=10 note=70 velocity=127 time=0
EXTRACT: note_on channel=10 note=70 velocity=0 time=0.2708330625
EXTRACT: note_on channel=11 note=70 velocity=0 time=0
EXTRACT: note_on channel=13 note=70 velocity=0 time=0
EXTRACT: note_on channel=10 note=70 velocity=0 time=0
EXTRACT: note_on channel=10 note=70 velocity=0 time=0
EXTRACT: note_on channel=10 note=70 velocity=127 time=0.0069444375
EXTRACT: note_on channel=11 note=70 velocity=127 time=0
EXTRACT: note_on channel=13 note=70 velocity=127 time=0
EXTRACT: note_on channel=10 note=70 velocity=127 time=0
EXTRACT: note_on channel=10 note=70 velocity=127 time=0
EXTRACT: note_on channel=12 note=39 velocity=0 time=0.13888875
EXTRACT: note_on channel=14 note=39 velocity=0 time=0
EXTRACT: note_on channel=10 note=70 velocity=0 time=0.1319443125
EXTRACT: note_on channel=11 note=70 velocity=0 time=0
EXTRACT: note_on channel=13 note=70 velocity=0 time=0
EXTRACT: note_on channel=10 note=70 velocity=0 time=0
EXTRACT: note_on channel=10 note=70 velocity=0 time=0
EXTRACT: note_on channel=10 note=70 velocity=127 time=0.0069444375
EXTRACT: note_on channel=11 note=63 velocity=127 time=0
EXTRACT: note_on channel=11 note=67 velocity=127 time=0
EXTRACT: note_on channel=11 note=70 velocity=127 time=0
EXTRACT: note_on channel=12 note=39 velocity=127 time=0
EXTRACT: note_on channel=13 note=63 velocity=127 time=0
EXTRACT: note_on channel=13 note=67 velocity=127 time=0
EXTRACT: note_on channel=13 note=70 velocity=127 time=0
EXTRACT: note_on channel=14 note=39 velocity=127 time=0
EXTRACT: note_on channel=10 note=70 velocity=127 time=0
EXTRACT: note_on channel=10 note=70 velocity=127 time=0
EXTRACT: note_on channel=10 note=70 velocity=0 time=0.2708330625
EXTRACT: note_on channel=11 note=63 velocity=0 time=0
EXTRACT: note_on channel=11 note=67 velocity=0 time=0
EXTRACT: note_on channel=11 note=70 velocity=0 time=0
EXTRACT: note_on channel=13 note=63 velocity=0 time=0
EXTRACT: note_on channel=13 note=67 velocity=0 time=0
EXTRACT: note_on channel=13 note=70 velocity=0 time=0
EXTRACT: note_on channel=10 note=70 velocity=0 time=0
EXTRACT: note_on channel=10 note=70 velocity=0 time=0
EXTRACT: note_on channel=10 note=63 velocity=127 time=0.0069444375
EXTRACT: note_on channel=11 note=63 velocity=127 time=0
EXTRACT: note_on channel=13 note=63 velocity=127 time=0
EXTRACT: note_on channel=10 note=63 velocity=127 time=0
EXTRACT: note_on channel=10 note=63 velocity=127 time=0
EXTRACT: note_on channel=10 note=63 velocity=0 time=0.2708330625
EXTRACT: note_on channel=10 note=63 velocity=0 time=0
EXTRACT: note_on channel=10 note=63 velocity=0 time=0
EXTRACT: note_on channel=11 note=63 velocity=0 time=0.1921294375
EXTRACT: note_on channel=13 note=63 velocity=0 time=0
EXTRACT: note_on channel=10 note=63 velocity=127 time=0.0925925
EXTRACT: note_on channel=11 note=63 velocity=127 time=0
EXTRACT: note_on channel=13 note=63 velocity=127 time=0
EXTRACT: note_on channel=10 note=63 velocity=127 time=0
EXTRACT: note_on channel=10 note=63 velocity=127 time=0
EXTRACT: note_on channel=12 note=39 velocity=0 time=0.13888875
EXTRACT: note_on channel=14 note=39 velocity=0 time=0
EXTRACT: note_on channel=10 note=63 velocity=0 time=0.1319443125
EXTRACT: note_on channel=11 note=63 velocity=0 time=0
EXTRACT: note_on channel=13 note=63 velocity=0 time=0
EXTRACT: note_on channel=10 note=63 velocity=0 time=0
EXTRACT: note_on channel=10 note=63 velocity=0 time=0
EXTRACT: note_on channel=10 note=65 velocity=127 time=0
EXTRACT: note_on channel=11 note=58 velocity=127 time=0
EXTRACT: note_on channel=11 note=63 velocity=127 time=0
EXTRACT: note_on channel=11 note=65 velocity=127 time=0
EXTRACT: note_on channel=12 note=39 velocity=127 time=0
EXTRACT: note_on channel=13 note=58 velocity=127 time=0
EXTRACT: note_on channel=13 note=63 velocity=127 time=0
EXTRACT: note_on channel=13 note=65 velocity=127 time=0
EXTRACT: note_on channel=14 note=39 velocity=127 time=0
EXTRACT: note_on channel=10 note=65 velocity=127 time=0
EXTRACT: note_on channel=10 note=65 velocity=127 time=0
EXTRACT: note_on channel=10 note=65 velocity=0 time=0.4097218125
EXTRACT: note_on channel=11 note=58 velocity=0 time=0
EXTRACT: note_on channel=11 note=63 velocity=0 time=0
EXTRACT: note_on channel=11 note=65 velocity=0 time=0
EXTRACT: note_on channel=13 note=58 velocity=0 time=0
EXTRACT: note_on channel=13 note=63 velocity=0 time=0
EXTRACT: note_on channel=13 note=65 velocity=0 time=0
EXTRACT: note_on channel=10 note=65 velocity=0 time=0
EXTRACT: note_on channel=10 note=65 velocity=0 time=0
EXTRACT: note_on channel=10 note=67 velocity=127 time=0.0069444375
EXTRACT: note_on channel=11 note=67 velocity=127 time=0
EXTRACT: note_on channel=13 note=67 velocity=127 time=0
EXTRACT: note_on channel=10 note=67 velocity=127 time=0
EXTRACT: note_on channel=10 note=67 velocity=127 time=0
EXTRACT: note_on channel=12 note=39 velocity=0 time=0.32407375
EXTRACT: note_on channel=14 note=39 velocity=0 time=0
EXTRACT: note_on channel=10 note=67 velocity=0 time=0.0856480625
EXTRACT: note_on channel=11 note=67 velocity=0 time=0
EXTRACT: note_on channel=13 note=67 velocity=0 time=0
EXTRACT: note_on channel=10 note=67 velocity=0 time=0
EXTRACT: note_on channel=10 note=67 velocity=0 time=0
EXTRACT: note_on channel=10 note=67 velocity=127 time=0.0069444375
EXTRACT: note_on channel=11 note=58 velocity=127 time=0
EXTRACT: note_on channel=11 note=63 velocity=127 time=0
EXTRACT: note_on channel=11 note=67 velocity=127 time=0
EXTRACT: note_on channel=12 note=39 velocity=127 time=0
EXTRACT: note_on channel=13 note=58 velocity=127 time=0
EXTRACT: note_on channel=13 note=63 velocity=127 time=0
EXTRACT: note_on channel=13 note=67 velocity=127 time=0
EXTRACT: note_on channel=14 note=39 velocity=127 time=0
EXTRACT: note_on channel=10 note=67 velocity=127 time=0
EXTRACT: note_on channel=10 note=67 velocity=127 time=0
EXTRACT: note_on channel=12 note=39 velocity=0 time=0.2708330625
EXTRACT: note_on channel=14 note=39 velocity=0 time=0
EXTRACT: note_on channel=12 note=39 velocity=127 time=0.0069444375
EXTRACT: note_on channel=14 note=39 velocity=127 time=0
EXTRACT: note_on channel=11 note=58 velocity=0 time=0.1319443125
EXTRACT: note_on channel=11 note=63 velocity=0 time=0
EXTRACT: note_on channel=11 note=67 velocity=0 time=0
EXTRACT: note_on channel=13 note=58 velocity=0 time=0
EXTRACT: note_on channel=13 note=63 velocity=0 time=0
EXTRACT: note_on channel=13 note=67 velocity=0 time=0
EXTRACT: note_on channel=10 note=67 velocity=0 time=0.0069444375
EXTRACT: note_on channel=10 note=65 velocity=127 time=0
EXTRACT: note_on channel=11 note=65 velocity=127 time=0
EXTRACT: note_on channel=13 note=65 velocity=127 time=0
EXTRACT: note_on channel=10 note=67 velocity=0 time=0
EXTRACT: note_on channel=10 note=65 velocity=127 time=0
EXTRACT: note_on channel=10 note=67 velocity=0 time=0
EXTRACT: note_on channel=10 note=65 velocity=127 time=0
EXTRACT: note_on channel=11 note=65 velocity=0 time=0.1319443125
EXTRACT: note_on channel=13 note=65 velocity=0 time=0
EXTRACT: note_on channel=10 note=65 velocity=0 time=0.0069444375
EXTRACT: note_on channel=10 note=63 velocity=127 time=0
EXTRACT: note_on channel=11 note=63 velocity=127 time=0
EXTRACT: note_on channel=13 note=63 velocity=127 time=0
EXTRACT: note_on channel=10 note=65 velocity=0 time=0
EXTRACT: note_on channel=10 note=63 velocity=127 time=0
EXTRACT: note_on channel=10 note=65 velocity=0 time=0
EXTRACT: note_on channel=10 note=63 velocity=127 time=0
EXTRACT: note_on channel=12 note=39 velocity=0 time=0.185185
EXTRACT: note_on channel=14 note=39 velocity=0 time=0
EXTRACT: note_on channel=10 note=63 velocity=0 time=0.0856480625
EXTRACT: note_on channel=11 note=63 velocity=0 time=0
EXTRACT: note_on channel=13 note=63 velocity=0 time=0
EXTRACT: note_on channel=10 note=63 velocity=0 time=0
EXTRACT: note_on channel=10 note=63 velocity=0 time=0
EXTRACT: note_on channel=12 note=46 velocity=127 time=0.0069444375
EXTRACT: note_on channel=14 note=46 velocity=127 time=0
EXTRACT: note_on channel=12 note=46 velocity=0 time=0.4629625
EXTRACT: note_on channel=14 note=46 velocity=0 time=0
EXTRACT: note_on channel=10 note=70 velocity=127 time=0.0925925
EXTRACT: note_on channel=11 note=60 velocity=127 time=0
EXTRACT: note_on channel=11 note=63 velocity=127 time=0
EXTRACT: note_on channel=11 note=66 velocity=127 time=0
EXTRACT: note_on channel=11 note=70 velocity=127 time=0
EXTRACT: note_on channel=12 note=47 velocity=127 time=0
EXTRACT: note_on channel=13 note=60 velocity=127 time=0
EXTRACT: note_on channel=13 note=63 velocity=127 time=0
EXTRACT: note_on channel=13 note=66 velocity=127 time=0
EXTRACT: note_on channel=13 note=70 velocity=127 time=0
EXTRACT: note_on channel=14 note=47 velocity=127 time=0
EXTRACT: note_on channel=10 note=70 velocity=127 time=0
EXTRACT: note_on channel=10 note=70 velocity=127 time=0
EXTRACT: note_on channel=10 note=70 velocity=0 time=0.74074
EXTRACT: note_on channel=11 note=60 velocity=0 time=0
EXTRACT: note_on channel=11 note=63 velocity=0 time=0
EXTRACT: note_on channel=11 note=66 velocity=0 time=0
EXTRACT: note_on channel=11 note=70 velocity=0 time=0
EXTRACT: note_on channel=12 note=47 velocity=0 time=0
EXTRACT: note_on channel=13 note=60 velocity=0 time=0
EXTRACT: note_on channel=13 note=63 velocity=0 time=0
EXTRACT: note_on channel=13 note=66 velocity=0 time=0
EXTRACT: note_on channel=13 note=70 velocity=0 time=0
EXTRACT: note_on channel=14 note=47 velocity=0 time=0
EXTRACT: note_on channel=10 note=70 velocity=0 time=0
EXTRACT: note_on channel=10 note=70 velocity=0 time=0
EXTRACT: note_on channel=10 note=70 velocity=127 time=0.0925925
EXTRACT: note_on channel=11 note=60 velocity=127 time=0
EXTRACT: note_on channel=11 note=63 velocity=127 time=0
EXTRACT: note_on channel=11 note=66 velocity=127 time=0
EXTRACT: note_on channel=11 note=70 velocity=127 time=0
EXTRACT: note_on channel=12 note=47 velocity=127 time=0
EXTRACT: note_on channel=13 note=60 velocity=127 time=0
EXTRACT: note_on channel=13 note=63 velocity=127 time=0
EXTRACT: note_on channel=13 note=66 velocity=127 time=0
EXTRACT: note_on channel=13 note=70 velocity=127 time=0
EXTRACT: note_on channel=14 note=47 velocity=127 time=0
EXTRACT: note_on channel=10 note=70 velocity=127 time=0
EXTRACT: note_on channel=10 note=70 velocity=127 time=0
EXTRACT: note_on channel=12 note=47 velocity=0 time=0.2708330625
EXTRACT: note_on channel=14 note=47 velocity=0 time=0
EXTRACT: note_on channel=12 note=47 velocity=127 time=0.0069444375
EXTRACT: note_on channel=14 note=47 velocity=127 time=0
EXTRACT: note_on channel=10 note=70 velocity=0 time=0.4629625
EXTRACT: note_on channel=11 note=60 velocity=0 time=0
EXTRACT: note_on channel=11 note=63 velocity=0 time=0
EXTRACT: note_on channel=11 note=66 velocity=0 time=0
EXTRACT: note_on channel=11 note=70 velocity=0 time=0
EXTRACT: note_on channel=13 note=60 velocity=0 time=0
EXTRACT: note_on channel=13 note=63 velocity=0 time=0
EXTRACT: note_on channel=13 note=66 velocity=0 time=0
EXTRACT: note_on channel=13 note=70 velocity=0 time=0
EXTRACT: note_on channel=10 note=70 velocity=0 time=0
EXTRACT: note_on channel=10 note=70 velocity=0 time=0
EXTRACT: note_on channel=10 note=66 velocity=127 time=0.0925925
EXTRACT: note_on channel=11 note=66 velocity=127 time=0
EXTRACT: note_on channel=13 note=66 velocity=127 time=0
EXTRACT: note_on channel=10 note=66 velocity=127 time=0
EXTRACT: note_on channel=10 note=66 velocity=127 time=0
EXTRACT: note_on channel=10 note=66 velocity=0 time=0.2708330625
EXTRACT: note_on channel=11 note=66 velocity=0 time=0
EXTRACT: note_on channel=13 note=66 velocity=0 time=0
EXTRACT: note_on channel=10 note=66 velocity=0 time=0
EXTRACT: note_on channel=10 note=66 velocity=0 time=0
EXTRACT: note_on channel=10 note=66 velocity=127 time=0.0069444375
EXTRACT: note_on channel=11 note=66 velocity=127 time=0
EXTRACT: note_on channel=13 note=66 velocity=127 time=0
EXTRACT: note_on channel=10 note=66 velocity=127 time=0
EXTRACT: note_on channel=10 note=66 velocity=127 time=0
EXTRACT: note_on channel=12 note=47 velocity=0 time=0.13888875
EXTRACT: note_on channel=14 note=47 velocity=0 time=0
EXTRACT: note_on channel=10 note=66 velocity=0 time=0.1319443125
EXTRACT: note_on channel=11 note=66 velocity=0 time=0
EXTRACT: note_on channel=13 note=66 velocity=0 time=0
EXTRACT: note_on channel=10 note=66 velocity=0 time=0
EXTRACT: note_on channel=10 note=66 velocity=0 time=0
EXTRACT: note_on channel=10 note=73 velocity=127 time=0.0069444375
EXTRACT: note_on channel=11 note=65 velocity=127 time=0
EXTRACT: note_on channel=11 note=68 velocity=127 time=0
EXTRACT: note_on channel=11 note=73 velocity=127 time=0
EXTRACT: note_on channel=12 note=46 velocity=127 time=0
EXTRACT: note_on channel=13 note=65 velocity=127 time=0
EXTRACT: note_on channel=13 note=68 velocity=127 time=0
EXTRACT: note_on channel=13 note=73 velocity=127 time=0
EXTRACT: note_on channel=14 note=46 velocity=127 time=0
EXTRACT: note_on channel=10 note=73 velocity=127 time=0
EXTRACT: note_on channel=10 note=73 velocity=127 time=0
EXTRACT: note_on channel=10 note=73 velocity=0 time=0.4097218125
EXTRACT: note_on channel=11 note=65 velocity=0 time=0
EXTRACT: note_on channel=11 note=68 velocity=0 time=0
EXTRACT: note_on channel=11 note=73 velocity=0 time=0
EXTRACT: note_on channel=13 note=65 velocity=0 time=0
EXTRACT: note_on channel=13 note=68 velocity=0 time=0
EXTRACT: note_on channel=13 note=73 velocity=0 time=0
EXTRACT: note_on channel=10 note=73 velocity=0 time=0
EXTRACT: note_on channel=10 note=73 velocity=0 time=0
EXTRACT: note_on channel=10 note=71 velocity=127 time=0.0069444375
EXTRACT: note_on channel=11 note=71 velocity=127 time=0
EXTRACT: note_on channel=13 note=71 velocity=127 time=0
EXTRACT: note_on channel=10 note=71 velocity=127 time=0
EXTRACT: note_on channel=10 note=71 velocity=127 time=0
EXTRACT: note_on channel=12 note=46 velocity=0 time=0.32407375
EXTRACT: note_on channel=14 note=46 velocity=0 time=0
EXTRACT: note_on channel=10 note=71 velocity=0 time=0.0856480625
EXTRACT: note_on channel=11 note=71 velocity=0 time=0
EXTRACT: note_on channel=13 note=71 velocity=0 time=0
EXTRACT: note_on channel=10 note=71 velocity=0 time=0
EXTRACT: note_on channel=10 note=71 velocity=0 time=0
EXTRACT: note_on channel=10 note=70 velocity=127 time=0.0069444375
EXTRACT: note_on channel=11 note=61 velocity=127 time=0
EXTRACT: note_on channel=11 note=66 velocity=127 time=0
EXTRACT: note_on channel=11 note=70 velocity=127 time=0
EXTRACT: note_on channel=12 note=46 velocity=127 time=0
EXTRACT: note_on channel=13 note=61 velocity=127 time=0
EXTRACT: note_on channel=13 note=66 velocity=127 time=0
EXTRACT: note_on channel=13 note=70 velocity=127 time=0
EXTRACT: note_on channel=14 note=46 velocity=127 time=0
EXTRACT: note_on channel=10 note=70 velocity=127 time=0
EXTRACT: note_on channel=10 note=70 velocity=127 time=0
EXTRACT: note_on channel=12 note=46 velocity=0 time=0.2708330625
EXTRACT: note_on channel=14 note=46 velocity=0 time=0
EXTRACT: note_on channel=12 note=39 velocity=127 time=0.0069444375
EXTRACT: note_on channel=14 note=39 velocity=127 time=0
EXTRACT: note_on channel=10 note=70 velocity=0 time=0.1319443125
EXTRACT: note_on channel=11 note=61 velocity=0 time=0
EXTRACT: note_on channel=11 note=66 velocity=0 time=0
EXTRACT: note_on channel=11 note=70 velocity=0 time=0
EXTRACT: note_on channel=13 note=61 velocity=0 time=0
EXTRACT: note_on channel=13 note=66 velocity=0 time=0
EXTRACT: note_on channel=13 note=70 velocity=0 time=0
EXTRACT: note_on channel=10 note=70 velocity=0 time=0
EXTRACT: note_on channel=10 note=70 velocity=0 time=0
EXTRACT: note_on channel=10 note=68 velocity=127 time=0.0069444375
EXTRACT: note_on channel=11 note=68 velocity=127 time=0
EXTRACT: note_on channel=13 note=68 velocity=127 time=0
EXTRACT: note_on channel=10 note=68 velocity=127 time=0
EXTRACT: note_on channel=10 note=68 velocity=127 time=0
EXTRACT: note_on channel=10 note=68 velocity=0 time=0.1319443125
EXTRACT: note_on channel=11 note=68 velocity=0 time=0
EXTRACT: note_on channel=13 note=68 velocity=0 time=0
EXTRACT: note_on channel=10 note=68 velocity=0 time=0
EXTRACT: note_on channel=10 note=68 velocity=0 time=0
EXTRACT: note_on channel=10 note=66 velocity=127 time=0.0069444375
EXTRACT: note_on channel=11 note=66 velocity=127 time=0
EXTRACT: note_on channel=13 note=66 velocity=127 time=0
EXTRACT: note_on channel=10 note=66 velocity=127 time=0
EXTRACT: note_on channel=10 note=66 velocity=127 time=0
EXTRACT: note_on channel=12 note=39 velocity=0 time=0.69444375
EXTRACT: note_on channel=14 note=39 velocity=0 time=0
EXTRACT: note_on channel=10 note=66 velocity=0 time=0.04629625
EXTRACT: note_on channel=11 note=66 velocity=0 time=0
EXTRACT: note_on channel=13 note=66 velocity=0 time=0
EXTRACT: note_on channel=10 note=66 velocity=0 time=0
EXTRACT: note_on channel=10 note=66 velocity=0 time=0
EXTRACT: note_on channel=11 note=59 velocity=127 time=0.0925925
EXTRACT: note_on channel=11 note=63 velocity=127 time=0
EXTRACT: note_on channel=11 note=66 velocity=127 time=0
EXTRACT: note_on channel=12 note=47 velocity=127 time=0
EXTRACT: note_on channel=13 note=59 velocity=127 time=0
EXTRACT: note_on channel=13 note=63 velocity=127 time=0
EXTRACT: note_on channel=13 note=66 velocity=127 time=0
EXTRACT: note_on channel=14 note=47 velocity=127 time=0
EXTRACT: note_on channel=10 note=72 velocity=0 time=0.1319443125
EXTRACT: note_on channel=11 note=72 velocity=0 time=0
EXTRACT: note_on channel=13 note=72 velocity=0 time=0
EXTRACT: note_on channel=11 note=59 velocity=0 time=0.3310181875
EXTRACT: note_on channel=11 note=63 velocity=0 time=0
EXTRACT: note_on channel=11 note=66 velocity=0 time=0
EXTRACT: note_on channel=13 note=59 velocity=0 time=0
EXTRACT: note_on channel=13 note=63 velocity=0 time=0
EXTRACT: note_on channel=13 note=66 velocity=0 time=0
EXTRACT: note_on channel=10 note=71 velocity=127 time=0.0925925
EXTRACT: note_on channel=11 note=71 velocity=127 time=0
EXTRACT: note_on channel=13 note=71 velocity=127 time=0
EXTRACT: note_on channel=10 note=71 velocity=127 time=0
EXTRACT: note_on channel=10 note=71 velocity=127 time=0
EXTRACT: note_on channel=12 note=47 velocity=0 time=0.185185
EXTRACT: note_on channel=14 note=47 velocity=0 time=0
EXTRACT: note_on channel=10 note=71 velocity=0 time=0.0856480625
EXTRACT: note_on channel=11 note=71 velocity=0 time=0
EXTRACT: note_on channel=13 note=71 velocity=0 time=0
EXTRACT: note_on channel=10 note=71 velocity=0 time=0
EXTRACT: note_on channel=10 note=71 velocity=0 time=0
EXTRACT: note_on channel=10 note=71 velocity=127 time=0.0069444375
EXTRACT: note_on channel=11 note=71 velocity=127 time=0
EXTRACT: note_on channel=12 note=47 velocity=127 time=0
EXTRACT: note_on channel=13 note=71 velocity=127 time=0
EXTRACT: note_on channel=14 note=47 velocity=127 time=0
EXTRACT: note_on channel=10 note=71 velocity=127 time=0
EXTRACT: note_on channel=10 note=71 velocity=127 time=0
EXTRACT: note_on channel=10 note=71 velocity=0 time=0.2708330625
EXTRACT: note_on channel=11 note=71 velocity=0 time=0
EXTRACT: note_on channel=12 note=47 velocity=0 time=0
EXTRACT: note_on channel=13 note=71 velocity=0 time=0
EXTRACT: note_on channel=14 note=47 velocity=0 time=0
EXTRACT: note_on channel=10 note=71 velocity=0 time=0
EXTRACT: note_on channel=10 note=71 velocity=0 time=0
EXTRACT: note_on channel=10 note=73 velocity=127 time=0.0069444375
EXTRACT: note_on channel=11 note=63 velocity=127 time=0
EXTRACT: note_on channel=11 note=66 velocity=127 time=0
EXTRACT: note_on channel=11 note=73 velocity=127 time=0
EXTRACT: note_on channel=12 note=47 velocity=127 time=0
EXTRACT: note_on channel=13 note=63 velocity=127 time=0
EXTRACT: note_on channel=13 note=66 velocity=127 time=0
EXTRACT: note_on channel=13 note=73 velocity=127 time=0
EXTRACT: note_on channel=14 note=47 velocity=127 time=0
EXTRACT: note_on channel=10 note=73 velocity=127 time=0
EXTRACT: note_on channel=10 note=73 velocity=127 time=0
EXTRACT: note_on channel=10 note=73 velocity=0 time=0.4629625
EXTRACT: note_on channel=11 note=63 velocity=0 time=0
EXTRACT: note_on channel=11 note=66 velocity=0 time=0
EXTRACT: note_on channel=11 note=73 velocity=0 time=0
EXTRACT: note_on channel=13 note=63 velocity=0 time=0
EXTRACT: note_on channel=13 note=66 velocity=0 time=0
EXTRACT: note_on channel=13 note=73 velocity=0 time=0
EXTRACT: note_on channel=10 note=73 velocity=0 time=0
EXTRACT: note_on channel=10 note=73 velocity=0 time=0
EXTRACT: note_on channel=10 note=71 velocity=127 time=0.0925925
EXTRACT: note_on channel=11 note=71 velocity=127 time=0
EXTRACT: note_on channel=13 note=71 velocity=127 time=0
EXTRACT: note_on channel=10 note=71 velocity=127 time=0
EXTRACT: note_on channel=10 note=71 velocity=127 time=0
EXTRACT: note_on channel=12 note=47 velocity=0 time=0.185185
EXTRACT: note_on channel=14 note=47 velocity=0 time=0
EXTRACT: note_on channel=10 note=71 velocity=0 time=0.0856480625
EXTRACT: note_on channel=11 note=71 velocity=0 time=0
EXTRACT: note_on channel=13 note=71 velocity=0 time=0
EXTRACT: note_on channel=10 note=71 velocity=0 time=0
EXTRACT: note_on channel=10 note=71 velocity=0 time=0
EXTRACT: note_on channel=10 note=71 velocity=127 time=0.0069444375
EXTRACT: note_on channel=11 note=63 velocity=127 time=0
EXTRACT: note_on channel=11 note=68 velocity=127 time=0
EXTRACT: note_on channel=11 note=71 velocity=127 time=0
EXTRACT: note_on channel=12 note=47 velocity=127 time=0
EXTRACT: note_on channel=13 note=63 velocity=127 time=0
EXTRACT: note_on channel=13 note=68 velocity=127 time=0
EXTRACT: note_on channel=13 note=71 velocity=127 time=0
EXTRACT: note_on channel=14 note=47 velocity=127 time=0
EXTRACT: note_on channel=10 note=71 velocity=127 time=0
EXTRACT: note_on channel=10 note=71 velocity=127 time=0
EXTRACT: note_on channel=12 note=47 velocity=0 time=0.2708330625
EXTRACT: note_on channel=14 note=47 velocity=0 time=0
EXTRACT: note_on channel=12 note=46 velocity=127 time=0.0069444375
EXTRACT: note_on channel=14 note=46 velocity=127 time=0
EXTRACT: note_on channel=10 note=70 velocity=127 time=0.13888875
EXTRACT: note_on channel=11 note=70 velocity=127 time=0
EXTRACT: note_on channel=13 note=70 velocity=127 time=0
EXTRACT: note_on channel=10 note=70 velocity=127 time=0
EXTRACT: note_on channel=10 note=70 velocity=127 time=0
EXTRACT: note_on channel=10 note=70 velocity=0 time=0.1319443125
EXTRACT: note_on channel=11 note=70 velocity=0 time=0
EXTRACT: note_on channel=13 note=70 velocity=0 time=0
EXTRACT: note_on channel=10 note=70 velocity=0 time=0
EXTRACT: note_on channel=10 note=70 velocity=0 time=0
EXTRACT: note_on channel=10 note=70 velocity=127 time=0.0069444375
EXTRACT: note_on channel=11 note=70 velocity=127 time=0
EXTRACT: note_on channel=13 note=70 velocity=127 time=0
EXTRACT: note_on channel=10 note=70 velocity=127 time=0
EXTRACT: note_on channel=10 note=70 velocity=127 time=0
EXTRACT: note_on channel=11 note=63 velocity=0 time=0.69444375
EXTRACT: note_on channel=11 note=68 velocity=0 time=0
EXTRACT: note_on channel=13 note=63 velocity=0 time=0
EXTRACT: note_on channel=13 note=68 velocity=0 time=0
EXTRACT: note_on channel=11 note=62 velocity=127 time=0.13888875
EXTRACT: note_on channel=11 note=68 velocity=127 time=0
EXTRACT: note_on channel=13 note=62 velocity=127 time=0
EXTRACT: note_on channel=13 note=68 velocity=127 time=0
EXTRACT: note_on channel=10 note=70 velocity=0 time=0.97222125
EXTRACT: note_on channel=11 note=70 velocity=0 time=0
EXTRACT: note_on channel=11 note=62 velocity=0 time=0
EXTRACT: note_on channel=11 note=68 velocity=0 time=0
EXTRACT: note_on channel=12 note=46 velocity=0 time=0
EXTRACT: note_on channel=13 note=70 velocity=0 time=0
EXTRACT: note_on channel=13 note=62 velocity=0 time=0
EXTRACT: note_on channel=13 note=68 velocity=0 time=0
EXTRACT: note_on channel=14 note=46 velocity=0 time=0
EXTRACT: note_on channel=10 note=70 velocity=0 time=0
EXTRACT: note_on channel=10 note=70 velocity=0 time=0
EXTRACT: note_on channel=9 note=46 velocity=127 time=0.13888875
EXTRACT: note_on channel=9 note=54 velocity=127 time=0
EXTRACT: note_on channel=9 note=56 velocity=127 time=0
EXTRACT: note_on channel=9 note=36 velocity=127 time=0
EXTRACT: note_on channel=11 note=60 velocity=127 time=0
EXTRACT: note_on channel=11 note=63 velocity=127 time=0
EXTRACT: note_on channel=11 note=67 velocity=127 time=0
EXTRACT: note_on channel=12 note=48 velocity=127 time=0
EXTRACT: note_on channel=13 note=60 velocity=127 time=0
EXTRACT: note_on channel=13 note=63 velocity=127 time=0
EXTRACT: note_on channel=13 note=67 velocity=127 time=0
EXTRACT: note_on channel=14 note=48 velocity=127 time=0
EXTRACT: note_on channel=9 note=46 velocity=0 time=0.1319443125
EXTRACT: note_on channel=9 note=54 velocity=0 time=0
EXTRACT: note_on channel=9 note=56 velocity=0 time=0
EXTRACT: note_on channel=9 note=36 velocity=0 time=0
EXTRACT: note_on channel=9 note=54 velocity=127 time=0.0069444375
EXTRACT: note_on channel=9 note=42 velocity=127 time=0
EXTRACT: note_on channel=9 note=54 velocity=0 time=0.1319443125
EXTRACT: note_on channel=12 note=48 velocity=0 time=0
EXTRACT: note_on channel=14 note=48 velocity=0 time=0
EXTRACT: note_on channel=9 note=46 velocity=127 time=0.0069444375
EXTRACT: note_on channel=9 note=54 velocity=127 time=0
EXTRACT: note_on channel=9 note=56 velocity=127 time=0
EXTRACT: note_on channel=12 note=48 velocity=127 time=0
EXTRACT: note_on channel=14 note=48 velocity=127 time=0
EXTRACT: note_on channel=9 note=46 velocity=0 time=0.1319443125
EXTRACT: note_on channel=9 note=54 velocity=0 time=0
EXTRACT: note_on channel=9 note=56 velocity=0 time=0
EXTRACT: note_on channel=9 note=42 velocity=0 time=0
EXTRACT: note_on channel=11 note=60 velocity=0 time=0
EXTRACT: note_on channel=11 note=63 velocity=0 time=0
EXTRACT: note_on channel=11 note=67 velocity=0 time=0
EXTRACT: note_on channel=13 note=60 velocity=0 time=0
EXTRACT: note_on channel=13 note=63 velocity=0 time=0
EXTRACT: note_on channel=13 note=67 velocity=0 time=0
EXTRACT: note_on channel=9 note=54 velocity=127 time=0.0069444375
EXTRACT: note_on channel=9 note=42 velocity=127 time=0
EXTRACT: note_on channel=11 note=60 velocity=127 time=0
EXTRACT: note_on channel=11 note=63 velocity=127 time=0
EXTRACT: note_on channel=11 note=67 velocity=127 time=0
EXTRACT: note_on channel=13 note=60 velocity=127 time=0
EXTRACT: note_on channel=13 note=63 velocity=127 time=0
EXTRACT: note_on channel=13 note=67 velocity=127 time=0
EXTRACT: note_on channel=9 note=54 velocity=0 time=0.1319443125
EXTRACT: note_on channel=9 note=42 velocity=0 time=0
EXTRACT: note_on channel=12 note=48 velocity=0 time=0
EXTRACT: note_on channel=14 note=48 velocity=0 time=0
EXTRACT: note_on channel=9 note=54 velocity=127 time=0.0069444375
EXTRACT: note_on channel=9 note=56 velocity=127 time=0
EXTRACT: note_on channel=9 note=39 velocity=127 time=0
EXTRACT: note_on channel=9 note=42 velocity=127 time=0
EXTRACT: note_on channel=12 note=48 velocity=127 time=0
EXTRACT: note_on channel=14 note=48 velocity=127 time=0
EXTRACT: note_on channel=9 note=39 velocity=0 time=0.1319443125
EXTRACT: note_on channel=9 note=42 velocity=0 time=0
EXTRACT: note_on channel=9 note=42 velocity=127 time=0.0069444375
EXTRACT: note_on channel=9 note=54 velocity=0 time=0.1319443125
EXTRACT: note_on channel=9 note=56 velocity=0 time=0
EXTRACT: note_on channel=9 note=42 velocity=0 time=0
EXTRACT: note_on channel=11 note=60 velocity=0 time=0
EXTRACT: note_on channel=11 note=63 velocity=0 time=0
EXTRACT: note_on channel=11 note=67 velocity=0 time=0
EXTRACT: note_on channel=12 note=48 velocity=0 time=0
EXTRACT: note_on channel=13 note=60 velocity=0 time=0
EXTRACT: note_on channel=13 note=63 velocity=0 time=0
EXTRACT: note_on channel=13 note=67 velocity=0 time=0
EXTRACT: note_on channel=14 note=48 velocity=0 time=0
EXTRACT: note_on channel=9 note=54 velocity=127 time=0.0069444375
EXTRACT: note_on channel=9 note=36 velocity=127 time=0
EXTRACT: note_on channel=9 note=42 velocity=127 time=0
EXTRACT: note_on channel=11 note=60 velocity=127 time=0
EXTRACT: note_on channel=11 note=63 velocity=127 time=0
EXTRACT: note_on channel=11 note=68 velocity=127 time=0
EXTRACT: note_on channel=12 note=43 velocity=127 time=0
EXTRACT: note_on channel=13 note=60 velocity=127 time=0
EXTRACT: note_on channel=13 note=63 velocity=127 time=0
EXTRACT: note_on channel=13 note=68 velocity=127 time=0
EXTRACT: note_on channel=14 note=43 velocity=127 time=0
EXTRACT: note_on channel=9 note=54 velocity=0 time=0.1319443125
EXTRACT: note_on channel=9 note=36 velocity=0 time=0
EXTRACT: note_on channel=9 note=42 velocity=0 time=0
EXTRACT: note_on channel=9 note=54 velocity=127 time=0.0069444375
EXTRACT: note_on channel=9 note=56 velocity=127 time=0
EXTRACT: note_on channel=9 note=42 velocity=127 time=0
EXTRACT: note_on channel=9 note=54 velocity=0 time=0.1319443125
EXTRACT: note_on channel=9 note=56 velocity=0 time=0
EXTRACT: note_on channel=9 note=42 velocity=0 time=0
EXTRACT: note_on channel=12 note=43 velocity=0 time=0
EXTRACT: note_on channel=14 note=43 velocity=0 time=0
EXTRACT: note_on channel=9 note=54 velocity=127 time=0.0069444375
EXTRACT: note_on channel=9 note=42 velocity=127 time=0
EXTRACT: note_on channel=12 note=44 velocity=127 time=0
EXTRACT: note_on channel=14 note=44 velocity=127 time=0
EXTRACT: note_on channel=9 note=54 velocity=0 time=0.1319443125
EXTRACT: note_on channel=9 note=42 velocity=0 time=0
EXTRACT: note_on channel=9 note=46 velocity=127 time=0.0069444375
EXTRACT: note_on channel=9 note=54 velocity=127 time=0
EXTRACT: note_on channel=9 note=56 velocity=127 time=0
EXTRACT: note_on channel=9 note=36 velocity=127 time=0
EXTRACT: note_on channel=9 note=46 velocity=0 time=0.1319443125
EXTRACT: note_on channel=9 note=54 velocity=0 time=0
EXTRACT: note_on channel=9 note=56 velocity=0 time=0
EXTRACT: note_on channel=9 note=36 velocity=0 time=0
EXTRACT: note_on channel=12 note=44 velocity=0 time=0
EXTRACT: note_on channel=14 note=44 velocity=0 time=0
EXTRACT: note_on channel=9 note=54 velocity=127 time=0.0069444375
EXTRACT: note_on channel=9 note=56 velocity=127 time=0
EXTRACT: note_on channel=9 note=36 velocity=127 time=0
EXTRACT: note_on channel=9 note=42 velocity=127 time=0
EXTRACT: note_on channel=12 note=44 velocity=127 time=0
EXTRACT: note_on channel=14 note=44 velocity=127 time=0
EXTRACT: note_on channel=9 note=54 velocity=0 time=0.1319443125
EXTRACT: note_on channel=9 note=56 velocity=0 time=0
EXTRACT: note_on channel=9 note=36 velocity=0 time=0
EXTRACT: note_on channel=9 note=42 velocity=0 time=0
EXTRACT: note_on channel=9 note=56 velocity=127 time=0.0069444375
EXTRACT: note_on channel=9 note=36 velocity=127 time=0
EXTRACT: note_on channel=9 note=42 velocity=127 time=0
EXTRACT: note_on channel=9 note=56 velocity=0 time=0.1319443125
EXTRACT: note_on channel=9 note=36 velocity=0 time=0
EXTRACT: note_on channel=9 note=42 velocity=0 time=0
EXTRACT: note_on channel=9 note=46 velocity=127 time=0.0069444375
EXTRACT: note_on channel=9 note=54 velocity=127 time=0
EXTRACT: note_on channel=9 note=56 velocity=127 time=0
EXTRACT: note_on channel=9 note=39 velocity=127 time=0
EXTRACT: note_on channel=9 note=46 velocity=0 time=0.1319443125
EXTRACT: note_on channel=9 note=54 velocity=0 time=0
EXTRACT: note_on channel=9 note=56 velocity=0 time=0
EXTRACT: note_on channel=9 note=39 velocity=0 time=0
EXTRACT: note_on channel=9 note=54 velocity=127 time=0.0069444375
EXTRACT: note_on channel=9 note=42 velocity=127 time=0
EXTRACT: note_on channel=9 note=54 velocity=0 time=0.1319443125
EXTRACT: note_on channel=9 note=42 velocity=0 time=0
EXTRACT: note_on channel=9 note=54 velocity=127 time=0.0069444375
EXTRACT: note_on channel=9 note=56 velocity=127 time=0
EXTRACT: note_on channel=9 note=36 velocity=127 time=0
EXTRACT: note_on channel=9 note=42 velocity=127 time=0
EXTRACT: note_on channel=9 note=54 velocity=0 time=0.1319443125
EXTRACT: note_on channel=9 note=56 velocity=0 time=0
EXTRACT: note_on channel=9 note=36 velocity=0 time=0
EXTRACT: note_on channel=9 note=42 velocity=0 time=0
EXTRACT: note_on channel=9 note=54 velocity=127 time=0.0069444375
EXTRACT: note_on channel=9 note=42 velocity=127 time=0
EXTRACT: note_on channel=11 note=60 velocity=0 time=0
EXTRACT: note_on channel=11 note=63 velocity=0 time=0
EXTRACT: note_on channel=11 note=68 velocity=0 time=0
EXTRACT: note_on channel=13 note=60 velocity=0 time=0
EXTRACT: note_on channel=13 note=63 velocity=0 time=0
EXTRACT: note_on channel=13 note=68 velocity=0 time=0
EXTRACT: note_on channel=12 note=44 velocity=0 time=0.04629625
EXTRACT: note_on channel=14 note=44 velocity=0 time=0
EXTRACT: note_on channel=9 note=54 velocity=0 time=0.0856480625
EXTRACT: note_on channel=9 note=42 velocity=0 time=0
EXTRACT: note_on channel=9 note=46 velocity=127 time=0.0069444375
EXTRACT: note_on channel=9 note=54 velocity=127 time=0
EXTRACT: note_on channel=9 note=56 velocity=127 time=0
EXTRACT: note_on channel=9 note=36 velocity=127 time=0
EXTRACT: note_on channel=11 note=59 velocity=127 time=0
EXTRACT: note_on channel=11 note=62 velocity=127 time=0
EXTRACT: note_on channel=11 note=67 velocity=127 time=0
EXTRACT: note_on channel=12 note=43 velocity=127 time=0
EXTRACT: note_on channel=13 note=59 velocity=127 time=0
EXTRACT: note_on channel=13 note=62 velocity=127 time=0
EXTRACT: note_on channel=13 note=67 velocity=127 time=0
EXTRACT: note_on channel=14 note=43 velocity=127 time=0
EXTRACT: note_on channel=9 note=46 velocity=0 time=0.1319443125
EXTRACT: note_on channel=9 note=54 velocity=0 time=0
EXTRACT: note_on channel=9 note=56 velocity=0 time=0
EXTRACT: note_on channel=9 note=36 velocity=0 time=0
EXTRACT: note_on channel=9 note=54 velocity=127 time=0.0069444375
EXTRACT: note_on channel=9 note=42 velocity=127 time=0
EXTRACT: note_on channel=9 note=54 velocity=0 time=0.1319443125
EXTRACT: note_on channel=12 note=43 velocity=0 time=0
EXTRACT: note_on channel=14 note=43 velocity=0 time=0
EXTRACT: note_on channel=9 note=46 velocity=127 time=0.0069444375
EXTRACT: note_on channel=9 note=54 velocity=127 time=0
EXTRACT: note_on channel=9 note=56 velocity=127 time=0
EXTRACT: note_on channel=12 note=43 velocity=127 time=0
EXTRACT: note_on channel=14 note=43 velocity=127 time=0
EXTRACT: note_on channel=9 note=46 velocity=0 time=0.1319443125
EXTRACT: note_on channel=9 note=54 velocity=0 time=0
EXTRACT: note_on channel=9 note=56 velocity=0 time=0
EXTRACT: note_on channel=9 note=42 velocity=0 time=0
EXTRACT: note_on channel=11 note=59 velocity=0 time=0
EXTRACT: note_on channel=11 note=62 velocity=0 time=0
EXTRACT: note_on channel=11 note=67 velocity=0 time=0
EXTRACT: note_on channel=13 note=59 velocity=0 time=0
EXTRACT: note_on channel=13 note=62 velocity=0 time=0
EXTRACT: note_on channel=13 note=67 velocity=0 time=0
EXTRACT: note_on channel=9 note=54 velocity=127 time=0.0069444375
EXTRACT: note_on channel=9 note=42 velocity=127 time=0
EXTRACT: note_on channel=11 note=59 velocity=127 time=0
EXTRACT: note_on channel=11 note=62 velocity=127 time=0
EXTRACT: note_on channel=11 note=67 velocity=127 time=0
EXTRACT: note_on channel=13 note=59 velocity=127 time=0
EXTRACT: note_on channel=13 note=62 velocity=127 time=0
EXTRACT: note_on channel=13 note=67 velocity=127 time=0
EXTRACT: note_on channel=9 note=54 velocity=0 time=0.1319443125
EXTRACT: note_on channel=9 note=42 velocity=0 time=0
EXTRACT: note_on channel=12 note=43 velocity=0 time=0
EXTRACT: note_on channel=14 note=43 velocity=0 time=0
EXTRACT: note_on channel=9 note=54 velocity=127 time=0.0069444375
EXTRACT: note_on channel=9 note=56 velocity=127 time=0
EXTRACT: note_on channel=9 note=39 velocity=127 time=0
EXTRACT: note_on channel=9 note=42 velocity=127 time=0
EXTRACT: note_on channel=12 note=43 velocity=127 time=0
EXTRACT: note_on channel=14 note=43 velocity=127 time=0
EXTRACT: note_on channel=9 note=39 velocity=0 time=0.1319443125
EXTRACT: note_on channel=9 note=42 velocity=0 time=0
EXTRACT: note_on channel=9 note=42 velocity=127 time=0.0069444375
EXTRACT: note_on channel=9 note=54 velocity=0 time=0.1319443125
EXTRACT: note_on channel=9 note=56 velocity=0 time=0
EXTRACT: note_on channel=9 note=42 velocity=0 time=0
EXTRACT: note_on channel=11 note=59 velocity=0 time=0
EXTRACT: note_on channel=11 note=62 velocity=0 time=0
EXTRACT: note_on channel=11 note=67 velocity=0 time=0
EXTRACT: note_on channel=12 note=43 velocity=0 time=0
EXTRACT: note_on channel=13 note=59 velocity=0 time=0
EXTRACT: note_on channel=13 note=62 velocity=0 time=0
EXTRACT: note_on channel=13 note=67 velocity=0 time=0
EXTRACT: note_on channel=14 note=43 velocity=0 time=0
EXTRACT: note_on channel=9 note=54 velocity=127 time=0.0069444375
EXTRACT: note_on channel=9 note=36 velocity=127 time=0
EXTRACT: note_on channel=9 note=42 velocity=127 time=0
EXTRACT: note_on channel=11 note=60 velocity=127 time=0
EXTRACT: note_on channel=11 note=63 velocity=127 time=0
EXTRACT: note_on channel=11 note=67 velocity=127 time=0
EXTRACT: note_on channel=12 note=47 velocity=127 time=0
EXTRACT: note_on channel=13 note=60 velocity=127 time=0
EXTRACT: note_on channel=13 note=63 velocity=127 time=0
EXTRACT: note_on channel=13 note=67 velocity=127 time=0
EXTRACT: note_on channel=14 note=47 velocity=127 time=0
EXTRACT: note_on channel=9 note=54 velocity=0 time=0.1319443125
EXTRACT: note_on channel=9 note=36 velocity=0 time=0
EXTRACT: note_on channel=9 note=42 velocity=0 time=0
EXTRACT: note_on channel=9 note=54 velocity=127 time=0.0069444375
EXTRACT: note_on channel=9 note=56 velocity=127 time=0
EXTRACT: note_on channel=9 note=42 velocity=127 time=0
EXTRACT: note_on channel=9 note=54 velocity=0 time=0.1319443125
EXTRACT: note_on channel=9 note=56 velocity=0 time=0
EXTRACT: note_on channel=9 note=42 velocity=0 time=0
EXTRACT: note_on channel=12 note=47 velocity=0 time=0
EXTRACT: note_on channel=14 note=47 velocity=0 time=0
EXTRACT: note_on channel=9 note=54 velocity=127 time=0.0069444375
EXTRACT: note_on channel=9 note=42 velocity=127 time=0
EXTRACT: note_on channel=12 note=48 velocity=127 time=0
EXTRACT: note_on channel=14 note=48 velocity=127 time=0
EXTRACT: note_on channel=9 note=54 velocity=0 time=0.1319443125
EXTRACT: note_on channel=9 note=42 velocity=0 time=0
EXTRACT: note_on channel=9 note=46 velocity=127 time=0.0069444375
EXTRACT: note_on channel=9 note=54 velocity=127 time=0
EXTRACT: note_on channel=9 note=56 velocity=127 time=0
EXTRACT: note_on channel=9 note=36 velocity=127 time=0
EXTRACT: note_on channel=9 note=46 velocity=0 time=0.1319443125
EXTRACT: note_on channel=9 note=54 velocity=0 time=0
EXTRACT: note_on channel=9 note=56 velocity=0 time=0
EXTRACT: note_on channel=9 note=36 velocity=0 time=0
EXTRACT: note_on channel=12 note=48 velocity=0 time=0
EXTRACT: note_on channel=14 note=48 velocity=0 time=0
EXTRACT: note_on channel=9 note=54 velocity=127 time=0.0069444375
EXTRACT: note_on channel=9 note=56 velocity=127 time=0
EXTRACT: note_on channel=9 note=36 velocity=127 time=0
EXTRACT: note_on channel=9 note=42 velocity=127 time=0
EXTRACT: note_on channel=12 note=48 velocity=127 time=0
EXTRACT: note_on channel=14 note=48 velocity=127 time=0
EXTRACT: note_on channel=9 note=54 velocity=0 time=0.1319443125
EXTRACT: note_on channel=9 note=56 velocity=0 time=0
EXTRACT: note_on channel=9 note=36 velocity=0 time=0
EXTRACT: note_on channel=9 note=42 velocity=0 time=0
EXTRACT: note_on channel=9 note=56 velocity=127 time=0.0069444375
EXTRACT: note_on channel=9 note=36 velocity=127 time=0
EXTRACT: note_on channel=9 note=42 velocity=127 time=0
EXTRACT: note_on channel=9 note=56 velocity=0 time=0.1319443125
EXTRACT: note_on channel=9 note=36 velocity=0 time=0
EXTRACT: note_on channel=9 note=42 velocity=0 time=0
EXTRACT: note_on channel=9 note=46 velocity=127 time=0.0069444375
EXTRACT: note_on channel=9 note=54 velocity=127 time=0
EXTRACT: note_on channel=9 note=56 velocity=127 time=0
EXTRACT: note_on channel=9 note=39 velocity=127 time=0
EXTRACT: note_on channel=9 note=46 velocity=0 time=0.1319443125
EXTRACT: note_on channel=9 note=54 velocity=0 time=0
EXTRACT: note_on channel=9 note=56 velocity=0 time=0
EXTRACT: note_on channel=9 note=39 velocity=0 time=0
EXTRACT: note_on channel=9 note=54 velocity=127 time=0.0069444375
EXTRACT: note_on channel=9 note=42 velocity=127 time=0
EXTRACT: note_on channel=9 note=54 velocity=0 time=0.1319443125
EXTRACT: note_on channel=9 note=42 velocity=0 time=0
EXTRACT: note_on channel=12 note=48 velocity=0 time=0
EXTRACT: note_on channel=14 note=48 velocity=0 time=0
EXTRACT: note_on channel=9 note=54 velocity=127 time=0.0069444375
EXTRACT: note_on channel=9 note=56 velocity=127 time=0
EXTRACT: note_on channel=9 note=36 velocity=127 time=0
EXTRACT: note_on channel=9 note=42 velocity=127 time=0
EXTRACT: note_on channel=12 note=43 velocity=127 time=0
EXTRACT: note_on channel=14 note=43 velocity=127 time=0
EXTRACT: note_on channel=9 note=54 velocity=0 time=0.1319443125
EXTRACT: note_on channel=9 note=56 velocity=0 time=0
EXTRACT: note_on channel=9 note=36 velocity=0 time=0
EXTRACT: note_on channel=9 note=42 velocity=0 time=0
EXTRACT: note_on channel=9 note=54 velocity=127 time=0.0069444375
EXTRACT: note_on channel=9 note=42 velocity=127 time=0
EXTRACT: note_on channel=11 note=60 velocity=0 time=0
EXTRACT: note_on channel=11 note=63 velocity=0 time=0
EXTRACT: note_on channel=11 note=67 velocity=0 time=0
EXTRACT: note_on channel=13 note=60 velocity=0 time=0
EXTRACT: note_on channel=13 note=63 velocity=0 time=0
EXTRACT: note_on channel=13 note=67 velocity=0 time=0
EXTRACT: note_on channel=9 note=54 velocity=0 time=0.1319443125
EXTRACT: note_on channel=9 note=42 velocity=0 time=0
EXTRACT: note_on channel=12 note=43 velocity=0 time=0
EXTRACT: note_on channel=14 note=43 velocity=0 time=0
EXTRACT: note_on channel=9 note=46 velocity=127 time=0.0069444375
EXTRACT: note_on channel=9 note=54 velocity=127 time=0
EXTRACT: note_on channel=9 note=56 velocity=127 time=0
EXTRACT: note_on channel=9 note=36 velocity=127 time=0
EXTRACT: note_on channel=11 note=60 velocity=127 time=0
EXTRACT: note_on channel=11 note=63 velocity=127 time=0
EXTRACT: note_on channel=11 note=67 velocity=127 time=0
EXTRACT: note_on channel=12 note=48 velocity=127 time=0
EXTRACT: note_on channel=13 note=60 velocity=127 time=0
EXTRACT: note_on channel=13 note=63 velocity=127 time=0
EXTRACT: note_on channel=13 note=67 velocity=127 time=0
EXTRACT: note_on channel=14 note=48 velocity=127 time=0
EXTRACT: note_on channel=9 note=46 velocity=0 time=0.1319443125
EXTRACT: note_on channel=9 note=54 velocity=0 time=0
EXTRACT: note_on channel=9 note=56 velocity=0 time=0
EXTRACT: note_on channel=9 note=36 velocity=0 time=0
EXTRACT: note_on channel=9 note=54 velocity=127 time=0.0069444375
EXTRACT: note_on channel=9 note=42 velocity=127 time=0
EXTRACT: note_on channel=9 note=54 velocity=0 time=0.1319443125
EXTRACT: note_on channel=12 note=48 velocity=0 time=0
EXTRACT: note_on channel=14 note=48 velocity=0 time=0
EXTRACT: note_on channel=9 note=46 velocity=127 time=0.0069444375
EXTRACT: note_on channel=9 note=54 velocity=127 time=0
EXTRACT: note_on channel=9 note=56 velocity=127 time=0
EXTRACT: note_on channel=12 note=48 velocity=127 time=0
EXTRACT: note_on channel=14 note=48 velocity=127 time=0
EXTRACT: note_on channel=9 note=46 velocity=0 time=0.1319443125
EXTRACT: note_on channel=9 note=54 velocity=0 time=0
EXTRACT: note_on channel=9 note=56 velocity=0 time=0
EXTRACT: note_on channel=9 note=42 velocity=0 time=0
EXTRACT: note_on channel=11 note=60 velocity=0 time=0
EXTRACT: note_on channel=11 note=63 velocity=0 time=0
EXTRACT: note_on channel=11 note=67 velocity=0 time=0
EXTRACT: note_on channel=13 note=60 velocity=0 time=0
EXTRACT: note_on channel=13 note=63 velocity=0 time=0
EXTRACT: note_on channel=13 note=67 velocity=0 time=0
EXTRACT: note_on channel=9 note=54 velocity=127 time=0.0069444375
EXTRACT: note_on channel=9 note=42 velocity=127 time=0
EXTRACT: note_on channel=11 note=60 velocity=127 time=0
EXTRACT: note_on channel=11 note=63 velocity=127 time=0
EXTRACT: note_on channel=11 note=67 velocity=127 time=0
EXTRACT: note_on channel=13 note=60 velocity=127 time=0
EXTRACT: note_on channel=13 note=63 velocity=127 time=0
EXTRACT: note_on channel=13 note=67 velocity=127 time=0
EXTRACT: note_on channel=9 note=54 velocity=0 time=0.1319443125
EXTRACT: note_on channel=9 note=42 velocity=0 time=0
EXTRACT: note_on channel=12 note=48 velocity=0 time=0
EXTRACT: note_on channel=14 note=48 velocity=0 time=0
EXTRACT: note_on channel=9 note=54 velocity=127 time=0.0069444375
EXTRACT: note_on channel=9 note=56 velocity=127 time=0
EXTRACT: note_on channel=9 note=39 velocity=127 time=0
EXTRACT: note_on channel=9 note=42 velocity=127 time=0
EXTRACT: note_on channel=12 note=48 velocity=127 time=0
EXTRACT: note_on channel=14 note=48 velocity=127 time=0
EXTRACT: note_on channel=9 note=39 velocity=0 time=0.1319443125
EXTRACT: note_on channel=9 note=42 velocity=0 time=0
EXTRACT: note_on channel=9 note=42 velocity=127 time=0.0069444375
EXTRACT: note_on channel=9 note=54 velocity=0 time=0.1319443125
EXTRACT: note_on channel=9 note=56 velocity=0 time=0
EXTRACT: note_on channel=9 note=42 velocity=0 time=0
EXTRACT: note_on channel=11 note=60 velocity=0 time=0
EXTRACT: note_on channel=11 note=63 velocity=0 time=0
EXTRACT: note_on channel=11 note=67 velocity=0 time=0
EXTRACT: note_on channel=12 note=48 velocity=0 time=0
EXTRACT: note_on channel=13 note=60 velocity=0 time=0
EXTRACT: note_on channel=13 note=63 velocity=0 time=0
EXTRACT: note_on channel=13 note=67 velocity=0 time=0
EXTRACT: note_on channel=14 note=48 velocity=0 time=0
EXTRACT: note_on channel=9 note=54 velocity=127 time=0.0069444375
EXTRACT: note_on channel=9 note=36 velocity=127 time=0
EXTRACT: note_on channel=9 note=42 velocity=127 time=0
EXTRACT: note_on channel=11 note=60 velocity=127 time=0
EXTRACT: note_on channel=11 note=63 velocity=127 time=0
EXTRACT: note_on channel=11 note=68 velocity=127 time=0
EXTRACT: note_on channel=12 note=43 velocity=127 time=0
EXTRACT: note_on channel=13 note=60 velocity=127 time=0
EXTRACT: note_on channel=13 note=63 velocity=127 time=0
EXTRACT: note_on channel=13 note=68 velocity=127 time=0
EXTRACT: note_on channel=14 note=43 velocity=127 time=0
EXTRACT: note_on channel=9 note=54 velocity=0 time=0.1319443125
EXTRACT: note_on channel=9 note=36 velocity=0 time=0
EXTRACT: note_on channel=9 note=42 velocity=0 time=0
EXTRACT: note_on channel=9 note=54 velocity=127 time=0.0069444375
EXTRACT: note_on channel=9 note=56 velocity=127 time=0
EXTRACT: note_on channel=9 note=42 velocity=127 time=0
EXTRACT: note_on channel=9 note=54 velocity=0 time=0.1319443125
EXTRACT: note_on channel=9 note=56 velocity=0 time=0
EXTRACT: note_on channel=9 note=42 velocity=0 time=0
EXTRACT: note_on channel=12 note=43 velocity=0 time=0
EXTRACT: note_on channel=14 note=43 velocity=0 time=0
EXTRACT: note_on channel=9 note=54 velocity=127 time=0.0069444375
EXTRACT: note_on channel=9 note=42 velocity=127 time=0
EXTRACT: note_on channel=12 note=44 velocity=127 time=0
EXTRACT: note_on channel=14 note=44 velocity=127 time=0
EXTRACT: note_on channel=9 note=54 velocity=0 time=0.1319443125
EXTRACT: note_on channel=9 note=42 velocity=0 time=0
EXTRACT: note_on channel=9 note=46 velocity=127 time=0.0069444375
EXTRACT: note_on channel=9 note=54 velocity=127 time=0
EXTRACT: note_on channel=9 note=56 velocity=127 time=0
EXTRACT: note_on channel=9 note=36 velocity=127 time=0
EXTRACT: note_on channel=9 note=46 velocity=0 time=0.1319443125
EXTRACT: note_on channel=9 note=54 velocity=0 time=0
EXTRACT: note_on channel=9 note=56 velocity=0 time=0
EXTRACT: note_on channel=9 note=36 velocity=0 time=0
EXTRACT: note_on channel=12 note=44 velocity=0 time=0
EXTRACT: note_on channel=14 note=44 velocity=0 time=0
EXTRACT: note_on channel=9 note=54 velocity=127 time=0.0069444375
EXTRACT: note_on channel=9 note=56 velocity=127 time=0
EXTRACT: note_on channel=9 note=36 velocity=127 time=0
EXTRACT: note_on channel=9 note=42 velocity=127 time=0
EXTRACT: note_on channel=12 note=44 velocity=127 time=0
EXTRACT: note_on channel=14 note=44 velocity=127 time=0
EXTRACT: note_on channel=9 note=54 velocity=0 time=0.1319443125
EXTRACT: note_on channel=9 note=56 velocity=0 time=0
EXTRACT: note_on channel=9 note=36 velocity=0 time=0
EXTRACT: note_on channel=9 note=42 velocity=0 time=0
EXTRACT: note_on channel=9 note=56 velocity=127 time=0.0069444375
EXTRACT: note_on channel=9 note=36 velocity=127 time=0
EXTRACT: note_on channel=9 note=42 velocity=127 time=0
EXTRACT: note_on channel=9 note=56 velocity=0 time=0.1319443125
EXTRACT: note_on channel=9 note=36 velocity=0 time=0
EXTRACT: note_on channel=9 note=42 velocity=0 time=0
EXTRACT: note_on channel=9 note=46 velocity=127 time=0.0069444375
EXTRACT: note_on channel=9 note=54 velocity=127 time=0
EXTRACT: note_on channel=9 note=56 velocity=127 time=0
EXTRACT: note_on channel=9 note=39 velocity=127 time=0
EXTRACT: note_on channel=9 note=46 velocity=0 time=0.1319443125
EXTRACT: note_on channel=9 note=54 velocity=0 time=0
EXTRACT: note_on channel=9 note=56 velocity=0 time=0
EXTRACT: note_on channel=9 note=39 velocity=0 time=0
EXTRACT: note_on channel=9 note=54 velocity=127 time=0.0069444375
EXTRACT: note_on channel=9 note=42 velocity=127 time=0
EXTRACT: note_on channel=9 note=54 velocity=0 time=0.1319443125
EXTRACT: note_on channel=9 note=42 velocity=0 time=0
EXTRACT: note_on channel=9 note=54 velocity=127 time=0.0069444375
EXTRACT: note_on channel=9 note=56 velocity=127 time=0
EXTRACT: note_on channel=9 note=36 velocity=127 time=0
EXTRACT: note_on channel=9 note=42 velocity=127 time=0
EXTRACT: note_on channel=9 note=54 velocity=0 time=0.1319443125
EXTRACT: note_on channel=9 note=56 velocity=0 time=0
EXTRACT: note_on channel=9 note=36 velocity=0 time=0
EXTRACT: note_on channel=9 note=42 velocity=0 time=0
EXTRACT: note_on channel=9 note=54 velocity=127 time=0.0069444375
EXTRACT: note_on channel=9 note=42 velocity=127 time=0
EXTRACT: note_on channel=11 note=60 velocity=0 time=0
EXTRACT: note_on channel=11 note=63 velocity=0 time=0
EXTRACT: note_on channel=11 note=68 velocity=0 time=0
EXTRACT: note_on channel=13 note=60 velocity=0 time=0
EXTRACT: note_on channel=13 note=63 velocity=0 time=0
EXTRACT: note_on channel=13 note=68 velocity=0 time=0
EXTRACT: note_on channel=12 note=44 velocity=0 time=0.04629625
EXTRACT: note_on channel=14 note=44 velocity=0 time=0
EXTRACT: note_on channel=9 note=54 velocity=0 time=0.0856480625
EXTRACT: note_on channel=9 note=42 velocity=0 time=0
EXTRACT: note_on channel=9 note=46 velocity=127 time=0.0069444375
EXTRACT: note_on channel=9 note=54 velocity=127 time=0
EXTRACT: note_on channel=9 note=56 velocity=127 time=0
EXTRACT: note_on channel=9 note=46 velocity=0 time=0.1319443125
EXTRACT: note_on channel=9 note=54 velocity=0 time=0
EXTRACT: note_on channel=9 note=56 velocity=0 time=0
EXTRACT: note_on channel=9 note=54 velocity=127 time=0.0069444375
EXTRACT: note_on channel=9 note=54 velocity=0 time=0.1319443125
EXTRACT: note_on channel=9 note=46 velocity=127 time=0.0069444375
EXTRACT: note_on channel=9 note=54 velocity=127 time=0
EXTRACT: note_on channel=9 note=56 velocity=127 time=0
EXTRACT: note_on channel=9 note=46 velocity=0 time=0.1319443125
EXTRACT: note_on channel=9 note=54 velocity=0 time=0
EXTRACT: note_on channel=9 note=56 velocity=0 time=0
EXTRACT: note_on channel=9 note=54 velocity=127 time=0.0069444375
EXTRACT: note_on channel=9 note=54 velocity=0 time=0.1319443125
EXTRACT: note_on channel=9 note=54 velocity=127 time=0.0069444375
EXTRACT: note_on channel=9 note=56 velocity=127 time=0
EXTRACT: note_on channel=9 note=54 velocity=0 time=0.2708330625
EXTRACT: note_on channel=9 note=56 velocity=0 time=0
EXTRACT: note_on channel=9 note=54 velocity=127 time=0.0069444375
EXTRACT: note_on channel=9 note=54 velocity=0 time=0.1319443125
EXTRACT: note_on channel=9 note=54 velocity=127 time=0.0069444375
EXTRACT: note_on channel=9 note=56 velocity=127 time=0
EXTRACT: note_on channel=9 note=54 velocity=0 time=0.1319443125
EXTRACT: note_on channel=9 note=56 velocity=0 time=0
EXTRACT: note_on channel=9 note=54 velocity=127 time=0.0069444375
EXTRACT: note_on channel=9 note=54 velocity=0 time=0.1319443125
EXTRACT: note_on channel=9 note=46 velocity=127 time=0.0069444375
EXTRACT: note_on channel=9 note=54 velocity=127 time=0
EXTRACT: note_on channel=9 note=56 velocity=127 time=0
EXTRACT: note_on channel=9 note=46 velocity=0 time=0.1319443125
EXTRACT: note_on channel=9 note=54 velocity=0 time=0
EXTRACT: note_on channel=9 note=56 velocity=0 time=0
EXTRACT: note_on channel=9 note=54 velocity=127 time=0.0069444375
EXTRACT: note_on channel=9 note=56 velocity=127 time=0
EXTRACT: note_on channel=9 note=54 velocity=0 time=0.1319443125
EXTRACT: note_on channel=9 note=56 velocity=0 time=0
EXTRACT: note_on channel=9 note=56 velocity=127 time=0.0069444375
EXTRACT: note_on channel=9 note=56 velocity=0 time=0.1319443125
EXTRACT: note_on channel=9 note=46 velocity=127 time=0.0069444375
EXTRACT: note_on channel=9 note=54 velocity=127 time=0
EXTRACT: note_on channel=9 note=56 velocity=127 time=0
EXTRACT: note_on channel=9 note=46 velocity=0 time=0.1319443125
EXTRACT: note_on channel=9 note=54 velocity=0 time=0
EXTRACT: note_on channel=9 note=56 velocity=0 time=0
EXTRACT: note_on channel=9 note=54 velocity=127 time=0.0069444375
EXTRACT: note_on channel=9 note=54 velocity=0 time=0.1319443125
EXTRACT: note_on channel=9 note=54 velocity=127 time=0.0069444375
EXTRACT: note_on channel=9 note=56 velocity=127 time=0
EXTRACT: note_on channel=9 note=54 velocity=0 time=0.1319443125
EXTRACT: note_on channel=9 note=56 velocity=0 time=0
EXTRACT: note_on channel=9 note=54 velocity=127 time=0.0069444375
EXTRACT: note_on channel=0 note=67 velocity=127 time=0.0578703125
EXTRACT: note_on channel=9 note=54 velocity=0 time=0.074074
EXTRACT: note_off channel=0 note=67 velocity=0 time=1.0300915625
EXTRACT: note_on channel=9 note=54 velocity=127 time=0.643517875
EXTRACT: note_on channel=9 note=54 velocity=0 time=0.1319443125
EXTRACT: note_on channel=9 note=46 velocity=127 time=0.0069444375
EXTRACT: note_on channel=9 note=54 velocity=127 time=0
EXTRACT: note_on channel=9 note=56 velocity=127 time=0
EXTRACT: note_on channel=9 note=46 velocity=0 time=0.1319443125
EXTRACT: note_on channel=9 note=54 velocity=0 time=0
EXTRACT: note_on channel=9 note=56 velocity=0 time=0
EXTRACT: note_on channel=9 note=54 velocity=127 time=0.0069444375
EXTRACT: note_on channel=9 note=56 velocity=127 time=0
EXTRACT: note_on channel=9 note=54 velocity=0 time=0.1319443125
EXTRACT: note_on channel=9 note=56 velocity=0 time=0
EXTRACT: note_on channel=9 note=56 velocity=127 time=0.0069444375
EXTRACT: note_on channel=9 note=56 velocity=0 time=0.1319443125
EXTRACT: note_on channel=9 note=54 velocity=127 time=0.0069444375
EXTRACT: note_on channel=9 note=42 velocity=127 time=0
EXTRACT: note_on channel=9 note=54 velocity=0 time=0.1319443125
EXTRACT: note_on channel=9 note=42 velocity=0 time=0
EXTRACT: note_on channel=9 note=46 velocity=127 time=0.0069444375
EXTRACT: note_on channel=9 note=54 velocity=127 time=0
EXTRACT: note_on channel=9 note=56 velocity=127 time=0
EXTRACT: note_on channel=9 note=36 velocity=127 time=0
EXTRACT: note_on channel=9 note=46 velocity=0 time=0.1319443125
EXTRACT: note_on channel=9 note=54 velocity=0 time=0
EXTRACT: note_on channel=9 note=56 velocity=0 time=0
EXTRACT: note_on channel=9 note=36 velocity=0 time=0
EXTRACT: note_on channel=9 note=54 velocity=127 time=0.0069444375
EXTRACT: note_on channel=9 note=56 velocity=127 time=0
EXTRACT: note_on channel=9 note=36 velocity=127 time=0
EXTRACT: note_on channel=9 note=42 velocity=127 time=0
EXTRACT: note_on channel=9 note=54 velocity=0 time=0.1319443125
EXTRACT: note_on channel=9 note=56 velocity=0 time=0
EXTRACT: note_on channel=9 note=36 velocity=0 time=0
EXTRACT: note_on channel=9 note=42 velocity=0 time=0
EXTRACT: note_on channel=9 note=56 velocity=127 time=0.0069444375
EXTRACT: note_on channel=9 note=36 velocity=127 time=0
EXTRACT: note_on channel=9 note=42 velocity=127 time=0
EXTRACT: note_on channel=9 note=56 velocity=0 time=0.1319443125
EXTRACT: note_on channel=9 note=36 velocity=0 time=0
EXTRACT: note_on channel=9 note=42 velocity=0 time=0
EXTRACT: note_on channel=9 note=54 velocity=127 time=0.0069444375
EXTRACT: note_on channel=9 note=42 velocity=127 time=0
EXTRACT: note_on channel=9 note=54 velocity=0 time=0.1319443125
EXTRACT: note_on channel=9 note=42 velocity=0 time=0
EXTRACT: note_on channel=9 note=46 velocity=127 time=0.0069444375
EXTRACT: note_on channel=9 note=54 velocity=127 time=0
EXTRACT: note_on channel=9 note=56 velocity=127 time=0
EXTRACT: note_on channel=9 note=36 velocity=127 time=0
EXTRACT: note_on channel=9 note=46 velocity=0 time=0.1319443125
EXTRACT: note_on channel=9 note=54 velocity=0 time=0
EXTRACT: note_on channel=9 note=56 velocity=0 time=0
EXTRACT: note_on channel=9 note=36 velocity=0 time=0
EXTRACT: note_on channel=9 note=54 velocity=127 time=0.0069444375
EXTRACT: note_on channel=9 note=56 velocity=127 time=0
EXTRACT: note_on channel=9 note=36 velocity=127 time=0
EXTRACT: note_on channel=9 note=42 velocity=127 time=0
EXTRACT: note_on channel=9 note=54 velocity=0 time=0.1319443125
EXTRACT: note_on channel=9 note=56 velocity=0 time=0
EXTRACT: note_on channel=9 note=36 velocity=0 time=0
EXTRACT: note_on channel=9 note=42 velocity=0 time=0
EXTRACT: note_on channel=9 note=56 velocity=127 time=0.0069444375
EXTRACT: note_on channel=9 note=36 velocity=127 time=0
EXTRACT: note_on channel=9 note=42 velocity=127 time=0
EXTRACT: note_on channel=9 note=56 velocity=0 time=0.1319443125
EXTRACT: note_on channel=9 note=36 velocity=0 time=0
EXTRACT: note_on channel=9 note=42 velocity=0 time=0
EXTRACT: note_on channel=9 note=54 velocity=127 time=0.0069444375
EXTRACT: note_on channel=9 note=42 velocity=127 time=0
EXTRACT: note_on channel=9 note=54 velocity=0 time=0.1319443125
EXTRACT: note_on channel=9 note=42 velocity=0 time=0
EXTRACT: note_on channel=9 note=46 velocity=127 time=0.0069444375
EXTRACT: note_on channel=9 note=54 velocity=127 time=0
EXTRACT: note_on channel=9 note=56 velocity=127 time=0
EXTRACT: note_on channel=9 note=36 velocity=127 time=0
EXTRACT: note_on channel=9 note=46 velocity=0 time=0.1319443125
EXTRACT: note_on channel=9 note=54 velocity=0 time=0
EXTRACT: note_on channel=9 note=56 velocity=0 time=0
EXTRACT: note_on channel=9 note=36 velocity=0 time=0
EXTRACT: note_on channel=9 note=54 velocity=127 time=0.0069444375
EXTRACT: note_on channel=9 note=56 velocity=127 time=0
EXTRACT: note_on channel=9 note=36 velocity=127 time=0
EXTRACT: note_on channel=9 note=42 velocity=127 time=0
EXTRACT: note_on channel=9 note=54 velocity=0 time=0.1319443125
EXTRACT: note_on channel=9 note=56 velocity=0 time=0
EXTRACT: note_on channel=9 note=36 velocity=0 time=0
EXTRACT: note_on channel=9 note=42 velocity=0 time=0
EXTRACT: note_on channel=9 note=56 velocity=127 time=0.0069444375
EXTRACT: note_on channel=9 note=36 velocity=127 time=0
EXTRACT: note_on channel=9 note=42 velocity=127 time=0
EXTRACT: note_on channel=9 note=56 velocity=0 time=0.1319443125
EXTRACT: note_on channel=9 note=36 velocity=0 time=0
EXTRACT: note_on channel=9 note=42 velocity=0 time=0
EXTRACT: note_on channel=9 note=54 velocity=127 time=0.0069444375
EXTRACT: note_on channel=9 note=42 velocity=127 time=0
EXTRACT: note_on channel=9 note=54 velocity=0 time=0.1319443125
EXTRACT: note_on channel=9 note=42 velocity=0 time=0
EXTRACT: note_on channel=9 note=46 velocity=127 time=0.0069444375
EXTRACT: note_on channel=9 note=54 velocity=127 time=0
EXTRACT: note_on channel=9 note=56 velocity=127 time=0
EXTRACT: note_on channel=9 note=36 velocity=127 time=0
EXTRACT: note_on channel=9 note=46 velocity=0 time=0.1319443125
EXTRACT: note_on channel=9 note=54 velocity=0 time=0
EXTRACT: note_on channel=9 note=56 velocity=0 time=0
EXTRACT: note_on channel=9 note=36 velocity=0 time=0
EXTRACT: note_on channel=9 note=54 velocity=127 time=0.0069444375
EXTRACT: note_on channel=9 note=56 velocity=127 time=0
EXTRACT: note_on channel=9 note=36 velocity=127 time=0
EXTRACT: note_on channel=9 note=42 velocity=127 time=0
EXTRACT: note_on channel=9 note=54 velocity=0 time=0.1319443125
EXTRACT: note_on channel=9 note=56 velocity=0 time=0
EXTRACT: note_on channel=9 note=36 velocity=0 time=0
EXTRACT: note_on channel=9 note=42 velocity=0 time=0
EXTRACT: note_on channel=9 note=56 velocity=127 time=0.0069444375
EXTRACT: note_on channel=9 note=36 velocity=127 time=0
EXTRACT: note_on channel=9 note=42 velocity=127 time=0
EXTRACT: note_on channel=9 note=56 velocity=0 time=0.1319443125
EXTRACT: note_on channel=9 note=36 velocity=0 time=0
EXTRACT: note_on channel=9 note=42 velocity=0 time=0
EXTRACT: note_on channel=9 note=54 velocity=127 time=0.0069444375
EXTRACT: note_on channel=9 note=36 velocity=127 time=0
EXTRACT: note_on channel=11 note=60 velocity=127 time=0
EXTRACT: note_on channel=11 note=63 velocity=127 time=0
EXTRACT: note_on channel=11 note=67 velocity=127 time=0
EXTRACT: note_on channel=12 note=48 velocity=127 time=0
EXTRACT: note_on channel=13 note=60 velocity=127 time=0
EXTRACT: note_on channel=13 note=63 velocity=127 time=0
EXTRACT: note_on channel=13 note=67 velocity=127 time=0
EXTRACT: note_on channel=14 note=48 velocity=127 time=0
EXTRACT: note_on channel=9 note=54 velocity=0 time=0.1319443125
EXTRACT: note_on channel=9 note=36 velocity=0 time=0
EXTRACT: note_on channel=9 note=46 velocity=127 time=0.0069444375
EXTRACT: note_on channel=9 note=54 velocity=127 time=0
EXTRACT: note_on channel=9 note=56 velocity=127 time=0
EXTRACT: note_on channel=9 note=42 velocity=127 time=0
EXTRACT: note_on channel=9 note=46 velocity=0 time=0.1319443125
EXTRACT: note_on channel=9 note=54 velocity=0 time=0
EXTRACT: note_on channel=9 note=56 velocity=0 time=0
EXTRACT: note_on channel=12 note=48 velocity=0 time=0
EXTRACT: note_on channel=14 note=48 velocity=0 time=0
EXTRACT: note_on channel=9 note=54 velocity=127 time=0.0069444375
EXTRACT: note_on channel=9 note=56 velocity=127 time=0
EXTRACT: note_on channel=12 note=48 velocity=127 time=0
EXTRACT: note_on channel=14 note=48 velocity=127 time=0
EXTRACT: note_on channel=9 note=54 velocity=0 time=0.1319443125
EXTRACT: note_on channel=9 note=56 velocity=0 time=0
EXTRACT: note_on channel=9 note=42 velocity=0 time=0
EXTRACT: note_on channel=11 note=60 velocity=0 time=0
EXTRACT: note_on channel=11 note=63 velocity=0 time=0
EXTRACT: note_on channel=11 note=67 velocity=0 time=0
EXTRACT: note_on channel=13 note=60 velocity=0 time=0
EXTRACT: note_on channel=13 note=63 velocity=0 time=0
EXTRACT: note_on channel=13 note=67 velocity=0 time=0
EXTRACT: note_on channel=9 note=56 velocity=127 time=0.0069444375
EXTRACT: note_on channel=9 note=42 velocity=127 time=0
EXTRACT: note_on channel=11 note=60 velocity=127 time=0
EXTRACT: note_on channel=11 note=63 velocity=127 time=0
EXTRACT: note_on channel=11 note=67 velocity=127 time=0
EXTRACT: note_on channel=13 note=60 velocity=127 time=0
EXTRACT: note_on channel=13 note=63 velocity=127 time=0
EXTRACT: note_on channel=13 note=67 velocity=127 time=0
EXTRACT: note_on channel=9 note=56 velocity=0 time=0.1319443125
EXTRACT: note_on channel=9 note=42 velocity=0 time=0
EXTRACT: note_on channel=12 note=48 velocity=0 time=0
EXTRACT: note_on channel=14 note=48 velocity=0 time=0
EXTRACT: note_on channel=9 note=46 velocity=127 time=0.0069444375
EXTRACT: note_on channel=9 note=54 velocity=127 time=0
EXTRACT: note_on channel=9 note=56 velocity=127 time=0
EXTRACT: note_on channel=9 note=39 velocity=127 time=0
EXTRACT: note_on channel=9 note=42 velocity=127 time=0
EXTRACT: note_on channel=12 note=48 velocity=127 time=0
EXTRACT: note_on channel=14 note=48 velocity=127 time=0
EXTRACT: note_on channel=9 note=46 velocity=0 time=0.1319443125
EXTRACT: note_on channel=9 note=54 velocity=0 time=0
EXTRACT: note_on channel=9 note=56 velocity=0 time=0
EXTRACT: note_on channel=9 note=39 velocity=0 time=0
EXTRACT: note_on channel=9 note=42 velocity=0 time=0
EXTRACT: note_on channel=9 note=54 velocity=127 time=0.0069444375
EXTRACT: note_on channel=9 note=42 velocity=127 time=0
EXTRACT: note_on channel=9 note=54 velocity=0 time=0.1319443125
EXTRACT: note_on channel=9 note=42 velocity=0 time=0
EXTRACT: note_on channel=11 note=60 velocity=0 time=0
EXTRACT: note_on channel=11 note=63 velocity=0 time=0
EXTRACT: note_on channel=11 note=67 velocity=0 time=0
EXTRACT: note_on channel=12 note=48 velocity=0 time=0
EXTRACT: note_on channel=13 note=60 velocity=0 time=0
EXTRACT: note_on channel=13 note=63 velocity=0 time=0
EXTRACT: note_on channel=13 note=67 velocity=0 time=0
EXTRACT: note_on channel=14 note=48 velocity=0 time=0
EXTRACT: note_on channel=9 note=54 velocity=127 time=0.0069444375
EXTRACT: note_on channel=9 note=56 velocity=127 time=0
EXTRACT: note_on channel=9 note=36 velocity=127 time=0
EXTRACT: note_on channel=9 note=42 velocity=127 time=0
EXTRACT: note_on channel=11 note=60 velocity=127 time=0
EXTRACT: note_on channel=11 note=63 velocity=127 time=0
EXTRACT: note_on channel=11 note=68 velocity=127 time=0
EXTRACT: note_on channel=12 note=43 velocity=127 time=0
EXTRACT: note_on channel=13 note=60 velocity=127 time=0
EXTRACT: note_on channel=13 note=63 velocity=127 time=0
EXTRACT: note_on channel=13 note=68 velocity=127 time=0
EXTRACT: note_on channel=14 note=43 velocity=127 time=0
EXTRACT: note_on channel=9 note=54 velocity=0 time=0.1319443125
EXTRACT: note_on channel=9 note=56 velocity=0 time=0
EXTRACT: note_on channel=9 note=36 velocity=0 time=0
EXTRACT: note_on channel=9 note=42 velocity=0 time=0
EXTRACT: note_on channel=9 note=54 velocity=127 time=0.0069444375
EXTRACT: note_on channel=9 note=42 velocity=127 time=0
EXTRACT: note_on channel=9 note=54 velocity=0 time=0.1319443125
EXTRACT: note_on channel=9 note=42 velocity=0 time=0
EXTRACT: note_on channel=12 note=43 velocity=0 time=0
EXTRACT: note_on channel=14 note=43 velocity=0 time=0
EXTRACT: note_on channel=9 note=46 velocity=127 time=0.0069444375
EXTRACT: note_on channel=9 note=54 velocity=127 time=0
EXTRACT: note_on channel=9 note=56 velocity=127 time=0
EXTRACT: note_on channel=9 note=42 velocity=127 time=0
EXTRACT: note_on channel=12 note=44 velocity=127 time=0
EXTRACT: note_on channel=14 note=44 velocity=127 time=0
EXTRACT: note_on channel=9 note=46 velocity=0 time=0.1319443125
EXTRACT: note_on channel=9 note=54 velocity=0 time=0
EXTRACT: note_on channel=9 note=56 velocity=0 time=0
EXTRACT: note_on channel=9 note=42 velocity=0 time=0
EXTRACT: note_on channel=9 note=54 velocity=127 time=0.0069444375
EXTRACT: note_on channel=9 note=36 velocity=127 time=0
EXTRACT: note_on channel=9 note=54 velocity=0 time=0.1319443125
EXTRACT: note_on channel=9 note=36 velocity=0 time=0
EXTRACT: note_on channel=12 note=44 velocity=0 time=0
EXTRACT: note_on channel=14 note=44 velocity=0 time=0
EXTRACT: note_on channel=9 note=46 velocity=127 time=0.0069444375
EXTRACT: note_on channel=9 note=54 velocity=127 time=0
EXTRACT: note_on channel=9 note=56 velocity=127 time=0
EXTRACT: note_on channel=9 note=36 velocity=127 time=0
EXTRACT: note_on channel=9 note=42 velocity=127 time=0
EXTRACT: note_on channel=12 note=44 velocity=127 time=0
EXTRACT: note_on channel=14 note=44 velocity=127 time=0
EXTRACT: note_on channel=9 note=46 velocity=0 time=0.1319443125
EXTRACT: note_on channel=9 note=54 velocity=0 time=0
EXTRACT: note_on channel=9 note=56 velocity=0 time=0
EXTRACT: note_on channel=9 note=36 velocity=0 time=0
EXTRACT: note_on channel=9 note=42 velocity=0 time=0
EXTRACT: note_on channel=9 note=54 velocity=127 time=0.0069444375
EXTRACT: note_on channel=9 note=36 velocity=127 time=0
EXTRACT: note_on channel=9 note=42 velocity=127 time=0
EXTRACT: note_on channel=9 note=54 velocity=0 time=0.1319443125
EXTRACT: note_on channel=9 note=36 velocity=0 time=0
EXTRACT: note_on channel=9 note=42 velocity=0 time=0
EXTRACT: note_on channel=9 note=54 velocity=127 time=0.0069444375
EXTRACT: note_on channel=9 note=56 velocity=127 time=0
EXTRACT: note_on channel=9 note=39 velocity=127 time=0
EXTRACT: note_on channel=9 note=39 velocity=0 time=0.1319443125
EXTRACT: note_on channel=9 note=42 velocity=127 time=0.0069444375
EXTRACT: note_on channel=9 note=54 velocity=0 time=0.1319443125
EXTRACT: note_on channel=9 note=56 velocity=0 time=0
EXTRACT: note_on channel=9 note=42 velocity=0 time=0
EXTRACT: note_on channel=9 note=54 velocity=127 time=0.0069444375
EXTRACT: note_on channel=9 note=36 velocity=127 time=0
EXTRACT: note_on channel=9 note=42 velocity=127 time=0
EXTRACT: note_on channel=9 note=54 velocity=0 time=0.1319443125
EXTRACT: note_on channel=9 note=36 velocity=0 time=0
EXTRACT: note_on channel=9 note=42 velocity=0 time=0
EXTRACT: note_on channel=9 note=54 velocity=127 time=0.0069444375
EXTRACT: note_on channel=9 note=56 velocity=127 time=0
EXTRACT: note_on channel=9 note=42 velocity=127 time=0
EXTRACT: note_on channel=11 note=60 velocity=0 time=0
EXTRACT: note_on channel=11 note=63 velocity=0 time=0
EXTRACT: note_on channel=11 note=68 velocity=0 time=0
EXTRACT: note_on channel=13 note=60 velocity=0 time=0
EXTRACT: note_on channel=13 note=63 velocity=0 time=0
EXTRACT: note_on channel=13 note=68 velocity=0 time=0
EXTRACT: note_on channel=12 note=44 velocity=0 time=0.04629625
EXTRACT: note_on channel=14 note=44 velocity=0 time=0
EXTRACT: note_on channel=9 note=54 velocity=0 time=0.0856480625
EXTRACT: note_on channel=9 note=56 velocity=0 time=0
EXTRACT: note_on channel=9 note=42 velocity=0 time=0
EXTRACT: note_on channel=9 note=54 velocity=127 time=0.0069444375
EXTRACT: note_on channel=9 note=36 velocity=127 time=0
EXTRACT: note_on channel=11 note=59 velocity=127 time=0
EXTRACT: note_on channel=11 note=62 velocity=127 time=0
EXTRACT: note_on channel=11 note=67 velocity=127 time=0
EXTRACT: note_on channel=12 note=43 velocity=127 time=0
EXTRACT: note_on channel=13 note=59 velocity=127 time=0
EXTRACT: note_on channel=13 note=62 velocity=127 time=0
EXTRACT: note_on channel=13 note=67 velocity=127 time=0
EXTRACT: note_on channel=14 note=43 velocity=127 time=0
EXTRACT: note_on channel=9 note=54 velocity=0 time=0.1319443125
EXTRACT: note_on channel=9 note=36 velocity=0 time=0
EXTRACT: note_on channel=9 note=46 velocity=127 time=0.0069444375
EXTRACT: note_on channel=9 note=54 velocity=127 time=0
EXTRACT: note_on channel=9 note=56 velocity=127 time=0
EXTRACT: note_on channel=9 note=42 velocity=127 time=0
EXTRACT: note_on channel=9 note=46 velocity=0 time=0.1319443125
EXTRACT: note_on channel=9 note=54 velocity=0 time=0
EXTRACT: note_on channel=9 note=56 velocity=0 time=0
EXTRACT: note_on channel=12 note=43 velocity=0 time=0
EXTRACT: note_on channel=14 note=43 velocity=0 time=0
EXTRACT: note_on channel=9 note=54 velocity=127 time=0.0069444375
EXTRACT: note_on channel=9 note=56 velocity=127 time=0
EXTRACT: note_on channel=12 note=43 velocity=127 time=0
EXTRACT: note_on channel=14 note=43 velocity=127 time=0
EXTRACT: note_on channel=9 note=54 velocity=0 time=0.1319443125
EXTRACT: note_on channel=9 note=56 velocity=0 time=0
EXTRACT: note_on channel=9 note=42 velocity=0 time=0
EXTRACT: note_on channel=11 note=59 velocity=0 time=0
EXTRACT: note_on channel=11 note=62 velocity=0 time=0
EXTRACT: note_on channel=11 note=67 velocity=0 time=0
EXTRACT: note_on channel=13 note=59 velocity=0 time=0
EXTRACT: note_on channel=13 note=62 velocity=0 time=0
EXTRACT: note_on channel=13 note=67 velocity=0 time=0
EXTRACT: note_on channel=9 note=56 velocity=127 time=0.0069444375
EXTRACT: note_on channel=9 note=42 velocity=127 time=0
EXTRACT: note_on channel=11 note=59 velocity=127 time=0
EXTRACT: note_on channel=11 note=62 velocity=127 time=0
EXTRACT: note_on channel=11 note=67 velocity=127 time=0
EXTRACT: note_on channel=13 note=59 velocity=127 time=0
EXTRACT: note_on channel=13 note=62 velocity=127 time=0
EXTRACT: note_on channel=13 note=67 velocity=127 time=0
EXTRACT: note_on channel=9 note=56 velocity=0 time=0.1319443125
EXTRACT: note_on channel=9 note=42 velocity=0 time=0
EXTRACT: note_on channel=12 note=43 velocity=0 time=0
EXTRACT: note_on channel=14 note=43 velocity=0 time=0
EXTRACT: note_on channel=9 note=46 velocity=127 time=0.0069444375
EXTRACT: note_on channel=9 note=54 velocity=127 time=0
EXTRACT: note_on channel=9 note=56 velocity=127 time=0
EXTRACT: note_on channel=9 note=39 velocity=127 time=0
EXTRACT: note_on channel=9 note=42 velocity=127 time=0
EXTRACT: note_on channel=12 note=43 velocity=127 time=0
EXTRACT: note_on channel=14 note=43 velocity=127 time=0
EXTRACT: note_on channel=9 note=46 velocity=0 time=0.1319443125
EXTRACT: note_on channel=9 note=54 velocity=0 time=0
EXTRACT: note_on channel=9 note=56 velocity=0 time=0
EXTRACT: note_on channel=9 note=39 velocity=0 time=0
EXTRACT: note_on channel=9 note=42 velocity=0 time=0
EXTRACT: note_on channel=9 note=54 velocity=127 time=0.0069444375
EXTRACT: note_on channel=9 note=42 velocity=127 time=0
EXTRACT: note_on channel=9 note=54 velocity=0 time=0.1319443125
EXTRACT: note_on channel=9 note=42 velocity=0 time=0
EXTRACT: note_on channel=11 note=59 velocity=0 time=0
EXTRACT: note_on channel=11 note=62 velocity=0 time=0
EXTRACT: note_on channel=11 note=67 velocity=0 time=0
EXTRACT: note_on channel=12 note=43 velocity=0 time=0
EXTRACT: note_on channel=13 note=59 velocity=0 time=0
EXTRACT: note_on channel=13 note=62 velocity=0 time=0
EXTRACT: note_on channel=13 note=67 velocity=0 time=0
EXTRACT: note_on channel=14 note=43 velocity=0 time=0
EXTRACT: note_on channel=9 note=54 velocity=127 time=0.0069444375
EXTRACT: note_on channel=9 note=56 velocity=127 time=0
EXTRACT: note_on channel=9 note=36 velocity=127 time=0
EXTRACT: note_on channel=9 note=42 velocity=127 time=0
EXTRACT: note_on channel=11 note=60 velocity=127 time=0
EXTRACT: note_on channel=11 note=63 velocity=127 time=0
EXTRACT: note_on channel=11 note=67 velocity=127 time=0
EXTRACT: note_on channel=12 note=47 velocity=127 time=0
EXTRACT: note_on channel=13 note=60 velocity=127 time=0
EXTRACT: note_on channel=13 note=63 velocity=127 time=0
EXTRACT: note_on channel=13 note=67 velocity=127 time=0
EXTRACT: note_on channel=14 note=47 velocity=127 time=0
EXTRACT: note_on channel=9 note=54 velocity=0 time=0.1319443125
EXTRACT: note_on channel=9 note=56 velocity=0 time=0
EXTRACT: note_on channel=9 note=36 velocity=0 time=0
EXTRACT: note_on channel=9 note=42 velocity=0 time=0
EXTRACT: note_on channel=9 note=54 velocity=127 time=0.0069444375
EXTRACT: note_on channel=9 note=42 velocity=127 time=0
EXTRACT: note_on channel=9 note=54 velocity=0 time=0.1319443125
EXTRACT: note_on channel=9 note=42 velocity=0 time=0
EXTRACT: note_on channel=12 note=47 velocity=0 time=0
EXTRACT: note_on channel=14 note=47 velocity=0 time=0
EXTRACT: note_on channel=9 note=46 velocity=127 time=0.0069444375
EXTRACT: note_on channel=9 note=54 velocity=127 time=0
EXTRACT: note_on channel=9 note=56 velocity=127 time=0
EXTRACT: note_on channel=9 note=42 velocity=127 time=0
EXTRACT: note_on channel=12 note=48 velocity=127 time=0
EXTRACT: note_on channel=14 note=48 velocity=127 time=0
EXTRACT: note_on channel=9 note=46 velocity=0 time=0.1319443125
EXTRACT: note_on channel=9 note=54 velocity=0 time=0
EXTRACT: note_on channel=9 note=56 velocity=0 time=0
EXTRACT: note_on channel=9 note=42 velocity=0 time=0
EXTRACT: note_on channel=9 note=54 velocity=127 time=0.0069444375
EXTRACT: note_on channel=9 note=36 velocity=127 time=0
EXTRACT: note_on channel=9 note=54 velocity=0 time=0.1319443125
EXTRACT: note_on channel=9 note=36 velocity=0 time=0
EXTRACT: note_on channel=11 note=60 velocity=0 time=0
EXTRACT: note_on channel=11 note=63 velocity=0 time=0
EXTRACT: note_on channel=11 note=67 velocity=0 time=0
EXTRACT: note_on channel=12 note=48 velocity=0 time=0
EXTRACT: note_on channel=14 note=48 velocity=0 time=0
EXTRACT: note_on channel=9 note=46 velocity=127 time=0.0069444375
EXTRACT: note_on channel=9 note=54 velocity=127 time=0
EXTRACT: note_on channel=9 note=56 velocity=127 time=0
EXTRACT: note_on channel=9 note=36 velocity=127 time=0
EXTRACT: note_on channel=9 note=42 velocity=127 time=0
EXTRACT: note_on channel=10 note=60 velocity=127 time=0
EXTRACT: note_on channel=11 note=60 velocity=127 time=0
EXTRACT: note_on channel=12 note=48 velocity=127 time=0
EXTRACT: note_on channel=14 note=48 velocity=127 time=0
EXTRACT: note_on channel=10 note=60 velocity=127 time=0
EXTRACT: note_on channel=10 note=60 velocity=127 time=0
EXTRACT: note_on channel=9 note=46 velocity=0 time=0.1319443125
EXTRACT: note_on channel=9 note=54 velocity=0 time=0
EXTRACT: note_on channel=9 note=56 velocity=0 time=0
EXTRACT: note_on channel=9 note=36 velocity=0 time=0
EXTRACT: note_on channel=9 note=42 velocity=0 time=0
EXTRACT: note_on channel=9 note=54 velocity=127 time=0.0069444375
EXTRACT: note_on channel=9 note=36 velocity=127 time=0
EXTRACT: note_on channel=9 note=42 velocity=127 time=0
EXTRACT: note_on channel=9 note=54 velocity=0 time=0.1319443125
EXTRACT: note_on channel=9 note=36 velocity=0 time=0
EXTRACT: note_on channel=9 note=42 velocity=0 time=0
EXTRACT: note_on channel=10 note=60 velocity=0 time=0
EXTRACT: note_on channel=11 note=60 velocity=0 time=0
EXTRACT: note_on channel=10 note=60 velocity=0 time=0
EXTRACT: note_on channel=10 note=60 velocity=0 time=0
EXTRACT: note_on channel=9 note=54 velocity=127 time=0.0069444375
EXTRACT: note_on channel=9 note=56 velocity=127 time=0
EXTRACT: note_on channel=9 note=39 velocity=127 time=0
EXTRACT: note_on channel=10 note=63 velocity=127 time=0
EXTRACT: note_on channel=11 note=63 velocity=127 time=0
EXTRACT: note_on channel=10 note=63 velocity=127 time=0
EXTRACT: note_on channel=10 note=63 velocity=127 time=0
EXTRACT: note_on channel=9 note=39 velocity=0 time=0.1319443125
EXTRACT: note_on channel=9 note=42 velocity=127 time=0.0069444375
EXTRACT: note_on channel=12 note=48 velocity=0 time=0.04629625
EXTRACT: note_on channel=14 note=48 velocity=0 time=0
EXTRACT: note_on channel=9 note=54 velocity=0 time=0.0856480625
EXTRACT: note_on channel=9 note=56 velocity=0 time=0
EXTRACT: note_on channel=9 note=42 velocity=0 time=0
EXTRACT: note_on channel=10 note=63 velocity=0 time=0
EXTRACT: note_on channel=11 note=63 velocity=0 time=0
EXTRACT: note_on channel=10 note=63 velocity=0 time=0
EXTRACT: note_on channel=10 note=63 velocity=0 time=0
EXTRACT: note_on channel=9 note=54 velocity=127 time=0.0069444375
EXTRACT: note_on channel=9 note=36 velocity=127 time=0
EXTRACT: note_on channel=9 note=42 velocity=127 time=0
EXTRACT: note_on channel=10 note=65 velocity=127 time=0
EXTRACT: note_on channel=11 note=67 velocity=127 time=0
EXTRACT: note_on channel=12 note=43 velocity=127 time=0
EXTRACT: note_on channel=14 note=43 velocity=127 time=0
EXTRACT: note_on channel=10 note=65 velocity=127 time=0
EXTRACT: note_on channel=10 note=65 velocity=127 time=0
EXTRACT: note_on channel=9 note=54 velocity=0 time=0.1319443125
EXTRACT: note_on channel=9 note=36 velocity=0 time=0
EXTRACT: note_on channel=9 note=42 velocity=0 time=0
EXTRACT: note_on channel=9 note=54 velocity=127 time=0.0069444375
EXTRACT: note_on channel=9 note=56 velocity=127 time=0
EXTRACT: note_on channel=9 note=42 velocity=127 time=0
EXTRACT: note_on channel=13 note=60 velocity=0 time=0
EXTRACT: note_on channel=13 note=63 velocity=0 time=0
EXTRACT: note_on channel=13 note=67 velocity=0 time=0
EXTRACT: note_on channel=9 note=54 velocity=0 time=0.1319443125
EXTRACT: note_on channel=9 note=56 velocity=0 time=0
EXTRACT: note_on channel=9 note=42 velocity=0 time=0
EXTRACT: note_on channel=10 note=65 velocity=0 time=0
EXTRACT: note_on channel=11 note=67 velocity=0 time=0
EXTRACT: note_on channel=12 note=43 velocity=0 time=0
EXTRACT: note_on channel=14 note=43 velocity=0 time=0
EXTRACT: note_on channel=10 note=65 velocity=0 time=0
EXTRACT: note_on channel=10 note=65 velocity=0 time=0
EXTRACT: note_on channel=9 note=54 velocity=127 time=0.0069444375
EXTRACT: note_on channel=9 note=36 velocity=127 time=0
EXTRACT: note_on channel=10 note=67 velocity=127 time=0
EXTRACT: note_on channel=11 note=60 velocity=127 time=0
EXTRACT: note_on channel=11 note=63 velocity=127 time=0
EXTRACT: note_on channel=11 note=67 velocity=127 time=0
EXTRACT: note_on channel=12 note=48 velocity=127 time=0
EXTRACT: note_on channel=13 note=60 velocity=127 time=0
EXTRACT: note_on channel=13 note=63 velocity=127 time=0
EXTRACT: note_on channel=13 note=67 velocity=127 time=0
EXTRACT: note_on channel=14 note=48 velocity=127 time=0
EXTRACT: note_on channel=10 note=67 velocity=127 time=0
EXTRACT: note_on channel=10 note=67 velocity=127 time=0
EXTRACT: note_on channel=9 note=54 velocity=0 time=0.1319443125
EXTRACT: note_on channel=9 note=36 velocity=0 time=0
EXTRACT: note_on channel=9 note=46 velocity=127 time=0.0069444375
EXTRACT: note_on channel=9 note=54 velocity=127 time=0
EXTRACT: note_on channel=9 note=56 velocity=127 time=0
EXTRACT: note_on channel=9 note=42 velocity=127 time=0
EXTRACT: note_on channel=9 note=46 velocity=0 time=0.1319443125
EXTRACT: note_on channel=9 note=54 velocity=0 time=0
EXTRACT: note_on channel=9 note=56 velocity=0 time=0
EXTRACT: note_on channel=12 note=48 velocity=0 time=0
EXTRACT: note_on channel=14 note=48 velocity=0 time=0
EXTRACT: note_on channel=9 note=54 velocity=127 time=0.0069444375
EXTRACT: note_on channel=9 note=56 velocity=127 time=0
EXTRACT: note_on channel=10 note=67 velocity=127 time=0
EXTRACT: note_on channel=12 note=48 velocity=127 time=0
EXTRACT: note_on channel=14 note=48 velocity=127 time=0
EXTRACT: note_on channel=10 note=67 velocity=127 time=0
EXTRACT: note_on channel=10 note=67 velocity=127 time=0
EXTRACT: note_on channel=9 note=54 velocity=0 time=0.1319443125
EXTRACT: note_on channel=9 note=56 velocity=0 time=0
EXTRACT: note_on channel=9 note=42 velocity=0 time=0
EXTRACT: note_on channel=11 note=60 velocity=0 time=0
EXTRACT: note_on channel=11 note=63 velocity=0 time=0
EXTRACT: note_on channel=11 note=67 velocity=0 time=0
EXTRACT: note_on channel=13 note=60 velocity=0 time=0
EXTRACT: note_on channel=13 note=63 velocity=0 time=0
EXTRACT: note_on channel=13 note=67 velocity=0 time=0
EXTRACT: note_on channel=9 note=56 velocity=127 time=0.0069444375
EXTRACT: note_on channel=9 note=42 velocity=127 time=0
EXTRACT: note_on channel=11 note=60 velocity=127 time=0
EXTRACT: note_on channel=11 note=63 velocity=127 time=0
EXTRACT: note_on channel=11 note=67 velocity=127 time=0
EXTRACT: note_on channel=13 note=60 velocity=127 time=0
EXTRACT: note_on channel=13 note=63 velocity=127 time=0
EXTRACT: note_on channel=13 note=67 velocity=127 time=0
EXTRACT: note_on channel=9 note=56 velocity=0 time=0.1319443125
EXTRACT: note_on channel=9 note=42 velocity=0 time=0
EXTRACT: note_on channel=12 note=48 velocity=0 time=0
EXTRACT: note_on channel=14 note=48 velocity=0 time=0
EXTRACT: note_on channel=9 note=46 velocity=127 time=0.0069444375
EXTRACT: note_on channel=9 note=54 velocity=127 time=0
EXTRACT: note_on channel=9 note=56 velocity=127 time=0
EXTRACT: note_on channel=9 note=39 velocity=127 time=0
EXTRACT: note_on channel=9 note=42 velocity=127 time=0
EXTRACT: note_on channel=12 note=48 velocity=127 time=0
EXTRACT: note_on channel=14 note=48 velocity=127 time=0
EXTRACT: note_on channel=9 note=46 velocity=0 time=0.1319443125
EXTRACT: note_on channel=9 note=54 velocity=0 time=0
EXTRACT: note_on channel=9 note=56 velocity=0 time=0
EXTRACT: note_on channel=9 note=39 velocity=0 time=0
EXTRACT: note_on channel=9 note=42 velocity=0 time=0
EXTRACT: note_on channel=9 note=54 velocity=127 time=0.0069444375
EXTRACT: note_on channel=9 note=42 velocity=127 time=0
EXTRACT: note_on channel=10 note=67 velocity=0 time=0.04629625
EXTRACT: note_on channel=10 note=67 velocity=0 time=0
EXTRACT: note_on channel=10 note=67 velocity=0 time=0
EXTRACT: note_on channel=10 note=67 velocity=0 time=0
EXTRACT: note_on channel=10 note=67 velocity=0 time=0
EXTRACT: note_on channel=10 note=67 velocity=0 time=0
EXTRACT: note_on channel=9 note=54 velocity=0 time=0.0856480625
EXTRACT: note_on channel=9 note=42 velocity=0 time=0
EXTRACT: note_on channel=11 note=60 velocity=0 time=0
EXTRACT: note_on channel=11 note=63 velocity=0 time=0
EXTRACT: note_on channel=11 note=67 velocity=0 time=0
EXTRACT: note_on channel=12 note=48 velocity=0 time=0
EXTRACT: note_on channel=13 note=60 velocity=0 time=0
EXTRACT: note_on channel=13 note=63 velocity=0 time=0
EXTRACT: note_on channel=13 note=67 velocity=0 time=0
EXTRACT: note_on channel=14 note=48 velocity=0 time=0
EXTRACT: note_on channel=9 note=54 velocity=127 time=0.0069444375
EXTRACT: note_on channel=9 note=56 velocity=127 time=0
EXTRACT: note_on channel=9 note=36 velocity=127 time=0
EXTRACT: note_on channel=9 note=42 velocity=127 time=0
EXTRACT: note_on channel=10 note=65 velocity=127 time=0
EXTRACT: note_on channel=10 note=68 velocity=127 time=0
EXTRACT: note_on channel=11 note=60 velocity=127 time=0
EXTRACT: note_on channel=11 note=63 velocity=127 time=0
EXTRACT: note_on channel=11 note=68 velocity=127 time=0
EXTRACT: note_on channel=12 note=43 velocity=127 time=0
EXTRACT: note_on channel=13 note=60 velocity=127 time=0
EXTRACT: note_on channel=13 note=63 velocity=127 time=0
EXTRACT: note_on channel=13 note=68 velocity=127 time=0
EXTRACT: note_on channel=14 note=43 velocity=127 time=0
EXTRACT: note_on channel=10 note=65 velocity=127 time=0
EXTRACT: note_on channel=10 note=68 velocity=127 time=0
EXTRACT: note_on channel=10 note=65 velocity=127 time=0
EXTRACT: note_on channel=10 note=68 velocity=127 time=0
EXTRACT: note_on channel=9 note=54 velocity=0 time=0.1319443125
EXTRACT: note_on channel=9 note=56 velocity=0 time=0
EXTRACT: note_on channel=9 note=36 velocity=0 time=0
EXTRACT: note_on channel=9 note=42 velocity=0 time=0
EXTRACT: note_on channel=9 note=54 velocity=127 time=0.0069444375
EXTRACT: note_on channel=9 note=42 velocity=127 time=0
EXTRACT: note_on channel=9 note=54 velocity=0 time=0.1319443125
EXTRACT: note_on channel=9 note=42 velocity=0 time=0
EXTRACT: note_on channel=12 note=43 velocity=0 time=0
EXTRACT: note_on channel=14 note=43 velocity=0 time=0
EXTRACT: note_on channel=9 note=46 velocity=127 time=0.0069444375
EXTRACT: note_on channel=9 note=54 velocity=127 time=0
EXTRACT: note_on channel=9 note=56 velocity=127 time=0
EXTRACT: note_on channel=9 note=42 velocity=127 time=0
EXTRACT: note_on channel=12 note=44 velocity=127 time=0
EXTRACT: note_on channel=14 note=44 velocity=127 time=0
EXTRACT: note_on channel=9 note=46 velocity=0 time=0.1319443125
EXTRACT: note_on channel=9 note=54 velocity=0 time=0
EXTRACT: note_on channel=9 note=56 velocity=0 time=0
EXTRACT: note_on channel=9 note=42 velocity=0 time=0
EXTRACT: note_on channel=9 note=54 velocity=127 time=0.0069444375
EXTRACT: note_on channel=9 note=36 velocity=127 time=0
EXTRACT: note_on channel=9 note=54 velocity=0 time=0.1319443125
EXTRACT: note_on channel=9 note=36 velocity=0 time=0
EXTRACT: note_on channel=10 note=68 velocity=0 time=0
EXTRACT: note_on channel=12 note=44 velocity=0 time=0
EXTRACT: note_on channel=14 note=44 velocity=0 time=0
EXTRACT: note_on channel=10 note=68 velocity=0 time=0
EXTRACT: note_on channel=10 note=68 velocity=0 time=0
EXTRACT: note_on channel=9 note=46 velocity=127 time=0.0069444375
EXTRACT: note_on channel=9 note=54 velocity=127 time=0
EXTRACT: note_on channel=9 note=56 velocity=127 time=0
EXTRACT: note_on channel=9 note=36 velocity=127 time=0
EXTRACT: note_on channel=9 note=42 velocity=127 time=0
EXTRACT: note_on channel=10 note=63 velocity=127 time=0
EXTRACT: note_on channel=12 note=44 velocity=127 time=0
EXTRACT: note_on channel=14 note=44 velocity=127 time=0
EXTRACT: note_on channel=10 note=63 velocity=127 time=0
EXTRACT: note_on channel=10 note=63 velocity=127 time=0
EXTRACT: note_on channel=9 note=46 velocity=0 time=0.1319443125
EXTRACT: note_on channel=9 note=54 velocity=0 time=0
EXTRACT: note_on channel=9 note=56 velocity=0 time=0
EXTRACT: note_on channel=9 note=36 velocity=0 time=0
EXTRACT: note_on channel=9 note=42 velocity=0 time=0
EXTRACT: note_on channel=9 note=54 velocity=127 time=0.0069444375
EXTRACT: note_on channel=9 note=36 velocity=127 time=0
EXTRACT: note_on channel=9 note=42 velocity=127 time=0
EXTRACT: note_on channel=9 note=54 velocity=0 time=0.1319443125
EXTRACT: note_on channel=9 note=36 velocity=0 time=0
EXTRACT: note_on channel=9 note=42 velocity=0 time=0
EXTRACT: note_on channel=9 note=54 velocity=127 time=0.0069444375
EXTRACT: note_on channel=9 note=56 velocity=127 time=0
EXTRACT: note_on channel=9 note=39 velocity=127 time=0
EXTRACT: note_on channel=9 note=39 velocity=0 time=0.1319443125
EXTRACT: note_on channel=9 note=42 velocity=127 time=0.0069444375
EXTRACT: note_on channel=10 note=63 velocity=0 time=0.04629625
EXTRACT: note_on channel=10 note=63 velocity=0 time=0
EXTRACT: note_on channel=10 note=63 velocity=0 time=0
EXTRACT: note_on channel=9 note=54 velocity=0 time=0.0856480625
EXTRACT: note_on channel=9 note=56 velocity=0 time=0
EXTRACT: note_on channel=9 note=42 velocity=0 time=0
EXTRACT: note_on channel=9 note=54 velocity=127 time=0.0069444375
EXTRACT: note_on channel=9 note=36 velocity=127 time=0
EXTRACT: note_on channel=9 note=42 velocity=127 time=0
EXTRACT: note_on channel=10 note=58 velocity=127 time=0
EXTRACT: note_on channel=10 note=58 velocity=127 time=0
EXTRACT: note_on channel=10 note=58 velocity=127 time=0
EXTRACT: note_on channel=9 note=54 velocity=0 time=0.1319443125
EXTRACT: note_on channel=9 note=36 velocity=0 time=0
EXTRACT: note_on channel=9 note=42 velocity=0 time=0
EXTRACT: note_on channel=9 note=54 velocity=127 time=0.0069444375
EXTRACT: note_on channel=9 note=56 velocity=127 time=0
EXTRACT: note_on channel=9 note=42 velocity=127 time=0
EXTRACT: note_on channel=10 note=65 velocity=0 time=0
EXTRACT: note_on channel=11 note=60 velocity=0 time=0
EXTRACT: note_on channel=11 note=63 velocity=0 time=0
EXTRACT: note_on channel=11 note=68 velocity=0 time=0
EXTRACT: note_on channel=13 note=60 velocity=0 time=0
EXTRACT: note_on channel=13 note=63 velocity=0 time=0
EXTRACT: note_on channel=13 note=68 velocity=0 time=0
EXTRACT: note_on channel=10 note=65 velocity=0 time=0
EXTRACT: note_on channel=10 note=65 velocity=0 time=0
EXTRACT: note_on channel=12 note=44 velocity=0 time=0.04629625
EXTRACT: note_on channel=14 note=44 velocity=0 time=0
EXTRACT: note_on channel=9 note=54 velocity=0 time=0.0856480625
EXTRACT: note_on channel=9 note=56 velocity=0 time=0
EXTRACT: note_on channel=9 note=42 velocity=0 time=0
EXTRACT: note_on channel=9 note=54 velocity=127 time=0.0069444375
EXTRACT: note_on channel=9 note=36 velocity=127 time=0
EXTRACT: note_on channel=11 note=59 velocity=127 time=0
EXTRACT: note_on channel=11 note=62 velocity=127 time=0
EXTRACT: note_on channel=11 note=67 velocity=127 time=0
EXTRACT: note_on channel=12 note=43 velocity=127 time=0
EXTRACT: note_on channel=13 note=59 velocity=127 time=0
EXTRACT: note_on channel=13 note=62 velocity=127 time=0
EXTRACT: note_on channel=13 note=67 velocity=127 time=0
EXTRACT: note_on channel=14 note=43 velocity=127 time=0
EXTRACT: note_on channel=9 note=54 velocity=0 time=0.1319443125
EXTRACT: note_on channel=9 note=36 velocity=0 time=0
EXTRACT: note_on channel=9 note=46 velocity=127 time=0.0069444375
EXTRACT: note_on channel=9 note=54 velocity=127 time=0
EXTRACT: note_on channel=9 note=56 velocity=127 time=0
EXTRACT: note_on channel=9 note=42 velocity=127 time=0
EXTRACT: note_on channel=9 note=46 velocity=0 time=0.1319443125
EXTRACT: note_on channel=9 note=54 velocity=0 time=0
EXTRACT: note_on channel=9 note=56 velocity=0 time=0
EXTRACT: note_on channel=10 note=58 velocity=0 time=0
EXTRACT: note_on channel=10 note=58 velocity=0 time=0
EXTRACT: note_on channel=10 note=58 velocity=0 time=0
EXTRACT: note_on channel=9 note=54 velocity=127 time=0.0069444375
EXTRACT: note_on channel=9 note=56 velocity=127 time=0
EXTRACT: note_on channel=10 note=67 velocity=127 time=0
EXTRACT: note_on channel=10 note=67 velocity=127 time=0
EXTRACT: note_on channel=10 note=67 velocity=127 time=0
EXTRACT: note_on channel=9 note=54 velocity=0 time=0.1319443125
EXTRACT: note_on channel=9 note=56 velocity=0 time=0
EXTRACT: note_on channel=9 note=42 velocity=0 time=0
EXTRACT: note_on channel=11 note=59 velocity=0 time=0
EXTRACT: note_on channel=11 note=62 velocity=0 time=0
EXTRACT: note_on channel=11 note=67 velocity=0 time=0
EXTRACT: note_on channel=13 note=59 velocity=0 time=0
EXTRACT: note_on channel=13 note=62 velocity=0 time=0
EXTRACT: note_on channel=13 note=67 velocity=0 time=0
EXTRACT: note_on channel=9 note=56 velocity=127 time=0.0069444375
EXTRACT: note_on channel=9 note=42 velocity=127 time=0
EXTRACT: note_on channel=11 note=59 velocity=127 time=0
EXTRACT: note_on channel=11 note=62 velocity=127 time=0
EXTRACT: note_on channel=11 note=67 velocity=127 time=0
EXTRACT: note_on channel=13 note=59 velocity=127 time=0
EXTRACT: note_on channel=13 note=62 velocity=127 time=0
EXTRACT: note_on channel=13 note=67 velocity=127 time=0
EXTRACT: note_on channel=12 note=43 velocity=0 time=0.04629625
EXTRACT: note_on channel=14 note=43 velocity=0 time=0
EXTRACT: note_on channel=9 note=56 velocity=0 time=0.0856480625
EXTRACT: note_on channel=9 note=42 velocity=0 time=0
EXTRACT: note_on channel=9 note=46 velocity=127 time=0.0069444375
EXTRACT: note_on channel=9 note=54 velocity=127 time=0
EXTRACT: note_on channel=9 note=56 velocity=127 time=0
EXTRACT: note_on channel=9 note=39 velocity=127 time=0
EXTRACT: note_on channel=9 note=42 velocity=127 time=0
EXTRACT: note_on channel=12 note=47 velocity=127 time=0
EXTRACT: note_on channel=14 note=47 velocity=127 time=0
EXTRACT: note_on channel=9 note=46 velocity=0 time=0.1319443125
EXTRACT: note_on channel=9 note=54 velocity=0 time=0
EXTRACT: note_on channel=9 note=56 velocity=0 time=0
EXTRACT: note_on channel=9 note=39 velocity=0 time=0
EXTRACT: note_on channel=9 note=42 velocity=0 time=0
EXTRACT: note_on channel=9 note=54 velocity=127 time=0.0069444375
EXTRACT: note_on channel=9 note=42 velocity=127 time=0
EXTRACT: note_on channel=10 note=67 velocity=0 time=0.04629625
EXTRACT: note_on channel=10 note=67 velocity=0 time=0
EXTRACT: note_on channel=10 note=67 velocity=0 time=0
EXTRACT: note_on channel=9 note=54 velocity=0 time=0.0856480625
EXTRACT: note_on channel=9 note=42 velocity=0 time=0
EXTRACT: note_on channel=11 note=59 velocity=0 time=0
EXTRACT: note_on channel=11 note=62 velocity=0 time=0
EXTRACT: note_on channel=11 note=67 velocity=0 time=0
EXTRACT: note_on channel=12 note=47 velocity=0 time=0
EXTRACT: note_on channel=13 note=59 velocity=0 time=0
EXTRACT: note_on channel=13 note=62 velocity=0 time=0
EXTRACT: note_on channel=13 note=67 velocity=0 time=0
EXTRACT: note_on channel=14 note=47 velocity=0 time=0
EXTRACT: note_on channel=9 note=54 velocity=127 time=0.0069444375
EXTRACT: note_on channel=9 note=56 velocity=127 time=0
EXTRACT: note_on channel=9 note=36 velocity=127 time=0
EXTRACT: note_on channel=9 note=42 velocity=127 time=0
EXTRACT: note_on channel=10 note=65 velocity=127 time=0
EXTRACT: note_on channel=11 note=60 velocity=127 time=0
EXTRACT: note_on channel=11 note=63 velocity=127 time=0
EXTRACT: note_on channel=11 note=67 velocity=127 time=0
EXTRACT: note_on channel=12 note=48 velocity=127 time=0
EXTRACT: note_on channel=13 note=60 velocity=127 time=0
EXTRACT: note_on channel=13 note=63 velocity=127 time=0
EXTRACT: note_on channel=13 note=67 velocity=127 time=0
EXTRACT: note_on channel=14 note=48 velocity=127 time=0
EXTRACT: note_on channel=10 note=65 velocity=127 time=0
EXTRACT: note_on channel=10 note=65 velocity=127 time=0
EXTRACT: note_on channel=9 note=54 velocity=0 time=0.1319443125
EXTRACT: note_on channel=9 note=56 velocity=0 time=0
EXTRACT: note_on channel=9 note=36 velocity=0 time=0
EXTRACT: note_on channel=9 note=42 velocity=0 time=0
EXTRACT: note_on channel=9 note=54 velocity=127 time=0.0069444375
EXTRACT: note_on channel=9 note=42 velocity=127 time=0
EXTRACT: note_on channel=9 note=54 velocity=0 time=0.1319443125
EXTRACT: note_on channel=9 note=42 velocity=0 time=0
EXTRACT: note_on channel=9 note=46 velocity=127 time=0.0069444375
EXTRACT: note_on channel=9 note=54 velocity=127 time=0
EXTRACT: note_on channel=9 note=56 velocity=127 time=0
EXTRACT: note_on channel=9 note=42 velocity=127 time=0
EXTRACT: note_on channel=9 note=46 velocity=0 time=0.1319443125
EXTRACT: note_on channel=9 note=54 velocity=0 time=0
EXTRACT: note_on channel=9 note=56 velocity=0 time=0
EXTRACT: note_on channel=9 note=42 velocity=0 time=0
EXTRACT: note_on channel=9 note=54 velocity=127 time=0.0069444375
EXTRACT: note_on channel=9 note=36 velocity=127 time=0
EXTRACT: note_on channel=9 note=54 velocity=0 time=0.1319443125
EXTRACT: note_on channel=9 note=36 velocity=0 time=0
EXTRACT: note_on channel=10 note=65 velocity=0 time=0
EXTRACT: note_on channel=12 note=48 velocity=0 time=0
EXTRACT: note_on channel=14 note=48 velocity=0 time=0
EXTRACT: note_on channel=10 note=65 velocity=0 time=0
EXTRACT: note_on channel=10 note=65 velocity=0 time=0
EXTRACT: note_on channel=9 note=46 velocity=127 time=0.0069444375
EXTRACT: note_on channel=9 note=54 velocity=127 time=0
EXTRACT: note_on channel=9 note=56 velocity=127 time=0
EXTRACT: note_on channel=9 note=36 velocity=127 time=0
EXTRACT: note_on channel=9 note=42 velocity=127 time=0
EXTRACT: note_on channel=10 note=63 velocity=127 time=0
EXTRACT: note_on channel=12 note=48 velocity=127 time=0
EXTRACT: note_on channel=14 note=48 velocity=127 time=0
EXTRACT: note_on channel=10 note=63 velocity=127 time=0
EXTRACT: note_on channel=10 note=63 velocity=127 time=0
EXTRACT: note_on channel=9 note=46 velocity=0 time=0.1319443125
EXTRACT: note_on channel=9 note=54 velocity=0 time=0
EXTRACT: note_on channel=9 note=56 velocity=0 time=0
EXTRACT: note_on channel=9 note=36 velocity=0 time=0
EXTRACT: note_on channel=9 note=42 velocity=0 time=0
EXTRACT: note_on channel=9 note=54 velocity=127 time=0.0069444375
EXTRACT: note_on channel=9 note=36 velocity=127 time=0
EXTRACT: note_on channel=9 note=42 velocity=127 time=0
EXTRACT: note_on channel=9 note=54 velocity=0 time=0.1319443125
EXTRACT: note_on channel=9 note=36 velocity=0 time=0
EXTRACT: note_on channel=9 note=42 velocity=0 time=0
EXTRACT: note_on channel=9 note=54 velocity=127 time=0.0069444375
EXTRACT: note_on channel=9 note=56 velocity=127 time=0
EXTRACT: note_on channel=9 note=39 velocity=127 time=0
EXTRACT: note_on channel=9 note=39 velocity=0 time=0.1319443125
EXTRACT: note_on channel=9 note=42 velocity=127 time=0.0069444375
EXTRACT: note_on channel=12 note=48 velocity=0 time=0.04629625
EXTRACT: note_on channel=14 note=48 velocity=0 time=0
EXTRACT: note_on channel=9 note=54 velocity=0 time=0.0856480625
EXTRACT: note_on channel=9 note=56 velocity=0 time=0
EXTRACT: note_on channel=9 note=42 velocity=0 time=0
EXTRACT: note_on channel=9 note=54 velocity=127 time=0.0069444375
EXTRACT: note_on channel=9 note=36 velocity=127 time=0
EXTRACT: note_on channel=9 note=42 velocity=127 time=0
EXTRACT: note_on channel=12 note=43 velocity=127 time=0
EXTRACT: note_on channel=14 note=43 velocity=127 time=0
EXTRACT: note_on channel=9 note=54 velocity=0 time=0.1319443125
EXTRACT: note_on channel=9 note=36 velocity=0 time=0
EXTRACT: note_on channel=9 note=42 velocity=0 time=0
EXTRACT: note_on channel=9 note=54 velocity=127 time=0.0069444375
EXTRACT: note_on channel=9 note=56 velocity=127 time=0
EXTRACT: note_on channel=9 note=42 velocity=127 time=0
EXTRACT: note_on channel=11 note=60 velocity=0 time=0
EXTRACT: note_on channel=11 note=63 velocity=0 time=0
EXTRACT: note_on channel=11 note=67 velocity=0 time=0
EXTRACT: note_on channel=13 note=60 velocity=0 time=0
EXTRACT: note_on channel=13 note=63 velocity=0 time=0
EXTRACT: note_on channel=13 note=67 velocity=0 time=0
EXTRACT: note_on channel=10 note=63 velocity=0 time=0.04629625
EXTRACT: note_on channel=10 note=63 velocity=0 time=0
EXTRACT: note_on channel=10 note=63 velocity=0 time=0
EXTRACT: note_on channel=9 note=54 velocity=0 time=0.0856480625
EXTRACT: note_on channel=9 note=56 velocity=0 time=0
EXTRACT: note_on channel=9 note=42 velocity=0 time=0
EXTRACT: note_on channel=12 note=43 velocity=0 time=0
EXTRACT: note_on channel=14 note=43 velocity=0 time=0
EXTRACT: note_on channel=9 note=54 velocity=127 time=0.0069444375
EXTRACT: note_on channel=9 note=36 velocity=127 time=0
EXTRACT: note_on channel=11 note=60 velocity=127 time=0
EXTRACT: note_on channel=11 note=63 velocity=127 time=0
EXTRACT: note_on channel=11 note=67 velocity=127 time=0
EXTRACT: note_on channel=12 note=48 velocity=127 time=0
EXTRACT: note_on channel=13 note=60 velocity=127 time=0
EXTRACT: note_on channel=13 note=63 velocity=127 time=0
EXTRACT: note_on channel=13 note=67 velocity=127 time=0
EXTRACT: note_on channel=14 note=48 velocity=127 time=0
EXTRACT: note_on channel=9 note=54 velocity=0 time=0.1319443125
EXTRACT: note_on channel=9 note=36 velocity=0 time=0
EXTRACT: note_on channel=9 note=46 velocity=127 time=0.0069444375
EXTRACT: note_on channel=9 note=54 velocity=127 time=0
EXTRACT: note_on channel=9 note=56 velocity=127 time=0
EXTRACT: note_on channel=9 note=42 velocity=127 time=0
EXTRACT: note_on channel=9 note=46 velocity=0 time=0.1319443125
EXTRACT: note_on channel=9 note=54 velocity=0 time=0
EXTRACT: note_on channel=9 note=56 velocity=0 time=0
EXTRACT: note_on channel=12 note=48 velocity=0 time=0
EXTRACT: note_on channel=14 note=48 velocity=0 time=0
EXTRACT: note_on channel=9 note=54 velocity=127 time=0.0069444375
EXTRACT: note_on channel=9 note=56 velocity=127 time=0
EXTRACT: note_on channel=10 note=67 velocity=127 time=0
EXTRACT: note_on channel=12 note=48 velocity=127 time=0
EXTRACT: note_on channel=14 note=48 velocity=127 time=0
EXTRACT: note_on channel=10 note=67 velocity=127 time=0
EXTRACT: note_on channel=10 note=67 velocity=127 time=0
EXTRACT: note_on channel=9 note=54 velocity=0 time=0.1319443125
EXTRACT: note_on channel=9 note=56 velocity=0 time=0
EXTRACT: note_on channel=9 note=42 velocity=0 time=0
EXTRACT: note_on channel=11 note=60 velocity=0 time=0
EXTRACT: note_on channel=11 note=63 velocity=0 time=0
EXTRACT: note_on channel=11 note=67 velocity=0 time=0
EXTRACT: note_on channel=13 note=60 velocity=0 time=0
EXTRACT: note_on channel=13 note=63 velocity=0 time=0
EXTRACT: note_on channel=13 note=67 velocity=0 time=0
EXTRACT: note_on channel=9 note=56 velocity=127 time=0.0069444375
EXTRACT: note_on channel=9 note=42 velocity=127 time=0
EXTRACT: note_on channel=11 note=60 velocity=127 time=0
EXTRACT: note_on channel=11 note=63 velocity=127 time=0
EXTRACT: note_on channel=11 note=67 velocity=127 time=0
EXTRACT: note_on channel=13 note=60 velocity=127 time=0
EXTRACT: note_on channel=13 note=63 velocity=127 time=0
EXTRACT: note_on channel=13 note=67 velocity=127 time=0
EXTRACT: note_on channel=9 note=56 velocity=0 time=0.1319443125
EXTRACT: note_on channel=9 note=42 velocity=0 time=0
EXTRACT: note_on channel=10 note=67 velocity=0 time=0
EXTRACT: note_on channel=12 note=48 velocity=0 time=0
EXTRACT: note_on channel=14 note=48 velocity=0 time=0
EXTRACT: note_on channel=10 note=67 velocity=0 time=0
EXTRACT: note_on channel=10 note=67 velocity=0 time=0
EXTRACT: note_on channel=9 note=46 velocity=127 time=0.0069444375
EXTRACT: note_on channel=9 note=54 velocity=127 time=0
EXTRACT: note_on channel=9 note=56 velocity=127 time=0
EXTRACT: note_on channel=9 note=39 velocity=127 time=0
EXTRACT: note_on channel=9 note=42 velocity=127 time=0
EXTRACT: note_on channel=10 note=67 velocity=127 time=0
EXTRACT: note_on channel=12 note=48 velocity=127 time=0
EXTRACT: note_on channel=14 note=48 velocity=127 time=0
EXTRACT: note_on channel=10 note=67 velocity=127 time=0
EXTRACT: note_on channel=10 note=67 velocity=127 time=0
EXTRACT: note_on channel=9 note=46 velocity=0 time=0.1319443125
EXTRACT: note_on channel=9 note=54 velocity=0 time=0
EXTRACT: note_on channel=9 note=56 velocity=0 time=0
EXTRACT: note_on channel=9 note=39 velocity=0 time=0
EXTRACT: note_on channel=9 note=42 velocity=0 time=0
EXTRACT: note_on channel=9 note=54 velocity=127 time=0.0069444375
EXTRACT: note_on channel=9 note=42 velocity=127 time=0
EXTRACT: note_on channel=9 note=54 velocity=0 time=0.1319443125
EXTRACT: note_on channel=9 note=42 velocity=0 time=0
EXTRACT: note_on channel=10 note=67 velocity=0 time=0
EXTRACT: note_on channel=11 note=60 velocity=0 time=0
EXTRACT: note_on channel=11 note=63 velocity=0 time=0
EXTRACT: note_on channel=11 note=67 velocity=0 time=0
EXTRACT: note_on channel=12 note=48 velocity=0 time=0
EXTRACT: note_on channel=13 note=60 velocity=0 time=0
EXTRACT: note_on channel=13 note=63 velocity=0 time=0
EXTRACT: note_on channel=13 note=67 velocity=0 time=0
EXTRACT: note_on channel=14 note=48 velocity=0 time=0
EXTRACT: note_on channel=10 note=67 velocity=0 time=0
EXTRACT: note_on channel=10 note=67 velocity=0 time=0
EXTRACT: note_on channel=9 note=54 velocity=127 time=0.0069444375
EXTRACT: note_on channel=9 note=56 velocity=127 time=0
EXTRACT: note_on channel=9 note=36 velocity=127 time=0
EXTRACT: note_on channel=9 note=42 velocity=127 time=0
EXTRACT: note_on channel=10 note=65 velocity=127 time=0
EXTRACT: note_on channel=11 note=60 velocity=127 time=0
EXTRACT: note_on channel=11 note=63 velocity=127 time=0
EXTRACT: note_on channel=11 note=68 velocity=127 time=0
EXTRACT: note_on channel=12 note=43 velocity=127 time=0
EXTRACT: note_on channel=13 note=60 velocity=127 time=0
EXTRACT: note_on channel=13 note=63 velocity=127 time=0
EXTRACT: note_on channel=13 note=68 velocity=127 time=0
EXTRACT: note_on channel=14 note=43 velocity=127 time=0
EXTRACT: note_on channel=10 note=65 velocity=127 time=0
EXTRACT: note_on channel=10 note=65 velocity=127 time=0
EXTRACT: note_on channel=9 note=54 velocity=0 time=0.1319443125
EXTRACT: note_on channel=9 note=56 velocity=0 time=0
EXTRACT: note_on channel=9 note=36 velocity=0 time=0
EXTRACT: note_on channel=9 note=42 velocity=0 time=0
EXTRACT: note_on channel=9 note=54 velocity=127 time=0.0069444375
EXTRACT: note_on channel=9 note=42 velocity=127 time=0
EXTRACT: note_on channel=9 note=54 velocity=0 time=0.1319443125
EXTRACT: note_on channel=9 note=42 velocity=0 time=0
EXTRACT: note_on channel=10 note=65 velocity=0 time=0
EXTRACT: note_on channel=12 note=43 velocity=0 time=0
EXTRACT: note_on channel=14 note=43 velocity=0 time=0
EXTRACT: note_on channel=10 note=65 velocity=0 time=0
EXTRACT: note_on channel=10 note=65 velocity=0 time=0
EXTRACT: note_on channel=9 note=46 velocity=127 time=0.0069444375
EXTRACT: note_on channel=9 note=54 velocity=127 time=0
EXTRACT: note_on channel=9 note=56 velocity=127 time=0
EXTRACT: note_on channel=9 note=42 velocity=127 time=0
EXTRACT: note_on channel=10 note=65 velocity=127 time=0
EXTRACT: note_on channel=12 note=44 velocity=127 time=0
EXTRACT: note_on channel=14 note=44 velocity=127 time=0
EXTRACT: note_on channel=10 note=65 velocity=127 time=0
EXTRACT: note_on channel=10 note=65 velocity=127 time=0
EXTRACT: note_on channel=9 note=46 velocity=0 time=0.1319443125
EXTRACT: note_on channel=9 note=54 velocity=0 time=0
EXTRACT: note_on channel=9 note=56 velocity=0 time=0
EXTRACT: note_on channel=9 note=42 velocity=0 time=0
EXTRACT: note_on channel=9 note=54 velocity=127 time=0.0069444375
EXTRACT: note_on channel=9 note=36 velocity=127 time=0
EXTRACT: note_on channel=9 note=54 velocity=0 time=0.1319443125
EXTRACT: note_on channel=9 note=36 velocity=0 time=0
EXTRACT: note_on channel=10 note=65 velocity=0 time=0
EXTRACT: note_on channel=12 note=44 velocity=0 time=0
EXTRACT: note_on channel=14 note=44 velocity=0 time=0
EXTRACT: note_on channel=10 note=65 velocity=0 time=0
EXTRACT: note_on channel=10 note=65 velocity=0 time=0
EXTRACT: note_on channel=9 note=46 velocity=127 time=0.0069444375
EXTRACT: note_on channel=9 note=54 velocity=127 time=0
EXTRACT: note_on channel=9 note=56 velocity=127 time=0
EXTRACT: note_on channel=9 note=36 velocity=127 time=0
EXTRACT: note_on channel=9 note=42 velocity=127 time=0
EXTRACT: note_on channel=10 note=63 velocity=127 time=0
EXTRACT: note_on channel=12 note=44 velocity=127 time=0
EXTRACT: note_on channel=14 note=44 velocity=127 time=0
EXTRACT: note_on channel=10 note=63 velocity=127 time=0
EXTRACT: note_on channel=10 note=63 velocity=127 time=0
EXTRACT: note_on channel=9 note=46 velocity=0 time=0.1319443125
EXTRACT: note_on channel=9 note=54 velocity=0 time=0
EXTRACT: note_on channel=9 note=56 velocity=0 time=0
EXTRACT: note_on channel=9 note=36 velocity=0 time=0
EXTRACT: note_on channel=9 note=42 velocity=0 time=0
EXTRACT: note_on channel=9 note=54 velocity=127 time=0.0069444375
EXTRACT: note_on channel=9 note=36 velocity=127 time=0
EXTRACT: note_on channel=9 note=42 velocity=127 time=0
EXTRACT: note_on channel=9 note=54 velocity=0 time=0.1319443125
EXTRACT: note_on channel=9 note=36 velocity=0 time=0
EXTRACT: note_on channel=9 note=42 velocity=0 time=0
EXTRACT: note_on channel=10 note=63 velocity=0 time=0
EXTRACT: note_on channel=10 note=63 velocity=0 time=0
EXTRACT: note_on channel=10 note=63 velocity=0 time=0
EXTRACT: note_on channel=9 note=54 velocity=127 time=0.0069444375
EXTRACT: note_on channel=9 note=56 velocity=127 time=0
EXTRACT: note_on channel=9 note=39 velocity=127 time=0
EXTRACT: note_on channel=9 note=39 velocity=0 time=0.1319443125
EXTRACT: note_on channel=9 note=42 velocity=127 time=0.0069444375
EXTRACT: note_on channel=9 note=54 velocity=0 time=0.1319443125
EXTRACT: note_on channel=9 note=56 velocity=0 time=0
EXTRACT: note_on channel=9 note=42 velocity=0 time=0
EXTRACT: note_on channel=9 note=54 velocity=127 time=0.0069444375
EXTRACT: note_on channel=9 note=36 velocity=127 time=0
EXTRACT: note_on channel=9 note=42 velocity=127 time=0
EXTRACT: note_on channel=10 note=60 velocity=127 time=0
EXTRACT: note_on channel=10 note=60 velocity=127 time=0
EXTRACT: note_on channel=10 note=60 velocity=127 time=0
EXTRACT: note_on channel=9 note=54 velocity=0 time=0.1319443125
EXTRACT: note_on channel=9 note=36 velocity=0 time=0
EXTRACT: note_on channel=9 note=42 velocity=0 time=0
EXTRACT: note_on channel=9 note=54 velocity=127 time=0.0069444375
EXTRACT: note_on channel=9 note=56 velocity=127 time=0
EXTRACT: note_on channel=9 note=42 velocity=127 time=0
EXTRACT: note_on channel=11 note=60 velocity=0 time=0
EXTRACT: note_on channel=11 note=63 velocity=0 time=0
EXTRACT: note_on channel=11 note=68 velocity=0 time=0
EXTRACT: note_on channel=13 note=60 velocity=0 time=0
EXTRACT: note_on channel=13 note=63 velocity=0 time=0
EXTRACT: note_on channel=13 note=68 velocity=0 time=0
EXTRACT: note_on channel=12 note=44 velocity=0 time=0.04629625
EXTRACT: note_on channel=14 note=44 velocity=0 time=0
EXTRACT: note_on channel=9 note=54 velocity=0 time=0.0856480625
EXTRACT: note_on channel=9 note=56 velocity=0 time=0
EXTRACT: note_on channel=9 note=42 velocity=0 time=0
EXTRACT: note_on channel=10 note=60 velocity=0 time=0
EXTRACT: note_on channel=10 note=60 velocity=0 time=0
EXTRACT: note_on channel=10 note=60 velocity=0 time=0
EXTRACT: note_on channel=9 note=54 velocity=127 time=0.0069444375
EXTRACT: note_on channel=9 note=36 velocity=127 time=0
EXTRACT: note_on channel=10 note=59 velocity=127 time=0
EXTRACT: note_on channel=11 note=59 velocity=127 time=0
EXTRACT: note_on channel=11 note=62 velocity=127 time=0
EXTRACT: note_on channel=11 note=67 velocity=127 time=0
EXTRACT: note_on channel=12 note=43 velocity=127 time=0
EXTRACT: note_on channel=13 note=59 velocity=127 time=0
EXTRACT: note_on channel=13 note=62 velocity=127 time=0
EXTRACT: note_on channel=13 note=67 velocity=127 time=0
EXTRACT: note_on channel=14 note=43 velocity=127 time=0
EXTRACT: note_on channel=10 note=59 velocity=127 time=0
EXTRACT: note_on channel=10 note=59 velocity=127 time=0
EXTRACT: note_on channel=9 note=54 velocity=0 time=0.1319443125
EXTRACT: note_on channel=9 note=36 velocity=0 time=0
EXTRACT: note_on channel=9 note=46 velocity=127 time=0.0069444375
EXTRACT: note_on channel=9 note=54 velocity=127 time=0
EXTRACT: note_on channel=9 note=56 velocity=127 time=0
EXTRACT: note_on channel=9 note=42 velocity=127 time=0
EXTRACT: note_on channel=9 note=46 velocity=0 time=0.1319443125
EXTRACT: note_on channel=9 note=54 velocity=0 time=0
EXTRACT: note_on channel=9 note=56 velocity=0 time=0
EXTRACT: note_on channel=9 note=54 velocity=127 time=0.0069444375
EXTRACT: note_on channel=9 note=56 velocity=127 time=0
EXTRACT: note_on channel=9 note=54 velocity=0 time=0.1319443125
EXTRACT: note_on channel=9 note=56 velocity=0 time=0
EXTRACT: note_on channel=9 note=42 velocity=0 time=0
EXTRACT: note_on channel=10 note=59 velocity=0 time=0
EXTRACT: note_on channel=11 note=59 velocity=0 time=0
EXTRACT: note_on channel=11 note=62 velocity=0 time=0
EXTRACT: note_on channel=11 note=67 velocity=0 time=0
EXTRACT: note_on channel=13 note=59 velocity=0 time=0
EXTRACT: note_on channel=13 note=62 velocity=0 time=0
EXTRACT: note_on channel=13 note=67 velocity=0 time=0
EXTRACT: note_on channel=10 note=59 velocity=0 time=0
EXTRACT: note_on channel=10 note=59 velocity=0 time=0
EXTRACT: note_on channel=9 note=56 velocity=127 time=0.0069444375
EXTRACT: note_on channel=9 note=42 velocity=127 time=0
EXTRACT: note_on channel=10 note=65 velocity=127 time=0
EXTRACT: note_on channel=11 note=59 velocity=127 time=0
EXTRACT: note_on channel=11 note=62 velocity=127 time=0
EXTRACT: note_on channel=11 note=67 velocity=127 time=0
EXTRACT: note_on channel=13 note=59 velocity=127 time=0
EXTRACT: note_on channel=13 note=62 velocity=127 time=0
EXTRACT: note_on channel=13 note=67 velocity=127 time=0
EXTRACT: note_on channel=10 note=65 velocity=127 time=0
EXTRACT: note_on channel=10 note=65 velocity=127 time=0
EXTRACT: note_on channel=12 note=43 velocity=0 time=0.04629625
EXTRACT: note_on channel=14 note=43 velocity=0 time=0
EXTRACT: note_on channel=9 note=56 velocity=0 time=0.0856480625
EXTRACT: note_on channel=9 note=42 velocity=0 time=0
EXTRACT: note_on channel=9 note=46 velocity=127 time=0.0069444375
EXTRACT: note_on channel=9 note=54 velocity=127 time=0
EXTRACT: note_on channel=9 note=56 velocity=127 time=0
EXTRACT: note_on channel=9 note=39 velocity=127 time=0
EXTRACT: note_on channel=9 note=42 velocity=127 time=0
EXTRACT: note_on channel=12 note=47 velocity=127 time=0
EXTRACT: note_on channel=14 note=47 velocity=127 time=0
EXTRACT: note_on channel=9 note=46 velocity=0 time=0.1319443125
EXTRACT: note_on channel=9 note=54 velocity=0 time=0
EXTRACT: note_on channel=9 note=56 velocity=0 time=0
EXTRACT: note_on channel=9 note=39 velocity=0 time=0
EXTRACT: note_on channel=9 note=42 velocity=0 time=0
EXTRACT: note_on channel=9 note=54 velocity=127 time=0.0069444375
EXTRACT: note_on channel=9 note=42 velocity=127 time=0
EXTRACT: note_on channel=9 note=54 velocity=0 time=0.1319443125
EXTRACT: note_on channel=9 note=42 velocity=0 time=0
EXTRACT: note_on channel=10 note=65 velocity=0 time=0
EXTRACT: note_on channel=11 note=59 velocity=0 time=0
EXTRACT: note_on channel=11 note=62 velocity=0 time=0
EXTRACT: note_on channel=11 note=67 velocity=0 time=0
EXTRACT: note_on channel=12 note=47 velocity=0 time=0
EXTRACT: note_on channel=13 note=59 velocity=0 time=0
EXTRACT: note_on channel=13 note=62 velocity=0 time=0
EXTRACT: note_on channel=13 note=67 velocity=0 time=0
EXTRACT: note_on channel=14 note=47 velocity=0 time=0
EXTRACT: note_on channel=10 note=65 velocity=0 time=0
EXTRACT: note_on channel=10 note=65 velocity=0 time=0
EXTRACT: note_on channel=9 note=54 velocity=127 time=0.0069444375
EXTRACT: note_on channel=9 note=56 velocity=127 time=0
EXTRACT: note_on channel=9 note=36 velocity=127 time=0
EXTRACT: note_on channel=9 note=42 velocity=127 time=0
EXTRACT: note_on channel=10 note=63 velocity=127 time=0
EXTRACT: note_on channel=11 note=60 velocity=127 time=0
EXTRACT: note_on channel=11 note=63 velocity=127 time=0
EXTRACT: note_on channel=11 note=67 velocity=127 time=0
EXTRACT: note_on channel=12 note=48 velocity=127 time=0
EXTRACT: note_on channel=13 note=60 velocity=127 time=0
EXTRACT: note_on channel=13 note=63 velocity=127 time=0
EXTRACT: note_on channel=13 note=67 velocity=127 time=0
EXTRACT: note_on channel=14 note=48 velocity=127 time=0
EXTRACT: note_on channel=10 note=63 velocity=127 time=0
EXTRACT: note_on channel=10 note=63 velocity=127 time=0
EXTRACT: note_on channel=9 note=54 velocity=0 time=0.1319443125
EXTRACT: note_on channel=9 note=56 velocity=0 time=0
EXTRACT: note_on channel=9 note=36 velocity=0 time=0
EXTRACT: note_on channel=9 note=42 velocity=0 time=0
EXTRACT: note_on channel=9 note=54 velocity=127 time=0.0069444375
EXTRACT: note_on channel=9 note=42 velocity=127 time=0
EXTRACT: note_on channel=9 note=54 velocity=0 time=0.1319443125
EXTRACT: note_on channel=9 note=42 velocity=0 time=0
EXTRACT: note_on channel=9 note=46 velocity=127 time=0.0069444375
EXTRACT: note_on channel=9 note=54 velocity=127 time=0
EXTRACT: note_on channel=9 note=56 velocity=127 time=0
EXTRACT: note_on channel=9 note=42 velocity=127 time=0
EXTRACT: note_on channel=9 note=46 velocity=0 time=0.1319443125
EXTRACT: note_on channel=9 note=54 velocity=0 time=0
EXTRACT: note_on channel=9 note=56 velocity=0 time=0
EXTRACT: note_on channel=9 note=42 velocity=0 time=0
EXTRACT: note_on channel=9 note=54 velocity=127 time=0.0069444375
EXTRACT: note_on channel=9 note=36 velocity=127 time=0
EXTRACT: note_on channel=9 note=54 velocity=0 time=0.1319443125
EXTRACT: note_on channel=9 note=36 velocity=0 time=0
EXTRACT: note_on channel=10 note=63 velocity=0 time=0
EXTRACT: note_on channel=12 note=48 velocity=0 time=0
EXTRACT: note_on channel=14 note=48 velocity=0 time=0
EXTRACT: note_on channel=10 note=63 velocity=0 time=0
EXTRACT: note_on channel=10 note=63 velocity=0 time=0
EXTRACT: note_on channel=9 note=46 velocity=127 time=0.0069444375
EXTRACT: note_on channel=9 note=54 velocity=127 time=0
EXTRACT: note_on channel=9 note=56 velocity=127 time=0
EXTRACT: note_on channel=9 note=36 velocity=127 time=0
EXTRACT: note_on channel=9 note=42 velocity=127 time=0
EXTRACT: note_on channel=10 note=60 velocity=127 time=0
EXTRACT: note_on channel=12 note=48 velocity=127 time=0
EXTRACT: note_on channel=14 note=48 velocity=127 time=0
EXTRACT: note_on channel=10 note=60 velocity=127 time=0
EXTRACT: note_on channel=10 note=60 velocity=127 time=0
EXTRACT: note_on channel=9 note=46 velocity=0 time=0.1319443125
EXTRACT: note_on channel=9 note=54 velocity=0 time=0
EXTRACT: note_on channel=9 note=56 velocity=0 time=0
EXTRACT: note_on channel=9 note=36 velocity=0 time=0
EXTRACT: note_on channel=9 note=42 velocity=0 time=0
EXTRACT: note_on channel=9 note=54 velocity=127 time=0.0069444375
EXTRACT: note_on channel=9 note=36 velocity=127 time=0
EXTRACT: note_on channel=9 note=42 velocity=127 time=0
EXTRACT: note_on channel=9 note=54 velocity=0 time=0.1319443125
EXTRACT: note_on channel=9 note=36 velocity=0 time=0
EXTRACT: note_on channel=9 note=42 velocity=0 time=0
EXTRACT: note_on channel=9 note=54 velocity=127 time=0.0069444375
EXTRACT: note_on channel=9 note=56 velocity=127 time=0
EXTRACT: note_on channel=9 note=39 velocity=127 time=0
EXTRACT: note_on channel=10 note=60 velocity=0 time=0
EXTRACT: note_on channel=10 note=62 velocity=127 time=0
EXTRACT: note_on channel=10 note=60 velocity=0 time=0
EXTRACT: note_on channel=10 note=62 velocity=127 time=0
EXTRACT: note_on channel=10 note=60 velocity=0 time=0
EXTRACT: note_on channel=10 note=62 velocity=127 time=0
EXTRACT: note_on channel=9 note=39 velocity=0 time=0.1319443125
EXTRACT: note_on channel=9 note=42 velocity=127 time=0.0069444375
EXTRACT: note_on channel=12 note=48 velocity=0 time=0.04629625
EXTRACT: note_on channel=14 note=48 velocity=0 time=0
EXTRACT: note_on channel=9 note=54 velocity=0 time=0.0856480625
EXTRACT: note_on channel=9 note=56 velocity=0 time=0
EXTRACT: note_on channel=9 note=42 velocity=0 time=0
EXTRACT: note_on channel=9 note=54 velocity=127 time=0.0069444375
EXTRACT: note_on channel=9 note=36 velocity=127 time=0
EXTRACT: note_on channel=9 note=42 velocity=127 time=0
EXTRACT: note_on channel=10 note=62 velocity=0 time=0
EXTRACT: note_on channel=10 note=65 velocity=127 time=0
EXTRACT: note_on channel=12 note=43 velocity=127 time=0
EXTRACT: note_on channel=14 note=43 velocity=127 time=0
EXTRACT: note_on channel=10 note=62 velocity=0 time=0
EXTRACT: note_on channel=10 note=65 velocity=127 time=0
EXTRACT: note_on channel=10 note=62 velocity=0 time=0
EXTRACT: note_on channel=10 note=65 velocity=127 time=0
EXTRACT: note_on channel=9 note=54 velocity=0 time=0.1319443125
EXTRACT: note_on channel=9 note=36 velocity=0 time=0
EXTRACT: note_on channel=9 note=42 velocity=0 time=0
EXTRACT: note_on channel=9 note=54 velocity=127 time=0.0069444375
EXTRACT: note_on channel=9 note=56 velocity=127 time=0
EXTRACT: note_on channel=9 note=42 velocity=127 time=0
EXTRACT: note_on channel=11 note=60 velocity=0 time=0
EXTRACT: note_on channel=11 note=63 velocity=0 time=0
EXTRACT: note_on channel=11 note=67 velocity=0 time=0
EXTRACT: note_on channel=13 note=60 velocity=0 time=0
EXTRACT: note_on channel=13 note=63 velocity=0 time=0
EXTRACT: note_on channel=13 note=67 velocity=0 time=0
EXTRACT: note_on channel=9 note=54 velocity=0 time=0.1319443125
EXTRACT: note_on channel=9 note=56 velocity=0 time=0
EXTRACT: note_on channel=9 note=42 velocity=0 time=0
EXTRACT: note_on channel=10 note=65 velocity=0 time=0
EXTRACT: note_on channel=12 note=43 velocity=0 time=0
EXTRACT: note_on channel=14 note=43 velocity=0 time=0
EXTRACT: note_on channel=10 note=65 velocity=0 time=0
EXTRACT: note_on channel=10 note=65 velocity=0 time=0
EXTRACT: note_on channel=9 note=54 velocity=127 time=0.0069444375
EXTRACT: note_on channel=9 note=36 velocity=127 time=0
EXTRACT: note_on channel=10 note=67 velocity=127 time=0
EXTRACT: note_on channel=11 note=60 velocity=127 time=0
EXTRACT: note_on channel=11 note=63 velocity=127 time=0
EXTRACT: note_on channel=11 note=67 velocity=127 time=0
EXTRACT: note_on channel=12 note=48 velocity=127 time=0
EXTRACT: note_on channel=13 note=60 velocity=127 time=0
EXTRACT: note_on channel=13 note=63 velocity=127 time=0
EXTRACT: note_on channel=13 note=67 velocity=127 time=0
EXTRACT: note_on channel=14 note=48 velocity=127 time=0
EXTRACT: note_on channel=10 note=67 velocity=127 time=0
EXTRACT: note_on channel=10 note=67 velocity=127 time=0
EXTRACT: note_on channel=9 note=54 velocity=0 time=0.1319443125
EXTRACT: note_on channel=9 note=36 velocity=0 time=0
EXTRACT: note_on channel=9 note=46 velocity=127 time=0.0069444375
EXTRACT: note_on channel=9 note=54 velocity=127 time=0
EXTRACT: note_on channel=9 note=56 velocity=127 time=0
EXTRACT: note_on channel=9 note=42 velocity=127 time=0
EXTRACT: note_on channel=9 note=46 velocity=0 time=0.1319443125
EXTRACT: note_on channel=9 note=54 velocity=0 time=0
EXTRACT: note_on channel=9 note=56 velocity=0 time=0
EXTRACT: note_on channel=12 note=48 velocity=0 time=0
EXTRACT: note_on channel=14 note=48 velocity=0 time=0
EXTRACT: note_on channel=9 note=54 velocity=127 time=0.0069444375
EXTRACT: note_on channel=9 note=56 velocity=127 time=0
EXTRACT: note_on channel=12 note=48 velocity=127 time=0
EXTRACT: note_on channel=14 note=48 velocity=127 time=0
EXTRACT: note_on channel=9 note=54 velocity=0 time=0.1319443125
EXTRACT: note_on channel=9 note=56 velocity=0 time=0
EXTRACT: note_on channel=9 note=42 velocity=0 time=0
EXTRACT: note_on channel=11 note=60 velocity=0 time=0
EXTRACT: note_on channel=11 note=63 velocity=0 time=0
EXTRACT: note_on channel=11 note=67 velocity=0 time=0
EXTRACT: note_on channel=13 note=60 velocity=0 time=0
EXTRACT: note_on channel=13 note=63 velocity=0 time=0
EXTRACT: note_on channel=13 note=67 velocity=0 time=0
EXTRACT: note_on channel=9 note=56 velocity=127 time=0.0069444375
EXTRACT: note_on channel=9 note=42 velocity=127 time=0
EXTRACT: note_on channel=11 note=60 velocity=127 time=0
EXTRACT: note_on channel=11 note=63 velocity=127 time=0
EXTRACT: note_on channel=11 note=67 velocity=127 time=0
EXTRACT: note_on channel=13 note=60 velocity=127 time=0
EXTRACT: note_on channel=13 note=63 velocity=127 time=0
EXTRACT: note_on channel=13 note=67 velocity=127 time=0
EXTRACT: note_on channel=9 note=56 velocity=0 time=0.1319443125
EXTRACT: note_on channel=9 note=42 velocity=0 time=0
EXTRACT: note_on channel=12 note=48 velocity=0 time=0
EXTRACT: note_on channel=14 note=48 velocity=0 time=0
EXTRACT: note_on channel=9 note=46 velocity=127 time=0.0069444375
EXTRACT: note_on channel=9 note=54 velocity=127 time=0
EXTRACT: note_on channel=9 note=56 velocity=127 time=0
EXTRACT: note_on channel=9 note=39 velocity=127 time=0
EXTRACT: note_on channel=9 note=42 velocity=127 time=0
EXTRACT: note_on channel=12 note=48 velocity=127 time=0
EXTRACT: note_on channel=14 note=48 velocity=127 time=0
EXTRACT: note_on channel=9 note=46 velocity=0 time=0.1319443125
EXTRACT: note_on channel=9 note=54 velocity=0 time=0
EXTRACT: note_on channel=9 note=56 velocity=0 time=0
EXTRACT: note_on channel=9 note=39 velocity=0 time=0
EXTRACT: note_on channel=9 note=42 velocity=0 time=0
EXTRACT: note_on channel=9 note=54 velocity=127 time=0.0069444375
EXTRACT: note_on channel=9 note=42 velocity=127 time=0
EXTRACT: note_on channel=10 note=67 velocity=0 time=0.04629625
EXTRACT: note_on channel=10 note=67 velocity=0 time=0
EXTRACT: note_on channel=10 note=67 velocity=0 time=0
EXTRACT: note_on channel=9 note=54 velocity=0 time=0.0856480625
EXTRACT: note_on channel=9 note=42 velocity=0 time=0
EXTRACT: note_on channel=11 note=60 velocity=0 time=0
EXTRACT: note_on channel=11 note=63 velocity=0 time=0
EXTRACT: note_on channel=11 note=67 velocity=0 time=0
EXTRACT: note_on channel=12 note=48 velocity=0 time=0
EXTRACT: note_on channel=13 note=60 velocity=0 time=0
EXTRACT: note_on channel=13 note=63 velocity=0 time=0
EXTRACT: note_on channel=13 note=67 velocity=0 time=0
EXTRACT: note_on channel=14 note=48 velocity=0 time=0
EXTRACT: note_on channel=9 note=54 velocity=127 time=0.0069444375
EXTRACT: note_on channel=9 note=56 velocity=127 time=0
EXTRACT: note_on channel=9 note=36 velocity=127 time=0
EXTRACT: note_on channel=9 note=42 velocity=127 time=0
EXTRACT: note_on channel=10 note=68 velocity=127 time=0
EXTRACT: note_on channel=11 note=60 velocity=127 time=0
EXTRACT: note_on channel=11 note=63 velocity=127 time=0
EXTRACT: note_on channel=11 note=68 velocity=127 time=0
EXTRACT: note_on channel=12 note=43 velocity=127 time=0
EXTRACT: note_on channel=13 note=60 velocity=127 time=0
EXTRACT: note_on channel=13 note=63 velocity=127 time=0
EXTRACT: note_on channel=13 note=68 velocity=127 time=0
EXTRACT: note_on channel=14 note=43 velocity=127 time=0
EXTRACT: note_on channel=10 note=68 velocity=127 time=0
EXTRACT: note_on channel=10 note=68 velocity=127 time=0
EXTRACT: note_on channel=9 note=54 velocity=0 time=0.1319443125
EXTRACT: note_on channel=9 note=56 velocity=0 time=0
EXTRACT: note_on channel=9 note=36 velocity=0 time=0
EXTRACT: note_on channel=9 note=42 velocity=0 time=0
EXTRACT: note_on channel=9 note=54 velocity=127 time=0.0069444375
EXTRACT: note_on channel=9 note=42 velocity=127 time=0
EXTRACT: note_on channel=9 note=54 velocity=0 time=0.1319443125
EXTRACT: note_on channel=9 note=42 velocity=0 time=0
EXTRACT: note_on channel=12 note=43 velocity=0 time=0
EXTRACT: note_on channel=14 note=43 velocity=0 time=0
EXTRACT: note_on channel=9 note=46 velocity=127 time=0.0069444375
EXTRACT: note_on channel=9 note=54 velocity=127 time=0
EXTRACT: note_on channel=9 note=56 velocity=127 time=0
EXTRACT: note_on channel=9 note=42 velocity=127 time=0
EXTRACT: note_on channel=12 note=44 velocity=127 time=0
EXTRACT: note_on channel=14 note=44 velocity=127 time=0
EXTRACT: note_on channel=9 note=46 velocity=0 time=0.1319443125
EXTRACT: note_on channel=9 note=54 velocity=0 time=0
EXTRACT: note_on channel=9 note=56 velocity=0 time=0
EXTRACT: note_on channel=9 note=42 velocity=0 time=0
EXTRACT: note_on channel=9 note=54 velocity=127 time=0.0069444375
EXTRACT: note_on channel=9 note=36 velocity=127 time=0
EXTRACT: note_on channel=9 note=54 velocity=0 time=0.1319443125
EXTRACT: note_on channel=9 note=36 velocity=0 time=0
EXTRACT: note_on channel=12 note=44 velocity=0 time=0
EXTRACT: note_on channel=14 note=44 velocity=0 time=0
EXTRACT: note_on channel=9 note=46 velocity=127 time=0.0069444375
EXTRACT: note_on channel=9 note=54 velocity=127 time=0
EXTRACT: note_on channel=9 note=56 velocity=127 time=0
EXTRACT: note_on channel=9 note=36 velocity=127 time=0
EXTRACT: note_on channel=9 note=42 velocity=127 time=0
EXTRACT: note_on channel=12 note=44 velocity=127 time=0
EXTRACT: note_on channel=14 note=44 velocity=127 time=0
EXTRACT: note_on channel=9 note=46 velocity=0 time=0.1319443125
EXTRACT: note_on channel=9 note=54 velocity=0 time=0
EXTRACT: note_on channel=9 note=56 velocity=0 time=0
EXTRACT: note_on channel=9 note=36 velocity=0 time=0
EXTRACT: note_on channel=9 note=42 velocity=0 time=0
EXTRACT: note_on channel=9 note=54 velocity=127 time=0.0069444375
EXTRACT: note_on channel=9 note=36 velocity=127 time=0
EXTRACT: note_on channel=9 note=42 velocity=127 time=0
EXTRACT: note_on channel=10 note=68 velocity=0 time=0.04629625
EXTRACT: note_on channel=10 note=68 velocity=0 time=0
EXTRACT: note_on channel=10 note=68 velocity=0 time=0
EXTRACT: note_on channel=9 note=54 velocity=0 time=0.0856480625
EXTRACT: note_on channel=9 note=36 velocity=0 time=0
EXTRACT: note_on channel=9 note=42 velocity=0 time=0
EXTRACT: note_on channel=9 note=54 velocity=127 time=0.0069444375
EXTRACT: note_on channel=9 note=56 velocity=127 time=0
EXTRACT: note_on channel=9 note=39 velocity=127 time=0
EXTRACT: note_on channel=10 note=63 velocity=127 time=0
EXTRACT: note_on channel=10 note=63 velocity=127 time=0
EXTRACT: note_on channel=10 note=63 velocity=127 time=0
EXTRACT: note_on channel=9 note=39 velocity=0 time=0.1319443125
EXTRACT: note_on channel=9 note=42 velocity=127 time=0.0069444375
EXTRACT: note_on channel=12 note=44 velocity=0 time=0.04629625
EXTRACT: note_on channel=14 note=44 velocity=0 time=0
EXTRACT: note_on channel=9 note=54 velocity=0 time=0.0856480625
EXTRACT: note_on channel=9 note=56 velocity=0 time=0
EXTRACT: note_on channel=9 note=42 velocity=0 time=0
EXTRACT: note_on channel=10 note=63 velocity=0 time=0
EXTRACT: note_on channel=10 note=63 velocity=0 time=0
EXTRACT: note_on channel=10 note=63 velocity=0 time=0
EXTRACT: note_on channel=9 note=54 velocity=127 time=0.0069444375
EXTRACT: note_on channel=9 note=36 velocity=127 time=0
EXTRACT: note_on channel=9 note=42 velocity=127 time=0
EXTRACT: note_on channel=10 note=63 velocity=127 time=0
EXTRACT: note_on channel=12 note=44 velocity=127 time=0
EXTRACT: note_on channel=14 note=44 velocity=127 time=0
EXTRACT: note_on channel=10 note=63 velocity=127 time=0
EXTRACT: note_on channel=10 note=63 velocity=127 time=0
EXTRACT: note_on channel=9 note=54 velocity=0 time=0.1319443125
EXTRACT: note_on channel=9 note=36 velocity=0 time=0
EXTRACT: note_on channel=9 note=42 velocity=0 time=0
EXTRACT: note_on channel=9 note=54 velocity=127 time=0.0069444375
EXTRACT: note_on channel=9 note=56 velocity=127 time=0
EXTRACT: note_on channel=9 note=42 velocity=127 time=0
EXTRACT: note_on channel=11 note=60 velocity=0 time=0
EXTRACT: note_on channel=11 note=63 velocity=0 time=0
EXTRACT: note_on channel=11 note=68 velocity=0 time=0
EXTRACT: note_on channel=13 note=60 velocity=0 time=0
EXTRACT: note_on channel=13 note=63 velocity=0 time=0
EXTRACT: note_on channel=13 note=68 velocity=0 time=0
EXTRACT: note_on channel=9 note=54 velocity=0 time=0.1319443125
EXTRACT: note_on channel=9 note=56 velocity=0 time=0
EXTRACT: note_on channel=9 note=42 velocity=0 time=0
EXTRACT: note_on channel=10 note=63 velocity=0 time=0
EXTRACT: note_on channel=12 note=44 velocity=0 time=0
EXTRACT: note_on channel=14 note=44 velocity=0 time=0
EXTRACT: note_on channel=10 note=63 velocity=0 time=0
EXTRACT: note_on channel=10 note=63 velocity=0 time=0
EXTRACT: note_on channel=9 note=54 velocity=127 time=0.0069444375
EXTRACT: note_on channel=9 note=36 velocity=127 time=0
EXTRACT: note_on channel=10 note=70 velocity=127 time=0
EXTRACT: note_on channel=11 note=62 velocity=127 time=0
EXTRACT: note_on channel=11 note=65 velocity=127 time=0
EXTRACT: note_on channel=11 note=70 velocity=127 time=0
EXTRACT: note_on channel=12 note=46 velocity=127 time=0
EXTRACT: note_on channel=13 note=62 velocity=127 time=0
EXTRACT: note_on channel=13 note=65 velocity=127 time=0
EXTRACT: note_on channel=13 note=70 velocity=127 time=0
EXTRACT: note_on channel=14 note=46 velocity=127 time=0
EXTRACT: note_on channel=10 note=70 velocity=127 time=0
EXTRACT: note_on channel=10 note=70 velocity=127 time=0
EXTRACT: note_on channel=9 note=54 velocity=0 time=0.1319443125
EXTRACT: note_on channel=9 note=36 velocity=0 time=0
EXTRACT: note_on channel=9 note=46 velocity=127 time=0.0069444375
EXTRACT: note_on channel=9 note=54 velocity=127 time=0
EXTRACT: note_on channel=9 note=56 velocity=127 time=0
EXTRACT: note_on channel=9 note=42 velocity=127 time=0
EXTRACT: note_on channel=9 note=46 velocity=0 time=0.1319443125
EXTRACT: note_on channel=9 note=54 velocity=0 time=0
EXTRACT: note_on channel=9 note=56 velocity=0 time=0
EXTRACT: note_on channel=9 note=54 velocity=127 time=0.0069444375
EXTRACT: note_on channel=9 note=56 velocity=127 time=0
EXTRACT: note_on channel=9 note=54 velocity=0 time=0.1319443125
EXTRACT: note_on channel=9 note=56 velocity=0 time=0
EXTRACT: note_on channel=9 note=42 velocity=0 time=0
EXTRACT: note_on channel=10 note=70 velocity=0 time=0
EXTRACT: note_on channel=11 note=62 velocity=0 time=0
EXTRACT: note_on channel=11 note=65 velocity=0 time=0
EXTRACT: note_on channel=11 note=70 velocity=0 time=0
EXTRACT: note_on channel=13 note=62 velocity=0 time=0
EXTRACT: note_on channel=13 note=65 velocity=0 time=0
EXTRACT: note_on channel=13 note=70 velocity=0 time=0
EXTRACT: note_on channel=10 note=70 velocity=0 time=0
EXTRACT: note_on channel=10 note=70 velocity=0 time=0
EXTRACT: note_on channel=9 note=56 velocity=127 time=0.0069444375
EXTRACT: note_on channel=9 note=42 velocity=127 time=0
EXTRACT: note_on channel=10 note=68 velocity=127 time=0
EXTRACT: note_on channel=11 note=68 velocity=127 time=0
EXTRACT: note_on channel=13 note=68 velocity=127 time=0
EXTRACT: note_on channel=10 note=68 velocity=127 time=0
EXTRACT: note_on channel=10 note=68 velocity=127 time=0
EXTRACT: note_on channel=9 note=56 velocity=0 time=0.1319443125
EXTRACT: note_on channel=9 note=42 velocity=0 time=0
EXTRACT: note_on channel=9 note=46 velocity=127 time=0.0069444375
EXTRACT: note_on channel=9 note=54 velocity=127 time=0
EXTRACT: note_on channel=9 note=56 velocity=127 time=0
EXTRACT: note_on channel=9 note=39 velocity=127 time=0
EXTRACT: note_on channel=9 note=42 velocity=127 time=0
EXTRACT: note_on channel=9 note=46 velocity=0 time=0.1319443125
EXTRACT: note_on channel=9 note=54 velocity=0 time=0
EXTRACT: note_on channel=9 note=56 velocity=0 time=0
EXTRACT: note_on channel=9 note=39 velocity=0 time=0
EXTRACT: note_on channel=9 note=42 velocity=0 time=0
EXTRACT: note_on channel=9 note=54 velocity=127 time=0.0069444375
EXTRACT: note_on channel=9 note=42 velocity=127 time=0
EXTRACT: note_on channel=12 note=46 velocity=0 time=0.04629625
EXTRACT: note_on channel=14 note=46 velocity=0 time=0
EXTRACT: note_on channel=9 note=54 velocity=0 time=0.0856480625
EXTRACT: note_on channel=9 note=42 velocity=0 time=0
EXTRACT: note_on channel=10 note=68 velocity=0 time=0
EXTRACT: note_on channel=11 note=68 velocity=0 time=0
EXTRACT: note_on channel=13 note=68 velocity=0 time=0
EXTRACT: note_on channel=10 note=68 velocity=0 time=0
EXTRACT: note_on channel=10 note=68 velocity=0 time=0
EXTRACT: note_on channel=9 note=54 velocity=127 time=0.0069444375
EXTRACT: note_on channel=9 note=56 velocity=127 time=0
EXTRACT: note_on channel=9 note=36 velocity=127 time=0
EXTRACT: note_on channel=9 note=42 velocity=127 time=0
EXTRACT: note_on channel=10 note=67 velocity=127 time=0
EXTRACT: note_on channel=11 note=58 velocity=127 time=0
EXTRACT: note_on channel=11 note=63 velocity=127 time=0
EXTRACT: note_on channel=11 note=67 velocity=127 time=0
EXTRACT: note_on channel=12 note=38 velocity=127 time=0
EXTRACT: note_on channel=13 note=58 velocity=127 time=0
EXTRACT: note_on channel=13 note=63 velocity=127 time=0
EXTRACT: note_on channel=13 note=67 velocity=127 time=0
EXTRACT: note_on channel=14 note=38 velocity=127 time=0
EXTRACT: note_on channel=10 note=67 velocity=127 time=0
EXTRACT: note_on channel=10 note=67 velocity=127 time=0
EXTRACT: note_on channel=9 note=54 velocity=0 time=0.1319443125
EXTRACT: note_on channel=9 note=56 velocity=0 time=0
EXTRACT: note_on channel=9 note=36 velocity=0 time=0
EXTRACT: note_on channel=9 note=42 velocity=0 time=0
EXTRACT: note_on channel=9 note=54 velocity=127 time=0.0069444375
EXTRACT: note_on channel=9 note=42 velocity=127 time=0
EXTRACT: note_on channel=9 note=54 velocity=0 time=0.1319443125
EXTRACT: note_on channel=9 note=42 velocity=0 time=0
EXTRACT: note_on channel=12 note=38 velocity=0 time=0
EXTRACT: note_on channel=14 note=38 velocity=0 time=0
EXTRACT: note_on channel=9 note=46 velocity=127 time=0.0069444375
EXTRACT: note_on channel=9 note=54 velocity=127 time=0
EXTRACT: note_on channel=9 note=56 velocity=127 time=0
EXTRACT: note_on channel=9 note=42 velocity=127 time=0
EXTRACT: note_on channel=12 note=39 velocity=127 time=0
EXTRACT: note_on channel=14 note=39 velocity=127 time=0
EXTRACT: note_on channel=9 note=46 velocity=0 time=0.1319443125
EXTRACT: note_on channel=9 note=54 velocity=0 time=0
EXTRACT: note_on channel=9 note=56 velocity=0 time=0
EXTRACT: note_on channel=9 note=42 velocity=0 time=0
EXTRACT: note_on channel=11 note=67 velocity=0 time=0
EXTRACT: note_on channel=13 note=67 velocity=0 time=0
EXTRACT: note_on channel=9 note=54 velocity=127 time=0.0069444375
EXTRACT: note_on channel=9 note=36 velocity=127 time=0
EXTRACT: note_on channel=10 note=67 velocity=0 time=0
EXTRACT: note_on channel=10 note=65 velocity=127 time=0
EXTRACT: note_on channel=11 note=65 velocity=127 time=0
EXTRACT: note_on channel=13 note=65 velocity=127 time=0
EXTRACT: note_on channel=10 note=67 velocity=0 time=0
EXTRACT: note_on channel=10 note=65 velocity=127 time=0
EXTRACT: note_on channel=10 note=67 velocity=0 time=0
EXTRACT: note_on channel=10 note=65 velocity=127 time=0
EXTRACT: note_on channel=9 note=54 velocity=0 time=0.1319443125
EXTRACT: note_on channel=9 note=36 velocity=0 time=0
EXTRACT: note_on channel=11 note=58 velocity=0 time=0
EXTRACT: note_on channel=11 note=63 velocity=0 time=0
EXTRACT: note_on channel=11 note=65 velocity=0 time=0
EXTRACT: note_on channel=12 note=39 velocity=0 time=0
EXTRACT: note_on channel=13 note=58 velocity=0 time=0
EXTRACT: note_on channel=13 note=63 velocity=0 time=0
EXTRACT: note_on channel=13 note=65 velocity=0 time=0
EXTRACT: note_on channel=14 note=39 velocity=0 time=0
EXTRACT: note_on channel=9 note=46 velocity=127 time=0.0069444375
EXTRACT: note_on channel=9 note=54 velocity=127 time=0
EXTRACT: note_on channel=9 note=56 velocity=127 time=0
EXTRACT: note_on channel=9 note=36 velocity=127 time=0
EXTRACT: note_on channel=9 note=42 velocity=127 time=0
EXTRACT: note_on channel=10 note=65 velocity=0 time=0
EXTRACT: note_on channel=10 note=63 velocity=127 time=0
EXTRACT: note_on channel=11 note=63 velocity=127 time=0
EXTRACT: note_on channel=12 note=39 velocity=127 time=0
EXTRACT: note_on channel=13 note=63 velocity=127 time=0
EXTRACT: note_on channel=14 note=39 velocity=127 time=0
EXTRACT: note_on channel=10 note=65 velocity=0 time=0
EXTRACT: note_on channel=10 note=63 velocity=127 time=0
EXTRACT: note_on channel=10 note=65 velocity=0 time=0
EXTRACT: note_on channel=10 note=63 velocity=127 time=0
EXTRACT: note_on channel=9 note=46 velocity=0 time=0.1319443125
EXTRACT: note_on channel=9 note=54 velocity=0 time=0
EXTRACT: note_on channel=9 note=56 velocity=0 time=0
EXTRACT: note_on channel=9 note=36 velocity=0 time=0
EXTRACT: note_on channel=9 note=42 velocity=0 time=0
EXTRACT: note_on channel=9 note=54 velocity=127 time=0.0069444375
EXTRACT: note_on channel=9 note=36 velocity=127 time=0
EXTRACT: note_on channel=9 note=42 velocity=127 time=0
EXTRACT: note_on channel=9 note=54 velocity=0 time=0.1319443125
EXTRACT: note_on channel=9 note=36 velocity=0 time=0
EXTRACT: note_on channel=9 note=42 velocity=0 time=0
EXTRACT: note_on channel=10 note=63 velocity=0 time=0
EXTRACT: note_on channel=11 note=63 velocity=0 time=0
EXTRACT: note_on channel=12 note=39 velocity=0 time=0
EXTRACT: note_on channel=13 note=63 velocity=0 time=0
EXTRACT: note_on channel=14 note=39 velocity=0 time=0
EXTRACT: note_on channel=10 note=63 velocity=0 time=0
EXTRACT: note_on channel=10 note=63 velocity=0 time=0
EXTRACT: note_on channel=9 note=54 velocity=127 time=0.0069444375
EXTRACT: note_on channel=9 note=56 velocity=127 time=0
EXTRACT: note_on channel=9 note=39 velocity=127 time=0
EXTRACT: note_on channel=11 note=58 velocity=127 time=0
EXTRACT: note_on channel=11 note=65 velocity=127 time=0
EXTRACT: note_on channel=12 note=38 velocity=127 time=0
EXTRACT: note_on channel=13 note=58 velocity=127 time=0
EXTRACT: note_on channel=13 note=65 velocity=127 time=0
EXTRACT: note_on channel=14 note=38 velocity=127 time=0
EXTRACT: note_on channel=9 note=39 velocity=0 time=0.1319443125
EXTRACT: note_on channel=9 note=42 velocity=127 time=0.0069444375
EXTRACT: note_on channel=9 note=54 velocity=0 time=0.1319443125
EXTRACT: note_on channel=9 note=56 velocity=0 time=0
EXTRACT: note_on channel=9 note=42 velocity=0 time=0
EXTRACT: note_on channel=9 note=54 velocity=127 time=0.0069444375
EXTRACT: note_on channel=9 note=36 velocity=127 time=0
EXTRACT: note_on channel=9 note=42 velocity=127 time=0
EXTRACT: note_on channel=9 note=54 velocity=0 time=0.1319443125
EXTRACT: note_on channel=9 note=36 velocity=0 time=0
EXTRACT: note_on channel=9 note=42 velocity=0 time=0
EXTRACT: note_on channel=9 note=54 velocity=127 time=0.0069444375
EXTRACT: note_on channel=9 note=56 velocity=127 time=0
EXTRACT: note_on channel=9 note=42 velocity=127 time=0
EXTRACT: note_on channel=11 note=58 velocity=0 time=0.04629625
EXTRACT: note_on channel=11 note=65 velocity=0 time=0
EXTRACT: note_on channel=12 note=38 velocity=0 time=0
EXTRACT: note_on channel=13 note=58 velocity=0 time=0
EXTRACT: note_on channel=13 note=65 velocity=0 time=0
EXTRACT: note_on channel=14 note=38 velocity=0 time=0
EXTRACT: note_on channel=9 note=54 velocity=0 time=0.0856480625
EXTRACT: note_on channel=9 note=56 velocity=0 time=0
EXTRACT: note_on channel=9 note=42 velocity=0 time=0
EXTRACT: note_on channel=9 note=54 velocity=127 time=0.0069444375
EXTRACT: note_on channel=9 note=36 velocity=127 time=0
EXTRACT: note_on channel=10 note=67 velocity=127 time=0
EXTRACT: note_on channel=11 note=60 velocity=127 time=0
EXTRACT: note_on channel=11 note=63 velocity=127 time=0
EXTRACT: note_on channel=11 note=67 velocity=127 time=0
EXTRACT: note_on channel=12 note=36 velocity=127 time=0
EXTRACT: note_on channel=13 note=60 velocity=127 time=0
EXTRACT: note_on channel=13 note=63 velocity=127 time=0
EXTRACT: note_on channel=13 note=67 velocity=127 time=0
EXTRACT: note_on channel=14 note=36 velocity=127 time=0
EXTRACT: note_on channel=10 note=67 velocity=127 time=0
EXTRACT: note_on channel=10 note=67 velocity=127 time=0
EXTRACT: note_on channel=9 note=54 velocity=0 time=0.1319443125
EXTRACT: note_on channel=9 note=36 velocity=0 time=0
EXTRACT: note_on channel=9 note=46 velocity=127 time=0.0069444375
EXTRACT: note_on channel=9 note=54 velocity=127 time=0
EXTRACT: note_on channel=9 note=56 velocity=127 time=0
EXTRACT: note_on channel=9 note=42 velocity=127 time=0
EXTRACT: note_on channel=9 note=46 velocity=0 time=0.1319443125
EXTRACT: note_on channel=9 note=54 velocity=0 time=0
EXTRACT: note_on channel=9 note=56 velocity=0 time=0
EXTRACT: note_on channel=10 note=67 velocity=0 time=0
EXTRACT: note_on channel=11 note=60 velocity=0 time=0
EXTRACT: note_on channel=11 note=63 velocity=0 time=0
EXTRACT: note_on channel=11 note=67 velocity=0 time=0
EXTRACT: note_on channel=13 note=60 velocity=0 time=0
EXTRACT: note_on channel=13 note=63 velocity=0 time=0
EXTRACT: note_on channel=13 note=67 velocity=0 time=0
EXTRACT: note_on channel=10 note=67 velocity=0 time=0
EXTRACT: note_on channel=10 note=67 velocity=0 time=0
EXTRACT: note_on channel=9 note=54 velocity=127 time=0.0069444375
EXTRACT: note_on channel=9 note=56 velocity=127 time=0
EXTRACT: note_on channel=10 note=68 velocity=127 time=0
EXTRACT: note_on channel=11 note=68 velocity=127 time=0
EXTRACT: note_on channel=13 note=68 velocity=127 time=0
EXTRACT: note_on channel=10 note=68 velocity=127 time=0
EXTRACT: note_on channel=10 note=68 velocity=127 time=0
EXTRACT: note_on channel=9 note=54 velocity=0 time=0.1319443125
EXTRACT: note_on channel=9 note=56 velocity=0 time=0
EXTRACT: note_on channel=9 note=42 velocity=0 time=0
EXTRACT: note_on channel=9 note=56 velocity=127 time=0.0069444375
EXTRACT: note_on channel=9 note=42 velocity=127 time=0
EXTRACT: note_on channel=12 note=36 velocity=0 time=0.04629625
EXTRACT: note_on channel=14 note=36 velocity=0 time=0
EXTRACT: note_on channel=9 note=56 velocity=0 time=0.0856480625
EXTRACT: note_on channel=9 note=42 velocity=0 time=0
EXTRACT: note_on channel=10 note=68 velocity=0 time=0
EXTRACT: note_on channel=11 note=68 velocity=0 time=0
EXTRACT: note_on channel=13 note=68 velocity=0 time=0
EXTRACT: note_on channel=10 note=68 velocity=0 time=0
EXTRACT: note_on channel=10 note=68 velocity=0 time=0
EXTRACT: note_on channel=9 note=46 velocity=127 time=0.0069444375
EXTRACT: note_on channel=9 note=54 velocity=127 time=0
EXTRACT: note_on channel=9 note=56 velocity=127 time=0
EXTRACT: note_on channel=9 note=39 velocity=127 time=0
EXTRACT: note_on channel=9 note=42 velocity=127 time=0
EXTRACT: note_on channel=10 note=67 velocity=127 time=0
EXTRACT: note_on channel=11 note=67 velocity=127 time=0
EXTRACT: note_on channel=12 note=36 velocity=127 time=0
EXTRACT: note_on channel=13 note=67 velocity=127 time=0
EXTRACT: note_on channel=14 note=36 velocity=127 time=0
EXTRACT: note_on channel=10 note=67 velocity=127 time=0
EXTRACT: note_on channel=10 note=67 velocity=127 time=0
EXTRACT: note_on channel=9 note=46 velocity=0 time=0.1319443125
EXTRACT: note_on channel=9 note=54 velocity=0 time=0
EXTRACT: note_on channel=9 note=56 velocity=0 time=0
EXTRACT: note_on channel=9 note=39 velocity=0 time=0
EXTRACT: note_on channel=9 note=42 velocity=0 time=0
EXTRACT: note_on channel=9 note=54 velocity=127 time=0.0069444375
EXTRACT: note_on channel=9 note=42 velocity=127 time=0
EXTRACT: note_on channel=9 note=54 velocity=0 time=0.1319443125
EXTRACT: note_on channel=9 note=42 velocity=0 time=0
EXTRACT: note_on channel=10 note=67 velocity=0 time=0
EXTRACT: note_on channel=11 note=67 velocity=0 time=0
EXTRACT: note_on channel=12 note=36 velocity=0 time=0
EXTRACT: note_on channel=13 note=67 velocity=0 time=0
EXTRACT: note_on channel=14 note=36 velocity=0 time=0
EXTRACT: note_on channel=10 note=67 velocity=0 time=0
EXTRACT: note_on channel=10 note=67 velocity=0 time=0
EXTRACT: note_on channel=9 note=54 velocity=127 time=0.0069444375
EXTRACT: note_on channel=9 note=56 velocity=127 time=0
EXTRACT: note_on channel=9 note=36 velocity=127 time=0
EXTRACT: note_on channel=9 note=42 velocity=127 time=0
EXTRACT: note_on channel=10 note=68 velocity=127 time=0
EXTRACT: note_on channel=11 note=60 velocity=127 time=0
EXTRACT: note_on channel=11 note=63 velocity=127 time=0
EXTRACT: note_on channel=11 note=68 velocity=127 time=0
EXTRACT: note_on channel=12 note=43 velocity=127 time=0
EXTRACT: note_on channel=13 note=60 velocity=127 time=0
EXTRACT: note_on channel=13 note=63 velocity=127 time=0
EXTRACT: note_on channel=13 note=68 velocity=127 time=0
EXTRACT: note_on channel=14 note=43 velocity=127 time=0
EXTRACT: note_on channel=10 note=68 velocity=127 time=0
EXTRACT: note_on channel=10 note=68 velocity=127 time=0
EXTRACT: note_on channel=9 note=54 velocity=0 time=0.1319443125
EXTRACT: note_on channel=9 note=56 velocity=0 time=0
EXTRACT: note_on channel=9 note=36 velocity=0 time=0
EXTRACT: note_on channel=9 note=42 velocity=0 time=0
EXTRACT: note_on channel=9 note=54 velocity=127 time=0.0069444375
EXTRACT: note_on channel=9 note=42 velocity=127 time=0
EXTRACT: note_on channel=9 note=54 velocity=0 time=0.1319443125
EXTRACT: note_on channel=9 note=42 velocity=0 time=0
EXTRACT: note_on channel=10 note=68 velocity=0 time=0
EXTRACT: note_on channel=11 note=60 velocity=0 time=0
EXTRACT: note_on channel=11 note=63 velocity=0 time=0
EXTRACT: note_on channel=11 note=68 velocity=0 time=0
EXTRACT: note_on channel=12 note=43 velocity=0 time=0
EXTRACT: note_on channel=13 note=60 velocity=0 time=0
EXTRACT: note_on channel=13 note=63 velocity=0 time=0
EXTRACT: note_on channel=13 note=68 velocity=0 time=0
EXTRACT: note_on channel=14 note=43 velocity=0 time=0
EXTRACT: note_on channel=10 note=68 velocity=0 time=0
EXTRACT: note_on channel=10 note=68 velocity=0 time=0
EXTRACT: note_on channel=9 note=46 velocity=127 time=0.0069444375
EXTRACT: note_on channel=9 note=54 velocity=127 time=0
EXTRACT: note_on channel=9 note=56 velocity=127 time=0
EXTRACT: note_on channel=9 note=42 velocity=127 time=0
EXTRACT: note_on channel=10 note=67 velocity=127 time=0
EXTRACT: note_on channel=11 note=67 velocity=127 time=0
EXTRACT: note_on channel=12 note=44 velocity=127 time=0
EXTRACT: note_on channel=13 note=67 velocity=127 time=0
EXTRACT: note_on channel=14 note=44 velocity=127 time=0
EXTRACT: note_on channel=10 note=67 velocity=127 time=0
EXTRACT: note_on channel=10 note=67 velocity=127 time=0
EXTRACT: note_on channel=9 note=46 velocity=0 time=0.1319443125
EXTRACT: note_on channel=9 note=54 velocity=0 time=0
EXTRACT: note_on channel=9 note=56 velocity=0 time=0
EXTRACT: note_on channel=9 note=42 velocity=0 time=0
EXTRACT: note_on channel=9 note=54 velocity=127 time=0.0069444375
EXTRACT: note_on channel=9 note=36 velocity=127 time=0
EXTRACT: note_on channel=9 note=54 velocity=0 time=0.1319443125
EXTRACT: note_on channel=9 note=36 velocity=0 time=0
EXTRACT: note_on channel=10 note=67 velocity=0 time=0
EXTRACT: note_on channel=11 note=67 velocity=0 time=0
EXTRACT: note_on channel=12 note=44 velocity=0 time=0
EXTRACT: note_on channel=13 note=67 velocity=0 time=0
EXTRACT: note_on channel=14 note=44 velocity=0 time=0
EXTRACT: note_on channel=10 note=67 velocity=0 time=0
EXTRACT: note_on channel=10 note=67 velocity=0 time=0
EXTRACT: note_on channel=9 note=46 velocity=127 time=0.0069444375
EXTRACT: note_on channel=9 note=54 velocity=127 time=0
EXTRACT: note_on channel=9 note=56 velocity=127 time=0
EXTRACT: note_on channel=9 note=36 velocity=127 time=0
EXTRACT: note_on channel=9 note=42 velocity=127 time=0
EXTRACT: note_on channel=10 note=65 velocity=127 time=0
EXTRACT: note_on channel=11 note=65 velocity=127 time=0
EXTRACT: note_on channel=12 note=44 velocity=127 time=0
EXTRACT: note_on channel=13 note=65 velocity=127 time=0
EXTRACT: note_on channel=14 note=44 velocity=127 time=0
EXTRACT: note_on channel=10 note=65 velocity=127 time=0
EXTRACT: note_on channel=10 note=65 velocity=127 time=0
EXTRACT: note_on channel=9 note=46 velocity=0 time=0.1319443125
EXTRACT: note_on channel=9 note=54 velocity=0 time=0
EXTRACT: note_on channel=9 note=56 velocity=0 time=0
EXTRACT: note_on channel=9 note=36 velocity=0 time=0
EXTRACT: note_on channel=9 note=42 velocity=0 time=0
EXTRACT: note_on channel=9 note=54 velocity=127 time=0.0069444375
EXTRACT: note_on channel=9 note=36 velocity=127 time=0
EXTRACT: note_on channel=9 note=42 velocity=127 time=0
EXTRACT: note_on channel=9 note=54 velocity=0 time=0.1319443125
EXTRACT: note_on channel=9 note=36 velocity=0 time=0
EXTRACT: note_on channel=9 note=42 velocity=0 time=0
EXTRACT: note_on channel=10 note=65 velocity=0 time=0
EXTRACT: note_on channel=11 note=65 velocity=0 time=0
EXTRACT: note_on channel=13 note=65 velocity=0 time=0
EXTRACT: note_on channel=10 note=65 velocity=0 time=0
EXTRACT: note_on channel=10 note=65 velocity=0 time=0
EXTRACT: note_on channel=9 note=54 velocity=127 time=0.0069444375
EXTRACT: note_on channel=9 note=56 velocity=127 time=0
EXTRACT: note_on channel=9 note=39 velocity=127 time=0
EXTRACT: note_on channel=10 note=63 velocity=127 time=0
EXTRACT: note_on channel=11 note=63 velocity=127 time=0
EXTRACT: note_on channel=13 note=63 velocity=127 time=0
EXTRACT: note_on channel=10 note=63 velocity=127 time=0
EXTRACT: note_on channel=10 note=63 velocity=127 time=0
EXTRACT: note_on channel=9 note=39 velocity=0 time=0.1319443125
EXTRACT: note_on channel=9 note=42 velocity=127 time=0.0069444375
EXTRACT: note_on channel=12 note=44 velocity=0 time=0.04629625
EXTRACT: note_on channel=14 note=44 velocity=0 time=0
EXTRACT: note_on channel=9 note=54 velocity=0 time=0.0856480625
EXTRACT: note_on channel=9 note=56 velocity=0 time=0
EXTRACT: note_on channel=9 note=42 velocity=0 time=0
EXTRACT: note_on channel=10 note=63 velocity=0 time=0
EXTRACT: note_on channel=11 note=63 velocity=0 time=0
EXTRACT: note_on channel=13 note=63 velocity=0 time=0
EXTRACT: note_on channel=10 note=63 velocity=0 time=0
EXTRACT: note_on channel=10 note=63 velocity=0 time=0
EXTRACT: note_on channel=9 note=54 velocity=127 time=0.0069444375
EXTRACT: note_on channel=9 note=36 velocity=127 time=0
EXTRACT: note_on channel=9 note=42 velocity=127 time=0
EXTRACT: note_on channel=10 note=60 velocity=127 time=0
EXTRACT: note_on channel=11 note=60 velocity=127 time=0
EXTRACT: note_on channel=12 note=44 velocity=127 time=0
EXTRACT: note_on channel=13 note=60 velocity=127 time=0
EXTRACT: note_on channel=14 note=44 velocity=127 time=0
EXTRACT: note_on channel=10 note=60 velocity=127 time=0
EXTRACT: note_on channel=10 note=60 velocity=127 time=0
EXTRACT: note_on channel=9 note=54 velocity=0 time=0.1319443125
EXTRACT: note_on channel=9 note=36 velocity=0 time=0
EXTRACT: note_on channel=9 note=42 velocity=0 time=0
EXTRACT: note_on channel=9 note=54 velocity=127 time=0.0069444375
EXTRACT: note_on channel=9 note=56 velocity=127 time=0
EXTRACT: note_on channel=9 note=42 velocity=127 time=0
EXTRACT: note_on channel=9 note=54 velocity=0 time=0.1319443125
EXTRACT: note_on channel=9 note=56 velocity=0 time=0
EXTRACT: note_on channel=9 note=42 velocity=0 time=0
EXTRACT: note_on channel=10 note=60 velocity=0 time=0
EXTRACT: note_on channel=11 note=60 velocity=0 time=0
EXTRACT: note_on channel=12 note=44 velocity=0 time=0
EXTRACT: note_on channel=13 note=60 velocity=0 time=0
EXTRACT: note_on channel=14 note=44 velocity=0 time=0
EXTRACT: note_on channel=10 note=60 velocity=0 time=0
EXTRACT: note_on channel=10 note=60 velocity=0 time=0
EXTRACT: note_on channel=9 note=54 velocity=127 time=0.0069444375
EXTRACT: note_on channel=9 note=36 velocity=127 time=0
EXTRACT: note_on channel=10 note=59 velocity=127 time=0
EXTRACT: note_on channel=11 note=55 velocity=127 time=0
EXTRACT: note_on channel=11 note=59 velocity=127 time=0
EXTRACT: note_on channel=12 note=43 velocity=127 time=0
EXTRACT: note_on channel=13 note=55 velocity=127 time=0
EXTRACT: note_on channel=13 note=59 velocity=127 time=0
EXTRACT: note_on channel=14 note=43 velocity=127 time=0
EXTRACT: note_on channel=10 note=59 velocity=127 time=0
EXTRACT: note_on channel=10 note=59 velocity=127 time=0
EXTRACT: note_on channel=9 note=54 velocity=0 time=0.1319443125
EXTRACT: note_on channel=9 note=36 velocity=0 time=0
EXTRACT: note_on channel=9 note=46 velocity=127 time=0.0069444375
EXTRACT: note_on channel=9 note=54 velocity=127 time=0
EXTRACT: note_on channel=9 note=56 velocity=127 time=0
EXTRACT: note_on channel=9 note=42 velocity=127 time=0
EXTRACT: note_on channel=9 note=46 velocity=0 time=0.1319443125
EXTRACT: note_on channel=9 note=54 velocity=0 time=0
EXTRACT: note_on channel=9 note=56 velocity=0 time=0
EXTRACT: note_on channel=9 note=54 velocity=127 time=0.0069444375
EXTRACT: note_on channel=9 note=56 velocity=127 time=0
EXTRACT: note_on channel=9 note=54 velocity=0 time=0.1319443125
EXTRACT: note_on channel=9 note=56 velocity=0 time=0
EXTRACT: note_on channel=9 note=42 velocity=0 time=0
EXTRACT: note_on channel=10 note=59 velocity=0 time=0
EXTRACT: note_on channel=11 note=55 velocity=0 time=0
EXTRACT: note_on channel=11 note=59 velocity=0 time=0
EXTRACT: note_on channel=13 note=55 velocity=0 time=0
EXTRACT: note_on channel=13 note=59 velocity=0 time=0
EXTRACT: note_on channel=10 note=59 velocity=0 time=0
EXTRACT: note_on channel=10 note=59 velocity=0 time=0
EXTRACT: note_on channel=9 note=56 velocity=127 time=0.0069444375
EXTRACT: note_on channel=9 note=42 velocity=127 time=0
EXTRACT: note_on channel=10 note=62 velocity=127 time=0
EXTRACT: note_on channel=11 note=55 velocity=127 time=0
EXTRACT: note_on channel=11 note=59 velocity=127 time=0
EXTRACT: note_on channel=11 note=62 velocity=127 time=0
EXTRACT: note_on channel=13 note=55 velocity=127 time=0
EXTRACT: note_on channel=13 note=59 velocity=127 time=0
EXTRACT: note_on channel=13 note=62 velocity=127 time=0
EXTRACT: note_on channel=10 note=62 velocity=127 time=0
EXTRACT: note_on channel=10 note=62 velocity=127 time=0
EXTRACT: note_on channel=12 note=43 velocity=0 time=0.04629625
EXTRACT: note_on channel=14 note=43 velocity=0 time=0
EXTRACT: note_on channel=9 note=56 velocity=0 time=0.0856480625
EXTRACT: note_on channel=9 note=42 velocity=0 time=0
EXTRACT: note_on channel=9 note=46 velocity=127 time=0.0069444375
EXTRACT: note_on channel=9 note=54 velocity=127 time=0
EXTRACT: note_on channel=9 note=56 velocity=127 time=0
EXTRACT: note_on channel=9 note=39 velocity=127 time=0
EXTRACT: note_on channel=9 note=42 velocity=127 time=0
EXTRACT: note_on channel=12 note=43 velocity=127 time=0
EXTRACT: note_on channel=14 note=43 velocity=127 time=0
EXTRACT: note_on channel=9 note=46 velocity=0 time=0.1319443125
EXTRACT: note_on channel=9 note=54 velocity=0 time=0
EXTRACT: note_on channel=9 note=56 velocity=0 time=0
EXTRACT: note_on channel=9 note=39 velocity=0 time=0
EXTRACT: note_on channel=9 note=42 velocity=0 time=0
EXTRACT: note_on channel=9 note=54 velocity=127 time=0.0069444375
EXTRACT: note_on channel=9 note=42 velocity=127 time=0
EXTRACT: note_on channel=9 note=54 velocity=0 time=0.1319443125
EXTRACT: note_on channel=9 note=42 velocity=0 time=0
EXTRACT: note_on channel=10 note=62 velocity=0 time=0
EXTRACT: note_on channel=11 note=55 velocity=0 time=0
EXTRACT: note_on channel=11 note=59 velocity=0 time=0
EXTRACT: note_on channel=11 note=62 velocity=0 time=0
EXTRACT: note_on channel=12 note=43 velocity=0 time=0
EXTRACT: note_on channel=13 note=55 velocity=0 time=0
EXTRACT: note_on channel=13 note=59 velocity=0 time=0
EXTRACT: note_on channel=13 note=62 velocity=0 time=0
EXTRACT: note_on channel=14 note=43 velocity=0 time=0
EXTRACT: note_on channel=10 note=62 velocity=0 time=0
EXTRACT: note_on channel=10 note=62 velocity=0 time=0
EXTRACT: note_on channel=9 note=54 velocity=127 time=0.0069444375
EXTRACT: note_on channel=9 note=56 velocity=127 time=0
EXTRACT: note_on channel=9 note=36 velocity=127 time=0
EXTRACT: note_on channel=9 note=42 velocity=127 time=0
EXTRACT: note_on channel=10 note=60 velocity=127 time=0
EXTRACT: note_on channel=11 note=51 velocity=127 time=0
EXTRACT: note_on channel=11 note=55 velocity=127 time=0
EXTRACT: note_on channel=11 note=60 velocity=127 time=0
EXTRACT: note_on channel=12 note=47 velocity=127 time=0
EXTRACT: note_on channel=13 note=51 velocity=127 time=0
EXTRACT: note_on channel=13 note=55 velocity=127 time=0
EXTRACT: note_on channel=13 note=60 velocity=127 time=0
EXTRACT: note_on channel=14 note=47 velocity=127 time=0
EXTRACT: note_on channel=10 note=60 velocity=127 time=0
EXTRACT: note_on channel=10 note=60 velocity=127 time=0
EXTRACT: note_on channel=9 note=54 velocity=0 time=0.1319443125
EXTRACT: note_on channel=9 note=56 velocity=0 time=0
EXTRACT: note_on channel=9 note=36 velocity=0 time=0
EXTRACT: note_on channel=9 note=42 velocity=0 time=0
EXTRACT: note_on channel=9 note=54 velocity=127 time=0.0069444375
EXTRACT: note_on channel=9 note=42 velocity=127 time=0
EXTRACT: note_on channel=9 note=54 velocity=0 time=0.1319443125
EXTRACT: note_on channel=9 note=42 velocity=0 time=0
EXTRACT: note_on channel=12 note=47 velocity=0 time=0
EXTRACT: note_on channel=14 note=47 velocity=0 time=0
EXTRACT: note_on channel=9 note=46 velocity=127 time=0.0069444375
EXTRACT: note_on channel=9 note=54 velocity=127 time=0
EXTRACT: note_on channel=9 note=56 velocity=127 time=0
EXTRACT: note_on channel=9 note=42 velocity=127 time=0
EXTRACT: note_on channel=12 note=48 velocity=127 time=0
EXTRACT: note_on channel=14 note=48 velocity=127 time=0
EXTRACT: note_on channel=9 note=46 velocity=0 time=0.1319443125
EXTRACT: note_on channel=9 note=54 velocity=0 time=0
EXTRACT: note_on channel=9 note=56 velocity=0 time=0
EXTRACT: note_on channel=9 note=42 velocity=0 time=0
EXTRACT: note_on channel=9 note=54 velocity=127 time=0.0069444375
EXTRACT: note_on channel=9 note=36 velocity=127 time=0
EXTRACT: note_on channel=9 note=54 velocity=0 time=0.1319443125
EXTRACT: note_on channel=9 note=36 velocity=0 time=0
EXTRACT: note_on channel=10 note=60 velocity=0 time=0
EXTRACT: note_on channel=11 note=51 velocity=0 time=0
EXTRACT: note_on channel=11 note=55 velocity=0 time=0
EXTRACT: note_on channel=11 note=60 velocity=0 time=0
EXTRACT: note_on channel=12 note=48 velocity=0 time=0
EXTRACT: note_on channel=13 note=51 velocity=0 time=0
EXTRACT: note_on channel=13 note=55 velocity=0 time=0
EXTRACT: note_on channel=13 note=60 velocity=0 time=0
EXTRACT: note_on channel=14 note=48 velocity=0 time=0
EXTRACT: note_on channel=10 note=60 velocity=0 time=0
EXTRACT: note_on channel=10 note=60 velocity=0 time=0
EXTRACT: note_on channel=9 note=46 velocity=127 time=0.0069444375
EXTRACT: note_on channel=9 note=54 velocity=127 time=0
EXTRACT: note_on channel=9 note=56 velocity=127 time=0
EXTRACT: note_on channel=9 note=36 velocity=127 time=0
EXTRACT: note_on channel=9 note=42 velocity=127 time=0
EXTRACT: note_on channel=10 note=60 velocity=127 time=0
EXTRACT: note_on channel=11 note=60 velocity=127 time=0
EXTRACT: note_on channel=12 note=48 velocity=127 time=0
EXTRACT: note_on channel=13 note=60 velocity=127 time=0
EXTRACT: note_on channel=14 note=48 velocity=127 time=0
EXTRACT: note_on channel=10 note=60 velocity=127 time=0
EXTRACT: note_on channel=10 note=60 velocity=127 time=0
EXTRACT: note_on channel=9 note=46 velocity=0 time=0.1319443125
EXTRACT: note_on channel=9 note=54 velocity=0 time=0
EXTRACT: note_on channel=9 note=56 velocity=0 time=0
EXTRACT: note_on channel=9 note=36 velocity=0 time=0
EXTRACT: note_on channel=9 note=42 velocity=0 time=0
EXTRACT: note_on channel=9 note=54 velocity=127 time=0.0069444375
EXTRACT: note_on channel=9 note=36 velocity=127 time=0
EXTRACT: note_on channel=9 note=42 velocity=127 time=0
EXTRACT: note_on channel=9 note=54 velocity=0 time=0.1319443125
EXTRACT: note_on channel=9 note=36 velocity=0 time=0
EXTRACT: note_on channel=9 note=42 velocity=0 time=0
EXTRACT: note_on channel=10 note=60 velocity=0 time=0
EXTRACT: note_on channel=11 note=60 velocity=0 time=0
EXTRACT: note_on channel=13 note=60 velocity=0 time=0
EXTRACT: note_on channel=10 note=60 velocity=0 time=0
EXTRACT: note_on channel=10 note=60 velocity=0 time=0
EXTRACT: note_on channel=9 note=54 velocity=127 time=0.0069444375
EXTRACT: note_on channel=9 note=56 velocity=127 time=0
EXTRACT: note_on channel=9 note=39 velocity=127 time=0
EXTRACT: note_on channel=10 note=63 velocity=127 time=0
EXTRACT: note_on channel=11 note=63 velocity=127 time=0
EXTRACT: note_on channel=13 note=63 velocity=127 time=0
EXTRACT: note_on channel=10 note=63 velocity=127 time=0
EXTRACT: note_on channel=10 note=63 velocity=127 time=0
EXTRACT: note_on channel=9 note=39 velocity=0 time=0.1319443125
EXTRACT: note_on channel=9 note=42 velocity=127 time=0.0069444375
EXTRACT: note_on channel=9 note=54 velocity=0 time=0.1319443125
EXTRACT: note_on channel=9 note=56 velocity=0 time=0
EXTRACT: note_on channel=9 note=42 velocity=0 time=0
EXTRACT: note_on channel=10 note=63 velocity=0 time=0
EXTRACT: note_on channel=11 note=63 velocity=0 time=0
EXTRACT: note_on channel=13 note=63 velocity=0 time=0
EXTRACT: note_on channel=10 note=63 velocity=0 time=0
EXTRACT: note_on channel=10 note=63 velocity=0 time=0
EXTRACT: note_on channel=9 note=54 velocity=127 time=0.0069444375
EXTRACT: note_on channel=9 note=36 velocity=127 time=0
EXTRACT: note_on channel=9 note=42 velocity=127 time=0
EXTRACT: note_on channel=10 note=65 velocity=127 time=0
EXTRACT: note_on channel=11 note=65 velocity=127 time=0
EXTRACT: note_on channel=13 note=65 velocity=127 time=0
EXTRACT: note_on channel=10 note=65 velocity=127 time=0
EXTRACT: note_on channel=10 note=65 velocity=127 time=0
EXTRACT: note_on channel=9 note=54 velocity=0 time=0.1319443125
EXTRACT: note_on channel=9 note=36 velocity=0 time=0
EXTRACT: note_on channel=9 note=42 velocity=0 time=0
EXTRACT: note_on channel=9 note=54 velocity=127 time=0.0069444375
EXTRACT: note_on channel=9 note=56 velocity=127 time=0
EXTRACT: note_on channel=9 note=42 velocity=127 time=0
EXTRACT: note_on channel=12 note=48 velocity=0 time=0.04629625
EXTRACT: note_on channel=14 note=48 velocity=0 time=0
EXTRACT: note_on channel=9 note=54 velocity=0 time=0.0856480625
EXTRACT: note_on channel=9 note=56 velocity=0 time=0
EXTRACT: note_on channel=9 note=42 velocity=0 time=0
EXTRACT: note_on channel=10 note=65 velocity=0 time=0
EXTRACT: note_on channel=11 note=65 velocity=0 time=0
EXTRACT: note_on channel=13 note=65 velocity=0 time=0
EXTRACT: note_on channel=10 note=65 velocity=0 time=0
EXTRACT: note_on channel=10 note=65 velocity=0 time=0
EXTRACT: note_on channel=9 note=54 velocity=127 time=0.0069444375
EXTRACT: note_on channel=9 note=36 velocity=127 time=0
EXTRACT: note_on channel=10 note=67 velocity=127 time=0
EXTRACT: note_on channel=11 note=60 velocity=127 time=0
EXTRACT: note_on channel=11 note=63 velocity=127 time=0
EXTRACT: note_on channel=11 note=67 velocity=127 time=0
EXTRACT: note_on channel=12 note=48 velocity=127 time=0
EXTRACT: note_on channel=13 note=60 velocity=127 time=0
EXTRACT: note_on channel=13 note=63 velocity=127 time=0
EXTRACT: note_on channel=13 note=67 velocity=127 time=0
EXTRACT: note_on channel=14 note=48 velocity=127 time=0
EXTRACT: note_on channel=10 note=67 velocity=127 time=0
EXTRACT: note_on channel=10 note=67 velocity=127 time=0
EXTRACT: note_on channel=9 note=54 velocity=0 time=0.1319443125
EXTRACT: note_on channel=9 note=36 velocity=0 time=0
EXTRACT: note_on channel=9 note=46 velocity=127 time=0.0069444375
EXTRACT: note_on channel=9 note=54 velocity=127 time=0
EXTRACT: note_on channel=9 note=56 velocity=127 time=0
EXTRACT: note_on channel=9 note=42 velocity=127 time=0
EXTRACT: note_on channel=9 note=46 velocity=0 time=0.1319443125
EXTRACT: note_on channel=9 note=54 velocity=0 time=0
EXTRACT: note_on channel=9 note=56 velocity=0 time=0
EXTRACT: note_on channel=12 note=48 velocity=0 time=0
EXTRACT: note_on channel=14 note=48 velocity=0 time=0
EXTRACT: note_on channel=9 note=54 velocity=127 time=0.0069444375
EXTRACT: note_on channel=9 note=56 velocity=127 time=0
EXTRACT: note_on channel=10 note=67 velocity=127 time=0
EXTRACT: note_on channel=12 note=48 velocity=127 time=0
EXTRACT: note_on channel=14 note=48 velocity=127 time=0
EXTRACT: note_on channel=10 note=67 velocity=127 time=0
EXTRACT: note_on channel=10 note=67 velocity=127 time=0
EXTRACT: note_on channel=9 note=54 velocity=0 time=0.1319443125
EXTRACT: note_on channel=9 note=56 velocity=0 time=0
EXTRACT: note_on channel=9 note=42 velocity=0 time=0
EXTRACT: note_on channel=11 note=60 velocity=0 time=0
EXTRACT: note_on channel=11 note=63 velocity=0 time=0
EXTRACT: note_on channel=11 note=67 velocity=0 time=0
EXTRACT: note_on channel=13 note=60 velocity=0 time=0
EXTRACT: note_on channel=13 note=63 velocity=0 time=0
EXTRACT: note_on channel=13 note=67 velocity=0 time=0
EXTRACT: note_on channel=9 note=56 velocity=127 time=0.0069444375
EXTRACT: note_on channel=9 note=42 velocity=127 time=0
EXTRACT: note_on channel=11 note=60 velocity=127 time=0
EXTRACT: note_on channel=11 note=63 velocity=127 time=0
EXTRACT: note_on channel=11 note=67 velocity=127 time=0
EXTRACT: note_on channel=13 note=60 velocity=127 time=0
EXTRACT: note_on channel=13 note=63 velocity=127 time=0
EXTRACT: note_on channel=13 note=67 velocity=127 time=0
EXTRACT: note_on channel=9 note=56 velocity=0 time=0.1319443125
EXTRACT: note_on channel=9 note=42 velocity=0 time=0
EXTRACT: note_on channel=12 note=48 velocity=0 time=0
EXTRACT: note_on channel=14 note=48 velocity=0 time=0
EXTRACT: note_on channel=9 note=46 velocity=127 time=0.0069444375
EXTRACT: note_on channel=9 note=54 velocity=127 time=0
EXTRACT: note_on channel=9 note=56 velocity=127 time=0
EXTRACT: note_on channel=9 note=39 velocity=127 time=0
EXTRACT: note_on channel=9 note=42 velocity=127 time=0
EXTRACT: note_on channel=12 note=48 velocity=127 time=0
EXTRACT: note_on channel=14 note=48 velocity=127 time=0
EXTRACT: note_on channel=9 note=46 velocity=0 time=0.1319443125
EXTRACT: note_on channel=9 note=54 velocity=0 time=0
EXTRACT: note_on channel=9 note=56 velocity=0 time=0
EXTRACT: note_on channel=9 note=39 velocity=0 time=0
EXTRACT: note_on channel=9 note=42 velocity=0 time=0
EXTRACT: note_on channel=9 note=54 velocity=127 time=0.0069444375
EXTRACT: note_on channel=9 note=42 velocity=127 time=0
EXTRACT: note_on channel=10 note=67 velocity=0 time=0.04629625
EXTRACT: note_on channel=10 note=67 velocity=0 time=0
EXTRACT: note_on channel=10 note=67 velocity=0 time=0
EXTRACT: note_on channel=10 note=67 velocity=0 time=0
EXTRACT: note_on channel=10 note=67 velocity=0 time=0
EXTRACT: note_on channel=10 note=67 velocity=0 time=0
EXTRACT: note_on channel=9 note=54 velocity=0 time=0.0856480625
EXTRACT: note_on channel=9 note=42 velocity=0 time=0
EXTRACT: note_on channel=11 note=60 velocity=0 time=0
EXTRACT: note_on channel=11 note=63 velocity=0 time=0
EXTRACT: note_on channel=11 note=67 velocity=0 time=0
EXTRACT: note_on channel=12 note=48 velocity=0 time=0
EXTRACT: note_on channel=13 note=60 velocity=0 time=0
EXTRACT: note_on channel=13 note=63 velocity=0 time=0
EXTRACT: note_on channel=13 note=67 velocity=0 time=0
EXTRACT: note_on channel=14 note=48 velocity=0 time=0
EXTRACT: note_on channel=9 note=54 velocity=127 time=0.0069444375
EXTRACT: note_on channel=9 note=56 velocity=127 time=0
EXTRACT: note_on channel=9 note=36 velocity=127 time=0
EXTRACT: note_on channel=9 note=42 velocity=127 time=0
EXTRACT: note_on channel=10 note=65 velocity=127 time=0
EXTRACT: note_on channel=10 note=68 velocity=127 time=0
EXTRACT: note_on channel=11 note=60 velocity=127 time=0
EXTRACT: note_on channel=11 note=63 velocity=127 time=0
EXTRACT: note_on channel=11 note=68 velocity=127 time=0
EXTRACT: note_on channel=12 note=43 velocity=127 time=0
EXTRACT: note_on channel=13 note=60 velocity=127 time=0
EXTRACT: note_on channel=13 note=63 velocity=127 time=0
EXTRACT: note_on channel=13 note=68 velocity=127 time=0
EXTRACT: note_on channel=14 note=43 velocity=127 time=0
EXTRACT: note_on channel=10 note=65 velocity=127 time=0
EXTRACT: note_on channel=10 note=68 velocity=127 time=0
EXTRACT: note_on channel=10 note=65 velocity=127 time=0
EXTRACT: note_on channel=10 note=68 velocity=127 time=0
EXTRACT: note_on channel=9 note=54 velocity=0 time=0.1319443125
EXTRACT: note_on channel=9 note=56 velocity=0 time=0
EXTRACT: note_on channel=9 note=36 velocity=0 time=0
EXTRACT: note_on channel=9 note=42 velocity=0 time=0
EXTRACT: note_on channel=9 note=54 velocity=127 time=0.0069444375
EXTRACT: note_on channel=9 note=42 velocity=127 time=0
EXTRACT: note_on channel=9 note=54 velocity=0 time=0.1319443125
EXTRACT: note_on channel=9 note=42 velocity=0 time=0
EXTRACT: note_on channel=12 note=43 velocity=0 time=0
EXTRACT: note_on channel=14 note=43 velocity=0 time=0
EXTRACT: note_on channel=9 note=46 velocity=127 time=0.0069444375
EXTRACT: note_on channel=9 note=54 velocity=127 time=0
EXTRACT: note_on channel=9 note=56 velocity=127 time=0
EXTRACT: note_on channel=9 note=42 velocity=127 time=0
EXTRACT: note_on channel=12 note=44 velocity=127 time=0
EXTRACT: note_on channel=14 note=44 velocity=127 time=0
EXTRACT: note_on channel=9 note=46 velocity=0 time=0.1319443125
EXTRACT: note_on channel=9 note=54 velocity=0 time=0
EXTRACT: note_on channel=9 note=56 velocity=0 time=0
EXTRACT: note_on channel=9 note=42 velocity=0 time=0
EXTRACT: note_on channel=9 note=54 velocity=127 time=0.0069444375
EXTRACT: note_on channel=9 note=36 velocity=127 time=0
EXTRACT: note_on channel=9 note=54 velocity=0 time=0.1319443125
EXTRACT: note_on channel=9 note=36 velocity=0 time=0
EXTRACT: note_on channel=10 note=68 velocity=0 time=0
EXTRACT: note_on channel=12 note=44 velocity=0 time=0
EXTRACT: note_on channel=14 note=44 velocity=0 time=0
EXTRACT: note_on channel=10 note=68 velocity=0 time=0
EXTRACT: note_on channel=10 note=68 velocity=0 time=0
EXTRACT: note_on channel=9 note=46 velocity=127 time=0.0069444375
EXTRACT: note_on channel=9 note=54 velocity=127 time=0
EXTRACT: note_on channel=9 note=56 velocity=127 time=0
EXTRACT: note_on channel=9 note=36 velocity=127 time=0
EXTRACT: note_on channel=9 note=42 velocity=127 time=0
EXTRACT: note_on channel=10 note=63 velocity=127 time=0
EXTRACT: note_on channel=12 note=44 velocity=127 time=0
EXTRACT: note_on channel=14 note=44 velocity=127 time=0
EXTRACT: note_on channel=10 note=63 velocity=127 time=0
EXTRACT: note_on channel=10 note=63 velocity=127 time=0
EXTRACT: note_on channel=9 note=46 velocity=0 time=0.1319443125
EXTRACT: note_on channel=9 note=54 velocity=0 time=0
EXTRACT: note_on channel=9 note=56 velocity=0 time=0
EXTRACT: note_on channel=9 note=36 velocity=0 time=0
EXTRACT: note_on channel=9 note=42 velocity=0 time=0
EXTRACT: note_on channel=9 note=54 velocity=127 time=0.0069444375
EXTRACT: note_on channel=9 note=36 velocity=127 time=0
EXTRACT: note_on channel=9 note=42 velocity=127 time=0
EXTRACT: note_on channel=9 note=54 velocity=0 time=0.1319443125
EXTRACT: note_on channel=9 note=36 velocity=0 time=0
EXTRACT: note_on channel=9 note=42 velocity=0 time=0
EXTRACT: note_on channel=9 note=54 velocity=127 time=0.0069444375
EXTRACT: note_on channel=9 note=56 velocity=127 time=0
EXTRACT: note_on channel=9 note=39 velocity=127 time=0
EXTRACT: note_on channel=9 note=39 velocity=0 time=0.1319443125
EXTRACT: note_on channel=9 note=42 velocity=127 time=0.0069444375
EXTRACT: note_on channel=10 note=63 velocity=0 time=0.04629625
EXTRACT: note_on channel=10 note=63 velocity=0 time=0
EXTRACT: note_on channel=10 note=63 velocity=0 time=0
EXTRACT: note_on channel=9 note=54 velocity=0 time=0.0856480625
EXTRACT: note_on channel=9 note=56 velocity=0 time=0
EXTRACT: note_on channel=9 note=42 velocity=0 time=0
EXTRACT: note_on channel=9 note=54 velocity=127 time=0.0069444375
EXTRACT: note_on channel=9 note=36 velocity=127 time=0
EXTRACT: note_on channel=9 note=42 velocity=127 time=0
EXTRACT: note_on channel=10 note=58 velocity=127 time=0
EXTRACT: note_on channel=10 note=58 velocity=127 time=0
EXTRACT: note_on channel=10 note=58 velocity=127 time=0
EXTRACT: note_on channel=9 note=54 velocity=0 time=0.1319443125
EXTRACT: note_on channel=9 note=36 velocity=0 time=0
EXTRACT: note_on channel=9 note=42 velocity=0 time=0
EXTRACT: note_on channel=9 note=54 velocity=127 time=0.0069444375
EXTRACT: note_on channel=9 note=56 velocity=127 time=0
EXTRACT: note_on channel=9 note=42 velocity=127 time=0
EXTRACT: note_on channel=10 note=65 velocity=0 time=0
EXTRACT: note_on channel=11 note=60 velocity=0 time=0
EXTRACT: note_on channel=11 note=63 velocity=0 time=0
EXTRACT: note_on channel=11 note=68 velocity=0 time=0
EXTRACT: note_on channel=13 note=60 velocity=0 time=0
EXTRACT: note_on channel=13 note=63 velocity=0 time=0
EXTRACT: note_on channel=13 note=68 velocity=0 time=0
EXTRACT: note_on channel=10 note=65 velocity=0 time=0
EXTRACT: note_on channel=10 note=65 velocity=0 time=0
EXTRACT: note_on channel=12 note=44 velocity=0 time=0.04629625
EXTRACT: note_on channel=14 note=44 velocity=0 time=0
EXTRACT: note_on channel=9 note=54 velocity=0 time=0.0856480625
EXTRACT: note_on channel=9 note=56 velocity=0 time=0
EXTRACT: note_on channel=9 note=42 velocity=0 time=0
EXTRACT: note_on channel=9 note=54 velocity=127 time=0.0069444375
EXTRACT: note_on channel=9 note=36 velocity=127 time=0
EXTRACT: note_on channel=11 note=59 velocity=127 time=0
EXTRACT: note_on channel=11 note=62 velocity=127 time=0
EXTRACT: note_on channel=11 note=67 velocity=127 time=0
EXTRACT: note_on channel=12 note=43 velocity=127 time=0
EXTRACT: note_on channel=13 note=59 velocity=127 time=0
EXTRACT: note_on channel=13 note=62 velocity=127 time=0
EXTRACT: note_on channel=13 note=67 velocity=127 time=0
EXTRACT: note_on channel=14 note=43 velocity=127 time=0
EXTRACT: note_on channel=9 note=54 velocity=0 time=0.1319443125
EXTRACT: note_on channel=9 note=36 velocity=0 time=0
EXTRACT: note_on channel=9 note=46 velocity=127 time=0.0069444375
EXTRACT: note_on channel=9 note=54 velocity=127 time=0
EXTRACT: note_on channel=9 note=56 velocity=127 time=0
EXTRACT: note_on channel=9 note=42 velocity=127 time=0
EXTRACT: note_on channel=9 note=46 velocity=0 time=0.1319443125
EXTRACT: note_on channel=9 note=54 velocity=0 time=0
EXTRACT: note_on channel=9 note=56 velocity=0 time=0
EXTRACT: note_on channel=10 note=58 velocity=0 time=0
EXTRACT: note_on channel=10 note=58 velocity=0 time=0
EXTRACT: note_on channel=10 note=58 velocity=0 time=0
EXTRACT: note_on channel=9 note=54 velocity=127 time=0.0069444375
EXTRACT: note_on channel=9 note=56 velocity=127 time=0
EXTRACT: note_on channel=10 note=67 velocity=127 time=0
EXTRACT: note_on channel=10 note=67 velocity=127 time=0
EXTRACT: note_on channel=10 note=67 velocity=127 time=0
EXTRACT: note_on channel=9 note=54 velocity=0 time=0.1319443125
EXTRACT: note_on channel=9 note=56 velocity=0 time=0
EXTRACT: note_on channel=9 note=42 velocity=0 time=0
EXTRACT: note_on channel=11 note=59 velocity=0 time=0
EXTRACT: note_on channel=11 note=62 velocity=0 time=0
EXTRACT: note_on channel=11 note=67 velocity=0 time=0
EXTRACT: note_on channel=13 note=59 velocity=0 time=0
EXTRACT: note_on channel=13 note=62 velocity=0 time=0
EXTRACT: note_on channel=13 note=67 velocity=0 time=0
EXTRACT: note_on channel=9 note=56 velocity=127 time=0.0069444375
EXTRACT: note_on channel=9 note=42 velocity=127 time=0
EXTRACT: note_on channel=11 note=59 velocity=127 time=0
EXTRACT: note_on channel=11 note=62 velocity=127 time=0
EXTRACT: note_on channel=11 note=67 velocity=127 time=0
EXTRACT: note_on channel=13 note=59 velocity=127 time=0
EXTRACT: note_on channel=13 note=62 velocity=127 time=0
EXTRACT: note_on channel=13 note=67 velocity=127 time=0
EXTRACT: note_on channel=12 note=43 velocity=0 time=0.04629625
EXTRACT: note_on channel=14 note=43 velocity=0 time=0
EXTRACT: note_on channel=9 note=56 velocity=0 time=0.0856480625
EXTRACT: note_on channel=9 note=42 velocity=0 time=0
EXTRACT: note_on channel=9 note=46 velocity=127 time=0.0069444375
EXTRACT: note_on channel=9 note=54 velocity=127 time=0
EXTRACT: note_on channel=9 note=56 velocity=127 time=0
EXTRACT: note_on channel=9 note=39 velocity=127 time=0
EXTRACT: note_on channel=9 note=42 velocity=127 time=0
EXTRACT: note_on channel=12 note=47 velocity=127 time=0
EXTRACT: note_on channel=14 note=47 velocity=127 time=0
EXTRACT: note_on channel=9 note=46 velocity=0 time=0.1319443125
EXTRACT: note_on channel=9 note=54 velocity=0 time=0
EXTRACT: note_on channel=9 note=56 velocity=0 time=0
EXTRACT: note_on channel=9 note=39 velocity=0 time=0
EXTRACT: note_on channel=9 note=42 velocity=0 time=0
EXTRACT: note_on channel=9 note=54 velocity=127 time=0.0069444375
EXTRACT: note_on channel=9 note=42 velocity=127 time=0
EXTRACT: note_on channel=10 note=67 velocity=0 time=0.04629625
EXTRACT: note_on channel=10 note=67 velocity=0 time=0
EXTRACT: note_on channel=10 note=67 velocity=0 time=0
EXTRACT: note_on channel=9 note=54 velocity=0 time=0.0856480625
EXTRACT: note_on channel=9 note=42 velocity=0 time=0
EXTRACT: note_on channel=11 note=59 velocity=0 time=0
EXTRACT: note_on channel=11 note=62 velocity=0 time=0
EXTRACT: note_on channel=11 note=67 velocity=0 time=0
EXTRACT: note_on channel=12 note=47 velocity=0 time=0
EXTRACT: note_on channel=13 note=59 velocity=0 time=0
EXTRACT: note_on channel=13 note=62 velocity=0 time=0
EXTRACT: note_on channel=13 note=67 velocity=0 time=0
EXTRACT: note_on channel=14 note=47 velocity=0 time=0
EXTRACT: note_on channel=9 note=54 velocity=127 time=0.0069444375
EXTRACT: note_on channel=9 note=56 velocity=127 time=0
EXTRACT: note_on channel=9 note=36 velocity=127 time=0
EXTRACT: note_on channel=9 note=42 velocity=127 time=0
EXTRACT: note_on channel=10 note=65 velocity=127 time=0
EXTRACT: note_on channel=11 note=60 velocity=127 time=0
EXTRACT: note_on channel=11 note=63 velocity=127 time=0
EXTRACT: note_on channel=11 note=67 velocity=127 time=0
EXTRACT: note_on channel=12 note=48 velocity=127 time=0
EXTRACT: note_on channel=13 note=60 velocity=127 time=0
EXTRACT: note_on channel=13 note=63 velocity=127 time=0
EXTRACT: note_on channel=13 note=67 velocity=127 time=0
EXTRACT: note_on channel=14 note=48 velocity=127 time=0
EXTRACT: note_on channel=10 note=65 velocity=127 time=0
EXTRACT: note_on channel=10 note=65 velocity=127 time=0
EXTRACT: note_on channel=9 note=54 velocity=0 time=0.1319443125
EXTRACT: note_on channel=9 note=56 velocity=0 time=0
EXTRACT: note_on channel=9 note=36 velocity=0 time=0
EXTRACT: note_on channel=9 note=42 velocity=0 time=0
EXTRACT: note_on channel=9 note=54 velocity=127 time=0.0069444375
EXTRACT: note_on channel=9 note=42 velocity=127 time=0
EXTRACT: note_on channel=9 note=54 velocity=0 time=0.1319443125
EXTRACT: note_on channel=9 note=42 velocity=0 time=0
EXTRACT: note_on channel=9 note=46 velocity=127 time=0.0069444375
EXTRACT: note_on channel=9 note=54 velocity=127 time=0
EXTRACT: note_on channel=9 note=56 velocity=127 time=0
EXTRACT: note_on channel=9 note=42 velocity=127 time=0
EXTRACT: note_on channel=9 note=46 velocity=0 time=0.1319443125
EXTRACT: note_on channel=9 note=54 velocity=0 time=0
EXTRACT: note_on channel=9 note=56 velocity=0 time=0
EXTRACT: note_on channel=9 note=42 velocity=0 time=0
EXTRACT: note_on channel=9 note=54 velocity=127 time=0.0069444375
EXTRACT: note_on channel=9 note=36 velocity=127 time=0
EXTRACT: note_on channel=9 note=54 velocity=0 time=0.1319443125
EXTRACT: note_on channel=9 note=36 velocity=0 time=0
EXTRACT: note_on channel=10 note=65 velocity=0 time=0
EXTRACT: note_on channel=12 note=48 velocity=0 time=0
EXTRACT: note_on channel=14 note=48 velocity=0 time=0
EXTRACT: note_on channel=10 note=65 velocity=0 time=0
EXTRACT: note_on channel=10 note=65 velocity=0 time=0
EXTRACT: note_on channel=9 note=46 velocity=127 time=0.0069444375
EXTRACT: note_on channel=9 note=54 velocity=127 time=0
EXTRACT: note_on channel=9 note=56 velocity=127 time=0
EXTRACT: note_on channel=9 note=36 velocity=127 time=0
EXTRACT: note_on channel=9 note=42 velocity=127 time=0
EXTRACT: note_on channel=10 note=63 velocity=127 time=0
EXTRACT: note_on channel=12 note=48 velocity=127 time=0
EXTRACT: note_on channel=14 note=48 velocity=127 time=0
EXTRACT: note_on channel=10 note=63 velocity=127 time=0
EXTRACT: note_on channel=10 note=63 velocity=127 time=0
EXTRACT: note_on channel=9 note=46 velocity=0 time=0.1319443125
EXTRACT: note_on channel=9 note=54 velocity=0 time=0
EXTRACT: note_on channel=9 note=56 velocity=0 time=0
EXTRACT: note_on channel=9 note=36 velocity=0 time=0
EXTRACT: note_on channel=9 note=42 velocity=0 time=0
EXTRACT: note_on channel=9 note=54 velocity=127 time=0.0069444375
EXTRACT: note_on channel=9 note=36 velocity=127 time=0
EXTRACT: note_on channel=9 note=42 velocity=127 time=0
EXTRACT: note_on channel=9 note=54 velocity=0 time=0.1319443125
EXTRACT: note_on channel=9 note=36 velocity=0 time=0
EXTRACT: note_on channel=9 note=42 velocity=0 time=0
EXTRACT: note_on channel=9 note=54 velocity=127 time=0.0069444375
EXTRACT: note_on channel=9 note=56 velocity=127 time=0
EXTRACT: note_on channel=9 note=39 velocity=127 time=0
EXTRACT: note_on channel=9 note=39 velocity=0 time=0.1319443125
EXTRACT: note_on channel=9 note=42 velocity=127 time=0.0069444375
EXTRACT: note_on channel=12 note=48 velocity=0 time=0.04629625
EXTRACT: note_on channel=14 note=48 velocity=0 time=0
EXTRACT: note_on channel=9 note=54 velocity=0 time=0.0856480625
EXTRACT: note_on channel=9 note=56 velocity=0 time=0
EXTRACT: note_on channel=9 note=42 velocity=0 time=0
EXTRACT: note_on channel=9 note=54 velocity=127 time=0.0069444375
EXTRACT: note_on channel=9 note=36 velocity=127 time=0
EXTRACT: note_on channel=9 note=42 velocity=127 time=0
EXTRACT: note_on channel=12 note=43 velocity=127 time=0
EXTRACT: note_on channel=14 note=43 velocity=127 time=0
EXTRACT: note_on channel=9 note=54 velocity=0 time=0.1319443125
EXTRACT: note_on channel=9 note=36 velocity=0 time=0
EXTRACT: note_on channel=9 note=42 velocity=0 time=0
EXTRACT: note_on channel=9 note=54 velocity=127 time=0.0069444375
EXTRACT: note_on channel=9 note=56 velocity=127 time=0
EXTRACT: note_on channel=9 note=42 velocity=127 time=0
EXTRACT: note_on channel=11 note=60 velocity=0 time=0
EXTRACT: note_on channel=11 note=63 velocity=0 time=0
EXTRACT: note_on channel=11 note=67 velocity=0 time=0
EXTRACT: note_on channel=13 note=60 velocity=0 time=0
EXTRACT: note_on channel=13 note=63 velocity=0 time=0
EXTRACT: note_on channel=13 note=67 velocity=0 time=0
EXTRACT: note_on channel=10 note=63 velocity=0 time=0.04629625
EXTRACT: note_on channel=10 note=63 velocity=0 time=0
EXTRACT: note_on channel=10 note=63 velocity=0 time=0
EXTRACT: note_on channel=9 note=54 velocity=0 time=0.0856480625
EXTRACT: note_on channel=9 note=56 velocity=0 time=0
EXTRACT: note_on channel=9 note=42 velocity=0 time=0
EXTRACT: note_on channel=12 note=43 velocity=0 time=0
EXTRACT: note_on channel=14 note=43 velocity=0 time=0
EXTRACT: note_on channel=9 note=54 velocity=127 time=0.0069444375
EXTRACT: note_on channel=9 note=36 velocity=127 time=0
EXTRACT: note_on channel=11 note=60 velocity=127 time=0
EXTRACT: note_on channel=11 note=63 velocity=127 time=0
EXTRACT: note_on channel=11 note=67 velocity=127 time=0
EXTRACT: note_on channel=12 note=48 velocity=127 time=0
EXTRACT: note_on channel=13 note=60 velocity=127 time=0
EXTRACT: note_on channel=13 note=63 velocity=127 time=0
EXTRACT: note_on channel=13 note=67 velocity=127 time=0
EXTRACT: note_on channel=14 note=48 velocity=127 time=0
EXTRACT: note_on channel=9 note=54 velocity=0 time=0.1319443125
EXTRACT: note_on channel=9 note=36 velocity=0 time=0
EXTRACT: note_on channel=9 note=46 velocity=127 time=0.0069444375
EXTRACT: note_on channel=9 note=54 velocity=127 time=0
EXTRACT: note_on channel=9 note=56 velocity=127 time=0
EXTRACT: note_on channel=9 note=42 velocity=127 time=0
EXTRACT: note_on channel=9 note=46 velocity=0 time=0.1319443125
EXTRACT: note_on channel=9 note=54 velocity=0 time=0
EXTRACT: note_on channel=9 note=56 velocity=0 time=0
EXTRACT: note_on channel=12 note=48 velocity=0 time=0
EXTRACT: note_on channel=14 note=48 velocity=0 time=0
EXTRACT: note_on channel=9 note=54 velocity=127 time=0.0069444375
EXTRACT: note_on channel=9 note=56 velocity=127 time=0
EXTRACT: note_on channel=10 note=67 velocity=127 time=0
EXTRACT: note_on channel=12 note=48 velocity=127 time=0
EXTRACT: note_on channel=14 note=48 velocity=127 time=0
EXTRACT: note_on channel=10 note=67 velocity=127 time=0
EXTRACT: note_on channel=10 note=67 velocity=127 time=0
EXTRACT: note_on channel=9 note=54 velocity=0 time=0.1319443125
EXTRACT: note_on channel=9 note=56 velocity=0 time=0
EXTRACT: note_on channel=9 note=42 velocity=0 time=0
EXTRACT: note_on channel=11 note=60 velocity=0 time=0
EXTRACT: note_on channel=11 note=63 velocity=0 time=0
EXTRACT: note_on channel=11 note=67 velocity=0 time=0
EXTRACT: note_on channel=13 note=60 velocity=0 time=0
EXTRACT: note_on channel=13 note=63 velocity=0 time=0
EXTRACT: note_on channel=13 note=67 velocity=0 time=0
EXTRACT: note_on channel=9 note=56 velocity=127 time=0.0069444375
EXTRACT: note_on channel=9 note=42 velocity=127 time=0
EXTRACT: note_on channel=11 note=60 velocity=127 time=0
EXTRACT: note_on channel=11 note=63 velocity=127 time=0
EXTRACT: note_on channel=11 note=67 velocity=127 time=0
EXTRACT: note_on channel=13 note=60 velocity=127 time=0
EXTRACT: note_on channel=13 note=63 velocity=127 time=0
EXTRACT: note_on channel=13 note=67 velocity=127 time=0
EXTRACT: note_on channel=9 note=56 velocity=0 time=0.1319443125
EXTRACT: note_on channel=9 note=42 velocity=0 time=0
EXTRACT: note_on channel=10 note=67 velocity=0 time=0
EXTRACT: note_on channel=12 note=48 velocity=0 time=0
EXTRACT: note_on channel=14 note=48 velocity=0 time=0
EXTRACT: note_on channel=10 note=67 velocity=0 time=0
EXTRACT: note_on channel=10 note=67 velocity=0 time=0
EXTRACT: note_on channel=9 note=46 velocity=127 time=0.0069444375
EXTRACT: note_on channel=9 note=54 velocity=127 time=0
EXTRACT: note_on channel=9 note=56 velocity=127 time=0
EXTRACT: note_on channel=9 note=39 velocity=127 time=0
EXTRACT: note_on channel=9 note=42 velocity=127 time=0
EXTRACT: note_on channel=10 note=67 velocity=127 time=0
EXTRACT: note_on channel=12 note=48 velocity=127 time=0
EXTRACT: note_on channel=14 note=48 velocity=127 time=0
EXTRACT: note_on channel=10 note=67 velocity=127 time=0
EXTRACT: note_on channel=10 note=67 velocity=127 time=0
EXTRACT: note_on channel=9 note=46 velocity=0 time=0.1319443125
EXTRACT: note_on channel=9 note=54 velocity=0 time=0
EXTRACT: note_on channel=9 note=56 velocity=0 time=0
EXTRACT: note_on channel=9 note=39 velocity=0 time=0
EXTRACT: note_on channel=9 note=42 velocity=0 time=0
EXTRACT: note_on channel=9 note=54 velocity=127 time=0.0069444375
EXTRACT: note_on channel=9 note=42 velocity=127 time=0
EXTRACT: note_on channel=9 note=54 velocity=0 time=0.1319443125
EXTRACT: note_on channel=9 note=42 velocity=0 time=0
EXTRACT: note_on channel=10 note=67 velocity=0 time=0
EXTRACT: note_on channel=11 note=60 velocity=0 time=0
EXTRACT: note_on channel=11 note=63 velocity=0 time=0
EXTRACT: note_on channel=11 note=67 velocity=0 time=0
EXTRACT: note_on channel=12 note=48 velocity=0 time=0
EXTRACT: note_on channel=13 note=60 velocity=0 time=0
EXTRACT: note_on channel=13 note=63 velocity=0 time=0
EXTRACT: note_on channel=13 note=67 velocity=0 time=0
EXTRACT: note_on channel=14 note=48 velocity=0 time=0
EXTRACT: note_on channel=10 note=67 velocity=0 time=0
EXTRACT: note_on channel=10 note=67 velocity=0 time=0
EXTRACT: note_on channel=9 note=54 velocity=127 time=0.0069444375
EXTRACT: note_on channel=9 note=56 velocity=127 time=0
EXTRACT: note_on channel=9 note=36 velocity=127 time=0
EXTRACT: note_on channel=9 note=42 velocity=127 time=0
EXTRACT: note_on channel=10 note=65 velocity=127 time=0
EXTRACT: note_on channel=11 note=60 velocity=127 time=0
EXTRACT: note_on channel=11 note=63 velocity=127 time=0
EXTRACT: note_on channel=11 note=68 velocity=127 time=0
EXTRACT: note_on channel=12 note=43 velocity=127 time=0
EXTRACT: note_on channel=13 note=60 velocity=127 time=0
EXTRACT: note_on channel=13 note=63 velocity=127 time=0
EXTRACT: note_on channel=13 note=68 velocity=127 time=0
EXTRACT: note_on channel=14 note=43 velocity=127 time=0
EXTRACT: note_on channel=10 note=65 velocity=127 time=0
EXTRACT: note_on channel=10 note=65 velocity=127 time=0
EXTRACT: note_on channel=9 note=54 velocity=0 time=0.1319443125
EXTRACT: note_on channel=9 note=56 velocity=0 time=0
EXTRACT: note_on channel=9 note=36 velocity=0 time=0
EXTRACT: note_on channel=9 note=42 velocity=0 time=0
EXTRACT: note_on channel=9 note=54 velocity=127 time=0.0069444375
EXTRACT: note_on channel=9 note=42 velocity=127 time=0
EXTRACT: note_on channel=9 note=54 velocity=0 time=0.1319443125
EXTRACT: note_on channel=9 note=42 velocity=0 time=0
EXTRACT: note_on channel=10 note=65 velocity=0 time=0
EXTRACT: note_on channel=12 note=43 velocity=0 time=0
EXTRACT: note_on channel=14 note=43 velocity=0 time=0
EXTRACT: note_on channel=10 note=65 velocity=0 time=0
EXTRACT: note_on channel=10 note=65 velocity=0 time=0
EXTRACT: note_on channel=9 note=46 velocity=127 time=0.0069444375
EXTRACT: note_on channel=9 note=54 velocity=127 time=0
EXTRACT: note_on channel=9 note=56 velocity=127 time=0
EXTRACT: note_on channel=9 note=42 velocity=127 time=0
EXTRACT: note_on channel=10 note=65 velocity=127 time=0
EXTRACT: note_on channel=12 note=44 velocity=127 time=0
EXTRACT: note_on channel=14 note=44 velocity=127 time=0
EXTRACT: note_on channel=10 note=65 velocity=127 time=0
EXTRACT: note_on channel=10 note=65 velocity=127 time=0
EXTRACT: note_on channel=9 note=46 velocity=0 time=0.1319443125
EXTRACT: note_on channel=9 note=54 velocity=0 time=0
EXTRACT: note_on channel=9 note=56 velocity=0 time=0
EXTRACT: note_on channel=9 note=42 velocity=0 time=0
EXTRACT: note_on channel=9 note=54 velocity=127 time=0.0069444375
EXTRACT: note_on channel=9 note=36 velocity=127 time=0
EXTRACT: note_on channel=9 note=54 velocity=0 time=0.1319443125
EXTRACT: note_on channel=9 note=36 velocity=0 time=0
EXTRACT: note_on channel=10 note=65 velocity=0 time=0
EXTRACT: note_on channel=12 note=44 velocity=0 time=0
EXTRACT: note_on channel=14 note=44 velocity=0 time=0
EXTRACT: note_on channel=10 note=65 velocity=0 time=0
EXTRACT: note_on channel=10 note=65 velocity=0 time=0
EXTRACT: note_on channel=9 note=46 velocity=127 time=0.0069444375
EXTRACT: note_on channel=9 note=54 velocity=127 time=0
EXTRACT: note_on channel=9 note=56 velocity=127 time=0
EXTRACT: note_on channel=9 note=36 velocity=127 time=0
EXTRACT: note_on channel=9 note=42 velocity=127 time=0
EXTRACT: note_on channel=10 note=63 velocity=127 time=0
EXTRACT: note_on channel=12 note=44 velocity=127 time=0
EXTRACT: note_on channel=14 note=44 velocity=127 time=0
EXTRACT: note_on channel=10 note=63 velocity=127 time=0
EXTRACT: note_on channel=10 note=63 velocity=127 time=0
EXTRACT: note_on channel=9 note=46 velocity=0 time=0.1319443125
EXTRACT: note_on channel=9 note=54 velocity=0 time=0
EXTRACT: note_on channel=9 note=56 velocity=0 time=0
EXTRACT: note_on channel=9 note=36 velocity=0 time=0
EXTRACT: note_on channel=9 note=42 velocity=0 time=0
EXTRACT: note_on channel=9 note=54 velocity=127 time=0.0069444375
EXTRACT: note_on channel=9 note=36 velocity=127 time=0
EXTRACT: note_on channel=9 note=42 velocity=127 time=0
EXTRACT: note_on channel=9 note=54 velocity=0 time=0.1319443125
EXTRACT: note_on channel=9 note=36 velocity=0 time=0
EXTRACT: note_on channel=9 note=42 velocity=0 time=0
EXTRACT: note_on channel=10 note=63 velocity=0 time=0
EXTRACT: note_on channel=10 note=63 velocity=0 time=0
EXTRACT: note_on channel=10 note=63 velocity=0 time=0
EXTRACT: note_on channel=9 note=54 velocity=127 time=0.0069444375
EXTRACT: note_on channel=9 note=56 velocity=127 time=0
EXTRACT: note_on channel=9 note=39 velocity=127 time=0
EXTRACT: note_on channel=9 note=39 velocity=0 time=0.1319443125
EXTRACT: note_on channel=9 note=42 velocity=127 time=0.0069444375
EXTRACT: note_on channel=9 note=54 velocity=0 time=0.1319443125
EXTRACT: note_on channel=9 note=56 velocity=0 time=0
EXTRACT: note_on channel=9 note=42 velocity=0 time=0
EXTRACT: note_on channel=9 note=54 velocity=127 time=0.0069444375
EXTRACT: note_on channel=9 note=36 velocity=127 time=0
EXTRACT: note_on channel=9 note=42 velocity=127 time=0
EXTRACT: note_on channel=10 note=60 velocity=127 time=0
EXTRACT: note_on channel=10 note=60 velocity=127 time=0
EXTRACT: note_on channel=10 note=60 velocity=127 time=0
EXTRACT: note_on channel=9 note=54 velocity=0 time=0.1319443125
EXTRACT: note_on channel=9 note=36 velocity=0 time=0
EXTRACT: note_on channel=9 note=42 velocity=0 time=0
EXTRACT: note_on channel=9 note=54 velocity=127 time=0.0069444375
EXTRACT: note_on channel=9 note=56 velocity=127 time=0
EXTRACT: note_on channel=9 note=42 velocity=127 time=0
EXTRACT: note_on channel=11 note=60 velocity=0 time=0
EXTRACT: note_on channel=11 note=63 velocity=0 time=0
EXTRACT: note_on channel=11 note=68 velocity=0 time=0
EXTRACT: note_on channel=13 note=60 velocity=0 time=0
EXTRACT: note_on channel=13 note=63 velocity=0 time=0
EXTRACT: note_on channel=13 note=68 velocity=0 time=0
EXTRACT: note_on channel=12 note=44 velocity=0 time=0.04629625
EXTRACT: note_on channel=14 note=44 velocity=0 time=0
EXTRACT: note_on channel=9 note=54 velocity=0 time=0.0856480625
EXTRACT: note_on channel=9 note=56 velocity=0 time=0
EXTRACT: note_on channel=9 note=42 velocity=0 time=0
EXTRACT: note_on channel=10 note=60 velocity=0 time=0
EXTRACT: note_on channel=10 note=60 velocity=0 time=0
EXTRACT: note_on channel=10 note=60 velocity=0 time=0
EXTRACT: note_on channel=9 note=54 velocity=127 time=0.0069444375
EXTRACT: note_on channel=9 note=36 velocity=127 time=0
EXTRACT: note_on channel=10 note=59 velocity=127 time=0
EXTRACT: note_on channel=11 note=59 velocity=127 time=0
EXTRACT: note_on channel=11 note=62 velocity=127 time=0
EXTRACT: note_on channel=11 note=67 velocity=127 time=0
EXTRACT: note_on channel=12 note=43 velocity=127 time=0
EXTRACT: note_on channel=13 note=59 velocity=127 time=0
EXTRACT: note_on channel=13 note=62 velocity=127 time=0
EXTRACT: note_on channel=13 note=67 velocity=127 time=0
EXTRACT: note_on channel=14 note=43 velocity=127 time=0
EXTRACT: note_on channel=10 note=59 velocity=127 time=0
EXTRACT: note_on channel=10 note=59 velocity=127 time=0
EXTRACT: note_on channel=9 note=54 velocity=0 time=0.1319443125
EXTRACT: note_on channel=9 note=36 velocity=0 time=0
EXTRACT: note_on channel=9 note=46 velocity=127 time=0.0069444375
EXTRACT: note_on channel=9 note=54 velocity=127 time=0
EXTRACT: note_on channel=9 note=56 velocity=127 time=0
EXTRACT: note_on channel=9 note=42 velocity=127 time=0
EXTRACT: note_on channel=9 note=46 velocity=0 time=0.1319443125
EXTRACT: note_on channel=9 note=54 velocity=0 time=0
EXTRACT: note_on channel=9 note=56 velocity=0 time=0
EXTRACT: note_on channel=9 note=54 velocity=127 time=0.0069444375
EXTRACT: note_on channel=9 note=56 velocity=127 time=0
EXTRACT: note_on channel=9 note=54 velocity=0 time=0.1319443125
EXTRACT: note_on channel=9 note=56 velocity=0 time=0
EXTRACT: note_on channel=9 note=42 velocity=0 time=0
EXTRACT: note_on channel=10 note=59 velocity=0 time=0
EXTRACT: note_on channel=11 note=59 velocity=0 time=0
EXTRACT: note_on channel=11 note=62 velocity=0 time=0
EXTRACT: note_on channel=11 note=67 velocity=0 time=0
EXTRACT: note_on channel=13 note=59 velocity=0 time=0
EXTRACT: note_on channel=13 note=62 velocity=0 time=0
EXTRACT: note_on channel=13 note=67 velocity=0 time=0
EXTRACT: note_on channel=10 note=59 velocity=0 time=0
EXTRACT: note_on channel=10 note=59 velocity=0 time=0
EXTRACT: note_on channel=9 note=56 velocity=127 time=0.0069444375
EXTRACT: note_on channel=9 note=42 velocity=127 time=0
EXTRACT: note_on channel=10 note=65 velocity=127 time=0
EXTRACT: note_on channel=11 note=59 velocity=127 time=0
EXTRACT: note_on channel=11 note=62 velocity=127 time=0
EXTRACT: note_on channel=11 note=67 velocity=127 time=0
EXTRACT: note_on channel=13 note=59 velocity=127 time=0
EXTRACT: note_on channel=13 note=62 velocity=127 time=0
EXTRACT: note_on channel=13 note=67 velocity=127 time=0
EXTRACT: note_on channel=10 note=65 velocity=127 time=0
EXTRACT: note_on channel=10 note=65 velocity=127 time=0
EXTRACT: note_on channel=12 note=43 velocity=0 time=0.04629625
EXTRACT: note_on channel=14 note=43 velocity=0 time=0
EXTRACT: note_on channel=9 note=56 velocity=0 time=0.0856480625
EXTRACT: note_on channel=9 note=42 velocity=0 time=0
EXTRACT: note_on channel=9 note=46 velocity=127 time=0.0069444375
EXTRACT: note_on channel=9 note=54 velocity=127 time=0
EXTRACT: note_on channel=9 note=56 velocity=127 time=0
EXTRACT: note_on channel=9 note=39 velocity=127 time=0
EXTRACT: note_on channel=9 note=42 velocity=127 time=0
EXTRACT: note_on channel=12 note=47 velocity=127 time=0
EXTRACT: note_on channel=14 note=47 velocity=127 time=0
EXTRACT: note_on channel=9 note=46 velocity=0 time=0.1319443125
EXTRACT: note_on channel=9 note=54 velocity=0 time=0
EXTRACT: note_on channel=9 note=56 velocity=0 time=0
EXTRACT: note_on channel=9 note=39 velocity=0 time=0
EXTRACT: note_on channel=9 note=42 velocity=0 time=0
EXTRACT: note_on channel=9 note=54 velocity=127 time=0.0069444375
EXTRACT: note_on channel=9 note=42 velocity=127 time=0
EXTRACT: note_on channel=9 note=54 velocity=0 time=0.1319443125
EXTRACT: note_on channel=9 note=42 velocity=0 time=0
EXTRACT: note_on channel=10 note=65 velocity=0 time=0
EXTRACT: note_on channel=11 note=59 velocity=0 time=0
EXTRACT: note_on channel=11 note=62 velocity=0 time=0
EXTRACT: note_on channel=11 note=67 velocity=0 time=0
EXTRACT: note_on channel=12 note=47 velocity=0 time=0
EXTRACT: note_on channel=13 note=59 velocity=0 time=0
EXTRACT: note_on channel=13 note=62 velocity=0 time=0
EXTRACT: note_on channel=13 note=67 velocity=0 time=0
EXTRACT: note_on channel=14 note=47 velocity=0 time=0
EXTRACT: note_on channel=10 note=65 velocity=0 time=0
EXTRACT: note_on channel=10 note=65 velocity=0 time=0
EXTRACT: note_on channel=9 note=54 velocity=127 time=0.0069444375
EXTRACT: note_on channel=9 note=56 velocity=127 time=0
EXTRACT: note_on channel=9 note=36 velocity=127 time=0
EXTRACT: note_on channel=9 note=42 velocity=127 time=0
EXTRACT: note_on channel=10 note=63 velocity=127 time=0
EXTRACT: note_on channel=11 note=60 velocity=127 time=0
EXTRACT: note_on channel=11 note=63 velocity=127 time=0
EXTRACT: note_on channel=11 note=67 velocity=127 time=0
EXTRACT: note_on channel=12 note=48 velocity=127 time=0
EXTRACT: note_on channel=13 note=60 velocity=127 time=0
EXTRACT: note_on channel=13 note=63 velocity=127 time=0
EXTRACT: note_on channel=13 note=67 velocity=127 time=0
EXTRACT: note_on channel=14 note=48 velocity=127 time=0
EXTRACT: note_on channel=10 note=63 velocity=127 time=0
EXTRACT: note_on channel=10 note=63 velocity=127 time=0
EXTRACT: note_on channel=9 note=54 velocity=0 time=0.1319443125
EXTRACT: note_on channel=9 note=56 velocity=0 time=0
EXTRACT: note_on channel=9 note=36 velocity=0 time=0
EXTRACT: note_on channel=9 note=42 velocity=0 time=0
EXTRACT: note_on channel=9 note=54 velocity=127 time=0.0069444375
EXTRACT: note_on channel=9 note=42 velocity=127 time=0
EXTRACT: note_on channel=9 note=54 velocity=0 time=0.1319443125
EXTRACT: note_on channel=9 note=42 velocity=0 time=0
EXTRACT: note_on channel=9 note=46 velocity=127 time=0.0069444375
EXTRACT: note_on channel=9 note=54 velocity=127 time=0
EXTRACT: note_on channel=9 note=56 velocity=127 time=0
EXTRACT: note_on channel=9 note=42 velocity=127 time=0
EXTRACT: note_on channel=9 note=46 velocity=0 time=0.1319443125
EXTRACT: note_on channel=9 note=54 velocity=0 time=0
EXTRACT: note_on channel=9 note=56 velocity=0 time=0
EXTRACT: note_on channel=9 note=42 velocity=0 time=0
EXTRACT: note_on channel=9 note=54 velocity=127 time=0.0069444375
EXTRACT: note_on channel=9 note=36 velocity=127 time=0
EXTRACT: note_on channel=9 note=54 velocity=0 time=0.1319443125
EXTRACT: note_on channel=9 note=36 velocity=0 time=0
EXTRACT: note_on channel=10 note=63 velocity=0 time=0
EXTRACT: note_on channel=12 note=48 velocity=0 time=0
EXTRACT: note_on channel=14 note=48 velocity=0 time=0
EXTRACT: note_on channel=10 note=63 velocity=0 time=0
EXTRACT: note_on channel=10 note=63 velocity=0 time=0
EXTRACT: note_on channel=9 note=46 velocity=127 time=0.0069444375
EXTRACT: note_on channel=9 note=54 velocity=127 time=0
EXTRACT: note_on channel=9 note=56 velocity=127 time=0
EXTRACT: note_on channel=9 note=36 velocity=127 time=0
EXTRACT: note_on channel=9 note=42 velocity=127 time=0
EXTRACT: note_on channel=10 note=60 velocity=127 time=0
EXTRACT: note_on channel=12 note=48 velocity=127 time=0
EXTRACT: note_on channel=14 note=48 velocity=127 time=0
EXTRACT: note_on channel=10 note=60 velocity=127 time=0
EXTRACT: note_on channel=10 note=60 velocity=127 time=0
EXTRACT: note_on channel=9 note=46 velocity=0 time=0.1319443125
EXTRACT: note_on channel=9 note=54 velocity=0 time=0
EXTRACT: note_on channel=9 note=56 velocity=0 time=0
EXTRACT: note_on channel=9 note=36 velocity=0 time=0
EXTRACT: note_on channel=9 note=42 velocity=0 time=0
EXTRACT: note_on channel=9 note=54 velocity=127 time=0.0069444375
EXTRACT: note_on channel=9 note=36 velocity=127 time=0
EXTRACT: note_on channel=9 note=42 velocity=127 time=0
EXTRACT: note_on channel=9 note=54 velocity=0 time=0.1319443125
EXTRACT: note_on channel=9 note=36 velocity=0 time=0
EXTRACT: note_on channel=9 note=42 velocity=0 time=0
EXTRACT: note_on channel=9 note=54 velocity=127 time=0.0069444375
EXTRACT: note_on channel=9 note=56 velocity=127 time=0
EXTRACT: note_on channel=9 note=39 velocity=127 time=0
EXTRACT: note_on channel=10 note=60 velocity=0 time=0
EXTRACT: note_on channel=10 note=62 velocity=127 time=0
EXTRACT: note_on channel=10 note=60 velocity=0 time=0
EXTRACT: note_on channel=10 note=62 velocity=127 time=0
EXTRACT: note_on channel=10 note=60 velocity=0 time=0
EXTRACT: note_on channel=10 note=62 velocity=127 time=0
EXTRACT: note_on channel=9 note=39 velocity=0 time=0.1319443125
EXTRACT: note_on channel=9 note=42 velocity=127 time=0.0069444375
EXTRACT: note_on channel=12 note=48 velocity=0 time=0.04629625
EXTRACT: note_on channel=14 note=48 velocity=0 time=0
EXTRACT: note_on channel=9 note=54 velocity=0 time=0.0856480625
EXTRACT: note_on channel=9 note=56 velocity=0 time=0
EXTRACT: note_on channel=9 note=42 velocity=0 time=0
EXTRACT: note_on channel=9 note=54 velocity=127 time=0.0069444375
EXTRACT: note_on channel=9 note=36 velocity=127 time=0
EXTRACT: note_on channel=9 note=42 velocity=127 time=0
EXTRACT: note_on channel=10 note=62 velocity=0 time=0
EXTRACT: note_on channel=10 note=65 velocity=127 time=0
EXTRACT: note_on channel=12 note=43 velocity=127 time=0
EXTRACT: note_on channel=14 note=43 velocity=127 time=0
EXTRACT: note_on channel=10 note=62 velocity=0 time=0
EXTRACT: note_on channel=10 note=65 velocity=127 time=0
EXTRACT: note_on channel=10 note=62 velocity=0 time=0
EXTRACT: note_on channel=10 note=65 velocity=127 time=0
EXTRACT: note_on channel=9 note=54 velocity=0 time=0.1319443125
EXTRACT: note_on channel=9 note=36 velocity=0 time=0
EXTRACT: note_on channel=9 note=42 velocity=0 time=0
EXTRACT: note_on channel=9 note=54 velocity=127 time=0.0069444375
EXTRACT: note_on channel=9 note=56 velocity=127 time=0
EXTRACT: note_on channel=9 note=42 velocity=127 time=0
EXTRACT: note_on channel=11 note=60 velocity=0 time=0
EXTRACT: note_on channel=11 note=63 velocity=0 time=0
EXTRACT: note_on channel=11 note=67 velocity=0 time=0
EXTRACT: note_on channel=13 note=60 velocity=0 time=0
EXTRACT: note_on channel=13 note=63 velocity=0 time=0
EXTRACT: note_on channel=13 note=67 velocity=0 time=0
EXTRACT: note_on channel=9 note=54 velocity=0 time=0.1319443125
EXTRACT: note_on channel=9 note=56 velocity=0 time=0
EXTRACT: note_on channel=9 note=42 velocity=0 time=0
EXTRACT: note_on channel=10 note=65 velocity=0 time=0
EXTRACT: note_on channel=12 note=43 velocity=0 time=0
EXTRACT: note_on channel=14 note=43 velocity=0 time=0
EXTRACT: note_on channel=10 note=65 velocity=0 time=0
EXTRACT: note_on channel=10 note=65 velocity=0 time=0
EXTRACT: note_on channel=9 note=54 velocity=127 time=0.0069444375
EXTRACT: note_on channel=9 note=36 velocity=127 time=0
EXTRACT: note_on channel=10 note=67 velocity=127 time=0
EXTRACT: note_on channel=11 note=60 velocity=127 time=0
EXTRACT: note_on channel=11 note=63 velocity=127 time=0
EXTRACT: note_on channel=11 note=67 velocity=127 time=0
EXTRACT: note_on channel=12 note=48 velocity=127 time=0
EXTRACT: note_on channel=13 note=60 velocity=127 time=0
EXTRACT: note_on channel=13 note=63 velocity=127 time=0
EXTRACT: note_on channel=13 note=67 velocity=127 time=0
EXTRACT: note_on channel=14 note=48 velocity=127 time=0
EXTRACT: note_on channel=10 note=67 velocity=127 time=0
EXTRACT: note_on channel=10 note=67 velocity=127 time=0
EXTRACT: note_on channel=9 note=54 velocity=0 time=0.1319443125
EXTRACT: note_on channel=9 note=36 velocity=0 time=0
EXTRACT: note_on channel=9 note=46 velocity=127 time=0.0069444375
EXTRACT: note_on channel=9 note=54 velocity=127 time=0
EXTRACT: note_on channel=9 note=56 velocity=127 time=0
EXTRACT: note_on channel=9 note=42 velocity=127 time=0
EXTRACT: note_on channel=9 note=46 velocity=0 time=0.1319443125
EXTRACT: note_on channel=9 note=54 velocity=0 time=0
EXTRACT: note_on channel=9 note=56 velocity=0 time=0
EXTRACT: note_on channel=12 note=48 velocity=0 time=0
EXTRACT: note_on channel=14 note=48 velocity=0 time=0
EXTRACT: note_on channel=9 note=54 velocity=127 time=0.0069444375
EXTRACT: note_on channel=9 note=56 velocity=127 time=0
EXTRACT: note_on channel=12 note=48 velocity=127 time=0
EXTRACT: note_on channel=14 note=48 velocity=127 time=0
EXTRACT: note_on channel=9 note=54 velocity=0 time=0.1319443125
EXTRACT: note_on channel=9 note=56 velocity=0 time=0
EXTRACT: note_on channel=9 note=42 velocity=0 time=0
EXTRACT: note_on channel=11 note=60 velocity=0 time=0
EXTRACT: note_on channel=11 note=63 velocity=0 time=0
EXTRACT: note_on channel=11 note=67 velocity=0 time=0
EXTRACT: note_on channel=13 note=60 velocity=0 time=0
EXTRACT: note_on channel=13 note=63 velocity=0 time=0
EXTRACT: note_on channel=13 note=67 velocity=0 time=0
EXTRACT: note_on channel=9 note=56 velocity=127 time=0.0069444375
EXTRACT: note_on channel=9 note=42 velocity=127 time=0
EXTRACT: note_on channel=11 note=60 velocity=127 time=0
EXTRACT: note_on channel=11 note=63 velocity=127 time=0
EXTRACT: note_on channel=11 note=67 velocity=127 time=0
EXTRACT: note_on channel=13 note=60 velocity=127 time=0
EXTRACT: note_on channel=13 note=63 velocity=127 time=0
EXTRACT: note_on channel=13 note=67 velocity=127 time=0
EXTRACT: note_on channel=9 note=56 velocity=0 time=0.1319443125
EXTRACT: note_on channel=9 note=42 velocity=0 time=0
EXTRACT: note_on channel=12 note=48 velocity=0 time=0
EXTRACT: note_on channel=14 note=48 velocity=0 time=0
EXTRACT: note_on channel=9 note=46 velocity=127 time=0.0069444375
EXTRACT: note_on channel=9 note=54 velocity=127 time=0
EXTRACT: note_on channel=9 note=56 velocity=127 time=0
EXTRACT: note_on channel=9 note=39 velocity=127 time=0
EXTRACT: note_on channel=9 note=42 velocity=127 time=0
EXTRACT: note_on channel=12 note=48 velocity=127 time=0
EXTRACT: note_on channel=14 note=48 velocity=127 time=0
EXTRACT: note_on channel=9 note=46 velocity=0 time=0.1319443125
EXTRACT: note_on channel=9 note=54 velocity=0 time=0
EXTRACT: note_on channel=9 note=56 velocity=0 time=0
EXTRACT: note_on channel=9 note=39 velocity=0 time=0
EXTRACT: note_on channel=9 note=42 velocity=0 time=0
EXTRACT: note_on channel=9 note=54 velocity=127 time=0.0069444375
EXTRACT: note_on channel=9 note=42 velocity=127 time=0
EXTRACT: note_on channel=10 note=67 velocity=0 time=0.04629625
EXTRACT: note_on channel=10 note=67 velocity=0 time=0
EXTRACT: note_on channel=10 note=67 velocity=0 time=0
EXTRACT: note_on channel=9 note=54 velocity=0 time=0.0856480625
EXTRACT: note_on channel=9 note=42 velocity=0 time=0
EXTRACT: note_on channel=11 note=60 velocity=0 time=0
EXTRACT: note_on channel=11 note=63 velocity=0 time=0
EXTRACT: note_on channel=11 note=67 velocity=0 time=0
EXTRACT: note_on channel=12 note=48 velocity=0 time=0
EXTRACT: note_on channel=13 note=60 velocity=0 time=0
EXTRACT: note_on channel=13 note=63 velocity=0 time=0
EXTRACT: note_on channel=13 note=67 velocity=0 time=0
EXTRACT: note_on channel=14 note=48 velocity=0 time=0
EXTRACT: note_on channel=9 note=54 velocity=127 time=0.0069444375
EXTRACT: note_on channel=9 note=56 velocity=127 time=0
EXTRACT: note_on channel=9 note=36 velocity=127 time=0
EXTRACT: note_on channel=9 note=42 velocity=127 time=0
EXTRACT: note_on channel=10 note=68 velocity=127 time=0
EXTRACT: note_on channel=11 note=60 velocity=127 time=0
EXTRACT: note_on channel=11 note=63 velocity=127 time=0
EXTRACT: note_on channel=11 note=68 velocity=127 time=0
EXTRACT: note_on channel=12 note=43 velocity=127 time=0
EXTRACT: note_on channel=13 note=60 velocity=127 time=0
EXTRACT: note_on channel=13 note=63 velocity=127 time=0
EXTRACT: note_on channel=13 note=68 velocity=127 time=0
EXTRACT: note_on channel=14 note=43 velocity=127 time=0
EXTRACT: note_on channel=10 note=68 velocity=127 time=0
EXTRACT: note_on channel=10 note=68 velocity=127 time=0
EXTRACT: note_on channel=9 note=54 velocity=0 time=0.1319443125
EXTRACT: note_on channel=9 note=56 velocity=0 time=0
EXTRACT: note_on channel=9 note=36 velocity=0 time=0
EXTRACT: note_on channel=9 note=42 velocity=0 time=0
EXTRACT: note_on channel=9 note=54 velocity=127 time=0.0069444375
EXTRACT: note_on channel=9 note=42 velocity=127 time=0
EXTRACT: note_on channel=9 note=54 velocity=0 time=0.1319443125
EXTRACT: note_on channel=9 note=42 velocity=0 time=0
EXTRACT: note_on channel=12 note=43 velocity=0 time=0
EXTRACT: note_on channel=14 note=43 velocity=0 time=0
EXTRACT: note_on channel=9 note=46 velocity=127 time=0.0069444375
EXTRACT: note_on channel=9 note=54 velocity=127 time=0
EXTRACT: note_on channel=9 note=56 velocity=127 time=0
EXTRACT: note_on channel=9 note=42 velocity=127 time=0
EXTRACT: note_on channel=12 note=44 velocity=127 time=0
EXTRACT: note_on channel=14 note=44 velocity=127 time=0
EXTRACT: note_on channel=9 note=46 velocity=0 time=0.1319443125
EXTRACT: note_on channel=9 note=54 velocity=0 time=0
EXTRACT: note_on channel=9 note=56 velocity=0 time=0
EXTRACT: note_on channel=9 note=42 velocity=0 time=0
EXTRACT: note_on channel=9 note=54 velocity=127 time=0.0069444375
EXTRACT: note_on channel=9 note=36 velocity=127 time=0
EXTRACT: note_on channel=9 note=54 velocity=0 time=0.1319443125
EXTRACT: note_on channel=9 note=36 velocity=0 time=0
EXTRACT: note_on channel=12 note=44 velocity=0 time=0
EXTRACT: note_on channel=14 note=44 velocity=0 time=0
EXTRACT: note_on channel=9 note=46 velocity=127 time=0.0069444375
EXTRACT: note_on channel=9 note=54 velocity=127 time=0
EXTRACT: note_on channel=9 note=56 velocity=127 time=0
EXTRACT: note_on channel=9 note=36 velocity=127 time=0
EXTRACT: note_on channel=9 note=42 velocity=127 time=0
EXTRACT: note_on channel=12 note=44 velocity=127 time=0
EXTRACT: note_on channel=14 note=44 velocity=127 time=0
EXTRACT: note_on channel=9 note=46 velocity=0 time=0.1319443125
EXTRACT: note_on channel=9 note=54 velocity=0 time=0
EXTRACT: note_on channel=9 note=56 velocity=0 time=0
EXTRACT: note_on channel=9 note=36 velocity=0 time=0
EXTRACT: note_on channel=9 note=42 velocity=0 time=0
EXTRACT: note_on channel=9 note=54 velocity=127 time=0.0069444375
EXTRACT: note_on channel=9 note=36 velocity=127 time=0
EXTRACT: note_on channel=9 note=42 velocity=127 time=0
EXTRACT: note_on channel=10 note=68 velocity=0 time=0.04629625
EXTRACT: note_on channel=10 note=68 velocity=0 time=0
EXTRACT: note_on channel=10 note=68 velocity=0 time=0
EXTRACT: note_on channel=9 note=54 velocity=0 time=0.0856480625
EXTRACT: note_on channel=9 note=36 velocity=0 time=0
EXTRACT: note_on channel=9 note=42 velocity=0 time=0
EXTRACT: note_on channel=9 note=54 velocity=127 time=0.0069444375
EXTRACT: note_on channel=9 note=56 velocity=127 time=0
EXTRACT: note_on channel=9 note=39 velocity=127 time=0
EXTRACT: note_on channel=10 note=63 velocity=127 time=0
EXTRACT: note_on channel=10 note=63 velocity=127 time=0
EXTRACT: note_on channel=10 note=63 velocity=127 time=0
EXTRACT: note_on channel=9 note=39 velocity=0 time=0.1319443125
EXTRACT: note_on channel=9 note=42 velocity=127 time=0.0069444375
EXTRACT: note_on channel=12 note=44 velocity=0 time=0.04629625
EXTRACT: note_on channel=14 note=44 velocity=0 time=0
EXTRACT: note_on channel=9 note=54 velocity=0 time=0.0856480625
EXTRACT: note_on channel=9 note=56 velocity=0 time=0
EXTRACT: note_on channel=9 note=42 velocity=0 time=0
EXTRACT: note_on channel=10 note=63 velocity=0 time=0
EXTRACT: note_on channel=10 note=63 velocity=0 time=0
EXTRACT: note_on channel=10 note=63 velocity=0 time=0
EXTRACT: note_on channel=9 note=54 velocity=127 time=0.0069444375
EXTRACT: note_on channel=9 note=36 velocity=127 time=0
EXTRACT: note_on channel=9 note=42 velocity=127 time=0
EXTRACT: note_on channel=10 note=63 velocity=127 time=0
EXTRACT: note_on channel=12 note=44 velocity=127 time=0
EXTRACT: note_on channel=14 note=44 velocity=127 time=0
EXTRACT: note_on channel=10 note=63 velocity=127 time=0
EXTRACT: note_on channel=10 note=63 velocity=127 time=0
EXTRACT: note_on channel=9 note=54 velocity=0 time=0.1319443125
EXTRACT: note_on channel=9 note=36 velocity=0 time=0
EXTRACT: note_on channel=9 note=42 velocity=0 time=0
EXTRACT: note_on channel=9 note=54 velocity=127 time=0.0069444375
EXTRACT: note_on channel=9 note=56 velocity=127 time=0
EXTRACT: note_on channel=9 note=42 velocity=127 time=0
EXTRACT: note_on channel=11 note=60 velocity=0 time=0
EXTRACT: note_on channel=11 note=63 velocity=0 time=0
EXTRACT: note_on channel=11 note=68 velocity=0 time=0
EXTRACT: note_on channel=13 note=60 velocity=0 time=0
EXTRACT: note_on channel=13 note=63 velocity=0 time=0
EXTRACT: note_on channel=13 note=68 velocity=0 time=0
EXTRACT: note_on channel=9 note=54 velocity=0 time=0.1319443125
EXTRACT: note_on channel=9 note=56 velocity=0 time=0
EXTRACT: note_on channel=9 note=42 velocity=0 time=0
EXTRACT: note_on channel=10 note=63 velocity=0 time=0
EXTRACT: note_on channel=12 note=44 velocity=0 time=0
EXTRACT: note_on channel=14 note=44 velocity=0 time=0
EXTRACT: note_on channel=10 note=63 velocity=0 time=0
EXTRACT: note_on channel=10 note=63 velocity=0 time=0
EXTRACT: note_on channel=9 note=54 velocity=127 time=0.0069444375
EXTRACT: note_on channel=9 note=36 velocity=127 time=0
EXTRACT: note_on channel=10 note=70 velocity=127 time=0
EXTRACT: note_on channel=11 note=62 velocity=127 time=0
EXTRACT: note_on channel=11 note=65 velocity=127 time=0
EXTRACT: note_on channel=11 note=70 velocity=127 time=0
EXTRACT: note_on channel=12 note=46 velocity=127 time=0
EXTRACT: note_on channel=13 note=62 velocity=127 time=0
EXTRACT: note_on channel=13 note=65 velocity=127 time=0
EXTRACT: note_on channel=13 note=70 velocity=127 time=0
EXTRACT: note_on channel=14 note=46 velocity=127 time=0
EXTRACT: note_on channel=10 note=70 velocity=127 time=0
EXTRACT: note_on channel=10 note=70 velocity=127 time=0
EXTRACT: note_on channel=9 note=54 velocity=0 time=0.1319443125
EXTRACT: note_on channel=9 note=36 velocity=0 time=0
EXTRACT: note_on channel=9 note=46 velocity=127 time=0.0069444375
EXTRACT: note_on channel=9 note=54 velocity=127 time=0
EXTRACT: note_on channel=9 note=56 velocity=127 time=0
EXTRACT: note_on channel=9 note=42 velocity=127 time=0
EXTRACT: note_on channel=9 note=46 velocity=0 time=0.1319443125
EXTRACT: note_on channel=9 note=54 velocity=0 time=0
EXTRACT: note_on channel=9 note=56 velocity=0 time=0
EXTRACT: note_on channel=9 note=54 velocity=127 time=0.0069444375
EXTRACT: note_on channel=9 note=56 velocity=127 time=0
EXTRACT: note_on channel=9 note=54 velocity=0 time=0.1319443125
EXTRACT: note_on channel=9 note=56 velocity=0 time=0
EXTRACT: note_on channel=9 note=42 velocity=0 time=0
EXTRACT: note_on channel=10 note=70 velocity=0 time=0
EXTRACT: note_on channel=11 note=62 velocity=0 time=0
EXTRACT: note_on channel=11 note=65 velocity=0 time=0
EXTRACT: note_on channel=11 note=70 velocity=0 time=0
EXTRACT: note_on channel=13 note=62 velocity=0 time=0
EXTRACT: note_on channel=13 note=65 velocity=0 time=0
EXTRACT: note_on channel=13 note=70 velocity=0 time=0
EXTRACT: note_on channel=10 note=70 velocity=0 time=0
EXTRACT: note_on channel=10 note=70 velocity=0 time=0
EXTRACT: note_on channel=9 note=56 velocity=127 time=0.0069444375
EXTRACT: note_on channel=9 note=42 velocity=127 time=0
EXTRACT: note_on channel=10 note=68 velocity=127 time=0
EXTRACT: note_on channel=11 note=68 velocity=127 time=0
EXTRACT: note_on channel=13 note=68 velocity=127 time=0
EXTRACT: note_on channel=10 note=68 velocity=127 time=0
EXTRACT: note_on channel=10 note=68 velocity=127 time=0
EXTRACT: note_on channel=9 note=56 velocity=0 time=0.1319443125
EXTRACT: note_on channel=9 note=42 velocity=0 time=0
EXTRACT: note_on channel=9 note=46 velocity=127 time=0.0069444375
EXTRACT: note_on channel=9 note=54 velocity=127 time=0
EXTRACT: note_on channel=9 note=56 velocity=127 time=0
EXTRACT: note_on channel=9 note=39 velocity=127 time=0
EXTRACT: note_on channel=9 note=42 velocity=127 time=0
EXTRACT: note_on channel=9 note=46 velocity=0 time=0.1319443125
EXTRACT: note_on channel=9 note=54 velocity=0 time=0
EXTRACT: note_on channel=9 note=56 velocity=0 time=0
EXTRACT: note_on channel=9 note=39 velocity=0 time=0
EXTRACT: note_on channel=9 note=42 velocity=0 time=0
EXTRACT: note_on channel=9 note=54 velocity=127 time=0.0069444375
EXTRACT: note_on channel=9 note=42 velocity=127 time=0
EXTRACT: note_on channel=12 note=46 velocity=0 time=0.04629625
EXTRACT: note_on channel=14 note=46 velocity=0 time=0
EXTRACT: note_on channel=9 note=54 velocity=0 time=0.0856480625
EXTRACT: note_on channel=9 note=42 velocity=0 time=0
EXTRACT: note_on channel=10 note=68 velocity=0 time=0
EXTRACT: note_on channel=11 note=68 velocity=0 time=0
EXTRACT: note_on channel=13 note=68 velocity=0 time=0
EXTRACT: note_on channel=10 note=68 velocity=0 time=0
EXTRACT: note_on channel=10 note=68 velocity=0 time=0
EXTRACT: note_on channel=9 note=54 velocity=127 time=0.0069444375
EXTRACT: note_on channel=9 note=56 velocity=127 time=0
EXTRACT: note_on channel=9 note=36 velocity=127 time=0
EXTRACT: note_on channel=9 note=42 velocity=127 time=0
EXTRACT: note_on channel=10 note=67 velocity=127 time=0
EXTRACT: note_on channel=11 note=58 velocity=127 time=0
EXTRACT: note_on channel=11 note=63 velocity=127 time=0
EXTRACT: note_on channel=11 note=67 velocity=127 time=0
EXTRACT: note_on channel=12 note=38 velocity=127 time=0
EXTRACT: note_on channel=13 note=58 velocity=127 time=0
EXTRACT: note_on channel=13 note=63 velocity=127 time=0
EXTRACT: note_on channel=13 note=67 velocity=127 time=0
EXTRACT: note_on channel=14 note=38 velocity=127 time=0
EXTRACT: note_on channel=10 note=67 velocity=127 time=0
EXTRACT: note_on channel=10 note=67 velocity=127 time=0
EXTRACT: note_on channel=9 note=54 velocity=0 time=0.1319443125
EXTRACT: note_on channel=9 note=56 velocity=0 time=0
EXTRACT: note_on channel=9 note=36 velocity=0 time=0
EXTRACT: note_on channel=9 note=42 velocity=0 time=0
EXTRACT: note_on channel=9 note=54 velocity=127 time=0.0069444375
EXTRACT: note_on channel=9 note=42 velocity=127 time=0
EXTRACT: note_on channel=9 note=54 velocity=0 time=0.1319443125
EXTRACT: note_on channel=9 note=42 velocity=0 time=0
EXTRACT: note_on channel=12 note=38 velocity=0 time=0
EXTRACT: note_on channel=14 note=38 velocity=0 time=0
EXTRACT: note_on channel=9 note=46 velocity=127 time=0.0069444375
EXTRACT: note_on channel=9 note=54 velocity=127 time=0
EXTRACT: note_on channel=9 note=56 velocity=127 time=0
EXTRACT: note_on channel=9 note=42 velocity=127 time=0
EXTRACT: note_on channel=12 note=39 velocity=127 time=0
EXTRACT: note_on channel=14 note=39 velocity=127 time=0
EXTRACT: note_on channel=9 note=46 velocity=0 time=0.1319443125
EXTRACT: note_on channel=9 note=54 velocity=0 time=0
EXTRACT: note_on channel=9 note=56 velocity=0 time=0
EXTRACT: note_on channel=9 note=42 velocity=0 time=0
EXTRACT: note_on channel=11 note=67 velocity=0 time=0
EXTRACT: note_on channel=13 note=67 velocity=0 time=0
EXTRACT: note_on channel=9 note=54 velocity=127 time=0.0069444375
EXTRACT: note_on channel=9 note=36 velocity=127 time=0
EXTRACT: note_on channel=10 note=67 velocity=0 time=0
EXTRACT: note_on channel=10 note=65 velocity=127 time=0
EXTRACT: note_on channel=11 note=65 velocity=127 time=0
EXTRACT: note_on channel=13 note=65 velocity=127 time=0
EXTRACT: note_on channel=10 note=67 velocity=0 time=0
EXTRACT: note_on channel=10 note=65 velocity=127 time=0
EXTRACT: note_on channel=10 note=67 velocity=0 time=0
EXTRACT: note_on channel=10 note=65 velocity=127 time=0
EXTRACT: note_on channel=9 note=54 velocity=0 time=0.1319443125
EXTRACT: note_on channel=9 note=36 velocity=0 time=0
EXTRACT: note_on channel=11 note=58 velocity=0 time=0
EXTRACT: note_on channel=11 note=63 velocity=0 time=0
EXTRACT: note_on channel=11 note=65 velocity=0 time=0
EXTRACT: note_on channel=12 note=39 velocity=0 time=0
EXTRACT: note_on channel=13 note=58 velocity=0 time=0
EXTRACT: note_on channel=13 note=63 velocity=0 time=0
EXTRACT: note_on channel=13 note=65 velocity=0 time=0
EXTRACT: note_on channel=14 note=39 velocity=0 time=0
EXTRACT: note_on channel=9 note=46 velocity=127 time=0.0069444375
EXTRACT: note_on channel=9 note=54 velocity=127 time=0
EXTRACT: note_on channel=9 note=56 velocity=127 time=0
EXTRACT: note_on channel=9 note=36 velocity=127 time=0
EXTRACT: note_on channel=9 note=42 velocity=127 time=0
EXTRACT: note_on channel=10 note=65 velocity=0 time=0
EXTRACT: note_on channel=10 note=63 velocity=127 time=0
EXTRACT: note_on channel=11 note=63 velocity=127 time=0
EXTRACT: note_on channel=12 note=39 velocity=127 time=0
EXTRACT: note_on channel=13 note=63 velocity=127 time=0
EXTRACT: note_on channel=14 note=39 velocity=127 time=0
EXTRACT: note_on channel=10 note=65 velocity=0 time=0
EXTRACT: note_on channel=10 note=63 velocity=127 time=0
EXTRACT: note_on channel=10 note=65 velocity=0 time=0
EXTRACT: note_on channel=10 note=63 velocity=127 time=0
EXTRACT: note_on channel=9 note=46 velocity=0 time=0.1319443125
EXTRACT: note_on channel=9 note=54 velocity=0 time=0
EXTRACT: note_on channel=9 note=56 velocity=0 time=0
EXTRACT: note_on channel=9 note=36 velocity=0 time=0
EXTRACT: note_on channel=9 note=42 velocity=0 time=0
EXTRACT: note_on channel=9 note=54 velocity=127 time=0.0069444375
EXTRACT: note_on channel=9 note=36 velocity=127 time=0
EXTRACT: note_on channel=9 note=42 velocity=127 time=0
EXTRACT: note_on channel=9 note=54 velocity=0 time=0.1319443125
EXTRACT: note_on channel=9 note=36 velocity=0 time=0
EXTRACT: note_on channel=9 note=42 velocity=0 time=0
EXTRACT: note_on channel=10 note=63 velocity=0 time=0
EXTRACT: note_on channel=11 note=63 velocity=0 time=0
EXTRACT: note_on channel=12 note=39 velocity=0 time=0
EXTRACT: note_on channel=13 note=63 velocity=0 time=0
EXTRACT: note_on channel=14 note=39 velocity=0 time=0
EXTRACT: note_on channel=10 note=63 velocity=0 time=0
EXTRACT: note_on channel=10 note=63 velocity=0 time=0
EXTRACT: note_on channel=9 note=54 velocity=127 time=0.0069444375
EXTRACT: note_on channel=9 note=56 velocity=127 time=0
EXTRACT: note_on channel=9 note=39 velocity=127 time=0
EXTRACT: note_on channel=11 note=58 velocity=127 time=0
EXTRACT: note_on channel=11 note=65 velocity=127 time=0
EXTRACT: note_on channel=12 note=38 velocity=127 time=0
EXTRACT: note_on channel=13 note=58 velocity=127 time=0
EXTRACT: note_on channel=13 note=65 velocity=127 time=0
EXTRACT: note_on channel=14 note=38 velocity=127 time=0
EXTRACT: note_on channel=9 note=39 velocity=0 time=0.1319443125
EXTRACT: note_on channel=9 note=42 velocity=127 time=0.0069444375
EXTRACT: note_on channel=9 note=54 velocity=0 time=0.1319443125
EXTRACT: note_on channel=9 note=56 velocity=0 time=0
EXTRACT: note_on channel=9 note=42 velocity=0 time=0
EXTRACT: note_on channel=9 note=54 velocity=127 time=0.0069444375
EXTRACT: note_on channel=9 note=36 velocity=127 time=0
EXTRACT: note_on channel=9 note=42 velocity=127 time=0
EXTRACT: note_on channel=9 note=54 velocity=0 time=0.1319443125
EXTRACT: note_on channel=9 note=36 velocity=0 time=0
EXTRACT: note_on channel=9 note=42 velocity=0 time=0
EXTRACT: note_on channel=9 note=54 velocity=127 time=0.0069444375
EXTRACT: note_on channel=9 note=56 velocity=127 time=0
EXTRACT: note_on channel=9 note=42 velocity=127 time=0
EXTRACT: note_on channel=11 note=58 velocity=0 time=0.04629625
EXTRACT: note_on channel=11 note=65 velocity=0 time=0
EXTRACT: note_on channel=12 note=38 velocity=0 time=0
EXTRACT: note_on channel=13 note=58 velocity=0 time=0
EXTRACT: note_on channel=13 note=65 velocity=0 time=0
EXTRACT: note_on channel=14 note=38 velocity=0 time=0
EXTRACT: note_on channel=9 note=54 velocity=0 time=0.0856480625
EXTRACT: note_on channel=9 note=56 velocity=0 time=0
EXTRACT: note_on channel=9 note=42 velocity=0 time=0
EXTRACT: note_on channel=9 note=54 velocity=127 time=0.0069444375
EXTRACT: note_on channel=9 note=36 velocity=127 time=0
EXTRACT: note_on channel=10 note=67 velocity=127 time=0
EXTRACT: note_on channel=11 note=60 velocity=127 time=0
EXTRACT: note_on channel=11 note=63 velocity=127 time=0
EXTRACT: note_on channel=11 note=67 velocity=127 time=0
EXTRACT: note_on channel=12 note=36 velocity=127 time=0
EXTRACT: note_on channel=13 note=60 velocity=127 time=0
EXTRACT: note_on channel=13 note=63 velocity=127 time=0
EXTRACT: note_on channel=13 note=67 velocity=127 time=0
EXTRACT: note_on channel=14 note=36 velocity=127 time=0
EXTRACT: note_on channel=10 note=67 velocity=127 time=0
EXTRACT: note_on channel=10 note=67 velocity=127 time=0
EXTRACT: note_on channel=9 note=54 velocity=0 time=0.1319443125
EXTRACT: note_on channel=9 note=36 velocity=0 time=0
EXTRACT: note_on channel=9 note=46 velocity=127 time=0.0069444375
EXTRACT: note_on channel=9 note=54 velocity=127 time=0
EXTRACT: note_on channel=9 note=56 velocity=127 time=0
EXTRACT: note_on channel=9 note=42 velocity=127 time=0
EXTRACT: note_on channel=9 note=46 velocity=0 time=0.1319443125
EXTRACT: note_on channel=9 note=54 velocity=0 time=0
EXTRACT: note_on channel=9 note=56 velocity=0 time=0
EXTRACT: note_on channel=10 note=67 velocity=0 time=0
EXTRACT: note_on channel=11 note=60 velocity=0 time=0
EXTRACT: note_on channel=11 note=63 velocity=0 time=0
EXTRACT: note_on channel=11 note=67 velocity=0 time=0
EXTRACT: note_on channel=13 note=60 velocity=0 time=0
EXTRACT: note_on channel=13 note=63 velocity=0 time=0
EXTRACT: note_on channel=13 note=67 velocity=0 time=0
EXTRACT: note_on channel=10 note=67 velocity=0 time=0
EXTRACT: note_on channel=10 note=67 velocity=0 time=0
EXTRACT: note_on channel=9 note=54 velocity=127 time=0.0069444375
EXTRACT: note_on channel=9 note=56 velocity=127 time=0
EXTRACT: note_on channel=10 note=68 velocity=127 time=0
EXTRACT: note_on channel=11 note=68 velocity=127 time=0
EXTRACT: note_on channel=13 note=68 velocity=127 time=0
EXTRACT: note_on channel=10 note=68 velocity=127 time=0
EXTRACT: note_on channel=10 note=68 velocity=127 time=0
EXTRACT: note_on channel=9 note=54 velocity=0 time=0.1319443125
EXTRACT: note_on channel=9 note=56 velocity=0 time=0
EXTRACT: note_on channel=9 note=42 velocity=0 time=0
EXTRACT: note_on channel=9 note=56 velocity=127 time=0.0069444375
EXTRACT: note_on channel=9 note=42 velocity=127 time=0
EXTRACT: note_on channel=12 note=36 velocity=0 time=0.04629625
EXTRACT: note_on channel=14 note=36 velocity=0 time=0
EXTRACT: note_on channel=9 note=56 velocity=0 time=0.0856480625
EXTRACT: note_on channel=9 note=42 velocity=0 time=0
EXTRACT: note_on channel=10 note=68 velocity=0 time=0
EXTRACT: note_on channel=11 note=68 velocity=0 time=0
EXTRACT: note_on channel=13 note=68 velocity=0 time=0
EXTRACT: note_on channel=10 note=68 velocity=0 time=0
EXTRACT: note_on channel=10 note=68 velocity=0 time=0
EXTRACT: note_on channel=9 note=46 velocity=127 time=0.0069444375
EXTRACT: note_on channel=9 note=54 velocity=127 time=0
EXTRACT: note_on channel=9 note=56 velocity=127 time=0
EXTRACT: note_on channel=9 note=39 velocity=127 time=0
EXTRACT: note_on channel=9 note=42 velocity=127 time=0
EXTRACT: note_on channel=10 note=67 velocity=127 time=0
EXTRACT: note_on channel=11 note=67 velocity=127 time=0
EXTRACT: note_on channel=12 note=36 velocity=127 time=0
EXTRACT: note_on channel=13 note=67 velocity=127 time=0
EXTRACT: note_on channel=14 note=36 velocity=127 time=0
EXTRACT: note_on channel=10 note=67 velocity=127 time=0
EXTRACT: note_on channel=10 note=67 velocity=127 time=0
EXTRACT: note_on channel=9 note=46 velocity=0 time=0.1319443125
EXTRACT: note_on channel=9 note=54 velocity=0 time=0
EXTRACT: note_on channel=9 note=56 velocity=0 time=0
EXTRACT: note_on channel=9 note=39 velocity=0 time=0
EXTRACT: note_on channel=9 note=42 velocity=0 time=0
EXTRACT: note_on channel=9 note=54 velocity=127 time=0.0069444375
EXTRACT: note_on channel=9 note=42 velocity=127 time=0
EXTRACT: note_on channel=9 note=54 velocity=0 time=0.1319443125
EXTRACT: note_on channel=9 note=42 velocity=0 time=0
EXTRACT: note_on channel=10 note=67 velocity=0 time=0
EXTRACT: note_on channel=11 note=67 velocity=0 time=0
EXTRACT: note_on channel=12 note=36 velocity=0 time=0
EXTRACT: note_on channel=13 note=67 velocity=0 time=0
EXTRACT: note_on channel=14 note=36 velocity=0 time=0
EXTRACT: note_on channel=10 note=67 velocity=0 time=0
EXTRACT: note_on channel=10 note=67 velocity=0 time=0
EXTRACT: note_on channel=9 note=54 velocity=127 time=0.0069444375
EXTRACT: note_on channel=9 note=56 velocity=127 time=0
EXTRACT: note_on channel=9 note=36 velocity=127 time=0
EXTRACT: note_on channel=9 note=42 velocity=127 time=0
EXTRACT: note_on channel=10 note=68 velocity=127 time=0
EXTRACT: note_on channel=11 note=60 velocity=127 time=0
EXTRACT: note_on channel=11 note=63 velocity=127 time=0
EXTRACT: note_on channel=11 note=68 velocity=127 time=0
EXTRACT: note_on channel=12 note=43 velocity=127 time=0
EXTRACT: note_on channel=13 note=60 velocity=127 time=0
EXTRACT: note_on channel=13 note=63 velocity=127 time=0
EXTRACT: note_on channel=13 note=68 velocity=127 time=0
EXTRACT: note_on channel=14 note=43 velocity=127 time=0
EXTRACT: note_on channel=10 note=68 velocity=127 time=0
EXTRACT: note_on channel=10 note=68 velocity=127 time=0
EXTRACT: note_on channel=9 note=54 velocity=0 time=0.1319443125
EXTRACT: note_on channel=9 note=56 velocity=0 time=0
EXTRACT: note_on channel=9 note=36 velocity=0 time=0
EXTRACT: note_on channel=9 note=42 velocity=0 time=0
EXTRACT: note_on channel=9 note=54 velocity=127 time=0.0069444375
EXTRACT: note_on channel=9 note=42 velocity=127 time=0
EXTRACT: note_on channel=9 note=54 velocity=0 time=0.1319443125
EXTRACT: note_on channel=9 note=42 velocity=0 time=0
EXTRACT: note_on channel=10 note=68 velocity=0 time=0
EXTRACT: note_on channel=11 note=60 velocity=0 time=0
EXTRACT: note_on channel=11 note=63 velocity=0 time=0
EXTRACT: note_on channel=11 note=68 velocity=0 time=0
EXTRACT: note_on channel=12 note=43 velocity=0 time=0
EXTRACT: note_on channel=13 note=60 velocity=0 time=0
EXTRACT: note_on channel=13 note=63 velocity=0 time=0
EXTRACT: note_on channel=13 note=68 velocity=0 time=0
EXTRACT: note_on channel=14 note=43 velocity=0 time=0
EXTRACT: note_on channel=10 note=68 velocity=0 time=0
EXTRACT: note_on channel=10 note=68 velocity=0 time=0
EXTRACT: note_on channel=9 note=46 velocity=127 time=0.0069444375
EXTRACT: note_on channel=9 note=54 velocity=127 time=0
EXTRACT: note_on channel=9 note=56 velocity=127 time=0
EXTRACT: note_on channel=9 note=42 velocity=127 time=0
EXTRACT: note_on channel=10 note=67 velocity=127 time=0
EXTRACT: note_on channel=11 note=67 velocity=127 time=0
EXTRACT: note_on channel=12 note=44 velocity=127 time=0
EXTRACT: note_on channel=13 note=67 velocity=127 time=0
EXTRACT: note_on channel=14 note=44 velocity=127 time=0
EXTRACT: note_on channel=10 note=67 velocity=127 time=0
EXTRACT: note_on channel=10 note=67 velocity=127 time=0
EXTRACT: note_on channel=9 note=46 velocity=0 time=0.1319443125
EXTRACT: note_on channel=9 note=54 velocity=0 time=0
EXTRACT: note_on channel=9 note=56 velocity=0 time=0
EXTRACT: note_on channel=9 note=42 velocity=0 time=0
EXTRACT: note_on channel=9 note=54 velocity=127 time=0.0069444375
EXTRACT: note_on channel=9 note=36 velocity=127 time=0
EXTRACT: note_on channel=9 note=54 velocity=0 time=0.1319443125
EXTRACT: note_on channel=9 note=36 velocity=0 time=0
EXTRACT: note_on channel=10 note=67 velocity=0 time=0
EXTRACT: note_on channel=11 note=67 velocity=0 time=0
EXTRACT: note_on channel=12 note=44 velocity=0 time=0
EXTRACT: note_on channel=13 note=67 velocity=0 time=0
EXTRACT: note_on channel=14 note=44 velocity=0 time=0
EXTRACT: note_on channel=10 note=67 velocity=0 time=0
EXTRACT: note_on channel=10 note=67 velocity=0 time=0
EXTRACT: note_on channel=9 note=46 velocity=127 time=0.0069444375
EXTRACT: note_on channel=9 note=54 velocity=127 time=0
EXTRACT: note_on channel=9 note=56 velocity=127 time=0
EXTRACT: note_on channel=9 note=36 velocity=127 time=0
EXTRACT: note_on channel=9 note=42 velocity=127 time=0
EXTRACT: note_on channel=10 note=65 velocity=127 time=0
EXTRACT: note_on channel=11 note=65 velocity=127 time=0
EXTRACT: note_on channel=12 note=44 velocity=127 time=0
EXTRACT: note_on channel=13 note=65 velocity=127 time=0
EXTRACT: note_on channel=14 note=44 velocity=127 time=0
EXTRACT: note_on channel=10 note=65 velocity=127 time=0
EXTRACT: note_on channel=10 note=65 velocity=127 time=0
EXTRACT: note_on channel=9 note=46 velocity=0 time=0.1319443125
EXTRACT: note_on channel=9 note=54 velocity=0 time=0
EXTRACT: note_on channel=9 note=56 velocity=0 time=0
EXTRACT: note_on channel=9 note=36 velocity=0 time=0
EXTRACT: note_on channel=9 note=42 velocity=0 time=0
EXTRACT: note_on channel=9 note=54 velocity=127 time=0.0069444375
EXTRACT: note_on channel=9 note=36 velocity=127 time=0
EXTRACT: note_on channel=9 note=42 velocity=127 time=0
EXTRACT: note_on channel=9 note=54 velocity=0 time=0.1319443125
EXTRACT: note_on channel=9 note=36 velocity=0 time=0
EXTRACT: note_on channel=9 note=42 velocity=0 time=0
EXTRACT: note_on channel=10 note=65 velocity=0 time=0
EXTRACT: note_on channel=11 note=65 velocity=0 time=0
EXTRACT: note_on channel=13 note=65 velocity=0 time=0
EXTRACT: note_on channel=10 note=65 velocity=0 time=0
EXTRACT: note_on channel=10 note=65 velocity=0 time=0
EXTRACT: note_on channel=9 note=54 velocity=127 time=0.0069444375
EXTRACT: note_on channel=9 note=56 velocity=127 time=0
EXTRACT: note_on channel=9 note=39 velocity=127 time=0
EXTRACT: note_on channel=10 note=63 velocity=127 time=0
EXTRACT: note_on channel=11 note=63 velocity=127 time=0
EXTRACT: note_on channel=13 note=63 velocity=127 time=0
EXTRACT: note_on channel=10 note=63 velocity=127 time=0
EXTRACT: note_on channel=10 note=63 velocity=127 time=0
EXTRACT: note_on channel=9 note=39 velocity=0 time=0.1319443125
EXTRACT: note_on channel=9 note=42 velocity=127 time=0.0069444375
EXTRACT: note_on channel=12 note=44 velocity=0 time=0.04629625
EXTRACT: note_on channel=14 note=44 velocity=0 time=0
EXTRACT: note_on channel=9 note=54 velocity=0 time=0.0856480625
EXTRACT: note_on channel=9 note=56 velocity=0 time=0
EXTRACT: note_on channel=9 note=42 velocity=0 time=0
EXTRACT: note_on channel=10 note=63 velocity=0 time=0
EXTRACT: note_on channel=11 note=63 velocity=0 time=0
EXTRACT: note_on channel=13 note=63 velocity=0 time=0
EXTRACT: note_on channel=10 note=63 velocity=0 time=0
EXTRACT: note_on channel=10 note=63 velocity=0 time=0
EXTRACT: note_on channel=9 note=54 velocity=127 time=0.0069444375
EXTRACT: note_on channel=9 note=36 velocity=127 time=0
EXTRACT: note_on channel=9 note=42 velocity=127 time=0
EXTRACT: note_on channel=10 note=60 velocity=127 time=0
EXTRACT: note_on channel=11 note=60 velocity=127 time=0
EXTRACT: note_on channel=12 note=44 velocity=127 time=0
EXTRACT: note_on channel=13 note=60 velocity=127 time=0
EXTRACT: note_on channel=14 note=44 velocity=127 time=0
EXTRACT: note_on channel=10 note=60 velocity=127 time=0
EXTRACT: note_on channel=10 note=60 velocity=127 time=0
EXTRACT: note_on channel=9 note=54 velocity=0 time=0.1319443125
EXTRACT: note_on channel=9 note=36 velocity=0 time=0
EXTRACT: note_on channel=9 note=42 velocity=0 time=0
EXTRACT: note_on channel=9 note=54 velocity=127 time=0.0069444375
EXTRACT: note_on channel=9 note=56 velocity=127 time=0
EXTRACT: note_on channel=9 note=42 velocity=127 time=0
EXTRACT: note_on channel=9 note=54 velocity=0 time=0.1319443125
EXTRACT: note_on channel=9 note=56 velocity=0 time=0
EXTRACT: note_on channel=9 note=42 velocity=0 time=0
EXTRACT: note_on channel=10 note=60 velocity=0 time=0
EXTRACT: note_on channel=11 note=60 velocity=0 time=0
EXTRACT: note_on channel=12 note=44 velocity=0 time=0
EXTRACT: note_on channel=13 note=60 velocity=0 time=0
EXTRACT: note_on channel=14 note=44 velocity=0 time=0
EXTRACT: note_on channel=10 note=60 velocity=0 time=0
EXTRACT: note_on channel=10 note=60 velocity=0 time=0
EXTRACT: note_on channel=9 note=54 velocity=127 time=0.0069444375
EXTRACT: note_on channel=9 note=36 velocity=127 time=0
EXTRACT: note_on channel=10 note=59 velocity=127 time=0
EXTRACT: note_on channel=11 note=55 velocity=127 time=0
EXTRACT: note_on channel=11 note=59 velocity=127 time=0
EXTRACT: note_on channel=12 note=43 velocity=127 time=0
EXTRACT: note_on channel=13 note=55 velocity=127 time=0
EXTRACT: note_on channel=13 note=59 velocity=127 time=0
EXTRACT: note_on channel=14 note=43 velocity=127 time=0
EXTRACT: note_on channel=10 note=59 velocity=127 time=0
EXTRACT: note_on channel=10 note=59 velocity=127 time=0
EXTRACT: note_on channel=9 note=54 velocity=0 time=0.1319443125
EXTRACT: note_on channel=9 note=36 velocity=0 time=0
EXTRACT: note_on channel=9 note=46 velocity=127 time=0.0069444375
EXTRACT: note_on channel=9 note=54 velocity=127 time=0
EXTRACT: note_on channel=9 note=56 velocity=127 time=0
EXTRACT: note_on channel=9 note=42 velocity=127 time=0
EXTRACT: note_on channel=9 note=46 velocity=0 time=0.1319443125
EXTRACT: note_on channel=9 note=54 velocity=0 time=0
EXTRACT: note_on channel=9 note=56 velocity=0 time=0
EXTRACT: note_on channel=9 note=54 velocity=127 time=0.0069444375
EXTRACT: note_on channel=9 note=56 velocity=127 time=0
EXTRACT: note_on channel=9 note=54 velocity=0 time=0.1319443125
EXTRACT: note_on channel=9 note=56 velocity=0 time=0
EXTRACT: note_on channel=9 note=42 velocity=0 time=0
EXTRACT: note_on channel=10 note=59 velocity=0 time=0
EXTRACT: note_on channel=11 note=55 velocity=0 time=0
EXTRACT: note_on channel=11 note=59 velocity=0 time=0
EXTRACT: note_on channel=13 note=55 velocity=0 time=0
EXTRACT: note_on channel=13 note=59 velocity=0 time=0
EXTRACT: note_on channel=10 note=59 velocity=0 time=0
EXTRACT: note_on channel=10 note=59 velocity=0 time=0
EXTRACT: note_on channel=9 note=56 velocity=127 time=0.0069444375
EXTRACT: note_on channel=9 note=42 velocity=127 time=0
EXTRACT: note_on channel=10 note=62 velocity=127 time=0
EXTRACT: note_on channel=11 note=55 velocity=127 time=0
EXTRACT: note_on channel=11 note=59 velocity=127 time=0
EXTRACT: note_on channel=11 note=62 velocity=127 time=0
EXTRACT: note_on channel=13 note=55 velocity=127 time=0
EXTRACT: note_on channel=13 note=59 velocity=127 time=0
EXTRACT: note_on channel=13 note=62 velocity=127 time=0
EXTRACT: note_on channel=10 note=62 velocity=127 time=0
EXTRACT: note_on channel=10 note=62 velocity=127 time=0
EXTRACT: note_on channel=12 note=43 velocity=0 time=0.04629625
EXTRACT: note_on channel=14 note=43 velocity=0 time=0
EXTRACT: note_on channel=9 note=56 velocity=0 time=0.0856480625
EXTRACT: note_on channel=9 note=42 velocity=0 time=0
EXTRACT: note_on channel=9 note=46 velocity=127 time=0.0069444375
EXTRACT: note_on channel=9 note=54 velocity=127 time=0
EXTRACT: note_on channel=9 note=56 velocity=127 time=0
EXTRACT: note_on channel=9 note=39 velocity=127 time=0
EXTRACT: note_on channel=9 note=42 velocity=127 time=0
EXTRACT: note_on channel=12 note=43 velocity=127 time=0
EXTRACT: note_on channel=14 note=43 velocity=127 time=0
EXTRACT: note_on channel=9 note=46 velocity=0 time=0.1319443125
EXTRACT: note_on channel=9 note=54 velocity=0 time=0
EXTRACT: note_on channel=9 note=56 velocity=0 time=0
EXTRACT: note_on channel=9 note=39 velocity=0 time=0
EXTRACT: note_on channel=9 note=42 velocity=0 time=0
EXTRACT: note_on channel=9 note=54 velocity=127 time=0.0069444375
EXTRACT: note_on channel=9 note=42 velocity=127 time=0
EXTRACT: note_on channel=9 note=54 velocity=0 time=0.1319443125
EXTRACT: note_on channel=9 note=42 velocity=0 time=0
EXTRACT: note_on channel=10 note=62 velocity=0 time=0
EXTRACT: note_on channel=11 note=55 velocity=0 time=0
EXTRACT: note_on channel=11 note=59 velocity=0 time=0
EXTRACT: note_on channel=11 note=62 velocity=0 time=0
EXTRACT: note_on channel=12 note=43 velocity=0 time=0
EXTRACT: note_on channel=13 note=55 velocity=0 time=0
EXTRACT: note_on channel=13 note=59 velocity=0 time=0
EXTRACT: note_on channel=13 note=62 velocity=0 time=0
EXTRACT: note_on channel=14 note=43 velocity=0 time=0
EXTRACT: note_on channel=10 note=62 velocity=0 time=0
EXTRACT: note_on channel=10 note=62 velocity=0 time=0
EXTRACT: note_on channel=9 note=54 velocity=127 time=0.0069444375
EXTRACT: note_on channel=9 note=56 velocity=127 time=0
EXTRACT: note_on channel=9 note=36 velocity=127 time=0
EXTRACT: note_on channel=9 note=42 velocity=127 time=0
EXTRACT: note_on channel=10 note=60 velocity=127 time=0
EXTRACT: note_on channel=11 note=51 velocity=127 time=0
EXTRACT: note_on channel=11 note=55 velocity=127 time=0
EXTRACT: note_on channel=11 note=60 velocity=127 time=0
EXTRACT: note_on channel=12 note=47 velocity=127 time=0
EXTRACT: note_on channel=13 note=51 velocity=127 time=0
EXTRACT: note_on channel=13 note=55 velocity=127 time=0
EXTRACT: note_on channel=13 note=60 velocity=127 time=0
EXTRACT: note_on channel=14 note=47 velocity=127 time=0
EXTRACT: note_on channel=10 note=60 velocity=127 time=0
EXTRACT: note_on channel=10 note=60 velocity=127 time=0
EXTRACT: note_on channel=9 note=54 velocity=0 time=0.1319443125
EXTRACT: note_on channel=9 note=56 velocity=0 time=0
EXTRACT: note_on channel=9 note=36 velocity=0 time=0
EXTRACT: note_on channel=9 note=42 velocity=0 time=0
EXTRACT: note_on channel=9 note=54 velocity=127 time=0.0069444375
EXTRACT: note_on channel=9 note=42 velocity=127 time=0
EXTRACT: note_on channel=9 note=54 velocity=0 time=0.1319443125
EXTRACT: note_on channel=9 note=42 velocity=0 time=0
EXTRACT: note_on channel=12 note=47 velocity=0 time=0
EXTRACT: note_on channel=14 note=47 velocity=0 time=0
EXTRACT: note_on channel=9 note=54 velocity=127 time=0.0069444375
EXTRACT: note_on channel=9 note=42 velocity=127 time=0
EXTRACT: note_on channel=12 note=48 velocity=127 time=0
EXTRACT: note_on channel=14 note=48 velocity=127 time=0
EXTRACT: note_on channel=9 note=54 velocity=0 time=0.1319443125
EXTRACT: note_on channel=9 note=42 velocity=0 time=0
EXTRACT: note_on channel=9 note=46 velocity=127 time=0.0069444375
EXTRACT: note_on channel=9 note=54 velocity=127 time=0
EXTRACT: note_on channel=9 note=56 velocity=127 time=0
EXTRACT: note_on channel=9 note=36 velocity=127 time=0
EXTRACT: note_on channel=9 note=46 velocity=0 time=0.1319443125
EXTRACT: note_on channel=9 note=54 velocity=0 time=0
EXTRACT: note_on channel=9 note=56 velocity=0 time=0
EXTRACT: note_on channel=9 note=36 velocity=0 time=0
EXTRACT: note_on channel=12 note=48 velocity=0 time=0
EXTRACT: note_on channel=14 note=48 velocity=0 time=0
EXTRACT: note_on channel=9 note=54 velocity=127 time=0.0069444375
EXTRACT: note_on channel=9 note=56 velocity=127 time=0
EXTRACT: note_on channel=9 note=36 velocity=127 time=0
EXTRACT: note_on channel=9 note=42 velocity=127 time=0
EXTRACT: note_on channel=12 note=48 velocity=127 time=0
EXTRACT: note_on channel=14 note=48 velocity=127 time=0
EXTRACT: note_on channel=9 note=54 velocity=0 time=0.1319443125
EXTRACT: note_on channel=9 note=56 velocity=0 time=0
EXTRACT: note_on channel=9 note=36 velocity=0 time=0
EXTRACT: note_on channel=9 note=42 velocity=0 time=0
EXTRACT: note_on channel=9 note=56 velocity=127 time=0.0069444375
EXTRACT: note_on channel=9 note=36 velocity=127 time=0
EXTRACT: note_on channel=9 note=42 velocity=127 time=0
EXTRACT: note_on channel=10 note=60 velocity=0 time=0.04629625
EXTRACT: note_on channel=10 note=60 velocity=0 time=0
EXTRACT: note_on channel=10 note=60 velocity=0 time=0
EXTRACT: note_on channel=9 note=56 velocity=0 time=0.0856480625
EXTRACT: note_on channel=9 note=36 velocity=0 time=0
EXTRACT: note_on channel=9 note=42 velocity=0 time=0
EXTRACT: note_on channel=9 note=46 velocity=127 time=0.0069444375
EXTRACT: note_on channel=9 note=54 velocity=127 time=0
EXTRACT: note_on channel=9 note=56 velocity=127 time=0
EXTRACT: note_on channel=9 note=39 velocity=127 time=0
EXTRACT: note_on channel=9 note=46 velocity=0 time=0.1319443125
EXTRACT: note_on channel=9 note=54 velocity=0 time=0
EXTRACT: note_on channel=9 note=56 velocity=0 time=0
EXTRACT: note_on channel=9 note=39 velocity=0 time=0
EXTRACT: note_on channel=9 note=54 velocity=127 time=0.0069444375
EXTRACT: note_on channel=9 note=42 velocity=127 time=0
EXTRACT: note_on channel=9 note=54 velocity=0 time=0.1319443125
EXTRACT: note_on channel=9 note=42 velocity=0 time=0
EXTRACT: note_on channel=9 note=54 velocity=127 time=0.0069444375
EXTRACT: note_on channel=9 note=56 velocity=127 time=0
EXTRACT: note_on channel=9 note=36 velocity=127 time=0
EXTRACT: note_on channel=9 note=42 velocity=127 time=0
EXTRACT: note_on channel=9 note=54 velocity=0 time=0.1319443125
EXTRACT: note_on channel=9 note=56 velocity=0 time=0
EXTRACT: note_on channel=9 note=36 velocity=0 time=0
EXTRACT: note_on channel=9 note=42 velocity=0 time=0
EXTRACT: note_on channel=9 note=54 velocity=127 time=0.0069444375
EXTRACT: note_on channel=9 note=42 velocity=127 time=0
EXTRACT: note_on channel=11 note=51 velocity=0 time=0
EXTRACT: note_on channel=11 note=55 velocity=0 time=0
EXTRACT: note_on channel=11 note=60 velocity=0 time=0
EXTRACT: note_on channel=13 note=51 velocity=0 time=0
EXTRACT: note_on channel=13 note=55 velocity=0 time=0
EXTRACT: note_on channel=13 note=60 velocity=0 time=0
EXTRACT: note_on channel=12 note=48 velocity=0 time=0.04629625
EXTRACT: note_on channel=14 note=48 velocity=0 time=0
EXTRACT: note_on channel=9 note=54 velocity=0 time=0.0856480625
EXTRACT: note_on channel=9 note=42 velocity=0 time=0
EXTRACT: note_on channel=10 note=67 velocity=127 time=0.0069444375
EXTRACT: note_on channel=11 note=60 velocity=127 time=0
EXTRACT: note_on channel=11 note=63 velocity=127 time=0
EXTRACT: note_on channel=11 note=67 velocity=127 time=0
EXTRACT: note_on channel=12 note=44 velocity=127 time=0
EXTRACT: note_on channel=13 note=60 velocity=127 time=0
EXTRACT: note_on channel=13 note=63 velocity=127 time=0
EXTRACT: note_on channel=13 note=67 velocity=127 time=0
EXTRACT: note_on channel=14 note=44 velocity=127 time=0
EXTRACT: note_on channel=10 note=67 velocity=127 time=0
EXTRACT: note_on channel=10 note=67 velocity=127 time=0
EXTRACT: note_on channel=10 note=67 velocity=0 time=0.2708330625
EXTRACT: note_on channel=11 note=67 velocity=0 time=0
EXTRACT: note_on channel=13 note=67 velocity=0 time=0
EXTRACT: note_on channel=10 note=67 velocity=0 time=0
EXTRACT: note_on channel=10 note=67 velocity=0 time=0
EXTRACT: note_on channel=10 note=68 velocity=127 time=0.0069444375
EXTRACT: note_on channel=11 note=68 velocity=127 time=0
EXTRACT: note_on channel=13 note=68 velocity=127 time=0
EXTRACT: note_on channel=10 note=68 velocity=127 time=0
EXTRACT: note_on channel=10 note=68 velocity=127 time=0
EXTRACT: note_on channel=10 note=68 velocity=0 time=0.2708330625
EXTRACT: note_on channel=11 note=68 velocity=0 time=0
EXTRACT: note_on channel=13 note=68 velocity=0 time=0
EXTRACT: note_on channel=10 note=68 velocity=0 time=0
EXTRACT: note_on channel=10 note=68 velocity=0 time=0
EXTRACT: note_on channel=10 note=67 velocity=127 time=0.0069444375
EXTRACT: note_on channel=11 note=67 velocity=127 time=0
EXTRACT: note_on channel=13 note=67 velocity=127 time=0
EXTRACT: note_on channel=10 note=67 velocity=127 time=0
EXTRACT: note_on channel=10 note=67 velocity=127 time=0
EXTRACT: note_on channel=10 note=67 velocity=0 time=0.2708330625
EXTRACT: note_on channel=11 note=67 velocity=0 time=0
EXTRACT: note_on channel=13 note=67 velocity=0 time=0
EXTRACT: note_on channel=10 note=67 velocity=0 time=0
EXTRACT: note_on channel=10 note=67 velocity=0 time=0
EXTRACT: note_on channel=10 note=68 velocity=127 time=0.0069444375
EXTRACT: note_on channel=11 note=68 velocity=127 time=0
EXTRACT: note_on channel=13 note=68 velocity=127 time=0
EXTRACT: note_on channel=10 note=68 velocity=127 time=0
EXTRACT: note_on channel=10 note=68 velocity=127 time=0
EXTRACT: note_on channel=11 note=60 velocity=0 time=0.13888875
EXTRACT: note_on channel=11 note=63 velocity=0 time=0
EXTRACT: note_on channel=12 note=44 velocity=0 time=0
EXTRACT: note_on channel=13 note=60 velocity=0 time=0
EXTRACT: note_on channel=13 note=63 velocity=0 time=0
EXTRACT: note_on channel=14 note=44 velocity=0 time=0
EXTRACT: note_on channel=10 note=68 velocity=0 time=0.1319443125
EXTRACT: note_on channel=11 note=68 velocity=0 time=0
EXTRACT: note_on channel=13 note=68 velocity=0 time=0
EXTRACT: note_on channel=10 note=68 velocity=0 time=0
EXTRACT: note_on channel=10 note=68 velocity=0 time=0
EXTRACT: note_on channel=10 note=67 velocity=127 time=0.0069444375
EXTRACT: note_on channel=11 note=56 velocity=127 time=0
EXTRACT: note_on channel=11 note=60 velocity=127 time=0
EXTRACT: note_on channel=11 note=67 velocity=127 time=0
EXTRACT: note_on channel=12 note=41 velocity=127 time=0
EXTRACT: note_on channel=13 note=56 velocity=127 time=0
EXTRACT: note_on channel=13 note=60 velocity=127 time=0
EXTRACT: note_on channel=13 note=67 velocity=127 time=0
EXTRACT: note_on channel=14 note=41 velocity=127 time=0
EXTRACT: note_on channel=10 note=67 velocity=127 time=0
EXTRACT: note_on channel=10 note=67 velocity=127 time=0
EXTRACT: note_on channel=10 note=67 velocity=0 time=0.2708330625
EXTRACT: note_on channel=11 note=67 velocity=0 time=0
EXTRACT: note_on channel=13 note=67 velocity=0 time=0
EXTRACT: note_on channel=10 note=67 velocity=0 time=0
EXTRACT: note_on channel=10 note=67 velocity=0 time=0
EXTRACT: note_on channel=10 note=65 velocity=127 time=0.0069444375
EXTRACT: note_on channel=11 note=65 velocity=127 time=0
EXTRACT: note_on channel=13 note=65 velocity=127 time=0
EXTRACT: note_on channel=10 note=65 velocity=127 time=0
EXTRACT: note_on channel=10 note=65 velocity=127 time=0
EXTRACT: note_on channel=11 note=56 velocity=0 time=0.185185
EXTRACT: note_on channel=11 note=60 velocity=0 time=0
EXTRACT: note_on channel=13 note=56 velocity=0 time=0
EXTRACT: note_on channel=13 note=60 velocity=0 time=0
EXTRACT: note_on channel=10 note=65 velocity=0 time=0.0856480625
EXTRACT: note_on channel=11 note=65 velocity=0 time=0
EXTRACT: note_on channel=13 note=65 velocity=0 time=0
EXTRACT: note_on channel=10 note=65 velocity=0 time=0
EXTRACT: note_on channel=10 note=65 velocity=0 time=0
EXTRACT: note_on channel=10 note=63 velocity=127 time=0.0069444375
EXTRACT: note_on channel=11 note=63 velocity=127 time=0
EXTRACT: note_on channel=13 note=63 velocity=127 time=0
EXTRACT: note_on channel=10 note=63 velocity=127 time=0
EXTRACT: note_on channel=10 note=63 velocity=127 time=0
EXTRACT: note_on channel=10 note=63 velocity=0 time=0.2708330625
EXTRACT: note_on channel=11 note=63 velocity=0 time=0
EXTRACT: note_on channel=13 note=63 velocity=0 time=0
EXTRACT: note_on channel=10 note=63 velocity=0 time=0
EXTRACT: note_on channel=10 note=63 velocity=0 time=0
EXTRACT: note_on channel=10 note=60 velocity=127 time=0.0069444375
EXTRACT: note_on channel=11 note=60 velocity=127 time=0
EXTRACT: note_on channel=13 note=60 velocity=127 time=0
EXTRACT: note_on channel=10 note=60 velocity=127 time=0
EXTRACT: note_on channel=10 note=60 velocity=127 time=0
EXTRACT: note_on channel=12 note=41 velocity=0 time=0.13888875
EXTRACT: note_on channel=14 note=41 velocity=0 time=0
EXTRACT: note_on channel=10 note=60 velocity=0 time=0.1319443125
EXTRACT: note_on channel=11 note=60 velocity=0 time=0
EXTRACT: note_on channel=13 note=60 velocity=0 time=0
EXTRACT: note_on channel=10 note=60 velocity=0 time=0
EXTRACT: note_on channel=10 note=60 velocity=0 time=0
EXTRACT: note_on channel=10 note=59 velocity=127 time=0.0069444375
EXTRACT: note_on channel=11 note=55 velocity=127 time=0
EXTRACT: note_on channel=11 note=59 velocity=127 time=0
EXTRACT: note_on channel=12 note=43 velocity=127 time=0
EXTRACT: note_on channel=13 note=55 velocity=127 time=0
EXTRACT: note_on channel=13 note=59 velocity=127 time=0
EXTRACT: note_on channel=14 note=43 velocity=127 time=0
EXTRACT: note_on channel=10 note=59 velocity=127 time=0
EXTRACT: note_on channel=10 note=59 velocity=127 time=0
EXTRACT: note_on channel=10 note=59 velocity=0 time=0.4097218125
EXTRACT: note_on channel=11 note=55 velocity=0 time=0
EXTRACT: note_on channel=11 note=59 velocity=0 time=0
EXTRACT: note_on channel=13 note=55 velocity=0 time=0
EXTRACT: note_on channel=13 note=59 velocity=0 time=0
EXTRACT: note_on channel=10 note=59 velocity=0 time=0
EXTRACT: note_on channel=10 note=59 velocity=0 time=0
EXTRACT: note_on channel=10 note=62 velocity=127 time=0.0069444375
EXTRACT: note_on channel=11 note=55 velocity=127 time=0
EXTRACT: note_on channel=11 note=59 velocity=127 time=0
EXTRACT: note_on channel=11 note=62 velocity=127 time=0
EXTRACT: note_on channel=13 note=55 velocity=127 time=0
EXTRACT: note_on channel=13 note=59 velocity=127 time=0
EXTRACT: note_on channel=13 note=62 velocity=127 time=0
EXTRACT: note_on channel=10 note=62 velocity=127 time=0
EXTRACT: note_on channel=10 note=62 velocity=127 time=0
EXTRACT: note_on channel=12 note=43 velocity=0 time=0.32407375
EXTRACT: note_on channel=14 note=43 velocity=0 time=0
EXTRACT: note_on channel=10 note=62 velocity=0 time=0.0856480625
EXTRACT: note_on channel=11 note=55 velocity=0 time=0
EXTRACT: note_on channel=11 note=59 velocity=0 time=0
EXTRACT: note_on channel=11 note=62 velocity=0 time=0
EXTRACT: note_on channel=13 note=55 velocity=0 time=0
EXTRACT: note_on channel=13 note=59 velocity=0 time=0
EXTRACT: note_on channel=13 note=62 velocity=0 time=0
EXTRACT: note_on channel=10 note=62 velocity=0 time=0
EXTRACT: note_on channel=10 note=62 velocity=0 time=0
EXTRACT: note_on channel=10 note=60 velocity=127 time=0.0069444375
EXTRACT: note_on channel=11 note=51 velocity=127 time=0
EXTRACT: note_on channel=11 note=55 velocity=127 time=0
EXTRACT: note_on channel=11 note=60 velocity=127 time=0
EXTRACT: note_on channel=12 note=48 velocity=127 time=0
EXTRACT: note_on channel=13 note=51 velocity=127 time=0
EXTRACT: note_on channel=13 note=55 velocity=127 time=0
EXTRACT: note_on channel=13 note=60 velocity=127 time=0
EXTRACT: note_on channel=14 note=48 velocity=127 time=0
EXTRACT: note_on channel=10 note=60 velocity=127 time=0
EXTRACT: note_on channel=10 note=60 velocity=127 time=0
EXTRACT: note_on channel=10 note=60 velocity=0 time=0.5486105625
EXTRACT: note_on channel=11 note=51 velocity=0 time=0
EXTRACT: note_on channel=11 note=55 velocity=0 time=0
EXTRACT: note_on channel=11 note=60 velocity=0 time=0
EXTRACT: note_on channel=12 note=48 velocity=0 time=0
EXTRACT: note_on channel=13 note=51 velocity=0 time=0
EXTRACT: note_on channel=13 note=55 velocity=0 time=0
EXTRACT: note_on channel=13 note=60 velocity=0 time=0
EXTRACT: note_on channel=14 note=48 velocity=0 time=0
EXTRACT: note_on channel=10 note=60 velocity=0 time=0
EXTRACT: note_on channel=10 note=60 velocity=0 time=0
INTERVALS35 - crazy.mid
unison0
2m0
2M0
3m0
3M0
4m0
4M0
5m0
5M0
6m0
7m0
7M0