EXTRACT: sysex data=(65,16,66,18,64,0,127,0,65) time=0
EXTRACT: program_change channel=0 program=35 time=0
EXTRACT: program_change channel=1 program=55 time=0
EXTRACT: control_change channel=1 control=121 value=0 time=0
EXTRACT: program_change channel=2 program=5 time=0
EXTRACT: control_change channel=2 control=121 value=0 time=0
EXTRACT: program_change channel=3 program=49 time=0
EXTRACT: control_change channel=3 control=121 value=0 time=0
EXTRACT: program_change channel=4 program=61 time=0
EXTRACT: control_change channel=4 control=121 value=0 time=0
EXTRACT: program_change channel=5 program=47 time=0
EXTRACT: control_change channel=5 control=121 value=0 time=0
EXTRACT: program_change channel=6 program=47 time=0
EXTRACT: control_change channel=6 control=121 value=0 time=0
EXTRACT: program_change channel=7 program=90 time=0
EXTRACT: control_change channel=7 control=121 value=0 time=0
EXTRACT: program_change channel=8 program=1 time=0
EXTRACT: control_change channel=8 control=121 value=0 time=0
EXTRACT: program_change channel=9 program=0 time=0
EXTRACT: control_change channel=9 control=121 value=0 time=0
EXTRACT: program_change channel=10 program=121 time=0
EXTRACT: control_change channel=10 control=121 value=0 time=0
EXTRACT: program_change channel=11 program=6 time=0
EXTRACT: control_change channel=11 control=121 value=0 time=0
EXTRACT: program_change channel=12 program=29 time=0
EXTRACT: control_change channel=12 control=121 value=0 time=0
EXTRACT: program_change channel=13 program=61 time=0
EXTRACT: control_change channel=13 control=121 value=0 time=0
EXTRACT: program_change channel=14 program=79 time=0
EXTRACT: control_change channel=14 control=121 value=0 time=0
EXTRACT: program_change channel=15 program=97 time=0
EXTRACT: control_change channel=15 control=121 value=0 time=0
EXTRACT: control_change channel=0 control=0 value=0 time=0.004901958333333333
EXTRACT: control_change channel=1 control=0 value=0 time=0
EXTRACT: control_change channel=2 control=0 value=0 time=0
EXTRACT: control_change channel=3 control=0 value=0 time=0
EXTRACT: control_change channel=4 control=0 value=0 time=0
EXTRACT: control_change channel=5 control=0 value=0 time=0
EXTRACT: control_change channel=6 control=0 value=0 time=0
EXTRACT: control_change channel=7 control=0 value=0 time=0
EXTRACT: control_change channel=8 control=0 value=0 time=0
EXTRACT: control_change channel=9 control=0 value=0 time=0
EXTRACT: control_change channel=10 control=0 value=0 time=0
EXTRACT: control_change channel=11 control=0 value=0 time=0
EXTRACT: control_change channel=12 control=0 value=0 time=0
EXTRACT: control_change channel=13 control=0 value=0 time=0
EXTRACT: control_change channel=14 control=0 value=0 time=0
EXTRACT: control_change channel=15 control=0 value=0 time=0
EXTRACT: control_change channel=0 control=32 value=0 time=0.004901958333333333
EXTRACT: control_change channel=1 control=32 value=0 time=0
EXTRACT: control_change channel=2 control=32 value=0 time=0
EXTRACT: control_change channel=3 control=32 value=0 time=0
EXTRACT: control_change channel=4 control=32 value=0 time=0
EXTRACT: control_change channel=5 control=32 value=0 time=0
EXTRACT: control_change channel=6 control=32 value=0 time=0
EXTRACT: control_change channel=7 control=32 value=0 time=0
EXTRACT: control_change channel=8 control=32 value=0 time=0
EXTRACT: control_change channel=9 control=32 value=0 time=0
EXTRACT: control_change channel=10 control=32 value=0 time=0
EXTRACT: control_change channel=11 control=32 value=0 time=0
EXTRACT: control_change channel=12 control=32 value=0 time=0
EXTRACT: control_change channel=13 control=32 value=0 time=0
EXTRACT: control_change channel=14 control=32 value=0 time=0
EXTRACT: control_change channel=15 control=32 value=0 time=0
EXTRACT: program_change channel=0 program=35 time=0.004901958333333333
EXTRACT: program_change channel=1 program=55 time=0
EXTRACT: program_change channel=2 program=5 time=0
EXTRACT: program_change channel=3 program=49 time=0
EXTRACT: program_change channel=4 program=61 time=0
EXTRACT: program_change channel=5 program=47 time=0
EXTRACT: program_change channel=6 program=28 time=0
EXTRACT: program_change channel=7 program=90 time=0
EXTRACT: program_change channel=8 program=1 time=0
EXTRACT: program_change channel=9 program=0 time=0
EXTRACT: program_change channel=10 program=121 time=0
EXTRACT: program_change channel=11 program=6 time=0
EXTRACT: program_change channel=12 program=29 time=0
EXTRACT: program_change channel=13 program=61 time=0
EXTRACT: program_change channel=14 program=79 time=0
EXTRACT: program_change channel=15 program=97 time=0
EXTRACT: control_change channel=0 control=7 value=100 time=0.004901958333333333
EXTRACT: control_change channel=1 control=7 value=80 time=0
EXTRACT: control_change channel=2 control=7 value=50 time=0
EXTRACT: control_change channel=3 control=7 value=50 time=0
EXTRACT: control_change channel=4 control=7 value=100 time=0
EXTRACT: control_change channel=5 control=7 value=75 time=0
EXTRACT: control_change channel=6 control=7 value=60 time=0
EXTRACT: control_change channel=7 control=7 value=90 time=0
EXTRACT: control_change channel=8 control=7 value=80 time=0
EXTRACT: control_change channel=9 control=7 value=127 time=0
EXTRACT: control_change channel=10 control=7 value=127 time=0
EXTRACT: control_change channel=11 control=7 value=80 time=0
EXTRACT: control_change channel=12 control=7 value=80 time=0
EXTRACT: control_change channel=13 control=7 value=90 time=0
EXTRACT: control_change channel=14 control=7 value=80 time=0
EXTRACT: control_change channel=15 control=7 value=45 time=0
EXTRACT: control_change channel=0 control=11 value=127 time=0.004901958333333333
EXTRACT: control_change channel=1 control=11 value=127 time=0
EXTRACT: control_change channel=2 control=11 value=127 time=0
EXTRACT: control_change channel=3 control=11 value=127 time=0
EXTRACT: control_change channel=4 control=11 value=127 time=0
EXTRACT: control_change channel=5 control=11 value=127 time=0
EXTRACT: control_change channel=6 control=11 value=127 time=0
EXTRACT: control_change channel=7 control=11 value=127 time=0
EXTRACT: control_change channel=8 control=11 value=127 time=0
EXTRACT: control_change channel=9 control=11 value=127 time=0
EXTRACT: control_change channel=10 control=11 value=127 time=0
EXTRACT: control_change channel=11 control=11 value=127 time=0
EXTRACT: control_change channel=12 control=11 value=127 time=0
EXTRACT: control_change channel=13 control=11 value=127 time=0
EXTRACT: control_change channel=14 control=11 value=127 time=0
EXTRACT: control_change channel=15 control=11 value=127 time=0
EXTRACT: control_change channel=0 control=10 value=56 time=0.004901958333333333
EXTRACT: control_change channel=1 control=10 value=64 time=0
EXTRACT: control_change channel=2 control=10 value=64 time=0
EXTRACT: control_change channel=3 control=10 value=30 time=0
EXTRACT: control_change channel=4 control=10 value=75 time=0
EXTRACT: control_change channel=5 control=10 value=64 time=0
EXTRACT: control_change channel=6 control=10 value=1 time=0
EXTRACT: control_change channel=7 control=10 value=54 time=0
EXTRACT: control_change channel=8 control=10 value=80 time=0
EXTRACT: control_change channel=9 control=10 value=64 time=0
EXTRACT: control_change channel=10 control=10 value=64 time=0
EXTRACT: control_change channel=11 control=10 value=64 time=0
EXTRACT: control_change channel=12 control=10 value=64 time=0
EXTRACT: control_change channel=13 control=10 value=64 time=0
EXTRACT: control_change channel=14 control=10 value=64 time=0
EXTRACT: control_change channel=15 control=10 value=64 time=0
EXTRACT: control_change channel=0 control=91 value=64 time=0.004901958333333333
EXTRACT: control_change channel=1 control=91 value=100 time=0
EXTRACT: control_change channel=2 control=91 value=100 time=0
EXTRACT: control_change channel=3 control=91 value=100 time=0
EXTRACT: control_change channel=4 control=91 value=100 time=0
EXTRACT: control_change channel=5 control=91 value=100 time=0
EXTRACT: control_change channel=6 control=91 value=40 time=0
EXTRACT: control_change channel=7 control=91 value=80 time=0
EXTRACT: control_change channel=8 control=91 value=40 time=0
EXTRACT: control_change channel=9 control=91 value=40 time=0
EXTRACT: control_change channel=10 control=91 value=40 time=0
EXTRACT: control_change channel=11 control=91 value=100 time=0
EXTRACT: control_change channel=12 control=91 value=40 time=0
EXTRACT: control_change channel=13 control=91 value=40 time=0
EXTRACT: control_change channel=14 control=91 value=64 time=0
EXTRACT: control_change channel=15 control=91 value=40 time=0
EXTRACT: control_change channel=0 control=93 value=20 time=0.004901958333333333
EXTRACT: control_change channel=1 control=93 value=40 time=0
EXTRACT: control_change channel=2 control=93 value=64 time=0
EXTRACT: control_change channel=3 control=93 value=64 time=0
EXTRACT: control_change channel=4 control=93 value=40 time=0
EXTRACT: control_change channel=5 control=93 value=100 time=0
EXTRACT: control_change channel=6 control=93 value=40 time=0
EXTRACT: control_change channel=7 control=93 value=40 time=0
EXTRACT: control_change channel=8 control=93 value=40 time=0
EXTRACT: control_change channel=9 control=93 value=40 time=0
EXTRACT: control_change channel=10 control=93 value=40 time=0
EXTRACT: control_change channel=11 control=93 value=40 time=0
EXTRACT: control_change channel=12 control=93 value=0 time=0
EXTRACT: control_change channel=13 control=93 value=40 time=0
EXTRACT: control_change channel=14 control=93 value=40 time=0
EXTRACT: control_change channel=15 control=93 value=40 time=0
EXTRACT: control_change channel=0 control=101 value=0 time=0.004901958333333333
EXTRACT: control_change channel=7 control=94 value=0 time=0
EXTRACT: control_change channel=7 control=101 value=0 time=0
EXTRACT: control_change channel=8 control=94 value=0 time=0
EXTRACT: control_change channel=8 control=101 value=0 time=0
EXTRACT: control_change channel=10 control=94 value=0 time=0
EXTRACT: control_change channel=10 control=101 value=0 time=0
EXTRACT: control_change channel=15 control=101 value=0 time=0
EXTRACT: control_change channel=0 control=100 value=0 time=0.004901958333333333
EXTRACT: control_change channel=7 control=100 value=0 time=0
EXTRACT: control_change channel=8 control=100 value=0 time=0
EXTRACT: control_change channel=10 control=100 value=0 time=0
EXTRACT: control_change channel=15 control=100 value=0 time=0
EXTRACT: control_change channel=0 control=6 value=12 time=0.004901958333333333
EXTRACT: control_change channel=7 control=6 value=2 time=0
EXTRACT: control_change channel=8 control=6 value=2 time=0
EXTRACT: control_change channel=10 control=6 value=2 time=0
EXTRACT: control_change channel=15 control=6 value=12 time=0
EXTRACT: control_change channel=0 control=101 value=127 time=0.004901958333333333
EXTRACT: control_change channel=7 control=101 value=127 time=0
EXTRACT: control_change channel=8 control=101 value=127 time=0
EXTRACT: control_change channel=10 control=101 value=127 time=0
EXTRACT: control_change channel=15 control=101 value=127 time=0
EXTRACT: control_change channel=0 control=100 value=127 time=0.004901958333333333
EXTRACT: control_change channel=7 control=100 value=127 time=0
EXTRACT: control_change channel=8 control=100 value=127 time=0
EXTRACT: control_change channel=10 control=100 value=127 time=0
EXTRACT: control_change channel=15 control=100 value=127 time=0
EXTRACT: control_change channel=5 control=11 value=40 time=1.7009795416666664
EXTRACT: note_on channel=5 note=43 velocity=107 time=0
EXTRACT: control_change channel=5 control=11 value=41 time=0.004901958333333333
EXTRACT: control_change channel=5 control=11 value=42 time=0.009803916666666666
EXTRACT: note_on channel=5 note=43 velocity=107 time=0
EXTRACT: control_change channel=5 control=11 value=43 time=0.004901958333333333
EXTRACT: control_change channel=5 control=11 value=44 time=0.009803916666666666
EXTRACT: note_on channel=5 note=43 velocity=107 time=0
EXTRACT: control_change channel=5 control=11 value=45 time=0.004901958333333333
EXTRACT: control_change channel=5 control=11 value=46 time=0.004901958333333333
EXTRACT: control_change channel=5 control=11 value=47 time=0.009803916666666666
EXTRACT: control_change channel=5 control=11 value=48 time=0.004901958333333333
EXTRACT: control_change channel=5 control=11 value=49 time=0.004901958333333333
EXTRACT: control_change channel=5 control=11 value=50 time=0.009803916666666666
EXTRACT: control_change channel=5 control=11 value=51 time=0.004901958333333333
EXTRACT: note_on channel=5 note=43 velocity=107 time=0
EXTRACT: control_change channel=5 control=11 value=52 time=0.009803916666666666
EXTRACT: control_change channel=5 control=11 value=53 time=0.004901958333333333
EXTRACT: note_on channel=5 note=43 velocity=107 time=0
EXTRACT: control_change channel=5 control=11 value=54 time=0.004901958333333333
EXTRACT: control_change channel=5 control=11 value=55 time=0.009803916666666666
EXTRACT: control_change channel=5 control=11 value=56 time=0.004901958333333333
EXTRACT: control_change channel=5 control=11 value=57 time=0.004901958333333333
EXTRACT: note_on channel=5 note=43 velocity=107 time=0.004901958333333333
EXTRACT: control_change channel=5 control=11 value=58 time=0.004901958333333333
EXTRACT: control_change channel=5 control=11 value=59 time=0.004901958333333333
EXTRACT: control_change channel=5 control=11 value=60 time=0.009803916666666666
EXTRACT: note_on channel=5 note=43 velocity=107 time=0
EXTRACT: control_change channel=5 control=11 value=61 time=0.004901958333333333
EXTRACT: note_on channel=5 note=43 velocity=0 time=0.004901958333333333
EXTRACT: control_change channel=5 control=11 value=62 time=0
EXTRACT: note_on channel=5 note=43 velocity=107 time=0
EXTRACT: control_change channel=5 control=11 value=63 time=0.009803916666666666
EXTRACT: note_on channel=5 note=43 velocity=0 time=0.004901958333333333
EXTRACT: control_change channel=5 control=11 value=64 time=0
EXTRACT: control_change channel=5 control=11 value=65 time=0.004901958333333333
EXTRACT: note_on channel=5 note=43 velocity=107 time=0
EXTRACT: note_on channel=5 note=43 velocity=0 time=0.009803916666666666
EXTRACT: control_change channel=5 control=11 value=66 time=0
EXTRACT: control_change channel=5 control=11 value=67 time=0.004901958333333333
EXTRACT: note_on channel=5 note=43 velocity=107 time=0.004901958333333333
EXTRACT: control_change channel=5 control=11 value=68 time=0.004901958333333333
EXTRACT: control_change channel=5 control=11 value=69 time=0.004901958333333333
EXTRACT: control_change channel=5 control=11 value=70 time=0.004901958333333333
EXTRACT: control_change channel=5 control=11 value=71 time=0.009803916666666666
EXTRACT: control_change channel=5 control=11 value=72 time=0.004901958333333333
EXTRACT: note_on channel=5 note=43 velocity=0 time=0.004901958333333333
EXTRACT: note_on channel=5 note=43 velocity=107 time=0
EXTRACT: control_change channel=5 control=11 value=73 time=0.004901958333333333
EXTRACT: control_change channel=5 control=11 value=74 time=0.004901958333333333
EXTRACT: note_on channel=5 note=43 velocity=0 time=0.004901958333333333
EXTRACT: control_change channel=5 control=11 value=75 time=0
EXTRACT: control_change channel=5 control=11 value=76 time=0.009803916666666666
EXTRACT: control_change channel=5 control=11 value=77 time=0.004901958333333333
EXTRACT: control_change channel=5 control=11 value=78 time=0.004901958333333333
EXTRACT: note_on channel=5 note=43 velocity=0 time=0.009803916666666666
EXTRACT: control_change channel=5 control=11 value=79 time=0
EXTRACT: control_change channel=5 control=11 value=80 time=0.004901958333333333
EXTRACT: control_change channel=5 control=11 value=81 time=0.009803916666666666
EXTRACT: note_on channel=5 note=43 velocity=0 time=0.004901958333333333
EXTRACT: control_change channel=5 control=11 value=82 time=0
EXTRACT: control_change channel=5 control=11 value=83 time=0.004901958333333333
EXTRACT: note_on channel=5 note=43 velocity=0 time=0.004901958333333333
EXTRACT: note_on channel=5 note=43 velocity=107 time=0
EXTRACT: control_change channel=5 control=11 value=84 time=0.004901958333333333
EXTRACT: control_change channel=5 control=11 value=85 time=0.004901958333333333
EXTRACT: control_change channel=5 control=11 value=86 time=0.004901958333333333
EXTRACT: note_on channel=5 note=43 velocity=0 time=0.004901958333333333
EXTRACT: control_change channel=5 control=11 value=87 time=0.004901958333333333
EXTRACT: control_change channel=5 control=11 value=88 time=0.004901958333333333
EXTRACT: note_on channel=5 note=43 velocity=0 time=0.009803916666666666
EXTRACT: control_change channel=5 control=11 value=89 time=0
EXTRACT: control_change channel=5 control=11 value=90 time=0.004901958333333333
EXTRACT: control_change channel=5 control=11 value=91 time=0.004901958333333333
EXTRACT: control_change channel=5 control=11 value=92 time=0.009803916666666666
EXTRACT: control_change channel=5 control=11 value=93 time=0.004901958333333333
EXTRACT: control_change channel=5 control=11 value=94 time=0.004901958333333333
EXTRACT: note_on channel=5 note=43 velocity=0 time=0.004901958333333333
EXTRACT: note_on channel=5 note=43 velocity=107 time=0
EXTRACT: control_change channel=5 control=11 value=95 time=0.004901958333333333
EXTRACT: control_change channel=5 control=11 value=96 time=0.004901958333333333
EXTRACT: control_change channel=5 control=11 value=97 time=0.009803916666666666
EXTRACT: control_change channel=5 control=11 value=98 time=0.004901958333333333
EXTRACT: control_change channel=5 control=11 value=99 time=0.004901958333333333
EXTRACT: control_change channel=5 control=11 value=100 time=0.009803916666666666
EXTRACT: control_change channel=5 control=11 value=101 time=0.004901958333333333
EXTRACT: control_change channel=5 control=11 value=102 time=0.009803916666666666
EXTRACT: control_change channel=5 control=11 value=103 time=0.004901958333333333
EXTRACT: control_change channel=5 control=11 value=104 time=0.004901958333333333
EXTRACT: note_on channel=5 note=43 velocity=0 time=0.009803916666666666
EXTRACT: control_change channel=5 control=11 value=105 time=0
EXTRACT: note_on channel=5 note=43 velocity=107 time=0
EXTRACT: control_change channel=5 control=11 value=106 time=0.004901958333333333
EXTRACT: control_change channel=5 control=11 value=107 time=0.004901958333333333
EXTRACT: control_change channel=5 control=11 value=108 time=0.009803916666666666
EXTRACT: control_change channel=5 control=11 value=109 time=0.004901958333333333
EXTRACT: control_change channel=5 control=11 value=110 time=0.009803916666666666
EXTRACT: control_change channel=5 control=11 value=111 time=0.004901958333333333
EXTRACT: control_change channel=5 control=11 value=112 time=0.004901958333333333
EXTRACT: control_change channel=5 control=11 value=113 time=0.009803916666666666
EXTRACT: control_change channel=5 control=11 value=114 time=0.004901958333333333
EXTRACT: control_change channel=5 control=11 value=115 time=0.004901958333333333
EXTRACT: note_on channel=5 note=43 velocity=0 time=0.009803916666666666
EXTRACT: control_change channel=5 control=11 value=116 time=0
EXTRACT: note_on channel=5 note=43 velocity=107 time=0
EXTRACT: control_change channel=5 control=11 value=117 time=0.004901958333333333
EXTRACT: control_change channel=5 control=11 value=118 time=0.009803916666666666
EXTRACT: control_change channel=5 control=11 value=119 time=0.004901958333333333
EXTRACT: control_change channel=5 control=11 value=120 time=0.004901958333333333
EXTRACT: control_change channel=5 control=11 value=121 time=0.009803916666666666
EXTRACT: control_change channel=5 control=11 value=122 time=0.004901958333333333
EXTRACT: control_change channel=5 control=11 value=123 time=0.004901958333333333
EXTRACT: control_change channel=5 control=11 value=124 time=0.009803916666666666
EXTRACT: control_change channel=5 control=11 value=125 time=0.004901958333333333
EXTRACT: control_change channel=5 control=11 value=126 time=0.009803916666666666
EXTRACT: note_on channel=0 note=36 velocity=108 time=0.004901958333333333
EXTRACT: note_on channel=1 note=60 velocity=124 time=0
EXTRACT: note_on channel=5 note=43 velocity=0 time=0
EXTRACT: control_change channel=5 control=11 value=127 time=0
EXTRACT: note_on channel=5 note=36 velocity=107 time=0
EXTRACT: note_on channel=8 note=24 velocity=105 time=0
EXTRACT: note_on channel=9 note=49 velocity=100 time=0
EXTRACT: note_on channel=9 note=36 velocity=120 time=0
EXTRACT: note_on channel=9 note=49 velocity=0 time=0.049019583333333325
EXTRACT: note_on channel=9 note=36 velocity=0 time=0
EXTRACT: note_on channel=5 note=43 velocity=0 time=0.024509791666666662
EXTRACT: note_on channel=0 note=36 velocity=0 time=0.073529375
EXTRACT: note_on channel=5 note=36 velocity=0 time=0
EXTRACT: note_on channel=1 note=60 velocity=0 time=0.14215679166666664
EXTRACT: note_on channel=8 note=24 velocity=0 time=0
EXTRACT: note_on channel=0 note=36 velocity=115 time=0.004901958333333333
EXTRACT: note_on channel=1 note=60 velocity=112 time=0
EXTRACT: note_on channel=8 note=24 velocity=113 time=0
EXTRACT: note_on channel=9 note=42 velocity=103 time=0
EXTRACT: note_on channel=9 note=36 velocity=120 time=0
EXTRACT: note_on channel=9 note=54 velocity=73 time=0
EXTRACT: note_on channel=9 note=42 velocity=0 time=0.049019583333333325
EXTRACT: note_on channel=9 note=36 velocity=0 time=0
EXTRACT: note_on channel=9 note=54 velocity=0 time=0
EXTRACT: note_on channel=0 note=36 velocity=0 time=0.09803916666666665
EXTRACT: note_on channel=1 note=60 velocity=0 time=0.14705875
EXTRACT: note_on channel=8 note=24 velocity=0 time=0
EXTRACT: note_on channel=9 note=42 velocity=71 time=0
EXTRACT: note_on channel=9 note=40 velocity=127 time=0
EXTRACT: note_on channel=9 note=42 velocity=0 time=0.049019583333333325
EXTRACT: note_on channel=9 note=40 velocity=0 time=0
EXTRACT: note_on channel=9 note=42 velocity=96 time=0.24509791666666664
EXTRACT: note_on channel=9 note=36 velocity=120 time=0
EXTRACT: note_on channel=9 note=54 velocity=70 time=0
EXTRACT: note_on channel=13 note=67 velocity=116 time=0
EXTRACT: note_on channel=13 note=63 velocity=118 time=0
EXTRACT: note_on channel=9 note=42 velocity=0 time=0.049019583333333325
EXTRACT: note_on channel=9 note=36 velocity=0 time=0
EXTRACT: note_on channel=9 note=54 velocity=0 time=0
EXTRACT: note_on channel=9 note=42 velocity=79 time=0.24509791666666664
EXTRACT: note_on channel=9 note=36 velocity=120 time=0
EXTRACT: note_on channel=13 note=67 velocity=0 time=0
EXTRACT: note_on channel=13 note=63 velocity=0 time=0
EXTRACT: note_on channel=13 note=65 velocity=108 time=0
EXTRACT: note_on channel=13 note=62 velocity=103 time=0
EXTRACT: note_on channel=9 note=42 velocity=0 time=0.049019583333333325
EXTRACT: note_on channel=9 note=36 velocity=0 time=0
EXTRACT: note_on channel=9 note=42 velocity=96 time=0.24509791666666664
EXTRACT: note_on channel=9 note=54 velocity=70 time=0
EXTRACT: note_on channel=13 note=65 velocity=0 time=0
EXTRACT: note_on channel=13 note=62 velocity=0 time=0
EXTRACT: note_on channel=9 note=42 velocity=0 time=0.049019583333333325
EXTRACT: note_on channel=9 note=54 velocity=0 time=0
EXTRACT: note_on channel=9 note=42 velocity=79 time=0.24509791666666664
EXTRACT: note_on channel=9 note=40 velocity=127 time=0
EXTRACT: note_on channel=13 note=68 velocity=82 time=0
EXTRACT: note_on channel=13 note=65 velocity=114 time=0
EXTRACT: note_on channel=9 note=42 velocity=0 time=0.049019583333333325
EXTRACT: note_on channel=9 note=40 velocity=0 time=0
EXTRACT: note_on channel=9 note=42 velocity=95 time=0.24509791666666664
EXTRACT: note_on channel=9 note=54 velocity=71 time=0
EXTRACT: note_on channel=13 note=68 velocity=0 time=0
EXTRACT: note_on channel=13 note=65 velocity=0 time=0
EXTRACT: note_on channel=9 note=42 velocity=0 time=0.049019583333333325
EXTRACT: note_on channel=9 note=54 velocity=0 time=0
EXTRACT: note_on channel=0 note=32 velocity=110 time=0.24509791666666664
EXTRACT: note_on channel=1 note=68 velocity=126 time=0
EXTRACT: note_on channel=8 note=32 velocity=127 time=0
EXTRACT: note_on channel=9 note=42 velocity=67 time=0
EXTRACT: note_on channel=9 note=36 velocity=120 time=0
EXTRACT: note_on channel=9 note=42 velocity=0 time=0.049019583333333325
EXTRACT: note_on channel=9 note=36 velocity=0 time=0
EXTRACT: note_on channel=0 note=32 velocity=0 time=0.09803916666666665
EXTRACT: note_on channel=1 note=68 velocity=0 time=0.14215679166666664
EXTRACT: note_on channel=8 note=32 velocity=0 time=0
EXTRACT: note_on channel=0 note=32 velocity=125 time=0.004901958333333333
EXTRACT: note_on channel=1 note=68 velocity=107 time=0
EXTRACT: note_on channel=8 note=32 velocity=109 time=0
EXTRACT: note_on channel=9 note=42 velocity=99 time=0
EXTRACT: note_on channel=9 note=36 velocity=120 time=0
EXTRACT: note_on channel=9 note=54 velocity=74 time=0
EXTRACT: note_on channel=9 note=42 velocity=0 time=0.049019583333333325
EXTRACT: note_on channel=9 note=36 velocity=0 time=0
EXTRACT: note_on channel=9 note=54 velocity=0 time=0
EXTRACT: note_on channel=0 note=32 velocity=0 time=0.09803916666666665
EXTRACT: note_on channel=1 note=68 velocity=0 time=0.14705875
EXTRACT: note_on channel=8 note=32 velocity=0 time=0
EXTRACT: note_on channel=9 note=42 velocity=77 time=0
EXTRACT: note_on channel=9 note=40 velocity=127 time=0
EXTRACT: note_on channel=9 note=42 velocity=0 time=0.049019583333333325
EXTRACT: note_on channel=9 note=40 velocity=0 time=0
EXTRACT: note_on channel=9 note=42 velocity=100 time=0.24509791666666664
EXTRACT: note_on channel=9 note=36 velocity=120 time=0
EXTRACT: note_on channel=9 note=54 velocity=74 time=0
EXTRACT: note_on channel=13 note=67 velocity=87 time=0
EXTRACT: note_on channel=13 note=63 velocity=102 time=0
EXTRACT: note_on channel=9 note=42 velocity=0 time=0.049019583333333325
EXTRACT: note_on channel=9 note=36 velocity=0 time=0
EXTRACT: note_on channel=9 note=54 velocity=0 time=0
EXTRACT: note_on channel=6 note=48 velocity=91 time=0.24509791666666664
EXTRACT: note_on channel=9 note=42 velocity=124 time=0
EXTRACT: note_on channel=9 note=36 velocity=120 time=0
EXTRACT: note_on channel=13 note=67 velocity=0 time=0
EXTRACT: note_on channel=13 note=63 velocity=0 time=0
EXTRACT: note_on channel=13 note=65 velocity=86 time=0
EXTRACT: note_on channel=13 note=62 velocity=117 time=0
EXTRACT: note_on channel=9 note=42 velocity=0 time=0.049019583333333325
EXTRACT: note_on channel=9 note=36 velocity=0 time=0
EXTRACT: note_on channel=6 note=48 velocity=0 time=0.024509791666666662
EXTRACT: note_on channel=6 note=48 velocity=90 time=0.073529375
EXTRACT: note_on channel=9 note=42 velocity=111 time=0
EXTRACT: note_on channel=9 note=42 velocity=0 time=0.049019583333333325
EXTRACT: note_on channel=6 note=48 velocity=0 time=0.024509791666666662
EXTRACT: note_on channel=6 note=48 velocity=57 time=0.073529375
EXTRACT: note_on channel=9 note=42 velocity=103 time=0
EXTRACT: note_on channel=9 note=54 velocity=80 time=0
EXTRACT: note_on channel=13 note=65 velocity=0 time=0
EXTRACT: note_on channel=13 note=62 velocity=0 time=0
EXTRACT: note_on channel=9 note=42 velocity=0 time=0.049019583333333325
EXTRACT: note_on channel=9 note=54 velocity=0 time=0
EXTRACT: note_on channel=6 note=48 velocity=0 time=0.024509791666666662
EXTRACT: note_on channel=9 note=42 velocity=81 time=0.22058812499999997
EXTRACT: note_on channel=9 note=40 velocity=127 time=0
EXTRACT: note_on channel=13 note=62 velocity=81 time=0
EXTRACT: note_on channel=13 note=59 velocity=112 time=0
EXTRACT: note_on channel=9 note=42 velocity=0 time=0.049019583333333325
EXTRACT: note_on channel=9 note=40 velocity=0 time=0
EXTRACT: note_on channel=9 note=42 velocity=96 time=0.24509791666666664
EXTRACT: note_on channel=9 note=54 velocity=65 time=0
EXTRACT: note_on channel=13 note=62 velocity=0 time=0
EXTRACT: note_on channel=13 note=59 velocity=0 time=0
EXTRACT: note_on channel=9 note=42 velocity=0 time=0.049019583333333325
EXTRACT: note_on channel=9 note=54 velocity=0 time=0
EXTRACT: note_on channel=0 note=36 velocity=107 time=0.24509791666666664
EXTRACT: note_on channel=1 note=60 velocity=113 time=0
EXTRACT: note_on channel=8 note=24 velocity=110 time=0
EXTRACT: note_on channel=9 note=42 velocity=71 time=0
EXTRACT: note_on channel=9 note=36 velocity=120 time=0
EXTRACT: note_on channel=9 note=42 velocity=0 time=0.049019583333333325
EXTRACT: note_on channel=9 note=36 velocity=0 time=0
EXTRACT: note_on channel=0 note=36 velocity=0 time=0.09803916666666665
EXTRACT: note_on channel=1 note=60 velocity=0 time=0.14215679166666664
EXTRACT: note_on channel=8 note=24 velocity=0 time=0
EXTRACT: note_on channel=0 note=36 velocity=111 time=0.004901958333333333
EXTRACT: note_on channel=1 note=60 velocity=110 time=0
EXTRACT: note_on channel=8 note=24 velocity=120 time=0
EXTRACT: note_on channel=9 note=42 velocity=100 time=0
EXTRACT: note_on channel=9 note=36 velocity=120 time=0
EXTRACT: note_on channel=9 note=54 velocity=70 time=0
EXTRACT: note_on channel=9 note=42 velocity=0 time=0.049019583333333325
EXTRACT: note_on channel=9 note=36 velocity=0 time=0
EXTRACT: note_on channel=9 note=54 velocity=0 time=0
EXTRACT: note_on channel=0 note=36 velocity=0 time=0.09803916666666665
EXTRACT: note_on channel=1 note=60 velocity=0 time=0.14705875
EXTRACT: note_on channel=8 note=24 velocity=0 time=0
EXTRACT: note_on channel=9 note=42 velocity=75 time=0
EXTRACT: note_on channel=9 note=40 velocity=127 time=0
EXTRACT: note_on channel=9 note=42 velocity=0 time=0.049019583333333325
EXTRACT: note_on channel=9 note=40 velocity=0 time=0
EXTRACT: note_on channel=9 note=42 velocity=103 time=0.24509791666666664
EXTRACT: note_on channel=9 note=36 velocity=120 time=0
EXTRACT: note_on channel=9 note=54 velocity=67 time=0
EXTRACT: note_on channel=13 note=67 velocity=122 time=0
EXTRACT: note_on channel=13 note=63 velocity=115 time=0
EXTRACT: note_on channel=9 note=42 velocity=0 time=0.049019583333333325
EXTRACT: note_on channel=9 note=36 velocity=0 time=0
EXTRACT: note_on channel=9 note=54 velocity=0 time=0
EXTRACT: note_on channel=9 note=42 velocity=80 time=0.24509791666666664
EXTRACT: note_on channel=9 note=36 velocity=120 time=0
EXTRACT: note_on channel=13 note=67 velocity=0 time=0
EXTRACT: note_on channel=13 note=63 velocity=0 time=0
EXTRACT: note_on channel=13 note=65 velocity=83 time=0
EXTRACT: note_on channel=13 note=62 velocity=118 time=0
EXTRACT: note_on channel=9 note=42 velocity=0 time=0.049019583333333325
EXTRACT: note_on channel=9 note=36 velocity=0 time=0
EXTRACT: note_on channel=9 note=42 velocity=102 time=0.24509791666666664
EXTRACT: note_on channel=9 note=54 velocity=72 time=0
EXTRACT: note_on channel=13 note=65 velocity=0 time=0
EXTRACT: note_on channel=13 note=62 velocity=0 time=0
EXTRACT: note_on channel=9 note=42 velocity=0 time=0.049019583333333325
EXTRACT: note_on channel=9 note=54 velocity=0 time=0
EXTRACT: note_on channel=9 note=42 velocity=84 time=0.24509791666666664
EXTRACT: note_on channel=9 note=40 velocity=127 time=0
EXTRACT: note_on channel=13 note=68 velocity=118 time=0
EXTRACT: note_on channel=13 note=65 velocity=102 time=0
EXTRACT: note_on channel=9 note=42 velocity=0 time=0.049019583333333325
EXTRACT: note_on channel=9 note=40 velocity=0 time=0
EXTRACT: note_on channel=9 note=36 velocity=120 time=0.24509791666666664
EXTRACT: note_on channel=9 note=42 velocity=100 time=0
EXTRACT: note_on channel=9 note=54 velocity=66 time=0
EXTRACT: note_on channel=13 note=68 velocity=0 time=0
EXTRACT: note_on channel=13 note=65 velocity=0 time=0
EXTRACT: note_on channel=9 note=36 velocity=0 time=0.049019583333333325
EXTRACT: note_on channel=9 note=42 velocity=0 time=0
EXTRACT: note_on channel=9 note=54 velocity=0 time=0
EXTRACT: note_on channel=0 note=32 velocity=113 time=0.24509791666666664
EXTRACT: note_on channel=1 note=68 velocity=103 time=0
EXTRACT: note_on channel=8 note=32 velocity=107 time=0
EXTRACT: note_on channel=9 note=42 velocity=72 time=0
EXTRACT: note_on channel=9 note=36 velocity=120 time=0
EXTRACT: note_on channel=9 note=42 velocity=0 time=0.049019583333333325
EXTRACT: note_on channel=9 note=36 velocity=0 time=0
EXTRACT: note_on channel=0 note=32 velocity=0 time=0.09803916666666665
EXTRACT: note_on channel=1 note=68 velocity=0 time=0.14215679166666664
EXTRACT: note_on channel=8 note=32 velocity=0 time=0
EXTRACT: note_on channel=0 note=32 velocity=112 time=0.004901958333333333
EXTRACT: note_on channel=1 note=68 velocity=120 time=0
EXTRACT: note_on channel=8 note=32 velocity=97 time=0
EXTRACT: note_on channel=9 note=42 velocity=105 time=0
EXTRACT: note_on channel=9 note=36 velocity=120 time=0
EXTRACT: note_on channel=9 note=54 velocity=66 time=0
EXTRACT: note_on channel=9 note=42 velocity=0 time=0.049019583333333325
EXTRACT: note_on channel=9 note=36 velocity=0 time=0
EXTRACT: note_on channel=9 note=54 velocity=0 time=0
EXTRACT: note_on channel=0 note=32 velocity=0 time=0.09803916666666665
EXTRACT: note_on channel=1 note=68 velocity=0 time=0.14705875
EXTRACT: note_on channel=8 note=32 velocity=0 time=0
EXTRACT: note_on channel=9 note=42 velocity=71 time=0
EXTRACT: note_on channel=9 note=40 velocity=127 time=0
EXTRACT: note_on channel=9 note=42 velocity=0 time=0.049019583333333325
EXTRACT: note_on channel=9 note=40 velocity=0 time=0
EXTRACT: note_on channel=9 note=42 velocity=103 time=0.24509791666666664
EXTRACT: note_on channel=9 note=36 velocity=120 time=0
EXTRACT: note_on channel=9 note=54 velocity=71 time=0
EXTRACT: note_on channel=13 note=67 velocity=88 time=0
EXTRACT: note_on channel=13 note=63 velocity=124 time=0
EXTRACT: note_on channel=9 note=42 velocity=0 time=0.049019583333333325
EXTRACT: note_on channel=9 note=36 velocity=0 time=0
EXTRACT: note_on channel=9 note=54 velocity=0 time=0
EXTRACT: control_change channel=6 control=10 value=127 time=0.24509791666666664
EXTRACT: note_on channel=6 note=48 velocity=70 time=0
EXTRACT: note_on channel=9 note=42 velocity=76 time=0
EXTRACT: note_on channel=9 note=36 velocity=120 time=0
EXTRACT: note_on channel=13 note=67 velocity=0 time=0
EXTRACT: note_on channel=13 note=63 velocity=0 time=0
EXTRACT: note_on channel=13 note=65 velocity=103 time=0
EXTRACT: note_on channel=13 note=62 velocity=127 time=0
EXTRACT: note_on channel=9 note=42 velocity=0 time=0.049019583333333325
EXTRACT: note_on channel=9 note=36 velocity=0 time=0
EXTRACT: note_on channel=6 note=48 velocity=0 time=0.024509791666666662
EXTRACT: note_on channel=6 note=48 velocity=83 time=0.073529375
EXTRACT: note_on channel=6 note=48 velocity=0 time=0.073529375
EXTRACT: note_on channel=6 note=48 velocity=60 time=0.073529375
EXTRACT: note_on channel=9 note=36 velocity=120 time=0
EXTRACT: note_on channel=9 note=42 velocity=96 time=0
EXTRACT: note_on channel=9 note=54 velocity=69 time=0
EXTRACT: note_on channel=13 note=65 velocity=0 time=0
EXTRACT: note_on channel=13 note=62 velocity=0 time=0
EXTRACT: note_on channel=9 note=36 velocity=0 time=0.049019583333333325
EXTRACT: note_on channel=9 note=42 velocity=0 time=0
EXTRACT: note_on channel=9 note=54 velocity=0 time=0
EXTRACT: note_on channel=6 note=48 velocity=0 time=0.024509791666666662
EXTRACT: note_on channel=9 note=42 velocity=84 time=0.22058812499999997
EXTRACT: note_on channel=9 note=40 velocity=127 time=0
EXTRACT: note_on channel=13 note=62 velocity=90 time=0
EXTRACT: note_on channel=13 note=59 velocity=118 time=0
EXTRACT: note_on channel=9 note=42 velocity=0 time=0.049019583333333325
EXTRACT: note_on channel=9 note=40 velocity=0 time=0
EXTRACT: note_on channel=9 note=42 velocity=101 time=0.24509791666666664
EXTRACT: note_on channel=9 note=54 velocity=65 time=0
EXTRACT: note_on channel=13 note=62 velocity=0 time=0
EXTRACT: note_on channel=13 note=59 velocity=0 time=0
EXTRACT: note_on channel=9 note=42 velocity=0 time=0.049019583333333325
EXTRACT: note_on channel=9 note=54 velocity=0 time=0
EXTRACT: note_on channel=0 note=36 velocity=105 time=0.24509791666666664
EXTRACT: note_on channel=1 note=60 velocity=111 time=0
EXTRACT: note_on channel=8 note=24 velocity=97 time=0
EXTRACT: note_on channel=9 note=49 velocity=100 time=0
EXTRACT: note_on channel=9 note=36 velocity=120 time=0
EXTRACT: note_on channel=9 note=49 velocity=0 time=0.049019583333333325
EXTRACT: note_on channel=9 note=36 velocity=0 time=0
EXTRACT: note_on channel=0 note=36 velocity=0 time=0.09803916666666665
EXTRACT: note_on channel=8 note=24 velocity=0 time=0.14215679166666664
EXTRACT: note_on channel=0 note=36 velocity=116 time=0.004901958333333333
EXTRACT: note_on channel=1 note=60 velocity=0 time=0
EXTRACT: note_on channel=8 note=24 velocity=99 time=0
EXTRACT: note_on channel=9 note=42 velocity=105 time=0
EXTRACT: note_on channel=9 note=36 velocity=120 time=0
EXTRACT: note_on channel=9 note=54 velocity=70 time=0
EXTRACT: note_on channel=9 note=42 velocity=0 time=0.049019583333333325
EXTRACT: note_on channel=9 note=36 velocity=0 time=0
EXTRACT: note_on channel=9 note=54 velocity=0 time=0
EXTRACT: note_on channel=0 note=36 velocity=0 time=0.09803916666666665
EXTRACT: note_on channel=14 note=67 velocity=108 time=0
EXTRACT: note_on channel=14 note=67 velocity=0 time=0.14215679166666664
EXTRACT: note_on channel=8 note=24 velocity=0 time=0.004901958333333333
EXTRACT: note_on channel=9 note=42 velocity=78 time=0
EXTRACT: note_on channel=9 note=40 velocity=127 time=0
EXTRACT: note_on channel=14 note=75 velocity=104 time=0
EXTRACT: note_on channel=9 note=42 velocity=0 time=0.049019583333333325
EXTRACT: note_on channel=9 note=40 velocity=0 time=0
EXTRACT: note_on channel=14 note=75 velocity=0 time=0.09803916666666665
EXTRACT: note_on channel=9 note=42 velocity=95 time=0.14705875
EXTRACT: note_on channel=9 note=36 velocity=120 time=0
EXTRACT: note_on channel=9 note=54 velocity=68 time=0
EXTRACT: note_on channel=14 note=75 velocity=95 time=0
EXTRACT: note_on channel=9 note=42 velocity=0 time=0.049019583333333325
EXTRACT: note_on channel=9 note=36 velocity=0 time=0
EXTRACT: note_on channel=9 note=54 velocity=0 time=0
EXTRACT: note_on channel=14 note=75 velocity=0 time=0.09803916666666665
EXTRACT: note_on channel=9 note=42 velocity=76 time=0.14705875
EXTRACT: note_on channel=9 note=36 velocity=120 time=0
EXTRACT: note_on channel=14 note=75 velocity=100 time=0
EXTRACT: note_on channel=9 note=42 velocity=0 time=0.049019583333333325
EXTRACT: note_on channel=9 note=36 velocity=0 time=0
EXTRACT: note_on channel=14 note=75 velocity=0 time=0.09313720833333332
EXTRACT: note_on channel=14 note=74 velocity=126 time=0.004901958333333333
EXTRACT: note_on channel=9 note=42 velocity=104 time=0.14705875
EXTRACT: note_on channel=9 note=54 velocity=70 time=0
EXTRACT: note_on channel=14 note=74 velocity=0 time=0
EXTRACT: note_on channel=9 note=42 velocity=0 time=0.049019583333333325
EXTRACT: note_on channel=9 note=54 velocity=0 time=0
EXTRACT: note_on channel=14 note=74 velocity=106 time=0.09803916666666665
EXTRACT: note_on channel=0 note=31 velocity=103 time=0.14705875
EXTRACT: note_on channel=8 note=31 velocity=120 time=0
EXTRACT: note_on channel=9 note=42 velocity=78 time=0
EXTRACT: note_on channel=9 note=40 velocity=127 time=0
EXTRACT: note_on channel=14 note=74 velocity=0 time=0
EXTRACT: note_on channel=9 note=42 velocity=0 time=0.049019583333333325
EXTRACT: note_on channel=9 note=40 velocity=0 time=0
EXTRACT: note_on channel=14 note=72 velocity=115 time=0.09803916666666665
EXTRACT: note_on channel=0 note=31 velocity=0 time=0.14705875
EXTRACT: note_on channel=8 note=31 velocity=0 time=0
EXTRACT: note_on channel=9 note=42 velocity=104 time=0
EXTRACT: note_on channel=9 note=54 velocity=73 time=0
EXTRACT: note_on channel=14 note=72 velocity=0 time=0
EXTRACT: note_on channel=9 note=42 velocity=0 time=0.049019583333333325
EXTRACT: note_on channel=9 note=54 velocity=0 time=0
EXTRACT: note_on channel=0 note=32 velocity=109 time=0.24509791666666664
EXTRACT: note_on channel=8 note=32 velocity=115 time=0
EXTRACT: note_on channel=9 note=42 velocity=71 time=0
EXTRACT: note_on channel=9 note=36 velocity=120 time=0
EXTRACT: note_on channel=14 note=72 velocity=95 time=0
EXTRACT: note_on channel=9 note=42 velocity=0 time=0.049019583333333325
EXTRACT: note_on channel=9 note=36 velocity=0 time=0
EXTRACT: note_on channel=0 note=32 velocity=0 time=0.24509791666666664
EXTRACT: note_on channel=8 note=32 velocity=0 time=0
EXTRACT: note_on channel=9 note=42 velocity=98 time=0
EXTRACT: note_on channel=9 note=36 velocity=120 time=0
EXTRACT: note_on channel=9 note=54 velocity=66 time=0
EXTRACT: note_on channel=14 note=72 velocity=0 time=0
EXTRACT: note_on channel=9 note=42 velocity=0 time=0.049019583333333325
EXTRACT: note_on channel=9 note=36 velocity=0 time=0
EXTRACT: note_on channel=9 note=54 velocity=0 time=0
EXTRACT: note_on channel=9 note=42 velocity=75 time=0.24509791666666664
EXTRACT: note_on channel=9 note=40 velocity=127 time=0
EXTRACT: note_on channel=14 note=72 velocity=106 time=0
EXTRACT: note_on channel=9 note=42 velocity=0 time=0.049019583333333325
EXTRACT: note_on channel=9 note=40 velocity=0 time=0
EXTRACT: note_on channel=9 note=42 velocity=97 time=0.24509791666666664
EXTRACT: note_on channel=9 note=36 velocity=120 time=0
EXTRACT: note_on channel=9 note=54 velocity=81 time=0
EXTRACT: note_on channel=14 note=72 velocity=0 time=0
EXTRACT: note_on channel=9 note=42 velocity=0 time=0.049019583333333325
EXTRACT: note_on channel=9 note=36 velocity=0 time=0
EXTRACT: note_on channel=9 note=54 velocity=0 time=0
EXTRACT: note_on channel=9 note=42 velocity=80 time=0.24509791666666664
EXTRACT: note_on channel=9 note=36 velocity=120 time=0
EXTRACT: note_on channel=14 note=71 velocity=122 time=0
EXTRACT: note_on channel=9 note=42 velocity=0 time=0.049019583333333325
EXTRACT: note_on channel=9 note=36 velocity=0 time=0
EXTRACT: note_on channel=14 note=71 velocity=0 time=0.09803916666666665
EXTRACT: note_on channel=9 note=42 velocity=101 time=0.14705875
EXTRACT: note_on channel=9 note=54 velocity=74 time=0
EXTRACT: note_on channel=14 note=71 velocity=103 time=0
EXTRACT: note_on channel=9 note=42 velocity=0 time=0.049019583333333325
EXTRACT: note_on channel=9 note=54 velocity=0 time=0
EXTRACT: note_on channel=14 note=71 velocity=0 time=0.09313720833333332
EXTRACT: note_on channel=14 note=72 velocity=96 time=0.004901958333333333
EXTRACT: note_on channel=0 note=31 velocity=107 time=0.14705875
EXTRACT: note_on channel=8 note=31 velocity=107 time=0
EXTRACT: note_on channel=9 note=42 velocity=79 time=0
EXTRACT: note_on channel=9 note=40 velocity=127 time=0
EXTRACT: note_on channel=9 note=42 velocity=0 time=0.049019583333333325
EXTRACT: note_on channel=9 note=40 velocity=0 time=0
EXTRACT: note_on channel=14 note=72 velocity=0 time=0.09313720833333332
EXTRACT: note_on channel=14 note=74 velocity=104 time=0.004901958333333333
EXTRACT: note_on channel=0 note=31 velocity=0 time=0.14705875
EXTRACT: note_on channel=8 note=31 velocity=0 time=0
EXTRACT: note_on channel=9 note=42 velocity=103 time=0
EXTRACT: note_on channel=9 note=54 velocity=74 time=0
EXTRACT: note_on channel=14 note=74 velocity=0 time=0
EXTRACT: note_on channel=9 note=42 velocity=0 time=0.049019583333333325
EXTRACT: note_on channel=9 note=54 velocity=0 time=0
EXTRACT: note_on channel=0 note=36 velocity=115 time=0.24509791666666664
EXTRACT: note_on channel=8 note=24 velocity=118 time=0
EXTRACT: note_on channel=9 note=42 velocity=70 time=0
EXTRACT: note_on channel=9 note=36 velocity=120 time=0
EXTRACT: note_on channel=14 note=75 velocity=109 time=0
EXTRACT: note_on channel=9 note=42 velocity=0 time=0.049019583333333325
EXTRACT: note_on channel=9 note=36 velocity=0 time=0
EXTRACT: note_on channel=0 note=36 velocity=0 time=0.09803916666666665
EXTRACT: note_on channel=8 note=24 velocity=0 time=0.14215679166666664
EXTRACT: note_on channel=0 note=36 velocity=112 time=0.004901958333333333
EXTRACT: note_on channel=8 note=24 velocity=120 time=0
EXTRACT: note_on channel=9 note=42 velocity=102 time=0
EXTRACT: note_on channel=9 note=36 velocity=120 time=0
EXTRACT: note_on channel=9 note=54 velocity=67 time=0
EXTRACT: note_on channel=14 note=75 velocity=0 time=0
EXTRACT: note_on channel=9 note=42 velocity=0 time=0.049019583333333325
EXTRACT: note_on channel=9 note=36 velocity=0 time=0
EXTRACT: note_on channel=9 note=54 velocity=0 time=0
EXTRACT: note_on channel=0 note=36 velocity=0 time=0.09803916666666665
EXTRACT: note_on channel=14 note=67 velocity=121 time=0
EXTRACT: note_on channel=14 note=67 velocity=0 time=0.14215679166666664
EXTRACT: note_on channel=8 note=24 velocity=0 time=0.004901958333333333
EXTRACT: note_on channel=9 note=42 velocity=77 time=0
EXTRACT: note_on channel=9 note=40 velocity=127 time=0
EXTRACT: note_on channel=14 note=75 velocity=106 time=0
EXTRACT: note_on channel=9 note=42 velocity=0 time=0.049019583333333325
EXTRACT: note_on channel=9 note=40 velocity=0 time=0
EXTRACT: note_on channel=14 note=75 velocity=0 time=0.024509791666666662
EXTRACT: note_on channel=14 note=75 velocity=121 time=0.073529375
EXTRACT: note_on channel=14 note=75 velocity=0 time=0.073529375
EXTRACT: note_on channel=9 note=42 velocity=99 time=0.073529375
EXTRACT: note_on channel=9 note=36 velocity=120 time=0
EXTRACT: note_on channel=9 note=54 velocity=65 time=0
EXTRACT: note_on channel=14 note=75 velocity=118 time=0
EXTRACT: note_on channel=9 note=42 velocity=0 time=0.049019583333333325
EXTRACT: note_on channel=9 note=36 velocity=0 time=0
EXTRACT: note_on channel=9 note=54 velocity=0 time=0
EXTRACT: note_on channel=14 note=75 velocity=0 time=0.024509791666666662
EXTRACT: note_on channel=14 note=75 velocity=104 time=0.073529375
EXTRACT: note_on channel=14 note=75 velocity=0 time=0.073529375
EXTRACT: note_on channel=9 note=42 velocity=77 time=0.073529375
EXTRACT: note_on channel=9 note=36 velocity=120 time=0
EXTRACT: note_on channel=14 note=75 velocity=103 time=0
EXTRACT: note_on channel=9 note=42 velocity=0 time=0.049019583333333325
EXTRACT: note_on channel=9 note=36 velocity=0 time=0
EXTRACT: note_on channel=14 note=75 velocity=0 time=0.09313720833333332
EXTRACT: note_on channel=14 note=74 velocity=126 time=0.004901958333333333
EXTRACT: note_on channel=9 note=42 velocity=101 time=0.14705875
EXTRACT: note_on channel=9 note=54 velocity=69 time=0
EXTRACT: note_on channel=14 note=74 velocity=0 time=0
EXTRACT: note_on channel=9 note=42 velocity=0 time=0.049019583333333325
EXTRACT: note_on channel=9 note=54 velocity=0 time=0
EXTRACT: note_on channel=14 note=74 velocity=105 time=0.09803916666666665
EXTRACT: note_on channel=0 note=31 velocity=109 time=0.14705875
EXTRACT: note_on channel=8 note=31 velocity=105 time=0
EXTRACT: note_on channel=9 note=42 velocity=81 time=0
EXTRACT: note_on channel=9 note=40 velocity=127 time=0
EXTRACT: note_on channel=14 note=74 velocity=0 time=0
EXTRACT: note_on channel=9 note=42 velocity=0 time=0.049019583333333325
EXTRACT: note_on channel=9 note=40 velocity=0 time=0
EXTRACT: note_on channel=14 note=72 velocity=99 time=0.09803916666666665
EXTRACT: note_on channel=0 note=31 velocity=0 time=0.14705875
EXTRACT: note_on channel=8 note=31 velocity=0 time=0
EXTRACT: note_on channel=9 note=36 velocity=120 time=0
EXTRACT: note_on channel=9 note=42 velocity=95 time=0
EXTRACT: note_on channel=9 note=54 velocity=75 time=0
EXTRACT: note_on channel=14 note=72 velocity=0 time=0
EXTRACT: note_on channel=9 note=36 velocity=0 time=0.049019583333333325
EXTRACT: note_on channel=9 note=42 velocity=0 time=0
EXTRACT: note_on channel=9 note=54 velocity=0 time=0
EXTRACT: note_on channel=0 note=32 velocity=108 time=0.24509791666666664
EXTRACT: note_on channel=8 note=32 velocity=116 time=0
EXTRACT: note_on channel=9 note=42 velocity=73 time=0
EXTRACT: note_on channel=9 note=36 velocity=120 time=0
EXTRACT: note_on channel=14 note=72 velocity=116 time=0
EXTRACT: note_on channel=9 note=42 velocity=0 time=0.049019583333333325
EXTRACT: note_on channel=9 note=36 velocity=0 time=0
EXTRACT: note_on channel=0 note=32 velocity=0 time=0.24509791666666664
EXTRACT: note_on channel=8 note=32 velocity=0 time=0
EXTRACT: note_on channel=9 note=42 velocity=101 time=0
EXTRACT: note_on channel=9 note=36 velocity=120 time=0
EXTRACT: note_on channel=9 note=54 velocity=80 time=0
EXTRACT: note_on channel=14 note=72 velocity=0 time=0
EXTRACT: note_on channel=9 note=42 velocity=0 time=0.049019583333333325
EXTRACT: note_on channel=9 note=36 velocity=0 time=0
EXTRACT: note_on channel=9 note=54 velocity=0 time=0
EXTRACT: note_on channel=9 note=42 velocity=71 time=0.24509791666666664
EXTRACT: note_on channel=9 note=40 velocity=127 time=0
EXTRACT: note_on channel=14 note=72 velocity=116 time=0
EXTRACT: note_on channel=9 note=42 velocity=0 time=0.049019583333333325
EXTRACT: note_on channel=9 note=40 velocity=0 time=0
EXTRACT: note_on channel=14 note=72 velocity=0 time=0.09803916666666665
EXTRACT: note_on channel=9 note=42 velocity=100 time=0.14705875
EXTRACT: note_on channel=9 note=36 velocity=120 time=0
EXTRACT: note_on channel=9 note=54 velocity=75 time=0
EXTRACT: note_on channel=9 note=42 velocity=0 time=0.049019583333333325
EXTRACT: note_on channel=9 note=36 velocity=0 time=0
EXTRACT: note_on channel=9 note=54 velocity=0 time=0
EXTRACT: note_on channel=14 note=67 velocity=122 time=0.09803916666666665
EXTRACT: note_on channel=14 note=67 velocity=0 time=0.01960783333333333
EXTRACT: note_on channel=0 note=32 velocity=114 time=0.12745091666666666
EXTRACT: note_on channel=9 note=42 velocity=78 time=0
EXTRACT: note_on channel=9 note=36 velocity=120 time=0
EXTRACT: note_on channel=14 note=79 velocity=107 time=0
EXTRACT: note_on channel=0 note=32 velocity=0 time=0.049019583333333325
EXTRACT: note_on channel=9 note=42 velocity=0 time=0
EXTRACT: note_on channel=9 note=36 velocity=0 time=0
EXTRACT: note_on channel=14 note=79 velocity=0 time=0.024509791666666662
EXTRACT: note_on channel=0 note=44 velocity=107 time=0.073529375
EXTRACT: note_on channel=9 note=87 velocity=80 time=0
EXTRACT: note_on channel=14 note=79 velocity=97 time=0
EXTRACT: note_on channel=0 note=44 velocity=0 time=0.049019583333333325
EXTRACT: note_on channel=9 note=87 velocity=0 time=0
EXTRACT: note_on channel=14 note=79 velocity=0 time=0.024509791666666662
EXTRACT: note_on channel=0 note=33 velocity=125 time=0.073529375
EXTRACT: note_on channel=9 note=36 velocity=120 time=0
EXTRACT: note_on channel=9 note=42 velocity=100 time=0
EXTRACT: note_on channel=9 note=54 velocity=66 time=0
EXTRACT: note_on channel=14 note=77 velocity=118 time=0
EXTRACT: note_on channel=9 note=36 velocity=0 time=0.049019583333333325
EXTRACT: note_on channel=9 note=42 velocity=0 time=0
EXTRACT: note_on channel=9 note=54 velocity=0 time=0
EXTRACT: note_on channel=0 note=33 velocity=0 time=0.09803916666666665
EXTRACT: note_on channel=14 note=77 velocity=0 time=0
EXTRACT: note_on channel=0 note=31 velocity=110 time=0.14705875
EXTRACT: note_on channel=9 note=42 velocity=83 time=0
EXTRACT: note_on channel=9 note=40 velocity=127 time=0
EXTRACT: note_on channel=14 note=72 velocity=127 time=0
EXTRACT: note_on channel=9 note=42 velocity=0 time=0.049019583333333325
EXTRACT: note_on channel=9 note=40 velocity=0 time=0
EXTRACT: note_on channel=0 note=31 velocity=0 time=0.09803916666666665
EXTRACT: note_on channel=0 note=31 velocity=108 time=0.14705875
EXTRACT: note_on channel=9 note=36 velocity=120 time=0
EXTRACT: note_on channel=9 note=42 velocity=96 time=0
EXTRACT: note_on channel=9 note=54 velocity=85 time=0
EXTRACT: note_on channel=14 note=72 velocity=0 time=0
EXTRACT: note_on channel=9 note=36 velocity=0 time=0.049019583333333325
EXTRACT: note_on channel=9 note=42 velocity=0 time=0
EXTRACT: note_on channel=9 note=54 velocity=0 time=0
EXTRACT: note_on channel=0 note=31 velocity=0 time=0.09803916666666665
EXTRACT: note_on channel=0 note=36 velocity=107 time=0.14705875
EXTRACT: note_on channel=1 note=60 velocity=103 time=0
EXTRACT: control_change channel=2 control=1 value=50 time=0
EXTRACT: note_on channel=2 note=60 velocity=118 time=0
EXTRACT: note_on channel=2 note=67 velocity=127 time=0
EXTRACT: note_on channel=2 note=63 velocity=106 time=0
EXTRACT: note_on channel=8 note=24 velocity=118 time=0
EXTRACT: note_on channel=9 note=49 velocity=100 time=0
EXTRACT: note_on channel=9 note=36 velocity=120 time=0
EXTRACT: note_on channel=9 note=49 velocity=0 time=0.049019583333333325
EXTRACT: note_on channel=9 note=36 velocity=0 time=0
EXTRACT: note_on channel=0 note=36 velocity=0 time=0.09803916666666665
EXTRACT: note_on channel=8 note=24 velocity=0 time=0.14215679166666664
EXTRACT: note_on channel=0 note=36 velocity=119 time=0.004901958333333333
EXTRACT: note_on channel=1 note=60 velocity=0 time=0
EXTRACT: note_on channel=8 note=24 velocity=105 time=0
EXTRACT: note_on channel=9 note=42 velocity=105 time=0
EXTRACT: note_on channel=9 note=36 velocity=120 time=0
EXTRACT: note_on channel=9 note=54 velocity=85 time=0
EXTRACT: note_on channel=9 note=42 velocity=0 time=0.049019583333333325
EXTRACT: note_on channel=9 note=36 velocity=0 time=0
EXTRACT: note_on channel=9 note=54 velocity=0 time=0
EXTRACT: note_on channel=0 note=36 velocity=0 time=0.09803916666666665
EXTRACT: note_on channel=14 note=67 velocity=99 time=0
EXTRACT: note_on channel=14 note=67 velocity=0 time=0.14215679166666664
EXTRACT: note_on channel=8 note=24 velocity=0 time=0.004901958333333333
EXTRACT: note_on channel=9 note=42 velocity=77 time=0
EXTRACT: note_on channel=9 note=40 velocity=127 time=0
EXTRACT: note_on channel=14 note=75 velocity=100 time=0
EXTRACT: note_on channel=9 note=42 velocity=0 time=0.049019583333333325
EXTRACT: note_on channel=9 note=40 velocity=0 time=0
EXTRACT: note_on channel=14 note=75 velocity=0 time=0.09803916666666665
EXTRACT: note_on channel=9 note=42 velocity=98 time=0.14705875
EXTRACT: note_on channel=9 note=36 velocity=120 time=0
EXTRACT: note_on channel=9 note=54 velocity=70 time=0
EXTRACT: note_on channel=14 note=75 velocity=109 time=0
EXTRACT: note_on channel=9 note=42 velocity=0 time=0.049019583333333325
EXTRACT: note_on channel=9 note=36 velocity=0 time=0
EXTRACT: note_on channel=9 note=54 velocity=0 time=0
EXTRACT: note_on channel=14 note=75 velocity=0 time=0.09803916666666665
EXTRACT: note_on channel=9 note=42 velocity=84 time=0.14705875
EXTRACT: note_on channel=9 note=36 velocity=120 time=0
EXTRACT: note_on channel=14 note=75 velocity=124 time=0
EXTRACT: note_on channel=9 note=42 velocity=0 time=0.049019583333333325
EXTRACT: note_on channel=9 note=36 velocity=0 time=0
EXTRACT: note_on channel=14 note=75 velocity=0 time=0.09313720833333332
EXTRACT: note_on channel=14 note=74 velocity=112 time=0.004901958333333333
EXTRACT: note_on channel=9 note=42 velocity=98 time=0.14705875
EXTRACT: note_on channel=9 note=54 velocity=76 time=0
EXTRACT: note_on channel=14 note=74 velocity=0 time=0
EXTRACT: note_on channel=9 note=42 velocity=0 time=0.049019583333333325
EXTRACT: note_on channel=9 note=54 velocity=0 time=0
EXTRACT: note_on channel=14 note=74 velocity=123 time=0.09803916666666665
EXTRACT: note_on channel=0 note=31 velocity=127 time=0.14705875
EXTRACT: note_on channel=8 note=31 velocity=116 time=0
EXTRACT: note_on channel=9 note=42 velocity=80 time=0
EXTRACT: note_on channel=9 note=40 velocity=127 time=0
EXTRACT: note_on channel=14 note=74 velocity=0 time=0
EXTRACT: note_on channel=9 note=42 velocity=0 time=0.049019583333333325
EXTRACT: note_on channel=9 note=40 velocity=0 time=0
EXTRACT: note_on channel=14 note=72 velocity=104 time=0.09803916666666665
EXTRACT: note_on channel=0 note=31 velocity=0 time=0.14705875
EXTRACT: note_on channel=8 note=31 velocity=0 time=0
EXTRACT: note_on channel=9 note=42 velocity=102 time=0
EXTRACT: note_on channel=9 note=54 velocity=77 time=0
EXTRACT: note_on channel=14 note=72 velocity=0 time=0
EXTRACT: note_on channel=9 note=42 velocity=0 time=0.049019583333333325
EXTRACT: note_on channel=9 note=54 velocity=0 time=0
EXTRACT: note_on channel=0 note=32 velocity=126 time=0.24509791666666664
EXTRACT: note_on channel=2 note=60 velocity=0 time=0
EXTRACT: note_on channel=2 note=67 velocity=0 time=0
EXTRACT: note_on channel=2 note=63 velocity=0 time=0
EXTRACT: note_on channel=2 note=68 velocity=126 time=0
EXTRACT: note_on channel=2 note=60 velocity=116 time=0
EXTRACT: note_on channel=2 note=63 velocity=123 time=0
EXTRACT: note_on channel=8 note=32 velocity=114 time=0
EXTRACT: note_on channel=9 note=42 velocity=73 time=0
EXTRACT: note_on channel=9 note=36 velocity=120 time=0
EXTRACT: note_on channel=14 note=72 velocity=99 time=0
EXTRACT: note_on channel=9 note=42 velocity=0 time=0.049019583333333325
EXTRACT: note_on channel=9 note=36 velocity=0 time=0
EXTRACT: note_on channel=0 note=32 velocity=0 time=0.24509791666666664
EXTRACT: note_on channel=8 note=32 velocity=0 time=0
EXTRACT: note_on channel=9 note=42 velocity=99 time=0
EXTRACT: note_on channel=9 note=36 velocity=120 time=0
EXTRACT: note_on channel=9 note=54 velocity=84 time=0
EXTRACT: note_on channel=14 note=72 velocity=0 time=0
EXTRACT: note_on channel=9 note=42 velocity=0 time=0.049019583333333325
EXTRACT: note_on channel=9 note=36 velocity=0 time=0
EXTRACT: note_on channel=9 note=54 velocity=0 time=0
EXTRACT: note_on channel=9 note=42 velocity=75 time=0.24509791666666664
EXTRACT: note_on channel=9 note=40 velocity=127 time=0
EXTRACT: note_on channel=14 note=72 velocity=98 time=0
EXTRACT: note_on channel=9 note=42 velocity=0 time=0.049019583333333325
EXTRACT: note_on channel=9 note=40 velocity=0 time=0
EXTRACT: note_on channel=9 note=42 velocity=104 time=0.24509791666666664
EXTRACT: note_on channel=9 note=36 velocity=120 time=0
EXTRACT: note_on channel=9 note=54 velocity=67 time=0
EXTRACT: note_on channel=14 note=72 velocity=0 time=0
EXTRACT: note_on channel=9 note=42 velocity=0 time=0.049019583333333325
EXTRACT: note_on channel=9 note=36 velocity=0 time=0
EXTRACT: note_on channel=9 note=54 velocity=0 time=0
EXTRACT: note_on channel=2 note=68 velocity=0 time=0.24509791666666664
EXTRACT: note_on channel=2 note=60 velocity=0 time=0
EXTRACT: note_on channel=2 note=63 velocity=0 time=0
EXTRACT: note_on channel=2 note=65 velocity=83 time=0
EXTRACT: note_on channel=2 note=59 velocity=105 time=0
EXTRACT: note_on channel=2 note=67 velocity=127 time=0
EXTRACT: note_on channel=2 note=62 velocity=116 time=0
EXTRACT: note_on channel=9 note=42 velocity=77 time=0
EXTRACT: note_on channel=9 note=36 velocity=120 time=0
EXTRACT: note_on channel=14 note=71 velocity=109 time=0
EXTRACT: note_on channel=9 note=42 velocity=0 time=0.049019583333333325
EXTRACT: note_on channel=9 note=36 velocity=0 time=0
EXTRACT: note_on channel=14 note=71 velocity=0 time=0.09803916666666665
EXTRACT: note_on channel=9 note=42 velocity=100 time=0.14705875
EXTRACT: note_on channel=9 note=54 velocity=66 time=0
EXTRACT: note_on channel=14 note=71 velocity=103 time=0
EXTRACT: note_on channel=9 note=42 velocity=0 time=0.049019583333333325
EXTRACT: note_on channel=9 note=54 velocity=0 time=0
EXTRACT: note_on channel=14 note=71 velocity=0 time=0.09313720833333332
EXTRACT: note_on channel=14 note=72 velocity=110 time=0.004901958333333333
EXTRACT: note_on channel=0 note=31 velocity=114 time=0.14705875
EXTRACT: note_on channel=8 note=31 velocity=110 time=0
EXTRACT: note_on channel=9 note=42 velocity=79 time=0
EXTRACT: note_on channel=9 note=40 velocity=127 time=0
EXTRACT: note_on channel=9 note=42 velocity=0 time=0.049019583333333325
EXTRACT: note_on channel=9 note=40 velocity=0 time=0
EXTRACT: note_on channel=14 note=72 velocity=0 time=0.09803916666666665
EXTRACT: note_on channel=0 note=31 velocity=0 time=0.14705875
EXTRACT: note_on channel=8 note=31 velocity=0 time=0
EXTRACT: note_on channel=9 note=42 velocity=101 time=0
EXTRACT: note_on channel=9 note=54 velocity=72 time=0
EXTRACT: note_on channel=14 note=74 velocity=105 time=0
EXTRACT: note_on channel=9 note=42 velocity=0 time=0.049019583333333325
EXTRACT: note_on channel=9 note=54 velocity=0 time=0
EXTRACT: note_on channel=14 note=74 velocity=0 time=0.09803916666666665
EXTRACT: note_on channel=0 note=36 velocity=106 time=0.14705875
EXTRACT: note_on channel=2 note=65 velocity=0 time=0
EXTRACT: note_on channel=2 note=59 velocity=0 time=0
EXTRACT: note_on channel=2 note=67 velocity=0 time=0
EXTRACT: note_on channel=2 note=62 velocity=0 time=0
EXTRACT: note_on channel=2 note=60 velocity=103 time=0
EXTRACT: note_on channel=2 note=67 velocity=116 time=0
EXTRACT: note_on channel=2 note=63 velocity=118 time=0
EXTRACT: note_on channel=8 note=24 velocity=108 time=0
EXTRACT: note_on channel=9 note=42 velocity=71 time=0
EXTRACT: note_on channel=9 note=36 velocity=120 time=0
EXTRACT: note_on channel=14 note=75 velocity=104 time=0
EXTRACT: note_on channel=9 note=42 velocity=0 time=0.049019583333333325
EXTRACT: note_on channel=9 note=36 velocity=0 time=0
EXTRACT: note_on channel=0 note=36 velocity=0 time=0.09803916666666665
EXTRACT: note_on channel=8 note=24 velocity=0 time=0.14215679166666664
EXTRACT: note_on channel=0 note=36 velocity=119 time=0.004901958333333333
EXTRACT: note_on channel=8 note=24 velocity=96 time=0
EXTRACT: note_on channel=9 note=42 velocity=103 time=0
EXTRACT: note_on channel=9 note=36 velocity=120 time=0
EXTRACT: note_on channel=9 note=54 velocity=66 time=0
EXTRACT: note_on channel=14 note=75 velocity=0 time=0
EXTRACT: note_on channel=9 note=42 velocity=0 time=0.049019583333333325
EXTRACT: note_on channel=9 note=36 velocity=0 time=0
EXTRACT: note_on channel=9 note=54 velocity=0 time=0
EXTRACT: note_on channel=0 note=36 velocity=0 time=0.09803916666666665
EXTRACT: note_on channel=14 note=67 velocity=104 time=0
EXTRACT: note_on channel=14 note=67 velocity=0 time=0.14215679166666664
EXTRACT: note_on channel=8 note=24 velocity=0 time=0.004901958333333333
EXTRACT: note_on channel=9 note=42 velocity=76 time=0
EXTRACT: note_on channel=9 note=40 velocity=127 time=0
EXTRACT: note_on channel=14 note=75 velocity=115 time=0
EXTRACT: note_on channel=9 note=42 velocity=0 time=0.049019583333333325
EXTRACT: note_on channel=9 note=40 velocity=0 time=0
EXTRACT: note_on channel=14 note=75 velocity=0 time=0.024509791666666662
EXTRACT: note_on channel=14 note=75 velocity=116 time=0.073529375
EXTRACT: note_on channel=14 note=75 velocity=0 time=0.073529375
EXTRACT: note_on channel=9 note=42 velocity=101 time=0.073529375
EXTRACT: note_on channel=9 note=36 velocity=120 time=0
EXTRACT: note_on channel=9 note=54 velocity=70 time=0
EXTRACT: note_on channel=14 note=75 velocity=124 time=0
EXTRACT: note_on channel=9 note=42 velocity=0 time=0.049019583333333325
EXTRACT: note_on channel=9 note=36 velocity=0 time=0
EXTRACT: note_on channel=9 note=54 velocity=0 time=0
EXTRACT: note_on channel=14 note=75 velocity=0 time=0.024509791666666662
EXTRACT: note_on channel=14 note=75 velocity=121 time=0.073529375
EXTRACT: note_on channel=14 note=75 velocity=0 time=0.073529375
EXTRACT: note_on channel=9 note=42 velocity=79 time=0.073529375
EXTRACT: note_on channel=9 note=36 velocity=120 time=0
EXTRACT: note_on channel=14 note=75 velocity=112 time=0
EXTRACT: note_on channel=9 note=42 velocity=0 time=0.049019583333333325
EXTRACT: note_on channel=9 note=36 velocity=0 time=0
EXTRACT: note_on channel=14 note=75 velocity=0 time=0.09313720833333332
EXTRACT: note_on channel=14 note=74 velocity=95 time=0.004901958333333333
EXTRACT: note_on channel=9 note=42 velocity=98 time=0.14705875
EXTRACT: note_on channel=9 note=54 velocity=72 time=0
EXTRACT: note_on channel=14 note=74 velocity=0 time=0
EXTRACT: note_on channel=9 note=42 velocity=0 time=0.049019583333333325
EXTRACT: note_on channel=9 note=54 velocity=0 time=0
EXTRACT: note_on channel=14 note=74 velocity=119 time=0.09803916666666665
EXTRACT: note_on channel=0 note=31 velocity=113 time=0.14705875
EXTRACT: note_on channel=8 note=31 velocity=106 time=0
EXTRACT: note_on channel=9 note=42 velocity=80 time=0
EXTRACT: note_on channel=9 note=40 velocity=127 time=0
EXTRACT: note_on channel=14 note=74 velocity=0 time=0
EXTRACT: note_on channel=9 note=42 velocity=0 time=0.049019583333333325
EXTRACT: note_on channel=9 note=40 velocity=0 time=0
EXTRACT: note_on channel=14 note=72 velocity=96 time=0.09803916666666665
EXTRACT: note_on channel=0 note=31 velocity=0 time=0.14705875
EXTRACT: note_on channel=8 note=31 velocity=0 time=0
EXTRACT: note_on channel=9 note=36 velocity=120 time=0
EXTRACT: note_on channel=9 note=42 velocity=99 time=0
EXTRACT: note_on channel=9 note=54 velocity=81 time=0
EXTRACT: note_on channel=14 note=72 velocity=0 time=0
EXTRACT: note_on channel=9 note=36 velocity=0 time=0.049019583333333325
EXTRACT: note_on channel=9 note=42 velocity=0 time=0
EXTRACT: note_on channel=9 note=54 velocity=0 time=0
EXTRACT: note_on channel=0 note=32 velocity=102 time=0.24509791666666664
EXTRACT: note_on channel=2 note=60 velocity=0 time=0
EXTRACT: note_on channel=2 note=67 velocity=0 time=0
EXTRACT: note_on channel=2 note=63 velocity=0 time=0
EXTRACT: note_on channel=2 note=68 velocity=105 time=0
EXTRACT: note_on channel=2 note=60 velocity=105 time=0
EXTRACT: note_on channel=2 note=63 velocity=107 time=0
EXTRACT: note_on channel=8 note=32 velocity=95 time=0
EXTRACT: note_on channel=9 note=42 velocity=71 time=0
EXTRACT: note_on channel=9 note=36 velocity=120 time=0
EXTRACT: note_on channel=14 note=72 velocity=114 time=0
EXTRACT: note_on channel=9 note=42 velocity=0 time=0.049019583333333325
EXTRACT: note_on channel=9 note=36 velocity=0 time=0
EXTRACT: note_on channel=0 note=32 velocity=0 time=0.24509791666666664
EXTRACT: note_on channel=8 note=32 velocity=0 time=0
EXTRACT: note_on channel=9 note=42 velocity=105 time=0
EXTRACT: note_on channel=9 note=54 velocity=85 time=0
EXTRACT: note_on channel=14 note=72 velocity=0 time=0
EXTRACT: note_on channel=9 note=42 velocity=0 time=0.049019583333333325
EXTRACT: note_on channel=9 note=54 velocity=0 time=0
EXTRACT: note_on channel=9 note=42 velocity=74 time=0.24509791666666664
EXTRACT: note_on channel=9 note=40 velocity=127 time=0
EXTRACT: note_on channel=14 note=72 velocity=108 time=0
EXTRACT: note_on channel=9 note=42 velocity=0 time=0.049019583333333325
EXTRACT: note_on channel=9 note=40 velocity=0 time=0
EXTRACT: note_on channel=14 note=72 velocity=0 time=0.09803916666666665
EXTRACT: note_on channel=9 note=42 velocity=102 time=0.14705875
EXTRACT: note_on channel=9 note=36 velocity=120 time=0
EXTRACT: note_on channel=9 note=54 velocity=73 time=0
EXTRACT: note_on channel=9 note=42 velocity=0 time=0.049019583333333325
EXTRACT: note_on channel=9 note=36 velocity=0 time=0
EXTRACT: note_on channel=9 note=54 velocity=0 time=0
EXTRACT: note_on channel=14 note=67 velocity=115 time=0.09803916666666665
EXTRACT: note_on channel=14 note=67 velocity=0 time=0.01960783333333333
EXTRACT: note_on channel=0 note=31 velocity=119 time=0.12745091666666666
EXTRACT: note_on channel=2 note=68 velocity=0 time=0
EXTRACT: note_on channel=2 note=60 velocity=0 time=0
EXTRACT: note_on channel=2 note=63 velocity=0 time=0
EXTRACT: note_on channel=2 note=65 velocity=94 time=0
EXTRACT: note_on channel=2 note=59 velocity=108 time=0
EXTRACT: note_on channel=2 note=67 velocity=120 time=0
EXTRACT: note_on channel=2 note=62 velocity=121 time=0
EXTRACT: note_on channel=9 note=42 velocity=76 time=0
EXTRACT: note_on channel=9 note=36 velocity=120 time=0
EXTRACT: note_on channel=14 note=79 velocity=121 time=0
EXTRACT: note_on channel=9 note=42 velocity=0 time=0.049019583333333325
EXTRACT: note_on channel=9 note=36 velocity=0 time=0
EXTRACT: note_on channel=14 note=79 velocity=0 time=0.024509791666666662
EXTRACT: note_on channel=0 note=31 velocity=0 time=0.073529375
EXTRACT: note_on channel=14 note=79 velocity=111 time=0
EXTRACT: note_on channel=14 note=79 velocity=0 time=0.073529375
EXTRACT: note_on channel=0 note=31 velocity=114 time=0.073529375
EXTRACT: note_on channel=9 note=36 velocity=120 time=0
EXTRACT: note_on channel=9 note=42 velocity=103 time=0
EXTRACT: note_on channel=9 note=54 velocity=85 time=0
EXTRACT: note_on channel=14 note=77 velocity=99 time=0
EXTRACT: note_on channel=9 note=36 velocity=0 time=0.049019583333333325
EXTRACT: note_on channel=9 note=42 velocity=0 time=0
EXTRACT: note_on channel=9 note=54 velocity=0 time=0
EXTRACT: note_on channel=0 note=31 velocity=0 time=0.09803916666666665
EXTRACT: note_on channel=14 note=77 velocity=0 time=0
EXTRACT: note_on channel=0 note=31 velocity=110 time=0.14705875
EXTRACT: note_on channel=9 note=42 velocity=79 time=0
EXTRACT: note_on channel=9 note=40 velocity=127 time=0
EXTRACT: note_on channel=14 note=72 velocity=124 time=0
EXTRACT: note_on channel=9 note=42 velocity=0 time=0.049019583333333325
EXTRACT: note_on channel=9 note=40 velocity=0 time=0
EXTRACT: note_on channel=0 note=31 velocity=0 time=0.09803916666666665
EXTRACT: note_on channel=0 note=31 velocity=105 time=0.14705875
EXTRACT: note_on channel=9 note=42 velocity=98 time=0
EXTRACT: note_on channel=9 note=54 velocity=78 time=0
EXTRACT: note_on channel=14 note=72 velocity=0 time=0
EXTRACT: note_on channel=9 note=42 velocity=0 time=0.049019583333333325
EXTRACT: note_on channel=9 note=54 velocity=0 time=0
EXTRACT: note_on channel=0 note=31 velocity=0 time=0.09803916666666665
EXTRACT: note_on channel=11 note=55 velocity=96 time=0.14583326041666664
EXTRACT: note_on channel=11 note=60 velocity=101 time=0
EXTRACT: note_on channel=11 note=63 velocity=91 time=0
EXTRACT: note_on channel=0 note=36 velocity=127 time=0.0012254895833333332
EXTRACT: note_on channel=1 note=60 velocity=123 time=0
EXTRACT: note_on channel=2 note=65 velocity=0 time=0
EXTRACT: note_on channel=2 note=59 velocity=0 time=0
EXTRACT: note_on channel=2 note=67 velocity=0 time=0
EXTRACT: note_on channel=2 note=62 velocity=0 time=0
EXTRACT: note_on channel=2 note=60 velocity=119 time=0
EXTRACT: note_on channel=2 note=63 velocity=108 time=0
EXTRACT: note_on channel=2 note=67 velocity=109 time=0
EXTRACT: control_change channel=3 control=11 value=100 time=0
EXTRACT: note_on channel=3 note=55 velocity=87 time=0
EXTRACT: note_on channel=3 note=60 velocity=89 time=0
EXTRACT: note_on channel=7 note=72 velocity=99 time=0
EXTRACT: note_on channel=9 note=49 velocity=100 time=0
EXTRACT: note_on channel=9 note=36 velocity=120 time=0
EXTRACT: note_on channel=14 note=72 velocity=127 time=0
EXTRACT: control_change channel=3 control=11 value=101 time=0.01960783333333333
EXTRACT: control_change channel=3 control=11 value=102 time=0.024509791666666662
EXTRACT: note_on channel=9 note=49 velocity=0 time=0.004901958333333333
EXTRACT: note_on channel=9 note=36 velocity=0 time=0
EXTRACT: control_change channel=3 control=11 value=103 time=0.014705874999999998
EXTRACT: control_change channel=3 control=11 value=104 time=0.024509791666666662
EXTRACT: control_change channel=3 control=11 value=105 time=0.01960783333333333
EXTRACT: control_change channel=3 control=11 value=106 time=0.024509791666666662
EXTRACT: note_on channel=11 note=55 velocity=0 time=0.013480385416666666
EXTRACT: note_on channel=11 note=60 velocity=0 time=0
EXTRACT: note_on channel=11 note=63 velocity=0 time=0
EXTRACT: control_change channel=3 control=11 value=107 time=0.006127447916666666
EXTRACT: control_change channel=3 control=11 value=108 time=0.024509791666666662
EXTRACT: control_change channel=3 control=11 value=109 time=0.01960783333333333
EXTRACT: control_change channel=3 control=11 value=110 time=0.01960783333333333
EXTRACT: control_change channel=3 control=11 value=111 time=0.024509791666666662
EXTRACT: control_change channel=3 control=11 value=112 time=0.01960783333333333
EXTRACT: control_change channel=3 control=11 value=113 time=0.024509791666666662
EXTRACT: note_on channel=11 note=55 velocity=100 time=0.008578427083333333
EXTRACT: note_on channel=11 note=60 velocity=106 time=0
EXTRACT: note_on channel=11 note=63 velocity=90 time=0
EXTRACT: note_on channel=1 note=60 velocity=0 time=0.0012254895833333332
EXTRACT: note_on channel=9 note=42 velocity=104 time=0
EXTRACT: note_on channel=9 note=54 velocity=79 time=0
EXTRACT: note_on channel=14 note=72 velocity=0 time=0
EXTRACT: control_change channel=3 control=11 value=114 time=0.009803916666666666
EXTRACT: control_change channel=3 control=11 value=115 time=0.024509791666666662
EXTRACT: note_on channel=9 note=42 velocity=0 time=0.014705874999999998
EXTRACT: note_on channel=9 note=54 velocity=0 time=0
EXTRACT: control_change channel=3 control=11 value=116 time=0.004901958333333333
EXTRACT: control_change channel=3 control=11 value=117 time=0.024509791666666662
EXTRACT: control_change channel=3 control=11 value=118 time=0.01960783333333333
EXTRACT: control_change channel=3 control=11 value=119 time=0.01960783333333333
EXTRACT: control_change channel=3 control=11 value=120 time=0.024509791666666662
EXTRACT: note_on channel=11 note=55 velocity=0 time=0.0036764687499999996
EXTRACT: note_on channel=11 note=60 velocity=0 time=0
EXTRACT: note_on channel=11 note=63 velocity=0 time=0
EXTRACT: control_change channel=3 control=11 value=121 time=0.015931364583333333
EXTRACT: control_change channel=3 control=11 value=122 time=0.024509791666666662
EXTRACT: control_change channel=3 control=11 value=123 time=0.01960783333333333
EXTRACT: control_change channel=3 control=11 value=124 time=0.024509791666666662
EXTRACT: control_change channel=3 control=11 value=125 time=0.01960783333333333
EXTRACT: control_change channel=3 control=11 value=126 time=0.024509791666666662
EXTRACT: note_on channel=11 note=55 velocity=96 time=0.01838234375
EXTRACT: note_on channel=11 note=60 velocity=97 time=0
EXTRACT: note_on channel=11 note=63 velocity=92 time=0
EXTRACT: control_change channel=3 control=11 value=127 time=0.0012254895833333332
EXTRACT: note_on channel=9 note=42 velocity=78 time=0
EXTRACT: note_on channel=9 note=40 velocity=127 time=0
EXTRACT: note_on channel=14 note=72 velocity=97 time=0
EXTRACT: note_on channel=9 note=42 velocity=0 time=0.049019583333333325
EXTRACT: note_on channel=9 note=40 velocity=0 time=0
EXTRACT: note_on channel=11 note=55 velocity=0 time=0.09681367708333333
EXTRACT: note_on channel=11 note=60 velocity=0 time=0
EXTRACT: note_on channel=11 note=63 velocity=0 time=0
EXTRACT: note_on channel=0 note=36 velocity=0 time=0.0012254895833333332
EXTRACT: note_on channel=11 note=55 velocity=107 time=0.14583326041666664
EXTRACT: note_on channel=11 note=60 velocity=107 time=0
EXTRACT: note_on channel=11 note=63 velocity=104 time=0
EXTRACT: note_on channel=0 note=36 velocity=104 time=0.0012254895833333332
EXTRACT: note_on channel=9 note=42 velocity=99 time=0
EXTRACT: note_on channel=9 note=36 velocity=120 time=0
EXTRACT: note_on channel=9 note=54 velocity=82 time=0
EXTRACT: note_on channel=14 note=72 velocity=0 time=0
EXTRACT: note_on channel=9 note=42 velocity=0 time=0.049019583333333325
EXTRACT: note_on channel=9 note=36 velocity=0 time=0
EXTRACT: note_on channel=9 note=54 velocity=0 time=0
EXTRACT: note_on channel=11 note=55 velocity=0 time=0.09681367708333333
EXTRACT: note_on channel=11 note=60 velocity=0 time=0
EXTRACT: note_on channel=11 note=63 velocity=0 time=0
EXTRACT: note_on channel=0 note=36 velocity=0 time=0.0012254895833333332
EXTRACT: note_on channel=11 note=58 velocity=87 time=0.14583326041666664
EXTRACT: note_on channel=11 note=62 velocity=88 time=0
EXTRACT: note_on channel=11 note=65 velocity=95 time=0
EXTRACT: note_on channel=0 note=38 velocity=110 time=0.0012254895833333332
EXTRACT: note_on channel=2 note=60 velocity=0 time=0
EXTRACT: note_on channel=2 note=63 velocity=0 time=0
EXTRACT: note_on channel=2 note=67 velocity=0 time=0
EXTRACT: note_on channel=2 note=58 velocity=111 time=0
EXTRACT: note_on channel=2 note=62 velocity=112 time=0
EXTRACT: note_on channel=2 note=65 velocity=127 time=0
EXTRACT: note_on channel=3 note=55 velocity=0 time=0
EXTRACT: note_on channel=3 note=60 velocity=0 time=0
EXTRACT: note_on channel=3 note=58 velocity=79 time=0
EXTRACT: note_on channel=3 note=62 velocity=99 time=0
EXTRACT: note_on channel=7 note=72 velocity=0 time=0
EXTRACT: note_on channel=7 note=74 velocity=97 time=0
EXTRACT: note_on channel=9 note=42 velocity=81 time=0
EXTRACT: note_on channel=9 note=36 velocity=120 time=0
EXTRACT: note_on channel=14 note=74 velocity=106 time=0
EXTRACT: note_on channel=9 note=42 velocity=0 time=0.049019583333333325
EXTRACT: note_on channel=9 note=36 velocity=0 time=0
EXTRACT: note_on channel=11 note=58 velocity=0 time=0.09681367708333333
EXTRACT: note_on channel=11 note=62 velocity=0 time=0
EXTRACT: note_on channel=11 note=65 velocity=0 time=0
EXTRACT: note_on channel=14 note=74 velocity=0 time=0.14338228125
EXTRACT: note_on channel=11 note=58 velocity=96 time=0.0036764687499999996
EXTRACT: note_on channel=11 note=62 velocity=89 time=0
EXTRACT: note_on channel=11 note=65 velocity=89 time=0
EXTRACT: note_on channel=9 note=42 velocity=97 time=0.0012254895833333332
EXTRACT: note_on channel=9 note=54 velocity=70 time=0
EXTRACT: note_on channel=14 note=74 velocity=125 time=0
EXTRACT: note_on channel=9 note=42 velocity=0 time=0.049019583333333325
EXTRACT: note_on channel=9 note=54 velocity=0 time=0
EXTRACT: note_on channel=14 note=74 velocity=0 time=0.09313720833333332
EXTRACT: note_on channel=11 note=58 velocity=0 time=0.0036764687499999996
EXTRACT: note_on channel=11 note=62 velocity=0 time=0
EXTRACT: note_on channel=11 note=65 velocity=0 time=0
EXTRACT: note_on channel=14 note=74 velocity=120 time=0.0012254895833333332
EXTRACT: note_on channel=11 note=58 velocity=106 time=0.14583326041666664
EXTRACT: note_on channel=11 note=62 velocity=89 time=0
EXTRACT: note_on channel=11 note=65 velocity=110 time=0
EXTRACT: note_on channel=0 note=38 velocity=0 time=0.0012254895833333332
EXTRACT: note_on channel=9 note=42 velocity=83 time=0
EXTRACT: note_on channel=9 note=40 velocity=127 time=0
EXTRACT: note_on channel=14 note=74 velocity=0 time=0
EXTRACT: note_on channel=9 note=42 velocity=0 time=0.049019583333333325
EXTRACT: note_on channel=9 note=40 velocity=0 time=0
EXTRACT: note_on channel=11 note=58 velocity=0 time=0.09681367708333333
EXTRACT: note_on channel=11 note=62 velocity=0 time=0
EXTRACT: note_on channel=11 note=65 velocity=0 time=0
EXTRACT: note_on channel=11 note=58 velocity=107 time=0.14705875
EXTRACT: note_on channel=11 note=62 velocity=96 time=0
EXTRACT: note_on channel=11 note=65 velocity=106 time=0
EXTRACT: note_on channel=9 note=42 velocity=99 time=0.0012254895833333332
EXTRACT: note_on channel=9 note=54 velocity=79 time=0
EXTRACT: note_on channel=14 note=74 velocity=102 time=0
EXTRACT: note_on channel=9 note=42 velocity=0 time=0.049019583333333325
EXTRACT: note_on channel=9 note=54 velocity=0 time=0
EXTRACT: note_on channel=11 note=58 velocity=0 time=0.09681367708333333
EXTRACT: note_on channel=11 note=62 velocity=0 time=0
EXTRACT: note_on channel=11 note=65 velocity=0 time=0
EXTRACT: note_on channel=14 note=74 velocity=0 time=0.0012254895833333332
EXTRACT: note_on channel=11 note=56 velocity=99 time=0.14583326041666664
EXTRACT: note_on channel=11 note=60 velocity=110 time=0
EXTRACT: note_on channel=11 note=63 velocity=102 time=0
EXTRACT: note_on channel=0 note=44 velocity=114 time=0.0012254895833333332
EXTRACT: note_on channel=2 note=58 velocity=0 time=0
EXTRACT: note_on channel=2 note=62 velocity=0 time=0
EXTRACT: note_on channel=2 note=65 velocity=0 time=0
EXTRACT: note_on channel=2 note=60 velocity=117 time=0
EXTRACT: note_on channel=2 note=63 velocity=117 time=0
EXTRACT: note_on channel=2 note=68 velocity=102 time=0
EXTRACT: note_on channel=3 note=58 velocity=0 time=0
EXTRACT: note_on channel=3 note=62 velocity=0 time=0
EXTRACT: note_on channel=3 note=63 velocity=92 time=0
EXTRACT: note_on channel=3 note=56 velocity=93 time=0
EXTRACT: note_on channel=7 note=74 velocity=0 time=0
EXTRACT: note_on channel=7 note=75 velocity=91 time=0
EXTRACT: note_on channel=9 note=42 velocity=66 time=0
EXTRACT: note_on channel=9 note=36 velocity=120 time=0
EXTRACT: note_on channel=14 note=75 velocity=126 time=0
EXTRACT: note_on channel=9 note=42 velocity=0 time=0.049019583333333325
EXTRACT: note_on channel=9 note=36 velocity=0 time=0
EXTRACT: note_on channel=11 note=56 velocity=0 time=0.09681367708333333
EXTRACT: note_on channel=11 note=60 velocity=0 time=0
EXTRACT: note_on channel=11 note=63 velocity=0 time=0
EXTRACT: note_on channel=11 note=56 velocity=98 time=0.14705875
EXTRACT: note_on channel=11 note=60 velocity=102 time=0
EXTRACT: note_on channel=11 note=63 velocity=90 time=0
EXTRACT: note_on channel=9 note=42 velocity=97 time=0.0012254895833333332
EXTRACT: note_on channel=9 note=54 velocity=75 time=0
EXTRACT: note_on channel=14 note=75 velocity=0 time=0
EXTRACT: note_on channel=9 note=42 velocity=0 time=0.049019583333333325
EXTRACT: note_on channel=9 note=54 velocity=0 time=0
EXTRACT: note_on channel=11 note=56 velocity=0 time=0.09681367708333333
EXTRACT: note_on channel=11 note=60 velocity=0 time=0
EXTRACT: note_on channel=11 note=63 velocity=0 time=0
EXTRACT: note_on channel=11 note=56 velocity=98 time=0.14705875
EXTRACT: note_on channel=11 note=60 velocity=93 time=0
EXTRACT: note_on channel=11 note=63 velocity=104 time=0
EXTRACT: note_on channel=0 note=44 velocity=0 time=0.0012254895833333332
EXTRACT: note_on channel=9 note=42 velocity=71 time=0
EXTRACT: note_on channel=9 note=40 velocity=127 time=0
EXTRACT: note_on channel=14 note=75 velocity=96 time=0
EXTRACT: note_on channel=9 note=42 velocity=0 time=0.049019583333333325
EXTRACT: note_on channel=9 note=40 velocity=0 time=0
EXTRACT: note_on channel=11 note=56 velocity=0 time=0.09681367708333333
EXTRACT: note_on channel=11 note=60 velocity=0 time=0
EXTRACT: note_on channel=11 note=63 velocity=0 time=0
EXTRACT: note_on channel=11 note=56 velocity=111 time=0.14705875
EXTRACT: note_on channel=11 note=60 velocity=110 time=0
EXTRACT: note_on channel=11 note=63 velocity=100 time=0
EXTRACT: note_on channel=0 note=44 velocity=107 time=0.0012254895833333332
EXTRACT: note_on channel=9 note=42 velocity=101 time=0
EXTRACT: note_on channel=9 note=36 velocity=120 time=0
EXTRACT: note_on channel=9 note=54 velocity=76 time=0
EXTRACT: note_on channel=14 note=75 velocity=0 time=0
EXTRACT: note_on channel=0 note=44 velocity=0 time=0.01960783333333333
EXTRACT: note_on channel=9 note=42 velocity=0 time=0.029411749999999997
EXTRACT: note_on channel=9 note=36 velocity=0 time=0
EXTRACT: note_on channel=9 note=54 velocity=0 time=0
EXTRACT: note_on channel=11 note=56 velocity=0 time=0.09681367708333333
EXTRACT: note_on channel=11 note=60 velocity=0 time=0
EXTRACT: note_on channel=11 note=63 velocity=0 time=0
EXTRACT: note_on channel=0 note=44 velocity=126 time=0.0012254895833333332
EXTRACT: note_on channel=9 note=36 velocity=80 time=0
EXTRACT: note_on channel=0 note=44 velocity=0 time=0.03431370833333333
EXTRACT: note_on channel=9 note=36 velocity=0 time=0.014705874999999998
EXTRACT: note_on channel=11 note=56 velocity=98 time=0.09681367708333333
EXTRACT: note_on channel=11 note=60 velocity=96 time=0
EXTRACT: note_on channel=11 note=63 velocity=87 time=0
EXTRACT: note_on channel=0 note=44 velocity=115 time=0.0012254895833333332
EXTRACT: note_on channel=7 note=75 velocity=0 time=0
EXTRACT: note_on channel=7 note=75 velocity=101 time=0
EXTRACT: note_on channel=9 note=42 velocity=83 time=0
EXTRACT: note_on channel=9 note=36 velocity=120 time=0
EXTRACT: note_on channel=14 note=75 velocity=109 time=0
EXTRACT: note_on channel=9 note=42 velocity=0 time=0.049019583333333325
EXTRACT: note_on channel=9 note=36 velocity=0 time=0
EXTRACT: note_on channel=11 note=56 velocity=0 time=0.09681367708333333
EXTRACT: note_on channel=11 note=60 velocity=0 time=0
EXTRACT: note_on channel=11 note=63 velocity=0 time=0
EXTRACT: note_on channel=14 note=75 velocity=0 time=0.0012254895833333332
EXTRACT: note_on channel=11 note=56 velocity=100 time=0.14583326041666664
EXTRACT: note_on channel=11 note=60 velocity=109 time=0
EXTRACT: note_on channel=11 note=63 velocity=112 time=0
EXTRACT: note_on channel=0 note=44 velocity=0 time=0.0012254895833333332
EXTRACT: note_on channel=7 note=75 velocity=0 time=0
EXTRACT: note_on channel=7 note=77 velocity=89 time=0
EXTRACT: note_on channel=9 note=42 velocity=101 time=0
EXTRACT: note_on channel=9 note=54 velocity=73 time=0
EXTRACT: note_on channel=14 note=77 velocity=107 time=0
EXTRACT: note_on channel=9 note=42 velocity=0 time=0.049019583333333325
EXTRACT: note_on channel=9 note=54 velocity=0 time=0
EXTRACT: note_on channel=14 note=77 velocity=0 time=0.09313720833333332
EXTRACT: note_on channel=11 note=56 velocity=0 time=0.0036764687499999996
EXTRACT: note_on channel=11 note=60 velocity=0 time=0
EXTRACT: note_on channel=11 note=63 velocity=0 time=0
EXTRACT: note_on channel=7 note=77 velocity=0 time=0.0012254895833333332
EXTRACT: note_on channel=7 note=75 velocity=83 time=0
EXTRACT: note_on channel=14 note=75 velocity=121 time=0
EXTRACT: note_on channel=11 note=55 velocity=104 time=0.14583326041666664
EXTRACT: note_on channel=11 note=60 velocity=107 time=0
EXTRACT: note_on channel=11 note=63 velocity=94 time=0
EXTRACT: note_on channel=0 note=39 velocity=120 time=0.0012254895833333332
EXTRACT: note_on channel=2 note=60 velocity=0 time=0
EXTRACT: note_on channel=2 note=63 velocity=0 time=0
EXTRACT: note_on channel=2 note=68 velocity=0 time=0
EXTRACT: note_on channel=2 note=58 velocity=97 time=0
EXTRACT: note_on channel=2 note=67 velocity=116 time=0
EXTRACT: note_on channel=2 note=63 velocity=111 time=0
EXTRACT: note_on channel=3 note=63 velocity=0 time=0
EXTRACT: note_on channel=3 note=56 velocity=0 time=0
EXTRACT: note_on channel=3 note=55 velocity=91 time=0
EXTRACT: note_on channel=3 note=63 velocity=90 time=0
EXTRACT: note_on channel=9 note=42 velocity=81 time=0
EXTRACT: note_on channel=9 note=40 velocity=127 time=0
EXTRACT: note_on channel=14 note=75 velocity=0 time=0
EXTRACT: note_on channel=9 note=42 velocity=0 time=0.049019583333333325
EXTRACT: note_on channel=9 note=40 velocity=0 time=0
EXTRACT: note_on channel=11 note=55 velocity=0 time=0.09681367708333333
EXTRACT: note_on channel=11 note=60 velocity=0 time=0
EXTRACT: note_on channel=11 note=63 velocity=0 time=0
EXTRACT: note_on channel=11 note=55 velocity=88 time=0.14705875
EXTRACT: note_on channel=11 note=60 velocity=106 time=0
EXTRACT: note_on channel=11 note=63 velocity=94 time=0
EXTRACT: note_on channel=0 note=39 velocity=0 time=0.0012254895833333332
EXTRACT: note_on channel=7 note=75 velocity=0 time=0
EXTRACT: note_on channel=7 note=74 velocity=91 time=0
EXTRACT: note_on channel=9 note=42 velocity=97 time=0
EXTRACT: note_on channel=9 note=54 velocity=72 time=0
EXTRACT: note_on channel=14 note=74 velocity=107 time=0
EXTRACT: note_on channel=9 note=42 velocity=0 time=0.049019583333333325
EXTRACT: note_on channel=9 note=54 velocity=0 time=0
EXTRACT: note_on channel=11 note=55 velocity=0 time=0.09681367708333333
EXTRACT: note_on channel=11 note=60 velocity=0 time=0
EXTRACT: note_on channel=11 note=63 velocity=0 time=0
EXTRACT: note_on channel=14 note=74 velocity=0 time=0.0012254895833333332
EXTRACT: note_on channel=11 note=56 velocity=87 time=0.14583326041666664
EXTRACT: note_on channel=11 note=60 velocity=107 time=0
EXTRACT: note_on channel=11 note=63 velocity=105 time=0
EXTRACT: note_on channel=0 note=41 velocity=102 time=0.0012254895833333332
EXTRACT: note_on channel=2 note=58 velocity=0 time=0
EXTRACT: note_on channel=2 note=67 velocity=0 time=0
EXTRACT: note_on channel=2 note=63 velocity=0 time=0
EXTRACT: note_on channel=2 note=65 velocity=127 time=0
EXTRACT: note_on channel=2 note=68 velocity=103 time=0
EXTRACT: note_on channel=2 note=60 velocity=125 time=0
EXTRACT: note_on channel=2 note=63 velocity=113 time=0
EXTRACT: note_on channel=3 note=55 velocity=0 time=0
EXTRACT: note_on channel=3 note=63 velocity=0 time=0
EXTRACT: note_on channel=3 note=60 velocity=84 time=0
EXTRACT: note_on channel=3 note=56 velocity=90 time=0
EXTRACT: note_on channel=7 note=74 velocity=0 time=0
EXTRACT: note_on channel=7 note=72 velocity=82 time=0
EXTRACT: note_on channel=9 note=42 velocity=68 time=0
EXTRACT: note_on channel=9 note=36 velocity=120 time=0
EXTRACT: note_on channel=14 note=72 velocity=99 time=0
EXTRACT: note_on channel=9 note=42 velocity=0 time=0.049019583333333325
EXTRACT: note_on channel=9 note=36 velocity=0 time=0
EXTRACT: note_on channel=11 note=56 velocity=0 time=0.09681367708333333
EXTRACT: note_on channel=11 note=60 velocity=0 time=0
EXTRACT: note_on channel=11 note=63 velocity=0 time=0
EXTRACT: note_on channel=11 note=56 velocity=102 time=0.14705875
EXTRACT: note_on channel=11 note=60 velocity=95 time=0
EXTRACT: note_on channel=11 note=63 velocity=91 time=0
EXTRACT: note_on channel=9 note=42 velocity=101 time=0.0012254895833333332
EXTRACT: note_on channel=9 note=54 velocity=65 time=0
EXTRACT: note_on channel=9 note=42 velocity=0 time=0.049019583333333325
EXTRACT: note_on channel=9 note=54 velocity=0 time=0
EXTRACT: note_on channel=11 note=56 velocity=0 time=0.09681367708333333
EXTRACT: note_on channel=11 note=60 velocity=0 time=0
EXTRACT: note_on channel=11 note=63 velocity=0 time=0
EXTRACT: note_on channel=11 note=56 velocity=104 time=0.14705875
EXTRACT: note_on channel=11 note=60 velocity=101 time=0
EXTRACT: note_on channel=11 note=63 velocity=91 time=0
EXTRACT: note_on channel=9 note=42 velocity=73 time=0.0012254895833333332
EXTRACT: note_on channel=9 note=40 velocity=127 time=0
EXTRACT: note_on channel=9 note=42 velocity=0 time=0.049019583333333325
EXTRACT: note_on channel=9 note=40 velocity=0 time=0
EXTRACT: note_on channel=11 note=56 velocity=0 time=0.09681367708333333
EXTRACT: note_on channel=11 note=60 velocity=0 time=0
EXTRACT: note_on channel=11 note=63 velocity=0 time=0
EXTRACT: note_on channel=0 note=41 velocity=0 time=0.0012254895833333332
EXTRACT: note_on channel=14 note=72 velocity=0 time=0
EXTRACT: note_on channel=11 note=56 velocity=109 time=0.14583326041666664
EXTRACT: note_on channel=11 note=60 velocity=105 time=0
EXTRACT: note_on channel=11 note=63 velocity=111 time=0
EXTRACT: note_on channel=0 note=36 velocity=122 time=0.0012254895833333332
EXTRACT: note_on channel=9 note=42 velocity=99 time=0
EXTRACT: note_on channel=9 note=36 velocity=120 time=0
EXTRACT: note_on channel=9 note=54 velocity=71 time=0
EXTRACT: note_on channel=14 note=79 velocity=123 time=0
EXTRACT: note_on channel=9 note=42 velocity=0 time=0.049019583333333325
EXTRACT: note_on channel=9 note=36 velocity=0 time=0
EXTRACT: note_on channel=9 note=54 velocity=0 time=0
EXTRACT: note_on channel=11 note=56 velocity=0 time=0.09681367708333333
EXTRACT: note_on channel=11 note=60 velocity=0 time=0
EXTRACT: note_on channel=11 note=63 velocity=0 time=0
EXTRACT: note_on channel=0 note=36 velocity=0 time=0.0012254895833333332
EXTRACT: note_on channel=14 note=79 velocity=0 time=0.14215679166666664
EXTRACT: note_on channel=11 note=56 velocity=100 time=0.0036764687499999996
EXTRACT: note_on channel=11 note=60 velocity=109 time=0
EXTRACT: note_on channel=11 note=63 velocity=106 time=0
EXTRACT: note_on channel=0 note=29 velocity=116 time=0.0012254895833333332
EXTRACT: note_on channel=7 note=72 velocity=0 time=0
EXTRACT: note_on channel=9 note=42 velocity=78 time=0
EXTRACT: note_on channel=9 note=36 velocity=120 time=0
EXTRACT: note_on channel=14 note=77 velocity=124 time=0
EXTRACT: note_on channel=9 note=42 velocity=0 time=0.049019583333333325
EXTRACT: note_on channel=9 note=36 velocity=0 time=0
EXTRACT: note_on channel=14 note=77 velocity=0 time=0.09313720833333332
EXTRACT: note_on channel=11 note=56 velocity=0 time=0.0036764687499999996
EXTRACT: note_on channel=11 note=60 velocity=0 time=0
EXTRACT: note_on channel=11 note=63 velocity=0 time=0
EXTRACT: note_on channel=14 note=74 velocity=127 time=0.0012254895833333332
EXTRACT: note_on channel=14 note=74 velocity=0 time=0.14215679166666664
EXTRACT: note_on channel=11 note=56 velocity=108 time=0.0036764687499999996
EXTRACT: note_on channel=11 note=60 velocity=103 time=0
EXTRACT: note_on channel=11 note=63 velocity=97 time=0
EXTRACT: note_on channel=9 note=42 velocity=95 time=0.0012254895833333332
EXTRACT: note_on channel=9 note=54 velocity=67 time=0
EXTRACT: note_on channel=14 note=72 velocity=105 time=0
EXTRACT: note_on channel=9 note=42 velocity=0 time=0.049019583333333325
EXTRACT: note_on channel=9 note=54 velocity=0 time=0
EXTRACT: note_on channel=11 note=56 velocity=0 time=0.09681367708333333
EXTRACT: note_on channel=11 note=60 velocity=0 time=0
EXTRACT: note_on channel=11 note=63 velocity=0 time=0
EXTRACT: note_on channel=11 note=56 velocity=104 time=0.14705875
EXTRACT: note_on channel=11 note=60 velocity=98 time=0
EXTRACT: note_on channel=11 note=63 velocity=102 time=0
EXTRACT: note_on channel=0 note=29 velocity=0 time=0.0012254895833333332
EXTRACT: note_on channel=9 note=42 velocity=78 time=0
EXTRACT: note_on channel=9 note=40 velocity=127 time=0
EXTRACT: note_on channel=14 note=72 velocity=0 time=0
EXTRACT: note_on channel=9 note=42 velocity=0 time=0.049019583333333325
EXTRACT: note_on channel=9 note=40 velocity=0 time=0
EXTRACT: note_on channel=11 note=56 velocity=0 time=0.09681367708333333
EXTRACT: note_on channel=11 note=60 velocity=0 time=0
EXTRACT: note_on channel=11 note=63 velocity=0 time=0
EXTRACT: note_on channel=11 note=56 velocity=92 time=0.14705875
EXTRACT: note_on channel=11 note=60 velocity=110 time=0
EXTRACT: note_on channel=11 note=63 velocity=111 time=0
EXTRACT: note_on channel=9 note=36 velocity=100 time=0.0012254895833333332
EXTRACT: note_on channel=9 note=42 velocity=101 time=0
EXTRACT: note_on channel=9 note=54 velocity=85 time=0
EXTRACT: note_on channel=14 note=75 velocity=118 time=0
EXTRACT: note_on channel=9 note=36 velocity=0 time=0.049019583333333325
EXTRACT: note_on channel=9 note=42 velocity=0 time=0
EXTRACT: note_on channel=9 note=54 velocity=0 time=0
EXTRACT: note_on channel=14 note=75 velocity=0 time=0.09313720833333332
EXTRACT: note_on channel=11 note=56 velocity=0 time=0.0036764687499999996
EXTRACT: note_on channel=11 note=60 velocity=0 time=0
EXTRACT: note_on channel=11 note=63 velocity=0 time=0
EXTRACT: note_on channel=14 note=77 velocity=118 time=0.0012254895833333332
EXTRACT: note_on channel=14 note=77 velocity=0 time=0.14215679166666664
EXTRACT: note_on channel=11 note=55 velocity=107 time=0.0036764687499999996
EXTRACT: note_on channel=11 note=62 velocity=97 time=0
EXTRACT: note_on channel=0 note=31 velocity=115 time=0.0012254895833333332
EXTRACT: note_on channel=2 note=65 velocity=0 time=0
EXTRACT: note_on channel=2 note=68 velocity=0 time=0
EXTRACT: note_on channel=2 note=60 velocity=0 time=0
EXTRACT: note_on channel=2 note=63 velocity=0 time=0
EXTRACT: note_on channel=2 note=59 velocity=126 time=0
EXTRACT: note_on channel=2 note=62 velocity=105 time=0
EXTRACT: note_on channel=2 note=67 velocity=114 time=0
EXTRACT: note_on channel=3 note=60 velocity=0 time=0
EXTRACT: note_on channel=3 note=56 velocity=0 time=0
EXTRACT: note_on channel=3 note=62 velocity=80 time=0
EXTRACT: note_on channel=3 note=59 velocity=80 time=0
EXTRACT: note_on channel=9 note=57 velocity=100 time=0
EXTRACT: note_on channel=9 note=36 velocity=120 time=0
EXTRACT: note_on channel=14 note=79 velocity=112 time=0
EXTRACT: note_on channel=9 note=57 velocity=0 time=0.049019583333333325
EXTRACT: note_on channel=9 note=36 velocity=0 time=0
EXTRACT: note_on channel=14 note=79 velocity=0 time=0.09803916666666665
EXTRACT: note_on channel=11 note=55 velocity=0 time=0.14583326041666664
EXTRACT: note_on channel=11 note=62 velocity=0 time=0
EXTRACT: note_on channel=2 note=59 velocity=0 time=0.0012254895833333332
EXTRACT: note_on channel=2 note=62 velocity=0 time=0
EXTRACT: note_on channel=2 note=67 velocity=0 time=0
EXTRACT: note_on channel=3 note=62 velocity=0 time=0
EXTRACT: note_on channel=3 note=59 velocity=0 time=0
EXTRACT: note_on channel=14 note=80 velocity=107 time=0
EXTRACT: note_on channel=0 note=31 velocity=0 time=0.14705875
EXTRACT: note_on channel=14 note=80 velocity=0 time=0
EXTRACT: note_on channel=11 note=55 velocity=101 time=0.14583326041666664
EXTRACT: note_on channel=11 note=62 velocity=100 time=0
EXTRACT: note_on channel=0 note=31 velocity=118 time=0.0012254895833333332
EXTRACT: note_on channel=2 note=59 velocity=118 time=0
EXTRACT: note_on channel=2 note=62 velocity=108 time=0
EXTRACT: note_on channel=2 note=67 velocity=111 time=0
EXTRACT: note_on channel=3 note=62 velocity=99 time=0
EXTRACT: note_on channel=3 note=59 velocity=98 time=0
EXTRACT: note_on channel=9 note=57 velocity=120 time=0
EXTRACT: note_on channel=9 note=36 velocity=120 time=0
EXTRACT: note_on channel=14 note=79 velocity=97 time=0
EXTRACT: note_on channel=9 note=57 velocity=0 time=0.049019583333333325
EXTRACT: note_on channel=9 note=36 velocity=0 time=0
EXTRACT: note_on channel=14 note=79 velocity=0 time=0.09803916666666665
EXTRACT: note_on channel=11 note=55 velocity=0 time=0.14583326041666664
EXTRACT: note_on channel=11 note=62 velocity=0 time=0
EXTRACT: note_on channel=2 note=59 velocity=0 time=0.0012254895833333332
EXTRACT: note_on channel=2 note=62 velocity=0 time=0
EXTRACT: note_on channel=2 note=67 velocity=0 time=0
EXTRACT: note_on channel=3 note=62 velocity=0 time=0
EXTRACT: note_on channel=3 note=59 velocity=0 time=0
EXTRACT: note_on channel=14 note=80 velocity=113 time=0
EXTRACT: note_on channel=15 note=84 velocity=80 time=0
EXTRACT: control_change channel=15 control=11 value=60 time=0
EXTRACT: pitchwheel channel=15 pitch=0 time=0
EXTRACT: note_on channel=15 note=72 velocity=121 time=0
EXTRACT: control_change channel=15 control=11 value=61 time=0.004901958333333333
EXTRACT: control_change channel=15 control=11 value=62 time=0.004901958333333333
EXTRACT: control_change channel=15 control=11 value=63 time=0.004901958333333333
EXTRACT: control_change channel=15 control=11 value=64 time=0.004901958333333333
EXTRACT: control_change channel=15 control=11 value=66 time=0.004901958333333333
EXTRACT: control_change channel=15 control=11 value=67 time=0.004901958333333333
EXTRACT: control_change channel=15 control=11 value=68 time=0.004901958333333333
EXTRACT: control_change channel=15 control=11 value=69 time=0.004901958333333333
EXTRACT: control_change channel=15 control=11 value=70 time=0.004901958333333333
EXTRACT: control_change channel=15 control=11 value=71 time=0.004901958333333333
EXTRACT: control_change channel=15 control=11 value=72 time=0.004901958333333333
EXTRACT: control_change channel=15 control=11 value=73 time=0.004901958333333333
EXTRACT: control_change channel=15 control=11 value=75 time=0.004901958333333333
EXTRACT: control_change channel=15 control=11 value=76 time=0.004901958333333333
EXTRACT: control_change channel=15 control=11 value=77 time=0.004901958333333333
EXTRACT: control_change channel=15 control=11 value=78 time=0.004901958333333333
EXTRACT: control_change channel=15 control=11 value=79 time=0.004901958333333333
EXTRACT: control_change channel=15 control=11 value=80 time=0.004901958333333333
EXTRACT: control_change channel=15 control=11 value=81 time=0.004901958333333333
EXTRACT: control_change channel=15 control=11 value=82 time=0.004901958333333333
EXTRACT: control_change channel=15 control=11 value=83 time=0.004901958333333333
EXTRACT: control_change channel=15 control=11 value=85 time=0.004901958333333333
EXTRACT: control_change channel=15 control=11 value=86 time=0.004901958333333333
EXTRACT: control_change channel=15 control=11 value=87 time=0.004901958333333333
EXTRACT: control_change channel=15 control=11 value=88 time=0.004901958333333333
EXTRACT: control_change channel=15 control=11 value=89 time=0.004901958333333333
EXTRACT: control_change channel=15 control=11 value=90 time=0.004901958333333333
EXTRACT: control_change channel=15 control=11 value=91 time=0.004901958333333333
EXTRACT: control_change channel=15 control=11 value=92 time=0.004901958333333333
EXTRACT: note_on channel=0 note=31 velocity=0 time=0.004901958333333333
EXTRACT: note_on channel=14 note=80 velocity=0 time=0
EXTRACT: control_change channel=15 control=11 value=94 time=0
EXTRACT: control_change channel=15 control=11 value=95 time=0.004901958333333333
EXTRACT: control_change channel=15 control=11 value=96 time=0.004901958333333333
EXTRACT: control_change channel=15 control=11 value=97 time=0.004901958333333333
EXTRACT: control_change channel=15 control=11 value=98 time=0.004901958333333333
EXTRACT: control_change channel=15 control=11 value=99 time=0.004901958333333333
EXTRACT: control_change channel=15 control=11 value=100 time=0.004901958333333333
EXTRACT: control_change channel=15 control=11 value=101 time=0.004901958333333333
EXTRACT: control_change channel=15 control=11 value=102 time=0.004901958333333333
EXTRACT: control_change channel=15 control=11 value=104 time=0.004901958333333333
EXTRACT: control_change channel=15 control=11 value=105 time=0.004901958333333333
EXTRACT: control_change channel=15 control=11 value=106 time=0.004901958333333333
EXTRACT: control_change channel=15 control=11 value=107 time=0.004901958333333333
EXTRACT: control_change channel=15 control=11 value=108 time=0.004901958333333333
EXTRACT: control_change channel=15 control=11 value=109 time=0.004901958333333333
EXTRACT: control_change channel=15 control=11 value=110 time=0.004901958333333333
EXTRACT: control_change channel=15 control=11 value=111 time=0.004901958333333333
EXTRACT: control_change channel=15 control=11 value=112 time=0.004901958333333333
EXTRACT: control_change channel=15 control=11 value=114 time=0.004901958333333333
EXTRACT: control_change channel=15 control=11 value=115 time=0.004901958333333333
EXTRACT: control_change channel=15 control=11 value=116 time=0.004901958333333333
EXTRACT: control_change channel=15 control=11 value=117 time=0.004901958333333333
EXTRACT: control_change channel=15 control=11 value=118 time=0.004901958333333333
EXTRACT: control_change channel=15 control=11 value=119 time=0.004901958333333333
EXTRACT: control_change channel=15 control=11 value=120 time=0.004901958333333333
EXTRACT: control_change channel=15 control=11 value=121 time=0.004901958333333333
EXTRACT: control_change channel=15 control=11 value=123 time=0.004901958333333333
EXTRACT: control_change channel=15 control=11 value=124 time=0.004901958333333333
EXTRACT: control_change channel=15 control=11 value=125 time=0.004901958333333333
EXTRACT: control_change channel=15 control=11 value=126 time=0.004901958333333333
EXTRACT: note_on channel=11 note=55 velocity=109 time=0.0036764687499999996
EXTRACT: note_on channel=11 note=62 velocity=98 time=0
EXTRACT: note_on channel=0 note=31 velocity=106 time=0.0012254895833333332
EXTRACT: note_on channel=2 note=59 velocity=126 time=0
EXTRACT: note_on channel=2 note=62 velocity=113 time=0
EXTRACT: note_on channel=2 note=67 velocity=121 time=0
EXTRACT: note_on channel=3 note=62 velocity=97 time=0
EXTRACT: note_on channel=3 note=59 velocity=97 time=0
EXTRACT: note_on channel=9 note=49 velocity=100 time=0
EXTRACT: note_on channel=9 note=36 velocity=120 time=0
EXTRACT: note_on channel=14 note=79 velocity=105 time=0
EXTRACT: control_change channel=15 control=11 value=127 time=0
EXTRACT: pitchwheel channel=15 pitch=0 time=0
EXTRACT: pitchwheel channel=15 pitch=11 time=0.004901958333333333
EXTRACT: pitchwheel channel=15 pitch=23 time=0.004901958333333333
EXTRACT: pitchwheel channel=15 pitch=34 time=0.004901958333333333
EXTRACT: pitchwheel channel=15 pitch=46 time=0.004901958333333333
EXTRACT: pitchwheel channel=15 pitch=57 time=0.004901958333333333
EXTRACT: pitchwheel channel=15 pitch=68 time=0.004901958333333333
EXTRACT: pitchwheel channel=15 pitch=80 time=0.004901958333333333
EXTRACT: pitchwheel channel=15 pitch=91 time=0.004901958333333333
EXTRACT: pitchwheel channel=15 pitch=102 time=0.004901958333333333
EXTRACT: note_on channel=9 note=49 velocity=0 time=0.004901958333333333
EXTRACT: note_on channel=9 note=36 velocity=0 time=0
EXTRACT: pitchwheel channel=15 pitch=114 time=0
EXTRACT: pitchwheel channel=15 pitch=125 time=0.004901958333333333
EXTRACT: pitchwheel channel=15 pitch=137 time=0.004901958333333333
EXTRACT: pitchwheel channel=15 pitch=148 time=0.004901958333333333
EXTRACT: pitchwheel channel=15 pitch=159 time=0.004901958333333333
EXTRACT: pitchwheel channel=15 pitch=171 time=0.004901958333333333
EXTRACT: pitchwheel channel=15 pitch=182 time=0.004901958333333333
EXTRACT: pitchwheel channel=15 pitch=193 time=0.004901958333333333
EXTRACT: pitchwheel channel=15 pitch=205 time=0.004901958333333333
EXTRACT: pitchwheel channel=15 pitch=216 time=0.004901958333333333
EXTRACT: pitchwheel channel=15 pitch=228 time=0.004901958333333333
EXTRACT: pitchwheel channel=15 pitch=239 time=0.004901958333333333
EXTRACT: pitchwheel channel=15 pitch=250 time=0.004901958333333333
EXTRACT: pitchwheel channel=15 pitch=262 time=0.004901958333333333
EXTRACT: pitchwheel channel=15 pitch=273 time=0.004901958333333333
EXTRACT: pitchwheel channel=15 pitch=284 time=0.004901958333333333
EXTRACT: pitchwheel channel=15 pitch=296 time=0.004901958333333333
EXTRACT: pitchwheel channel=15 pitch=307 time=0.004901958333333333
EXTRACT: pitchwheel channel=15 pitch=319 time=0.004901958333333333
EXTRACT: pitchwheel channel=15 pitch=330 time=0.004901958333333333
EXTRACT: note_on channel=14 note=79 velocity=0 time=0.004901958333333333
EXTRACT: pitchwheel channel=15 pitch=341 time=0
EXTRACT: pitchwheel channel=15 pitch=353 time=0.004901958333333333
EXTRACT: pitchwheel channel=15 pitch=364 time=0.004901958333333333
EXTRACT: pitchwheel channel=15 pitch=375 time=0.004901958333333333
EXTRACT: pitchwheel channel=15 pitch=387 time=0.004901958333333333
EXTRACT: pitchwheel channel=15 pitch=398 time=0.004901958333333333
EXTRACT: pitchwheel channel=15 pitch=410 time=0.004901958333333333
EXTRACT: pitchwheel channel=15 pitch=421 time=0.004901958333333333
EXTRACT: pitchwheel channel=15 pitch=432 time=0.004901958333333333
EXTRACT: pitchwheel channel=15 pitch=444 time=0.004901958333333333
EXTRACT: pitchwheel channel=15 pitch=455 time=0.004901958333333333
EXTRACT: pitchwheel channel=15 pitch=466 time=0.004901958333333333
EXTRACT: pitchwheel channel=15 pitch=478 time=0.004901958333333333
EXTRACT: pitchwheel channel=15 pitch=489 time=0.004901958333333333
EXTRACT: pitchwheel channel=15 pitch=501 time=0.004901958333333333
EXTRACT: pitchwheel channel=15 pitch=512 time=0.004901958333333333
EXTRACT: pitchwheel channel=15 pitch=523 time=0.004901958333333333
EXTRACT: pitchwheel channel=15 pitch=535 time=0.004901958333333333
EXTRACT: pitchwheel channel=15 pitch=546 time=0.004901958333333333
EXTRACT: pitchwheel channel=15 pitch=557 time=0.004901958333333333
EXTRACT: pitchwheel channel=15 pitch=569 time=0.004901958333333333
EXTRACT: pitchwheel channel=15 pitch=580 time=0.004901958333333333
EXTRACT: pitchwheel channel=15 pitch=592 time=0.004901958333333333
EXTRACT: pitchwheel channel=15 pitch=603 time=0.004901958333333333
EXTRACT: pitchwheel channel=15 pitch=614 time=0.004901958333333333
EXTRACT: pitchwheel channel=15 pitch=626 time=0.004901958333333333
EXTRACT: pitchwheel channel=15 pitch=637 time=0.004901958333333333
EXTRACT: pitchwheel channel=15 pitch=648 time=0.004901958333333333
EXTRACT: pitchwheel channel=15 pitch=660 time=0.004901958333333333
EXTRACT: pitchwheel channel=15 pitch=671 time=0.004901958333333333
EXTRACT: note_on channel=11 note=55 velocity=0 time=0.0036764687499999996
EXTRACT: note_on channel=11 note=62 velocity=0 time=0
EXTRACT: note_on channel=2 note=59 velocity=0 time=0.0012254895833333332
EXTRACT: note_on channel=2 note=62 velocity=0 time=0
EXTRACT: note_on channel=2 note=67 velocity=0 time=0
EXTRACT: note_on channel=3 note=62 velocity=0 time=0
EXTRACT: note_on channel=3 note=59 velocity=0 time=0
EXTRACT: note_on channel=9 note=36 velocity=100 time=0
EXTRACT: note_on channel=14 note=80 velocity=115 time=0
EXTRACT: pitchwheel channel=15 pitch=683 time=0
EXTRACT: pitchwheel channel=15 pitch=694 time=0.004901958333333333
EXTRACT: pitchwheel channel=15 pitch=705 time=0.004901958333333333
EXTRACT: pitchwheel channel=15 pitch=717 time=0.004901958333333333
EXTRACT: pitchwheel channel=15 pitch=728 time=0.004901958333333333
EXTRACT: pitchwheel channel=15 pitch=739 time=0.004901958333333333
EXTRACT: pitchwheel channel=15 pitch=751 time=0.004901958333333333
EXTRACT: pitchwheel channel=15 pitch=762 time=0.004901958333333333
EXTRACT: pitchwheel channel=15 pitch=774 time=0.004901958333333333
EXTRACT: pitchwheel channel=15 pitch=785 time=0.004901958333333333
EXTRACT: note_on channel=9 note=36 velocity=0 time=0.004901958333333333
EXTRACT: pitchwheel channel=15 pitch=796 time=0
EXTRACT: pitchwheel channel=15 pitch=808 time=0.004901958333333333
EXTRACT: pitchwheel channel=15 pitch=819 time=0.004901958333333333
EXTRACT: pitchwheel channel=15 pitch=830 time=0.004901958333333333
EXTRACT: pitchwheel channel=15 pitch=842 time=0.004901958333333333
EXTRACT: pitchwheel channel=15 pitch=853 time=0.004901958333333333
EXTRACT: pitchwheel channel=15 pitch=865 time=0.004901958333333333
EXTRACT: pitchwheel channel=15 pitch=876 time=0.004901958333333333
EXTRACT: pitchwheel channel=15 pitch=887 time=0.004901958333333333
EXTRACT: pitchwheel channel=15 pitch=899 time=0.004901958333333333
EXTRACT: pitchwheel channel=15 pitch=910 time=0.004901958333333333
EXTRACT: pitchwheel channel=15 pitch=922 time=0.004901958333333333
EXTRACT: pitchwheel channel=15 pitch=933 time=0.004901958333333333
EXTRACT: pitchwheel channel=15 pitch=944 time=0.004901958333333333
EXTRACT: pitchwheel channel=15 pitch=956 time=0.004901958333333333
EXTRACT: pitchwheel channel=15 pitch=967 time=0.004901958333333333
EXTRACT: pitchwheel channel=15 pitch=978 time=0.004901958333333333
EXTRACT: pitchwheel channel=15 pitch=990 time=0.004901958333333333
EXTRACT: pitchwheel channel=15 pitch=1001 time=0.004901958333333333
EXTRACT: pitchwheel channel=15 pitch=1013 time=0.004901958333333333
EXTRACT: note_on channel=0 note=31 velocity=0 time=0.004901958333333333
EXTRACT: note_on channel=9 note=36 velocity=120 time=0
EXTRACT: note_on channel=14 note=80 velocity=0 time=0
EXTRACT: pitchwheel channel=15 pitch=1024 time=0
EXTRACT: pitchwheel channel=15 pitch=1035 time=0.004901958333333333
EXTRACT: pitchwheel channel=15 pitch=1047 time=0.004901958333333333
EXTRACT: pitchwheel channel=15 pitch=1058 time=0.004901958333333333
EXTRACT: pitchwheel channel=15 pitch=1069 time=0.004901958333333333
EXTRACT: pitchwheel channel=15 pitch=1081 time=0.004901958333333333
EXTRACT: pitchwheel channel=15 pitch=1092 time=0.004901958333333333
EXTRACT: pitchwheel channel=15 pitch=1104 time=0.004901958333333333
EXTRACT: pitchwheel channel=15 pitch=1115 time=0.004901958333333333
EXTRACT: pitchwheel channel=15 pitch=1126 time=0.004901958333333333
EXTRACT: note_on channel=9 note=36 velocity=0 time=0.004901958333333333
EXTRACT: pitchwheel channel=15 pitch=1138 time=0
EXTRACT: pitchwheel channel=15 pitch=1149 time=0.004901958333333333
EXTRACT: pitchwheel channel=15 pitch=1160 time=0.004901958333333333
EXTRACT: pitchwheel channel=15 pitch=1172 time=0.004901958333333333
EXTRACT: pitchwheel channel=15 pitch=1183 time=0.004901958333333333
EXTRACT: pitchwheel channel=15 pitch=1195 time=0.004901958333333333
EXTRACT: pitchwheel channel=15 pitch=1206 time=0.004901958333333333
EXTRACT: pitchwheel channel=15 pitch=1217 time=0.004901958333333333
EXTRACT: pitchwheel channel=15 pitch=1229 time=0.004901958333333333
EXTRACT: pitchwheel channel=15 pitch=1240 time=0.004901958333333333
EXTRACT: pitchwheel channel=15 pitch=1251 time=0.004901958333333333
EXTRACT: pitchwheel channel=15 pitch=1263 time=0.004901958333333333
EXTRACT: pitchwheel channel=15 pitch=1274 time=0.004901958333333333
EXTRACT: pitchwheel channel=15 pitch=1286 time=0.004901958333333333
EXTRACT: pitchwheel channel=15 pitch=1297 time=0.004901958333333333
EXTRACT: pitchwheel channel=15 pitch=1308 time=0.004901958333333333
EXTRACT: pitchwheel channel=15 pitch=1320 time=0.004901958333333333
EXTRACT: pitchwheel channel=15 pitch=1331 time=0.004901958333333333
EXTRACT: pitchwheel channel=15 pitch=1342 time=0.004901958333333333
EXTRACT: pitchwheel channel=15 pitch=1354 time=0.004901958333333333
EXTRACT: note_on channel=9 note=40 velocity=127 time=0.004901958333333333
EXTRACT: note_on channel=14 note=72 velocity=107 time=0
EXTRACT: note_on channel=14 note=79 velocity=96 time=0
EXTRACT: pitchwheel channel=15 pitch=1365 time=0
EXTRACT: pitchwheel channel=15 pitch=1377 time=0.004901958333333333
EXTRACT: pitchwheel channel=15 pitch=1388 time=0.004901958333333333
EXTRACT: pitchwheel channel=15 pitch=1399 time=0.004901958333333333
EXTRACT: pitchwheel channel=15 pitch=1411 time=0.004901958333333333
EXTRACT: pitchwheel channel=15 pitch=1422 time=0.004901958333333333
EXTRACT: pitchwheel channel=15 pitch=1433 time=0.004901958333333333
EXTRACT: pitchwheel channel=15 pitch=1445 time=0.004901958333333333
EXTRACT: pitchwheel channel=15 pitch=1456 time=0.004901958333333333
EXTRACT: pitchwheel channel=15 pitch=1468 time=0.004901958333333333
EXTRACT: note_on channel=9 note=40 velocity=0 time=0.004901958333333333
EXTRACT: pitchwheel channel=15 pitch=1479 time=0
EXTRACT: pitchwheel channel=15 pitch=1490 time=0.004901958333333333
EXTRACT: pitchwheel channel=15 pitch=1502 time=0.004901958333333333
EXTRACT: pitchwheel channel=15 pitch=1513 time=0.004901958333333333
EXTRACT: pitchwheel channel=15 pitch=1524 time=0.004901958333333333
EXTRACT: pitchwheel channel=15 pitch=1536 time=0.004901958333333333
EXTRACT: pitchwheel channel=15 pitch=1547 time=0.004901958333333333
EXTRACT: pitchwheel channel=15 pitch=1559 time=0.004901958333333333
EXTRACT: pitchwheel channel=15 pitch=1570 time=0.004901958333333333
EXTRACT: pitchwheel channel=15 pitch=1581 time=0.004901958333333333
EXTRACT: pitchwheel channel=15 pitch=1593 time=0.004901958333333333
EXTRACT: pitchwheel channel=15 pitch=1604 time=0.004901958333333333
EXTRACT: pitchwheel channel=15 pitch=1615 time=0.004901958333333333
EXTRACT: pitchwheel channel=15 pitch=1627 time=0.004901958333333333
EXTRACT: pitchwheel channel=15 pitch=1638 time=0.004901958333333333
EXTRACT: pitchwheel channel=15 pitch=1650 time=0.004901958333333333
EXTRACT: pitchwheel channel=15 pitch=1661 time=0.004901958333333333
EXTRACT: pitchwheel channel=15 pitch=1672 time=0.004901958333333333
EXTRACT: pitchwheel channel=15 pitch=1684 time=0.004901958333333333
EXTRACT: pitchwheel channel=15 pitch=1695 time=0.004901958333333333
EXTRACT: note_on channel=14 note=72 velocity=0 time=0.004901958333333333
EXTRACT: note_on channel=14 note=79 velocity=0 time=0
EXTRACT: pitchwheel channel=15 pitch=1707 time=0
EXTRACT: pitchwheel channel=15 pitch=1718 time=0.004901958333333333
EXTRACT: pitchwheel channel=15 pitch=1729 time=0.004901958333333333
EXTRACT: pitchwheel channel=15 pitch=1741 time=0.004901958333333333
EXTRACT: pitchwheel channel=15 pitch=1752 time=0.004901958333333333
EXTRACT: pitchwheel channel=15 pitch=1763 time=0.004901958333333333
EXTRACT: pitchwheel channel=15 pitch=1775 time=0.004901958333333333
EXTRACT: pitchwheel channel=15 pitch=1786 time=0.004901958333333333
EXTRACT: pitchwheel channel=15 pitch=1798 time=0.004901958333333333
EXTRACT: pitchwheel channel=15 pitch=1809 time=0.004901958333333333
EXTRACT: pitchwheel channel=15 pitch=1820 time=0.004901958333333333
EXTRACT: pitchwheel channel=15 pitch=1832 time=0.004901958333333333
EXTRACT: pitchwheel channel=15 pitch=1843 time=0.004901958333333333
EXTRACT: pitchwheel channel=15 pitch=1854 time=0.004901958333333333
EXTRACT: pitchwheel channel=15 pitch=1866 time=0.004901958333333333
EXTRACT: pitchwheel channel=15 pitch=1877 time=0.004901958333333333
EXTRACT: pitchwheel channel=15 pitch=1889 time=0.004901958333333333
EXTRACT: pitchwheel channel=15 pitch=1900 time=0.004901958333333333
EXTRACT: pitchwheel channel=15 pitch=1911 time=0.004901958333333333
EXTRACT: pitchwheel channel=15 pitch=1923 time=0.004901958333333333
EXTRACT: pitchwheel channel=15 pitch=1934 time=0.004901958333333333
EXTRACT: pitchwheel channel=15 pitch=1945 time=0.004901958333333333
EXTRACT: pitchwheel channel=15 pitch=1957 time=0.004901958333333333
EXTRACT: pitchwheel channel=15 pitch=1968 time=0.004901958333333333
EXTRACT: pitchwheel channel=15 pitch=1980 time=0.004901958333333333
EXTRACT: pitchwheel channel=15 pitch=1991 time=0.004901958333333333
EXTRACT: pitchwheel channel=15 pitch=2002 time=0.004901958333333333
EXTRACT: pitchwheel channel=15 pitch=2014 time=0.004901958333333333
EXTRACT: pitchwheel channel=15 pitch=2025 time=0.004901958333333333
EXTRACT: pitchwheel channel=15 pitch=2036 time=0.004901958333333333
EXTRACT: note_on channel=14 note=75 velocity=125 time=0.004901958333333333
EXTRACT: pitchwheel channel=15 pitch=2048 time=0
EXTRACT: pitchwheel channel=15 pitch=2059 time=0.004901958333333333
EXTRACT: pitchwheel channel=15 pitch=2071 time=0.004901958333333333
EXTRACT: pitchwheel channel=15 pitch=2082 time=0.004901958333333333
EXTRACT: pitchwheel channel=15 pitch=2093 time=0.004901958333333333
EXTRACT: pitchwheel channel=15 pitch=2105 time=0.004901958333333333
EXTRACT: pitchwheel channel=15 pitch=2116 time=0.004901958333333333
EXTRACT: pitchwheel channel=15 pitch=2127 time=0.004901958333333333
EXTRACT: pitchwheel channel=15 pitch=2139 time=0.004901958333333333
EXTRACT: pitchwheel channel=15 pitch=2150 time=0.004901958333333333
EXTRACT: pitchwheel channel=15 pitch=2162 time=0.004901958333333333
EXTRACT: pitchwheel channel=15 pitch=2173 time=0.004901958333333333
EXTRACT: pitchwheel channel=15 pitch=2184 time=0.004901958333333333
EXTRACT: pitchwheel channel=15 pitch=2196 time=0.004901958333333333
EXTRACT: pitchwheel channel=15 pitch=2207 time=0.004901958333333333
EXTRACT: pitchwheel channel=15 pitch=2218 time=0.004901958333333333
EXTRACT: pitchwheel channel=15 pitch=2230 time=0.004901958333333333
EXTRACT: pitchwheel channel=15 pitch=2241 time=0.004901958333333333
EXTRACT: pitchwheel channel=15 pitch=2253 time=0.004901958333333333
EXTRACT: pitchwheel channel=15 pitch=2264 time=0.004901958333333333
EXTRACT: pitchwheel channel=15 pitch=2275 time=0.004901958333333333
EXTRACT: pitchwheel channel=15 pitch=2287 time=0.004901958333333333
EXTRACT: pitchwheel channel=15 pitch=2298 time=0.004901958333333333
EXTRACT: pitchwheel channel=15 pitch=2309 time=0.004901958333333333
EXTRACT: pitchwheel channel=15 pitch=2321 time=0.004901958333333333
EXTRACT: pitchwheel channel=15 pitch=2332 time=0.004901958333333333
EXTRACT: pitchwheel channel=15 pitch=2344 time=0.004901958333333333
EXTRACT: pitchwheel channel=15 pitch=2355 time=0.004901958333333333
EXTRACT: pitchwheel channel=15 pitch=2366 time=0.004901958333333333
EXTRACT: pitchwheel channel=15 pitch=2378 time=0.004901958333333333
EXTRACT: note_on channel=14 note=75 velocity=0 time=0.004901958333333333
EXTRACT: note_on channel=15 note=84 velocity=0 time=0
EXTRACT: note_on channel=15 note=72 velocity=0 time=0
EXTRACT: pitchwheel channel=15 pitch=2389 time=0
EXTRACT: pitchwheel channel=15 pitch=2400 time=0.004901958333333333
EXTRACT: pitchwheel channel=15 pitch=2412 time=0.004901958333333333
EXTRACT: pitchwheel channel=15 pitch=2423 time=0.004901958333333333
EXTRACT: pitchwheel channel=15 pitch=2435 time=0.004901958333333333
EXTRACT: pitchwheel channel=15 pitch=2446 time=0.004901958333333333
EXTRACT: pitchwheel channel=15 pitch=2457 time=0.004901958333333333
EXTRACT: pitchwheel channel=15 pitch=2469 time=0.004901958333333333
EXTRACT: pitchwheel channel=15 pitch=2480 time=0.004901958333333333
EXTRACT: pitchwheel channel=15 pitch=2491 time=0.004901958333333333
EXTRACT: pitchwheel channel=15 pitch=2503 time=0.004901958333333333
EXTRACT: pitchwheel channel=15 pitch=2514 time=0.004901958333333333
EXTRACT: pitchwheel channel=15 pitch=2526 time=0.004901958333333333
EXTRACT: pitchwheel channel=15 pitch=2537 time=0.004901958333333333
EXTRACT: pitchwheel channel=15 pitch=2548 time=0.004901958333333333
EXTRACT: pitchwheel channel=15 pitch=2560 time=0.004901958333333333
EXTRACT: pitchwheel channel=15 pitch=2571 time=0.004901958333333333
EXTRACT: pitchwheel channel=15 pitch=2583 time=0.004901958333333333
EXTRACT: pitchwheel channel=15 pitch=2594 time=0.004901958333333333
EXTRACT: pitchwheel channel=15 pitch=2605 time=0.004901958333333333
EXTRACT: pitchwheel channel=15 pitch=2617 time=0.004901958333333333
EXTRACT: pitchwheel channel=15 pitch=2628 time=0.004901958333333333
EXTRACT: pitchwheel channel=15 pitch=2639 time=0.004901958333333333
EXTRACT: pitchwheel channel=15 pitch=2651 time=0.004901958333333333
EXTRACT: pitchwheel channel=15 pitch=2662 time=0.004901958333333333
EXTRACT: pitchwheel channel=15 pitch=2674 time=0.004901958333333333
EXTRACT: pitchwheel channel=15 pitch=2685 time=0.004901958333333333
EXTRACT: pitchwheel channel=15 pitch=2696 time=0.004901958333333333
EXTRACT: pitchwheel channel=15 pitch=2708 time=0.004901958333333333
EXTRACT: pitchwheel channel=15 pitch=2719 time=0.004901958333333333
EXTRACT: note_on channel=11 note=55 velocity=96 time=0.0036764687499999996
EXTRACT: note_on channel=11 note=60 velocity=101 time=0
EXTRACT: note_on channel=11 note=63 velocity=91 time=0
EXTRACT: note_on channel=0 note=36 velocity=111 time=0.0012254895833333332
EXTRACT: note_on channel=1 note=60 velocity=114 time=0
EXTRACT: note_on channel=2 note=60 velocity=123 time=0
EXTRACT: note_on channel=2 note=63 velocity=123 time=0
EXTRACT: note_on channel=2 note=67 velocity=126 time=0
EXTRACT: control_change channel=3 control=11 value=100 time=0
EXTRACT: note_on channel=3 note=60 velocity=84 time=0
EXTRACT: note_on channel=3 note=63 velocity=87 time=0
EXTRACT: note_on channel=3 note=55 velocity=82 time=0
EXTRACT: note_on channel=9 note=49 velocity=100 time=0
EXTRACT: note_on channel=9 note=36 velocity=120 time=0
EXTRACT: note_on channel=14 note=79 velocity=95 time=0
EXTRACT: pitchwheel channel=15 pitch=2730 time=0
EXTRACT: pitchwheel channel=15 pitch=2742 time=0.004901958333333333
EXTRACT: pitchwheel channel=15 pitch=2753 time=0.004901958333333333
EXTRACT: pitchwheel channel=15 pitch=2765 time=0.004901958333333333
EXTRACT: pitchwheel channel=15 pitch=2776 time=0.004901958333333333
EXTRACT: pitchwheel channel=15 pitch=2787 time=0.004901958333333333
EXTRACT: pitchwheel channel=15 pitch=2799 time=0.004901958333333333
EXTRACT: pitchwheel channel=15 pitch=2810 time=0.004901958333333333
EXTRACT: pitchwheel channel=15 pitch=2821 time=0.004901958333333333
EXTRACT: control_change channel=3 control=11 value=101 time=0.004901958333333333
EXTRACT: pitchwheel channel=15 pitch=2833 time=0
EXTRACT: note_on channel=9 note=49 velocity=0 time=0.004901958333333333
EXTRACT: note_on channel=9 note=36 velocity=0 time=0
EXTRACT: pitchwheel channel=15 pitch=2844 time=0
EXTRACT: pitchwheel channel=15 pitch=2856 time=0.004901958333333333
EXTRACT: pitchwheel channel=15 pitch=2867 time=0.004901958333333333
EXTRACT: pitchwheel channel=15 pitch=2878 time=0.004901958333333333
EXTRACT: pitchwheel channel=15 pitch=2890 time=0.004901958333333333
EXTRACT: pitchwheel channel=15 pitch=2901 time=0.004901958333333333
EXTRACT: pitchwheel channel=15 pitch=2912 time=0.004901958333333333
EXTRACT: pitchwheel channel=15 pitch=2924 time=0.004901958333333333
EXTRACT: control_change channel=3 control=11 value=102 time=0.004901958333333333
EXTRACT: pitchwheel channel=15 pitch=2935 time=0
EXTRACT: pitchwheel channel=15 pitch=2947 time=0.004901958333333333
EXTRACT: pitchwheel channel=15 pitch=2958 time=0.004901958333333333
EXTRACT: pitchwheel channel=15 pitch=2969 time=0.004901958333333333
EXTRACT: pitchwheel channel=15 pitch=2981 time=0.004901958333333333
EXTRACT: pitchwheel channel=15 pitch=2992 time=0.004901958333333333
EXTRACT: pitchwheel channel=15 pitch=3003 time=0.004901958333333333
EXTRACT: pitchwheel channel=15 pitch=3015 time=0.004901958333333333
EXTRACT: pitchwheel channel=15 pitch=3026 time=0.004901958333333333
EXTRACT: control_change channel=3 control=11 value=103 time=0.004901958333333333
EXTRACT: pitchwheel channel=15 pitch=3038 time=0
EXTRACT: pitchwheel channel=15 pitch=3049 time=0.004901958333333333
EXTRACT: pitchwheel channel=15 pitch=3060 time=0.004901958333333333
EXTRACT: note_on channel=11 note=55 velocity=0 time=0.0036764687499999996
EXTRACT: note_on channel=11 note=60 velocity=0 time=0
EXTRACT: note_on channel=11 note=63 velocity=0 time=0
EXTRACT: note_on channel=0 note=36 velocity=0 time=0.0012254895833333332
EXTRACT: pitchwheel channel=15 pitch=3072 time=0
EXTRACT: pitchwheel channel=15 pitch=3083 time=0.004901958333333333
EXTRACT: pitchwheel channel=15 pitch=3094 time=0.004901958333333333
EXTRACT: pitchwheel channel=15 pitch=3106 time=0.004901958333333333
EXTRACT: pitchwheel channel=15 pitch=3117 time=0.004901958333333333
EXTRACT: pitchwheel channel=15 pitch=3129 time=0.004901958333333333
EXTRACT: control_change channel=3 control=11 value=104 time=0.004901958333333333
EXTRACT: pitchwheel channel=15 pitch=3140 time=0
EXTRACT: pitchwheel channel=15 pitch=3151 time=0.004901958333333333
EXTRACT: pitchwheel channel=15 pitch=3163 time=0.004901958333333333
EXTRACT: pitchwheel channel=15 pitch=3174 time=0.004901958333333333
EXTRACT: pitchwheel channel=15 pitch=3185 time=0.004901958333333333
EXTRACT: pitchwheel channel=15 pitch=3197 time=0.004901958333333333
EXTRACT: pitchwheel channel=15 pitch=3208 time=0.004901958333333333
EXTRACT: pitchwheel channel=15 pitch=3220 time=0.004901958333333333
EXTRACT: control_change channel=3 control=11 value=105 time=0.004901958333333333
EXTRACT: pitchwheel channel=15 pitch=3231 time=0
EXTRACT: pitchwheel channel=15 pitch=3242 time=0.004901958333333333
EXTRACT: pitchwheel channel=15 pitch=3254 time=0.004901958333333333
EXTRACT: pitchwheel channel=15 pitch=3265 time=0.004901958333333333
EXTRACT: pitchwheel channel=15 pitch=3276 time=0.004901958333333333
EXTRACT: pitchwheel channel=15 pitch=3288 time=0.004901958333333333
EXTRACT: pitchwheel channel=15 pitch=3299 time=0.004901958333333333
EXTRACT: pitchwheel channel=15 pitch=3311 time=0.004901958333333333
EXTRACT: pitchwheel channel=15 pitch=3322 time=0.004901958333333333
EXTRACT: control_change channel=3 control=11 value=106 time=0.004901958333333333
EXTRACT: pitchwheel channel=15 pitch=3333 time=0
EXTRACT: pitchwheel channel=15 pitch=3345 time=0.004901958333333333
EXTRACT: pitchwheel channel=15 pitch=3356 time=0.004901958333333333
EXTRACT: pitchwheel channel=15 pitch=3367 time=0.004901958333333333
EXTRACT: pitchwheel channel=15 pitch=3379 time=0.004901958333333333
EXTRACT: pitchwheel channel=15 pitch=3390 time=0.004901958333333333
EXTRACT: pitchwheel channel=15 pitch=3402 time=0.004901958333333333
EXTRACT: note_on channel=11 note=55 velocity=100 time=0.0036764687499999996
EXTRACT: note_on channel=11 note=60 velocity=106 time=0
EXTRACT: note_on channel=11 note=63 velocity=90 time=0
EXTRACT: note_on channel=0 note=36 velocity=109 time=0.0012254895833333332
EXTRACT: note_on channel=1 note=60 velocity=0 time=0
EXTRACT: note_on channel=9 note=42 velocity=101 time=0
EXTRACT: note_on channel=9 note=36 velocity=120 time=0
EXTRACT: note_on channel=9 note=54 velocity=70 time=0
EXTRACT: pitchwheel channel=15 pitch=3413 time=0
EXTRACT: control_change channel=3 control=11 value=107 time=0.009803916666666666
EXTRACT: note_on channel=9 note=42 velocity=0 time=0.03921566666666666
EXTRACT: note_on channel=9 note=36 velocity=0 time=0
EXTRACT: note_on channel=9 note=54 velocity=0 time=0
EXTRACT: control_change channel=3 control=11 value=108 time=0.004901958333333333
EXTRACT: control_change channel=3 control=11 value=109 time=0.044117624999999994
EXTRACT: control_change channel=3 control=11 value=110 time=0.044117624999999994
EXTRACT: note_on channel=11 note=55 velocity=0 time=0.0036764687499999996
EXTRACT: note_on channel=11 note=60 velocity=0 time=0
EXTRACT: note_on channel=11 note=63 velocity=0 time=0
EXTRACT: note_on channel=0 note=36 velocity=0 time=0.0012254895833333332
EXTRACT: control_change channel=3 control=11 value=111 time=0.03921566666666666
EXTRACT: control_change channel=3 control=11 value=112 time=0.044117624999999994
EXTRACT: control_change channel=3 control=11 value=113 time=0.044117624999999994
EXTRACT: note_on channel=11 note=55 velocity=96 time=0.01838234375
EXTRACT: note_on channel=11 note=60 velocity=97 time=0
EXTRACT: note_on channel=11 note=63 velocity=92 time=0
EXTRACT: note_on channel=9 note=42 velocity=77 time=0.0012254895833333332
EXTRACT: note_on channel=9 note=40 velocity=127 time=0
EXTRACT: note_on channel=14 note=79 velocity=0 time=0
EXTRACT: control_change channel=3 control=11 value=114 time=0.01960783333333333
EXTRACT: note_on channel=9 note=42 velocity=0 time=0.029411749999999997
EXTRACT: note_on channel=9 note=40 velocity=0 time=0
EXTRACT: control_change channel=3 control=11 value=115 time=0.014705874999999998
EXTRACT: control_change channel=3 control=11 value=116 time=0.044117624999999994
EXTRACT: note_on channel=11 note=55 velocity=0 time=0.037990177083333326
EXTRACT: note_on channel=11 note=60 velocity=0 time=0
EXTRACT: note_on channel=11 note=63 velocity=0 time=0
EXTRACT: control_change channel=3 control=11 value=117 time=0.006127447916666666
EXTRACT: control_change channel=3 control=11 value=118 time=0.044117624999999994
EXTRACT: control_change channel=3 control=11 value=119 time=0.044117624999999994
EXTRACT: control_change channel=3 control=11 value=120 time=0.044117624999999994
EXTRACT: note_on channel=11 note=55 velocity=107 time=0.008578427083333333
EXTRACT: note_on channel=11 note=60 velocity=107 time=0
EXTRACT: note_on channel=11 note=63 velocity=104 time=0
EXTRACT: note_on channel=0 note=38 velocity=113 time=0.0012254895833333332
EXTRACT: note_on channel=7 note=72 velocity=106 time=0
EXTRACT: note_on channel=9 note=42 velocity=105 time=0
EXTRACT: note_on channel=9 note=36 velocity=120 time=0
EXTRACT: note_on channel=9 note=54 velocity=67 time=0
EXTRACT: control_change channel=3 control=11 value=121 time=0.03431370833333333
EXTRACT: note_on channel=9 note=42 velocity=0 time=0.014705874999999998
EXTRACT: note_on channel=9 note=36 velocity=0 time=0
EXTRACT: note_on channel=9 note=54 velocity=0 time=0
EXTRACT: control_change channel=3 control=11 value=122 time=0.029411749999999997
EXTRACT: control_change channel=3 control=11 value=123 time=0.03921566666666666
EXTRACT: note_on channel=11 note=55 velocity=0 time=0.028186260416666664
EXTRACT: note_on channel=11 note=60 velocity=0 time=0
EXTRACT: note_on channel=11 note=63 velocity=0 time=0
EXTRACT: note_on channel=0 note=38 velocity=0 time=0.0012254895833333332
EXTRACT: note_on channel=7 note=72 velocity=0 time=0
EXTRACT: note_on channel=7 note=74 velocity=96 time=0
EXTRACT: control_change channel=3 control=11 value=124 time=0.014705874999999998
EXTRACT: control_change channel=3 control=11 value=125 time=0.044117624999999994
EXTRACT: control_change channel=3 control=11 value=126 time=0.044117624999999994
EXTRACT: note_on channel=11 note=55 velocity=87 time=0.042892135416666664
EXTRACT: note_on channel=11 note=60 velocity=88 time=0
EXTRACT: note_on channel=11 note=63 velocity=95 time=0
EXTRACT: note_on channel=0 note=39 velocity=118 time=0.0012254895833333332
EXTRACT: control_change channel=3 control=11 value=127 time=0
EXTRACT: note_on channel=7 note=74 velocity=0 time=0
EXTRACT: note_on channel=7 note=75 velocity=82 time=0
EXTRACT: note_on channel=9 note=42 velocity=78 time=0
EXTRACT: note_on channel=9 note=36 velocity=120 time=0
EXTRACT: note_on channel=9 note=42 velocity=0 time=0.049019583333333325
EXTRACT: note_on channel=9 note=36 velocity=0 time=0
EXTRACT: note_on channel=11 note=55 velocity=0 time=0.09681367708333333
EXTRACT: note_on channel=11 note=60 velocity=0 time=0
EXTRACT: note_on channel=11 note=63 velocity=0 time=0
EXTRACT: note_on channel=7 note=75 velocity=0 time=0.0012254895833333332
EXTRACT: note_on channel=11 note=55 velocity=96 time=0.14583326041666664
EXTRACT: note_on channel=11 note=60 velocity=89 time=0
EXTRACT: note_on channel=11 note=63 velocity=89 time=0
EXTRACT: note_on channel=0 note=39 velocity=0 time=0.0012254895833333332
EXTRACT: note_on channel=9 note=42 velocity=105 time=0
EXTRACT: note_on channel=9 note=54 velocity=78 time=0
EXTRACT: note_on channel=14 note=79 velocity=99 time=0
EXTRACT: note_on channel=9 note=42 velocity=0 time=0.049019583333333325
EXTRACT: note_on channel=9 note=54 velocity=0 time=0
EXTRACT: note_on channel=11 note=55 velocity=0 time=0.09681367708333333
EXTRACT: note_on channel=11 note=60 velocity=0 time=0
EXTRACT: note_on channel=11 note=63 velocity=0 time=0
EXTRACT: note_on channel=14 note=79 velocity=0 time=0.0012254895833333332
EXTRACT: note_on channel=11 note=55 velocity=106 time=0.14583326041666664
EXTRACT: note_on channel=11 note=60 velocity=89 time=0
EXTRACT: note_on channel=11 note=63 velocity=110 time=0
EXTRACT: note_on channel=0 note=43 velocity=111 time=0.0012254895833333332
EXTRACT: note_on channel=9 note=42 velocity=76 time=0
EXTRACT: note_on channel=9 note=40 velocity=127 time=0
EXTRACT: note_on channel=14 note=77 velocity=122 time=0
EXTRACT: note_on channel=9 note=42 velocity=0 time=0.049019583333333325
EXTRACT: note_on channel=9 note=40 velocity=0 time=0
EXTRACT: note_on channel=11 note=55 velocity=0 time=0.09681367708333333
EXTRACT: note_on channel=11 note=60 velocity=0 time=0
EXTRACT: note_on channel=11 note=63 velocity=0 time=0
EXTRACT: note_on channel=14 note=77 velocity=0 time=0.0012254895833333332
EXTRACT: note_on channel=11 note=55 velocity=107 time=0.14583326041666664
EXTRACT: note_on channel=11 note=60 velocity=96 time=0
EXTRACT: note_on channel=11 note=63 velocity=106 time=0
EXTRACT: note_on channel=0 note=43 velocity=0 time=0.0012254895833333332
EXTRACT: note_on channel=9 note=42 velocity=103 time=0
EXTRACT: note_on channel=9 note=54 velocity=66 time=0
EXTRACT: note_on channel=14 note=79 velocity=111 time=0
EXTRACT: note_on channel=9 note=42 velocity=0 time=0.049019583333333325
EXTRACT: note_on channel=9 note=54 velocity=0 time=0
EXTRACT: note_on channel=11 note=55 velocity=0 time=0.09681367708333333
EXTRACT: note_on channel=11 note=60 velocity=0 time=0
EXTRACT: note_on channel=11 note=63 velocity=0 time=0
EXTRACT: note_on channel=14 note=79 velocity=0 time=0.0012254895833333332
EXTRACT: note_on channel=11 note=56 velocity=99 time=0.14583326041666664
EXTRACT: note_on channel=11 note=60 velocity=110 time=0
EXTRACT: note_on channel=11 note=63 velocity=102 time=0
EXTRACT: note_on channel=0 note=44 velocity=107 time=0.0012254895833333332
EXTRACT: note_on channel=2 note=60 velocity=0 time=0
EXTRACT: note_on channel=2 note=63 velocity=0 time=0
EXTRACT: note_on channel=2 note=67 velocity=0 time=0
EXTRACT: note_on channel=2 note=60 velocity=119 time=0
EXTRACT: note_on channel=2 note=63 velocity=102 time=0
EXTRACT: note_on channel=2 note=68 velocity=125 time=0
EXTRACT: note_on channel=3 note=55 velocity=0 time=0
EXTRACT: note_on channel=3 note=56 velocity=95 time=0
EXTRACT: note_on channel=9 note=42 velocity=83 time=0
EXTRACT: note_on channel=9 note=36 velocity=120 time=0
EXTRACT: note_on channel=14 note=75 velocity=126 time=0
EXTRACT: note_on channel=9 note=42 velocity=0 time=0.049019583333333325
EXTRACT: note_on channel=9 note=36 velocity=0 time=0
EXTRACT: note_on channel=11 note=56 velocity=0 time=0.09681367708333333
EXTRACT: note_on channel=11 note=60 velocity=0 time=0
EXTRACT: note_on channel=11 note=63 velocity=0 time=0
EXTRACT: note_on channel=0 note=44 velocity=0 time=0.0012254895833333332
EXTRACT: note_on channel=14 note=75 velocity=0 time=0
EXTRACT: note_on channel=11 note=56 velocity=98 time=0.14583326041666664
EXTRACT: note_on channel=11 note=60 velocity=102 time=0
EXTRACT: note_on channel=11 note=63 velocity=90 time=0
EXTRACT: note_on channel=0 note=44 velocity=122 time=0.0012254895833333332
EXTRACT: note_on channel=9 note=42 velocity=97 time=0
EXTRACT: note_on channel=9 note=36 velocity=120 time=0
EXTRACT: note_on channel=9 note=54 velocity=71 time=0
EXTRACT: note_on channel=14 note=77 velocity=127 time=0
EXTRACT: note_on channel=9 note=42 velocity=0 time=0.049019583333333325
EXTRACT: note_on channel=9 note=36 velocity=0 time=0
EXTRACT: note_on channel=9 note=54 velocity=0 time=0
EXTRACT: note_on channel=14 note=77 velocity=0 time=0.024509791666666662
EXTRACT: note_on channel=11 note=56 velocity=0 time=0.07230388541666666
EXTRACT: note_on channel=11 note=60 velocity=0 time=0
EXTRACT: note_on channel=11 note=63 velocity=0 time=0
EXTRACT: note_on channel=0 note=44 velocity=0 time=0.0012254895833333332
EXTRACT: note_on channel=11 note=56 velocity=98 time=0.14583326041666664
EXTRACT: note_on channel=11 note=60 velocity=93 time=0
EXTRACT: note_on channel=11 note=63 velocity=104 time=0
EXTRACT: note_on channel=9 note=42 velocity=78 time=0.0012254895833333332
EXTRACT: note_on channel=9 note=40 velocity=127 time=0
EXTRACT: note_on channel=9 note=42 velocity=0 time=0.049019583333333325
EXTRACT: note_on channel=9 note=40 velocity=0 time=0
EXTRACT: note_on channel=11 note=56 velocity=0 time=0.09681367708333333
EXTRACT: note_on channel=11 note=60 velocity=0 time=0
EXTRACT: note_on channel=11 note=63 velocity=0 time=0
EXTRACT: note_on channel=11 note=56 velocity=111 time=0.14705875
EXTRACT: note_on channel=11 note=60 velocity=110 time=0
EXTRACT: note_on channel=11 note=63 velocity=100 time=0
EXTRACT: note_on channel=0 note=39 velocity=103 time=0.0012254895833333332
EXTRACT: note_on channel=9 note=42 velocity=99 time=0
EXTRACT: note_on channel=9 note=36 velocity=120 time=0
EXTRACT: note_on channel=9 note=54 velocity=85 time=0
EXTRACT: note_on channel=9 note=42 velocity=0 time=0.049019583333333325
EXTRACT: note_on channel=9 note=36 velocity=0 time=0
EXTRACT: note_on channel=9 note=54 velocity=0 time=0
EXTRACT: note_on channel=11 note=56 velocity=0 time=0.09681367708333333
EXTRACT: note_on channel=11 note=60 velocity=0 time=0
EXTRACT: note_on channel=11 note=63 velocity=0 time=0
EXTRACT: note_on channel=0 note=39 velocity=0 time=0.0012254895833333332
EXTRACT: note_on channel=11 note=56 velocity=98 time=0.14583326041666664
EXTRACT: note_on channel=11 note=60 velocity=96 time=0
EXTRACT: note_on channel=11 note=63 velocity=87 time=0
EXTRACT: note_on channel=0 note=44 velocity=103 time=0.0012254895833333332
EXTRACT: note_on channel=9 note=42 velocity=80 time=0
EXTRACT: note_on channel=9 note=36 velocity=120 time=0
EXTRACT: note_on channel=9 note=42 velocity=0 time=0.049019583333333325
EXTRACT: note_on channel=9 note=36 velocity=0 time=0
EXTRACT: note_on channel=11 note=56 velocity=0 time=0.09681367708333333
EXTRACT: note_on channel=11 note=60 velocity=0 time=0
EXTRACT: note_on channel=11 note=63 velocity=0 time=0
EXTRACT: note_on channel=11 note=56 velocity=100 time=0.14705875
EXTRACT: note_on channel=11 note=60 velocity=109 time=0
EXTRACT: note_on channel=11 note=63 velocity=112 time=0
EXTRACT: note_on channel=0 note=44 velocity=0 time=0.0012254895833333332
EXTRACT: note_on channel=9 note=42 velocity=100 time=0
EXTRACT: note_on channel=9 note=54 velocity=79 time=0
EXTRACT: note_on channel=9 note=42 velocity=0 time=0.049019583333333325
EXTRACT: note_on channel=9 note=54 velocity=0 time=0
EXTRACT: note_on channel=11 note=56 velocity=0 time=0.09681367708333333
EXTRACT: note_on channel=11 note=60 velocity=0 time=0
EXTRACT: note_on channel=11 note=63 velocity=0 time=0
EXTRACT: note_on channel=14 note=72 velocity=120 time=0.0012254895833333332
EXTRACT: note_on channel=14 note=72 velocity=0 time=0.073529375
EXTRACT: note_on channel=11 note=56 velocity=104 time=0.07230388541666666
EXTRACT: note_on channel=11 note=60 velocity=107 time=0
EXTRACT: note_on channel=11 note=63 velocity=94 time=0
EXTRACT: note_on channel=9 note=42 velocity=80 time=0.0012254895833333332
EXTRACT: note_on channel=9 note=40 velocity=127 time=0
EXTRACT: note_on channel=14 note=72 velocity=96 time=0
EXTRACT: note_on channel=9 note=42 velocity=0 time=0.049019583333333325
EXTRACT: note_on channel=9 note=40 velocity=0 time=0
EXTRACT: note_on channel=11 note=56 velocity=0 time=0.09681367708333333
EXTRACT: note_on channel=11 note=60 velocity=0 time=0
EXTRACT: note_on channel=11 note=63 velocity=0 time=0
EXTRACT: note_on channel=14 note=72 velocity=0 time=0.0012254895833333332
EXTRACT: note_on channel=11 note=56 velocity=88 time=0.14583326041666664
EXTRACT: note_on channel=11 note=60 velocity=106 time=0
EXTRACT: note_on channel=11 note=63 velocity=94 time=0
EXTRACT: note_on channel=9 note=42 velocity=101 time=0.0012254895833333332
EXTRACT: note_on channel=9 note=54 velocity=78 time=0
EXTRACT: note_on channel=14 note=74 velocity=106 time=0
EXTRACT: note_on channel=9 note=42 velocity=0 time=0.049019583333333325
EXTRACT: note_on channel=9 note=54 velocity=0 time=0
EXTRACT: note_on channel=11 note=56 velocity=0 time=0.09681367708333333
EXTRACT: note_on channel=11 note=60 velocity=0 time=0
EXTRACT: note_on channel=11 note=63 velocity=0 time=0
EXTRACT: note_on channel=14 note=74 velocity=0 time=0.0012254895833333332
EXTRACT: note_on channel=11 note=58 velocity=112 time=0.14583326041666664
EXTRACT: note_on channel=11 note=53 velocity=98 time=0
EXTRACT: note_on channel=11 note=63 velocity=95 time=0
EXTRACT: note_on channel=0 note=34 velocity=110 time=0.0012254895833333332
EXTRACT: note_on channel=2 note=60 velocity=0 time=0
EXTRACT: note_on channel=2 note=63 velocity=0 time=0
EXTRACT: note_on channel=2 note=68 velocity=0 time=0
EXTRACT: note_on channel=2 note=70 velocity=107 time=0
EXTRACT: note_on channel=2 note=63 velocity=118 time=0
EXTRACT: note_on channel=2 note=65 velocity=106 time=0
EXTRACT: note_on channel=3 note=60 velocity=0 time=0
EXTRACT: note_on channel=3 note=56 velocity=0 time=0
EXTRACT: note_on channel=3 note=65 velocity=79 time=0
EXTRACT: note_on channel=3 note=58 velocity=79 time=0
EXTRACT: note_on channel=9 note=42 velocity=84 time=0
EXTRACT: note_on channel=9 note=36 velocity=120 time=0
EXTRACT: note_on channel=14 note=77 velocity=95 time=0
EXTRACT: note_on channel=9 note=42 velocity=0 time=0.049019583333333325
EXTRACT: note_on channel=9 note=36 velocity=0 time=0
EXTRACT: note_on channel=11 note=58 velocity=0 time=0.09681367708333333
EXTRACT: note_on channel=11 note=53 velocity=0 time=0
EXTRACT: note_on channel=11 note=63 velocity=0 time=0
EXTRACT: note_on channel=0 note=34 velocity=0 time=0.0012254895833333332
EXTRACT: note_on channel=11 note=58 velocity=111 time=0.14583326041666664
EXTRACT: note_on channel=11 note=53 velocity=107 time=0
EXTRACT: note_on channel=11 note=63 velocity=99 time=0
EXTRACT: note_on channel=0 note=34 velocity=124 time=0.0012254895833333332
EXTRACT: note_on channel=9 note=42 velocity=98 time=0
EXTRACT: note_on channel=9 note=36 velocity=120 time=0
EXTRACT: note_on channel=9 note=54 velocity=75 time=0
EXTRACT: note_on channel=14 note=77 velocity=0 time=0
EXTRACT: note_on channel=9 note=42 velocity=0 time=0.049019583333333325
EXTRACT: note_on channel=9 note=36 velocity=0 time=0
EXTRACT: note_on channel=9 note=54 velocity=0 time=0
EXTRACT: note_on channel=11 note=58 velocity=0 time=0.09681367708333333
EXTRACT: note_on channel=11 note=53 velocity=0 time=0
EXTRACT: note_on channel=11 note=63 velocity=0 time=0
EXTRACT: note_on channel=0 note=34 velocity=0 time=0.0012254895833333332
EXTRACT: note_on channel=11 note=58 velocity=99 time=0.14583326041666664
EXTRACT: note_on channel=11 note=53 velocity=108 time=0
EXTRACT: note_on channel=11 note=63 velocity=94 time=0
EXTRACT: note_on channel=9 note=42 velocity=71 time=0.0012254895833333332
EXTRACT: note_on channel=9 note=40 velocity=127 time=0
EXTRACT: note_on channel=14 note=79 velocity=107 time=0
EXTRACT: note_on channel=9 note=42 velocity=0 time=0.049019583333333325
EXTRACT: note_on channel=9 note=40 velocity=0 time=0
EXTRACT: note_on channel=11 note=58 velocity=0 time=0.09681367708333333
EXTRACT: note_on channel=11 note=53 velocity=0 time=0
EXTRACT: note_on channel=11 note=63 velocity=0 time=0
EXTRACT: note_on channel=11 note=58 velocity=97 time=0.14705875
EXTRACT: note_on channel=11 note=53 velocity=103 time=0
EXTRACT: note_on channel=11 note=63 velocity=96 time=0
EXTRACT: note_on channel=0 note=34 velocity=123 time=0.0012254895833333332
EXTRACT: note_on channel=7 note=70 velocity=97 time=0
EXTRACT: note_on channel=9 note=42 velocity=96 time=0
EXTRACT: note_on channel=9 note=36 velocity=120 time=0
EXTRACT: note_on channel=9 note=54 velocity=85 time=0
EXTRACT: note_on channel=14 note=79 velocity=0 time=0
EXTRACT: note_on channel=9 note=42 velocity=0 time=0.049019583333333325
EXTRACT: note_on channel=9 note=36 velocity=0 time=0
EXTRACT: note_on channel=9 note=54 velocity=0 time=0
EXTRACT: note_on channel=0 note=34 velocity=0 time=0.024509791666666662
EXTRACT: note_on channel=11 note=58 velocity=0 time=0.07230388541666666
EXTRACT: note_on channel=11 note=53 velocity=0 time=0
EXTRACT: note_on channel=11 note=63 velocity=0 time=0
EXTRACT: note_on channel=0 note=36 velocity=121 time=0.0012254895833333332
EXTRACT: note_on channel=7 note=70 velocity=0 time=0
EXTRACT: note_on channel=7 note=72 velocity=98 time=0
EXTRACT: note_on channel=9 note=36 velocity=80 time=0
EXTRACT: note_on channel=9 note=36 velocity=0 time=0.049019583333333325
EXTRACT: note_on channel=0 note=36 velocity=0 time=0.024509791666666662
EXTRACT: note_on channel=11 note=58 velocity=96 time=0.07230388541666666
EXTRACT: note_on channel=11 note=53 velocity=107 time=0
EXTRACT: note_on channel=11 note=62 velocity=102 time=0
EXTRACT: note_on channel=0 note=38 velocity=116 time=0.0012254895833333332
EXTRACT: note_on channel=2 note=70 velocity=0 time=0
EXTRACT: note_on channel=2 note=63 velocity=0 time=0
EXTRACT: note_on channel=2 note=65 velocity=0 time=0
EXTRACT: note_on channel=2 note=65 velocity=125 time=0
EXTRACT: note_on channel=2 note=62 velocity=107 time=0
EXTRACT: note_on channel=2 note=70 velocity=113 time=0
EXTRACT: note_on channel=3 note=63 velocity=0 time=0
EXTRACT: note_on channel=3 note=62 velocity=86 time=0
EXTRACT: note_on channel=7 note=72 velocity=0 time=0
EXTRACT: note_on channel=7 note=74 velocity=84 time=0
EXTRACT: note_on channel=9 note=42 velocity=83 time=0
EXTRACT: note_on channel=9 note=36 velocity=120 time=0
EXTRACT: note_on channel=14 note=77 velocity=107 time=0
EXTRACT: note_on channel=9 note=42 velocity=0 time=0.049019583333333325
EXTRACT: note_on channel=9 note=36 velocity=0 time=0
EXTRACT: note_on channel=11 note=58 velocity=0 time=0.09681367708333333
EXTRACT: note_on channel=11 note=53 velocity=0 time=0
EXTRACT: note_on channel=11 note=62 velocity=0 time=0
EXTRACT: note_on channel=7 note=74 velocity=0 time=0.0012254895833333332
EXTRACT: note_on channel=11 note=58 velocity=89 time=0.14583326041666664
EXTRACT: note_on channel=11 note=53 velocity=88 time=0
EXTRACT: note_on channel=11 note=62 velocity=110 time=0
EXTRACT: note_on channel=9 note=42 velocity=95 time=0.0012254895833333332
EXTRACT: note_on channel=9 note=54 velocity=66 time=0
EXTRACT: note_on channel=14 note=77 velocity=0 time=0
EXTRACT: note_on channel=9 note=42 velocity=0 time=0.049019583333333325
EXTRACT: note_on channel=9 note=54 velocity=0 time=0
EXTRACT: note_on channel=11 note=58 velocity=0 time=0.09681367708333333
EXTRACT: note_on channel=11 note=53 velocity=0 time=0
EXTRACT: note_on channel=11 note=62 velocity=0 time=0
EXTRACT: note_on channel=11 note=58 velocity=102 time=0.14705875
EXTRACT: note_on channel=11 note=53 velocity=108 time=0
EXTRACT: note_on channel=11 note=62 velocity=92 time=0
EXTRACT: note_on channel=9 note=42 velocity=80 time=0.0012254895833333332
EXTRACT: note_on channel=9 note=40 velocity=127 time=0
EXTRACT: note_on channel=14 note=75 velocity=106 time=0
EXTRACT: note_on channel=9 note=42 velocity=0 time=0.049019583333333325
EXTRACT: note_on channel=9 note=40 velocity=0 time=0
EXTRACT: note_on channel=11 note=58 velocity=0 time=0.09681367708333333
EXTRACT: note_on channel=11 note=53 velocity=0 time=0
EXTRACT: note_on channel=11 note=62 velocity=0 time=0
EXTRACT: note_on channel=14 note=75 velocity=0 time=0.0012254895833333332
EXTRACT: note_on channel=11 note=58 velocity=97 time=0.14583326041666664
EXTRACT: note_on channel=11 note=53 velocity=104 time=0
EXTRACT: note_on channel=11 note=62 velocity=95 time=0
EXTRACT: note_on channel=0 note=38 velocity=0 time=0.0012254895833333332
EXTRACT: note_on channel=9 note=36 velocity=100 time=0
EXTRACT: note_on channel=9 note=42 velocity=98 time=0
EXTRACT: note_on channel=9 note=54 velocity=76 time=0
EXTRACT: note_on channel=14 note=77 velocity=105 time=0
EXTRACT: note_on channel=9 note=36 velocity=0 time=0.049019583333333325
EXTRACT: note_on channel=9 note=42 velocity=0 time=0
EXTRACT: note_on channel=9 note=54 velocity=0 time=0
EXTRACT: note_on channel=11 note=58 velocity=0 time=0.09681367708333333
EXTRACT: note_on channel=11 note=53 velocity=0 time=0
EXTRACT: note_on channel=11 note=62 velocity=0 time=0
EXTRACT: note_on channel=14 note=77 velocity=0 time=0.0012254895833333332
EXTRACT: note_on channel=11 note=58 velocity=96 time=0.14583326041666664
EXTRACT: note_on channel=11 note=55 velocity=94 time=0
EXTRACT: note_on channel=11 note=63 velocity=107 time=0
EXTRACT: note_on channel=0 note=39 velocity=113 time=0.0012254895833333332
EXTRACT: note_on channel=2 note=65 velocity=0 time=0
EXTRACT: note_on channel=2 note=62 velocity=0 time=0
EXTRACT: note_on channel=2 note=70 velocity=0 time=0
EXTRACT: note_on channel=2 note=67 velocity=118 time=0
EXTRACT: note_on channel=2 note=63 velocity=103 time=0
EXTRACT: note_on channel=2 note=58 velocity=108 time=0
EXTRACT: note_on channel=3 note=65 velocity=0 time=0
EXTRACT: note_on channel=3 note=58 velocity=0 time=0
EXTRACT: note_on channel=3 note=62 velocity=0 time=0
EXTRACT: note_on channel=3 note=58 velocity=92 time=0
EXTRACT: note_on channel=3 note=67 velocity=96 time=0
EXTRACT: note_on channel=3 note=63 velocity=92 time=0
EXTRACT: note_on channel=9 note=42 velocity=83 time=0
EXTRACT: note_on channel=9 note=36 velocity=120 time=0
EXTRACT: note_on channel=14 note=79 velocity=96 time=0
EXTRACT: note_on channel=9 note=42 velocity=0 time=0.049019583333333325
EXTRACT: note_on channel=9 note=36 velocity=0 time=0
EXTRACT: note_on channel=11 note=58 velocity=0 time=0.09681367708333333
EXTRACT: note_on channel=11 note=55 velocity=0 time=0
EXTRACT: note_on channel=11 note=63 velocity=0 time=0
EXTRACT: note_on channel=14 note=79 velocity=0 time=0.0012254895833333332
EXTRACT: note_on channel=11 note=58 velocity=88 time=0.14583326041666664
EXTRACT: note_on channel=11 note=55 velocity=105 time=0
EXTRACT: note_on channel=11 note=63 velocity=91 time=0
EXTRACT: note_on channel=9 note=42 velocity=100 time=0.0012254895833333332
EXTRACT: note_on channel=9 note=54 velocity=78 time=0
EXTRACT: note_on channel=14 note=80 velocity=108 time=0
EXTRACT: note_on channel=9 note=42 velocity=0 time=0.049019583333333325
EXTRACT: note_on channel=9 note=54 velocity=0 time=0
EXTRACT: note_on channel=11 note=58 velocity=0 time=0.09681367708333333
EXTRACT: note_on channel=11 note=55 velocity=0 time=0
EXTRACT: note_on channel=11 note=63 velocity=0 time=0
EXTRACT: note_on channel=0 note=39 velocity=0 time=0.0012254895833333332
EXTRACT: note_on channel=14 note=80 velocity=0 time=0
EXTRACT: note_on channel=11 note=58 velocity=92 time=0.14583326041666664
EXTRACT: note_on channel=11 note=55 velocity=94 time=0
EXTRACT: note_on channel=11 note=63 velocity=107 time=0
EXTRACT: note_on channel=0 note=39 velocity=105 time=0.0012254895833333332
EXTRACT: note_on channel=9 note=42 velocity=73 time=0
EXTRACT: note_on channel=9 note=40 velocity=127 time=0
EXTRACT: note_on channel=14 note=79 velocity=123 time=0
EXTRACT: note_on channel=9 note=42 velocity=0 time=0.049019583333333325
EXTRACT: note_on channel=9 note=40 velocity=0 time=0
EXTRACT: note_on channel=11 note=58 velocity=0 time=0.09681367708333333
EXTRACT: note_on channel=11 note=55 velocity=0 time=0
EXTRACT: note_on channel=11 note=63 velocity=0 time=0
EXTRACT: note_on channel=14 note=79 velocity=0 time=0.0012254895833333332
EXTRACT: note_on channel=11 note=58 velocity=105 time=0.14583326041666664
EXTRACT: note_on channel=11 note=55 velocity=105 time=0
EXTRACT: note_on channel=11 note=63 velocity=102 time=0
EXTRACT: note_on channel=9 note=42 velocity=103 time=0.0012254895833333332
EXTRACT: note_on channel=9 note=36 velocity=120 time=0
EXTRACT: note_on channel=9 note=54 velocity=85 time=0
EXTRACT: note_on channel=14 note=77 velocity=125 time=0
EXTRACT: note_on channel=9 note=42 velocity=0 time=0.049019583333333325
EXTRACT: note_on channel=9 note=36 velocity=0 time=0
EXTRACT: note_on channel=9 note=54 velocity=0 time=0
EXTRACT: note_on channel=11 note=58 velocity=0 time=0.09681367708333333
EXTRACT: note_on channel=11 note=55 velocity=0 time=0
EXTRACT: note_on channel=11 note=63 velocity=0 time=0
EXTRACT: note_on channel=0 note=39 velocity=0 time=0.0012254895833333332
EXTRACT: note_on channel=14 note=77 velocity=0 time=0
EXTRACT: note_on channel=11 note=59 velocity=93 time=0.14583326041666664
EXTRACT: note_on channel=11 note=55 velocity=92 time=0
EXTRACT: note_on channel=11 note=62 velocity=94 time=0
EXTRACT: note_on channel=0 note=43 velocity=105 time=0.0012254895833333332
EXTRACT: note_on channel=2 note=67 velocity=0 time=0
EXTRACT: note_on channel=2 note=63 velocity=0 time=0
EXTRACT: note_on channel=2 note=58 velocity=0 time=0
EXTRACT: note_on channel=2 note=59 velocity=112 time=0
EXTRACT: note_on channel=2 note=62 velocity=121 time=0
EXTRACT: note_on channel=2 note=67 velocity=112 time=0
EXTRACT: note_on channel=3 note=58 velocity=0 time=0
EXTRACT: note_on channel=3 note=63 velocity=0 time=0
EXTRACT: note_on channel=3 note=59 velocity=92 time=0
EXTRACT: note_on channel=3 note=62 velocity=78 time=0
EXTRACT: note_on channel=9 note=42 velocity=79 time=0
EXTRACT: note_on channel=9 note=36 velocity=120 time=0
EXTRACT: note_on channel=14 note=77 velocity=111 time=0
EXTRACT: note_on channel=9 note=42 velocity=0 time=0.049019583333333325
EXTRACT: note_on channel=9 note=36 velocity=0 time=0
EXTRACT: note_on channel=11 note=59 velocity=0 time=0.09681367708333333
EXTRACT: note_on channel=11 note=55 velocity=0 time=0
EXTRACT: note_on channel=11 note=62 velocity=0 time=0
EXTRACT: note_on channel=14 note=77 velocity=0 time=0.0012254895833333332
EXTRACT: note_on channel=11 note=59 velocity=87 time=0.14583326041666664
EXTRACT: note_on channel=11 note=55 velocity=107 time=0
EXTRACT: note_on channel=11 note=62 velocity=101 time=0
EXTRACT: note_on channel=9 note=36 velocity=120 time=0.0012254895833333332
EXTRACT: note_on channel=9 note=42 velocity=105 time=0
EXTRACT: note_on channel=9 note=54 velocity=82 time=0
EXTRACT: note_on channel=9 note=36 velocity=0 time=0.049019583333333325
EXTRACT: note_on channel=9 note=42 velocity=0 time=0
EXTRACT: note_on channel=9 note=54 velocity=0 time=0
EXTRACT: note_on channel=11 note=59 velocity=0 time=0.09681367708333333
EXTRACT: note_on channel=11 note=55 velocity=0 time=0
EXTRACT: note_on channel=11 note=62 velocity=0 time=0
EXTRACT: note_on channel=0 note=43 velocity=0 time=0.0012254895833333332
EXTRACT: note_on channel=11 note=59 velocity=89 time=0.14583326041666664
EXTRACT: note_on channel=11 note=55 velocity=103 time=0
EXTRACT: note_on channel=11 note=62 velocity=94 time=0
EXTRACT: note_on channel=0 note=31 velocity=107 time=0.0012254895833333332
EXTRACT: note_on channel=9 note=42 velocity=78 time=0
EXTRACT: note_on channel=9 note=40 velocity=127 time=0
EXTRACT: note_on channel=14 note=72 velocity=100 time=0
EXTRACT: note_on channel=9 note=42 velocity=0 time=0.049019583333333325
EXTRACT: note_on channel=9 note=40 velocity=0 time=0
EXTRACT: note_on channel=11 note=59 velocity=0 time=0.09681367708333333
EXTRACT: note_on channel=11 note=55 velocity=0 time=0
EXTRACT: note_on channel=11 note=62 velocity=0 time=0
EXTRACT: note_on channel=14 note=72 velocity=0 time=0.0012254895833333332
EXTRACT: note_on channel=11 note=59 velocity=89 time=0.14583326041666664
EXTRACT: note_on channel=11 note=55 velocity=104 time=0
EXTRACT: note_on channel=11 note=62 velocity=94 time=0
EXTRACT: note_on channel=9 note=36 velocity=110 time=0.0012254895833333332
EXTRACT: note_on channel=9 note=42 velocity=97 time=0
EXTRACT: note_on channel=9 note=54 velocity=70 time=0
EXTRACT: note_on channel=14 note=75 velocity=113 time=0
EXTRACT: note_on channel=9 note=36 velocity=0 time=0.049019583333333325
EXTRACT: note_on channel=9 note=42 velocity=0 time=0
EXTRACT: note_on channel=9 note=54 velocity=0 time=0
EXTRACT: note_on channel=11 note=59 velocity=0 time=0.09681367708333333
EXTRACT: note_on channel=11 note=55 velocity=0 time=0
EXTRACT: note_on channel=11 note=62 velocity=0 time=0
EXTRACT: note_on channel=0 note=31 velocity=0 time=0.0012254895833333332
EXTRACT: note_on channel=14 note=75 velocity=0 time=0
EXTRACT: note_on channel=11 note=55 velocity=104 time=0.14583326041666664
EXTRACT: note_on channel=11 note=60 velocity=87 time=0
EXTRACT: note_on channel=11 note=63 velocity=109 time=0
EXTRACT: note_on channel=0 note=36 velocity=115 time=0.0012254895833333332
EXTRACT: note_on channel=1 note=60 velocity=125 time=0
EXTRACT: note_on channel=2 note=59 velocity=0 time=0
EXTRACT: note_on channel=2 note=62 velocity=0 time=0
EXTRACT: note_on channel=2 note=67 velocity=0 time=0
EXTRACT: note_on channel=2 note=60 velocity=111 time=0
EXTRACT: note_on channel=2 note=63 velocity=127 time=0
EXTRACT: note_on channel=2 note=67 velocity=107 time=0
EXTRACT: note_on channel=3 note=67 velocity=0 time=0
EXTRACT: note_on channel=3 note=59 velocity=0 time=0
EXTRACT: note_on channel=3 note=62 velocity=0 time=0
EXTRACT: note_on channel=3 note=63 velocity=99 time=0
EXTRACT: note_on channel=3 note=60 velocity=95 time=0
EXTRACT: note_on channel=3 note=55 velocity=89 time=0
EXTRACT: note_on channel=9 note=49 velocity=100 time=0
EXTRACT: note_on channel=9 note=36 velocity=120 time=0
EXTRACT: note_on channel=14 note=79 velocity=127 time=0
EXTRACT: note_on channel=9 note=49 velocity=0 time=0.049019583333333325
EXTRACT: note_on channel=9 note=36 velocity=0 time=0
EXTRACT: note_on channel=11 note=55 velocity=0 time=0.09681367708333333
EXTRACT: note_on channel=11 note=60 velocity=0 time=0
EXTRACT: note_on channel=11 note=63 velocity=0 time=0
EXTRACT: note_on channel=0 note=36 velocity=0 time=0.0012254895833333332
EXTRACT: note_on channel=11 note=55 velocity=107 time=0.14583326041666664
EXTRACT: note_on channel=11 note=60 velocity=103 time=0
EXTRACT: note_on channel=11 note=63 velocity=102 time=0
EXTRACT: note_on channel=0 note=36 velocity=112 time=0.0012254895833333332
EXTRACT: note_on channel=1 note=60 velocity=0 time=0
EXTRACT: note_on channel=9 note=42 velocity=102 time=0
EXTRACT: note_on channel=9 note=36 velocity=120 time=0
EXTRACT: note_on channel=9 note=54 velocity=75 time=0
EXTRACT: note_on channel=14 note=79 velocity=0 time=0
EXTRACT: note_on channel=9 note=42 velocity=0 time=0.049019583333333325
EXTRACT: note_on channel=9 note=36 velocity=0 time=0
EXTRACT: note_on channel=9 note=54 velocity=0 time=0
EXTRACT: note_on channel=11 note=55 velocity=0 time=0.09681367708333333
EXTRACT: note_on channel=11 note=60 velocity=0 time=0
EXTRACT: note_on channel=11 note=63 velocity=0 time=0
EXTRACT: note_on channel=0 note=36 velocity=0 time=0.0012254895833333332
EXTRACT: note_on channel=11 note=55 velocity=90 time=0.14583326041666664
EXTRACT: note_on channel=11 note=60 velocity=95 time=0
EXTRACT: note_on channel=11 note=63 velocity=89 time=0
EXTRACT: note_on channel=9 note=42 velocity=72 time=0.0012254895833333332
EXTRACT: note_on channel=9 note=40 velocity=127 time=0
EXTRACT: note_on channel=9 note=42 velocity=0 time=0.049019583333333325
EXTRACT: note_on channel=9 note=40 velocity=0 time=0
EXTRACT: note_on channel=11 note=55 velocity=0 time=0.09681367708333333
EXTRACT: note_on channel=11 note=60 velocity=0 time=0
EXTRACT: note_on channel=11 note=63 velocity=0 time=0
EXTRACT: note_on channel=11 note=55 velocity=104 time=0.14705875
EXTRACT: note_on channel=11 note=60 velocity=105 time=0
EXTRACT: note_on channel=11 note=63 velocity=88 time=0
EXTRACT: note_on channel=0 note=38 velocity=102 time=0.0012254895833333332
EXTRACT: note_on channel=7 note=72 velocity=106 time=0
EXTRACT: note_on channel=9 note=42 velocity=95 time=0
EXTRACT: note_on channel=9 note=36 velocity=120 time=0
EXTRACT: note_on channel=9 note=54 velocity=80 time=0
EXTRACT: note_on channel=9 note=42 velocity=0 time=0.049019583333333325
EXTRACT: note_on channel=9 note=36 velocity=0 time=0
EXTRACT: note_on channel=9 note=54 velocity=0 time=0
EXTRACT: note_on channel=11 note=55 velocity=0 time=0.09681367708333333
EXTRACT: note_on channel=11 note=60 velocity=0 time=0
EXTRACT: note_on channel=11 note=63 velocity=0 time=0
EXTRACT: note_on channel=0 note=38 velocity=0 time=0.0012254895833333332
EXTRACT: note_on channel=7 note=72 velocity=0 time=0
EXTRACT: note_on channel=7 note=74 velocity=96 time=0
EXTRACT: note_on channel=9 note=36 velocity=100 time=0
EXTRACT: note_on channel=9 note=36 velocity=0 time=0.049019583333333325
EXTRACT: note_on channel=11 note=55 velocity=91 time=0.09681367708333333
EXTRACT: note_on channel=11 note=60 velocity=91 time=0
EXTRACT: note_on channel=11 note=63 velocity=94 time=0
EXTRACT: note_on channel=0 note=39 velocity=112 time=0.0012254895833333332
EXTRACT: note_on channel=7 note=74 velocity=0 time=0
EXTRACT: note_on channel=7 note=75 velocity=82 time=0
EXTRACT: note_on channel=9 note=42 velocity=81 time=0
EXTRACT: note_on channel=9 note=36 velocity=120 time=0
EXTRACT: note_on channel=9 note=42 velocity=0 time=0.049019583333333325
EXTRACT: note_on channel=9 note=36 velocity=0 time=0
EXTRACT: note_on channel=11 note=55 velocity=0 time=0.09681367708333333
EXTRACT: note_on channel=11 note=60 velocity=0 time=0
EXTRACT: note_on channel=11 note=63 velocity=0 time=0
EXTRACT: note_on channel=7 note=75 velocity=0 time=0.0012254895833333332
EXTRACT: note_on channel=11 note=55 velocity=99 time=0.14583326041666664
EXTRACT: note_on channel=11 note=60 velocity=96 time=0
EXTRACT: note_on channel=11 note=63 velocity=90 time=0
EXTRACT: note_on channel=0 note=39 velocity=0 time=0.0012254895833333332
EXTRACT: note_on channel=9 note=42 velocity=105 time=0
EXTRACT: note_on channel=9 note=54 velocity=65 time=0
EXTRACT: note_on channel=14 note=80 velocity=108 time=0
EXTRACT: note_on channel=9 note=42 velocity=0 time=0.049019583333333325
EXTRACT: note_on channel=9 note=54 velocity=0 time=0
EXTRACT: note_on channel=11 note=55 velocity=0 time=0.09681367708333333
EXTRACT: note_on channel=11 note=60 velocity=0 time=0
EXTRACT: note_on channel=11 note=63 velocity=0 time=0
EXTRACT: note_on channel=14 note=80 velocity=0 time=0.0012254895833333332
EXTRACT: note_on channel=11 note=55 velocity=112 time=0.14583326041666664
EXTRACT: note_on channel=11 note=60 velocity=108 time=0
EXTRACT: note_on channel=11 note=63 velocity=108 time=0
EXTRACT: note_on channel=0 note=36 velocity=126 time=0.0012254895833333332
EXTRACT: note_on channel=9 note=42 velocity=80 time=0
EXTRACT: note_on channel=9 note=40 velocity=127 time=0
EXTRACT: note_on channel=14 note=77 velocity=117 time=0
EXTRACT: note_on channel=9 note=42 velocity=0 time=0.049019583333333325
EXTRACT: note_on channel=9 note=40 velocity=0 time=0
EXTRACT: note_on channel=11 note=55 velocity=0 time=0.09681367708333333
EXTRACT: note_on channel=11 note=60 velocity=0 time=0
EXTRACT: note_on channel=11 note=63 velocity=0 time=0
EXTRACT: note_on channel=14 note=77 velocity=0 time=0.0012254895833333332
EXTRACT: note_on channel=11 note=55 velocity=110 time=0.14583326041666664
EXTRACT: note_on channel=11 note=60 velocity=96 time=0
EXTRACT: note_on channel=11 note=63 velocity=112 time=0
EXTRACT: note_on channel=0 note=36 velocity=0 time=0.0012254895833333332
EXTRACT: note_on channel=9 note=42 velocity=99 time=0
EXTRACT: note_on channel=9 note=54 velocity=84 time=0
EXTRACT: note_on channel=14 note=79 velocity=123 time=0
EXTRACT: note_on channel=9 note=42 velocity=0 time=0.049019583333333325
EXTRACT: note_on channel=9 note=54 velocity=0 time=0
EXTRACT: note_on channel=11 note=55 velocity=0 time=0.09681367708333333
EXTRACT: note_on channel=11 note=60 velocity=0 time=0
EXTRACT: note_on channel=11 note=63 velocity=0 time=0
EXTRACT: note_on channel=11 note=56 velocity=100 time=0.14705875
EXTRACT: note_on channel=11 note=60 velocity=107 time=0
EXTRACT: note_on channel=11 note=63 velocity=109 time=0
EXTRACT: note_on channel=0 note=44 velocity=104 time=0.0012254895833333332
EXTRACT: note_on channel=2 note=60 velocity=0 time=0
EXTRACT: note_on channel=2 note=63 velocity=0 time=0
EXTRACT: note_on channel=2 note=67 velocity=0 time=0
EXTRACT: note_on channel=2 note=60 velocity=127 time=0
EXTRACT: note_on channel=2 note=63 velocity=116 time=0
EXTRACT: note_on channel=2 note=68 velocity=125 time=0
EXTRACT: note_on channel=3 note=55 velocity=0 time=0
EXTRACT: note_on channel=3 note=56 velocity=93 time=0
EXTRACT: note_on channel=9 note=42 velocity=81 time=0
EXTRACT: note_on channel=9 note=36 velocity=120 time=0
EXTRACT: note_on channel=14 note=79 velocity=0 time=0
EXTRACT: note_on channel=9 note=42 velocity=0 time=0.049019583333333325
EXTRACT: note_on channel=9 note=36 velocity=0 time=0
EXTRACT: note_on channel=11 note=56 velocity=0 time=0.09681367708333333
EXTRACT: note_on channel=11 note=60 velocity=0 time=0
EXTRACT: note_on channel=11 note=63 velocity=0 time=0
EXTRACT: note_on channel=0 note=44 velocity=0 time=0.0012254895833333332
EXTRACT: note_on channel=11 note=56 velocity=87 time=0.14583326041666664
EXTRACT: note_on channel=11 note=60 velocity=110 time=0
EXTRACT: note_on channel=11 note=63 velocity=88 time=0
EXTRACT: note_on channel=0 note=44 velocity=115 time=0.0012254895833333332
EXTRACT: note_on channel=9 note=42 velocity=101 time=0
EXTRACT: note_on channel=9 note=36 velocity=120 time=0
EXTRACT: note_on channel=9 note=54 velocity=71 time=0
EXTRACT: note_on channel=14 note=75 velocity=104 time=0
EXTRACT: note_on channel=9 note=42 velocity=0 time=0.049019583333333325
EXTRACT: note_on channel=9 note=36 velocity=0 time=0
EXTRACT: note_on channel=9 note=54 velocity=0 time=0
EXTRACT: note_on channel=11 note=56 velocity=0 time=0.09681367708333333
EXTRACT: note_on channel=11 note=60 velocity=0 time=0
EXTRACT: note_on channel=11 note=63 velocity=0 time=0
EXTRACT: note_on channel=0 note=44 velocity=0 time=0.0012254895833333332
EXTRACT: note_on channel=14 note=75 velocity=0 time=0
EXTRACT: note_on channel=11 note=56 velocity=106 time=0.14583326041666664
EXTRACT: note_on channel=11 note=60 velocity=111 time=0
EXTRACT: note_on channel=11 note=63 velocity=97 time=0
EXTRACT: note_on channel=9 note=42 velocity=76 time=0.0012254895833333332
EXTRACT: note_on channel=9 note=40 velocity=127 time=0
EXTRACT: note_on channel=9 note=42 velocity=0 time=0.049019583333333325
EXTRACT: note_on channel=9 note=40 velocity=0 time=0
EXTRACT: note_on channel=11 note=56 velocity=0 time=0.09681367708333333
EXTRACT: note_on channel=11 note=60 velocity=0 time=0
EXTRACT: note_on channel=11 note=63 velocity=0 time=0
EXTRACT: note_on channel=11 note=56 velocity=106 time=0.14705875
EXTRACT: note_on channel=11 note=60 velocity=105 time=0
EXTRACT: note_on channel=11 note=63 velocity=87 time=0
EXTRACT: note_on channel=0 note=39 velocity=124 time=0.0012254895833333332
EXTRACT: note_on channel=9 note=42 velocity=98 time=0
EXTRACT: note_on channel=9 note=36 velocity=120 time=0
EXTRACT: note_on channel=9 note=54 velocity=84 time=0
EXTRACT: note_on channel=9 note=42 velocity=0 time=0.049019583333333325
EXTRACT: note_on channel=9 note=36 velocity=0 time=0
EXTRACT: note_on channel=9 note=54 velocity=0 time=0
EXTRACT: note_on channel=11 note=56 velocity=0 time=0.09681367708333333
EXTRACT: note_on channel=11 note=60 velocity=0 time=0
EXTRACT: note_on channel=11 note=63 velocity=0 time=0
EXTRACT: note_on channel=0 note=39 velocity=0 time=0.0012254895833333332
EXTRACT: note_on channel=11 note=56 velocity=104 time=0.14583326041666664
EXTRACT: note_on channel=11 note=60 velocity=111 time=0
EXTRACT: note_on channel=11 note=63 velocity=99 time=0
EXTRACT: note_on channel=0 note=44 velocity=102 time=0.0012254895833333332
EXTRACT: note_on channel=9 note=42 velocity=82 time=0
EXTRACT: note_on channel=9 note=36 velocity=120 time=0
EXTRACT: note_on channel=9 note=42 velocity=0 time=0.049019583333333325
EXTRACT: note_on channel=9 note=36 velocity=0 time=0
EXTRACT: note_on channel=11 note=56 velocity=0 time=0.09681367708333333
EXTRACT: note_on channel=11 note=60 velocity=0 time=0
EXTRACT: note_on channel=11 note=63 velocity=0 time=0
EXTRACT: note_on channel=11 note=56 velocity=87 time=0.14705875
EXTRACT: note_on channel=11 note=60 velocity=97 time=0
EXTRACT: note_on channel=11 note=63 velocity=98 time=0
EXTRACT: note_on channel=0 note=44 velocity=0 time=0.0012254895833333332
EXTRACT: note_on channel=9 note=42 velocity=102 time=0
EXTRACT: note_on channel=9 note=54 velocity=67 time=0
EXTRACT: note_on channel=14 note=67 velocity=105 time=0
EXTRACT: note_on channel=9 note=42 velocity=0 time=0.049019583333333325
EXTRACT: note_on channel=9 note=54 velocity=0 time=0
EXTRACT: note_on channel=11 note=56 velocity=0 time=0.09681367708333333
EXTRACT: note_on channel=11 note=60 velocity=0 time=0
EXTRACT: note_on channel=11 note=63 velocity=0 time=0
EXTRACT: note_on channel=14 note=67 velocity=0 time=0.0012254895833333332
EXTRACT: note_on channel=11 note=55 velocity=90 time=0.14583326041666664
EXTRACT: note_on channel=11 note=60 velocity=90 time=0
EXTRACT: note_on channel=11 note=63 velocity=97 time=0
EXTRACT: note_on channel=0 note=43 velocity=105 time=0.0012254895833333332
EXTRACT: note_on channel=2 note=60 velocity=0 time=0
EXTRACT: note_on channel=2 note=63 velocity=0 time=0
EXTRACT: note_on channel=2 note=68 velocity=0 time=0
EXTRACT: note_on channel=2 note=67 velocity=115 time=0
EXTRACT: note_on channel=2 note=63 velocity=109 time=0
EXTRACT: note_on channel=3 note=60 velocity=0 time=0
EXTRACT: note_on channel=3 note=56 velocity=0 time=0
EXTRACT: note_on channel=3 note=55 velocity=78 time=0
EXTRACT: note_on channel=9 note=42 velocity=76 time=0
EXTRACT: note_on channel=9 note=40 velocity=127 time=0
EXTRACT: note_on channel=14 note=72 velocity=105 time=0
EXTRACT: note_on channel=9 note=42 velocity=0 time=0.049019583333333325
EXTRACT: note_on channel=9 note=40 velocity=0 time=0
EXTRACT: note_on channel=11 note=55 velocity=0 time=0.09681367708333333
EXTRACT: note_on channel=11 note=60 velocity=0 time=0
EXTRACT: note_on channel=11 note=63 velocity=0 time=0
EXTRACT: note_on channel=14 note=72 velocity=0 time=0.0012254895833333332
EXTRACT: note_on channel=11 note=55 velocity=110 time=0.14583326041666664
EXTRACT: note_on channel=11 note=60 velocity=93 time=0
EXTRACT: note_on channel=11 note=63 velocity=101 time=0
EXTRACT: note_on channel=9 note=42 velocity=96 time=0.0012254895833333332
EXTRACT: note_on channel=9 note=54 velocity=75 time=0
EXTRACT: note_on channel=14 note=74 velocity=112 time=0
EXTRACT: note_on channel=9 note=42 velocity=0 time=0.049019583333333325
EXTRACT: note_on channel=9 note=54 velocity=0 time=0
EXTRACT: note_on channel=11 note=55 velocity=0 time=0.09681367708333333
EXTRACT: note_on channel=11 note=60 velocity=0 time=0
EXTRACT: note_on channel=11 note=63 velocity=0 time=0
EXTRACT: note_on channel=0 note=43 velocity=0 time=0.0012254895833333332
EXTRACT: note_on channel=14 note=74 velocity=0 time=0
EXTRACT: note_on channel=11 note=56 velocity=87 time=0.14583326041666664
EXTRACT: note_on channel=11 note=60 velocity=107 time=0
EXTRACT: note_on channel=11 note=63 velocity=105 time=0
EXTRACT: note_on channel=0 note=41 velocity=116 time=0.0012254895833333332
EXTRACT: note_on channel=2 note=67 velocity=0 time=0
EXTRACT: note_on channel=2 note=63 velocity=0 time=0
EXTRACT: note_on channel=2 note=56 velocity=109 time=0
EXTRACT: note_on channel=2 note=60 velocity=119 time=0
EXTRACT: note_on channel=2 note=65 velocity=112 time=0
EXTRACT: note_on channel=3 note=63 velocity=0 time=0
EXTRACT: note_on channel=3 note=55 velocity=0 time=0
EXTRACT: note_on channel=3 note=60 velocity=96 time=0
EXTRACT: note_on channel=3 note=56 velocity=89 time=0
EXTRACT: note_on channel=9 note=42 velocity=81 time=0
EXTRACT: note_on channel=9 note=36 velocity=120 time=0
EXTRACT: note_on channel=14 note=75 velocity=117 time=0
EXTRACT: note_on channel=9 note=42 velocity=0 time=0.049019583333333325
EXTRACT: note_on channel=9 note=36 velocity=0 time=0
EXTRACT: note_on channel=11 note=56 velocity=0 time=0.09681367708333333
EXTRACT: note_on channel=11 note=60 velocity=0 time=0
EXTRACT: note_on channel=11 note=63 velocity=0 time=0
EXTRACT: note_on channel=0 note=41 velocity=0 time=0.0012254895833333332
EXTRACT: note_on channel=11 note=56 velocity=102 time=0.14583326041666664
EXTRACT: note_on channel=11 note=60 velocity=95 time=0
EXTRACT: note_on channel=11 note=63 velocity=91 time=0
EXTRACT: note_on channel=0 note=41 velocity=118 time=0.0012254895833333332
EXTRACT: note_on channel=9 note=42 velocity=97 time=0
EXTRACT: note_on channel=9 note=36 velocity=120 time=0
EXTRACT: note_on channel=9 note=54 velocity=71 time=0
EXTRACT: note_on channel=9 note=42 velocity=0 time=0.049019583333333325
EXTRACT: note_on channel=9 note=36 velocity=0 time=0
EXTRACT: note_on channel=9 note=54 velocity=0 time=0
EXTRACT: note_on channel=11 note=56 velocity=0 time=0.09681367708333333
EXTRACT: note_on channel=11 note=60 velocity=0 time=0
EXTRACT: note_on channel=11 note=63 velocity=0 time=0
EXTRACT: note_on channel=0 note=41 velocity=0 time=0.0012254895833333332
EXTRACT: note_on channel=11 note=56 velocity=104 time=0.14583326041666664
EXTRACT: note_on channel=11 note=60 velocity=101 time=0
EXTRACT: note_on channel=11 note=63 velocity=91 time=0
EXTRACT: note_on channel=9 note=42 velocity=74 time=0.0012254895833333332
EXTRACT: note_on channel=9 note=40 velocity=127 time=0
EXTRACT: note_on channel=9 note=42 velocity=0 time=0.049019583333333325
EXTRACT: note_on channel=9 note=40 velocity=0 time=0
EXTRACT: note_on channel=11 note=56 velocity=0 time=0.09681367708333333
EXTRACT: note_on channel=11 note=60 velocity=0 time=0
EXTRACT: note_on channel=11 note=63 velocity=0 time=0
EXTRACT: note_on channel=14 note=75 velocity=0 time=0.0012254895833333332
EXTRACT: note_on channel=11 note=56 velocity=109 time=0.14583326041666664
EXTRACT: note_on channel=11 note=60 velocity=105 time=0
EXTRACT: note_on channel=11 note=63 velocity=111 time=0
EXTRACT: note_on channel=0 note=41 velocity=107 time=0.0012254895833333332
EXTRACT: note_on channel=9 note=42 velocity=97 time=0
EXTRACT: note_on channel=9 note=36 velocity=120 time=0
EXTRACT: note_on channel=9 note=54 velocity=76 time=0
EXTRACT: note_on channel=14 note=74 velocity=96 time=0
EXTRACT: note_on channel=9 note=42 velocity=0 time=0.049019583333333325
EXTRACT: note_on channel=9 note=36 velocity=0 time=0
EXTRACT: note_on channel=9 note=54 velocity=0 time=0
EXTRACT: note_on channel=11 note=56 velocity=0 time=0.09681367708333333
EXTRACT: note_on channel=11 note=60 velocity=0 time=0
EXTRACT: note_on channel=11 note=63 velocity=0 time=0
EXTRACT: note_on channel=0 note=41 velocity=0 time=0.0012254895833333332
EXTRACT: note_on channel=14 note=74 velocity=0 time=0
EXTRACT: note_on channel=11 note=56 velocity=100 time=0.14583326041666664
EXTRACT: note_on channel=11 note=60 velocity=109 time=0
EXTRACT: note_on channel=11 note=63 velocity=106 time=0
EXTRACT: note_on channel=0 note=41 velocity=123 time=0.0012254895833333332
EXTRACT: note_on channel=9 note=42 velocity=80 time=0
EXTRACT: note_on channel=9 note=36 velocity=120 time=0
EXTRACT: note_on channel=14 note=72 velocity=122 time=0
EXTRACT: note_on channel=9 note=42 velocity=0 time=0.049019583333333325
EXTRACT: note_on channel=9 note=36 velocity=0 time=0
EXTRACT: note_on channel=11 note=56 velocity=0 time=0.09681367708333333
EXTRACT: note_on channel=11 note=60 velocity=0 time=0
EXTRACT: note_on channel=11 note=63 velocity=0 time=0
EXTRACT: note_on channel=0 note=41 velocity=0 time=0.0012254895833333332
EXTRACT: note_on channel=11 note=56 velocity=108 time=0.14583326041666664
EXTRACT: note_on channel=11 note=60 velocity=103 time=0
EXTRACT: note_on channel=11 note=63 velocity=97 time=0
EXTRACT: note_on channel=0 note=41 velocity=109 time=0.0012254895833333332
EXTRACT: note_on channel=9 note=36 velocity=120 time=0
EXTRACT: note_on channel=9 note=42 velocity=96 time=0
EXTRACT: note_on channel=9 note=54 velocity=74 time=0
EXTRACT: note_on channel=9 note=36 velocity=0 time=0.049019583333333325
EXTRACT: note_on channel=9 note=42 velocity=0 time=0
EXTRACT: note_on channel=9 note=54 velocity=0 time=0
EXTRACT: note_on channel=11 note=56 velocity=0 time=0.09681367708333333
EXTRACT: note_on channel=11 note=60 velocity=0 time=0
EXTRACT: note_on channel=11 note=63 velocity=0 time=0
EXTRACT: note_on channel=0 note=41 velocity=0 time=0.0012254895833333332
EXTRACT: note_on channel=11 note=56 velocity=104 time=0.14583326041666664
EXTRACT: note_on channel=11 note=60 velocity=98 time=0
EXTRACT: note_on channel=11 note=63 velocity=102 time=0
EXTRACT: note_on channel=9 note=42 velocity=82 time=0.0012254895833333332
EXTRACT: note_on channel=9 note=40 velocity=127 time=0
EXTRACT: note_on channel=9 note=42 velocity=0 time=0.049019583333333325
EXTRACT: note_on channel=9 note=40 velocity=0 time=0
EXTRACT: note_on channel=11 note=56 velocity=0 time=0.09681367708333333
EXTRACT: note_on channel=11 note=60 velocity=0 time=0
EXTRACT: note_on channel=11 note=63 velocity=0 time=0
EXTRACT: note_on channel=14 note=72 velocity=0 time=0.0012254895833333332
EXTRACT: note_on channel=11 note=56 velocity=92 time=0.14583326041666664
EXTRACT: note_on channel=11 note=60 velocity=110 time=0
EXTRACT: note_on channel=11 note=63 velocity=111 time=0
EXTRACT: note_on channel=0 note=38 velocity=121 time=0.0012254895833333332
EXTRACT: note_on channel=9 note=36 velocity=100 time=0
EXTRACT: note_on channel=9 note=42 velocity=99 time=0
EXTRACT: note_on channel=9 note=54 velocity=71 time=0
EXTRACT: note_on channel=9 note=36 velocity=0 time=0.049019583333333325
EXTRACT: note_on channel=9 note=42 velocity=0 time=0
EXTRACT: note_on channel=9 note=54 velocity=0 time=0
EXTRACT: note_on channel=11 note=56 velocity=0 time=0.09681367708333333
EXTRACT: note_on channel=11 note=60 velocity=0 time=0
EXTRACT: note_on channel=11 note=63 velocity=0 time=0
EXTRACT: note_on channel=0 note=38 velocity=0 time=0.0012254895833333332
EXTRACT: note_on channel=11 note=55 velocity=107 time=0.14583326041666664
EXTRACT: note_on channel=11 note=62 velocity=97 time=0
EXTRACT: note_on channel=0 note=31 velocity=102 time=0.0012254895833333332
EXTRACT: note_on channel=2 note=56 velocity=0 time=0
EXTRACT: note_on channel=2 note=60 velocity=0 time=0
EXTRACT: note_on channel=2 note=65 velocity=0 time=0
EXTRACT: note_on channel=2 note=67 velocity=109 time=0
EXTRACT: note_on channel=2 note=62 velocity=126 time=0
EXTRACT: note_on channel=2 note=59 velocity=117 time=0
EXTRACT: note_on channel=3 note=60 velocity=0 time=0
EXTRACT: note_on channel=3 note=56 velocity=0 time=0
EXTRACT: note_on channel=3 note=67 velocity=80 time=0
EXTRACT: note_on channel=3 note=62 velocity=98 time=0
EXTRACT: note_on channel=3 note=59 velocity=92 time=0
EXTRACT: note_on channel=9 note=57 velocity=100 time=0
EXTRACT: note_on channel=9 note=36 velocity=120 time=0
EXTRACT: note_on channel=14 note=79 velocity=106 time=0
EXTRACT: note_on channel=9 note=57 velocity=0 time=0.049019583333333325
EXTRACT: note_on channel=9 note=36 velocity=0 time=0
EXTRACT: note_on channel=14 note=79 velocity=0 time=0.09803916666666665
EXTRACT: note_on channel=11 note=55 velocity=0 time=0.14583326041666664
EXTRACT: note_on channel=11 note=62 velocity=0 time=0
EXTRACT: note_on channel=2 note=67 velocity=0 time=0.0012254895833333332
EXTRACT: note_on channel=2 note=62 velocity=0 time=0
EXTRACT: note_on channel=2 note=59 velocity=0 time=0
EXTRACT: note_on channel=3 note=67 velocity=0 time=0
EXTRACT: note_on channel=3 note=62 velocity=0 time=0
EXTRACT: note_on channel=3 note=59 velocity=0 time=0
EXTRACT: note_on channel=14 note=80 velocity=109 time=0
EXTRACT: note_on channel=0 note=31 velocity=0 time=0.14705875
EXTRACT: note_on channel=14 note=80 velocity=0 time=0
EXTRACT: note_on channel=11 note=55 velocity=101 time=0.14583326041666664
EXTRACT: note_on channel=11 note=62 velocity=100 time=0
EXTRACT: note_on channel=0 note=31 velocity=123 time=0.0012254895833333332
EXTRACT: note_on channel=2 note=67 velocity=119 time=0
EXTRACT: note_on channel=2 note=62 velocity=110 time=0
EXTRACT: note_on channel=2 note=59 velocity=124 time=0
EXTRACT: note_on channel=3 note=67 velocity=89 time=0
EXTRACT: note_on channel=3 note=62 velocity=91 time=0
EXTRACT: note_on channel=3 note=59 velocity=86 time=0
EXTRACT: note_on channel=9 note=57 velocity=120 time=0
EXTRACT: note_on channel=9 note=36 velocity=120 time=0
EXTRACT: note_on channel=14 note=77 velocity=97 time=0
EXTRACT: note_on channel=9 note=57 velocity=0 time=0.049019583333333325
EXTRACT: note_on channel=9 note=36 velocity=0 time=0
EXTRACT: note_on channel=14 note=77 velocity=0 time=0.09803916666666665
EXTRACT: note_on channel=11 note=55 velocity=0 time=0.14583326041666664
EXTRACT: note_on channel=11 note=62 velocity=0 time=0
EXTRACT: note_on channel=2 note=67 velocity=0 time=0.0012254895833333332
EXTRACT: note_on channel=2 note=62 velocity=0 time=0
EXTRACT: note_on channel=2 note=59 velocity=0 time=0
EXTRACT: note_on channel=3 note=67 velocity=0 time=0
EXTRACT: note_on channel=3 note=62 velocity=0 time=0
EXTRACT: note_on channel=3 note=59 velocity=0 time=0
EXTRACT: note_on channel=14 note=79 velocity=110 time=0
EXTRACT: note_on channel=0 note=31 velocity=0 time=0.14705875
EXTRACT: note_on channel=14 note=79 velocity=0 time=0
EXTRACT: note_on channel=11 note=55 velocity=109 time=0.14583326041666664
EXTRACT: note_on channel=11 note=62 velocity=98 time=0
EXTRACT: note_on channel=0 note=31 velocity=105 time=0.0012254895833333332
EXTRACT: note_on channel=2 note=67 velocity=119 time=0
EXTRACT: note_on channel=2 note=62 velocity=117 time=0
EXTRACT: note_on channel=2 note=59 velocity=118 time=0
EXTRACT: note_on channel=3 note=67 velocity=87 time=0
EXTRACT: note_on channel=3 note=62 velocity=93 time=0
EXTRACT: note_on channel=3 note=59 velocity=86 time=0
EXTRACT: note_on channel=9 note=49 velocity=100 time=0
EXTRACT: note_on channel=9 note=36 velocity=120 time=0
EXTRACT: note_on channel=14 note=75 velocity=105 time=0
EXTRACT: note_on channel=9 note=49 velocity=0 time=0.049019583333333325
EXTRACT: note_on channel=9 note=36 velocity=0 time=0
EXTRACT: note_on channel=14 note=75 velocity=0 time=0.09803916666666665
EXTRACT: note_on channel=11 note=55 velocity=0 time=0.14583326041666664
EXTRACT: note_on channel=11 note=62 velocity=0 time=0
EXTRACT: note_on channel=2 note=67 velocity=0 time=0.0012254895833333332
EXTRACT: note_on channel=2 note=62 velocity=0 time=0
EXTRACT: note_on channel=2 note=59 velocity=0 time=0
EXTRACT: note_on channel=3 note=67 velocity=0 time=0
EXTRACT: note_on channel=3 note=62 velocity=0 time=0
EXTRACT: note_on channel=3 note=59 velocity=0 time=0
EXTRACT: note_on channel=14 note=77 velocity=118 time=0
EXTRACT: note_on channel=0 note=31 velocity=0 time=0.14705875
EXTRACT: note_on channel=9 note=36 velocity=120 time=0
EXTRACT: note_on channel=14 note=77 velocity=0 time=0
EXTRACT: note_on channel=9 note=36 velocity=0 time=0.049019583333333325
EXTRACT: note_on channel=11 note=55 velocity=89 time=0.09681367708333333
EXTRACT: note_on channel=11 note=62 velocity=107 time=0
EXTRACT: note_on channel=0 note=31 velocity=127 time=0.0012254895833333332
EXTRACT: note_on channel=2 note=67 velocity=118 time=0
EXTRACT: note_on channel=2 note=62 velocity=113 time=0
EXTRACT: note_on channel=2 note=59 velocity=105 time=0
EXTRACT: note_on channel=3 note=67 velocity=80 time=0
EXTRACT: note_on channel=3 note=62 velocity=83 time=0
EXTRACT: note_on channel=3 note=59 velocity=80 time=0
EXTRACT: note_on channel=9 note=40 velocity=127 time=0
EXTRACT: note_on channel=14 note=74 velocity=108 time=0
EXTRACT: note_on channel=9 note=40 velocity=0 time=0.049019583333333325
EXTRACT: note_on channel=14 note=74 velocity=0 time=0.09803916666666665
EXTRACT: note_on channel=11 note=55 velocity=0 time=0.14583326041666664
EXTRACT: note_on channel=11 note=62 velocity=0 time=0
EXTRACT: note_on channel=2 note=67 velocity=0 time=0.0012254895833333332
EXTRACT: note_on channel=2 note=62 velocity=0 time=0
EXTRACT: note_on channel=2 note=59 velocity=0 time=0
EXTRACT: note_on channel=3 note=67 velocity=0 time=0
EXTRACT: note_on channel=3 note=62 velocity=0 time=0
EXTRACT: note_on channel=3 note=59 velocity=0 time=0
EXTRACT: note_on channel=14 note=75 velocity=109 time=0
EXTRACT: note_on channel=0 note=31 velocity=0 time=0.14705875
EXTRACT: note_on channel=14 note=75 velocity=0 time=0
EXTRACT: pitchwheel channel=0 pitch=0 time=0.14705875
EXTRACT: note_on channel=0 note=36 velocity=127 time=0
EXTRACT: note_on channel=1 note=60 velocity=97 time=0
EXTRACT: note_on channel=2 note=60 velocity=116 time=0
EXTRACT: note_on channel=2 note=67 velocity=102 time=0
EXTRACT: note_on channel=2 note=63 velocity=111 time=0
EXTRACT: note_on channel=9 note=42 velocity=79 time=0
EXTRACT: note_on channel=9 note=36 velocity=120 time=0
EXTRACT: note_on channel=14 note=72 velocity=105 time=0
EXTRACT: pitchwheel channel=0 pitch=-69 time=0.004901958333333333
EXTRACT: pitchwheel channel=0 pitch=-138 time=0.004901958333333333
EXTRACT: pitchwheel channel=0 pitch=-206 time=0.004901958333333333
EXTRACT: pitchwheel channel=0 pitch=-275 time=0.004901958333333333
EXTRACT: pitchwheel channel=0 pitch=-344 time=0.004901958333333333
EXTRACT: pitchwheel channel=0 pitch=-413 time=0.004901958333333333
EXTRACT: pitchwheel channel=0 pitch=-482 time=0.004901958333333333
EXTRACT: pitchwheel channel=0 pitch=-551 time=0.004901958333333333
EXTRACT: pitchwheel channel=0 pitch=-619 time=0.004901958333333333
EXTRACT: pitchwheel channel=0 pitch=-688 time=0.004901958333333333
EXTRACT: note_on channel=9 note=42 velocity=0 time=0
EXTRACT: note_on channel=9 note=36 velocity=0 time=0
EXTRACT: pitchwheel channel=0 pitch=-757 time=0.004901958333333333
EXTRACT: pitchwheel channel=0 pitch=-826 time=0.004901958333333333
EXTRACT: pitchwheel channel=0 pitch=-895 time=0.004901958333333333
EXTRACT: pitchwheel channel=0 pitch=-964 time=0.004901958333333333
EXTRACT: pitchwheel channel=0 pitch=-1032 time=0.004901958333333333
EXTRACT: pitchwheel channel=0 pitch=-1101 time=0.004901958333333333
EXTRACT: pitchwheel channel=0 pitch=-1170 time=0.004901958333333333
EXTRACT: pitchwheel channel=0 pitch=-1239 time=0.004901958333333333
EXTRACT: pitchwheel channel=0 pitch=-1308 time=0.004901958333333333
EXTRACT: pitchwheel channel=0 pitch=-1377 time=0.004901958333333333
EXTRACT: pitchwheel channel=0 pitch=-1445 time=0.004901958333333333
EXTRACT: pitchwheel channel=0 pitch=-1514 time=0.004901958333333333
EXTRACT: pitchwheel channel=0 pitch=-1583 time=0.004901958333333333
EXTRACT: pitchwheel channel=0 pitch=-1652 time=0.004901958333333333
EXTRACT: pitchwheel channel=0 pitch=-1721 time=0.004901958333333333
EXTRACT: pitchwheel channel=0 pitch=-1790 time=0.004901958333333333
EXTRACT: pitchwheel channel=0 pitch=-1858 time=0.004901958333333333
EXTRACT: pitchwheel channel=0 pitch=-1927 time=0.004901958333333333
EXTRACT: pitchwheel channel=0 pitch=-1996 time=0.004901958333333333
EXTRACT: pitchwheel channel=0 pitch=-2065 time=0.004901958333333333
EXTRACT: pitchwheel channel=0 pitch=-2134 time=0.004901958333333333
EXTRACT: pitchwheel channel=0 pitch=-2203 time=0.004901958333333333
EXTRACT: pitchwheel channel=0 pitch=-2271 time=0.004901958333333333
EXTRACT: pitchwheel channel=0 pitch=-2340 time=0.004901958333333333
EXTRACT: pitchwheel channel=0 pitch=-2409 time=0.004901958333333333
EXTRACT: pitchwheel channel=0 pitch=-2478 time=0.004901958333333333
EXTRACT: pitchwheel channel=0 pitch=-2547 time=0.004901958333333333
EXTRACT: pitchwheel channel=0 pitch=-2616 time=0.004901958333333333
EXTRACT: pitchwheel channel=0 pitch=-2684 time=0.004901958333333333
EXTRACT: pitchwheel channel=0 pitch=-2753 time=0.004901958333333333
EXTRACT: pitchwheel channel=0 pitch=-2822 time=0.004901958333333333
EXTRACT: pitchwheel channel=0 pitch=-2891 time=0.004901958333333333
EXTRACT: pitchwheel channel=0 pitch=-2960 time=0.004901958333333333
EXTRACT: pitchwheel channel=0 pitch=-3029 time=0.004901958333333333
EXTRACT: pitchwheel channel=0 pitch=-3097 time=0.004901958333333333
EXTRACT: pitchwheel channel=0 pitch=-3166 time=0.004901958333333333
EXTRACT: pitchwheel channel=0 pitch=-3235 time=0.004901958333333333
EXTRACT: pitchwheel channel=0 pitch=-3304 time=0.004901958333333333
EXTRACT: pitchwheel channel=0 pitch=-3373 time=0.004901958333333333
EXTRACT: pitchwheel channel=0 pitch=-3442 time=0.004901958333333333
EXTRACT: pitchwheel channel=0 pitch=-3510 time=0.004901958333333333
EXTRACT: pitchwheel channel=0 pitch=-3579 time=0.004901958333333333
EXTRACT: pitchwheel channel=0 pitch=-3648 time=0.004901958333333333
EXTRACT: pitchwheel channel=0 pitch=-3717 time=0.004901958333333333
EXTRACT: pitchwheel channel=0 pitch=-3786 time=0.004901958333333333
EXTRACT: pitchwheel channel=0 pitch=-3855 time=0.004901958333333333
EXTRACT: pitchwheel channel=0 pitch=-3923 time=0.004901958333333333
EXTRACT: pitchwheel channel=0 pitch=-3992 time=0.004901958333333333
EXTRACT: pitchwheel channel=0 pitch=-4061 time=0.004901958333333333
EXTRACT: pitchwheel channel=0 pitch=-4130 time=0.004901958333333333
EXTRACT: note_on channel=1 note=60 velocity=0 time=0
EXTRACT: note_on channel=9 note=42 velocity=100 time=0
EXTRACT: note_on channel=9 note=54 velocity=79 time=0
EXTRACT: note_on channel=14 note=72 velocity=0 time=0
EXTRACT: pitchwheel channel=0 pitch=-4199 time=0.004901958333333333
EXTRACT: pitchwheel channel=0 pitch=-4268 time=0.004901958333333333
EXTRACT: pitchwheel channel=0 pitch=-4336 time=0.004901958333333333
EXTRACT: pitchwheel channel=0 pitch=-4405 time=0.004901958333333333
EXTRACT: pitchwheel channel=0 pitch=-4474 time=0.004901958333333333
EXTRACT: pitchwheel channel=0 pitch=-4543 time=0.004901958333333333
EXTRACT: pitchwheel channel=0 pitch=-4612 time=0.004901958333333333
EXTRACT: pitchwheel channel=0 pitch=-4681 time=0.004901958333333333
EXTRACT: pitchwheel channel=0 pitch=-4749 time=0.004901958333333333
EXTRACT: pitchwheel channel=0 pitch=-4818 time=0.004901958333333333
EXTRACT: note_on channel=9 note=42 velocity=0 time=0
EXTRACT: note_on channel=9 note=54 velocity=0 time=0
EXTRACT: pitchwheel channel=0 pitch=-4887 time=0.004901958333333333
EXTRACT: pitchwheel channel=0 pitch=-4956 time=0.004901958333333333
EXTRACT: pitchwheel channel=0 pitch=-5025 time=0.004901958333333333
EXTRACT: pitchwheel channel=0 pitch=-5094 time=0.004901958333333333
EXTRACT: pitchwheel channel=0 pitch=-5162 time=0.004901958333333333
EXTRACT: pitchwheel channel=0 pitch=-5231 time=0.004901958333333333
EXTRACT: pitchwheel channel=0 pitch=-5300 time=0.004901958333333333
EXTRACT: pitchwheel channel=0 pitch=-5369 time=0.004901958333333333
EXTRACT: pitchwheel channel=0 pitch=-5438 time=0.004901958333333333
EXTRACT: pitchwheel channel=0 pitch=-5507 time=0.004901958333333333
EXTRACT: pitchwheel channel=0 pitch=-5575 time=0.004901958333333333
EXTRACT: pitchwheel channel=0 pitch=-5644 time=0.004901958333333333
EXTRACT: pitchwheel channel=0 pitch=-5713 time=0.004901958333333333
EXTRACT: pitchwheel channel=0 pitch=-5782 time=0.004901958333333333
EXTRACT: pitchwheel channel=0 pitch=-5851 time=0.004901958333333333
EXTRACT: pitchwheel channel=0 pitch=-5920 time=0.004901958333333333
EXTRACT: pitchwheel channel=0 pitch=-5988 time=0.004901958333333333
EXTRACT: pitchwheel channel=0 pitch=-6057 time=0.004901958333333333
EXTRACT: pitchwheel channel=0 pitch=-6126 time=0.004901958333333333
EXTRACT: note_on channel=0 note=36 velocity=0 time=0.004901958333333333
EXTRACT: pitchwheel channel=0 pitch=-6195 time=0
EXTRACT: pitchwheel channel=0 pitch=-6264 time=0.004901958333333333
EXTRACT: pitchwheel channel=0 pitch=-6333 time=0.004901958333333333
EXTRACT: pitchwheel channel=0 pitch=-6401 time=0.004901958333333333
EXTRACT: pitchwheel channel=0 pitch=-6470 time=0.004901958333333333
EXTRACT: pitchwheel channel=0 pitch=-6539 time=0.004901958333333333
EXTRACT: pitchwheel channel=0 pitch=-6608 time=0.004901958333333333
EXTRACT: pitchwheel channel=0 pitch=-6677 time=0.004901958333333333
EXTRACT: pitchwheel channel=0 pitch=-6746 time=0.004901958333333333
EXTRACT: pitchwheel channel=0 pitch=-6814 time=0.004901958333333333
EXTRACT: pitchwheel channel=0 pitch=-6883 time=0.004901958333333333
EXTRACT: pitchwheel channel=0 pitch=-6952 time=0.004901958333333333
EXTRACT: pitchwheel channel=0 pitch=-7021 time=0.004901958333333333
EXTRACT: pitchwheel channel=0 pitch=-7090 time=0.004901958333333333
EXTRACT: pitchwheel channel=0 pitch=-7159 time=0.004901958333333333
EXTRACT: pitchwheel channel=0 pitch=-7227 time=0.004901958333333333
EXTRACT: pitchwheel channel=0 pitch=-7296 time=0.004901958333333333
EXTRACT: pitchwheel channel=0 pitch=-7365 time=0.004901958333333333
EXTRACT: pitchwheel channel=0 pitch=-7434 time=0.004901958333333333
EXTRACT: pitchwheel channel=0 pitch=-7503 time=0.004901958333333333
EXTRACT: pitchwheel channel=0 pitch=-7572 time=0.004901958333333333
EXTRACT: pitchwheel channel=0 pitch=-7640 time=0.004901958333333333
EXTRACT: pitchwheel channel=0 pitch=-7709 time=0.004901958333333333
EXTRACT: pitchwheel channel=0 pitch=-7778 time=0.004901958333333333
EXTRACT: pitchwheel channel=0 pitch=-7847 time=0.004901958333333333
EXTRACT: pitchwheel channel=0 pitch=-7916 time=0.004901958333333333
EXTRACT: pitchwheel channel=0 pitch=-7985 time=0.004901958333333333
EXTRACT: pitchwheel channel=0 pitch=-8053 time=0.004901958333333333
EXTRACT: pitchwheel channel=0 pitch=-8122 time=0.004901958333333333
EXTRACT: pitchwheel channel=0 pitch=-8191 time=0.004901958333333333
EXTRACT: note_on channel=9 note=42 velocity=77 time=0.004901958333333333
EXTRACT: note_on channel=9 note=40 velocity=127 time=0
EXTRACT: note_on channel=9 note=42 velocity=0 time=0.049019583333333325
EXTRACT: note_on channel=9 note=40 velocity=0 time=0
EXTRACT: note_on channel=9 note=42 velocity=105 time=0.24509791666666664
EXTRACT: note_on channel=9 note=54 velocity=80 time=0
EXTRACT: note_on channel=9 note=42 velocity=0 time=0.049019583333333325
EXTRACT: note_on channel=9 note=54 velocity=0 time=0
EXTRACT: note_on channel=9 note=42 velocity=84 time=0.24509791666666664
EXTRACT: note_on channel=9 note=36 velocity=120 time=0
EXTRACT: note_on channel=9 note=42 velocity=0 time=0.049019583333333325
EXTRACT: note_on channel=9 note=36 velocity=0 time=0
EXTRACT: note_on channel=9 note=42 velocity=97 time=0.24509791666666664
EXTRACT: note_on channel=9 note=54 velocity=84 time=0
EXTRACT: note_on channel=9 note=42 velocity=0 time=0.049019583333333325
EXTRACT: note_on channel=9 note=54 velocity=0 time=0
EXTRACT: control_change channel=5 control=11 value=40 time=0.24509791666666664
EXTRACT: note_on channel=5 note=43 velocity=107 time=0
EXTRACT: note_on channel=9 note=42 velocity=83 time=0
EXTRACT: note_on channel=9 note=40 velocity=127 time=0
EXTRACT: control_change channel=5 control=11 value=41 time=0.004901958333333333
EXTRACT: control_change channel=5 control=11 value=42 time=0.009803916666666666
EXTRACT: note_on channel=5 note=43 velocity=107 time=0
EXTRACT: control_change channel=5 control=11 value=43 time=0.004901958333333333
EXTRACT: control_change channel=5 control=11 value=44 time=0.009803916666666666
EXTRACT: note_on channel=5 note=43 velocity=107 time=0
EXTRACT: control_change channel=5 control=11 value=45 time=0.004901958333333333
EXTRACT: control_change channel=5 control=11 value=46 time=0.004901958333333333
EXTRACT: control_change channel=5 control=11 value=47 time=0.009803916666666666
EXTRACT: note_on channel=9 note=42 velocity=0 time=0
EXTRACT: note_on channel=9 note=40 velocity=0 time=0
EXTRACT: control_change channel=5 control=11 value=48 time=0.004901958333333333
EXTRACT: control_change channel=5 control=11 value=49 time=0.004901958333333333
EXTRACT: control_change channel=5 control=11 value=50 time=0.009803916666666666
EXTRACT: control_change channel=5 control=11 value=51 time=0.004901958333333333
EXTRACT: note_on channel=5 note=43 velocity=107 time=0
EXTRACT: control_change channel=5 control=11 value=52 time=0.009803916666666666
EXTRACT: control_change channel=5 control=11 value=53 time=0.004901958333333333
EXTRACT: note_on channel=5 note=43 velocity=107 time=0
EXTRACT: control_change channel=5 control=11 value=54 time=0.004901958333333333
EXTRACT: control_change channel=5 control=11 value=55 time=0.009803916666666666
EXTRACT: control_change channel=5 control=11 value=56 time=0.004901958333333333
EXTRACT: control_change channel=5 control=11 value=57 time=0.004901958333333333
EXTRACT: note_on channel=5 note=43 velocity=107 time=0.004901958333333333
EXTRACT: control_change channel=5 control=11 value=58 time=0.004901958333333333
EXTRACT: control_change channel=5 control=11 value=59 time=0.004901958333333333
EXTRACT: control_change channel=5 control=11 value=60 time=0.009803916666666666
EXTRACT: note_on channel=5 note=43 velocity=107 time=0
EXTRACT: control_change channel=5 control=11 value=61 time=0.004901958333333333
EXTRACT: note_on channel=5 note=43 velocity=0 time=0.004901958333333333
EXTRACT: control_change channel=5 control=11 value=62 time=0
EXTRACT: note_on channel=5 note=43 velocity=107 time=0
EXTRACT: control_change channel=5 control=11 value=63 time=0.009803916666666666
EXTRACT: note_on channel=5 note=43 velocity=0 time=0.004901958333333333
EXTRACT: control_change channel=5 control=11 value=64 time=0
EXTRACT: control_change channel=5 control=11 value=65 time=0.004901958333333333
EXTRACT: note_on channel=5 note=43 velocity=107 time=0
EXTRACT: note_on channel=5 note=43 velocity=0 time=0.009803916666666666
EXTRACT: control_change channel=5 control=11 value=66 time=0
EXTRACT: control_change channel=5 control=11 value=67 time=0.004901958333333333
EXTRACT: note_on channel=5 note=43 velocity=107 time=0.004901958333333333
EXTRACT: control_change channel=5 control=11 value=68 time=0.004901958333333333
EXTRACT: control_change channel=5 control=11 value=69 time=0.004901958333333333
EXTRACT: control_change channel=5 control=11 value=70 time=0.004901958333333333
EXTRACT: control_change channel=5 control=11 value=71 time=0.009803916666666666
EXTRACT: control_change channel=5 control=11 value=72 time=0.004901958333333333
EXTRACT: note_on channel=5 note=43 velocity=0 time=0.004901958333333333
EXTRACT: note_on channel=5 note=43 velocity=107 time=0
EXTRACT: control_change channel=5 control=11 value=73 time=0.004901958333333333
EXTRACT: control_change channel=5 control=11 value=74 time=0.004901958333333333
EXTRACT: note_on channel=5 note=43 velocity=0 time=0.004901958333333333
EXTRACT: control_change channel=5 control=11 value=75 time=0
EXTRACT: control_change channel=5 control=11 value=76 time=0.009803916666666666
EXTRACT: control_change channel=5 control=11 value=77 time=0.004901958333333333
EXTRACT: control_change channel=5 control=11 value=78 time=0.004901958333333333
EXTRACT: note_on channel=5 note=43 velocity=0 time=0.009803916666666666
EXTRACT: control_change channel=5 control=11 value=79 time=0
EXTRACT: control_change channel=5 control=11 value=80 time=0.004901958333333333
EXTRACT: control_change channel=5 control=11 value=81 time=0.009803916666666666
EXTRACT: note_on channel=5 note=43 velocity=0 time=0.004901958333333333
EXTRACT: control_change channel=5 control=11 value=82 time=0
EXTRACT: control_change channel=5 control=11 value=83 time=0.004901958333333333
EXTRACT: note_on channel=5 note=43 velocity=0 time=0.004901958333333333
EXTRACT: note_on channel=5 note=43 velocity=107 time=0
EXTRACT: note_on channel=9 note=42 velocity=95 time=0
EXTRACT: note_on channel=9 note=54 velocity=74 time=0
EXTRACT: control_change channel=5 control=11 value=84 time=0.004901958333333333
EXTRACT: control_change channel=5 control=11 value=85 time=0.004901958333333333
EXTRACT: control_change channel=5 control=11 value=86 time=0.004901958333333333
EXTRACT: note_on channel=5 note=43 velocity=0 time=0.004901958333333333
EXTRACT: control_change channel=5 control=11 value=87 time=0.004901958333333333
EXTRACT: control_change channel=5 control=11 value=88 time=0.004901958333333333
EXTRACT: note_on channel=5 note=43 velocity=0 time=0.009803916666666666
EXTRACT: control_change channel=5 control=11 value=89 time=0
EXTRACT: control_change channel=5 control=11 value=90 time=0.004901958333333333
EXTRACT: control_change channel=5 control=11 value=91 time=0.004901958333333333
EXTRACT: note_on channel=9 note=42 velocity=0 time=0
EXTRACT: note_on channel=9 note=54 velocity=0 time=0
EXTRACT: control_change channel=5 control=11 value=92 time=0.009803916666666666
EXTRACT: control_change channel=5 control=11 value=93 time=0.004901958333333333
EXTRACT: control_change channel=5 control=11 value=94 time=0.004901958333333333
EXTRACT: note_on channel=5 note=43 velocity=0 time=0.004901958333333333
EXTRACT: note_on channel=5 note=43 velocity=107 time=0
EXTRACT: control_change channel=5 control=11 value=95 time=0.004901958333333333
EXTRACT: control_change channel=5 control=11 value=96 time=0.004901958333333333
EXTRACT: control_change channel=5 control=11 value=97 time=0.009803916666666666
EXTRACT: control_change channel=5 control=11 value=98 time=0.004901958333333333
EXTRACT: control_change channel=5 control=11 value=99 time=0.004901958333333333
EXTRACT: control_change channel=5 control=11 value=100 time=0.009803916666666666
EXTRACT: control_change channel=5 control=11 value=101 time=0.004901958333333333
EXTRACT: control_change channel=5 control=11 value=102 time=0.009803916666666666
EXTRACT: control_change channel=5 control=11 value=103 time=0.004901958333333333
EXTRACT: control_change channel=5 control=11 value=104 time=0.004901958333333333
EXTRACT: note_on channel=5 note=43 velocity=0 time=0.009803916666666666
EXTRACT: control_change channel=5 control=11 value=105 time=0
EXTRACT: note_on channel=5 note=43 velocity=107 time=0
EXTRACT: control_change channel=5 control=11 value=106 time=0.004901958333333333
EXTRACT: control_change channel=5 control=11 value=107 time=0.004901958333333333
EXTRACT: control_change channel=5 control=11 value=108 time=0.009803916666666666
EXTRACT: control_change channel=5 control=11 value=109 time=0.004901958333333333
EXTRACT: control_change channel=5 control=11 value=110 time=0.009803916666666666
EXTRACT: control_change channel=5 control=11 value=111 time=0.004901958333333333
EXTRACT: control_change channel=5 control=11 value=112 time=0.004901958333333333
EXTRACT: control_change channel=5 control=11 value=113 time=0.009803916666666666
EXTRACT: control_change channel=5 control=11 value=114 time=0.004901958333333333
EXTRACT: control_change channel=5 control=11 value=115 time=0.004901958333333333
EXTRACT: note_on channel=5 note=43 velocity=0 time=0.009803916666666666
EXTRACT: control_change channel=5 control=11 value=116 time=0
EXTRACT: note_on channel=5 note=43 velocity=107 time=0
EXTRACT: control_change channel=5 control=11 value=117 time=0.004901958333333333
EXTRACT: control_change channel=5 control=11 value=118 time=0.009803916666666666
EXTRACT: control_change channel=5 control=11 value=119 time=0.004901958333333333
EXTRACT: control_change channel=5 control=11 value=120 time=0.004901958333333333
EXTRACT: control_change channel=5 control=11 value=121 time=0.009803916666666666
EXTRACT: control_change channel=5 control=11 value=122 time=0.004901958333333333
EXTRACT: control_change channel=5 control=11 value=123 time=0.004901958333333333
EXTRACT: control_change channel=5 control=11 value=124 time=0.009803916666666666
EXTRACT: control_change channel=5 control=11 value=125 time=0.004901958333333333
EXTRACT: control_change channel=5 control=11 value=126 time=0.009803916666666666
EXTRACT: pitchwheel channel=0 pitch=0 time=0.004901958333333333
EXTRACT: note_on channel=0 note=36 velocity=123 time=0
EXTRACT: note_on channel=1 note=60 velocity=102 time=0
EXTRACT: note_on channel=2 note=60 velocity=0 time=0
EXTRACT: note_on channel=2 note=67 velocity=0 time=0
EXTRACT: note_on channel=2 note=63 velocity=0 time=0
EXTRACT: note_on channel=5 note=43 velocity=0 time=0
EXTRACT: control_change channel=5 control=11 value=127 time=0
EXTRACT: note_on channel=5 note=36 velocity=107 time=0
EXTRACT: note_on channel=9 note=49 velocity=100 time=0
EXTRACT: note_on channel=9 note=36 velocity=120 time=0
EXTRACT: note_on channel=9 note=49 velocity=0 time=0.049019583333333325
EXTRACT: note_on channel=9 note=36 velocity=0 time=0
EXTRACT: note_on channel=5 note=43 velocity=0 time=0.024509791666666662
EXTRACT: note_on channel=5 note=36 velocity=0 time=0.073529375
EXTRACT: note_on channel=0 note=36 velocity=0 time=0.14705875
EXTRACT: note_on channel=1 note=60 velocity=0 time=0
EXTRACT: note_on channel=9 note=42 velocity=95 time=0
EXTRACT: note_on channel=9 note=42 velocity=0 time=0.049019583333333325
EXTRACT: note_on channel=14 note=67 velocity=121 time=0.09803916666666665
EXTRACT: note_on channel=14 note=67 velocity=0 time=0.14215679166666664
EXTRACT: note_on channel=9 note=28 velocity=92 time=0.004901958333333333
EXTRACT: note_on channel=9 note=42 velocity=73 time=0
EXTRACT: note_on channel=12 note=48 velocity=126 time=0
EXTRACT: note_on channel=14 note=75 velocity=95 time=0
EXTRACT: note_on channel=9 note=28 velocity=0 time=0.049019583333333325
EXTRACT: note_on channel=9 note=42 velocity=0 time=0
EXTRACT: note_on channel=12 note=48 velocity=0 time=0
EXTRACT: note_on channel=14 note=75 velocity=0 time=0.09803916666666665
EXTRACT: note_on channel=9 note=42 velocity=95 time=0.14705875
EXTRACT: note_on channel=14 note=75 velocity=110 time=0
EXTRACT: note_on channel=9 note=42 velocity=0 time=0.049019583333333325
EXTRACT: note_on channel=14 note=75 velocity=0 time=0.09803916666666665
EXTRACT: note_on channel=9 note=28 velocity=92 time=0.14705875
EXTRACT: note_on channel=9 note=42 velocity=78 time=0
EXTRACT: note_on channel=12 note=48 velocity=112 time=0
EXTRACT: note_on channel=14 note=75 velocity=98 time=0
EXTRACT: note_on channel=9 note=28 velocity=0 time=0.049019583333333325
EXTRACT: note_on channel=9 note=42 velocity=0 time=0
EXTRACT: note_on channel=12 note=48 velocity=0 time=0
EXTRACT: note_on channel=14 note=75 velocity=0 time=0.09313720833333332
EXTRACT: note_on channel=9 note=62 velocity=100 time=0.004901958333333333
EXTRACT: note_on channel=9 note=28 velocity=50 time=0
EXTRACT: note_on channel=12 note=43 velocity=100 time=0
EXTRACT: note_on channel=14 note=74 velocity=116 time=0
EXTRACT: note_on channel=9 note=62 velocity=0 time=0.049019583333333325
EXTRACT: note_on channel=9 note=28 velocity=0 time=0
EXTRACT: note_on channel=12 note=43 velocity=0 time=0
EXTRACT: note_on channel=9 note=42 velocity=96 time=0.09803916666666665
EXTRACT: note_on channel=14 note=74 velocity=0 time=0
EXTRACT: note_on channel=9 note=42 velocity=0 time=0.049019583333333325
EXTRACT: note_on channel=14 note=74 velocity=126 time=0.09803916666666665
EXTRACT: note_on channel=0 note=31 velocity=107 time=0.14705875
EXTRACT: note_on channel=9 note=28 velocity=92 time=0
EXTRACT: note_on channel=9 note=42 velocity=79 time=0
EXTRACT: note_on channel=12 note=48 velocity=113 time=0
EXTRACT: note_on channel=14 note=74 velocity=0 time=0
EXTRACT: note_on channel=12 note=48 velocity=0 time=0.03431370833333333
EXTRACT: note_on channel=9 note=28 velocity=0 time=0.014705874999999998
EXTRACT: note_on channel=9 note=42 velocity=0 time=0
EXTRACT: note_on channel=14 note=72 velocity=126 time=0.09803916666666665
EXTRACT: note_on channel=0 note=31 velocity=0 time=0.14705875
EXTRACT: note_on channel=9 note=42 velocity=104 time=0
EXTRACT: note_on channel=14 note=72 velocity=0 time=0
EXTRACT: note_on channel=9 note=42 velocity=0 time=0.049019583333333325
EXTRACT: note_on channel=11 note=56 velocity=99 time=0.24387242708333332
EXTRACT: note_on channel=11 note=60 velocity=110 time=0
EXTRACT: note_on channel=11 note=63 velocity=102 time=0
EXTRACT: note_on channel=0 note=32 velocity=115 time=0.0012254895833333332
EXTRACT: note_on channel=2 note=68 velocity=109 time=0
EXTRACT: note_on channel=2 note=60 velocity=105 time=0
EXTRACT: note_on channel=2 note=63 velocity=107 time=0
EXTRACT: note_on channel=9 note=42 velocity=70 time=0
EXTRACT: note_on channel=9 note=36 velocity=120 time=0
EXTRACT: note_on channel=14 note=72 velocity=101 time=0
EXTRACT: note_on channel=9 note=42 velocity=0 time=0.049019583333333325
EXTRACT: note_on channel=9 note=36 velocity=0 time=0
EXTRACT: note_on channel=11 note=56 velocity=0 time=0.09681367708333333
EXTRACT: note_on channel=11 note=60 velocity=0 time=0
EXTRACT: note_on channel=11 note=63 velocity=0 time=0
EXTRACT: note_on channel=11 note=56 velocity=98 time=0.14705875
EXTRACT: note_on channel=11 note=60 velocity=102 time=0
EXTRACT: note_on channel=11 note=63 velocity=90 time=0
EXTRACT: note_on channel=0 note=32 velocity=0 time=0.0012254895833333332
EXTRACT: note_on channel=9 note=42 velocity=105 time=0
EXTRACT: note_on channel=9 note=54 velocity=72 time=0
EXTRACT: note_on channel=14 note=72 velocity=0 time=0
EXTRACT: note_on channel=9 note=42 velocity=0 time=0.049019583333333325
EXTRACT: note_on channel=9 note=54 velocity=0 time=0
EXTRACT: note_on channel=11 note=56 velocity=0 time=0.09681367708333333
EXTRACT: note_on channel=11 note=60 velocity=0 time=0
EXTRACT: note_on channel=11 note=63 velocity=0 time=0
EXTRACT: note_on channel=11 note=56 velocity=98 time=0.14705875
EXTRACT: note_on channel=11 note=60 velocity=93 time=0
EXTRACT: note_on channel=11 note=63 velocity=104 time=0
EXTRACT: note_on channel=9 note=42 velocity=79 time=0.0012254895833333332
EXTRACT: note_on channel=9 note=40 velocity=127 time=0
EXTRACT: note_on channel=14 note=72 velocity=119 time=0
EXTRACT: note_on channel=9 note=42 velocity=0 time=0.049019583333333325
EXTRACT: note_on channel=9 note=40 velocity=0 time=0
EXTRACT: note_on channel=11 note=56 velocity=0 time=0.09681367708333333
EXTRACT: note_on channel=11 note=60 velocity=0 time=0
EXTRACT: note_on channel=11 note=63 velocity=0 time=0
EXTRACT: note_on channel=11 note=56 velocity=111 time=0.14705875
EXTRACT: note_on channel=11 note=60 velocity=110 time=0
EXTRACT: note_on channel=11 note=63 velocity=100 time=0
EXTRACT: note_on channel=9 note=42 velocity=101 time=0.0012254895833333332
EXTRACT: note_on channel=9 note=36 velocity=120 time=0
EXTRACT: note_on channel=9 note=54 velocity=80 time=0
EXTRACT: note_on channel=14 note=72 velocity=0 time=0
EXTRACT: note_on channel=9 note=42 velocity=0 time=0.049019583333333325
EXTRACT: note_on channel=9 note=36 velocity=0 time=0
EXTRACT: note_on channel=9 note=54 velocity=0 time=0
EXTRACT: note_on channel=11 note=56 velocity=0 time=0.09681367708333333
EXTRACT: note_on channel=11 note=60 velocity=0 time=0
EXTRACT: note_on channel=11 note=63 velocity=0 time=0
EXTRACT: note_on channel=11 note=55 velocity=98 time=0.14705875
EXTRACT: note_on channel=11 note=59 velocity=96 time=0
EXTRACT: note_on channel=11 note=62 velocity=87 time=0
EXTRACT: note_on channel=2 note=68 velocity=0 time=0.0012254895833333332
EXTRACT: note_on channel=2 note=60 velocity=0 time=0
EXTRACT: note_on channel=2 note=63 velocity=0 time=0
EXTRACT: note_on channel=2 note=65 velocity=65 time=0
EXTRACT: note_on channel=2 note=59 velocity=117 time=0
EXTRACT: note_on channel=2 note=67 velocity=114 time=0
EXTRACT: note_on channel=2 note=62 velocity=120 time=0
EXTRACT: note_on channel=9 note=42 velocity=80 time=0
EXTRACT: note_on channel=9 note=36 velocity=120 time=0
EXTRACT: note_on channel=14 note=71 velocity=107 time=0
EXTRACT: note_on channel=9 note=42 velocity=0 time=0.049019583333333325
EXTRACT: note_on channel=9 note=36 velocity=0 time=0
EXTRACT: note_on channel=11 note=55 velocity=0 time=0.09681367708333333
EXTRACT: note_on channel=11 note=59 velocity=0 time=0
EXTRACT: note_on channel=11 note=62 velocity=0 time=0
EXTRACT: note_on channel=14 note=71 velocity=0 time=0.0012254895833333332
EXTRACT: note_on channel=11 note=55 velocity=100 time=0.14583326041666664
EXTRACT: note_on channel=11 note=59 velocity=109 time=0
EXTRACT: note_on channel=11 note=62 velocity=112 time=0
EXTRACT: note_on channel=9 note=42 velocity=105 time=0.0012254895833333332
EXTRACT: note_on channel=9 note=54 velocity=78 time=0
EXTRACT: note_on channel=14 note=71 velocity=110 time=0
EXTRACT: note_on channel=9 note=42 velocity=0 time=0.049019583333333325
EXTRACT: note_on channel=9 note=54 velocity=0 time=0
EXTRACT: note_on channel=14 note=71 velocity=0 time=0.09313720833333332
EXTRACT: note_on channel=11 note=55 velocity=0 time=0.0036764687499999996
EXTRACT: note_on channel=11 note=59 velocity=0 time=0
EXTRACT: note_on channel=11 note=62 velocity=0 time=0
EXTRACT: note_on channel=14 note=72 velocity=120 time=0.0012254895833333332
EXTRACT: note_on channel=11 note=55 velocity=104 time=0.14583326041666664
EXTRACT: note_on channel=11 note=59 velocity=107 time=0
EXTRACT: note_on channel=11 note=62 velocity=94 time=0
EXTRACT: note_on channel=0 note=31 velocity=119 time=0.0012254895833333332
EXTRACT: note_on channel=9 note=42 velocity=76 time=0
EXTRACT: note_on channel=9 note=40 velocity=127 time=0
EXTRACT: note_on channel=9 note=42 velocity=0 time=0.049019583333333325
EXTRACT: note_on channel=9 note=40 velocity=0 time=0
EXTRACT: note_on channel=14 note=72 velocity=0 time=0.09313720833333332
EXTRACT: note_on channel=11 note=55 velocity=0 time=0.0036764687499999996
EXTRACT: note_on channel=11 note=59 velocity=0 time=0
EXTRACT: note_on channel=11 note=62 velocity=0 time=0
EXTRACT: note_on channel=14 note=74 velocity=116 time=0.0012254895833333332
EXTRACT: note_on channel=11 note=55 velocity=88 time=0.14583326041666664
EXTRACT: note_on channel=11 note=59 velocity=106 time=0
EXTRACT: note_on channel=11 note=62 velocity=94 time=0
EXTRACT: note_on channel=0 note=31 velocity=0 time=0.0012254895833333332
EXTRACT: note_on channel=9 note=42 velocity=95 time=0
EXTRACT: note_on channel=9 note=54 velocity=78 time=0
EXTRACT: note_on channel=14 note=74 velocity=0 time=0
EXTRACT: note_on channel=9 note=42 velocity=0 time=0.049019583333333325
EXTRACT: note_on channel=9 note=54 velocity=0 time=0
EXTRACT: note_on channel=11 note=55 velocity=0 time=0.09681367708333333
EXTRACT: note_on channel=11 note=59 velocity=0 time=0
EXTRACT: note_on channel=11 note=62 velocity=0 time=0
EXTRACT: note_on channel=11 note=55 velocity=104 time=0.14705875
EXTRACT: note_on channel=11 note=60 velocity=87 time=0
EXTRACT: note_on channel=11 note=63 velocity=109 time=0
EXTRACT: note_on channel=0 note=36 velocity=119 time=0.0012254895833333332
EXTRACT: note_on channel=2 note=65 velocity=0 time=0
EXTRACT: note_on channel=2 note=59 velocity=0 time=0
EXTRACT: note_on channel=2 note=67 velocity=0 time=0
EXTRACT: note_on channel=2 note=62 velocity=0 time=0
EXTRACT: note_on channel=2 note=60 velocity=126 time=0
EXTRACT: note_on channel=2 note=67 velocity=111 time=0
EXTRACT: note_on channel=2 note=63 velocity=123 time=0
EXTRACT: note_on channel=9 note=42 velocity=72 time=0
EXTRACT: note_on channel=9 note=36 velocity=120 time=0
EXTRACT: note_on channel=14 note=75 velocity=117 time=0
EXTRACT: note_on channel=9 note=42 velocity=0 time=0.049019583333333325
EXTRACT: note_on channel=9 note=36 velocity=0 time=0
EXTRACT: note_on channel=11 note=55 velocity=0 time=0.09681367708333333
EXTRACT: note_on channel=11 note=60 velocity=0 time=0
EXTRACT: note_on channel=11 note=63 velocity=0 time=0
EXTRACT: note_on channel=0 note=36 velocity=0 time=0.0012254895833333332
EXTRACT: note_on channel=11 note=55 velocity=107 time=0.14583326041666664
EXTRACT: note_on channel=11 note=60 velocity=103 time=0
EXTRACT: note_on channel=11 note=63 velocity=102 time=0
EXTRACT: note_on channel=0 note=36 velocity=108 time=0.0012254895833333332
EXTRACT: note_on channel=9 note=42 velocity=103 time=0
EXTRACT: note_on channel=9 note=54 velocity=83 time=0
EXTRACT: note_on channel=14 note=75 velocity=0 time=0
EXTRACT: note_on channel=9 note=42 velocity=0 time=0.049019583333333325
EXTRACT: note_on channel=9 note=54 velocity=0 time=0
EXTRACT: note_on channel=11 note=55 velocity=0 time=0.09681367708333333
EXTRACT: note_on channel=11 note=60 velocity=0 time=0
EXTRACT: note_on channel=11 note=63 velocity=0 time=0
EXTRACT: note_on channel=0 note=36 velocity=0 time=0.0012254895833333332
EXTRACT: note_on channel=14 note=67 velocity=98 time=0
EXTRACT: note_on channel=14 note=67 velocity=0 time=0.14215679166666664
EXTRACT: note_on channel=11 note=55 velocity=90 time=0.0036764687499999996
EXTRACT: note_on channel=11 note=60 velocity=95 time=0
EXTRACT: note_on channel=11 note=63 velocity=89 time=0
EXTRACT: note_on channel=9 note=42 velocity=76 time=0.0012254895833333332
EXTRACT: note_on channel=9 note=40 velocity=127 time=0
EXTRACT: note_on channel=14 note=75 velocity=123 time=0
EXTRACT: note_on channel=9 note=42 velocity=0 time=0.049019583333333325
EXTRACT: note_on channel=9 note=40 velocity=0 time=0
EXTRACT: note_on channel=14 note=75 velocity=0 time=0.024509791666666662
EXTRACT: note_on channel=11 note=55 velocity=0 time=0.07230388541666666
EXTRACT: note_on channel=11 note=60 velocity=0 time=0
EXTRACT: note_on channel=11 note=63 velocity=0 time=0
EXTRACT: note_on channel=14 note=75 velocity=118 time=0.0012254895833333332
EXTRACT: note_on channel=14 note=75 velocity=0 time=0.073529375
EXTRACT: note_on channel=11 note=55 velocity=104 time=0.07230388541666666
EXTRACT: note_on channel=11 note=60 velocity=105 time=0
EXTRACT: note_on channel=11 note=63 velocity=88 time=0
EXTRACT: note_on channel=9 note=42 velocity=101 time=0.0012254895833333332
EXTRACT: note_on channel=9 note=36 velocity=120 time=0
EXTRACT: note_on channel=9 note=54 velocity=84 time=0
EXTRACT: note_on channel=14 note=75 velocity=124 time=0
EXTRACT: note_on channel=9 note=42 velocity=0 time=0.049019583333333325
EXTRACT: note_on channel=9 note=36 velocity=0 time=0
EXTRACT: note_on channel=9 note=54 velocity=0 time=0
EXTRACT: note_on channel=14 note=75 velocity=0 time=0.024509791666666662
EXTRACT: note_on channel=11 note=55 velocity=0 time=0.07230388541666666
EXTRACT: note_on channel=11 note=60 velocity=0 time=0
EXTRACT: note_on channel=11 note=63 velocity=0 time=0
EXTRACT: note_on channel=14 note=75 velocity=100 time=0.0012254895833333332
EXTRACT: note_on channel=14 note=75 velocity=0 time=0.073529375
EXTRACT: note_on channel=11 note=55 velocity=91 time=0.07230388541666666
EXTRACT: note_on channel=11 note=60 velocity=91 time=0
EXTRACT: note_on channel=11 note=63 velocity=94 time=0
EXTRACT: note_on channel=9 note=42 velocity=77 time=0.0012254895833333332
EXTRACT: note_on channel=9 note=36 velocity=120 time=0
EXTRACT: note_on channel=14 note=75 velocity=114 time=0
EXTRACT: note_on channel=9 note=42 velocity=0 time=0.049019583333333325
EXTRACT: note_on channel=9 note=36 velocity=0 time=0
EXTRACT: note_on channel=14 note=75 velocity=0 time=0.09313720833333332
EXTRACT: note_on channel=11 note=55 velocity=0 time=0.0036764687499999996
EXTRACT: note_on channel=11 note=60 velocity=0 time=0
EXTRACT: note_on channel=11 note=63 velocity=0 time=0
EXTRACT: note_on channel=14 note=74 velocity=105 time=0.0012254895833333332
EXTRACT: note_on channel=11 note=55 velocity=99 time=0.14583326041666664
EXTRACT: note_on channel=11 note=60 velocity=96 time=0
EXTRACT: note_on channel=11 note=63 velocity=90 time=0
EXTRACT: note_on channel=9 note=42 velocity=96 time=0.0012254895833333332
EXTRACT: note_on channel=9 note=54 velocity=78 time=0
EXTRACT: note_on channel=14 note=74 velocity=0 time=0
EXTRACT: note_on channel=9 note=42 velocity=0 time=0.049019583333333325
EXTRACT: note_on channel=9 note=54 velocity=0 time=0
EXTRACT: note_on channel=11 note=55 velocity=0 time=0.09681367708333333
EXTRACT: note_on channel=11 note=60 velocity=0 time=0
EXTRACT: note_on channel=11 note=63 velocity=0 time=0
EXTRACT: note_on channel=14 note=74 velocity=105 time=0.0012254895833333332
EXTRACT: note_on channel=11 note=55 velocity=112 time=0.14583326041666664
EXTRACT: note_on channel=11 note=60 velocity=108 time=0
EXTRACT: note_on channel=11 note=63 velocity=108 time=0
EXTRACT: note_on channel=9 note=42 velocity=79 time=0.0012254895833333332
EXTRACT: note_on channel=9 note=40 velocity=127 time=0
EXTRACT: note_on channel=14 note=74 velocity=0 time=0
EXTRACT: note_on channel=9 note=42 velocity=0 time=0.049019583333333325
EXTRACT: note_on channel=9 note=40 velocity=0 time=0
EXTRACT: note_on channel=11 note=55 velocity=0 time=0.09681367708333333
EXTRACT: note_on channel=11 note=60 velocity=0 time=0
EXTRACT: note_on channel=11 note=63 velocity=0 time=0
EXTRACT: note_on channel=14 note=72 velocity=105 time=0.0012254895833333332
EXTRACT: note_on channel=11 note=55 velocity=110 time=0.14583326041666664
EXTRACT: note_on channel=11 note=60 velocity=96 time=0
EXTRACT: note_on channel=11 note=63 velocity=112 time=0
EXTRACT: note_on channel=9 note=54 velocity=80 time=0.0012254895833333332
EXTRACT: note_on channel=14 note=72 velocity=0 time=0
EXTRACT: note_on channel=9 note=54 velocity=0 time=0.049019583333333325
EXTRACT: note_on channel=11 note=55 velocity=0 time=0.09681367708333333
EXTRACT: note_on channel=11 note=60 velocity=0 time=0
EXTRACT: note_on channel=11 note=63 velocity=0 time=0
EXTRACT: note_on channel=0 note=36 velocity=109 time=0.0012254895833333332
EXTRACT: note_on channel=1 note=72 velocity=85 time=0
EXTRACT: note_on channel=9 note=46 velocity=120 time=0
EXTRACT: note_on channel=9 note=36 velocity=120 time=0
EXTRACT: note_on channel=14 note=75 velocity=119 time=0
EXTRACT: note_on channel=9 note=46 velocity=0 time=0.049019583333333325
EXTRACT: note_on channel=9 note=36 velocity=0 time=0
EXTRACT: note_on channel=0 note=36 velocity=0 time=0.09803916666666665
EXTRACT: note_on channel=1 note=72 velocity=0 time=0
EXTRACT: note_on channel=2 note=60 velocity=0 time=0
EXTRACT: note_on channel=2 note=67 velocity=0 time=0
EXTRACT: note_on channel=2 note=63 velocity=0 time=0
EXTRACT: note_on channel=9 note=42 velocity=121 time=0
EXTRACT: note_on channel=14 note=75 velocity=0 time=0
EXTRACT: note_on channel=9 note=42 velocity=0 time=0.049019583333333325
EXTRACT: note_on channel=0 note=44 velocity=114 time=0.24509791666666664
EXTRACT: note_on channel=1 note=72 velocity=70 time=0
EXTRACT: note_on channel=4 note=60 velocity=106 time=0
EXTRACT: note_on channel=4 note=75 velocity=104 time=0
EXTRACT: note_on channel=9 note=36 velocity=120 time=0
EXTRACT: note_on channel=14 note=72 velocity=106 time=0
EXTRACT: note_on channel=9 note=36 velocity=0 time=0.049019583333333325
EXTRACT: note_on channel=1 note=72 velocity=0 time=0.024509791666666662
EXTRACT: note_on channel=0 note=44 velocity=0 time=0.073529375
EXTRACT: note_on channel=4 note=60 velocity=0 time=0
EXTRACT: note_on channel=4 note=75 velocity=0 time=0
EXTRACT: note_on channel=14 note=72 velocity=0 time=0
EXTRACT: note_on channel=0 note=44 velocity=107 time=0.14705875
EXTRACT: control_change channel=1 control=91 value=20 time=0
EXTRACT: note_on channel=1 note=79 velocity=96 time=0
EXTRACT: note_on channel=4 note=75 velocity=105 time=0
EXTRACT: note_on channel=4 note=60 velocity=116 time=0
EXTRACT: note_on channel=4 note=79 velocity=121 time=0
EXTRACT: note_on channel=9 note=36 velocity=120 time=0
EXTRACT: note_on channel=14 note=72 velocity=102 time=0
EXTRACT: note_on channel=1 note=79 velocity=0 time=0.029411749999999997
EXTRACT: note_on channel=9 note=36 velocity=0 time=0.01960783333333333
EXTRACT: note_on channel=0 note=44 velocity=0 time=0.09803916666666665
EXTRACT: note_on channel=4 note=75 velocity=0 time=0
EXTRACT: note_on channel=4 note=60 velocity=0 time=0
EXTRACT: note_on channel=4 note=79 velocity=0 time=0
EXTRACT: control_change channel=4 control=91 value=20 time=0
EXTRACT: note_on channel=14 note=72 velocity=0 time=0
EXTRACT: note_on channel=0 note=43 velocity=102 time=0.73529375
EXTRACT: control_change channel=1 control=91 value=100 time=0
EXTRACT: note_on channel=1 note=79 velocity=81 time=0
EXTRACT: note_on channel=4 note=71 velocity=120 time=0
EXTRACT: note_on channel=4 note=71 velocity=97 time=0
EXTRACT: control_change channel=4 control=91 value=100 time=0
EXTRACT: note_on channel=4 note=79 velocity=107 time=0
EXTRACT: note_on channel=9 note=40 velocity=100 time=0
EXTRACT: note_on channel=9 note=40 velocity=0 time=0.049019583333333325
EXTRACT: note_on channel=0 note=43 velocity=0 time=0.09803916666666665
EXTRACT: note_on channel=1 note=79 velocity=0 time=0
EXTRACT: note_on channel=4 note=71 velocity=0 time=0
EXTRACT: note_on channel=4 note=71 velocity=0 time=0
EXTRACT: note_on channel=4 note=79 velocity=0 time=0
EXTRACT: note_on channel=0 note=43 velocity=102 time=0.14705875
EXTRACT: note_on channel=1 note=79 velocity=71 time=0
EXTRACT: note_on channel=4 note=71 velocity=83 time=0
EXTRACT: note_on channel=4 note=79 velocity=122 time=0
EXTRACT: note_on channel=9 note=40 velocity=127 time=0
EXTRACT: note_on channel=14 note=67 velocity=120 time=0
EXTRACT: note_on channel=9 note=40 velocity=0 time=0.049019583333333325
EXTRACT: note_on channel=0 note=43 velocity=0 time=0.09803916666666665
EXTRACT: note_on channel=1 note=79 velocity=0 time=0
EXTRACT: note_on channel=4 note=71 velocity=0 time=0
EXTRACT: note_on channel=4 note=79 velocity=0 time=0
EXTRACT: note_on channel=14 note=67 velocity=0 time=0
EXTRACT: note_on channel=0 note=43 velocity=126 time=0.14705875
EXTRACT: note_on channel=1 note=79 velocity=85 time=0
EXTRACT: note_on channel=4 note=71 velocity=116 time=0
EXTRACT: note_on channel=4 note=79 velocity=110 time=0
EXTRACT: note_on channel=9 note=48 velocity=80 time=0
EXTRACT: note_on channel=14 note=67 velocity=94 time=0
EXTRACT: note_on channel=9 note=48 velocity=0 time=0.049019583333333325
EXTRACT: note_on channel=0 note=43 velocity=0 time=0.09803916666666665
EXTRACT: note_on channel=1 note=79 velocity=0 time=0
EXTRACT: note_on channel=4 note=71 velocity=0 time=0
EXTRACT: note_on channel=4 note=79 velocity=0 time=0
EXTRACT: note_on channel=9 note=48 velocity=100 time=0
EXTRACT: note_on channel=14 note=67 velocity=0 time=0
EXTRACT: note_on channel=9 note=48 velocity=0 time=0.049019583333333325
EXTRACT: note_on channel=11 note=55 velocity=104 time=0.09681367708333333
EXTRACT: note_on channel=11 note=60 velocity=87 time=0
EXTRACT: note_on channel=11 note=63 velocity=109 time=0
EXTRACT: note_on channel=0 note=36 velocity=115 time=0.0012254895833333332
EXTRACT: note_on channel=1 note=60 velocity=115 time=0
EXTRACT: note_on channel=2 note=60 velocity=116 time=0
EXTRACT: note_on channel=2 note=67 velocity=108 time=0
EXTRACT: note_on channel=2 note=63 velocity=107 time=0
EXTRACT: note_on channel=4 note=63 velocity=119 time=0
EXTRACT: note_on channel=4 note=84 velocity=95 time=0
EXTRACT: note_on channel=4 note=72 velocity=123 time=0
EXTRACT: note_on channel=9 note=42 velocity=84 time=0
EXTRACT: note_on channel=9 note=36 velocity=120 time=0
EXTRACT: note_on channel=14 note=79 velocity=99 time=0
EXTRACT: note_on channel=9 note=42 velocity=0 time=0.049019583333333325
EXTRACT: note_on channel=9 note=36 velocity=0 time=0
EXTRACT: note_on channel=11 note=55 velocity=0 time=0.09681367708333333
EXTRACT: note_on channel=11 note=60 velocity=0 time=0
EXTRACT: note_on channel=11 note=63 velocity=0 time=0
EXTRACT: note_on channel=0 note=36 velocity=0 time=0.0012254895833333332
EXTRACT: note_on channel=4 note=63 velocity=0 time=0
EXTRACT: note_on channel=4 note=84 velocity=0 time=0
EXTRACT: note_on channel=4 note=72 velocity=0 time=0
EXTRACT: note_on channel=11 note=55 velocity=107 time=0.14583326041666664
EXTRACT: note_on channel=11 note=60 velocity=103 time=0
EXTRACT: note_on channel=11 note=63 velocity=102 time=0
EXTRACT: note_on channel=0 note=36 velocity=127 time=0.0012254895833333332
EXTRACT: note_on channel=1 note=60 velocity=0 time=0
EXTRACT: note_on channel=9 note=42 velocity=104 time=0
EXTRACT: note_on channel=9 note=36 velocity=120 time=0
EXTRACT: note_on channel=9 note=54 velocity=71 time=0
EXTRACT: note_on channel=14 note=79 velocity=0 time=0
EXTRACT: note_on channel=9 note=42 velocity=0 time=0.049019583333333325
EXTRACT: note_on channel=9 note=36 velocity=0 time=0
EXTRACT: note_on channel=9 note=54 velocity=0 time=0
EXTRACT: note_on channel=11 note=55 velocity=0 time=0.09681367708333333
EXTRACT: note_on channel=11 note=60 velocity=0 time=0
EXTRACT: note_on channel=11 note=63 velocity=0 time=0
EXTRACT: note_on channel=0 note=36 velocity=0 time=0.0012254895833333332
EXTRACT: note_on channel=11 note=55 velocity=90 time=0.14583326041666664
EXTRACT: note_on channel=11 note=60 velocity=95 time=0
EXTRACT: note_on channel=11 note=63 velocity=89 time=0
EXTRACT: note_on channel=9 note=42 velocity=77 time=0.0012254895833333332
EXTRACT: note_on channel=9 note=40 velocity=127 time=0
EXTRACT: note_on channel=14 note=79 velocity=112 time=0
EXTRACT: note_on channel=9 note=42 velocity=0 time=0.049019583333333325
EXTRACT: note_on channel=9 note=40 velocity=0 time=0
EXTRACT: note_on channel=11 note=55 velocity=0 time=0.09681367708333333
EXTRACT: note_on channel=11 note=60 velocity=0 time=0
EXTRACT: note_on channel=11 note=63 velocity=0 time=0
EXTRACT: note_on channel=11 note=55 velocity=104 time=0.14705875
EXTRACT: note_on channel=11 note=60 velocity=105 time=0
EXTRACT: note_on channel=11 note=63 velocity=88 time=0
EXTRACT: note_on channel=9 note=42 velocity=103 time=0.0012254895833333332
EXTRACT: note_on channel=9 note=36 velocity=120 time=0
EXTRACT: note_on channel=9 note=54 velocity=80 time=0
EXTRACT: note_on channel=14 note=79 velocity=0 time=0
EXTRACT: note_on channel=9 note=42 velocity=0 time=0.049019583333333325
EXTRACT: note_on channel=9 note=36 velocity=0 time=0
EXTRACT: note_on channel=9 note=54 velocity=0 time=0
EXTRACT: note_on channel=11 note=55 velocity=0 time=0.09681367708333333
EXTRACT: note_on channel=11 note=60 velocity=0 time=0
EXTRACT: note_on channel=11 note=63 velocity=0 time=0
EXTRACT: note_on channel=11 note=55 velocity=91 time=0.14705875
EXTRACT: note_on channel=11 note=60 velocity=91 time=0
EXTRACT: note_on channel=11 note=63 velocity=94 time=0
EXTRACT: note_on channel=9 note=42 velocity=83 time=0.0012254895833333332
EXTRACT: note_on channel=9 note=36 velocity=120 time=0
EXTRACT: note_on channel=14 note=79 velocity=101 time=0
EXTRACT: note_on channel=9 note=42 velocity=0 time=0.049019583333333325
EXTRACT: note_on channel=9 note=36 velocity=0 time=0
EXTRACT: note_on channel=11 note=55 velocity=0 time=0.09681367708333333
EXTRACT: note_on channel=11 note=60 velocity=0 time=0
EXTRACT: note_on channel=11 note=63 velocity=0 time=0
EXTRACT: note_on channel=14 note=79 velocity=0 time=0.14338228125
EXTRACT: note_on channel=11 note=55 velocity=99 time=0.0036764687499999996
EXTRACT: note_on channel=11 note=60 velocity=96 time=0
EXTRACT: note_on channel=11 note=63 velocity=90 time=0
EXTRACT: note_on channel=9 note=42 velocity=101 time=0.0012254895833333332
EXTRACT: note_on channel=9 note=54 velocity=84 time=0
EXTRACT: note_on channel=14 note=75 velocity=103 time=0
EXTRACT: note_on channel=9 note=42 velocity=0 time=0.049019583333333325
EXTRACT: note_on channel=9 note=54 velocity=0 time=0
EXTRACT: note_on channel=14 note=75 velocity=0 time=0.09313720833333332
EXTRACT: note_on channel=11 note=55 velocity=0 time=0.0036764687499999996
EXTRACT: note_on channel=11 note=60 velocity=0 time=0
EXTRACT: note_on channel=11 note=63 velocity=0 time=0
EXTRACT: note_on channel=14 note=75 velocity=118 time=0.0012254895833333332
EXTRACT: note_on channel=11 note=55 velocity=112 time=0.14583326041666664
EXTRACT: note_on channel=11 note=60 velocity=108 time=0
EXTRACT: note_on channel=11 note=63 velocity=108 time=0
EXTRACT: note_on channel=0 note=31 velocity=118 time=0.0012254895833333332
EXTRACT: note_on channel=9 note=42 velocity=76 time=0
EXTRACT: note_on channel=9 note=40 velocity=127 time=0
EXTRACT: note_on channel=14 note=75 velocity=0 time=0
EXTRACT: note_on channel=9 note=42 velocity=0 time=0.049019583333333325
EXTRACT: note_on channel=9 note=40 velocity=0 time=0
EXTRACT: note_on channel=11 note=55 velocity=0 time=0.09681367708333333
EXTRACT: note_on channel=11 note=60 velocity=0 time=0
EXTRACT: note_on channel=11 note=63 velocity=0 time=0
EXTRACT: note_on channel=11 note=55 velocity=110 time=0.14705875
EXTRACT: note_on channel=11 note=60 velocity=96 time=0
EXTRACT: note_on channel=11 note=63 velocity=112 time=0
EXTRACT: note_on channel=0 note=31 velocity=0 time=0.0012254895833333332
EXTRACT: note_on channel=9 note=42 velocity=96 time=0
EXTRACT: note_on channel=9 note=54 velocity=84 time=0
EXTRACT: note_on channel=14 note=75 velocity=106 time=0
EXTRACT: note_on channel=9 note=42 velocity=0 time=0.049019583333333325
EXTRACT: note_on channel=9 note=54 velocity=0 time=0
EXTRACT: note_on channel=11 note=55 velocity=0 time=0.09681367708333333
EXTRACT: note_on channel=11 note=60 velocity=0 time=0
EXTRACT: note_on channel=11 note=63 velocity=0 time=0
EXTRACT: note_on channel=14 note=75 velocity=0 time=0.0012254895833333332
EXTRACT: note_on channel=11 note=56 velocity=99 time=0.14583326041666664
EXTRACT: note_on channel=11 note=60 velocity=110 time=0
EXTRACT: note_on channel=11 note=63 velocity=102 time=0
EXTRACT: note_on channel=0 note=32 velocity=110 time=0.0012254895833333332
EXTRACT: note_on channel=2 note=60 velocity=0 time=0
EXTRACT: note_on channel=2 note=67 velocity=0 time=0
EXTRACT: note_on channel=2 note=63 velocity=0 time=0
EXTRACT: note_on channel=2 note=68 velocity=102 time=0
EXTRACT: note_on channel=2 note=60 velocity=110 time=0
EXTRACT: note_on channel=2 note=63 velocity=108 time=0
EXTRACT: note_on channel=9 note=42 velocity=83 time=0
EXTRACT: note_on channel=9 note=36 velocity=120 time=0
EXTRACT: note_on channel=14 note=77 velocity=126 time=0
EXTRACT: note_on channel=9 note=42 velocity=0 time=0.049019583333333325
EXTRACT: note_on channel=9 note=36 velocity=0 time=0
EXTRACT: note_on channel=11 note=56 velocity=0 time=0.09681367708333333
EXTRACT: note_on channel=11 note=60 velocity=0 time=0
EXTRACT: note_on channel=11 note=63 velocity=0 time=0
EXTRACT: note_on channel=11 note=56 velocity=98 time=0.14705875
EXTRACT: note_on channel=11 note=60 velocity=102 time=0
EXTRACT: note_on channel=11 note=63 velocity=90 time=0
EXTRACT: note_on channel=0 note=32 velocity=0 time=0.0012254895833333332
EXTRACT: note_on channel=9 note=42 velocity=98 time=0
EXTRACT: note_on channel=9 note=36 velocity=120 time=0
EXTRACT: note_on channel=9 note=54 velocity=75 time=0
EXTRACT: note_on channel=14 note=77 velocity=0 time=0
EXTRACT: note_on channel=9 note=42 velocity=0 time=0.049019583333333325
EXTRACT: note_on channel=9 note=36 velocity=0 time=0
EXTRACT: note_on channel=9 note=54 velocity=0 time=0
EXTRACT: note_on channel=11 note=56 velocity=0 time=0.09681367708333333
EXTRACT: note_on channel=11 note=60 velocity=0 time=0
EXTRACT: note_on channel=11 note=63 velocity=0 time=0
EXTRACT: note_on channel=11 note=56 velocity=98 time=0.14705875
EXTRACT: note_on channel=11 note=60 velocity=93 time=0
EXTRACT: note_on channel=11 note=63 velocity=104 time=0
EXTRACT: note_on channel=9 note=42 velocity=74 time=0.0012254895833333332
EXTRACT: note_on channel=9 note=40 velocity=127 time=0
EXTRACT: note_on channel=14 note=77 velocity=123 time=0
EXTRACT: note_on channel=9 note=42 velocity=0 time=0.049019583333333325
EXTRACT: note_on channel=9 note=40 velocity=0 time=0
EXTRACT: note_on channel=11 note=56 velocity=0 time=0.09681367708333333
EXTRACT: note_on channel=11 note=60 velocity=0 time=0
EXTRACT: note_on channel=11 note=63 velocity=0 time=0
EXTRACT: note_on channel=11 note=56 velocity=111 time=0.14705875
EXTRACT: note_on channel=11 note=60 velocity=110 time=0
EXTRACT: note_on channel=11 note=63 velocity=100 time=0
EXTRACT: note_on channel=9 note=42 velocity=96 time=0.0012254895833333332
EXTRACT: note_on channel=9 note=36 velocity=120 time=0
EXTRACT: note_on channel=9 note=54 velocity=83 time=0
EXTRACT: note_on channel=14 note=77 velocity=0 time=0
EXTRACT: note_on channel=9 note=42 velocity=0 time=0.049019583333333325
EXTRACT: note_on channel=9 note=36 velocity=0 time=0
EXTRACT: note_on channel=9 note=54 velocity=0 time=0
EXTRACT: note_on channel=11 note=56 velocity=0 time=0.09681367708333333
EXTRACT: note_on channel=11 note=60 velocity=0 time=0
EXTRACT: note_on channel=11 note=63 velocity=0 time=0
EXTRACT: note_on channel=11 note=55 velocity=98 time=0.14705875
EXTRACT: note_on channel=11 note=59 velocity=96 time=0
EXTRACT: note_on channel=11 note=62 velocity=87 time=0
EXTRACT: note_on channel=2 note=68 velocity=0 time=0.0012254895833333332
EXTRACT: note_on channel=2 note=60 velocity=0 time=0
EXTRACT: note_on channel=2 note=63 velocity=0 time=0
EXTRACT: note_on channel=2 note=65 velocity=79 time=0
EXTRACT: note_on channel=2 note=59 velocity=122 time=0
EXTRACT: note_on channel=2 note=67 velocity=117 time=0
EXTRACT: note_on channel=2 note=62 velocity=125 time=0
EXTRACT: note_on channel=9 note=42 velocity=84 time=0
EXTRACT: note_on channel=9 note=36 velocity=120 time=0
EXTRACT: note_on channel=14 note=74 velocity=108 time=0
EXTRACT: note_on channel=9 note=42 velocity=0 time=0.049019583333333325
EXTRACT: note_on channel=9 note=36 velocity=0 time=0
EXTRACT: note_on channel=11 note=55 velocity=0 time=0.09681367708333333
EXTRACT: note_on channel=11 note=59 velocity=0 time=0
EXTRACT: note_on channel=11 note=62 velocity=0 time=0
EXTRACT: note_on channel=14 note=74 velocity=0 time=0.0012254895833333332
EXTRACT: note_on channel=11 note=55 velocity=100 time=0.14583326041666664
EXTRACT: note_on channel=11 note=59 velocity=109 time=0
EXTRACT: note_on channel=11 note=62 velocity=112 time=0
EXTRACT: note_on channel=9 note=42 velocity=95 time=0.0012254895833333332
EXTRACT: note_on channel=9 note=54 velocity=76 time=0
EXTRACT: note_on channel=14 note=74 velocity=118 time=0
EXTRACT: note_on channel=9 note=42 velocity=0 time=0.049019583333333325
EXTRACT: note_on channel=9 note=54 velocity=0 time=0
EXTRACT: note_on channel=14 note=74 velocity=0 time=0.09313720833333332
EXTRACT: note_on channel=11 note=55 velocity=0 time=0.0036764687499999996
EXTRACT: note_on channel=11 note=59 velocity=0 time=0
EXTRACT: note_on channel=11 note=62 velocity=0 time=0
EXTRACT: note_on channel=14 note=74 velocity=98 time=0.0012254895833333332
EXTRACT: note_on channel=11 note=55 velocity=104 time=0.14583326041666664
EXTRACT: note_on channel=11 note=59 velocity=107 time=0
EXTRACT: note_on channel=11 note=62 velocity=94 time=0
EXTRACT: note_on channel=0 note=31 velocity=115 time=0.0012254895833333332
EXTRACT: note_on channel=9 note=42 velocity=79 time=0
EXTRACT: note_on channel=9 note=40 velocity=127 time=0
EXTRACT: note_on channel=14 note=74 velocity=0 time=0
EXTRACT: note_on channel=9 note=42 velocity=0 time=0.049019583333333325
EXTRACT: note_on channel=9 note=40 velocity=0 time=0
EXTRACT: note_on channel=11 note=55 velocity=0 time=0.09681367708333333
EXTRACT: note_on channel=11 note=59 velocity=0 time=0
EXTRACT: note_on channel=11 note=62 velocity=0 time=0
EXTRACT: note_on channel=14 note=79 velocity=118 time=0.0012254895833333332
EXTRACT: note_on channel=11 note=55 velocity=88 time=0.14583326041666664
EXTRACT: note_on channel=11 note=59 velocity=106 time=0
EXTRACT: note_on channel=11 note=62 velocity=94 time=0
EXTRACT: note_on channel=0 note=31 velocity=0 time=0.0012254895833333332
EXTRACT: note_on channel=9 note=42 velocity=100 time=0
EXTRACT: note_on channel=9 note=54 velocity=65 time=0
EXTRACT: note_on channel=14 note=79 velocity=0 time=0
EXTRACT: note_on channel=9 note=42 velocity=0 time=0.049019583333333325
EXTRACT: note_on channel=9 note=54 velocity=0 time=0
EXTRACT: note_on channel=11 note=55 velocity=0 time=0.09681367708333333
EXTRACT: note_on channel=11 note=59 velocity=0 time=0
EXTRACT: note_on channel=11 note=62 velocity=0 time=0
EXTRACT: note_on channel=14 note=79 velocity=111 time=0.0012254895833333332
EXTRACT: note_on channel=11 note=55 velocity=104 time=0.14583326041666664
EXTRACT: note_on channel=11 note=60 velocity=87 time=0
EXTRACT: note_on channel=11 note=63 velocity=109 time=0
EXTRACT: note_on channel=0 note=36 velocity=125 time=0.0012254895833333332
EXTRACT: note_on channel=2 note=65 velocity=0 time=0
EXTRACT: note_on channel=2 note=59 velocity=0 time=0
EXTRACT: note_on channel=2 note=67 velocity=0 time=0
EXTRACT: note_on channel=2 note=62 velocity=0 time=0
EXTRACT: note_on channel=2 note=60 velocity=117 time=0
EXTRACT: note_on channel=2 note=67 velocity=117 time=0
EXTRACT: note_on channel=2 note=63 velocity=124 time=0
EXTRACT: note_on channel=9 note=42 velocity=81 time=0
EXTRACT: note_on channel=9 note=36 velocity=120 time=0
EXTRACT: note_on channel=14 note=79 velocity=0 time=0
EXTRACT: note_on channel=9 note=42 velocity=0 time=0.049019583333333325
EXTRACT: note_on channel=9 note=36 velocity=0 time=0
EXTRACT: note_on channel=11 note=55 velocity=0 time=0.09681367708333333
EXTRACT: note_on channel=11 note=60 velocity=0 time=0
EXTRACT: note_on channel=11 note=63 velocity=0 time=0
EXTRACT: note_on channel=0 note=36 velocity=0 time=0.0012254895833333332
EXTRACT: note_on channel=11 note=55 velocity=107 time=0.14583326041666664
EXTRACT: note_on channel=11 note=60 velocity=103 time=0
EXTRACT: note_on channel=11 note=63 velocity=102 time=0
EXTRACT: note_on channel=0 note=36 velocity=108 time=0.0012254895833333332
EXTRACT: note_on channel=9 note=42 velocity=100 time=0
EXTRACT: note_on channel=9 note=36 velocity=120 time=0
EXTRACT: note_on channel=9 note=54 velocity=82 time=0
EXTRACT: note_on channel=9 note=42 velocity=0 time=0.049019583333333325
EXTRACT: note_on channel=9 note=36 velocity=0 time=0
EXTRACT: note_on channel=9 note=54 velocity=0 time=0
EXTRACT: note_on channel=11 note=55 velocity=0 time=0.09681367708333333
EXTRACT: note_on channel=11 note=60 velocity=0 time=0
EXTRACT: note_on channel=11 note=63 velocity=0 time=0
EXTRACT: note_on channel=0 note=36 velocity=0 time=0.0012254895833333332
EXTRACT: note_on channel=11 note=55 velocity=90 time=0.14583326041666664
EXTRACT: note_on channel=11 note=60 velocity=95 time=0
EXTRACT: note_on channel=11 note=63 velocity=89 time=0
EXTRACT: note_on channel=9 note=42 velocity=76 time=0.0012254895833333332
EXTRACT: note_on channel=9 note=40 velocity=127 time=0
EXTRACT: note_on channel=14 note=79 velocity=111 time=0
EXTRACT: note_on channel=9 note=42 velocity=0 time=0.049019583333333325
EXTRACT: note_on channel=9 note=40 velocity=0 time=0
EXTRACT: note_on channel=14 note=79 velocity=0 time=0.024509791666666662
EXTRACT: note_on channel=11 note=55 velocity=0 time=0.07230388541666666
EXTRACT: note_on channel=11 note=60 velocity=0 time=0
EXTRACT: note_on channel=11 note=63 velocity=0 time=0
EXTRACT: note_on channel=14 note=79 velocity=126 time=0.0012254895833333332
EXTRACT: note_on channel=14 note=79 velocity=0 time=0.073529375
EXTRACT: note_on channel=11 note=55 velocity=104 time=0.07230388541666666
EXTRACT: note_on channel=11 note=60 velocity=105 time=0
EXTRACT: note_on channel=11 note=63 velocity=88 time=0
EXTRACT: note_on channel=9 note=42 velocity=100 time=0.0012254895833333332
EXTRACT: note_on channel=9 note=36 velocity=120 time=0
EXTRACT: note_on channel=9 note=54 velocity=85 time=0
EXTRACT: note_on channel=14 note=79 velocity=105 time=0
EXTRACT: note_on channel=9 note=42 velocity=0 time=0.049019583333333325
EXTRACT: note_on channel=9 note=36 velocity=0 time=0
EXTRACT: note_on channel=9 note=54 velocity=0 time=0
EXTRACT: note_on channel=11 note=55 velocity=0 time=0.09681367708333333
EXTRACT: note_on channel=11 note=60 velocity=0 time=0
EXTRACT: note_on channel=11 note=63 velocity=0 time=0
EXTRACT: note_on channel=14 note=79 velocity=0 time=0.0012254895833333332
EXTRACT: note_on channel=11 note=55 velocity=91 time=0.14583326041666664
EXTRACT: note_on channel=11 note=60 velocity=91 time=0
EXTRACT: note_on channel=11 note=63 velocity=94 time=0
EXTRACT: note_on channel=9 note=42 velocity=83 time=0.0012254895833333332
EXTRACT: note_on channel=9 note=36 velocity=120 time=0
EXTRACT: note_on channel=14 note=79 velocity=122 time=0
EXTRACT: note_on channel=9 note=42 velocity=0 time=0.049019583333333325
EXTRACT: note_on channel=9 note=36 velocity=0 time=0
EXTRACT: note_on channel=11 note=55 velocity=0 time=0.09681367708333333
EXTRACT: note_on channel=11 note=60 velocity=0 time=0
EXTRACT: note_on channel=11 note=63 velocity=0 time=0
EXTRACT: note_on channel=14 note=79 velocity=0 time=0.0012254895833333332
EXTRACT: note_on channel=11 note=55 velocity=99 time=0.14583326041666664
EXTRACT: note_on channel=11 note=60 velocity=96 time=0
EXTRACT: note_on channel=11 note=63 velocity=90 time=0
EXTRACT: note_on channel=9 note=42 velocity=99 time=0.0012254895833333332
EXTRACT: note_on channel=9 note=54 velocity=85 time=0
EXTRACT: note_on channel=14 note=75 velocity=121 time=0
EXTRACT: note_on channel=9 note=42 velocity=0 time=0.049019583333333325
EXTRACT: note_on channel=9 note=54 velocity=0 time=0
EXTRACT: note_on channel=14 note=75 velocity=0 time=0.09313720833333332
EXTRACT: note_on channel=11 note=55 velocity=0 time=0.0036764687499999996
EXTRACT: note_on channel=11 note=60 velocity=0 time=0
EXTRACT: note_on channel=11 note=63 velocity=0 time=0
EXTRACT: note_on channel=14 note=75 velocity=122 time=0.0012254895833333332
EXTRACT: note_on channel=11 note=55 velocity=112 time=0.14583326041666664
EXTRACT: note_on channel=11 note=60 velocity=108 time=0
EXTRACT: note_on channel=11 note=63 velocity=108 time=0
EXTRACT: note_on channel=0 note=31 velocity=118 time=0.0012254895833333332
EXTRACT: note_on channel=9 note=42 velocity=81 time=0
EXTRACT: note_on channel=9 note=40 velocity=127 time=0
EXTRACT: note_on channel=14 note=75 velocity=0 time=0
EXTRACT: note_on channel=9 note=42 velocity=0 time=0.049019583333333325
EXTRACT: note_on channel=9 note=40 velocity=0 time=0
EXTRACT: note_on channel=11 note=55 velocity=0 time=0.09681367708333333
EXTRACT: note_on channel=11 note=60 velocity=0 time=0
EXTRACT: note_on channel=11 note=63 velocity=0 time=0
EXTRACT: note_on channel=11 note=55 velocity=110 time=0.14705875
EXTRACT: note_on channel=11 note=60 velocity=96 time=0
EXTRACT: note_on channel=11 note=63 velocity=112 time=0
EXTRACT: note_on channel=0 note=31 velocity=0 time=0.0012254895833333332
EXTRACT: note_on channel=9 note=36 velocity=120 time=0
EXTRACT: note_on channel=9 note=42 velocity=103 time=0
EXTRACT: note_on channel=9 note=54 velocity=81 time=0
EXTRACT: note_on channel=14 note=72 velocity=107 time=0
EXTRACT: note_on channel=9 note=36 velocity=0 time=0.049019583333333325
EXTRACT: note_on channel=9 note=42 velocity=0 time=0
EXTRACT: note_on channel=9 note=54 velocity=0 time=0
EXTRACT: note_on channel=11 note=55 velocity=0 time=0.09681367708333333
EXTRACT: note_on channel=11 note=60 velocity=0 time=0
EXTRACT: note_on channel=11 note=63 velocity=0 time=0
EXTRACT: note_on channel=14 note=72 velocity=0 time=0.0012254895833333332
EXTRACT: note_on channel=11 note=56 velocity=99 time=0.14583326041666664
EXTRACT: note_on channel=11 note=60 velocity=110 time=0
EXTRACT: note_on channel=11 note=63 velocity=102 time=0
EXTRACT: note_on channel=0 note=32 velocity=110 time=0.0012254895833333332
EXTRACT: note_on channel=2 note=60 velocity=0 time=0
EXTRACT: note_on channel=2 note=67 velocity=0 time=0
EXTRACT: note_on channel=2 note=63 velocity=0 time=0
EXTRACT: note_on channel=2 note=68 velocity=106 time=0
EXTRACT: note_on channel=2 note=60 velocity=114 time=0
EXTRACT: note_on channel=2 note=63 velocity=106 time=0
EXTRACT: note_on channel=9 note=42 velocity=76 time=0
EXTRACT: note_on channel=9 note=36 velocity=120 time=0
EXTRACT: note_on channel=14 note=77 velocity=112 time=0
EXTRACT: note_on channel=9 note=42 velocity=0 time=0.049019583333333325
EXTRACT: note_on channel=9 note=36 velocity=0 time=0
EXTRACT: note_on channel=11 note=56 velocity=0 time=0.09681367708333333
EXTRACT: note_on channel=11 note=60 velocity=0 time=0
EXTRACT: note_on channel=11 note=63 velocity=0 time=0
EXTRACT: note_on channel=14 note=77 velocity=0 time=0.0012254895833333332
EXTRACT: note_on channel=11 note=56 velocity=98 time=0.14583326041666664
EXTRACT: note_on channel=11 note=60 velocity=102 time=0
EXTRACT: note_on channel=11 note=63 velocity=90 time=0
EXTRACT: note_on channel=9 note=42 velocity=100 time=0.0012254895833333332
EXTRACT: note_on channel=9 note=54 velocity=76 time=0
EXTRACT: note_on channel=14 note=77 velocity=97 time=0
EXTRACT: note_on channel=9 note=42 velocity=0 time=0.049019583333333325
EXTRACT: note_on channel=9 note=54 velocity=0 time=0
EXTRACT: note_on channel=11 note=56 velocity=0 time=0.09681367708333333
EXTRACT: note_on channel=11 note=60 velocity=0 time=0
EXTRACT: note_on channel=11 note=63 velocity=0 time=0
EXTRACT: note_on channel=14 note=77 velocity=0 time=0.0012254895833333332
EXTRACT: note_on channel=11 note=56 velocity=98 time=0.14583326041666664
EXTRACT: note_on channel=11 note=60 velocity=93 time=0
EXTRACT: note_on channel=11 note=63 velocity=104 time=0
EXTRACT: note_on channel=9 note=42 velocity=76 time=0.0012254895833333332
EXTRACT: note_on channel=9 note=40 velocity=127 time=0
EXTRACT: note_on channel=9 note=42 velocity=0 time=0.049019583333333325
EXTRACT: note_on channel=9 note=40 velocity=0 time=0
EXTRACT: note_on channel=11 note=56 velocity=0 time=0.09681367708333333
EXTRACT: note_on channel=11 note=60 velocity=0 time=0
EXTRACT: note_on channel=11 note=63 velocity=0 time=0
EXTRACT: note_on channel=0 note=32 velocity=0 time=0.0012254895833333332
EXTRACT: note_on channel=11 note=56 velocity=111 time=0.14583326041666664
EXTRACT: note_on channel=11 note=60 velocity=110 time=0
EXTRACT: note_on channel=11 note=63 velocity=100 time=0
EXTRACT: note_on channel=0 note=32 velocity=103 time=0.0012254895833333332
EXTRACT: note_on channel=9 note=42 velocity=99 time=0
EXTRACT: note_on channel=9 note=36 velocity=120 time=0
EXTRACT: note_on channel=9 note=54 velocity=80 time=0
EXTRACT: note_on channel=14 note=72 velocity=103 time=0
EXTRACT: note_on channel=9 note=42 velocity=0 time=0.049019583333333325
EXTRACT: note_on channel=9 note=36 velocity=0 time=0
EXTRACT: note_on channel=9 note=54 velocity=0 time=0
EXTRACT: note_on channel=14 note=72 velocity=0 time=0.09313720833333332
EXTRACT: note_on channel=11 note=56 velocity=0 time=0.0036764687499999996
EXTRACT: note_on channel=11 note=60 velocity=0 time=0
EXTRACT: note_on channel=11 note=63 velocity=0 time=0
EXTRACT: note_on channel=14 note=74 velocity=119 time=0.0012254895833333332
EXTRACT: note_on channel=0 note=32 velocity=0 time=0.14215679166666664
EXTRACT: note_on channel=14 note=74 velocity=0 time=0
EXTRACT: note_on channel=11 note=55 velocity=98 time=0.0036764687499999996
EXTRACT: note_on channel=11 note=59 velocity=96 time=0
EXTRACT: note_on channel=11 note=62 velocity=87 time=0
EXTRACT: note_on channel=0 note=31 velocity=121 time=0.0012254895833333332
EXTRACT: note_on channel=2 note=68 velocity=0 time=0
EXTRACT: note_on channel=2 note=60 velocity=0 time=0
EXTRACT: note_on channel=2 note=63 velocity=0 time=0
EXTRACT: note_on channel=2 note=65 velocity=83 time=0
EXTRACT: note_on channel=2 note=59 velocity=106 time=0
EXTRACT: note_on channel=2 note=67 velocity=121 time=0
EXTRACT: note_on channel=2 note=62 velocity=114 time=0
EXTRACT: note_on channel=9 note=42 velocity=77 time=0
EXTRACT: note_on channel=9 note=36 velocity=120 time=0
EXTRACT: note_on channel=14 note=79 velocity=114 time=0
EXTRACT: note_on channel=9 note=42 velocity=0 time=0.049019583333333325
EXTRACT: note_on channel=9 note=36 velocity=0 time=0
EXTRACT: note_on channel=14 note=79 velocity=0 time=0.09313720833333332
EXTRACT: note_on channel=11 note=55 velocity=0 time=0.0036764687499999996
EXTRACT: note_on channel=11 note=59 velocity=0 time=0
EXTRACT: note_on channel=11 note=62 velocity=0 time=0
EXTRACT: note_on channel=14 note=75 velocity=119 time=0.0012254895833333332
EXTRACT: note_on channel=0 note=31 velocity=0 time=0.14215679166666664
EXTRACT: note_on channel=14 note=75 velocity=0 time=0
EXTRACT: note_on channel=11 note=55 velocity=100 time=0.0036764687499999996
EXTRACT: note_on channel=11 note=59 velocity=109 time=0
EXTRACT: note_on channel=11 note=62 velocity=112 time=0
EXTRACT: note_on channel=0 note=29 velocity=125 time=0.0012254895833333332
EXTRACT: note_on channel=9 note=36 velocity=120 time=0
EXTRACT: note_on channel=9 note=42 velocity=98 time=0
EXTRACT: note_on channel=9 note=54 velocity=70 time=0
EXTRACT: note_on channel=14 note=77 velocity=100 time=0
EXTRACT: note_on channel=9 note=36 velocity=0 time=0.049019583333333325
EXTRACT: note_on channel=9 note=42 velocity=0 time=0
EXTRACT: note_on channel=9 note=54 velocity=0 time=0
EXTRACT: note_on channel=11 note=55 velocity=0 time=0.09681367708333333
EXTRACT: note_on channel=11 note=59 velocity=0 time=0
EXTRACT: note_on channel=11 note=62 velocity=0 time=0
EXTRACT: note_on channel=14 note=77 velocity=0 time=0.0012254895833333332
EXTRACT: note_on channel=0 note=29 velocity=0 time=0.14215679166666664
EXTRACT: note_on channel=11 note=55 velocity=104 time=0.0036764687499999996
EXTRACT: note_on channel=11 note=59 velocity=107 time=0
EXTRACT: note_on channel=11 note=62 velocity=94 time=0
EXTRACT: note_on channel=0 note=39 velocity=112 time=0.0012254895833333332
EXTRACT: note_on channel=9 note=42 velocity=78 time=0
EXTRACT: note_on channel=9 note=40 velocity=127 time=0
EXTRACT: note_on channel=14 note=75 velocity=124 time=0
EXTRACT: note_on channel=9 note=42 velocity=0 time=0.049019583333333325
EXTRACT: note_on channel=9 note=40 velocity=0 time=0
EXTRACT: note_on channel=11 note=55 velocity=0 time=0.09681367708333333
EXTRACT: note_on channel=11 note=59 velocity=0 time=0
EXTRACT: note_on channel=11 note=62 velocity=0 time=0
EXTRACT: note_on channel=14 note=75 velocity=0 time=0.0012254895833333332
EXTRACT: note_on channel=0 note=39 velocity=0 time=0.14215679166666664
EXTRACT: note_on channel=11 note=55 velocity=88 time=0.0036764687499999996
EXTRACT: note_on channel=11 note=59 velocity=106 time=0
EXTRACT: note_on channel=11 note=62 velocity=94 time=0
EXTRACT: note_on channel=0 note=38 velocity=85 time=0.0012254895833333332
EXTRACT: note_on channel=9 note=36 velocity=100 time=0
EXTRACT: note_on channel=9 note=42 velocity=100 time=0
EXTRACT: note_on channel=9 note=54 velocity=69 time=0
EXTRACT: note_on channel=9 note=36 velocity=0 time=0.049019583333333325
EXTRACT: note_on channel=9 note=42 velocity=0 time=0
EXTRACT: note_on channel=9 note=54 velocity=0 time=0
EXTRACT: note_on channel=11 note=55 velocity=0 time=0.09681367708333333
EXTRACT: note_on channel=11 note=59 velocity=0 time=0
EXTRACT: note_on channel=11 note=62 velocity=0 time=0
EXTRACT: note_on channel=9 note=36 velocity=100 time=0.0012254895833333332
EXTRACT: note_on channel=9 note=36 velocity=0 time=0.049019583333333325
EXTRACT: note_on channel=0 note=38 velocity=0 time=0.09313720833333332
EXTRACT: note_on channel=11 note=55 velocity=96 time=0.0036764687499999996
EXTRACT: note_on channel=11 note=60 velocity=101 time=0
EXTRACT: note_on channel=11 note=63 velocity=91 time=0
EXTRACT: note_on channel=0 note=36 velocity=110 time=0.0012254895833333332
EXTRACT: note_on channel=1 note=60 velocity=121 time=0
EXTRACT: note_on channel=2 note=65 velocity=0 time=0
EXTRACT: note_on channel=2 note=59 velocity=0 time=0
EXTRACT: note_on channel=2 note=67 velocity=0 time=0
EXTRACT: note_on channel=2 note=62 velocity=0 time=0
EXTRACT: note_on channel=2 note=60 velocity=104 time=0
EXTRACT: note_on channel=2 note=63 velocity=102 time=0
EXTRACT: note_on channel=2 note=67 velocity=102 time=0
EXTRACT: control_change channel=3 control=11 value=100 time=0
EXTRACT: note_on channel=3 note=55 velocity=84 time=0
EXTRACT: note_on channel=3 note=60 velocity=96 time=0
EXTRACT: note_on channel=7 note=72 velocity=99 time=0
EXTRACT: note_on channel=9 note=49 velocity=100 time=0
EXTRACT: note_on channel=9 note=36 velocity=120 time=0
EXTRACT: note_on channel=14 note=72 velocity=123 time=0
EXTRACT: control_change channel=3 control=11 value=101 time=0.01960783333333333
EXTRACT: control_change channel=3 control=11 value=102 time=0.024509791666666662
EXTRACT: note_on channel=9 note=49 velocity=0 time=0.004901958333333333
EXTRACT: note_on channel=9 note=36 velocity=0 time=0
EXTRACT: control_change channel=3 control=11 value=103 time=0.014705874999999998
EXTRACT: control_change channel=3 control=11 value=104 time=0.024509791666666662
EXTRACT: control_change channel=3 control=11 value=105 time=0.01960783333333333
EXTRACT: control_change channel=3 control=11 value=106 time=0.024509791666666662
EXTRACT: note_on channel=11 note=55 velocity=0 time=0.013480385416666666
EXTRACT: note_on channel=11 note=60 velocity=0 time=0
EXTRACT: note_on channel=11 note=63 velocity=0 time=0
EXTRACT: control_change channel=3 control=11 value=107 time=0.006127447916666666
EXTRACT: control_change channel=3 control=11 value=108 time=0.024509791666666662
EXTRACT: control_change channel=3 control=11 value=109 time=0.01960783333333333
EXTRACT: control_change channel=3 control=11 value=110 time=0.01960783333333333
EXTRACT: control_change channel=3 control=11 value=111 time=0.024509791666666662
EXTRACT: control_change channel=3 control=11 value=112 time=0.01960783333333333
EXTRACT: control_change channel=3 control=11 value=113 time=0.024509791666666662
EXTRACT: note_on channel=11 note=55 velocity=100 time=0.008578427083333333
EXTRACT: note_on channel=11 note=60 velocity=106 time=0
EXTRACT: note_on channel=11 note=63 velocity=90 time=0
EXTRACT: note_on channel=1 note=60 velocity=0 time=0.0012254895833333332
EXTRACT: note_on channel=9 note=42 velocity=103 time=0
EXTRACT: note_on channel=9 note=54 velocity=75 time=0
EXTRACT: note_on channel=14 note=72 velocity=0 time=0
EXTRACT: control_change channel=3 control=11 value=114 time=0.009803916666666666
EXTRACT: control_change channel=3 control=11 value=115 time=0.024509791666666662
EXTRACT: note_on channel=9 note=42 velocity=0 time=0.014705874999999998
EXTRACT: note_on channel=9 note=54 velocity=0 time=0
EXTRACT: control_change channel=3 control=11 value=116 time=0.004901958333333333
EXTRACT: control_change channel=3 control=11 value=117 time=0.024509791666666662
EXTRACT: control_change channel=3 control=11 value=118 time=0.01960783333333333
EXTRACT: control_change channel=3 control=11 value=119 time=0.01960783333333333
EXTRACT: control_change channel=3 control=11 value=120 time=0.024509791666666662
EXTRACT: note_on channel=11 note=55 velocity=0 time=0.0036764687499999996
EXTRACT: note_on channel=11 note=60 velocity=0 time=0
EXTRACT: note_on channel=11 note=63 velocity=0 time=0
EXTRACT: control_change channel=3 control=11 value=121 time=0.015931364583333333
EXTRACT: control_change channel=3 control=11 value=122 time=0.024509791666666662
EXTRACT: control_change channel=3 control=11 value=123 time=0.01960783333333333
EXTRACT: control_change channel=3 control=11 value=124 time=0.024509791666666662
EXTRACT: control_change channel=3 control=11 value=125 time=0.01960783333333333
EXTRACT: control_change channel=3 control=11 value=126 time=0.024509791666666662
EXTRACT: note_on channel=11 note=55 velocity=96 time=0.01838234375
EXTRACT: note_on channel=11 note=60 velocity=97 time=0
EXTRACT: note_on channel=11 note=63 velocity=92 time=0
EXTRACT: control_change channel=3 control=11 value=127 time=0.0012254895833333332
EXTRACT: note_on channel=9 note=42 velocity=71 time=0
EXTRACT: note_on channel=9 note=40 velocity=127 time=0
EXTRACT: note_on channel=14 note=72 velocity=106 time=0
EXTRACT: note_on channel=9 note=42 velocity=0 time=0.049019583333333325
EXTRACT: note_on channel=9 note=40 velocity=0 time=0
EXTRACT: note_on channel=11 note=55 velocity=0 time=0.09681367708333333
EXTRACT: note_on channel=11 note=60 velocity=0 time=0
EXTRACT: note_on channel=11 note=63 velocity=0 time=0
EXTRACT: note_on channel=0 note=36 velocity=0 time=0.0012254895833333332
EXTRACT: note_on channel=11 note=55 velocity=107 time=0.14583326041666664
EXTRACT: note_on channel=11 note=60 velocity=107 time=0
EXTRACT: note_on channel=11 note=63 velocity=104 time=0
EXTRACT: note_on channel=0 note=36 velocity=109 time=0.0012254895833333332
EXTRACT: note_on channel=9 note=42 velocity=99 time=0
EXTRACT: note_on channel=9 note=36 velocity=120 time=0
EXTRACT: note_on channel=9 note=54 velocity=77 time=0
EXTRACT: note_on channel=14 note=72 velocity=0 time=0
EXTRACT: note_on channel=9 note=42 velocity=0 time=0.049019583333333325
EXTRACT: note_on channel=9 note=36 velocity=0 time=0
EXTRACT: note_on channel=9 note=54 velocity=0 time=0
EXTRACT: note_on channel=11 note=55 velocity=0 time=0.09681367708333333
EXTRACT: note_on channel=11 note=60 velocity=0 time=0
EXTRACT: note_on channel=11 note=63 velocity=0 time=0
EXTRACT: note_on channel=0 note=36 velocity=0 time=0.0012254895833333332
EXTRACT: note_on channel=11 note=58 velocity=87 time=0.14583326041666664
EXTRACT: note_on channel=11 note=62 velocity=88 time=0
EXTRACT: note_on channel=11 note=65 velocity=95 time=0
EXTRACT: note_on channel=0 note=38 velocity=122 time=0.0012254895833333332
EXTRACT: note_on channel=2 note=60 velocity=0 time=0
EXTRACT: note_on channel=2 note=63 velocity=0 time=0
EXTRACT: note_on channel=2 note=67 velocity=0 time=0
EXTRACT: note_on channel=2 note=58 velocity=103 time=0
EXTRACT: note_on channel=2 note=62 velocity=105 time=0
EXTRACT: note_on channel=2 note=65 velocity=121 time=0
EXTRACT: note_on channel=3 note=55 velocity=0 time=0
EXTRACT: note_on channel=3 note=60 velocity=0 time=0
EXTRACT: note_on channel=3 note=58 velocity=77 time=0
EXTRACT: note_on channel=3 note=62 velocity=81 time=0
EXTRACT: note_on channel=7 note=72 velocity=0 time=0
EXTRACT: note_on channel=7 note=74 velocity=97 time=0
EXTRACT: note_on channel=9 note=42 velocity=80 time=0
EXTRACT: note_on channel=9 note=36 velocity=120 time=0
EXTRACT: note_on channel=14 note=74 velocity=107 time=0
EXTRACT: note_on channel=9 note=42 velocity=0 time=0.049019583333333325
EXTRACT: note_on channel=9 note=36 velocity=0 time=0
EXTRACT: note_on channel=11 note=58 velocity=0 time=0.09681367708333333
EXTRACT: note_on channel=11 note=62 velocity=0 time=0
EXTRACT: note_on channel=11 note=65 velocity=0 time=0
EXTRACT: note_on channel=14 note=74 velocity=0 time=0.14338228125
EXTRACT: note_on channel=11 note=58 velocity=96 time=0.0036764687499999996
EXTRACT: note_on channel=11 note=62 velocity=89 time=0
EXTRACT: note_on channel=11 note=65 velocity=89 time=0
EXTRACT: note_on channel=9 note=42 velocity=98 time=0.0012254895833333332
EXTRACT: note_on channel=9 note=54 velocity=73 time=0
EXTRACT: note_on channel=14 note=74 velocity=96 time=0
EXTRACT: note_on channel=9 note=42 velocity=0 time=0.049019583333333325
EXTRACT: note_on channel=9 note=54 velocity=0 time=0
EXTRACT: note_on channel=14 note=74 velocity=0 time=0.09313720833333332
EXTRACT: note_on channel=11 note=58 velocity=0 time=0.0036764687499999996
EXTRACT: note_on channel=11 note=62 velocity=0 time=0
EXTRACT: note_on channel=11 note=65 velocity=0 time=0
EXTRACT: note_on channel=14 note=74 velocity=97 time=0.0012254895833333332
EXTRACT: note_on channel=11 note=58 velocity=106 time=0.14583326041666664
EXTRACT: note_on channel=11 note=62 velocity=89 time=0
EXTRACT: note_on channel=11 note=65 velocity=110 time=0
EXTRACT: note_on channel=0 note=38 velocity=0 time=0.0012254895833333332
EXTRACT: note_on channel=9 note=42 velocity=81 time=0
EXTRACT: note_on channel=9 note=40 velocity=127 time=0
EXTRACT: note_on channel=14 note=74 velocity=0 time=0
EXTRACT: note_on channel=9 note=42 velocity=0 time=0.049019583333333325
EXTRACT: note_on channel=9 note=40 velocity=0 time=0
EXTRACT: note_on channel=11 note=58 velocity=0 time=0.09681367708333333
EXTRACT: note_on channel=11 note=62 velocity=0 time=0
EXTRACT: note_on channel=11 note=65 velocity=0 time=0
EXTRACT: note_on channel=11 note=58 velocity=107 time=0.14705875
EXTRACT: note_on channel=11 note=62 velocity=96 time=0
EXTRACT: note_on channel=11 note=65 velocity=106 time=0
EXTRACT: note_on channel=9 note=42 velocity=104 time=0.0012254895833333332
EXTRACT: note_on channel=9 note=54 velocity=71 time=0
EXTRACT: note_on channel=14 note=74 velocity=127 time=0
EXTRACT: note_on channel=9 note=42 velocity=0 time=0.049019583333333325
EXTRACT: note_on channel=9 note=54 velocity=0 time=0
EXTRACT: note_on channel=11 note=58 velocity=0 time=0.09681367708333333
EXTRACT: note_on channel=11 note=62 velocity=0 time=0
EXTRACT: note_on channel=11 note=65 velocity=0 time=0
EXTRACT: note_on channel=14 note=74 velocity=0 time=0.0012254895833333332
EXTRACT: note_on channel=11 note=56 velocity=99 time=0.14583326041666664
EXTRACT: note_on channel=11 note=60 velocity=110 time=0
EXTRACT: note_on channel=11 note=63 velocity=102 time=0
EXTRACT: note_on channel=0 note=44 velocity=111 time=0.0012254895833333332
EXTRACT: note_on channel=2 note=58 velocity=0 time=0
EXTRACT: note_on channel=2 note=62 velocity=0 time=0
EXTRACT: note_on channel=2 note=65 velocity=0 time=0
EXTRACT: note_on channel=2 note=60 velocity=106 time=0
EXTRACT: note_on channel=2 note=63 velocity=118 time=0
EXTRACT: note_on channel=2 note=68 velocity=105 time=0
EXTRACT: note_on channel=3 note=58 velocity=0 time=0
EXTRACT: note_on channel=3 note=62 velocity=0 time=0
EXTRACT: note_on channel=3 note=63 velocity=91 time=0
EXTRACT: note_on channel=3 note=56 velocity=81 time=0
EXTRACT: note_on channel=7 note=74 velocity=0 time=0
EXTRACT: note_on channel=7 note=75 velocity=91 time=0
EXTRACT: note_on channel=9 note=42 velocity=71 time=0
EXTRACT: note_on channel=9 note=36 velocity=120 time=0
EXTRACT: note_on channel=14 note=75 velocity=119 time=0
EXTRACT: note_on channel=9 note=42 velocity=0 time=0.049019583333333325
EXTRACT: note_on channel=9 note=36 velocity=0 time=0
EXTRACT: note_on channel=11 note=56 velocity=0 time=0.09681367708333333
EXTRACT: note_on channel=11 note=60 velocity=0 time=0
EXTRACT: note_on channel=11 note=63 velocity=0 time=0
EXTRACT: note_on channel=11 note=56 velocity=98 time=0.14705875
EXTRACT: note_on channel=11 note=60 velocity=102 time=0
EXTRACT: note_on channel=11 note=63 velocity=90 time=0
EXTRACT: note_on channel=9 note=42 velocity=95 time=0.0012254895833333332
EXTRACT: note_on channel=9 note=54 velocity=73 time=0
EXTRACT: note_on channel=14 note=75 velocity=0 time=0
EXTRACT: note_on channel=9 note=42 velocity=0 time=0.049019583333333325
EXTRACT: note_on channel=9 note=54 velocity=0 time=0
EXTRACT: note_on channel=11 note=56 velocity=0 time=0.09681367708333333
EXTRACT: note_on channel=11 note=60 velocity=0 time=0
EXTRACT: note_on channel=11 note=63 velocity=0 time=0
EXTRACT: note_on channel=11 note=56 velocity=98 time=0.14705875
EXTRACT: note_on channel=11 note=60 velocity=93 time=0
EXTRACT: note_on channel=11 note=63 velocity=104 time=0
EXTRACT: note_on channel=0 note=44 velocity=0 time=0.0012254895833333332
EXTRACT: note_on channel=9 note=42 velocity=78 time=0
EXTRACT: note_on channel=9 note=40 velocity=127 time=0
EXTRACT: note_on channel=14 note=75 velocity=96 time=0
EXTRACT: note_on channel=9 note=42 velocity=0 time=0.049019583333333325
EXTRACT: note_on channel=9 note=40 velocity=0 time=0
EXTRACT: note_on channel=11 note=56 velocity=0 time=0.09681367708333333
EXTRACT: note_on channel=11 note=60 velocity=0 time=0
EXTRACT: note_on channel=11 note=63 velocity=0 time=0
EXTRACT: note_on channel=11 note=56 velocity=111 time=0.14705875
EXTRACT: note_on channel=11 note=60 velocity=110 time=0
EXTRACT: note_on channel=11 note=63 velocity=100 time=0
EXTRACT: note_on channel=0 note=44 velocity=127 time=0.0012254895833333332
EXTRACT: note_on channel=9 note=42 velocity=97 time=0
EXTRACT: note_on channel=9 note=36 velocity=120 time=0
EXTRACT: note_on channel=9 note=54 velocity=75 time=0
EXTRACT: note_on channel=14 note=75 velocity=0 time=0
EXTRACT: note_on channel=0 note=44 velocity=0 time=0.01960783333333333
EXTRACT: note_on channel=9 note=42 velocity=0 time=0.029411749999999997
EXTRACT: note_on channel=9 note=36 velocity=0 time=0
EXTRACT: note_on channel=9 note=54 velocity=0 time=0
EXTRACT: note_on channel=11 note=56 velocity=0 time=0.09681367708333333
EXTRACT: note_on channel=11 note=60 velocity=0 time=0
EXTRACT: note_on channel=11 note=63 velocity=0 time=0
EXTRACT: note_on channel=0 note=44 velocity=117 time=0.0012254895833333332
EXTRACT: note_on channel=9 note=36 velocity=80 time=0
EXTRACT: note_on channel=0 note=44 velocity=0 time=0.03431370833333333
EXTRACT: note_on channel=9 note=36 velocity=0 time=0.014705874999999998
EXTRACT: note_on channel=11 note=56 velocity=98 time=0.09681367708333333
EXTRACT: note_on channel=11 note=60 velocity=96 time=0
EXTRACT: note_on channel=11 note=63 velocity=87 time=0
EXTRACT: note_on channel=0 note=44 velocity=113 time=0.0012254895833333332
EXTRACT: note_on channel=7 note=75 velocity=0 time=0
EXTRACT: note_on channel=7 note=75 velocity=101 time=0
EXTRACT: note_on channel=9 note=42 velocity=80 time=0
EXTRACT: note_on channel=9 note=36 velocity=120 time=0
EXTRACT: note_on channel=14 note=75 velocity=110 time=0
EXTRACT: note_on channel=9 note=42 velocity=0 time=0.049019583333333325
EXTRACT: note_on channel=9 note=36 velocity=0 time=0
EXTRACT: note_on channel=11 note=56 velocity=0 time=0.09681367708333333
EXTRACT: note_on channel=11 note=60 velocity=0 time=0
EXTRACT: note_on channel=11 note=63 velocity=0 time=0
EXTRACT: note_on channel=14 note=75 velocity=0 time=0.0012254895833333332
EXTRACT: note_on channel=11 note=56 velocity=100 time=0.14583326041666664
EXTRACT: note_on channel=11 note=60 velocity=109 time=0
EXTRACT: note_on channel=11 note=63 velocity=112 time=0
EXTRACT: note_on channel=0 note=44 velocity=0 time=0.0012254895833333332
EXTRACT: note_on channel=7 note=75 velocity=0 time=0
EXTRACT: note_on channel=7 note=77 velocity=89 time=0
EXTRACT: note_on channel=9 note=42 velocity=97 time=0
EXTRACT: note_on channel=9 note=54 velocity=81 time=0
EXTRACT: note_on channel=14 note=77 velocity=96 time=0
EXTRACT: note_on channel=9 note=42 velocity=0 time=0.049019583333333325
EXTRACT: note_on channel=9 note=54 velocity=0 time=0
EXTRACT: note_on channel=14 note=77 velocity=0 time=0.09313720833333332
EXTRACT: note_on channel=11 note=56 velocity=0 time=0.0036764687499999996
EXTRACT: note_on channel=11 note=60 velocity=0 time=0
EXTRACT: note_on channel=11 note=63 velocity=0 time=0
EXTRACT: note_on channel=7 note=77 velocity=0 time=0.0012254895833333332
EXTRACT: note_on channel=7 note=75 velocity=83 time=0
EXTRACT: note_on channel=14 note=75 velocity=112 time=0
EXTRACT: note_on channel=11 note=55 velocity=104 time=0.14583326041666664
EXTRACT: note_on channel=11 note=60 velocity=107 time=0
EXTRACT: note_on channel=11 note=63 velocity=94 time=0
EXTRACT: note_on channel=0 note=39 velocity=106 time=0.0012254895833333332
EXTRACT: note_on channel=2 note=60 velocity=0 time=0
EXTRACT: note_on channel=2 note=63 velocity=0 time=0
EXTRACT: note_on channel=2 note=68 velocity=0 time=0
EXTRACT: note_on channel=2 note=58 velocity=100 time=0
EXTRACT: note_on channel=2 note=67 velocity=102 time=0
EXTRACT: note_on channel=2 note=63 velocity=103 time=0
EXTRACT: note_on channel=3 note=63 velocity=0 time=0
EXTRACT: note_on channel=3 note=56 velocity=0 time=0
EXTRACT: note_on channel=3 note=55 velocity=88 time=0
EXTRACT: note_on channel=3 note=63 velocity=88 time=0
EXTRACT: note_on channel=9 note=42 velocity=80 time=0
EXTRACT: note_on channel=9 note=40 velocity=127 time=0
EXTRACT: note_on channel=14 note=75 velocity=0 time=0
EXTRACT: note_on channel=9 note=42 velocity=0 time=0.049019583333333325
EXTRACT: note_on channel=9 note=40 velocity=0 time=0
EXTRACT: note_on channel=11 note=55 velocity=0 time=0.09681367708333333
EXTRACT: note_on channel=11 note=60 velocity=0 time=0
EXTRACT: note_on channel=11 note=63 velocity=0 time=0
EXTRACT: note_on channel=11 note=55 velocity=88 time=0.14705875
EXTRACT: note_on channel=11 note=60 velocity=106 time=0
EXTRACT: note_on channel=11 note=63 velocity=94 time=0
EXTRACT: note_on channel=0 note=39 velocity=0 time=0.0012254895833333332
EXTRACT: note_on channel=7 note=75 velocity=0 time=0
EXTRACT: note_on channel=7 note=74 velocity=91 time=0
EXTRACT: note_on channel=9 note=42 velocity=102 time=0
EXTRACT: note_on channel=9 note=54 velocity=74 time=0
EXTRACT: note_on channel=14 note=74 velocity=120 time=0
EXTRACT: note_on channel=9 note=42 velocity=0 time=0.049019583333333325
EXTRACT: note_on channel=9 note=54 velocity=0 time=0
EXTRACT: note_on channel=11 note=55 velocity=0 time=0.09681367708333333
EXTRACT: note_on channel=11 note=60 velocity=0 time=0
EXTRACT: note_on channel=11 note=63 velocity=0 time=0
EXTRACT: note_on channel=14 note=74 velocity=0 time=0.0012254895833333332
EXTRACT: note_on channel=11 note=56 velocity=87 time=0.14583326041666664
EXTRACT: note_on channel=11 note=60 velocity=107 time=0
EXTRACT: note_on channel=11 note=63 velocity=105 time=0
EXTRACT: note_on channel=0 note=41 velocity=119 time=0.0012254895833333332
EXTRACT: note_on channel=2 note=58 velocity=0 time=0
EXTRACT: note_on channel=2 note=67 velocity=0 time=0
EXTRACT: note_on channel=2 note=63 velocity=0 time=0
EXTRACT: note_on channel=2 note=65 velocity=106 time=0
EXTRACT: note_on channel=2 note=68 velocity=122 time=0
EXTRACT: note_on channel=2 note=60 velocity=123 time=0
EXTRACT: note_on channel=2 note=63 velocity=104 time=0
EXTRACT: note_on channel=3 note=55 velocity=0 time=0
EXTRACT: note_on channel=3 note=63 velocity=0 time=0
EXTRACT: note_on channel=3 note=60 velocity=94 time=0
EXTRACT: note_on channel=3 note=56 velocity=90 time=0
EXTRACT: note_on channel=7 note=74 velocity=0 time=0
EXTRACT: note_on channel=7 note=72 velocity=82 time=0
EXTRACT: note_on channel=9 note=42 velocity=66 time=0
EXTRACT: note_on channel=9 note=36 velocity=120 time=0
EXTRACT: note_on channel=14 note=72 velocity=96 time=0
EXTRACT: note_on channel=9 note=42 velocity=0 time=0.049019583333333325
EXTRACT: note_on channel=9 note=36 velocity=0 time=0
EXTRACT: note_on channel=11 note=56 velocity=0 time=0.09681367708333333
EXTRACT: note_on channel=11 note=60 velocity=0 time=0
EXTRACT: note_on channel=11 note=63 velocity=0 time=0
EXTRACT: note_on channel=11 note=56 velocity=102 time=0.14705875
EXTRACT: note_on channel=11 note=60 velocity=95 time=0
EXTRACT: note_on channel=11 note=63 velocity=91 time=0
EXTRACT: note_on channel=9 note=42 velocity=96 time=0.0012254895833333332
EXTRACT: note_on channel=9 note=54 velocity=79 time=0
EXTRACT: note_on channel=9 note=42 velocity=0 time=0.049019583333333325
EXTRACT: note_on channel=9 note=54 velocity=0 time=0
EXTRACT: note_on channel=11 note=56 velocity=0 time=0.09681367708333333
EXTRACT: note_on channel=11 note=60 velocity=0 time=0
EXTRACT: note_on channel=11 note=63 velocity=0 time=0
EXTRACT: note_on channel=11 note=56 velocity=104 time=0.14705875
EXTRACT: note_on channel=11 note=60 velocity=101 time=0
EXTRACT: note_on channel=11 note=63 velocity=91 time=0
EXTRACT: note_on channel=9 note=42 velocity=73 time=0.0012254895833333332
EXTRACT: note_on channel=9 note=40 velocity=127 time=0
EXTRACT: note_on channel=9 note=42 velocity=0 time=0.049019583333333325
EXTRACT: note_on channel=9 note=40 velocity=0 time=0
EXTRACT: note_on channel=11 note=56 velocity=0 time=0.09681367708333333
EXTRACT: note_on channel=11 note=60 velocity=0 time=0
EXTRACT: note_on channel=11 note=63 velocity=0 time=0
EXTRACT: note_on channel=0 note=41 velocity=0 time=0.0012254895833333332
EXTRACT: note_on channel=14 note=72 velocity=0 time=0
EXTRACT: note_on channel=11 note=56 velocity=109 time=0.14583326041666664
EXTRACT: note_on channel=11 note=60 velocity=105 time=0
EXTRACT: note_on channel=11 note=63 velocity=111 time=0
EXTRACT: note_on channel=0 note=36 velocity=127 time=0.0012254895833333332
EXTRACT: note_on channel=9 note=42 velocity=102 time=0
EXTRACT: note_on channel=9 note=36 velocity=120 time=0
EXTRACT: note_on channel=9 note=54 velocity=85 time=0
EXTRACT: note_on channel=14 note=79 velocity=108 time=0
EXTRACT: note_on channel=9 note=42 velocity=0 time=0.049019583333333325
EXTRACT: note_on channel=9 note=36 velocity=0 time=0
EXTRACT: note_on channel=9 note=54 velocity=0 time=0
EXTRACT: note_on channel=11 note=56 velocity=0 time=0.09681367708333333
EXTRACT: note_on channel=11 note=60 velocity=0 time=0
EXTRACT: note_on channel=11 note=63 velocity=0 time=0
EXTRACT: note_on channel=0 note=36 velocity=0 time=0.0012254895833333332
EXTRACT: note_on channel=14 note=79 velocity=0 time=0.14215679166666664
EXTRACT: note_on channel=11 note=56 velocity=100 time=0.0036764687499999996
EXTRACT: note_on channel=11 note=60 velocity=109 time=0
EXTRACT: note_on channel=11 note=63 velocity=106 time=0
EXTRACT: note_on channel=0 note=29 velocity=115 time=0.0012254895833333332
EXTRACT: note_on channel=7 note=72 velocity=0 time=0
EXTRACT: note_on channel=9 note=42 velocity=77 time=0
EXTRACT: note_on channel=9 note=36 velocity=120 time=0
EXTRACT: note_on channel=14 note=77 velocity=122 time=0
EXTRACT: note_on channel=9 note=42 velocity=0 time=0.049019583333333325
EXTRACT: note_on channel=9 note=36 velocity=0 time=0
EXTRACT: note_on channel=14 note=77 velocity=0 time=0.09313720833333332
EXTRACT: note_on channel=11 note=56 velocity=0 time=0.0036764687499999996
EXTRACT: note_on channel=11 note=60 velocity=0 time=0
EXTRACT: note_on channel=11 note=63 velocity=0 time=0
EXTRACT: note_on channel=14 note=74 velocity=121 time=0.0012254895833333332
EXTRACT: note_on channel=14 note=74 velocity=0 time=0.14215679166666664
EXTRACT: note_on channel=11 note=56 velocity=108 time=0.0036764687499999996
EXTRACT: note_on channel=11 note=60 velocity=103 time=0
EXTRACT: note_on channel=11 note=63 velocity=97 time=0
EXTRACT: note_on channel=9 note=42 velocity=101 time=0.0012254895833333332
EXTRACT: note_on channel=9 note=54 velocity=85 time=0
EXTRACT: note_on channel=14 note=72 velocity=114 time=0
EXTRACT: note_on channel=9 note=42 velocity=0 time=0.049019583333333325
EXTRACT: note_on channel=9 note=54 velocity=0 time=0
EXTRACT: note_on channel=11 note=56 velocity=0 time=0.09681367708333333
EXTRACT: note_on channel=11 note=60 velocity=0 time=0
EXTRACT: note_on channel=11 note=63 velocity=0 time=0
EXTRACT: note_on channel=11 note=56 velocity=104 time=0.14705875
EXTRACT: note_on channel=11 note=60 velocity=98 time=0
EXTRACT: note_on channel=11 note=63 velocity=102 time=0
EXTRACT: note_on channel=0 note=29 velocity=0 time=0.0012254895833333332
EXTRACT: note_on channel=9 note=42 velocity=79 time=0
EXTRACT: note_on channel=9 note=40 velocity=127 time=0
EXTRACT: note_on channel=14 note=72 velocity=0 time=0
EXTRACT: note_on channel=9 note=42 velocity=0 time=0.049019583333333325
EXTRACT: note_on channel=9 note=40 velocity=0 time=0
EXTRACT: note_on channel=11 note=56 velocity=0 time=0.09681367708333333
EXTRACT: note_on channel=11 note=60 velocity=0 time=0
EXTRACT: note_on channel=11 note=63 velocity=0 time=0
EXTRACT: note_on channel=11 note=56 velocity=92 time=0.14705875
EXTRACT: note_on channel=11 note=60 velocity=110 time=0
EXTRACT: note_on channel=11 note=63 velocity=111 time=0
EXTRACT: note_on channel=9 note=36 velocity=100 time=0.0012254895833333332
EXTRACT: note_on channel=9 note=42 velocity=101 time=0
EXTRACT: note_on channel=9 note=54 velocity=65 time=0
EXTRACT: note_on channel=14 note=75 velocity=110 time=0
EXTRACT: note_on channel=9 note=36 velocity=0 time=0.049019583333333325
EXTRACT: note_on channel=9 note=42 velocity=0 time=0
EXTRACT: note_on channel=9 note=54 velocity=0 time=0
EXTRACT: note_on channel=14 note=75 velocity=0 time=0.09313720833333332
EXTRACT: note_on channel=11 note=56 velocity=0 time=0.0036764687499999996
EXTRACT: note_on channel=11 note=60 velocity=0 time=0
EXTRACT: note_on channel=11 note=63 velocity=0 time=0
EXTRACT: note_on channel=14 note=77 velocity=103 time=0.0012254895833333332
EXTRACT: note_on channel=14 note=77 velocity=0 time=0.14215679166666664
EXTRACT: note_on channel=2 note=65 velocity=0 time=0.004901958333333333
EXTRACT: note_on channel=2 note=68 velocity=0 time=0
EXTRACT: note_on channel=2 note=60 velocity=0 time=0
EXTRACT: note_on channel=2 note=63 velocity=0 time=0
EXTRACT: note_on channel=3 note=60 velocity=0 time=0
EXTRACT: note_on channel=3 note=56 velocity=0 time=0
EXTRACT: note_on channel=9 note=52 velocity=127 time=0
EXTRACT: note_on channel=9 note=36 velocity=120 time=0
EXTRACT: note_on channel=14 note=79 velocity=98 time=0
EXTRACT: note_on channel=15 note=67 velocity=56 time=0
EXTRACT: note_on channel=15 note=79 velocity=64 time=0
EXTRACT: control_change channel=15 control=11 value=60 time=0
EXTRACT: note_on channel=15 note=91 velocity=80 time=0
EXTRACT: control_change channel=15 control=11 value=61 time=0.004901958333333333
EXTRACT: control_change channel=15 control=11 value=62 time=0.004901958333333333
EXTRACT: control_change channel=15 control=11 value=63 time=0.004901958333333333
EXTRACT: control_change channel=15 control=11 value=64 time=0.004901958333333333
EXTRACT: control_change channel=15 control=11 value=66 time=0.004901958333333333
EXTRACT: control_change channel=15 control=11 value=67 time=0.004901958333333333
EXTRACT: control_change channel=15 control=11 value=68 time=0.004901958333333333
EXTRACT: control_change channel=15 control=11 value=69 time=0.004901958333333333
EXTRACT: control_change channel=15 control=11 value=70 time=0.004901958333333333
EXTRACT: note_on channel=9 note=52 velocity=0 time=0.004901958333333333
EXTRACT: note_on channel=9 note=36 velocity=0 time=0
EXTRACT: control_change channel=15 control=11 value=71 time=0
EXTRACT: control_change channel=15 control=11 value=72 time=0.004901958333333333
EXTRACT: control_change channel=15 control=11 value=73 time=0.004901958333333333
EXTRACT: control_change channel=15 control=11 value=75 time=0.004901958333333333
EXTRACT: control_change channel=15 control=11 value=76 time=0.004901958333333333
EXTRACT: control_change channel=15 control=11 value=77 time=0.004901958333333333
EXTRACT: control_change channel=15 control=11 value=78 time=0.004901958333333333
EXTRACT: control_change channel=15 control=11 value=79 time=0.004901958333333333
EXTRACT: control_change channel=15 control=11 value=80 time=0.004901958333333333
EXTRACT: control_change channel=15 control=11 value=81 time=0.004901958333333333
EXTRACT: control_change channel=15 control=11 value=82 time=0.004901958333333333
EXTRACT: control_change channel=15 control=11 value=83 time=0.004901958333333333
EXTRACT: control_change channel=15 control=11 value=85 time=0.004901958333333333
EXTRACT: control_change channel=15 control=11 value=86 time=0.004901958333333333
EXTRACT: control_change channel=15 control=11 value=87 time=0.004901958333333333
EXTRACT: control_change channel=15 control=11 value=88 time=0.004901958333333333
EXTRACT: control_change channel=15 control=11 value=89 time=0.004901958333333333
EXTRACT: control_change channel=15 control=11 value=90 time=0.004901958333333333
EXTRACT: control_change channel=15 control=11 value=91 time=0.004901958333333333
EXTRACT: control_change channel=15 control=11 value=92 time=0.004901958333333333
EXTRACT: note_on channel=14 note=79 velocity=0 time=0.004901958333333333
EXTRACT: control_change channel=15 control=11 value=94 time=0
EXTRACT: control_change channel=15 control=11 value=95 time=0.004901958333333333
EXTRACT: control_change channel=15 control=11 value=96 time=0.004901958333333333
EXTRACT: control_change channel=15 control=11 value=97 time=0.004901958333333333
EXTRACT: control_change channel=15 control=11 value=98 time=0.004901958333333333
EXTRACT: control_change channel=15 control=11 value=99 time=0.004901958333333333
EXTRACT: control_change channel=15 control=11 value=100 time=0.004901958333333333
EXTRACT: control_change channel=15 control=11 value=101 time=0.004901958333333333
EXTRACT: control_change channel=15 control=11 value=102 time=0.004901958333333333
EXTRACT: control_change channel=15 control=11 value=104 time=0.004901958333333333
EXTRACT: control_change channel=15 control=11 value=105 time=0.004901958333333333
EXTRACT: control_change channel=15 control=11 value=106 time=0.004901958333333333
EXTRACT: control_change channel=15 control=11 value=107 time=0.004901958333333333
EXTRACT: control_change channel=15 control=11 value=108 time=0.004901958333333333
EXTRACT: control_change channel=15 control=11 value=109 time=0.004901958333333333
EXTRACT: control_change channel=15 control=11 value=110 time=0.004901958333333333
EXTRACT: control_change channel=15 control=11 value=111 time=0.004901958333333333
EXTRACT: control_change channel=15 control=11 value=112 time=0.004901958333333333
EXTRACT: control_change channel=15 control=11 value=114 time=0.004901958333333333
EXTRACT: control_change channel=15 control=11 value=115 time=0.004901958333333333
EXTRACT: control_change channel=15 control=11 value=116 time=0.004901958333333333
EXTRACT: control_change channel=15 control=11 value=117 time=0.004901958333333333
EXTRACT: control_change channel=15 control=11 value=118 time=0.004901958333333333
EXTRACT: control_change channel=15 control=11 value=119 time=0.004901958333333333
EXTRACT: control_change channel=15 control=11 value=120 time=0.004901958333333333
EXTRACT: control_change channel=15 control=11 value=121 time=0.004901958333333333
EXTRACT: control_change channel=15 control=11 value=123 time=0.004901958333333333
EXTRACT: control_change channel=15 control=11 value=124 time=0.004901958333333333
EXTRACT: control_change channel=15 control=11 value=125 time=0.004901958333333333
EXTRACT: control_change channel=15 control=11 value=126 time=0.004901958333333333
EXTRACT: note_on channel=14 note=80 velocity=110 time=0.004901958333333333
EXTRACT: pitchwheel channel=15 pitch=0 time=0
EXTRACT: control_change channel=15 control=11 value=127 time=0
EXTRACT: pitchwheel channel=15 pitch=11 time=0.004901958333333333
EXTRACT: pitchwheel channel=15 pitch=23 time=0.004901958333333333
EXTRACT: pitchwheel channel=15 pitch=34 time=0.004901958333333333
EXTRACT: pitchwheel channel=15 pitch=46 time=0.004901958333333333
EXTRACT: pitchwheel channel=15 pitch=57 time=0.004901958333333333
EXTRACT: pitchwheel channel=15 pitch=68 time=0.004901958333333333
EXTRACT: pitchwheel channel=15 pitch=80 time=0.004901958333333333
EXTRACT: pitchwheel channel=15 pitch=91 time=0.004901958333333333
EXTRACT: pitchwheel channel=15 pitch=102 time=0.004901958333333333
EXTRACT: pitchwheel channel=15 pitch=114 time=0.004901958333333333
EXTRACT: pitchwheel channel=15 pitch=125 time=0.004901958333333333
EXTRACT: pitchwheel channel=15 pitch=137 time=0.004901958333333333
EXTRACT: pitchwheel channel=15 pitch=148 time=0.004901958333333333
EXTRACT: pitchwheel channel=15 pitch=159 time=0.004901958333333333
EXTRACT: pitchwheel channel=15 pitch=171 time=0.004901958333333333
EXTRACT: pitchwheel channel=15 pitch=182 time=0.004901958333333333
EXTRACT: pitchwheel channel=15 pitch=193 time=0.004901958333333333
EXTRACT: pitchwheel channel=15 pitch=205 time=0.004901958333333333
EXTRACT: pitchwheel channel=15 pitch=216 time=0.004901958333333333
EXTRACT: pitchwheel channel=15 pitch=228 time=0.004901958333333333
EXTRACT: pitchwheel channel=15 pitch=239 time=0.004901958333333333
EXTRACT: pitchwheel channel=15 pitch=250 time=0.004901958333333333
EXTRACT: pitchwheel channel=15 pitch=262 time=0.004901958333333333
EXTRACT: pitchwheel channel=15 pitch=273 time=0.004901958333333333
EXTRACT: pitchwheel channel=15 pitch=284 time=0.004901958333333333
EXTRACT: pitchwheel channel=15 pitch=296 time=0.004901958333333333
EXTRACT: pitchwheel channel=15 pitch=307 time=0.004901958333333333
EXTRACT: pitchwheel channel=15 pitch=319 time=0.004901958333333333
EXTRACT: pitchwheel channel=15 pitch=330 time=0.004901958333333333
EXTRACT: note_on channel=14 note=80 velocity=0 time=0.004901958333333333
EXTRACT: pitchwheel channel=15 pitch=341 time=0
EXTRACT: pitchwheel channel=15 pitch=353 time=0.004901958333333333
EXTRACT: pitchwheel channel=15 pitch=364 time=0.004901958333333333
EXTRACT: pitchwheel channel=15 pitch=375 time=0.004901958333333333
EXTRACT: pitchwheel channel=15 pitch=387 time=0.004901958333333333
EXTRACT: pitchwheel channel=15 pitch=398 time=0.004901958333333333
EXTRACT: pitchwheel channel=15 pitch=410 time=0.004901958333333333
EXTRACT: pitchwheel channel=15 pitch=421 time=0.004901958333333333
EXTRACT: pitchwheel channel=15 pitch=432 time=0.004901958333333333
EXTRACT: pitchwheel channel=15 pitch=444 time=0.004901958333333333
EXTRACT: pitchwheel channel=15 pitch=455 time=0.004901958333333333
EXTRACT: pitchwheel channel=15 pitch=467 time=0.004901958333333333
EXTRACT: pitchwheel channel=15 pitch=478 time=0.004901958333333333
EXTRACT: pitchwheel channel=15 pitch=489 time=0.004901958333333333
EXTRACT: pitchwheel channel=15 pitch=501 time=0.004901958333333333
EXTRACT: pitchwheel channel=15 pitch=512 time=0.004901958333333333
EXTRACT: pitchwheel channel=15 pitch=523 time=0.004901958333333333
EXTRACT: pitchwheel channel=15 pitch=535 time=0.004901958333333333
EXTRACT: pitchwheel channel=15 pitch=546 time=0.004901958333333333
EXTRACT: pitchwheel channel=15 pitch=558 time=0.004901958333333333
EXTRACT: pitchwheel channel=15 pitch=569 time=0.004901958333333333
EXTRACT: pitchwheel channel=15 pitch=580 time=0.004901958333333333
EXTRACT: pitchwheel channel=15 pitch=592 time=0.004901958333333333
EXTRACT: pitchwheel channel=15 pitch=603 time=0.004901958333333333
EXTRACT: pitchwheel channel=15 pitch=614 time=0.004901958333333333
EXTRACT: pitchwheel channel=15 pitch=626 time=0.004901958333333333
EXTRACT: pitchwheel channel=15 pitch=637 time=0.004901958333333333
EXTRACT: pitchwheel channel=15 pitch=649 time=0.004901958333333333
EXTRACT: pitchwheel channel=15 pitch=660 time=0.004901958333333333
EXTRACT: pitchwheel channel=15 pitch=671 time=0.004901958333333333
EXTRACT: note_on channel=14 note=79 velocity=113 time=0.004901958333333333
EXTRACT: pitchwheel channel=15 pitch=683 time=0
EXTRACT: pitchwheel channel=15 pitch=694 time=0.004901958333333333
EXTRACT: pitchwheel channel=15 pitch=705 time=0.004901958333333333
EXTRACT: pitchwheel channel=15 pitch=717 time=0.004901958333333333
EXTRACT: pitchwheel channel=15 pitch=728 time=0.004901958333333333
EXTRACT: pitchwheel channel=15 pitch=740 time=0.004901958333333333
EXTRACT: pitchwheel channel=15 pitch=751 time=0.004901958333333333
EXTRACT: pitchwheel channel=15 pitch=762 time=0.004901958333333333
EXTRACT: pitchwheel channel=15 pitch=774 time=0.004901958333333333
EXTRACT: pitchwheel channel=15 pitch=785 time=0.004901958333333333
EXTRACT: pitchwheel channel=15 pitch=797 time=0.004901958333333333
EXTRACT: pitchwheel channel=15 pitch=808 time=0.004901958333333333
EXTRACT: pitchwheel channel=15 pitch=819 time=0.004901958333333333
EXTRACT: pitchwheel channel=15 pitch=831 time=0.004901958333333333
EXTRACT: pitchwheel channel=15 pitch=842 time=0.004901958333333333
EXTRACT: pitchwheel channel=15 pitch=853 time=0.004901958333333333
EXTRACT: pitchwheel channel=15 pitch=865 time=0.004901958333333333
EXTRACT: pitchwheel channel=15 pitch=876 time=0.004901958333333333
EXTRACT: pitchwheel channel=15 pitch=888 time=0.004901958333333333
EXTRACT: pitchwheel channel=15 pitch=899 time=0.004901958333333333
EXTRACT: pitchwheel channel=15 pitch=910 time=0.004901958333333333
EXTRACT: pitchwheel channel=15 pitch=922 time=0.004901958333333333
EXTRACT: pitchwheel channel=15 pitch=933 time=0.004901958333333333
EXTRACT: pitchwheel channel=15 pitch=944 time=0.004901958333333333
EXTRACT: pitchwheel channel=15 pitch=956 time=0.004901958333333333
EXTRACT: pitchwheel channel=15 pitch=967 time=0.004901958333333333
EXTRACT: pitchwheel channel=15 pitch=979 time=0.004901958333333333
EXTRACT: pitchwheel channel=15 pitch=990 time=0.004901958333333333
EXTRACT: pitchwheel channel=15 pitch=1001 time=0.004901958333333333
EXTRACT: pitchwheel channel=15 pitch=1013 time=0.004901958333333333
EXTRACT: note_on channel=14 note=79 velocity=0 time=0.004901958333333333
EXTRACT: pitchwheel channel=15 pitch=1024 time=0
EXTRACT: pitchwheel channel=15 pitch=1035 time=0.004901958333333333
EXTRACT: pitchwheel channel=15 pitch=1047 time=0.004901958333333333
EXTRACT: pitchwheel channel=15 pitch=1058 time=0.004901958333333333
EXTRACT: pitchwheel channel=15 pitch=1070 time=0.004901958333333333
EXTRACT: pitchwheel channel=15 pitch=1081 time=0.004901958333333333
EXTRACT: pitchwheel channel=15 pitch=1092 time=0.004901958333333333
EXTRACT: pitchwheel channel=15 pitch=1104 time=0.004901958333333333
EXTRACT: pitchwheel channel=15 pitch=1115 time=0.004901958333333333
EXTRACT: pitchwheel channel=15 pitch=1126 time=0.004901958333333333
EXTRACT: pitchwheel channel=15 pitch=1138 time=0.004901958333333333
EXTRACT: pitchwheel channel=15 pitch=1149 time=0.004901958333333333
EXTRACT: pitchwheel channel=15 pitch=1161 time=0.004901958333333333
EXTRACT: pitchwheel channel=15 pitch=1172 time=0.004901958333333333
EXTRACT: pitchwheel channel=15 pitch=1183 time=0.004901958333333333
EXTRACT: pitchwheel channel=15 pitch=1195 time=0.004901958333333333
EXTRACT: pitchwheel channel=15 pitch=1206 time=0.004901958333333333
EXTRACT: pitchwheel channel=15 pitch=1218 time=0.004901958333333333
EXTRACT: pitchwheel channel=15 pitch=1229 time=0.004901958333333333
EXTRACT: pitchwheel channel=15 pitch=1240 time=0.004901958333333333
EXTRACT: pitchwheel channel=15 pitch=1252 time=0.004901958333333333
EXTRACT: pitchwheel channel=15 pitch=1263 time=0.004901958333333333
EXTRACT: pitchwheel channel=15 pitch=1274 time=0.004901958333333333
EXTRACT: pitchwheel channel=15 pitch=1286 time=0.004901958333333333
EXTRACT: pitchwheel channel=15 pitch=1297 time=0.004901958333333333
EXTRACT: pitchwheel channel=15 pitch=1309 time=0.004901958333333333
EXTRACT: pitchwheel channel=15 pitch=1320 time=0.004901958333333333
EXTRACT: pitchwheel channel=15 pitch=1331 time=0.004901958333333333
EXTRACT: pitchwheel channel=15 pitch=1343 time=0.004901958333333333
EXTRACT: pitchwheel channel=15 pitch=1354 time=0.004901958333333333
EXTRACT: note_on channel=14 note=80 velocity=100 time=0.004901958333333333
EXTRACT: pitchwheel channel=15 pitch=1365 time=0
EXTRACT: pitchwheel channel=15 pitch=1377 time=0.004901958333333333
EXTRACT: pitchwheel channel=15 pitch=1388 time=0.004901958333333333
EXTRACT: pitchwheel channel=15 pitch=1400 time=0.004901958333333333
EXTRACT: pitchwheel channel=15 pitch=1411 time=0.004901958333333333
EXTRACT: pitchwheel channel=15 pitch=1422 time=0.004901958333333333
EXTRACT: pitchwheel channel=15 pitch=1434 time=0.004901958333333333
EXTRACT: pitchwheel channel=15 pitch=1445 time=0.004901958333333333
EXTRACT: pitchwheel channel=15 pitch=1456 time=0.004901958333333333
EXTRACT: pitchwheel channel=15 pitch=1468 time=0.004901958333333333
EXTRACT: pitchwheel channel=15 pitch=1479 time=0.004901958333333333
EXTRACT: pitchwheel channel=15 pitch=1491 time=0.004901958333333333
EXTRACT: pitchwheel channel=15 pitch=1502 time=0.004901958333333333
EXTRACT: pitchwheel channel=15 pitch=1513 time=0.004901958333333333
EXTRACT: pitchwheel channel=15 pitch=1525 time=0.004901958333333333
EXTRACT: pitchwheel channel=15 pitch=1536 time=0.004901958333333333
EXTRACT: pitchwheel channel=15 pitch=1547 time=0.004901958333333333
EXTRACT: pitchwheel channel=15 pitch=1559 time=0.004901958333333333
EXTRACT: pitchwheel channel=15 pitch=1570 time=0.004901958333333333
EXTRACT: pitchwheel channel=15 pitch=1582 time=0.004901958333333333
EXTRACT: pitchwheel channel=15 pitch=1593 time=0.004901958333333333
EXTRACT: pitchwheel channel=15 pitch=1604 time=0.004901958333333333
EXTRACT: pitchwheel channel=15 pitch=1616 time=0.004901958333333333
EXTRACT: pitchwheel channel=15 pitch=1627 time=0.004901958333333333
EXTRACT: pitchwheel channel=15 pitch=1639 time=0.004901958333333333
EXTRACT: pitchwheel channel=15 pitch=1650 time=0.004901958333333333
EXTRACT: pitchwheel channel=15 pitch=1661 time=0.004901958333333333
EXTRACT: pitchwheel channel=15 pitch=1673 time=0.004901958333333333
EXTRACT: pitchwheel channel=15 pitch=1684 time=0.004901958333333333
EXTRACT: pitchwheel channel=15 pitch=1695 time=0.004901958333333333
EXTRACT: note_on channel=14 note=80 velocity=0 time=0.004901958333333333
EXTRACT: pitchwheel channel=15 pitch=1707 time=0
EXTRACT: pitchwheel channel=15 pitch=1718 time=0.004901958333333333
EXTRACT: pitchwheel channel=15 pitch=1730 time=0.004901958333333333
EXTRACT: pitchwheel channel=15 pitch=1741 time=0.004901958333333333
EXTRACT: pitchwheel channel=15 pitch=1752 time=0.004901958333333333
EXTRACT: pitchwheel channel=15 pitch=1764 time=0.004901958333333333
EXTRACT: pitchwheel channel=15 pitch=1775 time=0.004901958333333333
EXTRACT: pitchwheel channel=15 pitch=1786 time=0.004901958333333333
EXTRACT: pitchwheel channel=15 pitch=1798 time=0.004901958333333333
EXTRACT: pitchwheel channel=15 pitch=1809 time=0.004901958333333333
EXTRACT: pitchwheel channel=15 pitch=1821 time=0.004901958333333333
EXTRACT: pitchwheel channel=15 pitch=1832 time=0.004901958333333333
EXTRACT: pitchwheel channel=15 pitch=1843 time=0.004901958333333333
EXTRACT: pitchwheel channel=15 pitch=1855 time=0.004901958333333333
EXTRACT: pitchwheel channel=15 pitch=1866 time=0.004901958333333333
EXTRACT: pitchwheel channel=15 pitch=1877 time=0.004901958333333333
EXTRACT: pitchwheel channel=15 pitch=1889 time=0.004901958333333333
EXTRACT: pitchwheel channel=15 pitch=1900 time=0.004901958333333333
EXTRACT: pitchwheel channel=15 pitch=1912 time=0.004901958333333333
EXTRACT: pitchwheel channel=15 pitch=1923 time=0.004901958333333333
EXTRACT: pitchwheel channel=15 pitch=1934 time=0.004901958333333333
EXTRACT: pitchwheel channel=15 pitch=1946 time=0.004901958333333333
EXTRACT: pitchwheel channel=15 pitch=1957 time=0.004901958333333333
EXTRACT: pitchwheel channel=15 pitch=1968 time=0.004901958333333333
EXTRACT: pitchwheel channel=15 pitch=1980 time=0.004901958333333333
EXTRACT: pitchwheel channel=15 pitch=1991 time=0.004901958333333333
EXTRACT: pitchwheel channel=15 pitch=2003 time=0.004901958333333333
EXTRACT: pitchwheel channel=15 pitch=2014 time=0.004901958333333333
EXTRACT: pitchwheel channel=15 pitch=2025 time=0.004901958333333333
EXTRACT: pitchwheel channel=15 pitch=2037 time=0.004901958333333333
EXTRACT: note_on channel=14 note=79 velocity=117 time=0.004901958333333333
EXTRACT: pitchwheel channel=15 pitch=2048 time=0
EXTRACT: pitchwheel channel=15 pitch=2060 time=0.004901958333333333
EXTRACT: pitchwheel channel=15 pitch=2071 time=0.004901958333333333
EXTRACT: pitchwheel channel=15 pitch=2082 time=0.004901958333333333
EXTRACT: pitchwheel channel=15 pitch=2094 time=0.004901958333333333
EXTRACT: pitchwheel channel=15 pitch=2105 time=0.004901958333333333
EXTRACT: pitchwheel channel=15 pitch=2116 time=0.004901958333333333
EXTRACT: pitchwheel channel=15 pitch=2128 time=0.004901958333333333
EXTRACT: pitchwheel channel=15 pitch=2139 time=0.004901958333333333
EXTRACT: pitchwheel channel=15 pitch=2151 time=0.004901958333333333
EXTRACT: pitchwheel channel=15 pitch=2162 time=0.004901958333333333
EXTRACT: pitchwheel channel=15 pitch=2173 time=0.004901958333333333
EXTRACT: pitchwheel channel=15 pitch=2185 time=0.004901958333333333
EXTRACT: pitchwheel channel=15 pitch=2196 time=0.004901958333333333
EXTRACT: pitchwheel channel=15 pitch=2207 time=0.004901958333333333
EXTRACT: pitchwheel channel=15 pitch=2219 time=0.004901958333333333
EXTRACT: pitchwheel channel=15 pitch=2230 time=0.004901958333333333
EXTRACT: pitchwheel channel=15 pitch=2242 time=0.004901958333333333
EXTRACT: pitchwheel channel=15 pitch=2253 time=0.004901958333333333
EXTRACT: pitchwheel channel=15 pitch=2264 time=0.004901958333333333
EXTRACT: pitchwheel channel=15 pitch=2276 time=0.004901958333333333
EXTRACT: pitchwheel channel=15 pitch=2287 time=0.004901958333333333
EXTRACT: pitchwheel channel=15 pitch=2298 time=0.004901958333333333
EXTRACT: pitchwheel channel=15 pitch=2310 time=0.004901958333333333
EXTRACT: pitchwheel channel=15 pitch=2321 time=0.004901958333333333
EXTRACT: pitchwheel channel=15 pitch=2333 time=0.004901958333333333
EXTRACT: pitchwheel channel=15 pitch=2344 time=0.004901958333333333
EXTRACT: pitchwheel channel=15 pitch=2355 time=0.004901958333333333
EXTRACT: pitchwheel channel=15 pitch=2367 time=0.004901958333333333
EXTRACT: pitchwheel channel=15 pitch=2378 time=0.004901958333333333
EXTRACT: note_on channel=14 note=79 velocity=0 time=0.004901958333333333
EXTRACT: note_on channel=15 note=67 velocity=0 time=0
EXTRACT: note_on channel=15 note=79 velocity=0 time=0
EXTRACT: note_on channel=15 note=91 velocity=0 time=0
EXTRACT: pitchwheel channel=15 pitch=2390 time=0
EXTRACT: pitchwheel channel=15 pitch=2401 time=0.004901958333333333
EXTRACT: pitchwheel channel=15 pitch=2412 time=0.004901958333333333
EXTRACT: pitchwheel channel=15 pitch=2424 time=0.004901958333333333
EXTRACT: pitchwheel channel=15 pitch=2435 time=0.004901958333333333
EXTRACT: pitchwheel channel=15 pitch=2446 time=0.004901958333333333
EXTRACT: pitchwheel channel=15 pitch=2458 time=0.004901958333333333
EXTRACT: pitchwheel channel=15 pitch=2469 time=0.004901958333333333
EXTRACT: pitchwheel channel=15 pitch=2481 time=0.004901958333333333
EXTRACT: pitchwheel channel=15 pitch=2492 time=0.004901958333333333
EXTRACT: pitchwheel channel=15 pitch=2503 time=0.004901958333333333
EXTRACT: pitchwheel channel=15 pitch=2515 time=0.004901958333333333
EXTRACT: pitchwheel channel=15 pitch=2526 time=0.004901958333333333
EXTRACT: pitchwheel channel=15 pitch=2537 time=0.004901958333333333
EXTRACT: pitchwheel channel=15 pitch=2549 time=0.004901958333333333
EXTRACT: pitchwheel channel=15 pitch=2560 time=0.004901958333333333
EXTRACT: pitchwheel channel=15 pitch=2572 time=0.004901958333333333
EXTRACT: pitchwheel channel=15 pitch=2583 time=0.004901958333333333
EXTRACT: pitchwheel channel=15 pitch=2594 time=0.004901958333333333
EXTRACT: pitchwheel channel=15 pitch=2606 time=0.004901958333333333
EXTRACT: pitchwheel channel=15 pitch=2617 time=0.004901958333333333
EXTRACT: pitchwheel channel=15 pitch=2628 time=0.004901958333333333
EXTRACT: pitchwheel channel=15 pitch=2640 time=0.004901958333333333
EXTRACT: pitchwheel channel=15 pitch=2651 time=0.004901958333333333
EXTRACT: pitchwheel channel=15 pitch=2663 time=0.004901958333333333
EXTRACT: pitchwheel channel=15 pitch=2674 time=0.004901958333333333
EXTRACT: pitchwheel channel=15 pitch=2685 time=0.004901958333333333
EXTRACT: pitchwheel channel=15 pitch=2697 time=0.004901958333333333
EXTRACT: pitchwheel channel=15 pitch=2708 time=0.004901958333333333
EXTRACT: pitchwheel channel=15 pitch=2719 time=0.004901958333333333
EXTRACT: note_on channel=9 note=36 velocity=120 time=0.004901958333333333
EXTRACT: note_on channel=14 note=80 velocity=114 time=0
EXTRACT: pitchwheel channel=15 pitch=2731 time=0
EXTRACT: pitchwheel channel=15 pitch=2742 time=0.004901958333333333
EXTRACT: pitchwheel channel=15 pitch=2754 time=0.004901958333333333
EXTRACT: pitchwheel channel=15 pitch=2765 time=0.004901958333333333
EXTRACT: pitchwheel channel=15 pitch=2776 time=0.004901958333333333
EXTRACT: pitchwheel channel=15 pitch=2788 time=0.004901958333333333
EXTRACT: pitchwheel channel=15 pitch=2799 time=0.004901958333333333
EXTRACT: pitchwheel channel=15 pitch=2811 time=0.004901958333333333
EXTRACT: pitchwheel channel=15 pitch=2822 time=0.004901958333333333
EXTRACT: pitchwheel channel=15 pitch=2833 time=0.004901958333333333
EXTRACT: note_on channel=9 note=36 velocity=0 time=0.004901958333333333
EXTRACT: pitchwheel channel=15 pitch=2845 time=0
EXTRACT: pitchwheel channel=15 pitch=2856 time=0.004901958333333333
EXTRACT: pitchwheel channel=15 pitch=2867 time=0.004901958333333333
EXTRACT: pitchwheel channel=15 pitch=2879 time=0.004901958333333333
EXTRACT: pitchwheel channel=15 pitch=2890 time=0.004901958333333333
EXTRACT: pitchwheel channel=15 pitch=2902 time=0.004901958333333333
EXTRACT: pitchwheel channel=15 pitch=2913 time=0.004901958333333333
EXTRACT: pitchwheel channel=15 pitch=2924 time=0.004901958333333333
EXTRACT: pitchwheel channel=15 pitch=2936 time=0.004901958333333333
EXTRACT: pitchwheel channel=15 pitch=2947 time=0.004901958333333333
EXTRACT: pitchwheel channel=15 pitch=2958 time=0.004901958333333333
EXTRACT: pitchwheel channel=15 pitch=2970 time=0.004901958333333333
EXTRACT: pitchwheel channel=15 pitch=2981 time=0.004901958333333333
EXTRACT: pitchwheel channel=15 pitch=2993 time=0.004901958333333333
EXTRACT: pitchwheel channel=15 pitch=3004 time=0.004901958333333333
EXTRACT: pitchwheel channel=15 pitch=3015 time=0.004901958333333333
EXTRACT: pitchwheel channel=15 pitch=3027 time=0.004901958333333333
EXTRACT: pitchwheel channel=15 pitch=3038 time=0.004901958333333333
EXTRACT: pitchwheel channel=15 pitch=3049 time=0.004901958333333333
EXTRACT: pitchwheel channel=15 pitch=3061 time=0.004901958333333333
EXTRACT: note_on channel=14 note=80 velocity=0 time=0.004901958333333333
EXTRACT: pitchwheel channel=15 pitch=3072 time=0
EXTRACT: pitchwheel channel=15 pitch=3084 time=0.004901958333333333
EXTRACT: pitchwheel channel=15 pitch=3095 time=0.004901958333333333
EXTRACT: pitchwheel channel=15 pitch=3106 time=0.004901958333333333
EXTRACT: pitchwheel channel=15 pitch=3118 time=0.004901958333333333
EXTRACT: pitchwheel channel=15 pitch=3129 time=0.004901958333333333
EXTRACT: pitchwheel channel=15 pitch=3140 time=0.004901958333333333
EXTRACT: pitchwheel channel=15 pitch=3152 time=0.004901958333333333
EXTRACT: pitchwheel channel=15 pitch=3163 time=0.004901958333333333
EXTRACT: pitchwheel channel=15 pitch=3175 time=0.004901958333333333
EXTRACT: pitchwheel channel=15 pitch=3186 time=0.004901958333333333
EXTRACT: pitchwheel channel=15 pitch=3197 time=0.004901958333333333
EXTRACT: pitchwheel channel=15 pitch=3209 time=0.004901958333333333
EXTRACT: pitchwheel channel=15 pitch=3220 time=0.004901958333333333
EXTRACT: pitchwheel channel=15 pitch=3232 time=0.004901958333333333
EXTRACT: pitchwheel channel=15 pitch=3243 time=0.004901958333333333
EXTRACT: pitchwheel channel=15 pitch=3254 time=0.004901958333333333
EXTRACT: pitchwheel channel=15 pitch=3266 time=0.004901958333333333
EXTRACT: pitchwheel channel=15 pitch=3277 time=0.004901958333333333
EXTRACT: pitchwheel channel=15 pitch=3288 time=0.004901958333333333
EXTRACT: pitchwheel channel=15 pitch=3300 time=0.004901958333333333
EXTRACT: pitchwheel channel=15 pitch=3311 time=0.004901958333333333
EXTRACT: pitchwheel channel=15 pitch=3323 time=0.004901958333333333
EXTRACT: pitchwheel channel=15 pitch=3334 time=0.004901958333333333
EXTRACT: pitchwheel channel=15 pitch=3345 time=0.004901958333333333
EXTRACT: pitchwheel channel=15 pitch=3357 time=0.004901958333333333
EXTRACT: pitchwheel channel=15 pitch=3368 time=0.004901958333333333
EXTRACT: pitchwheel channel=15 pitch=3379 time=0.004901958333333333
EXTRACT: pitchwheel channel=15 pitch=3391 time=0.004901958333333333
EXTRACT: pitchwheel channel=15 pitch=3402 time=0.004901958333333333
EXTRACT: note_on channel=0 note=43 velocity=113 time=0.004901958333333333
EXTRACT: note_on channel=9 note=40 velocity=127 time=0
EXTRACT: note_on channel=14 note=72 velocity=119 time=0
EXTRACT: note_on channel=14 note=79 velocity=96 time=0
EXTRACT: pitchwheel channel=15 pitch=3414 time=0
EXTRACT: pitchwheel channel=15 pitch=3425 time=0.004901958333333333
EXTRACT: pitchwheel channel=15 pitch=3436 time=0.004901958333333333
EXTRACT: pitchwheel channel=15 pitch=3448 time=0.004901958333333333
EXTRACT: pitchwheel channel=15 pitch=3459 time=0.004901958333333333
EXTRACT: pitchwheel channel=15 pitch=3470 time=0.004901958333333333
EXTRACT: pitchwheel channel=15 pitch=3482 time=0.004901958333333333
EXTRACT: pitchwheel channel=15 pitch=3493 time=0.004901958333333333
EXTRACT: pitchwheel channel=15 pitch=3505 time=0.004901958333333333
EXTRACT: pitchwheel channel=15 pitch=3516 time=0.004901958333333333
EXTRACT: note_on channel=9 note=40 velocity=0 time=0.004901958333333333
EXTRACT: pitchwheel channel=15 pitch=3527 time=0
EXTRACT: pitchwheel channel=15 pitch=3539 time=0.004901958333333333
EXTRACT: pitchwheel channel=15 pitch=3550 time=0.004901958333333333
EXTRACT: pitchwheel channel=15 pitch=3561 time=0.004901958333333333
EXTRACT: pitchwheel channel=15 pitch=3573 time=0.004901958333333333
EXTRACT: pitchwheel channel=15 pitch=3584 time=0.004901958333333333
EXTRACT: pitchwheel channel=15 pitch=3596 time=0.004901958333333333
EXTRACT: pitchwheel channel=15 pitch=3607 time=0.004901958333333333
EXTRACT: pitchwheel channel=15 pitch=3618 time=0.004901958333333333
EXTRACT: pitchwheel channel=15 pitch=3630 time=0.004901958333333333
EXTRACT: pitchwheel channel=15 pitch=3641 time=0.004901958333333333
EXTRACT: pitchwheel channel=15 pitch=3653 time=0.004901958333333333
EXTRACT: pitchwheel channel=15 pitch=3664 time=0.004901958333333333
EXTRACT: pitchwheel channel=15 pitch=3675 time=0.004901958333333333
EXTRACT: pitchwheel channel=15 pitch=3687 time=0.004901958333333333
EXTRACT: pitchwheel channel=15 pitch=3698 time=0.004901958333333333
EXTRACT: pitchwheel channel=15 pitch=3709 time=0.004901958333333333
EXTRACT: pitchwheel channel=15 pitch=3721 time=0.004901958333333333
EXTRACT: pitchwheel channel=15 pitch=3732 time=0.004901958333333333
EXTRACT: pitchwheel channel=15 pitch=3744 time=0.004901958333333333
EXTRACT: note_on channel=14 note=72 velocity=0 time=0.004901958333333333
EXTRACT: note_on channel=14 note=79 velocity=0 time=0
EXTRACT: pitchwheel channel=15 pitch=3755 time=0
EXTRACT: pitchwheel channel=15 pitch=3766 time=0.004901958333333333
EXTRACT: pitchwheel channel=15 pitch=3778 time=0.004901958333333333
EXTRACT: pitchwheel channel=15 pitch=3789 time=0.004901958333333333
EXTRACT: pitchwheel channel=15 pitch=3800 time=0.004901958333333333
EXTRACT: pitchwheel channel=15 pitch=3812 time=0.004901958333333333
EXTRACT: pitchwheel channel=15 pitch=3823 time=0.004901958333333333
EXTRACT: pitchwheel channel=15 pitch=3835 time=0.004901958333333333
EXTRACT: pitchwheel channel=15 pitch=3846 time=0.004901958333333333
EXTRACT: pitchwheel channel=15 pitch=3857 time=0.004901958333333333
EXTRACT: pitchwheel channel=15 pitch=3869 time=0.004901958333333333
EXTRACT: pitchwheel channel=15 pitch=3880 time=0.004901958333333333
EXTRACT: pitchwheel channel=15 pitch=3891 time=0.004901958333333333
EXTRACT: pitchwheel channel=15 pitch=3903 time=0.004901958333333333
EXTRACT: pitchwheel channel=15 pitch=3914 time=0.004901958333333333
EXTRACT: pitchwheel channel=15 pitch=3926 time=0.004901958333333333
EXTRACT: pitchwheel channel=15 pitch=3937 time=0.004901958333333333
EXTRACT: pitchwheel channel=15 pitch=3948 time=0.004901958333333333
EXTRACT: pitchwheel channel=15 pitch=3960 time=0.004901958333333333
EXTRACT: pitchwheel channel=15 pitch=3971 time=0.004901958333333333
EXTRACT: pitchwheel channel=15 pitch=3983 time=0.004901958333333333
EXTRACT: pitchwheel channel=15 pitch=3994 time=0.004901958333333333
EXTRACT: pitchwheel channel=15 pitch=4005 time=0.004901958333333333
EXTRACT: pitchwheel channel=15 pitch=4017 time=0.004901958333333333
EXTRACT: pitchwheel channel=15 pitch=4028 time=0.004901958333333333
EXTRACT: pitchwheel channel=15 pitch=4039 time=0.004901958333333333
EXTRACT: pitchwheel channel=15 pitch=4051 time=0.004901958333333333
EXTRACT: pitchwheel channel=15 pitch=4062 time=0.004901958333333333
EXTRACT: pitchwheel channel=15 pitch=4074 time=0.004901958333333333
EXTRACT: pitchwheel channel=15 pitch=4085 time=0.004901958333333333
EXTRACT: pitchwheel channel=0 pitch=0 time=0.004901958333333333
EXTRACT: note_on channel=14 note=75 velocity=126 time=0
EXTRACT: pitchwheel channel=15 pitch=4096 time=0
EXTRACT: pitchwheel channel=0 pitch=-81 time=0.004901958333333333
EXTRACT: pitchwheel channel=15 pitch=4108 time=0
EXTRACT: pitchwheel channel=0 pitch=-162 time=0.004901958333333333
EXTRACT: pitchwheel channel=15 pitch=4119 time=0
EXTRACT: pitchwheel channel=0 pitch=-243 time=0.004901958333333333
EXTRACT: pitchwheel channel=15 pitch=4130 time=0
EXTRACT: pitchwheel channel=0 pitch=-324 time=0.004901958333333333
EXTRACT: pitchwheel channel=15 pitch=4142 time=0
EXTRACT: pitchwheel channel=0 pitch=-405 time=0.004901958333333333
EXTRACT: pitchwheel channel=15 pitch=4153 time=0
EXTRACT: pitchwheel channel=0 pitch=-486 time=0.004901958333333333
EXTRACT: pitchwheel channel=15 pitch=4165 time=0
EXTRACT: pitchwheel channel=0 pitch=-567 time=0.004901958333333333
EXTRACT: pitchwheel channel=15 pitch=4176 time=0
EXTRACT: pitchwheel channel=0 pitch=-648 time=0.004901958333333333
EXTRACT: pitchwheel channel=15 pitch=4187 time=0
EXTRACT: pitchwheel channel=0 pitch=-729 time=0.004901958333333333
EXTRACT: pitchwheel channel=15 pitch=4199 time=0
EXTRACT: pitchwheel channel=0 pitch=-810 time=0.004901958333333333
EXTRACT: pitchwheel channel=15 pitch=4210 time=0
EXTRACT: pitchwheel channel=0 pitch=-891 time=0.004901958333333333
EXTRACT: pitchwheel channel=15 pitch=4221 time=0
EXTRACT: pitchwheel channel=0 pitch=-972 time=0.004901958333333333
EXTRACT: pitchwheel channel=15 pitch=4233 time=0
EXTRACT: pitchwheel channel=0 pitch=-1053 time=0.004901958333333333
EXTRACT: pitchwheel channel=15 pitch=4244 time=0
EXTRACT: pitchwheel channel=0 pitch=-1134 time=0.004901958333333333
EXTRACT: pitchwheel channel=15 pitch=4256 time=0
EXTRACT: pitchwheel channel=0 pitch=-1215 time=0.004901958333333333
EXTRACT: pitchwheel channel=15 pitch=4267 time=0
EXTRACT: pitchwheel channel=0 pitch=-1296 time=0.004901958333333333
EXTRACT: pitchwheel channel=15 pitch=4278 time=0
EXTRACT: pitchwheel channel=0 pitch=-1377 time=0.004901958333333333
EXTRACT: pitchwheel channel=15 pitch=4290 time=0
EXTRACT: pitchwheel channel=0 pitch=-1458 time=0.004901958333333333
EXTRACT: pitchwheel channel=15 pitch=4301 time=0
EXTRACT: pitchwheel channel=0 pitch=-1539 time=0.004901958333333333
EXTRACT: pitchwheel channel=15 pitch=4312 time=0
EXTRACT: pitchwheel channel=0 pitch=-1620 time=0.004901958333333333
EXTRACT: pitchwheel channel=15 pitch=4324 time=0
EXTRACT: pitchwheel channel=0 pitch=-1701 time=0.004901958333333333
EXTRACT: pitchwheel channel=15 pitch=4335 time=0
EXTRACT: pitchwheel channel=0 pitch=-1782 time=0.004901958333333333
EXTRACT: pitchwheel channel=15 pitch=4347 time=0
EXTRACT: pitchwheel channel=0 pitch=-1863 time=0.004901958333333333
EXTRACT: pitchwheel channel=15 pitch=4358 time=0
EXTRACT: pitchwheel channel=0 pitch=-1944 time=0.004901958333333333
EXTRACT: pitchwheel channel=15 pitch=4369 time=0
EXTRACT: pitchwheel channel=0 pitch=-2025 time=0.004901958333333333
EXTRACT: pitchwheel channel=15 pitch=4381 time=0
EXTRACT: pitchwheel channel=0 pitch=-2106 time=0.004901958333333333
EXTRACT: pitchwheel channel=15 pitch=4392 time=0
EXTRACT: pitchwheel channel=0 pitch=-2187 time=0.004901958333333333
EXTRACT: pitchwheel channel=15 pitch=4404 time=0
EXTRACT: pitchwheel channel=0 pitch=-2268 time=0.004901958333333333
EXTRACT: pitchwheel channel=15 pitch=4415 time=0
EXTRACT: pitchwheel channel=0 pitch=-2349 time=0.004901958333333333
EXTRACT: pitchwheel channel=15 pitch=4426 time=0
EXTRACT: pitchwheel channel=0 pitch=-2430 time=0.004901958333333333
EXTRACT: note_on channel=14 note=75 velocity=0 time=0
EXTRACT: pitchwheel channel=15 pitch=4438 time=0
EXTRACT: pitchwheel channel=0 pitch=-2511 time=0.004901958333333333
EXTRACT: pitchwheel channel=15 pitch=4449 time=0
EXTRACT: pitchwheel channel=0 pitch=-2592 time=0.004901958333333333
EXTRACT: pitchwheel channel=15 pitch=4460 time=0
EXTRACT: pitchwheel channel=0 pitch=-2673 time=0.004901958333333333
EXTRACT: pitchwheel channel=15 pitch=4472 time=0
EXTRACT: pitchwheel channel=0 pitch=-2754 time=0.004901958333333333
EXTRACT: pitchwheel channel=15 pitch=4483 time=0
EXTRACT: pitchwheel channel=0 pitch=-2835 time=0.004901958333333333
EXTRACT: pitchwheel channel=15 pitch=4495 time=0
EXTRACT: pitchwheel channel=0 pitch=-2916 time=0.004901958333333333
EXTRACT: pitchwheel channel=15 pitch=4506 time=0
EXTRACT: pitchwheel channel=0 pitch=-2997 time=0.004901958333333333
EXTRACT: pitchwheel channel=15 pitch=4517 time=0
EXTRACT: pitchwheel channel=0 pitch=-3078 time=0.004901958333333333
EXTRACT: pitchwheel channel=15 pitch=4529 time=0
EXTRACT: pitchwheel channel=0 pitch=-3159 time=0.004901958333333333
EXTRACT: pitchwheel channel=15 pitch=4540 time=0
EXTRACT: pitchwheel channel=0 pitch=-3240 time=0.004901958333333333
EXTRACT: pitchwheel channel=15 pitch=4551 time=0
EXTRACT: pitchwheel channel=0 pitch=-3321 time=0.004901958333333333
EXTRACT: pitchwheel channel=15 pitch=4563 time=0
EXTRACT: pitchwheel channel=0 pitch=-3402 time=0.004901958333333333
EXTRACT: pitchwheel channel=15 pitch=4574 time=0
EXTRACT: pitchwheel channel=0 pitch=-3483 time=0.004901958333333333
EXTRACT: pitchwheel channel=15 pitch=4586 time=0
EXTRACT: pitchwheel channel=0 pitch=-3564 time=0.004901958333333333
EXTRACT: pitchwheel channel=15 pitch=4597 time=0
EXTRACT: pitchwheel channel=0 pitch=-3645 time=0.004901958333333333
EXTRACT: pitchwheel channel=15 pitch=4608 time=0
EXTRACT: pitchwheel channel=0 pitch=-3726 time=0.004901958333333333
EXTRACT: pitchwheel channel=15 pitch=4620 time=0
EXTRACT: pitchwheel channel=0 pitch=-3807 time=0.004901958333333333
EXTRACT: pitchwheel channel=15 pitch=4631 time=0
EXTRACT: pitchwheel channel=0 pitch=-3888 time=0.004901958333333333
EXTRACT: pitchwheel channel=15 pitch=4642 time=0
EXTRACT: pitchwheel channel=0 pitch=-3969 time=0.004901958333333333
EXTRACT: pitchwheel channel=15 pitch=4654 time=0
EXTRACT: pitchwheel channel=0 pitch=-4050 time=0.004901958333333333
EXTRACT: pitchwheel channel=15 pitch=4665 time=0
EXTRACT: pitchwheel channel=0 pitch=-4131 time=0.004901958333333333
EXTRACT: pitchwheel channel=15 pitch=4677 time=0
EXTRACT: pitchwheel channel=0 pitch=-4212 time=0.004901958333333333
EXTRACT: pitchwheel channel=15 pitch=4688 time=0
EXTRACT: pitchwheel channel=0 pitch=-4293 time=0.004901958333333333
EXTRACT: pitchwheel channel=15 pitch=4699 time=0
EXTRACT: pitchwheel channel=0 pitch=-4374 time=0.004901958333333333
EXTRACT: pitchwheel channel=15 pitch=4711 time=0
EXTRACT: pitchwheel channel=0 pitch=-4455 time=0.004901958333333333
EXTRACT: pitchwheel channel=15 pitch=4722 time=0
EXTRACT: pitchwheel channel=0 pitch=-4536 time=0.004901958333333333
EXTRACT: pitchwheel channel=15 pitch=4733 time=0
EXTRACT: pitchwheel channel=0 pitch=-4617 time=0.004901958333333333
EXTRACT: pitchwheel channel=15 pitch=4745 time=0
EXTRACT: pitchwheel channel=0 pitch=-4698 time=0.004901958333333333
EXTRACT: pitchwheel channel=15 pitch=4756 time=0
EXTRACT: pitchwheel channel=0 pitch=-4779 time=0.004901958333333333
EXTRACT: pitchwheel channel=15 pitch=4768 time=0
EXTRACT: note_on channel=11 note=55 velocity=105 time=0.0036764687499999996
EXTRACT: note_on channel=11 note=60 velocity=106 time=0
EXTRACT: note_on channel=11 note=63 velocity=107 time=0
EXTRACT: note_on channel=0 note=43 velocity=0 time=0.0012254895833333332
EXTRACT: pitchwheel channel=0 pitch=0 time=0
EXTRACT: note_on channel=0 note=36 velocity=104 time=0
EXTRACT: note_on channel=1 note=60 velocity=117 time=0
EXTRACT: note_on channel=2 note=60 velocity=122 time=0
EXTRACT: note_on channel=2 note=63 velocity=126 time=0
EXTRACT: note_on channel=2 note=67 velocity=113 time=0
EXTRACT: note_on channel=3 note=60 velocity=80 time=0
EXTRACT: note_on channel=3 note=63 velocity=87 time=0
EXTRACT: note_on channel=3 note=55 velocity=92 time=0
EXTRACT: note_on channel=9 note=49 velocity=100 time=0
EXTRACT: note_on channel=9 note=36 velocity=120 time=0
EXTRACT: note_on channel=14 note=79 velocity=123 time=0
EXTRACT: pitchwheel channel=15 pitch=4779 time=0
EXTRACT: note_on channel=9 note=49 velocity=0 time=0.049019583333333325
EXTRACT: note_on channel=9 note=36 velocity=0 time=0
EXTRACT: note_on channel=11 note=55 velocity=0 time=0.09681367708333333
EXTRACT: note_on channel=11 note=60 velocity=0 time=0
EXTRACT: note_on channel=11 note=63 velocity=0 time=0
EXTRACT: note_on channel=0 note=36 velocity=0 time=0.0012254895833333332
EXTRACT: note_on channel=11 note=55 velocity=91 time=0.14583326041666664
EXTRACT: note_on channel=11 note=60 velocity=111 time=0
EXTRACT: note_on channel=11 note=63 velocity=93 time=0
EXTRACT: note_on channel=0 note=36 velocity=127 time=0.0012254895833333332
EXTRACT: note_on channel=1 note=60 velocity=0 time=0
EXTRACT: note_on channel=9 note=42 velocity=96 time=0
EXTRACT: note_on channel=9 note=36 velocity=120 time=0
EXTRACT: note_on channel=9 note=54 velocity=77 time=0
EXTRACT: note_on channel=9 note=42 velocity=0 time=0.049019583333333325
EXTRACT: note_on channel=9 note=36 velocity=0 time=0
EXTRACT: note_on channel=9 note=54 velocity=0 time=0
EXTRACT: note_on channel=11 note=55 velocity=0 time=0.09681367708333333
EXTRACT: note_on channel=11 note=60 velocity=0 time=0
EXTRACT: note_on channel=11 note=63 velocity=0 time=0
EXTRACT: note_on channel=0 note=36 velocity=0 time=0.0012254895833333332
EXTRACT: note_on channel=11 note=55 velocity=92 time=0.14583326041666664
EXTRACT: note_on channel=11 note=60 velocity=100 time=0
EXTRACT: note_on channel=11 note=63 velocity=101 time=0
EXTRACT: note_on channel=9 note=42 velocity=79 time=0.0012254895833333332
EXTRACT: note_on channel=9 note=40 velocity=127 time=0
EXTRACT: note_on channel=14 note=79 velocity=0 time=0
EXTRACT: note_on channel=9 note=42 velocity=0 time=0.049019583333333325
EXTRACT: note_on channel=9 note=40 velocity=0 time=0
EXTRACT: note_on channel=11 note=55 velocity=0 time=0.09681367708333333
EXTRACT: note_on channel=11 note=60 velocity=0 time=0
EXTRACT: note_on channel=11 note=63 velocity=0 time=0
EXTRACT: note_on channel=11 note=55 velocity=87 time=0.14705875
EXTRACT: note_on channel=11 note=60 velocity=99 time=0
EXTRACT: note_on channel=11 note=63 velocity=105 time=0
EXTRACT: note_on channel=0 note=38 velocity=112 time=0.0012254895833333332
EXTRACT: note_on channel=7 note=72 velocity=106 time=0
EXTRACT: note_on channel=9 note=42 velocity=103 time=0
EXTRACT: note_on channel=9 note=36 velocity=120 time=0
EXTRACT: note_on channel=9 note=54 velocity=76 time=0
EXTRACT: note_on channel=9 note=42 velocity=0 time=0.049019583333333325
EXTRACT: note_on channel=9 note=36 velocity=0 time=0
EXTRACT: note_on channel=9 note=54 velocity=0 time=0
EXTRACT: note_on channel=11 note=55 velocity=0 time=0.09681367708333333
EXTRACT: note_on channel=11 note=60 velocity=0 time=0
EXTRACT: note_on channel=11 note=63 velocity=0 time=0
EXTRACT: note_on channel=0 note=38 velocity=0 time=0.0012254895833333332
EXTRACT: note_on channel=7 note=72 velocity=0 time=0
EXTRACT: note_on channel=7 note=74 velocity=96 time=0
EXTRACT: note_on channel=11 note=55 velocity=96 time=0.14583326041666664
EXTRACT: note_on channel=11 note=60 velocity=110 time=0
EXTRACT: note_on channel=11 note=63 velocity=92 time=0
EXTRACT: note_on channel=0 note=39 velocity=107 time=0.0012254895833333332
EXTRACT: note_on channel=7 note=74 velocity=0 time=0
EXTRACT: note_on channel=7 note=75 velocity=82 time=0
EXTRACT: note_on channel=9 note=42 velocity=78 time=0
EXTRACT: note_on channel=9 note=36 velocity=120 time=0
EXTRACT: note_on channel=9 note=42 velocity=0 time=0.049019583333333325
EXTRACT: note_on channel=9 note=36 velocity=0 time=0
EXTRACT: note_on channel=11 note=55 velocity=0 time=0.09681367708333333
EXTRACT: note_on channel=11 note=60 velocity=0 time=0
EXTRACT: note_on channel=11 note=63 velocity=0 time=0
EXTRACT: note_on channel=7 note=75 velocity=0 time=0.0012254895833333332
EXTRACT: note_on channel=11 note=55 velocity=89 time=0.14583326041666664
EXTRACT: note_on channel=11 note=60 velocity=94 time=0
EXTRACT: note_on channel=11 note=63 velocity=91 time=0
EXTRACT: note_on channel=0 note=39 velocity=0 time=0.0012254895833333332
EXTRACT: note_on channel=9 note=42 velocity=98 time=0
EXTRACT: note_on channel=9 note=54 velocity=83 time=0
EXTRACT: note_on channel=14 note=79 velocity=100 time=0
EXTRACT: note_on channel=9 note=42 velocity=0 time=0.049019583333333325
EXTRACT: note_on channel=9 note=54 velocity=0 time=0
EXTRACT: note_on channel=11 note=55 velocity=0 time=0.09681367708333333
EXTRACT: note_on channel=11 note=60 velocity=0 time=0
EXTRACT: note_on channel=11 note=63 velocity=0 time=0
EXTRACT: note_on channel=14 note=79 velocity=0 time=0.0012254895833333332
EXTRACT: note_on channel=11 note=55 velocity=105 time=0.14583326041666664
EXTRACT: note_on channel=11 note=60 velocity=90 time=0
EXTRACT: note_on channel=11 note=63 velocity=111 time=0
EXTRACT: note_on channel=0 note=43 velocity=104 time=0.0012254895833333332
EXTRACT: note_on channel=9 note=42 velocity=82 time=0
EXTRACT: note_on channel=9 note=40 velocity=127 time=0
EXTRACT: note_on channel=14 note=77 velocity=125 time=0
EXTRACT: note_on channel=9 note=42 velocity=0 time=0.049019583333333325
EXTRACT: note_on channel=9 note=40 velocity=0 time=0
EXTRACT: note_on channel=11 note=55 velocity=0 time=0.09681367708333333
EXTRACT: note_on channel=11 note=60 velocity=0 time=0
EXTRACT: note_on channel=11 note=63 velocity=0 time=0
EXTRACT: note_on channel=14 note=77 velocity=0 time=0.0012254895833333332
EXTRACT: note_on channel=11 note=55 velocity=103 time=0.14583326041666664
EXTRACT: note_on channel=11 note=60 velocity=108 time=0
EXTRACT: note_on channel=11 note=63 velocity=103 time=0
EXTRACT: note_on channel=0 note=43 velocity=0 time=0.0012254895833333332
EXTRACT: note_on channel=9 note=42 velocity=100 time=0
EXTRACT: note_on channel=9 note=54 velocity=81 time=0
EXTRACT: note_on channel=14 note=79 velocity=107 time=0
EXTRACT: note_on channel=9 note=42 velocity=0 time=0.049019583333333325
EXTRACT: note_on channel=9 note=54 velocity=0 time=0
EXTRACT: note_on channel=11 note=55 velocity=0 time=0.09681367708333333
EXTRACT: note_on channel=11 note=60 velocity=0 time=0
EXTRACT: note_on channel=11 note=63 velocity=0 time=0
EXTRACT: note_on channel=14 note=79 velocity=0 time=0.0012254895833333332
EXTRACT: note_on channel=11 note=56 velocity=107 time=0.14583326041666664
EXTRACT: note_on channel=11 note=60 velocity=103 time=0
EXTRACT: note_on channel=11 note=63 velocity=99 time=0
EXTRACT: note_on channel=0 note=44 velocity=119 time=0.0012254895833333332
EXTRACT: note_on channel=2 note=60 velocity=0 time=0
EXTRACT: note_on channel=2 note=63 velocity=0 time=0
EXTRACT: note_on channel=2 note=67 velocity=0 time=0
EXTRACT: note_on channel=2 note=60 velocity=121 time=0
EXTRACT: note_on channel=2 note=63 velocity=115 time=0
EXTRACT: note_on channel=2 note=68 velocity=127 time=0
EXTRACT: note_on channel=3 note=55 velocity=0 time=0
EXTRACT: note_on channel=3 note=56 velocity=89 time=0
EXTRACT: note_on channel=9 note=42 velocity=76 time=0
EXTRACT: note_on channel=9 note=36 velocity=120 time=0
EXTRACT: note_on channel=14 note=75 velocity=100 time=0
EXTRACT: note_on channel=9 note=42 velocity=0 time=0.049019583333333325
EXTRACT: note_on channel=9 note=36 velocity=0 time=0
EXTRACT: note_on channel=11 note=56 velocity=0 time=0.09681367708333333
EXTRACT: note_on channel=11 note=60 velocity=0 time=0
EXTRACT: note_on channel=11 note=63 velocity=0 time=0
EXTRACT: note_on channel=0 note=44 velocity=0 time=0.0012254895833333332
EXTRACT: note_on channel=14 note=75 velocity=0 time=0
EXTRACT: note_on channel=11 note=56 velocity=112 time=0.14583326041666664
EXTRACT: note_on channel=11 note=60 velocity=112 time=0
EXTRACT: note_on channel=11 note=63 velocity=110 time=0
EXTRACT: note_on channel=0 note=44 velocity=105 time=0.0012254895833333332
EXTRACT: note_on channel=9 note=42 velocity=101 time=0
EXTRACT: note_on channel=9 note=36 velocity=120 time=0
EXTRACT: note_on channel=9 note=54 velocity=79 time=0
EXTRACT: note_on channel=14 note=77 velocity=101 time=0
EXTRACT: note_on channel=9 note=42 velocity=0 time=0.049019583333333325
EXTRACT: note_on channel=9 note=36 velocity=0 time=0
EXTRACT: note_on channel=9 note=54 velocity=0 time=0
EXTRACT: note_on channel=14 note=77 velocity=0 time=0.024509791666666662
EXTRACT: note_on channel=11 note=56 velocity=0 time=0.07230388541666666
EXTRACT: note_on channel=11 note=60 velocity=0 time=0
EXTRACT: note_on channel=11 note=63 velocity=0 time=0
EXTRACT: note_on channel=0 note=44 velocity=0 time=0.0012254895833333332
EXTRACT: note_on channel=11 note=56 velocity=97 time=0.14583326041666664
EXTRACT: note_on channel=11 note=60 velocity=108 time=0
EXTRACT: note_on channel=11 note=63 velocity=110 time=0
EXTRACT: note_on channel=9 note=42 velocity=76 time=0.0012254895833333332
EXTRACT: note_on channel=9 note=40 velocity=127 time=0
EXTRACT: note_on channel=9 note=42 velocity=0 time=0.049019583333333325
EXTRACT: note_on channel=9 note=40 velocity=0 time=0
EXTRACT: note_on channel=11 note=56 velocity=0 time=0.09681367708333333
EXTRACT: note_on channel=11 note=60 velocity=0 time=0
EXTRACT: note_on channel=11 note=63 velocity=0 time=0
EXTRACT: note_on channel=11 note=56 velocity=110 time=0.14705875
EXTRACT: note_on channel=11 note=60 velocity=106 time=0
EXTRACT: note_on channel=11 note=63 velocity=89 time=0
EXTRACT: note_on channel=0 note=39 velocity=122 time=0.0012254895833333332
EXTRACT: note_on channel=9 note=42 velocity=101 time=0
EXTRACT: note_on channel=9 note=36 velocity=120 time=0
EXTRACT: note_on channel=9 note=54 velocity=83 time=0
EXTRACT: note_on channel=9 note=42 velocity=0 time=0.049019583333333325
EXTRACT: note_on channel=9 note=36 velocity=0 time=0
EXTRACT: note_on channel=9 note=54 velocity=0 time=0
EXTRACT: note_on channel=11 note=56 velocity=0 time=0.09681367708333333
EXTRACT: note_on channel=11 note=60 velocity=0 time=0
EXTRACT: note_on channel=11 note=63 velocity=0 time=0
EXTRACT: note_on channel=0 note=39 velocity=0 time=0.0012254895833333332
EXTRACT: note_on channel=11 note=56 velocity=91 time=0.14583326041666664
EXTRACT: note_on channel=11 note=60 velocity=88 time=0
EXTRACT: note_on channel=11 note=63 velocity=95 time=0
EXTRACT: note_on channel=0 note=44 velocity=109 time=0.0012254895833333332
EXTRACT: note_on channel=9 note=42 velocity=76 time=0
EXTRACT: note_on channel=9 note=36 velocity=120 time=0
EXTRACT: note_on channel=9 note=42 velocity=0 time=0.049019583333333325
EXTRACT: note_on channel=9 note=36 velocity=0 time=0
EXTRACT: note_on channel=11 note=56 velocity=0 time=0.09681367708333333
EXTRACT: note_on channel=11 note=60 velocity=0 time=0
EXTRACT: note_on channel=11 note=63 velocity=0 time=0
EXTRACT: note_on channel=11 note=56 velocity=102 time=0.14705875
EXTRACT: note_on channel=11 note=60 velocity=98 time=0
EXTRACT: note_on channel=11 note=63 velocity=106 time=0
EXTRACT: note_on channel=0 note=44 velocity=0 time=0.0012254895833333332
EXTRACT: note_on channel=9 note=42 velocity=96 time=0
EXTRACT: note_on channel=9 note=54 velocity=76 time=0
EXTRACT: note_on channel=9 note=42 velocity=0 time=0.049019583333333325
EXTRACT: note_on channel=9 note=54 velocity=0 time=0
EXTRACT: note_on channel=11 note=56 velocity=0 time=0.09681367708333333
EXTRACT: note_on channel=11 note=60 velocity=0 time=0
EXTRACT: note_on channel=11 note=63 velocity=0 time=0
EXTRACT: note_on channel=14 note=72 velocity=96 time=0.0012254895833333332
EXTRACT: note_on channel=14 note=72 velocity=0 time=0.073529375
EXTRACT: note_on channel=11 note=56 velocity=108 time=0.07230388541666666
EXTRACT: note_on channel=11 note=60 velocity=96 time=0
EXTRACT: note_on channel=11 note=63 velocity=99 time=0
EXTRACT: note_on channel=9 note=42 velocity=83 time=0.0012254895833333332
EXTRACT: note_on channel=9 note=40 velocity=127 time=0
EXTRACT: note_on channel=14 note=72 velocity=119 time=0
EXTRACT: note_on channel=9 note=42 velocity=0 time=0.049019583333333325
EXTRACT: note_on channel=9 note=40 velocity=0 time=0
EXTRACT: note_on channel=11 note=56 velocity=0 time=0.09681367708333333
EXTRACT: note_on channel=11 note=60 velocity=0 time=0
EXTRACT: note_on channel=11 note=63 velocity=0 time=0
EXTRACT: note_on channel=14 note=72 velocity=0 time=0.0012254895833333332
EXTRACT: note_on channel=11 note=56 velocity=103 time=0.14583326041666664
EXTRACT: note_on channel=11 note=60 velocity=97 time=0
EXTRACT: note_on channel=11 note=63 velocity=100 time=0
EXTRACT: note_on channel=9 note=42 velocity=98 time=0.0012254895833333332
EXTRACT: note_on channel=9 note=54 velocity=76 time=0
EXTRACT: note_on channel=14 note=74 velocity=100 time=0
EXTRACT: note_on channel=9 note=42 velocity=0 time=0.049019583333333325
EXTRACT: note_on channel=9 note=54 velocity=0 time=0
EXTRACT: note_on channel=11 note=56 velocity=0 time=0.09681367708333333
EXTRACT: note_on channel=11 note=60 velocity=0 time=0
EXTRACT: note_on channel=11 note=63 velocity=0 time=0
EXTRACT: note_on channel=14 note=74 velocity=0 time=0.0012254895833333332
EXTRACT: note_on channel=11 note=58 velocity=112 time=0.14583326041666664
EXTRACT: note_on channel=11 note=53 velocity=91 time=0
EXTRACT: note_on channel=11 note=63 velocity=92 time=0
EXTRACT: note_on channel=0 note=34 velocity=125 time=0.0012254895833333332
EXTRACT: note_on channel=2 note=60 velocity=0 time=0
EXTRACT: note_on channel=2 note=63 velocity=0 time=0
EXTRACT: note_on channel=2 note=68 velocity=0 time=0
EXTRACT: note_on channel=2 note=70 velocity=117 time=0
EXTRACT: note_on channel=2 note=63 velocity=125 time=0
EXTRACT: note_on channel=2 note=65 velocity=103 time=0
EXTRACT: note_on channel=3 note=60 velocity=0 time=0
EXTRACT: note_on channel=3 note=56 velocity=0 time=0
EXTRACT: note_on channel=3 note=65 velocity=62 time=0
EXTRACT: note_on channel=3 note=58 velocity=97 time=0
EXTRACT: note_on channel=9 note=42 velocity=81 time=0
EXTRACT: note_on channel=9 note=36 velocity=120 time=0
EXTRACT: note_on channel=14 note=77 velocity=95 time=0
EXTRACT: note_on channel=9 note=42 velocity=0 time=0.049019583333333325
EXTRACT: note_on channel=9 note=36 velocity=0 time=0
EXTRACT: note_on channel=11 note=58 velocity=0 time=0.09681367708333333
EXTRACT: note_on channel=11 note=53 velocity=0 time=0
EXTRACT: note_on channel=11 note=63 velocity=0 time=0
EXTRACT: note_on channel=0 note=34 velocity=0 time=0.0012254895833333332
EXTRACT: note_on channel=11 note=58 velocity=100 time=0.14583326041666664
EXTRACT: note_on channel=11 note=53 velocity=104 time=0
EXTRACT: note_on channel=11 note=63 velocity=91 time=0
EXTRACT: note_on channel=0 note=34 velocity=107 time=0.0012254895833333332
EXTRACT: note_on channel=9 note=42 velocity=101 time=0
EXTRACT: note_on channel=9 note=36 velocity=120 time=0
EXTRACT: note_on channel=9 note=54 velocity=68 time=0
EXTRACT: note_on channel=14 note=77 velocity=0 time=0
EXTRACT: note_on channel=9 note=42 velocity=0 time=0.049019583333333325
EXTRACT: note_on channel=9 note=36 velocity=0 time=0
EXTRACT: note_on channel=9 note=54 velocity=0 time=0
EXTRACT: note_on channel=11 note=58 velocity=0 time=0.09681367708333333
EXTRACT: note_on channel=11 note=53 velocity=0 time=0
EXTRACT: note_on channel=11 note=63 velocity=0 time=0
EXTRACT: note_on channel=0 note=34 velocity=0 time=0.0012254895833333332
EXTRACT: note_on channel=11 note=58 velocity=110 time=0.14583326041666664
EXTRACT: note_on channel=11 note=53 velocity=102 time=0
EXTRACT: note_on channel=11 note=63 velocity=112 time=0
EXTRACT: note_on channel=9 note=42 velocity=76 time=0.0012254895833333332
EXTRACT: note_on channel=9 note=40 velocity=127 time=0
EXTRACT: note_on channel=14 note=79 velocity=119 time=0
EXTRACT: note_on channel=9 note=42 velocity=0 time=0.049019583333333325
EXTRACT: note_on channel=9 note=40 velocity=0 time=0
EXTRACT: note_on channel=11 note=58 velocity=0 time=0.09681367708333333
EXTRACT: note_on channel=11 note=53 velocity=0 time=0
EXTRACT: note_on channel=11 note=63 velocity=0 time=0
EXTRACT: note_on channel=11 note=58 velocity=104 time=0.14705875
EXTRACT: note_on channel=11 note=53 velocity=96 time=0
EXTRACT: note_on channel=11 note=63 velocity=94 time=0
EXTRACT: note_on channel=0 note=34 velocity=116 time=0.0012254895833333332
EXTRACT: note_on channel=7 note=70 velocity=97 time=0
EXTRACT: note_on channel=9 note=42 velocity=105 time=0
EXTRACT: note_on channel=9 note=36 velocity=120 time=0
EXTRACT: note_on channel=9 note=54 velocity=66 time=0
EXTRACT: note_on channel=14 note=79 velocity=0 time=0
EXTRACT: note_on channel=9 note=42 velocity=0 time=0.049019583333333325
EXTRACT: note_on channel=9 note=36 velocity=0 time=0
EXTRACT: note_on channel=9 note=54 velocity=0 time=0
EXTRACT: note_on channel=0 note=34 velocity=0 time=0.024509791666666662
EXTRACT: note_on channel=11 note=58 velocity=0 time=0.07230388541666666
EXTRACT: note_on channel=11 note=53 velocity=0 time=0
EXTRACT: note_on channel=11 note=63 velocity=0 time=0
EXTRACT: note_on channel=0 note=36 velocity=102 time=0.0012254895833333332
EXTRACT: note_on channel=7 note=70 velocity=0 time=0
EXTRACT: note_on channel=7 note=72 velocity=98 time=0
EXTRACT: note_on channel=9 note=36 velocity=80 time=0
EXTRACT: note_on channel=9 note=36 velocity=0 time=0.049019583333333325
EXTRACT: note_on channel=0 note=36 velocity=0 time=0.024509791666666662
EXTRACT: note_on channel=11 note=58 velocity=111 time=0.07230388541666666
EXTRACT: note_on channel=11 note=53 velocity=102 time=0
EXTRACT: note_on channel=11 note=62 velocity=103 time=0
EXTRACT: note_on channel=0 note=38 velocity=121 time=0.0012254895833333332
EXTRACT: note_on channel=2 note=70 velocity=0 time=0
EXTRACT: note_on channel=2 note=63 velocity=0 time=0
EXTRACT: note_on channel=2 note=65 velocity=0 time=0
EXTRACT: note_on channel=2 note=65 velocity=119 time=0
EXTRACT: note_on channel=2 note=62 velocity=121 time=0
EXTRACT: note_on channel=2 note=70 velocity=126 time=0
EXTRACT: note_on channel=3 note=63 velocity=0 time=0
EXTRACT: note_on channel=3 note=62 velocity=87 time=0
EXTRACT: note_on channel=7 note=72 velocity=0 time=0
EXTRACT: note_on channel=7 note=74 velocity=84 time=0
EXTRACT: note_on channel=9 note=42 velocity=82 time=0
EXTRACT: note_on channel=9 note=36 velocity=120 time=0
EXTRACT: note_on channel=14 note=77 velocity=124 time=0
EXTRACT: note_on channel=9 note=42 velocity=0 time=0.049019583333333325
EXTRACT: note_on channel=9 note=36 velocity=0 time=0
EXTRACT: note_on channel=11 note=58 velocity=0 time=0.09681367708333333
EXTRACT: note_on channel=11 note=53 velocity=0 time=0
EXTRACT: note_on channel=11 note=62 velocity=0 time=0
EXTRACT: note_on channel=7 note=74 velocity=0 time=0.0012254895833333332
EXTRACT: note_on channel=11 note=58 velocity=112 time=0.14583326041666664
EXTRACT: note_on channel=11 note=53 velocity=105 time=0
EXTRACT: note_on channel=11 note=62 velocity=88 time=0
EXTRACT: note_on channel=9 note=42 velocity=98 time=0.0012254895833333332
EXTRACT: note_on channel=9 note=54 velocity=75 time=0
EXTRACT: note_on channel=14 note=77 velocity=0 time=0
EXTRACT: note_on channel=9 note=42 velocity=0 time=0.049019583333333325
EXTRACT: note_on channel=9 note=54 velocity=0 time=0
EXTRACT: note_on channel=11 note=58 velocity=0 time=0.09681367708333333
EXTRACT: note_on channel=11 note=53 velocity=0 time=0
EXTRACT: note_on channel=11 note=62 velocity=0 time=0
EXTRACT: note_on channel=11 note=58 velocity=97 time=0.14705875
EXTRACT: note_on channel=11 note=53 velocity=91 time=0
EXTRACT: note_on channel=11 note=62 velocity=108 time=0
EXTRACT: note_on channel=9 note=42 velocity=82 time=0.0012254895833333332
EXTRACT: note_on channel=9 note=40 velocity=127 time=0
EXTRACT: note_on channel=14 note=75 velocity=109 time=0
EXTRACT: note_on channel=9 note=42 velocity=0 time=0.049019583333333325
EXTRACT: note_on channel=9 note=40 velocity=0 time=0
EXTRACT: note_on channel=11 note=58 velocity=0 time=0.09681367708333333
EXTRACT: note_on channel=11 note=53 velocity=0 time=0
EXTRACT: note_on channel=11 note=62 velocity=0 time=0
EXTRACT: note_on channel=14 note=75 velocity=0 time=0.0012254895833333332
EXTRACT: note_on channel=11 note=58 velocity=88 time=0.14583326041666664
EXTRACT: note_on channel=11 note=53 velocity=100 time=0
EXTRACT: note_on channel=11 note=62 velocity=103 time=0
EXTRACT: note_on channel=0 note=38 velocity=0 time=0.0012254895833333332
EXTRACT: note_on channel=9 note=36 velocity=100 time=0
EXTRACT: note_on channel=9 note=42 velocity=99 time=0
EXTRACT: note_on channel=9 note=54 velocity=65 time=0
EXTRACT: note_on channel=14 note=77 velocity=125 time=0
EXTRACT: note_on channel=9 note=36 velocity=0 time=0.049019583333333325
EXTRACT: note_on channel=9 note=42 velocity=0 time=0
EXTRACT: note_on channel=9 note=54 velocity=0 time=0
EXTRACT: note_on channel=11 note=58 velocity=0 time=0.09681367708333333
EXTRACT: note_on channel=11 note=53 velocity=0 time=0
EXTRACT: note_on channel=11 note=62 velocity=0 time=0
EXTRACT: note_on channel=14 note=77 velocity=0 time=0.0012254895833333332
EXTRACT: note_on channel=11 note=58 velocity=108 time=0.14583326041666664
EXTRACT: note_on channel=11 note=55 velocity=88 time=0
EXTRACT: note_on channel=11 note=63 velocity=99 time=0
EXTRACT: note_on channel=0 note=39 velocity=114 time=0.0012254895833333332
EXTRACT: note_on channel=2 note=65 velocity=0 time=0
EXTRACT: note_on channel=2 note=62 velocity=0 time=0
EXTRACT: note_on channel=2 note=70 velocity=0 time=0
EXTRACT: note_on channel=2 note=67 velocity=122 time=0
EXTRACT: note_on channel=2 note=63 velocity=126 time=0
EXTRACT: note_on channel=2 note=58 velocity=105 time=0
EXTRACT: note_on channel=3 note=65 velocity=0 time=0
EXTRACT: note_on channel=3 note=58 velocity=0 time=0
EXTRACT: note_on channel=3 note=62 velocity=0 time=0
EXTRACT: note_on channel=3 note=58 velocity=87 time=0
EXTRACT: note_on channel=3 note=67 velocity=94 time=0
EXTRACT: note_on channel=3 note=63 velocity=86 time=0
EXTRACT: note_on channel=9 note=42 velocity=83 time=0
EXTRACT: note_on channel=9 note=36 velocity=120 time=0
EXTRACT: note_on channel=14 note=79 velocity=123 time=0
EXTRACT: note_on channel=9 note=42 velocity=0 time=0.049019583333333325
EXTRACT: note_on channel=9 note=36 velocity=0 time=0
EXTRACT: note_on channel=11 note=58 velocity=0 time=0.09681367708333333
EXTRACT: note_on channel=11 note=55 velocity=0 time=0
EXTRACT: note_on channel=11 note=63 velocity=0 time=0
EXTRACT: note_on channel=14 note=79 velocity=0 time=0.0012254895833333332
EXTRACT: note_on channel=11 note=58 velocity=104 time=0.14583326041666664
EXTRACT: note_on channel=11 note=55 velocity=104 time=0
EXTRACT: note_on channel=11 note=63 velocity=104 time=0
EXTRACT: note_on channel=9 note=42 velocity=103 time=0.0012254895833333332
EXTRACT: note_on channel=9 note=54 velocity=81 time=0
EXTRACT: note_on channel=14 note=80 velocity=101 time=0
EXTRACT: note_on channel=9 note=42 velocity=0 time=0.049019583333333325
EXTRACT: note_on channel=9 note=54 velocity=0 time=0
EXTRACT: note_on channel=11 note=58 velocity=0 time=0.09681367708333333
EXTRACT: note_on channel=11 note=55 velocity=0 time=0
EXTRACT: note_on channel=11 note=63 velocity=0 time=0
EXTRACT: note_on channel=0 note=39 velocity=0 time=0.0012254895833333332
EXTRACT: note_on channel=14 note=80 velocity=0 time=0
EXTRACT: note_on channel=11 note=58 velocity=95 time=0.14583326041666664
EXTRACT: note_on channel=11 note=55 velocity=95 time=0
EXTRACT: note_on channel=11 note=63 velocity=106 time=0
EXTRACT: note_on channel=0 note=39 velocity=103 time=0.0012254895833333332
EXTRACT: note_on channel=9 note=42 velocity=78 time=0
EXTRACT: note_on channel=9 note=40 velocity=127 time=0
EXTRACT: note_on channel=14 note=79 velocity=108 time=0
EXTRACT: note_on channel=9 note=42 velocity=0 time=0.049019583333333325
EXTRACT: note_on channel=9 note=40 velocity=0 time=0
EXTRACT: note_on channel=11 note=58 velocity=0 time=0.09681367708333333
EXTRACT: note_on channel=11 note=55 velocity=0 time=0
EXTRACT: note_on channel=11 note=63 velocity=0 time=0
EXTRACT: note_on channel=14 note=79 velocity=0 time=0.0012254895833333332
EXTRACT: note_on channel=11 note=58 velocity=98 time=0.14583326041666664
EXTRACT: note_on channel=11 note=55 velocity=87 time=0
EXTRACT: note_on channel=11 note=63 velocity=94 time=0
EXTRACT: note_on channel=9 note=42 velocity=105 time=0.0012254895833333332
EXTRACT: note_on channel=9 note=36 velocity=120 time=0
EXTRACT: note_on channel=9 note=54 velocity=65 time=0
EXTRACT: note_on channel=14 note=77 velocity=99 time=0
EXTRACT: note_on channel=9 note=42 velocity=0 time=0.049019583333333325
EXTRACT: note_on channel=9 note=36 velocity=0 time=0
EXTRACT: note_on channel=9 note=54 velocity=0 time=0
EXTRACT: note_on channel=11 note=58 velocity=0 time=0.09681367708333333
EXTRACT: note_on channel=11 note=55 velocity=0 time=0
EXTRACT: note_on channel=11 note=63 velocity=0 time=0
EXTRACT: note_on channel=0 note=39 velocity=0 time=0.0012254895833333332
EXTRACT: note_on channel=14 note=77 velocity=0 time=0
EXTRACT: note_on channel=11 note=59 velocity=87 time=0.14583326041666664
EXTRACT: note_on channel=11 note=55 velocity=99 time=0
EXTRACT: note_on channel=11 note=62 velocity=87 time=0
EXTRACT: note_on channel=0 note=43 velocity=104 time=0.0012254895833333332
EXTRACT: note_on channel=2 note=67 velocity=0 time=0
EXTRACT: note_on channel=2 note=63 velocity=0 time=0
EXTRACT: note_on channel=2 note=58 velocity=0 time=0
EXTRACT: note_on channel=2 note=59 velocity=123 time=0
EXTRACT: note_on channel=2 note=62 velocity=118 time=0
EXTRACT: note_on channel=2 note=67 velocity=124 time=0
EXTRACT: note_on channel=3 note=58 velocity=0 time=0
EXTRACT: note_on channel=3 note=63 velocity=0 time=0
EXTRACT: note_on channel=3 note=59 velocity=96 time=0
EXTRACT: note_on channel=3 note=62 velocity=79 time=0
EXTRACT: note_on channel=9 note=42 velocity=76 time=0
EXTRACT: note_on channel=9 note=36 velocity=120 time=0
EXTRACT: note_on channel=14 note=77 velocity=119 time=0
EXTRACT: note_on channel=9 note=42 velocity=0 time=0.049019583333333325
EXTRACT: note_on channel=9 note=36 velocity=0 time=0
EXTRACT: note_on channel=11 note=59 velocity=0 time=0.09681367708333333
EXTRACT: note_on channel=11 note=55 velocity=0 time=0
EXTRACT: note_on channel=11 note=62 velocity=0 time=0
EXTRACT: note_on channel=14 note=77 velocity=0 time=0.0012254895833333332
EXTRACT: note_on channel=11 note=59 velocity=98 time=0.14583326041666664
EXTRACT: note_on channel=11 note=55 velocity=91 time=0
EXTRACT: note_on channel=11 note=62 velocity=97 time=0
EXTRACT: note_on channel=9 note=36 velocity=120 time=0.0012254895833333332
EXTRACT: note_on channel=9 note=42 velocity=95 time=0
EXTRACT: note_on channel=9 note=54 velocity=75 time=0
EXTRACT: note_on channel=9 note=36 velocity=0 time=0.049019583333333325
EXTRACT: note_on channel=9 note=42 velocity=0 time=0
EXTRACT: note_on channel=9 note=54 velocity=0 time=0
EXTRACT: note_on channel=11 note=59 velocity=0 time=0.09681367708333333
EXTRACT: note_on channel=11 note=55 velocity=0 time=0
EXTRACT: note_on channel=11 note=62 velocity=0 time=0
EXTRACT: note_on channel=0 note=43 velocity=0 time=0.0012254895833333332
EXTRACT: note_on channel=11 note=59 velocity=102 time=0.14583326041666664
EXTRACT: note_on channel=11 note=55 velocity=107 time=0
EXTRACT: note_on channel=11 note=62 velocity=105 time=0
EXTRACT: note_on channel=0 note=31 velocity=123 time=0.0012254895833333332
EXTRACT: note_on channel=9 note=42 velocity=79 time=0
EXTRACT: note_on channel=9 note=40 velocity=127 time=0
EXTRACT: note_on channel=14 note=72 velocity=117 time=0
EXTRACT: note_on channel=9 note=42 velocity=0 time=0.049019583333333325
EXTRACT: note_on channel=9 note=40 velocity=0 time=0
EXTRACT: note_on channel=11 note=59 velocity=0 time=0.09681367708333333
EXTRACT: note_on channel=11 note=55 velocity=0 time=0
EXTRACT: note_on channel=11 note=62 velocity=0 time=0
EXTRACT: note_on channel=14 note=72 velocity=0 time=0.0012254895833333332
EXTRACT: note_on channel=11 note=59 velocity=111 time=0.14583326041666664
EXTRACT: note_on channel=11 note=55 velocity=108 time=0
EXTRACT: note_on channel=11 note=62 velocity=111 time=0
EXTRACT: note_on channel=9 note=36 velocity=110 time=0.0012254895833333332
EXTRACT: note_on channel=9 note=42 velocity=98 time=0
EXTRACT: note_on channel=9 note=54 velocity=73 time=0
EXTRACT: note_on channel=14 note=75 velocity=111 time=0
EXTRACT: note_on channel=9 note=36 velocity=0 time=0.049019583333333325
EXTRACT: note_on channel=9 note=42 velocity=0 time=0
EXTRACT: note_on channel=9 note=54 velocity=0 time=0
EXTRACT: note_on channel=11 note=59 velocity=0 time=0.09681367708333333
EXTRACT: note_on channel=11 note=55 velocity=0 time=0
EXTRACT: note_on channel=11 note=62 velocity=0 time=0
EXTRACT: note_on channel=0 note=31 velocity=0 time=0.0012254895833333332
EXTRACT: note_on channel=14 note=75 velocity=0 time=0
EXTRACT: note_on channel=11 note=55 velocity=107 time=0.14583326041666664
EXTRACT: note_on channel=11 note=60 velocity=109 time=0
EXTRACT: note_on channel=11 note=63 velocity=89 time=0
EXTRACT: note_on channel=0 note=36 velocity=110 time=0.0012254895833333332
EXTRACT: note_on channel=1 note=60 velocity=103 time=0
EXTRACT: note_on channel=2 note=59 velocity=0 time=0
EXTRACT: note_on channel=2 note=62 velocity=0 time=0
EXTRACT: note_on channel=2 note=67 velocity=0 time=0
EXTRACT: note_on channel=2 note=60 velocity=102 time=0
EXTRACT: note_on channel=2 note=63 velocity=121 time=0
EXTRACT: note_on channel=2 note=67 velocity=102 time=0
EXTRACT: note_on channel=3 note=67 velocity=0 time=0
EXTRACT: note_on channel=3 note=59 velocity=0 time=0
EXTRACT: note_on channel=3 note=62 velocity=0 time=0
EXTRACT: note_on channel=3 note=63 velocity=95 time=0
EXTRACT: note_on channel=3 note=60 velocity=77 time=0
EXTRACT: note_on channel=3 note=55 velocity=93 time=0
EXTRACT: note_on channel=9 note=49 velocity=100 time=0
EXTRACT: note_on channel=9 note=36 velocity=120 time=0
EXTRACT: note_on channel=14 note=79 velocity=117 time=0
EXTRACT: note_on channel=9 note=49 velocity=0 time=0.049019583333333325
EXTRACT: note_on channel=9 note=36 velocity=0 time=0
EXTRACT: note_on channel=11 note=55 velocity=0 time=0.09681367708333333
EXTRACT: note_on channel=11 note=60 velocity=0 time=0
EXTRACT: note_on channel=11 note=63 velocity=0 time=0
EXTRACT: note_on channel=0 note=36 velocity=0 time=0.0012254895833333332
EXTRACT: note_on channel=11 note=55 velocity=97 time=0.14583326041666664
EXTRACT: note_on channel=11 note=60 velocity=90 time=0
EXTRACT: note_on channel=11 note=63 velocity=98 time=0
EXTRACT: note_on channel=0 note=36 velocity=126 time=0.0012254895833333332
EXTRACT: note_on channel=1 note=60 velocity=0 time=0
EXTRACT: note_on channel=9 note=42 velocity=96 time=0
EXTRACT: note_on channel=9 note=36 velocity=120 time=0
EXTRACT: note_on channel=9 note=54 velocity=72 time=0
EXTRACT: note_on channel=14 note=79 velocity=0 time=0
EXTRACT: note_on channel=9 note=42 velocity=0 time=0.049019583333333325
EXTRACT: note_on channel=9 note=36 velocity=0 time=0
EXTRACT: note_on channel=9 note=54 velocity=0 time=0
EXTRACT: note_on channel=11 note=55 velocity=0 time=0.09681367708333333
EXTRACT: note_on channel=11 note=60 velocity=0 time=0
EXTRACT: note_on channel=11 note=63 velocity=0 time=0
EXTRACT: note_on channel=0 note=36 velocity=0 time=0.0012254895833333332
EXTRACT: note_on channel=11 note=55 velocity=97 time=0.14583326041666664
EXTRACT: note_on channel=11 note=60 velocity=99 time=0
EXTRACT: note_on channel=11 note=63 velocity=103 time=0
EXTRACT: note_on channel=9 note=42 velocity=72 time=0.0012254895833333332
EXTRACT: note_on channel=9 note=40 velocity=127 time=0
EXTRACT: note_on channel=9 note=42 velocity=0 time=0.049019583333333325
EXTRACT: note_on channel=9 note=40 velocity=0 time=0
EXTRACT: note_on channel=11 note=55 velocity=0 time=0.09681367708333333
EXTRACT: note_on channel=11 note=60 velocity=0 time=0
EXTRACT: note_on channel=11 note=63 velocity=0 time=0
EXTRACT: note_on channel=11 note=55 velocity=95 time=0.14705875
EXTRACT: note_on channel=11 note=60 velocity=89 time=0
EXTRACT: note_on channel=11 note=63 velocity=92 time=0
EXTRACT: note_on channel=0 note=38 velocity=123 time=0.0012254895833333332
EXTRACT: note_on channel=7 note=72 velocity=106 time=0
EXTRACT: note_on channel=9 note=42 velocity=97 time=0
EXTRACT: note_on channel=9 note=36 velocity=120 time=0
EXTRACT: note_on channel=9 note=54 velocity=73 time=0
EXTRACT: note_on channel=9 note=42 velocity=0 time=0.049019583333333325
EXTRACT: note_on channel=9 note=36 velocity=0 time=0
EXTRACT: note_on channel=9 note=54 velocity=0 time=0
EXTRACT: note_on channel=11 note=55 velocity=0 time=0.09681367708333333
EXTRACT: note_on channel=11 note=60 velocity=0 time=0
EXTRACT: note_on channel=11 note=63 velocity=0 time=0
EXTRACT: note_on channel=0 note=38 velocity=0 time=0.0012254895833333332
EXTRACT: note_on channel=7 note=72 velocity=0 time=0
EXTRACT: note_on channel=7 note=74 velocity=96 time=0
EXTRACT: note_on channel=9 note=36 velocity=100 time=0
EXTRACT: note_on channel=9 note=36 velocity=0 time=0.049019583333333325
EXTRACT: note_on channel=11 note=55 velocity=103 time=0.09681367708333333
EXTRACT: note_on channel=11 note=60 velocity=107 time=0
EXTRACT: note_on channel=11 note=63 velocity=103 time=0
EXTRACT: note_on channel=0 note=39 velocity=103 time=0.0012254895833333332
EXTRACT: note_on channel=7 note=74 velocity=0 time=0
EXTRACT: note_on channel=7 note=75 velocity=82 time=0
EXTRACT: note_on channel=9 note=42 velocity=81 time=0
EXTRACT: note_on channel=9 note=36 velocity=120 time=0
EXTRACT: note_on channel=9 note=42 velocity=0 time=0.049019583333333325
EXTRACT: note_on channel=9 note=36 velocity=0 time=0
EXTRACT: note_on channel=11 note=55 velocity=0 time=0.09681367708333333
EXTRACT: note_on channel=11 note=60 velocity=0 time=0
EXTRACT: note_on channel=11 note=63 velocity=0 time=0
EXTRACT: note_on channel=7 note=75 velocity=0 time=0.0012254895833333332
EXTRACT: note_on channel=11 note=55 velocity=95 time=0.14583326041666664
EXTRACT: note_on channel=11 note=60 velocity=96 time=0
EXTRACT: note_on channel=11 note=63 velocity=107 time=0
EXTRACT: note_on channel=0 note=39 velocity=0 time=0.0012254895833333332
EXTRACT: note_on channel=9 note=42 velocity=100 time=0
EXTRACT: note_on channel=9 note=54 velocity=65 time=0
EXTRACT: note_on channel=14 note=80 velocity=110 time=0
EXTRACT: note_on channel=9 note=42 velocity=0 time=0.049019583333333325
EXTRACT: note_on channel=9 note=54 velocity=0 time=0
EXTRACT: note_on channel=11 note=55 velocity=0 time=0.09681367708333333
EXTRACT: note_on channel=11 note=60 velocity=0 time=0
EXTRACT: note_on channel=11 note=63 velocity=0 time=0
EXTRACT: note_on channel=14 note=80 velocity=0 time=0.0012254895833333332
EXTRACT: note_on channel=11 note=55 velocity=99 time=0.14583326041666664
EXTRACT: note_on channel=11 note=60 velocity=96 time=0
EXTRACT: note_on channel=11 note=63 velocity=100 time=0
EXTRACT: note_on channel=0 note=36 velocity=118 time=0.0012254895833333332
EXTRACT: note_on channel=9 note=42 velocity=79 time=0
EXTRACT: note_on channel=9 note=40 velocity=127 time=0
EXTRACT: note_on channel=14 note=77 velocity=115 time=0
EXTRACT: note_on channel=9 note=42 velocity=0 time=0.049019583333333325
EXTRACT: note_on channel=9 note=40 velocity=0 time=0
EXTRACT: note_on channel=11 note=55 velocity=0 time=0.09681367708333333
EXTRACT: note_on channel=11 note=60 velocity=0 time=0
EXTRACT: note_on channel=11 note=63 velocity=0 time=0
EXTRACT: note_on channel=14 note=77 velocity=0 time=0.0012254895833333332
EXTRACT: note_on channel=11 note=55 velocity=104 time=0.14583326041666664
EXTRACT: note_on channel=11 note=60 velocity=89 time=0
EXTRACT: note_on channel=11 note=63 velocity=106 time=0
EXTRACT: note_on channel=0 note=36 velocity=0 time=0.0012254895833333332
EXTRACT: note_on channel=9 note=42 velocity=97 time=0
EXTRACT: note_on channel=9 note=54 velocity=84 time=0
EXTRACT: note_on channel=14 note=79 velocity=110 time=0
EXTRACT: note_on channel=9 note=42 velocity=0 time=0.049019583333333325
EXTRACT: note_on channel=9 note=54 velocity=0 time=0
EXTRACT: note_on channel=11 note=55 velocity=0 time=0.09681367708333333
EXTRACT: note_on channel=11 note=60 velocity=0 time=0
EXTRACT: note_on channel=11 note=63 velocity=0 time=0
EXTRACT: note_on channel=11 note=56 velocity=88 time=0.14705875
EXTRACT: note_on channel=11 note=60 velocity=90 time=0
EXTRACT: note_on channel=11 note=63 velocity=103 time=0
EXTRACT: note_on channel=0 note=44 velocity=122 time=0.0012254895833333332
EXTRACT: note_on channel=2 note=60 velocity=0 time=0
EXTRACT: note_on channel=2 note=63 velocity=0 time=0
EXTRACT: note_on channel=2 note=67 velocity=0 time=0
EXTRACT: note_on channel=2 note=60 velocity=123 time=0
EXTRACT: note_on channel=2 note=63 velocity=115 time=0
EXTRACT: note_on channel=2 note=68 velocity=107 time=0
EXTRACT: note_on channel=3 note=55 velocity=0 time=0
EXTRACT: note_on channel=3 note=56 velocity=96 time=0
EXTRACT: note_on channel=9 note=42 velocity=82 time=0
EXTRACT: note_on channel=9 note=36 velocity=120 time=0
EXTRACT: note_on channel=14 note=79 velocity=0 time=0
EXTRACT: note_on channel=9 note=42 velocity=0 time=0.049019583333333325
EXTRACT: note_on channel=9 note=36 velocity=0 time=0
EXTRACT: note_on channel=11 note=56 velocity=0 time=0.09681367708333333
EXTRACT: note_on channel=11 note=60 velocity=0 time=0
EXTRACT: note_on channel=11 note=63 velocity=0 time=0
EXTRACT: note_on channel=0 note=44 velocity=0 time=0.0012254895833333332
EXTRACT: note_on channel=11 note=56 velocity=105 time=0.14583326041666664
EXTRACT: note_on channel=11 note=60 velocity=90 time=0
EXTRACT: note_on channel=11 note=63 velocity=101 time=0
EXTRACT: note_on channel=0 note=44 velocity=115 time=0.0012254895833333332
EXTRACT: note_on channel=9 note=42 velocity=105 time=0
EXTRACT: note_on channel=9 note=36 velocity=120 time=0
EXTRACT: note_on channel=9 note=54 velocity=69 time=0
EXTRACT: note_on channel=14 note=75 velocity=100 time=0
EXTRACT: note_on channel=9 note=42 velocity=0 time=0.049019583333333325
EXTRACT: note_on channel=9 note=36 velocity=0 time=0
EXTRACT: note_on channel=9 note=54 velocity=0 time=0
EXTRACT: note_on channel=11 note=56 velocity=0 time=0.09681367708333333
EXTRACT: note_on channel=11 note=60 velocity=0 time=0
EXTRACT: note_on channel=11 note=63 velocity=0 time=0
EXTRACT: note_on channel=0 note=44 velocity=0 time=0.0012254895833333332
EXTRACT: note_on channel=14 note=75 velocity=0 time=0
EXTRACT: note_on channel=11 note=56 velocity=106 time=0.14583326041666664
EXTRACT: note_on channel=11 note=60 velocity=88 time=0
EXTRACT: note_on channel=11 note=63 velocity=97 time=0
EXTRACT: note_on channel=9 note=42 velocity=76 time=0.0012254895833333332
EXTRACT: note_on channel=9 note=40 velocity=127 time=0
EXTRACT: note_on channel=9 note=42 velocity=0 time=0.049019583333333325
EXTRACT: note_on channel=9 note=40 velocity=0 time=0
EXTRACT: note_on channel=11 note=56 velocity=0 time=0.09681367708333333
EXTRACT: note_on channel=11 note=60 velocity=0 time=0
EXTRACT: note_on channel=11 note=63 velocity=0 time=0
EXTRACT: note_on channel=11 note=56 velocity=87 time=0.14705875
EXTRACT: note_on channel=11 note=60 velocity=104 time=0
EXTRACT: note_on channel=11 note=63 velocity=91 time=0
EXTRACT: note_on channel=0 note=39 velocity=123 time=0.0012254895833333332
EXTRACT: note_on channel=9 note=42 velocity=97 time=0
EXTRACT: note_on channel=9 note=36 velocity=120 time=0
EXTRACT: note_on channel=9 note=54 velocity=71 time=0
EXTRACT: note_on channel=9 note=42 velocity=0 time=0.049019583333333325
EXTRACT: note_on channel=9 note=36 velocity=0 time=0
EXTRACT: note_on channel=9 note=54 velocity=0 time=0
EXTRACT: note_on channel=11 note=56 velocity=0 time=0.09681367708333333
EXTRACT: note_on channel=11 note=60 velocity=0 time=0
EXTRACT: note_on channel=11 note=63 velocity=0 time=0
EXTRACT: note_on channel=0 note=39 velocity=0 time=0.0012254895833333332
EXTRACT: note_on channel=11 note=56 velocity=99 time=0.14583326041666664
EXTRACT: note_on channel=11 note=60 velocity=87 time=0
EXTRACT: note_on channel=11 note=63 velocity=111 time=0
EXTRACT: note_on channel=0 note=44 velocity=108 time=0.0012254895833333332
EXTRACT: note_on channel=9 note=42 velocity=80 time=0
EXTRACT: note_on channel=9 note=36 velocity=120 time=0
EXTRACT: note_on channel=9 note=42 velocity=0 time=0.049019583333333325
EXTRACT: note_on channel=9 note=36 velocity=0 time=0
EXTRACT: note_on channel=11 note=56 velocity=0 time=0.09681367708333333
EXTRACT: note_on channel=11 note=60 velocity=0 time=0
EXTRACT: note_on channel=11 note=63 velocity=0 time=0
EXTRACT: note_on channel=11 note=56 velocity=110 time=0.14705875
EXTRACT: note_on channel=11 note=60 velocity=112 time=0
EXTRACT: note_on channel=11 note=63 velocity=92 time=0
EXTRACT: note_on channel=0 note=44 velocity=0 time=0.0012254895833333332
EXTRACT: note_on channel=9 note=42 velocity=95 time=0
EXTRACT: note_on channel=9 note=54 velocity=77 time=0
EXTRACT: note_on channel=14 note=67 velocity=115 time=0
EXTRACT: note_on channel=9 note=42 velocity=0 time=0.049019583333333325
EXTRACT: note_on channel=9 note=54 velocity=0 time=0
EXTRACT: note_on channel=11 note=56 velocity=0 time=0.09681367708333333
EXTRACT: note_on channel=11 note=60 velocity=0 time=0
EXTRACT: note_on channel=11 note=63 velocity=0 time=0
EXTRACT: note_on channel=14 note=67 velocity=0 time=0.0012254895833333332
EXTRACT: note_on channel=11 note=55 velocity=93 time=0.14583326041666664
EXTRACT: note_on channel=11 note=60 velocity=94 time=0
EXTRACT: note_on channel=11 note=63 velocity=109 time=0
EXTRACT: note_on channel=0 note=43 velocity=117 time=0.0012254895833333332
EXTRACT: note_on channel=2 note=60 velocity=0 time=0
EXTRACT: note_on channel=2 note=63 velocity=0 time=0
EXTRACT: note_on channel=2 note=68 velocity=0 time=0
EXTRACT: note_on channel=2 note=67 velocity=120 time=0
EXTRACT: note_on channel=2 note=63 velocity=118 time=0
EXTRACT: note_on channel=3 note=60 velocity=0 time=0
EXTRACT: note_on channel=3 note=56 velocity=0 time=0
EXTRACT: note_on channel=3 note=55 velocity=79 time=0
EXTRACT: note_on channel=9 note=42 velocity=76 time=0
EXTRACT: note_on channel=9 note=40 velocity=127 time=0
EXTRACT: note_on channel=14 note=72 velocity=106 time=0
EXTRACT: note_on channel=9 note=42 velocity=0 time=0.049019583333333325
EXTRACT: note_on channel=9 note=40 velocity=0 time=0
EXTRACT: note_on channel=11 note=55 velocity=0 time=0.09681367708333333
EXTRACT: note_on channel=11 note=60 velocity=0 time=0
EXTRACT: note_on channel=11 note=63 velocity=0 time=0
EXTRACT: note_on channel=14 note=72 velocity=0 time=0.0012254895833333332
EXTRACT: note_on channel=11 note=55 velocity=109 time=0.14583326041666664
EXTRACT: note_on channel=11 note=60 velocity=105 time=0
EXTRACT: note_on channel=11 note=63 velocity=106 time=0
EXTRACT: note_on channel=9 note=42 velocity=100 time=0.0012254895833333332
EXTRACT: note_on channel=9 note=54 velocity=83 time=0
EXTRACT: note_on channel=14 note=74 velocity=105 time=0
EXTRACT: note_on channel=9 note=42 velocity=0 time=0.049019583333333325
EXTRACT: note_on channel=9 note=54 velocity=0 time=0
EXTRACT: note_on channel=11 note=55 velocity=0 time=0.09681367708333333
EXTRACT: note_on channel=11 note=60 velocity=0 time=0
EXTRACT: note_on channel=11 note=63 velocity=0 time=0
EXTRACT: note_on channel=0 note=43 velocity=0 time=0.0012254895833333332
EXTRACT: note_on channel=14 note=74 velocity=0 time=0
EXTRACT: note_on channel=11 note=56 velocity=88 time=0.14583326041666664
EXTRACT: note_on channel=11 note=60 velocity=89 time=0
EXTRACT: note_on channel=11 note=63 velocity=95 time=0
EXTRACT: note_on channel=0 note=41 velocity=103 time=0.0012254895833333332
EXTRACT: note_on channel=2 note=67 velocity=0 time=0
EXTRACT: note_on channel=2 note=63 velocity=0 time=0
EXTRACT: note_on channel=2 note=56 velocity=112 time=0
EXTRACT: note_on channel=2 note=60 velocity=113 time=0
EXTRACT: note_on channel=2 note=65 velocity=125 time=0
EXTRACT: note_on channel=3 note=63 velocity=0 time=0
EXTRACT: note_on channel=3 note=55 velocity=0 time=0
EXTRACT: note_on channel=3 note=60 velocity=88 time=0
EXTRACT: note_on channel=3 note=56 velocity=87 time=0
EXTRACT: note_on channel=9 note=42 velocity=76 time=0
EXTRACT: note_on channel=9 note=36 velocity=120 time=0
EXTRACT: note_on channel=14 note=75 velocity=111 time=0
EXTRACT: note_on channel=9 note=42 velocity=0 time=0.049019583333333325
EXTRACT: note_on channel=9 note=36 velocity=0 time=0
EXTRACT: note_on channel=11 note=56 velocity=0 time=0.09681367708333333
EXTRACT: note_on channel=11 note=60 velocity=0 time=0
EXTRACT: note_on channel=11 note=63 velocity=0 time=0
EXTRACT: note_on channel=0 note=41 velocity=0 time=0.0012254895833333332
EXTRACT: note_on channel=11 note=56 velocity=111 time=0.14583326041666664
EXTRACT: note_on channel=11 note=60 velocity=89 time=0
EXTRACT: note_on channel=11 note=63 velocity=106 time=0
EXTRACT: note_on channel=0 note=41 velocity=121 time=0.0012254895833333332
EXTRACT: note_on channel=9 note=42 velocity=100 time=0
EXTRACT: note_on channel=9 note=36 velocity=120 time=0
EXTRACT: note_on channel=9 note=54 velocity=72 time=0
EXTRACT: note_on channel=9 note=42 velocity=0 time=0.049019583333333325
EXTRACT: note_on channel=9 note=36 velocity=0 time=0
EXTRACT: note_on channel=9 note=54 velocity=0 time=0
EXTRACT: note_on channel=11 note=56 velocity=0 time=0.09681367708333333
EXTRACT: note_on channel=11 note=60 velocity=0 time=0
EXTRACT: note_on channel=11 note=63 velocity=0 time=0
EXTRACT: note_on channel=0 note=41 velocity=0 time=0.0012254895833333332
EXTRACT: note_on channel=11 note=56 velocity=99 time=0.14583326041666664
EXTRACT: note_on channel=11 note=60 velocity=89 time=0
EXTRACT: note_on channel=11 note=63 velocity=101 time=0
EXTRACT: note_on channel=9 note=42 velocity=73 time=0.0012254895833333332
EXTRACT: note_on channel=9 note=40 velocity=127 time=0
EXTRACT: note_on channel=9 note=42 velocity=0 time=0.049019583333333325
EXTRACT: note_on channel=9 note=40 velocity=0 time=0
EXTRACT: note_on channel=11 note=56 velocity=0 time=0.09681367708333333
EXTRACT: note_on channel=11 note=60 velocity=0 time=0
EXTRACT: note_on channel=11 note=63 velocity=0 time=0
EXTRACT: note_on channel=14 note=75 velocity=0 time=0.0012254895833333332
EXTRACT: note_on channel=11 note=56 velocity=100 time=0.14583326041666664
EXTRACT: note_on channel=11 note=60 velocity=104 time=0
EXTRACT: note_on channel=11 note=63 velocity=87 time=0
EXTRACT: note_on channel=0 note=41 velocity=119 time=0.0012254895833333332
EXTRACT: note_on channel=9 note=42 velocity=103 time=0
EXTRACT: note_on channel=9 note=36 velocity=120 time=0
EXTRACT: note_on channel=9 note=54 velocity=69 time=0
EXTRACT: note_on channel=14 note=74 velocity=125 time=0
EXTRACT: note_on channel=9 note=42 velocity=0 time=0.049019583333333325
EXTRACT: note_on channel=9 note=36 velocity=0 time=0
EXTRACT: note_on channel=9 note=54 velocity=0 time=0
EXTRACT: note_on channel=11 note=56 velocity=0 time=0.09681367708333333
EXTRACT: note_on channel=11 note=60 velocity=0 time=0
EXTRACT: note_on channel=11 note=63 velocity=0 time=0
EXTRACT: note_on channel=0 note=41 velocity=0 time=0.0012254895833333332
EXTRACT: note_on channel=14 note=74 velocity=0 time=0
EXTRACT: note_on channel=11 note=56 velocity=111 time=0.14583326041666664
EXTRACT: note_on channel=11 note=60 velocity=90 time=0
EXTRACT: note_on channel=11 note=63 velocity=110 time=0
EXTRACT: note_on channel=0 note=41 velocity=108 time=0.0012254895833333332
EXTRACT: note_on channel=9 note=42 velocity=76 time=0
EXTRACT: note_on channel=9 note=36 velocity=120 time=0
EXTRACT: note_on channel=14 note=72 velocity=105 time=0
EXTRACT: note_on channel=9 note=42 velocity=0 time=0.049019583333333325
EXTRACT: note_on channel=9 note=36 velocity=0 time=0
EXTRACT: note_on channel=11 note=56 velocity=0 time=0.09681367708333333
EXTRACT: note_on channel=11 note=60 velocity=0 time=0
EXTRACT: note_on channel=11 note=63 velocity=0 time=0
EXTRACT: note_on channel=0 note=41 velocity=0 time=0.0012254895833333332
EXTRACT: note_on channel=11 note=56 velocity=88 time=0.14583326041666664
EXTRACT: note_on channel=11 note=60 velocity=96 time=0
EXTRACT: note_on channel=11 note=63 velocity=109 time=0
EXTRACT: note_on channel=0 note=41 velocity=105 time=0.0012254895833333332
EXTRACT: note_on channel=9 note=36 velocity=120 time=0
EXTRACT: note_on channel=9 note=42 velocity=96 time=0
EXTRACT: note_on channel=9 note=54 velocity=67 time=0
EXTRACT: note_on channel=9 note=36 velocity=0 time=0.049019583333333325
EXTRACT: note_on channel=9 note=42 velocity=0 time=0
EXTRACT: note_on channel=9 note=54 velocity=0 time=0
EXTRACT: note_on channel=11 note=56 velocity=0 time=0.09681367708333333
EXTRACT: note_on channel=11 note=60 velocity=0 time=0
EXTRACT: note_on channel=11 note=63 velocity=0 time=0
EXTRACT: note_on channel=0 note=41 velocity=0 time=0.0012254895833333332
EXTRACT: note_on channel=11 note=56 velocity=94 time=0.14583326041666664
EXTRACT: note_on channel=11 note=60 velocity=87 time=0
EXTRACT: note_on channel=11 note=63 velocity=107 time=0
EXTRACT: note_on channel=9 note=42 velocity=79 time=0.0012254895833333332
EXTRACT: note_on channel=9 note=40 velocity=127 time=0
EXTRACT: note_on channel=9 note=42 velocity=0 time=0.049019583333333325
EXTRACT: note_on channel=9 note=40 velocity=0 time=0
EXTRACT: note_on channel=11 note=56 velocity=0 time=0.09681367708333333
EXTRACT: note_on channel=11 note=60 velocity=0 time=0
EXTRACT: note_on channel=11 note=63 velocity=0 time=0
EXTRACT: note_on channel=14 note=72 velocity=0 time=0.0012254895833333332
EXTRACT: note_on channel=11 note=56 velocity=92 time=0.14583326041666664
EXTRACT: note_on channel=11 note=60 velocity=92 time=0
EXTRACT: note_on channel=11 note=63 velocity=109 time=0
EXTRACT: note_on channel=0 note=38 velocity=118 time=0.0012254895833333332
EXTRACT: note_on channel=9 note=36 velocity=100 time=0
EXTRACT: note_on channel=9 note=42 velocity=105 time=0
EXTRACT: note_on channel=9 note=54 velocity=79 time=0
EXTRACT: note_on channel=9 note=36 velocity=0 time=0.049019583333333325
EXTRACT: note_on channel=9 note=42 velocity=0 time=0
EXTRACT: note_on channel=9 note=54 velocity=0 time=0
EXTRACT: note_on channel=11 note=56 velocity=0 time=0.09681367708333333
EXTRACT: note_on channel=11 note=60 velocity=0 time=0
EXTRACT: note_on channel=11 note=63 velocity=0 time=0
EXTRACT: note_on channel=0 note=38 velocity=0 time=0.0012254895833333332
EXTRACT: note_on channel=11 note=55 velocity=87 time=0.14583326041666664
EXTRACT: note_on channel=11 note=62 velocity=111 time=0
EXTRACT: note_on channel=0 note=31 velocity=102 time=0.0012254895833333332
EXTRACT: note_on channel=2 note=56 velocity=0 time=0
EXTRACT: note_on channel=2 note=60 velocity=0 time=0
EXTRACT: note_on channel=2 note=65 velocity=0 time=0
EXTRACT: note_on channel=2 note=67 velocity=114 time=0
EXTRACT: note_on channel=2 note=62 velocity=111 time=0
EXTRACT: note_on channel=2 note=59 velocity=124 time=0
EXTRACT: note_on channel=3 note=60 velocity=0 time=0
EXTRACT: note_on channel=3 note=56 velocity=0 time=0
EXTRACT: note_on channel=3 note=67 velocity=99 time=0
EXTRACT: note_on channel=3 note=62 velocity=87 time=0
EXTRACT: note_on channel=3 note=59 velocity=80 time=0
EXTRACT: note_on channel=9 note=42 velocity=84 time=0
EXTRACT: note_on channel=9 note=36 velocity=120 time=0
EXTRACT: note_on channel=14 note=79 velocity=124 time=0
EXTRACT: note_on channel=9 note=42 velocity=0 time=0.049019583333333325
EXTRACT: note_on channel=9 note=36 velocity=0 time=0
EXTRACT: note_on channel=14 note=79 velocity=0 time=0.09803916666666665
EXTRACT: note_on channel=11 note=55 velocity=0 time=0.14583326041666664
EXTRACT: note_on channel=11 note=62 velocity=0 time=0
EXTRACT: note_on channel=2 note=67 velocity=0 time=0.0012254895833333332
EXTRACT: note_on channel=2 note=62 velocity=0 time=0
EXTRACT: note_on channel=2 note=59 velocity=0 time=0
EXTRACT: note_on channel=3 note=67 velocity=0 time=0
EXTRACT: note_on channel=3 note=62 velocity=0 time=0
EXTRACT: note_on channel=3 note=59 velocity=0 time=0
EXTRACT: note_on channel=9 note=42 velocity=95 time=0
EXTRACT: note_on channel=9 note=54 velocity=78 time=0
EXTRACT: note_on channel=14 note=80 velocity=106 time=0
EXTRACT: note_on channel=9 note=42 velocity=0 time=0.049019583333333325
EXTRACT: note_on channel=9 note=54 velocity=0 time=0
EXTRACT: note_on channel=0 note=31 velocity=0 time=0.09803916666666665
EXTRACT: note_on channel=14 note=80 velocity=0 time=0
EXTRACT: note_on channel=11 note=55 velocity=98 time=0.14583326041666664
EXTRACT: note_on channel=11 note=62 velocity=87 time=0
EXTRACT: note_on channel=0 note=31 velocity=105 time=0.0012254895833333332
EXTRACT: note_on channel=2 note=67 velocity=113 time=0
EXTRACT: note_on channel=2 note=62 velocity=114 time=0
EXTRACT: note_on channel=2 note=59 velocity=110 time=0
EXTRACT: note_on channel=3 note=67 velocity=97 time=0
EXTRACT: note_on channel=3 note=62 velocity=95 time=0
EXTRACT: note_on channel=3 note=59 velocity=87 time=0
EXTRACT: note_on channel=9 note=42 velocity=76 time=0
EXTRACT: note_on channel=9 note=40 velocity=127 time=0
EXTRACT: note_on channel=14 note=77 velocity=124 time=0
EXTRACT: note_on channel=9 note=42 velocity=0 time=0.049019583333333325
EXTRACT: note_on channel=9 note=40 velocity=0 time=0
EXTRACT: note_on channel=14 note=77 velocity=0 time=0.09803916666666665
EXTRACT: note_on channel=11 note=55 velocity=0 time=0.14583326041666664
EXTRACT: note_on channel=11 note=62 velocity=0 time=0
EXTRACT: note_on channel=2 note=67 velocity=0 time=0.0012254895833333332
EXTRACT: note_on channel=2 note=62 velocity=0 time=0
EXTRACT: note_on channel=2 note=59 velocity=0 time=0
EXTRACT: note_on channel=3 note=67 velocity=0 time=0
EXTRACT: note_on channel=3 note=62 velocity=0 time=0
EXTRACT: note_on channel=3 note=59 velocity=0 time=0
EXTRACT: note_on channel=9 note=42 velocity=101 time=0
EXTRACT: note_on channel=9 note=36 velocity=120 time=0
EXTRACT: note_on channel=9 note=54 velocity=74 time=0
EXTRACT: note_on channel=14 note=79 velocity=114 time=0
EXTRACT: note_on channel=9 note=42 velocity=0 time=0.049019583333333325
EXTRACT: note_on channel=9 note=36 velocity=0 time=0
EXTRACT: note_on channel=9 note=54 velocity=0 time=0
EXTRACT: note_on channel=0 note=31 velocity=0 time=0.09803916666666665
EXTRACT: note_on channel=14 note=79 velocity=0 time=0
EXTRACT: note_on channel=11 note=55 velocity=105 time=0.14583326041666664
EXTRACT: note_on channel=11 note=62 velocity=112 time=0
EXTRACT: note_on channel=0 note=31 velocity=127 time=0.0012254895833333332
EXTRACT: note_on channel=2 note=67 velocity=107 time=0
EXTRACT: note_on channel=2 note=62 velocity=110 time=0
EXTRACT: note_on channel=2 note=59 velocity=120 time=0
EXTRACT: note_on channel=3 note=67 velocity=83 time=0
EXTRACT: note_on channel=3 note=62 velocity=89 time=0
EXTRACT: note_on channel=3 note=59 velocity=96 time=0
EXTRACT: note_on channel=9 note=42 velocity=79 time=0
EXTRACT: note_on channel=9 note=36 velocity=120 time=0
EXTRACT: note_on channel=14 note=75 velocity=114 time=0
EXTRACT: note_on channel=9 note=42 velocity=0 time=0.049019583333333325
EXTRACT: note_on channel=9 note=36 velocity=0 time=0
EXTRACT: note_on channel=14 note=75 velocity=0 time=0.09803916666666665
EXTRACT: note_on channel=11 note=55 velocity=0 time=0.14583326041666664
EXTRACT: note_on channel=11 note=62 velocity=0 time=0
EXTRACT: note_on channel=2 note=67 velocity=0 time=0.0012254895833333332
EXTRACT: note_on channel=2 note=62 velocity=0 time=0
EXTRACT: note_on channel=2 note=59 velocity=0 time=0
EXTRACT: note_on channel=3 note=67 velocity=0 time=0
EXTRACT: note_on channel=3 note=62 velocity=0 time=0
EXTRACT: note_on channel=3 note=59 velocity=0 time=0
EXTRACT: note_on channel=9 note=36 velocity=120 time=0
EXTRACT: note_on channel=9 note=42 velocity=97 time=0
EXTRACT: note_on channel=9 note=54 velocity=77 time=0
EXTRACT: note_on channel=14 note=77 velocity=100 time=0
EXTRACT: note_on channel=9 note=36 velocity=0 time=0.049019583333333325
EXTRACT: note_on channel=9 note=42 velocity=0 time=0
EXTRACT: note_on channel=9 note=54 velocity=0 time=0
EXTRACT: note_on channel=0 note=31 velocity=0 time=0.09803916666666665
EXTRACT: note_on channel=14 note=77 velocity=0 time=0
EXTRACT: note_on channel=11 note=55 velocity=104 time=0.14583326041666664
EXTRACT: note_on channel=11 note=62 velocity=98 time=0
EXTRACT: note_on channel=0 note=31 velocity=110 time=0.0012254895833333332
EXTRACT: note_on channel=2 note=67 velocity=111 time=0
EXTRACT: note_on channel=2 note=62 velocity=104 time=0
EXTRACT: note_on channel=2 note=59 velocity=123 time=0
EXTRACT: note_on channel=3 note=67 velocity=83 time=0
EXTRACT: note_on channel=3 note=62 velocity=96 time=0
EXTRACT: note_on channel=3 note=59 velocity=96 time=0
EXTRACT: note_on channel=9 note=42 velocity=83 time=0
EXTRACT: note_on channel=9 note=40 velocity=127 time=0
EXTRACT: note_on channel=14 note=74 velocity=111 time=0
EXTRACT: note_on channel=9 note=42 velocity=0 time=0.049019583333333325
EXTRACT: note_on channel=9 note=40 velocity=0 time=0
EXTRACT: note_on channel=14 note=74 velocity=0 time=0.09803916666666665
EXTRACT: note_on channel=11 note=55 velocity=0 time=0.14583326041666664
EXTRACT: note_on channel=11 note=62 velocity=0 time=0
EXTRACT: note_on channel=2 note=67 velocity=0 time=0.0012254895833333332
EXTRACT: note_on channel=2 note=62 velocity=0 time=0
EXTRACT: note_on channel=2 note=59 velocity=0 time=0
EXTRACT: note_on channel=3 note=67 velocity=0 time=0
EXTRACT: note_on channel=3 note=62 velocity=0 time=0
EXTRACT: note_on channel=3 note=59 velocity=0 time=0
EXTRACT: note_on channel=9 note=42 velocity=100 time=0
EXTRACT: note_on channel=9 note=54 velocity=77 time=0
EXTRACT: note_on channel=14 note=75 velocity=112 time=0
EXTRACT: note_on channel=9 note=42 velocity=0 time=0.049019583333333325
EXTRACT: note_on channel=9 note=54 velocity=0 time=0
EXTRACT: note_on channel=0 note=31 velocity=0 time=0.09803916666666665
EXTRACT: note_on channel=14 note=75 velocity=0 time=0
EXTRACT: note_on channel=0 note=36 velocity=101 time=0.14705875
EXTRACT: note_on channel=1 note=72 velocity=103 time=0
EXTRACT: note_on channel=4 note=63 velocity=90 time=0
EXTRACT: note_on channel=4 note=72 velocity=106 time=0
EXTRACT: note_on channel=9 note=28 velocity=93 time=0
EXTRACT: note_on channel=9 note=36 velocity=108 time=0
EXTRACT: note_on channel=10 note=48 velocity=114 time=0
EXTRACT: note_on channel=14 note=72 velocity=95 time=0
EXTRACT: note_on channel=9 note=28 velocity=0 time=0.049019583333333325
EXTRACT: note_on channel=9 note=36 velocity=0 time=0
EXTRACT: note_on channel=9 note=28 velocity=44 time=0.09803916666666665
EXTRACT: note_on channel=10 note=48 velocity=0 time=0
EXTRACT: note_on channel=10 note=48 velocity=63 time=0
EXTRACT: note_on channel=9 note=28 velocity=0 time=0.049019583333333325
EXTRACT: note_on channel=0 note=36 velocity=0 time=0.09803916666666665
EXTRACT: note_on channel=1 note=72 velocity=0 time=0
EXTRACT: note_on channel=4 note=63 velocity=0 time=0
EXTRACT: note_on channel=4 note=72 velocity=0 time=0
EXTRACT: note_on channel=9 note=28 velocity=73 time=0
EXTRACT: note_on channel=9 note=87 velocity=87 time=0
EXTRACT: note_on channel=10 note=48 velocity=0 time=0
EXTRACT: note_on channel=10 note=48 velocity=90 time=0
EXTRACT: note_on channel=9 note=54 velocity=71 time=0
EXTRACT: note_on channel=14 note=72 velocity=0 time=0
EXTRACT: note_on channel=9 note=28 velocity=0 time=0.049019583333333325
EXTRACT: note_on channel=9 note=87 velocity=0 time=0
EXTRACT: note_on channel=9 note=54 velocity=0 time=0
EXTRACT: note_on channel=9 note=28 velocity=44 time=0.09803916666666665
EXTRACT: note_on channel=10 note=48 velocity=0 time=0
EXTRACT: note_on channel=10 note=48 velocity=63 time=0
EXTRACT: note_on channel=9 note=28 velocity=0 time=0.049019583333333325
EXTRACT: note_on channel=0 note=36 velocity=113 time=0.09803916666666665
EXTRACT: note_on channel=1 note=72 velocity=102 time=0
EXTRACT: note_on channel=4 note=63 velocity=90 time=0
EXTRACT: note_on channel=4 note=72 velocity=121 time=0
EXTRACT: note_on channel=9 note=28 velocity=93 time=0
EXTRACT: note_on channel=9 note=36 velocity=108 time=0
EXTRACT: note_on channel=10 note=48 velocity=0 time=0
EXTRACT: note_on channel=10 note=48 velocity=114 time=0
EXTRACT: note_on channel=9 note=28 velocity=0 time=0.049019583333333325
EXTRACT: note_on channel=9 note=36 velocity=0 time=0
EXTRACT: note_on channel=9 note=28 velocity=44 time=0.09803916666666665
EXTRACT: note_on channel=10 note=48 velocity=0 time=0
EXTRACT: note_on channel=10 note=48 velocity=63 time=0
EXTRACT: note_on channel=9 note=28 velocity=0 time=0.049019583333333325
EXTRACT: note_on channel=0 note=36 velocity=0 time=0.09803916666666665
EXTRACT: note_on channel=1 note=72 velocity=0 time=0
EXTRACT: note_on channel=4 note=63 velocity=0 time=0
EXTRACT: note_on channel=4 note=72 velocity=0 time=0
EXTRACT: note_on channel=9 note=28 velocity=51 time=0
EXTRACT: note_on channel=9 note=87 velocity=87 time=0
EXTRACT: note_on channel=10 note=48 velocity=0 time=0
EXTRACT: note_on channel=10 note=48 velocity=90 time=0
EXTRACT: note_on channel=9 note=54 velocity=61 time=0
EXTRACT: note_on channel=9 note=28 velocity=0 time=0.049019583333333325
EXTRACT: note_on channel=9 note=87 velocity=0 time=0
EXTRACT: note_on channel=9 note=54 velocity=0 time=0
EXTRACT: note_on channel=9 note=28 velocity=87 time=0.09803916666666665
EXTRACT: note_on channel=10 note=48 velocity=0 time=0
EXTRACT: note_on channel=10 note=48 velocity=63 time=0
EXTRACT: note_on channel=9 note=28 velocity=0 time=0.049019583333333325
EXTRACT: note_on channel=0 note=36 velocity=98 time=0.09803916666666665
EXTRACT: note_on channel=1 note=72 velocity=93 time=0
EXTRACT: note_on channel=4 note=63 velocity=90 time=0
EXTRACT: note_on channel=4 note=72 velocity=106 time=0
EXTRACT: note_on channel=9 note=28 velocity=93 time=0
EXTRACT: note_on channel=9 note=36 velocity=108 time=0
EXTRACT: note_on channel=10 note=48 velocity=0 time=0
EXTRACT: note_on channel=10 note=48 velocity=114 time=0
EXTRACT: note_on channel=9 note=28 velocity=0 time=0.049019583333333325
EXTRACT: note_on channel=9 note=36 velocity=0 time=0
EXTRACT: note_on channel=9 note=28 velocity=44 time=0.09803916666666665
EXTRACT: note_on channel=10 note=48 velocity=0 time=0
EXTRACT: note_on channel=10 note=48 velocity=63 time=0
EXTRACT: note_on channel=9 note=28 velocity=0 time=0.049019583333333325
EXTRACT: note_on channel=0 note=36 velocity=0 time=0.09803916666666665
EXTRACT: note_on channel=1 note=72 velocity=0 time=0
EXTRACT: note_on channel=4 note=63 velocity=0 time=0
EXTRACT: note_on channel=4 note=72 velocity=0 time=0
EXTRACT: note_on channel=9 note=28 velocity=73 time=0
EXTRACT: note_on channel=9 note=87 velocity=87 time=0
EXTRACT: note_on channel=10 note=48 velocity=0 time=0
EXTRACT: note_on channel=10 note=48 velocity=90 time=0
EXTRACT: note_on channel=9 note=54 velocity=73 time=0
EXTRACT: note_on channel=9 note=28 velocity=0 time=0.049019583333333325
EXTRACT: note_on channel=9 note=87 velocity=0 time=0
EXTRACT: note_on channel=9 note=54 velocity=0 time=0
EXTRACT: note_on channel=9 note=28 velocity=44 time=0.09803916666666665
EXTRACT: note_on channel=10 note=48 velocity=0 time=0
EXTRACT: note_on channel=10 note=48 velocity=63 time=0
EXTRACT: note_on channel=9 note=28 velocity=0 time=0.049019583333333325
EXTRACT: note_on channel=0 note=36 velocity=114 time=0.09803916666666665
EXTRACT: note_on channel=1 note=72 velocity=112 time=0
EXTRACT: note_on channel=4 note=63 velocity=90 time=0
EXTRACT: note_on channel=4 note=72 velocity=123 time=0
EXTRACT: note_on channel=9 note=28 velocity=93 time=0
EXTRACT: note_on channel=9 note=36 velocity=108 time=0
EXTRACT: note_on channel=10 note=48 velocity=0 time=0
EXTRACT: note_on channel=10 note=48 velocity=114 time=0
EXTRACT: note_on channel=9 note=28 velocity=0 time=0.049019583333333325
EXTRACT: note_on channel=9 note=36 velocity=0 time=0
EXTRACT: note_on channel=9 note=28 velocity=44 time=0.09803916666666665
EXTRACT: note_on channel=10 note=48 velocity=0 time=0
EXTRACT: note_on channel=10 note=48 velocity=63 time=0
EXTRACT: note_on channel=9 note=28 velocity=0 time=0.049019583333333325
EXTRACT: note_on channel=0 note=36 velocity=0 time=0.09803916666666665
EXTRACT: note_on channel=1 note=72 velocity=0 time=0
EXTRACT: note_on channel=4 note=63 velocity=0 time=0
EXTRACT: note_on channel=4 note=72 velocity=0 time=0
EXTRACT: note_on channel=9 note=28 velocity=73 time=0
EXTRACT: note_on channel=9 note=87 velocity=87 time=0
EXTRACT: note_on channel=10 note=48 velocity=0 time=0
EXTRACT: note_on channel=10 note=48 velocity=90 time=0
EXTRACT: note_on channel=9 note=54 velocity=67 time=0
EXTRACT: note_on channel=9 note=28 velocity=0 time=0.049019583333333325
EXTRACT: note_on channel=9 note=87 velocity=0 time=0
EXTRACT: note_on channel=9 note=54 velocity=0 time=0
EXTRACT: note_on channel=9 note=28 velocity=44 time=0.09803916666666665
EXTRACT: note_on channel=10 note=48 velocity=0 time=0
EXTRACT: note_on channel=10 note=48 velocity=63 time=0
EXTRACT: note_on channel=9 note=28 velocity=0 time=0.049019583333333325
EXTRACT: note_on channel=0 note=36 velocity=109 time=0.09803916666666665
EXTRACT: note_on channel=1 note=60 velocity=119 time=0
EXTRACT: note_on channel=8 note=24 velocity=109 time=0
EXTRACT: note_on channel=9 note=49 velocity=100 time=0
EXTRACT: note_on channel=9 note=36 velocity=120 time=0
EXTRACT: note_on channel=10 note=48 velocity=0 time=0
EXTRACT: note_on channel=9 note=49 velocity=0 time=0.049019583333333325
EXTRACT: note_on channel=9 note=36 velocity=0 time=0
EXTRACT: note_on channel=0 note=36 velocity=0 time=0.09803916666666665
EXTRACT: note_on channel=1 note=60 velocity=0 time=0
EXTRACT: note_on channel=8 note=24 velocity=0 time=0.14215679166666664
EXTRACT: note_on channel=0 note=36 velocity=107 time=0.004901958333333333
EXTRACT: note_on channel=1 note=60 velocity=114 time=0
EXTRACT: note_on channel=8 note=24 velocity=116 time=0
EXTRACT: note_on channel=9 note=42 velocity=95 time=0
EXTRACT: note_on channel=9 note=36 velocity=120 time=0
EXTRACT: note_on channel=9 note=54 velocity=67 time=0
EXTRACT: note_on channel=9 note=42 velocity=0 time=0.049019583333333325
EXTRACT: note_on channel=9 note=36 velocity=0 time=0
EXTRACT: note_on channel=9 note=54 velocity=0 time=0
EXTRACT: note_on channel=0 note=36 velocity=0 time=0.09803916666666665
EXTRACT: note_on channel=1 note=60 velocity=0 time=0
EXTRACT: note_on channel=8 note=24 velocity=0 time=0.14705875
EXTRACT: note_on channel=9 note=42 velocity=72 time=0
EXTRACT: note_on channel=9 note=40 velocity=127 time=0
EXTRACT: note_on channel=9 note=42 velocity=0 time=0.049019583333333325
EXTRACT: note_on channel=9 note=40 velocity=0 time=0
EXTRACT: note_on channel=9 note=42 velocity=103 time=0.24509791666666664
EXTRACT: note_on channel=9 note=36 velocity=120 time=0
EXTRACT: note_on channel=9 note=54 velocity=78 time=0
EXTRACT: note_on channel=13 note=67 velocity=105 time=0
EXTRACT: note_on channel=13 note=63 velocity=104 time=0
EXTRACT: note_on channel=9 note=42 velocity=0 time=0.049019583333333325
EXTRACT: note_on channel=9 note=36 velocity=0 time=0
EXTRACT: note_on channel=9 note=54 velocity=0 time=0
EXTRACT: note_on channel=9 note=42 velocity=77 time=0.24509791666666664
EXTRACT: note_on channel=9 note=36 velocity=120 time=0
EXTRACT: note_on channel=13 note=67 velocity=0 time=0
EXTRACT: note_on channel=13 note=63 velocity=0 time=0
EXTRACT: note_on channel=13 note=65 velocity=87 time=0
EXTRACT: note_on channel=13 note=62 velocity=101 time=0
EXTRACT: note_on channel=9 note=42 velocity=0 time=0.049019583333333325
EXTRACT: note_on channel=9 note=36 velocity=0 time=0
EXTRACT: note_on channel=9 note=42 velocity=105 time=0.24509791666666664
EXTRACT: note_on channel=9 note=54 velocity=71 time=0
EXTRACT: note_on channel=13 note=65 velocity=0 time=0
EXTRACT: note_on channel=13 note=62 velocity=0 time=0
EXTRACT: note_on channel=9 note=42 velocity=0 time=0.049019583333333325
EXTRACT: note_on channel=9 note=54 velocity=0 time=0
EXTRACT: note_on channel=9 note=42 velocity=76 time=0.24509791666666664
EXTRACT: note_on channel=9 note=40 velocity=127 time=0
EXTRACT: note_on channel=13 note=68 velocity=76 time=0
EXTRACT: note_on channel=13 note=65 velocity=98 time=0
EXTRACT: note_on channel=9 note=42 velocity=0 time=0.049019583333333325
EXTRACT: note_on channel=9 note=40 velocity=0 time=0
EXTRACT: note_on channel=9 note=42 velocity=102 time=0.24509791666666664
EXTRACT: note_on channel=9 note=54 velocity=66 time=0
EXTRACT: note_on channel=13 note=68 velocity=0 time=0
EXTRACT: note_on channel=13 note=65 velocity=0 time=0
EXTRACT: note_on channel=9 note=42 velocity=0 time=0.049019583333333325
EXTRACT: note_on channel=9 note=54 velocity=0 time=0
EXTRACT: note_on channel=0 note=32 velocity=127 time=0.24509791666666664
EXTRACT: note_on channel=1 note=68 velocity=103 time=0
EXTRACT: note_on channel=8 note=32 velocity=121 time=0
EXTRACT: note_on channel=9 note=42 velocity=67 time=0
EXTRACT: note_on channel=9 note=36 velocity=120 time=0
EXTRACT: note_on channel=9 note=42 velocity=0 time=0.049019583333333325
EXTRACT: note_on channel=9 note=36 velocity=0 time=0
EXTRACT: note_on channel=0 note=32 velocity=0 time=0.09803916666666665
EXTRACT: note_on channel=1 note=68 velocity=0 time=0
EXTRACT: note_on channel=8 note=32 velocity=0 time=0.14215679166666664
EXTRACT: note_on channel=0 note=32 velocity=126 time=0.004901958333333333
EXTRACT: note_on channel=1 note=68 velocity=118 time=0
EXTRACT: note_on channel=8 note=32 velocity=122 time=0
EXTRACT: note_on channel=9 note=42 velocity=97 time=0
EXTRACT: note_on channel=9 note=36 velocity=120 time=0
EXTRACT: note_on channel=9 note=54 velocity=83 time=0
EXTRACT: note_on channel=9 note=42 velocity=0 time=0.049019583333333325
EXTRACT: note_on channel=9 note=36 velocity=0 time=0
EXTRACT: note_on channel=9 note=54 velocity=0 time=0
EXTRACT: note_on channel=0 note=32 velocity=0 time=0.09803916666666665
EXTRACT: note_on channel=1 note=68 velocity=0 time=0
EXTRACT: note_on channel=8 note=32 velocity=0 time=0.14705875
EXTRACT: note_on channel=9 note=42 velocity=76 time=0
EXTRACT: note_on channel=9 note=40 velocity=127 time=0
EXTRACT: note_on channel=9 note=42 velocity=0 time=0.049019583333333325
EXTRACT: note_on channel=9 note=40 velocity=0 time=0
EXTRACT: note_on channel=9 note=42 velocity=95 time=0.24509791666666664
EXTRACT: note_on channel=9 note=36 velocity=120 time=0
EXTRACT: note_on channel=9 note=54 velocity=68 time=0
EXTRACT: note_on channel=13 note=67 velocity=93 time=0
EXTRACT: note_on channel=13 note=63 velocity=118 time=0
EXTRACT: note_on channel=9 note=42 velocity=0 time=0.049019583333333325
EXTRACT: note_on channel=9 note=36 velocity=0 time=0
EXTRACT: note_on channel=9 note=54 velocity=0 time=0
EXTRACT: program_change channel=0 program=36 time=0.24019595833333332
EXTRACT: note_on channel=0 note=32 velocity=96 time=0.004901958333333333
EXTRACT: control_change channel=6 control=10 value=1 time=0
EXTRACT: note_on channel=6 note=48 velocity=91 time=0
EXTRACT: note_on channel=9 note=42 velocity=127 time=0
EXTRACT: note_on channel=9 note=36 velocity=120 time=0
EXTRACT: note_on channel=13 note=67 velocity=0 time=0
EXTRACT: note_on channel=13 note=63 velocity=0 time=0
EXTRACT: note_on channel=13 note=65 velocity=122 time=0
EXTRACT: note_on channel=13 note=62 velocity=111 time=0
EXTRACT: note_on channel=0 note=32 velocity=0 time=0.004901958333333333
EXTRACT: note_on channel=9 note=42 velocity=0 time=0.044117624999999994
EXTRACT: note_on channel=9 note=36 velocity=0 time=0
EXTRACT: note_on channel=6 note=48 velocity=0 time=0.024509791666666662
EXTRACT: note_on channel=0 note=32 velocity=127 time=0.073529375
EXTRACT: note_on channel=6 note=48 velocity=90 time=0
EXTRACT: note_on channel=9 note=42 velocity=107 time=0
EXTRACT: note_on channel=0 note=32 velocity=0 time=0.009803916666666666
EXTRACT: note_on channel=9 note=42 velocity=0 time=0.03921566666666666
EXTRACT: note_on channel=6 note=48 velocity=0 time=0.024509791666666662
EXTRACT: note_on channel=0 note=32 velocity=87 time=0.073529375
EXTRACT: note_on channel=6 note=48 velocity=57 time=0
EXTRACT: note_on channel=9 note=42 velocity=98 time=0
EXTRACT: note_on channel=9 note=54 velocity=83 time=0
EXTRACT: note_on channel=13 note=65 velocity=0 time=0
EXTRACT: note_on channel=13 note=62 velocity=0 time=0
EXTRACT: note_on channel=0 note=32 velocity=0 time=0.004901958333333333
EXTRACT: note_on channel=9 note=42 velocity=0 time=0.044117624999999994
EXTRACT: note_on channel=9 note=54 velocity=0 time=0
EXTRACT: note_on channel=6 note=48 velocity=0 time=0.024509791666666662
EXTRACT: program_change channel=0 program=35 time=0.22058812499999997
EXTRACT: note_on channel=9 note=42 velocity=83 time=0
EXTRACT: note_on channel=9 note=40 velocity=127 time=0
EXTRACT: note_on channel=13 note=62 velocity=125 time=0
EXTRACT: note_on channel=13 note=59 velocity=115 time=0
EXTRACT: note_on channel=9 note=42 velocity=0 time=0.049019583333333325
EXTRACT: note_on channel=9 note=40 velocity=0 time=0
EXTRACT: note_on channel=9 note=36 velocity=120 time=0.24509791666666664
EXTRACT: note_on channel=9 note=42 velocity=96 time=0
EXTRACT: note_on channel=9 note=54 velocity=74 time=0
EXTRACT: note_on channel=13 note=62 velocity=0 time=0
EXTRACT: note_on channel=13 note=59 velocity=0 time=0
EXTRACT: note_on channel=9 note=36 velocity=0 time=0.049019583333333325
EXTRACT: note_on channel=9 note=42 velocity=0 time=0
EXTRACT: note_on channel=9 note=54 velocity=0 time=0
EXTRACT: note_on channel=0 note=36 velocity=115 time=0.24509791666666664
EXTRACT: note_on channel=1 note=60 velocity=119 time=0
EXTRACT: note_on channel=8 note=24 velocity=117 time=0
EXTRACT: note_on channel=9 note=42 velocity=71 time=0
EXTRACT: note_on channel=9 note=36 velocity=120 time=0
EXTRACT: note_on channel=9 note=42 velocity=0 time=0.049019583333333325
EXTRACT: note_on channel=9 note=36 velocity=0 time=0
EXTRACT: note_on channel=0 note=36 velocity=0 time=0.09803916666666665
EXTRACT: note_on channel=1 note=60 velocity=0 time=0
EXTRACT: note_on channel=8 note=24 velocity=0 time=0.14215679166666664
EXTRACT: note_on channel=0 note=36 velocity=109 time=0.004901958333333333
EXTRACT: note_on channel=1 note=60 velocity=108 time=0
EXTRACT: note_on channel=8 note=24 velocity=121 time=0
EXTRACT: note_on channel=9 note=42 velocity=103 time=0
EXTRACT: note_on channel=9 note=36 velocity=120 time=0
EXTRACT: note_on channel=9 note=54 velocity=80 time=0
EXTRACT: note_on channel=9 note=42 velocity=0 time=0.049019583333333325
EXTRACT: note_on channel=9 note=36 velocity=0 time=0
EXTRACT: note_on channel=9 note=54 velocity=0 time=0
EXTRACT: note_on channel=0 note=36 velocity=0 time=0.09803916666666665
EXTRACT: note_on channel=1 note=60 velocity=0 time=0
EXTRACT: note_on channel=8 note=24 velocity=0 time=0.14705875
EXTRACT: note_on channel=9 note=42 velocity=79 time=0
EXTRACT: note_on channel=9 note=40 velocity=127 time=0
EXTRACT: note_on channel=9 note=42 velocity=0 time=0.049019583333333325
EXTRACT: note_on channel=9 note=40 velocity=0 time=0
EXTRACT: note_on channel=9 note=42 velocity=97 time=0.24509791666666664
EXTRACT: note_on channel=9 note=36 velocity=120 time=0
EXTRACT: note_on channel=9 note=54 velocity=82 time=0
EXTRACT: note_on channel=13 note=67 velocity=122 time=0
EXTRACT: note_on channel=13 note=63 velocity=117 time=0
EXTRACT: note_on channel=9 note=42 velocity=0 time=0.049019583333333325
EXTRACT: note_on channel=9 note=36 velocity=0 time=0
EXTRACT: note_on channel=9 note=54 velocity=0 time=0
EXTRACT: note_on channel=9 note=42 velocity=80 time=0.24509791666666664
EXTRACT: note_on channel=9 note=36 velocity=120 time=0
EXTRACT: note_on channel=13 note=67 velocity=0 time=0
EXTRACT: note_on channel=13 note=63 velocity=0 time=0
EXTRACT: note_on channel=13 note=65 velocity=79 time=0
EXTRACT: note_on channel=13 note=62 velocity=127 time=0
EXTRACT: note_on channel=9 note=42 velocity=0 time=0.049019583333333325
EXTRACT: note_on channel=9 note=36 velocity=0 time=0
EXTRACT: note_on channel=9 note=42 velocity=96 time=0.24509791666666664
EXTRACT: note_on channel=9 note=54 velocity=69 time=0
EXTRACT: note_on channel=13 note=65 velocity=0 time=0
EXTRACT: note_on channel=13 note=62 velocity=0 time=0
EXTRACT: note_on channel=9 note=42 velocity=0 time=0.049019583333333325
EXTRACT: note_on channel=9 note=54 velocity=0 time=0
EXTRACT: note_on channel=9 note=42 velocity=78 time=0.24509791666666664
EXTRACT: note_on channel=9 note=40 velocity=127 time=0
EXTRACT: note_on channel=13 note=68 velocity=94 time=0
EXTRACT: note_on channel=13 note=65 velocity=122 time=0
EXTRACT: note_on channel=9 note=42 velocity=0 time=0.049019583333333325
EXTRACT: note_on channel=9 note=40 velocity=0 time=0
EXTRACT: note_on channel=9 note=36 velocity=120 time=0.24509791666666664
EXTRACT: note_on channel=9 note=42 velocity=105 time=0
EXTRACT: note_on channel=9 note=54 velocity=85 time=0
EXTRACT: note_on channel=13 note=68 velocity=0 time=0
EXTRACT: note_on channel=13 note=65 velocity=0 time=0
EXTRACT: note_on channel=9 note=36 velocity=0 time=0.049019583333333325
EXTRACT: note_on channel=9 note=42 velocity=0 time=0
EXTRACT: note_on channel=9 note=54 velocity=0 time=0
EXTRACT: note_on channel=0 note=32 velocity=102 time=0.24509791666666664
EXTRACT: note_on channel=1 note=68 velocity=110 time=0
EXTRACT: note_on channel=8 note=32 velocity=113 time=0
EXTRACT: note_on channel=9 note=42 velocity=67 time=0
EXTRACT: note_on channel=9 note=36 velocity=120 time=0
EXTRACT: note_on channel=9 note=42 velocity=0 time=0.049019583333333325
EXTRACT: note_on channel=9 note=36 velocity=0 time=0
EXTRACT: note_on channel=0 note=32 velocity=0 time=0.09803916666666665
EXTRACT: note_on channel=1 note=68 velocity=0 time=0
EXTRACT: note_on channel=8 note=32 velocity=0 time=0.14215679166666664
EXTRACT: note_on channel=0 note=32 velocity=102 time=0.004901958333333333
EXTRACT: note_on channel=1 note=68 velocity=125 time=0
EXTRACT: note_on channel=8 note=32 velocity=103 time=0
EXTRACT: note_on channel=9 note=42 velocity=96 time=0
EXTRACT: note_on channel=9 note=36 velocity=120 time=0
EXTRACT: note_on channel=9 note=54 velocity=85 time=0
EXTRACT: note_on channel=9 note=42 velocity=0 time=0.049019583333333325
EXTRACT: note_on channel=9 note=36 velocity=0 time=0
EXTRACT: note_on channel=9 note=54 velocity=0 time=0
EXTRACT: note_on channel=0 note=32 velocity=0 time=0.09803916666666665
EXTRACT: note_on channel=1 note=68 velocity=0 time=0
EXTRACT: note_on channel=8 note=32 velocity=0 time=0.14705875
EXTRACT: note_on channel=9 note=42 velocity=71 time=0
EXTRACT: note_on channel=9 note=40 velocity=127 time=0
EXTRACT: note_on channel=9 note=42 velocity=0 time=0.049019583333333325
EXTRACT: note_on channel=9 note=40 velocity=0 time=0
EXTRACT: note_on channel=9 note=42 velocity=96 time=0.24509791666666664
EXTRACT: note_on channel=9 note=36 velocity=120 time=0
EXTRACT: note_on channel=9 note=54 velocity=67 time=0
EXTRACT: note_on channel=13 note=67 velocity=96 time=0
EXTRACT: note_on channel=13 note=63 velocity=123 time=0
EXTRACT: note_on channel=9 note=42 velocity=0 time=0.049019583333333325
EXTRACT: note_on channel=9 note=36 velocity=0 time=0
EXTRACT: note_on channel=9 note=54 velocity=0 time=0
EXTRACT: control_change channel=6 control=10 value=127 time=0.24509791666666664
EXTRACT: note_on channel=6 note=48 velocity=70 time=0
EXTRACT: note_on channel=9 note=42 velocity=77 time=0
EXTRACT: note_on channel=9 note=36 velocity=120 time=0
EXTRACT: note_on channel=13 note=67 velocity=0 time=0
EXTRACT: note_on channel=13 note=63 velocity=0 time=0
EXTRACT: note_on channel=13 note=65 velocity=93 time=0
EXTRACT: note_on channel=13 note=62 velocity=122 time=0
EXTRACT: note_on channel=9 note=42 velocity=0 time=0.049019583333333325
EXTRACT: note_on channel=9 note=36 velocity=0 time=0
EXTRACT: note_on channel=6 note=48 velocity=0 time=0.024509791666666662
EXTRACT: note_on channel=6 note=48 velocity=83 time=0.073529375
EXTRACT: note_on channel=6 note=48 velocity=0 time=0.073529375
EXTRACT: note_on channel=6 note=48 velocity=60 time=0.073529375
EXTRACT: note_on channel=9 note=36 velocity=120 time=0
EXTRACT: note_on channel=9 note=42 velocity=103 time=0
EXTRACT: note_on channel=9 note=54 velocity=73 time=0
EXTRACT: note_on channel=13 note=65 velocity=0 time=0
EXTRACT: note_on channel=13 note=62 velocity=0 time=0
EXTRACT: note_on channel=9 note=36 velocity=0 time=0.049019583333333325
EXTRACT: note_on channel=9 note=42 velocity=0 time=0
EXTRACT: note_on channel=9 note=54 velocity=0 time=0
EXTRACT: note_on channel=6 note=48 velocity=0 time=0.024509791666666662
EXTRACT: note_on channel=9 note=42 velocity=81 time=0.22058812499999997
EXTRACT: note_on channel=9 note=40 velocity=127 time=0
EXTRACT: note_on channel=13 note=62 velocity=102 time=0
EXTRACT: note_on channel=13 note=59 velocity=98 time=0
EXTRACT: note_on channel=9 note=42 velocity=0 time=0.049019583333333325
EXTRACT: note_on channel=9 note=40 velocity=0 time=0
EXTRACT: note_on channel=9 note=54 velocity=79 time=0.24509791666666664
EXTRACT: note_on channel=13 note=62 velocity=0 time=0
EXTRACT: note_on channel=13 note=59 velocity=0 time=0
EXTRACT: note_on channel=9 note=54 velocity=0 time=0.049019583333333325
EXTRACT: note_on channel=2 note=67 velocity=105 time=0.24509791666666664
EXTRACT: note_on channel=2 note=63 velocity=106 time=0
EXTRACT: note_on channel=2 note=60 velocity=118 time=0
EXTRACT: note_on channel=3 note=60 velocity=61 time=0
EXTRACT: note_on channel=3 note=63 velocity=39 time=0
EXTRACT: note_on channel=3 note=67 velocity=39 time=0
EXTRACT: note_on channel=14 note=72 velocity=105 time=0
EXTRACT: note_on channel=14 note=72 velocity=0 time=0.2941175
EXTRACT: note_on channel=14 note=72 velocity=99 time=0.2941175
EXTRACT: note_on channel=14 note=72 velocity=0 time=0.2941175
EXTRACT: note_on channel=2 note=67 velocity=0 time=0.2941175
EXTRACT: note_on channel=2 note=63 velocity=0 time=0
EXTRACT: note_on channel=2 note=60 velocity=0 time=0
EXTRACT: note_on channel=2 note=67 velocity=125 time=0
EXTRACT: note_on channel=2 note=63 velocity=126 time=0
EXTRACT: note_on channel=2 note=59 velocity=119 time=0
EXTRACT: note_on channel=3 note=60 velocity=0 time=0
EXTRACT: note_on channel=3 note=59 velocity=50 time=0
EXTRACT: note_on channel=14 note=74 velocity=105 time=0
EXTRACT: note_on channel=14 note=74 velocity=0 time=0.28921554166666663
EXTRACT: note_on channel=14 note=75 velocity=119 time=0.004901958333333333
EXTRACT: note_on channel=14 note=75 velocity=0 time=0.14215679166666664
EXTRACT: note_on channel=14 note=74 velocity=97 time=0.004901958333333333
EXTRACT: note_on channel=14 note=74 velocity=0 time=0.2941175
EXTRACT: note_on channel=14 note=74 velocity=117 time=0.14705875
EXTRACT: note_on channel=14 note=74 velocity=0 time=0.14705875
EXTRACT: note_on channel=2 note=67 velocity=0 time=0.14705875
EXTRACT: note_on channel=2 note=63 velocity=0 time=0
EXTRACT: note_on channel=2 note=59 velocity=0 time=0
EXTRACT: note_on channel=2 note=67 velocity=119 time=0
EXTRACT: note_on channel=2 note=63 velocity=115 time=0
EXTRACT: note_on channel=2 note=58 velocity=111 time=0
EXTRACT: note_on channel=3 note=59 velocity=0 time=0
EXTRACT: note_on channel=3 note=58 velocity=62 time=0
EXTRACT: note_on channel=14 note=75 velocity=111 time=0
EXTRACT: note_on channel=14 note=75 velocity=0 time=0.2941175
EXTRACT: note_on channel=14 note=75 velocity=118 time=0.2941175
EXTRACT: note_on channel=14 note=75 velocity=0 time=0.2941175
EXTRACT: note_on channel=2 note=67 velocity=0 time=0.2941175
EXTRACT: note_on channel=2 note=63 velocity=0 time=0
EXTRACT: note_on channel=2 note=58 velocity=0 time=0
EXTRACT: note_on channel=2 note=67 velocity=118 time=0
EXTRACT: note_on channel=2 note=63 velocity=124 time=0
EXTRACT: note_on channel=2 note=57 velocity=115 time=0
EXTRACT: note_on channel=3 note=58 velocity=0 time=0
EXTRACT: note_on channel=3 note=57 velocity=61 time=0
EXTRACT: note_on channel=14 note=75 velocity=124 time=0
EXTRACT: note_on channel=14 note=75 velocity=0 time=0.28921554166666663
EXTRACT: note_on channel=14 note=77 velocity=104 time=0.004901958333333333
EXTRACT: note_on channel=14 note=77 velocity=0 time=0.14215679166666664
EXTRACT: note_on channel=14 note=75 velocity=108 time=0.004901958333333333
EXTRACT: note_on channel=14 note=75 velocity=0 time=0.2941175
EXTRACT: note_on channel=14 note=74 velocity=122 time=0.14705875
EXTRACT: note_on channel=14 note=74 velocity=0 time=0.14705875
EXTRACT: note_on channel=2 note=67 velocity=0 time=0.14705875
EXTRACT: note_on channel=2 note=63 velocity=0 time=0
EXTRACT: note_on channel=2 note=57 velocity=0 time=0
EXTRACT: note_on channel=2 note=60 velocity=107 time=0
EXTRACT: note_on channel=2 note=63 velocity=119 time=0
EXTRACT: note_on channel=2 note=68 velocity=127 time=0
EXTRACT: note_on channel=3 note=63 velocity=0 time=0
EXTRACT: note_on channel=3 note=67 velocity=0 time=0
EXTRACT: note_on channel=3 note=57 velocity=0 time=0
EXTRACT: note_on channel=3 note=63 velocity=50 time=0
EXTRACT: note_on channel=3 note=60 velocity=47 time=0
EXTRACT: note_on channel=3 note=56 velocity=54 time=0
EXTRACT: note_on channel=9 note=36 velocity=77 time=0
EXTRACT: note_on channel=14 note=72 velocity=99 time=0
EXTRACT: note_on channel=9 note=36 velocity=0 time=0.049019583333333325
EXTRACT: note_on channel=9 note=42 velocity=64 time=0.24509791666666664
EXTRACT: note_on channel=9 note=42 velocity=0 time=0.049019583333333325
EXTRACT: note_on channel=9 note=42 velocity=48 time=0.24509791666666664
EXTRACT: note_on channel=9 note=40 velocity=82 time=0
EXTRACT: note_on channel=9 note=42 velocity=0 time=0.049019583333333325
EXTRACT: note_on channel=9 note=40 velocity=0 time=0
EXTRACT: note_on channel=14 note=72 velocity=0 time=0.24019595833333332
EXTRACT: note_on channel=9 note=42 velocity=66 time=0.004901958333333333
EXTRACT: note_on channel=9 note=36 velocity=77 time=0
EXTRACT: note_on channel=14 note=79 velocity=102 time=0
EXTRACT: note_on channel=9 note=42 velocity=0 time=0.049019583333333325
EXTRACT: note_on channel=9 note=36 velocity=0 time=0
EXTRACT: note_on channel=14 note=79 velocity=0 time=0.24019595833333332
EXTRACT: note_on channel=9 note=42 velocity=54 time=0.004901958333333333
EXTRACT: note_on channel=9 note=36 velocity=77 time=0
EXTRACT: note_on channel=14 note=77 velocity=127 time=0
EXTRACT: note_on channel=9 note=42 velocity=0 time=0.049019583333333325
EXTRACT: note_on channel=9 note=36 velocity=0 time=0
EXTRACT: note_on channel=14 note=77 velocity=0 time=0.09313720833333332
EXTRACT: note_on channel=14 note=75 velocity=103 time=0.004901958333333333
EXTRACT: note_on channel=14 note=75 velocity=0 time=0.14215679166666664
EXTRACT: note_on channel=9 note=42 velocity=64 time=0.004901958333333333
EXTRACT: note_on channel=14 note=72 velocity=94 time=0
EXTRACT: note_on channel=9 note=42 velocity=0 time=0.049019583333333325
EXTRACT: note_on channel=9 note=42 velocity=54 time=0.24509791666666664
EXTRACT: note_on channel=9 note=40 velocity=82 time=0
EXTRACT: note_on channel=14 note=72 velocity=0 time=0
EXTRACT: note_on channel=9 note=42 velocity=0 time=0.049019583333333325
EXTRACT: note_on channel=9 note=40 velocity=0 time=0
EXTRACT: note_on channel=9 note=36 velocity=77 time=0.24509791666666664
EXTRACT: note_on channel=9 note=42 velocity=61 time=0
EXTRACT: note_on channel=9 note=36 velocity=0 time=0.049019583333333325
EXTRACT: note_on channel=9 note=42 velocity=0 time=0
EXTRACT: note_on channel=2 note=60 velocity=0 time=0.24509791666666664
EXTRACT: note_on channel=2 note=63 velocity=0 time=0
EXTRACT: note_on channel=2 note=68 velocity=0 time=0
EXTRACT: note_on channel=3 note=63 velocity=0 time=0
EXTRACT: note_on channel=3 note=60 velocity=0 time=0
EXTRACT: note_on channel=3 note=56 velocity=0 time=0
EXTRACT: note_on channel=3 note=48 velocity=71 time=0
EXTRACT: note_on channel=3 note=36 velocity=64 time=0
EXTRACT: note_on channel=9 note=36 velocity=100 time=0
EXTRACT: note_on channel=9 note=87 velocity=127 time=0
EXTRACT: note_on channel=15 note=67 velocity=56 time=0
EXTRACT: note_on channel=15 note=79 velocity=64 time=0
EXTRACT: control_change channel=15 control=11 value=60 time=0
EXTRACT: note_on channel=15 note=91 velocity=80 time=0
EXTRACT: control_change channel=15 control=11 value=61 time=0.004901958333333333
EXTRACT: control_change channel=15 control=11 value=62 time=0.004901958333333333
EXTRACT: control_change channel=15 control=11 value=63 time=0.004901958333333333
EXTRACT: control_change channel=15 control=11 value=64 time=0.004901958333333333
EXTRACT: control_change channel=15 control=11 value=66 time=0.004901958333333333
EXTRACT: control_change channel=15 control=11 value=67 time=0.004901958333333333
EXTRACT: control_change channel=15 control=11 value=68 time=0.004901958333333333
EXTRACT: control_change channel=15 control=11 value=69 time=0.004901958333333333
EXTRACT: control_change channel=15 control=11 value=70 time=0.004901958333333333
EXTRACT: note_on channel=9 note=36 velocity=0 time=0.004901958333333333
EXTRACT: note_on channel=9 note=87 velocity=0 time=0
EXTRACT: control_change channel=15 control=11 value=71 time=0
EXTRACT: control_change channel=15 control=11 value=72 time=0.004901958333333333
EXTRACT: control_change channel=15 control=11 value=73 time=0.004901958333333333
EXTRACT: control_change channel=15 control=11 value=75 time=0.004901958333333333
EXTRACT: control_change channel=15 control=11 value=76 time=0.004901958333333333
EXTRACT: control_change channel=15 control=11 value=77 time=0.004901958333333333
EXTRACT: control_change channel=15 control=11 value=78 time=0.004901958333333333
EXTRACT: control_change channel=15 control=11 value=79 time=0.004901958333333333
EXTRACT: control_change channel=15 control=11 value=80 time=0.004901958333333333
EXTRACT: control_change channel=15 control=11 value=81 time=0.004901958333333333
EXTRACT: control_change channel=15 control=11 value=82 time=0.004901958333333333
EXTRACT: control_change channel=15 control=11 value=83 time=0.004901958333333333
EXTRACT: control_change channel=15 control=11 value=85 time=0.004901958333333333
EXTRACT: control_change channel=15 control=11 value=86 time=0.004901958333333333
EXTRACT: control_change channel=15 control=11 value=87 time=0.004901958333333333
EXTRACT: control_change channel=15 control=11 value=88 time=0.004901958333333333
EXTRACT: control_change channel=15 control=11 value=89 time=0.004901958333333333
EXTRACT: control_change channel=15 control=11 value=90 time=0.004901958333333333
EXTRACT: control_change channel=15 control=11 value=91 time=0.004901958333333333
EXTRACT: control_change channel=15 control=11 value=92 time=0.004901958333333333
EXTRACT: control_change channel=15 control=11 value=94 time=0.004901958333333333
EXTRACT: control_change channel=15 control=11 value=95 time=0.004901958333333333
EXTRACT: control_change channel=15 control=11 value=96 time=0.004901958333333333
EXTRACT: control_change channel=15 control=11 value=97 time=0.004901958333333333
EXTRACT: control_change channel=15 control=11 value=98 time=0.004901958333333333
EXTRACT: control_change channel=15 control=11 value=99 time=0.004901958333333333
EXTRACT: control_change channel=15 control=11 value=100 time=0.004901958333333333
EXTRACT: control_change channel=15 control=11 value=101 time=0.004901958333333333
EXTRACT: control_change channel=15 control=11 value=102 time=0.004901958333333333
EXTRACT: control_change channel=15 control=11 value=104 time=0.004901958333333333
EXTRACT: control_change channel=15 control=11 value=105 time=0.004901958333333333
EXTRACT: control_change channel=15 control=11 value=106 time=0.004901958333333333
EXTRACT: control_change channel=15 control=11 value=107 time=0.004901958333333333
EXTRACT: control_change channel=15 control=11 value=108 time=0.004901958333333333
EXTRACT: control_change channel=15 control=11 value=109 time=0.004901958333333333
EXTRACT: control_change channel=15 control=11 value=110 time=0.004901958333333333
EXTRACT: control_change channel=15 control=11 value=111 time=0.004901958333333333
EXTRACT: control_change channel=15 control=11 value=112 time=0.004901958333333333
EXTRACT: control_change channel=15 control=11 value=114 time=0.004901958333333333
EXTRACT: control_change channel=15 control=11 value=115 time=0.004901958333333333
EXTRACT: control_change channel=15 control=11 value=116 time=0.004901958333333333
EXTRACT: control_change channel=15 control=11 value=117 time=0.004901958333333333
EXTRACT: control_change channel=15 control=11 value=118 time=0.004901958333333333
EXTRACT: control_change channel=15 control=11 value=119 time=0.004901958333333333
EXTRACT: control_change channel=15 control=11 value=120 time=0.004901958333333333
EXTRACT: control_change channel=15 control=11 value=121 time=0.004901958333333333
EXTRACT: control_change channel=15 control=11 value=123 time=0.004901958333333333
EXTRACT: control_change channel=15 control=11 value=124 time=0.004901958333333333
EXTRACT: control_change channel=15 control=11 value=125 time=0.004901958333333333
EXTRACT: control_change channel=15 control=11 value=126 time=0.004901958333333333
EXTRACT: pitchwheel channel=15 pitch=0 time=0.004901958333333333
EXTRACT: control_change channel=15 control=11 value=127 time=0
EXTRACT: pitchwheel channel=15 pitch=11 time=0.004901958333333333
EXTRACT: pitchwheel channel=15 pitch=23 time=0.004901958333333333
EXTRACT: pitchwheel channel=15 pitch=34 time=0.004901958333333333
EXTRACT: pitchwheel channel=15 pitch=46 time=0.004901958333333333
EXTRACT: pitchwheel channel=15 pitch=57 time=0.004901958333333333
EXTRACT: pitchwheel channel=15 pitch=68 time=0.004901958333333333
EXTRACT: pitchwheel channel=15 pitch=80 time=0.004901958333333333
EXTRACT: pitchwheel channel=15 pitch=91 time=0.004901958333333333
EXTRACT: pitchwheel channel=15 pitch=102 time=0.004901958333333333
EXTRACT: pitchwheel channel=15 pitch=114 time=0.004901958333333333
EXTRACT: pitchwheel channel=15 pitch=125 time=0.004901958333333333
EXTRACT: pitchwheel channel=15 pitch=137 time=0.004901958333333333
EXTRACT: pitchwheel channel=15 pitch=148 time=0.004901958333333333
EXTRACT: pitchwheel channel=15 pitch=159 time=0.004901958333333333
EXTRACT: pitchwheel channel=15 pitch=171 time=0.004901958333333333
EXTRACT: pitchwheel channel=15 pitch=182 time=0.004901958333333333
EXTRACT: pitchwheel channel=15 pitch=193 time=0.004901958333333333
EXTRACT: pitchwheel channel=15 pitch=205 time=0.004901958333333333
EXTRACT: pitchwheel channel=15 pitch=216 time=0.004901958333333333
EXTRACT: pitchwheel channel=15 pitch=228 time=0.004901958333333333
EXTRACT: pitchwheel channel=15 pitch=239 time=0.004901958333333333
EXTRACT: pitchwheel channel=15 pitch=250 time=0.004901958333333333
EXTRACT: pitchwheel channel=15 pitch=262 time=0.004901958333333333
EXTRACT: pitchwheel channel=15 pitch=273 time=0.004901958333333333
EXTRACT: pitchwheel channel=15 pitch=284 time=0.004901958333333333
EXTRACT: pitchwheel channel=15 pitch=296 time=0.004901958333333333
EXTRACT: pitchwheel channel=15 pitch=307 time=0.004901958333333333
EXTRACT: pitchwheel channel=15 pitch=319 time=0.004901958333333333
EXTRACT: pitchwheel channel=15 pitch=330 time=0.004901958333333333
EXTRACT: pitchwheel channel=15 pitch=341 time=0.004901958333333333
EXTRACT: pitchwheel channel=15 pitch=353 time=0.004901958333333333
EXTRACT: pitchwheel channel=15 pitch=364 time=0.004901958333333333
EXTRACT: pitchwheel channel=15 pitch=375 time=0.004901958333333333
EXTRACT: pitchwheel channel=15 pitch=387 time=0.004901958333333333
EXTRACT: pitchwheel channel=15 pitch=398 time=0.004901958333333333
EXTRACT: pitchwheel channel=15 pitch=410 time=0.004901958333333333
EXTRACT: pitchwheel channel=15 pitch=421 time=0.004901958333333333
EXTRACT: pitchwheel channel=15 pitch=432 time=0.004901958333333333
EXTRACT: pitchwheel channel=15 pitch=444 time=0.004901958333333333
EXTRACT: pitchwheel channel=15 pitch=455 time=0.004901958333333333
EXTRACT: pitchwheel channel=15 pitch=467 time=0.004901958333333333
EXTRACT: pitchwheel channel=15 pitch=478 time=0.004901958333333333
EXTRACT: pitchwheel channel=15 pitch=489 time=0.004901958333333333
EXTRACT: pitchwheel channel=15 pitch=501 time=0.004901958333333333
EXTRACT: pitchwheel channel=15 pitch=512 time=0.004901958333333333
EXTRACT: pitchwheel channel=15 pitch=523 time=0.004901958333333333
EXTRACT: pitchwheel channel=15 pitch=535 time=0.004901958333333333
EXTRACT: pitchwheel channel=15 pitch=546 time=0.004901958333333333
EXTRACT: pitchwheel channel=15 pitch=558 time=0.004901958333333333
EXTRACT: pitchwheel channel=15 pitch=569 time=0.004901958333333333
EXTRACT: pitchwheel channel=15 pitch=580 time=0.004901958333333333
EXTRACT: pitchwheel channel=15 pitch=592 time=0.004901958333333333
EXTRACT: pitchwheel channel=15 pitch=603 time=0.004901958333333333
EXTRACT: pitchwheel channel=15 pitch=614 time=0.004901958333333333
EXTRACT: pitchwheel channel=15 pitch=626 time=0.004901958333333333
EXTRACT: pitchwheel channel=15 pitch=637 time=0.004901958333333333
EXTRACT: pitchwheel channel=15 pitch=649 time=0.004901958333333333
EXTRACT: pitchwheel channel=15 pitch=660 time=0.004901958333333333
EXTRACT: pitchwheel channel=15 pitch=671 time=0.004901958333333333
EXTRACT: pitchwheel channel=15 pitch=683 time=0.004901958333333333
EXTRACT: pitchwheel channel=15 pitch=694 time=0.004901958333333333
EXTRACT: pitchwheel channel=15 pitch=705 time=0.004901958333333333
EXTRACT: pitchwheel channel=15 pitch=717 time=0.004901958333333333
EXTRACT: pitchwheel channel=15 pitch=728 time=0.004901958333333333
EXTRACT: pitchwheel channel=15 pitch=740 time=0.004901958333333333
EXTRACT: pitchwheel channel=15 pitch=751 time=0.004901958333333333
EXTRACT: pitchwheel channel=15 pitch=762 time=0.004901958333333333
EXTRACT: pitchwheel channel=15 pitch=774 time=0.004901958333333333
EXTRACT: pitchwheel channel=15 pitch=785 time=0.004901958333333333
EXTRACT: pitchwheel channel=15 pitch=797 time=0.004901958333333333
EXTRACT: pitchwheel channel=15 pitch=808 time=0.004901958333333333
EXTRACT: pitchwheel channel=15 pitch=819 time=0.004901958333333333
EXTRACT: pitchwheel channel=15 pitch=831 time=0.004901958333333333
EXTRACT: pitchwheel channel=15 pitch=842 time=0.004901958333333333
EXTRACT: pitchwheel channel=15 pitch=853 time=0.004901958333333333
EXTRACT: pitchwheel channel=15 pitch=865 time=0.004901958333333333
EXTRACT: pitchwheel channel=15 pitch=876 time=0.004901958333333333
EXTRACT: pitchwheel channel=15 pitch=888 time=0.004901958333333333
EXTRACT: pitchwheel channel=15 pitch=899 time=0.004901958333333333
EXTRACT: pitchwheel channel=15 pitch=910 time=0.004901958333333333
EXTRACT: pitchwheel channel=15 pitch=922 time=0.004901958333333333
EXTRACT: pitchwheel channel=15 pitch=933 time=0.004901958333333333
EXTRACT: pitchwheel channel=15 pitch=944 time=0.004901958333333333
EXTRACT: pitchwheel channel=15 pitch=956 time=0.004901958333333333
EXTRACT: pitchwheel channel=15 pitch=967 time=0.004901958333333333
EXTRACT: pitchwheel channel=15 pitch=979 time=0.004901958333333333
EXTRACT: pitchwheel channel=15 pitch=990 time=0.004901958333333333
EXTRACT: pitchwheel channel=15 pitch=1001 time=0.004901958333333333
EXTRACT: pitchwheel channel=15 pitch=1013 time=0.004901958333333333
EXTRACT: pitchwheel channel=15 pitch=1024 time=0.004901958333333333
EXTRACT: pitchwheel channel=15 pitch=1035 time=0.004901958333333333
EXTRACT: pitchwheel channel=15 pitch=1047 time=0.004901958333333333
EXTRACT: pitchwheel channel=15 pitch=1058 time=0.004901958333333333
EXTRACT: pitchwheel channel=15 pitch=1070 time=0.004901958333333333
EXTRACT: pitchwheel channel=15 pitch=1081 time=0.004901958333333333
EXTRACT: pitchwheel channel=15 pitch=1092 time=0.004901958333333333
EXTRACT: pitchwheel channel=15 pitch=1104 time=0.004901958333333333
EXTRACT: pitchwheel channel=15 pitch=1115 time=0.004901958333333333
EXTRACT: pitchwheel channel=15 pitch=1126 time=0.004901958333333333
EXTRACT: pitchwheel channel=15 pitch=1138 time=0.004901958333333333
EXTRACT: pitchwheel channel=15 pitch=1149 time=0.004901958333333333
EXTRACT: pitchwheel channel=15 pitch=1161 time=0.004901958333333333
EXTRACT: pitchwheel channel=15 pitch=1172 time=0.004901958333333333
EXTRACT: pitchwheel channel=15 pitch=1183 time=0.004901958333333333
EXTRACT: pitchwheel channel=15 pitch=1195 time=0.004901958333333333
EXTRACT: pitchwheel channel=15 pitch=1206 time=0.004901958333333333
EXTRACT: pitchwheel channel=15 pitch=1218 time=0.004901958333333333
EXTRACT: pitchwheel channel=15 pitch=1229 time=0.004901958333333333
EXTRACT: pitchwheel channel=15 pitch=1240 time=0.004901958333333333
EXTRACT: pitchwheel channel=15 pitch=1252 time=0.004901958333333333
EXTRACT: pitchwheel channel=15 pitch=1263 time=0.004901958333333333
EXTRACT: pitchwheel channel=15 pitch=1274 time=0.004901958333333333
EXTRACT: pitchwheel channel=15 pitch=1286 time=0.004901958333333333
EXTRACT: pitchwheel channel=15 pitch=1297 time=0.004901958333333333
EXTRACT: pitchwheel channel=15 pitch=1309 time=0.004901958333333333
EXTRACT: pitchwheel channel=15 pitch=1320 time=0.004901958333333333
EXTRACT: pitchwheel channel=15 pitch=1331 time=0.004901958333333333
EXTRACT: pitchwheel channel=15 pitch=1343 time=0.004901958333333333
EXTRACT: pitchwheel channel=15 pitch=1354 time=0.004901958333333333
EXTRACT: pitchwheel channel=15 pitch=1365 time=0.004901958333333333
EXTRACT: pitchwheel channel=15 pitch=1377 time=0.004901958333333333
EXTRACT: pitchwheel channel=15 pitch=1388 time=0.004901958333333333
EXTRACT: pitchwheel channel=15 pitch=1400 time=0.004901958333333333
EXTRACT: pitchwheel channel=15 pitch=1411 time=0.004901958333333333
EXTRACT: pitchwheel channel=15 pitch=1422 time=0.004901958333333333
EXTRACT: pitchwheel channel=15 pitch=1434 time=0.004901958333333333
EXTRACT: pitchwheel channel=15 pitch=1445 time=0.004901958333333333
EXTRACT: pitchwheel channel=15 pitch=1456 time=0.004901958333333333
EXTRACT: pitchwheel channel=15 pitch=1468 time=0.004901958333333333
EXTRACT: pitchwheel channel=15 pitch=1479 time=0.004901958333333333
EXTRACT: pitchwheel channel=15 pitch=1491 time=0.004901958333333333
EXTRACT: pitchwheel channel=15 pitch=1502 time=0.004901958333333333
EXTRACT: pitchwheel channel=15 pitch=1513 time=0.004901958333333333
EXTRACT: pitchwheel channel=15 pitch=1525 time=0.004901958333333333
EXTRACT: pitchwheel channel=15 pitch=1536 time=0.004901958333333333
EXTRACT: pitchwheel channel=15 pitch=1547 time=0.004901958333333333
EXTRACT: pitchwheel channel=15 pitch=1559 time=0.004901958333333333
EXTRACT: pitchwheel channel=15 pitch=1570 time=0.004901958333333333
EXTRACT: pitchwheel channel=15 pitch=1582 time=0.004901958333333333
EXTRACT: pitchwheel channel=15 pitch=1593 time=0.004901958333333333
EXTRACT: pitchwheel channel=15 pitch=1604 time=0.004901958333333333
EXTRACT: pitchwheel channel=15 pitch=1616 time=0.004901958333333333
EXTRACT: pitchwheel channel=15 pitch=1627 time=0.004901958333333333
EXTRACT: pitchwheel channel=15 pitch=1639 time=0.004901958333333333
EXTRACT: pitchwheel channel=15 pitch=1650 time=0.004901958333333333
EXTRACT: pitchwheel channel=15 pitch=1661 time=0.004901958333333333
EXTRACT: pitchwheel channel=15 pitch=1673 time=0.004901958333333333
EXTRACT: pitchwheel channel=15 pitch=1684 time=0.004901958333333333
EXTRACT: pitchwheel channel=15 pitch=1695 time=0.004901958333333333
EXTRACT: pitchwheel channel=15 pitch=1707 time=0.004901958333333333
EXTRACT: pitchwheel channel=15 pitch=1718 time=0.004901958333333333
EXTRACT: pitchwheel channel=15 pitch=1730 time=0.004901958333333333
EXTRACT: pitchwheel channel=15 pitch=1741 time=0.004901958333333333
EXTRACT: pitchwheel channel=15 pitch=1752 time=0.004901958333333333
EXTRACT: pitchwheel channel=15 pitch=1764 time=0.004901958333333333
EXTRACT: pitchwheel channel=15 pitch=1775 time=0.004901958333333333
EXTRACT: pitchwheel channel=15 pitch=1786 time=0.004901958333333333
EXTRACT: pitchwheel channel=15 pitch=1798 time=0.004901958333333333
EXTRACT: pitchwheel channel=15 pitch=1809 time=0.004901958333333333
EXTRACT: pitchwheel channel=15 pitch=1821 time=0.004901958333333333
EXTRACT: pitchwheel channel=15 pitch=1832 time=0.004901958333333333
EXTRACT: pitchwheel channel=15 pitch=1843 time=0.004901958333333333
EXTRACT: pitchwheel channel=15 pitch=1855 time=0.004901958333333333
EXTRACT: pitchwheel channel=15 pitch=1866 time=0.004901958333333333
EXTRACT: pitchwheel channel=15 pitch=1877 time=0.004901958333333333
EXTRACT: pitchwheel channel=15 pitch=1889 time=0.004901958333333333
EXTRACT: pitchwheel channel=15 pitch=1900 time=0.004901958333333333
EXTRACT: pitchwheel channel=15 pitch=1912 time=0.004901958333333333
EXTRACT: pitchwheel channel=15 pitch=1923 time=0.004901958333333333
EXTRACT: pitchwheel channel=15 pitch=1934 time=0.004901958333333333
EXTRACT: pitchwheel channel=15 pitch=1946 time=0.004901958333333333
EXTRACT: pitchwheel channel=15 pitch=1957 time=0.004901958333333333
EXTRACT: pitchwheel channel=15 pitch=1968 time=0.004901958333333333
EXTRACT: pitchwheel channel=15 pitch=1980 time=0.004901958333333333
EXTRACT: pitchwheel channel=15 pitch=1991 time=0.004901958333333333
EXTRACT: pitchwheel channel=15 pitch=2003 time=0.004901958333333333
EXTRACT: pitchwheel channel=15 pitch=2014 time=0.004901958333333333
EXTRACT: pitchwheel channel=15 pitch=2025 time=0.004901958333333333
EXTRACT: pitchwheel channel=15 pitch=2037 time=0.004901958333333333
EXTRACT: pitchwheel channel=15 pitch=2048 time=0.004901958333333333
EXTRACT: pitchwheel channel=15 pitch=2060 time=0.004901958333333333
EXTRACT: pitchwheel channel=15 pitch=2071 time=0.004901958333333333
EXTRACT: pitchwheel channel=15 pitch=2082 time=0.004901958333333333
EXTRACT: pitchwheel channel=15 pitch=2094 time=0.004901958333333333
EXTRACT: pitchwheel channel=15 pitch=2105 time=0.004901958333333333
EXTRACT: pitchwheel channel=15 pitch=2116 time=0.004901958333333333
EXTRACT: pitchwheel channel=15 pitch=2128 time=0.004901958333333333
EXTRACT: pitchwheel channel=15 pitch=2139 time=0.004901958333333333
EXTRACT: pitchwheel channel=15 pitch=2151 time=0.004901958333333333
EXTRACT: pitchwheel channel=15 pitch=2162 time=0.004901958333333333
EXTRACT: pitchwheel channel=15 pitch=2173 time=0.004901958333333333
EXTRACT: pitchwheel channel=15 pitch=2185 time=0.004901958333333333
EXTRACT: pitchwheel channel=15 pitch=2196 time=0.004901958333333333
EXTRACT: pitchwheel channel=15 pitch=2207 time=0.004901958333333333
EXTRACT: pitchwheel channel=15 pitch=2219 time=0.004901958333333333
EXTRACT: pitchwheel channel=15 pitch=2230 time=0.004901958333333333
EXTRACT: pitchwheel channel=15 pitch=2242 time=0.004901958333333333
EXTRACT: pitchwheel channel=15 pitch=2253 time=0.004901958333333333
EXTRACT: pitchwheel channel=15 pitch=2264 time=0.004901958333333333
EXTRACT: pitchwheel channel=15 pitch=2276 time=0.004901958333333333
EXTRACT: pitchwheel channel=15 pitch=2287 time=0.004901958333333333
EXTRACT: pitchwheel channel=15 pitch=2298 time=0.004901958333333333
EXTRACT: pitchwheel channel=15 pitch=2310 time=0.004901958333333333
EXTRACT: pitchwheel channel=15 pitch=2321 time=0.004901958333333333
EXTRACT: pitchwheel channel=15 pitch=2333 time=0.004901958333333333
EXTRACT: pitchwheel channel=15 pitch=2344 time=0.004901958333333333
EXTRACT: pitchwheel channel=15 pitch=2355 time=0.004901958333333333
EXTRACT: pitchwheel channel=15 pitch=2367 time=0.004901958333333333
EXTRACT: pitchwheel channel=15 pitch=2378 time=0.004901958333333333
EXTRACT: note_on channel=15 note=67 velocity=0 time=0.004901958333333333
EXTRACT: note_on channel=15 note=79 velocity=0 time=0
EXTRACT: note_on channel=15 note=91 velocity=0 time=0
EXTRACT: pitchwheel channel=15 pitch=2390 time=0
EXTRACT: pitchwheel channel=15 pitch=2401 time=0.004901958333333333
EXTRACT: pitchwheel channel=15 pitch=2412 time=0.004901958333333333
EXTRACT: pitchwheel channel=15 pitch=2424 time=0.004901958333333333
EXTRACT: pitchwheel channel=15 pitch=2435 time=0.004901958333333333
EXTRACT: pitchwheel channel=15 pitch=2446 time=0.004901958333333333
EXTRACT: pitchwheel channel=15 pitch=2458 time=0.004901958333333333
EXTRACT: pitchwheel channel=15 pitch=2469 time=0.004901958333333333
EXTRACT: pitchwheel channel=15 pitch=2481 time=0.004901958333333333
EXTRACT: pitchwheel channel=15 pitch=2492 time=0.004901958333333333
EXTRACT: pitchwheel channel=15 pitch=2503 time=0.004901958333333333
EXTRACT: pitchwheel channel=15 pitch=2515 time=0.004901958333333333
EXTRACT: pitchwheel channel=15 pitch=2526 time=0.004901958333333333
EXTRACT: pitchwheel channel=15 pitch=2537 time=0.004901958333333333
EXTRACT: pitchwheel channel=15 pitch=2549 time=0.004901958333333333
EXTRACT: pitchwheel channel=15 pitch=2560 time=0.004901958333333333
EXTRACT: pitchwheel channel=15 pitch=2572 time=0.004901958333333333
EXTRACT: pitchwheel channel=15 pitch=2583 time=0.004901958333333333
EXTRACT: pitchwheel channel=15 pitch=2594 time=0.004901958333333333
EXTRACT: pitchwheel channel=15 pitch=2606 time=0.004901958333333333
EXTRACT: pitchwheel channel=15 pitch=2617 time=0.004901958333333333
EXTRACT: pitchwheel channel=15 pitch=2628 time=0.004901958333333333
EXTRACT: pitchwheel channel=15 pitch=2640 time=0.004901958333333333
EXTRACT: pitchwheel channel=15 pitch=2651 time=0.004901958333333333
EXTRACT: pitchwheel channel=15 pitch=2663 time=0.004901958333333333
EXTRACT: pitchwheel channel=15 pitch=2674 time=0.004901958333333333
EXTRACT: pitchwheel channel=15 pitch=2685 time=0.004901958333333333
EXTRACT: pitchwheel channel=15 pitch=2697 time=0.004901958333333333
EXTRACT: pitchwheel channel=15 pitch=2708 time=0.004901958333333333
EXTRACT: pitchwheel channel=15 pitch=2719 time=0.004901958333333333
EXTRACT: pitchwheel channel=15 pitch=2731 time=0.004901958333333333
EXTRACT: pitchwheel channel=15 pitch=2742 time=0.004901958333333333
EXTRACT: pitchwheel channel=15 pitch=2754 time=0.004901958333333333
EXTRACT: pitchwheel channel=15 pitch=2765 time=0.004901958333333333
EXTRACT: pitchwheel channel=15 pitch=2776 time=0.004901958333333333
EXTRACT: pitchwheel channel=15 pitch=2788 time=0.004901958333333333
EXTRACT: pitchwheel channel=15 pitch=2799 time=0.004901958333333333
EXTRACT: pitchwheel channel=15 pitch=2811 time=0.004901958333333333
EXTRACT: pitchwheel channel=15 pitch=2822 time=0.004901958333333333
EXTRACT: pitchwheel channel=15 pitch=2833 time=0.004901958333333333
EXTRACT: pitchwheel channel=15 pitch=2845 time=0.004901958333333333
EXTRACT: pitchwheel channel=15 pitch=2856 time=0.004901958333333333
EXTRACT: pitchwheel channel=15 pitch=2867 time=0.004901958333333333
EXTRACT: pitchwheel channel=15 pitch=2879 time=0.004901958333333333
EXTRACT: pitchwheel channel=15 pitch=2890 time=0.004901958333333333
EXTRACT: pitchwheel channel=15 pitch=2902 time=0.004901958333333333
EXTRACT: pitchwheel channel=15 pitch=2913 time=0.004901958333333333
EXTRACT: pitchwheel channel=15 pitch=2924 time=0.004901958333333333
EXTRACT: pitchwheel channel=15 pitch=2936 time=0.004901958333333333
EXTRACT: pitchwheel channel=15 pitch=2947 time=0.004901958333333333
EXTRACT: pitchwheel channel=15 pitch=2958 time=0.004901958333333333
EXTRACT: pitchwheel channel=15 pitch=2970 time=0.004901958333333333
EXTRACT: pitchwheel channel=15 pitch=2981 time=0.004901958333333333
EXTRACT: pitchwheel channel=15 pitch=2993 time=0.004901958333333333
EXTRACT: pitchwheel channel=15 pitch=3004 time=0.004901958333333333
EXTRACT: pitchwheel channel=15 pitch=3015 time=0.004901958333333333
EXTRACT: pitchwheel channel=15 pitch=3027 time=0.004901958333333333
EXTRACT: pitchwheel channel=15 pitch=3038 time=0.004901958333333333
EXTRACT: pitchwheel channel=15 pitch=3049 time=0.004901958333333333
EXTRACT: pitchwheel channel=15 pitch=3061 time=0.004901958333333333
EXTRACT: pitchwheel channel=15 pitch=3072 time=0.004901958333333333
EXTRACT: pitchwheel channel=15 pitch=3084 time=0.004901958333333333
EXTRACT: pitchwheel channel=15 pitch=3095 time=0.004901958333333333
EXTRACT: pitchwheel channel=15 pitch=3106 time=0.004901958333333333
EXTRACT: pitchwheel channel=15 pitch=3118 time=0.004901958333333333
EXTRACT: pitchwheel channel=15 pitch=3129 time=0.004901958333333333
EXTRACT: pitchwheel channel=15 pitch=3140 time=0.004901958333333333
EXTRACT: pitchwheel channel=15 pitch=3152 time=0.004901958333333333
EXTRACT: pitchwheel channel=15 pitch=3163 time=0.004901958333333333
EXTRACT: pitchwheel channel=15 pitch=3175 time=0.004901958333333333
EXTRACT: pitchwheel channel=15 pitch=3186 time=0.004901958333333333
EXTRACT: pitchwheel channel=15 pitch=3197 time=0.004901958333333333
EXTRACT: pitchwheel channel=15 pitch=3209 time=0.004901958333333333
EXTRACT: pitchwheel channel=15 pitch=3220 time=0.004901958333333333
EXTRACT: pitchwheel channel=15 pitch=3232 time=0.004901958333333333
EXTRACT: pitchwheel channel=15 pitch=3243 time=0.004901958333333333
EXTRACT: pitchwheel channel=15 pitch=3254 time=0.004901958333333333
EXTRACT: pitchwheel channel=15 pitch=3266 time=0.004901958333333333
EXTRACT: pitchwheel channel=15 pitch=3277 time=0.004901958333333333
EXTRACT: pitchwheel channel=15 pitch=3288 time=0.004901958333333333
EXTRACT: pitchwheel channel=15 pitch=3300 time=0.004901958333333333
EXTRACT: pitchwheel channel=15 pitch=3311 time=0.004901958333333333
EXTRACT: pitchwheel channel=15 pitch=3323 time=0.004901958333333333
EXTRACT: pitchwheel channel=15 pitch=3334 time=0.004901958333333333
EXTRACT: pitchwheel channel=15 pitch=3345 time=0.004901958333333333
EXTRACT: pitchwheel channel=15 pitch=3357 time=0.004901958333333333
EXTRACT: pitchwheel channel=15 pitch=3368 time=0.004901958333333333
EXTRACT: pitchwheel channel=15 pitch=3379 time=0.004901958333333333
EXTRACT: pitchwheel channel=15 pitch=3391 time=0.004901958333333333
EXTRACT: pitchwheel channel=15 pitch=3402 time=0.004901958333333333
EXTRACT: note_on channel=9 note=40 velocity=127 time=0.004901958333333333
EXTRACT: pitchwheel channel=15 pitch=3414 time=0
EXTRACT: pitchwheel channel=15 pitch=3425 time=0.004901958333333333
EXTRACT: pitchwheel channel=15 pitch=3436 time=0.004901958333333333
EXTRACT: pitchwheel channel=15 pitch=3448 time=0.004901958333333333
EXTRACT: pitchwheel channel=15 pitch=3459 time=0.004901958333333333
EXTRACT: pitchwheel channel=15 pitch=3470 time=0.004901958333333333
EXTRACT: pitchwheel channel=15 pitch=3482 time=0.004901958333333333
EXTRACT: pitchwheel channel=15 pitch=3493 time=0.004901958333333333
EXTRACT: pitchwheel channel=15 pitch=3505 time=0.004901958333333333
EXTRACT: pitchwheel channel=15 pitch=3516 time=0.004901958333333333
EXTRACT: note_on channel=9 note=40 velocity=0 time=0.004901958333333333
EXTRACT: pitchwheel channel=15 pitch=3527 time=0
EXTRACT: pitchwheel channel=15 pitch=3539 time=0.004901958333333333
EXTRACT: pitchwheel channel=15 pitch=3550 time=0.004901958333333333
EXTRACT: pitchwheel channel=15 pitch=3561 time=0.004901958333333333
EXTRACT: pitchwheel channel=15 pitch=3573 time=0.004901958333333333
EXTRACT: pitchwheel channel=15 pitch=3584 time=0.004901958333333333
EXTRACT: pitchwheel channel=15 pitch=3596 time=0.004901958333333333
EXTRACT: pitchwheel channel=15 pitch=3607 time=0.004901958333333333
EXTRACT: pitchwheel channel=15 pitch=3618 time=0.004901958333333333
EXTRACT: pitchwheel channel=15 pitch=3630 time=0.004901958333333333
EXTRACT: pitchwheel channel=15 pitch=3641 time=0.004901958333333333
EXTRACT: pitchwheel channel=15 pitch=3653 time=0.004901958333333333
EXTRACT: pitchwheel channel=15 pitch=3664 time=0.004901958333333333
EXTRACT: pitchwheel channel=15 pitch=3675 time=0.004901958333333333
EXTRACT: pitchwheel channel=15 pitch=3687 time=0.004901958333333333
EXTRACT: pitchwheel channel=15 pitch=3698 time=0.004901958333333333
EXTRACT: pitchwheel channel=15 pitch=3709 time=0.004901958333333333
EXTRACT: pitchwheel channel=15 pitch=3721 time=0.004901958333333333
EXTRACT: pitchwheel channel=15 pitch=3732 time=0.004901958333333333
EXTRACT: pitchwheel channel=15 pitch=3744 time=0.004901958333333333
EXTRACT: pitchwheel channel=15 pitch=3755 time=0.004901958333333333
EXTRACT: pitchwheel channel=15 pitch=3766 time=0.004901958333333333
EXTRACT: pitchwheel channel=15 pitch=3778 time=0.004901958333333333
EXTRACT: pitchwheel channel=15 pitch=3789 time=0.004901958333333333
EXTRACT: pitchwheel channel=15 pitch=3800 time=0.004901958333333333
EXTRACT: pitchwheel channel=15 pitch=3812 time=0.004901958333333333
EXTRACT: pitchwheel channel=15 pitch=3823 time=0.004901958333333333
EXTRACT: pitchwheel channel=15 pitch=3835 time=0.004901958333333333
EXTRACT: pitchwheel channel=15 pitch=3846 time=0.004901958333333333
EXTRACT: pitchwheel channel=15 pitch=3857 time=0.004901958333333333
EXTRACT: pitchwheel channel=15 pitch=3869 time=0.004901958333333333
EXTRACT: pitchwheel channel=15 pitch=3880 time=0.004901958333333333
EXTRACT: pitchwheel channel=15 pitch=3891 time=0.004901958333333333
EXTRACT: pitchwheel channel=15 pitch=3903 time=0.004901958333333333
EXTRACT: pitchwheel channel=15 pitch=3914 time=0.004901958333333333
EXTRACT: pitchwheel channel=15 pitch=3926 time=0.004901958333333333
EXTRACT: pitchwheel channel=15 pitch=3937 time=0.004901958333333333
EXTRACT: pitchwheel channel=15 pitch=3948 time=0.004901958333333333
EXTRACT: pitchwheel channel=15 pitch=3960 time=0.004901958333333333
EXTRACT: pitchwheel channel=15 pitch=3971 time=0.004901958333333333
EXTRACT: pitchwheel channel=15 pitch=3983 time=0.004901958333333333
EXTRACT: pitchwheel channel=15 pitch=3994 time=0.004901958333333333
EXTRACT: pitchwheel channel=15 pitch=4005 time=0.004901958333333333
EXTRACT: pitchwheel channel=15 pitch=4017 time=0.004901958333333333
EXTRACT: pitchwheel channel=15 pitch=4028 time=0.004901958333333333
EXTRACT: pitchwheel channel=15 pitch=4039 time=0.004901958333333333
EXTRACT: pitchwheel channel=15 pitch=4051 time=0.004901958333333333
EXTRACT: pitchwheel channel=15 pitch=4062 time=0.004901958333333333
EXTRACT: pitchwheel channel=15 pitch=4074 time=0.004901958333333333
EXTRACT: pitchwheel channel=15 pitch=4085 time=0.004901958333333333
EXTRACT: note_on channel=14 note=77 velocity=95 time=0.004901958333333333
EXTRACT: pitchwheel channel=15 pitch=4096 time=0
EXTRACT: pitchwheel channel=15 pitch=4108 time=0.004901958333333333
EXTRACT: pitchwheel channel=15 pitch=4119 time=0.004901958333333333
EXTRACT: pitchwheel channel=15 pitch=4130 time=0.004901958333333333
EXTRACT: pitchwheel channel=15 pitch=4142 time=0.004901958333333333
EXTRACT: pitchwheel channel=15 pitch=4153 time=0.004901958333333333
EXTRACT: pitchwheel channel=15 pitch=4165 time=0.004901958333333333
EXTRACT: pitchwheel channel=15 pitch=4176 time=0.004901958333333333
EXTRACT: pitchwheel channel=15 pitch=4187 time=0.004901958333333333
EXTRACT: pitchwheel channel=15 pitch=4199 time=0.004901958333333333
EXTRACT: pitchwheel channel=15 pitch=4210 time=0.004901958333333333
EXTRACT: pitchwheel channel=15 pitch=4221 time=0.004901958333333333
EXTRACT: pitchwheel channel=15 pitch=4233 time=0.004901958333333333
EXTRACT: pitchwheel channel=15 pitch=4244 time=0.004901958333333333
EXTRACT: pitchwheel channel=15 pitch=4256 time=0.004901958333333333
EXTRACT: pitchwheel channel=15 pitch=4267 time=0.004901958333333333
EXTRACT: pitchwheel channel=15 pitch=4278 time=0.004901958333333333
EXTRACT: pitchwheel channel=15 pitch=4290 time=0.004901958333333333
EXTRACT: pitchwheel channel=15 pitch=4301 time=0.004901958333333333
EXTRACT: pitchwheel channel=15 pitch=4312 time=0.004901958333333333
EXTRACT: pitchwheel channel=15 pitch=4324 time=0.004901958333333333
EXTRACT: pitchwheel channel=15 pitch=4335 time=0.004901958333333333
EXTRACT: pitchwheel channel=15 pitch=4347 time=0.004901958333333333
EXTRACT: pitchwheel channel=15 pitch=4358 time=0.004901958333333333
EXTRACT: pitchwheel channel=15 pitch=4369 time=0.004901958333333333
EXTRACT: pitchwheel channel=15 pitch=4381 time=0.004901958333333333
EXTRACT: pitchwheel channel=15 pitch=4392 time=0.004901958333333333
EXTRACT: pitchwheel channel=15 pitch=4404 time=0.004901958333333333
EXTRACT: pitchwheel channel=15 pitch=4415 time=0.004901958333333333
EXTRACT: pitchwheel channel=15 pitch=4426 time=0.004901958333333333
EXTRACT: note_on channel=14 note=77 velocity=0 time=0.004901958333333333
EXTRACT: pitchwheel channel=15 pitch=4438 time=0
EXTRACT: pitchwheel channel=15 pitch=4449 time=0.004901958333333333
EXTRACT: pitchwheel channel=15 pitch=4460 time=0.004901958333333333
EXTRACT: pitchwheel channel=15 pitch=4472 time=0.004901958333333333
EXTRACT: pitchwheel channel=15 pitch=4483 time=0.004901958333333333
EXTRACT: pitchwheel channel=15 pitch=4495 time=0.004901958333333333
EXTRACT: pitchwheel channel=15 pitch=4506 time=0.004901958333333333
EXTRACT: pitchwheel channel=15 pitch=4517 time=0.004901958333333333
EXTRACT: pitchwheel channel=15 pitch=4529 time=0.004901958333333333
EXTRACT: pitchwheel channel=15 pitch=4540 time=0.004901958333333333
EXTRACT: pitchwheel channel=15 pitch=4551 time=0.004901958333333333
EXTRACT: pitchwheel channel=15 pitch=4563 time=0.004901958333333333
EXTRACT: pitchwheel channel=15 pitch=4574 time=0.004901958333333333
EXTRACT: pitchwheel channel=15 pitch=4586 time=0.004901958333333333
EXTRACT: pitchwheel channel=15 pitch=4597 time=0.004901958333333333
EXTRACT: pitchwheel channel=15 pitch=4608 time=0.004901958333333333
EXTRACT: pitchwheel channel=15 pitch=4620 time=0.004901958333333333
EXTRACT: pitchwheel channel=15 pitch=4631 time=0.004901958333333333
EXTRACT: pitchwheel channel=15 pitch=4642 time=0.004901958333333333
EXTRACT: pitchwheel channel=15 pitch=4654 time=0.004901958333333333
EXTRACT: pitchwheel channel=15 pitch=4665 time=0.004901958333333333
EXTRACT: pitchwheel channel=15 pitch=4677 time=0.004901958333333333
EXTRACT: pitchwheel channel=15 pitch=4688 time=0.004901958333333333
EXTRACT: pitchwheel channel=15 pitch=4699 time=0.004901958333333333
EXTRACT: pitchwheel channel=15 pitch=4711 time=0.004901958333333333
EXTRACT: pitchwheel channel=15 pitch=4722 time=0.004901958333333333
EXTRACT: pitchwheel channel=15 pitch=4733 time=0.004901958333333333
EXTRACT: pitchwheel channel=15 pitch=4745 time=0.004901958333333333
EXTRACT: pitchwheel channel=15 pitch=4756 time=0.004901958333333333
EXTRACT: pitchwheel channel=15 pitch=4768 time=0.004901958333333333
EXTRACT: note_on channel=11 note=55 velocity=106 time=0.0036764687499999996
EXTRACT: note_on channel=11 note=60 velocity=110 time=0
EXTRACT: note_on channel=11 note=63 velocity=107 time=0
EXTRACT: note_on channel=0 note=36 velocity=105 time=0.0012254895833333332
EXTRACT: note_on channel=1 note=60 velocity=125 time=0
EXTRACT: note_on channel=2 note=60 velocity=119 time=0
EXTRACT: note_on channel=2 note=63 velocity=117 time=0
EXTRACT: note_on channel=2 note=67 velocity=109 time=0
EXTRACT: note_on channel=3 note=48 velocity=0 time=0
EXTRACT: note_on channel=3 note=36 velocity=0 time=0
EXTRACT: control_change channel=3 control=11 value=100 time=0
EXTRACT: note_on channel=3 note=60 velocity=94 time=0
EXTRACT: note_on channel=3 note=63 velocity=80 time=0
EXTRACT: note_on channel=3 note=55 velocity=94 time=0
EXTRACT: note_on channel=9 note=49 velocity=100 time=0
EXTRACT: note_on channel=9 note=36 velocity=120 time=0
EXTRACT: note_on channel=14 note=79 velocity=108 time=0
EXTRACT: pitchwheel channel=15 pitch=4779 time=0
EXTRACT: control_change channel=3 control=11 value=101 time=0.044117624999999994
EXTRACT: note_on channel=9 note=49 velocity=0 time=0.004901958333333333
EXTRACT: note_on channel=9 note=36 velocity=0 time=0
EXTRACT: control_change channel=3 control=11 value=102 time=0.03921566666666666
EXTRACT: control_change channel=3 control=11 value=103 time=0.044117624999999994
EXTRACT: note_on channel=11 note=55 velocity=0 time=0.013480385416666666
EXTRACT: note_on channel=11 note=60 velocity=0 time=0
EXTRACT: note_on channel=11 note=63 velocity=0 time=0
EXTRACT: note_on channel=0 note=36 velocity=0 time=0.0012254895833333332
EXTRACT: control_change channel=3 control=11 value=104 time=0.029411749999999997
EXTRACT: control_change channel=3 control=11 value=105 time=0.03921566666666666
EXTRACT: control_change channel=3 control=11 value=106 time=0.044117624999999994
EXTRACT: note_on channel=11 note=55 velocity=101 time=0.033088218749999995
EXTRACT: note_on channel=11 note=60 velocity=87 time=0
EXTRACT: note_on channel=11 note=63 velocity=90 time=0
EXTRACT: note_on channel=0 note=36 velocity=127 time=0.0012254895833333332
EXTRACT: note_on channel=1 note=60 velocity=0 time=0
EXTRACT: note_on channel=9 note=42 velocity=95 time=0
EXTRACT: note_on channel=9 note=36 velocity=120 time=0
EXTRACT: note_on channel=9 note=54 velocity=81 time=0
EXTRACT: control_change channel=3 control=11 value=107 time=0.009803916666666666
EXTRACT: note_on channel=9 note=42 velocity=0 time=0.03921566666666666
EXTRACT: note_on channel=9 note=36 velocity=0 time=0
EXTRACT: note_on channel=9 note=54 velocity=0 time=0
EXTRACT: control_change channel=3 control=11 value=108 time=0.004901958333333333
EXTRACT: control_change channel=3 control=11 value=109 time=0.044117624999999994
EXTRACT: control_change channel=3 control=11 value=110 time=0.044117624999999994
EXTRACT: note_on channel=11 note=55 velocity=0 time=0.0036764687499999996
EXTRACT: note_on channel=11 note=60 velocity=0 time=0
EXTRACT: note_on channel=11 note=63 velocity=0 time=0
EXTRACT: note_on channel=0 note=36 velocity=0 time=0.0012254895833333332
EXTRACT: control_change channel=3 control=11 value=111 time=0.03921566666666666
EXTRACT: control_change channel=3 control=11 value=112 time=0.044117624999999994
EXTRACT: control_change channel=3 control=11 value=113 time=0.044117624999999994
EXTRACT: note_on channel=11 note=55 velocity=102 time=0.01838234375
EXTRACT: note_on channel=11 note=60 velocity=89 time=0
EXTRACT: note_on channel=11 note=63 velocity=102 time=0
EXTRACT: note_on channel=9 note=42 velocity=74 time=0.0012254895833333332
EXTRACT: note_on channel=9 note=40 velocity=127 time=0
EXTRACT: control_change channel=3 control=11 value=114 time=0.01960783333333333
EXTRACT: note_on channel=9 note=42 velocity=0 time=0.029411749999999997
EXTRACT: note_on channel=9 note=40 velocity=0 time=0
EXTRACT: control_change channel=3 control=11 value=115 time=0.014705874999999998
EXTRACT: control_change channel=3 control=11 value=116 time=0.044117624999999994
EXTRACT: note_on channel=11 note=55 velocity=0 time=0.037990177083333326
EXTRACT: note_on channel=11 note=60 velocity=0 time=0
EXTRACT: note_on channel=11 note=63 velocity=0 time=0
EXTRACT: control_change channel=3 control=11 value=117 time=0.006127447916666666
EXTRACT: control_change channel=3 control=11 value=118 time=0.044117624999999994
EXTRACT: control_change channel=3 control=11 value=119 time=0.044117624999999994
EXTRACT: control_change channel=3 control=11 value=120 time=0.044117624999999994
EXTRACT: note_on channel=14 note=79 velocity=0 time=0.004901958333333333
EXTRACT: note_on channel=11 note=55 velocity=105 time=0.0036764687499999996
EXTRACT: note_on channel=11 note=60 velocity=88 time=0
EXTRACT: note_on channel=11 note=63 velocity=97 time=0
EXTRACT: note_on channel=0 note=38 velocity=106 time=0.0012254895833333332
EXTRACT: note_on channel=7 note=72 velocity=106 time=0
EXTRACT: note_on channel=9 note=42 velocity=99 time=0
EXTRACT: note_on channel=9 note=36 velocity=120 time=0
EXTRACT: note_on channel=9 note=54 velocity=65 time=0
EXTRACT: note_on channel=14 note=72 velocity=123 time=0
EXTRACT: control_change channel=3 control=11 value=121 time=0.03431370833333333
EXTRACT: note_on channel=9 note=42 velocity=0 time=0.014705874999999998
EXTRACT: note_on channel=9 note=36 velocity=0 time=0
EXTRACT: note_on channel=9 note=54 velocity=0 time=0
EXTRACT: control_change channel=3 control=11 value=122 time=0.029411749999999997
EXTRACT: control_change channel=3 control=11 value=123 time=0.03921566666666666
EXTRACT: note_on channel=11 note=55 velocity=0 time=0.028186260416666664
EXTRACT: note_on channel=11 note=60 velocity=0 time=0
EXTRACT: note_on channel=11 note=63 velocity=0 time=0
EXTRACT: note_on channel=0 note=38 velocity=0 time=0.0012254895833333332
EXTRACT: note_on channel=7 note=72 velocity=0 time=0
EXTRACT: note_on channel=7 note=74 velocity=96 time=0
EXTRACT: control_change channel=3 control=11 value=124 time=0.014705874999999998
EXTRACT: control_change channel=3 control=11 value=125 time=0.044117624999999994
EXTRACT: control_change channel=3 control=11 value=126 time=0.044117624999999994
EXTRACT: note_on channel=11 note=55 velocity=101 time=0.042892135416666664
EXTRACT: note_on channel=11 note=60 velocity=101 time=0
EXTRACT: note_on channel=11 note=63 velocity=99 time=0
EXTRACT: note_on channel=0 note=39 velocity=118 time=0.0012254895833333332
EXTRACT: control_change channel=3 control=11 value=127 time=0
EXTRACT: note_on channel=7 note=74 velocity=0 time=0
EXTRACT: note_on channel=7 note=75 velocity=82 time=0
EXTRACT: note_on channel=9 note=42 velocity=77 time=0
EXTRACT: note_on channel=9 note=36 velocity=120 time=0
EXTRACT: note_on channel=9 note=42 velocity=0 time=0.049019583333333325
EXTRACT: note_on channel=9 note=36 velocity=0 time=0
EXTRACT: note_on channel=11 note=55 velocity=0 time=0.09681367708333333
EXTRACT: note_on channel=11 note=60 velocity=0 time=0
EXTRACT: note_on channel=11 note=63 velocity=0 time=0
EXTRACT: note_on channel=7 note=75 velocity=0 time=0.0012254895833333332
EXTRACT: note_on channel=11 note=55 velocity=93 time=0.14583326041666664
EXTRACT: note_on channel=11 note=60 velocity=87 time=0
EXTRACT: note_on channel=11 note=63 velocity=109 time=0
EXTRACT: note_on channel=0 note=39 velocity=0 time=0.0012254895833333332
EXTRACT: note_on channel=9 note=42 velocity=104 time=0
EXTRACT: note_on channel=9 note=54 velocity=83 time=0
EXTRACT: note_on channel=9 note=42 velocity=0 time=0.049019583333333325
EXTRACT: note_on channel=9 note=54 velocity=0 time=0
EXTRACT: note_on channel=11 note=55 velocity=0 time=0.09681367708333333
EXTRACT: note_on channel=11 note=60 velocity=0 time=0
EXTRACT: note_on channel=11 note=63 velocity=0 time=0
EXTRACT: note_on channel=14 note=72 velocity=0 time=0.14338228125
EXTRACT: note_on channel=11 note=55 velocity=105 time=0.0036764687499999996
EXTRACT: note_on channel=11 note=60 velocity=107 time=0
EXTRACT: note_on channel=11 note=63 velocity=89 time=0
EXTRACT: note_on channel=0 note=43 velocity=120 time=0.0012254895833333332
EXTRACT: note_on channel=9 note=42 velocity=78 time=0
EXTRACT: note_on channel=9 note=40 velocity=127 time=0
EXTRACT: note_on channel=14 note=72 velocity=108 time=0
EXTRACT: note_on channel=9 note=42 velocity=0 time=0.049019583333333325
EXTRACT: note_on channel=9 note=40 velocity=0 time=0
EXTRACT: note_on channel=11 note=55 velocity=0 time=0.09681367708333333
EXTRACT: note_on channel=11 note=60 velocity=0 time=0
EXTRACT: note_on channel=11 note=63 velocity=0 time=0
EXTRACT: note_on channel=14 note=72 velocity=0 time=0.0012254895833333332
EXTRACT: note_on channel=11 note=55 velocity=90 time=0.14583326041666664
EXTRACT: note_on channel=11 note=60 velocity=99 time=0
EXTRACT: note_on channel=11 note=63 velocity=90 time=0
EXTRACT: note_on channel=0 note=43 velocity=0 time=0.0012254895833333332
EXTRACT: note_on channel=9 note=42 velocity=104 time=0
EXTRACT: note_on channel=9 note=54 velocity=69 time=0
EXTRACT: note_on channel=14 note=74 velocity=106 time=0
EXTRACT: note_on channel=9 note=42 velocity=0 time=0.049019583333333325
EXTRACT: note_on channel=9 note=54 velocity=0 time=0
EXTRACT: note_on channel=11 note=55 velocity=0 time=0.09681367708333333
EXTRACT: note_on channel=11 note=60 velocity=0 time=0
EXTRACT: note_on channel=11 note=63 velocity=0 time=0
EXTRACT: note_on channel=14 note=74 velocity=0 time=0.0012254895833333332
EXTRACT: note_on channel=11 note=56 velocity=111 time=0.14583326041666664
EXTRACT: note_on channel=11 note=60 velocity=112 time=0
EXTRACT: note_on channel=11 note=63 velocity=92 time=0
EXTRACT: note_on channel=0 note=44 velocity=121 time=0.0012254895833333332
EXTRACT: note_on channel=2 note=60 velocity=0 time=0
EXTRACT: note_on channel=2 note=63 velocity=0 time=0
EXTRACT: note_on channel=2 note=67 velocity=0 time=0
EXTRACT: note_on channel=2 note=60 velocity=102 time=0
EXTRACT: note_on channel=2 note=63 velocity=104 time=0
EXTRACT: note_on channel=2 note=68 velocity=109 time=0
EXTRACT: note_on channel=3 note=55 velocity=0 time=0
EXTRACT: note_on channel=3 note=56 velocity=84 time=0
EXTRACT: note_on channel=9 note=42 velocity=82 time=0
EXTRACT: note_on channel=9 note=36 velocity=120 time=0
EXTRACT: note_on channel=14 note=77 velocity=95 time=0
EXTRACT: note_on channel=9 note=42 velocity=0 time=0.049019583333333325
EXTRACT: note_on channel=9 note=36 velocity=0 time=0
EXTRACT: note_on channel=11 note=56 velocity=0 time=0.09681367708333333
EXTRACT: note_on channel=11 note=60 velocity=0 time=0
EXTRACT: note_on channel=11 note=63 velocity=0 time=0
EXTRACT: note_on channel=0 note=44 velocity=0 time=0.0012254895833333332
EXTRACT: note_on channel=14 note=77 velocity=0 time=0
EXTRACT: note_on channel=11 note=56 velocity=93 time=0.14583326041666664
EXTRACT: note_on channel=11 note=60 velocity=96 time=0
EXTRACT: note_on channel=11 note=63 velocity=93 time=0
EXTRACT: note_on channel=0 note=44 velocity=120 time=0.0012254895833333332
EXTRACT: note_on channel=9 note=42 velocity=101 time=0
EXTRACT: note_on channel=9 note=36 velocity=120 time=0
EXTRACT: note_on channel=9 note=54 velocity=75 time=0
EXTRACT: note_on channel=14 note=77 velocity=124 time=0
EXTRACT: note_on channel=9 note=42 velocity=0 time=0.049019583333333325
EXTRACT: note_on channel=9 note=36 velocity=0 time=0
EXTRACT: note_on channel=9 note=54 velocity=0 time=0
EXTRACT: note_on channel=11 note=56 velocity=0 time=0.09681367708333333
EXTRACT: note_on channel=11 note=60 velocity=0 time=0
EXTRACT: note_on channel=11 note=63 velocity=0 time=0
EXTRACT: note_on channel=0 note=44 velocity=0 time=0.0012254895833333332
EXTRACT: note_on channel=14 note=77 velocity=0 time=0
EXTRACT: note_on channel=11 note=56 velocity=93 time=0.14583326041666664
EXTRACT: note_on channel=11 note=60 velocity=104 time=0
EXTRACT: note_on channel=11 note=63 velocity=108 time=0
EXTRACT: note_on channel=9 note=42 velocity=71 time=0.0012254895833333332
EXTRACT: note_on channel=9 note=40 velocity=127 time=0
EXTRACT: note_on channel=14 note=77 velocity=96 time=0
EXTRACT: note_on channel=9 note=42 velocity=0 time=0.049019583333333325
EXTRACT: note_on channel=9 note=40 velocity=0 time=0
EXTRACT: note_on channel=11 note=56 velocity=0 time=0.09681367708333333
EXTRACT: note_on channel=11 note=60 velocity=0 time=0
EXTRACT: note_on channel=11 note=63 velocity=0 time=0
EXTRACT: note_on channel=14 note=77 velocity=0 time=0.0012254895833333332
EXTRACT: note_on channel=11 note=56 velocity=110 time=0.14583326041666664
EXTRACT: note_on channel=11 note=60 velocity=101 time=0
EXTRACT: note_on channel=11 note=63 velocity=109 time=0
EXTRACT: note_on channel=0 note=39 velocity=112 time=0.0012254895833333332
EXTRACT: note_on channel=9 note=42 velocity=100 time=0
EXTRACT: note_on channel=9 note=36 velocity=120 time=0
EXTRACT: note_on channel=9 note=54 velocity=83 time=0
EXTRACT: note_on channel=14 note=77 velocity=98 time=0
EXTRACT: note_on channel=9 note=42 velocity=0 time=0.049019583333333325
EXTRACT: note_on channel=9 note=36 velocity=0 time=0
EXTRACT: note_on channel=9 note=54 velocity=0 time=0
EXTRACT: note_on channel=11 note=56 velocity=0 time=0.09681367708333333
EXTRACT: note_on channel=11 note=60 velocity=0 time=0
EXTRACT: note_on channel=11 note=63 velocity=0 time=0
EXTRACT: note_on channel=0 note=39 velocity=0 time=0.0012254895833333332
EXTRACT: note_on channel=14 note=77 velocity=0 time=0
EXTRACT: note_on channel=11 note=56 velocity=106 time=0.14583326041666664
EXTRACT: note_on channel=11 note=60 velocity=88 time=0
EXTRACT: note_on channel=11 note=63 velocity=89 time=0
EXTRACT: note_on channel=0 note=44 velocity=115 time=0.0012254895833333332
EXTRACT: note_on channel=9 note=42 velocity=82 time=0
EXTRACT: note_on channel=9 note=36 velocity=120 time=0
EXTRACT: note_on channel=14 note=75 velocity=118 time=0
EXTRACT: note_on channel=9 note=42 velocity=0 time=0.049019583333333325
EXTRACT: note_on channel=9 note=36 velocity=0 time=0
EXTRACT: note_on channel=11 note=56 velocity=0 time=0.09681367708333333
EXTRACT: note_on channel=11 note=60 velocity=0 time=0
EXTRACT: note_on channel=11 note=63 velocity=0 time=0
EXTRACT: note_on channel=11 note=56 velocity=97 time=0.14705875
EXTRACT: note_on channel=11 note=60 velocity=91 time=0
EXTRACT: note_on channel=11 note=63 velocity=90 time=0
EXTRACT: note_on channel=0 note=44 velocity=0 time=0.0012254895833333332
EXTRACT: note_on channel=9 note=42 velocity=104 time=0
EXTRACT: note_on channel=9 note=54 velocity=76 time=0
EXTRACT: note_on channel=14 note=75 velocity=0 time=0
EXTRACT: note_on channel=9 note=42 velocity=0 time=0.049019583333333325
EXTRACT: note_on channel=9 note=54 velocity=0 time=0
EXTRACT: note_on channel=11 note=56 velocity=0 time=0.09681367708333333
EXTRACT: note_on channel=11 note=60 velocity=0 time=0
EXTRACT: note_on channel=11 note=63 velocity=0 time=0
EXTRACT: note_on channel=11 note=56 velocity=87 time=0.14705875
EXTRACT: note_on channel=11 note=60 velocity=97 time=0
EXTRACT: note_on channel=11 note=63 velocity=95 time=0
EXTRACT: note_on channel=9 note=42 velocity=76 time=0.0012254895833333332
EXTRACT: note_on channel=9 note=40 velocity=127 time=0
EXTRACT: note_on channel=14 note=72 velocity=114 time=0
EXTRACT: note_on channel=9 note=42 velocity=0 time=0.049019583333333325
EXTRACT: note_on channel=9 note=40 velocity=0 time=0
EXTRACT: note_on channel=11 note=56 velocity=0 time=0.09681367708333333
EXTRACT: note_on channel=11 note=60 velocity=0 time=0
EXTRACT: note_on channel=11 note=63 velocity=0 time=0
EXTRACT: note_on channel=14 note=72 velocity=0 time=0.0012254895833333332
EXTRACT: note_on channel=11 note=56 velocity=108 time=0.14583326041666664
EXTRACT: note_on channel=11 note=60 velocity=96 time=0
EXTRACT: note_on channel=11 note=63 velocity=99 time=0
EXTRACT: note_on channel=9 note=42 velocity=97 time=0.0012254895833333332
EXTRACT: note_on channel=9 note=54 velocity=71 time=0
EXTRACT: note_on channel=14 note=75 velocity=110 time=0
EXTRACT: note_on channel=9 note=42 velocity=0 time=0.049019583333333325
EXTRACT: note_on channel=9 note=54 velocity=0 time=0
EXTRACT: note_on channel=11 note=56 velocity=0 time=0.09681367708333333
EXTRACT: note_on channel=11 note=60 velocity=0 time=0
EXTRACT: note_on channel=11 note=63 velocity=0 time=0
EXTRACT: note_on channel=14 note=75 velocity=0 time=0.0012254895833333332
EXTRACT: note_on channel=11 note=58 velocity=97 time=0.14583326041666664
EXTRACT: note_on channel=11 note=53 velocity=92 time=0
EXTRACT: note_on channel=11 note=63 velocity=87 time=0
EXTRACT: note_on channel=0 note=34 velocity=105 time=0.0012254895833333332
EXTRACT: note_on channel=2 note=60 velocity=0 time=0
EXTRACT: note_on channel=2 note=63 velocity=0 time=0
EXTRACT: note_on channel=2 note=68 velocity=0 time=0
EXTRACT: note_on channel=2 note=70 velocity=106 time=0
EXTRACT: note_on channel=2 note=63 velocity=120 time=0
EXTRACT: note_on channel=2 note=65 velocity=122 time=0
EXTRACT: note_on channel=3 note=60 velocity=0 time=0
EXTRACT: note_on channel=3 note=56 velocity=0 time=0
EXTRACT: note_on channel=3 note=65 velocity=88 time=0
EXTRACT: note_on channel=3 note=58 velocity=99 time=0
EXTRACT: note_on channel=9 note=42 velocity=77 time=0
EXTRACT: note_on channel=9 note=36 velocity=120 time=0
EXTRACT: note_on channel=14 note=77 velocity=124 time=0
EXTRACT: note_on channel=9 note=42 velocity=0 time=0.049019583333333325
EXTRACT: note_on channel=9 note=36 velocity=0 time=0
EXTRACT: note_on channel=11 note=58 velocity=0 time=0.09681367708333333
EXTRACT: note_on channel=11 note=53 velocity=0 time=0
EXTRACT: note_on channel=11 note=63 velocity=0 time=0
EXTRACT: note_on channel=0 note=34 velocity=0 time=0.0012254895833333332
EXTRACT: note_on channel=11 note=58 velocity=104 time=0.14583326041666664
EXTRACT: note_on channel=11 note=53 velocity=111 time=0
EXTRACT: note_on channel=11 note=63 velocity=99 time=0
EXTRACT: note_on channel=0 note=34 velocity=105 time=0.0012254895833333332
EXTRACT: note_on channel=9 note=42 velocity=102 time=0
EXTRACT: note_on channel=9 note=36 velocity=120 time=0
EXTRACT: note_on channel=9 note=54 velocity=68 time=0
EXTRACT: note_on channel=9 note=42 velocity=0 time=0.049019583333333325
EXTRACT: note_on channel=9 note=36 velocity=0 time=0
EXTRACT: note_on channel=9 note=54 velocity=0 time=0
EXTRACT: note_on channel=11 note=58 velocity=0 time=0.09681367708333333
EXTRACT: note_on channel=11 note=53 velocity=0 time=0
EXTRACT: note_on channel=11 note=63 velocity=0 time=0
EXTRACT: note_on channel=0 note=34 velocity=0 time=0.0012254895833333332
EXTRACT: note_on channel=11 note=58 velocity=94 time=0.14583326041666664
EXTRACT: note_on channel=11 note=53 velocity=103 time=0
EXTRACT: note_on channel=11 note=63 velocity=89 time=0
EXTRACT: note_on channel=9 note=42 velocity=75 time=0.0012254895833333332
EXTRACT: note_on channel=9 note=40 velocity=127 time=0
EXTRACT: note_on channel=9 note=42 velocity=0 time=0.049019583333333325
EXTRACT: note_on channel=9 note=40 velocity=0 time=0
EXTRACT: note_on channel=11 note=58 velocity=0 time=0.09681367708333333
EXTRACT: note_on channel=11 note=53 velocity=0 time=0
EXTRACT: note_on channel=11 note=63 velocity=0 time=0
EXTRACT: note_on channel=14 note=77 velocity=0 time=0.14338228125
EXTRACT: note_on channel=11 note=58 velocity=94 time=0.0036764687499999996
EXTRACT: note_on channel=11 note=53 velocity=87 time=0
EXTRACT: note_on channel=11 note=63 velocity=102 time=0
EXTRACT: note_on channel=0 note=34 velocity=122 time=0.0012254895833333332
EXTRACT: note_on channel=7 note=70 velocity=97 time=0
EXTRACT: note_on channel=9 note=42 velocity=95 time=0
EXTRACT: note_on channel=9 note=36 velocity=120 time=0
EXTRACT: note_on channel=9 note=54 velocity=66 time=0
EXTRACT: note_on channel=14 note=70 velocity=95 time=0
EXTRACT: note_on channel=9 note=42 velocity=0 time=0.049019583333333325
EXTRACT: note_on channel=9 note=36 velocity=0 time=0
EXTRACT: note_on channel=9 note=54 velocity=0 time=0
EXTRACT: note_on channel=0 note=34 velocity=0 time=0.024509791666666662
EXTRACT: note_on channel=11 note=58 velocity=0 time=0.07230388541666666
EXTRACT: note_on channel=11 note=53 velocity=0 time=0
EXTRACT: note_on channel=11 note=63 velocity=0 time=0
EXTRACT: note_on channel=0 note=36 velocity=109 time=0.0012254895833333332
EXTRACT: note_on channel=7 note=70 velocity=0 time=0
EXTRACT: note_on channel=7 note=72 velocity=98 time=0
EXTRACT: note_on channel=9 note=36 velocity=80 time=0
EXTRACT: note_on channel=9 note=36 velocity=0 time=0.049019583333333325
EXTRACT: note_on channel=0 note=36 velocity=0 time=0.024509791666666662
EXTRACT: note_on channel=11 note=58 velocity=106 time=0.07230388541666666
EXTRACT: note_on channel=11 note=53 velocity=88 time=0
EXTRACT: note_on channel=11 note=62 velocity=112 time=0
EXTRACT: note_on channel=0 note=38 velocity=127 time=0.0012254895833333332
EXTRACT: note_on channel=2 note=70 velocity=0 time=0
EXTRACT: note_on channel=2 note=63 velocity=0 time=0
EXTRACT: note_on channel=2 note=65 velocity=0 time=0
EXTRACT: note_on channel=2 note=65 velocity=112 time=0
EXTRACT: note_on channel=2 note=62 velocity=110 time=0
EXTRACT: note_on channel=2 note=70 velocity=127 time=0
EXTRACT: note_on channel=3 note=63 velocity=0 time=0
EXTRACT: note_on channel=3 note=62 velocity=98 time=0
EXTRACT: note_on channel=7 note=72 velocity=0 time=0
EXTRACT: note_on channel=7 note=74 velocity=84 time=0
EXTRACT: note_on channel=9 note=42 velocity=79 time=0
EXTRACT: note_on channel=9 note=36 velocity=120 time=0
EXTRACT: note_on channel=9 note=42 velocity=0 time=0.049019583333333325
EXTRACT: note_on channel=9 note=36 velocity=0 time=0
EXTRACT: note_on channel=11 note=58 velocity=0 time=0.09681367708333333
EXTRACT: note_on channel=11 note=53 velocity=0 time=0
EXTRACT: note_on channel=11 note=62 velocity=0 time=0
EXTRACT: note_on channel=7 note=74 velocity=0 time=0.0012254895833333332
EXTRACT: note_on channel=11 note=58 velocity=94 time=0.14583326041666664
EXTRACT: note_on channel=11 note=53 velocity=95 time=0
EXTRACT: note_on channel=11 note=62 velocity=98 time=0
EXTRACT: note_on channel=9 note=42 velocity=95 time=0.0012254895833333332
EXTRACT: note_on channel=9 note=54 velocity=72 time=0
EXTRACT: note_on channel=9 note=42 velocity=0 time=0.049019583333333325
EXTRACT: note_on channel=9 note=54 velocity=0 time=0
EXTRACT: note_on channel=11 note=58 velocity=0 time=0.09681367708333333
EXTRACT: note_on channel=11 note=53 velocity=0 time=0
EXTRACT: note_on channel=11 note=62 velocity=0 time=0
EXTRACT: note_on channel=11 note=58 velocity=107 time=0.14705875
EXTRACT: note_on channel=11 note=53 velocity=110 time=0
EXTRACT: note_on channel=11 note=62 velocity=94 time=0
EXTRACT: note_on channel=9 note=42 velocity=77 time=0.0012254895833333332
EXTRACT: note_on channel=9 note=40 velocity=127 time=0
EXTRACT: note_on channel=14 note=70 velocity=0 time=0
EXTRACT: note_on channel=9 note=42 velocity=0 time=0.049019583333333325
EXTRACT: note_on channel=9 note=40 velocity=0 time=0
EXTRACT: note_on channel=11 note=58 velocity=0 time=0.09681367708333333
EXTRACT: note_on channel=11 note=53 velocity=0 time=0
EXTRACT: note_on channel=11 note=62 velocity=0 time=0
EXTRACT: note_on channel=11 note=58 velocity=93 time=0.14705875
EXTRACT: note_on channel=11 note=53 velocity=107 time=0
EXTRACT: note_on channel=11 note=62 velocity=103 time=0
EXTRACT: note_on channel=0 note=38 velocity=0 time=0.0012254895833333332
EXTRACT: note_on channel=9 note=36 velocity=100 time=0
EXTRACT: note_on channel=9 note=42 velocity=95 time=0
EXTRACT: note_on channel=9 note=54 velocity=81 time=0
EXTRACT: note_on channel=9 note=36 velocity=0 time=0.049019583333333325
EXTRACT: note_on channel=9 note=42 velocity=0 time=0
EXTRACT: note_on channel=9 note=54 velocity=0 time=0
EXTRACT: note_on channel=11 note=58 velocity=0 time=0.09681367708333333
EXTRACT: note_on channel=11 note=53 velocity=0 time=0
EXTRACT: note_on channel=11 note=62 velocity=0 time=0
EXTRACT: note_on channel=11 note=58 velocity=97 time=0.14705875
EXTRACT: note_on channel=11 note=55 velocity=103 time=0
EXTRACT: note_on channel=11 note=63 velocity=104 time=0
EXTRACT: note_on channel=0 note=39 velocity=112 time=0.0012254895833333332
EXTRACT: note_on channel=2 note=65 velocity=0 time=0
EXTRACT: note_on channel=2 note=62 velocity=0 time=0
EXTRACT: note_on channel=2 note=70 velocity=0 time=0
EXTRACT: note_on channel=2 note=67 velocity=104 time=0
EXTRACT: note_on channel=2 note=63 velocity=116 time=0
EXTRACT: note_on channel=2 note=58 velocity=118 time=0
EXTRACT: note_on channel=3 note=65 velocity=0 time=0
EXTRACT: note_on channel=3 note=58 velocity=0 time=0
EXTRACT: note_on channel=3 note=62 velocity=0 time=0
EXTRACT: note_on channel=3 note=58 velocity=82 time=0
EXTRACT: note_on channel=3 note=67 velocity=91 time=0
EXTRACT: note_on channel=3 note=63 velocity=77 time=0
EXTRACT: note_on channel=9 note=42 velocity=81 time=0
EXTRACT: note_on channel=9 note=36 velocity=120 time=0
EXTRACT: note_on channel=14 note=79 velocity=97 time=0
EXTRACT: note_on channel=9 note=42 velocity=0 time=0.049019583333333325
EXTRACT: note_on channel=9 note=36 velocity=0 time=0
EXTRACT: note_on channel=11 note=58 velocity=0 time=0.09681367708333333
EXTRACT: note_on channel=11 note=55 velocity=0 time=0
EXTRACT: note_on channel=11 note=63 velocity=0 time=0
EXTRACT: note_on channel=11 note=58 velocity=93 time=0.14705875
EXTRACT: note_on channel=11 note=55 velocity=98 time=0
EXTRACT: note_on channel=11 note=63 velocity=89 time=0
EXTRACT: note_on channel=9 note=42 velocity=104 time=0.0012254895833333332
EXTRACT: note_on channel=9 note=54 velocity=69 time=0
EXTRACT: note_on channel=14 note=79 velocity=0 time=0
EXTRACT: note_on channel=9 note=42 velocity=0 time=0.049019583333333325
EXTRACT: note_on channel=9 note=54 velocity=0 time=0
EXTRACT: note_on channel=11 note=58 velocity=0 time=0.09681367708333333
EXTRACT: note_on channel=11 note=55 velocity=0 time=0
EXTRACT: note_on channel=11 note=63 velocity=0 time=0
EXTRACT: note_on channel=0 note=39 velocity=0 time=0.0012254895833333332
EXTRACT: note_on channel=11 note=58 velocity=90 time=0.14583326041666664
EXTRACT: note_on channel=11 note=55 velocity=89 time=0
EXTRACT: note_on channel=11 note=63 velocity=88 time=0
EXTRACT: note_on channel=0 note=39 velocity=108 time=0.0012254895833333332
EXTRACT: note_on channel=9 note=42 velocity=71 time=0
EXTRACT: note_on channel=9 note=40 velocity=127 time=0
EXTRACT: note_on channel=14 note=75 velocity=98 time=0
EXTRACT: note_on channel=9 note=42 velocity=0 time=0.049019583333333325
EXTRACT: note_on channel=9 note=40 velocity=0 time=0
EXTRACT: note_on channel=11 note=58 velocity=0 time=0.09681367708333333
EXTRACT: note_on channel=11 note=55 velocity=0 time=0
EXTRACT: note_on channel=11 note=63 velocity=0 time=0
EXTRACT: note_on channel=11 note=58 velocity=88 time=0.14705875
EXTRACT: note_on channel=11 note=55 velocity=110 time=0
EXTRACT: note_on channel=11 note=63 velocity=112 time=0
EXTRACT: note_on channel=9 note=42 velocity=101 time=0.0012254895833333332
EXTRACT: note_on channel=9 note=36 velocity=120 time=0
EXTRACT: note_on channel=9 note=54 velocity=72 time=0
EXTRACT: note_on channel=14 note=75 velocity=0 time=0
EXTRACT: note_on channel=9 note=42 velocity=0 time=0.049019583333333325
EXTRACT: note_on channel=9 note=36 velocity=0 time=0
EXTRACT: note_on channel=9 note=54 velocity=0 time=0
EXTRACT: note_on channel=11 note=58 velocity=0 time=0.09681367708333333
EXTRACT: note_on channel=11 note=55 velocity=0 time=0
EXTRACT: note_on channel=11 note=63 velocity=0 time=0
EXTRACT: note_on channel=0 note=39 velocity=0 time=0.0012254895833333332
EXTRACT: note_on channel=11 note=59 velocity=88 time=0.14583326041666664
EXTRACT: note_on channel=11 note=55 velocity=104 time=0
EXTRACT: note_on channel=11 note=62 velocity=95 time=0
EXTRACT: note_on channel=0 note=43 velocity=113 time=0.0012254895833333332
EXTRACT: note_on channel=2 note=67 velocity=0 time=0
EXTRACT: note_on channel=2 note=63 velocity=0 time=0
EXTRACT: note_on channel=2 note=58 velocity=0 time=0
EXTRACT: note_on channel=2 note=59 velocity=113 time=0
EXTRACT: note_on channel=2 note=62 velocity=124 time=0
EXTRACT: note_on channel=2 note=67 velocity=119 time=0
EXTRACT: note_on channel=3 note=58 velocity=0 time=0
EXTRACT: note_on channel=3 note=63 velocity=0 time=0
EXTRACT: note_on channel=3 note=59 velocity=90 time=0
EXTRACT: note_on channel=3 note=62 velocity=81 time=0
EXTRACT: note_on channel=9 note=42 velocity=84 time=0
EXTRACT: note_on channel=9 note=36 velocity=120 time=0
EXTRACT: note_on channel=14 note=74 velocity=98 time=0
EXTRACT: note_on channel=9 note=42 velocity=0 time=0.049019583333333325
EXTRACT: note_on channel=9 note=36 velocity=0 time=0
EXTRACT: note_on channel=11 note=59 velocity=0 time=0.09681367708333333
EXTRACT: note_on channel=11 note=55 velocity=0 time=0
EXTRACT: note_on channel=11 note=62 velocity=0 time=0
EXTRACT: note_on channel=11 note=59 velocity=94 time=0.14705875
EXTRACT: note_on channel=11 note=55 velocity=109 time=0
EXTRACT: note_on channel=11 note=62 velocity=89 time=0
EXTRACT: note_on channel=9 note=36 velocity=120 time=0.0012254895833333332
EXTRACT: note_on channel=9 note=42 velocity=105 time=0
EXTRACT: note_on channel=9 note=54 velocity=83 time=0
EXTRACT: note_on channel=14 note=74 velocity=0 time=0
EXTRACT: note_on channel=9 note=36 velocity=0 time=0.049019583333333325
EXTRACT: note_on channel=9 note=42 velocity=0 time=0
EXTRACT: note_on channel=9 note=54 velocity=0 time=0
EXTRACT: note_on channel=11 note=59 velocity=0 time=0.09681367708333333
EXTRACT: note_on channel=11 note=55 velocity=0 time=0
EXTRACT: note_on channel=11 note=62 velocity=0 time=0
EXTRACT: note_on channel=0 note=43 velocity=0 time=0.0012254895833333332
EXTRACT: note_on channel=11 note=59 velocity=93 time=0.14583326041666664
EXTRACT: note_on channel=11 note=55 velocity=99 time=0
EXTRACT: note_on channel=11 note=62 velocity=105 time=0
EXTRACT: note_on channel=0 note=31 velocity=123 time=0.0012254895833333332
EXTRACT: note_on channel=9 note=42 velocity=76 time=0
EXTRACT: note_on channel=9 note=40 velocity=127 time=0
EXTRACT: note_on channel=14 note=77 velocity=101 time=0
EXTRACT: note_on channel=9 note=42 velocity=0 time=0.049019583333333325
EXTRACT: note_on channel=9 note=40 velocity=0 time=0
EXTRACT: note_on channel=11 note=59 velocity=0 time=0.09681367708333333
EXTRACT: note_on channel=11 note=55 velocity=0 time=0
EXTRACT: note_on channel=11 note=62 velocity=0 time=0
EXTRACT: note_on channel=11 note=59 velocity=109 time=0.14705875
EXTRACT: note_on channel=11 note=55 velocity=87 time=0
EXTRACT: note_on channel=11 note=62 velocity=103 time=0
EXTRACT: note_on channel=9 note=36 velocity=110 time=0.0012254895833333332
EXTRACT: note_on channel=9 note=42 velocity=100 time=0
EXTRACT: note_on channel=9 note=54 velocity=83 time=0
EXTRACT: note_on channel=14 note=77 velocity=0 time=0
EXTRACT: note_on channel=9 note=36 velocity=0 time=0.049019583333333325
EXTRACT: note_on channel=9 note=42 velocity=0 time=0
EXTRACT: note_on channel=9 note=54 velocity=0 time=0
EXTRACT: note_on channel=11 note=59 velocity=0 time=0.09681367708333333
EXTRACT: note_on channel=11 note=55 velocity=0 time=0
EXTRACT: note_on channel=11 note=62 velocity=0 time=0
EXTRACT: note_on channel=0 note=31 velocity=0 time=0.0012254895833333332
EXTRACT: note_on channel=11 note=55 velocity=108 time=0.14583326041666664
EXTRACT: note_on channel=11 note=60 velocity=110 time=0
EXTRACT: note_on channel=11 note=63 velocity=112 time=0
EXTRACT: note_on channel=0 note=36 velocity=125 time=0.0012254895833333332
EXTRACT: note_on channel=1 note=60 velocity=117 time=0
EXTRACT: note_on channel=2 note=59 velocity=0 time=0
EXTRACT: note_on channel=2 note=62 velocity=0 time=0
EXTRACT: note_on channel=2 note=67 velocity=0 time=0
EXTRACT: note_on channel=2 note=60 velocity=107 time=0
EXTRACT: note_on channel=2 note=63 velocity=103 time=0
EXTRACT: note_on channel=2 note=67 velocity=116 time=0
EXTRACT: note_on channel=3 note=67 velocity=0 time=0
EXTRACT: note_on channel=3 note=59 velocity=0 time=0
EXTRACT: note_on channel=3 note=62 velocity=0 time=0
EXTRACT: note_on channel=3 note=63 velocity=91 time=0
EXTRACT: note_on channel=3 note=60 velocity=85 time=0
EXTRACT: note_on channel=3 note=55 velocity=91 time=0
EXTRACT: note_on channel=9 note=49 velocity=100 time=0
EXTRACT: note_on channel=9 note=36 velocity=120 time=0
EXTRACT: note_on channel=14 note=79 velocity=127 time=0
EXTRACT: note_on channel=9 note=49 velocity=0 time=0.049019583333333325
EXTRACT: note_on channel=9 note=36 velocity=0 time=0
EXTRACT: note_on channel=11 note=55 velocity=0 time=0.09681367708333333
EXTRACT: note_on channel=11 note=60 velocity=0 time=0
EXTRACT: note_on channel=11 note=63 velocity=0 time=0
EXTRACT: note_on channel=0 note=36 velocity=0 time=0.0012254895833333332
EXTRACT: note_on channel=11 note=55 velocity=111 time=0.14583326041666664
EXTRACT: note_on channel=11 note=60 velocity=106 time=0
EXTRACT: note_on channel=11 note=63 velocity=91 time=0
EXTRACT: note_on channel=0 note=36 velocity=107 time=0.0012254895833333332
EXTRACT: note_on channel=1 note=60 velocity=0 time=0
EXTRACT: note_on channel=9 note=42 velocity=95 time=0
EXTRACT: note_on channel=9 note=36 velocity=120 time=0
EXTRACT: note_on channel=9 note=54 velocity=68 time=0
EXTRACT: note_on channel=9 note=42 velocity=0 time=0.049019583333333325
EXTRACT: note_on channel=9 note=36 velocity=0 time=0
EXTRACT: note_on channel=9 note=54 velocity=0 time=0
EXTRACT: note_on channel=11 note=55 velocity=0 time=0.09681367708333333
EXTRACT: note_on channel=11 note=60 velocity=0 time=0
EXTRACT: note_on channel=11 note=63 velocity=0 time=0
EXTRACT: note_on channel=0 note=36 velocity=0 time=0.0012254895833333332
EXTRACT: note_on channel=11 note=55 velocity=107 time=0.14583326041666664
EXTRACT: note_on channel=11 note=60 velocity=99 time=0
EXTRACT: note_on channel=11 note=63 velocity=98 time=0
EXTRACT: note_on channel=9 note=42 velocity=72 time=0.0012254895833333332
EXTRACT: note_on channel=9 note=40 velocity=127 time=0
EXTRACT: note_on channel=9 note=42 velocity=0 time=0.049019583333333325
EXTRACT: note_on channel=9 note=40 velocity=0 time=0
EXTRACT: note_on channel=11 note=55 velocity=0 time=0.09681367708333333
EXTRACT: note_on channel=11 note=60 velocity=0 time=0
EXTRACT: note_on channel=11 note=63 velocity=0 time=0
EXTRACT: note_on channel=14 note=79 velocity=0 time=0.14338228125
EXTRACT: note_on channel=11 note=55 velocity=100 time=0.0036764687499999996
EXTRACT: note_on channel=11 note=60 velocity=91 time=0
EXTRACT: note_on channel=11 note=63 velocity=112 time=0
EXTRACT: note_on channel=0 note=38 velocity=122 time=0.0012254895833333332
EXTRACT: note_on channel=7 note=72 velocity=106 time=0
EXTRACT: note_on channel=9 note=42 velocity=99 time=0
EXTRACT: note_on channel=9 note=36 velocity=120 time=0
EXTRACT: note_on channel=9 note=54 velocity=84 time=0
EXTRACT: note_on channel=14 note=72 velocity=120 time=0
EXTRACT: note_on channel=9 note=42 velocity=0 time=0.049019583333333325
EXTRACT: note_on channel=9 note=36 velocity=0 time=0
EXTRACT: note_on channel=9 note=54 velocity=0 time=0
EXTRACT: note_on channel=11 note=55 velocity=0 time=0.09681367708333333
EXTRACT: note_on channel=11 note=60 velocity=0 time=0
EXTRACT: note_on channel=11 note=63 velocity=0 time=0
EXTRACT: note_on channel=0 note=38 velocity=0 time=0.0012254895833333332
EXTRACT: note_on channel=7 note=72 velocity=0 time=0
EXTRACT: note_on channel=7 note=74 velocity=96 time=0
EXTRACT: note_on channel=9 note=36 velocity=100 time=0
EXTRACT: note_on channel=9 note=36 velocity=0 time=0.049019583333333325
EXTRACT: note_on channel=11 note=55 velocity=109 time=0.09681367708333333
EXTRACT: note_on channel=11 note=60 velocity=103 time=0
EXTRACT: note_on channel=11 note=63 velocity=89 time=0
EXTRACT: note_on channel=0 note=39 velocity=105 time=0.0012254895833333332
EXTRACT: note_on channel=7 note=74 velocity=0 time=0
EXTRACT: note_on channel=7 note=75 velocity=82 time=0
EXTRACT: note_on channel=9 note=42 velocity=84 time=0
EXTRACT: note_on channel=9 note=36 velocity=120 time=0
EXTRACT: note_on channel=9 note=42 velocity=0 time=0.049019583333333325
EXTRACT: note_on channel=9 note=36 velocity=0 time=0
EXTRACT: note_on channel=11 note=55 velocity=0 time=0.09681367708333333
EXTRACT: note_on channel=11 note=60 velocity=0 time=0
EXTRACT: note_on channel=11 note=63 velocity=0 time=0
EXTRACT: note_on channel=7 note=75 velocity=0 time=0.0012254895833333332
EXTRACT: note_on channel=11 note=55 velocity=111 time=0.14583326041666664
EXTRACT: note_on channel=11 note=60 velocity=89 time=0
EXTRACT: note_on channel=11 note=63 velocity=99 time=0
EXTRACT: note_on channel=0 note=39 velocity=0 time=0.0012254895833333332
EXTRACT: note_on channel=9 note=42 velocity=102 time=0
EXTRACT: note_on channel=9 note=54 velocity=85 time=0
EXTRACT: note_on channel=9 note=42 velocity=0 time=0.049019583333333325
EXTRACT: note_on channel=9 note=54 velocity=0 time=0
EXTRACT: note_on channel=11 note=55 velocity=0 time=0.09681367708333333
EXTRACT: note_on channel=11 note=60 velocity=0 time=0
EXTRACT: note_on channel=11 note=63 velocity=0 time=0
EXTRACT: note_on channel=14 note=72 velocity=0 time=0.14338228125
EXTRACT: note_on channel=11 note=55 velocity=95 time=0.0036764687499999996
EXTRACT: note_on channel=11 note=60 velocity=97 time=0
EXTRACT: note_on channel=11 note=63 velocity=104 time=0
EXTRACT: note_on channel=0 note=36 velocity=107 time=0.0012254895833333332
EXTRACT: note_on channel=9 note=42 velocity=82 time=0
EXTRACT: note_on channel=9 note=40 velocity=127 time=0
EXTRACT: note_on channel=14 note=72 velocity=117 time=0
EXTRACT: note_on channel=9 note=42 velocity=0 time=0.049019583333333325
EXTRACT: note_on channel=9 note=40 velocity=0 time=0
EXTRACT: note_on channel=11 note=55 velocity=0 time=0.09681367708333333
EXTRACT: note_on channel=11 note=60 velocity=0 time=0
EXTRACT: note_on channel=11 note=63 velocity=0 time=0
EXTRACT: note_on channel=14 note=72 velocity=0 time=0.0012254895833333332
EXTRACT: note_on channel=11 note=55 velocity=103 time=0.14583326041666664
EXTRACT: note_on channel=11 note=60 velocity=100 time=0
EXTRACT: note_on channel=11 note=63 velocity=87 time=0
EXTRACT: note_on channel=0 note=36 velocity=0 time=0.0012254895833333332
EXTRACT: note_on channel=9 note=42 velocity=99 time=0
EXTRACT: note_on channel=9 note=54 velocity=76 time=0
EXTRACT: note_on channel=14 note=74 velocity=97 time=0
EXTRACT: note_on channel=9 note=42 velocity=0 time=0.049019583333333325
EXTRACT: note_on channel=9 note=54 velocity=0 time=0
EXTRACT: note_on channel=11 note=55 velocity=0 time=0.09681367708333333
EXTRACT: note_on channel=11 note=60 velocity=0 time=0
EXTRACT: note_on channel=11 note=63 velocity=0 time=0
EXTRACT: note_on channel=14 note=74 velocity=0 time=0.0012254895833333332
EXTRACT: note_on channel=11 note=56 velocity=104 time=0.14583326041666664
EXTRACT: note_on channel=11 note=60 velocity=91 time=0
EXTRACT: note_on channel=11 note=63 velocity=93 time=0
EXTRACT: note_on channel=0 note=44 velocity=109 time=0.0012254895833333332
EXTRACT: note_on channel=2 note=60 velocity=0 time=0
EXTRACT: note_on channel=2 note=63 velocity=0 time=0
EXTRACT: note_on channel=2 note=67 velocity=0 time=0
EXTRACT: note_on channel=2 note=60 velocity=115 time=0
EXTRACT: note_on channel=2 note=63 velocity=109 time=0
EXTRACT: note_on channel=2 note=68 velocity=104 time=0
EXTRACT: note_on channel=3 note=55 velocity=0 time=0
EXTRACT: note_on channel=3 note=56 velocity=98 time=0
EXTRACT: note_on channel=9 note=42 velocity=81 time=0
EXTRACT: note_on channel=9 note=36 velocity=120 time=0
EXTRACT: note_on channel=14 note=77 velocity=113 time=0
EXTRACT: note_on channel=9 note=42 velocity=0 time=0.049019583333333325
EXTRACT: note_on channel=9 note=36 velocity=0 time=0
EXTRACT: note_on channel=11 note=56 velocity=0 time=0.09681367708333333
EXTRACT: note_on channel=11 note=60 velocity=0 time=0
EXTRACT: note_on channel=11 note=63 velocity=0 time=0
EXTRACT: note_on channel=0 note=44 velocity=0 time=0.0012254895833333332
EXTRACT: note_on channel=14 note=77 velocity=0 time=0
EXTRACT: note_on channel=11 note=56 velocity=87 time=0.14583326041666664
EXTRACT: note_on channel=11 note=60 velocity=110 time=0
EXTRACT: note_on channel=11 note=63 velocity=93 time=0
EXTRACT: note_on channel=0 note=44 velocity=109 time=0.0012254895833333332
EXTRACT: note_on channel=9 note=42 velocity=101 time=0
EXTRACT: note_on channel=9 note=36 velocity=120 time=0
EXTRACT: note_on channel=9 note=54 velocity=85 time=0
EXTRACT: note_on channel=14 note=77 velocity=115 time=0
EXTRACT: note_on channel=9 note=42 velocity=0 time=0.049019583333333325
EXTRACT: note_on channel=9 note=36 velocity=0 time=0
EXTRACT: note_on channel=9 note=54 velocity=0 time=0
EXTRACT: note_on channel=11 note=56 velocity=0 time=0.09681367708333333
EXTRACT: note_on channel=11 note=60 velocity=0 time=0
EXTRACT: note_on channel=11 note=63 velocity=0 time=0
EXTRACT: note_on channel=0 note=44 velocity=0 time=0.0012254895833333332
EXTRACT: note_on channel=14 note=77 velocity=0 time=0
EXTRACT: note_on channel=11 note=56 velocity=94 time=0.14583326041666664
EXTRACT: note_on channel=11 note=60 velocity=101 time=0
EXTRACT: note_on channel=11 note=63 velocity=99 time=0
EXTRACT: note_on channel=9 note=42 velocity=76 time=0.0012254895833333332
EXTRACT: note_on channel=9 note=40 velocity=127 time=0
EXTRACT: note_on channel=14 note=77 velocity=117 time=0
EXTRACT: note_on channel=9 note=42 velocity=0 time=0.049019583333333325
EXTRACT: note_on channel=9 note=40 velocity=0 time=0
EXTRACT: note_on channel=11 note=56 velocity=0 time=0.09681367708333333
EXTRACT: note_on channel=11 note=60 velocity=0 time=0
EXTRACT: note_on channel=11 note=63 velocity=0 time=0
EXTRACT: note_on channel=14 note=77 velocity=0 time=0.0012254895833333332
EXTRACT: note_on channel=11 note=56 velocity=100 time=0.14583326041666664
EXTRACT: note_on channel=11 note=60 velocity=92 time=0
EXTRACT: note_on channel=11 note=63 velocity=100 time=0
EXTRACT: note_on channel=0 note=39 velocity=126 time=0.0012254895833333332
EXTRACT: note_on channel=9 note=42 velocity=97 time=0
EXTRACT: note_on channel=9 note=36 velocity=120 time=0
EXTRACT: note_on channel=9 note=54 velocity=69 time=0
EXTRACT: note_on channel=14 note=77 velocity=124 time=0
EXTRACT: note_on channel=9 note=42 velocity=0 time=0.049019583333333325
EXTRACT: note_on channel=9 note=36 velocity=0 time=0
EXTRACT: note_on channel=9 note=54 velocity=0 time=0
EXTRACT: note_on channel=11 note=56 velocity=0 time=0.09681367708333333
EXTRACT: note_on channel=11 note=60 velocity=0 time=0
EXTRACT: note_on channel=11 note=63 velocity=0 time=0
EXTRACT: note_on channel=0 note=39 velocity=0 time=0.0012254895833333332
EXTRACT: note_on channel=14 note=77 velocity=0 time=0
EXTRACT: note_on channel=11 note=56 velocity=105 time=0.14583326041666664
EXTRACT: note_on channel=11 note=60 velocity=110 time=0
EXTRACT: note_on channel=11 note=63 velocity=96 time=0
EXTRACT: note_on channel=0 note=44 velocity=120 time=0.0012254895833333332
EXTRACT: note_on channel=9 note=42 velocity=84 time=0
EXTRACT: note_on channel=9 note=36 velocity=120 time=0
EXTRACT: note_on channel=14 note=75 velocity=108 time=0
EXTRACT: note_on channel=9 note=42 velocity=0 time=0.049019583333333325
EXTRACT: note_on channel=9 note=36 velocity=0 time=0
EXTRACT: note_on channel=11 note=56 velocity=0 time=0.09681367708333333
EXTRACT: note_on channel=11 note=60 velocity=0 time=0
EXTRACT: note_on channel=11 note=63 velocity=0 time=0
EXTRACT: note_on channel=11 note=56 velocity=102 time=0.14705875
EXTRACT: note_on channel=11 note=60 velocity=101 time=0
EXTRACT: note_on channel=11 note=63 velocity=96 time=0
EXTRACT: note_on channel=0 note=44 velocity=0 time=0.0012254895833333332
EXTRACT: note_on channel=9 note=42 velocity=102 time=0
EXTRACT: note_on channel=9 note=54 velocity=71 time=0
EXTRACT: note_on channel=14 note=75 velocity=0 time=0
EXTRACT: note_on channel=9 note=42 velocity=0 time=0.049019583333333325
EXTRACT: note_on channel=9 note=54 velocity=0 time=0
EXTRACT: note_on channel=11 note=56 velocity=0 time=0.09681367708333333
EXTRACT: note_on channel=11 note=60 velocity=0 time=0
EXTRACT: note_on channel=11 note=63 velocity=0 time=0
EXTRACT: note_on channel=11 note=55 velocity=103 time=0.14705875
EXTRACT: note_on channel=11 note=60 velocity=96 time=0
EXTRACT: note_on channel=11 note=63 velocity=96 time=0
EXTRACT: note_on channel=0 note=43 velocity=124 time=0.0012254895833333332
EXTRACT: note_on channel=2 note=60 velocity=0 time=0
EXTRACT: note_on channel=2 note=63 velocity=0 time=0
EXTRACT: note_on channel=2 note=68 velocity=0 time=0
EXTRACT: note_on channel=2 note=67 velocity=113 time=0
EXTRACT: note_on channel=2 note=63 velocity=120 time=0
EXTRACT: note_on channel=3 note=60 velocity=0 time=0
EXTRACT: note_on channel=3 note=56 velocity=0 time=0
EXTRACT: note_on channel=3 note=55 velocity=84 time=0
EXTRACT: note_on channel=9 note=42 velocity=80 time=0
EXTRACT: note_on channel=9 note=40 velocity=127 time=0
EXTRACT: note_on channel=14 note=72 velocity=116 time=0
EXTRACT: note_on channel=9 note=42 velocity=0 time=0.049019583333333325
EXTRACT: note_on channel=9 note=40 velocity=0 time=0
EXTRACT: note_on channel=11 note=55 velocity=0 time=0.09681367708333333
EXTRACT: note_on channel=11 note=60 velocity=0 time=0
EXTRACT: note_on channel=11 note=63 velocity=0 time=0
EXTRACT: note_on channel=14 note=72 velocity=0 time=0.0012254895833333332
EXTRACT: note_on channel=11 note=55 velocity=108 time=0.14583326041666664
EXTRACT: note_on channel=11 note=60 velocity=93 time=0
EXTRACT: note_on channel=11 note=63 velocity=95 time=0
EXTRACT: note_on channel=9 note=42 velocity=103 time=0.0012254895833333332
EXTRACT: note_on channel=9 note=54 velocity=82 time=0
EXTRACT: note_on channel=14 note=75 velocity=119 time=0
EXTRACT: note_on channel=9 note=42 velocity=0 time=0.049019583333333325
EXTRACT: note_on channel=9 note=54 velocity=0 time=0
EXTRACT: note_on channel=11 note=55 velocity=0 time=0.09681367708333333
EXTRACT: note_on channel=11 note=60 velocity=0 time=0
EXTRACT: note_on channel=11 note=63 velocity=0 time=0
EXTRACT: note_on channel=0 note=43 velocity=0 time=0.0012254895833333332
EXTRACT: note_on channel=14 note=75 velocity=0 time=0
EXTRACT: note_on channel=11 note=56 velocity=93 time=0.14583326041666664
EXTRACT: note_on channel=11 note=60 velocity=96 time=0
EXTRACT: note_on channel=11 note=63 velocity=109 time=0
EXTRACT: note_on channel=0 note=41 velocity=123 time=0.0012254895833333332
EXTRACT: note_on channel=2 note=67 velocity=0 time=0
EXTRACT: note_on channel=2 note=63 velocity=0 time=0
EXTRACT: note_on channel=2 note=56 velocity=111 time=0
EXTRACT: note_on channel=2 note=60 velocity=121 time=0
EXTRACT: note_on channel=2 note=65 velocity=121 time=0
EXTRACT: note_on channel=3 note=63 velocity=0 time=0
EXTRACT: note_on channel=3 note=55 velocity=0 time=0
EXTRACT: note_on channel=3 note=60 velocity=98 time=0
EXTRACT: note_on channel=3 note=56 velocity=83 time=0
EXTRACT: note_on channel=9 note=42 velocity=82 time=0
EXTRACT: note_on channel=9 note=36 velocity=120 time=0
EXTRACT: note_on channel=14 note=77 velocity=121 time=0
EXTRACT: note_on channel=9 note=42 velocity=0 time=0.049019583333333325
EXTRACT: note_on channel=9 note=36 velocity=0 time=0
EXTRACT: note_on channel=11 note=56 velocity=0 time=0.09681367708333333
EXTRACT: note_on channel=11 note=60 velocity=0 time=0
EXTRACT: note_on channel=11 note=63 velocity=0 time=0
EXTRACT: note_on channel=0 note=41 velocity=0 time=0.0012254895833333332
EXTRACT: note_on channel=11 note=56 velocity=108 time=0.14583326041666664
EXTRACT: note_on channel=11 note=60 velocity=90 time=0
EXTRACT: note_on channel=11 note=63 velocity=89 time=0
EXTRACT: note_on channel=0 note=41 velocity=107 time=0.0012254895833333332
EXTRACT: note_on channel=9 note=42 velocity=102 time=0
EXTRACT: note_on channel=9 note=36 velocity=120 time=0
EXTRACT: note_on channel=9 note=54 velocity=82 time=0
EXTRACT: note_on channel=9 note=42 velocity=0 time=0.049019583333333325
EXTRACT: note_on channel=9 note=36 velocity=0 time=0
EXTRACT: note_on channel=9 note=54 velocity=0 time=0
EXTRACT: note_on channel=11 note=56 velocity=0 time=0.09681367708333333
EXTRACT: note_on channel=11 note=60 velocity=0 time=0
EXTRACT: note_on channel=11 note=63 velocity=0 time=0
EXTRACT: note_on channel=0 note=41 velocity=0 time=0.0012254895833333332
EXTRACT: note_on channel=11 note=56 velocity=111 time=0.14583326041666664
EXTRACT: note_on channel=11 note=60 velocity=105 time=0
EXTRACT: note_on channel=11 note=63 velocity=89 time=0
EXTRACT: note_on channel=9 note=42 velocity=78 time=0.0012254895833333332
EXTRACT: note_on channel=9 note=40 velocity=127 time=0
EXTRACT: note_on channel=9 note=42 velocity=0 time=0.049019583333333325
EXTRACT: note_on channel=9 note=40 velocity=0 time=0
EXTRACT: note_on channel=11 note=56 velocity=0 time=0.09681367708333333
EXTRACT: note_on channel=11 note=60 velocity=0 time=0
EXTRACT: note_on channel=11 note=63 velocity=0 time=0
EXTRACT: note_on channel=14 note=77 velocity=0 time=0.14338228125
EXTRACT: note_on channel=11 note=56 velocity=102 time=0.0036764687499999996
EXTRACT: note_on channel=11 note=60 velocity=95 time=0
EXTRACT: note_on channel=11 note=63 velocity=90 time=0
EXTRACT: note_on channel=0 note=41 velocity=124 time=0.0012254895833333332
EXTRACT: note_on channel=9 note=42 velocity=104 time=0
EXTRACT: note_on channel=9 note=36 velocity=120 time=0
EXTRACT: note_on channel=9 note=54 velocity=79 time=0
EXTRACT: note_on channel=14 note=72 velocity=108 time=0
EXTRACT: note_on channel=9 note=42 velocity=0 time=0.049019583333333325
EXTRACT: note_on channel=9 note=36 velocity=0 time=0
EXTRACT: note_on channel=9 note=54 velocity=0 time=0
EXTRACT: note_on channel=11 note=56 velocity=0 time=0.09681367708333333
EXTRACT: note_on channel=11 note=60 velocity=0 time=0
EXTRACT: note_on channel=11 note=63 velocity=0 time=0
EXTRACT: note_on channel=0 note=41 velocity=0 time=0.0012254895833333332
EXTRACT: note_on channel=11 note=56 velocity=107 time=0.14583326041666664
EXTRACT: note_on channel=11 note=60 velocity=112 time=0
EXTRACT: note_on channel=11 note=63 velocity=97 time=0
EXTRACT: note_on channel=0 note=41 velocity=121 time=0.0012254895833333332
EXTRACT: note_on channel=9 note=42 velocity=83 time=0
EXTRACT: note_on channel=9 note=36 velocity=120 time=0
EXTRACT: note_on channel=9 note=42 velocity=0 time=0.049019583333333325
EXTRACT: note_on channel=9 note=36 velocity=0 time=0
EXTRACT: note_on channel=11 note=56 velocity=0 time=0.09681367708333333
EXTRACT: note_on channel=11 note=60 velocity=0 time=0
EXTRACT: note_on channel=11 note=63 velocity=0 time=0
EXTRACT: note_on channel=0 note=41 velocity=0 time=0.0012254895833333332
EXTRACT: note_on channel=11 note=56 velocity=98 time=0.14583326041666664
EXTRACT: note_on channel=11 note=60 velocity=89 time=0
EXTRACT: note_on channel=11 note=63 velocity=97 time=0
EXTRACT: note_on channel=0 note=41 velocity=112 time=0.0012254895833333332
EXTRACT: note_on channel=9 note=36 velocity=120 time=0
EXTRACT: note_on channel=9 note=42 velocity=99 time=0
EXTRACT: note_on channel=9 note=54 velocity=82 time=0
EXTRACT: note_on channel=9 note=36 velocity=0 time=0.049019583333333325
EXTRACT: note_on channel=9 note=42 velocity=0 time=0
EXTRACT: note_on channel=9 note=54 velocity=0 time=0
EXTRACT: note_on channel=11 note=56 velocity=0 time=0.09681367708333333
EXTRACT: note_on channel=11 note=60 velocity=0 time=0
EXTRACT: note_on channel=11 note=63 velocity=0 time=0
EXTRACT: note_on channel=0 note=41 velocity=0 time=0.0012254895833333332
EXTRACT: note_on channel=11 note=56 velocity=111 time=0.14583326041666664
EXTRACT: note_on channel=11 note=60 velocity=97 time=0
EXTRACT: note_on channel=11 note=63 velocity=88 time=0
EXTRACT: note_on channel=9 note=42 velocity=79 time=0.0012254895833333332
EXTRACT: note_on channel=9 note=40 velocity=127 time=0
EXTRACT: note_on channel=14 note=72 velocity=0 time=0
EXTRACT: note_on channel=9 note=42 velocity=0 time=0.049019583333333325
EXTRACT: note_on channel=9 note=40 velocity=0 time=0
EXTRACT: note_on channel=11 note=56 velocity=0 time=0.09681367708333333
EXTRACT: note_on channel=11 note=60 velocity=0 time=0
EXTRACT: note_on channel=11 note=63 velocity=0 time=0
EXTRACT: note_on channel=11 note=56 velocity=90 time=0.14705875
EXTRACT: note_on channel=11 note=60 velocity=110 time=0
EXTRACT: note_on channel=11 note=63 velocity=104 time=0
EXTRACT: note_on channel=0 note=38 velocity=121 time=0.0012254895833333332
EXTRACT: note_on channel=9 note=36 velocity=100 time=0
EXTRACT: note_on channel=9 note=42 velocity=105 time=0
EXTRACT: note_on channel=9 note=54 velocity=78 time=0
EXTRACT: note_on channel=9 note=36 velocity=0 time=0.049019583333333325
EXTRACT: note_on channel=9 note=42 velocity=0 time=0
EXTRACT: note_on channel=9 note=54 velocity=0 time=0
EXTRACT: note_on channel=11 note=56 velocity=0 time=0.09681367708333333
EXTRACT: note_on channel=11 note=60 velocity=0 time=0
EXTRACT: note_on channel=11 note=63 velocity=0 time=0
EXTRACT: note_on channel=0 note=38 velocity=0 time=0.0012254895833333332
EXTRACT: note_on channel=11 note=55 velocity=89 time=0.14583326041666664
EXTRACT: note_on channel=11 note=62 velocity=93 time=0
EXTRACT: note_on channel=0 note=31 velocity=107 time=0.0012254895833333332
EXTRACT: note_on channel=2 note=56 velocity=0 time=0
EXTRACT: note_on channel=2 note=60 velocity=0 time=0
EXTRACT: note_on channel=2 note=65 velocity=0 time=0
EXTRACT: note_on channel=2 note=67 velocity=112 time=0
EXTRACT: note_on channel=2 note=62 velocity=114 time=0
EXTRACT: note_on channel=2 note=59 velocity=107 time=0
EXTRACT: note_on channel=3 note=60 velocity=0 time=0
EXTRACT: note_on channel=3 note=56 velocity=0 time=0
EXTRACT: note_on channel=3 note=67 velocity=80 time=0
EXTRACT: note_on channel=3 note=62 velocity=96 time=0
EXTRACT: note_on channel=3 note=59 velocity=99 time=0
EXTRACT: note_on channel=9 note=57 velocity=100 time=0
EXTRACT: note_on channel=9 note=36 velocity=120 time=0
EXTRACT: note_on channel=14 note=71 velocity=104 time=0
EXTRACT: note_on channel=9 note=57 velocity=0 time=0.049019583333333325
EXTRACT: note_on channel=9 note=36 velocity=0 time=0
EXTRACT: note_on channel=11 note=55 velocity=0 time=0.24387242708333332
EXTRACT: note_on channel=11 note=62 velocity=0 time=0
EXTRACT: note_on channel=2 note=67 velocity=0 time=0.0012254895833333332
EXTRACT: note_on channel=2 note=62 velocity=0 time=0
EXTRACT: note_on channel=2 note=59 velocity=0 time=0
EXTRACT: note_on channel=3 note=67 velocity=0 time=0
EXTRACT: note_on channel=3 note=62 velocity=0 time=0
EXTRACT: note_on channel=3 note=59 velocity=0 time=0
EXTRACT: note_on channel=14 note=71 velocity=0 time=0
EXTRACT: note_on channel=0 note=31 velocity=0 time=0.14705875
EXTRACT: note_on channel=11 note=55 velocity=89 time=0.14583326041666664
EXTRACT: note_on channel=11 note=62 velocity=111 time=0
EXTRACT: note_on channel=0 note=31 velocity=103 time=0.0012254895833333332
EXTRACT: note_on channel=2 note=67 velocity=116 time=0
EXTRACT: note_on channel=2 note=62 velocity=102 time=0
EXTRACT: note_on channel=2 note=59 velocity=107 time=0
EXTRACT: note_on channel=3 note=67 velocity=95 time=0
EXTRACT: note_on channel=3 note=62 velocity=78 time=0
EXTRACT: note_on channel=3 note=59 velocity=91 time=0
EXTRACT: note_on channel=9 note=57 velocity=120 time=0
EXTRACT: note_on channel=9 note=36 velocity=120 time=0
EXTRACT: note_on channel=14 note=75 velocity=109 time=0
EXTRACT: note_on channel=9 note=57 velocity=0 time=0.049019583333333325
EXTRACT: note_on channel=9 note=36 velocity=0 time=0
EXTRACT: note_on channel=11 note=55 velocity=0 time=0.24387242708333332
EXTRACT: note_on channel=11 note=62 velocity=0 time=0
EXTRACT: note_on channel=2 note=67 velocity=0 time=0.0012254895833333332
EXTRACT: note_on channel=2 note=62 velocity=0 time=0
EXTRACT: note_on channel=2 note=59 velocity=0 time=0
EXTRACT: note_on channel=3 note=67 velocity=0 time=0
EXTRACT: note_on channel=3 note=62 velocity=0 time=0
EXTRACT: note_on channel=3 note=59 velocity=0 time=0
EXTRACT: note_on channel=9 note=38 velocity=60 time=0
EXTRACT: note_on channel=14 note=75 velocity=0 time=0
EXTRACT: note_on channel=9 note=38 velocity=0 time=0.049019583333333325
EXTRACT: note_on channel=0 note=31 velocity=0 time=0.09803916666666665
EXTRACT: note_on channel=9 note=38 velocity=70 time=0
EXTRACT: note_on channel=9 note=38 velocity=0 time=0.049019583333333325
EXTRACT: note_on channel=11 note=55 velocity=103 time=0.09681367708333333
EXTRACT: note_on channel=11 note=62 velocity=94 time=0
EXTRACT: note_on channel=0 note=31 velocity=104 time=0.0012254895833333332
EXTRACT: note_on channel=2 note=67 velocity=102 time=0
EXTRACT: note_on channel=2 note=62 velocity=107 time=0
EXTRACT: note_on channel=2 note=59 velocity=111 time=0
EXTRACT: note_on channel=3 note=67 velocity=98 time=0
EXTRACT: note_on channel=3 note=62 velocity=80 time=0
EXTRACT: note_on channel=3 note=59 velocity=97 time=0
EXTRACT: note_on channel=9 note=40 velocity=120 time=0
EXTRACT: note_on channel=9 note=36 velocity=120 time=0
EXTRACT: note_on channel=14 note=77 velocity=97 time=0
EXTRACT: note_on channel=9 note=40 velocity=0 time=0.049019583333333325
EXTRACT: note_on channel=9 note=36 velocity=0 time=0
EXTRACT: note_on channel=9 note=40 velocity=60 time=0.09803916666666665
EXTRACT: note_on channel=9 note=40 velocity=0 time=0.049019583333333325
EXTRACT: note_on channel=11 note=55 velocity=0 time=0.09681367708333333
EXTRACT: note_on channel=11 note=62 velocity=0 time=0
EXTRACT: note_on channel=2 note=67 velocity=0 time=0.0012254895833333332
EXTRACT: note_on channel=2 note=62 velocity=0 time=0
EXTRACT: note_on channel=2 note=59 velocity=0 time=0
EXTRACT: note_on channel=3 note=67 velocity=0 time=0
EXTRACT: note_on channel=3 note=62 velocity=0 time=0
EXTRACT: note_on channel=3 note=59 velocity=0 time=0
EXTRACT: note_on channel=9 note=40 velocity=120 time=0
EXTRACT: note_on channel=14 note=77 velocity=0 time=0
EXTRACT: note_on channel=9 note=40 velocity=0 time=0.049019583333333325
EXTRACT: note_on channel=0 note=31 velocity=0 time=0.09803916666666665
EXTRACT: note_on channel=9 note=45 velocity=100 time=0
EXTRACT: note_on channel=9 note=45 velocity=0 time=0.049019583333333325
EXTRACT: note_on channel=11 note=55 velocity=94 time=0.09681367708333333
EXTRACT: note_on channel=11 note=62 velocity=92 time=0
EXTRACT: note_on channel=0 note=31 velocity=116 time=0.0012254895833333332
EXTRACT: note_on channel=2 note=67 velocity=105 time=0
EXTRACT: note_on channel=2 note=62 velocity=124 time=0
EXTRACT: note_on channel=2 note=59 velocity=105 time=0
EXTRACT: note_on channel=3 note=67 velocity=79 time=0
EXTRACT: note_on channel=3 note=62 velocity=86 time=0
EXTRACT: note_on channel=3 note=59 velocity=79 time=0
EXTRACT: note_on channel=9 note=40 velocity=127 time=0
EXTRACT: note_on channel=14 note=72 velocity=123 time=0
EXTRACT: note_on channel=14 note=79 velocity=101 time=0
EXTRACT: note_on channel=9 note=40 velocity=0 time=0.049019583333333325
EXTRACT: note_on channel=14 note=72 velocity=0 time=0.09803916666666665
EXTRACT: note_on channel=14 note=79 velocity=0 time=0.14215679166666664
EXTRACT: note_on channel=11 note=55 velocity=0 time=0.0036764687499999996
EXTRACT: note_on channel=11 note=62 velocity=0 time=0
EXTRACT: note_on channel=2 note=67 velocity=0 time=0.0012254895833333332
EXTRACT: note_on channel=2 note=62 velocity=0 time=0
EXTRACT: note_on channel=2 note=59 velocity=0 time=0
EXTRACT: note_on channel=3 note=67 velocity=0 time=0
EXTRACT: note_on channel=3 note=62 velocity=0 time=0
EXTRACT: note_on channel=3 note=59 velocity=0 time=0
EXTRACT: note_on channel=9 note=41 velocity=120 time=0
EXTRACT: note_on channel=14 note=75 velocity=123 time=0
EXTRACT: note_on channel=9 note=41 velocity=0 time=0.049019583333333325
EXTRACT: note_on channel=0 note=31 velocity=0 time=0.09803916666666665
EXTRACT: note_on channel=14 note=75 velocity=0 time=0
EXTRACT: note_on channel=11 note=55 velocity=107 time=0.14583326041666664
EXTRACT: note_on channel=11 note=60 velocity=101 time=0
EXTRACT: note_on channel=11 note=63 velocity=99 time=0
EXTRACT: note_on channel=0 note=36 velocity=115 time=0.0012254895833333332
EXTRACT: note_on channel=1 note=60 velocity=104 time=0
EXTRACT: note_on channel=2 note=60 velocity=105 time=0
EXTRACT: note_on channel=2 note=63 velocity=121 time=0
EXTRACT: note_on channel=2 note=67 velocity=113 time=0
EXTRACT: control_change channel=3 control=11 value=100 time=0
EXTRACT: note_on channel=3 note=60 velocity=97 time=0
EXTRACT: note_on channel=3 note=63 velocity=79 time=0
EXTRACT: note_on channel=3 note=55 velocity=91 time=0
EXTRACT: note_on channel=9 note=49 velocity=100 time=0
EXTRACT: note_on channel=9 note=36 velocity=120 time=0
EXTRACT: note_on channel=14 note=79 velocity=104 time=0
EXTRACT: control_change channel=3 control=11 value=101 time=0.044117624999999994
EXTRACT: note_on channel=9 note=49 velocity=0 time=0.004901958333333333
EXTRACT: note_on channel=9 note=36 velocity=0 time=0
EXTRACT: control_change channel=3 control=11 value=102 time=0.03921566666666666
EXTRACT: control_change channel=3 control=11 value=103 time=0.044117624999999994
EXTRACT: note_on channel=11 note=55 velocity=0 time=0.013480385416666666
EXTRACT: note_on channel=11 note=60 velocity=0 time=0
EXTRACT: note_on channel=11 note=63 velocity=0 time=0
EXTRACT: note_on channel=0 note=36 velocity=0 time=0.0012254895833333332
EXTRACT: control_change channel=3 control=11 value=104 time=0.029411749999999997
EXTRACT: control_change channel=3 control=11 value=105 time=0.03921566666666666
EXTRACT: control_change channel=3 control=11 value=106 time=0.044117624999999994
EXTRACT: note_on channel=11 note=55 velocity=99 time=0.033088218749999995
EXTRACT: note_on channel=11 note=60 velocity=94 time=0
EXTRACT: note_on channel=11 note=63 velocity=94 time=0
EXTRACT: note_on channel=0 note=36 velocity=126 time=0.0012254895833333332
EXTRACT: note_on channel=1 note=60 velocity=0 time=0
EXTRACT: note_on channel=9 note=42 velocity=101 time=0
EXTRACT: note_on channel=9 note=36 velocity=120 time=0
EXTRACT: note_on channel=9 note=54 velocity=85 time=0
EXTRACT: control_change channel=3 control=11 value=107 time=0.009803916666666666
EXTRACT: note_on channel=9 note=42 velocity=0 time=0.03921566666666666
EXTRACT: note_on channel=9 note=36 velocity=0 time=0
EXTRACT: note_on channel=9 note=54 velocity=0 time=0
EXTRACT: control_change channel=3 control=11 value=108 time=0.004901958333333333
EXTRACT: control_change channel=3 control=11 value=109 time=0.044117624999999994
EXTRACT: control_change channel=3 control=11 value=110 time=0.044117624999999994
EXTRACT: note_on channel=11 note=55 velocity=0 time=0.0036764687499999996
EXTRACT: note_on channel=11 note=60 velocity=0 time=0
EXTRACT: note_on channel=11 note=63 velocity=0 time=0
EXTRACT: note_on channel=0 note=36 velocity=0 time=0.0012254895833333332
EXTRACT: control_change channel=3 control=11 value=111 time=0.03921566666666666
EXTRACT: control_change channel=3 control=11 value=112 time=0.044117624999999994
EXTRACT: control_change channel=3 control=11 value=113 time=0.044117624999999994
EXTRACT: note_on channel=11 note=55 velocity=111 time=0.01838234375
EXTRACT: note_on channel=11 note=60 velocity=96 time=0
EXTRACT: note_on channel=11 note=63 velocity=107 time=0
EXTRACT: note_on channel=9 note=42 velocity=79 time=0.0012254895833333332
EXTRACT: note_on channel=9 note=40 velocity=127 time=0
EXTRACT: note_on channel=14 note=79 velocity=0 time=0
EXTRACT: control_change channel=3 control=11 value=114 time=0.01960783333333333
EXTRACT: note_on channel=9 note=42 velocity=0 time=0.029411749999999997
EXTRACT: note_on channel=9 note=40 velocity=0 time=0
EXTRACT: control_change channel=3 control=11 value=115 time=0.014705874999999998
EXTRACT: control_change channel=3 control=11 value=116 time=0.044117624999999994
EXTRACT: note_on channel=11 note=55 velocity=0 time=0.037990177083333326
EXTRACT: note_on channel=11 note=60 velocity=0 time=0
EXTRACT: note_on channel=11 note=63 velocity=0 time=0
EXTRACT: control_change channel=3 control=11 value=117 time=0.006127447916666666
EXTRACT: control_change channel=3 control=11 value=118 time=0.044117624999999994
EXTRACT: control_change channel=3 control=11 value=119 time=0.044117624999999994
EXTRACT: control_change channel=3 control=11 value=120 time=0.044117624999999994
EXTRACT: note_on channel=11 note=55 velocity=108 time=0.008578427083333333
EXTRACT: note_on channel=11 note=60 velocity=106 time=0
EXTRACT: note_on channel=11 note=63 velocity=100 time=0
EXTRACT: note_on channel=0 note=38 velocity=114 time=0.0012254895833333332
EXTRACT: note_on channel=7 note=72 velocity=106 time=0
EXTRACT: note_on channel=9 note=42 velocity=97 time=0
EXTRACT: note_on channel=9 note=36 velocity=120 time=0
EXTRACT: note_on channel=9 note=54 velocity=83 time=0
EXTRACT: control_change channel=3 control=11 value=121 time=0.03431370833333333
EXTRACT: note_on channel=9 note=42 velocity=0 time=0.014705874999999998
EXTRACT: note_on channel=9 note=36 velocity=0 time=0
EXTRACT: note_on channel=9 note=54 velocity=0 time=0
EXTRACT: control_change channel=3 control=11 value=122 time=0.029411749999999997
EXTRACT: control_change channel=3 control=11 value=123 time=0.03921566666666666
EXTRACT: note_on channel=11 note=55 velocity=0 time=0.028186260416666664
EXTRACT: note_on channel=11 note=60 velocity=0 time=0
EXTRACT: note_on channel=11 note=63 velocity=0 time=0
EXTRACT: note_on channel=0 note=38 velocity=0 time=0.0012254895833333332
EXTRACT: note_on channel=7 note=72 velocity=0 time=0
EXTRACT: note_on channel=7 note=74 velocity=96 time=0
EXTRACT: control_change channel=3 control=11 value=124 time=0.014705874999999998
EXTRACT: control_change channel=3 control=11 value=125 time=0.044117624999999994
EXTRACT: control_change channel=3 control=11 value=126 time=0.044117624999999994
EXTRACT: note_on channel=11 note=55 velocity=105 time=0.042892135416666664
EXTRACT: note_on channel=11 note=60 velocity=110 time=0
EXTRACT: note_on channel=11 note=63 velocity=103 time=0
EXTRACT: note_on channel=0 note=39 velocity=127 time=0.0012254895833333332
EXTRACT: control_change channel=3 control=11 value=127 time=0
EXTRACT: note_on channel=7 note=74 velocity=0 time=0
EXTRACT: note_on channel=7 note=75 velocity=82 time=0
EXTRACT: note_on channel=9 note=42 velocity=76 time=0
EXTRACT: note_on channel=9 note=36 velocity=120 time=0
EXTRACT: note_on channel=9 note=42 velocity=0 time=0.049019583333333325
EXTRACT: note_on channel=9 note=36 velocity=0 time=0
EXTRACT: note_on channel=11 note=55 velocity=0 time=0.09681367708333333
EXTRACT: note_on channel=11 note=60 velocity=0 time=0
EXTRACT: note_on channel=11 note=63 velocity=0 time=0
EXTRACT: note_on channel=7 note=75 velocity=0 time=0.0012254895833333332
EXTRACT: note_on channel=11 note=55 velocity=91 time=0.14583326041666664
EXTRACT: note_on channel=11 note=60 velocity=111 time=0
EXTRACT: note_on channel=11 note=63 velocity=102 time=0
EXTRACT: note_on channel=0 note=39 velocity=0 time=0.0012254895833333332
EXTRACT: note_on channel=9 note=42 velocity=105 time=0
EXTRACT: note_on channel=9 note=54 velocity=68 time=0
EXTRACT: note_on channel=14 note=79 velocity=107 time=0
EXTRACT: note_on channel=9 note=42 velocity=0 time=0.049019583333333325
EXTRACT: note_on channel=9 note=54 velocity=0 time=0
EXTRACT: note_on channel=11 note=55 velocity=0 time=0.09681367708333333
EXTRACT: note_on channel=11 note=60 velocity=0 time=0
EXTRACT: note_on channel=11 note=63 velocity=0 time=0
EXTRACT: note_on channel=14 note=79 velocity=0 time=0.0012254895833333332
EXTRACT: note_on channel=11 note=55 velocity=90 time=0.14583326041666664
EXTRACT: note_on channel=11 note=60 velocity=104 time=0
EXTRACT: note_on channel=11 note=63 velocity=112 time=0
EXTRACT: note_on channel=0 note=43 velocity=126 time=0.0012254895833333332
EXTRACT: note_on channel=9 note=42 velocity=83 time=0
EXTRACT: note_on channel=9 note=40 velocity=127 time=0
EXTRACT: note_on channel=14 note=77 velocity=126 time=0
EXTRACT: note_on channel=9 note=42 velocity=0 time=0.049019583333333325
EXTRACT: note_on channel=9 note=40 velocity=0 time=0
EXTRACT: note_on channel=11 note=55 velocity=0 time=0.09681367708333333
EXTRACT: note_on channel=11 note=60 velocity=0 time=0
EXTRACT: note_on channel=11 note=63 velocity=0 time=0
EXTRACT: note_on channel=14 note=77 velocity=0 time=0.0012254895833333332
EXTRACT: note_on channel=11 note=55 velocity=94 time=0.14583326041666664
EXTRACT: note_on channel=11 note=60 velocity=90 time=0
EXTRACT: note_on channel=11 note=63 velocity=97 time=0
EXTRACT: note_on channel=0 note=43 velocity=0 time=0.0012254895833333332
EXTRACT: note_on channel=9 note=42 velocity=103 time=0
EXTRACT: note_on channel=9 note=54 velocity=70 time=0
EXTRACT: note_on channel=14 note=79 velocity=109 time=0
EXTRACT: note_on channel=9 note=42 velocity=0 time=0.049019583333333325
EXTRACT: note_on channel=9 note=54 velocity=0 time=0
EXTRACT: note_on channel=11 note=55 velocity=0 time=0.09681367708333333
EXTRACT: note_on channel=11 note=60 velocity=0 time=0
EXTRACT: note_on channel=11 note=63 velocity=0 time=0
EXTRACT: note_on channel=14 note=79 velocity=0 time=0.0012254895833333332
EXTRACT: note_on channel=11 note=56 velocity=99 time=0.14583326041666664
EXTRACT: note_on channel=11 note=60 velocity=101 time=0
EXTRACT: note_on channel=11 note=63 velocity=99 time=0
EXTRACT: note_on channel=0 note=44 velocity=121 time=0.0012254895833333332
EXTRACT: note_on channel=2 note=60 velocity=0 time=0
EXTRACT: note_on channel=2 note=63 velocity=0 time=0
EXTRACT: note_on channel=2 note=67 velocity=0 time=0
EXTRACT: note_on channel=2 note=60 velocity=114 time=0
EXTRACT: note_on channel=2 note=63 velocity=115 time=0
EXTRACT: note_on channel=2 note=68 velocity=126 time=0
EXTRACT: note_on channel=3 note=55 velocity=0 time=0
EXTRACT: note_on channel=3 note=56 velocity=98 time=0
EXTRACT: note_on channel=9 note=42 velocity=79 time=0
EXTRACT: note_on channel=9 note=36 velocity=120 time=0
EXTRACT: note_on channel=14 note=75 velocity=122 time=0
EXTRACT: note_on channel=9 note=42 velocity=0 time=0.049019583333333325
EXTRACT: note_on channel=9 note=36 velocity=0 time=0
EXTRACT: note_on channel=11 note=56 velocity=0 time=0.09681367708333333
EXTRACT: note_on channel=11 note=60 velocity=0 time=0
EXTRACT: note_on channel=11 note=63 velocity=0 time=0
EXTRACT: note_on channel=0 note=44 velocity=0 time=0.0012254895833333332
EXTRACT: note_on channel=14 note=75 velocity=0 time=0
EXTRACT: note_on channel=11 note=56 velocity=87 time=0.14583326041666664
EXTRACT: note_on channel=11 note=60 velocity=89 time=0
EXTRACT: note_on channel=11 note=63 velocity=105 time=0
EXTRACT: note_on channel=0 note=44 velocity=106 time=0.0012254895833333332
EXTRACT: note_on channel=9 note=42 velocity=101 time=0
EXTRACT: note_on channel=9 note=36 velocity=120 time=0
EXTRACT: note_on channel=9 note=54 velocity=76 time=0
EXTRACT: note_on channel=14 note=77 velocity=119 time=0
EXTRACT: note_on channel=9 note=42 velocity=0 time=0.049019583333333325
EXTRACT: note_on channel=9 note=36 velocity=0 time=0
EXTRACT: note_on channel=9 note=54 velocity=0 time=0
EXTRACT: note_on channel=14 note=77 velocity=0 time=0.024509791666666662
EXTRACT: note_on channel=11 note=56 velocity=0 time=0.07230388541666666
EXTRACT: note_on channel=11 note=60 velocity=0 time=0
EXTRACT: note_on channel=11 note=63 velocity=0 time=0
EXTRACT: note_on channel=0 note=44 velocity=0 time=0.0012254895833333332
EXTRACT: note_on channel=11 note=56 velocity=103 time=0.14583326041666664
EXTRACT: note_on channel=11 note=60 velocity=111 time=0
EXTRACT: note_on channel=11 note=63 velocity=103 time=0
EXTRACT: note_on channel=9 note=42 velocity=76 time=0.0012254895833333332
EXTRACT: note_on channel=9 note=40 velocity=127 time=0
EXTRACT: note_on channel=9 note=42 velocity=0 time=0.049019583333333325
EXTRACT: note_on channel=9 note=40 velocity=0 time=0
EXTRACT: note_on channel=11 note=56 velocity=0 time=0.09681367708333333
EXTRACT: note_on channel=11 note=60 velocity=0 time=0
EXTRACT: note_on channel=11 note=63 velocity=0 time=0
EXTRACT: note_on channel=11 note=56 velocity=106 time=0.14705875
EXTRACT: note_on channel=11 note=60 velocity=100 time=0
EXTRACT: note_on channel=11 note=63 velocity=107 time=0
EXTRACT: note_on channel=0 note=39 velocity=125 time=0.0012254895833333332
EXTRACT: note_on channel=9 note=42 velocity=101 time=0
EXTRACT: note_on channel=9 note=36 velocity=120 time=0
EXTRACT: note_on channel=9 note=54 velocity=78 time=0
EXTRACT: note_on channel=9 note=42 velocity=0 time=0.049019583333333325
EXTRACT: note_on channel=9 note=36 velocity=0 time=0
EXTRACT: note_on channel=9 note=54 velocity=0 time=0
EXTRACT: note_on channel=11 note=56 velocity=0 time=0.09681367708333333
EXTRACT: note_on channel=11 note=60 velocity=0 time=0
EXTRACT: note_on channel=11 note=63 velocity=0 time=0
EXTRACT: note_on channel=0 note=39 velocity=0 time=0.0012254895833333332
EXTRACT: note_on channel=11 note=56 velocity=93 time=0.14583326041666664
EXTRACT: note_on channel=11 note=60 velocity=90 time=0
EXTRACT: note_on channel=11 note=63 velocity=87 time=0
EXTRACT: note_on channel=0 note=44 velocity=125 time=0.0012254895833333332
EXTRACT: note_on channel=9 note=42 velocity=79 time=0
EXTRACT: note_on channel=9 note=36 velocity=120 time=0
EXTRACT: note_on channel=9 note=42 velocity=0 time=0.049019583333333325
EXTRACT: note_on channel=9 note=36 velocity=0 time=0
EXTRACT: note_on channel=11 note=56 velocity=0 time=0.09681367708333333
EXTRACT: note_on channel=11 note=60 velocity=0 time=0
EXTRACT: note_on channel=11 note=63 velocity=0 time=0
EXTRACT: note_on channel=11 note=56 velocity=110 time=0.14705875
EXTRACT: note_on channel=11 note=60 velocity=96 time=0
EXTRACT: note_on channel=11 note=63 velocity=105 time=0
EXTRACT: note_on channel=0 note=44 velocity=0 time=0.0012254895833333332
EXTRACT: note_on channel=9 note=42 velocity=99 time=0
EXTRACT: note_on channel=9 note=54 velocity=77 time=0
EXTRACT: note_on channel=9 note=42 velocity=0 time=0.049019583333333325
EXTRACT: note_on channel=9 note=54 velocity=0 time=0
EXTRACT: note_on channel=11 note=56 velocity=0 time=0.09681367708333333
EXTRACT: note_on channel=11 note=60 velocity=0 time=0
EXTRACT: note_on channel=11 note=63 velocity=0 time=0
EXTRACT: note_on channel=14 note=72 velocity=126 time=0.0012254895833333332
EXTRACT: note_on channel=14 note=72 velocity=0 time=0.073529375
EXTRACT: note_on channel=11 note=56 velocity=106 time=0.07230388541666666
EXTRACT: note_on channel=11 note=60 velocity=104 time=0
EXTRACT: note_on channel=11 note=63 velocity=105 time=0
EXTRACT: note_on channel=9 note=42 velocity=76 time=0.0012254895833333332
EXTRACT: note_on channel=9 note=40 velocity=127 time=0
EXTRACT: note_on channel=14 note=72 velocity=125 time=0
EXTRACT: note_on channel=9 note=42 velocity=0 time=0.049019583333333325
EXTRACT: note_on channel=9 note=40 velocity=0 time=0
EXTRACT: note_on channel=11 note=56 velocity=0 time=0.09681367708333333
EXTRACT: note_on channel=11 note=60 velocity=0 time=0
EXTRACT: note_on channel=11 note=63 velocity=0 time=0
EXTRACT: note_on channel=14 note=72 velocity=0 time=0.0012254895833333332
EXTRACT: note_on channel=11 note=56 velocity=88 time=0.14583326041666664
EXTRACT: note_on channel=11 note=60 velocity=87 time=0
EXTRACT: note_on channel=11 note=63 velocity=91 time=0
EXTRACT: note_on channel=9 note=42 velocity=102 time=0.0012254895833333332
EXTRACT: note_on channel=9 note=54 velocity=85 time=0
EXTRACT: note_on channel=14 note=74 velocity=107 time=0
EXTRACT: note_on channel=9 note=42 velocity=0 time=0.049019583333333325
EXTRACT: note_on channel=9 note=54 velocity=0 time=0
EXTRACT: note_on channel=11 note=56 velocity=0 time=0.09681367708333333
EXTRACT: note_on channel=11 note=60 velocity=0 time=0
EXTRACT: note_on channel=11 note=63 velocity=0 time=0
EXTRACT: note_on channel=14 note=74 velocity=0 time=0.0012254895833333332
EXTRACT: note_on channel=11 note=58 velocity=112 time=0.14583326041666664
EXTRACT: note_on channel=11 note=53 velocity=112 time=0
EXTRACT: note_on channel=11 note=63 velocity=91 time=0
EXTRACT: note_on channel=0 note=34 velocity=112 time=0.0012254895833333332
EXTRACT: note_on channel=2 note=60 velocity=0 time=0
EXTRACT: note_on channel=2 note=63 velocity=0 time=0
EXTRACT: note_on channel=2 note=68 velocity=0 time=0
EXTRACT: note_on channel=2 note=70 velocity=118 time=0
EXTRACT: note_on channel=2 note=63 velocity=104 time=0
EXTRACT: note_on channel=2 note=65 velocity=124 time=0
EXTRACT: note_on channel=3 note=60 velocity=0 time=0
EXTRACT: note_on channel=3 note=56 velocity=0 time=0
EXTRACT: note_on channel=3 note=65 velocity=57 time=0
EXTRACT: note_on channel=3 note=58 velocity=81 time=0
EXTRACT: note_on channel=9 note=42 velocity=82 time=0
EXTRACT: note_on channel=9 note=36 velocity=120 time=0
EXTRACT: note_on channel=14 note=77 velocity=116 time=0
EXTRACT: note_on channel=9 note=42 velocity=0 time=0.049019583333333325
EXTRACT: note_on channel=9 note=36 velocity=0 time=0
EXTRACT: note_on channel=11 note=58 velocity=0 time=0.09681367708333333
EXTRACT: note_on channel=11 note=53 velocity=0 time=0
EXTRACT: note_on channel=11 note=63 velocity=0 time=0
EXTRACT: note_on channel=0 note=34 velocity=0 time=0.0012254895833333332
EXTRACT: note_on channel=11 note=58 velocity=104 time=0.14583326041666664
EXTRACT: note_on channel=11 note=53 velocity=112 time=0
EXTRACT: note_on channel=11 note=63 velocity=95 time=0
EXTRACT: note_on channel=0 note=34 velocity=123 time=0.0012254895833333332
EXTRACT: note_on channel=9 note=42 velocity=99 time=0
EXTRACT: note_on channel=9 note=36 velocity=120 time=0
EXTRACT: note_on channel=9 note=54 velocity=81 time=0
EXTRACT: note_on channel=14 note=77 velocity=0 time=0
EXTRACT: note_on channel=9 note=42 velocity=0 time=0.049019583333333325
EXTRACT: note_on channel=9 note=36 velocity=0 time=0
EXTRACT: note_on channel=9 note=54 velocity=0 time=0
EXTRACT: note_on channel=11 note=58 velocity=0 time=0.09681367708333333
EXTRACT: note_on channel=11 note=53 velocity=0 time=0
EXTRACT: note_on channel=11 note=63 velocity=0 time=0
EXTRACT: note_on channel=0 note=34 velocity=0 time=0.0012254895833333332
EXTRACT: note_on channel=11 note=58 velocity=110 time=0.14583326041666664
EXTRACT: note_on channel=11 note=53 velocity=101 time=0
EXTRACT: note_on channel=11 note=63 velocity=90 time=0
EXTRACT: note_on channel=9 note=42 velocity=75 time=0.0012254895833333332
EXTRACT: note_on channel=9 note=40 velocity=127 time=0
EXTRACT: note_on channel=14 note=79 velocity=126 time=0
EXTRACT: note_on channel=9 note=42 velocity=0 time=0.049019583333333325
EXTRACT: note_on channel=9 note=40 velocity=0 time=0
EXTRACT: note_on channel=11 note=58 velocity=0 time=0.09681367708333333
EXTRACT: note_on channel=11 note=53 velocity=0 time=0
EXTRACT: note_on channel=11 note=63 velocity=0 time=0
EXTRACT: note_on channel=11 note=58 velocity=90 time=0.14705875
EXTRACT: note_on channel=11 note=53 velocity=107 time=0
EXTRACT: note_on channel=11 note=63 velocity=106 time=0
EXTRACT: note_on channel=0 note=34 velocity=110 time=0.0012254895833333332
EXTRACT: note_on channel=7 note=70 velocity=97 time=0
EXTRACT: note_on channel=9 note=42 velocity=101 time=0
EXTRACT: note_on channel=9 note=36 velocity=120 time=0
EXTRACT: note_on channel=9 note=54 velocity=66 time=0
EXTRACT: note_on channel=14 note=79 velocity=0 time=0
EXTRACT: note_on channel=9 note=42 velocity=0 time=0.049019583333333325
EXTRACT: note_on channel=9 note=36 velocity=0 time=0
EXTRACT: note_on channel=9 note=54 velocity=0 time=0
EXTRACT: note_on channel=0 note=34 velocity=0 time=0.024509791666666662
EXTRACT: note_on channel=11 note=58 velocity=0 time=0.07230388541666666
EXTRACT: note_on channel=11 note=53 velocity=0 time=0
EXTRACT: note_on channel=11 note=63 velocity=0 time=0
EXTRACT: note_on channel=0 note=36 velocity=104 time=0.0012254895833333332
EXTRACT: note_on channel=7 note=70 velocity=0 time=0
EXTRACT: note_on channel=7 note=72 velocity=98 time=0
EXTRACT: note_on channel=9 note=36 velocity=80 time=0
EXTRACT: note_on channel=9 note=36 velocity=0 time=0.049019583333333325
EXTRACT: note_on channel=0 note=36 velocity=0 time=0.024509791666666662
EXTRACT: note_on channel=11 note=58 velocity=88 time=0.07230388541666666
EXTRACT: note_on channel=11 note=53 velocity=112 time=0
EXTRACT: note_on channel=11 note=62 velocity=96 time=0
EXTRACT: note_on channel=0 note=38 velocity=116 time=0.0012254895833333332
EXTRACT: note_on channel=2 note=70 velocity=0 time=0
EXTRACT: note_on channel=2 note=63 velocity=0 time=0
EXTRACT: note_on channel=2 note=65 velocity=0 time=0
EXTRACT: note_on channel=2 note=65 velocity=123 time=0
EXTRACT: note_on channel=2 note=62 velocity=111 time=0
EXTRACT: note_on channel=2 note=70 velocity=115 time=0
EXTRACT: note_on channel=3 note=63 velocity=0 time=0
EXTRACT: note_on channel=3 note=62 velocity=86 time=0
EXTRACT: note_on channel=7 note=72 velocity=0 time=0
EXTRACT: note_on channel=7 note=74 velocity=84 time=0
EXTRACT: note_on channel=9 note=42 velocity=79 time=0
EXTRACT: note_on channel=9 note=36 velocity=120 time=0
EXTRACT: note_on channel=14 note=77 velocity=98 time=0
EXTRACT: note_on channel=9 note=42 velocity=0 time=0.049019583333333325
EXTRACT: note_on channel=9 note=36 velocity=0 time=0
EXTRACT: note_on channel=11 note=58 velocity=0 time=0.09681367708333333
EXTRACT: note_on channel=11 note=53 velocity=0 time=0
EXTRACT: note_on channel=11 note=62 velocity=0 time=0
EXTRACT: note_on channel=7 note=74 velocity=0 time=0.0012254895833333332
EXTRACT: note_on channel=11 note=58 velocity=98 time=0.14583326041666664
EXTRACT: note_on channel=11 note=53 velocity=90 time=0
EXTRACT: note_on channel=11 note=62 velocity=100 time=0
EXTRACT: note_on channel=9 note=42 velocity=95 time=0.0012254895833333332
EXTRACT: note_on channel=9 note=54 velocity=85 time=0
EXTRACT: note_on channel=14 note=77 velocity=0 time=0
EXTRACT: note_on channel=9 note=42 velocity=0 time=0.049019583333333325
EXTRACT: note_on channel=9 note=54 velocity=0 time=0
EXTRACT: note_on channel=11 note=58 velocity=0 time=0.09681367708333333
EXTRACT: note_on channel=11 note=53 velocity=0 time=0
EXTRACT: note_on channel=11 note=62 velocity=0 time=0
EXTRACT: note_on channel=11 note=58 velocity=110 time=0.14705875
EXTRACT: note_on channel=11 note=53 velocity=97 time=0
EXTRACT: note_on channel=11 note=62 velocity=98 time=0
EXTRACT: note_on channel=9 note=42 velocity=76 time=0.0012254895833333332
EXTRACT: note_on channel=9 note=40 velocity=127 time=0
EXTRACT: note_on channel=14 note=75 velocity=118 time=0
EXTRACT: note_on channel=9 note=42 velocity=0 time=0.049019583333333325
EXTRACT: note_on channel=9 note=40 velocity=0 time=0
EXTRACT: note_on channel=11 note=58 velocity=0 time=0.09681367708333333
EXTRACT: note_on channel=11 note=53 velocity=0 time=0
EXTRACT: note_on channel=11 note=62 velocity=0 time=0
EXTRACT: note_on channel=14 note=75 velocity=0 time=0.0012254895833333332
EXTRACT: note_on channel=11 note=58 velocity=93 time=0.14583326041666664
EXTRACT: note_on channel=11 note=53 velocity=110 time=0
EXTRACT: note_on channel=11 note=62 velocity=96 time=0
EXTRACT: note_on channel=0 note=38 velocity=0 time=0.0012254895833333332
EXTRACT: note_on channel=9 note=36 velocity=100 time=0
EXTRACT: note_on channel=9 note=42 velocity=99 time=0
EXTRACT: note_on channel=9 note=54 velocity=82 time=0
EXTRACT: note_on channel=14 note=77 velocity=112 time=0
EXTRACT: note_on channel=9 note=36 velocity=0 time=0.049019583333333325
EXTRACT: note_on channel=9 note=42 velocity=0 time=0
EXTRACT: note_on channel=9 note=54 velocity=0 time=0
EXTRACT: note_on channel=11 note=58 velocity=0 time=0.09681367708333333
EXTRACT: note_on channel=11 note=53 velocity=0 time=0
EXTRACT: note_on channel=11 note=62 velocity=0 time=0
EXTRACT: note_on channel=14 note=77 velocity=0 time=0.0012254895833333332
EXTRACT: note_on channel=11 note=58 velocity=103 time=0.14583326041666664
EXTRACT: note_on channel=11 note=55 velocity=101 time=0
EXTRACT: note_on channel=11 note=63 velocity=99 time=0
EXTRACT: note_on channel=0 note=39 velocity=110 time=0.0012254895833333332
EXTRACT: note_on channel=2 note=65 velocity=0 time=0
EXTRACT: note_on channel=2 note=62 velocity=0 time=0
EXTRACT: note_on channel=2 note=70 velocity=0 time=0
EXTRACT: note_on channel=2 note=67 velocity=102 time=0
EXTRACT: note_on channel=2 note=63 velocity=105 time=0
EXTRACT: note_on channel=2 note=58 velocity=104 time=0
EXTRACT: note_on channel=3 note=65 velocity=0 time=0
EXTRACT: note_on channel=3 note=58 velocity=0 time=0
EXTRACT: note_on channel=3 note=62 velocity=0 time=0
EXTRACT: note_on channel=3 note=58 velocity=93 time=0
EXTRACT: note_on channel=3 note=67 velocity=93 time=0
EXTRACT: note_on channel=3 note=63 velocity=80 time=0
EXTRACT: note_on channel=9 note=42 velocity=77 time=0
EXTRACT: note_on channel=9 note=36 velocity=120 time=0
EXTRACT: note_on channel=14 note=79 velocity=111 time=0
EXTRACT: note_on channel=9 note=42 velocity=0 time=0.049019583333333325
EXTRACT: note_on channel=9 note=36 velocity=0 time=0
EXTRACT: note_on channel=11 note=58 velocity=0 time=0.09681367708333333
EXTRACT: note_on channel=11 note=55 velocity=0 time=0
EXTRACT: note_on channel=11 note=63 velocity=0 time=0
EXTRACT: note_on channel=14 note=79 velocity=0 time=0.0012254895833333332
EXTRACT: note_on channel=11 note=58 velocity=105 time=0.14583326041666664
EXTRACT: note_on channel=11 note=55 velocity=109 time=0
EXTRACT: note_on channel=11 note=63 velocity=104 time=0
EXTRACT: note_on channel=9 note=42 velocity=105 time=0.0012254895833333332
EXTRACT: note_on channel=9 note=54 velocity=65 time=0
EXTRACT: note_on channel=14 note=80 velocity=113 time=0
EXTRACT: note_on channel=9 note=42 velocity=0 time=0.049019583333333325
EXTRACT: note_on channel=9 note=54 velocity=0 time=0
EXTRACT: note_on channel=11 note=58 velocity=0 time=0.09681367708333333
EXTRACT: note_on channel=11 note=55 velocity=0 time=0
EXTRACT: note_on channel=11 note=63 velocity=0 time=0
EXTRACT: note_on channel=0 note=39 velocity=0 time=0.0012254895833333332
EXTRACT: note_on channel=14 note=80 velocity=0 time=0
EXTRACT: note_on channel=11 note=58 velocity=92 time=0.14583326041666664
EXTRACT: note_on channel=11 note=55 velocity=95 time=0
EXTRACT: note_on channel=11 note=63 velocity=104 time=0
EXTRACT: note_on channel=0 note=39 velocity=105 time=0.0012254895833333332
EXTRACT: note_on channel=9 note=42 velocity=76 time=0
EXTRACT: note_on channel=9 note=40 velocity=127 time=0
EXTRACT: note_on channel=14 note=79 velocity=110 time=0
EXTRACT: note_on channel=9 note=42 velocity=0 time=0.049019583333333325
EXTRACT: note_on channel=9 note=40 velocity=0 time=0
EXTRACT: note_on channel=11 note=58 velocity=0 time=0.09681367708333333
EXTRACT: note_on channel=11 note=55 velocity=0 time=0
EXTRACT: note_on channel=11 note=63 velocity=0 time=0
EXTRACT: note_on channel=14 note=79 velocity=0 time=0.0012254895833333332
EXTRACT: note_on channel=11 note=58 velocity=95 time=0.14583326041666664
EXTRACT: note_on channel=11 note=55 velocity=110 time=0
EXTRACT: note_on channel=11 note=63 velocity=87 time=0
EXTRACT: note_on channel=9 note=42 velocity=105 time=0.0012254895833333332
EXTRACT: note_on channel=9 note=36 velocity=120 time=0
EXTRACT: note_on channel=9 note=54 velocity=85 time=0
EXTRACT: note_on channel=14 note=77 velocity=127 time=0
EXTRACT: note_on channel=9 note=42 velocity=0 time=0.049019583333333325
EXTRACT: note_on channel=9 note=36 velocity=0 time=0
EXTRACT: note_on channel=9 note=54 velocity=0 time=0
EXTRACT: note_on channel=11 note=58 velocity=0 time=0.09681367708333333
EXTRACT: note_on channel=11 note=55 velocity=0 time=0
EXTRACT: note_on channel=11 note=63 velocity=0 time=0
EXTRACT: note_on channel=0 note=39 velocity=0 time=0.0012254895833333332
EXTRACT: note_on channel=14 note=77 velocity=0 time=0
EXTRACT: note_on channel=11 note=59 velocity=111 time=0.14583326041666664
EXTRACT: note_on channel=11 note=55 velocity=109 time=0
EXTRACT: note_on channel=11 note=62 velocity=94 time=0
EXTRACT: note_on channel=0 note=43 velocity=118 time=0.0012254895833333332
EXTRACT: note_on channel=2 note=67 velocity=0 time=0
EXTRACT: note_on channel=2 note=63 velocity=0 time=0
EXTRACT: note_on channel=2 note=58 velocity=0 time=0
EXTRACT: note_on channel=2 note=59 velocity=122 time=0
EXTRACT: note_on channel=2 note=62 velocity=127 time=0
EXTRACT: note_on channel=2 note=67 velocity=124 time=0
EXTRACT: note_on channel=3 note=58 velocity=0 time=0
EXTRACT: note_on channel=3 note=63 velocity=0 time=0
EXTRACT: note_on channel=3 note=59 velocity=93 time=0
EXTRACT: note_on channel=3 note=62 velocity=82 time=0
EXTRACT: note_on channel=9 note=42 velocity=77 time=0
EXTRACT: note_on channel=9 note=36 velocity=120 time=0
EXTRACT: note_on channel=14 note=77 velocity=103 time=0
EXTRACT: note_on channel=9 note=42 velocity=0 time=0.049019583333333325
EXTRACT: note_on channel=9 note=36 velocity=0 time=0
EXTRACT: note_on channel=11 note=59 velocity=0 time=0.09681367708333333
EXTRACT: note_on channel=11 note=55 velocity=0 time=0
EXTRACT: note_on channel=11 note=62 velocity=0 time=0
EXTRACT: note_on channel=14 note=77 velocity=0 time=0.0012254895833333332
EXTRACT: note_on channel=11 note=59 velocity=107 time=0.14583326041666664
EXTRACT: note_on channel=11 note=55 velocity=104 time=0
EXTRACT: note_on channel=11 note=62 velocity=91 time=0
EXTRACT: note_on channel=9 note=36 velocity=120 time=0.0012254895833333332
EXTRACT: note_on channel=9 note=42 velocity=103 time=0
EXTRACT: note_on channel=9 note=54 velocity=70 time=0
EXTRACT: note_on channel=9 note=36 velocity=0 time=0.049019583333333325
EXTRACT: note_on channel=9 note=42 velocity=0 time=0
EXTRACT: note_on channel=9 note=54 velocity=0 time=0
EXTRACT: note_on channel=11 note=59 velocity=0 time=0.09681367708333333
EXTRACT: note_on channel=11 note=55 velocity=0 time=0
EXTRACT: note_on channel=11 note=62 velocity=0 time=0
EXTRACT: note_on channel=0 note=43 velocity=0 time=0.0012254895833333332
EXTRACT: note_on channel=11 note=59 velocity=109 time=0.14583326041666664
EXTRACT: note_on channel=11 note=55 velocity=111 time=0
EXTRACT: note_on channel=11 note=62 velocity=104 time=0
EXTRACT: note_on channel=0 note=31 velocity=122 time=0.0012254895833333332
EXTRACT: note_on channel=9 note=42 velocity=80 time=0
EXTRACT: note_on channel=9 note=40 velocity=127 time=0
EXTRACT: note_on channel=14 note=72 velocity=124 time=0
EXTRACT: note_on channel=9 note=42 velocity=0 time=0.049019583333333325
EXTRACT: note_on channel=9 note=40 velocity=0 time=0
EXTRACT: note_on channel=11 note=59 velocity=0 time=0.09681367708333333
EXTRACT: note_on channel=11 note=55 velocity=0 time=0
EXTRACT: note_on channel=11 note=62 velocity=0 time=0
EXTRACT: note_on channel=14 note=72 velocity=0 time=0.0012254895833333332
EXTRACT: note_on channel=11 note=59 velocity=87 time=0.14583326041666664
EXTRACT: note_on channel=11 note=55 velocity=95 time=0
EXTRACT: note_on channel=11 note=62 velocity=91 time=0
EXTRACT: note_on channel=9 note=36 velocity=110 time=0.0012254895833333332
EXTRACT: note_on channel=9 note=42 velocity=96 time=0
EXTRACT: note_on channel=9 note=54 velocity=69 time=0
EXTRACT: note_on channel=14 note=75 velocity=120 time=0
EXTRACT: note_on channel=9 note=36 velocity=0 time=0.049019583333333325
EXTRACT: note_on channel=9 note=42 velocity=0 time=0
EXTRACT: note_on channel=9 note=54 velocity=0 time=0
EXTRACT: note_on channel=11 note=59 velocity=0 time=0.09681367708333333
EXTRACT: note_on channel=11 note=55 velocity=0 time=0
EXTRACT: note_on channel=11 note=62 velocity=0 time=0
EXTRACT: note_on channel=0 note=31 velocity=0 time=0.0012254895833333332
EXTRACT: note_on channel=14 note=75 velocity=0 time=0
EXTRACT: note_on channel=11 note=55 velocity=96 time=0.14583326041666664
EXTRACT: note_on channel=11 note=60 velocity=97 time=0
EXTRACT: note_on channel=11 note=63 velocity=112 time=0
EXTRACT: note_on channel=0 note=36 velocity=112 time=0.0012254895833333332
EXTRACT: note_on channel=1 note=60 velocity=124 time=0
EXTRACT: note_on channel=2 note=59 velocity=0 time=0
EXTRACT: note_on channel=2 note=62 velocity=0 time=0
EXTRACT: note_on channel=2 note=67 velocity=0 time=0
EXTRACT: note_on channel=2 note=60 velocity=115 time=0
EXTRACT: note_on channel=2 note=63 velocity=112 time=0
EXTRACT: note_on channel=2 note=67 velocity=114 time=0
EXTRACT: note_on channel=3 note=67 velocity=0 time=0
EXTRACT: note_on channel=3 note=59 velocity=0 time=0
EXTRACT: note_on channel=3 note=62 velocity=0 time=0
EXTRACT: note_on channel=3 note=63 velocity=85 time=0
EXTRACT: note_on channel=3 note=60 velocity=79 time=0
EXTRACT: note_on channel=3 note=55 velocity=81 time=0
EXTRACT: note_on channel=9 note=49 velocity=100 time=0
EXTRACT: note_on channel=9 note=36 velocity=120 time=0
EXTRACT: note_on channel=14 note=79 velocity=98 time=0
EXTRACT: note_on channel=9 note=49 velocity=0 time=0.049019583333333325
EXTRACT: note_on channel=9 note=36 velocity=0 time=0
EXTRACT: note_on channel=11 note=55 velocity=0 time=0.09681367708333333
EXTRACT: note_on channel=11 note=60 velocity=0 time=0
EXTRACT: note_on channel=11 note=63 velocity=0 time=0
EXTRACT: note_on channel=0 note=36 velocity=0 time=0.0012254895833333332
EXTRACT: note_on channel=11 note=55 velocity=97 time=0.14583326041666664
EXTRACT: note_on channel=11 note=60 velocity=102 time=0
EXTRACT: note_on channel=11 note=63 velocity=108 time=0
EXTRACT: note_on channel=0 note=36 velocity=123 time=0.0012254895833333332
EXTRACT: note_on channel=1 note=60 velocity=0 time=0
EXTRACT: note_on channel=9 note=42 velocity=95 time=0
EXTRACT: note_on channel=9 note=36 velocity=120 time=0
EXTRACT: note_on channel=9 note=54 velocity=83 time=0
EXTRACT: note_on channel=14 note=79 velocity=0 time=0
EXTRACT: note_on channel=9 note=42 velocity=0 time=0.049019583333333325
EXTRACT: note_on channel=9 note=36 velocity=0 time=0
EXTRACT: note_on channel=9 note=54 velocity=0 time=0
EXTRACT: note_on channel=11 note=55 velocity=0 time=0.09681367708333333
EXTRACT: note_on channel=11 note=60 velocity=0 time=0
EXTRACT: note_on channel=11 note=63 velocity=0 time=0
EXTRACT: note_on channel=0 note=36 velocity=0 time=0.0012254895833333332
EXTRACT: note_on channel=11 note=55 velocity=100 time=0.14583326041666664
EXTRACT: note_on channel=11 note=60 velocity=104 time=0
EXTRACT: note_on channel=11 note=63 velocity=100 time=0
EXTRACT: note_on channel=9 note=42 velocity=74 time=0.0012254895833333332
EXTRACT: note_on channel=9 note=40 velocity=127 time=0
EXTRACT: note_on channel=9 note=42 velocity=0 time=0.049019583333333325
EXTRACT: note_on channel=9 note=40 velocity=0 time=0
EXTRACT: note_on channel=11 note=55 velocity=0 time=0.09681367708333333
EXTRACT: note_on channel=11 note=60 velocity=0 time=0
EXTRACT: note_on channel=11 note=63 velocity=0 time=0
EXTRACT: note_on channel=11 note=55 velocity=111 time=0.14705875
EXTRACT: note_on channel=11 note=60 velocity=88 time=0
EXTRACT: note_on channel=11 note=63 velocity=105 time=0
EXTRACT: note_on channel=0 note=38 velocity=116 time=0.0012254895833333332
EXTRACT: note_on channel=7 note=72 velocity=106 time=0
EXTRACT: note_on channel=9 note=42 velocity=98 time=0
EXTRACT: note_on channel=9 note=36 velocity=120 time=0
EXTRACT: note_on channel=9 note=54 velocity=69 time=0
EXTRACT: note_on channel=9 note=42 velocity=0 time=0.049019583333333325
EXTRACT: note_on channel=9 note=36 velocity=0 time=0
EXTRACT: note_on channel=9 note=54 velocity=0 time=0
EXTRACT: note_on channel=11 note=55 velocity=0 time=0.09681367708333333
EXTRACT: note_on channel=11 note=60 velocity=0 time=0
EXTRACT: note_on channel=11 note=63 velocity=0 time=0
EXTRACT: note_on channel=0 note=38 velocity=0 time=0.0012254895833333332
EXTRACT: note_on channel=7 note=72 velocity=0 time=0
EXTRACT: note_on channel=7 note=74 velocity=96 time=0
EXTRACT: note_on channel=9 note=36 velocity=100 time=0
EXTRACT: note_on channel=9 note=36 velocity=0 time=0.049019583333333325
EXTRACT: note_on channel=11 note=55 velocity=108 time=0.09681367708333333
EXTRACT: note_on channel=11 note=60 velocity=112 time=0
EXTRACT: note_on channel=11 note=63 velocity=105 time=0
EXTRACT: note_on channel=0 note=39 velocity=105 time=0.0012254895833333332
EXTRACT: note_on channel=7 note=74 velocity=0 time=0
EXTRACT: note_on channel=7 note=75 velocity=82 time=0
EXTRACT: note_on channel=9 note=42 velocity=83 time=0
EXTRACT: note_on channel=9 note=36 velocity=120 time=0
EXTRACT: note_on channel=9 note=42 velocity=0 time=0.049019583333333325
EXTRACT: note_on channel=9 note=36 velocity=0 time=0
EXTRACT: note_on channel=11 note=55 velocity=0 time=0.09681367708333333
EXTRACT: note_on channel=11 note=60 velocity=0 time=0
EXTRACT: note_on channel=11 note=63 velocity=0 time=0
EXTRACT: note_on channel=7 note=75 velocity=0 time=0.0012254895833333332
EXTRACT: note_on channel=11 note=55 velocity=90 time=0.14583326041666664
EXTRACT: note_on channel=11 note=60 velocity=87 time=0
EXTRACT: note_on channel=11 note=63 velocity=95 time=0
EXTRACT: note_on channel=0 note=39 velocity=0 time=0.0012254895833333332
EXTRACT: note_on channel=9 note=42 velocity=99 time=0
EXTRACT: note_on channel=9 note=54 velocity=78 time=0
EXTRACT: note_on channel=14 note=80 velocity=116 time=0
EXTRACT: note_on channel=9 note=42 velocity=0 time=0.049019583333333325
EXTRACT: note_on channel=9 note=54 velocity=0 time=0
EXTRACT: note_on channel=11 note=55 velocity=0 time=0.09681367708333333
EXTRACT: note_on channel=11 note=60 velocity=0 time=0
EXTRACT: note_on channel=11 note=63 velocity=0 time=0
EXTRACT: note_on channel=14 note=80 velocity=0 time=0.0012254895833333332
EXTRACT: note_on channel=11 note=55 velocity=103 time=0.14583326041666664
EXTRACT: note_on channel=11 note=60 velocity=100 time=0
EXTRACT: note_on channel=11 note=63 velocity=112 time=0
EXTRACT: note_on channel=0 note=36 velocity=125 time=0.0012254895833333332
EXTRACT: note_on channel=9 note=42 velocity=84 time=0
EXTRACT: note_on channel=9 note=40 velocity=127 time=0
EXTRACT: note_on channel=14 note=77 velocity=115 time=0
EXTRACT: note_on channel=9 note=42 velocity=0 time=0.049019583333333325
EXTRACT: note_on channel=9 note=40 velocity=0 time=0
EXTRACT: note_on channel=11 note=55 velocity=0 time=0.09681367708333333
EXTRACT: note_on channel=11 note=60 velocity=0 time=0
EXTRACT: note_on channel=11 note=63 velocity=0 time=0
EXTRACT: note_on channel=14 note=77 velocity=0 time=0.0012254895833333332
EXTRACT: note_on channel=11 note=55 velocity=92 time=0.14583326041666664
EXTRACT: note_on channel=11 note=60 velocity=101 time=0
EXTRACT: note_on channel=11 note=63 velocity=111 time=0
EXTRACT: note_on channel=0 note=36 velocity=0 time=0.0012254895833333332
EXTRACT: note_on channel=9 note=42 velocity=100 time=0
EXTRACT: note_on channel=9 note=54 velocity=66 time=0
EXTRACT: note_on channel=14 note=79 velocity=106 time=0
EXTRACT: note_on channel=9 note=42 velocity=0 time=0.049019583333333325
EXTRACT: note_on channel=9 note=54 velocity=0 time=0
EXTRACT: note_on channel=11 note=55 velocity=0 time=0.09681367708333333
EXTRACT: note_on channel=11 note=60 velocity=0 time=0
EXTRACT: note_on channel=11 note=63 velocity=0 time=0
EXTRACT: note_on channel=11 note=56 velocity=105 time=0.14705875
EXTRACT: note_on channel=11 note=60 velocity=93 time=0
EXTRACT: note_on channel=11 note=63 velocity=103 time=0
EXTRACT: note_on channel=0 note=44 velocity=108 time=0.0012254895833333332
EXTRACT: note_on channel=2 note=60 velocity=0 time=0
EXTRACT: note_on channel=2 note=63 velocity=0 time=0
EXTRACT: note_on channel=2 note=67 velocity=0 time=0
EXTRACT: note_on channel=2 note=60 velocity=120 time=0
EXTRACT: note_on channel=2 note=63 velocity=116 time=0
EXTRACT: note_on channel=2 note=68 velocity=107 time=0
EXTRACT: note_on channel=3 note=55 velocity=0 time=0
EXTRACT: note_on channel=3 note=56 velocity=86 time=0
EXTRACT: note_on channel=9 note=42 velocity=84 time=0
EXTRACT: note_on channel=9 note=36 velocity=120 time=0
EXTRACT: note_on channel=14 note=79 velocity=0 time=0
EXTRACT: note_on channel=9 note=42 velocity=0 time=0.049019583333333325
EXTRACT: note_on channel=9 note=36 velocity=0 time=0
EXTRACT: note_on channel=11 note=56 velocity=0 time=0.09681367708333333
EXTRACT: note_on channel=11 note=60 velocity=0 time=0
EXTRACT: note_on channel=11 note=63 velocity=0 time=0
EXTRACT: note_on channel=0 note=44 velocity=0 time=0.0012254895833333332
EXTRACT: note_on channel=11 note=56 velocity=91 time=0.14583326041666664
EXTRACT: note_on channel=11 note=60 velocity=109 time=0
EXTRACT: note_on channel=11 note=63 velocity=112 time=0
EXTRACT: note_on channel=0 note=44 velocity=106 time=0.0012254895833333332
EXTRACT: note_on channel=9 note=42 velocity=97 time=0
EXTRACT: note_on channel=9 note=36 velocity=120 time=0
EXTRACT: note_on channel=9 note=54 velocity=78 time=0
EXTRACT: note_on channel=14 note=75 velocity=113 time=0
EXTRACT: note_on channel=9 note=42 velocity=0 time=0.049019583333333325
EXTRACT: note_on channel=9 note=36 velocity=0 time=0
EXTRACT: note_on channel=9 note=54 velocity=0 time=0
EXTRACT: note_on channel=11 note=56 velocity=0 time=0.09681367708333333
EXTRACT: note_on channel=11 note=60 velocity=0 time=0
EXTRACT: note_on channel=11 note=63 velocity=0 time=0
EXTRACT: note_on channel=0 note=44 velocity=0 time=0.0012254895833333332
EXTRACT: note_on channel=14 note=75 velocity=0 time=0
EXTRACT: note_on channel=11 note=56 velocity=87 time=0.14583326041666664
EXTRACT: note_on channel=11 note=60 velocity=88 time=0
EXTRACT: note_on channel=11 note=63 velocity=111 time=0
EXTRACT: note_on channel=9 note=42 velocity=79 time=0.0012254895833333332
EXTRACT: note_on channel=9 note=40 velocity=127 time=0
EXTRACT: note_on channel=9 note=42 velocity=0 time=0.049019583333333325
EXTRACT: note_on channel=9 note=40 velocity=0 time=0
EXTRACT: note_on channel=11 note=56 velocity=0 time=0.09681367708333333
EXTRACT: note_on channel=11 note=60 velocity=0 time=0
EXTRACT: note_on channel=11 note=63 velocity=0 time=0
EXTRACT: note_on channel=11 note=56 velocity=106 time=0.14705875
EXTRACT: note_on channel=11 note=60 velocity=98 time=0
EXTRACT: note_on channel=11 note=63 velocity=112 time=0
EXTRACT: note_on channel=0 note=39 velocity=122 time=0.0012254895833333332
EXTRACT: note_on channel=9 note=42 velocity=102 time=0
EXTRACT: note_on channel=9 note=36 velocity=120 time=0
EXTRACT: note_on channel=9 note=54 velocity=71 time=0
EXTRACT: note_on channel=9 note=42 velocity=0 time=0.049019583333333325
EXTRACT: note_on channel=9 note=36 velocity=0 time=0
EXTRACT: note_on channel=9 note=54 velocity=0 time=0
EXTRACT: note_on channel=11 note=56 velocity=0 time=0.09681367708333333
EXTRACT: note_on channel=11 note=60 velocity=0 time=0
EXTRACT: note_on channel=11 note=63 velocity=0 time=0
EXTRACT: note_on channel=0 note=39 velocity=0 time=0.0012254895833333332
EXTRACT: note_on channel=11 note=56 velocity=109 time=0.14583326041666664
EXTRACT: note_on channel=11 note=60 velocity=105 time=0
EXTRACT: note_on channel=11 note=63 velocity=87 time=0
EXTRACT: note_on channel=0 note=44 velocity=126 time=0.0012254895833333332
EXTRACT: note_on channel=9 note=42 velocity=81 time=0
EXTRACT: note_on channel=9 note=36 velocity=120 time=0
EXTRACT: note_on channel=9 note=42 velocity=0 time=0.049019583333333325
EXTRACT: note_on channel=9 note=36 velocity=0 time=0
EXTRACT: note_on channel=11 note=56 velocity=0 time=0.09681367708333333
EXTRACT: note_on channel=11 note=60 velocity=0 time=0
EXTRACT: note_on channel=11 note=63 velocity=0 time=0
EXTRACT: note_on channel=11 note=56 velocity=109 time=0.14705875
EXTRACT: note_on channel=11 note=60 velocity=109 time=0
EXTRACT: note_on channel=11 note=63 velocity=87 time=0
EXTRACT: note_on channel=0 note=44 velocity=0 time=0.0012254895833333332
EXTRACT: note_on channel=9 note=42 velocity=98 time=0
EXTRACT: note_on channel=9 note=54 velocity=85 time=0
EXTRACT: note_on channel=14 note=67 velocity=111 time=0
EXTRACT: note_on channel=9 note=42 velocity=0 time=0.049019583333333325
EXTRACT: note_on channel=9 note=54 velocity=0 time=0
EXTRACT: note_on channel=11 note=56 velocity=0 time=0.09681367708333333
EXTRACT: note_on channel=11 note=60 velocity=0 time=0
EXTRACT: note_on channel=11 note=63 velocity=0 time=0
EXTRACT: note_on channel=14 note=67 velocity=0 time=0.0012254895833333332
EXTRACT: note_on channel=11 note=55 velocity=102 time=0.14583326041666664
EXTRACT: note_on channel=11 note=60 velocity=96 time=0
EXTRACT: note_on channel=11 note=63 velocity=95 time=0
EXTRACT: note_on channel=0 note=43 velocity=110 time=0.0012254895833333332
EXTRACT: note_on channel=2 note=60 velocity=0 time=0
EXTRACT: note_on channel=2 note=63 velocity=0 time=0
EXTRACT: note_on channel=2 note=68 velocity=0 time=0
EXTRACT: note_on channel=2 note=67 velocity=124 time=0
EXTRACT: note_on channel=2 note=63 velocity=107 time=0
EXTRACT: note_on channel=3 note=60 velocity=0 time=0
EXTRACT: note_on channel=3 note=56 velocity=0 time=0
EXTRACT: note_on channel=3 note=55 velocity=80 time=0
EXTRACT: note_on channel=9 note=42 velocity=78 time=0
EXTRACT: note_on channel=9 note=40 velocity=127 time=0
EXTRACT: note_on channel=14 note=72 velocity=102 time=0
EXTRACT: note_on channel=9 note=42 velocity=0 time=0.049019583333333325
EXTRACT: note_on channel=9 note=40 velocity=0 time=0
EXTRACT: note_on channel=11 note=55 velocity=0 time=0.09681367708333333
EXTRACT: note_on channel=11 note=60 velocity=0 time=0
EXTRACT: note_on channel=11 note=63 velocity=0 time=0
EXTRACT: note_on channel=14 note=72 velocity=0 time=0.0012254895833333332
EXTRACT: note_on channel=11 note=55 velocity=98 time=0.14583326041666664
EXTRACT: note_on channel=11 note=60 velocity=101 time=0
EXTRACT: note_on channel=11 note=63 velocity=99 time=0
EXTRACT: note_on channel=9 note=42 velocity=98 time=0.0012254895833333332
EXTRACT: note_on channel=9 note=54 velocity=82 time=0
EXTRACT: note_on channel=14 note=74 velocity=126 time=0
EXTRACT: note_on channel=9 note=42 velocity=0 time=0.049019583333333325
EXTRACT: note_on channel=9 note=54 velocity=0 time=0
EXTRACT: note_on channel=11 note=55 velocity=0 time=0.09681367708333333
EXTRACT: note_on channel=11 note=60 velocity=0 time=0
EXTRACT: note_on channel=11 note=63 velocity=0 time=0
EXTRACT: note_on channel=0 note=43 velocity=0 time=0.0012254895833333332
EXTRACT: note_on channel=14 note=74 velocity=0 time=0
EXTRACT: note_on channel=11 note=56 velocity=106 time=0.14583326041666664
EXTRACT: note_on channel=11 note=60 velocity=102 time=0
EXTRACT: note_on channel=11 note=63 velocity=89 time=0
EXTRACT: note_on channel=0 note=41 velocity=115 time=0.0012254895833333332
EXTRACT: note_on channel=2 note=67 velocity=0 time=0
EXTRACT: note_on channel=2 note=63 velocity=0 time=0
EXTRACT: note_on channel=2 note=56 velocity=123 time=0
EXTRACT: note_on channel=2 note=60 velocity=120 time=0
EXTRACT: note_on channel=2 note=65 velocity=122 time=0
EXTRACT: note_on channel=3 note=63 velocity=0 time=0
EXTRACT: note_on channel=3 note=55 velocity=0 time=0
EXTRACT: note_on channel=3 note=60 velocity=98 time=0
EXTRACT: note_on channel=3 note=56 velocity=83 time=0
EXTRACT: note_on channel=9 note=42 velocity=81 time=0
EXTRACT: note_on channel=9 note=36 velocity=120 time=0
EXTRACT: note_on channel=14 note=75 velocity=127 time=0
EXTRACT: note_on channel=9 note=42 velocity=0 time=0.049019583333333325
EXTRACT: note_on channel=9 note=36 velocity=0 time=0
EXTRACT: note_on channel=11 note=56 velocity=0 time=0.09681367708333333
EXTRACT: note_on channel=11 note=60 velocity=0 time=0
EXTRACT: note_on channel=11 note=63 velocity=0 time=0
EXTRACT: note_on channel=0 note=41 velocity=0 time=0.0012254895833333332
EXTRACT: note_on channel=11 note=56 velocity=94 time=0.14583326041666664
EXTRACT: note_on channel=11 note=60 velocity=105 time=0
EXTRACT: note_on channel=11 note=63 velocity=93 time=0
EXTRACT: note_on channel=0 note=41 velocity=112 time=0.0012254895833333332
EXTRACT: note_on channel=9 note=42 velocity=97 time=0
EXTRACT: note_on channel=9 note=36 velocity=120 time=0
EXTRACT: note_on channel=9 note=54 velocity=75 time=0
EXTRACT: note_on channel=9 note=42 velocity=0 time=0.049019583333333325
EXTRACT: note_on channel=9 note=36 velocity=0 time=0
EXTRACT: note_on channel=9 note=54 velocity=0 time=0
EXTRACT: note_on channel=11 note=56 velocity=0 time=0.09681367708333333
EXTRACT: note_on channel=11 note=60 velocity=0 time=0
EXTRACT: note_on channel=11 note=63 velocity=0 time=0
EXTRACT: note_on channel=0 note=41 velocity=0 time=0.0012254895833333332
EXTRACT: note_on channel=11 note=56 velocity=92 time=0.14583326041666664
EXTRACT: note_on channel=11 note=60 velocity=106 time=0
EXTRACT: note_on channel=11 note=63 velocity=87 time=0
EXTRACT: note_on channel=9 note=42 velocity=76 time=0.0012254895833333332
EXTRACT: note_on channel=9 note=40 velocity=127 time=0
EXTRACT: note_on channel=9 note=42 velocity=0 time=0.049019583333333325
EXTRACT: note_on channel=9 note=40 velocity=0 time=0
EXTRACT: note_on channel=11 note=56 velocity=0 time=0.09681367708333333
EXTRACT: note_on channel=11 note=60 velocity=0 time=0
EXTRACT: note_on channel=11 note=63 velocity=0 time=0
EXTRACT: note_on channel=14 note=75 velocity=0 time=0.0012254895833333332
EXTRACT: note_on channel=11 note=56 velocity=96 time=0.14583326041666664
EXTRACT: note_on channel=11 note=60 velocity=108 time=0
EXTRACT: note_on channel=11 note=63 velocity=110 time=0
EXTRACT: note_on channel=0 note=41 velocity=119 time=0.0012254895833333332
EXTRACT: note_on channel=9 note=42 velocity=99 time=0
EXTRACT: note_on channel=9 note=36 velocity=120 time=0
EXTRACT: note_on channel=9 note=54 velocity=79 time=0
EXTRACT: note_on channel=14 note=74 velocity=116 time=0
EXTRACT: note_on channel=9 note=42 velocity=0 time=0.049019583333333325
EXTRACT: note_on channel=9 note=36 velocity=0 time=0
EXTRACT: note_on channel=9 note=54 velocity=0 time=0
EXTRACT: note_on channel=11 note=56 velocity=0 time=0.09681367708333333
EXTRACT: note_on channel=11 note=60 velocity=0 time=0
EXTRACT: note_on channel=11 note=63 velocity=0 time=0
EXTRACT: note_on channel=0 note=41 velocity=0 time=0.0012254895833333332
EXTRACT: note_on channel=14 note=74 velocity=0 time=0
EXTRACT: note_on channel=11 note=56 velocity=98 time=0.14583326041666664
EXTRACT: note_on channel=11 note=60 velocity=90 time=0
EXTRACT: note_on channel=11 note=63 velocity=103 time=0
EXTRACT: note_on channel=0 note=41 velocity=112 time=0.0012254895833333332
EXTRACT: note_on channel=9 note=42 velocity=79 time=0
EXTRACT: note_on channel=9 note=36 velocity=120 time=0
EXTRACT: note_on channel=14 note=72 velocity=123 time=0
EXTRACT: note_on channel=9 note=42 velocity=0 time=0.049019583333333325
EXTRACT: note_on channel=9 note=36 velocity=0 time=0
EXTRACT: note_on channel=11 note=56 velocity=0 time=0.09681367708333333
EXTRACT: note_on channel=11 note=60 velocity=0 time=0
EXTRACT: note_on channel=11 note=63 velocity=0 time=0
EXTRACT: note_on channel=0 note=41 velocity=0 time=0.0012254895833333332
EXTRACT: note_on channel=11 note=56 velocity=101 time=0.14583326041666664
EXTRACT: note_on channel=11 note=60 velocity=88 time=0
EXTRACT: note_on channel=11 note=63 velocity=108 time=0
EXTRACT: note_on channel=0 note=41 velocity=119 time=0.0012254895833333332
EXTRACT: note_on channel=9 note=36 velocity=120 time=0
EXTRACT: note_on channel=9 note=42 velocity=103 time=0
EXTRACT: note_on channel=9 note=54 velocity=77 time=0
EXTRACT: note_on channel=9 note=36 velocity=0 time=0.049019583333333325
EXTRACT: note_on channel=9 note=42 velocity=0 time=0
EXTRACT: note_on channel=9 note=54 velocity=0 time=0
EXTRACT: note_on channel=11 note=56 velocity=0 time=0.09681367708333333
EXTRACT: note_on channel=11 note=60 velocity=0 time=0
EXTRACT: note_on channel=11 note=63 velocity=0 time=0
EXTRACT: note_on channel=0 note=41 velocity=0 time=0.0012254895833333332
EXTRACT: note_on channel=11 note=56 velocity=102 time=0.14583326041666664
EXTRACT: note_on channel=11 note=60 velocity=103 time=0
EXTRACT: note_on channel=11 note=63 velocity=103 time=0
EXTRACT: note_on channel=9 note=42 velocity=77 time=0.0012254895833333332
EXTRACT: note_on channel=9 note=40 velocity=127 time=0
EXTRACT: note_on channel=9 note=42 velocity=0 time=0.049019583333333325
EXTRACT: note_on channel=9 note=40 velocity=0 time=0
EXTRACT: note_on channel=11 note=56 velocity=0 time=0.09681367708333333
EXTRACT: note_on channel=11 note=60 velocity=0 time=0
EXTRACT: note_on channel=11 note=63 velocity=0 time=0
EXTRACT: note_on channel=14 note=72 velocity=0 time=0.0012254895833333332
EXTRACT: note_on channel=11 note=56 velocity=96 time=0.14583326041666664
EXTRACT: note_on channel=11 note=60 velocity=104 time=0
EXTRACT: note_on channel=11 note=63 velocity=112 time=0
EXTRACT: note_on channel=0 note=38 velocity=113 time=0.0012254895833333332
EXTRACT: note_on channel=9 note=36 velocity=100 time=0
EXTRACT: note_on channel=9 note=42 velocity=95 time=0
EXTRACT: note_on channel=9 note=54 velocity=65 time=0
EXTRACT: note_on channel=9 note=36 velocity=0 time=0.049019583333333325
EXTRACT: note_on channel=9 note=42 velocity=0 time=0
EXTRACT: note_on channel=9 note=54 velocity=0 time=0
EXTRACT: note_on channel=11 note=56 velocity=0 time=0.09681367708333333
EXTRACT: note_on channel=11 note=60 velocity=0 time=0
EXTRACT: note_on channel=11 note=63 velocity=0 time=0
EXTRACT: note_on channel=0 note=38 velocity=0 time=0.0012254895833333332
EXTRACT: note_on channel=11 note=55 velocity=105 time=0.14583326041666664
EXTRACT: note_on channel=11 note=62 velocity=89 time=0
EXTRACT: note_on channel=0 note=31 velocity=108 time=0.0012254895833333332
EXTRACT: note_on channel=2 note=56 velocity=0 time=0
EXTRACT: note_on channel=2 note=60 velocity=0 time=0
EXTRACT: note_on channel=2 note=65 velocity=0 time=0
EXTRACT: note_on channel=2 note=67 velocity=110 time=0
EXTRACT: note_on channel=2 note=62 velocity=104 time=0
EXTRACT: note_on channel=2 note=59 velocity=116 time=0
EXTRACT: note_on channel=3 note=60 velocity=0 time=0
EXTRACT: note_on channel=3 note=56 velocity=0 time=0
EXTRACT: note_on channel=3 note=67 velocity=98 time=0
EXTRACT: note_on channel=3 note=62 velocity=83 time=0
EXTRACT: note_on channel=3 note=59 velocity=91 time=0
EXTRACT: note_on channel=9 note=36 velocity=120 time=0
EXTRACT: note_on channel=9 note=57 velocity=100 time=0
EXTRACT: note_on channel=14 note=79 velocity=108 time=0
EXTRACT: note_on channel=9 note=36 velocity=0 time=0.049019583333333325
EXTRACT: note_on channel=9 note=57 velocity=0 time=0
EXTRACT: note_on channel=14 note=79 velocity=0 time=0.09803916666666665
EXTRACT: note_on channel=11 note=55 velocity=0 time=0.14583326041666664
EXTRACT: note_on channel=11 note=62 velocity=0 time=0
EXTRACT: note_on channel=2 note=67 velocity=0 time=0.0012254895833333332
EXTRACT: note_on channel=2 note=62 velocity=0 time=0
EXTRACT: note_on channel=2 note=59 velocity=0 time=0
EXTRACT: note_on channel=3 note=67 velocity=0 time=0
EXTRACT: note_on channel=3 note=62 velocity=0 time=0
EXTRACT: note_on channel=3 note=59 velocity=0 time=0
EXTRACT: note_on channel=9 note=87 velocity=60 time=0
EXTRACT: note_on channel=14 note=80 velocity=107 time=0
EXTRACT: note_on channel=9 note=87 velocity=0 time=0.049019583333333325
EXTRACT: note_on channel=0 note=31 velocity=0 time=0.09803916666666665
EXTRACT: note_on channel=9 note=87 velocity=80 time=0
EXTRACT: note_on channel=14 note=80 velocity=0 time=0
EXTRACT: note_on channel=9 note=87 velocity=0 time=0.049019583333333325
EXTRACT: note_on channel=11 note=55 velocity=88 time=0.09681367708333333
EXTRACT: note_on channel=11 note=62 velocity=91 time=0
EXTRACT: note_on channel=0 note=31 velocity=102 time=0.0012254895833333332
EXTRACT: note_on channel=2 note=67 velocity=123 time=0
EXTRACT: note_on channel=2 note=62 velocity=103 time=0
EXTRACT: note_on channel=2 note=59 velocity=123 time=0
EXTRACT: note_on channel=3 note=67 velocity=77 time=0
EXTRACT: note_on channel=3 note=62 velocity=99 time=0
EXTRACT: note_on channel=3 note=59 velocity=97 time=0
EXTRACT: note_on channel=9 note=57 velocity=120 time=0
EXTRACT: note_on channel=9 note=36 velocity=120 time=0
EXTRACT: note_on channel=14 note=77 velocity=118 time=0
EXTRACT: note_on channel=9 note=57 velocity=0 time=0.049019583333333325
EXTRACT: note_on channel=9 note=36 velocity=0 time=0
EXTRACT: note_on channel=14 note=77 velocity=0 time=0.09803916666666665
EXTRACT: note_on channel=11 note=55 velocity=0 time=0.14583326041666664
EXTRACT: note_on channel=11 note=62 velocity=0 time=0
EXTRACT: note_on channel=2 note=67 velocity=0 time=0.0012254895833333332
EXTRACT: note_on channel=2 note=62 velocity=0 time=0
EXTRACT: note_on channel=2 note=59 velocity=0 time=0
EXTRACT: note_on channel=3 note=67 velocity=0 time=0
EXTRACT: note_on channel=3 note=62 velocity=0 time=0
EXTRACT: note_on channel=3 note=59 velocity=0 time=0
EXTRACT: note_on channel=14 note=79 velocity=111 time=0
EXTRACT: note_on channel=0 note=31 velocity=0 time=0.14705875
EXTRACT: note_on channel=14 note=79 velocity=0 time=0
EXTRACT: note_on channel=11 note=55 velocity=106 time=0.14583326041666664
EXTRACT: note_on channel=11 note=62 velocity=104 time=0
EXTRACT: note_on channel=0 note=31 velocity=126 time=0.0012254895833333332
EXTRACT: note_on channel=2 note=67 velocity=119 time=0
EXTRACT: note_on channel=2 note=62 velocity=108 time=0
EXTRACT: note_on channel=2 note=59 velocity=121 time=0
EXTRACT: note_on channel=3 note=67 velocity=93 time=0
EXTRACT: note_on channel=3 note=62 velocity=99 time=0
EXTRACT: note_on channel=3 note=59 velocity=80 time=0
EXTRACT: note_on channel=9 note=49 velocity=100 time=0
EXTRACT: note_on channel=9 note=36 velocity=120 time=0
EXTRACT: note_on channel=14 note=75 velocity=121 time=0
EXTRACT: note_on channel=9 note=49 velocity=0 time=0.049019583333333325
EXTRACT: note_on channel=9 note=36 velocity=0 time=0
EXTRACT: note_on channel=14 note=75 velocity=0 time=0.09803916666666665
EXTRACT: note_on channel=9 note=87 velocity=60 time=0.073529375
EXTRACT: note_on channel=9 note=87 velocity=0 time=0.049019583333333325
EXTRACT: note_on channel=11 note=55 velocity=0 time=0.02328430208333333
EXTRACT: note_on channel=11 note=62 velocity=0 time=0
EXTRACT: note_on channel=2 note=67 velocity=0 time=0.0012254895833333332
EXTRACT: note_on channel=2 note=62 velocity=0 time=0
EXTRACT: note_on channel=2 note=59 velocity=0 time=0
EXTRACT: note_on channel=3 note=67 velocity=0 time=0
EXTRACT: note_on channel=3 note=62 velocity=0 time=0
EXTRACT: note_on channel=3 note=59 velocity=0 time=0
EXTRACT: note_on channel=9 note=87 velocity=40 time=0
EXTRACT: note_on channel=14 note=77 velocity=121 time=0
EXTRACT: note_on channel=9 note=87 velocity=0 time=0.049019583333333325
EXTRACT: note_on channel=9 note=87 velocity=50 time=0.024509791666666662
EXTRACT: note_on channel=9 note=87 velocity=0 time=0.049019583333333325
EXTRACT: note_on channel=0 note=31 velocity=0 time=0.024509791666666662
EXTRACT: note_on channel=9 note=87 velocity=50 time=0
EXTRACT: note_on channel=14 note=77 velocity=0 time=0
EXTRACT: note_on channel=9 note=87 velocity=0 time=0.049019583333333325
EXTRACT: note_on channel=9 note=87 velocity=80 time=0.024509791666666662
EXTRACT: note_on channel=9 note=87 velocity=0 time=0.049019583333333325
EXTRACT: note_on channel=11 note=55 velocity=102 time=0.02328430208333333
EXTRACT: note_on channel=11 note=62 velocity=109 time=0
EXTRACT: note_on channel=0 note=31 velocity=126 time=0.0012254895833333332
EXTRACT: note_on channel=2 note=67 velocity=123 time=0
EXTRACT: note_on channel=2 note=62 velocity=121 time=0
EXTRACT: note_on channel=2 note=59 velocity=116 time=0
EXTRACT: note_on channel=3 note=67 velocity=79 time=0
EXTRACT: note_on channel=3 note=62 velocity=91 time=0
EXTRACT: note_on channel=3 note=59 velocity=96 time=0
EXTRACT: note_on channel=9 note=40 velocity=127 time=0
EXTRACT: note_on channel=14 note=74 velocity=100 time=0
EXTRACT: note_on channel=9 note=40 velocity=0 time=0.049019583333333325
EXTRACT: note_on channel=9 note=45 velocity=90 time=0.09803916666666665
EXTRACT: note_on channel=14 note=74 velocity=0 time=0
EXTRACT: note_on channel=9 note=45 velocity=0 time=0.049019583333333325
EXTRACT: note_on channel=11 note=55 velocity=0 time=0.09681367708333333
EXTRACT: note_on channel=11 note=62 velocity=0 time=0
EXTRACT: note_on channel=2 note=67 velocity=0 time=0.0012254895833333332
EXTRACT: note_on channel=2 note=62 velocity=0 time=0
EXTRACT: note_on channel=2 note=59 velocity=0 time=0
EXTRACT: note_on channel=3 note=67 velocity=0 time=0
EXTRACT: note_on channel=3 note=62 velocity=0 time=0
EXTRACT: note_on channel=3 note=59 velocity=0 time=0
EXTRACT: note_on channel=9 note=41 velocity=100 time=0
EXTRACT: note_on channel=14 note=75 velocity=120 time=0
EXTRACT: note_on channel=9 note=41 velocity=0 time=0.049019583333333325
EXTRACT: note_on channel=0 note=31 velocity=0 time=0.09803916666666665
EXTRACT: note_on channel=14 note=75 velocity=0 time=0
EXTRACT: note_on channel=11 note=55 velocity=88 time=0.14583326041666664
EXTRACT: note_on channel=11 note=60 velocity=101 time=0
EXTRACT: note_on channel=11 note=63 velocity=99 time=0
EXTRACT: note_on channel=0 note=36 velocity=125 time=0.0012254895833333332
EXTRACT: note_on channel=1 note=60 velocity=125 time=0
EXTRACT: note_on channel=2 note=60 velocity=120 time=0
EXTRACT: note_on channel=2 note=63 velocity=121 time=0
EXTRACT: note_on channel=2 note=67 velocity=113 time=0
EXTRACT: control_change channel=3 control=11 value=100 time=0
EXTRACT: note_on channel=3 note=63 velocity=92 time=0
EXTRACT: note_on channel=3 note=60 velocity=95 time=0
EXTRACT: note_on channel=3 note=55 velocity=82 time=0
EXTRACT: note_on channel=9 note=49 velocity=100 time=0
EXTRACT: note_on channel=9 note=36 velocity=120 time=0
EXTRACT: note_on channel=14 note=79 velocity=109 time=0
EXTRACT: control_change channel=3 control=11 value=101 time=0.044117624999999994
EXTRACT: note_on channel=9 note=49 velocity=0 time=0.004901958333333333
EXTRACT: note_on channel=9 note=36 velocity=0 time=0
EXTRACT: control_change channel=3 control=11 value=102 time=0.03921566666666666
EXTRACT: control_change channel=3 control=11 value=103 time=0.044117624999999994
EXTRACT: note_on channel=11 note=55 velocity=0 time=0.013480385416666666
EXTRACT: note_on channel=11 note=60 velocity=0 time=0
EXTRACT: note_on channel=11 note=63 velocity=0 time=0
EXTRACT: note_on channel=0 note=36 velocity=0 time=0.0012254895833333332
EXTRACT: control_change channel=3 control=11 value=104 time=0.029411749999999997
EXTRACT: control_change channel=3 control=11 value=105 time=0.03921566666666666
EXTRACT: control_change channel=3 control=11 value=106 time=0.044117624999999994
EXTRACT: note_on channel=11 note=55 velocity=107 time=0.033088218749999995
EXTRACT: note_on channel=11 note=60 velocity=109 time=0
EXTRACT: note_on channel=11 note=63 velocity=102 time=0
EXTRACT: note_on channel=0 note=36 velocity=103 time=0.0012254895833333332
EXTRACT: note_on channel=1 note=60 velocity=0 time=0
EXTRACT: note_on channel=9 note=42 velocity=95 time=0
EXTRACT: note_on channel=9 note=36 velocity=120 time=0
EXTRACT: note_on channel=9 note=54 velocity=80 time=0
EXTRACT: note_on channel=14 note=79 velocity=0 time=0
EXTRACT: control_change channel=3 control=11 value=107 time=0.009803916666666666
EXTRACT: note_on channel=9 note=42 velocity=0 time=0.03921566666666666
EXTRACT: note_on channel=9 note=36 velocity=0 time=0
EXTRACT: note_on channel=9 note=54 velocity=0 time=0
EXTRACT: control_change channel=3 control=11 value=108 time=0.004901958333333333
EXTRACT: control_change channel=3 control=11 value=109 time=0.044117624999999994
EXTRACT: control_change channel=3 control=11 value=110 time=0.044117624999999994
EXTRACT: note_on channel=11 note=55 velocity=0 time=0.0036764687499999996
EXTRACT: note_on channel=11 note=60 velocity=0 time=0
EXTRACT: note_on channel=11 note=63 velocity=0 time=0
EXTRACT: note_on channel=0 note=36 velocity=0 time=0.0012254895833333332
EXTRACT: control_change channel=3 control=11 value=111 time=0.03921566666666666
EXTRACT: control_change channel=3 control=11 value=112 time=0.044117624999999994
EXTRACT: control_change channel=3 control=11 value=113 time=0.044117624999999994
EXTRACT: note_on channel=11 note=55 velocity=111 time=0.01838234375
EXTRACT: note_on channel=11 note=60 velocity=112 time=0
EXTRACT: note_on channel=11 note=63 velocity=96 time=0
EXTRACT: note_on channel=9 note=42 velocity=75 time=0.0012254895833333332
EXTRACT: note_on channel=9 note=40 velocity=127 time=0
EXTRACT: control_change channel=3 control=11 value=114 time=0.01960783333333333
EXTRACT: note_on channel=9 note=42 velocity=0 time=0.029411749999999997
EXTRACT: note_on channel=9 note=40 velocity=0 time=0
EXTRACT: control_change channel=3 control=11 value=115 time=0.014705874999999998
EXTRACT: control_change channel=3 control=11 value=116 time=0.044117624999999994
EXTRACT: note_on channel=11 note=55 velocity=0 time=0.037990177083333326
EXTRACT: note_on channel=11 note=60 velocity=0 time=0
EXTRACT: note_on channel=11 note=63 velocity=0 time=0
EXTRACT: control_change channel=3 control=11 value=117 time=0.006127447916666666
EXTRACT: control_change channel=3 control=11 value=118 time=0.044117624999999994
EXTRACT: control_change channel=3 control=11 value=119 time=0.044117624999999994
EXTRACT: control_change channel=3 control=11 value=120 time=0.044117624999999994
EXTRACT: note_on channel=11 note=55 velocity=111 time=0.008578427083333333
EXTRACT: note_on channel=11 note=60 velocity=92 time=0
EXTRACT: note_on channel=11 note=63 velocity=92 time=0
EXTRACT: note_on channel=0 note=38 velocity=118 time=0.0012254895833333332
EXTRACT: note_on channel=7 note=72 velocity=106 time=0
EXTRACT: note_on channel=9 note=42 velocity=95 time=0
EXTRACT: note_on channel=9 note=36 velocity=120 time=0
EXTRACT: note_on channel=9 note=54 velocity=67 time=0
EXTRACT: control_change channel=3 control=11 value=121 time=0.03431370833333333
EXTRACT: note_on channel=9 note=42 velocity=0 time=0.014705874999999998
EXTRACT: note_on channel=9 note=36 velocity=0 time=0
EXTRACT: note_on channel=9 note=54 velocity=0 time=0
EXTRACT: control_change channel=3 control=11 value=122 time=0.029411749999999997
EXTRACT: control_change channel=3 control=11 value=123 time=0.03921566666666666
EXTRACT: note_on channel=11 note=55 velocity=0 time=0.028186260416666664
EXTRACT: note_on channel=11 note=60 velocity=0 time=0
EXTRACT: note_on channel=11 note=63 velocity=0 time=0
EXTRACT: note_on channel=0 note=38 velocity=0 time=0.0012254895833333332
EXTRACT: note_on channel=7 note=72 velocity=0 time=0
EXTRACT: note_on channel=7 note=74 velocity=96 time=0
EXTRACT: note_on channel=9 note=36 velocity=100 time=0
EXTRACT: control_change channel=3 control=11 value=124 time=0.014705874999999998
EXTRACT: note_on channel=9 note=36 velocity=0 time=0.03431370833333333
EXTRACT: control_change channel=3 control=11 value=125 time=0.009803916666666666
EXTRACT: control_change channel=3 control=11 value=126 time=0.044117624999999994
EXTRACT: note_on channel=11 note=55 velocity=111 time=0.042892135416666664
EXTRACT: note_on channel=11 note=60 velocity=110 time=0
EXTRACT: note_on channel=11 note=63 velocity=90 time=0
EXTRACT: note_on channel=0 note=39 velocity=104 time=0.0012254895833333332
EXTRACT: control_change channel=3 control=11 value=127 time=0
EXTRACT: note_on channel=7 note=74 velocity=0 time=0
EXTRACT: note_on channel=7 note=75 velocity=82 time=0
EXTRACT: note_on channel=9 note=42 velocity=83 time=0
EXTRACT: note_on channel=9 note=36 velocity=120 time=0
EXTRACT: note_on channel=9 note=42 velocity=0 time=0.049019583333333325
EXTRACT: note_on channel=9 note=36 velocity=0 time=0
EXTRACT: note_on channel=11 note=55 velocity=0 time=0.09681367708333333
EXTRACT: note_on channel=11 note=60 velocity=0 time=0
EXTRACT: note_on channel=11 note=63 velocity=0 time=0
EXTRACT: note_on channel=7 note=75 velocity=0 time=0.0012254895833333332
EXTRACT: note_on channel=11 note=55 velocity=103 time=0.14583326041666664
EXTRACT: note_on channel=11 note=60 velocity=97 time=0
EXTRACT: note_on channel=11 note=63 velocity=107 time=0
EXTRACT: note_on channel=0 note=39 velocity=0 time=0.0012254895833333332
EXTRACT: note_on channel=9 note=42 velocity=95 time=0
EXTRACT: note_on channel=9 note=54 velocity=65 time=0
EXTRACT: note_on channel=14 note=80 velocity=96 time=0
EXTRACT: note_on channel=9 note=42 velocity=0 time=0.049019583333333325
EXTRACT: note_on channel=9 note=54 velocity=0 time=0
EXTRACT: note_on channel=11 note=55 velocity=0 time=0.09681367708333333
EXTRACT: note_on channel=11 note=60 velocity=0 time=0
EXTRACT: note_on channel=11 note=63 velocity=0 time=0
EXTRACT: note_on channel=14 note=80 velocity=0 time=0.0012254895833333332
EXTRACT: note_on channel=11 note=55 velocity=88 time=0.14583326041666664
EXTRACT: note_on channel=11 note=60 velocity=91 time=0
EXTRACT: note_on channel=11 note=63 velocity=103 time=0
EXTRACT: note_on channel=0 note=36 velocity=106 time=0.0012254895833333332
EXTRACT: note_on channel=9 note=42 velocity=76 time=0
EXTRACT: note_on channel=9 note=40 velocity=127 time=0
EXTRACT: note_on channel=14 note=77 velocity=125 time=0
EXTRACT: note_on channel=9 note=42 velocity=0 time=0.049019583333333325
EXTRACT: note_on channel=9 note=40 velocity=0 time=0
EXTRACT: note_on channel=11 note=55 velocity=0 time=0.09681367708333333
EXTRACT: note_on channel=11 note=60 velocity=0 time=0
EXTRACT: note_on channel=11 note=63 velocity=0 time=0
EXTRACT: note_on channel=14 note=77 velocity=0 time=0.0012254895833333332
EXTRACT: note_on channel=11 note=55 velocity=112 time=0.14583326041666664
EXTRACT: note_on channel=11 note=60 velocity=88 time=0
EXTRACT: note_on channel=11 note=63 velocity=89 time=0
EXTRACT: note_on channel=0 note=36 velocity=0 time=0.0012254895833333332
EXTRACT: note_on channel=9 note=42 velocity=104 time=0
EXTRACT: note_on channel=9 note=54 velocity=82 time=0
EXTRACT: note_on channel=14 note=79 velocity=124 time=0
EXTRACT: note_on channel=9 note=42 velocity=0 time=0.049019583333333325
EXTRACT: note_on channel=9 note=54 velocity=0 time=0
EXTRACT: note_on channel=11 note=55 velocity=0 time=0.09681367708333333
EXTRACT: note_on channel=11 note=60 velocity=0 time=0
EXTRACT: note_on channel=11 note=63 velocity=0 time=0
EXTRACT: note_on channel=11 note=56 velocity=90 time=0.14705875
EXTRACT: note_on channel=11 note=60 velocity=88 time=0
EXTRACT: note_on channel=11 note=63 velocity=98 time=0
EXTRACT: note_on channel=0 note=44 velocity=106 time=0.0012254895833333332
EXTRACT: note_on channel=2 note=60 velocity=0 time=0
EXTRACT: note_on channel=2 note=63 velocity=0 time=0
EXTRACT: note_on channel=2 note=67 velocity=0 time=0
EXTRACT: note_on channel=2 note=60 velocity=124 time=0
EXTRACT: note_on channel=2 note=63 velocity=124 time=0
EXTRACT: note_on channel=2 note=68 velocity=119 time=0
EXTRACT: note_on channel=3 note=55 velocity=0 time=0
EXTRACT: note_on channel=3 note=56 velocity=80 time=0
EXTRACT: note_on channel=9 note=42 velocity=79 time=0
EXTRACT: note_on channel=9 note=36 velocity=120 time=0
EXTRACT: note_on channel=14 note=79 velocity=0 time=0
EXTRACT: note_on channel=9 note=42 velocity=0 time=0.049019583333333325
EXTRACT: note_on channel=9 note=36 velocity=0 time=0
EXTRACT: note_on channel=11 note=56 velocity=0 time=0.09681367708333333
EXTRACT: note_on channel=11 note=60 velocity=0 time=0
EXTRACT: note_on channel=11 note=63 velocity=0 time=0
EXTRACT: note_on channel=0 note=44 velocity=0 time=0.0012254895833333332
EXTRACT: note_on channel=11 note=56 velocity=99 time=0.14583326041666664
EXTRACT: note_on channel=11 note=60 velocity=97 time=0
EXTRACT: note_on channel=11 note=63 velocity=96 time=0
EXTRACT: note_on channel=0 note=44 velocity=123 time=0.0012254895833333332
EXTRACT: note_on channel=9 note=42 velocity=96 time=0
EXTRACT: note_on channel=9 note=36 velocity=120 time=0
EXTRACT: note_on channel=9 note=54 velocity=73 time=0
EXTRACT: note_on channel=14 note=75 velocity=107 time=0
EXTRACT: note_on channel=9 note=42 velocity=0 time=0.049019583333333325
EXTRACT: note_on channel=9 note=36 velocity=0 time=0
EXTRACT: note_on channel=9 note=54 velocity=0 time=0
EXTRACT: note_on channel=11 note=56 velocity=0 time=0.09681367708333333
EXTRACT: note_on channel=11 note=60 velocity=0 time=0
EXTRACT: note_on channel=11 note=63 velocity=0 time=0
EXTRACT: note_on channel=0 note=44 velocity=0 time=0.0012254895833333332
EXTRACT: note_on channel=14 note=75 velocity=0 time=0
EXTRACT: note_on channel=11 note=56 velocity=96 time=0.14583326041666664
EXTRACT: note_on channel=11 note=60 velocity=94 time=0
EXTRACT: note_on channel=11 note=63 velocity=105 time=0
EXTRACT: note_on channel=9 note=42 velocity=76 time=0.0012254895833333332
EXTRACT: note_on channel=9 note=40 velocity=127 time=0
EXTRACT: note_on channel=9 note=42 velocity=0 time=0.049019583333333325
EXTRACT: note_on channel=9 note=40 velocity=0 time=0
EXTRACT: note_on channel=11 note=56 velocity=0 time=0.09681367708333333
EXTRACT: note_on channel=11 note=60 velocity=0 time=0
EXTRACT: note_on channel=11 note=63 velocity=0 time=0
EXTRACT: note_on channel=11 note=56 velocity=102 time=0.14705875
EXTRACT: note_on channel=11 note=60 velocity=99 time=0
EXTRACT: note_on channel=11 note=63 velocity=104 time=0
EXTRACT: note_on channel=0 note=39 velocity=115 time=0.0012254895833333332
EXTRACT: note_on channel=9 note=42 velocity=104 time=0
EXTRACT: note_on channel=9 note=36 velocity=120 time=0
EXTRACT: note_on channel=9 note=54 velocity=81 time=0
EXTRACT: note_on channel=9 note=42 velocity=0 time=0.049019583333333325
EXTRACT: note_on channel=9 note=36 velocity=0 time=0
EXTRACT: note_on channel=9 note=54 velocity=0 time=0
EXTRACT: note_on channel=11 note=56 velocity=0 time=0.09681367708333333
EXTRACT: note_on channel=11 note=60 velocity=0 time=0
EXTRACT: note_on channel=11 note=63 velocity=0 time=0
EXTRACT: note_on channel=0 note=39 velocity=0 time=0.0012254895833333332
EXTRACT: note_on channel=11 note=56 velocity=104 time=0.14583326041666664
EXTRACT: note_on channel=11 note=60 velocity=98 time=0
EXTRACT: note_on channel=11 note=63 velocity=102 time=0
EXTRACT: note_on channel=0 note=44 velocity=113 time=0.0012254895833333332
EXTRACT: note_on channel=9 note=42 velocity=77 time=0
EXTRACT: note_on channel=9 note=36 velocity=120 time=0
EXTRACT: note_on channel=9 note=42 velocity=0 time=0.049019583333333325
EXTRACT: note_on channel=9 note=36 velocity=0 time=0
EXTRACT: note_on channel=11 note=56 velocity=0 time=0.09681367708333333
EXTRACT: note_on channel=11 note=60 velocity=0 time=0
EXTRACT: note_on channel=11 note=63 velocity=0 time=0
EXTRACT: note_on channel=11 note=56 velocity=99 time=0.14705875
EXTRACT: note_on channel=11 note=60 velocity=102 time=0
EXTRACT: note_on channel=11 note=63 velocity=104 time=0
EXTRACT: note_on channel=0 note=44 velocity=0 time=0.0012254895833333332
EXTRACT: note_on channel=9 note=42 velocity=96 time=0
EXTRACT: note_on channel=9 note=54 velocity=83 time=0
EXTRACT: note_on channel=14 note=67 velocity=106 time=0
EXTRACT: note_on channel=9 note=42 velocity=0 time=0.049019583333333325
EXTRACT: note_on channel=9 note=54 velocity=0 time=0
EXTRACT: note_on channel=11 note=56 velocity=0 time=0.09681367708333333
EXTRACT: note_on channel=11 note=60 velocity=0 time=0
EXTRACT: note_on channel=11 note=63 velocity=0 time=0
EXTRACT: note_on channel=14 note=67 velocity=0 time=0.0012254895833333332
EXTRACT: note_on channel=11 note=55 velocity=100 time=0.14583326041666664
EXTRACT: note_on channel=11 note=60 velocity=87 time=0
EXTRACT: note_on channel=11 note=63 velocity=109 time=0
EXTRACT: note_on channel=0 note=43 velocity=124 time=0.0012254895833333332
EXTRACT: note_on channel=2 note=60 velocity=0 time=0
EXTRACT: note_on channel=2 note=63 velocity=0 time=0
EXTRACT: note_on channel=2 note=68 velocity=0 time=0
EXTRACT: note_on channel=2 note=67 velocity=123 time=0
EXTRACT: note_on channel=2 note=63 velocity=102 time=0
EXTRACT: note_on channel=3 note=60 velocity=0 time=0
EXTRACT: note_on channel=3 note=56 velocity=0 time=0
EXTRACT: note_on channel=3 note=55 velocity=82 time=0
EXTRACT: note_on channel=9 note=42 velocity=79 time=0
EXTRACT: note_on channel=9 note=40 velocity=127 time=0
EXTRACT: note_on channel=14 note=72 velocity=124 time=0
EXTRACT: note_on channel=9 note=42 velocity=0 time=0.049019583333333325
EXTRACT: note_on channel=9 note=40 velocity=0 time=0
EXTRACT: note_on channel=11 note=55 velocity=0 time=0.09681367708333333
EXTRACT: note_on channel=11 note=60 velocity=0 time=0
EXTRACT: note_on channel=11 note=63 velocity=0 time=0
EXTRACT: note_on channel=14 note=72 velocity=0 time=0.0012254895833333332
EXTRACT: note_on channel=11 note=55 velocity=108 time=0.14583326041666664
EXTRACT: note_on channel=11 note=60 velocity=89 time=0
EXTRACT: note_on channel=11 note=63 velocity=107 time=0
EXTRACT: note_on channel=9 note=42 velocity=99 time=0.0012254895833333332
EXTRACT: note_on channel=9 note=54 velocity=70 time=0
EXTRACT: note_on channel=14 note=74 velocity=99 time=0
EXTRACT: note_on channel=9 note=42 velocity=0 time=0.049019583333333325
EXTRACT: note_on channel=9 note=54 velocity=0 time=0
EXTRACT: note_on channel=11 note=55 velocity=0 time=0.09681367708333333
EXTRACT: note_on channel=11 note=60 velocity=0 time=0
EXTRACT: note_on channel=11 note=63 velocity=0 time=0
EXTRACT: note_on channel=0 note=43 velocity=0 time=0.0012254895833333332
EXTRACT: note_on channel=14 note=74 velocity=0 time=0
EXTRACT: note_on channel=11 note=56 velocity=95 time=0.14583326041666664
EXTRACT: note_on channel=11 note=60 velocity=106 time=0
EXTRACT: note_on channel=11 note=63 velocity=112 time=0
EXTRACT: note_on channel=0 note=41 velocity=108 time=0.0012254895833333332
EXTRACT: note_on channel=2 note=67 velocity=0 time=0
EXTRACT: note_on channel=2 note=63 velocity=0 time=0
EXTRACT: note_on channel=2 note=56 velocity=125 time=0
EXTRACT: note_on channel=2 note=60 velocity=123 time=0
EXTRACT: note_on channel=2 note=65 velocity=116 time=0
EXTRACT: note_on channel=3 note=63 velocity=0 time=0
EXTRACT: note_on channel=3 note=55 velocity=0 time=0
EXTRACT: note_on channel=3 note=60 velocity=97 time=0
EXTRACT: note_on channel=3 note=56 velocity=98 time=0
EXTRACT: note_on channel=9 note=42 velocity=84 time=0
EXTRACT: note_on channel=9 note=36 velocity=120 time=0
EXTRACT: note_on channel=14 note=75 velocity=106 time=0
EXTRACT: note_on channel=9 note=42 velocity=0 time=0.049019583333333325
EXTRACT: note_on channel=9 note=36 velocity=0 time=0
EXTRACT: note_on channel=11 note=56 velocity=0 time=0.09681367708333333
EXTRACT: note_on channel=11 note=60 velocity=0 time=0
EXTRACT: note_on channel=11 note=63 velocity=0 time=0
EXTRACT: note_on channel=0 note=41 velocity=0 time=0.0012254895833333332
EXTRACT: note_on channel=11 note=56 velocity=103 time=0.14583326041666664
EXTRACT: note_on channel=11 note=60 velocity=87 time=0
EXTRACT: note_on channel=11 note=63 velocity=94 time=0
EXTRACT: note_on channel=0 note=41 velocity=119 time=0.0012254895833333332
EXTRACT: note_on channel=9 note=42 velocity=102 time=0
EXTRACT: note_on channel=9 note=36 velocity=120 time=0
EXTRACT: note_on channel=9 note=54 velocity=68 time=0
EXTRACT: note_on channel=9 note=42 velocity=0 time=0.049019583333333325
EXTRACT: note_on channel=9 note=36 velocity=0 time=0
EXTRACT: note_on channel=9 note=54 velocity=0 time=0
EXTRACT: note_on channel=11 note=56 velocity=0 time=0.09681367708333333
EXTRACT: note_on channel=11 note=60 velocity=0 time=0
EXTRACT: note_on channel=11 note=63 velocity=0 time=0
EXTRACT: note_on channel=0 note=41 velocity=0 time=0.0012254895833333332
EXTRACT: note_on channel=11 note=56 velocity=110 time=0.14583326041666664
EXTRACT: note_on channel=11 note=60 velocity=91 time=0
EXTRACT: note_on channel=11 note=63 velocity=95 time=0
EXTRACT: note_on channel=9 note=42 velocity=77 time=0.0012254895833333332
EXTRACT: note_on channel=9 note=40 velocity=127 time=0
EXTRACT: note_on channel=9 note=42 velocity=0 time=0.049019583333333325
EXTRACT: note_on channel=9 note=40 velocity=0 time=0
EXTRACT: note_on channel=11 note=56 velocity=0 time=0.09681367708333333
EXTRACT: note_on channel=11 note=60 velocity=0 time=0
EXTRACT: note_on channel=11 note=63 velocity=0 time=0
EXTRACT: note_on channel=14 note=75 velocity=0 time=0.0012254895833333332
EXTRACT: note_on channel=11 note=56 velocity=90 time=0.14583326041666664
EXTRACT: note_on channel=11 note=60 velocity=106 time=0
EXTRACT: note_on channel=11 note=63 velocity=94 time=0
EXTRACT: note_on channel=0 note=41 velocity=117 time=0.0012254895833333332
EXTRACT: note_on channel=9 note=42 velocity=100 time=0
EXTRACT: note_on channel=9 note=36 velocity=120 time=0
EXTRACT: note_on channel=9 note=54 velocity=85 time=0
EXTRACT: note_on channel=14 note=74 velocity=107 time=0
EXTRACT: note_on channel=9 note=42 velocity=0 time=0.049019583333333325
EXTRACT: note_on channel=9 note=36 velocity=0 time=0
EXTRACT: note_on channel=9 note=54 velocity=0 time=0
EXTRACT: note_on channel=11 note=56 velocity=0 time=0.09681367708333333
EXTRACT: note_on channel=11 note=60 velocity=0 time=0
EXTRACT: note_on channel=11 note=63 velocity=0 time=0
EXTRACT: note_on channel=0 note=41 velocity=0 time=0.0012254895833333332
EXTRACT: note_on channel=14 note=74 velocity=0 time=0
EXTRACT: note_on channel=11 note=56 velocity=95 time=0.14583326041666664
EXTRACT: note_on channel=11 note=60 velocity=98 time=0
EXTRACT: note_on channel=11 note=63 velocity=88 time=0
EXTRACT: note_on channel=0 note=41 velocity=116 time=0.0012254895833333332
EXTRACT: note_on channel=9 note=42 velocity=81 time=0
EXTRACT: note_on channel=9 note=36 velocity=120 time=0
EXTRACT: note_on channel=14 note=72 velocity=116 time=0
EXTRACT: note_on channel=9 note=42 velocity=0 time=0.049019583333333325
EXTRACT: note_on channel=9 note=36 velocity=0 time=0
EXTRACT: note_on channel=11 note=56 velocity=0 time=0.09681367708333333
EXTRACT: note_on channel=11 note=60 velocity=0 time=0
EXTRACT: note_on channel=11 note=63 velocity=0 time=0
EXTRACT: note_on channel=0 note=41 velocity=0 time=0.0012254895833333332
EXTRACT: note_on channel=11 note=56 velocity=93 time=0.14583326041666664
EXTRACT: note_on channel=11 note=60 velocity=89 time=0
EXTRACT: note_on channel=11 note=63 velocity=111 time=0
EXTRACT: note_on channel=0 note=41 velocity=110 time=0.0012254895833333332
EXTRACT: note_on channel=9 note=36 velocity=120 time=0
EXTRACT: note_on channel=9 note=42 velocity=99 time=0
EXTRACT: note_on channel=9 note=54 velocity=78 time=0
EXTRACT: note_on channel=9 note=36 velocity=0 time=0.049019583333333325
EXTRACT: note_on channel=9 note=42 velocity=0 time=0
EXTRACT: note_on channel=9 note=54 velocity=0 time=0
EXTRACT: note_on channel=11 note=56 velocity=0 time=0.09681367708333333
EXTRACT: note_on channel=11 note=60 velocity=0 time=0
EXTRACT: note_on channel=11 note=63 velocity=0 time=0
EXTRACT: note_on channel=0 note=41 velocity=0 time=0.0012254895833333332
EXTRACT: note_on channel=11 note=56 velocity=91 time=0.14583326041666664
EXTRACT: note_on channel=11 note=60 velocity=107 time=0
EXTRACT: note_on channel=11 note=63 velocity=103 time=0
EXTRACT: note_on channel=9 note=42 velocity=79 time=0.0012254895833333332
EXTRACT: note_on channel=9 note=40 velocity=127 time=0
EXTRACT: note_on channel=9 note=42 velocity=0 time=0.049019583333333325
EXTRACT: note_on channel=9 note=40 velocity=0 time=0
EXTRACT: note_on channel=11 note=56 velocity=0 time=0.09681367708333333
EXTRACT: note_on channel=11 note=60 velocity=0 time=0
EXTRACT: note_on channel=11 note=63 velocity=0 time=0
EXTRACT: note_on channel=14 note=72 velocity=0 time=0.0012254895833333332
EXTRACT: note_on channel=11 note=56 velocity=103 time=0.14583326041666664
EXTRACT: note_on channel=11 note=60 velocity=93 time=0
EXTRACT: note_on channel=11 note=63 velocity=87 time=0
EXTRACT: note_on channel=0 note=38 velocity=111 time=0.0012254895833333332
EXTRACT: note_on channel=9 note=36 velocity=100 time=0
EXTRACT: note_on channel=9 note=42 velocity=98 time=0
EXTRACT: note_on channel=9 note=54 velocity=75 time=0
EXTRACT: note_on channel=9 note=36 velocity=0 time=0.049019583333333325
EXTRACT: note_on channel=9 note=42 velocity=0 time=0
EXTRACT: note_on channel=9 note=54 velocity=0 time=0
EXTRACT: note_on channel=11 note=56 velocity=0 time=0.09681367708333333
EXTRACT: note_on channel=11 note=60 velocity=0 time=0
EXTRACT: note_on channel=11 note=63 velocity=0 time=0
EXTRACT: note_on channel=0 note=38 velocity=0 time=0.0012254895833333332
EXTRACT: note_on channel=0 note=31 velocity=106 time=0.14705875
EXTRACT: note_on channel=2 note=56 velocity=0 time=0
EXTRACT: note_on channel=2 note=60 velocity=0 time=0
EXTRACT: note_on channel=2 note=65 velocity=0 time=0
EXTRACT: note_on channel=3 note=60 velocity=0 time=0
EXTRACT: note_on channel=3 note=56 velocity=0 time=0
EXTRACT: note_on channel=9 note=36 velocity=80 time=0
EXTRACT: note_on channel=9 note=57 velocity=100 time=0
EXTRACT: note_on channel=9 note=87 velocity=120 time=0
EXTRACT: note_on channel=14 note=79 velocity=116 time=0
EXTRACT: note_on channel=9 note=36 velocity=0 time=0.049019583333333325
EXTRACT: note_on channel=9 note=57 velocity=0 time=0
EXTRACT: note_on channel=9 note=87 velocity=0 time=0
EXTRACT: note_on channel=14 note=79 velocity=0 time=0.09803916666666665
EXTRACT: note_on channel=14 note=80 velocity=116 time=0.14705875
EXTRACT: note_on channel=0 note=31 velocity=0 time=0.14705875
EXTRACT: note_on channel=14 note=80 velocity=0 time=0
EXTRACT: note_on channel=14 note=77 velocity=95 time=0.14705875
EXTRACT: note_on channel=14 note=77 velocity=0 time=0.14705875
EXTRACT: note_on channel=14 note=79 velocity=104 time=0.14705875
EXTRACT: note_on channel=14 note=79 velocity=0 time=0.14705875
EXTRACT: note_on channel=14 note=75 velocity=97 time=0.14705875
EXTRACT: note_on channel=14 note=75 velocity=0 time=0.14705875
EXTRACT: note_on channel=14 note=77 velocity=107 time=0.14705875
EXTRACT: note_on channel=14 note=77 velocity=0 time=0.14705875
EXTRACT: control_change channel=5 control=11 value=40 time=0.14705875
EXTRACT: note_on channel=5 note=43 velocity=107 time=0
EXTRACT: note_on channel=14 note=74 velocity=110 time=0
EXTRACT: control_change channel=5 control=11 value=41 time=0.004901958333333333
EXTRACT: control_change channel=5 control=11 value=42 time=0.009803916666666666
EXTRACT: note_on channel=5 note=43 velocity=107 time=0
EXTRACT: control_change channel=5 control=11 value=43 time=0.004901958333333333
EXTRACT: control_change channel=5 control=11 value=44 time=0.009803916666666666
EXTRACT: note_on channel=5 note=43 velocity=107 time=0
EXTRACT: control_change channel=5 control=11 value=45 time=0.004901958333333333
EXTRACT: control_change channel=5 control=11 value=46 time=0.004901958333333333
EXTRACT: control_change channel=5 control=11 value=47 time=0.009803916666666666
EXTRACT: control_change channel=5 control=11 value=48 time=0.004901958333333333
EXTRACT: control_change channel=5 control=11 value=49 time=0.004901958333333333
EXTRACT: control_change channel=5 control=11 value=50 time=0.009803916666666666
EXTRACT: control_change channel=5 control=11 value=51 time=0.004901958333333333
EXTRACT: note_on channel=5 note=43 velocity=107 time=0
EXTRACT: control_change channel=5 control=11 value=52 time=0.009803916666666666
EXTRACT: control_change channel=5 control=11 value=53 time=0.004901958333333333
EXTRACT: note_on channel=5 note=43 velocity=107 time=0
EXTRACT: control_change channel=5 control=11 value=54 time=0.004901958333333333
EXTRACT: control_change channel=5 control=11 value=55 time=0.009803916666666666
EXTRACT: control_change channel=5 control=11 value=56 time=0.004901958333333333
EXTRACT: control_change channel=5 control=11 value=57 time=0.004901958333333333
EXTRACT: note_on channel=5 note=43 velocity=107 time=0.004901958333333333
EXTRACT: control_change channel=5 control=11 value=58 time=0.004901958333333333
EXTRACT: control_change channel=5 control=11 value=59 time=0.004901958333333333
EXTRACT: control_change channel=5 control=11 value=60 time=0.009803916666666666
EXTRACT: note_on channel=5 note=43 velocity=107 time=0
EXTRACT: control_change channel=5 control=11 value=61 time=0.004901958333333333
EXTRACT: note_on channel=5 note=43 velocity=0 time=0.004901958333333333
EXTRACT: control_change channel=5 control=11 value=62 time=0
EXTRACT: note_on channel=5 note=43 velocity=107 time=0
EXTRACT: note_on channel=14 note=74 velocity=0 time=0
EXTRACT: control_change channel=5 control=11 value=63 time=0.009803916666666666
EXTRACT: note_on channel=5 note=43 velocity=0 time=0.004901958333333333
EXTRACT: control_change channel=5 control=11 value=64 time=0
EXTRACT: control_change channel=5 control=11 value=65 time=0.004901958333333333
EXTRACT: note_on channel=5 note=43 velocity=107 time=0
EXTRACT: note_on channel=5 note=43 velocity=0 time=0.009803916666666666
EXTRACT: control_change channel=5 control=11 value=66 time=0
EXTRACT: control_change channel=5 control=11 value=67 time=0.004901958333333333
EXTRACT: note_on channel=5 note=43 velocity=107 time=0.004901958333333333
EXTRACT: control_change channel=5 control=11 value=68 time=0.004901958333333333
EXTRACT: control_change channel=5 control=11 value=69 time=0.004901958333333333
EXTRACT: control_change channel=5 control=11 value=70 time=0.004901958333333333
EXTRACT: control_change channel=5 control=11 value=71 time=0.009803916666666666
EXTRACT: control_change channel=5 control=11 value=72 time=0.004901958333333333
EXTRACT: note_on channel=5 note=43 velocity=0 time=0.004901958333333333
EXTRACT: note_on channel=5 note=43 velocity=107 time=0
EXTRACT: control_change channel=5 control=11 value=73 time=0.004901958333333333
EXTRACT: control_change channel=5 control=11 value=74 time=0.004901958333333333
EXTRACT: note_on channel=5 note=43 velocity=0 time=0.004901958333333333
EXTRACT: control_change channel=5 control=11 value=75 time=0
EXTRACT: control_change channel=5 control=11 value=76 time=0.009803916666666666
EXTRACT: control_change channel=5 control=11 value=77 time=0.004901958333333333
EXTRACT: control_change channel=5 control=11 value=78 time=0.004901958333333333
EXTRACT: note_on channel=5 note=43 velocity=0 time=0.009803916666666666
EXTRACT: control_change channel=5 control=11 value=79 time=0
EXTRACT: control_change channel=5 control=11 value=80 time=0.004901958333333333
EXTRACT: control_change channel=5 control=11 value=81 time=0.009803916666666666
EXTRACT: note_on channel=5 note=43 velocity=0 time=0.004901958333333333
EXTRACT: control_change channel=5 control=11 value=82 time=0
EXTRACT: control_change channel=5 control=11 value=83 time=0.004901958333333333
EXTRACT: note_on channel=5 note=43 velocity=0 time=0.004901958333333333
EXTRACT: note_on channel=5 note=43 velocity=107 time=0
EXTRACT: note_on channel=14 note=75 velocity=96 time=0
EXTRACT: control_change channel=5 control=11 value=84 time=0.004901958333333333
EXTRACT: control_change channel=5 control=11 value=85 time=0.004901958333333333
EXTRACT: control_change channel=5 control=11 value=86 time=0.004901958333333333
EXTRACT: note_on channel=5 note=43 velocity=0 time=0.004901958333333333
EXTRACT: control_change channel=5 control=11 value=87 time=0.004901958333333333
EXTRACT: control_change channel=5 control=11 value=88 time=0.004901958333333333
EXTRACT: note_on channel=5 note=43 velocity=0 time=0.009803916666666666
EXTRACT: control_change channel=5 control=11 value=89 time=0
EXTRACT: control_change channel=5 control=11 value=90 time=0.004901958333333333
EXTRACT: control_change channel=5 control=11 value=91 time=0.004901958333333333
EXTRACT: control_change channel=5 control=11 value=92 time=0.009803916666666666
EXTRACT: control_change channel=5 control=11 value=93 time=0.004901958333333333
EXTRACT: control_change channel=5 control=11 value=94 time=0.004901958333333333
EXTRACT: note_on channel=5 note=43 velocity=0 time=0.004901958333333333
EXTRACT: note_on channel=5 note=43 velocity=107 time=0
EXTRACT: control_change channel=5 control=11 value=95 time=0.004901958333333333
EXTRACT: control_change channel=5 control=11 value=96 time=0.004901958333333333
EXTRACT: control_change channel=5 control=11 value=97 time=0.009803916666666666
EXTRACT: control_change channel=5 control=11 value=98 time=0.004901958333333333
EXTRACT: control_change channel=5 control=11 value=99 time=0.004901958333333333
EXTRACT: control_change channel=5 control=11 value=100 time=0.009803916666666666
EXTRACT: control_change channel=5 control=11 value=101 time=0.004901958333333333
EXTRACT: control_change channel=5 control=11 value=102 time=0.009803916666666666
EXTRACT: control_change channel=5 control=11 value=103 time=0.004901958333333333
EXTRACT: control_change channel=5 control=11 value=104 time=0.004901958333333333
EXTRACT: note_on channel=5 note=43 velocity=0 time=0.009803916666666666
EXTRACT: control_change channel=5 control=11 value=105 time=0
EXTRACT: note_on channel=5 note=43 velocity=107 time=0
EXTRACT: note_on channel=14 note=75 velocity=0 time=0
EXTRACT: control_change channel=5 control=11 value=106 time=0.004901958333333333
EXTRACT: control_change channel=5 control=11 value=107 time=0.004901958333333333
EXTRACT: control_change channel=5 control=11 value=108 time=0.009803916666666666
EXTRACT: control_change channel=5 control=11 value=109 time=0.004901958333333333
EXTRACT: control_change channel=5 control=11 value=110 time=0.009803916666666666
EXTRACT: control_change channel=5 control=11 value=111 time=0.004901958333333333
EXTRACT: control_change channel=5 control=11 value=112 time=0.004901958333333333
EXTRACT: control_change channel=5 control=11 value=113 time=0.009803916666666666
EXTRACT: control_change channel=5 control=11 value=114 time=0.004901958333333333
EXTRACT: control_change channel=5 control=11 value=115 time=0.004901958333333333
EXTRACT: note_on channel=5 note=43 velocity=0 time=0.009803916666666666
EXTRACT: control_change channel=5 control=11 value=116 time=0
EXTRACT: note_on channel=5 note=43 velocity=107 time=0
EXTRACT: control_change channel=5 control=11 value=117 time=0.004901958333333333
EXTRACT: control_change channel=5 control=11 value=118 time=0.009803916666666666
EXTRACT: control_change channel=5 control=11 value=119 time=0.004901958333333333
EXTRACT: control_change channel=5 control=11 value=120 time=0.004901958333333333
EXTRACT: control_change channel=5 control=11 value=121 time=0.009803916666666666
EXTRACT: control_change channel=5 control=11 value=122 time=0.004901958333333333
EXTRACT: control_change channel=5 control=11 value=123 time=0.004901958333333333
EXTRACT: control_change channel=5 control=11 value=124 time=0.009803916666666666
EXTRACT: control_change channel=5 control=11 value=125 time=0.004901958333333333
EXTRACT: control_change channel=5 control=11 value=126 time=0.009803916666666666
EXTRACT: note_on channel=0 note=36 velocity=108 time=0.004901958333333333
EXTRACT: note_on channel=1 note=60 velocity=115 time=0
EXTRACT: note_on channel=2 note=60 velocity=104 time=0
EXTRACT: note_on channel=2 note=63 velocity=127 time=0
EXTRACT: note_on channel=2 note=67 velocity=106 time=0
EXTRACT: note_on channel=3 note=55 velocity=90 time=0
EXTRACT: note_on channel=3 note=60 velocity=91 time=0
EXTRACT: note_on channel=3 note=63 velocity=91 time=0
EXTRACT: note_on channel=5 note=43 velocity=0 time=0
EXTRACT: control_change channel=5 control=11 value=127 time=0
EXTRACT: note_on channel=5 note=36 velocity=107 time=0
EXTRACT: note_on channel=9 note=36 velocity=120 time=0
EXTRACT: note_on channel=9 note=49 velocity=100 time=0
EXTRACT: note_on channel=14 note=72 velocity=95 time=0
EXTRACT: note_on channel=9 note=36 velocity=0 time=0.049019583333333325
EXTRACT: note_on channel=9 note=49 velocity=0 time=0
EXTRACT: note_on channel=5 note=43 velocity=0 time=0.024509791666666662
EXTRACT: note_on channel=5 note=36 velocity=0 time=0.073529375
EXTRACT: note_on channel=1 note=60 velocity=0 time=0.14705875
EXTRACT: note_on channel=2 note=60 velocity=0 time=0
EXTRACT: note_on channel=2 note=63 velocity=0 time=0
EXTRACT: note_on channel=2 note=67 velocity=0 time=0
EXTRACT: note_on channel=3 note=55 velocity=0 time=0
EXTRACT: note_on channel=3 note=60 velocity=0 time=0
EXTRACT: note_on channel=3 note=63 velocity=0 time=0
EXTRACT: note_on channel=14 note=72 velocity=0 time=0
EXTRACT: note_on channel=0 note=36 velocity=0 time=0.14705875
INTERVALS37 - whatusee.mid
unison378
2m37
2M30
3m16
3M10
4m45
4M2
5m9
5M6
6m0
7m5
7M1