EXTRACT: control_change channel=2 control=0 value=0 time=0
EXTRACT: control_change channel=2 control=32 value=1 time=0
EXTRACT: program_change channel=2 program=32 time=0
EXTRACT: control_change channel=2 control=7 value=80 time=0
EXTRACT: control_change channel=2 control=10 value=71 time=0
EXTRACT: control_change channel=2 control=91 value=23 time=0
EXTRACT: control_change channel=2 control=93 value=23 time=0
EXTRACT: control_change channel=3 control=0 value=0 time=0
EXTRACT: control_change channel=3 control=32 value=1 time=0
EXTRACT: program_change channel=3 program=99 time=0
EXTRACT: control_change channel=3 control=7 value=36 time=0
EXTRACT: control_change channel=3 control=10 value=23 time=0
EXTRACT: control_change channel=3 control=91 value=63 time=0
EXTRACT: control_change channel=3 control=93 value=63 time=0
EXTRACT: control_change channel=4 control=0 value=0 time=0
EXTRACT: control_change channel=4 control=32 value=0 time=0
EXTRACT: program_change channel=4 program=89 time=0
EXTRACT: control_change channel=4 control=7 value=50 time=0
EXTRACT: control_change channel=4 control=10 value=111 time=0
EXTRACT: control_change channel=4 control=91 value=55 time=0
EXTRACT: control_change channel=4 control=93 value=63 time=0
EXTRACT: program_change channel=9 program=32 time=0
EXTRACT: control_change channel=9 control=7 value=98 time=0
EXTRACT: control_change channel=9 control=10 value=64 time=0
EXTRACT: control_change channel=9 control=91 value=63 time=0
EXTRACT: control_change channel=10 control=0 value=0 time=0
EXTRACT: control_change channel=10 control=32 value=0 time=0
EXTRACT: program_change channel=10 program=0 time=0
EXTRACT: control_change channel=10 control=7 value=127 time=0
EXTRACT: control_change channel=10 control=10 value=64 time=0
EXTRACT: control_change channel=10 control=91 value=56 time=0
EXTRACT: control_change channel=10 control=93 value=0 time=0
EXTRACT: control_change channel=10 control=30 value=0 time=0
EXTRACT: control_change channel=11 control=0 value=0 time=0
EXTRACT: control_change channel=11 control=32 value=0 time=0
EXTRACT: program_change channel=11 program=49 time=0
EXTRACT: control_change channel=11 control=7 value=48 time=0
EXTRACT: control_change channel=11 control=10 value=64 time=0
EXTRACT: control_change channel=11 control=91 value=56 time=0
EXTRACT: control_change channel=11 control=93 value=64 time=0
EXTRACT: control_change channel=12 control=0 value=0 time=0
EXTRACT: control_change channel=12 control=32 value=0 time=0
EXTRACT: program_change channel=12 program=48 time=0
EXTRACT: control_change channel=12 control=7 value=127 time=0
EXTRACT: control_change channel=12 control=10 value=64 time=0
EXTRACT: control_change channel=12 control=91 value=56 time=0
EXTRACT: control_change channel=12 control=93 value=64 time=0
EXTRACT: control_change channel=13 control=0 value=0 time=0
EXTRACT: control_change channel=13 control=32 value=0 time=0
EXTRACT: program_change channel=13 program=64 time=0
EXTRACT: control_change channel=13 control=7 value=127 time=0
EXTRACT: control_change channel=13 control=10 value=64 time=0
EXTRACT: control_change channel=13 control=91 value=56 time=0
EXTRACT: control_change channel=13 control=93 value=64 time=0
EXTRACT: note_on channel=3 note=60 velocity=58 time=2.4868452083333334
EXTRACT: note_on channel=3 note=55 velocity=67 time=0
EXTRACT: note_on channel=10 note=67 velocity=78 time=0
EXTRACT: note_on channel=10 note=60 velocity=68 time=0
EXTRACT: note_on channel=10 note=63 velocity=67 time=0
EXTRACT: note_on channel=3 note=63 velocity=66 time=0.012885208333333334
EXTRACT: note_off channel=10 note=60 velocity=0 time=0.3350154166666667
EXTRACT: note_on channel=10 note=60 velocity=71 time=0.16750770833333334
EXTRACT: note_off channel=10 note=63 velocity=0 time=0.038655625
EXTRACT: note_off channel=10 note=67 velocity=0 time=0.051540833333333334
EXTRACT: note_off channel=3 note=55 velocity=0 time=0.12885208333333334
EXTRACT: note_off channel=3 note=60 velocity=0 time=0
EXTRACT: note_off channel=3 note=63 velocity=0 time=0.051540833333333334
EXTRACT: note_off channel=10 note=60 velocity=0 time=0.10308166666666667
EXTRACT: note_on channel=3 note=62 velocity=78 time=0.193278125
EXTRACT: note_on channel=10 note=62 velocity=76 time=0
EXTRACT: note_on channel=10 note=59 velocity=82 time=0
EXTRACT: note_on channel=3 note=55 velocity=68 time=0.012885208333333334
EXTRACT: note_on channel=3 note=59 velocity=73 time=0
EXTRACT: note_on channel=10 note=55 velocity=40 time=0
EXTRACT: note_on channel=10 note=53 velocity=55 time=0.012885208333333334
EXTRACT: note_off channel=10 note=53 velocity=0 time=0.06442604166666667
EXTRACT: note_off channel=10 note=55 velocity=0 time=1.15966875
EXTRACT: note_off channel=10 note=62 velocity=0 time=0.025770416666666667
EXTRACT: note_off channel=10 note=59 velocity=0 time=0.038655625
EXTRACT: note_on channel=10 note=59 velocity=53 time=0.29635979166666665
EXTRACT: note_on channel=10 note=55 velocity=69 time=0
EXTRACT: note_on channel=10 note=62 velocity=51 time=0.012885208333333334
EXTRACT: note_off channel=10 note=55 velocity=0 time=0.54117875
EXTRACT: note_on channel=10 note=55 velocity=55 time=0.115966875
EXTRACT: note_off channel=10 note=62 velocity=0 time=0.7473420833333333
EXTRACT: note_off channel=10 note=59 velocity=0 time=0.193278125
EXTRACT: note_off channel=10 note=55 velocity=0 time=0.012885208333333334
EXTRACT: note_on channel=10 note=53 velocity=33 time=0.193278125
EXTRACT: note_on channel=10 note=56 velocity=22 time=0.12885208333333334
EXTRACT: note_on channel=10 note=60 velocity=55 time=0.115966875
EXTRACT: note_on channel=10 note=63 velocity=39 time=0.18039291666666668
EXTRACT: note_off channel=3 note=59 velocity=0 time=0.5540639583333333
EXTRACT: note_off channel=3 note=62 velocity=0 time=0.18039291666666668
EXTRACT: note_off channel=3 note=55 velocity=0 time=0.12885208333333334
EXTRACT: note_on channel=9 note=36 velocity=110 time=0.6313752083333334
EXTRACT: note_on channel=2 note=31 velocity=127 time=0.012885208333333334
EXTRACT: note_on channel=9 note=70 velocity=107 time=0
EXTRACT: note_on channel=9 note=42 velocity=69 time=0
EXTRACT: note_on channel=9 note=44 velocity=69 time=0
EXTRACT: note_off channel=9 note=70 velocity=0 time=0.051540833333333334
EXTRACT: note_off channel=9 note=36 velocity=0 time=0
EXTRACT: note_off channel=9 note=44 velocity=0 time=0.07731125
EXTRACT: note_off channel=9 note=42 velocity=0 time=0
EXTRACT: note_on channel=4 note=62 velocity=116 time=0.012885208333333334
EXTRACT: note_on channel=9 note=70 velocity=8 time=0
EXTRACT: note_off channel=4 note=62 velocity=0 time=0.06442604166666667
EXTRACT: note_off channel=9 note=70 velocity=0 time=0
EXTRACT: note_on channel=9 note=70 velocity=22 time=0.09019645833333334
EXTRACT: note_on channel=9 note=42 velocity=36 time=0
EXTRACT: note_off channel=9 note=42 velocity=0 time=0.06442604166666667
EXTRACT: note_off channel=9 note=70 velocity=0 time=0
EXTRACT: note_off channel=2 note=31 velocity=0 time=0.06442604166666667
EXTRACT: note_on channel=2 note=31 velocity=125 time=0.025770416666666667
EXTRACT: note_on channel=4 note=62 velocity=92 time=0
EXTRACT: note_on channel=9 note=36 velocity=110 time=0
EXTRACT: note_on channel=9 note=70 velocity=60 time=0
EXTRACT: note_off channel=4 note=62 velocity=0 time=0.06442604166666667
EXTRACT: note_off channel=9 note=70 velocity=0 time=0
EXTRACT: note_off channel=9 note=36 velocity=0 time=0
EXTRACT: note_off channel=2 note=31 velocity=0 time=0.07731125
EXTRACT: note_on channel=9 note=40 velocity=100 time=0.012885208333333334
EXTRACT: note_on channel=9 note=90 velocity=127 time=0
EXTRACT: note_on channel=9 note=44 velocity=71 time=0.012885208333333334
EXTRACT: note_on channel=9 note=70 velocity=113 time=0
EXTRACT: note_on channel=9 note=49 velocity=73 time=0
EXTRACT: note_off channel=9 note=49 velocity=0 time=0.051540833333333334
EXTRACT: note_off channel=9 note=70 velocity=0 time=0
EXTRACT: note_off channel=9 note=44 velocity=0 time=0
EXTRACT: note_off channel=10 note=63 velocity=0 time=0.051540833333333334
EXTRACT: note_off channel=9 note=90 velocity=0 time=0.025770416666666667
EXTRACT: note_off channel=9 note=40 velocity=0 time=0
EXTRACT: note_on channel=9 note=70 velocity=10 time=0.012885208333333334
EXTRACT: note_off channel=10 note=60 velocity=0 time=0
EXTRACT: note_off channel=10 note=56 velocity=0 time=0
EXTRACT: note_off channel=10 note=53 velocity=0 time=0
EXTRACT: note_off channel=9 note=70 velocity=0 time=0.06442604166666667
EXTRACT: note_on channel=9 note=70 velocity=24 time=0.09019645833333334
EXTRACT: note_off channel=9 note=70 velocity=0 time=0.06442604166666667
EXTRACT: note_on channel=9 note=36 velocity=110 time=0.09019645833333334
EXTRACT: note_on channel=9 note=70 velocity=64 time=0
EXTRACT: note_off channel=9 note=70 velocity=0 time=0.06442604166666667
EXTRACT: note_off channel=9 note=36 velocity=0 time=0
EXTRACT: note_on channel=9 note=40 velocity=100 time=0.09019645833333334
EXTRACT: note_on channel=9 note=90 velocity=125 time=0
EXTRACT: note_on channel=9 note=70 velocity=110 time=0
EXTRACT: note_on channel=2 note=31 velocity=110 time=0.012885208333333334
EXTRACT: note_on channel=4 note=62 velocity=116 time=0
EXTRACT: note_on channel=9 note=44 velocity=40 time=0
EXTRACT: note_on channel=10 note=48 velocity=106 time=0
EXTRACT: note_off channel=4 note=62 velocity=0 time=0.051540833333333334
EXTRACT: note_off channel=9 note=44 velocity=0 time=0
EXTRACT: note_off channel=9 note=70 velocity=0 time=0
EXTRACT: note_off channel=9 note=90 velocity=0 time=0
EXTRACT: note_off channel=9 note=40 velocity=0 time=0
EXTRACT: note_on channel=9 note=70 velocity=10 time=0.09019645833333334
EXTRACT: note_off channel=9 note=70 velocity=0 time=0.06442604166666667
EXTRACT: note_off channel=10 note=48 velocity=0 time=0.038655625
EXTRACT: note_on channel=9 note=40 velocity=100 time=0.051540833333333334
EXTRACT: note_on channel=9 note=90 velocity=123 time=0
EXTRACT: note_on channel=9 note=70 velocity=24 time=0
EXTRACT: note_on channel=10 note=48 velocity=97 time=0.012885208333333334
EXTRACT: note_off channel=2 note=31 velocity=0 time=0.051540833333333334
EXTRACT: note_off channel=9 note=70 velocity=0 time=0
EXTRACT: note_off channel=9 note=90 velocity=0 time=0
EXTRACT: note_off channel=9 note=40 velocity=0 time=0
EXTRACT: note_on channel=2 note=31 velocity=125 time=0.09019645833333334
EXTRACT: note_on channel=4 note=62 velocity=113 time=0
EXTRACT: note_on channel=9 note=36 velocity=110 time=0
EXTRACT: note_on channel=9 note=70 velocity=64 time=0
EXTRACT: note_off channel=4 note=62 velocity=0 time=0.051540833333333334
EXTRACT: note_off channel=9 note=70 velocity=0 time=0.012885208333333334
EXTRACT: note_off channel=9 note=36 velocity=0 time=0
EXTRACT: note_on channel=9 note=40 velocity=40 time=0.012885208333333334
EXTRACT: note_off channel=9 note=40 velocity=0 time=0.012885208333333334
EXTRACT: note_off channel=10 note=48 velocity=0 time=0
EXTRACT: note_on channel=9 note=40 velocity=60 time=0.025770416666666667
EXTRACT: note_off channel=9 note=40 velocity=0 time=0.012885208333333334
EXTRACT: note_on channel=9 note=40 velocity=100 time=0.025770416666666667
EXTRACT: note_on channel=9 note=90 velocity=127 time=0
EXTRACT: note_on channel=9 note=44 velocity=71 time=0.012885208333333334
EXTRACT: note_on channel=9 note=70 velocity=110 time=0
EXTRACT: note_on channel=10 note=48 velocity=106 time=0
EXTRACT: note_off channel=9 note=70 velocity=0 time=0.051540833333333334
EXTRACT: note_off channel=9 note=44 velocity=0 time=0
EXTRACT: note_off channel=9 note=90 velocity=0 time=0.07731125
EXTRACT: note_off channel=9 note=40 velocity=0 time=0
EXTRACT: note_on channel=9 note=47 velocity=110 time=0.012885208333333334
EXTRACT: note_on channel=9 note=70 velocity=10 time=0
EXTRACT: note_off channel=10 note=48 velocity=0 time=0.012885208333333334
EXTRACT: note_off channel=9 note=70 velocity=0 time=0.051540833333333334
EXTRACT: note_off channel=9 note=47 velocity=0 time=0
EXTRACT: note_off channel=2 note=31 velocity=0 time=0.038655625
EXTRACT: note_on channel=2 note=31 velocity=125 time=0.051540833333333334
EXTRACT: note_on channel=9 note=45 velocity=110 time=0
EXTRACT: note_on channel=9 note=70 velocity=22 time=0
EXTRACT: note_on channel=4 note=62 velocity=96 time=0.012885208333333334
EXTRACT: note_on channel=10 note=60 velocity=106 time=0.012885208333333334
EXTRACT: note_off channel=4 note=62 velocity=0 time=0.012885208333333334
EXTRACT: note_off channel=9 note=70 velocity=0 time=0.025770416666666667
EXTRACT: note_off channel=9 note=45 velocity=0 time=0
EXTRACT: note_on channel=4 note=62 velocity=81 time=0.09019645833333334
EXTRACT: note_on channel=9 note=36 velocity=91 time=0
EXTRACT: note_on channel=9 note=55 velocity=85 time=0
EXTRACT: note_on channel=9 note=70 velocity=67 time=0
EXTRACT: note_off channel=10 note=60 velocity=0 time=0.012885208333333334
EXTRACT: note_on channel=10 note=67 velocity=104 time=0
EXTRACT: note_on channel=3 note=56 velocity=41 time=0.025770416666666667
EXTRACT: note_on channel=3 note=53 velocity=43 time=0
EXTRACT: note_on channel=3 note=48 velocity=47 time=0.025770416666666667
EXTRACT: note_off channel=9 note=70 velocity=0 time=0
EXTRACT: note_off channel=9 note=55 velocity=0 time=0
EXTRACT: note_off channel=9 note=36 velocity=0 time=0
EXTRACT: note_off channel=2 note=31 velocity=0 time=0.038655625
EXTRACT: note_off channel=4 note=62 velocity=0 time=0
EXTRACT: note_on channel=4 note=65 velocity=111 time=0.06442604166666667
EXTRACT: program_change channel=9 program=0 time=0
EXTRACT: note_on channel=9 note=49 velocity=90 time=0
EXTRACT: program_change channel=9 program=32 time=0
EXTRACT: note_off channel=9 note=49 velocity=0 time=0.0016106510416666667
EXTRACT: note_off channel=3 note=48 velocity=0 time=0.011274557291666668
EXTRACT: note_off channel=3 note=56 velocity=0 time=0
EXTRACT: note_on channel=4 note=60 velocity=104 time=0
EXTRACT: note_on channel=9 note=36 velocity=127 time=0
EXTRACT: note_on channel=9 note=44 velocity=69 time=0
EXTRACT: note_off channel=3 note=53 velocity=0 time=0.012885208333333334
EXTRACT: note_on channel=9 note=70 velocity=107 time=0
EXTRACT: note_on channel=9 note=42 velocity=69 time=0
EXTRACT: note_on channel=10 note=65 velocity=115 time=0
EXTRACT: note_on channel=2 note=29 velocity=127 time=0.012885208333333334
EXTRACT: note_off channel=10 note=67 velocity=0 time=0
EXTRACT: note_off channel=9 note=70 velocity=0 time=0.012885208333333334
EXTRACT: note_off channel=9 note=42 velocity=0 time=0.07731125
EXTRACT: note_off channel=9 note=44 velocity=0 time=0
EXTRACT: note_off channel=9 note=36 velocity=0 time=0
EXTRACT: note_on channel=9 note=70 velocity=8 time=0.012885208333333334
EXTRACT: note_off channel=9 note=70 velocity=0 time=0.06442604166666667
EXTRACT: note_on channel=9 note=70 velocity=22 time=0.09019645833333334
EXTRACT: note_on channel=9 note=42 velocity=36 time=0
EXTRACT: note_off channel=9 note=42 velocity=0 time=0.06442604166666667
EXTRACT: note_off channel=9 note=70 velocity=0 time=0
EXTRACT: note_off channel=2 note=29 velocity=0 time=0.06442604166666667
EXTRACT: note_on channel=2 note=29 velocity=125 time=0.025770416666666667
EXTRACT: note_on channel=9 note=36 velocity=99 time=0
EXTRACT: note_on channel=9 note=70 velocity=60 time=0
EXTRACT: note_off channel=9 note=70 velocity=0 time=0.06442604166666667
EXTRACT: note_off channel=9 note=36 velocity=0 time=0
EXTRACT: note_on channel=9 note=40 velocity=100 time=0.09019645833333334
EXTRACT: note_on channel=9 note=90 velocity=127 time=0.012885208333333334
EXTRACT: note_on channel=9 note=44 velocity=71 time=0
EXTRACT: note_on channel=9 note=70 velocity=113 time=0
EXTRACT: note_on channel=9 note=42 velocity=71 time=0
EXTRACT: note_off channel=9 note=42 velocity=0 time=0.051540833333333334
EXTRACT: note_off channel=9 note=70 velocity=0 time=0
EXTRACT: note_off channel=9 note=44 velocity=0 time=0
EXTRACT: note_off channel=2 note=29 velocity=0 time=0.07731125
EXTRACT: note_off channel=9 note=90 velocity=0 time=0
EXTRACT: note_off channel=9 note=40 velocity=0 time=0
EXTRACT: note_on channel=9 note=70 velocity=10 time=0.012885208333333334
EXTRACT: note_off channel=10 note=65 velocity=0 time=0.025770416666666667
EXTRACT: note_off channel=9 note=70 velocity=0 time=0.038655625
EXTRACT: note_on channel=9 note=70 velocity=24 time=0.09019645833333334
EXTRACT: note_on channel=9 note=42 velocity=40 time=0
EXTRACT: note_on channel=10 note=62 velocity=115 time=0.012885208333333334
EXTRACT: note_off channel=9 note=42 velocity=0 time=0.051540833333333334
EXTRACT: note_off channel=9 note=70 velocity=0 time=0
EXTRACT: note_on channel=9 note=70 velocity=64 time=0.09019645833333334
EXTRACT: note_on channel=10 note=63 velocity=110 time=0.012885208333333334
EXTRACT: note_off channel=10 note=62 velocity=0 time=0.012885208333333334
EXTRACT: note_on channel=3 note=62 velocity=56 time=0.012885208333333334
EXTRACT: note_on channel=3 note=55 velocity=47 time=0.012885208333333334
EXTRACT: note_on channel=3 note=59 velocity=60 time=0
EXTRACT: note_off channel=9 note=70 velocity=0 time=0.012885208333333334
EXTRACT: note_off channel=4 note=60 velocity=0 time=0.025770416666666667
EXTRACT: note_off channel=4 note=65 velocity=0 time=0
EXTRACT: note_on channel=4 note=67 velocity=111 time=0
EXTRACT: note_on channel=4 note=62 velocity=104 time=0
EXTRACT: note_on channel=9 note=70 velocity=110 time=0.06442604166666667
EXTRACT: note_on channel=9 note=42 velocity=69 time=0
EXTRACT: note_on channel=2 note=31 velocity=110 time=0.012885208333333334
EXTRACT: note_on channel=9 note=44 velocity=69 time=0
EXTRACT: note_off channel=10 note=63 velocity=0 time=0
EXTRACT: note_on channel=10 note=62 velocity=115 time=0
EXTRACT: note_off channel=9 note=44 velocity=0 time=0.051540833333333334
EXTRACT: note_off channel=9 note=42 velocity=0 time=0
EXTRACT: note_off channel=9 note=70 velocity=0 time=0
EXTRACT: note_on channel=9 note=36 velocity=93 time=0.09019645833333334
EXTRACT: note_on channel=9 note=70 velocity=10 time=0
EXTRACT: note_off channel=9 note=70 velocity=0 time=0.06442604166666667
EXTRACT: note_off channel=9 note=36 velocity=0 time=0
EXTRACT: note_on channel=9 note=36 velocity=123 time=0.09019645833333334
EXTRACT: note_on channel=9 note=70 velocity=24 time=0
EXTRACT: note_on channel=9 note=42 velocity=38 time=0
EXTRACT: note_off channel=2 note=31 velocity=0 time=0.06442604166666667
EXTRACT: note_off channel=9 note=42 velocity=0 time=0
EXTRACT: note_off channel=9 note=70 velocity=0 time=0
EXTRACT: note_off channel=9 note=36 velocity=0 time=0
EXTRACT: note_on channel=2 note=31 velocity=125 time=0.09019645833333334
EXTRACT: note_on channel=9 note=70 velocity=64 time=0
EXTRACT: note_off channel=9 note=70 velocity=0 time=0.06442604166666667
EXTRACT: note_on channel=9 note=40 velocity=100 time=0.09019645833333334
EXTRACT: note_on channel=9 note=90 velocity=127 time=0.012885208333333334
EXTRACT: note_on channel=9 note=44 velocity=71 time=0
EXTRACT: note_on channel=9 note=70 velocity=110 time=0
EXTRACT: note_on channel=9 note=42 velocity=71 time=0
EXTRACT: note_off channel=3 note=59 velocity=0 time=0.038655625
EXTRACT: note_off channel=9 note=42 velocity=0 time=0.012885208333333334
EXTRACT: note_off channel=9 note=70 velocity=0 time=0
EXTRACT: note_off channel=9 note=44 velocity=0 time=0
EXTRACT: note_off channel=9 note=90 velocity=0 time=0.07731125
EXTRACT: note_off channel=9 note=40 velocity=0 time=0
EXTRACT: note_off channel=3 note=55 velocity=0 time=0.012885208333333334
EXTRACT: note_off channel=3 note=62 velocity=0 time=0
EXTRACT: note_on channel=9 note=36 velocity=110 time=0.012885208333333334
EXTRACT: note_on channel=9 note=70 velocity=10 time=0
EXTRACT: note_off channel=10 note=62 velocity=0 time=0.025770416666666667
EXTRACT: note_off channel=9 note=70 velocity=0 time=0.025770416666666667
EXTRACT: note_off channel=9 note=36 velocity=0 time=0
EXTRACT: note_off channel=2 note=31 velocity=0 time=0.038655625
EXTRACT: note_on channel=2 note=31 velocity=125 time=0.051540833333333334
EXTRACT: note_on channel=9 note=70 velocity=22 time=0
EXTRACT: note_on channel=9 note=42 velocity=42 time=0
EXTRACT: note_on channel=10 note=62 velocity=115 time=0.012885208333333334
EXTRACT: note_off channel=9 note=42 velocity=0 time=0.051540833333333334
EXTRACT: note_off channel=9 note=70 velocity=0 time=0
EXTRACT: note_on channel=9 note=36 velocity=75 time=0.09019645833333334
EXTRACT: note_on channel=9 note=70 velocity=67 time=0
EXTRACT: note_on channel=10 note=63 velocity=87 time=0.012885208333333334
EXTRACT: note_off channel=10 note=62 velocity=0 time=0.012885208333333334
EXTRACT: note_off channel=9 note=70 velocity=0 time=0.038655625
EXTRACT: note_off channel=9 note=36 velocity=0 time=0
EXTRACT: note_on channel=3 note=63 velocity=40 time=0.012885208333333334
EXTRACT: note_on channel=3 note=55 velocity=47 time=0
EXTRACT: note_on channel=3 note=60 velocity=44 time=0
EXTRACT: note_off channel=2 note=31 velocity=0 time=0.038655625
EXTRACT: note_off channel=4 note=62 velocity=0 time=0
EXTRACT: note_off channel=4 note=67 velocity=0 time=0
EXTRACT: note_on channel=4 note=63 velocity=111 time=0
EXTRACT: note_on channel=4 note=60 velocity=104 time=0
EXTRACT: note_on channel=9 note=36 velocity=110 time=0.038655625
EXTRACT: note_on channel=2 note=36 velocity=121 time=0.012885208333333334
EXTRACT: note_on channel=9 note=70 velocity=107 time=0
EXTRACT: note_on channel=9 note=42 velocity=69 time=0
EXTRACT: note_on channel=9 note=44 velocity=69 time=0
EXTRACT: note_on channel=10 note=60 velocity=115 time=0
EXTRACT: note_off channel=10 note=63 velocity=0 time=0.038655625
EXTRACT: note_off channel=9 note=70 velocity=0 time=0.012885208333333334
EXTRACT: note_off channel=9 note=36 velocity=0 time=0
EXTRACT: note_off channel=3 note=63 velocity=0 time=0.012885208333333334
EXTRACT: note_off channel=3 note=55 velocity=0 time=0.012885208333333334
EXTRACT: note_off channel=3 note=60 velocity=0 time=0.025770416666666667
EXTRACT: note_off channel=9 note=44 velocity=0 time=0.025770416666666667
EXTRACT: note_off channel=9 note=42 velocity=0 time=0
EXTRACT: note_on channel=9 note=70 velocity=8 time=0.012885208333333334
EXTRACT: note_off channel=9 note=70 velocity=0 time=0.06442604166666667
EXTRACT: note_on channel=9 note=70 velocity=22 time=0.09019645833333334
EXTRACT: note_on channel=9 note=42 velocity=36 time=0
EXTRACT: note_off channel=9 note=42 velocity=0 time=0.06442604166666667
EXTRACT: note_off channel=9 note=70 velocity=0 time=0
EXTRACT: note_off channel=2 note=36 velocity=0 time=0.06442604166666667
EXTRACT: note_on channel=9 note=36 velocity=110 time=0.025770416666666667
EXTRACT: note_on channel=9 note=70 velocity=60 time=0
EXTRACT: note_on channel=2 note=36 velocity=125 time=0.012885208333333334
EXTRACT: note_off channel=9 note=70 velocity=0 time=0.051540833333333334
EXTRACT: note_off channel=9 note=36 velocity=0 time=0
EXTRACT: note_on channel=9 note=40 velocity=100 time=0.09019645833333334
EXTRACT: note_on channel=9 note=90 velocity=127 time=0.012885208333333334
EXTRACT: note_on channel=9 note=44 velocity=71 time=0
EXTRACT: note_on channel=9 note=70 velocity=113 time=0
EXTRACT: note_on channel=9 note=42 velocity=71 time=0
EXTRACT: note_off channel=9 note=42 velocity=0 time=0.051540833333333334
EXTRACT: note_off channel=9 note=70 velocity=0 time=0
EXTRACT: note_off channel=9 note=44 velocity=0 time=0
EXTRACT: note_off channel=2 note=36 velocity=0 time=0.07731125
EXTRACT: note_off channel=9 note=90 velocity=0 time=0
EXTRACT: note_off channel=9 note=40 velocity=0 time=0
EXTRACT: note_on channel=9 note=70 velocity=10 time=0.012885208333333334
EXTRACT: note_off channel=9 note=70 velocity=0 time=0.06442604166666667
EXTRACT: note_on channel=9 note=70 velocity=24 time=0.09019645833333334
EXTRACT: note_on channel=9 note=42 velocity=40 time=0
EXTRACT: note_off channel=9 note=42 velocity=0 time=0.06442604166666667
EXTRACT: note_off channel=9 note=70 velocity=0 time=0
EXTRACT: note_on channel=9 note=70 velocity=64 time=0.09019645833333334
EXTRACT: note_off channel=9 note=70 velocity=0 time=0.06442604166666667
EXTRACT: note_on channel=9 note=70 velocity=110 time=0.09019645833333334
EXTRACT: note_on channel=2 note=36 velocity=110 time=0.012885208333333334
EXTRACT: note_on channel=9 note=42 velocity=69 time=0
EXTRACT: note_on channel=9 note=44 velocity=69 time=0
EXTRACT: note_off channel=9 note=44 velocity=0 time=0.051540833333333334
EXTRACT: note_off channel=9 note=42 velocity=0 time=0
EXTRACT: note_off channel=9 note=70 velocity=0 time=0
EXTRACT: note_on channel=9 note=36 velocity=110 time=0.09019645833333334
EXTRACT: note_on channel=9 note=70 velocity=10 time=0
EXTRACT: note_off channel=9 note=70 velocity=0 time=0.06442604166666667
EXTRACT: note_off channel=9 note=36 velocity=0 time=0
EXTRACT: note_on channel=9 note=36 velocity=110 time=0.09019645833333334
EXTRACT: note_on channel=9 note=70 velocity=24 time=0
EXTRACT: note_on channel=9 note=42 velocity=38 time=0.012885208333333334
EXTRACT: note_off channel=10 note=60 velocity=0 time=0.038655625
EXTRACT: note_off channel=9 note=42 velocity=0 time=0.012885208333333334
EXTRACT: note_off channel=9 note=70 velocity=0 time=0
EXTRACT: note_off channel=9 note=36 velocity=0 time=0
EXTRACT: note_off channel=2 note=36 velocity=0 time=0.07731125
EXTRACT: note_on channel=2 note=31 velocity=110 time=0.012885208333333334
EXTRACT: note_on channel=9 note=70 velocity=64 time=0
EXTRACT: note_on channel=10 note=60 velocity=98 time=0
EXTRACT: note_off channel=9 note=70 velocity=0 time=0.06442604166666667
EXTRACT: note_off channel=10 note=60 velocity=0 time=0.012885208333333334
EXTRACT: note_off channel=2 note=31 velocity=0 time=0.06442604166666667
EXTRACT: note_on channel=9 note=40 velocity=100 time=0.025770416666666667
EXTRACT: note_on channel=9 note=90 velocity=127 time=0
EXTRACT: note_on channel=9 note=44 velocity=71 time=0
EXTRACT: note_on channel=9 note=70 velocity=110 time=0
EXTRACT: note_on channel=10 note=60 velocity=98 time=0
EXTRACT: note_on channel=2 note=34 velocity=110 time=0.012885208333333334
EXTRACT: note_on channel=9 note=42 velocity=71 time=0
EXTRACT: note_off channel=9 note=42 velocity=0 time=0.038655625
EXTRACT: note_off channel=9 note=70 velocity=0 time=0
EXTRACT: note_off channel=9 note=44 velocity=0 time=0
EXTRACT: note_off channel=2 note=34 velocity=0 time=0.07731125
EXTRACT: note_off channel=9 note=90 velocity=0 time=0
EXTRACT: note_off channel=9 note=40 velocity=0 time=0
EXTRACT: note_off channel=10 note=60 velocity=0 time=0
EXTRACT: note_on channel=2 note=36 velocity=110 time=0.012885208333333334
EXTRACT: note_on channel=9 note=70 velocity=10 time=0
EXTRACT: note_on channel=10 note=58 velocity=110 time=0.012885208333333334
EXTRACT: note_off channel=9 note=70 velocity=0 time=0.051540833333333334
EXTRACT: note_on channel=9 note=70 velocity=22 time=0.09019645833333334
EXTRACT: note_on channel=9 note=42 velocity=42 time=0
EXTRACT: note_on channel=10 note=60 velocity=115 time=0.012885208333333334
EXTRACT: note_off channel=10 note=58 velocity=0 time=0.025770416666666667
EXTRACT: note_off channel=9 note=42 velocity=0 time=0.025770416666666667
EXTRACT: note_off channel=9 note=70 velocity=0 time=0
EXTRACT: note_on channel=9 note=70 velocity=67 time=0.09019645833333334
EXTRACT: note_off channel=10 note=60 velocity=0 time=0
EXTRACT: note_on channel=10 note=67 velocity=95 time=0
EXTRACT: note_on channel=3 note=56 velocity=36 time=0.038655625
EXTRACT: note_on channel=3 note=53 velocity=37 time=0.012885208333333334
EXTRACT: note_on channel=3 note=48 velocity=48 time=0.012885208333333334
EXTRACT: note_off channel=9 note=70 velocity=0 time=0
EXTRACT: note_off channel=2 note=36 velocity=0 time=0.038655625
EXTRACT: note_off channel=4 note=60 velocity=0 time=0
EXTRACT: note_off channel=4 note=63 velocity=0 time=0
EXTRACT: note_on channel=4 note=65 velocity=111 time=0
EXTRACT: note_on channel=4 note=60 velocity=104 time=0
EXTRACT: note_on channel=10 note=65 velocity=79 time=0.038655625
EXTRACT: note_on channel=9 note=36 velocity=127 time=0.012885208333333334
EXTRACT: note_on channel=2 note=29 velocity=127 time=0.012885208333333334
EXTRACT: note_on channel=9 note=44 velocity=69 time=0
EXTRACT: note_on channel=9 note=70 velocity=107 time=0
EXTRACT: note_on channel=9 note=42 velocity=69 time=0
EXTRACT: note_on channel=10 note=63 velocity=78 time=0
EXTRACT: note_off channel=10 note=67 velocity=0 time=0.038655625
EXTRACT: note_off channel=3 note=56 velocity=0 time=0.012885208333333334
EXTRACT: note_off channel=9 note=70 velocity=0 time=0
EXTRACT: note_off channel=3 note=53 velocity=0 time=0.012885208333333334
EXTRACT: note_off channel=10 note=63 velocity=0 time=0
EXTRACT: note_off channel=3 note=48 velocity=0 time=0.012885208333333334
EXTRACT: note_off channel=9 note=42 velocity=0 time=0.051540833333333334
EXTRACT: note_off channel=9 note=44 velocity=0 time=0
EXTRACT: note_off channel=9 note=36 velocity=0 time=0
EXTRACT: note_on channel=9 note=70 velocity=8 time=0.012885208333333334
EXTRACT: note_off channel=9 note=70 velocity=0 time=0.06442604166666667
EXTRACT: note_on channel=9 note=70 velocity=22 time=0.09019645833333334
EXTRACT: note_on channel=9 note=42 velocity=36 time=0
EXTRACT: note_off channel=9 note=42 velocity=0 time=0.06442604166666667
EXTRACT: note_off channel=9 note=70 velocity=0 time=0
EXTRACT: note_off channel=2 note=29 velocity=0 time=0.06442604166666667
EXTRACT: note_on channel=9 note=36 velocity=99 time=0.025770416666666667
EXTRACT: note_on channel=9 note=70 velocity=60 time=0
EXTRACT: note_on channel=2 note=29 velocity=125 time=0.012885208333333334
EXTRACT: note_off channel=9 note=70 velocity=0 time=0.051540833333333334
EXTRACT: note_off channel=9 note=36 velocity=0 time=0
EXTRACT: note_on channel=9 note=40 velocity=100 time=0.09019645833333334
EXTRACT: note_on channel=9 note=90 velocity=127 time=0.012885208333333334
EXTRACT: note_on channel=9 note=44 velocity=71 time=0
EXTRACT: note_on channel=9 note=70 velocity=113 time=0
EXTRACT: note_on channel=9 note=42 velocity=71 time=0
EXTRACT: note_off channel=9 note=42 velocity=0 time=0.051540833333333334
EXTRACT: note_off channel=9 note=70 velocity=0 time=0
EXTRACT: note_off channel=9 note=44 velocity=0 time=0
EXTRACT: note_off channel=2 note=29 velocity=0 time=0.07731125
EXTRACT: note_off channel=9 note=90 velocity=0 time=0
EXTRACT: note_off channel=9 note=40 velocity=0 time=0
EXTRACT: note_on channel=9 note=70 velocity=10 time=0.012885208333333334
EXTRACT: note_off channel=9 note=70 velocity=0 time=0.06442604166666667
EXTRACT: note_off channel=10 note=65 velocity=0 time=0.012885208333333334
EXTRACT: note_on channel=9 note=70 velocity=24 time=0.07731125
EXTRACT: note_on channel=9 note=42 velocity=40 time=0
EXTRACT: note_on channel=10 note=63 velocity=110 time=0.025770416666666667
EXTRACT: note_off channel=9 note=42 velocity=0 time=0.038655625
EXTRACT: note_off channel=9 note=70 velocity=0 time=0
EXTRACT: note_on channel=9 note=70 velocity=64 time=0.09019645833333334
EXTRACT: note_off channel=9 note=70 velocity=0 time=0.06442604166666667
EXTRACT: note_on channel=3 note=62 velocity=56 time=0.06442604166666667
EXTRACT: note_on channel=3 note=55 velocity=47 time=0
EXTRACT: note_on channel=3 note=59 velocity=58 time=0
EXTRACT: note_on channel=9 note=70 velocity=110 time=0.025770416666666667
EXTRACT: note_on channel=2 note=29 velocity=110 time=0.012885208333333334
EXTRACT: note_on channel=9 note=42 velocity=69 time=0
EXTRACT: note_on channel=9 note=44 velocity=69 time=0
EXTRACT: note_on channel=10 note=62 velocity=106 time=0
EXTRACT: note_off channel=2 note=29 velocity=0 time=0.012885208333333334
EXTRACT: note_on channel=2 note=31 velocity=110 time=0
EXTRACT: note_off channel=4 note=60 velocity=0 time=0
EXTRACT: note_off channel=4 note=65 velocity=0 time=0
EXTRACT: note_off channel=10 note=63 velocity=0 time=0
EXTRACT: note_on channel=4 note=67 velocity=111 time=0.012885208333333334
EXTRACT: note_on channel=4 note=62 velocity=104 time=0
EXTRACT: note_off channel=9 note=44 velocity=0 time=0.025770416666666667
EXTRACT: note_off channel=9 note=42 velocity=0 time=0
EXTRACT: note_off channel=9 note=70 velocity=0 time=0
EXTRACT: note_on channel=9 note=36 velocity=93 time=0.09019645833333334
EXTRACT: note_on channel=9 note=70 velocity=10 time=0
EXTRACT: note_off channel=9 note=70 velocity=0 time=0.06442604166666667
EXTRACT: note_off channel=9 note=36 velocity=0 time=0
EXTRACT: note_off channel=10 note=62 velocity=0 time=0.025770416666666667
EXTRACT: note_off channel=3 note=59 velocity=0 time=0.038655625
EXTRACT: note_off channel=3 note=62 velocity=0 time=0
EXTRACT: note_off channel=3 note=55 velocity=0 time=0.025770416666666667
EXTRACT: note_on channel=9 note=36 velocity=123 time=0
EXTRACT: note_on channel=9 note=70 velocity=24 time=0.012885208333333334
EXTRACT: note_on channel=9 note=42 velocity=38 time=0
EXTRACT: note_on channel=10 note=63 velocity=95 time=0
EXTRACT: note_off channel=2 note=31 velocity=0 time=0.051540833333333334
EXTRACT: note_off channel=9 note=42 velocity=0 time=0
EXTRACT: note_off channel=9 note=70 velocity=0 time=0
EXTRACT: note_off channel=9 note=36 velocity=0 time=0
EXTRACT: note_off channel=10 note=63 velocity=0 time=0.051540833333333334
EXTRACT: note_on channel=2 note=31 velocity=125 time=0.038655625
EXTRACT: note_on channel=9 note=70 velocity=64 time=0
EXTRACT: note_on channel=10 note=62 velocity=115 time=0
EXTRACT: note_off channel=9 note=70 velocity=0 time=0.06442604166666667
EXTRACT: note_on channel=9 note=40 velocity=100 time=0.09019645833333334
EXTRACT: note_on channel=9 note=90 velocity=127 time=0.012885208333333334
EXTRACT: note_on channel=9 note=44 velocity=71 time=0
EXTRACT: note_on channel=9 note=70 velocity=110 time=0
EXTRACT: note_on channel=9 note=42 velocity=71 time=0
EXTRACT: note_off channel=10 note=62 velocity=0 time=0.012885208333333334
EXTRACT: note_off channel=9 note=42 velocity=0 time=0.038655625
EXTRACT: note_off channel=9 note=70 velocity=0 time=0
EXTRACT: note_off channel=9 note=44 velocity=0 time=0
EXTRACT: note_off channel=9 note=90 velocity=0 time=0.07731125
EXTRACT: note_off channel=9 note=40 velocity=0 time=0
EXTRACT: note_on channel=9 note=36 velocity=110 time=0.012885208333333334
EXTRACT: note_on channel=9 note=70 velocity=10 time=0
EXTRACT: note_on channel=10 note=60 velocity=115 time=0.012885208333333334
EXTRACT: note_off channel=9 note=70 velocity=0 time=0.051540833333333334
EXTRACT: note_off channel=9 note=36 velocity=0 time=0
EXTRACT: note_off channel=2 note=31 velocity=0 time=0.038655625
EXTRACT: note_on channel=9 note=70 velocity=22 time=0.051540833333333334
EXTRACT: note_on channel=9 note=42 velocity=42 time=0
EXTRACT: note_on channel=2 note=31 velocity=125 time=0.012885208333333334
EXTRACT: note_off channel=9 note=42 velocity=0 time=0.051540833333333334
EXTRACT: note_off channel=9 note=70 velocity=0 time=0
EXTRACT: note_on channel=9 note=36 velocity=75 time=0.09019645833333334
EXTRACT: note_on channel=9 note=70 velocity=67 time=0
EXTRACT: note_off channel=9 note=70 velocity=0 time=0.06442604166666667
EXTRACT: note_off channel=9 note=36 velocity=0 time=0
EXTRACT: note_on channel=3 note=60 velocity=41 time=0.038655625
EXTRACT: note_on channel=3 note=63 velocity=34 time=0
EXTRACT: note_off channel=2 note=31 velocity=0 time=0.012885208333333334
EXTRACT: note_on channel=3 note=55 velocity=40 time=0
EXTRACT: note_off channel=4 note=62 velocity=0 time=0.038655625
EXTRACT: note_off channel=4 note=67 velocity=0 time=0
EXTRACT: note_on channel=4 note=63 velocity=111 time=0.012885208333333334
EXTRACT: note_on channel=4 note=60 velocity=104 time=0
EXTRACT: note_on channel=2 note=36 velocity=121 time=0.012885208333333334
EXTRACT: note_on channel=9 note=36 velocity=110 time=0
EXTRACT: note_on channel=9 note=70 velocity=107 time=0
EXTRACT: note_on channel=9 note=42 velocity=69 time=0
EXTRACT: note_on channel=9 note=44 velocity=69 time=0
EXTRACT: note_off channel=9 note=70 velocity=0 time=0.038655625
EXTRACT: note_off channel=9 note=36 velocity=0 time=0
EXTRACT: note_off channel=3 note=55 velocity=0 time=0.012885208333333334
EXTRACT: note_off channel=3 note=63 velocity=0 time=0.012885208333333334
EXTRACT: note_off channel=3 note=60 velocity=0 time=0
EXTRACT: note_off channel=9 note=44 velocity=0 time=0.051540833333333334
EXTRACT: note_off channel=9 note=42 velocity=0 time=0
EXTRACT: note_on channel=9 note=70 velocity=8 time=0.012885208333333334
EXTRACT: note_off channel=9 note=70 velocity=0 time=0.06442604166666667
EXTRACT: note_on channel=9 note=70 velocity=22 time=0.09019645833333334
EXTRACT: note_on channel=9 note=42 velocity=36 time=0
EXTRACT: note_off channel=9 note=42 velocity=0 time=0.06442604166666667
EXTRACT: note_off channel=9 note=70 velocity=0 time=0
EXTRACT: note_off channel=2 note=36 velocity=0 time=0.06442604166666667
EXTRACT: note_on channel=9 note=36 velocity=110 time=0.025770416666666667
EXTRACT: note_on channel=9 note=70 velocity=60 time=0
EXTRACT: note_on channel=2 note=36 velocity=125 time=0.012885208333333334
EXTRACT: note_off channel=9 note=70 velocity=0 time=0.051540833333333334
EXTRACT: note_off channel=9 note=36 velocity=0 time=0
EXTRACT: note_on channel=9 note=40 velocity=100 time=0.09019645833333334
EXTRACT: note_on channel=9 note=90 velocity=127 time=0
EXTRACT: note_on channel=9 note=44 velocity=71 time=0.012885208333333334
EXTRACT: note_on channel=9 note=70 velocity=113 time=0
EXTRACT: note_on channel=9 note=49 velocity=73 time=0
EXTRACT: note_off channel=9 note=49 velocity=0 time=0.051540833333333334
EXTRACT: note_off channel=9 note=70 velocity=0 time=0
EXTRACT: note_off channel=9 note=44 velocity=0 time=0
EXTRACT: note_off channel=2 note=36 velocity=0 time=0.07731125
EXTRACT: note_off channel=9 note=90 velocity=0 time=0
EXTRACT: note_off channel=9 note=40 velocity=0 time=0
EXTRACT: note_on channel=9 note=70 velocity=10 time=0.012885208333333334
EXTRACT: note_off channel=9 note=70 velocity=0 time=0.06442604166666667
EXTRACT: note_on channel=9 note=70 velocity=24 time=0.09019645833333334
EXTRACT: note_off channel=9 note=70 velocity=0 time=0.06442604166666667
EXTRACT: note_on channel=9 note=36 velocity=110 time=0.09019645833333334
EXTRACT: note_on channel=9 note=70 velocity=64 time=0
EXTRACT: note_off channel=9 note=70 velocity=0 time=0.06442604166666667
EXTRACT: note_off channel=9 note=36 velocity=0 time=0
EXTRACT: note_on channel=9 note=40 velocity=100 time=0.09019645833333334
EXTRACT: note_on channel=9 note=90 velocity=125 time=0
EXTRACT: note_on channel=2 note=36 velocity=110 time=0.012885208333333334
EXTRACT: note_on channel=4 note=60 velocity=116 time=0
EXTRACT: note_on channel=9 note=70 velocity=110 time=0
EXTRACT: note_on channel=9 note=44 velocity=40 time=0
EXTRACT: note_off channel=4 note=60 velocity=0 time=0.051540833333333334
EXTRACT: note_off channel=9 note=44 velocity=0 time=0
EXTRACT: note_off channel=9 note=70 velocity=0 time=0
EXTRACT: note_off channel=9 note=90 velocity=0 time=0
EXTRACT: note_off channel=9 note=40 velocity=0 time=0
EXTRACT: note_on channel=9 note=70 velocity=10 time=0.09019645833333334
EXTRACT: note_off channel=9 note=70 velocity=0 time=0.06442604166666667
EXTRACT: note_off channel=10 note=60 velocity=0 time=0.06442604166666667
EXTRACT: note_on channel=9 note=40 velocity=100 time=0.025770416666666667
EXTRACT: note_on channel=9 note=90 velocity=123 time=0
EXTRACT: note_on channel=9 note=70 velocity=24 time=0
EXTRACT: note_off channel=2 note=36 velocity=0 time=0.06442604166666667
EXTRACT: note_off channel=9 note=70 velocity=0 time=0
EXTRACT: note_off channel=9 note=90 velocity=0 time=0
EXTRACT: note_off channel=9 note=40 velocity=0 time=0
EXTRACT: note_on channel=10 note=60 velocity=98 time=0.06442604166666667
EXTRACT: note_on channel=2 note=36 velocity=125 time=0.025770416666666667
EXTRACT: note_on channel=4 note=60 velocity=113 time=0
EXTRACT: note_on channel=9 note=36 velocity=110 time=0
EXTRACT: note_on channel=9 note=70 velocity=64 time=0
EXTRACT: note_off channel=10 note=60 velocity=0 time=0.038655625
EXTRACT: note_off channel=4 note=60 velocity=0 time=0.012885208333333334
EXTRACT: note_off channel=9 note=70 velocity=0 time=0.012885208333333334
EXTRACT: note_off channel=9 note=36 velocity=0 time=0
EXTRACT: note_on channel=9 note=40 velocity=40 time=0.012885208333333334
EXTRACT: note_off channel=9 note=40 velocity=0 time=0.012885208333333334
EXTRACT: note_on channel=9 note=40 velocity=60 time=0.025770416666666667
EXTRACT: note_off channel=9 note=40 velocity=0 time=0.012885208333333334
EXTRACT: note_on channel=10 note=60 velocity=98 time=0.012885208333333334
EXTRACT: note_on channel=9 note=40 velocity=100 time=0.012885208333333334
EXTRACT: note_on channel=9 note=90 velocity=127 time=0.012885208333333334
EXTRACT: note_on channel=9 note=44 velocity=71 time=0
EXTRACT: note_on channel=9 note=70 velocity=110 time=0
EXTRACT: note_off channel=9 note=70 velocity=0 time=0.051540833333333334
EXTRACT: note_off channel=9 note=44 velocity=0 time=0
EXTRACT: note_off channel=10 note=60 velocity=0 time=0.051540833333333334
EXTRACT: note_on channel=10 note=55 velocity=127 time=0.012885208333333334
EXTRACT: note_off channel=9 note=90 velocity=0 time=0.012885208333333334
EXTRACT: note_off channel=9 note=40 velocity=0 time=0
EXTRACT: note_on channel=9 note=47 velocity=110 time=0.012885208333333334
EXTRACT: note_on channel=9 note=70 velocity=10 time=0
EXTRACT: note_off channel=9 note=70 velocity=0 time=0.06442604166666667
EXTRACT: note_off channel=9 note=47 velocity=0 time=0
EXTRACT: note_off channel=2 note=36 velocity=0 time=0.038655625
EXTRACT: note_off channel=10 note=55 velocity=0 time=0.038655625
EXTRACT: note_on channel=10 note=60 velocity=91 time=0
EXTRACT: note_on channel=2 note=36 velocity=125 time=0.012885208333333334
EXTRACT: note_on channel=9 note=45 velocity=110 time=0
EXTRACT: note_on channel=9 note=70 velocity=22 time=0
EXTRACT: note_on channel=4 note=60 velocity=96 time=0.012885208333333334
EXTRACT: note_off channel=4 note=60 velocity=0 time=0.025770416666666667
EXTRACT: note_off channel=9 note=70 velocity=0 time=0.025770416666666667
EXTRACT: note_off channel=9 note=45 velocity=0 time=0
EXTRACT: note_off channel=10 note=60 velocity=0 time=0.07731125
EXTRACT: note_on channel=10 note=67 velocity=95 time=0
EXTRACT: note_on channel=4 note=60 velocity=81 time=0.012885208333333334
EXTRACT: note_on channel=9 note=36 velocity=91 time=0
EXTRACT: note_on channel=9 note=55 velocity=85 time=0
EXTRACT: note_on channel=9 note=70 velocity=67 time=0
EXTRACT: note_off channel=4 note=63 velocity=0 time=0.025770416666666667
EXTRACT: note_off channel=4 note=60 velocity=0 time=0.012885208333333334
EXTRACT: note_on channel=3 note=56 velocity=41 time=0.025770416666666667
EXTRACT: note_on channel=3 note=53 velocity=41 time=0
EXTRACT: note_off channel=9 note=70 velocity=0 time=0
EXTRACT: note_off channel=9 note=55 velocity=0 time=0
EXTRACT: note_off channel=9 note=36 velocity=0 time=0
EXTRACT: note_on channel=3 note=48 velocity=57 time=0.012885208333333334
EXTRACT: note_off channel=2 note=36 velocity=0 time=0.038655625
EXTRACT: note_off channel=4 note=60 velocity=0 time=0
EXTRACT: note_on channel=10 note=65 velocity=88 time=0.025770416666666667
EXTRACT: note_on channel=4 note=65 velocity=111 time=0.025770416666666667
EXTRACT: program_change channel=9 program=0 time=0
EXTRACT: note_on channel=9 note=49 velocity=90 time=0
EXTRACT: program_change channel=9 program=32 time=0
EXTRACT: note_off channel=9 note=49 velocity=0 time=0.0016106510416666667
EXTRACT: note_on channel=4 note=60 velocity=104 time=0.011274557291666668
EXTRACT: note_on channel=9 note=36 velocity=127 time=0
EXTRACT: note_on channel=9 note=44 velocity=69 time=0
EXTRACT: note_off channel=10 note=67 velocity=0 time=0
EXTRACT: note_on channel=2 note=29 velocity=127 time=0.012885208333333334
EXTRACT: note_on channel=9 note=70 velocity=107 time=0
EXTRACT: note_on channel=9 note=42 velocity=69 time=0
EXTRACT: note_off channel=9 note=70 velocity=0 time=0.025770416666666667
EXTRACT: note_off channel=3 note=48 velocity=0 time=0.012885208333333334
EXTRACT: note_off channel=3 note=56 velocity=0 time=0
EXTRACT: note_off channel=3 note=53 velocity=0 time=0.012885208333333334
EXTRACT: note_off channel=9 note=42 velocity=0 time=0.051540833333333334
EXTRACT: note_off channel=9 note=44 velocity=0 time=0
EXTRACT: note_off channel=9 note=36 velocity=0 time=0
EXTRACT: note_on channel=9 note=70 velocity=8 time=0.012885208333333334
EXTRACT: note_off channel=9 note=70 velocity=0 time=0.06442604166666667
EXTRACT: note_on channel=9 note=70 velocity=22 time=0.09019645833333334
EXTRACT: note_on channel=9 note=42 velocity=36 time=0
EXTRACT: note_off channel=9 note=42 velocity=0 time=0.06442604166666667
EXTRACT: note_off channel=9 note=70 velocity=0 time=0
EXTRACT: note_off channel=2 note=29 velocity=0 time=0.06442604166666667
EXTRACT: note_on channel=2 note=29 velocity=125 time=0.025770416666666667
EXTRACT: note_on channel=9 note=36 velocity=99 time=0
EXTRACT: note_on channel=9 note=70 velocity=60 time=0
EXTRACT: note_off channel=9 note=70 velocity=0 time=0.06442604166666667
EXTRACT: note_off channel=9 note=36 velocity=0 time=0
EXTRACT: note_on channel=9 note=40 velocity=100 time=0.09019645833333334
EXTRACT: note_on channel=9 note=90 velocity=127 time=0.012885208333333334
EXTRACT: note_on channel=9 note=44 velocity=71 time=0
EXTRACT: note_on channel=9 note=70 velocity=113 time=0
EXTRACT: note_on channel=9 note=42 velocity=71 time=0
EXTRACT: note_off channel=9 note=42 velocity=0 time=0.051540833333333334
EXTRACT: note_off channel=9 note=70 velocity=0 time=0
EXTRACT: note_off channel=9 note=44 velocity=0 time=0
EXTRACT: note_off channel=2 note=29 velocity=0 time=0.07731125
EXTRACT: note_off channel=9 note=90 velocity=0 time=0
EXTRACT: note_off channel=9 note=40 velocity=0 time=0
EXTRACT: note_on channel=9 note=70 velocity=10 time=0.012885208333333334
EXTRACT: note_off channel=10 note=65 velocity=0 time=0
EXTRACT: note_off channel=9 note=70 velocity=0 time=0.06442604166666667
EXTRACT: note_on channel=10 note=63 velocity=93 time=0.07731125
EXTRACT: note_on channel=9 note=70 velocity=24 time=0.012885208333333334
EXTRACT: note_on channel=9 note=42 velocity=40 time=0
EXTRACT: note_off channel=9 note=42 velocity=0 time=0.06442604166666667
EXTRACT: note_off channel=9 note=70 velocity=0 time=0
EXTRACT: note_off channel=10 note=63 velocity=0 time=0.06442604166666667
EXTRACT: note_on channel=10 note=62 velocity=106 time=0.012885208333333334
EXTRACT: note_on channel=9 note=70 velocity=64 time=0.012885208333333334
EXTRACT: note_on channel=3 note=62 velocity=48 time=0.051540833333333334
EXTRACT: note_on channel=3 note=55 velocity=43 time=0.012885208333333334
EXTRACT: note_on channel=3 note=59 velocity=54 time=0
EXTRACT: note_off channel=9 note=70 velocity=0 time=0
EXTRACT: note_off channel=10 note=62 velocity=0 time=0.012885208333333334
EXTRACT: note_off channel=4 note=60 velocity=0 time=0.025770416666666667
EXTRACT: note_off channel=4 note=65 velocity=0 time=0
EXTRACT: note_on channel=4 note=67 velocity=111 time=0
EXTRACT: note_on channel=4 note=62 velocity=104 time=0
EXTRACT: note_on channel=10 note=62 velocity=115 time=0.038655625
EXTRACT: note_on channel=9 note=70 velocity=110 time=0.012885208333333334
EXTRACT: note_on channel=2 note=31 velocity=110 time=0.012885208333333334
EXTRACT: note_on channel=9 note=42 velocity=69 time=0
EXTRACT: note_on channel=9 note=44 velocity=69 time=0
EXTRACT: note_off channel=9 note=44 velocity=0 time=0.051540833333333334
EXTRACT: note_off channel=9 note=42 velocity=0 time=0
EXTRACT: note_off channel=9 note=70 velocity=0 time=0
EXTRACT: note_on channel=9 note=36 velocity=93 time=0.09019645833333334
EXTRACT: note_on channel=9 note=70 velocity=10 time=0
EXTRACT: note_off channel=9 note=70 velocity=0 time=0.06442604166666667
EXTRACT: note_off channel=9 note=36 velocity=0 time=0
EXTRACT: note_on channel=9 note=36 velocity=123 time=0.09019645833333334
EXTRACT: note_on channel=9 note=70 velocity=24 time=0
EXTRACT: note_on channel=9 note=42 velocity=38 time=0.012885208333333334
EXTRACT: note_off channel=2 note=31 velocity=0 time=0.051540833333333334
EXTRACT: note_off channel=9 note=42 velocity=0 time=0
EXTRACT: note_off channel=9 note=70 velocity=0 time=0
EXTRACT: note_off channel=9 note=36 velocity=0 time=0
EXTRACT: note_on channel=2 note=31 velocity=125 time=0.09019645833333334
EXTRACT: note_on channel=9 note=70 velocity=64 time=0
EXTRACT: note_off channel=3 note=59 velocity=0 time=0.06442604166666667
EXTRACT: note_off channel=9 note=70 velocity=0 time=0
EXTRACT: note_off channel=3 note=62 velocity=0 time=0.038655625
EXTRACT: note_on channel=9 note=40 velocity=100 time=0.051540833333333334
EXTRACT: note_on channel=9 note=90 velocity=127 time=0.012885208333333334
EXTRACT: note_on channel=9 note=44 velocity=71 time=0
EXTRACT: note_on channel=9 note=70 velocity=110 time=0
EXTRACT: note_on channel=9 note=42 velocity=71 time=0
EXTRACT: note_off channel=3 note=55 velocity=0 time=0.025770416666666667
EXTRACT: note_off channel=9 note=42 velocity=0 time=0.025770416666666667
EXTRACT: note_off channel=9 note=70 velocity=0 time=0
EXTRACT: note_off channel=9 note=44 velocity=0 time=0
EXTRACT: note_off channel=9 note=90 velocity=0 time=0.07731125
EXTRACT: note_off channel=9 note=40 velocity=0 time=0
EXTRACT: note_on channel=9 note=36 velocity=110 time=0.012885208333333334
EXTRACT: note_on channel=9 note=70 velocity=10 time=0
EXTRACT: note_off channel=10 note=62 velocity=0 time=0.051540833333333334
EXTRACT: note_off channel=9 note=70 velocity=0 time=0.012885208333333334
EXTRACT: note_off channel=9 note=36 velocity=0 time=0
EXTRACT: note_off channel=2 note=31 velocity=0 time=0.038655625
EXTRACT: note_on channel=9 note=70 velocity=22 time=0.051540833333333334
EXTRACT: note_on channel=9 note=42 velocity=42 time=0
EXTRACT: note_on channel=2 note=31 velocity=125 time=0.012885208333333334
EXTRACT: note_on channel=10 note=62 velocity=106 time=0
EXTRACT: note_off channel=9 note=42 velocity=0 time=0.051540833333333334
EXTRACT: note_off channel=9 note=70 velocity=0 time=0
EXTRACT: note_on channel=9 note=36 velocity=75 time=0.09019645833333334
EXTRACT: note_on channel=9 note=70 velocity=67 time=0
EXTRACT: note_on channel=10 note=63 velocity=82 time=0
EXTRACT: note_off channel=10 note=62 velocity=0 time=0.012885208333333334
EXTRACT: note_off channel=9 note=70 velocity=0 time=0.051540833333333334
EXTRACT: note_off channel=9 note=36 velocity=0 time=0
EXTRACT: note_on channel=3 note=60 velocity=51 time=0.012885208333333334
EXTRACT: note_on channel=3 note=63 velocity=54 time=0.012885208333333334
EXTRACT: note_on channel=3 note=55 velocity=44 time=0
EXTRACT: note_off channel=2 note=31 velocity=0 time=0.025770416666666667
EXTRACT: note_off channel=4 note=62 velocity=0 time=0.012885208333333334
EXTRACT: note_off channel=4 note=67 velocity=0 time=0
EXTRACT: note_on channel=4 note=63 velocity=111 time=0
EXTRACT: note_on channel=4 note=60 velocity=104 time=0
EXTRACT: note_on channel=9 note=36 velocity=110 time=0.025770416666666667
EXTRACT: note_on channel=2 note=36 velocity=121 time=0.012885208333333334
EXTRACT: note_on channel=9 note=70 velocity=107 time=0
EXTRACT: note_on channel=9 note=42 velocity=69 time=0
EXTRACT: note_on channel=9 note=44 velocity=69 time=0
EXTRACT: note_on channel=10 note=60 velocity=106 time=0
EXTRACT: note_off channel=10 note=63 velocity=0 time=0.025770416666666667
EXTRACT: note_off channel=3 note=63 velocity=0 time=0.012885208333333334
EXTRACT: note_off channel=3 note=55 velocity=0 time=0.012885208333333334
EXTRACT: note_off channel=9 note=70 velocity=0 time=0
EXTRACT: note_off channel=9 note=36 velocity=0 time=0
EXTRACT: note_off channel=3 note=60 velocity=0 time=0.012885208333333334
EXTRACT: note_off channel=9 note=44 velocity=0 time=0.06442604166666667
EXTRACT: note_off channel=9 note=42 velocity=0 time=0
EXTRACT: note_on channel=9 note=70 velocity=8 time=0.012885208333333334
EXTRACT: note_off channel=9 note=70 velocity=0 time=0.06442604166666667
EXTRACT: note_on channel=9 note=70 velocity=22 time=0.09019645833333334
EXTRACT: note_on channel=9 note=42 velocity=36 time=0
EXTRACT: note_off channel=9 note=42 velocity=0 time=0.06442604166666667
EXTRACT: note_off channel=9 note=70 velocity=0 time=0
EXTRACT: note_off channel=2 note=36 velocity=0 time=0.06442604166666667
EXTRACT: note_on channel=2 note=36 velocity=125 time=0.025770416666666667
EXTRACT: note_on channel=9 note=36 velocity=110 time=0
EXTRACT: note_on channel=9 note=70 velocity=60 time=0
EXTRACT: note_off channel=9 note=70 velocity=0 time=0.06442604166666667
EXTRACT: note_off channel=9 note=36 velocity=0 time=0
EXTRACT: note_on channel=9 note=40 velocity=100 time=0.09019645833333334
EXTRACT: note_on channel=9 note=90 velocity=127 time=0.012885208333333334
EXTRACT: note_on channel=9 note=44 velocity=71 time=0
EXTRACT: note_on channel=9 note=70 velocity=113 time=0
EXTRACT: note_on channel=9 note=42 velocity=71 time=0
EXTRACT: note_off channel=9 note=42 velocity=0 time=0.051540833333333334
EXTRACT: note_off channel=9 note=70 velocity=0 time=0
EXTRACT: note_off channel=9 note=44 velocity=0 time=0
EXTRACT: note_off channel=2 note=36 velocity=0 time=0.07731125
EXTRACT: note_off channel=9 note=90 velocity=0 time=0
EXTRACT: note_off channel=9 note=40 velocity=0 time=0
EXTRACT: note_on channel=9 note=70 velocity=10 time=0.012885208333333334
EXTRACT: note_off channel=9 note=70 velocity=0 time=0.06442604166666667
EXTRACT: note_on channel=9 note=70 velocity=24 time=0.09019645833333334
EXTRACT: note_on channel=9 note=42 velocity=40 time=0
EXTRACT: note_off channel=9 note=42 velocity=0 time=0.06442604166666667
EXTRACT: note_off channel=9 note=70 velocity=0 time=0
EXTRACT: note_on channel=9 note=70 velocity=64 time=0.09019645833333334
EXTRACT: note_off channel=9 note=70 velocity=0 time=0.06442604166666667
EXTRACT: note_on channel=9 note=70 velocity=110 time=0.09019645833333334
EXTRACT: note_on channel=9 note=42 velocity=69 time=0
EXTRACT: note_on channel=2 note=36 velocity=110 time=0.012885208333333334
EXTRACT: note_on channel=9 note=44 velocity=69 time=0
EXTRACT: note_off channel=9 note=44 velocity=0 time=0.051540833333333334
EXTRACT: note_off channel=9 note=42 velocity=0 time=0
EXTRACT: note_off channel=9 note=70 velocity=0 time=0
EXTRACT: note_on channel=9 note=36 velocity=110 time=0.09019645833333334
EXTRACT: note_on channel=9 note=70 velocity=10 time=0
EXTRACT: note_off channel=9 note=70 velocity=0 time=0.06442604166666667
EXTRACT: note_off channel=9 note=36 velocity=0 time=0
EXTRACT: note_on channel=9 note=36 velocity=110 time=0.09019645833333334
EXTRACT: note_on channel=9 note=70 velocity=24 time=0
EXTRACT: note_on channel=9 note=42 velocity=38 time=0.012885208333333334
EXTRACT: note_off channel=10 note=60 velocity=0 time=0
EXTRACT: note_off channel=9 note=42 velocity=0 time=0.051540833333333334
EXTRACT: note_off channel=9 note=70 velocity=0 time=0
EXTRACT: note_off channel=9 note=36 velocity=0 time=0
EXTRACT: note_on channel=10 note=60 velocity=92 time=0.06442604166666667
EXTRACT: note_off channel=2 note=36 velocity=0 time=0.012885208333333334
EXTRACT: note_on channel=2 note=31 velocity=110 time=0.012885208333333334
EXTRACT: note_on channel=9 note=70 velocity=64 time=0
EXTRACT: note_off channel=10 note=60 velocity=0 time=0.038655625
EXTRACT: note_off channel=9 note=70 velocity=0 time=0.025770416666666667
EXTRACT: note_off channel=2 note=31 velocity=0 time=0.07731125
EXTRACT: note_on channel=10 note=60 velocity=106 time=0
EXTRACT: note_on channel=9 note=40 velocity=100 time=0.025770416666666667
EXTRACT: note_on channel=9 note=90 velocity=127 time=0
EXTRACT: note_on channel=9 note=44 velocity=71 time=0
EXTRACT: note_on channel=9 note=70 velocity=110 time=0
EXTRACT: note_on channel=9 note=42 velocity=71 time=0
EXTRACT: note_on channel=2 note=34 velocity=110 time=0.012885208333333334
EXTRACT: note_off channel=9 note=42 velocity=0 time=0.038655625
EXTRACT: note_off channel=9 note=70 velocity=0 time=0
EXTRACT: note_off channel=9 note=44 velocity=0 time=0
EXTRACT: note_off channel=2 note=34 velocity=0 time=0.07731125
EXTRACT: note_off channel=9 note=90 velocity=0 time=0
EXTRACT: note_off channel=9 note=40 velocity=0 time=0
EXTRACT: note_off channel=10 note=60 velocity=0 time=0
EXTRACT: note_on channel=2 note=36 velocity=110 time=0.012885208333333334
EXTRACT: note_on channel=9 note=70 velocity=10 time=0
EXTRACT: note_on channel=10 note=58 velocity=110 time=0.012885208333333334
EXTRACT: note_off channel=9 note=70 velocity=0 time=0.051540833333333334
EXTRACT: note_on channel=9 note=70 velocity=22 time=0.09019645833333334
EXTRACT: note_on channel=9 note=42 velocity=42 time=0
EXTRACT: note_on channel=10 note=60 velocity=106 time=0
EXTRACT: note_off channel=10 note=58 velocity=0 time=0.012885208333333334
EXTRACT: note_off channel=9 note=42 velocity=0 time=0.051540833333333334
EXTRACT: note_off channel=9 note=70 velocity=0 time=0
EXTRACT: note_off channel=10 note=60 velocity=0 time=0.07731125
EXTRACT: note_on channel=3 note=56 velocity=25 time=0.012885208333333334
EXTRACT: note_on channel=9 note=70 velocity=67 time=0
EXTRACT: note_on channel=3 note=53 velocity=46 time=0.012885208333333334
EXTRACT: note_on channel=10 note=67 velocity=77 time=0
EXTRACT: note_on channel=3 note=48 velocity=55 time=0.012885208333333334
EXTRACT: note_off channel=2 note=36 velocity=0 time=0.038655625
EXTRACT: note_off channel=4 note=60 velocity=0 time=0
EXTRACT: note_off channel=4 note=63 velocity=0 time=0
EXTRACT: note_on channel=4 note=65 velocity=111 time=0
EXTRACT: note_on channel=4 note=60 velocity=104 time=0
EXTRACT: note_off channel=9 note=70 velocity=0 time=0.012885208333333334
EXTRACT: note_off channel=3 note=56 velocity=0 time=0.06442604166666667
EXTRACT: note_on channel=10 note=65 velocity=89 time=0
EXTRACT: note_on channel=9 note=36 velocity=127 time=0.012885208333333334
EXTRACT: note_on channel=2 note=29 velocity=127 time=0.012885208333333334
EXTRACT: note_off channel=3 note=48 velocity=0 time=0
EXTRACT: note_off channel=3 note=53 velocity=0 time=0
EXTRACT: note_on channel=9 note=44 velocity=69 time=0
EXTRACT: note_on channel=9 note=70 velocity=107 time=0
EXTRACT: note_on channel=9 note=42 velocity=69 time=0
EXTRACT: note_off channel=10 note=67 velocity=0 time=0.038655625
EXTRACT: note_off channel=9 note=70 velocity=0 time=0.012885208333333334
EXTRACT: note_off channel=9 note=42 velocity=0 time=0.07731125
EXTRACT: note_off channel=9 note=44 velocity=0 time=0
EXTRACT: note_off channel=9 note=36 velocity=0 time=0
EXTRACT: note_on channel=9 note=70 velocity=8 time=0.012885208333333334
EXTRACT: note_off channel=9 note=70 velocity=0 time=0.06442604166666667
EXTRACT: note_on channel=9 note=70 velocity=22 time=0.09019645833333334
EXTRACT: note_on channel=9 note=42 velocity=36 time=0
EXTRACT: note_off channel=9 note=42 velocity=0 time=0.06442604166666667
EXTRACT: note_off channel=9 note=70 velocity=0 time=0
EXTRACT: note_off channel=2 note=29 velocity=0 time=0.06442604166666667
EXTRACT: note_on channel=9 note=36 velocity=99 time=0.025770416666666667
EXTRACT: note_on channel=9 note=70 velocity=60 time=0
EXTRACT: note_on channel=2 note=29 velocity=125 time=0.012885208333333334
EXTRACT: note_off channel=9 note=70 velocity=0 time=0.051540833333333334
EXTRACT: note_off channel=9 note=36 velocity=0 time=0
EXTRACT: note_on channel=9 note=40 velocity=100 time=0.09019645833333334
EXTRACT: note_on channel=9 note=90 velocity=127 time=0.012885208333333334
EXTRACT: note_on channel=9 note=44 velocity=71 time=0
EXTRACT: note_on channel=9 note=70 velocity=113 time=0
EXTRACT: note_on channel=9 note=42 velocity=71 time=0
EXTRACT: note_off channel=9 note=42 velocity=0 time=0.051540833333333334
EXTRACT: note_off channel=9 note=70 velocity=0 time=0
EXTRACT: note_off channel=9 note=44 velocity=0 time=0
EXTRACT: note_off channel=2 note=29 velocity=0 time=0.07731125
EXTRACT: note_off channel=9 note=90 velocity=0 time=0
EXTRACT: note_off channel=9 note=40 velocity=0 time=0
EXTRACT: note_on channel=9 note=70 velocity=10 time=0.012885208333333334
EXTRACT: note_off channel=9 note=70 velocity=0 time=0.06442604166666667
EXTRACT: note_off channel=10 note=65 velocity=0 time=0.038655625
EXTRACT: note_on channel=9 note=70 velocity=24 time=0.051540833333333334
EXTRACT: note_on channel=9 note=42 velocity=40 time=0
EXTRACT: note_on channel=10 note=62 velocity=125 time=0.025770416666666667
EXTRACT: note_off channel=9 note=42 velocity=0 time=0.038655625
EXTRACT: note_off channel=9 note=70 velocity=0 time=0
EXTRACT: note_on channel=9 note=70 velocity=64 time=0.09019645833333334
EXTRACT: note_on channel=3 note=62 velocity=66 time=0.051540833333333334
EXTRACT: note_on channel=3 note=59 velocity=72 time=0.012885208333333334
EXTRACT: note_on channel=3 note=55 velocity=44 time=0
EXTRACT: note_off channel=9 note=70 velocity=0 time=0
EXTRACT: note_off channel=10 note=62 velocity=0 time=0.012885208333333334
EXTRACT: note_off channel=4 note=60 velocity=0 time=0.025770416666666667
EXTRACT: note_off channel=4 note=65 velocity=0 time=0
EXTRACT: note_on channel=4 note=67 velocity=111 time=0
EXTRACT: note_on channel=4 note=62 velocity=104 time=0
EXTRACT: note_on channel=9 note=70 velocity=110 time=0.051540833333333334
EXTRACT: note_on channel=2 note=31 velocity=110 time=0.012885208333333334
EXTRACT: note_on channel=9 note=42 velocity=69 time=0
EXTRACT: note_on channel=9 note=44 velocity=69 time=0
EXTRACT: note_on channel=10 note=62 velocity=115 time=0
EXTRACT: note_off channel=9 note=44 velocity=0 time=0.051540833333333334
EXTRACT: note_off channel=9 note=42 velocity=0 time=0
EXTRACT: note_off channel=9 note=70 velocity=0 time=0
EXTRACT: note_on channel=9 note=36 velocity=93 time=0.09019645833333334
EXTRACT: note_on channel=9 note=70 velocity=10 time=0
EXTRACT: note_off channel=3 note=62 velocity=0 time=0.025770416666666667
EXTRACT: note_off channel=3 note=59 velocity=0 time=0.038655625
EXTRACT: note_off channel=9 note=70 velocity=0 time=0
EXTRACT: note_off channel=9 note=36 velocity=0 time=0
EXTRACT: note_off channel=3 note=55 velocity=0 time=0.025770416666666667
EXTRACT: note_off channel=10 note=62 velocity=0 time=0.012885208333333334
EXTRACT: note_on channel=9 note=36 velocity=123 time=0.051540833333333334
EXTRACT: note_on channel=9 note=70 velocity=24 time=0
EXTRACT: note_on channel=9 note=42 velocity=38 time=0.012885208333333334
EXTRACT: note_on channel=10 note=63 velocity=93 time=0
EXTRACT: note_off channel=2 note=31 velocity=0 time=0.051540833333333334
EXTRACT: note_off channel=9 note=42 velocity=0 time=0
EXTRACT: note_off channel=9 note=70 velocity=0 time=0
EXTRACT: note_off channel=9 note=36 velocity=0 time=0
EXTRACT: note_off channel=10 note=63 velocity=0 time=0.06442604166666667
EXTRACT: note_on channel=2 note=31 velocity=125 time=0.025770416666666667
EXTRACT: note_on channel=9 note=70 velocity=64 time=0
EXTRACT: note_on channel=10 note=62 velocity=127 time=0.012885208333333334
EXTRACT: note_off channel=9 note=70 velocity=0 time=0.051540833333333334
EXTRACT: note_on channel=9 note=40 velocity=100 time=0.09019645833333334
EXTRACT: note_on channel=9 note=90 velocity=127 time=0.012885208333333334
EXTRACT: note_on channel=9 note=44 velocity=71 time=0
EXTRACT: note_on channel=9 note=70 velocity=110 time=0
EXTRACT: note_on channel=9 note=42 velocity=71 time=0
EXTRACT: note_off channel=9 note=42 velocity=0 time=0.051540833333333334
EXTRACT: note_off channel=9 note=70 velocity=0 time=0
EXTRACT: note_off channel=9 note=44 velocity=0 time=0
EXTRACT: note_off channel=9 note=90 velocity=0 time=0.07731125
EXTRACT: note_off channel=9 note=40 velocity=0 time=0
EXTRACT: note_off channel=10 note=62 velocity=0 time=0
EXTRACT: note_on channel=9 note=36 velocity=110 time=0.012885208333333334
EXTRACT: note_on channel=9 note=70 velocity=10 time=0
EXTRACT: note_on channel=10 note=60 velocity=115 time=0.025770416666666667
EXTRACT: note_off channel=9 note=70 velocity=0 time=0.038655625
EXTRACT: note_off channel=9 note=36 velocity=0 time=0
EXTRACT: note_off channel=2 note=31 velocity=0 time=0.038655625
EXTRACT: note_on channel=9 note=70 velocity=22 time=0.051540833333333334
EXTRACT: note_on channel=9 note=42 velocity=42 time=0
EXTRACT: note_on channel=2 note=31 velocity=125 time=0.012885208333333334
EXTRACT: note_off channel=9 note=42 velocity=0 time=0.051540833333333334
EXTRACT: note_off channel=9 note=70 velocity=0 time=0
EXTRACT: note_on channel=9 note=36 velocity=75 time=0.09019645833333334
EXTRACT: note_on channel=9 note=70 velocity=67 time=0
EXTRACT: note_off channel=9 note=70 velocity=0 time=0.06442604166666667
EXTRACT: note_off channel=9 note=36 velocity=0 time=0
EXTRACT: note_on channel=3 note=60 velocity=50 time=0.012885208333333334
EXTRACT: note_on channel=3 note=63 velocity=48 time=0
EXTRACT: note_on channel=3 note=55 velocity=55 time=0
EXTRACT: note_off channel=2 note=31 velocity=0 time=0.038655625
EXTRACT: note_off channel=4 note=62 velocity=0 time=0
EXTRACT: note_off channel=4 note=67 velocity=0 time=0
EXTRACT: note_on channel=4 note=63 velocity=111 time=0
EXTRACT: note_on channel=4 note=60 velocity=104 time=0
EXTRACT: note_on channel=9 note=36 velocity=110 time=0.038655625
EXTRACT: note_on channel=2 note=36 velocity=121 time=0.012885208333333334
EXTRACT: note_on channel=9 note=70 velocity=107 time=0
EXTRACT: note_on channel=9 note=42 velocity=69 time=0
EXTRACT: note_on channel=9 note=44 velocity=69 time=0
EXTRACT: note_off channel=3 note=55 velocity=0 time=0.038655625
EXTRACT: note_off channel=9 note=70 velocity=0 time=0.012885208333333334
EXTRACT: note_off channel=9 note=36 velocity=0 time=0
EXTRACT: note_off channel=3 note=63 velocity=0 time=0.012885208333333334
EXTRACT: note_off channel=3 note=60 velocity=0 time=0
EXTRACT: note_off channel=9 note=44 velocity=0 time=0.06442604166666667
EXTRACT: note_off channel=9 note=42 velocity=0 time=0
EXTRACT: note_on channel=9 note=70 velocity=8 time=0.012885208333333334
EXTRACT: note_off channel=9 note=70 velocity=0 time=0.06442604166666667
EXTRACT: note_on channel=9 note=70 velocity=22 time=0.09019645833333334
EXTRACT: note_on channel=9 note=42 velocity=36 time=0
EXTRACT: note_off channel=9 note=42 velocity=0 time=0.06442604166666667
EXTRACT: note_off channel=9 note=70 velocity=0 time=0
EXTRACT: note_off channel=2 note=36 velocity=0 time=0.06442604166666667
EXTRACT: note_on channel=2 note=36 velocity=125 time=0.025770416666666667
EXTRACT: note_on channel=9 note=36 velocity=110 time=0
EXTRACT: note_on channel=9 note=70 velocity=60 time=0
EXTRACT: note_on channel=4 note=60 velocity=92 time=0.012885208333333334
EXTRACT: note_off channel=4 note=60 velocity=0 time=0.051540833333333334
EXTRACT: note_off channel=9 note=70 velocity=0 time=0
EXTRACT: note_off channel=9 note=36 velocity=0 time=0
EXTRACT: note_off channel=2 note=36 velocity=0 time=0.07731125
EXTRACT: note_on channel=9 note=40 velocity=100 time=0.012885208333333334
EXTRACT: note_on channel=9 note=90 velocity=127 time=0
EXTRACT: note_on channel=9 note=44 velocity=71 time=0.012885208333333334
EXTRACT: note_on channel=9 note=70 velocity=113 time=0
EXTRACT: note_on channel=9 note=49 velocity=73 time=0
EXTRACT: note_off channel=9 note=49 velocity=0 time=0.051540833333333334
EXTRACT: note_off channel=9 note=70 velocity=0 time=0
EXTRACT: note_off channel=9 note=44 velocity=0 time=0
EXTRACT: note_off channel=9 note=90 velocity=0 time=0.07731125
EXTRACT: note_off channel=9 note=40 velocity=0 time=0
EXTRACT: note_on channel=9 note=70 velocity=10 time=0.012885208333333334
EXTRACT: note_off channel=9 note=70 velocity=0 time=0.06442604166666667
EXTRACT: note_on channel=9 note=70 velocity=24 time=0.09019645833333334
EXTRACT: note_off channel=9 note=70 velocity=0 time=0.06442604166666667
EXTRACT: note_on channel=9 note=36 velocity=110 time=0.09019645833333334
EXTRACT: note_on channel=9 note=70 velocity=64 time=0
EXTRACT: note_off channel=10 note=60 velocity=0 time=0.025770416666666667
EXTRACT: note_off channel=9 note=70 velocity=0 time=0.038655625
EXTRACT: note_off channel=9 note=36 velocity=0 time=0
EXTRACT: note_on channel=9 note=40 velocity=100 time=0.09019645833333334
EXTRACT: note_on channel=9 note=90 velocity=125 time=0
EXTRACT: note_on channel=2 note=36 velocity=110 time=0.012885208333333334
EXTRACT: note_on channel=4 note=60 velocity=116 time=0
EXTRACT: note_on channel=9 note=70 velocity=110 time=0
EXTRACT: note_on channel=9 note=44 velocity=40 time=0
EXTRACT: note_on channel=10 note=63 velocity=112 time=0.025770416666666667
EXTRACT: note_off channel=4 note=60 velocity=0 time=0.025770416666666667
EXTRACT: note_off channel=9 note=44 velocity=0 time=0
EXTRACT: note_off channel=9 note=70 velocity=0 time=0
EXTRACT: note_off channel=9 note=90 velocity=0 time=0
EXTRACT: note_off channel=9 note=40 velocity=0 time=0
EXTRACT: note_on channel=9 note=70 velocity=10 time=0.09019645833333334
EXTRACT: note_off channel=9 note=70 velocity=0 time=0.06442604166666667
EXTRACT: note_on channel=9 note=40 velocity=100 time=0.09019645833333334
EXTRACT: note_on channel=9 note=90 velocity=123 time=0
EXTRACT: note_on channel=9 note=70 velocity=24 time=0
EXTRACT: note_off channel=2 note=36 velocity=0 time=0.06442604166666667
EXTRACT: note_off channel=9 note=70 velocity=0 time=0
EXTRACT: note_off channel=9 note=90 velocity=0 time=0
EXTRACT: note_off channel=9 note=40 velocity=0 time=0
EXTRACT: note_on channel=2 note=36 velocity=125 time=0.09019645833333334
EXTRACT: note_on channel=4 note=60 velocity=113 time=0
EXTRACT: note_on channel=9 note=36 velocity=110 time=0
EXTRACT: note_on channel=9 note=70 velocity=64 time=0
EXTRACT: note_off channel=10 note=63 velocity=0 time=0.038655625
EXTRACT: note_off channel=4 note=60 velocity=0 time=0.012885208333333334
EXTRACT: note_off channel=9 note=70 velocity=0 time=0.012885208333333334
EXTRACT: note_off channel=9 note=36 velocity=0 time=0
EXTRACT: note_on channel=9 note=40 velocity=40 time=0.012885208333333334
EXTRACT: note_off channel=9 note=40 velocity=0 time=0.012885208333333334
EXTRACT: note_on channel=9 note=40 velocity=60 time=0.025770416666666667
EXTRACT: note_off channel=9 note=40 velocity=0 time=0.012885208333333334
EXTRACT: note_on channel=9 note=40 velocity=100 time=0.025770416666666667
EXTRACT: note_on channel=9 note=90 velocity=127 time=0.012885208333333334
EXTRACT: note_on channel=9 note=44 velocity=71 time=0
EXTRACT: note_on channel=9 note=70 velocity=110 time=0
EXTRACT: note_on channel=10 note=67 velocity=115 time=0
EXTRACT: note_off channel=9 note=70 velocity=0 time=0.051540833333333334
EXTRACT: note_off channel=9 note=44 velocity=0 time=0
EXTRACT: note_off channel=9 note=90 velocity=0 time=0.07731125
EXTRACT: note_off channel=9 note=40 velocity=0 time=0
EXTRACT: note_on channel=9 note=47 velocity=110 time=0.012885208333333334
EXTRACT: note_on channel=9 note=70 velocity=10 time=0
EXTRACT: note_off channel=9 note=70 velocity=0 time=0.06442604166666667
EXTRACT: note_off channel=9 note=47 velocity=0 time=0
EXTRACT: note_off channel=2 note=36 velocity=0 time=0.038655625
EXTRACT: note_on channel=2 note=36 velocity=125 time=0.051540833333333334
EXTRACT: note_on channel=9 note=45 velocity=110 time=0
EXTRACT: note_on channel=9 note=70 velocity=22 time=0
EXTRACT: note_on channel=4 note=60 velocity=96 time=0.012885208333333334
EXTRACT: note_off channel=4 note=60 velocity=0 time=0.025770416666666667
EXTRACT: note_off channel=9 note=70 velocity=0 time=0.025770416666666667
EXTRACT: note_off channel=9 note=45 velocity=0 time=0
EXTRACT: note_on channel=4 note=60 velocity=81 time=0.09019645833333334
EXTRACT: note_on channel=9 note=36 velocity=91 time=0
EXTRACT: note_on channel=9 note=55 velocity=85 time=0
EXTRACT: note_on channel=9 note=70 velocity=67 time=0
EXTRACT: note_on channel=3 note=56 velocity=43 time=0.012885208333333334
EXTRACT: note_on channel=3 note=53 velocity=45 time=0
EXTRACT: note_off channel=4 note=63 velocity=0 time=0.012885208333333334
EXTRACT: note_on channel=3 note=48 velocity=60 time=0.012885208333333334
EXTRACT: note_off channel=4 note=60 velocity=0 time=0
EXTRACT: note_off channel=10 note=67 velocity=0 time=0.012885208333333334
EXTRACT: note_off channel=9 note=70 velocity=0 time=0.012885208333333334
EXTRACT: note_off channel=9 note=55 velocity=0 time=0
EXTRACT: note_off channel=9 note=36 velocity=0 time=0
EXTRACT: note_off channel=2 note=36 velocity=0 time=0.012885208333333334
EXTRACT: note_off channel=4 note=60 velocity=0 time=0
EXTRACT: control_change channel=4 control=0 value=0 time=0.06442604166666667
EXTRACT: control_change channel=4 control=0 value=0 time=0
EXTRACT: control_change channel=4 control=32 value=0 time=0
EXTRACT: control_change channel=4 control=0 value=0 time=0
EXTRACT: control_change channel=4 control=32 value=0 time=0
EXTRACT: program_change channel=4 program=50 time=0
EXTRACT: program_change channel=9 program=0 time=0.025770416666666667
EXTRACT: note_on channel=9 note=49 velocity=90 time=0
EXTRACT: program_change channel=9 program=32 time=0
EXTRACT: note_on channel=10 note=68 velocity=98 time=0
EXTRACT: note_off channel=9 note=49 velocity=0 time=0.0016106510416666667
EXTRACT: note_off channel=3 note=56 velocity=0 time=0.011274557291666668
EXTRACT: note_on channel=4 note=65 velocity=91 time=0
EXTRACT: note_on channel=4 note=60 velocity=80 time=0
EXTRACT: note_on channel=9 note=36 velocity=127 time=0
EXTRACT: note_on channel=9 note=44 velocity=69 time=0
EXTRACT: note_off channel=3 note=48 velocity=0 time=0.012885208333333334
EXTRACT: note_on channel=9 note=70 velocity=40 time=0
EXTRACT: note_on channel=9 note=51 velocity=69 time=0
EXTRACT: note_on channel=2 note=29 velocity=127 time=0.012885208333333334
EXTRACT: note_off channel=3 note=53 velocity=0 time=0
EXTRACT: note_off channel=9 note=70 velocity=0 time=0.012885208333333334
EXTRACT: note_off channel=9 note=51 velocity=0 time=0.07731125
EXTRACT: note_off channel=9 note=44 velocity=0 time=0
EXTRACT: note_off channel=9 note=36 velocity=0 time=0
EXTRACT: note_on channel=9 note=70 velocity=64 time=0.012885208333333334
EXTRACT: note_off channel=9 note=70 velocity=0 time=0.06442604166666667
EXTRACT: note_on channel=9 note=70 velocity=113 time=0.09019645833333334
EXTRACT: note_on channel=9 note=51 velocity=50 time=0
EXTRACT: note_on channel=10 note=67 velocity=92 time=0.012885208333333334
EXTRACT: note_off channel=9 note=51 velocity=0 time=0.051540833333333334
EXTRACT: note_off channel=9 note=70 velocity=0 time=0
EXTRACT: note_off channel=10 note=68 velocity=0 time=0
EXTRACT: note_off channel=10 note=67 velocity=0 time=0.012885208333333334
EXTRACT: note_on channel=9 note=36 velocity=99 time=0.07731125
EXTRACT: note_on channel=9 note=70 velocity=60 time=0
EXTRACT: note_on channel=10 note=67 velocity=115 time=0.025770416666666667
EXTRACT: note_off channel=9 note=70 velocity=0 time=0.038655625
EXTRACT: note_off channel=9 note=36 velocity=0 time=0
EXTRACT: note_on channel=9 note=40 velocity=100 time=0.09019645833333334
EXTRACT: note_on channel=9 note=90 velocity=127 time=0.012885208333333334
EXTRACT: note_on channel=9 note=44 velocity=71 time=0
EXTRACT: note_on channel=9 note=70 velocity=40 time=0
EXTRACT: note_on channel=9 note=51 velocity=71 time=0
EXTRACT: note_off channel=9 note=51 velocity=0 time=0.051540833333333334
EXTRACT: note_off channel=9 note=70 velocity=0 time=0
EXTRACT: note_off channel=9 note=44 velocity=0 time=0
EXTRACT: note_off channel=9 note=90 velocity=0 time=0.07731125
EXTRACT: note_off channel=9 note=40 velocity=0 time=0
EXTRACT: note_on channel=9 note=70 velocity=65 time=0.012885208333333334
EXTRACT: note_off channel=10 note=67 velocity=0 time=0.012885208333333334
EXTRACT: note_on channel=10 note=65 velocity=103 time=0
EXTRACT: note_off channel=9 note=70 velocity=0 time=0.051540833333333334
EXTRACT: note_off channel=2 note=29 velocity=0 time=0.07731125
EXTRACT: note_on channel=9 note=70 velocity=110 time=0.012885208333333334
EXTRACT: note_on channel=9 note=51 velocity=50 time=0
EXTRACT: note_off channel=9 note=51 velocity=0 time=0.06442604166666667
EXTRACT: note_off channel=9 note=70 velocity=0 time=0
EXTRACT: note_off channel=10 note=65 velocity=0 time=0
EXTRACT: note_on channel=9 note=70 velocity=64 time=0.09019645833333334
EXTRACT: note_on channel=9 note=36 velocity=110 time=0
EXTRACT: note_on channel=10 note=65 velocity=106 time=0
EXTRACT: note_on channel=2 note=29 velocity=110 time=0.012885208333333334
EXTRACT: note_on channel=3 note=62 velocity=50 time=0.051540833333333334
EXTRACT: note_on channel=3 note=58 velocity=44 time=0
EXTRACT: note_off channel=9 note=36 velocity=0 time=0
EXTRACT: note_off channel=9 note=70 velocity=0 time=0
EXTRACT: note_off channel=2 note=29 velocity=0 time=0.012885208333333334
EXTRACT: note_on channel=3 note=53 velocity=39 time=0
EXTRACT: note_off channel=4 note=60 velocity=0 time=0.038655625
EXTRACT: note_off channel=4 note=65 velocity=0 time=0
EXTRACT: note_on channel=4 note=65 velocity=91 time=0
EXTRACT: note_on channel=4 note=62 velocity=80 time=0
EXTRACT: note_on channel=9 note=44 velocity=69 time=0.038655625
EXTRACT: note_on channel=9 note=70 velocity=40 time=0
EXTRACT: note_on channel=2 note=34 velocity=110 time=0.012885208333333334
EXTRACT: note_on channel=9 note=51 velocity=69 time=0
EXTRACT: note_off channel=9 note=51 velocity=0 time=0.051540833333333334
EXTRACT: note_off channel=9 note=70 velocity=0 time=0
EXTRACT: note_off channel=9 note=44 velocity=0 time=0
EXTRACT: note_off channel=3 note=62 velocity=0 time=0.038655625
EXTRACT: note_off channel=3 note=53 velocity=0 time=0.012885208333333334
EXTRACT: note_off channel=3 note=58 velocity=0 time=0.012885208333333334
EXTRACT: note_on channel=9 note=36 velocity=101 time=0.025770416666666667
EXTRACT: note_on channel=9 note=70 velocity=64 time=0
EXTRACT: note_off channel=9 note=70 velocity=0 time=0.06442604166666667
EXTRACT: note_off channel=9 note=36 velocity=0 time=0
EXTRACT: note_on channel=9 note=36 velocity=123 time=0.09019645833333334
EXTRACT: note_on channel=9 note=70 velocity=110 time=0
EXTRACT: note_on channel=9 note=51 velocity=52 time=0.012885208333333334
EXTRACT: note_off channel=9 note=51 velocity=0 time=0.051540833333333334
EXTRACT: note_off channel=9 note=70 velocity=0 time=0
EXTRACT: note_off channel=9 note=36 velocity=0 time=0
EXTRACT: note_on channel=9 note=70 velocity=64 time=0.09019645833333334
EXTRACT: note_off channel=9 note=70 velocity=0 time=0.06442604166666667
EXTRACT: note_off channel=2 note=34 velocity=0 time=0.07731125
EXTRACT: note_on channel=9 note=40 velocity=100 time=0.012885208333333334
EXTRACT: note_on channel=9 note=90 velocity=127 time=0.012885208333333334
EXTRACT: note_on channel=9 note=44 velocity=71 time=0
EXTRACT: note_on channel=9 note=70 velocity=40 time=0
EXTRACT: note_on channel=9 note=51 velocity=71 time=0
EXTRACT: note_off channel=9 note=51 velocity=0 time=0.051540833333333334
EXTRACT: note_off channel=9 note=70 velocity=0 time=0
EXTRACT: note_off channel=9 note=44 velocity=0 time=0
EXTRACT: note_off channel=9 note=90 velocity=0 time=0.07731125
EXTRACT: note_off channel=9 note=40 velocity=0 time=0
EXTRACT: note_on channel=2 note=34 velocity=125 time=0.012885208333333334
EXTRACT: note_on channel=9 note=36 velocity=110 time=0
EXTRACT: note_on channel=9 note=70 velocity=60 time=0
EXTRACT: note_off channel=9 note=70 velocity=0 time=0.06442604166666667
EXTRACT: note_off channel=9 note=36 velocity=0 time=0
EXTRACT: note_on channel=9 note=70 velocity=107 time=0.09019645833333334
EXTRACT: note_on channel=9 note=51 velocity=54 time=0
EXTRACT: note_off channel=10 note=65 velocity=0 time=0.012885208333333334
EXTRACT: note_off channel=9 note=51 velocity=0 time=0.051540833333333334
EXTRACT: note_off channel=9 note=70 velocity=0 time=0
EXTRACT: note_on channel=9 note=36 velocity=75 time=0.09019645833333334
EXTRACT: note_on channel=9 note=70 velocity=67 time=0
EXTRACT: note_on channel=10 note=63 velocity=110 time=0
EXTRACT: note_off channel=2 note=34 velocity=0 time=0.06442604166666667
EXTRACT: note_off channel=9 note=70 velocity=0 time=0
EXTRACT: note_off channel=9 note=36 velocity=0 time=0
EXTRACT: note_on channel=3 note=63 velocity=61 time=0.025770416666666667
EXTRACT: note_on channel=3 note=60 velocity=59 time=0
EXTRACT: note_on channel=3 note=55 velocity=55 time=0
EXTRACT: note_off channel=4 note=62 velocity=0 time=0.038655625
EXTRACT: note_off channel=4 note=65 velocity=0 time=0
EXTRACT: note_on channel=4 note=63 velocity=91 time=0
EXTRACT: note_on channel=4 note=60 velocity=80 time=0
EXTRACT: note_on channel=9 note=36 velocity=110 time=0.025770416666666667
EXTRACT: note_on channel=2 note=36 velocity=110 time=0.012885208333333334
EXTRACT: note_on channel=9 note=44 velocity=69 time=0
EXTRACT: note_on channel=9 note=70 velocity=40 time=0
EXTRACT: note_on channel=9 note=51 velocity=69 time=0
EXTRACT: note_on channel=10 note=67 velocity=115 time=0
EXTRACT: note_off channel=3 note=63 velocity=0 time=0.025770416666666667
EXTRACT: note_off channel=10 note=63 velocity=0 time=0
EXTRACT: note_off channel=3 note=55 velocity=0 time=0.025770416666666667
EXTRACT: note_off channel=9 note=70 velocity=0 time=0
EXTRACT: note_off channel=9 note=36 velocity=0 time=0
EXTRACT: note_off channel=3 note=60 velocity=0 time=0.012885208333333334
EXTRACT: note_off channel=9 note=51 velocity=0 time=0.06442604166666667
EXTRACT: note_off channel=9 note=44 velocity=0 time=0
EXTRACT: note_on channel=9 note=70 velocity=64 time=0.012885208333333334
EXTRACT: note_off channel=9 note=70 velocity=0 time=0.06442604166666667
EXTRACT: note_on channel=9 note=70 velocity=113 time=0.09019645833333334
EXTRACT: note_on channel=9 note=51 velocity=50 time=0
EXTRACT: note_on channel=10 note=65 velocity=92 time=0
EXTRACT: note_off channel=10 note=67 velocity=0 time=0.038655625
EXTRACT: note_off channel=2 note=36 velocity=0 time=0.025770416666666667
EXTRACT: note_off channel=9 note=51 velocity=0 time=0
EXTRACT: note_off channel=9 note=70 velocity=0 time=0
EXTRACT: note_off channel=10 note=65 velocity=0 time=0
EXTRACT: note_on channel=9 note=36 velocity=110 time=0.09019645833333334
EXTRACT: note_on channel=9 note=70 velocity=60 time=0
EXTRACT: note_on channel=2 note=36 velocity=110 time=0.012885208333333334
EXTRACT: note_on channel=10 note=65 velocity=106 time=0
EXTRACT: note_off channel=9 note=70 velocity=0 time=0.051540833333333334
EXTRACT: note_off channel=9 note=36 velocity=0 time=0
EXTRACT: note_off channel=2 note=36 velocity=0 time=0.038655625
EXTRACT: note_on channel=9 note=40 velocity=100 time=0.051540833333333334
EXTRACT: note_on channel=2 note=36 velocity=110 time=0.012885208333333334
EXTRACT: note_on channel=9 note=90 velocity=127 time=0
EXTRACT: note_on channel=9 note=44 velocity=71 time=0
EXTRACT: note_on channel=9 note=70 velocity=40 time=0
EXTRACT: note_on channel=9 note=51 velocity=71 time=0
EXTRACT: note_off channel=9 note=51 velocity=0 time=0.051540833333333334
EXTRACT: note_off channel=9 note=70 velocity=0 time=0
EXTRACT: note_off channel=9 note=44 velocity=0 time=0
EXTRACT: note_off channel=10 note=65 velocity=0 time=0.051540833333333334
EXTRACT: note_off channel=2 note=36 velocity=0 time=0.025770416666666667
EXTRACT: note_off channel=9 note=90 velocity=0 time=0
EXTRACT: note_off channel=9 note=40 velocity=0 time=0
EXTRACT: note_on channel=10 note=63 velocity=101 time=0
EXTRACT: note_on channel=2 note=34 velocity=110 time=0.012885208333333334
EXTRACT: note_on channel=9 note=70 velocity=64 time=0
EXTRACT: note_off channel=9 note=70 velocity=0 time=0.06442604166666667
EXTRACT: note_off channel=2 note=34 velocity=0 time=0.07731125
EXTRACT: note_on channel=9 note=70 velocity=110 time=0.012885208333333334
EXTRACT: note_on channel=9 note=51 velocity=50 time=0
EXTRACT: note_on channel=2 note=31 velocity=110 time=0.012885208333333334
EXTRACT: note_off channel=9 note=51 velocity=0 time=0.051540833333333334
EXTRACT: note_off channel=9 note=70 velocity=0 time=0
EXTRACT: note_off channel=10 note=63 velocity=0 time=0.038655625
EXTRACT: note_on channel=9 note=70 velocity=64 time=0.051540833333333334
EXTRACT: note_on channel=10 note=67 velocity=106 time=0
EXTRACT: note_off channel=9 note=70 velocity=0 time=0.06442604166666667
EXTRACT: note_off channel=2 note=31 velocity=0 time=0.07731125
EXTRACT: note_on channel=9 note=44 velocity=69 time=0.012885208333333334
EXTRACT: note_on channel=2 note=36 velocity=127 time=0.012885208333333334
EXTRACT: note_on channel=9 note=36 velocity=110 time=0
EXTRACT: note_on channel=9 note=70 velocity=40 time=0
EXTRACT: note_on channel=9 note=51 velocity=69 time=0
EXTRACT: note_off channel=9 note=51 velocity=0 time=0.051540833333333334
EXTRACT: note_off channel=9 note=70 velocity=0 time=0
EXTRACT: note_off channel=9 note=36 velocity=0 time=0
EXTRACT: note_off channel=9 note=44 velocity=0 time=0
EXTRACT: note_off channel=10 note=67 velocity=0 time=0.06442604166666667
EXTRACT: note_on channel=9 note=70 velocity=64 time=0.025770416666666667
EXTRACT: note_on channel=10 note=65 velocity=106 time=0
EXTRACT: note_off channel=9 note=70 velocity=0 time=0.06442604166666667
EXTRACT: note_on channel=9 note=36 velocity=110 time=0.09019645833333334
EXTRACT: note_on channel=9 note=70 velocity=110 time=0
EXTRACT: note_on channel=9 note=51 velocity=52 time=0.012885208333333334
EXTRACT: note_off channel=9 note=51 velocity=0 time=0.051540833333333334
EXTRACT: note_off channel=9 note=70 velocity=0 time=0
EXTRACT: note_off channel=9 note=36 velocity=0 time=0
EXTRACT: note_off channel=10 note=65 velocity=0 time=0.012885208333333334
EXTRACT: note_on channel=9 note=70 velocity=64 time=0.07731125
EXTRACT: note_on channel=10 note=63 velocity=110 time=0.012885208333333334
EXTRACT: note_off channel=9 note=70 velocity=0 time=0.051540833333333334
EXTRACT: note_on channel=9 note=40 velocity=100 time=0.09019645833333334
EXTRACT: note_on channel=9 note=90 velocity=127 time=0.012885208333333334
EXTRACT: note_on channel=9 note=44 velocity=71 time=0
EXTRACT: note_on channel=9 note=70 velocity=40 time=0
EXTRACT: note_on channel=9 note=51 velocity=71 time=0
EXTRACT: note_off channel=9 note=51 velocity=0 time=0.051540833333333334
EXTRACT: note_off channel=9 note=70 velocity=0 time=0
EXTRACT: note_off channel=9 note=44 velocity=0 time=0
EXTRACT: note_off channel=9 note=90 velocity=0 time=0.07731125
EXTRACT: note_off channel=9 note=40 velocity=0 time=0
EXTRACT: note_on channel=9 note=70 velocity=73 time=0.012885208333333334
EXTRACT: note_off channel=9 note=70 velocity=0 time=0.06442604166666667
EXTRACT: note_on channel=9 note=70 velocity=107 time=0.09019645833333334
EXTRACT: note_on channel=9 note=51 velocity=54 time=0
EXTRACT: note_on channel=10 note=65 velocity=113 time=0.012885208333333334
EXTRACT: note_off channel=10 note=63 velocity=0 time=0.012885208333333334
EXTRACT: note_off channel=9 note=51 velocity=0 time=0.038655625
EXTRACT: note_off channel=9 note=70 velocity=0 time=0
EXTRACT: note_on channel=9 note=70 velocity=67 time=0.09019645833333334
EXTRACT: note_off channel=10 note=65 velocity=0 time=0
EXTRACT: note_on channel=10 note=63 velocity=101 time=0.012885208333333334
EXTRACT: note_on channel=3 note=56 velocity=40 time=0.038655625
EXTRACT: note_on channel=3 note=53 velocity=52 time=0
EXTRACT: note_off channel=2 note=36 velocity=0 time=0.012885208333333334
EXTRACT: note_on channel=3 note=48 velocity=68 time=0
EXTRACT: note_off channel=9 note=70 velocity=0 time=0
EXTRACT: note_off channel=4 note=60 velocity=0 time=0.038655625
EXTRACT: note_off channel=4 note=63 velocity=0 time=0
EXTRACT: note_on channel=4 note=65 velocity=91 time=0
EXTRACT: note_on channel=4 note=60 velocity=80 time=0
EXTRACT: note_on channel=9 note=36 velocity=127 time=0.051540833333333334
EXTRACT: note_on channel=2 note=29 velocity=125 time=0.012885208333333334
EXTRACT: note_on channel=9 note=44 velocity=69 time=0
EXTRACT: note_on channel=9 note=70 velocity=40 time=0
EXTRACT: note_on channel=9 note=51 velocity=69 time=0
EXTRACT: note_off channel=10 note=63 velocity=0 time=0
EXTRACT: note_on channel=10 note=68 velocity=120 time=0
EXTRACT: note_off channel=3 note=56 velocity=0 time=0.038655625
EXTRACT: note_off channel=9 note=70 velocity=0 time=0.012885208333333334
EXTRACT: note_off channel=3 note=53 velocity=0 time=0.051540833333333334
EXTRACT: note_off channel=9 note=51 velocity=0 time=0.025770416666666667
EXTRACT: note_off channel=9 note=44 velocity=0 time=0
EXTRACT: note_off channel=9 note=36 velocity=0 time=0
EXTRACT: note_on channel=9 note=70 velocity=69 time=0.012885208333333334
EXTRACT: note_off channel=3 note=48 velocity=0 time=0.012885208333333334
EXTRACT: note_off channel=9 note=70 velocity=0 time=0.051540833333333334
EXTRACT: note_off channel=2 note=29 velocity=0 time=0.07731125
EXTRACT: note_on channel=10 note=67 velocity=106 time=0
EXTRACT: note_on channel=9 note=70 velocity=113 time=0.012885208333333334
EXTRACT: note_on channel=9 note=51 velocity=50 time=0
EXTRACT: note_off channel=10 note=68 velocity=0 time=0.025770416666666667
EXTRACT: note_off channel=10 note=67 velocity=0 time=0.012885208333333334
EXTRACT: note_off channel=9 note=51 velocity=0 time=0.025770416666666667
EXTRACT: note_off channel=9 note=70 velocity=0 time=0
EXTRACT: note_on channel=10 note=67 velocity=115 time=0.07731125
EXTRACT: note_on channel=9 note=36 velocity=99 time=0.012885208333333334
EXTRACT: note_on channel=9 note=70 velocity=60 time=0
EXTRACT: note_on channel=2 note=29 velocity=121 time=0.012885208333333334
EXTRACT: note_off channel=9 note=70 velocity=0 time=0.051540833333333334
EXTRACT: note_off channel=9 note=36 velocity=0 time=0
EXTRACT: note_on channel=9 note=40 velocity=100 time=0.09019645833333334
EXTRACT: note_on channel=9 note=90 velocity=127 time=0.012885208333333334
EXTRACT: note_on channel=9 note=44 velocity=71 time=0
EXTRACT: note_on channel=9 note=70 velocity=40 time=0
EXTRACT: note_on channel=9 note=51 velocity=71 time=0
EXTRACT: note_off channel=9 note=51 velocity=0 time=0.051540833333333334
EXTRACT: note_off channel=9 note=70 velocity=0 time=0
EXTRACT: note_off channel=9 note=44 velocity=0 time=0
EXTRACT: note_off channel=2 note=29 velocity=0 time=0.07731125
EXTRACT: note_off channel=9 note=90 velocity=0 time=0
EXTRACT: note_off channel=9 note=40 velocity=0 time=0
EXTRACT: note_off channel=10 note=67 velocity=0 time=0
EXTRACT: note_on channel=10 note=65 velocity=103 time=0
EXTRACT: note_on channel=9 note=70 velocity=65 time=0.012885208333333334
EXTRACT: note_off channel=9 note=70 velocity=0 time=0.06442604166666667
EXTRACT: note_on channel=9 note=70 velocity=110 time=0.09019645833333334
EXTRACT: note_on channel=9 note=51 velocity=50 time=0
EXTRACT: note_on channel=2 note=29 velocity=125 time=0.012885208333333334
EXTRACT: note_off channel=9 note=51 velocity=0 time=0.051540833333333334
EXTRACT: note_off channel=9 note=70 velocity=0 time=0
EXTRACT: note_off channel=10 note=65 velocity=0 time=0
EXTRACT: note_on channel=10 note=65 velocity=79 time=0.07731125
EXTRACT: note_on channel=9 note=70 velocity=64 time=0.012885208333333334
EXTRACT: note_on channel=9 note=36 velocity=110 time=0
EXTRACT: note_off channel=9 note=36 velocity=0 time=0.06442604166666667
EXTRACT: note_off channel=9 note=70 velocity=0 time=0
EXTRACT: note_off channel=2 note=29 velocity=0 time=0.051540833333333334
EXTRACT: note_on channel=3 note=62 velocity=32 time=0
EXTRACT: note_on channel=3 note=58 velocity=35 time=0.012885208333333334
EXTRACT: note_on channel=3 note=53 velocity=23 time=0.012885208333333334
EXTRACT: note_on channel=9 note=44 velocity=69 time=0.012885208333333334
EXTRACT: note_on channel=2 note=29 velocity=110 time=0.012885208333333334
EXTRACT: note_on channel=9 note=70 velocity=40 time=0
EXTRACT: note_on channel=9 note=51 velocity=69 time=0
EXTRACT: note_off channel=2 note=29 velocity=0 time=0.012885208333333334
EXTRACT: note_on channel=2 note=34 velocity=110 time=0
EXTRACT: note_off channel=4 note=60 velocity=0 time=0
EXTRACT: note_off channel=4 note=65 velocity=0 time=0
EXTRACT: note_on channel=4 note=65 velocity=91 time=0
EXTRACT: note_on channel=4 note=62 velocity=80 time=0.012885208333333334
EXTRACT: note_off channel=9 note=51 velocity=0 time=0.025770416666666667
EXTRACT: note_off channel=9 note=70 velocity=0 time=0
EXTRACT: note_off channel=9 note=44 velocity=0 time=0
EXTRACT: note_off channel=3 note=53 velocity=0 time=0.025770416666666667
EXTRACT: note_off channel=3 note=62 velocity=0 time=0
EXTRACT: note_off channel=3 note=58 velocity=0 time=0.012885208333333334
EXTRACT: note_on channel=9 note=36 velocity=93 time=0.051540833333333334
EXTRACT: note_on channel=9 note=70 velocity=56 time=0
EXTRACT: note_off channel=9 note=70 velocity=0 time=0.06442604166666667
EXTRACT: note_off channel=9 note=36 velocity=0 time=0
EXTRACT: note_on channel=9 note=36 velocity=123 time=0.09019645833333334
EXTRACT: note_on channel=9 note=70 velocity=110 time=0
EXTRACT: note_on channel=9 note=51 velocity=52 time=0.012885208333333334
EXTRACT: note_off channel=9 note=51 velocity=0 time=0.051540833333333334
EXTRACT: note_off channel=9 note=70 velocity=0 time=0
EXTRACT: note_off channel=9 note=36 velocity=0 time=0
EXTRACT: note_off channel=2 note=34 velocity=0 time=0.038655625
EXTRACT: note_on channel=9 note=70 velocity=64 time=0.051540833333333334
EXTRACT: note_off channel=9 note=70 velocity=0 time=0.06442604166666667
EXTRACT: note_on channel=9 note=40 velocity=100 time=0.09019645833333334
EXTRACT: note_on channel=9 note=90 velocity=127 time=0.012885208333333334
EXTRACT: note_on channel=9 note=44 velocity=71 time=0
EXTRACT: note_on channel=9 note=70 velocity=40 time=0
EXTRACT: note_on channel=9 note=51 velocity=71 time=0
EXTRACT: note_off channel=9 note=51 velocity=0 time=0.051540833333333334
EXTRACT: note_off channel=9 note=70 velocity=0 time=0
EXTRACT: note_off channel=9 note=44 velocity=0 time=0
EXTRACT: note_off channel=9 note=90 velocity=0 time=0.07731125
EXTRACT: note_off channel=9 note=40 velocity=0 time=0
EXTRACT: note_on channel=9 note=36 velocity=110 time=0.012885208333333334
EXTRACT: note_on channel=9 note=70 velocity=65 time=0
EXTRACT: note_off channel=10 note=65 velocity=0 time=0.038655625
EXTRACT: note_off channel=9 note=70 velocity=0 time=0.025770416666666667
EXTRACT: note_off channel=9 note=36 velocity=0 time=0
EXTRACT: note_on channel=2 note=38 velocity=73 time=0.012885208333333334
EXTRACT: note_off channel=2 note=38 velocity=0 time=0.012885208333333334
EXTRACT: note_on channel=2 note=31 velocity=68 time=0
EXTRACT: note_on channel=3 note=62 velocity=73 time=0
EXTRACT: note_on channel=3 note=55 velocity=68 time=0
EXTRACT: note_off channel=2 note=31 velocity=0 time=0.0016106510416666667
EXTRACT: note_on channel=2 note=35 velocity=84 time=0.011274557291666668
EXTRACT: note_on channel=3 note=59 velocity=84 time=0
EXTRACT: note_off channel=4 note=62 velocity=0 time=0.038655625
EXTRACT: note_off channel=4 note=65 velocity=0 time=0
EXTRACT: note_on channel=4 note=67 velocity=91 time=0
EXTRACT: note_on channel=4 note=62 velocity=80 time=0
EXTRACT: note_off channel=3 note=62 velocity=0 time=0.012885208333333334
EXTRACT: note_off channel=2 note=35 velocity=0 time=0.012885208333333334
EXTRACT: note_off channel=3 note=59 velocity=0 time=0
EXTRACT: note_on channel=9 note=70 velocity=107 time=0
EXTRACT: note_on channel=9 note=51 velocity=54 time=0
EXTRACT: note_off channel=3 note=55 velocity=0 time=0.012885208333333334
EXTRACT: note_on channel=10 note=63 velocity=101 time=0.012885208333333334
EXTRACT: note_off channel=9 note=51 velocity=0 time=0.025770416666666667
EXTRACT: note_off channel=9 note=70 velocity=0 time=0
EXTRACT: note_on channel=9 note=36 velocity=75 time=0.09019645833333334
EXTRACT: note_on channel=9 note=70 velocity=67 time=0
EXTRACT: note_on channel=10 note=65 velocity=92 time=0.051540833333333334
EXTRACT: note_off channel=9 note=70 velocity=0 time=0.012885208333333334
EXTRACT: note_off channel=9 note=36 velocity=0 time=0
EXTRACT: note_off channel=10 note=63 velocity=0 time=0.012885208333333334
EXTRACT: note_on channel=9 note=36 velocity=110 time=0.07731125
EXTRACT: note_on channel=9 note=44 velocity=69 time=0.012885208333333334
EXTRACT: note_on channel=9 note=70 velocity=40 time=0
EXTRACT: note_on channel=9 note=51 velocity=69 time=0
EXTRACT: note_on channel=10 note=67 velocity=106 time=0.038655625
EXTRACT: note_off channel=9 note=70 velocity=0 time=0.012885208333333334
EXTRACT: note_off channel=9 note=36 velocity=0 time=0
EXTRACT: note_off channel=10 note=65 velocity=0 time=0.012885208333333334
EXTRACT: control_change channel=9 control=7 value=100 time=0.025770416666666667
EXTRACT: control_change channel=9 control=7 value=0 time=0
EXTRACT: note_off channel=9 note=51 velocity=0 time=0.038655625
EXTRACT: note_off channel=9 note=44 velocity=0 time=0
EXTRACT: note_on channel=9 note=70 velocity=65 time=0.012885208333333334
EXTRACT: note_off channel=9 note=70 velocity=0 time=0.06442604166666667
EXTRACT: note_on channel=9 note=70 velocity=113 time=0.09019645833333334
EXTRACT: note_on channel=9 note=51 velocity=50 time=0
EXTRACT: note_on channel=10 note=63 velocity=93 time=0.038655625
EXTRACT: note_off channel=9 note=51 velocity=0 time=0.025770416666666667
EXTRACT: note_off channel=9 note=70 velocity=0 time=0
EXTRACT: note_off channel=10 note=67 velocity=0 time=0
EXTRACT: note_on channel=9 note=36 velocity=110 time=0.09019645833333334
EXTRACT: note_on channel=9 note=70 velocity=60 time=0
EXTRACT: note_on channel=10 note=65 velocity=83 time=0.051540833333333334
EXTRACT: note_off channel=9 note=70 velocity=0 time=0.012885208333333334
EXTRACT: note_off channel=9 note=36 velocity=0 time=0
EXTRACT: note_off channel=10 note=63 velocity=0 time=0.012885208333333334
EXTRACT: note_on channel=9 note=40 velocity=100 time=0.07731125
EXTRACT: note_on channel=9 note=90 velocity=127 time=0.012885208333333334
EXTRACT: note_on channel=9 note=44 velocity=71 time=0
EXTRACT: note_on channel=9 note=70 velocity=40 time=0
EXTRACT: note_on channel=9 note=51 velocity=71 time=0
EXTRACT: note_on channel=10 note=67 velocity=97 time=0.038655625
EXTRACT: note_off channel=9 note=51 velocity=0 time=0.012885208333333334
EXTRACT: note_off channel=9 note=70 velocity=0 time=0
EXTRACT: note_off channel=9 note=44 velocity=0 time=0
EXTRACT: note_off channel=10 note=65 velocity=0 time=0.025770416666666667
EXTRACT: note_off channel=9 note=90 velocity=0 time=0.051540833333333334
EXTRACT: note_off channel=9 note=40 velocity=0 time=0
EXTRACT: note_on channel=9 note=70 velocity=10 time=0.012885208333333334
EXTRACT: note_off channel=9 note=70 velocity=0 time=0.06442604166666667
EXTRACT: note_on channel=9 note=70 velocity=24 time=0.09019645833333334
EXTRACT: note_on channel=10 note=63 velocity=98 time=0.038655625
EXTRACT: note_off channel=10 note=67 velocity=0 time=0.012885208333333334
EXTRACT: note_off channel=9 note=70 velocity=0 time=0.012885208333333334
EXTRACT: note_on channel=9 note=36 velocity=110 time=0.09019645833333334
EXTRACT: note_on channel=9 note=70 velocity=64 time=0
EXTRACT: control_change channel=9 control=7 value=100 time=0.038655625
EXTRACT: note_off channel=9 note=70 velocity=0 time=0.025770416666666667
EXTRACT: note_off channel=9 note=36 velocity=0 time=0
EXTRACT: note_on channel=10 note=65 velocity=87 time=0
EXTRACT: note_off channel=10 note=63 velocity=0 time=0.025770416666666667
EXTRACT: note_on channel=9 note=40 velocity=100 time=0.06442604166666667
EXTRACT: note_on channel=9 note=90 velocity=125 time=0
EXTRACT: note_on channel=4 note=62 velocity=116 time=0.012885208333333334
EXTRACT: note_on channel=9 note=70 velocity=110 time=0
EXTRACT: note_on channel=9 note=44 velocity=40 time=0
EXTRACT: note_on channel=10 note=67 velocity=115 time=0.038655625
EXTRACT: note_off channel=4 note=62 velocity=0 time=0.012885208333333334
EXTRACT: note_off channel=9 note=44 velocity=0 time=0
EXTRACT: note_off channel=9 note=70 velocity=0 time=0
EXTRACT: note_off channel=9 note=90 velocity=0 time=0
EXTRACT: note_off channel=9 note=40 velocity=0 time=0
EXTRACT: note_off channel=10 note=65 velocity=0 time=0.012885208333333334
EXTRACT: note_on channel=9 note=70 velocity=10 time=0.07731125
EXTRACT: note_off channel=9 note=70 velocity=0 time=0.06442604166666667
EXTRACT: note_on channel=9 note=40 velocity=100 time=0.09019645833333334
EXTRACT: note_on channel=9 note=90 velocity=123 time=0
EXTRACT: note_on channel=9 note=70 velocity=24 time=0
EXTRACT: note_on channel=10 note=68 velocity=101 time=0.025770416666666667
EXTRACT: note_off channel=9 note=70 velocity=0 time=0.038655625
EXTRACT: note_off channel=9 note=90 velocity=0 time=0
EXTRACT: note_off channel=9 note=40 velocity=0 time=0
EXTRACT: note_off channel=10 note=67 velocity=0 time=0.051540833333333334
EXTRACT: note_on channel=4 note=62 velocity=113 time=0.038655625
EXTRACT: note_on channel=9 note=36 velocity=110 time=0
EXTRACT: note_on channel=9 note=70 velocity=64 time=0
EXTRACT: note_on channel=10 note=67 velocity=86 time=0.025770416666666667
EXTRACT: note_off channel=4 note=62 velocity=0 time=0.025770416666666667
EXTRACT: note_off channel=10 note=68 velocity=0 time=0
EXTRACT: note_off channel=9 note=70 velocity=0 time=0.012885208333333334
EXTRACT: note_off channel=9 note=36 velocity=0 time=0
EXTRACT: note_on channel=9 note=40 velocity=40 time=0.012885208333333334
EXTRACT: note_off channel=9 note=40 velocity=0 time=0.012885208333333334
EXTRACT: note_on channel=9 note=40 velocity=60 time=0.025770416666666667
EXTRACT: note_off channel=9 note=40 velocity=0 time=0.012885208333333334
EXTRACT: note_on channel=9 note=40 velocity=100 time=0.025770416666666667
EXTRACT: note_on channel=3 note=62 velocity=83 time=0.012885208333333334
EXTRACT: note_on channel=3 note=67 velocity=83 time=0
EXTRACT: note_on channel=9 note=90 velocity=127 time=0
EXTRACT: note_on channel=9 note=44 velocity=71 time=0
EXTRACT: note_on channel=9 note=70 velocity=110 time=0
EXTRACT: note_on channel=3 note=71 velocity=83 time=0.012885208333333334
EXTRACT: note_on channel=3 note=74 velocity=83 time=0.012885208333333334
EXTRACT: note_off channel=3 note=67 velocity=0 time=0.025770416666666667
EXTRACT: note_off channel=3 note=62 velocity=0 time=0
EXTRACT: note_off channel=9 note=70 velocity=0 time=0
EXTRACT: note_off channel=9 note=44 velocity=0 time=0
EXTRACT: note_off channel=3 note=71 velocity=0 time=0.012885208333333334
EXTRACT: note_off channel=3 note=74 velocity=0 time=0.025770416666666667
EXTRACT: note_off channel=9 note=90 velocity=0 time=0.038655625
EXTRACT: note_off channel=9 note=40 velocity=0 time=0
EXTRACT: note_on channel=3 note=74 velocity=44 time=0.012885208333333334
EXTRACT: note_on channel=9 note=47 velocity=110 time=0
EXTRACT: note_on channel=9 note=70 velocity=10 time=0
EXTRACT: note_on channel=3 note=71 velocity=44 time=0.012885208333333334
EXTRACT: note_on channel=10 note=65 velocity=106 time=0
EXTRACT: note_on channel=3 note=67 velocity=44 time=0.012885208333333334
EXTRACT: note_on channel=3 note=62 velocity=44 time=0
EXTRACT: note_off channel=10 note=67 velocity=0 time=0.025770416666666667
EXTRACT: note_off channel=3 note=74 velocity=0 time=0.012885208333333334
EXTRACT: note_off channel=9 note=70 velocity=0 time=0
EXTRACT: note_off channel=9 note=47 velocity=0 time=0
EXTRACT: note_off channel=3 note=71 velocity=0 time=0.012885208333333334
EXTRACT: note_off channel=3 note=62 velocity=0 time=0.012885208333333334
EXTRACT: note_off channel=3 note=67 velocity=0 time=0
EXTRACT: note_on channel=2 note=31 velocity=125 time=0.06442604166666667
EXTRACT: note_on channel=9 note=45 velocity=110 time=0
EXTRACT: note_on channel=9 note=70 velocity=22 time=0
EXTRACT: note_on channel=4 note=62 velocity=96 time=0.012885208333333334
EXTRACT: note_off channel=4 note=62 velocity=0 time=0.025770416666666667
EXTRACT: note_off channel=9 note=70 velocity=0 time=0.025770416666666667
EXTRACT: note_off channel=9 note=45 velocity=0 time=0
EXTRACT: note_on channel=4 note=62 velocity=81 time=0.09019645833333334
EXTRACT: note_on channel=9 note=36 velocity=91 time=0
EXTRACT: note_on channel=9 note=55 velocity=85 time=0
EXTRACT: note_on channel=9 note=70 velocity=67 time=0
EXTRACT: note_off channel=9 note=70 velocity=0 time=0.06442604166666667
EXTRACT: note_off channel=9 note=55 velocity=0 time=0
EXTRACT: note_off channel=9 note=36 velocity=0 time=0
EXTRACT: note_off channel=2 note=31 velocity=0 time=0.025770416666666667
EXTRACT: note_off channel=4 note=62 velocity=0 time=0
EXTRACT: note_off channel=4 note=62 velocity=0 time=0
EXTRACT: note_off channel=4 note=67 velocity=0 time=0
EXTRACT: control_change channel=4 control=0 value=0 time=0
EXTRACT: control_change channel=4 control=0 value=0 time=0
EXTRACT: control_change channel=4 control=32 value=0 time=0
EXTRACT: control_change channel=4 control=0 value=0 time=0
EXTRACT: control_change channel=4 control=32 value=0 time=0
EXTRACT: program_change channel=4 program=89 time=0
EXTRACT: control_change channel=4 control=0 value=0 time=0.051540833333333334
EXTRACT: control_change channel=4 control=0 value=0 time=0
EXTRACT: control_change channel=4 control=32 value=0 time=0
EXTRACT: control_change channel=4 control=0 value=0 time=0
EXTRACT: control_change channel=4 control=32 value=0 time=0
EXTRACT: program_change channel=4 program=50 time=0
EXTRACT: program_change channel=9 program=0 time=0.025770416666666667
EXTRACT: note_on channel=9 note=49 velocity=90 time=0
EXTRACT: program_change channel=9 program=32 time=0
EXTRACT: note_off channel=9 note=49 velocity=0 time=0.0016106510416666667
EXTRACT: note_on channel=4 note=60 velocity=127 time=0.011274557291666668
EXTRACT: note_on channel=4 note=65 velocity=127 time=0
EXTRACT: note_on channel=9 note=36 velocity=127 time=0
EXTRACT: note_on channel=9 note=44 velocity=69 time=0
EXTRACT: note_on channel=2 note=29 velocity=127 time=0.012885208333333334
EXTRACT: note_on channel=9 note=42 velocity=69 time=0
EXTRACT: note_on channel=9 note=70 velocity=40 time=0
EXTRACT: note_on channel=9 note=54 velocity=127 time=0
EXTRACT: control_change channel=3 control=64 value=127 time=0.012885208333333334
EXTRACT: note_on channel=3 note=60 velocity=81 time=0
EXTRACT: note_on channel=3 note=65 velocity=81 time=0
EXTRACT: note_off channel=3 note=60 velocity=0 time=0.012885208333333334
EXTRACT: note_on channel=3 note=68 velocity=81 time=0
EXTRACT: note_on channel=3 note=72 velocity=81 time=0
EXTRACT: note_off channel=9 note=54 velocity=0 time=0
EXTRACT: note_off channel=9 note=70 velocity=0 time=0
EXTRACT: note_off channel=3 note=65 velocity=0 time=0.012885208333333334
EXTRACT: note_off channel=3 note=72 velocity=0 time=0.012885208333333334
EXTRACT: note_off channel=3 note=68 velocity=0 time=0
EXTRACT: note_off channel=9 note=42 velocity=0 time=0.051540833333333334
EXTRACT: note_off channel=9 note=44 velocity=0 time=0
EXTRACT: note_off channel=9 note=36 velocity=0 time=0
EXTRACT: note_on channel=3 note=72 velocity=54 time=0.012885208333333334
EXTRACT: note_on channel=9 note=70 velocity=64 time=0
EXTRACT: note_on channel=9 note=54 velocity=71 time=0
EXTRACT: note_on channel=3 note=68 velocity=54 time=0.012885208333333334
EXTRACT: note_on channel=3 note=65 velocity=54 time=0.012885208333333334
EXTRACT: note_on channel=3 note=60 velocity=50 time=0.012885208333333334
EXTRACT: note_off channel=3 note=72 velocity=0 time=0.025770416666666667
EXTRACT: note_off channel=9 note=54 velocity=0 time=0
EXTRACT: note_off channel=9 note=70 velocity=0 time=0
EXTRACT: note_off channel=3 note=68 velocity=0 time=0.012885208333333334
EXTRACT: note_off channel=3 note=65 velocity=0 time=0.012885208333333334
EXTRACT: note_off channel=3 note=60 velocity=0 time=0.012885208333333334
EXTRACT: note_on channel=3 note=60 velocity=52 time=0.051540833333333334
EXTRACT: note_on channel=9 note=42 velocity=36 time=0
EXTRACT: note_on channel=9 note=70 velocity=113 time=0
EXTRACT: note_on channel=3 note=65 velocity=52 time=0.012885208333333334
EXTRACT: note_on channel=3 note=68 velocity=52 time=0
EXTRACT: note_on channel=9 note=54 velocity=117 time=0
EXTRACT: note_on channel=3 note=72 velocity=52 time=0.012885208333333334
EXTRACT: note_off channel=3 note=60 velocity=0 time=0.038655625
EXTRACT: note_off channel=9 note=54 velocity=0 time=0
EXTRACT: note_off channel=9 note=70 velocity=0 time=0
EXTRACT: note_off channel=9 note=42 velocity=0 time=0
EXTRACT: note_off channel=3 note=68 velocity=0 time=0.012885208333333334
EXTRACT: note_off channel=3 note=65 velocity=0 time=0
EXTRACT: note_off channel=3 note=72 velocity=0 time=0.012885208333333334
EXTRACT: note_off channel=2 note=29 velocity=0 time=0.038655625
EXTRACT: note_on channel=2 note=29 velocity=125 time=0.025770416666666667
EXTRACT: note_on channel=9 note=36 velocity=99 time=0
EXTRACT: note_on channel=9 note=70 velocity=60 time=0
EXTRACT: note_on channel=3 note=72 velocity=50 time=0.012885208333333334
EXTRACT: note_on channel=3 note=68 velocity=50 time=0
EXTRACT: note_on channel=9 note=54 velocity=69 time=0
EXTRACT: note_on channel=3 note=65 velocity=50 time=0.012885208333333334
EXTRACT: note_on channel=3 note=60 velocity=50 time=0
EXTRACT: control_change channel=3 control=64 value=0 time=0.012885208333333334
EXTRACT: note_off channel=3 note=72 velocity=0 time=0.025770416666666667
EXTRACT: note_off channel=9 note=54 velocity=0 time=0
EXTRACT: note_off channel=9 note=70 velocity=0 time=0
EXTRACT: note_off channel=9 note=36 velocity=0 time=0
EXTRACT: note_off channel=3 note=65 velocity=0 time=0.012885208333333334
EXTRACT: note_off channel=3 note=68 velocity=0 time=0
EXTRACT: note_off channel=3 note=60 velocity=0 time=0.012885208333333334
EXTRACT: control_change channel=3 control=64 value=127 time=0
EXTRACT: note_on channel=9 note=40 velocity=100 time=0.06442604166666667
EXTRACT: note_on channel=9 note=90 velocity=127 time=0.012885208333333334
EXTRACT: note_on channel=9 note=44 velocity=71 time=0
EXTRACT: note_on channel=9 note=42 velocity=71 time=0
EXTRACT: note_on channel=9 note=70 velocity=40 time=0
EXTRACT: note_on channel=9 note=54 velocity=127 time=0
EXTRACT: note_off channel=10 note=65 velocity=0 time=0
EXTRACT: note_on channel=3 note=60 velocity=75 time=0.012885208333333334
EXTRACT: note_on channel=3 note=65 velocity=75 time=0
EXTRACT: note_on channel=3 note=68 velocity=75 time=0.012885208333333334
EXTRACT: note_on channel=3 note=72 velocity=75 time=0
EXTRACT: note_on channel=10 note=60 velocity=106 time=0
EXTRACT: note_off channel=3 note=60 velocity=0 time=0.025770416666666667
EXTRACT: note_off channel=9 note=54 velocity=0 time=0
EXTRACT: note_off channel=9 note=70 velocity=0 time=0
EXTRACT: note_off channel=9 note=42 velocity=0 time=0
EXTRACT: note_off channel=9 note=44 velocity=0 time=0
EXTRACT: note_off channel=3 note=65 velocity=0 time=0.012885208333333334
EXTRACT: note_off channel=3 note=72 velocity=0 time=0.012885208333333334
EXTRACT: note_off channel=3 note=68 velocity=0 time=0
EXTRACT: note_off channel=10 note=60 velocity=0 time=0.038655625
EXTRACT: note_off channel=2 note=29 velocity=0 time=0.012885208333333334
EXTRACT: note_off channel=9 note=90 velocity=0 time=0
EXTRACT: note_off channel=9 note=40 velocity=0 time=0
EXTRACT: note_on channel=3 note=72 velocity=54 time=0.012885208333333334
EXTRACT: note_on channel=9 note=70 velocity=65 time=0
EXTRACT: note_on channel=9 note=54 velocity=64 time=0
EXTRACT: note_on channel=3 note=68 velocity=54 time=0.012885208333333334
EXTRACT: note_on channel=3 note=65 velocity=54 time=0.012885208333333334
EXTRACT: note_on channel=10 note=60 velocity=87 time=0
EXTRACT: note_on channel=3 note=60 velocity=54 time=0.012885208333333334
EXTRACT: note_off channel=3 note=72 velocity=0 time=0.025770416666666667
EXTRACT: note_off channel=9 note=54 velocity=0 time=0
EXTRACT: note_off channel=9 note=70 velocity=0 time=0
EXTRACT: note_off channel=3 note=68 velocity=0 time=0.012885208333333334
EXTRACT: note_off channel=3 note=65 velocity=0 time=0.012885208333333334
EXTRACT: note_off channel=3 note=60 velocity=0 time=0.012885208333333334
EXTRACT: note_off channel=10 note=60 velocity=0 time=0.012885208333333334
EXTRACT: note_on channel=3 note=60 velocity=50 time=0.038655625
EXTRACT: note_on channel=9 note=42 velocity=40 time=0
EXTRACT: note_on channel=9 note=70 velocity=110 time=0
EXTRACT: note_on channel=3 note=65 velocity=50 time=0.012885208333333334
EXTRACT: note_on channel=9 note=54 velocity=111 time=0
EXTRACT: note_on channel=3 note=68 velocity=50 time=0.012885208333333334
EXTRACT: note_on channel=3 note=72 velocity=50 time=0
EXTRACT: note_on channel=10 note=60 velocity=87 time=0
EXTRACT: note_off channel=3 note=60 velocity=0 time=0.038655625
EXTRACT: note_off channel=9 note=54 velocity=0 time=0
EXTRACT: note_off channel=9 note=70 velocity=0 time=0
EXTRACT: note_off channel=9 note=42 velocity=0 time=0
EXTRACT: note_off channel=3 note=68 velocity=0 time=0.012885208333333334
EXTRACT: note_off channel=3 note=65 velocity=0 time=0
EXTRACT: note_off channel=3 note=72 velocity=0 time=0.012885208333333334
EXTRACT: note_on channel=3 note=72 velocity=69 time=0.06442604166666667
EXTRACT: note_on channel=9 note=70 velocity=64 time=0
EXTRACT: note_on channel=9 note=54 velocity=58 time=0
EXTRACT: note_on channel=3 note=68 velocity=69 time=0.012885208333333334
EXTRACT: note_on channel=3 note=65 velocity=69 time=0.012885208333333334
EXTRACT: note_on channel=10 note=62 velocity=115 time=0
EXTRACT: note_on channel=3 note=60 velocity=69 time=0.012885208333333334
EXTRACT: control_change channel=3 control=64 value=0 time=0
EXTRACT: note_off channel=10 note=60 velocity=0 time=0
EXTRACT: note_off channel=3 note=60 velocity=0 time=0.012885208333333334
EXTRACT: note_off channel=3 note=65 velocity=0 time=0
EXTRACT: note_off channel=3 note=68 velocity=0 time=0
EXTRACT: note_off channel=3 note=72 velocity=0 time=0
EXTRACT: note_off channel=4 note=65 velocity=0 time=0
EXTRACT: note_off channel=4 note=60 velocity=0 time=0
EXTRACT: note_on channel=4 note=62 velocity=127 time=0.012885208333333334
EXTRACT: note_on channel=4 note=67 velocity=127 time=0
EXTRACT: note_off channel=9 note=70 velocity=0 time=0
EXTRACT: note_off channel=9 note=54 velocity=0 time=0.012885208333333334
EXTRACT: control_change channel=3 control=64 value=127 time=0.012885208333333334
EXTRACT: note_off channel=10 note=62 velocity=0 time=0.025770416666666667
EXTRACT: note_on channel=2 note=31 velocity=110 time=0.038655625
EXTRACT: note_on channel=9 note=42 velocity=69 time=0
EXTRACT: note_on channel=3 note=62 velocity=56 time=0.012885208333333334
EXTRACT: note_on channel=3 note=67 velocity=56 time=0
EXTRACT: note_on channel=9 note=44 velocity=69 time=0
EXTRACT: note_on channel=9 note=70 velocity=40 time=0
EXTRACT: note_on channel=9 note=54 velocity=127 time=0
EXTRACT: note_on channel=9 note=36 velocity=110 time=0
EXTRACT: note_on channel=3 note=71 velocity=56 time=0.012885208333333334
EXTRACT: note_on channel=10 note=62 velocity=106 time=0
EXTRACT: note_on channel=3 note=74 velocity=52 time=0.012885208333333334
EXTRACT: note_off channel=3 note=67 velocity=0 time=0.025770416666666667
EXTRACT: note_off channel=3 note=62 velocity=0 time=0
EXTRACT: note_off channel=9 note=36 velocity=0 time=0
EXTRACT: note_off channel=9 note=54 velocity=0 time=0
EXTRACT: note_off channel=9 note=70 velocity=0 time=0
EXTRACT: note_off channel=9 note=44 velocity=0 time=0
EXTRACT: note_off channel=9 note=42 velocity=0 time=0
EXTRACT: note_off channel=3 note=71 velocity=0 time=0.012885208333333334
EXTRACT: note_off channel=3 note=74 velocity=0 time=0.025770416666666667
EXTRACT: note_on channel=3 note=62 velocity=52 time=0.051540833333333334
EXTRACT: note_on channel=9 note=70 velocity=64 time=0
EXTRACT: note_on channel=9 note=54 velocity=56 time=0
EXTRACT: note_on channel=3 note=67 velocity=52 time=0.012885208333333334
EXTRACT: note_on channel=3 note=71 velocity=52 time=0
EXTRACT: note_on channel=3 note=74 velocity=52 time=0.012885208333333334
EXTRACT: note_off channel=3 note=62 velocity=0 time=0.038655625
EXTRACT: note_off channel=9 note=54 velocity=0 time=0
EXTRACT: note_off channel=9 note=70 velocity=0 time=0
EXTRACT: note_off channel=3 note=71 velocity=0 time=0.012885208333333334
EXTRACT: note_off channel=3 note=67 velocity=0 time=0
EXTRACT: note_off channel=3 note=74 velocity=0 time=0.012885208333333334
EXTRACT: note_on channel=3 note=74 velocity=52 time=0.06442604166666667
EXTRACT: note_on channel=9 note=42 velocity=38 time=0
EXTRACT: note_on channel=9 note=70 velocity=110 time=0
EXTRACT: note_on channel=3 note=71 velocity=52 time=0.012885208333333334
EXTRACT: note_on channel=9 note=54 velocity=99 time=0
EXTRACT: note_on channel=3 note=67 velocity=52 time=0.012885208333333334
EXTRACT: note_on channel=3 note=62 velocity=52 time=0.012885208333333334
EXTRACT: note_off channel=2 note=31 velocity=0 time=0.025770416666666667
EXTRACT: note_off channel=3 note=74 velocity=0 time=0
EXTRACT: note_off channel=9 note=54 velocity=0 time=0
EXTRACT: note_off channel=9 note=70 velocity=0 time=0
EXTRACT: note_off channel=9 note=42 velocity=0 time=0
EXTRACT: note_off channel=3 note=71 velocity=0 time=0.012885208333333334
EXTRACT: note_off channel=10 note=62 velocity=0 time=0
EXTRACT: note_off channel=3 note=67 velocity=0 time=0.012885208333333334
EXTRACT: note_off channel=3 note=62 velocity=0 time=0.012885208333333334
EXTRACT: note_on channel=2 note=31 velocity=125 time=0.051540833333333334
EXTRACT: note_on channel=9 note=70 velocity=64 time=0
EXTRACT: note_on channel=9 note=54 velocity=52 time=0
EXTRACT: note_on channel=3 note=74 velocity=54 time=0.012885208333333334
EXTRACT: note_on channel=3 note=71 velocity=54 time=0
EXTRACT: note_on channel=9 note=36 velocity=123 time=0
EXTRACT: note_on channel=10 note=62 velocity=127 time=0
EXTRACT: note_on channel=3 note=67 velocity=54 time=0.012885208333333334
EXTRACT: note_on channel=3 note=62 velocity=54 time=0
EXTRACT: control_change channel=3 control=64 value=0 time=0.025770416666666667
EXTRACT: note_off channel=3 note=74 velocity=0 time=0.012885208333333334
EXTRACT: note_off channel=9 note=36 velocity=0 time=0
EXTRACT: note_off channel=9 note=54 velocity=0 time=0
EXTRACT: note_off channel=9 note=70 velocity=0 time=0
EXTRACT: note_off channel=3 note=71 velocity=0 time=0.012885208333333334
EXTRACT: note_off channel=3 note=62 velocity=0 time=0.012885208333333334
EXTRACT: note_off channel=3 note=67 velocity=0 time=0
EXTRACT: control_change channel=3 control=64 value=127 time=0.012885208333333334
EXTRACT: note_on channel=9 note=40 velocity=100 time=0.051540833333333334
EXTRACT: note_on channel=3 note=62 velocity=73 time=0.012885208333333334
EXTRACT: note_on channel=9 note=90 velocity=127 time=0
EXTRACT: note_on channel=9 note=44 velocity=71 time=0
EXTRACT: note_on channel=9 note=42 velocity=71 time=0
EXTRACT: note_on channel=9 note=70 velocity=40 time=0
EXTRACT: note_on channel=9 note=54 velocity=127 time=0
EXTRACT: note_on channel=3 note=67 velocity=73 time=0.012885208333333334
EXTRACT: note_on channel=3 note=71 velocity=73 time=0.012885208333333334
EXTRACT: note_on channel=3 note=74 velocity=73 time=0
EXTRACT: note_off channel=10 note=62 velocity=0 time=0.012885208333333334
EXTRACT: note_off channel=3 note=62 velocity=0 time=0.012885208333333334
EXTRACT: note_off channel=9 note=54 velocity=0 time=0
EXTRACT: note_off channel=9 note=70 velocity=0 time=0
EXTRACT: note_off channel=9 note=42 velocity=0 time=0
EXTRACT: note_off channel=9 note=44 velocity=0 time=0
EXTRACT: note_off channel=3 note=67 velocity=0 time=0.012885208333333334
EXTRACT: note_off channel=3 note=74 velocity=0 time=0.012885208333333334
EXTRACT: note_off channel=3 note=71 velocity=0 time=0
EXTRACT: note_on channel=10 note=62 velocity=92 time=0.025770416666666667
EXTRACT: note_off channel=9 note=90 velocity=0 time=0.025770416666666667
EXTRACT: note_off channel=9 note=40 velocity=0 time=0
EXTRACT: note_on channel=3 note=74 velocity=50 time=0.012885208333333334
EXTRACT: note_on channel=9 note=70 velocity=60 time=0
EXTRACT: note_on channel=9 note=54 velocity=64 time=0
EXTRACT: note_on channel=3 note=71 velocity=50 time=0.012885208333333334
EXTRACT: note_on channel=10 note=63 velocity=93 time=0
EXTRACT: note_on channel=3 note=67 velocity=50 time=0.012885208333333334
EXTRACT: note_on channel=3 note=62 velocity=52 time=0.012885208333333334
EXTRACT: note_off channel=10 note=62 velocity=0 time=0.012885208333333334
EXTRACT: note_off channel=3 note=74 velocity=0 time=0.012885208333333334
EXTRACT: note_off channel=9 note=54 velocity=0 time=0
EXTRACT: note_off channel=9 note=70 velocity=0 time=0
EXTRACT: note_off channel=3 note=71 velocity=0 time=0.012885208333333334
EXTRACT: note_off channel=3 note=67 velocity=0 time=0.012885208333333334
EXTRACT: note_off channel=2 note=31 velocity=0 time=0.012885208333333334
EXTRACT: note_off channel=3 note=62 velocity=0 time=0
EXTRACT: note_on channel=2 note=31 velocity=125 time=0.051540833333333334
EXTRACT: note_on channel=9 note=42 velocity=42 time=0
EXTRACT: note_on channel=9 note=70 velocity=107 time=0
EXTRACT: note_on channel=3 note=62 velocity=52 time=0.012885208333333334
EXTRACT: note_on channel=9 note=36 velocity=119 time=0
EXTRACT: note_on channel=9 note=54 velocity=101 time=0
EXTRACT: note_on channel=3 note=67 velocity=52 time=0.012885208333333334
EXTRACT: note_on channel=3 note=71 velocity=52 time=0
EXTRACT: note_on channel=3 note=74 velocity=52 time=0
EXTRACT: note_off channel=3 note=62 velocity=0 time=0.038655625
EXTRACT: note_off channel=9 note=54 velocity=0 time=0
EXTRACT: note_off channel=9 note=36 velocity=0 time=0
EXTRACT: note_off channel=9 note=70 velocity=0 time=0
EXTRACT: note_off channel=9 note=42 velocity=0 time=0
EXTRACT: note_off channel=10 note=63 velocity=0 time=0
EXTRACT: note_off channel=3 note=71 velocity=0 time=0.012885208333333334
EXTRACT: note_off channel=3 note=67 velocity=0 time=0
EXTRACT: note_off channel=3 note=74 velocity=0 time=0.012885208333333334
EXTRACT: note_on channel=3 note=74 velocity=52 time=0.06442604166666667
EXTRACT: note_on channel=9 note=70 velocity=67 time=0
EXTRACT: note_on channel=9 note=54 velocity=58 time=0
EXTRACT: note_on channel=3 note=71 velocity=52 time=0.012885208333333334
EXTRACT: note_on channel=3 note=67 velocity=52 time=0
EXTRACT: note_on channel=10 note=63 velocity=108 time=0
EXTRACT: note_on channel=3 note=62 velocity=52 time=0.012885208333333334
EXTRACT: control_change channel=3 control=64 value=0 time=0.025770416666666667
EXTRACT: note_off channel=2 note=31 velocity=0 time=0.012885208333333334
EXTRACT: note_off channel=3 note=62 velocity=0 time=0
EXTRACT: note_off channel=3 note=67 velocity=0 time=0
EXTRACT: note_off channel=3 note=71 velocity=0 time=0
EXTRACT: note_off channel=3 note=74 velocity=0 time=0
EXTRACT: note_off channel=4 note=67 velocity=0 time=0
EXTRACT: note_off channel=4 note=62 velocity=0 time=0
EXTRACT: note_on channel=4 note=60 velocity=127 time=0.012885208333333334
EXTRACT: note_on channel=4 note=63 velocity=127 time=0
EXTRACT: control_change channel=3 control=64 value=127 time=0.012885208333333334
EXTRACT: note_off channel=9 note=54 velocity=0 time=0
EXTRACT: note_off channel=9 note=70 velocity=0 time=0
EXTRACT: note_on channel=9 note=42 velocity=69 time=0.06442604166666667
EXTRACT: note_on channel=2 note=36 velocity=121 time=0.012885208333333334
EXTRACT: control_change channel=3 control=64 value=127 time=0
EXTRACT: note_on channel=9 note=44 velocity=69 time=0
EXTRACT: note_on channel=9 note=70 velocity=40 time=0
EXTRACT: note_on channel=9 note=54 velocity=127 time=0
EXTRACT: note_on channel=9 note=36 velocity=125 time=0
EXTRACT: note_on channel=3 note=60 velocity=81 time=0.012885208333333334
EXTRACT: note_on channel=3 note=63 velocity=81 time=0
EXTRACT: note_on channel=3 note=67 velocity=81 time=0.012885208333333334
EXTRACT: note_on channel=3 note=72 velocity=81 time=0
EXTRACT: note_off channel=3 note=60 velocity=0 time=0.025770416666666667
EXTRACT: note_off channel=9 note=36 velocity=0 time=0
EXTRACT: note_off channel=9 note=54 velocity=0 time=0
EXTRACT: note_off channel=9 note=70 velocity=0 time=0
EXTRACT: note_off channel=3 note=63 velocity=0 time=0.012885208333333334
EXTRACT: note_off channel=3 note=72 velocity=0 time=0.012885208333333334
EXTRACT: note_off channel=3 note=67 velocity=0 time=0
EXTRACT: note_off channel=9 note=44 velocity=0 time=0.051540833333333334
EXTRACT: note_off channel=9 note=42 velocity=0 time=0
EXTRACT: note_on channel=3 note=72 velocity=54 time=0.012885208333333334
EXTRACT: note_on channel=9 note=70 velocity=64 time=0
EXTRACT: note_on channel=9 note=54 velocity=71 time=0
EXTRACT: note_on channel=3 note=67 velocity=54 time=0.012885208333333334
EXTRACT: note_on channel=3 note=63 velocity=54 time=0.012885208333333334
EXTRACT: note_on channel=3 note=60 velocity=50 time=0.012885208333333334
EXTRACT: note_off channel=3 note=72 velocity=0 time=0.025770416666666667
EXTRACT: note_off channel=9 note=54 velocity=0 time=0
EXTRACT: note_off channel=9 note=70 velocity=0 time=0
EXTRACT: note_off channel=3 note=67 velocity=0 time=0.012885208333333334
EXTRACT: note_off channel=3 note=63 velocity=0 time=0.012885208333333334
EXTRACT: note_off channel=3 note=60 velocity=0 time=0.012885208333333334
EXTRACT: note_on channel=3 note=60 velocity=52 time=0.051540833333333334
EXTRACT: note_on channel=9 note=42 velocity=36 time=0
EXTRACT: note_on channel=9 note=70 velocity=113 time=0
EXTRACT: note_on channel=3 note=63 velocity=52 time=0.012885208333333334
EXTRACT: note_on channel=3 note=67 velocity=52 time=0
EXTRACT: note_on channel=9 note=54 velocity=117 time=0
EXTRACT: note_on channel=3 note=72 velocity=52 time=0.012885208333333334
EXTRACT: note_off channel=3 note=60 velocity=0 time=0.038655625
EXTRACT: note_off channel=9 note=54 velocity=0 time=0
EXTRACT: note_off channel=9 note=70 velocity=0 time=0
EXTRACT: note_off channel=9 note=42 velocity=0 time=0
EXTRACT: note_off channel=3 note=67 velocity=0 time=0.012885208333333334
EXTRACT: note_off channel=3 note=63 velocity=0 time=0
EXTRACT: note_off channel=3 note=72 velocity=0 time=0.012885208333333334
EXTRACT: control_change channel=10 control=0 value=0 time=0.012885208333333334
EXTRACT: control_change channel=10 control=0 value=0 time=0
EXTRACT: control_change channel=10 control=32 value=0 time=0
EXTRACT: control_change channel=10 control=0 value=0 time=0
EXTRACT: control_change channel=10 control=32 value=0 time=0
EXTRACT: program_change channel=10 program=80 time=0
EXTRACT: control_change channel=10 control=93 value=0 time=0
EXTRACT: note_off channel=2 note=36 velocity=0 time=0.025770416666666667
EXTRACT: note_on channel=2 note=36 velocity=125 time=0.025770416666666667
EXTRACT: note_on channel=9 note=36 velocity=110 time=0
EXTRACT: note_on channel=9 note=70 velocity=60 time=0
EXTRACT: note_on channel=3 note=72 velocity=50 time=0.012885208333333334
EXTRACT: note_on channel=3 note=67 velocity=50 time=0
EXTRACT: note_on channel=9 note=54 velocity=69 time=0
EXTRACT: note_on channel=3 note=63 velocity=50 time=0.012885208333333334
EXTRACT: note_on channel=3 note=60 velocity=50 time=0
EXTRACT: note_off channel=10 note=63 velocity=0 time=0
EXTRACT: control_change channel=3 control=64 value=0 time=0.012885208333333334
EXTRACT: note_off channel=3 note=72 velocity=0 time=0.025770416666666667
EXTRACT: note_off channel=9 note=54 velocity=0 time=0
EXTRACT: note_off channel=9 note=70 velocity=0 time=0
EXTRACT: note_off channel=9 note=36 velocity=0 time=0
EXTRACT: note_off channel=3 note=63 velocity=0 time=0.012885208333333334
EXTRACT: note_off channel=3 note=67 velocity=0 time=0
EXTRACT: note_off channel=3 note=60 velocity=0 time=0.012885208333333334
EXTRACT: control_change channel=3 control=64 value=127 time=0
EXTRACT: note_on channel=10 note=63 velocity=110 time=0.051540833333333334
EXTRACT: note_on channel=9 note=40 velocity=100 time=0.012885208333333334
EXTRACT: note_on channel=9 note=90 velocity=127 time=0.012885208333333334
EXTRACT: note_on channel=9 note=44 velocity=71 time=0
EXTRACT: note_on channel=9 note=42 velocity=71 time=0
EXTRACT: note_on channel=9 note=70 velocity=40 time=0
EXTRACT: note_on channel=9 note=54 velocity=127 time=0
EXTRACT: note_on channel=3 note=60 velocity=75 time=0.012885208333333334
EXTRACT: note_on channel=3 note=63 velocity=75 time=0
EXTRACT: note_on channel=3 note=67 velocity=75 time=0.012885208333333334
EXTRACT: note_on channel=3 note=72 velocity=75 time=0
EXTRACT: note_off channel=3 note=60 velocity=0 time=0.025770416666666667
EXTRACT: note_off channel=9 note=54 velocity=0 time=0
EXTRACT: note_off channel=9 note=70 velocity=0 time=0
EXTRACT: note_off channel=9 note=42 velocity=0 time=0
EXTRACT: note_off channel=9 note=44 velocity=0 time=0
EXTRACT: note_off channel=3 note=63 velocity=0 time=0.012885208333333334
EXTRACT: note_off channel=3 note=72 velocity=0 time=0.012885208333333334
EXTRACT: note_off channel=3 note=67 velocity=0 time=0
EXTRACT: note_off channel=2 note=36 velocity=0 time=0.051540833333333334
EXTRACT: note_off channel=9 note=90 velocity=0 time=0
EXTRACT: note_off channel=9 note=40 velocity=0 time=0
EXTRACT: note_off channel=10 note=63 velocity=0 time=0
EXTRACT: note_on channel=3 note=72 velocity=54 time=0.012885208333333334
EXTRACT: note_on channel=9 note=70 velocity=64 time=0
EXTRACT: note_on channel=9 note=54 velocity=64 time=0
EXTRACT: note_on channel=3 note=67 velocity=54 time=0.012885208333333334
EXTRACT: note_on channel=3 note=63 velocity=54 time=0.012885208333333334
EXTRACT: note_on channel=3 note=60 velocity=54 time=0.012885208333333334
EXTRACT: note_off channel=3 note=72 velocity=0 time=0.025770416666666667
EXTRACT: note_off channel=9 note=54 velocity=0 time=0
EXTRACT: note_off channel=9 note=70 velocity=0 time=0
EXTRACT: note_off channel=3 note=67 velocity=0 time=0.012885208333333334
EXTRACT: note_off channel=3 note=63 velocity=0 time=0.012885208333333334
EXTRACT: note_off channel=3 note=60 velocity=0 time=0.012885208333333334
EXTRACT: note_on channel=3 note=60 velocity=50 time=0.051540833333333334
EXTRACT: note_on channel=9 note=42 velocity=40 time=0
EXTRACT: note_on channel=9 note=70 velocity=110 time=0
EXTRACT: note_on channel=9 note=54 velocity=111 time=0.012885208333333334
EXTRACT: note_on channel=10 note=63 velocity=93 time=0
EXTRACT: note_on channel=3 note=63 velocity=50 time=0.012885208333333334
EXTRACT: note_on channel=3 note=67 velocity=50 time=0
EXTRACT: note_on channel=3 note=72 velocity=50 time=0
EXTRACT: note_off channel=3 note=60 velocity=0 time=0.038655625
EXTRACT: note_off channel=9 note=54 velocity=0 time=0
EXTRACT: note_off channel=9 note=70 velocity=0 time=0
EXTRACT: note_off channel=9 note=42 velocity=0 time=0
EXTRACT: note_off channel=3 note=67 velocity=0 time=0.012885208333333334
EXTRACT: note_off channel=3 note=63 velocity=0 time=0
EXTRACT: note_off channel=3 note=72 velocity=0 time=0.012885208333333334
EXTRACT: note_on channel=3 note=72 velocity=69 time=0.06442604166666667
EXTRACT: note_on channel=9 note=70 velocity=64 time=0
EXTRACT: note_on channel=9 note=54 velocity=58 time=0
EXTRACT: note_on channel=3 note=67 velocity=69 time=0.012885208333333334
EXTRACT: note_on channel=3 note=63 velocity=69 time=0
EXTRACT: note_on channel=3 note=60 velocity=69 time=0.012885208333333334
EXTRACT: control_change channel=3 control=64 value=0 time=0.012885208333333334
EXTRACT: note_off channel=3 note=72 velocity=0 time=0.025770416666666667
EXTRACT: note_off channel=9 note=54 velocity=0 time=0
EXTRACT: note_off channel=9 note=70 velocity=0 time=0
EXTRACT: note_off channel=3 note=63 velocity=0 time=0.012885208333333334
EXTRACT: note_off channel=3 note=67 velocity=0 time=0
EXTRACT: note_off channel=3 note=60 velocity=0 time=0.012885208333333334
EXTRACT: control_change channel=3 control=64 value=127 time=0
EXTRACT: note_off channel=10 note=63 velocity=0 time=0.051540833333333334
EXTRACT: note_on channel=2 note=36 velocity=110 time=0.025770416666666667
EXTRACT: note_on channel=9 note=42 velocity=69 time=0
EXTRACT: note_on channel=9 note=44 velocity=69 time=0
EXTRACT: note_on channel=9 note=36 velocity=110 time=0
EXTRACT: note_on channel=9 note=70 velocity=40 time=0
EXTRACT: note_on channel=10 note=65 velocity=111 time=0
EXTRACT: note_on channel=3 note=60 velocity=56 time=0.012885208333333334
EXTRACT: note_on channel=3 note=63 velocity=56 time=0
EXTRACT: note_on channel=3 note=67 velocity=56 time=0
EXTRACT: note_on channel=9 note=54 velocity=127 time=0
EXTRACT: note_on channel=3 note=72 velocity=52 time=0.012885208333333334
EXTRACT: note_off channel=3 note=63 velocity=0 time=0.025770416666666667
EXTRACT: note_off channel=3 note=60 velocity=0 time=0
EXTRACT: note_off channel=9 note=54 velocity=0 time=0
EXTRACT: note_off channel=9 note=70 velocity=0 time=0
EXTRACT: note_off channel=9 note=36 velocity=0 time=0
EXTRACT: note_off channel=9 note=44 velocity=0 time=0
EXTRACT: note_off channel=9 note=42 velocity=0 time=0
EXTRACT: note_off channel=3 note=67 velocity=0 time=0.012885208333333334
EXTRACT: note_off channel=3 note=72 velocity=0 time=0.025770416666666667
EXTRACT: note_off channel=10 note=65 velocity=0 time=0.012885208333333334
EXTRACT: note_on channel=3 note=60 velocity=52 time=0.038655625
EXTRACT: note_on channel=9 note=70 velocity=64 time=0
EXTRACT: note_on channel=9 note=54 velocity=56 time=0
EXTRACT: note_on channel=3 note=63 velocity=52 time=0.012885208333333334
EXTRACT: note_on channel=3 note=67 velocity=52 time=0
EXTRACT: note_on channel=3 note=72 velocity=52 time=0.012885208333333334
EXTRACT: note_off channel=3 note=60 velocity=0 time=0.038655625
EXTRACT: note_off channel=9 note=54 velocity=0 time=0
EXTRACT: note_off channel=9 note=70 velocity=0 time=0
EXTRACT: note_off channel=3 note=67 velocity=0 time=0.012885208333333334
EXTRACT: note_off channel=3 note=63 velocity=0 time=0
EXTRACT: note_off channel=3 note=72 velocity=0 time=0.012885208333333334
EXTRACT: note_on channel=10 note=65 velocity=98 time=0.051540833333333334
EXTRACT: note_on channel=9 note=36 velocity=110 time=0.012885208333333334
EXTRACT: note_on channel=9 note=42 velocity=38 time=0
EXTRACT: note_on channel=9 note=70 velocity=110 time=0
EXTRACT: note_on channel=3 note=72 velocity=52 time=0.012885208333333334
EXTRACT: note_on channel=3 note=67 velocity=52 time=0
EXTRACT: note_on channel=9 note=54 velocity=99 time=0
EXTRACT: note_on channel=3 note=63 velocity=52 time=0.012885208333333334
EXTRACT: note_on channel=3 note=60 velocity=52 time=0.012885208333333334
EXTRACT: note_off channel=3 note=72 velocity=0 time=0.025770416666666667
EXTRACT: note_off channel=9 note=54 velocity=0 time=0
EXTRACT: note_off channel=9 note=70 velocity=0 time=0
EXTRACT: note_off channel=9 note=42 velocity=0 time=0
EXTRACT: note_off channel=9 note=36 velocity=0 time=0
EXTRACT: note_off channel=3 note=67 velocity=0 time=0.012885208333333334
EXTRACT: note_off channel=3 note=63 velocity=0 time=0.012885208333333334
EXTRACT: note_off channel=3 note=60 velocity=0 time=0.012885208333333334
EXTRACT: note_off channel=2 note=36 velocity=0 time=0.038655625
EXTRACT: note_on channel=2 note=31 velocity=110 time=0.012885208333333334
EXTRACT: note_on channel=9 note=70 velocity=64 time=0
EXTRACT: note_on channel=10 note=63 velocity=101 time=0
EXTRACT: note_on channel=3 note=72 velocity=54 time=0.012885208333333334
EXTRACT: note_on channel=9 note=54 velocity=52 time=0
EXTRACT: note_off channel=10 note=65 velocity=0 time=0
EXTRACT: note_on channel=3 note=67 velocity=54 time=0.012885208333333334
EXTRACT: note_on channel=3 note=63 velocity=54 time=0
EXTRACT: note_on channel=3 note=60 velocity=54 time=0
EXTRACT: control_change channel=3 control=64 value=0 time=0.025770416666666667
EXTRACT: note_off channel=3 note=72 velocity=0 time=0.012885208333333334
EXTRACT: note_off channel=9 note=54 velocity=0 time=0
EXTRACT: note_off channel=9 note=70 velocity=0 time=0
EXTRACT: note_off channel=3 note=67 velocity=0 time=0.012885208333333334
EXTRACT: note_off channel=3 note=60 velocity=0 time=0.012885208333333334
EXTRACT: note_off channel=3 note=63 velocity=0 time=0
EXTRACT: control_change channel=3 control=64 value=127 time=0.012885208333333334
EXTRACT: note_off channel=2 note=31 velocity=0 time=0.038655625
EXTRACT: note_on channel=9 note=40 velocity=100 time=0.012885208333333334
EXTRACT: note_on channel=2 note=34 velocity=110 time=0.012885208333333334
EXTRACT: note_on channel=9 note=90 velocity=127 time=0
EXTRACT: note_on channel=9 note=44 velocity=71 time=0
EXTRACT: note_on channel=9 note=42 velocity=71 time=0
EXTRACT: note_on channel=9 note=70 velocity=40 time=0
EXTRACT: note_on channel=3 note=60 velocity=73 time=0.012885208333333334
EXTRACT: note_on channel=3 note=63 velocity=73 time=0
EXTRACT: note_on channel=9 note=54 velocity=127 time=0
EXTRACT: note_on channel=3 note=67 velocity=73 time=0.012885208333333334
EXTRACT: note_on channel=3 note=72 velocity=73 time=0
EXTRACT: note_off channel=10 note=63 velocity=0 time=0.012885208333333334
EXTRACT: note_off channel=3 note=60 velocity=0 time=0.012885208333333334
EXTRACT: note_off channel=9 note=54 velocity=0 time=0
EXTRACT: note_off channel=9 note=70 velocity=0 time=0
EXTRACT: note_off channel=9 note=42 velocity=0 time=0
EXTRACT: note_off channel=9 note=44 velocity=0 time=0
EXTRACT: note_off channel=3 note=63 velocity=0 time=0.012885208333333334
EXTRACT: note_off channel=3 note=72 velocity=0 time=0.012885208333333334
EXTRACT: note_off channel=3 note=67 velocity=0 time=0
EXTRACT: note_off channel=2 note=34 velocity=0 time=0.051540833333333334
EXTRACT: note_off channel=9 note=90 velocity=0 time=0
EXTRACT: note_off channel=9 note=40 velocity=0 time=0
EXTRACT: note_on channel=10 note=62 velocity=115 time=0
EXTRACT: note_on channel=2 note=36 velocity=110 time=0.012885208333333334
EXTRACT: note_on channel=9 note=70 velocity=73 time=0
EXTRACT: note_on channel=3 note=72 velocity=50 time=0.012885208333333334
EXTRACT: note_on channel=3 note=67 velocity=50 time=0
EXTRACT: note_on channel=9 note=54 velocity=64 time=0
EXTRACT: note_on channel=3 note=63 velocity=50 time=0.012885208333333334
EXTRACT: note_on channel=3 note=60 velocity=52 time=0.012885208333333334
EXTRACT: note_off channel=3 note=72 velocity=0 time=0.025770416666666667
EXTRACT: note_off channel=9 note=54 velocity=0 time=0
EXTRACT: note_off channel=9 note=70 velocity=0 time=0
EXTRACT: note_off channel=3 note=67 velocity=0 time=0.012885208333333334
EXTRACT: note_off channel=3 note=63 velocity=0 time=0.012885208333333334
EXTRACT: note_off channel=3 note=60 velocity=0 time=0.012885208333333334
EXTRACT: note_on channel=3 note=60 velocity=52 time=0.051540833333333334
EXTRACT: note_on channel=9 note=42 velocity=42 time=0
EXTRACT: note_on channel=9 note=70 velocity=107 time=0
EXTRACT: note_on channel=3 note=63 velocity=52 time=0.012885208333333334
EXTRACT: note_on channel=3 note=67 velocity=52 time=0
EXTRACT: note_on channel=9 note=54 velocity=101 time=0
EXTRACT: note_on channel=3 note=72 velocity=52 time=0.012885208333333334
EXTRACT: note_off channel=3 note=60 velocity=0 time=0.038655625
EXTRACT: note_off channel=9 note=54 velocity=0 time=0
EXTRACT: note_off channel=9 note=70 velocity=0 time=0
EXTRACT: note_off channel=9 note=42 velocity=0 time=0
EXTRACT: note_off channel=3 note=67 velocity=0 time=0.012885208333333334
EXTRACT: note_off channel=3 note=63 velocity=0 time=0
EXTRACT: note_off channel=3 note=72 velocity=0 time=0.012885208333333334
EXTRACT: note_off channel=10 note=62 velocity=0 time=0.025770416666666667
EXTRACT: note_on channel=3 note=72 velocity=52 time=0.038655625
EXTRACT: note_on channel=9 note=70 velocity=67 time=0
EXTRACT: note_on channel=10 note=60 velocity=106 time=0
EXTRACT: note_on channel=3 note=67 velocity=52 time=0.012885208333333334
EXTRACT: note_on channel=3 note=63 velocity=52 time=0
EXTRACT: note_on channel=9 note=54 velocity=58 time=0
EXTRACT: note_on channel=3 note=60 velocity=52 time=0.012885208333333334
EXTRACT: control_change channel=3 control=64 value=0 time=0.025770416666666667
EXTRACT: note_off channel=3 note=72 velocity=0 time=0.012885208333333334
EXTRACT: note_off channel=9 note=54 velocity=0 time=0
EXTRACT: note_off channel=9 note=70 velocity=0 time=0
EXTRACT: note_off channel=3 note=63 velocity=0 time=0.012885208333333334
EXTRACT: note_off channel=3 note=67 velocity=0 time=0
EXTRACT: note_off channel=2 note=36 velocity=0 time=0.012885208333333334
EXTRACT: note_off channel=3 note=60 velocity=0 time=0
EXTRACT: note_off channel=4 note=63 velocity=0 time=0
EXTRACT: note_off channel=4 note=60 velocity=0 time=0
EXTRACT: control_change channel=3 control=64 value=127 time=0.012885208333333334
EXTRACT: note_on channel=4 note=60 velocity=127 time=0
EXTRACT: note_on channel=4 note=65 velocity=127 time=0
EXTRACT: note_on channel=9 note=36 velocity=127 time=0.051540833333333334
EXTRACT: note_on channel=2 note=29 velocity=127 time=0.012885208333333334
EXTRACT: control_change channel=3 control=64 value=127 time=0
EXTRACT: note_on channel=9 note=44 velocity=69 time=0
EXTRACT: note_on channel=9 note=42 velocity=69 time=0
EXTRACT: note_on channel=9 note=70 velocity=40 time=0
EXTRACT: note_on channel=9 note=54 velocity=127 time=0
EXTRACT: note_on channel=3 note=60 velocity=81 time=0.012885208333333334
EXTRACT: note_on channel=3 note=65 velocity=81 time=0
EXTRACT: note_on channel=3 note=68 velocity=81 time=0.012885208333333334
EXTRACT: note_on channel=3 note=72 velocity=81 time=0
EXTRACT: note_off channel=3 note=60 velocity=0 time=0.025770416666666667
EXTRACT: note_off channel=9 note=54 velocity=0 time=0
EXTRACT: note_off channel=9 note=70 velocity=0 time=0
EXTRACT: note_off channel=3 note=65 velocity=0 time=0.012885208333333334
EXTRACT: note_off channel=3 note=72 velocity=0 time=0.012885208333333334
EXTRACT: note_off channel=3 note=68 velocity=0 time=0
EXTRACT: note_off channel=9 note=42 velocity=0 time=0.051540833333333334
EXTRACT: note_off channel=9 note=44 velocity=0 time=0
EXTRACT: note_off channel=9 note=36 velocity=0 time=0
EXTRACT: note_off channel=10 note=60 velocity=0 time=0
EXTRACT: note_on channel=3 note=72 velocity=54 time=0.012885208333333334
EXTRACT: note_on channel=9 note=70 velocity=69 time=0
EXTRACT: note_on channel=10 note=63 velocity=93 time=0
EXTRACT: note_on channel=3 note=68 velocity=54 time=0.012885208333333334
EXTRACT: note_on channel=9 note=54 velocity=71 time=0
EXTRACT: note_on channel=3 note=65 velocity=54 time=0.012885208333333334
EXTRACT: note_on channel=3 note=60 velocity=50 time=0.012885208333333334
EXTRACT: note_off channel=3 note=72 velocity=0 time=0.025770416666666667
EXTRACT: note_off channel=9 note=54 velocity=0 time=0
EXTRACT: note_off channel=9 note=70 velocity=0 time=0
EXTRACT: note_off channel=3 note=68 velocity=0 time=0.012885208333333334
EXTRACT: note_off channel=3 note=65 velocity=0 time=0.012885208333333334
EXTRACT: note_off channel=3 note=60 velocity=0 time=0.012885208333333334
EXTRACT: note_on channel=3 note=60 velocity=52 time=0.051540833333333334
EXTRACT: note_on channel=9 note=42 velocity=36 time=0
EXTRACT: note_on channel=9 note=70 velocity=113 time=0
EXTRACT: note_on channel=3 note=65 velocity=52 time=0.012885208333333334
EXTRACT: note_on channel=3 note=68 velocity=52 time=0
EXTRACT: note_on channel=9 note=54 velocity=117 time=0
EXTRACT: note_on channel=3 note=72 velocity=52 time=0.012885208333333334
EXTRACT: note_off channel=3 note=60 velocity=0 time=0.038655625
EXTRACT: note_off channel=9 note=54 velocity=0 time=0
EXTRACT: note_off channel=9 note=70 velocity=0 time=0
EXTRACT: note_off channel=9 note=42 velocity=0 time=0
EXTRACT: note_off channel=3 note=68 velocity=0 time=0.012885208333333334
EXTRACT: note_off channel=3 note=65 velocity=0 time=0
EXTRACT: note_off channel=3 note=72 velocity=0 time=0.012885208333333334
EXTRACT: control_change channel=10 control=0 value=0 time=0
EXTRACT: control_change channel=10 control=0 value=0 time=0
EXTRACT: control_change channel=10 control=32 value=0 time=0
EXTRACT: control_change channel=10 control=0 value=0 time=0
EXTRACT: control_change channel=10 control=32 value=0 time=0
EXTRACT: program_change channel=10 program=0 time=0
EXTRACT: control_change channel=10 control=93 value=0 time=0
EXTRACT: note_off channel=2 note=29 velocity=0 time=0.038655625
EXTRACT: note_on channel=2 note=29 velocity=125 time=0.025770416666666667
EXTRACT: note_on channel=9 note=36 velocity=99 time=0
EXTRACT: note_on channel=9 note=70 velocity=60 time=0
EXTRACT: note_on channel=3 note=72 velocity=50 time=0.012885208333333334
EXTRACT: note_on channel=3 note=68 velocity=50 time=0
EXTRACT: note_on channel=9 note=54 velocity=69 time=0
EXTRACT: note_on channel=3 note=65 velocity=50 time=0.012885208333333334
EXTRACT: note_on channel=3 note=60 velocity=50 time=0
EXTRACT: control_change channel=3 control=64 value=0 time=0.012885208333333334
EXTRACT: note_off channel=3 note=72 velocity=0 time=0.025770416666666667
EXTRACT: note_off channel=9 note=54 velocity=0 time=0
EXTRACT: note_off channel=9 note=70 velocity=0 time=0
EXTRACT: note_off channel=9 note=36 velocity=0 time=0
EXTRACT: note_off channel=3 note=65 velocity=0 time=0.012885208333333334
EXTRACT: note_off channel=3 note=68 velocity=0 time=0
EXTRACT: note_off channel=3 note=60 velocity=0 time=0.012885208333333334
EXTRACT: control_change channel=3 control=64 value=127 time=0
EXTRACT: note_off channel=10 note=63 velocity=0 time=0.038655625
EXTRACT: note_on channel=9 note=40 velocity=100 time=0.025770416666666667
EXTRACT: note_on channel=9 note=90 velocity=127 time=0.012885208333333334
EXTRACT: note_on channel=9 note=44 velocity=71 time=0
EXTRACT: note_on channel=9 note=42 velocity=71 time=0
EXTRACT: note_on channel=9 note=70 velocity=40 time=0
EXTRACT: note_on channel=10 note=60 velocity=115 time=0
EXTRACT: note_on channel=3 note=60 velocity=75 time=0.012885208333333334
EXTRACT: note_on channel=9 note=54 velocity=127 time=0
EXTRACT: note_on channel=3 note=65 velocity=75 time=0.012885208333333334
EXTRACT: note_on channel=3 note=68 velocity=75 time=0
EXTRACT: note_on channel=3 note=72 velocity=75 time=0
EXTRACT: note_off channel=3 note=60 velocity=0 time=0.025770416666666667
EXTRACT: note_off channel=9 note=54 velocity=0 time=0
EXTRACT: note_off channel=9 note=70 velocity=0 time=0
EXTRACT: note_off channel=9 note=42 velocity=0 time=0
EXTRACT: note_off channel=9 note=44 velocity=0 time=0
EXTRACT: note_off channel=3 note=65 velocity=0 time=0.012885208333333334
EXTRACT: note_off channel=3 note=72 velocity=0 time=0.012885208333333334
EXTRACT: note_off channel=3 note=68 velocity=0 time=0
EXTRACT: note_off channel=10 note=60 velocity=0 time=0
EXTRACT: note_off channel=2 note=29 velocity=0 time=0.051540833333333334
EXTRACT: note_off channel=9 note=90 velocity=0 time=0
EXTRACT: note_off channel=9 note=40 velocity=0 time=0
EXTRACT: note_on channel=3 note=72 velocity=54 time=0.012885208333333334
EXTRACT: note_on channel=9 note=70 velocity=65 time=0
EXTRACT: note_on channel=9 note=54 velocity=64 time=0
EXTRACT: note_on channel=3 note=68 velocity=54 time=0.012885208333333334
EXTRACT: note_on channel=10 note=60 velocity=97 time=0
EXTRACT: note_on channel=3 note=65 velocity=54 time=0.012885208333333334
EXTRACT: note_on channel=3 note=60 velocity=54 time=0.012885208333333334
EXTRACT: note_off channel=3 note=72 velocity=0 time=0.025770416666666667
EXTRACT: note_off channel=9 note=54 velocity=0 time=0
EXTRACT: note_off channel=9 note=70 velocity=0 time=0
EXTRACT: note_off channel=10 note=60 velocity=0 time=0
EXTRACT: note_off channel=3 note=68 velocity=0 time=0.012885208333333334
EXTRACT: note_off channel=3 note=65 velocity=0 time=0.012885208333333334
EXTRACT: note_off channel=3 note=60 velocity=0 time=0.012885208333333334
EXTRACT: note_on channel=3 note=60 velocity=50 time=0.051540833333333334
EXTRACT: note_on channel=9 note=42 velocity=40 time=0
EXTRACT: note_on channel=9 note=70 velocity=110 time=0
EXTRACT: note_on channel=9 note=54 velocity=111 time=0.012885208333333334
EXTRACT: note_on channel=10 note=60 velocity=98 time=0
EXTRACT: note_on channel=3 note=65 velocity=50 time=0.012885208333333334
EXTRACT: note_on channel=3 note=68 velocity=50 time=0
EXTRACT: note_on channel=3 note=72 velocity=50 time=0
EXTRACT: note_off channel=3 note=60 velocity=0 time=0.038655625
EXTRACT: note_off channel=9 note=54 velocity=0 time=0
EXTRACT: note_off channel=9 note=70 velocity=0 time=0
EXTRACT: note_off channel=9 note=42 velocity=0 time=0
EXTRACT: note_off channel=3 note=68 velocity=0 time=0.012885208333333334
EXTRACT: note_off channel=3 note=65 velocity=0 time=0
EXTRACT: note_off channel=3 note=72 velocity=0 time=0.012885208333333334
EXTRACT: note_on channel=10 note=62 velocity=113 time=0.051540833333333334
EXTRACT: note_on channel=3 note=72 velocity=69 time=0.012885208333333334
EXTRACT: note_on channel=9 note=70 velocity=64 time=0
EXTRACT: note_on channel=9 note=54 velocity=58 time=0.012885208333333334
EXTRACT: note_off channel=10 note=60 velocity=0 time=0
EXTRACT: note_on channel=3 note=68 velocity=69 time=0.012885208333333334
EXTRACT: note_on channel=3 note=65 velocity=69 time=0
EXTRACT: note_on channel=3 note=60 velocity=69 time=0.012885208333333334
EXTRACT: control_change channel=3 control=64 value=0 time=0
EXTRACT: note_off channel=3 note=60 velocity=0 time=0.012885208333333334
EXTRACT: note_off channel=3 note=65 velocity=0 time=0
EXTRACT: note_off channel=3 note=68 velocity=0 time=0
EXTRACT: note_off channel=3 note=72 velocity=0 time=0
EXTRACT: note_off channel=4 note=65 velocity=0 time=0
EXTRACT: note_off channel=4 note=60 velocity=0 time=0
EXTRACT: note_on channel=4 note=62 velocity=127 time=0.012885208333333334
EXTRACT: note_on channel=4 note=67 velocity=127 time=0
EXTRACT: note_off channel=10 note=62 velocity=0 time=0
EXTRACT: note_off channel=9 note=54 velocity=0 time=0.012885208333333334
EXTRACT: note_off channel=9 note=70 velocity=0 time=0
EXTRACT: control_change channel=3 control=64 value=127 time=0.012885208333333334
EXTRACT: note_on channel=10 note=62 velocity=127 time=0.051540833333333334
EXTRACT: note_on channel=9 note=42 velocity=69 time=0.012885208333333334
EXTRACT: note_on channel=2 note=31 velocity=110 time=0.012885208333333334
EXTRACT: note_on channel=3 note=62 velocity=56 time=0
EXTRACT: note_on channel=9 note=44 velocity=69 time=0
EXTRACT: note_on channel=9 note=70 velocity=40 time=0
EXTRACT: note_on channel=9 note=54 velocity=127 time=0
EXTRACT: note_on channel=9 note=36 velocity=110 time=0
EXTRACT: note_on channel=3 note=67 velocity=56 time=0.012885208333333334
EXTRACT: note_on channel=3 note=71 velocity=56 time=0
EXTRACT: note_on channel=3 note=74 velocity=52 time=0.012885208333333334
EXTRACT: note_off channel=3 note=67 velocity=0 time=0.025770416666666667
EXTRACT: note_off channel=3 note=62 velocity=0 time=0
EXTRACT: note_off channel=9 note=36 velocity=0 time=0
EXTRACT: note_off channel=9 note=54 velocity=0 time=0
EXTRACT: note_off channel=9 note=70 velocity=0 time=0
EXTRACT: note_off channel=9 note=44 velocity=0 time=0
EXTRACT: note_off channel=9 note=42 velocity=0 time=0
EXTRACT: note_off channel=3 note=71 velocity=0 time=0.012885208333333334
EXTRACT: note_off channel=3 note=74 velocity=0 time=0.025770416666666667
EXTRACT: note_on channel=3 note=62 velocity=52 time=0.051540833333333334
EXTRACT: note_on channel=9 note=70 velocity=56 time=0
EXTRACT: note_on channel=9 note=54 velocity=56 time=0
EXTRACT: note_on channel=3 note=67 velocity=52 time=0.012885208333333334
EXTRACT: note_on channel=3 note=71 velocity=52 time=0
EXTRACT: note_on channel=3 note=74 velocity=52 time=0.012885208333333334
EXTRACT: note_off channel=3 note=62 velocity=0 time=0.038655625
EXTRACT: note_off channel=9 note=54 velocity=0 time=0
EXTRACT: note_off channel=9 note=70 velocity=0 time=0
EXTRACT: note_off channel=3 note=71 velocity=0 time=0.012885208333333334
EXTRACT: note_off channel=3 note=67 velocity=0 time=0
EXTRACT: note_off channel=3 note=74 velocity=0 time=0.012885208333333334
EXTRACT: note_off channel=10 note=62 velocity=0 time=0.051540833333333334
EXTRACT: note_on channel=3 note=74 velocity=52 time=0.012885208333333334
EXTRACT: note_on channel=9 note=42 velocity=38 time=0
EXTRACT: note_on channel=9 note=70 velocity=110 time=0
EXTRACT: note_on channel=9 note=54 velocity=99 time=0.012885208333333334
EXTRACT: note_on channel=10 note=60 velocity=115 time=0
EXTRACT: note_on channel=3 note=71 velocity=52 time=0.012885208333333334
EXTRACT: note_on channel=3 note=67 velocity=52 time=0
EXTRACT: note_on channel=3 note=62 velocity=52 time=0.012885208333333334
EXTRACT: note_off channel=2 note=31 velocity=0 time=0.025770416666666667
EXTRACT: note_off channel=3 note=74 velocity=0 time=0
EXTRACT: note_off channel=9 note=54 velocity=0 time=0
EXTRACT: note_off channel=9 note=70 velocity=0 time=0
EXTRACT: note_off channel=9 note=42 velocity=0 time=0
EXTRACT: note_off channel=3 note=71 velocity=0 time=0.012885208333333334
EXTRACT: note_off channel=3 note=67 velocity=0 time=0.012885208333333334
EXTRACT: note_off channel=3 note=62 velocity=0 time=0.012885208333333334
EXTRACT: note_on channel=2 note=31 velocity=125 time=0.051540833333333334
EXTRACT: note_on channel=9 note=70 velocity=64 time=0
EXTRACT: note_on channel=10 note=62 velocity=127 time=0
EXTRACT: note_on channel=3 note=74 velocity=54 time=0.012885208333333334
EXTRACT: note_on channel=9 note=36 velocity=123 time=0
EXTRACT: note_on channel=9 note=54 velocity=52 time=0
EXTRACT: note_on channel=3 note=71 velocity=54 time=0.012885208333333334
EXTRACT: note_on channel=3 note=67 velocity=54 time=0
EXTRACT: note_on channel=3 note=62 velocity=54 time=0
EXTRACT: note_off channel=10 note=60 velocity=0 time=0
EXTRACT: control_change channel=3 control=64 value=0 time=0.025770416666666667
EXTRACT: note_off channel=3 note=74 velocity=0 time=0.012885208333333334
EXTRACT: note_off channel=9 note=54 velocity=0 time=0
EXTRACT: note_off channel=9 note=36 velocity=0 time=0
EXTRACT: note_off channel=9 note=70 velocity=0 time=0
EXTRACT: note_off channel=3 note=71 velocity=0 time=0.012885208333333334
EXTRACT: note_off channel=3 note=62 velocity=0 time=0.012885208333333334
EXTRACT: note_off channel=3 note=67 velocity=0 time=0
EXTRACT: control_change channel=3 control=64 value=127 time=0.012885208333333334
EXTRACT: note_on channel=9 note=40 velocity=100 time=0.051540833333333334
EXTRACT: note_on channel=3 note=62 velocity=73 time=0.012885208333333334
EXTRACT: note_on channel=9 note=90 velocity=127 time=0
EXTRACT: note_on channel=9 note=44 velocity=71 time=0
EXTRACT: note_on channel=9 note=42 velocity=71 time=0
EXTRACT: note_on channel=9 note=70 velocity=40 time=0
EXTRACT: note_on channel=9 note=54 velocity=127 time=0
EXTRACT: note_on channel=3 note=67 velocity=73 time=0.012885208333333334
EXTRACT: note_on channel=3 note=71 velocity=73 time=0.012885208333333334
EXTRACT: note_on channel=3 note=74 velocity=73 time=0
EXTRACT: note_off channel=3 note=62 velocity=0 time=0.025770416666666667
EXTRACT: note_off channel=9 note=54 velocity=0 time=0
EXTRACT: note_off channel=9 note=70 velocity=0 time=0
EXTRACT: note_off channel=9 note=42 velocity=0 time=0
EXTRACT: note_off channel=9 note=44 velocity=0 time=0
EXTRACT: note_off channel=3 note=67 velocity=0 time=0.012885208333333334
EXTRACT: note_off channel=3 note=74 velocity=0 time=0.012885208333333334
EXTRACT: note_off channel=3 note=71 velocity=0 time=0
EXTRACT: note_off channel=9 note=90 velocity=0 time=0.051540833333333334
EXTRACT: note_off channel=9 note=40 velocity=0 time=0
EXTRACT: note_off channel=10 note=62 velocity=0 time=0
EXTRACT: note_on channel=3 note=74 velocity=50 time=0.012885208333333334
EXTRACT: note_on channel=9 note=70 velocity=65 time=0
EXTRACT: note_on channel=9 note=54 velocity=64 time=0
EXTRACT: note_on channel=3 note=71 velocity=50 time=0.012885208333333334
EXTRACT: note_on channel=10 note=63 velocity=110 time=0
EXTRACT: note_on channel=3 note=67 velocity=50 time=0.012885208333333334
EXTRACT: note_on channel=3 note=62 velocity=52 time=0.012885208333333334
EXTRACT: note_off channel=3 note=74 velocity=0 time=0.025770416666666667
EXTRACT: note_off channel=9 note=54 velocity=0 time=0
EXTRACT: note_off channel=9 note=70 velocity=0 time=0
EXTRACT: note_off channel=3 note=71 velocity=0 time=0.012885208333333334
EXTRACT: note_off channel=3 note=67 velocity=0 time=0.012885208333333334
EXTRACT: note_off channel=2 note=31 velocity=0 time=0.012885208333333334
EXTRACT: note_off channel=3 note=62 velocity=0 time=0
EXTRACT: note_on channel=2 note=31 velocity=125 time=0.051540833333333334
EXTRACT: note_on channel=9 note=42 velocity=42 time=0
EXTRACT: note_on channel=3 note=62 velocity=52 time=0.012885208333333334
EXTRACT: note_on channel=9 note=70 velocity=107 time=0
EXTRACT: note_on channel=9 note=36 velocity=119 time=0
EXTRACT: note_on channel=9 note=54 velocity=101 time=0
EXTRACT: note_on channel=3 note=67 velocity=52 time=0.012885208333333334
EXTRACT: note_on channel=3 note=71 velocity=52 time=0
EXTRACT: note_on channel=3 note=74 velocity=52 time=0
EXTRACT: note_off channel=3 note=62 velocity=0 time=0.038655625
EXTRACT: note_off channel=9 note=54 velocity=0 time=0
EXTRACT: note_off channel=9 note=36 velocity=0 time=0
EXTRACT: note_off channel=9 note=70 velocity=0 time=0
EXTRACT: note_off channel=9 note=42 velocity=0 time=0
EXTRACT: note_off channel=10 note=63 velocity=0 time=0
EXTRACT: note_off channel=3 note=71 velocity=0 time=0.012885208333333334
EXTRACT: note_off channel=3 note=67 velocity=0 time=0
EXTRACT: note_off channel=3 note=74 velocity=0 time=0.012885208333333334
EXTRACT: note_on channel=3 note=74 velocity=52 time=0.06442604166666667
EXTRACT: note_on channel=9 note=70 velocity=67 time=0
EXTRACT: note_on channel=3 note=71 velocity=52 time=0.012885208333333334
EXTRACT: note_on channel=9 note=54 velocity=58 time=0
EXTRACT: note_on channel=10 note=63 velocity=118 time=0
EXTRACT: note_on channel=3 note=67 velocity=52 time=0.012885208333333334
EXTRACT: note_on channel=3 note=62 velocity=52 time=0
EXTRACT: note_off channel=2 note=31 velocity=0 time=0.025770416666666667
EXTRACT: note_off channel=3 note=62 velocity=0 time=0
EXTRACT: note_off channel=3 note=67 velocity=0 time=0
EXTRACT: note_off channel=3 note=71 velocity=0 time=0
EXTRACT: note_off channel=3 note=74 velocity=0 time=0
EXTRACT: control_change channel=3 control=64 value=0 time=0
EXTRACT: note_off channel=4 note=62 velocity=0 time=0
EXTRACT: note_off channel=4 note=67 velocity=0 time=0.012885208333333334
EXTRACT: note_on channel=4 note=60 velocity=127 time=0
EXTRACT: note_on channel=4 note=63 velocity=127 time=0
EXTRACT: control_change channel=3 control=64 value=127 time=0.012885208333333334
EXTRACT: control_change channel=3 control=64 value=0 time=0
EXTRACT: note_off channel=9 note=54 velocity=0 time=0
EXTRACT: note_off channel=9 note=70 velocity=0 time=0
EXTRACT: control_change channel=3 control=64 value=127 time=0.012885208333333334
EXTRACT: note_on channel=2 note=36 velocity=121 time=0.07731125
EXTRACT: control_change channel=3 control=64 value=127 time=0
EXTRACT: note_on channel=9 note=42 velocity=69 time=0
EXTRACT: note_on channel=9 note=44 velocity=69 time=0
EXTRACT: note_on channel=9 note=70 velocity=40 time=0
EXTRACT: note_on channel=9 note=54 velocity=127 time=0
EXTRACT: note_on channel=9 note=36 velocity=125 time=0
EXTRACT: note_on channel=3 note=60 velocity=81 time=0.012885208333333334
EXTRACT: note_on channel=3 note=63 velocity=81 time=0
EXTRACT: note_on channel=3 note=67 velocity=81 time=0.012885208333333334
EXTRACT: note_on channel=3 note=72 velocity=81 time=0
EXTRACT: note_off channel=3 note=60 velocity=0 time=0.025770416666666667
EXTRACT: note_off channel=9 note=36 velocity=0 time=0
EXTRACT: note_off channel=9 note=54 velocity=0 time=0
EXTRACT: note_off channel=9 note=70 velocity=0 time=0
EXTRACT: note_off channel=3 note=63 velocity=0 time=0.012885208333333334
EXTRACT: note_off channel=3 note=72 velocity=0 time=0.012885208333333334
EXTRACT: note_off channel=3 note=67 velocity=0 time=0
EXTRACT: note_off channel=9 note=44 velocity=0 time=0.051540833333333334
EXTRACT: note_off channel=9 note=42 velocity=0 time=0
EXTRACT: note_on channel=3 note=72 velocity=54 time=0.012885208333333334
EXTRACT: note_on channel=9 note=70 velocity=65 time=0
EXTRACT: note_on channel=9 note=54 velocity=71 time=0
EXTRACT: note_on channel=3 note=67 velocity=54 time=0.012885208333333334
EXTRACT: note_on channel=3 note=63 velocity=54 time=0.012885208333333334
EXTRACT: note_on channel=3 note=60 velocity=50 time=0.012885208333333334
EXTRACT: note_off channel=3 note=72 velocity=0 time=0.025770416666666667
EXTRACT: note_off channel=9 note=54 velocity=0 time=0
EXTRACT: note_off channel=9 note=70 velocity=0 time=0
EXTRACT: note_off channel=3 note=67 velocity=0 time=0.012885208333333334
EXTRACT: note_off channel=3 note=63 velocity=0 time=0.012885208333333334
EXTRACT: note_off channel=3 note=60 velocity=0 time=0.012885208333333334
EXTRACT: note_on channel=3 note=60 velocity=52 time=0.051540833333333334
EXTRACT: note_on channel=9 note=42 velocity=36 time=0
EXTRACT: note_on channel=9 note=70 velocity=113 time=0
EXTRACT: note_on channel=3 note=63 velocity=52 time=0.012885208333333334
EXTRACT: note_on channel=3 note=67 velocity=52 time=0
EXTRACT: note_on channel=9 note=54 velocity=117 time=0
EXTRACT: note_on channel=3 note=72 velocity=52 time=0.012885208333333334
EXTRACT: control_change channel=10 control=0 value=0 time=0
EXTRACT: control_change channel=10 control=0 value=0 time=0
EXTRACT: control_change channel=10 control=32 value=0 time=0
EXTRACT: control_change channel=10 control=0 value=0 time=0
EXTRACT: control_change channel=10 control=32 value=0 time=0
EXTRACT: program_change channel=10 program=80 time=0
EXTRACT: control_change channel=10 control=93 value=0 time=0
EXTRACT: note_off channel=3 note=60 velocity=0 time=0.038655625
EXTRACT: note_off channel=9 note=54 velocity=0 time=0
EXTRACT: note_off channel=9 note=70 velocity=0 time=0
EXTRACT: note_off channel=9 note=42 velocity=0 time=0
EXTRACT: note_off channel=3 note=67 velocity=0 time=0.012885208333333334
EXTRACT: note_off channel=3 note=63 velocity=0 time=0
EXTRACT: note_off channel=3 note=72 velocity=0 time=0.012885208333333334
EXTRACT: note_off channel=2 note=36 velocity=0 time=0.038655625
EXTRACT: note_on channel=2 note=36 velocity=125 time=0.025770416666666667
EXTRACT: note_on channel=9 note=36 velocity=110 time=0
EXTRACT: note_on channel=9 note=70 velocity=60 time=0
EXTRACT: note_on channel=3 note=72 velocity=50 time=0.012885208333333334
EXTRACT: note_on channel=3 note=67 velocity=50 time=0
EXTRACT: note_on channel=9 note=54 velocity=69 time=0
EXTRACT: note_on channel=3 note=63 velocity=50 time=0.012885208333333334
EXTRACT: note_on channel=3 note=60 velocity=50 time=0
EXTRACT: control_change channel=3 control=64 value=0 time=0.012885208333333334
EXTRACT: note_off channel=3 note=72 velocity=0 time=0.025770416666666667
EXTRACT: note_off channel=9 note=54 velocity=0 time=0
EXTRACT: note_off channel=9 note=70 velocity=0 time=0
EXTRACT: note_off channel=9 note=36 velocity=0 time=0
EXTRACT: note_off channel=10 note=63 velocity=0 time=0
EXTRACT: note_off channel=3 note=63 velocity=0 time=0.012885208333333334
EXTRACT: note_off channel=3 note=67 velocity=0 time=0
EXTRACT: note_off channel=3 note=60 velocity=0 time=0.012885208333333334
EXTRACT: control_change channel=3 control=64 value=127 time=0
EXTRACT: note_on channel=9 note=40 velocity=100 time=0.06442604166666667
EXTRACT: note_on channel=9 note=90 velocity=127 time=0.012885208333333334
EXTRACT: note_on channel=9 note=44 velocity=71 time=0
EXTRACT: note_on channel=9 note=42 velocity=71 time=0
EXTRACT: note_on channel=9 note=70 velocity=40 time=0
EXTRACT: note_on channel=9 note=54 velocity=127 time=0
EXTRACT: note_on channel=3 note=60 velocity=75 time=0.012885208333333334
EXTRACT: note_on channel=10 note=63 velocity=110 time=0
EXTRACT: note_on channel=3 note=63 velocity=75 time=0.012885208333333334
EXTRACT: note_on channel=3 note=67 velocity=75 time=0
EXTRACT: note_on channel=3 note=72 velocity=75 time=0
EXTRACT: note_off channel=3 note=60 velocity=0 time=0.025770416666666667
EXTRACT: note_off channel=9 note=54 velocity=0 time=0
EXTRACT: note_off channel=9 note=70 velocity=0 time=0
EXTRACT: note_off channel=9 note=42 velocity=0 time=0
EXTRACT: note_off channel=9 note=44 velocity=0 time=0
EXTRACT: note_off channel=3 note=63 velocity=0 time=0.012885208333333334
EXTRACT: note_off channel=3 note=72 velocity=0 time=0.012885208333333334
EXTRACT: note_off channel=3 note=67 velocity=0 time=0
EXTRACT: note_off channel=2 note=36 velocity=0 time=0.051540833333333334
EXTRACT: note_off channel=9 note=90 velocity=0 time=0
EXTRACT: note_off channel=9 note=40 velocity=0 time=0
EXTRACT: note_on channel=3 note=72 velocity=54 time=0.012885208333333334
EXTRACT: note_on channel=9 note=70 velocity=65 time=0
EXTRACT: note_on channel=9 note=54 velocity=64 time=0
EXTRACT: note_on channel=3 note=67 velocity=54 time=0.012885208333333334
EXTRACT: note_on channel=3 note=63 velocity=54 time=0.012885208333333334
EXTRACT: note_on channel=3 note=60 velocity=54 time=0.012885208333333334
EXTRACT: note_off channel=3 note=72 velocity=0 time=0.025770416666666667
EXTRACT: note_off channel=9 note=54 velocity=0 time=0
EXTRACT: note_off channel=9 note=70 velocity=0 time=0
EXTRACT: note_off channel=3 note=67 velocity=0 time=0.012885208333333334
EXTRACT: note_off channel=3 note=63 velocity=0 time=0.012885208333333334
EXTRACT: note_off channel=3 note=60 velocity=0 time=0.012885208333333334
EXTRACT: note_off channel=10 note=63 velocity=0 time=0
EXTRACT: note_on channel=3 note=60 velocity=46 time=0.051540833333333334
EXTRACT: note_on channel=9 note=70 velocity=24 time=0
EXTRACT: note_on channel=3 note=63 velocity=46 time=0.012885208333333334
EXTRACT: note_on channel=3 note=67 velocity=46 time=0
EXTRACT: note_on channel=3 note=72 velocity=46 time=0.012885208333333334
EXTRACT: note_on channel=10 note=63 velocity=101 time=0
EXTRACT: note_off channel=3 note=60 velocity=0 time=0.038655625
EXTRACT: note_off channel=9 note=70 velocity=0 time=0
EXTRACT: note_off channel=3 note=67 velocity=0 time=0.012885208333333334
EXTRACT: note_off channel=3 note=63 velocity=0 time=0
EXTRACT: note_off channel=3 note=72 velocity=0 time=0.012885208333333334
EXTRACT: note_on channel=3 note=72 velocity=77 time=0.06442604166666667
EXTRACT: note_on channel=9 note=36 velocity=110 time=0
EXTRACT: note_on channel=9 note=70 velocity=64 time=0
EXTRACT: note_on channel=3 note=67 velocity=77 time=0.012885208333333334
EXTRACT: note_on channel=3 note=63 velocity=77 time=0
EXTRACT: note_on channel=3 note=60 velocity=77 time=0.012885208333333334
EXTRACT: note_off channel=3 note=72 velocity=0 time=0.038655625
EXTRACT: note_off channel=9 note=70 velocity=0 time=0
EXTRACT: note_off channel=9 note=36 velocity=0 time=0
EXTRACT: note_off channel=3 note=63 velocity=0 time=0.012885208333333334
EXTRACT: note_off channel=3 note=67 velocity=0 time=0
EXTRACT: note_off channel=3 note=60 velocity=0 time=0.012885208333333334
EXTRACT: note_on channel=9 note=40 velocity=100 time=0.06442604166666667
EXTRACT: note_on channel=9 note=90 velocity=125 time=0
EXTRACT: note_on channel=2 note=36 velocity=110 time=0.012885208333333334
EXTRACT: note_on channel=4 note=60 velocity=116 time=0
EXTRACT: note_on channel=9 note=70 velocity=110 time=0
EXTRACT: note_on channel=9 note=44 velocity=40 time=0
EXTRACT: note_on channel=10 note=65 velocity=106 time=0.012885208333333334
EXTRACT: note_off channel=10 note=63 velocity=0 time=0.012885208333333334
EXTRACT: note_off channel=4 note=60 velocity=0 time=0.025770416666666667
EXTRACT: note_off channel=9 note=44 velocity=0 time=0
EXTRACT: note_off channel=9 note=70 velocity=0 time=0
EXTRACT: note_off channel=9 note=90 velocity=0 time=0
EXTRACT: note_off channel=9 note=40 velocity=0 time=0
EXTRACT: note_on channel=3 note=60 velocity=93 time=0.09019645833333334
EXTRACT: note_on channel=9 note=70 velocity=10 time=0
EXTRACT: note_on channel=3 note=63 velocity=93 time=0.012885208333333334
EXTRACT: note_on channel=3 note=67 velocity=93 time=0
EXTRACT: note_on channel=3 note=72 velocity=93 time=0.012885208333333334
EXTRACT: note_off channel=10 note=65 velocity=0 time=0.025770416666666667
EXTRACT: note_off channel=3 note=60 velocity=0 time=0.012885208333333334
EXTRACT: note_off channel=9 note=70 velocity=0 time=0
EXTRACT: note_off channel=3 note=67 velocity=0 time=0.012885208333333334
EXTRACT: note_off channel=3 note=63 velocity=0 time=0
EXTRACT: note_off channel=3 note=72 velocity=0 time=0.012885208333333334
EXTRACT: note_on channel=10 note=65 velocity=88 time=0.051540833333333334
EXTRACT: note_on channel=9 note=40 velocity=100 time=0.012885208333333334
EXTRACT: note_on channel=9 note=90 velocity=123 time=0
EXTRACT: note_on channel=9 note=70 velocity=24 time=0
EXTRACT: note_on channel=3 note=72 velocity=44 time=0.012885208333333334
EXTRACT: note_on channel=3 note=67 velocity=44 time=0
EXTRACT: note_on channel=3 note=63 velocity=44 time=0.012885208333333334
EXTRACT: note_on channel=3 note=60 velocity=44 time=0.012885208333333334
EXTRACT: note_off channel=2 note=36 velocity=0 time=0.025770416666666667
EXTRACT: note_off channel=3 note=72 velocity=0 time=0
EXTRACT: note_off channel=9 note=70 velocity=0 time=0
EXTRACT: note_off channel=9 note=90 velocity=0 time=0
EXTRACT: note_off channel=9 note=40 velocity=0 time=0
EXTRACT: note_off channel=3 note=67 velocity=0 time=0.012885208333333334
EXTRACT: note_off channel=3 note=63 velocity=0 time=0.012885208333333334
EXTRACT: note_off channel=3 note=60 velocity=0 time=0.012885208333333334
EXTRACT: note_on channel=10 note=63 velocity=108 time=0.012885208333333334
EXTRACT: note_off channel=10 note=65 velocity=0 time=0.012885208333333334
EXTRACT: note_on channel=2 note=36 velocity=125 time=0.025770416666666667
EXTRACT: note_on channel=4 note=60 velocity=113 time=0
EXTRACT: note_on channel=9 note=36 velocity=110 time=0
EXTRACT: note_on channel=9 note=70 velocity=64 time=0
EXTRACT: note_off channel=4 note=60 velocity=0 time=0.051540833333333334
EXTRACT: note_off channel=9 note=70 velocity=0 time=0.012885208333333334
EXTRACT: note_off channel=9 note=36 velocity=0 time=0
EXTRACT: note_on channel=9 note=40 velocity=40 time=0.012885208333333334
EXTRACT: note_off channel=9 note=40 velocity=0 time=0.012885208333333334
EXTRACT: note_on channel=9 note=40 velocity=60 time=0.025770416666666667
EXTRACT: note_off channel=9 note=40 velocity=0 time=0.012885208333333334
EXTRACT: note_on channel=9 note=40 velocity=100 time=0.025770416666666667
EXTRACT: note_on channel=3 note=60 velocity=83 time=0.012885208333333334
EXTRACT: note_on channel=3 note=63 velocity=83 time=0
EXTRACT: note_on channel=9 note=90 velocity=127 time=0
EXTRACT: note_on channel=9 note=44 velocity=71 time=0
EXTRACT: note_on channel=9 note=70 velocity=110 time=0
EXTRACT: note_on channel=3 note=67 velocity=83 time=0.012885208333333334
EXTRACT: note_on channel=3 note=72 velocity=83 time=0.012885208333333334
EXTRACT: note_off channel=3 note=63 velocity=0 time=0.025770416666666667
EXTRACT: note_off channel=3 note=60 velocity=0 time=0
EXTRACT: note_off channel=9 note=70 velocity=0 time=0
EXTRACT: note_off channel=9 note=44 velocity=0 time=0
EXTRACT: note_off channel=3 note=67 velocity=0 time=0.012885208333333334
EXTRACT: note_off channel=3 note=72 velocity=0 time=0.025770416666666667
EXTRACT: note_off channel=9 note=90 velocity=0 time=0.038655625
EXTRACT: note_off channel=9 note=40 velocity=0 time=0
EXTRACT: note_on channel=3 note=72 velocity=44 time=0.012885208333333334
EXTRACT: note_on channel=9 note=47 velocity=110 time=0
EXTRACT: note_on channel=9 note=70 velocity=10 time=0
EXTRACT: note_on channel=3 note=67 velocity=44 time=0.012885208333333334
EXTRACT: note_on channel=10 note=62 velocity=104 time=0
EXTRACT: note_on channel=3 note=63 velocity=44 time=0.012885208333333334
EXTRACT: note_on channel=3 note=60 velocity=44 time=0
EXTRACT: note_off channel=10 note=63 velocity=0 time=0
EXTRACT: note_off channel=3 note=72 velocity=0 time=0.038655625
EXTRACT: note_off channel=9 note=70 velocity=0 time=0
EXTRACT: note_off channel=9 note=47 velocity=0 time=0
EXTRACT: note_off channel=3 note=67 velocity=0 time=0.012885208333333334
EXTRACT: note_off channel=3 note=60 velocity=0 time=0.012885208333333334
EXTRACT: note_off channel=3 note=63 velocity=0 time=0
EXTRACT: note_off channel=2 note=36 velocity=0 time=0.012885208333333334
EXTRACT: note_on channel=2 note=36 velocity=125 time=0.051540833333333334
EXTRACT: note_on channel=9 note=45 velocity=110 time=0
EXTRACT: note_on channel=9 note=70 velocity=22 time=0
EXTRACT: note_on channel=4 note=60 velocity=96 time=0.012885208333333334
EXTRACT: note_off channel=4 note=60 velocity=0 time=0.025770416666666667
EXTRACT: note_off channel=9 note=70 velocity=0 time=0.025770416666666667
EXTRACT: note_off channel=9 note=45 velocity=0 time=0
EXTRACT: note_on channel=9 note=36 velocity=91 time=0.09019645833333334
EXTRACT: note_on channel=9 note=55 velocity=85 time=0
EXTRACT: note_on channel=9 note=70 velocity=67 time=0
EXTRACT: note_off channel=10 note=62 velocity=0 time=0
EXTRACT: note_on channel=4 note=60 velocity=81 time=0.012885208333333334
EXTRACT: note_on channel=10 note=60 velocity=115 time=0
EXTRACT: note_off channel=2 note=36 velocity=0 time=0.038655625
EXTRACT: control_change channel=3 control=64 value=0 time=0
EXTRACT: note_off channel=4 note=60 velocity=0 time=0
EXTRACT: note_off channel=4 note=60 velocity=0 time=0
EXTRACT: note_off channel=4 note=63 velocity=0 time=0
EXTRACT: control_change channel=4 control=0 value=0 time=0
EXTRACT: control_change channel=4 control=0 value=0 time=0
EXTRACT: control_change channel=4 control=32 value=0 time=0
EXTRACT: control_change channel=4 control=0 value=0 time=0
EXTRACT: control_change channel=4 control=32 value=0 time=0
EXTRACT: program_change channel=4 program=89 time=0
EXTRACT: control_change channel=3 control=64 value=127 time=0.012885208333333334
EXTRACT: note_off channel=9 note=70 velocity=0 time=0
EXTRACT: note_off channel=9 note=55 velocity=0 time=0
EXTRACT: note_off channel=9 note=36 velocity=0 time=0
EXTRACT: control_change channel=3 control=64 value=0 time=0.07731125
EXTRACT: control_change channel=4 control=0 value=0 time=0
EXTRACT: control_change channel=4 control=0 value=0 time=0
EXTRACT: control_change channel=4 control=32 value=0 time=0
EXTRACT: control_change channel=4 control=0 value=0 time=0
EXTRACT: control_change channel=4 control=32 value=0 time=0
EXTRACT: program_change channel=4 program=50 time=0
EXTRACT: note_on channel=4 note=63 velocity=127 time=0.025770416666666667
EXTRACT: program_change channel=9 program=0 time=0
EXTRACT: note_on channel=9 note=49 velocity=90 time=0
EXTRACT: program_change channel=9 program=32 time=0
EXTRACT: note_off channel=9 note=49 velocity=0 time=0.0016106510416666667
EXTRACT: note_on channel=4 note=68 velocity=127 time=0.011274557291666668
EXTRACT: note_on channel=9 note=36 velocity=127 time=0
EXTRACT: note_on channel=9 note=44 velocity=69 time=0
EXTRACT: note_on channel=9 note=42 velocity=69 time=0
EXTRACT: note_on channel=2 note=32 velocity=127 time=0.012885208333333334
EXTRACT: control_change channel=3 control=64 value=127 time=0
EXTRACT: note_on channel=3 note=63 velocity=81 time=0
EXTRACT: note_on channel=9 note=70 velocity=40 time=0
EXTRACT: note_on channel=9 note=54 velocity=127 time=0
EXTRACT: note_on channel=3 note=68 velocity=81 time=0.012885208333333334
EXTRACT: note_off channel=3 note=63 velocity=0 time=0.012885208333333334
EXTRACT: note_on channel=3 note=72 velocity=81 time=0
EXTRACT: note_on channel=3 note=75 velocity=81 time=0
EXTRACT: note_off channel=9 note=54 velocity=0 time=0
EXTRACT: note_off channel=9 note=70 velocity=0 time=0
EXTRACT: note_off channel=3 note=68 velocity=0 time=0.012885208333333334
EXTRACT: note_off channel=3 note=75 velocity=0 time=0.012885208333333334
EXTRACT: note_off channel=3 note=72 velocity=0 time=0
EXTRACT: note_off channel=9 note=42 velocity=0 time=0.051540833333333334
EXTRACT: note_off channel=9 note=44 velocity=0 time=0
EXTRACT: note_off channel=9 note=36 velocity=0 time=0
EXTRACT: note_on channel=3 note=75 velocity=54 time=0.012885208333333334
EXTRACT: note_on channel=9 note=70 velocity=64 time=0
EXTRACT: note_on channel=9 note=54 velocity=71 time=0
EXTRACT: note_on channel=3 note=72 velocity=54 time=0.012885208333333334
EXTRACT: note_off channel=10 note=60 velocity=0 time=0
EXTRACT: note_on channel=10 note=63 velocity=118 time=0
EXTRACT: note_on channel=3 note=68 velocity=54 time=0.012885208333333334
EXTRACT: note_on channel=3 note=63 velocity=50 time=0.012885208333333334
EXTRACT: note_off channel=3 note=75 velocity=0 time=0.025770416666666667
EXTRACT: note_off channel=9 note=54 velocity=0 time=0
EXTRACT: note_off channel=9 note=70 velocity=0 time=0
EXTRACT: note_off channel=3 note=72 velocity=0 time=0.012885208333333334
EXTRACT: note_off channel=3 note=68 velocity=0 time=0.012885208333333334
EXTRACT: note_off channel=3 note=63 velocity=0 time=0.012885208333333334
EXTRACT: note_on channel=3 note=63 velocity=52 time=0.051540833333333334
EXTRACT: note_on channel=9 note=42 velocity=36 time=0
EXTRACT: note_on channel=9 note=70 velocity=113 time=0
EXTRACT: note_on channel=3 note=68 velocity=52 time=0.012885208333333334
EXTRACT: note_on channel=3 note=72 velocity=52 time=0
EXTRACT: note_on channel=9 note=54 velocity=117 time=0
EXTRACT: note_on channel=3 note=75 velocity=52 time=0.012885208333333334
EXTRACT: note_off channel=3 note=63 velocity=0 time=0.038655625
EXTRACT: note_off channel=9 note=54 velocity=0 time=0
EXTRACT: note_off channel=9 note=70 velocity=0 time=0
EXTRACT: note_off channel=9 note=42 velocity=0 time=0
EXTRACT: note_off channel=3 note=72 velocity=0 time=0.012885208333333334
EXTRACT: note_off channel=3 note=68 velocity=0 time=0
EXTRACT: note_off channel=3 note=75 velocity=0 time=0.012885208333333334
EXTRACT: control_change channel=10 control=0 value=0 time=0.025770416666666667
EXTRACT: control_change channel=10 control=0 value=0 time=0
EXTRACT: control_change channel=10 control=32 value=0 time=0
EXTRACT: control_change channel=10 control=0 value=0 time=0
EXTRACT: control_change channel=10 control=32 value=0 time=0
EXTRACT: program_change channel=10 program=0 time=0
EXTRACT: control_change channel=10 control=93 value=0 time=0
EXTRACT: note_off channel=2 note=32 velocity=0 time=0.012885208333333334
EXTRACT: note_on channel=2 note=32 velocity=125 time=0.025770416666666667
EXTRACT: note_on channel=9 note=36 velocity=99 time=0
EXTRACT: note_on channel=9 note=70 velocity=60 time=0
EXTRACT: note_on channel=3 note=75 velocity=50 time=0.012885208333333334
EXTRACT: note_on channel=3 note=72 velocity=50 time=0
EXTRACT: note_on channel=9 note=54 velocity=69 time=0
EXTRACT: note_on channel=3 note=68 velocity=50 time=0.012885208333333334
EXTRACT: note_on channel=3 note=63 velocity=50 time=0
EXTRACT: control_change channel=3 control=64 value=0 time=0.012885208333333334
EXTRACT: note_off channel=10 note=63 velocity=0 time=0.012885208333333334
EXTRACT: note_off channel=3 note=75 velocity=0 time=0.012885208333333334
EXTRACT: note_off channel=9 note=54 velocity=0 time=0
EXTRACT: note_off channel=9 note=70 velocity=0 time=0
EXTRACT: note_off channel=9 note=36 velocity=0 time=0
EXTRACT: note_off channel=3 note=68 velocity=0 time=0.012885208333333334
EXTRACT: note_off channel=3 note=72 velocity=0 time=0
EXTRACT: note_off channel=3 note=63 velocity=0 time=0.012885208333333334
EXTRACT: control_change channel=3 control=64 value=127 time=0
EXTRACT: note_on channel=9 note=40 velocity=100 time=0.06442604166666667
EXTRACT: note_on channel=9 note=90 velocity=127 time=0
EXTRACT: note_on channel=9 note=44 velocity=71 time=0.012885208333333334
EXTRACT: note_on channel=9 note=42 velocity=71 time=0
EXTRACT: note_on channel=9 note=70 velocity=40 time=0
EXTRACT: note_on channel=9 note=54 velocity=127 time=0
EXTRACT: note_on channel=10 note=63 velocity=110 time=0
EXTRACT: note_on channel=3 note=63 velocity=75 time=0.012885208333333334
EXTRACT: note_on channel=3 note=68 velocity=75 time=0
EXTRACT: note_on channel=3 note=72 velocity=75 time=0.012885208333333334
EXTRACT: note_on channel=3 note=75 velocity=75 time=0
EXTRACT: note_off channel=3 note=63 velocity=0 time=0.025770416666666667
EXTRACT: note_off channel=9 note=54 velocity=0 time=0
EXTRACT: note_off channel=9 note=70 velocity=0 time=0
EXTRACT: note_off channel=9 note=42 velocity=0 time=0
EXTRACT: note_off channel=9 note=44 velocity=0 time=0
EXTRACT: note_off channel=3 note=68 velocity=0 time=0.012885208333333334
EXTRACT: note_off channel=3 note=75 velocity=0 time=0.012885208333333334
EXTRACT: note_off channel=3 note=72 velocity=0 time=0
EXTRACT: note_off channel=2 note=32 velocity=0 time=0.051540833333333334
EXTRACT: note_off channel=9 note=90 velocity=0 time=0
EXTRACT: note_off channel=9 note=40 velocity=0 time=0
EXTRACT: note_on channel=3 note=75 velocity=54 time=0.012885208333333334
EXTRACT: note_on channel=9 note=70 velocity=65 time=0
EXTRACT: note_on channel=9 note=54 velocity=64 time=0
EXTRACT: note_on channel=3 note=72 velocity=54 time=0.012885208333333334
EXTRACT: note_on channel=3 note=68 velocity=54 time=0.012885208333333334
EXTRACT: note_on channel=3 note=63 velocity=54 time=0.012885208333333334
EXTRACT: note_off channel=3 note=75 velocity=0 time=0.025770416666666667
EXTRACT: note_off channel=9 note=54 velocity=0 time=0
EXTRACT: note_off channel=9 note=70 velocity=0 time=0
EXTRACT: note_off channel=3 note=72 velocity=0 time=0.012885208333333334
EXTRACT: note_off channel=3 note=68 velocity=0 time=0.012885208333333334
EXTRACT: note_off channel=3 note=63 velocity=0 time=0.012885208333333334
EXTRACT: note_off channel=10 note=63 velocity=0 time=0.038655625
EXTRACT: note_on channel=3 note=63 velocity=50 time=0.012885208333333334
EXTRACT: note_on channel=9 note=42 velocity=40 time=0
EXTRACT: note_on channel=9 note=70 velocity=110 time=0
EXTRACT: note_on channel=3 note=68 velocity=50 time=0.012885208333333334
EXTRACT: note_on channel=9 note=54 velocity=111 time=0
EXTRACT: note_on channel=10 note=65 velocity=127 time=0
EXTRACT: note_on channel=3 note=72 velocity=50 time=0.012885208333333334
EXTRACT: note_on channel=3 note=75 velocity=50 time=0
EXTRACT: note_off channel=3 note=63 velocity=0 time=0.038655625
EXTRACT: note_off channel=9 note=54 velocity=0 time=0
EXTRACT: note_off channel=9 note=70 velocity=0 time=0
EXTRACT: note_off channel=9 note=42 velocity=0 time=0
EXTRACT: note_off channel=3 note=72 velocity=0 time=0.012885208333333334
EXTRACT: note_off channel=3 note=68 velocity=0 time=0
EXTRACT: note_off channel=3 note=75 velocity=0 time=0.012885208333333334
EXTRACT: note_on channel=3 note=75 velocity=69 time=0.06442604166666667
EXTRACT: note_on channel=9 note=70 velocity=64 time=0
EXTRACT: note_on channel=9 note=54 velocity=58 time=0
EXTRACT: note_on channel=3 note=72 velocity=69 time=0.012885208333333334
EXTRACT: note_on channel=3 note=68 velocity=69 time=0
EXTRACT: note_on channel=3 note=63 velocity=69 time=0.012885208333333334
EXTRACT: control_change channel=3 control=64 value=0 time=0.012885208333333334
EXTRACT: note_off channel=3 note=75 velocity=0 time=0.025770416666666667
EXTRACT: note_off channel=9 note=54 velocity=0 time=0
EXTRACT: note_off channel=9 note=70 velocity=0 time=0
EXTRACT: note_off channel=10 note=65 velocity=0 time=0
EXTRACT: note_off channel=3 note=63 velocity=0 time=0.012885208333333334
EXTRACT: note_off channel=3 note=68 velocity=0 time=0
EXTRACT: note_off channel=3 note=72 velocity=0 time=0
EXTRACT: note_off channel=4 note=68 velocity=0 time=0
EXTRACT: note_off channel=4 note=63 velocity=0 time=0
EXTRACT: note_on channel=4 note=62 velocity=127 time=0.012885208333333334
EXTRACT: note_on channel=4 note=65 velocity=127 time=0
EXTRACT: control_change channel=3 control=64 value=127 time=0.012885208333333334
EXTRACT: note_on channel=2 note=34 velocity=110 time=0.051540833333333334
EXTRACT: note_on channel=9 note=42 velocity=69 time=0
EXTRACT: note_on channel=9 note=44 velocity=69 time=0.012885208333333334
EXTRACT: note_on channel=9 note=70 velocity=40 time=0
EXTRACT: note_on channel=9 note=54 velocity=127 time=0
EXTRACT: note_on channel=9 note=36 velocity=110 time=0
EXTRACT: note_on channel=10 note=65 velocity=115 time=0
EXTRACT: note_on channel=3 note=62 velocity=56 time=0.012885208333333334
EXTRACT: note_on channel=3 note=65 velocity=56 time=0
EXTRACT: note_on channel=3 note=70 velocity=56 time=0
EXTRACT: note_on channel=3 note=74 velocity=52 time=0.012885208333333334
EXTRACT: note_off channel=3 note=65 velocity=0 time=0.025770416666666667
EXTRACT: note_off channel=3 note=62 velocity=0 time=0
EXTRACT: note_off channel=9 note=36 velocity=0 time=0
EXTRACT: note_off channel=9 note=54 velocity=0 time=0
EXTRACT: note_off channel=9 note=70 velocity=0 time=0
EXTRACT: note_off channel=9 note=44 velocity=0 time=0
EXTRACT: note_off channel=9 note=42 velocity=0 time=0
EXTRACT: note_off channel=3 note=70 velocity=0 time=0.012885208333333334
EXTRACT: note_off channel=3 note=74 velocity=0 time=0.025770416666666667
EXTRACT: note_on channel=3 note=62 velocity=52 time=0.051540833333333334
EXTRACT: note_on channel=9 note=70 velocity=64 time=0
EXTRACT: note_on channel=9 note=54 velocity=56 time=0
EXTRACT: note_on channel=3 note=65 velocity=52 time=0.012885208333333334
EXTRACT: note_on channel=3 note=70 velocity=52 time=0
EXTRACT: note_on channel=3 note=74 velocity=52 time=0.012885208333333334
EXTRACT: note_off channel=3 note=62 velocity=0 time=0.038655625
EXTRACT: note_off channel=9 note=54 velocity=0 time=0
EXTRACT: note_off channel=9 note=70 velocity=0 time=0
EXTRACT: note_off channel=3 note=70 velocity=0 time=0.012885208333333334
EXTRACT: note_off channel=3 note=65 velocity=0 time=0
EXTRACT: note_off channel=10 note=65 velocity=0 time=0
EXTRACT: note_off channel=3 note=74 velocity=0 time=0.012885208333333334
EXTRACT: note_on channel=3 note=74 velocity=52 time=0.06442604166666667
EXTRACT: note_on channel=9 note=42 velocity=38 time=0
EXTRACT: note_on channel=9 note=70 velocity=110 time=0
EXTRACT: note_on channel=3 note=70 velocity=52 time=0.012885208333333334
EXTRACT: note_on channel=9 note=54 velocity=99 time=0
EXTRACT: note_on channel=10 note=65 velocity=115 time=0
EXTRACT: note_on channel=3 note=65 velocity=52 time=0.012885208333333334
EXTRACT: note_on channel=3 note=62 velocity=52 time=0.012885208333333334
EXTRACT: note_off channel=2 note=34 velocity=0 time=0.025770416666666667
EXTRACT: note_off channel=3 note=74 velocity=0 time=0
EXTRACT: note_off channel=9 note=54 velocity=0 time=0
EXTRACT: note_off channel=9 note=70 velocity=0 time=0
EXTRACT: note_off channel=9 note=42 velocity=0 time=0
EXTRACT: note_off channel=3 note=70 velocity=0 time=0.012885208333333334
EXTRACT: note_off channel=3 note=65 velocity=0 time=0.012885208333333334
EXTRACT: note_off channel=3 note=62 velocity=0 time=0.012885208333333334
EXTRACT: note_off channel=10 note=65 velocity=0 time=0
EXTRACT: note_on channel=2 note=34 velocity=125 time=0.051540833333333334
EXTRACT: note_on channel=9 note=70 velocity=64 time=0
EXTRACT: note_on channel=9 note=54 velocity=52 time=0
EXTRACT: note_on channel=3 note=74 velocity=54 time=0.012885208333333334
EXTRACT: note_on channel=3 note=70 velocity=54 time=0
EXTRACT: note_on channel=9 note=36 velocity=123 time=0
EXTRACT: note_on channel=10 note=65 velocity=87 time=0
EXTRACT: note_on channel=3 note=65 velocity=54 time=0.012885208333333334
EXTRACT: note_on channel=3 note=62 velocity=54 time=0
EXTRACT: control_change channel=3 control=64 value=0 time=0.025770416666666667
EXTRACT: note_off channel=3 note=74 velocity=0 time=0.012885208333333334
EXTRACT: note_off channel=9 note=36 velocity=0 time=0
EXTRACT: note_off channel=9 note=54 velocity=0 time=0
EXTRACT: note_off channel=9 note=70 velocity=0 time=0
EXTRACT: note_off channel=3 note=70 velocity=0 time=0.012885208333333334
EXTRACT: note_off channel=3 note=62 velocity=0 time=0.012885208333333334
EXTRACT: note_off channel=3 note=65 velocity=0 time=0
EXTRACT: control_change channel=3 control=64 value=127 time=0.012885208333333334
EXTRACT: note_on channel=9 note=40 velocity=100 time=0.051540833333333334
EXTRACT: note_on channel=9 note=90 velocity=127 time=0
EXTRACT: note_on channel=3 note=62 velocity=73 time=0.012885208333333334
EXTRACT: note_on channel=9 note=44 velocity=71 time=0
EXTRACT: note_on channel=9 note=42 velocity=71 time=0
EXTRACT: note_on channel=9 note=70 velocity=40 time=0
EXTRACT: note_on channel=9 note=54 velocity=127 time=0
EXTRACT: note_on channel=3 note=65 velocity=73 time=0.012885208333333334
EXTRACT: note_on channel=3 note=70 velocity=73 time=0
EXTRACT: note_on channel=3 note=74 velocity=73 time=0.012885208333333334
EXTRACT: note_off channel=10 note=65 velocity=0 time=0.012885208333333334
EXTRACT: note_off channel=3 note=62 velocity=0 time=0.012885208333333334
EXTRACT: note_off channel=9 note=54 velocity=0 time=0
EXTRACT: note_off channel=9 note=70 velocity=0 time=0
EXTRACT: note_off channel=9 note=42 velocity=0 time=0
EXTRACT: note_off channel=9 note=44 velocity=0 time=0
EXTRACT: note_off channel=3 note=65 velocity=0 time=0.012885208333333334
EXTRACT: note_off channel=3 note=74 velocity=0 time=0.012885208333333334
EXTRACT: note_off channel=3 note=70 velocity=0 time=0
EXTRACT: note_on channel=10 note=65 velocity=83 time=0.038655625
EXTRACT: note_off channel=9 note=90 velocity=0 time=0.012885208333333334
EXTRACT: note_off channel=9 note=40 velocity=0 time=0
EXTRACT: note_on channel=3 note=74 velocity=50 time=0.012885208333333334
EXTRACT: note_on channel=9 note=70 velocity=60 time=0
EXTRACT: note_on channel=9 note=54 velocity=64 time=0
EXTRACT: note_on channel=3 note=70 velocity=50 time=0.012885208333333334
EXTRACT: note_on channel=10 note=67 velocity=115 time=0
EXTRACT: note_on channel=3 note=65 velocity=50 time=0.012885208333333334
EXTRACT: note_on channel=3 note=62 velocity=52 time=0.012885208333333334
EXTRACT: note_off channel=10 note=65 velocity=0 time=0.012885208333333334
EXTRACT: note_off channel=3 note=74 velocity=0 time=0.012885208333333334
EXTRACT: note_off channel=9 note=54 velocity=0 time=0
EXTRACT: note_off channel=9 note=70 velocity=0 time=0
EXTRACT: note_off channel=3 note=70 velocity=0 time=0.012885208333333334
EXTRACT: note_off channel=3 note=65 velocity=0 time=0.012885208333333334
EXTRACT: note_off channel=2 note=34 velocity=0 time=0.012885208333333334
EXTRACT: note_off channel=3 note=62 velocity=0 time=0
EXTRACT: note_on channel=2 note=34 velocity=125 time=0.051540833333333334
EXTRACT: note_on channel=9 note=42 velocity=42 time=0
EXTRACT: note_on channel=9 note=70 velocity=107 time=0
EXTRACT: note_on channel=3 note=62 velocity=52 time=0.012885208333333334
EXTRACT: note_on channel=9 note=36 velocity=119 time=0
EXTRACT: note_on channel=9 note=54 velocity=101 time=0
EXTRACT: note_on channel=3 note=65 velocity=52 time=0.012885208333333334
EXTRACT: note_on channel=3 note=70 velocity=52 time=0
EXTRACT: note_on channel=3 note=74 velocity=52 time=0
EXTRACT: note_off channel=10 note=67 velocity=0 time=0.025770416666666667
EXTRACT: note_off channel=3 note=62 velocity=0 time=0.012885208333333334
EXTRACT: note_off channel=9 note=54 velocity=0 time=0
EXTRACT: note_off channel=9 note=36 velocity=0 time=0
EXTRACT: note_off channel=9 note=70 velocity=0 time=0
EXTRACT: note_off channel=9 note=42 velocity=0 time=0
EXTRACT: note_off channel=3 note=70 velocity=0 time=0.012885208333333334
EXTRACT: note_off channel=3 note=65 velocity=0 time=0
EXTRACT: note_off channel=3 note=74 velocity=0 time=0.012885208333333334
EXTRACT: note_on channel=10 note=67 velocity=127 time=0.038655625
EXTRACT: note_on channel=3 note=74 velocity=52 time=0.025770416666666667
EXTRACT: note_on channel=9 note=70 velocity=67 time=0
EXTRACT: note_on channel=9 note=54 velocity=58 time=0
EXTRACT: note_on channel=3 note=70 velocity=52 time=0.012885208333333334
EXTRACT: note_on channel=3 note=65 velocity=52 time=0
EXTRACT: note_on channel=3 note=62 velocity=52 time=0.012885208333333334
EXTRACT: note_off channel=2 note=34 velocity=0 time=0.025770416666666667
EXTRACT: note_off channel=3 note=62 velocity=0 time=0
EXTRACT: note_off channel=3 note=65 velocity=0 time=0
EXTRACT: note_off channel=3 note=70 velocity=0 time=0
EXTRACT: note_off channel=3 note=74 velocity=0 time=0
EXTRACT: control_change channel=3 control=64 value=0 time=0
EXTRACT: note_off channel=4 note=62 velocity=0 time=0
EXTRACT: note_off channel=4 note=65 velocity=0 time=0.012885208333333334
EXTRACT: note_on channel=4 note=63 velocity=127 time=0
EXTRACT: note_on channel=4 note=67 velocity=127 time=0
EXTRACT: control_change channel=3 control=64 value=127 time=0.012885208333333334
EXTRACT: control_change channel=3 control=64 value=0 time=0
EXTRACT: note_off channel=9 note=54 velocity=0 time=0
EXTRACT: note_off channel=9 note=70 velocity=0 time=0
EXTRACT: control_change channel=3 control=64 value=127 time=0.012885208333333334
EXTRACT: note_on channel=9 note=42 velocity=69 time=0.06442604166666667
EXTRACT: note_on channel=2 note=39 velocity=121 time=0.012885208333333334
EXTRACT: control_change channel=3 control=64 value=127 time=0
EXTRACT: note_on channel=3 note=63 velocity=81 time=0
EXTRACT: note_on channel=9 note=44 velocity=69 time=0
EXTRACT: note_on channel=9 note=70 velocity=40 time=0
EXTRACT: note_on channel=9 note=54 velocity=127 time=0
EXTRACT: note_on channel=9 note=36 velocity=125 time=0
EXTRACT: note_on channel=3 note=67 velocity=81 time=0.012885208333333334
EXTRACT: note_on channel=3 note=70 velocity=81 time=0.012885208333333334
EXTRACT: note_on channel=3 note=75 velocity=81 time=0
EXTRACT: note_off channel=3 note=63 velocity=0 time=0.025770416666666667
EXTRACT: note_off channel=9 note=36 velocity=0 time=0
EXTRACT: note_off channel=9 note=54 velocity=0 time=0
EXTRACT: note_off channel=9 note=70 velocity=0 time=0
EXTRACT: note_off channel=3 note=67 velocity=0 time=0.012885208333333334
EXTRACT: note_off channel=3 note=75 velocity=0 time=0.012885208333333334
EXTRACT: note_off channel=3 note=70 velocity=0 time=0
EXTRACT: note_off channel=9 note=44 velocity=0 time=0.051540833333333334
EXTRACT: note_off channel=9 note=42 velocity=0 time=0
EXTRACT: note_on channel=3 note=75 velocity=54 time=0.012885208333333334
EXTRACT: note_on channel=9 note=70 velocity=64 time=0
EXTRACT: note_on channel=9 note=54 velocity=71 time=0
EXTRACT: note_on channel=3 note=70 velocity=54 time=0.012885208333333334
EXTRACT: note_on channel=3 note=67 velocity=54 time=0.012885208333333334
EXTRACT: note_on channel=3 note=63 velocity=50 time=0.012885208333333334
EXTRACT: note_off channel=3 note=75 velocity=0 time=0.025770416666666667
EXTRACT: note_off channel=9 note=54 velocity=0 time=0
EXTRACT: note_off channel=9 note=70 velocity=0 time=0
EXTRACT: note_off channel=3 note=70 velocity=0 time=0.012885208333333334
EXTRACT: note_off channel=3 note=67 velocity=0 time=0.012885208333333334
EXTRACT: note_off channel=3 note=63 velocity=0 time=0.012885208333333334
EXTRACT: note_on channel=3 note=63 velocity=52 time=0.051540833333333334
EXTRACT: note_on channel=9 note=42 velocity=36 time=0
EXTRACT: note_on channel=9 note=70 velocity=113 time=0
EXTRACT: note_on channel=3 note=67 velocity=52 time=0.012885208333333334
EXTRACT: note_on channel=3 note=70 velocity=52 time=0
EXTRACT: note_on channel=9 note=54 velocity=117 time=0
EXTRACT: note_on channel=3 note=75 velocity=52 time=0.012885208333333334
EXTRACT: note_off channel=3 note=63 velocity=0 time=0.038655625
EXTRACT: note_off channel=9 note=54 velocity=0 time=0
EXTRACT: note_off channel=9 note=70 velocity=0 time=0
EXTRACT: note_off channel=9 note=42 velocity=0 time=0
EXTRACT: note_off channel=3 note=70 velocity=0 time=0.012885208333333334
EXTRACT: note_off channel=3 note=67 velocity=0 time=0
EXTRACT: note_off channel=3 note=75 velocity=0 time=0.012885208333333334
EXTRACT: note_off channel=2 note=39 velocity=0 time=0.038655625
EXTRACT: note_on channel=2 note=39 velocity=125 time=0.025770416666666667
EXTRACT: note_on channel=9 note=36 velocity=110 time=0
EXTRACT: note_on channel=9 note=70 velocity=60 time=0
EXTRACT: note_on channel=3 note=75 velocity=50 time=0.012885208333333334
EXTRACT: note_on channel=3 note=70 velocity=50 time=0
EXTRACT: note_on channel=9 note=54 velocity=69 time=0
EXTRACT: note_on channel=3 note=67 velocity=50 time=0.012885208333333334
EXTRACT: note_on channel=3 note=63 velocity=50 time=0
EXTRACT: control_change channel=3 control=64 value=0 time=0.012885208333333334
EXTRACT: note_off channel=3 note=75 velocity=0 time=0.025770416666666667
EXTRACT: note_off channel=9 note=54 velocity=0 time=0
EXTRACT: note_off channel=9 note=70 velocity=0 time=0
EXTRACT: note_off channel=9 note=36 velocity=0 time=0
EXTRACT: note_off channel=3 note=67 velocity=0 time=0.012885208333333334
EXTRACT: note_off channel=3 note=70 velocity=0 time=0
EXTRACT: note_off channel=3 note=63 velocity=0 time=0.012885208333333334
EXTRACT: control_change channel=3 control=64 value=127 time=0
EXTRACT: note_on channel=9 note=40 velocity=100 time=0.06442604166666667
EXTRACT: note_on channel=3 note=63 velocity=75 time=0.012885208333333334
EXTRACT: note_on channel=9 note=90 velocity=127 time=0
EXTRACT: note_on channel=9 note=44 velocity=71 time=0
EXTRACT: note_on channel=9 note=42 velocity=71 time=0
EXTRACT: note_on channel=9 note=70 velocity=40 time=0
EXTRACT: note_on channel=9 note=54 velocity=127 time=0
EXTRACT: note_on channel=3 note=67 velocity=75 time=0.012885208333333334
EXTRACT: note_on channel=3 note=70 velocity=75 time=0.012885208333333334
EXTRACT: note_on channel=3 note=75 velocity=75 time=0
EXTRACT: note_off channel=3 note=63 velocity=0 time=0.025770416666666667
EXTRACT: note_off channel=9 note=54 velocity=0 time=0
EXTRACT: note_off channel=9 note=70 velocity=0 time=0
EXTRACT: note_off channel=9 note=42 velocity=0 time=0
EXTRACT: note_off channel=9 note=44 velocity=0 time=0
EXTRACT: note_off channel=3 note=67 velocity=0 time=0.012885208333333334
EXTRACT: note_off channel=3 note=75 velocity=0 time=0.012885208333333334
EXTRACT: note_off channel=3 note=70 velocity=0 time=0
EXTRACT: note_off channel=2 note=39 velocity=0 time=0.051540833333333334
EXTRACT: note_off channel=9 note=90 velocity=0 time=0
EXTRACT: note_off channel=9 note=40 velocity=0 time=0
EXTRACT: note_on channel=3 note=75 velocity=54 time=0.012885208333333334
EXTRACT: note_on channel=9 note=70 velocity=64 time=0
EXTRACT: note_on channel=9 note=54 velocity=64 time=0
EXTRACT: note_on channel=3 note=70 velocity=54 time=0.012885208333333334
EXTRACT: note_on channel=3 note=67 velocity=54 time=0.012885208333333334
EXTRACT: note_on channel=3 note=63 velocity=54 time=0.012885208333333334
EXTRACT: note_off channel=10 note=67 velocity=0 time=0
EXTRACT: note_off channel=3 note=75 velocity=0 time=0.025770416666666667
EXTRACT: note_off channel=9 note=54 velocity=0 time=0
EXTRACT: note_off channel=9 note=70 velocity=0 time=0
EXTRACT: note_off channel=3 note=70 velocity=0 time=0.012885208333333334
EXTRACT: note_off channel=3 note=67 velocity=0 time=0.012885208333333334
EXTRACT: note_off channel=3 note=63 velocity=0 time=0.012885208333333334
EXTRACT: note_on channel=3 note=63 velocity=50 time=0.051540833333333334
EXTRACT: note_on channel=9 note=42 velocity=40 time=0
EXTRACT: note_on channel=9 note=70 velocity=110 time=0
EXTRACT: note_on channel=3 note=67 velocity=50 time=0.012885208333333334
EXTRACT: note_on channel=9 note=54 velocity=111 time=0
EXTRACT: note_on channel=10 note=65 velocity=97 time=0
EXTRACT: note_on channel=3 note=70 velocity=50 time=0.012885208333333334
EXTRACT: note_on channel=3 note=75 velocity=50 time=0
EXTRACT: note_off channel=3 note=63 velocity=0 time=0.038655625
EXTRACT: note_off channel=9 note=54 velocity=0 time=0
EXTRACT: note_off channel=9 note=70 velocity=0 time=0
EXTRACT: note_off channel=9 note=42 velocity=0 time=0
EXTRACT: note_off channel=3 note=70 velocity=0 time=0.012885208333333334
EXTRACT: note_off channel=3 note=67 velocity=0 time=0
EXTRACT: note_off channel=3 note=75 velocity=0 time=0.012885208333333334
EXTRACT: note_off channel=10 note=65 velocity=0 time=0.038655625
EXTRACT: control_change channel=3 control=64 value=0 time=0.025770416666666667
EXTRACT: note_off channel=4 note=67 velocity=0 time=0
EXTRACT: note_off channel=4 note=63 velocity=0 time=0
EXTRACT: note_on channel=4 note=63 velocity=127 time=0.012885208333333334
EXTRACT: note_on channel=4 note=68 velocity=127 time=0
EXTRACT: control_change channel=3 control=64 value=127 time=0.012885208333333334
EXTRACT: note_on channel=9 note=70 velocity=64 time=0
EXTRACT: note_on channel=10 note=67 velocity=127 time=0
EXTRACT: note_on channel=3 note=75 velocity=69 time=0.012885208333333334
EXTRACT: note_on channel=3 note=72 velocity=69 time=0
EXTRACT: note_on channel=3 note=68 velocity=69 time=0
EXTRACT: note_on channel=9 note=54 velocity=58 time=0
EXTRACT: note_on channel=3 note=63 velocity=69 time=0.012885208333333334
EXTRACT: control_change channel=3 control=64 value=0 time=0
EXTRACT: note_off channel=3 note=75 velocity=0 time=0.012885208333333334
EXTRACT: note_off channel=9 note=54 velocity=0 time=0
EXTRACT: note_off channel=9 note=70 velocity=0 time=0
EXTRACT: note_off channel=3 note=68 velocity=0 time=0.012885208333333334
EXTRACT: note_off channel=3 note=72 velocity=0 time=0
EXTRACT: note_off channel=3 note=63 velocity=0 time=0.012885208333333334
EXTRACT: control_change channel=3 control=64 value=127 time=0
EXTRACT: note_off channel=10 note=67 velocity=0 time=0.06442604166666667
EXTRACT: note_on channel=2 note=32 velocity=110 time=0.012885208333333334
EXTRACT: note_on channel=9 note=42 velocity=69 time=0
EXTRACT: note_on channel=9 note=44 velocity=69 time=0
EXTRACT: note_on channel=9 note=36 velocity=110 time=0
EXTRACT: note_on channel=9 note=70 velocity=40 time=0
EXTRACT: note_on channel=9 note=54 velocity=127 time=0
EXTRACT: note_on channel=3 note=63 velocity=56 time=0.012885208333333334
EXTRACT: note_on channel=3 note=68 velocity=56 time=0
EXTRACT: note_on channel=3 note=72 velocity=56 time=0
EXTRACT: note_on channel=10 note=68 velocity=110 time=0
EXTRACT: note_on channel=3 note=75 velocity=52 time=0.012885208333333334
EXTRACT: note_off channel=3 note=68 velocity=0 time=0.025770416666666667
EXTRACT: note_off channel=3 note=63 velocity=0 time=0
EXTRACT: note_off channel=9 note=54 velocity=0 time=0
EXTRACT: note_off channel=9 note=70 velocity=0 time=0
EXTRACT: note_off channel=9 note=36 velocity=0 time=0
EXTRACT: note_off channel=9 note=44 velocity=0 time=0
EXTRACT: note_off channel=9 note=42 velocity=0 time=0
EXTRACT: note_off channel=3 note=72 velocity=0 time=0.012885208333333334
EXTRACT: note_off channel=3 note=75 velocity=0 time=0.025770416666666667
EXTRACT: note_on channel=3 note=63 velocity=52 time=0.051540833333333334
EXTRACT: note_on channel=9 note=70 velocity=64 time=0
EXTRACT: note_on channel=9 note=54 velocity=56 time=0
EXTRACT: note_on channel=3 note=68 velocity=52 time=0.012885208333333334
EXTRACT: note_on channel=3 note=72 velocity=52 time=0
EXTRACT: note_on channel=3 note=75 velocity=52 time=0.012885208333333334
EXTRACT: note_off channel=3 note=63 velocity=0 time=0.038655625
EXTRACT: note_off channel=9 note=54 velocity=0 time=0
EXTRACT: note_off channel=9 note=70 velocity=0 time=0
EXTRACT: note_off channel=3 note=72 velocity=0 time=0.012885208333333334
EXTRACT: note_off channel=3 note=68 velocity=0 time=0
EXTRACT: note_off channel=3 note=75 velocity=0 time=0.012885208333333334
EXTRACT: note_on channel=9 note=36 velocity=110 time=0.06442604166666667
EXTRACT: note_on channel=9 note=42 velocity=38 time=0
EXTRACT: note_on channel=9 note=70 velocity=110 time=0
EXTRACT: note_on channel=3 note=75 velocity=52 time=0.012885208333333334
EXTRACT: note_on channel=9 note=54 velocity=99 time=0
EXTRACT: note_on channel=10 note=67 velocity=115 time=0
EXTRACT: note_on channel=3 note=72 velocity=52 time=0.012885208333333334
EXTRACT: note_on channel=3 note=68 velocity=52 time=0
EXTRACT: note_on channel=3 note=63 velocity=52 time=0.012885208333333334
EXTRACT: note_off channel=10 note=68 velocity=0 time=0.012885208333333334
EXTRACT: note_off channel=3 note=75 velocity=0 time=0.012885208333333334
EXTRACT: note_off channel=9 note=54 velocity=0 time=0
EXTRACT: note_off channel=9 note=70 velocity=0 time=0
EXTRACT: note_off channel=9 note=42 velocity=0 time=0
EXTRACT: note_off channel=9 note=36 velocity=0 time=0
EXTRACT: note_off channel=3 note=72 velocity=0 time=0.012885208333333334
EXTRACT: note_off channel=3 note=68 velocity=0 time=0.012885208333333334
EXTRACT: note_off channel=3 note=63 velocity=0 time=0.012885208333333334
EXTRACT: note_off channel=2 note=32 velocity=0 time=0.038655625
EXTRACT: note_on channel=2 note=39 velocity=110 time=0.012885208333333334
EXTRACT: note_on channel=3 note=75 velocity=54 time=0
EXTRACT: note_on channel=9 note=70 velocity=64 time=0
EXTRACT: note_on channel=3 note=72 velocity=54 time=0.012885208333333334
EXTRACT: note_on channel=9 note=54 velocity=52 time=0
EXTRACT: note_on channel=10 note=65 velocity=115 time=0
EXTRACT: note_on channel=3 note=68 velocity=54 time=0.012885208333333334
EXTRACT: note_on channel=3 note=63 velocity=54 time=0
EXTRACT: control_change channel=3 control=64 value=0 time=0.025770416666666667
EXTRACT: note_off channel=10 note=67 velocity=0 time=0
EXTRACT: note_off channel=3 note=75 velocity=0 time=0.012885208333333334
EXTRACT: note_off channel=9 note=54 velocity=0 time=0
EXTRACT: note_off channel=9 note=70 velocity=0 time=0
EXTRACT: note_off channel=3 note=72 velocity=0 time=0.012885208333333334
EXTRACT: note_off channel=3 note=63 velocity=0 time=0.012885208333333334
EXTRACT: note_off channel=3 note=68 velocity=0 time=0
EXTRACT: control_change channel=3 control=64 value=127 time=0.012885208333333334
EXTRACT: note_off channel=2 note=39 velocity=0 time=0.038655625
EXTRACT: control_change channel=3 control=64 value=0 time=0.012885208333333334
EXTRACT: note_off channel=4 note=63 velocity=0 time=0
EXTRACT: note_off channel=4 note=68 velocity=0 time=0.012885208333333334
EXTRACT: note_on channel=4 note=62 velocity=127 time=0
EXTRACT: control_change channel=3 control=64 value=127 time=0.012885208333333334
EXTRACT: note_on channel=4 note=67 velocity=127 time=0
EXTRACT: note_on channel=9 note=40 velocity=100 time=0
EXTRACT: note_on channel=2 note=31 velocity=110 time=0.012885208333333334
EXTRACT: note_on channel=9 note=90 velocity=127 time=0
EXTRACT: note_on channel=9 note=44 velocity=71 time=0
EXTRACT: note_on channel=9 note=42 velocity=71 time=0
EXTRACT: note_on channel=9 note=70 velocity=40 time=0
EXTRACT: note_on channel=9 note=54 velocity=127 time=0
EXTRACT: note_on channel=3 note=62 velocity=73 time=0.012885208333333334
EXTRACT: note_on channel=3 note=67 velocity=73 time=0
EXTRACT: note_off channel=3 note=62 velocity=0 time=0.012885208333333334
EXTRACT: note_on channel=3 note=72 velocity=73 time=0
EXTRACT: note_on channel=3 note=74 velocity=73 time=0
EXTRACT: note_off channel=9 note=54 velocity=0 time=0
EXTRACT: note_off channel=9 note=70 velocity=0 time=0
EXTRACT: note_off channel=9 note=42 velocity=0 time=0
EXTRACT: note_off channel=9 note=44 velocity=0 time=0
EXTRACT: note_off channel=3 note=67 velocity=0 time=0.012885208333333334
EXTRACT: note_off channel=3 note=74 velocity=0 time=0.012885208333333334
EXTRACT: note_off channel=3 note=72 velocity=0 time=0
EXTRACT: note_off channel=2 note=31 velocity=0 time=0.051540833333333334
EXTRACT: note_off channel=9 note=90 velocity=0 time=0
EXTRACT: note_off channel=9 note=40 velocity=0 time=0
EXTRACT: note_on channel=2 note=31 velocity=110 time=0.012885208333333334
EXTRACT: note_on channel=9 note=70 velocity=73 time=0
EXTRACT: note_on channel=9 note=54 velocity=64 time=0
EXTRACT: note_on channel=3 note=74 velocity=50 time=0.012885208333333334
EXTRACT: note_off channel=10 note=65 velocity=0 time=0
EXTRACT: note_on channel=3 note=72 velocity=50 time=0.012885208333333334
EXTRACT: note_on channel=3 note=67 velocity=50 time=0
EXTRACT: note_on channel=10 note=63 velocity=122 time=0
EXTRACT: note_on channel=3 note=62 velocity=52 time=0.012885208333333334
EXTRACT: note_off channel=3 note=74 velocity=0 time=0.025770416666666667
EXTRACT: note_off channel=9 note=54 velocity=0 time=0
EXTRACT: note_off channel=9 note=70 velocity=0 time=0
EXTRACT: note_off channel=3 note=72 velocity=0 time=0.012885208333333334
EXTRACT: note_off channel=3 note=67 velocity=0 time=0.012885208333333334
EXTRACT: note_off channel=3 note=62 velocity=0 time=0.012885208333333334
EXTRACT: note_on channel=3 note=62 velocity=52 time=0.051540833333333334
EXTRACT: note_on channel=9 note=42 velocity=42 time=0
EXTRACT: note_on channel=9 note=70 velocity=107 time=0
EXTRACT: note_on channel=3 note=67 velocity=52 time=0.012885208333333334
EXTRACT: note_on channel=3 note=72 velocity=52 time=0
EXTRACT: note_on channel=9 note=54 velocity=101 time=0
EXTRACT: note_on channel=3 note=74 velocity=52 time=0.012885208333333334
EXTRACT: note_off channel=3 note=62 velocity=0 time=0.038655625
EXTRACT: note_off channel=9 note=54 velocity=0 time=0
EXTRACT: note_off channel=9 note=70 velocity=0 time=0
EXTRACT: note_off channel=9 note=42 velocity=0 time=0
EXTRACT: note_off channel=3 note=72 velocity=0 time=0.012885208333333334
EXTRACT: note_off channel=3 note=67 velocity=0 time=0
EXTRACT: note_off channel=3 note=74 velocity=0 time=0.012885208333333334
EXTRACT: note_on channel=3 note=74 velocity=52 time=0.06442604166666667
EXTRACT: note_on channel=9 note=70 velocity=67 time=0
EXTRACT: note_on channel=9 note=54 velocity=58 time=0
EXTRACT: note_on channel=3 note=70 velocity=52 time=0.012885208333333334
EXTRACT: note_on channel=3 note=67 velocity=52 time=0
EXTRACT: note_off channel=2 note=31 velocity=0 time=0.012885208333333334
EXTRACT: note_off channel=3 note=67 velocity=0 time=0
EXTRACT: note_off channel=3 note=70 velocity=0 time=0
EXTRACT: note_off channel=3 note=74 velocity=0 time=0
EXTRACT: control_change channel=3 control=64 value=0 time=0
EXTRACT: note_off channel=4 note=67 velocity=0 time=0
EXTRACT: note_off channel=4 note=62 velocity=0 time=0
EXTRACT: note_on channel=4 note=60 velocity=127 time=0.012885208333333334
EXTRACT: note_on channel=4 note=65 velocity=127 time=0
EXTRACT: control_change channel=3 control=64 value=127 time=0.012885208333333334
EXTRACT: note_on channel=3 note=60 velocity=52 time=0
EXTRACT: control_change channel=3 control=64 value=0 time=0
EXTRACT: note_off channel=9 note=54 velocity=0 time=0.012885208333333334
EXTRACT: note_off channel=9 note=70 velocity=0 time=0
EXTRACT: note_off channel=10 note=63 velocity=0 time=0.012885208333333334
EXTRACT: note_off channel=3 note=60 velocity=0 time=0.012885208333333334
EXTRACT: control_change channel=3 control=64 value=127 time=0
EXTRACT: note_on channel=9 note=36 velocity=127 time=0.06442604166666667
EXTRACT: note_on channel=2 note=29 velocity=127 time=0.012885208333333334
EXTRACT: note_on channel=9 note=44 velocity=69 time=0
EXTRACT: note_on channel=9 note=42 velocity=69 time=0
EXTRACT: note_on channel=9 note=70 velocity=40 time=0
EXTRACT: note_on channel=10 note=65 velocity=106 time=0
EXTRACT: control_change channel=3 control=64 value=127 time=0.012885208333333334
EXTRACT: note_on channel=3 note=60 velocity=81 time=0
EXTRACT: note_on channel=3 note=65 velocity=81 time=0
EXTRACT: note_on channel=9 note=54 velocity=127 time=0
EXTRACT: note_on channel=3 note=68 velocity=81 time=0.012885208333333334
EXTRACT: note_on channel=3 note=72 velocity=81 time=0
EXTRACT: note_off channel=3 note=60 velocity=0 time=0.025770416666666667
EXTRACT: note_off channel=9 note=54 velocity=0 time=0
EXTRACT: note_off channel=9 note=70 velocity=0 time=0
EXTRACT: note_off channel=3 note=65 velocity=0 time=0.012885208333333334
EXTRACT: note_off channel=3 note=72 velocity=0 time=0.012885208333333334
EXTRACT: note_off channel=3 note=68 velocity=0 time=0
EXTRACT: note_off channel=9 note=42 velocity=0 time=0.051540833333333334
EXTRACT: note_off channel=9 note=44 velocity=0 time=0
EXTRACT: note_off channel=9 note=36 velocity=0 time=0
EXTRACT: note_on channel=3 note=72 velocity=54 time=0.012885208333333334
EXTRACT: note_on channel=9 note=70 velocity=69 time=0
EXTRACT: note_on channel=9 note=54 velocity=71 time=0
EXTRACT: note_on channel=3 note=68 velocity=54 time=0.012885208333333334
EXTRACT: note_on channel=3 note=65 velocity=54 time=0.012885208333333334
EXTRACT: note_on channel=3 note=60 velocity=50 time=0.012885208333333334
EXTRACT: note_off channel=3 note=72 velocity=0 time=0.025770416666666667
EXTRACT: note_off channel=9 note=54 velocity=0 time=0
EXTRACT: note_off channel=9 note=70 velocity=0 time=0
EXTRACT: note_off channel=3 note=68 velocity=0 time=0.012885208333333334
EXTRACT: note_off channel=3 note=65 velocity=0 time=0.012885208333333334
EXTRACT: note_off channel=3 note=60 velocity=0 time=0.012885208333333334
EXTRACT: note_on channel=3 note=60 velocity=52 time=0.051540833333333334
EXTRACT: note_on channel=9 note=42 velocity=36 time=0
EXTRACT: note_on channel=9 note=70 velocity=113 time=0
EXTRACT: note_on channel=3 note=65 velocity=52 time=0.012885208333333334
EXTRACT: note_on channel=3 note=68 velocity=52 time=0
EXTRACT: note_on channel=9 note=54 velocity=117 time=0
EXTRACT: note_on channel=3 note=72 velocity=52 time=0.012885208333333334
EXTRACT: note_off channel=10 note=65 velocity=0 time=0.012885208333333334
EXTRACT: note_off channel=3 note=60 velocity=0 time=0.025770416666666667
EXTRACT: note_off channel=9 note=54 velocity=0 time=0
EXTRACT: note_off channel=9 note=70 velocity=0 time=0
EXTRACT: note_off channel=9 note=42 velocity=0 time=0
EXTRACT: note_off channel=3 note=68 velocity=0 time=0.012885208333333334
EXTRACT: note_off channel=3 note=65 velocity=0 time=0
EXTRACT: note_off channel=3 note=72 velocity=0 time=0.012885208333333334
EXTRACT: note_off channel=2 note=29 velocity=0 time=0.038655625
EXTRACT: note_on channel=10 note=67 velocity=127 time=0.012885208333333334
EXTRACT: note_on channel=9 note=36 velocity=99 time=0.012885208333333334
EXTRACT: note_on channel=9 note=70 velocity=60 time=0
EXTRACT: note_on channel=2 note=29 velocity=125 time=0.012885208333333334
EXTRACT: note_on channel=3 note=72 velocity=50 time=0
EXTRACT: note_on channel=3 note=68 velocity=50 time=0
EXTRACT: note_on channel=9 note=54 velocity=69 time=0
EXTRACT: note_on channel=3 note=65 velocity=50 time=0.012885208333333334
EXTRACT: note_on channel=3 note=60 velocity=50 time=0
EXTRACT: control_change channel=3 control=64 value=0 time=0.012885208333333334
EXTRACT: note_off channel=3 note=72 velocity=0 time=0.025770416666666667
EXTRACT: note_off channel=9 note=54 velocity=0 time=0
EXTRACT: note_off channel=9 note=70 velocity=0 time=0
EXTRACT: note_off channel=9 note=36 velocity=0 time=0
EXTRACT: note_off channel=3 note=65 velocity=0 time=0.012885208333333334
EXTRACT: note_off channel=3 note=68 velocity=0 time=0
EXTRACT: note_off channel=3 note=60 velocity=0 time=0.012885208333333334
EXTRACT: control_change channel=3 control=64 value=127 time=0
EXTRACT: note_on channel=9 note=40 velocity=100 time=0.06442604166666667
EXTRACT: note_on channel=9 note=90 velocity=127 time=0.012885208333333334
EXTRACT: note_on channel=9 note=44 velocity=71 time=0
EXTRACT: note_on channel=9 note=42 velocity=71 time=0
EXTRACT: note_on channel=9 note=70 velocity=40 time=0
EXTRACT: note_on channel=9 note=54 velocity=127 time=0
EXTRACT: note_on channel=3 note=60 velocity=75 time=0.012885208333333334
EXTRACT: note_on channel=3 note=65 velocity=75 time=0
EXTRACT: note_on channel=10 note=65 velocity=125 time=0
EXTRACT: note_on channel=3 note=68 velocity=75 time=0.012885208333333334
EXTRACT: note_on channel=3 note=72 velocity=75 time=0
EXTRACT: note_off channel=10 note=67 velocity=0 time=0
EXTRACT: note_off channel=3 note=60 velocity=0 time=0.025770416666666667
EXTRACT: note_off channel=9 note=54 velocity=0 time=0
EXTRACT: note_off channel=9 note=70 velocity=0 time=0
EXTRACT: note_off channel=9 note=42 velocity=0 time=0
EXTRACT: note_off channel=9 note=44 velocity=0 time=0
EXTRACT: note_off channel=3 note=65 velocity=0 time=0.012885208333333334
EXTRACT: note_off channel=3 note=72 velocity=0 time=0.012885208333333334
EXTRACT: note_off channel=3 note=68 velocity=0 time=0
EXTRACT: note_off channel=2 note=29 velocity=0 time=0.051540833333333334
EXTRACT: note_off channel=9 note=90 velocity=0 time=0
EXTRACT: note_off channel=9 note=40 velocity=0 time=0
EXTRACT: note_on channel=3 note=72 velocity=54 time=0.012885208333333334
EXTRACT: note_on channel=9 note=70 velocity=65 time=0
EXTRACT: note_on channel=9 note=54 velocity=64 time=0
EXTRACT: note_on channel=3 note=68 velocity=54 time=0.012885208333333334
EXTRACT: note_on channel=3 note=65 velocity=54 time=0.012885208333333334
EXTRACT: note_on channel=3 note=60 velocity=54 time=0.012885208333333334
EXTRACT: note_off channel=3 note=72 velocity=0 time=0.025770416666666667
EXTRACT: note_off channel=9 note=54 velocity=0 time=0
EXTRACT: note_off channel=9 note=70 velocity=0 time=0
EXTRACT: note_off channel=3 note=68 velocity=0 time=0.012885208333333334
EXTRACT: note_off channel=3 note=65 velocity=0 time=0.012885208333333334
EXTRACT: note_off channel=3 note=60 velocity=0 time=0.012885208333333334
EXTRACT: note_on channel=3 note=60 velocity=50 time=0.051540833333333334
EXTRACT: note_on channel=9 note=42 velocity=40 time=0
EXTRACT: note_on channel=9 note=70 velocity=110 time=0
EXTRACT: note_on channel=3 note=65 velocity=50 time=0.012885208333333334
EXTRACT: note_on channel=9 note=54 velocity=111 time=0
EXTRACT: note_on channel=3 note=68 velocity=50 time=0.012885208333333334
EXTRACT: note_on channel=3 note=72 velocity=50 time=0
EXTRACT: note_off channel=3 note=60 velocity=0 time=0.038655625
EXTRACT: note_off channel=9 note=54 velocity=0 time=0
EXTRACT: note_off channel=9 note=70 velocity=0 time=0
EXTRACT: note_off channel=9 note=42 velocity=0 time=0
EXTRACT: note_off channel=3 note=68 velocity=0 time=0.012885208333333334
EXTRACT: note_off channel=3 note=65 velocity=0 time=0
EXTRACT: note_off channel=3 note=72 velocity=0 time=0.012885208333333334
EXTRACT: note_on channel=3 note=72 velocity=69 time=0.06442604166666667
EXTRACT: note_on channel=9 note=70 velocity=64 time=0
EXTRACT: note_off channel=3 note=72 velocity=0 time=0.012885208333333334
EXTRACT: control_change channel=3 control=64 value=0 time=0
EXTRACT: note_off channel=4 note=60 velocity=0 time=0
EXTRACT: note_on channel=9 note=54 velocity=58 time=0
EXTRACT: note_off channel=4 note=65 velocity=0 time=0.012885208333333334
EXTRACT: note_on channel=4 note=62 velocity=127 time=0
EXTRACT: note_on channel=4 note=67 velocity=127 time=0
EXTRACT: control_change channel=3 control=64 value=127 time=0.012885208333333334
EXTRACT: note_on channel=3 note=71 velocity=69 time=0
EXTRACT: note_on channel=3 note=67 velocity=69 time=0
EXTRACT: note_on channel=3 note=62 velocity=69 time=0.012885208333333334
EXTRACT: control_change channel=3 control=64 value=0 time=0
EXTRACT: note_off channel=9 note=54 velocity=0 time=0.012885208333333334
EXTRACT: note_off channel=9 note=70 velocity=0 time=0
EXTRACT: note_off channel=3 note=67 velocity=0 time=0.012885208333333334
EXTRACT: note_off channel=3 note=71 velocity=0 time=0
EXTRACT: note_off channel=3 note=62 velocity=0 time=0.012885208333333334
EXTRACT: control_change channel=3 control=64 value=127 time=0
EXTRACT: note_on channel=9 note=42 velocity=69 time=0.06442604166666667
EXTRACT: note_on channel=2 note=31 velocity=110 time=0.012885208333333334
EXTRACT: note_on channel=3 note=62 velocity=56 time=0
EXTRACT: note_on channel=9 note=44 velocity=69 time=0
EXTRACT: note_on channel=9 note=70 velocity=40 time=0
EXTRACT: note_on channel=9 note=54 velocity=127 time=0
EXTRACT: note_on channel=9 note=36 velocity=110 time=0
EXTRACT: note_on channel=3 note=67 velocity=56 time=0.012885208333333334
EXTRACT: note_on channel=3 note=71 velocity=56 time=0
EXTRACT: note_on channel=3 note=74 velocity=52 time=0.012885208333333334
EXTRACT: note_off channel=3 note=67 velocity=0 time=0.025770416666666667
EXTRACT: note_off channel=3 note=62 velocity=0 time=0
EXTRACT: note_off channel=9 note=36 velocity=0 time=0
EXTRACT: note_off channel=9 note=54 velocity=0 time=0
EXTRACT: note_off channel=9 note=70 velocity=0 time=0
EXTRACT: note_off channel=9 note=44 velocity=0 time=0
EXTRACT: note_off channel=9 note=42 velocity=0 time=0
EXTRACT: note_off channel=3 note=71 velocity=0 time=0.012885208333333334
EXTRACT: note_off channel=3 note=74 velocity=0 time=0.025770416666666667
EXTRACT: note_off channel=10 note=65 velocity=0 time=0.038655625
EXTRACT: note_on channel=3 note=62 velocity=52 time=0.012885208333333334
EXTRACT: note_on channel=9 note=70 velocity=56 time=0
EXTRACT: note_on channel=9 note=54 velocity=56 time=0
EXTRACT: note_on channel=3 note=67 velocity=52 time=0.012885208333333334
EXTRACT: note_on channel=3 note=71 velocity=52 time=0
EXTRACT: note_on channel=3 note=74 velocity=52 time=0.012885208333333334
EXTRACT: note_off channel=3 note=62 velocity=0 time=0.038655625
EXTRACT: note_off channel=9 note=54 velocity=0 time=0
EXTRACT: note_off channel=9 note=70 velocity=0 time=0
EXTRACT: note_off channel=3 note=71 velocity=0 time=0.012885208333333334
EXTRACT: note_off channel=3 note=67 velocity=0 time=0
EXTRACT: note_off channel=3 note=74 velocity=0 time=0.012885208333333334
EXTRACT: note_on channel=10 note=63 velocity=101 time=0.038655625
EXTRACT: note_on channel=3 note=74 velocity=52 time=0.025770416666666667
EXTRACT: note_on channel=9 note=42 velocity=38 time=0
EXTRACT: note_on channel=9 note=70 velocity=110 time=0
EXTRACT: note_on channel=3 note=71 velocity=52 time=0.012885208333333334
EXTRACT: note_on channel=9 note=54 velocity=99 time=0
EXTRACT: note_on channel=3 note=67 velocity=52 time=0.012885208333333334
EXTRACT: note_on channel=3 note=62 velocity=52 time=0.012885208333333334
EXTRACT: note_off channel=2 note=31 velocity=0 time=0.025770416666666667
EXTRACT: note_off channel=3 note=74 velocity=0 time=0
EXTRACT: note_off channel=9 note=54 velocity=0 time=0
EXTRACT: note_off channel=9 note=70 velocity=0 time=0
EXTRACT: note_off channel=9 note=42 velocity=0 time=0
EXTRACT: note_off channel=3 note=71 velocity=0 time=0.012885208333333334
EXTRACT: note_off channel=3 note=67 velocity=0 time=0.012885208333333334
EXTRACT: note_off channel=3 note=62 velocity=0 time=0.012885208333333334
EXTRACT: note_on channel=10 note=62 velocity=115 time=0.038655625
EXTRACT: note_on channel=2 note=31 velocity=125 time=0.012885208333333334
EXTRACT: note_on channel=9 note=70 velocity=64 time=0
EXTRACT: note_on channel=9 note=36 velocity=123 time=0
EXTRACT: note_on channel=3 note=74 velocity=54 time=0.012885208333333334
EXTRACT: note_on channel=3 note=71 velocity=54 time=0
EXTRACT: note_on channel=9 note=54 velocity=52 time=0
EXTRACT: note_on channel=3 note=67 velocity=54 time=0.012885208333333334
EXTRACT: note_on channel=3 note=62 velocity=54 time=0
EXTRACT: note_off channel=10 note=63 velocity=0 time=0
EXTRACT: control_change channel=3 control=64 value=0 time=0.025770416666666667
EXTRACT: note_off channel=3 note=74 velocity=0 time=0.012885208333333334
EXTRACT: note_off channel=9 note=54 velocity=0 time=0
EXTRACT: note_off channel=9 note=36 velocity=0 time=0
EXTRACT: note_off channel=9 note=70 velocity=0 time=0
EXTRACT: note_off channel=3 note=71 velocity=0 time=0.012885208333333334
EXTRACT: note_off channel=3 note=62 velocity=0 time=0.012885208333333334
EXTRACT: note_off channel=3 note=67 velocity=0 time=0
EXTRACT: control_change channel=3 control=64 value=127 time=0.012885208333333334
EXTRACT: note_on channel=9 note=40 velocity=100 time=0.051540833333333334
EXTRACT: note_on channel=9 note=90 velocity=127 time=0.012885208333333334
EXTRACT: note_on channel=9 note=44 velocity=71 time=0
EXTRACT: note_on channel=9 note=42 velocity=71 time=0
EXTRACT: note_on channel=9 note=70 velocity=40 time=0
EXTRACT: note_on channel=9 note=54 velocity=127 time=0
EXTRACT: note_on channel=3 note=62 velocity=73 time=0.012885208333333334
EXTRACT: note_on channel=3 note=67 velocity=73 time=0
EXTRACT: note_on channel=3 note=71 velocity=73 time=0.012885208333333334
EXTRACT: note_on channel=3 note=74 velocity=73 time=0
EXTRACT: note_off channel=3 note=62 velocity=0 time=0.025770416666666667
EXTRACT: note_off channel=9 note=54 velocity=0 time=0
EXTRACT: note_off channel=9 note=70 velocity=0 time=0
EXTRACT: note_off channel=9 note=42 velocity=0 time=0
EXTRACT: note_off channel=9 note=44 velocity=0 time=0
EXTRACT: note_off channel=3 note=67 velocity=0 time=0.012885208333333334
EXTRACT: note_off channel=3 note=74 velocity=0 time=0.012885208333333334
EXTRACT: note_off channel=3 note=71 velocity=0 time=0
EXTRACT: note_off channel=10 note=62 velocity=0 time=0.038655625
EXTRACT: note_off channel=9 note=90 velocity=0 time=0.012885208333333334
EXTRACT: note_off channel=9 note=40 velocity=0 time=0
EXTRACT: note_on channel=10 note=60 velocity=106 time=0
EXTRACT: note_on channel=3 note=74 velocity=50 time=0.012885208333333334
EXTRACT: note_on channel=9 note=70 velocity=65 time=0
EXTRACT: note_on channel=9 note=54 velocity=64 time=0
EXTRACT: note_on channel=3 note=71 velocity=50 time=0.012885208333333334
EXTRACT: note_on channel=3 note=67 velocity=50 time=0.012885208333333334
EXTRACT: note_on channel=3 note=62 velocity=52 time=0.012885208333333334
EXTRACT: note_off channel=3 note=74 velocity=0 time=0.025770416666666667
EXTRACT: note_off channel=9 note=54 velocity=0 time=0
EXTRACT: note_off channel=9 note=70 velocity=0 time=0
EXTRACT: note_off channel=3 note=71 velocity=0 time=0.012885208333333334
EXTRACT: note_off channel=3 note=67 velocity=0 time=0.012885208333333334
EXTRACT: note_off channel=2 note=31 velocity=0 time=0.012885208333333334
EXTRACT: note_off channel=3 note=62 velocity=0 time=0
EXTRACT: note_on channel=2 note=31 velocity=125 time=0.051540833333333334
EXTRACT: note_on channel=9 note=42 velocity=42 time=0
EXTRACT: note_on channel=3 note=62 velocity=52 time=0.012885208333333334
EXTRACT: note_on channel=9 note=70 velocity=107 time=0
EXTRACT: note_on channel=9 note=36 velocity=119 time=0
EXTRACT: note_on channel=9 note=54 velocity=101 time=0
EXTRACT: note_on channel=3 note=67 velocity=52 time=0.012885208333333334
EXTRACT: note_on channel=3 note=71 velocity=52 time=0
EXTRACT: note_on channel=3 note=74 velocity=52 time=0
EXTRACT: note_off channel=3 note=62 velocity=0 time=0.038655625
EXTRACT: note_off channel=9 note=54 velocity=0 time=0
EXTRACT: note_off channel=9 note=36 velocity=0 time=0
EXTRACT: note_off channel=9 note=70 velocity=0 time=0
EXTRACT: note_off channel=9 note=42 velocity=0 time=0
EXTRACT: note_off channel=3 note=71 velocity=0 time=0.012885208333333334
EXTRACT: note_off channel=3 note=67 velocity=0 time=0
EXTRACT: note_off channel=3 note=74 velocity=0 time=0.012885208333333334
EXTRACT: note_on channel=3 note=74 velocity=52 time=0.06442604166666667
EXTRACT: note_on channel=9 note=70 velocity=67 time=0
EXTRACT: note_on channel=9 note=54 velocity=58 time=0
EXTRACT: note_on channel=3 note=71 velocity=52 time=0.012885208333333334
EXTRACT: note_on channel=3 note=67 velocity=52 time=0
EXTRACT: note_on channel=3 note=62 velocity=52 time=0.012885208333333334
EXTRACT: control_change channel=3 control=64 value=0 time=0.025770416666666667
EXTRACT: note_off channel=3 note=74 velocity=0 time=0.012885208333333334
EXTRACT: note_off channel=9 note=54 velocity=0 time=0
EXTRACT: note_off channel=9 note=70 velocity=0 time=0
EXTRACT: note_off channel=3 note=67 velocity=0 time=0.012885208333333334
EXTRACT: note_off channel=3 note=71 velocity=0 time=0
EXTRACT: note_off channel=10 note=60 velocity=0 time=0
EXTRACT: note_off channel=3 note=62 velocity=0 time=0.012885208333333334
EXTRACT: control_change channel=3 control=64 value=127 time=0
EXTRACT: note_off channel=2 note=31 velocity=0 time=0.025770416666666667
EXTRACT: control_change channel=3 control=64 value=0 time=0
EXTRACT: note_off channel=4 note=67 velocity=0 time=0
EXTRACT: note_off channel=4 note=62 velocity=0 time=0
EXTRACT: note_on channel=4 note=60 velocity=127 time=0
EXTRACT: control_change channel=3 control=64 value=127 time=0.012885208333333334
EXTRACT: note_on channel=4 note=63 velocity=127 time=0
EXTRACT: note_on channel=9 note=42 velocity=69 time=0.025770416666666667
EXTRACT: note_on channel=2 note=36 velocity=121 time=0.012885208333333334
EXTRACT: control_change channel=3 control=64 value=127 time=0
EXTRACT: note_on channel=9 note=44 velocity=69 time=0
EXTRACT: note_on channel=9 note=70 velocity=40 time=0
EXTRACT: note_on channel=9 note=54 velocity=127 time=0
EXTRACT: note_on channel=9 note=36 velocity=125 time=0
EXTRACT: note_on channel=3 note=60 velocity=81 time=0.012885208333333334
EXTRACT: note_on channel=10 note=60 velocity=94 time=0
EXTRACT: note_on channel=3 note=63 velocity=81 time=0.012885208333333334
EXTRACT: note_on channel=3 note=67 velocity=81 time=0
EXTRACT: note_on channel=3 note=72 velocity=81 time=0
EXTRACT: note_off channel=3 note=60 velocity=0 time=0.025770416666666667
EXTRACT: note_off channel=9 note=36 velocity=0 time=0
EXTRACT: note_off channel=9 note=54 velocity=0 time=0
EXTRACT: note_off channel=9 note=70 velocity=0 time=0
EXTRACT: note_off channel=3 note=63 velocity=0 time=0.012885208333333334
EXTRACT: note_off channel=3 note=72 velocity=0 time=0.012885208333333334
EXTRACT: note_off channel=3 note=67 velocity=0 time=0
EXTRACT: note_off channel=9 note=44 velocity=0 time=0.051540833333333334
EXTRACT: note_off channel=9 note=42 velocity=0 time=0
EXTRACT: note_on channel=3 note=72 velocity=54 time=0.012885208333333334
EXTRACT: note_on channel=9 note=70 velocity=65 time=0
EXTRACT: note_on channel=9 note=54 velocity=71 time=0
EXTRACT: note_on channel=3 note=67 velocity=54 time=0.012885208333333334
EXTRACT: note_on channel=3 note=63 velocity=54 time=0.012885208333333334
EXTRACT: note_on channel=10 note=55 velocity=92 time=0
EXTRACT: note_on channel=3 note=60 velocity=50 time=0.012885208333333334
EXTRACT: note_off channel=3 note=72 velocity=0 time=0.025770416666666667
EXTRACT: note_off channel=9 note=54 velocity=0 time=0
EXTRACT: note_off channel=9 note=70 velocity=0 time=0
EXTRACT: note_off channel=3 note=67 velocity=0 time=0.012885208333333334
EXTRACT: note_off channel=3 note=63 velocity=0 time=0.012885208333333334
EXTRACT: note_off channel=3 note=60 velocity=0 time=0.012885208333333334
EXTRACT: note_on channel=3 note=60 velocity=52 time=0.051540833333333334
EXTRACT: note_on channel=9 note=42 velocity=36 time=0
EXTRACT: note_on channel=9 note=70 velocity=113 time=0
EXTRACT: note_on channel=3 note=63 velocity=52 time=0.012885208333333334
EXTRACT: note_on channel=9 note=54 velocity=117 time=0
EXTRACT: note_on channel=10 note=62 velocity=87 time=0
EXTRACT: note_on channel=3 note=67 velocity=52 time=0.012885208333333334
EXTRACT: note_on channel=3 note=72 velocity=52 time=0
EXTRACT: note_off channel=3 note=60 velocity=0 time=0.038655625
EXTRACT: note_off channel=9 note=54 velocity=0 time=0
EXTRACT: note_off channel=9 note=70 velocity=0 time=0
EXTRACT: note_off channel=9 note=42 velocity=0 time=0
EXTRACT: note_off channel=3 note=67 velocity=0 time=0.012885208333333334
EXTRACT: note_off channel=3 note=63 velocity=0 time=0
EXTRACT: note_off channel=3 note=72 velocity=0 time=0.012885208333333334
EXTRACT: note_off channel=2 note=36 velocity=0 time=0.038655625
EXTRACT: note_on channel=9 note=36 velocity=110 time=0.025770416666666667
EXTRACT: note_on channel=9 note=70 velocity=60 time=0
EXTRACT: note_on channel=2 note=36 velocity=125 time=0.012885208333333334
EXTRACT: note_on channel=3 note=72 velocity=50 time=0
EXTRACT: note_on channel=9 note=54 velocity=69 time=0
EXTRACT: note_on channel=10 note=63 velocity=74 time=0
EXTRACT: note_on channel=3 note=67 velocity=50 time=0.012885208333333334
EXTRACT: note_on channel=3 note=63 velocity=50 time=0
EXTRACT: note_on channel=3 note=60 velocity=50 time=0
EXTRACT: control_change channel=3 control=64 value=0 time=0.012885208333333334
EXTRACT: note_off channel=3 note=72 velocity=0 time=0.025770416666666667
EXTRACT: note_off channel=9 note=54 velocity=0 time=0
EXTRACT: note_off channel=9 note=70 velocity=0 time=0
EXTRACT: note_off channel=9 note=36 velocity=0 time=0
EXTRACT: note_off channel=3 note=63 velocity=0 time=0.012885208333333334
EXTRACT: note_off channel=3 note=67 velocity=0 time=0
EXTRACT: note_off channel=3 note=60 velocity=0 time=0.012885208333333334
EXTRACT: note_off channel=10 note=62 velocity=0 time=0
EXTRACT: note_on channel=9 note=40 velocity=100 time=0.06442604166666667
EXTRACT: note_on channel=9 note=90 velocity=127 time=0
EXTRACT: note_on channel=3 note=60 velocity=110 time=0.012885208333333334
EXTRACT: note_on channel=9 note=44 velocity=71 time=0
EXTRACT: note_on channel=9 note=70 velocity=113 time=0
EXTRACT: note_on channel=9 note=49 velocity=73 time=0
EXTRACT: note_on channel=3 note=63 velocity=110 time=0.012885208333333334
EXTRACT: note_on channel=3 note=67 velocity=110 time=0
EXTRACT: note_on channel=3 note=72 velocity=110 time=0
EXTRACT: note_off channel=3 note=60 velocity=0 time=0.038655625
EXTRACT: note_off channel=9 note=49 velocity=0 time=0
EXTRACT: note_off channel=9 note=70 velocity=0 time=0
EXTRACT: note_off channel=9 note=44 velocity=0 time=0
EXTRACT: note_off channel=3 note=63 velocity=0 time=0.012885208333333334
EXTRACT: note_off channel=3 note=72 velocity=0 time=0.012885208333333334
EXTRACT: note_off channel=3 note=67 velocity=0 time=0
EXTRACT: note_off channel=2 note=36 velocity=0 time=0.051540833333333334
EXTRACT: note_off channel=9 note=90 velocity=0 time=0
EXTRACT: note_off channel=9 note=40 velocity=0 time=0
EXTRACT: note_on channel=3 note=72 velocity=40 time=0.012885208333333334
EXTRACT: note_on channel=9 note=70 velocity=10 time=0
EXTRACT: note_on channel=3 note=67 velocity=40 time=0.012885208333333334
EXTRACT: note_on channel=3 note=63 velocity=40 time=0.012885208333333334
EXTRACT: note_on channel=3 note=60 velocity=40 time=0.012885208333333334
EXTRACT: note_off channel=3 note=72 velocity=0 time=0.025770416666666667
EXTRACT: note_off channel=9 note=70 velocity=0 time=0
EXTRACT: note_off channel=3 note=67 velocity=0 time=0.012885208333333334
EXTRACT: note_off channel=10 note=60 velocity=0 time=0
EXTRACT: note_off channel=3 note=63 velocity=0 time=0.012885208333333334
EXTRACT: note_off channel=3 note=60 velocity=0 time=0.012885208333333334
EXTRACT: note_on channel=3 note=60 velocity=46 time=0.051540833333333334
EXTRACT: note_on channel=9 note=70 velocity=24 time=0
EXTRACT: note_on channel=3 note=63 velocity=46 time=0.012885208333333334
EXTRACT: note_on channel=3 note=67 velocity=46 time=0
EXTRACT: note_on channel=3 note=72 velocity=46 time=0.012885208333333334
EXTRACT: note_off channel=3 note=60 velocity=0 time=0.038655625
EXTRACT: note_off channel=9 note=70 velocity=0 time=0
EXTRACT: note_off channel=3 note=67 velocity=0 time=0.012885208333333334
EXTRACT: note_off channel=3 note=63 velocity=0 time=0
EXTRACT: note_off channel=3 note=72 velocity=0 time=0.012885208333333334
EXTRACT: note_on channel=3 note=72 velocity=77 time=0.06442604166666667
EXTRACT: note_on channel=9 note=36 velocity=110 time=0
EXTRACT: note_on channel=9 note=70 velocity=64 time=0
EXTRACT: note_on channel=3 note=67 velocity=77 time=0.012885208333333334
EXTRACT: note_on channel=3 note=63 velocity=77 time=0
EXTRACT: note_on channel=3 note=60 velocity=77 time=0.012885208333333334
EXTRACT: note_off channel=3 note=72 velocity=0 time=0.038655625
EXTRACT: note_off channel=9 note=70 velocity=0 time=0
EXTRACT: note_off channel=9 note=36 velocity=0 time=0
EXTRACT: note_off channel=3 note=63 velocity=0 time=0.012885208333333334
EXTRACT: note_off channel=3 note=67 velocity=0 time=0
EXTRACT: note_off channel=3 note=60 velocity=0 time=0.012885208333333334
EXTRACT: note_on channel=9 note=40 velocity=100 time=0.06442604166666667
EXTRACT: note_on channel=9 note=90 velocity=125 time=0
EXTRACT: note_on channel=2 note=36 velocity=110 time=0.012885208333333334
EXTRACT: note_on channel=4 note=60 velocity=116 time=0
EXTRACT: note_on channel=9 note=70 velocity=110 time=0
EXTRACT: note_on channel=9 note=44 velocity=40 time=0
EXTRACT: note_off channel=4 note=60 velocity=0 time=0.051540833333333334
EXTRACT: note_off channel=9 note=44 velocity=0 time=0
EXTRACT: note_off channel=9 note=70 velocity=0 time=0
EXTRACT: note_off channel=9 note=90 velocity=0 time=0
EXTRACT: note_off channel=9 note=40 velocity=0 time=0
EXTRACT: note_off channel=2 note=36 velocity=0 time=0.07731125
EXTRACT: note_on channel=3 note=60 velocity=93 time=0.012885208333333334
EXTRACT: note_on channel=9 note=70 velocity=10 time=0
EXTRACT: note_on channel=3 note=63 velocity=93 time=0.012885208333333334
EXTRACT: note_on channel=3 note=67 velocity=93 time=0
EXTRACT: note_on channel=3 note=72 velocity=93 time=0.012885208333333334
EXTRACT: note_off channel=3 note=60 velocity=0 time=0.038655625
EXTRACT: note_off channel=9 note=70 velocity=0 time=0
EXTRACT: note_off channel=3 note=67 velocity=0 time=0.012885208333333334
EXTRACT: note_off channel=3 note=63 velocity=0 time=0
EXTRACT: note_off channel=3 note=72 velocity=0 time=0.012885208333333334
EXTRACT: note_on channel=9 note=40 velocity=100 time=0.06442604166666667
EXTRACT: note_on channel=9 note=90 velocity=123 time=0
EXTRACT: note_on channel=9 note=70 velocity=24 time=0
EXTRACT: note_on channel=3 note=72 velocity=44 time=0.012885208333333334
EXTRACT: note_on channel=3 note=67 velocity=44 time=0
EXTRACT: note_off channel=10 note=55 velocity=0 time=0
EXTRACT: note_on channel=3 note=63 velocity=44 time=0.012885208333333334
EXTRACT: note_on channel=3 note=60 velocity=44 time=0.012885208333333334
EXTRACT: note_off channel=3 note=72 velocity=0 time=0.025770416666666667
EXTRACT: note_off channel=9 note=70 velocity=0 time=0
EXTRACT: note_off channel=9 note=90 velocity=0 time=0
EXTRACT: note_off channel=9 note=40 velocity=0 time=0
EXTRACT: note_off channel=3 note=67 velocity=0 time=0.012885208333333334
EXTRACT: note_off channel=10 note=63 velocity=0 time=0
EXTRACT: note_off channel=3 note=63 velocity=0 time=0.012885208333333334
EXTRACT: note_off channel=3 note=60 velocity=0 time=0.012885208333333334
EXTRACT: note_on channel=4 note=60 velocity=113 time=0.051540833333333334
EXTRACT: note_on channel=9 note=36 velocity=110 time=0
EXTRACT: note_on channel=9 note=70 velocity=64 time=0
EXTRACT: note_on channel=10 note=60 velocity=106 time=0.012885208333333334
EXTRACT: note_off channel=4 note=60 velocity=0 time=0.038655625
EXTRACT: note_off channel=9 note=70 velocity=0 time=0.012885208333333334
EXTRACT: note_off channel=9 note=36 velocity=0 time=0
EXTRACT: note_on channel=9 note=40 velocity=40 time=0.012885208333333334
EXTRACT: note_off channel=10 note=60 velocity=0 time=0
EXTRACT: note_off channel=9 note=40 velocity=0 time=0.012885208333333334
EXTRACT: note_on channel=9 note=40 velocity=60 time=0.025770416666666667
EXTRACT: note_off channel=9 note=40 velocity=0 time=0.012885208333333334
EXTRACT: note_on channel=9 note=40 velocity=100 time=0.025770416666666667
EXTRACT: note_on channel=3 note=60 velocity=83 time=0.012885208333333334
EXTRACT: note_on channel=9 note=90 velocity=127 time=0
EXTRACT: note_on channel=9 note=44 velocity=71 time=0
EXTRACT: note_on channel=9 note=70 velocity=110 time=0
EXTRACT: note_on channel=10 note=60 velocity=115 time=0
EXTRACT: note_on channel=3 note=63 velocity=83 time=0.012885208333333334
EXTRACT: note_on channel=3 note=67 velocity=83 time=0
EXTRACT: note_on channel=3 note=72 velocity=83 time=0.012885208333333334
EXTRACT: note_off channel=3 note=63 velocity=0 time=0.025770416666666667
EXTRACT: note_off channel=3 note=60 velocity=0 time=0
EXTRACT: note_off channel=9 note=70 velocity=0 time=0
EXTRACT: note_off channel=9 note=44 velocity=0 time=0
EXTRACT: note_off channel=3 note=67 velocity=0 time=0.012885208333333334
EXTRACT: note_off channel=3 note=72 velocity=0 time=0.025770416666666667
EXTRACT: note_off channel=10 note=60 velocity=0 time=0.025770416666666667
EXTRACT: note_off channel=9 note=90 velocity=0 time=0.012885208333333334
EXTRACT: note_off channel=9 note=40 velocity=0 time=0
EXTRACT: note_on channel=10 note=58 velocity=106 time=0
EXTRACT: note_on channel=3 note=72 velocity=44 time=0.012885208333333334
EXTRACT: note_on channel=9 note=47 velocity=110 time=0
EXTRACT: note_on channel=9 note=70 velocity=10 time=0
EXTRACT: note_on channel=2 note=29 velocity=48 time=0.012885208333333334
EXTRACT: note_on channel=2 note=32 velocity=38 time=0
EXTRACT: note_on channel=3 note=67 velocity=44 time=0
EXTRACT: note_off channel=2 note=29 velocity=0 time=0.0016106510416666667
EXTRACT: note_off channel=2 note=32 velocity=0 time=0.011274557291666668
EXTRACT: note_on channel=3 note=63 velocity=44 time=0
EXTRACT: note_on channel=3 note=60 velocity=44 time=0
EXTRACT: note_on channel=2 note=24 velocity=60 time=0.012885208333333334
EXTRACT: note_off channel=3 note=72 velocity=0 time=0.025770416666666667
EXTRACT: note_off channel=9 note=70 velocity=0 time=0
EXTRACT: note_off channel=9 note=47 velocity=0 time=0
EXTRACT: note_off channel=3 note=60 velocity=0 time=0.012885208333333334
EXTRACT: note_off channel=3 note=63 velocity=0 time=0
EXTRACT: note_off channel=3 note=67 velocity=0 time=0
EXTRACT: note_off channel=4 note=60 velocity=0 time=0
EXTRACT: note_off channel=4 note=63 velocity=0 time=0
EXTRACT: control_change channel=4 control=0 value=0 time=0
EXTRACT: control_change channel=4 control=0 value=0 time=0
EXTRACT: control_change channel=4 control=32 value=0 time=0
EXTRACT: control_change channel=4 control=0 value=0 time=0
EXTRACT: control_change channel=4 control=32 value=0 time=0
EXTRACT: program_change channel=4 program=89 time=0
EXTRACT: note_on channel=4 note=60 velocity=127 time=0.012885208333333334
EXTRACT: note_on channel=4 note=65 velocity=127 time=0
EXTRACT: note_off channel=2 note=24 velocity=0 time=0.012885208333333334
EXTRACT: note_on channel=10 note=60 velocity=87 time=0.038655625
EXTRACT: note_on channel=4 note=60 velocity=96 time=0.012885208333333334
EXTRACT: note_on channel=9 note=45 velocity=110 time=0
EXTRACT: note_on channel=9 note=70 velocity=22 time=0
EXTRACT: note_off channel=4 note=60 velocity=0 time=0.038655625
EXTRACT: note_off channel=9 note=70 velocity=0 time=0.025770416666666667
EXTRACT: note_off channel=9 note=45 velocity=0 time=0
EXTRACT: note_off channel=10 note=58 velocity=0 time=0.038655625
EXTRACT: note_on channel=10 note=67 velocity=87 time=0.025770416666666667
EXTRACT: note_off channel=10 note=60 velocity=0 time=0.012885208333333334
EXTRACT: note_on channel=4 note=60 velocity=81 time=0.012885208333333334
EXTRACT: note_on channel=9 note=36 velocity=91 time=0
EXTRACT: note_on channel=9 note=55 velocity=85 time=0
EXTRACT: note_on channel=9 note=70 velocity=67 time=0
EXTRACT: note_off channel=9 note=70 velocity=0 time=0.06442604166666667
EXTRACT: note_off channel=9 note=55 velocity=0 time=0
EXTRACT: note_off channel=9 note=36 velocity=0 time=0
EXTRACT: note_off channel=4 note=60 velocity=0 time=0.012885208333333334
EXTRACT: note_off channel=4 note=65 velocity=0 time=0
EXTRACT: note_off channel=10 note=67 velocity=0 time=0
EXTRACT: note_off channel=4 note=60 velocity=0 time=0.051540833333333334
EXTRACT: note_on channel=10 note=63 velocity=108 time=0.012885208333333334
EXTRACT: note_on channel=10 note=67 velocity=101 time=0
EXTRACT: program_change channel=9 program=0 time=0.025770416666666667
EXTRACT: note_on channel=9 note=49 velocity=90 time=0
EXTRACT: program_change channel=9 program=32 time=0
EXTRACT: note_on channel=10 note=60 velocity=111 time=0
EXTRACT: note_off channel=9 note=49 velocity=0 time=0.0016106510416666667
EXTRACT: note_on channel=4 note=65 velocity=111 time=0.011274557291666668
EXTRACT: note_on channel=4 note=60 velocity=104 time=0
EXTRACT: note_on channel=9 note=36 velocity=127 time=0
EXTRACT: note_on channel=9 note=44 velocity=69 time=0
EXTRACT: note_on channel=9 note=70 velocity=107 time=0.012885208333333334
EXTRACT: note_on channel=9 note=42 velocity=69 time=0
EXTRACT: note_off channel=9 note=70 velocity=0 time=0.025770416666666667
EXTRACT: note_off channel=9 note=42 velocity=0 time=0.07731125
EXTRACT: note_off channel=9 note=44 velocity=0 time=0
EXTRACT: note_off channel=9 note=36 velocity=0 time=0
EXTRACT: note_on channel=9 note=70 velocity=8 time=0.012885208333333334
EXTRACT: control_change channel=9 control=7 value=102 time=0.012885208333333334
EXTRACT: control_change channel=9 control=7 value=0 time=0.038655625
EXTRACT: note_off channel=9 note=70 velocity=0 time=0.012885208333333334
EXTRACT: note_off channel=10 note=60 velocity=0 time=0.06442604166666667
EXTRACT: note_off channel=10 note=67 velocity=0 time=0.012885208333333334
EXTRACT: note_off channel=10 note=63 velocity=0 time=0
EXTRACT: note_on channel=9 note=70 velocity=22 time=0.012885208333333334
EXTRACT: note_on channel=9 note=42 velocity=36 time=0
EXTRACT: note_on channel=10 note=60 velocity=95 time=0.025770416666666667
EXTRACT: note_on channel=10 note=67 velocity=89 time=0
EXTRACT: note_on channel=10 note=63 velocity=89 time=0
EXTRACT: note_off channel=9 note=42 velocity=0 time=0.038655625
EXTRACT: note_off channel=9 note=70 velocity=0 time=0
EXTRACT: note_on channel=9 note=36 velocity=99 time=0.09019645833333334
EXTRACT: note_on channel=9 note=70 velocity=60 time=0
EXTRACT: note_off channel=9 note=70 velocity=0 time=0.06442604166666667
EXTRACT: note_off channel=9 note=36 velocity=0 time=0
EXTRACT: note_off channel=10 note=67 velocity=0 time=0.051540833333333334
EXTRACT: note_off channel=10 note=60 velocity=0 time=0.012885208333333334
EXTRACT: note_off channel=10 note=63 velocity=0 time=0.012885208333333334
EXTRACT: note_on channel=9 note=40 velocity=100 time=0.012885208333333334
EXTRACT: note_on channel=3 note=60 velocity=110 time=0.012885208333333334
EXTRACT: note_on channel=9 note=90 velocity=127 time=0
EXTRACT: note_on channel=9 note=44 velocity=71 time=0
EXTRACT: note_on channel=9 note=70 velocity=113 time=0
EXTRACT: note_on channel=9 note=42 velocity=71 time=0
EXTRACT: note_on channel=10 note=60 velocity=91 time=0.012885208333333334
EXTRACT: note_on channel=10 note=67 velocity=79 time=0
EXTRACT: note_on channel=3 note=65 velocity=110 time=0.012885208333333334
EXTRACT: note_on channel=3 note=68 velocity=110 time=0
EXTRACT: note_on channel=3 note=72 velocity=110 time=0
EXTRACT: note_on channel=10 note=63 velocity=118 time=0
EXTRACT: note_off channel=3 note=60 velocity=0 time=0.025770416666666667
EXTRACT: note_off channel=9 note=42 velocity=0 time=0
EXTRACT: note_off channel=9 note=70 velocity=0 time=0
EXTRACT: note_off channel=9 note=44 velocity=0 time=0
EXTRACT: note_off channel=3 note=65 velocity=0 time=0.012885208333333334
EXTRACT: note_off channel=3 note=72 velocity=0 time=0.012885208333333334
EXTRACT: note_off channel=3 note=68 velocity=0 time=0
EXTRACT: note_on channel=2 note=38 velocity=51 time=0.012885208333333334
EXTRACT: note_off channel=2 note=38 velocity=0 time=0.012885208333333334
EXTRACT: note_on channel=2 note=31 velocity=46 time=0
EXTRACT: note_off channel=2 note=31 velocity=0 time=0.012885208333333334
EXTRACT: note_on channel=2 note=35 velocity=82 time=0
EXTRACT: note_off channel=9 note=90 velocity=0 time=0.012885208333333334
EXTRACT: note_off channel=9 note=40 velocity=0 time=0
EXTRACT: note_on channel=3 note=72 velocity=40 time=0.012885208333333334
EXTRACT: note_on channel=9 note=70 velocity=10 time=0
EXTRACT: note_off channel=3 note=72 velocity=0 time=0.012885208333333334
EXTRACT: note_off channel=4 note=60 velocity=0 time=0
EXTRACT: note_off channel=4 note=65 velocity=0 time=0
EXTRACT: note_on channel=4 note=67 velocity=111 time=0
EXTRACT: note_on channel=3 note=71 velocity=40 time=0.012885208333333334
EXTRACT: note_on channel=4 note=62 velocity=104 time=0
EXTRACT: note_on channel=3 note=67 velocity=40 time=0.012885208333333334
EXTRACT: note_off channel=2 note=35 velocity=0 time=0.012885208333333334
EXTRACT: note_on channel=3 note=62 velocity=40 time=0
EXTRACT: note_off channel=9 note=70 velocity=0 time=0.012885208333333334
EXTRACT: note_off channel=3 note=71 velocity=0 time=0.012885208333333334
EXTRACT: note_off channel=3 note=67 velocity=0 time=0.012885208333333334
EXTRACT: note_off channel=3 note=62 velocity=0 time=0.012885208333333334
EXTRACT: note_on channel=3 note=62 velocity=46 time=0.051540833333333334
EXTRACT: note_on channel=9 note=70 velocity=24 time=0
EXTRACT: note_on channel=9 note=42 velocity=40 time=0
EXTRACT: note_on channel=3 note=67 velocity=46 time=0.012885208333333334
EXTRACT: note_on channel=3 note=71 velocity=46 time=0
EXTRACT: note_on channel=3 note=74 velocity=46 time=0.012885208333333334
EXTRACT: note_off channel=10 note=63 velocity=0 time=0
EXTRACT: note_on channel=10 note=62 velocity=97 time=0.012885208333333334
EXTRACT: note_off channel=10 note=60 velocity=0 time=0.012885208333333334
EXTRACT: note_off channel=3 note=62 velocity=0 time=0.012885208333333334
EXTRACT: note_off channel=9 note=42 velocity=0 time=0
EXTRACT: note_off channel=9 note=70 velocity=0 time=0
EXTRACT: note_off channel=10 note=67 velocity=0 time=0
EXTRACT: note_off channel=3 note=71 velocity=0 time=0.012885208333333334
EXTRACT: note_off channel=3 note=67 velocity=0 time=0
EXTRACT: note_off channel=3 note=74 velocity=0 time=0.012885208333333334
EXTRACT: note_on channel=3 note=74 velocity=77 time=0.06442604166666667
EXTRACT: note_on channel=9 note=70 velocity=64 time=0
EXTRACT: note_on channel=3 note=71 velocity=77 time=0.012885208333333334
EXTRACT: note_on channel=3 note=67 velocity=77 time=0
EXTRACT: note_on channel=10 note=63 velocity=93 time=0
EXTRACT: note_on channel=3 note=62 velocity=77 time=0.012885208333333334
EXTRACT: note_off channel=10 note=62 velocity=0 time=0.025770416666666667
EXTRACT: note_off channel=3 note=74 velocity=0 time=0.012885208333333334
EXTRACT: note_off channel=9 note=70 velocity=0 time=0
EXTRACT: note_off channel=3 note=67 velocity=0 time=0.012885208333333334
EXTRACT: note_off channel=3 note=71 velocity=0 time=0
EXTRACT: note_off channel=3 note=62 velocity=0 time=0.012885208333333334
EXTRACT: note_on channel=9 note=40 velocity=100 time=0.06442604166666667
EXTRACT: note_on channel=9 note=90 velocity=125 time=0
EXTRACT: note_on channel=9 note=70 velocity=110 time=0
EXTRACT: note_on channel=4 note=62 velocity=116 time=0.012885208333333334
EXTRACT: note_on channel=9 note=44 velocity=40 time=0
EXTRACT: note_on channel=10 note=62 velocity=115 time=0.012885208333333334
EXTRACT: note_off channel=4 note=62 velocity=0 time=0.038655625
EXTRACT: note_off channel=9 note=44 velocity=0 time=0
EXTRACT: note_off channel=9 note=70 velocity=0 time=0
EXTRACT: note_off channel=9 note=90 velocity=0 time=0
EXTRACT: note_off channel=9 note=40 velocity=0 time=0
EXTRACT: note_off channel=10 note=63 velocity=0 time=0.012885208333333334
EXTRACT: note_on channel=3 note=62 velocity=93 time=0.07731125
EXTRACT: note_on channel=9 note=70 velocity=10 time=0
EXTRACT: note_on channel=3 note=67 velocity=93 time=0.012885208333333334
EXTRACT: note_on channel=3 note=71 velocity=93 time=0
EXTRACT: note_on channel=3 note=74 velocity=93 time=0.012885208333333334
EXTRACT: note_off channel=3 note=62 velocity=0 time=0.038655625
EXTRACT: note_off channel=9 note=70 velocity=0 time=0
EXTRACT: note_off channel=3 note=71 velocity=0 time=0.012885208333333334
EXTRACT: note_off channel=3 note=67 velocity=0 time=0
EXTRACT: note_off channel=3 note=74 velocity=0 time=0.012885208333333334
EXTRACT: control_change channel=9 control=7 value=102 time=0.038655625
EXTRACT: note_on channel=9 note=40 velocity=100 time=0.025770416666666667
EXTRACT: note_on channel=9 note=90 velocity=123 time=0
EXTRACT: note_on channel=9 note=70 velocity=24 time=0
EXTRACT: note_on channel=3 note=74 velocity=44 time=0.012885208333333334
EXTRACT: note_on channel=3 note=71 velocity=44 time=0
EXTRACT: note_on channel=3 note=67 velocity=44 time=0.012885208333333334
EXTRACT: note_on channel=3 note=62 velocity=44 time=0.012885208333333334
EXTRACT: note_off channel=3 note=74 velocity=0 time=0.025770416666666667
EXTRACT: note_off channel=9 note=70 velocity=0 time=0
EXTRACT: note_off channel=9 note=90 velocity=0 time=0
EXTRACT: note_off channel=9 note=40 velocity=0 time=0
EXTRACT: note_off channel=3 note=71 velocity=0 time=0.012885208333333334
EXTRACT: note_off channel=3 note=67 velocity=0 time=0.012885208333333334
EXTRACT: note_off channel=3 note=62 velocity=0 time=0.012885208333333334
EXTRACT: note_on channel=4 note=62 velocity=113 time=0.051540833333333334
EXTRACT: note_on channel=9 note=36 velocity=110 time=0
EXTRACT: note_on channel=9 note=70 velocity=64 time=0
EXTRACT: note_off channel=4 note=62 velocity=0 time=0.051540833333333334
EXTRACT: note_off channel=9 note=70 velocity=0 time=0.012885208333333334
EXTRACT: note_off channel=9 note=36 velocity=0 time=0
EXTRACT: note_on channel=9 note=40 velocity=40 time=0.012885208333333334
EXTRACT: note_off channel=9 note=40 velocity=0 time=0.012885208333333334
EXTRACT: note_on channel=9 note=40 velocity=60 time=0.025770416666666667
EXTRACT: note_off channel=9 note=40 velocity=0 time=0.012885208333333334
EXTRACT: note_on channel=9 note=40 velocity=100 time=0.025770416666666667
EXTRACT: note_on channel=9 note=90 velocity=127 time=0
EXTRACT: note_on channel=3 note=62 velocity=83 time=0.012885208333333334
EXTRACT: note_on channel=3 note=67 velocity=83 time=0
EXTRACT: note_on channel=9 note=44 velocity=71 time=0
EXTRACT: note_on channel=9 note=70 velocity=110 time=0
EXTRACT: note_on channel=3 note=71 velocity=83 time=0.012885208333333334
EXTRACT: note_on channel=3 note=74 velocity=83 time=0.012885208333333334
EXTRACT: note_off channel=10 note=62 velocity=0 time=0
EXTRACT: note_off channel=3 note=67 velocity=0 time=0.025770416666666667
EXTRACT: note_off channel=3 note=62 velocity=0 time=0
EXTRACT: note_off channel=9 note=70 velocity=0 time=0
EXTRACT: note_off channel=9 note=44 velocity=0 time=0
EXTRACT: note_off channel=3 note=71 velocity=0 time=0.012885208333333334
EXTRACT: note_off channel=3 note=74 velocity=0 time=0.025770416666666667
EXTRACT: note_off channel=9 note=90 velocity=0 time=0.038655625
EXTRACT: note_off channel=9 note=40 velocity=0 time=0
EXTRACT: note_on channel=10 note=62 velocity=106 time=0
EXTRACT: note_on channel=9 note=47 velocity=110 time=0.012885208333333334
EXTRACT: note_on channel=9 note=70 velocity=10 time=0
EXTRACT: note_off channel=9 note=70 velocity=0 time=0.06442604166666667
EXTRACT: note_off channel=9 note=47 velocity=0 time=0
EXTRACT: note_off channel=10 note=62 velocity=0 time=0.012885208333333334
EXTRACT: note_on channel=2 note=31 velocity=125 time=0.07731125
EXTRACT: note_on channel=9 note=45 velocity=110 time=0
EXTRACT: note_on channel=9 note=70 velocity=22 time=0
EXTRACT: note_on channel=4 note=62 velocity=96 time=0.012885208333333334
EXTRACT: note_on channel=10 note=62 velocity=106 time=0
EXTRACT: note_off channel=4 note=62 velocity=0 time=0.025770416666666667
EXTRACT: note_off channel=9 note=70 velocity=0 time=0.025770416666666667
EXTRACT: note_off channel=9 note=45 velocity=0 time=0
EXTRACT: note_on channel=10 note=63 velocity=112 time=0.07731125
EXTRACT: note_on channel=9 note=36 velocity=91 time=0.012885208333333334
EXTRACT: note_on channel=9 note=55 velocity=85 time=0
EXTRACT: note_on channel=9 note=70 velocity=67 time=0
EXTRACT: note_off channel=10 note=62 velocity=0 time=0
EXTRACT: note_on channel=4 note=62 velocity=81 time=0.012885208333333334
EXTRACT: note_on channel=3 note=63 velocity=46 time=0.038655625
EXTRACT: note_on channel=3 note=60 velocity=48 time=0.012885208333333334
EXTRACT: note_off channel=9 note=70 velocity=0 time=0
EXTRACT: note_off channel=9 note=55 velocity=0 time=0
EXTRACT: note_off channel=9 note=36 velocity=0 time=0
EXTRACT: note_on channel=3 note=55 velocity=49 time=0.012885208333333334
EXTRACT: note_off channel=2 note=31 velocity=0 time=0.038655625
EXTRACT: note_off channel=4 note=62 velocity=0 time=0
EXTRACT: note_off channel=4 note=62 velocity=0 time=0
EXTRACT: note_off channel=4 note=67 velocity=0 time=0
EXTRACT: note_on channel=4 note=63 velocity=111 time=0
EXTRACT: note_on channel=4 note=60 velocity=104 time=0.012885208333333334
EXTRACT: note_off channel=4 note=60 velocity=0 time=0.012885208333333334
EXTRACT: note_off channel=4 note=63 velocity=0 time=0
EXTRACT: program_change channel=9 program=0 time=0.025770416666666667
EXTRACT: note_on channel=9 note=49 velocity=90 time=0
EXTRACT: program_change channel=9 program=32 time=0
EXTRACT: note_on channel=10 note=60 velocity=127 time=0
EXTRACT: note_off channel=9 note=49 velocity=0 time=0.0016106510416666667
EXTRACT: note_on channel=4 note=63 velocity=111 time=0.011274557291666668
EXTRACT: note_on channel=4 note=60 velocity=104 time=0
EXTRACT: note_on channel=9 note=36 velocity=127 time=0
EXTRACT: note_on channel=9 note=44 velocity=69 time=0
EXTRACT: note_on channel=2 note=36 velocity=127 time=0.012885208333333334
EXTRACT: note_on channel=9 note=70 velocity=107 time=0
EXTRACT: note_on channel=9 note=42 velocity=69 time=0
EXTRACT: note_off channel=10 note=63 velocity=0 time=0
EXTRACT: note_off channel=9 note=70 velocity=0 time=0.025770416666666667
EXTRACT: note_off channel=3 note=55 velocity=0 time=0.025770416666666667
EXTRACT: note_off channel=3 note=63 velocity=0 time=0.025770416666666667
EXTRACT: note_off channel=3 note=60 velocity=0 time=0.012885208333333334
EXTRACT: note_off channel=9 note=42 velocity=0 time=0.012885208333333334
EXTRACT: note_off channel=9 note=44 velocity=0 time=0
EXTRACT: note_off channel=9 note=36 velocity=0 time=0
EXTRACT: note_on channel=9 note=70 velocity=8 time=0.012885208333333334
EXTRACT: note_off channel=9 note=70 velocity=0 time=0.06442604166666667
EXTRACT: note_on channel=9 note=70 velocity=22 time=0.09019645833333334
EXTRACT: note_on channel=9 note=42 velocity=36 time=0
EXTRACT: note_off channel=9 note=42 velocity=0 time=0.06442604166666667
EXTRACT: note_off channel=9 note=70 velocity=0 time=0
EXTRACT: note_off channel=2 note=36 velocity=0 time=0.06442604166666667
EXTRACT: note_on channel=2 note=36 velocity=125 time=0.025770416666666667
EXTRACT: note_on channel=9 note=36 velocity=99 time=0
EXTRACT: note_on channel=9 note=70 velocity=60 time=0
EXTRACT: note_off channel=9 note=70 velocity=0 time=0.06442604166666667
EXTRACT: note_off channel=9 note=36 velocity=0 time=0
EXTRACT: note_on channel=9 note=40 velocity=100 time=0.09019645833333334
EXTRACT: note_on channel=9 note=90 velocity=127 time=0.012885208333333334
EXTRACT: note_on channel=9 note=44 velocity=71 time=0
EXTRACT: note_on channel=9 note=70 velocity=113 time=0
EXTRACT: note_on channel=9 note=42 velocity=71 time=0
EXTRACT: note_off channel=9 note=42 velocity=0 time=0.051540833333333334
EXTRACT: note_off channel=9 note=70 velocity=0 time=0
EXTRACT: note_off channel=9 note=44 velocity=0 time=0
EXTRACT: note_off channel=2 note=36 velocity=0 time=0.07731125
EXTRACT: note_off channel=9 note=90 velocity=0 time=0
EXTRACT: note_off channel=9 note=40 velocity=0 time=0
EXTRACT: note_on channel=9 note=70 velocity=10 time=0.012885208333333334
EXTRACT: note_off channel=9 note=70 velocity=0 time=0.06442604166666667
EXTRACT: note_on channel=9 note=70 velocity=24 time=0.09019645833333334
EXTRACT: note_on channel=9 note=42 velocity=40 time=0
EXTRACT: note_off channel=9 note=42 velocity=0 time=0.06442604166666667
EXTRACT: note_off channel=9 note=70 velocity=0 time=0
EXTRACT: note_on channel=9 note=70 velocity=64 time=0.09019645833333334
EXTRACT: note_off channel=9 note=70 velocity=0 time=0.06442604166666667
EXTRACT: note_on channel=9 note=70 velocity=110 time=0.09019645833333334
EXTRACT: note_on channel=9 note=42 velocity=69 time=0
EXTRACT: note_on channel=2 note=36 velocity=110 time=0.012885208333333334
EXTRACT: note_on channel=9 note=44 velocity=69 time=0
EXTRACT: note_off channel=9 note=44 velocity=0 time=0.051540833333333334
EXTRACT: note_off channel=9 note=42 velocity=0 time=0
EXTRACT: note_off channel=9 note=70 velocity=0 time=0
EXTRACT: note_on channel=9 note=36 velocity=93 time=0.09019645833333334
EXTRACT: note_on channel=9 note=70 velocity=10 time=0
EXTRACT: note_off channel=9 note=70 velocity=0 time=0.06442604166666667
EXTRACT: note_off channel=9 note=36 velocity=0 time=0
EXTRACT: note_on channel=9 note=36 velocity=123 time=0.09019645833333334
EXTRACT: note_on channel=9 note=70 velocity=24 time=0
EXTRACT: note_on channel=9 note=42 velocity=38 time=0.012885208333333334
EXTRACT: note_off channel=10 note=60 velocity=0 time=0
EXTRACT: note_off channel=2 note=36 velocity=0 time=0.051540833333333334
EXTRACT: note_off channel=9 note=42 velocity=0 time=0
EXTRACT: note_off channel=9 note=70 velocity=0 time=0
EXTRACT: note_off channel=9 note=36 velocity=0 time=0
EXTRACT: note_on channel=2 note=36 velocity=125 time=0.09019645833333334
EXTRACT: note_on channel=9 note=70 velocity=64 time=0
EXTRACT: note_on channel=10 note=60 velocity=106 time=0
EXTRACT: note_off channel=9 note=70 velocity=0 time=0.06442604166666667
EXTRACT: note_off channel=10 note=60 velocity=0 time=0
EXTRACT: note_on channel=9 note=40 velocity=100 time=0.09019645833333334
EXTRACT: note_on channel=9 note=90 velocity=127 time=0.012885208333333334
EXTRACT: note_on channel=9 note=44 velocity=71 time=0
EXTRACT: note_on channel=9 note=70 velocity=110 time=0
EXTRACT: note_on channel=9 note=42 velocity=71 time=0
EXTRACT: note_on channel=10 note=60 velocity=106 time=0
EXTRACT: note_off channel=9 note=42 velocity=0 time=0.051540833333333334
EXTRACT: note_off channel=9 note=70 velocity=0 time=0
EXTRACT: note_off channel=9 note=44 velocity=0 time=0
EXTRACT: note_off channel=9 note=90 velocity=0 time=0.07731125
EXTRACT: note_off channel=9 note=40 velocity=0 time=0
EXTRACT: note_on channel=9 note=36 velocity=110 time=0.012885208333333334
EXTRACT: note_on channel=9 note=70 velocity=10 time=0
EXTRACT: note_off channel=10 note=60 velocity=0 time=0
EXTRACT: note_on channel=10 note=58 velocity=110 time=0.012885208333333334
EXTRACT: note_off channel=9 note=70 velocity=0 time=0.051540833333333334
EXTRACT: note_off channel=9 note=36 velocity=0 time=0
EXTRACT: note_off channel=2 note=36 velocity=0 time=0.038655625
EXTRACT: note_on channel=9 note=70 velocity=22 time=0.051540833333333334
EXTRACT: note_on channel=9 note=42 velocity=42 time=0
EXTRACT: note_on channel=2 note=36 velocity=125 time=0.012885208333333334
EXTRACT: note_on channel=10 note=60 velocity=115 time=0
EXTRACT: note_off channel=10 note=58 velocity=0 time=0.025770416666666667
EXTRACT: note_off channel=9 note=42 velocity=0 time=0.025770416666666667
EXTRACT: note_off channel=9 note=70 velocity=0 time=0
EXTRACT: note_off channel=10 note=60 velocity=0 time=0.07731125
EXTRACT: note_on channel=9 note=36 velocity=75 time=0.012885208333333334
EXTRACT: note_on channel=9 note=70 velocity=67 time=0
EXTRACT: note_on channel=10 note=67 velocity=98 time=0
EXTRACT: note_on channel=3 note=53 velocity=30 time=0.051540833333333334
EXTRACT: note_on channel=3 note=56 velocity=23 time=0.012885208333333334
EXTRACT: note_off channel=9 note=70 velocity=0 time=0
EXTRACT: note_off channel=9 note=36 velocity=0 time=0
EXTRACT: note_on channel=3 note=48 velocity=42 time=0.025770416666666667
EXTRACT: note_off channel=2 note=36 velocity=0 time=0.012885208333333334
EXTRACT: note_off channel=4 note=60 velocity=0 time=0
EXTRACT: note_off channel=4 note=63 velocity=0 time=0
EXTRACT: note_on channel=4 note=65 velocity=111 time=0
EXTRACT: note_on channel=4 note=60 velocity=104 time=0
EXTRACT: note_off channel=4 note=60 velocity=0 time=0.025770416666666667
EXTRACT: note_off channel=4 note=65 velocity=0 time=0
EXTRACT: note_on channel=4 note=65 velocity=111 time=0
EXTRACT: note_on channel=4 note=60 velocity=104 time=0
EXTRACT: note_on channel=10 note=65 velocity=98 time=0.025770416666666667
EXTRACT: note_on channel=2 note=29 velocity=121 time=0.012885208333333334
EXTRACT: note_on channel=9 note=36 velocity=110 time=0
EXTRACT: note_on channel=9 note=70 velocity=107 time=0
EXTRACT: note_on channel=9 note=42 velocity=69 time=0
EXTRACT: note_on channel=9 note=44 velocity=69 time=0
EXTRACT: note_off channel=10 note=67 velocity=0 time=0.038655625
EXTRACT: note_off channel=3 note=56 velocity=0 time=0.012885208333333334
EXTRACT: note_off channel=9 note=70 velocity=0 time=0
EXTRACT: note_off channel=9 note=36 velocity=0 time=0
EXTRACT: note_off channel=3 note=48 velocity=0 time=0.012885208333333334
EXTRACT: note_off channel=3 note=53 velocity=0 time=0.012885208333333334
EXTRACT: note_off channel=9 note=44 velocity=0 time=0.051540833333333334
EXTRACT: note_off channel=9 note=42 velocity=0 time=0
EXTRACT: note_on channel=9 note=70 velocity=8 time=0.012885208333333334
EXTRACT: note_off channel=9 note=70 velocity=0 time=0.06442604166666667
EXTRACT: note_on channel=9 note=70 velocity=22 time=0.09019645833333334
EXTRACT: note_on channel=9 note=42 velocity=36 time=0
EXTRACT: note_off channel=9 note=42 velocity=0 time=0.06442604166666667
EXTRACT: note_off channel=9 note=70 velocity=0 time=0
EXTRACT: note_off channel=2 note=29 velocity=0 time=0.06442604166666667
EXTRACT: note_on channel=2 note=29 velocity=125 time=0.025770416666666667
EXTRACT: note_on channel=9 note=36 velocity=110 time=0
EXTRACT: note_on channel=9 note=70 velocity=60 time=0
EXTRACT: note_off channel=9 note=70 velocity=0 time=0.06442604166666667
EXTRACT: note_off channel=9 note=36 velocity=0 time=0
EXTRACT: note_on channel=9 note=40 velocity=100 time=0.09019645833333334
EXTRACT: note_on channel=9 note=90 velocity=127 time=0.012885208333333334
EXTRACT: note_on channel=9 note=44 velocity=71 time=0
EXTRACT: note_on channel=9 note=70 velocity=113 time=0
EXTRACT: note_on channel=9 note=42 velocity=71 time=0
EXTRACT: note_off channel=9 note=42 velocity=0 time=0.051540833333333334
EXTRACT: note_off channel=9 note=70 velocity=0 time=0
EXTRACT: note_off channel=9 note=44 velocity=0 time=0
EXTRACT: note_off channel=2 note=29 velocity=0 time=0.07731125
EXTRACT: note_off channel=9 note=90 velocity=0 time=0
EXTRACT: note_off channel=9 note=40 velocity=0 time=0
EXTRACT: note_on channel=9 note=70 velocity=10 time=0.012885208333333334
EXTRACT: note_off channel=9 note=70 velocity=0 time=0.06442604166666667
EXTRACT: note_off channel=10 note=65 velocity=0 time=0.025770416666666667
EXTRACT: note_on channel=9 note=70 velocity=24 time=0.06442604166666667
EXTRACT: note_on channel=9 note=42 velocity=40 time=0
EXTRACT: note_on channel=10 note=62 velocity=127 time=0.025770416666666667
EXTRACT: note_off channel=9 note=42 velocity=0 time=0.038655625
EXTRACT: note_off channel=9 note=70 velocity=0 time=0
EXTRACT: note_on channel=9 note=70 velocity=64 time=0.09019645833333334
EXTRACT: note_on channel=3 note=55 velocity=43 time=0.06442604166666667
EXTRACT: note_on channel=3 note=62 velocity=45 time=0
EXTRACT: note_off channel=9 note=70 velocity=0 time=0
EXTRACT: note_on channel=3 note=59 velocity=54 time=0.012885208333333334
EXTRACT: note_off channel=10 note=62 velocity=0 time=0
EXTRACT: note_off channel=4 note=60 velocity=0 time=0.038655625
EXTRACT: note_off channel=4 note=65 velocity=0 time=0
EXTRACT: note_on channel=4 note=67 velocity=111 time=0
EXTRACT: note_on channel=4 note=62 velocity=104 time=0
EXTRACT: note_on channel=9 note=70 velocity=110 time=0.038655625
EXTRACT: note_on channel=9 note=42 velocity=69 time=0
EXTRACT: note_on channel=2 note=31 velocity=110 time=0.012885208333333334
EXTRACT: note_on channel=9 note=44 velocity=69 time=0
EXTRACT: note_on channel=10 note=62 velocity=115 time=0
EXTRACT: note_off channel=9 note=44 velocity=0 time=0.051540833333333334
EXTRACT: note_off channel=9 note=42 velocity=0 time=0
EXTRACT: note_off channel=9 note=70 velocity=0 time=0
EXTRACT: note_on channel=9 note=36 velocity=110 time=0.09019645833333334
EXTRACT: note_on channel=9 note=70 velocity=10 time=0
EXTRACT: note_off channel=9 note=70 velocity=0 time=0.06442604166666667
EXTRACT: note_off channel=9 note=36 velocity=0 time=0
EXTRACT: note_off channel=10 note=62 velocity=0 time=0.025770416666666667
EXTRACT: note_on channel=9 note=36 velocity=110 time=0.06442604166666667
EXTRACT: note_on channel=9 note=70 velocity=24 time=0
EXTRACT: note_off channel=3 note=62 velocity=0 time=0.012885208333333334
EXTRACT: note_off channel=3 note=55 velocity=0 time=0
EXTRACT: note_on channel=9 note=42 velocity=38 time=0
EXTRACT: note_on channel=10 note=63 velocity=104 time=0
EXTRACT: note_off channel=3 note=59 velocity=0 time=0.012885208333333334
EXTRACT: note_off channel=9 note=42 velocity=0 time=0.038655625
EXTRACT: note_off channel=9 note=70 velocity=0 time=0
EXTRACT: note_off channel=9 note=36 velocity=0 time=0
EXTRACT: note_off channel=2 note=31 velocity=0 time=0.07731125
EXTRACT: note_on channel=2 note=38 velocity=110 time=0.012885208333333334
EXTRACT: note_on channel=9 note=70 velocity=64 time=0
EXTRACT: note_on channel=10 note=62 velocity=125 time=0.012885208333333334
EXTRACT: note_off channel=10 note=63 velocity=0 time=0.012885208333333334
EXTRACT: note_off channel=9 note=70 velocity=0 time=0.038655625
EXTRACT: note_off channel=2 note=38 velocity=0 time=0.07731125
EXTRACT: note_on channel=2 note=29 velocity=110 time=0.025770416666666667
EXTRACT: note_on channel=9 note=40 velocity=100 time=0
EXTRACT: note_on channel=9 note=90 velocity=127 time=0
EXTRACT: note_on channel=9 note=44 velocity=71 time=0
EXTRACT: note_on channel=9 note=70 velocity=110 time=0
EXTRACT: note_on channel=9 note=42 velocity=71 time=0
EXTRACT: note_off channel=9 note=42 velocity=0 time=0.051540833333333334
EXTRACT: note_off channel=9 note=70 velocity=0 time=0
EXTRACT: note_off channel=9 note=44 velocity=0 time=0
EXTRACT: note_off channel=2 note=29 velocity=0 time=0.07731125
EXTRACT: note_off channel=9 note=90 velocity=0 time=0
EXTRACT: note_off channel=9 note=40 velocity=0 time=0
EXTRACT: note_on channel=2 note=31 velocity=110 time=0.012885208333333334
EXTRACT: note_on channel=9 note=70 velocity=10 time=0
EXTRACT: note_off channel=10 note=62 velocity=0 time=0.025770416666666667
EXTRACT: note_on channel=10 note=60 velocity=113 time=0.012885208333333334
EXTRACT: note_off channel=9 note=70 velocity=0 time=0.025770416666666667
EXTRACT: note_on channel=9 note=70 velocity=22 time=0.09019645833333334
EXTRACT: note_on channel=9 note=42 velocity=42 time=0
EXTRACT: note_off channel=9 note=42 velocity=0 time=0.06442604166666667
EXTRACT: note_off channel=9 note=70 velocity=0 time=0
EXTRACT: note_on channel=9 note=70 velocity=67 time=0.09019645833333334
EXTRACT: note_off channel=9 note=70 velocity=0 time=0.06442604166666667
EXTRACT: note_on channel=3 note=60 velocity=60 time=0.025770416666666667
EXTRACT: note_on channel=3 note=63 velocity=59 time=0
EXTRACT: note_on channel=3 note=55 velocity=47 time=0.012885208333333334
EXTRACT: note_off channel=2 note=31 velocity=0 time=0.038655625
EXTRACT: note_off channel=4 note=62 velocity=0 time=0
EXTRACT: note_off channel=4 note=67 velocity=0 time=0
EXTRACT: note_on channel=4 note=63 velocity=111 time=0
EXTRACT: note_on channel=4 note=60 velocity=104 time=0
EXTRACT: note_on channel=2 note=36 velocity=127 time=0.025770416666666667
EXTRACT: note_on channel=9 note=36 velocity=127 time=0
EXTRACT: note_on channel=9 note=44 velocity=69 time=0
EXTRACT: note_on channel=9 note=70 velocity=107 time=0
EXTRACT: note_on channel=9 note=42 velocity=69 time=0
EXTRACT: note_off channel=3 note=55 velocity=0 time=0.012885208333333334
EXTRACT: note_off channel=3 note=63 velocity=0 time=0
EXTRACT: note_off channel=3 note=60 velocity=0 time=0
EXTRACT: note_off channel=9 note=70 velocity=0 time=0.038655625
EXTRACT: note_off channel=9 note=42 velocity=0 time=0.07731125
EXTRACT: note_off channel=9 note=44 velocity=0 time=0
EXTRACT: note_off channel=9 note=36 velocity=0 time=0
EXTRACT: note_on channel=9 note=70 velocity=8 time=0.012885208333333334
EXTRACT: note_off channel=9 note=70 velocity=0 time=0.06442604166666667
EXTRACT: note_on channel=9 note=70 velocity=22 time=0.09019645833333334
EXTRACT: note_on channel=9 note=42 velocity=36 time=0
EXTRACT: note_off channel=9 note=42 velocity=0 time=0.06442604166666667
EXTRACT: note_off channel=9 note=70 velocity=0 time=0
EXTRACT: note_off channel=2 note=36 velocity=0 time=0.06442604166666667
EXTRACT: note_on channel=2 note=36 velocity=125 time=0.025770416666666667
EXTRACT: note_on channel=9 note=36 velocity=110 time=0
EXTRACT: note_on channel=9 note=70 velocity=60 time=0
EXTRACT: note_on channel=4 note=60 velocity=92 time=0.012885208333333334
EXTRACT: note_off channel=4 note=60 velocity=0 time=0.051540833333333334
EXTRACT: note_off channel=9 note=70 velocity=0 time=0
EXTRACT: note_off channel=9 note=36 velocity=0 time=0
EXTRACT: note_off channel=2 note=36 velocity=0 time=0.07731125
EXTRACT: note_on channel=9 note=40 velocity=100 time=0.012885208333333334
EXTRACT: note_on channel=9 note=90 velocity=127 time=0
EXTRACT: note_on channel=9 note=44 velocity=71 time=0.012885208333333334
EXTRACT: note_on channel=9 note=70 velocity=113 time=0
EXTRACT: note_on channel=9 note=49 velocity=73 time=0
EXTRACT: note_off channel=9 note=49 velocity=0 time=0.051540833333333334
EXTRACT: note_off channel=9 note=70 velocity=0 time=0
EXTRACT: note_off channel=9 note=44 velocity=0 time=0
EXTRACT: note_off channel=9 note=90 velocity=0 time=0.07731125
EXTRACT: note_off channel=9 note=40 velocity=0 time=0
EXTRACT: note_on channel=9 note=70 velocity=10 time=0.012885208333333334
EXTRACT: note_off channel=9 note=70 velocity=0 time=0.06442604166666667
EXTRACT: note_on channel=9 note=70 velocity=24 time=0.09019645833333334
EXTRACT: note_off channel=9 note=70 velocity=0 time=0.06442604166666667
EXTRACT: note_on channel=9 note=36 velocity=110 time=0.09019645833333334
EXTRACT: note_on channel=9 note=70 velocity=64 time=0
EXTRACT: note_off channel=9 note=70 velocity=0 time=0.06442604166666667
EXTRACT: note_off channel=9 note=36 velocity=0 time=0
EXTRACT: note_on channel=9 note=40 velocity=100 time=0.09019645833333334
EXTRACT: note_on channel=9 note=90 velocity=125 time=0
EXTRACT: note_on channel=2 note=36 velocity=110 time=0.012885208333333334
EXTRACT: note_on channel=4 note=60 velocity=116 time=0
EXTRACT: note_on channel=9 note=70 velocity=110 time=0
EXTRACT: note_on channel=9 note=44 velocity=40 time=0
EXTRACT: note_off channel=4 note=60 velocity=0 time=0.051540833333333334
EXTRACT: note_off channel=9 note=44 velocity=0 time=0
EXTRACT: note_off channel=9 note=70 velocity=0 time=0
EXTRACT: note_off channel=9 note=90 velocity=0 time=0
EXTRACT: note_off channel=9 note=40 velocity=0 time=0
EXTRACT: note_on channel=9 note=70 velocity=10 time=0.09019645833333334
EXTRACT: note_off channel=2 note=36 velocity=0 time=0.012885208333333334
EXTRACT: note_off channel=9 note=70 velocity=0 time=0.051540833333333334
EXTRACT: note_on channel=9 note=40 velocity=100 time=0.09019645833333334
EXTRACT: note_on channel=9 note=90 velocity=123 time=0
EXTRACT: note_on channel=9 note=70 velocity=24 time=0
EXTRACT: note_off channel=9 note=70 velocity=0 time=0.06442604166666667
EXTRACT: note_off channel=9 note=90 velocity=0 time=0
EXTRACT: note_off channel=9 note=40 velocity=0 time=0
EXTRACT: note_off channel=10 note=60 velocity=0 time=0.012885208333333334
EXTRACT: note_on channel=4 note=60 velocity=113 time=0.07731125
EXTRACT: note_on channel=9 note=36 velocity=110 time=0
EXTRACT: note_on channel=9 note=70 velocity=64 time=0
EXTRACT: note_on channel=10 note=70 velocity=101 time=0.025770416666666667
EXTRACT: note_off channel=4 note=60 velocity=0 time=0.025770416666666667
EXTRACT: note_off channel=9 note=70 velocity=0 time=0.012885208333333334
EXTRACT: note_off channel=9 note=36 velocity=0 time=0
EXTRACT: note_on channel=9 note=40 velocity=40 time=0.012885208333333334
EXTRACT: note_off channel=9 note=40 velocity=0 time=0.012885208333333334
EXTRACT: note_on channel=9 note=40 velocity=60 time=0.025770416666666667
EXTRACT: note_off channel=9 note=40 velocity=0 time=0.012885208333333334
EXTRACT: note_on channel=9 note=40 velocity=100 time=0.025770416666666667
EXTRACT: note_on channel=9 note=90 velocity=127 time=0
EXTRACT: note_on channel=9 note=44 velocity=71 time=0.012885208333333334
EXTRACT: note_on channel=9 note=70 velocity=110 time=0
EXTRACT: note_off channel=9 note=70 velocity=0 time=0.051540833333333334
EXTRACT: note_off channel=9 note=44 velocity=0 time=0
EXTRACT: note_off channel=9 note=90 velocity=0 time=0.07731125
EXTRACT: note_off channel=9 note=40 velocity=0 time=0
EXTRACT: note_on channel=2 note=29 velocity=51 time=0.012885208333333334
EXTRACT: note_on channel=3 note=53 velocity=51 time=0
EXTRACT: note_on channel=9 note=47 velocity=110 time=0
EXTRACT: note_off channel=2 note=29 velocity=0 time=0.012885208333333334
EXTRACT: note_on channel=2 note=32 velocity=42 time=0
EXTRACT: note_on channel=3 note=56 velocity=42 time=0
EXTRACT: note_on channel=9 note=70 velocity=10 time=0
EXTRACT: note_off channel=2 note=32 velocity=0 time=0.012885208333333334
EXTRACT: note_on channel=2 note=24 velocity=66 time=0
EXTRACT: note_on channel=3 note=48 velocity=66 time=0
EXTRACT: note_on channel=10 note=68 velocity=96 time=0
EXTRACT: note_off channel=10 note=70 velocity=0 time=0.012885208333333334
EXTRACT: note_off channel=4 note=60 velocity=0 time=0.025770416666666667
EXTRACT: note_off channel=4 note=63 velocity=0 time=0
EXTRACT: note_on channel=4 note=65 velocity=111 time=0
EXTRACT: note_on channel=4 note=60 velocity=104 time=0
EXTRACT: note_off channel=2 note=24 velocity=0 time=0.012885208333333334
EXTRACT: note_off channel=3 note=48 velocity=0 time=0
EXTRACT: note_off channel=3 note=56 velocity=0 time=0
EXTRACT: note_off channel=9 note=70 velocity=0 time=0
EXTRACT: note_off channel=9 note=47 velocity=0 time=0
EXTRACT: note_off channel=3 note=53 velocity=0 time=0.012885208333333334
EXTRACT: note_on channel=4 note=60 velocity=96 time=0.06442604166666667
EXTRACT: note_on channel=9 note=45 velocity=110 time=0
EXTRACT: note_on channel=9 note=70 velocity=22 time=0
EXTRACT: note_off channel=10 note=68 velocity=0 time=0.025770416666666667
EXTRACT: note_on channel=10 note=67 velocity=115 time=0
EXTRACT: note_off channel=4 note=60 velocity=0 time=0.012885208333333334
EXTRACT: note_off channel=9 note=70 velocity=0 time=0.025770416666666667
EXTRACT: note_off channel=9 note=45 velocity=0 time=0
EXTRACT: note_on channel=9 note=36 velocity=91 time=0.09019645833333334
EXTRACT: note_on channel=9 note=55 velocity=85 time=0
EXTRACT: note_on channel=9 note=70 velocity=67 time=0
EXTRACT: note_on channel=10 note=65 velocity=87 time=0
EXTRACT: note_on channel=4 note=60 velocity=81 time=0.012885208333333334
EXTRACT: note_off channel=10 note=67 velocity=0 time=0.038655625
EXTRACT: note_off channel=9 note=70 velocity=0 time=0.012885208333333334
EXTRACT: note_off channel=9 note=55 velocity=0 time=0
EXTRACT: note_off channel=9 note=36 velocity=0 time=0
EXTRACT: note_off channel=10 note=65 velocity=0 time=0.025770416666666667
EXTRACT: note_off channel=4 note=60 velocity=0 time=0.038655625
EXTRACT: note_off channel=4 note=65 velocity=0 time=0.012885208333333334
EXTRACT: control_change channel=4 control=0 value=0 time=0
EXTRACT: control_change channel=4 control=0 value=0 time=0
EXTRACT: control_change channel=4 control=32 value=0 time=0
EXTRACT: control_change channel=4 control=0 value=0 time=0
EXTRACT: control_change channel=4 control=32 value=0 time=0
EXTRACT: program_change channel=4 program=54 time=0
EXTRACT: note_off channel=4 note=60 velocity=0 time=0.025770416666666667
EXTRACT: program_change channel=9 program=0 time=0
EXTRACT: note_on channel=10 note=65 velocity=92 time=0
EXTRACT: note_on channel=4 note=60 velocity=103 time=0.012885208333333334
EXTRACT: note_on channel=4 note=65 velocity=97 time=0
EXTRACT: note_on channel=9 note=49 velocity=90 time=0
EXTRACT: program_change channel=9 program=32 time=0
EXTRACT: note_on channel=9 note=36 velocity=127 time=0
EXTRACT: note_off channel=9 note=49 velocity=0 time=0.0016106510416666667
EXTRACT: note_on channel=9 note=44 velocity=69 time=0.011274557291666668
EXTRACT: note_on channel=9 note=70 velocity=107 time=0
EXTRACT: note_on channel=9 note=42 velocity=69 time=0
EXTRACT: note_on channel=9 note=56 velocity=110 time=0
EXTRACT: note_on channel=9 note=54 velocity=127 time=0.012885208333333334
EXTRACT: note_off channel=9 note=54 velocity=0 time=0.012885208333333334
EXTRACT: note_off channel=9 note=56 velocity=0 time=0
EXTRACT: note_off channel=9 note=70 velocity=0 time=0
EXTRACT: control_change channel=9 control=7 value=104 time=0.025770416666666667
EXTRACT: control_change channel=9 control=7 value=0 time=0
EXTRACT: note_off channel=9 note=42 velocity=0 time=0.051540833333333334
EXTRACT: note_off channel=9 note=44 velocity=0 time=0
EXTRACT: note_off channel=9 note=36 velocity=0 time=0
EXTRACT: note_on channel=9 note=70 velocity=8 time=0.012885208333333334
EXTRACT: note_on channel=9 note=54 velocity=73 time=0
EXTRACT: note_off channel=9 note=54 velocity=0 time=0.06442604166666667
EXTRACT: note_off channel=9 note=70 velocity=0 time=0
EXTRACT: note_on channel=9 note=70 velocity=22 time=0.09019645833333334
EXTRACT: note_on channel=9 note=42 velocity=36 time=0
EXTRACT: note_on channel=9 note=54 velocity=46 time=0
EXTRACT: note_off channel=9 note=54 velocity=0 time=0.06442604166666667
EXTRACT: note_off channel=9 note=42 velocity=0 time=0
EXTRACT: note_off channel=9 note=70 velocity=0 time=0
EXTRACT: note_on channel=9 note=36 velocity=99 time=0.09019645833333334
EXTRACT: note_on channel=9 note=70 velocity=60 time=0
EXTRACT: note_on channel=9 note=54 velocity=58 time=0
EXTRACT: note_off channel=9 note=54 velocity=0 time=0.06442604166666667
EXTRACT: note_off channel=9 note=70 velocity=0 time=0
EXTRACT: note_off channel=9 note=36 velocity=0 time=0
EXTRACT: note_on channel=9 note=40 velocity=100 time=0.09019645833333334
EXTRACT: note_on channel=9 note=90 velocity=127 time=0
EXTRACT: note_on channel=9 note=44 velocity=71 time=0.012885208333333334
EXTRACT: note_on channel=9 note=70 velocity=113 time=0
EXTRACT: note_on channel=9 note=42 velocity=71 time=0
EXTRACT: note_on channel=9 note=56 velocity=101 time=0
EXTRACT: note_on channel=9 note=54 velocity=127 time=0
EXTRACT: note_off channel=9 note=54 velocity=0 time=0.051540833333333334
EXTRACT: note_off channel=9 note=56 velocity=0 time=0
EXTRACT: note_off channel=9 note=42 velocity=0 time=0
EXTRACT: note_off channel=9 note=70 velocity=0 time=0
EXTRACT: note_off channel=9 note=44 velocity=0 time=0
EXTRACT: note_off channel=9 note=90 velocity=0 time=0.07731125
EXTRACT: note_off channel=9 note=40 velocity=0 time=0
EXTRACT: note_on channel=9 note=70 velocity=10 time=0.012885208333333334
EXTRACT: note_on channel=9 note=54 velocity=64 time=0
EXTRACT: note_off channel=10 note=65 velocity=0 time=0.051540833333333334
EXTRACT: note_on channel=10 note=63 velocity=101 time=0
EXTRACT: note_off channel=9 note=54 velocity=0 time=0.012885208333333334
EXTRACT: note_off channel=9 note=70 velocity=0 time=0
EXTRACT: note_on channel=9 note=70 velocity=24 time=0.09019645833333334
EXTRACT: note_on channel=9 note=42 velocity=40 time=0
EXTRACT: note_on channel=9 note=54 velocity=46 time=0
EXTRACT: note_off channel=10 note=63 velocity=0 time=0.025770416666666667
EXTRACT: note_on channel=10 note=65 velocity=90 time=0
EXTRACT: note_off channel=9 note=54 velocity=0 time=0.038655625
EXTRACT: note_off channel=9 note=42 velocity=0 time=0
EXTRACT: note_off channel=9 note=70 velocity=0 time=0
EXTRACT: note_on channel=2 note=31 velocity=22 time=0.09019645833333334
EXTRACT: note_on channel=3 note=55 velocity=22 time=0
EXTRACT: note_on channel=9 note=70 velocity=64 time=0
EXTRACT: note_off channel=2 note=31 velocity=0 time=0.012885208333333334
EXTRACT: note_on channel=2 note=38 velocity=36 time=0
EXTRACT: note_on channel=3 note=62 velocity=36 time=0
EXTRACT: note_on channel=9 note=54 velocity=58 time=0
EXTRACT: note_off channel=2 note=38 velocity=0 time=0.012885208333333334
EXTRACT: note_on channel=2 note=35 velocity=26 time=0
EXTRACT: note_on channel=3 note=59 velocity=26 time=0
EXTRACT: note_off channel=10 note=65 velocity=0 time=0.012885208333333334
EXTRACT: note_on channel=10 note=63 velocity=98 time=0
EXTRACT: note_off channel=4 note=65 velocity=0 time=0.025770416666666667
EXTRACT: note_off channel=4 note=60 velocity=0 time=0
EXTRACT: note_on channel=4 note=62 velocity=103 time=0
EXTRACT: note_on channel=4 note=67 velocity=97 time=0
EXTRACT: note_off channel=9 note=54 velocity=0 time=0.012885208333333334
EXTRACT: note_off channel=9 note=70 velocity=0 time=0
EXTRACT: note_on channel=9 note=70 velocity=110 time=0.07731125
EXTRACT: note_on channel=9 note=42 velocity=69 time=0
EXTRACT: note_off channel=3 note=62 velocity=0 time=0.012885208333333334
EXTRACT: note_on channel=9 note=44 velocity=69 time=0
EXTRACT: note_on channel=9 note=56 velocity=110 time=0
EXTRACT: note_on channel=9 note=54 velocity=127 time=0
EXTRACT: note_off channel=10 note=63 velocity=0 time=0
EXTRACT: note_off channel=2 note=35 velocity=0 time=0.012885208333333334
EXTRACT: note_off channel=3 note=59 velocity=0 time=0
EXTRACT: note_on channel=10 note=65 velocity=92 time=0
EXTRACT: note_off channel=3 note=55 velocity=0 time=0.025770416666666667
EXTRACT: note_off channel=9 note=54 velocity=0 time=0.012885208333333334
EXTRACT: note_off channel=9 note=56 velocity=0 time=0
EXTRACT: note_off channel=9 note=44 velocity=0 time=0
EXTRACT: note_off channel=9 note=42 velocity=0 time=0
EXTRACT: note_off channel=9 note=70 velocity=0 time=0
EXTRACT: note_on channel=9 note=36 velocity=93 time=0.09019645833333334
EXTRACT: note_on channel=9 note=70 velocity=10 time=0
EXTRACT: note_on channel=9 note=54 velocity=56 time=0
EXTRACT: note_off channel=9 note=54 velocity=0 time=0.06442604166666667
EXTRACT: note_off channel=9 note=70 velocity=0 time=0
EXTRACT: note_off channel=9 note=36 velocity=0 time=0
EXTRACT: note_on channel=9 note=36 velocity=123 time=0.09019645833333334
EXTRACT: note_on channel=9 note=70 velocity=24 time=0
EXTRACT: note_on channel=9 note=42 velocity=38 time=0
EXTRACT: note_on channel=9 note=54 velocity=40 time=0.012885208333333334
EXTRACT: note_off channel=9 note=54 velocity=0 time=0.051540833333333334
EXTRACT: note_off channel=9 note=42 velocity=0 time=0
EXTRACT: note_off channel=9 note=70 velocity=0 time=0
EXTRACT: note_off channel=9 note=36 velocity=0 time=0
EXTRACT: note_on channel=9 note=70 velocity=64 time=0.09019645833333334
EXTRACT: note_on channel=9 note=54 velocity=52 time=0
EXTRACT: note_off channel=9 note=54 velocity=0 time=0.06442604166666667
EXTRACT: note_off channel=9 note=70 velocity=0 time=0
EXTRACT: note_on channel=9 note=40 velocity=100 time=0.09019645833333334
EXTRACT: note_on channel=9 note=90 velocity=127 time=0.012885208333333334
EXTRACT: note_on channel=9 note=44 velocity=71 time=0
EXTRACT: note_on channel=9 note=70 velocity=110 time=0
EXTRACT: note_on channel=9 note=42 velocity=71 time=0
EXTRACT: note_on channel=9 note=56 velocity=99 time=0
EXTRACT: note_on channel=9 note=54 velocity=127 time=0
EXTRACT: note_off channel=9 note=54 velocity=0 time=0.051540833333333334
EXTRACT: note_off channel=9 note=56 velocity=0 time=0
EXTRACT: note_off channel=9 note=42 velocity=0 time=0
EXTRACT: note_off channel=9 note=70 velocity=0 time=0
EXTRACT: note_off channel=9 note=44 velocity=0 time=0
EXTRACT: note_off channel=9 note=90 velocity=0 time=0.07731125
EXTRACT: note_off channel=9 note=40 velocity=0 time=0
EXTRACT: note_on channel=9 note=36 velocity=110 time=0.012885208333333334
EXTRACT: note_on channel=9 note=70 velocity=10 time=0
EXTRACT: note_on channel=9 note=54 velocity=64 time=0
EXTRACT: note_off channel=10 note=65 velocity=0 time=0.051540833333333334
EXTRACT: note_on channel=10 note=63 velocity=86 time=0
EXTRACT: note_off channel=9 note=54 velocity=0 time=0.012885208333333334
EXTRACT: note_off channel=9 note=70 velocity=0 time=0
EXTRACT: note_off channel=9 note=36 velocity=0 time=0
EXTRACT: note_on channel=9 note=70 velocity=22 time=0.09019645833333334
EXTRACT: note_on channel=9 note=42 velocity=42 time=0
EXTRACT: note_on channel=9 note=54 velocity=48 time=0
EXTRACT: note_off channel=10 note=63 velocity=0 time=0.012885208333333334
EXTRACT: note_on channel=10 note=65 velocity=91 time=0
EXTRACT: note_off channel=9 note=54 velocity=0 time=0.051540833333333334
EXTRACT: note_off channel=9 note=42 velocity=0 time=0
EXTRACT: note_off channel=9 note=70 velocity=0 time=0
EXTRACT: note_on channel=9 note=36 velocity=75 time=0.09019645833333334
EXTRACT: note_on channel=9 note=70 velocity=67 time=0
EXTRACT: note_on channel=9 note=54 velocity=58 time=0
EXTRACT: note_on channel=2 note=36 velocity=44 time=0.051540833333333334
EXTRACT: note_on channel=3 note=60 velocity=44 time=0
EXTRACT: note_off channel=2 note=36 velocity=0 time=0.012885208333333334
EXTRACT: note_on channel=2 note=39 velocity=47 time=0
EXTRACT: note_on channel=3 note=63 velocity=47 time=0
EXTRACT: note_off channel=9 note=54 velocity=0 time=0
EXTRACT: note_off channel=9 note=70 velocity=0 time=0
EXTRACT: note_off channel=9 note=36 velocity=0 time=0
EXTRACT: note_on channel=10 note=63 velocity=101 time=0
EXTRACT: note_off channel=4 note=67 velocity=0 time=0.038655625
EXTRACT: note_off channel=4 note=62 velocity=0 time=0
EXTRACT: note_on channel=4 note=60 velocity=103 time=0
EXTRACT: note_on channel=4 note=63 velocity=97 time=0
EXTRACT: note_off channel=10 note=65 velocity=0 time=0.012885208333333334
EXTRACT: note_off channel=2 note=39 velocity=0 time=0.012885208333333334
EXTRACT: note_off channel=3 note=63 velocity=0 time=0
EXTRACT: note_off channel=3 note=60 velocity=0 time=0.012885208333333334
EXTRACT: note_off channel=10 note=63 velocity=0 time=0
EXTRACT: note_on channel=9 note=36 velocity=110 time=0.012885208333333334
EXTRACT: note_on channel=9 note=70 velocity=107 time=0.012885208333333334
EXTRACT: note_on channel=9 note=42 velocity=69 time=0
EXTRACT: note_on channel=9 note=44 velocity=69 time=0
EXTRACT: note_on channel=9 note=56 velocity=110 time=0
EXTRACT: note_on channel=9 note=54 velocity=127 time=0
EXTRACT: note_on channel=10 note=63 velocity=74 time=0.038655625
EXTRACT: note_off channel=9 note=54 velocity=0 time=0.012885208333333334
EXTRACT: note_off channel=9 note=56 velocity=0 time=0
EXTRACT: note_off channel=9 note=70 velocity=0 time=0
EXTRACT: note_off channel=9 note=36 velocity=0 time=0
EXTRACT: note_on channel=10 note=67 velocity=97 time=0
EXTRACT: note_off channel=9 note=44 velocity=0 time=0.07731125
EXTRACT: note_off channel=9 note=42 velocity=0 time=0
EXTRACT: note_on channel=9 note=70 velocity=8 time=0.012885208333333334
EXTRACT: note_on channel=9 note=54 velocity=73 time=0
EXTRACT: note_off channel=9 note=54 velocity=0 time=0.06442604166666667
EXTRACT: note_off channel=9 note=70 velocity=0 time=0
EXTRACT: note_off channel=10 note=67 velocity=0 time=0.07731125
EXTRACT: note_on channel=9 note=70 velocity=22 time=0.012885208333333334
EXTRACT: note_on channel=9 note=42 velocity=36 time=0
EXTRACT: note_on channel=9 note=54 velocity=46 time=0
EXTRACT: note_off channel=10 note=63 velocity=0 time=0
EXTRACT: note_on channel=10 note=63 velocity=86 time=0.051540833333333334
EXTRACT: note_on channel=10 note=67 velocity=97 time=0
EXTRACT: note_off channel=9 note=54 velocity=0 time=0.012885208333333334
EXTRACT: note_off channel=9 note=42 velocity=0 time=0
EXTRACT: note_off channel=9 note=70 velocity=0 time=0
EXTRACT: note_on channel=4 note=60 velocity=92 time=0.09019645833333334
EXTRACT: note_on channel=9 note=36 velocity=110 time=0
EXTRACT: note_on channel=9 note=70 velocity=60 time=0
EXTRACT: note_off channel=10 note=63 velocity=0 time=0.038655625
EXTRACT: note_on channel=10 note=65 velocity=97 time=0
EXTRACT: note_off channel=4 note=60 velocity=0 time=0.025770416666666667
EXTRACT: note_off channel=9 note=70 velocity=0 time=0
EXTRACT: note_off channel=9 note=36 velocity=0 time=0
EXTRACT: note_off channel=10 note=67 velocity=0 time=0.051540833333333334
EXTRACT: note_on channel=9 note=40 velocity=100 time=0.038655625
EXTRACT: note_on channel=9 note=90 velocity=127 time=0
EXTRACT: note_on channel=9 note=44 velocity=71 time=0.012885208333333334
EXTRACT: note_on channel=9 note=70 velocity=113 time=0
EXTRACT: note_on channel=9 note=49 velocity=73 time=0
EXTRACT: note_off channel=9 note=49 velocity=0 time=0.051540833333333334
EXTRACT: note_off channel=9 note=70 velocity=0 time=0
EXTRACT: note_off channel=9 note=44 velocity=0 time=0
EXTRACT: note_off channel=10 note=65 velocity=0 time=0.038655625
EXTRACT: note_off channel=9 note=90 velocity=0 time=0.038655625
EXTRACT: note_off channel=9 note=40 velocity=0 time=0
EXTRACT: note_on channel=9 note=70 velocity=10 time=0.012885208333333334
EXTRACT: note_on channel=10 note=65 velocity=79 time=0.025770416666666667
EXTRACT: note_off channel=9 note=70 velocity=0 time=0.038655625
EXTRACT: note_on channel=9 note=70 velocity=24 time=0.09019645833333334
EXTRACT: note_on channel=10 note=63 velocity=110 time=0
EXTRACT: note_off channel=10 note=65 velocity=0 time=0.038655625
EXTRACT: note_off channel=9 note=70 velocity=0 time=0.025770416666666667
EXTRACT: control_change channel=9 control=7 value=104 time=0.06442604166666667
EXTRACT: note_on channel=9 note=36 velocity=110 time=0.025770416666666667
EXTRACT: note_on channel=9 note=70 velocity=64 time=0
EXTRACT: note_off channel=9 note=70 velocity=0 time=0.06442604166666667
EXTRACT: note_off channel=9 note=36 velocity=0 time=0
EXTRACT: note_on channel=9 note=40 velocity=100 time=0.09019645833333334
EXTRACT: note_on channel=9 note=90 velocity=125 time=0
EXTRACT: note_on channel=9 note=70 velocity=110 time=0
EXTRACT: note_on channel=4 note=60 velocity=116 time=0.012885208333333334
EXTRACT: note_on channel=9 note=44 velocity=40 time=0
EXTRACT: note_off channel=4 note=60 velocity=0 time=0.051540833333333334
EXTRACT: note_off channel=9 note=44 velocity=0 time=0
EXTRACT: note_off channel=9 note=70 velocity=0 time=0
EXTRACT: note_off channel=9 note=90 velocity=0 time=0
EXTRACT: note_off channel=9 note=40 velocity=0 time=0
EXTRACT: note_on channel=9 note=70 velocity=10 time=0.09019645833333334
EXTRACT: note_on channel=10 note=62 velocity=115 time=0.038655625
EXTRACT: note_off channel=9 note=70 velocity=0 time=0.025770416666666667
EXTRACT: note_off channel=10 note=63 velocity=0 time=0.038655625
EXTRACT: note_on channel=9 note=40 velocity=100 time=0.051540833333333334
EXTRACT: note_on channel=9 note=90 velocity=123 time=0
EXTRACT: note_on channel=9 note=70 velocity=24 time=0
EXTRACT: note_off channel=9 note=70 velocity=0 time=0.06442604166666667
EXTRACT: note_off channel=9 note=90 velocity=0 time=0
EXTRACT: note_off channel=9 note=40 velocity=0 time=0
EXTRACT: note_off channel=10 note=62 velocity=0 time=0.051540833333333334
EXTRACT: note_on channel=4 note=60 velocity=113 time=0.038655625
EXTRACT: note_on channel=9 note=36 velocity=110 time=0
EXTRACT: note_on channel=9 note=70 velocity=64 time=0
EXTRACT: note_on channel=10 note=62 velocity=115 time=0.038655625
EXTRACT: note_off channel=4 note=60 velocity=0 time=0.012885208333333334
EXTRACT: note_off channel=9 note=70 velocity=0 time=0.012885208333333334
EXTRACT: note_off channel=9 note=36 velocity=0 time=0
EXTRACT: note_on channel=9 note=40 velocity=40 time=0.012885208333333334
EXTRACT: note_off channel=9 note=40 velocity=0 time=0.012885208333333334
EXTRACT: note_on channel=9 note=40 velocity=60 time=0.025770416666666667
EXTRACT: note_off channel=9 note=40 velocity=0 time=0.012885208333333334
EXTRACT: note_on channel=9 note=40 velocity=100 time=0.025770416666666667
EXTRACT: note_on channel=9 note=90 velocity=127 time=0
EXTRACT: note_on channel=3 note=60 velocity=83 time=0.012885208333333334
EXTRACT: note_on channel=3 note=63 velocity=83 time=0
EXTRACT: note_on channel=9 note=44 velocity=71 time=0
EXTRACT: note_on channel=9 note=70 velocity=110 time=0
EXTRACT: note_on channel=3 note=67 velocity=83 time=0.012885208333333334
EXTRACT: note_on channel=10 note=60 velocity=115 time=0
EXTRACT: note_on channel=3 note=72 velocity=83 time=0.012885208333333334
EXTRACT: note_off channel=3 note=63 velocity=0 time=0.025770416666666667
EXTRACT: note_off channel=3 note=60 velocity=0 time=0
EXTRACT: note_off channel=9 note=70 velocity=0 time=0
EXTRACT: note_off channel=9 note=44 velocity=0 time=0
EXTRACT: note_off channel=3 note=67 velocity=0 time=0.012885208333333334
EXTRACT: note_off channel=10 note=62 velocity=0 time=0
EXTRACT: note_off channel=3 note=72 velocity=0 time=0.025770416666666667
EXTRACT: note_off channel=9 note=90 velocity=0 time=0.038655625
EXTRACT: note_off channel=9 note=40 velocity=0 time=0
EXTRACT: note_on channel=3 note=72 velocity=44 time=0.012885208333333334
EXTRACT: note_on channel=9 note=47 velocity=110 time=0
EXTRACT: note_on channel=9 note=70 velocity=10 time=0
EXTRACT: note_on channel=3 note=67 velocity=44 time=0.012885208333333334
EXTRACT: note_on channel=3 note=63 velocity=44 time=0.012885208333333334
EXTRACT: note_on channel=3 note=60 velocity=44 time=0
EXTRACT: note_off channel=3 note=72 velocity=0 time=0.038655625
EXTRACT: note_off channel=9 note=70 velocity=0 time=0
EXTRACT: note_off channel=9 note=47 velocity=0 time=0
EXTRACT: note_off channel=3 note=67 velocity=0 time=0.012885208333333334
EXTRACT: note_off channel=3 note=60 velocity=0 time=0.012885208333333334
EXTRACT: note_off channel=3 note=63 velocity=0 time=0
EXTRACT: note_on channel=2 note=36 velocity=125 time=0.06442604166666667
EXTRACT: note_on channel=9 note=45 velocity=110 time=0
EXTRACT: note_on channel=9 note=70 velocity=22 time=0
EXTRACT: note_off channel=10 note=60 velocity=0 time=0
EXTRACT: note_on channel=4 note=60 velocity=96 time=0.012885208333333334
EXTRACT: note_on channel=10 note=58 velocity=120 time=0
EXTRACT: note_off channel=4 note=60 velocity=0 time=0.025770416666666667
EXTRACT: note_off channel=9 note=70 velocity=0 time=0.025770416666666667
EXTRACT: note_off channel=9 note=45 velocity=0 time=0
EXTRACT: note_on channel=9 note=36 velocity=91 time=0.09019645833333334
EXTRACT: note_on channel=9 note=55 velocity=85 time=0
EXTRACT: note_on channel=9 note=70 velocity=67 time=0
EXTRACT: note_on channel=4 note=60 velocity=81 time=0.012885208333333334
EXTRACT: note_off channel=2 note=36 velocity=0 time=0.051540833333333334
EXTRACT: note_off channel=4 note=60 velocity=0 time=0
EXTRACT: note_off channel=4 note=60 velocity=0 time=0
EXTRACT: note_off channel=4 note=63 velocity=0 time=0
EXTRACT: control_change channel=4 control=0 value=0 time=0
EXTRACT: control_change channel=4 control=0 value=0 time=0
EXTRACT: control_change channel=4 control=32 value=0 time=0
EXTRACT: control_change channel=4 control=0 value=0 time=0
EXTRACT: control_change channel=4 control=32 value=0 time=0
EXTRACT: program_change channel=4 program=89 time=0
EXTRACT: note_on channel=4 note=60 velocity=103 time=0.012885208333333334
EXTRACT: note_on channel=4 note=65 velocity=97 time=0
EXTRACT: note_off channel=9 note=70 velocity=0 time=0
EXTRACT: note_off channel=9 note=55 velocity=0 time=0
EXTRACT: note_off channel=9 note=36 velocity=0 time=0
EXTRACT: note_off channel=4 note=65 velocity=0 time=0.06442604166666667
EXTRACT: note_off channel=4 note=60 velocity=0 time=0
EXTRACT: program_change channel=9 program=0 time=0.025770416666666667
EXTRACT: note_on channel=9 note=49 velocity=90 time=0
EXTRACT: program_change channel=9 program=32 time=0
EXTRACT: note_on channel=10 note=65 velocity=115 time=0
EXTRACT: note_off channel=9 note=49 velocity=0 time=0.0016106510416666667
EXTRACT: note_on channel=4 note=65 velocity=111 time=0.011274557291666668
EXTRACT: note_on channel=4 note=60 velocity=104 time=0
EXTRACT: note_on channel=9 note=36 velocity=127 time=0
EXTRACT: note_off channel=10 note=58 velocity=0 time=0
EXTRACT: note_on channel=2 note=29 velocity=127 time=0.012885208333333334
EXTRACT: note_on channel=9 note=44 velocity=69 time=0
EXTRACT: note_on channel=9 note=70 velocity=107 time=0
EXTRACT: note_on channel=9 note=42 velocity=69 time=0
EXTRACT: note_off channel=9 note=70 velocity=0 time=0.025770416666666667
EXTRACT: note_off channel=9 note=42 velocity=0 time=0.07731125
EXTRACT: note_off channel=9 note=44 velocity=0 time=0
EXTRACT: note_off channel=9 note=36 velocity=0 time=0
EXTRACT: note_on channel=9 note=70 velocity=8 time=0.012885208333333334
EXTRACT: note_off channel=9 note=70 velocity=0 time=0.06442604166666667
EXTRACT: note_on channel=9 note=70 velocity=22 time=0.09019645833333334
EXTRACT: note_on channel=9 note=42 velocity=36 time=0
EXTRACT: note_off channel=9 note=42 velocity=0 time=0.06442604166666667
EXTRACT: note_off channel=9 note=70 velocity=0 time=0
EXTRACT: note_off channel=2 note=29 velocity=0 time=0.06442604166666667
EXTRACT: note_on channel=2 note=29 velocity=125 time=0.025770416666666667
EXTRACT: note_on channel=9 note=36 velocity=99 time=0
EXTRACT: note_on channel=9 note=70 velocity=60 time=0
EXTRACT: note_on channel=10 note=63 velocity=101 time=0.012885208333333334
EXTRACT: note_off channel=10 note=65 velocity=0 time=0.025770416666666667
EXTRACT: note_off channel=9 note=70 velocity=0 time=0.025770416666666667
EXTRACT: note_off channel=9 note=36 velocity=0 time=0
EXTRACT: note_on channel=9 note=40 velocity=100 time=0.09019645833333334
EXTRACT: note_on channel=9 note=90 velocity=127 time=0.012885208333333334
EXTRACT: note_on channel=9 note=44 velocity=71 time=0
EXTRACT: note_on channel=9 note=70 velocity=113 time=0
EXTRACT: note_on channel=9 note=42 velocity=71 time=0
EXTRACT: note_on channel=10 note=65 velocity=106 time=0
EXTRACT: note_on channel=3 note=60 velocity=110 time=0.012885208333333334
EXTRACT: note_on channel=3 note=65 velocity=110 time=0
EXTRACT: note_off channel=10 note=63 velocity=0 time=0
EXTRACT: note_on channel=3 note=68 velocity=110 time=0.012885208333333334
EXTRACT: note_on channel=3 note=72 velocity=110 time=0
EXTRACT: note_off channel=3 note=60 velocity=0 time=0.025770416666666667
EXTRACT: note_off channel=9 note=42 velocity=0 time=0
EXTRACT: note_off channel=9 note=70 velocity=0 time=0
EXTRACT: note_off channel=9 note=44 velocity=0 time=0
EXTRACT: note_off channel=3 note=65 velocity=0 time=0.012885208333333334
EXTRACT: note_off channel=3 note=72 velocity=0 time=0.012885208333333334
EXTRACT: note_off channel=3 note=68 velocity=0 time=0
EXTRACT: note_off channel=2 note=29 velocity=0 time=0.051540833333333334
EXTRACT: note_off channel=9 note=90 velocity=0 time=0
EXTRACT: note_off channel=9 note=40 velocity=0 time=0
EXTRACT: note_on channel=3 note=72 velocity=40 time=0.012885208333333334
EXTRACT: note_on channel=9 note=70 velocity=10 time=0
EXTRACT: note_on channel=3 note=68 velocity=40 time=0.012885208333333334
EXTRACT: note_on channel=3 note=65 velocity=40 time=0.012885208333333334
EXTRACT: note_on channel=3 note=60 velocity=40 time=0.012885208333333334
EXTRACT: note_off channel=3 note=72 velocity=0 time=0.025770416666666667
EXTRACT: note_off channel=9 note=70 velocity=0 time=0
EXTRACT: note_off channel=3 note=68 velocity=0 time=0.012885208333333334
EXTRACT: note_off channel=3 note=65 velocity=0 time=0.012885208333333334
EXTRACT: note_off channel=3 note=60 velocity=0 time=0.012885208333333334
EXTRACT: note_on channel=3 note=60 velocity=46 time=0.051540833333333334
EXTRACT: note_on channel=9 note=70 velocity=24 time=0
EXTRACT: note_on channel=9 note=42 velocity=40 time=0
EXTRACT: note_on channel=3 note=65 velocity=46 time=0.012885208333333334
EXTRACT: note_on channel=3 note=68 velocity=46 time=0
EXTRACT: note_on channel=3 note=72 velocity=46 time=0.012885208333333334
EXTRACT: note_off channel=3 note=60 velocity=0 time=0.038655625
EXTRACT: note_off channel=9 note=42 velocity=0 time=0
EXTRACT: note_off channel=9 note=70 velocity=0 time=0
EXTRACT: note_off channel=3 note=68 velocity=0 time=0.012885208333333334
EXTRACT: note_off channel=3 note=65 velocity=0 time=0
EXTRACT: note_off channel=3 note=72 velocity=0 time=0.012885208333333334
EXTRACT: note_on channel=10 note=63 velocity=93 time=0.051540833333333334
EXTRACT: note_on channel=3 note=72 velocity=77 time=0.012885208333333334
EXTRACT: note_on channel=9 note=70 velocity=64 time=0
EXTRACT: note_on channel=3 note=68 velocity=77 time=0.012885208333333334
EXTRACT: note_on channel=3 note=65 velocity=77 time=0
EXTRACT: note_on channel=3 note=60 velocity=77 time=0.012885208333333334
EXTRACT: note_off channel=10 note=65 velocity=0 time=0.012885208333333334
EXTRACT: note_off channel=3 note=72 velocity=0 time=0.025770416666666667
EXTRACT: note_off channel=9 note=70 velocity=0 time=0
EXTRACT: note_off channel=3 note=65 velocity=0 time=0.012885208333333334
EXTRACT: note_off channel=3 note=68 velocity=0 time=0
EXTRACT: note_off channel=3 note=60 velocity=0 time=0.012885208333333334
EXTRACT: note_off channel=4 note=60 velocity=0 time=0.051540833333333334
EXTRACT: note_off channel=4 note=65 velocity=0 time=0
EXTRACT: note_on channel=4 note=67 velocity=111 time=0
EXTRACT: note_on channel=4 note=62 velocity=104 time=0
EXTRACT: note_on channel=10 note=62 velocity=127 time=0.012885208333333334
EXTRACT: note_on channel=9 note=70 velocity=110 time=0.012885208333333334
EXTRACT: note_on channel=9 note=42 velocity=69 time=0
EXTRACT: note_off channel=10 note=63 velocity=0 time=0
EXTRACT: note_on channel=10 note=67 velocity=94 time=0
EXTRACT: note_on channel=2 note=31 velocity=110 time=0.012885208333333334
EXTRACT: note_on channel=9 note=44 velocity=69 time=0
EXTRACT: note_off channel=9 note=44 velocity=0 time=0.038655625
EXTRACT: note_off channel=9 note=42 velocity=0 time=0
EXTRACT: note_off channel=9 note=70 velocity=0 time=0
EXTRACT: note_on channel=3 note=62 velocity=93 time=0.09019645833333334
EXTRACT: note_on channel=9 note=36 velocity=93 time=0
EXTRACT: note_on channel=9 note=70 velocity=10 time=0
EXTRACT: note_on channel=3 note=67 velocity=93 time=0.012885208333333334
EXTRACT: note_on channel=3 note=71 velocity=93 time=0
EXTRACT: note_on channel=3 note=74 velocity=93 time=0.012885208333333334
EXTRACT: note_off channel=3 note=62 velocity=0 time=0.038655625
EXTRACT: note_off channel=9 note=70 velocity=0 time=0
EXTRACT: note_off channel=9 note=36 velocity=0 time=0
EXTRACT: note_off channel=3 note=71 velocity=0 time=0.012885208333333334
EXTRACT: note_off channel=3 note=67 velocity=0 time=0
EXTRACT: note_off channel=3 note=74 velocity=0 time=0.012885208333333334
EXTRACT: note_on channel=3 note=74 velocity=44 time=0.06442604166666667
EXTRACT: note_on channel=9 note=36 velocity=123 time=0
EXTRACT: note_on channel=3 note=71 velocity=44 time=0.012885208333333334
EXTRACT: note_on channel=9 note=70 velocity=24 time=0
EXTRACT: note_on channel=9 note=42 velocity=38 time=0
EXTRACT: note_on channel=3 note=67 velocity=44 time=0.012885208333333334
EXTRACT: note_on channel=3 note=62 velocity=44 time=0.012885208333333334
EXTRACT: note_off channel=2 note=31 velocity=0 time=0.025770416666666667
EXTRACT: note_off channel=3 note=74 velocity=0 time=0
EXTRACT: note_off channel=9 note=42 velocity=0 time=0
EXTRACT: note_off channel=9 note=70 velocity=0 time=0
EXTRACT: note_off channel=9 note=36 velocity=0 time=0
EXTRACT: note_off channel=3 note=71 velocity=0 time=0.012885208333333334
EXTRACT: note_off channel=3 note=67 velocity=0 time=0.012885208333333334
EXTRACT: note_off channel=3 note=62 velocity=0 time=0.012885208333333334
EXTRACT: note_on channel=2 note=31 velocity=125 time=0.051540833333333334
EXTRACT: note_on channel=9 note=70 velocity=64 time=0
EXTRACT: note_off channel=9 note=70 velocity=0 time=0.06442604166666667
EXTRACT: note_on channel=9 note=40 velocity=100 time=0.09019645833333334
EXTRACT: note_on channel=3 note=62 velocity=83 time=0.012885208333333334
EXTRACT: note_on channel=9 note=90 velocity=127 time=0
EXTRACT: note_on channel=9 note=44 velocity=71 time=0
EXTRACT: note_on channel=9 note=70 velocity=110 time=0
EXTRACT: note_on channel=9 note=42 velocity=71 time=0
EXTRACT: note_on channel=3 note=67 velocity=83 time=0.012885208333333334
EXTRACT: note_on channel=3 note=71 velocity=83 time=0
EXTRACT: note_on channel=3 note=74 velocity=83 time=0.012885208333333334
EXTRACT: note_off channel=3 note=67 velocity=0 time=0.025770416666666667
EXTRACT: note_off channel=3 note=62 velocity=0 time=0
EXTRACT: note_off channel=9 note=42 velocity=0 time=0
EXTRACT: note_off channel=9 note=70 velocity=0 time=0
EXTRACT: note_off channel=9 note=44 velocity=0 time=0
EXTRACT: note_off channel=3 note=71 velocity=0 time=0.012885208333333334
EXTRACT: note_off channel=3 note=74 velocity=0 time=0.025770416666666667
EXTRACT: note_off channel=9 note=90 velocity=0 time=0.038655625
EXTRACT: note_off channel=9 note=40 velocity=0 time=0
EXTRACT: note_on channel=3 note=74 velocity=44 time=0.012885208333333334
EXTRACT: note_on channel=9 note=36 velocity=110 time=0
EXTRACT: note_on channel=9 note=70 velocity=10 time=0
EXTRACT: note_on channel=3 note=71 velocity=44 time=0.012885208333333334
EXTRACT: note_on channel=3 note=67 velocity=44 time=0.012885208333333334
EXTRACT: note_on channel=3 note=62 velocity=44 time=0
EXTRACT: note_off channel=10 note=67 velocity=0 time=0.025770416666666667
EXTRACT: note_off channel=3 note=74 velocity=0 time=0.012885208333333334
EXTRACT: note_off channel=9 note=70 velocity=0 time=0
EXTRACT: note_off channel=9 note=36 velocity=0 time=0
EXTRACT: note_off channel=10 note=62 velocity=0 time=0
EXTRACT: note_off channel=3 note=71 velocity=0 time=0.012885208333333334
EXTRACT: note_off channel=3 note=62 velocity=0 time=0.012885208333333334
EXTRACT: note_off channel=3 note=67 velocity=0 time=0
EXTRACT: note_off channel=2 note=31 velocity=0 time=0.012885208333333334
EXTRACT: note_on channel=9 note=70 velocity=22 time=0.051540833333333334
EXTRACT: note_on channel=9 note=42 velocity=42 time=0
EXTRACT: note_on channel=2 note=31 velocity=125 time=0.012885208333333334
EXTRACT: note_on channel=10 note=63 velocity=108 time=0
EXTRACT: note_on channel=10 note=67 velocity=89 time=0
EXTRACT: note_off channel=9 note=42 velocity=0 time=0.051540833333333334
EXTRACT: note_off channel=9 note=70 velocity=0 time=0
EXTRACT: note_on channel=10 note=65 velocity=79 time=0.06442604166666667
EXTRACT: note_on channel=10 note=62 velocity=97 time=0.012885208333333334
EXTRACT: note_on channel=9 note=36 velocity=75 time=0.012885208333333334
EXTRACT: note_on channel=9 note=70 velocity=67 time=0
EXTRACT: note_off channel=10 note=67 velocity=0 time=0.025770416666666667
EXTRACT: note_off channel=10 note=63 velocity=0 time=0
EXTRACT: note_off channel=9 note=70 velocity=0 time=0.038655625
EXTRACT: note_off channel=9 note=36 velocity=0 time=0
EXTRACT: note_off channel=2 note=31 velocity=0 time=0.012885208333333334
EXTRACT: note_off channel=4 note=62 velocity=0 time=0
EXTRACT: note_off channel=4 note=67 velocity=0 time=0
EXTRACT: note_on channel=4 note=63 velocity=111 time=0
EXTRACT: note_on channel=4 note=60 velocity=104 time=0
EXTRACT: note_on channel=9 note=36 velocity=110 time=0.07731125
EXTRACT: note_on channel=2 note=36 velocity=121 time=0.012885208333333334
EXTRACT: note_on channel=9 note=70 velocity=107 time=0
EXTRACT: note_on channel=9 note=42 velocity=69 time=0
EXTRACT: note_on channel=9 note=44 velocity=69 time=0
EXTRACT: note_off channel=9 note=70 velocity=0 time=0.051540833333333334
EXTRACT: note_off channel=9 note=36 velocity=0 time=0
EXTRACT: note_off channel=10 note=62 velocity=0 time=0.025770416666666667
EXTRACT: note_off channel=10 note=65 velocity=0 time=0.025770416666666667
EXTRACT: note_off channel=9 note=44 velocity=0 time=0.025770416666666667
EXTRACT: note_off channel=9 note=42 velocity=0 time=0
EXTRACT: note_on channel=9 note=70 velocity=8 time=0.012885208333333334
EXTRACT: note_on channel=10 note=63 velocity=77 time=0
EXTRACT: note_on channel=10 note=60 velocity=74 time=0
EXTRACT: note_off channel=9 note=70 velocity=0 time=0.06442604166666667
EXTRACT: note_on channel=9 note=70 velocity=22 time=0.09019645833333334
EXTRACT: note_on channel=9 note=42 velocity=36 time=0
EXTRACT: note_on channel=3 note=72 velocity=52 time=0.025770416666666667
EXTRACT: note_off channel=9 note=42 velocity=0 time=0.038655625
EXTRACT: note_off channel=9 note=70 velocity=0 time=0
EXTRACT: note_off channel=3 note=72 velocity=0 time=0.025770416666666667
EXTRACT: note_off channel=2 note=36 velocity=0 time=0.038655625
EXTRACT: note_on channel=4 note=60 velocity=92 time=0.025770416666666667
EXTRACT: note_on channel=9 note=70 velocity=60 time=0
EXTRACT: note_on channel=9 note=36 velocity=99 time=0
EXTRACT: note_on channel=2 note=36 velocity=110 time=0.012885208333333334
EXTRACT: note_on channel=3 note=72 velocity=50 time=0
EXTRACT: note_on channel=3 note=67 velocity=50 time=0
EXTRACT: note_on channel=9 note=54 velocity=69 time=0
EXTRACT: note_on channel=3 note=63 velocity=50 time=0.012885208333333334
EXTRACT: note_on channel=3 note=60 velocity=50 time=0
EXTRACT: control_change channel=3 control=64 value=0 time=0.012885208333333334
EXTRACT: note_off channel=3 note=72 velocity=0 time=0.025770416666666667
EXTRACT: note_off channel=4 note=60 velocity=0 time=0
EXTRACT: note_off channel=9 note=54 velocity=0 time=0
EXTRACT: note_off channel=9 note=36 velocity=0 time=0
EXTRACT: note_off channel=9 note=70 velocity=0 time=0
EXTRACT: note_off channel=3 note=63 velocity=0 time=0.012885208333333334
EXTRACT: note_off channel=3 note=67 velocity=0 time=0
EXTRACT: note_off channel=3 note=60 velocity=0 time=0.012885208333333334
EXTRACT: control_change channel=3 control=64 value=127 time=0
EXTRACT: note_off channel=2 note=36 velocity=0 time=0.025770416666666667
EXTRACT: note_on channel=9 note=40 velocity=100 time=0.038655625
EXTRACT: note_on channel=9 note=90 velocity=127 time=0
EXTRACT: note_on channel=2 note=36 velocity=110 time=0.012885208333333334
EXTRACT: note_on channel=9 note=44 velocity=71 time=0
EXTRACT: note_on channel=9 note=70 velocity=40 time=0
EXTRACT: note_on channel=9 note=57 velocity=90 time=0
EXTRACT: note_on channel=9 note=42 velocity=71 time=0
EXTRACT: note_on channel=3 note=60 velocity=75 time=0.012885208333333334
EXTRACT: note_on channel=3 note=63 velocity=75 time=0
EXTRACT: note_on channel=9 note=54 velocity=127 time=0
EXTRACT: note_on channel=3 note=67 velocity=75 time=0.012885208333333334
EXTRACT: note_on channel=3 note=72 velocity=75 time=0
EXTRACT: note_off channel=3 note=60 velocity=0 time=0.025770416666666667
EXTRACT: note_off channel=9 note=54 velocity=0 time=0
EXTRACT: note_off channel=9 note=42 velocity=0 time=0
EXTRACT: note_off channel=9 note=57 velocity=0 time=0
EXTRACT: note_off channel=9 note=70 velocity=0 time=0
EXTRACT: note_off channel=9 note=44 velocity=0 time=0
EXTRACT: note_off channel=3 note=63 velocity=0 time=0.012885208333333334
EXTRACT: note_off channel=3 note=72 velocity=0 time=0.012885208333333334
EXTRACT: note_off channel=3 note=67 velocity=0 time=0
EXTRACT: note_off channel=9 note=90 velocity=0 time=0.051540833333333334
EXTRACT: note_off channel=9 note=40 velocity=0 time=0
EXTRACT: note_on channel=3 note=72 velocity=40 time=0.012885208333333334
EXTRACT: note_on channel=9 note=70 velocity=10 time=0
EXTRACT: note_on channel=3 note=67 velocity=40 time=0.012885208333333334
EXTRACT: note_on channel=3 note=63 velocity=40 time=0.012885208333333334
EXTRACT: note_on channel=3 note=60 velocity=40 time=0.012885208333333334
EXTRACT: note_off channel=3 note=72 velocity=0 time=0.025770416666666667
EXTRACT: note_off channel=9 note=70 velocity=0 time=0
EXTRACT: note_off channel=3 note=67 velocity=0 time=0.012885208333333334
EXTRACT: note_off channel=3 note=63 velocity=0 time=0.012885208333333334
EXTRACT: note_off channel=3 note=60 velocity=0 time=0.012885208333333334
EXTRACT: note_on channel=3 note=60 velocity=46 time=0.051540833333333334
EXTRACT: note_on channel=9 note=70 velocity=24 time=0
EXTRACT: note_on channel=3 note=63 velocity=46 time=0.012885208333333334
EXTRACT: note_on channel=3 note=67 velocity=46 time=0
EXTRACT: note_on channel=3 note=72 velocity=46 time=0.012885208333333334
EXTRACT: note_off channel=3 note=60 velocity=0 time=0.038655625
EXTRACT: note_off channel=9 note=70 velocity=0 time=0
EXTRACT: note_off channel=10 note=60 velocity=0 time=0
EXTRACT: note_off channel=3 note=67 velocity=0 time=0.012885208333333334
EXTRACT: note_off channel=3 note=63 velocity=0 time=0
EXTRACT: note_off channel=3 note=72 velocity=0 time=0.012885208333333334
EXTRACT: note_off channel=2 note=36 velocity=0 time=0.051540833333333334
EXTRACT: note_off channel=10 note=63 velocity=0 time=0
EXTRACT: note_on channel=3 note=72 velocity=77 time=0.012885208333333334
EXTRACT: note_on channel=9 note=36 velocity=110 time=0
EXTRACT: note_on channel=9 note=70 velocity=64 time=0
EXTRACT: note_on channel=3 note=67 velocity=77 time=0.012885208333333334
EXTRACT: note_on channel=3 note=63 velocity=77 time=0
EXTRACT: note_on channel=3 note=60 velocity=77 time=0.012885208333333334
EXTRACT: note_off channel=3 note=72 velocity=0 time=0.038655625
EXTRACT: note_off channel=9 note=70 velocity=0 time=0
EXTRACT: note_off channel=9 note=36 velocity=0 time=0
EXTRACT: note_off channel=3 note=63 velocity=0 time=0.012885208333333334
EXTRACT: note_off channel=3 note=67 velocity=0 time=0
EXTRACT: note_off channel=3 note=60 velocity=0 time=0.012885208333333334
EXTRACT: note_on channel=10 note=63 velocity=110 time=0.051540833333333334
EXTRACT: note_on channel=9 note=40 velocity=100 time=0.012885208333333334
EXTRACT: note_on channel=9 note=90 velocity=125 time=0
EXTRACT: note_on channel=2 note=36 velocity=110 time=0.012885208333333334
EXTRACT: note_on channel=4 note=60 velocity=116 time=0
EXTRACT: note_on channel=9 note=70 velocity=110 time=0
EXTRACT: note_on channel=9 note=44 velocity=40 time=0
EXTRACT: note_off channel=4 note=60 velocity=0 time=0.051540833333333334
EXTRACT: note_off channel=9 note=44 velocity=0 time=0
EXTRACT: note_off channel=9 note=70 velocity=0 time=0
EXTRACT: note_off channel=9 note=90 velocity=0 time=0
EXTRACT: note_off channel=9 note=40 velocity=0 time=0
EXTRACT: note_on channel=3 note=60 velocity=93 time=0.09019645833333334
EXTRACT: note_on channel=9 note=70 velocity=10 time=0
EXTRACT: note_on channel=3 note=63 velocity=93 time=0.012885208333333334
EXTRACT: note_on channel=3 note=67 velocity=93 time=0
EXTRACT: note_on channel=3 note=72 velocity=93 time=0.012885208333333334
EXTRACT: note_off channel=3 note=60 velocity=0 time=0.038655625
EXTRACT: note_off channel=9 note=70 velocity=0 time=0
EXTRACT: note_off channel=3 note=67 velocity=0 time=0.012885208333333334
EXTRACT: note_off channel=3 note=63 velocity=0 time=0
EXTRACT: note_off channel=3 note=72 velocity=0 time=0.012885208333333334
EXTRACT: note_on channel=9 note=40 velocity=100 time=0.06442604166666667
EXTRACT: note_on channel=9 note=90 velocity=123 time=0
EXTRACT: note_on channel=9 note=70 velocity=24 time=0
EXTRACT: note_on channel=3 note=72 velocity=44 time=0.012885208333333334
EXTRACT: note_on channel=3 note=67 velocity=44 time=0
EXTRACT: note_on channel=3 note=63 velocity=44 time=0.012885208333333334
EXTRACT: note_on channel=3 note=60 velocity=44 time=0.012885208333333334
EXTRACT: note_off channel=2 note=36 velocity=0 time=0.025770416666666667
EXTRACT: note_off channel=3 note=72 velocity=0 time=0
EXTRACT: note_off channel=9 note=70 velocity=0 time=0
EXTRACT: note_off channel=9 note=90 velocity=0 time=0
EXTRACT: note_off channel=9 note=40 velocity=0 time=0
EXTRACT: note_off channel=3 note=67 velocity=0 time=0.012885208333333334
EXTRACT: note_off channel=3 note=63 velocity=0 time=0.012885208333333334
EXTRACT: note_off channel=3 note=60 velocity=0 time=0.012885208333333334
EXTRACT: note_on channel=2 note=36 velocity=125 time=0.051540833333333334
EXTRACT: note_on channel=4 note=60 velocity=113 time=0
EXTRACT: note_on channel=9 note=36 velocity=110 time=0
EXTRACT: note_on channel=9 note=70 velocity=64 time=0
EXTRACT: note_off channel=4 note=60 velocity=0 time=0.051540833333333334
EXTRACT: note_off channel=9 note=70 velocity=0 time=0.012885208333333334
EXTRACT: note_off channel=9 note=36 velocity=0 time=0
EXTRACT: note_off channel=10 note=63 velocity=0 time=0
EXTRACT: note_on channel=9 note=40 velocity=40 time=0.012885208333333334
EXTRACT: note_off channel=9 note=40 velocity=0 time=0.012885208333333334
EXTRACT: note_off channel=2 note=36 velocity=0 time=0.025770416666666667
EXTRACT: note_on channel=2 note=34 velocity=125 time=0
EXTRACT: control_change channel=3 control=64 value=0 time=0
EXTRACT: note_off channel=4 note=60 velocity=0 time=0
EXTRACT: note_off channel=4 note=63 velocity=0 time=0
EXTRACT: control_change channel=3 control=64 value=127 time=0.012885208333333334
EXTRACT: note_on channel=4 note=65 velocity=111 time=0
EXTRACT: note_on channel=4 note=62 velocity=104 time=0
EXTRACT: note_on channel=9 note=40 velocity=60 time=0
EXTRACT: note_off channel=9 note=40 velocity=0 time=0.0016106510416666667
EXTRACT: note_on channel=9 note=40 velocity=100 time=0.024159765625
EXTRACT: note_on channel=9 note=90 velocity=127 time=0
EXTRACT: note_on channel=3 note=62 velocity=83 time=0.012885208333333334
EXTRACT: note_on channel=9 note=44 velocity=71 time=0
EXTRACT: note_on channel=9 note=70 velocity=110 time=0
EXTRACT: note_on channel=10 note=67 velocity=113 time=0
EXTRACT: note_on channel=3 note=65 velocity=83 time=0.012885208333333334
EXTRACT: note_on channel=3 note=70 velocity=83 time=0
EXTRACT: note_on channel=3 note=74 velocity=83 time=0.012885208333333334
EXTRACT: note_off channel=3 note=65 velocity=0 time=0.025770416666666667
EXTRACT: note_off channel=3 note=62 velocity=0 time=0
EXTRACT: note_off channel=9 note=70 velocity=0 time=0
EXTRACT: note_off channel=9 note=44 velocity=0 time=0
EXTRACT: note_off channel=3 note=70 velocity=0 time=0.012885208333333334
EXTRACT: note_off channel=3 note=74 velocity=0 time=0.025770416666666667
EXTRACT: note_off channel=9 note=90 velocity=0 time=0.038655625
EXTRACT: note_off channel=9 note=40 velocity=0 time=0
EXTRACT: note_on channel=3 note=74 velocity=44 time=0.012885208333333334
EXTRACT: note_on channel=9 note=47 velocity=110 time=0
EXTRACT: note_on channel=9 note=70 velocity=10 time=0
EXTRACT: note_on channel=3 note=70 velocity=44 time=0.012885208333333334
EXTRACT: note_on channel=3 note=65 velocity=44 time=0.012885208333333334
EXTRACT: note_on channel=3 note=62 velocity=44 time=0
EXTRACT: note_off channel=3 note=74 velocity=0 time=0.038655625
EXTRACT: note_off channel=9 note=70 velocity=0 time=0
EXTRACT: note_off channel=9 note=47 velocity=0 time=0
EXTRACT: note_off channel=3 note=70 velocity=0 time=0.012885208333333334
EXTRACT: note_off channel=3 note=62 velocity=0 time=0.012885208333333334
EXTRACT: note_off channel=3 note=65 velocity=0 time=0
EXTRACT: note_off channel=2 note=34 velocity=0 time=0.012885208333333334
EXTRACT: note_on channel=2 note=34 velocity=125 time=0.051540833333333334
EXTRACT: note_on channel=9 note=45 velocity=110 time=0
EXTRACT: note_on channel=9 note=70 velocity=22 time=0
EXTRACT: note_on channel=4 note=62 velocity=96 time=0.012885208333333334
EXTRACT: note_off channel=4 note=62 velocity=0 time=0.025770416666666667
EXTRACT: note_off channel=9 note=70 velocity=0 time=0.025770416666666667
EXTRACT: note_off channel=9 note=45 velocity=0 time=0
EXTRACT: note_on channel=4 note=62 velocity=81 time=0.09019645833333334
EXTRACT: note_on channel=9 note=36 velocity=91 time=0
EXTRACT: note_on channel=9 note=55 velocity=85 time=0
EXTRACT: note_on channel=9 note=70 velocity=67 time=0
EXTRACT: note_off channel=10 note=67 velocity=0 time=0.051540833333333334
EXTRACT: note_off channel=9 note=70 velocity=0 time=0.012885208333333334
EXTRACT: note_off channel=9 note=55 velocity=0 time=0
EXTRACT: note_off channel=9 note=36 velocity=0 time=0
EXTRACT: note_off channel=2 note=34 velocity=0 time=0.038655625
EXTRACT: control_change channel=3 control=64 value=0 time=0
EXTRACT: note_off channel=4 note=62 velocity=0 time=0
EXTRACT: note_off channel=4 note=62 velocity=0 time=0
EXTRACT: note_off channel=4 note=65 velocity=0 time=0
EXTRACT: control_change channel=3 control=64 value=127 time=0.012885208333333334
EXTRACT: note_on channel=4 note=65 velocity=111 time=0
EXTRACT: note_on channel=4 note=60 velocity=104 time=0
EXTRACT: control_change channel=4 control=0 value=0 time=0.025770416666666667
EXTRACT: control_change channel=4 control=0 value=0 time=0
EXTRACT: control_change channel=4 control=32 value=0 time=0
EXTRACT: control_change channel=4 control=0 value=0 time=0
EXTRACT: control_change channel=4 control=32 value=0 time=0
EXTRACT: program_change channel=4 program=50 time=0
EXTRACT: control_change channel=3 control=64 value=0 time=0.025770416666666667
EXTRACT: note_off channel=4 note=60 velocity=0 time=0
EXTRACT: note_off channel=4 note=65 velocity=0 time=0
EXTRACT: program_change channel=9 program=0 time=0.012885208333333334
EXTRACT: note_on channel=9 note=49 velocity=90 time=0
EXTRACT: program_change channel=9 program=32 time=0
EXTRACT: note_on channel=10 note=68 velocity=120 time=0
EXTRACT: note_off channel=9 note=49 velocity=0 time=0.0016106510416666667
EXTRACT: note_on channel=4 note=65 velocity=91 time=0.011274557291666668
EXTRACT: note_on channel=4 note=60 velocity=80 time=0
EXTRACT: note_on channel=9 note=36 velocity=127 time=0
EXTRACT: note_on channel=9 note=44 velocity=69 time=0
EXTRACT: note_on channel=2 note=29 velocity=127 time=0.012885208333333334
EXTRACT: note_on channel=9 note=70 velocity=40 time=0
EXTRACT: note_on channel=9 note=51 velocity=69 time=0
EXTRACT: note_off channel=9 note=70 velocity=0 time=0.012885208333333334
EXTRACT: note_off channel=9 note=51 velocity=0 time=0.07731125
EXTRACT: note_off channel=9 note=44 velocity=0 time=0
EXTRACT: note_off channel=9 note=36 velocity=0 time=0
EXTRACT: note_on channel=9 note=70 velocity=64 time=0.012885208333333334
EXTRACT: note_off channel=9 note=70 velocity=0 time=0.06442604166666667
EXTRACT: note_on channel=9 note=70 velocity=113 time=0.09019645833333334
EXTRACT: note_on channel=9 note=51 velocity=50 time=0
EXTRACT: note_on channel=10 note=67 velocity=125 time=0
EXTRACT: note_off channel=10 note=68 velocity=0 time=0.038655625
EXTRACT: note_off channel=9 note=51 velocity=0 time=0.025770416666666667
EXTRACT: note_off channel=9 note=70 velocity=0 time=0
EXTRACT: note_off channel=10 note=67 velocity=0 time=0
EXTRACT: note_on channel=9 note=36 velocity=99 time=0.09019645833333334
EXTRACT: note_on channel=9 note=70 velocity=60 time=0
EXTRACT: note_on channel=10 note=67 velocity=125 time=0.012885208333333334
EXTRACT: note_off channel=9 note=70 velocity=0 time=0.051540833333333334
EXTRACT: note_off channel=9 note=36 velocity=0 time=0
EXTRACT: note_on channel=9 note=40 velocity=100 time=0.09019645833333334
EXTRACT: note_on channel=3 note=60 velocity=110 time=0.012885208333333334
EXTRACT: note_on channel=9 note=90 velocity=127 time=0
EXTRACT: note_on channel=9 note=44 velocity=71 time=0
EXTRACT: note_on channel=9 note=70 velocity=40 time=0
EXTRACT: note_on channel=9 note=51 velocity=71 time=0
EXTRACT: note_on channel=3 note=65 velocity=110 time=0.012885208333333334
EXTRACT: note_on channel=3 note=68 velocity=110 time=0.012885208333333334
EXTRACT: note_on channel=3 note=72 velocity=110 time=0
EXTRACT: note_off channel=3 note=60 velocity=0 time=0.025770416666666667
EXTRACT: note_off channel=9 note=51 velocity=0 time=0
EXTRACT: note_off channel=9 note=70 velocity=0 time=0
EXTRACT: note_off channel=9 note=44 velocity=0 time=0
EXTRACT: note_off channel=3 note=65 velocity=0 time=0.012885208333333334
EXTRACT: note_off channel=3 note=72 velocity=0 time=0.012885208333333334
EXTRACT: note_off channel=3 note=68 velocity=0 time=0
EXTRACT: note_off channel=9 note=90 velocity=0 time=0.051540833333333334
EXTRACT: note_off channel=9 note=40 velocity=0 time=0
EXTRACT: note_on channel=3 note=72 velocity=40 time=0.012885208333333334
EXTRACT: note_on channel=9 note=70 velocity=65 time=0
EXTRACT: note_on channel=3 note=68 velocity=40 time=0.012885208333333334
EXTRACT: note_off channel=10 note=67 velocity=0 time=0
EXTRACT: note_on channel=10 note=65 velocity=106 time=0
EXTRACT: note_on channel=3 note=65 velocity=40 time=0.012885208333333334
EXTRACT: note_on channel=3 note=60 velocity=40 time=0.012885208333333334
EXTRACT: note_off channel=3 note=72 velocity=0 time=0.025770416666666667
EXTRACT: note_off channel=9 note=70 velocity=0 time=0
EXTRACT: note_off channel=3 note=68 velocity=0 time=0.012885208333333334
EXTRACT: note_off channel=3 note=65 velocity=0 time=0.012885208333333334
EXTRACT: note_off channel=3 note=60 velocity=0 time=0.012885208333333334
EXTRACT: note_off channel=2 note=29 velocity=0 time=0.038655625
EXTRACT: note_on channel=3 note=60 velocity=46 time=0.012885208333333334
EXTRACT: note_on channel=9 note=70 velocity=110 time=0
EXTRACT: note_on channel=9 note=51 velocity=50 time=0
EXTRACT: note_on channel=3 note=65 velocity=46 time=0.012885208333333334
EXTRACT: note_on channel=3 note=68 velocity=46 time=0
EXTRACT: note_on channel=3 note=72 velocity=46 time=0.012885208333333334
EXTRACT: note_off channel=10 note=65 velocity=0 time=0.012885208333333334
EXTRACT: note_off channel=3 note=60 velocity=0 time=0.025770416666666667
EXTRACT: note_off channel=9 note=51 velocity=0 time=0
EXTRACT: note_off channel=9 note=70 velocity=0 time=0
EXTRACT: note_off channel=3 note=68 velocity=0 time=0.012885208333333334
EXTRACT: note_off channel=3 note=65 velocity=0 time=0
EXTRACT: note_off channel=3 note=72 velocity=0 time=0.012885208333333334
EXTRACT: note_on channel=10 note=65 velocity=115 time=0.051540833333333334
EXTRACT: note_on channel=3 note=72 velocity=77 time=0.012885208333333334
EXTRACT: note_on channel=9 note=70 velocity=64 time=0
EXTRACT: note_on channel=2 note=29 velocity=110 time=0.012885208333333334
EXTRACT: note_on channel=3 note=68 velocity=77 time=0
EXTRACT: note_on channel=9 note=36 velocity=110 time=0
EXTRACT: note_on channel=3 note=65 velocity=77 time=0.012885208333333334
EXTRACT: note_on channel=3 note=60 velocity=77 time=0
EXTRACT: note_off channel=3 note=72 velocity=0 time=0.038655625
EXTRACT: note_off channel=9 note=36 velocity=0 time=0
EXTRACT: note_off channel=9 note=70 velocity=0 time=0
EXTRACT: note_off channel=2 note=29 velocity=0 time=0.012885208333333334
EXTRACT: note_off channel=3 note=65 velocity=0 time=0
EXTRACT: note_off channel=3 note=68 velocity=0 time=0
EXTRACT: note_off channel=3 note=60 velocity=0 time=0.012885208333333334
EXTRACT: note_on channel=9 note=44 velocity=69 time=0.06442604166666667
EXTRACT: note_on channel=9 note=70 velocity=40 time=0
EXTRACT: note_on channel=2 note=29 velocity=110 time=0.012885208333333334
EXTRACT: note_on channel=9 note=51 velocity=69 time=0
EXTRACT: note_off channel=2 note=29 velocity=0 time=0.012885208333333334
EXTRACT: note_on channel=2 note=34 velocity=110 time=0
EXTRACT: note_off channel=4 note=60 velocity=0 time=0
EXTRACT: note_off channel=4 note=65 velocity=0 time=0
EXTRACT: note_on channel=4 note=65 velocity=91 time=0
EXTRACT: note_on channel=4 note=62 velocity=80 time=0.012885208333333334
EXTRACT: note_off channel=9 note=51 velocity=0 time=0.025770416666666667
EXTRACT: note_off channel=9 note=70 velocity=0 time=0
EXTRACT: note_off channel=9 note=44 velocity=0 time=0
EXTRACT: note_on channel=3 note=62 velocity=93 time=0.09019645833333334
EXTRACT: note_on channel=9 note=36 velocity=101 time=0
EXTRACT: note_on channel=9 note=70 velocity=64 time=0
EXTRACT: note_on channel=3 note=65 velocity=93 time=0.012885208333333334
EXTRACT: note_on channel=3 note=70 velocity=93 time=0
EXTRACT: note_on channel=3 note=74 velocity=93 time=0.012885208333333334
EXTRACT: note_off channel=3 note=62 velocity=0 time=0.038655625
EXTRACT: note_off channel=9 note=70 velocity=0 time=0
EXTRACT: note_off channel=9 note=36 velocity=0 time=0
EXTRACT: note_off channel=3 note=70 velocity=0 time=0.012885208333333334
EXTRACT: note_off channel=3 note=65 velocity=0 time=0
EXTRACT: note_off channel=3 note=74 velocity=0 time=0.012885208333333334
EXTRACT: note_on channel=3 note=74 velocity=44 time=0.06442604166666667
EXTRACT: note_on channel=9 note=36 velocity=123 time=0
EXTRACT: note_on channel=3 note=70 velocity=44 time=0.012885208333333334
EXTRACT: note_on channel=9 note=70 velocity=110 time=0
EXTRACT: note_on channel=9 note=51 velocity=52 time=0
EXTRACT: note_on channel=3 note=65 velocity=44 time=0.012885208333333334
EXTRACT: note_on channel=3 note=62 velocity=44 time=0.012885208333333334
EXTRACT: note_off channel=3 note=74 velocity=0 time=0.025770416666666667
EXTRACT: note_off channel=9 note=51 velocity=0 time=0
EXTRACT: note_off channel=9 note=70 velocity=0 time=0
EXTRACT: note_off channel=9 note=36 velocity=0 time=0
EXTRACT: note_off channel=3 note=70 velocity=0 time=0.012885208333333334
EXTRACT: note_off channel=3 note=65 velocity=0 time=0.012885208333333334
EXTRACT: note_off channel=3 note=62 velocity=0 time=0.012885208333333334
EXTRACT: note_on channel=9 note=70 velocity=64 time=0.051540833333333334
EXTRACT: note_off channel=9 note=70 velocity=0 time=0.06442604166666667
EXTRACT: note_off channel=2 note=34 velocity=0 time=0.07731125
EXTRACT: note_on channel=9 note=40 velocity=100 time=0.012885208333333334
EXTRACT: note_on channel=3 note=62 velocity=83 time=0.012885208333333334
EXTRACT: note_on channel=3 note=65 velocity=83 time=0
EXTRACT: note_on channel=9 note=90 velocity=127 time=0
EXTRACT: note_on channel=9 note=44 velocity=71 time=0
EXTRACT: note_on channel=9 note=70 velocity=40 time=0
EXTRACT: note_on channel=3 note=70 velocity=83 time=0.012885208333333334
EXTRACT: note_on channel=9 note=51 velocity=71 time=0
EXTRACT: note_on channel=3 note=74 velocity=83 time=0.012885208333333334
EXTRACT: note_off channel=3 note=65 velocity=0 time=0.025770416666666667
EXTRACT: note_off channel=3 note=62 velocity=0 time=0
EXTRACT: note_off channel=9 note=51 velocity=0 time=0
EXTRACT: note_off channel=9 note=70 velocity=0 time=0
EXTRACT: note_off channel=9 note=44 velocity=0 time=0
EXTRACT: note_off channel=3 note=70 velocity=0 time=0.012885208333333334
EXTRACT: note_off channel=3 note=74 velocity=0 time=0.025770416666666667
EXTRACT: note_off channel=9 note=90 velocity=0 time=0.038655625
EXTRACT: note_off channel=9 note=40 velocity=0 time=0
EXTRACT: note_on channel=3 note=74 velocity=44 time=0.012885208333333334
EXTRACT: note_on channel=9 note=36 velocity=110 time=0
EXTRACT: note_on channel=9 note=70 velocity=60 time=0
EXTRACT: note_on channel=2 note=34 velocity=125 time=0.012885208333333334
EXTRACT: note_on channel=3 note=70 velocity=44 time=0
EXTRACT: note_on channel=3 note=65 velocity=44 time=0.012885208333333334
EXTRACT: note_on channel=3 note=62 velocity=44 time=0
EXTRACT: note_off channel=3 note=74 velocity=0 time=0.038655625
EXTRACT: note_off channel=9 note=70 velocity=0 time=0
EXTRACT: note_off channel=9 note=36 velocity=0 time=0
EXTRACT: note_off channel=3 note=70 velocity=0 time=0.012885208333333334
EXTRACT: note_off channel=3 note=62 velocity=0 time=0.012885208333333334
EXTRACT: note_off channel=3 note=65 velocity=0 time=0
EXTRACT: note_on channel=9 note=70 velocity=107 time=0.06442604166666667
EXTRACT: note_on channel=9 note=51 velocity=54 time=0
EXTRACT: note_off channel=9 note=51 velocity=0 time=0.06442604166666667
EXTRACT: note_off channel=9 note=70 velocity=0 time=0
EXTRACT: note_off channel=10 note=65 velocity=0 time=0.06442604166666667
EXTRACT: note_on channel=9 note=36 velocity=75 time=0.025770416666666667
EXTRACT: note_on channel=9 note=70 velocity=67 time=0
EXTRACT: note_on channel=10 note=63 velocity=110 time=0
EXTRACT: note_off channel=2 note=34 velocity=0 time=0.06442604166666667
EXTRACT: note_off channel=9 note=70 velocity=0 time=0
EXTRACT: note_off channel=9 note=36 velocity=0 time=0
EXTRACT: note_off channel=4 note=62 velocity=0 time=0.038655625
EXTRACT: note_off channel=4 note=65 velocity=0 time=0
EXTRACT: note_on channel=4 note=63 velocity=91 time=0
EXTRACT: note_on channel=4 note=60 velocity=80 time=0
EXTRACT: note_on channel=9 note=36 velocity=110 time=0.051540833333333334
EXTRACT: note_on channel=2 note=36 velocity=110 time=0.012885208333333334
EXTRACT: note_on channel=9 note=44 velocity=69 time=0
EXTRACT: note_on channel=9 note=70 velocity=40 time=0
EXTRACT: note_on channel=9 note=51 velocity=69 time=0
EXTRACT: note_off channel=10 note=63 velocity=0 time=0
EXTRACT: note_on channel=10 note=67 velocity=127 time=0
EXTRACT: note_off channel=9 note=70 velocity=0 time=0.051540833333333334
EXTRACT: note_off channel=9 note=36 velocity=0 time=0
EXTRACT: note_off channel=9 note=51 velocity=0 time=0.07731125
EXTRACT: note_off channel=9 note=44 velocity=0 time=0
EXTRACT: note_on channel=9 note=70 velocity=64 time=0.012885208333333334
EXTRACT: note_off channel=9 note=70 velocity=0 time=0.06442604166666667
EXTRACT: note_on channel=10 note=65 velocity=97 time=0.07731125
EXTRACT: note_on channel=9 note=70 velocity=113 time=0.012885208333333334
EXTRACT: note_on channel=9 note=51 velocity=50 time=0
EXTRACT: note_off channel=10 note=67 velocity=0 time=0.025770416666666667
EXTRACT: note_off channel=10 note=65 velocity=0 time=0.012885208333333334
EXTRACT: note_off channel=2 note=36 velocity=0 time=0.025770416666666667
EXTRACT: note_off channel=9 note=51 velocity=0 time=0
EXTRACT: note_off channel=9 note=70 velocity=0 time=0
EXTRACT: note_on channel=9 note=36 velocity=110 time=0.09019645833333334
EXTRACT: note_on channel=9 note=70 velocity=60 time=0
EXTRACT: note_on channel=10 note=65 velocity=106 time=0
EXTRACT: note_on channel=2 note=36 velocity=110 time=0.012885208333333334
EXTRACT: note_off channel=9 note=70 velocity=0 time=0.051540833333333334
EXTRACT: note_off channel=9 note=36 velocity=0 time=0
EXTRACT: note_off channel=2 note=36 velocity=0 time=0.038655625
EXTRACT: note_on channel=9 note=40 velocity=100 time=0.051540833333333334
EXTRACT: note_on channel=3 note=60 velocity=110 time=0.012885208333333334
EXTRACT: note_on channel=9 note=90 velocity=127 time=0
EXTRACT: note_on channel=9 note=44 velocity=71 time=0
EXTRACT: note_on channel=9 note=70 velocity=40 time=0
EXTRACT: note_on channel=9 note=51 velocity=71 time=0
EXTRACT: note_on channel=2 note=36 velocity=110 time=0.012885208333333334
EXTRACT: note_on channel=3 note=63 velocity=110 time=0
EXTRACT: note_on channel=3 note=67 velocity=110 time=0.012885208333333334
EXTRACT: note_on channel=3 note=72 velocity=110 time=0
EXTRACT: note_off channel=3 note=60 velocity=0 time=0.025770416666666667
EXTRACT: note_off channel=9 note=51 velocity=0 time=0
EXTRACT: note_off channel=9 note=70 velocity=0 time=0
EXTRACT: note_off channel=9 note=44 velocity=0 time=0
EXTRACT: note_off channel=3 note=63 velocity=0 time=0.012885208333333334
EXTRACT: note_off channel=3 note=72 velocity=0 time=0.012885208333333334
EXTRACT: note_off channel=3 note=67 velocity=0 time=0
EXTRACT: note_off channel=2 note=36 velocity=0 time=0.051540833333333334
EXTRACT: note_off channel=9 note=90 velocity=0 time=0
EXTRACT: note_off channel=9 note=40 velocity=0 time=0
EXTRACT: note_off channel=10 note=65 velocity=0 time=0
EXTRACT: note_on channel=2 note=34 velocity=110 time=0.012885208333333334
EXTRACT: note_on channel=3 note=72 velocity=40 time=0
EXTRACT: note_on channel=9 note=70 velocity=64 time=0
EXTRACT: note_on channel=3 note=67 velocity=40 time=0.012885208333333334
EXTRACT: note_on channel=10 note=63 velocity=110 time=0
EXTRACT: note_on channel=3 note=63 velocity=40 time=0.012885208333333334
EXTRACT: note_on channel=3 note=60 velocity=40 time=0.012885208333333334
EXTRACT: note_off channel=3 note=72 velocity=0 time=0.025770416666666667
EXTRACT: note_off channel=9 note=70 velocity=0 time=0
EXTRACT: note_off channel=3 note=67 velocity=0 time=0.012885208333333334
EXTRACT: note_off channel=3 note=63 velocity=0 time=0.012885208333333334
EXTRACT: note_off channel=3 note=60 velocity=0 time=0.012885208333333334
EXTRACT: note_off channel=2 note=34 velocity=0 time=0.038655625
EXTRACT: note_on channel=3 note=60 velocity=46 time=0.012885208333333334
EXTRACT: note_on channel=9 note=70 velocity=110 time=0
EXTRACT: note_on channel=2 note=31 velocity=110 time=0.012885208333333334
EXTRACT: note_on channel=3 note=63 velocity=46 time=0
EXTRACT: note_on channel=9 note=51 velocity=50 time=0
EXTRACT: note_on channel=3 note=67 velocity=46 time=0.012885208333333334
EXTRACT: note_on channel=3 note=72 velocity=46 time=0
EXTRACT: note_off channel=3 note=60 velocity=0 time=0.038655625
EXTRACT: note_off channel=9 note=51 velocity=0 time=0
EXTRACT: note_off channel=9 note=70 velocity=0 time=0
EXTRACT: note_off channel=3 note=67 velocity=0 time=0.012885208333333334
EXTRACT: note_off channel=3 note=63 velocity=0 time=0
EXTRACT: note_off channel=3 note=72 velocity=0 time=0.012885208333333334
EXTRACT: note_off channel=10 note=63 velocity=0 time=0.051540833333333334
EXTRACT: note_on channel=3 note=72 velocity=77 time=0.012885208333333334
EXTRACT: note_on channel=9 note=70 velocity=64 time=0
EXTRACT: note_on channel=3 note=67 velocity=77 time=0.012885208333333334
EXTRACT: note_on channel=3 note=63 velocity=77 time=0
EXTRACT: note_on channel=10 note=67 velocity=127 time=0
EXTRACT: note_on channel=3 note=60 velocity=77 time=0.012885208333333334
EXTRACT: note_off channel=3 note=72 velocity=0 time=0.038655625
EXTRACT: note_off channel=9 note=70 velocity=0 time=0
EXTRACT: note_off channel=3 note=63 velocity=0 time=0.012885208333333334
EXTRACT: note_off channel=3 note=67 velocity=0 time=0
EXTRACT: note_off channel=3 note=60 velocity=0 time=0.012885208333333334
EXTRACT: note_off channel=2 note=31 velocity=0 time=0.051540833333333334
EXTRACT: note_on channel=9 note=44 velocity=69 time=0.012885208333333334
EXTRACT: note_on channel=2 note=36 velocity=127 time=0.012885208333333334
EXTRACT: note_on channel=9 note=36 velocity=110 time=0
EXTRACT: note_on channel=9 note=70 velocity=40 time=0
EXTRACT: note_on channel=9 note=51 velocity=69 time=0
EXTRACT: note_off channel=9 note=51 velocity=0 time=0.051540833333333334
EXTRACT: note_off channel=9 note=70 velocity=0 time=0
EXTRACT: note_off channel=9 note=36 velocity=0 time=0
EXTRACT: note_off channel=9 note=44 velocity=0 time=0
EXTRACT: note_off channel=10 note=67 velocity=0 time=0.06442604166666667
EXTRACT: note_on channel=3 note=60 velocity=93 time=0.025770416666666667
EXTRACT: note_on channel=9 note=70 velocity=64 time=0
EXTRACT: note_on channel=10 note=65 velocity=106 time=0
EXTRACT: note_on channel=3 note=63 velocity=93 time=0.012885208333333334
EXTRACT: note_on channel=3 note=67 velocity=93 time=0
EXTRACT: note_on channel=3 note=72 velocity=93 time=0.012885208333333334
EXTRACT: note_off channel=3 note=60 velocity=0 time=0.038655625
EXTRACT: note_off channel=9 note=70 velocity=0 time=0
EXTRACT: note_off channel=3 note=67 velocity=0 time=0.012885208333333334
EXTRACT: note_off channel=3 note=63 velocity=0 time=0
EXTRACT: note_off channel=3 note=72 velocity=0 time=0.012885208333333334
EXTRACT: note_on channel=3 note=72 velocity=44 time=0.06442604166666667
EXTRACT: note_on channel=9 note=36 velocity=110 time=0
EXTRACT: note_on channel=3 note=67 velocity=44 time=0.012885208333333334
EXTRACT: note_on channel=9 note=70 velocity=110 time=0
EXTRACT: note_on channel=9 note=51 velocity=52 time=0
EXTRACT: note_on channel=3 note=63 velocity=44 time=0.012885208333333334
EXTRACT: note_on channel=3 note=60 velocity=44 time=0.012885208333333334
EXTRACT: note_off channel=3 note=72 velocity=0 time=0.025770416666666667
EXTRACT: note_off channel=9 note=51 velocity=0 time=0
EXTRACT: note_off channel=9 note=70 velocity=0 time=0
EXTRACT: note_off channel=9 note=36 velocity=0 time=0
EXTRACT: note_off channel=10 note=65 velocity=0 time=0
EXTRACT: note_off channel=3 note=67 velocity=0 time=0.012885208333333334
EXTRACT: note_off channel=3 note=63 velocity=0 time=0.012885208333333334
EXTRACT: note_off channel=3 note=60 velocity=0 time=0.012885208333333334
EXTRACT: note_on channel=9 note=70 velocity=64 time=0.051540833333333334
EXTRACT: note_on channel=10 note=65 velocity=115 time=0.012885208333333334
EXTRACT: note_off channel=9 note=70 velocity=0 time=0.051540833333333334
EXTRACT: note_on channel=3 note=60 velocity=83 time=0.10308166666666667
EXTRACT: note_on channel=3 note=63 velocity=83 time=0
EXTRACT: note_on channel=9 note=40 velocity=100 time=0
EXTRACT: note_on channel=9 note=90 velocity=127 time=0
EXTRACT: note_on channel=9 note=44 velocity=71 time=0
EXTRACT: note_on channel=9 note=70 velocity=40 time=0
EXTRACT: note_on channel=3 note=67 velocity=83 time=0.012885208333333334
EXTRACT: note_on channel=9 note=51 velocity=71 time=0
EXTRACT: note_on channel=3 note=72 velocity=83 time=0.012885208333333334
EXTRACT: note_off channel=3 note=63 velocity=0 time=0.025770416666666667
EXTRACT: note_off channel=3 note=60 velocity=0 time=0
EXTRACT: note_off channel=9 note=51 velocity=0 time=0
EXTRACT: note_off channel=9 note=70 velocity=0 time=0
EXTRACT: note_off channel=9 note=44 velocity=0 time=0
EXTRACT: note_off channel=3 note=67 velocity=0 time=0.012885208333333334
EXTRACT: note_off channel=3 note=72 velocity=0 time=0.025770416666666667
EXTRACT: note_off channel=10 note=65 velocity=0 time=0.025770416666666667
EXTRACT: note_off channel=9 note=90 velocity=0 time=0.012885208333333334
EXTRACT: note_off channel=9 note=40 velocity=0 time=0
EXTRACT: note_on channel=3 note=72 velocity=44 time=0.012885208333333334
EXTRACT: note_on channel=9 note=70 velocity=73 time=0
EXTRACT: note_on channel=10 note=63 velocity=110 time=0
EXTRACT: note_on channel=3 note=67 velocity=44 time=0.012885208333333334
EXTRACT: note_on channel=3 note=63 velocity=44 time=0.012885208333333334
EXTRACT: note_on channel=3 note=60 velocity=44 time=0
EXTRACT: note_off channel=3 note=72 velocity=0 time=0.038655625
EXTRACT: note_off channel=9 note=70 velocity=0 time=0
EXTRACT: note_off channel=3 note=67 velocity=0 time=0.012885208333333334
EXTRACT: note_off channel=3 note=60 velocity=0 time=0.012885208333333334
EXTRACT: note_off channel=3 note=63 velocity=0 time=0
EXTRACT: note_on channel=9 note=70 velocity=107 time=0.06442604166666667
EXTRACT: note_on channel=9 note=51 velocity=54 time=0
EXTRACT: note_off channel=9 note=51 velocity=0 time=0.06442604166666667
EXTRACT: note_off channel=9 note=70 velocity=0 time=0
EXTRACT: note_off channel=10 note=63 velocity=0 time=0.025770416666666667
EXTRACT: note_on channel=9 note=70 velocity=67 time=0.06442604166666667
EXTRACT: note_on channel=10 note=63 velocity=82 time=0.012885208333333334
EXTRACT: note_off channel=2 note=36 velocity=0 time=0.051540833333333334
EXTRACT: note_off channel=9 note=70 velocity=0 time=0
EXTRACT: note_off channel=4 note=60 velocity=0 time=0.012885208333333334
EXTRACT: note_off channel=4 note=63 velocity=0 time=0
EXTRACT: note_on channel=4 note=65 velocity=91 time=0
EXTRACT: note_on channel=4 note=60 velocity=80 time=0
EXTRACT: note_off channel=4 note=60 velocity=0 time=0.025770416666666667
EXTRACT: note_off channel=4 note=65 velocity=0 time=0
EXTRACT: note_on channel=4 note=65 velocity=91 time=0
EXTRACT: note_on channel=4 note=60 velocity=80 time=0
EXTRACT: note_on channel=9 note=36 velocity=127 time=0.051540833333333334
EXTRACT: note_on channel=2 note=29 velocity=125 time=0.012885208333333334
EXTRACT: note_on channel=9 note=44 velocity=69 time=0
EXTRACT: note_on channel=9 note=70 velocity=40 time=0
EXTRACT: note_on channel=9 note=51 velocity=69 time=0
EXTRACT: note_off channel=10 note=63 velocity=0 time=0
EXTRACT: note_on channel=10 note=68 velocity=116 time=0
EXTRACT: note_off channel=9 note=70 velocity=0 time=0.051540833333333334
EXTRACT: note_off channel=9 note=51 velocity=0 time=0.07731125
EXTRACT: note_off channel=9 note=44 velocity=0 time=0
EXTRACT: note_off channel=9 note=36 velocity=0 time=0
EXTRACT: note_on channel=9 note=70 velocity=69 time=0.012885208333333334
EXTRACT: note_off channel=9 note=70 velocity=0 time=0.06442604166666667
EXTRACT: note_off channel=2 note=29 velocity=0 time=0.07731125
EXTRACT: note_on channel=9 note=70 velocity=113 time=0.012885208333333334
EXTRACT: note_on channel=9 note=51 velocity=50 time=0
EXTRACT: note_on channel=10 note=67 velocity=97 time=0
EXTRACT: note_off channel=10 note=68 velocity=0 time=0.038655625
EXTRACT: note_off channel=9 note=51 velocity=0 time=0.025770416666666667
EXTRACT: note_off channel=9 note=70 velocity=0 time=0
EXTRACT: note_off channel=10 note=67 velocity=0 time=0
EXTRACT: note_on channel=9 note=36 velocity=99 time=0.09019645833333334
EXTRACT: note_on channel=9 note=70 velocity=60 time=0
EXTRACT: note_on channel=10 note=67 velocity=127 time=0
EXTRACT: note_on channel=2 note=29 velocity=121 time=0.012885208333333334
EXTRACT: note_off channel=9 note=70 velocity=0 time=0.051540833333333334
EXTRACT: note_off channel=9 note=36 velocity=0 time=0
EXTRACT: note_on channel=9 note=40 velocity=100 time=0.09019645833333334
EXTRACT: note_on channel=3 note=60 velocity=110 time=0.012885208333333334
EXTRACT: note_on channel=9 note=90 velocity=127 time=0
EXTRACT: note_on channel=9 note=44 velocity=71 time=0
EXTRACT: note_on channel=9 note=70 velocity=40 time=0
EXTRACT: note_on channel=9 note=51 velocity=71 time=0
EXTRACT: note_on channel=3 note=65 velocity=110 time=0.012885208333333334
EXTRACT: note_on channel=3 note=68 velocity=110 time=0.012885208333333334
EXTRACT: note_on channel=3 note=72 velocity=110 time=0
EXTRACT: note_off channel=3 note=60 velocity=0 time=0.025770416666666667
EXTRACT: note_off channel=9 note=51 velocity=0 time=0
EXTRACT: note_off channel=9 note=70 velocity=0 time=0
EXTRACT: note_off channel=9 note=44 velocity=0 time=0
EXTRACT: note_off channel=3 note=65 velocity=0 time=0.012885208333333334
EXTRACT: note_off channel=3 note=72 velocity=0 time=0.012885208333333334
EXTRACT: note_off channel=3 note=68 velocity=0 time=0
EXTRACT: note_off channel=2 note=29 velocity=0 time=0.051540833333333334
EXTRACT: note_off channel=9 note=90 velocity=0 time=0
EXTRACT: note_off channel=9 note=40 velocity=0 time=0
EXTRACT: note_on channel=3 note=72 velocity=40 time=0.012885208333333334
EXTRACT: note_on channel=9 note=70 velocity=65 time=0
EXTRACT: note_on channel=10 note=65 velocity=115 time=0
EXTRACT: note_on channel=3 note=68 velocity=40 time=0.012885208333333334
EXTRACT: note_off channel=10 note=67 velocity=0 time=0
EXTRACT: note_on channel=3 note=65 velocity=40 time=0.012885208333333334
EXTRACT: note_on channel=3 note=60 velocity=40 time=0.012885208333333334
EXTRACT: note_off channel=3 note=72 velocity=0 time=0.025770416666666667
EXTRACT: note_off channel=9 note=70 velocity=0 time=0
EXTRACT: note_off channel=3 note=68 velocity=0 time=0.012885208333333334
EXTRACT: note_off channel=3 note=65 velocity=0 time=0.012885208333333334
EXTRACT: note_off channel=3 note=60 velocity=0 time=0.012885208333333334
EXTRACT: note_on channel=3 note=60 velocity=46 time=0.051540833333333334
EXTRACT: note_on channel=9 note=70 velocity=110 time=0
EXTRACT: note_on channel=2 note=29 velocity=125 time=0.012885208333333334
EXTRACT: note_on channel=3 note=65 velocity=46 time=0
EXTRACT: note_on channel=9 note=51 velocity=50 time=0
EXTRACT: note_on channel=3 note=68 velocity=46 time=0.012885208333333334
EXTRACT: note_on channel=3 note=72 velocity=46 time=0
EXTRACT: note_off channel=3 note=60 velocity=0 time=0.038655625
EXTRACT: note_off channel=9 note=51 velocity=0 time=0
EXTRACT: note_off channel=9 note=70 velocity=0 time=0
EXTRACT: note_off channel=10 note=65 velocity=0 time=0
EXTRACT: note_off channel=3 note=68 velocity=0 time=0.012885208333333334
EXTRACT: note_off channel=3 note=65 velocity=0 time=0
EXTRACT: note_off channel=3 note=72 velocity=0 time=0.012885208333333334
EXTRACT: note_on channel=3 note=72 velocity=77 time=0.06442604166666667
EXTRACT: note_on channel=9 note=70 velocity=64 time=0
EXTRACT: note_on channel=10 note=65 velocity=115 time=0
EXTRACT: note_on channel=3 note=68 velocity=77 time=0.012885208333333334
EXTRACT: note_on channel=9 note=36 velocity=110 time=0
EXTRACT: note_on channel=3 note=65 velocity=77 time=0.012885208333333334
EXTRACT: note_on channel=3 note=60 velocity=77 time=0
EXTRACT: note_off channel=3 note=72 velocity=0 time=0.038655625
EXTRACT: note_off channel=9 note=36 velocity=0 time=0
EXTRACT: note_off channel=9 note=70 velocity=0 time=0
EXTRACT: note_off channel=3 note=65 velocity=0 time=0.012885208333333334
EXTRACT: note_off channel=3 note=68 velocity=0 time=0
EXTRACT: note_off channel=3 note=60 velocity=0 time=0.012885208333333334
EXTRACT: note_off channel=2 note=29 velocity=0 time=0.025770416666666667
EXTRACT: note_off channel=4 note=60 velocity=0 time=0.038655625
EXTRACT: note_off channel=4 note=65 velocity=0 time=0
EXTRACT: note_on channel=4 note=65 velocity=91 time=0.012885208333333334
EXTRACT: note_on channel=4 note=62 velocity=80 time=0
EXTRACT: note_on channel=2 note=34 velocity=110 time=0.012885208333333334
EXTRACT: note_on channel=9 note=44 velocity=69 time=0
EXTRACT: note_on channel=9 note=70 velocity=40 time=0
EXTRACT: note_on channel=9 note=51 velocity=69 time=0
EXTRACT: note_off channel=9 note=51 velocity=0 time=0.038655625
EXTRACT: note_off channel=9 note=70 velocity=0 time=0
EXTRACT: note_off channel=9 note=44 velocity=0 time=0
EXTRACT: note_on channel=3 note=62 velocity=93 time=0.09019645833333334
EXTRACT: note_on channel=9 note=36 velocity=93 time=0
EXTRACT: note_on channel=9 note=70 velocity=56 time=0
EXTRACT: note_on channel=3 note=65 velocity=93 time=0.012885208333333334
EXTRACT: note_on channel=3 note=70 velocity=93 time=0
EXTRACT: note_on channel=3 note=74 velocity=93 time=0.012885208333333334
EXTRACT: note_off channel=3 note=62 velocity=0 time=0.038655625
EXTRACT: note_off channel=9 note=70 velocity=0 time=0
EXTRACT: note_off channel=9 note=36 velocity=0 time=0
EXTRACT: note_off channel=3 note=70 velocity=0 time=0.012885208333333334
EXTRACT: note_off channel=3 note=65 velocity=0 time=0
EXTRACT: note_off channel=3 note=74 velocity=0 time=0.012885208333333334
EXTRACT: note_on channel=3 note=74 velocity=44 time=0.06442604166666667
EXTRACT: note_on channel=9 note=36 velocity=123 time=0
EXTRACT: note_on channel=3 note=70 velocity=44 time=0.012885208333333334
EXTRACT: note_on channel=9 note=70 velocity=110 time=0
EXTRACT: note_on channel=9 note=51 velocity=52 time=0
EXTRACT: note_off channel=2 note=34 velocity=0 time=0.012885208333333334
EXTRACT: note_on channel=3 note=65 velocity=44 time=0
EXTRACT: note_on channel=3 note=62 velocity=44 time=0.012885208333333334
EXTRACT: note_off channel=3 note=74 velocity=0 time=0.025770416666666667
EXTRACT: note_off channel=9 note=51 velocity=0 time=0
EXTRACT: note_off channel=9 note=70 velocity=0 time=0
EXTRACT: note_off channel=9 note=36 velocity=0 time=0
EXTRACT: note_off channel=3 note=70 velocity=0 time=0.012885208333333334
EXTRACT: note_off channel=3 note=65 velocity=0 time=0.012885208333333334
EXTRACT: note_off channel=3 note=62 velocity=0 time=0.012885208333333334
EXTRACT: note_on channel=9 note=70 velocity=64 time=0.051540833333333334
EXTRACT: note_off channel=9 note=70 velocity=0 time=0.06442604166666667
EXTRACT: note_on channel=9 note=40 velocity=100 time=0.09019645833333334
EXTRACT: note_on channel=3 note=62 velocity=83 time=0.012885208333333334
EXTRACT: note_on channel=3 note=65 velocity=83 time=0
EXTRACT: note_on channel=9 note=90 velocity=127 time=0
EXTRACT: note_on channel=9 note=44 velocity=71 time=0
EXTRACT: note_on channel=9 note=70 velocity=40 time=0
EXTRACT: note_on channel=3 note=70 velocity=83 time=0.012885208333333334
EXTRACT: note_on channel=9 note=51 velocity=71 time=0
EXTRACT: note_on channel=3 note=74 velocity=83 time=0.012885208333333334
EXTRACT: note_off channel=3 note=65 velocity=0 time=0.025770416666666667
EXTRACT: note_off channel=3 note=62 velocity=0 time=0
EXTRACT: note_off channel=9 note=51 velocity=0 time=0
EXTRACT: note_off channel=9 note=70 velocity=0 time=0
EXTRACT: note_off channel=9 note=44 velocity=0 time=0
EXTRACT: note_off channel=3 note=70 velocity=0 time=0.012885208333333334
EXTRACT: note_off channel=3 note=74 velocity=0 time=0.025770416666666667
EXTRACT: note_off channel=9 note=90 velocity=0 time=0.038655625
EXTRACT: note_off channel=9 note=40 velocity=0 time=0
EXTRACT: note_off channel=10 note=65 velocity=0 time=0
EXTRACT: note_on channel=3 note=74 velocity=44 time=0.012885208333333334
EXTRACT: note_on channel=9 note=36 velocity=110 time=0
EXTRACT: note_on channel=9 note=70 velocity=65 time=0
EXTRACT: note_on channel=3 note=70 velocity=44 time=0.012885208333333334
EXTRACT: note_on channel=3 note=65 velocity=44 time=0.012885208333333334
EXTRACT: note_on channel=3 note=62 velocity=44 time=0
EXTRACT: note_off channel=3 note=74 velocity=0 time=0.038655625
EXTRACT: note_off channel=9 note=70 velocity=0 time=0
EXTRACT: note_off channel=9 note=36 velocity=0 time=0
EXTRACT: note_on channel=2 note=31 velocity=77 time=0.012885208333333334
EXTRACT: note_on channel=2 note=35 velocity=88 time=0
EXTRACT: note_off channel=3 note=70 velocity=0 time=0
EXTRACT: note_off channel=2 note=35 velocity=0 time=0.0016106510416666667
EXTRACT: note_off channel=2 note=31 velocity=0 time=0
EXTRACT: note_on channel=2 note=38 velocity=75 time=0.011274557291666668
EXTRACT: note_off channel=3 note=62 velocity=0 time=0
EXTRACT: note_off channel=3 note=65 velocity=0 time=0
EXTRACT: note_off channel=4 note=62 velocity=0 time=0.038655625
EXTRACT: note_off channel=4 note=65 velocity=0 time=0
EXTRACT: note_on channel=4 note=67 velocity=91 time=0
EXTRACT: note_on channel=4 note=62 velocity=80 time=0
EXTRACT: note_off channel=2 note=38 velocity=0 time=0.012885208333333334
EXTRACT: note_on channel=10 note=63 velocity=108 time=0
EXTRACT: note_on channel=9 note=70 velocity=107 time=0.012885208333333334
EXTRACT: note_on channel=9 note=51 velocity=54 time=0
EXTRACT: note_off channel=9 note=51 velocity=0 time=0.06442604166666667
EXTRACT: note_off channel=9 note=70 velocity=0 time=0
EXTRACT: note_on channel=10 note=65 velocity=115 time=0.07731125
EXTRACT: note_on channel=9 note=36 velocity=75 time=0.012885208333333334
EXTRACT: note_on channel=9 note=70 velocity=67 time=0
EXTRACT: note_off channel=10 note=63 velocity=0 time=0.012885208333333334
EXTRACT: note_off channel=9 note=70 velocity=0 time=0.051540833333333334
EXTRACT: note_off channel=9 note=36 velocity=0 time=0
EXTRACT: note_on channel=10 note=67 velocity=115 time=0.051540833333333334
EXTRACT: note_on channel=9 note=36 velocity=110 time=0.038655625
EXTRACT: note_on channel=9 note=44 velocity=69 time=0.012885208333333334
EXTRACT: note_on channel=9 note=70 velocity=40 time=0
EXTRACT: note_on channel=9 note=51 velocity=69 time=0
EXTRACT: note_off channel=10 note=65 velocity=0 time=0
EXTRACT: note_off channel=9 note=70 velocity=0 time=0.051540833333333334
EXTRACT: note_off channel=9 note=36 velocity=0 time=0
EXTRACT: control_change channel=9 control=7 value=106 time=0.051540833333333334
EXTRACT: control_change channel=9 control=7 value=0 time=0
EXTRACT: note_off channel=9 note=51 velocity=0 time=0.025770416666666667
EXTRACT: note_off channel=9 note=44 velocity=0 time=0
EXTRACT: note_on channel=9 note=70 velocity=65 time=0.012885208333333334
EXTRACT: note_off channel=9 note=70 velocity=0 time=0.06442604166666667
EXTRACT: note_on channel=10 note=63 velocity=92 time=0.06442604166666667
EXTRACT: note_on channel=9 note=70 velocity=113 time=0.025770416666666667
EXTRACT: note_on channel=9 note=51 velocity=50 time=0
EXTRACT: note_off channel=10 note=67 velocity=0 time=0
EXTRACT: note_off channel=9 note=51 velocity=0 time=0.06442604166666667
EXTRACT: note_off channel=9 note=70 velocity=0 time=0
EXTRACT: note_on channel=10 note=65 velocity=98 time=0.06442604166666667
EXTRACT: note_on channel=9 note=36 velocity=110 time=0.025770416666666667
EXTRACT: note_on channel=9 note=70 velocity=60 time=0
EXTRACT: note_off channel=10 note=63 velocity=0 time=0
EXTRACT: note_off channel=9 note=70 velocity=0 time=0.06442604166666667
EXTRACT: note_off channel=9 note=36 velocity=0 time=0
EXTRACT: note_on channel=10 note=67 velocity=115 time=0.06442604166666667
EXTRACT: note_on channel=9 note=40 velocity=100 time=0.025770416666666667
EXTRACT: note_on channel=3 note=62 velocity=110 time=0.012885208333333334
EXTRACT: note_on channel=9 note=90 velocity=127 time=0
EXTRACT: note_on channel=9 note=44 velocity=71 time=0
EXTRACT: note_on channel=9 note=70 velocity=40 time=0
EXTRACT: note_off channel=10 note=65 velocity=0 time=0
EXTRACT: note_on channel=3 note=67 velocity=110 time=0.012885208333333334
EXTRACT: note_on channel=9 note=51 velocity=71 time=0
EXTRACT: note_on channel=3 note=71 velocity=110 time=0.012885208333333334
EXTRACT: note_on channel=3 note=74 velocity=110 time=0
EXTRACT: note_off channel=3 note=62 velocity=0 time=0.025770416666666667
EXTRACT: note_off channel=9 note=51 velocity=0 time=0
EXTRACT: note_off channel=9 note=70 velocity=0 time=0
EXTRACT: note_off channel=9 note=44 velocity=0 time=0
EXTRACT: note_off channel=3 note=67 velocity=0 time=0.012885208333333334
EXTRACT: note_off channel=3 note=74 velocity=0 time=0.012885208333333334
EXTRACT: note_off channel=3 note=71 velocity=0 time=0
EXTRACT: note_off channel=9 note=90 velocity=0 time=0.051540833333333334
EXTRACT: note_off channel=9 note=40 velocity=0 time=0
EXTRACT: note_on channel=3 note=74 velocity=40 time=0.012885208333333334
EXTRACT: note_on channel=9 note=70 velocity=10 time=0
EXTRACT: note_on channel=3 note=71 velocity=40 time=0.012885208333333334
EXTRACT: note_on channel=3 note=67 velocity=40 time=0.012885208333333334
EXTRACT: note_on channel=3 note=62 velocity=40 time=0.012885208333333334
EXTRACT: note_off channel=3 note=74 velocity=0 time=0.025770416666666667
EXTRACT: note_off channel=9 note=70 velocity=0 time=0
EXTRACT: note_off channel=3 note=71 velocity=0 time=0.012885208333333334
EXTRACT: note_off channel=3 note=67 velocity=0 time=0.012885208333333334
EXTRACT: note_off channel=3 note=62 velocity=0 time=0.012885208333333334
EXTRACT: note_on channel=10 note=63 velocity=101 time=0.012885208333333334
EXTRACT: note_off channel=10 note=67 velocity=0 time=0.012885208333333334
EXTRACT: note_on channel=3 note=62 velocity=46 time=0.025770416666666667
EXTRACT: note_on channel=9 note=70 velocity=24 time=0
EXTRACT: note_on channel=3 note=67 velocity=46 time=0.012885208333333334
EXTRACT: note_on channel=3 note=71 velocity=46 time=0
EXTRACT: note_on channel=3 note=74 velocity=46 time=0.012885208333333334
EXTRACT: note_off channel=3 note=62 velocity=0 time=0.038655625
EXTRACT: note_off channel=9 note=70 velocity=0 time=0
EXTRACT: note_off channel=3 note=71 velocity=0 time=0.012885208333333334
EXTRACT: note_off channel=3 note=67 velocity=0 time=0
EXTRACT: note_off channel=3 note=74 velocity=0 time=0.012885208333333334
EXTRACT: note_on channel=10 note=65 velocity=92 time=0.051540833333333334
EXTRACT: note_on channel=3 note=74 velocity=77 time=0.012885208333333334
EXTRACT: note_on channel=9 note=36 velocity=110 time=0
EXTRACT: note_on channel=9 note=70 velocity=64 time=0
EXTRACT: note_on channel=3 note=71 velocity=77 time=0.012885208333333334
EXTRACT: note_on channel=3 note=67 velocity=77 time=0
EXTRACT: note_off channel=10 note=63 velocity=0 time=0
EXTRACT: note_on channel=3 note=62 velocity=77 time=0.012885208333333334
EXTRACT: note_off channel=3 note=74 velocity=0 time=0.038655625
EXTRACT: note_off channel=9 note=70 velocity=0 time=0
EXTRACT: note_off channel=9 note=36 velocity=0 time=0
EXTRACT: note_off channel=3 note=67 velocity=0 time=0.012885208333333334
EXTRACT: note_off channel=3 note=71 velocity=0 time=0
EXTRACT: control_change channel=9 control=7 value=106 time=0
EXTRACT: note_off channel=3 note=62 velocity=0 time=0.012885208333333334
EXTRACT: note_on channel=10 note=67 velocity=106 time=0.038655625
EXTRACT: note_on channel=9 note=40 velocity=100 time=0.025770416666666667
EXTRACT: note_on channel=9 note=90 velocity=125 time=0
EXTRACT: note_on channel=4 note=62 velocity=116 time=0.012885208333333334
EXTRACT: note_on channel=9 note=70 velocity=110 time=0
EXTRACT: note_on channel=9 note=44 velocity=40 time=0
EXTRACT: note_off channel=10 note=65 velocity=0 time=0
EXTRACT: note_off channel=4 note=62 velocity=0 time=0.051540833333333334
EXTRACT: note_off channel=9 note=44 velocity=0 time=0
EXTRACT: note_off channel=9 note=70 velocity=0 time=0
EXTRACT: note_off channel=9 note=90 velocity=0 time=0
EXTRACT: note_off channel=9 note=40 velocity=0 time=0
EXTRACT: note_on channel=3 note=62 velocity=93 time=0.09019645833333334
EXTRACT: note_on channel=9 note=70 velocity=10 time=0
EXTRACT: note_on channel=3 note=67 velocity=93 time=0.012885208333333334
EXTRACT: note_on channel=3 note=71 velocity=93 time=0
EXTRACT: note_on channel=3 note=74 velocity=93 time=0.012885208333333334
EXTRACT: note_off channel=3 note=62 velocity=0 time=0.038655625
EXTRACT: note_off channel=9 note=70 velocity=0 time=0
EXTRACT: note_off channel=3 note=71 velocity=0 time=0.012885208333333334
EXTRACT: note_off channel=3 note=67 velocity=0 time=0
EXTRACT: note_off channel=3 note=74 velocity=0 time=0.012885208333333334
EXTRACT: note_on channel=10 note=68 velocity=93 time=0.051540833333333334
EXTRACT: note_on channel=9 note=40 velocity=100 time=0.012885208333333334
EXTRACT: note_on channel=9 note=90 velocity=123 time=0
EXTRACT: note_on channel=9 note=70 velocity=24 time=0
EXTRACT: note_on channel=3 note=74 velocity=44 time=0.012885208333333334
EXTRACT: note_on channel=3 note=71 velocity=44 time=0
EXTRACT: note_off channel=10 note=67 velocity=0 time=0
EXTRACT: note_on channel=3 note=67 velocity=44 time=0.012885208333333334
EXTRACT: note_on channel=3 note=62 velocity=44 time=0.012885208333333334
EXTRACT: note_off channel=3 note=74 velocity=0 time=0.025770416666666667
EXTRACT: note_off channel=9 note=70 velocity=0 time=0
EXTRACT: note_off channel=9 note=90 velocity=0 time=0
EXTRACT: note_off channel=9 note=40 velocity=0 time=0
EXTRACT: note_off channel=3 note=71 velocity=0 time=0.012885208333333334
EXTRACT: note_off channel=3 note=67 velocity=0 time=0.012885208333333334
EXTRACT: note_off channel=3 note=62 velocity=0 time=0.012885208333333334
EXTRACT: note_on channel=4 note=62 velocity=113 time=0.051540833333333334
EXTRACT: note_on channel=9 note=36 velocity=110 time=0
EXTRACT: note_on channel=9 note=70 velocity=64 time=0
EXTRACT: note_on channel=10 note=67 velocity=125 time=0.012885208333333334
EXTRACT: note_off channel=10 note=68 velocity=0 time=0.012885208333333334
EXTRACT: note_off channel=4 note=62 velocity=0 time=0.025770416666666667
EXTRACT: note_off channel=9 note=70 velocity=0 time=0.012885208333333334
EXTRACT: note_off channel=9 note=36 velocity=0 time=0
EXTRACT: note_on channel=9 note=40 velocity=40 time=0.012885208333333334
EXTRACT: note_off channel=9 note=40 velocity=0 time=0.012885208333333334
EXTRACT: note_on channel=9 note=40 velocity=60 time=0.025770416666666667
EXTRACT: note_off channel=9 note=40 velocity=0 time=0.012885208333333334
EXTRACT: note_on channel=9 note=40 velocity=100 time=0.025770416666666667
EXTRACT: note_on channel=3 note=62 velocity=83 time=0.012885208333333334
EXTRACT: note_on channel=3 note=67 velocity=83 time=0
EXTRACT: note_on channel=9 note=90 velocity=127 time=0
EXTRACT: note_on channel=9 note=44 velocity=71 time=0
EXTRACT: note_on channel=9 note=70 velocity=110 time=0
EXTRACT: note_on channel=3 note=71 velocity=83 time=0.012885208333333334
EXTRACT: note_on channel=3 note=74 velocity=83 time=0.012885208333333334
EXTRACT: note_off channel=3 note=67 velocity=0 time=0.025770416666666667
EXTRACT: note_off channel=3 note=62 velocity=0 time=0
EXTRACT: note_off channel=9 note=70 velocity=0 time=0
EXTRACT: note_off channel=9 note=44 velocity=0 time=0
EXTRACT: note_off channel=3 note=71 velocity=0 time=0.012885208333333334
EXTRACT: note_off channel=3 note=74 velocity=0 time=0.025770416666666667
EXTRACT: note_off channel=9 note=90 velocity=0 time=0.038655625
EXTRACT: note_off channel=9 note=40 velocity=0 time=0
EXTRACT: note_on channel=3 note=74 velocity=44 time=0.012885208333333334
EXTRACT: note_on channel=9 note=47 velocity=110 time=0
EXTRACT: note_on channel=9 note=70 velocity=10 time=0
EXTRACT: note_on channel=3 note=71 velocity=44 time=0.012885208333333334
EXTRACT: note_on channel=10 note=65 velocity=106 time=0
EXTRACT: note_on channel=3 note=67 velocity=44 time=0.012885208333333334
EXTRACT: note_on channel=3 note=62 velocity=44 time=0
EXTRACT: note_off channel=10 note=67 velocity=0 time=0.012885208333333334
EXTRACT: note_off channel=3 note=74 velocity=0 time=0.025770416666666667
EXTRACT: note_off channel=9 note=70 velocity=0 time=0
EXTRACT: note_off channel=9 note=47 velocity=0 time=0
EXTRACT: note_off channel=3 note=71 velocity=0 time=0.012885208333333334
EXTRACT: note_off channel=3 note=62 velocity=0 time=0.012885208333333334
EXTRACT: note_off channel=3 note=67 velocity=0 time=0
EXTRACT: note_on channel=2 note=31 velocity=125 time=0.06442604166666667
EXTRACT: note_on channel=9 note=45 velocity=110 time=0
EXTRACT: note_on channel=9 note=70 velocity=22 time=0
EXTRACT: note_on channel=4 note=62 velocity=96 time=0.012885208333333334
EXTRACT: note_off channel=4 note=62 velocity=0 time=0.025770416666666667
EXTRACT: note_off channel=9 note=70 velocity=0 time=0.025770416666666667
EXTRACT: note_off channel=9 note=45 velocity=0 time=0
EXTRACT: note_on channel=4 note=62 velocity=81 time=0.09019645833333334
EXTRACT: note_on channel=9 note=36 velocity=91 time=0
EXTRACT: note_on channel=9 note=55 velocity=85 time=0
EXTRACT: note_on channel=9 note=70 velocity=67 time=0
EXTRACT: note_off channel=9 note=70 velocity=0 time=0.06442604166666667
EXTRACT: note_off channel=9 note=55 velocity=0 time=0
EXTRACT: note_off channel=9 note=36 velocity=0 time=0
EXTRACT: note_off channel=2 note=31 velocity=0 time=0.038655625
EXTRACT: note_off channel=4 note=62 velocity=0 time=0
EXTRACT: note_off channel=4 note=62 velocity=0 time=0
EXTRACT: note_off channel=4 note=67 velocity=0 time=0
EXTRACT: control_change channel=4 control=0 value=0 time=0
EXTRACT: control_change channel=4 control=0 value=0 time=0
EXTRACT: control_change channel=4 control=32 value=0 time=0
EXTRACT: control_change channel=4 control=0 value=0 time=0
EXTRACT: control_change channel=4 control=32 value=0 time=0
EXTRACT: program_change channel=4 program=89 time=0
EXTRACT: note_on channel=4 note=65 velocity=91 time=0.012885208333333334
EXTRACT: note_on channel=4 note=60 velocity=80 time=0
EXTRACT: note_off channel=4 note=60 velocity=0 time=0.0016106510416666667
EXTRACT: note_off channel=4 note=65 velocity=0 time=0
EXTRACT: control_change channel=4 control=0 value=0 time=0.024159765625
EXTRACT: control_change channel=4 control=0 value=0 time=0
EXTRACT: control_change channel=4 control=32 value=0 time=0
EXTRACT: control_change channel=4 control=0 value=0 time=0
EXTRACT: control_change channel=4 control=32 value=0 time=0
EXTRACT: program_change channel=4 program=50 time=0
EXTRACT: program_change channel=9 program=0 time=0.025770416666666667
EXTRACT: note_on channel=9 note=49 velocity=90 time=0
EXTRACT: program_change channel=9 program=32 time=0
EXTRACT: note_off channel=9 note=49 velocity=0 time=0.0016106510416666667
EXTRACT: note_on channel=4 note=60 velocity=127 time=0.011274557291666668
EXTRACT: note_on channel=4 note=65 velocity=127 time=0
EXTRACT: note_on channel=9 note=36 velocity=127 time=0
EXTRACT: note_on channel=9 note=44 velocity=69 time=0
EXTRACT: note_on channel=2 note=29 velocity=127 time=0.012885208333333334
EXTRACT: note_on channel=9 note=42 velocity=69 time=0
EXTRACT: note_on channel=9 note=70 velocity=40 time=0
EXTRACT: note_on channel=9 note=54 velocity=127 time=0
EXTRACT: control_change channel=3 control=64 value=127 time=0.012885208333333334
EXTRACT: note_on channel=3 note=60 velocity=81 time=0
EXTRACT: note_on channel=3 note=65 velocity=81 time=0
EXTRACT: note_off channel=3 note=60 velocity=0 time=0.012885208333333334
EXTRACT: note_on channel=3 note=68 velocity=81 time=0
EXTRACT: note_on channel=3 note=72 velocity=81 time=0
EXTRACT: note_off channel=9 note=54 velocity=0 time=0
EXTRACT: note_off channel=9 note=70 velocity=0 time=0
EXTRACT: note_off channel=3 note=65 velocity=0 time=0.012885208333333334
EXTRACT: note_off channel=3 note=72 velocity=0 time=0.012885208333333334
EXTRACT: note_off channel=3 note=68 velocity=0 time=0
EXTRACT: note_off channel=9 note=42 velocity=0 time=0.051540833333333334
EXTRACT: note_off channel=9 note=44 velocity=0 time=0
EXTRACT: note_off channel=9 note=36 velocity=0 time=0
EXTRACT: note_on channel=3 note=72 velocity=54 time=0.012885208333333334
EXTRACT: note_on channel=9 note=70 velocity=64 time=0
EXTRACT: note_on channel=9 note=54 velocity=71 time=0
EXTRACT: note_on channel=3 note=68 velocity=54 time=0.012885208333333334
EXTRACT: note_on channel=3 note=65 velocity=54 time=0.012885208333333334
EXTRACT: note_on channel=3 note=60 velocity=50 time=0.012885208333333334
EXTRACT: note_off channel=3 note=72 velocity=0 time=0.025770416666666667
EXTRACT: note_off channel=9 note=54 velocity=0 time=0
EXTRACT: note_off channel=9 note=70 velocity=0 time=0
EXTRACT: note_off channel=3 note=68 velocity=0 time=0.012885208333333334
EXTRACT: note_off channel=3 note=65 velocity=0 time=0.012885208333333334
EXTRACT: note_off channel=3 note=60 velocity=0 time=0.012885208333333334
EXTRACT: note_on channel=3 note=60 velocity=52 time=0.051540833333333334
EXTRACT: note_on channel=9 note=42 velocity=36 time=0
EXTRACT: note_on channel=9 note=70 velocity=113 time=0
EXTRACT: note_on channel=3 note=65 velocity=52 time=0.012885208333333334
EXTRACT: note_on channel=3 note=68 velocity=52 time=0
EXTRACT: note_on channel=9 note=54 velocity=117 time=0
EXTRACT: note_on channel=3 note=72 velocity=52 time=0.012885208333333334
EXTRACT: note_off channel=3 note=60 velocity=0 time=0.038655625
EXTRACT: note_off channel=9 note=54 velocity=0 time=0
EXTRACT: note_off channel=9 note=70 velocity=0 time=0
EXTRACT: note_off channel=9 note=42 velocity=0 time=0
EXTRACT: note_off channel=3 note=68 velocity=0 time=0.012885208333333334
EXTRACT: note_off channel=3 note=65 velocity=0 time=0
EXTRACT: note_off channel=3 note=72 velocity=0 time=0.012885208333333334
EXTRACT: note_off channel=2 note=29 velocity=0 time=0.038655625
EXTRACT: note_on channel=2 note=29 velocity=125 time=0.025770416666666667
EXTRACT: note_on channel=9 note=36 velocity=99 time=0
EXTRACT: note_on channel=9 note=70 velocity=60 time=0
EXTRACT: note_on channel=3 note=72 velocity=50 time=0.012885208333333334
EXTRACT: note_on channel=3 note=68 velocity=50 time=0
EXTRACT: note_on channel=9 note=54 velocity=69 time=0
EXTRACT: note_on channel=3 note=65 velocity=50 time=0.012885208333333334
EXTRACT: note_on channel=3 note=60 velocity=50 time=0
EXTRACT: control_change channel=3 control=64 value=0 time=0.012885208333333334
EXTRACT: note_off channel=3 note=72 velocity=0 time=0.025770416666666667
EXTRACT: note_off channel=9 note=54 velocity=0 time=0
EXTRACT: note_off channel=9 note=70 velocity=0 time=0
EXTRACT: note_off channel=9 note=36 velocity=0 time=0
EXTRACT: note_off channel=3 note=65 velocity=0 time=0.012885208333333334
EXTRACT: note_off channel=3 note=68 velocity=0 time=0
EXTRACT: note_off channel=3 note=60 velocity=0 time=0.012885208333333334
EXTRACT: control_change channel=3 control=64 value=127 time=0
EXTRACT: note_on channel=9 note=40 velocity=100 time=0.06442604166666667
EXTRACT: note_on channel=9 note=90 velocity=127 time=0.012885208333333334
EXTRACT: note_on channel=9 note=44 velocity=71 time=0
EXTRACT: note_on channel=9 note=42 velocity=71 time=0
EXTRACT: note_on channel=9 note=70 velocity=40 time=0
EXTRACT: note_on channel=9 note=54 velocity=127 time=0
EXTRACT: note_off channel=10 note=65 velocity=0 time=0
EXTRACT: note_on channel=3 note=60 velocity=75 time=0.012885208333333334
EXTRACT: note_on channel=10 note=60 velocity=106 time=0
EXTRACT: note_on channel=3 note=65 velocity=75 time=0.012885208333333334
EXTRACT: note_on channel=3 note=68 velocity=75 time=0
EXTRACT: note_on channel=3 note=72 velocity=75 time=0
EXTRACT: note_off channel=3 note=60 velocity=0 time=0.025770416666666667
EXTRACT: note_off channel=9 note=54 velocity=0 time=0
EXTRACT: note_off channel=9 note=70 velocity=0 time=0
EXTRACT: note_off channel=9 note=42 velocity=0 time=0
EXTRACT: note_off channel=9 note=44 velocity=0 time=0
EXTRACT: note_off channel=3 note=65 velocity=0 time=0.012885208333333334
EXTRACT: note_off channel=3 note=72 velocity=0 time=0.012885208333333334
EXTRACT: note_off channel=3 note=68 velocity=0 time=0
EXTRACT: note_off channel=10 note=60 velocity=0 time=0.012885208333333334
EXTRACT: note_off channel=2 note=29 velocity=0 time=0.038655625
EXTRACT: note_off channel=9 note=90 velocity=0 time=0
EXTRACT: note_off channel=9 note=40 velocity=0 time=0
EXTRACT: note_on channel=3 note=72 velocity=54 time=0.012885208333333334
EXTRACT: note_on channel=9 note=70 velocity=65 time=0
EXTRACT: note_on channel=9 note=54 velocity=64 time=0
EXTRACT: note_on channel=3 note=68 velocity=54 time=0.012885208333333334
EXTRACT: note_on channel=10 note=60 velocity=92 time=0
EXTRACT: note_on channel=3 note=65 velocity=54 time=0.012885208333333334
EXTRACT: note_on channel=3 note=60 velocity=54 time=0.012885208333333334
EXTRACT: note_off channel=3 note=72 velocity=0 time=0.025770416666666667
EXTRACT: note_off channel=9 note=54 velocity=0 time=0
EXTRACT: note_off channel=9 note=70 velocity=0 time=0
EXTRACT: note_off channel=3 note=68 velocity=0 time=0.012885208333333334
EXTRACT: note_off channel=3 note=65 velocity=0 time=0.012885208333333334
EXTRACT: note_off channel=10 note=60 velocity=0 time=0
EXTRACT: note_off channel=3 note=60 velocity=0 time=0.012885208333333334
EXTRACT: note_on channel=3 note=60 velocity=50 time=0.051540833333333334
EXTRACT: note_on channel=9 note=42 velocity=40 time=0
EXTRACT: note_on channel=9 note=70 velocity=110 time=0
EXTRACT: note_on channel=9 note=54 velocity=111 time=0.012885208333333334
EXTRACT: note_on channel=10 note=60 velocity=106 time=0
EXTRACT: note_on channel=3 note=65 velocity=50 time=0.012885208333333334
EXTRACT: note_on channel=3 note=68 velocity=50 time=0
EXTRACT: note_on channel=3 note=72 velocity=50 time=0
EXTRACT: note_off channel=3 note=60 velocity=0 time=0.038655625
EXTRACT: note_off channel=9 note=54 velocity=0 time=0
EXTRACT: note_off channel=9 note=70 velocity=0 time=0
EXTRACT: note_off channel=9 note=42 velocity=0 time=0
EXTRACT: note_off channel=3 note=68 velocity=0 time=0.012885208333333334
EXTRACT: note_off channel=3 note=65 velocity=0 time=0
EXTRACT: note_off channel=3 note=72 velocity=0 time=0.012885208333333334
EXTRACT: note_on channel=3 note=72 velocity=69 time=0.06442604166666667
EXTRACT: note_on channel=9 note=70 velocity=64 time=0
EXTRACT: note_on channel=9 note=54 velocity=58 time=0
EXTRACT: note_on channel=3 note=68 velocity=69 time=0.012885208333333334
EXTRACT: note_on channel=10 note=62 velocity=115 time=0
EXTRACT: note_on channel=3 note=65 velocity=69 time=0.012885208333333334
EXTRACT: note_on channel=3 note=60 velocity=69 time=0
EXTRACT: note_off channel=10 note=60 velocity=0 time=0
EXTRACT: control_change channel=3 control=64 value=0 time=0.012885208333333334
EXTRACT: note_off channel=3 note=72 velocity=0 time=0.025770416666666667
EXTRACT: note_off channel=9 note=54 velocity=0 time=0
EXTRACT: note_off channel=9 note=70 velocity=0 time=0
EXTRACT: note_off channel=10 note=62 velocity=0 time=0
EXTRACT: note_off channel=3 note=60 velocity=0 time=0.012885208333333334
EXTRACT: note_off channel=3 note=65 velocity=0 time=0
EXTRACT: note_off channel=3 note=68 velocity=0 time=0
EXTRACT: note_off channel=4 note=65 velocity=0 time=0
EXTRACT: note_off channel=4 note=60 velocity=0 time=0
EXTRACT: note_on channel=4 note=62 velocity=127 time=0.012885208333333334
EXTRACT: note_on channel=4 note=67 velocity=127 time=0
EXTRACT: control_change channel=3 control=64 value=127 time=0.012885208333333334
EXTRACT: note_on channel=9 note=42 velocity=69 time=0.051540833333333334
EXTRACT: note_on channel=2 note=31 velocity=110 time=0.012885208333333334
EXTRACT: note_on channel=9 note=44 velocity=69 time=0
EXTRACT: note_on channel=9 note=70 velocity=40 time=0
EXTRACT: note_on channel=9 note=54 velocity=127 time=0
EXTRACT: note_on channel=9 note=36 velocity=110 time=0
EXTRACT: note_on channel=10 note=62 velocity=121 time=0
EXTRACT: note_on channel=3 note=62 velocity=56 time=0.012885208333333334
EXTRACT: note_on channel=3 note=67 velocity=56 time=0
EXTRACT: note_on channel=3 note=71 velocity=56 time=0
EXTRACT: note_on channel=3 note=74 velocity=52 time=0.012885208333333334
EXTRACT: note_off channel=3 note=67 velocity=0 time=0.025770416666666667
EXTRACT: note_off channel=3 note=62 velocity=0 time=0
EXTRACT: note_off channel=9 note=36 velocity=0 time=0
EXTRACT: note_off channel=9 note=54 velocity=0 time=0
EXTRACT: note_off channel=9 note=70 velocity=0 time=0
EXTRACT: note_off channel=9 note=44 velocity=0 time=0
EXTRACT: note_off channel=9 note=42 velocity=0 time=0
EXTRACT: note_off channel=3 note=71 velocity=0 time=0.012885208333333334
EXTRACT: note_off channel=3 note=74 velocity=0 time=0.025770416666666667
EXTRACT: note_on channel=3 note=62 velocity=52 time=0.051540833333333334
EXTRACT: note_on channel=9 note=70 velocity=64 time=0
EXTRACT: note_on channel=9 note=54 velocity=56 time=0
EXTRACT: note_on channel=3 note=67 velocity=52 time=0.012885208333333334
EXTRACT: note_on channel=3 note=71 velocity=52 time=0
EXTRACT: note_on channel=3 note=74 velocity=52 time=0.012885208333333334
EXTRACT: note_off channel=3 note=62 velocity=0 time=0.038655625
EXTRACT: note_off channel=9 note=54 velocity=0 time=0
EXTRACT: note_off channel=9 note=70 velocity=0 time=0
EXTRACT: note_off channel=3 note=71 velocity=0 time=0.012885208333333334
EXTRACT: note_off channel=3 note=67 velocity=0 time=0
EXTRACT: note_off channel=3 note=74 velocity=0 time=0.012885208333333334
EXTRACT: note_on channel=3 note=74 velocity=52 time=0.06442604166666667
EXTRACT: note_on channel=9 note=42 velocity=38 time=0
EXTRACT: note_on channel=9 note=70 velocity=110 time=0
EXTRACT: note_on channel=3 note=71 velocity=52 time=0.012885208333333334
EXTRACT: note_on channel=9 note=54 velocity=99 time=0
EXTRACT: note_on channel=3 note=67 velocity=52 time=0.012885208333333334
EXTRACT: note_on channel=3 note=62 velocity=52 time=0.012885208333333334
EXTRACT: note_off channel=10 note=62 velocity=0 time=0.012885208333333334
EXTRACT: note_off channel=2 note=31 velocity=0 time=0.012885208333333334
EXTRACT: note_off channel=3 note=74 velocity=0 time=0
EXTRACT: note_off channel=9 note=54 velocity=0 time=0
EXTRACT: note_off channel=9 note=70 velocity=0 time=0
EXTRACT: note_off channel=9 note=42 velocity=0 time=0
EXTRACT: note_off channel=3 note=71 velocity=0 time=0.012885208333333334
EXTRACT: note_off channel=3 note=67 velocity=0 time=0.012885208333333334
EXTRACT: note_off channel=3 note=62 velocity=0 time=0.012885208333333334
EXTRACT: note_on channel=10 note=62 velocity=127 time=0.038655625
EXTRACT: note_on channel=2 note=31 velocity=125 time=0.012885208333333334
EXTRACT: note_on channel=9 note=70 velocity=64 time=0
EXTRACT: note_on channel=9 note=54 velocity=52 time=0
EXTRACT: note_on channel=3 note=74 velocity=54 time=0.012885208333333334
EXTRACT: note_on channel=3 note=71 velocity=54 time=0
EXTRACT: note_on channel=9 note=36 velocity=123 time=0
EXTRACT: note_on channel=3 note=67 velocity=54 time=0.012885208333333334
EXTRACT: note_on channel=3 note=62 velocity=54 time=0
EXTRACT: control_change channel=3 control=64 value=0 time=0.025770416666666667
EXTRACT: note_off channel=3 note=74 velocity=0 time=0.012885208333333334
EXTRACT: note_off channel=9 note=36 velocity=0 time=0
EXTRACT: note_off channel=9 note=54 velocity=0 time=0
EXTRACT: note_off channel=9 note=70 velocity=0 time=0
EXTRACT: note_off channel=3 note=71 velocity=0 time=0.012885208333333334
EXTRACT: note_off channel=3 note=62 velocity=0 time=0.012885208333333334
EXTRACT: note_off channel=3 note=67 velocity=0 time=0
EXTRACT: control_change channel=3 control=64 value=127 time=0.012885208333333334
EXTRACT: note_on channel=9 note=40 velocity=100 time=0.051540833333333334
EXTRACT: note_on channel=3 note=62 velocity=73 time=0.012885208333333334
EXTRACT: note_on channel=9 note=90 velocity=127 time=0
EXTRACT: note_on channel=9 note=44 velocity=71 time=0
EXTRACT: note_on channel=9 note=42 velocity=71 time=0
EXTRACT: note_on channel=9 note=70 velocity=40 time=0
EXTRACT: note_on channel=9 note=54 velocity=127 time=0
EXTRACT: note_on channel=3 note=67 velocity=73 time=0.012885208333333334
EXTRACT: note_on channel=3 note=71 velocity=73 time=0
EXTRACT: note_on channel=3 note=74 velocity=73 time=0.012885208333333334
EXTRACT: note_off channel=10 note=62 velocity=0 time=0
EXTRACT: note_off channel=3 note=62 velocity=0 time=0.025770416666666667
EXTRACT: note_off channel=9 note=54 velocity=0 time=0
EXTRACT: note_off channel=9 note=70 velocity=0 time=0
EXTRACT: note_off channel=9 note=42 velocity=0 time=0
EXTRACT: note_off channel=9 note=44 velocity=0 time=0
EXTRACT: note_off channel=3 note=67 velocity=0 time=0.012885208333333334
EXTRACT: note_off channel=3 note=74 velocity=0 time=0.012885208333333334
EXTRACT: note_off channel=3 note=71 velocity=0 time=0
EXTRACT: note_on channel=10 note=62 velocity=92 time=0.025770416666666667
EXTRACT: note_off channel=9 note=90 velocity=0 time=0.025770416666666667
EXTRACT: note_off channel=9 note=40 velocity=0 time=0
EXTRACT: note_on channel=3 note=74 velocity=50 time=0.012885208333333334
EXTRACT: note_on channel=9 note=70 velocity=60 time=0
EXTRACT: note_on channel=9 note=54 velocity=64 time=0
EXTRACT: note_on channel=3 note=71 velocity=50 time=0.012885208333333334
EXTRACT: note_on channel=10 note=63 velocity=101 time=0
EXTRACT: note_on channel=3 note=67 velocity=50 time=0.012885208333333334
EXTRACT: note_on channel=3 note=62 velocity=52 time=0.012885208333333334
EXTRACT: note_off channel=10 note=62 velocity=0 time=0.012885208333333334
EXTRACT: note_off channel=3 note=74 velocity=0 time=0.012885208333333334
EXTRACT: note_off channel=9 note=54 velocity=0 time=0
EXTRACT: note_off channel=9 note=70 velocity=0 time=0
EXTRACT: note_off channel=3 note=71 velocity=0 time=0.012885208333333334
EXTRACT: note_off channel=3 note=67 velocity=0 time=0.012885208333333334
EXTRACT: note_off channel=2 note=31 velocity=0 time=0.012885208333333334
EXTRACT: note_off channel=3 note=62 velocity=0 time=0
EXTRACT: note_on channel=2 note=31 velocity=125 time=0.051540833333333334
EXTRACT: note_on channel=9 note=42 velocity=42 time=0
EXTRACT: note_on channel=9 note=70 velocity=107 time=0
EXTRACT: note_on channel=3 note=62 velocity=52 time=0.012885208333333334
EXTRACT: note_on channel=9 note=36 velocity=119 time=0
EXTRACT: note_on channel=9 note=54 velocity=101 time=0
EXTRACT: note_on channel=3 note=67 velocity=52 time=0.012885208333333334
EXTRACT: note_on channel=3 note=71 velocity=52 time=0
EXTRACT: note_on channel=3 note=74 velocity=52 time=0
EXTRACT: note_off channel=3 note=62 velocity=0 time=0.038655625
EXTRACT: note_off channel=9 note=54 velocity=0 time=0
EXTRACT: note_off channel=9 note=36 velocity=0 time=0
EXTRACT: note_off channel=9 note=70 velocity=0 time=0
EXTRACT: note_off channel=9 note=42 velocity=0 time=0
EXTRACT: note_off channel=10 note=63 velocity=0 time=0
EXTRACT: note_off channel=3 note=71 velocity=0 time=0.012885208333333334
EXTRACT: note_off channel=3 note=67 velocity=0 time=0
EXTRACT: note_off channel=3 note=74 velocity=0 time=0.012885208333333334
EXTRACT: note_on channel=3 note=74 velocity=52 time=0.06442604166666667
EXTRACT: note_on channel=9 note=70 velocity=67 time=0
EXTRACT: note_on channel=9 note=54 velocity=58 time=0
EXTRACT: note_on channel=3 note=71 velocity=52 time=0.012885208333333334
EXTRACT: note_on channel=3 note=67 velocity=52 time=0
EXTRACT: note_on channel=10 note=63 velocity=110 time=0
EXTRACT: note_on channel=3 note=62 velocity=52 time=0.012885208333333334
EXTRACT: control_change channel=3 control=64 value=0 time=0.025770416666666667
EXTRACT: note_off channel=3 note=74 velocity=0 time=0.012885208333333334
EXTRACT: note_off channel=9 note=54 velocity=0 time=0
EXTRACT: note_off channel=9 note=70 velocity=0 time=0
EXTRACT: note_off channel=3 note=67 velocity=0 time=0.012885208333333334
EXTRACT: note_off channel=3 note=71 velocity=0 time=0
EXTRACT: note_off channel=3 note=62 velocity=0 time=0.012885208333333334
EXTRACT: control_change channel=3 control=64 value=127 time=0
EXTRACT: note_off channel=2 note=31 velocity=0 time=0.025770416666666667
EXTRACT: control_change channel=3 control=64 value=0 time=0.012885208333333334
EXTRACT: note_off channel=4 note=67 velocity=0 time=0
EXTRACT: note_off channel=4 note=62 velocity=0 time=0
EXTRACT: note_on channel=4 note=60 velocity=127 time=0
EXTRACT: note_on channel=4 note=63 velocity=127 time=0
EXTRACT: control_change channel=3 control=64 value=127 time=0.012885208333333334
EXTRACT: note_on channel=9 note=42 velocity=69 time=0.012885208333333334
EXTRACT: note_on channel=2 note=36 velocity=121 time=0.012885208333333334
EXTRACT: control_change channel=3 control=64 value=127 time=0
EXTRACT: note_on channel=9 note=44 velocity=69 time=0
EXTRACT: note_on channel=9 note=70 velocity=40 time=0
EXTRACT: note_on channel=9 note=54 velocity=127 time=0
EXTRACT: note_on channel=9 note=36 velocity=125 time=0
EXTRACT: note_on channel=3 note=60 velocity=81 time=0.012885208333333334
EXTRACT: note_on channel=3 note=63 velocity=81 time=0
EXTRACT: note_on channel=3 note=67 velocity=81 time=0.012885208333333334
EXTRACT: note_on channel=3 note=72 velocity=81 time=0
EXTRACT: note_off channel=3 note=60 velocity=0 time=0.025770416666666667
EXTRACT: note_off channel=9 note=36 velocity=0 time=0
EXTRACT: note_off channel=9 note=54 velocity=0 time=0
EXTRACT: note_off channel=9 note=70 velocity=0 time=0
EXTRACT: note_off channel=3 note=63 velocity=0 time=0.012885208333333334
EXTRACT: note_off channel=3 note=72 velocity=0 time=0.012885208333333334
EXTRACT: note_off channel=3 note=67 velocity=0 time=0
EXTRACT: note_off channel=9 note=44 velocity=0 time=0.051540833333333334
EXTRACT: note_off channel=9 note=42 velocity=0 time=0
EXTRACT: note_on channel=3 note=72 velocity=54 time=0.012885208333333334
EXTRACT: note_on channel=9 note=70 velocity=64 time=0
EXTRACT: note_on channel=9 note=54 velocity=71 time=0
EXTRACT: note_on channel=3 note=67 velocity=54 time=0.012885208333333334
EXTRACT: note_on channel=3 note=63 velocity=54 time=0.012885208333333334
EXTRACT: note_on channel=3 note=60 velocity=50 time=0.012885208333333334
EXTRACT: note_off channel=3 note=72 velocity=0 time=0.025770416666666667
EXTRACT: note_off channel=9 note=54 velocity=0 time=0
EXTRACT: note_off channel=9 note=70 velocity=0 time=0
EXTRACT: note_off channel=3 note=67 velocity=0 time=0.012885208333333334
EXTRACT: note_off channel=3 note=63 velocity=0 time=0.012885208333333334
EXTRACT: note_off channel=3 note=60 velocity=0 time=0.012885208333333334
EXTRACT: note_on channel=3 note=60 velocity=52 time=0.051540833333333334
EXTRACT: note_on channel=9 note=42 velocity=36 time=0
EXTRACT: note_on channel=9 note=70 velocity=113 time=0
EXTRACT: note_on channel=3 note=63 velocity=52 time=0.012885208333333334
EXTRACT: note_on channel=3 note=67 velocity=52 time=0
EXTRACT: note_on channel=9 note=54 velocity=117 time=0
EXTRACT: note_on channel=3 note=72 velocity=52 time=0.012885208333333334
EXTRACT: note_off channel=3 note=60 velocity=0 time=0.038655625
EXTRACT: note_off channel=9 note=54 velocity=0 time=0
EXTRACT: note_off channel=9 note=70 velocity=0 time=0
EXTRACT: note_off channel=9 note=42 velocity=0 time=0
EXTRACT: note_off channel=3 note=67 velocity=0 time=0.012885208333333334
EXTRACT: note_off channel=3 note=63 velocity=0 time=0
EXTRACT: note_off channel=3 note=72 velocity=0 time=0.012885208333333334
EXTRACT: control_change channel=10 control=0 value=0 time=0.012885208333333334
EXTRACT: control_change channel=10 control=0 value=0 time=0
EXTRACT: control_change channel=10 control=32 value=0 time=0
EXTRACT: control_change channel=10 control=0 value=0 time=0
EXTRACT: control_change channel=10 control=32 value=0 time=0
EXTRACT: program_change channel=10 program=80 time=0
EXTRACT: control_change channel=10 control=93 value=0 time=0
EXTRACT: note_off channel=2 note=36 velocity=0 time=0.025770416666666667
EXTRACT: note_on channel=2 note=36 velocity=125 time=0.025770416666666667
EXTRACT: note_on channel=9 note=36 velocity=110 time=0
EXTRACT: note_on channel=9 note=70 velocity=60 time=0
EXTRACT: note_on channel=3 note=72 velocity=50 time=0.012885208333333334
EXTRACT: note_on channel=3 note=67 velocity=50 time=0
EXTRACT: note_on channel=9 note=54 velocity=69 time=0
EXTRACT: note_on channel=3 note=63 velocity=50 time=0.012885208333333334
EXTRACT: note_on channel=3 note=60 velocity=50 time=0
EXTRACT: note_off channel=10 note=63 velocity=0 time=0
EXTRACT: control_change channel=3 control=64 value=0 time=0.012885208333333334
EXTRACT: note_off channel=3 note=72 velocity=0 time=0.025770416666666667
EXTRACT: note_off channel=9 note=54 velocity=0 time=0
EXTRACT: note_off channel=9 note=70 velocity=0 time=0
EXTRACT: note_off channel=9 note=36 velocity=0 time=0
EXTRACT: note_off channel=3 note=63 velocity=0 time=0.012885208333333334
EXTRACT: note_off channel=3 note=67 velocity=0 time=0
EXTRACT: note_off channel=3 note=60 velocity=0 time=0.012885208333333334
EXTRACT: control_change channel=3 control=64 value=127 time=0
EXTRACT: note_on channel=9 note=40 velocity=100 time=0.06442604166666667
EXTRACT: note_on channel=9 note=90 velocity=127 time=0.012885208333333334
EXTRACT: note_on channel=9 note=44 velocity=71 time=0
EXTRACT: note_on channel=9 note=42 velocity=71 time=0
EXTRACT: note_on channel=9 note=70 velocity=40 time=0
EXTRACT: note_on channel=10 note=63 velocity=110 time=0
EXTRACT: note_on channel=3 note=60 velocity=75 time=0.012885208333333334
EXTRACT: note_on channel=3 note=63 velocity=75 time=0
EXTRACT: note_on channel=9 note=54 velocity=127 time=0
EXTRACT: note_on channel=3 note=67 velocity=75 time=0.012885208333333334
EXTRACT: note_on channel=3 note=72 velocity=75 time=0
EXTRACT: note_off channel=3 note=60 velocity=0 time=0.025770416666666667
EXTRACT: note_off channel=9 note=54 velocity=0 time=0
EXTRACT: note_off channel=9 note=70 velocity=0 time=0
EXTRACT: note_off channel=9 note=42 velocity=0 time=0
EXTRACT: note_off channel=9 note=44 velocity=0 time=0
EXTRACT: note_off channel=3 note=63 velocity=0 time=0.012885208333333334
EXTRACT: note_off channel=3 note=72 velocity=0 time=0.012885208333333334
EXTRACT: note_off channel=3 note=67 velocity=0 time=0
EXTRACT: note_off channel=2 note=36 velocity=0 time=0.051540833333333334
EXTRACT: note_off channel=9 note=90 velocity=0 time=0
EXTRACT: note_off channel=9 note=40 velocity=0 time=0
EXTRACT: note_on channel=3 note=72 velocity=54 time=0.012885208333333334
EXTRACT: note_on channel=9 note=70 velocity=64 time=0
EXTRACT: note_on channel=9 note=54 velocity=64 time=0
EXTRACT: note_on channel=3 note=67 velocity=54 time=0.012885208333333334
EXTRACT: note_off channel=10 note=63 velocity=0 time=0
EXTRACT: note_on channel=3 note=63 velocity=54 time=0.012885208333333334
EXTRACT: note_on channel=3 note=60 velocity=54 time=0.012885208333333334
EXTRACT: note_off channel=3 note=72 velocity=0 time=0.025770416666666667
EXTRACT: note_off channel=9 note=54 velocity=0 time=0
EXTRACT: note_off channel=9 note=70 velocity=0 time=0
EXTRACT: note_off channel=3 note=67 velocity=0 time=0.012885208333333334
EXTRACT: note_off channel=3 note=63 velocity=0 time=0.012885208333333334
EXTRACT: note_off channel=3 note=60 velocity=0 time=0.012885208333333334
EXTRACT: note_on channel=3 note=60 velocity=50 time=0.051540833333333334
EXTRACT: note_on channel=9 note=42 velocity=40 time=0
EXTRACT: note_on channel=9 note=70 velocity=110 time=0
EXTRACT: note_on channel=3 note=63 velocity=50 time=0.012885208333333334
EXTRACT: note_on channel=9 note=54 velocity=111 time=0
EXTRACT: note_on channel=3 note=67 velocity=50 time=0.012885208333333334
EXTRACT: note_on channel=3 note=72 velocity=50 time=0
EXTRACT: note_on channel=10 note=63 velocity=101 time=0
EXTRACT: note_off channel=3 note=60 velocity=0 time=0.038655625
EXTRACT: note_off channel=9 note=54 velocity=0 time=0
EXTRACT: note_off channel=9 note=70 velocity=0 time=0
EXTRACT: note_off channel=9 note=42 velocity=0 time=0
EXTRACT: note_off channel=3 note=67 velocity=0 time=0.012885208333333334
EXTRACT: note_off channel=3 note=63 velocity=0 time=0
EXTRACT: note_off channel=3 note=72 velocity=0 time=0.012885208333333334
EXTRACT: note_on channel=3 note=72 velocity=69 time=0.06442604166666667
EXTRACT: note_on channel=9 note=70 velocity=64 time=0
EXTRACT: note_on channel=9 note=54 velocity=58 time=0
EXTRACT: note_on channel=3 note=67 velocity=69 time=0.012885208333333334
EXTRACT: note_on channel=3 note=63 velocity=69 time=0
EXTRACT: note_on channel=3 note=60 velocity=69 time=0.012885208333333334
EXTRACT: control_change channel=3 control=64 value=0 time=0.012885208333333334
EXTRACT: note_off channel=3 note=72 velocity=0 time=0.025770416666666667
EXTRACT: note_off channel=9 note=54 velocity=0 time=0
EXTRACT: note_off channel=9 note=70 velocity=0 time=0
EXTRACT: note_off channel=3 note=63 velocity=0 time=0.012885208333333334
EXTRACT: note_off channel=3 note=67 velocity=0 time=0
EXTRACT: note_off channel=3 note=60 velocity=0 time=0.012885208333333334
EXTRACT: control_change channel=3 control=64 value=127 time=0
EXTRACT: note_off channel=10 note=63 velocity=0 time=0.051540833333333334
EXTRACT: note_on channel=9 note=42 velocity=69 time=0.012885208333333334
EXTRACT: note_on channel=2 note=36 velocity=110 time=0.012885208333333334
EXTRACT: note_on channel=9 note=44 velocity=69 time=0
EXTRACT: note_on channel=9 note=36 velocity=110 time=0
EXTRACT: note_on channel=9 note=70 velocity=40 time=0
EXTRACT: note_on channel=9 note=54 velocity=127 time=0
EXTRACT: note_on channel=10 note=65 velocity=106 time=0
EXTRACT: note_on channel=3 note=60 velocity=56 time=0.012885208333333334
EXTRACT: note_on channel=3 note=63 velocity=56 time=0
EXTRACT: note_on channel=3 note=67 velocity=56 time=0
EXTRACT: note_on channel=3 note=72 velocity=52 time=0.012885208333333334
EXTRACT: note_off channel=3 note=63 velocity=0 time=0.025770416666666667
EXTRACT: note_off channel=3 note=60 velocity=0 time=0
EXTRACT: note_off channel=9 note=54 velocity=0 time=0
EXTRACT: note_off channel=9 note=70 velocity=0 time=0
EXTRACT: note_off channel=9 note=36 velocity=0 time=0
EXTRACT: note_off channel=9 note=44 velocity=0 time=0
EXTRACT: note_off channel=9 note=42 velocity=0 time=0
EXTRACT: note_off channel=3 note=67 velocity=0 time=0.012885208333333334
EXTRACT: note_off channel=3 note=72 velocity=0 time=0.025770416666666667
EXTRACT: note_off channel=10 note=65 velocity=0 time=0.025770416666666667
EXTRACT: note_on channel=3 note=60 velocity=52 time=0.025770416666666667
EXTRACT: note_on channel=9 note=70 velocity=64 time=0
EXTRACT: note_on channel=9 note=54 velocity=56 time=0
EXTRACT: note_on channel=3 note=63 velocity=52 time=0.012885208333333334
EXTRACT: note_on channel=3 note=67 velocity=52 time=0
EXTRACT: note_on channel=3 note=72 velocity=52 time=0.012885208333333334
EXTRACT: note_off channel=3 note=60 velocity=0 time=0.038655625
EXTRACT: note_off channel=9 note=54 velocity=0 time=0
EXTRACT: note_off channel=9 note=70 velocity=0 time=0
EXTRACT: note_off channel=3 note=67 velocity=0 time=0.012885208333333334
EXTRACT: note_off channel=3 note=63 velocity=0 time=0
EXTRACT: note_off channel=3 note=72 velocity=0 time=0.012885208333333334
EXTRACT: note_on channel=10 note=65 velocity=98 time=0.051540833333333334
EXTRACT: note_on channel=9 note=36 velocity=110 time=0.012885208333333334
EXTRACT: note_on channel=9 note=42 velocity=38 time=0
EXTRACT: note_on channel=3 note=72 velocity=52 time=0.012885208333333334
EXTRACT: note_on channel=9 note=70 velocity=110 time=0
EXTRACT: note_on channel=9 note=54 velocity=99 time=0
EXTRACT: note_on channel=3 note=67 velocity=52 time=0.012885208333333334
EXTRACT: note_on channel=3 note=63 velocity=52 time=0
EXTRACT: note_on channel=3 note=60 velocity=52 time=0.012885208333333334
EXTRACT: note_off channel=3 note=72 velocity=0 time=0.025770416666666667
EXTRACT: note_off channel=9 note=54 velocity=0 time=0
EXTRACT: note_off channel=9 note=70 velocity=0 time=0
EXTRACT: note_off channel=9 note=42 velocity=0 time=0
EXTRACT: note_off channel=9 note=36 velocity=0 time=0
EXTRACT: note_off channel=3 note=67 velocity=0 time=0.012885208333333334
EXTRACT: note_off channel=3 note=63 velocity=0 time=0.012885208333333334
EXTRACT: note_off channel=3 note=60 velocity=0 time=0.012885208333333334
EXTRACT: note_off channel=2 note=36 velocity=0 time=0.038655625
EXTRACT: note_on channel=2 note=31 velocity=110 time=0.012885208333333334
EXTRACT: note_on channel=9 note=70 velocity=64 time=0
EXTRACT: note_on channel=10 note=63 velocity=101 time=0
EXTRACT: note_on channel=3 note=72 velocity=54 time=0.012885208333333334
EXTRACT: note_on channel=3 note=67 velocity=54 time=0
EXTRACT: note_on channel=9 note=54 velocity=52 time=0
EXTRACT: note_on channel=3 note=63 velocity=54 time=0.012885208333333334
EXTRACT: note_on channel=3 note=60 velocity=54 time=0
EXTRACT: note_off channel=10 note=65 velocity=0 time=0
EXTRACT: control_change channel=3 control=64 value=0 time=0.025770416666666667
EXTRACT: note_off channel=3 note=72 velocity=0 time=0.012885208333333334
EXTRACT: note_off channel=9 note=54 velocity=0 time=0
EXTRACT: note_off channel=9 note=70 velocity=0 time=0
EXTRACT: note_off channel=3 note=67 velocity=0 time=0.012885208333333334
EXTRACT: note_off channel=3 note=60 velocity=0 time=0.012885208333333334
EXTRACT: note_off channel=3 note=63 velocity=0 time=0
EXTRACT: control_change channel=3 control=64 value=127 time=0.012885208333333334
EXTRACT: note_off channel=2 note=31 velocity=0 time=0.038655625
EXTRACT: note_on channel=9 note=40 velocity=100 time=0.012885208333333334
EXTRACT: note_on channel=2 note=34 velocity=110 time=0.012885208333333334
EXTRACT: note_on channel=9 note=90 velocity=127 time=0
EXTRACT: note_on channel=9 note=44 velocity=71 time=0
EXTRACT: note_on channel=9 note=42 velocity=71 time=0
EXTRACT: note_on channel=9 note=70 velocity=40 time=0
EXTRACT: note_on channel=3 note=60 velocity=73 time=0.012885208333333334
EXTRACT: note_on channel=3 note=63 velocity=73 time=0
EXTRACT: note_on channel=9 note=54 velocity=127 time=0
EXTRACT: note_on channel=3 note=67 velocity=73 time=0.012885208333333334
EXTRACT: note_on channel=3 note=72 velocity=73 time=0
EXTRACT: note_off channel=10 note=63 velocity=0 time=0.012885208333333334
EXTRACT: note_off channel=3 note=60 velocity=0 time=0.012885208333333334
EXTRACT: note_off channel=9 note=54 velocity=0 time=0
EXTRACT: note_off channel=9 note=70 velocity=0 time=0
EXTRACT: note_off channel=9 note=42 velocity=0 time=0
EXTRACT: note_off channel=9 note=44 velocity=0 time=0
EXTRACT: note_off channel=3 note=63 velocity=0 time=0.012885208333333334
EXTRACT: note_off channel=3 note=72 velocity=0 time=0.012885208333333334
EXTRACT: note_off channel=3 note=67 velocity=0 time=0
EXTRACT: note_off channel=2 note=34 velocity=0 time=0.051540833333333334
EXTRACT: note_off channel=9 note=90 velocity=0 time=0
EXTRACT: note_off channel=9 note=40 velocity=0 time=0
EXTRACT: note_on channel=2 note=36 velocity=110 time=0.012885208333333334
EXTRACT: note_on channel=9 note=70 velocity=73 time=0
EXTRACT: note_on channel=3 note=72 velocity=50 time=0.012885208333333334
EXTRACT: note_on channel=9 note=54 velocity=64 time=0
EXTRACT: note_on channel=10 note=62 velocity=115 time=0
EXTRACT: note_on channel=3 note=67 velocity=50 time=0.012885208333333334
EXTRACT: note_on channel=3 note=63 velocity=50 time=0
EXTRACT: note_on channel=3 note=60 velocity=52 time=0.012885208333333334
EXTRACT: note_off channel=3 note=72 velocity=0 time=0.025770416666666667
EXTRACT: note_off channel=9 note=54 velocity=0 time=0
EXTRACT: note_off channel=9 note=70 velocity=0 time=0
EXTRACT: note_off channel=3 note=67 velocity=0 time=0.012885208333333334
EXTRACT: note_off channel=3 note=63 velocity=0 time=0.012885208333333334
EXTRACT: note_off channel=3 note=60 velocity=0 time=0.012885208333333334
EXTRACT: note_on channel=3 note=60 velocity=52 time=0.051540833333333334
EXTRACT: note_on channel=9 note=42 velocity=42 time=0
EXTRACT: note_on channel=9 note=70 velocity=107 time=0
EXTRACT: note_on channel=3 note=63 velocity=52 time=0.012885208333333334
EXTRACT: note_on channel=3 note=67 velocity=52 time=0
EXTRACT: note_on channel=9 note=54 velocity=101 time=0
EXTRACT: note_on channel=3 note=72 velocity=52 time=0.012885208333333334
EXTRACT: note_off channel=3 note=60 velocity=0 time=0.038655625
EXTRACT: note_off channel=9 note=54 velocity=0 time=0
EXTRACT: note_off channel=9 note=70 velocity=0 time=0
EXTRACT: note_off channel=9 note=42 velocity=0 time=0
EXTRACT: note_off channel=3 note=67 velocity=0 time=0.012885208333333334
EXTRACT: note_off channel=3 note=63 velocity=0 time=0
EXTRACT: note_off channel=3 note=72 velocity=0 time=0.012885208333333334
EXTRACT: note_off channel=10 note=62 velocity=0 time=0.051540833333333334
EXTRACT: note_on channel=3 note=72 velocity=52 time=0.012885208333333334
EXTRACT: note_on channel=9 note=70 velocity=67 time=0
EXTRACT: note_on channel=3 note=67 velocity=52 time=0.012885208333333334
EXTRACT: note_on channel=3 note=63 velocity=52 time=0
EXTRACT: note_on channel=9 note=54 velocity=58 time=0
EXTRACT: note_on channel=3 note=60 velocity=52 time=0.012885208333333334
EXTRACT: note_on channel=10 note=60 velocity=115 time=0
EXTRACT: control_change channel=3 control=64 value=0 time=0.025770416666666667
EXTRACT: note_off channel=3 note=72 velocity=0 time=0.012885208333333334
EXTRACT: note_off channel=9 note=54 velocity=0 time=0
EXTRACT: note_off channel=9 note=70 velocity=0 time=0
EXTRACT: note_off channel=3 note=63 velocity=0 time=0.012885208333333334
EXTRACT: note_off channel=3 note=67 velocity=0 time=0
EXTRACT: note_off channel=3 note=60 velocity=0 time=0.012885208333333334
EXTRACT: control_change channel=3 control=64 value=127 time=0
EXTRACT: note_off channel=2 note=36 velocity=0 time=0.051540833333333334
EXTRACT: control_change channel=3 control=64 value=0 time=0
EXTRACT: note_off channel=4 note=63 velocity=0 time=0
EXTRACT: note_off channel=4 note=60 velocity=0 time=0
EXTRACT: note_on channel=4 note=60 velocity=127 time=0
EXTRACT: note_on channel=4 note=65 velocity=127 time=0.012885208333333334
EXTRACT: control_change channel=3 control=64 value=127 time=0.012885208333333334
EXTRACT: note_on channel=9 note=36 velocity=127 time=0
EXTRACT: note_on channel=2 note=29 velocity=127 time=0.012885208333333334
EXTRACT: control_change channel=3 control=64 value=127 time=0
EXTRACT: note_on channel=9 note=44 velocity=69 time=0
EXTRACT: note_on channel=9 note=42 velocity=69 time=0
EXTRACT: note_on channel=9 note=70 velocity=40 time=0
EXTRACT: note_on channel=9 note=54 velocity=127 time=0
EXTRACT: note_on channel=3 note=60 velocity=81 time=0.012885208333333334
EXTRACT: note_on channel=3 note=65 velocity=81 time=0
EXTRACT: control_change channel=3 control=64 value=0 time=0
EXTRACT: note_off channel=2 note=29 velocity=0 time=0.012885208333333334
EXTRACT: note_off channel=3 note=65 velocity=0 time=0
EXTRACT: note_off channel=3 note=60 velocity=0 time=0
EXTRACT: note_off channel=4 note=65 velocity=0 time=0
EXTRACT: note_off channel=4 note=60 velocity=0 time=0
EXTRACT: note_on channel=2 note=29 velocity=127 time=0.012885208333333334
EXTRACT: control_change channel=3 control=64 value=127 time=0
EXTRACT: note_on channel=4 note=60 velocity=127 time=0
EXTRACT: note_on channel=4 note=65 velocity=127 time=0
EXTRACT: note_on channel=3 note=68 velocity=81 time=0.012885208333333334
EXTRACT: note_on channel=3 note=72 velocity=81 time=0
EXTRACT: note_off channel=9 note=54 velocity=0 time=0
EXTRACT: note_off channel=9 note=70 velocity=0 time=0
EXTRACT: note_off channel=3 note=72 velocity=0 time=0.012885208333333334
EXTRACT: note_off channel=3 note=68 velocity=0 time=0
EXTRACT: note_off channel=9 note=42 velocity=0 time=0.051540833333333334
EXTRACT: note_off channel=9 note=44 velocity=0 time=0
EXTRACT: note_off channel=9 note=36 velocity=0 time=0
EXTRACT: note_on channel=3 note=72 velocity=54 time=0.012885208333333334
EXTRACT: note_on channel=9 note=70 velocity=69 time=0
EXTRACT: note_off channel=10 note=60 velocity=0 time=0
EXTRACT: note_on channel=3 note=68 velocity=54 time=0.012885208333333334
EXTRACT: note_on channel=9 note=54 velocity=71 time=0
EXTRACT: note_on channel=3 note=65 velocity=54 time=0.012885208333333334
EXTRACT: note_on channel=10 note=63 velocity=110 time=0
EXTRACT: note_on channel=3 note=60 velocity=50 time=0.012885208333333334
EXTRACT: note_off channel=3 note=72 velocity=0 time=0.025770416666666667
EXTRACT: note_off channel=9 note=54 velocity=0 time=0
EXTRACT: note_off channel=9 note=70 velocity=0 time=0
EXTRACT: note_off channel=3 note=68 velocity=0 time=0.012885208333333334
EXTRACT: note_off channel=3 note=65 velocity=0 time=0.012885208333333334
EXTRACT: note_off channel=3 note=60 velocity=0 time=0.012885208333333334
EXTRACT: note_on channel=3 note=60 velocity=52 time=0.051540833333333334
EXTRACT: note_on channel=9 note=42 velocity=36 time=0
EXTRACT: note_on channel=9 note=70 velocity=113 time=0
EXTRACT: note_on channel=3 note=65 velocity=52 time=0.012885208333333334
EXTRACT: note_on channel=3 note=68 velocity=52 time=0
EXTRACT: note_on channel=9 note=54 velocity=117 time=0
EXTRACT: note_on channel=3 note=72 velocity=52 time=0.012885208333333334
EXTRACT: note_off channel=3 note=60 velocity=0 time=0.038655625
EXTRACT: note_off channel=9 note=54 velocity=0 time=0
EXTRACT: note_off channel=9 note=70 velocity=0 time=0
EXTRACT: note_off channel=9 note=42 velocity=0 time=0
EXTRACT: note_off channel=3 note=68 velocity=0 time=0.012885208333333334
EXTRACT: note_off channel=3 note=65 velocity=0 time=0
EXTRACT: note_off channel=3 note=72 velocity=0 time=0.012885208333333334
EXTRACT: note_off channel=2 note=29 velocity=0 time=0.038655625
EXTRACT: note_on channel=2 note=29 velocity=125 time=0.025770416666666667
EXTRACT: note_on channel=9 note=36 velocity=99 time=0
EXTRACT: note_on channel=9 note=70 velocity=60 time=0
EXTRACT: note_on channel=3 note=72 velocity=50 time=0.012885208333333334
EXTRACT: note_on channel=3 note=68 velocity=50 time=0
EXTRACT: note_on channel=9 note=54 velocity=69 time=0
EXTRACT: note_on channel=3 note=65 velocity=50 time=0.012885208333333334
EXTRACT: note_on channel=3 note=60 velocity=50 time=0
EXTRACT: control_change channel=10 control=0 value=0 time=0
EXTRACT: control_change channel=10 control=0 value=0 time=0
EXTRACT: control_change channel=10 control=32 value=0 time=0
EXTRACT: control_change channel=10 control=0 value=0 time=0
EXTRACT: control_change channel=10 control=32 value=0 time=0
EXTRACT: program_change channel=10 program=0 time=0
EXTRACT: control_change channel=3 control=64 value=0 time=0.012885208333333334
EXTRACT: control_change channel=10 control=93 value=0 time=0
EXTRACT: note_off channel=3 note=72 velocity=0 time=0.025770416666666667
EXTRACT: note_off channel=9 note=54 velocity=0 time=0
EXTRACT: note_off channel=9 note=70 velocity=0 time=0
EXTRACT: note_off channel=9 note=36 velocity=0 time=0
EXTRACT: note_off channel=3 note=65 velocity=0 time=0.012885208333333334
EXTRACT: note_off channel=3 note=68 velocity=0 time=0
EXTRACT: note_off channel=3 note=60 velocity=0 time=0.012885208333333334
EXTRACT: control_change channel=3 control=64 value=127 time=0
EXTRACT: note_off channel=10 note=63 velocity=0 time=0.051540833333333334
EXTRACT: note_on channel=9 note=40 velocity=100 time=0.012885208333333334
EXTRACT: note_on channel=9 note=90 velocity=127 time=0.012885208333333334
EXTRACT: note_on channel=9 note=44 velocity=71 time=0
EXTRACT: note_on channel=9 note=42 velocity=71 time=0
EXTRACT: note_on channel=9 note=70 velocity=40 time=0
EXTRACT: note_on channel=10 note=60 velocity=115 time=0
EXTRACT: note_on channel=3 note=60 velocity=75 time=0.012885208333333334
EXTRACT: note_on channel=9 note=54 velocity=127 time=0
EXTRACT: note_on channel=3 note=65 velocity=75 time=0.012885208333333334
EXTRACT: note_on channel=3 note=68 velocity=75 time=0
EXTRACT: note_on channel=3 note=72 velocity=75 time=0
EXTRACT: note_off channel=3 note=60 velocity=0 time=0.025770416666666667
EXTRACT: note_off channel=9 note=54 velocity=0 time=0
EXTRACT: note_off channel=9 note=70 velocity=0 time=0
EXTRACT: note_off channel=9 note=42 velocity=0 time=0
EXTRACT: note_off channel=9 note=44 velocity=0 time=0
EXTRACT: note_off channel=3 note=65 velocity=0 time=0.012885208333333334
EXTRACT: note_off channel=3 note=72 velocity=0 time=0.012885208333333334
EXTRACT: note_off channel=3 note=68 velocity=0 time=0
EXTRACT: note_off channel=10 note=60 velocity=0 time=0.012885208333333334
EXTRACT: note_off channel=2 note=29 velocity=0 time=0.038655625
EXTRACT: note_off channel=9 note=90 velocity=0 time=0
EXTRACT: note_off channel=9 note=40 velocity=0 time=0
EXTRACT: note_on channel=3 note=72 velocity=54 time=0.012885208333333334
EXTRACT: note_on channel=9 note=70 velocity=65 time=0
EXTRACT: note_on channel=9 note=54 velocity=64 time=0
EXTRACT: note_on channel=3 note=68 velocity=54 time=0.012885208333333334
EXTRACT: note_on channel=10 note=60 velocity=92 time=0
EXTRACT: note_on channel=3 note=65 velocity=54 time=0.012885208333333334
EXTRACT: note_on channel=3 note=60 velocity=54 time=0.012885208333333334
EXTRACT: note_off channel=3 note=72 velocity=0 time=0.025770416666666667
EXTRACT: note_off channel=9 note=54 velocity=0 time=0
EXTRACT: note_off channel=9 note=70 velocity=0 time=0
EXTRACT: note_off channel=3 note=68 velocity=0 time=0.012885208333333334
EXTRACT: note_off channel=10 note=60 velocity=0 time=0
EXTRACT: note_off channel=3 note=65 velocity=0 time=0.012885208333333334
EXTRACT: note_off channel=3 note=60 velocity=0 time=0.012885208333333334
EXTRACT: note_on channel=3 note=60 velocity=50 time=0.051540833333333334
EXTRACT: note_on channel=9 note=42 velocity=40 time=0
EXTRACT: note_on channel=9 note=70 velocity=110 time=0
EXTRACT: note_on channel=9 note=54 velocity=111 time=0.012885208333333334
EXTRACT: note_on channel=10 note=60 velocity=98 time=0
EXTRACT: note_on channel=3 note=65 velocity=50 time=0.012885208333333334
EXTRACT: note_on channel=3 note=68 velocity=50 time=0
EXTRACT: note_on channel=3 note=72 velocity=50 time=0
EXTRACT: note_off channel=3 note=60 velocity=0 time=0.038655625
EXTRACT: note_off channel=9 note=54 velocity=0 time=0
EXTRACT: note_off channel=9 note=70 velocity=0 time=0
EXTRACT: note_off channel=9 note=42 velocity=0 time=0
EXTRACT: note_off channel=3 note=68 velocity=0 time=0.012885208333333334
EXTRACT: note_off channel=3 note=65 velocity=0 time=0
EXTRACT: note_off channel=3 note=72 velocity=0 time=0.012885208333333334
EXTRACT: note_on channel=3 note=72 velocity=69 time=0.06442604166666667
EXTRACT: note_on channel=9 note=70 velocity=64 time=0
EXTRACT: note_on channel=10 note=62 velocity=127 time=0
EXTRACT: note_on channel=3 note=68 velocity=69 time=0.012885208333333334
EXTRACT: note_on channel=9 note=54 velocity=58 time=0
EXTRACT: note_on channel=3 note=65 velocity=69 time=0.012885208333333334
EXTRACT: note_off channel=10 note=60 velocity=0 time=0
EXTRACT: note_on channel=3 note=60 velocity=69 time=0.012885208333333334
EXTRACT: control_change channel=3 control=64 value=0 time=0
EXTRACT: note_off channel=3 note=72 velocity=0 time=0.025770416666666667
EXTRACT: note_off channel=9 note=54 velocity=0 time=0
EXTRACT: note_off channel=9 note=70 velocity=0 time=0
EXTRACT: note_off channel=10 note=62 velocity=0 time=0
EXTRACT: note_off channel=3 note=65 velocity=0 time=0.012885208333333334
EXTRACT: note_off channel=3 note=68 velocity=0 time=0
EXTRACT: note_off channel=3 note=60 velocity=0 time=0.012885208333333334
EXTRACT: note_off channel=4 note=65 velocity=0 time=0
EXTRACT: note_off channel=4 note=60 velocity=0 time=0
EXTRACT: note_on channel=4 note=62 velocity=127 time=0
EXTRACT: control_change channel=3 control=64 value=127 time=0.012885208333333334
EXTRACT: note_on channel=4 note=67 velocity=127 time=0
EXTRACT: note_on channel=9 note=42 velocity=69 time=0.051540833333333334
EXTRACT: note_on channel=2 note=31 velocity=110 time=0.012885208333333334
EXTRACT: note_on channel=9 note=44 velocity=69 time=0
EXTRACT: note_on channel=9 note=70 velocity=40 time=0
EXTRACT: note_on channel=9 note=54 velocity=127 time=0
EXTRACT: note_on channel=10 note=62 velocity=127 time=0
EXTRACT: note_on channel=3 note=62 velocity=56 time=0.012885208333333334
EXTRACT: note_on channel=3 note=67 velocity=56 time=0
EXTRACT: note_on channel=3 note=71 velocity=56 time=0
EXTRACT: note_on channel=9 note=36 velocity=110 time=0
EXTRACT: note_on channel=3 note=74 velocity=52 time=0.012885208333333334
EXTRACT: note_off channel=3 note=67 velocity=0 time=0.025770416666666667
EXTRACT: note_off channel=3 note=62 velocity=0 time=0
EXTRACT: note_off channel=9 note=36 velocity=0 time=0
EXTRACT: note_off channel=9 note=54 velocity=0 time=0
EXTRACT: note_off channel=9 note=70 velocity=0 time=0
EXTRACT: note_off channel=9 note=44 velocity=0 time=0
EXTRACT: note_off channel=9 note=42 velocity=0 time=0
EXTRACT: note_off channel=3 note=71 velocity=0 time=0.012885208333333334
EXTRACT: note_off channel=3 note=74 velocity=0 time=0.025770416666666667
EXTRACT: note_on channel=3 note=62 velocity=52 time=0.051540833333333334
EXTRACT: note_on channel=9 note=70 velocity=56 time=0
EXTRACT: note_on channel=9 note=54 velocity=56 time=0
EXTRACT: note_on channel=3 note=67 velocity=52 time=0.012885208333333334
EXTRACT: note_on channel=3 note=71 velocity=52 time=0
EXTRACT: note_on channel=3 note=74 velocity=52 time=0.012885208333333334
EXTRACT: note_off channel=3 note=62 velocity=0 time=0.038655625
EXTRACT: note_off channel=9 note=54 velocity=0 time=0
EXTRACT: note_off channel=9 note=70 velocity=0 time=0
EXTRACT: note_off channel=3 note=71 velocity=0 time=0.012885208333333334
EXTRACT: note_off channel=3 note=67 velocity=0 time=0
EXTRACT: note_off channel=3 note=74 velocity=0 time=0.012885208333333334
EXTRACT: note_on channel=3 note=74 velocity=52 time=0.06442604166666667
EXTRACT: note_on channel=9 note=42 velocity=38 time=0
EXTRACT: note_on channel=9 note=70 velocity=110 time=0
EXTRACT: note_on channel=9 note=54 velocity=99 time=0.012885208333333334
EXTRACT: note_off channel=10 note=62 velocity=0 time=0
EXTRACT: note_on channel=10 note=60 velocity=115 time=0
EXTRACT: note_on channel=3 note=71 velocity=52 time=0.012885208333333334
EXTRACT: note_on channel=3 note=67 velocity=52 time=0
EXTRACT: note_on channel=3 note=62 velocity=52 time=0.012885208333333334
EXTRACT: note_off channel=2 note=31 velocity=0 time=0.025770416666666667
EXTRACT: note_off channel=3 note=74 velocity=0 time=0
EXTRACT: note_off channel=9 note=54 velocity=0 time=0
EXTRACT: note_off channel=9 note=70 velocity=0 time=0
EXTRACT: note_off channel=9 note=42 velocity=0 time=0
EXTRACT: note_off channel=3 note=71 velocity=0 time=0.012885208333333334
EXTRACT: note_off channel=3 note=67 velocity=0 time=0.012885208333333334
EXTRACT: note_off channel=3 note=62 velocity=0 time=0.012885208333333334
EXTRACT: note_on channel=2 note=31 velocity=125 time=0.051540833333333334
EXTRACT: note_on channel=9 note=70 velocity=64 time=0
EXTRACT: note_on channel=9 note=36 velocity=123 time=0
EXTRACT: note_on channel=3 note=74 velocity=54 time=0.012885208333333334
EXTRACT: note_on channel=3 note=71 velocity=54 time=0
EXTRACT: note_on channel=9 note=54 velocity=52 time=0
EXTRACT: note_on channel=3 note=67 velocity=54 time=0.012885208333333334
EXTRACT: note_on channel=3 note=62 velocity=54 time=0
EXTRACT: note_off channel=10 note=60 velocity=0 time=0
EXTRACT: note_on channel=10 note=62 velocity=123 time=0
EXTRACT: control_change channel=3 control=64 value=0 time=0.025770416666666667
EXTRACT: note_off channel=3 note=74 velocity=0 time=0.012885208333333334
EXTRACT: note_off channel=9 note=54 velocity=0 time=0
EXTRACT: note_off channel=9 note=36 velocity=0 time=0
EXTRACT: note_off channel=9 note=70 velocity=0 time=0
EXTRACT: note_off channel=3 note=71 velocity=0 time=0.012885208333333334
EXTRACT: note_off channel=3 note=62 velocity=0 time=0.012885208333333334
EXTRACT: note_off channel=3 note=67 velocity=0 time=0
EXTRACT: control_change channel=3 control=64 value=127 time=0.012885208333333334
EXTRACT: note_on channel=9 note=40 velocity=100 time=0.051540833333333334
EXTRACT: note_on channel=9 note=90 velocity=127 time=0.012885208333333334
EXTRACT: note_on channel=9 note=44 velocity=71 time=0
EXTRACT: note_on channel=9 note=42 velocity=71 time=0
EXTRACT: note_on channel=9 note=70 velocity=40 time=0
EXTRACT: note_on channel=9 note=54 velocity=127 time=0
EXTRACT: note_on channel=3 note=62 velocity=73 time=0.012885208333333334
EXTRACT: note_on channel=3 note=67 velocity=73 time=0
EXTRACT: note_on channel=3 note=71 velocity=73 time=0.012885208333333334
EXTRACT: note_on channel=3 note=74 velocity=73 time=0
EXTRACT: note_off channel=3 note=62 velocity=0 time=0.025770416666666667
EXTRACT: note_off channel=9 note=54 velocity=0 time=0
EXTRACT: note_off channel=9 note=70 velocity=0 time=0
EXTRACT: note_off channel=9 note=42 velocity=0 time=0
EXTRACT: note_off channel=9 note=44 velocity=0 time=0
EXTRACT: note_off channel=3 note=67 velocity=0 time=0.012885208333333334
EXTRACT: note_off channel=3 note=74 velocity=0 time=0.012885208333333334
EXTRACT: note_off channel=3 note=71 velocity=0 time=0
EXTRACT: note_off channel=9 note=90 velocity=0 time=0.051540833333333334
EXTRACT: note_off channel=9 note=40 velocity=0 time=0
EXTRACT: note_on channel=3 note=74 velocity=50 time=0.012885208333333334
EXTRACT: note_on channel=9 note=70 velocity=65 time=0
EXTRACT: note_on channel=9 note=54 velocity=64 time=0
EXTRACT: note_on channel=3 note=71 velocity=50 time=0.012885208333333334
EXTRACT: note_on channel=10 note=63 velocity=120 time=0
EXTRACT: note_on channel=3 note=67 velocity=50 time=0.012885208333333334
EXTRACT: note_off channel=10 note=62 velocity=0 time=0
EXTRACT: note_on channel=3 note=62 velocity=52 time=0.012885208333333334
EXTRACT: note_off channel=3 note=74 velocity=0 time=0.025770416666666667
EXTRACT: note_off channel=9 note=54 velocity=0 time=0
EXTRACT: note_off channel=9 note=70 velocity=0 time=0
EXTRACT: note_off channel=3 note=71 velocity=0 time=0.012885208333333334
EXTRACT: note_off channel=3 note=67 velocity=0 time=0.012885208333333334
EXTRACT: note_off channel=2 note=31 velocity=0 time=0.012885208333333334
EXTRACT: note_off channel=3 note=62 velocity=0 time=0
EXTRACT: note_on channel=2 note=31 velocity=125 time=0.051540833333333334
EXTRACT: note_on channel=9 note=42 velocity=42 time=0
EXTRACT: note_on channel=3 note=62 velocity=52 time=0.012885208333333334
EXTRACT: note_on channel=9 note=70 velocity=107 time=0
EXTRACT: note_on channel=9 note=36 velocity=119 time=0
EXTRACT: note_on channel=9 note=54 velocity=101 time=0
EXTRACT: note_on channel=3 note=67 velocity=52 time=0.012885208333333334
EXTRACT: note_on channel=3 note=71 velocity=52 time=0
EXTRACT: note_on channel=3 note=74 velocity=52 time=0
EXTRACT: note_off channel=3 note=62 velocity=0 time=0.038655625
EXTRACT: note_off channel=9 note=54 velocity=0 time=0
EXTRACT: note_off channel=9 note=36 velocity=0 time=0
EXTRACT: note_off channel=9 note=70 velocity=0 time=0
EXTRACT: note_off channel=9 note=42 velocity=0 time=0
EXTRACT: note_off channel=3 note=71 velocity=0 time=0.012885208333333334
EXTRACT: note_off channel=3 note=67 velocity=0 time=0
EXTRACT: note_off channel=10 note=63 velocity=0 time=0
EXTRACT: note_off channel=3 note=74 velocity=0 time=0.012885208333333334
EXTRACT: note_on channel=3 note=74 velocity=52 time=0.06442604166666667
EXTRACT: note_on channel=9 note=70 velocity=67 time=0
EXTRACT: note_on channel=9 note=54 velocity=58 time=0
EXTRACT: note_on channel=3 note=71 velocity=52 time=0.012885208333333334
EXTRACT: note_on channel=3 note=67 velocity=52 time=0
EXTRACT: note_on channel=10 note=63 velocity=122 time=0
EXTRACT: note_on channel=3 note=62 velocity=52 time=0.012885208333333334
EXTRACT: control_change channel=3 control=64 value=0 time=0.025770416666666667
EXTRACT: note_off channel=3 note=74 velocity=0 time=0.012885208333333334
EXTRACT: note_off channel=9 note=54 velocity=0 time=0
EXTRACT: note_off channel=9 note=70 velocity=0 time=0
EXTRACT: note_off channel=3 note=67 velocity=0 time=0.012885208333333334
EXTRACT: note_off channel=3 note=71 velocity=0 time=0
EXTRACT: note_off channel=3 note=62 velocity=0 time=0.012885208333333334
EXTRACT: control_change channel=3 control=64 value=127 time=0
EXTRACT: note_off channel=2 note=31 velocity=0 time=0.025770416666666667
EXTRACT: control_change channel=3 control=64 value=0 time=0.012885208333333334
EXTRACT: note_off channel=4 note=67 velocity=0 time=0
EXTRACT: note_off channel=4 note=62 velocity=0 time=0
EXTRACT: note_on channel=4 note=60 velocity=127 time=0
EXTRACT: note_on channel=4 note=63 velocity=127 time=0
EXTRACT: control_change channel=3 control=64 value=127 time=0.012885208333333334
EXTRACT: note_on channel=2 note=36 velocity=121 time=0.025770416666666667
EXTRACT: note_on channel=9 note=42 velocity=69 time=0
EXTRACT: note_on channel=9 note=44 velocity=69 time=0
EXTRACT: note_on channel=9 note=70 velocity=40 time=0
EXTRACT: note_on channel=9 note=54 velocity=127 time=0
EXTRACT: control_change channel=3 control=64 value=127 time=0.012885208333333334
EXTRACT: note_on channel=3 note=60 velocity=81 time=0
EXTRACT: note_on channel=3 note=63 velocity=81 time=0
EXTRACT: note_on channel=9 note=36 velocity=125 time=0
EXTRACT: note_on channel=3 note=67 velocity=81 time=0.012885208333333334
EXTRACT: note_on channel=3 note=72 velocity=81 time=0
EXTRACT: note_off channel=3 note=60 velocity=0 time=0.025770416666666667
EXTRACT: note_off channel=9 note=36 velocity=0 time=0
EXTRACT: note_off channel=9 note=54 velocity=0 time=0
EXTRACT: note_off channel=9 note=70 velocity=0 time=0
EXTRACT: note_off channel=3 note=63 velocity=0 time=0.012885208333333334
EXTRACT: note_off channel=3 note=72 velocity=0 time=0.012885208333333334
EXTRACT: note_off channel=3 note=67 velocity=0 time=0
EXTRACT: note_off channel=9 note=44 velocity=0 time=0.051540833333333334
EXTRACT: note_off channel=9 note=42 velocity=0 time=0
EXTRACT: note_on channel=3 note=72 velocity=54 time=0.012885208333333334
EXTRACT: note_on channel=9 note=70 velocity=65 time=0
EXTRACT: note_on channel=9 note=54 velocity=71 time=0
EXTRACT: note_on channel=3 note=67 velocity=54 time=0.012885208333333334
EXTRACT: note_on channel=3 note=63 velocity=54 time=0.012885208333333334
EXTRACT: note_on channel=3 note=60 velocity=50 time=0.012885208333333334
EXTRACT: note_off channel=3 note=72 velocity=0 time=0.025770416666666667
EXTRACT: note_off channel=9 note=54 velocity=0 time=0
EXTRACT: note_off channel=9 note=70 velocity=0 time=0
EXTRACT: note_off channel=3 note=67 velocity=0 time=0.012885208333333334
EXTRACT: note_off channel=3 note=63 velocity=0 time=0.012885208333333334
EXTRACT: note_off channel=3 note=60 velocity=0 time=0.012885208333333334
EXTRACT: note_on channel=3 note=60 velocity=52 time=0.051540833333333334
EXTRACT: note_on channel=9 note=42 velocity=36 time=0
EXTRACT: note_on channel=9 note=70 velocity=113 time=0
EXTRACT: note_on channel=3 note=63 velocity=52 time=0.012885208333333334
EXTRACT: note_on channel=3 note=67 velocity=52 time=0
EXTRACT: note_on channel=9 note=54 velocity=117 time=0
EXTRACT: note_on channel=3 note=72 velocity=52 time=0.012885208333333334
EXTRACT: note_off channel=3 note=60 velocity=0 time=0.038655625
EXTRACT: note_off channel=9 note=54 velocity=0 time=0
EXTRACT: note_off channel=9 note=70 velocity=0 time=0
EXTRACT: note_off channel=9 note=42 velocity=0 time=0
EXTRACT: note_off channel=3 note=67 velocity=0 time=0.012885208333333334
EXTRACT: note_off channel=3 note=63 velocity=0 time=0
EXTRACT: note_off channel=3 note=72 velocity=0 time=0.012885208333333334
EXTRACT: control_change channel=10 control=0 value=0 time=0.012885208333333334
EXTRACT: control_change channel=10 control=0 value=0 time=0
EXTRACT: control_change channel=10 control=32 value=0 time=0
EXTRACT: control_change channel=10 control=0 value=0 time=0
EXTRACT: control_change channel=10 control=32 value=0 time=0
EXTRACT: program_change channel=10 program=80 time=0
EXTRACT: control_change channel=10 control=93 value=0 time=0.012885208333333334
EXTRACT: note_off channel=2 note=36 velocity=0 time=0.012885208333333334
EXTRACT: note_on channel=2 note=36 velocity=125 time=0.025770416666666667
EXTRACT: note_on channel=9 note=36 velocity=110 time=0
EXTRACT: note_on channel=9 note=70 velocity=60 time=0
EXTRACT: note_on channel=3 note=72 velocity=50 time=0.012885208333333334
EXTRACT: note_on channel=9 note=54 velocity=69 time=0
EXTRACT: note_off channel=10 note=63 velocity=0 time=0
EXTRACT: note_on channel=3 note=67 velocity=50 time=0.012885208333333334
EXTRACT: note_on channel=3 note=63 velocity=50 time=0
EXTRACT: note_on channel=3 note=60 velocity=50 time=0
EXTRACT: control_change channel=3 control=64 value=0 time=0.012885208333333334
EXTRACT: note_off channel=3 note=72 velocity=0 time=0.025770416666666667
EXTRACT: note_off channel=9 note=54 velocity=0 time=0
EXTRACT: note_off channel=9 note=70 velocity=0 time=0
EXTRACT: note_off channel=9 note=36 velocity=0 time=0
EXTRACT: note_off channel=3 note=63 velocity=0 time=0.012885208333333334
EXTRACT: note_off channel=3 note=67 velocity=0 time=0
EXTRACT: note_off channel=3 note=60 velocity=0 time=0.012885208333333334
EXTRACT: control_change channel=3 control=64 value=127 time=0
EXTRACT: note_on channel=10 note=63 velocity=110 time=0.051540833333333334
EXTRACT: note_on channel=9 note=40 velocity=100 time=0.012885208333333334
EXTRACT: note_on channel=9 note=90 velocity=127 time=0.012885208333333334
EXTRACT: note_on channel=9 note=44 velocity=71 time=0
EXTRACT: note_on channel=9 note=42 velocity=71 time=0
EXTRACT: note_on channel=9 note=70 velocity=40 time=0
EXTRACT: note_on channel=9 note=54 velocity=127 time=0
EXTRACT: note_on channel=3 note=60 velocity=75 time=0.012885208333333334
EXTRACT: note_on channel=3 note=63 velocity=75 time=0
EXTRACT: note_on channel=3 note=67 velocity=75 time=0.012885208333333334
EXTRACT: note_on channel=3 note=72 velocity=75 time=0
EXTRACT: note_off channel=3 note=60 velocity=0 time=0.025770416666666667
EXTRACT: note_off channel=9 note=54 velocity=0 time=0
EXTRACT: note_off channel=9 note=70 velocity=0 time=0
EXTRACT: note_off channel=9 note=42 velocity=0 time=0
EXTRACT: note_off channel=9 note=44 velocity=0 time=0
EXTRACT: note_off channel=3 note=63 velocity=0 time=0.012885208333333334
EXTRACT: note_off channel=3 note=72 velocity=0 time=0.012885208333333334
EXTRACT: note_off channel=3 note=67 velocity=0 time=0
EXTRACT: note_off channel=2 note=36 velocity=0 time=0.051540833333333334
EXTRACT: note_off channel=9 note=90 velocity=0 time=0
EXTRACT: note_off channel=9 note=40 velocity=0 time=0
EXTRACT: note_on channel=3 note=72 velocity=54 time=0.012885208333333334
EXTRACT: note_on channel=9 note=70 velocity=65 time=0
EXTRACT: note_on channel=9 note=54 velocity=64 time=0
EXTRACT: note_on channel=3 note=67 velocity=54 time=0.012885208333333334
EXTRACT: note_on channel=3 note=63 velocity=54 time=0.012885208333333334
EXTRACT: note_on channel=3 note=60 velocity=54 time=0.012885208333333334
EXTRACT: note_off channel=3 note=72 velocity=0 time=0.025770416666666667
EXTRACT: note_off channel=9 note=54 velocity=0 time=0
EXTRACT: note_off channel=9 note=70 velocity=0 time=0
EXTRACT: note_off channel=3 note=67 velocity=0 time=0.012885208333333334
EXTRACT: note_off channel=10 note=63 velocity=0 time=0
EXTRACT: note_off channel=3 note=63 velocity=0 time=0.012885208333333334
EXTRACT: note_off channel=3 note=60 velocity=0 time=0.012885208333333334
EXTRACT: note_on channel=3 note=60 velocity=50 time=0.051540833333333334
EXTRACT: note_on channel=9 note=42 velocity=40 time=0
EXTRACT: note_on channel=9 note=70 velocity=110 time=0
EXTRACT: note_on channel=3 note=63 velocity=50 time=0.012885208333333334
EXTRACT: note_on channel=9 note=54 velocity=111 time=0
EXTRACT: note_on channel=3 note=67 velocity=50 time=0.012885208333333334
EXTRACT: note_on channel=10 note=63 velocity=122 time=0
EXTRACT: note_on channel=3 note=72 velocity=50 time=0.012885208333333334
EXTRACT: note_off channel=3 note=60 velocity=0 time=0.025770416666666667
EXTRACT: note_off channel=9 note=54 velocity=0 time=0
EXTRACT: note_off channel=9 note=70 velocity=0 time=0
EXTRACT: note_off channel=9 note=42 velocity=0 time=0
EXTRACT: note_off channel=3 note=67 velocity=0 time=0.012885208333333334
EXTRACT: note_off channel=3 note=63 velocity=0 time=0
EXTRACT: note_off channel=3 note=72 velocity=0 time=0.012885208333333334
EXTRACT: note_on channel=3 note=72 velocity=69 time=0.06442604166666667
EXTRACT: note_on channel=9 note=70 velocity=64 time=0
EXTRACT: note_on channel=9 note=54 velocity=58 time=0
EXTRACT: note_on channel=3 note=67 velocity=69 time=0.012885208333333334
EXTRACT: note_on channel=3 note=63 velocity=69 time=0
EXTRACT: note_on channel=3 note=60 velocity=69 time=0.012885208333333334
EXTRACT: note_off channel=3 note=72 velocity=0 time=0.038655625
EXTRACT: note_off channel=9 note=54 velocity=0 time=0
EXTRACT: note_off channel=9 note=70 velocity=0 time=0
EXTRACT: note_off channel=3 note=63 velocity=0 time=0.012885208333333334
EXTRACT: note_off channel=3 note=67 velocity=0 time=0
EXTRACT: note_off channel=3 note=60 velocity=0 time=0.012885208333333334
EXTRACT: note_on channel=9 note=40 velocity=100 time=0.06442604166666667
EXTRACT: note_on channel=9 note=90 velocity=125 time=0
EXTRACT: note_on channel=2 note=36 velocity=110 time=0.012885208333333334
EXTRACT: note_on channel=4 note=60 velocity=116 time=0
EXTRACT: note_on channel=9 note=70 velocity=110 time=0
EXTRACT: note_on channel=9 note=44 velocity=40 time=0
EXTRACT: note_on channel=10 note=65 velocity=92 time=0
EXTRACT: note_off channel=10 note=63 velocity=0 time=0.025770416666666667
EXTRACT: note_off channel=4 note=60 velocity=0 time=0.025770416666666667
EXTRACT: note_off channel=9 note=44 velocity=0 time=0
EXTRACT: note_off channel=9 note=70 velocity=0 time=0
EXTRACT: note_off channel=9 note=90 velocity=0 time=0
EXTRACT: note_off channel=9 note=40 velocity=0 time=0
EXTRACT: note_off channel=2 note=36 velocity=0 time=0.09019645833333334
EXTRACT: note_on channel=9 note=45 velocity=110 time=0
EXTRACT: note_on channel=9 note=70 velocity=52 time=0
EXTRACT: note_on channel=2 note=43 velocity=110 time=0.012885208333333334
EXTRACT: note_on channel=3 note=60 velocity=52 time=0
EXTRACT: note_on channel=3 note=63 velocity=52 time=0
EXTRACT: note_on channel=9 note=54 velocity=56 time=0
EXTRACT: note_on channel=3 note=67 velocity=52 time=0.012885208333333334
EXTRACT: note_on channel=3 note=72 velocity=52 time=0
EXTRACT: note_off channel=3 note=60 velocity=0 time=0.038655625
EXTRACT: note_off channel=9 note=54 velocity=0 time=0
EXTRACT: note_off channel=9 note=70 velocity=0 time=0
EXTRACT: note_off channel=9 note=45 velocity=0 time=0
EXTRACT: note_off channel=3 note=67 velocity=0 time=0.012885208333333334
EXTRACT: note_off channel=3 note=63 velocity=0 time=0
EXTRACT: note_off channel=3 note=72 velocity=0 time=0.012885208333333334
EXTRACT: note_off channel=10 note=65 velocity=0 time=0
EXTRACT: note_off channel=2 note=43 velocity=0 time=0.051540833333333334
EXTRACT: note_on channel=9 note=43 velocity=110 time=0.012885208333333334
EXTRACT: note_on channel=9 note=70 velocity=67 time=0
EXTRACT: note_on channel=2 note=39 velocity=111 time=0.012885208333333334
EXTRACT: note_on channel=3 note=72 velocity=52 time=0
EXTRACT: note_on channel=9 note=42 velocity=38 time=0
EXTRACT: note_on channel=9 note=54 velocity=99 time=0
EXTRACT: note_on channel=10 note=65 velocity=75 time=0
EXTRACT: note_on channel=3 note=67 velocity=52 time=0.012885208333333334
EXTRACT: note_on channel=3 note=63 velocity=52 time=0
EXTRACT: note_on channel=3 note=60 velocity=52 time=0.012885208333333334
EXTRACT: note_off channel=3 note=72 velocity=0 time=0.025770416666666667
EXTRACT: note_off channel=9 note=54 velocity=0 time=0
EXTRACT: note_off channel=9 note=42 velocity=0 time=0
EXTRACT: note_off channel=9 note=70 velocity=0 time=0
EXTRACT: note_off channel=9 note=43 velocity=0 time=0
EXTRACT: note_off channel=3 note=67 velocity=0 time=0.012885208333333334
EXTRACT: note_off channel=3 note=63 velocity=0 time=0.012885208333333334
EXTRACT: note_off channel=3 note=60 velocity=0 time=0.012885208333333334
EXTRACT: note_on channel=10 note=63 velocity=122 time=0.038655625
EXTRACT: note_off channel=2 note=39 velocity=0 time=0.012885208333333334
EXTRACT: note_on channel=2 note=36 velocity=125 time=0
EXTRACT: note_on channel=9 note=36 velocity=110 time=0
EXTRACT: note_on channel=9 note=70 velocity=64 time=0
EXTRACT: note_on channel=4 note=60 velocity=113 time=0.012885208333333334
EXTRACT: note_off channel=10 note=65 velocity=0 time=0.012885208333333334
EXTRACT: note_off channel=4 note=60 velocity=0 time=0.025770416666666667
EXTRACT: note_off channel=9 note=70 velocity=0 time=0.012885208333333334
EXTRACT: note_off channel=9 note=36 velocity=0 time=0
EXTRACT: note_on channel=9 note=40 velocity=40 time=0.012885208333333334
EXTRACT: note_off channel=9 note=40 velocity=0 time=0.012885208333333334
EXTRACT: note_on channel=9 note=40 velocity=60 time=0.025770416666666667
EXTRACT: note_off channel=9 note=40 velocity=0 time=0.012885208333333334
EXTRACT: note_on channel=9 note=40 velocity=100 time=0.025770416666666667
EXTRACT: note_on channel=3 note=60 velocity=83 time=0.012885208333333334
EXTRACT: note_on channel=3 note=63 velocity=83 time=0
EXTRACT: note_on channel=9 note=90 velocity=127 time=0
EXTRACT: note_on channel=9 note=44 velocity=71 time=0
EXTRACT: note_on channel=9 note=70 velocity=110 time=0
EXTRACT: note_on channel=3 note=67 velocity=83 time=0.012885208333333334
EXTRACT: note_on channel=3 note=72 velocity=83 time=0.012885208333333334
EXTRACT: note_off channel=3 note=63 velocity=0 time=0.025770416666666667
EXTRACT: note_off channel=3 note=60 velocity=0 time=0
EXTRACT: note_off channel=9 note=70 velocity=0 time=0
EXTRACT: note_off channel=9 note=44 velocity=0 time=0
EXTRACT: note_off channel=3 note=67 velocity=0 time=0.012885208333333334
EXTRACT: note_off channel=3 note=72 velocity=0 time=0.025770416666666667
EXTRACT: note_off channel=9 note=90 velocity=0 time=0.038655625
EXTRACT: note_off channel=9 note=40 velocity=0 time=0
EXTRACT: note_on channel=3 note=72 velocity=44 time=0.012885208333333334
EXTRACT: note_on channel=9 note=47 velocity=110 time=0
EXTRACT: note_on channel=9 note=70 velocity=10 time=0
EXTRACT: note_on channel=3 note=67 velocity=44 time=0.012885208333333334
EXTRACT: note_on channel=10 note=62 velocity=125 time=0
EXTRACT: note_on channel=3 note=63 velocity=44 time=0.012885208333333334
EXTRACT: note_on channel=3 note=60 velocity=44 time=0
EXTRACT: note_off channel=10 note=63 velocity=0 time=0.025770416666666667
EXTRACT: note_off channel=3 note=72 velocity=0 time=0.012885208333333334
EXTRACT: note_off channel=9 note=70 velocity=0 time=0
EXTRACT: note_off channel=9 note=47 velocity=0 time=0
EXTRACT: note_off channel=3 note=67 velocity=0 time=0.012885208333333334
EXTRACT: note_off channel=3 note=60 velocity=0 time=0.012885208333333334
EXTRACT: note_off channel=3 note=63 velocity=0 time=0
EXTRACT: note_off channel=2 note=36 velocity=0 time=0.012885208333333334
EXTRACT: note_on channel=2 note=36 velocity=125 time=0.051540833333333334
EXTRACT: note_on channel=9 note=45 velocity=110 time=0
EXTRACT: note_on channel=9 note=70 velocity=22 time=0
EXTRACT: note_on channel=4 note=60 velocity=96 time=0.012885208333333334
EXTRACT: note_off channel=4 note=60 velocity=0 time=0.025770416666666667
EXTRACT: note_off channel=9 note=70 velocity=0 time=0.025770416666666667
EXTRACT: note_off channel=9 note=45 velocity=0 time=0
EXTRACT: note_on channel=9 note=36 velocity=91 time=0.09019645833333334
EXTRACT: note_on channel=9 note=55 velocity=85 time=0
EXTRACT: note_on channel=9 note=70 velocity=67 time=0
EXTRACT: note_off channel=10 note=62 velocity=0 time=0
EXTRACT: note_on channel=4 note=60 velocity=81 time=0.012885208333333334
EXTRACT: note_on channel=10 note=60 velocity=109 time=0
EXTRACT: note_off channel=2 note=36 velocity=0 time=0.051540833333333334
EXTRACT: control_change channel=3 control=64 value=0 time=0
EXTRACT: note_off channel=4 note=60 velocity=0 time=0
EXTRACT: note_off channel=4 note=60 velocity=0 time=0
EXTRACT: note_off channel=4 note=63 velocity=0 time=0
EXTRACT: control_change channel=4 control=0 value=0 time=0
EXTRACT: control_change channel=4 control=0 value=0 time=0
EXTRACT: control_change channel=4 control=32 value=0 time=0
EXTRACT: control_change channel=4 control=0 value=0 time=0
EXTRACT: control_change channel=4 control=32 value=0 time=0
EXTRACT: program_change channel=4 program=89 time=0
EXTRACT: control_change channel=3 control=64 value=127 time=0.012885208333333334
EXTRACT: note_off channel=9 note=70 velocity=0 time=0
EXTRACT: note_off channel=9 note=55 velocity=0 time=0
EXTRACT: note_off channel=9 note=36 velocity=0 time=0
EXTRACT: control_change channel=3 control=64 value=0 time=0.025770416666666667
EXTRACT: control_change channel=3 control=64 value=127 time=0
EXTRACT: control_change channel=3 control=64 value=0 time=0.038655625
EXTRACT: control_change channel=4 control=0 value=0 time=0
EXTRACT: control_change channel=4 control=0 value=0 time=0
EXTRACT: control_change channel=4 control=32 value=0 time=0
EXTRACT: control_change channel=4 control=0 value=0 time=0
EXTRACT: control_change channel=4 control=32 value=0 time=0
EXTRACT: program_change channel=4 program=50 time=0
EXTRACT: note_on channel=4 note=63 velocity=127 time=0.025770416666666667
EXTRACT: program_change channel=9 program=0 time=0
EXTRACT: note_on channel=9 note=49 velocity=90 time=0
EXTRACT: program_change channel=9 program=32 time=0
EXTRACT: note_off channel=9 note=49 velocity=0 time=0.0016106510416666667
EXTRACT: note_on channel=4 note=68 velocity=127 time=0.011274557291666668
EXTRACT: note_on channel=9 note=36 velocity=127 time=0
EXTRACT: note_on channel=9 note=44 velocity=69 time=0
EXTRACT: note_on channel=9 note=42 velocity=69 time=0
EXTRACT: note_on channel=2 note=32 velocity=127 time=0.012885208333333334
EXTRACT: control_change channel=3 control=64 value=127 time=0
EXTRACT: note_on channel=3 note=63 velocity=81 time=0
EXTRACT: note_on channel=9 note=70 velocity=40 time=0
EXTRACT: note_on channel=9 note=54 velocity=127 time=0
EXTRACT: note_on channel=3 note=68 velocity=81 time=0.012885208333333334
EXTRACT: note_off channel=3 note=63 velocity=0 time=0.012885208333333334
EXTRACT: note_on channel=3 note=72 velocity=81 time=0
EXTRACT: note_on channel=3 note=75 velocity=81 time=0
EXTRACT: note_off channel=9 note=54 velocity=0 time=0
EXTRACT: note_off channel=9 note=70 velocity=0 time=0
EXTRACT: note_off channel=3 note=68 velocity=0 time=0.012885208333333334
EXTRACT: note_off channel=3 note=75 velocity=0 time=0.012885208333333334
EXTRACT: note_off channel=3 note=72 velocity=0 time=0
EXTRACT: note_off channel=9 note=42 velocity=0 time=0.051540833333333334
EXTRACT: note_off channel=9 note=44 velocity=0 time=0
EXTRACT: note_off channel=9 note=36 velocity=0 time=0
EXTRACT: note_on channel=3 note=75 velocity=54 time=0.012885208333333334
EXTRACT: note_on channel=9 note=70 velocity=64 time=0
EXTRACT: note_on channel=9 note=54 velocity=71 time=0
EXTRACT: note_on channel=10 note=63 velocity=101 time=0
EXTRACT: note_on channel=3 note=72 velocity=54 time=0.012885208333333334
EXTRACT: note_on channel=3 note=68 velocity=54 time=0.012885208333333334
EXTRACT: note_off channel=10 note=60 velocity=0 time=0
EXTRACT: note_on channel=3 note=63 velocity=50 time=0.012885208333333334
EXTRACT: note_off channel=3 note=75 velocity=0 time=0.025770416666666667
EXTRACT: note_off channel=9 note=54 velocity=0 time=0
EXTRACT: note_off channel=9 note=70 velocity=0 time=0
EXTRACT: note_off channel=3 note=72 velocity=0 time=0.012885208333333334
EXTRACT: note_off channel=3 note=68 velocity=0 time=0.012885208333333334
EXTRACT: note_off channel=3 note=63 velocity=0 time=0.012885208333333334
EXTRACT: note_on channel=3 note=63 velocity=52 time=0.051540833333333334
EXTRACT: note_on channel=9 note=42 velocity=36 time=0
EXTRACT: note_on channel=9 note=70 velocity=113 time=0
EXTRACT: note_on channel=3 note=68 velocity=52 time=0.012885208333333334
EXTRACT: note_on channel=3 note=72 velocity=52 time=0
EXTRACT: note_on channel=9 note=54 velocity=117 time=0
EXTRACT: note_on channel=3 note=75 velocity=52 time=0.012885208333333334
EXTRACT: note_off channel=3 note=63 velocity=0 time=0.038655625
EXTRACT: note_off channel=9 note=54 velocity=0 time=0
EXTRACT: note_off channel=9 note=70 velocity=0 time=0
EXTRACT: note_off channel=9 note=42 velocity=0 time=0
EXTRACT: note_off channel=3 note=72 velocity=0 time=0.012885208333333334
EXTRACT: note_off channel=3 note=68 velocity=0 time=0
EXTRACT: note_off channel=3 note=75 velocity=0 time=0.012885208333333334
EXTRACT: control_change channel=10 control=0 value=0 time=0.025770416666666667
EXTRACT: control_change channel=10 control=0 value=0 time=0
EXTRACT: control_change channel=10 control=32 value=0 time=0
EXTRACT: control_change channel=10 control=0 value=0 time=0
EXTRACT: control_change channel=10 control=32 value=0 time=0
EXTRACT: program_change channel=10 program=0 time=0
EXTRACT: control_change channel=10 control=93 value=0 time=0
EXTRACT: note_off channel=2 note=32 velocity=0 time=0.012885208333333334
EXTRACT: note_on channel=2 note=32 velocity=125 time=0.025770416666666667
EXTRACT: note_on channel=9 note=36 velocity=99 time=0
EXTRACT: note_on channel=9 note=70 velocity=60 time=0
EXTRACT: note_on channel=3 note=75 velocity=50 time=0.012885208333333334
EXTRACT: note_on channel=3 note=72 velocity=50 time=0
EXTRACT: note_on channel=3 note=68 velocity=50 time=0
EXTRACT: note_on channel=9 note=54 velocity=69 time=0
EXTRACT: note_on channel=3 note=63 velocity=50 time=0.012885208333333334
EXTRACT: control_change channel=3 control=64 value=0 time=0.012885208333333334
EXTRACT: note_off channel=3 note=75 velocity=0 time=0.025770416666666667
EXTRACT: note_off channel=9 note=54 velocity=0 time=0
EXTRACT: note_off channel=9 note=70 velocity=0 time=0
EXTRACT: note_off channel=9 note=36 velocity=0 time=0
EXTRACT: note_off channel=10 note=63 velocity=0 time=0
EXTRACT: note_off channel=3 note=68 velocity=0 time=0.012885208333333334
EXTRACT: note_off channel=3 note=72 velocity=0 time=0
EXTRACT: note_off channel=3 note=63 velocity=0 time=0.012885208333333334
EXTRACT: control_change channel=3 control=64 value=127 time=0
EXTRACT: note_on channel=9 note=40 velocity=100 time=0.06442604166666667
EXTRACT: note_on channel=9 note=90 velocity=127 time=0
EXTRACT: note_on channel=9 note=44 velocity=71 time=0.012885208333333334
EXTRACT: note_on channel=9 note=42 velocity=71 time=0
EXTRACT: note_on channel=9 note=70 velocity=40 time=0
EXTRACT: note_on channel=9 note=54 velocity=127 time=0
EXTRACT: note_on channel=10 note=63 velocity=110 time=0
EXTRACT: note_on channel=3 note=63 velocity=75 time=0.012885208333333334
EXTRACT: note_on channel=3 note=68 velocity=75 time=0
EXTRACT: note_on channel=3 note=72 velocity=75 time=0.012885208333333334
EXTRACT: note_on channel=3 note=75 velocity=75 time=0
EXTRACT: note_off channel=3 note=63 velocity=0 time=0.025770416666666667
EXTRACT: note_off channel=9 note=54 velocity=0 time=0
EXTRACT: note_off channel=9 note=70 velocity=0 time=0
EXTRACT: note_off channel=9 note=42 velocity=0 time=0
EXTRACT: note_off channel=9 note=44 velocity=0 time=0
EXTRACT: note_off channel=3 note=68 velocity=0 time=0.012885208333333334
EXTRACT: note_off channel=3 note=75 velocity=0 time=0.012885208333333334
EXTRACT: note_off channel=3 note=72 velocity=0 time=0
EXTRACT: note_off channel=2 note=32 velocity=0 time=0.051540833333333334
EXTRACT: note_off channel=9 note=90 velocity=0 time=0
EXTRACT: note_off channel=9 note=40 velocity=0 time=0
EXTRACT: note_on channel=3 note=75 velocity=54 time=0.012885208333333334
EXTRACT: note_on channel=9 note=70 velocity=65 time=0
EXTRACT: note_on channel=9 note=54 velocity=64 time=0
EXTRACT: note_on channel=3 note=72 velocity=54 time=0.012885208333333334
EXTRACT: note_on channel=3 note=68 velocity=54 time=0.012885208333333334
EXTRACT: note_on channel=3 note=63 velocity=54 time=0.012885208333333334
EXTRACT: note_off channel=3 note=75 velocity=0 time=0.025770416666666667
EXTRACT: note_off channel=9 note=54 velocity=0 time=0
EXTRACT: note_off channel=9 note=70 velocity=0 time=0
EXTRACT: note_off channel=3 note=72 velocity=0 time=0.012885208333333334
EXTRACT: note_off channel=3 note=68 velocity=0 time=0.012885208333333334
EXTRACT: note_off channel=3 note=63 velocity=0 time=0.012885208333333334
EXTRACT: note_off channel=10 note=63 velocity=0 time=0.038655625
EXTRACT: note_on channel=10 note=65 velocity=123 time=0
EXTRACT: note_on channel=3 note=63 velocity=50 time=0.012885208333333334
EXTRACT: note_on channel=9 note=42 velocity=40 time=0
EXTRACT: note_on channel=9 note=70 velocity=110 time=0
EXTRACT: note_on channel=3 note=68 velocity=50 time=0.012885208333333334
EXTRACT: note_on channel=3 note=72 velocity=50 time=0
EXTRACT: note_on channel=9 note=54 velocity=111 time=0
EXTRACT: note_on channel=3 note=75 velocity=50 time=0.012885208333333334
EXTRACT: note_off channel=3 note=63 velocity=0 time=0.038655625
EXTRACT: note_off channel=9 note=54 velocity=0 time=0
EXTRACT: note_off channel=9 note=70 velocity=0 time=0
EXTRACT: note_off channel=9 note=42 velocity=0 time=0
EXTRACT: note_off channel=3 note=72 velocity=0 time=0.012885208333333334
EXTRACT: note_off channel=3 note=68 velocity=0 time=0
EXTRACT: note_off channel=3 note=75 velocity=0 time=0.012885208333333334
EXTRACT: note_on channel=3 note=75 velocity=69 time=0.06442604166666667
EXTRACT: note_on channel=9 note=70 velocity=64 time=0
EXTRACT: note_on channel=9 note=54 velocity=58 time=0
EXTRACT: note_on channel=3 note=72 velocity=69 time=0.012885208333333334
EXTRACT: note_on channel=3 note=68 velocity=69 time=0.012885208333333334
EXTRACT: note_on channel=3 note=63 velocity=69 time=0
EXTRACT: control_change channel=3 control=64 value=0 time=0.012885208333333334
EXTRACT: note_off channel=10 note=65 velocity=0 time=0.012885208333333334
EXTRACT: note_off channel=3 note=63 velocity=0 time=0.012885208333333334
EXTRACT: note_off channel=3 note=68 velocity=0 time=0
EXTRACT: note_off channel=3 note=72 velocity=0 time=0
EXTRACT: note_off channel=3 note=75 velocity=0 time=0
EXTRACT: note_off channel=4 note=68 velocity=0 time=0
EXTRACT: note_off channel=4 note=63 velocity=0 time=0
EXTRACT: note_on channel=4 note=62 velocity=127 time=0.012885208333333334
EXTRACT: note_on channel=4 note=65 velocity=127 time=0
EXTRACT: note_off channel=9 note=70 velocity=0 time=0
EXTRACT: control_change channel=3 control=64 value=127 time=0.012885208333333334
EXTRACT: note_off channel=9 note=54 velocity=0 time=0
EXTRACT: note_on channel=9 note=42 velocity=69 time=0.06442604166666667
EXTRACT: note_on channel=2 note=34 velocity=110 time=0.012885208333333334
EXTRACT: note_on channel=9 note=44 velocity=69 time=0
EXTRACT: note_on channel=9 note=70 velocity=40 time=0
EXTRACT: note_on channel=9 note=54 velocity=127 time=0
EXTRACT: note_on channel=9 note=36 velocity=110 time=0
EXTRACT: note_on channel=10 note=65 velocity=97 time=0
EXTRACT: note_on channel=3 note=62 velocity=56 time=0.012885208333333334
EXTRACT: note_on channel=3 note=65 velocity=56 time=0
EXTRACT: note_on channel=3 note=70 velocity=56 time=0
EXTRACT: note_on channel=3 note=74 velocity=52 time=0.012885208333333334
EXTRACT: note_off channel=3 note=65 velocity=0 time=0.025770416666666667
EXTRACT: note_off channel=3 note=62 velocity=0 time=0
EXTRACT: note_off channel=9 note=36 velocity=0 time=0
EXTRACT: note_off channel=9 note=54 velocity=0 time=0
EXTRACT: note_off channel=9 note=70 velocity=0 time=0
EXTRACT: note_off channel=9 note=44 velocity=0 time=0
EXTRACT: note_off channel=9 note=42 velocity=0 time=0
EXTRACT: note_off channel=3 note=70 velocity=0 time=0.012885208333333334
EXTRACT: note_off channel=3 note=74 velocity=0 time=0.025770416666666667
EXTRACT: note_on channel=3 note=62 velocity=52 time=0.051540833333333334
EXTRACT: note_on channel=9 note=70 velocity=64 time=0
EXTRACT: note_on channel=9 note=54 velocity=56 time=0
EXTRACT: note_on channel=3 note=65 velocity=52 time=0.012885208333333334
EXTRACT: note_on channel=3 note=70 velocity=52 time=0
EXTRACT: note_on channel=3 note=74 velocity=52 time=0.012885208333333334
EXTRACT: note_off channel=10 note=65 velocity=0 time=0.025770416666666667
EXTRACT: note_off channel=3 note=62 velocity=0 time=0.012885208333333334
EXTRACT: note_off channel=9 note=54 velocity=0 time=0
EXTRACT: note_off channel=9 note=70 velocity=0 time=0
EXTRACT: note_off channel=3 note=70 velocity=0 time=0.012885208333333334
EXTRACT: note_off channel=3 note=65 velocity=0 time=0
EXTRACT: note_off channel=3 note=74 velocity=0 time=0.012885208333333334
EXTRACT: note_on channel=3 note=74 velocity=52 time=0.06442604166666667
EXTRACT: note_on channel=9 note=42 velocity=38 time=0
EXTRACT: note_on channel=9 note=70 velocity=110 time=0
EXTRACT: note_on channel=3 note=70 velocity=52 time=0.012885208333333334
EXTRACT: note_on channel=9 note=54 velocity=99 time=0
EXTRACT: note_on channel=10 note=65 velocity=106 time=0
EXTRACT: note_on channel=3 note=65 velocity=52 time=0.012885208333333334
EXTRACT: note_on channel=3 note=62 velocity=52 time=0.012885208333333334
EXTRACT: note_off channel=2 note=34 velocity=0 time=0.025770416666666667
EXTRACT: note_off channel=3 note=74 velocity=0 time=0
EXTRACT: note_off channel=9 note=54 velocity=0 time=0
EXTRACT: note_off channel=9 note=70 velocity=0 time=0
EXTRACT: note_off channel=9 note=42 velocity=0 time=0
EXTRACT: note_off channel=3 note=70 velocity=0 time=0.012885208333333334
EXTRACT: note_off channel=10 note=65 velocity=0 time=0
EXTRACT: note_off channel=3 note=65 velocity=0 time=0.012885208333333334
EXTRACT: note_off channel=3 note=62 velocity=0 time=0.012885208333333334
EXTRACT: note_on channel=2 note=34 velocity=125 time=0.051540833333333334
EXTRACT: note_on channel=9 note=70 velocity=64 time=0
EXTRACT: note_on channel=10 note=65 velocity=87 time=0
EXTRACT: note_on channel=3 note=74 velocity=54 time=0.012885208333333334
EXTRACT: note_on channel=3 note=70 velocity=54 time=0
EXTRACT: note_on channel=9 note=54 velocity=52 time=0
EXTRACT: note_on channel=9 note=36 velocity=123 time=0
EXTRACT: note_on channel=3 note=65 velocity=54 time=0.012885208333333334
EXTRACT: note_on channel=3 note=62 velocity=54 time=0
EXTRACT: control_change channel=3 control=64 value=0 time=0.025770416666666667
EXTRACT: note_off channel=3 note=74 velocity=0 time=0.012885208333333334
EXTRACT: note_off channel=9 note=36 velocity=0 time=0
EXTRACT: note_off channel=9 note=54 velocity=0 time=0
EXTRACT: note_off channel=9 note=70 velocity=0 time=0
EXTRACT: note_off channel=3 note=70 velocity=0 time=0.012885208333333334
EXTRACT: note_off channel=3 note=62 velocity=0 time=0.012885208333333334
EXTRACT: note_off channel=3 note=65 velocity=0 time=0
EXTRACT: control_change channel=3 control=64 value=127 time=0.012885208333333334
EXTRACT: note_on channel=9 note=40 velocity=100 time=0.051540833333333334
EXTRACT: note_on channel=3 note=62 velocity=73 time=0.012885208333333334
EXTRACT: note_on channel=9 note=90 velocity=127 time=0
EXTRACT: note_on channel=9 note=44 velocity=71 time=0
EXTRACT: note_on channel=9 note=42 velocity=71 time=0
EXTRACT: note_on channel=9 note=70 velocity=40 time=0
EXTRACT: note_on channel=9 note=54 velocity=127 time=0
EXTRACT: note_on channel=3 note=65 velocity=73 time=0.012885208333333334
EXTRACT: note_on channel=3 note=70 velocity=73 time=0
EXTRACT: note_on channel=3 note=74 velocity=73 time=0.012885208333333334
EXTRACT: note_off channel=3 note=62 velocity=0 time=0.025770416666666667
EXTRACT: note_off channel=9 note=54 velocity=0 time=0
EXTRACT: note_off channel=9 note=70 velocity=0 time=0
EXTRACT: note_off channel=9 note=42 velocity=0 time=0
EXTRACT: note_off channel=9 note=44 velocity=0 time=0
EXTRACT: note_off channel=3 note=65 velocity=0 time=0.012885208333333334
EXTRACT: note_off channel=3 note=74 velocity=0 time=0.012885208333333334
EXTRACT: note_off channel=3 note=70 velocity=0 time=0
EXTRACT: note_off channel=9 note=90 velocity=0 time=0.051540833333333334
EXTRACT: note_off channel=9 note=40 velocity=0 time=0
EXTRACT: note_on channel=10 note=67 velocity=125 time=0
EXTRACT: note_on channel=3 note=74 velocity=50 time=0.012885208333333334
EXTRACT: note_on channel=9 note=70 velocity=60 time=0
EXTRACT: note_on channel=9 note=54 velocity=64 time=0
EXTRACT: note_on channel=3 note=70 velocity=50 time=0.012885208333333334
EXTRACT: note_off channel=10 note=65 velocity=0 time=0
EXTRACT: note_on channel=3 note=65 velocity=50 time=0.012885208333333334
EXTRACT: note_on channel=3 note=62 velocity=52 time=0.012885208333333334
EXTRACT: note_off channel=3 note=74 velocity=0 time=0.025770416666666667
EXTRACT: note_off channel=9 note=54 velocity=0 time=0
EXTRACT: note_off channel=9 note=70 velocity=0 time=0
EXTRACT: note_off channel=3 note=70 velocity=0 time=0.012885208333333334
EXTRACT: note_off channel=3 note=65 velocity=0 time=0.012885208333333334
EXTRACT: note_off channel=2 note=34 velocity=0 time=0.012885208333333334
EXTRACT: note_off channel=3 note=62 velocity=0 time=0
EXTRACT: note_on channel=2 note=34 velocity=125 time=0.051540833333333334
EXTRACT: note_on channel=9 note=42 velocity=42 time=0
EXTRACT: note_on channel=9 note=70 velocity=107 time=0
EXTRACT: note_on channel=3 note=62 velocity=52 time=0.012885208333333334
EXTRACT: note_on channel=9 note=36 velocity=119 time=0
EXTRACT: note_on channel=9 note=54 velocity=101 time=0
EXTRACT: note_on channel=3 note=65 velocity=52 time=0.012885208333333334
EXTRACT: note_on channel=3 note=70 velocity=52 time=0
EXTRACT: note_on channel=3 note=74 velocity=52 time=0
EXTRACT: note_off channel=10 note=67 velocity=0 time=0
EXTRACT: note_off channel=3 note=62 velocity=0 time=0.038655625
EXTRACT: note_off channel=9 note=54 velocity=0 time=0
EXTRACT: note_off channel=9 note=36 velocity=0 time=0
EXTRACT: note_off channel=9 note=70 velocity=0 time=0
EXTRACT: note_off channel=9 note=42 velocity=0 time=0
EXTRACT: note_off channel=3 note=70 velocity=0 time=0.012885208333333334
EXTRACT: note_off channel=3 note=65 velocity=0 time=0
EXTRACT: note_off channel=3 note=74 velocity=0 time=0.012885208333333334
EXTRACT: note_on channel=10 note=67 velocity=127 time=0.038655625
EXTRACT: note_on channel=3 note=74 velocity=52 time=0.025770416666666667
EXTRACT: note_on channel=9 note=70 velocity=67 time=0
EXTRACT: note_on channel=9 note=54 velocity=58 time=0
EXTRACT: note_on channel=3 note=70 velocity=52 time=0.012885208333333334
EXTRACT: note_on channel=3 note=65 velocity=52 time=0
EXTRACT: note_on channel=3 note=62 velocity=52 time=0.012885208333333334
EXTRACT: control_change channel=3 control=64 value=0 time=0.025770416666666667
EXTRACT: note_off channel=3 note=74 velocity=0 time=0.012885208333333334
EXTRACT: note_off channel=9 note=54 velocity=0 time=0
EXTRACT: note_off channel=9 note=70 velocity=0 time=0
EXTRACT: note_off channel=3 note=65 velocity=0 time=0.012885208333333334
EXTRACT: note_off channel=3 note=70 velocity=0 time=0
EXTRACT: note_off channel=3 note=62 velocity=0 time=0.012885208333333334
EXTRACT: control_change channel=3 control=64 value=127 time=0
EXTRACT: note_off channel=2 note=34 velocity=0 time=0.025770416666666667
EXTRACT: control_change channel=3 control=64 value=0 time=0
EXTRACT: note_off channel=4 note=65 velocity=0 time=0
EXTRACT: note_off channel=4 note=62 velocity=0 time=0
EXTRACT: note_on channel=4 note=63 velocity=127 time=0
EXTRACT: control_change channel=3 control=64 value=127 time=0.012885208333333334
EXTRACT: note_on channel=4 note=67 velocity=127 time=0
EXTRACT: note_on channel=9 note=42 velocity=69 time=0.025770416666666667
EXTRACT: note_on channel=2 note=39 velocity=121 time=0.012885208333333334
EXTRACT: control_change channel=3 control=64 value=127 time=0
EXTRACT: note_on channel=3 note=63 velocity=81 time=0
EXTRACT: note_on channel=9 note=44 velocity=69 time=0
EXTRACT: note_on channel=9 note=70 velocity=40 time=0
EXTRACT: note_on channel=9 note=54 velocity=127 time=0
EXTRACT: note_on channel=9 note=36 velocity=125 time=0
EXTRACT: note_on channel=3 note=67 velocity=81 time=0.012885208333333334
EXTRACT: note_on channel=3 note=70 velocity=81 time=0.012885208333333334
EXTRACT: note_on channel=3 note=75 velocity=81 time=0
EXTRACT: note_off channel=3 note=63 velocity=0 time=0.025770416666666667
EXTRACT: note_off channel=9 note=36 velocity=0 time=0
EXTRACT: note_off channel=9 note=54 velocity=0 time=0
EXTRACT: note_off channel=9 note=70 velocity=0 time=0
EXTRACT: note_off channel=3 note=67 velocity=0 time=0.012885208333333334
EXTRACT: note_off channel=3 note=75 velocity=0 time=0.012885208333333334
EXTRACT: note_off channel=3 note=70 velocity=0 time=0
EXTRACT: note_off channel=9 note=44 velocity=0 time=0.051540833333333334
EXTRACT: note_off channel=9 note=42 velocity=0 time=0
EXTRACT: note_on channel=3 note=75 velocity=54 time=0.012885208333333334
EXTRACT: note_on channel=9 note=70 velocity=64 time=0
EXTRACT: note_on channel=9 note=54 velocity=71 time=0
EXTRACT: note_on channel=3 note=70 velocity=54 time=0.012885208333333334
EXTRACT: note_on channel=3 note=67 velocity=54 time=0.012885208333333334
EXTRACT: note_on channel=3 note=63 velocity=50 time=0.012885208333333334
EXTRACT: note_off channel=3 note=75 velocity=0 time=0.025770416666666667
EXTRACT: note_off channel=9 note=54 velocity=0 time=0
EXTRACT: note_off channel=9 note=70 velocity=0 time=0
EXTRACT: note_off channel=3 note=70 velocity=0 time=0.012885208333333334
EXTRACT: note_off channel=3 note=67 velocity=0 time=0.012885208333333334
EXTRACT: note_off channel=3 note=63 velocity=0 time=0.012885208333333334
EXTRACT: note_on channel=3 note=63 velocity=52 time=0.051540833333333334
EXTRACT: note_on channel=9 note=42 velocity=36 time=0
EXTRACT: note_on channel=9 note=70 velocity=113 time=0
EXTRACT: note_on channel=3 note=67 velocity=52 time=0.012885208333333334
EXTRACT: note_on channel=3 note=70 velocity=52 time=0
EXTRACT: note_on channel=9 note=54 velocity=117 time=0
EXTRACT: note_on channel=3 note=75 velocity=52 time=0.012885208333333334
EXTRACT: note_off channel=3 note=63 velocity=0 time=0.038655625
EXTRACT: note_off channel=9 note=54 velocity=0 time=0
EXTRACT: note_off channel=9 note=70 velocity=0 time=0
EXTRACT: note_off channel=9 note=42 velocity=0 time=0
EXTRACT: note_off channel=3 note=70 velocity=0 time=0.012885208333333334
EXTRACT: note_off channel=3 note=67 velocity=0 time=0
EXTRACT: note_off channel=3 note=75 velocity=0 time=0.012885208333333334
EXTRACT: note_off channel=2 note=39 velocity=0 time=0.038655625
EXTRACT: note_on channel=2 note=39 velocity=125 time=0.025770416666666667
EXTRACT: note_on channel=9 note=36 velocity=110 time=0
EXTRACT: note_on channel=9 note=70 velocity=60 time=0
EXTRACT: note_on channel=3 note=75 velocity=50 time=0.012885208333333334
EXTRACT: note_on channel=3 note=70 velocity=50 time=0
EXTRACT: note_on channel=9 note=54 velocity=69 time=0
EXTRACT: note_on channel=3 note=67 velocity=50 time=0.012885208333333334
EXTRACT: note_on channel=3 note=63 velocity=50 time=0
EXTRACT: control_change channel=3 control=64 value=0 time=0.012885208333333334
EXTRACT: note_off channel=3 note=75 velocity=0 time=0.025770416666666667
EXTRACT: note_off channel=9 note=54 velocity=0 time=0
EXTRACT: note_off channel=9 note=70 velocity=0 time=0
EXTRACT: note_off channel=9 note=36 velocity=0 time=0
EXTRACT: note_off channel=3 note=67 velocity=0 time=0.012885208333333334
EXTRACT: note_off channel=3 note=70 velocity=0 time=0
EXTRACT: note_off channel=3 note=63 velocity=0 time=0.012885208333333334
EXTRACT: control_change channel=3 control=64 value=127 time=0
EXTRACT: note_on channel=9 note=40 velocity=100 time=0.06442604166666667
EXTRACT: note_on channel=3 note=63 velocity=75 time=0.012885208333333334
EXTRACT: note_on channel=9 note=90 velocity=127 time=0
EXTRACT: note_on channel=9 note=44 velocity=71 time=0
EXTRACT: note_on channel=9 note=42 velocity=71 time=0
EXTRACT: note_on channel=9 note=70 velocity=40 time=0
EXTRACT: note_on channel=9 note=54 velocity=127 time=0
EXTRACT: note_on channel=3 note=67 velocity=75 time=0.012885208333333334
EXTRACT: note_on channel=3 note=70 velocity=75 time=0.012885208333333334
EXTRACT: note_on channel=3 note=75 velocity=75 time=0
EXTRACT: note_off channel=3 note=63 velocity=0 time=0.025770416666666667
EXTRACT: note_off channel=9 note=54 velocity=0 time=0
EXTRACT: note_off channel=9 note=70 velocity=0 time=0
EXTRACT: note_off channel=9 note=42 velocity=0 time=0
EXTRACT: note_off channel=9 note=44 velocity=0 time=0
EXTRACT: note_off channel=3 note=67 velocity=0 time=0.012885208333333334
EXTRACT: note_off channel=3 note=75 velocity=0 time=0.012885208333333334
EXTRACT: note_off channel=3 note=70 velocity=0 time=0
EXTRACT: note_off channel=2 note=39 velocity=0 time=0.051540833333333334
EXTRACT: note_off channel=9 note=90 velocity=0 time=0
EXTRACT: note_off channel=9 note=40 velocity=0 time=0
EXTRACT: note_off channel=10 note=67 velocity=0 time=0
EXTRACT: note_on channel=3 note=75 velocity=54 time=0.012885208333333334
EXTRACT: note_on channel=9 note=70 velocity=64 time=0
EXTRACT: note_on channel=9 note=54 velocity=64 time=0
EXTRACT: note_on channel=3 note=70 velocity=54 time=0.012885208333333334
EXTRACT: note_on channel=3 note=67 velocity=54 time=0.012885208333333334
EXTRACT: note_on channel=3 note=63 velocity=54 time=0.012885208333333334
EXTRACT: note_off channel=3 note=75 velocity=0 time=0.025770416666666667
EXTRACT: note_off channel=9 note=54 velocity=0 time=0
EXTRACT: note_off channel=9 note=70 velocity=0 time=0
EXTRACT: note_off channel=3 note=70 velocity=0 time=0.012885208333333334
EXTRACT: note_off channel=3 note=67 velocity=0 time=0.012885208333333334
EXTRACT: note_off channel=3 note=63 velocity=0 time=0.012885208333333334
EXTRACT: note_on channel=10 note=65 velocity=106 time=0.025770416666666667
EXTRACT: note_on channel=3 note=63 velocity=50 time=0.025770416666666667
EXTRACT: note_on channel=9 note=42 velocity=40 time=0
EXTRACT: note_on channel=9 note=70 velocity=110 time=0
EXTRACT: note_on channel=3 note=67 velocity=50 time=0.012885208333333334
EXTRACT: note_on channel=9 note=54 velocity=111 time=0
EXTRACT: note_on channel=3 note=70 velocity=50 time=0.012885208333333334
EXTRACT: note_on channel=3 note=75 velocity=50 time=0
EXTRACT: note_off channel=3 note=63 velocity=0 time=0.038655625
EXTRACT: note_off channel=9 note=54 velocity=0 time=0
EXTRACT: note_off channel=9 note=70 velocity=0 time=0
EXTRACT: note_off channel=9 note=42 velocity=0 time=0
EXTRACT: note_off channel=3 note=70 velocity=0 time=0.012885208333333334
EXTRACT: note_off channel=3 note=67 velocity=0 time=0
EXTRACT: note_off channel=3 note=75 velocity=0 time=0.012885208333333334
EXTRACT: note_off channel=10 note=65 velocity=0 time=0.038655625
EXTRACT: note_on channel=10 note=67 velocity=121 time=0
EXTRACT: note_on channel=3 note=75 velocity=69 time=0.025770416666666667
EXTRACT: note_on channel=9 note=70 velocity=64 time=0
EXTRACT: note_on channel=9 note=54 velocity=58 time=0
EXTRACT: note_on channel=3 note=70 velocity=69 time=0.012885208333333334
EXTRACT: note_on channel=3 note=67 velocity=69 time=0
EXTRACT: note_off channel=3 note=67 velocity=0 time=0.012885208333333334
EXTRACT: note_off channel=3 note=70 velocity=0 time=0
EXTRACT: note_off channel=3 note=75 velocity=0 time=0
EXTRACT: control_change channel=3 control=64 value=0 time=0
EXTRACT: note_off channel=4 note=63 velocity=0 time=0
EXTRACT: note_off channel=4 note=67 velocity=0 time=0.012885208333333334
EXTRACT: note_on channel=4 note=63 velocity=127 time=0
EXTRACT: note_on channel=4 note=68 velocity=127 time=0
EXTRACT: control_change channel=3 control=64 value=127 time=0.012885208333333334
EXTRACT: note_on channel=3 note=63 velocity=69 time=0
EXTRACT: control_change channel=3 control=64 value=0 time=0.012885208333333334
EXTRACT: note_off channel=9 note=54 velocity=0 time=0
EXTRACT: note_off channel=9 note=70 velocity=0 time=0
EXTRACT: note_off channel=3 note=63 velocity=0 time=0.025770416666666667
EXTRACT: control_change channel=3 control=64 value=127 time=0
EXTRACT: note_on channel=10 note=68 velocity=92 time=0.038655625
EXTRACT: note_off channel=10 note=67 velocity=0 time=0.012885208333333334
EXTRACT: note_on channel=9 note=42 velocity=69 time=0.012885208333333334
EXTRACT: note_on channel=2 note=32 velocity=110 time=0.012885208333333334
EXTRACT: note_on channel=3 note=63 velocity=56 time=0
EXTRACT: note_on channel=9 note=44 velocity=69 time=0
EXTRACT: note_on channel=9 note=36 velocity=110 time=0
EXTRACT: note_on channel=9 note=70 velocity=40 time=0
EXTRACT: note_on channel=9 note=54 velocity=127 time=0
EXTRACT: note_on channel=3 note=68 velocity=56 time=0.012885208333333334
EXTRACT: note_on channel=3 note=72 velocity=56 time=0
EXTRACT: note_on channel=3 note=75 velocity=52 time=0.012885208333333334
EXTRACT: note_off channel=3 note=68 velocity=0 time=0.025770416666666667
EXTRACT: note_off channel=3 note=63 velocity=0 time=0
EXTRACT: note_off channel=9 note=54 velocity=0 time=0
EXTRACT: note_off channel=9 note=70 velocity=0 time=0
EXTRACT: note_off channel=9 note=36 velocity=0 time=0
EXTRACT: note_off channel=9 note=44 velocity=0 time=0
EXTRACT: note_off channel=9 note=42 velocity=0 time=0
EXTRACT: note_off channel=3 note=72 velocity=0 time=0.012885208333333334
EXTRACT: note_off channel=3 note=75 velocity=0 time=0.025770416666666667
EXTRACT: note_on channel=3 note=63 velocity=52 time=0.051540833333333334
EXTRACT: note_on channel=9 note=70 velocity=64 time=0
EXTRACT: note_on channel=9 note=54 velocity=56 time=0
EXTRACT: note_on channel=3 note=68 velocity=52 time=0.012885208333333334
EXTRACT: note_on channel=3 note=72 velocity=52 time=0
EXTRACT: note_on channel=3 note=75 velocity=52 time=0.012885208333333334
EXTRACT: note_off channel=3 note=63 velocity=0 time=0.038655625
EXTRACT: note_off channel=9 note=54 velocity=0 time=0
EXTRACT: note_off channel=9 note=70 velocity=0 time=0
EXTRACT: note_off channel=3 note=72 velocity=0 time=0.012885208333333334
EXTRACT: note_off channel=3 note=68 velocity=0 time=0
EXTRACT: note_off channel=3 note=75 velocity=0 time=0.012885208333333334
EXTRACT: note_on channel=10 note=67 velocity=106 time=0.025770416666666667
EXTRACT: note_on channel=9 note=36 velocity=110 time=0.038655625
EXTRACT: note_on channel=9 note=42 velocity=38 time=0
EXTRACT: note_on channel=9 note=70 velocity=110 time=0
EXTRACT: note_on channel=3 note=75 velocity=52 time=0.012885208333333334
EXTRACT: note_on channel=3 note=72 velocity=52 time=0
EXTRACT: note_on channel=9 note=54 velocity=99 time=0
EXTRACT: note_on channel=3 note=68 velocity=52 time=0.012885208333333334
EXTRACT: note_off channel=10 note=68 velocity=0 time=0
EXTRACT: note_on channel=3 note=63 velocity=52 time=0.012885208333333334
EXTRACT: note_off channel=3 note=75 velocity=0 time=0.025770416666666667
EXTRACT: note_off channel=9 note=54 velocity=0 time=0
EXTRACT: note_off channel=9 note=70 velocity=0 time=0
EXTRACT: note_off channel=9 note=42 velocity=0 time=0
EXTRACT: note_off channel=9 note=36 velocity=0 time=0
EXTRACT: note_off channel=3 note=72 velocity=0 time=0.012885208333333334
EXTRACT: note_off channel=3 note=68 velocity=0 time=0.012885208333333334
EXTRACT: note_off channel=3 note=63 velocity=0 time=0.012885208333333334
EXTRACT: note_on channel=10 note=65 velocity=115 time=0.025770416666666667
EXTRACT: note_off channel=2 note=32 velocity=0 time=0.012885208333333334
EXTRACT: note_on channel=2 note=39 velocity=110 time=0.012885208333333334
EXTRACT: note_on channel=3 note=75 velocity=54 time=0
EXTRACT: note_on channel=9 note=70 velocity=64 time=0
EXTRACT: note_on channel=3 note=72 velocity=54 time=0.012885208333333334
EXTRACT: note_on channel=9 note=54 velocity=52 time=0
EXTRACT: note_off channel=10 note=67 velocity=0 time=0
EXTRACT: note_on channel=3 note=68 velocity=54 time=0.012885208333333334
EXTRACT: note_on channel=3 note=63 velocity=54 time=0
EXTRACT: control_change channel=3 control=64 value=0 time=0.025770416666666667
EXTRACT: note_off channel=3 note=75 velocity=0 time=0.012885208333333334
EXTRACT: note_off channel=9 note=54 velocity=0 time=0
EXTRACT: note_off channel=9 note=70 velocity=0 time=0
EXTRACT: note_off channel=3 note=72 velocity=0 time=0.012885208333333334
EXTRACT: note_off channel=3 note=63 velocity=0 time=0.012885208333333334
EXTRACT: note_off channel=3 note=68 velocity=0 time=0
EXTRACT: note_off channel=2 note=39 velocity=0 time=0.012885208333333334
EXTRACT: note_off channel=4 note=68 velocity=0 time=0
EXTRACT: note_off channel=4 note=63 velocity=0 time=0
EXTRACT: note_on channel=4 note=62 velocity=127 time=0
EXTRACT: control_change channel=3 control=64 value=127 time=0.012885208333333334
EXTRACT: note_on channel=4 note=67 velocity=127 time=0
EXTRACT: note_on channel=9 note=40 velocity=100 time=0.038655625
EXTRACT: note_on channel=2 note=29 velocity=110 time=0.012885208333333334
EXTRACT: note_on channel=9 note=90 velocity=127 time=0
EXTRACT: note_on channel=9 note=44 velocity=71 time=0
EXTRACT: note_on channel=9 note=42 velocity=71 time=0
EXTRACT: note_on channel=9 note=70 velocity=40 time=0
EXTRACT: note_on channel=3 note=62 velocity=73 time=0.012885208333333334
EXTRACT: note_on channel=9 note=54 velocity=127 time=0
EXTRACT: note_on channel=3 note=67 velocity=73 time=0.012885208333333334
EXTRACT: note_on channel=3 note=72 velocity=73 time=0
EXTRACT: note_on channel=3 note=74 velocity=73 time=0
EXTRACT: note_off channel=3 note=62 velocity=0 time=0.025770416666666667
EXTRACT: note_off channel=9 note=54 velocity=0 time=0
EXTRACT: note_off channel=9 note=70 velocity=0 time=0
EXTRACT: note_off channel=9 note=42 velocity=0 time=0
EXTRACT: note_off channel=9 note=44 velocity=0 time=0
EXTRACT: note_off channel=3 note=67 velocity=0 time=0.012885208333333334
EXTRACT: note_off channel=3 note=74 velocity=0 time=0.012885208333333334
EXTRACT: note_off channel=3 note=72 velocity=0 time=0
EXTRACT: note_off channel=10 note=65 velocity=0 time=0.025770416666666667
EXTRACT: note_off channel=2 note=29 velocity=0 time=0.025770416666666667
EXTRACT: note_off channel=9 note=90 velocity=0 time=0
EXTRACT: note_off channel=9 note=40 velocity=0 time=0
EXTRACT: note_on channel=10 note=63 velocity=110 time=0
EXTRACT: note_on channel=2 note=31 velocity=110 time=0.012885208333333334
EXTRACT: note_on channel=9 note=70 velocity=73 time=0
EXTRACT: note_on channel=9 note=54 velocity=64 time=0
EXTRACT: note_on channel=3 note=74 velocity=50 time=0.012885208333333334
EXTRACT: note_on channel=3 note=72 velocity=50 time=0
EXTRACT: note_on channel=3 note=67 velocity=50 time=0.012885208333333334
EXTRACT: note_on channel=3 note=62 velocity=52 time=0.012885208333333334
EXTRACT: note_off channel=3 note=74 velocity=0 time=0.025770416666666667
EXTRACT: note_off channel=9 note=54 velocity=0 time=0
EXTRACT: note_off channel=9 note=70 velocity=0 time=0
EXTRACT: note_off channel=3 note=72 velocity=0 time=0.012885208333333334
EXTRACT: note_off channel=3 note=67 velocity=0 time=0.012885208333333334
EXTRACT: note_off channel=3 note=62 velocity=0 time=0.012885208333333334
EXTRACT: note_on channel=3 note=62 velocity=52 time=0.051540833333333334
EXTRACT: note_on channel=9 note=42 velocity=42 time=0
EXTRACT: note_on channel=9 note=70 velocity=107 time=0
EXTRACT: note_on channel=3 note=67 velocity=52 time=0.012885208333333334
EXTRACT: note_on channel=3 note=72 velocity=52 time=0
EXTRACT: note_on channel=9 note=54 velocity=101 time=0
EXTRACT: note_on channel=3 note=74 velocity=52 time=0.012885208333333334
EXTRACT: note_off channel=3 note=62 velocity=0 time=0.038655625
EXTRACT: note_off channel=9 note=54 velocity=0 time=0
EXTRACT: note_off channel=9 note=70 velocity=0 time=0
EXTRACT: note_off channel=9 note=42 velocity=0 time=0
EXTRACT: note_off channel=3 note=72 velocity=0 time=0.012885208333333334
EXTRACT: note_off channel=3 note=67 velocity=0 time=0
EXTRACT: note_off channel=3 note=74 velocity=0 time=0.012885208333333334
EXTRACT: note_off channel=2 note=31 velocity=0 time=0.06442604166666667
EXTRACT: control_change channel=3 control=64 value=0 time=0
EXTRACT: note_off channel=4 note=67 velocity=0 time=0
EXTRACT: note_off channel=4 note=62 velocity=0 time=0
EXTRACT: note_on channel=4 note=60 velocity=127 time=0.012885208333333334
EXTRACT: note_on channel=4 note=65 velocity=127 time=0
EXTRACT: control_change channel=3 control=64 value=127 time=0.012885208333333334
EXTRACT: note_on channel=3 note=72 velocity=52 time=0
EXTRACT: note_on channel=9 note=70 velocity=67 time=0
EXTRACT: note_on channel=9 note=54 velocity=58 time=0
EXTRACT: note_on channel=3 note=68 velocity=52 time=0.012885208333333334
EXTRACT: note_on channel=3 note=65 velocity=52 time=0
EXTRACT: note_off channel=10 note=63 velocity=0 time=0
EXTRACT: note_off channel=3 note=65 velocity=0 time=0.012885208333333334
EXTRACT: note_off channel=3 note=68 velocity=0 time=0
EXTRACT: note_off channel=3 note=72 velocity=0 time=0
EXTRACT: note_on channel=3 note=60 velocity=52 time=0
EXTRACT: control_change channel=3 control=64 value=0 time=0
EXTRACT: note_off channel=4 note=60 velocity=0 time=0
EXTRACT: note_off channel=3 note=60 velocity=0 time=0.0016106510416666667
EXTRACT: note_off channel=4 note=65 velocity=0 time=0.011274557291666668
EXTRACT: note_on channel=4 note=60 velocity=127 time=0
EXTRACT: note_on channel=4 note=65 velocity=127 time=0
EXTRACT: control_change channel=3 control=64 value=127 time=0.012885208333333334
EXTRACT: control_change channel=3 control=64 value=0 time=0
EXTRACT: note_off channel=9 note=54 velocity=0 time=0
EXTRACT: note_off channel=9 note=70 velocity=0 time=0
EXTRACT: control_change channel=3 control=64 value=127 time=0.012885208333333334
EXTRACT: note_on channel=10 note=65 velocity=113 time=0.025770416666666667
EXTRACT: note_on channel=9 note=36 velocity=127 time=0.038655625
EXTRACT: note_on channel=2 note=29 velocity=127 time=0.012885208333333334
EXTRACT: control_change channel=3 control=64 value=127 time=0
EXTRACT: note_on channel=9 note=44 velocity=69 time=0
EXTRACT: note_on channel=9 note=42 velocity=69 time=0
EXTRACT: note_on channel=9 note=70 velocity=40 time=0
EXTRACT: note_on channel=9 note=54 velocity=127 time=0
EXTRACT: note_on channel=3 note=60 velocity=81 time=0.012885208333333334
EXTRACT: note_on channel=3 note=65 velocity=81 time=0
EXTRACT: note_on channel=3 note=68 velocity=81 time=0.012885208333333334
EXTRACT: note_on channel=3 note=72 velocity=81 time=0
EXTRACT: note_off channel=3 note=60 velocity=0 time=0.025770416666666667
EXTRACT: note_off channel=9 note=54 velocity=0 time=0
EXTRACT: note_off channel=9 note=70 velocity=0 time=0
EXTRACT: note_off channel=3 note=65 velocity=0 time=0.012885208333333334
EXTRACT: note_off channel=3 note=72 velocity=0 time=0.012885208333333334
EXTRACT: note_off channel=3 note=68 velocity=0 time=0
EXTRACT: note_off channel=9 note=42 velocity=0 time=0.051540833333333334
EXTRACT: note_off channel=9 note=44 velocity=0 time=0
EXTRACT: note_off channel=9 note=36 velocity=0 time=0
EXTRACT: note_on channel=3 note=72 velocity=54 time=0.012885208333333334
EXTRACT: note_on channel=9 note=70 velocity=69 time=0
EXTRACT: note_on channel=9 note=54 velocity=71 time=0
EXTRACT: note_on channel=3 note=68 velocity=54 time=0.012885208333333334
EXTRACT: note_on channel=3 note=65 velocity=54 time=0.012885208333333334
EXTRACT: note_on channel=3 note=60 velocity=50 time=0.012885208333333334
EXTRACT: note_off channel=3 note=72 velocity=0 time=0.025770416666666667
EXTRACT: note_off channel=9 note=54 velocity=0 time=0
EXTRACT: note_off channel=9 note=70 velocity=0 time=0
EXTRACT: note_off channel=3 note=68 velocity=0 time=0.012885208333333334
EXTRACT: note_off channel=3 note=65 velocity=0 time=0.012885208333333334
EXTRACT: note_off channel=3 note=60 velocity=0 time=0.012885208333333334
EXTRACT: note_on channel=3 note=60 velocity=52 time=0.051540833333333334
EXTRACT: note_on channel=9 note=42 velocity=36 time=0
EXTRACT: note_on channel=9 note=70 velocity=113 time=0
EXTRACT: note_on channel=3 note=65 velocity=52 time=0.012885208333333334
EXTRACT: note_on channel=3 note=68 velocity=52 time=0
EXTRACT: note_on channel=9 note=54 velocity=117 time=0
EXTRACT: note_on channel=3 note=72 velocity=52 time=0.012885208333333334
EXTRACT: note_off channel=3 note=60 velocity=0 time=0.038655625
EXTRACT: note_off channel=9 note=54 velocity=0 time=0
EXTRACT: note_off channel=9 note=70 velocity=0 time=0
EXTRACT: note_off channel=9 note=42 velocity=0 time=0
EXTRACT: note_off channel=10 note=65 velocity=0 time=0
EXTRACT: note_off channel=3 note=68 velocity=0 time=0.012885208333333334
EXTRACT: note_off channel=3 note=65 velocity=0 time=0
EXTRACT: note_off channel=3 note=72 velocity=0 time=0.012885208333333334
EXTRACT: note_off channel=2 note=29 velocity=0 time=0.038655625
EXTRACT: note_on channel=2 note=29 velocity=125 time=0.025770416666666667
EXTRACT: note_on channel=9 note=36 velocity=99 time=0
EXTRACT: note_on channel=9 note=70 velocity=60 time=0
EXTRACT: note_on channel=3 note=72 velocity=50 time=0.012885208333333334
EXTRACT: note_on channel=9 note=54 velocity=69 time=0
EXTRACT: note_on channel=10 note=67 velocity=127 time=0
EXTRACT: note_on channel=3 note=68 velocity=50 time=0.012885208333333334
EXTRACT: note_on channel=3 note=65 velocity=50 time=0
EXTRACT: note_on channel=3 note=60 velocity=50 time=0
EXTRACT: control_change channel=3 control=64 value=0 time=0.012885208333333334
EXTRACT: note_off channel=3 note=72 velocity=0 time=0.025770416666666667
EXTRACT: note_off channel=9 note=54 velocity=0 time=0
EXTRACT: note_off channel=9 note=70 velocity=0 time=0
EXTRACT: note_off channel=9 note=36 velocity=0 time=0
EXTRACT: note_off channel=3 note=65 velocity=0 time=0.012885208333333334
EXTRACT: note_off channel=3 note=68 velocity=0 time=0
EXTRACT: note_off channel=3 note=60 velocity=0 time=0.012885208333333334
EXTRACT: control_change channel=3 control=64 value=127 time=0
EXTRACT: note_on channel=9 note=40 velocity=100 time=0.06442604166666667
EXTRACT: note_on channel=9 note=90 velocity=127 time=0.012885208333333334
EXTRACT: note_on channel=9 note=44 velocity=71 time=0
EXTRACT: note_on channel=9 note=42 velocity=71 time=0
EXTRACT: note_on channel=9 note=70 velocity=40 time=0
EXTRACT: note_on channel=9 note=54 velocity=127 time=0
EXTRACT: note_on channel=3 note=60 velocity=75 time=0.012885208333333334
EXTRACT: note_on channel=3 note=65 velocity=75 time=0
EXTRACT: note_on channel=3 note=68 velocity=75 time=0.012885208333333334
EXTRACT: note_on channel=3 note=72 velocity=75 time=0
EXTRACT: note_off channel=10 note=67 velocity=0 time=0
EXTRACT: note_on channel=10 note=65 velocity=111 time=0.012885208333333334
EXTRACT: note_off channel=3 note=60 velocity=0 time=0.012885208333333334
EXTRACT: note_off channel=9 note=54 velocity=0 time=0
EXTRACT: note_off channel=9 note=70 velocity=0 time=0
EXTRACT: note_off channel=9 note=42 velocity=0 time=0
EXTRACT: note_off channel=9 note=44 velocity=0 time=0
EXTRACT: note_off channel=3 note=65 velocity=0 time=0.012885208333333334
EXTRACT: note_off channel=3 note=72 velocity=0 time=0.012885208333333334
EXTRACT: note_off channel=3 note=68 velocity=0 time=0
EXTRACT: note_off channel=2 note=29 velocity=0 time=0.051540833333333334
EXTRACT: note_off channel=9 note=90 velocity=0 time=0
EXTRACT: note_off channel=9 note=40 velocity=0 time=0
EXTRACT: note_on channel=3 note=72 velocity=54 time=0.012885208333333334
EXTRACT: note_on channel=9 note=70 velocity=65 time=0
EXTRACT: note_on channel=9 note=54 velocity=64 time=0
EXTRACT: note_on channel=3 note=68 velocity=54 time=0.012885208333333334
EXTRACT: note_on channel=3 note=65 velocity=54 time=0.012885208333333334
EXTRACT: note_on channel=3 note=60 velocity=54 time=0.012885208333333334
EXTRACT: note_off channel=3 note=72 velocity=0 time=0.025770416666666667
EXTRACT: note_off channel=9 note=54 velocity=0 time=0
EXTRACT: note_off channel=9 note=70 velocity=0 time=0
EXTRACT: note_off channel=3 note=68 velocity=0 time=0.012885208333333334
EXTRACT: note_off channel=3 note=65 velocity=0 time=0.012885208333333334
EXTRACT: note_off channel=3 note=60 velocity=0 time=0.012885208333333334
EXTRACT: note_on channel=3 note=60 velocity=50 time=0.051540833333333334
EXTRACT: note_on channel=9 note=42 velocity=40 time=0
EXTRACT: note_on channel=9 note=70 velocity=110 time=0
EXTRACT: note_on channel=3 note=65 velocity=50 time=0.012885208333333334
EXTRACT: note_on channel=9 note=54 velocity=111 time=0
EXTRACT: note_on channel=3 note=68 velocity=50 time=0.012885208333333334
EXTRACT: note_on channel=3 note=72 velocity=50 time=0
EXTRACT: note_off channel=3 note=60 velocity=0 time=0.038655625
EXTRACT: note_off channel=9 note=54 velocity=0 time=0
EXTRACT: note_off channel=9 note=70 velocity=0 time=0
EXTRACT: note_off channel=9 note=42 velocity=0 time=0
EXTRACT: note_off channel=3 note=68 velocity=0 time=0.012885208333333334
EXTRACT: note_off channel=3 note=65 velocity=0 time=0
EXTRACT: note_off channel=3 note=72 velocity=0 time=0.012885208333333334
EXTRACT: note_on channel=3 note=72 velocity=69 time=0.06442604166666667
EXTRACT: note_on channel=9 note=70 velocity=64 time=0
EXTRACT: note_off channel=3 note=72 velocity=0 time=0.012885208333333334
EXTRACT: control_change channel=3 control=64 value=0 time=0
EXTRACT: note_off channel=4 note=60 velocity=0 time=0
EXTRACT: note_on channel=9 note=54 velocity=58 time=0
EXTRACT: note_off channel=4 note=65 velocity=0 time=0.012885208333333334
EXTRACT: note_on channel=4 note=62 velocity=127 time=0
EXTRACT: note_on channel=4 note=67 velocity=127 time=0
EXTRACT: control_change channel=3 control=64 value=127 time=0.012885208333333334
EXTRACT: note_on channel=3 note=71 velocity=69 time=0
EXTRACT: note_on channel=3 note=67 velocity=69 time=0
EXTRACT: note_on channel=3 note=62 velocity=69 time=0.012885208333333334
EXTRACT: control_change channel=3 control=64 value=0 time=0
EXTRACT: note_off channel=9 note=54 velocity=0 time=0.012885208333333334
EXTRACT: note_off channel=9 note=70 velocity=0 time=0
EXTRACT: note_off channel=3 note=67 velocity=0 time=0.012885208333333334
EXTRACT: note_off channel=3 note=71 velocity=0 time=0
EXTRACT: note_off channel=3 note=62 velocity=0 time=0.012885208333333334
EXTRACT: control_change channel=3 control=64 value=127 time=0
EXTRACT: note_on channel=9 note=42 velocity=69 time=0.06442604166666667
EXTRACT: note_on channel=2 note=31 velocity=110 time=0.012885208333333334
EXTRACT: note_on channel=3 note=62 velocity=56 time=0
EXTRACT: note_on channel=9 note=44 velocity=69 time=0
EXTRACT: note_on channel=9 note=70 velocity=40 time=0
EXTRACT: note_on channel=9 note=54 velocity=127 time=0
EXTRACT: note_on channel=9 note=36 velocity=110 time=0
EXTRACT: note_on channel=3 note=67 velocity=56 time=0.012885208333333334
EXTRACT: note_on channel=3 note=71 velocity=56 time=0
EXTRACT: note_on channel=3 note=74 velocity=52 time=0.012885208333333334
EXTRACT: note_off channel=3 note=67 velocity=0 time=0.025770416666666667
EXTRACT: note_off channel=3 note=62 velocity=0 time=0
EXTRACT: note_off channel=9 note=36 velocity=0 time=0
EXTRACT: note_off channel=9 note=54 velocity=0 time=0
EXTRACT: note_off channel=9 note=70 velocity=0 time=0
EXTRACT: note_off channel=9 note=44 velocity=0 time=0
EXTRACT: note_off channel=9 note=42 velocity=0 time=0
EXTRACT: note_off channel=3 note=71 velocity=0 time=0.012885208333333334
EXTRACT: note_off channel=3 note=74 velocity=0 time=0.025770416666666667
EXTRACT: note_on channel=3 note=62 velocity=52 time=0.051540833333333334
EXTRACT: note_on channel=9 note=70 velocity=56 time=0
EXTRACT: note_on channel=9 note=54 velocity=56 time=0
EXTRACT: note_on channel=3 note=67 velocity=52 time=0.012885208333333334
EXTRACT: note_on channel=3 note=71 velocity=52 time=0
EXTRACT: note_on channel=3 note=74 velocity=52 time=0.012885208333333334
EXTRACT: note_off channel=3 note=62 velocity=0 time=0.038655625
EXTRACT: note_off channel=9 note=54 velocity=0 time=0
EXTRACT: note_off channel=9 note=70 velocity=0 time=0
EXTRACT: note_off channel=3 note=71 velocity=0 time=0.012885208333333334
EXTRACT: note_off channel=3 note=67 velocity=0 time=0
EXTRACT: note_off channel=3 note=74 velocity=0 time=0.012885208333333334
EXTRACT: note_on channel=3 note=74 velocity=52 time=0.06442604166666667
EXTRACT: note_on channel=9 note=42 velocity=38 time=0
EXTRACT: note_on channel=9 note=70 velocity=110 time=0
EXTRACT: note_on channel=3 note=71 velocity=52 time=0.012885208333333334
EXTRACT: note_on channel=9 note=54 velocity=99 time=0
EXTRACT: note_on channel=10 note=63 velocity=110 time=0
EXTRACT: note_on channel=3 note=67 velocity=52 time=0.012885208333333334
EXTRACT: note_on channel=3 note=62 velocity=52 time=0.012885208333333334
EXTRACT: note_off channel=2 note=31 velocity=0 time=0.025770416666666667
EXTRACT: note_off channel=3 note=74 velocity=0 time=0
EXTRACT: note_off channel=9 note=54 velocity=0 time=0
EXTRACT: note_off channel=9 note=70 velocity=0 time=0
EXTRACT: note_off channel=9 note=42 velocity=0 time=0
EXTRACT: note_off channel=10 note=65 velocity=0 time=0
EXTRACT: note_off channel=3 note=71 velocity=0 time=0.012885208333333334
EXTRACT: note_off channel=3 note=67 velocity=0 time=0.012885208333333334
EXTRACT: note_off channel=3 note=62 velocity=0 time=0.012885208333333334
EXTRACT: note_on channel=2 note=31 velocity=125 time=0.051540833333333334
EXTRACT: note_on channel=9 note=70 velocity=64 time=0
EXTRACT: note_on channel=9 note=36 velocity=123 time=0
EXTRACT: note_on channel=3 note=74 velocity=54 time=0.012885208333333334
EXTRACT: note_on channel=3 note=71 velocity=54 time=0
EXTRACT: note_on channel=9 note=54 velocity=52 time=0
EXTRACT: note_on channel=3 note=67 velocity=54 time=0.012885208333333334
EXTRACT: note_on channel=3 note=62 velocity=54 time=0
EXTRACT: note_off channel=10 note=63 velocity=0 time=0
EXTRACT: note_on channel=10 note=62 velocity=127 time=0
EXTRACT: control_change channel=3 control=64 value=0 time=0.025770416666666667
EXTRACT: note_off channel=3 note=74 velocity=0 time=0.012885208333333334
EXTRACT: note_off channel=9 note=54 velocity=0 time=0
EXTRACT: note_off channel=9 note=36 velocity=0 time=0
EXTRACT: note_off channel=9 note=70 velocity=0 time=0
EXTRACT: note_off channel=3 note=71 velocity=0 time=0.012885208333333334
EXTRACT: note_off channel=3 note=62 velocity=0 time=0.012885208333333334
EXTRACT: note_off channel=3 note=67 velocity=0 time=0
EXTRACT: control_change channel=3 control=64 value=127 time=0.012885208333333334
EXTRACT: note_off channel=2 note=31 velocity=0 time=0.051540833333333334
EXTRACT: control_change channel=3 control=64 value=0 time=0
EXTRACT: note_on channel=2 note=36 velocity=125 time=0.012885208333333334
EXTRACT: note_off channel=4 note=67 velocity=0 time=0
EXTRACT: note_off channel=4 note=62 velocity=0 time=0
EXTRACT: control_change channel=3 control=64 value=127 time=0.012885208333333334
EXTRACT: note_on channel=4 note=60 velocity=127 time=0
EXTRACT: note_on channel=4 note=63 velocity=127 time=0
EXTRACT: note_on channel=9 note=40 velocity=100 time=0.012885208333333334
EXTRACT: note_on channel=9 note=90 velocity=127 time=0
EXTRACT: note_on channel=9 note=44 velocity=71 time=0
EXTRACT: note_on channel=9 note=42 velocity=71 time=0
EXTRACT: note_on channel=3 note=60 velocity=73 time=0.012885208333333334
EXTRACT: note_on channel=3 note=63 velocity=73 time=0
EXTRACT: note_on channel=9 note=70 velocity=40 time=0
EXTRACT: note_on channel=9 note=54 velocity=127 time=0
EXTRACT: note_off channel=3 note=60 velocity=0 time=0.012885208333333334
EXTRACT: note_on channel=3 note=67 velocity=73 time=0
EXTRACT: note_on channel=3 note=72 velocity=73 time=0
EXTRACT: note_off channel=9 note=54 velocity=0 time=0
EXTRACT: note_off channel=9 note=70 velocity=0 time=0
EXTRACT: note_off channel=9 note=42 velocity=0 time=0
EXTRACT: note_off channel=9 note=44 velocity=0 time=0
EXTRACT: note_off channel=3 note=63 velocity=0 time=0.012885208333333334
EXTRACT: note_off channel=3 note=72 velocity=0 time=0.012885208333333334
EXTRACT: note_off channel=3 note=67 velocity=0 time=0
EXTRACT: note_off channel=9 note=90 velocity=0 time=0.051540833333333334
EXTRACT: note_off channel=9 note=40 velocity=0 time=0
EXTRACT: note_on channel=3 note=72 velocity=50 time=0.012885208333333334
EXTRACT: note_on channel=9 note=70 velocity=65 time=0
EXTRACT: note_on channel=9 note=54 velocity=64 time=0
EXTRACT: note_on channel=3 note=67 velocity=50 time=0.012885208333333334
EXTRACT: note_on channel=3 note=63 velocity=50 time=0.012885208333333334
EXTRACT: note_on channel=10 note=60 velocity=115 time=0
EXTRACT: note_on channel=3 note=60 velocity=52 time=0.012885208333333334
EXTRACT: note_off channel=3 note=72 velocity=0 time=0.025770416666666667
EXTRACT: note_off channel=9 note=54 velocity=0 time=0
EXTRACT: note_off channel=9 note=70 velocity=0 time=0
EXTRACT: note_off channel=10 note=62 velocity=0 time=0
EXTRACT: note_off channel=3 note=67 velocity=0 time=0.012885208333333334
EXTRACT: note_off channel=3 note=63 velocity=0 time=0.012885208333333334
EXTRACT: note_off channel=2 note=36 velocity=0 time=0.012885208333333334
EXTRACT: note_off channel=3 note=60 velocity=0 time=0
EXTRACT: note_on channel=2 note=36 velocity=125 time=0.051540833333333334
EXTRACT: note_on channel=9 note=42 velocity=42 time=0
EXTRACT: note_on channel=3 note=60 velocity=52 time=0.012885208333333334
EXTRACT: note_on channel=9 note=70 velocity=107 time=0
EXTRACT: note_on channel=9 note=36 velocity=119 time=0
EXTRACT: note_on channel=9 note=54 velocity=101 time=0
EXTRACT: note_on channel=3 note=63 velocity=52 time=0.012885208333333334
EXTRACT: note_on channel=3 note=67 velocity=52 time=0
EXTRACT: note_on channel=3 note=72 velocity=52 time=0
EXTRACT: note_off channel=3 note=60 velocity=0 time=0.038655625
EXTRACT: note_off channel=9 note=54 velocity=0 time=0
EXTRACT: note_off channel=9 note=36 velocity=0 time=0
EXTRACT: note_off channel=9 note=70 velocity=0 time=0
EXTRACT: note_off channel=9 note=42 velocity=0 time=0
EXTRACT: note_off channel=3 note=67 velocity=0 time=0.012885208333333334
EXTRACT: note_off channel=3 note=63 velocity=0 time=0
EXTRACT: control_change channel=10 control=0 value=0 time=0
EXTRACT: control_change channel=10 control=0 value=0 time=0
EXTRACT: control_change channel=10 control=32 value=0 time=0
EXTRACT: control_change channel=10 control=0 value=0 time=0
EXTRACT: control_change channel=10 control=32 value=0 time=0
EXTRACT: program_change channel=10 program=80 time=0
EXTRACT: control_change channel=10 control=93 value=0 time=0
EXTRACT: note_off channel=3 note=72 velocity=0 time=0.012885208333333334
EXTRACT: note_on channel=3 note=72 velocity=52 time=0.06442604166666667
EXTRACT: note_on channel=9 note=70 velocity=67 time=0
EXTRACT: note_on channel=9 note=54 velocity=58 time=0
EXTRACT: note_on channel=3 note=67 velocity=52 time=0.012885208333333334
EXTRACT: note_on channel=3 note=63 velocity=52 time=0
EXTRACT: note_on channel=3 note=60 velocity=52 time=0.012885208333333334
EXTRACT: control_change channel=3 control=64 value=0 time=0.025770416666666667
EXTRACT: note_off channel=3 note=72 velocity=0 time=0.012885208333333334
EXTRACT: note_off channel=9 note=54 velocity=0 time=0
EXTRACT: note_off channel=9 note=70 velocity=0 time=0
EXTRACT: note_off channel=3 note=63 velocity=0 time=0.012885208333333334
EXTRACT: note_off channel=3 note=67 velocity=0 time=0
EXTRACT: note_off channel=10 note=60 velocity=0 time=0
EXTRACT: note_off channel=3 note=60 velocity=0 time=0.012885208333333334
EXTRACT: control_change channel=3 control=64 value=127 time=0
EXTRACT: note_off channel=2 note=36 velocity=0 time=0.025770416666666667
EXTRACT: note_on channel=2 note=36 velocity=121 time=0.051540833333333334
EXTRACT: control_change channel=3 control=64 value=127 time=0
EXTRACT: note_on channel=9 note=42 velocity=69 time=0
EXTRACT: note_on channel=9 note=44 velocity=69 time=0
EXTRACT: note_on channel=9 note=70 velocity=40 time=0
EXTRACT: note_on channel=9 note=54 velocity=127 time=0
EXTRACT: note_on channel=9 note=36 velocity=125 time=0
EXTRACT: note_on channel=3 note=60 velocity=81 time=0.012885208333333334
EXTRACT: note_on channel=10 note=60 velocity=127 time=0
EXTRACT: note_on channel=3 note=63 velocity=81 time=0.012885208333333334
EXTRACT: note_on channel=3 note=67 velocity=81 time=0
EXTRACT: note_on channel=3 note=72 velocity=81 time=0
EXTRACT: note_off channel=3 note=60 velocity=0 time=0.025770416666666667
EXTRACT: note_off channel=9 note=36 velocity=0 time=0
EXTRACT: note_off channel=9 note=54 velocity=0 time=0
EXTRACT: note_off channel=9 note=70 velocity=0 time=0
EXTRACT: note_off channel=3 note=63 velocity=0 time=0.012885208333333334
EXTRACT: note_off channel=3 note=72 velocity=0 time=0.012885208333333334
EXTRACT: note_off channel=3 note=67 velocity=0 time=0
EXTRACT: note_off channel=9 note=44 velocity=0 time=0.051540833333333334
EXTRACT: note_off channel=9 note=42 velocity=0 time=0
EXTRACT: note_on channel=3 note=72 velocity=54 time=0.012885208333333334
EXTRACT: note_on channel=9 note=70 velocity=65 time=0
EXTRACT: note_on channel=9 note=54 velocity=71 time=0
EXTRACT: note_on channel=3 note=67 velocity=54 time=0.012885208333333334
EXTRACT: note_on channel=3 note=63 velocity=54 time=0.012885208333333334
EXTRACT: note_on channel=3 note=60 velocity=50 time=0.012885208333333334
EXTRACT: note_off channel=3 note=72 velocity=0 time=0.025770416666666667
EXTRACT: note_off channel=9 note=54 velocity=0 time=0
EXTRACT: note_off channel=9 note=70 velocity=0 time=0
EXTRACT: note_off channel=3 note=67 velocity=0 time=0.012885208333333334
EXTRACT: note_off channel=3 note=63 velocity=0 time=0.012885208333333334
EXTRACT: note_off channel=3 note=60 velocity=0 time=0.012885208333333334
EXTRACT: note_on channel=3 note=60 velocity=52 time=0.051540833333333334
EXTRACT: note_on channel=9 note=42 velocity=36 time=0
EXTRACT: note_on channel=9 note=70 velocity=113 time=0
EXTRACT: note_on channel=3 note=63 velocity=52 time=0.012885208333333334
EXTRACT: note_on channel=3 note=67 velocity=52 time=0
EXTRACT: note_on channel=9 note=54 velocity=117 time=0
EXTRACT: note_on channel=3 note=72 velocity=52 time=0.012885208333333334
EXTRACT: note_off channel=3 note=60 velocity=0 time=0.038655625
EXTRACT: note_off channel=9 note=54 velocity=0 time=0
EXTRACT: note_off channel=9 note=70 velocity=0 time=0
EXTRACT: note_off channel=9 note=42 velocity=0 time=0
EXTRACT: note_off channel=3 note=67 velocity=0 time=0.012885208333333334
EXTRACT: note_off channel=3 note=63 velocity=0 time=0
EXTRACT: note_off channel=3 note=72 velocity=0 time=0.012885208333333334
EXTRACT: note_off channel=2 note=36 velocity=0 time=0.038655625
EXTRACT: note_on channel=2 note=36 velocity=125 time=0.025770416666666667
EXTRACT: note_on channel=9 note=36 velocity=110 time=0
EXTRACT: note_on channel=9 note=70 velocity=60 time=0
EXTRACT: note_on channel=3 note=72 velocity=50 time=0.012885208333333334
EXTRACT: note_on channel=3 note=67 velocity=50 time=0
EXTRACT: note_on channel=9 note=54 velocity=69 time=0
EXTRACT: note_on channel=3 note=63 velocity=50 time=0.012885208333333334
EXTRACT: note_on channel=3 note=60 velocity=50 time=0
EXTRACT: control_change channel=3 control=64 value=0 time=0.012885208333333334
EXTRACT: note_off channel=3 note=72 velocity=0 time=0.025770416666666667
EXTRACT: note_off channel=9 note=54 velocity=0 time=0
EXTRACT: note_off channel=9 note=70 velocity=0 time=0
EXTRACT: note_off channel=9 note=36 velocity=0 time=0
EXTRACT: note_off channel=3 note=63 velocity=0 time=0.012885208333333334
EXTRACT: note_off channel=3 note=67 velocity=0 time=0
EXTRACT: note_off channel=3 note=60 velocity=0 time=0.012885208333333334
EXTRACT: control_change channel=3 control=64 value=127 time=0
EXTRACT: pitchwheel channel=10 pitch=-256 time=0.051540833333333334
EXTRACT: note_on channel=9 note=40 velocity=100 time=0.012885208333333334
EXTRACT: note_on channel=9 note=90 velocity=127 time=0.012885208333333334
EXTRACT: note_on channel=9 note=44 velocity=71 time=0
EXTRACT: note_on channel=9 note=42 velocity=71 time=0
EXTRACT: note_on channel=9 note=70 velocity=40 time=0
EXTRACT: note_on channel=9 note=54 velocity=127 time=0
EXTRACT: note_on channel=3 note=60 velocity=75 time=0.012885208333333334
EXTRACT: note_on channel=3 note=63 velocity=75 time=0
EXTRACT: note_on channel=3 note=67 velocity=75 time=0.012885208333333334
EXTRACT: note_on channel=3 note=72 velocity=75 time=0
EXTRACT: note_off channel=3 note=60 velocity=0 time=0.025770416666666667
EXTRACT: note_off channel=9 note=54 velocity=0 time=0
EXTRACT: note_off channel=9 note=70 velocity=0 time=0
EXTRACT: note_off channel=9 note=42 velocity=0 time=0
EXTRACT: note_off channel=9 note=44 velocity=0 time=0
EXTRACT: note_off channel=3 note=63 velocity=0 time=0.012885208333333334
EXTRACT: note_off channel=3 note=72 velocity=0 time=0.012885208333333334
EXTRACT: note_off channel=3 note=67 velocity=0 time=0
EXTRACT: pitchwheel channel=10 pitch=-1024 time=0.012885208333333334
EXTRACT: note_off channel=2 note=36 velocity=0 time=0.038655625
EXTRACT: note_off channel=9 note=90 velocity=0 time=0
EXTRACT: note_off channel=9 note=40 velocity=0 time=0
EXTRACT: note_on channel=3 note=72 velocity=54 time=0.012885208333333334
EXTRACT: note_on channel=9 note=70 velocity=65 time=0
EXTRACT: note_on channel=9 note=54 velocity=64 time=0
EXTRACT: pitchwheel channel=10 pitch=-1792 time=0
EXTRACT: note_on channel=3 note=67 velocity=54 time=0.012885208333333334
EXTRACT: note_on channel=3 note=63 velocity=54 time=0.012885208333333334
EXTRACT: note_on channel=3 note=60 velocity=54 time=0.012885208333333334
EXTRACT: pitchwheel channel=10 pitch=-2304 time=0.012885208333333334
EXTRACT: note_off channel=3 note=72 velocity=0 time=0.012885208333333334
EXTRACT: note_off channel=9 note=54 velocity=0 time=0
EXTRACT: note_off channel=9 note=70 velocity=0 time=0
EXTRACT: note_off channel=3 note=67 velocity=0 time=0.012885208333333334
EXTRACT: note_off channel=3 note=63 velocity=0 time=0.012885208333333334
EXTRACT: pitchwheel channel=10 pitch=-2816 time=0
EXTRACT: note_off channel=3 note=60 velocity=0 time=0.012885208333333334
EXTRACT: note_on channel=3 note=60 velocity=50 time=0.051540833333333334
EXTRACT: note_on channel=9 note=42 velocity=40 time=0
EXTRACT: note_on channel=9 note=70 velocity=110 time=0
EXTRACT: note_on channel=9 note=54 velocity=111 time=0.012885208333333334
EXTRACT: pitchwheel channel=10 pitch=-4096 time=0
EXTRACT: note_on channel=3 note=63 velocity=50 time=0.012885208333333334
EXTRACT: note_on channel=3 note=67 velocity=50 time=0
EXTRACT: note_on channel=3 note=72 velocity=50 time=0
EXTRACT: note_off channel=3 note=60 velocity=0 time=0.038655625
EXTRACT: note_off channel=9 note=54 velocity=0 time=0
EXTRACT: note_off channel=9 note=70 velocity=0 time=0
EXTRACT: note_off channel=9 note=42 velocity=0 time=0
EXTRACT: pitchwheel channel=10 pitch=-4608 time=0
EXTRACT: note_off channel=3 note=67 velocity=0 time=0.012885208333333334
EXTRACT: note_off channel=3 note=63 velocity=0 time=0
EXTRACT: note_off channel=3 note=72 velocity=0 time=0.012885208333333334
EXTRACT: pitchwheel channel=10 pitch=-4864 time=0.012885208333333334
EXTRACT: note_on channel=3 note=72 velocity=77 time=0.051540833333333334
EXTRACT: note_on channel=9 note=36 velocity=110 time=0
EXTRACT: note_on channel=9 note=70 velocity=64 time=0
EXTRACT: note_on channel=3 note=67 velocity=77 time=0.012885208333333334
EXTRACT: note_on channel=3 note=63 velocity=77 time=0
EXTRACT: note_on channel=3 note=60 velocity=77 time=0.012885208333333334
EXTRACT: note_off channel=3 note=72 velocity=0 time=0.038655625
EXTRACT: note_off channel=9 note=70 velocity=0 time=0
EXTRACT: note_off channel=9 note=36 velocity=0 time=0
EXTRACT: note_off channel=3 note=63 velocity=0 time=0.012885208333333334
EXTRACT: note_off channel=3 note=67 velocity=0 time=0
EXTRACT: pitchwheel channel=10 pitch=-5120 time=0
EXTRACT: note_off channel=3 note=60 velocity=0 time=0.012885208333333334
EXTRACT: pitchwheel channel=10 pitch=-5888 time=0.025770416666666667
EXTRACT: note_on channel=9 note=40 velocity=100 time=0.038655625
EXTRACT: note_on channel=9 note=90 velocity=125 time=0
EXTRACT: note_on channel=2 note=36 velocity=110 time=0.012885208333333334
EXTRACT: note_on channel=4 note=60 velocity=116 time=0
EXTRACT: note_on channel=9 note=70 velocity=110 time=0
EXTRACT: note_on channel=9 note=44 velocity=40 time=0
EXTRACT: pitchwheel channel=10 pitch=-6144 time=0
EXTRACT: pitchwheel channel=10 pitch=-6656 time=0.038655625
EXTRACT: note_off channel=4 note=60 velocity=0 time=0.012885208333333334
EXTRACT: note_off channel=9 note=44 velocity=0 time=0
EXTRACT: note_off channel=9 note=70 velocity=0 time=0
EXTRACT: note_off channel=9 note=90 velocity=0 time=0
EXTRACT: note_off channel=9 note=40 velocity=0 time=0
EXTRACT: pitchwheel channel=10 pitch=-6912 time=0.025770416666666667
EXTRACT: pitchwheel channel=10 pitch=-7168 time=0.038655625
EXTRACT: note_on channel=3 note=60 velocity=93 time=0.025770416666666667
EXTRACT: note_on channel=9 note=70 velocity=10 time=0
EXTRACT: note_on channel=3 note=63 velocity=93 time=0.012885208333333334
EXTRACT: note_on channel=3 note=67 velocity=93 time=0
EXTRACT: pitchwheel channel=10 pitch=-7680 time=0
EXTRACT: note_on channel=3 note=72 velocity=93 time=0.012885208333333334
EXTRACT: pitchwheel channel=10 pitch=-7936 time=0.025770416666666667
EXTRACT: note_off channel=3 note=60 velocity=0 time=0.012885208333333334
EXTRACT: note_off channel=9 note=70 velocity=0 time=0
EXTRACT: note_off channel=3 note=67 velocity=0 time=0.012885208333333334
EXTRACT: note_off channel=3 note=63 velocity=0 time=0
EXTRACT: note_off channel=3 note=72 velocity=0 time=0.012885208333333334
EXTRACT: note_off channel=10 note=60 velocity=0 time=0.051540833333333334
EXTRACT: note_on channel=9 note=40 velocity=100 time=0.012885208333333334
EXTRACT: note_on channel=9 note=90 velocity=123 time=0
EXTRACT: note_on channel=9 note=70 velocity=24 time=0
EXTRACT: note_on channel=3 note=72 velocity=44 time=0.012885208333333334
EXTRACT: note_on channel=3 note=67 velocity=44 time=0
EXTRACT: note_on channel=3 note=63 velocity=44 time=0.012885208333333334
EXTRACT: note_on channel=3 note=60 velocity=44 time=0.012885208333333334
EXTRACT: note_off channel=2 note=36 velocity=0 time=0.025770416666666667
EXTRACT: note_off channel=3 note=72 velocity=0 time=0
EXTRACT: note_off channel=9 note=70 velocity=0 time=0
EXTRACT: note_off channel=9 note=90 velocity=0 time=0
EXTRACT: note_off channel=9 note=40 velocity=0 time=0
EXTRACT: note_off channel=3 note=67 velocity=0 time=0.012885208333333334
EXTRACT: note_off channel=3 note=63 velocity=0 time=0.012885208333333334
EXTRACT: note_off channel=3 note=60 velocity=0 time=0.012885208333333334
EXTRACT: note_on channel=2 note=36 velocity=125 time=0.051540833333333334
EXTRACT: note_on channel=9 note=36 velocity=110 time=0
EXTRACT: note_on channel=9 note=70 velocity=64 time=0
EXTRACT: pitchwheel channel=10 pitch=-6912 time=0
EXTRACT: note_on channel=4 note=60 velocity=113 time=0.012885208333333334
EXTRACT: pitchwheel channel=10 pitch=-512 time=0.025770416666666667
EXTRACT: note_off channel=4 note=60 velocity=0 time=0.012885208333333334
EXTRACT: note_off channel=9 note=70 velocity=0 time=0.012885208333333334
EXTRACT: note_off channel=9 note=36 velocity=0 time=0
EXTRACT: note_on channel=9 note=40 velocity=40 time=0.012885208333333334
EXTRACT: pitchwheel channel=10 pitch=0 time=0
EXTRACT: note_off channel=9 note=40 velocity=0 time=0.012885208333333334
EXTRACT: note_on channel=9 note=40 velocity=60 time=0.025770416666666667
EXTRACT: note_off channel=9 note=40 velocity=0 time=0.012885208333333334
EXTRACT: note_on channel=9 note=40 velocity=100 time=0.025770416666666667
EXTRACT: note_on channel=3 note=60 velocity=83 time=0.012885208333333334
EXTRACT: note_on channel=3 note=63 velocity=83 time=0
EXTRACT: note_on channel=9 note=90 velocity=127 time=0
EXTRACT: note_on channel=9 note=44 velocity=71 time=0
EXTRACT: note_on channel=9 note=70 velocity=110 time=0
EXTRACT: note_on channel=3 note=67 velocity=83 time=0.012885208333333334
EXTRACT: note_on channel=3 note=72 velocity=83 time=0.012885208333333334
EXTRACT: note_off channel=3 note=63 velocity=0 time=0.025770416666666667
EXTRACT: note_off channel=3 note=60 velocity=0 time=0
EXTRACT: note_off channel=9 note=70 velocity=0 time=0
EXTRACT: note_off channel=9 note=44 velocity=0 time=0
EXTRACT: note_off channel=3 note=67 velocity=0 time=0.012885208333333334
EXTRACT: control_change channel=10 control=0 value=0 time=0
EXTRACT: control_change channel=10 control=0 value=0 time=0
EXTRACT: control_change channel=10 control=32 value=0 time=0
EXTRACT: control_change channel=10 control=0 value=0 time=0
EXTRACT: control_change channel=10 control=32 value=0 time=0
EXTRACT: program_change channel=10 program=0 time=0
EXTRACT: control_change channel=10 control=93 value=0 time=0
EXTRACT: note_off channel=3 note=72 velocity=0 time=0.025770416666666667
EXTRACT: note_off channel=9 note=90 velocity=0 time=0.038655625
EXTRACT: note_off channel=9 note=40 velocity=0 time=0
EXTRACT: note_on channel=3 note=72 velocity=44 time=0.012885208333333334
EXTRACT: note_on channel=9 note=47 velocity=110 time=0
EXTRACT: note_on channel=9 note=70 velocity=10 time=0
EXTRACT: note_on channel=3 note=67 velocity=44 time=0.012885208333333334
EXTRACT: note_on channel=3 note=63 velocity=44 time=0.012885208333333334
EXTRACT: note_on channel=3 note=60 velocity=44 time=0
EXTRACT: note_off channel=3 note=72 velocity=0 time=0.038655625
EXTRACT: note_off channel=9 note=70 velocity=0 time=0
EXTRACT: note_off channel=9 note=47 velocity=0 time=0
EXTRACT: note_off channel=3 note=67 velocity=0 time=0.012885208333333334
EXTRACT: note_off channel=3 note=60 velocity=0 time=0.012885208333333334
EXTRACT: note_off channel=3 note=63 velocity=0 time=0
EXTRACT: note_off channel=2 note=36 velocity=0 time=0.012885208333333334
EXTRACT: note_on channel=2 note=36 velocity=125 time=0.051540833333333334
EXTRACT: note_on channel=9 note=45 velocity=110 time=0
EXTRACT: note_on channel=9 note=70 velocity=22 time=0
EXTRACT: note_on channel=4 note=60 velocity=96 time=0.012885208333333334
EXTRACT: note_off channel=4 note=60 velocity=0 time=0.025770416666666667
EXTRACT: note_off channel=9 note=70 velocity=0 time=0.025770416666666667
EXTRACT: note_off channel=9 note=45 velocity=0 time=0
EXTRACT: note_off channel=2 note=36 velocity=0 time=0.09019645833333334
EXTRACT: control_change channel=3 control=64 value=0 time=0
EXTRACT: note_off channel=4 note=60 velocity=0 time=0
EXTRACT: control_change channel=4 control=0 value=0 time=0
EXTRACT: control_change channel=4 control=0 value=0 time=0
EXTRACT: control_change channel=4 control=32 value=0 time=0
EXTRACT: control_change channel=4 control=0 value=0 time=0
EXTRACT: control_change channel=4 control=32 value=0 time=0
EXTRACT: program_change channel=4 program=89 time=0
EXTRACT: control_change channel=3 control=64 value=127 time=0.012885208333333334
EXTRACT: note_off channel=4 note=63 velocity=0 time=0
EXTRACT: note_on channel=9 note=36 velocity=91 time=0
EXTRACT: control_change channel=3 control=64 value=0 time=0.012885208333333334
EXTRACT: note_on channel=4 note=60 velocity=81 time=0
EXTRACT: note_on channel=9 note=55 velocity=85 time=0
EXTRACT: note_on channel=9 note=70 velocity=67 time=0
EXTRACT: note_off channel=4 note=60 velocity=0 time=0.0016106510416666667
EXTRACT: control_change channel=3 control=64 value=127 time=0.011274557291666668
EXTRACT: note_off channel=9 note=70 velocity=0 time=0.025770416666666667
EXTRACT: note_off channel=9 note=55 velocity=0 time=0
EXTRACT: note_off channel=9 note=36 velocity=0 time=0
EXTRACT: control_change channel=3 control=64 value=0 time=0.07731125
EXTRACT: program_change channel=9 program=0 time=0.025770416666666667
EXTRACT: note_on channel=9 note=49 velocity=90 time=0
EXTRACT: program_change channel=9 program=32 time=0
EXTRACT: note_on channel=10 note=53 velocity=78 time=0
EXTRACT: note_on channel=10 note=56 velocity=48 time=0
EXTRACT: note_off channel=9 note=49 velocity=0 time=0.0016106510416666667
EXTRACT: note_on channel=4 note=65 velocity=111 time=0.011274557291666668
EXTRACT: note_on channel=4 note=60 velocity=104 time=0
EXTRACT: note_on channel=9 note=36 velocity=127 time=0
EXTRACT: note_on channel=9 note=44 velocity=69 time=0
EXTRACT: note_on channel=2 note=29 velocity=127 time=0.012885208333333334
EXTRACT: note_on channel=9 note=70 velocity=107 time=0
EXTRACT: note_on channel=9 note=42 velocity=69 time=0
EXTRACT: note_off channel=9 note=70 velocity=0 time=0.025770416666666667
EXTRACT: note_off channel=10 note=53 velocity=0 time=0.06442604166666667
EXTRACT: note_off channel=9 note=42 velocity=0 time=0.012885208333333334
EXTRACT: note_off channel=9 note=44 velocity=0 time=0
EXTRACT: note_off channel=9 note=36 velocity=0 time=0
EXTRACT: note_on channel=9 note=70 velocity=8 time=0.012885208333333334
EXTRACT: note_off channel=10 note=56 velocity=0 time=0
EXTRACT: note_off channel=9 note=70 velocity=0 time=0.06442604166666667
EXTRACT: note_on channel=9 note=70 velocity=22 time=0.09019645833333334
EXTRACT: note_on channel=9 note=42 velocity=36 time=0
EXTRACT: note_on channel=10 note=53 velocity=67 time=0.012885208333333334
EXTRACT: note_on channel=10 note=56 velocity=68 time=0.012885208333333334
EXTRACT: note_off channel=2 note=29 velocity=0 time=0.038655625
EXTRACT: note_off channel=9 note=42 velocity=0 time=0
EXTRACT: note_off channel=9 note=70 velocity=0 time=0
EXTRACT: note_on channel=9 note=36 velocity=99 time=0.09019645833333334
EXTRACT: note_off channel=10 note=53 velocity=0 time=0
EXTRACT: note_on channel=9 note=70 velocity=60 time=0.012885208333333334
EXTRACT: note_off channel=10 note=56 velocity=0 time=0
EXTRACT: note_off channel=9 note=70 velocity=0 time=0.051540833333333334
EXTRACT: note_off channel=9 note=36 velocity=0 time=0
EXTRACT: note_on channel=9 note=40 velocity=100 time=0.09019645833333334
EXTRACT: note_on channel=9 note=90 velocity=127 time=0.012885208333333334
EXTRACT: note_on channel=9 note=44 velocity=71 time=0
EXTRACT: note_on channel=9 note=70 velocity=113 time=0
EXTRACT: note_on channel=9 note=42 velocity=71 time=0
EXTRACT: note_on channel=10 note=53 velocity=66 time=0
EXTRACT: note_on channel=10 note=56 velocity=63 time=0.012885208333333334
EXTRACT: note_off channel=9 note=42 velocity=0 time=0.038655625
EXTRACT: note_off channel=9 note=70 velocity=0 time=0
EXTRACT: note_off channel=9 note=44 velocity=0 time=0
EXTRACT: note_off channel=10 note=53 velocity=0 time=0.06442604166666667
EXTRACT: note_off channel=9 note=90 velocity=0 time=0.012885208333333334
EXTRACT: note_off channel=9 note=40 velocity=0 time=0
EXTRACT: note_on channel=9 note=70 velocity=10 time=0.012885208333333334
EXTRACT: note_off channel=10 note=56 velocity=0 time=0
EXTRACT: note_off channel=9 note=70 velocity=0 time=0.06442604166666667
EXTRACT: note_on channel=9 note=70 velocity=24 time=0.09019645833333334
EXTRACT: note_on channel=9 note=42 velocity=40 time=0
EXTRACT: note_on channel=10 note=53 velocity=67 time=0.012885208333333334
EXTRACT: note_on channel=10 note=56 velocity=68 time=0
EXTRACT: note_off channel=9 note=42 velocity=0 time=0.051540833333333334
EXTRACT: note_off channel=9 note=70 velocity=0 time=0
EXTRACT: note_off channel=10 note=53 velocity=0 time=0.06442604166666667
EXTRACT: note_off channel=10 note=56 velocity=0 time=0.012885208333333334
EXTRACT: note_on channel=9 note=70 velocity=64 time=0.012885208333333334
EXTRACT: note_off channel=9 note=70 velocity=0 time=0.06442604166666667
EXTRACT: note_on channel=9 note=70 velocity=110 time=0.09019645833333334
EXTRACT: note_on channel=9 note=42 velocity=69 time=0
EXTRACT: note_on channel=9 note=44 velocity=69 time=0.012885208333333334
EXTRACT: note_on channel=10 note=56 velocity=73 time=0
EXTRACT: note_on channel=10 note=53 velocity=73 time=0
EXTRACT: note_off channel=9 note=44 velocity=0 time=0.051540833333333334
EXTRACT: note_off channel=9 note=42 velocity=0 time=0
EXTRACT: note_off channel=9 note=70 velocity=0 time=0
EXTRACT: note_off channel=10 note=53 velocity=0 time=0.06442604166666667
EXTRACT: note_off channel=10 note=56 velocity=0 time=0
EXTRACT: note_on channel=9 note=36 velocity=93 time=0.025770416666666667
EXTRACT: note_on channel=9 note=70 velocity=10 time=0
EXTRACT: note_off channel=9 note=70 velocity=0 time=0.06442604166666667
EXTRACT: note_off channel=9 note=36 velocity=0 time=0
EXTRACT: note_on channel=9 note=36 velocity=123 time=0.09019645833333334
EXTRACT: note_on channel=9 note=70 velocity=24 time=0
EXTRACT: note_on channel=9 note=42 velocity=38 time=0.012885208333333334
EXTRACT: note_on channel=10 note=53 velocity=74 time=0.012885208333333334
EXTRACT: note_on channel=10 note=56 velocity=76 time=0
EXTRACT: note_off channel=9 note=42 velocity=0 time=0.038655625
EXTRACT: note_off channel=9 note=70 velocity=0 time=0
EXTRACT: note_off channel=9 note=36 velocity=0 time=0
EXTRACT: note_off channel=10 note=53 velocity=0 time=0.051540833333333334
EXTRACT: note_off channel=10 note=56 velocity=0 time=0.025770416666666667
EXTRACT: note_on channel=9 note=70 velocity=64 time=0.012885208333333334
EXTRACT: note_off channel=9 note=70 velocity=0 time=0.06442604166666667
EXTRACT: note_on channel=9 note=40 velocity=100 time=0.09019645833333334
EXTRACT: note_on channel=9 note=90 velocity=127 time=0.012885208333333334
EXTRACT: note_on channel=9 note=44 velocity=71 time=0
EXTRACT: note_on channel=9 note=70 velocity=110 time=0
EXTRACT: note_on channel=9 note=42 velocity=71 time=0
EXTRACT: note_on channel=10 note=53 velocity=73 time=0.012885208333333334
EXTRACT: note_on channel=10 note=56 velocity=73 time=0
EXTRACT: note_off channel=9 note=42 velocity=0 time=0.038655625
EXTRACT: note_off channel=9 note=70 velocity=0 time=0
EXTRACT: note_off channel=9 note=44 velocity=0 time=0
EXTRACT: note_off channel=10 note=56 velocity=0 time=0.051540833333333334
EXTRACT: note_off channel=10 note=53 velocity=0 time=0.012885208333333334
EXTRACT: note_off channel=9 note=90 velocity=0 time=0.012885208333333334
EXTRACT: note_off channel=9 note=40 velocity=0 time=0
EXTRACT: note_on channel=9 note=36 velocity=110 time=0.012885208333333334
EXTRACT: note_on channel=9 note=70 velocity=10 time=0
EXTRACT: note_off channel=9 note=70 velocity=0 time=0.06442604166666667
EXTRACT: note_off channel=9 note=36 velocity=0 time=0
EXTRACT: note_on channel=9 note=70 velocity=22 time=0.09019645833333334
EXTRACT: note_on channel=9 note=42 velocity=42 time=0
EXTRACT: note_on channel=10 note=53 velocity=63 time=0.025770416666666667
EXTRACT: note_on channel=10 note=56 velocity=79 time=0
EXTRACT: note_off channel=9 note=42 velocity=0 time=0.038655625
EXTRACT: note_off channel=9 note=70 velocity=0 time=0
EXTRACT: note_off channel=10 note=56 velocity=0 time=0.051540833333333334
EXTRACT: note_off channel=10 note=53 velocity=0 time=0
EXTRACT: note_on channel=9 note=36 velocity=75 time=0.038655625
EXTRACT: note_on channel=9 note=70 velocity=67 time=0
EXTRACT: note_off channel=9 note=70 velocity=0 time=0.06442604166666667
EXTRACT: note_off channel=9 note=36 velocity=0 time=0
EXTRACT: note_on channel=9 note=36 velocity=110 time=0.09019645833333334
EXTRACT: note_on channel=9 note=70 velocity=107 time=0.012885208333333334
EXTRACT: note_on channel=9 note=42 velocity=69 time=0
EXTRACT: note_on channel=9 note=44 velocity=69 time=0
EXTRACT: note_on channel=10 note=53 velocity=67 time=0
EXTRACT: note_on channel=10 note=56 velocity=73 time=0
EXTRACT: note_off channel=9 note=70 velocity=0 time=0.051540833333333334
EXTRACT: note_off channel=9 note=36 velocity=0 time=0
EXTRACT: note_off channel=10 note=56 velocity=0 time=0.038655625
EXTRACT: note_off channel=10 note=53 velocity=0 time=0
EXTRACT: note_off channel=9 note=44 velocity=0 time=0.038655625
EXTRACT: note_off channel=9 note=42 velocity=0 time=0
EXTRACT: note_on channel=9 note=70 velocity=8 time=0.012885208333333334
EXTRACT: note_off channel=9 note=70 velocity=0 time=0.06442604166666667
EXTRACT: note_on channel=9 note=70 velocity=22 time=0.09019645833333334
EXTRACT: note_on channel=9 note=42 velocity=36 time=0
EXTRACT: note_on channel=10 note=53 velocity=67 time=0.012885208333333334
EXTRACT: note_on channel=10 note=56 velocity=72 time=0
EXTRACT: note_off channel=9 note=42 velocity=0 time=0.051540833333333334
EXTRACT: note_off channel=9 note=70 velocity=0 time=0
EXTRACT: note_off channel=10 note=56 velocity=0 time=0.051540833333333334
EXTRACT: note_off channel=10 note=53 velocity=0 time=0
EXTRACT: note_on channel=9 note=36 velocity=110 time=0.038655625
EXTRACT: note_on channel=9 note=70 velocity=60 time=0
EXTRACT: note_off channel=9 note=70 velocity=0 time=0.06442604166666667
EXTRACT: note_off channel=9 note=36 velocity=0 time=0
EXTRACT: note_on channel=9 note=40 velocity=100 time=0.09019645833333334
EXTRACT: note_on channel=9 note=90 velocity=127 time=0.012885208333333334
EXTRACT: note_on channel=9 note=44 velocity=71 time=0
EXTRACT: note_on channel=9 note=70 velocity=113 time=0
EXTRACT: note_on channel=10 note=53 velocity=60 time=0
EXTRACT: note_on channel=10 note=56 velocity=72 time=0
EXTRACT: note_on channel=9 note=42 velocity=71 time=0.012885208333333334
EXTRACT: note_off channel=9 note=42 velocity=0 time=0.038655625
EXTRACT: note_off channel=9 note=70 velocity=0 time=0
EXTRACT: note_off channel=9 note=44 velocity=0 time=0
EXTRACT: note_off channel=10 note=56 velocity=0 time=0.051540833333333334
EXTRACT: note_off channel=10 note=53 velocity=0 time=0
EXTRACT: note_off channel=9 note=90 velocity=0 time=0.025770416666666667
EXTRACT: note_off channel=9 note=40 velocity=0 time=0
EXTRACT: note_on channel=9 note=70 velocity=10 time=0.012885208333333334
EXTRACT: note_off channel=9 note=70 velocity=0 time=0.06442604166666667
EXTRACT: note_on channel=9 note=70 velocity=24 time=0.09019645833333334
EXTRACT: note_on channel=9 note=42 velocity=40 time=0
EXTRACT: note_on channel=10 note=53 velocity=63 time=0
EXTRACT: note_on channel=10 note=56 velocity=64 time=0.012885208333333334
EXTRACT: note_off channel=9 note=42 velocity=0 time=0.051540833333333334
EXTRACT: note_off channel=9 note=70 velocity=0 time=0
EXTRACT: note_off channel=10 note=56 velocity=0 time=0.051540833333333334
EXTRACT: note_off channel=10 note=53 velocity=0 time=0
EXTRACT: note_on channel=9 note=70 velocity=64 time=0.038655625
EXTRACT: note_off channel=9 note=70 velocity=0 time=0.06442604166666667
EXTRACT: note_on channel=9 note=70 velocity=110 time=0.09019645833333334
EXTRACT: note_on channel=9 note=42 velocity=69 time=0.012885208333333334
EXTRACT: note_on channel=9 note=44 velocity=69 time=0
EXTRACT: note_on channel=10 note=53 velocity=70 time=0
EXTRACT: note_on channel=10 note=56 velocity=60 time=0
EXTRACT: note_off channel=9 note=44 velocity=0 time=0.051540833333333334
EXTRACT: note_off channel=9 note=42 velocity=0 time=0
EXTRACT: note_off channel=9 note=70 velocity=0 time=0
EXTRACT: note_off channel=10 note=53 velocity=0 time=0.038655625
EXTRACT: note_off channel=10 note=56 velocity=0 time=0.012885208333333334
EXTRACT: note_on channel=9 note=36 velocity=110 time=0.038655625
EXTRACT: note_on channel=9 note=70 velocity=10 time=0
EXTRACT: note_off channel=9 note=70 velocity=0 time=0.06442604166666667
EXTRACT: note_off channel=9 note=36 velocity=0 time=0
EXTRACT: note_on channel=9 note=36 velocity=110 time=0.09019645833333334
EXTRACT: note_on channel=9 note=70 velocity=24 time=0
EXTRACT: note_on channel=9 note=42 velocity=38 time=0.012885208333333334
EXTRACT: note_on channel=10 note=53 velocity=51 time=0
EXTRACT: note_on channel=10 note=56 velocity=58 time=0
EXTRACT: note_off channel=9 note=42 velocity=0 time=0.051540833333333334
EXTRACT: note_off channel=9 note=70 velocity=0 time=0
EXTRACT: note_off channel=9 note=36 velocity=0 time=0
EXTRACT: note_off channel=10 note=53 velocity=0 time=0.06442604166666667
EXTRACT: note_off channel=10 note=56 velocity=0 time=0.012885208333333334
EXTRACT: note_on channel=9 note=70 velocity=64 time=0.012885208333333334
EXTRACT: note_off channel=9 note=70 velocity=0 time=0.06442604166666667
EXTRACT: note_on channel=9 note=40 velocity=100 time=0.10308166666666667
EXTRACT: note_on channel=9 note=90 velocity=127 time=0
EXTRACT: note_on channel=9 note=44 velocity=71 time=0
EXTRACT: note_on channel=10 note=53 velocity=60 time=0
EXTRACT: note_on channel=10 note=56 velocity=68 time=0
EXTRACT: note_on channel=9 note=70 velocity=110 time=0.012885208333333334
EXTRACT: note_on channel=9 note=42 velocity=71 time=0
EXTRACT: note_off channel=9 note=42 velocity=0 time=0.038655625
EXTRACT: note_off channel=9 note=70 velocity=0 time=0
EXTRACT: note_off channel=9 note=44 velocity=0 time=0
EXTRACT: note_off channel=10 note=53 velocity=0 time=0.06442604166666667
EXTRACT: note_off channel=9 note=90 velocity=0 time=0.012885208333333334
EXTRACT: note_off channel=9 note=40 velocity=0 time=0
EXTRACT: note_on channel=9 note=70 velocity=10 time=0.012885208333333334
EXTRACT: note_off channel=10 note=56 velocity=0 time=0
EXTRACT: note_off channel=9 note=70 velocity=0 time=0.06442604166666667
EXTRACT: note_on channel=9 note=70 velocity=22 time=0.09019645833333334
EXTRACT: note_on channel=9 note=42 velocity=42 time=0
EXTRACT: note_on channel=10 note=56 velocity=65 time=0.025770416666666667
EXTRACT: note_on channel=10 note=53 velocity=66 time=0
EXTRACT: note_off channel=9 note=42 velocity=0 time=0.038655625
EXTRACT: note_off channel=9 note=70 velocity=0 time=0
EXTRACT: note_off channel=10 note=53 velocity=0 time=0.07731125
EXTRACT: note_on channel=9 note=70 velocity=67 time=0.012885208333333334
EXTRACT: note_off channel=10 note=56 velocity=0 time=0.012885208333333334
EXTRACT: note_off channel=9 note=70 velocity=0 time=0.051540833333333334
EXTRACT: note_on channel=9 note=36 velocity=127 time=0.09019645833333334
EXTRACT: note_on channel=9 note=44 velocity=69 time=0.012885208333333334
EXTRACT: note_on channel=9 note=70 velocity=107 time=0
EXTRACT: note_on channel=9 note=42 velocity=69 time=0
EXTRACT: note_on channel=10 note=56 velocity=62 time=0.012885208333333334
EXTRACT: note_on channel=10 note=53 velocity=59 time=0.012885208333333334
EXTRACT: note_off channel=9 note=70 velocity=0 time=0.025770416666666667
EXTRACT: note_off channel=9 note=42 velocity=0 time=0.07731125
EXTRACT: note_off channel=9 note=44 velocity=0 time=0
EXTRACT: note_off channel=9 note=36 velocity=0 time=0
EXTRACT: note_off channel=10 note=53 velocity=0 time=0
EXTRACT: note_on channel=9 note=70 velocity=8 time=0.012885208333333334
EXTRACT: note_off channel=10 note=56 velocity=0 time=0.012885208333333334
EXTRACT: note_off channel=9 note=70 velocity=0 time=0.051540833333333334
EXTRACT: note_on channel=9 note=70 velocity=22 time=0.09019645833333334
EXTRACT: note_on channel=9 note=42 velocity=36 time=0
EXTRACT: note_on channel=10 note=53 velocity=63 time=0.025770416666666667
EXTRACT: note_on channel=10 note=56 velocity=65 time=0
EXTRACT: note_off channel=9 note=42 velocity=0 time=0.038655625
EXTRACT: note_off channel=9 note=70 velocity=0 time=0
EXTRACT: note_off channel=10 note=53 velocity=0 time=0.07731125
EXTRACT: note_on channel=9 note=36 velocity=99 time=0.012885208333333334
EXTRACT: note_on channel=9 note=70 velocity=60 time=0
EXTRACT: note_off channel=10 note=56 velocity=0 time=0.025770416666666667
EXTRACT: note_off channel=9 note=70 velocity=0 time=0.038655625
EXTRACT: note_off channel=9 note=36 velocity=0 time=0
EXTRACT: note_on channel=9 note=40 velocity=100 time=0.09019645833333334
EXTRACT: note_on channel=9 note=90 velocity=127 time=0.012885208333333334
EXTRACT: note_on channel=9 note=44 velocity=71 time=0
EXTRACT: note_on channel=9 note=70 velocity=113 time=0
EXTRACT: note_on channel=9 note=42 velocity=71 time=0
EXTRACT: note_on channel=10 note=56 velocity=69 time=0.012885208333333334
EXTRACT: note_on channel=10 note=53 velocity=73 time=0.012885208333333334
EXTRACT: note_off channel=9 note=42 velocity=0 time=0.025770416666666667
EXTRACT: note_off channel=9 note=70 velocity=0 time=0
EXTRACT: note_off channel=9 note=44 velocity=0 time=0
EXTRACT: note_off channel=9 note=90 velocity=0 time=0.07731125
EXTRACT: note_off channel=9 note=40 velocity=0 time=0
EXTRACT: note_off channel=10 note=53 velocity=0 time=0
EXTRACT: note_on channel=9 note=70 velocity=10 time=0.012885208333333334
EXTRACT: note_off channel=10 note=56 velocity=0 time=0.025770416666666667
EXTRACT: note_off channel=9 note=70 velocity=0 time=0.038655625
EXTRACT: note_on channel=9 note=70 velocity=24 time=0.09019645833333334
EXTRACT: note_on channel=9 note=42 velocity=40 time=0
EXTRACT: note_on channel=10 note=53 velocity=66 time=0.025770416666666667
EXTRACT: note_on channel=10 note=56 velocity=72 time=0
EXTRACT: note_off channel=9 note=42 velocity=0 time=0.038655625
EXTRACT: note_off channel=9 note=70 velocity=0 time=0
EXTRACT: note_off channel=10 note=53 velocity=0 time=0.07731125
EXTRACT: note_on channel=9 note=70 velocity=64 time=0.012885208333333334
EXTRACT: note_off channel=10 note=56 velocity=0 time=0.025770416666666667
EXTRACT: note_off channel=9 note=70 velocity=0 time=0.038655625
EXTRACT: note_on channel=9 note=70 velocity=110 time=0.09019645833333334
EXTRACT: note_on channel=9 note=42 velocity=69 time=0.012885208333333334
EXTRACT: note_on channel=9 note=44 velocity=69 time=0
EXTRACT: note_on channel=10 note=53 velocity=70 time=0.012885208333333334
EXTRACT: note_on channel=10 note=56 velocity=68 time=0
EXTRACT: note_off channel=9 note=44 velocity=0 time=0.038655625
EXTRACT: note_off channel=9 note=42 velocity=0 time=0
EXTRACT: note_off channel=9 note=70 velocity=0 time=0
EXTRACT: note_on channel=9 note=36 velocity=93 time=0.09019645833333334
EXTRACT: note_on channel=9 note=70 velocity=10 time=0
EXTRACT: note_off channel=10 note=53 velocity=0 time=0
EXTRACT: note_off channel=10 note=56 velocity=0 time=0.025770416666666667
EXTRACT: note_off channel=9 note=70 velocity=0 time=0.038655625
EXTRACT: note_off channel=9 note=36 velocity=0 time=0
EXTRACT: note_on channel=9 note=36 velocity=123 time=0.09019645833333334
EXTRACT: note_on channel=9 note=70 velocity=24 time=0
EXTRACT: note_on channel=9 note=42 velocity=38 time=0.012885208333333334
EXTRACT: note_on channel=10 note=56 velocity=77 time=0.012885208333333334
EXTRACT: note_on channel=10 note=53 velocity=77 time=0
EXTRACT: note_off channel=9 note=42 velocity=0 time=0.038655625
EXTRACT: note_off channel=9 note=70 velocity=0 time=0
EXTRACT: note_off channel=9 note=36 velocity=0 time=0
EXTRACT: note_on channel=9 note=70 velocity=64 time=0.09019645833333334
EXTRACT: note_off channel=10 note=53 velocity=0 time=0.025770416666666667
EXTRACT: note_off channel=9 note=70 velocity=0 time=0.038655625
EXTRACT: note_off channel=10 note=56 velocity=0 time=0.012885208333333334
EXTRACT: note_on channel=9 note=40 velocity=100 time=0.07731125
EXTRACT: note_on channel=9 note=90 velocity=127 time=0.012885208333333334
EXTRACT: note_on channel=9 note=44 velocity=71 time=0
EXTRACT: note_on channel=9 note=70 velocity=110 time=0
EXTRACT: note_on channel=10 note=56 velocity=65 time=0
EXTRACT: note_on channel=9 note=42 velocity=71 time=0.012885208333333334
EXTRACT: note_on channel=10 note=53 velocity=76 time=0
EXTRACT: note_off channel=9 note=42 velocity=0 time=0.038655625
EXTRACT: note_off channel=9 note=70 velocity=0 time=0
EXTRACT: note_off channel=9 note=44 velocity=0 time=0
EXTRACT: note_off channel=9 note=90 velocity=0 time=0.07731125
EXTRACT: note_off channel=9 note=40 velocity=0 time=0
EXTRACT: note_on channel=9 note=36 velocity=110 time=0.012885208333333334
EXTRACT: note_on channel=9 note=70 velocity=10 time=0
EXTRACT: note_off channel=10 note=53 velocity=0 time=0.038655625
EXTRACT: note_off channel=9 note=70 velocity=0 time=0.025770416666666667
EXTRACT: note_off channel=9 note=36 velocity=0 time=0
EXTRACT: note_off channel=10 note=56 velocity=0 time=0.012885208333333334
EXTRACT: note_on channel=9 note=70 velocity=22 time=0.07731125
EXTRACT: note_on channel=9 note=42 velocity=42 time=0
EXTRACT: note_on channel=10 note=53 velocity=67 time=0.012885208333333334
EXTRACT: note_on channel=10 note=56 velocity=49 time=0.012885208333333334
EXTRACT: note_off channel=9 note=42 velocity=0 time=0.038655625
EXTRACT: note_off channel=9 note=70 velocity=0 time=0
EXTRACT: note_on channel=9 note=36 velocity=75 time=0.09019645833333334
EXTRACT: note_on channel=9 note=70 velocity=67 time=0
EXTRACT: note_off channel=10 note=53 velocity=0 time=0
EXTRACT: note_off channel=10 note=56 velocity=0 time=0.012885208333333334
EXTRACT: note_on channel=2 note=36 velocity=32 time=0.038655625
EXTRACT: note_off channel=2 note=36 velocity=0 time=0.012885208333333334
EXTRACT: note_on channel=2 note=39 velocity=24 time=0
EXTRACT: note_on channel=3 note=60 velocity=32 time=0
EXTRACT: note_on channel=3 note=63 velocity=24 time=0
EXTRACT: note_off channel=9 note=70 velocity=0 time=0
EXTRACT: note_off channel=9 note=36 velocity=0 time=0
EXTRACT: note_off channel=2 note=39 velocity=0 time=0.012885208333333334
EXTRACT: note_on channel=2 note=31 velocity=35 time=0
EXTRACT: note_on channel=3 note=55 velocity=35 time=0
EXTRACT: note_off channel=4 note=60 velocity=0 time=0.038655625
EXTRACT: note_off channel=4 note=65 velocity=0 time=0
EXTRACT: note_on channel=4 note=63 velocity=111 time=0
EXTRACT: note_on channel=4 note=60 velocity=104 time=0
EXTRACT: note_on channel=10 note=55 velocity=74 time=0.038655625
EXTRACT: note_on channel=10 note=60 velocity=73 time=0
EXTRACT: note_on channel=9 note=36 velocity=110 time=0.012885208333333334
EXTRACT: note_on channel=9 note=70 velocity=107 time=0
EXTRACT: note_on channel=9 note=42 velocity=69 time=0
EXTRACT: note_on channel=10 note=63 velocity=64 time=0
EXTRACT: note_off channel=3 note=60 velocity=0 time=0.012885208333333334
EXTRACT: note_on channel=9 note=44 velocity=69 time=0
EXTRACT: note_off channel=2 note=31 velocity=0 time=0.012885208333333334
EXTRACT: note_off channel=3 note=55 velocity=0 time=0
EXTRACT: note_off channel=3 note=63 velocity=0 time=0.012885208333333334
EXTRACT: note_off channel=9 note=70 velocity=0 time=0.012885208333333334
EXTRACT: note_off channel=9 note=36 velocity=0 time=0
EXTRACT: note_off channel=9 note=44 velocity=0 time=0.07731125
EXTRACT: note_off channel=9 note=42 velocity=0 time=0
EXTRACT: note_on channel=9 note=70 velocity=8 time=0.012885208333333334
EXTRACT: note_off channel=10 note=55 velocity=0 time=0.038655625
EXTRACT: note_off channel=10 note=63 velocity=0 time=0.012885208333333334
EXTRACT: note_off channel=9 note=70 velocity=0 time=0.012885208333333334
EXTRACT: note_off channel=10 note=60 velocity=0 time=0.012885208333333334
EXTRACT: note_on channel=9 note=70 velocity=22 time=0.07731125
EXTRACT: note_on channel=9 note=42 velocity=36 time=0
EXTRACT: note_on channel=10 note=60 velocity=63 time=0
EXTRACT: note_on channel=10 note=55 velocity=90 time=0.012885208333333334
EXTRACT: note_on channel=10 note=63 velocity=66 time=0.012885208333333334
EXTRACT: note_off channel=9 note=42 velocity=0 time=0.038655625
EXTRACT: note_off channel=9 note=70 velocity=0 time=0
EXTRACT: note_on channel=9 note=36 velocity=110 time=0.09019645833333334
EXTRACT: note_on channel=9 note=70 velocity=60 time=0
EXTRACT: note_off channel=9 note=70 velocity=0 time=0.06442604166666667
EXTRACT: note_off channel=9 note=36 velocity=0 time=0
EXTRACT: note_off channel=10 note=63 velocity=0 time=0
EXTRACT: note_off channel=10 note=55 velocity=0 time=0.012885208333333334
EXTRACT: note_off channel=10 note=60 velocity=0 time=0.038655625
EXTRACT: note_on channel=9 note=40 velocity=100 time=0.038655625
EXTRACT: note_on channel=9 note=90 velocity=127 time=0.012885208333333334
EXTRACT: note_on channel=9 note=44 velocity=71 time=0
EXTRACT: note_on channel=9 note=70 velocity=113 time=0
EXTRACT: note_on channel=9 note=42 velocity=71 time=0
EXTRACT: note_on channel=10 note=60 velocity=78 time=0
EXTRACT: note_on channel=10 note=55 velocity=87 time=0.012885208333333334
EXTRACT: note_on channel=10 note=63 velocity=82 time=0
EXTRACT: note_off channel=9 note=42 velocity=0 time=0.038655625
EXTRACT: note_off channel=9 note=70 velocity=0 time=0
EXTRACT: note_off channel=9 note=44 velocity=0 time=0
EXTRACT: note_off channel=9 note=90 velocity=0 time=0.07731125
EXTRACT: note_off channel=9 note=40 velocity=0 time=0
EXTRACT: note_on channel=9 note=70 velocity=10 time=0.012885208333333334
EXTRACT: note_off channel=9 note=70 velocity=0 time=0.06442604166666667
EXTRACT: note_off channel=10 note=63 velocity=0 time=0
EXTRACT: note_off channel=10 note=55 velocity=0 time=0.025770416666666667
EXTRACT: note_off channel=10 note=60 velocity=0 time=0.025770416666666667
EXTRACT: note_on channel=9 note=70 velocity=24 time=0.038655625
EXTRACT: note_on channel=10 note=60 velocity=67 time=0.012885208333333334
EXTRACT: note_on channel=10 note=55 velocity=90 time=0.012885208333333334
EXTRACT: note_on channel=10 note=63 velocity=74 time=0.012885208333333334
EXTRACT: note_off channel=9 note=70 velocity=0 time=0.025770416666666667
EXTRACT: note_on channel=9 note=36 velocity=110 time=0.09019645833333334
EXTRACT: note_on channel=9 note=70 velocity=64 time=0
EXTRACT: note_off channel=9 note=70 velocity=0 time=0.06442604166666667
EXTRACT: note_off channel=9 note=36 velocity=0 time=0
EXTRACT: note_off channel=10 note=63 velocity=0 time=0
EXTRACT: note_off channel=10 note=55 velocity=0 time=0.025770416666666667
EXTRACT: note_off channel=10 note=60 velocity=0 time=0.025770416666666667
EXTRACT: note_on channel=9 note=40 velocity=100 time=0.038655625
EXTRACT: note_on channel=9 note=90 velocity=125 time=0
EXTRACT: note_on channel=4 note=60 velocity=116 time=0.012885208333333334
EXTRACT: note_on channel=9 note=70 velocity=110 time=0
EXTRACT: note_on channel=9 note=44 velocity=40 time=0
EXTRACT: note_on channel=10 note=60 velocity=39 time=0.012885208333333334
EXTRACT: note_on channel=10 note=55 velocity=90 time=0.012885208333333334
EXTRACT: note_on channel=10 note=63 velocity=68 time=0
EXTRACT: note_off channel=4 note=60 velocity=0 time=0.025770416666666667
EXTRACT: note_off channel=9 note=44 velocity=0 time=0
EXTRACT: note_off channel=9 note=70 velocity=0 time=0
EXTRACT: note_off channel=9 note=90 velocity=0 time=0
EXTRACT: note_off channel=9 note=40 velocity=0 time=0
EXTRACT: note_on channel=9 note=70 velocity=10 time=0.09019645833333334
EXTRACT: note_off channel=9 note=70 velocity=0 time=0.06442604166666667
EXTRACT: note_off channel=10 note=63 velocity=0 time=0
EXTRACT: note_off channel=10 note=55 velocity=0 time=0.012885208333333334
EXTRACT: note_off channel=10 note=60 velocity=0 time=0.038655625
EXTRACT: note_on channel=9 note=40 velocity=100 time=0.038655625
EXTRACT: note_on channel=9 note=90 velocity=123 time=0
EXTRACT: note_on channel=9 note=70 velocity=24 time=0
EXTRACT: note_on channel=10 note=60 velocity=78 time=0.012885208333333334
EXTRACT: note_on channel=10 note=55 velocity=76 time=0
EXTRACT: note_on channel=10 note=63 velocity=78 time=0.012885208333333334
EXTRACT: note_off channel=9 note=70 velocity=0 time=0.038655625
EXTRACT: note_off channel=9 note=90 velocity=0 time=0
EXTRACT: note_off channel=9 note=40 velocity=0 time=0
EXTRACT: note_on channel=4 note=60 velocity=113 time=0.09019645833333334
EXTRACT: note_on channel=9 note=36 velocity=110 time=0
EXTRACT: note_on channel=9 note=70 velocity=64 time=0
EXTRACT: note_off channel=4 note=60 velocity=0 time=0.051540833333333334
EXTRACT: note_off channel=10 note=63 velocity=0 time=0
EXTRACT: note_off channel=9 note=70 velocity=0 time=0.012885208333333334
EXTRACT: note_off channel=9 note=36 velocity=0 time=0
EXTRACT: note_on channel=9 note=40 velocity=40 time=0.012885208333333334
EXTRACT: note_off channel=10 note=55 velocity=0 time=0
EXTRACT: note_off channel=9 note=40 velocity=0 time=0.012885208333333334
EXTRACT: note_off channel=10 note=60 velocity=0 time=0.012885208333333334
EXTRACT: note_on channel=9 note=40 velocity=60 time=0.012885208333333334
EXTRACT: note_off channel=9 note=40 velocity=0 time=0.012885208333333334
EXTRACT: note_on channel=10 note=55 velocity=79 time=0.012885208333333334
EXTRACT: note_on channel=9 note=40 velocity=100 time=0.012885208333333334
EXTRACT: note_on channel=9 note=90 velocity=127 time=0.012885208333333334
EXTRACT: note_on channel=9 note=44 velocity=71 time=0
EXTRACT: note_on channel=9 note=70 velocity=110 time=0
EXTRACT: note_on channel=10 note=60 velocity=74 time=0
EXTRACT: note_on channel=10 note=63 velocity=82 time=0
EXTRACT: note_off channel=9 note=70 velocity=0 time=0.051540833333333334
EXTRACT: note_off channel=9 note=44 velocity=0 time=0
EXTRACT: note_off channel=9 note=90 velocity=0 time=0.07731125
EXTRACT: note_off channel=9 note=40 velocity=0 time=0
EXTRACT: note_on channel=9 note=47 velocity=110 time=0.012885208333333334
EXTRACT: note_on channel=9 note=70 velocity=10 time=0
EXTRACT: note_off channel=10 note=63 velocity=0 time=0.038655625
EXTRACT: note_off channel=10 note=55 velocity=0 time=0.012885208333333334
EXTRACT: note_off channel=9 note=70 velocity=0 time=0.012885208333333334
EXTRACT: note_off channel=9 note=47 velocity=0 time=0
EXTRACT: note_off channel=10 note=60 velocity=0 time=0
EXTRACT: note_on channel=10 note=55 velocity=79 time=0.06442604166666667
EXTRACT: note_on channel=10 note=63 velocity=69 time=0.012885208333333334
EXTRACT: note_on channel=10 note=60 velocity=73 time=0
EXTRACT: note_on channel=4 note=60 velocity=96 time=0.012885208333333334
EXTRACT: note_on channel=9 note=45 velocity=110 time=0
EXTRACT: note_on channel=9 note=70 velocity=22 time=0
EXTRACT: note_off channel=4 note=60 velocity=0 time=0.038655625
EXTRACT: note_off channel=9 note=70 velocity=0 time=0.025770416666666667
EXTRACT: note_off channel=9 note=45 velocity=0 time=0
EXTRACT: note_on channel=9 note=36 velocity=91 time=0.09019645833333334
EXTRACT: note_on channel=9 note=55 velocity=85 time=0
EXTRACT: note_on channel=9 note=70 velocity=67 time=0
EXTRACT: note_off channel=10 note=55 velocity=0 time=0
EXTRACT: note_on channel=4 note=60 velocity=81 time=0.012885208333333334
EXTRACT: note_off channel=4 note=63 velocity=0 time=0.012885208333333334
EXTRACT: note_on channel=2 note=32 velocity=39 time=0.012885208333333334
EXTRACT: note_on channel=3 note=56 velocity=39 time=0
EXTRACT: note_off channel=4 note=60 velocity=0 time=0
EXTRACT: note_off channel=2 note=32 velocity=0 time=0.0016106510416666667
EXTRACT: note_on channel=2 note=29 velocity=46 time=0.011274557291666668
EXTRACT: note_on channel=3 note=53 velocity=46 time=0
EXTRACT: note_off channel=2 note=29 velocity=0 time=0.0016106510416666667
EXTRACT: note_on channel=2 note=24 velocity=60 time=0.011274557291666668
EXTRACT: note_on channel=3 note=48 velocity=60 time=0
EXTRACT: note_off channel=9 note=70 velocity=0 time=0
EXTRACT: note_off channel=9 note=55 velocity=0 time=0
EXTRACT: note_off channel=9 note=36 velocity=0 time=0
EXTRACT: note_off channel=4 note=60 velocity=0 time=0.038655625
EXTRACT: note_off channel=2 note=24 velocity=0 time=0.038655625
EXTRACT: note_off channel=3 note=48 velocity=0 time=0
EXTRACT: note_off channel=3 note=56 velocity=0 time=0
EXTRACT: program_change channel=9 program=0 time=0.025770416666666667
EXTRACT: note_on channel=9 note=49 velocity=90 time=0
EXTRACT: program_change channel=9 program=32 time=0
EXTRACT: note_on channel=10 note=55 velocity=75 time=0
EXTRACT: note_off channel=9 note=49 velocity=0 time=0.0016106510416666667
EXTRACT: note_off channel=3 note=53 velocity=0 time=0.011274557291666668
EXTRACT: note_on channel=4 note=65 velocity=111 time=0
EXTRACT: note_on channel=4 note=60 velocity=104 time=0
EXTRACT: note_on channel=9 note=36 velocity=127 time=0
EXTRACT: note_on channel=9 note=44 velocity=69 time=0
EXTRACT: note_on channel=9 note=70 velocity=107 time=0.012885208333333334
EXTRACT: note_on channel=9 note=42 velocity=69 time=0
EXTRACT: note_off channel=9 note=70 velocity=0 time=0.025770416666666667
EXTRACT: note_off channel=10 note=60 velocity=0 time=0.012885208333333334
EXTRACT: note_off channel=10 note=55 velocity=0 time=0.012885208333333334
EXTRACT: note_off channel=10 note=63 velocity=0 time=0
EXTRACT: note_off channel=9 note=42 velocity=0 time=0.051540833333333334
EXTRACT: note_off channel=9 note=44 velocity=0 time=0
EXTRACT: note_off channel=9 note=36 velocity=0 time=0
EXTRACT: note_on channel=9 note=70 velocity=8 time=0.012885208333333334
EXTRACT: note_off channel=9 note=70 velocity=0 time=0.06442604166666667
EXTRACT: note_on channel=9 note=70 velocity=22 time=0.09019645833333334
EXTRACT: note_on channel=9 note=42 velocity=36 time=0
EXTRACT: note_on channel=10 note=65 velocity=106 time=0
EXTRACT: note_off channel=9 note=42 velocity=0 time=0.06442604166666667
EXTRACT: note_off channel=9 note=70 velocity=0 time=0
EXTRACT: note_off channel=10 note=65 velocity=0 time=0.012885208333333334
EXTRACT: note_on channel=10 note=65 velocity=97 time=0.06442604166666667
EXTRACT: note_on channel=9 note=36 velocity=99 time=0.012885208333333334
EXTRACT: note_on channel=9 note=70 velocity=60 time=0
EXTRACT: note_off channel=9 note=70 velocity=0 time=0.06442604166666667
EXTRACT: note_off channel=9 note=36 velocity=0 time=0
EXTRACT: note_off channel=10 note=65 velocity=0 time=0
EXTRACT: note_on channel=10 note=65 velocity=92 time=0.07731125
EXTRACT: note_on channel=9 note=40 velocity=100 time=0.012885208333333334
EXTRACT: note_on channel=9 note=90 velocity=127 time=0.012885208333333334
EXTRACT: note_on channel=9 note=44 velocity=71 time=0
EXTRACT: note_on channel=9 note=70 velocity=113 time=0
EXTRACT: note_on channel=9 note=42 velocity=71 time=0
EXTRACT: note_off channel=9 note=42 velocity=0 time=0.051540833333333334
EXTRACT: note_off channel=9 note=70 velocity=0 time=0
EXTRACT: note_off channel=9 note=44 velocity=0 time=0
EXTRACT: note_off channel=10 note=65 velocity=0 time=0.012885208333333334
EXTRACT: note_off channel=9 note=90 velocity=0 time=0.06442604166666667
EXTRACT: note_off channel=9 note=40 velocity=0 time=0
EXTRACT: note_on channel=10 note=65 velocity=87 time=0
EXTRACT: note_on channel=9 note=70 velocity=10 time=0.012885208333333334
EXTRACT: note_off channel=9 note=70 velocity=0 time=0.06442604166666667
EXTRACT: note_off channel=10 note=65 velocity=0 time=0.012885208333333334
EXTRACT: note_on channel=9 note=70 velocity=24 time=0.07731125
EXTRACT: note_on channel=9 note=42 velocity=40 time=0
EXTRACT: note_on channel=10 note=65 velocity=83 time=0
EXTRACT: note_off channel=9 note=42 velocity=0 time=0.06442604166666667
EXTRACT: note_off channel=9 note=70 velocity=0 time=0
EXTRACT: note_off channel=10 note=65 velocity=0 time=0.025770416666666667
EXTRACT: note_on channel=9 note=70 velocity=64 time=0.06442604166666667
EXTRACT: note_on channel=10 note=65 velocity=78 time=0
EXTRACT: note_off channel=9 note=70 velocity=0 time=0.06442604166666667
EXTRACT: note_off channel=10 note=65 velocity=0 time=0.025770416666666667
EXTRACT: note_on channel=10 note=65 velocity=87 time=0.051540833333333334
EXTRACT: note_on channel=9 note=70 velocity=110 time=0.012885208333333334
EXTRACT: note_on channel=9 note=42 velocity=69 time=0
EXTRACT: note_on channel=9 note=44 velocity=69 time=0.012885208333333334
EXTRACT: note_off channel=9 note=44 velocity=0 time=0.051540833333333334
EXTRACT: note_off channel=9 note=42 velocity=0 time=0
EXTRACT: note_off channel=9 note=70 velocity=0 time=0
EXTRACT: note_off channel=10 note=65 velocity=0 time=0.012885208333333334
EXTRACT: note_on channel=10 note=65 velocity=83 time=0.06442604166666667
EXTRACT: note_on channel=9 note=36 velocity=93 time=0.012885208333333334
EXTRACT: note_on channel=9 note=70 velocity=10 time=0
EXTRACT: note_off channel=9 note=70 velocity=0 time=0.06442604166666667
EXTRACT: note_off channel=9 note=36 velocity=0 time=0
EXTRACT: note_off channel=10 note=65 velocity=0 time=0
EXTRACT: note_on channel=10 note=65 velocity=87 time=0.07731125
EXTRACT: note_on channel=9 note=36 velocity=123 time=0.012885208333333334
EXTRACT: note_on channel=9 note=70 velocity=24 time=0
EXTRACT: note_on channel=9 note=42 velocity=38 time=0.012885208333333334
EXTRACT: note_off channel=9 note=42 velocity=0 time=0.051540833333333334
EXTRACT: note_off channel=9 note=70 velocity=0 time=0
EXTRACT: note_off channel=9 note=36 velocity=0 time=0
EXTRACT: note_off channel=10 note=65 velocity=0 time=0.012885208333333334
EXTRACT: note_on channel=10 note=65 velocity=87 time=0.06442604166666667
EXTRACT: note_on channel=9 note=70 velocity=64 time=0.012885208333333334
EXTRACT: note_off channel=10 note=65 velocity=0 time=0.051540833333333334
EXTRACT: note_off channel=9 note=70 velocity=0 time=0.012885208333333334
EXTRACT: note_on channel=10 note=65 velocity=92 time=0.07731125
EXTRACT: note_on channel=9 note=40 velocity=100 time=0.012885208333333334
EXTRACT: note_on channel=9 note=90 velocity=127 time=0.012885208333333334
EXTRACT: note_on channel=9 note=44 velocity=71 time=0
EXTRACT: note_on channel=9 note=70 velocity=110 time=0
EXTRACT: note_on channel=9 note=42 velocity=71 time=0
EXTRACT: note_off channel=9 note=42 velocity=0 time=0.051540833333333334
EXTRACT: note_off channel=9 note=70 velocity=0 time=0
EXTRACT: note_off channel=9 note=44 velocity=0 time=0
EXTRACT: note_off channel=10 note=65 velocity=0 time=0.051540833333333334
EXTRACT: note_off channel=9 note=90 velocity=0 time=0.025770416666666667
EXTRACT: note_off channel=9 note=40 velocity=0 time=0
EXTRACT: note_on channel=10 note=63 velocity=122 time=0
EXTRACT: note_on channel=9 note=36 velocity=110 time=0.012885208333333334
EXTRACT: note_on channel=9 note=70 velocity=10 time=0
EXTRACT: note_off channel=9 note=70 velocity=0 time=0.06442604166666667
EXTRACT: note_off channel=9 note=36 velocity=0 time=0
EXTRACT: note_off channel=10 note=63 velocity=0 time=0.012885208333333334
EXTRACT: note_on channel=10 note=63 velocity=87 time=0.06442604166666667
EXTRACT: note_on channel=9 note=70 velocity=22 time=0.012885208333333334
EXTRACT: note_on channel=9 note=42 velocity=42 time=0
EXTRACT: note_off channel=9 note=42 velocity=0 time=0.06442604166666667
EXTRACT: note_off channel=9 note=70 velocity=0 time=0
EXTRACT: note_off channel=10 note=63 velocity=0 time=0.012885208333333334
EXTRACT: note_on channel=9 note=36 velocity=75 time=0.07731125
EXTRACT: note_on channel=9 note=70 velocity=67 time=0
EXTRACT: note_on channel=10 note=63 velocity=82 time=0
EXTRACT: note_off channel=9 note=70 velocity=0 time=0.06442604166666667
EXTRACT: note_off channel=9 note=36 velocity=0 time=0
EXTRACT: note_on channel=9 note=36 velocity=110 time=0.09019645833333334
EXTRACT: note_on channel=9 note=70 velocity=107 time=0.012885208333333334
EXTRACT: note_on channel=9 note=42 velocity=69 time=0
EXTRACT: note_on channel=9 note=44 velocity=69 time=0
EXTRACT: note_off channel=10 note=63 velocity=0 time=0.012885208333333334
EXTRACT: note_off channel=9 note=70 velocity=0 time=0.038655625
EXTRACT: note_off channel=9 note=36 velocity=0 time=0
EXTRACT: note_off channel=9 note=44 velocity=0 time=0.07731125
EXTRACT: note_off channel=9 note=42 velocity=0 time=0
EXTRACT: note_on channel=9 note=70 velocity=8 time=0.012885208333333334
EXTRACT: note_off channel=9 note=70 velocity=0 time=0.06442604166666667
EXTRACT: note_on channel=9 note=70 velocity=22 time=0.09019645833333334
EXTRACT: note_on channel=9 note=42 velocity=36 time=0
EXTRACT: note_off channel=9 note=42 velocity=0 time=0.06442604166666667
EXTRACT: note_off channel=9 note=70 velocity=0 time=0
EXTRACT: note_on channel=9 note=36 velocity=110 time=0.09019645833333334
EXTRACT: note_on channel=9 note=70 velocity=60 time=0
EXTRACT: note_off channel=9 note=70 velocity=0 time=0.06442604166666667
EXTRACT: note_off channel=9 note=36 velocity=0 time=0
EXTRACT: note_on channel=9 note=40 velocity=100 time=0.09019645833333334
EXTRACT: note_on channel=9 note=90 velocity=127 time=0.012885208333333334
EXTRACT: note_on channel=9 note=44 velocity=71 time=0
EXTRACT: note_on channel=9 note=70 velocity=113 time=0
EXTRACT: note_on channel=9 note=42 velocity=71 time=0
EXTRACT: note_off channel=9 note=42 velocity=0 time=0.051540833333333334
EXTRACT: note_off channel=9 note=70 velocity=0 time=0
EXTRACT: note_off channel=9 note=44 velocity=0 time=0
EXTRACT: note_off channel=9 note=90 velocity=0 time=0.07731125
EXTRACT: note_off channel=9 note=40 velocity=0 time=0
EXTRACT: note_on channel=9 note=70 velocity=10 time=0.012885208333333334
EXTRACT: note_off channel=9 note=70 velocity=0 time=0.06442604166666667
EXTRACT: note_on channel=9 note=70 velocity=24 time=0.09019645833333334
EXTRACT: note_on channel=9 note=42 velocity=40 time=0
EXTRACT: note_on channel=10 note=65 velocity=115 time=0.025770416666666667
EXTRACT: note_off channel=9 note=42 velocity=0 time=0.038655625
EXTRACT: note_off channel=9 note=70 velocity=0 time=0
EXTRACT: note_off channel=10 note=65 velocity=0 time=0.012885208333333334
EXTRACT: note_on channel=9 note=70 velocity=64 time=0.07731125
EXTRACT: note_on channel=10 note=65 velocity=106 time=0.012885208333333334
EXTRACT: note_off channel=9 note=70 velocity=0 time=0.051540833333333334
EXTRACT: note_off channel=10 note=65 velocity=0 time=0.038655625
EXTRACT: note_on channel=9 note=70 velocity=110 time=0.051540833333333334
EXTRACT: note_on channel=9 note=42 velocity=69 time=0.012885208333333334
EXTRACT: note_on channel=9 note=44 velocity=69 time=0
EXTRACT: note_on channel=10 note=65 velocity=106 time=0.012885208333333334
EXTRACT: note_off channel=9 note=44 velocity=0 time=0.038655625
EXTRACT: note_off channel=9 note=42 velocity=0 time=0
EXTRACT: note_off channel=9 note=70 velocity=0 time=0
EXTRACT: note_on channel=9 note=36 velocity=110 time=0.09019645833333334
EXTRACT: note_on channel=9 note=70 velocity=10 time=0
EXTRACT: note_off channel=9 note=70 velocity=0 time=0.06442604166666667
EXTRACT: note_off channel=9 note=36 velocity=0 time=0
EXTRACT: note_off channel=10 note=65 velocity=0 time=0
EXTRACT: note_on channel=9 note=36 velocity=110 time=0.09019645833333334
EXTRACT: note_on channel=9 note=70 velocity=24 time=0
EXTRACT: note_on channel=9 note=42 velocity=38 time=0.012885208333333334
EXTRACT: note_on channel=10 note=65 velocity=106 time=0
EXTRACT: note_off channel=9 note=42 velocity=0 time=0.051540833333333334
EXTRACT: note_off channel=9 note=70 velocity=0 time=0
EXTRACT: note_off channel=9 note=36 velocity=0 time=0
EXTRACT: note_on channel=9 note=70 velocity=64 time=0.09019645833333334
EXTRACT: note_off channel=10 note=65 velocity=0 time=0.038655625
EXTRACT: note_off channel=9 note=70 velocity=0 time=0.025770416666666667
EXTRACT: note_on channel=9 note=40 velocity=100 time=0.10308166666666667
EXTRACT: note_on channel=9 note=90 velocity=127 time=0
EXTRACT: note_on channel=9 note=44 velocity=71 time=0
EXTRACT: note_on channel=9 note=70 velocity=110 time=0
EXTRACT: note_on channel=10 note=65 velocity=97 time=0
EXTRACT: note_on channel=9 note=42 velocity=71 time=0.012885208333333334
EXTRACT: note_off channel=9 note=42 velocity=0 time=0.038655625
EXTRACT: note_off channel=9 note=70 velocity=0 time=0
EXTRACT: note_off channel=9 note=44 velocity=0 time=0
EXTRACT: note_off channel=9 note=90 velocity=0 time=0.07731125
EXTRACT: note_off channel=9 note=40 velocity=0 time=0
EXTRACT: note_on channel=10 note=63 velocity=110 time=0
EXTRACT: note_on channel=9 note=70 velocity=10 time=0.012885208333333334
EXTRACT: note_off channel=10 note=65 velocity=0 time=0.051540833333333334
EXTRACT: note_off channel=9 note=70 velocity=0 time=0.012885208333333334
EXTRACT: note_off channel=10 note=63 velocity=0 time=0.025770416666666667
EXTRACT: note_on channel=9 note=70 velocity=22 time=0.06442604166666667
EXTRACT: note_on channel=9 note=42 velocity=42 time=0
EXTRACT: note_on channel=10 note=63 velocity=87 time=0.012885208333333334
EXTRACT: note_off channel=9 note=42 velocity=0 time=0.051540833333333334
EXTRACT: note_off channel=9 note=70 velocity=0 time=0
EXTRACT: note_on channel=10 note=67 velocity=106 time=0.06442604166666667
EXTRACT: note_on channel=9 note=70 velocity=67 time=0.025770416666666667
EXTRACT: note_off channel=10 note=63 velocity=0 time=0.025770416666666667
EXTRACT: note_off channel=9 note=70 velocity=0 time=0.038655625
EXTRACT: note_off channel=10 note=67 velocity=0 time=0.051540833333333334
EXTRACT: note_on channel=9 note=36 velocity=127 time=0.038655625
EXTRACT: note_on channel=9 note=44 velocity=69 time=0.012885208333333334
EXTRACT: note_on channel=9 note=70 velocity=107 time=0
EXTRACT: note_on channel=9 note=42 velocity=69 time=0
EXTRACT: note_on channel=10 note=53 velocity=79 time=0
EXTRACT: note_off channel=9 note=70 velocity=0 time=0.051540833333333334
EXTRACT: note_off channel=9 note=42 velocity=0 time=0.07731125
EXTRACT: note_off channel=9 note=44 velocity=0 time=0
EXTRACT: note_off channel=9 note=36 velocity=0 time=0
EXTRACT: note_on channel=9 note=70 velocity=8 time=0.012885208333333334
EXTRACT: note_on channel=10 note=56 velocity=65 time=0
EXTRACT: note_off channel=9 note=70 velocity=0 time=0.06442604166666667
EXTRACT: note_on channel=10 note=60 velocity=74 time=0.07731125
EXTRACT: note_on channel=9 note=70 velocity=22 time=0.012885208333333334
EXTRACT: note_on channel=9 note=42 velocity=36 time=0
EXTRACT: note_off channel=9 note=42 velocity=0 time=0.06442604166666667
EXTRACT: note_off channel=9 note=70 velocity=0 time=0
EXTRACT: note_on channel=9 note=36 velocity=99 time=0.09019645833333334
EXTRACT: note_on channel=9 note=70 velocity=60 time=0
EXTRACT: note_on channel=10 note=63 velocity=50 time=0
EXTRACT: note_off channel=9 note=70 velocity=0 time=0.06442604166666667
EXTRACT: note_off channel=9 note=36 velocity=0 time=0
EXTRACT: note_on channel=9 note=40 velocity=100 time=0.09019645833333334
EXTRACT: note_on channel=9 note=90 velocity=127 time=0.012885208333333334
EXTRACT: note_on channel=9 note=44 velocity=71 time=0
EXTRACT: note_on channel=9 note=70 velocity=113 time=0
EXTRACT: note_on channel=9 note=42 velocity=71 time=0
EXTRACT: note_off channel=9 note=42 velocity=0 time=0.051540833333333334
EXTRACT: note_off channel=9 note=70 velocity=0 time=0
EXTRACT: note_off channel=9 note=44 velocity=0 time=0
EXTRACT: note_off channel=9 note=90 velocity=0 time=0.07731125
EXTRACT: note_off channel=9 note=40 velocity=0 time=0
EXTRACT: note_on channel=9 note=70 velocity=10 time=0.012885208333333334
EXTRACT: note_off channel=9 note=70 velocity=0 time=0.06442604166666667
EXTRACT: note_on channel=9 note=70 velocity=24 time=0.09019645833333334
EXTRACT: note_on channel=9 note=42 velocity=40 time=0
EXTRACT: note_off channel=9 note=42 velocity=0 time=0.06442604166666667
EXTRACT: note_off channel=9 note=70 velocity=0 time=0
EXTRACT: note_on channel=9 note=70 velocity=64 time=0.09019645833333334
EXTRACT: note_off channel=9 note=70 velocity=0 time=0.06442604166666667
EXTRACT: note_on channel=9 note=70 velocity=110 time=0.09019645833333334
EXTRACT: note_on channel=9 note=42 velocity=69 time=0
EXTRACT: note_on channel=9 note=44 velocity=69 time=0.012885208333333334
EXTRACT: note_on channel=10 note=67 velocity=106 time=0
EXTRACT: note_off channel=10 note=60 velocity=0 time=0.025770416666666667
EXTRACT: note_off channel=9 note=44 velocity=0 time=0.025770416666666667
EXTRACT: note_off channel=9 note=42 velocity=0 time=0
EXTRACT: note_off channel=9 note=70 velocity=0 time=0
EXTRACT: note_off channel=10 note=63 velocity=0 time=0
EXTRACT: note_on channel=9 note=36 velocity=93 time=0.09019645833333334
EXTRACT: note_on channel=9 note=70 velocity=10 time=0
EXTRACT: note_off channel=9 note=70 velocity=0 time=0.06442604166666667
EXTRACT: note_off channel=9 note=36 velocity=0 time=0
EXTRACT: note_on channel=9 note=36 velocity=123 time=0.09019645833333334
EXTRACT: note_on channel=9 note=70 velocity=24 time=0
EXTRACT: note_on channel=9 note=42 velocity=38 time=0.012885208333333334
EXTRACT: note_on channel=10 note=65 velocity=92 time=0
EXTRACT: note_off channel=10 note=67 velocity=0 time=0.012885208333333334
EXTRACT: note_off channel=10 note=56 velocity=0 time=0.025770416666666667
EXTRACT: note_off channel=9 note=42 velocity=0 time=0.012885208333333334
EXTRACT: note_off channel=9 note=70 velocity=0 time=0
EXTRACT: note_off channel=9 note=36 velocity=0 time=0
EXTRACT: note_on channel=9 note=70 velocity=64 time=0.09019645833333334
EXTRACT: note_on channel=10 note=63 velocity=110 time=0.025770416666666667
EXTRACT: note_off channel=9 note=70 velocity=0 time=0.038655625
EXTRACT: note_off channel=10 note=65 velocity=0 time=0.025770416666666667
EXTRACT: note_on channel=9 note=40 velocity=100 time=0.07731125
EXTRACT: note_on channel=9 note=90 velocity=127 time=0
EXTRACT: note_on channel=9 note=44 velocity=71 time=0
EXTRACT: note_on channel=9 note=70 velocity=110 time=0
EXTRACT: note_on channel=9 note=42 velocity=71 time=0
EXTRACT: note_off channel=9 note=42 velocity=0 time=0.051540833333333334
EXTRACT: note_off channel=9 note=70 velocity=0 time=0
EXTRACT: note_off channel=9 note=44 velocity=0 time=0
EXTRACT: note_off channel=10 note=53 velocity=0 time=0
EXTRACT: note_off channel=9 note=90 velocity=0 time=0.07731125
EXTRACT: note_off channel=9 note=40 velocity=0 time=0
EXTRACT: note_on channel=9 note=36 velocity=110 time=0.012885208333333334
EXTRACT: note_on channel=9 note=70 velocity=10 time=0
EXTRACT: note_off channel=10 note=63 velocity=0 time=0
EXTRACT: note_on channel=10 note=62 velocity=127 time=0.012885208333333334
EXTRACT: note_off channel=9 note=70 velocity=0 time=0.051540833333333334
EXTRACT: note_off channel=9 note=36 velocity=0 time=0
EXTRACT: note_on channel=9 note=70 velocity=22 time=0.09019645833333334
EXTRACT: note_on channel=9 note=42 velocity=42 time=0
EXTRACT: note_off channel=9 note=42 velocity=0 time=0.06442604166666667
EXTRACT: note_off channel=9 note=70 velocity=0 time=0
EXTRACT: note_off channel=10 note=62 velocity=0 time=0.051540833333333334
EXTRACT: note_on channel=9 note=36 velocity=75 time=0.038655625
EXTRACT: note_on channel=9 note=70 velocity=67 time=0
EXTRACT: note_on channel=2 note=36 velocity=45 time=0.038655625
EXTRACT: note_on channel=10 note=62 velocity=127 time=0
EXTRACT: note_off channel=2 note=36 velocity=0 time=0.012885208333333334
EXTRACT: note_on channel=2 note=39 velocity=15 time=0
EXTRACT: note_on channel=3 note=60 velocity=45 time=0
EXTRACT: note_on channel=3 note=63 velocity=15 time=0
EXTRACT: note_off channel=9 note=70 velocity=0 time=0.012885208333333334
EXTRACT: note_off channel=9 note=36 velocity=0 time=0
EXTRACT: note_off channel=2 note=39 velocity=0 time=0.012885208333333334
EXTRACT: note_on channel=2 note=31 velocity=40 time=0
EXTRACT: note_on channel=3 note=55 velocity=40 time=0
EXTRACT: note_off channel=4 note=60 velocity=0 time=0.038655625
EXTRACT: note_off channel=4 note=65 velocity=0 time=0
EXTRACT: note_on channel=4 note=63 velocity=111 time=0
EXTRACT: note_on channel=4 note=60 velocity=104 time=0
EXTRACT: note_on channel=9 note=36 velocity=110 time=0.038655625
EXTRACT: note_on channel=9 note=70 velocity=107 time=0.012885208333333334
EXTRACT: note_on channel=9 note=42 velocity=69 time=0
EXTRACT: note_on channel=9 note=44 velocity=69 time=0
EXTRACT: note_off channel=9 note=70 velocity=0 time=0.051540833333333334
EXTRACT: note_off channel=9 note=36 velocity=0 time=0
EXTRACT: note_off channel=3 note=63 velocity=0 time=0.07731125
EXTRACT: note_off channel=9 note=44 velocity=0 time=0
EXTRACT: note_off channel=9 note=42 velocity=0 time=0
EXTRACT: note_off channel=2 note=31 velocity=0 time=0.012885208333333334
EXTRACT: note_on channel=9 note=70 velocity=8 time=0
EXTRACT: note_off channel=3 note=55 velocity=0 time=0.012885208333333334
EXTRACT: note_off channel=3 note=60 velocity=0 time=0
EXTRACT: note_off channel=9 note=70 velocity=0 time=0.051540833333333334
EXTRACT: note_on channel=9 note=70 velocity=22 time=0.09019645833333334
EXTRACT: note_on channel=9 note=42 velocity=36 time=0
EXTRACT: note_on channel=10 note=63 velocity=101 time=0.012885208333333334
EXTRACT: note_off channel=10 note=62 velocity=0 time=0.025770416666666667
EXTRACT: note_off channel=9 note=42 velocity=0 time=0.025770416666666667
EXTRACT: note_off channel=9 note=70 velocity=0 time=0
EXTRACT: note_off channel=10 note=63 velocity=0 time=0.025770416666666667
EXTRACT: note_on channel=9 note=36 velocity=110 time=0.06442604166666667
EXTRACT: note_on channel=9 note=70 velocity=60 time=0
EXTRACT: note_on channel=10 note=63 velocity=93 time=0.012885208333333334
EXTRACT: note_off channel=9 note=70 velocity=0 time=0.051540833333333334
EXTRACT: note_off channel=9 note=36 velocity=0 time=0
EXTRACT: note_on channel=9 note=40 velocity=100 time=0.09019645833333334
EXTRACT: note_on channel=9 note=90 velocity=127 time=0.012885208333333334
EXTRACT: note_on channel=9 note=44 velocity=71 time=0
EXTRACT: note_on channel=9 note=70 velocity=113 time=0
EXTRACT: note_on channel=9 note=42 velocity=71 time=0
EXTRACT: note_off channel=9 note=42 velocity=0 time=0.051540833333333334
EXTRACT: note_off channel=9 note=70 velocity=0 time=0
EXTRACT: note_off channel=9 note=44 velocity=0 time=0
EXTRACT: note_off channel=9 note=90 velocity=0 time=0.07731125
EXTRACT: note_off channel=9 note=40 velocity=0 time=0
EXTRACT: note_on channel=9 note=70 velocity=10 time=0.012885208333333334
EXTRACT: note_off channel=9 note=70 velocity=0 time=0.06442604166666667
EXTRACT: note_on channel=9 note=70 velocity=24 time=0.09019645833333334
EXTRACT: note_off channel=10 note=63 velocity=0 time=0
EXTRACT: note_on channel=10 note=60 velocity=127 time=0
EXTRACT: note_off channel=9 note=70 velocity=0 time=0.06442604166666667
EXTRACT: note_on channel=9 note=36 velocity=110 time=0.09019645833333334
EXTRACT: note_on channel=9 note=70 velocity=64 time=0
EXTRACT: note_off channel=9 note=70 velocity=0 time=0.06442604166666667
EXTRACT: note_off channel=9 note=36 velocity=0 time=0
EXTRACT: note_off channel=10 note=60 velocity=0 time=0
EXTRACT: note_on channel=10 note=60 velocity=106 time=0.07731125
EXTRACT: note_on channel=9 note=40 velocity=100 time=0.012885208333333334
EXTRACT: note_on channel=9 note=90 velocity=125 time=0
EXTRACT: note_on channel=4 note=60 velocity=116 time=0.012885208333333334
EXTRACT: note_on channel=9 note=70 velocity=110 time=0
EXTRACT: note_on channel=9 note=44 velocity=40 time=0
EXTRACT: note_off channel=4 note=60 velocity=0 time=0.051540833333333334
EXTRACT: note_off channel=9 note=44 velocity=0 time=0
EXTRACT: note_off channel=9 note=70 velocity=0 time=0
EXTRACT: note_off channel=9 note=90 velocity=0 time=0
EXTRACT: note_off channel=9 note=40 velocity=0 time=0
EXTRACT: note_on channel=9 note=70 velocity=10 time=0.09019645833333334
EXTRACT: note_off channel=9 note=70 velocity=0 time=0.06442604166666667
EXTRACT: note_on channel=9 note=40 velocity=100 time=0.09019645833333334
EXTRACT: note_on channel=9 note=90 velocity=123 time=0
EXTRACT: note_on channel=9 note=70 velocity=24 time=0
EXTRACT: note_off channel=9 note=70 velocity=0 time=0.06442604166666667
EXTRACT: note_off channel=9 note=90 velocity=0 time=0
EXTRACT: note_off channel=9 note=40 velocity=0 time=0
EXTRACT: note_on channel=4 note=60 velocity=113 time=0.09019645833333334
EXTRACT: note_on channel=9 note=36 velocity=110 time=0
EXTRACT: note_on channel=9 note=70 velocity=64 time=0
EXTRACT: note_off channel=10 note=60 velocity=0 time=0.038655625
EXTRACT: note_off channel=4 note=60 velocity=0 time=0.012885208333333334
EXTRACT: note_off channel=9 note=70 velocity=0 time=0.012885208333333334
EXTRACT: note_off channel=9 note=36 velocity=0 time=0
EXTRACT: note_on channel=9 note=40 velocity=40 time=0.012885208333333334
EXTRACT: note_off channel=9 note=40 velocity=0 time=0.012885208333333334
EXTRACT: note_on channel=9 note=40 velocity=60 time=0.025770416666666667
EXTRACT: note_off channel=9 note=40 velocity=0 time=0.012885208333333334
EXTRACT: note_on channel=10 note=60 velocity=115 time=0.025770416666666667
EXTRACT: note_on channel=9 note=40 velocity=100 time=0.012885208333333334
EXTRACT: note_on channel=9 note=90 velocity=127 time=0
EXTRACT: note_on channel=9 note=44 velocity=71 time=0
EXTRACT: note_on channel=9 note=70 velocity=110 time=0
EXTRACT: note_on channel=10 note=63 velocity=101 time=0
EXTRACT: note_off channel=9 note=70 velocity=0 time=0.051540833333333334
EXTRACT: note_off channel=9 note=44 velocity=0 time=0
EXTRACT: note_off channel=9 note=90 velocity=0 time=0.07731125
EXTRACT: note_off channel=9 note=40 velocity=0 time=0
EXTRACT: note_on channel=9 note=47 velocity=110 time=0.012885208333333334
EXTRACT: note_on channel=9 note=70 velocity=10 time=0
EXTRACT: note_off channel=9 note=70 velocity=0 time=0.06442604166666667
EXTRACT: note_off channel=9 note=47 velocity=0 time=0
EXTRACT: note_on channel=4 note=60 velocity=96 time=0.09019645833333334
EXTRACT: note_on channel=9 note=45 velocity=110 time=0
EXTRACT: note_on channel=9 note=70 velocity=22 time=0
EXTRACT: note_off channel=4 note=60 velocity=0 time=0.038655625
EXTRACT: note_off channel=9 note=70 velocity=0 time=0.025770416666666667
EXTRACT: note_off channel=9 note=45 velocity=0 time=0
EXTRACT: note_off channel=10 note=60 velocity=0 time=0.06442604166666667
EXTRACT: note_on channel=4 note=60 velocity=81 time=0.025770416666666667
EXTRACT: note_on channel=9 note=36 velocity=91 time=0
EXTRACT: note_on channel=9 note=55 velocity=85 time=0
EXTRACT: note_on channel=9 note=70 velocity=67 time=0
EXTRACT: note_off channel=10 note=63 velocity=0 time=0.012885208333333334
EXTRACT: note_off channel=4 note=63 velocity=0 time=0.012885208333333334
EXTRACT: note_off channel=4 note=60 velocity=0 time=0.012885208333333334
EXTRACT: note_off channel=9 note=70 velocity=0 time=0.025770416666666667
EXTRACT: note_off channel=9 note=55 velocity=0 time=0
EXTRACT: note_off channel=9 note=36 velocity=0 time=0
EXTRACT: note_on channel=2 note=36 velocity=62 time=0.025770416666666667
EXTRACT: note_on channel=2 note=32 velocity=50 time=0
EXTRACT: note_on channel=3 note=60 velocity=62 time=0
EXTRACT: note_on channel=3 note=56 velocity=50 time=0
EXTRACT: note_off channel=2 note=36 velocity=0 time=0.0016106510416666667
EXTRACT: note_off channel=2 note=32 velocity=0 time=0.011274557291666668
EXTRACT: note_on channel=2 note=27 velocity=53 time=0
EXTRACT: note_on channel=3 note=51 velocity=53 time=0
EXTRACT: note_off channel=4 note=60 velocity=0 time=0.025770416666666667
EXTRACT: note_on channel=10 note=58 velocity=98 time=0
EXTRACT: note_on channel=10 note=56 velocity=116 time=0
EXTRACT: control_change channel=4 control=0 value=0 time=0.012885208333333334
EXTRACT: control_change channel=4 control=0 value=0 time=0
EXTRACT: control_change channel=4 control=32 value=0 time=0
EXTRACT: control_change channel=4 control=0 value=0 time=0
EXTRACT: control_change channel=4 control=32 value=0 time=0
EXTRACT: program_change channel=4 program=50 time=0
EXTRACT: note_on channel=10 note=65 velocity=111 time=0
EXTRACT: note_on channel=4 note=68 velocity=91 time=0.025770416666666667
EXTRACT: program_change channel=9 program=0 time=0
EXTRACT: note_on channel=9 note=49 velocity=90 time=0
EXTRACT: program_change channel=9 program=32 time=0
EXTRACT: note_off channel=9 note=49 velocity=0 time=0.0016106510416666667
EXTRACT: note_on channel=4 note=63 velocity=80 time=0.011274557291666668
EXTRACT: note_on channel=9 note=36 velocity=127 time=0
EXTRACT: note_on channel=9 note=44 velocity=69 time=0
EXTRACT: note_on channel=9 note=70 velocity=40 time=0
EXTRACT: note_on channel=9 note=51 velocity=69 time=0.012885208333333334
EXTRACT: note_off channel=2 note=27 velocity=0 time=0.025770416666666667
EXTRACT: note_off channel=3 note=51 velocity=0 time=0
EXTRACT: note_off channel=3 note=60 velocity=0 time=0
EXTRACT: note_off channel=9 note=70 velocity=0 time=0
EXTRACT: note_off channel=3 note=56 velocity=0 time=0.012885208333333334
EXTRACT: note_off channel=9 note=51 velocity=0 time=0.06442604166666667
EXTRACT: note_off channel=9 note=44 velocity=0 time=0
EXTRACT: note_off channel=9 note=36 velocity=0 time=0
EXTRACT: note_on channel=9 note=70 velocity=64 time=0.012885208333333334
EXTRACT: note_off channel=10 note=56 velocity=0 time=0.051540833333333334
EXTRACT: note_off channel=10 note=58 velocity=0 time=0
EXTRACT: note_off channel=9 note=70 velocity=0 time=0.012885208333333334
EXTRACT: note_off channel=10 note=65 velocity=0 time=0
EXTRACT: note_on channel=10 note=58 velocity=118 time=0.07731125
EXTRACT: note_on channel=10 note=56 velocity=118 time=0
EXTRACT: note_on channel=9 note=70 velocity=113 time=0.012885208333333334
EXTRACT: note_on channel=9 note=51 velocity=50 time=0
EXTRACT: note_on channel=10 note=65 velocity=115 time=0
EXTRACT: note_off channel=9 note=51 velocity=0 time=0.06442604166666667
EXTRACT: note_off channel=9 note=70 velocity=0 time=0
EXTRACT: note_on channel=9 note=36 velocity=99 time=0.09019645833333334
EXTRACT: note_on channel=9 note=70 velocity=60 time=0
EXTRACT: note_off channel=10 note=65 velocity=0 time=0.051540833333333334
EXTRACT: note_off channel=9 note=70 velocity=0 time=0.012885208333333334
EXTRACT: note_off channel=9 note=36 velocity=0 time=0
EXTRACT: note_on channel=9 note=40 velocity=100 time=0.09019645833333334
EXTRACT: note_on channel=9 note=90 velocity=127 time=0.012885208333333334
EXTRACT: note_on channel=9 note=44 velocity=71 time=0
EXTRACT: note_on channel=9 note=70 velocity=40 time=0
EXTRACT: note_on channel=9 note=51 velocity=71 time=0
EXTRACT: note_on channel=10 note=65 velocity=97 time=0
EXTRACT: note_off channel=9 note=51 velocity=0 time=0.051540833333333334
EXTRACT: note_off channel=9 note=70 velocity=0 time=0
EXTRACT: note_off channel=9 note=44 velocity=0 time=0
EXTRACT: note_off channel=10 note=65 velocity=0 time=0.038655625
EXTRACT: note_off channel=9 note=90 velocity=0 time=0.038655625
EXTRACT: note_off channel=9 note=40 velocity=0 time=0
EXTRACT: note_on channel=9 note=70 velocity=65 time=0.012885208333333334
EXTRACT: note_on channel=10 note=65 velocity=71 time=0
EXTRACT: note_off channel=9 note=70 velocity=0 time=0.06442604166666667
EXTRACT: note_off channel=10 note=65 velocity=0 time=0.038655625
EXTRACT: note_on channel=9 note=70 velocity=110 time=0.051540833333333334
EXTRACT: note_on channel=9 note=51 velocity=50 time=0
EXTRACT: note_on channel=10 note=65 velocity=75 time=0.025770416666666667
EXTRACT: note_off channel=9 note=51 velocity=0 time=0.038655625
EXTRACT: note_off channel=9 note=70 velocity=0 time=0
EXTRACT: note_off channel=10 note=65 velocity=0 time=0.06442604166666667
EXTRACT: note_on channel=2 note=38 velocity=69 time=0.025770416666666667
EXTRACT: note_on channel=9 note=70 velocity=64 time=0
EXTRACT: note_on channel=9 note=36 velocity=110 time=0
EXTRACT: note_on channel=3 note=62 velocity=69 time=0.012885208333333334
EXTRACT: note_off channel=2 note=38 velocity=0 time=0.012885208333333334
EXTRACT: note_on channel=2 note=34 velocity=66 time=0
EXTRACT: note_on channel=3 note=58 velocity=66 time=0
EXTRACT: note_off channel=2 note=34 velocity=0 time=0.012885208333333334
EXTRACT: note_on channel=2 note=29 velocity=48 time=0
EXTRACT: note_on channel=3 note=53 velocity=48 time=0
EXTRACT: note_on channel=10 note=65 velocity=75 time=0
EXTRACT: note_off channel=9 note=36 velocity=0 time=0.025770416666666667
EXTRACT: note_off channel=9 note=70 velocity=0 time=0
EXTRACT: note_off channel=4 note=63 velocity=0 time=0.012885208333333334
EXTRACT: note_off channel=4 note=68 velocity=0 time=0
EXTRACT: note_on channel=4 note=65 velocity=91 time=0
EXTRACT: note_on channel=4 note=62 velocity=80 time=0
EXTRACT: note_off channel=10 note=56 velocity=0 time=0.012885208333333334
EXTRACT: note_off channel=10 note=58 velocity=0 time=0
EXTRACT: note_off channel=3 note=62 velocity=0 time=0.025770416666666667
EXTRACT: note_off channel=2 note=29 velocity=0 time=0.012885208333333334
EXTRACT: note_off channel=3 note=53 velocity=0 time=0
EXTRACT: note_off channel=10 note=65 velocity=0 time=0
EXTRACT: note_on channel=9 note=44 velocity=69 time=0.025770416666666667
EXTRACT: note_on channel=9 note=70 velocity=40 time=0
EXTRACT: note_off channel=3 note=58 velocity=0 time=0.012885208333333334
EXTRACT: note_on channel=9 note=51 velocity=69 time=0
EXTRACT: note_on channel=10 note=65 velocity=87 time=0.012885208333333334
EXTRACT: note_off channel=9 note=51 velocity=0 time=0.038655625
EXTRACT: note_off channel=9 note=70 velocity=0 time=0
EXTRACT: note_off channel=9 note=44 velocity=0 time=0
EXTRACT: note_off channel=10 note=65 velocity=0 time=0.051540833333333334
EXTRACT: note_on channel=9 note=36 velocity=101 time=0.038655625
EXTRACT: note_on channel=9 note=70 velocity=64 time=0
EXTRACT: note_on channel=10 note=65 velocity=74 time=0
EXTRACT: note_off channel=9 note=70 velocity=0 time=0.06442604166666667
EXTRACT: note_off channel=9 note=36 velocity=0 time=0
EXTRACT: note_off channel=10 note=65 velocity=0 time=0.025770416666666667
EXTRACT: note_on channel=9 note=36 velocity=123 time=0.06442604166666667
EXTRACT: note_on channel=9 note=70 velocity=110 time=0
EXTRACT: note_on channel=9 note=51 velocity=52 time=0.012885208333333334
EXTRACT: note_on channel=10 note=65 velocity=87 time=0
EXTRACT: note_off channel=9 note=51 velocity=0 time=0.051540833333333334
EXTRACT: note_off channel=9 note=70 velocity=0 time=0
EXTRACT: note_off channel=9 note=36 velocity=0 time=0
EXTRACT: note_off channel=10 note=65 velocity=0 time=0.025770416666666667
EXTRACT: note_on channel=9 note=70 velocity=64 time=0.06442604166666667
EXTRACT: note_on channel=10 note=65 velocity=97 time=0
EXTRACT: note_off channel=9 note=70 velocity=0 time=0.06442604166666667
EXTRACT: note_off channel=10 note=65 velocity=0 time=0.012885208333333334
EXTRACT: note_on channel=10 note=65 velocity=87 time=0.07731125
EXTRACT: note_on channel=9 note=40 velocity=100 time=0.012885208333333334
EXTRACT: note_on channel=9 note=90 velocity=127 time=0
EXTRACT: note_on channel=9 note=44 velocity=71 time=0
EXTRACT: note_on channel=9 note=70 velocity=40 time=0
EXTRACT: note_on channel=9 note=51 velocity=71 time=0
EXTRACT: note_off channel=9 note=51 velocity=0 time=0.051540833333333334
EXTRACT: note_off channel=9 note=70 velocity=0 time=0
EXTRACT: note_off channel=9 note=44 velocity=0 time=0
EXTRACT: note_off channel=10 note=65 velocity=0 time=0.051540833333333334
EXTRACT: note_off channel=9 note=90 velocity=0 time=0.025770416666666667
EXTRACT: note_off channel=9 note=40 velocity=0 time=0
EXTRACT: note_on channel=10 note=63 velocity=127 time=0
EXTRACT: note_on channel=9 note=36 velocity=110 time=0.012885208333333334
EXTRACT: note_on channel=9 note=70 velocity=60 time=0
EXTRACT: note_off channel=9 note=70 velocity=0 time=0.06442604166666667
EXTRACT: note_off channel=9 note=36 velocity=0 time=0
EXTRACT: note_off channel=10 note=63 velocity=0 time=0.012885208333333334
EXTRACT: note_on channel=10 note=63 velocity=82 time=0.06442604166666667
EXTRACT: note_on channel=9 note=70 velocity=107 time=0.012885208333333334
EXTRACT: note_on channel=9 note=51 velocity=54 time=0
EXTRACT: note_off channel=9 note=51 velocity=0 time=0.06442604166666667
EXTRACT: note_off channel=9 note=70 velocity=0 time=0
EXTRACT: note_off channel=10 note=63 velocity=0 time=0.012885208333333334
EXTRACT: note_on channel=10 note=63 velocity=87 time=0.051540833333333334
EXTRACT: note_on channel=9 note=36 velocity=75 time=0.025770416666666667
EXTRACT: note_on channel=9 note=70 velocity=67 time=0
EXTRACT: note_off channel=9 note=70 velocity=0 time=0.06442604166666667
EXTRACT: note_off channel=9 note=36 velocity=0 time=0
EXTRACT: note_on channel=2 note=39 velocity=46 time=0.012885208333333334
EXTRACT: note_on channel=3 note=63 velocity=46 time=0
EXTRACT: note_off channel=2 note=39 velocity=0 time=0.012885208333333334
EXTRACT: note_on channel=2 note=43 velocity=53 time=0
EXTRACT: note_on channel=2 note=34 velocity=45 time=0
EXTRACT: note_on channel=3 note=67 velocity=53 time=0
EXTRACT: note_off channel=2 note=43 velocity=0 time=0.0016106510416666667
EXTRACT: note_on channel=3 note=58 velocity=45 time=0.011274557291666668
EXTRACT: note_off channel=4 note=62 velocity=0 time=0.038655625
EXTRACT: note_off channel=4 note=65 velocity=0 time=0
EXTRACT: note_on channel=4 note=67 velocity=91 time=0
EXTRACT: note_on channel=4 note=63 velocity=80 time=0
EXTRACT: note_on channel=9 note=36 velocity=110 time=0.025770416666666667
EXTRACT: note_on channel=9 note=44 velocity=69 time=0
EXTRACT: note_on channel=9 note=70 velocity=40 time=0
EXTRACT: note_on channel=9 note=51 velocity=69 time=0
EXTRACT: note_off channel=9 note=70 velocity=0 time=0.051540833333333334
EXTRACT: note_off channel=9 note=36 velocity=0 time=0
EXTRACT: note_off channel=2 note=34 velocity=0 time=0.012885208333333334
EXTRACT: note_off channel=3 note=58 velocity=0 time=0.012885208333333334
EXTRACT: note_off channel=3 note=67 velocity=0 time=0
EXTRACT: note_off channel=3 note=63 velocity=0 time=0.012885208333333334
EXTRACT: note_off channel=9 note=51 velocity=0 time=0.038655625
EXTRACT: note_off channel=9 note=44 velocity=0 time=0
EXTRACT: note_on channel=9 note=70 velocity=64 time=0.012885208333333334
EXTRACT: note_off channel=9 note=70 velocity=0 time=0.06442604166666667
EXTRACT: note_on channel=9 note=70 velocity=113 time=0.09019645833333334
EXTRACT: note_on channel=9 note=51 velocity=50 time=0
EXTRACT: note_off channel=9 note=51 velocity=0 time=0.06442604166666667
EXTRACT: note_off channel=9 note=70 velocity=0 time=0
EXTRACT: note_on channel=9 note=36 velocity=110 time=0.09019645833333334
EXTRACT: note_on channel=9 note=70 velocity=60 time=0
EXTRACT: note_off channel=9 note=70 velocity=0 time=0.06442604166666667
EXTRACT: note_off channel=9 note=36 velocity=0 time=0
EXTRACT: note_on channel=9 note=40 velocity=100 time=0.09019645833333334
EXTRACT: note_on channel=9 note=90 velocity=127 time=0.012885208333333334
EXTRACT: note_on channel=9 note=44 velocity=71 time=0
EXTRACT: note_on channel=9 note=70 velocity=40 time=0
EXTRACT: note_on channel=9 note=51 velocity=71 time=0
EXTRACT: note_off channel=9 note=51 velocity=0 time=0.051540833333333334
EXTRACT: note_off channel=9 note=70 velocity=0 time=0
EXTRACT: note_off channel=9 note=44 velocity=0 time=0
EXTRACT: note_off channel=10 note=63 velocity=0 time=0
EXTRACT: note_off channel=9 note=90 velocity=0 time=0.07731125
EXTRACT: note_off channel=9 note=40 velocity=0 time=0
EXTRACT: note_on channel=9 note=70 velocity=64 time=0.012885208333333334
EXTRACT: note_on channel=10 note=63 velocity=101 time=0.025770416666666667
EXTRACT: note_off channel=9 note=70 velocity=0 time=0.038655625
EXTRACT: note_off channel=10 note=63 velocity=0 time=0.038655625
EXTRACT: note_on channel=2 note=36 velocity=47 time=0.025770416666666667
EXTRACT: note_on channel=3 note=60 velocity=47 time=0
EXTRACT: note_off channel=2 note=36 velocity=0 time=0.0016106510416666667
EXTRACT: note_on channel=2 note=27 velocity=53 time=0.011274557291666668
EXTRACT: note_on channel=2 note=32 velocity=36 time=0
EXTRACT: note_on channel=3 note=51 velocity=53 time=0
EXTRACT: note_on channel=3 note=56 velocity=36 time=0
EXTRACT: note_off channel=2 note=27 velocity=0 time=0.0016106510416666667
EXTRACT: note_on channel=9 note=70 velocity=110 time=0.011274557291666668
EXTRACT: note_on channel=9 note=51 velocity=50 time=0
EXTRACT: note_off channel=4 note=63 velocity=0 time=0.025770416666666667
EXTRACT: note_off channel=4 note=67 velocity=0 time=0
EXTRACT: note_on channel=4 note=68 velocity=91 time=0
EXTRACT: note_on channel=4 note=63 velocity=80 time=0.012885208333333334
EXTRACT: note_on channel=10 note=63 velocity=101 time=0
EXTRACT: note_off channel=9 note=51 velocity=0 time=0.025770416666666667
EXTRACT: note_off channel=9 note=70 velocity=0 time=0
EXTRACT: note_off channel=3 note=51 velocity=0 time=0.012885208333333334
EXTRACT: note_off channel=2 note=32 velocity=0 time=0.012885208333333334
EXTRACT: note_off channel=3 note=56 velocity=0 time=0
EXTRACT: note_off channel=3 note=60 velocity=0 time=0
EXTRACT: note_on channel=9 note=70 velocity=64 time=0.06442604166666667
EXTRACT: note_off channel=10 note=63 velocity=0 time=0.012885208333333334
EXTRACT: note_on channel=10 note=65 velocity=106 time=0.012885208333333334
EXTRACT: note_off channel=9 note=70 velocity=0 time=0.038655625
EXTRACT: note_off channel=10 note=65 velocity=0 time=0.038655625
EXTRACT: note_on channel=9 note=44 velocity=69 time=0.051540833333333334
EXTRACT: note_on channel=9 note=36 velocity=110 time=0.012885208333333334
EXTRACT: note_on channel=9 note=70 velocity=40 time=0
EXTRACT: note_on channel=9 note=51 velocity=69 time=0
EXTRACT: note_on channel=10 note=65 velocity=97 time=0.012885208333333334
EXTRACT: note_off channel=9 note=51 velocity=0 time=0.038655625
EXTRACT: note_off channel=9 note=70 velocity=0 time=0
EXTRACT: note_off channel=9 note=36 velocity=0 time=0
EXTRACT: note_off channel=9 note=44 velocity=0 time=0
EXTRACT: note_on channel=9 note=70 velocity=64 time=0.09019645833333334
EXTRACT: note_off channel=10 note=65 velocity=0 time=0.012885208333333334
EXTRACT: note_on channel=10 note=63 velocity=110 time=0.025770416666666667
EXTRACT: note_off channel=9 note=70 velocity=0 time=0.025770416666666667
EXTRACT: note_off channel=10 note=63 velocity=0 time=0.051540833333333334
EXTRACT: note_on channel=9 note=36 velocity=110 time=0.038655625
EXTRACT: note_on channel=9 note=70 velocity=110 time=0
EXTRACT: note_on channel=9 note=51 velocity=52 time=0.012885208333333334
EXTRACT: note_on channel=10 note=63 velocity=87 time=0.012885208333333334
EXTRACT: note_off channel=9 note=51 velocity=0 time=0.038655625
EXTRACT: note_off channel=9 note=70 velocity=0 time=0
EXTRACT: note_off channel=9 note=36 velocity=0 time=0
EXTRACT: note_on channel=9 note=70 velocity=64 time=0.09019645833333334
EXTRACT: note_on channel=10 note=65 velocity=106 time=0
EXTRACT: note_off channel=10 note=63 velocity=0 time=0.025770416666666667
EXTRACT: note_on channel=2 note=36 velocity=54 time=0.025770416666666667
EXTRACT: note_on channel=3 note=60 velocity=54 time=0
EXTRACT: note_off channel=2 note=36 velocity=0 time=0.012885208333333334
EXTRACT: note_on channel=2 note=31 velocity=57 time=0
EXTRACT: note_on channel=3 note=55 velocity=57 time=0
EXTRACT: note_off channel=9 note=70 velocity=0 time=0
EXTRACT: note_off channel=2 note=31 velocity=0 time=0.012885208333333334
EXTRACT: note_off channel=10 note=65 velocity=0 time=0
EXTRACT: note_on channel=2 note=26 velocity=40 time=0.012885208333333334
EXTRACT: note_on channel=3 note=50 velocity=40 time=0
EXTRACT: note_off channel=4 note=63 velocity=0 time=0.038655625
EXTRACT: note_off channel=4 note=68 velocity=0 time=0
EXTRACT: note_on channel=4 note=67 velocity=91 time=0
EXTRACT: note_on channel=4 note=62 velocity=80 time=0
EXTRACT: note_on channel=9 note=40 velocity=100 time=0.025770416666666667
EXTRACT: note_off channel=2 note=26 velocity=0 time=0.012885208333333334
EXTRACT: note_off channel=3 note=50 velocity=0 time=0
EXTRACT: note_off channel=3 note=60 velocity=0 time=0
EXTRACT: note_on channel=9 note=90 velocity=127 time=0
EXTRACT: note_off channel=3 note=55 velocity=0 time=0.012885208333333334
EXTRACT: note_on channel=9 note=44 velocity=71 time=0
EXTRACT: note_on channel=9 note=70 velocity=40 time=0
EXTRACT: note_on channel=9 note=51 velocity=71 time=0
EXTRACT: note_on channel=10 note=65 velocity=127 time=0
EXTRACT: note_off channel=9 note=51 velocity=0 time=0.038655625
EXTRACT: note_off channel=9 note=70 velocity=0 time=0
EXTRACT: note_off channel=9 note=44 velocity=0 time=0
EXTRACT: note_off channel=9 note=90 velocity=0 time=0.07731125
EXTRACT: note_off channel=9 note=40 velocity=0 time=0
EXTRACT: note_on channel=9 note=70 velocity=73 time=0.012885208333333334
EXTRACT: note_off channel=10 note=65 velocity=0 time=0
EXTRACT: note_on channel=10 note=63 velocity=110 time=0.012885208333333334
EXTRACT: note_off channel=9 note=70 velocity=0 time=0.051540833333333334
EXTRACT: note_off channel=10 note=63 velocity=0 time=0.025770416666666667
EXTRACT: note_on channel=9 note=70 velocity=107 time=0.06442604166666667
EXTRACT: note_on channel=9 note=51 velocity=54 time=0
EXTRACT: note_on channel=10 note=63 velocity=101 time=0.012885208333333334
EXTRACT: note_off channel=9 note=51 velocity=0 time=0.051540833333333334
EXTRACT: note_off channel=9 note=70 velocity=0 time=0
EXTRACT: note_on channel=9 note=70 velocity=67 time=0.09019645833333334
EXTRACT: note_on channel=10 note=65 velocity=115 time=0
EXTRACT: note_off channel=10 note=63 velocity=0 time=0.012885208333333334
EXTRACT: note_on channel=2 note=36 velocity=53 time=0.025770416666666667
EXTRACT: note_on channel=3 note=60 velocity=53 time=0
EXTRACT: note_off channel=2 note=36 velocity=0 time=0.012885208333333334
EXTRACT: note_on channel=2 note=39 velocity=54 time=0
EXTRACT: note_on channel=2 note=31 velocity=48 time=0
EXTRACT: note_on channel=3 note=63 velocity=54 time=0
EXTRACT: note_off channel=2 note=39 velocity=0 time=0.0016106510416666667
EXTRACT: note_on channel=3 note=55 velocity=48 time=0.011274557291666668
EXTRACT: note_off channel=9 note=70 velocity=0 time=0
EXTRACT: note_off channel=4 note=62 velocity=0 time=0.038655625
EXTRACT: note_off channel=4 note=67 velocity=0 time=0
EXTRACT: note_on channel=4 note=63 velocity=91 time=0
EXTRACT: note_on channel=4 note=60 velocity=80 time=0
EXTRACT: note_off channel=10 note=65 velocity=0 time=0.025770416666666667
EXTRACT: note_on channel=9 note=36 velocity=127 time=0.025770416666666667
EXTRACT: note_on channel=9 note=44 velocity=69 time=0.012885208333333334
EXTRACT: note_on channel=9 note=70 velocity=40 time=0
EXTRACT: note_on channel=9 note=51 velocity=69 time=0
EXTRACT: note_on channel=10 note=67 velocity=127 time=0
EXTRACT: note_off channel=2 note=31 velocity=0 time=0.012885208333333334
EXTRACT: note_off channel=3 note=63 velocity=0 time=0
EXTRACT: note_off channel=3 note=55 velocity=0 time=0.012885208333333334
EXTRACT: note_off channel=3 note=60 velocity=0 time=0
EXTRACT: note_off channel=9 note=70 velocity=0 time=0.025770416666666667
EXTRACT: note_off channel=9 note=51 velocity=0 time=0.07731125
EXTRACT: note_off channel=9 note=44 velocity=0 time=0
EXTRACT: note_off channel=9 note=36 velocity=0 time=0
EXTRACT: note_on channel=9 note=70 velocity=69 time=0.012885208333333334
EXTRACT: note_off channel=9 note=70 velocity=0 time=0.06442604166666667
EXTRACT: note_off channel=10 note=67 velocity=0 time=0.025770416666666667
EXTRACT: note_on channel=9 note=70 velocity=113 time=0.06442604166666667
EXTRACT: note_on channel=9 note=51 velocity=50 time=0
EXTRACT: note_on channel=10 note=67 velocity=125 time=0.012885208333333334
EXTRACT: note_off channel=9 note=51 velocity=0 time=0.051540833333333334
EXTRACT: note_off channel=9 note=70 velocity=0 time=0
EXTRACT: note_on channel=9 note=36 velocity=99 time=0.09019645833333334
EXTRACT: note_on channel=9 note=70 velocity=60 time=0
EXTRACT: note_off channel=9 note=70 velocity=0 time=0.06442604166666667
EXTRACT: note_off channel=9 note=36 velocity=0 time=0
EXTRACT: note_on channel=9 note=40 velocity=100 time=0.09019645833333334
EXTRACT: note_on channel=9 note=90 velocity=127 time=0.012885208333333334
EXTRACT: note_on channel=9 note=44 velocity=71 time=0
EXTRACT: note_on channel=9 note=70 velocity=40 time=0
EXTRACT: note_on channel=9 note=51 velocity=71 time=0
EXTRACT: note_off channel=9 note=51 velocity=0 time=0.051540833333333334
EXTRACT: note_off channel=9 note=70 velocity=0 time=0
EXTRACT: note_off channel=9 note=44 velocity=0 time=0
EXTRACT: note_off channel=9 note=90 velocity=0 time=0.07731125
EXTRACT: note_off channel=9 note=40 velocity=0 time=0
EXTRACT: note_on channel=9 note=70 velocity=65 time=0.012885208333333334
EXTRACT: note_on channel=2 note=35 velocity=75 time=0.051540833333333334
EXTRACT: note_on channel=3 note=59 velocity=75 time=0
EXTRACT: note_off channel=2 note=35 velocity=0 time=0.012885208333333334
EXTRACT: note_on channel=2 note=38 velocity=68 time=0
EXTRACT: note_on channel=2 note=31 velocity=57 time=0
EXTRACT: note_on channel=3 note=62 velocity=68 time=0
EXTRACT: note_off channel=9 note=70 velocity=0 time=0
EXTRACT: note_off channel=2 note=38 velocity=0 time=0.0016106510416666667
EXTRACT: note_on channel=3 note=55 velocity=57 time=0.011274557291666668
EXTRACT: note_off channel=4 note=60 velocity=0 time=0.025770416666666667
EXTRACT: note_off channel=4 note=63 velocity=0 time=0
EXTRACT: note_on channel=4 note=67 velocity=91 time=0
EXTRACT: note_on channel=4 note=62 velocity=80 time=0
EXTRACT: note_off channel=10 note=67 velocity=0 time=0.025770416666666667
EXTRACT: note_on channel=9 note=70 velocity=110 time=0.025770416666666667
EXTRACT: note_on channel=9 note=51 velocity=50 time=0
EXTRACT: note_off channel=3 note=62 velocity=0 time=0.012885208333333334
EXTRACT: note_off channel=2 note=31 velocity=0 time=0.012885208333333334
EXTRACT: note_off channel=3 note=55 velocity=0 time=0
EXTRACT: note_off channel=3 note=59 velocity=0 time=0
EXTRACT: note_on channel=10 note=63 velocity=101 time=0.012885208333333334
EXTRACT: note_off channel=9 note=51 velocity=0 time=0.025770416666666667
EXTRACT: note_off channel=9 note=70 velocity=0 time=0
EXTRACT: note_on channel=9 note=70 velocity=64 time=0.09019645833333334
EXTRACT: note_on channel=9 note=36 velocity=110 time=0
EXTRACT: note_off channel=10 note=63 velocity=0 time=0.012885208333333334
EXTRACT: note_on channel=10 note=65 velocity=106 time=0.012885208333333334
EXTRACT: note_off channel=9 note=36 velocity=0 time=0.038655625
EXTRACT: note_off channel=9 note=70 velocity=0 time=0
EXTRACT: note_on channel=9 note=44 velocity=69 time=0.09019645833333334
EXTRACT: note_on channel=9 note=70 velocity=40 time=0
EXTRACT: note_on channel=9 note=51 velocity=69 time=0.012885208333333334
EXTRACT: note_on channel=10 note=67 velocity=127 time=0.012885208333333334
EXTRACT: note_off channel=10 note=65 velocity=0 time=0.012885208333333334
EXTRACT: note_off channel=9 note=51 velocity=0 time=0.025770416666666667
EXTRACT: note_off channel=9 note=70 velocity=0 time=0
EXTRACT: note_off channel=9 note=44 velocity=0 time=0
EXTRACT: note_on channel=9 note=36 velocity=93 time=0.09019645833333334
EXTRACT: note_on channel=9 note=70 velocity=56 time=0
EXTRACT: note_off channel=9 note=70 velocity=0 time=0.06442604166666667
EXTRACT: note_off channel=9 note=36 velocity=0 time=0
EXTRACT: note_on channel=9 note=36 velocity=123 time=0.09019645833333334
EXTRACT: note_on channel=9 note=70 velocity=110 time=0
EXTRACT: note_on channel=9 note=51 velocity=52 time=0.012885208333333334
EXTRACT: note_off channel=9 note=51 velocity=0 time=0.051540833333333334
EXTRACT: note_off channel=9 note=70 velocity=0 time=0
EXTRACT: note_off channel=9 note=36 velocity=0 time=0
EXTRACT: note_on channel=9 note=70 velocity=64 time=0.09019645833333334
EXTRACT: note_on channel=2 note=36 velocity=67 time=0.012885208333333334
EXTRACT: note_off channel=2 note=36 velocity=0 time=0.012885208333333334
EXTRACT: note_on channel=2 note=39 velocity=68 time=0
EXTRACT: note_on channel=3 note=60 velocity=67 time=0
EXTRACT: note_on channel=3 note=63 velocity=68 time=0
EXTRACT: note_off channel=2 note=39 velocity=0 time=0.012885208333333334
EXTRACT: note_on channel=2 note=31 velocity=63 time=0
EXTRACT: note_on channel=3 note=55 velocity=63 time=0
EXTRACT: note_off channel=9 note=70 velocity=0 time=0.025770416666666667
EXTRACT: note_off channel=4 note=62 velocity=0 time=0.012885208333333334
EXTRACT: note_off channel=4 note=67 velocity=0 time=0
EXTRACT: note_on channel=4 note=63 velocity=91 time=0
EXTRACT: note_on channel=4 note=60 velocity=80 time=0
EXTRACT: note_off channel=2 note=31 velocity=0 time=0.012885208333333334
EXTRACT: note_off channel=3 note=55 velocity=0 time=0
EXTRACT: note_off channel=3 note=63 velocity=0 time=0.012885208333333334
EXTRACT: note_off channel=3 note=60 velocity=0 time=0
EXTRACT: note_on channel=9 note=40 velocity=100 time=0.051540833333333334
EXTRACT: note_on channel=9 note=90 velocity=127 time=0.012885208333333334
EXTRACT: note_on channel=9 note=44 velocity=71 time=0
EXTRACT: note_on channel=9 note=70 velocity=40 time=0
EXTRACT: note_on channel=10 note=63 velocity=110 time=0
EXTRACT: note_on channel=9 note=51 velocity=71 time=0.012885208333333334
EXTRACT: note_off channel=10 note=67 velocity=0 time=0.012885208333333334
EXTRACT: note_off channel=9 note=51 velocity=0 time=0.025770416666666667
EXTRACT: note_off channel=9 note=70 velocity=0 time=0
EXTRACT: note_off channel=9 note=44 velocity=0 time=0
EXTRACT: note_off channel=9 note=90 velocity=0 time=0.07731125
EXTRACT: note_off channel=9 note=40 velocity=0 time=0
EXTRACT: note_on channel=9 note=36 velocity=110 time=0.012885208333333334
EXTRACT: note_on channel=9 note=70 velocity=65 time=0
EXTRACT: note_off channel=9 note=70 velocity=0 time=0.06442604166666667
EXTRACT: note_off channel=9 note=36 velocity=0 time=0
EXTRACT: note_on channel=9 note=70 velocity=107 time=0.09019645833333334
EXTRACT: note_on channel=9 note=51 velocity=54 time=0
EXTRACT: note_off channel=9 note=51 velocity=0 time=0.06442604166666667
EXTRACT: note_off channel=9 note=70 velocity=0 time=0
EXTRACT: note_on channel=9 note=36 velocity=75 time=0.09019645833333334
EXTRACT: note_on channel=9 note=70 velocity=67 time=0
EXTRACT: note_off channel=9 note=70 velocity=0 time=0.06442604166666667
EXTRACT: note_off channel=9 note=36 velocity=0 time=0
EXTRACT: control_change channel=9 control=7 value=108 time=0
EXTRACT: control_change channel=9 control=7 value=0 time=0
EXTRACT: note_on channel=9 note=36 velocity=110 time=0.09019645833333334
EXTRACT: note_on channel=9 note=44 velocity=69 time=0.012885208333333334
EXTRACT: note_on channel=9 note=70 velocity=40 time=0
EXTRACT: note_on channel=9 note=51 velocity=69 time=0
EXTRACT: note_on channel=10 note=60 velocity=115 time=0
EXTRACT: note_off channel=10 note=63 velocity=0 time=0.038655625
EXTRACT: note_off channel=9 note=70 velocity=0 time=0.012885208333333334
EXTRACT: note_off channel=9 note=36 velocity=0 time=0
EXTRACT: note_off channel=9 note=51 velocity=0 time=0.07731125
EXTRACT: note_off channel=9 note=44 velocity=0 time=0
EXTRACT: note_on channel=9 note=70 velocity=65 time=0.012885208333333334
EXTRACT: note_off channel=9 note=70 velocity=0 time=0.06442604166666667
EXTRACT: note_on channel=9 note=70 velocity=113 time=0.09019645833333334
EXTRACT: note_on channel=9 note=51 velocity=50 time=0
EXTRACT: note_off channel=9 note=51 velocity=0 time=0.06442604166666667
EXTRACT: note_off channel=9 note=70 velocity=0 time=0
EXTRACT: note_on channel=9 note=36 velocity=110 time=0.09019645833333334
EXTRACT: note_on channel=9 note=70 velocity=60 time=0
EXTRACT: note_off channel=9 note=70 velocity=0 time=0.06442604166666667
EXTRACT: note_off channel=9 note=36 velocity=0 time=0
EXTRACT: note_on channel=9 note=40 velocity=100 time=0.09019645833333334
EXTRACT: note_on channel=9 note=90 velocity=127 time=0
EXTRACT: note_on channel=9 note=44 velocity=71 time=0.012885208333333334
EXTRACT: note_on channel=9 note=70 velocity=113 time=0
EXTRACT: note_on channel=9 note=49 velocity=73 time=0
EXTRACT: note_off channel=9 note=49 velocity=0 time=0.051540833333333334
EXTRACT: note_off channel=9 note=70 velocity=0 time=0
EXTRACT: note_off channel=9 note=44 velocity=0 time=0
EXTRACT: note_off channel=9 note=90 velocity=0 time=0.07731125
EXTRACT: note_off channel=9 note=40 velocity=0 time=0
EXTRACT: note_on channel=9 note=70 velocity=10 time=0.012885208333333334
EXTRACT: control_change channel=9 control=7 value=108 time=0.012885208333333334
EXTRACT: note_off channel=9 note=70 velocity=0 time=0.051540833333333334
EXTRACT: note_on channel=9 note=70 velocity=24 time=0.09019645833333334
EXTRACT: note_off channel=9 note=70 velocity=0 time=0.06442604166666667
EXTRACT: note_off channel=10 note=60 velocity=0 time=0.06442604166666667
EXTRACT: note_on channel=9 note=36 velocity=110 time=0.025770416666666667
EXTRACT: note_on channel=9 note=70 velocity=64 time=0
EXTRACT: note_off channel=9 note=70 velocity=0 time=0.06442604166666667
EXTRACT: note_off channel=9 note=36 velocity=0 time=0
EXTRACT: note_on channel=9 note=40 velocity=100 time=0.09019645833333334
EXTRACT: note_on channel=9 note=90 velocity=125 time=0
EXTRACT: note_on channel=4 note=60 velocity=116 time=0.012885208333333334
EXTRACT: note_on channel=9 note=70 velocity=110 time=0
EXTRACT: note_on channel=9 note=44 velocity=40 time=0
EXTRACT: note_on channel=10 note=48 velocity=127 time=0
EXTRACT: note_off channel=4 note=60 velocity=0 time=0.051540833333333334
EXTRACT: note_off channel=9 note=44 velocity=0 time=0
EXTRACT: note_off channel=9 note=70 velocity=0 time=0
EXTRACT: note_off channel=9 note=90 velocity=0 time=0
EXTRACT: note_off channel=9 note=40 velocity=0 time=0
EXTRACT: note_on channel=9 note=70 velocity=10 time=0.09019645833333334
EXTRACT: note_off channel=10 note=48 velocity=0 time=0.051540833333333334
EXTRACT: note_off channel=9 note=70 velocity=0 time=0.012885208333333334
EXTRACT: note_on channel=9 note=40 velocity=100 time=0.09019645833333334
EXTRACT: note_on channel=10 note=48 velocity=127 time=0
EXTRACT: note_on channel=9 note=90 velocity=123 time=0.012885208333333334
EXTRACT: note_on channel=9 note=70 velocity=24 time=0
EXTRACT: note_off channel=9 note=70 velocity=0 time=0.051540833333333334
EXTRACT: note_off channel=9 note=90 velocity=0 time=0
EXTRACT: note_off channel=9 note=40 velocity=0 time=0
EXTRACT: note_on channel=2 note=36 velocity=125 time=0.09019645833333334
EXTRACT: note_on channel=4 note=60 velocity=113 time=0
EXTRACT: note_on channel=9 note=36 velocity=110 time=0
EXTRACT: note_on channel=9 note=70 velocity=64 time=0
EXTRACT: note_off channel=4 note=60 velocity=0 time=0.051540833333333334
EXTRACT: note_off channel=9 note=70 velocity=0 time=0.012885208333333334
EXTRACT: note_off channel=9 note=36 velocity=0 time=0
EXTRACT: note_on channel=9 note=40 velocity=40 time=0.012885208333333334
EXTRACT: note_off channel=9 note=40 velocity=0 time=0.012885208333333334
EXTRACT: note_off channel=10 note=48 velocity=0 time=0
EXTRACT: note_on channel=9 note=40 velocity=60 time=0.025770416666666667
EXTRACT: note_off channel=9 note=40 velocity=0 time=0.012885208333333334
EXTRACT: note_on channel=10 note=48 velocity=115 time=0.012885208333333334
EXTRACT: note_on channel=9 note=40 velocity=100 time=0.012885208333333334
EXTRACT: note_on channel=3 note=60 velocity=83 time=0.012885208333333334
EXTRACT: note_on channel=3 note=63 velocity=83 time=0
EXTRACT: note_on channel=9 note=90 velocity=127 time=0
EXTRACT: note_on channel=9 note=44 velocity=71 time=0
EXTRACT: note_on channel=9 note=70 velocity=110 time=0
EXTRACT: note_on channel=3 note=67 velocity=83 time=0.012885208333333334
EXTRACT: note_on channel=3 note=72 velocity=83 time=0.012885208333333334
EXTRACT: note_off channel=3 note=63 velocity=0 time=0.025770416666666667
EXTRACT: note_off channel=3 note=60 velocity=0 time=0
EXTRACT: note_off channel=9 note=70 velocity=0 time=0
EXTRACT: note_off channel=9 note=44 velocity=0 time=0
EXTRACT: note_off channel=3 note=67 velocity=0 time=0.012885208333333334
EXTRACT: note_off channel=3 note=72 velocity=0 time=0.025770416666666667
EXTRACT: note_off channel=9 note=90 velocity=0 time=0.038655625
EXTRACT: note_off channel=9 note=40 velocity=0 time=0
EXTRACT: note_on channel=3 note=72 velocity=44 time=0.012885208333333334
EXTRACT: note_on channel=9 note=47 velocity=110 time=0
EXTRACT: note_on channel=9 note=70 velocity=10 time=0
EXTRACT: note_on channel=3 note=67 velocity=44 time=0.012885208333333334
EXTRACT: note_on channel=3 note=63 velocity=44 time=0.012885208333333334
EXTRACT: note_on channel=3 note=60 velocity=44 time=0
EXTRACT: note_off channel=3 note=72 velocity=0 time=0.038655625
EXTRACT: note_off channel=9 note=70 velocity=0 time=0
EXTRACT: note_off channel=9 note=47 velocity=0 time=0
EXTRACT: note_off channel=3 note=67 velocity=0 time=0.012885208333333334
EXTRACT: note_off channel=10 note=48 velocity=0 time=0
EXTRACT: note_off channel=3 note=60 velocity=0 time=0.012885208333333334
EXTRACT: note_off channel=3 note=63 velocity=0 time=0
EXTRACT: note_off channel=2 note=36 velocity=0 time=0.012885208333333334
EXTRACT: note_on channel=2 note=36 velocity=125 time=0.051540833333333334
EXTRACT: note_on channel=9 note=45 velocity=110 time=0
EXTRACT: note_on channel=9 note=70 velocity=22 time=0
EXTRACT: note_on channel=4 note=60 velocity=96 time=0.012885208333333334
EXTRACT: note_on channel=10 note=48 velocity=97 time=0
EXTRACT: note_off channel=4 note=60 velocity=0 time=0.025770416666666667
EXTRACT: note_off channel=9 note=70 velocity=0 time=0.025770416666666667
EXTRACT: note_off channel=9 note=45 velocity=0 time=0
EXTRACT: note_off channel=10 note=48 velocity=0 time=0.07731125
EXTRACT: note_off channel=2 note=36 velocity=0 time=0.012885208333333334
EXTRACT: note_off channel=4 note=60 velocity=0 time=0
EXTRACT: note_off channel=4 note=63 velocity=0 time=0
EXTRACT: control_change channel=4 control=0 value=0 time=0
EXTRACT: control_change channel=4 control=0 value=0 time=0
EXTRACT: control_change channel=4 control=32 value=0 time=0
EXTRACT: program_change channel=4 program=89 time=0
EXTRACT: note_on channel=4 note=60 velocity=81 time=0.012885208333333334
EXTRACT: note_on channel=9 note=36 velocity=91 time=0
EXTRACT: note_on channel=9 note=55 velocity=85 time=0
EXTRACT: note_on channel=9 note=70 velocity=67 time=0
EXTRACT: note_off channel=9 note=70 velocity=0 time=0.051540833333333334
EXTRACT: note_off channel=9 note=55 velocity=0 time=0
EXTRACT: note_off channel=9 note=36 velocity=0 time=0
EXTRACT: note_off channel=4 note=60 velocity=0 time=0.06442604166666667
EXTRACT: control_change channel=4 control=0 value=0 time=0.012885208333333334
EXTRACT: control_change channel=4 control=0 value=0 time=0
EXTRACT: control_change channel=4 control=32 value=0 time=0
EXTRACT: program_change channel=4 program=50 time=0
EXTRACT: program_change channel=9 program=0 time=0.025770416666666667
EXTRACT: note_on channel=9 note=49 velocity=90 time=0
EXTRACT: program_change channel=9 program=32 time=0
EXTRACT: note_on channel=10 note=60 velocity=127 time=0
EXTRACT: note_off channel=9 note=49 velocity=0 time=0.0016106510416666667
EXTRACT: note_on channel=4 note=60 velocity=127 time=0.011274557291666668
EXTRACT: note_on channel=4 note=65 velocity=127 time=0
EXTRACT: note_on channel=10 note=63 velocity=127 time=0
EXTRACT: note_on channel=10 note=67 velocity=127 time=0
EXTRACT: note_on channel=2 note=29 velocity=127 time=0.012885208333333334
EXTRACT: note_on channel=9 note=36 velocity=127 time=0
EXTRACT: note_on channel=9 note=44 velocity=69 time=0
EXTRACT: note_on channel=9 note=42 velocity=69 time=0
EXTRACT: control_change channel=3 control=64 value=127 time=0.012885208333333334
EXTRACT: note_on channel=3 note=60 velocity=81 time=0
EXTRACT: note_on channel=9 note=70 velocity=40 time=0
EXTRACT: note_on channel=9 note=54 velocity=127 time=0
EXTRACT: note_off channel=3 note=60 velocity=0 time=0.012885208333333334
EXTRACT: note_on channel=3 note=65 velocity=81 time=0
EXTRACT: note_off channel=9 note=54 velocity=0 time=0
EXTRACT: note_off channel=9 note=70 velocity=0 time=0
EXTRACT: note_off channel=3 note=65 velocity=0 time=0.012885208333333334
EXTRACT: note_on channel=3 note=68 velocity=81 time=0
EXTRACT: note_on channel=3 note=72 velocity=81 time=0
EXTRACT: note_off channel=3 note=72 velocity=0 time=0.012885208333333334
EXTRACT: note_off channel=3 note=68 velocity=0 time=0
EXTRACT: note_off channel=9 note=42 velocity=0 time=0.051540833333333334
EXTRACT: note_off channel=9 note=44 velocity=0 time=0
EXTRACT: note_off channel=9 note=36 velocity=0 time=0
EXTRACT: note_on channel=3 note=72 velocity=54 time=0.012885208333333334
EXTRACT: note_on channel=9 note=70 velocity=64 time=0
EXTRACT: note_on channel=9 note=54 velocity=71 time=0
EXTRACT: note_on channel=3 note=68 velocity=54 time=0.012885208333333334
EXTRACT: note_on channel=3 note=65 velocity=54 time=0.012885208333333334
EXTRACT: note_on channel=3 note=60 velocity=50 time=0.012885208333333334
EXTRACT: note_off channel=3 note=72 velocity=0 time=0.025770416666666667
EXTRACT: note_off channel=9 note=54 velocity=0 time=0
EXTRACT: note_off channel=9 note=70 velocity=0 time=0
EXTRACT: note_off channel=3 note=68 velocity=0 time=0.012885208333333334
EXTRACT: note_off channel=3 note=65 velocity=0 time=0.012885208333333334
EXTRACT: note_off channel=3 note=60 velocity=0 time=0.012885208333333334
EXTRACT: note_on channel=3 note=60 velocity=52 time=0.051540833333333334
EXTRACT: note_on channel=9 note=42 velocity=36 time=0
EXTRACT: note_on channel=9 note=70 velocity=113 time=0
EXTRACT: note_on channel=3 note=65 velocity=52 time=0.012885208333333334
EXTRACT: note_on channel=3 note=68 velocity=52 time=0
EXTRACT: note_on channel=9 note=54 velocity=117 time=0
EXTRACT: note_on channel=3 note=72 velocity=52 time=0.012885208333333334
EXTRACT: note_off channel=3 note=60 velocity=0 time=0.038655625
EXTRACT: note_off channel=9 note=54 velocity=0 time=0
EXTRACT: note_off channel=9 note=70 velocity=0 time=0
EXTRACT: note_off channel=9 note=42 velocity=0 time=0
EXTRACT: note_off channel=3 note=68 velocity=0 time=0.012885208333333334
EXTRACT: note_off channel=3 note=65 velocity=0 time=0
EXTRACT: note_off channel=3 note=72 velocity=0 time=0.012885208333333334
EXTRACT: note_off channel=2 note=29 velocity=0 time=0.038655625
EXTRACT: note_on channel=2 note=29 velocity=125 time=0.025770416666666667
EXTRACT: note_on channel=9 note=36 velocity=99 time=0
EXTRACT: note_on channel=9 note=70 velocity=60 time=0
EXTRACT: note_on channel=3 note=72 velocity=50 time=0.012885208333333334
EXTRACT: note_on channel=3 note=68 velocity=50 time=0
EXTRACT: note_on channel=9 note=54 velocity=69 time=0
EXTRACT: note_on channel=3 note=65 velocity=50 time=0.012885208333333334
EXTRACT: note_on channel=3 note=60 velocity=50 time=0
EXTRACT: control_change channel=3 control=64 value=0 time=0.012885208333333334
EXTRACT: note_off channel=3 note=72 velocity=0 time=0.025770416666666667
EXTRACT: note_off channel=9 note=54 velocity=0 time=0
EXTRACT: note_off channel=9 note=70 velocity=0 time=0
EXTRACT: note_off channel=9 note=36 velocity=0 time=0
EXTRACT: note_off channel=3 note=65 velocity=0 time=0.012885208333333334
EXTRACT: note_off channel=3 note=68 velocity=0 time=0
EXTRACT: note_off channel=3 note=60 velocity=0 time=0.012885208333333334
EXTRACT: control_change channel=3 control=64 value=127 time=0
EXTRACT: note_on channel=9 note=40 velocity=100 time=0.06442604166666667
EXTRACT: note_on channel=3 note=60 velocity=75 time=0.012885208333333334
EXTRACT: note_on channel=9 note=90 velocity=127 time=0
EXTRACT: note_on channel=9 note=44 velocity=71 time=0
EXTRACT: note_on channel=9 note=42 velocity=71 time=0
EXTRACT: note_on channel=9 note=70 velocity=40 time=0
EXTRACT: note_on channel=9 note=54 velocity=127 time=0
EXTRACT: note_on channel=3 note=65 velocity=75 time=0.012885208333333334
EXTRACT: note_on channel=3 note=68 velocity=75 time=0.012885208333333334
EXTRACT: note_on channel=3 note=72 velocity=75 time=0
EXTRACT: note_off channel=3 note=60 velocity=0 time=0.025770416666666667
EXTRACT: note_off channel=9 note=54 velocity=0 time=0
EXTRACT: note_off channel=9 note=70 velocity=0 time=0
EXTRACT: note_off channel=9 note=42 velocity=0 time=0
EXTRACT: note_off channel=9 note=44 velocity=0 time=0
EXTRACT: note_off channel=3 note=65 velocity=0 time=0.012885208333333334
EXTRACT: note_off channel=3 note=72 velocity=0 time=0.012885208333333334
EXTRACT: note_off channel=3 note=68 velocity=0 time=0
EXTRACT: note_off channel=2 note=29 velocity=0 time=0.051540833333333334
EXTRACT: note_off channel=9 note=90 velocity=0 time=0
EXTRACT: note_off channel=9 note=40 velocity=0 time=0
EXTRACT: note_on channel=3 note=72 velocity=54 time=0.012885208333333334
EXTRACT: note_on channel=9 note=70 velocity=65 time=0
EXTRACT: note_on channel=9 note=54 velocity=64 time=0
EXTRACT: note_on channel=3 note=68 velocity=54 time=0.012885208333333334
EXTRACT: note_on channel=3 note=65 velocity=54 time=0.012885208333333334
EXTRACT: note_on channel=3 note=60 velocity=54 time=0.012885208333333334
EXTRACT: note_off channel=3 note=72 velocity=0 time=0.025770416666666667
EXTRACT: note_off channel=9 note=54 velocity=0 time=0
EXTRACT: note_off channel=9 note=70 velocity=0 time=0
EXTRACT: note_off channel=3 note=68 velocity=0 time=0.012885208333333334
EXTRACT: note_off channel=3 note=65 velocity=0 time=0.012885208333333334
EXTRACT: note_off channel=3 note=60 velocity=0 time=0.012885208333333334
EXTRACT: note_on channel=3 note=60 velocity=50 time=0.051540833333333334
EXTRACT: note_on channel=9 note=42 velocity=40 time=0
EXTRACT: note_on channel=9 note=70 velocity=110 time=0
EXTRACT: note_on channel=3 note=65 velocity=50 time=0.012885208333333334
EXTRACT: note_on channel=9 note=54 velocity=111 time=0
EXTRACT: note_on channel=3 note=68 velocity=50 time=0.012885208333333334
EXTRACT: note_on channel=3 note=72 velocity=50 time=0
EXTRACT: note_off channel=3 note=60 velocity=0 time=0.038655625
EXTRACT: note_off channel=9 note=54 velocity=0 time=0
EXTRACT: note_off channel=9 note=70 velocity=0 time=0
EXTRACT: note_off channel=9 note=42 velocity=0 time=0
EXTRACT: note_off channel=3 note=68 velocity=0 time=0.012885208333333334
EXTRACT: note_off channel=3 note=65 velocity=0 time=0
EXTRACT: note_off channel=3 note=72 velocity=0 time=0.012885208333333334
EXTRACT: note_on channel=3 note=72 velocity=69 time=0.06442604166666667
EXTRACT: note_on channel=9 note=70 velocity=64 time=0
EXTRACT: note_on channel=9 note=54 velocity=58 time=0
EXTRACT: note_on channel=3 note=68 velocity=69 time=0.012885208333333334
EXTRACT: note_on channel=3 note=65 velocity=69 time=0
EXTRACT: note_on channel=3 note=60 velocity=69 time=0.012885208333333334
EXTRACT: control_change channel=3 control=64 value=0 time=0.012885208333333334
EXTRACT: note_off channel=3 note=72 velocity=0 time=0.025770416666666667
EXTRACT: note_off channel=9 note=54 velocity=0 time=0
EXTRACT: note_off channel=9 note=70 velocity=0 time=0
EXTRACT: note_off channel=3 note=65 velocity=0 time=0.012885208333333334
EXTRACT: note_off channel=3 note=68 velocity=0 time=0
EXTRACT: note_off channel=10 note=63 velocity=0 time=0
EXTRACT: note_off channel=3 note=60 velocity=0 time=0.012885208333333334
EXTRACT: note_off channel=4 note=65 velocity=0 time=0
EXTRACT: note_off channel=4 note=60 velocity=0 time=0
EXTRACT: note_on channel=4 note=62 velocity=127 time=0
EXTRACT: control_change channel=3 control=64 value=127 time=0.012885208333333334
EXTRACT: note_on channel=4 note=67 velocity=127 time=0
EXTRACT: note_on channel=2 note=31 velocity=110 time=0.051540833333333334
EXTRACT: note_on channel=9 note=42 velocity=69 time=0
EXTRACT: note_on channel=9 note=44 velocity=69 time=0.012885208333333334
EXTRACT: note_on channel=9 note=70 velocity=40 time=0
EXTRACT: note_on channel=9 note=54 velocity=127 time=0
EXTRACT: note_off channel=10 note=67 velocity=0 time=0
EXTRACT: note_on channel=10 note=65 velocity=90 time=0
EXTRACT: note_on channel=3 note=62 velocity=56 time=0.012885208333333334
EXTRACT: note_on channel=3 note=67 velocity=56 time=0
EXTRACT: note_on channel=9 note=36 velocity=110 time=0
EXTRACT: note_on channel=10 note=62 velocity=127 time=0
EXTRACT: note_on channel=3 note=71 velocity=56 time=0.012885208333333334
EXTRACT: note_off channel=10 note=60 velocity=0 time=0
EXTRACT: note_on channel=3 note=74 velocity=52 time=0.012885208333333334
EXTRACT: note_off channel=3 note=67 velocity=0 time=0.012885208333333334
EXTRACT: note_off channel=3 note=62 velocity=0 time=0
EXTRACT: note_off channel=9 note=36 velocity=0 time=0
EXTRACT: note_off channel=9 note=54 velocity=0 time=0
EXTRACT: note_off channel=9 note=70 velocity=0 time=0
EXTRACT: note_off channel=9 note=44 velocity=0 time=0
EXTRACT: note_off channel=9 note=42 velocity=0 time=0
EXTRACT: note_off channel=3 note=71 velocity=0 time=0.012885208333333334
EXTRACT: note_off channel=3 note=74 velocity=0 time=0.025770416666666667
EXTRACT: note_on channel=3 note=62 velocity=52 time=0.051540833333333334
EXTRACT: note_on channel=9 note=70 velocity=64 time=0
EXTRACT: note_on channel=9 note=54 velocity=56 time=0
EXTRACT: note_on channel=3 note=67 velocity=52 time=0.012885208333333334
EXTRACT: note_on channel=3 note=71 velocity=52 time=0
EXTRACT: note_on channel=3 note=74 velocity=52 time=0.012885208333333334
EXTRACT: note_off channel=3 note=62 velocity=0 time=0.038655625
EXTRACT: note_off channel=9 note=54 velocity=0 time=0
EXTRACT: note_off channel=9 note=70 velocity=0 time=0
EXTRACT: note_off channel=3 note=71 velocity=0 time=0.012885208333333334
EXTRACT: note_off channel=3 note=67 velocity=0 time=0
EXTRACT: note_off channel=3 note=74 velocity=0 time=0.012885208333333334
EXTRACT: note_on channel=3 note=74 velocity=52 time=0.06442604166666667
EXTRACT: note_on channel=9 note=42 velocity=38 time=0
EXTRACT: note_on channel=9 note=70 velocity=110 time=0
EXTRACT: note_on channel=3 note=71 velocity=52 time=0.012885208333333334
EXTRACT: note_on channel=9 note=54 velocity=99 time=0
EXTRACT: note_on channel=3 note=67 velocity=52 time=0.012885208333333334
EXTRACT: note_on channel=3 note=62 velocity=52 time=0.012885208333333334
EXTRACT: note_off channel=2 note=31 velocity=0 time=0.025770416666666667
EXTRACT: note_off channel=3 note=74 velocity=0 time=0
EXTRACT: note_off channel=9 note=54 velocity=0 time=0
EXTRACT: note_off channel=9 note=70 velocity=0 time=0
EXTRACT: note_off channel=9 note=42 velocity=0 time=0
EXTRACT: note_off channel=3 note=71 velocity=0 time=0.012885208333333334
EXTRACT: note_off channel=3 note=67 velocity=0 time=0.012885208333333334
EXTRACT: note_off channel=3 note=62 velocity=0 time=0.012885208333333334
EXTRACT: note_on channel=2 note=31 velocity=125 time=0.051540833333333334
EXTRACT: note_on channel=9 note=70 velocity=64 time=0
EXTRACT: note_on channel=9 note=54 velocity=52 time=0
EXTRACT: note_on channel=3 note=74 velocity=54 time=0.012885208333333334
EXTRACT: note_on channel=3 note=71 velocity=54 time=0
EXTRACT: note_on channel=9 note=36 velocity=123 time=0
EXTRACT: note_on channel=3 note=67 velocity=54 time=0.012885208333333334
EXTRACT: note_on channel=3 note=62 velocity=54 time=0
EXTRACT: control_change channel=3 control=64 value=0 time=0.025770416666666667
EXTRACT: note_off channel=3 note=74 velocity=0 time=0.012885208333333334
EXTRACT: note_off channel=9 note=36 velocity=0 time=0
EXTRACT: note_off channel=9 note=54 velocity=0 time=0
EXTRACT: note_off channel=9 note=70 velocity=0 time=0
EXTRACT: note_off channel=3 note=71 velocity=0 time=0.012885208333333334
EXTRACT: note_off channel=3 note=62 velocity=0 time=0.012885208333333334
EXTRACT: note_off channel=3 note=67 velocity=0 time=0
EXTRACT: control_change channel=3 control=64 value=127 time=0.012885208333333334
EXTRACT: note_on channel=9 note=40 velocity=100 time=0.051540833333333334
EXTRACT: note_on channel=3 note=62 velocity=73 time=0.012885208333333334
EXTRACT: note_on channel=9 note=90 velocity=127 time=0
EXTRACT: note_on channel=9 note=44 velocity=71 time=0
EXTRACT: note_on channel=9 note=42 velocity=71 time=0
EXTRACT: note_on channel=9 note=70 velocity=40 time=0
EXTRACT: note_on channel=9 note=54 velocity=127 time=0
EXTRACT: note_on channel=3 note=67 velocity=73 time=0.012885208333333334
EXTRACT: note_on channel=3 note=71 velocity=73 time=0.012885208333333334
EXTRACT: note_on channel=3 note=74 velocity=73 time=0
EXTRACT: note_off channel=3 note=62 velocity=0 time=0.025770416666666667
EXTRACT: note_off channel=9 note=54 velocity=0 time=0
EXTRACT: note_off channel=9 note=70 velocity=0 time=0
EXTRACT: note_off channel=9 note=42 velocity=0 time=0
EXTRACT: note_off channel=9 note=44 velocity=0 time=0
EXTRACT: note_off channel=10 note=65 velocity=0 time=0
EXTRACT: note_off channel=3 note=67 velocity=0 time=0.012885208333333334
EXTRACT: note_off channel=10 note=62 velocity=0 time=0
EXTRACT: note_off channel=3 note=74 velocity=0 time=0.012885208333333334
EXTRACT: note_off channel=3 note=71 velocity=0 time=0
EXTRACT: note_off channel=9 note=90 velocity=0 time=0.051540833333333334
EXTRACT: note_off channel=9 note=40 velocity=0 time=0
EXTRACT: note_on channel=3 note=74 velocity=50 time=0.012885208333333334
EXTRACT: note_on channel=9 note=70 velocity=60 time=0
EXTRACT: note_on channel=9 note=54 velocity=64 time=0
EXTRACT: note_on channel=3 note=71 velocity=50 time=0.012885208333333334
EXTRACT: note_on channel=10 note=63 velocity=86 time=0
EXTRACT: note_on channel=10 note=67 velocity=94 time=0
EXTRACT: note_on channel=3 note=67 velocity=50 time=0.012885208333333334
EXTRACT: note_on channel=10 note=62 velocity=83 time=0
EXTRACT: note_on channel=3 note=62 velocity=52 time=0.012885208333333334
EXTRACT: note_off channel=3 note=74 velocity=0 time=0.025770416666666667
EXTRACT: note_off channel=9 note=54 velocity=0 time=0
EXTRACT: note_off channel=9 note=70 velocity=0 time=0
EXTRACT: note_off channel=3 note=71 velocity=0 time=0.012885208333333334
EXTRACT: note_off channel=3 note=67 velocity=0 time=0.012885208333333334
EXTRACT: note_off channel=2 note=31 velocity=0 time=0.012885208333333334
EXTRACT: note_off channel=3 note=62 velocity=0 time=0
EXTRACT: note_on channel=2 note=31 velocity=125 time=0.051540833333333334
EXTRACT: note_on channel=9 note=42 velocity=42 time=0
EXTRACT: note_on channel=9 note=70 velocity=107 time=0
EXTRACT: note_on channel=3 note=62 velocity=52 time=0.012885208333333334
EXTRACT: note_on channel=9 note=36 velocity=119 time=0
EXTRACT: note_on channel=9 note=54 velocity=101 time=0
EXTRACT: note_on channel=3 note=67 velocity=52 time=0.012885208333333334
EXTRACT: note_on channel=3 note=71 velocity=52 time=0
EXTRACT: note_on channel=3 note=74 velocity=52 time=0
EXTRACT: note_off channel=3 note=62 velocity=0 time=0.038655625
EXTRACT: note_off channel=9 note=54 velocity=0 time=0
EXTRACT: note_off channel=9 note=36 velocity=0 time=0
EXTRACT: note_off channel=9 note=70 velocity=0 time=0
EXTRACT: note_off channel=9 note=42 velocity=0 time=0
EXTRACT: note_off channel=3 note=71 velocity=0 time=0.012885208333333334
EXTRACT: note_off channel=3 note=67 velocity=0 time=0
EXTRACT: note_off channel=10 note=63 velocity=0 time=0
EXTRACT: note_off channel=3 note=74 velocity=0 time=0.012885208333333334
EXTRACT: note_off channel=10 note=62 velocity=0 time=0.012885208333333334
EXTRACT: note_off channel=10 note=67 velocity=0 time=0
EXTRACT: note_on channel=3 note=74 velocity=52 time=0.051540833333333334
EXTRACT: note_on channel=9 note=70 velocity=67 time=0
EXTRACT: note_on channel=9 note=54 velocity=58 time=0
EXTRACT: note_on channel=3 note=71 velocity=52 time=0.012885208333333334
EXTRACT: note_on channel=3 note=67 velocity=52 time=0
EXTRACT: note_on channel=10 note=62 velocity=92 time=0
EXTRACT: note_on channel=3 note=62 velocity=52 time=0.012885208333333334
EXTRACT: note_on channel=10 note=65 velocity=92 time=0
EXTRACT: control_change channel=3 control=64 value=0 time=0.025770416666666667
EXTRACT: note_off channel=3 note=74 velocity=0 time=0.012885208333333334
EXTRACT: note_off channel=9 note=54 velocity=0 time=0
EXTRACT: note_off channel=9 note=70 velocity=0 time=0
EXTRACT: note_on channel=10 note=63 velocity=63 time=0
EXTRACT: note_off channel=3 note=67 velocity=0 time=0.012885208333333334
EXTRACT: note_off channel=3 note=71 velocity=0 time=0
EXTRACT: note_off channel=3 note=62 velocity=0 time=0.012885208333333334
EXTRACT: control_change channel=3 control=64 value=127 time=0
EXTRACT: note_off channel=2 note=31 velocity=0 time=0.025770416666666667
EXTRACT: control_change channel=3 control=64 value=0 time=0.025770416666666667
EXTRACT: note_off channel=4 note=67 velocity=0 time=0
EXTRACT: note_off channel=4 note=62 velocity=0 time=0
EXTRACT: note_on channel=4 note=60 velocity=127 time=0
EXTRACT: note_on channel=4 note=63 velocity=127 time=0
EXTRACT: control_change channel=3 control=64 value=127 time=0.025770416666666667
EXTRACT: note_on channel=9 note=42 velocity=69 time=0
EXTRACT: note_off channel=10 note=62 velocity=0 time=0
EXTRACT: note_on channel=2 note=36 velocity=121 time=0.012885208333333334
EXTRACT: control_change channel=3 control=64 value=127 time=0
EXTRACT: note_on channel=9 note=44 velocity=69 time=0
EXTRACT: note_on channel=9 note=70 velocity=40 time=0
EXTRACT: note_on channel=9 note=54 velocity=127 time=0
EXTRACT: note_on channel=9 note=36 velocity=125 time=0
EXTRACT: note_on channel=3 note=60 velocity=81 time=0.012885208333333334
EXTRACT: note_on channel=3 note=63 velocity=81 time=0
EXTRACT: note_on channel=3 note=67 velocity=81 time=0
EXTRACT: note_on channel=3 note=72 velocity=81 time=0.012885208333333334
EXTRACT: note_off channel=3 note=60 velocity=0 time=0.012885208333333334
EXTRACT: note_off channel=9 note=36 velocity=0 time=0
EXTRACT: note_off channel=9 note=54 velocity=0 time=0
EXTRACT: note_off channel=9 note=70 velocity=0 time=0
EXTRACT: note_off channel=3 note=63 velocity=0 time=0.012885208333333334
EXTRACT: note_off channel=3 note=72 velocity=0 time=0.012885208333333334
EXTRACT: note_off channel=3 note=67 velocity=0 time=0
EXTRACT: note_off channel=10 note=63 velocity=0 time=0.025770416666666667
EXTRACT: note_off channel=9 note=44 velocity=0 time=0.025770416666666667
EXTRACT: note_off channel=9 note=42 velocity=0 time=0
EXTRACT: note_on channel=3 note=72 velocity=54 time=0.012885208333333334
EXTRACT: note_on channel=9 note=70 velocity=64 time=0
EXTRACT: note_on channel=9 note=54 velocity=71 time=0
EXTRACT: note_on channel=3 note=67 velocity=54 time=0.012885208333333334
EXTRACT: note_on channel=3 note=63 velocity=54 time=0.012885208333333334
EXTRACT: note_on channel=3 note=60 velocity=50 time=0.012885208333333334
EXTRACT: note_off channel=3 note=72 velocity=0 time=0.025770416666666667
EXTRACT: note_off channel=9 note=54 velocity=0 time=0
EXTRACT: note_off channel=9 note=70 velocity=0 time=0
EXTRACT: note_off channel=3 note=67 velocity=0 time=0.012885208333333334
EXTRACT: note_off channel=3 note=63 velocity=0 time=0.012885208333333334
EXTRACT: note_off channel=3 note=60 velocity=0 time=0.012885208333333334
EXTRACT: note_on channel=9 note=42 velocity=36 time=0.051540833333333334
EXTRACT: note_on channel=9 note=70 velocity=113 time=0
EXTRACT: note_on channel=10 note=63 velocity=92 time=0
EXTRACT: note_on channel=3 note=60 velocity=52 time=0.012885208333333334
EXTRACT: note_on channel=3 note=63 velocity=52 time=0
EXTRACT: note_on channel=3 note=67 velocity=52 time=0
EXTRACT: note_on channel=9 note=54 velocity=117 time=0
EXTRACT: note_on channel=3 note=72 velocity=52 time=0.012885208333333334
EXTRACT: note_on channel=10 note=60 velocity=44 time=0
EXTRACT: note_off channel=3 note=60 velocity=0 time=0.038655625
EXTRACT: note_off channel=9 note=54 velocity=0 time=0
EXTRACT: note_off channel=9 note=70 velocity=0 time=0
EXTRACT: note_off channel=9 note=42 velocity=0 time=0
EXTRACT: note_off channel=3 note=67 velocity=0 time=0.012885208333333334
EXTRACT: note_off channel=3 note=63 velocity=0 time=0
EXTRACT: note_off channel=3 note=72 velocity=0 time=0.012885208333333334
EXTRACT: note_off channel=10 note=65 velocity=0 time=0
EXTRACT: note_off channel=2 note=36 velocity=0 time=0.038655625
EXTRACT: note_on channel=9 note=36 velocity=110 time=0.025770416666666667
EXTRACT: note_on channel=9 note=70 velocity=60 time=0
EXTRACT: note_on channel=2 note=36 velocity=125 time=0.012885208333333334
EXTRACT: note_on channel=3 note=72 velocity=50 time=0
EXTRACT: note_on channel=3 note=67 velocity=50 time=0
EXTRACT: note_on channel=9 note=54 velocity=69 time=0
EXTRACT: note_on channel=3 note=63 velocity=50 time=0.012885208333333334
EXTRACT: note_on channel=3 note=60 velocity=50 time=0
EXTRACT: control_change channel=3 control=64 value=0 time=0.012885208333333334
EXTRACT: note_off channel=10 note=60 velocity=0 time=0
EXTRACT: note_off channel=3 note=72 velocity=0 time=0.025770416666666667
EXTRACT: note_off channel=9 note=54 velocity=0 time=0
EXTRACT: note_off channel=9 note=70 velocity=0 time=0
EXTRACT: note_off channel=9 note=36 velocity=0 time=0
EXTRACT: note_off channel=3 note=63 velocity=0 time=0.012885208333333334
EXTRACT: note_off channel=3 note=67 velocity=0 time=0
EXTRACT: note_off channel=10 note=63 velocity=0 time=0
EXTRACT: note_off channel=3 note=60 velocity=0 time=0.012885208333333334
EXTRACT: control_change channel=3 control=64 value=127 time=0
EXTRACT: note_on channel=10 note=60 velocity=115 time=0.06442604166666667
EXTRACT: note_on channel=9 note=40 velocity=100 time=0.012885208333333334
EXTRACT: note_on channel=9 note=90 velocity=127 time=0
EXTRACT: note_on channel=9 note=44 velocity=71 time=0
EXTRACT: note_on channel=10 note=63 velocity=108 time=0
EXTRACT: note_on channel=10 note=67 velocity=95 time=0
EXTRACT: note_on channel=3 note=60 velocity=75 time=0.012885208333333334
EXTRACT: note_on channel=9 note=42 velocity=71 time=0
EXTRACT: note_on channel=9 note=70 velocity=40 time=0
EXTRACT: note_on channel=9 note=54 velocity=127 time=0
EXTRACT: note_on channel=3 note=63 velocity=75 time=0.012885208333333334
EXTRACT: note_on channel=3 note=67 velocity=75 time=0
EXTRACT: note_on channel=3 note=72 velocity=75 time=0
EXTRACT: note_off channel=3 note=60 velocity=0 time=0.025770416666666667
EXTRACT: note_off channel=9 note=54 velocity=0 time=0
EXTRACT: note_off channel=9 note=70 velocity=0 time=0
EXTRACT: note_off channel=9 note=42 velocity=0 time=0
EXTRACT: note_off channel=9 note=44 velocity=0 time=0
EXTRACT: note_off channel=3 note=63 velocity=0 time=0.012885208333333334
EXTRACT: note_off channel=3 note=72 velocity=0 time=0.012885208333333334
EXTRACT: note_off channel=3 note=67 velocity=0 time=0
EXTRACT: note_off channel=2 note=36 velocity=0 time=0.051540833333333334
EXTRACT: note_off channel=9 note=90 velocity=0 time=0
EXTRACT: note_off channel=9 note=40 velocity=0 time=0
EXTRACT: note_on channel=3 note=72 velocity=54 time=0.012885208333333334
EXTRACT: note_on channel=9 note=70 velocity=64 time=0
EXTRACT: note_on channel=9 note=54 velocity=64 time=0
EXTRACT: note_on channel=3 note=67 velocity=54 time=0.012885208333333334
EXTRACT: note_on channel=3 note=63 velocity=54 time=0.012885208333333334
EXTRACT: note_on channel=3 note=60 velocity=54 time=0.012885208333333334
EXTRACT: note_off channel=3 note=72 velocity=0 time=0.025770416666666667
EXTRACT: note_off channel=9 note=54 velocity=0 time=0
EXTRACT: note_off channel=9 note=70 velocity=0 time=0
EXTRACT: note_off channel=3 note=67 velocity=0 time=0.012885208333333334
EXTRACT: note_off channel=3 note=63 velocity=0 time=0.012885208333333334
EXTRACT: note_off channel=3 note=60 velocity=0 time=0.012885208333333334
EXTRACT: note_off channel=10 note=67 velocity=0 time=0
EXTRACT: note_off channel=10 note=60 velocity=0 time=0
EXTRACT: note_off channel=10 note=63 velocity=0 time=0.012885208333333334
EXTRACT: note_on channel=3 note=60 velocity=50 time=0.038655625
EXTRACT: note_on channel=9 note=42 velocity=40 time=0
EXTRACT: note_on channel=9 note=70 velocity=110 time=0
EXTRACT: note_on channel=3 note=63 velocity=50 time=0.012885208333333334
EXTRACT: note_on channel=9 note=54 velocity=111 time=0
EXTRACT: note_on channel=3 note=67 velocity=50 time=0.012885208333333334
EXTRACT: note_on channel=10 note=63 velocity=80 time=0
EXTRACT: note_on channel=10 note=60 velocity=100 time=0
EXTRACT: note_on channel=3 note=72 velocity=50 time=0.012885208333333334
EXTRACT: note_on channel=10 note=67 velocity=78 time=0
EXTRACT: note_off channel=3 note=60 velocity=0 time=0.025770416666666667
EXTRACT: note_off channel=9 note=54 velocity=0 time=0
EXTRACT: note_off channel=9 note=70 velocity=0 time=0
EXTRACT: note_off channel=9 note=42 velocity=0 time=0
EXTRACT: note_off channel=3 note=67 velocity=0 time=0.012885208333333334
EXTRACT: note_off channel=3 note=63 velocity=0 time=0
EXTRACT: note_off channel=3 note=72 velocity=0 time=0.012885208333333334
EXTRACT: note_on channel=3 note=72 velocity=69 time=0.06442604166666667
EXTRACT: note_on channel=9 note=70 velocity=64 time=0
EXTRACT: note_on channel=9 note=54 velocity=58 time=0
EXTRACT: note_on channel=3 note=67 velocity=69 time=0.012885208333333334
EXTRACT: note_on channel=3 note=63 velocity=69 time=0
EXTRACT: note_on channel=3 note=60 velocity=69 time=0.012885208333333334
EXTRACT: control_change channel=3 control=64 value=0 time=0.012885208333333334
EXTRACT: note_off channel=3 note=72 velocity=0 time=0.025770416666666667
EXTRACT: note_off channel=9 note=54 velocity=0 time=0
EXTRACT: note_off channel=9 note=70 velocity=0 time=0
EXTRACT: note_off channel=3 note=63 velocity=0 time=0.012885208333333334
EXTRACT: note_off channel=3 note=67 velocity=0 time=0
EXTRACT: note_off channel=3 note=60 velocity=0 time=0.012885208333333334
EXTRACT: control_change channel=3 control=64 value=127 time=0
EXTRACT: note_off channel=10 note=67 velocity=0 time=0
EXTRACT: note_off channel=10 note=63 velocity=0 time=0.012885208333333334
EXTRACT: note_on channel=9 note=42 velocity=69 time=0.051540833333333334
EXTRACT: note_on channel=2 note=36 velocity=110 time=0.012885208333333334
EXTRACT: note_on channel=9 note=44 velocity=69 time=0
EXTRACT: note_on channel=9 note=36 velocity=110 time=0
EXTRACT: note_on channel=10 note=68 velocity=85 time=0
EXTRACT: note_on channel=10 note=65 velocity=80 time=0
EXTRACT: note_on channel=3 note=60 velocity=56 time=0.012885208333333334
EXTRACT: note_on channel=3 note=63 velocity=56 time=0
EXTRACT: note_on channel=9 note=70 velocity=40 time=0
EXTRACT: note_on channel=9 note=54 velocity=127 time=0
EXTRACT: note_on channel=3 note=67 velocity=56 time=0.012885208333333334
EXTRACT: note_on channel=3 note=72 velocity=52 time=0
EXTRACT: note_on channel=10 note=67 velocity=22 time=0
EXTRACT: note_off channel=3 note=63 velocity=0 time=0.025770416666666667
EXTRACT: note_off channel=3 note=60 velocity=0 time=0
EXTRACT: note_off channel=9 note=54 velocity=0 time=0
EXTRACT: note_off channel=9 note=70 velocity=0 time=0
EXTRACT: note_off channel=9 note=36 velocity=0 time=0
EXTRACT: note_off channel=9 note=44 velocity=0 time=0
EXTRACT: note_off channel=9 note=42 velocity=0 time=0
EXTRACT: note_off channel=3 note=67 velocity=0 time=0.012885208333333334
EXTRACT: note_off channel=3 note=72 velocity=0 time=0.025770416666666667
EXTRACT: note_on channel=9 note=70 velocity=64 time=0.051540833333333334
EXTRACT: note_on channel=9 note=54 velocity=56 time=0
EXTRACT: note_off channel=10 note=67 velocity=0 time=0
EXTRACT: note_on channel=3 note=60 velocity=52 time=0.012885208333333334
EXTRACT: note_on channel=3 note=63 velocity=52 time=0
EXTRACT: note_on channel=3 note=67 velocity=52 time=0.012885208333333334
EXTRACT: note_on channel=3 note=72 velocity=52 time=0
EXTRACT: note_off channel=3 note=60 velocity=0 time=0.038655625
EXTRACT: note_off channel=9 note=54 velocity=0 time=0
EXTRACT: note_off channel=9 note=70 velocity=0 time=0
EXTRACT: note_off channel=10 note=68 velocity=0 time=0
EXTRACT: note_off channel=3 note=67 velocity=0 time=0.012885208333333334
EXTRACT: note_off channel=3 note=63 velocity=0 time=0
EXTRACT: note_off channel=10 note=65 velocity=0 time=0
EXTRACT: note_off channel=10 note=60 velocity=0 time=0
EXTRACT: note_off channel=3 note=72 velocity=0 time=0.012885208333333334
EXTRACT: note_on channel=9 note=36 velocity=110 time=0.06442604166666667
EXTRACT: note_on channel=9 note=42 velocity=38 time=0
EXTRACT: note_on channel=3 note=72 velocity=52 time=0.012885208333333334
EXTRACT: note_on channel=9 note=70 velocity=110 time=0
EXTRACT: note_on channel=9 note=54 velocity=99 time=0
EXTRACT: note_on channel=10 note=60 velocity=64 time=0
EXTRACT: note_on channel=10 note=68 velocity=127 time=0
EXTRACT: note_on channel=3 note=67 velocity=52 time=0.012885208333333334
EXTRACT: note_on channel=10 note=65 velocity=61 time=0
EXTRACT: note_on channel=3 note=63 velocity=52 time=0.012885208333333334
EXTRACT: note_on channel=3 note=60 velocity=52 time=0
EXTRACT: note_off channel=3 note=72 velocity=0 time=0.025770416666666667
EXTRACT: note_off channel=9 note=54 velocity=0 time=0
EXTRACT: note_off channel=9 note=70 velocity=0 time=0
EXTRACT: note_off channel=9 note=42 velocity=0 time=0
EXTRACT: note_off channel=9 note=36 velocity=0 time=0
EXTRACT: note_off channel=3 note=67 velocity=0 time=0.012885208333333334
EXTRACT: note_off channel=3 note=63 velocity=0 time=0.012885208333333334
EXTRACT: note_off channel=10 note=65 velocity=0 time=0
EXTRACT: note_off channel=3 note=60 velocity=0 time=0.012885208333333334
EXTRACT: note_on channel=10 note=67 velocity=60 time=0.025770416666666667
EXTRACT: note_off channel=2 note=36 velocity=0 time=0.012885208333333334
EXTRACT: note_on channel=2 note=31 velocity=110 time=0.012885208333333334
EXTRACT: note_on channel=9 note=70 velocity=64 time=0
EXTRACT: note_on channel=10 note=63 velocity=82 time=0
EXTRACT: note_on channel=3 note=72 velocity=54 time=0.012885208333333334
EXTRACT: note_on channel=3 note=67 velocity=54 time=0
EXTRACT: note_on channel=9 note=54 velocity=52 time=0
EXTRACT: note_on channel=3 note=63 velocity=54 time=0.012885208333333334
EXTRACT: note_on channel=3 note=60 velocity=54 time=0
EXTRACT: control_change channel=3 control=64 value=0 time=0.025770416666666667
EXTRACT: note_off channel=10 note=68 velocity=0 time=0
EXTRACT: note_off channel=10 note=60 velocity=0 time=0
EXTRACT: note_off channel=3 note=72 velocity=0 time=0.012885208333333334
EXTRACT: note_off channel=9 note=54 velocity=0 time=0
EXTRACT: note_off channel=9 note=70 velocity=0 time=0
EXTRACT: note_off channel=3 note=67 velocity=0 time=0.012885208333333334
EXTRACT: note_off channel=3 note=60 velocity=0 time=0.012885208333333334
EXTRACT: note_off channel=3 note=63 velocity=0 time=0
EXTRACT: control_change channel=3 control=64 value=127 time=0.012885208333333334
EXTRACT: note_off channel=2 note=31 velocity=0 time=0.038655625
EXTRACT: note_on channel=9 note=40 velocity=100 time=0.012885208333333334
EXTRACT: note_on channel=2 note=34 velocity=110 time=0.012885208333333334
EXTRACT: note_on channel=9 note=90 velocity=127 time=0
EXTRACT: note_on channel=9 note=44 velocity=71 time=0
EXTRACT: note_on channel=9 note=42 velocity=71 time=0
EXTRACT: note_on channel=9 note=70 velocity=40 time=0
EXTRACT: note_on channel=3 note=60 velocity=73 time=0.012885208333333334
EXTRACT: note_on channel=3 note=63 velocity=73 time=0
EXTRACT: note_on channel=9 note=54 velocity=127 time=0
EXTRACT: note_on channel=3 note=67 velocity=73 time=0.012885208333333334
EXTRACT: note_on channel=3 note=72 velocity=73 time=0
EXTRACT: note_off channel=3 note=60 velocity=0 time=0.025770416666666667
EXTRACT: note_off channel=9 note=54 velocity=0 time=0
EXTRACT: note_off channel=9 note=70 velocity=0 time=0
EXTRACT: note_off channel=9 note=42 velocity=0 time=0
EXTRACT: note_off channel=9 note=44 velocity=0 time=0
EXTRACT: note_off channel=3 note=63 velocity=0 time=0.012885208333333334
EXTRACT: note_off channel=3 note=72 velocity=0 time=0.012885208333333334
EXTRACT: note_off channel=3 note=67 velocity=0 time=0
EXTRACT: note_off channel=2 note=34 velocity=0 time=0.051540833333333334
EXTRACT: note_off channel=9 note=90 velocity=0 time=0
EXTRACT: note_off channel=9 note=40 velocity=0 time=0
EXTRACT: note_on channel=2 note=36 velocity=110 time=0.012885208333333334
EXTRACT: note_on channel=9 note=70 velocity=73 time=0
EXTRACT: note_on channel=3 note=72 velocity=50 time=0.012885208333333334
EXTRACT: note_on channel=9 note=54 velocity=64 time=0
EXTRACT: note_on channel=10 note=65 velocity=78 time=0
EXTRACT: note_on channel=3 note=67 velocity=50 time=0.012885208333333334
EXTRACT: note_off channel=10 note=63 velocity=0 time=0
EXTRACT: note_on channel=10 note=62 velocity=111 time=0
EXTRACT: note_on channel=3 note=63 velocity=50 time=0.012885208333333334
EXTRACT: note_on channel=3 note=60 velocity=52 time=0
EXTRACT: note_off channel=3 note=72 velocity=0 time=0.025770416666666667
EXTRACT: note_off channel=9 note=54 velocity=0 time=0
EXTRACT: note_off channel=9 note=70 velocity=0 time=0
EXTRACT: note_off channel=10 note=67 velocity=0 time=0
EXTRACT: note_off channel=3 note=67 velocity=0 time=0.012885208333333334
EXTRACT: note_off channel=3 note=63 velocity=0 time=0.012885208333333334
EXTRACT: note_off channel=3 note=60 velocity=0 time=0.012885208333333334
EXTRACT: note_on channel=3 note=60 velocity=52 time=0.051540833333333334
EXTRACT: note_on channel=9 note=42 velocity=42 time=0
EXTRACT: note_on channel=9 note=70 velocity=107 time=0
EXTRACT: note_on channel=3 note=63 velocity=52 time=0.012885208333333334
EXTRACT: note_on channel=3 note=67 velocity=52 time=0
EXTRACT: note_on channel=9 note=54 velocity=101 time=0
EXTRACT: note_on channel=3 note=72 velocity=52 time=0.012885208333333334
EXTRACT: note_off channel=3 note=60 velocity=0 time=0.038655625
EXTRACT: note_off channel=9 note=54 velocity=0 time=0
EXTRACT: note_off channel=9 note=70 velocity=0 time=0
EXTRACT: note_off channel=9 note=42 velocity=0 time=0
EXTRACT: note_off channel=3 note=67 velocity=0 time=0.012885208333333334
EXTRACT: note_off channel=3 note=63 velocity=0 time=0
EXTRACT: note_off channel=3 note=72 velocity=0 time=0.012885208333333334
EXTRACT: note_off channel=10 note=62 velocity=0 time=0
EXTRACT: note_off channel=10 note=65 velocity=0 time=0.012885208333333334
EXTRACT: note_on channel=3 note=72 velocity=52 time=0.051540833333333334
EXTRACT: note_on channel=9 note=70 velocity=67 time=0
EXTRACT: note_on channel=10 note=60 velocity=106 time=0
EXTRACT: note_on channel=3 note=67 velocity=52 time=0.012885208333333334
EXTRACT: note_on channel=9 note=54 velocity=58 time=0
EXTRACT: note_on channel=10 note=63 velocity=64 time=0
EXTRACT: note_on channel=3 note=63 velocity=52 time=0.012885208333333334
EXTRACT: note_on channel=3 note=60 velocity=52 time=0
EXTRACT: note_off channel=2 note=36 velocity=0 time=0.012885208333333334
EXTRACT: note_off channel=3 note=60 velocity=0 time=0
EXTRACT: note_off channel=3 note=63 velocity=0 time=0
EXTRACT: note_off channel=3 note=67 velocity=0 time=0
EXTRACT: note_off channel=3 note=72 velocity=0 time=0
EXTRACT: control_change channel=3 control=64 value=0 time=0
EXTRACT: note_off channel=4 note=63 velocity=0 time=0
EXTRACT: note_off channel=4 note=60 velocity=0 time=0
EXTRACT: note_on channel=4 note=60 velocity=127 time=0.012885208333333334
EXTRACT: note_on channel=4 note=65 velocity=127 time=0
EXTRACT: control_change channel=3 control=64 value=127 time=0.012885208333333334
EXTRACT: control_change channel=3 control=64 value=0 time=0
EXTRACT: note_off channel=9 note=54 velocity=0 time=0
EXTRACT: note_off channel=9 note=70 velocity=0 time=0
EXTRACT: control_change channel=3 control=64 value=127 time=0.025770416666666667
EXTRACT: note_on channel=9 note=36 velocity=127 time=0.06442604166666667
EXTRACT: note_on channel=2 note=29 velocity=127 time=0.012885208333333334
EXTRACT: control_change channel=3 control=64 value=127 time=0
EXTRACT: note_on channel=9 note=44 velocity=69 time=0
EXTRACT: note_on channel=9 note=42 velocity=69 time=0
EXTRACT: note_on channel=9 note=70 velocity=40 time=0
EXTRACT: note_on channel=9 note=54 velocity=127 time=0
EXTRACT: note_on channel=3 note=60 velocity=81 time=0.012885208333333334
EXTRACT: note_on channel=3 note=65 velocity=81 time=0
EXTRACT: note_on channel=3 note=68 velocity=81 time=0.012885208333333334
EXTRACT: note_on channel=3 note=72 velocity=81 time=0
EXTRACT: note_off channel=3 note=60 velocity=0 time=0.025770416666666667
EXTRACT: note_off channel=9 note=54 velocity=0 time=0
EXTRACT: note_off channel=9 note=70 velocity=0 time=0
EXTRACT: note_off channel=3 note=65 velocity=0 time=0.012885208333333334
EXTRACT: note_off channel=3 note=72 velocity=0 time=0.012885208333333334
EXTRACT: note_off channel=3 note=68 velocity=0 time=0
EXTRACT: note_off channel=10 note=60 velocity=0 time=0.012885208333333334
EXTRACT: note_off channel=10 note=63 velocity=0 time=0.012885208333333334
EXTRACT: note_off channel=9 note=42 velocity=0 time=0.025770416666666667
EXTRACT: note_off channel=9 note=44 velocity=0 time=0
EXTRACT: note_off channel=9 note=36 velocity=0 time=0
EXTRACT: note_on channel=3 note=72 velocity=54 time=0.012885208333333334
EXTRACT: note_on channel=9 note=70 velocity=69 time=0
EXTRACT: note_on channel=10 note=60 velocity=91 time=0
EXTRACT: note_on channel=3 note=68 velocity=54 time=0.012885208333333334
EXTRACT: note_on channel=9 note=54 velocity=71 time=0
EXTRACT: note_on channel=10 note=63 velocity=98 time=0
EXTRACT: note_on channel=10 note=67 velocity=92 time=0
EXTRACT: note_on channel=3 note=65 velocity=54 time=0.012885208333333334
EXTRACT: note_on channel=3 note=60 velocity=50 time=0.012885208333333334
EXTRACT: note_off channel=3 note=72 velocity=0 time=0.025770416666666667
EXTRACT: note_off channel=9 note=54 velocity=0 time=0
EXTRACT: note_off channel=9 note=70 velocity=0 time=0
EXTRACT: note_off channel=3 note=68 velocity=0 time=0.012885208333333334
EXTRACT: note_off channel=3 note=65 velocity=0 time=0.012885208333333334
EXTRACT: note_off channel=3 note=60 velocity=0 time=0.012885208333333334
EXTRACT: note_on channel=3 note=60 velocity=52 time=0.051540833333333334
EXTRACT: note_on channel=9 note=42 velocity=36 time=0
EXTRACT: note_on channel=9 note=70 velocity=113 time=0
EXTRACT: note_on channel=3 note=65 velocity=52 time=0.012885208333333334
EXTRACT: note_on channel=3 note=68 velocity=52 time=0
EXTRACT: note_on channel=9 note=54 velocity=117 time=0
EXTRACT: note_on channel=3 note=72 velocity=52 time=0.012885208333333334
EXTRACT: note_off channel=3 note=60 velocity=0 time=0.038655625
EXTRACT: note_off channel=9 note=54 velocity=0 time=0
EXTRACT: note_off channel=9 note=70 velocity=0 time=0
EXTRACT: note_off channel=9 note=42 velocity=0 time=0
EXTRACT: note_off channel=3 note=68 velocity=0 time=0.012885208333333334
EXTRACT: note_off channel=3 note=65 velocity=0 time=0
EXTRACT: note_off channel=3 note=72 velocity=0 time=0.012885208333333334
EXTRACT: note_off channel=2 note=29 velocity=0 time=0.038655625
EXTRACT: note_on channel=9 note=36 velocity=99 time=0.025770416666666667
EXTRACT: note_on channel=9 note=70 velocity=60 time=0
EXTRACT: note_on channel=2 note=29 velocity=125 time=0.012885208333333334
EXTRACT: note_on channel=3 note=72 velocity=50 time=0
EXTRACT: note_on channel=3 note=68 velocity=50 time=0
EXTRACT: note_on channel=9 note=54 velocity=69 time=0
EXTRACT: note_on channel=3 note=65 velocity=50 time=0.012885208333333334
EXTRACT: note_on channel=3 note=60 velocity=50 time=0
EXTRACT: control_change channel=3 control=64 value=0 time=0.012885208333333334
EXTRACT: note_off channel=10 note=60 velocity=0 time=0
EXTRACT: note_off channel=3 note=72 velocity=0 time=0.025770416666666667
EXTRACT: note_off channel=9 note=54 velocity=0 time=0
EXTRACT: note_off channel=9 note=70 velocity=0 time=0
EXTRACT: note_off channel=9 note=36 velocity=0 time=0
EXTRACT: note_off channel=3 note=65 velocity=0 time=0.012885208333333334
EXTRACT: note_off channel=3 note=68 velocity=0 time=0
EXTRACT: note_off channel=3 note=60 velocity=0 time=0.012885208333333334
EXTRACT: control_change channel=3 control=64 value=127 time=0
EXTRACT: note_off channel=10 note=67 velocity=0 time=0.012885208333333334
EXTRACT: note_off channel=10 note=63 velocity=0 time=0
EXTRACT: note_on channel=9 note=40 velocity=100 time=0.051540833333333334
EXTRACT: note_on channel=9 note=90 velocity=127 time=0.012885208333333334
EXTRACT: note_on channel=9 note=44 velocity=71 time=0
EXTRACT: note_on channel=9 note=42 velocity=71 time=0
EXTRACT: note_on channel=9 note=70 velocity=40 time=0
EXTRACT: note_on channel=10 note=60 velocity=115 time=0
EXTRACT: note_on channel=3 note=60 velocity=75 time=0.012885208333333334
EXTRACT: note_on channel=9 note=54 velocity=127 time=0
EXTRACT: note_on channel=3 note=65 velocity=75 time=0.012885208333333334
EXTRACT: note_on channel=3 note=68 velocity=75 time=0
EXTRACT: note_on channel=3 note=72 velocity=75 time=0
EXTRACT: note_off channel=3 note=60 velocity=0 time=0.025770416666666667
EXTRACT: note_off channel=9 note=54 velocity=0 time=0
EXTRACT: note_off channel=9 note=70 velocity=0 time=0
EXTRACT: note_off channel=9 note=42 velocity=0 time=0
EXTRACT: note_off channel=9 note=44 velocity=0 time=0
EXTRACT: note_off channel=3 note=65 velocity=0 time=0.012885208333333334
EXTRACT: note_off channel=3 note=72 velocity=0 time=0.012885208333333334
EXTRACT: note_off channel=3 note=68 velocity=0 time=0
EXTRACT: note_off channel=10 note=60 velocity=0 time=0
EXTRACT: note_off channel=2 note=29 velocity=0 time=0.051540833333333334
EXTRACT: note_off channel=9 note=90 velocity=0 time=0
EXTRACT: note_off channel=9 note=40 velocity=0 time=0
EXTRACT: note_on channel=3 note=72 velocity=54 time=0.012885208333333334
EXTRACT: note_on channel=9 note=70 velocity=65 time=0
EXTRACT: note_on channel=9 note=54 velocity=64 time=0
EXTRACT: note_on channel=3 note=68 velocity=54 time=0.012885208333333334
EXTRACT: note_on channel=10 note=60 velocity=92 time=0
EXTRACT: note_on channel=3 note=65 velocity=54 time=0.012885208333333334
EXTRACT: note_on channel=3 note=60 velocity=54 time=0.012885208333333334
EXTRACT: note_off channel=3 note=72 velocity=0 time=0.025770416666666667
EXTRACT: note_off channel=9 note=54 velocity=0 time=0
EXTRACT: note_off channel=9 note=70 velocity=0 time=0
EXTRACT: note_off channel=3 note=68 velocity=0 time=0.012885208333333334
EXTRACT: note_off channel=10 note=60 velocity=0 time=0
EXTRACT: note_off channel=3 note=65 velocity=0 time=0.012885208333333334
EXTRACT: note_off channel=3 note=60 velocity=0 time=0.012885208333333334
EXTRACT: note_on channel=3 note=60 velocity=50 time=0.051540833333333334
EXTRACT: note_on channel=9 note=42 velocity=40 time=0
EXTRACT: note_on channel=9 note=70 velocity=110 time=0
EXTRACT: note_on channel=9 note=54 velocity=111 time=0.012885208333333334
EXTRACT: note_on channel=10 note=60 velocity=92 time=0
EXTRACT: note_on channel=3 note=65 velocity=50 time=0.012885208333333334
EXTRACT: note_on channel=3 note=68 velocity=50 time=0
EXTRACT: note_on channel=3 note=72 velocity=50 time=0
EXTRACT: note_off channel=3 note=60 velocity=0 time=0.038655625
EXTRACT: note_off channel=9 note=54 velocity=0 time=0
EXTRACT: note_off channel=9 note=70 velocity=0 time=0
EXTRACT: note_off channel=9 note=42 velocity=0 time=0
EXTRACT: note_off channel=3 note=68 velocity=0 time=0.012885208333333334
EXTRACT: note_off channel=3 note=65 velocity=0 time=0
EXTRACT: note_off channel=3 note=72 velocity=0 time=0.012885208333333334
EXTRACT: note_on channel=10 note=62 velocity=106 time=0.051540833333333334
EXTRACT: note_on channel=3 note=72 velocity=69 time=0.012885208333333334
EXTRACT: note_on channel=9 note=70 velocity=64 time=0
EXTRACT: note_on channel=9 note=54 velocity=58 time=0
EXTRACT: note_on channel=3 note=68 velocity=69 time=0.012885208333333334
EXTRACT: note_on channel=3 note=65 velocity=69 time=0
EXTRACT: note_on channel=3 note=60 velocity=69 time=0.012885208333333334
EXTRACT: note_off channel=10 note=60 velocity=0 time=0
EXTRACT: control_change channel=3 control=64 value=0 time=0.012885208333333334
EXTRACT: note_off channel=10 note=62 velocity=0 time=0.012885208333333334
EXTRACT: note_off channel=3 note=72 velocity=0 time=0.012885208333333334
EXTRACT: note_off channel=9 note=54 velocity=0 time=0
EXTRACT: note_off channel=9 note=70 velocity=0 time=0
EXTRACT: note_off channel=3 note=60 velocity=0 time=0.012885208333333334
EXTRACT: note_off channel=3 note=65 velocity=0 time=0
EXTRACT: note_off channel=3 note=68 velocity=0 time=0
EXTRACT: note_off channel=4 note=65 velocity=0 time=0
EXTRACT: note_off channel=4 note=60 velocity=0 time=0
EXTRACT: note_on channel=4 note=62 velocity=127 time=0.012885208333333334
EXTRACT: note_on channel=4 note=67 velocity=127 time=0
EXTRACT: control_change channel=3 control=64 value=127 time=0.012885208333333334
EXTRACT: note_on channel=10 note=62 velocity=111 time=0.038655625
EXTRACT: note_on channel=10 note=65 velocity=109 time=0
EXTRACT: note_on channel=9 note=42 velocity=69 time=0.012885208333333334
EXTRACT: note_on channel=2 note=31 velocity=110 time=0.012885208333333334
EXTRACT: note_on channel=9 note=44 velocity=69 time=0
EXTRACT: note_on channel=9 note=70 velocity=40 time=0
EXTRACT: note_on channel=9 note=54 velocity=127 time=0
EXTRACT: note_on channel=9 note=36 velocity=110 time=0
EXTRACT: note_on channel=3 note=62 velocity=56 time=0.012885208333333334
EXTRACT: note_on channel=3 note=67 velocity=56 time=0
EXTRACT: note_on channel=3 note=71 velocity=56 time=0
EXTRACT: note_on channel=3 note=74 velocity=52 time=0.012885208333333334
EXTRACT: note_off channel=3 note=67 velocity=0 time=0.025770416666666667
EXTRACT: note_off channel=3 note=62 velocity=0 time=0
EXTRACT: note_off channel=9 note=36 velocity=0 time=0
EXTRACT: note_off channel=9 note=54 velocity=0 time=0
EXTRACT: note_off channel=9 note=70 velocity=0 time=0
EXTRACT: note_off channel=9 note=44 velocity=0 time=0
EXTRACT: note_off channel=9 note=42 velocity=0 time=0
EXTRACT: note_off channel=3 note=71 velocity=0 time=0.012885208333333334
EXTRACT: note_off channel=3 note=74 velocity=0 time=0.025770416666666667
EXTRACT: note_on channel=3 note=62 velocity=52 time=0.051540833333333334
EXTRACT: note_on channel=9 note=70 velocity=56 time=0
EXTRACT: note_on channel=9 note=54 velocity=56 time=0
EXTRACT: note_on channel=3 note=67 velocity=52 time=0.012885208333333334
EXTRACT: note_on channel=3 note=71 velocity=52 time=0
EXTRACT: note_on channel=3 note=74 velocity=52 time=0.012885208333333334
EXTRACT: note_off channel=3 note=62 velocity=0 time=0.038655625
EXTRACT: note_off channel=9 note=54 velocity=0 time=0
EXTRACT: note_off channel=9 note=70 velocity=0 time=0
EXTRACT: note_off channel=3 note=71 velocity=0 time=0.012885208333333334
EXTRACT: note_off channel=3 note=67 velocity=0 time=0
EXTRACT: note_off channel=3 note=74 velocity=0 time=0.012885208333333334
EXTRACT: note_on channel=10 note=63 velocity=70 time=0.051540833333333334
EXTRACT: note_on channel=3 note=74 velocity=52 time=0.012885208333333334
EXTRACT: note_on channel=9 note=42 velocity=38 time=0
EXTRACT: note_on channel=9 note=70 velocity=110 time=0
EXTRACT: note_on channel=3 note=71 velocity=52 time=0.012885208333333334
EXTRACT: note_on channel=9 note=54 velocity=99 time=0
EXTRACT: note_on channel=3 note=67 velocity=52 time=0.012885208333333334
EXTRACT: note_off channel=10 note=65 velocity=0 time=0
EXTRACT: note_off channel=10 note=62 velocity=0 time=0
EXTRACT: note_on channel=3 note=62 velocity=52 time=0.012885208333333334
EXTRACT: note_off channel=10 note=63 velocity=0 time=0.012885208333333334
EXTRACT: note_off channel=2 note=31 velocity=0 time=0.012885208333333334
EXTRACT: note_off channel=3 note=74 velocity=0 time=0
EXTRACT: note_off channel=9 note=54 velocity=0 time=0
EXTRACT: note_off channel=9 note=70 velocity=0 time=0
EXTRACT: note_off channel=9 note=42 velocity=0 time=0
EXTRACT: note_off channel=3 note=71 velocity=0 time=0.012885208333333334
EXTRACT: note_off channel=3 note=67 velocity=0 time=0.012885208333333334
EXTRACT: note_off channel=3 note=62 velocity=0 time=0.012885208333333334
EXTRACT: note_on channel=10 note=65 velocity=106 time=0.038655625
EXTRACT: note_on channel=10 note=62 velocity=94 time=0
EXTRACT: note_on channel=2 note=31 velocity=125 time=0.012885208333333334
EXTRACT: note_on channel=9 note=70 velocity=64 time=0
EXTRACT: note_on channel=3 note=74 velocity=54 time=0.012885208333333334
EXTRACT: note_on channel=3 note=71 velocity=54 time=0
EXTRACT: note_on channel=9 note=36 velocity=123 time=0
EXTRACT: note_on channel=9 note=54 velocity=52 time=0
EXTRACT: note_on channel=3 note=67 velocity=54 time=0.012885208333333334
EXTRACT: note_on channel=3 note=62 velocity=54 time=0
EXTRACT: control_change channel=3 control=64 value=0 time=0.025770416666666667
EXTRACT: note_off channel=3 note=74 velocity=0 time=0.012885208333333334
EXTRACT: note_off channel=9 note=54 velocity=0 time=0
EXTRACT: note_off channel=9 note=36 velocity=0 time=0
EXTRACT: note_off channel=9 note=70 velocity=0 time=0
EXTRACT: note_off channel=3 note=71 velocity=0 time=0.012885208333333334
EXTRACT: note_off channel=3 note=62 velocity=0 time=0.012885208333333334
EXTRACT: note_off channel=3 note=67 velocity=0 time=0
EXTRACT: control_change channel=3 control=64 value=127 time=0.012885208333333334
EXTRACT: note_on channel=9 note=40 velocity=100 time=0.051540833333333334
EXTRACT: note_on channel=9 note=90 velocity=127 time=0.012885208333333334
EXTRACT: note_on channel=9 note=44 velocity=71 time=0
EXTRACT: note_on channel=9 note=42 velocity=71 time=0
EXTRACT: note_on channel=9 note=70 velocity=40 time=0
EXTRACT: note_on channel=9 note=54 velocity=127 time=0
EXTRACT: note_on channel=3 note=62 velocity=73 time=0.012885208333333334
EXTRACT: note_on channel=3 note=67 velocity=73 time=0
EXTRACT: note_on channel=3 note=71 velocity=73 time=0.012885208333333334
EXTRACT: note_on channel=3 note=74 velocity=73 time=0
EXTRACT: note_off channel=3 note=62 velocity=0 time=0.025770416666666667
EXTRACT: note_off channel=9 note=54 velocity=0 time=0
EXTRACT: note_off channel=9 note=70 velocity=0 time=0
EXTRACT: note_off channel=9 note=42 velocity=0 time=0
EXTRACT: note_off channel=9 note=44 velocity=0 time=0
EXTRACT: note_off channel=10 note=62 velocity=0 time=0
EXTRACT: note_off channel=3 note=67 velocity=0 time=0.012885208333333334
EXTRACT: note_off channel=10 note=65 velocity=0 time=0
EXTRACT: note_off channel=3 note=74 velocity=0 time=0.012885208333333334
EXTRACT: note_off channel=3 note=71 velocity=0 time=0
EXTRACT: note_on channel=10 note=62 velocity=87 time=0.038655625
EXTRACT: note_off channel=9 note=90 velocity=0 time=0.012885208333333334
EXTRACT: note_off channel=9 note=40 velocity=0 time=0
EXTRACT: note_on channel=10 note=70 velocity=101 time=0
EXTRACT: note_on channel=3 note=74 velocity=50 time=0.012885208333333334
EXTRACT: note_on channel=9 note=70 velocity=65 time=0
EXTRACT: note_on channel=9 note=54 velocity=64 time=0
EXTRACT: note_on channel=3 note=71 velocity=50 time=0.012885208333333334
EXTRACT: note_on channel=3 note=67 velocity=50 time=0.012885208333333334
EXTRACT: note_on channel=3 note=62 velocity=52 time=0.012885208333333334
EXTRACT: note_off channel=3 note=74 velocity=0 time=0.025770416666666667
EXTRACT: note_off channel=9 note=54 velocity=0 time=0
EXTRACT: note_off channel=9 note=70 velocity=0 time=0
EXTRACT: note_off channel=3 note=71 velocity=0 time=0.012885208333333334
EXTRACT: note_off channel=3 note=67 velocity=0 time=0.012885208333333334
EXTRACT: note_off channel=2 note=31 velocity=0 time=0.012885208333333334
EXTRACT: note_off channel=3 note=62 velocity=0 time=0
EXTRACT: note_on channel=2 note=31 velocity=125 time=0.051540833333333334
EXTRACT: note_on channel=9 note=42 velocity=42 time=0
EXTRACT: note_on channel=3 note=62 velocity=52 time=0.012885208333333334
EXTRACT: note_on channel=9 note=70 velocity=107 time=0
EXTRACT: note_on channel=9 note=36 velocity=119 time=0
EXTRACT: note_on channel=9 note=54 velocity=101 time=0
EXTRACT: note_on channel=3 note=67 velocity=52 time=0.012885208333333334
EXTRACT: note_on channel=3 note=71 velocity=52 time=0
EXTRACT: note_on channel=3 note=74 velocity=52 time=0
EXTRACT: note_off channel=10 note=62 velocity=0 time=0.025770416666666667
EXTRACT: note_off channel=3 note=62 velocity=0 time=0.012885208333333334
EXTRACT: note_off channel=9 note=54 velocity=0 time=0
EXTRACT: note_off channel=9 note=36 velocity=0 time=0
EXTRACT: note_off channel=9 note=70 velocity=0 time=0
EXTRACT: note_off channel=9 note=42 velocity=0 time=0
EXTRACT: note_off channel=3 note=71 velocity=0 time=0.012885208333333334
EXTRACT: note_off channel=3 note=67 velocity=0 time=0
EXTRACT: note_off channel=3 note=74 velocity=0 time=0.012885208333333334
EXTRACT: note_off channel=10 note=70 velocity=0 time=0
EXTRACT: note_on channel=10 note=63 velocity=122 time=0.051540833333333334
EXTRACT: note_on channel=10 note=67 velocity=115 time=0
EXTRACT: note_on channel=3 note=74 velocity=52 time=0.012885208333333334
EXTRACT: note_on channel=9 note=70 velocity=67 time=0
EXTRACT: note_on channel=9 note=54 velocity=58 time=0
EXTRACT: note_on channel=3 note=71 velocity=52 time=0.012885208333333334
EXTRACT: note_on channel=3 note=67 velocity=52 time=0
EXTRACT: note_on channel=3 note=62 velocity=52 time=0.012885208333333334
EXTRACT: control_change channel=3 control=64 value=0 time=0.025770416666666667
EXTRACT: note_off channel=2 note=31 velocity=0 time=0.012885208333333334
EXTRACT: note_off channel=3 note=62 velocity=0 time=0
EXTRACT: note_off channel=3 note=67 velocity=0 time=0
EXTRACT: note_off channel=3 note=71 velocity=0 time=0
EXTRACT: note_off channel=3 note=74 velocity=0 time=0
EXTRACT: note_off channel=4 note=67 velocity=0 time=0
EXTRACT: note_off channel=4 note=62 velocity=0 time=0
EXTRACT: note_on channel=4 note=60 velocity=127 time=0.012885208333333334
EXTRACT: note_on channel=4 note=63 velocity=127 time=0
EXTRACT: control_change channel=3 control=64 value=127 time=0.012885208333333334
EXTRACT: note_off channel=9 note=54 velocity=0 time=0
EXTRACT: note_off channel=9 note=70 velocity=0 time=0
EXTRACT: note_on channel=9 note=42 velocity=69 time=0.06442604166666667
EXTRACT: note_on channel=2 note=36 velocity=121 time=0.012885208333333334
EXTRACT: control_change channel=3 control=64 value=127 time=0
EXTRACT: note_on channel=9 note=44 velocity=69 time=0
EXTRACT: note_on channel=9 note=70 velocity=40 time=0
EXTRACT: note_on channel=9 note=54 velocity=127 time=0
EXTRACT: note_on channel=9 note=36 velocity=125 time=0
EXTRACT: note_on channel=3 note=60 velocity=81 time=0.012885208333333334
EXTRACT: note_on channel=3 note=63 velocity=81 time=0
EXTRACT: note_on channel=3 note=67 velocity=81 time=0.012885208333333334
EXTRACT: note_on channel=3 note=72 velocity=81 time=0
EXTRACT: note_off channel=3 note=60 velocity=0 time=0.025770416666666667
EXTRACT: note_off channel=9 note=36 velocity=0 time=0
EXTRACT: note_off channel=9 note=54 velocity=0 time=0
EXTRACT: note_off channel=9 note=70 velocity=0 time=0
EXTRACT: note_off channel=3 note=63 velocity=0 time=0.012885208333333334
EXTRACT: note_off channel=3 note=72 velocity=0 time=0.012885208333333334
EXTRACT: note_off channel=3 note=67 velocity=0 time=0
EXTRACT: note_off channel=9 note=44 velocity=0 time=0.051540833333333334
EXTRACT: note_off channel=9 note=42 velocity=0 time=0
EXTRACT: note_on channel=3 note=72 velocity=54 time=0.012885208333333334
EXTRACT: note_on channel=9 note=70 velocity=65 time=0
EXTRACT: note_on channel=9 note=54 velocity=71 time=0
EXTRACT: note_on channel=3 note=67 velocity=54 time=0.012885208333333334
EXTRACT: note_on channel=3 note=63 velocity=54 time=0.012885208333333334
EXTRACT: note_on channel=3 note=60 velocity=50 time=0.012885208333333334
EXTRACT: note_off channel=3 note=72 velocity=0 time=0.025770416666666667
EXTRACT: note_off channel=9 note=54 velocity=0 time=0
EXTRACT: note_off channel=9 note=70 velocity=0 time=0
EXTRACT: note_off channel=3 note=67 velocity=0 time=0.012885208333333334
EXTRACT: note_off channel=3 note=63 velocity=0 time=0.012885208333333334
EXTRACT: note_off channel=3 note=60 velocity=0 time=0.012885208333333334
EXTRACT: note_on channel=3 note=60 velocity=52 time=0.051540833333333334
EXTRACT: note_on channel=9 note=42 velocity=36 time=0
EXTRACT: note_on channel=9 note=70 velocity=113 time=0
EXTRACT: note_on channel=3 note=63 velocity=52 time=0.012885208333333334
EXTRACT: note_on channel=3 note=67 velocity=52 time=0
EXTRACT: note_on channel=9 note=54 velocity=117 time=0
EXTRACT: note_on channel=3 note=72 velocity=52 time=0.012885208333333334
EXTRACT: note_off channel=3 note=60 velocity=0 time=0.038655625
EXTRACT: note_off channel=9 note=54 velocity=0 time=0
EXTRACT: note_off channel=9 note=70 velocity=0 time=0
EXTRACT: note_off channel=9 note=42 velocity=0 time=0
EXTRACT: note_off channel=3 note=67 velocity=0 time=0.012885208333333334
EXTRACT: note_off channel=3 note=63 velocity=0 time=0
EXTRACT: note_off channel=3 note=72 velocity=0 time=0.012885208333333334
EXTRACT: note_off channel=2 note=36 velocity=0 time=0.038655625
EXTRACT: note_on channel=9 note=36 velocity=110 time=0.025770416666666667
EXTRACT: note_on channel=9 note=70 velocity=60 time=0
EXTRACT: note_on channel=2 note=36 velocity=125 time=0.012885208333333334
EXTRACT: note_on channel=3 note=72 velocity=50 time=0
EXTRACT: note_on channel=3 note=67 velocity=50 time=0
EXTRACT: note_on channel=9 note=54 velocity=69 time=0
EXTRACT: note_on channel=3 note=63 velocity=50 time=0.012885208333333334
EXTRACT: note_on channel=3 note=60 velocity=50 time=0
EXTRACT: control_change channel=3 control=64 value=0 time=0.012885208333333334
EXTRACT: note_off channel=3 note=72 velocity=0 time=0.025770416666666667
EXTRACT: note_off channel=9 note=54 velocity=0 time=0
EXTRACT: note_off channel=9 note=70 velocity=0 time=0
EXTRACT: note_off channel=9 note=36 velocity=0 time=0
EXTRACT: note_off channel=3 note=63 velocity=0 time=0.012885208333333334
EXTRACT: note_off channel=3 note=67 velocity=0 time=0
EXTRACT: note_off channel=10 note=63 velocity=0 time=0
EXTRACT: note_off channel=3 note=60 velocity=0 time=0.012885208333333334
EXTRACT: control_change channel=3 control=64 value=127 time=0
EXTRACT: note_off channel=10 note=67 velocity=0 time=0.012885208333333334
EXTRACT: note_on channel=9 note=40 velocity=100 time=0.051540833333333334
EXTRACT: note_on channel=9 note=90 velocity=127 time=0.012885208333333334
EXTRACT: note_on channel=9 note=44 velocity=71 time=0
EXTRACT: note_on channel=9 note=42 velocity=71 time=0
EXTRACT: note_on channel=9 note=70 velocity=40 time=0
EXTRACT: note_on channel=9 note=54 velocity=127 time=0
EXTRACT: note_on channel=3 note=60 velocity=75 time=0.012885208333333334
EXTRACT: note_on channel=10 note=63 velocity=110 time=0
EXTRACT: note_on channel=10 note=67 velocity=106 time=0
EXTRACT: note_on channel=3 note=63 velocity=75 time=0.012885208333333334
EXTRACT: note_on channel=3 note=67 velocity=75 time=0
EXTRACT: note_on channel=3 note=72 velocity=75 time=0
EXTRACT: note_off channel=3 note=60 velocity=0 time=0.025770416666666667
EXTRACT: note_off channel=9 note=54 velocity=0 time=0
EXTRACT: note_off channel=9 note=70 velocity=0 time=0
EXTRACT: note_off channel=9 note=42 velocity=0 time=0
EXTRACT: note_off channel=9 note=44 velocity=0 time=0
EXTRACT: note_off channel=3 note=63 velocity=0 time=0.012885208333333334
EXTRACT: note_off channel=3 note=72 velocity=0 time=0.012885208333333334
EXTRACT: note_off channel=3 note=67 velocity=0 time=0
EXTRACT: note_off channel=2 note=36 velocity=0 time=0.051540833333333334
EXTRACT: note_off channel=9 note=90 velocity=0 time=0
EXTRACT: note_off channel=9 note=40 velocity=0 time=0
EXTRACT: note_on channel=3 note=72 velocity=54 time=0.012885208333333334
EXTRACT: note_on channel=9 note=70 velocity=65 time=0
EXTRACT: note_on channel=9 note=54 velocity=64 time=0
EXTRACT: note_on channel=3 note=67 velocity=54 time=0.012885208333333334
EXTRACT: note_on channel=3 note=63 velocity=54 time=0.012885208333333334
EXTRACT: note_on channel=3 note=60 velocity=54 time=0.012885208333333334
EXTRACT: note_off channel=3 note=72 velocity=0 time=0.025770416666666667
EXTRACT: note_off channel=9 note=54 velocity=0 time=0
EXTRACT: note_off channel=9 note=70 velocity=0 time=0
EXTRACT: note_off channel=10 note=63 velocity=0 time=0
EXTRACT: note_off channel=3 note=67 velocity=0 time=0.012885208333333334
EXTRACT: note_off channel=3 note=63 velocity=0 time=0.012885208333333334
EXTRACT: note_off channel=10 note=67 velocity=0 time=0
EXTRACT: note_off channel=3 note=60 velocity=0 time=0.012885208333333334
EXTRACT: note_on channel=3 note=60 velocity=50 time=0.051540833333333334
EXTRACT: note_on channel=9 note=42 velocity=40 time=0
EXTRACT: note_on channel=9 note=70 velocity=110 time=0
EXTRACT: note_on channel=3 note=63 velocity=50 time=0.012885208333333334
EXTRACT: note_on channel=9 note=54 velocity=111 time=0
EXTRACT: note_on channel=3 note=67 velocity=50 time=0.012885208333333334
EXTRACT: note_on channel=10 note=63 velocity=98 time=0
EXTRACT: note_on channel=10 note=67 velocity=111 time=0
EXTRACT: note_on channel=3 note=72 velocity=50 time=0.012885208333333334
EXTRACT: note_off channel=3 note=60 velocity=0 time=0.025770416666666667
EXTRACT: note_off channel=9 note=54 velocity=0 time=0
EXTRACT: note_off channel=9 note=70 velocity=0 time=0
EXTRACT: note_off channel=9 note=42 velocity=0 time=0
EXTRACT: note_off channel=3 note=67 velocity=0 time=0.012885208333333334
EXTRACT: note_off channel=3 note=63 velocity=0 time=0
EXTRACT: note_off channel=3 note=72 velocity=0 time=0.012885208333333334
EXTRACT: note_on channel=3 note=72 velocity=69 time=0.06442604166666667
EXTRACT: note_on channel=9 note=70 velocity=64 time=0
EXTRACT: note_on channel=9 note=54 velocity=58 time=0
EXTRACT: note_on channel=3 note=67 velocity=69 time=0.012885208333333334
EXTRACT: note_on channel=3 note=63 velocity=69 time=0
EXTRACT: note_on channel=3 note=60 velocity=69 time=0.012885208333333334
EXTRACT: control_change channel=3 control=64 value=0 time=0.012885208333333334
EXTRACT: note_off channel=3 note=72 velocity=0 time=0.025770416666666667
EXTRACT: note_off channel=9 note=54 velocity=0 time=0
EXTRACT: note_off channel=9 note=70 velocity=0 time=0
EXTRACT: note_off channel=3 note=63 velocity=0 time=0.012885208333333334
EXTRACT: note_off channel=3 note=67 velocity=0 time=0
EXTRACT: note_off channel=3 note=60 velocity=0 time=0.012885208333333334
EXTRACT: note_off channel=10 note=67 velocity=0 time=0
EXTRACT: note_on channel=10 note=65 velocity=106 time=0.051540833333333334
EXTRACT: note_on channel=10 note=68 velocity=98 time=0
EXTRACT: note_on channel=9 note=40 velocity=100 time=0.012885208333333334
EXTRACT: note_on channel=9 note=90 velocity=125 time=0
EXTRACT: note_on channel=2 note=36 velocity=110 time=0.012885208333333334
EXTRACT: note_on channel=4 note=60 velocity=116 time=0
EXTRACT: note_on channel=9 note=70 velocity=110 time=0
EXTRACT: note_on channel=9 note=44 velocity=40 time=0
EXTRACT: note_off channel=10 note=63 velocity=0 time=0.012885208333333334
EXTRACT: note_off channel=4 note=60 velocity=0 time=0.038655625
EXTRACT: note_off channel=9 note=44 velocity=0 time=0
EXTRACT: note_off channel=9 note=70 velocity=0 time=0
EXTRACT: note_off channel=9 note=90 velocity=0 time=0
EXTRACT: note_off channel=9 note=40 velocity=0 time=0
EXTRACT: note_on channel=3 note=60 velocity=93 time=0.09019645833333334
EXTRACT: note_on channel=9 note=70 velocity=10 time=0
EXTRACT: note_on channel=3 note=63 velocity=93 time=0.012885208333333334
EXTRACT: note_on channel=3 note=67 velocity=93 time=0
EXTRACT: note_on channel=3 note=72 velocity=93 time=0.012885208333333334
EXTRACT: note_off channel=10 note=68 velocity=0 time=0.025770416666666667
EXTRACT: note_off channel=10 note=65 velocity=0 time=0
EXTRACT: note_off channel=3 note=60 velocity=0 time=0.012885208333333334
EXTRACT: note_off channel=9 note=70 velocity=0 time=0
EXTRACT: note_off channel=3 note=67 velocity=0 time=0.012885208333333334
EXTRACT: note_off channel=3 note=63 velocity=0 time=0
EXTRACT: note_off channel=3 note=72 velocity=0 time=0.012885208333333334
EXTRACT: note_on channel=9 note=40 velocity=100 time=0.06442604166666667
EXTRACT: note_on channel=9 note=90 velocity=123 time=0
EXTRACT: note_on channel=9 note=70 velocity=24 time=0
EXTRACT: note_on channel=3 note=72 velocity=44 time=0.012885208333333334
EXTRACT: note_on channel=3 note=67 velocity=44 time=0
EXTRACT: note_on channel=10 note=68 velocity=92 time=0
EXTRACT: note_on channel=10 note=65 velocity=89 time=0
EXTRACT: note_on channel=3 note=63 velocity=44 time=0.012885208333333334
EXTRACT: note_on channel=3 note=60 velocity=44 time=0.012885208333333334
EXTRACT: note_off channel=2 note=36 velocity=0 time=0.025770416666666667
EXTRACT: note_off channel=3 note=72 velocity=0 time=0
EXTRACT: note_off channel=9 note=70 velocity=0 time=0
EXTRACT: note_off channel=9 note=90 velocity=0 time=0
EXTRACT: note_off channel=9 note=40 velocity=0 time=0
EXTRACT: note_off channel=3 note=67 velocity=0 time=0.012885208333333334
EXTRACT: note_off channel=3 note=63 velocity=0 time=0.012885208333333334
EXTRACT: note_off channel=3 note=60 velocity=0 time=0.012885208333333334
EXTRACT: note_on channel=10 note=67 velocity=74 time=0.038655625
EXTRACT: note_on channel=2 note=36 velocity=125 time=0.012885208333333334
EXTRACT: note_on channel=9 note=36 velocity=110 time=0
EXTRACT: note_on channel=9 note=70 velocity=64 time=0
EXTRACT: note_off channel=10 note=68 velocity=0 time=0
EXTRACT: note_on channel=4 note=60 velocity=113 time=0.012885208333333334
EXTRACT: note_on channel=10 note=63 velocity=110 time=0
EXTRACT: note_off channel=10 note=65 velocity=0 time=0.012885208333333334
EXTRACT: note_off channel=4 note=60 velocity=0 time=0.025770416666666667
EXTRACT: note_off channel=9 note=70 velocity=0 time=0.012885208333333334
EXTRACT: note_off channel=9 note=36 velocity=0 time=0
EXTRACT: note_on channel=9 note=40 velocity=40 time=0.012885208333333334
EXTRACT: note_off channel=9 note=40 velocity=0 time=0.012885208333333334
EXTRACT: note_on channel=9 note=40 velocity=60 time=0.025770416666666667
EXTRACT: note_off channel=9 note=40 velocity=0 time=0.012885208333333334
EXTRACT: note_on channel=9 note=40 velocity=100 time=0.025770416666666667
EXTRACT: note_on channel=3 note=60 velocity=83 time=0.012885208333333334
EXTRACT: note_on channel=3 note=63 velocity=83 time=0
EXTRACT: note_on channel=9 note=90 velocity=127 time=0
EXTRACT: note_on channel=9 note=44 velocity=71 time=0
EXTRACT: note_on channel=9 note=70 velocity=110 time=0
EXTRACT: note_on channel=3 note=67 velocity=83 time=0.012885208333333334
EXTRACT: note_on channel=3 note=72 velocity=83 time=0.012885208333333334
EXTRACT: note_off channel=3 note=63 velocity=0 time=0.025770416666666667
EXTRACT: note_off channel=3 note=60 velocity=0 time=0
EXTRACT: note_off channel=9 note=70 velocity=0 time=0
EXTRACT: note_off channel=9 note=44 velocity=0 time=0
EXTRACT: note_off channel=10 note=63 velocity=0 time=0
EXTRACT: note_off channel=10 note=67 velocity=0 time=0
EXTRACT: note_off channel=3 note=67 velocity=0 time=0.012885208333333334
EXTRACT: note_off channel=3 note=72 velocity=0 time=0.025770416666666667
EXTRACT: note_off channel=9 note=90 velocity=0 time=0.038655625
EXTRACT: note_off channel=9 note=40 velocity=0 time=0
EXTRACT: note_on channel=10 note=62 velocity=115 time=0
EXTRACT: note_on channel=3 note=72 velocity=44 time=0.012885208333333334
EXTRACT: note_on channel=9 note=47 velocity=110 time=0
EXTRACT: note_on channel=9 note=70 velocity=10 time=0
EXTRACT: note_on channel=3 note=67 velocity=44 time=0.012885208333333334
EXTRACT: note_on channel=10 note=65 velocity=106 time=0
EXTRACT: note_on channel=3 note=63 velocity=44 time=0.012885208333333334
EXTRACT: note_on channel=3 note=60 velocity=44 time=0
EXTRACT: note_off channel=3 note=72 velocity=0 time=0.038655625
EXTRACT: note_off channel=9 note=70 velocity=0 time=0
EXTRACT: note_off channel=9 note=47 velocity=0 time=0
EXTRACT: note_off channel=3 note=67 velocity=0 time=0.012885208333333334
EXTRACT: note_off channel=3 note=60 velocity=0 time=0.012885208333333334
EXTRACT: note_off channel=3 note=63 velocity=0 time=0
EXTRACT: note_off channel=2 note=36 velocity=0 time=0.012885208333333334
EXTRACT: note_on channel=2 note=36 velocity=125 time=0.051540833333333334
EXTRACT: note_on channel=9 note=45 velocity=110 time=0
EXTRACT: note_on channel=9 note=70 velocity=22 time=0
EXTRACT: note_on channel=4 note=60 velocity=96 time=0.012885208333333334
EXTRACT: note_off channel=4 note=60 velocity=0 time=0.025770416666666667
EXTRACT: note_off channel=10 note=65 velocity=0 time=0.012885208333333334
EXTRACT: note_off channel=10 note=62 velocity=0 time=0
EXTRACT: note_off channel=9 note=70 velocity=0 time=0.012885208333333334
EXTRACT: note_off channel=9 note=45 velocity=0 time=0
EXTRACT: note_on channel=10 note=60 velocity=104 time=0.06442604166666667
EXTRACT: note_on channel=10 note=63 velocity=92 time=0.012885208333333334
EXTRACT: note_on channel=9 note=36 velocity=91 time=0.012885208333333334
EXTRACT: note_on channel=9 note=55 velocity=85 time=0
EXTRACT: note_on channel=9 note=70 velocity=67 time=0
EXTRACT: note_on channel=4 note=60 velocity=81 time=0.012885208333333334
EXTRACT: note_off channel=2 note=36 velocity=0 time=0.038655625
EXTRACT: note_off channel=4 note=60 velocity=0 time=0
EXTRACT: note_off channel=4 note=60 velocity=0 time=0
EXTRACT: note_off channel=4 note=63 velocity=0 time=0
EXTRACT: control_change channel=4 control=0 value=0 time=0
EXTRACT: control_change channel=4 control=0 value=0 time=0
EXTRACT: control_change channel=4 control=32 value=0 time=0
EXTRACT: control_change channel=4 control=0 value=0 time=0
EXTRACT: control_change channel=4 control=32 value=0 time=0
EXTRACT: program_change channel=4 program=89 time=0
EXTRACT: note_off channel=9 note=70 velocity=0 time=0.012885208333333334
EXTRACT: note_off channel=9 note=55 velocity=0 time=0
EXTRACT: note_off channel=9 note=36 velocity=0 time=0
EXTRACT: control_change channel=4 control=0 value=0 time=0.07731125
EXTRACT: control_change channel=4 control=0 value=0 time=0
EXTRACT: control_change channel=4 control=32 value=0 time=0
EXTRACT: control_change channel=4 control=0 value=0 time=0
EXTRACT: control_change channel=4 control=32 value=0 time=0
EXTRACT: program_change channel=4 program=50 time=0
EXTRACT: note_on channel=4 note=63 velocity=127 time=0.025770416666666667
EXTRACT: program_change channel=9 program=0 time=0
EXTRACT: note_on channel=9 note=49 velocity=90 time=0
EXTRACT: program_change channel=9 program=32 time=0
EXTRACT: note_off channel=9 note=49 velocity=0 time=0.0016106510416666667
EXTRACT: note_on channel=4 note=68 velocity=127 time=0.011274557291666668
EXTRACT: note_on channel=9 note=36 velocity=127 time=0
EXTRACT: note_on channel=9 note=44 velocity=69 time=0
EXTRACT: note_on channel=2 note=32 velocity=127 time=0.012885208333333334
EXTRACT: control_change channel=3 control=64 value=127 time=0
EXTRACT: note_on channel=3 note=63 velocity=81 time=0
EXTRACT: note_on channel=9 note=42 velocity=69 time=0
EXTRACT: note_on channel=9 note=70 velocity=40 time=0
EXTRACT: note_on channel=9 note=54 velocity=127 time=0
EXTRACT: note_on channel=3 note=68 velocity=81 time=0.012885208333333334
EXTRACT: note_off channel=3 note=63 velocity=0 time=0.012885208333333334
EXTRACT: note_on channel=3 note=72 velocity=81 time=0
EXTRACT: note_on channel=3 note=75 velocity=81 time=0
EXTRACT: note_off channel=9 note=54 velocity=0 time=0
EXTRACT: note_off channel=9 note=70 velocity=0 time=0
EXTRACT: note_off channel=3 note=68 velocity=0 time=0.012885208333333334
EXTRACT: note_off channel=10 note=60 velocity=0 time=0
EXTRACT: note_off channel=3 note=75 velocity=0 time=0.012885208333333334
EXTRACT: note_off channel=3 note=72 velocity=0 time=0
EXTRACT: note_off channel=10 note=63 velocity=0 time=0
EXTRACT: note_off channel=9 note=42 velocity=0 time=0.051540833333333334
EXTRACT: note_off channel=9 note=44 velocity=0 time=0
EXTRACT: note_off channel=9 note=36 velocity=0 time=0
EXTRACT: note_on channel=3 note=75 velocity=54 time=0.012885208333333334
EXTRACT: note_on channel=9 note=70 velocity=64 time=0
EXTRACT: note_on channel=9 note=54 velocity=71 time=0
EXTRACT: note_on channel=10 note=60 velocity=97 time=0
EXTRACT: note_on channel=3 note=72 velocity=54 time=0.012885208333333334
EXTRACT: note_on channel=10 note=63 velocity=67 time=0
EXTRACT: note_on channel=10 note=67 velocity=97 time=0
EXTRACT: note_on channel=3 note=68 velocity=54 time=0.012885208333333334
EXTRACT: note_on channel=3 note=63 velocity=50 time=0.012885208333333334
EXTRACT: note_off channel=3 note=75 velocity=0 time=0.025770416666666667
EXTRACT: note_off channel=9 note=54 velocity=0 time=0
EXTRACT: note_off channel=9 note=70 velocity=0 time=0
EXTRACT: note_off channel=3 note=72 velocity=0 time=0.012885208333333334
EXTRACT: note_off channel=3 note=68 velocity=0 time=0.012885208333333334
EXTRACT: note_off channel=3 note=63 velocity=0 time=0.012885208333333334
EXTRACT: note_on channel=3 note=63 velocity=52 time=0.051540833333333334
EXTRACT: note_on channel=9 note=42 velocity=36 time=0
EXTRACT: note_on channel=9 note=70 velocity=113 time=0
EXTRACT: note_on channel=3 note=68 velocity=52 time=0.012885208333333334
EXTRACT: note_on channel=3 note=72 velocity=52 time=0
EXTRACT: note_on channel=9 note=54 velocity=117 time=0
EXTRACT: note_on channel=3 note=75 velocity=52 time=0.012885208333333334
EXTRACT: note_off channel=3 note=63 velocity=0 time=0.038655625
EXTRACT: note_off channel=9 note=54 velocity=0 time=0
EXTRACT: note_off channel=9 note=70 velocity=0 time=0
EXTRACT: note_off channel=9 note=42 velocity=0 time=0
EXTRACT: note_off channel=3 note=72 velocity=0 time=0.012885208333333334
EXTRACT: note_off channel=3 note=68 velocity=0 time=0
EXTRACT: note_off channel=3 note=75 velocity=0 time=0.012885208333333334
EXTRACT: note_off channel=2 note=32 velocity=0 time=0.038655625
EXTRACT: note_on channel=2 note=32 velocity=125 time=0.025770416666666667
EXTRACT: note_on channel=9 note=36 velocity=99 time=0
EXTRACT: note_on channel=9 note=70 velocity=60 time=0
EXTRACT: note_on channel=3 note=75 velocity=50 time=0.012885208333333334
EXTRACT: note_on channel=3 note=72 velocity=50 time=0
EXTRACT: note_on channel=9 note=54 velocity=69 time=0
EXTRACT: note_on channel=3 note=68 velocity=50 time=0.012885208333333334
EXTRACT: note_on channel=3 note=63 velocity=50 time=0
EXTRACT: control_change channel=3 control=64 value=0 time=0.012885208333333334
EXTRACT: note_off channel=10 note=60 velocity=0 time=0
EXTRACT: note_off channel=3 note=75 velocity=0 time=0.025770416666666667
EXTRACT: note_off channel=9 note=54 velocity=0 time=0
EXTRACT: note_off channel=9 note=70 velocity=0 time=0
EXTRACT: note_off channel=9 note=36 velocity=0 time=0
EXTRACT: note_off channel=10 note=63 velocity=0 time=0
EXTRACT: note_off channel=3 note=68 velocity=0 time=0.012885208333333334
EXTRACT: note_off channel=3 note=72 velocity=0 time=0
EXTRACT: note_off channel=10 note=67 velocity=0 time=0
EXTRACT: note_off channel=3 note=63 velocity=0 time=0.012885208333333334
EXTRACT: control_change channel=3 control=64 value=127 time=0
EXTRACT: note_on channel=9 note=40 velocity=100 time=0.06442604166666667
EXTRACT: note_on channel=9 note=90 velocity=127 time=0
EXTRACT: note_on channel=9 note=44 velocity=71 time=0.012885208333333334
EXTRACT: note_on channel=9 note=42 velocity=71 time=0
EXTRACT: note_on channel=9 note=70 velocity=40 time=0
EXTRACT: note_on channel=9 note=54 velocity=127 time=0
EXTRACT: note_on channel=10 note=63 velocity=110 time=0
EXTRACT: note_on channel=3 note=63 velocity=75 time=0.012885208333333334
EXTRACT: note_on channel=3 note=68 velocity=75 time=0
EXTRACT: note_on channel=3 note=72 velocity=75 time=0.012885208333333334
EXTRACT: note_on channel=3 note=75 velocity=75 time=0
EXTRACT: note_off channel=3 note=63 velocity=0 time=0.025770416666666667
EXTRACT: note_off channel=9 note=54 velocity=0 time=0
EXTRACT: note_off channel=9 note=70 velocity=0 time=0
EXTRACT: note_off channel=9 note=42 velocity=0 time=0
EXTRACT: note_off channel=9 note=44 velocity=0 time=0
EXTRACT: note_off channel=3 note=68 velocity=0 time=0.012885208333333334
EXTRACT: note_off channel=3 note=75 velocity=0 time=0.012885208333333334
EXTRACT: note_off channel=3 note=72 velocity=0 time=0
EXTRACT: note_off channel=2 note=32 velocity=0 time=0.051540833333333334
EXTRACT: note_off channel=9 note=90 velocity=0 time=0
EXTRACT: note_off channel=9 note=40 velocity=0 time=0
EXTRACT: note_on channel=3 note=75 velocity=54 time=0.012885208333333334
EXTRACT: note_on channel=9 note=70 velocity=65 time=0
EXTRACT: note_on channel=9 note=54 velocity=64 time=0
EXTRACT: note_on channel=3 note=72 velocity=54 time=0.012885208333333334
EXTRACT: note_on channel=3 note=68 velocity=54 time=0.012885208333333334
EXTRACT: note_on channel=3 note=63 velocity=54 time=0.012885208333333334
EXTRACT: note_off channel=3 note=75 velocity=0 time=0.025770416666666667
EXTRACT: note_off channel=9 note=54 velocity=0 time=0
EXTRACT: note_off channel=9 note=70 velocity=0 time=0
EXTRACT: note_off channel=3 note=72 velocity=0 time=0.012885208333333334
EXTRACT: note_off channel=3 note=68 velocity=0 time=0.012885208333333334
EXTRACT: note_off channel=3 note=63 velocity=0 time=0.012885208333333334
EXTRACT: note_on channel=3 note=63 velocity=50 time=0.051540833333333334
EXTRACT: note_on channel=9 note=42 velocity=40 time=0
EXTRACT: note_on channel=9 note=70 velocity=110 time=0
EXTRACT: note_on channel=3 note=68 velocity=50 time=0.012885208333333334
EXTRACT: note_on channel=9 note=54 velocity=111 time=0
EXTRACT: note_on channel=10 note=65 velocity=115 time=0
EXTRACT: note_on channel=3 note=72 velocity=50 time=0.012885208333333334
EXTRACT: note_on channel=3 note=75 velocity=50 time=0
EXTRACT: note_off channel=10 note=63 velocity=0 time=0.012885208333333334
EXTRACT: note_off channel=3 note=63 velocity=0 time=0.025770416666666667
EXTRACT: note_off channel=9 note=54 velocity=0 time=0
EXTRACT: note_off channel=9 note=70 velocity=0 time=0
EXTRACT: note_off channel=9 note=42 velocity=0 time=0
EXTRACT: note_off channel=3 note=72 velocity=0 time=0.012885208333333334
EXTRACT: note_off channel=3 note=68 velocity=0 time=0
EXTRACT: note_off channel=3 note=75 velocity=0 time=0.012885208333333334
EXTRACT: note_on channel=3 note=75 velocity=69 time=0.06442604166666667
EXTRACT: note_on channel=9 note=70 velocity=64 time=0
EXTRACT: note_on channel=9 note=54 velocity=58 time=0
EXTRACT: note_on channel=3 note=72 velocity=69 time=0.012885208333333334
EXTRACT: note_on channel=3 note=68 velocity=69 time=0
EXTRACT: note_on channel=3 note=63 velocity=69 time=0.012885208333333334
EXTRACT: control_change channel=3 control=64 value=0 time=0.012885208333333334
EXTRACT: note_off channel=10 note=65 velocity=0 time=0.012885208333333334
EXTRACT: note_off channel=3 note=75 velocity=0 time=0.012885208333333334
EXTRACT: note_off channel=9 note=54 velocity=0 time=0
EXTRACT: note_off channel=9 note=70 velocity=0 time=0
EXTRACT: note_off channel=3 note=63 velocity=0 time=0.012885208333333334
EXTRACT: note_off channel=3 note=68 velocity=0 time=0
EXTRACT: note_off channel=3 note=72 velocity=0 time=0
EXTRACT: note_off channel=4 note=68 velocity=0 time=0
EXTRACT: note_off channel=4 note=63 velocity=0 time=0
EXTRACT: control_change channel=3 control=64 value=127 time=0.012885208333333334
EXTRACT: note_on channel=4 note=62 velocity=127 time=0
EXTRACT: note_on channel=4 note=65 velocity=127 time=0
EXTRACT: note_on channel=2 note=34 velocity=110 time=0.06442604166666667
EXTRACT: note_on channel=9 note=42 velocity=69 time=0
EXTRACT: note_on channel=9 note=44 velocity=69 time=0.012885208333333334
EXTRACT: note_on channel=9 note=70 velocity=40 time=0
EXTRACT: note_on channel=9 note=54 velocity=127 time=0
EXTRACT: note_on channel=9 note=36 velocity=110 time=0
EXTRACT: note_on channel=10 note=65 velocity=115 time=0
EXTRACT: note_on channel=3 note=62 velocity=56 time=0.012885208333333334
EXTRACT: note_on channel=3 note=65 velocity=56 time=0
EXTRACT: note_on channel=3 note=70 velocity=56 time=0
EXTRACT: note_on channel=3 note=74 velocity=52 time=0.012885208333333334
EXTRACT: note_off channel=3 note=65 velocity=0 time=0.025770416666666667
EXTRACT: note_off channel=3 note=62 velocity=0 time=0
EXTRACT: note_off channel=9 note=36 velocity=0 time=0
EXTRACT: note_off channel=9 note=54 velocity=0 time=0
EXTRACT: note_off channel=9 note=70 velocity=0 time=0
EXTRACT: note_off channel=9 note=44 velocity=0 time=0
EXTRACT: note_off channel=9 note=42 velocity=0 time=0
EXTRACT: note_off channel=3 note=70 velocity=0 time=0.012885208333333334
EXTRACT: note_off channel=3 note=74 velocity=0 time=0.025770416666666667
EXTRACT: note_on channel=3 note=62 velocity=52 time=0.051540833333333334
EXTRACT: note_on channel=9 note=70 velocity=64 time=0
EXTRACT: note_on channel=9 note=54 velocity=56 time=0
EXTRACT: note_on channel=3 note=65 velocity=52 time=0.012885208333333334
EXTRACT: note_on channel=3 note=70 velocity=52 time=0
EXTRACT: note_on channel=3 note=74 velocity=52 time=0.012885208333333334
EXTRACT: note_off channel=3 note=62 velocity=0 time=0.038655625
EXTRACT: note_off channel=9 note=54 velocity=0 time=0
EXTRACT: note_off channel=9 note=70 velocity=0 time=0
EXTRACT: note_off channel=10 note=65 velocity=0 time=0
EXTRACT: note_off channel=3 note=70 velocity=0 time=0.012885208333333334
EXTRACT: note_off channel=3 note=65 velocity=0 time=0
EXTRACT: note_off channel=3 note=74 velocity=0 time=0.012885208333333334
EXTRACT: note_on channel=3 note=74 velocity=52 time=0.06442604166666667
EXTRACT: note_on channel=9 note=42 velocity=38 time=0
EXTRACT: note_on channel=9 note=70 velocity=110 time=0
EXTRACT: note_on channel=3 note=70 velocity=52 time=0.012885208333333334
EXTRACT: note_on channel=9 note=54 velocity=99 time=0
EXTRACT: note_on channel=10 note=65 velocity=97 time=0
EXTRACT: note_on channel=3 note=65 velocity=52 time=0.012885208333333334
EXTRACT: note_on channel=3 note=62 velocity=52 time=0.012885208333333334
EXTRACT: note_off channel=2 note=34 velocity=0 time=0.025770416666666667
EXTRACT: note_off channel=3 note=74 velocity=0 time=0
EXTRACT: note_off channel=9 note=54 velocity=0 time=0
EXTRACT: note_off channel=9 note=70 velocity=0 time=0
EXTRACT: note_off channel=9 note=42 velocity=0 time=0
EXTRACT: note_off channel=3 note=70 velocity=0 time=0.012885208333333334
EXTRACT: note_off channel=10 note=65 velocity=0 time=0
EXTRACT: note_off channel=3 note=65 velocity=0 time=0.012885208333333334
EXTRACT: note_off channel=3 note=62 velocity=0 time=0.012885208333333334
EXTRACT: note_on channel=10 note=65 velocity=92 time=0.038655625
EXTRACT: note_on channel=2 note=34 velocity=125 time=0.012885208333333334
EXTRACT: note_on channel=9 note=70 velocity=64 time=0
EXTRACT: note_on channel=9 note=54 velocity=52 time=0
EXTRACT: note_on channel=3 note=74 velocity=54 time=0.012885208333333334
EXTRACT: note_on channel=3 note=70 velocity=54 time=0
EXTRACT: note_on channel=9 note=36 velocity=123 time=0
EXTRACT: note_on channel=3 note=65 velocity=54 time=0.012885208333333334
EXTRACT: note_on channel=3 note=62 velocity=54 time=0
EXTRACT: control_change channel=3 control=64 value=0 time=0.025770416666666667
EXTRACT: note_off channel=3 note=74 velocity=0 time=0.012885208333333334
EXTRACT: note_off channel=9 note=36 velocity=0 time=0
EXTRACT: note_off channel=9 note=54 velocity=0 time=0
EXTRACT: note_off channel=9 note=70 velocity=0 time=0
EXTRACT: note_off channel=3 note=70 velocity=0 time=0.012885208333333334
EXTRACT: note_off channel=3 note=62 velocity=0 time=0.012885208333333334
EXTRACT: note_off channel=3 note=65 velocity=0 time=0
EXTRACT: control_change channel=3 control=64 value=127 time=0.012885208333333334
EXTRACT: note_on channel=9 note=40 velocity=100 time=0.051540833333333334
EXTRACT: note_on channel=3 note=62 velocity=73 time=0.012885208333333334
EXTRACT: note_on channel=9 note=90 velocity=127 time=0
EXTRACT: note_on channel=9 note=44 velocity=71 time=0
EXTRACT: note_on channel=9 note=42 velocity=71 time=0
EXTRACT: note_on channel=9 note=70 velocity=40 time=0
EXTRACT: note_on channel=9 note=54 velocity=127 time=0
EXTRACT: note_on channel=3 note=65 velocity=73 time=0.012885208333333334
EXTRACT: note_on channel=3 note=70 velocity=73 time=0
EXTRACT: note_on channel=3 note=74 velocity=73 time=0.012885208333333334
EXTRACT: note_off channel=3 note=62 velocity=0 time=0.025770416666666667
EXTRACT: note_off channel=9 note=54 velocity=0 time=0
EXTRACT: note_off channel=9 note=70 velocity=0 time=0
EXTRACT: note_off channel=9 note=42 velocity=0 time=0
EXTRACT: note_off channel=9 note=44 velocity=0 time=0
EXTRACT: note_off channel=3 note=65 velocity=0 time=0.012885208333333334
EXTRACT: note_off channel=3 note=74 velocity=0 time=0.012885208333333334
EXTRACT: note_off channel=3 note=70 velocity=0 time=0
EXTRACT: note_off channel=10 note=65 velocity=0 time=0.038655625
EXTRACT: note_off channel=9 note=90 velocity=0 time=0.012885208333333334
EXTRACT: note_off channel=9 note=40 velocity=0 time=0
EXTRACT: note_on channel=3 note=74 velocity=50 time=0.012885208333333334
EXTRACT: note_on channel=9 note=70 velocity=60 time=0
EXTRACT: note_on channel=9 note=54 velocity=64 time=0
EXTRACT: note_on channel=3 note=70 velocity=50 time=0.012885208333333334
EXTRACT: note_on channel=10 note=67 velocity=127 time=0
EXTRACT: note_on channel=3 note=65 velocity=50 time=0.012885208333333334
EXTRACT: note_on channel=3 note=62 velocity=52 time=0.012885208333333334
EXTRACT: note_off channel=3 note=74 velocity=0 time=0.025770416666666667
EXTRACT: note_off channel=9 note=54 velocity=0 time=0
EXTRACT: note_off channel=9 note=70 velocity=0 time=0
EXTRACT: note_off channel=3 note=70 velocity=0 time=0.012885208333333334
EXTRACT: note_off channel=3 note=65 velocity=0 time=0.012885208333333334
EXTRACT: note_off channel=2 note=34 velocity=0 time=0.012885208333333334
EXTRACT: note_off channel=3 note=62 velocity=0 time=0
EXTRACT: note_on channel=2 note=34 velocity=125 time=0.051540833333333334
EXTRACT: note_on channel=9 note=42 velocity=42 time=0
EXTRACT: note_on channel=3 note=62 velocity=52 time=0.012885208333333334
EXTRACT: note_on channel=9 note=70 velocity=107 time=0
EXTRACT: note_on channel=9 note=36 velocity=119 time=0
EXTRACT: note_on channel=9 note=54 velocity=101 time=0
EXTRACT: note_on channel=3 note=65 velocity=52 time=0.012885208333333334
EXTRACT: note_on channel=3 note=70 velocity=52 time=0
EXTRACT: note_on channel=3 note=74 velocity=52 time=0
EXTRACT: note_off channel=10 note=67 velocity=0 time=0.012885208333333334
EXTRACT: note_off channel=3 note=62 velocity=0 time=0.025770416666666667
EXTRACT: note_off channel=9 note=54 velocity=0 time=0
EXTRACT: note_off channel=9 note=36 velocity=0 time=0
EXTRACT: note_off channel=9 note=70 velocity=0 time=0
EXTRACT: note_off channel=9 note=42 velocity=0 time=0
EXTRACT: note_off channel=3 note=70 velocity=0 time=0.012885208333333334
EXTRACT: note_off channel=3 note=65 velocity=0 time=0
EXTRACT: note_off channel=3 note=74 velocity=0 time=0.012885208333333334
EXTRACT: note_on channel=10 note=67 velocity=115 time=0.051540833333333334
EXTRACT: note_on channel=3 note=74 velocity=52 time=0.012885208333333334
EXTRACT: note_on channel=9 note=70 velocity=67 time=0
EXTRACT: note_on channel=9 note=54 velocity=58 time=0
EXTRACT: note_on channel=3 note=70 velocity=52 time=0.012885208333333334
EXTRACT: note_on channel=3 note=65 velocity=52 time=0
EXTRACT: note_on channel=3 note=62 velocity=52 time=0.012885208333333334
EXTRACT: control_change channel=3 control=64 value=0 time=0.025770416666666667
EXTRACT: note_off channel=3 note=74 velocity=0 time=0.012885208333333334
EXTRACT: note_off channel=9 note=54 velocity=0 time=0
EXTRACT: note_off channel=9 note=70 velocity=0 time=0
EXTRACT: note_off channel=2 note=34 velocity=0 time=0.012885208333333334
EXTRACT: note_off channel=3 note=62 velocity=0 time=0
EXTRACT: note_off channel=3 note=65 velocity=0 time=0
EXTRACT: note_off channel=3 note=70 velocity=0 time=0
EXTRACT: note_off channel=4 note=65 velocity=0 time=0
EXTRACT: note_off channel=4 note=62 velocity=0 time=0
EXTRACT: note_on channel=4 note=63 velocity=127 time=0.012885208333333334
EXTRACT: note_on channel=4 note=67 velocity=127 time=0
EXTRACT: control_change channel=3 control=64 value=127 time=0.012885208333333334
EXTRACT: note_off channel=10 note=67 velocity=0 time=0
EXTRACT: note_on channel=9 note=42 velocity=69 time=0.051540833333333334
EXTRACT: note_on channel=2 note=39 velocity=121 time=0.012885208333333334
EXTRACT: note_on channel=9 note=44 velocity=69 time=0
EXTRACT: note_on channel=9 note=70 velocity=40 time=0
EXTRACT: note_on channel=9 note=54 velocity=127 time=0
EXTRACT: note_on channel=9 note=36 velocity=125 time=0
EXTRACT: note_on channel=10 note=67 velocity=90 time=0
EXTRACT: control_change channel=3 control=64 value=127 time=0.012885208333333334
EXTRACT: note_on channel=3 note=63 velocity=81 time=0
EXTRACT: note_on channel=3 note=67 velocity=81 time=0.012885208333333334
EXTRACT: note_on channel=3 note=70 velocity=81 time=0
EXTRACT: note_on channel=3 note=75 velocity=81 time=0
EXTRACT: note_off channel=3 note=63 velocity=0 time=0.025770416666666667
EXTRACT: note_off channel=9 note=36 velocity=0 time=0
EXTRACT: note_off channel=9 note=54 velocity=0 time=0
EXTRACT: note_off channel=9 note=70 velocity=0 time=0
EXTRACT: note_off channel=3 note=67 velocity=0 time=0.012885208333333334
EXTRACT: note_off channel=3 note=75 velocity=0 time=0.012885208333333334
EXTRACT: note_off channel=3 note=70 velocity=0 time=0
EXTRACT: note_off channel=9 note=44 velocity=0 time=0.051540833333333334
EXTRACT: note_off channel=9 note=42 velocity=0 time=0
EXTRACT: note_on channel=3 note=75 velocity=54 time=0.012885208333333334
EXTRACT: note_on channel=9 note=70 velocity=64 time=0
EXTRACT: note_on channel=9 note=54 velocity=71 time=0
EXTRACT: note_on channel=3 note=70 velocity=54 time=0.012885208333333334
EXTRACT: note_on channel=3 note=67 velocity=54 time=0.012885208333333334
EXTRACT: note_on channel=3 note=63 velocity=50 time=0.012885208333333334
EXTRACT: note_off channel=3 note=75 velocity=0 time=0.025770416666666667
EXTRACT: note_off channel=9 note=54 velocity=0 time=0
EXTRACT: note_off channel=9 note=70 velocity=0 time=0
EXTRACT: note_off channel=3 note=70 velocity=0 time=0.012885208333333334
EXTRACT: note_off channel=3 note=67 velocity=0 time=0.012885208333333334
EXTRACT: note_on channel=10 note=65 velocity=115 time=0
EXTRACT: note_off channel=3 note=63 velocity=0 time=0.012885208333333334
EXTRACT: note_off channel=10 note=67 velocity=0 time=0.012885208333333334
EXTRACT: note_on channel=3 note=63 velocity=52 time=0.038655625
EXTRACT: note_on channel=9 note=42 velocity=36 time=0
EXTRACT: note_on channel=9 note=70 velocity=113 time=0
EXTRACT: note_on channel=3 note=67 velocity=52 time=0.012885208333333334
EXTRACT: note_on channel=3 note=70 velocity=52 time=0
EXTRACT: note_on channel=9 note=54 velocity=117 time=0
EXTRACT: note_on channel=3 note=75 velocity=52 time=0.012885208333333334
EXTRACT: note_off channel=10 note=65 velocity=0 time=0.012885208333333334
EXTRACT: note_off channel=3 note=63 velocity=0 time=0.025770416666666667
EXTRACT: note_off channel=9 note=54 velocity=0 time=0
EXTRACT: note_off channel=9 note=70 velocity=0 time=0
EXTRACT: note_off channel=9 note=42 velocity=0 time=0
EXTRACT: note_off channel=3 note=70 velocity=0 time=0.012885208333333334
EXTRACT: note_off channel=3 note=67 velocity=0 time=0
EXTRACT: note_on channel=10 note=65 velocity=61 time=0
EXTRACT: note_off channel=3 note=75 velocity=0 time=0.012885208333333334
EXTRACT: note_on channel=10 note=63 velocity=110 time=0.025770416666666667
EXTRACT: note_off channel=2 note=39 velocity=0 time=0.012885208333333334
EXTRACT: note_off channel=10 note=65 velocity=0 time=0.012885208333333334
EXTRACT: note_on channel=2 note=39 velocity=125 time=0.012885208333333334
EXTRACT: note_on channel=9 note=36 velocity=110 time=0
EXTRACT: note_on channel=9 note=70 velocity=60 time=0
EXTRACT: note_on channel=3 note=75 velocity=50 time=0.012885208333333334
EXTRACT: note_on channel=3 note=70 velocity=50 time=0
EXTRACT: note_on channel=9 note=54 velocity=69 time=0
EXTRACT: note_on channel=3 note=67 velocity=50 time=0.012885208333333334
EXTRACT: note_on channel=3 note=63 velocity=50 time=0
EXTRACT: control_change channel=3 control=64 value=0 time=0.012885208333333334
EXTRACT: note_off channel=3 note=75 velocity=0 time=0.025770416666666667
EXTRACT: note_off channel=9 note=54 velocity=0 time=0
EXTRACT: note_off channel=9 note=70 velocity=0 time=0
EXTRACT: note_off channel=9 note=36 velocity=0 time=0
EXTRACT: note_off channel=3 note=67 velocity=0 time=0.012885208333333334
EXTRACT: note_off channel=3 note=70 velocity=0 time=0
EXTRACT: note_off channel=3 note=63 velocity=0 time=0.012885208333333334
EXTRACT: control_change channel=3 control=64 value=127 time=0
EXTRACT: note_on channel=9 note=40 velocity=100 time=0.06442604166666667
EXTRACT: note_on channel=3 note=63 velocity=75 time=0.012885208333333334
EXTRACT: note_on channel=9 note=90 velocity=127 time=0
EXTRACT: note_on channel=9 note=44 velocity=71 time=0
EXTRACT: note_on channel=9 note=42 velocity=71 time=0
EXTRACT: note_on channel=9 note=70 velocity=40 time=0
EXTRACT: note_on channel=9 note=54 velocity=127 time=0
EXTRACT: note_on channel=3 note=67 velocity=75 time=0.012885208333333334
EXTRACT: note_on channel=3 note=70 velocity=75 time=0.012885208333333334
EXTRACT: note_on channel=3 note=75 velocity=75 time=0
EXTRACT: note_off channel=3 note=63 velocity=0 time=0.025770416666666667
EXTRACT: note_off channel=9 note=54 velocity=0 time=0
EXTRACT: note_off channel=9 note=70 velocity=0 time=0
EXTRACT: note_off channel=9 note=42 velocity=0 time=0
EXTRACT: note_off channel=9 note=44 velocity=0 time=0
EXTRACT: note_off channel=3 note=67 velocity=0 time=0.012885208333333334
EXTRACT: note_off channel=3 note=75 velocity=0 time=0.012885208333333334
EXTRACT: note_off channel=3 note=70 velocity=0 time=0
EXTRACT: note_on channel=10 note=58 velocity=92 time=0.038655625
EXTRACT: note_off channel=2 note=39 velocity=0 time=0.012885208333333334
EXTRACT: note_off channel=9 note=90 velocity=0 time=0
EXTRACT: note_off channel=9 note=40 velocity=0 time=0
EXTRACT: note_off channel=10 note=63 velocity=0 time=0
EXTRACT: note_on channel=3 note=75 velocity=54 time=0.012885208333333334
EXTRACT: note_on channel=9 note=70 velocity=64 time=0
EXTRACT: note_on channel=9 note=54 velocity=64 time=0
EXTRACT: note_on channel=3 note=70 velocity=54 time=0.012885208333333334
EXTRACT: note_on channel=3 note=67 velocity=54 time=0.012885208333333334
EXTRACT: note_on channel=3 note=63 velocity=54 time=0.012885208333333334
EXTRACT: note_off channel=3 note=75 velocity=0 time=0.025770416666666667
EXTRACT: note_off channel=9 note=54 velocity=0 time=0
EXTRACT: note_off channel=9 note=70 velocity=0 time=0
EXTRACT: note_off channel=3 note=70 velocity=0 time=0.012885208333333334
EXTRACT: note_off channel=3 note=67 velocity=0 time=0.012885208333333334
EXTRACT: note_off channel=3 note=63 velocity=0 time=0.012885208333333334
EXTRACT: note_on channel=10 note=65 velocity=115 time=0.025770416666666667
EXTRACT: note_on channel=3 note=63 velocity=50 time=0.025770416666666667
EXTRACT: note_on channel=9 note=42 velocity=40 time=0
EXTRACT: note_on channel=9 note=70 velocity=110 time=0
EXTRACT: note_on channel=3 note=67 velocity=50 time=0.012885208333333334
EXTRACT: note_on channel=3 note=70 velocity=50 time=0
EXTRACT: note_on channel=9 note=54 velocity=111 time=0
EXTRACT: note_on channel=3 note=75 velocity=50 time=0.012885208333333334
EXTRACT: note_off channel=3 note=63 velocity=0 time=0.038655625
EXTRACT: note_off channel=9 note=54 velocity=0 time=0
EXTRACT: note_off channel=9 note=70 velocity=0 time=0
EXTRACT: note_off channel=9 note=42 velocity=0 time=0
EXTRACT: note_off channel=3 note=70 velocity=0 time=0.012885208333333334
EXTRACT: note_off channel=3 note=67 velocity=0 time=0
EXTRACT: note_off channel=3 note=75 velocity=0 time=0.012885208333333334
EXTRACT: note_on channel=10 note=67 velocity=92 time=0.051540833333333334
EXTRACT: note_on channel=3 note=75 velocity=69 time=0.012885208333333334
EXTRACT: note_on channel=9 note=70 velocity=64 time=0
EXTRACT: note_on channel=9 note=54 velocity=58 time=0
EXTRACT: note_on channel=3 note=70 velocity=69 time=0.012885208333333334
EXTRACT: note_on channel=3 note=67 velocity=69 time=0
EXTRACT: note_on channel=3 note=63 velocity=69 time=0.012885208333333334
EXTRACT: control_change channel=3 control=64 value=0 time=0.012885208333333334
EXTRACT: note_off channel=3 note=75 velocity=0 time=0.025770416666666667
EXTRACT: note_off channel=9 note=54 velocity=0 time=0
EXTRACT: note_off channel=9 note=70 velocity=0 time=0
EXTRACT: note_off channel=10 note=65 velocity=0 time=0
EXTRACT: note_off channel=3 note=67 velocity=0 time=0.012885208333333334
EXTRACT: note_off channel=3 note=70 velocity=0 time=0
EXTRACT: note_off channel=3 note=63 velocity=0 time=0.012885208333333334
EXTRACT: control_change channel=3 control=64 value=127 time=0
EXTRACT: control_change channel=3 control=64 value=0 time=0.025770416666666667
EXTRACT: note_off channel=4 note=67 velocity=0 time=0
EXTRACT: note_off channel=4 note=63 velocity=0 time=0
EXTRACT: note_on channel=4 note=63 velocity=127 time=0
EXTRACT: note_on channel=4 note=68 velocity=127 time=0
EXTRACT: control_change channel=3 control=64 value=127 time=0.012885208333333334
EXTRACT: note_off channel=10 note=58 velocity=0 time=0.025770416666666667
EXTRACT: note_on channel=10 note=68 velocity=127 time=0
EXTRACT: note_on channel=2 note=32 velocity=110 time=0.012885208333333334
EXTRACT: note_on channel=9 note=42 velocity=69 time=0
EXTRACT: note_on channel=9 note=44 velocity=69 time=0
EXTRACT: note_on channel=9 note=36 velocity=110 time=0
EXTRACT: note_on channel=3 note=63 velocity=56 time=0.012885208333333334
EXTRACT: note_on channel=3 note=68 velocity=56 time=0
EXTRACT: note_on channel=9 note=70 velocity=40 time=0
EXTRACT: note_on channel=9 note=54 velocity=127 time=0
EXTRACT: note_on channel=3 note=72 velocity=56 time=0.012885208333333334
EXTRACT: note_on channel=3 note=75 velocity=52 time=0
EXTRACT: note_off channel=10 note=67 velocity=0 time=0.012885208333333334
EXTRACT: note_off channel=3 note=68 velocity=0 time=0.012885208333333334
EXTRACT: note_off channel=3 note=63 velocity=0 time=0
EXTRACT: note_off channel=9 note=54 velocity=0 time=0
EXTRACT: note_off channel=9 note=70 velocity=0 time=0
EXTRACT: note_off channel=9 note=36 velocity=0 time=0
EXTRACT: note_off channel=9 note=44 velocity=0 time=0
EXTRACT: note_off channel=9 note=42 velocity=0 time=0
EXTRACT: note_off channel=3 note=72 velocity=0 time=0.012885208333333334
EXTRACT: note_off channel=3 note=75 velocity=0 time=0.025770416666666667
EXTRACT: note_on channel=3 note=63 velocity=52 time=0.051540833333333334
EXTRACT: note_on channel=9 note=70 velocity=64 time=0
EXTRACT: note_on channel=9 note=54 velocity=56 time=0
EXTRACT: note_on channel=3 note=68 velocity=52 time=0.012885208333333334
EXTRACT: note_on channel=3 note=72 velocity=52 time=0
EXTRACT: note_on channel=3 note=75 velocity=52 time=0.012885208333333334
EXTRACT: note_off channel=3 note=63 velocity=0 time=0.038655625
EXTRACT: note_off channel=9 note=54 velocity=0 time=0
EXTRACT: note_off channel=9 note=70 velocity=0 time=0
EXTRACT: note_off channel=3 note=72 velocity=0 time=0.012885208333333334
EXTRACT: note_off channel=3 note=68 velocity=0 time=0
EXTRACT: note_off channel=3 note=75 velocity=0 time=0.012885208333333334
EXTRACT: note_on channel=10 note=67 velocity=92 time=0.051540833333333334
EXTRACT: note_on channel=9 note=36 velocity=110 time=0.012885208333333334
EXTRACT: note_on channel=9 note=42 velocity=38 time=0
EXTRACT: note_on channel=9 note=70 velocity=110 time=0
EXTRACT: note_on channel=3 note=75 velocity=52 time=0.012885208333333334
EXTRACT: note_on channel=3 note=72 velocity=52 time=0
EXTRACT: note_on channel=9 note=54 velocity=99 time=0
EXTRACT: note_on channel=3 note=68 velocity=52 time=0.012885208333333334
EXTRACT: note_off channel=10 note=68 velocity=0 time=0
EXTRACT: note_on channel=3 note=63 velocity=52 time=0.012885208333333334
EXTRACT: note_off channel=3 note=75 velocity=0 time=0.025770416666666667
EXTRACT: note_off channel=9 note=54 velocity=0 time=0
EXTRACT: note_off channel=9 note=70 velocity=0 time=0
EXTRACT: note_off channel=9 note=42 velocity=0 time=0
EXTRACT: note_off channel=9 note=36 velocity=0 time=0
EXTRACT: note_off channel=3 note=72 velocity=0 time=0.012885208333333334
EXTRACT: note_off channel=3 note=68 velocity=0 time=0.012885208333333334
EXTRACT: note_off channel=3 note=63 velocity=0 time=0.012885208333333334
EXTRACT: note_on channel=10 note=65 velocity=106 time=0.012885208333333334
EXTRACT: note_off channel=2 note=32 velocity=0 time=0.025770416666666667
EXTRACT: note_on channel=2 note=39 velocity=110 time=0.012885208333333334
EXTRACT: note_on channel=3 note=75 velocity=54 time=0
EXTRACT: note_on channel=9 note=70 velocity=64 time=0
EXTRACT: note_on channel=3 note=72 velocity=54 time=0.012885208333333334
EXTRACT: note_on channel=9 note=54 velocity=52 time=0
EXTRACT: note_on channel=3 note=68 velocity=54 time=0.012885208333333334
EXTRACT: note_on channel=3 note=63 velocity=54 time=0
EXTRACT: note_off channel=10 note=67 velocity=0 time=0
EXTRACT: control_change channel=3 control=64 value=0 time=0.025770416666666667
EXTRACT: note_off channel=3 note=75 velocity=0 time=0.012885208333333334
EXTRACT: note_off channel=9 note=54 velocity=0 time=0
EXTRACT: note_off channel=9 note=70 velocity=0 time=0
EXTRACT: note_off channel=3 note=72 velocity=0 time=0.012885208333333334
EXTRACT: note_off channel=3 note=63 velocity=0 time=0.012885208333333334
EXTRACT: note_off channel=3 note=68 velocity=0 time=0
EXTRACT: control_change channel=3 control=64 value=127 time=0.012885208333333334
EXTRACT: note_off channel=2 note=39 velocity=0 time=0.038655625
EXTRACT: control_change channel=3 control=64 value=0 time=0.012885208333333334
EXTRACT: note_off channel=4 note=63 velocity=0 time=0
EXTRACT: note_off channel=4 note=68 velocity=0 time=0.012885208333333334
EXTRACT: note_on channel=4 note=62 velocity=127 time=0
EXTRACT: control_change channel=3 control=64 value=127 time=0.012885208333333334
EXTRACT: note_on channel=4 note=67 velocity=127 time=0
EXTRACT: note_on channel=9 note=40 velocity=100 time=0
EXTRACT: note_on channel=2 note=31 velocity=110 time=0.012885208333333334
EXTRACT: note_on channel=9 note=90 velocity=127 time=0
EXTRACT: note_on channel=9 note=44 velocity=71 time=0
EXTRACT: note_on channel=9 note=42 velocity=71 time=0
EXTRACT: note_on channel=9 note=70 velocity=40 time=0
EXTRACT: note_on channel=9 note=54 velocity=127 time=0
EXTRACT: note_on channel=3 note=62 velocity=73 time=0.012885208333333334
EXTRACT: note_on channel=3 note=67 velocity=73 time=0
EXTRACT: note_off channel=3 note=62 velocity=0 time=0.012885208333333334
EXTRACT: note_on channel=3 note=72 velocity=73 time=0
EXTRACT: note_on channel=3 note=74 velocity=73 time=0
EXTRACT: note_off channel=9 note=54 velocity=0 time=0
EXTRACT: note_off channel=9 note=70 velocity=0 time=0
EXTRACT: note_off channel=9 note=42 velocity=0 time=0
EXTRACT: note_off channel=9 note=44 velocity=0 time=0
EXTRACT: note_off channel=3 note=67 velocity=0 time=0.012885208333333334
EXTRACT: note_off channel=3 note=74 velocity=0 time=0.012885208333333334
EXTRACT: note_off channel=3 note=72 velocity=0 time=0
EXTRACT: note_off channel=2 note=31 velocity=0 time=0.051540833333333334
EXTRACT: note_off channel=9 note=90 velocity=0 time=0
EXTRACT: note_off channel=9 note=40 velocity=0 time=0
EXTRACT: note_on channel=2 note=31 velocity=110 time=0.012885208333333334
EXTRACT: note_on channel=9 note=70 velocity=73 time=0
EXTRACT: note_on channel=9 note=54 velocity=64 time=0
EXTRACT: note_on channel=3 note=74 velocity=50 time=0.012885208333333334
EXTRACT: note_on channel=3 note=72 velocity=50 time=0
EXTRACT: note_on channel=3 note=67 velocity=50 time=0.012885208333333334
EXTRACT: note_off channel=10 note=65 velocity=0 time=0
EXTRACT: note_on channel=3 note=62 velocity=52 time=0.012885208333333334
EXTRACT: note_on channel=10 note=63 velocity=101 time=0
EXTRACT: note_off channel=3 note=74 velocity=0 time=0.025770416666666667
EXTRACT: note_off channel=9 note=54 velocity=0 time=0
EXTRACT: note_off channel=9 note=70 velocity=0 time=0
EXTRACT: note_off channel=3 note=72 velocity=0 time=0.012885208333333334
EXTRACT: note_off channel=3 note=67 velocity=0 time=0.012885208333333334
EXTRACT: note_off channel=3 note=62 velocity=0 time=0.012885208333333334
EXTRACT: note_on channel=3 note=62 velocity=52 time=0.051540833333333334
EXTRACT: note_on channel=9 note=42 velocity=42 time=0
EXTRACT: note_on channel=9 note=70 velocity=107 time=0
EXTRACT: note_on channel=3 note=67 velocity=52 time=0.012885208333333334
EXTRACT: note_on channel=3 note=72 velocity=52 time=0
EXTRACT: note_on channel=9 note=54 velocity=101 time=0
EXTRACT: note_on channel=3 note=74 velocity=52 time=0.012885208333333334
EXTRACT: note_off channel=3 note=62 velocity=0 time=0.038655625
EXTRACT: note_off channel=9 note=54 velocity=0 time=0
EXTRACT: note_off channel=9 note=70 velocity=0 time=0
EXTRACT: note_off channel=9 note=42 velocity=0 time=0
EXTRACT: note_off channel=3 note=72 velocity=0 time=0.012885208333333334
EXTRACT: note_off channel=3 note=67 velocity=0 time=0
EXTRACT: note_off channel=3 note=74 velocity=0 time=0.012885208333333334
EXTRACT: note_on channel=3 note=74 velocity=52 time=0.06442604166666667
EXTRACT: note_on channel=9 note=70 velocity=67 time=0
EXTRACT: note_on channel=9 note=54 velocity=58 time=0
EXTRACT: note_on channel=3 note=72 velocity=52 time=0.012885208333333334
EXTRACT: note_on channel=3 note=67 velocity=52 time=0
EXTRACT: note_on channel=3 note=62 velocity=52 time=0.012885208333333334
EXTRACT: control_change channel=3 control=64 value=0 time=0.025770416666666667
EXTRACT: note_off channel=3 note=74 velocity=0 time=0.012885208333333334
EXTRACT: note_off channel=9 note=54 velocity=0 time=0
EXTRACT: note_off channel=9 note=70 velocity=0 time=0
EXTRACT: note_off channel=3 note=67 velocity=0 time=0.012885208333333334
EXTRACT: note_off channel=3 note=72 velocity=0 time=0
EXTRACT: note_off channel=2 note=31 velocity=0 time=0.012885208333333334
EXTRACT: note_off channel=3 note=62 velocity=0 time=0
EXTRACT: note_off channel=4 note=67 velocity=0 time=0
EXTRACT: note_off channel=4 note=62 velocity=0 time=0
EXTRACT: control_change channel=3 control=64 value=127 time=0.012885208333333334
EXTRACT: note_on channel=4 note=60 velocity=127 time=0
EXTRACT: note_on channel=4 note=65 velocity=127 time=0
EXTRACT: note_off channel=10 note=63 velocity=0 time=0.012885208333333334
EXTRACT: note_on channel=9 note=36 velocity=127 time=0.038655625
EXTRACT: note_on channel=2 note=29 velocity=127 time=0.012885208333333334
EXTRACT: control_change channel=3 control=64 value=127 time=0
EXTRACT: note_on channel=9 note=44 velocity=69 time=0
EXTRACT: note_on channel=9 note=42 velocity=69 time=0
EXTRACT: note_on channel=9 note=70 velocity=40 time=0
EXTRACT: note_on channel=9 note=54 velocity=127 time=0
EXTRACT: note_on channel=3 note=60 velocity=81 time=0.012885208333333334
EXTRACT: note_on channel=3 note=65 velocity=81 time=0
EXTRACT: note_on channel=10 note=65 velocity=106 time=0
EXTRACT: note_on channel=3 note=68 velocity=81 time=0.012885208333333334
EXTRACT: note_on channel=3 note=72 velocity=81 time=0
EXTRACT: note_off channel=3 note=60 velocity=0 time=0.025770416666666667
EXTRACT: note_off channel=9 note=54 velocity=0 time=0
EXTRACT: note_off channel=9 note=70 velocity=0 time=0
EXTRACT: note_off channel=3 note=65 velocity=0 time=0.012885208333333334
EXTRACT: note_off channel=3 note=72 velocity=0 time=0.012885208333333334
EXTRACT: note_off channel=3 note=68 velocity=0 time=0
EXTRACT: note_off channel=9 note=42 velocity=0 time=0.051540833333333334
EXTRACT: note_off channel=9 note=44 velocity=0 time=0
EXTRACT: note_off channel=9 note=36 velocity=0 time=0
EXTRACT: note_on channel=3 note=72 velocity=54 time=0.012885208333333334
EXTRACT: note_on channel=9 note=70 velocity=69 time=0
EXTRACT: note_on channel=9 note=54 velocity=71 time=0
EXTRACT: note_on channel=3 note=68 velocity=54 time=0.012885208333333334
EXTRACT: note_on channel=3 note=65 velocity=54 time=0.012885208333333334
EXTRACT: note_on channel=3 note=60 velocity=50 time=0.012885208333333334
EXTRACT: note_off channel=3 note=72 velocity=0 time=0.025770416666666667
EXTRACT: note_off channel=9 note=54 velocity=0 time=0
EXTRACT: note_off channel=9 note=70 velocity=0 time=0
EXTRACT: note_off channel=3 note=68 velocity=0 time=0.012885208333333334
EXTRACT: note_off channel=3 note=65 velocity=0 time=0.012885208333333334
EXTRACT: note_off channel=3 note=60 velocity=0 time=0.012885208333333334
EXTRACT: note_on channel=3 note=60 velocity=52 time=0.051540833333333334
EXTRACT: note_on channel=9 note=42 velocity=36 time=0
EXTRACT: note_on channel=9 note=70 velocity=113 time=0
EXTRACT: note_on channel=3 note=65 velocity=52 time=0.012885208333333334
EXTRACT: note_on channel=3 note=68 velocity=52 time=0
EXTRACT: note_on channel=9 note=54 velocity=117 time=0
EXTRACT: note_on channel=3 note=72 velocity=52 time=0.012885208333333334
EXTRACT: note_off channel=3 note=60 velocity=0 time=0.038655625
EXTRACT: note_off channel=9 note=54 velocity=0 time=0
EXTRACT: note_off channel=9 note=70 velocity=0 time=0
EXTRACT: note_off channel=9 note=42 velocity=0 time=0
EXTRACT: note_off channel=3 note=68 velocity=0 time=0.012885208333333334
EXTRACT: note_off channel=3 note=65 velocity=0 time=0
EXTRACT: note_off channel=3 note=72 velocity=0 time=0.012885208333333334
EXTRACT: note_off channel=2 note=29 velocity=0 time=0.038655625
EXTRACT: note_on channel=4 note=60 velocity=92 time=0.025770416666666667
EXTRACT: note_on channel=9 note=70 velocity=60 time=0
EXTRACT: note_on channel=9 note=36 velocity=99 time=0
EXTRACT: note_on channel=2 note=29 velocity=110 time=0.012885208333333334
EXTRACT: note_on channel=3 note=72 velocity=50 time=0
EXTRACT: note_on channel=9 note=54 velocity=69 time=0
EXTRACT: note_on channel=10 note=67 velocity=127 time=0
EXTRACT: note_on channel=3 note=68 velocity=50 time=0.012885208333333334
EXTRACT: note_on channel=3 note=65 velocity=50 time=0
EXTRACT: note_on channel=3 note=60 velocity=50 time=0
EXTRACT: control_change channel=3 control=64 value=0 time=0.012885208333333334
EXTRACT: note_off channel=10 note=65 velocity=0 time=0.012885208333333334
EXTRACT: note_off channel=3 note=72 velocity=0 time=0.012885208333333334
EXTRACT: note_off channel=4 note=60 velocity=0 time=0
EXTRACT: note_off channel=9 note=54 velocity=0 time=0
EXTRACT: note_off channel=9 note=36 velocity=0 time=0
EXTRACT: note_off channel=9 note=70 velocity=0 time=0
EXTRACT: note_off channel=3 note=65 velocity=0 time=0.012885208333333334
EXTRACT: note_off channel=3 note=68 velocity=0 time=0
EXTRACT: note_off channel=3 note=60 velocity=0 time=0.012885208333333334
EXTRACT: control_change channel=3 control=64 value=127 time=0
EXTRACT: note_off channel=2 note=29 velocity=0 time=0.025770416666666667
EXTRACT: note_on channel=9 note=40 velocity=100 time=0.038655625
EXTRACT: note_on channel=9 note=90 velocity=127 time=0
EXTRACT: note_on channel=2 note=29 velocity=110 time=0.012885208333333334
EXTRACT: note_on channel=9 note=44 velocity=71 time=0
EXTRACT: note_on channel=9 note=70 velocity=40 time=0
EXTRACT: note_on channel=9 note=57 velocity=90 time=0
EXTRACT: note_on channel=9 note=42 velocity=71 time=0
EXTRACT: note_on channel=3 note=60 velocity=75 time=0.012885208333333334
EXTRACT: note_on channel=3 note=65 velocity=75 time=0
EXTRACT: note_on channel=9 note=54 velocity=127 time=0
EXTRACT: note_on channel=3 note=68 velocity=75 time=0.012885208333333334
EXTRACT: note_on channel=3 note=72 velocity=75 time=0
EXTRACT: note_on channel=10 note=65 velocity=115 time=0.012885208333333334
EXTRACT: note_off channel=3 note=60 velocity=0 time=0.012885208333333334
EXTRACT: note_off channel=9 note=54 velocity=0 time=0
EXTRACT: note_off channel=9 note=42 velocity=0 time=0
EXTRACT: note_off channel=9 note=57 velocity=0 time=0
EXTRACT: note_off channel=9 note=70 velocity=0 time=0
EXTRACT: note_off channel=9 note=44 velocity=0 time=0
EXTRACT: note_off channel=10 note=67 velocity=0 time=0
EXTRACT: note_off channel=3 note=65 velocity=0 time=0.012885208333333334
EXTRACT: note_off channel=3 note=72 velocity=0 time=0.012885208333333334
EXTRACT: note_off channel=3 note=68 velocity=0 time=0
EXTRACT: note_off channel=9 note=90 velocity=0 time=0.051540833333333334
EXTRACT: note_off channel=9 note=40 velocity=0 time=0
EXTRACT: note_on channel=3 note=72 velocity=40 time=0.012885208333333334
EXTRACT: note_on channel=9 note=70 velocity=10 time=0
EXTRACT: note_on channel=3 note=68 velocity=40 time=0.012885208333333334
EXTRACT: note_on channel=3 note=65 velocity=40 time=0.012885208333333334
EXTRACT: note_on channel=3 note=60 velocity=40 time=0.012885208333333334
EXTRACT: note_off channel=3 note=72 velocity=0 time=0.025770416666666667
EXTRACT: note_off channel=9 note=70 velocity=0 time=0
EXTRACT: note_off channel=3 note=68 velocity=0 time=0.012885208333333334
EXTRACT: note_off channel=3 note=65 velocity=0 time=0.012885208333333334
EXTRACT: note_off channel=3 note=60 velocity=0 time=0.012885208333333334
EXTRACT: note_on channel=3 note=60 velocity=46 time=0.051540833333333334
EXTRACT: note_on channel=9 note=70 velocity=24 time=0
EXTRACT: note_on channel=3 note=65 velocity=46 time=0.012885208333333334
EXTRACT: note_on channel=3 note=68 velocity=46 time=0
EXTRACT: note_on channel=3 note=72 velocity=46 time=0.012885208333333334
EXTRACT: note_off channel=3 note=60 velocity=0 time=0.038655625
EXTRACT: note_off channel=9 note=70 velocity=0 time=0
EXTRACT: note_off channel=3 note=68 velocity=0 time=0.012885208333333334
EXTRACT: note_off channel=3 note=65 velocity=0 time=0
EXTRACT: note_off channel=3 note=72 velocity=0 time=0.012885208333333334
EXTRACT: note_off channel=2 note=29 velocity=0 time=0.051540833333333334
EXTRACT: note_on channel=3 note=72 velocity=77 time=0.012885208333333334
EXTRACT: note_on channel=9 note=36 velocity=110 time=0
EXTRACT: note_on channel=9 note=70 velocity=64 time=0
EXTRACT: note_on channel=3 note=68 velocity=77 time=0.012885208333333334
EXTRACT: note_on channel=3 note=65 velocity=77 time=0
EXTRACT: note_on channel=3 note=60 velocity=77 time=0.012885208333333334
EXTRACT: note_off channel=3 note=72 velocity=0 time=0.038655625
EXTRACT: note_off channel=9 note=70 velocity=0 time=0
EXTRACT: note_off channel=9 note=36 velocity=0 time=0
EXTRACT: note_off channel=3 note=65 velocity=0 time=0.012885208333333334
EXTRACT: note_off channel=3 note=68 velocity=0 time=0
EXTRACT: note_off channel=3 note=60 velocity=0 time=0.012885208333333334
EXTRACT: control_change channel=3 control=64 value=0 time=0
EXTRACT: note_off channel=4 note=60 velocity=0 time=0
EXTRACT: note_off channel=4 note=65 velocity=0 time=0
EXTRACT: control_change channel=4 control=0 value=0 time=0
EXTRACT: control_change channel=4 control=0 value=0 time=0
EXTRACT: control_change channel=4 control=32 value=0 time=0
EXTRACT: control_change channel=4 control=0 value=0 time=0
EXTRACT: control_change channel=4 control=32 value=0 time=0
EXTRACT: program_change channel=4 program=89 time=0
EXTRACT: control_change channel=3 control=64 value=127 time=0.012885208333333334
EXTRACT: note_on channel=4 note=62 velocity=127 time=0
EXTRACT: note_on channel=4 note=67 velocity=127 time=0
EXTRACT: note_on channel=9 note=40 velocity=100 time=0.051540833333333334
EXTRACT: note_on channel=9 note=90 velocity=125 time=0
EXTRACT: note_on channel=2 note=31 velocity=110 time=0.012885208333333334
EXTRACT: note_on channel=4 note=62 velocity=116 time=0
EXTRACT: note_on channel=9 note=70 velocity=110 time=0
EXTRACT: note_on channel=9 note=44 velocity=40 time=0
EXTRACT: note_off channel=4 note=62 velocity=0 time=0.051540833333333334
EXTRACT: note_off channel=9 note=44 velocity=0 time=0
EXTRACT: note_off channel=9 note=70 velocity=0 time=0
EXTRACT: note_off channel=9 note=90 velocity=0 time=0
EXTRACT: note_off channel=9 note=40 velocity=0 time=0
EXTRACT: note_on channel=3 note=62 velocity=93 time=0.09019645833333334
EXTRACT: note_on channel=9 note=70 velocity=10 time=0
EXTRACT: note_on channel=3 note=67 velocity=93 time=0.012885208333333334
EXTRACT: note_on channel=3 note=71 velocity=93 time=0
EXTRACT: note_on channel=3 note=74 velocity=93 time=0.012885208333333334
EXTRACT: note_off channel=10 note=65 velocity=0 time=0.025770416666666667
EXTRACT: note_off channel=3 note=62 velocity=0 time=0.012885208333333334
EXTRACT: note_off channel=9 note=70 velocity=0 time=0
EXTRACT: note_off channel=3 note=71 velocity=0 time=0.012885208333333334
EXTRACT: note_off channel=3 note=67 velocity=0 time=0
EXTRACT: note_off channel=3 note=74 velocity=0 time=0.012885208333333334
EXTRACT: note_on channel=9 note=40 velocity=100 time=0.06442604166666667
EXTRACT: note_on channel=9 note=90 velocity=123 time=0
EXTRACT: note_on channel=9 note=70 velocity=24 time=0
EXTRACT: note_on channel=3 note=74 velocity=44 time=0.012885208333333334
EXTRACT: note_on channel=3 note=71 velocity=44 time=0
EXTRACT: note_on channel=10 note=63 velocity=110 time=0
EXTRACT: note_on channel=3 note=67 velocity=44 time=0.012885208333333334
EXTRACT: note_on channel=3 note=62 velocity=44 time=0.012885208333333334
EXTRACT: note_off channel=2 note=31 velocity=0 time=0.025770416666666667
EXTRACT: note_off channel=3 note=74 velocity=0 time=0
EXTRACT: note_off channel=9 note=70 velocity=0 time=0
EXTRACT: note_off channel=9 note=90 velocity=0 time=0
EXTRACT: note_off channel=9 note=40 velocity=0 time=0
EXTRACT: note_off channel=3 note=71 velocity=0 time=0.012885208333333334
EXTRACT: note_off channel=3 note=67 velocity=0 time=0.012885208333333334
EXTRACT: note_off channel=3 note=62 velocity=0 time=0.012885208333333334
EXTRACT: note_off channel=10 note=63 velocity=0 time=0.038655625
EXTRACT: note_on channel=2 note=31 velocity=125 time=0.012885208333333334
EXTRACT: note_on channel=9 note=36 velocity=110 time=0
EXTRACT: note_on channel=9 note=70 velocity=64 time=0
EXTRACT: note_on channel=4 note=62 velocity=113 time=0.012885208333333334
EXTRACT: note_on channel=10 note=62 velocity=127 time=0
EXTRACT: note_off channel=4 note=62 velocity=0 time=0.038655625
EXTRACT: note_off channel=9 note=70 velocity=0 time=0.012885208333333334
EXTRACT: note_off channel=9 note=36 velocity=0 time=0
EXTRACT: note_on channel=9 note=40 velocity=40 time=0.012885208333333334
EXTRACT: note_off channel=9 note=40 velocity=0 time=0.012885208333333334
EXTRACT: note_on channel=9 note=40 velocity=60 time=0.025770416666666667
EXTRACT: note_off channel=9 note=40 velocity=0 time=0.012885208333333334
EXTRACT: note_on channel=9 note=40 velocity=100 time=0.025770416666666667
EXTRACT: note_on channel=9 note=90 velocity=127 time=0
EXTRACT: note_on channel=3 note=62 velocity=83 time=0.012885208333333334
EXTRACT: note_on channel=3 note=67 velocity=83 time=0
EXTRACT: note_on channel=9 note=44 velocity=71 time=0
EXTRACT: note_on channel=9 note=70 velocity=110 time=0
EXTRACT: note_on channel=3 note=71 velocity=83 time=0.012885208333333334
EXTRACT: note_on channel=3 note=74 velocity=83 time=0.012885208333333334
EXTRACT: note_off channel=3 note=67 velocity=0 time=0.025770416666666667
EXTRACT: note_off channel=3 note=62 velocity=0 time=0
EXTRACT: note_off channel=9 note=70 velocity=0 time=0
EXTRACT: note_off channel=9 note=44 velocity=0 time=0
EXTRACT: note_off channel=3 note=71 velocity=0 time=0.012885208333333334
EXTRACT: note_off channel=3 note=74 velocity=0 time=0.025770416666666667
EXTRACT: note_off channel=10 note=62 velocity=0 time=0.025770416666666667
EXTRACT: note_off channel=9 note=90 velocity=0 time=0.012885208333333334
EXTRACT: note_off channel=9 note=40 velocity=0 time=0
EXTRACT: note_on channel=3 note=74 velocity=44 time=0.012885208333333334
EXTRACT: note_on channel=9 note=47 velocity=110 time=0
EXTRACT: note_on channel=9 note=70 velocity=10 time=0
EXTRACT: note_on channel=3 note=71 velocity=44 time=0.012885208333333334
EXTRACT: note_on channel=10 note=60 velocity=115 time=0
EXTRACT: note_on channel=3 note=67 velocity=44 time=0.012885208333333334
EXTRACT: note_on channel=3 note=62 velocity=44 time=0
EXTRACT: note_off channel=3 note=74 velocity=0 time=0.038655625
EXTRACT: note_off channel=9 note=70 velocity=0 time=0
EXTRACT: note_off channel=9 note=47 velocity=0 time=0
EXTRACT: note_off channel=3 note=71 velocity=0 time=0.012885208333333334
EXTRACT: note_off channel=3 note=62 velocity=0 time=0.012885208333333334
EXTRACT: note_off channel=3 note=67 velocity=0 time=0
EXTRACT: note_off channel=2 note=31 velocity=0 time=0.012885208333333334
EXTRACT: note_on channel=2 note=31 velocity=125 time=0.051540833333333334
EXTRACT: note_on channel=9 note=45 velocity=110 time=0
EXTRACT: note_on channel=9 note=70 velocity=22 time=0
EXTRACT: note_on channel=4 note=62 velocity=96 time=0.012885208333333334
EXTRACT: note_off channel=4 note=62 velocity=0 time=0.025770416666666667
EXTRACT: note_off channel=9 note=70 velocity=0 time=0.025770416666666667
EXTRACT: note_off channel=9 note=45 velocity=0 time=0
EXTRACT: note_on channel=9 note=36 velocity=91 time=0.09019645833333334
EXTRACT: note_on channel=9 note=55 velocity=85 time=0
EXTRACT: note_on channel=9 note=70 velocity=67 time=0
EXTRACT: note_off channel=2 note=31 velocity=0 time=0.012885208333333334
EXTRACT: control_change channel=3 control=64 value=0 time=0
EXTRACT: note_off channel=4 note=62 velocity=0 time=0
EXTRACT: note_off channel=4 note=67 velocity=0 time=0
EXTRACT: note_on channel=4 note=62 velocity=81 time=0
EXTRACT: note_off channel=4 note=62 velocity=0 time=0.0016106510416666667
EXTRACT: note_on channel=4 note=60 velocity=127 time=0.011274557291666668
EXTRACT: note_on channel=4 note=65 velocity=127 time=0
EXTRACT: control_change channel=3 control=64 value=127 time=0.012885208333333334
EXTRACT: note_off channel=9 note=70 velocity=0 time=0.025770416666666667
EXTRACT: note_off channel=9 note=55 velocity=0 time=0
EXTRACT: note_off channel=9 note=36 velocity=0 time=0
EXTRACT: control_change channel=3 control=64 value=0 time=0.07731125
EXTRACT: note_off channel=4 note=65 velocity=0 time=0
EXTRACT: note_off channel=4 note=60 velocity=0 time=0
EXTRACT: control_change channel=4 control=0 value=0 time=0
EXTRACT: control_change channel=4 control=0 value=0 time=0
EXTRACT: control_change channel=4 control=32 value=0 time=0
EXTRACT: control_change channel=4 control=0 value=0 time=0
EXTRACT: control_change channel=4 control=32 value=0 time=0
EXTRACT: program_change channel=4 program=50 time=0
EXTRACT: program_change channel=9 program=0 time=0.025770416666666667
EXTRACT: note_on channel=9 note=49 velocity=90 time=0
EXTRACT: note_on channel=4 note=60 velocity=127 time=0.012885208333333334
EXTRACT: note_on channel=4 note=65 velocity=127 time=0
EXTRACT: note_off channel=9 note=49 velocity=0 time=0
EXTRACT: program_change channel=9 program=32 time=0
EXTRACT: note_on channel=2 note=29 velocity=127 time=0.012885208333333334
EXTRACT: note_on channel=9 note=36 velocity=127 time=0
EXTRACT: note_on channel=9 note=44 velocity=69 time=0
EXTRACT: note_on channel=9 note=42 velocity=69 time=0
EXTRACT: note_on channel=9 note=70 velocity=40 time=0
EXTRACT: control_change channel=3 control=64 value=127 time=0.012885208333333334
EXTRACT: note_on channel=3 note=60 velocity=81 time=0
EXTRACT: note_on channel=9 note=54 velocity=127 time=0
EXTRACT: note_off channel=3 note=60 velocity=0 time=0.012885208333333334
EXTRACT: note_on channel=3 note=65 velocity=81 time=0
EXTRACT: note_on channel=3 note=68 velocity=81 time=0
EXTRACT: note_off channel=9 note=54 velocity=0 time=0
EXTRACT: note_off channel=9 note=70 velocity=0 time=0
EXTRACT: note_off channel=3 note=65 velocity=0 time=0.012885208333333334
EXTRACT: note_on channel=3 note=72 velocity=81 time=0
EXTRACT: note_off channel=3 note=72 velocity=0 time=0.012885208333333334
EXTRACT: note_off channel=3 note=68 velocity=0 time=0
EXTRACT: note_off channel=9 note=42 velocity=0 time=0.051540833333333334
EXTRACT: note_off channel=9 note=44 velocity=0 time=0
EXTRACT: note_off channel=9 note=36 velocity=0 time=0
EXTRACT: note_on channel=3 note=72 velocity=54 time=0.012885208333333334
EXTRACT: note_on channel=9 note=70 velocity=64 time=0
EXTRACT: note_on channel=9 note=54 velocity=71 time=0
EXTRACT: note_on channel=3 note=68 velocity=54 time=0.012885208333333334
EXTRACT: note_on channel=3 note=65 velocity=54 time=0.012885208333333334
EXTRACT: note_off channel=10 note=60 velocity=0 time=0
EXTRACT: note_on channel=3 note=60 velocity=50 time=0.012885208333333334
EXTRACT: note_off channel=3 note=72 velocity=0 time=0.025770416666666667
EXTRACT: note_off channel=9 note=54 velocity=0 time=0
EXTRACT: note_off channel=9 note=70 velocity=0 time=0
EXTRACT: note_off channel=3 note=68 velocity=0 time=0.012885208333333334
EXTRACT: note_off channel=3 note=65 velocity=0 time=0.012885208333333334
EXTRACT: note_off channel=3 note=60 velocity=0 time=0.012885208333333334
EXTRACT: note_on channel=3 note=60 velocity=52 time=0.051540833333333334
EXTRACT: note_on channel=9 note=42 velocity=36 time=0
EXTRACT: note_on channel=9 note=70 velocity=113 time=0
EXTRACT: note_on channel=3 note=65 velocity=52 time=0.012885208333333334
EXTRACT: note_on channel=3 note=68 velocity=52 time=0
EXTRACT: note_on channel=9 note=54 velocity=117 time=0
EXTRACT: note_on channel=10 note=65 velocity=115 time=0
EXTRACT: note_on channel=3 note=72 velocity=52 time=0.012885208333333334
EXTRACT: note_off channel=3 note=60 velocity=0 time=0.038655625
EXTRACT: note_off channel=9 note=54 velocity=0 time=0
EXTRACT: note_off channel=9 note=70 velocity=0 time=0
EXTRACT: note_off channel=9 note=42 velocity=0 time=0
EXTRACT: note_off channel=3 note=68 velocity=0 time=0.012885208333333334
EXTRACT: note_off channel=3 note=65 velocity=0 time=0
EXTRACT: note_off channel=3 note=72 velocity=0 time=0.012885208333333334
EXTRACT: note_off channel=10 note=65 velocity=0 time=0.012885208333333334
EXTRACT: note_off channel=2 note=29 velocity=0 time=0.025770416666666667
EXTRACT: note_on channel=9 note=36 velocity=99 time=0.025770416666666667
EXTRACT: note_on channel=9 note=70 velocity=60 time=0
EXTRACT: note_on channel=10 note=65 velocity=98 time=0
EXTRACT: note_on channel=2 note=29 velocity=125 time=0.012885208333333334
EXTRACT: note_on channel=3 note=72 velocity=50 time=0
EXTRACT: note_on channel=9 note=54 velocity=69 time=0
EXTRACT: note_on channel=3 note=68 velocity=50 time=0.012885208333333334
EXTRACT: note_on channel=3 note=65 velocity=50 time=0
EXTRACT: note_on channel=3 note=60 velocity=50 time=0
EXTRACT: control_change channel=3 control=64 value=0 time=0.012885208333333334
EXTRACT: note_off channel=3 note=72 velocity=0 time=0.025770416666666667
EXTRACT: note_off channel=9 note=54 velocity=0 time=0
EXTRACT: note_off channel=9 note=70 velocity=0 time=0
EXTRACT: note_off channel=9 note=36 velocity=0 time=0
EXTRACT: note_off channel=3 note=65 velocity=0 time=0.012885208333333334
EXTRACT: note_off channel=3 note=68 velocity=0 time=0
EXTRACT: note_off channel=3 note=60 velocity=0 time=0.012885208333333334
EXTRACT: control_change channel=3 control=64 value=127 time=0
EXTRACT: note_off channel=10 note=65 velocity=0 time=0
EXTRACT: note_on channel=9 note=40 velocity=100 time=0.06442604166666667
EXTRACT: note_on channel=9 note=90 velocity=127 time=0.012885208333333334
EXTRACT: note_on channel=9 note=44 velocity=71 time=0
EXTRACT: note_on channel=9 note=42 velocity=71 time=0
EXTRACT: note_on channel=9 note=70 velocity=40 time=0
EXTRACT: note_on channel=9 note=54 velocity=127 time=0
EXTRACT: note_on channel=10 note=65 velocity=92 time=0
EXTRACT: note_on channel=3 note=60 velocity=75 time=0.012885208333333334
EXTRACT: note_on channel=3 note=65 velocity=75 time=0
EXTRACT: note_on channel=3 note=68 velocity=75 time=0.012885208333333334
EXTRACT: note_on channel=3 note=72 velocity=75 time=0
EXTRACT: note_off channel=3 note=60 velocity=0 time=0.025770416666666667
EXTRACT: note_off channel=9 note=54 velocity=0 time=0
EXTRACT: note_off channel=9 note=70 velocity=0 time=0
EXTRACT: note_off channel=9 note=42 velocity=0 time=0
EXTRACT: note_off channel=9 note=44 velocity=0 time=0
EXTRACT: note_off channel=3 note=65 velocity=0 time=0.012885208333333334
EXTRACT: note_off channel=10 note=65 velocity=0 time=0
EXTRACT: note_off channel=3 note=72 velocity=0 time=0.012885208333333334
EXTRACT: note_off channel=3 note=68 velocity=0 time=0
EXTRACT: note_off channel=2 note=29 velocity=0 time=0.051540833333333334
EXTRACT: note_off channel=9 note=90 velocity=0 time=0
EXTRACT: note_off channel=9 note=40 velocity=0 time=0
EXTRACT: note_on channel=10 note=65 velocity=87 time=0
EXTRACT: note_on channel=3 note=72 velocity=54 time=0.012885208333333334
EXTRACT: note_on channel=9 note=70 velocity=65 time=0
EXTRACT: note_on channel=9 note=54 velocity=64 time=0
EXTRACT: note_on channel=3 note=68 velocity=54 time=0.012885208333333334
EXTRACT: note_on channel=3 note=65 velocity=54 time=0.012885208333333334
EXTRACT: note_on channel=3 note=60 velocity=54 time=0.012885208333333334
EXTRACT: note_off channel=3 note=72 velocity=0 time=0.025770416666666667
EXTRACT: note_off channel=9 note=54 velocity=0 time=0
EXTRACT: note_off channel=9 note=70 velocity=0 time=0
EXTRACT: note_off channel=3 note=68 velocity=0 time=0.012885208333333334
EXTRACT: note_off channel=10 note=65 velocity=0 time=0
EXTRACT: note_off channel=3 note=65 velocity=0 time=0.012885208333333334
EXTRACT: note_off channel=3 note=60 velocity=0 time=0.012885208333333334
EXTRACT: note_on channel=10 note=65 velocity=98 time=0.038655625
EXTRACT: note_on channel=3 note=60 velocity=50 time=0.012885208333333334
EXTRACT: note_on channel=9 note=42 velocity=40 time=0
EXTRACT: note_on channel=9 note=70 velocity=110 time=0
EXTRACT: note_on channel=3 note=65 velocity=50 time=0.012885208333333334
EXTRACT: note_on channel=9 note=54 velocity=111 time=0
EXTRACT: note_on channel=3 note=68 velocity=50 time=0.012885208333333334
EXTRACT: note_on channel=3 note=72 velocity=50 time=0
EXTRACT: note_off channel=3 note=60 velocity=0 time=0.038655625
EXTRACT: note_off channel=9 note=54 velocity=0 time=0
EXTRACT: note_off channel=9 note=70 velocity=0 time=0
EXTRACT: note_off channel=9 note=42 velocity=0 time=0
EXTRACT: note_off channel=10 note=65 velocity=0 time=0
EXTRACT: note_off channel=3 note=68 velocity=0 time=0.012885208333333334
EXTRACT: note_off channel=3 note=65 velocity=0 time=0
EXTRACT: note_off channel=3 note=72 velocity=0 time=0.012885208333333334
EXTRACT: note_on channel=10 note=65 velocity=92 time=0.038655625
EXTRACT: note_on channel=9 note=70 velocity=64 time=0.025770416666666667
EXTRACT: note_on channel=9 note=54 velocity=58 time=0
EXTRACT: note_on channel=3 note=72 velocity=69 time=0.012885208333333334
EXTRACT: note_on channel=3 note=68 velocity=69 time=0.012885208333333334
EXTRACT: note_on channel=3 note=65 velocity=69 time=0
EXTRACT: note_on channel=3 note=60 velocity=69 time=0
EXTRACT: control_change channel=3 control=64 value=0 time=0.012885208333333334
EXTRACT: note_off channel=3 note=60 velocity=0 time=0.012885208333333334
EXTRACT: note_off channel=3 note=65 velocity=0 time=0
EXTRACT: note_off channel=3 note=68 velocity=0 time=0
EXTRACT: note_off channel=3 note=72 velocity=0 time=0
EXTRACT: note_off channel=4 note=65 velocity=0 time=0
EXTRACT: note_off channel=4 note=60 velocity=0 time=0
EXTRACT: note_on channel=4 note=62 velocity=127 time=0.012885208333333334
EXTRACT: note_on channel=4 note=67 velocity=127 time=0
EXTRACT: note_off channel=10 note=65 velocity=0 time=0
EXTRACT: note_off channel=9 note=54 velocity=0 time=0.012885208333333334
EXTRACT: note_off channel=9 note=70 velocity=0 time=0
EXTRACT: control_change channel=3 control=64 value=127 time=0.012885208333333334
EXTRACT: note_on channel=10 note=65 velocity=87 time=0.038655625
EXTRACT: note_on channel=2 note=31 velocity=110 time=0.025770416666666667
EXTRACT: note_on channel=9 note=42 velocity=69 time=0
EXTRACT: note_on channel=3 note=62 velocity=56 time=0.012885208333333334
EXTRACT: note_on channel=3 note=67 velocity=56 time=0
EXTRACT: note_on channel=9 note=44 velocity=69 time=0
EXTRACT: note_on channel=9 note=70 velocity=40 time=0
EXTRACT: note_on channel=9 note=54 velocity=127 time=0
EXTRACT: note_on channel=9 note=36 velocity=110 time=0
EXTRACT: note_on channel=3 note=71 velocity=56 time=0.012885208333333334
EXTRACT: note_on channel=3 note=74 velocity=52 time=0.012885208333333334
EXTRACT: note_off channel=3 note=67 velocity=0 time=0.025770416666666667
EXTRACT: note_off channel=3 note=62 velocity=0 time=0
EXTRACT: note_off channel=9 note=36 velocity=0 time=0
EXTRACT: note_off channel=9 note=54 velocity=0 time=0
EXTRACT: note_off channel=9 note=70 velocity=0 time=0
EXTRACT: note_off channel=9 note=44 velocity=0 time=0
EXTRACT: note_off channel=9 note=42 velocity=0 time=0
EXTRACT: note_off channel=3 note=71 velocity=0 time=0.012885208333333334
EXTRACT: note_off channel=10 note=65 velocity=0 time=0
EXTRACT: note_off channel=3 note=74 velocity=0 time=0.025770416666666667
EXTRACT: note_on channel=10 note=65 velocity=92 time=0.038655625
EXTRACT: note_on channel=3 note=62 velocity=52 time=0.012885208333333334
EXTRACT: note_on channel=9 note=70 velocity=64 time=0
EXTRACT: note_on channel=9 note=54 velocity=56 time=0
EXTRACT: note_on channel=3 note=67 velocity=52 time=0.012885208333333334
EXTRACT: note_on channel=3 note=71 velocity=52 time=0
EXTRACT: note_on channel=3 note=74 velocity=52 time=0.012885208333333334
EXTRACT: note_off channel=3 note=62 velocity=0 time=0.038655625
EXTRACT: note_off channel=9 note=54 velocity=0 time=0
EXTRACT: note_off channel=9 note=70 velocity=0 time=0
EXTRACT: note_off channel=10 note=65 velocity=0 time=0
EXTRACT: note_off channel=3 note=71 velocity=0 time=0.012885208333333334
EXTRACT: note_off channel=3 note=67 velocity=0 time=0
EXTRACT: note_off channel=3 note=74 velocity=0 time=0.012885208333333334
EXTRACT: note_on channel=10 note=65 velocity=92 time=0.051540833333333334
EXTRACT: note_on channel=3 note=74 velocity=52 time=0.012885208333333334
EXTRACT: note_on channel=9 note=42 velocity=38 time=0
EXTRACT: note_on channel=9 note=70 velocity=110 time=0
EXTRACT: note_on channel=3 note=71 velocity=52 time=0.012885208333333334
EXTRACT: note_on channel=9 note=54 velocity=99 time=0
EXTRACT: note_on channel=3 note=67 velocity=52 time=0.012885208333333334
EXTRACT: note_on channel=3 note=62 velocity=52 time=0.012885208333333334
EXTRACT: note_off channel=2 note=31 velocity=0 time=0.025770416666666667
EXTRACT: note_off channel=3 note=74 velocity=0 time=0
EXTRACT: note_off channel=9 note=54 velocity=0 time=0
EXTRACT: note_off channel=9 note=70 velocity=0 time=0
EXTRACT: note_off channel=9 note=42 velocity=0 time=0
EXTRACT: note_off channel=10 note=65 velocity=0 time=0
EXTRACT: note_off channel=3 note=71 velocity=0 time=0.012885208333333334
EXTRACT: note_off channel=3 note=67 velocity=0 time=0.012885208333333334
EXTRACT: note_off channel=3 note=62 velocity=0 time=0.012885208333333334
EXTRACT: note_on channel=10 note=65 velocity=98 time=0.038655625
EXTRACT: note_on channel=2 note=31 velocity=125 time=0.012885208333333334
EXTRACT: note_on channel=9 note=70 velocity=64 time=0
EXTRACT: note_on channel=9 note=54 velocity=52 time=0
EXTRACT: note_on channel=3 note=74 velocity=54 time=0.012885208333333334
EXTRACT: note_on channel=3 note=71 velocity=54 time=0
EXTRACT: note_on channel=9 note=36 velocity=123 time=0
EXTRACT: note_on channel=3 note=67 velocity=54 time=0.012885208333333334
EXTRACT: note_on channel=3 note=62 velocity=54 time=0
EXTRACT: control_change channel=3 control=64 value=0 time=0.025770416666666667
EXTRACT: note_off channel=3 note=74 velocity=0 time=0.012885208333333334
EXTRACT: note_off channel=9 note=36 velocity=0 time=0
EXTRACT: note_off channel=9 note=54 velocity=0 time=0
EXTRACT: note_off channel=9 note=70 velocity=0 time=0
EXTRACT: note_off channel=10 note=65 velocity=0 time=0
EXTRACT: note_off channel=3 note=71 velocity=0 time=0.012885208333333334
EXTRACT: note_off channel=3 note=62 velocity=0 time=0.012885208333333334
EXTRACT: note_off channel=3 note=67 velocity=0 time=0
EXTRACT: control_change channel=3 control=64 value=127 time=0.012885208333333334
EXTRACT: note_on channel=10 note=65 velocity=87 time=0.038655625
EXTRACT: note_on channel=9 note=40 velocity=100 time=0.012885208333333334
EXTRACT: note_on channel=3 note=62 velocity=73 time=0.012885208333333334
EXTRACT: note_on channel=9 note=90 velocity=127 time=0
EXTRACT: note_on channel=9 note=44 velocity=71 time=0
EXTRACT: note_on channel=9 note=42 velocity=71 time=0
EXTRACT: note_on channel=9 note=70 velocity=40 time=0
EXTRACT: note_on channel=9 note=54 velocity=127 time=0
EXTRACT: note_on channel=3 note=67 velocity=73 time=0.012885208333333334
EXTRACT: note_on channel=3 note=71 velocity=73 time=0
EXTRACT: note_on channel=3 note=74 velocity=73 time=0.012885208333333334
EXTRACT: note_off channel=3 note=62 velocity=0 time=0.025770416666666667
EXTRACT: note_off channel=9 note=54 velocity=0 time=0
EXTRACT: note_off channel=9 note=70 velocity=0 time=0
EXTRACT: note_off channel=9 note=42 velocity=0 time=0
EXTRACT: note_off channel=9 note=44 velocity=0 time=0
EXTRACT: note_off channel=3 note=67 velocity=0 time=0.012885208333333334
EXTRACT: note_off channel=3 note=74 velocity=0 time=0.012885208333333334
EXTRACT: note_off channel=3 note=71 velocity=0 time=0
EXTRACT: note_off channel=10 note=65 velocity=0 time=0.038655625
EXTRACT: note_off channel=9 note=90 velocity=0 time=0.012885208333333334
EXTRACT: note_off channel=9 note=40 velocity=0 time=0
EXTRACT: note_on channel=3 note=74 velocity=50 time=0.012885208333333334
EXTRACT: note_on channel=9 note=70 velocity=60 time=0
EXTRACT: note_on channel=9 note=54 velocity=64 time=0
EXTRACT: note_on channel=3 note=71 velocity=50 time=0.012885208333333334
EXTRACT: note_on channel=10 note=63 velocity=122 time=0
EXTRACT: note_on channel=3 note=67 velocity=50 time=0.012885208333333334
EXTRACT: note_on channel=3 note=62 velocity=52 time=0.012885208333333334
EXTRACT: note_off channel=3 note=74 velocity=0 time=0.025770416666666667
EXTRACT: note_off channel=9 note=54 velocity=0 time=0
EXTRACT: note_off channel=9 note=70 velocity=0 time=0
EXTRACT: note_off channel=3 note=71 velocity=0 time=0.012885208333333334
EXTRACT: note_off channel=3 note=67 velocity=0 time=0.012885208333333334
EXTRACT: note_off channel=10 note=63 velocity=0 time=0
EXTRACT: note_off channel=2 note=31 velocity=0 time=0.012885208333333334
EXTRACT: note_off channel=3 note=62 velocity=0 time=0
EXTRACT: note_on channel=10 note=63 velocity=96 time=0.038655625
EXTRACT: note_on channel=2 note=31 velocity=125 time=0.012885208333333334
EXTRACT: note_on channel=9 note=42 velocity=42 time=0
EXTRACT: note_on channel=3 note=62 velocity=52 time=0.012885208333333334
EXTRACT: note_on channel=9 note=70 velocity=107 time=0
EXTRACT: note_on channel=9 note=36 velocity=119 time=0
EXTRACT: note_on channel=9 note=54 velocity=101 time=0
EXTRACT: note_off channel=2 note=31 velocity=0 time=0.012885208333333334
EXTRACT: note_off channel=3 note=62 velocity=0 time=0
EXTRACT: note_on channel=3 note=67 velocity=52 time=0
EXTRACT: note_on channel=3 note=70 velocity=52 time=0
EXTRACT: control_change channel=3 control=64 value=0 time=0
EXTRACT: note_on channel=2 note=36 velocity=125 time=0.012885208333333334
EXTRACT: note_off channel=3 note=70 velocity=0 time=0
EXTRACT: note_off channel=3 note=67 velocity=0 time=0
EXTRACT: note_off channel=4 note=67 velocity=0 time=0
EXTRACT: note_off channel=4 note=62 velocity=0 time=0
EXTRACT: control_change channel=3 control=64 value=127 time=0.012885208333333334
EXTRACT: note_on channel=4 note=60 velocity=127 time=0
EXTRACT: note_on channel=4 note=63 velocity=127 time=0
EXTRACT: note_on channel=3 note=72 velocity=52 time=0.012885208333333334
EXTRACT: note_off channel=9 note=54 velocity=0 time=0
EXTRACT: note_off channel=9 note=36 velocity=0 time=0
EXTRACT: note_off channel=9 note=70 velocity=0 time=0
EXTRACT: note_off channel=9 note=42 velocity=0 time=0
EXTRACT: note_off channel=10 note=63 velocity=0 time=0.012885208333333334
EXTRACT: note_off channel=3 note=72 velocity=0 time=0.012885208333333334
EXTRACT: note_on channel=10 note=63 velocity=93 time=0.038655625
EXTRACT: note_on channel=3 note=72 velocity=52 time=0.025770416666666667
EXTRACT: note_on channel=9 note=70 velocity=67 time=0
EXTRACT: note_on channel=9 note=54 velocity=58 time=0
EXTRACT: note_on channel=3 note=67 velocity=52 time=0.012885208333333334
EXTRACT: note_on channel=3 note=63 velocity=52 time=0
EXTRACT: note_on channel=3 note=60 velocity=52 time=0.012885208333333334
EXTRACT: control_change channel=3 control=64 value=0 time=0.025770416666666667
EXTRACT: note_off channel=3 note=72 velocity=0 time=0.012885208333333334
EXTRACT: note_off channel=9 note=54 velocity=0 time=0
EXTRACT: note_off channel=9 note=70 velocity=0 time=0
EXTRACT: note_off channel=3 note=63 velocity=0 time=0.012885208333333334
EXTRACT: note_off channel=3 note=67 velocity=0 time=0
EXTRACT: note_off channel=3 note=60 velocity=0 time=0.012885208333333334
EXTRACT: control_change channel=3 control=64 value=127 time=0
EXTRACT: note_off channel=2 note=36 velocity=0 time=0.025770416666666667
EXTRACT: note_off channel=10 note=63 velocity=0 time=0.012885208333333334
EXTRACT: note_on channel=10 note=48 velocity=127 time=0
EXTRACT: note_on channel=9 note=42 velocity=69 time=0.025770416666666667
EXTRACT: note_on channel=2 note=36 velocity=121 time=0.012885208333333334
EXTRACT: control_change channel=3 control=64 value=127 time=0
EXTRACT: note_on channel=9 note=44 velocity=69 time=0
EXTRACT: note_on channel=9 note=70 velocity=40 time=0
EXTRACT: note_on channel=9 note=54 velocity=127 time=0
EXTRACT: note_on channel=9 note=36 velocity=125 time=0
EXTRACT: note_on channel=3 note=60 velocity=81 time=0.012885208333333334
EXTRACT: note_on channel=3 note=63 velocity=81 time=0
EXTRACT: note_on channel=3 note=67 velocity=81 time=0.012885208333333334
EXTRACT: note_on channel=3 note=72 velocity=81 time=0
EXTRACT: note_off channel=3 note=60 velocity=0 time=0.025770416666666667
EXTRACT: note_off channel=9 note=36 velocity=0 time=0
EXTRACT: note_off channel=9 note=54 velocity=0 time=0
EXTRACT: note_off channel=9 note=70 velocity=0 time=0
EXTRACT: note_off channel=3 note=63 velocity=0 time=0.012885208333333334
EXTRACT: note_off channel=3 note=72 velocity=0 time=0.012885208333333334
EXTRACT: note_off channel=3 note=67 velocity=0 time=0
EXTRACT: note_off channel=9 note=44 velocity=0 time=0.051540833333333334
EXTRACT: note_off channel=9 note=42 velocity=0 time=0
EXTRACT: note_on channel=3 note=72 velocity=54 time=0.012885208333333334
EXTRACT: note_on channel=9 note=70 velocity=64 time=0
EXTRACT: note_on channel=9 note=54 velocity=71 time=0
EXTRACT: note_on channel=3 note=67 velocity=54 time=0.012885208333333334
EXTRACT: note_on channel=3 note=63 velocity=54 time=0.012885208333333334
EXTRACT: note_on channel=3 note=60 velocity=50 time=0.012885208333333334
EXTRACT: note_off channel=3 note=72 velocity=0 time=0.025770416666666667
EXTRACT: note_off channel=9 note=54 velocity=0 time=0
EXTRACT: note_off channel=9 note=70 velocity=0 time=0
EXTRACT: note_off channel=10 note=48 velocity=0 time=0
EXTRACT: note_off channel=3 note=67 velocity=0 time=0.012885208333333334
EXTRACT: note_off channel=3 note=63 velocity=0 time=0.012885208333333334
EXTRACT: note_off channel=3 note=60 velocity=0 time=0.012885208333333334
EXTRACT: note_on channel=3 note=60 velocity=52 time=0.051540833333333334
EXTRACT: note_on channel=9 note=42 velocity=36 time=0
EXTRACT: note_on channel=9 note=70 velocity=113 time=0
EXTRACT: note_on channel=3 note=63 velocity=52 time=0.012885208333333334
EXTRACT: note_on channel=9 note=54 velocity=117 time=0
EXTRACT: note_on channel=10 note=48 velocity=127 time=0
EXTRACT: note_on channel=3 note=67 velocity=52 time=0.012885208333333334
EXTRACT: note_on channel=3 note=72 velocity=52 time=0
EXTRACT: note_off channel=3 note=60 velocity=0 time=0.038655625
EXTRACT: note_off channel=9 note=54 velocity=0 time=0
EXTRACT: note_off channel=9 note=70 velocity=0 time=0
EXTRACT: note_off channel=9 note=42 velocity=0 time=0
EXTRACT: note_off channel=3 note=67 velocity=0 time=0.012885208333333334
EXTRACT: note_off channel=3 note=63 velocity=0 time=0
EXTRACT: note_off channel=3 note=72 velocity=0 time=0.012885208333333334
EXTRACT: note_off channel=2 note=36 velocity=0 time=0.038655625
EXTRACT: note_on channel=9 note=36 velocity=110 time=0.025770416666666667
EXTRACT: note_on channel=9 note=70 velocity=60 time=0
EXTRACT: note_on channel=2 note=36 velocity=125 time=0.012885208333333334
EXTRACT: note_on channel=3 note=72 velocity=50 time=0
EXTRACT: note_on channel=3 note=67 velocity=50 time=0
EXTRACT: note_on channel=9 note=54 velocity=69 time=0
EXTRACT: note_on channel=3 note=63 velocity=50 time=0.012885208333333334
EXTRACT: note_on channel=3 note=60 velocity=50 time=0
EXTRACT: control_change channel=3 control=64 value=0 time=0.012885208333333334
EXTRACT: note_off channel=10 note=48 velocity=0 time=0.012885208333333334
EXTRACT: note_off channel=3 note=72 velocity=0 time=0.012885208333333334
EXTRACT: note_off channel=9 note=54 velocity=0 time=0
EXTRACT: note_off channel=9 note=70 velocity=0 time=0
EXTRACT: note_off channel=9 note=36 velocity=0 time=0
EXTRACT: note_off channel=3 note=63 velocity=0 time=0.012885208333333334
EXTRACT: note_off channel=3 note=67 velocity=0 time=0
EXTRACT: note_off channel=3 note=60 velocity=0 time=0.012885208333333334
EXTRACT: control_change channel=3 control=64 value=127 time=0
EXTRACT: note_on channel=10 note=48 velocity=115 time=0.038655625
EXTRACT: note_on channel=9 note=40 velocity=100 time=0.025770416666666667
EXTRACT: note_on channel=3 note=60 velocity=75 time=0.012885208333333334
EXTRACT: note_on channel=9 note=90 velocity=127 time=0
EXTRACT: note_on channel=9 note=44 velocity=71 time=0
EXTRACT: note_on channel=9 note=42 velocity=71 time=0
EXTRACT: note_on channel=9 note=70 velocity=40 time=0
EXTRACT: note_on channel=9 note=54 velocity=127 time=0
EXTRACT: note_on channel=3 note=63 velocity=75 time=0.012885208333333334
EXTRACT: note_on channel=3 note=67 velocity=75 time=0.012885208333333334
EXTRACT: note_on channel=3 note=72 velocity=75 time=0
EXTRACT: note_off channel=3 note=60 velocity=0 time=0.025770416666666667
EXTRACT: note_off channel=9 note=54 velocity=0 time=0
EXTRACT: note_off channel=9 note=70 velocity=0 time=0
EXTRACT: note_off channel=9 note=42 velocity=0 time=0
EXTRACT: note_off channel=9 note=44 velocity=0 time=0
EXTRACT: note_off channel=3 note=63 velocity=0 time=0.012885208333333334
EXTRACT: note_off channel=3 note=72 velocity=0 time=0.012885208333333334
EXTRACT: note_off channel=3 note=67 velocity=0 time=0
EXTRACT: note_off channel=2 note=36 velocity=0 time=0.051540833333333334
EXTRACT: note_off channel=9 note=90 velocity=0 time=0
EXTRACT: note_off channel=9 note=40 velocity=0 time=0
EXTRACT: note_on channel=3 note=72 velocity=54 time=0.012885208333333334
EXTRACT: note_on channel=9 note=70 velocity=64 time=0
EXTRACT: note_on channel=9 note=54 velocity=64 time=0
EXTRACT: note_on channel=3 note=67 velocity=54 time=0.012885208333333334
EXTRACT: note_on channel=3 note=63 velocity=54 time=0.012885208333333334
EXTRACT: note_on channel=3 note=60 velocity=54 time=0.012885208333333334
EXTRACT: note_off channel=3 note=72 velocity=0 time=0.025770416666666667
EXTRACT: note_off channel=9 note=54 velocity=0 time=0
EXTRACT: note_off channel=9 note=70 velocity=0 time=0
EXTRACT: note_off channel=3 note=67 velocity=0 time=0.012885208333333334
EXTRACT: note_off channel=3 note=63 velocity=0 time=0.012885208333333334
EXTRACT: note_off channel=3 note=60 velocity=0 time=0.012885208333333334
EXTRACT: note_on channel=9 note=42 velocity=40 time=0.051540833333333334
EXTRACT: note_on channel=9 note=70 velocity=110 time=0
EXTRACT: note_on channel=10 note=65 velocity=127 time=0
EXTRACT: note_on channel=3 note=60 velocity=50 time=0.012885208333333334
EXTRACT: note_on channel=9 note=54 velocity=111 time=0
EXTRACT: note_on channel=3 note=63 velocity=50 time=0.012885208333333334
EXTRACT: note_on channel=3 note=67 velocity=50 time=0
EXTRACT: note_on channel=3 note=72 velocity=50 time=0
EXTRACT: note_off channel=10 note=48 velocity=0 time=0.012885208333333334
EXTRACT: note_off channel=3 note=60 velocity=0 time=0.025770416666666667
EXTRACT: note_off channel=9 note=54 velocity=0 time=0
EXTRACT: note_off channel=9 note=70 velocity=0 time=0
EXTRACT: note_off channel=9 note=42 velocity=0 time=0
EXTRACT: note_off channel=10 note=65 velocity=0 time=0
EXTRACT: note_off channel=3 note=67 velocity=0 time=0.012885208333333334
EXTRACT: note_off channel=3 note=63 velocity=0 time=0
EXTRACT: note_off channel=3 note=72 velocity=0 time=0.012885208333333334
EXTRACT: note_on channel=3 note=72 velocity=69 time=0.06442604166666667
EXTRACT: note_on channel=9 note=70 velocity=64 time=0
EXTRACT: note_on channel=9 note=54 velocity=58 time=0
EXTRACT: note_on channel=3 note=67 velocity=69 time=0.012885208333333334
EXTRACT: note_on channel=10 note=65 velocity=97 time=0
EXTRACT: note_on channel=3 note=63 velocity=69 time=0.012885208333333334
EXTRACT: note_on channel=3 note=60 velocity=69 time=0
EXTRACT: control_change channel=3 control=64 value=0 time=0.012885208333333334
EXTRACT: note_off channel=3 note=72 velocity=0 time=0.025770416666666667
EXTRACT: note_off channel=9 note=54 velocity=0 time=0
EXTRACT: note_off channel=9 note=70 velocity=0 time=0
EXTRACT: note_off channel=3 note=63 velocity=0 time=0.012885208333333334
EXTRACT: note_off channel=3 note=67 velocity=0 time=0
EXTRACT: note_off channel=10 note=65 velocity=0 time=0
EXTRACT: note_off channel=3 note=60 velocity=0 time=0.012885208333333334
EXTRACT: control_change channel=3 control=64 value=127 time=0
EXTRACT: note_on channel=9 note=42 velocity=69 time=0.06442604166666667
EXTRACT: note_on channel=2 note=36 velocity=110 time=0.012885208333333334
EXTRACT: note_on channel=9 note=44 velocity=69 time=0
EXTRACT: note_on channel=9 note=36 velocity=110 time=0
EXTRACT: note_on channel=9 note=70 velocity=40 time=0
EXTRACT: note_on channel=9 note=54 velocity=127 time=0
EXTRACT: note_on channel=10 note=65 velocity=97 time=0
EXTRACT: note_on channel=3 note=60 velocity=56 time=0.012885208333333334
EXTRACT: note_on channel=3 note=63 velocity=56 time=0
EXTRACT: note_on channel=3 note=67 velocity=56 time=0
EXTRACT: note_on channel=3 note=72 velocity=52 time=0.012885208333333334
EXTRACT: note_off channel=3 note=63 velocity=0 time=0.025770416666666667
EXTRACT: note_off channel=3 note=60 velocity=0 time=0
EXTRACT: note_off channel=9 note=54 velocity=0 time=0
EXTRACT: note_off channel=9 note=70 velocity=0 time=0
EXTRACT: note_off channel=9 note=36 velocity=0 time=0
EXTRACT: note_off channel=9 note=44 velocity=0 time=0
EXTRACT: note_off channel=9 note=42 velocity=0 time=0
EXTRACT: note_off channel=3 note=67 velocity=0 time=0.012885208333333334
EXTRACT: note_off channel=3 note=72 velocity=0 time=0.025770416666666667
EXTRACT: note_on channel=3 note=60 velocity=52 time=0.051540833333333334
EXTRACT: note_on channel=9 note=70 velocity=64 time=0
EXTRACT: note_on channel=9 note=54 velocity=56 time=0
EXTRACT: note_on channel=3 note=63 velocity=52 time=0.012885208333333334
EXTRACT: note_on channel=3 note=67 velocity=52 time=0
EXTRACT: note_on channel=3 note=72 velocity=52 time=0.012885208333333334
EXTRACT: note_off channel=10 note=65 velocity=0 time=0.025770416666666667
EXTRACT: note_off channel=3 note=60 velocity=0 time=0.012885208333333334
EXTRACT: note_off channel=9 note=54 velocity=0 time=0
EXTRACT: note_off channel=9 note=70 velocity=0 time=0
EXTRACT: note_off channel=3 note=67 velocity=0 time=0.012885208333333334
EXTRACT: note_off channel=3 note=63 velocity=0 time=0
EXTRACT: note_off channel=3 note=72 velocity=0 time=0.012885208333333334
EXTRACT: note_on channel=9 note=36 velocity=110 time=0.06442604166666667
EXTRACT: note_on channel=9 note=42 velocity=38 time=0
EXTRACT: note_on channel=3 note=72 velocity=52 time=0.012885208333333334
EXTRACT: note_on channel=9 note=70 velocity=110 time=0
EXTRACT: note_on channel=9 note=54 velocity=99 time=0
EXTRACT: note_on channel=10 note=65 velocity=127 time=0
EXTRACT: note_on channel=3 note=67 velocity=52 time=0.012885208333333334
EXTRACT: note_on channel=3 note=63 velocity=52 time=0
EXTRACT: note_on channel=3 note=60 velocity=52 time=0.012885208333333334
EXTRACT: note_off channel=3 note=72 velocity=0 time=0.025770416666666667
EXTRACT: note_off channel=9 note=54 velocity=0 time=0
EXTRACT: note_off channel=9 note=70 velocity=0 time=0
EXTRACT: note_off channel=9 note=42 velocity=0 time=0
EXTRACT: note_off channel=9 note=36 velocity=0 time=0
EXTRACT: note_off channel=3 note=67 velocity=0 time=0.012885208333333334
EXTRACT: note_off channel=3 note=63 velocity=0 time=0.012885208333333334
EXTRACT: note_off channel=3 note=60 velocity=0 time=0.012885208333333334
EXTRACT: note_off channel=2 note=36 velocity=0 time=0.038655625
EXTRACT: note_on channel=2 note=31 velocity=110 time=0.012885208333333334
EXTRACT: note_on channel=9 note=70 velocity=64 time=0
EXTRACT: note_off channel=10 note=65 velocity=0 time=0
EXTRACT: note_on channel=3 note=72 velocity=54 time=0.012885208333333334
EXTRACT: note_on channel=3 note=67 velocity=54 time=0
EXTRACT: note_on channel=9 note=54 velocity=52 time=0
EXTRACT: note_on channel=3 note=63 velocity=54 time=0.012885208333333334
EXTRACT: note_on channel=3 note=60 velocity=54 time=0
EXTRACT: control_change channel=3 control=64 value=0 time=0.025770416666666667
EXTRACT: note_off channel=3 note=72 velocity=0 time=0.012885208333333334
EXTRACT: note_off channel=9 note=54 velocity=0 time=0
EXTRACT: note_off channel=9 note=70 velocity=0 time=0
EXTRACT: note_off channel=3 note=67 velocity=0 time=0.012885208333333334
EXTRACT: note_off channel=3 note=60 velocity=0 time=0.012885208333333334
EXTRACT: note_off channel=3 note=63 velocity=0 time=0
EXTRACT: control_change channel=3 control=64 value=127 time=0.012885208333333334
EXTRACT: note_on channel=10 note=65 velocity=106 time=0.025770416666666667
EXTRACT: note_off channel=2 note=31 velocity=0 time=0.012885208333333334
EXTRACT: note_on channel=9 note=40 velocity=100 time=0.012885208333333334
EXTRACT: note_on channel=2 note=34 velocity=110 time=0.012885208333333334
EXTRACT: note_on channel=9 note=90 velocity=127 time=0
EXTRACT: note_on channel=9 note=44 velocity=71 time=0
EXTRACT: note_on channel=9 note=42 velocity=71 time=0
EXTRACT: note_on channel=9 note=70 velocity=40 time=0
EXTRACT: note_on channel=3 note=60 velocity=73 time=0.012885208333333334
EXTRACT: note_on channel=3 note=63 velocity=73 time=0
EXTRACT: note_on channel=9 note=54 velocity=127 time=0
EXTRACT: note_on channel=3 note=67 velocity=73 time=0.012885208333333334
EXTRACT: note_on channel=3 note=72 velocity=73 time=0
EXTRACT: note_off channel=3 note=60 velocity=0 time=0.025770416666666667
EXTRACT: note_off channel=9 note=54 velocity=0 time=0
EXTRACT: note_off channel=9 note=70 velocity=0 time=0
EXTRACT: note_off channel=9 note=42 velocity=0 time=0
EXTRACT: note_off channel=9 note=44 velocity=0 time=0
EXTRACT: note_off channel=3 note=63 velocity=0 time=0.012885208333333334
EXTRACT: note_off channel=3 note=72 velocity=0 time=0.012885208333333334
EXTRACT: note_off channel=3 note=67 velocity=0 time=0
EXTRACT: note_off channel=2 note=34 velocity=0 time=0.051540833333333334
EXTRACT: note_off channel=9 note=90 velocity=0 time=0
EXTRACT: note_off channel=9 note=40 velocity=0 time=0
EXTRACT: note_on channel=10 note=63 velocity=101 time=0
EXTRACT: note_on channel=2 note=36 velocity=110 time=0.012885208333333334
EXTRACT: note_on channel=9 note=70 velocity=73 time=0
EXTRACT: note_on channel=3 note=72 velocity=50 time=0.012885208333333334
EXTRACT: note_on channel=3 note=67 velocity=50 time=0
EXTRACT: note_on channel=9 note=54 velocity=64 time=0
EXTRACT: note_on channel=3 note=63 velocity=50 time=0.012885208333333334
EXTRACT: note_on channel=3 note=60 velocity=52 time=0.012885208333333334
EXTRACT: note_off channel=3 note=72 velocity=0 time=0.025770416666666667
EXTRACT: note_off channel=9 note=54 velocity=0 time=0
EXTRACT: note_off channel=9 note=70 velocity=0 time=0
EXTRACT: note_off channel=10 note=65 velocity=0 time=0
EXTRACT: note_off channel=3 note=67 velocity=0 time=0.012885208333333334
EXTRACT: note_off channel=10 note=63 velocity=0 time=0
EXTRACT: note_off channel=3 note=63 velocity=0 time=0.012885208333333334
EXTRACT: note_off channel=3 note=60 velocity=0 time=0.012885208333333334
EXTRACT: note_on channel=9 note=42 velocity=42 time=0.051540833333333334
EXTRACT: note_on channel=9 note=70 velocity=107 time=0
EXTRACT: note_on channel=3 note=60 velocity=52 time=0.012885208333333334
EXTRACT: note_on channel=9 note=54 velocity=101 time=0
EXTRACT: note_on channel=10 note=63 velocity=93 time=0
EXTRACT: note_on channel=3 note=63 velocity=52 time=0.012885208333333334
EXTRACT: note_on channel=3 note=67 velocity=52 time=0
EXTRACT: note_on channel=3 note=72 velocity=52 time=0
EXTRACT: note_off channel=2 note=36 velocity=0 time=0.038655625
EXTRACT: note_off channel=3 note=72 velocity=0 time=0
EXTRACT: note_off channel=3 note=67 velocity=0 time=0
EXTRACT: note_off channel=3 note=63 velocity=0 time=0
EXTRACT: note_off channel=3 note=60 velocity=0 time=0
EXTRACT: control_change channel=3 control=64 value=0 time=0
EXTRACT: note_off channel=4 note=63 velocity=0 time=0
EXTRACT: note_off channel=4 note=60 velocity=0 time=0
EXTRACT: note_on channel=2 note=29 velocity=110 time=0.012885208333333334
EXTRACT: note_on channel=4 note=60 velocity=127 time=0
EXTRACT: note_on channel=4 note=65 velocity=127 time=0
EXTRACT: control_change channel=3 control=64 value=127 time=0.012885208333333334
EXTRACT: note_off channel=9 note=54 velocity=0 time=0
EXTRACT: note_off channel=9 note=70 velocity=0 time=0
EXTRACT: note_off channel=9 note=42 velocity=0 time=0
EXTRACT: note_on channel=3 note=72 velocity=52 time=0.06442604166666667
EXTRACT: note_on channel=9 note=70 velocity=67 time=0
EXTRACT: note_on channel=9 note=54 velocity=58 time=0
EXTRACT: note_on channel=3 note=68 velocity=52 time=0.012885208333333334
EXTRACT: note_on channel=3 note=65 velocity=52 time=0
EXTRACT: note_on channel=3 note=60 velocity=52 time=0.012885208333333334
EXTRACT: note_on channel=10 note=67 velocity=106 time=0
EXTRACT: control_change channel=3 control=64 value=0 time=0.025770416666666667
EXTRACT: note_off channel=10 note=63 velocity=0 time=0
EXTRACT: note_off channel=3 note=72 velocity=0 time=0.012885208333333334
EXTRACT: note_off channel=9 note=54 velocity=0 time=0
EXTRACT: note_off channel=9 note=70 velocity=0 time=0
EXTRACT: note_off channel=3 note=65 velocity=0 time=0.012885208333333334
EXTRACT: note_off channel=3 note=68 velocity=0 time=0
EXTRACT: note_off channel=3 note=60 velocity=0 time=0.012885208333333334
EXTRACT: control_change channel=3 control=64 value=127 time=0
EXTRACT: note_off channel=2 note=29 velocity=0 time=0.051540833333333334
EXTRACT: note_off channel=10 note=67 velocity=0 time=0
EXTRACT: note_on channel=9 note=36 velocity=127 time=0.012885208333333334
EXTRACT: note_on channel=2 note=29 velocity=127 time=0.012885208333333334
EXTRACT: note_on channel=9 note=44 velocity=69 time=0
EXTRACT: note_on channel=9 note=42 velocity=69 time=0
EXTRACT: note_on channel=9 note=70 velocity=40 time=0
EXTRACT: note_on channel=10 note=53 velocity=115 time=0
EXTRACT: control_change channel=3 control=64 value=127 time=0.012885208333333334
EXTRACT: note_on channel=3 note=60 velocity=81 time=0
EXTRACT: note_on channel=3 note=65 velocity=81 time=0
EXTRACT: note_on channel=9 note=54 velocity=127 time=0
EXTRACT: note_on channel=3 note=68 velocity=81 time=0.012885208333333334
EXTRACT: note_on channel=3 note=72 velocity=81 time=0
EXTRACT: note_off channel=3 note=60 velocity=0 time=0.025770416666666667
EXTRACT: note_off channel=9 note=54 velocity=0 time=0
EXTRACT: note_off channel=9 note=70 velocity=0 time=0
EXTRACT: note_off channel=3 note=65 velocity=0 time=0.012885208333333334
EXTRACT: note_off channel=3 note=72 velocity=0 time=0.012885208333333334
EXTRACT: note_off channel=3 note=68 velocity=0 time=0
EXTRACT: note_off channel=9 note=42 velocity=0 time=0.051540833333333334
EXTRACT: note_off channel=9 note=44 velocity=0 time=0
EXTRACT: note_off channel=9 note=36 velocity=0 time=0
EXTRACT: note_on channel=3 note=72 velocity=54 time=0.012885208333333334
EXTRACT: note_on channel=9 note=70 velocity=69 time=0
EXTRACT: note_on channel=9 note=54 velocity=71 time=0
EXTRACT: note_on channel=3 note=68 velocity=54 time=0.012885208333333334
EXTRACT: note_on channel=10 note=56 velocity=110 time=0
EXTRACT: note_on channel=3 note=65 velocity=54 time=0.012885208333333334
EXTRACT: note_on channel=3 note=60 velocity=50 time=0.012885208333333334
EXTRACT: note_off channel=3 note=72 velocity=0 time=0.025770416666666667
EXTRACT: note_off channel=9 note=54 velocity=0 time=0
EXTRACT: note_off channel=9 note=70 velocity=0 time=0
EXTRACT: note_off channel=3 note=68 velocity=0 time=0.012885208333333334
EXTRACT: note_off channel=3 note=65 velocity=0 time=0.012885208333333334
EXTRACT: note_off channel=3 note=60 velocity=0 time=0.012885208333333334
EXTRACT: note_on channel=3 note=60 velocity=52 time=0.051540833333333334
EXTRACT: note_on channel=9 note=42 velocity=36 time=0
EXTRACT: note_on channel=9 note=70 velocity=113 time=0
EXTRACT: note_on channel=3 note=65 velocity=52 time=0.012885208333333334
EXTRACT: note_on channel=9 note=54 velocity=117 time=0
EXTRACT: note_on channel=10 note=60 velocity=115 time=0
EXTRACT: note_on channel=3 note=68 velocity=52 time=0.012885208333333334
EXTRACT: note_on channel=3 note=72 velocity=52 time=0
EXTRACT: note_off channel=3 note=60 velocity=0 time=0.038655625
EXTRACT: note_off channel=9 note=54 velocity=0 time=0
EXTRACT: note_off channel=9 note=70 velocity=0 time=0
EXTRACT: note_off channel=9 note=42 velocity=0 time=0
EXTRACT: note_off channel=3 note=68 velocity=0 time=0.012885208333333334
EXTRACT: note_off channel=3 note=65 velocity=0 time=0
EXTRACT: note_off channel=3 note=72 velocity=0 time=0.012885208333333334
EXTRACT: note_off channel=2 note=29 velocity=0 time=0.038655625
EXTRACT: note_on channel=9 note=36 velocity=99 time=0.025770416666666667
EXTRACT: note_on channel=9 note=70 velocity=60 time=0
EXTRACT: note_on channel=2 note=29 velocity=125 time=0.012885208333333334
EXTRACT: note_on channel=3 note=72 velocity=50 time=0
EXTRACT: note_on channel=3 note=68 velocity=50 time=0
EXTRACT: note_on channel=9 note=54 velocity=69 time=0
EXTRACT: note_on channel=3 note=65 velocity=50 time=0.012885208333333334
EXTRACT: note_on channel=3 note=60 velocity=50 time=0
EXTRACT: note_on channel=10 note=63 velocity=110 time=0
EXTRACT: control_change channel=3 control=64 value=0 time=0.012885208333333334
EXTRACT: note_off channel=3 note=72 velocity=0 time=0.025770416666666667
EXTRACT: note_off channel=9 note=54 velocity=0 time=0
EXTRACT: note_off channel=9 note=70 velocity=0 time=0
EXTRACT: note_off channel=9 note=36 velocity=0 time=0
EXTRACT: note_off channel=3 note=65 velocity=0 time=0.012885208333333334
EXTRACT: note_off channel=3 note=68 velocity=0 time=0
EXTRACT: note_off channel=3 note=60 velocity=0 time=0.012885208333333334
EXTRACT: control_change channel=3 control=64 value=127 time=0
EXTRACT: note_on channel=9 note=40 velocity=100 time=0.06442604166666667
EXTRACT: note_on channel=9 note=90 velocity=127 time=0.012885208333333334
EXTRACT: note_on channel=9 note=44 velocity=71 time=0
EXTRACT: note_on channel=9 note=42 velocity=71 time=0
EXTRACT: note_on channel=9 note=70 velocity=40 time=0
EXTRACT: note_on channel=9 note=54 velocity=127 time=0
EXTRACT: note_on channel=3 note=60 velocity=75 time=0.012885208333333334
EXTRACT: note_on channel=3 note=65 velocity=75 time=0
EXTRACT: note_on channel=3 note=68 velocity=75 time=0.012885208333333334
EXTRACT: note_on channel=3 note=72 velocity=75 time=0
EXTRACT: note_off channel=3 note=60 velocity=0 time=0.025770416666666667
EXTRACT: note_off channel=9 note=54 velocity=0 time=0
EXTRACT: note_off channel=9 note=70 velocity=0 time=0
EXTRACT: note_off channel=9 note=42 velocity=0 time=0
EXTRACT: note_off channel=9 note=44 velocity=0 time=0
EXTRACT: note_off channel=3 note=65 velocity=0 time=0.012885208333333334
EXTRACT: note_off channel=3 note=72 velocity=0 time=0.012885208333333334
EXTRACT: note_off channel=3 note=68 velocity=0 time=0
EXTRACT: note_off channel=2 note=29 velocity=0 time=0.051540833333333334
EXTRACT: note_off channel=9 note=90 velocity=0 time=0
EXTRACT: note_off channel=9 note=40 velocity=0 time=0
EXTRACT: note_on channel=3 note=72 velocity=54 time=0.012885208333333334
EXTRACT: note_on channel=9 note=70 velocity=65 time=0
EXTRACT: note_on channel=9 note=54 velocity=64 time=0
EXTRACT: note_on channel=3 note=68 velocity=54 time=0.012885208333333334
EXTRACT: note_on channel=3 note=65 velocity=54 time=0.012885208333333334
EXTRACT: note_on channel=3 note=60 velocity=54 time=0.012885208333333334
EXTRACT: note_off channel=3 note=72 velocity=0 time=0.025770416666666667
EXTRACT: note_off channel=9 note=54 velocity=0 time=0
EXTRACT: note_off channel=9 note=70 velocity=0 time=0
EXTRACT: note_off channel=3 note=68 velocity=0 time=0.012885208333333334
EXTRACT: note_off channel=3 note=65 velocity=0 time=0.012885208333333334
EXTRACT: note_off channel=3 note=60 velocity=0 time=0.012885208333333334
EXTRACT: note_on channel=3 note=60 velocity=50 time=0.051540833333333334
EXTRACT: note_on channel=9 note=42 velocity=40 time=0
EXTRACT: note_on channel=9 note=70 velocity=110 time=0
EXTRACT: note_on channel=3 note=65 velocity=50 time=0.012885208333333334
EXTRACT: note_on channel=9 note=54 velocity=111 time=0
EXTRACT: note_on channel=3 note=68 velocity=50 time=0.012885208333333334
EXTRACT: note_on channel=3 note=72 velocity=50 time=0
EXTRACT: note_off channel=3 note=60 velocity=0 time=0.038655625
EXTRACT: note_off channel=9 note=54 velocity=0 time=0
EXTRACT: note_off channel=9 note=70 velocity=0 time=0
EXTRACT: note_off channel=9 note=42 velocity=0 time=0
EXTRACT: note_off channel=10 note=53 velocity=0 time=0
EXTRACT: note_off channel=3 note=68 velocity=0 time=0.012885208333333334
EXTRACT: note_off channel=3 note=65 velocity=0 time=0
EXTRACT: note_off channel=3 note=72 velocity=0 time=0.012885208333333334
EXTRACT: note_on channel=3 note=72 velocity=69 time=0.06442604166666667
EXTRACT: note_on channel=9 note=70 velocity=64 time=0
EXTRACT: note_on channel=9 note=54 velocity=58 time=0
EXTRACT: note_on channel=3 note=68 velocity=69 time=0.012885208333333334
EXTRACT: note_off channel=10 note=56 velocity=0 time=0
EXTRACT: note_on channel=3 note=65 velocity=69 time=0.012885208333333334
EXTRACT: note_off channel=10 note=63 velocity=0 time=0
EXTRACT: note_off channel=10 note=60 velocity=0 time=0
EXTRACT: note_on channel=3 note=60 velocity=69 time=0.012885208333333334
EXTRACT: control_change channel=3 control=64 value=0 time=0
EXTRACT: note_off channel=3 note=72 velocity=0 time=0.025770416666666667
EXTRACT: note_off channel=9 note=54 velocity=0 time=0
EXTRACT: note_off channel=9 note=70 velocity=0 time=0
EXTRACT: note_off channel=3 note=65 velocity=0 time=0.012885208333333334
EXTRACT: note_off channel=3 note=68 velocity=0 time=0
EXTRACT: note_off channel=3 note=60 velocity=0 time=0.012885208333333334
EXTRACT: control_change channel=3 control=64 value=127 time=0
EXTRACT: note_on channel=9 note=42 velocity=69 time=0.06442604166666667
EXTRACT: note_on channel=2 note=29 velocity=110 time=0.012885208333333334
EXTRACT: note_on channel=9 note=44 velocity=69 time=0
EXTRACT: note_on channel=9 note=70 velocity=40 time=0
EXTRACT: note_on channel=10 note=62 velocity=113 time=0
EXTRACT: note_on channel=10 note=67 velocity=55 time=0
EXTRACT: note_on channel=3 note=60 velocity=56 time=0.012885208333333334
EXTRACT: note_on channel=3 note=65 velocity=56 time=0
EXTRACT: note_on channel=9 note=54 velocity=127 time=0
EXTRACT: note_on channel=9 note=36 velocity=110 time=0
EXTRACT: note_off channel=2 note=29 velocity=0 time=0.012885208333333334
EXTRACT: note_off channel=3 note=65 velocity=0 time=0
EXTRACT: note_off channel=3 note=60 velocity=0 time=0
EXTRACT: note_on channel=3 note=69 velocity=56 time=0
EXTRACT: control_change channel=3 control=64 value=0 time=0
EXTRACT: note_off channel=4 note=60 velocity=0 time=0
EXTRACT: note_off channel=3 note=69 velocity=0 time=0.0016106510416666667
EXTRACT: note_on channel=2 note=31 velocity=110 time=0.011274557291666668
EXTRACT: note_off channel=4 note=65 velocity=0 time=0
EXTRACT: note_on channel=4 note=62 velocity=127 time=0
EXTRACT: note_on channel=4 note=67 velocity=127 time=0
EXTRACT: control_change channel=3 control=64 value=127 time=0.012885208333333334
EXTRACT: note_off channel=9 note=54 velocity=0 time=0
EXTRACT: note_off channel=9 note=70 velocity=0 time=0
EXTRACT: note_off channel=9 note=44 velocity=0 time=0
EXTRACT: note_off channel=9 note=42 velocity=0 time=0
EXTRACT: note_on channel=3 note=74 velocity=52 time=0.012885208333333334
EXTRACT: note_off channel=9 note=36 velocity=0 time=0
EXTRACT: note_off channel=3 note=74 velocity=0 time=0.025770416666666667
EXTRACT: note_on channel=3 note=62 velocity=52 time=0.051540833333333334
EXTRACT: note_on channel=9 note=70 velocity=56 time=0
EXTRACT: note_on channel=9 note=54 velocity=56 time=0
EXTRACT: note_on channel=3 note=67 velocity=52 time=0.012885208333333334
EXTRACT: note_on channel=3 note=71 velocity=52 time=0
EXTRACT: note_on channel=3 note=74 velocity=52 time=0.012885208333333334
EXTRACT: note_off channel=3 note=62 velocity=0 time=0.038655625
EXTRACT: note_off channel=9 note=54 velocity=0 time=0
EXTRACT: note_off channel=9 note=70 velocity=0 time=0
EXTRACT: note_off channel=3 note=71 velocity=0 time=0.012885208333333334
EXTRACT: note_off channel=3 note=67 velocity=0 time=0
EXTRACT: note_off channel=3 note=74 velocity=0 time=0.012885208333333334
EXTRACT: note_on channel=10 note=65 velocity=87 time=0.038655625
EXTRACT: note_on channel=3 note=74 velocity=52 time=0.025770416666666667
EXTRACT: note_on channel=9 note=42 velocity=38 time=0
EXTRACT: note_on channel=9 note=70 velocity=110 time=0
EXTRACT: note_on channel=3 note=71 velocity=52 time=0.012885208333333334
EXTRACT: note_on channel=9 note=54 velocity=99 time=0
EXTRACT: note_on channel=3 note=67 velocity=52 time=0.012885208333333334
EXTRACT: note_off channel=10 note=62 velocity=0 time=0
EXTRACT: note_on channel=3 note=62 velocity=52 time=0.012885208333333334
EXTRACT: note_off channel=10 note=67 velocity=0 time=0
EXTRACT: note_off channel=2 note=31 velocity=0 time=0.025770416666666667
EXTRACT: note_off channel=3 note=74 velocity=0 time=0
EXTRACT: note_off channel=9 note=54 velocity=0 time=0
EXTRACT: note_off channel=9 note=70 velocity=0 time=0
EXTRACT: note_off channel=9 note=42 velocity=0 time=0
EXTRACT: note_off channel=3 note=71 velocity=0 time=0.012885208333333334
EXTRACT: note_off channel=3 note=67 velocity=0 time=0.012885208333333334
EXTRACT: note_off channel=3 note=62 velocity=0 time=0.012885208333333334
EXTRACT: note_on channel=2 note=31 velocity=125 time=0.051540833333333334
EXTRACT: note_on channel=9 note=70 velocity=64 time=0
EXTRACT: note_on channel=9 note=36 velocity=123 time=0
EXTRACT: note_on channel=3 note=74 velocity=54 time=0.012885208333333334
EXTRACT: note_on channel=9 note=54 velocity=52 time=0
EXTRACT: note_on channel=10 note=63 velocity=122 time=0
EXTRACT: note_on channel=3 note=71 velocity=54 time=0.012885208333333334
EXTRACT: note_on channel=3 note=67 velocity=54 time=0
EXTRACT: note_on channel=3 note=62 velocity=54 time=0
EXTRACT: control_change channel=3 control=64 value=0 time=0.025770416666666667
EXTRACT: note_off channel=3 note=74 velocity=0 time=0.012885208333333334
EXTRACT: note_off channel=9 note=54 velocity=0 time=0
EXTRACT: note_off channel=9 note=36 velocity=0 time=0
EXTRACT: note_off channel=9 note=70 velocity=0 time=0
EXTRACT: note_off channel=10 note=65 velocity=0 time=0
EXTRACT: note_off channel=3 note=71 velocity=0 time=0.012885208333333334
EXTRACT: note_off channel=3 note=62 velocity=0 time=0.012885208333333334
EXTRACT: note_off channel=3 note=67 velocity=0 time=0
EXTRACT: control_change channel=3 control=64 value=127 time=0.012885208333333334
EXTRACT: note_on channel=9 note=40 velocity=100 time=0.051540833333333334
EXTRACT: note_on channel=3 note=62 velocity=73 time=0.012885208333333334
EXTRACT: note_on channel=9 note=90 velocity=127 time=0
EXTRACT: note_on channel=9 note=44 velocity=71 time=0
EXTRACT: note_on channel=9 note=42 velocity=71 time=0
EXTRACT: note_on channel=9 note=70 velocity=40 time=0
EXTRACT: note_on channel=9 note=54 velocity=127 time=0
EXTRACT: note_on channel=3 note=67 velocity=73 time=0.012885208333333334
EXTRACT: note_on channel=3 note=71 velocity=73 time=0.012885208333333334
EXTRACT: note_on channel=3 note=74 velocity=73 time=0
EXTRACT: note_off channel=3 note=62 velocity=0 time=0.025770416666666667
EXTRACT: note_off channel=9 note=54 velocity=0 time=0
EXTRACT: note_off channel=9 note=70 velocity=0 time=0
EXTRACT: note_off channel=9 note=42 velocity=0 time=0
EXTRACT: note_off channel=9 note=44 velocity=0 time=0
EXTRACT: note_off channel=3 note=67 velocity=0 time=0.012885208333333334
EXTRACT: note_off channel=3 note=74 velocity=0 time=0.012885208333333334
EXTRACT: note_off channel=3 note=71 velocity=0 time=0
EXTRACT: note_off channel=9 note=90 velocity=0 time=0.051540833333333334
EXTRACT: note_off channel=9 note=40 velocity=0 time=0
EXTRACT: note_on channel=3 note=74 velocity=50 time=0.012885208333333334
EXTRACT: note_on channel=9 note=70 velocity=65 time=0
EXTRACT: note_on channel=9 note=54 velocity=64 time=0
EXTRACT: note_on channel=3 note=71 velocity=50 time=0.012885208333333334
EXTRACT: note_off channel=10 note=63 velocity=0 time=0
EXTRACT: note_on channel=3 note=67 velocity=50 time=0.012885208333333334
EXTRACT: note_on channel=10 note=62 velocity=127 time=0
EXTRACT: note_on channel=3 note=62 velocity=52 time=0.012885208333333334
EXTRACT: note_off channel=3 note=74 velocity=0 time=0.025770416666666667
EXTRACT: note_off channel=9 note=54 velocity=0 time=0
EXTRACT: note_off channel=9 note=70 velocity=0 time=0
EXTRACT: note_off channel=3 note=71 velocity=0 time=0.012885208333333334
EXTRACT: note_off channel=3 note=67 velocity=0 time=0.012885208333333334
EXTRACT: note_off channel=2 note=31 velocity=0 time=0.012885208333333334
EXTRACT: note_off channel=3 note=62 velocity=0 time=0
EXTRACT: note_on channel=2 note=31 velocity=125 time=0.051540833333333334
EXTRACT: note_on channel=9 note=42 velocity=42 time=0
EXTRACT: note_on channel=3 note=62 velocity=52 time=0.012885208333333334
EXTRACT: note_on channel=9 note=70 velocity=107 time=0
EXTRACT: note_on channel=9 note=36 velocity=119 time=0
EXTRACT: note_on channel=9 note=54 velocity=101 time=0
EXTRACT: note_on channel=3 note=67 velocity=52 time=0.012885208333333334
EXTRACT: note_on channel=3 note=71 velocity=52 time=0
EXTRACT: note_on channel=3 note=74 velocity=52 time=0
EXTRACT: note_off channel=3 note=62 velocity=0 time=0.038655625
EXTRACT: note_off channel=9 note=54 velocity=0 time=0
EXTRACT: note_off channel=9 note=36 velocity=0 time=0
EXTRACT: note_off channel=9 note=70 velocity=0 time=0
EXTRACT: note_off channel=9 note=42 velocity=0 time=0
EXTRACT: note_off channel=3 note=71 velocity=0 time=0.012885208333333334
EXTRACT: note_off channel=3 note=67 velocity=0 time=0
EXTRACT: note_off channel=3 note=74 velocity=0 time=0.012885208333333334
EXTRACT: note_off channel=10 note=62 velocity=0 time=0.012885208333333334
EXTRACT: note_on channel=3 note=74 velocity=52 time=0.051540833333333334
EXTRACT: note_on channel=9 note=70 velocity=67 time=0
EXTRACT: note_on channel=9 note=54 velocity=58 time=0
EXTRACT: note_on channel=3 note=71 velocity=52 time=0.012885208333333334
EXTRACT: note_on channel=3 note=67 velocity=52 time=0
EXTRACT: note_on channel=3 note=62 velocity=52 time=0.012885208333333334
EXTRACT: note_on channel=10 note=62 velocity=127 time=0
EXTRACT: control_change channel=3 control=64 value=0 time=0.025770416666666667
EXTRACT: note_off channel=3 note=74 velocity=0 time=0.012885208333333334
EXTRACT: note_off channel=9 note=54 velocity=0 time=0
EXTRACT: note_off channel=9 note=70 velocity=0 time=0
EXTRACT: note_off channel=3 note=67 velocity=0 time=0.012885208333333334
EXTRACT: note_off channel=3 note=71 velocity=0 time=0
EXTRACT: note_off channel=3 note=62 velocity=0 time=0.012885208333333334
EXTRACT: control_change channel=3 control=64 value=127 time=0
EXTRACT: note_off channel=2 note=31 velocity=0 time=0.025770416666666667
EXTRACT: control_change channel=3 control=64 value=0 time=0.038655625
EXTRACT: note_off channel=4 note=62 velocity=0 time=0
EXTRACT: note_off channel=4 note=67 velocity=0 time=0.012885208333333334
EXTRACT: note_on channel=4 note=60 velocity=127 time=0
EXTRACT: note_on channel=4 note=63 velocity=127 time=0
EXTRACT: note_on channel=2 note=36 velocity=121 time=0.012885208333333334
EXTRACT: control_change channel=3 control=64 value=127 time=0
EXTRACT: note_on channel=9 note=42 velocity=69 time=0
EXTRACT: control_change channel=3 control=64 value=127 time=0.012885208333333334
EXTRACT: note_on channel=3 note=60 velocity=81 time=0
EXTRACT: note_on channel=9 note=44 velocity=69 time=0
EXTRACT: note_on channel=9 note=70 velocity=40 time=0
EXTRACT: note_on channel=9 note=54 velocity=127 time=0
EXTRACT: note_on channel=9 note=36 velocity=125 time=0
EXTRACT: note_on channel=3 note=63 velocity=81 time=0.012885208333333334
EXTRACT: note_on channel=3 note=67 velocity=81 time=0
EXTRACT: note_on channel=3 note=72 velocity=81 time=0
EXTRACT: note_off channel=3 note=60 velocity=0 time=0.012885208333333334
EXTRACT: note_off channel=9 note=36 velocity=0 time=0
EXTRACT: note_off channel=9 note=54 velocity=0 time=0
EXTRACT: note_off channel=9 note=70 velocity=0 time=0
EXTRACT: note_off channel=3 note=63 velocity=0 time=0.012885208333333334
EXTRACT: note_off channel=3 note=72 velocity=0 time=0.012885208333333334
EXTRACT: note_off channel=3 note=67 velocity=0 time=0
EXTRACT: note_off channel=9 note=44 velocity=0 time=0.051540833333333334
EXTRACT: note_off channel=9 note=42 velocity=0 time=0
EXTRACT: note_on channel=3 note=72 velocity=54 time=0.012885208333333334
EXTRACT: note_on channel=9 note=70 velocity=65 time=0
EXTRACT: note_on channel=9 note=54 velocity=71 time=0
EXTRACT: note_on channel=3 note=67 velocity=54 time=0.012885208333333334
EXTRACT: note_on channel=3 note=63 velocity=54 time=0.012885208333333334
EXTRACT: note_on channel=3 note=60 velocity=50 time=0.012885208333333334
EXTRACT: note_off channel=3 note=72 velocity=0 time=0.025770416666666667
EXTRACT: note_off channel=9 note=54 velocity=0 time=0
EXTRACT: note_off channel=9 note=70 velocity=0 time=0
EXTRACT: note_off channel=3 note=67 velocity=0 time=0.012885208333333334
EXTRACT: note_off channel=3 note=63 velocity=0 time=0.012885208333333334
EXTRACT: note_off channel=3 note=60 velocity=0 time=0.012885208333333334
EXTRACT: note_on channel=3 note=60 velocity=52 time=0.051540833333333334
EXTRACT: note_on channel=9 note=42 velocity=36 time=0
EXTRACT: note_on channel=9 note=70 velocity=113 time=0
EXTRACT: note_on channel=3 note=63 velocity=52 time=0.012885208333333334
EXTRACT: note_on channel=3 note=67 velocity=52 time=0
EXTRACT: note_on channel=9 note=54 velocity=117 time=0
EXTRACT: note_on channel=3 note=72 velocity=52 time=0.012885208333333334
EXTRACT: note_on channel=10 note=63 velocity=110 time=0
EXTRACT: note_off channel=10 note=62 velocity=0 time=0.025770416666666667
EXTRACT: note_off channel=3 note=60 velocity=0 time=0.012885208333333334
EXTRACT: note_off channel=9 note=54 velocity=0 time=0
EXTRACT: note_off channel=9 note=70 velocity=0 time=0
EXTRACT: note_off channel=9 note=42 velocity=0 time=0
EXTRACT: note_off channel=3 note=67 velocity=0 time=0.012885208333333334
EXTRACT: note_off channel=3 note=63 velocity=0 time=0
EXTRACT: note_off channel=3 note=72 velocity=0 time=0.012885208333333334
EXTRACT: note_off channel=10 note=63 velocity=0 time=0.012885208333333334
EXTRACT: note_off channel=2 note=36 velocity=0 time=0.025770416666666667
EXTRACT: note_on channel=2 note=36 velocity=125 time=0.025770416666666667
EXTRACT: note_on channel=9 note=36 velocity=110 time=0
EXTRACT: note_on channel=9 note=70 velocity=60 time=0
EXTRACT: note_on channel=3 note=72 velocity=50 time=0.012885208333333334
EXTRACT: note_on channel=3 note=67 velocity=50 time=0
EXTRACT: note_on channel=9 note=54 velocity=69 time=0
EXTRACT: note_on channel=3 note=63 velocity=50 time=0.012885208333333334
EXTRACT: note_on channel=3 note=60 velocity=50 time=0
EXTRACT: control_change channel=3 control=64 value=0 time=0.012885208333333334
EXTRACT: note_on channel=10 note=63 velocity=101 time=0
EXTRACT: note_off channel=3 note=72 velocity=0 time=0.025770416666666667
EXTRACT: note_off channel=9 note=54 velocity=0 time=0
EXTRACT: note_off channel=9 note=70 velocity=0 time=0
EXTRACT: note_off channel=9 note=36 velocity=0 time=0
EXTRACT: note_off channel=3 note=63 velocity=0 time=0.012885208333333334
EXTRACT: note_off channel=3 note=67 velocity=0 time=0
EXTRACT: note_off channel=3 note=60 velocity=0 time=0.012885208333333334
EXTRACT: note_on channel=9 note=40 velocity=100 time=0.06442604166666667
EXTRACT: note_on channel=9 note=90 velocity=127 time=0
EXTRACT: note_on channel=3 note=60 velocity=110 time=0.012885208333333334
EXTRACT: note_on channel=9 note=44 velocity=71 time=0
EXTRACT: note_on channel=9 note=70 velocity=113 time=0
EXTRACT: note_on channel=9 note=49 velocity=73 time=0
EXTRACT: note_on channel=3 note=63 velocity=110 time=0.012885208333333334
EXTRACT: note_on channel=3 note=67 velocity=110 time=0
EXTRACT: note_on channel=3 note=72 velocity=110 time=0
EXTRACT: note_off channel=3 note=60 velocity=0 time=0.038655625
EXTRACT: note_off channel=9 note=49 velocity=0 time=0
EXTRACT: note_off channel=9 note=70 velocity=0 time=0
EXTRACT: note_off channel=9 note=44 velocity=0 time=0
EXTRACT: note_off channel=3 note=63 velocity=0 time=0.012885208333333334
EXTRACT: note_off channel=3 note=72 velocity=0 time=0.012885208333333334
EXTRACT: note_off channel=3 note=67 velocity=0 time=0
EXTRACT: note_off channel=2 note=36 velocity=0 time=0.051540833333333334
EXTRACT: note_off channel=9 note=90 velocity=0 time=0
EXTRACT: note_off channel=9 note=40 velocity=0 time=0
EXTRACT: note_on channel=3 note=72 velocity=40 time=0.012885208333333334
EXTRACT: note_on channel=9 note=70 velocity=10 time=0
EXTRACT: note_on channel=3 note=67 velocity=40 time=0.012885208333333334
EXTRACT: note_on channel=3 note=63 velocity=40 time=0.012885208333333334
EXTRACT: note_on channel=3 note=60 velocity=40 time=0.012885208333333334
EXTRACT: note_off channel=3 note=72 velocity=0 time=0.025770416666666667
EXTRACT: note_off channel=9 note=70 velocity=0 time=0
EXTRACT: note_off channel=3 note=67 velocity=0 time=0.012885208333333334
EXTRACT: note_off channel=3 note=63 velocity=0 time=0.012885208333333334
EXTRACT: note_off channel=3 note=60 velocity=0 time=0.012885208333333334
EXTRACT: note_on channel=3 note=60 velocity=46 time=0.051540833333333334
EXTRACT: note_on channel=9 note=70 velocity=24 time=0
EXTRACT: note_off channel=10 note=63 velocity=0 time=0
EXTRACT: note_on channel=3 note=63 velocity=46 time=0.012885208333333334
EXTRACT: note_on channel=3 note=67 velocity=46 time=0
EXTRACT: note_on channel=10 note=60 velocity=115 time=0
EXTRACT: note_on channel=3 note=72 velocity=46 time=0.012885208333333334
EXTRACT: note_off channel=3 note=60 velocity=0 time=0.038655625
EXTRACT: note_off channel=9 note=70 velocity=0 time=0
EXTRACT: note_off channel=3 note=67 velocity=0 time=0.012885208333333334
EXTRACT: note_off channel=3 note=63 velocity=0 time=0
EXTRACT: note_off channel=3 note=72 velocity=0 time=0.012885208333333334
EXTRACT: note_on channel=3 note=72 velocity=77 time=0.06442604166666667
EXTRACT: note_on channel=9 note=36 velocity=110 time=0
EXTRACT: note_on channel=9 note=70 velocity=64 time=0
EXTRACT: note_on channel=3 note=67 velocity=77 time=0.012885208333333334
EXTRACT: note_on channel=3 note=63 velocity=77 time=0
EXTRACT: note_on channel=3 note=60 velocity=77 time=0.012885208333333334
EXTRACT: note_off channel=3 note=72 velocity=0 time=0.038655625
EXTRACT: note_off channel=9 note=70 velocity=0 time=0
EXTRACT: note_off channel=9 note=36 velocity=0 time=0
EXTRACT: note_off channel=3 note=63 velocity=0 time=0.012885208333333334
EXTRACT: note_off channel=3 note=67 velocity=0 time=0
EXTRACT: note_off channel=3 note=60 velocity=0 time=0.012885208333333334
EXTRACT: note_off channel=10 note=60 velocity=0 time=0
EXTRACT: note_on channel=9 note=40 velocity=100 time=0.06442604166666667
EXTRACT: note_on channel=9 note=90 velocity=125 time=0
EXTRACT: note_on channel=2 note=36 velocity=110 time=0.012885208333333334
EXTRACT: note_on channel=4 note=60 velocity=116 time=0
EXTRACT: note_on channel=9 note=70 velocity=110 time=0
EXTRACT: note_on channel=9 note=44 velocity=40 time=0
EXTRACT: note_on channel=10 note=60 velocity=106 time=0
EXTRACT: note_off channel=4 note=60 velocity=0 time=0.051540833333333334
EXTRACT: note_off channel=9 note=44 velocity=0 time=0
EXTRACT: note_off channel=9 note=70 velocity=0 time=0
EXTRACT: note_off channel=9 note=90 velocity=0 time=0
EXTRACT: note_off channel=9 note=40 velocity=0 time=0
EXTRACT: note_on channel=3 note=60 velocity=93 time=0.09019645833333334
EXTRACT: note_on channel=9 note=70 velocity=10 time=0
EXTRACT: note_on channel=3 note=63 velocity=93 time=0.012885208333333334
EXTRACT: note_on channel=3 note=67 velocity=93 time=0
EXTRACT: note_on channel=3 note=72 velocity=93 time=0.012885208333333334
EXTRACT: note_off channel=3 note=60 velocity=0 time=0.038655625
EXTRACT: note_off channel=9 note=70 velocity=0 time=0
EXTRACT: note_off channel=3 note=67 velocity=0 time=0.012885208333333334
EXTRACT: note_off channel=3 note=63 velocity=0 time=0
EXTRACT: note_off channel=3 note=72 velocity=0 time=0.012885208333333334
EXTRACT: note_on channel=9 note=40 velocity=100 time=0.06442604166666667
EXTRACT: note_on channel=9 note=90 velocity=123 time=0
EXTRACT: note_on channel=9 note=70 velocity=24 time=0
EXTRACT: note_on channel=3 note=72 velocity=44 time=0.012885208333333334
EXTRACT: note_on channel=3 note=67 velocity=44 time=0
EXTRACT: note_on channel=3 note=63 velocity=44 time=0.012885208333333334
EXTRACT: note_on channel=3 note=60 velocity=44 time=0.012885208333333334
EXTRACT: note_off channel=2 note=36 velocity=0 time=0.025770416666666667
EXTRACT: note_off channel=3 note=72 velocity=0 time=0
EXTRACT: note_off channel=9 note=70 velocity=0 time=0
EXTRACT: note_off channel=9 note=90 velocity=0 time=0
EXTRACT: note_off channel=9 note=40 velocity=0 time=0
EXTRACT: note_off channel=3 note=67 velocity=0 time=0.012885208333333334
EXTRACT: note_off channel=3 note=63 velocity=0 time=0.012885208333333334
EXTRACT: note_off channel=3 note=60 velocity=0 time=0.012885208333333334
EXTRACT: note_off channel=10 note=60 velocity=0 time=0
EXTRACT: note_on channel=2 note=36 velocity=125 time=0.051540833333333334
EXTRACT: note_on channel=4 note=60 velocity=113 time=0
EXTRACT: note_on channel=9 note=36 velocity=110 time=0
EXTRACT: note_on channel=9 note=70 velocity=64 time=0
EXTRACT: note_off channel=4 note=60 velocity=0 time=0.051540833333333334
EXTRACT: note_off channel=9 note=70 velocity=0 time=0.012885208333333334
EXTRACT: note_off channel=9 note=36 velocity=0 time=0
EXTRACT: note_on channel=9 note=40 velocity=40 time=0.012885208333333334
EXTRACT: note_off channel=9 note=40 velocity=0 time=0.012885208333333334
EXTRACT: note_on channel=9 note=40 velocity=60 time=0.025770416666666667
EXTRACT: note_off channel=9 note=40 velocity=0 time=0.012885208333333334
EXTRACT: note_on channel=9 note=40 velocity=100 time=0.025770416666666667
EXTRACT: note_on channel=9 note=90 velocity=127 time=0.012885208333333334
EXTRACT: note_on channel=9 note=44 velocity=71 time=0
EXTRACT: note_on channel=9 note=70 velocity=110 time=0
EXTRACT: note_on channel=10 note=55 velocity=127 time=0
EXTRACT: note_on channel=10 note=63 velocity=122 time=0
EXTRACT: note_on channel=3 note=60 velocity=83 time=0.012885208333333334
EXTRACT: note_on channel=3 note=63 velocity=83 time=0
EXTRACT: note_on channel=3 note=67 velocity=83 time=0
EXTRACT: note_on channel=3 note=72 velocity=83 time=0.012885208333333334
EXTRACT: note_off channel=3 note=63 velocity=0 time=0.025770416666666667
EXTRACT: note_off channel=3 note=60 velocity=0 time=0
EXTRACT: note_off channel=9 note=70 velocity=0 time=0
EXTRACT: note_off channel=9 note=44 velocity=0 time=0
EXTRACT: note_off channel=3 note=67 velocity=0 time=0.012885208333333334
EXTRACT: note_off channel=3 note=72 velocity=0 time=0.025770416666666667
EXTRACT: note_off channel=9 note=90 velocity=0 time=0.038655625
EXTRACT: note_off channel=9 note=40 velocity=0 time=0
EXTRACT: note_on channel=3 note=72 velocity=44 time=0.012885208333333334
EXTRACT: note_on channel=9 note=47 velocity=110 time=0
EXTRACT: note_on channel=9 note=70 velocity=10 time=0
EXTRACT: note_on channel=3 note=67 velocity=44 time=0.012885208333333334
EXTRACT: note_on channel=3 note=63 velocity=44 time=0.012885208333333334
EXTRACT: note_on channel=3 note=60 velocity=44 time=0
EXTRACT: note_off channel=3 note=72 velocity=0 time=0.038655625
EXTRACT: note_off channel=9 note=70 velocity=0 time=0
EXTRACT: note_off channel=9 note=47 velocity=0 time=0
EXTRACT: note_off channel=3 note=67 velocity=0 time=0.012885208333333334
EXTRACT: note_off channel=3 note=60 velocity=0 time=0.012885208333333334
EXTRACT: note_off channel=3 note=63 velocity=0 time=0
EXTRACT: note_off channel=2 note=36 velocity=0 time=0.012885208333333334
EXTRACT: note_on channel=2 note=36 velocity=125 time=0.051540833333333334
EXTRACT: note_on channel=9 note=45 velocity=110 time=0
EXTRACT: note_on channel=9 note=70 velocity=22 time=0
EXTRACT: note_on channel=4 note=60 velocity=96 time=0.012885208333333334
EXTRACT: note_off channel=4 note=60 velocity=0 time=0.025770416666666667
EXTRACT: note_off channel=9 note=70 velocity=0 time=0.025770416666666667
EXTRACT: note_off channel=9 note=45 velocity=0 time=0
EXTRACT: note_off channel=10 note=55 velocity=0 time=0.06442604166666667
EXTRACT: note_on channel=9 note=36 velocity=91 time=0.025770416666666667
EXTRACT: note_on channel=9 note=55 velocity=85 time=0
EXTRACT: note_on channel=9 note=70 velocity=67 time=0
EXTRACT: note_on channel=4 note=60 velocity=81 time=0.012885208333333334
EXTRACT: note_off channel=10 note=63 velocity=0 time=0.012885208333333334
EXTRACT: note_off channel=2 note=36 velocity=0 time=0.025770416666666667
EXTRACT: note_off channel=4 note=60 velocity=0 time=0
EXTRACT: note_off channel=4 note=60 velocity=0 time=0
EXTRACT: note_off channel=4 note=63 velocity=0 time=0
EXTRACT: control_change channel=4 control=0 value=0 time=0
EXTRACT: control_change channel=4 control=0 value=0 time=0
EXTRACT: control_change channel=4 control=32 value=0 time=0
EXTRACT: control_change channel=4 control=0 value=0 time=0
EXTRACT: control_change channel=4 control=32 value=0 time=0
EXTRACT: program_change channel=4 program=89 time=0
EXTRACT: note_off channel=9 note=70 velocity=0 time=0.012885208333333334
EXTRACT: note_off channel=9 note=55 velocity=0 time=0
EXTRACT: note_off channel=9 note=36 velocity=0 time=0
EXTRACT: note_on channel=10 note=56 velocity=104 time=0.06442604166666667
EXTRACT: note_on channel=10 note=58 velocity=102 time=0
EXTRACT: note_on channel=10 note=65 velocity=104 time=0
EXTRACT: control_change channel=4 control=0 value=0 time=0.012885208333333334
EXTRACT: control_change channel=4 control=0 value=0 time=0
EXTRACT: control_change channel=4 control=32 value=0 time=0
EXTRACT: control_change channel=4 control=0 value=0 time=0
EXTRACT: control_change channel=4 control=32 value=0 time=0
EXTRACT: program_change channel=4 program=50 time=0
EXTRACT: note_on channel=4 note=63 velocity=127 time=0.025770416666666667
EXTRACT: program_change channel=9 program=0 time=0
EXTRACT: note_on channel=9 note=49 velocity=90 time=0
EXTRACT: program_change channel=9 program=32 time=0
EXTRACT: note_off channel=9 note=49 velocity=0 time=0.0016106510416666667
EXTRACT: note_on channel=4 note=68 velocity=127 time=0.011274557291666668
EXTRACT: note_on channel=9 note=36 velocity=127 time=0
EXTRACT: note_on channel=9 note=44 velocity=69 time=0
EXTRACT: note_on channel=2 note=32 velocity=127 time=0.012885208333333334
EXTRACT: control_change channel=3 control=64 value=127 time=0
EXTRACT: note_on channel=3 note=63 velocity=81 time=0
EXTRACT: note_on channel=9 note=42 velocity=69 time=0
EXTRACT: note_on channel=9 note=70 velocity=40 time=0
EXTRACT: note_on channel=9 note=54 velocity=127 time=0
EXTRACT: note_on channel=3 note=68 velocity=81 time=0.012885208333333334
EXTRACT: note_off channel=3 note=63 velocity=0 time=0.012885208333333334
EXTRACT: note_on channel=3 note=72 velocity=81 time=0
EXTRACT: note_on channel=3 note=75 velocity=81 time=0
EXTRACT: note_off channel=9 note=54 velocity=0 time=0
EXTRACT: note_off channel=9 note=70 velocity=0 time=0
EXTRACT: note_off channel=3 note=68 velocity=0 time=0.012885208333333334
EXTRACT: note_off channel=3 note=75 velocity=0 time=0.012885208333333334
EXTRACT: note_off channel=3 note=72 velocity=0 time=0
EXTRACT: note_off channel=9 note=42 velocity=0 time=0.051540833333333334
EXTRACT: note_off channel=9 note=44 velocity=0 time=0
EXTRACT: note_off channel=9 note=36 velocity=0 time=0
EXTRACT: note_on channel=3 note=75 velocity=54 time=0.012885208333333334
EXTRACT: note_on channel=9 note=70 velocity=64 time=0
EXTRACT: note_on channel=9 note=54 velocity=71 time=0
EXTRACT: note_on channel=3 note=72 velocity=54 time=0.012885208333333334
EXTRACT: note_on channel=3 note=68 velocity=54 time=0.012885208333333334
EXTRACT: note_on channel=3 note=63 velocity=50 time=0.012885208333333334
EXTRACT: note_off channel=10 note=58 velocity=0 time=0.012885208333333334
EXTRACT: note_off channel=3 note=75 velocity=0 time=0.012885208333333334
EXTRACT: note_off channel=9 note=54 velocity=0 time=0
EXTRACT: note_off channel=9 note=70 velocity=0 time=0
EXTRACT: note_off channel=10 note=56 velocity=0 time=0
EXTRACT: note_off channel=3 note=72 velocity=0 time=0.012885208333333334
EXTRACT: note_off channel=3 note=68 velocity=0 time=0.012885208333333334
EXTRACT: note_off channel=10 note=65 velocity=0 time=0
EXTRACT: note_off channel=3 note=63 velocity=0 time=0.012885208333333334
EXTRACT: note_on channel=3 note=63 velocity=52 time=0.051540833333333334
EXTRACT: note_on channel=9 note=42 velocity=36 time=0
EXTRACT: note_on channel=9 note=70 velocity=113 time=0
EXTRACT: note_on channel=3 note=68 velocity=52 time=0.012885208333333334
EXTRACT: note_on channel=9 note=54 velocity=117 time=0
EXTRACT: note_on channel=10 note=58 velocity=108 time=0
EXTRACT: note_on channel=10 note=56 velocity=106 time=0
EXTRACT: note_on channel=3 note=72 velocity=52 time=0.012885208333333334
EXTRACT: note_on channel=3 note=75 velocity=52 time=0
EXTRACT: note_on channel=10 note=65 velocity=97 time=0
EXTRACT: note_off channel=3 note=63 velocity=0 time=0.038655625
EXTRACT: note_off channel=9 note=54 velocity=0 time=0
EXTRACT: note_off channel=9 note=70 velocity=0 time=0
EXTRACT: note_off channel=9 note=42 velocity=0 time=0
EXTRACT: note_off channel=3 note=72 velocity=0 time=0.012885208333333334
EXTRACT: note_off channel=3 note=68 velocity=0 time=0
EXTRACT: note_off channel=3 note=75 velocity=0 time=0.012885208333333334
EXTRACT: note_off channel=2 note=32 velocity=0 time=0.038655625
EXTRACT: note_on channel=2 note=32 velocity=125 time=0.025770416666666667
EXTRACT: note_on channel=9 note=36 velocity=99 time=0
EXTRACT: note_on channel=9 note=70 velocity=60 time=0
EXTRACT: note_on channel=3 note=75 velocity=50 time=0.012885208333333334
EXTRACT: note_on channel=3 note=72 velocity=50 time=0
EXTRACT: note_on channel=3 note=68 velocity=50 time=0
EXTRACT: note_on channel=9 note=54 velocity=69 time=0
EXTRACT: note_on channel=3 note=63 velocity=50 time=0.012885208333333334
EXTRACT: control_change channel=3 control=64 value=0 time=0.012885208333333334
EXTRACT: note_off channel=3 note=75 velocity=0 time=0.025770416666666667
EXTRACT: note_off channel=9 note=54 velocity=0 time=0
EXTRACT: note_off channel=9 note=70 velocity=0 time=0
EXTRACT: note_off channel=9 note=36 velocity=0 time=0
EXTRACT: note_off channel=3 note=68 velocity=0 time=0.012885208333333334
EXTRACT: note_off channel=3 note=72 velocity=0 time=0
EXTRACT: note_off channel=10 note=65 velocity=0 time=0
EXTRACT: note_off channel=3 note=63 velocity=0 time=0.012885208333333334
EXTRACT: control_change channel=3 control=64 value=127 time=0
EXTRACT: note_on channel=9 note=40 velocity=100 time=0.06442604166666667
EXTRACT: note_on channel=9 note=90 velocity=127 time=0
EXTRACT: note_on channel=3 note=63 velocity=75 time=0.012885208333333334
EXTRACT: note_on channel=9 note=44 velocity=71 time=0
EXTRACT: note_on channel=9 note=42 velocity=71 time=0
EXTRACT: note_on channel=9 note=70 velocity=40 time=0
EXTRACT: note_on channel=9 note=54 velocity=127 time=0
EXTRACT: note_on channel=3 note=68 velocity=75 time=0.012885208333333334
EXTRACT: note_on channel=10 note=65 velocity=92 time=0
EXTRACT: note_on channel=3 note=72 velocity=75 time=0.012885208333333334
EXTRACT: note_on channel=3 note=75 velocity=75 time=0
EXTRACT: note_off channel=3 note=63 velocity=0 time=0.025770416666666667
EXTRACT: note_off channel=9 note=54 velocity=0 time=0
EXTRACT: note_off channel=9 note=70 velocity=0 time=0
EXTRACT: note_off channel=9 note=42 velocity=0 time=0
EXTRACT: note_off channel=9 note=44 velocity=0 time=0
EXTRACT: note_off channel=3 note=68 velocity=0 time=0.012885208333333334
EXTRACT: note_off channel=3 note=75 velocity=0 time=0.012885208333333334
EXTRACT: note_off channel=3 note=72 velocity=0 time=0
EXTRACT: note_off channel=10 note=65 velocity=0 time=0.025770416666666667
EXTRACT: note_off channel=2 note=32 velocity=0 time=0.025770416666666667
EXTRACT: note_off channel=9 note=90 velocity=0 time=0
EXTRACT: note_off channel=9 note=40 velocity=0 time=0
EXTRACT: note_on channel=3 note=75 velocity=54 time=0.012885208333333334
EXTRACT: note_on channel=9 note=70 velocity=65 time=0
EXTRACT: note_on channel=9 note=54 velocity=64 time=0
EXTRACT: note_on channel=3 note=72 velocity=54 time=0.012885208333333334
EXTRACT: note_on channel=3 note=68 velocity=54 time=0.012885208333333334
EXTRACT: note_on channel=10 note=65 velocity=92 time=0
EXTRACT: note_on channel=3 note=63 velocity=54 time=0.012885208333333334
EXTRACT: note_off channel=3 note=75 velocity=0 time=0.025770416666666667
EXTRACT: note_off channel=9 note=54 velocity=0 time=0
EXTRACT: note_off channel=9 note=70 velocity=0 time=0
EXTRACT: note_off channel=3 note=72 velocity=0 time=0.012885208333333334
EXTRACT: note_off channel=3 note=68 velocity=0 time=0.012885208333333334
EXTRACT: note_off channel=3 note=63 velocity=0 time=0.012885208333333334
EXTRACT: note_off channel=10 note=65 velocity=0 time=0
EXTRACT: note_on channel=3 note=63 velocity=50 time=0.051540833333333334
EXTRACT: note_on channel=9 note=42 velocity=40 time=0
EXTRACT: note_on channel=9 note=70 velocity=110 time=0
EXTRACT: note_on channel=3 note=68 velocity=50 time=0.012885208333333334
EXTRACT: note_on channel=3 note=72 velocity=50 time=0
EXTRACT: note_on channel=9 note=54 velocity=111 time=0
EXTRACT: note_on channel=3 note=75 velocity=50 time=0.012885208333333334
EXTRACT: note_on channel=10 note=65 velocity=79 time=0
EXTRACT: note_off channel=3 note=63 velocity=0 time=0.038655625
EXTRACT: note_off channel=9 note=54 velocity=0 time=0
EXTRACT: note_off channel=9 note=70 velocity=0 time=0
EXTRACT: note_off channel=9 note=42 velocity=0 time=0
EXTRACT: note_off channel=3 note=72 velocity=0 time=0.012885208333333334
EXTRACT: note_off channel=3 note=68 velocity=0 time=0
EXTRACT: note_off channel=3 note=75 velocity=0 time=0.012885208333333334
EXTRACT: note_off channel=10 note=65 velocity=0 time=0.038655625
EXTRACT: control_change channel=3 control=64 value=0 time=0.012885208333333334
EXTRACT: note_off channel=4 note=68 velocity=0 time=0
EXTRACT: note_off channel=4 note=63 velocity=0 time=0
EXTRACT: note_on channel=4 note=62 velocity=127 time=0
EXTRACT: control_change channel=3 control=64 value=127 time=0.012885208333333334
EXTRACT: note_on channel=4 note=65 velocity=127 time=0
EXTRACT: note_off channel=10 note=56 velocity=0 time=0.012885208333333334
EXTRACT: note_off channel=10 note=58 velocity=0 time=0
EXTRACT: note_on channel=10 note=65 velocity=98 time=0
EXTRACT: note_on channel=3 note=74 velocity=69 time=0.012885208333333334
EXTRACT: note_on channel=9 note=70 velocity=64 time=0
EXTRACT: note_on channel=9 note=54 velocity=58 time=0
EXTRACT: note_on channel=3 note=70 velocity=69 time=0.012885208333333334
EXTRACT: note_on channel=3 note=65 velocity=69 time=0
EXTRACT: note_on channel=3 note=62 velocity=69 time=0
EXTRACT: control_change channel=3 control=64 value=0 time=0.012885208333333334
EXTRACT: note_off channel=3 note=74 velocity=0 time=0.012885208333333334
EXTRACT: note_off channel=9 note=54 velocity=0 time=0
EXTRACT: note_off channel=9 note=70 velocity=0 time=0
EXTRACT: note_off channel=3 note=65 velocity=0 time=0.012885208333333334
EXTRACT: note_off channel=3 note=70 velocity=0 time=0
EXTRACT: note_off channel=3 note=62 velocity=0 time=0.012885208333333334
EXTRACT: control_change channel=3 control=64 value=127 time=0
EXTRACT: note_off channel=10 note=65 velocity=0 time=0.025770416666666667
EXTRACT: note_on channel=9 note=42 velocity=69 time=0.038655625
EXTRACT: note_on channel=2 note=34 velocity=110 time=0.012885208333333334
EXTRACT: note_on channel=9 note=44 velocity=69 time=0
EXTRACT: note_on channel=9 note=70 velocity=40 time=0
EXTRACT: note_on channel=9 note=54 velocity=127 time=0
EXTRACT: note_on channel=9 note=36 velocity=110 time=0
EXTRACT: note_on channel=10 note=65 velocity=97 time=0
EXTRACT: note_on channel=3 note=62 velocity=56 time=0.012885208333333334
EXTRACT: note_on channel=3 note=65 velocity=56 time=0
EXTRACT: note_on channel=3 note=70 velocity=56 time=0
EXTRACT: note_on channel=3 note=74 velocity=52 time=0.012885208333333334
EXTRACT: note_off channel=3 note=65 velocity=0 time=0.025770416666666667
EXTRACT: note_off channel=3 note=62 velocity=0 time=0
EXTRACT: note_off channel=9 note=36 velocity=0 time=0
EXTRACT: note_off channel=9 note=54 velocity=0 time=0
EXTRACT: note_off channel=9 note=70 velocity=0 time=0
EXTRACT: note_off channel=9 note=44 velocity=0 time=0
EXTRACT: note_off channel=9 note=42 velocity=0 time=0
EXTRACT: note_off channel=3 note=70 velocity=0 time=0.012885208333333334
EXTRACT: note_off channel=3 note=74 velocity=0 time=0.025770416666666667
EXTRACT: note_off channel=10 note=65 velocity=0 time=0
EXTRACT: note_on channel=3 note=62 velocity=52 time=0.051540833333333334
EXTRACT: note_on channel=9 note=70 velocity=64 time=0
EXTRACT: note_on channel=9 note=54 velocity=56 time=0
EXTRACT: note_on channel=3 note=65 velocity=52 time=0.012885208333333334
EXTRACT: note_on channel=3 note=70 velocity=52 time=0
EXTRACT: note_on channel=10 note=65 velocity=78 time=0
EXTRACT: note_on channel=3 note=74 velocity=52 time=0.012885208333333334
EXTRACT: note_off channel=3 note=62 velocity=0 time=0.038655625
EXTRACT: note_off channel=9 note=54 velocity=0 time=0
EXTRACT: note_off channel=9 note=70 velocity=0 time=0
EXTRACT: note_off channel=3 note=70 velocity=0 time=0.012885208333333334
EXTRACT: note_off channel=3 note=65 velocity=0 time=0
EXTRACT: note_off channel=3 note=74 velocity=0 time=0.012885208333333334
EXTRACT: note_off channel=10 note=65 velocity=0 time=0.012885208333333334
EXTRACT: note_on channel=3 note=74 velocity=52 time=0.051540833333333334
EXTRACT: note_on channel=9 note=42 velocity=38 time=0
EXTRACT: note_on channel=9 note=70 velocity=110 time=0
EXTRACT: note_on channel=3 note=70 velocity=52 time=0.012885208333333334
EXTRACT: note_on channel=9 note=54 velocity=99 time=0
EXTRACT: note_on channel=10 note=65 velocity=83 time=0
EXTRACT: note_on channel=3 note=65 velocity=52 time=0.012885208333333334
EXTRACT: note_on channel=3 note=62 velocity=52 time=0.012885208333333334
EXTRACT: note_off channel=2 note=34 velocity=0 time=0.025770416666666667
EXTRACT: note_off channel=3 note=74 velocity=0 time=0
EXTRACT: note_off channel=9 note=54 velocity=0 time=0
EXTRACT: note_off channel=9 note=70 velocity=0 time=0
EXTRACT: note_off channel=9 note=42 velocity=0 time=0
EXTRACT: note_off channel=3 note=70 velocity=0 time=0.012885208333333334
EXTRACT: note_off channel=3 note=65 velocity=0 time=0.012885208333333334
EXTRACT: note_off channel=10 note=65 velocity=0 time=0
EXTRACT: note_off channel=3 note=62 velocity=0 time=0.012885208333333334
EXTRACT: note_on channel=2 note=34 velocity=125 time=0.051540833333333334
EXTRACT: note_on channel=9 note=70 velocity=64 time=0
EXTRACT: note_on channel=10 note=65 velocity=98 time=0
EXTRACT: note_on channel=3 note=74 velocity=54 time=0.012885208333333334
EXTRACT: note_on channel=3 note=70 velocity=54 time=0
EXTRACT: note_on channel=9 note=54 velocity=52 time=0
EXTRACT: note_on channel=9 note=36 velocity=123 time=0
EXTRACT: note_on channel=3 note=65 velocity=54 time=0.012885208333333334
EXTRACT: note_on channel=3 note=62 velocity=54 time=0
EXTRACT: control_change channel=3 control=64 value=0 time=0.025770416666666667
EXTRACT: note_off channel=3 note=74 velocity=0 time=0.012885208333333334
EXTRACT: note_off channel=9 note=36 velocity=0 time=0
EXTRACT: note_off channel=9 note=54 velocity=0 time=0
EXTRACT: note_off channel=9 note=70 velocity=0 time=0
EXTRACT: note_off channel=3 note=70 velocity=0 time=0.012885208333333334
EXTRACT: note_off channel=10 note=65 velocity=0 time=0
EXTRACT: note_off channel=3 note=62 velocity=0 time=0.012885208333333334
EXTRACT: note_off channel=3 note=65 velocity=0 time=0
EXTRACT: control_change channel=3 control=64 value=127 time=0.012885208333333334
EXTRACT: note_on channel=10 note=65 velocity=87 time=0.051540833333333334
EXTRACT: note_on channel=9 note=40 velocity=100 time=0.012885208333333334
EXTRACT: note_on channel=9 note=90 velocity=127 time=0
EXTRACT: note_on channel=9 note=44 velocity=71 time=0
EXTRACT: note_on channel=9 note=42 velocity=71 time=0
EXTRACT: note_on channel=9 note=70 velocity=40 time=0
EXTRACT: note_on channel=3 note=62 velocity=73 time=0.012885208333333334
EXTRACT: note_on channel=3 note=65 velocity=73 time=0
EXTRACT: note_on channel=9 note=54 velocity=127 time=0
EXTRACT: note_on channel=3 note=70 velocity=73 time=0.012885208333333334
EXTRACT: note_on channel=3 note=74 velocity=73 time=0
EXTRACT: note_off channel=3 note=62 velocity=0 time=0.025770416666666667
EXTRACT: note_off channel=9 note=54 velocity=0 time=0
EXTRACT: note_off channel=9 note=70 velocity=0 time=0
EXTRACT: note_off channel=9 note=42 velocity=0 time=0
EXTRACT: note_off channel=9 note=44 velocity=0 time=0
EXTRACT: note_off channel=3 note=65 velocity=0 time=0.012885208333333334
EXTRACT: note_off channel=3 note=74 velocity=0 time=0.012885208333333334
EXTRACT: note_off channel=3 note=70 velocity=0 time=0
EXTRACT: note_off channel=10 note=65 velocity=0 time=0.038655625
EXTRACT: note_off channel=9 note=90 velocity=0 time=0.012885208333333334
EXTRACT: note_off channel=9 note=40 velocity=0 time=0
EXTRACT: note_on channel=10 note=63 velocity=122 time=0
EXTRACT: note_on channel=3 note=74 velocity=50 time=0.012885208333333334
EXTRACT: note_on channel=9 note=70 velocity=60 time=0
EXTRACT: note_on channel=9 note=54 velocity=64 time=0
EXTRACT: note_on channel=3 note=70 velocity=50 time=0.012885208333333334
EXTRACT: note_on channel=3 note=65 velocity=50 time=0.012885208333333334
EXTRACT: note_on channel=3 note=62 velocity=52 time=0.012885208333333334
EXTRACT: note_off channel=3 note=74 velocity=0 time=0.025770416666666667
EXTRACT: note_off channel=9 note=54 velocity=0 time=0
EXTRACT: note_off channel=9 note=70 velocity=0 time=0
EXTRACT: note_off channel=3 note=70 velocity=0 time=0.012885208333333334
EXTRACT: note_off channel=10 note=63 velocity=0 time=0
EXTRACT: note_off channel=3 note=65 velocity=0 time=0.012885208333333334
EXTRACT: note_off channel=2 note=34 velocity=0 time=0.012885208333333334
EXTRACT: note_off channel=3 note=62 velocity=0 time=0
EXTRACT: note_on channel=2 note=34 velocity=125 time=0.051540833333333334
EXTRACT: note_on channel=9 note=42 velocity=42 time=0
EXTRACT: note_on channel=9 note=70 velocity=107 time=0
EXTRACT: note_on channel=3 note=62 velocity=52 time=0.012885208333333334
EXTRACT: note_on channel=9 note=36 velocity=119 time=0
EXTRACT: note_on channel=9 note=54 velocity=101 time=0
EXTRACT: note_on channel=10 note=63 velocity=87 time=0
EXTRACT: note_on channel=3 note=65 velocity=52 time=0.012885208333333334
EXTRACT: note_on channel=3 note=70 velocity=52 time=0
EXTRACT: note_on channel=3 note=74 velocity=52 time=0
EXTRACT: note_off channel=3 note=62 velocity=0 time=0.038655625
EXTRACT: note_off channel=9 note=54 velocity=0 time=0
EXTRACT: note_off channel=9 note=36 velocity=0 time=0
EXTRACT: note_off channel=9 note=70 velocity=0 time=0
EXTRACT: note_off channel=9 note=42 velocity=0 time=0
EXTRACT: note_off channel=3 note=70 velocity=0 time=0.012885208333333334
EXTRACT: note_off channel=3 note=65 velocity=0 time=0
EXTRACT: note_off channel=10 note=63 velocity=0 time=0
EXTRACT: note_off channel=3 note=74 velocity=0 time=0.012885208333333334
EXTRACT: note_on channel=3 note=74 velocity=52 time=0.06442604166666667
EXTRACT: note_on channel=9 note=70 velocity=67 time=0
EXTRACT: note_on channel=9 note=54 velocity=58 time=0
EXTRACT: note_on channel=3 note=70 velocity=52 time=0.012885208333333334
EXTRACT: note_on channel=3 note=65 velocity=52 time=0
EXTRACT: note_on channel=10 note=63 velocity=101 time=0
EXTRACT: note_on channel=3 note=62 velocity=52 time=0.012885208333333334
EXTRACT: control_change channel=3 control=64 value=0 time=0.025770416666666667
EXTRACT: note_off channel=3 note=74 velocity=0 time=0.012885208333333334
EXTRACT: note_off channel=9 note=54 velocity=0 time=0
EXTRACT: note_off channel=9 note=70 velocity=0 time=0
EXTRACT: note_off channel=3 note=65 velocity=0 time=0.012885208333333334
EXTRACT: note_off channel=3 note=70 velocity=0 time=0
EXTRACT: note_off channel=3 note=62 velocity=0 time=0.012885208333333334
EXTRACT: control_change channel=3 control=64 value=127 time=0
EXTRACT: note_off channel=2 note=34 velocity=0 time=0.025770416666666667
EXTRACT: control_change channel=3 control=64 value=0 time=0.012885208333333334
EXTRACT: note_off channel=4 note=65 velocity=0 time=0
EXTRACT: note_off channel=4 note=62 velocity=0 time=0
EXTRACT: note_on channel=4 note=63 velocity=127 time=0
EXTRACT: note_on channel=4 note=67 velocity=127 time=0
EXTRACT: control_change channel=3 control=64 value=127 time=0.012885208333333334
EXTRACT: note_on channel=9 note=42 velocity=69 time=0.012885208333333334
EXTRACT: note_on channel=2 note=39 velocity=121 time=0.012885208333333334
EXTRACT: control_change channel=3 control=64 value=127 time=0
EXTRACT: note_on channel=3 note=63 velocity=81 time=0
EXTRACT: note_on channel=9 note=44 velocity=69 time=0
EXTRACT: note_on channel=9 note=70 velocity=40 time=0
EXTRACT: note_on channel=9 note=54 velocity=127 time=0
EXTRACT: note_on channel=9 note=36 velocity=125 time=0
EXTRACT: note_on channel=3 note=67 velocity=81 time=0.012885208333333334
EXTRACT: note_on channel=3 note=70 velocity=81 time=0.012885208333333334
EXTRACT: note_on channel=3 note=75 velocity=81 time=0
EXTRACT: note_off channel=3 note=63 velocity=0 time=0.025770416666666667
EXTRACT: note_off channel=9 note=36 velocity=0 time=0
EXTRACT: note_off channel=9 note=54 velocity=0 time=0
EXTRACT: note_off channel=9 note=70 velocity=0 time=0
EXTRACT: note_off channel=3 note=67 velocity=0 time=0.012885208333333334
EXTRACT: note_off channel=3 note=75 velocity=0 time=0.012885208333333334
EXTRACT: note_off channel=3 note=70 velocity=0 time=0
EXTRACT: note_off channel=9 note=44 velocity=0 time=0.051540833333333334
EXTRACT: note_off channel=9 note=42 velocity=0 time=0
EXTRACT: note_on channel=3 note=75 velocity=54 time=0.012885208333333334
EXTRACT: note_on channel=9 note=70 velocity=64 time=0
EXTRACT: note_on channel=9 note=54 velocity=71 time=0
EXTRACT: note_on channel=3 note=70 velocity=54 time=0.012885208333333334
EXTRACT: note_on channel=3 note=67 velocity=54 time=0.012885208333333334
EXTRACT: note_on channel=3 note=63 velocity=50 time=0.012885208333333334
EXTRACT: note_off channel=3 note=75 velocity=0 time=0.025770416666666667
EXTRACT: note_off channel=9 note=54 velocity=0 time=0
EXTRACT: note_off channel=9 note=70 velocity=0 time=0
EXTRACT: note_off channel=3 note=70 velocity=0 time=0.012885208333333334
EXTRACT: note_off channel=3 note=67 velocity=0 time=0.012885208333333334
EXTRACT: note_off channel=3 note=63 velocity=0 time=0.012885208333333334
EXTRACT: note_on channel=3 note=63 velocity=52 time=0.051540833333333334
EXTRACT: note_on channel=9 note=42 velocity=36 time=0
EXTRACT: note_on channel=9 note=70 velocity=113 time=0
EXTRACT: note_on channel=3 note=67 velocity=52 time=0.012885208333333334
EXTRACT: note_on channel=3 note=70 velocity=52 time=0
EXTRACT: note_on channel=9 note=54 velocity=117 time=0
EXTRACT: note_on channel=3 note=75 velocity=52 time=0.012885208333333334
EXTRACT: note_off channel=3 note=63 velocity=0 time=0.038655625
EXTRACT: note_off channel=9 note=54 velocity=0 time=0
EXTRACT: note_off channel=9 note=70 velocity=0 time=0
EXTRACT: note_off channel=9 note=42 velocity=0 time=0
EXTRACT: note_off channel=3 note=70 velocity=0 time=0.012885208333333334
EXTRACT: note_off channel=3 note=67 velocity=0 time=0
EXTRACT: note_off channel=3 note=75 velocity=0 time=0.012885208333333334
EXTRACT: note_off channel=2 note=39 velocity=0 time=0.038655625
EXTRACT: note_on channel=2 note=39 velocity=125 time=0.025770416666666667
EXTRACT: note_on channel=9 note=36 velocity=110 time=0
EXTRACT: note_on channel=9 note=70 velocity=60 time=0
EXTRACT: note_on channel=3 note=75 velocity=50 time=0.012885208333333334
EXTRACT: note_on channel=3 note=70 velocity=50 time=0
EXTRACT: note_on channel=9 note=54 velocity=69 time=0
EXTRACT: note_on channel=3 note=67 velocity=50 time=0.012885208333333334
EXTRACT: note_on channel=3 note=63 velocity=50 time=0
EXTRACT: control_change channel=3 control=64 value=0 time=0.012885208333333334
EXTRACT: note_off channel=3 note=75 velocity=0 time=0.025770416666666667
EXTRACT: note_off channel=9 note=54 velocity=0 time=0
EXTRACT: note_off channel=9 note=70 velocity=0 time=0
EXTRACT: note_off channel=9 note=36 velocity=0 time=0
EXTRACT: note_off channel=3 note=67 velocity=0 time=0.012885208333333334
EXTRACT: note_off channel=3 note=70 velocity=0 time=0
EXTRACT: note_off channel=3 note=63 velocity=0 time=0.012885208333333334
EXTRACT: control_change channel=3 control=64 value=127 time=0
EXTRACT: note_on channel=9 note=40 velocity=100 time=0.06442604166666667
EXTRACT: note_on channel=3 note=63 velocity=75 time=0.012885208333333334
EXTRACT: note_on channel=9 note=90 velocity=127 time=0
EXTRACT: note_on channel=9 note=44 velocity=71 time=0
EXTRACT: note_on channel=9 note=42 velocity=71 time=0
EXTRACT: note_on channel=9 note=70 velocity=40 time=0
EXTRACT: note_on channel=9 note=54 velocity=127 time=0
EXTRACT: note_on channel=3 note=67 velocity=75 time=0.012885208333333334
EXTRACT: note_on channel=3 note=70 velocity=75 time=0.012885208333333334
EXTRACT: note_on channel=3 note=75 velocity=75 time=0
EXTRACT: note_off channel=10 note=63 velocity=0 time=0
EXTRACT: note_off channel=3 note=63 velocity=0 time=0.025770416666666667
EXTRACT: note_off channel=9 note=54 velocity=0 time=0
EXTRACT: note_off channel=9 note=70 velocity=0 time=0
EXTRACT: note_off channel=9 note=42 velocity=0 time=0
EXTRACT: note_off channel=9 note=44 velocity=0 time=0
EXTRACT: note_off channel=3 note=67 velocity=0 time=0.012885208333333334
EXTRACT: note_off channel=3 note=75 velocity=0 time=0.012885208333333334
EXTRACT: note_off channel=3 note=70 velocity=0 time=0
EXTRACT: note_off channel=2 note=39 velocity=0 time=0.051540833333333334
EXTRACT: note_off channel=9 note=90 velocity=0 time=0
EXTRACT: note_off channel=9 note=40 velocity=0 time=0
EXTRACT: note_on channel=3 note=75 velocity=54 time=0.012885208333333334
EXTRACT: note_on channel=9 note=70 velocity=64 time=0
EXTRACT: note_on channel=9 note=54 velocity=64 time=0
EXTRACT: note_on channel=10 note=63 velocity=110 time=0
EXTRACT: note_on channel=3 note=70 velocity=54 time=0.012885208333333334
EXTRACT: note_on channel=3 note=67 velocity=54 time=0.012885208333333334
EXTRACT: note_on channel=3 note=63 velocity=54 time=0.012885208333333334
EXTRACT: note_off channel=3 note=75 velocity=0 time=0.025770416666666667
EXTRACT: note_off channel=9 note=54 velocity=0 time=0
EXTRACT: note_off channel=9 note=70 velocity=0 time=0
EXTRACT: note_off channel=3 note=70 velocity=0 time=0.012885208333333334
EXTRACT: note_off channel=10 note=63 velocity=0 time=0
EXTRACT: note_off channel=3 note=67 velocity=0 time=0.012885208333333334
EXTRACT: note_off channel=3 note=63 velocity=0 time=0.012885208333333334
EXTRACT: note_on channel=3 note=63 velocity=50 time=0.051540833333333334
EXTRACT: note_on channel=9 note=42 velocity=40 time=0
EXTRACT: note_on channel=9 note=70 velocity=110 time=0
EXTRACT: note_on channel=3 note=67 velocity=50 time=0.012885208333333334
EXTRACT: note_on channel=9 note=54 velocity=111 time=0
EXTRACT: note_on channel=10 note=63 velocity=92 time=0
EXTRACT: note_on channel=3 note=70 velocity=50 time=0.012885208333333334
EXTRACT: note_on channel=3 note=75 velocity=50 time=0
EXTRACT: note_off channel=3 note=63 velocity=0 time=0.038655625
EXTRACT: note_off channel=9 note=54 velocity=0 time=0
EXTRACT: note_off channel=9 note=70 velocity=0 time=0
EXTRACT: note_off channel=9 note=42 velocity=0 time=0
EXTRACT: note_off channel=3 note=70 velocity=0 time=0.012885208333333334
EXTRACT: note_off channel=3 note=67 velocity=0 time=0
EXTRACT: note_off channel=3 note=75 velocity=0 time=0.012885208333333334
EXTRACT: control_change channel=3 control=64 value=0 time=0.051540833333333334
EXTRACT: note_off channel=4 note=67 velocity=0 time=0
EXTRACT: note_off channel=4 note=63 velocity=0 time=0
EXTRACT: note_on channel=4 note=63 velocity=127 time=0
EXTRACT: note_on channel=4 note=68 velocity=127 time=0
EXTRACT: control_change channel=3 control=64 value=127 time=0.012885208333333334
EXTRACT: note_on channel=3 note=75 velocity=69 time=0.012885208333333334
EXTRACT: note_on channel=9 note=70 velocity=64 time=0
EXTRACT: note_on channel=10 note=65 velocity=115 time=0
EXTRACT: note_on channel=3 note=72 velocity=69 time=0.012885208333333334
EXTRACT: note_on channel=9 note=54 velocity=58 time=0
EXTRACT: note_off channel=10 note=63 velocity=0 time=0
EXTRACT: note_on channel=3 note=68 velocity=69 time=0.012885208333333334
EXTRACT: note_on channel=3 note=63 velocity=69 time=0
EXTRACT: control_change channel=3 control=64 value=0 time=0.012885208333333334
EXTRACT: note_off channel=3 note=75 velocity=0 time=0.012885208333333334
EXTRACT: note_off channel=9 note=54 velocity=0 time=0
EXTRACT: note_off channel=9 note=70 velocity=0 time=0
EXTRACT: note_off channel=3 note=68 velocity=0 time=0.012885208333333334
EXTRACT: note_off channel=3 note=72 velocity=0 time=0
EXTRACT: note_off channel=10 note=65 velocity=0 time=0
EXTRACT: note_off channel=3 note=63 velocity=0 time=0.012885208333333334
EXTRACT: control_change channel=3 control=64 value=127 time=0
EXTRACT: note_on channel=9 note=42 velocity=69 time=0.06442604166666667
EXTRACT: note_on channel=2 note=32 velocity=110 time=0.012885208333333334
EXTRACT: note_on channel=9 note=44 velocity=69 time=0
EXTRACT: note_on channel=9 note=36 velocity=110 time=0
EXTRACT: note_on channel=9 note=70 velocity=40 time=0
EXTRACT: note_on channel=9 note=54 velocity=127 time=0
EXTRACT: note_on channel=10 note=65 velocity=97 time=0
EXTRACT: note_on channel=3 note=63 velocity=56 time=0.012885208333333334
EXTRACT: note_on channel=3 note=68 velocity=56 time=0
EXTRACT: note_on channel=3 note=72 velocity=56 time=0
EXTRACT: note_on channel=3 note=75 velocity=52 time=0.012885208333333334
EXTRACT: note_off channel=3 note=68 velocity=0 time=0.025770416666666667
EXTRACT: note_off channel=3 note=63 velocity=0 time=0
EXTRACT: note_off channel=9 note=54 velocity=0 time=0
EXTRACT: note_off channel=9 note=70 velocity=0 time=0
EXTRACT: note_off channel=9 note=36 velocity=0 time=0
EXTRACT: note_off channel=9 note=44 velocity=0 time=0
EXTRACT: note_off channel=9 note=42 velocity=0 time=0
EXTRACT: note_off channel=3 note=72 velocity=0 time=0.012885208333333334
EXTRACT: note_off channel=3 note=75 velocity=0 time=0.025770416666666667
EXTRACT: note_on channel=3 note=63 velocity=52 time=0.051540833333333334
EXTRACT: note_on channel=9 note=70 velocity=64 time=0
EXTRACT: note_on channel=9 note=54 velocity=56 time=0
EXTRACT: note_on channel=3 note=68 velocity=52 time=0.012885208333333334
EXTRACT: note_off channel=10 note=65 velocity=0 time=0
EXTRACT: note_on channel=3 note=72 velocity=52 time=0.012885208333333334
EXTRACT: note_on channel=3 note=75 velocity=52 time=0
EXTRACT: note_on channel=10 note=63 velocity=110 time=0
EXTRACT: note_off channel=3 note=63 velocity=0 time=0.038655625
EXTRACT: note_off channel=9 note=54 velocity=0 time=0
EXTRACT: note_off channel=9 note=70 velocity=0 time=0
EXTRACT: note_off channel=3 note=72 velocity=0 time=0.012885208333333334
EXTRACT: note_off channel=3 note=68 velocity=0 time=0
EXTRACT: note_off channel=3 note=75 velocity=0 time=0.012885208333333334
EXTRACT: note_off channel=10 note=63 velocity=0 time=0.012885208333333334
EXTRACT: note_on channel=9 note=36 velocity=110 time=0.051540833333333334
EXTRACT: note_on channel=9 note=42 velocity=38 time=0
EXTRACT: note_on channel=9 note=70 velocity=110 time=0
EXTRACT: note_on channel=3 note=75 velocity=52 time=0.012885208333333334
EXTRACT: note_on channel=9 note=54 velocity=99 time=0
EXTRACT: note_on channel=10 note=63 velocity=82 time=0
EXTRACT: note_on channel=3 note=72 velocity=52 time=0.012885208333333334
EXTRACT: note_on channel=3 note=68 velocity=52 time=0
EXTRACT: note_on channel=3 note=63 velocity=52 time=0.012885208333333334
EXTRACT: note_off channel=3 note=75 velocity=0 time=0.025770416666666667
EXTRACT: note_off channel=9 note=54 velocity=0 time=0
EXTRACT: note_off channel=9 note=70 velocity=0 time=0
EXTRACT: note_off channel=9 note=42 velocity=0 time=0
EXTRACT: note_off channel=9 note=36 velocity=0 time=0
EXTRACT: note_off channel=3 note=72 velocity=0 time=0.012885208333333334
EXTRACT: note_off channel=3 note=68 velocity=0 time=0.012885208333333334
EXTRACT: note_off channel=3 note=63 velocity=0 time=0.012885208333333334
EXTRACT: note_off channel=2 note=32 velocity=0 time=0.038655625
EXTRACT: note_on channel=2 note=39 velocity=110 time=0.012885208333333334
EXTRACT: note_on channel=3 note=75 velocity=54 time=0
EXTRACT: note_on channel=9 note=70 velocity=64 time=0
EXTRACT: note_on channel=9 note=54 velocity=52 time=0.012885208333333334
EXTRACT: note_off channel=10 note=63 velocity=0 time=0
EXTRACT: note_on channel=10 note=65 velocity=106 time=0
EXTRACT: note_on channel=3 note=72 velocity=54 time=0.012885208333333334
EXTRACT: note_on channel=3 note=68 velocity=54 time=0
EXTRACT: note_on channel=3 note=63 velocity=54 time=0
EXTRACT: control_change channel=3 control=64 value=0 time=0.025770416666666667
EXTRACT: note_off channel=3 note=75 velocity=0 time=0.012885208333333334
EXTRACT: note_off channel=9 note=54 velocity=0 time=0
EXTRACT: note_off channel=9 note=70 velocity=0 time=0
EXTRACT: note_off channel=3 note=72 velocity=0 time=0.012885208333333334
EXTRACT: note_off channel=10 note=65 velocity=0 time=0
EXTRACT: note_off channel=3 note=63 velocity=0 time=0.012885208333333334
EXTRACT: note_off channel=3 note=68 velocity=0 time=0
EXTRACT: note_off channel=2 note=39 velocity=0 time=0.012885208333333334
EXTRACT: note_off channel=4 note=68 velocity=0 time=0
EXTRACT: note_off channel=4 note=63 velocity=0 time=0
EXTRACT: note_on channel=4 note=62 velocity=127 time=0
EXTRACT: control_change channel=3 control=64 value=127 time=0.012885208333333334
EXTRACT: note_on channel=4 note=67 velocity=127 time=0
EXTRACT: note_on channel=9 note=40 velocity=100 time=0.038655625
EXTRACT: note_on channel=9 note=90 velocity=127 time=0.012885208333333334
EXTRACT: note_on channel=9 note=44 velocity=71 time=0
EXTRACT: note_on channel=9 note=42 velocity=71 time=0
EXTRACT: note_on channel=10 note=65 velocity=86 time=0
EXTRACT: note_on channel=2 note=29 velocity=110 time=0.012885208333333334
EXTRACT: note_on channel=3 note=62 velocity=73 time=0
EXTRACT: note_on channel=9 note=70 velocity=40 time=0
EXTRACT: note_on channel=9 note=54 velocity=127 time=0
EXTRACT: note_on channel=3 note=67 velocity=73 time=0.012885208333333334
EXTRACT: note_on channel=3 note=72 velocity=73 time=0
EXTRACT: note_on channel=3 note=74 velocity=73 time=0.012885208333333334
EXTRACT: note_off channel=3 note=62 velocity=0 time=0.012885208333333334
EXTRACT: note_off channel=9 note=54 velocity=0 time=0
EXTRACT: note_off channel=9 note=70 velocity=0 time=0
EXTRACT: note_off channel=9 note=42 velocity=0 time=0
EXTRACT: note_off channel=9 note=44 velocity=0 time=0
EXTRACT: note_off channel=3 note=67 velocity=0 time=0.012885208333333334
EXTRACT: note_off channel=3 note=74 velocity=0 time=0.012885208333333334
EXTRACT: note_off channel=3 note=72 velocity=0 time=0
EXTRACT: note_off channel=10 note=65 velocity=0 time=0.038655625
EXTRACT: note_off channel=2 note=29 velocity=0 time=0.012885208333333334
EXTRACT: note_off channel=9 note=90 velocity=0 time=0
EXTRACT: note_off channel=9 note=40 velocity=0 time=0
EXTRACT: note_on channel=2 note=31 velocity=110 time=0.012885208333333334
EXTRACT: note_on channel=9 note=70 velocity=73 time=0
EXTRACT: note_on channel=10 note=63 velocity=110 time=0
EXTRACT: note_on channel=3 note=74 velocity=50 time=0.012885208333333334
EXTRACT: note_on channel=9 note=54 velocity=64 time=0
EXTRACT: note_on channel=3 note=72 velocity=50 time=0.012885208333333334
EXTRACT: note_on channel=3 note=67 velocity=50 time=0
EXTRACT: note_on channel=3 note=62 velocity=52 time=0.012885208333333334
EXTRACT: note_off channel=3 note=74 velocity=0 time=0.025770416666666667
EXTRACT: note_off channel=9 note=54 velocity=0 time=0
EXTRACT: note_off channel=9 note=70 velocity=0 time=0
EXTRACT: note_off channel=3 note=72 velocity=0 time=0.012885208333333334
EXTRACT: note_off channel=3 note=67 velocity=0 time=0.012885208333333334
EXTRACT: note_off channel=10 note=63 velocity=0 time=0
EXTRACT: note_off channel=3 note=62 velocity=0 time=0.012885208333333334
EXTRACT: note_on channel=3 note=62 velocity=52 time=0.051540833333333334
EXTRACT: note_on channel=9 note=42 velocity=42 time=0
EXTRACT: note_on channel=9 note=70 velocity=107 time=0
EXTRACT: note_on channel=3 note=67 velocity=52 time=0.012885208333333334
EXTRACT: note_on channel=3 note=72 velocity=52 time=0
EXTRACT: note_on channel=9 note=54 velocity=101 time=0
EXTRACT: note_on channel=10 note=63 velocity=93 time=0
EXTRACT: note_on channel=3 note=74 velocity=52 time=0.012885208333333334
EXTRACT: note_off channel=3 note=62 velocity=0 time=0.038655625
EXTRACT: note_off channel=9 note=54 velocity=0 time=0
EXTRACT: note_off channel=9 note=70 velocity=0 time=0
EXTRACT: note_off channel=9 note=42 velocity=0 time=0
EXTRACT: note_off channel=3 note=72 velocity=0 time=0.012885208333333334
EXTRACT: note_off channel=3 note=67 velocity=0 time=0
EXTRACT: note_off channel=3 note=74 velocity=0 time=0.012885208333333334
EXTRACT: note_on channel=3 note=74 velocity=52 time=0.06442604166666667
EXTRACT: note_on channel=9 note=70 velocity=67 time=0
EXTRACT: note_on channel=10 note=65 velocity=107 time=0
EXTRACT: note_on channel=3 note=72 velocity=52 time=0.012885208333333334
EXTRACT: note_on channel=9 note=54 velocity=58 time=0
EXTRACT: note_off channel=10 note=63 velocity=0 time=0
EXTRACT: note_on channel=3 note=67 velocity=52 time=0.012885208333333334
EXTRACT: note_on channel=3 note=62 velocity=52 time=0
EXTRACT: note_off channel=2 note=31 velocity=0 time=0.012885208333333334
EXTRACT: note_off channel=3 note=62 velocity=0 time=0
EXTRACT: note_off channel=3 note=67 velocity=0 time=0
EXTRACT: note_off channel=3 note=72 velocity=0 time=0
EXTRACT: note_off channel=3 note=74 velocity=0 time=0
EXTRACT: control_change channel=3 control=64 value=0 time=0
EXTRACT: note_off channel=4 note=67 velocity=0 time=0
EXTRACT: note_off channel=4 note=62 velocity=0 time=0
EXTRACT: note_on channel=4 note=60 velocity=127 time=0.012885208333333334
EXTRACT: note_on channel=4 note=65 velocity=127 time=0
EXTRACT: control_change channel=3 control=64 value=127 time=0.012885208333333334
EXTRACT: note_off channel=9 note=54 velocity=0 time=0
EXTRACT: note_off channel=9 note=70 velocity=0 time=0
EXTRACT: control_change channel=3 control=64 value=0 time=0.012885208333333334
EXTRACT: control_change channel=3 control=64 value=127 time=0.012885208333333334
EXTRACT: note_off channel=10 note=65 velocity=0 time=0.051540833333333334
EXTRACT: note_on channel=9 note=36 velocity=127 time=0.012885208333333334
EXTRACT: note_on channel=2 note=29 velocity=127 time=0.012885208333333334
EXTRACT: note_on channel=9 note=44 velocity=69 time=0
EXTRACT: note_on channel=9 note=42 velocity=69 time=0
EXTRACT: note_on channel=9 note=70 velocity=40 time=0
EXTRACT: note_on channel=10 note=67 velocity=127 time=0
EXTRACT: control_change channel=3 control=64 value=127 time=0.012885208333333334
EXTRACT: note_on channel=3 note=60 velocity=81 time=0
EXTRACT: note_on channel=3 note=65 velocity=81 time=0
EXTRACT: note_on channel=9 note=54 velocity=127 time=0
EXTRACT: note_on channel=3 note=68 velocity=81 time=0.012885208333333334
EXTRACT: note_on channel=3 note=72 velocity=81 time=0
EXTRACT: note_off channel=3 note=60 velocity=0 time=0.025770416666666667
EXTRACT: note_off channel=9 note=54 velocity=0 time=0
EXTRACT: note_off channel=9 note=70 velocity=0 time=0
EXTRACT: note_off channel=3 note=65 velocity=0 time=0.012885208333333334
EXTRACT: note_off channel=3 note=72 velocity=0 time=0.012885208333333334
EXTRACT: note_off channel=3 note=68 velocity=0 time=0
EXTRACT: note_off channel=9 note=42 velocity=0 time=0.051540833333333334
EXTRACT: note_off channel=9 note=44 velocity=0 time=0
EXTRACT: note_off channel=9 note=36 velocity=0 time=0
EXTRACT: note_on channel=3 note=72 velocity=54 time=0.012885208333333334
EXTRACT: note_on channel=9 note=70 velocity=69 time=0
EXTRACT: note_on channel=9 note=54 velocity=71 time=0
EXTRACT: note_on channel=3 note=68 velocity=54 time=0.012885208333333334
EXTRACT: note_on channel=3 note=65 velocity=54 time=0.012885208333333334
EXTRACT: note_on channel=3 note=60 velocity=50 time=0.012885208333333334
EXTRACT: note_off channel=3 note=72 velocity=0 time=0.025770416666666667
EXTRACT: note_off channel=9 note=54 velocity=0 time=0
EXTRACT: note_off channel=9 note=70 velocity=0 time=0
EXTRACT: note_off channel=3 note=68 velocity=0 time=0.012885208333333334
EXTRACT: note_off channel=10 note=67 velocity=0 time=0
EXTRACT: note_off channel=3 note=65 velocity=0 time=0.012885208333333334
EXTRACT: note_off channel=3 note=60 velocity=0 time=0.012885208333333334
EXTRACT: note_on channel=3 note=60 velocity=52 time=0.051540833333333334
EXTRACT: note_on channel=9 note=42 velocity=36 time=0
EXTRACT: note_on channel=9 note=70 velocity=113 time=0
EXTRACT: note_on channel=3 note=65 velocity=52 time=0.012885208333333334
EXTRACT: note_on channel=3 note=68 velocity=52 time=0
EXTRACT: note_on channel=9 note=54 velocity=117 time=0
EXTRACT: note_on channel=3 note=72 velocity=52 time=0.012885208333333334
EXTRACT: note_on channel=10 note=67 velocity=127 time=0
EXTRACT: note_off channel=3 note=60 velocity=0 time=0.038655625
EXTRACT: note_off channel=9 note=54 velocity=0 time=0
EXTRACT: note_off channel=9 note=70 velocity=0 time=0
EXTRACT: note_off channel=9 note=42 velocity=0 time=0
EXTRACT: note_off channel=3 note=68 velocity=0 time=0.012885208333333334
EXTRACT: note_off channel=3 note=65 velocity=0 time=0
EXTRACT: note_off channel=3 note=72 velocity=0 time=0.012885208333333334
EXTRACT: note_off channel=2 note=29 velocity=0 time=0.038655625
EXTRACT: note_on channel=2 note=29 velocity=125 time=0.025770416666666667
EXTRACT: note_on channel=9 note=36 velocity=110 time=0
EXTRACT: note_on channel=9 note=70 velocity=60 time=0
EXTRACT: note_on channel=4 note=60 velocity=92 time=0.012885208333333334
EXTRACT: note_off channel=4 note=60 velocity=0 time=0.051540833333333334
EXTRACT: note_off channel=9 note=70 velocity=0 time=0
EXTRACT: note_off channel=9 note=36 velocity=0 time=0
EXTRACT: note_off channel=2 note=29 velocity=0 time=0.07731125
EXTRACT: note_on channel=9 note=40 velocity=100 time=0.012885208333333334
EXTRACT: note_on channel=9 note=90 velocity=127 time=0
EXTRACT: note_on channel=3 note=60 velocity=110 time=0.012885208333333334
EXTRACT: note_on channel=9 note=44 velocity=71 time=0
EXTRACT: note_on channel=9 note=70 velocity=113 time=0
EXTRACT: note_on channel=9 note=49 velocity=73 time=0
EXTRACT: note_on channel=3 note=65 velocity=110 time=0.012885208333333334
EXTRACT: note_on channel=3 note=68 velocity=110 time=0
EXTRACT: note_on channel=3 note=72 velocity=110 time=0
EXTRACT: note_off channel=3 note=60 velocity=0 time=0.038655625
EXTRACT: note_off channel=9 note=49 velocity=0 time=0
EXTRACT: note_off channel=9 note=70 velocity=0 time=0
EXTRACT: note_off channel=9 note=44 velocity=0 time=0
EXTRACT: note_off channel=3 note=65 velocity=0 time=0.012885208333333334
EXTRACT: note_off channel=3 note=72 velocity=0 time=0.012885208333333334
EXTRACT: note_off channel=3 note=68 velocity=0 time=0
EXTRACT: note_off channel=9 note=90 velocity=0 time=0.051540833333333334
EXTRACT: note_off channel=9 note=40 velocity=0 time=0
EXTRACT: note_on channel=3 note=72 velocity=40 time=0.012885208333333334
EXTRACT: note_on channel=9 note=70 velocity=10 time=0
EXTRACT: note_on channel=3 note=68 velocity=40 time=0.012885208333333334
EXTRACT: note_on channel=3 note=65 velocity=40 time=0.012885208333333334
EXTRACT: note_on channel=3 note=60 velocity=40 time=0.012885208333333334
EXTRACT: note_off channel=3 note=72 velocity=0 time=0.025770416666666667
EXTRACT: note_off channel=9 note=70 velocity=0 time=0
EXTRACT: note_off channel=3 note=68 velocity=0 time=0.012885208333333334
EXTRACT: note_off channel=10 note=67 velocity=0 time=0
EXTRACT: note_off channel=3 note=65 velocity=0 time=0.012885208333333334
EXTRACT: note_off channel=3 note=60 velocity=0 time=0.012885208333333334
EXTRACT: note_on channel=3 note=60 velocity=46 time=0.051540833333333334
EXTRACT: note_on channel=9 note=70 velocity=24 time=0
EXTRACT: note_on channel=3 note=65 velocity=46 time=0.012885208333333334
EXTRACT: note_on channel=3 note=68 velocity=46 time=0
EXTRACT: note_on channel=3 note=72 velocity=46 time=0.012885208333333334
EXTRACT: note_on channel=10 note=63 velocity=110 time=0.012885208333333334
EXTRACT: note_off channel=3 note=60 velocity=0 time=0.025770416666666667
EXTRACT: note_off channel=9 note=70 velocity=0 time=0
EXTRACT: note_off channel=3 note=68 velocity=0 time=0.012885208333333334
EXTRACT: note_off channel=3 note=65 velocity=0 time=0
EXTRACT: note_off channel=3 note=72 velocity=0 time=0.012885208333333334
EXTRACT: note_on channel=3 note=72 velocity=77 time=0.06442604166666667
EXTRACT: note_on channel=9 note=36 velocity=110 time=0
EXTRACT: note_on channel=9 note=70 velocity=64 time=0
EXTRACT: note_on channel=3 note=69 velocity=77 time=0.012885208333333334
EXTRACT: note_on channel=3 note=65 velocity=77 time=0
EXTRACT: note_off channel=10 note=63 velocity=0 time=0
EXTRACT: note_off channel=3 note=65 velocity=0 time=0.012885208333333334
EXTRACT: note_off channel=3 note=69 velocity=0 time=0
EXTRACT: note_off channel=3 note=72 velocity=0 time=0
EXTRACT: control_change channel=3 control=64 value=0 time=0
EXTRACT: note_off channel=4 note=60 velocity=0 time=0
EXTRACT: control_change channel=4 control=0 value=0 time=0
EXTRACT: control_change channel=4 control=0 value=0 time=0
EXTRACT: control_change channel=4 control=32 value=0 time=0
EXTRACT: control_change channel=4 control=0 value=0 time=0
EXTRACT: control_change channel=4 control=32 value=0 time=0
EXTRACT: program_change channel=4 program=89 time=0
EXTRACT: note_off channel=4 note=65 velocity=0 time=0.012885208333333334
EXTRACT: note_on channel=4 note=62 velocity=127 time=0
EXTRACT: note_on channel=4 note=67 velocity=127 time=0
EXTRACT: control_change channel=3 control=64 value=127 time=0.012885208333333334
EXTRACT: note_on channel=3 note=62 velocity=77 time=0
EXTRACT: note_on channel=10 note=65 velocity=115 time=0
EXTRACT: note_off channel=9 note=70 velocity=0 time=0.012885208333333334
EXTRACT: note_off channel=9 note=36 velocity=0 time=0
EXTRACT: note_off channel=3 note=62 velocity=0 time=0.025770416666666667
EXTRACT: note_on channel=9 note=40 velocity=100 time=0.06442604166666667
EXTRACT: note_on channel=9 note=90 velocity=125 time=0
EXTRACT: note_on channel=2 note=31 velocity=110 time=0.012885208333333334
EXTRACT: note_on channel=4 note=62 velocity=116 time=0
EXTRACT: note_on channel=9 note=70 velocity=110 time=0
EXTRACT: note_on channel=9 note=44 velocity=40 time=0
EXTRACT: note_off channel=10 note=65 velocity=0 time=0
EXTRACT: note_on channel=10 note=67 velocity=127 time=0.025770416666666667
EXTRACT: note_off channel=4 note=62 velocity=0 time=0.025770416666666667
EXTRACT: note_off channel=9 note=44 velocity=0 time=0
EXTRACT: note_off channel=9 note=70 velocity=0 time=0
EXTRACT: note_off channel=9 note=90 velocity=0 time=0
EXTRACT: note_off channel=9 note=40 velocity=0 time=0
EXTRACT: note_on channel=3 note=62 velocity=93 time=0.09019645833333334
EXTRACT: note_on channel=9 note=70 velocity=10 time=0
EXTRACT: note_on channel=3 note=67 velocity=93 time=0.012885208333333334
EXTRACT: note_on channel=3 note=71 velocity=93 time=0
EXTRACT: note_on channel=3 note=74 velocity=93 time=0.012885208333333334
EXTRACT: note_off channel=3 note=62 velocity=0 time=0.038655625
EXTRACT: note_off channel=9 note=70 velocity=0 time=0
EXTRACT: note_off channel=3 note=71 velocity=0 time=0.012885208333333334
EXTRACT: note_off channel=3 note=67 velocity=0 time=0
EXTRACT: note_off channel=3 note=74 velocity=0 time=0.012885208333333334
EXTRACT: note_on channel=9 note=40 velocity=100 time=0.06442604166666667
EXTRACT: note_on channel=9 note=90 velocity=123 time=0
EXTRACT: note_on channel=9 note=70 velocity=24 time=0
EXTRACT: note_on channel=3 note=74 velocity=44 time=0.012885208333333334
EXTRACT: note_on channel=3 note=71 velocity=44 time=0
EXTRACT: note_on channel=3 note=67 velocity=44 time=0.012885208333333334
EXTRACT: note_on channel=3 note=62 velocity=44 time=0.012885208333333334
EXTRACT: note_off channel=2 note=31 velocity=0 time=0.025770416666666667
EXTRACT: note_off channel=3 note=74 velocity=0 time=0
EXTRACT: note_off channel=9 note=70 velocity=0 time=0
EXTRACT: note_off channel=9 note=90 velocity=0 time=0
EXTRACT: note_off channel=9 note=40 velocity=0 time=0
EXTRACT: note_off channel=3 note=71 velocity=0 time=0.012885208333333334
EXTRACT: note_off channel=3 note=67 velocity=0 time=0.012885208333333334
EXTRACT: note_off channel=3 note=62 velocity=0 time=0.012885208333333334
EXTRACT: note_on channel=2 note=31 velocity=125 time=0.051540833333333334
EXTRACT: note_on channel=9 note=36 velocity=110 time=0
EXTRACT: note_on channel=9 note=70 velocity=64 time=0
EXTRACT: note_on channel=4 note=62 velocity=113 time=0.012885208333333334
EXTRACT: note_off channel=4 note=62 velocity=0 time=0.038655625
EXTRACT: note_off channel=10 note=67 velocity=0 time=0
EXTRACT: note_off channel=9 note=70 velocity=0 time=0.012885208333333334
EXTRACT: note_off channel=9 note=36 velocity=0 time=0
EXTRACT: note_on channel=9 note=40 velocity=40 time=0.012885208333333334
EXTRACT: note_off channel=9 note=40 velocity=0 time=0.012885208333333334
EXTRACT: note_on channel=9 note=40 velocity=60 time=0.025770416666666667
EXTRACT: note_off channel=9 note=40 velocity=0 time=0.012885208333333334
EXTRACT: note_on channel=9 note=40 velocity=100 time=0.025770416666666667
EXTRACT: note_on channel=9 note=90 velocity=127 time=0
EXTRACT: note_on channel=3 note=62 velocity=83 time=0.012885208333333334
EXTRACT: note_on channel=3 note=67 velocity=83 time=0
EXTRACT: note_on channel=9 note=44 velocity=71 time=0
EXTRACT: note_on channel=9 note=70 velocity=110 time=0
EXTRACT: note_on channel=10 note=63 velocity=122 time=0
EXTRACT: note_on channel=3 note=71 velocity=83 time=0.012885208333333334
EXTRACT: note_on channel=3 note=74 velocity=83 time=0.012885208333333334
EXTRACT: note_off channel=3 note=67 velocity=0 time=0.025770416666666667
EXTRACT: note_off channel=3 note=62 velocity=0 time=0
EXTRACT: note_off channel=9 note=70 velocity=0 time=0
EXTRACT: note_off channel=9 note=44 velocity=0 time=0
EXTRACT: note_off channel=3 note=71 velocity=0 time=0.012885208333333334
EXTRACT: note_off channel=3 note=74 velocity=0 time=0.025770416666666667
EXTRACT: note_off channel=9 note=90 velocity=0 time=0.038655625
EXTRACT: note_off channel=9 note=40 velocity=0 time=0
EXTRACT: note_on channel=3 note=74 velocity=44 time=0.012885208333333334
EXTRACT: note_on channel=9 note=47 velocity=110 time=0
EXTRACT: note_on channel=9 note=70 velocity=10 time=0
EXTRACT: note_on channel=3 note=71 velocity=44 time=0.012885208333333334
EXTRACT: note_on channel=3 note=67 velocity=44 time=0.012885208333333334
EXTRACT: note_on channel=3 note=62 velocity=44 time=0
EXTRACT: note_off channel=3 note=74 velocity=0 time=0.038655625
EXTRACT: note_off channel=9 note=70 velocity=0 time=0
EXTRACT: note_off channel=9 note=47 velocity=0 time=0
EXTRACT: note_off channel=3 note=71 velocity=0 time=0.012885208333333334
EXTRACT: note_off channel=3 note=62 velocity=0 time=0.012885208333333334
EXTRACT: note_off channel=3 note=67 velocity=0 time=0
EXTRACT: note_off channel=2 note=31 velocity=0 time=0.012885208333333334
EXTRACT: note_on channel=2 note=31 velocity=125 time=0.051540833333333334
EXTRACT: note_on channel=9 note=45 velocity=110 time=0
EXTRACT: note_on channel=9 note=70 velocity=22 time=0
EXTRACT: note_on channel=4 note=62 velocity=96 time=0.012885208333333334
EXTRACT: note_off channel=4 note=62 velocity=0 time=0.025770416666666667
EXTRACT: note_off channel=9 note=70 velocity=0 time=0.025770416666666667
EXTRACT: note_off channel=9 note=45 velocity=0 time=0
EXTRACT: note_on channel=9 note=36 velocity=91 time=0.09019645833333334
EXTRACT: note_on channel=9 note=55 velocity=85 time=0
EXTRACT: note_on channel=9 note=70 velocity=67 time=0
EXTRACT: note_on channel=4 note=62 velocity=81 time=0.012885208333333334
EXTRACT: note_off channel=2 note=31 velocity=0 time=0.038655625
EXTRACT: control_change channel=3 control=64 value=0 time=0
EXTRACT: note_off channel=4 note=62 velocity=0 time=0
EXTRACT: note_off channel=4 note=62 velocity=0 time=0
EXTRACT: note_off channel=4 note=67 velocity=0 time=0
EXTRACT: control_change channel=3 control=64 value=127 time=0.012885208333333334
EXTRACT: note_on channel=4 note=60 velocity=127 time=0
EXTRACT: note_on channel=4 note=65 velocity=127 time=0
EXTRACT: note_off channel=9 note=70 velocity=0 time=0.012885208333333334
EXTRACT: note_off channel=9 note=55 velocity=0 time=0
EXTRACT: note_off channel=9 note=36 velocity=0 time=0
EXTRACT: note_off channel=10 note=63 velocity=0 time=0.051540833333333334
EXTRACT: control_change channel=3 control=64 value=0 time=0.012885208333333334
EXTRACT: note_off channel=4 note=65 velocity=0 time=0
EXTRACT: note_off channel=4 note=60 velocity=0 time=0
EXTRACT: control_change channel=4 control=0 value=0 time=0
EXTRACT: control_change channel=4 control=0 value=0 time=0
EXTRACT: control_change channel=4 control=32 value=0 time=0
EXTRACT: program_change channel=4 program=50 time=0
EXTRACT: note_on channel=10 note=60 velocity=115 time=0.025770416666666667
EXTRACT: note_on channel=4 note=60 velocity=127 time=0.012885208333333334
EXTRACT: program_change channel=9 program=0 time=0
EXTRACT: note_on channel=9 note=49 velocity=90 time=0
EXTRACT: program_change channel=9 program=32 time=0
EXTRACT: note_off channel=9 note=49 velocity=0 time=0.0016106510416666667
EXTRACT: note_on channel=2 note=29 velocity=127 time=0.011274557291666668
EXTRACT: note_on channel=4 note=65 velocity=127 time=0
EXTRACT: note_on channel=9 note=36 velocity=127 time=0
EXTRACT: note_on channel=9 note=44 velocity=69 time=0
EXTRACT: note_on channel=9 note=42 velocity=69 time=0
EXTRACT: control_change channel=3 control=64 value=127 time=0.012885208333333334
EXTRACT: note_on channel=3 note=60 velocity=81 time=0
EXTRACT: note_on channel=9 note=70 velocity=40 time=0
EXTRACT: note_on channel=9 note=54 velocity=127 time=0
EXTRACT: note_off channel=3 note=60 velocity=0 time=0.012885208333333334
EXTRACT: note_on channel=3 note=65 velocity=81 time=0
EXTRACT: note_off channel=9 note=54 velocity=0 time=0
EXTRACT: note_off channel=9 note=70 velocity=0 time=0
EXTRACT: note_off channel=3 note=65 velocity=0 time=0.012885208333333334
EXTRACT: note_on channel=3 note=68 velocity=81 time=0
EXTRACT: note_on channel=3 note=72 velocity=81 time=0
EXTRACT: note_off channel=3 note=72 velocity=0 time=0.012885208333333334
EXTRACT: note_off channel=3 note=68 velocity=0 time=0
EXTRACT: note_off channel=9 note=42 velocity=0 time=0.051540833333333334
EXTRACT: note_off channel=9 note=44 velocity=0 time=0
EXTRACT: note_off channel=9 note=36 velocity=0 time=0
EXTRACT: note_on channel=3 note=72 velocity=54 time=0.012885208333333334
EXTRACT: note_on channel=9 note=70 velocity=64 time=0
EXTRACT: note_on channel=9 note=54 velocity=71 time=0
EXTRACT: note_on channel=3 note=68 velocity=54 time=0.012885208333333334
EXTRACT: note_on channel=3 note=65 velocity=54 time=0.012885208333333334
EXTRACT: note_on channel=3 note=60 velocity=50 time=0.012885208333333334
EXTRACT: note_off channel=3 note=72 velocity=0 time=0.025770416666666667
EXTRACT: note_off channel=9 note=54 velocity=0 time=0
EXTRACT: note_off channel=9 note=70 velocity=0 time=0
EXTRACT: note_off channel=3 note=68 velocity=0 time=0.012885208333333334
EXTRACT: note_off channel=3 note=65 velocity=0 time=0.012885208333333334
EXTRACT: note_off channel=3 note=60 velocity=0 time=0.012885208333333334
EXTRACT: note_on channel=3 note=60 velocity=52 time=0.051540833333333334
EXTRACT: note_on channel=9 note=42 velocity=36 time=0
EXTRACT: note_on channel=9 note=70 velocity=113 time=0
EXTRACT: note_on channel=3 note=65 velocity=52 time=0.012885208333333334
EXTRACT: note_on channel=3 note=68 velocity=52 time=0
EXTRACT: note_on channel=9 note=54 velocity=117 time=0
EXTRACT: note_on channel=3 note=72 velocity=52 time=0.012885208333333334
EXTRACT: note_off channel=3 note=60 velocity=0 time=0.038655625
EXTRACT: note_off channel=9 note=54 velocity=0 time=0
EXTRACT: note_off channel=9 note=70 velocity=0 time=0
EXTRACT: note_off channel=9 note=42 velocity=0 time=0
EXTRACT: note_off channel=3 note=68 velocity=0 time=0.012885208333333334
EXTRACT: note_off channel=3 note=65 velocity=0 time=0
EXTRACT: note_off channel=3 note=72 velocity=0 time=0.012885208333333334
EXTRACT: note_off channel=2 note=29 velocity=0 time=0.038655625
EXTRACT: note_on channel=2 note=29 velocity=125 time=0.025770416666666667
EXTRACT: note_on channel=9 note=36 velocity=99 time=0
EXTRACT: note_on channel=9 note=70 velocity=60 time=0
EXTRACT: note_on channel=3 note=72 velocity=50 time=0.012885208333333334
EXTRACT: note_on channel=3 note=68 velocity=50 time=0
EXTRACT: note_on channel=9 note=54 velocity=69 time=0
EXTRACT: note_on channel=3 note=65 velocity=50 time=0.012885208333333334
EXTRACT: note_on channel=3 note=60 velocity=50 time=0
EXTRACT: control_change channel=3 control=64 value=0 time=0.012885208333333334
EXTRACT: note_off channel=3 note=72 velocity=0 time=0.025770416666666667
EXTRACT: note_off channel=9 note=54 velocity=0 time=0
EXTRACT: note_off channel=9 note=70 velocity=0 time=0
EXTRACT: note_off channel=9 note=36 velocity=0 time=0
EXTRACT: note_off channel=3 note=65 velocity=0 time=0.012885208333333334
EXTRACT: note_off channel=3 note=68 velocity=0 time=0
EXTRACT: note_off channel=10 note=60 velocity=0 time=0
EXTRACT: note_off channel=3 note=60 velocity=0 time=0.012885208333333334
EXTRACT: control_change channel=3 control=64 value=127 time=0
EXTRACT: note_on channel=9 note=40 velocity=100 time=0.06442604166666667
EXTRACT: note_on channel=3 note=60 velocity=75 time=0.012885208333333334
EXTRACT: note_on channel=9 note=90 velocity=127 time=0
EXTRACT: note_on channel=9 note=44 velocity=71 time=0
EXTRACT: note_on channel=9 note=42 velocity=71 time=0
EXTRACT: note_on channel=9 note=70 velocity=40 time=0
EXTRACT: note_on channel=9 note=54 velocity=127 time=0
EXTRACT: note_on channel=3 note=65 velocity=75 time=0.012885208333333334
EXTRACT: note_on channel=3 note=68 velocity=75 time=0.012885208333333334
EXTRACT: note_on channel=3 note=72 velocity=75 time=0
EXTRACT: note_on channel=10 note=60 velocity=115 time=0.012885208333333334
EXTRACT: note_off channel=3 note=60 velocity=0 time=0.012885208333333334
EXTRACT: note_off channel=9 note=54 velocity=0 time=0
EXTRACT: note_off channel=9 note=70 velocity=0 time=0
EXTRACT: note_off channel=9 note=42 velocity=0 time=0
EXTRACT: note_off channel=9 note=44 velocity=0 time=0
EXTRACT: note_off channel=3 note=65 velocity=0 time=0.012885208333333334
EXTRACT: note_off channel=3 note=72 velocity=0 time=0.012885208333333334
EXTRACT: note_off channel=3 note=68 velocity=0 time=0
EXTRACT: note_off channel=10 note=60 velocity=0 time=0.038655625
EXTRACT: note_off channel=2 note=29 velocity=0 time=0.012885208333333334
EXTRACT: note_off channel=9 note=90 velocity=0 time=0
EXTRACT: note_off channel=9 note=40 velocity=0 time=0
EXTRACT: note_on channel=3 note=72 velocity=54 time=0.012885208333333334
EXTRACT: note_on channel=9 note=70 velocity=65 time=0
EXTRACT: note_on channel=9 note=54 velocity=64 time=0
EXTRACT: note_on channel=3 note=68 velocity=54 time=0.012885208333333334
EXTRACT: note_on channel=3 note=65 velocity=54 time=0.012885208333333334
EXTRACT: note_on channel=3 note=60 velocity=54 time=0.012885208333333334
EXTRACT: note_on channel=10 note=60 velocity=98 time=0.012885208333333334
EXTRACT: note_off channel=3 note=72 velocity=0 time=0.012885208333333334
EXTRACT: note_off channel=9 note=54 velocity=0 time=0
EXTRACT: note_off channel=9 note=70 velocity=0 time=0
EXTRACT: note_off channel=3 note=68 velocity=0 time=0.012885208333333334
EXTRACT: note_off channel=3 note=65 velocity=0 time=0.012885208333333334
EXTRACT: note_off channel=3 note=60 velocity=0 time=0.012885208333333334
EXTRACT: note_off channel=10 note=60 velocity=0 time=0.025770416666666667
EXTRACT: note_on channel=3 note=60 velocity=50 time=0.025770416666666667
EXTRACT: note_on channel=9 note=42 velocity=40 time=0
EXTRACT: note_on channel=9 note=70 velocity=110 time=0
EXTRACT: note_on channel=3 note=65 velocity=50 time=0.012885208333333334
EXTRACT: note_on channel=9 note=54 velocity=111 time=0
EXTRACT: note_on channel=3 note=68 velocity=50 time=0.012885208333333334
EXTRACT: note_on channel=3 note=72 velocity=50 time=0
EXTRACT: note_on channel=10 note=60 velocity=92 time=0
EXTRACT: note_off channel=3 note=60 velocity=0 time=0.038655625
EXTRACT: note_off channel=9 note=54 velocity=0 time=0
EXTRACT: note_off channel=9 note=70 velocity=0 time=0
EXTRACT: note_off channel=9 note=42 velocity=0 time=0
EXTRACT: note_off channel=3 note=68 velocity=0 time=0.012885208333333334
EXTRACT: note_off channel=3 note=65 velocity=0 time=0
EXTRACT: note_off channel=3 note=72 velocity=0 time=0.012885208333333334
EXTRACT: note_on channel=3 note=72 velocity=69 time=0.06442604166666667
EXTRACT: note_on channel=9 note=70 velocity=64 time=0
EXTRACT: note_on channel=9 note=54 velocity=58 time=0
EXTRACT: note_on channel=3 note=68 velocity=69 time=0.012885208333333334
EXTRACT: note_on channel=3 note=65 velocity=69 time=0
EXTRACT: note_on channel=3 note=60 velocity=69 time=0.012885208333333334
EXTRACT: note_on channel=10 note=62 velocity=115 time=0
EXTRACT: control_change channel=3 control=64 value=0 time=0.012885208333333334
EXTRACT: note_off channel=10 note=60 velocity=0 time=0.012885208333333334
EXTRACT: note_off channel=3 note=72 velocity=0 time=0.012885208333333334
EXTRACT: note_off channel=9 note=54 velocity=0 time=0
EXTRACT: note_off channel=9 note=70 velocity=0 time=0
EXTRACT: note_off channel=3 note=65 velocity=0 time=0.012885208333333334
EXTRACT: note_off channel=3 note=68 velocity=0 time=0
EXTRACT: note_off channel=3 note=60 velocity=0 time=0.012885208333333334
EXTRACT: control_change channel=3 control=64 value=127 time=0
EXTRACT: note_off channel=10 note=62 velocity=0 time=0
EXTRACT: control_change channel=3 control=64 value=0 time=0.012885208333333334
EXTRACT: note_off channel=4 note=65 velocity=0 time=0
EXTRACT: note_off channel=4 note=60 velocity=0 time=0
EXTRACT: note_on channel=4 note=62 velocity=127 time=0
EXTRACT: note_on channel=4 note=67 velocity=127 time=0
EXTRACT: control_change channel=3 control=64 value=127 time=0.012885208333333334
EXTRACT: note_on channel=2 note=31 velocity=110 time=0.038655625
EXTRACT: note_on channel=9 note=42 velocity=69 time=0
EXTRACT: note_on channel=3 note=62 velocity=56 time=0.012885208333333334
EXTRACT: note_on channel=9 note=44 velocity=69 time=0
EXTRACT: note_on channel=9 note=70 velocity=40 time=0
EXTRACT: note_on channel=9 note=54 velocity=127 time=0
EXTRACT: note_on channel=9 note=36 velocity=110 time=0
EXTRACT: note_on channel=3 note=67 velocity=56 time=0.012885208333333334
EXTRACT: note_on channel=3 note=71 velocity=56 time=0
EXTRACT: note_on channel=10 note=62 velocity=111 time=0
EXTRACT: note_on channel=3 note=74 velocity=52 time=0.012885208333333334
EXTRACT: note_on channel=10 note=65 velocity=111 time=0
EXTRACT: note_off channel=3 note=67 velocity=0 time=0.025770416666666667
EXTRACT: note_off channel=3 note=62 velocity=0 time=0
EXTRACT: note_off channel=9 note=36 velocity=0 time=0
EXTRACT: note_off channel=9 note=54 velocity=0 time=0
EXTRACT: note_off channel=9 note=70 velocity=0 time=0
EXTRACT: note_off channel=9 note=44 velocity=0 time=0
EXTRACT: note_off channel=9 note=42 velocity=0 time=0
EXTRACT: note_off channel=3 note=71 velocity=0 time=0.012885208333333334
EXTRACT: note_off channel=3 note=74 velocity=0 time=0.025770416666666667
EXTRACT: note_on channel=3 note=62 velocity=52 time=0.051540833333333334
EXTRACT: note_on channel=9 note=70 velocity=64 time=0
EXTRACT: note_on channel=9 note=54 velocity=56 time=0
EXTRACT: note_on channel=3 note=67 velocity=52 time=0.012885208333333334
EXTRACT: note_on channel=3 note=71 velocity=52 time=0
EXTRACT: note_on channel=3 note=74 velocity=52 time=0.012885208333333334
EXTRACT: note_off channel=3 note=62 velocity=0 time=0.038655625
EXTRACT: note_off channel=9 note=54 velocity=0 time=0
EXTRACT: note_off channel=9 note=70 velocity=0 time=0
EXTRACT: note_off channel=3 note=71 velocity=0 time=0.012885208333333334
EXTRACT: note_off channel=3 note=67 velocity=0 time=0
EXTRACT: note_off channel=3 note=74 velocity=0 time=0.012885208333333334
EXTRACT: note_on channel=3 note=74 velocity=52 time=0.06442604166666667
EXTRACT: note_on channel=9 note=42 velocity=38 time=0
EXTRACT: note_on channel=9 note=70 velocity=110 time=0
EXTRACT: note_on channel=3 note=71 velocity=52 time=0.012885208333333334
EXTRACT: note_on channel=9 note=54 velocity=99 time=0
EXTRACT: note_on channel=3 note=67 velocity=52 time=0.012885208333333334
EXTRACT: note_on channel=3 note=62 velocity=52 time=0.012885208333333334
EXTRACT: note_off channel=2 note=31 velocity=0 time=0.025770416666666667
EXTRACT: note_off channel=3 note=74 velocity=0 time=0
EXTRACT: note_off channel=9 note=54 velocity=0 time=0
EXTRACT: note_off channel=9 note=70 velocity=0 time=0
EXTRACT: note_off channel=9 note=42 velocity=0 time=0
EXTRACT: note_off channel=3 note=71 velocity=0 time=0.012885208333333334
EXTRACT: note_off channel=3 note=67 velocity=0 time=0.012885208333333334
EXTRACT: note_off channel=10 note=65 velocity=0 time=0
EXTRACT: note_off channel=10 note=62 velocity=0 time=0
EXTRACT: note_off channel=3 note=62 velocity=0 time=0.012885208333333334
EXTRACT: note_on channel=2 note=31 velocity=125 time=0.051540833333333334
EXTRACT: note_on channel=9 note=70 velocity=64 time=0
EXTRACT: note_on channel=9 note=54 velocity=52 time=0
EXTRACT: note_on channel=3 note=74 velocity=54 time=0.012885208333333334
EXTRACT: note_on channel=3 note=71 velocity=54 time=0
EXTRACT: note_on channel=9 note=36 velocity=123 time=0
EXTRACT: note_on channel=3 note=67 velocity=54 time=0.012885208333333334
EXTRACT: note_on channel=3 note=62 velocity=54 time=0
EXTRACT: note_on channel=10 note=62 velocity=113 time=0
EXTRACT: note_on channel=10 note=65 velocity=111 time=0
EXTRACT: control_change channel=3 control=64 value=0 time=0.025770416666666667
EXTRACT: note_off channel=3 note=74 velocity=0 time=0.012885208333333334
EXTRACT: note_off channel=9 note=36 velocity=0 time=0
EXTRACT: note_off channel=9 note=54 velocity=0 time=0
EXTRACT: note_off channel=9 note=70 velocity=0 time=0
EXTRACT: note_off channel=3 note=71 velocity=0 time=0.012885208333333334
EXTRACT: note_off channel=3 note=62 velocity=0 time=0.012885208333333334
EXTRACT: note_off channel=3 note=67 velocity=0 time=0
EXTRACT: control_change channel=3 control=64 value=127 time=0.012885208333333334
EXTRACT: note_on channel=9 note=40 velocity=100 time=0.051540833333333334
EXTRACT: note_on channel=3 note=62 velocity=73 time=0.012885208333333334
EXTRACT: note_on channel=9 note=90 velocity=127 time=0
EXTRACT: note_on channel=9 note=44 velocity=71 time=0
EXTRACT: note_on channel=9 note=42 velocity=71 time=0
EXTRACT: note_on channel=9 note=70 velocity=40 time=0
EXTRACT: note_on channel=9 note=54 velocity=127 time=0
EXTRACT: note_on channel=3 note=67 velocity=73 time=0.012885208333333334
EXTRACT: note_on channel=3 note=71 velocity=73 time=0
EXTRACT: note_on channel=3 note=74 velocity=73 time=0.012885208333333334
EXTRACT: note_off channel=3 note=62 velocity=0 time=0.025770416666666667
EXTRACT: note_off channel=9 note=54 velocity=0 time=0
EXTRACT: note_off channel=9 note=70 velocity=0 time=0
EXTRACT: note_off channel=9 note=42 velocity=0 time=0
EXTRACT: note_off channel=9 note=44 velocity=0 time=0
EXTRACT: note_off channel=3 note=67 velocity=0 time=0.012885208333333334
EXTRACT: note_off channel=3 note=74 velocity=0 time=0.012885208333333334
EXTRACT: note_off channel=3 note=71 velocity=0 time=0
EXTRACT: note_off channel=10 note=62 velocity=0 time=0
EXTRACT: note_off channel=10 note=65 velocity=0 time=0.012885208333333334
EXTRACT: note_off channel=9 note=90 velocity=0 time=0.038655625
EXTRACT: note_off channel=9 note=40 velocity=0 time=0
EXTRACT: note_on channel=3 note=74 velocity=50 time=0.012885208333333334
EXTRACT: note_on channel=9 note=70 velocity=60 time=0
EXTRACT: note_on channel=9 note=54 velocity=64 time=0
EXTRACT: note_on channel=3 note=71 velocity=50 time=0.012885208333333334
EXTRACT: note_on channel=10 note=62 velocity=98 time=0
EXTRACT: note_on channel=3 note=67 velocity=50 time=0.012885208333333334
EXTRACT: note_on channel=10 note=67 velocity=106 time=0
EXTRACT: note_on channel=3 note=62 velocity=52 time=0.012885208333333334
EXTRACT: note_off channel=3 note=74 velocity=0 time=0.025770416666666667
EXTRACT: note_off channel=9 note=54 velocity=0 time=0
EXTRACT: note_off channel=9 note=70 velocity=0 time=0
EXTRACT: note_off channel=3 note=71 velocity=0 time=0.012885208333333334
EXTRACT: note_off channel=3 note=67 velocity=0 time=0.012885208333333334
EXTRACT: note_off channel=2 note=31 velocity=0 time=0.012885208333333334
EXTRACT: note_off channel=3 note=62 velocity=0 time=0
EXTRACT: note_on channel=2 note=31 velocity=125 time=0.051540833333333334
EXTRACT: note_on channel=9 note=42 velocity=42 time=0
EXTRACT: note_on channel=3 note=62 velocity=52 time=0.012885208333333334
EXTRACT: note_on channel=9 note=70 velocity=107 time=0
EXTRACT: note_on channel=9 note=36 velocity=119 time=0
EXTRACT: note_on channel=9 note=54 velocity=101 time=0
EXTRACT: note_on channel=3 note=67 velocity=52 time=0.012885208333333334
EXTRACT: note_on channel=3 note=71 velocity=52 time=0
EXTRACT: note_on channel=3 note=74 velocity=52 time=0
EXTRACT: note_off channel=3 note=62 velocity=0 time=0.038655625
EXTRACT: note_off channel=9 note=54 velocity=0 time=0
EXTRACT: note_off channel=9 note=36 velocity=0 time=0
EXTRACT: note_off channel=9 note=70 velocity=0 time=0
EXTRACT: note_off channel=9 note=42 velocity=0 time=0
EXTRACT: note_off channel=10 note=62 velocity=0 time=0
EXTRACT: note_off channel=3 note=71 velocity=0 time=0.012885208333333334
EXTRACT: note_off channel=3 note=67 velocity=0 time=0
EXTRACT: note_off channel=3 note=74 velocity=0 time=0.012885208333333334
EXTRACT: note_off channel=10 note=67 velocity=0 time=0
EXTRACT: note_on channel=3 note=74 velocity=52 time=0.06442604166666667
EXTRACT: note_on channel=9 note=70 velocity=67 time=0
EXTRACT: note_on channel=9 note=54 velocity=58 time=0
EXTRACT: note_on channel=3 note=71 velocity=52 time=0.012885208333333334
EXTRACT: note_on channel=10 note=60 velocity=127 time=0
EXTRACT: note_on channel=10 note=65 velocity=127 time=0
EXTRACT: note_on channel=3 note=67 velocity=52 time=0.012885208333333334
EXTRACT: note_on channel=3 note=62 velocity=52 time=0
EXTRACT: control_change channel=3 control=64 value=0 time=0.025770416666666667
EXTRACT: note_off channel=2 note=31 velocity=0 time=0.012885208333333334
EXTRACT: note_off channel=3 note=62 velocity=0 time=0
EXTRACT: note_off channel=3 note=67 velocity=0 time=0
EXTRACT: note_off channel=3 note=71 velocity=0 time=0
EXTRACT: note_off channel=3 note=74 velocity=0 time=0
EXTRACT: note_off channel=4 note=67 velocity=0 time=0
EXTRACT: note_off channel=4 note=62 velocity=0 time=0
EXTRACT: note_on channel=4 note=60 velocity=127 time=0.012885208333333334
EXTRACT: note_on channel=4 note=63 velocity=127 time=0
EXTRACT: control_change channel=3 control=64 value=127 time=0.012885208333333334
EXTRACT: note_off channel=9 note=54 velocity=0 time=0
EXTRACT: note_off channel=9 note=70 velocity=0 time=0
EXTRACT: note_on channel=9 note=42 velocity=69 time=0.06442604166666667
EXTRACT: note_on channel=2 note=36 velocity=121 time=0.012885208333333334
EXTRACT: control_change channel=3 control=64 value=127 time=0
EXTRACT: note_on channel=9 note=44 velocity=69 time=0
EXTRACT: note_on channel=9 note=70 velocity=40 time=0
EXTRACT: note_on channel=9 note=54 velocity=127 time=0
EXTRACT: note_on channel=9 note=36 velocity=125 time=0
EXTRACT: note_on channel=3 note=60 velocity=81 time=0.012885208333333334
EXTRACT: note_on channel=3 note=63 velocity=81 time=0
EXTRACT: note_on channel=3 note=67 velocity=81 time=0.012885208333333334
EXTRACT: note_on channel=3 note=72 velocity=81 time=0
EXTRACT: note_off channel=3 note=60 velocity=0 time=0.025770416666666667
EXTRACT: note_off channel=9 note=36 velocity=0 time=0
EXTRACT: note_off channel=9 note=54 velocity=0 time=0
EXTRACT: note_off channel=9 note=70 velocity=0 time=0
EXTRACT: note_off channel=3 note=63 velocity=0 time=0.012885208333333334
EXTRACT: note_off channel=3 note=72 velocity=0 time=0.012885208333333334
EXTRACT: note_off channel=3 note=67 velocity=0 time=0
EXTRACT: note_off channel=9 note=44 velocity=0 time=0.051540833333333334
EXTRACT: note_off channel=9 note=42 velocity=0 time=0
EXTRACT: note_on channel=3 note=72 velocity=54 time=0.012885208333333334
EXTRACT: note_on channel=9 note=70 velocity=64 time=0
EXTRACT: note_on channel=9 note=54 velocity=71 time=0
EXTRACT: note_on channel=3 note=67 velocity=54 time=0.012885208333333334
EXTRACT: note_on channel=10 note=63 velocity=110 time=0
EXTRACT: note_on channel=3 note=63 velocity=54 time=0.012885208333333334
EXTRACT: note_off channel=10 note=60 velocity=0 time=0
EXTRACT: note_on channel=3 note=60 velocity=50 time=0.012885208333333334
EXTRACT: note_off channel=3 note=72 velocity=0 time=0.025770416666666667
EXTRACT: note_off channel=9 note=54 velocity=0 time=0
EXTRACT: note_off channel=9 note=70 velocity=0 time=0
EXTRACT: note_off channel=10 note=65 velocity=0 time=0
EXTRACT: note_off channel=3 note=67 velocity=0 time=0.012885208333333334
EXTRACT: note_off channel=3 note=63 velocity=0 time=0.012885208333333334
EXTRACT: note_off channel=3 note=60 velocity=0 time=0.012885208333333334
EXTRACT: note_on channel=3 note=60 velocity=52 time=0.051540833333333334
EXTRACT: note_on channel=9 note=42 velocity=36 time=0
EXTRACT: note_on channel=9 note=70 velocity=113 time=0
EXTRACT: note_on channel=3 note=63 velocity=52 time=0.012885208333333334
EXTRACT: note_on channel=3 note=67 velocity=52 time=0
EXTRACT: note_on channel=9 note=54 velocity=117 time=0
EXTRACT: note_on channel=3 note=72 velocity=52 time=0.012885208333333334
EXTRACT: note_on channel=10 note=60 velocity=115 time=0
EXTRACT: note_off channel=10 note=63 velocity=0 time=0.025770416666666667
EXTRACT: note_off channel=3 note=60 velocity=0 time=0.012885208333333334
EXTRACT: note_off channel=9 note=54 velocity=0 time=0
EXTRACT: note_off channel=9 note=70 velocity=0 time=0
EXTRACT: note_off channel=9 note=42 velocity=0 time=0
EXTRACT: note_off channel=3 note=67 velocity=0 time=0.012885208333333334
EXTRACT: note_off channel=3 note=63 velocity=0 time=0
EXTRACT: note_off channel=3 note=72 velocity=0 time=0.012885208333333334
EXTRACT: note_off channel=2 note=36 velocity=0 time=0.038655625
EXTRACT: note_on channel=9 note=36 velocity=110 time=0.025770416666666667
EXTRACT: note_on channel=9 note=70 velocity=60 time=0
EXTRACT: note_on channel=2 note=36 velocity=125 time=0.012885208333333334
EXTRACT: note_on channel=3 note=72 velocity=50 time=0
EXTRACT: note_on channel=3 note=67 velocity=50 time=0
EXTRACT: note_on channel=9 note=54 velocity=69 time=0
EXTRACT: note_on channel=3 note=63 velocity=50 time=0.012885208333333334
EXTRACT: control_change channel=10 control=0 value=0 time=0
EXTRACT: control_change channel=10 control=0 value=0 time=0
EXTRACT: control_change channel=10 control=32 value=0 time=0
EXTRACT: control_change channel=10 control=0 value=0 time=0
EXTRACT: control_change channel=10 control=32 value=0 time=0
EXTRACT: program_change channel=10 program=80 time=0
EXTRACT: control_change channel=10 control=93 value=0 time=0
EXTRACT: note_on channel=3 note=60 velocity=50 time=0.012885208333333334
EXTRACT: control_change channel=3 control=64 value=0 time=0
EXTRACT: note_off channel=3 note=72 velocity=0 time=0.025770416666666667
EXTRACT: note_off channel=9 note=54 velocity=0 time=0
EXTRACT: note_off channel=9 note=70 velocity=0 time=0
EXTRACT: note_off channel=9 note=36 velocity=0 time=0
EXTRACT: note_off channel=3 note=63 velocity=0 time=0.012885208333333334
EXTRACT: note_off channel=3 note=67 velocity=0 time=0
EXTRACT: note_off channel=3 note=60 velocity=0 time=0.012885208333333334
EXTRACT: control_change channel=3 control=64 value=127 time=0
EXTRACT: note_on channel=9 note=40 velocity=100 time=0.06442604166666667
EXTRACT: note_on channel=9 note=90 velocity=127 time=0.012885208333333334
EXTRACT: note_on channel=9 note=44 velocity=71 time=0
EXTRACT: note_on channel=9 note=42 velocity=71 time=0
EXTRACT: note_on channel=9 note=70 velocity=40 time=0
EXTRACT: note_on channel=10 note=63 velocity=86 time=0
EXTRACT: note_on channel=3 note=60 velocity=75 time=0.012885208333333334
EXTRACT: note_on channel=9 note=54 velocity=127 time=0
EXTRACT: note_on channel=10 note=67 velocity=90 time=0
EXTRACT: note_on channel=3 note=63 velocity=75 time=0.012885208333333334
EXTRACT: note_on channel=3 note=67 velocity=75 time=0
EXTRACT: note_off channel=10 note=60 velocity=0 time=0
EXTRACT: note_on channel=3 note=72 velocity=75 time=0.012885208333333334
EXTRACT: note_off channel=3 note=60 velocity=0 time=0.012885208333333334
EXTRACT: note_off channel=9 note=54 velocity=0 time=0
EXTRACT: note_off channel=9 note=70 velocity=0 time=0
EXTRACT: note_off channel=9 note=42 velocity=0 time=0
EXTRACT: note_off channel=9 note=44 velocity=0 time=0
EXTRACT: note_off channel=3 note=63 velocity=0 time=0.012885208333333334
EXTRACT: note_off channel=3 note=72 velocity=0 time=0.012885208333333334
EXTRACT: note_off channel=3 note=67 velocity=0 time=0
EXTRACT: note_off channel=2 note=36 velocity=0 time=0.051540833333333334
EXTRACT: note_off channel=9 note=90 velocity=0 time=0
EXTRACT: note_off channel=9 note=40 velocity=0 time=0
EXTRACT: note_on channel=3 note=72 velocity=54 time=0.012885208333333334
EXTRACT: note_on channel=9 note=70 velocity=64 time=0
EXTRACT: note_on channel=9 note=54 velocity=64 time=0
EXTRACT: note_on channel=3 note=67 velocity=54 time=0.012885208333333334
EXTRACT: note_on channel=3 note=63 velocity=54 time=0.012885208333333334
EXTRACT: note_on channel=3 note=60 velocity=54 time=0.012885208333333334
EXTRACT: note_off channel=3 note=72 velocity=0 time=0.025770416666666667
EXTRACT: note_off channel=9 note=54 velocity=0 time=0
EXTRACT: note_off channel=9 note=70 velocity=0 time=0
EXTRACT: note_off channel=3 note=67 velocity=0 time=0.012885208333333334
EXTRACT: note_off channel=3 note=63 velocity=0 time=0.012885208333333334
EXTRACT: note_off channel=3 note=60 velocity=0 time=0.012885208333333334
EXTRACT: note_off channel=10 note=67 velocity=0 time=0.012885208333333334
EXTRACT: note_off channel=10 note=63 velocity=0 time=0
EXTRACT: note_on channel=3 note=60 velocity=50 time=0.038655625
EXTRACT: note_on channel=9 note=42 velocity=40 time=0
EXTRACT: note_on channel=9 note=70 velocity=110 time=0
EXTRACT: note_on channel=3 note=63 velocity=50 time=0.012885208333333334
EXTRACT: note_on channel=9 note=54 velocity=111 time=0
EXTRACT: note_on channel=3 note=67 velocity=50 time=0.012885208333333334
EXTRACT: note_on channel=10 note=63 velocity=87 time=0
EXTRACT: note_on channel=10 note=67 velocity=92 time=0
EXTRACT: note_on channel=3 note=72 velocity=50 time=0.012885208333333334
EXTRACT: note_off channel=3 note=60 velocity=0 time=0.025770416666666667
EXTRACT: note_off channel=9 note=54 velocity=0 time=0
EXTRACT: note_off channel=9 note=70 velocity=0 time=0
EXTRACT: note_off channel=9 note=42 velocity=0 time=0
EXTRACT: note_off channel=3 note=67 velocity=0 time=0.012885208333333334
EXTRACT: note_off channel=3 note=63 velocity=0 time=0
EXTRACT: note_off channel=3 note=72 velocity=0 time=0.012885208333333334
EXTRACT: note_on channel=3 note=72 velocity=69 time=0.06442604166666667
EXTRACT: note_on channel=9 note=70 velocity=64 time=0
EXTRACT: note_on channel=9 note=54 velocity=58 time=0
EXTRACT: note_on channel=3 note=67 velocity=69 time=0.012885208333333334
EXTRACT: note_on channel=3 note=63 velocity=69 time=0
EXTRACT: note_on channel=3 note=60 velocity=69 time=0.012885208333333334
EXTRACT: control_change channel=3 control=64 value=0 time=0.012885208333333334
EXTRACT: note_off channel=3 note=72 velocity=0 time=0.025770416666666667
EXTRACT: note_off channel=9 note=54 velocity=0 time=0
EXTRACT: note_off channel=9 note=70 velocity=0 time=0
EXTRACT: note_off channel=3 note=63 velocity=0 time=0.012885208333333334
EXTRACT: note_off channel=3 note=67 velocity=0 time=0
EXTRACT: note_off channel=3 note=60 velocity=0 time=0.012885208333333334
EXTRACT: control_change channel=3 control=64 value=127 time=0
EXTRACT: note_off channel=10 note=67 velocity=0 time=0.038655625
EXTRACT: note_on channel=9 note=42 velocity=69 time=0.025770416666666667
EXTRACT: note_on channel=2 note=36 velocity=110 time=0.012885208333333334
EXTRACT: note_on channel=9 note=44 velocity=69 time=0
EXTRACT: note_on channel=9 note=36 velocity=110 time=0
EXTRACT: note_on channel=10 note=68 velocity=98 time=0
EXTRACT: note_on channel=10 note=65 velocity=80 time=0
EXTRACT: note_on channel=3 note=60 velocity=56 time=0.012885208333333334
EXTRACT: note_on channel=3 note=63 velocity=56 time=0
EXTRACT: note_on channel=3 note=67 velocity=56 time=0
EXTRACT: note_on channel=9 note=70 velocity=40 time=0
EXTRACT: note_on channel=9 note=54 velocity=127 time=0
EXTRACT: note_on channel=3 note=72 velocity=52 time=0.012885208333333334
EXTRACT: note_off channel=10 note=63 velocity=0 time=0
EXTRACT: note_off channel=3 note=63 velocity=0 time=0.025770416666666667
EXTRACT: note_off channel=3 note=60 velocity=0 time=0
EXTRACT: note_off channel=9 note=54 velocity=0 time=0
EXTRACT: note_off channel=9 note=70 velocity=0 time=0
EXTRACT: note_off channel=9 note=36 velocity=0 time=0
EXTRACT: note_off channel=9 note=44 velocity=0 time=0
EXTRACT: note_off channel=9 note=42 velocity=0 time=0
EXTRACT: note_off channel=3 note=67 velocity=0 time=0.012885208333333334
EXTRACT: note_off channel=3 note=72 velocity=0 time=0.025770416666666667
EXTRACT: note_on channel=3 note=60 velocity=52 time=0.051540833333333334
EXTRACT: note_on channel=9 note=70 velocity=64 time=0
EXTRACT: note_on channel=9 note=54 velocity=56 time=0
EXTRACT: note_on channel=3 note=63 velocity=52 time=0.012885208333333334
EXTRACT: note_on channel=3 note=67 velocity=52 time=0
EXTRACT: note_on channel=3 note=72 velocity=52 time=0.012885208333333334
EXTRACT: note_off channel=3 note=60 velocity=0 time=0.038655625
EXTRACT: note_off channel=9 note=54 velocity=0 time=0
EXTRACT: note_off channel=9 note=70 velocity=0 time=0
EXTRACT: note_off channel=10 note=68 velocity=0 time=0
EXTRACT: note_off channel=3 note=67 velocity=0 time=0.012885208333333334
EXTRACT: note_off channel=3 note=63 velocity=0 time=0
EXTRACT: note_off channel=3 note=72 velocity=0 time=0.012885208333333334
EXTRACT: note_off channel=10 note=65 velocity=0 time=0
EXTRACT: note_on channel=9 note=36 velocity=110 time=0.06442604166666667
EXTRACT: note_on channel=9 note=42 velocity=38 time=0
EXTRACT: note_on channel=3 note=72 velocity=52 time=0.012885208333333334
EXTRACT: note_on channel=9 note=70 velocity=110 time=0
EXTRACT: note_on channel=9 note=54 velocity=99 time=0
EXTRACT: note_on channel=3 note=67 velocity=52 time=0.012885208333333334
EXTRACT: note_on channel=3 note=63 velocity=52 time=0
EXTRACT: note_on channel=10 note=65 velocity=79 time=0
EXTRACT: note_on channel=3 note=60 velocity=52 time=0.012885208333333334
EXTRACT: note_on channel=10 note=68 velocity=122 time=0
EXTRACT: note_off channel=3 note=72 velocity=0 time=0.025770416666666667
EXTRACT: note_off channel=9 note=54 velocity=0 time=0
EXTRACT: note_off channel=9 note=70 velocity=0 time=0
EXTRACT: note_off channel=9 note=42 velocity=0 time=0
EXTRACT: note_off channel=9 note=36 velocity=0 time=0
EXTRACT: note_off channel=3 note=67 velocity=0 time=0.012885208333333334
EXTRACT: note_off channel=3 note=63 velocity=0 time=0.012885208333333334
EXTRACT: note_off channel=3 note=60 velocity=0 time=0.012885208333333334
EXTRACT: note_off channel=2 note=36 velocity=0 time=0.038655625
EXTRACT: note_on channel=2 note=31 velocity=110 time=0.012885208333333334
EXTRACT: note_on channel=9 note=70 velocity=64 time=0
EXTRACT: note_on channel=10 note=63 velocity=81 time=0
EXTRACT: note_on channel=3 note=72 velocity=54 time=0.012885208333333334
EXTRACT: note_on channel=9 note=54 velocity=52 time=0
EXTRACT: note_off channel=10 note=65 velocity=0 time=0
EXTRACT: note_on channel=3 note=67 velocity=54 time=0.012885208333333334
EXTRACT: note_on channel=3 note=63 velocity=54 time=0
EXTRACT: note_on channel=3 note=60 velocity=54 time=0
EXTRACT: control_change channel=3 control=64 value=0 time=0.025770416666666667
EXTRACT: note_on channel=10 note=67 velocity=64 time=0
EXTRACT: note_off channel=3 note=72 velocity=0 time=0.012885208333333334
EXTRACT: note_off channel=9 note=54 velocity=0 time=0
EXTRACT: note_off channel=9 note=70 velocity=0 time=0
EXTRACT: note_off channel=3 note=67 velocity=0 time=0.012885208333333334
EXTRACT: note_off channel=3 note=60 velocity=0 time=0.012885208333333334
EXTRACT: note_off channel=3 note=63 velocity=0 time=0
EXTRACT: note_off channel=10 note=68 velocity=0 time=0
EXTRACT: control_change channel=3 control=64 value=127 time=0.012885208333333334
EXTRACT: note_off channel=2 note=31 velocity=0 time=0.038655625
EXTRACT: note_on channel=9 note=40 velocity=100 time=0.012885208333333334
EXTRACT: note_on channel=2 note=34 velocity=110 time=0.012885208333333334
EXTRACT: note_on channel=9 note=90 velocity=127 time=0
EXTRACT: note_on channel=9 note=44 velocity=71 time=0
EXTRACT: note_on channel=9 note=42 velocity=71 time=0
EXTRACT: note_on channel=9 note=70 velocity=40 time=0
EXTRACT: note_on channel=3 note=60 velocity=73 time=0.012885208333333334
EXTRACT: note_on channel=3 note=63 velocity=73 time=0
EXTRACT: note_on channel=9 note=54 velocity=127 time=0
EXTRACT: note_on channel=3 note=67 velocity=73 time=0.012885208333333334
EXTRACT: note_on channel=3 note=72 velocity=73 time=0
EXTRACT: note_off channel=3 note=60 velocity=0 time=0.025770416666666667
EXTRACT: note_off channel=9 note=54 velocity=0 time=0
EXTRACT: note_off channel=9 note=70 velocity=0 time=0
EXTRACT: note_off channel=9 note=42 velocity=0 time=0
EXTRACT: note_off channel=9 note=44 velocity=0 time=0
EXTRACT: note_off channel=3 note=63 velocity=0 time=0.012885208333333334
EXTRACT: note_off channel=3 note=72 velocity=0 time=0.012885208333333334
EXTRACT: note_off channel=3 note=67 velocity=0 time=0
EXTRACT: note_off channel=2 note=34 velocity=0 time=0.051540833333333334
EXTRACT: note_off channel=9 note=90 velocity=0 time=0
EXTRACT: note_off channel=9 note=40 velocity=0 time=0
EXTRACT: note_on channel=2 note=36 velocity=110 time=0.012885208333333334
EXTRACT: note_on channel=9 note=70 velocity=73 time=0
EXTRACT: note_on channel=3 note=72 velocity=50 time=0.012885208333333334
EXTRACT: note_on channel=3 note=67 velocity=50 time=0
EXTRACT: note_on channel=9 note=54 velocity=64 time=0
EXTRACT: note_on channel=3 note=63 velocity=50 time=0.012885208333333334
EXTRACT: note_off channel=10 note=67 velocity=0 time=0
EXTRACT: note_on channel=10 note=65 velocity=82 time=0
EXTRACT: note_on channel=3 note=60 velocity=52 time=0.012885208333333334
EXTRACT: note_on channel=10 note=62 velocity=106 time=0
EXTRACT: note_off channel=10 note=63 velocity=0 time=0.012885208333333334
EXTRACT: note_off channel=3 note=72 velocity=0 time=0.012885208333333334
EXTRACT: note_off channel=9 note=54 velocity=0 time=0
EXTRACT: note_off channel=9 note=70 velocity=0 time=0
EXTRACT: note_off channel=3 note=67 velocity=0 time=0.012885208333333334
EXTRACT: note_off channel=3 note=63 velocity=0 time=0.012885208333333334
EXTRACT: note_off channel=3 note=60 velocity=0 time=0.012885208333333334
EXTRACT: note_on channel=3 note=60 velocity=52 time=0.051540833333333334
EXTRACT: note_on channel=9 note=42 velocity=42 time=0
EXTRACT: note_on channel=9 note=70 velocity=107 time=0
EXTRACT: note_on channel=3 note=63 velocity=52 time=0.012885208333333334
EXTRACT: note_on channel=3 note=67 velocity=52 time=0
EXTRACT: note_on channel=9 note=54 velocity=101 time=0
EXTRACT: note_on channel=3 note=72 velocity=52 time=0.012885208333333334
EXTRACT: note_off channel=3 note=60 velocity=0 time=0.038655625
EXTRACT: note_off channel=9 note=54 velocity=0 time=0
EXTRACT: note_off channel=9 note=70 velocity=0 time=0
EXTRACT: note_off channel=9 note=42 velocity=0 time=0
EXTRACT: note_off channel=3 note=67 velocity=0 time=0.012885208333333334
EXTRACT: note_off channel=3 note=63 velocity=0 time=0
EXTRACT: note_off channel=3 note=72 velocity=0 time=0.012885208333333334
EXTRACT: note_off channel=10 note=62 velocity=0 time=0
EXTRACT: note_off channel=10 note=65 velocity=0 time=0.012885208333333334
EXTRACT: note_on channel=3 note=72 velocity=52 time=0.051540833333333334
EXTRACT: note_on channel=9 note=70 velocity=67 time=0
EXTRACT: note_on channel=9 note=54 velocity=58 time=0
EXTRACT: note_on channel=3 note=67 velocity=52 time=0.012885208333333334
EXTRACT: note_on channel=3 note=63 velocity=52 time=0
EXTRACT: note_on channel=10 note=60 velocity=113 time=0
EXTRACT: note_on channel=3 note=60 velocity=52 time=0.012885208333333334
EXTRACT: note_on channel=10 note=63 velocity=81 time=0
EXTRACT: note_off channel=2 note=36 velocity=0 time=0.012885208333333334
EXTRACT: note_off channel=3 note=60 velocity=0 time=0
EXTRACT: note_off channel=3 note=63 velocity=0 time=0
EXTRACT: note_off channel=3 note=67 velocity=0 time=0
EXTRACT: note_off channel=3 note=72 velocity=0 time=0
EXTRACT: control_change channel=3 control=64 value=0 time=0
EXTRACT: note_off channel=4 note=63 velocity=0 time=0
EXTRACT: note_off channel=4 note=60 velocity=0 time=0
EXTRACT: note_on channel=4 note=60 velocity=127 time=0.012885208333333334
EXTRACT: note_on channel=4 note=65 velocity=127 time=0
EXTRACT: control_change channel=3 control=64 value=127 time=0.012885208333333334
EXTRACT: control_change channel=3 control=64 value=0 time=0
EXTRACT: note_off channel=9 note=54 velocity=0 time=0
EXTRACT: note_off channel=9 note=70 velocity=0 time=0
EXTRACT: control_change channel=3 control=64 value=127 time=0.025770416666666667
EXTRACT: note_on channel=9 note=36 velocity=127 time=0.06442604166666667
EXTRACT: note_on channel=2 note=29 velocity=127 time=0.012885208333333334
EXTRACT: control_change channel=3 control=64 value=127 time=0
EXTRACT: note_on channel=9 note=44 velocity=69 time=0
EXTRACT: note_on channel=9 note=42 velocity=69 time=0
EXTRACT: note_on channel=9 note=70 velocity=40 time=0
EXTRACT: note_on channel=9 note=54 velocity=127 time=0
EXTRACT: note_on channel=3 note=60 velocity=81 time=0.012885208333333334
EXTRACT: note_on channel=3 note=65 velocity=81 time=0
EXTRACT: note_on channel=3 note=68 velocity=81 time=0.012885208333333334
EXTRACT: note_on channel=3 note=72 velocity=81 time=0
EXTRACT: note_off channel=3 note=60 velocity=0 time=0.025770416666666667
EXTRACT: note_off channel=9 note=54 velocity=0 time=0
EXTRACT: note_off channel=9 note=70 velocity=0 time=0
EXTRACT: note_off channel=3 note=65 velocity=0 time=0.012885208333333334
EXTRACT: note_off channel=3 note=72 velocity=0 time=0.012885208333333334
EXTRACT: note_off channel=3 note=68 velocity=0 time=0
EXTRACT: note_off channel=10 note=60 velocity=0 time=0.012885208333333334
EXTRACT: note_off channel=10 note=63 velocity=0 time=0.012885208333333334
EXTRACT: note_off channel=9 note=42 velocity=0 time=0.025770416666666667
EXTRACT: note_off channel=9 note=44 velocity=0 time=0
EXTRACT: note_off channel=9 note=36 velocity=0 time=0
EXTRACT: note_on channel=3 note=72 velocity=54 time=0.012885208333333334
EXTRACT: note_on channel=9 note=70 velocity=69 time=0
EXTRACT: note_on channel=9 note=54 velocity=71 time=0
EXTRACT: note_on channel=3 note=68 velocity=54 time=0.012885208333333334
EXTRACT: note_on channel=10 note=60 velocity=91 time=0
EXTRACT: note_on channel=10 note=63 velocity=81 time=0
EXTRACT: note_on channel=3 note=65 velocity=54 time=0.012885208333333334
EXTRACT: note_on channel=10 note=67 velocity=97 time=0
EXTRACT: note_on channel=3 note=60 velocity=50 time=0.012885208333333334
EXTRACT: note_off channel=3 note=72 velocity=0 time=0.025770416666666667
EXTRACT: note_off channel=9 note=54 velocity=0 time=0
EXTRACT: note_off channel=9 note=70 velocity=0 time=0
EXTRACT: note_off channel=3 note=68 velocity=0 time=0.012885208333333334
EXTRACT: note_off channel=3 note=65 velocity=0 time=0.012885208333333334
EXTRACT: note_off channel=3 note=60 velocity=0 time=0.012885208333333334
EXTRACT: note_on channel=3 note=60 velocity=52 time=0.051540833333333334
EXTRACT: note_on channel=9 note=42 velocity=36 time=0
EXTRACT: note_on channel=9 note=70 velocity=113 time=0
EXTRACT: note_on channel=3 note=65 velocity=52 time=0.012885208333333334
EXTRACT: note_on channel=3 note=68 velocity=52 time=0
EXTRACT: note_on channel=9 note=54 velocity=117 time=0
EXTRACT: note_on channel=3 note=72 velocity=52 time=0.012885208333333334
EXTRACT: note_off channel=3 note=60 velocity=0 time=0.038655625
EXTRACT: note_off channel=9 note=54 velocity=0 time=0
EXTRACT: note_off channel=9 note=70 velocity=0 time=0
EXTRACT: note_off channel=9 note=42 velocity=0 time=0
EXTRACT: note_off channel=3 note=68 velocity=0 time=0.012885208333333334
EXTRACT: note_off channel=3 note=65 velocity=0 time=0
EXTRACT: note_off channel=3 note=72 velocity=0 time=0.012885208333333334
EXTRACT: note_off channel=2 note=29 velocity=0 time=0.038655625
EXTRACT: control_change channel=10 control=0 value=0 time=0.012885208333333334
EXTRACT: control_change channel=10 control=0 value=0 time=0
EXTRACT: control_change channel=10 control=32 value=0 time=0
EXTRACT: control_change channel=10 control=0 value=0 time=0
EXTRACT: control_change channel=10 control=32 value=0 time=0
EXTRACT: program_change channel=10 program=0 time=0
EXTRACT: control_change channel=10 control=93 value=0 time=0
EXTRACT: note_on channel=2 note=29 velocity=125 time=0.012885208333333334
EXTRACT: note_on channel=9 note=36 velocity=99 time=0
EXTRACT: note_on channel=9 note=70 velocity=60 time=0
EXTRACT: note_on channel=3 note=72 velocity=50 time=0.012885208333333334
EXTRACT: note_on channel=3 note=68 velocity=50 time=0
EXTRACT: note_on channel=9 note=54 velocity=69 time=0
EXTRACT: note_on channel=3 note=65 velocity=50 time=0.012885208333333334
EXTRACT: note_on channel=3 note=60 velocity=50 time=0
EXTRACT: control_change channel=3 control=64 value=0 time=0.012885208333333334
EXTRACT: note_off channel=3 note=72 velocity=0 time=0.025770416666666667
EXTRACT: note_off channel=9 note=54 velocity=0 time=0
EXTRACT: note_off channel=9 note=70 velocity=0 time=0
EXTRACT: note_off channel=9 note=36 velocity=0 time=0
EXTRACT: note_off channel=3 note=65 velocity=0 time=0.012885208333333334
EXTRACT: note_off channel=3 note=68 velocity=0 time=0
EXTRACT: note_off channel=10 note=60 velocity=0 time=0
EXTRACT: note_off channel=3 note=60 velocity=0 time=0.012885208333333334
EXTRACT: control_change channel=3 control=64 value=127 time=0
EXTRACT: note_off channel=10 note=63 velocity=0 time=0.051540833333333334
EXTRACT: note_on channel=9 note=40 velocity=100 time=0.012885208333333334
EXTRACT: note_on channel=9 note=90 velocity=127 time=0.012885208333333334
EXTRACT: note_on channel=9 note=44 velocity=71 time=0
EXTRACT: note_on channel=9 note=42 velocity=71 time=0
EXTRACT: note_on channel=9 note=70 velocity=40 time=0
EXTRACT: note_off channel=10 note=67 velocity=0 time=0
EXTRACT: note_on channel=3 note=60 velocity=75 time=0.012885208333333334
EXTRACT: note_on channel=9 note=54 velocity=127 time=0
EXTRACT: note_on channel=10 note=60 velocity=127 time=0
EXTRACT: note_on channel=3 note=65 velocity=75 time=0.012885208333333334
EXTRACT: note_on channel=3 note=68 velocity=75 time=0
EXTRACT: note_on channel=3 note=72 velocity=75 time=0
EXTRACT: note_off channel=3 note=60 velocity=0 time=0.025770416666666667
EXTRACT: note_off channel=9 note=54 velocity=0 time=0
EXTRACT: note_off channel=9 note=70 velocity=0 time=0
EXTRACT: note_off channel=9 note=42 velocity=0 time=0
EXTRACT: note_off channel=9 note=44 velocity=0 time=0
EXTRACT: note_off channel=3 note=65 velocity=0 time=0.012885208333333334
EXTRACT: note_off channel=3 note=72 velocity=0 time=0.012885208333333334
EXTRACT: note_off channel=3 note=68 velocity=0 time=0
EXTRACT: note_off channel=10 note=60 velocity=0 time=0
EXTRACT: note_off channel=2 note=29 velocity=0 time=0.051540833333333334
EXTRACT: note_off channel=9 note=90 velocity=0 time=0
EXTRACT: note_off channel=9 note=40 velocity=0 time=0
EXTRACT: note_on channel=3 note=72 velocity=54 time=0.012885208333333334
EXTRACT: note_on channel=9 note=70 velocity=65 time=0
EXTRACT: note_on channel=9 note=54 velocity=64 time=0
EXTRACT: note_on channel=3 note=68 velocity=54 time=0.012885208333333334
EXTRACT: note_on channel=10 note=60 velocity=88 time=0
EXTRACT: note_on channel=3 note=65 velocity=54 time=0.012885208333333334
EXTRACT: note_on channel=3 note=60 velocity=54 time=0.012885208333333334
EXTRACT: note_off channel=3 note=72 velocity=0 time=0.025770416666666667
EXTRACT: note_off channel=9 note=54 velocity=0 time=0
EXTRACT: note_off channel=9 note=70 velocity=0 time=0
EXTRACT: note_off channel=3 note=68 velocity=0 time=0.012885208333333334
EXTRACT: note_off channel=10 note=60 velocity=0 time=0
EXTRACT: note_off channel=3 note=65 velocity=0 time=0.012885208333333334
EXTRACT: note_off channel=3 note=60 velocity=0 time=0.012885208333333334
EXTRACT: note_on channel=3 note=60 velocity=50 time=0.051540833333333334
EXTRACT: note_on channel=9 note=42 velocity=40 time=0
EXTRACT: note_on channel=9 note=70 velocity=110 time=0
EXTRACT: note_on channel=9 note=54 velocity=111 time=0.012885208333333334
EXTRACT: note_on channel=10 note=60 velocity=106 time=0
EXTRACT: note_on channel=3 note=65 velocity=50 time=0.012885208333333334
EXTRACT: note_on channel=3 note=68 velocity=50 time=0
EXTRACT: note_on channel=3 note=72 velocity=50 time=0
EXTRACT: note_off channel=3 note=60 velocity=0 time=0.038655625
EXTRACT: note_off channel=9 note=54 velocity=0 time=0
EXTRACT: note_off channel=9 note=70 velocity=0 time=0
EXTRACT: note_off channel=9 note=42 velocity=0 time=0
EXTRACT: note_off channel=3 note=68 velocity=0 time=0.012885208333333334
EXTRACT: note_off channel=3 note=65 velocity=0 time=0
EXTRACT: note_off channel=3 note=72 velocity=0 time=0.012885208333333334
EXTRACT: note_on channel=3 note=72 velocity=69 time=0.06442604166666667
EXTRACT: note_on channel=9 note=70 velocity=64 time=0
EXTRACT: note_on channel=9 note=54 velocity=58 time=0
EXTRACT: note_on channel=3 note=68 velocity=69 time=0.025770416666666667
EXTRACT: note_on channel=3 note=65 velocity=69 time=0
EXTRACT: note_on channel=10 note=62 velocity=121 time=0
EXTRACT: note_on channel=3 note=60 velocity=69 time=0.012885208333333334
EXTRACT: control_change channel=3 control=64 value=0 time=0
EXTRACT: note_off channel=3 note=60 velocity=0 time=0.012885208333333334
EXTRACT: note_off channel=3 note=65 velocity=0 time=0
EXTRACT: note_off channel=3 note=68 velocity=0 time=0
EXTRACT: note_off channel=3 note=72 velocity=0 time=0
EXTRACT: note_off channel=4 note=65 velocity=0 time=0
EXTRACT: note_off channel=4 note=60 velocity=0 time=0
EXTRACT: note_on channel=4 note=62 velocity=127 time=0.012885208333333334
EXTRACT: note_on channel=4 note=67 velocity=127 time=0
EXTRACT: note_off channel=10 note=60 velocity=0 time=0
EXTRACT: note_off channel=9 note=54 velocity=0 time=0.012885208333333334
EXTRACT: note_off channel=9 note=70 velocity=0 time=0
EXTRACT: note_off channel=10 note=62 velocity=0 time=0
EXTRACT: control_change channel=3 control=64 value=127 time=0.012885208333333334
EXTRACT: note_on channel=9 note=42 velocity=69 time=0.06442604166666667
EXTRACT: note_on channel=2 note=31 velocity=110 time=0.012885208333333334
EXTRACT: note_on channel=9 note=44 velocity=69 time=0
EXTRACT: note_on channel=9 note=70 velocity=40 time=0
EXTRACT: note_on channel=9 note=54 velocity=127 time=0
EXTRACT: note_on channel=9 note=36 velocity=110 time=0
EXTRACT: note_on channel=10 note=62 velocity=106 time=0
EXTRACT: note_on channel=3 note=62 velocity=56 time=0.012885208333333334
EXTRACT: note_on channel=3 note=67 velocity=56 time=0
EXTRACT: note_on channel=3 note=71 velocity=56 time=0
EXTRACT: note_on channel=10 note=65 velocity=127 time=0
EXTRACT: note_on channel=3 note=74 velocity=52 time=0.012885208333333334
EXTRACT: note_off channel=3 note=67 velocity=0 time=0.025770416666666667
EXTRACT: note_off channel=3 note=62 velocity=0 time=0
EXTRACT: note_off channel=9 note=36 velocity=0 time=0
EXTRACT: note_off channel=9 note=54 velocity=0 time=0
EXTRACT: note_off channel=9 note=70 velocity=0 time=0
EXTRACT: note_off channel=9 note=44 velocity=0 time=0
EXTRACT: note_off channel=9 note=42 velocity=0 time=0
EXTRACT: note_off channel=3 note=71 velocity=0 time=0.012885208333333334
EXTRACT: note_off channel=3 note=74 velocity=0 time=0.025770416666666667
EXTRACT: note_on channel=3 note=62 velocity=52 time=0.051540833333333334
EXTRACT: note_on channel=9 note=70 velocity=56 time=0
EXTRACT: note_on channel=9 note=54 velocity=56 time=0
EXTRACT: note_on channel=3 note=67 velocity=52 time=0.012885208333333334
EXTRACT: note_on channel=3 note=71 velocity=52 time=0
EXTRACT: note_on channel=3 note=74 velocity=52 time=0.012885208333333334
EXTRACT: note_off channel=3 note=62 velocity=0 time=0.038655625
EXTRACT: note_off channel=9 note=54 velocity=0 time=0
EXTRACT: note_off channel=9 note=70 velocity=0 time=0
EXTRACT: note_off channel=3 note=71 velocity=0 time=0.012885208333333334
EXTRACT: note_off channel=3 note=67 velocity=0 time=0
EXTRACT: note_off channel=3 note=74 velocity=0 time=0.012885208333333334
EXTRACT: note_on channel=10 note=63 velocity=63 time=0.051540833333333334
EXTRACT: note_on channel=9 note=42 velocity=38 time=0.012885208333333334
EXTRACT: note_on channel=9 note=70 velocity=110 time=0
EXTRACT: note_on channel=3 note=74 velocity=52 time=0.012885208333333334
EXTRACT: note_on channel=9 note=54 velocity=99 time=0
EXTRACT: note_off channel=10 note=65 velocity=0 time=0
EXTRACT: note_on channel=3 note=71 velocity=52 time=0.012885208333333334
EXTRACT: note_on channel=3 note=67 velocity=52 time=0
EXTRACT: note_on channel=3 note=62 velocity=52 time=0.012885208333333334
EXTRACT: note_off channel=10 note=62 velocity=0 time=0
EXTRACT: note_off channel=10 note=63 velocity=0 time=0.012885208333333334
EXTRACT: note_off channel=2 note=31 velocity=0 time=0.012885208333333334
EXTRACT: note_off channel=3 note=74 velocity=0 time=0
EXTRACT: note_off channel=9 note=54 velocity=0 time=0
EXTRACT: note_off channel=9 note=70 velocity=0 time=0
EXTRACT: note_off channel=9 note=42 velocity=0 time=0
EXTRACT: note_off channel=3 note=71 velocity=0 time=0.012885208333333334
EXTRACT: note_off channel=3 note=67 velocity=0 time=0.012885208333333334
EXTRACT: note_off channel=3 note=62 velocity=0 time=0.012885208333333334
EXTRACT: note_on channel=10 note=62 velocity=104 time=0.038655625
EXTRACT: note_on channel=10 note=65 velocity=95 time=0
EXTRACT: note_on channel=2 note=31 velocity=125 time=0.012885208333333334
EXTRACT: note_on channel=9 note=70 velocity=64 time=0
EXTRACT: note_on channel=9 note=36 velocity=123 time=0
EXTRACT: note_on channel=3 note=74 velocity=54 time=0.012885208333333334
EXTRACT: note_on channel=3 note=71 velocity=54 time=0
EXTRACT: note_on channel=9 note=54 velocity=52 time=0
EXTRACT: note_on channel=3 note=67 velocity=54 time=0.012885208333333334
EXTRACT: note_on channel=3 note=62 velocity=54 time=0
EXTRACT: control_change channel=3 control=64 value=0 time=0.025770416666666667
EXTRACT: note_off channel=3 note=74 velocity=0 time=0.012885208333333334
EXTRACT: note_off channel=9 note=54 velocity=0 time=0
EXTRACT: note_off channel=9 note=36 velocity=0 time=0
EXTRACT: note_off channel=9 note=70 velocity=0 time=0
EXTRACT: note_off channel=3 note=71 velocity=0 time=0.012885208333333334
EXTRACT: note_off channel=3 note=62 velocity=0 time=0.012885208333333334
EXTRACT: note_off channel=3 note=67 velocity=0 time=0
EXTRACT: control_change channel=3 control=64 value=127 time=0.012885208333333334
EXTRACT: note_on channel=9 note=40 velocity=100 time=0.051540833333333334
EXTRACT: note_on channel=3 note=62 velocity=73 time=0.012885208333333334
EXTRACT: note_on channel=9 note=90 velocity=127 time=0
EXTRACT: note_on channel=9 note=44 velocity=71 time=0
EXTRACT: note_on channel=9 note=42 velocity=71 time=0
EXTRACT: note_on channel=9 note=70 velocity=40 time=0
EXTRACT: note_on channel=9 note=54 velocity=127 time=0
EXTRACT: note_on channel=3 note=67 velocity=73 time=0.012885208333333334
EXTRACT: note_on channel=3 note=71 velocity=73 time=0.012885208333333334
EXTRACT: note_on channel=3 note=74 velocity=73 time=0
EXTRACT: note_off channel=10 note=62 velocity=0 time=0.012885208333333334
EXTRACT: note_off channel=3 note=62 velocity=0 time=0.012885208333333334
EXTRACT: note_off channel=9 note=54 velocity=0 time=0
EXTRACT: note_off channel=9 note=70 velocity=0 time=0
EXTRACT: note_off channel=9 note=42 velocity=0 time=0
EXTRACT: note_off channel=9 note=44 velocity=0 time=0
EXTRACT: note_off channel=10 note=65 velocity=0 time=0
EXTRACT: note_off channel=3 note=67 velocity=0 time=0.012885208333333334
EXTRACT: note_off channel=3 note=74 velocity=0 time=0.012885208333333334
EXTRACT: note_off channel=3 note=71 velocity=0 time=0
EXTRACT: note_off channel=9 note=90 velocity=0 time=0.051540833333333334
EXTRACT: note_off channel=9 note=40 velocity=0 time=0
EXTRACT: note_on channel=10 note=62 velocity=113 time=0
EXTRACT: note_on channel=10 note=70 velocity=106 time=0
EXTRACT: note_on channel=3 note=74 velocity=50 time=0.012885208333333334
EXTRACT: note_on channel=9 note=70 velocity=65 time=0
EXTRACT: note_on channel=9 note=54 velocity=64 time=0
EXTRACT: note_on channel=3 note=71 velocity=50 time=0.012885208333333334
EXTRACT: note_on channel=3 note=67 velocity=50 time=0.012885208333333334
EXTRACT: note_on channel=3 note=62 velocity=52 time=0.012885208333333334
EXTRACT: note_off channel=3 note=74 velocity=0 time=0.025770416666666667
EXTRACT: note_off channel=9 note=54 velocity=0 time=0
EXTRACT: note_off channel=9 note=70 velocity=0 time=0
EXTRACT: note_off channel=3 note=71 velocity=0 time=0.012885208333333334
EXTRACT: note_off channel=3 note=67 velocity=0 time=0.012885208333333334
EXTRACT: note_off channel=2 note=31 velocity=0 time=0.012885208333333334
EXTRACT: note_off channel=3 note=62 velocity=0 time=0
EXTRACT: note_on channel=2 note=31 velocity=125 time=0.051540833333333334
EXTRACT: note_on channel=9 note=42 velocity=42 time=0
EXTRACT: note_on channel=3 note=62 velocity=52 time=0.012885208333333334
EXTRACT: note_on channel=9 note=70 velocity=107 time=0
EXTRACT: note_on channel=9 note=36 velocity=119 time=0
EXTRACT: note_on channel=9 note=54 velocity=101 time=0
EXTRACT: note_on channel=3 note=67 velocity=52 time=0.012885208333333334
EXTRACT: note_on channel=3 note=71 velocity=52 time=0
EXTRACT: note_on channel=3 note=74 velocity=52 time=0
EXTRACT: note_off channel=10 note=62 velocity=0 time=0.025770416666666667
EXTRACT: note_off channel=3 note=62 velocity=0 time=0.012885208333333334
EXTRACT: note_off channel=9 note=54 velocity=0 time=0
EXTRACT: note_off channel=9 note=36 velocity=0 time=0
EXTRACT: note_off channel=9 note=70 velocity=0 time=0
EXTRACT: note_off channel=9 note=42 velocity=0 time=0
EXTRACT: note_off channel=3 note=71 velocity=0 time=0.012885208333333334
EXTRACT: note_off channel=3 note=67 velocity=0 time=0
EXTRACT: note_off channel=10 note=70 velocity=0 time=0
EXTRACT: note_off channel=3 note=74 velocity=0 time=0.012885208333333334
EXTRACT: note_on channel=10 note=63 velocity=118 time=0.038655625
EXTRACT: note_on channel=10 note=67 velocity=119 time=0.012885208333333334
EXTRACT: note_on channel=3 note=74 velocity=52 time=0.012885208333333334
EXTRACT: note_on channel=9 note=70 velocity=67 time=0
EXTRACT: note_on channel=9 note=54 velocity=58 time=0
EXTRACT: note_on channel=3 note=71 velocity=52 time=0.012885208333333334
EXTRACT: note_on channel=3 note=67 velocity=52 time=0
EXTRACT: note_off channel=2 note=31 velocity=0 time=0.012885208333333334
EXTRACT: note_off channel=3 note=67 velocity=0 time=0
EXTRACT: note_off channel=3 note=71 velocity=0 time=0
EXTRACT: note_off channel=3 note=74 velocity=0 time=0
EXTRACT: control_change channel=3 control=64 value=0 time=0
EXTRACT: note_off channel=4 note=67 velocity=0 time=0
EXTRACT: note_off channel=4 note=62 velocity=0 time=0
EXTRACT: note_on channel=4 note=60 velocity=127 time=0.012885208333333334
EXTRACT: note_on channel=4 note=63 velocity=127 time=0
EXTRACT: control_change channel=3 control=64 value=127 time=0.012885208333333334
EXTRACT: note_on channel=3 note=60 velocity=52 time=0
EXTRACT: control_change channel=3 control=64 value=0 time=0
EXTRACT: note_off channel=9 note=54 velocity=0 time=0.012885208333333334
EXTRACT: note_off channel=9 note=70 velocity=0 time=0
EXTRACT: note_off channel=3 note=60 velocity=0 time=0.025770416666666667
EXTRACT: control_change channel=3 control=64 value=127 time=0
EXTRACT: note_on channel=9 note=42 velocity=69 time=0.06442604166666667
EXTRACT: note_on channel=2 note=36 velocity=121 time=0.012885208333333334
EXTRACT: control_change channel=3 control=64 value=127 time=0
EXTRACT: note_on channel=9 note=44 velocity=69 time=0
EXTRACT: note_on channel=9 note=70 velocity=40 time=0
EXTRACT: note_on channel=9 note=54 velocity=127 time=0
EXTRACT: note_on channel=9 note=36 velocity=125 time=0
EXTRACT: note_on channel=3 note=60 velocity=81 time=0.012885208333333334
EXTRACT: note_on channel=3 note=63 velocity=81 time=0
EXTRACT: note_on channel=3 note=67 velocity=81 time=0.012885208333333334
EXTRACT: note_on channel=3 note=72 velocity=81 time=0
EXTRACT: note_off channel=3 note=60 velocity=0 time=0.025770416666666667
EXTRACT: note_off channel=9 note=36 velocity=0 time=0
EXTRACT: note_off channel=9 note=54 velocity=0 time=0
EXTRACT: note_off channel=9 note=70 velocity=0 time=0
EXTRACT: note_off channel=3 note=63 velocity=0 time=0.012885208333333334
EXTRACT: note_off channel=3 note=72 velocity=0 time=0.012885208333333334
EXTRACT: note_off channel=3 note=67 velocity=0 time=0
EXTRACT: note_off channel=9 note=44 velocity=0 time=0.051540833333333334
EXTRACT: note_off channel=9 note=42 velocity=0 time=0
EXTRACT: note_on channel=3 note=72 velocity=54 time=0.012885208333333334
EXTRACT: note_on channel=9 note=70 velocity=65 time=0
EXTRACT: note_on channel=9 note=54 velocity=71 time=0
EXTRACT: note_on channel=3 note=67 velocity=54 time=0.012885208333333334
EXTRACT: note_on channel=3 note=63 velocity=54 time=0.012885208333333334
EXTRACT: note_on channel=3 note=60 velocity=50 time=0.012885208333333334
EXTRACT: note_off channel=3 note=72 velocity=0 time=0.025770416666666667
EXTRACT: note_off channel=9 note=54 velocity=0 time=0
EXTRACT: note_off channel=9 note=70 velocity=0 time=0
EXTRACT: note_off channel=3 note=67 velocity=0 time=0.012885208333333334
EXTRACT: note_off channel=3 note=63 velocity=0 time=0.012885208333333334
EXTRACT: note_off channel=3 note=60 velocity=0 time=0.012885208333333334
EXTRACT: note_on channel=3 note=60 velocity=52 time=0.051540833333333334
EXTRACT: note_on channel=9 note=42 velocity=36 time=0
EXTRACT: note_on channel=9 note=70 velocity=113 time=0
EXTRACT: note_on channel=3 note=63 velocity=52 time=0.012885208333333334
EXTRACT: note_on channel=9 note=54 velocity=117 time=0
EXTRACT: control_change channel=10 control=0 value=0 time=0
EXTRACT: control_change channel=10 control=0 value=0 time=0
EXTRACT: control_change channel=10 control=32 value=0 time=0
EXTRACT: control_change channel=10 control=0 value=0 time=0
EXTRACT: control_change channel=10 control=32 value=0 time=0
EXTRACT: program_change channel=10 program=80 time=0
EXTRACT: note_on channel=3 note=67 velocity=52 time=0.012885208333333334
EXTRACT: note_on channel=3 note=72 velocity=52 time=0
EXTRACT: control_change channel=10 control=93 value=0 time=0
EXTRACT: note_off channel=3 note=60 velocity=0 time=0.038655625
EXTRACT: note_off channel=9 note=54 velocity=0 time=0
EXTRACT: note_off channel=9 note=70 velocity=0 time=0
EXTRACT: note_off channel=9 note=42 velocity=0 time=0
EXTRACT: note_off channel=3 note=67 velocity=0 time=0.012885208333333334
EXTRACT: note_off channel=3 note=63 velocity=0 time=0
EXTRACT: note_off channel=3 note=72 velocity=0 time=0.012885208333333334
EXTRACT: note_off channel=2 note=36 velocity=0 time=0.038655625
EXTRACT: note_on channel=9 note=36 velocity=110 time=0.025770416666666667
EXTRACT: note_on channel=9 note=70 velocity=60 time=0
EXTRACT: note_on channel=2 note=36 velocity=125 time=0.012885208333333334
EXTRACT: note_on channel=3 note=72 velocity=50 time=0
EXTRACT: note_on channel=3 note=67 velocity=50 time=0
EXTRACT: note_on channel=9 note=54 velocity=69 time=0
EXTRACT: note_on channel=3 note=63 velocity=50 time=0.012885208333333334
EXTRACT: note_on channel=3 note=60 velocity=50 time=0
EXTRACT: control_change channel=3 control=64 value=0 time=0.012885208333333334
EXTRACT: note_off channel=3 note=72 velocity=0 time=0.025770416666666667
EXTRACT: note_off channel=9 note=54 velocity=0 time=0
EXTRACT: note_off channel=9 note=70 velocity=0 time=0
EXTRACT: note_off channel=9 note=36 velocity=0 time=0
EXTRACT: note_off channel=10 note=63 velocity=0 time=0
EXTRACT: note_off channel=3 note=63 velocity=0 time=0.012885208333333334
EXTRACT: note_off channel=3 note=67 velocity=0 time=0
EXTRACT: note_off channel=10 note=67 velocity=0 time=0
EXTRACT: note_off channel=3 note=60 velocity=0 time=0.012885208333333334
EXTRACT: control_change channel=3 control=64 value=127 time=0
EXTRACT: note_on channel=9 note=40 velocity=100 time=0.06442604166666667
EXTRACT: note_on channel=9 note=90 velocity=127 time=0.012885208333333334
EXTRACT: note_on channel=9 note=44 velocity=71 time=0
EXTRACT: note_on channel=9 note=42 velocity=71 time=0
EXTRACT: note_on channel=10 note=63 velocity=92 time=0
EXTRACT: note_on channel=10 note=67 velocity=101 time=0
EXTRACT: note_on channel=3 note=60 velocity=75 time=0.012885208333333334
EXTRACT: note_on channel=9 note=70 velocity=40 time=0
EXTRACT: note_on channel=9 note=54 velocity=127 time=0
EXTRACT: note_on channel=3 note=63 velocity=75 time=0.012885208333333334
EXTRACT: note_on channel=3 note=67 velocity=75 time=0
EXTRACT: note_on channel=3 note=72 velocity=75 time=0
EXTRACT: note_off channel=3 note=60 velocity=0 time=0.025770416666666667
EXTRACT: note_off channel=9 note=54 velocity=0 time=0
EXTRACT: note_off channel=9 note=70 velocity=0 time=0
EXTRACT: note_off channel=9 note=42 velocity=0 time=0
EXTRACT: note_off channel=9 note=44 velocity=0 time=0
EXTRACT: note_off channel=3 note=63 velocity=0 time=0.012885208333333334
EXTRACT: note_off channel=3 note=72 velocity=0 time=0.012885208333333334
EXTRACT: note_off channel=3 note=67 velocity=0 time=0
EXTRACT: note_off channel=2 note=36 velocity=0 time=0.051540833333333334
EXTRACT: note_off channel=9 note=90 velocity=0 time=0
EXTRACT: note_off channel=9 note=40 velocity=0 time=0
EXTRACT: note_on channel=3 note=72 velocity=54 time=0.012885208333333334
EXTRACT: note_on channel=9 note=70 velocity=65 time=0
EXTRACT: note_on channel=9 note=54 velocity=64 time=0
EXTRACT: note_on channel=3 note=67 velocity=54 time=0.012885208333333334
EXTRACT: note_on channel=3 note=63 velocity=54 time=0.012885208333333334
EXTRACT: note_on channel=3 note=60 velocity=54 time=0.012885208333333334
EXTRACT: note_off channel=3 note=72 velocity=0 time=0.025770416666666667
EXTRACT: note_off channel=9 note=54 velocity=0 time=0
EXTRACT: note_off channel=9 note=70 velocity=0 time=0
EXTRACT: note_off channel=3 note=67 velocity=0 time=0.012885208333333334
EXTRACT: note_off channel=10 note=63 velocity=0 time=0
EXTRACT: note_off channel=3 note=63 velocity=0 time=0.012885208333333334
EXTRACT: note_off channel=10 note=67 velocity=0 time=0
EXTRACT: note_off channel=3 note=60 velocity=0 time=0.012885208333333334
EXTRACT: note_on channel=3 note=60 velocity=50 time=0.051540833333333334
EXTRACT: note_on channel=9 note=42 velocity=40 time=0
EXTRACT: note_on channel=9 note=70 velocity=110 time=0
EXTRACT: note_on channel=3 note=63 velocity=50 time=0.012885208333333334
EXTRACT: note_on channel=9 note=54 velocity=111 time=0
EXTRACT: note_on channel=3 note=67 velocity=50 time=0.012885208333333334
EXTRACT: note_on channel=10 note=63 velocity=98 time=0
EXTRACT: note_on channel=10 note=67 velocity=103 time=0
EXTRACT: note_on channel=3 note=72 velocity=50 time=0.012885208333333334
EXTRACT: note_off channel=3 note=60 velocity=0 time=0.025770416666666667
EXTRACT: note_off channel=9 note=54 velocity=0 time=0
EXTRACT: note_off channel=9 note=70 velocity=0 time=0
EXTRACT: note_off channel=9 note=42 velocity=0 time=0
EXTRACT: note_off channel=3 note=67 velocity=0 time=0.012885208333333334
EXTRACT: note_off channel=3 note=63 velocity=0 time=0
EXTRACT: note_off channel=3 note=72 velocity=0 time=0.012885208333333334
EXTRACT: note_on channel=3 note=72 velocity=77 time=0.06442604166666667
EXTRACT: note_on channel=9 note=36 velocity=110 time=0
EXTRACT: note_on channel=9 note=70 velocity=64 time=0
EXTRACT: note_on channel=3 note=67 velocity=77 time=0.012885208333333334
EXTRACT: note_on channel=3 note=63 velocity=77 time=0
EXTRACT: note_on channel=3 note=60 velocity=77 time=0.012885208333333334
EXTRACT: note_off channel=3 note=72 velocity=0 time=0.038655625
EXTRACT: note_off channel=9 note=70 velocity=0 time=0
EXTRACT: note_off channel=9 note=36 velocity=0 time=0
EXTRACT: note_off channel=10 note=67 velocity=0 time=0
EXTRACT: note_off channel=3 note=63 velocity=0 time=0.012885208333333334
EXTRACT: note_off channel=3 note=67 velocity=0 time=0
EXTRACT: note_off channel=3 note=60 velocity=0 time=0.012885208333333334
EXTRACT: note_on channel=10 note=68 velocity=92 time=0.025770416666666667
EXTRACT: note_on channel=10 note=65 velocity=90 time=0
EXTRACT: note_off channel=10 note=63 velocity=0 time=0.025770416666666667
EXTRACT: note_on channel=9 note=40 velocity=100 time=0.012885208333333334
EXTRACT: note_on channel=9 note=90 velocity=125 time=0
EXTRACT: note_on channel=2 note=36 velocity=110 time=0.012885208333333334
EXTRACT: note_on channel=4 note=60 velocity=116 time=0
EXTRACT: note_on channel=9 note=70 velocity=110 time=0
EXTRACT: note_on channel=9 note=44 velocity=40 time=0
EXTRACT: note_off channel=4 note=60 velocity=0 time=0.051540833333333334
EXTRACT: note_off channel=9 note=44 velocity=0 time=0
EXTRACT: note_off channel=9 note=70 velocity=0 time=0
EXTRACT: note_off channel=9 note=90 velocity=0 time=0
EXTRACT: note_off channel=9 note=40 velocity=0 time=0
EXTRACT: note_on channel=3 note=60 velocity=93 time=0.09019645833333334
EXTRACT: note_on channel=9 note=70 velocity=10 time=0
EXTRACT: note_on channel=3 note=63 velocity=93 time=0.012885208333333334
EXTRACT: note_on channel=3 note=67 velocity=93 time=0
EXTRACT: note_on channel=3 note=72 velocity=93 time=0.012885208333333334
EXTRACT: note_off channel=10 note=68 velocity=0 time=0
EXTRACT: note_off channel=10 note=65 velocity=0 time=0.012885208333333334
EXTRACT: note_off channel=3 note=60 velocity=0 time=0.025770416666666667
EXTRACT: note_off channel=9 note=70 velocity=0 time=0
EXTRACT: note_off channel=3 note=67 velocity=0 time=0.012885208333333334
EXTRACT: note_off channel=3 note=63 velocity=0 time=0
EXTRACT: note_off channel=3 note=72 velocity=0 time=0.012885208333333334
EXTRACT: note_on channel=10 note=68 velocity=81 time=0.038655625
EXTRACT: note_on channel=10 note=65 velocity=95 time=0
EXTRACT: note_on channel=9 note=40 velocity=100 time=0.025770416666666667
EXTRACT: note_on channel=9 note=90 velocity=123 time=0
EXTRACT: note_on channel=9 note=70 velocity=24 time=0
EXTRACT: note_on channel=3 note=72 velocity=44 time=0.012885208333333334
EXTRACT: note_on channel=3 note=67 velocity=44 time=0
EXTRACT: note_on channel=3 note=63 velocity=44 time=0.012885208333333334
EXTRACT: note_on channel=3 note=60 velocity=44 time=0.012885208333333334
EXTRACT: note_off channel=2 note=36 velocity=0 time=0.025770416666666667
EXTRACT: note_off channel=3 note=72 velocity=0 time=0
EXTRACT: note_off channel=9 note=70 velocity=0 time=0
EXTRACT: note_off channel=9 note=90 velocity=0 time=0
EXTRACT: note_off channel=9 note=40 velocity=0 time=0
EXTRACT: note_off channel=3 note=67 velocity=0 time=0.012885208333333334
EXTRACT: note_off channel=3 note=63 velocity=0 time=0.012885208333333334
EXTRACT: note_off channel=3 note=60 velocity=0 time=0.012885208333333334
EXTRACT: note_on channel=2 note=36 velocity=125 time=0.051540833333333334
EXTRACT: note_on channel=9 note=36 velocity=110 time=0
EXTRACT: note_on channel=9 note=70 velocity=64 time=0
EXTRACT: note_on channel=10 note=67 velocity=90 time=0
EXTRACT: note_on channel=4 note=60 velocity=113 time=0.012885208333333334
EXTRACT: note_off channel=10 note=65 velocity=0 time=0
EXTRACT: note_on channel=10 note=63 velocity=98 time=0
EXTRACT: note_off channel=10 note=68 velocity=0 time=0.012885208333333334
EXTRACT: note_off channel=4 note=60 velocity=0 time=0.025770416666666667
EXTRACT: note_off channel=9 note=70 velocity=0 time=0.012885208333333334
EXTRACT: note_off channel=9 note=36 velocity=0 time=0
EXTRACT: note_on channel=9 note=40 velocity=40 time=0.012885208333333334
EXTRACT: note_off channel=9 note=40 velocity=0 time=0.012885208333333334
EXTRACT: note_on channel=9 note=40 velocity=60 time=0.025770416666666667
EXTRACT: note_off channel=9 note=40 velocity=0 time=0.012885208333333334
EXTRACT: note_on channel=9 note=40 velocity=100 time=0.025770416666666667
EXTRACT: note_on channel=3 note=60 velocity=83 time=0.012885208333333334
EXTRACT: note_on channel=3 note=63 velocity=83 time=0
EXTRACT: note_on channel=9 note=90 velocity=127 time=0
EXTRACT: note_on channel=9 note=44 velocity=71 time=0
EXTRACT: note_on channel=9 note=70 velocity=110 time=0
EXTRACT: note_on channel=3 note=67 velocity=83 time=0.012885208333333334
EXTRACT: note_on channel=3 note=72 velocity=83 time=0.012885208333333334
EXTRACT: note_off channel=3 note=63 velocity=0 time=0.025770416666666667
EXTRACT: note_off channel=3 note=60 velocity=0 time=0
EXTRACT: note_off channel=9 note=70 velocity=0 time=0
EXTRACT: note_off channel=9 note=44 velocity=0 time=0
EXTRACT: note_off channel=3 note=67 velocity=0 time=0.012885208333333334
EXTRACT: note_off channel=10 note=63 velocity=0 time=0.012885208333333334
EXTRACT: note_off channel=10 note=67 velocity=0 time=0
EXTRACT: note_off channel=3 note=72 velocity=0 time=0.012885208333333334
EXTRACT: note_off channel=9 note=90 velocity=0 time=0.038655625
EXTRACT: note_off channel=9 note=40 velocity=0 time=0
EXTRACT: note_on channel=3 note=72 velocity=44 time=0.012885208333333334
EXTRACT: note_on channel=9 note=47 velocity=110 time=0
EXTRACT: note_on channel=9 note=70 velocity=10 time=0
EXTRACT: note_on channel=3 note=67 velocity=44 time=0.012885208333333334
EXTRACT: note_on channel=10 note=62 velocity=103 time=0
EXTRACT: note_on channel=10 note=65 velocity=95 time=0
EXTRACT: note_on channel=3 note=63 velocity=44 time=0.012885208333333334
EXTRACT: note_on channel=3 note=60 velocity=44 time=0
EXTRACT: note_off channel=3 note=72 velocity=0 time=0.038655625
EXTRACT: note_off channel=9 note=70 velocity=0 time=0
EXTRACT: note_off channel=9 note=47 velocity=0 time=0
EXTRACT: note_off channel=3 note=67 velocity=0 time=0.012885208333333334
EXTRACT: note_off channel=3 note=60 velocity=0 time=0.012885208333333334
EXTRACT: note_off channel=3 note=63 velocity=0 time=0
EXTRACT: note_off channel=2 note=36 velocity=0 time=0.012885208333333334
EXTRACT: note_on channel=2 note=36 velocity=125 time=0.051540833333333334
EXTRACT: note_on channel=9 note=45 velocity=110 time=0
EXTRACT: note_on channel=9 note=70 velocity=22 time=0
EXTRACT: note_on channel=4 note=60 velocity=96 time=0.012885208333333334
EXTRACT: note_off channel=4 note=60 velocity=0 time=0.025770416666666667
EXTRACT: note_off channel=9 note=70 velocity=0 time=0.025770416666666667
EXTRACT: note_off channel=9 note=45 velocity=0 time=0
EXTRACT: note_off channel=10 note=62 velocity=0 time=0
EXTRACT: note_off channel=10 note=65 velocity=0 time=0.012885208333333334
EXTRACT: note_on channel=9 note=36 velocity=91 time=0.07731125
EXTRACT: note_on channel=9 note=55 velocity=85 time=0
EXTRACT: note_on channel=9 note=70 velocity=67 time=0
EXTRACT: note_on channel=10 note=60 velocity=103 time=0
EXTRACT: note_on channel=4 note=60 velocity=81 time=0.012885208333333334
EXTRACT: note_on channel=10 note=63 velocity=67 time=0
EXTRACT: note_off channel=9 note=70 velocity=0 time=0.051540833333333334
EXTRACT: note_off channel=9 note=55 velocity=0 time=0
EXTRACT: note_off channel=9 note=36 velocity=0 time=0
EXTRACT: note_off channel=4 note=60 velocity=0 time=0.012885208333333334
EXTRACT: note_off channel=4 note=63 velocity=0 time=0
EXTRACT: note_off channel=2 note=36 velocity=0 time=0.025770416666666667
EXTRACT: control_change channel=3 control=64 value=0 time=0
EXTRACT: note_off channel=4 note=60 velocity=0 time=0
EXTRACT: control_change channel=4 control=0 value=0 time=0
EXTRACT: control_change channel=4 control=0 value=0 time=0
EXTRACT: control_change channel=4 control=32 value=0 time=0
EXTRACT: control_change channel=4 control=0 value=0 time=0
EXTRACT: control_change channel=4 control=32 value=0 time=0
EXTRACT: program_change channel=4 program=89 time=0
EXTRACT: control_change channel=3 control=64 value=127 time=0.012885208333333334
EXTRACT: control_change channel=3 control=64 value=0 time=0.025770416666666667
EXTRACT: control_change channel=4 control=0 value=0 time=0
EXTRACT: control_change channel=4 control=0 value=0 time=0
EXTRACT: control_change channel=4 control=32 value=0 time=0
EXTRACT: control_change channel=4 control=0 value=0 time=0
EXTRACT: control_change channel=4 control=32 value=0 time=0
EXTRACT: program_change channel=4 program=50 time=0
EXTRACT: note_on channel=4 note=63 velocity=127 time=0.025770416666666667
EXTRACT: program_change channel=9 program=0 time=0
EXTRACT: note_on channel=9 note=49 velocity=90 time=0
EXTRACT: program_change channel=9 program=32 time=0
EXTRACT: note_off channel=9 note=49 velocity=0 time=0.0016106510416666667
EXTRACT: note_on channel=4 note=68 velocity=127 time=0.011274557291666668
EXTRACT: note_on channel=9 note=36 velocity=127 time=0
EXTRACT: note_on channel=9 note=44 velocity=69 time=0
EXTRACT: note_on channel=2 note=32 velocity=127 time=0.012885208333333334
EXTRACT: control_change channel=3 control=64 value=127 time=0
EXTRACT: note_on channel=9 note=42 velocity=69 time=0
EXTRACT: note_on channel=9 note=70 velocity=40 time=0
EXTRACT: note_on channel=9 note=54 velocity=127 time=0
EXTRACT: note_on channel=3 note=63 velocity=81 time=0.012885208333333334
EXTRACT: note_on channel=3 note=68 velocity=81 time=0
EXTRACT: note_off channel=3 note=63 velocity=0 time=0.012885208333333334
EXTRACT: note_on channel=3 note=72 velocity=81 time=0
EXTRACT: note_on channel=3 note=75 velocity=81 time=0
EXTRACT: note_off channel=9 note=54 velocity=0 time=0
EXTRACT: note_off channel=9 note=70 velocity=0 time=0
EXTRACT: note_off channel=3 note=68 velocity=0 time=0.012885208333333334
EXTRACT: note_off channel=3 note=75 velocity=0 time=0.012885208333333334
EXTRACT: note_off channel=3 note=72 velocity=0 time=0
EXTRACT: note_off channel=10 note=63 velocity=0 time=0
EXTRACT: note_off channel=10 note=60 velocity=0 time=0
EXTRACT: note_off channel=9 note=42 velocity=0 time=0.051540833333333334
EXTRACT: note_off channel=9 note=44 velocity=0 time=0
EXTRACT: note_off channel=9 note=36 velocity=0 time=0
EXTRACT: note_on channel=3 note=75 velocity=54 time=0.012885208333333334
EXTRACT: note_on channel=9 note=70 velocity=64 time=0
EXTRACT: note_on channel=9 note=54 velocity=71 time=0
EXTRACT: note_on channel=10 note=60 velocity=78 time=0
EXTRACT: note_on channel=3 note=72 velocity=54 time=0.012885208333333334
EXTRACT: note_on channel=10 note=63 velocity=77 time=0
EXTRACT: note_on channel=3 note=68 velocity=54 time=0.012885208333333334
EXTRACT: note_on channel=10 note=67 velocity=78 time=0
EXTRACT: note_on channel=3 note=63 velocity=50 time=0.012885208333333334
EXTRACT: note_off channel=3 note=75 velocity=0 time=0.025770416666666667
EXTRACT: note_off channel=9 note=54 velocity=0 time=0
EXTRACT: note_off channel=9 note=70 velocity=0 time=0
EXTRACT: note_off channel=3 note=72 velocity=0 time=0.012885208333333334
EXTRACT: note_off channel=3 note=68 velocity=0 time=0.012885208333333334
EXTRACT: note_off channel=3 note=63 velocity=0 time=0.012885208333333334
EXTRACT: note_on channel=3 note=63 velocity=52 time=0.051540833333333334
EXTRACT: note_on channel=9 note=42 velocity=36 time=0
EXTRACT: note_on channel=9 note=70 velocity=113 time=0
EXTRACT: note_on channel=3 note=68 velocity=52 time=0.012885208333333334
EXTRACT: note_on channel=3 note=72 velocity=52 time=0
EXTRACT: note_on channel=9 note=54 velocity=117 time=0
EXTRACT: note_on channel=3 note=75 velocity=52 time=0.012885208333333334
EXTRACT: note_off channel=3 note=63 velocity=0 time=0.038655625
EXTRACT: note_off channel=9 note=54 velocity=0 time=0
EXTRACT: note_off channel=9 note=70 velocity=0 time=0
EXTRACT: note_off channel=9 note=42 velocity=0 time=0
EXTRACT: note_off channel=3 note=72 velocity=0 time=0.012885208333333334
EXTRACT: note_off channel=3 note=68 velocity=0 time=0
EXTRACT: note_off channel=3 note=75 velocity=0 time=0.012885208333333334
EXTRACT: control_change channel=10 control=0 value=0 time=0.012885208333333334
EXTRACT: control_change channel=10 control=0 value=0 time=0
EXTRACT: control_change channel=10 control=32 value=0 time=0
EXTRACT: control_change channel=10 control=0 value=0 time=0
EXTRACT: control_change channel=10 control=32 value=0 time=0
EXTRACT: program_change channel=10 program=0 time=0
EXTRACT: control_change channel=10 control=93 value=0 time=0
EXTRACT: note_off channel=2 note=32 velocity=0 time=0.025770416666666667
EXTRACT: note_on channel=2 note=32 velocity=125 time=0.025770416666666667
EXTRACT: note_on channel=9 note=36 velocity=99 time=0
EXTRACT: note_on channel=9 note=70 velocity=60 time=0
EXTRACT: note_on channel=3 note=75 velocity=50 time=0.012885208333333334
EXTRACT: note_on channel=3 note=72 velocity=50 time=0
EXTRACT: note_on channel=9 note=54 velocity=69 time=0
EXTRACT: note_on channel=3 note=68 velocity=50 time=0.012885208333333334
EXTRACT: note_on channel=3 note=63 velocity=50 time=0
EXTRACT: note_off channel=10 note=60 velocity=0 time=0
EXTRACT: control_change channel=3 control=64 value=0 time=0.012885208333333334
EXTRACT: note_off channel=3 note=75 velocity=0 time=0.025770416666666667
EXTRACT: note_off channel=9 note=54 velocity=0 time=0
EXTRACT: note_off channel=9 note=70 velocity=0 time=0
EXTRACT: note_off channel=9 note=36 velocity=0 time=0
EXTRACT: note_off channel=3 note=68 velocity=0 time=0.012885208333333334
EXTRACT: note_off channel=3 note=72 velocity=0 time=0
EXTRACT: note_off channel=10 note=63 velocity=0 time=0
EXTRACT: note_off channel=3 note=63 velocity=0 time=0.012885208333333334
EXTRACT: control_change channel=3 control=64 value=127 time=0
EXTRACT: note_off channel=10 note=67 velocity=0 time=0
EXTRACT: note_on channel=9 note=40 velocity=100 time=0.06442604166666667
EXTRACT: note_on channel=9 note=90 velocity=127 time=0
EXTRACT: note_on channel=9 note=44 velocity=71 time=0.012885208333333334
EXTRACT: note_on channel=9 note=42 velocity=71 time=0
EXTRACT: note_on channel=9 note=70 velocity=40 time=0
EXTRACT: note_on channel=9 note=54 velocity=127 time=0
EXTRACT: note_on channel=10 note=63 velocity=122 time=0
EXTRACT: note_on channel=3 note=63 velocity=75 time=0.012885208333333334
EXTRACT: note_on channel=3 note=68 velocity=75 time=0
EXTRACT: note_on channel=3 note=72 velocity=75 time=0.012885208333333334
EXTRACT: note_on channel=3 note=75 velocity=75 time=0
EXTRACT: note_off channel=3 note=63 velocity=0 time=0.025770416666666667
EXTRACT: note_off channel=9 note=54 velocity=0 time=0
EXTRACT: note_off channel=9 note=70 velocity=0 time=0
EXTRACT: note_off channel=9 note=42 velocity=0 time=0
EXTRACT: note_off channel=9 note=44 velocity=0 time=0
EXTRACT: note_off channel=3 note=68 velocity=0 time=0.012885208333333334
EXTRACT: note_off channel=3 note=75 velocity=0 time=0.012885208333333334
EXTRACT: note_off channel=3 note=72 velocity=0 time=0
EXTRACT: note_off channel=2 note=32 velocity=0 time=0.051540833333333334
EXTRACT: note_off channel=9 note=90 velocity=0 time=0
EXTRACT: note_off channel=9 note=40 velocity=0 time=0
EXTRACT: note_on channel=3 note=75 velocity=54 time=0.012885208333333334
EXTRACT: note_on channel=9 note=70 velocity=65 time=0
EXTRACT: note_on channel=9 note=54 velocity=64 time=0
EXTRACT: note_on channel=3 note=72 velocity=54 time=0.012885208333333334
EXTRACT: note_on channel=3 note=68 velocity=54 time=0.012885208333333334
EXTRACT: note_on channel=3 note=63 velocity=54 time=0.012885208333333334
EXTRACT: note_off channel=3 note=75 velocity=0 time=0.025770416666666667
EXTRACT: note_off channel=9 note=54 velocity=0 time=0
EXTRACT: note_off channel=9 note=70 velocity=0 time=0
EXTRACT: note_off channel=3 note=72 velocity=0 time=0.012885208333333334
EXTRACT: note_off channel=3 note=68 velocity=0 time=0.012885208333333334
EXTRACT: note_off channel=3 note=63 velocity=0 time=0.012885208333333334
EXTRACT: note_on channel=3 note=63 velocity=50 time=0.051540833333333334
EXTRACT: note_on channel=9 note=42 velocity=40 time=0
EXTRACT: note_on channel=9 note=70 velocity=110 time=0
EXTRACT: note_on channel=9 note=54 velocity=111 time=0.012885208333333334
EXTRACT: note_off channel=10 note=63 velocity=0 time=0
EXTRACT: note_on channel=10 note=65 velocity=115 time=0
EXTRACT: note_on channel=3 note=68 velocity=50 time=0.012885208333333334
EXTRACT: note_on channel=3 note=72 velocity=50 time=0
EXTRACT: note_on channel=3 note=75 velocity=50 time=0.012885208333333334
EXTRACT: note_off channel=3 note=63 velocity=0 time=0.025770416666666667
EXTRACT: note_off channel=9 note=54 velocity=0 time=0
EXTRACT: note_off channel=9 note=70 velocity=0 time=0
EXTRACT: note_off channel=9 note=42 velocity=0 time=0
EXTRACT: note_off channel=3 note=72 velocity=0 time=0.012885208333333334
EXTRACT: note_off channel=3 note=68 velocity=0 time=0
EXTRACT: note_off channel=3 note=75 velocity=0 time=0.012885208333333334
EXTRACT: note_on channel=3 note=75 velocity=69 time=0.06442604166666667
EXTRACT: note_on channel=9 note=70 velocity=64 time=0
EXTRACT: note_on channel=9 note=54 velocity=58 time=0
EXTRACT: note_on channel=3 note=72 velocity=69 time=0.012885208333333334
EXTRACT: note_on channel=3 note=68 velocity=69 time=0
EXTRACT: note_on channel=3 note=63 velocity=69 time=0.012885208333333334
EXTRACT: control_change channel=3 control=64 value=0 time=0.012885208333333334
EXTRACT: note_off channel=3 note=75 velocity=0 time=0.025770416666666667
EXTRACT: note_off channel=9 note=54 velocity=0 time=0
EXTRACT: note_off channel=9 note=70 velocity=0 time=0
EXTRACT: note_off channel=10 note=65 velocity=0 time=0
EXTRACT: note_off channel=3 note=63 velocity=0 time=0.012885208333333334
EXTRACT: note_off channel=3 note=68 velocity=0 time=0
EXTRACT: note_off channel=3 note=72 velocity=0 time=0
EXTRACT: note_off channel=4 note=68 velocity=0 time=0
EXTRACT: note_off channel=4 note=63 velocity=0 time=0
EXTRACT: control_change channel=3 control=64 value=127 time=0.012885208333333334
EXTRACT: note_on channel=4 note=62 velocity=127 time=0
EXTRACT: note_on channel=4 note=65 velocity=127 time=0
EXTRACT: note_on channel=9 note=42 velocity=69 time=0.06442604166666667
EXTRACT: note_on channel=2 note=34 velocity=110 time=0.012885208333333334
EXTRACT: note_on channel=9 note=44 velocity=69 time=0
EXTRACT: note_on channel=9 note=70 velocity=40 time=0
EXTRACT: note_on channel=9 note=54 velocity=127 time=0
EXTRACT: note_on channel=10 note=65 velocity=113 time=0
EXTRACT: note_on channel=3 note=62 velocity=56 time=0.012885208333333334
EXTRACT: note_on channel=3 note=65 velocity=56 time=0
EXTRACT: note_on channel=3 note=70 velocity=56 time=0
EXTRACT: note_on channel=9 note=36 velocity=110 time=0
EXTRACT: note_on channel=3 note=74 velocity=52 time=0.012885208333333334
EXTRACT: note_off channel=3 note=65 velocity=0 time=0.025770416666666667
EXTRACT: note_off channel=3 note=62 velocity=0 time=0
EXTRACT: note_off channel=9 note=36 velocity=0 time=0
EXTRACT: note_off channel=9 note=54 velocity=0 time=0
EXTRACT: note_off channel=9 note=70 velocity=0 time=0
EXTRACT: note_off channel=9 note=44 velocity=0 time=0
EXTRACT: note_off channel=9 note=42 velocity=0 time=0
EXTRACT: note_off channel=3 note=70 velocity=0 time=0.012885208333333334
EXTRACT: note_off channel=3 note=74 velocity=0 time=0.025770416666666667
EXTRACT: note_on channel=3 note=62 velocity=52 time=0.051540833333333334
EXTRACT: note_on channel=9 note=70 velocity=64 time=0
EXTRACT: note_on channel=9 note=54 velocity=56 time=0
EXTRACT: note_on channel=3 note=65 velocity=52 time=0.012885208333333334
EXTRACT: note_on channel=3 note=70 velocity=52 time=0
EXTRACT: note_on channel=3 note=74 velocity=52 time=0.012885208333333334
EXTRACT: note_off channel=10 note=65 velocity=0 time=0.025770416666666667
EXTRACT: note_off channel=3 note=62 velocity=0 time=0.012885208333333334
EXTRACT: note_off channel=9 note=54 velocity=0 time=0
EXTRACT: note_off channel=9 note=70 velocity=0 time=0
EXTRACT: note_off channel=3 note=70 velocity=0 time=0.012885208333333334
EXTRACT: note_off channel=3 note=65 velocity=0 time=0
EXTRACT: note_off channel=3 note=74 velocity=0 time=0.012885208333333334
EXTRACT: note_on channel=9 note=42 velocity=38 time=0.06442604166666667
EXTRACT: note_on channel=9 note=70 velocity=110 time=0
EXTRACT: note_on channel=10 note=65 velocity=115 time=0
EXTRACT: note_on channel=3 note=74 velocity=52 time=0.012885208333333334
EXTRACT: note_on channel=3 note=70 velocity=52 time=0
EXTRACT: note_on channel=9 note=54 velocity=99 time=0
EXTRACT: note_on channel=3 note=65 velocity=52 time=0.012885208333333334
EXTRACT: note_on channel=3 note=62 velocity=52 time=0.012885208333333334
EXTRACT: note_off channel=2 note=34 velocity=0 time=0.025770416666666667
EXTRACT: note_off channel=3 note=74 velocity=0 time=0
EXTRACT: note_off channel=9 note=54 velocity=0 time=0
EXTRACT: note_off channel=9 note=70 velocity=0 time=0
EXTRACT: note_off channel=9 note=42 velocity=0 time=0
EXTRACT: note_off channel=3 note=70 velocity=0 time=0.012885208333333334
EXTRACT: note_off channel=10 note=65 velocity=0 time=0
EXTRACT: note_off channel=3 note=65 velocity=0 time=0.012885208333333334
EXTRACT: note_off channel=3 note=62 velocity=0 time=0.012885208333333334
EXTRACT: note_on channel=2 note=34 velocity=125 time=0.051540833333333334
EXTRACT: note_on channel=9 note=70 velocity=64 time=0
EXTRACT: note_on channel=9 note=54 velocity=52 time=0
EXTRACT: note_on channel=3 note=74 velocity=54 time=0.012885208333333334
EXTRACT: note_on channel=3 note=70 velocity=54 time=0
EXTRACT: note_on channel=9 note=36 velocity=123 time=0
EXTRACT: note_on channel=10 note=65 velocity=79 time=0
EXTRACT: note_on channel=3 note=65 velocity=54 time=0.012885208333333334
EXTRACT: note_on channel=3 note=62 velocity=54 time=0
EXTRACT: control_change channel=3 control=64 value=0 time=0.025770416666666667
EXTRACT: note_off channel=3 note=74 velocity=0 time=0.012885208333333334
EXTRACT: note_off channel=9 note=36 velocity=0 time=0
EXTRACT: note_off channel=9 note=54 velocity=0 time=0
EXTRACT: note_off channel=9 note=70 velocity=0 time=0
EXTRACT: note_off channel=3 note=70 velocity=0 time=0.012885208333333334
EXTRACT: note_off channel=3 note=62 velocity=0 time=0.012885208333333334
EXTRACT: note_off channel=3 note=65 velocity=0 time=0
EXTRACT: control_change channel=3 control=64 value=127 time=0.012885208333333334
EXTRACT: note_on channel=9 note=40 velocity=100 time=0.051540833333333334
EXTRACT: note_on channel=3 note=62 velocity=73 time=0.012885208333333334
EXTRACT: note_on channel=9 note=90 velocity=127 time=0
EXTRACT: note_on channel=9 note=44 velocity=71 time=0
EXTRACT: note_on channel=9 note=42 velocity=71 time=0
EXTRACT: note_on channel=9 note=70 velocity=40 time=0
EXTRACT: note_on channel=9 note=54 velocity=127 time=0
EXTRACT: note_on channel=3 note=65 velocity=73 time=0.012885208333333334
EXTRACT: note_on channel=3 note=70 velocity=73 time=0
EXTRACT: note_on channel=3 note=74 velocity=73 time=0.012885208333333334
EXTRACT: note_off channel=3 note=62 velocity=0 time=0.025770416666666667
EXTRACT: note_off channel=9 note=54 velocity=0 time=0
EXTRACT: note_off channel=9 note=70 velocity=0 time=0
EXTRACT: note_off channel=9 note=42 velocity=0 time=0
EXTRACT: note_off channel=9 note=44 velocity=0 time=0
EXTRACT: note_off channel=3 note=65 velocity=0 time=0.012885208333333334
EXTRACT: note_off channel=3 note=74 velocity=0 time=0.012885208333333334
EXTRACT: note_off channel=3 note=70 velocity=0 time=0
EXTRACT: note_on channel=10 note=67 velocity=115 time=0.038655625
EXTRACT: note_off channel=9 note=90 velocity=0 time=0.012885208333333334
EXTRACT: note_off channel=9 note=40 velocity=0 time=0
EXTRACT: note_on channel=3 note=74 velocity=50 time=0.012885208333333334
EXTRACT: note_on channel=9 note=70 velocity=60 time=0
EXTRACT: note_on channel=9 note=54 velocity=64 time=0
EXTRACT: note_on channel=3 note=70 velocity=50 time=0.012885208333333334
EXTRACT: note_off channel=10 note=65 velocity=0 time=0
EXTRACT: note_on channel=3 note=65 velocity=50 time=0.012885208333333334
EXTRACT: note_on channel=3 note=62 velocity=52 time=0.012885208333333334
EXTRACT: note_off channel=3 note=74 velocity=0 time=0.025770416666666667
EXTRACT: note_off channel=9 note=54 velocity=0 time=0
EXTRACT: note_off channel=9 note=70 velocity=0 time=0
EXTRACT: note_off channel=3 note=70 velocity=0 time=0.012885208333333334
EXTRACT: note_off channel=3 note=65 velocity=0 time=0.012885208333333334
EXTRACT: note_off channel=2 note=34 velocity=0 time=0.012885208333333334
EXTRACT: note_off channel=3 note=62 velocity=0 time=0
EXTRACT: note_on channel=2 note=34 velocity=125 time=0.051540833333333334
EXTRACT: note_on channel=9 note=42 velocity=42 time=0
EXTRACT: note_on channel=3 note=62 velocity=52 time=0.012885208333333334
EXTRACT: note_on channel=9 note=70 velocity=107 time=0
EXTRACT: note_on channel=9 note=36 velocity=119 time=0
EXTRACT: note_on channel=9 note=54 velocity=101 time=0
EXTRACT: note_off channel=10 note=67 velocity=0 time=0
EXTRACT: note_on channel=3 note=65 velocity=52 time=0.012885208333333334
EXTRACT: note_on channel=3 note=70 velocity=52 time=0
EXTRACT: note_on channel=3 note=74 velocity=52 time=0
EXTRACT: note_off channel=3 note=62 velocity=0 time=0.038655625
EXTRACT: note_off channel=9 note=54 velocity=0 time=0
EXTRACT: note_off channel=9 note=36 velocity=0 time=0
EXTRACT: note_off channel=9 note=70 velocity=0 time=0
EXTRACT: note_off channel=9 note=42 velocity=0 time=0
EXTRACT: note_off channel=3 note=70 velocity=0 time=0.012885208333333334
EXTRACT: note_off channel=3 note=65 velocity=0 time=0
EXTRACT: note_off channel=3 note=74 velocity=0 time=0.012885208333333334
EXTRACT: note_on channel=10 note=67 velocity=106 time=0.012885208333333334
EXTRACT: note_on channel=3 note=74 velocity=52 time=0.051540833333333334
EXTRACT: note_on channel=9 note=70 velocity=67 time=0
EXTRACT: note_on channel=9 note=54 velocity=58 time=0
EXTRACT: note_on channel=3 note=70 velocity=52 time=0.012885208333333334
EXTRACT: note_on channel=3 note=65 velocity=52 time=0
EXTRACT: note_off channel=2 note=34 velocity=0 time=0.012885208333333334
EXTRACT: note_off channel=3 note=65 velocity=0 time=0
EXTRACT: note_off channel=3 note=70 velocity=0 time=0
EXTRACT: note_off channel=3 note=74 velocity=0 time=0
EXTRACT: control_change channel=3 control=64 value=0 time=0
EXTRACT: note_off channel=4 note=65 velocity=0 time=0
EXTRACT: note_off channel=4 note=62 velocity=0 time=0
EXTRACT: note_on channel=4 note=63 velocity=127 time=0.012885208333333334
EXTRACT: note_on channel=4 note=67 velocity=127 time=0
EXTRACT: control_change channel=3 control=64 value=127 time=0.012885208333333334
EXTRACT: note_on channel=3 note=63 velocity=52 time=0
EXTRACT: note_off channel=10 note=67 velocity=0 time=0
EXTRACT: control_change channel=3 control=64 value=0 time=0.012885208333333334
EXTRACT: note_off channel=9 note=54 velocity=0 time=0
EXTRACT: note_off channel=9 note=70 velocity=0 time=0
EXTRACT: note_off channel=3 note=63 velocity=0 time=0.025770416666666667
EXTRACT: control_change channel=3 control=64 value=127 time=0
EXTRACT: note_on channel=10 note=67 velocity=123 time=0.025770416666666667
EXTRACT: note_on channel=9 note=42 velocity=69 time=0.038655625
EXTRACT: note_on channel=2 note=39 velocity=121 time=0.012885208333333334
EXTRACT: control_change channel=3 control=64 value=127 time=0
EXTRACT: note_on channel=3 note=63 velocity=81 time=0
EXTRACT: note_on channel=9 note=44 velocity=69 time=0
EXTRACT: note_on channel=9 note=70 velocity=40 time=0
EXTRACT: note_on channel=9 note=54 velocity=127 time=0
EXTRACT: note_on channel=9 note=36 velocity=125 time=0
EXTRACT: note_on channel=3 note=67 velocity=81 time=0.012885208333333334
EXTRACT: note_on channel=3 note=70 velocity=81 time=0.012885208333333334
EXTRACT: note_on channel=3 note=75 velocity=81 time=0
EXTRACT: note_off channel=3 note=63 velocity=0 time=0.025770416666666667
EXTRACT: note_off channel=9 note=36 velocity=0 time=0
EXTRACT: note_off channel=9 note=54 velocity=0 time=0
EXTRACT: note_off channel=9 note=70 velocity=0 time=0
EXTRACT: note_off channel=3 note=67 velocity=0 time=0.012885208333333334
EXTRACT: note_off channel=3 note=75 velocity=0 time=0.012885208333333334
EXTRACT: note_off channel=3 note=70 velocity=0 time=0
EXTRACT: note_off channel=9 note=44 velocity=0 time=0.051540833333333334
EXTRACT: note_off channel=9 note=42 velocity=0 time=0
EXTRACT: note_on channel=3 note=75 velocity=54 time=0.012885208333333334
EXTRACT: note_on channel=9 note=70 velocity=64 time=0
EXTRACT: note_on channel=9 note=54 velocity=71 time=0
EXTRACT: note_on channel=3 note=70 velocity=54 time=0.012885208333333334
EXTRACT: note_on channel=3 note=67 velocity=54 time=0.012885208333333334
EXTRACT: note_on channel=3 note=63 velocity=50 time=0.012885208333333334
EXTRACT: note_off channel=3 note=75 velocity=0 time=0.025770416666666667
EXTRACT: note_off channel=9 note=54 velocity=0 time=0
EXTRACT: note_off channel=9 note=70 velocity=0 time=0
EXTRACT: note_off channel=3 note=70 velocity=0 time=0.012885208333333334
EXTRACT: note_off channel=3 note=67 velocity=0 time=0.012885208333333334
EXTRACT: note_off channel=3 note=63 velocity=0 time=0.012885208333333334
EXTRACT: note_on channel=10 note=65 velocity=92 time=0.038655625
EXTRACT: note_on channel=3 note=63 velocity=52 time=0.012885208333333334
EXTRACT: note_on channel=9 note=42 velocity=36 time=0
EXTRACT: note_on channel=9 note=70 velocity=113 time=0
EXTRACT: note_on channel=3 note=67 velocity=52 time=0.012885208333333334
EXTRACT: note_on channel=3 note=70 velocity=52 time=0
EXTRACT: note_on channel=9 note=54 velocity=117 time=0
EXTRACT: note_on channel=3 note=75 velocity=52 time=0.012885208333333334
EXTRACT: note_off channel=10 note=67 velocity=0 time=0.025770416666666667
EXTRACT: note_off channel=3 note=63 velocity=0 time=0.012885208333333334
EXTRACT: note_off channel=9 note=54 velocity=0 time=0
EXTRACT: note_off channel=9 note=70 velocity=0 time=0
EXTRACT: note_off channel=9 note=42 velocity=0 time=0
EXTRACT: note_off channel=3 note=70 velocity=0 time=0.012885208333333334
EXTRACT: note_off channel=3 note=67 velocity=0 time=0
EXTRACT: note_off channel=3 note=75 velocity=0 time=0.012885208333333334
EXTRACT: note_off channel=2 note=39 velocity=0 time=0.038655625
EXTRACT: note_on channel=2 note=39 velocity=125 time=0.025770416666666667
EXTRACT: note_on channel=9 note=36 velocity=110 time=0
EXTRACT: note_on channel=9 note=70 velocity=60 time=0
EXTRACT: note_on channel=3 note=75 velocity=50 time=0.012885208333333334
EXTRACT: note_on channel=9 note=54 velocity=69 time=0
EXTRACT: note_on channel=10 note=63 velocity=110 time=0
EXTRACT: note_on channel=3 note=70 velocity=50 time=0.012885208333333334
EXTRACT: note_on channel=3 note=67 velocity=50 time=0
EXTRACT: note_on channel=3 note=63 velocity=50 time=0
EXTRACT: control_change channel=3 control=64 value=0 time=0.012885208333333334
EXTRACT: note_off channel=10 note=65 velocity=0 time=0
EXTRACT: note_off channel=3 note=75 velocity=0 time=0.025770416666666667
EXTRACT: note_off channel=9 note=54 velocity=0 time=0
EXTRACT: note_off channel=9 note=70 velocity=0 time=0
EXTRACT: note_off channel=9 note=36 velocity=0 time=0
EXTRACT: note_off channel=3 note=67 velocity=0 time=0.012885208333333334
EXTRACT: note_off channel=3 note=70 velocity=0 time=0
EXTRACT: note_off channel=3 note=63 velocity=0 time=0.012885208333333334
EXTRACT: control_change channel=3 control=64 value=127 time=0
EXTRACT: note_on channel=9 note=40 velocity=100 time=0.06442604166666667
EXTRACT: note_on channel=3 note=63 velocity=75 time=0.012885208333333334
EXTRACT: note_on channel=9 note=90 velocity=127 time=0
EXTRACT: note_on channel=9 note=44 velocity=71 time=0
EXTRACT: note_on channel=9 note=42 velocity=71 time=0
EXTRACT: note_on channel=9 note=70 velocity=40 time=0
EXTRACT: note_on channel=9 note=54 velocity=127 time=0
EXTRACT: note_on channel=3 note=67 velocity=75 time=0.012885208333333334
EXTRACT: note_on channel=3 note=70 velocity=75 time=0.012885208333333334
EXTRACT: note_on channel=3 note=75 velocity=75 time=0
EXTRACT: note_off channel=3 note=63 velocity=0 time=0.025770416666666667
EXTRACT: note_off channel=9 note=54 velocity=0 time=0
EXTRACT: note_off channel=9 note=70 velocity=0 time=0
EXTRACT: note_off channel=9 note=42 velocity=0 time=0
EXTRACT: note_off channel=9 note=44 velocity=0 time=0
EXTRACT: note_off channel=3 note=67 velocity=0 time=0.012885208333333334
EXTRACT: note_off channel=3 note=75 velocity=0 time=0.012885208333333334
EXTRACT: note_off channel=3 note=70 velocity=0 time=0
EXTRACT: note_off channel=2 note=39 velocity=0 time=0.051540833333333334
EXTRACT: note_off channel=9 note=90 velocity=0 time=0
EXTRACT: note_off channel=9 note=40 velocity=0 time=0
EXTRACT: note_off channel=10 note=63 velocity=0 time=0
EXTRACT: note_on channel=10 note=58 velocity=122 time=0
EXTRACT: note_on channel=3 note=75 velocity=54 time=0.012885208333333334
EXTRACT: note_on channel=9 note=70 velocity=64 time=0
EXTRACT: note_on channel=9 note=54 velocity=64 time=0
EXTRACT: note_on channel=3 note=70 velocity=54 time=0.012885208333333334
EXTRACT: note_on channel=3 note=67 velocity=54 time=0.012885208333333334
EXTRACT: note_on channel=3 note=63 velocity=54 time=0.012885208333333334
EXTRACT: note_off channel=3 note=75 velocity=0 time=0.025770416666666667
EXTRACT: note_off channel=9 note=54 velocity=0 time=0
EXTRACT: note_off channel=9 note=70 velocity=0 time=0
EXTRACT: note_off channel=3 note=70 velocity=0 time=0.012885208333333334
EXTRACT: note_off channel=3 note=67 velocity=0 time=0.012885208333333334
EXTRACT: note_off channel=3 note=63 velocity=0 time=0.012885208333333334
EXTRACT: note_on channel=3 note=63 velocity=50 time=0.051540833333333334
EXTRACT: note_on channel=9 note=42 velocity=40 time=0
EXTRACT: note_on channel=9 note=70 velocity=110 time=0
EXTRACT: note_on channel=3 note=67 velocity=50 time=0.012885208333333334
EXTRACT: note_on channel=9 note=54 velocity=111 time=0
EXTRACT: note_on channel=10 note=65 velocity=106 time=0
EXTRACT: note_on channel=3 note=70 velocity=50 time=0.012885208333333334
EXTRACT: note_off channel=10 note=58 velocity=0 time=0
EXTRACT: note_on channel=3 note=75 velocity=50 time=0.012885208333333334
EXTRACT: note_off channel=3 note=63 velocity=0 time=0.025770416666666667
EXTRACT: note_off channel=9 note=54 velocity=0 time=0
EXTRACT: note_off channel=9 note=70 velocity=0 time=0
EXTRACT: note_off channel=9 note=42 velocity=0 time=0
EXTRACT: note_off channel=3 note=70 velocity=0 time=0.012885208333333334
EXTRACT: note_off channel=3 note=67 velocity=0 time=0
EXTRACT: note_off channel=3 note=75 velocity=0 time=0.012885208333333334
EXTRACT: note_on channel=3 note=75 velocity=69 time=0.06442604166666667
EXTRACT: note_on channel=9 note=70 velocity=64 time=0
EXTRACT: note_on channel=9 note=54 velocity=58 time=0
EXTRACT: note_on channel=3 note=70 velocity=69 time=0.012885208333333334
EXTRACT: note_on channel=10 note=67 velocity=127 time=0
EXTRACT: note_on channel=3 note=67 velocity=69 time=0.012885208333333334
EXTRACT: note_on channel=3 note=63 velocity=69 time=0
EXTRACT: control_change channel=3 control=64 value=0 time=0.012885208333333334
EXTRACT: note_off channel=10 note=65 velocity=0 time=0
EXTRACT: note_off channel=3 note=75 velocity=0 time=0.025770416666666667
EXTRACT: note_off channel=9 note=54 velocity=0 time=0
EXTRACT: note_off channel=9 note=70 velocity=0 time=0
EXTRACT: note_off channel=3 note=67 velocity=0 time=0.012885208333333334
EXTRACT: note_off channel=3 note=70 velocity=0 time=0
EXTRACT: note_off channel=3 note=63 velocity=0 time=0.012885208333333334
EXTRACT: control_change channel=3 control=64 value=127 time=0
EXTRACT: control_change channel=3 control=64 value=0 time=0.06442604166666667
EXTRACT: note_off channel=4 note=63 velocity=0 time=0
EXTRACT: note_off channel=4 note=67 velocity=0 time=0.012885208333333334
EXTRACT: note_on channel=4 note=63 velocity=127 time=0
EXTRACT: note_on channel=4 note=68 velocity=127 time=0
EXTRACT: note_on channel=2 note=32 velocity=110 time=0.012885208333333334
EXTRACT: control_change channel=3 control=64 value=127 time=0
EXTRACT: note_on channel=9 note=42 velocity=69 time=0
EXTRACT: note_on channel=9 note=44 velocity=69 time=0
EXTRACT: note_on channel=10 note=68 velocity=110 time=0
EXTRACT: note_on channel=3 note=63 velocity=56 time=0.012885208333333334
EXTRACT: note_on channel=3 note=68 velocity=56 time=0
EXTRACT: note_on channel=9 note=36 velocity=110 time=0
EXTRACT: note_on channel=9 note=70 velocity=40 time=0
EXTRACT: note_on channel=9 note=54 velocity=127 time=0
EXTRACT: note_on channel=3 note=72 velocity=56 time=0.012885208333333334
EXTRACT: note_on channel=3 note=75 velocity=52 time=0
EXTRACT: note_off channel=3 note=68 velocity=0 time=0.012885208333333334
EXTRACT: note_off channel=3 note=63 velocity=0 time=0
EXTRACT: note_off channel=9 note=54 velocity=0 time=0
EXTRACT: note_off channel=9 note=70 velocity=0 time=0
EXTRACT: note_off channel=9 note=36 velocity=0 time=0
EXTRACT: note_off channel=9 note=44 velocity=0 time=0
EXTRACT: note_off channel=9 note=42 velocity=0 time=0
EXTRACT: note_off channel=3 note=72 velocity=0 time=0.012885208333333334
EXTRACT: note_off channel=10 note=67 velocity=0 time=0
EXTRACT: note_off channel=3 note=75 velocity=0 time=0.025770416666666667
EXTRACT: note_on channel=3 note=63 velocity=52 time=0.051540833333333334
EXTRACT: note_on channel=9 note=70 velocity=64 time=0
EXTRACT: note_on channel=9 note=54 velocity=56 time=0
EXTRACT: note_on channel=3 note=68 velocity=52 time=0.012885208333333334
EXTRACT: note_on channel=3 note=72 velocity=52 time=0
EXTRACT: note_on channel=3 note=75 velocity=52 time=0.012885208333333334
EXTRACT: note_off channel=3 note=63 velocity=0 time=0.038655625
EXTRACT: note_off channel=9 note=54 velocity=0 time=0
EXTRACT: note_off channel=9 note=70 velocity=0 time=0
EXTRACT: note_off channel=3 note=72 velocity=0 time=0.012885208333333334
EXTRACT: note_off channel=3 note=68 velocity=0 time=0
EXTRACT: note_off channel=3 note=75 velocity=0 time=0.012885208333333334
EXTRACT: note_on channel=9 note=36 velocity=110 time=0.06442604166666667
EXTRACT: note_on channel=9 note=42 velocity=38 time=0
EXTRACT: note_on channel=9 note=70 velocity=110 time=0
EXTRACT: note_on channel=3 note=75 velocity=52 time=0.012885208333333334
EXTRACT: note_on channel=9 note=54 velocity=99 time=0
EXTRACT: note_on channel=10 note=67 velocity=115 time=0
EXTRACT: note_on channel=3 note=72 velocity=52 time=0.012885208333333334
EXTRACT: note_on channel=3 note=68 velocity=52 time=0
EXTRACT: note_on channel=3 note=63 velocity=52 time=0.012885208333333334
EXTRACT: note_off channel=10 note=68 velocity=0 time=0.012885208333333334
EXTRACT: note_off channel=3 note=75 velocity=0 time=0.012885208333333334
EXTRACT: note_off channel=9 note=54 velocity=0 time=0
EXTRACT: note_off channel=9 note=70 velocity=0 time=0
EXTRACT: note_off channel=9 note=42 velocity=0 time=0
EXTRACT: note_off channel=9 note=36 velocity=0 time=0
EXTRACT: note_off channel=3 note=72 velocity=0 time=0.012885208333333334
EXTRACT: note_off channel=3 note=68 velocity=0 time=0.012885208333333334
EXTRACT: note_off channel=3 note=63 velocity=0 time=0.012885208333333334
EXTRACT: note_off channel=2 note=32 velocity=0 time=0.038655625
EXTRACT: note_on channel=10 note=65 velocity=115 time=0
EXTRACT: note_on channel=2 note=39 velocity=110 time=0.012885208333333334
EXTRACT: note_on channel=3 note=75 velocity=54 time=0
EXTRACT: note_on channel=9 note=70 velocity=64 time=0
EXTRACT: note_on channel=3 note=72 velocity=54 time=0.012885208333333334
EXTRACT: note_on channel=9 note=54 velocity=52 time=0
EXTRACT: note_on channel=3 note=68 velocity=54 time=0.012885208333333334
EXTRACT: note_on channel=3 note=63 velocity=54 time=0
EXTRACT: note_off channel=10 note=67 velocity=0 time=0
EXTRACT: control_change channel=3 control=64 value=0 time=0.025770416666666667
EXTRACT: note_off channel=3 note=75 velocity=0 time=0.012885208333333334
EXTRACT: note_off channel=9 note=54 velocity=0 time=0
EXTRACT: note_off channel=9 note=70 velocity=0 time=0
EXTRACT: note_off channel=3 note=72 velocity=0 time=0.012885208333333334
EXTRACT: note_off channel=3 note=63 velocity=0 time=0.012885208333333334
EXTRACT: note_off channel=3 note=68 velocity=0 time=0
EXTRACT: control_change channel=3 control=64 value=127 time=0.012885208333333334
EXTRACT: note_off channel=2 note=39 velocity=0 time=0.038655625
EXTRACT: note_on channel=2 note=30 velocity=110 time=0.025770416666666667
EXTRACT: note_on channel=9 note=40 velocity=100 time=0
EXTRACT: note_on channel=9 note=90 velocity=127 time=0
EXTRACT: note_on channel=9 note=44 velocity=71 time=0
EXTRACT: note_on channel=9 note=42 velocity=71 time=0
EXTRACT: note_off channel=2 note=30 velocity=0 time=0.012885208333333334
EXTRACT: note_on channel=3 note=63 velocity=73 time=0
EXTRACT: control_change channel=3 control=64 value=0 time=0
EXTRACT: note_on channel=9 note=70 velocity=40 time=0
EXTRACT: note_on channel=9 note=54 velocity=127 time=0
EXTRACT: note_off channel=3 note=63 velocity=0 time=0.012885208333333334
EXTRACT: note_off channel=4 note=68 velocity=0 time=0
EXTRACT: note_off channel=4 note=63 velocity=0 time=0
EXTRACT: control_change channel=3 control=64 value=127 time=0.012885208333333334
EXTRACT: note_on channel=3 note=67 velocity=73 time=0
EXTRACT: note_on channel=4 note=62 velocity=127 time=0
EXTRACT: note_on channel=4 note=67 velocity=127 time=0
EXTRACT: note_on channel=3 note=72 velocity=73 time=0.012885208333333334
EXTRACT: note_on channel=3 note=74 velocity=73 time=0
EXTRACT: note_off channel=9 note=54 velocity=0 time=0
EXTRACT: note_off channel=9 note=70 velocity=0 time=0
EXTRACT: note_off channel=9 note=42 velocity=0 time=0
EXTRACT: note_off channel=9 note=44 velocity=0 time=0
EXTRACT: note_off channel=3 note=67 velocity=0 time=0.012885208333333334
EXTRACT: note_off channel=3 note=74 velocity=0 time=0.012885208333333334
EXTRACT: note_off channel=3 note=72 velocity=0 time=0
EXTRACT: note_off channel=9 note=90 velocity=0 time=0.051540833333333334
EXTRACT: note_off channel=9 note=40 velocity=0 time=0
EXTRACT: note_on channel=2 note=31 velocity=110 time=0.012885208333333334
EXTRACT: note_on channel=9 note=70 velocity=73 time=0
EXTRACT: note_on channel=9 note=54 velocity=64 time=0
EXTRACT: note_on channel=3 note=74 velocity=50 time=0.012885208333333334
EXTRACT: note_off channel=10 note=65 velocity=0 time=0
EXTRACT: note_on channel=10 note=63 velocity=110 time=0
EXTRACT: note_on channel=3 note=72 velocity=50 time=0.012885208333333334
EXTRACT: note_on channel=3 note=67 velocity=50 time=0
EXTRACT: note_on channel=3 note=62 velocity=52 time=0.012885208333333334
EXTRACT: note_off channel=3 note=74 velocity=0 time=0.025770416666666667
EXTRACT: note_off channel=9 note=54 velocity=0 time=0
EXTRACT: note_off channel=9 note=70 velocity=0 time=0
EXTRACT: note_off channel=3 note=72 velocity=0 time=0.012885208333333334
EXTRACT: note_off channel=3 note=67 velocity=0 time=0.012885208333333334
EXTRACT: note_off channel=3 note=62 velocity=0 time=0.012885208333333334
EXTRACT: note_on channel=3 note=62 velocity=52 time=0.051540833333333334
EXTRACT: note_on channel=9 note=42 velocity=42 time=0
EXTRACT: note_on channel=9 note=70 velocity=107 time=0
EXTRACT: note_on channel=3 note=67 velocity=52 time=0.012885208333333334
EXTRACT: note_on channel=3 note=72 velocity=52 time=0
EXTRACT: note_on channel=9 note=54 velocity=101 time=0
EXTRACT: note_on channel=3 note=74 velocity=52 time=0.012885208333333334
EXTRACT: note_off channel=3 note=62 velocity=0 time=0.038655625
EXTRACT: note_off channel=9 note=54 velocity=0 time=0
EXTRACT: note_off channel=9 note=70 velocity=0 time=0
EXTRACT: note_off channel=9 note=42 velocity=0 time=0
EXTRACT: note_off channel=3 note=72 velocity=0 time=0.012885208333333334
EXTRACT: note_off channel=3 note=67 velocity=0 time=0
EXTRACT: note_off channel=3 note=74 velocity=0 time=0.012885208333333334
EXTRACT: note_on channel=3 note=74 velocity=52 time=0.06442604166666667
EXTRACT: note_on channel=9 note=70 velocity=67 time=0
EXTRACT: note_on channel=9 note=54 velocity=58 time=0
EXTRACT: note_on channel=3 note=72 velocity=52 time=0.012885208333333334
EXTRACT: note_on channel=3 note=67 velocity=52 time=0
EXTRACT: note_on channel=3 note=62 velocity=52 time=0.012885208333333334
EXTRACT: note_off channel=10 note=63 velocity=0 time=0.012885208333333334
EXTRACT: control_change channel=3 control=64 value=0 time=0.012885208333333334
EXTRACT: note_off channel=3 note=74 velocity=0 time=0.012885208333333334
EXTRACT: note_off channel=9 note=54 velocity=0 time=0
EXTRACT: note_off channel=9 note=70 velocity=0 time=0
EXTRACT: note_off channel=2 note=31 velocity=0 time=0.012885208333333334
EXTRACT: note_off channel=3 note=62 velocity=0 time=0
EXTRACT: note_off channel=3 note=67 velocity=0 time=0
EXTRACT: note_off channel=3 note=72 velocity=0 time=0
EXTRACT: note_off channel=4 note=67 velocity=0 time=0
EXTRACT: note_off channel=4 note=62 velocity=0 time=0
EXTRACT: note_on channel=4 note=60 velocity=127 time=0.012885208333333334
EXTRACT: note_on channel=4 note=65 velocity=127 time=0
EXTRACT: control_change channel=3 control=64 value=127 time=0.012885208333333334
EXTRACT: note_on channel=10 note=65 velocity=115 time=0.038655625
EXTRACT: note_on channel=9 note=36 velocity=127 time=0.012885208333333334
EXTRACT: note_on channel=2 note=29 velocity=127 time=0.012885208333333334
EXTRACT: control_change channel=3 control=64 value=127 time=0
EXTRACT: note_on channel=9 note=44 velocity=69 time=0
EXTRACT: note_on channel=9 note=42 velocity=69 time=0
EXTRACT: note_on channel=9 note=70 velocity=40 time=0
EXTRACT: note_on channel=9 note=54 velocity=127 time=0
EXTRACT: note_on channel=3 note=60 velocity=81 time=0.012885208333333334
EXTRACT: note_on channel=3 note=65 velocity=81 time=0
EXTRACT: note_on channel=3 note=68 velocity=81 time=0.012885208333333334
EXTRACT: note_on channel=3 note=72 velocity=81 time=0
EXTRACT: note_off channel=3 note=60 velocity=0 time=0.025770416666666667
EXTRACT: note_off channel=9 note=54 velocity=0 time=0
EXTRACT: note_off channel=9 note=70 velocity=0 time=0
EXTRACT: note_off channel=3 note=65 velocity=0 time=0.012885208333333334
EXTRACT: note_off channel=3 note=72 velocity=0 time=0.012885208333333334
EXTRACT: note_off channel=3 note=68 velocity=0 time=0
EXTRACT: note_off channel=9 note=42 velocity=0 time=0.051540833333333334
EXTRACT: note_off channel=9 note=44 velocity=0 time=0
EXTRACT: note_off channel=9 note=36 velocity=0 time=0
EXTRACT: note_on channel=3 note=72 velocity=54 time=0.012885208333333334
EXTRACT: note_on channel=9 note=70 velocity=69 time=0
EXTRACT: note_on channel=9 note=54 velocity=71 time=0
EXTRACT: note_on channel=3 note=68 velocity=54 time=0.012885208333333334
EXTRACT: note_on channel=3 note=65 velocity=54 time=0.012885208333333334
EXTRACT: note_on channel=3 note=60 velocity=50 time=0.012885208333333334
EXTRACT: note_off channel=3 note=72 velocity=0 time=0.025770416666666667
EXTRACT: note_off channel=9 note=54 velocity=0 time=0
EXTRACT: note_off channel=9 note=70 velocity=0 time=0
EXTRACT: note_off channel=3 note=68 velocity=0 time=0.012885208333333334
EXTRACT: note_off channel=3 note=65 velocity=0 time=0.012885208333333334
EXTRACT: note_off channel=3 note=60 velocity=0 time=0.012885208333333334
EXTRACT: note_on channel=3 note=60 velocity=52 time=0.051540833333333334
EXTRACT: note_on channel=9 note=42 velocity=36 time=0
EXTRACT: note_on channel=9 note=70 velocity=113 time=0
EXTRACT: note_on channel=3 note=65 velocity=52 time=0.012885208333333334
EXTRACT: note_on channel=3 note=68 velocity=52 time=0
EXTRACT: note_on channel=9 note=54 velocity=117 time=0
EXTRACT: note_on channel=3 note=72 velocity=52 time=0.012885208333333334
EXTRACT: note_off channel=3 note=60 velocity=0 time=0.038655625
EXTRACT: note_off channel=9 note=54 velocity=0 time=0
EXTRACT: note_off channel=9 note=70 velocity=0 time=0
EXTRACT: note_off channel=9 note=42 velocity=0 time=0
EXTRACT: note_off channel=3 note=68 velocity=0 time=0.012885208333333334
EXTRACT: note_off channel=3 note=65 velocity=0 time=0
EXTRACT: note_off channel=3 note=72 velocity=0 time=0.012885208333333334
EXTRACT: note_off channel=2 note=29 velocity=0 time=0.038655625
EXTRACT: note_on channel=10 note=63 velocity=93 time=0
EXTRACT: note_on channel=2 note=29 velocity=125 time=0.025770416666666667
EXTRACT: note_on channel=9 note=36 velocity=99 time=0
EXTRACT: note_on channel=9 note=70 velocity=60 time=0
EXTRACT: note_on channel=3 note=72 velocity=50 time=0.012885208333333334
EXTRACT: note_on channel=3 note=68 velocity=50 time=0
EXTRACT: note_on channel=9 note=54 velocity=69 time=0
EXTRACT: note_on channel=3 note=65 velocity=50 time=0.012885208333333334
EXTRACT: note_on channel=3 note=60 velocity=50 time=0
EXTRACT: control_change channel=3 control=64 value=0 time=0.012885208333333334
EXTRACT: note_off channel=10 note=65 velocity=0 time=0
EXTRACT: note_off channel=3 note=72 velocity=0 time=0.025770416666666667
EXTRACT: note_off channel=9 note=54 velocity=0 time=0
EXTRACT: note_off channel=9 note=70 velocity=0 time=0
EXTRACT: note_off channel=9 note=36 velocity=0 time=0
EXTRACT: note_off channel=3 note=65 velocity=0 time=0.012885208333333334
EXTRACT: note_off channel=3 note=68 velocity=0 time=0
EXTRACT: note_off channel=3 note=60 velocity=0 time=0.012885208333333334
EXTRACT: control_change channel=3 control=64 value=127 time=0
EXTRACT: note_on channel=9 note=40 velocity=100 time=0.06442604166666667
EXTRACT: note_on channel=9 note=90 velocity=127 time=0
EXTRACT: note_on channel=3 note=60 velocity=110 time=0.012885208333333334
EXTRACT: note_on channel=9 note=44 velocity=71 time=0
EXTRACT: note_on channel=9 note=70 velocity=113 time=0
EXTRACT: note_on channel=9 note=49 velocity=73 time=0
EXTRACT: note_on channel=10 note=62 velocity=127 time=0
EXTRACT: note_on channel=3 note=65 velocity=110 time=0.012885208333333334
EXTRACT: note_off channel=10 note=63 velocity=0 time=0
EXTRACT: note_on channel=3 note=68 velocity=110 time=0.012885208333333334
EXTRACT: note_on channel=3 note=72 velocity=110 time=0
EXTRACT: note_off channel=3 note=60 velocity=0 time=0.025770416666666667
EXTRACT: note_off channel=9 note=49 velocity=0 time=0
EXTRACT: note_off channel=9 note=70 velocity=0 time=0
EXTRACT: note_off channel=9 note=44 velocity=0 time=0
EXTRACT: note_off channel=3 note=65 velocity=0 time=0.012885208333333334
EXTRACT: note_off channel=3 note=72 velocity=0 time=0.012885208333333334
EXTRACT: note_off channel=3 note=68 velocity=0 time=0
EXTRACT: note_off channel=2 note=29 velocity=0 time=0.051540833333333334
EXTRACT: note_off channel=9 note=90 velocity=0 time=0
EXTRACT: note_off channel=9 note=40 velocity=0 time=0
EXTRACT: note_on channel=3 note=72 velocity=40 time=0.012885208333333334
EXTRACT: note_on channel=9 note=70 velocity=10 time=0
EXTRACT: note_on channel=3 note=68 velocity=40 time=0.012885208333333334
EXTRACT: note_on channel=3 note=65 velocity=40 time=0.012885208333333334
EXTRACT: note_on channel=3 note=60 velocity=40 time=0.012885208333333334
EXTRACT: note_off channel=3 note=72 velocity=0 time=0.025770416666666667
EXTRACT: note_off channel=9 note=70 velocity=0 time=0
EXTRACT: note_off channel=3 note=68 velocity=0 time=0.012885208333333334
EXTRACT: note_off channel=3 note=65 velocity=0 time=0.012885208333333334
EXTRACT: note_off channel=3 note=60 velocity=0 time=0.012885208333333334
EXTRACT: note_on channel=3 note=60 velocity=46 time=0.051540833333333334
EXTRACT: note_on channel=9 note=70 velocity=24 time=0
EXTRACT: note_on channel=3 note=65 velocity=46 time=0.012885208333333334
EXTRACT: note_on channel=3 note=68 velocity=46 time=0
EXTRACT: note_on channel=3 note=72 velocity=46 time=0.012885208333333334
EXTRACT: note_off channel=3 note=60 velocity=0 time=0.038655625
EXTRACT: note_off channel=9 note=70 velocity=0 time=0
EXTRACT: note_off channel=3 note=68 velocity=0 time=0.012885208333333334
EXTRACT: note_off channel=3 note=65 velocity=0 time=0
EXTRACT: note_off channel=3 note=72 velocity=0 time=0.012885208333333334
EXTRACT: note_on channel=10 note=60 velocity=106 time=0.038655625
EXTRACT: note_on channel=3 note=72 velocity=77 time=0.025770416666666667
EXTRACT: note_on channel=9 note=36 velocity=110 time=0
EXTRACT: note_on channel=9 note=70 velocity=64 time=0
EXTRACT: note_on channel=3 note=68 velocity=77 time=0.012885208333333334
EXTRACT: note_on channel=3 note=65 velocity=77 time=0
EXTRACT: note_off channel=10 note=62 velocity=0 time=0
EXTRACT: note_on channel=3 note=60 velocity=77 time=0.012885208333333334
EXTRACT: note_off channel=10 note=60 velocity=0 time=0.012885208333333334
EXTRACT: note_off channel=3 note=60 velocity=0 time=0.025770416666666667
EXTRACT: note_off channel=3 note=65 velocity=0 time=0
EXTRACT: note_off channel=3 note=68 velocity=0 time=0
EXTRACT: note_off channel=3 note=72 velocity=0 time=0
EXTRACT: control_change channel=3 control=64 value=0 time=0
EXTRACT: note_off channel=4 note=60 velocity=0 time=0
EXTRACT: control_change channel=4 control=0 value=0 time=0
EXTRACT: control_change channel=4 control=0 value=0 time=0
EXTRACT: control_change channel=4 control=32 value=0 time=0
EXTRACT: control_change channel=4 control=0 value=0 time=0
EXTRACT: control_change channel=4 control=32 value=0 time=0
EXTRACT: program_change channel=4 program=89 time=0
EXTRACT: note_off channel=4 note=65 velocity=0 time=0.012885208333333334
EXTRACT: note_on channel=4 note=62 velocity=127 time=0
EXTRACT: note_on channel=4 note=67 velocity=127 time=0
EXTRACT: control_change channel=3 control=64 value=127 time=0.012885208333333334
EXTRACT: note_off channel=9 note=70 velocity=0 time=0
EXTRACT: note_off channel=9 note=36 velocity=0 time=0
EXTRACT: note_on channel=9 note=40 velocity=100 time=0.06442604166666667
EXTRACT: note_on channel=9 note=90 velocity=125 time=0
EXTRACT: note_on channel=2 note=31 velocity=110 time=0.012885208333333334
EXTRACT: note_on channel=4 note=62 velocity=116 time=0
EXTRACT: note_on channel=9 note=70 velocity=110 time=0
EXTRACT: note_on channel=9 note=44 velocity=40 time=0
EXTRACT: note_on channel=10 note=59 velocity=127 time=0
EXTRACT: note_off channel=4 note=62 velocity=0 time=0.051540833333333334
EXTRACT: note_off channel=9 note=44 velocity=0 time=0
EXTRACT: note_off channel=9 note=70 velocity=0 time=0
EXTRACT: note_off channel=9 note=90 velocity=0 time=0
EXTRACT: note_off channel=9 note=40 velocity=0 time=0
EXTRACT: note_on channel=3 note=62 velocity=93 time=0.09019645833333334
EXTRACT: note_on channel=9 note=70 velocity=10 time=0
EXTRACT: note_on channel=3 note=67 velocity=93 time=0.012885208333333334
EXTRACT: note_on channel=3 note=71 velocity=93 time=0
EXTRACT: note_on channel=3 note=74 velocity=93 time=0.012885208333333334
EXTRACT: note_off channel=3 note=62 velocity=0 time=0.038655625
EXTRACT: note_off channel=9 note=70 velocity=0 time=0
EXTRACT: note_off channel=3 note=71 velocity=0 time=0.012885208333333334
EXTRACT: note_off channel=3 note=67 velocity=0 time=0
EXTRACT: note_off channel=3 note=74 velocity=0 time=0.012885208333333334
EXTRACT: note_on channel=9 note=40 velocity=100 time=0.06442604166666667
EXTRACT: note_on channel=9 note=90 velocity=123 time=0
EXTRACT: note_on channel=9 note=70 velocity=24 time=0
EXTRACT: note_on channel=3 note=74 velocity=44 time=0.012885208333333334
EXTRACT: note_on channel=3 note=71 velocity=44 time=0
EXTRACT: note_on channel=3 note=67 velocity=44 time=0.012885208333333334
EXTRACT: note_on channel=3 note=62 velocity=44 time=0.012885208333333334
EXTRACT: note_off channel=2 note=31 velocity=0 time=0.025770416666666667
EXTRACT: note_off channel=3 note=74 velocity=0 time=0
EXTRACT: note_off channel=9 note=70 velocity=0 time=0
EXTRACT: note_off channel=9 note=90 velocity=0 time=0
EXTRACT: note_off channel=9 note=40 velocity=0 time=0
EXTRACT: note_off channel=3 note=71 velocity=0 time=0.012885208333333334
EXTRACT: note_off channel=3 note=67 velocity=0 time=0.012885208333333334
EXTRACT: note_off channel=3 note=62 velocity=0 time=0.012885208333333334
EXTRACT: note_on channel=2 note=31 velocity=125 time=0.051540833333333334
EXTRACT: note_on channel=9 note=36 velocity=110 time=0
EXTRACT: note_on channel=9 note=70 velocity=64 time=0
EXTRACT: note_on channel=4 note=62 velocity=113 time=0.012885208333333334
EXTRACT: note_off channel=4 note=62 velocity=0 time=0.038655625
EXTRACT: note_off channel=9 note=70 velocity=0 time=0.012885208333333334
EXTRACT: note_off channel=9 note=36 velocity=0 time=0
EXTRACT: note_on channel=9 note=40 velocity=40 time=0.012885208333333334
EXTRACT: note_off channel=9 note=40 velocity=0 time=0.012885208333333334
EXTRACT: note_on channel=9 note=40 velocity=60 time=0.025770416666666667
EXTRACT: note_off channel=9 note=40 velocity=0 time=0.012885208333333334
EXTRACT: note_on channel=9 note=40 velocity=100 time=0.025770416666666667
EXTRACT: note_on channel=9 note=90 velocity=127 time=0
EXTRACT: note_on channel=3 note=62 velocity=83 time=0.012885208333333334
EXTRACT: note_on channel=3 note=67 velocity=83 time=0
EXTRACT: note_on channel=9 note=44 velocity=71 time=0
EXTRACT: note_on channel=9 note=70 velocity=110 time=0
EXTRACT: note_on channel=3 note=71 velocity=83 time=0.012885208333333334
EXTRACT: note_on channel=3 note=74 velocity=83 time=0.012885208333333334
EXTRACT: note_off channel=3 note=67 velocity=0 time=0.025770416666666667
EXTRACT: note_off channel=3 note=62 velocity=0 time=0
EXTRACT: note_off channel=9 note=70 velocity=0 time=0
EXTRACT: note_off channel=9 note=44 velocity=0 time=0
EXTRACT: note_off channel=3 note=71 velocity=0 time=0.012885208333333334
EXTRACT: note_off channel=3 note=74 velocity=0 time=0.025770416666666667
EXTRACT: note_off channel=9 note=90 velocity=0 time=0.038655625
EXTRACT: note_off channel=9 note=40 velocity=0 time=0
EXTRACT: note_on channel=3 note=74 velocity=44 time=0.012885208333333334
EXTRACT: note_on channel=9 note=47 velocity=110 time=0
EXTRACT: note_on channel=9 note=70 velocity=10 time=0
EXTRACT: note_on channel=3 note=71 velocity=44 time=0.012885208333333334
EXTRACT: note_on channel=3 note=67 velocity=44 time=0.012885208333333334
EXTRACT: note_on channel=3 note=62 velocity=44 time=0
EXTRACT: note_off channel=3 note=74 velocity=0 time=0.038655625
EXTRACT: note_off channel=9 note=70 velocity=0 time=0
EXTRACT: note_off channel=9 note=47 velocity=0 time=0
EXTRACT: note_off channel=3 note=71 velocity=0 time=0.012885208333333334
EXTRACT: note_off channel=10 note=59 velocity=0 time=0
EXTRACT: note_off channel=3 note=62 velocity=0 time=0.012885208333333334
EXTRACT: note_off channel=3 note=67 velocity=0 time=0
EXTRACT: note_off channel=2 note=31 velocity=0 time=0.012885208333333334
EXTRACT: note_on channel=2 note=31 velocity=125 time=0.051540833333333334
EXTRACT: note_on channel=9 note=45 velocity=110 time=0
EXTRACT: note_on channel=9 note=70 velocity=22 time=0
EXTRACT: note_on channel=4 note=62 velocity=96 time=0.012885208333333334
EXTRACT: note_on channel=10 note=63 velocity=122 time=0
EXTRACT: note_off channel=4 note=62 velocity=0 time=0.025770416666666667
EXTRACT: note_off channel=9 note=70 velocity=0 time=0.025770416666666667
EXTRACT: note_off channel=9 note=45 velocity=0 time=0
EXTRACT: note_off channel=2 note=31 velocity=0 time=0.07731125
EXTRACT: control_change channel=3 control=64 value=0 time=0
EXTRACT: note_off channel=4 note=62 velocity=0 time=0
EXTRACT: note_off channel=4 note=67 velocity=0 time=0
EXTRACT: note_on channel=4 note=60 velocity=127 time=0
EXTRACT: control_change channel=3 control=64 value=127 time=0.012885208333333334
EXTRACT: note_on channel=4 note=63 velocity=127 time=0
EXTRACT: note_on channel=9 note=36 velocity=91 time=0.012885208333333334
EXTRACT: note_on channel=9 note=55 velocity=85 time=0
EXTRACT: note_on channel=9 note=70 velocity=67 time=0
EXTRACT: note_on channel=10 note=62 velocity=98 time=0
EXTRACT: note_on channel=4 note=60 velocity=81 time=0.012885208333333334
EXTRACT: note_off channel=9 note=70 velocity=0 time=0.038655625
EXTRACT: note_off channel=9 note=55 velocity=0 time=0
EXTRACT: note_off channel=9 note=36 velocity=0 time=0
EXTRACT: note_off channel=10 note=63 velocity=0 time=0.012885208333333334
EXTRACT: note_off channel=4 note=60 velocity=0 time=0.051540833333333334
EXTRACT: control_change channel=3 control=64 value=0 time=0.012885208333333334
EXTRACT: note_off channel=4 note=60 velocity=0 time=0
EXTRACT: note_off channel=4 note=63 velocity=0 time=0
EXTRACT: control_change channel=4 control=0 value=0 time=0
EXTRACT: control_change channel=4 control=0 value=0 time=0
EXTRACT: control_change channel=4 control=32 value=0 time=0
EXTRACT: control_change channel=4 control=0 value=0 time=0
EXTRACT: control_change channel=4 control=32 value=0 time=0
EXTRACT: program_change channel=4 program=50 time=0
EXTRACT: note_on channel=10 note=55 velocity=127 time=0.025770416666666667
EXTRACT: note_on channel=4 note=60 velocity=127 time=0.012885208333333334
EXTRACT: program_change channel=9 program=0 time=0
EXTRACT: note_on channel=9 note=49 velocity=90 time=0
EXTRACT: program_change channel=9 program=32 time=0
EXTRACT: note_off channel=9 note=49 velocity=0 time=0.0016106510416666667
EXTRACT: note_on channel=2 note=36 velocity=127 time=0.011274557291666668
EXTRACT: note_on channel=4 note=63 velocity=127 time=0
EXTRACT: note_on channel=9 note=36 velocity=127 time=0
EXTRACT: note_on channel=9 note=44 velocity=69 time=0
EXTRACT: note_on channel=9 note=42 velocity=69 time=0
EXTRACT: control_change channel=3 control=64 value=127 time=0.012885208333333334
EXTRACT: note_on channel=3 note=60 velocity=81 time=0
EXTRACT: note_on channel=9 note=70 velocity=40 time=0
EXTRACT: note_on channel=9 note=54 velocity=127 time=0
EXTRACT: note_off channel=3 note=60 velocity=0 time=0.012885208333333334
EXTRACT: note_on channel=3 note=63 velocity=81 time=0
EXTRACT: note_off channel=9 note=54 velocity=0 time=0
EXTRACT: note_off channel=9 note=70 velocity=0 time=0
EXTRACT: note_off channel=3 note=63 velocity=0 time=0.012885208333333334
EXTRACT: note_on channel=3 note=67 velocity=81 time=0
EXTRACT: note_on channel=3 note=72 velocity=81 time=0
EXTRACT: note_off channel=3 note=72 velocity=0 time=0.012885208333333334
EXTRACT: note_off channel=3 note=67 velocity=0 time=0
EXTRACT: note_off channel=9 note=42 velocity=0 time=0.051540833333333334
EXTRACT: note_off channel=9 note=44 velocity=0 time=0
EXTRACT: note_off channel=9 note=36 velocity=0 time=0
EXTRACT: note_on channel=3 note=72 velocity=54 time=0.012885208333333334
EXTRACT: note_on channel=9 note=70 velocity=64 time=0
EXTRACT: note_on channel=9 note=54 velocity=71 time=0
EXTRACT: note_on channel=3 note=67 velocity=54 time=0.012885208333333334
EXTRACT: note_on channel=3 note=63 velocity=54 time=0.012885208333333334
EXTRACT: note_on channel=10 note=60 velocity=98 time=0
EXTRACT: note_on channel=3 note=60 velocity=50 time=0.012885208333333334
EXTRACT: note_off channel=3 note=72 velocity=0 time=0.025770416666666667
EXTRACT: note_off channel=9 note=54 velocity=0 time=0
EXTRACT: note_off channel=9 note=70 velocity=0 time=0
EXTRACT: note_off channel=3 note=67 velocity=0 time=0.012885208333333334
EXTRACT: note_off channel=10 note=62 velocity=0 time=0
EXTRACT: note_off channel=3 note=63 velocity=0 time=0.012885208333333334
EXTRACT: note_off channel=2 note=36 velocity=0 time=0.012885208333333334
EXTRACT: note_off channel=3 note=60 velocity=0 time=0
EXTRACT: control_change channel=3 control=64 value=0 time=0
EXTRACT: note_off channel=4 note=63 velocity=0 time=0
EXTRACT: note_off channel=4 note=60 velocity=0 time=0
EXTRACT: note_off channel=10 note=60 velocity=0 time=1.3787172916666668
EXTRACT: note_off channel=10 note=55 velocity=0 time=0
INTERVALS39 - Overprotected.mid
unison0
2m0
2M0
3m0
3M0
4m0
4M0
5m0
5M0
6m0
7m0
7M0