EXTRACT: control_change channel=0 control=121 value=0 time=0
EXTRACT: program_change channel=0 program=41 time=0
EXTRACT: control_change channel=0 control=7 value=76 time=0
EXTRACT: control_change channel=0 control=10 value=63 time=0
EXTRACT: control_change channel=0 control=91 value=0 time=0
EXTRACT: control_change channel=0 control=93 value=0 time=0
EXTRACT: control_change channel=1 control=121 value=0 time=0
EXTRACT: program_change channel=1 program=0 time=0
EXTRACT: control_change channel=1 control=7 value=101 time=0
EXTRACT: control_change channel=1 control=10 value=48 time=0
EXTRACT: control_change channel=1 control=91 value=0 time=0
EXTRACT: control_change channel=1 control=93 value=0 time=0
EXTRACT: control_change channel=2 control=121 value=0 time=0
EXTRACT: program_change channel=2 program=0 time=0
EXTRACT: control_change channel=2 control=7 value=101 time=0
EXTRACT: control_change channel=2 control=10 value=55 time=0
EXTRACT: control_change channel=2 control=91 value=0 time=0
EXTRACT: control_change channel=2 control=93 value=0 time=0
EXTRACT: control_change channel=3 control=121 value=0 time=0
EXTRACT: program_change channel=3 program=0 time=0
EXTRACT: control_change channel=3 control=7 value=101 time=0
EXTRACT: control_change channel=3 control=10 value=66 time=0
EXTRACT: control_change channel=3 control=91 value=0 time=0
EXTRACT: control_change channel=3 control=93 value=0 time=0
EXTRACT: control_change channel=4 control=121 value=0 time=0
EXTRACT: program_change channel=4 program=0 time=0
EXTRACT: control_change channel=4 control=7 value=101 time=0
EXTRACT: control_change channel=4 control=10 value=73 time=0
EXTRACT: control_change channel=4 control=91 value=0 time=0
EXTRACT: control_change channel=4 control=93 value=0 time=0
EXTRACT: control_change channel=5 control=121 value=0 time=0
EXTRACT: program_change channel=5 program=0 time=0
EXTRACT: control_change channel=5 control=7 value=101 time=0
EXTRACT: control_change channel=5 control=10 value=76 time=0
EXTRACT: control_change channel=5 control=91 value=0 time=0
EXTRACT: control_change channel=5 control=93 value=0 time=0
EXTRACT: control_change channel=6 control=121 value=0 time=0
EXTRACT: program_change channel=6 program=33 time=0
EXTRACT: control_change channel=6 control=7 value=82 time=0
EXTRACT: control_change channel=6 control=10 value=63 time=0
EXTRACT: control_change channel=6 control=91 value=0 time=0
EXTRACT: control_change channel=6 control=93 value=0 time=0
EXTRACT: note_on channel=6 note=51 velocity=80 time=0
EXTRACT: note_on channel=6 note=51 velocity=0 time=0.24895833333333334
EXTRACT: note_on channel=6 note=51 velocity=80 time=0.5010416666666666
EXTRACT: note_on channel=6 note=51 velocity=0 time=0.24895833333333334
EXTRACT: note_on channel=6 note=43 velocity=80 time=0.0010416666666666667
EXTRACT: note_on channel=6 note=43 velocity=0 time=0.24895833333333334
EXTRACT: note_on channel=6 note=44 velocity=80 time=0.5010416666666666
EXTRACT: note_on channel=6 note=44 velocity=0 time=0.24895833333333334
EXTRACT: note_on channel=6 note=44 velocity=80 time=0.25104166666666666
EXTRACT: note_on channel=6 note=44 velocity=0 time=0.24895833333333334
EXTRACT: note_on channel=6 note=44 velocity=80 time=0.25104166666666666
EXTRACT: note_on channel=6 note=44 velocity=0 time=0.24895833333333334
EXTRACT: note_on channel=6 note=46 velocity=80 time=0.0010416666666666667
EXTRACT: note_on channel=6 note=46 velocity=0 time=0.49895833333333334
EXTRACT: note_on channel=6 note=46 velocity=80 time=0.0010416666666666667
EXTRACT: note_on channel=6 note=46 velocity=0 time=0.49895833333333334
EXTRACT: note_on channel=6 note=51 velocity=80 time=0.0010416666666666667
EXTRACT: note_on channel=6 note=51 velocity=0 time=0.24895833333333334
EXTRACT: note_on channel=6 note=51 velocity=80 time=0.5010416666666666
EXTRACT: note_on channel=6 note=51 velocity=0 time=0.24895833333333334
EXTRACT: note_on channel=6 note=43 velocity=80 time=0.0010416666666666667
EXTRACT: note_on channel=6 note=43 velocity=0 time=0.24895833333333334
EXTRACT: note_on channel=6 note=44 velocity=80 time=0.5010416666666666
EXTRACT: note_on channel=6 note=44 velocity=0 time=0.24895833333333334
EXTRACT: note_on channel=6 note=44 velocity=80 time=0.25104166666666666
EXTRACT: note_on channel=6 note=44 velocity=0 time=0.24895833333333334
EXTRACT: note_on channel=6 note=44 velocity=80 time=0.25104166666666666
EXTRACT: note_on channel=6 note=44 velocity=0 time=0.24895833333333334
EXTRACT: note_on channel=6 note=46 velocity=80 time=0.0010416666666666667
EXTRACT: note_on channel=6 note=46 velocity=0 time=0.49895833333333334
EXTRACT: note_on channel=6 note=46 velocity=80 time=0.0010416666666666667
EXTRACT: note_on channel=6 note=46 velocity=0 time=0.49895833333333334
EXTRACT: note_on channel=4 note=63 velocity=75 time=0.0010416666666666667
EXTRACT: note_on channel=5 note=55 velocity=75 time=0
EXTRACT: note_on channel=6 note=51 velocity=80 time=0
EXTRACT: note_on channel=4 note=63 velocity=0 time=0.24895833333333334
EXTRACT: note_on channel=5 note=55 velocity=0 time=0
EXTRACT: note_on channel=6 note=51 velocity=0 time=0
EXTRACT: note_on channel=1 note=67 velocity=88 time=0.25104166666666666
EXTRACT: note_on channel=2 note=63 velocity=75 time=0
EXTRACT: note_on channel=3 note=58 velocity=75 time=0
EXTRACT: note_on channel=1 note=67 velocity=0 time=0.24895833333333334
EXTRACT: note_on channel=2 note=63 velocity=0 time=0
EXTRACT: note_on channel=3 note=58 velocity=0 time=0
EXTRACT: note_on channel=1 note=67 velocity=88 time=0.0010416666666666667
EXTRACT: note_on channel=2 note=63 velocity=75 time=0
EXTRACT: note_on channel=3 note=58 velocity=75 time=0
EXTRACT: note_on channel=4 note=63 velocity=75 time=0
EXTRACT: note_on channel=5 note=55 velocity=75 time=0
EXTRACT: note_on channel=6 note=51 velocity=80 time=0
EXTRACT: note_on channel=1 note=67 velocity=0 time=0.24895833333333334
EXTRACT: note_on channel=2 note=63 velocity=0 time=0
EXTRACT: note_on channel=3 note=58 velocity=0 time=0
EXTRACT: note_on channel=4 note=63 velocity=0 time=0
EXTRACT: note_on channel=5 note=55 velocity=0 time=0
EXTRACT: note_on channel=6 note=51 velocity=0 time=0
EXTRACT: note_on channel=1 note=68 velocity=88 time=0.0010416666666666667
EXTRACT: note_on channel=2 note=65 velocity=75 time=0
EXTRACT: note_on channel=3 note=60 velocity=75 time=0
EXTRACT: note_on channel=4 note=58 velocity=75 time=0
EXTRACT: note_on channel=5 note=50 velocity=75 time=0
EXTRACT: note_on channel=6 note=43 velocity=80 time=0
EXTRACT: note_on channel=1 note=68 velocity=0 time=0.24895833333333334
EXTRACT: note_on channel=2 note=65 velocity=0 time=0
EXTRACT: note_on channel=3 note=60 velocity=0 time=0
EXTRACT: note_on channel=4 note=58 velocity=0 time=0
EXTRACT: note_on channel=5 note=50 velocity=0 time=0
EXTRACT: note_on channel=6 note=43 velocity=0 time=0
EXTRACT: note_on channel=1 note=70 velocity=88 time=0.0010416666666666667
EXTRACT: note_on channel=2 note=67 velocity=75 time=0
EXTRACT: note_on channel=3 note=63 velocity=75 time=0
EXTRACT: note_on channel=1 note=70 velocity=0 time=0.24895833333333334
EXTRACT: note_on channel=2 note=67 velocity=0 time=0
EXTRACT: note_on channel=3 note=63 velocity=0 time=0
EXTRACT: note_on channel=1 note=67 velocity=75 time=0.25104166666666666
EXTRACT: note_on channel=2 note=63 velocity=88 time=0
EXTRACT: note_on channel=3 note=60 velocity=75 time=0
EXTRACT: note_on channel=4 note=60 velocity=75 time=0
EXTRACT: note_on channel=5 note=51 velocity=75 time=0
EXTRACT: note_on channel=6 note=44 velocity=80 time=0
EXTRACT: note_on channel=4 note=60 velocity=0 time=0.24895833333333334
EXTRACT: note_on channel=5 note=51 velocity=0 time=0
EXTRACT: note_on channel=6 note=44 velocity=0 time=0
EXTRACT: note_on channel=1 note=67 velocity=0 time=0.25
EXTRACT: note_on channel=2 note=63 velocity=0 time=0
EXTRACT: note_on channel=3 note=60 velocity=0 time=0
EXTRACT: note_on channel=1 note=70 velocity=75 time=0.0010416666666666667
EXTRACT: note_on channel=2 note=67 velocity=88 time=0
EXTRACT: note_on channel=3 note=63 velocity=75 time=0
EXTRACT: note_on channel=4 note=60 velocity=75 time=0
EXTRACT: note_on channel=5 note=51 velocity=75 time=0
EXTRACT: note_on channel=6 note=44 velocity=80 time=0
EXTRACT: note_on channel=1 note=70 velocity=0 time=0.24895833333333334
EXTRACT: note_on channel=2 note=67 velocity=0 time=0
EXTRACT: note_on channel=3 note=63 velocity=0 time=0
EXTRACT: note_on channel=4 note=60 velocity=0 time=0
EXTRACT: note_on channel=5 note=51 velocity=0 time=0
EXTRACT: note_on channel=6 note=44 velocity=0 time=0
EXTRACT: note_on channel=1 note=70 velocity=75 time=0.0010416666666666667
EXTRACT: note_on channel=2 note=67 velocity=88 time=0
EXTRACT: note_on channel=3 note=63 velocity=75 time=0
EXTRACT: note_on channel=1 note=70 velocity=0 time=0.24895833333333334
EXTRACT: note_on channel=2 note=67 velocity=0 time=0
EXTRACT: note_on channel=3 note=63 velocity=0 time=0
EXTRACT: note_on channel=1 note=67 velocity=75 time=0.0010416666666666667
EXTRACT: note_on channel=2 note=63 velocity=88 time=0
EXTRACT: note_on channel=3 note=60 velocity=75 time=0
EXTRACT: note_on channel=4 note=60 velocity=75 time=0
EXTRACT: note_on channel=5 note=51 velocity=75 time=0
EXTRACT: note_on channel=6 note=44 velocity=80 time=0
EXTRACT: note_on channel=1 note=67 velocity=0 time=0.24895833333333334
EXTRACT: note_on channel=2 note=63 velocity=0 time=0
EXTRACT: note_on channel=3 note=60 velocity=0 time=0
EXTRACT: note_on channel=4 note=60 velocity=0 time=0
EXTRACT: note_on channel=5 note=51 velocity=0 time=0
EXTRACT: note_on channel=6 note=44 velocity=0 time=0
EXTRACT: note_on channel=1 note=70 velocity=75 time=0.0010416666666666667
EXTRACT: note_on channel=2 note=67 velocity=88 time=0
EXTRACT: note_on channel=3 note=62 velocity=75 time=0
EXTRACT: note_on channel=4 note=62 velocity=75 time=0
EXTRACT: note_on channel=5 note=53 velocity=75 time=0
EXTRACT: note_on channel=6 note=46 velocity=80 time=0
EXTRACT: note_on channel=1 note=70 velocity=0 time=0.49895833333333334
EXTRACT: note_on channel=2 note=67 velocity=0 time=0
EXTRACT: note_on channel=3 note=62 velocity=0 time=0
EXTRACT: note_on channel=4 note=62 velocity=0 time=0
EXTRACT: note_on channel=5 note=53 velocity=0 time=0
EXTRACT: note_on channel=6 note=46 velocity=0 time=0
EXTRACT: note_on channel=1 note=68 velocity=75 time=0.0010416666666666667
EXTRACT: note_on channel=2 note=65 velocity=88 time=0
EXTRACT: note_on channel=3 note=60 velocity=75 time=0
EXTRACT: note_on channel=4 note=62 velocity=75 time=0
EXTRACT: note_on channel=5 note=53 velocity=75 time=0
EXTRACT: note_on channel=6 note=46 velocity=80 time=0
EXTRACT: note_on channel=1 note=68 velocity=0 time=0.24895833333333334
EXTRACT: note_on channel=2 note=65 velocity=0 time=0
EXTRACT: note_on channel=3 note=60 velocity=0 time=0
EXTRACT: note_on channel=1 note=67 velocity=75 time=0.0010416666666666667
EXTRACT: note_on channel=2 note=63 velocity=88 time=0
EXTRACT: note_on channel=3 note=58 velocity=75 time=0
EXTRACT: note_on channel=1 note=67 velocity=0 time=0.24895833333333334
EXTRACT: note_on channel=2 note=63 velocity=0 time=0
EXTRACT: note_on channel=3 note=58 velocity=0 time=0
EXTRACT: note_on channel=4 note=62 velocity=0 time=0
EXTRACT: note_on channel=5 note=53 velocity=0 time=0
EXTRACT: note_on channel=6 note=46 velocity=0 time=0
EXTRACT: note_on channel=4 note=63 velocity=75 time=0.0010416666666666667
EXTRACT: note_on channel=5 note=55 velocity=75 time=0
EXTRACT: note_on channel=6 note=51 velocity=80 time=0
EXTRACT: note_on channel=4 note=63 velocity=0 time=0.24895833333333334
EXTRACT: note_on channel=5 note=55 velocity=0 time=0
EXTRACT: note_on channel=6 note=51 velocity=0 time=0
EXTRACT: note_on channel=1 note=67 velocity=88 time=0.25104166666666666
EXTRACT: note_on channel=2 note=63 velocity=75 time=0
EXTRACT: note_on channel=3 note=58 velocity=75 time=0
EXTRACT: note_on channel=1 note=67 velocity=0 time=0.24895833333333334
EXTRACT: note_on channel=2 note=63 velocity=0 time=0
EXTRACT: note_on channel=3 note=58 velocity=0 time=0
EXTRACT: note_on channel=1 note=67 velocity=88 time=0.0010416666666666667
EXTRACT: note_on channel=2 note=63 velocity=75 time=0
EXTRACT: note_on channel=3 note=58 velocity=75 time=0
EXTRACT: note_on channel=4 note=63 velocity=75 time=0
EXTRACT: note_on channel=5 note=55 velocity=75 time=0
EXTRACT: note_on channel=6 note=51 velocity=80 time=0
EXTRACT: note_on channel=1 note=67 velocity=0 time=0.24895833333333334
EXTRACT: note_on channel=2 note=63 velocity=0 time=0
EXTRACT: note_on channel=3 note=58 velocity=0 time=0
EXTRACT: note_on channel=4 note=63 velocity=0 time=0
EXTRACT: note_on channel=5 note=55 velocity=0 time=0
EXTRACT: note_on channel=6 note=51 velocity=0 time=0
EXTRACT: note_on channel=1 note=68 velocity=88 time=0.0010416666666666667
EXTRACT: note_on channel=2 note=65 velocity=75 time=0
EXTRACT: note_on channel=3 note=60 velocity=75 time=0
EXTRACT: note_on channel=4 note=58 velocity=75 time=0
EXTRACT: note_on channel=5 note=50 velocity=75 time=0
EXTRACT: note_on channel=6 note=43 velocity=80 time=0
EXTRACT: note_on channel=1 note=68 velocity=0 time=0.24895833333333334
EXTRACT: note_on channel=2 note=65 velocity=0 time=0
EXTRACT: note_on channel=3 note=60 velocity=0 time=0
EXTRACT: note_on channel=4 note=58 velocity=0 time=0
EXTRACT: note_on channel=5 note=50 velocity=0 time=0
EXTRACT: note_on channel=6 note=43 velocity=0 time=0
EXTRACT: note_on channel=1 note=70 velocity=88 time=0.0010416666666666667
EXTRACT: note_on channel=2 note=67 velocity=75 time=0
EXTRACT: note_on channel=3 note=63 velocity=75 time=0
EXTRACT: note_on channel=1 note=70 velocity=0 time=0.24895833333333334
EXTRACT: note_on channel=2 note=67 velocity=0 time=0
EXTRACT: note_on channel=3 note=63 velocity=0 time=0
EXTRACT: note_on channel=1 note=67 velocity=75 time=0.25104166666666666
EXTRACT: note_on channel=2 note=63 velocity=88 time=0
EXTRACT: note_on channel=3 note=60 velocity=75 time=0
EXTRACT: note_on channel=1 note=67 velocity=0 time=0.49895833333333334
EXTRACT: note_on channel=2 note=63 velocity=0 time=0
EXTRACT: note_on channel=3 note=60 velocity=0 time=0
EXTRACT: note_on channel=1 note=70 velocity=75 time=0.0010416666666666667
EXTRACT: note_on channel=2 note=67 velocity=88 time=0
EXTRACT: note_on channel=3 note=63 velocity=75 time=0
EXTRACT: note_on channel=1 note=70 velocity=0 time=0.24895833333333334
EXTRACT: note_on channel=2 note=67 velocity=0 time=0
EXTRACT: note_on channel=3 note=63 velocity=0 time=0
EXTRACT: note_on channel=1 note=70 velocity=75 time=0.0010416666666666667
EXTRACT: note_on channel=2 note=67 velocity=88 time=0
EXTRACT: note_on channel=3 note=63 velocity=75 time=0
EXTRACT: note_on channel=1 note=70 velocity=0 time=0.24895833333333334
EXTRACT: note_on channel=2 note=67 velocity=0 time=0
EXTRACT: note_on channel=3 note=63 velocity=0 time=0
EXTRACT: note_on channel=1 note=67 velocity=75 time=0.0010416666666666667
EXTRACT: note_on channel=2 note=63 velocity=88 time=0
EXTRACT: note_on channel=3 note=60 velocity=75 time=0
EXTRACT: note_on channel=1 note=67 velocity=0 time=0.24895833333333334
EXTRACT: note_on channel=2 note=63 velocity=0 time=0
EXTRACT: note_on channel=3 note=60 velocity=0 time=0
EXTRACT: note_on channel=1 note=70 velocity=75 time=0.0010416666666666667
EXTRACT: note_on channel=2 note=67 velocity=88 time=0
EXTRACT: note_on channel=3 note=62 velocity=75 time=0
EXTRACT: note_on channel=1 note=70 velocity=0 time=0.49895833333333334
EXTRACT: note_on channel=2 note=67 velocity=0 time=0
EXTRACT: note_on channel=3 note=62 velocity=0 time=0
EXTRACT: note_on channel=1 note=68 velocity=75 time=0.0010416666666666667
EXTRACT: note_on channel=2 note=65 velocity=88 time=0
EXTRACT: note_on channel=3 note=60 velocity=75 time=0
EXTRACT: note_on channel=1 note=68 velocity=0 time=0.24895833333333334
EXTRACT: note_on channel=2 note=65 velocity=0 time=0
EXTRACT: note_on channel=3 note=60 velocity=0 time=0
EXTRACT: note_on channel=1 note=67 velocity=75 time=0.0010416666666666667
EXTRACT: note_on channel=2 note=63 velocity=88 time=0
EXTRACT: note_on channel=3 note=58 velocity=75 time=0
EXTRACT: note_on channel=1 note=67 velocity=0 time=0.24895833333333334
EXTRACT: note_on channel=2 note=63 velocity=0 time=0
EXTRACT: note_on channel=3 note=58 velocity=0 time=0
EXTRACT: note_on channel=0 note=70 velocity=80 time=0.0010416666666666667
EXTRACT: note_on channel=1 note=70 velocity=75 time=0
EXTRACT: note_on channel=2 note=67 velocity=75 time=0
EXTRACT: note_on channel=3 note=62 velocity=75 time=0
EXTRACT: note_on channel=4 note=58 velocity=75 time=0
EXTRACT: note_on channel=5 note=51 velocity=75 time=0
EXTRACT: note_on channel=6 note=51 velocity=80 time=0
EXTRACT: note_on channel=0 note=70 velocity=0 time=0.24895833333333334
EXTRACT: note_on channel=6 note=51 velocity=0 time=0
EXTRACT: note_on channel=1 note=70 velocity=0 time=0.25
EXTRACT: note_on channel=2 note=67 velocity=0 time=0
EXTRACT: note_on channel=3 note=62 velocity=0 time=0
EXTRACT: note_on channel=4 note=58 velocity=0 time=0
EXTRACT: note_on channel=5 note=51 velocity=0 time=0
EXTRACT: note_on channel=0 note=67 velocity=80 time=0.0010416666666666667
EXTRACT: note_on channel=0 note=67 velocity=0 time=0.24895833333333334
EXTRACT: note_on channel=0 note=65 velocity=80 time=0.0010416666666666667
EXTRACT: note_on channel=6 note=51 velocity=80 time=0
EXTRACT: note_on channel=0 note=65 velocity=0 time=0.24895833333333334
EXTRACT: note_on channel=6 note=51 velocity=0 time=0
EXTRACT: note_on channel=0 note=65 velocity=80 time=0.0010416666666666667
EXTRACT: note_on channel=6 note=43 velocity=80 time=0
EXTRACT: note_on channel=0 note=65 velocity=0 time=0.24895833333333334
EXTRACT: note_on channel=6 note=43 velocity=0 time=0
EXTRACT: note_on channel=0 note=63 velocity=80 time=0.0010416666666666667
EXTRACT: note_on channel=0 note=63 velocity=0 time=0.24895833333333334
EXTRACT: note_on channel=0 note=65 velocity=80 time=0.0010416666666666667
EXTRACT: note_on channel=6 note=44 velocity=80 time=0.25
EXTRACT: note_on channel=0 note=65 velocity=0 time=0.24895833333333334
EXTRACT: note_on channel=6 note=44 velocity=0 time=0
EXTRACT: note_on channel=0 note=60 velocity=80 time=0.0010416666666666667
EXTRACT: note_on channel=1 note=67 velocity=49 time=0
EXTRACT: note_on channel=2 note=63 velocity=49 time=0
EXTRACT: note_on channel=3 note=60 velocity=49 time=0
EXTRACT: note_on channel=4 note=56 velocity=49 time=0
EXTRACT: note_on channel=5 note=51 velocity=49 time=0
EXTRACT: note_on channel=0 note=60 velocity=0 time=0.24895833333333334
EXTRACT: note_on channel=0 note=63 velocity=80 time=0.0010416666666666667
EXTRACT: note_on channel=6 note=44 velocity=80 time=0
EXTRACT: note_on channel=0 note=63 velocity=0 time=0.24895833333333334
EXTRACT: note_on channel=1 note=67 velocity=0 time=0
EXTRACT: note_on channel=2 note=63 velocity=0 time=0
EXTRACT: note_on channel=3 note=60 velocity=0 time=0
EXTRACT: note_on channel=4 note=56 velocity=0 time=0
EXTRACT: note_on channel=5 note=51 velocity=0 time=0
EXTRACT: note_on channel=6 note=44 velocity=0 time=0
EXTRACT: note_on channel=0 note=63 velocity=80 time=0.0010416666666666667
EXTRACT: note_on channel=0 note=63 velocity=0 time=0.24895833333333334
EXTRACT: note_on channel=0 note=60 velocity=80 time=0.0010416666666666667
EXTRACT: note_on channel=6 note=44 velocity=80 time=0
EXTRACT: note_on channel=0 note=60 velocity=0 time=0.24895833333333334
EXTRACT: note_on channel=6 note=44 velocity=0 time=0
EXTRACT: note_on channel=0 note=65 velocity=80 time=0.0010416666666666667
EXTRACT: note_on channel=6 note=46 velocity=80 time=0
EXTRACT: note_on channel=0 note=65 velocity=0 time=0.49895833333333334
EXTRACT: note_on channel=6 note=46 velocity=0 time=0
EXTRACT: note_on channel=0 note=60 velocity=80 time=0.0010416666666666667
EXTRACT: note_on channel=6 note=46 velocity=80 time=0
EXTRACT: note_on channel=0 note=60 velocity=0 time=0.24895833333333334
EXTRACT: note_on channel=0 note=60 velocity=80 time=0.0010416666666666667
EXTRACT: note_on channel=0 note=60 velocity=0 time=0.24895833333333334
EXTRACT: note_on channel=6 note=46 velocity=0 time=0
EXTRACT: note_on channel=0 note=58 velocity=80 time=0.0010416666666666667
EXTRACT: note_on channel=1 note=70 velocity=75 time=0
EXTRACT: note_on channel=2 note=67 velocity=75 time=0
EXTRACT: note_on channel=3 note=62 velocity=75 time=0
EXTRACT: note_on channel=4 note=55 velocity=75 time=0
EXTRACT: note_on channel=5 note=51 velocity=75 time=0
EXTRACT: note_on channel=6 note=51 velocity=80 time=0
EXTRACT: note_on channel=6 note=51 velocity=0 time=0.24895833333333334
EXTRACT: note_on channel=0 note=58 velocity=0 time=0.25
EXTRACT: note_on channel=1 note=70 velocity=0 time=0
EXTRACT: note_on channel=2 note=67 velocity=0 time=0
EXTRACT: note_on channel=3 note=62 velocity=0 time=0
EXTRACT: note_on channel=4 note=55 velocity=0 time=0
EXTRACT: note_on channel=5 note=51 velocity=0 time=0
EXTRACT: note_on channel=1 note=70 velocity=75 time=0.25104166666666666
EXTRACT: note_on channel=2 note=67 velocity=75 time=0
EXTRACT: note_on channel=3 note=63 velocity=75 time=0
EXTRACT: note_on channel=4 note=55 velocity=75 time=0
EXTRACT: note_on channel=5 note=51 velocity=75 time=0
EXTRACT: note_on channel=6 note=51 velocity=80 time=0
EXTRACT: note_on channel=1 note=70 velocity=0 time=0.24895833333333334
EXTRACT: note_on channel=2 note=67 velocity=0 time=0
EXTRACT: note_on channel=3 note=63 velocity=0 time=0
EXTRACT: note_on channel=4 note=55 velocity=0 time=0
EXTRACT: note_on channel=5 note=51 velocity=0 time=0
EXTRACT: note_on channel=6 note=51 velocity=0 time=0
EXTRACT: note_on channel=6 note=43 velocity=80 time=0.0010416666666666667
EXTRACT: note_on channel=6 note=43 velocity=0 time=0.24895833333333334
EXTRACT: note_on channel=1 note=70 velocity=75 time=0.0010416666666666667
EXTRACT: note_on channel=2 note=68 velocity=75 time=0
EXTRACT: note_on channel=3 note=63 velocity=75 time=0
EXTRACT: note_on channel=4 note=58 velocity=75 time=0
EXTRACT: note_on channel=5 note=51 velocity=75 time=0
EXTRACT: note_on channel=1 note=70 velocity=0 time=0.49895833333333334
EXTRACT: note_on channel=2 note=68 velocity=0 time=0
EXTRACT: note_on channel=3 note=63 velocity=0 time=0
EXTRACT: note_on channel=4 note=58 velocity=0 time=0
EXTRACT: note_on channel=5 note=51 velocity=0 time=0
EXTRACT: note_on channel=1 note=70 velocity=75 time=0.0010416666666666667
EXTRACT: note_on channel=2 note=70 velocity=75 time=0
EXTRACT: note_on channel=3 note=63 velocity=75 time=0
EXTRACT: note_on channel=4 note=58 velocity=75 time=0
EXTRACT: note_on channel=5 note=51 velocity=75 time=0
EXTRACT: note_on channel=6 note=44 velocity=80 time=0
EXTRACT: note_on channel=1 note=70 velocity=0 time=0.24895833333333334
EXTRACT: note_on channel=2 note=70 velocity=0 time=0
EXTRACT: note_on channel=3 note=63 velocity=0 time=0
EXTRACT: note_on channel=4 note=58 velocity=0 time=0
EXTRACT: note_on channel=5 note=51 velocity=0 time=0
EXTRACT: note_on channel=6 note=44 velocity=0 time=0
EXTRACT: note_on channel=1 note=68 velocity=75 time=0.0010416666666666667
EXTRACT: note_on channel=2 note=67 velocity=75 time=0
EXTRACT: note_on channel=3 note=63 velocity=75 time=0
EXTRACT: note_on channel=4 note=60 velocity=75 time=0
EXTRACT: note_on channel=5 note=51 velocity=75 time=0
EXTRACT: note_on channel=1 note=68 velocity=0 time=0.24895833333333334
EXTRACT: note_on channel=2 note=67 velocity=0 time=0
EXTRACT: note_on channel=3 note=63 velocity=0 time=0
EXTRACT: note_on channel=4 note=60 velocity=0 time=0
EXTRACT: note_on channel=5 note=51 velocity=0 time=0
EXTRACT: note_on channel=6 note=44 velocity=80 time=0.0010416666666666667
EXTRACT: note_on channel=6 note=44 velocity=0 time=0.24895833333333334
EXTRACT: note_on channel=1 note=70 velocity=75 time=0.25104166666666666
EXTRACT: note_on channel=2 note=67 velocity=75 time=0
EXTRACT: note_on channel=3 note=65 velocity=75 time=0
EXTRACT: note_on channel=4 note=62 velocity=75 time=0
EXTRACT: note_on channel=5 note=53 velocity=75 time=0
EXTRACT: note_on channel=6 note=44 velocity=80 time=0
EXTRACT: note_on channel=1 note=70 velocity=0 time=0.24895833333333334
EXTRACT: note_on channel=2 note=67 velocity=0 time=0
EXTRACT: note_on channel=3 note=65 velocity=0 time=0
EXTRACT: note_on channel=4 note=62 velocity=0 time=0
EXTRACT: note_on channel=5 note=53 velocity=0 time=0
EXTRACT: note_on channel=6 note=44 velocity=0 time=0
EXTRACT: note_on channel=6 note=46 velocity=80 time=0.0010416666666666667
EXTRACT: note_on channel=1 note=70 velocity=75 time=0.25
EXTRACT: note_on channel=2 note=68 velocity=75 time=0
EXTRACT: note_on channel=3 note=65 velocity=75 time=0
EXTRACT: note_on channel=4 note=62 velocity=75 time=0
EXTRACT: note_on channel=5 note=53 velocity=75 time=0
EXTRACT: note_on channel=6 note=46 velocity=0 time=0.24895833333333334
EXTRACT: note_on channel=6 note=46 velocity=80 time=0.0010416666666666667
EXTRACT: note_on channel=0 note=58 velocity=80 time=0.25
EXTRACT: note_on channel=0 note=58 velocity=0 time=0.24895833333333334
EXTRACT: note_on channel=1 note=70 velocity=0 time=0
EXTRACT: note_on channel=2 note=68 velocity=0 time=0
EXTRACT: note_on channel=3 note=65 velocity=0 time=0
EXTRACT: note_on channel=4 note=62 velocity=0 time=0
EXTRACT: note_on channel=5 note=53 velocity=0 time=0
EXTRACT: note_on channel=6 note=46 velocity=0 time=0
EXTRACT: note_on channel=0 note=70 velocity=80 time=0.0010416666666666667
EXTRACT: note_on channel=1 note=70 velocity=75 time=0
EXTRACT: note_on channel=2 note=67 velocity=75 time=0
EXTRACT: note_on channel=3 note=62 velocity=75 time=0
EXTRACT: note_on channel=4 note=58 velocity=75 time=0
EXTRACT: note_on channel=5 note=51 velocity=75 time=0
EXTRACT: note_on channel=6 note=51 velocity=80 time=0
EXTRACT: note_on channel=0 note=70 velocity=0 time=0.24895833333333334
EXTRACT: note_on channel=6 note=51 velocity=0 time=0
EXTRACT: note_on channel=0 note=70 velocity=80 time=0.0010416666666666667
EXTRACT: note_on channel=0 note=70 velocity=0 time=0.24895833333333334
EXTRACT: note_on channel=1 note=70 velocity=0 time=0
EXTRACT: note_on channel=2 note=67 velocity=0 time=0
EXTRACT: note_on channel=3 note=62 velocity=0 time=0
EXTRACT: note_on channel=4 note=58 velocity=0 time=0
EXTRACT: note_on channel=5 note=51 velocity=0 time=0
EXTRACT: note_on channel=0 note=67 velocity=80 time=0.0010416666666666667
EXTRACT: note_on channel=0 note=67 velocity=0 time=0.24895833333333334
EXTRACT: note_on channel=0 note=65 velocity=80 time=0.0010416666666666667
EXTRACT: note_on channel=6 note=51 velocity=80 time=0
EXTRACT: note_on channel=0 note=65 velocity=0 time=0.24895833333333334
EXTRACT: note_on channel=6 note=51 velocity=0 time=0
EXTRACT: note_on channel=0 note=65 velocity=80 time=0.0010416666666666667
EXTRACT: note_on channel=6 note=43 velocity=80 time=0
EXTRACT: note_on channel=0 note=65 velocity=0 time=0.24895833333333334
EXTRACT: note_on channel=6 note=43 velocity=0 time=0
EXTRACT: note_on channel=0 note=63 velocity=80 time=0.0010416666666666667
EXTRACT: note_on channel=0 note=63 velocity=0 time=0.24895833333333334
EXTRACT: note_on channel=0 note=63 velocity=80 time=0.0010416666666666667
EXTRACT: note_on channel=0 note=63 velocity=0 time=0.24895833333333334
EXTRACT: note_on channel=0 note=63 velocity=80 time=0.0010416666666666667
EXTRACT: note_on channel=6 note=44 velocity=80 time=0
EXTRACT: note_on channel=0 note=63 velocity=0 time=0.24895833333333334
EXTRACT: note_on channel=6 note=44 velocity=0 time=0
EXTRACT: note_on channel=0 note=67 velocity=80 time=0.0010416666666666667
EXTRACT: note_on channel=1 note=67 velocity=49 time=0
EXTRACT: note_on channel=2 note=63 velocity=49 time=0
EXTRACT: note_on channel=3 note=60 velocity=49 time=0
EXTRACT: note_on channel=4 note=56 velocity=49 time=0
EXTRACT: note_on channel=5 note=51 velocity=49 time=0
EXTRACT: note_on channel=0 note=67 velocity=0 time=0.24895833333333334
EXTRACT: note_on channel=0 note=67 velocity=80 time=0.0010416666666666667
EXTRACT: note_on channel=6 note=44 velocity=80 time=0
EXTRACT: note_on channel=0 note=67 velocity=0 time=0.24895833333333334
EXTRACT: note_on channel=1 note=67 velocity=0 time=0
EXTRACT: note_on channel=2 note=63 velocity=0 time=0
EXTRACT: note_on channel=3 note=60 velocity=0 time=0
EXTRACT: note_on channel=4 note=56 velocity=0 time=0
EXTRACT: note_on channel=5 note=51 velocity=0 time=0
EXTRACT: note_on channel=6 note=44 velocity=0 time=0
EXTRACT: note_on channel=0 note=65 velocity=80 time=0.0010416666666666667
EXTRACT: note_on channel=0 note=65 velocity=0 time=0.24895833333333334
EXTRACT: note_on channel=0 note=63 velocity=80 time=0.0010416666666666667
EXTRACT: note_on channel=6 note=44 velocity=80 time=0
EXTRACT: note_on channel=0 note=63 velocity=0 time=0.24895833333333334
EXTRACT: note_on channel=6 note=44 velocity=0 time=0
EXTRACT: note_on channel=0 note=65 velocity=80 time=0.0010416666666666667
EXTRACT: note_on channel=6 note=46 velocity=80 time=0
EXTRACT: note_on channel=0 note=65 velocity=0 time=0.24895833333333334
EXTRACT: note_on channel=0 note=63 velocity=80 time=0.0010416666666666667
EXTRACT: note_on channel=0 note=63 velocity=0 time=0.24895833333333334
EXTRACT: note_on channel=6 note=46 velocity=0 time=0
EXTRACT: note_on channel=0 note=60 velocity=80 time=0.0010416666666666667
EXTRACT: note_on channel=6 note=46 velocity=80 time=0
EXTRACT: note_on channel=0 note=60 velocity=0 time=0.24895833333333334
EXTRACT: note_on channel=0 note=60 velocity=80 time=0.0010416666666666667
EXTRACT: note_on channel=0 note=60 velocity=0 time=0.24895833333333334
EXTRACT: note_on channel=6 note=46 velocity=0 time=0
EXTRACT: note_on channel=0 note=58 velocity=80 time=0.0010416666666666667
EXTRACT: note_on channel=1 note=70 velocity=75 time=0
EXTRACT: note_on channel=2 note=67 velocity=75 time=0
EXTRACT: note_on channel=3 note=62 velocity=75 time=0
EXTRACT: note_on channel=4 note=55 velocity=75 time=0
EXTRACT: note_on channel=5 note=51 velocity=75 time=0
EXTRACT: note_on channel=6 note=51 velocity=80 time=0
EXTRACT: note_on channel=6 note=51 velocity=0 time=0.24895833333333334
EXTRACT: note_on channel=0 note=58 velocity=0 time=0.25
EXTRACT: note_on channel=1 note=70 velocity=0 time=0
EXTRACT: note_on channel=2 note=67 velocity=0 time=0
EXTRACT: note_on channel=3 note=62 velocity=0 time=0
EXTRACT: note_on channel=4 note=55 velocity=0 time=0
EXTRACT: note_on channel=5 note=51 velocity=0 time=0
EXTRACT: note_on channel=1 note=70 velocity=75 time=0.25104166666666666
EXTRACT: note_on channel=2 note=67 velocity=75 time=0
EXTRACT: note_on channel=3 note=63 velocity=75 time=0
EXTRACT: note_on channel=4 note=55 velocity=75 time=0
EXTRACT: note_on channel=5 note=51 velocity=75 time=0
EXTRACT: note_on channel=6 note=51 velocity=80 time=0
EXTRACT: note_on channel=1 note=70 velocity=0 time=0.24895833333333334
EXTRACT: note_on channel=2 note=67 velocity=0 time=0
EXTRACT: note_on channel=3 note=63 velocity=0 time=0
EXTRACT: note_on channel=4 note=55 velocity=0 time=0
EXTRACT: note_on channel=5 note=51 velocity=0 time=0
EXTRACT: note_on channel=6 note=51 velocity=0 time=0
EXTRACT: note_on channel=6 note=43 velocity=80 time=0.0010416666666666667
EXTRACT: note_on channel=6 note=43 velocity=0 time=0.24895833333333334
EXTRACT: note_on channel=1 note=70 velocity=75 time=0.0010416666666666667
EXTRACT: note_on channel=2 note=68 velocity=75 time=0
EXTRACT: note_on channel=3 note=63 velocity=75 time=0
EXTRACT: note_on channel=4 note=58 velocity=75 time=0
EXTRACT: note_on channel=5 note=51 velocity=75 time=0
EXTRACT: note_on channel=1 note=70 velocity=0 time=0.49895833333333334
EXTRACT: note_on channel=2 note=68 velocity=0 time=0
EXTRACT: note_on channel=3 note=63 velocity=0 time=0
EXTRACT: note_on channel=4 note=58 velocity=0 time=0
EXTRACT: note_on channel=5 note=51 velocity=0 time=0
EXTRACT: note_on channel=1 note=70 velocity=75 time=0.0010416666666666667
EXTRACT: note_on channel=2 note=70 velocity=75 time=0
EXTRACT: note_on channel=3 note=63 velocity=75 time=0
EXTRACT: note_on channel=4 note=58 velocity=75 time=0
EXTRACT: note_on channel=5 note=51 velocity=75 time=0
EXTRACT: note_on channel=6 note=44 velocity=80 time=0
EXTRACT: note_on channel=1 note=70 velocity=0 time=0.24895833333333334
EXTRACT: note_on channel=2 note=70 velocity=0 time=0
EXTRACT: note_on channel=3 note=63 velocity=0 time=0
EXTRACT: note_on channel=4 note=58 velocity=0 time=0
EXTRACT: note_on channel=5 note=51 velocity=0 time=0
EXTRACT: note_on channel=6 note=44 velocity=0 time=0
EXTRACT: note_on channel=1 note=68 velocity=75 time=0.0010416666666666667
EXTRACT: note_on channel=2 note=67 velocity=75 time=0
EXTRACT: note_on channel=3 note=63 velocity=75 time=0
EXTRACT: note_on channel=4 note=60 velocity=75 time=0
EXTRACT: note_on channel=5 note=51 velocity=75 time=0
EXTRACT: note_on channel=1 note=68 velocity=0 time=0.24895833333333334
EXTRACT: note_on channel=2 note=67 velocity=0 time=0
EXTRACT: note_on channel=3 note=63 velocity=0 time=0
EXTRACT: note_on channel=4 note=60 velocity=0 time=0
EXTRACT: note_on channel=5 note=51 velocity=0 time=0
EXTRACT: note_on channel=6 note=44 velocity=80 time=0.0010416666666666667
EXTRACT: note_on channel=6 note=44 velocity=0 time=0.24895833333333334
EXTRACT: note_on channel=1 note=70 velocity=75 time=0.25104166666666666
EXTRACT: note_on channel=2 note=67 velocity=75 time=0
EXTRACT: note_on channel=3 note=65 velocity=75 time=0
EXTRACT: note_on channel=4 note=62 velocity=75 time=0
EXTRACT: note_on channel=5 note=53 velocity=75 time=0
EXTRACT: note_on channel=6 note=44 velocity=80 time=0
EXTRACT: note_on channel=1 note=70 velocity=0 time=0.24895833333333334
EXTRACT: note_on channel=2 note=67 velocity=0 time=0
EXTRACT: note_on channel=3 note=65 velocity=0 time=0
EXTRACT: note_on channel=4 note=62 velocity=0 time=0
EXTRACT: note_on channel=5 note=53 velocity=0 time=0
EXTRACT: note_on channel=6 note=44 velocity=0 time=0
EXTRACT: note_on channel=6 note=46 velocity=80 time=0.0010416666666666667
EXTRACT: note_on channel=1 note=70 velocity=75 time=0.25
EXTRACT: note_on channel=2 note=68 velocity=75 time=0
EXTRACT: note_on channel=3 note=65 velocity=75 time=0
EXTRACT: note_on channel=4 note=62 velocity=75 time=0
EXTRACT: note_on channel=5 note=53 velocity=75 time=0
EXTRACT: note_on channel=6 note=46 velocity=0 time=0.24895833333333334
EXTRACT: note_on channel=6 note=46 velocity=80 time=0.0010416666666666667
EXTRACT: note_on channel=1 note=70 velocity=0 time=0.49895833333333334
EXTRACT: note_on channel=2 note=68 velocity=0 time=0
EXTRACT: note_on channel=3 note=65 velocity=0 time=0
EXTRACT: note_on channel=4 note=62 velocity=0 time=0
EXTRACT: note_on channel=5 note=53 velocity=0 time=0
EXTRACT: note_on channel=6 note=46 velocity=0 time=0
EXTRACT: note_on channel=1 note=67 velocity=75 time=0.0010416666666666667
EXTRACT: note_on channel=2 note=67 velocity=75 time=0
EXTRACT: note_on channel=4 note=60 velocity=75 time=0
EXTRACT: note_on channel=5 note=55 velocity=75 time=0
EXTRACT: note_on channel=6 note=48 velocity=80 time=0
EXTRACT: note_on channel=0 note=67 velocity=80 time=0.5
EXTRACT: note_on channel=3 note=63 velocity=75 time=0
EXTRACT: note_on channel=0 note=67 velocity=0 time=0.24895833333333334
EXTRACT: note_on channel=1 note=67 velocity=0 time=0
EXTRACT: note_on channel=2 note=67 velocity=0 time=0
EXTRACT: note_on channel=3 note=63 velocity=0 time=0
EXTRACT: note_on channel=4 note=60 velocity=0 time=0
EXTRACT: note_on channel=5 note=55 velocity=0 time=0
EXTRACT: note_on channel=6 note=48 velocity=0 time=0
EXTRACT: note_on channel=0 note=63 velocity=80 time=0.0010416666666666667
EXTRACT: note_on channel=1 note=70 velocity=75 time=0
EXTRACT: note_on channel=2 note=67 velocity=75 time=0
EXTRACT: note_on channel=3 note=60 velocity=75 time=0
EXTRACT: note_on channel=4 note=58 velocity=75 time=0
EXTRACT: note_on channel=5 note=51 velocity=75 time=0
EXTRACT: note_on channel=6 note=39 velocity=80 time=0
EXTRACT: note_on channel=0 note=63 velocity=0 time=0.24895833333333334
EXTRACT: note_on channel=3 note=60 velocity=0 time=0
EXTRACT: note_on channel=0 note=67 velocity=80 time=0.25104166666666666
EXTRACT: note_on channel=3 note=63 velocity=75 time=0
EXTRACT: note_on channel=0 note=67 velocity=0 time=0.24895833333333334
EXTRACT: note_on channel=3 note=63 velocity=0 time=0
EXTRACT: note_on channel=0 note=63 velocity=80 time=0.0010416666666666667
EXTRACT: note_on channel=3 note=60 velocity=75 time=0
EXTRACT: note_on channel=1 note=70 velocity=0 time=0.24895833333333334
EXTRACT: note_on channel=2 note=67 velocity=0 time=0
EXTRACT: note_on channel=3 note=60 velocity=0 time=0
EXTRACT: note_on channel=4 note=58 velocity=0 time=0
EXTRACT: note_on channel=5 note=51 velocity=0 time=0
EXTRACT: note_on channel=6 note=39 velocity=0 time=0
EXTRACT: note_on channel=0 note=63 velocity=0 time=0.25
EXTRACT: note_on channel=1 note=69 velocity=62 time=0.0010416666666666667
EXTRACT: note_on channel=2 note=65 velocity=62 time=0
EXTRACT: note_on channel=3 note=63 velocity=75 time=0
EXTRACT: note_on channel=4 note=57 velocity=62 time=0
EXTRACT: note_on channel=5 note=53 velocity=62 time=0
EXTRACT: note_on channel=6 note=41 velocity=80 time=0
EXTRACT: note_on channel=0 note=65 velocity=80 time=0.25
EXTRACT: note_on channel=0 note=65 velocity=0 time=0.24895833333333334
EXTRACT: note_on channel=0 note=65 velocity=80 time=0.0010416666666666667
EXTRACT: note_on channel=0 note=65 velocity=0 time=0.24895833333333334
EXTRACT: note_on channel=1 note=69 velocity=0 time=0
EXTRACT: note_on channel=2 note=65 velocity=0 time=0
EXTRACT: note_on channel=4 note=57 velocity=0 time=0
EXTRACT: note_on channel=5 note=53 velocity=0 time=0
EXTRACT: note_on channel=6 note=41 velocity=0 time=0
EXTRACT: note_on channel=0 note=67 velocity=80 time=0.0010416666666666667
EXTRACT: note_on channel=1 note=69 velocity=62 time=0
EXTRACT: note_on channel=2 note=66 velocity=62 time=0
EXTRACT: note_on channel=4 note=57 velocity=62 time=0
EXTRACT: note_on channel=5 note=54 velocity=62 time=0
EXTRACT: note_on channel=6 note=42 velocity=80 time=0
EXTRACT: note_on channel=0 note=67 velocity=0 time=0.24895833333333334
EXTRACT: note_on channel=3 note=63 velocity=0 time=0
EXTRACT: note_on channel=0 note=65 velocity=80 time=0.0010416666666666667
EXTRACT: note_on channel=3 note=62 velocity=75 time=0
EXTRACT: note_on channel=0 note=65 velocity=0 time=0.24895833333333334
EXTRACT: note_on channel=1 note=69 velocity=0 time=0
EXTRACT: note_on channel=2 note=66 velocity=0 time=0
EXTRACT: note_on channel=4 note=57 velocity=0 time=0
EXTRACT: note_on channel=5 note=54 velocity=0 time=0
EXTRACT: note_on channel=6 note=42 velocity=0 time=0
EXTRACT: note_on channel=0 note=63 velocity=80 time=0.0010416666666666667
EXTRACT: note_on channel=1 note=67 velocity=62 time=0
EXTRACT: note_on channel=2 note=67 velocity=62 time=0
EXTRACT: note_on channel=4 note=59 velocity=62 time=0
EXTRACT: note_on channel=5 note=55 velocity=62 time=0
EXTRACT: note_on channel=6 note=43 velocity=80 time=0
EXTRACT: note_on channel=0 note=63 velocity=0 time=0.24895833333333334
EXTRACT: note_on channel=0 note=60 velocity=80 time=0.0010416666666666667
EXTRACT: note_on channel=0 note=60 velocity=0 time=0.24895833333333334
EXTRACT: note_on channel=0 note=58 velocity=80 time=0.0010416666666666667
EXTRACT: note_on channel=0 note=58 velocity=0 time=0.24895833333333334
EXTRACT: note_on channel=1 note=67 velocity=0 time=0
EXTRACT: note_on channel=2 note=67 velocity=0 time=0
EXTRACT: note_on channel=3 note=62 velocity=0 time=0
EXTRACT: note_on channel=4 note=59 velocity=0 time=0
EXTRACT: note_on channel=5 note=55 velocity=0 time=0
EXTRACT: note_on channel=6 note=43 velocity=0 time=0
EXTRACT: note_on channel=1 note=67 velocity=62 time=0.0010416666666666667
EXTRACT: note_on channel=2 note=67 velocity=62 time=0
EXTRACT: note_on channel=4 note=60 velocity=62 time=0
EXTRACT: note_on channel=5 note=55 velocity=62 time=0
EXTRACT: note_on channel=6 note=48 velocity=80 time=0
EXTRACT: note_on channel=0 note=67 velocity=80 time=0.5
EXTRACT: note_on channel=3 note=63 velocity=75 time=0
EXTRACT: note_on channel=0 note=67 velocity=0 time=0.24895833333333334
EXTRACT: note_on channel=1 note=67 velocity=0 time=0
EXTRACT: note_on channel=2 note=67 velocity=0 time=0
EXTRACT: note_on channel=3 note=63 velocity=0 time=0
EXTRACT: note_on channel=4 note=60 velocity=0 time=0
EXTRACT: note_on channel=5 note=55 velocity=0 time=0
EXTRACT: note_on channel=6 note=48 velocity=0 time=0
EXTRACT: note_on channel=0 note=63 velocity=80 time=0.0010416666666666667
EXTRACT: note_on channel=1 note=70 velocity=62 time=0
EXTRACT: note_on channel=2 note=67 velocity=62 time=0
EXTRACT: note_on channel=3 note=60 velocity=75 time=0
EXTRACT: note_on channel=4 note=58 velocity=62 time=0
EXTRACT: note_on channel=5 note=51 velocity=62 time=0
EXTRACT: note_on channel=6 note=39 velocity=80 time=0
EXTRACT: note_on channel=0 note=63 velocity=0 time=0.24895833333333334
EXTRACT: note_on channel=3 note=60 velocity=0 time=0
EXTRACT: note_on channel=0 note=67 velocity=80 time=0.25104166666666666
EXTRACT: note_on channel=3 note=63 velocity=75 time=0
EXTRACT: note_on channel=0 note=67 velocity=0 time=0.24895833333333334
EXTRACT: note_on channel=3 note=63 velocity=0 time=0
EXTRACT: note_on channel=0 note=63 velocity=80 time=0.0010416666666666667
EXTRACT: note_on channel=3 note=60 velocity=75 time=0
EXTRACT: note_on channel=1 note=70 velocity=0 time=0.24895833333333334
EXTRACT: note_on channel=2 note=67 velocity=0 time=0
EXTRACT: note_on channel=3 note=60 velocity=0 time=0
EXTRACT: note_on channel=4 note=58 velocity=0 time=0
EXTRACT: note_on channel=5 note=51 velocity=0 time=0
EXTRACT: note_on channel=6 note=39 velocity=0 time=0
EXTRACT: note_on channel=0 note=63 velocity=0 time=0.25
EXTRACT: note_on channel=1 note=69 velocity=62 time=0.0010416666666666667
EXTRACT: note_on channel=2 note=65 velocity=62 time=0
EXTRACT: note_on channel=3 note=63 velocity=75 time=0
EXTRACT: note_on channel=4 note=57 velocity=62 time=0
EXTRACT: note_on channel=5 note=53 velocity=62 time=0
EXTRACT: note_on channel=6 note=41 velocity=80 time=0
EXTRACT: note_on channel=0 note=65 velocity=80 time=0.5
EXTRACT: note_on channel=0 note=65 velocity=0 time=0.24895833333333334
EXTRACT: note_on channel=1 note=69 velocity=0 time=0
EXTRACT: note_on channel=2 note=65 velocity=0 time=0
EXTRACT: note_on channel=4 note=57 velocity=0 time=0
EXTRACT: note_on channel=5 note=53 velocity=0 time=0
EXTRACT: note_on channel=6 note=41 velocity=0 time=0
EXTRACT: note_on channel=0 note=67 velocity=80 time=0.0010416666666666667
EXTRACT: note_on channel=1 note=69 velocity=62 time=0
EXTRACT: note_on channel=2 note=66 velocity=62 time=0
EXTRACT: note_on channel=4 note=57 velocity=62 time=0
EXTRACT: note_on channel=5 note=54 velocity=62 time=0
EXTRACT: note_on channel=6 note=42 velocity=80 time=0
EXTRACT: note_on channel=0 note=67 velocity=0 time=0.24895833333333334
EXTRACT: note_on channel=3 note=63 velocity=0 time=0
EXTRACT: note_on channel=0 note=65 velocity=80 time=0.0010416666666666667
EXTRACT: note_on channel=3 note=62 velocity=75 time=0
EXTRACT: note_on channel=0 note=65 velocity=0 time=0.24895833333333334
EXTRACT: note_on channel=1 note=69 velocity=0 time=0
EXTRACT: note_on channel=2 note=66 velocity=0 time=0
EXTRACT: note_on channel=4 note=57 velocity=0 time=0
EXTRACT: note_on channel=5 note=54 velocity=0 time=0
EXTRACT: note_on channel=6 note=42 velocity=0 time=0
EXTRACT: note_on channel=0 note=63 velocity=80 time=0.0010416666666666667
EXTRACT: note_on channel=1 note=67 velocity=62 time=0
EXTRACT: note_on channel=2 note=67 velocity=62 time=0
EXTRACT: note_on channel=4 note=59 velocity=62 time=0
EXTRACT: note_on channel=5 note=55 velocity=62 time=0
EXTRACT: note_on channel=6 note=43 velocity=80 time=0
EXTRACT: note_on channel=0 note=63 velocity=0 time=0.24895833333333334
EXTRACT: note_on channel=0 note=60 velocity=80 time=0.0010416666666666667
EXTRACT: note_on channel=0 note=60 velocity=0 time=0.24895833333333334
EXTRACT: note_on channel=0 note=58 velocity=80 time=0.0010416666666666667
EXTRACT: note_on channel=0 note=58 velocity=0 time=0.24895833333333334
EXTRACT: note_on channel=1 note=67 velocity=0 time=0
EXTRACT: note_on channel=2 note=67 velocity=0 time=0
EXTRACT: note_on channel=3 note=62 velocity=0 time=0
EXTRACT: note_on channel=4 note=59 velocity=0 time=0
EXTRACT: note_on channel=5 note=55 velocity=0 time=0
EXTRACT: note_on channel=6 note=43 velocity=0 time=0
EXTRACT: note_on channel=1 note=67 velocity=62 time=0.0010416666666666667
EXTRACT: note_on channel=2 note=67 velocity=62 time=0
EXTRACT: note_on channel=4 note=60 velocity=62 time=0
EXTRACT: note_on channel=5 note=55 velocity=62 time=0
EXTRACT: note_on channel=6 note=48 velocity=80 time=0
EXTRACT: note_on channel=0 note=67 velocity=80 time=0.5
EXTRACT: note_on channel=3 note=63 velocity=75 time=0
EXTRACT: note_on channel=0 note=67 velocity=0 time=0.24895833333333334
EXTRACT: note_on channel=1 note=67 velocity=0 time=0
EXTRACT: note_on channel=2 note=67 velocity=0 time=0
EXTRACT: note_on channel=3 note=63 velocity=0 time=0
EXTRACT: note_on channel=4 note=60 velocity=0 time=0
EXTRACT: note_on channel=5 note=55 velocity=0 time=0
EXTRACT: note_on channel=6 note=48 velocity=0 time=0
EXTRACT: note_on channel=0 note=63 velocity=80 time=0.0010416666666666667
EXTRACT: note_on channel=1 note=72 velocity=62 time=0
EXTRACT: note_on channel=2 note=67 velocity=62 time=0
EXTRACT: note_on channel=3 note=60 velocity=75 time=0
EXTRACT: note_on channel=4 note=60 velocity=62 time=0
EXTRACT: note_on channel=5 note=55 velocity=62 time=0
EXTRACT: note_on channel=6 note=39 velocity=80 time=0
EXTRACT: note_on channel=0 note=63 velocity=0 time=0.24895833333333334
EXTRACT: note_on channel=3 note=60 velocity=0 time=0
EXTRACT: note_on channel=0 note=58 velocity=80 time=0.25104166666666666
EXTRACT: note_on channel=3 note=55 velocity=75 time=0
EXTRACT: note_on channel=0 note=58 velocity=0 time=0.24895833333333334
EXTRACT: note_on channel=3 note=55 velocity=0 time=0
EXTRACT: note_on channel=0 note=67 velocity=80 time=0.0010416666666666667
EXTRACT: note_on channel=3 note=63 velocity=75 time=0
EXTRACT: note_on channel=0 note=67 velocity=0 time=0.24895833333333334
EXTRACT: note_on channel=1 note=72 velocity=0 time=0
EXTRACT: note_on channel=2 note=67 velocity=0 time=0
EXTRACT: note_on channel=3 note=63 velocity=0 time=0
EXTRACT: note_on channel=4 note=60 velocity=0 time=0
EXTRACT: note_on channel=5 note=55 velocity=0 time=0
EXTRACT: note_on channel=6 note=39 velocity=0 time=0
EXTRACT: note_on channel=0 note=63 velocity=80 time=0.0010416666666666667
EXTRACT: note_on channel=3 note=60 velocity=75 time=0
EXTRACT: note_on channel=0 note=63 velocity=0 time=0.24895833333333334
EXTRACT: note_on channel=3 note=60 velocity=0 time=0
EXTRACT: note_on channel=1 note=69 velocity=88 time=0.0010416666666666667
EXTRACT: note_on channel=2 note=65 velocity=88 time=0
EXTRACT: note_on channel=4 note=57 velocity=88 time=0
EXTRACT: note_on channel=5 note=53 velocity=88 time=0
EXTRACT: note_on channel=6 note=41 velocity=80 time=0
EXTRACT: note_on channel=0 note=63 velocity=80 time=0.25
EXTRACT: note_on channel=3 note=60 velocity=75 time=0
EXTRACT: note_on channel=0 note=63 velocity=0 time=0.24895833333333334
EXTRACT: note_on channel=3 note=60 velocity=0 time=0
EXTRACT: note_on channel=0 note=63 velocity=80 time=0.0010416666666666667
EXTRACT: note_on channel=3 note=60 velocity=75 time=0
EXTRACT: note_on channel=0 note=63 velocity=0 time=0.24895833333333334
EXTRACT: note_on channel=1 note=69 velocity=0 time=0
EXTRACT: note_on channel=2 note=65 velocity=0 time=0
EXTRACT: note_on channel=3 note=60 velocity=0 time=0
EXTRACT: note_on channel=4 note=57 velocity=0 time=0
EXTRACT: note_on channel=5 note=53 velocity=0 time=0
EXTRACT: note_on channel=6 note=41 velocity=0 time=0
EXTRACT: note_on channel=0 note=63 velocity=80 time=0.0010416666666666667
EXTRACT: note_on channel=1 note=69 velocity=88 time=0
EXTRACT: note_on channel=2 note=66 velocity=88 time=0
EXTRACT: note_on channel=3 note=60 velocity=75 time=0
EXTRACT: note_on channel=4 note=57 velocity=88 time=0
EXTRACT: note_on channel=5 note=54 velocity=88 time=0
EXTRACT: note_on channel=6 note=42 velocity=80 time=0
EXTRACT: note_on channel=0 note=63 velocity=0 time=0.24895833333333334
EXTRACT: note_on channel=3 note=60 velocity=0 time=0
EXTRACT: note_on channel=0 note=65 velocity=80 time=0.0010416666666666667
EXTRACT: note_on channel=3 note=62 velocity=75 time=0
EXTRACT: note_on channel=0 note=65 velocity=0 time=0.24895833333333334
EXTRACT: note_on channel=1 note=69 velocity=0 time=0
EXTRACT: note_on channel=2 note=66 velocity=0 time=0
EXTRACT: note_on channel=3 note=62 velocity=0 time=0
EXTRACT: note_on channel=4 note=57 velocity=0 time=0
EXTRACT: note_on channel=5 note=54 velocity=0 time=0
EXTRACT: note_on channel=6 note=42 velocity=0 time=0
EXTRACT: note_on channel=0 note=67 velocity=80 time=0.0010416666666666667
EXTRACT: note_on channel=1 note=67 velocity=88 time=0
EXTRACT: note_on channel=2 note=67 velocity=88 time=0
EXTRACT: note_on channel=3 note=63 velocity=75 time=0
EXTRACT: note_on channel=4 note=59 velocity=88 time=0
EXTRACT: note_on channel=5 note=55 velocity=88 time=0
EXTRACT: note_on channel=6 note=43 velocity=80 time=0
EXTRACT: note_on channel=0 note=67 velocity=0 time=0.24895833333333334
EXTRACT: note_on channel=3 note=63 velocity=0 time=0
EXTRACT: note_on channel=1 note=67 velocity=0 time=0.25
EXTRACT: note_on channel=2 note=67 velocity=0 time=0
EXTRACT: note_on channel=0 note=70 velocity=80 time=0.0010416666666666667
EXTRACT: note_on channel=1 note=70 velocity=88 time=0
EXTRACT: note_on channel=2 note=70 velocity=88 time=0
EXTRACT: note_on channel=3 note=63 velocity=75 time=0
EXTRACT: note_on channel=4 note=59 velocity=0 time=0.24895833333333334
EXTRACT: note_on channel=5 note=55 velocity=0 time=0
EXTRACT: note_on channel=6 note=43 velocity=0 time=0
EXTRACT: note_on channel=4 note=60 velocity=88 time=0.0010416666666666667
EXTRACT: note_on channel=5 note=56 velocity=88 time=0
EXTRACT: note_on channel=6 note=41 velocity=80 time=0
EXTRACT: note_on channel=0 note=70 velocity=0 time=0.49895833333333334
EXTRACT: note_on channel=1 note=70 velocity=0 time=0
EXTRACT: note_on channel=2 note=70 velocity=0 time=0
EXTRACT: note_on channel=4 note=60 velocity=0 time=0
EXTRACT: note_on channel=5 note=56 velocity=0 time=0
EXTRACT: note_on channel=0 note=67 velocity=80 time=0.0010416666666666667
EXTRACT: note_on channel=1 note=67 velocity=88 time=0
EXTRACT: note_on channel=2 note=67 velocity=88 time=0
EXTRACT: note_on channel=4 note=60 velocity=88 time=0
EXTRACT: note_on channel=5 note=56 velocity=88 time=0
EXTRACT: note_on channel=0 note=67 velocity=0 time=0.24895833333333334
EXTRACT: note_on channel=1 note=67 velocity=0 time=0
EXTRACT: note_on channel=2 note=67 velocity=0 time=0
EXTRACT: note_on channel=6 note=41 velocity=0 time=0
EXTRACT: note_on channel=0 note=72 velocity=80 time=0.0010416666666666667
EXTRACT: note_on channel=1 note=72 velocity=88 time=0
EXTRACT: note_on channel=2 note=72 velocity=88 time=0
EXTRACT: note_on channel=6 note=41 velocity=80 time=0
EXTRACT: note_on channel=0 note=72 velocity=0 time=0.24895833333333334
EXTRACT: note_on channel=1 note=72 velocity=0 time=0
EXTRACT: note_on channel=2 note=72 velocity=0 time=0
EXTRACT: note_on channel=3 note=63 velocity=0 time=0
EXTRACT: note_on channel=4 note=60 velocity=0 time=0
EXTRACT: note_on channel=5 note=56 velocity=0 time=0
EXTRACT: note_on channel=0 note=70 velocity=80 time=0.0010416666666666667
EXTRACT: note_on channel=1 note=70 velocity=88 time=0
EXTRACT: note_on channel=2 note=70 velocity=88 time=0
EXTRACT: note_on channel=3 note=63 velocity=75 time=0
EXTRACT: note_on channel=4 note=60 velocity=88 time=0
EXTRACT: note_on channel=5 note=56 velocity=88 time=0
EXTRACT: note_on channel=0 note=70 velocity=0 time=0.49895833333333334
EXTRACT: note_on channel=1 note=70 velocity=0 time=0
EXTRACT: note_on channel=2 note=70 velocity=0 time=0
EXTRACT: note_on channel=4 note=60 velocity=0 time=0
EXTRACT: note_on channel=5 note=56 velocity=0 time=0
EXTRACT: note_on channel=6 note=41 velocity=0 time=0
EXTRACT: note_on channel=0 note=67 velocity=80 time=0.0010416666666666667
EXTRACT: note_on channel=1 note=70 velocity=88 time=0
EXTRACT: note_on channel=2 note=67 velocity=88 time=0
EXTRACT: note_on channel=4 note=60 velocity=88 time=0
EXTRACT: note_on channel=5 note=56 velocity=88 time=0
EXTRACT: note_on channel=6 note=41 velocity=80 time=0
EXTRACT: note_on channel=0 note=67 velocity=0 time=0.24895833333333334
EXTRACT: note_on channel=0 note=65 velocity=80 time=0.0010416666666666667
EXTRACT: note_on channel=0 note=65 velocity=0 time=0.24895833333333334
EXTRACT: note_on channel=1 note=70 velocity=0 time=0
EXTRACT: note_on channel=2 note=67 velocity=0 time=0
EXTRACT: note_on channel=3 note=63 velocity=0 time=0
EXTRACT: note_on channel=4 note=60 velocity=0 time=0
EXTRACT: note_on channel=5 note=56 velocity=0 time=0
EXTRACT: note_on channel=6 note=41 velocity=0 time=0
EXTRACT: note_on channel=0 note=63 velocity=80 time=0.0010416666666666667
EXTRACT: note_on channel=1 note=70 velocity=88 time=0
EXTRACT: note_on channel=2 note=68 velocity=88 time=0
EXTRACT: note_on channel=3 note=65 velocity=88 time=0
EXTRACT: note_on channel=4 note=62 velocity=88 time=0
EXTRACT: note_on channel=5 note=58 velocity=88 time=0
EXTRACT: note_on channel=6 note=46 velocity=80 time=0
EXTRACT: note_on channel=0 note=63 velocity=0 time=0.24895833333333334
EXTRACT: note_on channel=6 note=46 velocity=0 time=0
EXTRACT: note_on channel=0 note=65 velocity=80 time=0.0010416666666666667
EXTRACT: note_on channel=6 note=46 velocity=80 time=0
EXTRACT: note_on channel=0 note=65 velocity=0 time=0.24895833333333334
EXTRACT: note_on channel=6 note=46 velocity=0 time=0
EXTRACT: note_on channel=0 note=67 velocity=80 time=0.0010416666666666667
EXTRACT: note_on channel=6 note=46 velocity=80 time=0
EXTRACT: note_on channel=0 note=67 velocity=0 time=0.24895833333333334
EXTRACT: note_on channel=2 note=68 velocity=0 time=0
EXTRACT: note_on channel=3 note=65 velocity=0 time=0
EXTRACT: note_on channel=4 note=62 velocity=0 time=0
EXTRACT: note_on channel=6 note=46 velocity=0 time=0
EXTRACT: note_on channel=0 note=60 velocity=80 time=0.0010416666666666667
EXTRACT: note_on channel=6 note=46 velocity=80 time=0
EXTRACT: note_on channel=0 note=60 velocity=0 time=0.24895833333333334
EXTRACT: note_on channel=6 note=46 velocity=0 time=0
EXTRACT: note_on channel=0 note=58 velocity=80 time=0.0010416666666666667
EXTRACT: note_on channel=2 note=68 velocity=88 time=0
EXTRACT: note_on channel=3 note=65 velocity=88 time=0
EXTRACT: note_on channel=4 note=60 velocity=88 time=0
EXTRACT: note_on channel=6 note=46 velocity=80 time=0
EXTRACT: note_on channel=2 note=68 velocity=0 time=0.24895833333333334
EXTRACT: note_on channel=3 note=65 velocity=0 time=0
EXTRACT: note_on channel=4 note=60 velocity=0 time=0
EXTRACT: note_on channel=2 note=67 velocity=88 time=0.0010416666666666667
EXTRACT: note_on channel=3 note=63 velocity=88 time=0
EXTRACT: note_on channel=4 note=58 velocity=88 time=0
EXTRACT: note_on channel=0 note=58 velocity=0 time=0.24895833333333334
EXTRACT: note_on channel=2 note=67 velocity=0 time=0
EXTRACT: note_on channel=3 note=63 velocity=0 time=0
EXTRACT: note_on channel=4 note=58 velocity=0 time=0
EXTRACT: note_on channel=6 note=46 velocity=0 time=0
EXTRACT: note_on channel=2 note=68 velocity=88 time=0.0010416666666666667
EXTRACT: note_on channel=3 note=65 velocity=88 time=0
EXTRACT: note_on channel=4 note=60 velocity=88 time=0
EXTRACT: note_on channel=6 note=46 velocity=80 time=0
EXTRACT: note_on channel=2 note=68 velocity=0 time=0.24895833333333334
EXTRACT: note_on channel=3 note=65 velocity=0 time=0
EXTRACT: note_on channel=4 note=60 velocity=0 time=0
EXTRACT: note_on channel=2 note=67 velocity=88 time=0.0010416666666666667
EXTRACT: note_on channel=3 note=63 velocity=88 time=0
EXTRACT: note_on channel=4 note=58 velocity=88 time=0
EXTRACT: note_on channel=1 note=70 velocity=0 time=0.24895833333333334
EXTRACT: note_on channel=2 note=67 velocity=0 time=0
EXTRACT: note_on channel=3 note=63 velocity=0 time=0
EXTRACT: note_on channel=4 note=58 velocity=0 time=0
EXTRACT: note_on channel=5 note=58 velocity=0 time=0
EXTRACT: note_on channel=6 note=46 velocity=0 time=0
EXTRACT: note_on channel=1 note=70 velocity=88 time=0.0010416666666666667
EXTRACT: note_on channel=1 note=75 velocity=88 time=0
EXTRACT: note_on channel=2 note=70 velocity=88 time=0
EXTRACT: note_on channel=3 note=67 velocity=88 time=0
EXTRACT: note_on channel=4 note=63 velocity=88 time=0
EXTRACT: note_on channel=5 note=51 velocity=88 time=0
EXTRACT: note_on channel=5 note=58 velocity=88 time=0
EXTRACT: note_on channel=6 note=51 velocity=80 time=0
EXTRACT: note_on channel=5 note=51 velocity=0 time=0.24895833333333334
EXTRACT: note_on channel=5 note=58 velocity=0 time=0
EXTRACT: note_on channel=6 note=51 velocity=0 time=0
EXTRACT: note_on channel=1 note=70 velocity=0 time=0.25
EXTRACT: note_on channel=1 note=75 velocity=0 time=0
EXTRACT: note_on channel=2 note=70 velocity=0 time=0
EXTRACT: note_on channel=3 note=67 velocity=0 time=0
EXTRACT: note_on channel=4 note=63 velocity=0 time=0
EXTRACT: note_on channel=1 note=70 velocity=88 time=0.0010416666666666667
EXTRACT: note_on channel=1 note=75 velocity=88 time=0
EXTRACT: note_on channel=6 note=51 velocity=80 time=0
EXTRACT: note_on channel=6 note=51 velocity=0 time=0.24895833333333334
EXTRACT: note_on channel=0 note=67 velocity=80 time=0.0010416666666666667
EXTRACT: note_on channel=2 note=70 velocity=88 time=0
EXTRACT: note_on channel=3 note=63 velocity=88 time=0
EXTRACT: note_on channel=4 note=63 velocity=88 time=0
EXTRACT: note_on channel=5 note=51 velocity=88 time=0
EXTRACT: note_on channel=5 note=58 velocity=88 time=0
EXTRACT: note_on channel=6 note=39 velocity=80 time=0
EXTRACT: note_on channel=0 note=67 velocity=0 time=0.24895833333333334
EXTRACT: note_on channel=1 note=70 velocity=0 time=0
EXTRACT: note_on channel=1 note=75 velocity=0 time=0
EXTRACT: note_on channel=5 note=51 velocity=0 time=0
EXTRACT: note_on channel=5 note=58 velocity=0 time=0
EXTRACT: note_on channel=6 note=39 velocity=0 time=0
EXTRACT: note_on channel=0 note=65 velocity=80 time=0.0010416666666666667
EXTRACT: note_on channel=1 note=70 velocity=88 time=0
EXTRACT: note_on channel=1 note=75 velocity=88 time=0
EXTRACT: note_on channel=5 note=51 velocity=88 time=0
EXTRACT: note_on channel=5 note=55 velocity=88 time=0
EXTRACT: note_on channel=6 note=43 velocity=80 time=0
EXTRACT: note_on channel=0 note=65 velocity=0 time=0.24895833333333334
EXTRACT: note_on channel=2 note=70 velocity=0 time=0
EXTRACT: note_on channel=3 note=63 velocity=0 time=0
EXTRACT: note_on channel=4 note=63 velocity=0 time=0
EXTRACT: note_on channel=5 note=51 velocity=0 time=0
EXTRACT: note_on channel=5 note=55 velocity=0 time=0
EXTRACT: note_on channel=6 note=43 velocity=0 time=0
EXTRACT: note_on channel=0 note=63 velocity=80 time=0.0010416666666666667
EXTRACT: note_on channel=2 note=67 velocity=88 time=0
EXTRACT: note_on channel=3 note=63 velocity=88 time=0
EXTRACT: note_on channel=4 note=58 velocity=88 time=0
EXTRACT: note_on channel=6 note=44 velocity=80 time=0
EXTRACT: note_on channel=0 note=63 velocity=0 time=0.24895833333333334
EXTRACT: note_on channel=1 note=70 velocity=0 time=0
EXTRACT: note_on channel=1 note=75 velocity=0 time=0
EXTRACT: note_on channel=6 note=44 velocity=0 time=0
EXTRACT: note_on channel=0 note=67 velocity=80 time=0.0010416666666666667
EXTRACT: note_on channel=1 note=70 velocity=88 time=0
EXTRACT: note_on channel=1 note=75 velocity=88 time=0
EXTRACT: note_on channel=6 note=46 velocity=80 time=0
EXTRACT: note_on channel=0 note=67 velocity=0 time=0.24895833333333334
EXTRACT: note_on channel=2 note=67 velocity=0 time=0
EXTRACT: note_on channel=3 note=63 velocity=0 time=0
EXTRACT: note_on channel=4 note=58 velocity=0 time=0
EXTRACT: note_on channel=6 note=46 velocity=0 time=0
EXTRACT: note_on channel=0 note=63 velocity=80 time=0.0010416666666666667
EXTRACT: note_on channel=2 note=68 velocity=88 time=0
EXTRACT: note_on channel=3 note=63 velocity=88 time=0
EXTRACT: note_on channel=3 note=65 velocity=88 time=0
EXTRACT: note_on channel=4 note=60 velocity=88 time=0
EXTRACT: note_on channel=5 note=51 velocity=88 time=0
EXTRACT: note_on channel=5 note=56 velocity=88 time=0
EXTRACT: note_on channel=6 note=44 velocity=80 time=0
EXTRACT: note_on channel=1 note=70 velocity=0 time=0.24895833333333334
EXTRACT: note_on channel=1 note=75 velocity=0 time=0
EXTRACT: note_on channel=5 note=51 velocity=0 time=0
EXTRACT: note_on channel=5 note=56 velocity=0 time=0
EXTRACT: note_on channel=6 note=44 velocity=0 time=0
EXTRACT: note_on channel=1 note=70 velocity=88 time=0.0010416666666666667
EXTRACT: note_on channel=1 note=75 velocity=88 time=0
EXTRACT: note_on channel=0 note=63 velocity=0 time=0.24895833333333334
EXTRACT: note_on channel=0 note=63 velocity=80 time=0.0010416666666666667
EXTRACT: note_on channel=5 note=51 velocity=88 time=0
EXTRACT: note_on channel=5 note=56 velocity=88 time=0
EXTRACT: note_on channel=6 note=44 velocity=80 time=0
EXTRACT: note_on channel=0 note=63 velocity=0 time=0.12395833333333334
EXTRACT: note_on channel=0 note=60 velocity=80 time=0.0010416666666666667
EXTRACT: note_on channel=0 note=60 velocity=0 time=0.12395833333333334
EXTRACT: note_on channel=1 note=70 velocity=0 time=0
EXTRACT: note_on channel=1 note=75 velocity=0 time=0
EXTRACT: note_on channel=2 note=68 velocity=0 time=0
EXTRACT: note_on channel=3 note=63 velocity=0 time=0
EXTRACT: note_on channel=3 note=65 velocity=0 time=0
EXTRACT: note_on channel=4 note=60 velocity=0 time=0
EXTRACT: note_on channel=5 note=51 velocity=0 time=0
EXTRACT: note_on channel=5 note=56 velocity=0 time=0
EXTRACT: note_on channel=6 note=44 velocity=0 time=0
EXTRACT: note_on channel=0 note=58 velocity=80 time=0.0010416666666666667
EXTRACT: note_on channel=1 note=70 velocity=88 time=0
EXTRACT: note_on channel=1 note=75 velocity=88 time=0
EXTRACT: note_on channel=6 note=48 velocity=80 time=0
EXTRACT: note_on channel=2 note=68 velocity=88 time=0.25
EXTRACT: note_on channel=3 note=65 velocity=88 time=0
EXTRACT: note_on channel=4 note=60 velocity=88 time=0
EXTRACT: note_on channel=5 note=51 velocity=88 time=0
EXTRACT: note_on channel=5 note=55 velocity=88 time=0
EXTRACT: note_on channel=0 note=58 velocity=0 time=0.24895833333333334
EXTRACT: note_on channel=1 note=70 velocity=0 time=0
EXTRACT: note_on channel=1 note=75 velocity=0 time=0
EXTRACT: note_on channel=5 note=51 velocity=0 time=0
EXTRACT: note_on channel=5 note=55 velocity=0 time=0
EXTRACT: note_on channel=6 note=48 velocity=0 time=0
EXTRACT: note_on channel=1 note=70 velocity=88 time=0.0010416666666666667
EXTRACT: note_on channel=1 note=75 velocity=88 time=0
EXTRACT: note_on channel=5 note=53 velocity=88 time=0
EXTRACT: note_on channel=6 note=46 velocity=80 time=0
EXTRACT: note_on channel=2 note=68 velocity=0 time=0.24895833333333334
EXTRACT: note_on channel=3 note=65 velocity=0 time=0
EXTRACT: note_on channel=4 note=60 velocity=0 time=0
EXTRACT: note_on channel=6 note=46 velocity=0 time=0
EXTRACT: note_on channel=2 note=67 velocity=88 time=0.0010416666666666667
EXTRACT: note_on channel=3 note=63 velocity=88 time=0
EXTRACT: note_on channel=4 note=58 velocity=88 time=0
EXTRACT: note_on channel=6 note=46 velocity=80 time=0
EXTRACT: note_on channel=1 note=70 velocity=0 time=0.24895833333333334
EXTRACT: note_on channel=1 note=75 velocity=0 time=0
EXTRACT: note_on channel=2 note=67 velocity=0 time=0
EXTRACT: note_on channel=3 note=63 velocity=0 time=0
EXTRACT: note_on channel=4 note=58 velocity=0 time=0
EXTRACT: note_on channel=5 note=53 velocity=0 time=0
EXTRACT: note_on channel=6 note=46 velocity=0 time=0
EXTRACT: note_on channel=1 note=70 velocity=88 time=0.0010416666666666667
EXTRACT: note_on channel=1 note=75 velocity=88 time=0
EXTRACT: note_on channel=2 note=68 velocity=88 time=0
EXTRACT: note_on channel=3 note=65 velocity=88 time=0
EXTRACT: note_on channel=4 note=60 velocity=88 time=0
EXTRACT: note_on channel=5 note=55 velocity=88 time=0
EXTRACT: note_on channel=6 note=48 velocity=80 time=0
EXTRACT: note_on channel=2 note=68 velocity=0 time=0.24895833333333334
EXTRACT: note_on channel=3 note=65 velocity=0 time=0
EXTRACT: note_on channel=4 note=60 velocity=0 time=0
EXTRACT: note_on channel=6 note=48 velocity=0 time=0
EXTRACT: note_on channel=2 note=67 velocity=88 time=0.0010416666666666667
EXTRACT: note_on channel=3 note=63 velocity=88 time=0
EXTRACT: note_on channel=4 note=58 velocity=88 time=0
EXTRACT: note_on channel=6 note=46 velocity=80 time=0
EXTRACT: note_on channel=1 note=70 velocity=0 time=0.24895833333333334
EXTRACT: note_on channel=1 note=75 velocity=0 time=0
EXTRACT: note_on channel=2 note=67 velocity=0 time=0
EXTRACT: note_on channel=3 note=63 velocity=0 time=0
EXTRACT: note_on channel=4 note=58 velocity=0 time=0
EXTRACT: note_on channel=5 note=55 velocity=0 time=0
EXTRACT: note_on channel=6 note=46 velocity=0 time=0
EXTRACT: note_on channel=1 note=70 velocity=88 time=0.0010416666666666667
EXTRACT: note_on channel=1 note=75 velocity=88 time=0
EXTRACT: note_on channel=2 note=70 velocity=88 time=0
EXTRACT: note_on channel=3 note=67 velocity=88 time=0
EXTRACT: note_on channel=4 note=63 velocity=88 time=0
EXTRACT: note_on channel=5 note=51 velocity=88 time=0
EXTRACT: note_on channel=5 note=58 velocity=88 time=0
EXTRACT: note_on channel=6 note=51 velocity=80 time=0
EXTRACT: note_on channel=5 note=51 velocity=0 time=0.24895833333333334
EXTRACT: note_on channel=5 note=58 velocity=0 time=0
EXTRACT: note_on channel=6 note=51 velocity=0 time=0
EXTRACT: note_on channel=0 note=67 velocity=80 time=0.0010416666666666667
EXTRACT: note_on channel=0 note=67 velocity=0 time=0.24895833333333334
EXTRACT: note_on channel=1 note=70 velocity=0 time=0
EXTRACT: note_on channel=1 note=75 velocity=0 time=0
EXTRACT: note_on channel=0 note=67 velocity=80 time=0.0010416666666666667
EXTRACT: note_on channel=1 note=70 velocity=88 time=0
EXTRACT: note_on channel=1 note=75 velocity=88 time=0
EXTRACT: note_on channel=6 note=51 velocity=80 time=0
EXTRACT: note_on channel=0 note=67 velocity=0 time=0.24895833333333334
EXTRACT: note_on channel=2 note=70 velocity=0 time=0
EXTRACT: note_on channel=3 note=67 velocity=0 time=0
EXTRACT: note_on channel=4 note=63 velocity=0 time=0
EXTRACT: note_on channel=6 note=51 velocity=0 time=0
EXTRACT: note_on channel=0 note=67 velocity=80 time=0.0010416666666666667
EXTRACT: note_on channel=5 note=51 velocity=88 time=0
EXTRACT: note_on channel=5 note=58 velocity=88 time=0
EXTRACT: note_on channel=6 note=39 velocity=80 time=0
EXTRACT: note_on channel=0 note=67 velocity=0 time=0.24895833333333334
EXTRACT: note_on channel=1 note=70 velocity=0 time=0
EXTRACT: note_on channel=1 note=75 velocity=0 time=0
EXTRACT: note_on channel=5 note=51 velocity=0 time=0
EXTRACT: note_on channel=5 note=58 velocity=0 time=0
EXTRACT: note_on channel=6 note=39 velocity=0 time=0
EXTRACT: note_on channel=0 note=65 velocity=80 time=0.0010416666666666667
EXTRACT: note_on channel=1 note=70 velocity=88 time=0
EXTRACT: note_on channel=1 note=75 velocity=88 time=0
EXTRACT: note_on channel=2 note=70 velocity=88 time=0
EXTRACT: note_on channel=3 note=63 velocity=88 time=0
EXTRACT: note_on channel=4 note=58 velocity=88 time=0
EXTRACT: note_on channel=5 note=51 velocity=88 time=0
EXTRACT: note_on channel=5 note=55 velocity=88 time=0
EXTRACT: note_on channel=6 note=43 velocity=80 time=0
EXTRACT: note_on channel=0 note=65 velocity=0 time=0.24895833333333334
EXTRACT: note_on channel=5 note=51 velocity=0 time=0
EXTRACT: note_on channel=5 note=55 velocity=0 time=0
EXTRACT: note_on channel=0 note=63 velocity=80 time=0.0010416666666666667
EXTRACT: note_on channel=0 note=63 velocity=0 time=0.24895833333333334
EXTRACT: note_on channel=1 note=70 velocity=0 time=0
EXTRACT: note_on channel=1 note=75 velocity=0 time=0
EXTRACT: note_on channel=2 note=70 velocity=0 time=0
EXTRACT: note_on channel=3 note=63 velocity=0 time=0
EXTRACT: note_on channel=4 note=58 velocity=0 time=0
EXTRACT: note_on channel=6 note=43 velocity=0 time=0
EXTRACT: note_on channel=0 note=67 velocity=80 time=0.0010416666666666667
EXTRACT: note_on channel=1 note=70 velocity=88 time=0
EXTRACT: note_on channel=1 note=75 velocity=88 time=0
EXTRACT: note_on channel=2 note=70 velocity=88 time=0
EXTRACT: note_on channel=3 note=58 velocity=88 time=0
EXTRACT: note_on channel=4 note=55 velocity=88 time=0
EXTRACT: note_on channel=6 note=46 velocity=80 time=0
EXTRACT: note_on channel=0 note=67 velocity=0 time=0.24895833333333334
EXTRACT: note_on channel=2 note=70 velocity=0 time=0
EXTRACT: note_on channel=3 note=58 velocity=0 time=0
EXTRACT: note_on channel=4 note=55 velocity=0 time=0
EXTRACT: note_on channel=6 note=46 velocity=0 time=0
EXTRACT: note_on channel=0 note=63 velocity=80 time=0.0010416666666666667
EXTRACT: note_on channel=2 note=68 velocity=88 time=0
EXTRACT: note_on channel=3 note=63 velocity=88 time=0
EXTRACT: note_on channel=4 note=60 velocity=88 time=0
EXTRACT: note_on channel=5 note=51 velocity=88 time=0
EXTRACT: note_on channel=5 note=56 velocity=88 time=0
EXTRACT: note_on channel=6 note=44 velocity=80 time=0
EXTRACT: note_on channel=1 note=70 velocity=0 time=0.24895833333333334
EXTRACT: note_on channel=1 note=75 velocity=0 time=0
EXTRACT: note_on channel=5 note=51 velocity=0 time=0
EXTRACT: note_on channel=5 note=56 velocity=0 time=0
EXTRACT: note_on channel=1 note=70 velocity=88 time=0.0010416666666666667
EXTRACT: note_on channel=1 note=75 velocity=88 time=0
EXTRACT: note_on channel=0 note=63 velocity=0 time=0.24895833333333334
EXTRACT: note_on channel=2 note=68 velocity=0 time=0
EXTRACT: note_on channel=3 note=63 velocity=0 time=0
EXTRACT: note_on channel=4 note=60 velocity=0 time=0
EXTRACT: note_on channel=6 note=44 velocity=0 time=0
EXTRACT: note_on channel=0 note=63 velocity=80 time=0.0010416666666666667
EXTRACT: note_on channel=2 note=68 velocity=88 time=0
EXTRACT: note_on channel=3 note=63 velocity=88 time=0
EXTRACT: note_on channel=4 note=62 velocity=88 time=0
EXTRACT: note_on channel=5 note=51 velocity=88 time=0
EXTRACT: note_on channel=5 note=56 velocity=88 time=0
EXTRACT: note_on channel=6 note=44 velocity=80 time=0
EXTRACT: note_on channel=0 note=63 velocity=0 time=0.12395833333333334
EXTRACT: note_on channel=0 note=65 velocity=80 time=0.0010416666666666667
EXTRACT: note_on channel=0 note=65 velocity=0 time=0.12395833333333334
EXTRACT: note_on channel=1 note=70 velocity=0 time=0
EXTRACT: note_on channel=1 note=75 velocity=0 time=0
EXTRACT: note_on channel=2 note=68 velocity=0 time=0
EXTRACT: note_on channel=3 note=63 velocity=0 time=0
EXTRACT: note_on channel=5 note=51 velocity=0 time=0
EXTRACT: note_on channel=5 note=56 velocity=0 time=0
EXTRACT: note_on channel=6 note=44 velocity=0 time=0
EXTRACT: note_on channel=0 note=67 velocity=80 time=0.0010416666666666667
EXTRACT: note_on channel=1 note=70 velocity=88 time=0
EXTRACT: note_on channel=1 note=75 velocity=88 time=0
EXTRACT: note_on channel=2 note=67 velocity=88 time=0
EXTRACT: note_on channel=3 note=65 velocity=88 time=0
EXTRACT: note_on channel=6 note=43 velocity=80 time=0
EXTRACT: note_on channel=2 note=67 velocity=0 time=0.24895833333333334
EXTRACT: note_on channel=3 note=65 velocity=0 time=0
EXTRACT: note_on channel=4 note=62 velocity=0 time=0
EXTRACT: note_on channel=6 note=43 velocity=0 time=0
EXTRACT: note_on channel=2 note=65 velocity=88 time=0.0010416666666666667
EXTRACT: note_on channel=5 note=51 velocity=88 time=0
EXTRACT: note_on channel=5 note=55 velocity=88 time=0
EXTRACT: note_on channel=6 note=41 velocity=80 time=0
EXTRACT: note_on channel=0 note=67 velocity=0 time=0.24895833333333334
EXTRACT: note_on channel=1 note=70 velocity=0 time=0
EXTRACT: note_on channel=1 note=75 velocity=0 time=0
EXTRACT: note_on channel=2 note=65 velocity=0 time=0
EXTRACT: note_on channel=5 note=51 velocity=0 time=0
EXTRACT: note_on channel=5 note=55 velocity=0 time=0
EXTRACT: note_on channel=1 note=70 velocity=88 time=0.0010416666666666667
EXTRACT: note_on channel=1 note=75 velocity=88 time=0
EXTRACT: note_on channel=2 note=68 velocity=88 time=0
EXTRACT: note_on channel=3 note=65 velocity=88 time=0
EXTRACT: note_on channel=4 note=62 velocity=88 time=0
EXTRACT: note_on channel=5 note=53 velocity=88 time=0
EXTRACT: note_on channel=2 note=68 velocity=0 time=0.24895833333333334
EXTRACT: note_on channel=3 note=65 velocity=0 time=0
EXTRACT: note_on channel=4 note=62 velocity=0 time=0
EXTRACT: note_on channel=2 note=68 velocity=88 time=0.0010416666666666667
EXTRACT: note_on channel=3 note=65 velocity=88 time=0
EXTRACT: note_on channel=4 note=62 velocity=88 time=0
EXTRACT: note_on channel=1 note=70 velocity=0 time=0.24895833333333334
EXTRACT: note_on channel=1 note=75 velocity=0 time=0
EXTRACT: note_on channel=2 note=68 velocity=0 time=0
EXTRACT: note_on channel=3 note=65 velocity=0 time=0
EXTRACT: note_on channel=4 note=62 velocity=0 time=0
EXTRACT: note_on channel=5 note=53 velocity=0 time=0
EXTRACT: note_on channel=6 note=41 velocity=0 time=0
EXTRACT: note_on channel=1 note=70 velocity=88 time=0.0010416666666666667
EXTRACT: note_on channel=1 note=75 velocity=88 time=0
EXTRACT: note_on channel=2 note=68 velocity=88 time=0
EXTRACT: note_on channel=3 note=65 velocity=88 time=0
EXTRACT: note_on channel=4 note=62 velocity=88 time=0
EXTRACT: note_on channel=5 note=55 velocity=88 time=0
EXTRACT: note_on channel=6 note=46 velocity=80 time=0
EXTRACT: note_on channel=2 note=68 velocity=0 time=0.24895833333333334
EXTRACT: note_on channel=3 note=65 velocity=0 time=0
EXTRACT: note_on channel=4 note=62 velocity=0 time=0
EXTRACT: note_on channel=2 note=68 velocity=88 time=0.0010416666666666667
EXTRACT: note_on channel=3 note=65 velocity=88 time=0
EXTRACT: note_on channel=4 note=62 velocity=88 time=0
EXTRACT: note_on channel=1 note=70 velocity=0 time=0.24895833333333334
EXTRACT: note_on channel=1 note=75 velocity=0 time=0
EXTRACT: note_on channel=2 note=68 velocity=0 time=0
EXTRACT: note_on channel=3 note=65 velocity=0 time=0
EXTRACT: note_on channel=4 note=62 velocity=0 time=0
EXTRACT: note_on channel=5 note=55 velocity=0 time=0
EXTRACT: note_on channel=6 note=46 velocity=0 time=0
EXTRACT: note_on channel=1 note=75 velocity=88 time=0.0010416666666666667
EXTRACT: note_on channel=2 note=70 velocity=88 time=0
EXTRACT: note_on channel=3 note=67 velocity=88 time=0
EXTRACT: note_on channel=4 note=63 velocity=88 time=0
EXTRACT: note_on channel=5 note=55 velocity=88 time=0
EXTRACT: note_on channel=6 note=48 velocity=80 time=0
EXTRACT: note_on channel=0 note=67 velocity=80 time=0.25
EXTRACT: note_on channel=0 note=67 velocity=0 time=0.24895833333333334
EXTRACT: note_on channel=0 note=67 velocity=80 time=0.0010416666666666667
EXTRACT: note_on channel=0 note=67 velocity=0 time=0.24895833333333334
EXTRACT: note_on channel=1 note=75 velocity=0 time=0
EXTRACT: note_on channel=2 note=70 velocity=0 time=0
EXTRACT: note_on channel=3 note=67 velocity=0 time=0
EXTRACT: note_on channel=4 note=63 velocity=0 time=0
EXTRACT: note_on channel=5 note=55 velocity=0 time=0
EXTRACT: note_on channel=6 note=48 velocity=0 time=0
EXTRACT: note_on channel=0 note=67 velocity=80 time=0.0010416666666666667
EXTRACT: note_on channel=1 note=70 velocity=88 time=0
EXTRACT: note_on channel=2 note=65 velocity=79 time=0
EXTRACT: note_on channel=3 note=63 velocity=79 time=0
EXTRACT: note_on channel=4 note=58 velocity=79 time=0
EXTRACT: note_on channel=5 note=55 velocity=79 time=0
EXTRACT: note_on channel=6 note=43 velocity=80 time=0
EXTRACT: note_on channel=0 note=67 velocity=0 time=0.24895833333333334
EXTRACT: note_on channel=0 note=65 velocity=80 time=0.0010416666666666667
EXTRACT: note_on channel=0 note=65 velocity=0 time=0.06354166666666666
EXTRACT: note_on channel=0 note=63 velocity=80 time=0.0010416666666666667
EXTRACT: note_on channel=0 note=63 velocity=0 time=0.18333333333333332
EXTRACT: note_on channel=0 note=63 velocity=80 time=0.0020833333333333333
EXTRACT: note_on channel=0 note=63 velocity=0 time=0.24895833333333334
EXTRACT: note_on channel=0 note=63 velocity=80 time=0.0010416666666666667
EXTRACT: note_on channel=1 note=70 velocity=0 time=0.24895833333333334
EXTRACT: note_on channel=2 note=65 velocity=0 time=0
EXTRACT: note_on channel=3 note=63 velocity=0 time=0
EXTRACT: note_on channel=4 note=58 velocity=0 time=0
EXTRACT: note_on channel=5 note=55 velocity=0 time=0
EXTRACT: note_on channel=6 note=43 velocity=0 time=0
EXTRACT: note_on channel=0 note=63 velocity=0 time=0.25
EXTRACT: note_on channel=1 note=68 velocity=88 time=0.0010416666666666667
EXTRACT: note_on channel=2 note=65 velocity=75 time=0
EXTRACT: note_on channel=3 note=63 velocity=75 time=0
EXTRACT: note_on channel=4 note=60 velocity=75 time=0
EXTRACT: note_on channel=5 note=56 velocity=75 time=0
EXTRACT: note_on channel=6 note=44 velocity=80 time=0
EXTRACT: note_on channel=0 note=67 velocity=80 time=0.25
EXTRACT: note_on channel=0 note=67 velocity=0 time=0.24895833333333334
EXTRACT: note_on channel=0 note=67 velocity=80 time=0.0010416666666666667
EXTRACT: note_on channel=0 note=67 velocity=0 time=0.24895833333333334
EXTRACT: note_on channel=1 note=68 velocity=0 time=0
EXTRACT: note_on channel=2 note=65 velocity=0 time=0
EXTRACT: note_on channel=3 note=63 velocity=0 time=0
EXTRACT: note_on channel=4 note=60 velocity=0 time=0
EXTRACT: note_on channel=5 note=56 velocity=0 time=0
EXTRACT: note_on channel=6 note=44 velocity=0 time=0
EXTRACT: note_on channel=0 note=70 velocity=80 time=0.0010416666666666667
EXTRACT: note_on channel=1 note=69 velocity=88 time=0
EXTRACT: note_on channel=2 note=66 velocity=75 time=0
EXTRACT: note_on channel=3 note=63 velocity=75 time=0
EXTRACT: note_on channel=4 note=60 velocity=75 time=0
EXTRACT: note_on channel=5 note=57 velocity=75 time=0
EXTRACT: note_on channel=6 note=45 velocity=80 time=0
EXTRACT: note_on channel=0 note=70 velocity=0 time=0.24895833333333334
EXTRACT: note_on channel=0 note=65 velocity=80 time=0.0010416666666666667
EXTRACT: note_on channel=0 note=65 velocity=0 time=0.24895833333333334
EXTRACT: note_on channel=0 note=63 velocity=80 time=0.0010416666666666667
EXTRACT: note_on channel=0 note=63 velocity=0 time=0.24895833333333334
EXTRACT: note_on channel=0 note=65 velocity=80 time=0.0010416666666666667
EXTRACT: note_on channel=0 note=65 velocity=0 time=0.06354166666666666
EXTRACT: note_on channel=0 note=63 velocity=80 time=0.0010416666666666667
EXTRACT: note_on channel=0 note=63 velocity=0 time=0.18333333333333332
EXTRACT: note_on channel=1 note=69 velocity=0 time=0.0010416666666666667
EXTRACT: note_on channel=2 note=66 velocity=0 time=0
EXTRACT: note_on channel=3 note=63 velocity=0 time=0
EXTRACT: note_on channel=4 note=60 velocity=0 time=0
EXTRACT: note_on channel=5 note=57 velocity=0 time=0
EXTRACT: note_on channel=6 note=45 velocity=0 time=0
EXTRACT: note_on channel=0 note=60 velocity=80 time=0.0010416666666666667
EXTRACT: note_on channel=0 note=60 velocity=0 time=0.24895833333333334
EXTRACT: note_on channel=1 note=70 velocity=88 time=0.0010416666666666667
EXTRACT: note_on channel=2 note=65 velocity=75 time=0
EXTRACT: note_on channel=3 note=63 velocity=75 time=0
EXTRACT: note_on channel=4 note=60 velocity=75 time=0
EXTRACT: note_on channel=5 note=58 velocity=75 time=0
EXTRACT: note_on channel=6 note=46 velocity=80 time=0
EXTRACT: note_on channel=0 note=67 velocity=80 time=0.25
EXTRACT: note_on channel=0 note=67 velocity=0 time=0.24895833333333334
EXTRACT: note_on channel=6 note=46 velocity=0 time=0
EXTRACT: note_on channel=0 note=67 velocity=80 time=0.0010416666666666667
EXTRACT: note_on channel=6 note=46 velocity=80 time=0
EXTRACT: note_on channel=0 note=67 velocity=0 time=0.24895833333333334
EXTRACT: note_on channel=0 note=67 velocity=80 time=0.0010416666666666667
EXTRACT: note_on channel=0 note=67 velocity=0 time=0.24895833333333334
EXTRACT: note_on channel=1 note=70 velocity=0 time=0
EXTRACT: note_on channel=2 note=65 velocity=0 time=0
EXTRACT: note_on channel=3 note=63 velocity=0 time=0
EXTRACT: note_on channel=4 note=60 velocity=0 time=0
EXTRACT: note_on channel=5 note=58 velocity=0 time=0
EXTRACT: note_on channel=6 note=46 velocity=0 time=0
EXTRACT: note_on channel=0 note=65 velocity=80 time=0.0010416666666666667
EXTRACT: note_on channel=1 note=70 velocity=88 time=0
EXTRACT: note_on channel=2 note=68 velocity=75 time=0
EXTRACT: note_on channel=3 note=65 velocity=75 time=0
EXTRACT: note_on channel=4 note=63 velocity=75 time=0
EXTRACT: note_on channel=5 note=58 velocity=75 time=0
EXTRACT: note_on channel=6 note=46 velocity=80 time=0
EXTRACT: note_on channel=0 note=65 velocity=0 time=0.24895833333333334
EXTRACT: note_on channel=0 note=63 velocity=80 time=0.0010416666666666667
EXTRACT: note_on channel=0 note=63 velocity=0 time=0.24895833333333334
EXTRACT: note_on channel=6 note=46 velocity=0 time=0
EXTRACT: note_on channel=0 note=63 velocity=80 time=0.0010416666666666667
EXTRACT: note_on channel=6 note=46 velocity=80 time=0
EXTRACT: note_on channel=0 note=63 velocity=0 time=0.24895833333333334
EXTRACT: note_on channel=0 note=63 velocity=80 time=0.0010416666666666667
EXTRACT: note_on channel=0 note=63 velocity=0 time=0.24895833333333334
EXTRACT: note_on channel=1 note=70 velocity=0 time=0
EXTRACT: note_on channel=2 note=68 velocity=0 time=0
EXTRACT: note_on channel=3 note=65 velocity=0 time=0
EXTRACT: note_on channel=4 note=63 velocity=0 time=0
EXTRACT: note_on channel=5 note=58 velocity=0 time=0
EXTRACT: note_on channel=6 note=46 velocity=0 time=0
EXTRACT: note_on channel=0 note=67 velocity=80 time=0.0010416666666666667
EXTRACT: note_on channel=1 note=72 velocity=88 time=0
EXTRACT: note_on channel=2 note=70 velocity=75 time=0
EXTRACT: note_on channel=3 note=67 velocity=75 time=0
EXTRACT: note_on channel=4 note=65 velocity=75 time=0
EXTRACT: note_on channel=5 note=58 velocity=75 time=0
EXTRACT: note_on channel=6 note=46 velocity=80 time=0
EXTRACT: note_on channel=0 note=67 velocity=0 time=0.49895833333333334
EXTRACT: note_on channel=1 note=72 velocity=0 time=0
EXTRACT: note_on channel=2 note=70 velocity=0 time=0
EXTRACT: note_on channel=3 note=67 velocity=0 time=0
EXTRACT: note_on channel=4 note=65 velocity=0 time=0
EXTRACT: note_on channel=5 note=58 velocity=0 time=0
EXTRACT: note_on channel=6 note=46 velocity=0 time=0
EXTRACT: note_on channel=0 note=67 velocity=80 time=0.0010416666666666667
EXTRACT: note_on channel=1 note=72 velocity=88 time=0
EXTRACT: note_on channel=2 note=70 velocity=75 time=0
EXTRACT: note_on channel=3 note=67 velocity=75 time=0
EXTRACT: note_on channel=4 note=65 velocity=75 time=0
EXTRACT: note_on channel=5 note=58 velocity=75 time=0
EXTRACT: note_on channel=6 note=46 velocity=80 time=0
EXTRACT: note_on channel=0 note=67 velocity=0 time=0.49895833333333334
EXTRACT: note_on channel=1 note=72 velocity=0 time=0
EXTRACT: note_on channel=2 note=70 velocity=0 time=0
EXTRACT: note_on channel=3 note=67 velocity=0 time=0
EXTRACT: note_on channel=4 note=65 velocity=0 time=0
EXTRACT: note_on channel=5 note=58 velocity=0 time=0
EXTRACT: note_on channel=6 note=46 velocity=0 time=0
EXTRACT: note_on channel=0 note=65 velocity=80 time=0.0010416666666666667
EXTRACT: note_on channel=1 note=72 velocity=88 time=0
EXTRACT: note_on channel=2 note=70 velocity=75 time=0
EXTRACT: note_on channel=3 note=67 velocity=75 time=0
EXTRACT: note_on channel=4 note=65 velocity=75 time=0
EXTRACT: note_on channel=5 note=58 velocity=75 time=0
EXTRACT: note_on channel=6 note=48 velocity=80 time=0
EXTRACT: note_on channel=3 note=67 velocity=0 time=0.24895833333333334
EXTRACT: note_on channel=6 note=48 velocity=0 time=0
EXTRACT: note_on channel=3 note=65 velocity=75 time=0.0010416666666666667
EXTRACT: note_on channel=6 note=46 velocity=80 time=0
EXTRACT: note_on channel=0 note=65 velocity=0 time=0.24895833333333334
EXTRACT: note_on channel=1 note=72 velocity=0 time=0
EXTRACT: note_on channel=2 note=70 velocity=0 time=0
EXTRACT: note_on channel=3 note=65 velocity=0 time=0
EXTRACT: note_on channel=4 note=65 velocity=0 time=0
EXTRACT: note_on channel=5 note=58 velocity=0 time=0
EXTRACT: note_on channel=6 note=46 velocity=0 time=0
EXTRACT: note_on channel=0 note=63 velocity=80 time=0.0010416666666666667
EXTRACT: note_on channel=1 note=70 velocity=88 time=0
EXTRACT: note_on channel=2 note=70 velocity=75 time=0
EXTRACT: note_on channel=3 note=63 velocity=75 time=0
EXTRACT: note_on channel=4 note=63 velocity=75 time=0
EXTRACT: note_on channel=5 note=58 velocity=75 time=0
EXTRACT: note_on channel=6 note=46 velocity=80 time=0
EXTRACT: note_on channel=0 note=63 velocity=0 time=0.24895833333333334
EXTRACT: note_on channel=1 note=70 velocity=0 time=0
EXTRACT: note_on channel=2 note=70 velocity=0 time=0
EXTRACT: note_on channel=3 note=63 velocity=0 time=0
EXTRACT: note_on channel=0 note=63 velocity=80 time=0.0010416666666666667
EXTRACT: note_on channel=1 note=75 velocity=88 time=0
EXTRACT: note_on channel=2 note=70 velocity=75 time=0
EXTRACT: note_on channel=3 note=63 velocity=75 time=0
EXTRACT: note_on channel=1 note=75 velocity=0 time=0.24895833333333334
EXTRACT: note_on channel=2 note=70 velocity=0 time=0
EXTRACT: note_on channel=3 note=63 velocity=0 time=0
EXTRACT: note_on channel=4 note=63 velocity=0 time=0
EXTRACT: note_on channel=5 note=58 velocity=0 time=0
EXTRACT: note_on channel=6 note=46 velocity=0 time=0
EXTRACT: note_on channel=4 note=63 velocity=75 time=0.0010416666666666667
EXTRACT: note_on channel=5 note=55 velocity=75 time=0
EXTRACT: note_on channel=6 note=51 velocity=80 time=0
EXTRACT: note_on channel=0 note=63 velocity=0 time=0.24895833333333334
EXTRACT: note_on channel=4 note=63 velocity=0 time=0
EXTRACT: note_on channel=5 note=55 velocity=0 time=0
EXTRACT: note_on channel=6 note=51 velocity=0 time=0
EXTRACT: note_on channel=1 note=67 velocity=88 time=0.25104166666666666
EXTRACT: note_on channel=2 note=63 velocity=75 time=0
EXTRACT: note_on channel=3 note=58 velocity=75 time=0
EXTRACT: note_on channel=1 note=67 velocity=0 time=0.24895833333333334
EXTRACT: note_on channel=2 note=63 velocity=0 time=0
EXTRACT: note_on channel=3 note=58 velocity=0 time=0
EXTRACT: note_on channel=1 note=67 velocity=88 time=0.0010416666666666667
EXTRACT: note_on channel=2 note=63 velocity=75 time=0
EXTRACT: note_on channel=3 note=58 velocity=75 time=0
EXTRACT: note_on channel=4 note=63 velocity=75 time=0
EXTRACT: note_on channel=5 note=55 velocity=75 time=0
EXTRACT: note_on channel=6 note=51 velocity=80 time=0
EXTRACT: note_on channel=1 note=67 velocity=0 time=0.24895833333333334
EXTRACT: note_on channel=2 note=63 velocity=0 time=0
EXTRACT: note_on channel=3 note=58 velocity=0 time=0
EXTRACT: note_on channel=4 note=63 velocity=0 time=0
EXTRACT: note_on channel=5 note=55 velocity=0 time=0
EXTRACT: note_on channel=6 note=51 velocity=0 time=0
EXTRACT: note_on channel=1 note=68 velocity=88 time=0.0010416666666666667
EXTRACT: note_on channel=2 note=65 velocity=75 time=0
EXTRACT: note_on channel=3 note=60 velocity=75 time=0
EXTRACT: note_on channel=4 note=58 velocity=75 time=0
EXTRACT: note_on channel=5 note=50 velocity=75 time=0
EXTRACT: note_on channel=6 note=43 velocity=80 time=0
EXTRACT: note_on channel=1 note=68 velocity=0 time=0.24895833333333334
EXTRACT: note_on channel=2 note=65 velocity=0 time=0
EXTRACT: note_on channel=3 note=60 velocity=0 time=0
EXTRACT: note_on channel=4 note=58 velocity=0 time=0
EXTRACT: note_on channel=5 note=50 velocity=0 time=0
EXTRACT: note_on channel=6 note=43 velocity=0 time=0
EXTRACT: note_on channel=1 note=70 velocity=88 time=0.0010416666666666667
EXTRACT: note_on channel=2 note=67 velocity=75 time=0
EXTRACT: note_on channel=3 note=63 velocity=75 time=0
EXTRACT: note_on channel=1 note=70 velocity=0 time=0.24895833333333334
EXTRACT: note_on channel=2 note=67 velocity=0 time=0
EXTRACT: note_on channel=3 note=63 velocity=0 time=0
EXTRACT: note_on channel=1 note=67 velocity=75 time=0.25104166666666666
EXTRACT: note_on channel=2 note=63 velocity=88 time=0
EXTRACT: note_on channel=3 note=60 velocity=75 time=0
EXTRACT: note_on channel=4 note=60 velocity=75 time=0
EXTRACT: note_on channel=5 note=51 velocity=75 time=0
EXTRACT: note_on channel=6 note=44 velocity=80 time=0
EXTRACT: note_on channel=4 note=60 velocity=0 time=0.24895833333333334
EXTRACT: note_on channel=5 note=51 velocity=0 time=0
EXTRACT: note_on channel=6 note=44 velocity=0 time=0
EXTRACT: note_on channel=1 note=67 velocity=0 time=0.25
EXTRACT: note_on channel=2 note=63 velocity=0 time=0
EXTRACT: note_on channel=3 note=60 velocity=0 time=0
EXTRACT: note_on channel=1 note=70 velocity=75 time=0.0010416666666666667
EXTRACT: note_on channel=2 note=67 velocity=88 time=0
EXTRACT: note_on channel=3 note=63 velocity=75 time=0
EXTRACT: note_on channel=4 note=60 velocity=75 time=0
EXTRACT: note_on channel=5 note=51 velocity=75 time=0
EXTRACT: note_on channel=6 note=44 velocity=80 time=0
EXTRACT: note_on channel=1 note=70 velocity=0 time=0.24895833333333334
EXTRACT: note_on channel=2 note=67 velocity=0 time=0
EXTRACT: note_on channel=3 note=63 velocity=0 time=0
EXTRACT: note_on channel=4 note=60 velocity=0 time=0
EXTRACT: note_on channel=5 note=51 velocity=0 time=0
EXTRACT: note_on channel=6 note=44 velocity=0 time=0
EXTRACT: note_on channel=1 note=70 velocity=75 time=0.0010416666666666667
EXTRACT: note_on channel=2 note=67 velocity=88 time=0
EXTRACT: note_on channel=3 note=63 velocity=75 time=0
EXTRACT: note_on channel=1 note=70 velocity=0 time=0.24895833333333334
EXTRACT: note_on channel=2 note=67 velocity=0 time=0
EXTRACT: note_on channel=3 note=63 velocity=0 time=0
EXTRACT: note_on channel=1 note=67 velocity=75 time=0.0010416666666666667
EXTRACT: note_on channel=2 note=63 velocity=88 time=0
EXTRACT: note_on channel=3 note=60 velocity=75 time=0
EXTRACT: note_on channel=4 note=60 velocity=75 time=0
EXTRACT: note_on channel=5 note=51 velocity=75 time=0
EXTRACT: note_on channel=6 note=44 velocity=80 time=0
EXTRACT: note_on channel=1 note=67 velocity=0 time=0.24895833333333334
EXTRACT: note_on channel=2 note=63 velocity=0 time=0
EXTRACT: note_on channel=3 note=60 velocity=0 time=0
EXTRACT: note_on channel=4 note=60 velocity=0 time=0
EXTRACT: note_on channel=5 note=51 velocity=0 time=0
EXTRACT: note_on channel=6 note=44 velocity=0 time=0
EXTRACT: note_on channel=1 note=70 velocity=75 time=0.0010416666666666667
EXTRACT: note_on channel=2 note=67 velocity=88 time=0
EXTRACT: note_on channel=3 note=62 velocity=75 time=0
EXTRACT: note_on channel=4 note=62 velocity=75 time=0
EXTRACT: note_on channel=5 note=53 velocity=75 time=0
EXTRACT: note_on channel=6 note=46 velocity=80 time=0
EXTRACT: note_on channel=1 note=70 velocity=0 time=0.49895833333333334
EXTRACT: note_on channel=2 note=67 velocity=0 time=0
EXTRACT: note_on channel=3 note=62 velocity=0 time=0
EXTRACT: note_on channel=4 note=62 velocity=0 time=0
EXTRACT: note_on channel=5 note=53 velocity=0 time=0
EXTRACT: note_on channel=6 note=46 velocity=0 time=0
EXTRACT: note_on channel=1 note=68 velocity=75 time=0.0010416666666666667
EXTRACT: note_on channel=2 note=65 velocity=88 time=0
EXTRACT: note_on channel=3 note=60 velocity=75 time=0
EXTRACT: note_on channel=4 note=62 velocity=75 time=0
EXTRACT: note_on channel=5 note=53 velocity=75 time=0
EXTRACT: note_on channel=6 note=46 velocity=80 time=0
EXTRACT: note_on channel=1 note=68 velocity=0 time=0.24895833333333334
EXTRACT: note_on channel=2 note=65 velocity=0 time=0
EXTRACT: note_on channel=3 note=60 velocity=0 time=0
EXTRACT: note_on channel=1 note=67 velocity=75 time=0.0010416666666666667
EXTRACT: note_on channel=2 note=63 velocity=88 time=0
EXTRACT: note_on channel=3 note=58 velocity=75 time=0
EXTRACT: note_on channel=1 note=67 velocity=0 time=0.24895833333333334
EXTRACT: note_on channel=2 note=63 velocity=0 time=0
EXTRACT: note_on channel=3 note=58 velocity=0 time=0
EXTRACT: note_on channel=4 note=62 velocity=0 time=0
EXTRACT: note_on channel=5 note=53 velocity=0 time=0
EXTRACT: note_on channel=6 note=46 velocity=0 time=0
EXTRACT: note_on channel=4 note=63 velocity=75 time=0.0010416666666666667
EXTRACT: note_on channel=5 note=55 velocity=75 time=0
EXTRACT: note_on channel=6 note=51 velocity=80 time=0
EXTRACT: note_on channel=4 note=63 velocity=0 time=0.24895833333333334
EXTRACT: note_on channel=5 note=55 velocity=0 time=0
EXTRACT: note_on channel=6 note=51 velocity=0 time=0
EXTRACT: note_on channel=1 note=67 velocity=88 time=0.25104166666666666
EXTRACT: note_on channel=2 note=63 velocity=75 time=0
EXTRACT: note_on channel=3 note=58 velocity=75 time=0
EXTRACT: note_on channel=1 note=67 velocity=0 time=0.24895833333333334
EXTRACT: note_on channel=2 note=63 velocity=0 time=0
EXTRACT: note_on channel=3 note=58 velocity=0 time=0
EXTRACT: note_on channel=1 note=67 velocity=88 time=0.0010416666666666667
EXTRACT: note_on channel=2 note=63 velocity=75 time=0
EXTRACT: note_on channel=3 note=58 velocity=75 time=0
EXTRACT: note_on channel=4 note=63 velocity=75 time=0
EXTRACT: note_on channel=5 note=55 velocity=75 time=0
EXTRACT: note_on channel=6 note=51 velocity=80 time=0
EXTRACT: note_on channel=1 note=67 velocity=0 time=0.24895833333333334
EXTRACT: note_on channel=2 note=63 velocity=0 time=0
EXTRACT: note_on channel=3 note=58 velocity=0 time=0
EXTRACT: note_on channel=4 note=63 velocity=0 time=0
EXTRACT: note_on channel=5 note=55 velocity=0 time=0
EXTRACT: note_on channel=6 note=51 velocity=0 time=0
EXTRACT: note_on channel=1 note=68 velocity=88 time=0.0010416666666666667
EXTRACT: note_on channel=2 note=65 velocity=75 time=0
EXTRACT: note_on channel=3 note=60 velocity=75 time=0
EXTRACT: note_on channel=4 note=58 velocity=75 time=0
EXTRACT: note_on channel=5 note=50 velocity=75 time=0
EXTRACT: note_on channel=6 note=43 velocity=80 time=0
EXTRACT: note_on channel=1 note=68 velocity=0 time=0.24895833333333334
EXTRACT: note_on channel=2 note=65 velocity=0 time=0
EXTRACT: note_on channel=3 note=60 velocity=0 time=0
EXTRACT: note_on channel=4 note=58 velocity=0 time=0
EXTRACT: note_on channel=5 note=50 velocity=0 time=0
EXTRACT: note_on channel=6 note=43 velocity=0 time=0
EXTRACT: note_on channel=1 note=70 velocity=88 time=0.0010416666666666667
EXTRACT: note_on channel=2 note=67 velocity=75 time=0
EXTRACT: note_on channel=3 note=63 velocity=75 time=0
EXTRACT: note_on channel=1 note=70 velocity=0 time=0.24895833333333334
EXTRACT: note_on channel=2 note=67 velocity=0 time=0
EXTRACT: note_on channel=3 note=63 velocity=0 time=0
EXTRACT: note_on channel=1 note=67 velocity=75 time=0.25104166666666666
EXTRACT: note_on channel=2 note=63 velocity=88 time=0
EXTRACT: note_on channel=3 note=60 velocity=75 time=0
EXTRACT: note_on channel=1 note=67 velocity=0 time=0.49895833333333334
EXTRACT: note_on channel=2 note=63 velocity=0 time=0
EXTRACT: note_on channel=3 note=60 velocity=0 time=0
EXTRACT: note_on channel=1 note=70 velocity=75 time=0.0010416666666666667
EXTRACT: note_on channel=2 note=67 velocity=88 time=0
EXTRACT: note_on channel=3 note=63 velocity=75 time=0
EXTRACT: note_on channel=1 note=70 velocity=0 time=0.24895833333333334
EXTRACT: note_on channel=2 note=67 velocity=0 time=0
EXTRACT: note_on channel=3 note=63 velocity=0 time=0
EXTRACT: note_on channel=1 note=70 velocity=75 time=0.0010416666666666667
EXTRACT: note_on channel=2 note=67 velocity=88 time=0
EXTRACT: note_on channel=3 note=63 velocity=75 time=0
EXTRACT: note_on channel=1 note=70 velocity=0 time=0.24895833333333334
EXTRACT: note_on channel=2 note=67 velocity=0 time=0
EXTRACT: note_on channel=3 note=63 velocity=0 time=0
EXTRACT: note_on channel=1 note=67 velocity=75 time=0.0010416666666666667
EXTRACT: note_on channel=2 note=63 velocity=88 time=0
EXTRACT: note_on channel=3 note=60 velocity=75 time=0
EXTRACT: note_on channel=1 note=67 velocity=0 time=0.24895833333333334
EXTRACT: note_on channel=2 note=63 velocity=0 time=0
EXTRACT: note_on channel=3 note=60 velocity=0 time=0
EXTRACT: note_on channel=1 note=70 velocity=75 time=0.0010416666666666667
EXTRACT: note_on channel=2 note=67 velocity=88 time=0
EXTRACT: note_on channel=3 note=62 velocity=75 time=0
EXTRACT: note_on channel=1 note=70 velocity=0 time=0.49895833333333334
EXTRACT: note_on channel=2 note=67 velocity=0 time=0
EXTRACT: note_on channel=3 note=62 velocity=0 time=0
EXTRACT: note_on channel=1 note=68 velocity=75 time=0.0010416666666666667
EXTRACT: note_on channel=2 note=65 velocity=88 time=0
EXTRACT: note_on channel=3 note=60 velocity=75 time=0
EXTRACT: note_on channel=1 note=68 velocity=0 time=0.24895833333333334
EXTRACT: note_on channel=2 note=65 velocity=0 time=0
EXTRACT: note_on channel=3 note=60 velocity=0 time=0
EXTRACT: note_on channel=0 note=58 velocity=80 time=0.0010416666666666667
EXTRACT: note_on channel=1 note=67 velocity=75 time=0
EXTRACT: note_on channel=2 note=63 velocity=88 time=0
EXTRACT: note_on channel=3 note=58 velocity=75 time=0
EXTRACT: note_on channel=0 note=58 velocity=0 time=0.24895833333333334
EXTRACT: note_on channel=1 note=67 velocity=0 time=0
EXTRACT: note_on channel=2 note=63 velocity=0 time=0
EXTRACT: note_on channel=3 note=58 velocity=0 time=0
EXTRACT: note_on channel=0 note=70 velocity=80 time=0.0010416666666666667
EXTRACT: note_on channel=1 note=70 velocity=75 time=0
EXTRACT: note_on channel=2 note=67 velocity=75 time=0
EXTRACT: note_on channel=3 note=62 velocity=75 time=0
EXTRACT: note_on channel=4 note=58 velocity=75 time=0
EXTRACT: note_on channel=5 note=51 velocity=75 time=0
EXTRACT: note_on channel=6 note=51 velocity=80 time=0
EXTRACT: note_on channel=6 note=51 velocity=0 time=0.24895833333333334
EXTRACT: note_on channel=0 note=70 velocity=0 time=0.25
EXTRACT: note_on channel=1 note=70 velocity=0 time=0
EXTRACT: note_on channel=2 note=67 velocity=0 time=0
EXTRACT: note_on channel=3 note=62 velocity=0 time=0
EXTRACT: note_on channel=4 note=58 velocity=0 time=0
EXTRACT: note_on channel=5 note=51 velocity=0 time=0
EXTRACT: note_on channel=0 note=67 velocity=80 time=0.0010416666666666667
EXTRACT: note_on channel=6 note=51 velocity=80 time=0.25
EXTRACT: note_on channel=0 note=67 velocity=0 time=0.24895833333333334
EXTRACT: note_on channel=6 note=51 velocity=0 time=0
EXTRACT: note_on channel=0 note=65 velocity=80 time=0.0010416666666666667
EXTRACT: note_on channel=6 note=43 velocity=80 time=0
EXTRACT: note_on channel=0 note=65 velocity=0 time=0.24895833333333334
EXTRACT: note_on channel=6 note=43 velocity=0 time=0
EXTRACT: note_on channel=0 note=63 velocity=80 time=0.0010416666666666667
EXTRACT: note_on channel=0 note=63 velocity=0 time=0.24895833333333334
EXTRACT: note_on channel=0 note=65 velocity=80 time=0.0010416666666666667
EXTRACT: note_on channel=6 note=44 velocity=80 time=0.25
EXTRACT: note_on channel=0 note=65 velocity=0 time=0.24895833333333334
EXTRACT: note_on channel=6 note=44 velocity=0 time=0
EXTRACT: note_on channel=0 note=60 velocity=80 time=0.0010416666666666667
EXTRACT: note_on channel=1 note=67 velocity=49 time=0
EXTRACT: note_on channel=2 note=63 velocity=49 time=0
EXTRACT: note_on channel=3 note=60 velocity=49 time=0
EXTRACT: note_on channel=4 note=56 velocity=49 time=0
EXTRACT: note_on channel=5 note=51 velocity=49 time=0
EXTRACT: note_on channel=0 note=60 velocity=0 time=0.24895833333333334
EXTRACT: note_on channel=0 note=63 velocity=80 time=0.0010416666666666667
EXTRACT: note_on channel=6 note=44 velocity=80 time=0
EXTRACT: note_on channel=0 note=63 velocity=0 time=0.24895833333333334
EXTRACT: note_on channel=1 note=67 velocity=0 time=0
EXTRACT: note_on channel=2 note=63 velocity=0 time=0
EXTRACT: note_on channel=3 note=60 velocity=0 time=0
EXTRACT: note_on channel=4 note=56 velocity=0 time=0
EXTRACT: note_on channel=5 note=51 velocity=0 time=0
EXTRACT: note_on channel=6 note=44 velocity=0 time=0
EXTRACT: note_on channel=0 note=63 velocity=80 time=0.0010416666666666667
EXTRACT: note_on channel=0 note=63 velocity=0 time=0.24895833333333334
EXTRACT: note_on channel=0 note=60 velocity=80 time=0.0010416666666666667
EXTRACT: note_on channel=6 note=44 velocity=80 time=0
EXTRACT: note_on channel=0 note=60 velocity=0 time=0.24895833333333334
EXTRACT: note_on channel=6 note=44 velocity=0 time=0
EXTRACT: note_on channel=0 note=65 velocity=80 time=0.0010416666666666667
EXTRACT: note_on channel=6 note=46 velocity=80 time=0
EXTRACT: note_on channel=0 note=65 velocity=0 time=0.49895833333333334
EXTRACT: note_on channel=6 note=46 velocity=0 time=0
EXTRACT: note_on channel=0 note=60 velocity=80 time=0.0010416666666666667
EXTRACT: note_on channel=6 note=46 velocity=80 time=0
EXTRACT: note_on channel=0 note=60 velocity=0 time=0.24895833333333334
EXTRACT: note_on channel=0 note=60 velocity=80 time=0.0010416666666666667
EXTRACT: note_on channel=0 note=60 velocity=0 time=0.24895833333333334
EXTRACT: note_on channel=6 note=46 velocity=0 time=0
EXTRACT: note_on channel=0 note=58 velocity=80 time=0.0010416666666666667
EXTRACT: note_on channel=1 note=70 velocity=49 time=0
EXTRACT: note_on channel=2 note=67 velocity=49 time=0
EXTRACT: note_on channel=3 note=62 velocity=49 time=0
EXTRACT: note_on channel=4 note=55 velocity=49 time=0
EXTRACT: note_on channel=5 note=51 velocity=49 time=0
EXTRACT: note_on channel=6 note=51 velocity=80 time=0
EXTRACT: note_on channel=6 note=51 velocity=0 time=0.24895833333333334
EXTRACT: note_on channel=0 note=58 velocity=0 time=0.25
EXTRACT: note_on channel=1 note=70 velocity=0 time=0
EXTRACT: note_on channel=2 note=67 velocity=0 time=0
EXTRACT: note_on channel=3 note=62 velocity=0 time=0
EXTRACT: note_on channel=4 note=55 velocity=0 time=0
EXTRACT: note_on channel=5 note=51 velocity=0 time=0
EXTRACT: note_on channel=1 note=70 velocity=49 time=0.25104166666666666
EXTRACT: note_on channel=2 note=67 velocity=49 time=0
EXTRACT: note_on channel=3 note=63 velocity=49 time=0
EXTRACT: note_on channel=4 note=55 velocity=49 time=0
EXTRACT: note_on channel=5 note=51 velocity=49 time=0
EXTRACT: note_on channel=6 note=51 velocity=80 time=0
EXTRACT: note_on channel=1 note=70 velocity=0 time=0.24895833333333334
EXTRACT: note_on channel=2 note=67 velocity=0 time=0
EXTRACT: note_on channel=3 note=63 velocity=0 time=0
EXTRACT: note_on channel=4 note=55 velocity=0 time=0
EXTRACT: note_on channel=5 note=51 velocity=0 time=0
EXTRACT: note_on channel=6 note=51 velocity=0 time=0
EXTRACT: note_on channel=6 note=43 velocity=80 time=0.0010416666666666667
EXTRACT: note_on channel=6 note=43 velocity=0 time=0.24895833333333334
EXTRACT: note_on channel=4 note=58 velocity=75 time=0.5010416666666666
EXTRACT: note_on channel=5 note=55 velocity=75 time=0
EXTRACT: note_on channel=4 note=58 velocity=0 time=0.24895833333333334
EXTRACT: note_on channel=5 note=55 velocity=0 time=0
EXTRACT: note_on channel=4 note=60 velocity=75 time=0.0010416666666666667
EXTRACT: note_on channel=5 note=56 velocity=75 time=0
EXTRACT: note_on channel=4 note=60 velocity=0 time=0.24895833333333334
EXTRACT: note_on channel=5 note=56 velocity=0 time=0
EXTRACT: note_on channel=4 note=60 velocity=75 time=0.0010416666666666667
EXTRACT: note_on channel=4 note=63 velocity=75 time=0
EXTRACT: note_on channel=5 note=56 velocity=75 time=0
EXTRACT: note_on channel=4 note=60 velocity=0 time=0.12395833333333334
EXTRACT: note_on channel=4 note=63 velocity=0 time=0
EXTRACT: note_on channel=5 note=56 velocity=0 time=0
EXTRACT: note_on channel=4 note=60 velocity=75 time=0.0010416666666666667
EXTRACT: note_on channel=4 note=63 velocity=75 time=0
EXTRACT: note_on channel=5 note=56 velocity=75 time=0
EXTRACT: note_on channel=4 note=60 velocity=0 time=0.12395833333333334
EXTRACT: note_on channel=1 note=72 velocity=75 time=0.0010416666666666667
EXTRACT: note_on channel=2 note=68 velocity=75 time=0
EXTRACT: note_on channel=3 note=63 velocity=75 time=0
EXTRACT: note_on channel=4 note=60 velocity=75 time=0
EXTRACT: note_on channel=4 note=63 velocity=0 time=0.12395833333333334
EXTRACT: note_on channel=4 note=60 velocity=0 time=0
EXTRACT: note_on channel=5 note=56 velocity=0 time=0
EXTRACT: note_on channel=4 note=60 velocity=75 time=0.0010416666666666667
EXTRACT: note_on channel=5 note=56 velocity=75 time=0
EXTRACT: note_on channel=4 note=60 velocity=0 time=0.12395833333333334
EXTRACT: note_on channel=5 note=56 velocity=0 time=0
EXTRACT: note_on channel=4 note=62 velocity=75 time=0.0010416666666666667
EXTRACT: note_on channel=4 note=65 velocity=75 time=0
EXTRACT: note_on channel=5 note=58 velocity=75 time=0
EXTRACT: note_on channel=1 note=72 velocity=0 time=0.24895833333333334
EXTRACT: note_on channel=2 note=68 velocity=0 time=0
EXTRACT: note_on channel=3 note=63 velocity=0 time=0
EXTRACT: note_on channel=1 note=70 velocity=75 time=0.0010416666666666667
EXTRACT: note_on channel=2 note=67 velocity=75 time=0
EXTRACT: note_on channel=3 note=62 velocity=75 time=0
EXTRACT: note_on channel=1 note=70 velocity=0 time=0.49895833333333334
EXTRACT: note_on channel=2 note=67 velocity=0 time=0
EXTRACT: note_on channel=3 note=62 velocity=0 time=0
EXTRACT: note_on channel=4 note=62 velocity=0 time=0
EXTRACT: note_on channel=4 note=65 velocity=0 time=0
EXTRACT: note_on channel=5 note=58 velocity=0 time=0
EXTRACT: note_on channel=1 note=68 velocity=75 time=0.0010416666666666667
EXTRACT: note_on channel=2 note=65 velocity=75 time=0
EXTRACT: note_on channel=3 note=60 velocity=75 time=0
EXTRACT: note_on channel=0 note=58 velocity=80 time=0.25
EXTRACT: note_on channel=0 note=58 velocity=0 time=0.24895833333333334
EXTRACT: note_on channel=1 note=68 velocity=0 time=0
EXTRACT: note_on channel=2 note=65 velocity=0 time=0
EXTRACT: note_on channel=3 note=60 velocity=0 time=0
EXTRACT: note_on channel=0 note=70 velocity=80 time=0.0010416666666666667
EXTRACT: note_on channel=1 note=70 velocity=75 time=0
EXTRACT: note_on channel=2 note=67 velocity=75 time=0
EXTRACT: note_on channel=3 note=62 velocity=75 time=0
EXTRACT: note_on channel=4 note=58 velocity=75 time=0
EXTRACT: note_on channel=5 note=51 velocity=75 time=0
EXTRACT: note_on channel=6 note=51 velocity=80 time=0
EXTRACT: note_on channel=6 note=51 velocity=0 time=0.24895833333333334
EXTRACT: note_on channel=0 note=70 velocity=0 time=0.25
EXTRACT: note_on channel=1 note=70 velocity=0 time=0
EXTRACT: note_on channel=2 note=67 velocity=0 time=0
EXTRACT: note_on channel=3 note=62 velocity=0 time=0
EXTRACT: note_on channel=4 note=58 velocity=0 time=0
EXTRACT: note_on channel=5 note=51 velocity=0 time=0
EXTRACT: note_on channel=0 note=70 velocity=80 time=0.0010416666666666667
EXTRACT: note_on channel=0 note=70 velocity=0 time=0.12395833333333334
EXTRACT: note_on channel=0 note=72 velocity=80 time=0.0010416666666666667
EXTRACT: note_on channel=0 note=72 velocity=0 time=0.12395833333333334
EXTRACT: note_on channel=0 note=70 velocity=80 time=0.0010416666666666667
EXTRACT: note_on channel=6 note=51 velocity=80 time=0
EXTRACT: note_on channel=0 note=70 velocity=0 time=0.12395833333333334
EXTRACT: note_on channel=0 note=67 velocity=80 time=0.0010416666666666667
EXTRACT: note_on channel=0 note=67 velocity=0 time=0.12395833333333334
EXTRACT: note_on channel=6 note=51 velocity=0 time=0
EXTRACT: note_on channel=0 note=65 velocity=80 time=0.0010416666666666667
EXTRACT: note_on channel=6 note=43 velocity=80 time=0
EXTRACT: note_on channel=0 note=65 velocity=0 time=0.24895833333333334
EXTRACT: note_on channel=6 note=43 velocity=0 time=0
EXTRACT: note_on channel=0 note=63 velocity=80 time=0.0010416666666666667
EXTRACT: note_on channel=0 note=63 velocity=0 time=0.24895833333333334
EXTRACT: note_on channel=0 note=65 velocity=80 time=0.0010416666666666667
EXTRACT: note_on channel=6 note=44 velocity=80 time=0.25
EXTRACT: note_on channel=0 note=65 velocity=0 time=0.24895833333333334
EXTRACT: note_on channel=6 note=44 velocity=0 time=0
EXTRACT: note_on channel=0 note=60 velocity=80 time=0.0010416666666666667
EXTRACT: note_on channel=1 note=67 velocity=49 time=0
EXTRACT: note_on channel=2 note=63 velocity=49 time=0
EXTRACT: note_on channel=3 note=60 velocity=49 time=0
EXTRACT: note_on channel=4 note=56 velocity=49 time=0
EXTRACT: note_on channel=5 note=51 velocity=49 time=0
EXTRACT: note_on channel=0 note=60 velocity=0 time=0.24895833333333334
EXTRACT: note_on channel=0 note=63 velocity=80 time=0.0010416666666666667
EXTRACT: note_on channel=6 note=44 velocity=80 time=0
EXTRACT: note_on channel=0 note=63 velocity=0 time=0.24895833333333334
EXTRACT: note_on channel=1 note=67 velocity=0 time=0
EXTRACT: note_on channel=2 note=63 velocity=0 time=0
EXTRACT: note_on channel=3 note=60 velocity=0 time=0
EXTRACT: note_on channel=4 note=56 velocity=0 time=0
EXTRACT: note_on channel=5 note=51 velocity=0 time=0
EXTRACT: note_on channel=6 note=44 velocity=0 time=0
EXTRACT: note_on channel=0 note=63 velocity=80 time=0.0010416666666666667
EXTRACT: note_on channel=0 note=63 velocity=0 time=0.24895833333333334
EXTRACT: note_on channel=0 note=60 velocity=80 time=0.0010416666666666667
EXTRACT: note_on channel=6 note=44 velocity=80 time=0
EXTRACT: note_on channel=0 note=60 velocity=0 time=0.24895833333333334
EXTRACT: note_on channel=6 note=44 velocity=0 time=0
EXTRACT: note_on channel=6 note=46 velocity=80 time=0.0010416666666666667
EXTRACT: note_on channel=0 note=65 velocity=80 time=0.25
EXTRACT: note_on channel=0 note=65 velocity=0 time=0.24895833333333334
EXTRACT: note_on channel=6 note=46 velocity=0 time=0
EXTRACT: note_on channel=0 note=60 velocity=80 time=0.0010416666666666667
EXTRACT: note_on channel=6 note=46 velocity=80 time=0
EXTRACT: note_on channel=0 note=60 velocity=0 time=0.24895833333333334
EXTRACT: note_on channel=0 note=58 velocity=80 time=0.0010416666666666667
EXTRACT: note_on channel=0 note=58 velocity=0 time=0.12395833333333334
EXTRACT: note_on channel=0 note=60 velocity=80 time=0.0010416666666666667
EXTRACT: note_on channel=0 note=60 velocity=0 time=0.12395833333333334
EXTRACT: note_on channel=6 note=46 velocity=0 time=0
EXTRACT: note_on channel=0 note=58 velocity=80 time=0.0010416666666666667
EXTRACT: note_on channel=1 note=70 velocity=75 time=0
EXTRACT: note_on channel=2 note=67 velocity=75 time=0
EXTRACT: note_on channel=3 note=62 velocity=75 time=0
EXTRACT: note_on channel=4 note=55 velocity=75 time=0
EXTRACT: note_on channel=5 note=51 velocity=75 time=0
EXTRACT: note_on channel=6 note=51 velocity=80 time=0
EXTRACT: note_on channel=0 note=58 velocity=0 time=0.12395833333333334
EXTRACT: note_on channel=0 note=55 velocity=80 time=0.0010416666666666667
EXTRACT: note_on channel=0 note=55 velocity=0 time=0.12395833333333334
EXTRACT: note_on channel=6 note=51 velocity=0 time=0
EXTRACT: note_on channel=0 note=58 velocity=80 time=0.0010416666666666667
EXTRACT: note_on channel=0 note=58 velocity=0 time=0.12395833333333334
EXTRACT: note_on channel=0 note=60 velocity=80 time=0.0010416666666666667
EXTRACT: note_on channel=0 note=60 velocity=0 time=0.12395833333333334
EXTRACT: note_on channel=1 note=70 velocity=0 time=0
EXTRACT: note_on channel=2 note=67 velocity=0 time=0
EXTRACT: note_on channel=3 note=62 velocity=0 time=0
EXTRACT: note_on channel=4 note=55 velocity=0 time=0
EXTRACT: note_on channel=5 note=51 velocity=0 time=0
EXTRACT: note_on channel=0 note=58 velocity=80 time=0.0010416666666666667
EXTRACT: note_on channel=0 note=58 velocity=0 time=0.12395833333333334
EXTRACT: note_on channel=0 note=60 velocity=80 time=0.0010416666666666667
EXTRACT: note_on channel=0 note=60 velocity=0 time=0.12395833333333334
EXTRACT: note_on channel=0 note=58 velocity=80 time=0.0010416666666666667
EXTRACT: note_on channel=1 note=70 velocity=75 time=0
EXTRACT: note_on channel=2 note=67 velocity=75 time=0
EXTRACT: note_on channel=3 note=63 velocity=75 time=0
EXTRACT: note_on channel=4 note=55 velocity=75 time=0
EXTRACT: note_on channel=5 note=51 velocity=75 time=0
EXTRACT: note_on channel=6 note=51 velocity=80 time=0
EXTRACT: note_on channel=0 note=58 velocity=0 time=0.12395833333333334
EXTRACT: note_on channel=0 note=55 velocity=80 time=0.0010416666666666667
EXTRACT: note_on channel=0 note=55 velocity=0 time=0.12395833333333334
EXTRACT: note_on channel=1 note=70 velocity=0 time=0
EXTRACT: note_on channel=2 note=67 velocity=0 time=0
EXTRACT: note_on channel=3 note=63 velocity=0 time=0
EXTRACT: note_on channel=4 note=55 velocity=0 time=0
EXTRACT: note_on channel=5 note=51 velocity=0 time=0
EXTRACT: note_on channel=6 note=51 velocity=0 time=0
EXTRACT: note_on channel=0 note=58 velocity=80 time=0.0010416666666666667
EXTRACT: note_on channel=6 note=43 velocity=80 time=0
EXTRACT: note_on channel=0 note=58 velocity=0 time=0.12395833333333334
EXTRACT: note_on channel=0 note=60 velocity=80 time=0.0010416666666666667
EXTRACT: note_on channel=0 note=60 velocity=0 time=0.12395833333333334
EXTRACT: note_on channel=6 note=43 velocity=0 time=0
EXTRACT: note_on channel=0 note=58 velocity=80 time=0.0010416666666666667
EXTRACT: note_on channel=1 note=70 velocity=75 time=0
EXTRACT: note_on channel=2 note=68 velocity=75 time=0
EXTRACT: note_on channel=3 note=63 velocity=75 time=0
EXTRACT: note_on channel=4 note=58 velocity=75 time=0
EXTRACT: note_on channel=5 note=55 velocity=75 time=0
EXTRACT: note_on channel=0 note=58 velocity=0 time=0.12395833333333334
EXTRACT: note_on channel=0 note=60 velocity=80 time=0.0010416666666666667
EXTRACT: note_on channel=0 note=60 velocity=0 time=0.12395833333333334
EXTRACT: note_on channel=0 note=58 velocity=80 time=0.0010416666666666667
EXTRACT: note_on channel=1 note=70 velocity=0 time=0.24895833333333334
EXTRACT: note_on channel=2 note=68 velocity=0 time=0
EXTRACT: note_on channel=3 note=63 velocity=0 time=0
EXTRACT: note_on channel=4 note=58 velocity=0 time=0
EXTRACT: note_on channel=5 note=55 velocity=0 time=0
EXTRACT: note_on channel=1 note=70 velocity=75 time=0.0010416666666666667
EXTRACT: note_on channel=2 note=70 velocity=75 time=0
EXTRACT: note_on channel=3 note=63 velocity=75 time=0
EXTRACT: note_on channel=4 note=58 velocity=75 time=0
EXTRACT: note_on channel=5 note=55 velocity=75 time=0
EXTRACT: note_on channel=6 note=44 velocity=80 time=0
EXTRACT: note_on channel=0 note=58 velocity=0 time=0.24895833333333334
EXTRACT: note_on channel=1 note=70 velocity=0 time=0
EXTRACT: note_on channel=2 note=70 velocity=0 time=0
EXTRACT: note_on channel=3 note=63 velocity=0 time=0
EXTRACT: note_on channel=4 note=58 velocity=0 time=0
EXTRACT: note_on channel=5 note=55 velocity=0 time=0
EXTRACT: note_on channel=6 note=44 velocity=0 time=0
EXTRACT: note_on channel=0 note=63 velocity=80 time=0.25104166666666666
EXTRACT: note_on channel=6 note=44 velocity=80 time=0
EXTRACT: note_on channel=6 note=44 velocity=0 time=0.24895833333333334
EXTRACT: note_on channel=1 note=68 velocity=75 time=0.0010416666666666667
EXTRACT: note_on channel=2 note=67 velocity=75 time=0
EXTRACT: note_on channel=3 note=63 velocity=75 time=0
EXTRACT: note_on channel=4 note=60 velocity=75 time=0
EXTRACT: note_on channel=5 note=56 velocity=75 time=0
EXTRACT: note_on channel=0 note=63 velocity=0 time=0.24895833333333334
EXTRACT: note_on channel=1 note=68 velocity=0 time=0
EXTRACT: note_on channel=2 note=67 velocity=0 time=0
EXTRACT: note_on channel=3 note=63 velocity=0 time=0
EXTRACT: note_on channel=4 note=60 velocity=0 time=0
EXTRACT: note_on channel=5 note=56 velocity=0 time=0
EXTRACT: note_on channel=0 note=63 velocity=80 time=0.0010416666666666667
EXTRACT: note_on channel=1 note=68 velocity=75 time=0
EXTRACT: note_on channel=2 note=67 velocity=75 time=0
EXTRACT: note_on channel=3 note=63 velocity=75 time=0
EXTRACT: note_on channel=4 note=60 velocity=75 time=0
EXTRACT: note_on channel=5 note=56 velocity=75 time=0
EXTRACT: note_on channel=6 note=44 velocity=80 time=0
EXTRACT: note_on channel=0 note=63 velocity=0 time=0.24895833333333334
EXTRACT: note_on channel=1 note=68 velocity=0 time=0
EXTRACT: note_on channel=2 note=67 velocity=0 time=0
EXTRACT: note_on channel=3 note=63 velocity=0 time=0
EXTRACT: note_on channel=4 note=60 velocity=0 time=0
EXTRACT: note_on channel=5 note=56 velocity=0 time=0
EXTRACT: note_on channel=6 note=44 velocity=0 time=0
EXTRACT: note_on channel=0 note=60 velocity=80 time=0.0010416666666666667
EXTRACT: note_on channel=1 note=70 velocity=75 time=0
EXTRACT: note_on channel=2 note=68 velocity=75 time=0
EXTRACT: note_on channel=3 note=65 velocity=75 time=0
EXTRACT: note_on channel=4 note=62 velocity=75 time=0
EXTRACT: note_on channel=5 note=53 velocity=75 time=0
EXTRACT: note_on channel=6 note=46 velocity=80 time=0
EXTRACT: note_on channel=0 note=60 velocity=0 time=0.24895833333333334
EXTRACT: note_on channel=0 note=58 velocity=80 time=0.0010416666666666667
EXTRACT: note_on channel=0 note=58 velocity=0 time=0.24895833333333334
EXTRACT: note_on channel=1 note=70 velocity=0 time=0
EXTRACT: note_on channel=2 note=68 velocity=0 time=0
EXTRACT: note_on channel=3 note=65 velocity=0 time=0
EXTRACT: note_on channel=4 note=62 velocity=0 time=0
EXTRACT: note_on channel=5 note=53 velocity=0 time=0
EXTRACT: note_on channel=6 note=46 velocity=0 time=0
EXTRACT: note_on channel=0 note=55 velocity=80 time=0.0010416666666666667
EXTRACT: note_on channel=1 note=70 velocity=75 time=0
EXTRACT: note_on channel=2 note=68 velocity=75 time=0
EXTRACT: note_on channel=3 note=65 velocity=75 time=0
EXTRACT: note_on channel=4 note=62 velocity=75 time=0
EXTRACT: note_on channel=5 note=53 velocity=75 time=0
EXTRACT: note_on channel=6 note=46 velocity=80 time=0
EXTRACT: note_on channel=0 note=55 velocity=0 time=0.49895833333333334
EXTRACT: note_on channel=1 note=70 velocity=0 time=0
EXTRACT: note_on channel=2 note=68 velocity=0 time=0
EXTRACT: note_on channel=3 note=65 velocity=0 time=0
EXTRACT: note_on channel=4 note=62 velocity=0 time=0
EXTRACT: note_on channel=5 note=53 velocity=0 time=0
EXTRACT: note_on channel=6 note=46 velocity=0 time=0
EXTRACT: note_on channel=1 note=67 velocity=75 time=0.0010416666666666667
EXTRACT: note_on channel=2 note=67 velocity=75 time=0
EXTRACT: note_on channel=4 note=60 velocity=75 time=0
EXTRACT: note_on channel=5 note=55 velocity=75 time=0
EXTRACT: note_on channel=6 note=48 velocity=80 time=0
EXTRACT: note_on channel=0 note=67 velocity=80 time=0.5
EXTRACT: note_on channel=3 note=63 velocity=75 time=0
EXTRACT: note_on channel=0 note=67 velocity=0 time=0.24895833333333334
EXTRACT: note_on channel=1 note=67 velocity=0 time=0
EXTRACT: note_on channel=2 note=67 velocity=0 time=0
EXTRACT: note_on channel=3 note=63 velocity=0 time=0
EXTRACT: note_on channel=4 note=60 velocity=0 time=0
EXTRACT: note_on channel=5 note=55 velocity=0 time=0
EXTRACT: note_on channel=6 note=48 velocity=0 time=0
EXTRACT: note_on channel=0 note=63 velocity=80 time=0.0010416666666666667
EXTRACT: note_on channel=1 note=70 velocity=75 time=0
EXTRACT: note_on channel=2 note=67 velocity=75 time=0
EXTRACT: note_on channel=3 note=60 velocity=75 time=0
EXTRACT: note_on channel=4 note=58 velocity=75 time=0
EXTRACT: note_on channel=5 note=51 velocity=75 time=0
EXTRACT: note_on channel=6 note=39 velocity=80 time=0
EXTRACT: note_on channel=0 note=63 velocity=0 time=0.24895833333333334
EXTRACT: note_on channel=3 note=60 velocity=0 time=0
EXTRACT: note_on channel=0 note=67 velocity=80 time=0.25104166666666666
EXTRACT: note_on channel=3 note=63 velocity=75 time=0
EXTRACT: note_on channel=0 note=67 velocity=0 time=0.24895833333333334
EXTRACT: note_on channel=3 note=63 velocity=0 time=0
EXTRACT: note_on channel=0 note=63 velocity=80 time=0.0010416666666666667
EXTRACT: note_on channel=3 note=60 velocity=75 time=0
EXTRACT: note_on channel=1 note=70 velocity=0 time=0.24895833333333334
EXTRACT: note_on channel=2 note=67 velocity=0 time=0
EXTRACT: note_on channel=3 note=60 velocity=0 time=0
EXTRACT: note_on channel=4 note=58 velocity=0 time=0
EXTRACT: note_on channel=5 note=51 velocity=0 time=0
EXTRACT: note_on channel=6 note=39 velocity=0 time=0
EXTRACT: note_on channel=0 note=63 velocity=0 time=0.25
EXTRACT: note_on channel=1 note=69 velocity=62 time=0.0010416666666666667
EXTRACT: note_on channel=2 note=65 velocity=62 time=0
EXTRACT: note_on channel=3 note=63 velocity=75 time=0
EXTRACT: note_on channel=4 note=60 velocity=75 time=0
EXTRACT: note_on channel=5 note=53 velocity=62 time=0
EXTRACT: note_on channel=6 note=41 velocity=80 time=0
EXTRACT: note_on channel=0 note=67 velocity=80 time=0.5
EXTRACT: note_on channel=0 note=67 velocity=0 time=0.24895833333333334
EXTRACT: note_on channel=1 note=69 velocity=0 time=0
EXTRACT: note_on channel=2 note=65 velocity=0 time=0
EXTRACT: note_on channel=5 note=53 velocity=0 time=0
EXTRACT: note_on channel=6 note=41 velocity=0 time=0
EXTRACT: note_on channel=0 note=67 velocity=80 time=0.0010416666666666667
EXTRACT: note_on channel=1 note=69 velocity=62 time=0
EXTRACT: note_on channel=2 note=66 velocity=62 time=0
EXTRACT: note_on channel=5 note=54 velocity=62 time=0
EXTRACT: note_on channel=6 note=42 velocity=80 time=0
EXTRACT: note_on channel=0 note=67 velocity=0 time=0.24895833333333334
EXTRACT: note_on channel=3 note=63 velocity=0 time=0
EXTRACT: note_on channel=4 note=60 velocity=0 time=0
EXTRACT: note_on channel=0 note=65 velocity=80 time=0.0010416666666666667
EXTRACT: note_on channel=3 note=65 velocity=75 time=0
EXTRACT: note_on channel=4 note=57 velocity=75 time=0
EXTRACT: note_on channel=4 note=62 velocity=75 time=0
EXTRACT: note_on channel=3 note=65 velocity=0 time=0.06354166666666666
EXTRACT: note_on channel=4 note=57 velocity=0 time=0
EXTRACT: note_on channel=4 note=62 velocity=0 time=0
EXTRACT: note_on channel=3 note=67 velocity=75 time=0.0010416666666666667
EXTRACT: note_on channel=4 note=58 velocity=75 time=0
EXTRACT: note_on channel=4 note=63 velocity=75 time=0
EXTRACT: note_on channel=3 note=67 velocity=0 time=0.18333333333333332
EXTRACT: note_on channel=4 note=58 velocity=0 time=0
EXTRACT: note_on channel=4 note=63 velocity=0 time=0
EXTRACT: note_on channel=0 note=65 velocity=0 time=0.0010416666666666667
EXTRACT: note_on channel=1 note=69 velocity=0 time=0
EXTRACT: note_on channel=2 note=66 velocity=0 time=0
EXTRACT: note_on channel=5 note=54 velocity=0 time=0
EXTRACT: note_on channel=6 note=42 velocity=0 time=0
EXTRACT: note_on channel=0 note=63 velocity=80 time=0.0010416666666666667
EXTRACT: note_on channel=1 note=67 velocity=62 time=0
EXTRACT: note_on channel=2 note=67 velocity=62 time=0
EXTRACT: note_on channel=5 note=55 velocity=62 time=0
EXTRACT: note_on channel=6 note=43 velocity=80 time=0
EXTRACT: note_on channel=0 note=63 velocity=0 time=0.24895833333333334
EXTRACT: note_on channel=0 note=60 velocity=80 time=0.0010416666666666667
EXTRACT: note_on channel=3 note=65 velocity=75 time=0
EXTRACT: note_on channel=4 note=57 velocity=75 time=0
EXTRACT: note_on channel=4 note=62 velocity=75 time=0
EXTRACT: note_on channel=3 note=65 velocity=0 time=0.06354166666666666
EXTRACT: note_on channel=4 note=57 velocity=0 time=0
EXTRACT: note_on channel=4 note=62 velocity=0 time=0
EXTRACT: note_on channel=3 note=67 velocity=75 time=0.0010416666666666667
EXTRACT: note_on channel=4 note=58 velocity=75 time=0
EXTRACT: note_on channel=4 note=63 velocity=75 time=0
EXTRACT: note_on channel=3 note=67 velocity=0 time=0.18333333333333332
EXTRACT: note_on channel=4 note=58 velocity=0 time=0
EXTRACT: note_on channel=4 note=63 velocity=0 time=0
EXTRACT: note_on channel=0 note=60 velocity=0 time=0.0010416666666666667
EXTRACT: note_on channel=0 note=58 velocity=80 time=0.0010416666666666667
EXTRACT: note_on channel=0 note=58 velocity=0 time=0.24895833333333334
EXTRACT: note_on channel=1 note=67 velocity=0 time=0
EXTRACT: note_on channel=2 note=67 velocity=0 time=0
EXTRACT: note_on channel=5 note=55 velocity=0 time=0
EXTRACT: note_on channel=6 note=43 velocity=0 time=0
EXTRACT: note_on channel=1 note=67 velocity=62 time=0.0010416666666666667
EXTRACT: note_on channel=2 note=67 velocity=62 time=0
EXTRACT: note_on channel=4 note=60 velocity=75 time=0
EXTRACT: note_on channel=5 note=55 velocity=62 time=0
EXTRACT: note_on channel=6 note=48 velocity=80 time=0
EXTRACT: note_on channel=0 note=67 velocity=80 time=0.5
EXTRACT: note_on channel=3 note=63 velocity=75 time=0
EXTRACT: note_on channel=0 note=67 velocity=0 time=0.24895833333333334
EXTRACT: note_on channel=1 note=67 velocity=0 time=0
EXTRACT: note_on channel=2 note=67 velocity=0 time=0
EXTRACT: note_on channel=3 note=63 velocity=0 time=0
EXTRACT: note_on channel=4 note=60 velocity=0 time=0
EXTRACT: note_on channel=5 note=55 velocity=0 time=0
EXTRACT: note_on channel=6 note=48 velocity=0 time=0
EXTRACT: note_on channel=0 note=63 velocity=80 time=0.0010416666666666667
EXTRACT: note_on channel=1 note=70 velocity=62 time=0
EXTRACT: note_on channel=2 note=67 velocity=62 time=0
EXTRACT: note_on channel=3 note=60 velocity=75 time=0
EXTRACT: note_on channel=4 note=58 velocity=75 time=0
EXTRACT: note_on channel=5 note=51 velocity=62 time=0
EXTRACT: note_on channel=6 note=39 velocity=80 time=0
EXTRACT: note_on channel=0 note=63 velocity=0 time=0.24895833333333334
EXTRACT: note_on channel=3 note=60 velocity=0 time=0
EXTRACT: note_on channel=0 note=67 velocity=80 time=0.25104166666666666
EXTRACT: note_on channel=3 note=63 velocity=75 time=0
EXTRACT: note_on channel=0 note=67 velocity=0 time=0.24895833333333334
EXTRACT: note_on channel=3 note=63 velocity=0 time=0
EXTRACT: note_on channel=0 note=63 velocity=80 time=0.0010416666666666667
EXTRACT: note_on channel=3 note=60 velocity=75 time=0
EXTRACT: note_on channel=0 note=63 velocity=0 time=0.06354166666666666
EXTRACT: note_on channel=0 note=65 velocity=80 time=0.0010416666666666667
EXTRACT: note_on channel=0 note=65 velocity=0 time=0.18333333333333332
EXTRACT: note_on channel=1 note=70 velocity=0 time=0.0010416666666666667
EXTRACT: note_on channel=2 note=67 velocity=0 time=0
EXTRACT: note_on channel=3 note=60 velocity=0 time=0
EXTRACT: note_on channel=4 note=58 velocity=0 time=0
EXTRACT: note_on channel=5 note=51 velocity=0 time=0
EXTRACT: note_on channel=6 note=39 velocity=0 time=0
EXTRACT: note_on channel=0 note=67 velocity=80 time=0.0010416666666666667
EXTRACT: note_on channel=0 note=67 velocity=0 time=0.24895833333333334
EXTRACT: note_on channel=1 note=69 velocity=62 time=0.0010416666666666667
EXTRACT: note_on channel=2 note=65 velocity=62 time=0
EXTRACT: note_on channel=3 note=63 velocity=75 time=0
EXTRACT: note_on channel=4 note=60 velocity=75 time=0
EXTRACT: note_on channel=5 note=53 velocity=62 time=0
EXTRACT: note_on channel=6 note=41 velocity=80 time=0
EXTRACT: note_on channel=0 note=65 velocity=80 time=0.5
EXTRACT: note_on channel=0 note=65 velocity=0 time=0.24895833333333334
EXTRACT: note_on channel=1 note=69 velocity=0 time=0
EXTRACT: note_on channel=2 note=65 velocity=0 time=0
EXTRACT: note_on channel=5 note=53 velocity=0 time=0
EXTRACT: note_on channel=6 note=41 velocity=0 time=0
EXTRACT: note_on channel=0 note=67 velocity=80 time=0.0010416666666666667
EXTRACT: note_on channel=1 note=69 velocity=62 time=0
EXTRACT: note_on channel=2 note=66 velocity=62 time=0
EXTRACT: note_on channel=5 note=54 velocity=62 time=0
EXTRACT: note_on channel=6 note=42 velocity=80 time=0
EXTRACT: note_on channel=0 note=67 velocity=0 time=0.24895833333333334
EXTRACT: note_on channel=3 note=63 velocity=0 time=0
EXTRACT: note_on channel=4 note=60 velocity=0 time=0
EXTRACT: note_on channel=0 note=65 velocity=80 time=0.0010416666666666667
EXTRACT: note_on channel=3 note=65 velocity=75 time=0
EXTRACT: note_on channel=4 note=57 velocity=75 time=0
EXTRACT: note_on channel=4 note=62 velocity=75 time=0
EXTRACT: note_on channel=3 note=65 velocity=0 time=0.06354166666666666
EXTRACT: note_on channel=4 note=57 velocity=0 time=0
EXTRACT: note_on channel=4 note=62 velocity=0 time=0
EXTRACT: note_on channel=3 note=67 velocity=75 time=0.0010416666666666667
EXTRACT: note_on channel=4 note=58 velocity=75 time=0
EXTRACT: note_on channel=4 note=63 velocity=75 time=0
EXTRACT: note_on channel=3 note=67 velocity=0 time=0.18333333333333332
EXTRACT: note_on channel=4 note=58 velocity=0 time=0
EXTRACT: note_on channel=4 note=63 velocity=0 time=0
EXTRACT: note_on channel=0 note=65 velocity=0 time=0.0010416666666666667
EXTRACT: note_on channel=1 note=69 velocity=0 time=0
EXTRACT: note_on channel=2 note=66 velocity=0 time=0
EXTRACT: note_on channel=5 note=54 velocity=0 time=0
EXTRACT: note_on channel=6 note=42 velocity=0 time=0
EXTRACT: note_on channel=0 note=63 velocity=80 time=0.0010416666666666667
EXTRACT: note_on channel=1 note=67 velocity=62 time=0
EXTRACT: note_on channel=2 note=67 velocity=62 time=0
EXTRACT: note_on channel=5 note=55 velocity=62 time=0
EXTRACT: note_on channel=6 note=43 velocity=80 time=0
EXTRACT: note_on channel=0 note=63 velocity=0 time=0.24895833333333334
EXTRACT: note_on channel=0 note=60 velocity=80 time=0.0010416666666666667
EXTRACT: note_on channel=3 note=65 velocity=75 time=0
EXTRACT: note_on channel=4 note=57 velocity=75 time=0
EXTRACT: note_on channel=4 note=62 velocity=75 time=0
EXTRACT: note_on channel=3 note=65 velocity=0 time=0.06354166666666666
EXTRACT: note_on channel=4 note=57 velocity=0 time=0
EXTRACT: note_on channel=4 note=62 velocity=0 time=0
EXTRACT: note_on channel=3 note=67 velocity=75 time=0.0010416666666666667
EXTRACT: note_on channel=4 note=58 velocity=75 time=0
EXTRACT: note_on channel=4 note=63 velocity=75 time=0
EXTRACT: note_on channel=3 note=67 velocity=0 time=0.18333333333333332
EXTRACT: note_on channel=4 note=58 velocity=0 time=0
EXTRACT: note_on channel=4 note=63 velocity=0 time=0
EXTRACT: note_on channel=0 note=60 velocity=0 time=0.0010416666666666667
EXTRACT: note_on channel=0 note=58 velocity=80 time=0.0010416666666666667
EXTRACT: note_on channel=0 note=58 velocity=0 time=0.24895833333333334
EXTRACT: note_on channel=1 note=67 velocity=0 time=0
EXTRACT: note_on channel=2 note=67 velocity=0 time=0
EXTRACT: note_on channel=5 note=55 velocity=0 time=0
EXTRACT: note_on channel=6 note=43 velocity=0 time=0
EXTRACT: note_on channel=1 note=67 velocity=62 time=0.0010416666666666667
EXTRACT: note_on channel=2 note=67 velocity=62 time=0
EXTRACT: note_on channel=4 note=60 velocity=75 time=0
EXTRACT: note_on channel=5 note=55 velocity=62 time=0
EXTRACT: note_on channel=6 note=48 velocity=80 time=0
EXTRACT: note_on channel=0 note=67 velocity=80 time=0.5
EXTRACT: note_on channel=3 note=63 velocity=75 time=0
EXTRACT: note_on channel=0 note=67 velocity=0 time=0.24895833333333334
EXTRACT: note_on channel=1 note=67 velocity=0 time=0
EXTRACT: note_on channel=2 note=67 velocity=0 time=0
EXTRACT: note_on channel=3 note=63 velocity=0 time=0
EXTRACT: note_on channel=4 note=60 velocity=0 time=0
EXTRACT: note_on channel=5 note=55 velocity=0 time=0
EXTRACT: note_on channel=6 note=48 velocity=0 time=0
EXTRACT: note_on channel=0 note=63 velocity=80 time=0.0010416666666666667
EXTRACT: note_on channel=1 note=72 velocity=62 time=0
EXTRACT: note_on channel=2 note=67 velocity=62 time=0
EXTRACT: note_on channel=3 note=60 velocity=75 time=0
EXTRACT: note_on channel=4 note=60 velocity=75 time=0
EXTRACT: note_on channel=5 note=55 velocity=62 time=0
EXTRACT: note_on channel=6 note=39 velocity=80 time=0
EXTRACT: note_on channel=0 note=63 velocity=0 time=0.24895833333333334
EXTRACT: note_on channel=3 note=60 velocity=0 time=0
EXTRACT: note_on channel=0 note=67 velocity=80 time=0.25104166666666666
EXTRACT: note_on channel=3 note=63 velocity=75 time=0
EXTRACT: note_on channel=0 note=67 velocity=0 time=0.24895833333333334
EXTRACT: note_on channel=3 note=63 velocity=0 time=0
EXTRACT: note_on channel=0 note=63 velocity=80 time=0.0010416666666666667
EXTRACT: note_on channel=3 note=60 velocity=75 time=0
EXTRACT: note_on channel=0 note=63 velocity=0 time=0.06145833333333333
EXTRACT: note_on channel=0 note=65 velocity=80 time=0.0010416666666666667
EXTRACT: note_on channel=0 note=65 velocity=0 time=0.06145833333333333
EXTRACT: note_on channel=0 note=63 velocity=80 time=0.0010416666666666667
EXTRACT: note_on channel=0 note=63 velocity=0 time=0.12395833333333334
EXTRACT: note_on channel=1 note=72 velocity=0 time=0
EXTRACT: note_on channel=2 note=67 velocity=0 time=0
EXTRACT: note_on channel=3 note=60 velocity=0 time=0
EXTRACT: note_on channel=4 note=60 velocity=0 time=0
EXTRACT: note_on channel=5 note=55 velocity=0 time=0
EXTRACT: note_on channel=6 note=39 velocity=0 time=0
EXTRACT: note_on channel=0 note=60 velocity=80 time=0.0010416666666666667
EXTRACT: note_on channel=3 note=58 velocity=75 time=0
EXTRACT: note_on channel=0 note=60 velocity=0 time=0.12395833333333334
EXTRACT: note_on channel=0 note=58 velocity=80 time=0.0010416666666666667
EXTRACT: note_on channel=0 note=58 velocity=0 time=0.12395833333333334
EXTRACT: note_on channel=3 note=58 velocity=0 time=0
EXTRACT: note_on channel=2 note=65 velocity=88 time=0.0010416666666666667
EXTRACT: note_on channel=5 note=53 velocity=88 time=0
EXTRACT: note_on channel=6 note=41 velocity=80 time=0
EXTRACT: note_on channel=0 note=63 velocity=80 time=0.25
EXTRACT: note_on channel=1 note=67 velocity=88 time=0
EXTRACT: note_on channel=3 note=60 velocity=75 time=0
EXTRACT: note_on channel=4 note=55 velocity=75 time=0
EXTRACT: note_on channel=0 note=63 velocity=0 time=0.24895833333333334
EXTRACT: note_on channel=1 note=67 velocity=0 time=0
EXTRACT: note_on channel=3 note=60 velocity=0 time=0
EXTRACT: note_on channel=4 note=55 velocity=0 time=0
EXTRACT: note_on channel=0 note=63 velocity=80 time=0.0010416666666666667
EXTRACT: note_on channel=1 note=67 velocity=88 time=0
EXTRACT: note_on channel=3 note=60 velocity=75 time=0
EXTRACT: note_on channel=4 note=55 velocity=75 time=0
EXTRACT: note_on channel=0 note=63 velocity=0 time=0.24895833333333334
EXTRACT: note_on channel=1 note=67 velocity=0 time=0
EXTRACT: note_on channel=2 note=65 velocity=0 time=0
EXTRACT: note_on channel=3 note=60 velocity=0 time=0
EXTRACT: note_on channel=4 note=55 velocity=0 time=0
EXTRACT: note_on channel=5 note=53 velocity=0 time=0
EXTRACT: note_on channel=6 note=41 velocity=0 time=0
EXTRACT: note_on channel=0 note=63 velocity=80 time=0.0010416666666666667
EXTRACT: note_on channel=1 note=67 velocity=88 time=0
EXTRACT: note_on channel=2 note=66 velocity=88 time=0
EXTRACT: note_on channel=3 note=60 velocity=75 time=0
EXTRACT: note_on channel=4 note=55 velocity=75 time=0
EXTRACT: note_on channel=5 note=54 velocity=88 time=0
EXTRACT: note_on channel=6 note=42 velocity=80 time=0
EXTRACT: note_on channel=0 note=63 velocity=0 time=0.24895833333333334
EXTRACT: note_on channel=1 note=67 velocity=0 time=0
EXTRACT: note_on channel=3 note=60 velocity=0 time=0
EXTRACT: note_on channel=4 note=55 velocity=0 time=0
EXTRACT: note_on channel=0 note=65 velocity=80 time=0.0010416666666666667
EXTRACT: note_on channel=1 note=65 velocity=88 time=0
EXTRACT: note_on channel=3 note=62 velocity=75 time=0
EXTRACT: note_on channel=4 note=58 velocity=75 time=0
EXTRACT: note_on channel=0 note=65 velocity=0 time=0.24895833333333334
EXTRACT: note_on channel=1 note=65 velocity=0 time=0
EXTRACT: note_on channel=2 note=66 velocity=0 time=0
EXTRACT: note_on channel=3 note=62 velocity=0 time=0
EXTRACT: note_on channel=4 note=58 velocity=0 time=0
EXTRACT: note_on channel=5 note=54 velocity=0 time=0
EXTRACT: note_on channel=6 note=42 velocity=0 time=0
EXTRACT: note_on channel=0 note=67 velocity=80 time=0.0010416666666666667
EXTRACT: note_on channel=1 note=67 velocity=88 time=0
EXTRACT: note_on channel=2 note=67 velocity=88 time=0
EXTRACT: note_on channel=3 note=63 velocity=75 time=0
EXTRACT: note_on channel=4 note=60 velocity=75 time=0
EXTRACT: note_on channel=5 note=55 velocity=88 time=0
EXTRACT: note_on channel=6 note=43 velocity=80 time=0
EXTRACT: note_on channel=0 note=67 velocity=0 time=0.49895833333333334
EXTRACT: note_on channel=1 note=67 velocity=0 time=0
EXTRACT: note_on channel=2 note=67 velocity=0 time=0
EXTRACT: note_on channel=3 note=63 velocity=0 time=0
EXTRACT: note_on channel=4 note=60 velocity=0 time=0
EXTRACT: note_on channel=0 note=70 velocity=80 time=0.0010416666666666667
EXTRACT: note_on channel=1 note=70 velocity=88 time=0
EXTRACT: note_on channel=2 note=70 velocity=88 time=0
EXTRACT: note_on channel=3 note=63 velocity=75 time=0
EXTRACT: note_on channel=4 note=60 velocity=75 time=0
EXTRACT: note_on channel=5 note=55 velocity=0 time=0.24895833333333334
EXTRACT: note_on channel=6 note=43 velocity=0 time=0
EXTRACT: note_on channel=5 note=56 velocity=88 time=0.0010416666666666667
EXTRACT: note_on channel=6 note=41 velocity=80 time=0
EXTRACT: note_on channel=0 note=70 velocity=0 time=0.49895833333333334
EXTRACT: note_on channel=1 note=70 velocity=0 time=0
EXTRACT: note_on channel=2 note=70 velocity=0 time=0
EXTRACT: note_on channel=5 note=56 velocity=0 time=0
EXTRACT: note_on channel=0 note=67 velocity=80 time=0.0010416666666666667
EXTRACT: note_on channel=1 note=67 velocity=88 time=0
EXTRACT: note_on channel=2 note=67 velocity=88 time=0
EXTRACT: note_on channel=5 note=56 velocity=88 time=0
EXTRACT: note_on channel=0 note=67 velocity=0 time=0.24895833333333334
EXTRACT: note_on channel=1 note=67 velocity=0 time=0
EXTRACT: note_on channel=2 note=67 velocity=0 time=0
EXTRACT: note_on channel=6 note=41 velocity=0 time=0
EXTRACT: note_on channel=0 note=72 velocity=80 time=0.0010416666666666667
EXTRACT: note_on channel=1 note=72 velocity=88 time=0
EXTRACT: note_on channel=2 note=72 velocity=88 time=0
EXTRACT: note_on channel=6 note=41 velocity=80 time=0
EXTRACT: note_on channel=0 note=72 velocity=0 time=0.24895833333333334
EXTRACT: note_on channel=1 note=72 velocity=0 time=0
EXTRACT: note_on channel=2 note=72 velocity=0 time=0
EXTRACT: note_on channel=3 note=63 velocity=0 time=0
EXTRACT: note_on channel=4 note=60 velocity=0 time=0
EXTRACT: note_on channel=5 note=56 velocity=0 time=0
EXTRACT: note_on channel=0 note=70 velocity=80 time=0.0010416666666666667
EXTRACT: note_on channel=1 note=70 velocity=88 time=0
EXTRACT: note_on channel=2 note=70 velocity=88 time=0
EXTRACT: note_on channel=3 note=63 velocity=75 time=0
EXTRACT: note_on channel=4 note=60 velocity=75 time=0
EXTRACT: note_on channel=5 note=56 velocity=88 time=0
EXTRACT: note_on channel=0 note=70 velocity=0 time=0.49895833333333334
EXTRACT: note_on channel=1 note=70 velocity=0 time=0
EXTRACT: note_on channel=2 note=70 velocity=0 time=0
EXTRACT: note_on channel=5 note=56 velocity=0 time=0
EXTRACT: note_on channel=6 note=41 velocity=0 time=0
EXTRACT: note_on channel=0 note=67 velocity=80 time=0.0010416666666666667
EXTRACT: note_on channel=1 note=70 velocity=88 time=0
EXTRACT: note_on channel=2 note=67 velocity=88 time=0
EXTRACT: note_on channel=5 note=56 velocity=88 time=0
EXTRACT: note_on channel=6 note=41 velocity=80 time=0
EXTRACT: note_on channel=0 note=67 velocity=0 time=0.49895833333333334
EXTRACT: note_on channel=1 note=70 velocity=0 time=0
EXTRACT: note_on channel=2 note=67 velocity=0 time=0
EXTRACT: note_on channel=3 note=63 velocity=0 time=0
EXTRACT: note_on channel=4 note=60 velocity=0 time=0
EXTRACT: note_on channel=5 note=56 velocity=0 time=0
EXTRACT: note_on channel=6 note=41 velocity=0 time=0
EXTRACT: note_on channel=0 note=63 velocity=80 time=0.0010416666666666667
EXTRACT: note_on channel=1 note=70 velocity=88 time=0
EXTRACT: note_on channel=2 note=68 velocity=88 time=0
EXTRACT: note_on channel=3 note=65 velocity=88 time=0
EXTRACT: note_on channel=4 note=62 velocity=88 time=0
EXTRACT: note_on channel=5 note=58 velocity=88 time=0
EXTRACT: note_on channel=6 note=46 velocity=80 time=0
EXTRACT: note_on channel=0 note=63 velocity=0 time=0.24895833333333334
EXTRACT: note_on channel=6 note=46 velocity=0 time=0
EXTRACT: note_on channel=0 note=65 velocity=80 time=0.0010416666666666667
EXTRACT: note_on channel=6 note=46 velocity=80 time=0
EXTRACT: note_on channel=0 note=65 velocity=0 time=0.24895833333333334
EXTRACT: note_on channel=1 note=70 velocity=0 time=0
EXTRACT: note_on channel=6 note=46 velocity=0 time=0
EXTRACT: note_on channel=0 note=65 velocity=80 time=0.0010416666666666667
EXTRACT: note_on channel=1 note=72 velocity=88 time=0
EXTRACT: note_on channel=6 note=46 velocity=80 time=0
EXTRACT: note_on channel=0 note=65 velocity=0 time=0.24895833333333334
EXTRACT: note_on channel=2 note=68 velocity=0 time=0
EXTRACT: note_on channel=3 note=65 velocity=0 time=0
EXTRACT: note_on channel=4 note=62 velocity=0 time=0
EXTRACT: note_on channel=6 note=46 velocity=0 time=0
EXTRACT: note_on channel=0 note=65 velocity=80 time=0.0010416666666666667
EXTRACT: note_on channel=6 note=46 velocity=80 time=0
EXTRACT: note_on channel=1 note=72 velocity=0 time=0.24895833333333334
EXTRACT: note_on channel=6 note=46 velocity=0 time=0
EXTRACT: note_on channel=1 note=75 velocity=88 time=0.0010416666666666667
EXTRACT: note_on channel=2 note=68 velocity=88 time=0
EXTRACT: note_on channel=3 note=65 velocity=88 time=0
EXTRACT: note_on channel=4 note=60 velocity=88 time=0
EXTRACT: note_on channel=6 note=46 velocity=80 time=0
EXTRACT: note_on channel=2 note=68 velocity=0 time=0.24895833333333334
EXTRACT: note_on channel=3 note=65 velocity=0 time=0
EXTRACT: note_on channel=4 note=60 velocity=0 time=0
EXTRACT: note_on channel=2 note=67 velocity=88 time=0.0010416666666666667
EXTRACT: note_on channel=3 note=63 velocity=88 time=0
EXTRACT: note_on channel=4 note=58 velocity=88 time=0
EXTRACT: note_on channel=0 note=65 velocity=0 time=0.24895833333333334
EXTRACT: note_on channel=1 note=75 velocity=0 time=0
EXTRACT: note_on channel=2 note=67 velocity=0 time=0
EXTRACT: note_on channel=3 note=63 velocity=0 time=0
EXTRACT: note_on channel=4 note=58 velocity=0 time=0
EXTRACT: note_on channel=6 note=46 velocity=0 time=0
EXTRACT: note_on channel=0 note=67 velocity=80 time=0.0010416666666666667
EXTRACT: note_on channel=1 note=77 velocity=88 time=0
EXTRACT: note_on channel=2 note=68 velocity=88 time=0
EXTRACT: note_on channel=3 note=65 velocity=88 time=0
EXTRACT: note_on channel=4 note=60 velocity=88 time=0
EXTRACT: note_on channel=6 note=46 velocity=80 time=0
EXTRACT: note_on channel=2 note=68 velocity=0 time=0.24895833333333334
EXTRACT: note_on channel=3 note=65 velocity=0 time=0
EXTRACT: note_on channel=4 note=60 velocity=0 time=0
EXTRACT: note_on channel=2 note=67 velocity=88 time=0.0010416666666666667
EXTRACT: note_on channel=3 note=63 velocity=88 time=0
EXTRACT: note_on channel=4 note=58 velocity=88 time=0
EXTRACT: note_on channel=0 note=67 velocity=0 time=0.24895833333333334
EXTRACT: note_on channel=1 note=77 velocity=0 time=0
EXTRACT: note_on channel=2 note=67 velocity=0 time=0
EXTRACT: note_on channel=3 note=63 velocity=0 time=0
EXTRACT: note_on channel=4 note=58 velocity=0 time=0
EXTRACT: note_on channel=5 note=58 velocity=0 time=0
EXTRACT: note_on channel=6 note=46 velocity=0 time=0
EXTRACT: note_on channel=1 note=79 velocity=88 time=0.0010416666666666667
EXTRACT: note_on channel=2 note=70 velocity=88 time=0
EXTRACT: note_on channel=3 note=67 velocity=88 time=0
EXTRACT: note_on channel=4 note=63 velocity=88 time=0
EXTRACT: note_on channel=5 note=51 velocity=88 time=0
EXTRACT: note_on channel=5 note=58 velocity=88 time=0
EXTRACT: note_on channel=6 note=51 velocity=80 time=0
EXTRACT: note_on channel=5 note=51 velocity=0 time=0.24895833333333334
EXTRACT: note_on channel=5 note=58 velocity=0 time=0
EXTRACT: note_on channel=6 note=51 velocity=0 time=0
EXTRACT: note_on channel=2 note=70 velocity=0 time=0.25
EXTRACT: note_on channel=3 note=67 velocity=0 time=0
EXTRACT: note_on channel=4 note=63 velocity=0 time=0
EXTRACT: note_on channel=6 note=51 velocity=80 time=0.0010416666666666667
EXTRACT: note_on channel=6 note=51 velocity=0 time=0.24895833333333334
EXTRACT: note_on channel=0 note=67 velocity=80 time=0.0010416666666666667
EXTRACT: note_on channel=2 note=70 velocity=88 time=0
EXTRACT: note_on channel=3 note=63 velocity=88 time=0
EXTRACT: note_on channel=4 note=63 velocity=88 time=0
EXTRACT: note_on channel=5 note=51 velocity=88 time=0
EXTRACT: note_on channel=5 note=58 velocity=88 time=0
EXTRACT: note_on channel=6 note=39 velocity=80 time=0
EXTRACT: note_on channel=0 note=67 velocity=0 time=0.24895833333333334
EXTRACT: note_on channel=1 note=79 velocity=0 time=0
EXTRACT: note_on channel=5 note=51 velocity=0 time=0
EXTRACT: note_on channel=5 note=58 velocity=0 time=0
EXTRACT: note_on channel=6 note=39 velocity=0 time=0
EXTRACT: note_on channel=0 note=65 velocity=80 time=0.0010416666666666667
EXTRACT: note_on channel=5 note=51 velocity=88 time=0
EXTRACT: note_on channel=5 note=55 velocity=88 time=0
EXTRACT: note_on channel=6 note=43 velocity=80 time=0
EXTRACT: note_on channel=0 note=65 velocity=0 time=0.24895833333333334
EXTRACT: note_on channel=2 note=70 velocity=0 time=0
EXTRACT: note_on channel=3 note=63 velocity=0 time=0
EXTRACT: note_on channel=4 note=63 velocity=0 time=0
EXTRACT: note_on channel=5 note=51 velocity=0 time=0
EXTRACT: note_on channel=5 note=55 velocity=0 time=0
EXTRACT: note_on channel=6 note=43 velocity=0 time=0
EXTRACT: note_on channel=0 note=63 velocity=80 time=0.0010416666666666667
EXTRACT: note_on channel=1 note=79 velocity=88 time=0
EXTRACT: note_on channel=2 note=67 velocity=88 time=0
EXTRACT: note_on channel=3 note=63 velocity=88 time=0
EXTRACT: note_on channel=4 note=58 velocity=88 time=0
EXTRACT: note_on channel=6 note=44 velocity=80 time=0
EXTRACT: note_on channel=0 note=63 velocity=0 time=0.24895833333333334
EXTRACT: note_on channel=1 note=79 velocity=0 time=0
EXTRACT: note_on channel=6 note=44 velocity=0 time=0
EXTRACT: note_on channel=0 note=67 velocity=80 time=0.0010416666666666667
EXTRACT: note_on channel=1 note=77 velocity=88 time=0
EXTRACT: note_on channel=6 note=46 velocity=80 time=0
EXTRACT: note_on channel=0 note=67 velocity=0 time=0.24895833333333334
EXTRACT: note_on channel=1 note=77 velocity=0 time=0
EXTRACT: note_on channel=2 note=67 velocity=0 time=0
EXTRACT: note_on channel=3 note=63 velocity=0 time=0
EXTRACT: note_on channel=4 note=58 velocity=0 time=0
EXTRACT: note_on channel=6 note=46 velocity=0 time=0
EXTRACT: note_on channel=0 note=63 velocity=80 time=0.0010416666666666667
EXTRACT: note_on channel=1 note=75 velocity=88 time=0
EXTRACT: note_on channel=2 note=68 velocity=88 time=0
EXTRACT: note_on channel=3 note=63 velocity=88 time=0
EXTRACT: note_on channel=3 note=65 velocity=88 time=0
EXTRACT: note_on channel=4 note=60 velocity=88 time=0
EXTRACT: note_on channel=5 note=51 velocity=88 time=0
EXTRACT: note_on channel=5 note=56 velocity=88 time=0
EXTRACT: note_on channel=6 note=44 velocity=80 time=0
EXTRACT: note_on channel=5 note=51 velocity=0 time=0.24895833333333334
EXTRACT: note_on channel=5 note=56 velocity=0 time=0
EXTRACT: note_on channel=6 note=44 velocity=0 time=0
EXTRACT: note_on channel=0 note=63 velocity=0 time=0.25
EXTRACT: note_on channel=0 note=63 velocity=80 time=0.0010416666666666667
EXTRACT: note_on channel=5 note=51 velocity=88 time=0
EXTRACT: note_on channel=5 note=56 velocity=88 time=0
EXTRACT: note_on channel=6 note=44 velocity=80 time=0
EXTRACT: note_on channel=0 note=63 velocity=0 time=0.12395833333333334
EXTRACT: note_on channel=0 note=60 velocity=80 time=0.0010416666666666667
EXTRACT: note_on channel=0 note=60 velocity=0 time=0.12395833333333334
EXTRACT: note_on channel=2 note=68 velocity=0 time=0
EXTRACT: note_on channel=3 note=63 velocity=0 time=0
EXTRACT: note_on channel=3 note=65 velocity=0 time=0
EXTRACT: note_on channel=4 note=60 velocity=0 time=0
EXTRACT: note_on channel=5 note=51 velocity=0 time=0
EXTRACT: note_on channel=5 note=56 velocity=0 time=0
EXTRACT: note_on channel=6 note=44 velocity=0 time=0
EXTRACT: note_on channel=0 note=58 velocity=80 time=0.0010416666666666667
EXTRACT: note_on channel=6 note=48 velocity=80 time=0
EXTRACT: note_on channel=2 note=68 velocity=88 time=0.25
EXTRACT: note_on channel=3 note=65 velocity=88 time=0
EXTRACT: note_on channel=4 note=60 velocity=88 time=0
EXTRACT: note_on channel=5 note=51 velocity=88 time=0
EXTRACT: note_on channel=5 note=55 velocity=88 time=0
EXTRACT: note_on channel=0 note=58 velocity=0 time=0.24895833333333334
EXTRACT: note_on channel=1 note=75 velocity=0 time=0
EXTRACT: note_on channel=5 note=51 velocity=0 time=0
EXTRACT: note_on channel=5 note=55 velocity=0 time=0
EXTRACT: note_on channel=6 note=48 velocity=0 time=0
EXTRACT: note_on channel=1 note=72 velocity=88 time=0.0010416666666666667
EXTRACT: note_on channel=5 note=53 velocity=88 time=0
EXTRACT: note_on channel=6 note=46 velocity=80 time=0
EXTRACT: note_on channel=2 note=68 velocity=0 time=0.24895833333333334
EXTRACT: note_on channel=3 note=65 velocity=0 time=0
EXTRACT: note_on channel=4 note=60 velocity=0 time=0
EXTRACT: note_on channel=6 note=46 velocity=0 time=0
EXTRACT: note_on channel=2 note=67 velocity=88 time=0.0010416666666666667
EXTRACT: note_on channel=3 note=63 velocity=88 time=0
EXTRACT: note_on channel=4 note=58 velocity=88 time=0
EXTRACT: note_on channel=6 note=46 velocity=80 time=0
EXTRACT: note_on channel=1 note=72 velocity=0 time=0.24895833333333334
EXTRACT: note_on channel=2 note=67 velocity=0 time=0
EXTRACT: note_on channel=3 note=63 velocity=0 time=0
EXTRACT: note_on channel=4 note=58 velocity=0 time=0
EXTRACT: note_on channel=5 note=53 velocity=0 time=0
EXTRACT: note_on channel=6 note=46 velocity=0 time=0
EXTRACT: note_on channel=1 note=75 velocity=88 time=0.0010416666666666667
EXTRACT: note_on channel=2 note=68 velocity=88 time=0
EXTRACT: note_on channel=3 note=65 velocity=88 time=0
EXTRACT: note_on channel=4 note=60 velocity=88 time=0
EXTRACT: note_on channel=5 note=55 velocity=88 time=0
EXTRACT: note_on channel=6 note=48 velocity=80 time=0
EXTRACT: note_on channel=2 note=68 velocity=0 time=0.24895833333333334
EXTRACT: note_on channel=3 note=65 velocity=0 time=0
EXTRACT: note_on channel=4 note=60 velocity=0 time=0
EXTRACT: note_on channel=6 note=48 velocity=0 time=0
EXTRACT: note_on channel=2 note=67 velocity=88 time=0.0010416666666666667
EXTRACT: note_on channel=3 note=63 velocity=88 time=0
EXTRACT: note_on channel=4 note=58 velocity=88 time=0
EXTRACT: note_on channel=6 note=46 velocity=80 time=0
EXTRACT: note_on channel=1 note=75 velocity=0 time=0.24895833333333334
EXTRACT: note_on channel=2 note=67 velocity=0 time=0
EXTRACT: note_on channel=3 note=63 velocity=0 time=0
EXTRACT: note_on channel=4 note=58 velocity=0 time=0
EXTRACT: note_on channel=5 note=55 velocity=0 time=0
EXTRACT: note_on channel=6 note=46 velocity=0 time=0
EXTRACT: note_on channel=1 note=79 velocity=88 time=0.0010416666666666667
EXTRACT: note_on channel=2 note=70 velocity=88 time=0
EXTRACT: note_on channel=3 note=67 velocity=88 time=0
EXTRACT: note_on channel=4 note=63 velocity=88 time=0
EXTRACT: note_on channel=5 note=51 velocity=88 time=0
EXTRACT: note_on channel=5 note=58 velocity=88 time=0
EXTRACT: note_on channel=6 note=51 velocity=80 time=0
EXTRACT: note_on channel=5 note=51 velocity=0 time=0.24895833333333334
EXTRACT: note_on channel=5 note=58 velocity=0 time=0
EXTRACT: note_on channel=6 note=51 velocity=0 time=0
EXTRACT: note_on channel=0 note=67 velocity=80 time=0.0010416666666666667
EXTRACT: note_on channel=0 note=67 velocity=0 time=0.24895833333333334
EXTRACT: note_on channel=0 note=67 velocity=80 time=0.0010416666666666667
EXTRACT: note_on channel=6 note=51 velocity=80 time=0
EXTRACT: note_on channel=0 note=67 velocity=0 time=0.24895833333333334
EXTRACT: note_on channel=1 note=79 velocity=0 time=0
EXTRACT: note_on channel=2 note=70 velocity=0 time=0
EXTRACT: note_on channel=3 note=67 velocity=0 time=0
EXTRACT: note_on channel=4 note=63 velocity=0 time=0
EXTRACT: note_on channel=6 note=51 velocity=0 time=0
EXTRACT: note_on channel=0 note=67 velocity=80 time=0.0010416666666666667
EXTRACT: note_on channel=1 note=79 velocity=88 time=0
EXTRACT: note_on channel=5 note=51 velocity=88 time=0
EXTRACT: note_on channel=5 note=58 velocity=88 time=0
EXTRACT: note_on channel=6 note=39 velocity=80 time=0
EXTRACT: note_on channel=0 note=67 velocity=0 time=0.24895833333333334
EXTRACT: note_on channel=5 note=51 velocity=0 time=0
EXTRACT: note_on channel=5 note=58 velocity=0 time=0
EXTRACT: note_on channel=6 note=39 velocity=0 time=0
EXTRACT: note_on channel=0 note=65 velocity=80 time=0.0010416666666666667
EXTRACT: note_on channel=2 note=70 velocity=88 time=0
EXTRACT: note_on channel=3 note=63 velocity=88 time=0
EXTRACT: note_on channel=4 note=58 velocity=88 time=0
EXTRACT: note_on channel=5 note=51 velocity=88 time=0
EXTRACT: note_on channel=5 note=55 velocity=88 time=0
EXTRACT: note_on channel=6 note=43 velocity=80 time=0
EXTRACT: note_on channel=0 note=65 velocity=0 time=0.24895833333333334
EXTRACT: note_on channel=1 note=79 velocity=0 time=0
EXTRACT: note_on channel=5 note=51 velocity=0 time=0
EXTRACT: note_on channel=5 note=55 velocity=0 time=0
EXTRACT: note_on channel=0 note=63 velocity=80 time=0.0010416666666666667
EXTRACT: note_on channel=1 note=79 velocity=88 time=0
EXTRACT: note_on channel=0 note=63 velocity=0 time=0.24895833333333334
EXTRACT: note_on channel=1 note=79 velocity=0 time=0
EXTRACT: note_on channel=2 note=70 velocity=0 time=0
EXTRACT: note_on channel=3 note=63 velocity=0 time=0
EXTRACT: note_on channel=4 note=58 velocity=0 time=0
EXTRACT: note_on channel=6 note=43 velocity=0 time=0
EXTRACT: note_on channel=0 note=67 velocity=80 time=0.0010416666666666667
EXTRACT: note_on channel=1 note=77 velocity=88 time=0
EXTRACT: note_on channel=2 note=70 velocity=88 time=0
EXTRACT: note_on channel=3 note=58 velocity=88 time=0
EXTRACT: note_on channel=4 note=55 velocity=88 time=0
EXTRACT: note_on channel=6 note=46 velocity=80 time=0
EXTRACT: note_on channel=0 note=67 velocity=0 time=0.24895833333333334
EXTRACT: note_on channel=1 note=77 velocity=0 time=0
EXTRACT: note_on channel=2 note=70 velocity=0 time=0
EXTRACT: note_on channel=3 note=58 velocity=0 time=0
EXTRACT: note_on channel=4 note=55 velocity=0 time=0
EXTRACT: note_on channel=6 note=46 velocity=0 time=0
EXTRACT: note_on channel=0 note=63 velocity=80 time=0.0010416666666666667
EXTRACT: note_on channel=1 note=75 velocity=88 time=0
EXTRACT: note_on channel=2 note=68 velocity=88 time=0
EXTRACT: note_on channel=3 note=63 velocity=88 time=0
EXTRACT: note_on channel=4 note=60 velocity=88 time=0
EXTRACT: note_on channel=5 note=51 velocity=88 time=0
EXTRACT: note_on channel=5 note=56 velocity=88 time=0
EXTRACT: note_on channel=6 note=44 velocity=80 time=0
EXTRACT: note_on channel=1 note=75 velocity=0 time=0.24895833333333334
EXTRACT: note_on channel=5 note=51 velocity=0 time=0
EXTRACT: note_on channel=5 note=56 velocity=0 time=0
EXTRACT: note_on channel=1 note=72 velocity=88 time=0.0010416666666666667
EXTRACT: note_on channel=0 note=63 velocity=0 time=0.24895833333333334
EXTRACT: note_on channel=2 note=68 velocity=0 time=0
EXTRACT: note_on channel=3 note=63 velocity=0 time=0
EXTRACT: note_on channel=4 note=60 velocity=0 time=0
EXTRACT: note_on channel=6 note=44 velocity=0 time=0
EXTRACT: note_on channel=0 note=63 velocity=80 time=0.0010416666666666667
EXTRACT: note_on channel=2 note=68 velocity=88 time=0
EXTRACT: note_on channel=3 note=63 velocity=88 time=0
EXTRACT: note_on channel=4 note=62 velocity=88 time=0
EXTRACT: note_on channel=5 note=51 velocity=88 time=0
EXTRACT: note_on channel=5 note=56 velocity=88 time=0
EXTRACT: note_on channel=6 note=44 velocity=80 time=0
EXTRACT: note_on channel=0 note=63 velocity=0 time=0.12395833333333334
EXTRACT: note_on channel=0 note=65 velocity=80 time=0.0010416666666666667
EXTRACT: note_on channel=0 note=65 velocity=0 time=0.12395833333333334
EXTRACT: note_on channel=1 note=72 velocity=0 time=0
EXTRACT: note_on channel=2 note=68 velocity=0 time=0
EXTRACT: note_on channel=3 note=63 velocity=0 time=0
EXTRACT: note_on channel=5 note=51 velocity=0 time=0
EXTRACT: note_on channel=5 note=56 velocity=0 time=0
EXTRACT: note_on channel=6 note=44 velocity=0 time=0
EXTRACT: note_on channel=0 note=67 velocity=80 time=0.0010416666666666667
EXTRACT: note_on channel=1 note=70 velocity=88 time=0
EXTRACT: note_on channel=2 note=67 velocity=88 time=0
EXTRACT: note_on channel=3 note=65 velocity=88 time=0
EXTRACT: note_on channel=6 note=43 velocity=80 time=0
EXTRACT: note_on channel=2 note=67 velocity=0 time=0.24895833333333334
EXTRACT: note_on channel=3 note=65 velocity=0 time=0
EXTRACT: note_on channel=4 note=62 velocity=0 time=0
EXTRACT: note_on channel=6 note=43 velocity=0 time=0
EXTRACT: note_on channel=2 note=65 velocity=88 time=0.0010416666666666667
EXTRACT: note_on channel=5 note=51 velocity=88 time=0
EXTRACT: note_on channel=5 note=55 velocity=88 time=0
EXTRACT: note_on channel=6 note=41 velocity=80 time=0
EXTRACT: note_on channel=0 note=67 velocity=0 time=0.24895833333333334
EXTRACT: note_on channel=1 note=70 velocity=0 time=0
EXTRACT: note_on channel=2 note=65 velocity=0 time=0
EXTRACT: note_on channel=5 note=51 velocity=0 time=0
EXTRACT: note_on channel=5 note=55 velocity=0 time=0
EXTRACT: note_on channel=1 note=72 velocity=88 time=0.0010416666666666667
EXTRACT: note_on channel=2 note=68 velocity=88 time=0
EXTRACT: note_on channel=3 note=65 velocity=88 time=0
EXTRACT: note_on channel=4 note=62 velocity=88 time=0
EXTRACT: note_on channel=5 note=53 velocity=88 time=0
EXTRACT: note_on channel=2 note=68 velocity=0 time=0.24895833333333334
EXTRACT: note_on channel=3 note=65 velocity=0 time=0
EXTRACT: note_on channel=4 note=62 velocity=0 time=0
EXTRACT: note_on channel=2 note=68 velocity=88 time=0.0010416666666666667
EXTRACT: note_on channel=3 note=65 velocity=88 time=0
EXTRACT: note_on channel=4 note=62 velocity=88 time=0
EXTRACT: note_on channel=1 note=72 velocity=0 time=0.24895833333333334
EXTRACT: note_on channel=2 note=68 velocity=0 time=0
EXTRACT: note_on channel=3 note=65 velocity=0 time=0
EXTRACT: note_on channel=4 note=62 velocity=0 time=0
EXTRACT: note_on channel=5 note=53 velocity=0 time=0
EXTRACT: note_on channel=6 note=41 velocity=0 time=0
EXTRACT: note_on channel=1 note=74 velocity=88 time=0.0010416666666666667
EXTRACT: note_on channel=2 note=68 velocity=88 time=0
EXTRACT: note_on channel=3 note=65 velocity=88 time=0
EXTRACT: note_on channel=4 note=62 velocity=88 time=0
EXTRACT: note_on channel=5 note=55 velocity=88 time=0
EXTRACT: note_on channel=6 note=46 velocity=80 time=0
EXTRACT: note_on channel=2 note=68 velocity=0 time=0.24895833333333334
EXTRACT: note_on channel=3 note=65 velocity=0 time=0
EXTRACT: note_on channel=4 note=62 velocity=0 time=0
EXTRACT: note_on channel=2 note=68 velocity=88 time=0.0010416666666666667
EXTRACT: note_on channel=3 note=65 velocity=88 time=0
EXTRACT: note_on channel=4 note=62 velocity=88 time=0
EXTRACT: note_on channel=1 note=74 velocity=0 time=0.24895833333333334
EXTRACT: note_on channel=2 note=68 velocity=0 time=0
EXTRACT: note_on channel=3 note=65 velocity=0 time=0
EXTRACT: note_on channel=4 note=62 velocity=0 time=0
EXTRACT: note_on channel=5 note=55 velocity=0 time=0
EXTRACT: note_on channel=6 note=46 velocity=0 time=0
EXTRACT: note_on channel=1 note=75 velocity=88 time=0.0010416666666666667
EXTRACT: note_on channel=2 note=70 velocity=88 time=0
EXTRACT: note_on channel=3 note=67 velocity=88 time=0
EXTRACT: note_on channel=4 note=63 velocity=88 time=0
EXTRACT: note_on channel=5 note=55 velocity=88 time=0
EXTRACT: note_on channel=6 note=48 velocity=80 time=0
EXTRACT: note_on channel=0 note=67 velocity=80 time=0.25
EXTRACT: note_on channel=0 note=67 velocity=0 time=0.24895833333333334
EXTRACT: note_on channel=0 note=67 velocity=80 time=0.0010416666666666667
EXTRACT: note_on channel=0 note=67 velocity=0 time=0.24895833333333334
EXTRACT: note_on channel=1 note=75 velocity=0 time=0
EXTRACT: note_on channel=2 note=70 velocity=0 time=0
EXTRACT: note_on channel=3 note=67 velocity=0 time=0
EXTRACT: note_on channel=4 note=63 velocity=0 time=0
EXTRACT: note_on channel=5 note=55 velocity=0 time=0
EXTRACT: note_on channel=6 note=48 velocity=0 time=0
EXTRACT: note_on channel=0 note=67 velocity=80 time=0.0010416666666666667
EXTRACT: note_on channel=1 note=70 velocity=88 time=0
EXTRACT: note_on channel=2 note=65 velocity=79 time=0
EXTRACT: note_on channel=3 note=63 velocity=79 time=0
EXTRACT: note_on channel=4 note=58 velocity=79 time=0
EXTRACT: note_on channel=5 note=55 velocity=79 time=0
EXTRACT: note_on channel=6 note=43 velocity=80 time=0
EXTRACT: note_on channel=0 note=67 velocity=0 time=0.24895833333333334
EXTRACT: note_on channel=0 note=65 velocity=80 time=0.0010416666666666667
EXTRACT: note_on channel=0 note=65 velocity=0 time=0.06354166666666666
EXTRACT: note_on channel=0 note=63 velocity=80 time=0.0010416666666666667
EXTRACT: note_on channel=0 note=63 velocity=0 time=0.18333333333333332
EXTRACT: note_on channel=0 note=63 velocity=80 time=0.0020833333333333333
EXTRACT: note_on channel=0 note=63 velocity=0 time=0.24895833333333334
EXTRACT: note_on channel=0 note=63 velocity=80 time=0.0010416666666666667
EXTRACT: note_on channel=1 note=70 velocity=0 time=0.24895833333333334
EXTRACT: note_on channel=2 note=65 velocity=0 time=0
EXTRACT: note_on channel=3 note=63 velocity=0 time=0
EXTRACT: note_on channel=4 note=58 velocity=0 time=0
EXTRACT: note_on channel=5 note=55 velocity=0 time=0
EXTRACT: note_on channel=6 note=43 velocity=0 time=0
EXTRACT: note_on channel=0 note=63 velocity=0 time=0.25
EXTRACT: note_on channel=1 note=68 velocity=88 time=0.0010416666666666667
EXTRACT: note_on channel=2 note=65 velocity=75 time=0
EXTRACT: note_on channel=3 note=63 velocity=75 time=0
EXTRACT: note_on channel=4 note=60 velocity=75 time=0
EXTRACT: note_on channel=5 note=56 velocity=75 time=0
EXTRACT: note_on channel=6 note=44 velocity=80 time=0
EXTRACT: note_on channel=0 note=67 velocity=80 time=0.25
EXTRACT: note_on channel=0 note=67 velocity=0 time=0.24895833333333334
EXTRACT: note_on channel=0 note=67 velocity=80 time=0.0010416666666666667
EXTRACT: note_on channel=0 note=67 velocity=0 time=0.24895833333333334
EXTRACT: note_on channel=1 note=68 velocity=0 time=0
EXTRACT: note_on channel=2 note=65 velocity=0 time=0
EXTRACT: note_on channel=3 note=63 velocity=0 time=0
EXTRACT: note_on channel=4 note=60 velocity=0 time=0
EXTRACT: note_on channel=5 note=56 velocity=0 time=0
EXTRACT: note_on channel=6 note=44 velocity=0 time=0
EXTRACT: note_on channel=0 note=70 velocity=80 time=0.0010416666666666667
EXTRACT: note_on channel=1 note=69 velocity=88 time=0
EXTRACT: note_on channel=2 note=66 velocity=75 time=0
EXTRACT: note_on channel=3 note=63 velocity=75 time=0
EXTRACT: note_on channel=4 note=60 velocity=75 time=0
EXTRACT: note_on channel=5 note=57 velocity=75 time=0
EXTRACT: note_on channel=6 note=45 velocity=80 time=0
EXTRACT: note_on channel=0 note=70 velocity=0 time=0.24895833333333334
EXTRACT: note_on channel=0 note=65 velocity=80 time=0.0010416666666666667
EXTRACT: note_on channel=0 note=65 velocity=0 time=0.24895833333333334
EXTRACT: note_on channel=0 note=63 velocity=80 time=0.0010416666666666667
EXTRACT: note_on channel=0 note=63 velocity=0 time=0.24895833333333334
EXTRACT: note_on channel=0 note=65 velocity=80 time=0.0010416666666666667
EXTRACT: note_on channel=0 note=65 velocity=0 time=0.06354166666666666
EXTRACT: note_on channel=0 note=63 velocity=80 time=0.0010416666666666667
EXTRACT: note_on channel=0 note=63 velocity=0 time=0.18333333333333332
EXTRACT: note_on channel=1 note=69 velocity=0 time=0.0010416666666666667
EXTRACT: note_on channel=2 note=66 velocity=0 time=0
EXTRACT: note_on channel=3 note=63 velocity=0 time=0
EXTRACT: note_on channel=4 note=60 velocity=0 time=0
EXTRACT: note_on channel=5 note=57 velocity=0 time=0
EXTRACT: note_on channel=6 note=45 velocity=0 time=0
EXTRACT: note_on channel=0 note=60 velocity=80 time=0.0010416666666666667
EXTRACT: note_on channel=0 note=60 velocity=0 time=0.24895833333333334
EXTRACT: note_on channel=1 note=70 velocity=88 time=0.0010416666666666667
EXTRACT: note_on channel=2 note=65 velocity=75 time=0
EXTRACT: note_on channel=3 note=63 velocity=75 time=0
EXTRACT: note_on channel=4 note=60 velocity=75 time=0
EXTRACT: note_on channel=5 note=58 velocity=75 time=0
EXTRACT: note_on channel=6 note=46 velocity=80 time=0
EXTRACT: note_on channel=0 note=67 velocity=80 time=0.25
EXTRACT: note_on channel=0 note=67 velocity=0 time=0.24895833333333334
EXTRACT: note_on channel=6 note=46 velocity=0 time=0
EXTRACT: note_on channel=0 note=67 velocity=80 time=0.0010416666666666667
EXTRACT: note_on channel=6 note=46 velocity=80 time=0
EXTRACT: note_on channel=0 note=67 velocity=0 time=0.24895833333333334
EXTRACT: note_on channel=0 note=67 velocity=80 time=0.0010416666666666667
EXTRACT: note_on channel=0 note=67 velocity=0 time=0.24895833333333334
EXTRACT: note_on channel=1 note=70 velocity=0 time=0
EXTRACT: note_on channel=2 note=65 velocity=0 time=0
EXTRACT: note_on channel=3 note=63 velocity=0 time=0
EXTRACT: note_on channel=4 note=60 velocity=0 time=0
EXTRACT: note_on channel=5 note=58 velocity=0 time=0
EXTRACT: note_on channel=6 note=46 velocity=0 time=0
EXTRACT: note_on channel=0 note=65 velocity=80 time=0.0010416666666666667
EXTRACT: note_on channel=1 note=70 velocity=88 time=0
EXTRACT: note_on channel=2 note=68 velocity=75 time=0
EXTRACT: note_on channel=3 note=65 velocity=75 time=0
EXTRACT: note_on channel=4 note=63 velocity=75 time=0
EXTRACT: note_on channel=5 note=58 velocity=75 time=0
EXTRACT: note_on channel=6 note=46 velocity=80 time=0
EXTRACT: note_on channel=0 note=65 velocity=0 time=0.24895833333333334
EXTRACT: note_on channel=0 note=63 velocity=80 time=0.0010416666666666667
EXTRACT: note_on channel=0 note=63 velocity=0 time=0.24895833333333334
EXTRACT: note_on channel=6 note=46 velocity=0 time=0
EXTRACT: note_on channel=0 note=63 velocity=80 time=0.0010416666666666667
EXTRACT: note_on channel=6 note=46 velocity=80 time=0
EXTRACT: note_on channel=0 note=63 velocity=0 time=0.24895833333333334
EXTRACT: note_on channel=0 note=63 velocity=80 time=0.0010416666666666667
EXTRACT: note_on channel=0 note=63 velocity=0 time=0.24895833333333334
EXTRACT: note_on channel=1 note=70 velocity=0 time=0
EXTRACT: note_on channel=2 note=68 velocity=0 time=0
EXTRACT: note_on channel=3 note=65 velocity=0 time=0
EXTRACT: note_on channel=4 note=63 velocity=0 time=0
EXTRACT: note_on channel=5 note=58 velocity=0 time=0
EXTRACT: note_on channel=6 note=46 velocity=0 time=0
EXTRACT: note_on channel=0 note=67 velocity=80 time=0.0010416666666666667
EXTRACT: note_on channel=1 note=72 velocity=88 time=0
EXTRACT: note_on channel=2 note=70 velocity=75 time=0
EXTRACT: note_on channel=3 note=67 velocity=75 time=0
EXTRACT: note_on channel=4 note=65 velocity=75 time=0
EXTRACT: note_on channel=5 note=58 velocity=75 time=0
EXTRACT: note_on channel=6 note=46 velocity=80 time=0
EXTRACT: note_on channel=0 note=67 velocity=0 time=0.49895833333333334
EXTRACT: note_on channel=1 note=72 velocity=0 time=0
EXTRACT: note_on channel=2 note=70 velocity=0 time=0
EXTRACT: note_on channel=3 note=67 velocity=0 time=0
EXTRACT: note_on channel=4 note=65 velocity=0 time=0
EXTRACT: note_on channel=5 note=58 velocity=0 time=0
EXTRACT: note_on channel=6 note=46 velocity=0 time=0
EXTRACT: note_on channel=0 note=67 velocity=80 time=0.0010416666666666667
EXTRACT: note_on channel=1 note=72 velocity=88 time=0
EXTRACT: note_on channel=2 note=70 velocity=75 time=0
EXTRACT: note_on channel=3 note=67 velocity=75 time=0
EXTRACT: note_on channel=4 note=65 velocity=75 time=0
EXTRACT: note_on channel=5 note=58 velocity=75 time=0
EXTRACT: note_on channel=6 note=46 velocity=80 time=0
EXTRACT: note_on channel=0 note=67 velocity=0 time=0.49895833333333334
EXTRACT: note_on channel=1 note=72 velocity=0 time=0
EXTRACT: note_on channel=2 note=70 velocity=0 time=0
EXTRACT: note_on channel=3 note=67 velocity=0 time=0
EXTRACT: note_on channel=4 note=65 velocity=0 time=0
EXTRACT: note_on channel=5 note=58 velocity=0 time=0
EXTRACT: note_on channel=6 note=46 velocity=0 time=0
EXTRACT: note_on channel=0 note=65 velocity=80 time=0.0010416666666666667
EXTRACT: note_on channel=1 note=72 velocity=88 time=0
EXTRACT: note_on channel=2 note=70 velocity=75 time=0
EXTRACT: note_on channel=3 note=67 velocity=75 time=0
EXTRACT: note_on channel=4 note=65 velocity=75 time=0
EXTRACT: note_on channel=5 note=58 velocity=75 time=0
EXTRACT: note_on channel=6 note=48 velocity=80 time=0
EXTRACT: note_on channel=3 note=67 velocity=0 time=0.24895833333333334
EXTRACT: note_on channel=6 note=48 velocity=0 time=0
EXTRACT: note_on channel=3 note=65 velocity=75 time=0.0010416666666666667
EXTRACT: note_on channel=6 note=46 velocity=80 time=0
EXTRACT: note_on channel=0 note=65 velocity=0 time=0.24895833333333334
EXTRACT: note_on channel=1 note=72 velocity=0 time=0
EXTRACT: note_on channel=2 note=70 velocity=0 time=0
EXTRACT: note_on channel=3 note=65 velocity=0 time=0
EXTRACT: note_on channel=4 note=65 velocity=0 time=0
EXTRACT: note_on channel=5 note=58 velocity=0 time=0
EXTRACT: note_on channel=6 note=46 velocity=0 time=0
EXTRACT: note_on channel=0 note=63 velocity=80 time=0.0010416666666666667
EXTRACT: note_on channel=1 note=70 velocity=88 time=0
EXTRACT: note_on channel=2 note=70 velocity=75 time=0
EXTRACT: note_on channel=3 note=63 velocity=75 time=0
EXTRACT: note_on channel=4 note=63 velocity=75 time=0
EXTRACT: note_on channel=5 note=58 velocity=75 time=0
EXTRACT: note_on channel=6 note=46 velocity=80 time=0
EXTRACT: note_on channel=0 note=63 velocity=0 time=0.24895833333333334
EXTRACT: note_on channel=1 note=70 velocity=0 time=0
EXTRACT: note_on channel=2 note=70 velocity=0 time=0
EXTRACT: note_on channel=3 note=63 velocity=0 time=0
EXTRACT: note_on channel=0 note=63 velocity=80 time=0.0010416666666666667
EXTRACT: note_on channel=1 note=75 velocity=88 time=0
EXTRACT: note_on channel=2 note=70 velocity=75 time=0
EXTRACT: note_on channel=3 note=63 velocity=75 time=0
EXTRACT: note_on channel=1 note=75 velocity=0 time=0.24895833333333334
EXTRACT: note_on channel=2 note=70 velocity=0 time=0
EXTRACT: note_on channel=3 note=63 velocity=0 time=0
EXTRACT: note_on channel=4 note=63 velocity=0 time=0
EXTRACT: note_on channel=5 note=58 velocity=0 time=0
EXTRACT: note_on channel=6 note=46 velocity=0 time=0
EXTRACT: note_on channel=4 note=63 velocity=75 time=0.0010416666666666667
EXTRACT: note_on channel=5 note=55 velocity=75 time=0
EXTRACT: note_on channel=6 note=51 velocity=80 time=0
EXTRACT: note_on channel=0 note=63 velocity=0 time=0.24895833333333334
EXTRACT: note_on channel=4 note=63 velocity=0 time=0
EXTRACT: note_on channel=5 note=55 velocity=0 time=0
EXTRACT: note_on channel=6 note=51 velocity=0 time=0
EXTRACT: note_on channel=1 note=67 velocity=88 time=0.25104166666666666
EXTRACT: note_on channel=2 note=63 velocity=75 time=0
EXTRACT: note_on channel=3 note=58 velocity=75 time=0
EXTRACT: note_on channel=1 note=67 velocity=0 time=0.24895833333333334
EXTRACT: note_on channel=2 note=63 velocity=0 time=0
EXTRACT: note_on channel=3 note=58 velocity=0 time=0
EXTRACT: note_on channel=1 note=67 velocity=88 time=0.0010416666666666667
EXTRACT: note_on channel=2 note=63 velocity=75 time=0
EXTRACT: note_on channel=3 note=58 velocity=75 time=0
EXTRACT: note_on channel=4 note=63 velocity=75 time=0
EXTRACT: note_on channel=5 note=55 velocity=75 time=0
EXTRACT: note_on channel=6 note=51 velocity=80 time=0
EXTRACT: note_on channel=1 note=67 velocity=0 time=0.24895833333333334
EXTRACT: note_on channel=2 note=63 velocity=0 time=0
EXTRACT: note_on channel=3 note=58 velocity=0 time=0
EXTRACT: note_on channel=4 note=63 velocity=0 time=0
EXTRACT: note_on channel=5 note=55 velocity=0 time=0
EXTRACT: note_on channel=6 note=51 velocity=0 time=0
EXTRACT: note_on channel=1 note=68 velocity=88 time=0.0010416666666666667
EXTRACT: note_on channel=2 note=65 velocity=75 time=0
EXTRACT: note_on channel=3 note=60 velocity=75 time=0
EXTRACT: note_on channel=4 note=58 velocity=75 time=0
EXTRACT: note_on channel=5 note=50 velocity=75 time=0
EXTRACT: note_on channel=6 note=43 velocity=80 time=0
EXTRACT: note_on channel=1 note=68 velocity=0 time=0.24895833333333334
EXTRACT: note_on channel=2 note=65 velocity=0 time=0
EXTRACT: note_on channel=3 note=60 velocity=0 time=0
EXTRACT: note_on channel=4 note=58 velocity=0 time=0
EXTRACT: note_on channel=5 note=50 velocity=0 time=0
EXTRACT: note_on channel=6 note=43 velocity=0 time=0
EXTRACT: note_on channel=1 note=70 velocity=88 time=0.0010416666666666667
EXTRACT: note_on channel=2 note=67 velocity=75 time=0
EXTRACT: note_on channel=3 note=63 velocity=75 time=0
EXTRACT: note_on channel=1 note=70 velocity=0 time=0.24895833333333334
EXTRACT: note_on channel=2 note=67 velocity=0 time=0
EXTRACT: note_on channel=3 note=63 velocity=0 time=0
EXTRACT: note_on channel=1 note=67 velocity=75 time=0.25104166666666666
EXTRACT: note_on channel=2 note=63 velocity=88 time=0
EXTRACT: note_on channel=3 note=60 velocity=75 time=0
EXTRACT: note_on channel=4 note=60 velocity=75 time=0
EXTRACT: note_on channel=5 note=51 velocity=75 time=0
EXTRACT: note_on channel=6 note=44 velocity=80 time=0
EXTRACT: note_on channel=4 note=60 velocity=0 time=0.24895833333333334
EXTRACT: note_on channel=5 note=51 velocity=0 time=0
EXTRACT: note_on channel=6 note=44 velocity=0 time=0
EXTRACT: note_on channel=1 note=67 velocity=0 time=0.25
EXTRACT: note_on channel=2 note=63 velocity=0 time=0
EXTRACT: note_on channel=3 note=60 velocity=0 time=0
EXTRACT: note_on channel=1 note=70 velocity=75 time=0.0010416666666666667
EXTRACT: note_on channel=2 note=67 velocity=88 time=0
EXTRACT: note_on channel=3 note=63 velocity=75 time=0
EXTRACT: note_on channel=4 note=60 velocity=75 time=0
EXTRACT: note_on channel=5 note=51 velocity=75 time=0
EXTRACT: note_on channel=6 note=44 velocity=80 time=0
EXTRACT: note_on channel=1 note=70 velocity=0 time=0.24895833333333334
EXTRACT: note_on channel=2 note=67 velocity=0 time=0
EXTRACT: note_on channel=3 note=63 velocity=0 time=0
EXTRACT: note_on channel=4 note=60 velocity=0 time=0
EXTRACT: note_on channel=5 note=51 velocity=0 time=0
EXTRACT: note_on channel=6 note=44 velocity=0 time=0
EXTRACT: note_on channel=1 note=70 velocity=75 time=0.0010416666666666667
EXTRACT: note_on channel=2 note=67 velocity=88 time=0
EXTRACT: note_on channel=3 note=63 velocity=75 time=0
EXTRACT: note_on channel=1 note=70 velocity=0 time=0.24895833333333334
EXTRACT: note_on channel=2 note=67 velocity=0 time=0
EXTRACT: note_on channel=3 note=63 velocity=0 time=0
EXTRACT: note_on channel=1 note=67 velocity=75 time=0.0010416666666666667
EXTRACT: note_on channel=2 note=63 velocity=88 time=0
EXTRACT: note_on channel=3 note=60 velocity=75 time=0
EXTRACT: note_on channel=4 note=60 velocity=75 time=0
EXTRACT: note_on channel=5 note=51 velocity=75 time=0
EXTRACT: note_on channel=6 note=44 velocity=80 time=0
EXTRACT: note_on channel=1 note=67 velocity=0 time=0.24895833333333334
EXTRACT: note_on channel=2 note=63 velocity=0 time=0
EXTRACT: note_on channel=3 note=60 velocity=0 time=0
EXTRACT: note_on channel=4 note=60 velocity=0 time=0
EXTRACT: note_on channel=5 note=51 velocity=0 time=0
EXTRACT: note_on channel=6 note=44 velocity=0 time=0
EXTRACT: note_on channel=1 note=70 velocity=75 time=0.0010416666666666667
EXTRACT: note_on channel=2 note=67 velocity=88 time=0
EXTRACT: note_on channel=3 note=62 velocity=75 time=0
EXTRACT: note_on channel=4 note=62 velocity=75 time=0
EXTRACT: note_on channel=5 note=53 velocity=75 time=0
EXTRACT: note_on channel=6 note=46 velocity=80 time=0
EXTRACT: note_on channel=1 note=70 velocity=0 time=0.49895833333333334
EXTRACT: note_on channel=2 note=67 velocity=0 time=0
EXTRACT: note_on channel=3 note=62 velocity=0 time=0
EXTRACT: note_on channel=4 note=62 velocity=0 time=0
EXTRACT: note_on channel=5 note=53 velocity=0 time=0
EXTRACT: note_on channel=6 note=46 velocity=0 time=0
EXTRACT: note_on channel=1 note=68 velocity=75 time=0.0010416666666666667
EXTRACT: note_on channel=2 note=65 velocity=88 time=0
EXTRACT: note_on channel=3 note=60 velocity=75 time=0
EXTRACT: note_on channel=4 note=62 velocity=75 time=0
EXTRACT: note_on channel=5 note=53 velocity=75 time=0
EXTRACT: note_on channel=6 note=46 velocity=80 time=0
EXTRACT: note_on channel=1 note=68 velocity=0 time=0.24895833333333334
EXTRACT: note_on channel=2 note=65 velocity=0 time=0
EXTRACT: note_on channel=3 note=60 velocity=0 time=0
EXTRACT: note_on channel=1 note=67 velocity=75 time=0.0010416666666666667
EXTRACT: note_on channel=2 note=63 velocity=88 time=0
EXTRACT: note_on channel=3 note=58 velocity=75 time=0
EXTRACT: note_on channel=1 note=67 velocity=0 time=0.24895833333333334
EXTRACT: note_on channel=2 note=63 velocity=0 time=0
EXTRACT: note_on channel=3 note=58 velocity=0 time=0
EXTRACT: note_on channel=4 note=62 velocity=0 time=0
EXTRACT: note_on channel=5 note=53 velocity=0 time=0
EXTRACT: note_on channel=6 note=46 velocity=0 time=0
EXTRACT: note_on channel=4 note=63 velocity=75 time=0.0010416666666666667
EXTRACT: note_on channel=5 note=55 velocity=75 time=0
EXTRACT: note_on channel=6 note=51 velocity=80 time=0
EXTRACT: note_on channel=4 note=63 velocity=0 time=0.24895833333333334
EXTRACT: note_on channel=5 note=55 velocity=0 time=0
EXTRACT: note_on channel=6 note=51 velocity=0 time=0
EXTRACT: note_on channel=1 note=67 velocity=88 time=0.25104166666666666
EXTRACT: note_on channel=2 note=63 velocity=75 time=0
EXTRACT: note_on channel=3 note=58 velocity=75 time=0
EXTRACT: note_on channel=1 note=67 velocity=0 time=0.24895833333333334
EXTRACT: note_on channel=2 note=63 velocity=0 time=0
EXTRACT: note_on channel=3 note=58 velocity=0 time=0
EXTRACT: note_on channel=1 note=67 velocity=88 time=0.0010416666666666667
EXTRACT: note_on channel=2 note=63 velocity=75 time=0
EXTRACT: note_on channel=3 note=58 velocity=75 time=0
EXTRACT: note_on channel=4 note=63 velocity=75 time=0
EXTRACT: note_on channel=5 note=55 velocity=75 time=0
EXTRACT: note_on channel=6 note=51 velocity=80 time=0
EXTRACT: note_on channel=1 note=67 velocity=0 time=0.24895833333333334
EXTRACT: note_on channel=2 note=63 velocity=0 time=0
EXTRACT: note_on channel=3 note=58 velocity=0 time=0
EXTRACT: note_on channel=4 note=63 velocity=0 time=0
EXTRACT: note_on channel=5 note=55 velocity=0 time=0
EXTRACT: note_on channel=6 note=51 velocity=0 time=0
EXTRACT: note_on channel=1 note=68 velocity=88 time=0.0010416666666666667
EXTRACT: note_on channel=2 note=65 velocity=75 time=0
EXTRACT: note_on channel=3 note=60 velocity=75 time=0
EXTRACT: note_on channel=4 note=58 velocity=75 time=0
EXTRACT: note_on channel=5 note=50 velocity=75 time=0
EXTRACT: note_on channel=6 note=43 velocity=80 time=0
EXTRACT: note_on channel=1 note=68 velocity=0 time=0.24895833333333334
EXTRACT: note_on channel=2 note=65 velocity=0 time=0
EXTRACT: note_on channel=3 note=60 velocity=0 time=0
EXTRACT: note_on channel=4 note=58 velocity=0 time=0
EXTRACT: note_on channel=5 note=50 velocity=0 time=0
EXTRACT: note_on channel=6 note=43 velocity=0 time=0
EXTRACT: note_on channel=1 note=70 velocity=88 time=0.0010416666666666667
EXTRACT: note_on channel=2 note=67 velocity=75 time=0
EXTRACT: note_on channel=3 note=63 velocity=75 time=0
EXTRACT: note_on channel=1 note=70 velocity=0 time=0.24895833333333334
EXTRACT: note_on channel=2 note=67 velocity=0 time=0
EXTRACT: note_on channel=3 note=63 velocity=0 time=0
EXTRACT: note_on channel=1 note=67 velocity=75 time=0.25104166666666666
EXTRACT: note_on channel=2 note=63 velocity=88 time=0
EXTRACT: note_on channel=3 note=60 velocity=75 time=0
EXTRACT: note_on channel=1 note=67 velocity=0 time=0.49895833333333334
EXTRACT: note_on channel=2 note=63 velocity=0 time=0
EXTRACT: note_on channel=3 note=60 velocity=0 time=0
EXTRACT: note_on channel=1 note=70 velocity=75 time=0.0010416666666666667
EXTRACT: note_on channel=2 note=67 velocity=88 time=0
EXTRACT: note_on channel=3 note=63 velocity=75 time=0
EXTRACT: note_on channel=1 note=70 velocity=0 time=0.24895833333333334
EXTRACT: note_on channel=2 note=67 velocity=0 time=0
EXTRACT: note_on channel=3 note=63 velocity=0 time=0
EXTRACT: note_on channel=1 note=70 velocity=75 time=0.0010416666666666667
EXTRACT: note_on channel=2 note=67 velocity=88 time=0
EXTRACT: note_on channel=3 note=63 velocity=75 time=0
EXTRACT: note_on channel=1 note=70 velocity=0 time=0.24895833333333334
EXTRACT: note_on channel=2 note=67 velocity=0 time=0
EXTRACT: note_on channel=3 note=63 velocity=0 time=0
EXTRACT: note_on channel=1 note=67 velocity=75 time=0.0010416666666666667
EXTRACT: note_on channel=2 note=63 velocity=88 time=0
EXTRACT: note_on channel=3 note=60 velocity=75 time=0
EXTRACT: note_on channel=1 note=67 velocity=0 time=0.24895833333333334
EXTRACT: note_on channel=2 note=63 velocity=0 time=0
EXTRACT: note_on channel=3 note=60 velocity=0 time=0
EXTRACT: note_on channel=1 note=70 velocity=75 time=0.0010416666666666667
EXTRACT: note_on channel=2 note=67 velocity=88 time=0
EXTRACT: note_on channel=3 note=63 velocity=75 time=0
EXTRACT: note_on channel=1 note=70 velocity=0 time=0.49895833333333334
EXTRACT: note_on channel=2 note=67 velocity=0 time=0
EXTRACT: note_on channel=3 note=63 velocity=0 time=0
EXTRACT: note_on channel=1 note=71 velocity=75 time=0.0010416666666666667
EXTRACT: note_on channel=2 note=65 velocity=88 time=0
EXTRACT: note_on channel=2 note=67 velocity=88 time=0
EXTRACT: note_on channel=3 note=62 velocity=75 time=0
EXTRACT: note_on channel=1 note=71 velocity=0 time=0.49895833333333334
EXTRACT: note_on channel=2 note=65 velocity=0 time=0
EXTRACT: note_on channel=2 note=67 velocity=0 time=0
EXTRACT: note_on channel=3 note=62 velocity=0 time=0
EXTRACT: note_on channel=6 note=51 velocity=80 time=0
EXTRACT: note_on channel=6 note=51 velocity=0 time=0.37395833333333334
EXTRACT: note_on channel=6 note=51 velocity=80 time=0.0010416666666666667
EXTRACT: note_on channel=6 note=51 velocity=0 time=0.37395833333333334
EXTRACT: note_on channel=6 note=51 velocity=80 time=0.0010416666666666667
EXTRACT: note_on channel=6 note=51 velocity=0 time=0.37395833333333334
EXTRACT: note_on channel=6 note=51 velocity=80 time=0.0010416666666666667
EXTRACT: note_on channel=3 note=63 velocity=62 time=0.125
EXTRACT: note_on channel=4 note=58 velocity=62 time=0
EXTRACT: note_on channel=3 note=63 velocity=0 time=0.24895833333333334
EXTRACT: note_on channel=4 note=58 velocity=0 time=0
EXTRACT: note_on channel=6 note=51 velocity=0 time=0
EXTRACT: note_on channel=3 note=58 velocity=62 time=0.0010416666666666667
EXTRACT: note_on channel=4 note=55 velocity=62 time=0
EXTRACT: note_on channel=6 note=48 velocity=80 time=0
EXTRACT: note_on channel=6 note=48 velocity=0 time=0.12395833333333334
EXTRACT: note_on channel=6 note=49 velocity=80 time=0.0010416666666666667
EXTRACT: note_on channel=6 note=49 velocity=0 time=0.12395833333333334
EXTRACT: note_on channel=6 note=50 velocity=80 time=0.0010416666666666667
EXTRACT: note_on channel=3 note=58 velocity=0 time=0.24895833333333334
EXTRACT: note_on channel=4 note=55 velocity=0 time=0
EXTRACT: note_on channel=6 note=50 velocity=0 time=0
EXTRACT: note_on channel=6 note=51 velocity=80 time=0.0010416666666666667
EXTRACT: note_on channel=6 note=51 velocity=0 time=0.37395833333333334
EXTRACT: note_on channel=6 note=51 velocity=80 time=0.0010416666666666667
EXTRACT: note_on channel=3 note=58 velocity=62 time=0.125
EXTRACT: note_on channel=4 note=55 velocity=62 time=0
EXTRACT: note_on channel=3 note=58 velocity=0 time=0.24895833333333334
EXTRACT: note_on channel=4 note=55 velocity=0 time=0
EXTRACT: note_on channel=6 note=51 velocity=0 time=0
EXTRACT: note_on channel=3 note=58 velocity=62 time=0.0010416666666666667
EXTRACT: note_on channel=4 note=55 velocity=62 time=0
EXTRACT: note_on channel=6 note=51 velocity=80 time=0
EXTRACT: note_on channel=3 note=58 velocity=0 time=0.24895833333333334
EXTRACT: note_on channel=4 note=55 velocity=0 time=0
EXTRACT: note_on channel=6 note=51 velocity=0 time=0
EXTRACT: note_on channel=3 note=60 velocity=62 time=0.0010416666666666667
EXTRACT: note_on channel=4 note=56 velocity=62 time=0
EXTRACT: note_on channel=6 note=43 velocity=80 time=0
EXTRACT: note_on channel=6 note=43 velocity=0 time=0.12395833333333334
EXTRACT: note_on channel=6 note=44 velocity=80 time=0.0010416666666666667
EXTRACT: note_on channel=6 note=44 velocity=0 time=0.12395833333333334
EXTRACT: note_on channel=6 note=45 velocity=80 time=0.0010416666666666667
EXTRACT: note_on channel=3 note=60 velocity=0 time=0.24895833333333334
EXTRACT: note_on channel=4 note=56 velocity=0 time=0
EXTRACT: note_on channel=6 note=45 velocity=0 time=0
EXTRACT: note_on channel=3 note=63 velocity=62 time=0.0010416666666666667
EXTRACT: note_on channel=4 note=58 velocity=62 time=0
EXTRACT: note_on channel=6 note=48 velocity=80 time=0
EXTRACT: note_on channel=6 note=48 velocity=0 time=0.12395833333333334
EXTRACT: note_on channel=6 note=49 velocity=80 time=0.0010416666666666667
EXTRACT: note_on channel=6 note=49 velocity=0 time=0.12395833333333334
EXTRACT: note_on channel=6 note=50 velocity=80 time=0.0010416666666666667
EXTRACT: note_on channel=3 note=63 velocity=0 time=0.24895833333333334
EXTRACT: note_on channel=4 note=58 velocity=0 time=0
EXTRACT: note_on channel=6 note=50 velocity=0 time=0
EXTRACT: note_on channel=6 note=51 velocity=80 time=0.0010416666666666667
EXTRACT: note_on channel=6 note=51 velocity=0 time=0.49895833333333334
EXTRACT: note_on channel=2 note=63 velocity=62 time=0.0010416666666666667
EXTRACT: note_on channel=6 note=51 velocity=80 time=0
EXTRACT: note_on channel=2 note=63 velocity=0 time=0.24895833333333334
EXTRACT: note_on channel=2 note=63 velocity=62 time=0.0010416666666666667
EXTRACT: note_on channel=2 note=63 velocity=0 time=0.24895833333333334
EXTRACT: note_on channel=6 note=51 velocity=0 time=0
EXTRACT: note_on channel=2 note=65 velocity=62 time=0.0010416666666666667
EXTRACT: note_on channel=2 note=65 velocity=0 time=0.24895833333333334
EXTRACT: note_on channel=1 note=67 velocity=62 time=0.0010416666666666667
EXTRACT: note_on channel=2 note=67 velocity=62 time=0
EXTRACT: note_on channel=3 note=63 velocity=62 time=0
EXTRACT: note_on channel=4 note=58 velocity=62 time=0
EXTRACT: note_on channel=6 note=51 velocity=80 time=0
EXTRACT: note_on channel=1 note=67 velocity=0 time=0.24895833333333334
EXTRACT: note_on channel=3 note=63 velocity=0 time=0
EXTRACT: note_on channel=4 note=58 velocity=0 time=0
EXTRACT: note_on channel=6 note=51 velocity=0 time=0
EXTRACT: note_on channel=1 note=63 velocity=62 time=0.0010416666666666667
EXTRACT: note_on channel=3 note=58 velocity=62 time=0
EXTRACT: note_on channel=4 note=55 velocity=62 time=0
EXTRACT: note_on channel=6 note=49 velocity=80 time=0
EXTRACT: note_on channel=2 note=67 velocity=0 time=0.24895833333333334
EXTRACT: note_on channel=6 note=49 velocity=0 time=0
EXTRACT: note_on channel=2 note=63 velocity=62 time=0.0010416666666666667
EXTRACT: note_on channel=6 note=50 velocity=80 time=0
EXTRACT: note_on channel=1 note=63 velocity=0 time=0.24895833333333334
EXTRACT: note_on channel=3 note=58 velocity=0 time=0
EXTRACT: note_on channel=4 note=55 velocity=0 time=0
EXTRACT: note_on channel=6 note=50 velocity=0 time=0
EXTRACT: note_on channel=6 note=51 velocity=80 time=0.0010416666666666667
EXTRACT: note_on channel=2 note=63 velocity=0 time=0.24895833333333334
EXTRACT: note_on channel=2 note=63 velocity=62 time=0.0010416666666666667
EXTRACT: note_on channel=6 note=51 velocity=0 time=0.12395833333333334
EXTRACT: note_on channel=6 note=51 velocity=80 time=0.0010416666666666667
EXTRACT: note_on channel=2 note=63 velocity=0 time=0.12395833333333334
EXTRACT: note_on channel=2 note=63 velocity=62 time=0.0010416666666666667
EXTRACT: note_on channel=2 note=63 velocity=0 time=0.24895833333333334
EXTRACT: note_on channel=6 note=51 velocity=0 time=0
EXTRACT: note_on channel=2 note=63 velocity=62 time=0.0010416666666666667
EXTRACT: note_on channel=6 note=51 velocity=80 time=0
EXTRACT: note_on channel=6 note=51 velocity=0 time=0.24895833333333334
EXTRACT: note_on channel=1 note=67 velocity=62 time=0.0010416666666666667
EXTRACT: note_on channel=3 note=63 velocity=62 time=0
EXTRACT: note_on channel=6 note=51 velocity=80 time=0
EXTRACT: note_on channel=6 note=51 velocity=0 time=0.12395833333333334
EXTRACT: note_on channel=6 note=50 velocity=80 time=0.0010416666666666667
EXTRACT: note_on channel=1 note=67 velocity=0 time=0.12395833333333334
EXTRACT: note_on channel=3 note=63 velocity=0 time=0
EXTRACT: note_on channel=6 note=50 velocity=0 time=0
EXTRACT: note_on channel=1 note=65 velocity=62 time=0.0010416666666666667
EXTRACT: note_on channel=3 note=60 velocity=62 time=0
EXTRACT: note_on channel=6 note=46 velocity=80 time=0
EXTRACT: note_on channel=1 note=65 velocity=0 time=0.24895833333333334
EXTRACT: note_on channel=2 note=63 velocity=0 time=0
EXTRACT: note_on channel=3 note=60 velocity=0 time=0
EXTRACT: note_on channel=6 note=46 velocity=0 time=0
EXTRACT: note_on channel=1 note=65 velocity=62 time=0.0010416666666666667
EXTRACT: note_on channel=3 note=60 velocity=62 time=0
EXTRACT: note_on channel=6 note=44 velocity=80 time=0
EXTRACT: note_on channel=6 note=44 velocity=0 time=0.12395833333333334
EXTRACT: note_on channel=6 note=43 velocity=80 time=0.0010416666666666667
EXTRACT: note_on channel=1 note=65 velocity=0 time=0.12395833333333334
EXTRACT: note_on channel=3 note=60 velocity=0 time=0
EXTRACT: note_on channel=6 note=43 velocity=0 time=0
EXTRACT: note_on channel=1 note=63 velocity=62 time=0.0010416666666666667
EXTRACT: note_on channel=3 note=58 velocity=62 time=0
EXTRACT: note_on channel=6 note=41 velocity=80 time=0
EXTRACT: note_on channel=1 note=63 velocity=0 time=0.24895833333333334
EXTRACT: note_on channel=3 note=58 velocity=0 time=0
EXTRACT: note_on channel=6 note=41 velocity=0 time=0
EXTRACT: note_on channel=4 note=55 velocity=62 time=0.0010416666666666667
EXTRACT: note_on channel=5 note=51 velocity=62 time=0
EXTRACT: note_on channel=6 note=39 velocity=80 time=0
EXTRACT: note_on channel=5 note=51 velocity=0 time=0.37395833333333334
EXTRACT: note_on channel=6 note=39 velocity=0 time=0
EXTRACT: note_on channel=5 note=51 velocity=62 time=0.0010416666666666667
EXTRACT: note_on channel=6 note=39 velocity=80 time=0
EXTRACT: note_on channel=4 note=55 velocity=0 time=0.12395833333333334
EXTRACT: note_on channel=2 note=63 velocity=62 time=0.0010416666666666667
EXTRACT: note_on channel=4 note=55 velocity=62 time=0
EXTRACT: note_on channel=2 note=63 velocity=0 time=0.24895833333333334
EXTRACT: note_on channel=5 note=51 velocity=0 time=0
EXTRACT: note_on channel=6 note=39 velocity=0 time=0
EXTRACT: note_on channel=2 note=63 velocity=62 time=0.0010416666666666667
EXTRACT: note_on channel=5 note=51 velocity=62 time=0
EXTRACT: note_on channel=6 note=39 velocity=80 time=0
EXTRACT: note_on channel=2 note=63 velocity=0 time=0.24895833333333334
EXTRACT: note_on channel=4 note=55 velocity=0 time=0
EXTRACT: note_on channel=2 note=65 velocity=62 time=0.0010416666666666667
EXTRACT: note_on channel=4 note=58 velocity=62 time=0
EXTRACT: note_on channel=5 note=51 velocity=0 time=0.12395833333333334
EXTRACT: note_on channel=5 note=51 velocity=62 time=0.0010416666666666667
EXTRACT: note_on channel=2 note=65 velocity=0 time=0.12395833333333334
EXTRACT: note_on channel=6 note=39 velocity=0 time=0
EXTRACT: note_on channel=1 note=67 velocity=62 time=0.0010416666666666667
EXTRACT: note_on channel=2 note=67 velocity=62 time=0
EXTRACT: note_on channel=3 note=63 velocity=62 time=0
EXTRACT: note_on channel=6 note=37 velocity=80 time=0
EXTRACT: note_on channel=1 note=67 velocity=0 time=0.24895833333333334
EXTRACT: note_on channel=3 note=63 velocity=0 time=0
EXTRACT: note_on channel=4 note=58 velocity=0 time=0
EXTRACT: note_on channel=5 note=51 velocity=0 time=0
EXTRACT: note_on channel=1 note=63 velocity=62 time=0.0010416666666666667
EXTRACT: note_on channel=3 note=58 velocity=62 time=0
EXTRACT: note_on channel=4 note=58 velocity=62 time=0
EXTRACT: note_on channel=5 note=49 velocity=62 time=0
EXTRACT: note_on channel=6 note=37 velocity=0 time=0.12395833333333334
EXTRACT: note_on channel=6 note=38 velocity=80 time=0.0010416666666666667
EXTRACT: note_on channel=2 note=67 velocity=0 time=0.12395833333333334
EXTRACT: note_on channel=5 note=49 velocity=0 time=0
EXTRACT: note_on channel=2 note=63 velocity=62 time=0.0010416666666666667
EXTRACT: note_on channel=5 note=50 velocity=62 time=0
EXTRACT: note_on channel=1 note=63 velocity=0 time=0.24895833333333334
EXTRACT: note_on channel=3 note=58 velocity=0 time=0
EXTRACT: note_on channel=4 note=58 velocity=0 time=0
EXTRACT: note_on channel=5 note=50 velocity=0 time=0
EXTRACT: note_on channel=6 note=38 velocity=0 time=0
EXTRACT: note_on channel=4 note=55 velocity=62 time=0.0010416666666666667
EXTRACT: note_on channel=5 note=51 velocity=62 time=0
EXTRACT: note_on channel=6 note=39 velocity=80 time=0
EXTRACT: note_on channel=2 note=63 velocity=0 time=0.24895833333333334
EXTRACT: note_on channel=2 note=63 velocity=62 time=0.0010416666666666667
EXTRACT: note_on channel=5 note=51 velocity=0 time=0.12395833333333334
EXTRACT: note_on channel=6 note=39 velocity=0 time=0
EXTRACT: note_on channel=5 note=51 velocity=62 time=0.0010416666666666667
EXTRACT: note_on channel=6 note=39 velocity=80 time=0
EXTRACT: note_on channel=2 note=63 velocity=0 time=0.12395833333333334
EXTRACT: note_on channel=4 note=55 velocity=0 time=0
EXTRACT: note_on channel=1 note=63 velocity=62 time=0.0010416666666666667
EXTRACT: note_on channel=2 note=63 velocity=62 time=0
EXTRACT: note_on channel=3 note=58 velocity=62 time=0
EXTRACT: note_on channel=4 note=55 velocity=62 time=0
EXTRACT: note_on channel=1 note=63 velocity=0 time=0.24895833333333334
EXTRACT: note_on channel=2 note=63 velocity=0 time=0
EXTRACT: note_on channel=3 note=58 velocity=0 time=0
EXTRACT: note_on channel=5 note=51 velocity=0 time=0
EXTRACT: note_on channel=6 note=39 velocity=0 time=0
EXTRACT: note_on channel=1 note=63 velocity=62 time=0.0010416666666666667
EXTRACT: note_on channel=2 note=63 velocity=62 time=0
EXTRACT: note_on channel=3 note=58 velocity=62 time=0
EXTRACT: note_on channel=5 note=51 velocity=62 time=0
EXTRACT: note_on channel=6 note=39 velocity=80 time=0
EXTRACT: note_on channel=1 note=63 velocity=0 time=0.24895833333333334
EXTRACT: note_on channel=3 note=58 velocity=0 time=0
EXTRACT: note_on channel=4 note=55 velocity=0 time=0
EXTRACT: note_on channel=6 note=39 velocity=0 time=0
EXTRACT: note_on channel=1 note=65 velocity=62 time=0.0010416666666666667
EXTRACT: note_on channel=3 note=60 velocity=62 time=0
EXTRACT: note_on channel=4 note=58 velocity=62 time=0
EXTRACT: note_on channel=6 note=41 velocity=80 time=0
EXTRACT: note_on channel=5 note=51 velocity=0 time=0.12395833333333334
EXTRACT: note_on channel=6 note=41 velocity=0 time=0
EXTRACT: note_on channel=5 note=51 velocity=62 time=0.0010416666666666667
EXTRACT: note_on channel=6 note=42 velocity=80 time=0
EXTRACT: note_on channel=6 note=42 velocity=0 time=0.12395833333333334
EXTRACT: note_on channel=6 note=43 velocity=80 time=0.0010416666666666667
EXTRACT: note_on channel=1 note=65 velocity=0 time=0.24895833333333334
EXTRACT: note_on channel=2 note=63 velocity=0 time=0
EXTRACT: note_on channel=3 note=60 velocity=0 time=0
EXTRACT: note_on channel=4 note=58 velocity=0 time=0
EXTRACT: note_on channel=5 note=51 velocity=0 time=0
EXTRACT: note_on channel=6 note=43 velocity=0 time=0
EXTRACT: note_on channel=1 note=67 velocity=62 time=0.0010416666666666667
EXTRACT: note_on channel=3 note=63 velocity=62 time=0
EXTRACT: note_on channel=4 note=58 velocity=62 time=0
EXTRACT: note_on channel=5 note=49 velocity=62 time=0
EXTRACT: note_on channel=6 note=44 velocity=80 time=0
EXTRACT: note_on channel=6 note=44 velocity=0 time=0.12395833333333334
EXTRACT: note_on channel=6 note=45 velocity=80 time=0.0010416666666666667
EXTRACT: note_on channel=5 note=49 velocity=0 time=0.12395833333333334
EXTRACT: note_on channel=6 note=45 velocity=0 time=0
EXTRACT: note_on channel=5 note=50 velocity=62 time=0.0010416666666666667
EXTRACT: note_on channel=6 note=46 velocity=80 time=0
EXTRACT: note_on channel=1 note=67 velocity=0 time=0.24895833333333334
EXTRACT: note_on channel=3 note=63 velocity=0 time=0
EXTRACT: note_on channel=4 note=58 velocity=0 time=0
EXTRACT: note_on channel=5 note=50 velocity=0 time=0
EXTRACT: note_on channel=6 note=46 velocity=0 time=0
EXTRACT: note_on channel=2 note=63 velocity=62 time=0.0010416666666666667
EXTRACT: note_on channel=3 note=58 velocity=62 time=0
EXTRACT: note_on channel=4 note=55 velocity=62 time=0
EXTRACT: note_on channel=5 note=51 velocity=62 time=0
EXTRACT: note_on channel=6 note=39 velocity=80 time=0
EXTRACT: note_on channel=2 note=63 velocity=0 time=0.12395833333333334
EXTRACT: note_on channel=3 note=58 velocity=0 time=0
EXTRACT: note_on channel=2 note=63 velocity=62 time=0.0010416666666666667
EXTRACT: note_on channel=3 note=58 velocity=62 time=0
EXTRACT: note_on channel=2 note=63 velocity=0 time=0.12395833333333334
EXTRACT: note_on channel=3 note=58 velocity=0 time=0
EXTRACT: note_on channel=5 note=51 velocity=0 time=0.125
EXTRACT: note_on channel=6 note=39 velocity=0 time=0
EXTRACT: note_on channel=2 note=63 velocity=63 time=0.0010416666666666667
EXTRACT: note_on channel=3 note=58 velocity=62 time=0
EXTRACT: note_on channel=5 note=51 velocity=62 time=0
EXTRACT: note_on channel=6 note=39 velocity=80 time=0
EXTRACT: note_on channel=2 note=63 velocity=0 time=0.12395833333333334
EXTRACT: note_on channel=3 note=58 velocity=0 time=0
EXTRACT: note_on channel=4 note=55 velocity=0 time=0
EXTRACT: note_on channel=2 note=63 velocity=65 time=0.0010416666666666667
EXTRACT: note_on channel=3 note=58 velocity=63 time=0
EXTRACT: note_on channel=4 note=55 velocity=62 time=0
EXTRACT: note_on channel=2 note=63 velocity=0 time=0.12395833333333334
EXTRACT: note_on channel=3 note=58 velocity=0 time=0
EXTRACT: note_on channel=5 note=51 velocity=0 time=0.125
EXTRACT: note_on channel=6 note=39 velocity=0 time=0
EXTRACT: note_on channel=2 note=63 velocity=69 time=0.0010416666666666667
EXTRACT: note_on channel=3 note=58 velocity=64 time=0
EXTRACT: note_on channel=5 note=51 velocity=62 time=0
EXTRACT: note_on channel=6 note=39 velocity=80 time=0
EXTRACT: note_on channel=2 note=63 velocity=0 time=0.12395833333333334
EXTRACT: note_on channel=3 note=58 velocity=0 time=0
EXTRACT: note_on channel=2 note=63 velocity=70 time=0.0010416666666666667
EXTRACT: note_on channel=3 note=58 velocity=64 time=0
EXTRACT: note_on channel=4 note=55 velocity=0 time=0.12395833333333334
EXTRACT: note_on channel=6 note=39 velocity=0 time=0
EXTRACT: note_on channel=4 note=58 velocity=62 time=0.0010416666666666667
EXTRACT: note_on channel=6 note=44 velocity=80 time=0
EXTRACT: note_on channel=5 note=51 velocity=0 time=0.12395833333333334
EXTRACT: note_on channel=5 note=51 velocity=62 time=0.0010416666666666667
EXTRACT: note_on channel=2 note=63 velocity=0 time=0.37395833333333334
EXTRACT: note_on channel=3 note=58 velocity=0 time=0
EXTRACT: note_on channel=4 note=58 velocity=0 time=0
EXTRACT: note_on channel=5 note=51 velocity=0 time=0
EXTRACT: note_on channel=6 note=44 velocity=0 time=0
EXTRACT: note_on channel=4 note=58 velocity=62 time=0.0010416666666666667
EXTRACT: note_on channel=5 note=49 velocity=62 time=0
EXTRACT: note_on channel=6 note=46 velocity=80 time=0
EXTRACT: note_on channel=5 note=49 velocity=0 time=0.24895833333333334
EXTRACT: note_on channel=5 note=50 velocity=62 time=0.0010416666666666667
EXTRACT: note_on channel=4 note=58 velocity=0 time=0.24895833333333334
EXTRACT: note_on channel=5 note=50 velocity=0 time=0
EXTRACT: note_on channel=6 note=46 velocity=0 time=0
EXTRACT: note_on channel=2 note=63 velocity=86 time=0.0010416666666666667
EXTRACT: note_on channel=2 note=65 velocity=86 time=0
EXTRACT: note_on channel=3 note=58 velocity=70 time=0
EXTRACT: note_on channel=4 note=56 velocity=62 time=0
EXTRACT: note_on channel=5 note=51 velocity=62 time=0
EXTRACT: note_on channel=6 note=39 velocity=80 time=0
EXTRACT: note_on channel=2 note=63 velocity=0 time=0.12395833333333334
EXTRACT: note_on channel=2 note=65 velocity=0 time=0
EXTRACT: note_on channel=3 note=58 velocity=0 time=0
EXTRACT: note_on channel=2 note=63 velocity=88 time=0.0010416666666666667
EXTRACT: note_on channel=2 note=65 velocity=88 time=0
EXTRACT: note_on channel=3 note=58 velocity=70 time=0
EXTRACT: note_on channel=2 note=63 velocity=0 time=0.12395833333333334
EXTRACT: note_on channel=2 note=65 velocity=0 time=0
EXTRACT: note_on channel=3 note=58 velocity=0 time=0
EXTRACT: note_on channel=5 note=51 velocity=0 time=0.125
EXTRACT: note_on channel=6 note=39 velocity=0 time=0
EXTRACT: note_on channel=2 note=63 velocity=92 time=0.0010416666666666667
EXTRACT: note_on channel=2 note=65 velocity=92 time=0
EXTRACT: note_on channel=3 note=58 velocity=72 time=0
EXTRACT: note_on channel=5 note=55 velocity=62 time=0
EXTRACT: note_on channel=6 note=43 velocity=80 time=0
EXTRACT: note_on channel=2 note=63 velocity=0 time=0.12395833333333334
EXTRACT: note_on channel=2 note=65 velocity=0 time=0
EXTRACT: note_on channel=3 note=58 velocity=0 time=0
EXTRACT: note_on channel=4 note=56 velocity=0 time=0
EXTRACT: note_on channel=2 note=63 velocity=93 time=0.0010416666666666667
EXTRACT: note_on channel=2 note=65 velocity=93 time=0
EXTRACT: note_on channel=3 note=58 velocity=72 time=0
EXTRACT: note_on channel=4 note=56 velocity=62 time=0
EXTRACT: note_on channel=2 note=63 velocity=0 time=0.12395833333333334
EXTRACT: note_on channel=2 note=65 velocity=0 time=0
EXTRACT: note_on channel=3 note=58 velocity=0 time=0
EXTRACT: note_on channel=5 note=55 velocity=0 time=0.125
EXTRACT: note_on channel=6 note=43 velocity=0 time=0
EXTRACT: note_on channel=2 note=65 velocity=97 time=0.0010416666666666667
EXTRACT: note_on channel=2 note=67 velocity=97 time=0
EXTRACT: note_on channel=3 note=62 velocity=73 time=0
EXTRACT: note_on channel=5 note=56 velocity=62 time=0
EXTRACT: note_on channel=6 note=44 velocity=80 time=0
EXTRACT: note_on channel=2 note=65 velocity=0 time=0.12395833333333334
EXTRACT: note_on channel=2 note=67 velocity=0 time=0
EXTRACT: note_on channel=3 note=62 velocity=0 time=0
EXTRACT: note_on channel=2 note=65 velocity=99 time=0.0010416666666666667
EXTRACT: note_on channel=2 note=67 velocity=99 time=0
EXTRACT: note_on channel=3 note=62 velocity=74 time=0
EXTRACT: note_on channel=4 note=56 velocity=0 time=0.12395833333333334
EXTRACT: note_on channel=5 note=56 velocity=0 time=0
EXTRACT: note_on channel=6 note=44 velocity=0 time=0
EXTRACT: note_on channel=4 note=59 velocity=62 time=0.0010416666666666667
EXTRACT: note_on channel=5 note=51 velocity=62 time=0
EXTRACT: note_on channel=6 note=43 velocity=80 time=0
EXTRACT: note_on channel=5 note=51 velocity=0 time=0.37395833333333334
EXTRACT: note_on channel=6 note=43 velocity=0 time=0
EXTRACT: note_on channel=5 note=53 velocity=62 time=0.0010416666666666667
EXTRACT: note_on channel=6 note=44 velocity=80 time=0
EXTRACT: note_on channel=2 note=65 velocity=0 time=0.12395833333333334
EXTRACT: note_on channel=2 note=67 velocity=0 time=0
EXTRACT: note_on channel=3 note=62 velocity=0 time=0
EXTRACT: note_on channel=4 note=59 velocity=0 time=0
EXTRACT: note_on channel=4 note=59 velocity=62 time=0.0010416666666666667
EXTRACT: note_on channel=5 note=53 velocity=0 time=0.24895833333333334
EXTRACT: note_on channel=6 note=44 velocity=0 time=0
EXTRACT: note_on channel=5 note=55 velocity=62 time=0.0010416666666666667
EXTRACT: note_on channel=6 note=47 velocity=80 time=0
EXTRACT: note_on channel=4 note=59 velocity=0 time=0.24895833333333334
EXTRACT: note_on channel=5 note=55 velocity=0 time=0
EXTRACT: note_on channel=6 note=47 velocity=0 time=0
EXTRACT: note_on channel=1 note=63 velocity=62 time=0.0010416666666666667
EXTRACT: note_on channel=2 note=60 velocity=101 time=0
EXTRACT: note_on channel=3 note=60 velocity=75 time=0
EXTRACT: note_on channel=4 note=60 velocity=75 time=0
EXTRACT: note_on channel=5 note=55 velocity=75 time=0
EXTRACT: note_on channel=6 note=48 velocity=80 time=0
EXTRACT: note_on channel=3 note=60 velocity=0 time=0.12395833333333334
EXTRACT: note_on channel=4 note=60 velocity=0 time=0
EXTRACT: note_on channel=6 note=48 velocity=0 time=0
EXTRACT: note_on channel=3 note=60 velocity=75 time=0.0010416666666666667
EXTRACT: note_on channel=4 note=60 velocity=75 time=0
EXTRACT: note_on channel=6 note=48 velocity=80 time=0
EXTRACT: note_on channel=3 note=60 velocity=0 time=0.12395833333333334
EXTRACT: note_on channel=4 note=60 velocity=0 time=0
EXTRACT: note_on channel=6 note=48 velocity=0 time=0
EXTRACT: note_on channel=3 note=60 velocity=75 time=0.12604166666666666
EXTRACT: note_on channel=4 note=60 velocity=75 time=0
EXTRACT: note_on channel=6 note=48 velocity=80 time=0
EXTRACT: note_on channel=3 note=60 velocity=0 time=0.12395833333333334
EXTRACT: note_on channel=4 note=60 velocity=0 time=0
EXTRACT: note_on channel=6 note=48 velocity=0 time=0
EXTRACT: note_on channel=3 note=60 velocity=75 time=0.0010416666666666667
EXTRACT: note_on channel=4 note=60 velocity=75 time=0
EXTRACT: note_on channel=6 note=48 velocity=80 time=0
EXTRACT: note_on channel=3 note=60 velocity=0 time=0.12395833333333334
EXTRACT: note_on channel=4 note=60 velocity=0 time=0
EXTRACT: note_on channel=6 note=48 velocity=0 time=0
EXTRACT: note_on channel=3 note=60 velocity=75 time=0.12604166666666666
EXTRACT: note_on channel=4 note=58 velocity=75 time=0
EXTRACT: note_on channel=6 note=51 velocity=80 time=0
EXTRACT: note_on channel=3 note=60 velocity=0 time=0.12395833333333334
EXTRACT: note_on channel=4 note=58 velocity=0 time=0
EXTRACT: note_on channel=3 note=60 velocity=75 time=0.0010416666666666667
EXTRACT: note_on channel=4 note=58 velocity=75 time=0
EXTRACT: note_on channel=1 note=63 velocity=0 time=0.12395833333333334
EXTRACT: note_on channel=2 note=60 velocity=0 time=0
EXTRACT: note_on channel=3 note=60 velocity=0 time=0
EXTRACT: note_on channel=4 note=58 velocity=0 time=0
EXTRACT: note_on channel=6 note=51 velocity=0 time=0
EXTRACT: note_on channel=1 note=67 velocity=62 time=0.0010416666666666667
EXTRACT: note_on channel=2 note=63 velocity=101 time=0
EXTRACT: note_on channel=6 note=51 velocity=80 time=0.25
EXTRACT: note_on channel=6 note=51 velocity=0 time=0.24895833333333334
EXTRACT: note_on channel=3 note=60 velocity=75 time=0.0010416666666666667
EXTRACT: note_on channel=4 note=58 velocity=75 time=0
EXTRACT: note_on channel=6 note=51 velocity=80 time=0
EXTRACT: note_on channel=6 note=51 velocity=0 time=0.12395833333333334
EXTRACT: note_on channel=6 note=51 velocity=80 time=0.0010416666666666667
EXTRACT: note_on channel=3 note=60 velocity=0 time=0.12395833333333334
EXTRACT: note_on channel=4 note=58 velocity=0 time=0
EXTRACT: note_on channel=6 note=51 velocity=0 time=0
EXTRACT: note_on channel=3 note=60 velocity=75 time=0.0010416666666666667
EXTRACT: note_on channel=4 note=58 velocity=75 time=0
EXTRACT: note_on channel=6 note=51 velocity=80 time=0
EXTRACT: note_on channel=1 note=67 velocity=0 time=0.24895833333333334
EXTRACT: note_on channel=2 note=63 velocity=0 time=0
EXTRACT: note_on channel=3 note=60 velocity=0 time=0
EXTRACT: note_on channel=4 note=58 velocity=0 time=0
EXTRACT: note_on channel=5 note=55 velocity=0 time=0
EXTRACT: note_on channel=6 note=51 velocity=0 time=0
EXTRACT: note_on channel=1 note=69 velocity=81 time=0.0010416666666666667
EXTRACT: note_on channel=2 note=65 velocity=101 time=0
EXTRACT: note_on channel=3 note=60 velocity=75 time=0
EXTRACT: note_on channel=4 note=57 velocity=75 time=0
EXTRACT: note_on channel=6 note=53 velocity=80 time=0
EXTRACT: note_on channel=3 note=60 velocity=0 time=0.12395833333333334
EXTRACT: note_on channel=4 note=57 velocity=0 time=0
EXTRACT: note_on channel=3 note=60 velocity=75 time=0.0010416666666666667
EXTRACT: note_on channel=4 note=57 velocity=75 time=0
EXTRACT: note_on channel=3 note=60 velocity=0 time=0.12395833333333334
EXTRACT: note_on channel=4 note=57 velocity=0 time=0
EXTRACT: note_on channel=6 note=53 velocity=0 time=0.125
EXTRACT: note_on channel=3 note=60 velocity=75 time=0.0010416666666666667
EXTRACT: note_on channel=4 note=57 velocity=75 time=0
EXTRACT: note_on channel=6 note=53 velocity=80 time=0
EXTRACT: note_on channel=3 note=60 velocity=0 time=0.12395833333333334
EXTRACT: note_on channel=4 note=57 velocity=0 time=0
EXTRACT: note_on channel=3 note=60 velocity=75 time=0.0010416666666666667
EXTRACT: note_on channel=4 note=57 velocity=75 time=0
EXTRACT: note_on channel=3 note=60 velocity=0 time=0.12395833333333334
EXTRACT: note_on channel=4 note=57 velocity=0 time=0
EXTRACT: note_on channel=6 note=53 velocity=0 time=0.125
EXTRACT: note_on channel=3 note=60 velocity=75 time=0.0010416666666666667
EXTRACT: note_on channel=4 note=56 velocity=75 time=0
EXTRACT: note_on channel=6 note=54 velocity=80 time=0
EXTRACT: note_on channel=3 note=60 velocity=0 time=0.12395833333333334
EXTRACT: note_on channel=4 note=56 velocity=0 time=0
EXTRACT: note_on channel=3 note=60 velocity=75 time=0.0010416666666666667
EXTRACT: note_on channel=4 note=56 velocity=75 time=0
EXTRACT: note_on channel=1 note=69 velocity=0 time=0.12395833333333334
EXTRACT: note_on channel=2 note=65 velocity=0 time=0
EXTRACT: note_on channel=3 note=60 velocity=0 time=0
EXTRACT: note_on channel=4 note=56 velocity=0 time=0
EXTRACT: note_on channel=1 note=70 velocity=101 time=0.0010416666666666667
EXTRACT: note_on channel=2 note=67 velocity=101 time=0
EXTRACT: note_on channel=6 note=54 velocity=0 time=0.24895833333333334
EXTRACT: note_on channel=6 note=54 velocity=80 time=0.0010416666666666667
EXTRACT: note_on channel=6 note=54 velocity=0 time=0.24895833333333334
EXTRACT: note_on channel=3 note=60 velocity=75 time=0.0010416666666666667
EXTRACT: note_on channel=4 note=55 velocity=75 time=0
EXTRACT: note_on channel=6 note=55 velocity=80 time=0
EXTRACT: note_on channel=3 note=60 velocity=0 time=0.24895833333333334
EXTRACT: note_on channel=4 note=55 velocity=0 time=0
EXTRACT: note_on channel=3 note=60 velocity=75 time=0.0010416666666666667
EXTRACT: note_on channel=4 note=55 velocity=75 time=0
EXTRACT: note_on channel=1 note=70 velocity=0 time=0.24895833333333334
EXTRACT: note_on channel=2 note=67 velocity=0 time=0
EXTRACT: note_on channel=3 note=60 velocity=0 time=0
EXTRACT: note_on channel=4 note=55 velocity=0 time=0
EXTRACT: note_on channel=6 note=55 velocity=0 time=0
EXTRACT: note_on channel=1 note=63 velocity=101 time=0.0010416666666666667
EXTRACT: note_on channel=2 note=60 velocity=101 time=0
EXTRACT: note_on channel=3 note=60 velocity=75 time=0
EXTRACT: note_on channel=4 note=60 velocity=75 time=0
EXTRACT: note_on channel=5 note=55 velocity=75 time=0
EXTRACT: note_on channel=6 note=48 velocity=80 time=0
EXTRACT: note_on channel=3 note=60 velocity=0 time=0.12395833333333334
EXTRACT: note_on channel=4 note=60 velocity=0 time=0
EXTRACT: note_on channel=5 note=55 velocity=0 time=0
EXTRACT: note_on channel=6 note=48 velocity=0 time=0
EXTRACT: note_on channel=3 note=60 velocity=75 time=0.0010416666666666667
EXTRACT: note_on channel=4 note=60 velocity=75 time=0
EXTRACT: note_on channel=5 note=55 velocity=75 time=0
EXTRACT: note_on channel=6 note=48 velocity=80 time=0
EXTRACT: note_on channel=3 note=60 velocity=0 time=0.12395833333333334
EXTRACT: note_on channel=4 note=60 velocity=0 time=0
EXTRACT: note_on channel=5 note=55 velocity=0 time=0
EXTRACT: note_on channel=6 note=48 velocity=0 time=0
EXTRACT: note_on channel=3 note=60 velocity=75 time=0.12604166666666666
EXTRACT: note_on channel=4 note=60 velocity=75 time=0
EXTRACT: note_on channel=5 note=55 velocity=75 time=0
EXTRACT: note_on channel=6 note=48 velocity=80 time=0
EXTRACT: note_on channel=3 note=60 velocity=0 time=0.12395833333333334
EXTRACT: note_on channel=4 note=60 velocity=0 time=0
EXTRACT: note_on channel=5 note=55 velocity=0 time=0
EXTRACT: note_on channel=6 note=48 velocity=0 time=0
EXTRACT: note_on channel=3 note=60 velocity=75 time=0.0010416666666666667
EXTRACT: note_on channel=4 note=60 velocity=75 time=0
EXTRACT: note_on channel=5 note=55 velocity=75 time=0
EXTRACT: note_on channel=6 note=48 velocity=80 time=0
EXTRACT: note_on channel=3 note=60 velocity=0 time=0.12395833333333334
EXTRACT: note_on channel=4 note=60 velocity=0 time=0
EXTRACT: note_on channel=5 note=55 velocity=0 time=0
EXTRACT: note_on channel=6 note=48 velocity=0 time=0
EXTRACT: note_on channel=3 note=60 velocity=75 time=0.12604166666666666
EXTRACT: note_on channel=4 note=58 velocity=75 time=0
EXTRACT: note_on channel=5 note=55 velocity=75 time=0
EXTRACT: note_on channel=6 note=51 velocity=80 time=0
EXTRACT: note_on channel=3 note=60 velocity=0 time=0.12395833333333334
EXTRACT: note_on channel=4 note=58 velocity=0 time=0
EXTRACT: note_on channel=5 note=55 velocity=0 time=0
EXTRACT: note_on channel=6 note=51 velocity=0 time=0
EXTRACT: note_on channel=3 note=60 velocity=75 time=0.0010416666666666667
EXTRACT: note_on channel=4 note=58 velocity=75 time=0
EXTRACT: note_on channel=5 note=55 velocity=75 time=0
EXTRACT: note_on channel=6 note=51 velocity=80 time=0
EXTRACT: note_on channel=1 note=63 velocity=0 time=0.12395833333333334
EXTRACT: note_on channel=2 note=60 velocity=0 time=0
EXTRACT: note_on channel=3 note=60 velocity=0 time=0
EXTRACT: note_on channel=4 note=58 velocity=0 time=0
EXTRACT: note_on channel=5 note=55 velocity=0 time=0
EXTRACT: note_on channel=6 note=51 velocity=0 time=0
EXTRACT: note_on channel=1 note=67 velocity=101 time=0.0010416666666666667
EXTRACT: note_on channel=2 note=63 velocity=101 time=0
EXTRACT: note_on channel=3 note=60 velocity=75 time=0.5
EXTRACT: note_on channel=4 note=58 velocity=75 time=0
EXTRACT: note_on channel=5 note=55 velocity=75 time=0
EXTRACT: note_on channel=6 note=51 velocity=80 time=0
EXTRACT: note_on channel=3 note=60 velocity=0 time=0.24895833333333334
EXTRACT: note_on channel=4 note=58 velocity=0 time=0
EXTRACT: note_on channel=5 note=55 velocity=0 time=0
EXTRACT: note_on channel=6 note=51 velocity=0 time=0
EXTRACT: note_on channel=3 note=60 velocity=75 time=0.0010416666666666667
EXTRACT: note_on channel=4 note=58 velocity=75 time=0
EXTRACT: note_on channel=5 note=55 velocity=75 time=0
EXTRACT: note_on channel=6 note=51 velocity=80 time=0
EXTRACT: note_on channel=1 note=67 velocity=0 time=0.24895833333333334
EXTRACT: note_on channel=2 note=63 velocity=0 time=0
EXTRACT: note_on channel=3 note=60 velocity=0 time=0
EXTRACT: note_on channel=4 note=58 velocity=0 time=0
EXTRACT: note_on channel=5 note=55 velocity=0 time=0
EXTRACT: note_on channel=6 note=51 velocity=0 time=0
EXTRACT: note_on channel=1 note=67 velocity=101 time=0.0010416666666666667
EXTRACT: note_on channel=2 note=63 velocity=101 time=0
EXTRACT: note_on channel=3 note=60 velocity=75 time=0
EXTRACT: note_on channel=4 note=57 velocity=75 time=0
EXTRACT: note_on channel=5 note=53 velocity=75 time=0
EXTRACT: note_on channel=6 note=53 velocity=80 time=0
EXTRACT: note_on channel=1 note=67 velocity=0 time=0.12395833333333334
EXTRACT: note_on channel=2 note=63 velocity=0 time=0
EXTRACT: note_on channel=3 note=60 velocity=0 time=0
EXTRACT: note_on channel=4 note=57 velocity=0 time=0
EXTRACT: note_on channel=5 note=53 velocity=0 time=0
EXTRACT: note_on channel=6 note=53 velocity=0 time=0
EXTRACT: note_on channel=1 note=67 velocity=101 time=0.0010416666666666667
EXTRACT: note_on channel=2 note=63 velocity=101 time=0
EXTRACT: note_on channel=3 note=60 velocity=75 time=0
EXTRACT: note_on channel=4 note=57 velocity=77 time=0
EXTRACT: note_on channel=5 note=53 velocity=77 time=0
EXTRACT: note_on channel=6 note=53 velocity=80 time=0
EXTRACT: note_on channel=1 note=67 velocity=0 time=0.12395833333333334
EXTRACT: note_on channel=2 note=63 velocity=0 time=0
EXTRACT: note_on channel=3 note=60 velocity=0 time=0
EXTRACT: note_on channel=4 note=57 velocity=0 time=0
EXTRACT: note_on channel=5 note=53 velocity=0 time=0
EXTRACT: note_on channel=6 note=53 velocity=0 time=0
EXTRACT: note_on channel=1 note=67 velocity=101 time=0.12604166666666666
EXTRACT: note_on channel=2 note=63 velocity=101 time=0
EXTRACT: note_on channel=3 note=60 velocity=79 time=0
EXTRACT: note_on channel=4 note=57 velocity=81 time=0
EXTRACT: note_on channel=5 note=53 velocity=81 time=0
EXTRACT: note_on channel=6 note=53 velocity=80 time=0
EXTRACT: note_on channel=1 note=67 velocity=0 time=0.12395833333333334
EXTRACT: note_on channel=2 note=63 velocity=0 time=0
EXTRACT: note_on channel=3 note=60 velocity=0 time=0
EXTRACT: note_on channel=4 note=57 velocity=0 time=0
EXTRACT: note_on channel=5 note=53 velocity=0 time=0
EXTRACT: note_on channel=6 note=53 velocity=0 time=0
EXTRACT: note_on channel=1 note=67 velocity=101 time=0.0010416666666666667
EXTRACT: note_on channel=2 note=63 velocity=101 time=0
EXTRACT: note_on channel=3 note=60 velocity=81 time=0
EXTRACT: note_on channel=4 note=57 velocity=83 time=0
EXTRACT: note_on channel=5 note=53 velocity=83 time=0
EXTRACT: note_on channel=6 note=53 velocity=80 time=0
EXTRACT: note_on channel=1 note=67 velocity=0 time=0.12395833333333334
EXTRACT: note_on channel=2 note=63 velocity=0 time=0
EXTRACT: note_on channel=3 note=60 velocity=0 time=0
EXTRACT: note_on channel=4 note=57 velocity=0 time=0
EXTRACT: note_on channel=5 note=53 velocity=0 time=0
EXTRACT: note_on channel=6 note=53 velocity=0 time=0
EXTRACT: note_on channel=1 note=70 velocity=101 time=0.12604166666666666
EXTRACT: note_on channel=2 note=67 velocity=101 time=0
EXTRACT: note_on channel=3 note=60 velocity=85 time=0
EXTRACT: note_on channel=4 note=56 velocity=88 time=0
EXTRACT: note_on channel=5 note=56 velocity=88 time=0
EXTRACT: note_on channel=6 note=53 velocity=80 time=0
EXTRACT: note_on channel=1 note=70 velocity=0 time=0.12395833333333334
EXTRACT: note_on channel=2 note=67 velocity=0 time=0
EXTRACT: note_on channel=3 note=60 velocity=0 time=0
EXTRACT: note_on channel=4 note=56 velocity=0 time=0
EXTRACT: note_on channel=5 note=56 velocity=0 time=0
EXTRACT: note_on channel=6 note=53 velocity=0 time=0
EXTRACT: note_on channel=1 note=70 velocity=101 time=0.0010416666666666667
EXTRACT: note_on channel=2 note=67 velocity=101 time=0
EXTRACT: note_on channel=3 note=60 velocity=87 time=0
EXTRACT: note_on channel=4 note=56 velocity=90 time=0
EXTRACT: note_on channel=5 note=56 velocity=90 time=0
EXTRACT: note_on channel=6 note=53 velocity=80 time=0
EXTRACT: note_on channel=1 note=70 velocity=0 time=0.12395833333333334
EXTRACT: note_on channel=2 note=67 velocity=0 time=0
EXTRACT: note_on channel=3 note=60 velocity=0 time=0
EXTRACT: note_on channel=4 note=56 velocity=0 time=0
EXTRACT: note_on channel=5 note=56 velocity=0 time=0
EXTRACT: note_on channel=6 note=53 velocity=0 time=0
EXTRACT: note_on channel=1 note=72 velocity=101 time=0.5010416666666666
EXTRACT: note_on channel=2 note=67 velocity=101 time=0
EXTRACT: note_on channel=3 note=63 velocity=97 time=0
EXTRACT: note_on channel=4 note=60 velocity=101 time=0
EXTRACT: note_on channel=5 note=58 velocity=101 time=0
EXTRACT: note_on channel=6 note=55 velocity=80 time=0
EXTRACT: note_on channel=1 note=72 velocity=0 time=0.24895833333333334
EXTRACT: note_on channel=2 note=67 velocity=0 time=0
EXTRACT: note_on channel=3 note=63 velocity=0 time=0
EXTRACT: note_on channel=4 note=60 velocity=0 time=0
EXTRACT: note_on channel=5 note=58 velocity=0 time=0
EXTRACT: note_on channel=6 note=55 velocity=0 time=0
EXTRACT: note_on channel=1 note=72 velocity=101 time=0.0010416666666666667
EXTRACT: note_on channel=2 note=67 velocity=101 time=0
EXTRACT: note_on channel=3 note=63 velocity=101 time=0
EXTRACT: note_on channel=4 note=60 velocity=101 time=0
EXTRACT: note_on channel=5 note=58 velocity=101 time=0
EXTRACT: note_on channel=6 note=55 velocity=80 time=0
EXTRACT: note_on channel=1 note=72 velocity=0 time=0.24895833333333334
EXTRACT: note_on channel=2 note=67 velocity=0 time=0
EXTRACT: note_on channel=3 note=63 velocity=0 time=0
EXTRACT: note_on channel=4 note=60 velocity=0 time=0
EXTRACT: note_on channel=5 note=58 velocity=0 time=0
EXTRACT: note_on channel=6 note=55 velocity=0 time=0
EXTRACT: note_on channel=1 note=72 velocity=101 time=0.0010416666666666667
EXTRACT: note_on channel=2 note=72 velocity=101 time=0
EXTRACT: note_on channel=3 note=67 velocity=101 time=0
EXTRACT: note_on channel=4 note=60 velocity=101 time=0
EXTRACT: note_on channel=5 note=60 velocity=101 time=0
EXTRACT: note_on channel=6 note=55 velocity=80 time=0
EXTRACT: note_on channel=4 note=60 velocity=0 time=0.12395833333333334
EXTRACT: note_on channel=5 note=60 velocity=0 time=0
EXTRACT: note_on channel=6 note=55 velocity=0 time=0
EXTRACT: note_on channel=4 note=60 velocity=101 time=0.0010416666666666667
EXTRACT: note_on channel=5 note=60 velocity=101 time=0
EXTRACT: note_on channel=6 note=55 velocity=80 time=0
EXTRACT: note_on channel=4 note=60 velocity=0 time=0.12395833333333334
EXTRACT: note_on channel=5 note=60 velocity=0 time=0
EXTRACT: note_on channel=6 note=55 velocity=0 time=0
EXTRACT: note_on channel=4 note=60 velocity=101 time=0.12604166666666666
EXTRACT: note_on channel=5 note=60 velocity=101 time=0
EXTRACT: note_on channel=6 note=55 velocity=80 time=0
EXTRACT: note_on channel=4 note=60 velocity=0 time=0.12395833333333334
EXTRACT: note_on channel=5 note=60 velocity=0 time=0
EXTRACT: note_on channel=6 note=55 velocity=0 time=0
EXTRACT: note_on channel=4 note=60 velocity=101 time=0.0010416666666666667
EXTRACT: note_on channel=5 note=60 velocity=101 time=0
EXTRACT: note_on channel=6 note=55 velocity=80 time=0
EXTRACT: note_on channel=4 note=60 velocity=0 time=0.12395833333333334
EXTRACT: note_on channel=5 note=60 velocity=0 time=0
EXTRACT: note_on channel=6 note=55 velocity=0 time=0
EXTRACT: note_on channel=4 note=60 velocity=101 time=0.12604166666666666
EXTRACT: note_on channel=5 note=58 velocity=101 time=0
EXTRACT: note_on channel=6 note=55 velocity=80 time=0
EXTRACT: note_on channel=4 note=60 velocity=0 time=0.12395833333333334
EXTRACT: note_on channel=5 note=58 velocity=0 time=0
EXTRACT: note_on channel=6 note=55 velocity=0 time=0
EXTRACT: note_on channel=4 note=60 velocity=101 time=0.0010416666666666667
EXTRACT: note_on channel=5 note=58 velocity=101 time=0
EXTRACT: note_on channel=6 note=55 velocity=80 time=0
EXTRACT: note_on channel=2 note=72 velocity=0 time=0.12395833333333334
EXTRACT: note_on channel=4 note=60 velocity=0 time=0
EXTRACT: note_on channel=5 note=58 velocity=0 time=0
EXTRACT: note_on channel=6 note=55 velocity=0 time=0
EXTRACT: note_on channel=2 note=70 velocity=101 time=0.0010416666666666667
EXTRACT: note_on channel=4 note=63 velocity=101 time=0.5
EXTRACT: note_on channel=5 note=58 velocity=101 time=0
EXTRACT: note_on channel=6 note=55 velocity=80 time=0
EXTRACT: note_on channel=4 note=63 velocity=0 time=0.24895833333333334
EXTRACT: note_on channel=5 note=58 velocity=0 time=0
EXTRACT: note_on channel=6 note=55 velocity=0 time=0
EXTRACT: note_on channel=4 note=63 velocity=101 time=0.0010416666666666667
EXTRACT: note_on channel=5 note=58 velocity=101 time=0
EXTRACT: note_on channel=6 note=55 velocity=80 time=0
EXTRACT: note_on channel=2 note=70 velocity=0 time=0.24895833333333334
EXTRACT: note_on channel=3 note=67 velocity=0 time=0
EXTRACT: note_on channel=4 note=63 velocity=0 time=0
EXTRACT: note_on channel=5 note=58 velocity=0 time=0
EXTRACT: note_on channel=6 note=55 velocity=0 time=0
EXTRACT: note_on channel=2 note=69 velocity=101 time=0.0010416666666666667
EXTRACT: note_on channel=3 note=65 velocity=101 time=0
EXTRACT: note_on channel=4 note=63 velocity=101 time=0
EXTRACT: note_on channel=4 note=65 velocity=101 time=0
EXTRACT: note_on channel=5 note=60 velocity=101 time=0
EXTRACT: note_on channel=6 note=57 velocity=80 time=0
EXTRACT: note_on channel=4 note=63 velocity=0 time=0.12395833333333334
EXTRACT: note_on channel=4 note=65 velocity=0 time=0
EXTRACT: note_on channel=5 note=60 velocity=0 time=0
EXTRACT: note_on channel=6 note=57 velocity=0 time=0
EXTRACT: note_on channel=4 note=63 velocity=101 time=0.0010416666666666667
EXTRACT: note_on channel=4 note=65 velocity=101 time=0
EXTRACT: note_on channel=5 note=60 velocity=101 time=0
EXTRACT: note_on channel=6 note=57 velocity=80 time=0
EXTRACT: note_on channel=4 note=63 velocity=0 time=0.12395833333333334
EXTRACT: note_on channel=4 note=65 velocity=0 time=0
EXTRACT: note_on channel=5 note=60 velocity=0 time=0
EXTRACT: note_on channel=6 note=57 velocity=0 time=0
EXTRACT: note_on channel=4 note=63 velocity=101 time=0.12604166666666666
EXTRACT: note_on channel=4 note=65 velocity=101 time=0
EXTRACT: note_on channel=5 note=60 velocity=101 time=0
EXTRACT: note_on channel=6 note=57 velocity=80 time=0
EXTRACT: note_on channel=1 note=72 velocity=0 time=0.12395833333333334
EXTRACT: note_on channel=3 note=65 velocity=0 time=0
EXTRACT: note_on channel=4 note=63 velocity=0 time=0
EXTRACT: note_on channel=4 note=65 velocity=0 time=0
EXTRACT: note_on channel=5 note=60 velocity=0 time=0
EXTRACT: note_on channel=6 note=57 velocity=0 time=0
EXTRACT: note_on channel=0 note=67 velocity=80 time=0.0010416666666666667
EXTRACT: note_on channel=1 note=67 velocity=101 time=0
EXTRACT: note_on channel=3 note=67 velocity=101 time=0
EXTRACT: note_on channel=4 note=63 velocity=101 time=0
EXTRACT: note_on channel=4 note=65 velocity=101 time=0
EXTRACT: note_on channel=5 note=60 velocity=101 time=0
EXTRACT: note_on channel=6 note=57 velocity=80 time=0
EXTRACT: note_on channel=4 note=63 velocity=0 time=0.12395833333333334
EXTRACT: note_on channel=4 note=65 velocity=0 time=0
EXTRACT: note_on channel=5 note=60 velocity=0 time=0
EXTRACT: note_on channel=6 note=57 velocity=0 time=0
EXTRACT: note_on channel=4 note=63 velocity=101 time=0.12604166666666666
EXTRACT: note_on channel=4 note=65 velocity=101 time=0
EXTRACT: note_on channel=5 note=58 velocity=101 time=0
EXTRACT: note_on channel=6 note=56 velocity=80 time=0
EXTRACT: note_on channel=4 note=63 velocity=0 time=0.12395833333333334
EXTRACT: note_on channel=4 note=65 velocity=0 time=0
EXTRACT: note_on channel=5 note=58 velocity=0 time=0
EXTRACT: note_on channel=6 note=56 velocity=0 time=0
EXTRACT: note_on channel=4 note=63 velocity=101 time=0.0010416666666666667
EXTRACT: note_on channel=4 note=65 velocity=101 time=0
EXTRACT: note_on channel=5 note=58 velocity=101 time=0
EXTRACT: note_on channel=6 note=56 velocity=80 time=0
EXTRACT: note_on channel=0 note=67 velocity=0 time=0.12395833333333334
EXTRACT: note_on channel=1 note=67 velocity=0 time=0
EXTRACT: note_on channel=2 note=69 velocity=0 time=0
EXTRACT: note_on channel=3 note=67 velocity=0 time=0
EXTRACT: note_on channel=4 note=63 velocity=0 time=0
EXTRACT: note_on channel=4 note=65 velocity=0 time=0
EXTRACT: note_on channel=5 note=58 velocity=0 time=0
EXTRACT: note_on channel=6 note=56 velocity=0 time=0
EXTRACT: note_on channel=0 note=70 velocity=80 time=0.0010416666666666667
EXTRACT: note_on channel=1 note=70 velocity=101 time=0
EXTRACT: note_on channel=2 note=68 velocity=101 time=0
EXTRACT: note_on channel=3 note=70 velocity=101 time=0
EXTRACT: note_on channel=0 note=70 velocity=0 time=0.49895833333333334
EXTRACT: note_on channel=1 note=70 velocity=0 time=0
EXTRACT: note_on channel=3 note=70 velocity=0 time=0
EXTRACT: note_on channel=0 note=72 velocity=80 time=0.0010416666666666667
EXTRACT: note_on channel=1 note=72 velocity=101 time=0
EXTRACT: note_on channel=3 note=67 velocity=101 time=0
EXTRACT: note_on channel=4 note=63 velocity=101 time=0
EXTRACT: note_on channel=4 note=65 velocity=101 time=0
EXTRACT: note_on channel=5 note=58 velocity=101 time=0
EXTRACT: note_on channel=6 note=56 velocity=80 time=0
EXTRACT: note_on channel=4 note=63 velocity=0 time=0.24895833333333334
EXTRACT: note_on channel=4 note=65 velocity=0 time=0
EXTRACT: note_on channel=5 note=58 velocity=0 time=0
EXTRACT: note_on channel=6 note=56 velocity=0 time=0
EXTRACT: note_on channel=4 note=63 velocity=101 time=0.0010416666666666667
EXTRACT: note_on channel=4 note=65 velocity=101 time=0
EXTRACT: note_on channel=5 note=58 velocity=101 time=0
EXTRACT: note_on channel=6 note=56 velocity=80 time=0
EXTRACT: note_on channel=0 note=72 velocity=0 time=0.24895833333333334
EXTRACT: note_on channel=1 note=72 velocity=0 time=0
EXTRACT: note_on channel=2 note=68 velocity=0 time=0
EXTRACT: note_on channel=3 note=67 velocity=0 time=0
EXTRACT: note_on channel=4 note=63 velocity=0 time=0
EXTRACT: note_on channel=4 note=65 velocity=0 time=0
EXTRACT: note_on channel=5 note=58 velocity=0 time=0
EXTRACT: note_on channel=6 note=56 velocity=0 time=0
EXTRACT: note_on channel=0 note=67 velocity=80 time=0.0010416666666666667
EXTRACT: note_on channel=1 note=75 velocity=101 time=0
EXTRACT: note_on channel=2 note=72 velocity=101 time=0
EXTRACT: note_on channel=3 note=67 velocity=101 time=0
EXTRACT: note_on channel=4 note=63 velocity=101 time=0
EXTRACT: note_on channel=5 note=60 velocity=101 time=0
EXTRACT: note_on channel=6 note=60 velocity=80 time=0
EXTRACT: note_on channel=0 note=67 velocity=0 time=0.12395833333333334
EXTRACT: note_on channel=1 note=75 velocity=0 time=0
EXTRACT: note_on channel=2 note=72 velocity=0 time=0
EXTRACT: note_on channel=3 note=67 velocity=0 time=0
EXTRACT: note_on channel=0 note=67 velocity=80 time=0.0010416666666666667
EXTRACT: note_on channel=1 note=75 velocity=101 time=0
EXTRACT: note_on channel=2 note=72 velocity=101 time=0
EXTRACT: note_on channel=3 note=67 velocity=101 time=0
EXTRACT: note_on channel=0 note=67 velocity=0 time=0.12395833333333334
EXTRACT: note_on channel=1 note=75 velocity=0 time=0
EXTRACT: note_on channel=2 note=72 velocity=0 time=0
EXTRACT: note_on channel=3 note=67 velocity=0 time=0
EXTRACT: note_on channel=0 note=67 velocity=80 time=0.0010416666666666667
EXTRACT: note_on channel=1 note=75 velocity=101 time=0
EXTRACT: note_on channel=2 note=72 velocity=101 time=0
EXTRACT: note_on channel=3 note=67 velocity=101 time=0
EXTRACT: note_on channel=0 note=67 velocity=0 time=0.24895833333333334
EXTRACT: note_on channel=1 note=75 velocity=0 time=0
EXTRACT: note_on channel=2 note=72 velocity=0 time=0
EXTRACT: note_on channel=3 note=67 velocity=0 time=0
EXTRACT: note_on channel=4 note=63 velocity=0 time=0
EXTRACT: note_on channel=5 note=60 velocity=0 time=0
EXTRACT: note_on channel=6 note=60 velocity=0 time=0
EXTRACT: note_on channel=0 note=67 velocity=80 time=0.0010416666666666667
EXTRACT: note_on channel=1 note=75 velocity=101 time=0
EXTRACT: note_on channel=2 note=72 velocity=101 time=0
EXTRACT: note_on channel=3 note=67 velocity=101 time=0
EXTRACT: note_on channel=0 note=67 velocity=0 time=0.12395833333333334
EXTRACT: note_on channel=1 note=75 velocity=0 time=0
EXTRACT: note_on channel=2 note=72 velocity=0 time=0
EXTRACT: note_on channel=3 note=67 velocity=0 time=0
EXTRACT: note_on channel=0 note=67 velocity=80 time=0.12604166666666666
EXTRACT: note_on channel=1 note=75 velocity=101 time=0
EXTRACT: note_on channel=2 note=71 velocity=101 time=0
EXTRACT: note_on channel=3 note=67 velocity=101 time=0
EXTRACT: note_on channel=4 note=62 velocity=101 time=0
EXTRACT: note_on channel=5 note=59 velocity=101 time=0
EXTRACT: note_on channel=6 note=59 velocity=80 time=0
EXTRACT: note_on channel=0 note=67 velocity=0 time=0.12395833333333334
EXTRACT: note_on channel=1 note=75 velocity=0 time=0
EXTRACT: note_on channel=2 note=71 velocity=0 time=0
EXTRACT: note_on channel=3 note=67 velocity=0 time=0
EXTRACT: note_on channel=0 note=67 velocity=80 time=0.0010416666666666667
EXTRACT: note_on channel=1 note=75 velocity=101 time=0
EXTRACT: note_on channel=2 note=71 velocity=101 time=0
EXTRACT: note_on channel=3 note=67 velocity=101 time=0
EXTRACT: note_on channel=0 note=67 velocity=0 time=0.12395833333333334
EXTRACT: note_on channel=1 note=75 velocity=0 time=0
EXTRACT: note_on channel=2 note=71 velocity=0 time=0
EXTRACT: note_on channel=3 note=67 velocity=0 time=0
EXTRACT: note_on channel=0 note=67 velocity=80 time=0.0010416666666666667
EXTRACT: note_on channel=1 note=75 velocity=101 time=0
EXTRACT: note_on channel=2 note=71 velocity=101 time=0
EXTRACT: note_on channel=3 note=67 velocity=101 time=0
EXTRACT: note_on channel=0 note=67 velocity=0 time=0.24895833333333334
EXTRACT: note_on channel=1 note=75 velocity=0 time=0
EXTRACT: note_on channel=2 note=71 velocity=0 time=0
EXTRACT: note_on channel=3 note=67 velocity=0 time=0
EXTRACT: note_on channel=4 note=62 velocity=0 time=0
EXTRACT: note_on channel=5 note=59 velocity=0 time=0
EXTRACT: note_on channel=6 note=59 velocity=0 time=0
EXTRACT: note_on channel=0 note=67 velocity=80 time=0.0010416666666666667
EXTRACT: note_on channel=1 note=75 velocity=101 time=0
EXTRACT: note_on channel=2 note=71 velocity=101 time=0
EXTRACT: note_on channel=3 note=67 velocity=101 time=0
EXTRACT: note_on channel=0 note=67 velocity=0 time=0.12395833333333334
EXTRACT: note_on channel=1 note=75 velocity=0 time=0
EXTRACT: note_on channel=2 note=71 velocity=0 time=0
EXTRACT: note_on channel=3 note=67 velocity=0 time=0
EXTRACT: note_on channel=0 note=67 velocity=80 time=0.12604166666666666
EXTRACT: note_on channel=1 note=75 velocity=101 time=0
EXTRACT: note_on channel=2 note=70 velocity=101 time=0
EXTRACT: note_on channel=3 note=67 velocity=101 time=0
EXTRACT: note_on channel=4 note=62 velocity=101 time=0
EXTRACT: note_on channel=5 note=58 velocity=101 time=0
EXTRACT: note_on channel=6 note=58 velocity=80 time=0
EXTRACT: note_on channel=0 note=67 velocity=0 time=0.12395833333333334
EXTRACT: note_on channel=1 note=75 velocity=0 time=0
EXTRACT: note_on channel=2 note=70 velocity=0 time=0
EXTRACT: note_on channel=3 note=67 velocity=0 time=0
EXTRACT: note_on channel=0 note=67 velocity=80 time=0.0010416666666666667
EXTRACT: note_on channel=1 note=75 velocity=101 time=0
EXTRACT: note_on channel=2 note=70 velocity=101 time=0
EXTRACT: note_on channel=3 note=67 velocity=101 time=0
EXTRACT: note_on channel=0 note=67 velocity=0 time=0.12395833333333334
EXTRACT: note_on channel=1 note=75 velocity=0 time=0
EXTRACT: note_on channel=2 note=70 velocity=0 time=0
EXTRACT: note_on channel=3 note=67 velocity=0 time=0
EXTRACT: note_on channel=0 note=67 velocity=80 time=0.0010416666666666667
EXTRACT: note_on channel=1 note=75 velocity=101 time=0
EXTRACT: note_on channel=2 note=70 velocity=101 time=0
EXTRACT: note_on channel=3 note=67 velocity=101 time=0
EXTRACT: note_on channel=0 note=67 velocity=0 time=0.24895833333333334
EXTRACT: note_on channel=1 note=75 velocity=0 time=0
EXTRACT: note_on channel=2 note=70 velocity=0 time=0
EXTRACT: note_on channel=3 note=67 velocity=0 time=0
EXTRACT: note_on channel=4 note=62 velocity=0 time=0
EXTRACT: note_on channel=5 note=58 velocity=0 time=0
EXTRACT: note_on channel=6 note=58 velocity=0 time=0
EXTRACT: note_on channel=0 note=67 velocity=80 time=0.0010416666666666667
EXTRACT: note_on channel=1 note=75 velocity=101 time=0
EXTRACT: note_on channel=2 note=70 velocity=101 time=0
EXTRACT: note_on channel=3 note=67 velocity=101 time=0
EXTRACT: note_on channel=0 note=67 velocity=0 time=0.12395833333333334
EXTRACT: note_on channel=1 note=75 velocity=0 time=0
EXTRACT: note_on channel=2 note=70 velocity=0 time=0
EXTRACT: note_on channel=3 note=67 velocity=0 time=0
EXTRACT: note_on channel=0 note=67 velocity=80 time=0.12604166666666666
EXTRACT: note_on channel=1 note=75 velocity=101 time=0
EXTRACT: note_on channel=2 note=70 velocity=101 time=0
EXTRACT: note_on channel=3 note=67 velocity=101 time=0
EXTRACT: note_on channel=0 note=67 velocity=0 time=0.12395833333333334
EXTRACT: note_on channel=1 note=75 velocity=0 time=0
EXTRACT: note_on channel=2 note=70 velocity=0 time=0
EXTRACT: note_on channel=3 note=67 velocity=0 time=0
EXTRACT: note_on channel=0 note=67 velocity=80 time=0.0010416666666666667
EXTRACT: note_on channel=1 note=75 velocity=101 time=0
EXTRACT: note_on channel=2 note=70 velocity=101 time=0
EXTRACT: note_on channel=3 note=67 velocity=101 time=0
EXTRACT: note_on channel=0 note=67 velocity=0 time=0.12395833333333334
EXTRACT: note_on channel=1 note=75 velocity=0 time=0
EXTRACT: note_on channel=2 note=70 velocity=0 time=0
EXTRACT: note_on channel=3 note=67 velocity=0 time=0
EXTRACT: note_on channel=0 note=67 velocity=80 time=0.0010416666666666667
EXTRACT: note_on channel=1 note=75 velocity=101 time=0
EXTRACT: note_on channel=2 note=70 velocity=101 time=0
EXTRACT: note_on channel=3 note=67 velocity=101 time=0
EXTRACT: note_on channel=0 note=67 velocity=0 time=0.24895833333333334
EXTRACT: note_on channel=1 note=75 velocity=0 time=0
EXTRACT: note_on channel=2 note=70 velocity=0 time=0
EXTRACT: note_on channel=3 note=67 velocity=0 time=0
EXTRACT: note_on channel=0 note=72 velocity=80 time=0.0010416666666666667
EXTRACT: note_on channel=1 note=75 velocity=101 time=0
EXTRACT: note_on channel=2 note=70 velocity=101 time=0
EXTRACT: note_on channel=3 note=67 velocity=101 time=0
EXTRACT: note_on channel=4 note=63 velocity=101 time=0
EXTRACT: note_on channel=5 note=57 velocity=101 time=0
EXTRACT: note_on channel=6 note=53 velocity=80 time=0
EXTRACT: note_on channel=0 note=72 velocity=0 time=0.7489583333333333
EXTRACT: note_on channel=1 note=75 velocity=0 time=0
EXTRACT: note_on channel=2 note=70 velocity=0 time=0
EXTRACT: note_on channel=3 note=67 velocity=0 time=0
EXTRACT: note_on channel=4 note=63 velocity=0 time=0
EXTRACT: note_on channel=5 note=57 velocity=0 time=0
EXTRACT: note_on channel=6 note=53 velocity=0 time=0
EXTRACT: note_on channel=0 note=70 velocity=80 time=0.0010416666666666667
EXTRACT: note_on channel=0 note=70 velocity=0 time=0.12395833333333334
EXTRACT: note_on channel=0 note=67 velocity=80 time=0.0010416666666666667
EXTRACT: note_on channel=0 note=67 velocity=0 time=0.12395833333333334
EXTRACT: note_on channel=0 note=70 velocity=80 time=0.0010416666666666667
EXTRACT: note_on channel=0 note=70 velocity=0 time=0.12395833333333334
EXTRACT: note_on channel=0 note=72 velocity=80 time=0.0010416666666666667
EXTRACT: note_on channel=0 note=72 velocity=0 time=0.12395833333333334
EXTRACT: note_on channel=0 note=75 velocity=80 time=0.0010416666666666667
EXTRACT: note_on channel=0 note=75 velocity=0 time=0.18645833333333334
EXTRACT: note_on channel=0 note=72 velocity=80 time=0.0010416666666666667
EXTRACT: note_on channel=0 note=72 velocity=0 time=0.09270833333333334
EXTRACT: note_on channel=0 note=70 velocity=80 time=0.0010416666666666667
EXTRACT: note_on channel=0 note=70 velocity=0 time=0.09270833333333334
EXTRACT: note_on channel=0 note=72 velocity=80 time=0.0010416666666666667
EXTRACT: note_on channel=0 note=72 velocity=0 time=0.09270833333333334
EXTRACT: note_on channel=0 note=70 velocity=80 time=0.0010416666666666667
EXTRACT: note_on channel=0 note=70 velocity=0 time=0.09270833333333334
EXTRACT: note_on channel=0 note=67 velocity=80 time=0.0010416666666666667
EXTRACT: note_on channel=0 note=67 velocity=0 time=0.09270833333333334
EXTRACT: note_on channel=0 note=65 velocity=80 time=0.0010416666666666667
EXTRACT: note_on channel=0 note=65 velocity=0 time=0.09270833333333334
EXTRACT: note_on channel=0 note=63 velocity=80 time=0.0010416666666666667
EXTRACT: note_on channel=0 note=63 velocity=0 time=0.09270833333333334
EXTRACT: note_on channel=0 note=65 velocity=80 time=0.0010416666666666667
EXTRACT: note_on channel=0 note=65 velocity=0 time=0.09270833333333334
EXTRACT: note_on channel=0 note=67 velocity=80 time=0.0010416666666666667
EXTRACT: note_on channel=0 note=67 velocity=0 time=0.09270833333333334
EXTRACT: note_on channel=0 note=65 velocity=80 time=0.0010416666666666667
EXTRACT: note_on channel=0 note=65 velocity=0 time=0.09270833333333334
EXTRACT: note_on channel=0 note=63 velocity=80 time=0.0010416666666666667
EXTRACT: note_on channel=0 note=63 velocity=0 time=0.09270833333333334
EXTRACT: note_on channel=0 note=60 velocity=80 time=0.0010416666666666667
EXTRACT: note_on channel=0 note=60 velocity=0 time=0.09270833333333334
EXTRACT: note_on channel=0 note=58 velocity=80 time=0.0010416666666666667
EXTRACT: note_on channel=0 note=58 velocity=0 time=0.18645833333333334
EXTRACT: note_on channel=0 note=65 velocity=80 time=0.5010416666666666
EXTRACT: note_on channel=1 note=70 velocity=101 time=0
EXTRACT: note_on channel=2 note=68 velocity=101 time=0
EXTRACT: note_on channel=3 note=65 velocity=101 time=0
EXTRACT: note_on channel=4 note=62 velocity=101 time=0
EXTRACT: note_on channel=5 note=53 velocity=101 time=0
EXTRACT: note_on channel=6 note=46 velocity=80 time=0
EXTRACT: note_on channel=0 note=65 velocity=0 time=0.49895833333333334
EXTRACT: note_on channel=1 note=70 velocity=0 time=0
EXTRACT: note_on channel=2 note=68 velocity=0 time=0
EXTRACT: note_on channel=3 note=65 velocity=0 time=0
EXTRACT: note_on channel=4 note=62 velocity=0 time=0
EXTRACT: note_on channel=5 note=53 velocity=0 time=0
EXTRACT: note_on channel=6 note=46 velocity=0 time=0
EXTRACT: note_on channel=0 note=67 velocity=80 time=0.5010416666666666
EXTRACT: note_on channel=1 note=70 velocity=101 time=0
EXTRACT: note_on channel=2 note=70 velocity=101 time=0
EXTRACT: note_on channel=3 note=67 velocity=101 time=0
EXTRACT: note_on channel=4 note=62 velocity=101 time=0
EXTRACT: note_on channel=5 note=53 velocity=101 time=0
EXTRACT: note_on channel=6 note=46 velocity=80 time=0
EXTRACT: note_on channel=0 note=67 velocity=0 time=0.49895833333333334
EXTRACT: note_on channel=1 note=70 velocity=0 time=0
EXTRACT: note_on channel=2 note=70 velocity=0 time=0
EXTRACT: note_on channel=3 note=67 velocity=0 time=0
EXTRACT: note_on channel=4 note=62 velocity=0 time=0
EXTRACT: note_on channel=5 note=53 velocity=0 time=0
EXTRACT: note_on channel=6 note=46 velocity=0 time=0
EXTRACT: note_on channel=0 note=65 velocity=80 time=0.5010416666666666
EXTRACT: note_on channel=1 note=70 velocity=101 time=0
EXTRACT: note_on channel=2 note=68 velocity=101 time=0
EXTRACT: note_on channel=3 note=65 velocity=101 time=0
EXTRACT: note_on channel=4 note=62 velocity=101 time=0
EXTRACT: note_on channel=5 note=53 velocity=101 time=0
EXTRACT: note_on channel=6 note=46 velocity=80 time=0
EXTRACT: note_on channel=0 note=65 velocity=0 time=0.49895833333333334
EXTRACT: note_on channel=1 note=70 velocity=0 time=0
EXTRACT: note_on channel=2 note=68 velocity=0 time=0
EXTRACT: note_on channel=3 note=65 velocity=0 time=0
EXTRACT: note_on channel=4 note=62 velocity=0 time=0
EXTRACT: note_on channel=5 note=53 velocity=0 time=0
EXTRACT: note_on channel=6 note=46 velocity=0 time=0
EXTRACT: note_on channel=0 note=67 velocity=80 time=0.0010416666666666667
EXTRACT: note_on channel=1 note=70 velocity=101 time=0
EXTRACT: note_on channel=2 note=70 velocity=101 time=0
EXTRACT: note_on channel=3 note=67 velocity=101 time=0
EXTRACT: note_on channel=4 note=62 velocity=101 time=0
EXTRACT: note_on channel=5 note=55 velocity=101 time=0
EXTRACT: note_on channel=6 note=46 velocity=80 time=0
EXTRACT: note_on channel=0 note=67 velocity=0 time=0.49895833333333334
EXTRACT: note_on channel=1 note=70 velocity=0 time=0
EXTRACT: note_on channel=2 note=70 velocity=0 time=0
EXTRACT: note_on channel=3 note=67 velocity=0 time=0
EXTRACT: note_on channel=4 note=62 velocity=0 time=0
EXTRACT: note_on channel=5 note=55 velocity=0 time=0
EXTRACT: note_on channel=6 note=46 velocity=0 time=0
EXTRACT: note_on channel=0 note=65 velocity=80 time=0.0010416666666666667
EXTRACT: note_on channel=1 note=72 velocity=101 time=0
EXTRACT: note_on channel=2 note=68 velocity=101 time=0
EXTRACT: note_on channel=3 note=65 velocity=101 time=0
EXTRACT: note_on channel=4 note=60 velocity=101 time=0
EXTRACT: note_on channel=5 note=53 velocity=101 time=0
EXTRACT: note_on channel=6 note=48 velocity=80 time=0
EXTRACT: note_on channel=0 note=65 velocity=0 time=0.49895833333333334
EXTRACT: note_on channel=1 note=72 velocity=0 time=0
EXTRACT: note_on channel=2 note=68 velocity=0 time=0
EXTRACT: note_on channel=3 note=65 velocity=0 time=0
EXTRACT: note_on channel=4 note=60 velocity=0 time=0
EXTRACT: note_on channel=5 note=53 velocity=0 time=0
EXTRACT: note_on channel=6 note=48 velocity=0 time=0
EXTRACT: note_on channel=0 note=63 velocity=80 time=0.0010416666666666667
EXTRACT: note_on channel=1 note=70 velocity=101 time=0
EXTRACT: note_on channel=2 note=67 velocity=101 time=0
EXTRACT: note_on channel=3 note=63 velocity=101 time=0
EXTRACT: note_on channel=4 note=58 velocity=101 time=0
EXTRACT: note_on channel=5 note=51 velocity=101 time=0
EXTRACT: note_on channel=6 note=46 velocity=80 time=0
EXTRACT: note_on channel=0 note=63 velocity=0 time=0.24895833333333334
EXTRACT: note_on channel=2 note=67 velocity=0 time=0
EXTRACT: note_on channel=3 note=63 velocity=0 time=0
EXTRACT: note_on channel=4 note=58 velocity=0 time=0
EXTRACT: note_on channel=5 note=51 velocity=0 time=0
EXTRACT: note_on channel=6 note=46 velocity=0 time=0
EXTRACT: note_on channel=0 note=63 velocity=80 time=0.0010416666666666667
EXTRACT: note_on channel=2 note=70 velocity=101 time=0
EXTRACT: note_on channel=3 note=67 velocity=101 time=0
EXTRACT: note_on channel=4 note=63 velocity=101 time=0
EXTRACT: note_on channel=5 note=51 velocity=101 time=0
EXTRACT: note_on channel=6 note=51 velocity=80 time=0
EXTRACT: note_on channel=0 note=63 velocity=0 time=0.24895833333333334
EXTRACT: note_on channel=1 note=70 velocity=0 time=0
EXTRACT: note_on channel=0 note=73 velocity=80 time=0.0010416666666666667
EXTRACT: note_on channel=1 note=70 velocity=88 time=0
EXTRACT: note_on channel=1 note=75 velocity=88 time=0
EXTRACT: note_on channel=0 note=73 velocity=0 time=0.24895833333333334
EXTRACT: note_on channel=6 note=51 velocity=0 time=0
EXTRACT: note_on channel=0 note=74 velocity=80 time=0.0010416666666666667
EXTRACT: note_on channel=0 note=74 velocity=0 time=0.24895833333333334
EXTRACT: note_on channel=1 note=70 velocity=0 time=0
EXTRACT: note_on channel=1 note=75 velocity=0 time=0
EXTRACT: note_on channel=2 note=70 velocity=0 time=0
EXTRACT: note_on channel=3 note=67 velocity=0 time=0
EXTRACT: note_on channel=4 note=63 velocity=0 time=0
EXTRACT: note_on channel=5 note=51 velocity=0 time=0
EXTRACT: note_on channel=0 note=75 velocity=80 time=0.0010416666666666667
EXTRACT: note_on channel=1 note=70 velocity=88 time=0
EXTRACT: note_on channel=1 note=75 velocity=88 time=0
EXTRACT: note_on channel=6 note=51 velocity=80 time=0
EXTRACT: note_on channel=6 note=51 velocity=0 time=0.24895833333333334
EXTRACT: note_on channel=2 note=70 velocity=88 time=0.0010416666666666667
EXTRACT: note_on channel=3 note=63 velocity=88 time=0
EXTRACT: note_on channel=4 note=63 velocity=88 time=0
EXTRACT: note_on channel=5 note=55 velocity=88 time=0
EXTRACT: note_on channel=5 note=58 velocity=88 time=0
EXTRACT: note_on channel=6 note=39 velocity=80 time=0
EXTRACT: note_on channel=1 note=70 velocity=0 time=0.24895833333333334
EXTRACT: note_on channel=1 note=75 velocity=0 time=0
EXTRACT: note_on channel=4 note=63 velocity=0 time=0
EXTRACT: note_on channel=5 note=55 velocity=0 time=0
EXTRACT: note_on channel=5 note=58 velocity=0 time=0
EXTRACT: note_on channel=6 note=39 velocity=0 time=0
EXTRACT: note_on channel=1 note=70 velocity=88 time=0.0010416666666666667
EXTRACT: note_on channel=1 note=75 velocity=88 time=0
EXTRACT: note_on channel=4 note=60 velocity=88 time=0
EXTRACT: note_on channel=5 note=53 velocity=88 time=0
EXTRACT: note_on channel=5 note=56 velocity=88 time=0
EXTRACT: note_on channel=6 note=43 velocity=80 time=0
EXTRACT: note_on channel=0 note=75 velocity=0 time=0.24895833333333334
EXTRACT: note_on channel=2 note=70 velocity=0 time=0
EXTRACT: note_on channel=3 note=63 velocity=0 time=0
EXTRACT: note_on channel=4 note=60 velocity=0 time=0
EXTRACT: note_on channel=5 note=53 velocity=0 time=0
EXTRACT: note_on channel=5 note=56 velocity=0 time=0
EXTRACT: note_on channel=6 note=43 velocity=0 time=0
EXTRACT: note_on channel=0 note=73 velocity=80 time=0.0010416666666666667
EXTRACT: note_on channel=2 note=67 velocity=88 time=0
EXTRACT: note_on channel=3 note=63 velocity=88 time=0
EXTRACT: note_on channel=4 note=58 velocity=88 time=0
EXTRACT: note_on channel=5 note=51 velocity=88 time=0
EXTRACT: note_on channel=5 note=55 velocity=88 time=0
EXTRACT: note_on channel=6 note=44 velocity=80 time=0
EXTRACT: note_on channel=0 note=73 velocity=0 time=0.24895833333333334
EXTRACT: note_on channel=1 note=70 velocity=0 time=0
EXTRACT: note_on channel=1 note=75 velocity=0 time=0
EXTRACT: note_on channel=4 note=58 velocity=0 time=0
EXTRACT: note_on channel=5 note=51 velocity=0 time=0
EXTRACT: note_on channel=5 note=55 velocity=0 time=0
EXTRACT: note_on channel=6 note=44 velocity=0 time=0
EXTRACT: note_on channel=0 note=70 velocity=80 time=0.0010416666666666667
EXTRACT: note_on channel=1 note=70 velocity=88 time=0
EXTRACT: note_on channel=1 note=75 velocity=88 time=0
EXTRACT: note_on channel=4 note=63 velocity=88 time=0
EXTRACT: note_on channel=5 note=55 velocity=88 time=0
EXTRACT: note_on channel=5 note=58 velocity=88 time=0
EXTRACT: note_on channel=6 note=46 velocity=80 time=0
EXTRACT: note_on channel=0 note=70 velocity=0 time=0.24895833333333334
EXTRACT: note_on channel=2 note=67 velocity=0 time=0
EXTRACT: note_on channel=3 note=63 velocity=0 time=0
EXTRACT: note_on channel=4 note=63 velocity=0 time=0
EXTRACT: note_on channel=5 note=55 velocity=0 time=0
EXTRACT: note_on channel=5 note=58 velocity=0 time=0
EXTRACT: note_on channel=6 note=46 velocity=0 time=0
EXTRACT: note_on channel=0 note=73 velocity=80 time=0.0010416666666666667
EXTRACT: note_on channel=2 note=68 velocity=88 time=0
EXTRACT: note_on channel=3 note=63 velocity=88 time=0
EXTRACT: note_on channel=3 note=65 velocity=88 time=0
EXTRACT: note_on channel=4 note=60 velocity=88 time=0
EXTRACT: note_on channel=5 note=51 velocity=88 time=0
EXTRACT: note_on channel=5 note=56 velocity=88 time=0
EXTRACT: note_on channel=6 note=44 velocity=80 time=0
EXTRACT: note_on channel=1 note=70 velocity=0 time=0.24895833333333334
EXTRACT: note_on channel=1 note=75 velocity=0 time=0
EXTRACT: note_on channel=6 note=44 velocity=0 time=0
EXTRACT: note_on channel=1 note=70 velocity=88 time=0.0010416666666666667
EXTRACT: note_on channel=1 note=75 velocity=88 time=0
EXTRACT: note_on channel=0 note=73 velocity=0 time=0.24895833333333334
EXTRACT: note_on channel=4 note=60 velocity=0 time=0
EXTRACT: note_on channel=5 note=51 velocity=0 time=0
EXTRACT: note_on channel=5 note=56 velocity=0 time=0
EXTRACT: note_on channel=0 note=70 velocity=80 time=0.0010416666666666667
EXTRACT: note_on channel=4 note=60 velocity=88 time=0
EXTRACT: note_on channel=5 note=51 velocity=88 time=0
EXTRACT: note_on channel=5 note=56 velocity=88 time=0
EXTRACT: note_on channel=6 note=44 velocity=80 time=0
EXTRACT: note_on channel=0 note=70 velocity=0 time=0.24895833333333334
EXTRACT: note_on channel=1 note=70 velocity=0 time=0
EXTRACT: note_on channel=1 note=75 velocity=0 time=0
EXTRACT: note_on channel=2 note=68 velocity=0 time=0
EXTRACT: note_on channel=3 note=63 velocity=0 time=0
EXTRACT: note_on channel=3 note=65 velocity=0 time=0
EXTRACT: note_on channel=4 note=60 velocity=0 time=0
EXTRACT: note_on channel=6 note=44 velocity=0 time=0
EXTRACT: note_on channel=0 note=68 velocity=80 time=0.0010416666666666667
EXTRACT: note_on channel=1 note=70 velocity=88 time=0
EXTRACT: note_on channel=1 note=75 velocity=88 time=0
EXTRACT: note_on channel=4 note=58 velocity=88 time=0
EXTRACT: note_on channel=6 note=48 velocity=80 time=0
EXTRACT: note_on channel=2 note=68 velocity=88 time=0.25
EXTRACT: note_on channel=3 note=65 velocity=88 time=0
EXTRACT: note_on channel=1 note=70 velocity=0 time=0.24895833333333334
EXTRACT: note_on channel=1 note=75 velocity=0 time=0
EXTRACT: note_on channel=4 note=58 velocity=0 time=0
EXTRACT: note_on channel=5 note=51 velocity=0 time=0
EXTRACT: note_on channel=5 note=56 velocity=0 time=0
EXTRACT: note_on channel=6 note=48 velocity=0 time=0
EXTRACT: note_on channel=1 note=70 velocity=88 time=0.0010416666666666667
EXTRACT: note_on channel=1 note=75 velocity=88 time=0
EXTRACT: note_on channel=4 note=60 velocity=88 time=0
EXTRACT: note_on channel=5 note=53 velocity=88 time=0
EXTRACT: note_on channel=6 note=46 velocity=80 time=0
EXTRACT: note_on channel=2 note=68 velocity=0 time=0.24895833333333334
EXTRACT: note_on channel=3 note=65 velocity=0 time=0
EXTRACT: note_on channel=6 note=46 velocity=0 time=0
EXTRACT: note_on channel=2 note=67 velocity=88 time=0.0010416666666666667
EXTRACT: note_on channel=3 note=63 velocity=88 time=0
EXTRACT: note_on channel=6 note=46 velocity=80 time=0
EXTRACT: note_on channel=0 note=68 velocity=0 time=0.24895833333333334
EXTRACT: note_on channel=1 note=70 velocity=0 time=0
EXTRACT: note_on channel=1 note=75 velocity=0 time=0
EXTRACT: note_on channel=2 note=67 velocity=0 time=0
EXTRACT: note_on channel=3 note=63 velocity=0 time=0
EXTRACT: note_on channel=4 note=60 velocity=0 time=0
EXTRACT: note_on channel=5 note=53 velocity=0 time=0
EXTRACT: note_on channel=6 note=46 velocity=0 time=0
EXTRACT: note_on channel=1 note=70 velocity=88 time=0.0010416666666666667
EXTRACT: note_on channel=1 note=75 velocity=88 time=0
EXTRACT: note_on channel=2 note=68 velocity=88 time=0
EXTRACT: note_on channel=3 note=65 velocity=88 time=0
EXTRACT: note_on channel=4 note=63 velocity=88 time=0
EXTRACT: note_on channel=5 note=55 velocity=88 time=0
EXTRACT: note_on channel=6 note=48 velocity=80 time=0
EXTRACT: note_on channel=2 note=68 velocity=0 time=0.24895833333333334
EXTRACT: note_on channel=3 note=65 velocity=0 time=0
EXTRACT: note_on channel=6 note=48 velocity=0 time=0
EXTRACT: note_on channel=2 note=67 velocity=88 time=0.0010416666666666667
EXTRACT: note_on channel=3 note=63 velocity=88 time=0
EXTRACT: note_on channel=6 note=46 velocity=80 time=0
EXTRACT: note_on channel=1 note=70 velocity=0 time=0.24895833333333334
EXTRACT: note_on channel=1 note=75 velocity=0 time=0
EXTRACT: note_on channel=2 note=67 velocity=0 time=0
EXTRACT: note_on channel=3 note=63 velocity=0 time=0
EXTRACT: note_on channel=4 note=63 velocity=0 time=0
EXTRACT: note_on channel=5 note=55 velocity=0 time=0
EXTRACT: note_on channel=6 note=46 velocity=0 time=0
EXTRACT: note_on channel=1 note=70 velocity=88 time=0.0010416666666666667
EXTRACT: note_on channel=1 note=75 velocity=88 time=0
EXTRACT: note_on channel=2 note=70 velocity=88 time=0
EXTRACT: note_on channel=3 note=67 velocity=88 time=0
EXTRACT: note_on channel=6 note=51 velocity=80 time=0
EXTRACT: note_on channel=6 note=51 velocity=0 time=0.24895833333333334
EXTRACT: note_on channel=0 note=75 velocity=80 time=0.0010416666666666667
EXTRACT: note_on channel=4 note=63 velocity=88 time=0
EXTRACT: note_on channel=5 note=55 velocity=88 time=0
EXTRACT: note_on channel=5 note=58 velocity=88 time=0
EXTRACT: note_on channel=0 note=75 velocity=0 time=0.24895833333333334
EXTRACT: note_on channel=1 note=70 velocity=0 time=0
EXTRACT: note_on channel=1 note=75 velocity=0 time=0
EXTRACT: note_on channel=4 note=63 velocity=0 time=0
EXTRACT: note_on channel=5 note=55 velocity=0 time=0
EXTRACT: note_on channel=5 note=58 velocity=0 time=0
EXTRACT: note_on channel=0 note=70 velocity=80 time=0.0010416666666666667
EXTRACT: note_on channel=1 note=70 velocity=88 time=0
EXTRACT: note_on channel=1 note=75 velocity=88 time=0
EXTRACT: note_on channel=4 note=63 velocity=88 time=0
EXTRACT: note_on channel=5 note=55 velocity=88 time=0
EXTRACT: note_on channel=5 note=58 velocity=88 time=0
EXTRACT: note_on channel=6 note=51 velocity=80 time=0
EXTRACT: note_on channel=0 note=70 velocity=0 time=0.24895833333333334
EXTRACT: note_on channel=2 note=70 velocity=0 time=0
EXTRACT: note_on channel=3 note=67 velocity=0 time=0
EXTRACT: note_on channel=4 note=63 velocity=0 time=0
EXTRACT: note_on channel=5 note=55 velocity=0 time=0
EXTRACT: note_on channel=5 note=58 velocity=0 time=0
EXTRACT: note_on channel=6 note=51 velocity=0 time=0
EXTRACT: note_on channel=0 note=73 velocity=80 time=0.0010416666666666667
EXTRACT: note_on channel=4 note=63 velocity=88 time=0
EXTRACT: note_on channel=5 note=55 velocity=88 time=0
EXTRACT: note_on channel=5 note=58 velocity=88 time=0
EXTRACT: note_on channel=6 note=39 velocity=80 time=0
EXTRACT: note_on channel=0 note=73 velocity=0 time=0.24895833333333334
EXTRACT: note_on channel=1 note=70 velocity=0 time=0
EXTRACT: note_on channel=1 note=75 velocity=0 time=0
EXTRACT: note_on channel=4 note=63 velocity=0 time=0
EXTRACT: note_on channel=5 note=55 velocity=0 time=0
EXTRACT: note_on channel=5 note=58 velocity=0 time=0
EXTRACT: note_on channel=6 note=39 velocity=0 time=0
EXTRACT: note_on channel=0 note=68 velocity=80 time=0.0010416666666666667
EXTRACT: note_on channel=1 note=70 velocity=88 time=0
EXTRACT: note_on channel=1 note=75 velocity=88 time=0
EXTRACT: note_on channel=2 note=70 velocity=88 time=0
EXTRACT: note_on channel=3 note=63 velocity=88 time=0
EXTRACT: note_on channel=4 note=60 velocity=88 time=0
EXTRACT: note_on channel=5 note=53 velocity=88 time=0
EXTRACT: note_on channel=5 note=56 velocity=88 time=0
EXTRACT: note_on channel=6 note=43 velocity=80 time=0
EXTRACT: note_on channel=0 note=68 velocity=0 time=0.24895833333333334
EXTRACT: note_on channel=4 note=60 velocity=0 time=0
EXTRACT: note_on channel=5 note=53 velocity=0 time=0
EXTRACT: note_on channel=5 note=56 velocity=0 time=0
EXTRACT: note_on channel=0 note=68 velocity=80 time=0.0010416666666666667
EXTRACT: note_on channel=4 note=58 velocity=88 time=0
EXTRACT: note_on channel=5 note=51 velocity=88 time=0
EXTRACT: note_on channel=5 note=55 velocity=88 time=0
EXTRACT: note_on channel=0 note=68 velocity=0 time=0.24895833333333334
EXTRACT: note_on channel=1 note=70 velocity=0 time=0
EXTRACT: note_on channel=1 note=75 velocity=0 time=0
EXTRACT: note_on channel=2 note=70 velocity=0 time=0
EXTRACT: note_on channel=3 note=63 velocity=0 time=0
EXTRACT: note_on channel=4 note=58 velocity=0 time=0
EXTRACT: note_on channel=5 note=51 velocity=0 time=0
EXTRACT: note_on channel=5 note=55 velocity=0 time=0
EXTRACT: note_on channel=6 note=43 velocity=0 time=0
EXTRACT: note_on channel=0 note=68 velocity=80 time=0.0010416666666666667
EXTRACT: note_on channel=1 note=70 velocity=88 time=0
EXTRACT: note_on channel=1 note=75 velocity=88 time=0
EXTRACT: note_on channel=2 note=70 velocity=88 time=0
EXTRACT: note_on channel=3 note=58 velocity=88 time=0
EXTRACT: note_on channel=4 note=63 velocity=88 time=0
EXTRACT: note_on channel=5 note=55 velocity=88 time=0
EXTRACT: note_on channel=5 note=58 velocity=88 time=0
EXTRACT: note_on channel=6 note=46 velocity=80 time=0
EXTRACT: note_on channel=0 note=68 velocity=0 time=0.24895833333333334
EXTRACT: note_on channel=2 note=70 velocity=0 time=0
EXTRACT: note_on channel=3 note=58 velocity=0 time=0
EXTRACT: note_on channel=4 note=63 velocity=0 time=0
EXTRACT: note_on channel=5 note=55 velocity=0 time=0
EXTRACT: note_on channel=5 note=58 velocity=0 time=0
EXTRACT: note_on channel=6 note=46 velocity=0 time=0
EXTRACT: note_on channel=0 note=68 velocity=80 time=0.0010416666666666667
EXTRACT: note_on channel=2 note=68 velocity=88 time=0
EXTRACT: note_on channel=3 note=63 velocity=88 time=0
EXTRACT: note_on channel=4 note=60 velocity=88 time=0
EXTRACT: note_on channel=5 note=51 velocity=88 time=0
EXTRACT: note_on channel=5 note=56 velocity=88 time=0
EXTRACT: note_on channel=6 note=44 velocity=80 time=0
EXTRACT: note_on channel=0 note=68 velocity=0 time=0.24895833333333334
EXTRACT: note_on channel=1 note=70 velocity=0 time=0
EXTRACT: note_on channel=1 note=75 velocity=0 time=0
EXTRACT: note_on channel=0 note=68 velocity=80 time=0.0010416666666666667
EXTRACT: note_on channel=1 note=70 velocity=88 time=0
EXTRACT: note_on channel=1 note=75 velocity=88 time=0
EXTRACT: note_on channel=0 note=68 velocity=0 time=0.24895833333333334
EXTRACT: note_on channel=2 note=68 velocity=0 time=0
EXTRACT: note_on channel=3 note=63 velocity=0 time=0
EXTRACT: note_on channel=4 note=60 velocity=0 time=0
EXTRACT: note_on channel=5 note=51 velocity=0 time=0
EXTRACT: note_on channel=5 note=56 velocity=0 time=0
EXTRACT: note_on channel=6 note=44 velocity=0 time=0
EXTRACT: note_on channel=0 note=66 velocity=80 time=0.0010416666666666667
EXTRACT: note_on channel=2 note=68 velocity=88 time=0
EXTRACT: note_on channel=3 note=63 velocity=88 time=0
EXTRACT: note_on channel=4 note=60 velocity=88 time=0
EXTRACT: note_on channel=5 note=51 velocity=88 time=0
EXTRACT: note_on channel=5 note=56 velocity=88 time=0
EXTRACT: note_on channel=6 note=44 velocity=80 time=0
EXTRACT: note_on channel=0 note=66 velocity=0 time=0.12395833333333334
EXTRACT: note_on channel=0 note=68 velocity=80 time=0.0010416666666666667
EXTRACT: note_on channel=0 note=68 velocity=0 time=0.12395833333333334
EXTRACT: note_on channel=1 note=70 velocity=0 time=0
EXTRACT: note_on channel=1 note=75 velocity=0 time=0
EXTRACT: note_on channel=2 note=68 velocity=0 time=0
EXTRACT: note_on channel=3 note=63 velocity=0 time=0
EXTRACT: note_on channel=4 note=60 velocity=0 time=0
EXTRACT: note_on channel=6 note=44 velocity=0 time=0
EXTRACT: note_on channel=0 note=70 velocity=80 time=0.0010416666666666667
EXTRACT: note_on channel=1 note=70 velocity=88 time=0
EXTRACT: note_on channel=1 note=75 velocity=88 time=0
EXTRACT: note_on channel=2 note=67 velocity=88 time=0
EXTRACT: note_on channel=3 note=65 velocity=88 time=0
EXTRACT: note_on channel=4 note=58 velocity=88 time=0
EXTRACT: note_on channel=6 note=43 velocity=80 time=0
EXTRACT: note_on channel=0 note=70 velocity=0 time=0.24895833333333334
EXTRACT: note_on channel=2 note=67 velocity=0 time=0
EXTRACT: note_on channel=3 note=65 velocity=0 time=0
EXTRACT: note_on channel=6 note=43 velocity=0 time=0
EXTRACT: note_on channel=0 note=73 velocity=80 time=0.0010416666666666667
EXTRACT: note_on channel=2 note=65 velocity=88 time=0
EXTRACT: note_on channel=6 note=41 velocity=80 time=0
EXTRACT: note_on channel=1 note=70 velocity=0 time=0.24895833333333334
EXTRACT: note_on channel=1 note=75 velocity=0 time=0
EXTRACT: note_on channel=2 note=65 velocity=0 time=0
EXTRACT: note_on channel=4 note=58 velocity=0 time=0
EXTRACT: note_on channel=5 note=51 velocity=0 time=0
EXTRACT: note_on channel=5 note=56 velocity=0 time=0
EXTRACT: note_on channel=1 note=70 velocity=88 time=0.0010416666666666667
EXTRACT: note_on channel=1 note=75 velocity=88 time=0
EXTRACT: note_on channel=2 note=68 velocity=88 time=0
EXTRACT: note_on channel=3 note=65 velocity=88 time=0
EXTRACT: note_on channel=4 note=60 velocity=88 time=0
EXTRACT: note_on channel=5 note=55 velocity=88 time=0
EXTRACT: note_on channel=2 note=68 velocity=0 time=0.24895833333333334
EXTRACT: note_on channel=3 note=65 velocity=0 time=0
EXTRACT: note_on channel=2 note=68 velocity=88 time=0.0010416666666666667
EXTRACT: note_on channel=3 note=65 velocity=88 time=0
EXTRACT: note_on channel=0 note=73 velocity=0 time=0.24895833333333334
EXTRACT: note_on channel=1 note=70 velocity=0 time=0
EXTRACT: note_on channel=1 note=75 velocity=0 time=0
EXTRACT: note_on channel=2 note=68 velocity=0 time=0
EXTRACT: note_on channel=3 note=65 velocity=0 time=0
EXTRACT: note_on channel=4 note=60 velocity=0 time=0
EXTRACT: note_on channel=5 note=55 velocity=0 time=0
EXTRACT: note_on channel=6 note=41 velocity=0 time=0
EXTRACT: note_on channel=1 note=70 velocity=88 time=0.0010416666666666667
EXTRACT: note_on channel=1 note=75 velocity=88 time=0
EXTRACT: note_on channel=2 note=68 velocity=88 time=0
EXTRACT: note_on channel=3 note=65 velocity=88 time=0
EXTRACT: note_on channel=4 note=62 velocity=88 time=0
EXTRACT: note_on channel=5 note=56 velocity=88 time=0
EXTRACT: note_on channel=6 note=46 velocity=80 time=0
EXTRACT: note_on channel=2 note=68 velocity=0 time=0.24895833333333334
EXTRACT: note_on channel=3 note=65 velocity=0 time=0
EXTRACT: note_on channel=2 note=68 velocity=88 time=0.0010416666666666667
EXTRACT: note_on channel=3 note=65 velocity=88 time=0
EXTRACT: note_on channel=1 note=70 velocity=0 time=0.24895833333333334
EXTRACT: note_on channel=1 note=75 velocity=0 time=0
EXTRACT: note_on channel=2 note=68 velocity=0 time=0
EXTRACT: note_on channel=3 note=65 velocity=0 time=0
EXTRACT: note_on channel=4 note=62 velocity=0 time=0
EXTRACT: note_on channel=5 note=56 velocity=0 time=0
EXTRACT: note_on channel=6 note=46 velocity=0 time=0
EXTRACT: note_on channel=1 note=75 velocity=88 time=0.0010416666666666667
EXTRACT: note_on channel=2 note=70 velocity=88 time=0
EXTRACT: note_on channel=3 note=67 velocity=88 time=0
EXTRACT: note_on channel=4 note=63 velocity=88 time=0
EXTRACT: note_on channel=5 note=55 velocity=88 time=0
EXTRACT: note_on channel=6 note=48 velocity=80 time=0
EXTRACT: note_on channel=0 note=67 velocity=80 time=0.25
EXTRACT: note_on channel=0 note=67 velocity=0 time=0.24895833333333334
EXTRACT: note_on channel=0 note=67 velocity=80 time=0.0010416666666666667
EXTRACT: note_on channel=0 note=67 velocity=0 time=0.24895833333333334
EXTRACT: note_on channel=1 note=75 velocity=0 time=0
EXTRACT: note_on channel=2 note=70 velocity=0 time=0
EXTRACT: note_on channel=3 note=67 velocity=0 time=0
EXTRACT: note_on channel=4 note=63 velocity=0 time=0
EXTRACT: note_on channel=5 note=55 velocity=0 time=0
EXTRACT: note_on channel=6 note=48 velocity=0 time=0
EXTRACT: note_on channel=0 note=72 velocity=80 time=0.0010416666666666667
EXTRACT: note_on channel=1 note=70 velocity=88 time=0
EXTRACT: note_on channel=2 note=65 velocity=88 time=0
EXTRACT: note_on channel=3 note=63 velocity=88 time=0
EXTRACT: note_on channel=4 note=58 velocity=88 time=0
EXTRACT: note_on channel=5 note=55 velocity=88 time=0
EXTRACT: note_on channel=6 note=43 velocity=80 time=0
EXTRACT: note_on channel=0 note=72 velocity=0 time=0.24895833333333334
EXTRACT: note_on channel=0 note=67 velocity=80 time=0.0010416666666666667
EXTRACT: note_on channel=0 note=67 velocity=0 time=0.24895833333333334
EXTRACT: note_on channel=0 note=63 velocity=80 time=0.0010416666666666667
EXTRACT: note_on channel=0 note=63 velocity=0 time=0.24895833333333334
EXTRACT: note_on channel=0 note=65 velocity=80 time=0.0010416666666666667
EXTRACT: note_on channel=0 note=65 velocity=0 time=0.12395833333333334
EXTRACT: note_on channel=0 note=63 velocity=80 time=0.0010416666666666667
EXTRACT: note_on channel=0 note=63 velocity=0 time=0.12395833333333334
EXTRACT: note_on channel=1 note=70 velocity=0 time=0
EXTRACT: note_on channel=2 note=65 velocity=0 time=0
EXTRACT: note_on channel=3 note=63 velocity=0 time=0
EXTRACT: note_on channel=4 note=58 velocity=0 time=0
EXTRACT: note_on channel=5 note=55 velocity=0 time=0
EXTRACT: note_on channel=6 note=43 velocity=0 time=0
EXTRACT: note_on channel=0 note=60 velocity=80 time=0.0010416666666666667
EXTRACT: note_on channel=0 note=60 velocity=0 time=0.24895833333333334
EXTRACT: note_on channel=1 note=68 velocity=88 time=0.0010416666666666667
EXTRACT: note_on channel=2 note=65 velocity=88 time=0
EXTRACT: note_on channel=3 note=63 velocity=88 time=0
EXTRACT: note_on channel=4 note=60 velocity=88 time=0
EXTRACT: note_on channel=5 note=56 velocity=88 time=0
EXTRACT: note_on channel=6 note=44 velocity=80 time=0
EXTRACT: note_on channel=0 note=67 velocity=80 time=0.25
EXTRACT: note_on channel=0 note=67 velocity=0 time=0.24895833333333334
EXTRACT: note_on channel=0 note=67 velocity=80 time=0.0010416666666666667
EXTRACT: note_on channel=0 note=67 velocity=0 time=0.24895833333333334
EXTRACT: note_on channel=1 note=68 velocity=0 time=0
EXTRACT: note_on channel=2 note=65 velocity=0 time=0
EXTRACT: note_on channel=3 note=63 velocity=0 time=0
EXTRACT: note_on channel=4 note=60 velocity=0 time=0
EXTRACT: note_on channel=5 note=56 velocity=0 time=0
EXTRACT: note_on channel=6 note=44 velocity=0 time=0
EXTRACT: note_on channel=0 note=67 velocity=80 time=0.0010416666666666667
EXTRACT: note_on channel=1 note=69 velocity=88 time=0
EXTRACT: note_on channel=2 note=66 velocity=88 time=0
EXTRACT: note_on channel=3 note=63 velocity=88 time=0
EXTRACT: note_on channel=4 note=60 velocity=88 time=0
EXTRACT: note_on channel=5 note=57 velocity=88 time=0
EXTRACT: note_on channel=6 note=45 velocity=80 time=0
EXTRACT: note_on channel=0 note=67 velocity=0 time=0.24895833333333334
EXTRACT: note_on channel=0 note=72 velocity=80 time=0.0010416666666666667
EXTRACT: note_on channel=0 note=72 velocity=0 time=0.37395833333333334
EXTRACT: note_on channel=0 note=70 velocity=80 time=0.0010416666666666667
EXTRACT: note_on channel=0 note=70 velocity=0 time=0.12395833333333334
EXTRACT: note_on channel=0 note=67 velocity=80 time=0.0010416666666666667
EXTRACT: note_on channel=0 note=67 velocity=0 time=0.12395833333333334
EXTRACT: note_on channel=0 note=65 velocity=80 time=0.0010416666666666667
EXTRACT: note_on channel=0 note=65 velocity=0 time=0.12395833333333334
EXTRACT: note_on channel=1 note=69 velocity=0 time=0
EXTRACT: note_on channel=2 note=66 velocity=0 time=0
EXTRACT: note_on channel=3 note=63 velocity=0 time=0
EXTRACT: note_on channel=4 note=60 velocity=0 time=0
EXTRACT: note_on channel=5 note=57 velocity=0 time=0
EXTRACT: note_on channel=6 note=45 velocity=0 time=0
EXTRACT: note_on channel=0 note=63 velocity=80 time=0.0010416666666666667
EXTRACT: note_on channel=0 note=63 velocity=0 time=0.24895833333333334
EXTRACT: note_on channel=1 note=70 velocity=88 time=0.0010416666666666667
EXTRACT: note_on channel=2 note=65 velocity=88 time=0
EXTRACT: note_on channel=3 note=63 velocity=88 time=0
EXTRACT: note_on channel=4 note=60 velocity=88 time=0
EXTRACT: note_on channel=5 note=58 velocity=88 time=0
EXTRACT: note_on channel=6 note=46 velocity=80 time=0
EXTRACT: note_on channel=0 note=67 velocity=80 time=0.25
EXTRACT: note_on channel=0 note=67 velocity=0 time=0.24895833333333334
EXTRACT: note_on channel=6 note=46 velocity=0 time=0
EXTRACT: note_on channel=0 note=67 velocity=80 time=0.0010416666666666667
EXTRACT: note_on channel=6 note=46 velocity=80 time=0
EXTRACT: note_on channel=0 note=67 velocity=0 time=0.24895833333333334
EXTRACT: note_on channel=0 note=67 velocity=80 time=0.0010416666666666667
EXTRACT: note_on channel=0 note=67 velocity=0 time=0.24895833333333334
EXTRACT: note_on channel=1 note=70 velocity=0 time=0
EXTRACT: note_on channel=2 note=65 velocity=0 time=0
EXTRACT: note_on channel=3 note=63 velocity=0 time=0
EXTRACT: note_on channel=4 note=60 velocity=0 time=0
EXTRACT: note_on channel=5 note=58 velocity=0 time=0
EXTRACT: note_on channel=6 note=46 velocity=0 time=0
EXTRACT: note_on channel=0 note=67 velocity=80 time=0.0010416666666666667
EXTRACT: note_on channel=1 note=70 velocity=88 time=0
EXTRACT: note_on channel=2 note=68 velocity=88 time=0
EXTRACT: note_on channel=3 note=65 velocity=88 time=0
EXTRACT: note_on channel=4 note=63 velocity=88 time=0
EXTRACT: note_on channel=5 note=58 velocity=88 time=0
EXTRACT: note_on channel=6 note=46 velocity=80 time=0
EXTRACT: note_on channel=0 note=67 velocity=0 time=0.24895833333333334
EXTRACT: note_on channel=0 note=67 velocity=80 time=0.0010416666666666667
EXTRACT: note_on channel=0 note=67 velocity=0 time=0.24895833333333334
EXTRACT: note_on channel=6 note=46 velocity=0 time=0
EXTRACT: note_on channel=0 note=67 velocity=80 time=0.0010416666666666667
EXTRACT: note_on channel=6 note=46 velocity=80 time=0
EXTRACT: note_on channel=0 note=67 velocity=0 time=0.24895833333333334
EXTRACT: note_on channel=0 note=67 velocity=80 time=0.0010416666666666667
EXTRACT: note_on channel=0 note=67 velocity=0 time=0.24895833333333334
EXTRACT: note_on channel=1 note=70 velocity=0 time=0
EXTRACT: note_on channel=2 note=68 velocity=0 time=0
EXTRACT: note_on channel=3 note=65 velocity=0 time=0
EXTRACT: note_on channel=4 note=63 velocity=0 time=0
EXTRACT: note_on channel=5 note=58 velocity=0 time=0
EXTRACT: note_on channel=6 note=46 velocity=0 time=0
EXTRACT: note_on channel=0 note=68 velocity=80 time=0.0010416666666666667
EXTRACT: note_on channel=1 note=70 velocity=88 time=0
EXTRACT: note_on channel=2 note=68 velocity=88 time=0
EXTRACT: note_on channel=3 note=65 velocity=88 time=0
EXTRACT: note_on channel=4 note=62 velocity=88 time=0
EXTRACT: note_on channel=5 note=58 velocity=88 time=0
EXTRACT: note_on channel=6 note=46 velocity=80 time=0
EXTRACT: note_on channel=0 note=68 velocity=0 time=0.49895833333333334
EXTRACT: note_on channel=1 note=70 velocity=0 time=0
EXTRACT: note_on channel=6 note=46 velocity=0 time=0
EXTRACT: note_on channel=0 note=67 velocity=80 time=0.0010416666666666667
EXTRACT: note_on channel=1 note=72 velocity=88 time=0
EXTRACT: note_on channel=6 note=46 velocity=80 time=0
EXTRACT: note_on channel=2 note=68 velocity=0 time=0.24895833333333334
EXTRACT: note_on channel=3 note=65 velocity=0 time=0
EXTRACT: note_on channel=4 note=62 velocity=0 time=0
EXTRACT: note_on channel=0 note=67 velocity=0 time=0.25
EXTRACT: note_on channel=1 note=72 velocity=0 time=0
EXTRACT: note_on channel=6 note=46 velocity=0 time=0
EXTRACT: note_on channel=0 note=65 velocity=80 time=0.0010416666666666667
EXTRACT: note_on channel=1 note=75 velocity=88 time=0
EXTRACT: note_on channel=2 note=68 velocity=88 time=0
EXTRACT: note_on channel=3 note=65 velocity=88 time=0
EXTRACT: note_on channel=4 note=60 velocity=88 time=0
EXTRACT: note_on channel=6 note=48 velocity=80 time=0
EXTRACT: note_on channel=2 note=68 velocity=0 time=0.24895833333333334
EXTRACT: note_on channel=3 note=65 velocity=0 time=0
EXTRACT: note_on channel=4 note=60 velocity=0 time=0
EXTRACT: note_on channel=6 note=48 velocity=0 time=0
EXTRACT: note_on channel=2 note=67 velocity=88 time=0.0010416666666666667
EXTRACT: note_on channel=3 note=63 velocity=88 time=0
EXTRACT: note_on channel=4 note=58 velocity=88 time=0
EXTRACT: note_on channel=6 note=46 velocity=80 time=0
EXTRACT: note_on channel=0 note=65 velocity=0 time=0.24895833333333334
EXTRACT: note_on channel=1 note=75 velocity=0 time=0
EXTRACT: note_on channel=2 note=67 velocity=0 time=0
EXTRACT: note_on channel=3 note=63 velocity=0 time=0
EXTRACT: note_on channel=4 note=58 velocity=0 time=0
EXTRACT: note_on channel=6 note=46 velocity=0 time=0
EXTRACT: note_on channel=0 note=63 velocity=80 time=0.0010416666666666667
EXTRACT: note_on channel=1 note=77 velocity=88 time=0
EXTRACT: note_on channel=2 note=68 velocity=88 time=0
EXTRACT: note_on channel=3 note=65 velocity=88 time=0
EXTRACT: note_on channel=4 note=60 velocity=88 time=0
EXTRACT: note_on channel=6 note=46 velocity=80 time=0
EXTRACT: note_on channel=0 note=63 velocity=0 time=0.24895833333333334
EXTRACT: note_on channel=2 note=68 velocity=0 time=0
EXTRACT: note_on channel=3 note=65 velocity=0 time=0
EXTRACT: note_on channel=4 note=60 velocity=0 time=0
EXTRACT: note_on channel=0 note=63 velocity=80 time=0.0010416666666666667
EXTRACT: note_on channel=2 note=67 velocity=88 time=0
EXTRACT: note_on channel=3 note=63 velocity=88 time=0
EXTRACT: note_on channel=4 note=58 velocity=88 time=0
EXTRACT: note_on channel=1 note=77 velocity=0 time=0.24895833333333334
EXTRACT: note_on channel=2 note=67 velocity=0 time=0
EXTRACT: note_on channel=3 note=63 velocity=0 time=0
EXTRACT: note_on channel=4 note=58 velocity=0 time=0
EXTRACT: note_on channel=5 note=58 velocity=0 time=0
EXTRACT: note_on channel=6 note=46 velocity=0 time=0
EXTRACT: note_on channel=1 note=79 velocity=88 time=0.0010416666666666667
EXTRACT: note_on channel=2 note=70 velocity=88 time=0
EXTRACT: note_on channel=3 note=67 velocity=88 time=0
EXTRACT: note_on channel=4 note=63 velocity=88 time=0
EXTRACT: note_on channel=5 note=51 velocity=88 time=0
EXTRACT: note_on channel=6 note=51 velocity=80 time=0
EXTRACT: note_on channel=0 note=63 velocity=0 time=0.24895833333333334
EXTRACT: note_on channel=6 note=51 velocity=0 time=0
EXTRACT: note_on channel=2 note=70 velocity=0 time=0.25
EXTRACT: note_on channel=3 note=67 velocity=0 time=0
EXTRACT: note_on channel=4 note=63 velocity=0 time=0
EXTRACT: note_on channel=5 note=51 velocity=0 time=0
EXTRACT: note_on channel=0 note=67 velocity=80 time=0.0010416666666666667
EXTRACT: note_on channel=6 note=51 velocity=80 time=0
EXTRACT: note_on channel=0 note=67 velocity=0 time=0.08125
EXTRACT: note_on channel=0 note=68 velocity=80 time=0.0010416666666666667
EXTRACT: note_on channel=0 note=68 velocity=0 time=0.08125
EXTRACT: note_on channel=0 note=69 velocity=80 time=0.0020833333333333333
EXTRACT: note_on channel=0 note=69 velocity=0 time=0.08125
EXTRACT: note_on channel=6 note=51 velocity=0 time=0.0020833333333333333
EXTRACT: note_on channel=0 note=70 velocity=80 time=0.0010416666666666667
EXTRACT: note_on channel=2 note=70 velocity=88 time=0
EXTRACT: note_on channel=3 note=63 velocity=88 time=0
EXTRACT: note_on channel=4 note=63 velocity=88 time=0
EXTRACT: note_on channel=5 note=55 velocity=88 time=0
EXTRACT: note_on channel=5 note=58 velocity=88 time=0
EXTRACT: note_on channel=6 note=39 velocity=80 time=0
EXTRACT: note_on channel=1 note=79 velocity=0 time=0.24895833333333334
EXTRACT: note_on channel=4 note=63 velocity=0 time=0
EXTRACT: note_on channel=5 note=55 velocity=0 time=0
EXTRACT: note_on channel=5 note=58 velocity=0 time=0
EXTRACT: note_on channel=6 note=39 velocity=0 time=0
EXTRACT: note_on channel=4 note=60 velocity=88 time=0.0010416666666666667
EXTRACT: note_on channel=5 note=53 velocity=88 time=0
EXTRACT: note_on channel=5 note=56 velocity=88 time=0
EXTRACT: note_on channel=6 note=43 velocity=80 time=0
EXTRACT: note_on channel=0 note=70 velocity=0 time=0.24895833333333334
EXTRACT: note_on channel=2 note=70 velocity=0 time=0
EXTRACT: note_on channel=3 note=63 velocity=0 time=0
EXTRACT: note_on channel=4 note=60 velocity=0 time=0
EXTRACT: note_on channel=5 note=53 velocity=0 time=0
EXTRACT: note_on channel=5 note=56 velocity=0 time=0
EXTRACT: note_on channel=6 note=43 velocity=0 time=0
EXTRACT: note_on channel=0 note=67 velocity=80 time=0.0010416666666666667
EXTRACT: note_on channel=1 note=79 velocity=88 time=0
EXTRACT: note_on channel=2 note=67 velocity=88 time=0
EXTRACT: note_on channel=3 note=63 velocity=88 time=0
EXTRACT: note_on channel=4 note=58 velocity=88 time=0
EXTRACT: note_on channel=5 note=51 velocity=88 time=0
EXTRACT: note_on channel=5 note=55 velocity=88 time=0
EXTRACT: note_on channel=6 note=44 velocity=80 time=0
EXTRACT: note_on channel=0 note=67 velocity=0 time=0.24895833333333334
EXTRACT: note_on channel=1 note=79 velocity=0 time=0
EXTRACT: note_on channel=4 note=58 velocity=0 time=0
EXTRACT: note_on channel=5 note=51 velocity=0 time=0
EXTRACT: note_on channel=5 note=55 velocity=0 time=0
EXTRACT: note_on channel=6 note=44 velocity=0 time=0
EXTRACT: note_on channel=0 note=70 velocity=80 time=0.0010416666666666667
EXTRACT: note_on channel=1 note=77 velocity=88 time=0
EXTRACT: note_on channel=4 note=63 velocity=88 time=0
EXTRACT: note_on channel=5 note=55 velocity=88 time=0
EXTRACT: note_on channel=5 note=58 velocity=88 time=0
EXTRACT: note_on channel=6 note=46 velocity=80 time=0
EXTRACT: note_on channel=0 note=70 velocity=0 time=0.24895833333333334
EXTRACT: note_on channel=1 note=77 velocity=0 time=0
EXTRACT: note_on channel=2 note=67 velocity=0 time=0
EXTRACT: note_on channel=3 note=63 velocity=0 time=0
EXTRACT: note_on channel=4 note=63 velocity=0 time=0
EXTRACT: note_on channel=5 note=55 velocity=0 time=0
EXTRACT: note_on channel=5 note=58 velocity=0 time=0
EXTRACT: note_on channel=6 note=46 velocity=0 time=0
EXTRACT: note_on channel=0 note=72 velocity=80 time=0.0010416666666666667
EXTRACT: note_on channel=1 note=75 velocity=88 time=0
EXTRACT: note_on channel=2 note=68 velocity=88 time=0
EXTRACT: note_on channel=3 note=63 velocity=88 time=0
EXTRACT: note_on channel=3 note=65 velocity=88 time=0
EXTRACT: note_on channel=4 note=60 velocity=88 time=0
EXTRACT: note_on channel=5 note=51 velocity=88 time=0
EXTRACT: note_on channel=5 note=56 velocity=88 time=0
EXTRACT: note_on channel=6 note=44 velocity=80 time=0
EXTRACT: note_on channel=6 note=44 velocity=0 time=0.24895833333333334
EXTRACT: note_on channel=0 note=72 velocity=0 time=0.25
EXTRACT: note_on channel=4 note=60 velocity=0 time=0
EXTRACT: note_on channel=5 note=51 velocity=0 time=0
EXTRACT: note_on channel=5 note=56 velocity=0 time=0
EXTRACT: note_on channel=0 note=70 velocity=80 time=0.0010416666666666667
EXTRACT: note_on channel=4 note=60 velocity=88 time=0
EXTRACT: note_on channel=5 note=51 velocity=88 time=0
EXTRACT: note_on channel=5 note=56 velocity=88 time=0
EXTRACT: note_on channel=6 note=44 velocity=80 time=0
EXTRACT: note_on channel=2 note=68 velocity=0 time=0.24895833333333334
EXTRACT: note_on channel=3 note=63 velocity=0 time=0
EXTRACT: note_on channel=3 note=65 velocity=0 time=0
EXTRACT: note_on channel=4 note=60 velocity=0 time=0
EXTRACT: note_on channel=6 note=44 velocity=0 time=0
EXTRACT: note_on channel=4 note=58 velocity=88 time=0.0010416666666666667
EXTRACT: note_on channel=6 note=48 velocity=80 time=0
EXTRACT: note_on channel=0 note=70 velocity=0 time=0.24895833333333334
EXTRACT: note_on channel=0 note=68 velocity=80 time=0.0010416666666666667
EXTRACT: note_on channel=2 note=68 velocity=88 time=0
EXTRACT: note_on channel=3 note=65 velocity=88 time=0
EXTRACT: note_on channel=1 note=75 velocity=0 time=0.24895833333333334
EXTRACT: note_on channel=4 note=58 velocity=0 time=0
EXTRACT: note_on channel=5 note=51 velocity=0 time=0
EXTRACT: note_on channel=5 note=56 velocity=0 time=0
EXTRACT: note_on channel=6 note=48 velocity=0 time=0
EXTRACT: note_on channel=1 note=72 velocity=88 time=0.0010416666666666667
EXTRACT: note_on channel=4 note=60 velocity=88 time=0
EXTRACT: note_on channel=5 note=53 velocity=88 time=0
EXTRACT: note_on channel=6 note=46 velocity=80 time=0
EXTRACT: note_on channel=0 note=68 velocity=0 time=0.24895833333333334
EXTRACT: note_on channel=2 note=68 velocity=0 time=0
EXTRACT: note_on channel=3 note=65 velocity=0 time=0
EXTRACT: note_on channel=6 note=46 velocity=0 time=0
EXTRACT: note_on channel=0 note=67 velocity=80 time=0.0010416666666666667
EXTRACT: note_on channel=2 note=67 velocity=88 time=0
EXTRACT: note_on channel=3 note=63 velocity=88 time=0
EXTRACT: note_on channel=6 note=46 velocity=80 time=0
EXTRACT: note_on channel=0 note=67 velocity=0 time=0.24895833333333334
EXTRACT: note_on channel=1 note=72 velocity=0 time=0
EXTRACT: note_on channel=2 note=67 velocity=0 time=0
EXTRACT: note_on channel=3 note=63 velocity=0 time=0
EXTRACT: note_on channel=4 note=60 velocity=0 time=0
EXTRACT: note_on channel=5 note=53 velocity=0 time=0
EXTRACT: note_on channel=6 note=46 velocity=0 time=0
EXTRACT: note_on channel=0 note=68 velocity=80 time=0.0010416666666666667
EXTRACT: note_on channel=1 note=75 velocity=88 time=0
EXTRACT: note_on channel=2 note=68 velocity=88 time=0
EXTRACT: note_on channel=3 note=65 velocity=88 time=0
EXTRACT: note_on channel=4 note=63 velocity=88 time=0
EXTRACT: note_on channel=5 note=55 velocity=88 time=0
EXTRACT: note_on channel=6 note=48 velocity=80 time=0
EXTRACT: note_on channel=0 note=68 velocity=0 time=0.24895833333333334
EXTRACT: note_on channel=2 note=68 velocity=0 time=0
EXTRACT: note_on channel=3 note=65 velocity=0 time=0
EXTRACT: note_on channel=6 note=48 velocity=0 time=0
EXTRACT: note_on channel=0 note=70 velocity=80 time=0.0010416666666666667
EXTRACT: note_on channel=2 note=67 velocity=88 time=0
EXTRACT: note_on channel=3 note=63 velocity=88 time=0
EXTRACT: note_on channel=6 note=46 velocity=80 time=0
EXTRACT: note_on channel=0 note=70 velocity=0 time=0.24895833333333334
EXTRACT: note_on channel=1 note=75 velocity=0 time=0
EXTRACT: note_on channel=2 note=67 velocity=0 time=0
EXTRACT: note_on channel=3 note=63 velocity=0 time=0
EXTRACT: note_on channel=4 note=63 velocity=0 time=0
EXTRACT: note_on channel=5 note=55 velocity=0 time=0
EXTRACT: note_on channel=6 note=46 velocity=0 time=0
EXTRACT: note_on channel=0 note=67 velocity=80 time=0.0010416666666666667
EXTRACT: note_on channel=1 note=79 velocity=88 time=0
EXTRACT: note_on channel=2 note=70 velocity=88 time=0
EXTRACT: note_on channel=3 note=67 velocity=88 time=0
EXTRACT: note_on channel=6 note=51 velocity=80 time=0
EXTRACT: note_on channel=0 note=67 velocity=0 time=0.12395833333333334
EXTRACT: note_on channel=0 note=65 velocity=80 time=0.0010416666666666667
EXTRACT: note_on channel=0 note=65 velocity=0 time=0.12395833333333334
EXTRACT: note_on channel=6 note=51 velocity=0 time=0
EXTRACT: note_on channel=0 note=63 velocity=80 time=0.0010416666666666667
EXTRACT: note_on channel=4 note=63 velocity=88 time=0
EXTRACT: note_on channel=5 note=55 velocity=88 time=0
EXTRACT: note_on channel=5 note=58 velocity=88 time=0
EXTRACT: note_on channel=0 note=63 velocity=0 time=0.24895833333333334
EXTRACT: note_on channel=4 note=63 velocity=0 time=0
EXTRACT: note_on channel=5 note=55 velocity=0 time=0
EXTRACT: note_on channel=5 note=58 velocity=0 time=0
EXTRACT: note_on channel=4 note=63 velocity=88 time=0.0010416666666666667
EXTRACT: note_on channel=5 note=55 velocity=88 time=0
EXTRACT: note_on channel=5 note=58 velocity=88 time=0
EXTRACT: note_on channel=6 note=51 velocity=80 time=0
EXTRACT: note_on channel=1 note=79 velocity=0 time=0.24895833333333334
EXTRACT: note_on channel=2 note=70 velocity=0 time=0
EXTRACT: note_on channel=3 note=67 velocity=0 time=0
EXTRACT: note_on channel=4 note=63 velocity=0 time=0
EXTRACT: note_on channel=5 note=55 velocity=0 time=0
EXTRACT: note_on channel=5 note=58 velocity=0 time=0
EXTRACT: note_on channel=6 note=51 velocity=0 time=0
EXTRACT: note_on channel=0 note=67 velocity=80 time=0.0010416666666666667
EXTRACT: note_on channel=1 note=79 velocity=88 time=0
EXTRACT: note_on channel=4 note=63 velocity=88 time=0
EXTRACT: note_on channel=5 note=55 velocity=88 time=0
EXTRACT: note_on channel=5 note=58 velocity=88 time=0
EXTRACT: note_on channel=6 note=39 velocity=80 time=0
EXTRACT: note_on channel=0 note=67 velocity=0 time=0.24895833333333334
EXTRACT: note_on channel=4 note=63 velocity=0 time=0
EXTRACT: note_on channel=5 note=55 velocity=0 time=0
EXTRACT: note_on channel=5 note=58 velocity=0 time=0
EXTRACT: note_on channel=6 note=39 velocity=0 time=0
EXTRACT: note_on channel=0 note=65 velocity=80 time=0.0010416666666666667
EXTRACT: note_on channel=2 note=70 velocity=88 time=0
EXTRACT: note_on channel=3 note=63 velocity=88 time=0
EXTRACT: note_on channel=4 note=60 velocity=88 time=0
EXTRACT: note_on channel=5 note=53 velocity=88 time=0
EXTRACT: note_on channel=5 note=56 velocity=88 time=0
EXTRACT: note_on channel=6 note=43 velocity=80 time=0
EXTRACT: note_on channel=0 note=65 velocity=0 time=0.24895833333333334
EXTRACT: note_on channel=1 note=79 velocity=0 time=0
EXTRACT: note_on channel=4 note=60 velocity=0 time=0
EXTRACT: note_on channel=5 note=53 velocity=0 time=0
EXTRACT: note_on channel=5 note=56 velocity=0 time=0
EXTRACT: note_on channel=0 note=63 velocity=80 time=0.0010416666666666667
EXTRACT: note_on channel=1 note=79 velocity=88 time=0
EXTRACT: note_on channel=4 note=58 velocity=88 time=0
EXTRACT: note_on channel=5 note=51 velocity=88 time=0
EXTRACT: note_on channel=5 note=55 velocity=88 time=0
EXTRACT: note_on channel=0 note=63 velocity=0 time=0.24895833333333334
EXTRACT: note_on channel=1 note=79 velocity=0 time=0
EXTRACT: note_on channel=2 note=70 velocity=0 time=0
EXTRACT: note_on channel=3 note=63 velocity=0 time=0
EXTRACT: note_on channel=4 note=58 velocity=0 time=0
EXTRACT: note_on channel=5 note=51 velocity=0 time=0
EXTRACT: note_on channel=5 note=55 velocity=0 time=0
EXTRACT: note_on channel=6 note=43 velocity=0 time=0
EXTRACT: note_on channel=0 note=67 velocity=80 time=0.0010416666666666667
EXTRACT: note_on channel=1 note=77 velocity=88 time=0
EXTRACT: note_on channel=2 note=70 velocity=88 time=0
EXTRACT: note_on channel=3 note=58 velocity=88 time=0
EXTRACT: note_on channel=4 note=63 velocity=88 time=0
EXTRACT: note_on channel=5 note=55 velocity=88 time=0
EXTRACT: note_on channel=5 note=58 velocity=88 time=0
EXTRACT: note_on channel=6 note=46 velocity=80 time=0
EXTRACT: note_on channel=0 note=67 velocity=0 time=0.24895833333333334
EXTRACT: note_on channel=1 note=77 velocity=0 time=0
EXTRACT: note_on channel=2 note=70 velocity=0 time=0
EXTRACT: note_on channel=3 note=58 velocity=0 time=0
EXTRACT: note_on channel=4 note=63 velocity=0 time=0
EXTRACT: note_on channel=5 note=55 velocity=0 time=0
EXTRACT: note_on channel=5 note=58 velocity=0 time=0
EXTRACT: note_on channel=6 note=46 velocity=0 time=0
EXTRACT: note_on channel=0 note=63 velocity=80 time=0.0010416666666666667
EXTRACT: note_on channel=1 note=75 velocity=88 time=0
EXTRACT: note_on channel=2 note=68 velocity=88 time=0
EXTRACT: note_on channel=3 note=63 velocity=88 time=0
EXTRACT: note_on channel=4 note=60 velocity=88 time=0
EXTRACT: note_on channel=5 note=51 velocity=88 time=0
EXTRACT: note_on channel=5 note=56 velocity=88 time=0
EXTRACT: note_on channel=6 note=44 velocity=80 time=0
EXTRACT: note_on channel=1 note=75 velocity=0 time=0.24895833333333334
EXTRACT: note_on channel=1 note=72 velocity=88 time=0.0010416666666666667
EXTRACT: note_on channel=0 note=63 velocity=0 time=0.24895833333333334
EXTRACT: note_on channel=2 note=68 velocity=0 time=0
EXTRACT: note_on channel=3 note=63 velocity=0 time=0
EXTRACT: note_on channel=4 note=60 velocity=0 time=0
EXTRACT: note_on channel=5 note=51 velocity=0 time=0
EXTRACT: note_on channel=5 note=56 velocity=0 time=0
EXTRACT: note_on channel=6 note=44 velocity=0 time=0
EXTRACT: note_on channel=0 note=63 velocity=80 time=0.0010416666666666667
EXTRACT: note_on channel=2 note=68 velocity=88 time=0
EXTRACT: note_on channel=3 note=63 velocity=88 time=0
EXTRACT: note_on channel=4 note=60 velocity=88 time=0
EXTRACT: note_on channel=5 note=51 velocity=88 time=0
EXTRACT: note_on channel=5 note=56 velocity=88 time=0
EXTRACT: note_on channel=6 note=44 velocity=80 time=0
EXTRACT: note_on channel=0 note=63 velocity=0 time=0.12395833333333334
EXTRACT: note_on channel=0 note=65 velocity=80 time=0.0010416666666666667
EXTRACT: note_on channel=0 note=65 velocity=0 time=0.12395833333333334
EXTRACT: note_on channel=1 note=72 velocity=0 time=0
EXTRACT: note_on channel=2 note=68 velocity=0 time=0
EXTRACT: note_on channel=3 note=63 velocity=0 time=0
EXTRACT: note_on channel=4 note=60 velocity=0 time=0
EXTRACT: note_on channel=6 note=44 velocity=0 time=0
EXTRACT: note_on channel=0 note=67 velocity=80 time=0.0010416666666666667
EXTRACT: note_on channel=1 note=70 velocity=88 time=0
EXTRACT: note_on channel=2 note=67 velocity=88 time=0
EXTRACT: note_on channel=3 note=65 velocity=88 time=0
EXTRACT: note_on channel=4 note=58 velocity=88 time=0
EXTRACT: note_on channel=6 note=43 velocity=80 time=0
EXTRACT: note_on channel=0 note=67 velocity=0 time=0.24895833333333334
EXTRACT: note_on channel=2 note=67 velocity=0 time=0
EXTRACT: note_on channel=3 note=65 velocity=0 time=0
EXTRACT: note_on channel=6 note=43 velocity=0 time=0
EXTRACT: note_on channel=0 note=75 velocity=80 time=0.0010416666666666667
EXTRACT: note_on channel=2 note=65 velocity=88 time=0
EXTRACT: note_on channel=6 note=41 velocity=80 time=0
EXTRACT: note_on channel=1 note=70 velocity=0 time=0.24895833333333334
EXTRACT: note_on channel=2 note=65 velocity=0 time=0
EXTRACT: note_on channel=4 note=58 velocity=0 time=0
EXTRACT: note_on channel=5 note=51 velocity=0 time=0
EXTRACT: note_on channel=5 note=56 velocity=0 time=0
EXTRACT: note_on channel=1 note=72 velocity=88 time=0.0010416666666666667
EXTRACT: note_on channel=2 note=68 velocity=88 time=0
EXTRACT: note_on channel=3 note=65 velocity=88 time=0
EXTRACT: note_on channel=4 note=60 velocity=88 time=0
EXTRACT: note_on channel=5 note=55 velocity=88 time=0
EXTRACT: note_on channel=0 note=75 velocity=0 time=0.24895833333333334
EXTRACT: note_on channel=2 note=68 velocity=0 time=0
EXTRACT: note_on channel=3 note=65 velocity=0 time=0
EXTRACT: note_on channel=0 note=72 velocity=80 time=0.0010416666666666667
EXTRACT: note_on channel=2 note=68 velocity=88 time=0
EXTRACT: note_on channel=3 note=65 velocity=88 time=0
EXTRACT: note_on channel=0 note=72 velocity=0 time=0.12395833333333334
EXTRACT: note_on channel=0 note=75 velocity=80 time=0.0010416666666666667
EXTRACT: note_on channel=0 note=75 velocity=0 time=0.12395833333333334
EXTRACT: note_on channel=1 note=72 velocity=0 time=0
EXTRACT: note_on channel=2 note=68 velocity=0 time=0
EXTRACT: note_on channel=3 note=65 velocity=0 time=0
EXTRACT: note_on channel=4 note=60 velocity=0 time=0
EXTRACT: note_on channel=5 note=55 velocity=0 time=0
EXTRACT: note_on channel=6 note=41 velocity=0 time=0
EXTRACT: note_on channel=0 note=79 velocity=80 time=0.0010416666666666667
EXTRACT: note_on channel=1 note=74 velocity=88 time=0
EXTRACT: note_on channel=2 note=68 velocity=88 time=0
EXTRACT: note_on channel=3 note=65 velocity=88 time=0
EXTRACT: note_on channel=4 note=62 velocity=88 time=0
EXTRACT: note_on channel=5 note=56 velocity=88 time=0
EXTRACT: note_on channel=6 note=46 velocity=80 time=0
EXTRACT: note_on channel=2 note=68 velocity=0 time=0.24895833333333334
EXTRACT: note_on channel=3 note=65 velocity=0 time=0
EXTRACT: note_on channel=2 note=68 velocity=88 time=0.0010416666666666667
EXTRACT: note_on channel=3 note=65 velocity=88 time=0
EXTRACT: note_on channel=0 note=79 velocity=0 time=0.24895833333333334
EXTRACT: note_on channel=1 note=74 velocity=0 time=0
EXTRACT: note_on channel=2 note=68 velocity=0 time=0
EXTRACT: note_on channel=3 note=65 velocity=0 time=0
EXTRACT: note_on channel=4 note=62 velocity=0 time=0
EXTRACT: note_on channel=5 note=56 velocity=0 time=0
EXTRACT: note_on channel=6 note=46 velocity=0 time=0
EXTRACT: note_on channel=1 note=75 velocity=88 time=0.0010416666666666667
EXTRACT: note_on channel=2 note=70 velocity=88 time=0
EXTRACT: note_on channel=3 note=67 velocity=88 time=0
EXTRACT: note_on channel=4 note=63 velocity=88 time=0
EXTRACT: note_on channel=5 note=55 velocity=88 time=0
EXTRACT: note_on channel=6 note=48 velocity=80 time=0
EXTRACT: note_on channel=0 note=67 velocity=80 time=0.25
EXTRACT: note_on channel=0 note=67 velocity=0 time=0.24895833333333334
EXTRACT: note_on channel=0 note=67 velocity=80 time=0.0010416666666666667
EXTRACT: note_on channel=0 note=67 velocity=0 time=0.24895833333333334
EXTRACT: note_on channel=1 note=75 velocity=0 time=0
EXTRACT: note_on channel=2 note=70 velocity=0 time=0
EXTRACT: note_on channel=3 note=67 velocity=0 time=0
EXTRACT: note_on channel=4 note=63 velocity=0 time=0
EXTRACT: note_on channel=5 note=55 velocity=0 time=0
EXTRACT: note_on channel=6 note=48 velocity=0 time=0
EXTRACT: note_on channel=0 note=72 velocity=80 time=0.0010416666666666667
EXTRACT: note_on channel=1 note=70 velocity=88 time=0
EXTRACT: note_on channel=2 note=65 velocity=88 time=0
EXTRACT: note_on channel=3 note=63 velocity=88 time=0
EXTRACT: note_on channel=4 note=58 velocity=88 time=0
EXTRACT: note_on channel=5 note=55 velocity=88 time=0
EXTRACT: note_on channel=6 note=43 velocity=80 time=0
EXTRACT: note_on channel=0 note=72 velocity=0 time=0.24895833333333334
EXTRACT: note_on channel=1 note=70 velocity=0 time=0
EXTRACT: note_on channel=2 note=65 velocity=0 time=0
EXTRACT: note_on channel=3 note=63 velocity=0 time=0
EXTRACT: note_on channel=4 note=58 velocity=0 time=0
EXTRACT: note_on channel=5 note=55 velocity=0 time=0
EXTRACT: note_on channel=6 note=43 velocity=0 time=0
EXTRACT: note_on channel=0 note=67 velocity=80 time=0.0010416666666666667
EXTRACT: note_on channel=0 note=67 velocity=0 time=0.24895833333333334
EXTRACT: note_on channel=0 note=63 velocity=80 time=0.0010416666666666667
EXTRACT: note_on channel=0 note=63 velocity=0 time=0.24895833333333334
EXTRACT: note_on channel=0 note=65 velocity=80 time=0.0010416666666666667
EXTRACT: note_on channel=0 note=65 velocity=0 time=0.12395833333333334
EXTRACT: note_on channel=0 note=63 velocity=80 time=0.0010416666666666667
EXTRACT: note_on channel=0 note=63 velocity=0 time=0.12395833333333334
EXTRACT: note_on channel=0 note=60 velocity=80 time=0.0010416666666666667
EXTRACT: note_on channel=0 note=60 velocity=0 time=0.24895833333333334
EXTRACT: note_on channel=1 note=68 velocity=88 time=0.0010416666666666667
EXTRACT: note_on channel=2 note=65 velocity=88 time=0
EXTRACT: note_on channel=3 note=63 velocity=88 time=0
EXTRACT: note_on channel=4 note=60 velocity=88 time=0
EXTRACT: note_on channel=5 note=56 velocity=88 time=0
EXTRACT: note_on channel=6 note=44 velocity=80 time=0
EXTRACT: note_on channel=0 note=67 velocity=80 time=0.25
EXTRACT: note_on channel=0 note=67 velocity=0 time=0.24895833333333334
EXTRACT: note_on channel=0 note=67 velocity=80 time=0.0010416666666666667
EXTRACT: note_on channel=0 note=67 velocity=0 time=0.24895833333333334
EXTRACT: note_on channel=1 note=68 velocity=0 time=0
EXTRACT: note_on channel=2 note=65 velocity=0 time=0
EXTRACT: note_on channel=3 note=63 velocity=0 time=0
EXTRACT: note_on channel=4 note=60 velocity=0 time=0
EXTRACT: note_on channel=5 note=56 velocity=0 time=0
EXTRACT: note_on channel=6 note=44 velocity=0 time=0
EXTRACT: note_on channel=0 note=67 velocity=80 time=0.0010416666666666667
EXTRACT: note_on channel=1 note=69 velocity=88 time=0
EXTRACT: note_on channel=2 note=66 velocity=88 time=0
EXTRACT: note_on channel=3 note=63 velocity=88 time=0
EXTRACT: note_on channel=4 note=60 velocity=88 time=0
EXTRACT: note_on channel=5 note=57 velocity=88 time=0
EXTRACT: note_on channel=6 note=45 velocity=80 time=0
EXTRACT: note_on channel=0 note=67 velocity=0 time=0.24895833333333334
EXTRACT: note_on channel=1 note=69 velocity=0 time=0
EXTRACT: note_on channel=2 note=66 velocity=0 time=0
EXTRACT: note_on channel=3 note=63 velocity=0 time=0
EXTRACT: note_on channel=4 note=60 velocity=0 time=0
EXTRACT: note_on channel=5 note=57 velocity=0 time=0
EXTRACT: note_on channel=6 note=45 velocity=0 time=0
EXTRACT: note_on channel=0 note=72 velocity=80 time=0.0010416666666666667
EXTRACT: note_on channel=0 note=72 velocity=0 time=0.37395833333333334
EXTRACT: note_on channel=0 note=75 velocity=80 time=0.0010416666666666667
EXTRACT: note_on channel=0 note=75 velocity=0 time=0.12395833333333334
EXTRACT: note_on channel=0 note=67 velocity=80 time=0.0010416666666666667
EXTRACT: note_on channel=0 note=67 velocity=0 time=0.12395833333333334
EXTRACT: note_on channel=0 note=65 velocity=80 time=0.0010416666666666667
EXTRACT: note_on channel=0 note=65 velocity=0 time=0.12395833333333334
EXTRACT: note_on channel=0 note=63 velocity=80 time=0.0010416666666666667
EXTRACT: note_on channel=0 note=63 velocity=0 time=0.24895833333333334
EXTRACT: note_on channel=1 note=70 velocity=88 time=0.0010416666666666667
EXTRACT: note_on channel=2 note=65 velocity=88 time=0
EXTRACT: note_on channel=3 note=63 velocity=88 time=0
EXTRACT: note_on channel=4 note=60 velocity=88 time=0
EXTRACT: note_on channel=5 note=58 velocity=88 time=0
EXTRACT: note_on channel=6 note=46 velocity=80 time=0
EXTRACT: note_on channel=0 note=67 velocity=80 time=0.25
EXTRACT: note_on channel=0 note=67 velocity=0 time=0.24895833333333334
EXTRACT: note_on channel=1 note=70 velocity=0 time=0
EXTRACT: note_on channel=2 note=65 velocity=0 time=0
EXTRACT: note_on channel=3 note=63 velocity=0 time=0
EXTRACT: note_on channel=4 note=60 velocity=0 time=0
EXTRACT: note_on channel=5 note=58 velocity=0 time=0
EXTRACT: note_on channel=6 note=46 velocity=0 time=0
EXTRACT: note_on channel=0 note=67 velocity=80 time=0.0010416666666666667
EXTRACT: note_on channel=6 note=46 velocity=80 time=0
EXTRACT: note_on channel=0 note=67 velocity=0 time=0.24895833333333334
EXTRACT: note_on channel=0 note=67 velocity=80 time=0.0010416666666666667
EXTRACT: note_on channel=0 note=67 velocity=0 time=0.24895833333333334
EXTRACT: note_on channel=6 note=46 velocity=0 time=0
EXTRACT: note_on channel=0 note=65 velocity=80 time=0.0010416666666666667
EXTRACT: note_on channel=1 note=70 velocity=88 time=0
EXTRACT: note_on channel=2 note=68 velocity=88 time=0
EXTRACT: note_on channel=3 note=65 velocity=88 time=0
EXTRACT: note_on channel=4 note=63 velocity=88 time=0
EXTRACT: note_on channel=5 note=58 velocity=88 time=0
EXTRACT: note_on channel=6 note=46 velocity=80 time=0
EXTRACT: note_on channel=0 note=65 velocity=0 time=0.24895833333333334
EXTRACT: note_on channel=0 note=63 velocity=80 time=0.0010416666666666667
EXTRACT: note_on channel=0 note=63 velocity=0 time=0.24895833333333334
EXTRACT: note_on channel=1 note=70 velocity=0 time=0
EXTRACT: note_on channel=2 note=68 velocity=0 time=0
EXTRACT: note_on channel=3 note=65 velocity=0 time=0
EXTRACT: note_on channel=4 note=63 velocity=0 time=0
EXTRACT: note_on channel=5 note=58 velocity=0 time=0
EXTRACT: note_on channel=6 note=46 velocity=0 time=0
EXTRACT: note_on channel=0 note=63 velocity=80 time=0.0010416666666666667
EXTRACT: note_on channel=6 note=46 velocity=80 time=0
EXTRACT: note_on channel=0 note=63 velocity=0 time=0.24895833333333334
EXTRACT: note_on channel=0 note=63 velocity=80 time=0.0010416666666666667
EXTRACT: note_on channel=0 note=63 velocity=0 time=0.24895833333333334
EXTRACT: note_on channel=6 note=46 velocity=0 time=0
EXTRACT: note_on channel=0 note=65 velocity=80 time=0.0010416666666666667
EXTRACT: note_on channel=1 note=72 velocity=88 time=0
EXTRACT: note_on channel=2 note=70 velocity=88 time=0
EXTRACT: note_on channel=3 note=67 velocity=88 time=0
EXTRACT: note_on channel=4 note=65 velocity=88 time=0
EXTRACT: note_on channel=5 note=58 velocity=88 time=0
EXTRACT: note_on channel=6 note=46 velocity=80 time=0
EXTRACT: note_on channel=0 note=65 velocity=0 time=0.49895833333333334
EXTRACT: note_on channel=1 note=72 velocity=0 time=0
EXTRACT: note_on channel=2 note=70 velocity=0 time=0
EXTRACT: note_on channel=3 note=67 velocity=0 time=0
EXTRACT: note_on channel=4 note=65 velocity=0 time=0
EXTRACT: note_on channel=5 note=58 velocity=0 time=0
EXTRACT: note_on channel=6 note=46 velocity=0 time=0
EXTRACT: note_on channel=0 note=67 velocity=80 time=0.0010416666666666667
EXTRACT: note_on channel=1 note=72 velocity=88 time=0
EXTRACT: note_on channel=2 note=70 velocity=88 time=0
EXTRACT: note_on channel=3 note=67 velocity=88 time=0
EXTRACT: note_on channel=4 note=65 velocity=88 time=0
EXTRACT: note_on channel=5 note=58 velocity=88 time=0
EXTRACT: note_on channel=6 note=46 velocity=80 time=0
EXTRACT: note_on channel=0 note=67 velocity=0 time=0.49895833333333334
EXTRACT: note_on channel=1 note=72 velocity=0 time=0
EXTRACT: note_on channel=2 note=70 velocity=0 time=0
EXTRACT: note_on channel=3 note=67 velocity=0 time=0
EXTRACT: note_on channel=4 note=65 velocity=0 time=0
EXTRACT: note_on channel=5 note=58 velocity=0 time=0
EXTRACT: note_on channel=6 note=46 velocity=0 time=0
EXTRACT: note_on channel=0 note=65 velocity=80 time=0.0010416666666666667
EXTRACT: note_on channel=1 note=72 velocity=88 time=0
EXTRACT: note_on channel=2 note=70 velocity=88 time=0
EXTRACT: note_on channel=3 note=67 velocity=88 time=0
EXTRACT: note_on channel=4 note=65 velocity=88 time=0
EXTRACT: note_on channel=5 note=60 velocity=88 time=0
EXTRACT: note_on channel=6 note=48 velocity=80 time=0
EXTRACT: note_on channel=3 note=67 velocity=0 time=0.24895833333333334
EXTRACT: note_on channel=6 note=48 velocity=0 time=0
EXTRACT: note_on channel=3 note=65 velocity=88 time=0.0010416666666666667
EXTRACT: note_on channel=6 note=46 velocity=80 time=0
EXTRACT: note_on channel=0 note=65 velocity=0 time=0.24895833333333334
EXTRACT: note_on channel=1 note=72 velocity=0 time=0
EXTRACT: note_on channel=2 note=70 velocity=0 time=0
EXTRACT: note_on channel=3 note=65 velocity=0 time=0
EXTRACT: note_on channel=4 note=65 velocity=0 time=0
EXTRACT: note_on channel=5 note=60 velocity=0 time=0
EXTRACT: note_on channel=6 note=46 velocity=0 time=0
EXTRACT: note_on channel=0 note=63 velocity=80 time=0.0010416666666666667
EXTRACT: note_on channel=1 note=70 velocity=88 time=0
EXTRACT: note_on channel=2 note=70 velocity=88 time=0
EXTRACT: note_on channel=3 note=63 velocity=88 time=0
EXTRACT: note_on channel=4 note=63 velocity=88 time=0
EXTRACT: note_on channel=5 note=58 velocity=88 time=0
EXTRACT: note_on channel=6 note=46 velocity=80 time=0
EXTRACT: note_on channel=0 note=63 velocity=0 time=0.24895833333333334
EXTRACT: note_on channel=0 note=63 velocity=80 time=0.0010416666666666667
EXTRACT: note_on channel=0 note=63 velocity=0 time=0.24895833333333334
EXTRACT: note_on channel=1 note=70 velocity=0 time=0
EXTRACT: note_on channel=2 note=70 velocity=0 time=0
EXTRACT: note_on channel=3 note=63 velocity=0 time=0
EXTRACT: note_on channel=4 note=63 velocity=0 time=0
EXTRACT: note_on channel=5 note=58 velocity=0 time=0
EXTRACT: note_on channel=6 note=46 velocity=0 time=0
EXTRACT: note_on channel=0 note=75 velocity=80 time=0.0010416666666666667
EXTRACT: note_on channel=1 note=75 velocity=88 time=0
EXTRACT: note_on channel=2 note=70 velocity=88 time=0
EXTRACT: note_on channel=3 note=67 velocity=88 time=0
EXTRACT: note_on channel=4 note=63 velocity=88 time=0
EXTRACT: note_on channel=5 note=58 velocity=88 time=0
EXTRACT: note_on channel=6 note=51 velocity=80 time=0
EXTRACT: note_on channel=1 note=75 velocity=0 time=0.9989583333333333
EXTRACT: note_on channel=2 note=70 velocity=0 time=0
EXTRACT: note_on channel=3 note=67 velocity=0 time=0
EXTRACT: note_on channel=4 note=63 velocity=0 time=0
EXTRACT: note_on channel=5 note=58 velocity=0 time=0
EXTRACT: note_on channel=6 note=51 velocity=0 time=0
EXTRACT: note_on channel=0 note=75 velocity=0 time=0.5
INTERVALS49 - Come_On_Over_Baby.mid
unison502
2m9
2M150
3m42
3M55
4m27
4M1
5m7
5M2
6m9
7m1
7M0