EXTRACT: control_change channel=0 control=101 value=0 time=0
EXTRACT: control_change channel=0 control=100 value=0 time=0
EXTRACT: control_change channel=0 control=6 value=12 time=0
EXTRACT: control_change channel=0 control=38 value=0 time=0
EXTRACT: control_change channel=1 control=101 value=0 time=0
EXTRACT: control_change channel=1 control=100 value=0 time=0
EXTRACT: control_change channel=1 control=6 value=12 time=0
EXTRACT: control_change channel=1 control=38 value=0 time=0
EXTRACT: control_change channel=2 control=101 value=0 time=0
EXTRACT: control_change channel=2 control=100 value=0 time=0
EXTRACT: control_change channel=2 control=6 value=12 time=0
EXTRACT: control_change channel=2 control=38 value=0 time=0
EXTRACT: control_change channel=3 control=101 value=0 time=0
EXTRACT: control_change channel=3 control=100 value=0 time=0
EXTRACT: control_change channel=3 control=6 value=12 time=0
EXTRACT: control_change channel=3 control=38 value=0 time=0
EXTRACT: control_change channel=4 control=101 value=0 time=0
EXTRACT: control_change channel=4 control=100 value=0 time=0
EXTRACT: control_change channel=4 control=6 value=12 time=0
EXTRACT: control_change channel=4 control=38 value=0 time=0
EXTRACT: control_change channel=5 control=101 value=0 time=0
EXTRACT: control_change channel=5 control=100 value=0 time=0
EXTRACT: control_change channel=5 control=6 value=12 time=0
EXTRACT: control_change channel=5 control=38 value=0 time=0
EXTRACT: control_change channel=6 control=101 value=0 time=0
EXTRACT: control_change channel=6 control=100 value=0 time=0
EXTRACT: control_change channel=6 control=6 value=12 time=0
EXTRACT: control_change channel=6 control=38 value=0 time=0
EXTRACT: control_change channel=7 control=101 value=0 time=0
EXTRACT: control_change channel=7 control=100 value=0 time=0
EXTRACT: control_change channel=7 control=6 value=12 time=0
EXTRACT: control_change channel=7 control=38 value=0 time=0
EXTRACT: control_change channel=8 control=101 value=0 time=0
EXTRACT: control_change channel=8 control=100 value=0 time=0
EXTRACT: control_change channel=8 control=6 value=12 time=0
EXTRACT: control_change channel=8 control=38 value=0 time=0
EXTRACT: control_change channel=9 control=101 value=0 time=0
EXTRACT: control_change channel=9 control=100 value=0 time=0
EXTRACT: control_change channel=9 control=6 value=12 time=0
EXTRACT: control_change channel=9 control=38 value=0 time=0
EXTRACT: control_change channel=10 control=101 value=0 time=0
EXTRACT: control_change channel=10 control=100 value=0 time=0
EXTRACT: control_change channel=10 control=6 value=12 time=0
EXTRACT: control_change channel=10 control=38 value=0 time=0
EXTRACT: control_change channel=11 control=101 value=0 time=0
EXTRACT: control_change channel=11 control=100 value=0 time=0
EXTRACT: control_change channel=11 control=6 value=12 time=0
EXTRACT: control_change channel=11 control=38 value=0 time=0
EXTRACT: control_change channel=12 control=101 value=0 time=0
EXTRACT: control_change channel=12 control=100 value=0 time=0
EXTRACT: control_change channel=12 control=6 value=12 time=0
EXTRACT: control_change channel=12 control=38 value=0 time=0
EXTRACT: control_change channel=13 control=101 value=0 time=0
EXTRACT: control_change channel=13 control=100 value=0 time=0
EXTRACT: control_change channel=13 control=6 value=12 time=0
EXTRACT: control_change channel=13 control=38 value=0 time=0
EXTRACT: control_change channel=14 control=101 value=0 time=0
EXTRACT: control_change channel=14 control=100 value=0 time=0
EXTRACT: control_change channel=14 control=6 value=12 time=0
EXTRACT: control_change channel=14 control=38 value=0 time=0
EXTRACT: control_change channel=15 control=101 value=0 time=0
EXTRACT: control_change channel=15 control=100 value=0 time=0
EXTRACT: control_change channel=15 control=6 value=12 time=0
EXTRACT: control_change channel=15 control=38 value=0 time=0
EXTRACT: pitchwheel channel=0 pitch=0 time=0
EXTRACT: control_change channel=0 control=7 value=103 time=0
EXTRACT: control_change channel=0 control=10 value=63 time=0
EXTRACT: control_change channel=0 control=93 value=0 time=0
EXTRACT: control_change channel=0 control=91 value=0 time=0
EXTRACT: control_change channel=0 control=95 value=0 time=0
EXTRACT: control_change channel=0 control=92 value=0 time=0
EXTRACT: control_change channel=0 control=11 value=127 time=0
EXTRACT: program_change channel=0 program=30 time=0
EXTRACT: control_change channel=1 control=7 value=103 time=0
EXTRACT: control_change channel=1 control=10 value=63 time=0
EXTRACT: control_change channel=1 control=93 value=0 time=0
EXTRACT: control_change channel=1 control=91 value=0 time=0
EXTRACT: control_change channel=1 control=95 value=0 time=0
EXTRACT: control_change channel=1 control=92 value=0 time=0
EXTRACT: control_change channel=1 control=11 value=127 time=0
EXTRACT: program_change channel=1 program=30 time=0
EXTRACT: pitchwheel channel=2 pitch=0 time=0
EXTRACT: control_change channel=2 control=7 value=103 time=0
EXTRACT: control_change channel=2 control=10 value=63 time=0
EXTRACT: control_change channel=2 control=93 value=0 time=0
EXTRACT: control_change channel=2 control=91 value=0 time=0
EXTRACT: control_change channel=2 control=95 value=0 time=0
EXTRACT: control_change channel=2 control=92 value=0 time=0
EXTRACT: control_change channel=2 control=11 value=127 time=0
EXTRACT: program_change channel=2 program=87 time=0
EXTRACT: control_change channel=3 control=7 value=103 time=0
EXTRACT: control_change channel=3 control=10 value=63 time=0
EXTRACT: control_change channel=3 control=93 value=0 time=0
EXTRACT: control_change channel=3 control=91 value=0 time=0
EXTRACT: control_change channel=3 control=95 value=0 time=0
EXTRACT: control_change channel=3 control=92 value=0 time=0
EXTRACT: control_change channel=3 control=11 value=127 time=0
EXTRACT: program_change channel=3 program=87 time=0
EXTRACT: pitchwheel channel=4 pitch=0 time=0
EXTRACT: control_change channel=4 control=7 value=127 time=0
EXTRACT: control_change channel=4 control=10 value=63 time=0
EXTRACT: control_change channel=4 control=93 value=0 time=0
EXTRACT: control_change channel=4 control=91 value=0 time=0
EXTRACT: control_change channel=4 control=95 value=0 time=0
EXTRACT: control_change channel=4 control=92 value=0 time=0
EXTRACT: control_change channel=4 control=11 value=127 time=0
EXTRACT: program_change channel=4 program=81 time=0
EXTRACT: control_change channel=5 control=7 value=127 time=0
EXTRACT: control_change channel=5 control=10 value=63 time=0
EXTRACT: control_change channel=5 control=93 value=0 time=0
EXTRACT: control_change channel=5 control=91 value=0 time=0
EXTRACT: control_change channel=5 control=95 value=0 time=0
EXTRACT: control_change channel=5 control=92 value=0 time=0
EXTRACT: control_change channel=5 control=11 value=127 time=0
EXTRACT: program_change channel=5 program=81 time=0
EXTRACT: pitchwheel channel=6 pitch=0 time=0
EXTRACT: control_change channel=6 control=7 value=103 time=0
EXTRACT: control_change channel=6 control=10 value=63 time=0
EXTRACT: control_change channel=6 control=93 value=0 time=0
EXTRACT: control_change channel=6 control=91 value=0 time=0
EXTRACT: control_change channel=6 control=95 value=0 time=0
EXTRACT: control_change channel=6 control=92 value=0 time=0
EXTRACT: control_change channel=6 control=11 value=127 time=0
EXTRACT: program_change channel=6 program=18 time=0
EXTRACT: control_change channel=7 control=7 value=103 time=0
EXTRACT: control_change channel=7 control=10 value=63 time=0
EXTRACT: control_change channel=7 control=93 value=0 time=0
EXTRACT: control_change channel=7 control=91 value=0 time=0
EXTRACT: control_change channel=7 control=95 value=0 time=0
EXTRACT: control_change channel=7 control=92 value=0 time=0
EXTRACT: control_change channel=7 control=11 value=127 time=0
EXTRACT: program_change channel=7 program=18 time=0
EXTRACT: pitchwheel channel=14 pitch=0 time=0
EXTRACT: control_change channel=14 control=7 value=103 time=0
EXTRACT: control_change channel=14 control=10 value=63 time=0
EXTRACT: control_change channel=14 control=93 value=0 time=0
EXTRACT: control_change channel=14 control=91 value=0 time=0
EXTRACT: control_change channel=14 control=95 value=0 time=0
EXTRACT: control_change channel=14 control=92 value=0 time=0
EXTRACT: control_change channel=14 control=11 value=127 time=0
EXTRACT: program_change channel=14 program=33 time=0
EXTRACT: control_change channel=15 control=7 value=103 time=0
EXTRACT: control_change channel=15 control=10 value=63 time=0
EXTRACT: control_change channel=15 control=93 value=0 time=0
EXTRACT: control_change channel=15 control=91 value=0 time=0
EXTRACT: control_change channel=15 control=95 value=0 time=0
EXTRACT: control_change channel=15 control=92 value=0 time=0
EXTRACT: control_change channel=15 control=11 value=127 time=0
EXTRACT: program_change channel=15 program=33 time=0
EXTRACT: pitchwheel channel=9 pitch=0 time=0
EXTRACT: control_change channel=9 control=7 value=103 time=0
EXTRACT: control_change channel=9 control=10 value=63 time=0
EXTRACT: control_change channel=9 control=93 value=0 time=0
EXTRACT: control_change channel=9 control=91 value=0 time=0
EXTRACT: control_change channel=9 control=95 value=0 time=0
EXTRACT: control_change channel=9 control=92 value=0 time=0
EXTRACT: control_change channel=9 control=11 value=127 time=0
EXTRACT: program_change channel=9 program=0 time=0
EXTRACT: note_on channel=0 note=52 velocity=95 time=2.12263875
EXTRACT: note_off channel=0 note=52 velocity=95 time=0.14150925
EXTRACT: note_on channel=0 note=57 velocity=111 time=0
EXTRACT: note_on channel=9 note=35 velocity=95 time=0
EXTRACT: note_on channel=9 note=44 velocity=95 time=0
EXTRACT: note_on channel=9 note=49 velocity=95 time=0
EXTRACT: note_on channel=9 note=57 velocity=95 time=0
EXTRACT: note_off channel=9 note=35 velocity=95 time=0.14150925
EXTRACT: note_off channel=9 note=44 velocity=95 time=0
EXTRACT: note_off channel=9 note=49 velocity=95 time=0
EXTRACT: note_off channel=9 note=57 velocity=95 time=0
EXTRACT: note_off channel=0 note=57 velocity=111 time=0.14150925
EXTRACT: note_on channel=0 note=64 velocity=95 time=0
EXTRACT: note_on channel=9 note=44 velocity=95 time=0
EXTRACT: note_off channel=9 note=44 velocity=95 time=0.14150925
EXTRACT: note_on channel=9 note=0 velocity=95 time=0
EXTRACT: note_on channel=9 note=44 velocity=95 time=0
EXTRACT: note_off channel=0 note=64 velocity=95 time=0.14150925
EXTRACT: note_on channel=0 note=61 velocity=95 time=0
EXTRACT: note_off channel=9 note=0 velocity=95 time=0
EXTRACT: note_off channel=9 note=44 velocity=95 time=0
EXTRACT: note_on channel=9 note=0 velocity=95 time=0
EXTRACT: note_on channel=9 note=37 velocity=95 time=0
EXTRACT: note_on channel=9 note=40 velocity=95 time=0
EXTRACT: note_on channel=9 note=44 velocity=95 time=0
EXTRACT: note_off channel=9 note=0 velocity=95 time=0.14150925
EXTRACT: note_off channel=9 note=37 velocity=95 time=0
EXTRACT: note_off channel=9 note=40 velocity=95 time=0
EXTRACT: note_off channel=9 note=44 velocity=95 time=0
EXTRACT: note_off channel=0 note=61 velocity=95 time=0.14150925
EXTRACT: note_on channel=1 note=57 velocity=95 time=0
EXTRACT: note_on channel=9 note=35 velocity=95 time=0
EXTRACT: note_on channel=9 note=44 velocity=95 time=0
EXTRACT: pitchwheel channel=1 pitch=-256 time=0.070754625
EXTRACT: pitchwheel channel=1 pitch=-640 time=0.070754625
EXTRACT: pitchwheel channel=1 pitch=0 time=0
EXTRACT: note_off channel=1 note=57 velocity=95 time=0
EXTRACT: note_on channel=0 note=56 velocity=95 time=0
EXTRACT: note_off channel=9 note=35 velocity=95 time=0
EXTRACT: note_off channel=9 note=44 velocity=95 time=0
EXTRACT: note_on channel=9 note=0 velocity=95 time=0
EXTRACT: note_on channel=9 note=35 velocity=95 time=0
EXTRACT: note_on channel=9 note=44 velocity=95 time=0
EXTRACT: note_off channel=9 note=0 velocity=95 time=0.14150925
EXTRACT: note_off channel=9 note=35 velocity=95 time=0
EXTRACT: note_off channel=9 note=44 velocity=95 time=0
EXTRACT: note_on channel=9 note=0 velocity=95 time=0
EXTRACT: note_on channel=9 note=44 velocity=95 time=0
EXTRACT: note_off channel=9 note=0 velocity=95 time=0.14150925
EXTRACT: note_off channel=9 note=44 velocity=95 time=0
EXTRACT: note_on channel=9 note=35 velocity=95 time=0
EXTRACT: note_off channel=0 note=56 velocity=95 time=0.14150925
EXTRACT: note_on channel=0 note=64 velocity=95 time=0
EXTRACT: note_off channel=9 note=35 velocity=95 time=0
EXTRACT: note_on channel=9 note=0 velocity=95 time=0
EXTRACT: note_on channel=9 note=44 velocity=95 time=0
EXTRACT: note_off channel=9 note=0 velocity=95 time=0.14150925
EXTRACT: note_off channel=9 note=44 velocity=95 time=0
EXTRACT: note_on channel=9 note=0 velocity=95 time=0
EXTRACT: note_on channel=9 note=44 velocity=95 time=0
EXTRACT: note_off channel=0 note=64 velocity=95 time=0.14150925
EXTRACT: note_on channel=0 note=59 velocity=95 time=0
EXTRACT: note_off channel=9 note=0 velocity=95 time=0
EXTRACT: note_off channel=9 note=44 velocity=95 time=0
EXTRACT: note_on channel=9 note=0 velocity=95 time=0
EXTRACT: note_on channel=9 note=37 velocity=95 time=0
EXTRACT: note_on channel=9 note=40 velocity=95 time=0
EXTRACT: note_on channel=9 note=44 velocity=95 time=0
EXTRACT: note_off channel=9 note=0 velocity=95 time=0.14150925
EXTRACT: note_off channel=9 note=37 velocity=95 time=0
EXTRACT: note_off channel=9 note=40 velocity=95 time=0
EXTRACT: note_off channel=9 note=44 velocity=95 time=0
EXTRACT: note_off channel=0 note=59 velocity=95 time=0.14150925
EXTRACT: note_on channel=1 note=56 velocity=95 time=0
EXTRACT: note_on channel=9 note=35 velocity=95 time=0
EXTRACT: note_on channel=9 note=44 velocity=95 time=0
EXTRACT: pitchwheel channel=1 pitch=256 time=0.070754625
EXTRACT: pitchwheel channel=1 pitch=640 time=0.070754625
EXTRACT: pitchwheel channel=1 pitch=0 time=0
EXTRACT: note_off channel=1 note=56 velocity=95 time=0
EXTRACT: note_on channel=0 note=57 velocity=95 time=0
EXTRACT: note_off channel=9 note=35 velocity=95 time=0
EXTRACT: note_off channel=9 note=44 velocity=95 time=0
EXTRACT: note_on channel=9 note=0 velocity=95 time=0
EXTRACT: note_on channel=9 note=44 velocity=95 time=0
EXTRACT: note_off channel=9 note=0 velocity=95 time=0.14150925
EXTRACT: note_off channel=9 note=44 velocity=95 time=0
EXTRACT: note_on channel=9 note=0 velocity=95 time=0
EXTRACT: note_on channel=9 note=35 velocity=95 time=0
EXTRACT: note_on channel=9 note=44 velocity=95 time=0
EXTRACT: note_off channel=9 note=0 velocity=95 time=0.14150925
EXTRACT: note_off channel=9 note=35 velocity=95 time=0
EXTRACT: note_off channel=9 note=44 velocity=95 time=0
EXTRACT: note_off channel=0 note=57 velocity=95 time=0.14150925
EXTRACT: note_on channel=0 note=66 velocity=95 time=0
EXTRACT: note_on channel=9 note=44 velocity=95 time=0
EXTRACT: note_off channel=9 note=44 velocity=95 time=0.14150925
EXTRACT: note_on channel=9 note=0 velocity=95 time=0
EXTRACT: note_on channel=9 note=44 velocity=95 time=0
EXTRACT: note_off channel=0 note=66 velocity=95 time=0.14150925
EXTRACT: note_on channel=0 note=62 velocity=95 time=0
EXTRACT: note_off channel=9 note=0 velocity=95 time=0
EXTRACT: note_off channel=9 note=44 velocity=95 time=0
EXTRACT: note_on channel=9 note=0 velocity=95 time=0
EXTRACT: note_on channel=9 note=40 velocity=95 time=0
EXTRACT: note_on channel=9 note=44 velocity=95 time=0
EXTRACT: note_off channel=9 note=0 velocity=95 time=0.14150925
EXTRACT: note_off channel=9 note=40 velocity=95 time=0
EXTRACT: note_off channel=9 note=44 velocity=95 time=0
EXTRACT: note_off channel=0 note=62 velocity=95 time=0.14150925
EXTRACT: note_on channel=1 note=57 velocity=95 time=0
EXTRACT: note_on channel=9 note=35 velocity=95 time=0
EXTRACT: note_on channel=9 note=44 velocity=95 time=0
EXTRACT: pitchwheel channel=1 pitch=-256 time=0.070754625
EXTRACT: pitchwheel channel=1 pitch=-640 time=0.070754625
EXTRACT: pitchwheel channel=1 pitch=0 time=0
EXTRACT: note_off channel=1 note=57 velocity=95 time=0
EXTRACT: note_on channel=0 note=56 velocity=95 time=0
EXTRACT: note_off channel=9 note=35 velocity=95 time=0
EXTRACT: note_off channel=9 note=44 velocity=95 time=0
EXTRACT: note_on channel=9 note=0 velocity=95 time=0
EXTRACT: note_on channel=9 note=35 velocity=95 time=0
EXTRACT: note_on channel=9 note=44 velocity=95 time=0
EXTRACT: note_off channel=9 note=0 velocity=95 time=0.14150925
EXTRACT: note_off channel=9 note=35 velocity=95 time=0
EXTRACT: note_off channel=9 note=44 velocity=95 time=0
EXTRACT: note_on channel=9 note=0 velocity=95 time=0
EXTRACT: note_on channel=9 note=44 velocity=95 time=0
EXTRACT: note_off channel=9 note=0 velocity=95 time=0.14150925
EXTRACT: note_off channel=9 note=44 velocity=95 time=0
EXTRACT: note_on channel=9 note=0 velocity=95 time=0
EXTRACT: note_on channel=9 note=44 velocity=95 time=0
EXTRACT: note_off channel=0 note=56 velocity=95 time=0.14150925
EXTRACT: note_on channel=0 note=64 velocity=95 time=0
EXTRACT: note_off channel=9 note=0 velocity=95 time=0
EXTRACT: note_off channel=9 note=44 velocity=95 time=0
EXTRACT: note_on channel=9 note=0 velocity=95 time=0
EXTRACT: note_on channel=9 note=35 velocity=95 time=0
EXTRACT: note_on channel=9 note=46 velocity=95 time=0
EXTRACT: note_off channel=9 note=0 velocity=95 time=0.14150925
EXTRACT: note_off channel=9 note=35 velocity=95 time=0
EXTRACT: note_off channel=9 note=46 velocity=95 time=0
EXTRACT: note_off channel=0 note=64 velocity=95 time=0.14150925
EXTRACT: note_on channel=0 note=59 velocity=95 time=0
EXTRACT: note_on channel=9 note=40 velocity=95 time=0
EXTRACT: note_on channel=9 note=44 velocity=95 time=0
EXTRACT: note_off channel=9 note=40 velocity=95 time=0.14150925
EXTRACT: note_off channel=9 note=44 velocity=95 time=0
EXTRACT: note_on channel=9 note=0 velocity=95 time=0
EXTRACT: note_on channel=9 note=44 velocity=95 time=0
EXTRACT: note_off channel=0 note=59 velocity=95 time=0.14150925
EXTRACT: note_on channel=1 note=56 velocity=95 time=0
EXTRACT: note_off channel=9 note=0 velocity=95 time=0
EXTRACT: note_off channel=9 note=44 velocity=95 time=0
EXTRACT: note_on channel=9 note=35 velocity=95 time=0
EXTRACT: note_on channel=9 note=46 velocity=95 time=0
EXTRACT: pitchwheel channel=1 pitch=256 time=0.070754625
EXTRACT: pitchwheel channel=1 pitch=640 time=0.070754625
EXTRACT: pitchwheel channel=1 pitch=0 time=0
EXTRACT: note_off channel=1 note=56 velocity=95 time=0
EXTRACT: note_on channel=0 note=57 velocity=95 time=0
EXTRACT: note_on channel=4 note=69 velocity=95 time=0
EXTRACT: note_off channel=9 note=35 velocity=95 time=0
EXTRACT: note_off channel=9 note=46 velocity=95 time=0
EXTRACT: note_on channel=9 note=0 velocity=95 time=0
EXTRACT: note_on channel=9 note=35 velocity=95 time=0
EXTRACT: note_on channel=9 note=44 velocity=95 time=0
EXTRACT: note_off channel=9 note=0 velocity=95 time=0.14150925
EXTRACT: note_off channel=9 note=35 velocity=95 time=0
EXTRACT: note_off channel=9 note=44 velocity=95 time=0
EXTRACT: note_on channel=9 note=0 velocity=95 time=0
EXTRACT: note_on channel=9 note=44 velocity=95 time=0
EXTRACT: note_off channel=0 note=57 velocity=95 time=0.2830185
EXTRACT: note_on channel=0 note=64 velocity=95 time=0
EXTRACT: note_off channel=9 note=0 velocity=95 time=0
EXTRACT: note_off channel=9 note=44 velocity=95 time=0
EXTRACT: note_on channel=9 note=0 velocity=95 time=0
EXTRACT: note_on channel=9 note=35 velocity=95 time=0
EXTRACT: note_on channel=9 note=44 velocity=95 time=0
EXTRACT: note_off channel=9 note=0 velocity=95 time=0.14150925
EXTRACT: note_off channel=9 note=35 velocity=95 time=0
EXTRACT: note_off channel=9 note=44 velocity=95 time=0
EXTRACT: note_off channel=0 note=64 velocity=95 time=0.14150925
EXTRACT: note_on channel=0 note=61 velocity=95 time=0
EXTRACT: note_off channel=4 note=69 velocity=95 time=0
EXTRACT: note_on channel=9 note=40 velocity=95 time=0
EXTRACT: note_on channel=9 note=44 velocity=95 time=0
EXTRACT: note_off channel=9 note=40 velocity=95 time=0.14150925
EXTRACT: note_off channel=9 note=44 velocity=95 time=0
EXTRACT: note_off channel=0 note=61 velocity=95 time=0.14150925
EXTRACT: note_on channel=1 note=57 velocity=95 time=0
EXTRACT: note_on channel=9 note=35 velocity=95 time=0
EXTRACT: note_on channel=9 note=44 velocity=95 time=0
EXTRACT: pitchwheel channel=1 pitch=-256 time=0.070754625
EXTRACT: pitchwheel channel=1 pitch=-640 time=0.070754625
EXTRACT: pitchwheel channel=1 pitch=0 time=0
EXTRACT: note_off channel=1 note=57 velocity=95 time=0
EXTRACT: note_on channel=0 note=56 velocity=95 time=0
EXTRACT: note_off channel=9 note=35 velocity=95 time=0
EXTRACT: note_off channel=9 note=44 velocity=95 time=0
EXTRACT: note_on channel=9 note=0 velocity=95 time=0
EXTRACT: note_on channel=9 note=35 velocity=95 time=0
EXTRACT: note_on channel=9 note=44 velocity=95 time=0
EXTRACT: note_off channel=9 note=0 velocity=95 time=0.14150925
EXTRACT: note_off channel=9 note=35 velocity=95 time=0
EXTRACT: note_off channel=9 note=44 velocity=95 time=0
EXTRACT: note_on channel=9 note=0 velocity=95 time=0
EXTRACT: note_on channel=9 note=44 velocity=95 time=0
EXTRACT: note_off channel=9 note=0 velocity=95 time=0.14150925
EXTRACT: note_off channel=9 note=44 velocity=95 time=0
EXTRACT: note_off channel=0 note=56 velocity=95 time=0.14150925
EXTRACT: note_on channel=0 note=64 velocity=95 time=0
EXTRACT: note_on channel=9 note=35 velocity=95 time=0
EXTRACT: note_on channel=9 note=36 velocity=95 time=0
EXTRACT: note_on channel=9 note=44 velocity=95 time=0
EXTRACT: note_off channel=9 note=35 velocity=95 time=0.14150925
EXTRACT: note_off channel=9 note=36 velocity=95 time=0
EXTRACT: note_off channel=9 note=44 velocity=95 time=0
EXTRACT: note_off channel=0 note=64 velocity=95 time=0.14150925
EXTRACT: note_on channel=0 note=59 velocity=95 time=0
EXTRACT: note_on channel=9 note=40 velocity=95 time=0
EXTRACT: note_on channel=9 note=44 velocity=95 time=0
EXTRACT: note_off channel=9 note=40 velocity=95 time=0.14150925
EXTRACT: note_off channel=9 note=44 velocity=95 time=0
EXTRACT: note_off channel=0 note=59 velocity=95 time=0.14150925
EXTRACT: note_on channel=1 note=56 velocity=95 time=0
EXTRACT: note_on channel=9 note=35 velocity=95 time=0
EXTRACT: note_on channel=9 note=44 velocity=95 time=0
EXTRACT: pitchwheel channel=1 pitch=256 time=0.070754625
EXTRACT: pitchwheel channel=1 pitch=640 time=0.070754625
EXTRACT: pitchwheel channel=1 pitch=0 time=0
EXTRACT: note_off channel=1 note=56 velocity=95 time=0
EXTRACT: note_on channel=0 note=57 velocity=95 time=0
EXTRACT: note_off channel=9 note=35 velocity=95 time=0
EXTRACT: note_off channel=9 note=44 velocity=95 time=0
EXTRACT: note_on channel=9 note=0 velocity=95 time=0
EXTRACT: note_on channel=9 note=35 velocity=95 time=0
EXTRACT: note_on channel=9 note=44 velocity=95 time=0
EXTRACT: note_off channel=9 note=0 velocity=95 time=0.14150925
EXTRACT: note_off channel=9 note=35 velocity=95 time=0
EXTRACT: note_off channel=9 note=44 velocity=95 time=0
EXTRACT: note_on channel=9 note=0 velocity=95 time=0
EXTRACT: note_on channel=9 note=44 velocity=95 time=0
EXTRACT: note_off channel=9 note=0 velocity=95 time=0.14150925
EXTRACT: note_off channel=9 note=44 velocity=95 time=0
EXTRACT: note_off channel=0 note=57 velocity=95 time=0.14150925
EXTRACT: note_on channel=0 note=66 velocity=95 time=0
EXTRACT: note_on channel=9 note=35 velocity=95 time=0
EXTRACT: note_on channel=9 note=44 velocity=95 time=0
EXTRACT: note_off channel=9 note=35 velocity=95 time=0.14150925
EXTRACT: note_off channel=9 note=44 velocity=95 time=0
EXTRACT: note_off channel=0 note=66 velocity=95 time=0.14150925
EXTRACT: note_on channel=0 note=62 velocity=95 time=0
EXTRACT: note_on channel=9 note=40 velocity=95 time=0
EXTRACT: note_on channel=9 note=44 velocity=95 time=0
EXTRACT: note_off channel=9 note=40 velocity=95 time=0.14150925
EXTRACT: note_off channel=9 note=44 velocity=95 time=0
EXTRACT: note_off channel=0 note=62 velocity=95 time=0.14150925
EXTRACT: note_on channel=1 note=57 velocity=95 time=0
EXTRACT: note_on channel=9 note=35 velocity=95 time=0
EXTRACT: note_on channel=9 note=44 velocity=95 time=0
EXTRACT: pitchwheel channel=1 pitch=-256 time=0.070754625
EXTRACT: pitchwheel channel=1 pitch=-640 time=0.070754625
EXTRACT: pitchwheel channel=1 pitch=0 time=0
EXTRACT: note_off channel=1 note=57 velocity=95 time=0
EXTRACT: note_on channel=0 note=56 velocity=95 time=0
EXTRACT: note_off channel=9 note=35 velocity=95 time=0
EXTRACT: note_off channel=9 note=44 velocity=95 time=0
EXTRACT: note_on channel=9 note=0 velocity=95 time=0
EXTRACT: note_on channel=9 note=35 velocity=95 time=0
EXTRACT: note_on channel=9 note=44 velocity=95 time=0
EXTRACT: note_off channel=9 note=0 velocity=95 time=0.14150925
EXTRACT: note_off channel=9 note=35 velocity=95 time=0
EXTRACT: note_off channel=9 note=44 velocity=95 time=0
EXTRACT: note_on channel=9 note=0 velocity=95 time=0
EXTRACT: note_on channel=9 note=44 velocity=95 time=0
EXTRACT: note_off channel=9 note=0 velocity=95 time=0.14150925
EXTRACT: note_off channel=9 note=44 velocity=95 time=0
EXTRACT: note_on channel=9 note=0 velocity=95 time=0
EXTRACT: note_on channel=9 note=35 velocity=95 time=0
EXTRACT: note_on channel=9 note=44 velocity=95 time=0
EXTRACT: note_off channel=0 note=56 velocity=95 time=0.14150925
EXTRACT: note_on channel=0 note=64 velocity=95 time=0
EXTRACT: note_on channel=4 note=73 velocity=95 time=0
EXTRACT: note_off channel=9 note=0 velocity=95 time=0
EXTRACT: note_off channel=9 note=35 velocity=95 time=0
EXTRACT: note_off channel=9 note=44 velocity=95 time=0
EXTRACT: note_on channel=9 note=0 velocity=95 time=0
EXTRACT: note_on channel=9 note=44 velocity=95 time=0
EXTRACT: note_off channel=9 note=0 velocity=95 time=0.14150925
EXTRACT: note_off channel=9 note=44 velocity=95 time=0
EXTRACT: note_off channel=0 note=64 velocity=95 time=0.14150925
EXTRACT: note_on channel=0 note=59 velocity=95 time=0
EXTRACT: note_off channel=4 note=73 velocity=95 time=0
EXTRACT: note_on channel=4 note=71 velocity=95 time=0
EXTRACT: note_on channel=9 note=40 velocity=95 time=0
EXTRACT: note_on channel=9 note=44 velocity=95 time=0
EXTRACT: note_off channel=4 note=71 velocity=95 time=0.14150925
EXTRACT: note_off channel=9 note=40 velocity=95 time=0
EXTRACT: note_off channel=9 note=44 velocity=95 time=0
EXTRACT: note_off channel=0 note=59 velocity=95 time=0.14150925
EXTRACT: note_on channel=1 note=56 velocity=95 time=0
EXTRACT: note_on channel=4 note=69 velocity=95 time=0
EXTRACT: note_on channel=9 note=35 velocity=95 time=0
EXTRACT: note_on channel=9 note=44 velocity=95 time=0
EXTRACT: pitchwheel channel=1 pitch=256 time=0.070754625
EXTRACT: pitchwheel channel=1 pitch=640 time=0.070754625
EXTRACT: pitchwheel channel=1 pitch=0 time=0
EXTRACT: note_off channel=1 note=56 velocity=95 time=0
EXTRACT: note_on channel=0 note=57 velocity=95 time=0
EXTRACT: note_off channel=9 note=35 velocity=95 time=0
EXTRACT: note_off channel=9 note=44 velocity=95 time=0
EXTRACT: note_on channel=9 note=0 velocity=95 time=0
EXTRACT: note_on channel=9 note=46 velocity=95 time=0
EXTRACT: note_on channel=14 note=33 velocity=111 time=0.14150925
EXTRACT: note_off channel=9 note=0 velocity=95 time=0
EXTRACT: note_off channel=9 note=46 velocity=95 time=0
EXTRACT: note_on channel=9 note=35 velocity=95 time=0
EXTRACT: note_on channel=9 note=44 velocity=95 time=0
EXTRACT: note_off channel=9 note=35 velocity=95 time=0.14150925
EXTRACT: note_off channel=9 note=44 velocity=95 time=0
EXTRACT: note_off channel=0 note=57 velocity=95 time=0.14150925
EXTRACT: note_on channel=0 note=64 velocity=95 time=0
EXTRACT: note_off channel=14 note=33 velocity=111 time=0
EXTRACT: note_on channel=14 note=33 velocity=111 time=0
EXTRACT: note_on channel=9 note=35 velocity=95 time=0
EXTRACT: note_on channel=9 note=44 velocity=95 time=0
EXTRACT: note_off channel=14 note=33 velocity=111 time=0.14150925
EXTRACT: note_on channel=14 note=33 velocity=111 time=0
EXTRACT: note_off channel=9 note=35 velocity=95 time=0
EXTRACT: note_off channel=9 note=44 velocity=95 time=0
EXTRACT: note_off channel=0 note=64 velocity=95 time=0.14150925
EXTRACT: note_on channel=0 note=61 velocity=95 time=0
EXTRACT: note_off channel=14 note=33 velocity=111 time=0
EXTRACT: note_on channel=14 note=33 velocity=111 time=0
EXTRACT: note_on channel=9 note=40 velocity=95 time=0
EXTRACT: note_on channel=9 note=44 velocity=95 time=0
EXTRACT: note_off channel=4 note=69 velocity=95 time=0.14150925
EXTRACT: note_off channel=9 note=40 velocity=95 time=0
EXTRACT: note_off channel=9 note=44 velocity=95 time=0
EXTRACT: note_off channel=0 note=61 velocity=95 time=0.14150925
EXTRACT: note_on channel=1 note=57 velocity=95 time=0
EXTRACT: note_on channel=9 note=35 velocity=95 time=0
EXTRACT: note_on channel=9 note=44 velocity=95 time=0
EXTRACT: pitchwheel channel=1 pitch=-256 time=0.070754625
EXTRACT: pitchwheel channel=1 pitch=-640 time=0.070754625
EXTRACT: pitchwheel channel=1 pitch=0 time=0
EXTRACT: note_off channel=1 note=57 velocity=95 time=0
EXTRACT: note_on channel=0 note=56 velocity=95 time=0
EXTRACT: note_off channel=14 note=33 velocity=111 time=0
EXTRACT: note_on channel=14 note=40 velocity=111 time=0
EXTRACT: note_off channel=9 note=35 velocity=95 time=0
EXTRACT: note_off channel=9 note=44 velocity=95 time=0
EXTRACT: note_on channel=9 note=0 velocity=95 time=0
EXTRACT: note_on channel=9 note=35 velocity=95 time=0
EXTRACT: note_on channel=9 note=44 velocity=95 time=0
EXTRACT: note_off channel=14 note=40 velocity=111 time=0.14150925
EXTRACT: note_off channel=9 note=0 velocity=95 time=0
EXTRACT: note_off channel=9 note=35 velocity=95 time=0
EXTRACT: note_off channel=9 note=44 velocity=95 time=0
EXTRACT: note_on channel=9 note=0 velocity=95 time=0
EXTRACT: note_on channel=9 note=44 velocity=95 time=0
EXTRACT: note_on channel=14 note=40 velocity=111 time=0.14150925
EXTRACT: note_off channel=0 note=56 velocity=95 time=0.14150925
EXTRACT: note_on channel=0 note=64 velocity=95 time=0
EXTRACT: note_off channel=14 note=40 velocity=111 time=0
EXTRACT: note_on channel=14 note=40 velocity=111 time=0
EXTRACT: note_off channel=9 note=0 velocity=95 time=0
EXTRACT: note_off channel=9 note=44 velocity=95 time=0
EXTRACT: note_on channel=9 note=0 velocity=95 time=0
EXTRACT: note_on channel=9 note=35 velocity=95 time=0
EXTRACT: note_on channel=9 note=44 velocity=95 time=0
EXTRACT: note_off channel=9 note=0 velocity=95 time=0.14150925
EXTRACT: note_off channel=9 note=35 velocity=95 time=0
EXTRACT: note_off channel=9 note=44 velocity=95 time=0
EXTRACT: note_off channel=0 note=64 velocity=95 time=0.14150925
EXTRACT: note_on channel=0 note=59 velocity=95 time=0
EXTRACT: note_on channel=9 note=40 velocity=95 time=0
EXTRACT: note_on channel=9 note=44 velocity=95 time=0
EXTRACT: note_off channel=9 note=40 velocity=95 time=0.14150925
EXTRACT: note_off channel=9 note=44 velocity=95 time=0
EXTRACT: note_off channel=0 note=59 velocity=95 time=0.14150925
EXTRACT: note_on channel=1 note=56 velocity=95 time=0
EXTRACT: note_on channel=9 note=35 velocity=95 time=0
EXTRACT: note_on channel=9 note=44 velocity=95 time=0
EXTRACT: pitchwheel channel=1 pitch=256 time=0.070754625
EXTRACT: pitchwheel channel=1 pitch=640 time=0.070754625
EXTRACT: pitchwheel channel=1 pitch=0 time=0
EXTRACT: note_off channel=1 note=56 velocity=95 time=0
EXTRACT: note_on channel=0 note=57 velocity=95 time=0
EXTRACT: note_on channel=4 note=66 velocity=95 time=0
EXTRACT: note_off channel=9 note=35 velocity=95 time=0
EXTRACT: note_off channel=9 note=44 velocity=95 time=0
EXTRACT: note_on channel=9 note=0 velocity=95 time=0
EXTRACT: note_on channel=9 note=35 velocity=95 time=0
EXTRACT: note_on channel=9 note=44 velocity=95 time=0
EXTRACT: note_off channel=14 note=40 velocity=111 time=0.14150925
EXTRACT: note_on channel=14 note=38 velocity=111 time=0
EXTRACT: note_off channel=9 note=0 velocity=95 time=0
EXTRACT: note_off channel=9 note=35 velocity=95 time=0
EXTRACT: note_off channel=9 note=44 velocity=95 time=0
EXTRACT: note_on channel=9 note=0 velocity=95 time=0
EXTRACT: note_on channel=9 note=44 velocity=95 time=0
EXTRACT: note_off channel=0 note=57 velocity=95 time=0.2830185
EXTRACT: note_on channel=0 note=66 velocity=95 time=0
EXTRACT: note_off channel=4 note=66 velocity=95 time=0
EXTRACT: note_off channel=14 note=38 velocity=111 time=0
EXTRACT: note_on channel=14 note=38 velocity=111 time=0
EXTRACT: note_off channel=9 note=0 velocity=95 time=0
EXTRACT: note_off channel=9 note=44 velocity=95 time=0
EXTRACT: note_on channel=9 note=0 velocity=95 time=0
EXTRACT: note_on channel=9 note=35 velocity=95 time=0
EXTRACT: note_on channel=9 note=44 velocity=95 time=0
EXTRACT: note_off channel=14 note=38 velocity=111 time=0.14150925
EXTRACT: note_on channel=14 note=38 velocity=111 time=0
EXTRACT: note_off channel=9 note=0 velocity=95 time=0
EXTRACT: note_off channel=9 note=35 velocity=95 time=0
EXTRACT: note_off channel=9 note=44 velocity=95 time=0
EXTRACT: note_off channel=0 note=66 velocity=95 time=0.14150925
EXTRACT: note_on channel=0 note=62 velocity=95 time=0
EXTRACT: note_off channel=14 note=38 velocity=111 time=0
EXTRACT: note_on channel=14 note=38 velocity=111 time=0
EXTRACT: note_on channel=9 note=40 velocity=95 time=0
EXTRACT: note_on channel=9 note=44 velocity=95 time=0
EXTRACT: note_off channel=9 note=40 velocity=95 time=0.14150925
EXTRACT: note_off channel=9 note=44 velocity=95 time=0
EXTRACT: note_off channel=0 note=62 velocity=95 time=0.14150925
EXTRACT: note_on channel=1 note=57 velocity=95 time=0
EXTRACT: note_on channel=4 note=66 velocity=95 time=0
EXTRACT: note_on channel=9 note=35 velocity=95 time=0
EXTRACT: note_on channel=9 note=44 velocity=95 time=0
EXTRACT: pitchwheel channel=1 pitch=-256 time=0.070754625
EXTRACT: pitchwheel channel=1 pitch=-640 time=0.070754625
EXTRACT: pitchwheel channel=1 pitch=0 time=0
EXTRACT: note_off channel=1 note=57 velocity=95 time=0
EXTRACT: note_on channel=0 note=56 velocity=95 time=0
EXTRACT: note_off channel=4 note=66 velocity=95 time=0
EXTRACT: note_on channel=4 note=64 velocity=95 time=0
EXTRACT: note_off channel=14 note=38 velocity=111 time=0
EXTRACT: note_on channel=14 note=40 velocity=111 time=0
EXTRACT: note_off channel=9 note=35 velocity=95 time=0
EXTRACT: note_off channel=9 note=44 velocity=95 time=0
EXTRACT: note_on channel=9 note=0 velocity=95 time=0
EXTRACT: note_on channel=9 note=35 velocity=95 time=0
EXTRACT: note_on channel=9 note=44 velocity=95 time=0
EXTRACT: note_off channel=14 note=40 velocity=111 time=0.14150925
EXTRACT: note_off channel=9 note=0 velocity=95 time=0
EXTRACT: note_off channel=9 note=35 velocity=95 time=0
EXTRACT: note_off channel=9 note=44 velocity=95 time=0
EXTRACT: note_on channel=9 note=0 velocity=95 time=0
EXTRACT: note_on channel=9 note=44 velocity=95 time=0
EXTRACT: note_on channel=14 note=40 velocity=111 time=0.14150925
EXTRACT: note_off channel=9 note=0 velocity=95 time=0
EXTRACT: note_off channel=9 note=44 velocity=95 time=0
EXTRACT: note_on channel=9 note=35 velocity=95 time=0
EXTRACT: note_off channel=0 note=56 velocity=95 time=0.14150925
EXTRACT: note_on channel=0 note=64 velocity=95 time=0
EXTRACT: note_off channel=14 note=40 velocity=111 time=0
EXTRACT: note_on channel=14 note=40 velocity=111 time=0
EXTRACT: note_off channel=9 note=35 velocity=95 time=0
EXTRACT: note_on channel=9 note=0 velocity=95 time=0
EXTRACT: note_on channel=9 note=35 velocity=95 time=0
EXTRACT: note_on channel=9 note=44 velocity=95 time=0
EXTRACT: note_off channel=4 note=64 velocity=95 time=0.14150925
EXTRACT: note_off channel=9 note=0 velocity=95 time=0
EXTRACT: note_off channel=9 note=35 velocity=95 time=0
EXTRACT: note_off channel=9 note=44 velocity=95 time=0
EXTRACT: note_off channel=0 note=64 velocity=95 time=0.14150925
EXTRACT: note_on channel=0 note=59 velocity=95 time=0
EXTRACT: note_on channel=9 note=40 velocity=95 time=0
EXTRACT: note_on channel=9 note=46 velocity=95 time=0
EXTRACT: note_off channel=0 note=59 velocity=95 time=0.2830185
EXTRACT: note_on channel=1 note=56 velocity=95 time=0
EXTRACT: note_off channel=9 note=40 velocity=95 time=0
EXTRACT: note_off channel=9 note=46 velocity=95 time=0
EXTRACT: note_on channel=9 note=35 velocity=95 time=0
EXTRACT: note_on channel=9 note=44 velocity=95 time=0
EXTRACT: pitchwheel channel=1 pitch=256 time=0.070754625
EXTRACT: pitchwheel channel=1 pitch=640 time=0.070754625
EXTRACT: pitchwheel channel=1 pitch=0 time=0
EXTRACT: note_off channel=1 note=56 velocity=95 time=0
EXTRACT: note_on channel=0 note=57 velocity=95 time=0
EXTRACT: note_on channel=4 note=69 velocity=95 time=0
EXTRACT: note_off channel=9 note=35 velocity=95 time=0
EXTRACT: note_off channel=9 note=44 velocity=95 time=0
EXTRACT: note_on channel=9 note=0 velocity=95 time=0
EXTRACT: note_on channel=9 note=35 velocity=95 time=0
EXTRACT: note_on channel=9 note=44 velocity=95 time=0
EXTRACT: note_off channel=14 note=40 velocity=111 time=0.14150925
EXTRACT: note_on channel=14 note=33 velocity=111 time=0
EXTRACT: note_off channel=9 note=0 velocity=95 time=0
EXTRACT: note_off channel=9 note=35 velocity=95 time=0
EXTRACT: note_off channel=9 note=44 velocity=95 time=0
EXTRACT: note_on channel=9 note=0 velocity=95 time=0
EXTRACT: note_on channel=9 note=44 velocity=95 time=0
EXTRACT: note_off channel=0 note=57 velocity=95 time=0.2830185
EXTRACT: note_on channel=0 note=64 velocity=95 time=0
EXTRACT: note_off channel=14 note=33 velocity=111 time=0
EXTRACT: note_on channel=14 note=33 velocity=111 time=0
EXTRACT: note_off channel=9 note=0 velocity=95 time=0
EXTRACT: note_off channel=9 note=44 velocity=95 time=0
EXTRACT: note_on channel=9 note=0 velocity=95 time=0
EXTRACT: note_on channel=9 note=35 velocity=95 time=0
EXTRACT: note_on channel=9 note=44 velocity=95 time=0
EXTRACT: note_off channel=14 note=33 velocity=111 time=0.14150925
EXTRACT: note_on channel=14 note=33 velocity=111 time=0
EXTRACT: note_off channel=9 note=0 velocity=95 time=0
EXTRACT: note_off channel=9 note=35 velocity=95 time=0
EXTRACT: note_off channel=9 note=44 velocity=95 time=0
EXTRACT: note_off channel=0 note=64 velocity=95 time=0.14150925
EXTRACT: note_on channel=0 note=61 velocity=95 time=0
EXTRACT: note_off channel=4 note=69 velocity=95 time=0
EXTRACT: note_off channel=14 note=33 velocity=111 time=0
EXTRACT: note_on channel=14 note=33 velocity=111 time=0
EXTRACT: note_on channel=9 note=40 velocity=95 time=0
EXTRACT: note_on channel=9 note=44 velocity=95 time=0
EXTRACT: note_off channel=9 note=40 velocity=95 time=0.14150925
EXTRACT: note_off channel=9 note=44 velocity=95 time=0
EXTRACT: note_off channel=0 note=61 velocity=95 time=0.14150925
EXTRACT: note_on channel=1 note=57 velocity=95 time=0
EXTRACT: note_on channel=9 note=35 velocity=95 time=0
EXTRACT: note_on channel=9 note=44 velocity=95 time=0
EXTRACT: pitchwheel channel=1 pitch=-256 time=0.070754625
EXTRACT: pitchwheel channel=1 pitch=-640 time=0.070754625
EXTRACT: pitchwheel channel=1 pitch=0 time=0
EXTRACT: note_off channel=1 note=57 velocity=95 time=0
EXTRACT: note_on channel=0 note=56 velocity=95 time=0
EXTRACT: note_off channel=14 note=33 velocity=111 time=0
EXTRACT: note_on channel=14 note=40 velocity=111 time=0
EXTRACT: note_off channel=9 note=35 velocity=95 time=0
EXTRACT: note_off channel=9 note=44 velocity=95 time=0
EXTRACT: note_on channel=9 note=0 velocity=95 time=0
EXTRACT: note_on channel=9 note=35 velocity=95 time=0
EXTRACT: note_on channel=9 note=44 velocity=95 time=0
EXTRACT: note_off channel=14 note=40 velocity=111 time=0.14150925
EXTRACT: note_off channel=9 note=0 velocity=95 time=0
EXTRACT: note_off channel=9 note=35 velocity=95 time=0
EXTRACT: note_off channel=9 note=44 velocity=95 time=0
EXTRACT: note_on channel=9 note=0 velocity=95 time=0
EXTRACT: note_on channel=9 note=44 velocity=95 time=0
EXTRACT: note_on channel=14 note=40 velocity=111 time=0.14150925
EXTRACT: note_off channel=0 note=56 velocity=95 time=0.14150925
EXTRACT: note_on channel=0 note=64 velocity=95 time=0
EXTRACT: note_off channel=14 note=40 velocity=111 time=0
EXTRACT: note_on channel=14 note=40 velocity=111 time=0
EXTRACT: note_off channel=9 note=0 velocity=95 time=0
EXTRACT: note_off channel=9 note=44 velocity=95 time=0
EXTRACT: note_on channel=9 note=0 velocity=95 time=0
EXTRACT: note_on channel=9 note=35 velocity=95 time=0
EXTRACT: note_on channel=9 note=44 velocity=95 time=0
EXTRACT: note_off channel=9 note=0 velocity=95 time=0.14150925
EXTRACT: note_off channel=9 note=35 velocity=95 time=0
EXTRACT: note_off channel=9 note=44 velocity=95 time=0
EXTRACT: note_off channel=0 note=64 velocity=95 time=0.14150925
EXTRACT: note_on channel=0 note=59 velocity=95 time=0
EXTRACT: note_on channel=9 note=40 velocity=95 time=0
EXTRACT: note_on channel=9 note=44 velocity=95 time=0
EXTRACT: note_off channel=9 note=40 velocity=95 time=0.14150925
EXTRACT: note_off channel=9 note=44 velocity=95 time=0
EXTRACT: note_off channel=0 note=59 velocity=95 time=0.14150925
EXTRACT: note_on channel=1 note=56 velocity=95 time=0
EXTRACT: note_on channel=9 note=35 velocity=95 time=0
EXTRACT: note_on channel=9 note=44 velocity=95 time=0
EXTRACT: pitchwheel channel=1 pitch=256 time=0.070754625
EXTRACT: pitchwheel channel=1 pitch=640 time=0.070754625
EXTRACT: pitchwheel channel=1 pitch=0 time=0
EXTRACT: note_off channel=1 note=56 velocity=95 time=0
EXTRACT: note_on channel=0 note=57 velocity=95 time=0
EXTRACT: note_on channel=4 note=64 velocity=95 time=0
EXTRACT: note_off channel=9 note=35 velocity=95 time=0
EXTRACT: note_off channel=9 note=44 velocity=95 time=0
EXTRACT: note_on channel=9 note=0 velocity=95 time=0
EXTRACT: note_on channel=9 note=35 velocity=95 time=0
EXTRACT: note_on channel=9 note=44 velocity=95 time=0
EXTRACT: note_off channel=14 note=40 velocity=111 time=0.14150925
EXTRACT: note_on channel=14 note=38 velocity=111 time=0
EXTRACT: note_off channel=9 note=0 velocity=95 time=0
EXTRACT: note_off channel=9 note=35 velocity=95 time=0
EXTRACT: note_off channel=9 note=44 velocity=95 time=0
EXTRACT: note_on channel=9 note=0 velocity=95 time=0
EXTRACT: note_on channel=9 note=44 velocity=95 time=0
EXTRACT: note_off channel=9 note=0 velocity=95 time=0.14150925
EXTRACT: note_off channel=9 note=44 velocity=95 time=0
EXTRACT: note_on channel=9 note=35 velocity=95 time=0
EXTRACT: note_off channel=0 note=57 velocity=95 time=0.14150925
EXTRACT: note_on channel=0 note=66 velocity=95 time=0
EXTRACT: note_off channel=4 note=64 velocity=95 time=0
EXTRACT: note_on channel=4 note=66 velocity=95 time=0
EXTRACT: note_off channel=14 note=38 velocity=111 time=0
EXTRACT: note_on channel=14 note=38 velocity=111 time=0
EXTRACT: note_off channel=9 note=35 velocity=95 time=0
EXTRACT: note_on channel=9 note=0 velocity=95 time=0
EXTRACT: note_on channel=9 note=35 velocity=95 time=0
EXTRACT: note_on channel=9 note=44 velocity=95 time=0
EXTRACT: note_off channel=4 note=66 velocity=95 time=0.14150925
EXTRACT: note_off channel=14 note=38 velocity=111 time=0
EXTRACT: note_on channel=14 note=38 velocity=111 time=0
EXTRACT: note_off channel=9 note=0 velocity=95 time=0
EXTRACT: note_off channel=9 note=35 velocity=95 time=0
EXTRACT: note_off channel=9 note=44 velocity=95 time=0
EXTRACT: note_off channel=0 note=66 velocity=95 time=0.14150925
EXTRACT: note_on channel=0 note=62 velocity=95 time=0
EXTRACT: note_off channel=14 note=38 velocity=111 time=0
EXTRACT: note_on channel=14 note=38 velocity=111 time=0
EXTRACT: note_on channel=9 note=40 velocity=95 time=0
EXTRACT: note_on channel=9 note=44 velocity=95 time=0
EXTRACT: note_off channel=9 note=40 velocity=95 time=0.14150925
EXTRACT: note_off channel=9 note=44 velocity=95 time=0
EXTRACT: note_off channel=0 note=62 velocity=95 time=0.14150925
EXTRACT: note_on channel=1 note=57 velocity=95 time=0
EXTRACT: note_on channel=4 note=64 velocity=95 time=0
EXTRACT: note_on channel=9 note=35 velocity=95 time=0
EXTRACT: note_on channel=9 note=44 velocity=95 time=0
EXTRACT: pitchwheel channel=1 pitch=-256 time=0.070754625
EXTRACT: pitchwheel channel=1 pitch=-640 time=0.070754625
EXTRACT: pitchwheel channel=1 pitch=0 time=0
EXTRACT: note_off channel=1 note=57 velocity=95 time=0
EXTRACT: note_on channel=0 note=56 velocity=95 time=0
EXTRACT: note_off channel=14 note=38 velocity=111 time=0
EXTRACT: note_on channel=14 note=40 velocity=111 time=0
EXTRACT: note_off channel=9 note=35 velocity=95 time=0
EXTRACT: note_off channel=9 note=44 velocity=95 time=0
EXTRACT: note_on channel=9 note=0 velocity=95 time=0
EXTRACT: note_on channel=9 note=35 velocity=95 time=0
EXTRACT: note_on channel=9 note=44 velocity=95 time=0
EXTRACT: note_off channel=14 note=40 velocity=111 time=0.14150925
EXTRACT: note_off channel=9 note=0 velocity=95 time=0
EXTRACT: note_off channel=9 note=35 velocity=95 time=0
EXTRACT: note_off channel=9 note=44 velocity=95 time=0
EXTRACT: note_on channel=9 note=0 velocity=95 time=0
EXTRACT: note_on channel=9 note=44 velocity=95 time=0
EXTRACT: note_on channel=14 note=40 velocity=111 time=0.14150925
EXTRACT: note_off channel=9 note=0 velocity=95 time=0
EXTRACT: note_off channel=9 note=44 velocity=95 time=0
EXTRACT: note_on channel=9 note=0 velocity=95 time=0
EXTRACT: note_on channel=9 note=35 velocity=95 time=0
EXTRACT: note_on channel=9 note=44 velocity=95 time=0
EXTRACT: note_off channel=0 note=56 velocity=95 time=0.14150925
EXTRACT: note_on channel=0 note=64 velocity=95 time=0
EXTRACT: note_off channel=14 note=40 velocity=111 time=0
EXTRACT: note_on channel=14 note=40 velocity=111 time=0
EXTRACT: note_off channel=9 note=0 velocity=95 time=0
EXTRACT: note_off channel=9 note=35 velocity=95 time=0
EXTRACT: note_off channel=9 note=44 velocity=95 time=0
EXTRACT: note_on channel=9 note=0 velocity=95 time=0
EXTRACT: note_on channel=9 note=40 velocity=95 time=0
EXTRACT: note_on channel=9 note=46 velocity=95 time=0
EXTRACT: note_off channel=9 note=0 velocity=95 time=0.14150925
EXTRACT: note_off channel=9 note=40 velocity=95 time=0
EXTRACT: note_off channel=9 note=46 velocity=95 time=0
EXTRACT: note_off channel=0 note=64 velocity=95 time=0.14150925
EXTRACT: note_on channel=0 note=59 velocity=95 time=0
EXTRACT: note_on channel=9 note=40 velocity=95 time=0
EXTRACT: note_on channel=9 note=44 velocity=95 time=0
EXTRACT: note_off channel=9 note=40 velocity=95 time=0.14150925
EXTRACT: note_off channel=9 note=44 velocity=95 time=0
EXTRACT: note_on channel=9 note=0 velocity=95 time=0
EXTRACT: note_on channel=9 note=44 velocity=95 time=0
EXTRACT: note_off channel=0 note=59 velocity=95 time=0.14150925
EXTRACT: note_on channel=0 note=56 velocity=95 time=0
EXTRACT: note_off channel=4 note=64 velocity=95 time=0
EXTRACT: note_off channel=9 note=0 velocity=95 time=0
EXTRACT: note_off channel=9 note=44 velocity=95 time=0
EXTRACT: note_on channel=9 note=0 velocity=95 time=0
EXTRACT: note_on channel=9 note=43 velocity=95 time=0
EXTRACT: note_on channel=9 note=45 velocity=95 time=0
EXTRACT: note_on channel=9 note=46 velocity=95 time=0
EXTRACT: note_off channel=9 note=0 velocity=95 time=0.14150925
EXTRACT: note_off channel=9 note=43 velocity=95 time=0
EXTRACT: note_off channel=9 note=45 velocity=95 time=0
EXTRACT: note_off channel=9 note=46 velocity=95 time=0
EXTRACT: note_on channel=9 note=0 velocity=95 time=0
EXTRACT: note_on channel=9 note=43 velocity=95 time=0
EXTRACT: note_off channel=0 note=56 velocity=95 time=0.14150925
EXTRACT: note_on channel=0 note=57 velocity=95 time=0
EXTRACT: note_off channel=14 note=40 velocity=111 time=0
EXTRACT: note_on channel=14 note=33 velocity=111 time=0
EXTRACT: note_off channel=9 note=0 velocity=95 time=0
EXTRACT: note_off channel=9 note=43 velocity=95 time=0
EXTRACT: note_on channel=9 note=0 velocity=95 time=0
EXTRACT: note_on channel=9 note=35 velocity=95 time=0
EXTRACT: note_on channel=9 note=44 velocity=95 time=0
EXTRACT: note_on channel=9 note=49 velocity=95 time=0
EXTRACT: note_on channel=9 note=57 velocity=95 time=0
EXTRACT: note_off channel=9 note=0 velocity=95 time=0.14150925
EXTRACT: note_off channel=9 note=35 velocity=95 time=0
EXTRACT: note_off channel=9 note=44 velocity=95 time=0
EXTRACT: note_off channel=9 note=49 velocity=95 time=0
EXTRACT: note_off channel=9 note=57 velocity=95 time=0
EXTRACT: note_off channel=0 note=57 velocity=95 time=0.14150925
EXTRACT: note_on channel=0 note=64 velocity=95 time=0
EXTRACT: note_on channel=4 note=69 velocity=95 time=0
EXTRACT: note_off channel=14 note=33 velocity=111 time=0
EXTRACT: note_on channel=14 note=33 velocity=111 time=0
EXTRACT: note_on channel=9 note=44 velocity=95 time=0
EXTRACT: note_off channel=4 note=69 velocity=95 time=0.14150925
EXTRACT: note_on channel=4 note=69 velocity=95 time=0
EXTRACT: note_off channel=14 note=33 velocity=111 time=0
EXTRACT: note_on channel=14 note=33 velocity=111 time=0
EXTRACT: note_off channel=9 note=44 velocity=95 time=0
EXTRACT: note_on channel=9 note=0 velocity=95 time=0
EXTRACT: note_on channel=9 note=44 velocity=95 time=0
EXTRACT: note_off channel=0 note=64 velocity=95 time=0.14150925
EXTRACT: note_on channel=0 note=61 velocity=95 time=0
EXTRACT: note_off channel=4 note=69 velocity=95 time=0
EXTRACT: note_on channel=4 note=69 velocity=95 time=0
EXTRACT: note_off channel=14 note=33 velocity=111 time=0
EXTRACT: note_on channel=14 note=33 velocity=111 time=0
EXTRACT: note_off channel=9 note=0 velocity=95 time=0
EXTRACT: note_off channel=9 note=44 velocity=95 time=0
EXTRACT: note_on channel=9 note=0 velocity=95 time=0
EXTRACT: note_on channel=9 note=40 velocity=95 time=0
EXTRACT: note_on channel=9 note=44 velocity=95 time=0
EXTRACT: note_off channel=4 note=69 velocity=95 time=0.14150925
EXTRACT: note_off channel=9 note=0 velocity=95 time=0
EXTRACT: note_off channel=9 note=40 velocity=95 time=0
EXTRACT: note_off channel=9 note=44 velocity=95 time=0
EXTRACT: note_off channel=0 note=61 velocity=95 time=0.14150925
EXTRACT: note_on channel=1 note=57 velocity=95 time=0
EXTRACT: note_on channel=4 note=69 velocity=95 time=0
EXTRACT: note_on channel=9 note=35 velocity=95 time=0
EXTRACT: note_on channel=9 note=44 velocity=95 time=0
EXTRACT: pitchwheel channel=1 pitch=-256 time=0.070754625
EXTRACT: pitchwheel channel=1 pitch=-640 time=0.070754625
EXTRACT: pitchwheel channel=1 pitch=0 time=0
EXTRACT: note_off channel=1 note=57 velocity=95 time=0
EXTRACT: note_on channel=0 note=56 velocity=95 time=0
EXTRACT: note_off channel=4 note=69 velocity=95 time=0
EXTRACT: note_on channel=4 note=69 velocity=95 time=0
EXTRACT: note_off channel=14 note=33 velocity=111 time=0
EXTRACT: note_on channel=14 note=40 velocity=111 time=0
EXTRACT: note_off channel=9 note=35 velocity=95 time=0
EXTRACT: note_off channel=9 note=44 velocity=95 time=0
EXTRACT: note_on channel=9 note=0 velocity=95 time=0
EXTRACT: note_on channel=9 note=35 velocity=95 time=0
EXTRACT: note_on channel=9 note=44 velocity=95 time=0
EXTRACT: note_off channel=4 note=69 velocity=95 time=0.14150925
EXTRACT: note_on channel=4 note=68 velocity=95 time=0
EXTRACT: note_off channel=14 note=40 velocity=111 time=0
EXTRACT: note_off channel=9 note=0 velocity=95 time=0
EXTRACT: note_off channel=9 note=35 velocity=95 time=0
EXTRACT: note_off channel=9 note=44 velocity=95 time=0
EXTRACT: note_on channel=9 note=0 velocity=95 time=0
EXTRACT: note_on channel=9 note=44 velocity=95 time=0
EXTRACT: note_on channel=14 note=40 velocity=111 time=0.14150925
EXTRACT: note_off channel=9 note=0 velocity=95 time=0
EXTRACT: note_off channel=9 note=44 velocity=95 time=0
EXTRACT: note_on channel=9 note=35 velocity=95 time=0
EXTRACT: note_off channel=0 note=56 velocity=95 time=0.14150925
EXTRACT: note_on channel=0 note=64 velocity=95 time=0
EXTRACT: note_off channel=4 note=68 velocity=95 time=0
EXTRACT: note_on channel=4 note=66 velocity=95 time=0
EXTRACT: note_off channel=14 note=40 velocity=111 time=0
EXTRACT: note_on channel=14 note=40 velocity=111 time=0
EXTRACT: note_off channel=9 note=35 velocity=95 time=0
EXTRACT: note_on channel=9 note=0 velocity=95 time=0
EXTRACT: note_on channel=9 note=44 velocity=95 time=0
EXTRACT: note_off channel=4 note=66 velocity=95 time=0.14150925
EXTRACT: note_on channel=4 note=64 velocity=95 time=0
EXTRACT: note_off channel=9 note=0 velocity=95 time=0
EXTRACT: note_off channel=9 note=44 velocity=95 time=0
EXTRACT: note_on channel=9 note=0 velocity=95 time=0
EXTRACT: note_on channel=9 note=44 velocity=95 time=0
EXTRACT: note_off channel=0 note=64 velocity=95 time=0.14150925
EXTRACT: note_on channel=0 note=59 velocity=95 time=0
EXTRACT: note_off channel=9 note=0 velocity=95 time=0
EXTRACT: note_off channel=9 note=44 velocity=95 time=0
EXTRACT: note_on channel=9 note=0 velocity=95 time=0
EXTRACT: note_on channel=9 note=40 velocity=95 time=0
EXTRACT: note_on channel=9 note=44 velocity=95 time=0
EXTRACT: note_off channel=4 note=64 velocity=95 time=0.14150925
EXTRACT: note_on channel=4 note=66 velocity=95 time=0
EXTRACT: note_off channel=9 note=0 velocity=95 time=0
EXTRACT: note_off channel=9 note=40 velocity=95 time=0
EXTRACT: note_off channel=9 note=44 velocity=95 time=0
EXTRACT: note_off channel=0 note=59 velocity=95 time=0.14150925
EXTRACT: note_on channel=1 note=56 velocity=95 time=0
EXTRACT: note_on channel=9 note=35 velocity=95 time=0
EXTRACT: note_on channel=9 note=44 velocity=95 time=0
EXTRACT: pitchwheel channel=1 pitch=256 time=0.070754625
EXTRACT: pitchwheel channel=1 pitch=640 time=0.070754625
EXTRACT: pitchwheel channel=1 pitch=0 time=0
EXTRACT: note_off channel=1 note=56 velocity=95 time=0
EXTRACT: note_on channel=0 note=57 velocity=95 time=0
EXTRACT: note_off channel=4 note=66 velocity=95 time=0
EXTRACT: note_on channel=4 note=66 velocity=95 time=0
EXTRACT: note_off channel=9 note=35 velocity=95 time=0
EXTRACT: note_off channel=9 note=44 velocity=95 time=0
EXTRACT: note_on channel=9 note=0 velocity=95 time=0
EXTRACT: note_on channel=9 note=44 velocity=95 time=0
EXTRACT: note_off channel=14 note=40 velocity=111 time=0.14150925
EXTRACT: note_on channel=14 note=38 velocity=111 time=0
EXTRACT: note_off channel=9 note=0 velocity=95 time=0
EXTRACT: note_off channel=9 note=44 velocity=95 time=0
EXTRACT: note_on channel=9 note=0 velocity=95 time=0
EXTRACT: note_on channel=9 note=35 velocity=95 time=0
EXTRACT: note_on channel=9 note=44 velocity=95 time=0
EXTRACT: note_off channel=9 note=0 velocity=95 time=0.14150925
EXTRACT: note_off channel=9 note=35 velocity=95 time=0
EXTRACT: note_off channel=9 note=44 velocity=95 time=0
EXTRACT: note_off channel=0 note=57 velocity=95 time=0.14150925
EXTRACT: note_on channel=0 note=66 velocity=95 time=0
EXTRACT: note_off channel=4 note=66 velocity=95 time=0
EXTRACT: note_off channel=14 note=38 velocity=111 time=0
EXTRACT: note_on channel=14 note=38 velocity=111 time=0
EXTRACT: note_on channel=9 note=44 velocity=95 time=0
EXTRACT: note_off channel=14 note=38 velocity=111 time=0.14150925
EXTRACT: note_on channel=14 note=38 velocity=111 time=0
EXTRACT: note_off channel=9 note=44 velocity=95 time=0
EXTRACT: note_on channel=9 note=0 velocity=95 time=0
EXTRACT: note_on channel=9 note=44 velocity=95 time=0
EXTRACT: note_off channel=0 note=66 velocity=95 time=0.14150925
EXTRACT: note_on channel=0 note=62 velocity=95 time=0
EXTRACT: note_on channel=4 note=62 velocity=95 time=0
EXTRACT: note_off channel=14 note=38 velocity=111 time=0
EXTRACT: note_on channel=14 note=38 velocity=111 time=0
EXTRACT: note_off channel=9 note=0 velocity=95 time=0
EXTRACT: note_off channel=9 note=44 velocity=95 time=0
EXTRACT: note_on channel=9 note=0 velocity=95 time=0
EXTRACT: note_on channel=9 note=40 velocity=95 time=0
EXTRACT: note_on channel=9 note=44 velocity=95 time=0
EXTRACT: note_off channel=4 note=62 velocity=95 time=0.14150925
EXTRACT: note_off channel=9 note=0 velocity=95 time=0
EXTRACT: note_off channel=9 note=40 velocity=95 time=0
EXTRACT: note_off channel=9 note=44 velocity=95 time=0
EXTRACT: note_off channel=0 note=62 velocity=95 time=0.14150925
EXTRACT: note_on channel=1 note=57 velocity=95 time=0
EXTRACT: note_on channel=4 note=62 velocity=95 time=0
EXTRACT: note_on channel=9 note=35 velocity=95 time=0
EXTRACT: note_on channel=9 note=44 velocity=95 time=0
EXTRACT: pitchwheel channel=1 pitch=-256 time=0.070754625
EXTRACT: pitchwheel channel=1 pitch=-640 time=0.070754625
EXTRACT: pitchwheel channel=1 pitch=0 time=0
EXTRACT: note_off channel=1 note=57 velocity=95 time=0
EXTRACT: note_on channel=0 note=56 velocity=95 time=0
EXTRACT: note_off channel=4 note=62 velocity=95 time=0
EXTRACT: note_on channel=4 note=61 velocity=95 time=0
EXTRACT: note_off channel=14 note=38 velocity=111 time=0
EXTRACT: note_on channel=14 note=40 velocity=111 time=0
EXTRACT: note_off channel=9 note=35 velocity=95 time=0
EXTRACT: note_off channel=9 note=44 velocity=95 time=0
EXTRACT: note_on channel=9 note=0 velocity=95 time=0
EXTRACT: note_on channel=9 note=35 velocity=95 time=0
EXTRACT: note_on channel=9 note=44 velocity=95 time=0
EXTRACT: note_off channel=14 note=40 velocity=111 time=0.14150925
EXTRACT: note_off channel=9 note=0 velocity=95 time=0
EXTRACT: note_off channel=9 note=35 velocity=95 time=0
EXTRACT: note_off channel=9 note=44 velocity=95 time=0
EXTRACT: note_on channel=9 note=0 velocity=95 time=0
EXTRACT: note_on channel=9 note=44 velocity=95 time=0
EXTRACT: note_off channel=4 note=61 velocity=95 time=0.14150925
EXTRACT: note_on channel=4 note=59 velocity=95 time=0
EXTRACT: note_on channel=14 note=40 velocity=111 time=0
EXTRACT: note_off channel=9 note=0 velocity=95 time=0
EXTRACT: note_off channel=9 note=44 velocity=95 time=0
EXTRACT: note_on channel=9 note=0 velocity=95 time=0
EXTRACT: note_on channel=9 note=44 velocity=95 time=0
EXTRACT: note_off channel=0 note=56 velocity=95 time=0.14150925
EXTRACT: note_on channel=0 note=64 velocity=95 time=0
EXTRACT: note_off channel=14 note=40 velocity=111 time=0
EXTRACT: note_on channel=14 note=40 velocity=111 time=0
EXTRACT: note_off channel=9 note=0 velocity=95 time=0
EXTRACT: note_off channel=9 note=44 velocity=95 time=0
EXTRACT: note_on channel=9 note=0 velocity=95 time=0
EXTRACT: note_on channel=9 note=35 velocity=95 time=0
EXTRACT: note_on channel=9 note=46 velocity=95 time=0
EXTRACT: note_off channel=4 note=59 velocity=95 time=0.14150925
EXTRACT: note_on channel=4 note=57 velocity=95 time=0
EXTRACT: note_off channel=9 note=0 velocity=95 time=0
EXTRACT: note_off channel=9 note=35 velocity=95 time=0
EXTRACT: note_off channel=9 note=46 velocity=95 time=0
EXTRACT: note_off channel=0 note=64 velocity=95 time=0.14150925
EXTRACT: note_on channel=0 note=59 velocity=95 time=0
EXTRACT: note_on channel=9 note=40 velocity=95 time=0
EXTRACT: note_on channel=9 note=44 velocity=95 time=0
EXTRACT: note_off channel=4 note=57 velocity=95 time=0.14150925
EXTRACT: note_on channel=4 note=59 velocity=95 time=0
EXTRACT: note_off channel=9 note=40 velocity=95 time=0
EXTRACT: note_off channel=9 note=44 velocity=95 time=0
EXTRACT: note_on channel=9 note=0 velocity=95 time=0
EXTRACT: note_on channel=9 note=44 velocity=95 time=0
EXTRACT: note_off channel=0 note=59 velocity=95 time=0.14150925
EXTRACT: note_on channel=1 note=56 velocity=95 time=0
EXTRACT: note_off channel=9 note=0 velocity=95 time=0
EXTRACT: note_off channel=9 note=44 velocity=95 time=0
EXTRACT: note_on channel=9 note=35 velocity=95 time=0
EXTRACT: note_on channel=9 note=46 velocity=95 time=0
EXTRACT: pitchwheel channel=1 pitch=256 time=0.070754625
EXTRACT: pitchwheel channel=1 pitch=640 time=0.070754625
EXTRACT: pitchwheel channel=1 pitch=0 time=0
EXTRACT: note_off channel=1 note=56 velocity=95 time=0
EXTRACT: note_on channel=0 note=57 velocity=95 time=0
EXTRACT: note_off channel=4 note=59 velocity=95 time=0
EXTRACT: note_on channel=4 note=57 velocity=95 time=0
EXTRACT: note_off channel=9 note=35 velocity=95 time=0
EXTRACT: note_off channel=9 note=46 velocity=95 time=0
EXTRACT: note_on channel=9 note=0 velocity=95 time=0
EXTRACT: note_on channel=9 note=35 velocity=95 time=0
EXTRACT: note_on channel=9 note=44 velocity=95 time=0
EXTRACT: note_off channel=14 note=40 velocity=111 time=0.14150925
EXTRACT: note_on channel=14 note=33 velocity=111 time=0
EXTRACT: note_off channel=9 note=0 velocity=95 time=0
EXTRACT: note_off channel=9 note=35 velocity=95 time=0
EXTRACT: note_off channel=9 note=44 velocity=95 time=0
EXTRACT: note_on channel=9 note=0 velocity=95 time=0
EXTRACT: note_on channel=9 note=44 velocity=95 time=0
EXTRACT: note_off channel=0 note=57 velocity=95 time=0.2830185
EXTRACT: note_on channel=0 note=64 velocity=95 time=0
EXTRACT: note_off channel=4 note=57 velocity=95 time=0
EXTRACT: note_off channel=14 note=33 velocity=111 time=0
EXTRACT: note_on channel=14 note=33 velocity=111 time=0
EXTRACT: note_off channel=9 note=0 velocity=95 time=0
EXTRACT: note_off channel=9 note=44 velocity=95 time=0
EXTRACT: note_on channel=9 note=0 velocity=95 time=0
EXTRACT: note_on channel=9 note=35 velocity=95 time=0
EXTRACT: note_on channel=9 note=44 velocity=95 time=0
EXTRACT: note_off channel=14 note=33 velocity=111 time=0.14150925
EXTRACT: note_on channel=14 note=33 velocity=111 time=0
EXTRACT: note_off channel=9 note=0 velocity=95 time=0
EXTRACT: note_off channel=9 note=35 velocity=95 time=0
EXTRACT: note_off channel=9 note=44 velocity=95 time=0
EXTRACT: note_off channel=0 note=64 velocity=95 time=0.14150925
EXTRACT: note_on channel=0 note=61 velocity=95 time=0
EXTRACT: note_on channel=4 note=69 velocity=95 time=0
EXTRACT: note_off channel=14 note=33 velocity=111 time=0
EXTRACT: note_on channel=14 note=33 velocity=111 time=0
EXTRACT: note_on channel=9 note=40 velocity=95 time=0
EXTRACT: note_on channel=9 note=44 velocity=95 time=0
EXTRACT: note_off channel=4 note=69 velocity=95 time=0.14150925
EXTRACT: note_off channel=9 note=40 velocity=95 time=0
EXTRACT: note_off channel=9 note=44 velocity=95 time=0
EXTRACT: note_off channel=0 note=61 velocity=95 time=0.14150925
EXTRACT: note_on channel=1 note=57 velocity=95 time=0
EXTRACT: note_on channel=4 note=69 velocity=95 time=0
EXTRACT: note_on channel=9 note=35 velocity=95 time=0
EXTRACT: note_on channel=9 note=44 velocity=95 time=0
EXTRACT: pitchwheel channel=1 pitch=-256 time=0.070754625
EXTRACT: pitchwheel channel=1 pitch=-640 time=0.070754625
EXTRACT: pitchwheel channel=1 pitch=0 time=0
EXTRACT: note_off channel=1 note=57 velocity=95 time=0
EXTRACT: note_on channel=0 note=56 velocity=95 time=0
EXTRACT: note_off channel=4 note=69 velocity=95 time=0
EXTRACT: note_on channel=4 note=68 velocity=95 time=0
EXTRACT: note_off channel=14 note=33 velocity=111 time=0
EXTRACT: note_on channel=14 note=40 velocity=111 time=0
EXTRACT: note_off channel=9 note=35 velocity=95 time=0
EXTRACT: note_off channel=9 note=44 velocity=95 time=0
EXTRACT: note_on channel=9 note=0 velocity=95 time=0
EXTRACT: note_on channel=9 note=35 velocity=95 time=0
EXTRACT: note_on channel=9 note=44 velocity=95 time=0
EXTRACT: note_off channel=14 note=40 velocity=111 time=0.14150925
EXTRACT: note_off channel=9 note=0 velocity=95 time=0
EXTRACT: note_off channel=9 note=35 velocity=95 time=0
EXTRACT: note_off channel=9 note=44 velocity=95 time=0
EXTRACT: note_on channel=9 note=0 velocity=95 time=0
EXTRACT: note_on channel=9 note=44 velocity=95 time=0
EXTRACT: note_on channel=14 note=40 velocity=111 time=0.14150925
EXTRACT: note_off channel=9 note=0 velocity=95 time=0
EXTRACT: note_off channel=9 note=44 velocity=95 time=0
EXTRACT: note_off channel=0 note=56 velocity=95 time=0.14150925
EXTRACT: note_on channel=0 note=64 velocity=95 time=0
EXTRACT: note_off channel=4 note=68 velocity=95 time=0
EXTRACT: note_on channel=4 note=66 velocity=95 time=0
EXTRACT: note_off channel=14 note=40 velocity=111 time=0
EXTRACT: note_on channel=14 note=40 velocity=111 time=0
EXTRACT: note_on channel=9 note=35 velocity=95 time=0
EXTRACT: note_on channel=9 note=36 velocity=95 time=0
EXTRACT: note_on channel=9 note=44 velocity=95 time=0
EXTRACT: note_off channel=4 note=66 velocity=95 time=0.14150925
EXTRACT: note_on channel=4 note=64 velocity=95 time=0
EXTRACT: note_off channel=9 note=35 velocity=95 time=0
EXTRACT: note_off channel=9 note=36 velocity=95 time=0
EXTRACT: note_off channel=9 note=44 velocity=95 time=0
EXTRACT: note_off channel=0 note=64 velocity=95 time=0.14150925
EXTRACT: note_on channel=0 note=59 velocity=95 time=0
EXTRACT: note_on channel=9 note=40 velocity=95 time=0
EXTRACT: note_on channel=9 note=44 velocity=95 time=0
EXTRACT: note_off channel=4 note=64 velocity=95 time=0.14150925
EXTRACT: note_on channel=4 note=66 velocity=95 time=0
EXTRACT: note_off channel=9 note=40 velocity=95 time=0
EXTRACT: note_off channel=9 note=44 velocity=95 time=0
EXTRACT: note_off channel=0 note=59 velocity=95 time=0.14150925
EXTRACT: note_on channel=1 note=56 velocity=95 time=0
EXTRACT: note_on channel=9 note=35 velocity=95 time=0
EXTRACT: note_on channel=9 note=44 velocity=95 time=0
EXTRACT: pitchwheel channel=1 pitch=256 time=0.070754625
EXTRACT: pitchwheel channel=1 pitch=640 time=0.070754625
EXTRACT: pitchwheel channel=1 pitch=0 time=0
EXTRACT: note_off channel=1 note=56 velocity=95 time=0
EXTRACT: note_on channel=0 note=57 velocity=95 time=0
EXTRACT: note_off channel=4 note=66 velocity=95 time=0
EXTRACT: note_on channel=4 note=66 velocity=95 time=0
EXTRACT: note_off channel=9 note=35 velocity=95 time=0
EXTRACT: note_off channel=9 note=44 velocity=95 time=0
EXTRACT: note_on channel=9 note=0 velocity=95 time=0
EXTRACT: note_on channel=9 note=35 velocity=95 time=0
EXTRACT: note_on channel=9 note=44 velocity=95 time=0
EXTRACT: note_off channel=14 note=40 velocity=111 time=0.14150925
EXTRACT: note_on channel=14 note=38 velocity=111 time=0
EXTRACT: note_off channel=9 note=0 velocity=95 time=0
EXTRACT: note_off channel=9 note=35 velocity=95 time=0
EXTRACT: note_off channel=9 note=44 velocity=95 time=0
EXTRACT: note_on channel=9 note=0 velocity=95 time=0
EXTRACT: note_on channel=9 note=44 velocity=95 time=0
EXTRACT: note_off channel=9 note=0 velocity=95 time=0.14150925
EXTRACT: note_off channel=9 note=44 velocity=95 time=0
EXTRACT: note_off channel=0 note=57 velocity=95 time=0.14150925
EXTRACT: note_on channel=0 note=66 velocity=95 time=0
EXTRACT: note_off channel=14 note=38 velocity=111 time=0
EXTRACT: note_on channel=14 note=38 velocity=111 time=0
EXTRACT: note_on channel=9 note=35 velocity=95 time=0
EXTRACT: note_on channel=9 note=44 velocity=95 time=0
EXTRACT: note_off channel=14 note=38 velocity=111 time=0.14150925
EXTRACT: note_on channel=14 note=38 velocity=111 time=0
EXTRACT: note_off channel=9 note=35 velocity=95 time=0
EXTRACT: note_off channel=9 note=44 velocity=95 time=0
EXTRACT: note_off channel=0 note=66 velocity=95 time=0.14150925
EXTRACT: note_on channel=0 note=62 velocity=95 time=0
EXTRACT: note_off channel=4 note=66 velocity=95 time=0
EXTRACT: note_on channel=4 note=62 velocity=95 time=0
EXTRACT: note_off channel=14 note=38 velocity=111 time=0
EXTRACT: note_on channel=14 note=38 velocity=111 time=0
EXTRACT: note_on channel=9 note=40 velocity=95 time=0
EXTRACT: note_on channel=9 note=44 velocity=95 time=0
EXTRACT: note_off channel=4 note=62 velocity=95 time=0.14150925
EXTRACT: note_off channel=9 note=40 velocity=95 time=0
EXTRACT: note_off channel=9 note=44 velocity=95 time=0
EXTRACT: note_off channel=0 note=62 velocity=95 time=0.14150925
EXTRACT: note_on channel=1 note=57 velocity=95 time=0
EXTRACT: note_on channel=4 note=62 velocity=95 time=0
EXTRACT: note_on channel=9 note=35 velocity=95 time=0
EXTRACT: note_on channel=9 note=44 velocity=95 time=0
EXTRACT: pitchwheel channel=1 pitch=-256 time=0.070754625
EXTRACT: pitchwheel channel=1 pitch=-640 time=0.070754625
EXTRACT: pitchwheel channel=1 pitch=0 time=0
EXTRACT: note_off channel=1 note=57 velocity=95 time=0
EXTRACT: note_on channel=0 note=56 velocity=95 time=0
EXTRACT: note_off channel=14 note=38 velocity=111 time=0
EXTRACT: note_on channel=14 note=40 velocity=111 time=0
EXTRACT: note_off channel=9 note=35 velocity=95 time=0
EXTRACT: note_off channel=9 note=44 velocity=95 time=0
EXTRACT: note_on channel=9 note=0 velocity=95 time=0
EXTRACT: note_on channel=9 note=35 velocity=95 time=0
EXTRACT: note_on channel=9 note=44 velocity=95 time=0
EXTRACT: note_off channel=4 note=62 velocity=95 time=0.14150925
EXTRACT: note_on channel=4 note=64 velocity=95 time=0
EXTRACT: note_off channel=14 note=40 velocity=111 time=0
EXTRACT: note_off channel=9 note=0 velocity=95 time=0
EXTRACT: note_off channel=9 note=35 velocity=95 time=0
EXTRACT: note_off channel=9 note=44 velocity=95 time=0
EXTRACT: note_on channel=9 note=0 velocity=95 time=0
EXTRACT: note_on channel=9 note=44 velocity=95 time=0
EXTRACT: note_off channel=4 note=64 velocity=95 time=0.14150925
EXTRACT: note_on channel=14 note=40 velocity=111 time=0
EXTRACT: note_off channel=9 note=0 velocity=95 time=0
EXTRACT: note_off channel=9 note=44 velocity=95 time=0
EXTRACT: note_on channel=9 note=0 velocity=95 time=0
EXTRACT: note_on channel=9 note=35 velocity=95 time=0
EXTRACT: note_on channel=9 note=44 velocity=95 time=0
EXTRACT: note_off channel=0 note=56 velocity=95 time=0.14150925
EXTRACT: note_on channel=0 note=64 velocity=95 time=0
EXTRACT: note_on channel=4 note=64 velocity=95 time=0
EXTRACT: note_off channel=14 note=40 velocity=111 time=0
EXTRACT: note_on channel=14 note=40 velocity=111 time=0
EXTRACT: note_off channel=9 note=0 velocity=95 time=0
EXTRACT: note_off channel=9 note=35 velocity=95 time=0
EXTRACT: note_off channel=9 note=44 velocity=95 time=0
EXTRACT: note_on channel=9 note=0 velocity=95 time=0
EXTRACT: note_on channel=9 note=44 velocity=95 time=0
EXTRACT: note_off channel=4 note=64 velocity=95 time=0.14150925
EXTRACT: note_off channel=9 note=0 velocity=95 time=0
EXTRACT: note_off channel=9 note=44 velocity=95 time=0
EXTRACT: note_off channel=0 note=64 velocity=95 time=0.14150925
EXTRACT: note_on channel=0 note=59 velocity=95 time=0
EXTRACT: note_on channel=4 note=66 velocity=95 time=0
EXTRACT: note_on channel=9 note=40 velocity=95 time=0
EXTRACT: note_on channel=9 note=44 velocity=95 time=0
EXTRACT: note_off channel=9 note=40 velocity=95 time=0.14150925
EXTRACT: note_off channel=9 note=44 velocity=95 time=0
EXTRACT: note_off channel=0 note=59 velocity=95 time=0.14150925
EXTRACT: note_on channel=0 note=56 velocity=95 time=0
EXTRACT: note_off channel=4 note=66 velocity=95 time=0
EXTRACT: note_on channel=4 note=61 velocity=95 time=0
EXTRACT: note_on channel=9 note=35 velocity=95 time=0
EXTRACT: note_on channel=9 note=44 velocity=95 time=0
EXTRACT: note_off channel=4 note=61 velocity=95 time=0.14150925
EXTRACT: note_on channel=4 note=64 velocity=95 time=0
EXTRACT: note_off channel=9 note=35 velocity=95 time=0
EXTRACT: note_off channel=9 note=44 velocity=95 time=0
EXTRACT: note_on channel=9 note=0 velocity=95 time=0
EXTRACT: note_on channel=9 note=46 velocity=95 time=0
EXTRACT: note_off channel=0 note=56 velocity=95 time=0.14150925
EXTRACT: note_on channel=0 note=57 velocity=111 time=0
EXTRACT: note_on channel=0 note=52 velocity=111 time=0
EXTRACT: note_on channel=0 note=45 velocity=111 time=0
EXTRACT: note_off channel=14 note=40 velocity=111 time=0
EXTRACT: note_on channel=14 note=33 velocity=111 time=0
EXTRACT: note_off channel=9 note=0 velocity=95 time=0
EXTRACT: note_off channel=9 note=46 velocity=95 time=0
EXTRACT: note_on channel=9 note=35 velocity=95 time=0
EXTRACT: note_on channel=9 note=44 velocity=95 time=0
EXTRACT: note_off channel=9 note=35 velocity=95 time=0.14150925
EXTRACT: note_off channel=9 note=44 velocity=95 time=0
EXTRACT: note_off channel=4 note=64 velocity=95 time=0.14150925
EXTRACT: note_off channel=14 note=33 velocity=111 time=0
EXTRACT: note_on channel=14 note=33 velocity=111 time=0
EXTRACT: note_on channel=9 note=35 velocity=95 time=0
EXTRACT: note_on channel=9 note=44 velocity=95 time=0
EXTRACT: note_off channel=14 note=33 velocity=111 time=0.14150925
EXTRACT: note_on channel=14 note=33 velocity=111 time=0
EXTRACT: note_off channel=9 note=35 velocity=95 time=0
EXTRACT: note_off channel=9 note=44 velocity=95 time=0
EXTRACT: note_off channel=0 note=57 velocity=111 time=0.14150925
EXTRACT: note_off channel=0 note=52 velocity=111 time=0
EXTRACT: note_off channel=0 note=45 velocity=111 time=0
EXTRACT: note_on channel=0 note=61 velocity=95 time=0
EXTRACT: note_on channel=0 note=57 velocity=95 time=0
EXTRACT: note_on channel=0 note=52 velocity=95 time=0
EXTRACT: note_off channel=14 note=33 velocity=111 time=0
EXTRACT: note_on channel=14 note=33 velocity=111 time=0
EXTRACT: note_on channel=9 note=40 velocity=95 time=0
EXTRACT: note_on channel=9 note=44 velocity=95 time=0
EXTRACT: note_off channel=9 note=40 velocity=95 time=0.14150925
EXTRACT: note_off channel=9 note=44 velocity=95 time=0
EXTRACT: note_off channel=0 note=61 velocity=95 time=0.14150925
EXTRACT: note_off channel=0 note=57 velocity=95 time=0
EXTRACT: note_off channel=0 note=52 velocity=95 time=0
EXTRACT: note_on channel=9 note=35 velocity=95 time=0
EXTRACT: note_on channel=9 note=44 velocity=95 time=0
EXTRACT: note_on channel=0 note=61 velocity=95 time=0.14150925
EXTRACT: note_on channel=0 note=57 velocity=95 time=0
EXTRACT: note_off channel=14 note=33 velocity=111 time=0
EXTRACT: note_on channel=14 note=40 velocity=111 time=0
EXTRACT: note_off channel=9 note=35 velocity=95 time=0
EXTRACT: note_off channel=9 note=44 velocity=95 time=0
EXTRACT: note_on channel=9 note=0 velocity=95 time=0
EXTRACT: note_on channel=9 note=35 velocity=95 time=0
EXTRACT: note_on channel=9 note=44 velocity=95 time=0
EXTRACT: note_off channel=0 note=61 velocity=95 time=0.14150925
EXTRACT: note_off channel=0 note=57 velocity=95 time=0
EXTRACT: note_off channel=14 note=40 velocity=111 time=0
EXTRACT: note_off channel=9 note=0 velocity=95 time=0
EXTRACT: note_off channel=9 note=35 velocity=95 time=0
EXTRACT: note_off channel=9 note=44 velocity=95 time=0
EXTRACT: note_on channel=9 note=0 velocity=95 time=0
EXTRACT: note_on channel=9 note=44 velocity=95 time=0
EXTRACT: note_on channel=0 note=59 velocity=95 time=0.14150925
EXTRACT: note_on channel=0 note=56 velocity=95 time=0
EXTRACT: note_on channel=0 note=52 velocity=95 time=0
EXTRACT: note_on channel=14 note=40 velocity=111 time=0
EXTRACT: note_off channel=0 note=59 velocity=95 time=0.14150925
EXTRACT: note_off channel=0 note=56 velocity=95 time=0
EXTRACT: note_off channel=0 note=52 velocity=95 time=0
EXTRACT: note_on channel=0 note=59 velocity=111 time=0
EXTRACT: note_on channel=0 note=56 velocity=111 time=0
EXTRACT: note_on channel=0 note=52 velocity=111 time=0
EXTRACT: note_on channel=0 note=47 velocity=111 time=0
EXTRACT: note_off channel=14 note=40 velocity=111 time=0
EXTRACT: note_on channel=14 note=40 velocity=111 time=0
EXTRACT: note_off channel=9 note=0 velocity=95 time=0
EXTRACT: note_off channel=9 note=44 velocity=95 time=0
EXTRACT: note_on channel=9 note=0 velocity=95 time=0
EXTRACT: note_on channel=9 note=35 velocity=95 time=0
EXTRACT: note_on channel=9 note=44 velocity=95 time=0
EXTRACT: note_off channel=9 note=0 velocity=95 time=0.14150925
EXTRACT: note_off channel=9 note=35 velocity=95 time=0
EXTRACT: note_off channel=9 note=44 velocity=95 time=0
EXTRACT: note_off channel=0 note=59 velocity=111 time=0.14150925
EXTRACT: note_off channel=0 note=56 velocity=111 time=0
EXTRACT: note_off channel=0 note=52 velocity=111 time=0
EXTRACT: note_off channel=0 note=47 velocity=111 time=0
EXTRACT: note_on channel=0 note=59 velocity=95 time=0
EXTRACT: note_on channel=0 note=56 velocity=95 time=0
EXTRACT: note_on channel=0 note=52 velocity=95 time=0
EXTRACT: note_on channel=0 note=47 velocity=111 time=0
EXTRACT: note_on channel=4 note=66 velocity=95 time=0
EXTRACT: note_on channel=9 note=40 velocity=95 time=0
EXTRACT: note_on channel=9 note=44 velocity=95 time=0
EXTRACT: note_off channel=9 note=40 velocity=95 time=0.14150925
EXTRACT: note_off channel=9 note=44 velocity=95 time=0
EXTRACT: note_off channel=0 note=59 velocity=95 time=0.14150925
EXTRACT: note_off channel=0 note=56 velocity=95 time=0
EXTRACT: note_off channel=0 note=52 velocity=95 time=0
EXTRACT: note_off channel=0 note=47 velocity=111 time=0
EXTRACT: note_on channel=0 note=59 velocity=111 time=0
EXTRACT: note_on channel=0 note=56 velocity=111 time=0
EXTRACT: note_on channel=0 note=52 velocity=111 time=0
EXTRACT: note_off channel=4 note=66 velocity=95 time=0
EXTRACT: note_on channel=4 note=64 velocity=95 time=0
EXTRACT: note_on channel=9 note=35 velocity=95 time=0
EXTRACT: note_on channel=9 note=44 velocity=95 time=0
EXTRACT: note_off channel=0 note=59 velocity=111 time=0.14150925
EXTRACT: note_off channel=0 note=56 velocity=111 time=0
EXTRACT: note_off channel=0 note=52 velocity=111 time=0
EXTRACT: note_on channel=0 note=59 velocity=111 time=0
EXTRACT: note_on channel=0 note=56 velocity=111 time=0
EXTRACT: note_on channel=0 note=52 velocity=111 time=0
EXTRACT: note_off channel=9 note=35 velocity=95 time=0
EXTRACT: note_off channel=9 note=44 velocity=95 time=0
EXTRACT: note_on channel=9 note=0 velocity=95 time=0
EXTRACT: note_on channel=9 note=35 velocity=95 time=0
EXTRACT: note_on channel=9 note=44 velocity=95 time=0
EXTRACT: note_off channel=0 note=59 velocity=111 time=0.14150925
EXTRACT: note_off channel=0 note=56 velocity=111 time=0
EXTRACT: note_off channel=0 note=52 velocity=111 time=0
EXTRACT: note_on channel=0 note=62 velocity=111 time=0
EXTRACT: note_on channel=0 note=57 velocity=111 time=0
EXTRACT: note_on channel=0 note=50 velocity=111 time=0
EXTRACT: note_off channel=14 note=40 velocity=111 time=0
EXTRACT: note_on channel=14 note=38 velocity=111 time=0
EXTRACT: note_off channel=9 note=0 velocity=95 time=0
EXTRACT: note_off channel=9 note=35 velocity=95 time=0
EXTRACT: note_off channel=9 note=44 velocity=95 time=0
EXTRACT: note_on channel=9 note=0 velocity=95 time=0
EXTRACT: note_on channel=9 note=44 velocity=95 time=0
EXTRACT: note_off channel=14 note=38 velocity=111 time=0.2830185
EXTRACT: note_on channel=14 note=38 velocity=111 time=0
EXTRACT: note_off channel=9 note=0 velocity=95 time=0
EXTRACT: note_off channel=9 note=44 velocity=95 time=0
EXTRACT: note_on channel=9 note=0 velocity=95 time=0
EXTRACT: note_on channel=9 note=35 velocity=95 time=0
EXTRACT: note_on channel=9 note=44 velocity=95 time=0
EXTRACT: note_off channel=4 note=64 velocity=95 time=0.14150925
EXTRACT: note_off channel=14 note=38 velocity=111 time=0
EXTRACT: note_on channel=14 note=38 velocity=111 time=0
EXTRACT: note_off channel=9 note=0 velocity=95 time=0
EXTRACT: note_off channel=9 note=35 velocity=95 time=0
EXTRACT: note_off channel=9 note=44 velocity=95 time=0
EXTRACT: note_off channel=0 note=62 velocity=111 time=0.14150925
EXTRACT: note_off channel=0 note=57 velocity=111 time=0
EXTRACT: note_off channel=0 note=50 velocity=111 time=0
EXTRACT: note_on channel=0 note=66 velocity=111 time=0
EXTRACT: note_on channel=0 note=62 velocity=95 time=0
EXTRACT: note_on channel=0 note=57 velocity=95 time=0
EXTRACT: note_off channel=14 note=38 velocity=111 time=0
EXTRACT: note_on channel=14 note=38 velocity=111 time=0
EXTRACT: note_on channel=9 note=40 velocity=95 time=0
EXTRACT: note_on channel=9 note=44 velocity=95 time=0
EXTRACT: note_off channel=9 note=40 velocity=95 time=0.14150925
EXTRACT: note_off channel=9 note=44 velocity=95 time=0
EXTRACT: note_off channel=0 note=66 velocity=111 time=0.14150925
EXTRACT: note_off channel=0 note=62 velocity=95 time=0
EXTRACT: note_off channel=0 note=57 velocity=95 time=0
EXTRACT: note_on channel=4 note=64 velocity=95 time=0
EXTRACT: note_on channel=9 note=35 velocity=95 time=0
EXTRACT: note_on channel=9 note=44 velocity=95 time=0
EXTRACT: note_on channel=0 note=66 velocity=111 time=0.14150925
EXTRACT: note_on channel=0 note=62 velocity=95 time=0
EXTRACT: note_on channel=0 note=57 velocity=95 time=0
EXTRACT: note_off channel=4 note=64 velocity=95 time=0
EXTRACT: note_on channel=4 note=64 velocity=95 time=0
EXTRACT: note_off channel=14 note=38 velocity=111 time=0
EXTRACT: note_on channel=14 note=40 velocity=111 time=0
EXTRACT: note_off channel=9 note=35 velocity=95 time=0
EXTRACT: note_off channel=9 note=44 velocity=95 time=0
EXTRACT: note_on channel=9 note=0 velocity=95 time=0
EXTRACT: note_on channel=9 note=35 velocity=95 time=0
EXTRACT: note_on channel=9 note=44 velocity=95 time=0
EXTRACT: note_off channel=0 note=66 velocity=111 time=0.14150925
EXTRACT: note_off channel=0 note=62 velocity=95 time=0
EXTRACT: note_off channel=0 note=57 velocity=95 time=0
EXTRACT: note_off channel=4 note=64 velocity=95 time=0
EXTRACT: note_on channel=4 note=73 velocity=95 time=0
EXTRACT: note_off channel=14 note=40 velocity=111 time=0
EXTRACT: note_off channel=9 note=0 velocity=95 time=0
EXTRACT: note_off channel=9 note=35 velocity=95 time=0
EXTRACT: note_off channel=9 note=44 velocity=95 time=0
EXTRACT: note_on channel=9 note=0 velocity=95 time=0
EXTRACT: note_on channel=9 note=44 velocity=95 time=0
EXTRACT: note_on channel=0 note=59 velocity=95 time=0.14150925
EXTRACT: note_on channel=0 note=56 velocity=95 time=0
EXTRACT: note_on channel=0 note=52 velocity=95 time=0
EXTRACT: note_on channel=14 note=40 velocity=111 time=0
EXTRACT: note_off channel=9 note=0 velocity=95 time=0
EXTRACT: note_off channel=9 note=44 velocity=95 time=0
EXTRACT: note_on channel=9 note=35 velocity=95 time=0
EXTRACT: note_off channel=0 note=59 velocity=95 time=0.14150925
EXTRACT: note_off channel=0 note=56 velocity=95 time=0
EXTRACT: note_off channel=0 note=52 velocity=95 time=0
EXTRACT: note_on channel=0 note=59 velocity=111 time=0
EXTRACT: note_on channel=0 note=56 velocity=111 time=0
EXTRACT: note_on channel=0 note=52 velocity=111 time=0
EXTRACT: note_on channel=0 note=47 velocity=111 time=0
EXTRACT: note_off channel=4 note=73 velocity=95 time=0
EXTRACT: note_on channel=4 note=71 velocity=95 time=0
EXTRACT: note_off channel=14 note=40 velocity=111 time=0
EXTRACT: note_on channel=14 note=40 velocity=111 time=0
EXTRACT: note_off channel=9 note=35 velocity=95 time=0
EXTRACT: note_on channel=9 note=0 velocity=95 time=0
EXTRACT: note_on channel=9 note=35 velocity=95 time=0
EXTRACT: note_on channel=9 note=44 velocity=95 time=0
EXTRACT: note_off channel=9 note=0 velocity=95 time=0.14150925
EXTRACT: note_off channel=9 note=35 velocity=95 time=0
EXTRACT: note_off channel=9 note=44 velocity=95 time=0
EXTRACT: note_off channel=0 note=59 velocity=111 time=0.14150925
EXTRACT: note_off channel=0 note=56 velocity=111 time=0
EXTRACT: note_off channel=0 note=52 velocity=111 time=0
EXTRACT: note_off channel=0 note=47 velocity=111 time=0
EXTRACT: note_on channel=0 note=59 velocity=95 time=0
EXTRACT: note_on channel=0 note=56 velocity=95 time=0
EXTRACT: note_on channel=0 note=52 velocity=95 time=0
EXTRACT: note_on channel=0 note=47 velocity=111 time=0
EXTRACT: note_on channel=9 note=40 velocity=95 time=0
EXTRACT: note_on channel=9 note=46 velocity=95 time=0
EXTRACT: note_off channel=0 note=59 velocity=95 time=0.2830185
EXTRACT: note_off channel=0 note=56 velocity=95 time=0
EXTRACT: note_off channel=0 note=52 velocity=95 time=0
EXTRACT: note_off channel=0 note=47 velocity=111 time=0
EXTRACT: note_on channel=0 note=61 velocity=111 time=0
EXTRACT: note_on channel=0 note=57 velocity=111 time=0
EXTRACT: note_on channel=0 note=52 velocity=111 time=0
EXTRACT: note_on channel=0 note=45 velocity=111 time=0
EXTRACT: note_on channel=2 note=57 velocity=95 time=0
EXTRACT: note_off channel=4 note=71 velocity=95 time=0
EXTRACT: note_on channel=4 note=69 velocity=95 time=0
EXTRACT: note_off channel=9 note=40 velocity=95 time=0
EXTRACT: note_off channel=9 note=46 velocity=95 time=0
EXTRACT: note_on channel=9 note=35 velocity=95 time=0
EXTRACT: note_on channel=9 note=44 velocity=95 time=0
EXTRACT: note_off channel=0 note=61 velocity=111 time=0.14150925
EXTRACT: note_off channel=0 note=57 velocity=111 time=0
EXTRACT: note_off channel=0 note=52 velocity=111 time=0
EXTRACT: note_off channel=0 note=45 velocity=111 time=0
EXTRACT: note_on channel=0 note=64 velocity=111 time=0
EXTRACT: note_on channel=0 note=61 velocity=111 time=0
EXTRACT: note_on channel=0 note=57 velocity=111 time=0
EXTRACT: note_off channel=2 note=57 velocity=95 time=0
EXTRACT: note_on channel=2 note=57 velocity=95 time=0
EXTRACT: note_off channel=4 note=69 velocity=95 time=0
EXTRACT: note_on channel=4 note=69 velocity=95 time=0
EXTRACT: note_off channel=9 note=35 velocity=95 time=0
EXTRACT: note_off channel=9 note=44 velocity=95 time=0
EXTRACT: note_on channel=9 note=0 velocity=95 time=0
EXTRACT: note_on channel=9 note=35 velocity=95 time=0
EXTRACT: note_on channel=9 note=44 velocity=95 time=0
EXTRACT: note_off channel=0 note=64 velocity=111 time=0.14150925
EXTRACT: note_off channel=0 note=61 velocity=111 time=0
EXTRACT: note_off channel=0 note=57 velocity=111 time=0
EXTRACT: note_on channel=0 note=57 velocity=111 time=0
EXTRACT: note_on channel=0 note=52 velocity=111 time=0
EXTRACT: note_on channel=0 note=45 velocity=111 time=0
EXTRACT: note_off channel=14 note=40 velocity=111 time=0
EXTRACT: note_on channel=14 note=33 velocity=111 time=0
EXTRACT: note_off channel=9 note=0 velocity=95 time=0
EXTRACT: note_off channel=9 note=35 velocity=95 time=0
EXTRACT: note_off channel=9 note=44 velocity=95 time=0
EXTRACT: note_on channel=9 note=0 velocity=95 time=0
EXTRACT: note_on channel=9 note=44 velocity=95 time=0
EXTRACT: note_off channel=14 note=33 velocity=111 time=0.2830185
EXTRACT: note_on channel=14 note=33 velocity=111 time=0
EXTRACT: note_off channel=9 note=0 velocity=95 time=0
EXTRACT: note_off channel=9 note=44 velocity=95 time=0
EXTRACT: note_on channel=9 note=0 velocity=95 time=0
EXTRACT: note_on channel=9 note=35 velocity=95 time=0
EXTRACT: note_on channel=9 note=44 velocity=95 time=0
EXTRACT: note_off channel=14 note=33 velocity=111 time=0.14150925
EXTRACT: note_on channel=14 note=33 velocity=111 time=0
EXTRACT: note_off channel=9 note=0 velocity=95 time=0
EXTRACT: note_off channel=9 note=35 velocity=95 time=0
EXTRACT: note_off channel=9 note=44 velocity=95 time=0
EXTRACT: note_off channel=0 note=57 velocity=111 time=0.14150925
EXTRACT: note_off channel=0 note=52 velocity=111 time=0
EXTRACT: note_off channel=0 note=45 velocity=111 time=0
EXTRACT: note_on channel=0 note=61 velocity=95 time=0
EXTRACT: note_on channel=0 note=57 velocity=95 time=0
EXTRACT: note_on channel=0 note=52 velocity=95 time=0
EXTRACT: note_off channel=14 note=33 velocity=111 time=0
EXTRACT: note_on channel=14 note=33 velocity=111 time=0
EXTRACT: note_on channel=9 note=40 velocity=95 time=0
EXTRACT: note_on channel=9 note=44 velocity=95 time=0
EXTRACT: note_off channel=2 note=57 velocity=95 time=0.14150925
EXTRACT: note_off channel=4 note=69 velocity=95 time=0
EXTRACT: note_off channel=9 note=40 velocity=95 time=0
EXTRACT: note_off channel=9 note=44 velocity=95 time=0
EXTRACT: note_off channel=0 note=61 velocity=95 time=0.14150925
EXTRACT: note_off channel=0 note=57 velocity=95 time=0
EXTRACT: note_off channel=0 note=52 velocity=95 time=0
EXTRACT: note_on channel=9 note=35 velocity=95 time=0
EXTRACT: note_on channel=9 note=44 velocity=95 time=0
EXTRACT: note_on channel=0 note=61 velocity=95 time=0.14150925
EXTRACT: note_on channel=0 note=57 velocity=95 time=0
EXTRACT: note_off channel=14 note=33 velocity=111 time=0
EXTRACT: note_on channel=14 note=40 velocity=111 time=0
EXTRACT: note_off channel=9 note=35 velocity=95 time=0
EXTRACT: note_off channel=9 note=44 velocity=95 time=0
EXTRACT: note_on channel=9 note=0 velocity=95 time=0
EXTRACT: note_on channel=9 note=35 velocity=95 time=0
EXTRACT: note_on channel=9 note=44 velocity=95 time=0
EXTRACT: note_off channel=0 note=61 velocity=95 time=0.14150925
EXTRACT: note_off channel=0 note=57 velocity=95 time=0
EXTRACT: note_off channel=14 note=40 velocity=111 time=0
EXTRACT: note_off channel=9 note=0 velocity=95 time=0
EXTRACT: note_off channel=9 note=35 velocity=95 time=0
EXTRACT: note_off channel=9 note=44 velocity=95 time=0
EXTRACT: note_on channel=9 note=0 velocity=95 time=0
EXTRACT: note_on channel=9 note=44 velocity=95 time=0
EXTRACT: note_on channel=0 note=59 velocity=95 time=0.14150925
EXTRACT: note_on channel=0 note=56 velocity=95 time=0
EXTRACT: note_on channel=0 note=52 velocity=95 time=0
EXTRACT: note_on channel=14 note=40 velocity=111 time=0
EXTRACT: note_off channel=0 note=59 velocity=95 time=0.14150925
EXTRACT: note_off channel=0 note=56 velocity=95 time=0
EXTRACT: note_off channel=0 note=52 velocity=95 time=0
EXTRACT: note_on channel=0 note=59 velocity=111 time=0
EXTRACT: note_on channel=0 note=56 velocity=111 time=0
EXTRACT: note_on channel=0 note=52 velocity=111 time=0
EXTRACT: note_on channel=0 note=47 velocity=111 time=0
EXTRACT: note_off channel=14 note=40 velocity=111 time=0
EXTRACT: note_on channel=14 note=40 velocity=111 time=0
EXTRACT: note_off channel=9 note=0 velocity=95 time=0
EXTRACT: note_off channel=9 note=44 velocity=95 time=0
EXTRACT: note_on channel=9 note=0 velocity=95 time=0
EXTRACT: note_on channel=9 note=35 velocity=95 time=0
EXTRACT: note_on channel=9 note=44 velocity=95 time=0
EXTRACT: note_off channel=9 note=0 velocity=95 time=0.14150925
EXTRACT: note_off channel=9 note=35 velocity=95 time=0
EXTRACT: note_off channel=9 note=44 velocity=95 time=0
EXTRACT: note_off channel=0 note=59 velocity=111 time=0.14150925
EXTRACT: note_off channel=0 note=56 velocity=111 time=0
EXTRACT: note_off channel=0 note=52 velocity=111 time=0
EXTRACT: note_off channel=0 note=47 velocity=111 time=0
EXTRACT: note_on channel=0 note=59 velocity=95 time=0
EXTRACT: note_on channel=0 note=56 velocity=95 time=0
EXTRACT: note_on channel=0 note=52 velocity=95 time=0
EXTRACT: note_on channel=0 note=47 velocity=111 time=0
EXTRACT: note_on channel=9 note=40 velocity=95 time=0
EXTRACT: note_on channel=9 note=44 velocity=95 time=0
EXTRACT: note_off channel=9 note=40 velocity=95 time=0.14150925
EXTRACT: note_off channel=9 note=44 velocity=95 time=0
EXTRACT: note_off channel=0 note=59 velocity=95 time=0.14150925
EXTRACT: note_off channel=0 note=56 velocity=95 time=0
EXTRACT: note_off channel=0 note=52 velocity=95 time=0
EXTRACT: note_off channel=0 note=47 velocity=111 time=0
EXTRACT: note_on channel=0 note=59 velocity=111 time=0
EXTRACT: note_on channel=0 note=56 velocity=111 time=0
EXTRACT: note_on channel=0 note=52 velocity=111 time=0
EXTRACT: note_on channel=2 note=54 velocity=95 time=0
EXTRACT: note_on channel=4 note=66 velocity=95 time=0
EXTRACT: note_on channel=9 note=35 velocity=95 time=0
EXTRACT: note_on channel=9 note=44 velocity=95 time=0
EXTRACT: note_off channel=0 note=59 velocity=111 time=0.14150925
EXTRACT: note_off channel=0 note=56 velocity=111 time=0
EXTRACT: note_off channel=0 note=52 velocity=111 time=0
EXTRACT: note_on channel=0 note=59 velocity=111 time=0
EXTRACT: note_on channel=0 note=56 velocity=111 time=0
EXTRACT: note_on channel=0 note=52 velocity=111 time=0
EXTRACT: note_off channel=2 note=54 velocity=95 time=0
EXTRACT: note_on channel=2 note=52 velocity=95 time=0
EXTRACT: note_off channel=4 note=66 velocity=95 time=0
EXTRACT: note_on channel=4 note=64 velocity=95 time=0
EXTRACT: note_off channel=9 note=35 velocity=95 time=0
EXTRACT: note_off channel=9 note=44 velocity=95 time=0
EXTRACT: note_on channel=9 note=0 velocity=95 time=0
EXTRACT: note_on channel=9 note=35 velocity=95 time=0
EXTRACT: note_on channel=9 note=44 velocity=95 time=0
EXTRACT: note_off channel=0 note=59 velocity=111 time=0.14150925
EXTRACT: note_off channel=0 note=56 velocity=111 time=0
EXTRACT: note_off channel=0 note=52 velocity=111 time=0
EXTRACT: note_on channel=0 note=62 velocity=111 time=0
EXTRACT: note_on channel=0 note=57 velocity=111 time=0
EXTRACT: note_on channel=0 note=50 velocity=111 time=0
EXTRACT: note_off channel=2 note=52 velocity=95 time=0
EXTRACT: note_on channel=2 note=54 velocity=95 time=0
EXTRACT: note_off channel=4 note=64 velocity=95 time=0
EXTRACT: note_on channel=4 note=66 velocity=95 time=0
EXTRACT: note_off channel=14 note=40 velocity=111 time=0
EXTRACT: note_on channel=14 note=38 velocity=111 time=0
EXTRACT: note_off channel=9 note=0 velocity=95 time=0
EXTRACT: note_off channel=9 note=35 velocity=95 time=0
EXTRACT: note_off channel=9 note=44 velocity=95 time=0
EXTRACT: note_on channel=9 note=0 velocity=95 time=0
EXTRACT: note_on channel=9 note=44 velocity=95 time=0
EXTRACT: note_off channel=9 note=0 velocity=95 time=0.14150925
EXTRACT: note_off channel=9 note=44 velocity=95 time=0
EXTRACT: note_on channel=9 note=35 velocity=95 time=0
EXTRACT: note_off channel=2 note=54 velocity=95 time=0.14150925
EXTRACT: note_on channel=2 note=57 velocity=95 time=0
EXTRACT: note_off channel=4 note=66 velocity=95 time=0
EXTRACT: note_on channel=4 note=69 velocity=95 time=0
EXTRACT: note_off channel=14 note=38 velocity=111 time=0
EXTRACT: note_on channel=14 note=38 velocity=111 time=0
EXTRACT: note_off channel=9 note=35 velocity=95 time=0
EXTRACT: note_on channel=9 note=0 velocity=95 time=0
EXTRACT: note_on channel=9 note=35 velocity=95 time=0
EXTRACT: note_on channel=9 note=44 velocity=95 time=0
EXTRACT: note_off channel=14 note=38 velocity=111 time=0.14150925
EXTRACT: note_on channel=14 note=38 velocity=111 time=0
EXTRACT: note_off channel=9 note=0 velocity=95 time=0
EXTRACT: note_off channel=9 note=35 velocity=95 time=0
EXTRACT: note_off channel=9 note=44 velocity=95 time=0
EXTRACT: note_off channel=0 note=62 velocity=111 time=0.14150925
EXTRACT: note_off channel=0 note=57 velocity=111 time=0
EXTRACT: note_off channel=0 note=50 velocity=111 time=0
EXTRACT: note_on channel=0 note=66 velocity=111 time=0
EXTRACT: note_on channel=0 note=62 velocity=95 time=0
EXTRACT: note_on channel=0 note=57 velocity=95 time=0
EXTRACT: note_off channel=14 note=38 velocity=111 time=0
EXTRACT: note_on channel=14 note=38 velocity=111 time=0
EXTRACT: note_on channel=9 note=40 velocity=95 time=0
EXTRACT: note_on channel=9 note=44 velocity=95 time=0
EXTRACT: note_off channel=9 note=40 velocity=95 time=0.14150925
EXTRACT: note_off channel=9 note=44 velocity=95 time=0
EXTRACT: note_off channel=0 note=66 velocity=111 time=0.14150925
EXTRACT: note_off channel=0 note=62 velocity=95 time=0
EXTRACT: note_off channel=0 note=57 velocity=95 time=0
EXTRACT: note_on channel=9 note=35 velocity=95 time=0
EXTRACT: note_on channel=9 note=44 velocity=95 time=0
EXTRACT: note_on channel=0 note=66 velocity=111 time=0.14150925
EXTRACT: note_on channel=0 note=62 velocity=95 time=0
EXTRACT: note_on channel=0 note=57 velocity=95 time=0
EXTRACT: note_off channel=2 note=57 velocity=95 time=0
EXTRACT: note_off channel=14 note=38 velocity=111 time=0
EXTRACT: note_on channel=14 note=40 velocity=111 time=0
EXTRACT: note_off channel=9 note=35 velocity=95 time=0
EXTRACT: note_off channel=9 note=44 velocity=95 time=0
EXTRACT: note_on channel=9 note=0 velocity=95 time=0
EXTRACT: note_on channel=9 note=35 velocity=95 time=0
EXTRACT: note_on channel=9 note=44 velocity=95 time=0
EXTRACT: note_off channel=0 note=66 velocity=111 time=0.14150925
EXTRACT: note_off channel=0 note=62 velocity=95 time=0
EXTRACT: note_off channel=0 note=57 velocity=95 time=0
EXTRACT: note_off channel=4 note=69 velocity=95 time=0
EXTRACT: note_off channel=14 note=40 velocity=111 time=0
EXTRACT: note_off channel=9 note=0 velocity=95 time=0
EXTRACT: note_off channel=9 note=35 velocity=95 time=0
EXTRACT: note_off channel=9 note=44 velocity=95 time=0
EXTRACT: note_on channel=9 note=0 velocity=95 time=0
EXTRACT: note_on channel=9 note=44 velocity=95 time=0
EXTRACT: note_on channel=0 note=59 velocity=95 time=0.14150925
EXTRACT: note_on channel=0 note=56 velocity=95 time=0
EXTRACT: note_on channel=0 note=52 velocity=95 time=0
EXTRACT: note_on channel=14 note=40 velocity=111 time=0
EXTRACT: note_off channel=9 note=0 velocity=95 time=0
EXTRACT: note_off channel=9 note=44 velocity=95 time=0
EXTRACT: note_on channel=9 note=0 velocity=95 time=0
EXTRACT: note_on channel=9 note=35 velocity=95 time=0
EXTRACT: note_on channel=9 note=44 velocity=95 time=0
EXTRACT: note_off channel=0 note=59 velocity=95 time=0.14150925
EXTRACT: note_off channel=0 note=56 velocity=95 time=0
EXTRACT: note_off channel=0 note=52 velocity=95 time=0
EXTRACT: note_on channel=0 note=59 velocity=111 time=0
EXTRACT: note_on channel=0 note=56 velocity=111 time=0
EXTRACT: note_on channel=0 note=52 velocity=111 time=0
EXTRACT: note_on channel=0 note=47 velocity=111 time=0
EXTRACT: note_off channel=14 note=40 velocity=111 time=0
EXTRACT: note_on channel=14 note=40 velocity=111 time=0
EXTRACT: note_off channel=9 note=0 velocity=95 time=0
EXTRACT: note_off channel=9 note=35 velocity=95 time=0
EXTRACT: note_off channel=9 note=44 velocity=95 time=0
EXTRACT: note_on channel=9 note=0 velocity=95 time=0
EXTRACT: note_on channel=9 note=40 velocity=95 time=0
EXTRACT: note_on channel=9 note=46 velocity=95 time=0
EXTRACT: note_off channel=9 note=0 velocity=95 time=0.14150925
EXTRACT: note_off channel=9 note=40 velocity=95 time=0
EXTRACT: note_off channel=9 note=46 velocity=95 time=0
EXTRACT: note_on channel=9 note=0 velocity=95 time=0
EXTRACT: note_on channel=9 note=40 velocity=95 time=0
EXTRACT: note_off channel=0 note=59 velocity=111 time=0.14150925
EXTRACT: note_off channel=0 note=56 velocity=111 time=0
EXTRACT: note_off channel=0 note=52 velocity=111 time=0
EXTRACT: note_off channel=0 note=47 velocity=111 time=0
EXTRACT: note_on channel=0 note=59 velocity=95 time=0
EXTRACT: note_on channel=0 note=56 velocity=95 time=0
EXTRACT: note_on channel=0 note=52 velocity=95 time=0
EXTRACT: note_on channel=0 note=47 velocity=111 time=0
EXTRACT: note_off channel=9 note=0 velocity=95 time=0
EXTRACT: note_off channel=9 note=40 velocity=95 time=0
EXTRACT: note_on channel=9 note=0 velocity=95 time=0
EXTRACT: note_on channel=9 note=40 velocity=95 time=0
EXTRACT: note_on channel=9 note=44 velocity=95 time=0
EXTRACT: note_off channel=9 note=0 velocity=95 time=0.14150925
EXTRACT: note_off channel=9 note=40 velocity=95 time=0
EXTRACT: note_off channel=9 note=44 velocity=95 time=0
EXTRACT: note_on channel=9 note=0 velocity=95 time=0
EXTRACT: note_on channel=9 note=40 velocity=95 time=0
EXTRACT: note_on channel=9 note=44 velocity=95 time=0
EXTRACT: note_off channel=0 note=59 velocity=95 time=0.14150925
EXTRACT: note_off channel=0 note=56 velocity=95 time=0
EXTRACT: note_off channel=0 note=52 velocity=95 time=0
EXTRACT: note_off channel=0 note=47 velocity=111 time=0
EXTRACT: note_off channel=9 note=0 velocity=95 time=0
EXTRACT: note_off channel=9 note=40 velocity=95 time=0
EXTRACT: note_off channel=9 note=44 velocity=95 time=0
EXTRACT: note_on channel=9 note=0 velocity=95 time=0
EXTRACT: note_on channel=9 note=40 velocity=95 time=0
EXTRACT: note_on channel=9 note=43 velocity=95 time=0
EXTRACT: note_on channel=9 note=45 velocity=95 time=0
EXTRACT: note_on channel=9 note=46 velocity=95 time=0
EXTRACT: note_off channel=9 note=0 velocity=95 time=0.14150925
EXTRACT: note_off channel=9 note=40 velocity=95 time=0
EXTRACT: note_off channel=9 note=43 velocity=95 time=0
EXTRACT: note_off channel=9 note=45 velocity=95 time=0
EXTRACT: note_off channel=9 note=46 velocity=95 time=0
EXTRACT: note_on channel=9 note=0 velocity=95 time=0
EXTRACT: note_on channel=9 note=40 velocity=95 time=0
EXTRACT: note_on channel=9 note=43 velocity=95 time=0
EXTRACT: note_on channel=0 note=57 velocity=111 time=0.14150925
EXTRACT: note_on channel=6 note=88 velocity=95 time=0
EXTRACT: note_on channel=6 note=81 velocity=95 time=0
EXTRACT: note_off channel=14 note=40 velocity=111 time=0
EXTRACT: note_on channel=14 note=33 velocity=111 time=0
EXTRACT: note_off channel=9 note=0 velocity=95 time=0
EXTRACT: note_off channel=9 note=40 velocity=95 time=0
EXTRACT: note_off channel=9 note=43 velocity=95 time=0
EXTRACT: note_on channel=9 note=0 velocity=95 time=0
EXTRACT: note_on channel=9 note=35 velocity=95 time=0
EXTRACT: note_on channel=9 note=44 velocity=95 time=0
EXTRACT: note_on channel=9 note=49 velocity=95 time=0
EXTRACT: note_on channel=9 note=57 velocity=95 time=0
EXTRACT: note_off channel=9 note=0 velocity=95 time=0.14150925
EXTRACT: note_off channel=9 note=35 velocity=95 time=0
EXTRACT: note_off channel=9 note=44 velocity=95 time=0
EXTRACT: note_off channel=9 note=49 velocity=95 time=0
EXTRACT: note_off channel=9 note=57 velocity=95 time=0
EXTRACT: note_off channel=0 note=57 velocity=111 time=0.14150925
EXTRACT: note_on channel=0 note=64 velocity=95 time=0
EXTRACT: note_on channel=4 note=69 velocity=95 time=0
EXTRACT: note_off channel=14 note=33 velocity=111 time=0
EXTRACT: note_on channel=14 note=33 velocity=111 time=0
EXTRACT: note_on channel=9 note=44 velocity=95 time=0
EXTRACT: note_off channel=4 note=69 velocity=95 time=0.14150925
EXTRACT: note_on channel=4 note=69 velocity=95 time=0
EXTRACT: note_off channel=14 note=33 velocity=111 time=0
EXTRACT: note_on channel=14 note=33 velocity=111 time=0
EXTRACT: note_off channel=9 note=44 velocity=95 time=0
EXTRACT: note_on channel=9 note=0 velocity=95 time=0
EXTRACT: note_on channel=9 note=44 velocity=95 time=0
EXTRACT: note_off channel=0 note=64 velocity=95 time=0.14150925
EXTRACT: note_on channel=0 note=61 velocity=95 time=0
EXTRACT: note_off channel=4 note=69 velocity=95 time=0
EXTRACT: note_on channel=4 note=69 velocity=95 time=0
EXTRACT: note_off channel=14 note=33 velocity=111 time=0
EXTRACT: note_on channel=14 note=33 velocity=111 time=0
EXTRACT: note_off channel=9 note=0 velocity=95 time=0
EXTRACT: note_off channel=9 note=44 velocity=95 time=0
EXTRACT: note_on channel=9 note=0 velocity=95 time=0
EXTRACT: note_on channel=9 note=40 velocity=95 time=0
EXTRACT: note_on channel=9 note=44 velocity=95 time=0
EXTRACT: note_off channel=4 note=69 velocity=95 time=0.14150925
EXTRACT: note_off channel=9 note=0 velocity=95 time=0
EXTRACT: note_off channel=9 note=40 velocity=95 time=0
EXTRACT: note_off channel=9 note=44 velocity=95 time=0
EXTRACT: note_off channel=0 note=61 velocity=95 time=0.14150925
EXTRACT: note_on channel=1 note=57 velocity=95 time=0
EXTRACT: note_on channel=4 note=69 velocity=95 time=0
EXTRACT: note_on channel=9 note=35 velocity=95 time=0
EXTRACT: note_on channel=9 note=44 velocity=95 time=0
EXTRACT: pitchwheel channel=1 pitch=-256 time=0.070754625
EXTRACT: pitchwheel channel=1 pitch=-640 time=0.070754625
EXTRACT: pitchwheel channel=1 pitch=0 time=0
EXTRACT: note_off channel=1 note=57 velocity=95 time=0
EXTRACT: note_on channel=0 note=56 velocity=95 time=0
EXTRACT: note_off channel=4 note=69 velocity=95 time=0
EXTRACT: note_on channel=4 note=69 velocity=95 time=0
EXTRACT: note_off channel=14 note=33 velocity=111 time=0
EXTRACT: note_on channel=14 note=40 velocity=111 time=0
EXTRACT: note_off channel=9 note=35 velocity=95 time=0
EXTRACT: note_off channel=9 note=44 velocity=95 time=0
EXTRACT: note_on channel=9 note=0 velocity=95 time=0
EXTRACT: note_on channel=9 note=35 velocity=95 time=0
EXTRACT: note_on channel=9 note=44 velocity=95 time=0
EXTRACT: note_off channel=4 note=69 velocity=95 time=0.14150925
EXTRACT: note_on channel=4 note=68 velocity=95 time=0
EXTRACT: note_off channel=6 note=88 velocity=95 time=0
EXTRACT: note_off channel=6 note=81 velocity=95 time=0
EXTRACT: note_on channel=6 note=88 velocity=95 time=0
EXTRACT: note_on channel=6 note=83 velocity=95 time=0
EXTRACT: note_off channel=14 note=40 velocity=111 time=0
EXTRACT: note_off channel=9 note=0 velocity=95 time=0
EXTRACT: note_off channel=9 note=35 velocity=95 time=0
EXTRACT: note_off channel=9 note=44 velocity=95 time=0
EXTRACT: note_on channel=9 note=0 velocity=95 time=0
EXTRACT: note_on channel=9 note=44 velocity=95 time=0
EXTRACT: note_on channel=14 note=40 velocity=111 time=0.14150925
EXTRACT: note_off channel=9 note=0 velocity=95 time=0
EXTRACT: note_off channel=9 note=44 velocity=95 time=0
EXTRACT: note_on channel=9 note=35 velocity=95 time=0
EXTRACT: note_off channel=0 note=56 velocity=95 time=0.14150925
EXTRACT: note_on channel=0 note=64 velocity=95 time=0
EXTRACT: note_off channel=4 note=68 velocity=95 time=0
EXTRACT: note_on channel=4 note=66 velocity=95 time=0
EXTRACT: note_off channel=14 note=40 velocity=111 time=0
EXTRACT: note_on channel=14 note=40 velocity=111 time=0
EXTRACT: note_off channel=9 note=35 velocity=95 time=0
EXTRACT: note_on channel=9 note=0 velocity=95 time=0
EXTRACT: note_on channel=9 note=44 velocity=95 time=0
EXTRACT: note_off channel=4 note=66 velocity=95 time=0.14150925
EXTRACT: note_on channel=4 note=64 velocity=95 time=0
EXTRACT: note_off channel=9 note=0 velocity=95 time=0
EXTRACT: note_off channel=9 note=44 velocity=95 time=0
EXTRACT: note_on channel=9 note=0 velocity=95 time=0
EXTRACT: note_on channel=9 note=44 velocity=95 time=0
EXTRACT: note_off channel=0 note=64 velocity=95 time=0.14150925
EXTRACT: note_on channel=0 note=59 velocity=95 time=0
EXTRACT: note_off channel=9 note=0 velocity=95 time=0
EXTRACT: note_off channel=9 note=44 velocity=95 time=0
EXTRACT: note_on channel=9 note=0 velocity=95 time=0
EXTRACT: note_on channel=9 note=40 velocity=95 time=0
EXTRACT: note_on channel=9 note=44 velocity=95 time=0
EXTRACT: note_off channel=4 note=64 velocity=95 time=0.14150925
EXTRACT: note_on channel=4 note=66 velocity=95 time=0
EXTRACT: note_off channel=9 note=0 velocity=95 time=0
EXTRACT: note_off channel=9 note=40 velocity=95 time=0
EXTRACT: note_off channel=9 note=44 velocity=95 time=0
EXTRACT: note_off channel=0 note=59 velocity=95 time=0.14150925
EXTRACT: note_on channel=1 note=56 velocity=95 time=0
EXTRACT: note_off channel=4 note=66 velocity=95 time=0
EXTRACT: note_on channel=9 note=35 velocity=95 time=0
EXTRACT: note_on channel=9 note=44 velocity=95 time=0
EXTRACT: pitchwheel channel=1 pitch=256 time=0.070754625
EXTRACT: pitchwheel channel=1 pitch=640 time=0.070754625
EXTRACT: pitchwheel channel=1 pitch=0 time=0
EXTRACT: note_off channel=1 note=56 velocity=95 time=0
EXTRACT: note_on channel=0 note=57 velocity=95 time=0
EXTRACT: note_on channel=4 note=66 velocity=95 time=0
EXTRACT: note_off channel=6 note=88 velocity=95 time=0
EXTRACT: note_off channel=6 note=83 velocity=95 time=0
EXTRACT: note_off channel=9 note=35 velocity=95 time=0
EXTRACT: note_off channel=9 note=44 velocity=95 time=0
EXTRACT: note_on channel=9 note=0 velocity=95 time=0
EXTRACT: note_on channel=9 note=44 velocity=95 time=0
EXTRACT: note_on channel=6 note=86 velocity=95 time=0.14150925
EXTRACT: note_on channel=6 note=81 velocity=95 time=0
EXTRACT: note_on channel=6 note=78 velocity=95 time=0
EXTRACT: note_off channel=14 note=40 velocity=111 time=0
EXTRACT: note_on channel=14 note=38 velocity=111 time=0
EXTRACT: note_off channel=9 note=0 velocity=95 time=0
EXTRACT: note_off channel=9 note=44 velocity=95 time=0
EXTRACT: note_on channel=9 note=0 velocity=95 time=0
EXTRACT: note_on channel=9 note=35 velocity=95 time=0
EXTRACT: note_on channel=9 note=44 velocity=95 time=0
EXTRACT: note_off channel=9 note=0 velocity=95 time=0.14150925
EXTRACT: note_off channel=9 note=35 velocity=95 time=0
EXTRACT: note_off channel=9 note=44 velocity=95 time=0
EXTRACT: note_off channel=0 note=57 velocity=95 time=0.14150925
EXTRACT: note_on channel=0 note=66 velocity=95 time=0
EXTRACT: note_off channel=4 note=66 velocity=95 time=0
EXTRACT: note_off channel=14 note=38 velocity=111 time=0
EXTRACT: note_on channel=14 note=38 velocity=111 time=0
EXTRACT: note_on channel=9 note=44 velocity=95 time=0
EXTRACT: note_off channel=14 note=38 velocity=111 time=0.14150925
EXTRACT: note_on channel=14 note=38 velocity=111 time=0
EXTRACT: note_off channel=9 note=44 velocity=95 time=0
EXTRACT: note_on channel=9 note=0 velocity=95 time=0
EXTRACT: note_on channel=9 note=44 velocity=95 time=0
EXTRACT: note_off channel=0 note=66 velocity=95 time=0.14150925
EXTRACT: note_on channel=0 note=62 velocity=95 time=0
EXTRACT: note_on channel=2 note=50 velocity=95 time=0
EXTRACT: note_on channel=4 note=62 velocity=95 time=0
EXTRACT: note_off channel=14 note=38 velocity=111 time=0
EXTRACT: note_on channel=14 note=38 velocity=111 time=0
EXTRACT: note_off channel=9 note=0 velocity=95 time=0
EXTRACT: note_off channel=9 note=44 velocity=95 time=0
EXTRACT: note_on channel=9 note=0 velocity=95 time=0
EXTRACT: note_on channel=9 note=40 velocity=95 time=0
EXTRACT: note_on channel=9 note=44 velocity=95 time=0
EXTRACT: note_off channel=2 note=50 velocity=95 time=0.14150925
EXTRACT: note_on channel=2 note=50 velocity=95 time=0
EXTRACT: note_off channel=4 note=62 velocity=95 time=0
EXTRACT: note_on channel=4 note=62 velocity=95 time=0
EXTRACT: note_off channel=9 note=0 velocity=95 time=0
EXTRACT: note_off channel=9 note=40 velocity=95 time=0
EXTRACT: note_off channel=9 note=44 velocity=95 time=0
EXTRACT: note_off channel=0 note=62 velocity=95 time=0.14150925
EXTRACT: note_on channel=1 note=57 velocity=95 time=0
EXTRACT: note_off channel=2 note=50 velocity=95 time=0
EXTRACT: note_on channel=2 note=50 velocity=95 time=0
EXTRACT: note_off channel=4 note=62 velocity=95 time=0
EXTRACT: note_on channel=4 note=62 velocity=95 time=0
EXTRACT: note_on channel=9 note=35 velocity=95 time=0
EXTRACT: note_on channel=9 note=44 velocity=95 time=0
EXTRACT: pitchwheel channel=1 pitch=-256 time=0.070754625
EXTRACT: pitchwheel channel=1 pitch=-640 time=0.070754625
EXTRACT: pitchwheel channel=1 pitch=0 time=0
EXTRACT: note_off channel=1 note=57 velocity=95 time=0
EXTRACT: note_on channel=0 note=56 velocity=95 time=0
EXTRACT: note_off channel=2 note=50 velocity=95 time=0
EXTRACT: note_on channel=2 note=50 velocity=95 time=0
EXTRACT: note_off channel=4 note=62 velocity=95 time=0
EXTRACT: note_on channel=4 note=62 velocity=95 time=0
EXTRACT: note_off channel=6 note=86 velocity=95 time=0
EXTRACT: note_off channel=6 note=81 velocity=95 time=0
EXTRACT: note_off channel=6 note=78 velocity=95 time=0
EXTRACT: note_off channel=14 note=38 velocity=111 time=0
EXTRACT: note_on channel=14 note=40 velocity=111 time=0
EXTRACT: note_off channel=9 note=35 velocity=95 time=0
EXTRACT: note_off channel=9 note=44 velocity=95 time=0
EXTRACT: note_on channel=9 note=0 velocity=95 time=0
EXTRACT: note_on channel=9 note=35 velocity=95 time=0
EXTRACT: note_on channel=9 note=44 velocity=95 time=0
EXTRACT: note_off channel=2 note=50 velocity=95 time=0.14150925
EXTRACT: note_on channel=2 note=50 velocity=95 time=0
EXTRACT: note_off channel=4 note=62 velocity=95 time=0
EXTRACT: note_on channel=4 note=62 velocity=95 time=0
EXTRACT: note_off channel=14 note=40 velocity=111 time=0
EXTRACT: note_off channel=9 note=0 velocity=95 time=0
EXTRACT: note_off channel=9 note=35 velocity=95 time=0
EXTRACT: note_off channel=9 note=44 velocity=95 time=0
EXTRACT: note_on channel=9 note=0 velocity=95 time=0
EXTRACT: note_on channel=9 note=44 velocity=95 time=0
EXTRACT: note_off channel=2 note=50 velocity=95 time=0.14150925
EXTRACT: note_on channel=6 note=88 velocity=95 time=0
EXTRACT: note_on channel=6 note=83 velocity=95 time=0
EXTRACT: note_on channel=14 note=40 velocity=111 time=0
EXTRACT: note_off channel=9 note=0 velocity=95 time=0
EXTRACT: note_off channel=9 note=44 velocity=95 time=0
EXTRACT: note_on channel=9 note=0 velocity=95 time=0
EXTRACT: note_on channel=9 note=44 velocity=95 time=0
EXTRACT: note_off channel=0 note=56 velocity=95 time=0.14150925
EXTRACT: note_on channel=0 note=64 velocity=95 time=0
EXTRACT: note_on channel=2 note=50 velocity=95 time=0
EXTRACT: note_off channel=4 note=62 velocity=95 time=0
EXTRACT: note_on channel=4 note=62 velocity=95 time=0
EXTRACT: note_off channel=6 note=88 velocity=95 time=0
EXTRACT: note_off channel=6 note=83 velocity=95 time=0
EXTRACT: note_off channel=14 note=40 velocity=111 time=0
EXTRACT: note_on channel=14 note=40 velocity=111 time=0
EXTRACT: note_off channel=9 note=0 velocity=95 time=0
EXTRACT: note_off channel=9 note=44 velocity=95 time=0
EXTRACT: note_on channel=9 note=0 velocity=95 time=0
EXTRACT: note_on channel=9 note=35 velocity=95 time=0
EXTRACT: note_on channel=9 note=46 velocity=95 time=0
EXTRACT: note_off channel=2 note=50 velocity=95 time=0.14150925
EXTRACT: note_on channel=2 note=50 velocity=95 time=0
EXTRACT: note_off channel=4 note=62 velocity=95 time=0
EXTRACT: note_on channel=4 note=62 velocity=95 time=0
EXTRACT: note_off channel=9 note=0 velocity=95 time=0
EXTRACT: note_off channel=9 note=35 velocity=95 time=0
EXTRACT: note_off channel=9 note=46 velocity=95 time=0
EXTRACT: note_off channel=0 note=64 velocity=95 time=0.14150925
EXTRACT: note_on channel=0 note=59 velocity=95 time=0
EXTRACT: note_off channel=2 note=50 velocity=95 time=0
EXTRACT: note_on channel=2 note=49 velocity=95 time=0
EXTRACT: note_off channel=4 note=62 velocity=95 time=0
EXTRACT: note_on channel=4 note=61 velocity=95 time=0
EXTRACT: note_on channel=6 note=83 velocity=95 time=0
EXTRACT: note_on channel=6 note=80 velocity=95 time=0
EXTRACT: note_on channel=6 note=76 velocity=95 time=0
EXTRACT: note_on channel=9 note=40 velocity=95 time=0
EXTRACT: note_on channel=9 note=44 velocity=95 time=0
EXTRACT: note_off channel=9 note=40 velocity=95 time=0.14150925
EXTRACT: note_off channel=9 note=44 velocity=95 time=0
EXTRACT: note_on channel=9 note=0 velocity=95 time=0
EXTRACT: note_on channel=9 note=44 velocity=95 time=0
EXTRACT: note_off channel=0 note=59 velocity=95 time=0.14150925
EXTRACT: note_on channel=1 note=56 velocity=95 time=0
EXTRACT: note_off channel=2 note=49 velocity=95 time=0
EXTRACT: note_on channel=2 note=47 velocity=95 time=0
EXTRACT: note_off channel=4 note=61 velocity=95 time=0
EXTRACT: note_on channel=4 note=59 velocity=95 time=0
EXTRACT: note_off channel=9 note=0 velocity=95 time=0
EXTRACT: note_off channel=9 note=44 velocity=95 time=0
EXTRACT: note_on channel=9 note=35 velocity=95 time=0
EXTRACT: note_on channel=9 note=46 velocity=95 time=0
EXTRACT: pitchwheel channel=1 pitch=256 time=0.070754625
EXTRACT: pitchwheel channel=1 pitch=640 time=0.070754625
EXTRACT: pitchwheel channel=1 pitch=0 time=0
EXTRACT: note_off channel=1 note=56 velocity=95 time=0
EXTRACT: note_on channel=0 note=57 velocity=95 time=0
EXTRACT: note_off channel=2 note=47 velocity=95 time=0
EXTRACT: note_on channel=2 note=45 velocity=95 time=0
EXTRACT: note_off channel=4 note=59 velocity=95 time=0
EXTRACT: note_on channel=4 note=57 velocity=95 time=0
EXTRACT: note_off channel=6 note=83 velocity=95 time=0
EXTRACT: note_off channel=6 note=80 velocity=95 time=0
EXTRACT: note_off channel=6 note=76 velocity=95 time=0
EXTRACT: note_off channel=9 note=35 velocity=95 time=0
EXTRACT: note_off channel=9 note=46 velocity=95 time=0
EXTRACT: note_on channel=9 note=0 velocity=95 time=0
EXTRACT: note_on channel=9 note=35 velocity=95 time=0
EXTRACT: note_on channel=9 note=44 velocity=95 time=0
EXTRACT: note_on channel=6 note=85 velocity=95 time=0.14150925
EXTRACT: note_on channel=6 note=81 velocity=95 time=0
EXTRACT: note_on channel=6 note=76 velocity=95 time=0
EXTRACT: note_off channel=14 note=40 velocity=111 time=0
EXTRACT: note_on channel=14 note=33 velocity=111 time=0
EXTRACT: note_off channel=9 note=0 velocity=95 time=0
EXTRACT: note_off channel=9 note=35 velocity=95 time=0
EXTRACT: note_off channel=9 note=44 velocity=95 time=0
EXTRACT: note_on channel=9 note=0 velocity=95 time=0
EXTRACT: note_on channel=9 note=44 velocity=95 time=0
EXTRACT: note_off channel=0 note=57 velocity=95 time=0.2830185
EXTRACT: note_on channel=0 note=64 velocity=95 time=0
EXTRACT: note_off channel=4 note=57 velocity=95 time=0
EXTRACT: note_off channel=14 note=33 velocity=111 time=0
EXTRACT: note_on channel=14 note=33 velocity=111 time=0
EXTRACT: note_off channel=9 note=0 velocity=95 time=0
EXTRACT: note_off channel=9 note=44 velocity=95 time=0
EXTRACT: note_on channel=9 note=0 velocity=95 time=0
EXTRACT: note_on channel=9 note=35 velocity=95 time=0
EXTRACT: note_on channel=9 note=44 velocity=95 time=0
EXTRACT: note_off channel=2 note=45 velocity=95 time=0.14150925
EXTRACT: note_off channel=14 note=33 velocity=111 time=0
EXTRACT: note_on channel=14 note=33 velocity=111 time=0
EXTRACT: note_off channel=9 note=0 velocity=95 time=0
EXTRACT: note_off channel=9 note=35 velocity=95 time=0
EXTRACT: note_off channel=9 note=44 velocity=95 time=0
EXTRACT: note_off channel=0 note=64 velocity=95 time=0.14150925
EXTRACT: note_on channel=0 note=61 velocity=95 time=0
EXTRACT: note_on channel=4 note=69 velocity=95 time=0
EXTRACT: note_off channel=14 note=33 velocity=111 time=0
EXTRACT: note_on channel=14 note=33 velocity=111 time=0
EXTRACT: note_on channel=9 note=40 velocity=95 time=0
EXTRACT: note_on channel=9 note=44 velocity=95 time=0
EXTRACT: note_off channel=4 note=69 velocity=95 time=0.14150925
EXTRACT: note_on channel=4 note=69 velocity=95 time=0
EXTRACT: note_off channel=9 note=40 velocity=95 time=0
EXTRACT: note_off channel=9 note=44 velocity=95 time=0
EXTRACT: note_off channel=0 note=61 velocity=95 time=0.14150925
EXTRACT: note_on channel=1 note=57 velocity=95 time=0
EXTRACT: note_off channel=4 note=69 velocity=95 time=0
EXTRACT: note_on channel=4 note=69 velocity=95 time=0
EXTRACT: note_on channel=9 note=35 velocity=95 time=0
EXTRACT: note_on channel=9 note=44 velocity=95 time=0
EXTRACT: pitchwheel channel=1 pitch=-256 time=0.070754625
EXTRACT: pitchwheel channel=1 pitch=-640 time=0.070754625
EXTRACT: pitchwheel channel=1 pitch=0 time=0
EXTRACT: note_off channel=1 note=57 velocity=95 time=0
EXTRACT: note_on channel=0 note=56 velocity=95 time=0
EXTRACT: note_off channel=4 note=69 velocity=95 time=0
EXTRACT: note_on channel=4 note=71 velocity=95 time=0
EXTRACT: note_off channel=6 note=85 velocity=95 time=0
EXTRACT: note_off channel=6 note=81 velocity=95 time=0
EXTRACT: note_off channel=6 note=76 velocity=95 time=0
EXTRACT: note_off channel=14 note=33 velocity=111 time=0
EXTRACT: note_on channel=14 note=40 velocity=111 time=0
EXTRACT: note_off channel=9 note=35 velocity=95 time=0
EXTRACT: note_off channel=9 note=44 velocity=95 time=0
EXTRACT: note_on channel=9 note=0 velocity=95 time=0
EXTRACT: note_on channel=9 note=35 velocity=95 time=0
EXTRACT: note_on channel=9 note=44 velocity=95 time=0
EXTRACT: note_on channel=6 note=83 velocity=95 time=0.14150925
EXTRACT: note_on channel=6 note=80 velocity=95 time=0
EXTRACT: note_on channel=6 note=76 velocity=95 time=0
EXTRACT: note_off channel=14 note=40 velocity=111 time=0
EXTRACT: note_off channel=9 note=0 velocity=95 time=0
EXTRACT: note_off channel=9 note=35 velocity=95 time=0
EXTRACT: note_off channel=9 note=44 velocity=95 time=0
EXTRACT: note_on channel=9 note=0 velocity=95 time=0
EXTRACT: note_on channel=9 note=44 velocity=95 time=0
EXTRACT: note_on channel=14 note=40 velocity=111 time=0.14150925
EXTRACT: note_off channel=9 note=0 velocity=95 time=0
EXTRACT: note_off channel=9 note=44 velocity=95 time=0
EXTRACT: note_off channel=0 note=56 velocity=95 time=0.14150925
EXTRACT: note_on channel=0 note=64 velocity=95 time=0
EXTRACT: note_off channel=4 note=71 velocity=95 time=0
EXTRACT: note_on channel=4 note=68 velocity=95 time=0
EXTRACT: note_off channel=14 note=40 velocity=111 time=0
EXTRACT: note_on channel=14 note=40 velocity=111 time=0
EXTRACT: note_on channel=9 note=35 velocity=95 time=0
EXTRACT: note_on channel=9 note=36 velocity=95 time=0
EXTRACT: note_on channel=9 note=44 velocity=95 time=0
EXTRACT: note_off channel=4 note=68 velocity=95 time=0.14150925
EXTRACT: note_off channel=9 note=35 velocity=95 time=0
EXTRACT: note_off channel=9 note=36 velocity=95 time=0
EXTRACT: note_off channel=9 note=44 velocity=95 time=0
EXTRACT: note_off channel=0 note=64 velocity=95 time=0.14150925
EXTRACT: note_on channel=0 note=59 velocity=95 time=0
EXTRACT: note_on channel=4 note=66 velocity=95 time=0
EXTRACT: note_on channel=9 note=40 velocity=95 time=0
EXTRACT: note_on channel=9 note=44 velocity=95 time=0
EXTRACT: note_off channel=9 note=40 velocity=95 time=0.14150925
EXTRACT: note_off channel=9 note=44 velocity=95 time=0
EXTRACT: note_off channel=0 note=59 velocity=95 time=0.14150925
EXTRACT: note_on channel=1 note=56 velocity=95 time=0
EXTRACT: note_off channel=4 note=66 velocity=95 time=0
EXTRACT: note_on channel=4 note=64 velocity=95 time=0
EXTRACT: note_on channel=9 note=35 velocity=95 time=0
EXTRACT: note_on channel=9 note=44 velocity=95 time=0
EXTRACT: pitchwheel channel=1 pitch=256 time=0.070754625
EXTRACT: pitchwheel channel=1 pitch=640 time=0.070754625
EXTRACT: pitchwheel channel=1 pitch=0 time=0
EXTRACT: note_off channel=1 note=56 velocity=95 time=0
EXTRACT: note_on channel=0 note=57 velocity=95 time=0
EXTRACT: note_off channel=4 note=64 velocity=95 time=0
EXTRACT: note_on channel=4 note=66 velocity=95 time=0
EXTRACT: note_off channel=6 note=83 velocity=95 time=0
EXTRACT: note_off channel=6 note=80 velocity=95 time=0
EXTRACT: note_off channel=6 note=76 velocity=95 time=0
EXTRACT: note_off channel=9 note=35 velocity=95 time=0
EXTRACT: note_off channel=9 note=44 velocity=95 time=0
EXTRACT: note_on channel=9 note=0 velocity=95 time=0
EXTRACT: note_on channel=9 note=35 velocity=95 time=0
EXTRACT: note_on channel=9 note=44 velocity=95 time=0
EXTRACT: note_on channel=6 note=86 velocity=95 time=0.14150925
EXTRACT: note_on channel=6 note=81 velocity=95 time=0
EXTRACT: note_on channel=6 note=78 velocity=95 time=0
EXTRACT: note_off channel=14 note=40 velocity=111 time=0
EXTRACT: note_on channel=14 note=38 velocity=111 time=0
EXTRACT: note_off channel=9 note=0 velocity=95 time=0
EXTRACT: note_off channel=9 note=35 velocity=95 time=0
EXTRACT: note_off channel=9 note=44 velocity=95 time=0
EXTRACT: note_on channel=9 note=0 velocity=95 time=0
EXTRACT: note_on channel=9 note=44 velocity=95 time=0
EXTRACT: note_off channel=9 note=0 velocity=95 time=0.14150925
EXTRACT: note_off channel=9 note=44 velocity=95 time=0
EXTRACT: note_off channel=0 note=57 velocity=95 time=0.14150925
EXTRACT: note_on channel=0 note=66 velocity=95 time=0
EXTRACT: note_off channel=14 note=38 velocity=111 time=0
EXTRACT: note_on channel=14 note=38 velocity=111 time=0
EXTRACT: note_on channel=9 note=35 velocity=95 time=0
EXTRACT: note_on channel=9 note=44 velocity=95 time=0
EXTRACT: note_off channel=4 note=66 velocity=95 time=0.14150925
EXTRACT: note_off channel=14 note=38 velocity=111 time=0
EXTRACT: note_on channel=14 note=38 velocity=111 time=0
EXTRACT: note_off channel=9 note=35 velocity=95 time=0
EXTRACT: note_off channel=9 note=44 velocity=95 time=0
EXTRACT: note_off channel=0 note=66 velocity=95 time=0.14150925
EXTRACT: note_on channel=0 note=62 velocity=95 time=0
EXTRACT: note_off channel=14 note=38 velocity=111 time=0
EXTRACT: note_on channel=14 note=38 velocity=111 time=0
EXTRACT: note_on channel=9 note=40 velocity=95 time=0
EXTRACT: note_on channel=9 note=44 velocity=95 time=0
EXTRACT: note_off channel=9 note=40 velocity=95 time=0.14150925
EXTRACT: note_off channel=9 note=44 velocity=95 time=0
EXTRACT: note_off channel=0 note=62 velocity=95 time=0.14150925
EXTRACT: note_on channel=1 note=57 velocity=95 time=0
EXTRACT: note_on channel=4 note=64 velocity=95 time=0
EXTRACT: note_on channel=9 note=35 velocity=95 time=0
EXTRACT: note_on channel=9 note=44 velocity=95 time=0
EXTRACT: pitchwheel channel=1 pitch=-256 time=0.070754625
EXTRACT: pitchwheel channel=1 pitch=-640 time=0.070754625
EXTRACT: pitchwheel channel=1 pitch=0 time=0
EXTRACT: note_off channel=1 note=57 velocity=95 time=0
EXTRACT: note_on channel=0 note=56 velocity=95 time=0
EXTRACT: note_off channel=4 note=64 velocity=95 time=0
EXTRACT: note_on channel=4 note=64 velocity=95 time=0
EXTRACT: note_off channel=6 note=86 velocity=95 time=0
EXTRACT: note_off channel=6 note=81 velocity=95 time=0
EXTRACT: note_off channel=6 note=78 velocity=95 time=0
EXTRACT: note_off channel=14 note=38 velocity=111 time=0
EXTRACT: note_on channel=14 note=40 velocity=111 time=0
EXTRACT: note_off channel=9 note=35 velocity=95 time=0
EXTRACT: note_off channel=9 note=44 velocity=95 time=0
EXTRACT: note_on channel=9 note=0 velocity=95 time=0
EXTRACT: note_on channel=9 note=35 velocity=95 time=0
EXTRACT: note_on channel=9 note=44 velocity=95 time=0
EXTRACT: note_off channel=4 note=64 velocity=95 time=0.14150925
EXTRACT: note_on channel=4 note=66 velocity=95 time=0
EXTRACT: note_off channel=14 note=40 velocity=111 time=0
EXTRACT: note_off channel=9 note=0 velocity=95 time=0
EXTRACT: note_off channel=9 note=35 velocity=95 time=0
EXTRACT: note_off channel=9 note=44 velocity=95 time=0
EXTRACT: note_on channel=9 note=0 velocity=95 time=0
EXTRACT: note_on channel=9 note=44 velocity=95 time=0
EXTRACT: note_on channel=6 note=88 velocity=95 time=0.14150925
EXTRACT: note_on channel=6 note=83 velocity=95 time=0
EXTRACT: note_on channel=14 note=40 velocity=111 time=0
EXTRACT: note_off channel=9 note=0 velocity=95 time=0
EXTRACT: note_off channel=9 note=44 velocity=95 time=0
EXTRACT: note_on channel=9 note=0 velocity=95 time=0
EXTRACT: note_on channel=9 note=35 velocity=95 time=0
EXTRACT: note_on channel=9 note=44 velocity=95 time=0
EXTRACT: note_off channel=0 note=56 velocity=95 time=0.14150925
EXTRACT: note_on channel=0 note=64 velocity=95 time=0
EXTRACT: note_off channel=4 note=66 velocity=95 time=0
EXTRACT: note_on channel=4 note=69 velocity=95 time=0
EXTRACT: note_off channel=6 note=88 velocity=95 time=0
EXTRACT: note_off channel=6 note=83 velocity=95 time=0
EXTRACT: note_off channel=14 note=40 velocity=111 time=0
EXTRACT: note_on channel=14 note=40 velocity=111 time=0
EXTRACT: note_off channel=9 note=0 velocity=95 time=0
EXTRACT: note_off channel=9 note=35 velocity=95 time=0
EXTRACT: note_off channel=9 note=44 velocity=95 time=0
EXTRACT: note_on channel=9 note=0 velocity=95 time=0
EXTRACT: note_on channel=9 note=44 velocity=95 time=0
EXTRACT: note_off channel=4 note=69 velocity=95 time=0.14150925
EXTRACT: note_on channel=6 note=76 velocity=95 time=0
EXTRACT: note_off channel=9 note=0 velocity=95 time=0
EXTRACT: note_off channel=9 note=44 velocity=95 time=0
EXTRACT: note_off channel=0 note=64 velocity=95 time=0.14150925
EXTRACT: note_on channel=0 note=59 velocity=95 time=0
EXTRACT: note_on channel=4 note=73 velocity=95 time=0
EXTRACT: note_off channel=6 note=76 velocity=95 time=0
EXTRACT: note_on channel=6 note=88 velocity=95 time=0
EXTRACT: note_on channel=6 note=83 velocity=95 time=0
EXTRACT: note_on channel=9 note=40 velocity=95 time=0
EXTRACT: note_on channel=9 note=44 velocity=95 time=0
EXTRACT: note_off channel=9 note=40 velocity=95 time=0.14150925
EXTRACT: note_off channel=9 note=44 velocity=95 time=0
EXTRACT: note_off channel=0 note=59 velocity=95 time=0.14150925
EXTRACT: note_on channel=1 note=56 velocity=95 time=0
EXTRACT: note_off channel=4 note=73 velocity=95 time=0
EXTRACT: note_on channel=4 note=71 velocity=95 time=0
EXTRACT: note_off channel=6 note=88 velocity=95 time=0
EXTRACT: note_off channel=6 note=83 velocity=95 time=0
EXTRACT: note_on channel=6 note=76 velocity=95 time=0
EXTRACT: note_on channel=9 note=35 velocity=95 time=0
EXTRACT: note_on channel=9 note=44 velocity=95 time=0
EXTRACT: pitchwheel channel=1 pitch=256 time=0.070754625
EXTRACT: pitchwheel channel=1 pitch=640 time=0.070754625
EXTRACT: pitchwheel channel=1 pitch=0 time=0
EXTRACT: note_off channel=1 note=56 velocity=95 time=0
EXTRACT: note_on channel=0 note=57 velocity=95 time=0
EXTRACT: note_off channel=4 note=71 velocity=95 time=0
EXTRACT: note_on channel=4 note=69 velocity=95 time=0
EXTRACT: note_off channel=6 note=76 velocity=95 time=0
EXTRACT: note_off channel=9 note=35 velocity=95 time=0
EXTRACT: note_off channel=9 note=44 velocity=95 time=0
EXTRACT: note_on channel=9 note=0 velocity=95 time=0
EXTRACT: note_on channel=9 note=46 velocity=95 time=0
EXTRACT: note_on channel=6 note=85 velocity=95 time=0.14150925
EXTRACT: note_on channel=6 note=81 velocity=95 time=0
EXTRACT: note_on channel=6 note=76 velocity=95 time=0
EXTRACT: note_off channel=14 note=40 velocity=111 time=0
EXTRACT: note_on channel=14 note=33 velocity=111 time=0
EXTRACT: note_off channel=9 note=0 velocity=95 time=0
EXTRACT: note_off channel=9 note=46 velocity=95 time=0
EXTRACT: note_on channel=9 note=35 velocity=95 time=0
EXTRACT: note_on channel=9 note=44 velocity=95 time=0
EXTRACT: note_off channel=4 note=69 velocity=95 time=0.14150925
EXTRACT: note_off channel=9 note=35 velocity=95 time=0
EXTRACT: note_off channel=9 note=44 velocity=95 time=0
EXTRACT: note_off channel=0 note=57 velocity=95 time=0.14150925
EXTRACT: note_on channel=0 note=64 velocity=95 time=0
EXTRACT: note_on channel=2 note=57 velocity=95 time=0
EXTRACT: note_on channel=4 note=73 velocity=95 time=0
EXTRACT: note_off channel=14 note=33 velocity=111 time=0
EXTRACT: note_on channel=14 note=33 velocity=111 time=0
EXTRACT: note_on channel=9 note=35 velocity=95 time=0
EXTRACT: note_on channel=9 note=44 velocity=95 time=0
EXTRACT: note_off channel=14 note=33 velocity=111 time=0.14150925
EXTRACT: note_on channel=14 note=33 velocity=111 time=0
EXTRACT: note_off channel=9 note=35 velocity=95 time=0
EXTRACT: note_off channel=9 note=44 velocity=95 time=0
EXTRACT: note_off channel=0 note=64 velocity=95 time=0.14150925
EXTRACT: note_on channel=0 note=61 velocity=95 time=0
EXTRACT: note_off channel=14 note=33 velocity=111 time=0
EXTRACT: note_on channel=14 note=33 velocity=111 time=0
EXTRACT: note_on channel=9 note=40 velocity=95 time=0
EXTRACT: note_on channel=9 note=44 velocity=95 time=0
EXTRACT: note_off channel=9 note=40 velocity=95 time=0.14150925
EXTRACT: note_off channel=9 note=44 velocity=95 time=0
EXTRACT: note_off channel=0 note=61 velocity=95 time=0.14150925
EXTRACT: note_on channel=1 note=57 velocity=95 time=0
EXTRACT: note_on channel=9 note=35 velocity=95 time=0
EXTRACT: note_on channel=9 note=44 velocity=95 time=0
EXTRACT: pitchwheel channel=1 pitch=-256 time=0.070754625
EXTRACT: pitchwheel channel=1 pitch=-640 time=0.070754625
EXTRACT: pitchwheel channel=1 pitch=0 time=0
EXTRACT: note_off channel=1 note=57 velocity=95 time=0
EXTRACT: note_on channel=0 note=56 velocity=95 time=0
EXTRACT: note_off channel=6 note=85 velocity=95 time=0
EXTRACT: note_off channel=6 note=81 velocity=95 time=0
EXTRACT: note_off channel=6 note=76 velocity=95 time=0
EXTRACT: note_off channel=14 note=33 velocity=111 time=0
EXTRACT: note_on channel=14 note=40 velocity=111 time=0
EXTRACT: note_off channel=9 note=35 velocity=95 time=0
EXTRACT: note_off channel=9 note=44 velocity=95 time=0
EXTRACT: note_on channel=9 note=0 velocity=95 time=0
EXTRACT: note_on channel=9 note=35 velocity=95 time=0
EXTRACT: note_on channel=9 note=44 velocity=95 time=0
EXTRACT: note_off channel=14 note=40 velocity=111 time=0.14150925
EXTRACT: note_off channel=9 note=0 velocity=95 time=0
EXTRACT: note_off channel=9 note=35 velocity=95 time=0
EXTRACT: note_off channel=9 note=44 velocity=95 time=0
EXTRACT: note_on channel=9 note=0 velocity=95 time=0
EXTRACT: note_on channel=9 note=44 velocity=95 time=0
EXTRACT: note_on channel=6 note=83 velocity=95 time=0.14150925
EXTRACT: note_on channel=6 note=80 velocity=95 time=0
EXTRACT: note_on channel=14 note=40 velocity=111 time=0
EXTRACT: note_off channel=0 note=56 velocity=95 time=0.14150925
EXTRACT: note_on channel=0 note=64 velocity=95 time=0
EXTRACT: note_off channel=6 note=83 velocity=95 time=0
EXTRACT: note_off channel=6 note=80 velocity=95 time=0
EXTRACT: note_off channel=14 note=40 velocity=111 time=0
EXTRACT: note_on channel=14 note=40 velocity=111 time=0
EXTRACT: note_off channel=9 note=0 velocity=95 time=0
EXTRACT: note_off channel=9 note=44 velocity=95 time=0
EXTRACT: note_on channel=9 note=0 velocity=95 time=0
EXTRACT: note_on channel=9 note=35 velocity=95 time=0
EXTRACT: note_on channel=9 note=44 velocity=95 time=0
EXTRACT: note_off channel=2 note=57 velocity=95 time=0.14150925
EXTRACT: note_off channel=9 note=0 velocity=95 time=0
EXTRACT: note_off channel=9 note=35 velocity=95 time=0
EXTRACT: note_off channel=9 note=44 velocity=95 time=0
EXTRACT: note_off channel=0 note=64 velocity=95 time=0.14150925
EXTRACT: note_on channel=0 note=59 velocity=95 time=0
EXTRACT: note_on channel=2 note=56 velocity=95 time=0
EXTRACT: note_off channel=4 note=73 velocity=95 time=0
EXTRACT: note_on channel=4 note=71 velocity=95 time=0
EXTRACT: note_on channel=6 note=83 velocity=95 time=0
EXTRACT: note_on channel=6 note=80 velocity=95 time=0
EXTRACT: note_on channel=9 note=40 velocity=95 time=0
EXTRACT: note_on channel=9 note=44 velocity=95 time=0
EXTRACT: note_off channel=9 note=40 velocity=95 time=0.14150925
EXTRACT: note_off channel=9 note=44 velocity=95 time=0
EXTRACT: note_off channel=0 note=59 velocity=95 time=0.14150925
EXTRACT: note_on channel=1 note=56 velocity=95 time=0
EXTRACT: note_off channel=2 note=56 velocity=95 time=0
EXTRACT: note_on channel=2 note=54 velocity=95 time=0
EXTRACT: note_off channel=4 note=71 velocity=95 time=0
EXTRACT: note_on channel=4 note=69 velocity=95 time=0
EXTRACT: note_off channel=6 note=83 velocity=95 time=0
EXTRACT: note_off channel=6 note=80 velocity=95 time=0
EXTRACT: note_on channel=6 note=76 velocity=95 time=0
EXTRACT: note_on channel=9 note=35 velocity=95 time=0
EXTRACT: note_on channel=9 note=44 velocity=95 time=0
EXTRACT: pitchwheel channel=1 pitch=256 time=0.070754625
EXTRACT: pitchwheel channel=1 pitch=640 time=0.070754625
EXTRACT: pitchwheel channel=1 pitch=0 time=0
EXTRACT: note_off channel=1 note=56 velocity=95 time=0
EXTRACT: note_on channel=0 note=57 velocity=95 time=0
EXTRACT: note_off channel=9 note=35 velocity=95 time=0
EXTRACT: note_off channel=9 note=44 velocity=95 time=0
EXTRACT: note_on channel=9 note=0 velocity=95 time=0
EXTRACT: note_on channel=9 note=35 velocity=95 time=0
EXTRACT: note_on channel=9 note=44 velocity=95 time=0
EXTRACT: note_off channel=6 note=76 velocity=95 time=0.14150925
EXTRACT: note_on channel=6 note=86 velocity=95 time=0
EXTRACT: note_on channel=6 note=81 velocity=95 time=0
EXTRACT: note_on channel=6 note=78 velocity=95 time=0
EXTRACT: note_off channel=14 note=40 velocity=111 time=0
EXTRACT: note_on channel=14 note=38 velocity=111 time=0
EXTRACT: note_off channel=9 note=0 velocity=95 time=0
EXTRACT: note_off channel=9 note=35 velocity=95 time=0
EXTRACT: note_off channel=9 note=44 velocity=95 time=0
EXTRACT: note_on channel=9 note=0 velocity=95 time=0
EXTRACT: note_on channel=9 note=44 velocity=95 time=0
EXTRACT: note_off channel=0 note=57 velocity=95 time=0.2830185
EXTRACT: note_on channel=0 note=66 velocity=95 time=0
EXTRACT: note_off channel=14 note=38 velocity=111 time=0
EXTRACT: note_on channel=14 note=38 velocity=111 time=0
EXTRACT: note_off channel=9 note=0 velocity=95 time=0
EXTRACT: note_off channel=9 note=44 velocity=95 time=0
EXTRACT: note_on channel=9 note=0 velocity=95 time=0
EXTRACT: note_on channel=9 note=35 velocity=95 time=0
EXTRACT: note_on channel=9 note=44 velocity=95 time=0
EXTRACT: note_off channel=14 note=38 velocity=111 time=0.14150925
EXTRACT: note_on channel=14 note=38 velocity=111 time=0
EXTRACT: note_off channel=9 note=0 velocity=95 time=0
EXTRACT: note_off channel=9 note=35 velocity=95 time=0
EXTRACT: note_off channel=9 note=44 velocity=95 time=0
EXTRACT: note_off channel=0 note=66 velocity=95 time=0.14150925
EXTRACT: note_on channel=0 note=62 velocity=95 time=0
EXTRACT: note_off channel=2 note=54 velocity=95 time=0
EXTRACT: note_off channel=4 note=69 velocity=95 time=0
EXTRACT: note_off channel=14 note=38 velocity=111 time=0
EXTRACT: note_on channel=14 note=38 velocity=111 time=0
EXTRACT: note_on channel=9 note=40 velocity=95 time=0
EXTRACT: note_on channel=9 note=44 velocity=95 time=0
EXTRACT: note_off channel=9 note=40 velocity=95 time=0.14150925
EXTRACT: note_off channel=9 note=44 velocity=95 time=0
EXTRACT: note_off channel=0 note=62 velocity=95 time=0.14150925
EXTRACT: note_on channel=1 note=57 velocity=95 time=0
EXTRACT: note_on channel=2 note=52 velocity=95 time=0
EXTRACT: note_on channel=4 note=64 velocity=95 time=0
EXTRACT: note_off channel=6 note=86 velocity=95 time=0
EXTRACT: note_off channel=6 note=81 velocity=95 time=0
EXTRACT: note_off channel=6 note=78 velocity=95 time=0
EXTRACT: note_on channel=9 note=35 velocity=95 time=0
EXTRACT: note_on channel=9 note=44 velocity=95 time=0
EXTRACT: pitchwheel channel=1 pitch=-256 time=0.070754625
EXTRACT: pitchwheel channel=1 pitch=-640 time=0.070754625
EXTRACT: pitchwheel channel=1 pitch=0 time=0
EXTRACT: note_off channel=1 note=57 velocity=95 time=0
EXTRACT: note_on channel=0 note=56 velocity=95 time=0
EXTRACT: note_off channel=2 note=52 velocity=95 time=0
EXTRACT: note_on channel=2 note=52 velocity=95 time=0
EXTRACT: note_off channel=4 note=64 velocity=95 time=0
EXTRACT: note_on channel=4 note=64 velocity=95 time=0
EXTRACT: note_off channel=14 note=38 velocity=111 time=0
EXTRACT: note_on channel=14 note=40 velocity=111 time=0
EXTRACT: note_off channel=9 note=35 velocity=95 time=0
EXTRACT: note_off channel=9 note=44 velocity=95 time=0
EXTRACT: note_on channel=9 note=0 velocity=95 time=0
EXTRACT: note_on channel=9 note=35 velocity=95 time=0
EXTRACT: note_on channel=9 note=44 velocity=95 time=0
EXTRACT: note_off channel=2 note=52 velocity=95 time=0.14150925
EXTRACT: note_on channel=2 note=54 velocity=95 time=0
EXTRACT: note_off channel=4 note=64 velocity=95 time=0
EXTRACT: note_on channel=4 note=66 velocity=95 time=0
EXTRACT: note_off channel=14 note=40 velocity=111 time=0
EXTRACT: note_off channel=9 note=0 velocity=95 time=0
EXTRACT: note_off channel=9 note=35 velocity=95 time=0
EXTRACT: note_off channel=9 note=44 velocity=95 time=0
EXTRACT: note_on channel=9 note=0 velocity=95 time=0
EXTRACT: note_on channel=9 note=44 velocity=95 time=0
EXTRACT: note_off channel=2 note=54 velocity=95 time=0.14150925
EXTRACT: note_on channel=2 note=57 velocity=95 time=0
EXTRACT: note_off channel=4 note=66 velocity=95 time=0
EXTRACT: note_on channel=4 note=69 velocity=95 time=0
EXTRACT: note_on channel=6 note=88 velocity=95 time=0
EXTRACT: note_on channel=6 note=83 velocity=95 time=0
EXTRACT: note_on channel=14 note=40 velocity=111 time=0
EXTRACT: note_off channel=9 note=0 velocity=95 time=0
EXTRACT: note_off channel=9 note=44 velocity=95 time=0
EXTRACT: note_on channel=9 note=35 velocity=95 time=0
EXTRACT: note_off channel=0 note=56 velocity=95 time=0.14150925
EXTRACT: note_on channel=0 note=64 velocity=95 time=0
EXTRACT: note_off channel=6 note=88 velocity=95 time=0
EXTRACT: note_off channel=6 note=83 velocity=95 time=0
EXTRACT: note_off channel=14 note=40 velocity=111 time=0
EXTRACT: note_on channel=14 note=40 velocity=111 time=0
EXTRACT: note_off channel=9 note=35 velocity=95 time=0
EXTRACT: note_on channel=9 note=0 velocity=95 time=0
EXTRACT: note_on channel=9 note=35 velocity=95 time=0
EXTRACT: note_on channel=9 note=44 velocity=95 time=0
EXTRACT: note_off channel=4 note=69 velocity=95 time=0.14150925
EXTRACT: note_on channel=6 note=76 velocity=95 time=0
EXTRACT: note_off channel=9 note=0 velocity=95 time=0
EXTRACT: note_off channel=9 note=35 velocity=95 time=0
EXTRACT: note_off channel=9 note=44 velocity=95 time=0
EXTRACT: note_off channel=0 note=64 velocity=95 time=0.14150925
EXTRACT: note_on channel=0 note=59 velocity=95 time=0
EXTRACT: note_off channel=2 note=57 velocity=95 time=0
EXTRACT: note_on channel=2 note=61 velocity=95 time=0
EXTRACT: note_on channel=4 note=73 velocity=95 time=0
EXTRACT: note_off channel=6 note=76 velocity=95 time=0
EXTRACT: note_on channel=6 note=88 velocity=95 time=0
EXTRACT: note_on channel=6 note=83 velocity=95 time=0
EXTRACT: note_on channel=9 note=40 velocity=95 time=0
EXTRACT: note_on channel=9 note=46 velocity=95 time=0
EXTRACT: note_off channel=0 note=59 velocity=95 time=0.2830185
EXTRACT: note_on channel=1 note=56 velocity=95 time=0
EXTRACT: note_off channel=2 note=61 velocity=95 time=0
EXTRACT: note_on channel=2 note=59 velocity=95 time=0
EXTRACT: note_off channel=4 note=73 velocity=95 time=0
EXTRACT: note_on channel=4 note=71 velocity=95 time=0
EXTRACT: note_off channel=6 note=88 velocity=95 time=0
EXTRACT: note_off channel=6 note=83 velocity=95 time=0
EXTRACT: note_on channel=6 note=76 velocity=95 time=0
EXTRACT: note_off channel=9 note=40 velocity=95 time=0
EXTRACT: note_off channel=9 note=46 velocity=95 time=0
EXTRACT: note_on channel=9 note=35 velocity=95 time=0
EXTRACT: note_on channel=9 note=44 velocity=95 time=0
EXTRACT: pitchwheel channel=1 pitch=256 time=0.070754625
EXTRACT: pitchwheel channel=1 pitch=640 time=0.070754625
EXTRACT: pitchwheel channel=1 pitch=0 time=0
EXTRACT: note_off channel=1 note=56 velocity=95 time=0
EXTRACT: note_on channel=0 note=57 velocity=95 time=0
EXTRACT: note_off channel=2 note=59 velocity=95 time=0
EXTRACT: note_on channel=2 note=57 velocity=95 time=0
EXTRACT: note_off channel=4 note=71 velocity=95 time=0
EXTRACT: note_on channel=4 note=69 velocity=95 time=0
EXTRACT: note_off channel=6 note=76 velocity=95 time=0
EXTRACT: note_off channel=9 note=35 velocity=95 time=0
EXTRACT: note_off channel=9 note=44 velocity=95 time=0
EXTRACT: note_on channel=9 note=0 velocity=95 time=0
EXTRACT: note_on channel=9 note=35 velocity=95 time=0
EXTRACT: note_on channel=9 note=44 velocity=95 time=0
EXTRACT: note_on channel=6 note=85 velocity=95 time=0.14150925
EXTRACT: note_on channel=6 note=81 velocity=95 time=0
EXTRACT: note_off channel=14 note=40 velocity=111 time=0
EXTRACT: note_on channel=14 note=33 velocity=111 time=0
EXTRACT: note_off channel=9 note=0 velocity=95 time=0
EXTRACT: note_off channel=9 note=35 velocity=95 time=0
EXTRACT: note_off channel=9 note=44 velocity=95 time=0
EXTRACT: note_on channel=9 note=0 velocity=95 time=0
EXTRACT: note_on channel=9 note=44 velocity=95 time=0
EXTRACT: note_off channel=0 note=57 velocity=95 time=0.2830185
EXTRACT: note_on channel=0 note=64 velocity=95 time=0
EXTRACT: note_off channel=2 note=57 velocity=95 time=0
EXTRACT: note_on channel=2 note=57 velocity=95 time=0
EXTRACT: note_off channel=4 note=69 velocity=95 time=0
EXTRACT: note_on channel=4 note=69 velocity=95 time=0
EXTRACT: note_off channel=14 note=33 velocity=111 time=0
EXTRACT: note_on channel=14 note=33 velocity=111 time=0
EXTRACT: note_off channel=9 note=0 velocity=95 time=0
EXTRACT: note_off channel=9 note=44 velocity=95 time=0
EXTRACT: note_on channel=9 note=0 velocity=95 time=0
EXTRACT: note_on channel=9 note=35 velocity=95 time=0
EXTRACT: note_on channel=9 note=44 velocity=95 time=0
EXTRACT: note_off channel=14 note=33 velocity=111 time=0.14150925
EXTRACT: note_on channel=14 note=33 velocity=111 time=0
EXTRACT: note_off channel=9 note=0 velocity=95 time=0
EXTRACT: note_off channel=9 note=35 velocity=95 time=0
EXTRACT: note_off channel=9 note=44 velocity=95 time=0
EXTRACT: note_off channel=0 note=64 velocity=95 time=0.14150925
EXTRACT: note_on channel=0 note=61 velocity=95 time=0
EXTRACT: note_off channel=2 note=57 velocity=95 time=0
EXTRACT: note_off channel=4 note=69 velocity=95 time=0
EXTRACT: note_off channel=14 note=33 velocity=111 time=0
EXTRACT: note_on channel=14 note=33 velocity=111 time=0
EXTRACT: note_on channel=9 note=40 velocity=95 time=0
EXTRACT: note_on channel=9 note=44 velocity=95 time=0
EXTRACT: note_off channel=9 note=40 velocity=95 time=0.14150925
EXTRACT: note_off channel=9 note=44 velocity=95 time=0
EXTRACT: note_off channel=0 note=61 velocity=95 time=0.14150925
EXTRACT: note_on channel=1 note=57 velocity=95 time=0
EXTRACT: note_on channel=9 note=35 velocity=95 time=0
EXTRACT: note_on channel=9 note=44 velocity=95 time=0
EXTRACT: pitchwheel channel=1 pitch=-256 time=0.070754625
EXTRACT: pitchwheel channel=1 pitch=-640 time=0.070754625
EXTRACT: pitchwheel channel=1 pitch=0 time=0
EXTRACT: note_off channel=1 note=57 velocity=95 time=0
EXTRACT: note_on channel=0 note=56 velocity=95 time=0
EXTRACT: note_off channel=6 note=85 velocity=95 time=0
EXTRACT: note_off channel=6 note=81 velocity=95 time=0
EXTRACT: note_off channel=14 note=33 velocity=111 time=0
EXTRACT: note_on channel=14 note=40 velocity=111 time=0
EXTRACT: note_off channel=9 note=35 velocity=95 time=0
EXTRACT: note_off channel=9 note=44 velocity=95 time=0
EXTRACT: note_on channel=9 note=0 velocity=95 time=0
EXTRACT: note_on channel=9 note=35 velocity=95 time=0
EXTRACT: note_on channel=9 note=44 velocity=95 time=0
EXTRACT: note_on channel=6 note=83 velocity=95 time=0.14150925
EXTRACT: note_on channel=6 note=80 velocity=95 time=0
EXTRACT: note_off channel=14 note=40 velocity=111 time=0
EXTRACT: note_off channel=9 note=0 velocity=95 time=0
EXTRACT: note_off channel=9 note=35 velocity=95 time=0
EXTRACT: note_off channel=9 note=44 velocity=95 time=0
EXTRACT: note_on channel=9 note=0 velocity=95 time=0
EXTRACT: note_on channel=9 note=44 velocity=95 time=0
EXTRACT: note_on channel=14 note=40 velocity=111 time=0.14150925
EXTRACT: note_off channel=0 note=56 velocity=95 time=0.14150925
EXTRACT: note_on channel=0 note=64 velocity=95 time=0
EXTRACT: note_off channel=14 note=40 velocity=111 time=0
EXTRACT: note_on channel=14 note=40 velocity=111 time=0
EXTRACT: note_off channel=9 note=0 velocity=95 time=0
EXTRACT: note_off channel=9 note=44 velocity=95 time=0
EXTRACT: note_on channel=9 note=0 velocity=95 time=0
EXTRACT: note_on channel=9 note=35 velocity=95 time=0
EXTRACT: note_on channel=9 note=44 velocity=95 time=0
EXTRACT: note_off channel=9 note=0 velocity=95 time=0.14150925
EXTRACT: note_off channel=9 note=35 velocity=95 time=0
EXTRACT: note_off channel=9 note=44 velocity=95 time=0
EXTRACT: note_off channel=0 note=64 velocity=95 time=0.14150925
EXTRACT: note_on channel=0 note=59 velocity=95 time=0
EXTRACT: note_on channel=9 note=40 velocity=95 time=0
EXTRACT: note_on channel=9 note=44 velocity=95 time=0
EXTRACT: note_off channel=9 note=40 velocity=95 time=0.14150925
EXTRACT: note_off channel=9 note=44 velocity=95 time=0
EXTRACT: note_off channel=0 note=59 velocity=95 time=0.14150925
EXTRACT: note_on channel=1 note=56 velocity=95 time=0
EXTRACT: note_off channel=6 note=83 velocity=95 time=0
EXTRACT: note_off channel=6 note=80 velocity=95 time=0
EXTRACT: note_on channel=9 note=35 velocity=95 time=0
EXTRACT: note_on channel=9 note=44 velocity=95 time=0
EXTRACT: pitchwheel channel=1 pitch=256 time=0.070754625
EXTRACT: pitchwheel channel=1 pitch=640 time=0.070754625
EXTRACT: pitchwheel channel=1 pitch=0 time=0
EXTRACT: note_off channel=1 note=56 velocity=95 time=0
EXTRACT: note_on channel=0 note=57 velocity=95 time=0
EXTRACT: note_off channel=9 note=35 velocity=95 time=0
EXTRACT: note_off channel=9 note=44 velocity=95 time=0
EXTRACT: note_on channel=9 note=0 velocity=95 time=0
EXTRACT: note_on channel=9 note=35 velocity=95 time=0
EXTRACT: note_on channel=9 note=44 velocity=95 time=0
EXTRACT: note_on channel=4 note=64 velocity=95 time=0.14150925
EXTRACT: note_on channel=6 note=86 velocity=95 time=0
EXTRACT: note_on channel=6 note=81 velocity=95 time=0
EXTRACT: note_off channel=14 note=40 velocity=111 time=0
EXTRACT: note_on channel=14 note=38 velocity=111 time=0
EXTRACT: note_off channel=9 note=0 velocity=95 time=0
EXTRACT: note_off channel=9 note=35 velocity=95 time=0
EXTRACT: note_off channel=9 note=44 velocity=95 time=0
EXTRACT: note_on channel=9 note=0 velocity=95 time=0
EXTRACT: note_on channel=9 note=44 velocity=95 time=0
EXTRACT: note_off channel=4 note=64 velocity=95 time=0.14150925
EXTRACT: note_on channel=4 note=66 velocity=95 time=0
EXTRACT: note_off channel=9 note=0 velocity=95 time=0
EXTRACT: note_off channel=9 note=44 velocity=95 time=0
EXTRACT: note_on channel=9 note=35 velocity=95 time=0
EXTRACT: note_off channel=0 note=57 velocity=95 time=0.14150925
EXTRACT: note_on channel=0 note=66 velocity=95 time=0
EXTRACT: note_off channel=14 note=38 velocity=111 time=0
EXTRACT: note_on channel=14 note=38 velocity=111 time=0
EXTRACT: note_off channel=9 note=35 velocity=95 time=0
EXTRACT: note_on channel=9 note=0 velocity=95 time=0
EXTRACT: note_on channel=9 note=35 velocity=95 time=0
EXTRACT: note_on channel=9 note=44 velocity=95 time=0
EXTRACT: note_off channel=4 note=66 velocity=95 time=0.14150925
EXTRACT: note_on channel=4 note=69 velocity=95 time=0
EXTRACT: note_off channel=14 note=38 velocity=111 time=0
EXTRACT: note_on channel=14 note=38 velocity=111 time=0
EXTRACT: note_off channel=9 note=0 velocity=95 time=0
EXTRACT: note_off channel=9 note=35 velocity=95 time=0
EXTRACT: note_off channel=9 note=44 velocity=95 time=0
EXTRACT: note_off channel=0 note=66 velocity=95 time=0.14150925
EXTRACT: note_on channel=0 note=62 velocity=95 time=0
EXTRACT: note_off channel=14 note=38 velocity=111 time=0
EXTRACT: note_on channel=14 note=38 velocity=111 time=0
EXTRACT: note_on channel=9 note=40 velocity=95 time=0
EXTRACT: note_on channel=9 note=44 velocity=95 time=0
EXTRACT: note_off channel=9 note=40 velocity=95 time=0.14150925
EXTRACT: note_off channel=9 note=44 velocity=95 time=0
EXTRACT: note_off channel=0 note=62 velocity=95 time=0.14150925
EXTRACT: note_on channel=1 note=57 velocity=95 time=0
EXTRACT: note_off channel=4 note=69 velocity=95 time=0
EXTRACT: note_on channel=4 note=71 velocity=95 time=0
EXTRACT: note_off channel=6 note=86 velocity=95 time=0
EXTRACT: note_off channel=6 note=81 velocity=95 time=0
EXTRACT: note_on channel=9 note=35 velocity=95 time=0
EXTRACT: note_on channel=9 note=44 velocity=95 time=0
EXTRACT: pitchwheel channel=1 pitch=-256 time=0.070754625
EXTRACT: pitchwheel channel=1 pitch=-640 time=0.070754625
EXTRACT: pitchwheel channel=1 pitch=0 time=0
EXTRACT: note_off channel=1 note=57 velocity=95 time=0
EXTRACT: note_on channel=0 note=56 velocity=95 time=0
EXTRACT: note_off channel=4 note=71 velocity=95 time=0
EXTRACT: note_off channel=14 note=38 velocity=111 time=0
EXTRACT: note_on channel=14 note=40 velocity=111 time=0
EXTRACT: note_off channel=9 note=35 velocity=95 time=0
EXTRACT: note_off channel=9 note=44 velocity=95 time=0
EXTRACT: note_on channel=9 note=0 velocity=95 time=0
EXTRACT: note_on channel=9 note=35 velocity=95 time=0
EXTRACT: note_on channel=9 note=44 velocity=95 time=0
EXTRACT: note_on channel=2 note=57 velocity=95 time=0.14150925
EXTRACT: note_on channel=4 note=73 velocity=95 time=0
EXTRACT: note_off channel=14 note=40 velocity=111 time=0
EXTRACT: note_off channel=9 note=0 velocity=95 time=0
EXTRACT: note_off channel=9 note=35 velocity=95 time=0
EXTRACT: note_off channel=9 note=44 velocity=95 time=0
EXTRACT: note_on channel=9 note=0 velocity=95 time=0
EXTRACT: note_on channel=9 note=44 velocity=95 time=0
EXTRACT: note_on channel=6 note=83 velocity=95 time=0.14150925
EXTRACT: note_on channel=6 note=80 velocity=95 time=0
EXTRACT: note_on channel=14 note=40 velocity=111 time=0
EXTRACT: note_off channel=9 note=0 velocity=95 time=0
EXTRACT: note_off channel=9 note=44 velocity=95 time=0
EXTRACT: note_on channel=9 note=0 velocity=95 time=0
EXTRACT: note_on channel=9 note=35 velocity=95 time=0
EXTRACT: note_on channel=9 note=44 velocity=95 time=0
EXTRACT: note_off channel=0 note=56 velocity=95 time=0.14150925
EXTRACT: note_on channel=0 note=64 velocity=95 time=0
EXTRACT: note_off channel=6 note=83 velocity=95 time=0
EXTRACT: note_off channel=6 note=80 velocity=95 time=0
EXTRACT: note_off channel=14 note=40 velocity=111 time=0
EXTRACT: note_on channel=14 note=40 velocity=111 time=0
EXTRACT: note_off channel=9 note=0 velocity=95 time=0
EXTRACT: note_off channel=9 note=35 velocity=95 time=0
EXTRACT: note_off channel=9 note=44 velocity=95 time=0
EXTRACT: note_on channel=9 note=0 velocity=95 time=0
EXTRACT: note_on channel=9 note=40 velocity=95 time=0
EXTRACT: note_on channel=9 note=46 velocity=95 time=0
EXTRACT: note_on channel=6 note=76 velocity=95 time=0.14150925
EXTRACT: note_off channel=9 note=0 velocity=95 time=0
EXTRACT: note_off channel=9 note=40 velocity=95 time=0
EXTRACT: note_off channel=9 note=46 velocity=95 time=0
EXTRACT: note_on channel=9 note=0 velocity=95 time=0
EXTRACT: note_on channel=9 note=40 velocity=95 time=0
EXTRACT: note_off channel=0 note=64 velocity=95 time=0.14150925
EXTRACT: note_on channel=0 note=59 velocity=95 time=0
EXTRACT: note_off channel=2 note=57 velocity=95 time=0
EXTRACT: note_on channel=2 note=56 velocity=95 time=0
EXTRACT: note_off channel=4 note=73 velocity=95 time=0
EXTRACT: note_on channel=4 note=71 velocity=95 time=0
EXTRACT: note_off channel=6 note=76 velocity=95 time=0
EXTRACT: note_on channel=6 note=83 velocity=95 time=0
EXTRACT: note_on channel=6 note=80 velocity=95 time=0
EXTRACT: note_off channel=9 note=0 velocity=95 time=0
EXTRACT: note_off channel=9 note=40 velocity=95 time=0
EXTRACT: note_on channel=9 note=0 velocity=95 time=0
EXTRACT: note_on channel=9 note=40 velocity=95 time=0
EXTRACT: note_on channel=9 note=44 velocity=95 time=0
EXTRACT: note_off channel=2 note=56 velocity=95 time=0.14150925
EXTRACT: note_on channel=2 note=54 velocity=95 time=0
EXTRACT: note_off channel=4 note=71 velocity=95 time=0
EXTRACT: note_on channel=4 note=69 velocity=95 time=0
EXTRACT: note_off channel=9 note=0 velocity=95 time=0
EXTRACT: note_off channel=9 note=40 velocity=95 time=0
EXTRACT: note_off channel=9 note=44 velocity=95 time=0
EXTRACT: note_on channel=9 note=0 velocity=95 time=0
EXTRACT: note_on channel=9 note=40 velocity=95 time=0
EXTRACT: note_on channel=9 note=44 velocity=95 time=0
EXTRACT: note_off channel=0 note=59 velocity=95 time=0.14150925
EXTRACT: note_on channel=0 note=56 velocity=111 time=0
EXTRACT: note_off channel=2 note=54 velocity=95 time=0
EXTRACT: note_on channel=2 note=52 velocity=95 time=0
EXTRACT: note_off channel=4 note=69 velocity=95 time=0
EXTRACT: note_on channel=4 note=66 velocity=95 time=0
EXTRACT: note_off channel=6 note=83 velocity=95 time=0
EXTRACT: note_off channel=6 note=80 velocity=95 time=0
EXTRACT: note_on channel=6 note=76 velocity=95 time=0
EXTRACT: note_off channel=9 note=0 velocity=95 time=0
EXTRACT: note_off channel=9 note=40 velocity=95 time=0
EXTRACT: note_off channel=9 note=44 velocity=95 time=0
EXTRACT: note_on channel=9 note=0 velocity=95 time=0
EXTRACT: note_on channel=9 note=40 velocity=95 time=0
EXTRACT: note_on channel=9 note=43 velocity=95 time=0
EXTRACT: note_on channel=9 note=45 velocity=95 time=0
EXTRACT: note_on channel=9 note=46 velocity=95 time=0
EXTRACT: note_off channel=2 note=52 velocity=95 time=0.14150925
EXTRACT: note_on channel=2 note=56 velocity=95 time=0
EXTRACT: note_off channel=4 note=66 velocity=95 time=0
EXTRACT: note_on channel=4 note=64 velocity=95 time=0
EXTRACT: note_off channel=6 note=76 velocity=95 time=0
EXTRACT: note_off channel=9 note=0 velocity=95 time=0
EXTRACT: note_off channel=9 note=40 velocity=95 time=0
EXTRACT: note_off channel=9 note=43 velocity=95 time=0
EXTRACT: note_off channel=9 note=45 velocity=95 time=0
EXTRACT: note_off channel=9 note=46 velocity=95 time=0
EXTRACT: note_on channel=9 note=0 velocity=95 time=0
EXTRACT: note_on channel=9 note=40 velocity=95 time=0
EXTRACT: note_on channel=9 note=43 velocity=95 time=0
EXTRACT: note_off channel=0 note=56 velocity=111 time=0.14150925
EXTRACT: note_on channel=0 note=64 velocity=111 time=0
EXTRACT: note_on channel=0 note=61 velocity=111 time=0
EXTRACT: note_on channel=0 note=57 velocity=111 time=0
EXTRACT: note_on channel=0 note=52 velocity=111 time=0
EXTRACT: note_on channel=0 note=45 velocity=111 time=0
EXTRACT: note_off channel=2 note=56 velocity=95 time=0
EXTRACT: note_on channel=2 note=61 velocity=95 time=0
EXTRACT: note_off channel=4 note=64 velocity=95 time=0
EXTRACT: note_on channel=4 note=69 velocity=95 time=0
EXTRACT: note_on channel=6 note=85 velocity=95 time=0
EXTRACT: note_on channel=6 note=81 velocity=95 time=0
EXTRACT: note_on channel=6 note=76 velocity=95 time=0
EXTRACT: note_off channel=14 note=40 velocity=111 time=0
EXTRACT: note_on channel=14 note=33 velocity=111 time=0
EXTRACT: note_off channel=9 note=0 velocity=95 time=0
EXTRACT: note_off channel=9 note=40 velocity=95 time=0
EXTRACT: note_off channel=9 note=43 velocity=95 time=0
EXTRACT: note_on channel=9 note=0 velocity=95 time=0
EXTRACT: note_on channel=9 note=35 velocity=95 time=0
EXTRACT: note_on channel=9 note=49 velocity=95 time=0
EXTRACT: note_on channel=9 note=51 velocity=95 time=0
EXTRACT: note_on channel=9 note=56 velocity=95 time=0
EXTRACT: note_on channel=9 note=57 velocity=95 time=0
EXTRACT: note_off channel=9 note=0 velocity=95 time=0.14150925
EXTRACT: note_off channel=9 note=35 velocity=95 time=0
EXTRACT: note_off channel=9 note=49 velocity=95 time=0
EXTRACT: note_off channel=9 note=51 velocity=95 time=0
EXTRACT: note_off channel=9 note=56 velocity=95 time=0
EXTRACT: note_off channel=9 note=57 velocity=95 time=0
EXTRACT: note_off channel=14 note=33 velocity=111 time=0.14150925
EXTRACT: note_on channel=14 note=33 velocity=111 time=0
EXTRACT: note_on channel=9 note=51 velocity=95 time=0
EXTRACT: note_off channel=2 note=61 velocity=95 time=0.14150925
EXTRACT: note_off channel=4 note=69 velocity=95 time=0
EXTRACT: note_off channel=14 note=33 velocity=111 time=0
EXTRACT: note_on channel=14 note=33 velocity=111 time=0
EXTRACT: note_off channel=9 note=51 velocity=95 time=0
EXTRACT: note_off channel=0 note=64 velocity=111 time=0.14150925
EXTRACT: note_off channel=0 note=61 velocity=111 time=0
EXTRACT: note_off channel=0 note=57 velocity=111 time=0
EXTRACT: note_off channel=0 note=52 velocity=111 time=0
EXTRACT: note_off channel=0 note=45 velocity=111 time=0
EXTRACT: note_on channel=0 note=64 velocity=111 time=0
EXTRACT: note_on channel=0 note=61 velocity=95 time=0
EXTRACT: note_on channel=0 note=57 velocity=95 time=0
EXTRACT: note_on channel=0 note=52 velocity=95 time=0
EXTRACT: note_on channel=0 note=45 velocity=111 time=0
EXTRACT: note_on channel=2 note=61 velocity=95 time=0
EXTRACT: note_on channel=4 note=69 velocity=95 time=0
EXTRACT: note_off channel=14 note=33 velocity=111 time=0
EXTRACT: note_on channel=14 note=33 velocity=111 time=0
EXTRACT: note_on channel=9 note=40 velocity=95 time=0
EXTRACT: note_on channel=9 note=56 velocity=95 time=0
EXTRACT: note_on channel=9 note=59 velocity=95 time=0
EXTRACT: note_off channel=2 note=61 velocity=95 time=0.14150925
EXTRACT: note_off channel=9 note=40 velocity=95 time=0
EXTRACT: note_off channel=9 note=56 velocity=95 time=0
EXTRACT: note_off channel=9 note=59 velocity=95 time=0
EXTRACT: note_off channel=0 note=64 velocity=111 time=0.14150925
EXTRACT: note_off channel=0 note=61 velocity=95 time=0
EXTRACT: note_off channel=0 note=57 velocity=95 time=0
EXTRACT: note_off channel=0 note=52 velocity=95 time=0
EXTRACT: note_off channel=0 note=45 velocity=111 time=0
EXTRACT: note_off channel=4 note=69 velocity=95 time=0
EXTRACT: note_on channel=9 note=35 velocity=95 time=0
EXTRACT: note_on channel=9 note=53 velocity=95 time=0
EXTRACT: note_off channel=9 note=35 velocity=95 time=0.14150925
EXTRACT: note_off channel=9 note=53 velocity=95 time=0
EXTRACT: note_on channel=9 note=0 velocity=95 time=0
EXTRACT: note_on channel=9 note=40 velocity=95 time=0
EXTRACT: note_on channel=9 note=59 velocity=95 time=0
EXTRACT: note_off channel=14 note=33 velocity=111 time=0.14150925
EXTRACT: note_off channel=9 note=0 velocity=95 time=0
EXTRACT: note_off channel=9 note=40 velocity=95 time=0
EXTRACT: note_off channel=9 note=59 velocity=95 time=0
EXTRACT: note_on channel=9 note=0 velocity=95 time=0
EXTRACT: note_on channel=9 note=35 velocity=95 time=0
EXTRACT: note_on channel=9 note=51 velocity=95 time=0
EXTRACT: note_on channel=9 note=56 velocity=95 time=0
EXTRACT: note_off channel=6 note=85 velocity=95 time=0.14150925
EXTRACT: note_off channel=6 note=81 velocity=95 time=0
EXTRACT: note_off channel=6 note=76 velocity=95 time=0
EXTRACT: note_on channel=6 note=76 velocity=95 time=0
EXTRACT: note_on channel=14 note=33 velocity=111 time=0
EXTRACT: note_off channel=9 note=0 velocity=95 time=0
EXTRACT: note_off channel=9 note=35 velocity=95 time=0
EXTRACT: note_off channel=9 note=51 velocity=95 time=0
EXTRACT: note_off channel=9 note=56 velocity=95 time=0
EXTRACT: note_on channel=9 note=0 velocity=95 time=0
EXTRACT: note_on channel=9 note=59 velocity=95 time=0
EXTRACT: note_on channel=0 note=64 velocity=111 time=0.14150925
EXTRACT: note_on channel=0 note=61 velocity=111 time=0
EXTRACT: note_on channel=0 note=57 velocity=111 time=0
EXTRACT: note_on channel=0 note=52 velocity=111 time=0
EXTRACT: note_on channel=0 note=45 velocity=111 time=0
EXTRACT: note_on channel=2 note=61 velocity=95 time=0
EXTRACT: note_on channel=4 note=69 velocity=95 time=0
EXTRACT: note_off channel=6 note=76 velocity=95 time=0
EXTRACT: note_on channel=6 note=85 velocity=95 time=0
EXTRACT: note_on channel=6 note=81 velocity=95 time=0
EXTRACT: note_on channel=6 note=76 velocity=95 time=0
EXTRACT: note_off channel=9 note=0 velocity=95 time=0
EXTRACT: note_off channel=9 note=59 velocity=95 time=0
EXTRACT: note_on channel=9 note=0 velocity=95 time=0
EXTRACT: note_on channel=9 note=35 velocity=95 time=0
EXTRACT: note_on channel=9 note=51 velocity=95 time=0
EXTRACT: note_off channel=0 note=64 velocity=111 time=0.14150925
EXTRACT: note_off channel=0 note=61 velocity=111 time=0
EXTRACT: note_off channel=0 note=57 velocity=111 time=0
EXTRACT: note_off channel=0 note=52 velocity=111 time=0
EXTRACT: note_off channel=0 note=45 velocity=111 time=0
EXTRACT: note_off channel=2 note=61 velocity=95 time=0
EXTRACT: note_off channel=4 note=69 velocity=95 time=0
EXTRACT: note_off channel=6 note=85 velocity=95 time=0
EXTRACT: note_off channel=6 note=81 velocity=95 time=0
EXTRACT: note_off channel=6 note=76 velocity=95 time=0
EXTRACT: note_off channel=9 note=0 velocity=95 time=0
EXTRACT: note_off channel=9 note=35 velocity=95 time=0
EXTRACT: note_off channel=9 note=51 velocity=95 time=0
EXTRACT: note_on channel=9 note=0 velocity=95 time=0
EXTRACT: note_on channel=9 note=51 velocity=95 time=0
EXTRACT: note_on channel=0 note=64 velocity=111 time=0.14150925
EXTRACT: note_on channel=0 note=59 velocity=95 time=0
EXTRACT: note_on channel=0 note=55 velocity=95 time=0
EXTRACT: note_on channel=0 note=50 velocity=95 time=0
EXTRACT: note_off channel=14 note=33 velocity=111 time=0
EXTRACT: note_off channel=9 note=0 velocity=95 time=0
EXTRACT: note_off channel=9 note=51 velocity=95 time=0
EXTRACT: note_on channel=9 note=0 velocity=95 time=0
EXTRACT: note_on channel=9 note=40 velocity=95 time=0
EXTRACT: note_on channel=9 note=56 velocity=95 time=0
EXTRACT: note_on channel=9 note=59 velocity=95 time=0
EXTRACT: note_off channel=0 note=64 velocity=111 time=0.031249959375
EXTRACT: note_off channel=0 note=59 velocity=95 time=0
EXTRACT: note_off channel=0 note=55 velocity=95 time=0
EXTRACT: note_off channel=0 note=50 velocity=95 time=0
EXTRACT: note_on channel=0 note=64 velocity=111 time=0.110259290625
EXTRACT: note_on channel=0 note=61 velocity=111 time=0
EXTRACT: note_on channel=0 note=57 velocity=111 time=0
EXTRACT: note_on channel=0 note=52 velocity=111 time=0
EXTRACT: note_on channel=2 note=61 velocity=95 time=0
EXTRACT: note_on channel=4 note=69 velocity=95 time=0
EXTRACT: note_on channel=6 note=76 velocity=95 time=0
EXTRACT: note_on channel=14 note=33 velocity=111 time=0
EXTRACT: note_off channel=9 note=0 velocity=95 time=0
EXTRACT: note_off channel=9 note=40 velocity=95 time=0
EXTRACT: note_off channel=9 note=56 velocity=95 time=0
EXTRACT: note_off channel=9 note=59 velocity=95 time=0
EXTRACT: note_off channel=0 note=64 velocity=111 time=0.14150925
EXTRACT: note_off channel=0 note=61 velocity=111 time=0
EXTRACT: note_off channel=0 note=57 velocity=111 time=0
EXTRACT: note_off channel=0 note=52 velocity=111 time=0
EXTRACT: note_off channel=2 note=61 velocity=95 time=0
EXTRACT: note_on channel=2 note=61 velocity=95 time=0
EXTRACT: note_off channel=4 note=69 velocity=95 time=0
EXTRACT: note_on channel=4 note=69 velocity=95 time=0
EXTRACT: note_off channel=6 note=76 velocity=95 time=0
EXTRACT: note_on channel=6 note=85 velocity=95 time=0
EXTRACT: note_on channel=6 note=81 velocity=95 time=0
EXTRACT: note_on channel=9 note=35 velocity=95 time=0
EXTRACT: note_on channel=9 note=51 velocity=95 time=0
EXTRACT: note_off channel=2 note=61 velocity=95 time=0.14150925
EXTRACT: note_off channel=4 note=69 velocity=95 time=0
EXTRACT: note_off channel=6 note=85 velocity=95 time=0
EXTRACT: note_off channel=6 note=81 velocity=95 time=0
EXTRACT: note_off channel=9 note=35 velocity=95 time=0
EXTRACT: note_off channel=9 note=51 velocity=95 time=0
EXTRACT: note_on channel=9 note=0 velocity=95 time=0
EXTRACT: note_on channel=9 note=51 velocity=95 time=0
EXTRACT: note_on channel=0 note=66 velocity=111 time=0.14150925
EXTRACT: note_on channel=0 note=62 velocity=111 time=0
EXTRACT: note_on channel=0 note=57 velocity=111 time=0
EXTRACT: note_on channel=0 note=50 velocity=111 time=0
EXTRACT: note_on channel=2 note=62 velocity=95 time=0
EXTRACT: note_on channel=4 note=66 velocity=95 time=0
EXTRACT: note_on channel=6 note=86 velocity=95 time=0
EXTRACT: note_on channel=6 note=81 velocity=95 time=0
EXTRACT: note_on channel=6 note=78 velocity=95 time=0
EXTRACT: note_off channel=14 note=33 velocity=111 time=0
EXTRACT: note_on channel=14 note=38 velocity=111 time=0
EXTRACT: note_off channel=9 note=0 velocity=95 time=0
EXTRACT: note_off channel=9 note=51 velocity=95 time=0
EXTRACT: note_on channel=9 note=0 velocity=95 time=0
EXTRACT: note_on channel=9 note=35 velocity=95 time=0
EXTRACT: note_on channel=9 note=51 velocity=95 time=0
EXTRACT: note_on channel=9 note=56 velocity=95 time=0
EXTRACT: note_off channel=9 note=0 velocity=95 time=0.14150925
EXTRACT: note_off channel=9 note=35 velocity=95 time=0
EXTRACT: note_off channel=9 note=51 velocity=95 time=0
EXTRACT: note_off channel=9 note=56 velocity=95 time=0
EXTRACT: note_off channel=14 note=38 velocity=111 time=0.14150925
EXTRACT: note_on channel=14 note=38 velocity=111 time=0
EXTRACT: note_on channel=9 note=51 velocity=95 time=0
EXTRACT: note_off channel=2 note=62 velocity=95 time=0.14150925
EXTRACT: note_off channel=4 note=66 velocity=95 time=0
EXTRACT: note_off channel=14 note=38 velocity=111 time=0
EXTRACT: note_on channel=14 note=38 velocity=111 time=0
EXTRACT: note_off channel=9 note=51 velocity=95 time=0
EXTRACT: note_off channel=0 note=66 velocity=111 time=0.14150925
EXTRACT: note_off channel=0 note=62 velocity=111 time=0
EXTRACT: note_off channel=0 note=57 velocity=111 time=0
EXTRACT: note_off channel=0 note=50 velocity=111 time=0
EXTRACT: note_on channel=0 note=66 velocity=111 time=0
EXTRACT: note_on channel=0 note=62 velocity=95 time=0
EXTRACT: note_on channel=0 note=57 velocity=95 time=0
EXTRACT: note_on channel=0 note=50 velocity=111 time=0
EXTRACT: note_on channel=2 note=62 velocity=95 time=0
EXTRACT: note_on channel=4 note=66 velocity=95 time=0
EXTRACT: note_off channel=14 note=38 velocity=111 time=0
EXTRACT: note_on channel=14 note=38 velocity=111 time=0
EXTRACT: note_on channel=9 note=40 velocity=95 time=0
EXTRACT: note_on channel=9 note=56 velocity=95 time=0
EXTRACT: note_on channel=9 note=59 velocity=95 time=0
EXTRACT: note_off channel=2 note=62 velocity=95 time=0.14150925
EXTRACT: note_off channel=9 note=40 velocity=95 time=0
EXTRACT: note_off channel=9 note=56 velocity=95 time=0
EXTRACT: note_off channel=9 note=59 velocity=95 time=0
EXTRACT: note_off channel=0 note=66 velocity=111 time=0.14150925
EXTRACT: note_off channel=0 note=62 velocity=95 time=0
EXTRACT: note_off channel=0 note=57 velocity=95 time=0
EXTRACT: note_off channel=0 note=50 velocity=111 time=0
EXTRACT: note_off channel=4 note=66 velocity=95 time=0
EXTRACT: note_on channel=9 note=53 velocity=95 time=0
EXTRACT: note_off channel=14 note=38 velocity=111 time=0.14150925
EXTRACT: note_on channel=14 note=38 velocity=111 time=0
EXTRACT: note_off channel=9 note=53 velocity=95 time=0
EXTRACT: note_on channel=9 note=0 velocity=95 time=0
EXTRACT: note_on channel=9 note=30 velocity=95 time=0
EXTRACT: note_on channel=9 note=35 velocity=95 time=0
EXTRACT: note_on channel=9 note=59 velocity=95 time=0
EXTRACT: note_on channel=2 note=66 velocity=95 time=0.14150925
EXTRACT: note_on channel=4 note=74 velocity=95 time=0
EXTRACT: note_off channel=6 note=86 velocity=95 time=0
EXTRACT: note_off channel=6 note=81 velocity=95 time=0
EXTRACT: note_off channel=6 note=78 velocity=95 time=0
EXTRACT: note_off channel=14 note=38 velocity=111 time=0
EXTRACT: note_off channel=9 note=0 velocity=95 time=0
EXTRACT: note_off channel=9 note=30 velocity=95 time=0
EXTRACT: note_off channel=9 note=35 velocity=95 time=0
EXTRACT: note_off channel=9 note=59 velocity=95 time=0
EXTRACT: note_on channel=9 note=0 velocity=95 time=0
EXTRACT: note_on channel=9 note=29 velocity=95 time=0
EXTRACT: note_on channel=9 note=35 velocity=95 time=0
EXTRACT: note_on channel=9 note=51 velocity=95 time=0
EXTRACT: note_on channel=9 note=56 velocity=95 time=0
EXTRACT: note_off channel=2 note=66 velocity=95 time=0.14150925
EXTRACT: note_on channel=2 note=66 velocity=95 time=0
EXTRACT: note_off channel=4 note=74 velocity=95 time=0
EXTRACT: note_on channel=4 note=74 velocity=95 time=0
EXTRACT: note_off channel=9 note=0 velocity=95 time=0
EXTRACT: note_off channel=9 note=29 velocity=95 time=0
EXTRACT: note_off channel=9 note=35 velocity=95 time=0
EXTRACT: note_off channel=9 note=51 velocity=95 time=0
EXTRACT: note_off channel=9 note=56 velocity=95 time=0
EXTRACT: note_on channel=9 note=0 velocity=95 time=0
EXTRACT: note_on channel=9 note=30 velocity=95 time=0
EXTRACT: note_on channel=9 note=35 velocity=95 time=0
EXTRACT: note_on channel=9 note=59 velocity=95 time=0
EXTRACT: note_on channel=0 note=66 velocity=111 time=0.14150925
EXTRACT: note_on channel=0 note=62 velocity=95 time=0
EXTRACT: note_on channel=0 note=57 velocity=95 time=0
EXTRACT: note_on channel=0 note=50 velocity=111 time=0
EXTRACT: note_off channel=2 note=66 velocity=95 time=0
EXTRACT: note_on channel=2 note=64 velocity=95 time=0
EXTRACT: note_off channel=4 note=74 velocity=95 time=0
EXTRACT: note_on channel=4 note=73 velocity=95 time=0
EXTRACT: note_on channel=6 note=86 velocity=95 time=0
EXTRACT: note_on channel=6 note=81 velocity=95 time=0
EXTRACT: note_on channel=14 note=45 velocity=111 time=0
EXTRACT: note_off channel=9 note=0 velocity=95 time=0
EXTRACT: note_off channel=9 note=30 velocity=95 time=0
EXTRACT: note_off channel=9 note=35 velocity=95 time=0
EXTRACT: note_off channel=9 note=59 velocity=95 time=0
EXTRACT: note_on channel=9 note=0 velocity=95 time=0
EXTRACT: note_on channel=9 note=30 velocity=95 time=0
EXTRACT: note_on channel=9 note=35 velocity=95 time=0
EXTRACT: note_on channel=9 note=51 velocity=95 time=0
EXTRACT: note_off channel=0 note=66 velocity=111 time=0.14150925
EXTRACT: note_off channel=0 note=62 velocity=95 time=0
EXTRACT: note_off channel=0 note=57 velocity=95 time=0
EXTRACT: note_off channel=0 note=50 velocity=111 time=0
EXTRACT: note_off channel=2 note=64 velocity=95 time=0
EXTRACT: note_off channel=4 note=73 velocity=95 time=0
EXTRACT: note_off channel=6 note=86 velocity=95 time=0
EXTRACT: note_off channel=6 note=81 velocity=95 time=0
EXTRACT: note_off channel=9 note=0 velocity=95 time=0
EXTRACT: note_off channel=9 note=30 velocity=95 time=0
EXTRACT: note_off channel=9 note=35 velocity=95 time=0
EXTRACT: note_off channel=9 note=51 velocity=95 time=0
EXTRACT: note_on channel=9 note=0 velocity=95 time=0
EXTRACT: note_on channel=9 note=51 velocity=95 time=0
EXTRACT: note_on channel=0 note=64 velocity=111 time=0.14150925
EXTRACT: note_on channel=0 note=59 velocity=95 time=0
EXTRACT: note_on channel=0 note=55 velocity=95 time=0
EXTRACT: note_on channel=0 note=50 velocity=95 time=0
EXTRACT: note_off channel=14 note=45 velocity=111 time=0
EXTRACT: note_on channel=14 note=49 velocity=111 time=0
EXTRACT: note_off channel=9 note=0 velocity=95 time=0
EXTRACT: note_off channel=9 note=51 velocity=95 time=0
EXTRACT: note_on channel=9 note=0 velocity=95 time=0
EXTRACT: note_on channel=9 note=30 velocity=95 time=0
EXTRACT: note_on channel=9 note=40 velocity=95 time=0
EXTRACT: note_on channel=9 note=56 velocity=95 time=0
EXTRACT: note_on channel=9 note=59 velocity=95 time=0
EXTRACT: note_off channel=0 note=64 velocity=111 time=0.031249959375
EXTRACT: note_off channel=0 note=59 velocity=95 time=0
EXTRACT: note_off channel=0 note=55 velocity=95 time=0
EXTRACT: note_off channel=0 note=50 velocity=95 time=0
EXTRACT: note_on channel=0 note=66 velocity=111 time=0.110259290625
EXTRACT: note_on channel=0 note=62 velocity=111 time=0
EXTRACT: note_on channel=0 note=57 velocity=111 time=0
EXTRACT: note_on channel=2 note=62 velocity=95 time=0
EXTRACT: note_on channel=4 note=71 velocity=95 time=0
EXTRACT: note_on channel=6 note=78 velocity=95 time=0
EXTRACT: note_off channel=9 note=0 velocity=95 time=0
EXTRACT: note_off channel=9 note=30 velocity=95 time=0
EXTRACT: note_off channel=9 note=40 velocity=95 time=0
EXTRACT: note_off channel=9 note=56 velocity=95 time=0
EXTRACT: note_off channel=9 note=59 velocity=95 time=0
EXTRACT: note_off channel=0 note=66 velocity=111 time=0.14150925
EXTRACT: note_off channel=0 note=62 velocity=111 time=0
EXTRACT: note_off channel=0 note=57 velocity=111 time=0
EXTRACT: note_off channel=6 note=78 velocity=95 time=0
EXTRACT: note_on channel=6 note=86 velocity=95 time=0
EXTRACT: note_on channel=6 note=81 velocity=95 time=0
EXTRACT: note_off channel=14 note=49 velocity=111 time=0
EXTRACT: note_on channel=14 note=50 velocity=111 time=0
EXTRACT: note_on channel=9 note=29 velocity=95 time=0
EXTRACT: note_on channel=9 note=35 velocity=95 time=0
EXTRACT: note_on channel=9 note=53 velocity=95 time=0
EXTRACT: note_off channel=2 note=62 velocity=95 time=0.14150925
EXTRACT: note_off channel=4 note=71 velocity=95 time=0
EXTRACT: note_off channel=6 note=86 velocity=95 time=0
EXTRACT: note_off channel=6 note=81 velocity=95 time=0
EXTRACT: note_off channel=9 note=29 velocity=95 time=0
EXTRACT: note_off channel=9 note=35 velocity=95 time=0
EXTRACT: note_off channel=9 note=53 velocity=95 time=0
EXTRACT: note_on channel=9 note=0 velocity=95 time=0
EXTRACT: note_on channel=9 note=30 velocity=95 time=0
EXTRACT: note_on channel=9 note=59 velocity=95 time=0
EXTRACT: note_on channel=0 note=64 velocity=111 time=0.14150925
EXTRACT: note_on channel=0 note=61 velocity=111 time=0
EXTRACT: note_on channel=0 note=57 velocity=111 time=0
EXTRACT: note_on channel=0 note=52 velocity=111 time=0
EXTRACT: note_on channel=0 note=45 velocity=111 time=0
EXTRACT: note_on channel=2 note=61 velocity=95 time=0
EXTRACT: note_on channel=4 note=69 velocity=95 time=0
EXTRACT: note_on channel=6 note=85 velocity=95 time=0
EXTRACT: note_on channel=6 note=81 velocity=95 time=0
EXTRACT: note_on channel=6 note=76 velocity=95 time=0
EXTRACT: note_off channel=14 note=50 velocity=111 time=0
EXTRACT: note_on channel=14 note=33 velocity=111 time=0
EXTRACT: note_off channel=9 note=0 velocity=95 time=0
EXTRACT: note_off channel=9 note=30 velocity=95 time=0
EXTRACT: note_off channel=9 note=59 velocity=95 time=0
EXTRACT: note_on channel=9 note=0 velocity=95 time=0
EXTRACT: note_on channel=9 note=35 velocity=95 time=0
EXTRACT: note_on channel=9 note=51 velocity=95 time=0
EXTRACT: note_on channel=9 note=56 velocity=95 time=0
EXTRACT: note_off channel=9 note=0 velocity=95 time=0.14150925
EXTRACT: note_off channel=9 note=35 velocity=95 time=0
EXTRACT: note_off channel=9 note=51 velocity=95 time=0
EXTRACT: note_off channel=9 note=56 velocity=95 time=0
EXTRACT: note_off channel=14 note=33 velocity=111 time=0.14150925
EXTRACT: note_on channel=14 note=33 velocity=111 time=0
EXTRACT: note_on channel=9 note=35 velocity=95 time=0
EXTRACT: note_on channel=9 note=51 velocity=95 time=0
EXTRACT: note_off channel=2 note=61 velocity=95 time=0.14150925
EXTRACT: note_off channel=4 note=69 velocity=95 time=0
EXTRACT: note_off channel=14 note=33 velocity=111 time=0
EXTRACT: note_on channel=14 note=33 velocity=111 time=0
EXTRACT: note_off channel=9 note=35 velocity=95 time=0
EXTRACT: note_off channel=9 note=51 velocity=95 time=0
EXTRACT: note_off channel=0 note=64 velocity=111 time=0.14150925
EXTRACT: note_off channel=0 note=61 velocity=111 time=0
EXTRACT: note_off channel=0 note=57 velocity=111 time=0
EXTRACT: note_off channel=0 note=52 velocity=111 time=0
EXTRACT: note_off channel=0 note=45 velocity=111 time=0
EXTRACT: note_on channel=0 note=64 velocity=111 time=0
EXTRACT: note_on channel=0 note=61 velocity=95 time=0
EXTRACT: note_on channel=0 note=57 velocity=95 time=0
EXTRACT: note_on channel=0 note=52 velocity=95 time=0
EXTRACT: note_on channel=0 note=45 velocity=111 time=0
EXTRACT: note_on channel=2 note=61 velocity=95 time=0
EXTRACT: note_on channel=4 note=69 velocity=95 time=0
EXTRACT: note_off channel=14 note=33 velocity=111 time=0
EXTRACT: note_on channel=14 note=33 velocity=111 time=0
EXTRACT: note_on channel=9 note=40 velocity=95 time=0
EXTRACT: note_on channel=9 note=56 velocity=95 time=0
EXTRACT: note_on channel=9 note=59 velocity=95 time=0
EXTRACT: note_off channel=2 note=61 velocity=95 time=0.14150925
EXTRACT: note_off channel=9 note=40 velocity=95 time=0
EXTRACT: note_off channel=9 note=56 velocity=95 time=0
EXTRACT: note_off channel=9 note=59 velocity=95 time=0
EXTRACT: note_off channel=0 note=64 velocity=111 time=0.14150925
EXTRACT: note_off channel=0 note=61 velocity=95 time=0
EXTRACT: note_off channel=0 note=57 velocity=95 time=0
EXTRACT: note_off channel=0 note=52 velocity=95 time=0
EXTRACT: note_off channel=0 note=45 velocity=111 time=0
EXTRACT: note_off channel=4 note=69 velocity=95 time=0
EXTRACT: note_on channel=9 note=35 velocity=95 time=0
EXTRACT: note_on channel=9 note=53 velocity=95 time=0
EXTRACT: note_off channel=14 note=33 velocity=111 time=0.14150925
EXTRACT: note_on channel=14 note=33 velocity=111 time=0
EXTRACT: note_off channel=9 note=35 velocity=95 time=0
EXTRACT: note_off channel=9 note=53 velocity=95 time=0
EXTRACT: note_on channel=9 note=0 velocity=95 time=0
EXTRACT: note_on channel=9 note=40 velocity=95 time=0
EXTRACT: note_on channel=9 note=59 velocity=95 time=0
EXTRACT: note_off channel=6 note=85 velocity=95 time=0.14150925
EXTRACT: note_off channel=6 note=81 velocity=95 time=0
EXTRACT: note_off channel=6 note=76 velocity=95 time=0
EXTRACT: note_off channel=14 note=33 velocity=111 time=0
EXTRACT: note_off channel=9 note=0 velocity=95 time=0
EXTRACT: note_off channel=9 note=40 velocity=95 time=0
EXTRACT: note_off channel=9 note=59 velocity=95 time=0
EXTRACT: note_on channel=9 note=0 velocity=95 time=0
EXTRACT: note_on channel=9 note=35 velocity=95 time=0
EXTRACT: note_on channel=9 note=51 velocity=95 time=0
EXTRACT: note_on channel=9 note=56 velocity=95 time=0
EXTRACT: note_off channel=9 note=0 velocity=95 time=0.14150925
EXTRACT: note_off channel=9 note=35 velocity=95 time=0
EXTRACT: note_off channel=9 note=51 velocity=95 time=0
EXTRACT: note_off channel=9 note=56 velocity=95 time=0
EXTRACT: note_on channel=9 note=0 velocity=95 time=0
EXTRACT: note_on channel=9 note=35 velocity=95 time=0
EXTRACT: note_on channel=9 note=59 velocity=95 time=0
EXTRACT: note_on channel=0 note=64 velocity=111 time=0.14150925
EXTRACT: note_on channel=0 note=61 velocity=111 time=0
EXTRACT: note_on channel=0 note=57 velocity=111 time=0
EXTRACT: note_on channel=0 note=52 velocity=111 time=0
EXTRACT: note_on channel=0 note=45 velocity=111 time=0
EXTRACT: note_on channel=2 note=61 velocity=95 time=0
EXTRACT: note_on channel=4 note=69 velocity=95 time=0
EXTRACT: note_on channel=6 note=85 velocity=95 time=0
EXTRACT: note_on channel=6 note=81 velocity=95 time=0
EXTRACT: note_on channel=14 note=40 velocity=111 time=0
EXTRACT: note_off channel=9 note=0 velocity=95 time=0
EXTRACT: note_off channel=9 note=35 velocity=95 time=0
EXTRACT: note_off channel=9 note=59 velocity=95 time=0
EXTRACT: note_on channel=9 note=0 velocity=95 time=0
EXTRACT: note_on channel=9 note=35 velocity=95 time=0
EXTRACT: note_on channel=9 note=51 velocity=95 time=0
EXTRACT: note_off channel=0 note=64 velocity=111 time=0.14150925
EXTRACT: note_off channel=0 note=61 velocity=111 time=0
EXTRACT: note_off channel=0 note=57 velocity=111 time=0
EXTRACT: note_off channel=0 note=52 velocity=111 time=0
EXTRACT: note_off channel=0 note=45 velocity=111 time=0
EXTRACT: note_off channel=2 note=61 velocity=95 time=0
EXTRACT: note_off channel=4 note=69 velocity=95 time=0
EXTRACT: note_off channel=6 note=85 velocity=95 time=0
EXTRACT: note_off channel=6 note=81 velocity=95 time=0
EXTRACT: note_off channel=9 note=0 velocity=95 time=0
EXTRACT: note_off channel=9 note=35 velocity=95 time=0
EXTRACT: note_off channel=9 note=51 velocity=95 time=0
EXTRACT: note_on channel=0 note=64 velocity=111 time=0.14150925
EXTRACT: note_on channel=0 note=59 velocity=95 time=0
EXTRACT: note_on channel=0 note=55 velocity=95 time=0
EXTRACT: note_on channel=0 note=50 velocity=95 time=0
EXTRACT: note_off channel=14 note=40 velocity=111 time=0
EXTRACT: note_on channel=14 note=44 velocity=111 time=0
EXTRACT: note_on channel=9 note=35 velocity=95 time=0
EXTRACT: note_on channel=9 note=56 velocity=95 time=0
EXTRACT: note_on channel=9 note=59 velocity=95 time=0
EXTRACT: note_off channel=0 note=64 velocity=111 time=0.031249959375
EXTRACT: note_off channel=0 note=59 velocity=95 time=0
EXTRACT: note_off channel=0 note=55 velocity=95 time=0
EXTRACT: note_off channel=0 note=50 velocity=95 time=0
EXTRACT: note_on channel=0 note=64 velocity=111 time=0.110259290625
EXTRACT: note_on channel=0 note=61 velocity=111 time=0
EXTRACT: note_on channel=0 note=57 velocity=111 time=0
EXTRACT: note_on channel=0 note=52 velocity=111 time=0
EXTRACT: note_on channel=2 note=61 velocity=95 time=0
EXTRACT: note_on channel=4 note=69 velocity=95 time=0
EXTRACT: note_on channel=6 note=76 velocity=95 time=0
EXTRACT: note_off channel=9 note=35 velocity=95 time=0
EXTRACT: note_off channel=9 note=56 velocity=95 time=0
EXTRACT: note_off channel=9 note=59 velocity=95 time=0
EXTRACT: note_off channel=0 note=64 velocity=111 time=0.14150925
EXTRACT: note_off channel=0 note=61 velocity=111 time=0
EXTRACT: note_off channel=0 note=57 velocity=111 time=0
EXTRACT: note_off channel=0 note=52 velocity=111 time=0
EXTRACT: note_off channel=2 note=61 velocity=95 time=0
EXTRACT: note_on channel=2 note=61 velocity=95 time=0
EXTRACT: note_off channel=4 note=69 velocity=95 time=0
EXTRACT: note_on channel=4 note=69 velocity=95 time=0
EXTRACT: note_off channel=6 note=76 velocity=95 time=0
EXTRACT: note_on channel=6 note=85 velocity=95 time=0
EXTRACT: note_on channel=6 note=81 velocity=95 time=0
EXTRACT: note_off channel=14 note=44 velocity=111 time=0
EXTRACT: note_on channel=14 note=45 velocity=111 time=0
EXTRACT: note_on channel=9 note=40 velocity=95 time=0
EXTRACT: note_on channel=9 note=51 velocity=95 time=0
EXTRACT: note_off channel=2 note=61 velocity=95 time=0.14150925
EXTRACT: note_off channel=4 note=69 velocity=95 time=0
EXTRACT: note_off channel=6 note=85 velocity=95 time=0
EXTRACT: note_off channel=6 note=81 velocity=95 time=0
EXTRACT: note_off channel=9 note=40 velocity=95 time=0
EXTRACT: note_off channel=9 note=51 velocity=95 time=0
EXTRACT: note_on channel=9 note=0 velocity=95 time=0
EXTRACT: note_on channel=9 note=59 velocity=95 time=0
EXTRACT: note_on channel=0 note=64 velocity=111 time=0.14150925
EXTRACT: note_on channel=0 note=59 velocity=111 time=0
EXTRACT: note_on channel=0 note=56 velocity=111 time=0
EXTRACT: note_on channel=0 note=52 velocity=111 time=0
EXTRACT: note_on channel=0 note=47 velocity=111 time=0
EXTRACT: note_on channel=0 note=40 velocity=111 time=0
EXTRACT: note_on channel=2 note=59 velocity=95 time=0
EXTRACT: note_on channel=4 note=68 velocity=95 time=0
EXTRACT: note_on channel=6 note=83 velocity=95 time=0
EXTRACT: note_on channel=6 note=80 velocity=95 time=0
EXTRACT: note_off channel=14 note=45 velocity=111 time=0
EXTRACT: note_on channel=14 note=40 velocity=111 time=0
EXTRACT: note_off channel=9 note=0 velocity=95 time=0
EXTRACT: note_off channel=9 note=59 velocity=95 time=0
EXTRACT: note_on channel=9 note=35 velocity=95 time=0
EXTRACT: note_on channel=9 note=51 velocity=95 time=0
EXTRACT: note_on channel=9 note=56 velocity=95 time=0
EXTRACT: note_off channel=9 note=35 velocity=95 time=0.14150925
EXTRACT: note_off channel=9 note=51 velocity=95 time=0
EXTRACT: note_off channel=9 note=56 velocity=95 time=0
EXTRACT: note_off channel=14 note=40 velocity=111 time=0.14150925
EXTRACT: note_on channel=14 note=44 velocity=111 time=0
EXTRACT: note_on channel=9 note=35 velocity=95 time=0
EXTRACT: note_on channel=9 note=51 velocity=95 time=0
EXTRACT: note_off channel=2 note=59 velocity=95 time=0.14150925
EXTRACT: note_on channel=2 note=57 velocity=95 time=0
EXTRACT: note_off channel=4 note=68 velocity=95 time=0
EXTRACT: note_on channel=4 note=66 velocity=95 time=0
EXTRACT: note_off channel=9 note=35 velocity=95 time=0
EXTRACT: note_off channel=9 note=51 velocity=95 time=0
EXTRACT: note_off channel=0 note=64 velocity=111 time=0.14150925
EXTRACT: note_off channel=0 note=59 velocity=111 time=0
EXTRACT: note_off channel=0 note=56 velocity=111 time=0
EXTRACT: note_off channel=0 note=52 velocity=111 time=0
EXTRACT: note_off channel=0 note=47 velocity=111 time=0
EXTRACT: note_off channel=0 note=40 velocity=111 time=0
EXTRACT: note_on channel=0 note=64 velocity=111 time=0
EXTRACT: note_on channel=0 note=59 velocity=95 time=0
EXTRACT: note_on channel=0 note=56 velocity=95 time=0
EXTRACT: note_on channel=0 note=52 velocity=95 time=0
EXTRACT: note_on channel=0 note=47 velocity=111 time=0
EXTRACT: note_on channel=0 note=40 velocity=111 time=0
EXTRACT: note_off channel=2 note=57 velocity=95 time=0
EXTRACT: note_on channel=2 note=56 velocity=95 time=0
EXTRACT: note_off channel=4 note=66 velocity=95 time=0
EXTRACT: note_on channel=4 note=64 velocity=95 time=0
EXTRACT: note_off channel=14 note=44 velocity=111 time=0
EXTRACT: note_on channel=14 note=45 velocity=111 time=0
EXTRACT: note_on channel=9 note=40 velocity=95 time=0
EXTRACT: note_on channel=9 note=56 velocity=95 time=0
EXTRACT: note_on channel=9 note=59 velocity=95 time=0
EXTRACT: note_off channel=4 note=64 velocity=95 time=0.14150925
EXTRACT: note_off channel=9 note=40 velocity=95 time=0
EXTRACT: note_off channel=9 note=56 velocity=95 time=0
EXTRACT: note_off channel=9 note=59 velocity=95 time=0
EXTRACT: note_off channel=0 note=64 velocity=111 time=0.14150925
EXTRACT: note_off channel=0 note=59 velocity=95 time=0
EXTRACT: note_off channel=0 note=56 velocity=95 time=0
EXTRACT: note_off channel=0 note=52 velocity=95 time=0
EXTRACT: note_off channel=0 note=47 velocity=111 time=0
EXTRACT: note_off channel=0 note=40 velocity=111 time=0
EXTRACT: note_off channel=2 note=56 velocity=95 time=0
EXTRACT: note_off channel=14 note=45 velocity=111 time=0
EXTRACT: note_on channel=14 note=45 velocity=111 time=0
EXTRACT: note_on channel=9 note=35 velocity=95 time=0
EXTRACT: note_on channel=9 note=53 velocity=95 time=0
EXTRACT: note_on channel=4 note=64 velocity=95 time=0.14150925
EXTRACT: note_off channel=14 note=45 velocity=111 time=0
EXTRACT: note_on channel=14 note=47 velocity=111 time=0
EXTRACT: note_off channel=9 note=35 velocity=95 time=0
EXTRACT: note_off channel=9 note=53 velocity=95 time=0
EXTRACT: note_on channel=9 note=0 velocity=95 time=0
EXTRACT: note_on channel=9 note=29 velocity=95 time=0
EXTRACT: note_on channel=9 note=40 velocity=95 time=0
EXTRACT: note_on channel=9 note=59 velocity=95 time=0
EXTRACT: note_off channel=4 note=64 velocity=95 time=0.14150925
EXTRACT: note_on channel=4 note=66 velocity=95 time=0
EXTRACT: note_off channel=9 note=0 velocity=95 time=0
EXTRACT: note_off channel=9 note=29 velocity=95 time=0
EXTRACT: note_off channel=9 note=40 velocity=95 time=0
EXTRACT: note_off channel=9 note=59 velocity=95 time=0
EXTRACT: note_on channel=9 note=0 velocity=95 time=0
EXTRACT: note_on channel=9 note=30 velocity=95 time=0
EXTRACT: note_on channel=9 note=35 velocity=95 time=0
EXTRACT: note_on channel=9 note=51 velocity=95 time=0
EXTRACT: note_on channel=9 note=56 velocity=95 time=0
EXTRACT: note_off channel=14 note=47 velocity=111 time=0.14150925
EXTRACT: note_on channel=14 note=47 velocity=111 time=0
EXTRACT: note_off channel=9 note=0 velocity=95 time=0
EXTRACT: note_off channel=9 note=30 velocity=95 time=0
EXTRACT: note_off channel=9 note=35 velocity=95 time=0
EXTRACT: note_off channel=9 note=51 velocity=95 time=0
EXTRACT: note_off channel=9 note=56 velocity=95 time=0
EXTRACT: note_on channel=9 note=0 velocity=95 time=0
EXTRACT: note_on channel=9 note=29 velocity=95 time=0
EXTRACT: note_on channel=9 note=40 velocity=95 time=0
EXTRACT: note_on channel=9 note=59 velocity=95 time=0
EXTRACT: note_on channel=0 note=64 velocity=111 time=0.14150925
EXTRACT: note_on channel=0 note=59 velocity=111 time=0
EXTRACT: note_on channel=0 note=56 velocity=111 time=0
EXTRACT: note_on channel=0 note=52 velocity=111 time=0
EXTRACT: note_on channel=0 note=47 velocity=111 time=0
EXTRACT: note_on channel=0 note=40 velocity=111 time=0
EXTRACT: note_off channel=4 note=66 velocity=95 time=0
EXTRACT: note_on channel=4 note=69 velocity=95 time=0
EXTRACT: note_off channel=14 note=47 velocity=111 time=0
EXTRACT: note_on channel=14 note=52 velocity=111 time=0
EXTRACT: note_off channel=9 note=0 velocity=95 time=0
EXTRACT: note_off channel=9 note=29 velocity=95 time=0
EXTRACT: note_off channel=9 note=40 velocity=95 time=0
EXTRACT: note_off channel=9 note=59 velocity=95 time=0
EXTRACT: note_on channel=9 note=0 velocity=95 time=0
EXTRACT: note_on channel=9 note=30 velocity=95 time=0
EXTRACT: note_on channel=9 note=35 velocity=95 time=0
EXTRACT: note_on channel=9 note=53 velocity=95 time=0
EXTRACT: note_off channel=0 note=64 velocity=111 time=0.14150925
EXTRACT: note_off channel=0 note=59 velocity=111 time=0
EXTRACT: note_off channel=0 note=56 velocity=111 time=0
EXTRACT: note_off channel=0 note=52 velocity=111 time=0
EXTRACT: note_off channel=0 note=47 velocity=111 time=0
EXTRACT: note_off channel=0 note=40 velocity=111 time=0
EXTRACT: note_off channel=4 note=69 velocity=95 time=0
EXTRACT: note_off channel=9 note=0 velocity=95 time=0
EXTRACT: note_off channel=9 note=30 velocity=95 time=0
EXTRACT: note_off channel=9 note=35 velocity=95 time=0
EXTRACT: note_off channel=9 note=53 velocity=95 time=0
EXTRACT: note_on channel=9 note=0 velocity=95 time=0
EXTRACT: note_on channel=9 note=35 velocity=95 time=0
EXTRACT: note_on channel=9 note=59 velocity=95 time=0
EXTRACT: note_on channel=0 note=64 velocity=111 time=0.14150925
EXTRACT: note_on channel=0 note=59 velocity=95 time=0
EXTRACT: note_on channel=0 note=55 velocity=95 time=0
EXTRACT: note_on channel=0 note=50 velocity=95 time=0
EXTRACT: note_on channel=4 note=73 velocity=95 time=0
EXTRACT: note_off channel=14 note=52 velocity=111 time=0
EXTRACT: note_on channel=14 note=50 velocity=111 time=0
EXTRACT: note_off channel=9 note=0 velocity=95 time=0
EXTRACT: note_off channel=9 note=35 velocity=95 time=0
EXTRACT: note_off channel=9 note=59 velocity=95 time=0
EXTRACT: note_on channel=9 note=0 velocity=95 time=0
EXTRACT: note_on channel=9 note=30 velocity=95 time=0
EXTRACT: note_on channel=9 note=40 velocity=95 time=0
EXTRACT: note_on channel=9 note=56 velocity=95 time=0
EXTRACT: note_on channel=9 note=59 velocity=95 time=0
EXTRACT: note_off channel=0 note=64 velocity=111 time=0.031249959375
EXTRACT: note_off channel=0 note=59 velocity=95 time=0
EXTRACT: note_off channel=0 note=55 velocity=95 time=0
EXTRACT: note_off channel=0 note=50 velocity=95 time=0
EXTRACT: note_on channel=0 note=64 velocity=111 time=0.110259290625
EXTRACT: note_on channel=0 note=59 velocity=111 time=0
EXTRACT: note_on channel=0 note=56 velocity=111 time=0
EXTRACT: note_on channel=0 note=52 velocity=111 time=0
EXTRACT: note_off channel=9 note=0 velocity=95 time=0
EXTRACT: note_off channel=9 note=30 velocity=95 time=0
EXTRACT: note_off channel=9 note=40 velocity=95 time=0
EXTRACT: note_off channel=9 note=56 velocity=95 time=0
EXTRACT: note_off channel=9 note=59 velocity=95 time=0
EXTRACT: note_off channel=0 note=64 velocity=111 time=0.14150925
EXTRACT: note_off channel=0 note=59 velocity=111 time=0
EXTRACT: note_off channel=0 note=56 velocity=111 time=0
EXTRACT: note_off channel=0 note=52 velocity=111 time=0
EXTRACT: note_off channel=4 note=73 velocity=95 time=0
EXTRACT: note_on channel=4 note=71 velocity=95 time=0
EXTRACT: note_on channel=9 note=29 velocity=95 time=0
EXTRACT: note_on channel=9 note=35 velocity=95 time=0
EXTRACT: note_on channel=9 note=51 velocity=95 time=0
EXTRACT: note_off channel=4 note=71 velocity=95 time=0.14150925
EXTRACT: note_on channel=4 note=69 velocity=95 time=0
EXTRACT: note_off channel=6 note=83 velocity=95 time=0
EXTRACT: note_off channel=6 note=80 velocity=95 time=0
EXTRACT: note_off channel=9 note=29 velocity=95 time=0
EXTRACT: note_off channel=9 note=35 velocity=95 time=0
EXTRACT: note_off channel=9 note=51 velocity=95 time=0
EXTRACT: note_on channel=9 note=0 velocity=95 time=0
EXTRACT: note_on channel=9 note=30 velocity=95 time=0
EXTRACT: note_on channel=9 note=35 velocity=95 time=0
EXTRACT: note_on channel=9 note=51 velocity=95 time=0
EXTRACT: note_on channel=0 note=64 velocity=111 time=0.14150925
EXTRACT: note_on channel=0 note=61 velocity=111 time=0
EXTRACT: note_on channel=0 note=57 velocity=111 time=0
EXTRACT: note_on channel=0 note=52 velocity=111 time=0
EXTRACT: note_on channel=0 note=45 velocity=111 time=0
EXTRACT: note_on channel=2 note=61 velocity=95 time=0
EXTRACT: note_off channel=4 note=69 velocity=95 time=0
EXTRACT: note_on channel=4 note=69 velocity=95 time=0
EXTRACT: note_on channel=6 note=85 velocity=95 time=0
EXTRACT: note_on channel=6 note=81 velocity=95 time=0
EXTRACT: note_off channel=14 note=50 velocity=111 time=0
EXTRACT: note_on channel=14 note=33 velocity=111 time=0
EXTRACT: note_off channel=9 note=0 velocity=95 time=0
EXTRACT: note_off channel=9 note=30 velocity=95 time=0
EXTRACT: note_off channel=9 note=35 velocity=95 time=0
EXTRACT: note_off channel=9 note=51 velocity=95 time=0
EXTRACT: note_on channel=9 note=0 velocity=95 time=0
EXTRACT: note_on channel=9 note=35 velocity=95 time=0
EXTRACT: note_on channel=9 note=51 velocity=95 time=0
EXTRACT: note_on channel=9 note=56 velocity=95 time=0
EXTRACT: note_off channel=9 note=0 velocity=95 time=0.14150925
EXTRACT: note_off channel=9 note=35 velocity=95 time=0
EXTRACT: note_off channel=9 note=51 velocity=95 time=0
EXTRACT: note_off channel=9 note=56 velocity=95 time=0
EXTRACT: note_off channel=14 note=33 velocity=111 time=0.14150925
EXTRACT: note_on channel=14 note=33 velocity=111 time=0
EXTRACT: note_on channel=9 note=51 velocity=95 time=0
EXTRACT: note_off channel=2 note=61 velocity=95 time=0.14150925
EXTRACT: note_off channel=4 note=69 velocity=95 time=0
EXTRACT: note_off channel=14 note=33 velocity=111 time=0
EXTRACT: note_on channel=14 note=33 velocity=111 time=0
EXTRACT: note_off channel=9 note=51 velocity=95 time=0
EXTRACT: note_off channel=0 note=64 velocity=111 time=0.14150925
EXTRACT: note_off channel=0 note=61 velocity=111 time=0
EXTRACT: note_off channel=0 note=57 velocity=111 time=0
EXTRACT: note_off channel=0 note=52 velocity=111 time=0
EXTRACT: note_off channel=0 note=45 velocity=111 time=0
EXTRACT: note_on channel=0 note=64 velocity=111 time=0
EXTRACT: note_on channel=0 note=61 velocity=95 time=0
EXTRACT: note_on channel=0 note=57 velocity=95 time=0
EXTRACT: note_on channel=0 note=52 velocity=95 time=0
EXTRACT: note_on channel=0 note=45 velocity=111 time=0
EXTRACT: note_on channel=2 note=61 velocity=95 time=0
EXTRACT: note_on channel=4 note=69 velocity=95 time=0
EXTRACT: note_off channel=14 note=33 velocity=111 time=0
EXTRACT: note_on channel=14 note=33 velocity=111 time=0
EXTRACT: note_on channel=9 note=40 velocity=95 time=0
EXTRACT: note_on channel=9 note=56 velocity=95 time=0
EXTRACT: note_on channel=9 note=59 velocity=95 time=0
EXTRACT: note_off channel=2 note=61 velocity=95 time=0.14150925
EXTRACT: note_off channel=9 note=40 velocity=95 time=0
EXTRACT: note_off channel=9 note=56 velocity=95 time=0
EXTRACT: note_off channel=9 note=59 velocity=95 time=0
EXTRACT: note_off channel=0 note=64 velocity=111 time=0.14150925
EXTRACT: note_off channel=0 note=61 velocity=95 time=0
EXTRACT: note_off channel=0 note=57 velocity=95 time=0
EXTRACT: note_off channel=0 note=52 velocity=95 time=0
EXTRACT: note_off channel=0 note=45 velocity=111 time=0
EXTRACT: note_off channel=4 note=69 velocity=95 time=0
EXTRACT: note_on channel=9 note=35 velocity=95 time=0
EXTRACT: note_on channel=9 note=53 velocity=95 time=0
EXTRACT: note_off channel=9 note=35 velocity=95 time=0.14150925
EXTRACT: note_off channel=9 note=53 velocity=95 time=0
EXTRACT: note_on channel=9 note=0 velocity=95 time=0
EXTRACT: note_on channel=9 note=40 velocity=95 time=0
EXTRACT: note_on channel=9 note=59 velocity=95 time=0
EXTRACT: note_off channel=6 note=85 velocity=95 time=0.14150925
EXTRACT: note_off channel=6 note=81 velocity=95 time=0
EXTRACT: note_off channel=14 note=33 velocity=111 time=0
EXTRACT: note_off channel=9 note=0 velocity=95 time=0
EXTRACT: note_off channel=9 note=40 velocity=95 time=0
EXTRACT: note_off channel=9 note=59 velocity=95 time=0
EXTRACT: note_on channel=9 note=0 velocity=95 time=0
EXTRACT: note_on channel=9 note=35 velocity=95 time=0
EXTRACT: note_on channel=9 note=51 velocity=95 time=0
EXTRACT: note_on channel=9 note=56 velocity=95 time=0
EXTRACT: note_on channel=4 note=69 velocity=95 time=0.14150925
EXTRACT: note_on channel=14 note=33 velocity=111 time=0
EXTRACT: note_off channel=9 note=0 velocity=95 time=0
EXTRACT: note_off channel=9 note=35 velocity=95 time=0
EXTRACT: note_off channel=9 note=51 velocity=95 time=0
EXTRACT: note_off channel=9 note=56 velocity=95 time=0
EXTRACT: note_on channel=9 note=0 velocity=95 time=0
EXTRACT: note_on channel=9 note=29 velocity=95 time=0
EXTRACT: note_on channel=0 note=64 velocity=111 time=0.14150925
EXTRACT: note_on channel=0 note=61 velocity=111 time=0
EXTRACT: note_on channel=0 note=57 velocity=111 time=0
EXTRACT: note_on channel=0 note=52 velocity=111 time=0
EXTRACT: note_on channel=0 note=45 velocity=111 time=0
EXTRACT: note_on channel=2 note=61 velocity=95 time=0
EXTRACT: note_off channel=4 note=69 velocity=95 time=0
EXTRACT: note_on channel=6 note=85 velocity=95 time=0
EXTRACT: note_on channel=6 note=81 velocity=95 time=0
EXTRACT: note_off channel=9 note=0 velocity=95 time=0
EXTRACT: note_off channel=9 note=29 velocity=95 time=0
EXTRACT: note_on channel=9 note=0 velocity=95 time=0
EXTRACT: note_on channel=9 note=30 velocity=95 time=0
EXTRACT: note_on channel=9 note=35 velocity=95 time=0
EXTRACT: note_on channel=9 note=51 velocity=95 time=0
EXTRACT: note_off channel=0 note=64 velocity=111 time=0.14150925
EXTRACT: note_off channel=0 note=61 velocity=111 time=0
EXTRACT: note_off channel=0 note=57 velocity=111 time=0
EXTRACT: note_off channel=0 note=52 velocity=111 time=0
EXTRACT: note_off channel=0 note=45 velocity=111 time=0
EXTRACT: note_off channel=2 note=61 velocity=95 time=0
EXTRACT: note_off channel=6 note=85 velocity=95 time=0
EXTRACT: note_off channel=6 note=81 velocity=95 time=0
EXTRACT: note_off channel=9 note=0 velocity=95 time=0
EXTRACT: note_off channel=9 note=30 velocity=95 time=0
EXTRACT: note_off channel=9 note=35 velocity=95 time=0
EXTRACT: note_off channel=9 note=51 velocity=95 time=0
EXTRACT: note_on channel=0 note=64 velocity=111 time=0.14150925
EXTRACT: note_on channel=0 note=59 velocity=95 time=0
EXTRACT: note_on channel=0 note=55 velocity=95 time=0
EXTRACT: note_on channel=0 note=50 velocity=95 time=0
EXTRACT: note_off channel=14 note=33 velocity=111 time=0
EXTRACT: note_on channel=9 note=30 velocity=95 time=0
EXTRACT: note_on channel=9 note=40 velocity=95 time=0
EXTRACT: note_on channel=9 note=56 velocity=95 time=0
EXTRACT: note_on channel=9 note=59 velocity=95 time=0
EXTRACT: note_off channel=0 note=64 velocity=111 time=0.031249959375
EXTRACT: note_off channel=0 note=59 velocity=95 time=0
EXTRACT: note_off channel=0 note=55 velocity=95 time=0
EXTRACT: note_off channel=0 note=50 velocity=95 time=0
EXTRACT: note_on channel=0 note=64 velocity=111 time=0.110259290625
EXTRACT: note_on channel=0 note=61 velocity=111 time=0
EXTRACT: note_on channel=0 note=57 velocity=111 time=0
EXTRACT: note_on channel=0 note=52 velocity=111 time=0
EXTRACT: note_on channel=2 note=61 velocity=95 time=0
EXTRACT: note_on channel=4 note=69 velocity=95 time=0
EXTRACT: note_on channel=6 note=76 velocity=95 time=0
EXTRACT: note_on channel=14 note=33 velocity=111 time=0
EXTRACT: note_off channel=9 note=30 velocity=95 time=0
EXTRACT: note_off channel=9 note=40 velocity=95 time=0
EXTRACT: note_off channel=9 note=56 velocity=95 time=0
EXTRACT: note_off channel=9 note=59 velocity=95 time=0
EXTRACT: note_off channel=0 note=64 velocity=111 time=0.14150925
EXTRACT: note_off channel=0 note=61 velocity=111 time=0
EXTRACT: note_off channel=0 note=57 velocity=111 time=0
EXTRACT: note_off channel=0 note=52 velocity=111 time=0
EXTRACT: note_off channel=2 note=61 velocity=95 time=0
EXTRACT: note_on channel=2 note=61 velocity=95 time=0
EXTRACT: note_off channel=4 note=69 velocity=95 time=0
EXTRACT: note_on channel=4 note=69 velocity=95 time=0
EXTRACT: note_off channel=6 note=76 velocity=95 time=0
EXTRACT: note_on channel=6 note=85 velocity=95 time=0
EXTRACT: note_on channel=6 note=81 velocity=95 time=0
EXTRACT: note_on channel=9 note=29 velocity=95 time=0
EXTRACT: note_on channel=9 note=35 velocity=95 time=0
EXTRACT: note_on channel=9 note=53 velocity=95 time=0
EXTRACT: note_off channel=2 note=61 velocity=95 time=0.14150925
EXTRACT: note_off channel=4 note=69 velocity=95 time=0
EXTRACT: note_off channel=6 note=85 velocity=95 time=0
EXTRACT: note_off channel=6 note=81 velocity=95 time=0
EXTRACT: note_off channel=9 note=29 velocity=95 time=0
EXTRACT: note_off channel=9 note=35 velocity=95 time=0
EXTRACT: note_off channel=9 note=53 velocity=95 time=0
EXTRACT: note_on channel=9 note=0 velocity=95 time=0
EXTRACT: note_on channel=9 note=30 velocity=95 time=0
EXTRACT: note_on channel=9 note=35 velocity=95 time=0
EXTRACT: note_on channel=9 note=59 velocity=95 time=0
EXTRACT: note_on channel=0 note=66 velocity=111 time=0.14150925
EXTRACT: note_on channel=0 note=62 velocity=111 time=0
EXTRACT: note_on channel=0 note=57 velocity=111 time=0
EXTRACT: note_on channel=0 note=50 velocity=111 time=0
EXTRACT: note_on channel=2 note=62 velocity=95 time=0
EXTRACT: note_on channel=4 note=66 velocity=95 time=0
EXTRACT: note_on channel=6 note=86 velocity=95 time=0
EXTRACT: note_on channel=6 note=81 velocity=95 time=0
EXTRACT: note_off channel=14 note=33 velocity=111 time=0
EXTRACT: note_on channel=14 note=38 velocity=111 time=0
EXTRACT: note_off channel=9 note=0 velocity=95 time=0
EXTRACT: note_off channel=9 note=30 velocity=95 time=0
EXTRACT: note_off channel=9 note=35 velocity=95 time=0
EXTRACT: note_off channel=9 note=59 velocity=95 time=0
EXTRACT: note_on channel=9 note=0 velocity=95 time=0
EXTRACT: note_on channel=9 note=35 velocity=95 time=0
EXTRACT: note_on channel=9 note=51 velocity=95 time=0
EXTRACT: note_on channel=9 note=56 velocity=95 time=0
EXTRACT: note_off channel=9 note=0 velocity=95 time=0.14150925
EXTRACT: note_off channel=9 note=35 velocity=95 time=0
EXTRACT: note_off channel=9 note=51 velocity=95 time=0
EXTRACT: note_off channel=9 note=56 velocity=95 time=0
EXTRACT: note_off channel=14 note=38 velocity=111 time=0.14150925
EXTRACT: note_on channel=14 note=38 velocity=111 time=0
EXTRACT: note_on channel=9 note=35 velocity=95 time=0
EXTRACT: note_on channel=9 note=51 velocity=95 time=0
EXTRACT: note_off channel=2 note=62 velocity=95 time=0.14150925
EXTRACT: note_off channel=4 note=66 velocity=95 time=0
EXTRACT: note_off channel=14 note=38 velocity=111 time=0
EXTRACT: note_on channel=14 note=38 velocity=111 time=0
EXTRACT: note_off channel=9 note=35 velocity=95 time=0
EXTRACT: note_off channel=9 note=51 velocity=95 time=0
EXTRACT: note_off channel=0 note=66 velocity=111 time=0.14150925
EXTRACT: note_off channel=0 note=62 velocity=111 time=0
EXTRACT: note_off channel=0 note=57 velocity=111 time=0
EXTRACT: note_off channel=0 note=50 velocity=111 time=0
EXTRACT: note_on channel=0 note=66 velocity=111 time=0
EXTRACT: note_on channel=0 note=62 velocity=95 time=0
EXTRACT: note_on channel=0 note=57 velocity=95 time=0
EXTRACT: note_on channel=0 note=50 velocity=111 time=0
EXTRACT: note_on channel=2 note=62 velocity=95 time=0
EXTRACT: note_on channel=4 note=66 velocity=95 time=0
EXTRACT: note_off channel=14 note=38 velocity=111 time=0
EXTRACT: note_on channel=14 note=38 velocity=111 time=0
EXTRACT: note_on channel=9 note=40 velocity=95 time=0
EXTRACT: note_on channel=9 note=56 velocity=95 time=0
EXTRACT: note_on channel=9 note=59 velocity=95 time=0
EXTRACT: note_off channel=9 note=40 velocity=95 time=0.14150925
EXTRACT: note_off channel=9 note=56 velocity=95 time=0
EXTRACT: note_off channel=9 note=59 velocity=95 time=0
EXTRACT: note_off channel=0 note=66 velocity=111 time=0.14150925
EXTRACT: note_off channel=0 note=62 velocity=95 time=0
EXTRACT: note_off channel=0 note=57 velocity=95 time=0
EXTRACT: note_off channel=0 note=50 velocity=111 time=0
EXTRACT: note_off channel=2 note=62 velocity=95 time=0
EXTRACT: note_off channel=4 note=66 velocity=95 time=0
EXTRACT: note_on channel=9 note=35 velocity=95 time=0
EXTRACT: note_on channel=9 note=53 velocity=95 time=0
EXTRACT: note_off channel=14 note=38 velocity=111 time=0.14150925
EXTRACT: note_on channel=14 note=38 velocity=111 time=0
EXTRACT: note_off channel=9 note=35 velocity=95 time=0
EXTRACT: note_off channel=9 note=53 velocity=95 time=0
EXTRACT: note_on channel=9 note=0 velocity=95 time=0
EXTRACT: note_on channel=9 note=29 velocity=95 time=0
EXTRACT: note_on channel=9 note=40 velocity=95 time=0
EXTRACT: note_on channel=9 note=59 velocity=95 time=0
EXTRACT: note_on channel=2 note=66 velocity=95 time=0.14150925
EXTRACT: note_on channel=4 note=74 velocity=95 time=0
EXTRACT: note_off channel=14 note=38 velocity=111 time=0
EXTRACT: note_off channel=9 note=0 velocity=95 time=0
EXTRACT: note_off channel=9 note=29 velocity=95 time=0
EXTRACT: note_off channel=9 note=40 velocity=95 time=0
EXTRACT: note_off channel=9 note=59 velocity=95 time=0
EXTRACT: note_on channel=9 note=0 velocity=95 time=0
EXTRACT: note_on channel=9 note=30 velocity=95 time=0
EXTRACT: note_on channel=9 note=35 velocity=95 time=0
EXTRACT: note_on channel=9 note=51 velocity=95 time=0
EXTRACT: note_on channel=9 note=56 velocity=95 time=0
EXTRACT: note_off channel=2 note=66 velocity=95 time=0.14150925
EXTRACT: note_on channel=2 note=66 velocity=95 time=0
EXTRACT: note_off channel=4 note=74 velocity=95 time=0
EXTRACT: note_on channel=4 note=74 velocity=95 time=0
EXTRACT: note_off channel=6 note=86 velocity=95 time=0
EXTRACT: note_off channel=6 note=81 velocity=95 time=0
EXTRACT: note_on channel=6 note=78 velocity=95 time=0
EXTRACT: note_off channel=9 note=0 velocity=95 time=0
EXTRACT: note_off channel=9 note=30 velocity=95 time=0
EXTRACT: note_off channel=9 note=35 velocity=95 time=0
EXTRACT: note_off channel=9 note=51 velocity=95 time=0
EXTRACT: note_off channel=9 note=56 velocity=95 time=0
EXTRACT: note_on channel=9 note=0 velocity=95 time=0
EXTRACT: note_on channel=9 note=29 velocity=95 time=0
EXTRACT: note_on channel=9 note=40 velocity=95 time=0
EXTRACT: note_on channel=9 note=59 velocity=95 time=0
EXTRACT: note_on channel=0 note=66 velocity=111 time=0.14150925
EXTRACT: note_on channel=0 note=62 velocity=95 time=0
EXTRACT: note_on channel=0 note=57 velocity=95 time=0
EXTRACT: note_on channel=0 note=50 velocity=111 time=0
EXTRACT: note_off channel=2 note=66 velocity=95 time=0
EXTRACT: note_on channel=2 note=64 velocity=95 time=0
EXTRACT: note_off channel=4 note=74 velocity=95 time=0
EXTRACT: note_on channel=4 note=73 velocity=95 time=0
EXTRACT: note_off channel=6 note=78 velocity=95 time=0
EXTRACT: note_on channel=6 note=86 velocity=95 time=0
EXTRACT: note_on channel=6 note=81 velocity=95 time=0
EXTRACT: note_on channel=14 note=45 velocity=111 time=0
EXTRACT: note_off channel=9 note=0 velocity=95 time=0
EXTRACT: note_off channel=9 note=29 velocity=95 time=0
EXTRACT: note_off channel=9 note=40 velocity=95 time=0
EXTRACT: note_off channel=9 note=59 velocity=95 time=0
EXTRACT: note_on channel=9 note=0 velocity=95 time=0
EXTRACT: note_on channel=9 note=30 velocity=95 time=0
EXTRACT: note_on channel=9 note=35 velocity=95 time=0
EXTRACT: note_on channel=9 note=51 velocity=95 time=0
EXTRACT: note_off channel=0 note=66 velocity=111 time=0.14150925
EXTRACT: note_off channel=0 note=62 velocity=95 time=0
EXTRACT: note_off channel=0 note=57 velocity=95 time=0
EXTRACT: note_off channel=0 note=50 velocity=111 time=0
EXTRACT: note_off channel=2 note=64 velocity=95 time=0
EXTRACT: note_off channel=4 note=73 velocity=95 time=0
EXTRACT: note_off channel=6 note=86 velocity=95 time=0
EXTRACT: note_off channel=6 note=81 velocity=95 time=0
EXTRACT: note_on channel=6 note=86 velocity=95 time=0
EXTRACT: note_on channel=6 note=81 velocity=95 time=0
EXTRACT: note_on channel=6 note=78 velocity=95 time=0
EXTRACT: note_off channel=9 note=0 velocity=95 time=0
EXTRACT: note_off channel=9 note=30 velocity=95 time=0
EXTRACT: note_off channel=9 note=35 velocity=95 time=0
EXTRACT: note_off channel=9 note=51 velocity=95 time=0
EXTRACT: note_on channel=9 note=0 velocity=95 time=0
EXTRACT: note_on channel=9 note=30 velocity=95 time=0
EXTRACT: note_on channel=9 note=35 velocity=95 time=0
EXTRACT: note_on channel=9 note=51 velocity=95 time=0
EXTRACT: note_on channel=0 note=64 velocity=111 time=0.14150925
EXTRACT: note_on channel=0 note=59 velocity=95 time=0
EXTRACT: note_on channel=0 note=55 velocity=95 time=0
EXTRACT: note_on channel=0 note=50 velocity=95 time=0
EXTRACT: note_off channel=6 note=86 velocity=95 time=0
EXTRACT: note_off channel=6 note=81 velocity=95 time=0
EXTRACT: note_off channel=6 note=78 velocity=95 time=0
EXTRACT: note_off channel=14 note=45 velocity=111 time=0
EXTRACT: note_on channel=14 note=49 velocity=111 time=0
EXTRACT: note_off channel=9 note=0 velocity=95 time=0
EXTRACT: note_off channel=9 note=30 velocity=95 time=0
EXTRACT: note_off channel=9 note=35 velocity=95 time=0
EXTRACT: note_off channel=9 note=51 velocity=95 time=0
EXTRACT: note_on channel=9 note=0 velocity=95 time=0
EXTRACT: note_on channel=9 note=30 velocity=95 time=0
EXTRACT: note_on channel=9 note=40 velocity=95 time=0
EXTRACT: note_on channel=9 note=56 velocity=95 time=0
EXTRACT: note_on channel=9 note=59 velocity=95 time=0
EXTRACT: note_off channel=0 note=64 velocity=111 time=0.031249959375
EXTRACT: note_off channel=0 note=59 velocity=95 time=0
EXTRACT: note_off channel=0 note=55 velocity=95 time=0
EXTRACT: note_off channel=0 note=50 velocity=95 time=0
EXTRACT: note_on channel=0 note=66 velocity=111 time=0.110259290625
EXTRACT: note_on channel=0 note=62 velocity=111 time=0
EXTRACT: note_on channel=0 note=57 velocity=111 time=0
EXTRACT: note_on channel=2 note=62 velocity=95 time=0
EXTRACT: note_on channel=4 note=71 velocity=95 time=0
EXTRACT: note_on channel=6 note=78 velocity=95 time=0
EXTRACT: note_off channel=9 note=0 velocity=95 time=0
EXTRACT: note_off channel=9 note=30 velocity=95 time=0
EXTRACT: note_off channel=9 note=40 velocity=95 time=0
EXTRACT: note_off channel=9 note=56 velocity=95 time=0
EXTRACT: note_off channel=9 note=59 velocity=95 time=0
EXTRACT: note_off channel=0 note=66 velocity=111 time=0.14150925
EXTRACT: note_off channel=0 note=62 velocity=111 time=0
EXTRACT: note_off channel=0 note=57 velocity=111 time=0
EXTRACT: note_off channel=6 note=78 velocity=95 time=0
EXTRACT: note_on channel=6 note=86 velocity=95 time=0
EXTRACT: note_on channel=6 note=81 velocity=95 time=0
EXTRACT: note_off channel=14 note=49 velocity=111 time=0
EXTRACT: note_on channel=14 note=50 velocity=111 time=0
EXTRACT: note_on channel=9 note=29 velocity=95 time=0
EXTRACT: note_on channel=9 note=35 velocity=95 time=0
EXTRACT: note_on channel=9 note=53 velocity=95 time=0
EXTRACT: note_off channel=2 note=62 velocity=95 time=0.14150925
EXTRACT: note_off channel=4 note=71 velocity=95 time=0
EXTRACT: note_off channel=6 note=86 velocity=95 time=0
EXTRACT: note_off channel=6 note=81 velocity=95 time=0
EXTRACT: note_off channel=9 note=29 velocity=95 time=0
EXTRACT: note_off channel=9 note=35 velocity=95 time=0
EXTRACT: note_off channel=9 note=53 velocity=95 time=0
EXTRACT: note_on channel=9 note=0 velocity=95 time=0
EXTRACT: note_on channel=9 note=30 velocity=95 time=0
EXTRACT: note_on channel=9 note=35 velocity=95 time=0
EXTRACT: note_on channel=9 note=59 velocity=95 time=0
EXTRACT: note_on channel=0 note=64 velocity=111 time=0.14150925
EXTRACT: note_on channel=0 note=61 velocity=111 time=0
EXTRACT: note_on channel=0 note=57 velocity=111 time=0
EXTRACT: note_on channel=0 note=52 velocity=111 time=0
EXTRACT: note_on channel=0 note=45 velocity=111 time=0
EXTRACT: note_on channel=2 note=61 velocity=95 time=0
EXTRACT: note_on channel=4 note=69 velocity=95 time=0
EXTRACT: note_on channel=6 note=85 velocity=95 time=0
EXTRACT: note_on channel=6 note=81 velocity=95 time=0
EXTRACT: note_off channel=14 note=50 velocity=111 time=0
EXTRACT: note_on channel=14 note=33 velocity=111 time=0
EXTRACT: note_off channel=9 note=0 velocity=95 time=0
EXTRACT: note_off channel=9 note=30 velocity=95 time=0
EXTRACT: note_off channel=9 note=35 velocity=95 time=0
EXTRACT: note_off channel=9 note=59 velocity=95 time=0
EXTRACT: note_on channel=9 note=0 velocity=95 time=0
EXTRACT: note_on channel=9 note=35 velocity=95 time=0
EXTRACT: note_on channel=9 note=51 velocity=95 time=0
EXTRACT: note_on channel=9 note=56 velocity=95 time=0
EXTRACT: note_off channel=9 note=0 velocity=95 time=0.14150925
EXTRACT: note_off channel=9 note=35 velocity=95 time=0
EXTRACT: note_off channel=9 note=51 velocity=95 time=0
EXTRACT: note_off channel=9 note=56 velocity=95 time=0
EXTRACT: note_off channel=14 note=33 velocity=111 time=0.14150925
EXTRACT: note_on channel=14 note=33 velocity=111 time=0
EXTRACT: note_on channel=9 note=35 velocity=95 time=0
EXTRACT: note_on channel=9 note=51 velocity=95 time=0
EXTRACT: note_off channel=2 note=61 velocity=95 time=0.14150925
EXTRACT: note_off channel=4 note=69 velocity=95 time=0
EXTRACT: note_off channel=14 note=33 velocity=111 time=0
EXTRACT: note_on channel=14 note=33 velocity=111 time=0
EXTRACT: note_off channel=9 note=35 velocity=95 time=0
EXTRACT: note_off channel=9 note=51 velocity=95 time=0
EXTRACT: note_off channel=0 note=64 velocity=111 time=0.14150925
EXTRACT: note_off channel=0 note=61 velocity=111 time=0
EXTRACT: note_off channel=0 note=57 velocity=111 time=0
EXTRACT: note_off channel=0 note=52 velocity=111 time=0
EXTRACT: note_off channel=0 note=45 velocity=111 time=0
EXTRACT: note_on channel=0 note=64 velocity=111 time=0
EXTRACT: note_on channel=0 note=61 velocity=95 time=0
EXTRACT: note_on channel=0 note=57 velocity=95 time=0
EXTRACT: note_on channel=0 note=52 velocity=95 time=0
EXTRACT: note_on channel=0 note=45 velocity=111 time=0
EXTRACT: note_on channel=2 note=61 velocity=95 time=0
EXTRACT: note_on channel=4 note=69 velocity=95 time=0
EXTRACT: note_off channel=14 note=33 velocity=111 time=0
EXTRACT: note_on channel=14 note=33 velocity=111 time=0
EXTRACT: note_on channel=9 note=40 velocity=95 time=0
EXTRACT: note_on channel=9 note=56 velocity=95 time=0
EXTRACT: note_on channel=9 note=59 velocity=95 time=0
EXTRACT: note_off channel=2 note=61 velocity=95 time=0.14150925
EXTRACT: note_off channel=9 note=40 velocity=95 time=0
EXTRACT: note_off channel=9 note=56 velocity=95 time=0
EXTRACT: note_off channel=9 note=59 velocity=95 time=0
EXTRACT: note_off channel=0 note=64 velocity=111 time=0.14150925
EXTRACT: note_off channel=0 note=61 velocity=95 time=0
EXTRACT: note_off channel=0 note=57 velocity=95 time=0
EXTRACT: note_off channel=0 note=52 velocity=95 time=0
EXTRACT: note_off channel=0 note=45 velocity=111 time=0
EXTRACT: note_off channel=4 note=69 velocity=95 time=0
EXTRACT: note_on channel=9 note=35 velocity=95 time=0
EXTRACT: note_on channel=9 note=53 velocity=95 time=0
EXTRACT: note_off channel=14 note=33 velocity=111 time=0.14150925
EXTRACT: note_on channel=14 note=33 velocity=111 time=0
EXTRACT: note_off channel=9 note=35 velocity=95 time=0
EXTRACT: note_off channel=9 note=53 velocity=95 time=0
EXTRACT: note_on channel=9 note=0 velocity=95 time=0
EXTRACT: note_on channel=9 note=40 velocity=95 time=0
EXTRACT: note_on channel=9 note=59 velocity=95 time=0
EXTRACT: note_off channel=14 note=33 velocity=111 time=0.14150925
EXTRACT: note_off channel=9 note=0 velocity=95 time=0
EXTRACT: note_off channel=9 note=40 velocity=95 time=0
EXTRACT: note_off channel=9 note=59 velocity=95 time=0
EXTRACT: note_on channel=9 note=0 velocity=95 time=0
EXTRACT: note_on channel=9 note=35 velocity=95 time=0
EXTRACT: note_on channel=9 note=51 velocity=95 time=0
EXTRACT: note_on channel=9 note=56 velocity=95 time=0
EXTRACT: note_off channel=6 note=85 velocity=95 time=0.14150925
EXTRACT: note_off channel=6 note=81 velocity=95 time=0
EXTRACT: note_off channel=9 note=0 velocity=95 time=0
EXTRACT: note_off channel=9 note=35 velocity=95 time=0
EXTRACT: note_off channel=9 note=51 velocity=95 time=0
EXTRACT: note_off channel=9 note=56 velocity=95 time=0
EXTRACT: note_on channel=9 note=0 velocity=95 time=0
EXTRACT: note_on channel=9 note=40 velocity=95 time=0
EXTRACT: note_on channel=9 note=59 velocity=95 time=0
EXTRACT: note_on channel=0 note=64 velocity=111 time=0.14150925
EXTRACT: note_on channel=0 note=61 velocity=111 time=0
EXTRACT: note_on channel=0 note=57 velocity=111 time=0
EXTRACT: note_on channel=0 note=52 velocity=111 time=0
EXTRACT: note_on channel=0 note=45 velocity=111 time=0
EXTRACT: note_on channel=2 note=61 velocity=95 time=0
EXTRACT: note_on channel=4 note=69 velocity=95 time=0
EXTRACT: note_on channel=6 note=85 velocity=95 time=0
EXTRACT: note_on channel=6 note=81 velocity=95 time=0
EXTRACT: note_on channel=6 note=76 velocity=95 time=0
EXTRACT: note_on channel=14 note=40 velocity=111 time=0
EXTRACT: note_off channel=9 note=0 velocity=95 time=0
EXTRACT: note_off channel=9 note=40 velocity=95 time=0
EXTRACT: note_off channel=9 note=59 velocity=95 time=0
EXTRACT: note_on channel=9 note=0 velocity=95 time=0
EXTRACT: note_on channel=9 note=35 velocity=95 time=0
EXTRACT: note_on channel=9 note=51 velocity=95 time=0
EXTRACT: note_off channel=0 note=64 velocity=111 time=0.14150925
EXTRACT: note_off channel=0 note=61 velocity=111 time=0
EXTRACT: note_off channel=0 note=57 velocity=111 time=0
EXTRACT: note_off channel=0 note=52 velocity=111 time=0
EXTRACT: note_off channel=0 note=45 velocity=111 time=0
EXTRACT: note_off channel=2 note=61 velocity=95 time=0
EXTRACT: note_off channel=4 note=69 velocity=95 time=0
EXTRACT: note_off channel=6 note=85 velocity=95 time=0
EXTRACT: note_off channel=6 note=81 velocity=95 time=0
EXTRACT: note_off channel=6 note=76 velocity=95 time=0
EXTRACT: note_off channel=9 note=0 velocity=95 time=0
EXTRACT: note_off channel=9 note=35 velocity=95 time=0
EXTRACT: note_off channel=9 note=51 velocity=95 time=0
EXTRACT: note_on channel=9 note=0 velocity=95 time=0
EXTRACT: note_on channel=9 note=51 velocity=95 time=0
EXTRACT: note_on channel=0 note=64 velocity=111 time=0.14150925
EXTRACT: note_on channel=0 note=59 velocity=95 time=0
EXTRACT: note_on channel=0 note=55 velocity=95 time=0
EXTRACT: note_on channel=0 note=50 velocity=95 time=0
EXTRACT: note_off channel=14 note=40 velocity=111 time=0
EXTRACT: note_on channel=14 note=44 velocity=111 time=0
EXTRACT: note_off channel=9 note=0 velocity=95 time=0
EXTRACT: note_off channel=9 note=51 velocity=95 time=0
EXTRACT: note_on channel=9 note=0 velocity=95 time=0
EXTRACT: note_on channel=9 note=40 velocity=95 time=0
EXTRACT: note_on channel=9 note=56 velocity=95 time=0
EXTRACT: note_on channel=9 note=59 velocity=95 time=0
EXTRACT: note_off channel=0 note=64 velocity=111 time=0.031249959375
EXTRACT: note_off channel=0 note=59 velocity=95 time=0
EXTRACT: note_off channel=0 note=55 velocity=95 time=0
EXTRACT: note_off channel=0 note=50 velocity=95 time=0
EXTRACT: note_on channel=0 note=64 velocity=111 time=0.110259290625
EXTRACT: note_on channel=0 note=61 velocity=111 time=0
EXTRACT: note_on channel=0 note=57 velocity=111 time=0
EXTRACT: note_on channel=0 note=52 velocity=111 time=0
EXTRACT: note_on channel=2 note=61 velocity=95 time=0
EXTRACT: note_on channel=4 note=69 velocity=95 time=0
EXTRACT: note_on channel=6 note=76 velocity=95 time=0
EXTRACT: note_off channel=9 note=0 velocity=95 time=0
EXTRACT: note_off channel=9 note=40 velocity=95 time=0
EXTRACT: note_off channel=9 note=56 velocity=95 time=0
EXTRACT: note_off channel=9 note=59 velocity=95 time=0
EXTRACT: note_off channel=0 note=64 velocity=111 time=0.14150925
EXTRACT: note_off channel=0 note=61 velocity=111 time=0
EXTRACT: note_off channel=0 note=57 velocity=111 time=0
EXTRACT: note_off channel=0 note=52 velocity=111 time=0
EXTRACT: note_off channel=2 note=61 velocity=95 time=0
EXTRACT: note_on channel=2 note=61 velocity=95 time=0
EXTRACT: note_off channel=4 note=69 velocity=95 time=0
EXTRACT: note_on channel=4 note=69 velocity=95 time=0
EXTRACT: note_off channel=6 note=76 velocity=95 time=0
EXTRACT: note_on channel=6 note=85 velocity=95 time=0
EXTRACT: note_on channel=6 note=81 velocity=95 time=0
EXTRACT: note_off channel=14 note=44 velocity=111 time=0
EXTRACT: note_on channel=14 note=45 velocity=111 time=0
EXTRACT: note_on channel=9 note=35 velocity=95 time=0
EXTRACT: note_on channel=9 note=51 velocity=95 time=0
EXTRACT: note_off channel=2 note=61 velocity=95 time=0.14150925
EXTRACT: note_off channel=4 note=69 velocity=95 time=0
EXTRACT: note_off channel=6 note=85 velocity=95 time=0
EXTRACT: note_off channel=6 note=81 velocity=95 time=0
EXTRACT: note_off channel=9 note=35 velocity=95 time=0
EXTRACT: note_off channel=9 note=51 velocity=95 time=0
EXTRACT: note_on channel=9 note=0 velocity=95 time=0
EXTRACT: note_on channel=9 note=35 velocity=95 time=0
EXTRACT: note_on channel=9 note=59 velocity=95 time=0
EXTRACT: note_on channel=0 note=64 velocity=111 time=0.14150925
EXTRACT: note_on channel=0 note=59 velocity=111 time=0
EXTRACT: note_on channel=0 note=56 velocity=111 time=0
EXTRACT: note_on channel=0 note=52 velocity=111 time=0
EXTRACT: note_on channel=0 note=47 velocity=111 time=0
EXTRACT: note_on channel=0 note=40 velocity=111 time=0
EXTRACT: note_on channel=2 note=59 velocity=95 time=0
EXTRACT: note_on channel=4 note=68 velocity=95 time=0
EXTRACT: note_on channel=6 note=83 velocity=95 time=0
EXTRACT: note_on channel=6 note=80 velocity=95 time=0
EXTRACT: note_off channel=14 note=45 velocity=111 time=0
EXTRACT: note_on channel=14 note=40 velocity=111 time=0
EXTRACT: note_off channel=9 note=0 velocity=95 time=0
EXTRACT: note_off channel=9 note=35 velocity=95 time=0
EXTRACT: note_off channel=9 note=59 velocity=95 time=0
EXTRACT: note_on channel=9 note=0 velocity=95 time=0
EXTRACT: note_on channel=9 note=35 velocity=95 time=0
EXTRACT: note_on channel=9 note=51 velocity=95 time=0
EXTRACT: note_on channel=9 note=56 velocity=95 time=0
EXTRACT: note_off channel=9 note=0 velocity=95 time=0.14150925
EXTRACT: note_off channel=9 note=35 velocity=95 time=0
EXTRACT: note_off channel=9 note=51 velocity=95 time=0
EXTRACT: note_off channel=9 note=56 velocity=95 time=0
EXTRACT: note_off channel=14 note=40 velocity=111 time=0.14150925
EXTRACT: note_on channel=14 note=44 velocity=111 time=0
EXTRACT: note_on channel=9 note=35 velocity=95 time=0
EXTRACT: note_on channel=9 note=51 velocity=95 time=0
EXTRACT: note_off channel=2 note=59 velocity=95 time=0.14150925
EXTRACT: note_on channel=2 note=57 velocity=95 time=0
EXTRACT: note_off channel=4 note=68 velocity=95 time=0
EXTRACT: note_on channel=4 note=66 velocity=95 time=0
EXTRACT: note_off channel=9 note=35 velocity=95 time=0
EXTRACT: note_off channel=9 note=51 velocity=95 time=0
EXTRACT: note_off channel=0 note=64 velocity=111 time=0.14150925
EXTRACT: note_off channel=0 note=59 velocity=111 time=0
EXTRACT: note_off channel=0 note=56 velocity=111 time=0
EXTRACT: note_off channel=0 note=52 velocity=111 time=0
EXTRACT: note_off channel=0 note=47 velocity=111 time=0
EXTRACT: note_off channel=0 note=40 velocity=111 time=0
EXTRACT: note_on channel=0 note=64 velocity=111 time=0
EXTRACT: note_on channel=0 note=59 velocity=95 time=0
EXTRACT: note_on channel=0 note=56 velocity=95 time=0
EXTRACT: note_on channel=0 note=52 velocity=95 time=0
EXTRACT: note_on channel=0 note=47 velocity=111 time=0
EXTRACT: note_on channel=0 note=40 velocity=111 time=0
EXTRACT: note_off channel=2 note=57 velocity=95 time=0
EXTRACT: note_on channel=2 note=56 velocity=95 time=0
EXTRACT: note_off channel=4 note=66 velocity=95 time=0
EXTRACT: note_on channel=4 note=64 velocity=95 time=0
EXTRACT: note_off channel=14 note=44 velocity=111 time=0
EXTRACT: note_on channel=14 note=45 velocity=111 time=0
EXTRACT: note_on channel=9 note=40 velocity=95 time=0
EXTRACT: note_on channel=9 note=56 velocity=95 time=0
EXTRACT: note_on channel=9 note=59 velocity=95 time=0
EXTRACT: note_off channel=9 note=40 velocity=95 time=0.14150925
EXTRACT: note_off channel=9 note=56 velocity=95 time=0
EXTRACT: note_off channel=9 note=59 velocity=95 time=0
EXTRACT: note_off channel=0 note=64 velocity=111 time=0.14150925
EXTRACT: note_off channel=0 note=59 velocity=95 time=0
EXTRACT: note_off channel=0 note=56 velocity=95 time=0
EXTRACT: note_off channel=0 note=52 velocity=95 time=0
EXTRACT: note_off channel=0 note=47 velocity=111 time=0
EXTRACT: note_off channel=0 note=40 velocity=111 time=0
EXTRACT: note_off channel=2 note=56 velocity=95 time=0
EXTRACT: note_off channel=4 note=64 velocity=95 time=0
EXTRACT: note_off channel=14 note=45 velocity=111 time=0
EXTRACT: note_on channel=14 note=45 velocity=111 time=0
EXTRACT: note_on channel=9 note=35 velocity=95 time=0
EXTRACT: note_on channel=9 note=53 velocity=95 time=0
EXTRACT: note_off channel=14 note=45 velocity=111 time=0.14150925
EXTRACT: note_on channel=14 note=47 velocity=111 time=0
EXTRACT: note_off channel=9 note=35 velocity=95 time=0
EXTRACT: note_off channel=9 note=53 velocity=95 time=0
EXTRACT: note_on channel=9 note=0 velocity=95 time=0
EXTRACT: note_on channel=9 note=29 velocity=95 time=0
EXTRACT: note_on channel=9 note=40 velocity=95 time=0
EXTRACT: note_on channel=9 note=59 velocity=95 time=0
EXTRACT: note_on channel=4 note=64 velocity=95 time=0.14150925
EXTRACT: note_off channel=9 note=0 velocity=95 time=0
EXTRACT: note_off channel=9 note=29 velocity=95 time=0
EXTRACT: note_off channel=9 note=40 velocity=95 time=0
EXTRACT: note_off channel=9 note=59 velocity=95 time=0
EXTRACT: note_on channel=9 note=0 velocity=95 time=0
EXTRACT: note_on channel=9 note=30 velocity=95 time=0
EXTRACT: note_on channel=9 note=40 velocity=95 time=0
EXTRACT: note_on channel=9 note=56 velocity=95 time=0
EXTRACT: note_off channel=14 note=47 velocity=111 time=0.14150925
EXTRACT: note_on channel=14 note=47 velocity=111 time=0
EXTRACT: note_off channel=9 note=0 velocity=95 time=0
EXTRACT: note_off channel=9 note=30 velocity=95 time=0
EXTRACT: note_off channel=9 note=40 velocity=95 time=0
EXTRACT: note_off channel=9 note=56 velocity=95 time=0
EXTRACT: note_on channel=9 note=0 velocity=95 time=0
EXTRACT: note_on channel=9 note=29 velocity=95 time=0
EXTRACT: note_on channel=9 note=40 velocity=95 time=0
EXTRACT: note_on channel=0 note=64 velocity=111 time=0.14150925
EXTRACT: note_on channel=0 note=59 velocity=111 time=0
EXTRACT: note_on channel=0 note=56 velocity=111 time=0
EXTRACT: note_on channel=0 note=52 velocity=111 time=0
EXTRACT: note_on channel=0 note=47 velocity=111 time=0
EXTRACT: note_on channel=0 note=40 velocity=111 time=0
EXTRACT: note_off channel=4 note=64 velocity=95 time=0
EXTRACT: note_on channel=4 note=66 velocity=95 time=0
EXTRACT: note_off channel=14 note=47 velocity=111 time=0
EXTRACT: note_on channel=14 note=52 velocity=111 time=0
EXTRACT: note_off channel=9 note=0 velocity=95 time=0
EXTRACT: note_off channel=9 note=29 velocity=95 time=0
EXTRACT: note_off channel=9 note=40 velocity=95 time=0
EXTRACT: note_on channel=9 note=0 velocity=95 time=0
EXTRACT: note_on channel=9 note=30 velocity=95 time=0
EXTRACT: note_on channel=9 note=40 velocity=95 time=0
EXTRACT: note_off channel=0 note=64 velocity=111 time=0.14150925
EXTRACT: note_off channel=0 note=59 velocity=111 time=0
EXTRACT: note_off channel=0 note=56 velocity=111 time=0
EXTRACT: note_off channel=0 note=52 velocity=111 time=0
EXTRACT: note_off channel=0 note=47 velocity=111 time=0
EXTRACT: note_off channel=0 note=40 velocity=111 time=0
EXTRACT: note_off channel=4 note=66 velocity=95 time=0
EXTRACT: note_off channel=9 note=0 velocity=95 time=0
EXTRACT: note_off channel=9 note=30 velocity=95 time=0
EXTRACT: note_off channel=9 note=40 velocity=95 time=0
EXTRACT: note_on channel=9 note=0 velocity=95 time=0
EXTRACT: note_on channel=9 note=30 velocity=95 time=0
EXTRACT: note_on channel=9 note=40 velocity=95 time=0
EXTRACT: note_on channel=0 note=64 velocity=111 time=0.14150925
EXTRACT: note_on channel=0 note=59 velocity=95 time=0
EXTRACT: note_on channel=0 note=55 velocity=95 time=0
EXTRACT: note_on channel=0 note=50 velocity=95 time=0
EXTRACT: note_on channel=4 note=71 velocity=95 time=0
EXTRACT: note_off channel=14 note=52 velocity=111 time=0
EXTRACT: note_on channel=14 note=50 velocity=111 time=0
EXTRACT: note_off channel=9 note=0 velocity=95 time=0
EXTRACT: note_off channel=9 note=30 velocity=95 time=0
EXTRACT: note_off channel=9 note=40 velocity=95 time=0
EXTRACT: note_on channel=9 note=0 velocity=95 time=0
EXTRACT: note_on channel=9 note=30 velocity=95 time=0
EXTRACT: note_on channel=9 note=40 velocity=95 time=0
EXTRACT: note_on channel=9 note=56 velocity=95 time=0
EXTRACT: note_on channel=9 note=57 velocity=95 time=0
EXTRACT: note_off channel=0 note=64 velocity=111 time=0.031249959375
EXTRACT: note_off channel=0 note=59 velocity=95 time=0
EXTRACT: note_off channel=0 note=55 velocity=95 time=0
EXTRACT: note_off channel=0 note=50 velocity=95 time=0
EXTRACT: note_on channel=0 note=64 velocity=111 time=0.110259290625
EXTRACT: note_on channel=0 note=59 velocity=111 time=0
EXTRACT: note_on channel=0 note=56 velocity=111 time=0
EXTRACT: note_on channel=0 note=52 velocity=111 time=0
EXTRACT: note_off channel=4 note=71 velocity=95 time=0
EXTRACT: note_off channel=9 note=0 velocity=95 time=0
EXTRACT: note_off channel=9 note=30 velocity=95 time=0
EXTRACT: note_off channel=9 note=40 velocity=95 time=0
EXTRACT: note_off channel=9 note=56 velocity=95 time=0
EXTRACT: note_off channel=9 note=57 velocity=95 time=0
EXTRACT: note_on channel=9 note=0 velocity=95 time=0
EXTRACT: note_on channel=9 note=40 velocity=95 time=0
EXTRACT: note_off channel=0 note=64 velocity=111 time=0.14150925
EXTRACT: note_off channel=0 note=59 velocity=111 time=0
EXTRACT: note_off channel=0 note=56 velocity=111 time=0
EXTRACT: note_off channel=0 note=52 velocity=111 time=0
EXTRACT: note_on channel=4 note=69 velocity=95 time=0
EXTRACT: note_off channel=6 note=83 velocity=95 time=0
EXTRACT: note_off channel=6 note=80 velocity=95 time=0
EXTRACT: note_off channel=9 note=0 velocity=95 time=0
EXTRACT: note_off channel=9 note=40 velocity=95 time=0
EXTRACT: note_on channel=9 note=0 velocity=95 time=0
EXTRACT: note_on channel=9 note=29 velocity=95 time=0
EXTRACT: note_on channel=9 note=40 velocity=95 time=0
EXTRACT: note_off channel=9 note=0 velocity=95 time=0.14150925
EXTRACT: note_off channel=9 note=29 velocity=95 time=0
EXTRACT: note_off channel=9 note=40 velocity=95 time=0
EXTRACT: note_on channel=9 note=0 velocity=95 time=0
EXTRACT: note_on channel=9 note=30 velocity=95 time=0
EXTRACT: note_on channel=9 note=40 velocity=95 time=0
EXTRACT: note_on channel=0 note=61 velocity=111 time=0.14150925
EXTRACT: note_on channel=0 note=57 velocity=95 time=0
EXTRACT: note_on channel=0 note=52 velocity=111 time=0
EXTRACT: note_on channel=0 note=45 velocity=111 time=0
EXTRACT: note_on channel=6 note=85 velocity=95 time=0
EXTRACT: note_on channel=6 note=81 velocity=95 time=0
EXTRACT: note_off channel=14 note=50 velocity=111 time=0
EXTRACT: note_on channel=14 note=33 velocity=111 time=0
EXTRACT: note_off channel=9 note=0 velocity=95 time=0
EXTRACT: note_off channel=9 note=30 velocity=95 time=0
EXTRACT: note_off channel=9 note=40 velocity=95 time=0
EXTRACT: note_on channel=9 note=0 velocity=95 time=0
EXTRACT: note_on channel=9 note=35 velocity=95 time=0
EXTRACT: note_on channel=9 note=44 velocity=95 time=0
EXTRACT: note_on channel=9 note=49 velocity=95 time=0
EXTRACT: note_on channel=9 note=57 velocity=95 time=0
EXTRACT: note_off channel=9 note=0 velocity=95 time=0.14150925
EXTRACT: note_off channel=9 note=35 velocity=95 time=0
EXTRACT: note_off channel=9 note=44 velocity=95 time=0
EXTRACT: note_off channel=9 note=49 velocity=95 time=0
EXTRACT: note_off channel=9 note=57 velocity=95 time=0
EXTRACT: note_off channel=4 note=69 velocity=95 time=0.14150925
EXTRACT: note_off channel=14 note=33 velocity=111 time=0
EXTRACT: note_on channel=14 note=33 velocity=111 time=0
EXTRACT: note_on channel=9 note=44 velocity=95 time=0
EXTRACT: note_off channel=14 note=33 velocity=111 time=0.14150925
EXTRACT: note_on channel=14 note=33 velocity=111 time=0
EXTRACT: note_off channel=9 note=44 velocity=95 time=0
EXTRACT: note_on channel=9 note=0 velocity=95 time=0
EXTRACT: note_on channel=9 note=44 velocity=95 time=0
EXTRACT: note_off channel=0 note=61 velocity=111 time=0.14150925
EXTRACT: note_off channel=0 note=57 velocity=95 time=0
EXTRACT: note_off channel=0 note=52 velocity=111 time=0
EXTRACT: note_off channel=0 note=45 velocity=111 time=0
EXTRACT: note_on channel=0 note=61 velocity=111 time=0
EXTRACT: note_on channel=0 note=57 velocity=111 time=0
EXTRACT: note_on channel=0 note=52 velocity=111 time=0
EXTRACT: note_on channel=0 note=45 velocity=111 time=0
EXTRACT: note_off channel=14 note=33 velocity=111 time=0
EXTRACT: note_on channel=14 note=33 velocity=111 time=0
EXTRACT: note_off channel=9 note=0 velocity=95 time=0
EXTRACT: note_off channel=9 note=44 velocity=95 time=0
EXTRACT: note_on channel=9 note=0 velocity=95 time=0
EXTRACT: note_on channel=9 note=40 velocity=95 time=0
EXTRACT: note_on channel=9 note=44 velocity=95 time=0
EXTRACT: note_on channel=4 note=64 velocity=95 time=0.14150925
EXTRACT: note_off channel=9 note=0 velocity=95 time=0
EXTRACT: note_off channel=9 note=40 velocity=95 time=0
EXTRACT: note_off channel=9 note=44 velocity=95 time=0
EXTRACT: note_off channel=0 note=61 velocity=111 time=0.14150925
EXTRACT: note_off channel=0 note=57 velocity=111 time=0
EXTRACT: note_off channel=0 note=52 velocity=111 time=0
EXTRACT: note_off channel=0 note=45 velocity=111 time=0
EXTRACT: note_on channel=0 note=59 velocity=95 time=0
EXTRACT: note_on channel=0 note=55 velocity=111 time=0
EXTRACT: note_on channel=0 note=50 velocity=111 time=0
EXTRACT: note_on channel=0 note=45 velocity=111 time=0
EXTRACT: note_off channel=4 note=64 velocity=95 time=0
EXTRACT: note_on channel=4 note=66 velocity=95 time=0
EXTRACT: note_off channel=14 note=33 velocity=111 time=0
EXTRACT: note_on channel=9 note=35 velocity=95 time=0
EXTRACT: note_on channel=9 note=44 velocity=95 time=0
EXTRACT: note_off channel=0 note=59 velocity=95 time=0.031249959375
EXTRACT: note_off channel=0 note=55 velocity=111 time=0
EXTRACT: note_off channel=0 note=50 velocity=111 time=0
EXTRACT: note_off channel=0 note=45 velocity=111 time=0
EXTRACT: note_on channel=0 note=61 velocity=111 time=0.110259290625
EXTRACT: note_on channel=0 note=57 velocity=95 time=0
EXTRACT: note_off channel=4 note=66 velocity=95 time=0
EXTRACT: note_off channel=9 note=35 velocity=95 time=0
EXTRACT: note_off channel=9 note=44 velocity=95 time=0
EXTRACT: note_on channel=9 note=0 velocity=95 time=0
EXTRACT: note_on channel=9 note=35 velocity=95 time=0
EXTRACT: note_on channel=9 note=44 velocity=95 time=0
EXTRACT: note_off channel=0 note=61 velocity=111 time=0.14150925
EXTRACT: note_off channel=0 note=57 velocity=95 time=0
EXTRACT: note_on channel=4 note=71 velocity=95 time=0
EXTRACT: note_off channel=6 note=85 velocity=95 time=0
EXTRACT: note_off channel=6 note=81 velocity=95 time=0
EXTRACT: note_on channel=6 note=83 velocity=95 time=0
EXTRACT: note_on channel=6 note=80 velocity=95 time=0
EXTRACT: note_off channel=9 note=0 velocity=95 time=0
EXTRACT: note_off channel=9 note=35 velocity=95 time=0
EXTRACT: note_off channel=9 note=44 velocity=95 time=0
EXTRACT: note_on channel=9 note=0 velocity=95 time=0
EXTRACT: note_on channel=9 note=44 velocity=95 time=0
EXTRACT: note_on channel=0 note=59 velocity=111 time=0.14150925
EXTRACT: note_on channel=0 note=56 velocity=111 time=0
EXTRACT: note_on channel=0 note=52 velocity=111 time=0
EXTRACT: note_off channel=9 note=0 velocity=95 time=0
EXTRACT: note_off channel=9 note=44 velocity=95 time=0
EXTRACT: note_on channel=9 note=35 velocity=95 time=0
EXTRACT: note_off channel=0 note=59 velocity=111 time=0.14150925
EXTRACT: note_off channel=0 note=56 velocity=111 time=0
EXTRACT: note_off channel=0 note=52 velocity=111 time=0
EXTRACT: note_on channel=0 note=59 velocity=95 time=0
EXTRACT: note_on channel=0 note=56 velocity=111 time=0
EXTRACT: note_on channel=0 note=52 velocity=111 time=0
EXTRACT: note_on channel=0 note=47 velocity=111 time=0
EXTRACT: note_off channel=4 note=71 velocity=95 time=0
EXTRACT: note_on channel=4 note=69 velocity=95 time=0
EXTRACT: note_on channel=14 note=40 velocity=111 time=0
EXTRACT: note_off channel=9 note=35 velocity=95 time=0
EXTRACT: note_on channel=9 note=0 velocity=95 time=0
EXTRACT: note_on channel=9 note=44 velocity=95 time=0
EXTRACT: note_off channel=4 note=69 velocity=95 time=0.14150925
EXTRACT: note_off channel=9 note=0 velocity=95 time=0
EXTRACT: note_off channel=9 note=44 velocity=95 time=0
EXTRACT: note_on channel=9 note=0 velocity=95 time=0
EXTRACT: note_on channel=9 note=44 velocity=95 time=0
EXTRACT: note_off channel=0 note=59 velocity=95 time=0.14150925
EXTRACT: note_off channel=0 note=56 velocity=111 time=0
EXTRACT: note_off channel=0 note=52 velocity=111 time=0
EXTRACT: note_off channel=0 note=47 velocity=111 time=0
EXTRACT: note_on channel=0 note=59 velocity=111 time=0
EXTRACT: note_on channel=0 note=56 velocity=95 time=0
EXTRACT: note_on channel=0 note=52 velocity=111 time=0
EXTRACT: note_on channel=0 note=47 velocity=111 time=0
EXTRACT: note_on channel=4 note=71 velocity=95 time=0
EXTRACT: note_off channel=14 note=40 velocity=111 time=0
EXTRACT: note_on channel=14 note=52 velocity=111 time=0
EXTRACT: note_off channel=9 note=0 velocity=95 time=0
EXTRACT: note_off channel=9 note=44 velocity=95 time=0
EXTRACT: note_on channel=9 note=0 velocity=95 time=0
EXTRACT: note_on channel=9 note=40 velocity=95 time=0
EXTRACT: note_on channel=9 note=44 velocity=95 time=0
EXTRACT: note_off channel=9 note=0 velocity=95 time=0.14150925
EXTRACT: note_off channel=9 note=40 velocity=95 time=0
EXTRACT: note_off channel=9 note=44 velocity=95 time=0
EXTRACT: note_off channel=0 note=59 velocity=111 time=0.14150925
EXTRACT: note_off channel=0 note=56 velocity=95 time=0
EXTRACT: note_off channel=0 note=52 velocity=111 time=0
EXTRACT: note_off channel=0 note=47 velocity=111 time=0
EXTRACT: note_on channel=0 note=59 velocity=111 time=0
EXTRACT: note_on channel=0 note=56 velocity=95 time=0
EXTRACT: note_on channel=0 note=52 velocity=111 time=0
EXTRACT: note_off channel=4 note=71 velocity=95 time=0
EXTRACT: note_on channel=4 note=69 velocity=95 time=0
EXTRACT: note_off channel=14 note=52 velocity=111 time=0
EXTRACT: note_on channel=14 note=40 velocity=111 time=0
EXTRACT: note_on channel=9 note=35 velocity=95 time=0
EXTRACT: note_on channel=9 note=44 velocity=95 time=0
EXTRACT: note_off channel=0 note=59 velocity=111 time=0.14150925
EXTRACT: note_off channel=0 note=56 velocity=95 time=0
EXTRACT: note_off channel=0 note=52 velocity=111 time=0
EXTRACT: note_on channel=0 note=59 velocity=111 time=0
EXTRACT: note_on channel=0 note=56 velocity=111 time=0
EXTRACT: note_on channel=0 note=52 velocity=111 time=0
EXTRACT: note_off channel=4 note=69 velocity=95 time=0
EXTRACT: note_off channel=6 note=83 velocity=95 time=0
EXTRACT: note_off channel=6 note=80 velocity=95 time=0
EXTRACT: note_off channel=9 note=35 velocity=95 time=0
EXTRACT: note_off channel=9 note=44 velocity=95 time=0
EXTRACT: note_on channel=9 note=0 velocity=95 time=0
EXTRACT: note_on channel=9 note=44 velocity=95 time=0
EXTRACT: note_off channel=0 note=59 velocity=111 time=0.14150925
EXTRACT: note_off channel=0 note=56 velocity=111 time=0
EXTRACT: note_off channel=0 note=52 velocity=111 time=0
EXTRACT: note_on channel=0 note=62 velocity=111 time=0
EXTRACT: note_on channel=0 note=57 velocity=95 time=0
EXTRACT: note_on channel=0 note=50 velocity=111 time=0
EXTRACT: note_on channel=6 note=86 velocity=95 time=0
EXTRACT: note_on channel=6 note=81 velocity=95 time=0
EXTRACT: note_on channel=6 note=78 velocity=95 time=0
EXTRACT: note_off channel=14 note=40 velocity=111 time=0
EXTRACT: note_on channel=14 note=38 velocity=111 time=0
EXTRACT: note_off channel=9 note=0 velocity=95 time=0
EXTRACT: note_off channel=9 note=44 velocity=95 time=0
EXTRACT: note_on channel=9 note=0 velocity=95 time=0
EXTRACT: note_on channel=9 note=35 velocity=95 time=0
EXTRACT: note_on channel=9 note=44 velocity=95 time=0
EXTRACT: note_off channel=9 note=0 velocity=95 time=0.14150925
EXTRACT: note_off channel=9 note=35 velocity=95 time=0
EXTRACT: note_off channel=9 note=44 velocity=95 time=0
EXTRACT: note_on channel=4 note=69 velocity=95 time=0.14150925
EXTRACT: note_off channel=14 note=38 velocity=111 time=0
EXTRACT: note_on channel=14 note=38 velocity=111 time=0
EXTRACT: note_on channel=9 note=44 velocity=95 time=0
EXTRACT: note_off channel=14 note=38 velocity=111 time=0.14150925
EXTRACT: note_on channel=14 note=38 velocity=111 time=0
EXTRACT: note_off channel=9 note=44 velocity=95 time=0
EXTRACT: note_on channel=9 note=0 velocity=95 time=0
EXTRACT: note_on channel=9 note=44 velocity=95 time=0
EXTRACT: note_off channel=0 note=62 velocity=111 time=0.14150925
EXTRACT: note_off channel=0 note=57 velocity=95 time=0
EXTRACT: note_off channel=0 note=50 velocity=111 time=0
EXTRACT: note_on channel=0 note=66 velocity=111 time=0
EXTRACT: note_on channel=0 note=62 velocity=111 time=0
EXTRACT: note_on channel=0 note=57 velocity=111 time=0
EXTRACT: note_off channel=4 note=69 velocity=95 time=0
EXTRACT: note_off channel=14 note=38 velocity=111 time=0
EXTRACT: note_on channel=14 note=38 velocity=111 time=0
EXTRACT: note_off channel=9 note=0 velocity=95 time=0
EXTRACT: note_off channel=9 note=44 velocity=95 time=0
EXTRACT: note_on channel=9 note=0 velocity=95 time=0
EXTRACT: note_on channel=9 note=40 velocity=95 time=0
EXTRACT: note_on channel=9 note=44 velocity=95 time=0
EXTRACT: note_on channel=4 note=69 velocity=95 time=0.14150925
EXTRACT: note_off channel=9 note=0 velocity=95 time=0
EXTRACT: note_off channel=9 note=40 velocity=95 time=0
EXTRACT: note_off channel=9 note=44 velocity=95 time=0
EXTRACT: note_off channel=0 note=66 velocity=111 time=0.14150925
EXTRACT: note_off channel=0 note=62 velocity=111 time=0
EXTRACT: note_off channel=0 note=57 velocity=111 time=0
EXTRACT: note_on channel=0 note=64 velocity=111 time=0
EXTRACT: note_on channel=0 note=59 velocity=95 time=0
EXTRACT: note_on channel=0 note=55 velocity=111 time=0
EXTRACT: note_off channel=14 note=38 velocity=111 time=0
EXTRACT: note_on channel=14 note=38 velocity=111 time=0
EXTRACT: note_on channel=9 note=35 velocity=95 time=0
EXTRACT: note_on channel=9 note=44 velocity=95 time=0
EXTRACT: note_off channel=0 note=64 velocity=111 time=0.031249959375
EXTRACT: note_off channel=0 note=59 velocity=95 time=0
EXTRACT: note_off channel=0 note=55 velocity=111 time=0
EXTRACT: note_on channel=0 note=66 velocity=111 time=0.110259290625
EXTRACT: note_on channel=0 note=62 velocity=111 time=0
EXTRACT: note_on channel=0 note=57 velocity=95 time=0
EXTRACT: note_off channel=6 note=86 velocity=95 time=0
EXTRACT: note_off channel=6 note=81 velocity=95 time=0
EXTRACT: note_off channel=6 note=78 velocity=95 time=0
EXTRACT: note_off channel=14 note=38 velocity=111 time=0
EXTRACT: note_on channel=14 note=38 velocity=111 time=0
EXTRACT: note_off channel=9 note=35 velocity=95 time=0
EXTRACT: note_off channel=9 note=44 velocity=95 time=0
EXTRACT: note_on channel=9 note=0 velocity=95 time=0
EXTRACT: note_on channel=9 note=35 velocity=95 time=0
EXTRACT: note_on channel=9 note=44 velocity=95 time=0
EXTRACT: note_off channel=0 note=66 velocity=111 time=0.14150925
EXTRACT: note_off channel=0 note=62 velocity=111 time=0
EXTRACT: note_off channel=0 note=57 velocity=95 time=0
EXTRACT: note_off channel=4 note=69 velocity=95 time=0
EXTRACT: note_off channel=14 note=38 velocity=111 time=0
EXTRACT: note_off channel=9 note=0 velocity=95 time=0
EXTRACT: note_off channel=9 note=35 velocity=95 time=0
EXTRACT: note_off channel=9 note=44 velocity=95 time=0
EXTRACT: note_on channel=9 note=0 velocity=95 time=0
EXTRACT: note_on channel=9 note=44 velocity=95 time=0
EXTRACT: note_on channel=0 note=59 velocity=111 time=0.14150925
EXTRACT: note_on channel=0 note=56 velocity=111 time=0
EXTRACT: note_on channel=0 note=52 velocity=111 time=0
EXTRACT: note_on channel=4 note=64 velocity=95 time=0
EXTRACT: note_on channel=6 note=88 velocity=95 time=0
EXTRACT: note_on channel=6 note=83 velocity=95 time=0
EXTRACT: note_off channel=9 note=0 velocity=95 time=0
EXTRACT: note_off channel=9 note=44 velocity=95 time=0
EXTRACT: note_on channel=9 note=0 velocity=95 time=0
EXTRACT: note_on channel=9 note=44 velocity=95 time=0
EXTRACT: note_off channel=0 note=59 velocity=111 time=0.14150925
EXTRACT: note_off channel=0 note=56 velocity=111 time=0
EXTRACT: note_off channel=0 note=52 velocity=111 time=0
EXTRACT: note_on channel=0 note=59 velocity=95 time=0
EXTRACT: note_on channel=0 note=56 velocity=111 time=0
EXTRACT: note_on channel=0 note=52 velocity=111 time=0
EXTRACT: note_on channel=0 note=47 velocity=111 time=0
EXTRACT: note_off channel=4 note=64 velocity=95 time=0
EXTRACT: note_off channel=6 note=88 velocity=95 time=0
EXTRACT: note_off channel=6 note=83 velocity=95 time=0
EXTRACT: note_on channel=14 note=40 velocity=111 time=0
EXTRACT: note_off channel=9 note=0 velocity=95 time=0
EXTRACT: note_off channel=9 note=44 velocity=95 time=0
EXTRACT: note_on channel=9 note=0 velocity=95 time=0
EXTRACT: note_on channel=9 note=35 velocity=95 time=0
EXTRACT: note_on channel=9 note=46 velocity=95 time=0
EXTRACT: note_on channel=4 note=64 velocity=95 time=0.14150925
EXTRACT: note_off channel=9 note=0 velocity=95 time=0
EXTRACT: note_off channel=9 note=35 velocity=95 time=0
EXTRACT: note_off channel=9 note=46 velocity=95 time=0
EXTRACT: note_off channel=0 note=59 velocity=95 time=0.14150925
EXTRACT: note_off channel=0 note=56 velocity=111 time=0
EXTRACT: note_off channel=0 note=52 velocity=111 time=0
EXTRACT: note_off channel=0 note=47 velocity=111 time=0
EXTRACT: note_on channel=0 note=59 velocity=111 time=0
EXTRACT: note_on channel=0 note=56 velocity=95 time=0
EXTRACT: note_on channel=0 note=52 velocity=111 time=0
EXTRACT: note_on channel=0 note=47 velocity=111 time=0
EXTRACT: note_off channel=4 note=64 velocity=95 time=0
EXTRACT: note_on channel=4 note=69 velocity=95 time=0
EXTRACT: note_on channel=6 note=83 velocity=95 time=0
EXTRACT: note_on channel=6 note=80 velocity=95 time=0
EXTRACT: note_on channel=6 note=76 velocity=95 time=0
EXTRACT: note_off channel=14 note=40 velocity=111 time=0
EXTRACT: note_on channel=14 note=47 velocity=111 time=0
EXTRACT: note_on channel=9 note=40 velocity=95 time=0
EXTRACT: note_on channel=9 note=44 velocity=95 time=0
EXTRACT: note_off channel=9 note=40 velocity=95 time=0.14150925
EXTRACT: note_off channel=9 note=44 velocity=95 time=0
EXTRACT: note_on channel=9 note=0 velocity=95 time=0
EXTRACT: note_on channel=9 note=44 velocity=95 time=0
EXTRACT: note_off channel=0 note=59 velocity=111 time=0.14150925
EXTRACT: note_off channel=0 note=56 velocity=95 time=0
EXTRACT: note_off channel=0 note=52 velocity=111 time=0
EXTRACT: note_off channel=0 note=47 velocity=111 time=0
EXTRACT: note_on channel=0 note=61 velocity=111 time=0
EXTRACT: note_on channel=0 note=57 velocity=95 time=0
EXTRACT: note_on channel=0 note=52 velocity=111 time=0
EXTRACT: note_on channel=0 note=45 velocity=111 time=0
EXTRACT: note_off channel=14 note=47 velocity=111 time=0
EXTRACT: note_on channel=14 note=52 velocity=111 time=0
EXTRACT: note_off channel=9 note=0 velocity=95 time=0
EXTRACT: note_off channel=9 note=44 velocity=95 time=0
EXTRACT: note_on channel=9 note=35 velocity=95 time=0
EXTRACT: note_on channel=9 note=46 velocity=95 time=0
EXTRACT: note_off channel=0 note=61 velocity=111 time=0.14150925
EXTRACT: note_off channel=0 note=57 velocity=95 time=0
EXTRACT: note_off channel=0 note=52 velocity=111 time=0
EXTRACT: note_off channel=0 note=45 velocity=111 time=0
EXTRACT: note_on channel=0 note=61 velocity=111 time=0
EXTRACT: note_on channel=0 note=57 velocity=111 time=0
EXTRACT: note_on channel=0 note=52 velocity=111 time=0
EXTRACT: note_off channel=4 note=69 velocity=95 time=0
EXTRACT: note_off channel=6 note=83 velocity=95 time=0
EXTRACT: note_off channel=6 note=80 velocity=95 time=0
EXTRACT: note_off channel=6 note=76 velocity=95 time=0
EXTRACT: note_off channel=9 note=35 velocity=95 time=0
EXTRACT: note_off channel=9 note=46 velocity=95 time=0
EXTRACT: note_on channel=9 note=0 velocity=95 time=0
EXTRACT: note_on channel=9 note=35 velocity=95 time=0
EXTRACT: note_on channel=9 note=44 velocity=95 time=0
EXTRACT: note_off channel=0 note=61 velocity=111 time=0.14150925
EXTRACT: note_off channel=0 note=57 velocity=111 time=0
EXTRACT: note_off channel=0 note=52 velocity=111 time=0
EXTRACT: note_on channel=0 note=61 velocity=111 time=0
EXTRACT: note_on channel=0 note=57 velocity=95 time=0
EXTRACT: note_on channel=0 note=52 velocity=111 time=0
EXTRACT: note_on channel=0 note=45 velocity=111 time=0
EXTRACT: note_on channel=6 note=85 velocity=95 time=0
EXTRACT: note_on channel=6 note=81 velocity=95 time=0
EXTRACT: note_on channel=6 note=76 velocity=95 time=0
EXTRACT: note_off channel=14 note=52 velocity=111 time=0
EXTRACT: note_on channel=14 note=33 velocity=111 time=0
EXTRACT: note_off channel=9 note=0 velocity=95 time=0
EXTRACT: note_off channel=9 note=35 velocity=95 time=0
EXTRACT: note_off channel=9 note=44 velocity=95 time=0
EXTRACT: note_on channel=9 note=0 velocity=95 time=0
EXTRACT: note_on channel=9 note=44 velocity=95 time=0
EXTRACT: note_off channel=14 note=33 velocity=111 time=0.2830185
EXTRACT: note_on channel=14 note=33 velocity=111 time=0
EXTRACT: note_off channel=9 note=0 velocity=95 time=0
EXTRACT: note_off channel=9 note=44 velocity=95 time=0
EXTRACT: note_on channel=9 note=0 velocity=95 time=0
EXTRACT: note_on channel=9 note=35 velocity=95 time=0
EXTRACT: note_on channel=9 note=44 velocity=95 time=0
EXTRACT: note_off channel=14 note=33 velocity=111 time=0.14150925
EXTRACT: note_on channel=14 note=33 velocity=111 time=0
EXTRACT: note_off channel=9 note=0 velocity=95 time=0
EXTRACT: note_off channel=9 note=35 velocity=95 time=0
EXTRACT: note_off channel=9 note=44 velocity=95 time=0
EXTRACT: note_off channel=0 note=61 velocity=111 time=0.14150925
EXTRACT: note_off channel=0 note=57 velocity=95 time=0
EXTRACT: note_off channel=0 note=52 velocity=111 time=0
EXTRACT: note_off channel=0 note=45 velocity=111 time=0
EXTRACT: note_on channel=0 note=61 velocity=111 time=0
EXTRACT: note_on channel=0 note=57 velocity=111 time=0
EXTRACT: note_on channel=0 note=52 velocity=111 time=0
EXTRACT: note_on channel=0 note=45 velocity=111 time=0
EXTRACT: note_off channel=14 note=33 velocity=111 time=0
EXTRACT: note_on channel=14 note=33 velocity=111 time=0
EXTRACT: note_on channel=9 note=40 velocity=95 time=0
EXTRACT: note_on channel=9 note=44 velocity=95 time=0
EXTRACT: note_off channel=9 note=40 velocity=95 time=0.14150925
EXTRACT: note_off channel=9 note=44 velocity=95 time=0
EXTRACT: note_off channel=0 note=61 velocity=111 time=0.14150925
EXTRACT: note_off channel=0 note=57 velocity=111 time=0
EXTRACT: note_off channel=0 note=52 velocity=111 time=0
EXTRACT: note_off channel=0 note=45 velocity=111 time=0
EXTRACT: note_on channel=0 note=59 velocity=95 time=0
EXTRACT: note_on channel=0 note=55 velocity=111 time=0
EXTRACT: note_on channel=0 note=50 velocity=111 time=0
EXTRACT: note_on channel=0 note=45 velocity=111 time=0
EXTRACT: note_off channel=14 note=33 velocity=111 time=0
EXTRACT: note_on channel=9 note=35 velocity=95 time=0
EXTRACT: note_on channel=9 note=44 velocity=95 time=0
EXTRACT: note_off channel=0 note=59 velocity=95 time=0.031249959375
EXTRACT: note_off channel=0 note=55 velocity=111 time=0
EXTRACT: note_off channel=0 note=50 velocity=111 time=0
EXTRACT: note_off channel=0 note=45 velocity=111 time=0
EXTRACT: note_on channel=0 note=61 velocity=111 time=0.110259290625
EXTRACT: note_on channel=0 note=57 velocity=95 time=0
EXTRACT: note_off channel=6 note=85 velocity=95 time=0
EXTRACT: note_off channel=6 note=81 velocity=95 time=0
EXTRACT: note_off channel=6 note=76 velocity=95 time=0
EXTRACT: note_off channel=9 note=35 velocity=95 time=0
EXTRACT: note_off channel=9 note=44 velocity=95 time=0
EXTRACT: note_on channel=9 note=0 velocity=95 time=0
EXTRACT: note_on channel=9 note=35 velocity=95 time=0
EXTRACT: note_on channel=9 note=44 velocity=95 time=0
EXTRACT: note_off channel=0 note=61 velocity=111 time=0.14150925
EXTRACT: note_off channel=0 note=57 velocity=95 time=0
EXTRACT: note_on channel=6 note=83 velocity=95 time=0
EXTRACT: note_on channel=6 note=80 velocity=95 time=0
EXTRACT: note_on channel=6 note=76 velocity=95 time=0
EXTRACT: note_off channel=9 note=0 velocity=95 time=0
EXTRACT: note_off channel=9 note=35 velocity=95 time=0
EXTRACT: note_off channel=9 note=44 velocity=95 time=0
EXTRACT: note_on channel=9 note=0 velocity=95 time=0
EXTRACT: note_on channel=9 note=44 velocity=95 time=0
EXTRACT: note_on channel=0 note=59 velocity=111 time=0.14150925
EXTRACT: note_on channel=0 note=56 velocity=111 time=0
EXTRACT: note_on channel=0 note=52 velocity=111 time=0
EXTRACT: note_off channel=9 note=0 velocity=95 time=0
EXTRACT: note_off channel=9 note=44 velocity=95 time=0
EXTRACT: note_off channel=0 note=59 velocity=111 time=0.14150925
EXTRACT: note_off channel=0 note=56 velocity=111 time=0
EXTRACT: note_off channel=0 note=52 velocity=111 time=0
EXTRACT: note_on channel=0 note=59 velocity=95 time=0
EXTRACT: note_on channel=0 note=56 velocity=111 time=0
EXTRACT: note_on channel=0 note=52 velocity=111 time=0
EXTRACT: note_on channel=0 note=47 velocity=111 time=0
EXTRACT: note_on channel=4 note=73 velocity=95 time=0
EXTRACT: note_on channel=14 note=40 velocity=111 time=0
EXTRACT: note_on channel=9 note=35 velocity=95 time=0
EXTRACT: note_on channel=9 note=36 velocity=95 time=0
EXTRACT: note_on channel=9 note=44 velocity=95 time=0
EXTRACT: note_off channel=9 note=35 velocity=95 time=0.14150925
EXTRACT: note_off channel=9 note=36 velocity=95 time=0
EXTRACT: note_off channel=9 note=44 velocity=95 time=0
EXTRACT: note_off channel=0 note=59 velocity=95 time=0.14150925
EXTRACT: note_off channel=0 note=56 velocity=111 time=0
EXTRACT: note_off channel=0 note=52 velocity=111 time=0
EXTRACT: note_off channel=0 note=47 velocity=111 time=0
EXTRACT: note_on channel=0 note=59 velocity=111 time=0
EXTRACT: note_on channel=0 note=56 velocity=95 time=0
EXTRACT: note_on channel=0 note=52 velocity=111 time=0
EXTRACT: note_on channel=0 note=47 velocity=111 time=0
EXTRACT: note_off channel=4 note=73 velocity=95 time=0
EXTRACT: note_on channel=4 note=71 velocity=95 time=0
EXTRACT: note_off channel=14 note=40 velocity=111 time=0
EXTRACT: note_on channel=14 note=52 velocity=111 time=0
EXTRACT: note_on channel=9 note=40 velocity=95 time=0
EXTRACT: note_on channel=9 note=44 velocity=95 time=0
EXTRACT: note_off channel=9 note=40 velocity=95 time=0.14150925
EXTRACT: note_off channel=9 note=44 velocity=95 time=0
EXTRACT: note_off channel=0 note=59 velocity=111 time=0.14150925
EXTRACT: note_off channel=0 note=56 velocity=95 time=0
EXTRACT: note_off channel=0 note=52 velocity=111 time=0
EXTRACT: note_off channel=0 note=47 velocity=111 time=0
EXTRACT: note_on channel=0 note=59 velocity=111 time=0
EXTRACT: note_on channel=0 note=56 velocity=95 time=0
EXTRACT: note_on channel=0 note=52 velocity=111 time=0
EXTRACT: note_off channel=4 note=71 velocity=95 time=0
EXTRACT: note_on channel=4 note=69 velocity=95 time=0
EXTRACT: note_off channel=14 note=52 velocity=111 time=0
EXTRACT: note_on channel=14 note=40 velocity=111 time=0
EXTRACT: note_on channel=9 note=35 velocity=95 time=0
EXTRACT: note_on channel=9 note=44 velocity=95 time=0
EXTRACT: note_off channel=0 note=59 velocity=111 time=0.14150925
EXTRACT: note_off channel=0 note=56 velocity=95 time=0
EXTRACT: note_off channel=0 note=52 velocity=111 time=0
EXTRACT: note_on channel=0 note=59 velocity=111 time=0
EXTRACT: note_on channel=0 note=56 velocity=111 time=0
EXTRACT: note_on channel=0 note=52 velocity=111 time=0
EXTRACT: note_off channel=6 note=83 velocity=95 time=0
EXTRACT: note_off channel=6 note=80 velocity=95 time=0
EXTRACT: note_off channel=6 note=76 velocity=95 time=0
EXTRACT: note_off channel=9 note=35 velocity=95 time=0
EXTRACT: note_off channel=9 note=44 velocity=95 time=0
EXTRACT: note_on channel=9 note=0 velocity=95 time=0
EXTRACT: note_on channel=9 note=35 velocity=95 time=0
EXTRACT: note_on channel=9 note=44 velocity=95 time=0
EXTRACT: note_off channel=0 note=59 velocity=111 time=0.14150925
EXTRACT: note_off channel=0 note=56 velocity=111 time=0
EXTRACT: note_off channel=0 note=52 velocity=111 time=0
EXTRACT: note_on channel=0 note=62 velocity=111 time=0
EXTRACT: note_on channel=0 note=57 velocity=95 time=0
EXTRACT: note_on channel=0 note=50 velocity=111 time=0
EXTRACT: note_on channel=6 note=86 velocity=95 time=0
EXTRACT: note_on channel=6 note=81 velocity=95 time=0
EXTRACT: note_on channel=6 note=78 velocity=95 time=0
EXTRACT: note_off channel=14 note=40 velocity=111 time=0
EXTRACT: note_on channel=14 note=38 velocity=111 time=0
EXTRACT: note_off channel=9 note=0 velocity=95 time=0
EXTRACT: note_off channel=9 note=35 velocity=95 time=0
EXTRACT: note_off channel=9 note=44 velocity=95 time=0
EXTRACT: note_on channel=9 note=0 velocity=95 time=0
EXTRACT: note_on channel=9 note=44 velocity=95 time=0
EXTRACT: note_off channel=9 note=0 velocity=95 time=0.14150925
EXTRACT: note_off channel=9 note=44 velocity=95 time=0
EXTRACT: note_off channel=14 note=38 velocity=111 time=0.14150925
EXTRACT: note_on channel=14 note=38 velocity=111 time=0
EXTRACT: note_on channel=9 note=35 velocity=95 time=0
EXTRACT: note_on channel=9 note=44 velocity=95 time=0
EXTRACT: note_off channel=14 note=38 velocity=111 time=0.14150925
EXTRACT: note_on channel=14 note=38 velocity=111 time=0
EXTRACT: note_off channel=9 note=35 velocity=95 time=0
EXTRACT: note_off channel=9 note=44 velocity=95 time=0
EXTRACT: note_off channel=0 note=62 velocity=111 time=0.14150925
EXTRACT: note_off channel=0 note=57 velocity=95 time=0
EXTRACT: note_off channel=0 note=50 velocity=111 time=0
EXTRACT: note_on channel=0 note=66 velocity=111 time=0
EXTRACT: note_on channel=0 note=62 velocity=111 time=0
EXTRACT: note_on channel=0 note=57 velocity=111 time=0
EXTRACT: note_off channel=14 note=38 velocity=111 time=0
EXTRACT: note_on channel=14 note=38 velocity=111 time=0
EXTRACT: note_on channel=9 note=40 velocity=95 time=0
EXTRACT: note_on channel=9 note=44 velocity=95 time=0
EXTRACT: note_off channel=9 note=40 velocity=95 time=0.14150925
EXTRACT: note_off channel=9 note=44 velocity=95 time=0
EXTRACT: note_off channel=0 note=66 velocity=111 time=0.14150925
EXTRACT: note_off channel=0 note=62 velocity=111 time=0
EXTRACT: note_off channel=0 note=57 velocity=111 time=0
EXTRACT: note_on channel=0 note=64 velocity=111 time=0
EXTRACT: note_on channel=0 note=59 velocity=95 time=0
EXTRACT: note_on channel=0 note=55 velocity=111 time=0
EXTRACT: note_off channel=4 note=69 velocity=95 time=0
EXTRACT: note_off channel=14 note=38 velocity=111 time=0
EXTRACT: note_on channel=14 note=38 velocity=111 time=0
EXTRACT: note_on channel=9 note=35 velocity=95 time=0
EXTRACT: note_on channel=9 note=44 velocity=95 time=0
EXTRACT: note_off channel=0 note=64 velocity=111 time=0.031249959375
EXTRACT: note_off channel=0 note=59 velocity=95 time=0
EXTRACT: note_off channel=0 note=55 velocity=111 time=0
EXTRACT: note_on channel=0 note=66 velocity=111 time=0.110259290625
EXTRACT: note_on channel=0 note=62 velocity=111 time=0
EXTRACT: note_on channel=0 note=57 velocity=95 time=0
EXTRACT: note_off channel=6 note=86 velocity=95 time=0
EXTRACT: note_off channel=6 note=81 velocity=95 time=0
EXTRACT: note_off channel=6 note=78 velocity=95 time=0
EXTRACT: note_off channel=14 note=38 velocity=111 time=0
EXTRACT: note_on channel=14 note=38 velocity=111 time=0
EXTRACT: note_off channel=9 note=35 velocity=95 time=0
EXTRACT: note_off channel=9 note=44 velocity=95 time=0
EXTRACT: note_on channel=9 note=0 velocity=95 time=0
EXTRACT: note_on channel=9 note=35 velocity=95 time=0
EXTRACT: note_on channel=9 note=44 velocity=95 time=0
EXTRACT: note_off channel=0 note=66 velocity=111 time=0.14150925
EXTRACT: note_off channel=0 note=62 velocity=111 time=0
EXTRACT: note_off channel=0 note=57 velocity=95 time=0
EXTRACT: note_on channel=4 note=64 velocity=95 time=0
EXTRACT: note_off channel=14 note=38 velocity=111 time=0
EXTRACT: note_off channel=9 note=0 velocity=95 time=0
EXTRACT: note_off channel=9 note=35 velocity=95 time=0
EXTRACT: note_off channel=9 note=44 velocity=95 time=0
EXTRACT: note_on channel=9 note=0 velocity=95 time=0
EXTRACT: note_on channel=9 note=44 velocity=95 time=0
EXTRACT: note_on channel=0 note=59 velocity=111 time=0.14150925
EXTRACT: note_on channel=0 note=56 velocity=111 time=0
EXTRACT: note_on channel=0 note=52 velocity=111 time=0
EXTRACT: note_on channel=6 note=88 velocity=95 time=0
EXTRACT: note_on channel=6 note=83 velocity=95 time=0
EXTRACT: note_off channel=9 note=0 velocity=95 time=0
EXTRACT: note_off channel=9 note=44 velocity=95 time=0
EXTRACT: note_on channel=9 note=0 velocity=95 time=0
EXTRACT: note_on channel=9 note=35 velocity=95 time=0
EXTRACT: note_on channel=9 note=44 velocity=95 time=0
EXTRACT: note_on channel=9 note=48 velocity=95 time=0
EXTRACT: note_off channel=0 note=59 velocity=111 time=0.14150925
EXTRACT: note_off channel=0 note=56 velocity=111 time=0
EXTRACT: note_off channel=0 note=52 velocity=111 time=0
EXTRACT: note_on channel=0 note=59 velocity=95 time=0
EXTRACT: note_on channel=0 note=56 velocity=111 time=0
EXTRACT: note_on channel=0 note=52 velocity=111 time=0
EXTRACT: note_on channel=0 note=47 velocity=111 time=0
EXTRACT: note_off channel=4 note=64 velocity=95 time=0
EXTRACT: note_on channel=4 note=66 velocity=95 time=0
EXTRACT: note_off channel=6 note=88 velocity=95 time=0
EXTRACT: note_off channel=6 note=83 velocity=95 time=0
EXTRACT: note_on channel=14 note=40 velocity=111 time=0
EXTRACT: note_off channel=9 note=0 velocity=95 time=0
EXTRACT: note_off channel=9 note=35 velocity=95 time=0
EXTRACT: note_off channel=9 note=44 velocity=95 time=0
EXTRACT: note_off channel=9 note=48 velocity=95 time=0
EXTRACT: note_on channel=9 note=0 velocity=95 time=0
EXTRACT: note_on channel=9 note=44 velocity=95 time=0
EXTRACT: note_on channel=9 note=45 velocity=95 time=0
EXTRACT: note_off channel=4 note=66 velocity=95 time=0.14150925
EXTRACT: note_on channel=6 note=76 velocity=95 time=0
EXTRACT: note_off channel=9 note=0 velocity=95 time=0
EXTRACT: note_off channel=9 note=44 velocity=95 time=0
EXTRACT: note_off channel=9 note=45 velocity=95 time=0
EXTRACT: note_off channel=0 note=59 velocity=95 time=0.14150925
EXTRACT: note_off channel=0 note=56 velocity=111 time=0
EXTRACT: note_off channel=0 note=52 velocity=111 time=0
EXTRACT: note_off channel=0 note=47 velocity=111 time=0
EXTRACT: note_on channel=0 note=59 velocity=111 time=0
EXTRACT: note_on channel=0 note=56 velocity=95 time=0
EXTRACT: note_on channel=0 note=52 velocity=111 time=0
EXTRACT: note_on channel=0 note=47 velocity=111 time=0
EXTRACT: note_on channel=4 note=71 velocity=95 time=0
EXTRACT: note_off channel=6 note=76 velocity=95 time=0
EXTRACT: note_on channel=6 note=88 velocity=95 time=0
EXTRACT: note_on channel=6 note=83 velocity=95 time=0
EXTRACT: note_off channel=14 note=40 velocity=111 time=0
EXTRACT: note_on channel=14 note=47 velocity=111 time=0
EXTRACT: note_on channel=9 note=40 velocity=95 time=0
EXTRACT: note_on channel=9 note=44 velocity=95 time=0
EXTRACT: note_on channel=9 note=47 velocity=95 time=0
EXTRACT: note_off channel=9 note=40 velocity=95 time=0.14150925
EXTRACT: note_off channel=9 note=44 velocity=95 time=0
EXTRACT: note_off channel=9 note=47 velocity=95 time=0
EXTRACT: note_off channel=0 note=59 velocity=111 time=0.14150925
EXTRACT: note_off channel=0 note=56 velocity=95 time=0
EXTRACT: note_off channel=0 note=52 velocity=111 time=0
EXTRACT: note_off channel=0 note=47 velocity=111 time=0
EXTRACT: note_on channel=0 note=61 velocity=111 time=0
EXTRACT: note_on channel=0 note=57 velocity=95 time=0
EXTRACT: note_on channel=0 note=52 velocity=111 time=0
EXTRACT: note_on channel=0 note=45 velocity=111 time=0
EXTRACT: note_off channel=4 note=71 velocity=95 time=0
EXTRACT: note_on channel=4 note=69 velocity=95 time=0
EXTRACT: note_off channel=6 note=88 velocity=95 time=0
EXTRACT: note_off channel=6 note=83 velocity=95 time=0
EXTRACT: note_on channel=6 note=76 velocity=95 time=0
EXTRACT: note_off channel=14 note=47 velocity=111 time=0
EXTRACT: note_on channel=14 note=52 velocity=111 time=0
EXTRACT: note_on channel=9 note=35 velocity=95 time=0
EXTRACT: note_on channel=9 note=43 velocity=95 time=0
EXTRACT: note_on channel=9 note=44 velocity=95 time=0
EXTRACT: note_off channel=0 note=61 velocity=111 time=0.14150925
EXTRACT: note_off channel=0 note=57 velocity=95 time=0
EXTRACT: note_off channel=0 note=52 velocity=111 time=0
EXTRACT: note_off channel=0 note=45 velocity=111 time=0
EXTRACT: note_on channel=0 note=61 velocity=111 time=0
EXTRACT: note_on channel=0 note=57 velocity=111 time=0
EXTRACT: note_on channel=0 note=52 velocity=111 time=0
EXTRACT: note_off channel=6 note=76 velocity=95 time=0
EXTRACT: note_off channel=9 note=35 velocity=95 time=0
EXTRACT: note_off channel=9 note=43 velocity=95 time=0
EXTRACT: note_off channel=9 note=44 velocity=95 time=0
EXTRACT: note_on channel=9 note=0 velocity=95 time=0
EXTRACT: note_on channel=9 note=43 velocity=95 time=0
EXTRACT: note_on channel=9 note=46 velocity=95 time=0
EXTRACT: note_off channel=0 note=61 velocity=111 time=0.14150925
EXTRACT: note_off channel=0 note=57 velocity=111 time=0
EXTRACT: note_off channel=0 note=52 velocity=111 time=0
EXTRACT: note_on channel=0 note=61 velocity=111 time=0
EXTRACT: note_on channel=0 note=57 velocity=95 time=0
EXTRACT: note_on channel=0 note=52 velocity=111 time=0
EXTRACT: note_on channel=0 note=45 velocity=111 time=0
EXTRACT: note_off channel=4 note=69 velocity=95 time=0
EXTRACT: note_on channel=6 note=85 velocity=95 time=0
EXTRACT: note_on channel=6 note=81 velocity=95 time=0
EXTRACT: note_on channel=6 note=76 velocity=95 time=0
EXTRACT: note_off channel=14 note=52 velocity=111 time=0
EXTRACT: note_on channel=14 note=33 velocity=111 time=0
EXTRACT: note_off channel=9 note=0 velocity=95 time=0
EXTRACT: note_off channel=9 note=43 velocity=95 time=0
EXTRACT: note_off channel=9 note=46 velocity=95 time=0
EXTRACT: note_on channel=9 note=0 velocity=95 time=0
EXTRACT: note_on channel=9 note=35 velocity=95 time=0
EXTRACT: note_on channel=9 note=44 velocity=95 time=0
EXTRACT: note_on channel=9 note=49 velocity=95 time=0
EXTRACT: note_on channel=9 note=55 velocity=95 time=0
EXTRACT: note_off channel=9 note=0 velocity=95 time=0.14150925
EXTRACT: note_off channel=9 note=35 velocity=95 time=0
EXTRACT: note_off channel=9 note=44 velocity=95 time=0
EXTRACT: note_off channel=9 note=49 velocity=95 time=0
EXTRACT: note_off channel=9 note=55 velocity=95 time=0
EXTRACT: note_on channel=4 note=69 velocity=95 time=0.14150925
EXTRACT: note_off channel=14 note=33 velocity=111 time=0
EXTRACT: note_on channel=14 note=33 velocity=111 time=0
EXTRACT: note_on channel=9 note=35 velocity=95 time=0
EXTRACT: note_on channel=9 note=44 velocity=95 time=0
EXTRACT: note_off channel=4 note=69 velocity=95 time=0.14150925
EXTRACT: note_on channel=4 note=69 velocity=95 time=0
EXTRACT: note_off channel=14 note=33 velocity=111 time=0
EXTRACT: note_on channel=14 note=33 velocity=111 time=0
EXTRACT: note_off channel=9 note=35 velocity=95 time=0
EXTRACT: note_off channel=9 note=44 velocity=95 time=0
EXTRACT: note_off channel=0 note=61 velocity=111 time=0.14150925
EXTRACT: note_off channel=0 note=57 velocity=95 time=0
EXTRACT: note_off channel=0 note=52 velocity=111 time=0
EXTRACT: note_off channel=0 note=45 velocity=111 time=0
EXTRACT: note_on channel=0 note=61 velocity=111 time=0
EXTRACT: note_on channel=0 note=57 velocity=111 time=0
EXTRACT: note_on channel=0 note=52 velocity=111 time=0
EXTRACT: note_on channel=0 note=45 velocity=111 time=0
EXTRACT: note_off channel=4 note=69 velocity=95 time=0
EXTRACT: note_on channel=4 note=69 velocity=95 time=0
EXTRACT: note_off channel=14 note=33 velocity=111 time=0
EXTRACT: note_on channel=14 note=33 velocity=111 time=0
EXTRACT: note_on channel=9 note=40 velocity=95 time=0
EXTRACT: note_on channel=9 note=44 velocity=95 time=0
EXTRACT: note_off channel=4 note=69 velocity=95 time=0.14150925
EXTRACT: note_off channel=9 note=40 velocity=95 time=0
EXTRACT: note_off channel=9 note=44 velocity=95 time=0
EXTRACT: note_off channel=0 note=61 velocity=111 time=0.14150925
EXTRACT: note_off channel=0 note=57 velocity=111 time=0
EXTRACT: note_off channel=0 note=52 velocity=111 time=0
EXTRACT: note_off channel=0 note=45 velocity=111 time=0
EXTRACT: note_on channel=0 note=59 velocity=95 time=0
EXTRACT: note_on channel=0 note=55 velocity=111 time=0
EXTRACT: note_on channel=0 note=50 velocity=111 time=0
EXTRACT: note_on channel=0 note=45 velocity=111 time=0
EXTRACT: note_on channel=4 note=69 velocity=95 time=0
EXTRACT: note_on channel=9 note=35 velocity=95 time=0
EXTRACT: note_on channel=9 note=44 velocity=95 time=0
EXTRACT: note_off channel=0 note=59 velocity=95 time=0.031249959375
EXTRACT: note_off channel=0 note=55 velocity=111 time=0
EXTRACT: note_off channel=0 note=50 velocity=111 time=0
EXTRACT: note_off channel=0 note=45 velocity=111 time=0
EXTRACT: note_on channel=0 note=61 velocity=111 time=0.110259290625
EXTRACT: note_on channel=0 note=57 velocity=95 time=0
EXTRACT: note_off channel=4 note=69 velocity=95 time=0
EXTRACT: note_on channel=4 note=69 velocity=95 time=0
EXTRACT: note_off channel=6 note=85 velocity=95 time=0
EXTRACT: note_off channel=6 note=81 velocity=95 time=0
EXTRACT: note_off channel=6 note=76 velocity=95 time=0
EXTRACT: note_off channel=14 note=33 velocity=111 time=0
EXTRACT: note_on channel=14 note=40 velocity=111 time=0
EXTRACT: note_off channel=9 note=35 velocity=95 time=0
EXTRACT: note_off channel=9 note=44 velocity=95 time=0
EXTRACT: note_on channel=9 note=0 velocity=95 time=0
EXTRACT: note_on channel=9 note=35 velocity=95 time=0
EXTRACT: note_on channel=9 note=44 velocity=95 time=0
EXTRACT: note_off channel=0 note=61 velocity=111 time=0.14150925
EXTRACT: note_off channel=0 note=57 velocity=95 time=0
EXTRACT: note_off channel=4 note=69 velocity=95 time=0
EXTRACT: note_on channel=4 note=68 velocity=95 time=0
EXTRACT: note_off channel=14 note=40 velocity=111 time=0
EXTRACT: note_off channel=9 note=0 velocity=95 time=0
EXTRACT: note_off channel=9 note=35 velocity=95 time=0
EXTRACT: note_off channel=9 note=44 velocity=95 time=0
EXTRACT: note_on channel=9 note=0 velocity=95 time=0
EXTRACT: note_on channel=9 note=44 velocity=95 time=0
EXTRACT: note_on channel=0 note=59 velocity=111 time=0.14150925
EXTRACT: note_on channel=0 note=56 velocity=111 time=0
EXTRACT: note_on channel=0 note=52 velocity=111 time=0
EXTRACT: note_on channel=6 note=83 velocity=95 time=0
EXTRACT: note_on channel=6 note=80 velocity=95 time=0
EXTRACT: note_on channel=14 note=40 velocity=111 time=0
EXTRACT: note_off channel=0 note=59 velocity=111 time=0.14150925
EXTRACT: note_off channel=0 note=56 velocity=111 time=0
EXTRACT: note_off channel=0 note=52 velocity=111 time=0
EXTRACT: note_on channel=0 note=59 velocity=95 time=0
EXTRACT: note_on channel=0 note=56 velocity=111 time=0
EXTRACT: note_on channel=0 note=52 velocity=111 time=0
EXTRACT: note_on channel=0 note=47 velocity=111 time=0
EXTRACT: note_off channel=4 note=68 velocity=95 time=0
EXTRACT: note_on channel=4 note=66 velocity=95 time=0
EXTRACT: note_off channel=6 note=83 velocity=95 time=0
EXTRACT: note_off channel=6 note=80 velocity=95 time=0
EXTRACT: note_off channel=14 note=40 velocity=111 time=0
EXTRACT: note_on channel=14 note=40 velocity=111 time=0
EXTRACT: note_off channel=9 note=0 velocity=95 time=0
EXTRACT: note_off channel=9 note=44 velocity=95 time=0
EXTRACT: note_on channel=9 note=0 velocity=95 time=0
EXTRACT: note_on channel=9 note=35 velocity=95 time=0
EXTRACT: note_on channel=9 note=44 velocity=95 time=0
EXTRACT: note_off channel=4 note=66 velocity=95 time=0.14150925
EXTRACT: note_on channel=4 note=64 velocity=95 time=0
EXTRACT: note_off channel=9 note=0 velocity=95 time=0
EXTRACT: note_off channel=9 note=35 velocity=95 time=0
EXTRACT: note_off channel=9 note=44 velocity=95 time=0
EXTRACT: note_off channel=0 note=59 velocity=95 time=0.14150925
EXTRACT: note_off channel=0 note=56 velocity=111 time=0
EXTRACT: note_off channel=0 note=52 velocity=111 time=0
EXTRACT: note_off channel=0 note=47 velocity=111 time=0
EXTRACT: note_on channel=0 note=59 velocity=111 time=0
EXTRACT: note_on channel=0 note=56 velocity=95 time=0
EXTRACT: note_on channel=0 note=52 velocity=111 time=0
EXTRACT: note_on channel=0 note=47 velocity=111 time=0
EXTRACT: note_on channel=6 note=83 velocity=95 time=0
EXTRACT: note_on channel=6 note=80 velocity=95 time=0
EXTRACT: note_on channel=9 note=40 velocity=95 time=0
EXTRACT: note_on channel=9 note=44 velocity=95 time=0
EXTRACT: note_off channel=4 note=64 velocity=95 time=0.14150925
EXTRACT: note_on channel=4 note=66 velocity=95 time=0
EXTRACT: note_off channel=9 note=40 velocity=95 time=0
EXTRACT: note_off channel=9 note=44 velocity=95 time=0
EXTRACT: note_off channel=0 note=59 velocity=111 time=0.14150925
EXTRACT: note_off channel=0 note=56 velocity=95 time=0
EXTRACT: note_off channel=0 note=52 velocity=111 time=0
EXTRACT: note_off channel=0 note=47 velocity=111 time=0
EXTRACT: note_on channel=0 note=59 velocity=111 time=0
EXTRACT: note_on channel=0 note=56 velocity=95 time=0
EXTRACT: note_on channel=0 note=52 velocity=111 time=0
EXTRACT: note_off channel=4 note=66 velocity=95 time=0
EXTRACT: note_off channel=6 note=83 velocity=95 time=0
EXTRACT: note_off channel=6 note=80 velocity=95 time=0
EXTRACT: note_on channel=6 note=76 velocity=95 time=0
EXTRACT: note_on channel=9 note=35 velocity=95 time=0
EXTRACT: note_on channel=9 note=44 velocity=95 time=0
EXTRACT: note_off channel=0 note=59 velocity=111 time=0.14150925
EXTRACT: note_off channel=0 note=56 velocity=95 time=0
EXTRACT: note_off channel=0 note=52 velocity=111 time=0
EXTRACT: note_on channel=0 note=59 velocity=111 time=0
EXTRACT: note_on channel=0 note=56 velocity=111 time=0
EXTRACT: note_on channel=0 note=52 velocity=111 time=0
EXTRACT: note_on channel=4 note=66 velocity=95 time=0
EXTRACT: note_off channel=9 note=35 velocity=95 time=0
EXTRACT: note_off channel=9 note=44 velocity=95 time=0
EXTRACT: note_on channel=9 note=0 velocity=95 time=0
EXTRACT: note_on channel=9 note=35 velocity=95 time=0
EXTRACT: note_on channel=9 note=44 velocity=95 time=0
EXTRACT: note_off channel=0 note=59 velocity=111 time=0.14150925
EXTRACT: note_off channel=0 note=56 velocity=111 time=0
EXTRACT: note_off channel=0 note=52 velocity=111 time=0
EXTRACT: note_on channel=0 note=62 velocity=111 time=0
EXTRACT: note_on channel=0 note=57 velocity=95 time=0
EXTRACT: note_on channel=0 note=50 velocity=111 time=0
EXTRACT: note_off channel=6 note=76 velocity=95 time=0
EXTRACT: note_on channel=6 note=86 velocity=95 time=0
EXTRACT: note_on channel=6 note=81 velocity=95 time=0
EXTRACT: note_on channel=6 note=78 velocity=95 time=0
EXTRACT: note_off channel=14 note=40 velocity=111 time=0
EXTRACT: note_on channel=14 note=38 velocity=111 time=0
EXTRACT: note_off channel=9 note=0 velocity=95 time=0
EXTRACT: note_off channel=9 note=35 velocity=95 time=0
EXTRACT: note_off channel=9 note=44 velocity=95 time=0
EXTRACT: note_on channel=9 note=0 velocity=95 time=0
EXTRACT: note_on channel=9 note=44 velocity=95 time=0
EXTRACT: note_off channel=4 note=66 velocity=95 time=0.2830185
EXTRACT: note_off channel=14 note=38 velocity=111 time=0
EXTRACT: note_on channel=14 note=38 velocity=111 time=0
EXTRACT: note_off channel=9 note=0 velocity=95 time=0
EXTRACT: note_off channel=9 note=44 velocity=95 time=0
EXTRACT: note_on channel=9 note=0 velocity=95 time=0
EXTRACT: note_on channel=9 note=35 velocity=95 time=0
EXTRACT: note_on channel=9 note=44 velocity=95 time=0
EXTRACT: note_off channel=14 note=38 velocity=111 time=0.14150925
EXTRACT: note_on channel=14 note=38 velocity=111 time=0
EXTRACT: note_off channel=9 note=0 velocity=95 time=0
EXTRACT: note_off channel=9 note=35 velocity=95 time=0
EXTRACT: note_off channel=9 note=44 velocity=95 time=0
EXTRACT: note_off channel=0 note=62 velocity=111 time=0.14150925
EXTRACT: note_off channel=0 note=57 velocity=95 time=0
EXTRACT: note_off channel=0 note=50 velocity=111 time=0
EXTRACT: note_on channel=0 note=66 velocity=111 time=0
EXTRACT: note_on channel=0 note=62 velocity=111 time=0
EXTRACT: note_on channel=0 note=57 velocity=111 time=0
EXTRACT: note_off channel=14 note=38 velocity=111 time=0
EXTRACT: note_on channel=14 note=38 velocity=111 time=0
EXTRACT: note_on channel=9 note=40 velocity=95 time=0
EXTRACT: note_on channel=9 note=44 velocity=95 time=0
EXTRACT: note_off channel=9 note=40 velocity=95 time=0.14150925
EXTRACT: note_off channel=9 note=44 velocity=95 time=0
EXTRACT: note_off channel=0 note=66 velocity=111 time=0.14150925
EXTRACT: note_off channel=0 note=62 velocity=111 time=0
EXTRACT: note_off channel=0 note=57 velocity=111 time=0
EXTRACT: note_on channel=0 note=64 velocity=111 time=0
EXTRACT: note_on channel=0 note=59 velocity=95 time=0
EXTRACT: note_on channel=0 note=55 velocity=111 time=0
EXTRACT: note_on channel=2 note=57 velocity=95 time=0
EXTRACT: note_on channel=4 note=64 velocity=95 time=0
EXTRACT: note_off channel=6 note=86 velocity=95 time=0
EXTRACT: note_off channel=6 note=81 velocity=95 time=0
EXTRACT: note_off channel=6 note=78 velocity=95 time=0
EXTRACT: note_on channel=9 note=35 velocity=95 time=0
EXTRACT: note_on channel=9 note=44 velocity=95 time=0
EXTRACT: note_off channel=0 note=64 velocity=111 time=0.031249959375
EXTRACT: note_off channel=0 note=59 velocity=95 time=0
EXTRACT: note_off channel=0 note=55 velocity=111 time=0
EXTRACT: note_on channel=0 note=66 velocity=111 time=0.110259290625
EXTRACT: note_on channel=0 note=62 velocity=111 time=0
EXTRACT: note_on channel=0 note=57 velocity=95 time=0
EXTRACT: note_off channel=2 note=57 velocity=95 time=0
EXTRACT: note_on channel=2 note=57 velocity=95 time=0
EXTRACT: note_off channel=4 note=64 velocity=95 time=0
EXTRACT: note_on channel=4 note=64 velocity=95 time=0
EXTRACT: note_off channel=14 note=38 velocity=111 time=0
EXTRACT: note_on channel=14 note=40 velocity=111 time=0
EXTRACT: note_off channel=9 note=35 velocity=95 time=0
EXTRACT: note_off channel=9 note=44 velocity=95 time=0
EXTRACT: note_on channel=9 note=0 velocity=95 time=0
EXTRACT: note_on channel=9 note=35 velocity=95 time=0
EXTRACT: note_on channel=9 note=44 velocity=95 time=0
EXTRACT: note_off channel=0 note=66 velocity=111 time=0.14150925
EXTRACT: note_off channel=0 note=62 velocity=111 time=0
EXTRACT: note_off channel=0 note=57 velocity=95 time=0
EXTRACT: note_off channel=2 note=57 velocity=95 time=0
EXTRACT: note_on channel=2 note=59 velocity=95 time=0
EXTRACT: note_off channel=4 note=64 velocity=95 time=0
EXTRACT: note_on channel=4 note=66 velocity=95 time=0
EXTRACT: note_off channel=14 note=40 velocity=111 time=0
EXTRACT: note_off channel=9 note=0 velocity=95 time=0
EXTRACT: note_off channel=9 note=35 velocity=95 time=0
EXTRACT: note_off channel=9 note=44 velocity=95 time=0
EXTRACT: note_on channel=9 note=0 velocity=95 time=0
EXTRACT: note_on channel=9 note=44 velocity=95 time=0
EXTRACT: note_on channel=0 note=59 velocity=111 time=0.14150925
EXTRACT: note_on channel=0 note=56 velocity=111 time=0
EXTRACT: note_on channel=0 note=52 velocity=111 time=0
EXTRACT: note_on channel=6 note=88 velocity=95 time=0
EXTRACT: note_on channel=6 note=83 velocity=95 time=0
EXTRACT: note_on channel=14 note=40 velocity=111 time=0
EXTRACT: note_off channel=9 note=0 velocity=95 time=0
EXTRACT: note_off channel=9 note=44 velocity=95 time=0
EXTRACT: note_on channel=9 note=35 velocity=95 time=0
EXTRACT: note_off channel=0 note=59 velocity=111 time=0.14150925
EXTRACT: note_off channel=0 note=56 velocity=111 time=0
EXTRACT: note_off channel=0 note=52 velocity=111 time=0
EXTRACT: note_on channel=0 note=59 velocity=95 time=0
EXTRACT: note_on channel=0 note=56 velocity=111 time=0
EXTRACT: note_on channel=0 note=52 velocity=111 time=0
EXTRACT: note_on channel=0 note=47 velocity=111 time=0
EXTRACT: note_off channel=2 note=59 velocity=95 time=0
EXTRACT: note_on channel=2 note=61 velocity=95 time=0
EXTRACT: note_off channel=4 note=66 velocity=95 time=0
EXTRACT: note_on channel=4 note=69 velocity=95 time=0
EXTRACT: note_off channel=6 note=88 velocity=95 time=0
EXTRACT: note_off channel=6 note=83 velocity=95 time=0
EXTRACT: note_off channel=14 note=40 velocity=111 time=0
EXTRACT: note_on channel=14 note=40 velocity=111 time=0
EXTRACT: note_off channel=9 note=35 velocity=95 time=0
EXTRACT: note_on channel=9 note=0 velocity=95 time=0
EXTRACT: note_on channel=9 note=35 velocity=95 time=0
EXTRACT: note_on channel=9 note=44 velocity=95 time=0
EXTRACT: note_off channel=2 note=61 velocity=95 time=0.14150925
EXTRACT: note_off channel=4 note=69 velocity=95 time=0
EXTRACT: note_on channel=6 note=76 velocity=95 time=0
EXTRACT: note_off channel=9 note=0 velocity=95 time=0
EXTRACT: note_off channel=9 note=35 velocity=95 time=0
EXTRACT: note_off channel=9 note=44 velocity=95 time=0
EXTRACT: note_off channel=0 note=59 velocity=95 time=0.14150925
EXTRACT: note_off channel=0 note=56 velocity=111 time=0
EXTRACT: note_off channel=0 note=52 velocity=111 time=0
EXTRACT: note_off channel=0 note=47 velocity=111 time=0
EXTRACT: note_on channel=0 note=59 velocity=111 time=0
EXTRACT: note_on channel=0 note=56 velocity=95 time=0
EXTRACT: note_on channel=0 note=52 velocity=111 time=0
EXTRACT: note_on channel=0 note=47 velocity=111 time=0
EXTRACT: note_on channel=2 note=61 velocity=95 time=0
EXTRACT: note_on channel=4 note=69 velocity=95 time=0
EXTRACT: note_off channel=6 note=76 velocity=95 time=0
EXTRACT: note_on channel=6 note=88 velocity=95 time=0
EXTRACT: note_on channel=6 note=83 velocity=95 time=0
EXTRACT: note_on channel=9 note=40 velocity=95 time=0
EXTRACT: note_on channel=9 note=46 velocity=95 time=0
EXTRACT: note_off channel=0 note=59 velocity=111 time=0.2830185
EXTRACT: note_off channel=0 note=56 velocity=95 time=0
EXTRACT: note_off channel=0 note=52 velocity=111 time=0
EXTRACT: note_off channel=0 note=47 velocity=111 time=0
EXTRACT: note_on channel=0 note=61 velocity=111 time=0
EXTRACT: note_on channel=0 note=57 velocity=95 time=0
EXTRACT: note_on channel=0 note=52 velocity=111 time=0
EXTRACT: note_on channel=0 note=45 velocity=111 time=0
EXTRACT: note_off channel=2 note=61 velocity=95 time=0
EXTRACT: note_on channel=2 note=64 velocity=95 time=0
EXTRACT: note_off channel=4 note=69 velocity=95 time=0
EXTRACT: note_on channel=4 note=71 velocity=95 time=0
EXTRACT: note_off channel=6 note=88 velocity=95 time=0
EXTRACT: note_off channel=6 note=83 velocity=95 time=0
EXTRACT: note_on channel=6 note=76 velocity=95 time=0
EXTRACT: note_off channel=9 note=40 velocity=95 time=0
EXTRACT: note_off channel=9 note=46 velocity=95 time=0
EXTRACT: note_on channel=9 note=35 velocity=95 time=0
EXTRACT: note_on channel=9 note=44 velocity=95 time=0
EXTRACT: note_off channel=0 note=61 velocity=111 time=0.14150925
EXTRACT: note_off channel=0 note=57 velocity=95 time=0
EXTRACT: note_off channel=0 note=52 velocity=111 time=0
EXTRACT: note_off channel=0 note=45 velocity=111 time=0
EXTRACT: note_on channel=0 note=61 velocity=111 time=0
EXTRACT: note_on channel=0 note=57 velocity=111 time=0
EXTRACT: note_on channel=0 note=52 velocity=111 time=0
EXTRACT: note_off channel=4 note=71 velocity=95 time=0
EXTRACT: note_off channel=6 note=76 velocity=95 time=0
EXTRACT: note_off channel=9 note=35 velocity=95 time=0
EXTRACT: note_off channel=9 note=44 velocity=95 time=0
EXTRACT: note_on channel=9 note=0 velocity=95 time=0
EXTRACT: note_on channel=9 note=35 velocity=95 time=0
EXTRACT: note_on channel=9 note=44 velocity=95 time=0
EXTRACT: note_off channel=0 note=61 velocity=111 time=0.14150925
EXTRACT: note_off channel=0 note=57 velocity=111 time=0
EXTRACT: note_off channel=0 note=52 velocity=111 time=0
EXTRACT: note_on channel=0 note=61 velocity=111 time=0
EXTRACT: note_on channel=0 note=57 velocity=95 time=0
EXTRACT: note_on channel=0 note=52 velocity=111 time=0
EXTRACT: note_on channel=0 note=45 velocity=111 time=0
EXTRACT: note_off channel=2 note=64 velocity=95 time=0
EXTRACT: note_on channel=6 note=85 velocity=95 time=0
EXTRACT: note_on channel=6 note=81 velocity=95 time=0
EXTRACT: note_off channel=14 note=40 velocity=111 time=0
EXTRACT: note_on channel=14 note=33 velocity=111 time=0
EXTRACT: note_off channel=9 note=0 velocity=95 time=0
EXTRACT: note_off channel=9 note=35 velocity=95 time=0
EXTRACT: note_off channel=9 note=44 velocity=95 time=0
EXTRACT: note_on channel=9 note=0 velocity=95 time=0
EXTRACT: note_on channel=9 note=44 velocity=95 time=0
EXTRACT: note_on channel=2 note=57 velocity=95 time=0.2830185
EXTRACT: note_on channel=4 note=69 velocity=95 time=0
EXTRACT: note_off channel=14 note=33 velocity=111 time=0
EXTRACT: note_on channel=14 note=33 velocity=111 time=0
EXTRACT: note_off channel=9 note=0 velocity=95 time=0
EXTRACT: note_off channel=9 note=44 velocity=95 time=0
EXTRACT: note_on channel=9 note=0 velocity=95 time=0
EXTRACT: note_on channel=9 note=35 velocity=95 time=0
EXTRACT: note_on channel=9 note=44 velocity=95 time=0
EXTRACT: note_off channel=2 note=57 velocity=95 time=0.14150925
EXTRACT: note_off channel=4 note=69 velocity=95 time=0
EXTRACT: note_off channel=14 note=33 velocity=111 time=0
EXTRACT: note_on channel=14 note=33 velocity=111 time=0
EXTRACT: note_off channel=9 note=0 velocity=95 time=0
EXTRACT: note_off channel=9 note=35 velocity=95 time=0
EXTRACT: note_off channel=9 note=44 velocity=95 time=0
EXTRACT: note_off channel=0 note=61 velocity=111 time=0.14150925
EXTRACT: note_off channel=0 note=57 velocity=95 time=0
EXTRACT: note_off channel=0 note=52 velocity=111 time=0
EXTRACT: note_off channel=0 note=45 velocity=111 time=0
EXTRACT: note_on channel=0 note=61 velocity=111 time=0
EXTRACT: note_on channel=0 note=57 velocity=111 time=0
EXTRACT: note_on channel=0 note=52 velocity=111 time=0
EXTRACT: note_on channel=0 note=45 velocity=111 time=0
EXTRACT: note_on channel=2 note=64 velocity=95 time=0
EXTRACT: note_on channel=4 note=76 velocity=95 time=0
EXTRACT: note_off channel=14 note=33 velocity=111 time=0
EXTRACT: note_on channel=14 note=33 velocity=111 time=0
EXTRACT: note_on channel=9 note=40 velocity=95 time=0
EXTRACT: note_on channel=9 note=44 velocity=95 time=0
EXTRACT: note_off channel=9 note=40 velocity=95 time=0.14150925
EXTRACT: note_off channel=9 note=44 velocity=95 time=0
EXTRACT: note_off channel=0 note=61 velocity=111 time=0.14150925
EXTRACT: note_off channel=0 note=57 velocity=111 time=0
EXTRACT: note_off channel=0 note=52 velocity=111 time=0
EXTRACT: note_off channel=0 note=45 velocity=111 time=0
EXTRACT: note_on channel=0 note=59 velocity=95 time=0
EXTRACT: note_on channel=0 note=55 velocity=111 time=0
EXTRACT: note_on channel=0 note=50 velocity=111 time=0
EXTRACT: note_on channel=0 note=45 velocity=111 time=0
EXTRACT: note_on channel=9 note=35 velocity=95 time=0
EXTRACT: note_on channel=9 note=44 velocity=95 time=0
EXTRACT: note_off channel=0 note=59 velocity=95 time=0.031249959375
EXTRACT: note_off channel=0 note=55 velocity=111 time=0
EXTRACT: note_off channel=0 note=50 velocity=111 time=0
EXTRACT: note_off channel=0 note=45 velocity=111 time=0
EXTRACT: note_on channel=0 note=61 velocity=111 time=0.110259290625
EXTRACT: note_on channel=0 note=57 velocity=95 time=0
EXTRACT: note_off channel=2 note=64 velocity=95 time=0
EXTRACT: note_on channel=2 note=61 velocity=95 time=0
EXTRACT: note_off channel=4 note=76 velocity=95 time=0
EXTRACT: note_on channel=4 note=73 velocity=95 time=0
EXTRACT: note_off channel=6 note=85 velocity=95 time=0
EXTRACT: note_off channel=6 note=81 velocity=95 time=0
EXTRACT: note_off channel=14 note=33 velocity=111 time=0
EXTRACT: note_on channel=14 note=40 velocity=111 time=0
EXTRACT: note_off channel=9 note=35 velocity=95 time=0
EXTRACT: note_off channel=9 note=44 velocity=95 time=0
EXTRACT: note_on channel=9 note=0 velocity=95 time=0
EXTRACT: note_on channel=9 note=35 velocity=95 time=0
EXTRACT: note_on channel=9 note=44 velocity=95 time=0
EXTRACT: note_off channel=0 note=61 velocity=111 time=0.14150925
EXTRACT: note_off channel=0 note=57 velocity=95 time=0
EXTRACT: note_off channel=2 note=61 velocity=95 time=0
EXTRACT: note_on channel=2 note=64 velocity=95 time=0
EXTRACT: note_off channel=4 note=73 velocity=95 time=0
EXTRACT: note_on channel=4 note=76 velocity=95 time=0
EXTRACT: note_on channel=6 note=83 velocity=95 time=0
EXTRACT: note_on channel=6 note=80 velocity=95 time=0
EXTRACT: note_off channel=14 note=40 velocity=111 time=0
EXTRACT: note_off channel=9 note=0 velocity=95 time=0
EXTRACT: note_off channel=9 note=35 velocity=95 time=0
EXTRACT: note_off channel=9 note=44 velocity=95 time=0
EXTRACT: note_on channel=9 note=0 velocity=95 time=0
EXTRACT: note_on channel=9 note=44 velocity=95 time=0
EXTRACT: note_on channel=0 note=59 velocity=111 time=0.14150925
EXTRACT: note_on channel=0 note=56 velocity=111 time=0
EXTRACT: note_on channel=0 note=52 velocity=111 time=0
EXTRACT: note_on channel=14 note=40 velocity=111 time=0
EXTRACT: note_off channel=0 note=59 velocity=111 time=0.14150925
EXTRACT: note_off channel=0 note=56 velocity=111 time=0
EXTRACT: note_off channel=0 note=52 velocity=111 time=0
EXTRACT: note_on channel=0 note=59 velocity=95 time=0
EXTRACT: note_on channel=0 note=56 velocity=111 time=0
EXTRACT: note_on channel=0 note=52 velocity=111 time=0
EXTRACT: note_on channel=0 note=47 velocity=111 time=0
EXTRACT: note_off channel=2 note=64 velocity=95 time=0
EXTRACT: note_on channel=2 note=61 velocity=95 time=0
EXTRACT: note_off channel=4 note=76 velocity=95 time=0
EXTRACT: note_on channel=4 note=73 velocity=95 time=0
EXTRACT: note_off channel=14 note=40 velocity=111 time=0
EXTRACT: note_on channel=14 note=40 velocity=111 time=0
EXTRACT: note_off channel=9 note=0 velocity=95 time=0
EXTRACT: note_off channel=9 note=44 velocity=95 time=0
EXTRACT: note_on channel=9 note=0 velocity=95 time=0
EXTRACT: note_on channel=9 note=35 velocity=95 time=0
EXTRACT: note_on channel=9 note=44 velocity=95 time=0
EXTRACT: note_off channel=2 note=61 velocity=95 time=0.14150925
EXTRACT: note_off channel=4 note=73 velocity=95 time=0
EXTRACT: note_off channel=9 note=0 velocity=95 time=0
EXTRACT: note_off channel=9 note=35 velocity=95 time=0
EXTRACT: note_off channel=9 note=44 velocity=95 time=0
EXTRACT: note_off channel=0 note=59 velocity=95 time=0.14150925
EXTRACT: note_off channel=0 note=56 velocity=111 time=0
EXTRACT: note_off channel=0 note=52 velocity=111 time=0
EXTRACT: note_off channel=0 note=47 velocity=111 time=0
EXTRACT: note_on channel=0 note=59 velocity=111 time=0
EXTRACT: note_on channel=0 note=56 velocity=95 time=0
EXTRACT: note_on channel=0 note=52 velocity=111 time=0
EXTRACT: note_on channel=0 note=47 velocity=111 time=0
EXTRACT: note_on channel=2 note=61 velocity=95 time=0
EXTRACT: note_on channel=4 note=73 velocity=95 time=0
EXTRACT: note_on channel=9 note=40 velocity=95 time=0
EXTRACT: note_on channel=9 note=44 velocity=95 time=0
EXTRACT: note_off channel=2 note=61 velocity=95 time=0.14150925
EXTRACT: note_off channel=4 note=73 velocity=95 time=0
EXTRACT: note_off channel=9 note=40 velocity=95 time=0
EXTRACT: note_off channel=9 note=44 velocity=95 time=0
EXTRACT: note_off channel=0 note=59 velocity=111 time=0.14150925
EXTRACT: note_off channel=0 note=56 velocity=95 time=0
EXTRACT: note_off channel=0 note=52 velocity=111 time=0
EXTRACT: note_off channel=0 note=47 velocity=111 time=0
EXTRACT: note_on channel=0 note=59 velocity=111 time=0
EXTRACT: note_on channel=0 note=56 velocity=95 time=0
EXTRACT: note_on channel=0 note=52 velocity=111 time=0
EXTRACT: note_on channel=2 note=61 velocity=95 time=0
EXTRACT: note_on channel=4 note=73 velocity=95 time=0
EXTRACT: note_off channel=6 note=83 velocity=95 time=0
EXTRACT: note_off channel=6 note=80 velocity=95 time=0
EXTRACT: note_on channel=9 note=35 velocity=95 time=0
EXTRACT: note_on channel=9 note=44 velocity=95 time=0
EXTRACT: note_off channel=0 note=59 velocity=111 time=0.14150925
EXTRACT: note_off channel=0 note=56 velocity=95 time=0
EXTRACT: note_off channel=0 note=52 velocity=111 time=0
EXTRACT: note_on channel=0 note=59 velocity=111 time=0
EXTRACT: note_on channel=0 note=56 velocity=111 time=0
EXTRACT: note_on channel=0 note=52 velocity=111 time=0
EXTRACT: note_off channel=9 note=35 velocity=95 time=0
EXTRACT: note_off channel=9 note=44 velocity=95 time=0
EXTRACT: note_on channel=9 note=0 velocity=95 time=0
EXTRACT: note_on channel=9 note=35 velocity=95 time=0
EXTRACT: note_on channel=9 note=44 velocity=95 time=0
EXTRACT: note_off channel=0 note=59 velocity=111 time=0.14150925
EXTRACT: note_off channel=0 note=56 velocity=111 time=0
EXTRACT: note_off channel=0 note=52 velocity=111 time=0
EXTRACT: note_on channel=0 note=62 velocity=111 time=0
EXTRACT: note_on channel=0 note=57 velocity=95 time=0
EXTRACT: note_on channel=0 note=50 velocity=111 time=0
EXTRACT: note_off channel=2 note=61 velocity=95 time=0
EXTRACT: note_on channel=2 note=59 velocity=95 time=0
EXTRACT: note_off channel=4 note=73 velocity=95 time=0
EXTRACT: note_on channel=4 note=71 velocity=95 time=0
EXTRACT: note_on channel=6 note=86 velocity=95 time=0
EXTRACT: note_on channel=6 note=81 velocity=95 time=0
EXTRACT: note_off channel=14 note=40 velocity=111 time=0
EXTRACT: note_on channel=14 note=38 velocity=111 time=0
EXTRACT: note_off channel=9 note=0 velocity=95 time=0
EXTRACT: note_off channel=9 note=35 velocity=95 time=0
EXTRACT: note_off channel=9 note=44 velocity=95 time=0
EXTRACT: note_on channel=9 note=0 velocity=95 time=0
EXTRACT: note_on channel=9 note=44 velocity=95 time=0
EXTRACT: note_off channel=9 note=0 velocity=95 time=0.14150925
EXTRACT: note_off channel=9 note=44 velocity=95 time=0
EXTRACT: note_on channel=9 note=35 velocity=95 time=0
EXTRACT: note_off channel=2 note=59 velocity=95 time=0.14150925
EXTRACT: note_on channel=2 note=54 velocity=95 time=0
EXTRACT: note_off channel=4 note=71 velocity=95 time=0
EXTRACT: note_on channel=4 note=66 velocity=95 time=0
EXTRACT: note_off channel=14 note=38 velocity=111 time=0
EXTRACT: note_on channel=14 note=38 velocity=111 time=0
EXTRACT: note_off channel=9 note=35 velocity=95 time=0
EXTRACT: note_on channel=9 note=0 velocity=95 time=0
EXTRACT: note_on channel=9 note=35 velocity=95 time=0
EXTRACT: note_on channel=9 note=44 velocity=95 time=0
EXTRACT: note_off channel=14 note=38 velocity=111 time=0.14150925
EXTRACT: note_on channel=14 note=38 velocity=111 time=0
EXTRACT: note_off channel=9 note=0 velocity=95 time=0
EXTRACT: note_off channel=9 note=35 velocity=95 time=0
EXTRACT: note_off channel=9 note=44 velocity=95 time=0
EXTRACT: note_off channel=0 note=62 velocity=111 time=0.14150925
EXTRACT: note_off channel=0 note=57 velocity=95 time=0
EXTRACT: note_off channel=0 note=50 velocity=111 time=0
EXTRACT: note_on channel=0 note=66 velocity=111 time=0
EXTRACT: note_on channel=0 note=62 velocity=111 time=0
EXTRACT: note_on channel=0 note=57 velocity=111 time=0
EXTRACT: note_off channel=2 note=54 velocity=95 time=0
EXTRACT: note_off channel=4 note=66 velocity=95 time=0
EXTRACT: note_off channel=14 note=38 velocity=111 time=0
EXTRACT: note_on channel=14 note=38 velocity=111 time=0
EXTRACT: note_on channel=9 note=40 velocity=95 time=0
EXTRACT: note_on channel=9 note=44 velocity=95 time=0
EXTRACT: note_off channel=9 note=40 velocity=95 time=0.14150925
EXTRACT: note_off channel=9 note=44 velocity=95 time=0
EXTRACT: note_off channel=0 note=66 velocity=111 time=0.14150925
EXTRACT: note_off channel=0 note=62 velocity=111 time=0
EXTRACT: note_off channel=0 note=57 velocity=111 time=0
EXTRACT: note_on channel=0 note=64 velocity=111 time=0
EXTRACT: note_on channel=0 note=59 velocity=95 time=0
EXTRACT: note_on channel=0 note=55 velocity=111 time=0
EXTRACT: note_on channel=4 note=64 velocity=95 time=0
EXTRACT: note_off channel=6 note=86 velocity=95 time=0
EXTRACT: note_off channel=6 note=81 velocity=95 time=0
EXTRACT: note_on channel=9 note=35 velocity=95 time=0
EXTRACT: note_on channel=9 note=44 velocity=95 time=0
EXTRACT: note_off channel=0 note=64 velocity=111 time=0.031249959375
EXTRACT: note_off channel=0 note=59 velocity=95 time=0
EXTRACT: note_off channel=0 note=55 velocity=111 time=0
EXTRACT: note_on channel=0 note=66 velocity=111 time=0.110259290625
EXTRACT: note_on channel=0 note=62 velocity=111 time=0
EXTRACT: note_on channel=0 note=57 velocity=95 time=0
EXTRACT: note_off channel=4 note=64 velocity=95 time=0
EXTRACT: note_on channel=4 note=64 velocity=95 time=0
EXTRACT: note_off channel=14 note=38 velocity=111 time=0
EXTRACT: note_on channel=14 note=40 velocity=111 time=0
EXTRACT: note_off channel=9 note=35 velocity=95 time=0
EXTRACT: note_off channel=9 note=44 velocity=95 time=0
EXTRACT: note_on channel=9 note=0 velocity=95 time=0
EXTRACT: note_on channel=9 note=35 velocity=95 time=0
EXTRACT: note_on channel=9 note=44 velocity=95 time=0
EXTRACT: note_off channel=0 note=66 velocity=111 time=0.14150925
EXTRACT: note_off channel=0 note=62 velocity=111 time=0
EXTRACT: note_off channel=0 note=57 velocity=95 time=0
EXTRACT: note_off channel=4 note=64 velocity=95 time=0
EXTRACT: note_on channel=4 note=66 velocity=95 time=0
EXTRACT: note_off channel=14 note=40 velocity=111 time=0
EXTRACT: note_off channel=9 note=0 velocity=95 time=0
EXTRACT: note_off channel=9 note=35 velocity=95 time=0
EXTRACT: note_off channel=9 note=44 velocity=95 time=0
EXTRACT: note_on channel=9 note=0 velocity=95 time=0
EXTRACT: note_on channel=9 note=44 velocity=95 time=0
EXTRACT: note_on channel=0 note=59 velocity=111 time=0.14150925
EXTRACT: note_on channel=0 note=56 velocity=111 time=0
EXTRACT: note_on channel=0 note=52 velocity=111 time=0
EXTRACT: note_on channel=6 note=83 velocity=95 time=0
EXTRACT: note_on channel=6 note=80 velocity=95 time=0
EXTRACT: note_on channel=14 note=40 velocity=111 time=0
EXTRACT: note_off channel=9 note=0 velocity=95 time=0
EXTRACT: note_off channel=9 note=44 velocity=95 time=0
EXTRACT: note_on channel=9 note=0 velocity=95 time=0
EXTRACT: note_on channel=9 note=35 velocity=95 time=0
EXTRACT: note_on channel=9 note=44 velocity=95 time=0
EXTRACT: note_off channel=0 note=59 velocity=111 time=0.14150925
EXTRACT: note_off channel=0 note=56 velocity=111 time=0
EXTRACT: note_off channel=0 note=52 velocity=111 time=0
EXTRACT: note_on channel=0 note=59 velocity=95 time=0
EXTRACT: note_on channel=0 note=56 velocity=111 time=0
EXTRACT: note_on channel=0 note=52 velocity=111 time=0
EXTRACT: note_on channel=0 note=47 velocity=111 time=0
EXTRACT: note_off channel=4 note=66 velocity=95 time=0
EXTRACT: note_on channel=4 note=69 velocity=95 time=0
EXTRACT: note_off channel=6 note=83 velocity=95 time=0
EXTRACT: note_off channel=6 note=80 velocity=95 time=0
EXTRACT: note_off channel=14 note=40 velocity=111 time=0
EXTRACT: note_on channel=14 note=40 velocity=111 time=0
EXTRACT: note_off channel=9 note=0 velocity=95 time=0
EXTRACT: note_off channel=9 note=35 velocity=95 time=0
EXTRACT: note_off channel=9 note=44 velocity=95 time=0
EXTRACT: note_on channel=9 note=0 velocity=95 time=0
EXTRACT: note_on channel=9 note=40 velocity=95 time=0
EXTRACT: note_on channel=9 note=46 velocity=95 time=0
EXTRACT: note_off channel=4 note=69 velocity=95 time=0.14150925
EXTRACT: note_on channel=6 note=76 velocity=95 time=0
EXTRACT: note_off channel=9 note=0 velocity=95 time=0
EXTRACT: note_off channel=9 note=40 velocity=95 time=0
EXTRACT: note_off channel=9 note=46 velocity=95 time=0
EXTRACT: note_on channel=9 note=0 velocity=95 time=0
EXTRACT: note_on channel=9 note=40 velocity=95 time=0
EXTRACT: note_off channel=0 note=59 velocity=95 time=0.14150925
EXTRACT: note_off channel=0 note=56 velocity=111 time=0
EXTRACT: note_off channel=0 note=52 velocity=111 time=0
EXTRACT: note_off channel=0 note=47 velocity=111 time=0
EXTRACT: note_on channel=0 note=59 velocity=111 time=0
EXTRACT: note_on channel=0 note=56 velocity=95 time=0
EXTRACT: note_on channel=0 note=52 velocity=111 time=0
EXTRACT: note_on channel=0 note=47 velocity=111 time=0
EXTRACT: note_on channel=4 note=69 velocity=95 time=0
EXTRACT: note_off channel=6 note=76 velocity=95 time=0
EXTRACT: note_on channel=6 note=83 velocity=95 time=0
EXTRACT: note_on channel=6 note=80 velocity=95 time=0
EXTRACT: note_off channel=9 note=0 velocity=95 time=0
EXTRACT: note_off channel=9 note=40 velocity=95 time=0
EXTRACT: note_on channel=9 note=0 velocity=95 time=0
EXTRACT: note_on channel=9 note=40 velocity=95 time=0
EXTRACT: note_on channel=9 note=44 velocity=95 time=0
EXTRACT: note_off channel=9 note=0 velocity=95 time=0.14150925
EXTRACT: note_off channel=9 note=40 velocity=95 time=0
EXTRACT: note_off channel=9 note=44 velocity=95 time=0
EXTRACT: note_on channel=9 note=0 velocity=95 time=0
EXTRACT: note_on channel=9 note=40 velocity=95 time=0
EXTRACT: note_on channel=9 note=44 velocity=95 time=0
EXTRACT: note_off channel=0 note=59 velocity=111 time=0.14150925
EXTRACT: note_off channel=0 note=56 velocity=95 time=0
EXTRACT: note_off channel=0 note=52 velocity=111 time=0
EXTRACT: note_off channel=0 note=47 velocity=111 time=0
EXTRACT: note_on channel=0 note=61 velocity=111 time=0
EXTRACT: note_on channel=0 note=57 velocity=95 time=0
EXTRACT: note_on channel=0 note=52 velocity=111 time=0
EXTRACT: note_on channel=0 note=45 velocity=111 time=0
EXTRACT: note_off channel=4 note=69 velocity=95 time=0
EXTRACT: note_on channel=4 note=71 velocity=95 time=0
EXTRACT: note_off channel=6 note=83 velocity=95 time=0
EXTRACT: note_off channel=6 note=80 velocity=95 time=0
EXTRACT: note_on channel=6 note=76 velocity=95 time=0
EXTRACT: note_off channel=9 note=0 velocity=95 time=0
EXTRACT: note_off channel=9 note=40 velocity=95 time=0
EXTRACT: note_off channel=9 note=44 velocity=95 time=0
EXTRACT: note_on channel=9 note=0 velocity=95 time=0
EXTRACT: note_on channel=9 note=40 velocity=95 time=0
EXTRACT: note_on channel=9 note=43 velocity=95 time=0
EXTRACT: note_on channel=9 note=45 velocity=95 time=0
EXTRACT: note_on channel=9 note=46 velocity=95 time=0
EXTRACT: note_off channel=0 note=61 velocity=111 time=0.14150925
EXTRACT: note_off channel=0 note=57 velocity=95 time=0
EXTRACT: note_off channel=0 note=52 velocity=111 time=0
EXTRACT: note_off channel=0 note=45 velocity=111 time=0
EXTRACT: note_on channel=0 note=61 velocity=111 time=0
EXTRACT: note_on channel=0 note=57 velocity=111 time=0
EXTRACT: note_on channel=0 note=52 velocity=111 time=0
EXTRACT: note_off channel=4 note=71 velocity=95 time=0
EXTRACT: note_off channel=6 note=76 velocity=95 time=0
EXTRACT: note_off channel=9 note=0 velocity=95 time=0
EXTRACT: note_off channel=9 note=40 velocity=95 time=0
EXTRACT: note_off channel=9 note=43 velocity=95 time=0
EXTRACT: note_off channel=9 note=45 velocity=95 time=0
EXTRACT: note_off channel=9 note=46 velocity=95 time=0
EXTRACT: note_on channel=9 note=0 velocity=95 time=0
EXTRACT: note_on channel=9 note=40 velocity=95 time=0
EXTRACT: note_on channel=9 note=43 velocity=95 time=0
EXTRACT: note_off channel=0 note=61 velocity=111 time=0.14150925
EXTRACT: note_off channel=0 note=57 velocity=111 time=0
EXTRACT: note_off channel=0 note=52 velocity=111 time=0
EXTRACT: note_on channel=0 note=57 velocity=111 time=0
EXTRACT: note_on channel=6 note=85 velocity=95 time=0
EXTRACT: note_on channel=6 note=81 velocity=95 time=0
EXTRACT: note_on channel=6 note=76 velocity=95 time=0
EXTRACT: note_off channel=14 note=40 velocity=111 time=0
EXTRACT: note_on channel=14 note=33 velocity=111 time=0
EXTRACT: note_off channel=9 note=0 velocity=95 time=0
EXTRACT: note_off channel=9 note=40 velocity=95 time=0
EXTRACT: note_off channel=9 note=43 velocity=95 time=0
EXTRACT: note_on channel=9 note=0 velocity=95 time=0
EXTRACT: note_on channel=9 note=35 velocity=95 time=0
EXTRACT: note_on channel=9 note=44 velocity=95 time=0
EXTRACT: note_on channel=9 note=49 velocity=95 time=0
EXTRACT: note_on channel=9 note=55 velocity=95 time=0
EXTRACT: note_off channel=9 note=0 velocity=95 time=0.14150925
EXTRACT: note_off channel=9 note=35 velocity=95 time=0
EXTRACT: note_off channel=9 note=44 velocity=95 time=0
EXTRACT: note_off channel=9 note=49 velocity=95 time=0
EXTRACT: note_off channel=9 note=55 velocity=95 time=0
EXTRACT: note_off channel=0 note=57 velocity=111 time=0.14150925
EXTRACT: note_on channel=0 note=64 velocity=95 time=0
EXTRACT: note_on channel=2 note=64 velocity=95 time=0
EXTRACT: note_on channel=4 note=73 velocity=95 time=0
EXTRACT: note_off channel=14 note=33 velocity=111 time=0
EXTRACT: note_on channel=14 note=33 velocity=111 time=0
EXTRACT: note_on channel=9 note=35 velocity=95 time=0
EXTRACT: note_on channel=9 note=44 velocity=95 time=0
EXTRACT: note_off channel=14 note=33 velocity=111 time=0.14150925
EXTRACT: note_on channel=14 note=33 velocity=111 time=0
EXTRACT: note_off channel=9 note=35 velocity=95 time=0
EXTRACT: note_off channel=9 note=44 velocity=95 time=0
EXTRACT: note_off channel=0 note=64 velocity=95 time=0.14150925
EXTRACT: note_on channel=0 note=61 velocity=95 time=0
EXTRACT: note_off channel=14 note=33 velocity=111 time=0
EXTRACT: note_on channel=14 note=33 velocity=111 time=0
EXTRACT: note_on channel=9 note=40 velocity=95 time=0
EXTRACT: note_on channel=9 note=44 velocity=95 time=0
EXTRACT: note_off channel=9 note=40 velocity=95 time=0.14150925
EXTRACT: note_off channel=9 note=44 velocity=95 time=0
EXTRACT: note_off channel=0 note=61 velocity=95 time=0.14150925
EXTRACT: note_on channel=1 note=57 velocity=95 time=0
EXTRACT: note_on channel=9 note=35 velocity=95 time=0
EXTRACT: note_on channel=9 note=44 velocity=95 time=0
EXTRACT: pitchwheel channel=1 pitch=-256 time=0.070754625
EXTRACT: pitchwheel channel=1 pitch=-640 time=0.070754625
EXTRACT: pitchwheel channel=1 pitch=0 time=0
EXTRACT: note_off channel=1 note=57 velocity=95 time=0
EXTRACT: note_on channel=0 note=56 velocity=95 time=0
EXTRACT: note_off channel=6 note=85 velocity=95 time=0
EXTRACT: note_off channel=6 note=81 velocity=95 time=0
EXTRACT: note_off channel=6 note=76 velocity=95 time=0
EXTRACT: note_off channel=14 note=33 velocity=111 time=0
EXTRACT: note_on channel=14 note=40 velocity=111 time=0
EXTRACT: note_off channel=9 note=35 velocity=95 time=0
EXTRACT: note_off channel=9 note=44 velocity=95 time=0
EXTRACT: note_on channel=9 note=0 velocity=95 time=0
EXTRACT: note_on channel=9 note=35 velocity=95 time=0
EXTRACT: note_on channel=9 note=44 velocity=95 time=0
EXTRACT: note_off channel=14 note=40 velocity=111 time=0.14150925
EXTRACT: note_off channel=9 note=0 velocity=95 time=0
EXTRACT: note_off channel=9 note=35 velocity=95 time=0
EXTRACT: note_off channel=9 note=44 velocity=95 time=0
EXTRACT: note_on channel=9 note=0 velocity=95 time=0
EXTRACT: note_on channel=9 note=44 velocity=95 time=0
EXTRACT: note_off channel=4 note=73 velocity=95 time=0.14150925
EXTRACT: note_on channel=6 note=83 velocity=95 time=0
EXTRACT: note_on channel=6 note=80 velocity=95 time=0
EXTRACT: note_on channel=14 note=40 velocity=111 time=0
EXTRACT: note_off channel=0 note=56 velocity=95 time=0.14150925
EXTRACT: note_on channel=0 note=64 velocity=95 time=0
EXTRACT: note_off channel=2 note=64 velocity=95 time=0
EXTRACT: note_on channel=2 note=64 velocity=95 time=0
EXTRACT: note_on channel=4 note=71 velocity=95 time=0
EXTRACT: note_off channel=6 note=83 velocity=95 time=0
EXTRACT: note_off channel=6 note=80 velocity=95 time=0
EXTRACT: note_off channel=14 note=40 velocity=111 time=0
EXTRACT: note_on channel=14 note=40 velocity=111 time=0
EXTRACT: note_off channel=9 note=0 velocity=95 time=0
EXTRACT: note_off channel=9 note=44 velocity=95 time=0
EXTRACT: note_on channel=9 note=0 velocity=95 time=0
EXTRACT: note_on channel=9 note=35 velocity=95 time=0
EXTRACT: note_on channel=9 note=44 velocity=95 time=0
EXTRACT: note_off channel=9 note=0 velocity=95 time=0.14150925
EXTRACT: note_off channel=9 note=35 velocity=95 time=0
EXTRACT: note_off channel=9 note=44 velocity=95 time=0
EXTRACT: note_off channel=0 note=64 velocity=95 time=0.14150925
EXTRACT: note_on channel=0 note=59 velocity=95 time=0
EXTRACT: note_on channel=6 note=83 velocity=95 time=0
EXTRACT: note_on channel=6 note=80 velocity=95 time=0
EXTRACT: note_on channel=9 note=40 velocity=95 time=0
EXTRACT: note_on channel=9 note=44 velocity=95 time=0
EXTRACT: note_off channel=2 note=64 velocity=95 time=0.14150925
EXTRACT: note_on channel=2 note=59 velocity=95 time=0
EXTRACT: note_off channel=4 note=71 velocity=95 time=0
EXTRACT: note_on channel=4 note=69 velocity=95 time=0
EXTRACT: note_off channel=9 note=40 velocity=95 time=0
EXTRACT: note_off channel=9 note=44 velocity=95 time=0
EXTRACT: note_off channel=0 note=59 velocity=95 time=0.14150925
EXTRACT: note_on channel=1 note=56 velocity=95 time=0
EXTRACT: note_off channel=6 note=83 velocity=95 time=0
EXTRACT: note_off channel=6 note=80 velocity=95 time=0
EXTRACT: note_on channel=6 note=76 velocity=95 time=0
EXTRACT: note_on channel=9 note=35 velocity=95 time=0
EXTRACT: note_on channel=9 note=44 velocity=95 time=0
EXTRACT: pitchwheel channel=1 pitch=256 time=0.070754625
EXTRACT: pitchwheel channel=1 pitch=640 time=0.070754625
EXTRACT: pitchwheel channel=1 pitch=0 time=0
EXTRACT: note_off channel=1 note=56 velocity=95 time=0
EXTRACT: note_on channel=0 note=57 velocity=95 time=0
EXTRACT: note_off channel=4 note=69 velocity=95 time=0
EXTRACT: note_off channel=9 note=35 velocity=95 time=0
EXTRACT: note_off channel=9 note=44 velocity=95 time=0
EXTRACT: note_on channel=9 note=0 velocity=95 time=0
EXTRACT: note_on channel=9 note=35 velocity=95 time=0
EXTRACT: note_on channel=9 note=44 velocity=95 time=0
EXTRACT: note_off channel=2 note=59 velocity=95 time=0.14150925
EXTRACT: note_on channel=2 note=62 velocity=95 time=0
EXTRACT: note_on channel=4 note=69 velocity=95 time=0
EXTRACT: note_off channel=6 note=76 velocity=95 time=0
EXTRACT: note_on channel=6 note=86 velocity=95 time=0
EXTRACT: note_on channel=6 note=81 velocity=95 time=0
EXTRACT: note_on channel=6 note=78 velocity=95 time=0
EXTRACT: note_off channel=14 note=40 velocity=111 time=0
EXTRACT: note_on channel=14 note=38 velocity=111 time=0
EXTRACT: note_off channel=9 note=0 velocity=95 time=0
EXTRACT: note_off channel=9 note=35 velocity=95 time=0
EXTRACT: note_off channel=9 note=44 velocity=95 time=0
EXTRACT: note_on channel=9 note=0 velocity=95 time=0
EXTRACT: note_on channel=9 note=44 velocity=95 time=0
EXTRACT: note_off channel=0 note=57 velocity=95 time=0.2830185
EXTRACT: note_on channel=0 note=66 velocity=95 time=0
EXTRACT: note_off channel=14 note=38 velocity=111 time=0
EXTRACT: note_on channel=14 note=38 velocity=111 time=0
EXTRACT: note_off channel=9 note=0 velocity=95 time=0
EXTRACT: note_off channel=9 note=44 velocity=95 time=0
EXTRACT: note_on channel=9 note=0 velocity=95 time=0
EXTRACT: note_on channel=9 note=35 velocity=95 time=0
EXTRACT: note_on channel=9 note=44 velocity=95 time=0
EXTRACT: note_off channel=14 note=38 velocity=111 time=0.14150925
EXTRACT: note_on channel=14 note=38 velocity=111 time=0
EXTRACT: note_off channel=9 note=0 velocity=95 time=0
EXTRACT: note_off channel=9 note=35 velocity=95 time=0
EXTRACT: note_off channel=9 note=44 velocity=95 time=0
EXTRACT: note_off channel=0 note=66 velocity=95 time=0.14150925
EXTRACT: note_on channel=0 note=62 velocity=95 time=0
EXTRACT: note_off channel=2 note=62 velocity=95 time=0
EXTRACT: note_off channel=4 note=69 velocity=95 time=0
EXTRACT: note_off channel=14 note=38 velocity=111 time=0
EXTRACT: note_on channel=14 note=38 velocity=111 time=0
EXTRACT: note_on channel=9 note=40 velocity=95 time=0
EXTRACT: note_on channel=9 note=44 velocity=95 time=0
EXTRACT: note_off channel=9 note=40 velocity=95 time=0.14150925
EXTRACT: note_off channel=9 note=44 velocity=95 time=0
EXTRACT: note_off channel=0 note=62 velocity=95 time=0.14150925
EXTRACT: note_on channel=1 note=57 velocity=95 time=0
EXTRACT: note_on channel=4 note=64 velocity=95 time=0
EXTRACT: note_off channel=6 note=86 velocity=95 time=0
EXTRACT: note_off channel=6 note=81 velocity=95 time=0
EXTRACT: note_off channel=6 note=78 velocity=95 time=0
EXTRACT: note_on channel=9 note=35 velocity=95 time=0
EXTRACT: note_on channel=9 note=44 velocity=95 time=0
EXTRACT: pitchwheel channel=1 pitch=-256 time=0.070754625
EXTRACT: pitchwheel channel=1 pitch=-640 time=0.070754625
EXTRACT: pitchwheel channel=1 pitch=0 time=0
EXTRACT: note_off channel=1 note=57 velocity=95 time=0
EXTRACT: note_on channel=0 note=56 velocity=95 time=0
EXTRACT: note_off channel=4 note=64 velocity=95 time=0
EXTRACT: note_on channel=4 note=64 velocity=95 time=0
EXTRACT: note_off channel=14 note=38 velocity=111 time=0
EXTRACT: note_on channel=14 note=40 velocity=111 time=0
EXTRACT: note_off channel=9 note=35 velocity=95 time=0
EXTRACT: note_off channel=9 note=44 velocity=95 time=0
EXTRACT: note_on channel=9 note=0 velocity=95 time=0
EXTRACT: note_on channel=9 note=35 velocity=95 time=0
EXTRACT: note_on channel=9 note=44 velocity=95 time=0
EXTRACT: note_off channel=4 note=64 velocity=95 time=0.14150925
EXTRACT: note_on channel=4 note=66 velocity=95 time=0
EXTRACT: note_off channel=14 note=40 velocity=111 time=0
EXTRACT: note_off channel=9 note=0 velocity=95 time=0
EXTRACT: note_off channel=9 note=35 velocity=95 time=0
EXTRACT: note_off channel=9 note=44 velocity=95 time=0
EXTRACT: note_on channel=9 note=0 velocity=95 time=0
EXTRACT: note_on channel=9 note=44 velocity=95 time=0
EXTRACT: note_off channel=4 note=66 velocity=95 time=0.14150925
EXTRACT: note_on channel=4 note=69 velocity=95 time=0
EXTRACT: note_on channel=6 note=88 velocity=95 time=0
EXTRACT: note_on channel=6 note=83 velocity=95 time=0
EXTRACT: note_on channel=14 note=40 velocity=111 time=0
EXTRACT: note_off channel=9 note=0 velocity=95 time=0
EXTRACT: note_off channel=9 note=44 velocity=95 time=0
EXTRACT: note_on channel=9 note=35 velocity=95 time=0
EXTRACT: note_off channel=0 note=56 velocity=95 time=0.14150925
EXTRACT: note_on channel=0 note=64 velocity=95 time=0
EXTRACT: note_off channel=4 note=69 velocity=95 time=0
EXTRACT: note_off channel=6 note=88 velocity=95 time=0
EXTRACT: note_off channel=6 note=83 velocity=95 time=0
EXTRACT: note_off channel=14 note=40 velocity=111 time=0
EXTRACT: note_on channel=14 note=40 velocity=111 time=0
EXTRACT: note_off channel=9 note=35 velocity=95 time=0
EXTRACT: note_on channel=9 note=0 velocity=95 time=0
EXTRACT: note_on channel=9 note=35 velocity=95 time=0
EXTRACT: note_on channel=9 note=44 velocity=95 time=0
EXTRACT: note_on channel=4 note=73 velocity=95 time=0.14150925
EXTRACT: note_on channel=6 note=76 velocity=95 time=0
EXTRACT: note_off channel=9 note=0 velocity=95 time=0
EXTRACT: note_off channel=9 note=35 velocity=95 time=0
EXTRACT: note_off channel=9 note=44 velocity=95 time=0
EXTRACT: note_off channel=0 note=64 velocity=95 time=0.14150925
EXTRACT: note_on channel=0 note=59 velocity=95 time=0
EXTRACT: note_off channel=6 note=76 velocity=95 time=0
EXTRACT: note_on channel=6 note=88 velocity=95 time=0
EXTRACT: note_on channel=6 note=83 velocity=95 time=0
EXTRACT: note_on channel=9 note=40 velocity=95 time=0
EXTRACT: note_on channel=9 note=46 velocity=95 time=0
EXTRACT: note_off channel=0 note=59 velocity=95 time=0.2830185
EXTRACT: note_on channel=1 note=56 velocity=95 time=0
EXTRACT: note_off channel=4 note=73 velocity=95 time=0
EXTRACT: note_on channel=4 note=71 velocity=95 time=0
EXTRACT: note_off channel=6 note=88 velocity=95 time=0
EXTRACT: note_off channel=6 note=83 velocity=95 time=0
EXTRACT: note_on channel=6 note=76 velocity=95 time=0
EXTRACT: note_off channel=9 note=40 velocity=95 time=0
EXTRACT: note_off channel=9 note=46 velocity=95 time=0
EXTRACT: note_on channel=9 note=35 velocity=95 time=0
EXTRACT: note_on channel=9 note=44 velocity=95 time=0
EXTRACT: pitchwheel channel=1 pitch=256 time=0.070754625
EXTRACT: pitchwheel channel=1 pitch=640 time=0.070754625
EXTRACT: pitchwheel channel=1 pitch=0 time=0
EXTRACT: note_off channel=1 note=56 velocity=95 time=0
EXTRACT: note_on channel=0 note=57 velocity=95 time=0
EXTRACT: note_off channel=4 note=71 velocity=95 time=0
EXTRACT: note_on channel=4 note=69 velocity=95 time=0
EXTRACT: note_off channel=6 note=76 velocity=95 time=0
EXTRACT: note_off channel=9 note=35 velocity=95 time=0
EXTRACT: note_off channel=9 note=44 velocity=95 time=0
EXTRACT: note_on channel=9 note=0 velocity=95 time=0
EXTRACT: note_on channel=9 note=35 velocity=95 time=0
EXTRACT: note_on channel=9 note=44 velocity=95 time=0
EXTRACT: note_off channel=4 note=69 velocity=95 time=0.14150925
EXTRACT: note_on channel=4 note=71 velocity=95 time=0
EXTRACT: note_on channel=6 note=85 velocity=95 time=0
EXTRACT: note_on channel=6 note=81 velocity=95 time=0
EXTRACT: note_off channel=14 note=40 velocity=111 time=0
EXTRACT: note_on channel=14 note=33 velocity=111 time=0
EXTRACT: note_off channel=9 note=0 velocity=95 time=0
EXTRACT: note_off channel=9 note=35 velocity=95 time=0
EXTRACT: note_off channel=9 note=44 velocity=95 time=0
EXTRACT: note_on channel=9 note=0 velocity=95 time=0
EXTRACT: note_on channel=9 note=44 velocity=95 time=0
EXTRACT: note_off channel=4 note=71 velocity=95 time=0.14150925
EXTRACT: note_on channel=4 note=69 velocity=95 time=0
EXTRACT: note_off channel=0 note=57 velocity=95 time=0.14150925
EXTRACT: note_on channel=0 note=64 velocity=95 time=0
EXTRACT: note_off channel=14 note=33 velocity=111 time=0
EXTRACT: note_on channel=14 note=33 velocity=111 time=0
EXTRACT: note_off channel=9 note=0 velocity=95 time=0
EXTRACT: note_off channel=9 note=44 velocity=95 time=0
EXTRACT: note_on channel=9 note=0 velocity=95 time=0
EXTRACT: note_on channel=9 note=35 velocity=95 time=0
EXTRACT: note_on channel=9 note=44 velocity=95 time=0
EXTRACT: note_off channel=14 note=33 velocity=111 time=0.14150925
EXTRACT: note_on channel=14 note=33 velocity=111 time=0
EXTRACT: note_off channel=9 note=0 velocity=95 time=0
EXTRACT: note_off channel=9 note=35 velocity=95 time=0
EXTRACT: note_off channel=9 note=44 velocity=95 time=0
EXTRACT: note_off channel=0 note=64 velocity=95 time=0.14150925
EXTRACT: note_on channel=0 note=61 velocity=95 time=0
EXTRACT: note_off channel=14 note=33 velocity=111 time=0
EXTRACT: note_on channel=14 note=33 velocity=111 time=0
EXTRACT: note_on channel=9 note=40 velocity=95 time=0
EXTRACT: note_on channel=9 note=44 velocity=95 time=0
EXTRACT: note_off channel=9 note=40 velocity=95 time=0.14150925
EXTRACT: note_off channel=9 note=44 velocity=95 time=0
EXTRACT: note_off channel=0 note=61 velocity=95 time=0.14150925
EXTRACT: note_on channel=1 note=57 velocity=95 time=0
EXTRACT: note_off channel=4 note=69 velocity=95 time=0
EXTRACT: note_on channel=9 note=35 velocity=95 time=0
EXTRACT: note_on channel=9 note=44 velocity=95 time=0
EXTRACT: pitchwheel channel=1 pitch=-256 time=0.070754625
EXTRACT: pitchwheel channel=1 pitch=-640 time=0.070754625
EXTRACT: pitchwheel channel=1 pitch=0 time=0
EXTRACT: note_off channel=1 note=57 velocity=95 time=0
EXTRACT: note_on channel=0 note=56 velocity=95 time=0
EXTRACT: note_off channel=6 note=85 velocity=95 time=0
EXTRACT: note_off channel=6 note=81 velocity=95 time=0
EXTRACT: note_off channel=14 note=33 velocity=111 time=0
EXTRACT: note_on channel=14 note=40 velocity=111 time=0
EXTRACT: note_off channel=9 note=35 velocity=95 time=0
EXTRACT: note_off channel=9 note=44 velocity=95 time=0
EXTRACT: note_on channel=9 note=0 velocity=95 time=0
EXTRACT: note_on channel=9 note=35 velocity=95 time=0
EXTRACT: note_on channel=9 note=44 velocity=95 time=0
EXTRACT: note_on channel=4 note=71 velocity=95 time=0.14150925
EXTRACT: note_on channel=6 note=83 velocity=95 time=0
EXTRACT: note_on channel=6 note=80 velocity=95 time=0
EXTRACT: note_off channel=14 note=40 velocity=111 time=0
EXTRACT: note_off channel=9 note=0 velocity=95 time=0
EXTRACT: note_off channel=9 note=35 velocity=95 time=0
EXTRACT: note_off channel=9 note=44 velocity=95 time=0
EXTRACT: note_on channel=9 note=0 velocity=95 time=0
EXTRACT: note_on channel=9 note=44 velocity=95 time=0
EXTRACT: note_off channel=4 note=71 velocity=95 time=0.14150925
EXTRACT: note_on channel=4 note=66 velocity=95 time=0
EXTRACT: note_on channel=14 note=40 velocity=111 time=0
EXTRACT: note_off channel=0 note=56 velocity=95 time=0.14150925
EXTRACT: note_on channel=0 note=64 velocity=95 time=0
EXTRACT: note_off channel=4 note=66 velocity=95 time=0
EXTRACT: note_off channel=14 note=40 velocity=111 time=0
EXTRACT: note_on channel=14 note=40 velocity=111 time=0
EXTRACT: note_off channel=9 note=0 velocity=95 time=0
EXTRACT: note_off channel=9 note=44 velocity=95 time=0
EXTRACT: note_on channel=9 note=0 velocity=95 time=0
EXTRACT: note_on channel=9 note=35 velocity=95 time=0
EXTRACT: note_on channel=9 note=44 velocity=95 time=0
EXTRACT: note_off channel=9 note=0 velocity=95 time=0.14150925
EXTRACT: note_off channel=9 note=35 velocity=95 time=0
EXTRACT: note_off channel=9 note=44 velocity=95 time=0
EXTRACT: note_off channel=0 note=64 velocity=95 time=0.14150925
EXTRACT: note_on channel=0 note=59 velocity=95 time=0
EXTRACT: note_on channel=4 note=69 velocity=95 time=0
EXTRACT: note_on channel=9 note=40 velocity=95 time=0
EXTRACT: note_on channel=9 note=44 velocity=95 time=0
EXTRACT: note_off channel=4 note=69 velocity=95 time=0.14150925
EXTRACT: note_on channel=4 note=71 velocity=95 time=0
EXTRACT: note_off channel=9 note=40 velocity=95 time=0
EXTRACT: note_off channel=9 note=44 velocity=95 time=0
EXTRACT: note_off channel=0 note=59 velocity=95 time=0.14150925
EXTRACT: note_on channel=1 note=56 velocity=95 time=0
EXTRACT: note_off channel=4 note=71 velocity=95 time=0
EXTRACT: note_off channel=6 note=83 velocity=95 time=0
EXTRACT: note_off channel=6 note=80 velocity=95 time=0
EXTRACT: note_on channel=9 note=35 velocity=95 time=0
EXTRACT: note_on channel=9 note=44 velocity=95 time=0
EXTRACT: pitchwheel channel=1 pitch=256 time=0.070754625
EXTRACT: pitchwheel channel=1 pitch=640 time=0.070754625
EXTRACT: pitchwheel channel=1 pitch=0 time=0
EXTRACT: note_off channel=1 note=56 velocity=95 time=0
EXTRACT: note_on channel=0 note=57 velocity=95 time=0
EXTRACT: note_off channel=9 note=35 velocity=95 time=0
EXTRACT: note_off channel=9 note=44 velocity=95 time=0
EXTRACT: note_on channel=9 note=0 velocity=95 time=0
EXTRACT: note_on channel=9 note=35 velocity=95 time=0
EXTRACT: note_on channel=9 note=44 velocity=95 time=0
EXTRACT: note_on channel=4 note=69 velocity=95 time=0.14150925
EXTRACT: note_on channel=6 note=86 velocity=95 time=0
EXTRACT: note_on channel=6 note=81 velocity=95 time=0
EXTRACT: note_off channel=14 note=40 velocity=111 time=0
EXTRACT: note_on channel=14 note=38 velocity=111 time=0
EXTRACT: note_off channel=9 note=0 velocity=95 time=0
EXTRACT: note_off channel=9 note=35 velocity=95 time=0
EXTRACT: note_off channel=9 note=44 velocity=95 time=0
EXTRACT: note_on channel=9 note=0 velocity=95 time=0
EXTRACT: note_on channel=9 note=44 velocity=95 time=0
EXTRACT: note_off channel=4 note=69 velocity=95 time=0.14150925
EXTRACT: note_on channel=4 note=71 velocity=95 time=0
EXTRACT: note_off channel=9 note=0 velocity=95 time=0
EXTRACT: note_off channel=9 note=44 velocity=95 time=0
EXTRACT: note_on channel=9 note=35 velocity=95 time=0
EXTRACT: note_off channel=0 note=57 velocity=95 time=0.14150925
EXTRACT: note_on channel=0 note=66 velocity=95 time=0
EXTRACT: note_off channel=14 note=38 velocity=111 time=0
EXTRACT: note_on channel=14 note=38 velocity=111 time=0
EXTRACT: note_off channel=9 note=35 velocity=95 time=0
EXTRACT: note_on channel=9 note=0 velocity=95 time=0
EXTRACT: note_on channel=9 note=35 velocity=95 time=0
EXTRACT: note_on channel=9 note=44 velocity=95 time=0
EXTRACT: note_off channel=4 note=71 velocity=95 time=0.14150925
EXTRACT: note_off channel=14 note=38 velocity=111 time=0
EXTRACT: note_on channel=14 note=38 velocity=111 time=0
EXTRACT: note_off channel=9 note=0 velocity=95 time=0
EXTRACT: note_off channel=9 note=35 velocity=95 time=0
EXTRACT: note_off channel=9 note=44 velocity=95 time=0
EXTRACT: note_off channel=0 note=66 velocity=95 time=0.14150925
EXTRACT: note_on channel=0 note=62 velocity=95 time=0
EXTRACT: note_off channel=14 note=38 velocity=111 time=0
EXTRACT: note_on channel=14 note=38 velocity=111 time=0
EXTRACT: note_on channel=9 note=40 velocity=95 time=0
EXTRACT: note_on channel=9 note=44 velocity=95 time=0
EXTRACT: note_off channel=9 note=40 velocity=95 time=0.14150925
EXTRACT: note_off channel=9 note=44 velocity=95 time=0
EXTRACT: note_off channel=0 note=62 velocity=95 time=0.14150925
EXTRACT: note_on channel=1 note=57 velocity=95 time=0
EXTRACT: note_on channel=2 note=57 velocity=95 time=0
EXTRACT: note_on channel=4 note=64 velocity=95 time=0
EXTRACT: note_off channel=6 note=86 velocity=95 time=0
EXTRACT: note_off channel=6 note=81 velocity=95 time=0
EXTRACT: note_on channel=9 note=35 velocity=95 time=0
EXTRACT: note_on channel=9 note=44 velocity=95 time=0
EXTRACT: pitchwheel channel=1 pitch=-256 time=0.070754625
EXTRACT: pitchwheel channel=1 pitch=-640 time=0.070754625
EXTRACT: pitchwheel channel=1 pitch=0 time=0
EXTRACT: note_off channel=1 note=57 velocity=95 time=0
EXTRACT: note_on channel=0 note=56 velocity=95 time=0
EXTRACT: note_off channel=2 note=57 velocity=95 time=0
EXTRACT: note_on channel=2 note=59 velocity=95 time=0
EXTRACT: note_off channel=4 note=64 velocity=95 time=0
EXTRACT: note_on channel=4 note=66 velocity=95 time=0
EXTRACT: note_off channel=14 note=38 velocity=111 time=0
EXTRACT: note_on channel=14 note=40 velocity=111 time=0
EXTRACT: note_off channel=9 note=35 velocity=95 time=0
EXTRACT: note_off channel=9 note=44 velocity=95 time=0
EXTRACT: note_on channel=9 note=0 velocity=95 time=0
EXTRACT: note_on channel=9 note=35 velocity=95 time=0
EXTRACT: note_on channel=9 note=44 velocity=95 time=0
EXTRACT: note_off channel=2 note=59 velocity=95 time=0.14150925
EXTRACT: note_on channel=2 note=64 velocity=95 time=0
EXTRACT: note_off channel=4 note=66 velocity=95 time=0
EXTRACT: note_on channel=4 note=73 velocity=95 time=0
EXTRACT: note_off channel=14 note=40 velocity=111 time=0
EXTRACT: note_off channel=9 note=0 velocity=95 time=0
EXTRACT: note_off channel=9 note=35 velocity=95 time=0
EXTRACT: note_off channel=9 note=44 velocity=95 time=0
EXTRACT: note_on channel=9 note=0 velocity=95 time=0
EXTRACT: note_on channel=9 note=44 velocity=95 time=0
EXTRACT: note_on channel=6 note=83 velocity=95 time=0.14150925
EXTRACT: note_on channel=6 note=80 velocity=95 time=0
EXTRACT: note_on channel=14 note=40 velocity=111 time=0
EXTRACT: note_off channel=9 note=0 velocity=95 time=0
EXTRACT: note_off channel=9 note=44 velocity=95 time=0
EXTRACT: note_on channel=9 note=0 velocity=95 time=0
EXTRACT: note_on channel=9 note=35 velocity=95 time=0
EXTRACT: note_on channel=9 note=44 velocity=95 time=0
EXTRACT: note_off channel=0 note=56 velocity=95 time=0.14150925
EXTRACT: note_on channel=0 note=64 velocity=95 time=0
EXTRACT: note_off channel=6 note=83 velocity=95 time=0
EXTRACT: note_off channel=6 note=80 velocity=95 time=0
EXTRACT: note_off channel=14 note=40 velocity=111 time=0
EXTRACT: note_on channel=14 note=40 velocity=111 time=0
EXTRACT: note_off channel=9 note=0 velocity=95 time=0
EXTRACT: note_off channel=9 note=35 velocity=95 time=0
EXTRACT: note_off channel=9 note=44 velocity=95 time=0
EXTRACT: note_on channel=9 note=0 velocity=95 time=0
EXTRACT: note_on channel=9 note=40 velocity=95 time=0
EXTRACT: note_on channel=9 note=46 velocity=95 time=0
EXTRACT: note_off channel=2 note=64 velocity=95 time=0.14150925
EXTRACT: note_off channel=4 note=73 velocity=95 time=0
EXTRACT: note_on channel=6 note=76 velocity=95 time=0
EXTRACT: note_off channel=9 note=0 velocity=95 time=0
EXTRACT: note_off channel=9 note=40 velocity=95 time=0
EXTRACT: note_off channel=9 note=46 velocity=95 time=0
EXTRACT: note_on channel=9 note=0 velocity=95 time=0
EXTRACT: note_on channel=9 note=40 velocity=95 time=0
EXTRACT: note_off channel=0 note=64 velocity=95 time=0.14150925
EXTRACT: note_on channel=0 note=59 velocity=95 time=0
EXTRACT: note_on channel=2 note=64 velocity=95 time=0
EXTRACT: note_on channel=4 note=73 velocity=95 time=0
EXTRACT: note_off channel=6 note=76 velocity=95 time=0
EXTRACT: note_on channel=6 note=83 velocity=95 time=0
EXTRACT: note_on channel=6 note=80 velocity=95 time=0
EXTRACT: note_off channel=9 note=0 velocity=95 time=0
EXTRACT: note_off channel=9 note=40 velocity=95 time=0
EXTRACT: note_on channel=9 note=0 velocity=95 time=0
EXTRACT: note_on channel=9 note=40 velocity=95 time=0
EXTRACT: note_on channel=9 note=44 velocity=95 time=0
EXTRACT: note_off channel=9 note=0 velocity=95 time=0.14150925
EXTRACT: note_off channel=9 note=40 velocity=95 time=0
EXTRACT: note_off channel=9 note=44 velocity=95 time=0
EXTRACT: note_on channel=9 note=0 velocity=95 time=0
EXTRACT: note_on channel=9 note=40 velocity=95 time=0
EXTRACT: note_on channel=9 note=44 velocity=95 time=0
EXTRACT: note_off channel=0 note=59 velocity=95 time=0.14150925
EXTRACT: note_on channel=0 note=57 velocity=95 time=0
EXTRACT: note_on channel=0 note=52 velocity=111 time=0
EXTRACT: note_on channel=0 note=45 velocity=111 time=0
EXTRACT: note_off channel=2 note=64 velocity=95 time=0
EXTRACT: note_on channel=2 note=62 velocity=95 time=0
EXTRACT: note_off channel=4 note=73 velocity=95 time=0
EXTRACT: note_on channel=4 note=71 velocity=95 time=0
EXTRACT: note_off channel=6 note=83 velocity=95 time=0
EXTRACT: note_off channel=6 note=80 velocity=95 time=0
EXTRACT: note_on channel=6 note=76 velocity=95 time=0
EXTRACT: note_off channel=9 note=0 velocity=95 time=0
EXTRACT: note_off channel=9 note=40 velocity=95 time=0
EXTRACT: note_off channel=9 note=44 velocity=95 time=0
EXTRACT: note_on channel=9 note=0 velocity=95 time=0
EXTRACT: note_on channel=9 note=40 velocity=95 time=0
EXTRACT: note_on channel=9 note=43 velocity=95 time=0
EXTRACT: note_on channel=9 note=45 velocity=95 time=0
EXTRACT: note_on channel=9 note=46 velocity=95 time=0
EXTRACT: note_off channel=0 note=57 velocity=95 time=0.14150925
EXTRACT: note_off channel=0 note=52 velocity=111 time=0
EXTRACT: note_off channel=0 note=45 velocity=111 time=0
EXTRACT: note_on channel=0 note=57 velocity=111 time=0
EXTRACT: note_on channel=0 note=52 velocity=111 time=0
EXTRACT: note_on channel=0 note=45 velocity=111 time=0
EXTRACT: note_off channel=2 note=62 velocity=95 time=0
EXTRACT: note_on channel=2 note=61 velocity=95 time=0
EXTRACT: note_off channel=4 note=71 velocity=95 time=0
EXTRACT: note_on channel=4 note=69 velocity=95 time=0
EXTRACT: note_off channel=6 note=76 velocity=95 time=0
EXTRACT: note_off channel=9 note=0 velocity=95 time=0
EXTRACT: note_off channel=9 note=40 velocity=95 time=0
EXTRACT: note_off channel=9 note=43 velocity=95 time=0
EXTRACT: note_off channel=9 note=45 velocity=95 time=0
EXTRACT: note_off channel=9 note=46 velocity=95 time=0
EXTRACT: note_on channel=9 note=0 velocity=95 time=0
EXTRACT: note_on channel=9 note=40 velocity=95 time=0
EXTRACT: note_on channel=9 note=43 velocity=95 time=0
EXTRACT: note_off channel=0 note=57 velocity=111 time=0.14150925
EXTRACT: note_off channel=0 note=52 velocity=111 time=0
EXTRACT: note_off channel=0 note=45 velocity=111 time=0
EXTRACT: note_on channel=0 note=64 velocity=111 time=0
EXTRACT: note_on channel=0 note=61 velocity=111 time=0
EXTRACT: note_on channel=0 note=57 velocity=111 time=0
EXTRACT: note_on channel=0 note=52 velocity=111 time=0
EXTRACT: note_on channel=0 note=45 velocity=111 time=0
EXTRACT: note_off channel=2 note=61 velocity=95 time=0
EXTRACT: note_off channel=4 note=69 velocity=95 time=0
EXTRACT: note_on channel=6 note=85 velocity=95 time=0
EXTRACT: note_on channel=6 note=81 velocity=95 time=0
EXTRACT: note_on channel=6 note=76 velocity=95 time=0
EXTRACT: note_off channel=14 note=40 velocity=111 time=0
EXTRACT: note_on channel=14 note=33 velocity=111 time=0
EXTRACT: note_off channel=9 note=0 velocity=95 time=0
EXTRACT: note_off channel=9 note=40 velocity=95 time=0
EXTRACT: note_off channel=9 note=43 velocity=95 time=0
EXTRACT: note_on channel=9 note=0 velocity=95 time=0
EXTRACT: note_on channel=9 note=35 velocity=95 time=0
EXTRACT: note_on channel=9 note=49 velocity=95 time=0
EXTRACT: note_on channel=9 note=51 velocity=95 time=0
EXTRACT: note_on channel=9 note=56 velocity=95 time=0
EXTRACT: note_on channel=9 note=57 velocity=95 time=0
EXTRACT: note_off channel=9 note=0 velocity=95 time=0.14150925
EXTRACT: note_off channel=9 note=35 velocity=95 time=0
EXTRACT: note_off channel=9 note=49 velocity=95 time=0
EXTRACT: note_off channel=9 note=51 velocity=95 time=0
EXTRACT: note_off channel=9 note=56 velocity=95 time=0
EXTRACT: note_off channel=9 note=57 velocity=95 time=0
EXTRACT: note_off channel=14 note=33 velocity=111 time=0.14150925
EXTRACT: note_on channel=14 note=33 velocity=111 time=0
EXTRACT: note_on channel=9 note=51 velocity=95 time=0
EXTRACT: note_off channel=14 note=33 velocity=111 time=0.14150925
EXTRACT: note_on channel=14 note=33 velocity=111 time=0
EXTRACT: note_off channel=9 note=51 velocity=95 time=0
EXTRACT: note_off channel=0 note=64 velocity=111 time=0.14150925
EXTRACT: note_off channel=0 note=61 velocity=111 time=0
EXTRACT: note_off channel=0 note=57 velocity=111 time=0
EXTRACT: note_off channel=0 note=52 velocity=111 time=0
EXTRACT: note_off channel=0 note=45 velocity=111 time=0
EXTRACT: note_on channel=0 note=64 velocity=111 time=0
EXTRACT: note_on channel=0 note=61 velocity=95 time=0
EXTRACT: note_on channel=0 note=57 velocity=95 time=0
EXTRACT: note_on channel=0 note=52 velocity=95 time=0
EXTRACT: note_on channel=0 note=45 velocity=111 time=0
EXTRACT: note_on channel=2 note=61 velocity=95 time=0
EXTRACT: note_on channel=4 note=69 velocity=95 time=0
EXTRACT: note_off channel=14 note=33 velocity=111 time=0
EXTRACT: note_on channel=14 note=33 velocity=111 time=0
EXTRACT: note_on channel=9 note=40 velocity=95 time=0
EXTRACT: note_on channel=9 note=56 velocity=95 time=0
EXTRACT: note_on channel=9 note=59 velocity=95 time=0
EXTRACT: note_off channel=2 note=61 velocity=95 time=0.14150925
EXTRACT: note_off channel=9 note=40 velocity=95 time=0
EXTRACT: note_off channel=9 note=56 velocity=95 time=0
EXTRACT: note_off channel=9 note=59 velocity=95 time=0
EXTRACT: note_off channel=0 note=64 velocity=111 time=0.14150925
EXTRACT: note_off channel=0 note=61 velocity=95 time=0
EXTRACT: note_off channel=0 note=57 velocity=95 time=0
EXTRACT: note_off channel=0 note=52 velocity=95 time=0
EXTRACT: note_off channel=0 note=45 velocity=111 time=0
EXTRACT: note_off channel=4 note=69 velocity=95 time=0
EXTRACT: note_on channel=9 note=35 velocity=95 time=0
EXTRACT: note_on channel=9 note=53 velocity=95 time=0
EXTRACT: note_off channel=9 note=35 velocity=95 time=0.14150925
EXTRACT: note_off channel=9 note=53 velocity=95 time=0
EXTRACT: note_on channel=9 note=0 velocity=95 time=0
EXTRACT: note_on channel=9 note=40 velocity=95 time=0
EXTRACT: note_on channel=9 note=59 velocity=95 time=0
EXTRACT: note_off channel=14 note=33 velocity=111 time=0.14150925
EXTRACT: note_off channel=9 note=0 velocity=95 time=0
EXTRACT: note_off channel=9 note=40 velocity=95 time=0
EXTRACT: note_off channel=9 note=59 velocity=95 time=0
EXTRACT: note_on channel=9 note=0 velocity=95 time=0
EXTRACT: note_on channel=9 note=35 velocity=95 time=0
EXTRACT: note_on channel=9 note=51 velocity=95 time=0
EXTRACT: note_on channel=9 note=56 velocity=95 time=0
EXTRACT: note_off channel=6 note=85 velocity=95 time=0.14150925
EXTRACT: note_off channel=6 note=81 velocity=95 time=0
EXTRACT: note_off channel=6 note=76 velocity=95 time=0
EXTRACT: note_on channel=6 note=76 velocity=95 time=0
EXTRACT: note_on channel=14 note=33 velocity=111 time=0
EXTRACT: note_off channel=9 note=0 velocity=95 time=0
EXTRACT: note_off channel=9 note=35 velocity=95 time=0
EXTRACT: note_off channel=9 note=51 velocity=95 time=0
EXTRACT: note_off channel=9 note=56 velocity=95 time=0
EXTRACT: note_on channel=9 note=0 velocity=95 time=0
EXTRACT: note_on channel=9 note=59 velocity=95 time=0
EXTRACT: note_on channel=0 note=64 velocity=111 time=0.14150925
EXTRACT: note_on channel=0 note=61 velocity=111 time=0
EXTRACT: note_on channel=0 note=57 velocity=111 time=0
EXTRACT: note_on channel=0 note=52 velocity=111 time=0
EXTRACT: note_on channel=0 note=45 velocity=111 time=0
EXTRACT: note_on channel=2 note=61 velocity=95 time=0
EXTRACT: note_on channel=4 note=69 velocity=95 time=0
EXTRACT: note_off channel=6 note=76 velocity=95 time=0
EXTRACT: note_on channel=6 note=85 velocity=95 time=0
EXTRACT: note_on channel=6 note=81 velocity=95 time=0
EXTRACT: note_on channel=6 note=76 velocity=95 time=0
EXTRACT: note_off channel=9 note=0 velocity=95 time=0
EXTRACT: note_off channel=9 note=59 velocity=95 time=0
EXTRACT: note_on channel=9 note=0 velocity=95 time=0
EXTRACT: note_on channel=9 note=35 velocity=95 time=0
EXTRACT: note_on channel=9 note=51 velocity=95 time=0
EXTRACT: note_off channel=0 note=64 velocity=111 time=0.14150925
EXTRACT: note_off channel=0 note=61 velocity=111 time=0
EXTRACT: note_off channel=0 note=57 velocity=111 time=0
EXTRACT: note_off channel=0 note=52 velocity=111 time=0
EXTRACT: note_off channel=0 note=45 velocity=111 time=0
EXTRACT: note_off channel=2 note=61 velocity=95 time=0
EXTRACT: note_off channel=4 note=69 velocity=95 time=0
EXTRACT: note_off channel=6 note=85 velocity=95 time=0
EXTRACT: note_off channel=6 note=81 velocity=95 time=0
EXTRACT: note_off channel=6 note=76 velocity=95 time=0
EXTRACT: note_off channel=9 note=0 velocity=95 time=0
EXTRACT: note_off channel=9 note=35 velocity=95 time=0
EXTRACT: note_off channel=9 note=51 velocity=95 time=0
EXTRACT: note_on channel=9 note=0 velocity=95 time=0
EXTRACT: note_on channel=9 note=51 velocity=95 time=0
EXTRACT: note_on channel=0 note=64 velocity=111 time=0.14150925
EXTRACT: note_on channel=0 note=59 velocity=95 time=0
EXTRACT: note_on channel=0 note=55 velocity=95 time=0
EXTRACT: note_on channel=0 note=50 velocity=95 time=0
EXTRACT: note_off channel=14 note=33 velocity=111 time=0
EXTRACT: note_off channel=9 note=0 velocity=95 time=0
EXTRACT: note_off channel=9 note=51 velocity=95 time=0
EXTRACT: note_on channel=9 note=0 velocity=95 time=0
EXTRACT: note_on channel=9 note=40 velocity=95 time=0
EXTRACT: note_on channel=9 note=56 velocity=95 time=0
EXTRACT: note_on channel=9 note=59 velocity=95 time=0
EXTRACT: note_off channel=0 note=64 velocity=111 time=0.031249959375
EXTRACT: note_off channel=0 note=59 velocity=95 time=0
EXTRACT: note_off channel=0 note=55 velocity=95 time=0
EXTRACT: note_off channel=0 note=50 velocity=95 time=0
EXTRACT: note_on channel=0 note=64 velocity=111 time=0.110259290625
EXTRACT: note_on channel=0 note=61 velocity=111 time=0
EXTRACT: note_on channel=0 note=57 velocity=111 time=0
EXTRACT: note_on channel=0 note=52 velocity=111 time=0
EXTRACT: note_on channel=2 note=61 velocity=95 time=0
EXTRACT: note_on channel=4 note=69 velocity=95 time=0
EXTRACT: note_on channel=6 note=76 velocity=95 time=0
EXTRACT: note_on channel=14 note=33 velocity=111 time=0
EXTRACT: note_off channel=9 note=0 velocity=95 time=0
EXTRACT: note_off channel=9 note=40 velocity=95 time=0
EXTRACT: note_off channel=9 note=56 velocity=95 time=0
EXTRACT: note_off channel=9 note=59 velocity=95 time=0
EXTRACT: note_off channel=0 note=64 velocity=111 time=0.14150925
EXTRACT: note_off channel=0 note=61 velocity=111 time=0
EXTRACT: note_off channel=0 note=57 velocity=111 time=0
EXTRACT: note_off channel=0 note=52 velocity=111 time=0
EXTRACT: note_off channel=2 note=61 velocity=95 time=0
EXTRACT: note_on channel=2 note=61 velocity=95 time=0
EXTRACT: note_off channel=4 note=69 velocity=95 time=0
EXTRACT: note_on channel=4 note=69 velocity=95 time=0
EXTRACT: note_off channel=6 note=76 velocity=95 time=0
EXTRACT: note_on channel=6 note=85 velocity=95 time=0
EXTRACT: note_on channel=6 note=81 velocity=95 time=0
EXTRACT: note_on channel=9 note=35 velocity=95 time=0
EXTRACT: note_on channel=9 note=51 velocity=95 time=0
EXTRACT: note_off channel=2 note=61 velocity=95 time=0.14150925
EXTRACT: note_off channel=4 note=69 velocity=95 time=0
EXTRACT: note_off channel=6 note=85 velocity=95 time=0
EXTRACT: note_off channel=6 note=81 velocity=95 time=0
EXTRACT: note_off channel=9 note=35 velocity=95 time=0
EXTRACT: note_off channel=9 note=51 velocity=95 time=0
EXTRACT: note_on channel=9 note=0 velocity=95 time=0
EXTRACT: note_on channel=9 note=51 velocity=95 time=0
EXTRACT: note_on channel=0 note=66 velocity=111 time=0.14150925
EXTRACT: note_on channel=0 note=62 velocity=111 time=0
EXTRACT: note_on channel=0 note=57 velocity=111 time=0
EXTRACT: note_on channel=0 note=50 velocity=111 time=0
EXTRACT: note_on channel=2 note=62 velocity=95 time=0
EXTRACT: note_on channel=4 note=66 velocity=95 time=0
EXTRACT: note_on channel=6 note=86 velocity=95 time=0
EXTRACT: note_on channel=6 note=81 velocity=95 time=0
EXTRACT: note_on channel=6 note=78 velocity=95 time=0
EXTRACT: note_off channel=14 note=33 velocity=111 time=0
EXTRACT: note_on channel=14 note=38 velocity=111 time=0
EXTRACT: note_off channel=9 note=0 velocity=95 time=0
EXTRACT: note_off channel=9 note=51 velocity=95 time=0
EXTRACT: note_on channel=9 note=0 velocity=95 time=0
EXTRACT: note_on channel=9 note=35 velocity=95 time=0
EXTRACT: note_on channel=9 note=51 velocity=95 time=0
EXTRACT: note_on channel=9 note=56 velocity=95 time=0
EXTRACT: note_off channel=9 note=0 velocity=95 time=0.14150925
EXTRACT: note_off channel=9 note=35 velocity=95 time=0
EXTRACT: note_off channel=9 note=51 velocity=95 time=0
EXTRACT: note_off channel=9 note=56 velocity=95 time=0
EXTRACT: note_off channel=14 note=38 velocity=111 time=0.14150925
EXTRACT: note_on channel=14 note=38 velocity=111 time=0
EXTRACT: note_on channel=9 note=51 velocity=95 time=0
EXTRACT: note_off channel=2 note=62 velocity=95 time=0.14150925
EXTRACT: note_off channel=4 note=66 velocity=95 time=0
EXTRACT: note_off channel=9 note=51 velocity=95 time=0
EXTRACT: note_off channel=0 note=66 velocity=111 time=0.14150925
EXTRACT: note_off channel=0 note=62 velocity=111 time=0
EXTRACT: note_off channel=0 note=57 velocity=111 time=0
EXTRACT: note_off channel=0 note=50 velocity=111 time=0
EXTRACT: note_on channel=0 note=66 velocity=111 time=0
EXTRACT: note_on channel=0 note=62 velocity=95 time=0
EXTRACT: note_on channel=0 note=57 velocity=95 time=0
EXTRACT: note_on channel=0 note=50 velocity=111 time=0
EXTRACT: note_on channel=2 note=62 velocity=95 time=0
EXTRACT: note_on channel=4 note=66 velocity=95 time=0
EXTRACT: note_off channel=14 note=38 velocity=111 time=0
EXTRACT: note_on channel=14 note=38 velocity=111 time=0
EXTRACT: note_on channel=9 note=40 velocity=95 time=0
EXTRACT: note_on channel=9 note=56 velocity=95 time=0
EXTRACT: note_on channel=9 note=59 velocity=95 time=0
EXTRACT: note_off channel=2 note=62 velocity=95 time=0.14150925
EXTRACT: note_off channel=9 note=40 velocity=95 time=0
EXTRACT: note_off channel=9 note=56 velocity=95 time=0
EXTRACT: note_off channel=9 note=59 velocity=95 time=0
EXTRACT: note_off channel=0 note=66 velocity=111 time=0.14150925
EXTRACT: note_off channel=0 note=62 velocity=95 time=0
EXTRACT: note_off channel=0 note=57 velocity=95 time=0
EXTRACT: note_off channel=0 note=50 velocity=111 time=0
EXTRACT: note_off channel=4 note=66 velocity=95 time=0
EXTRACT: note_off channel=14 note=38 velocity=111 time=0
EXTRACT: note_on channel=14 note=38 velocity=111 time=0
EXTRACT: note_on channel=9 note=53 velocity=95 time=0
EXTRACT: note_off channel=14 note=38 velocity=111 time=0.14150925
EXTRACT: note_on channel=14 note=50 velocity=111 time=0
EXTRACT: note_off channel=9 note=53 velocity=95 time=0
EXTRACT: note_on channel=9 note=0 velocity=95 time=0
EXTRACT: note_on channel=9 note=30 velocity=95 time=0
EXTRACT: note_on channel=9 note=35 velocity=95 time=0
EXTRACT: note_on channel=9 note=59 velocity=95 time=0
EXTRACT: note_on channel=2 note=66 velocity=95 time=0.14150925
EXTRACT: note_on channel=4 note=74 velocity=95 time=0
EXTRACT: note_off channel=6 note=86 velocity=95 time=0
EXTRACT: note_off channel=6 note=81 velocity=95 time=0
EXTRACT: note_off channel=6 note=78 velocity=95 time=0
EXTRACT: note_off channel=14 note=50 velocity=111 time=0
EXTRACT: note_off channel=9 note=0 velocity=95 time=0
EXTRACT: note_off channel=9 note=30 velocity=95 time=0
EXTRACT: note_off channel=9 note=35 velocity=95 time=0
EXTRACT: note_off channel=9 note=59 velocity=95 time=0
EXTRACT: note_on channel=9 note=0 velocity=95 time=0
EXTRACT: note_on channel=9 note=29 velocity=95 time=0
EXTRACT: note_on channel=9 note=35 velocity=95 time=0
EXTRACT: note_on channel=9 note=51 velocity=95 time=0
EXTRACT: note_on channel=9 note=56 velocity=95 time=0
EXTRACT: note_off channel=2 note=66 velocity=95 time=0.14150925
EXTRACT: note_on channel=2 note=66 velocity=95 time=0
EXTRACT: note_off channel=4 note=74 velocity=95 time=0
EXTRACT: note_on channel=4 note=74 velocity=95 time=0
EXTRACT: note_on channel=14 note=38 velocity=111 time=0
EXTRACT: note_off channel=9 note=0 velocity=95 time=0
EXTRACT: note_off channel=9 note=29 velocity=95 time=0
EXTRACT: note_off channel=9 note=35 velocity=95 time=0
EXTRACT: note_off channel=9 note=51 velocity=95 time=0
EXTRACT: note_off channel=9 note=56 velocity=95 time=0
EXTRACT: note_on channel=9 note=0 velocity=95 time=0
EXTRACT: note_on channel=9 note=30 velocity=95 time=0
EXTRACT: note_on channel=9 note=35 velocity=95 time=0
EXTRACT: note_on channel=9 note=59 velocity=95 time=0
EXTRACT: note_on channel=0 note=66 velocity=111 time=0.14150925
EXTRACT: note_on channel=0 note=62 velocity=95 time=0
EXTRACT: note_on channel=0 note=57 velocity=95 time=0
EXTRACT: note_on channel=0 note=50 velocity=111 time=0
EXTRACT: note_off channel=2 note=66 velocity=95 time=0
EXTRACT: note_on channel=2 note=64 velocity=95 time=0
EXTRACT: note_off channel=4 note=74 velocity=95 time=0
EXTRACT: note_on channel=4 note=73 velocity=95 time=0
EXTRACT: note_on channel=6 note=86 velocity=95 time=0
EXTRACT: note_on channel=6 note=81 velocity=95 time=0
EXTRACT: note_off channel=14 note=38 velocity=111 time=0
EXTRACT: note_on channel=14 note=45 velocity=111 time=0
EXTRACT: note_off channel=9 note=0 velocity=95 time=0
EXTRACT: note_off channel=9 note=30 velocity=95 time=0
EXTRACT: note_off channel=9 note=35 velocity=95 time=0
EXTRACT: note_off channel=9 note=59 velocity=95 time=0
EXTRACT: note_on channel=9 note=0 velocity=95 time=0
EXTRACT: note_on channel=9 note=30 velocity=95 time=0
EXTRACT: note_on channel=9 note=35 velocity=95 time=0
EXTRACT: note_on channel=9 note=51 velocity=95 time=0
EXTRACT: note_off channel=0 note=66 velocity=111 time=0.14150925
EXTRACT: note_off channel=0 note=62 velocity=95 time=0
EXTRACT: note_off channel=0 note=57 velocity=95 time=0
EXTRACT: note_off channel=0 note=50 velocity=111 time=0
EXTRACT: note_off channel=2 note=64 velocity=95 time=0
EXTRACT: note_off channel=4 note=73 velocity=95 time=0
EXTRACT: note_off channel=6 note=86 velocity=95 time=0
EXTRACT: note_off channel=6 note=81 velocity=95 time=0
EXTRACT: note_off channel=9 note=0 velocity=95 time=0
EXTRACT: note_off channel=9 note=30 velocity=95 time=0
EXTRACT: note_off channel=9 note=35 velocity=95 time=0
EXTRACT: note_off channel=9 note=51 velocity=95 time=0
EXTRACT: note_on channel=9 note=0 velocity=95 time=0
EXTRACT: note_on channel=9 note=51 velocity=95 time=0
EXTRACT: note_on channel=0 note=64 velocity=111 time=0.14150925
EXTRACT: note_on channel=0 note=59 velocity=95 time=0
EXTRACT: note_on channel=0 note=55 velocity=95 time=0
EXTRACT: note_on channel=0 note=50 velocity=95 time=0
EXTRACT: note_off channel=14 note=45 velocity=111 time=0
EXTRACT: note_on channel=14 note=49 velocity=111 time=0
EXTRACT: note_off channel=9 note=0 velocity=95 time=0
EXTRACT: note_off channel=9 note=51 velocity=95 time=0
EXTRACT: note_on channel=9 note=0 velocity=95 time=0
EXTRACT: note_on channel=9 note=30 velocity=95 time=0
EXTRACT: note_on channel=9 note=40 velocity=95 time=0
EXTRACT: note_on channel=9 note=56 velocity=95 time=0
EXTRACT: note_on channel=9 note=59 velocity=95 time=0
EXTRACT: note_off channel=0 note=64 velocity=111 time=0.031249959375
EXTRACT: note_off channel=0 note=59 velocity=95 time=0
EXTRACT: note_off channel=0 note=55 velocity=95 time=0
EXTRACT: note_off channel=0 note=50 velocity=95 time=0
EXTRACT: note_on channel=0 note=66 velocity=111 time=0.110259290625
EXTRACT: note_on channel=0 note=62 velocity=111 time=0
EXTRACT: note_on channel=0 note=57 velocity=111 time=0
EXTRACT: note_on channel=2 note=62 velocity=95 time=0
EXTRACT: note_on channel=4 note=71 velocity=95 time=0
EXTRACT: note_on channel=6 note=78 velocity=95 time=0
EXTRACT: note_off channel=9 note=0 velocity=95 time=0
EXTRACT: note_off channel=9 note=30 velocity=95 time=0
EXTRACT: note_off channel=9 note=40 velocity=95 time=0
EXTRACT: note_off channel=9 note=56 velocity=95 time=0
EXTRACT: note_off channel=9 note=59 velocity=95 time=0
EXTRACT: note_off channel=0 note=66 velocity=111 time=0.14150925
EXTRACT: note_off channel=0 note=62 velocity=111 time=0
EXTRACT: note_off channel=0 note=57 velocity=111 time=0
EXTRACT: note_off channel=6 note=78 velocity=95 time=0
EXTRACT: note_on channel=6 note=86 velocity=95 time=0
EXTRACT: note_on channel=6 note=81 velocity=95 time=0
EXTRACT: note_off channel=14 note=49 velocity=111 time=0
EXTRACT: note_on channel=14 note=50 velocity=111 time=0
EXTRACT: note_on channel=9 note=29 velocity=95 time=0
EXTRACT: note_on channel=9 note=35 velocity=95 time=0
EXTRACT: note_on channel=9 note=53 velocity=95 time=0
EXTRACT: note_off channel=2 note=62 velocity=95 time=0.14150925
EXTRACT: note_off channel=4 note=71 velocity=95 time=0
EXTRACT: note_off channel=6 note=86 velocity=95 time=0
EXTRACT: note_off channel=6 note=81 velocity=95 time=0
EXTRACT: note_off channel=9 note=29 velocity=95 time=0
EXTRACT: note_off channel=9 note=35 velocity=95 time=0
EXTRACT: note_off channel=9 note=53 velocity=95 time=0
EXTRACT: note_on channel=9 note=0 velocity=95 time=0
EXTRACT: note_on channel=9 note=30 velocity=95 time=0
EXTRACT: note_on channel=9 note=59 velocity=95 time=0
EXTRACT: note_on channel=0 note=64 velocity=111 time=0.14150925
EXTRACT: note_on channel=0 note=61 velocity=111 time=0
EXTRACT: note_on channel=0 note=57 velocity=111 time=0
EXTRACT: note_on channel=0 note=52 velocity=111 time=0
EXTRACT: note_on channel=0 note=45 velocity=111 time=0
EXTRACT: note_on channel=2 note=61 velocity=95 time=0
EXTRACT: note_on channel=4 note=69 velocity=95 time=0
EXTRACT: note_on channel=6 note=85 velocity=95 time=0
EXTRACT: note_on channel=6 note=81 velocity=95 time=0
EXTRACT: note_on channel=6 note=76 velocity=95 time=0
EXTRACT: note_off channel=14 note=50 velocity=111 time=0
EXTRACT: note_on channel=14 note=33 velocity=111 time=0
EXTRACT: note_off channel=9 note=0 velocity=95 time=0
EXTRACT: note_off channel=9 note=30 velocity=95 time=0
EXTRACT: note_off channel=9 note=59 velocity=95 time=0
EXTRACT: note_on channel=9 note=0 velocity=95 time=0
EXTRACT: note_on channel=9 note=35 velocity=95 time=0
EXTRACT: note_on channel=9 note=51 velocity=95 time=0
EXTRACT: note_on channel=9 note=56 velocity=95 time=0
EXTRACT: note_off channel=9 note=0 velocity=95 time=0.14150925
EXTRACT: note_off channel=9 note=35 velocity=95 time=0
EXTRACT: note_off channel=9 note=51 velocity=95 time=0
EXTRACT: note_off channel=9 note=56 velocity=95 time=0
EXTRACT: note_off channel=14 note=33 velocity=111 time=0.14150925
EXTRACT: note_on channel=14 note=33 velocity=111 time=0
EXTRACT: note_on channel=9 note=35 velocity=95 time=0
EXTRACT: note_on channel=9 note=51 velocity=95 time=0
EXTRACT: note_off channel=2 note=61 velocity=95 time=0.14150925
EXTRACT: note_off channel=4 note=69 velocity=95 time=0
EXTRACT: note_off channel=14 note=33 velocity=111 time=0
EXTRACT: note_on channel=14 note=33 velocity=111 time=0
EXTRACT: note_off channel=9 note=35 velocity=95 time=0
EXTRACT: note_off channel=9 note=51 velocity=95 time=0
EXTRACT: note_off channel=0 note=64 velocity=111 time=0.14150925
EXTRACT: note_off channel=0 note=61 velocity=111 time=0
EXTRACT: note_off channel=0 note=57 velocity=111 time=0
EXTRACT: note_off channel=0 note=52 velocity=111 time=0
EXTRACT: note_off channel=0 note=45 velocity=111 time=0
EXTRACT: note_on channel=0 note=64 velocity=111 time=0
EXTRACT: note_on channel=0 note=61 velocity=95 time=0
EXTRACT: note_on channel=0 note=57 velocity=95 time=0
EXTRACT: note_on channel=0 note=52 velocity=95 time=0
EXTRACT: note_on channel=0 note=45 velocity=111 time=0
EXTRACT: note_on channel=2 note=61 velocity=95 time=0
EXTRACT: note_on channel=4 note=69 velocity=95 time=0
EXTRACT: note_off channel=14 note=33 velocity=111 time=0
EXTRACT: note_on channel=14 note=33 velocity=111 time=0
EXTRACT: note_on channel=9 note=40 velocity=95 time=0
EXTRACT: note_on channel=9 note=56 velocity=95 time=0
EXTRACT: note_on channel=9 note=59 velocity=95 time=0
EXTRACT: note_off channel=2 note=61 velocity=95 time=0.14150925
EXTRACT: note_off channel=9 note=40 velocity=95 time=0
EXTRACT: note_off channel=9 note=56 velocity=95 time=0
EXTRACT: note_off channel=9 note=59 velocity=95 time=0
EXTRACT: note_off channel=0 note=64 velocity=111 time=0.14150925
EXTRACT: note_off channel=0 note=61 velocity=95 time=0
EXTRACT: note_off channel=0 note=57 velocity=95 time=0
EXTRACT: note_off channel=0 note=52 velocity=95 time=0
EXTRACT: note_off channel=0 note=45 velocity=111 time=0
EXTRACT: note_off channel=4 note=69 velocity=95 time=0
EXTRACT: note_off channel=14 note=33 velocity=111 time=0
EXTRACT: note_on channel=9 note=35 velocity=95 time=0
EXTRACT: note_on channel=9 note=53 velocity=95 time=0
EXTRACT: note_off channel=9 note=35 velocity=95 time=0.14150925
EXTRACT: note_off channel=9 note=53 velocity=95 time=0
EXTRACT: note_on channel=9 note=0 velocity=95 time=0
EXTRACT: note_on channel=9 note=40 velocity=95 time=0
EXTRACT: note_on channel=9 note=59 velocity=95 time=0
EXTRACT: note_off channel=6 note=85 velocity=95 time=0.14150925
EXTRACT: note_off channel=6 note=81 velocity=95 time=0
EXTRACT: note_off channel=6 note=76 velocity=95 time=0
EXTRACT: note_off channel=9 note=0 velocity=95 time=0
EXTRACT: note_off channel=9 note=40 velocity=95 time=0
EXTRACT: note_off channel=9 note=59 velocity=95 time=0
EXTRACT: note_on channel=9 note=0 velocity=95 time=0
EXTRACT: note_on channel=9 note=35 velocity=95 time=0
EXTRACT: note_on channel=9 note=51 velocity=95 time=0
EXTRACT: note_on channel=9 note=56 velocity=95 time=0
EXTRACT: note_off channel=9 note=0 velocity=95 time=0.14150925
EXTRACT: note_off channel=9 note=35 velocity=95 time=0
EXTRACT: note_off channel=9 note=51 velocity=95 time=0
EXTRACT: note_off channel=9 note=56 velocity=95 time=0
EXTRACT: note_on channel=9 note=0 velocity=95 time=0
EXTRACT: note_on channel=9 note=35 velocity=95 time=0
EXTRACT: note_on channel=9 note=59 velocity=95 time=0
EXTRACT: note_on channel=0 note=64 velocity=111 time=0.14150925
EXTRACT: note_on channel=0 note=61 velocity=111 time=0
EXTRACT: note_on channel=0 note=57 velocity=111 time=0
EXTRACT: note_on channel=0 note=52 velocity=111 time=0
EXTRACT: note_on channel=0 note=45 velocity=111 time=0
EXTRACT: note_on channel=2 note=61 velocity=95 time=0
EXTRACT: note_on channel=4 note=69 velocity=95 time=0
EXTRACT: note_on channel=6 note=85 velocity=95 time=0
EXTRACT: note_on channel=6 note=81 velocity=95 time=0
EXTRACT: note_on channel=14 note=40 velocity=111 time=0
EXTRACT: note_off channel=9 note=0 velocity=95 time=0
EXTRACT: note_off channel=9 note=35 velocity=95 time=0
EXTRACT: note_off channel=9 note=59 velocity=95 time=0
EXTRACT: note_on channel=9 note=0 velocity=95 time=0
EXTRACT: note_on channel=9 note=35 velocity=95 time=0
EXTRACT: note_on channel=9 note=51 velocity=95 time=0
EXTRACT: note_off channel=0 note=64 velocity=111 time=0.14150925
EXTRACT: note_off channel=0 note=61 velocity=111 time=0
EXTRACT: note_off channel=0 note=57 velocity=111 time=0
EXTRACT: note_off channel=0 note=52 velocity=111 time=0
EXTRACT: note_off channel=0 note=45 velocity=111 time=0
EXTRACT: note_off channel=2 note=61 velocity=95 time=0
EXTRACT: note_off channel=4 note=69 velocity=95 time=0
EXTRACT: note_off channel=6 note=85 velocity=95 time=0
EXTRACT: note_off channel=6 note=81 velocity=95 time=0
EXTRACT: note_off channel=9 note=0 velocity=95 time=0
EXTRACT: note_off channel=9 note=35 velocity=95 time=0
EXTRACT: note_off channel=9 note=51 velocity=95 time=0
EXTRACT: note_on channel=0 note=64 velocity=111 time=0.14150925
EXTRACT: note_on channel=0 note=59 velocity=95 time=0
EXTRACT: note_on channel=0 note=55 velocity=95 time=0
EXTRACT: note_on channel=0 note=50 velocity=95 time=0
EXTRACT: note_off channel=14 note=40 velocity=111 time=0
EXTRACT: note_on channel=14 note=44 velocity=111 time=0
EXTRACT: note_on channel=9 note=35 velocity=95 time=0
EXTRACT: note_on channel=9 note=56 velocity=95 time=0
EXTRACT: note_on channel=9 note=59 velocity=95 time=0
EXTRACT: note_off channel=0 note=64 velocity=111 time=0.031249959375
EXTRACT: note_off channel=0 note=59 velocity=95 time=0
EXTRACT: note_off channel=0 note=55 velocity=95 time=0
EXTRACT: note_off channel=0 note=50 velocity=95 time=0
EXTRACT: note_on channel=0 note=64 velocity=111 time=0.110259290625
EXTRACT: note_on channel=0 note=61 velocity=111 time=0
EXTRACT: note_on channel=0 note=57 velocity=111 time=0
EXTRACT: note_on channel=0 note=52 velocity=111 time=0
EXTRACT: note_on channel=2 note=61 velocity=95 time=0
EXTRACT: note_on channel=4 note=69 velocity=95 time=0
EXTRACT: note_on channel=6 note=76 velocity=95 time=0
EXTRACT: note_off channel=9 note=35 velocity=95 time=0
EXTRACT: note_off channel=9 note=56 velocity=95 time=0
EXTRACT: note_off channel=9 note=59 velocity=95 time=0
EXTRACT: note_off channel=0 note=64 velocity=111 time=0.14150925
EXTRACT: note_off channel=0 note=61 velocity=111 time=0
EXTRACT: note_off channel=0 note=57 velocity=111 time=0
EXTRACT: note_off channel=0 note=52 velocity=111 time=0
EXTRACT: note_off channel=2 note=61 velocity=95 time=0
EXTRACT: note_on channel=2 note=61 velocity=95 time=0
EXTRACT: note_off channel=4 note=69 velocity=95 time=0
EXTRACT: note_on channel=4 note=69 velocity=95 time=0
EXTRACT: note_off channel=6 note=76 velocity=95 time=0
EXTRACT: note_on channel=6 note=85 velocity=95 time=0
EXTRACT: note_on channel=6 note=81 velocity=95 time=0
EXTRACT: note_off channel=14 note=44 velocity=111 time=0
EXTRACT: note_on channel=14 note=45 velocity=111 time=0
EXTRACT: note_on channel=9 note=40 velocity=95 time=0
EXTRACT: note_on channel=9 note=51 velocity=95 time=0
EXTRACT: note_off channel=2 note=61 velocity=95 time=0.14150925
EXTRACT: note_off channel=4 note=69 velocity=95 time=0
EXTRACT: note_off channel=6 note=85 velocity=95 time=0
EXTRACT: note_off channel=6 note=81 velocity=95 time=0
EXTRACT: note_off channel=9 note=40 velocity=95 time=0
EXTRACT: note_off channel=9 note=51 velocity=95 time=0
EXTRACT: note_on channel=9 note=0 velocity=95 time=0
EXTRACT: note_on channel=9 note=59 velocity=95 time=0
EXTRACT: note_on channel=0 note=64 velocity=111 time=0.14150925
EXTRACT: note_on channel=0 note=59 velocity=111 time=0
EXTRACT: note_on channel=0 note=56 velocity=111 time=0
EXTRACT: note_on channel=0 note=52 velocity=111 time=0
EXTRACT: note_on channel=0 note=47 velocity=111 time=0
EXTRACT: note_on channel=0 note=40 velocity=111 time=0
EXTRACT: note_on channel=2 note=59 velocity=95 time=0
EXTRACT: note_on channel=4 note=68 velocity=95 time=0
EXTRACT: note_on channel=6 note=83 velocity=95 time=0
EXTRACT: note_on channel=6 note=80 velocity=95 time=0
EXTRACT: note_off channel=14 note=45 velocity=111 time=0
EXTRACT: note_on channel=14 note=40 velocity=111 time=0
EXTRACT: note_off channel=9 note=0 velocity=95 time=0
EXTRACT: note_off channel=9 note=59 velocity=95 time=0
EXTRACT: note_on channel=9 note=35 velocity=95 time=0
EXTRACT: note_on channel=9 note=51 velocity=95 time=0
EXTRACT: note_on channel=9 note=56 velocity=95 time=0
EXTRACT: note_off channel=9 note=35 velocity=95 time=0.14150925
EXTRACT: note_off channel=9 note=51 velocity=95 time=0
EXTRACT: note_off channel=9 note=56 velocity=95 time=0
EXTRACT: note_off channel=14 note=40 velocity=111 time=0.14150925
EXTRACT: note_on channel=14 note=44 velocity=111 time=0
EXTRACT: note_on channel=9 note=35 velocity=95 time=0
EXTRACT: note_on channel=9 note=51 velocity=95 time=0
EXTRACT: note_off channel=2 note=59 velocity=95 time=0.14150925
EXTRACT: note_on channel=2 note=57 velocity=95 time=0
EXTRACT: note_off channel=4 note=68 velocity=95 time=0
EXTRACT: note_on channel=4 note=66 velocity=95 time=0
EXTRACT: note_off channel=9 note=35 velocity=95 time=0
EXTRACT: note_off channel=9 note=51 velocity=95 time=0
EXTRACT: note_off channel=0 note=64 velocity=111 time=0.14150925
EXTRACT: note_off channel=0 note=59 velocity=111 time=0
EXTRACT: note_off channel=0 note=56 velocity=111 time=0
EXTRACT: note_off channel=0 note=52 velocity=111 time=0
EXTRACT: note_off channel=0 note=47 velocity=111 time=0
EXTRACT: note_off channel=0 note=40 velocity=111 time=0
EXTRACT: note_on channel=0 note=64 velocity=111 time=0
EXTRACT: note_on channel=0 note=59 velocity=95 time=0
EXTRACT: note_on channel=0 note=56 velocity=95 time=0
EXTRACT: note_on channel=0 note=52 velocity=95 time=0
EXTRACT: note_on channel=0 note=47 velocity=111 time=0
EXTRACT: note_on channel=0 note=40 velocity=111 time=0
EXTRACT: note_off channel=2 note=57 velocity=95 time=0
EXTRACT: note_on channel=2 note=56 velocity=95 time=0
EXTRACT: note_off channel=4 note=66 velocity=95 time=0
EXTRACT: note_on channel=4 note=64 velocity=95 time=0
EXTRACT: note_off channel=14 note=44 velocity=111 time=0
EXTRACT: note_on channel=14 note=45 velocity=111 time=0
EXTRACT: note_on channel=9 note=40 velocity=95 time=0
EXTRACT: note_on channel=9 note=56 velocity=95 time=0
EXTRACT: note_on channel=9 note=59 velocity=95 time=0
EXTRACT: note_off channel=4 note=64 velocity=95 time=0.14150925
EXTRACT: note_off channel=9 note=40 velocity=95 time=0
EXTRACT: note_off channel=9 note=56 velocity=95 time=0
EXTRACT: note_off channel=9 note=59 velocity=95 time=0
EXTRACT: note_off channel=0 note=64 velocity=111 time=0.14150925
EXTRACT: note_off channel=0 note=59 velocity=95 time=0
EXTRACT: note_off channel=0 note=56 velocity=95 time=0
EXTRACT: note_off channel=0 note=52 velocity=95 time=0
EXTRACT: note_off channel=0 note=47 velocity=111 time=0
EXTRACT: note_off channel=0 note=40 velocity=111 time=0
EXTRACT: note_off channel=2 note=56 velocity=95 time=0
EXTRACT: note_off channel=14 note=45 velocity=111 time=0
EXTRACT: note_on channel=14 note=45 velocity=111 time=0
EXTRACT: note_on channel=9 note=35 velocity=95 time=0
EXTRACT: note_on channel=9 note=53 velocity=95 time=0
EXTRACT: note_on channel=4 note=64 velocity=95 time=0.14150925
EXTRACT: note_off channel=14 note=45 velocity=111 time=0
EXTRACT: note_on channel=14 note=47 velocity=111 time=0
EXTRACT: note_off channel=9 note=35 velocity=95 time=0
EXTRACT: note_off channel=9 note=53 velocity=95 time=0
EXTRACT: note_on channel=9 note=0 velocity=95 time=0
EXTRACT: note_on channel=9 note=29 velocity=95 time=0
EXTRACT: note_on channel=9 note=40 velocity=95 time=0
EXTRACT: note_on channel=9 note=59 velocity=95 time=0
EXTRACT: note_off channel=4 note=64 velocity=95 time=0.14150925
EXTRACT: note_on channel=4 note=66 velocity=95 time=0
EXTRACT: note_off channel=9 note=0 velocity=95 time=0
EXTRACT: note_off channel=9 note=29 velocity=95 time=0
EXTRACT: note_off channel=9 note=40 velocity=95 time=0
EXTRACT: note_off channel=9 note=59 velocity=95 time=0
EXTRACT: note_on channel=9 note=0 velocity=95 time=0
EXTRACT: note_on channel=9 note=30 velocity=95 time=0
EXTRACT: note_on channel=9 note=35 velocity=95 time=0
EXTRACT: note_on channel=9 note=51 velocity=95 time=0
EXTRACT: note_on channel=9 note=56 velocity=95 time=0
EXTRACT: note_off channel=14 note=47 velocity=111 time=0.14150925
EXTRACT: note_on channel=14 note=47 velocity=111 time=0
EXTRACT: note_off channel=9 note=0 velocity=95 time=0
EXTRACT: note_off channel=9 note=30 velocity=95 time=0
EXTRACT: note_off channel=9 note=35 velocity=95 time=0
EXTRACT: note_off channel=9 note=51 velocity=95 time=0
EXTRACT: note_off channel=9 note=56 velocity=95 time=0
EXTRACT: note_on channel=9 note=0 velocity=95 time=0
EXTRACT: note_on channel=9 note=29 velocity=95 time=0
EXTRACT: note_on channel=9 note=40 velocity=95 time=0
EXTRACT: note_on channel=9 note=59 velocity=95 time=0
EXTRACT: note_on channel=0 note=64 velocity=111 time=0.14150925
EXTRACT: note_on channel=0 note=59 velocity=111 time=0
EXTRACT: note_on channel=0 note=56 velocity=111 time=0
EXTRACT: note_on channel=0 note=52 velocity=111 time=0
EXTRACT: note_on channel=0 note=47 velocity=111 time=0
EXTRACT: note_on channel=0 note=40 velocity=111 time=0
EXTRACT: note_off channel=4 note=66 velocity=95 time=0
EXTRACT: note_on channel=4 note=69 velocity=95 time=0
EXTRACT: note_off channel=14 note=47 velocity=111 time=0
EXTRACT: note_on channel=14 note=52 velocity=111 time=0
EXTRACT: note_off channel=9 note=0 velocity=95 time=0
EXTRACT: note_off channel=9 note=29 velocity=95 time=0
EXTRACT: note_off channel=9 note=40 velocity=95 time=0
EXTRACT: note_off channel=9 note=59 velocity=95 time=0
EXTRACT: note_on channel=9 note=0 velocity=95 time=0
EXTRACT: note_on channel=9 note=30 velocity=95 time=0
EXTRACT: note_on channel=9 note=35 velocity=95 time=0
EXTRACT: note_on channel=9 note=53 velocity=95 time=0
EXTRACT: note_off channel=0 note=64 velocity=111 time=0.14150925
EXTRACT: note_off channel=0 note=59 velocity=111 time=0
EXTRACT: note_off channel=0 note=56 velocity=111 time=0
EXTRACT: note_off channel=0 note=52 velocity=111 time=0
EXTRACT: note_off channel=0 note=47 velocity=111 time=0
EXTRACT: note_off channel=0 note=40 velocity=111 time=0
EXTRACT: note_off channel=4 note=69 velocity=95 time=0
EXTRACT: note_off channel=9 note=0 velocity=95 time=0
EXTRACT: note_off channel=9 note=30 velocity=95 time=0
EXTRACT: note_off channel=9 note=35 velocity=95 time=0
EXTRACT: note_off channel=9 note=53 velocity=95 time=0
EXTRACT: note_on channel=9 note=0 velocity=95 time=0
EXTRACT: note_on channel=9 note=35 velocity=95 time=0
EXTRACT: note_on channel=9 note=59 velocity=95 time=0
EXTRACT: note_on channel=0 note=64 velocity=111 time=0.14150925
EXTRACT: note_on channel=0 note=59 velocity=95 time=0
EXTRACT: note_on channel=0 note=55 velocity=95 time=0
EXTRACT: note_on channel=0 note=50 velocity=95 time=0
EXTRACT: note_on channel=4 note=73 velocity=95 time=0
EXTRACT: note_off channel=14 note=52 velocity=111 time=0
EXTRACT: note_on channel=14 note=50 velocity=111 time=0
EXTRACT: note_off channel=9 note=0 velocity=95 time=0
EXTRACT: note_off channel=9 note=35 velocity=95 time=0
EXTRACT: note_off channel=9 note=59 velocity=95 time=0
EXTRACT: note_on channel=9 note=0 velocity=95 time=0
EXTRACT: note_on channel=9 note=30 velocity=95 time=0
EXTRACT: note_on channel=9 note=40 velocity=95 time=0
EXTRACT: note_on channel=9 note=56 velocity=95 time=0
EXTRACT: note_on channel=9 note=59 velocity=95 time=0
EXTRACT: note_off channel=0 note=64 velocity=111 time=0.031249959375
EXTRACT: note_off channel=0 note=59 velocity=95 time=0
EXTRACT: note_off channel=0 note=55 velocity=95 time=0
EXTRACT: note_off channel=0 note=50 velocity=95 time=0
EXTRACT: note_on channel=0 note=64 velocity=111 time=0.110259290625
EXTRACT: note_on channel=0 note=59 velocity=111 time=0
EXTRACT: note_on channel=0 note=56 velocity=111 time=0
EXTRACT: note_on channel=0 note=52 velocity=111 time=0
EXTRACT: note_off channel=9 note=0 velocity=95 time=0
EXTRACT: note_off channel=9 note=30 velocity=95 time=0
EXTRACT: note_off channel=9 note=40 velocity=95 time=0
EXTRACT: note_off channel=9 note=56 velocity=95 time=0
EXTRACT: note_off channel=9 note=59 velocity=95 time=0
EXTRACT: note_off channel=0 note=64 velocity=111 time=0.14150925
EXTRACT: note_off channel=0 note=59 velocity=111 time=0
EXTRACT: note_off channel=0 note=56 velocity=111 time=0
EXTRACT: note_off channel=0 note=52 velocity=111 time=0
EXTRACT: note_off channel=4 note=73 velocity=95 time=0
EXTRACT: note_on channel=4 note=71 velocity=95 time=0
EXTRACT: note_on channel=9 note=29 velocity=95 time=0
EXTRACT: note_on channel=9 note=35 velocity=95 time=0
EXTRACT: note_on channel=9 note=51 velocity=95 time=0
EXTRACT: note_off channel=4 note=71 velocity=95 time=0.14150925
EXTRACT: note_on channel=4 note=69 velocity=95 time=0
EXTRACT: note_off channel=6 note=83 velocity=95 time=0
EXTRACT: note_off channel=6 note=80 velocity=95 time=0
EXTRACT: note_off channel=9 note=29 velocity=95 time=0
EXTRACT: note_off channel=9 note=35 velocity=95 time=0
EXTRACT: note_off channel=9 note=51 velocity=95 time=0
EXTRACT: note_on channel=9 note=0 velocity=95 time=0
EXTRACT: note_on channel=9 note=30 velocity=95 time=0
EXTRACT: note_on channel=9 note=35 velocity=95 time=0
EXTRACT: note_on channel=9 note=51 velocity=95 time=0
EXTRACT: note_on channel=0 note=64 velocity=111 time=0.14150925
EXTRACT: note_on channel=0 note=61 velocity=111 time=0
EXTRACT: note_on channel=0 note=57 velocity=111 time=0
EXTRACT: note_on channel=0 note=52 velocity=111 time=0
EXTRACT: note_on channel=0 note=45 velocity=111 time=0
EXTRACT: note_on channel=2 note=61 velocity=95 time=0
EXTRACT: note_off channel=4 note=69 velocity=95 time=0
EXTRACT: note_on channel=4 note=69 velocity=95 time=0
EXTRACT: note_on channel=6 note=85 velocity=95 time=0
EXTRACT: note_on channel=6 note=81 velocity=95 time=0
EXTRACT: note_off channel=14 note=50 velocity=111 time=0
EXTRACT: note_on channel=14 note=33 velocity=111 time=0
EXTRACT: note_off channel=9 note=0 velocity=95 time=0
EXTRACT: note_off channel=9 note=30 velocity=95 time=0
EXTRACT: note_off channel=9 note=35 velocity=95 time=0
EXTRACT: note_off channel=9 note=51 velocity=95 time=0
EXTRACT: note_on channel=9 note=0 velocity=95 time=0
EXTRACT: note_on channel=9 note=35 velocity=95 time=0
EXTRACT: note_on channel=9 note=51 velocity=95 time=0
EXTRACT: note_on channel=9 note=56 velocity=95 time=0
EXTRACT: note_off channel=9 note=0 velocity=95 time=0.14150925
EXTRACT: note_off channel=9 note=35 velocity=95 time=0
EXTRACT: note_off channel=9 note=51 velocity=95 time=0
EXTRACT: note_off channel=9 note=56 velocity=95 time=0
EXTRACT: note_off channel=14 note=33 velocity=111 time=0.14150925
EXTRACT: note_on channel=14 note=33 velocity=111 time=0
EXTRACT: note_on channel=9 note=51 velocity=95 time=0
EXTRACT: note_off channel=2 note=61 velocity=95 time=0.14150925
EXTRACT: note_off channel=4 note=69 velocity=95 time=0
EXTRACT: note_off channel=14 note=33 velocity=111 time=0
EXTRACT: note_on channel=14 note=33 velocity=111 time=0
EXTRACT: note_off channel=9 note=51 velocity=95 time=0
EXTRACT: note_off channel=0 note=64 velocity=111 time=0.14150925
EXTRACT: note_off channel=0 note=61 velocity=111 time=0
EXTRACT: note_off channel=0 note=57 velocity=111 time=0
EXTRACT: note_off channel=0 note=52 velocity=111 time=0
EXTRACT: note_off channel=0 note=45 velocity=111 time=0
EXTRACT: note_on channel=0 note=64 velocity=111 time=0
EXTRACT: note_on channel=0 note=61 velocity=95 time=0
EXTRACT: note_on channel=0 note=57 velocity=95 time=0
EXTRACT: note_on channel=0 note=52 velocity=95 time=0
EXTRACT: note_on channel=0 note=45 velocity=111 time=0
EXTRACT: note_on channel=2 note=61 velocity=95 time=0
EXTRACT: note_on channel=4 note=69 velocity=95 time=0
EXTRACT: note_off channel=14 note=33 velocity=111 time=0
EXTRACT: note_on channel=14 note=33 velocity=111 time=0
EXTRACT: note_on channel=9 note=40 velocity=95 time=0
EXTRACT: note_on channel=9 note=56 velocity=95 time=0
EXTRACT: note_on channel=9 note=59 velocity=95 time=0
EXTRACT: note_off channel=2 note=61 velocity=95 time=0.14150925
EXTRACT: note_off channel=9 note=40 velocity=95 time=0
EXTRACT: note_off channel=9 note=56 velocity=95 time=0
EXTRACT: note_off channel=9 note=59 velocity=95 time=0
EXTRACT: note_off channel=0 note=64 velocity=111 time=0.14150925
EXTRACT: note_off channel=0 note=61 velocity=95 time=0
EXTRACT: note_off channel=0 note=57 velocity=95 time=0
EXTRACT: note_off channel=0 note=52 velocity=95 time=0
EXTRACT: note_off channel=0 note=45 velocity=111 time=0
EXTRACT: note_off channel=4 note=69 velocity=95 time=0
EXTRACT: note_off channel=14 note=33 velocity=111 time=0
EXTRACT: note_on channel=9 note=35 velocity=95 time=0
EXTRACT: note_on channel=9 note=53 velocity=95 time=0
EXTRACT: note_off channel=9 note=35 velocity=95 time=0.14150925
EXTRACT: note_off channel=9 note=53 velocity=95 time=0
EXTRACT: note_on channel=9 note=0 velocity=95 time=0
EXTRACT: note_on channel=9 note=40 velocity=95 time=0
EXTRACT: note_on channel=9 note=59 velocity=95 time=0
EXTRACT: note_off channel=6 note=85 velocity=95 time=0.14150925
EXTRACT: note_off channel=6 note=81 velocity=95 time=0
EXTRACT: note_off channel=9 note=0 velocity=95 time=0
EXTRACT: note_off channel=9 note=40 velocity=95 time=0
EXTRACT: note_off channel=9 note=59 velocity=95 time=0
EXTRACT: note_on channel=9 note=0 velocity=95 time=0
EXTRACT: note_on channel=9 note=35 velocity=95 time=0
EXTRACT: note_on channel=9 note=51 velocity=95 time=0
EXTRACT: note_on channel=9 note=56 velocity=95 time=0
EXTRACT: note_on channel=4 note=69 velocity=95 time=0.14150925
EXTRACT: note_on channel=14 note=33 velocity=111 time=0
EXTRACT: note_off channel=9 note=0 velocity=95 time=0
EXTRACT: note_off channel=9 note=35 velocity=95 time=0
EXTRACT: note_off channel=9 note=51 velocity=95 time=0
EXTRACT: note_off channel=9 note=56 velocity=95 time=0
EXTRACT: note_on channel=9 note=0 velocity=95 time=0
EXTRACT: note_on channel=9 note=29 velocity=95 time=0
EXTRACT: note_on channel=0 note=64 velocity=111 time=0.14150925
EXTRACT: note_on channel=0 note=61 velocity=111 time=0
EXTRACT: note_on channel=0 note=57 velocity=111 time=0
EXTRACT: note_on channel=0 note=52 velocity=111 time=0
EXTRACT: note_on channel=0 note=45 velocity=111 time=0
EXTRACT: note_on channel=2 note=61 velocity=95 time=0
EXTRACT: note_off channel=4 note=69 velocity=95 time=0
EXTRACT: note_on channel=6 note=85 velocity=95 time=0
EXTRACT: note_on channel=6 note=81 velocity=95 time=0
EXTRACT: note_off channel=9 note=0 velocity=95 time=0
EXTRACT: note_off channel=9 note=29 velocity=95 time=0
EXTRACT: note_on channel=9 note=0 velocity=95 time=0
EXTRACT: note_on channel=9 note=30 velocity=95 time=0
EXTRACT: note_on channel=9 note=35 velocity=95 time=0
EXTRACT: note_on channel=9 note=51 velocity=95 time=0
EXTRACT: note_off channel=0 note=64 velocity=111 time=0.14150925
EXTRACT: note_off channel=0 note=61 velocity=111 time=0
EXTRACT: note_off channel=0 note=57 velocity=111 time=0
EXTRACT: note_off channel=0 note=52 velocity=111 time=0
EXTRACT: note_off channel=0 note=45 velocity=111 time=0
EXTRACT: note_off channel=2 note=61 velocity=95 time=0
EXTRACT: note_off channel=6 note=85 velocity=95 time=0
EXTRACT: note_off channel=6 note=81 velocity=95 time=0
EXTRACT: note_off channel=9 note=0 velocity=95 time=0
EXTRACT: note_off channel=9 note=30 velocity=95 time=0
EXTRACT: note_off channel=9 note=35 velocity=95 time=0
EXTRACT: note_off channel=9 note=51 velocity=95 time=0
EXTRACT: note_on channel=0 note=64 velocity=111 time=0.14150925
EXTRACT: note_on channel=0 note=59 velocity=95 time=0
EXTRACT: note_on channel=0 note=55 velocity=95 time=0
EXTRACT: note_on channel=0 note=50 velocity=95 time=0
EXTRACT: note_off channel=14 note=33 velocity=111 time=0
EXTRACT: note_on channel=9 note=30 velocity=95 time=0
EXTRACT: note_on channel=9 note=40 velocity=95 time=0
EXTRACT: note_on channel=9 note=56 velocity=95 time=0
EXTRACT: note_on channel=9 note=59 velocity=95 time=0
EXTRACT: note_off channel=0 note=64 velocity=111 time=0.031249959375
EXTRACT: note_off channel=0 note=59 velocity=95 time=0
EXTRACT: note_off channel=0 note=55 velocity=95 time=0
EXTRACT: note_off channel=0 note=50 velocity=95 time=0
EXTRACT: note_on channel=0 note=64 velocity=111 time=0.110259290625
EXTRACT: note_on channel=0 note=61 velocity=111 time=0
EXTRACT: note_on channel=0 note=57 velocity=111 time=0
EXTRACT: note_on channel=0 note=52 velocity=111 time=0
EXTRACT: note_on channel=2 note=61 velocity=95 time=0
EXTRACT: note_on channel=4 note=69 velocity=95 time=0
EXTRACT: note_on channel=6 note=76 velocity=95 time=0
EXTRACT: note_on channel=14 note=33 velocity=111 time=0
EXTRACT: note_off channel=9 note=30 velocity=95 time=0
EXTRACT: note_off channel=9 note=40 velocity=95 time=0
EXTRACT: note_off channel=9 note=56 velocity=95 time=0
EXTRACT: note_off channel=9 note=59 velocity=95 time=0
EXTRACT: note_off channel=0 note=64 velocity=111 time=0.14150925
EXTRACT: note_off channel=0 note=61 velocity=111 time=0
EXTRACT: note_off channel=0 note=57 velocity=111 time=0
EXTRACT: note_off channel=0 note=52 velocity=111 time=0
EXTRACT: note_off channel=2 note=61 velocity=95 time=0
EXTRACT: note_on channel=2 note=61 velocity=95 time=0
EXTRACT: note_off channel=4 note=69 velocity=95 time=0
EXTRACT: note_on channel=4 note=69 velocity=95 time=0
EXTRACT: note_off channel=6 note=76 velocity=95 time=0
EXTRACT: note_on channel=6 note=85 velocity=95 time=0
EXTRACT: note_on channel=6 note=81 velocity=95 time=0
EXTRACT: note_off channel=14 note=33 velocity=111 time=0
EXTRACT: note_on channel=14 note=33 velocity=111 time=0
EXTRACT: note_on channel=9 note=29 velocity=95 time=0
EXTRACT: note_on channel=9 note=35 velocity=95 time=0
EXTRACT: note_on channel=9 note=53 velocity=95 time=0
EXTRACT: note_off channel=2 note=61 velocity=95 time=0.14150925
EXTRACT: note_off channel=4 note=69 velocity=95 time=0
EXTRACT: note_off channel=6 note=85 velocity=95 time=0
EXTRACT: note_off channel=6 note=81 velocity=95 time=0
EXTRACT: note_off channel=9 note=29 velocity=95 time=0
EXTRACT: note_off channel=9 note=35 velocity=95 time=0
EXTRACT: note_off channel=9 note=53 velocity=95 time=0
EXTRACT: note_on channel=9 note=0 velocity=95 time=0
EXTRACT: note_on channel=9 note=30 velocity=95 time=0
EXTRACT: note_on channel=9 note=35 velocity=95 time=0
EXTRACT: note_on channel=9 note=59 velocity=95 time=0
EXTRACT: note_on channel=0 note=66 velocity=111 time=0.14150925
EXTRACT: note_on channel=0 note=62 velocity=111 time=0
EXTRACT: note_on channel=0 note=57 velocity=111 time=0
EXTRACT: note_on channel=0 note=50 velocity=111 time=0
EXTRACT: note_on channel=2 note=62 velocity=95 time=0
EXTRACT: note_on channel=4 note=66 velocity=95 time=0
EXTRACT: note_on channel=6 note=86 velocity=95 time=0
EXTRACT: note_on channel=6 note=81 velocity=95 time=0
EXTRACT: note_off channel=14 note=33 velocity=111 time=0
EXTRACT: note_on channel=14 note=38 velocity=111 time=0
EXTRACT: note_off channel=9 note=0 velocity=95 time=0
EXTRACT: note_off channel=9 note=30 velocity=95 time=0
EXTRACT: note_off channel=9 note=35 velocity=95 time=0
EXTRACT: note_off channel=9 note=59 velocity=95 time=0
EXTRACT: note_on channel=9 note=0 velocity=95 time=0
EXTRACT: note_on channel=9 note=35 velocity=95 time=0
EXTRACT: note_on channel=9 note=51 velocity=95 time=0
EXTRACT: note_on channel=9 note=56 velocity=95 time=0
EXTRACT: note_off channel=9 note=0 velocity=95 time=0.14150925
EXTRACT: note_off channel=9 note=35 velocity=95 time=0
EXTRACT: note_off channel=9 note=51 velocity=95 time=0
EXTRACT: note_off channel=9 note=56 velocity=95 time=0
EXTRACT: note_off channel=14 note=38 velocity=111 time=0.14150925
EXTRACT: note_on channel=14 note=38 velocity=111 time=0
EXTRACT: note_on channel=9 note=35 velocity=95 time=0
EXTRACT: note_on channel=9 note=51 velocity=95 time=0
EXTRACT: note_off channel=2 note=62 velocity=95 time=0.14150925
EXTRACT: note_off channel=4 note=66 velocity=95 time=0
EXTRACT: note_off channel=14 note=38 velocity=111 time=0
EXTRACT: note_on channel=14 note=38 velocity=111 time=0
EXTRACT: note_off channel=9 note=35 velocity=95 time=0
EXTRACT: note_off channel=9 note=51 velocity=95 time=0
EXTRACT: note_off channel=0 note=66 velocity=111 time=0.14150925
EXTRACT: note_off channel=0 note=62 velocity=111 time=0
EXTRACT: note_off channel=0 note=57 velocity=111 time=0
EXTRACT: note_off channel=0 note=50 velocity=111 time=0
EXTRACT: note_on channel=0 note=66 velocity=111 time=0
EXTRACT: note_on channel=0 note=62 velocity=95 time=0
EXTRACT: note_on channel=0 note=57 velocity=95 time=0
EXTRACT: note_on channel=0 note=50 velocity=111 time=0
EXTRACT: note_on channel=2 note=62 velocity=95 time=0
EXTRACT: note_on channel=4 note=66 velocity=95 time=0
EXTRACT: note_off channel=14 note=38 velocity=111 time=0
EXTRACT: note_on channel=14 note=38 velocity=111 time=0
EXTRACT: note_on channel=9 note=40 velocity=95 time=0
EXTRACT: note_on channel=9 note=56 velocity=95 time=0
EXTRACT: note_on channel=9 note=59 velocity=95 time=0
EXTRACT: note_off channel=9 note=40 velocity=95 time=0.14150925
EXTRACT: note_off channel=9 note=56 velocity=95 time=0
EXTRACT: note_off channel=9 note=59 velocity=95 time=0
EXTRACT: note_off channel=0 note=66 velocity=111 time=0.14150925
EXTRACT: note_off channel=0 note=62 velocity=95 time=0
EXTRACT: note_off channel=0 note=57 velocity=95 time=0
EXTRACT: note_off channel=0 note=50 velocity=111 time=0
EXTRACT: note_off channel=2 note=62 velocity=95 time=0
EXTRACT: note_off channel=4 note=66 velocity=95 time=0
EXTRACT: note_off channel=14 note=38 velocity=111 time=0
EXTRACT: note_on channel=9 note=35 velocity=95 time=0
EXTRACT: note_on channel=9 note=53 velocity=95 time=0
EXTRACT: note_off channel=9 note=35 velocity=95 time=0.14150925
EXTRACT: note_off channel=9 note=53 velocity=95 time=0
EXTRACT: note_on channel=9 note=0 velocity=95 time=0
EXTRACT: note_on channel=9 note=29 velocity=95 time=0
EXTRACT: note_on channel=9 note=40 velocity=95 time=0
EXTRACT: note_on channel=9 note=59 velocity=95 time=0
EXTRACT: note_on channel=2 note=66 velocity=95 time=0.14150925
EXTRACT: note_on channel=4 note=74 velocity=95 time=0
EXTRACT: note_off channel=9 note=0 velocity=95 time=0
EXTRACT: note_off channel=9 note=29 velocity=95 time=0
EXTRACT: note_off channel=9 note=40 velocity=95 time=0
EXTRACT: note_off channel=9 note=59 velocity=95 time=0
EXTRACT: note_on channel=9 note=0 velocity=95 time=0
EXTRACT: note_on channel=9 note=30 velocity=95 time=0
EXTRACT: note_on channel=9 note=35 velocity=95 time=0
EXTRACT: note_on channel=9 note=51 velocity=95 time=0
EXTRACT: note_on channel=9 note=56 velocity=95 time=0
EXTRACT: note_off channel=2 note=66 velocity=95 time=0.14150925
EXTRACT: note_on channel=2 note=66 velocity=95 time=0
EXTRACT: note_off channel=4 note=74 velocity=95 time=0
EXTRACT: note_on channel=4 note=74 velocity=95 time=0
EXTRACT: note_off channel=6 note=86 velocity=95 time=0
EXTRACT: note_off channel=6 note=81 velocity=95 time=0
EXTRACT: note_on channel=6 note=78 velocity=95 time=0
EXTRACT: note_off channel=9 note=0 velocity=95 time=0
EXTRACT: note_off channel=9 note=30 velocity=95 time=0
EXTRACT: note_off channel=9 note=35 velocity=95 time=0
EXTRACT: note_off channel=9 note=51 velocity=95 time=0
EXTRACT: note_off channel=9 note=56 velocity=95 time=0
EXTRACT: note_on channel=9 note=0 velocity=95 time=0
EXTRACT: note_on channel=9 note=29 velocity=95 time=0
EXTRACT: note_on channel=9 note=40 velocity=95 time=0
EXTRACT: note_on channel=9 note=59 velocity=95 time=0
EXTRACT: note_on channel=0 note=66 velocity=111 time=0.14150925
EXTRACT: note_on channel=0 note=62 velocity=95 time=0
EXTRACT: note_on channel=0 note=57 velocity=95 time=0
EXTRACT: note_on channel=0 note=50 velocity=111 time=0
EXTRACT: note_off channel=2 note=66 velocity=95 time=0
EXTRACT: note_on channel=2 note=64 velocity=95 time=0
EXTRACT: note_off channel=4 note=74 velocity=95 time=0
EXTRACT: note_on channel=4 note=73 velocity=95 time=0
EXTRACT: note_off channel=6 note=78 velocity=95 time=0
EXTRACT: note_on channel=6 note=86 velocity=95 time=0
EXTRACT: note_on channel=6 note=81 velocity=95 time=0
EXTRACT: note_on channel=14 note=45 velocity=111 time=0
EXTRACT: note_off channel=9 note=0 velocity=95 time=0
EXTRACT: note_off channel=9 note=29 velocity=95 time=0
EXTRACT: note_off channel=9 note=40 velocity=95 time=0
EXTRACT: note_off channel=9 note=59 velocity=95 time=0
EXTRACT: note_on channel=9 note=0 velocity=95 time=0
EXTRACT: note_on channel=9 note=30 velocity=95 time=0
EXTRACT: note_on channel=9 note=35 velocity=95 time=0
EXTRACT: note_on channel=9 note=51 velocity=95 time=0
EXTRACT: note_off channel=0 note=66 velocity=111 time=0.14150925
EXTRACT: note_off channel=0 note=62 velocity=95 time=0
EXTRACT: note_off channel=0 note=57 velocity=95 time=0
EXTRACT: note_off channel=0 note=50 velocity=111 time=0
EXTRACT: note_off channel=2 note=64 velocity=95 time=0
EXTRACT: note_off channel=4 note=73 velocity=95 time=0
EXTRACT: note_off channel=6 note=86 velocity=95 time=0
EXTRACT: note_off channel=6 note=81 velocity=95 time=0
EXTRACT: note_on channel=6 note=86 velocity=95 time=0
EXTRACT: note_on channel=6 note=81 velocity=95 time=0
EXTRACT: note_on channel=6 note=78 velocity=95 time=0
EXTRACT: note_off channel=9 note=0 velocity=95 time=0
EXTRACT: note_off channel=9 note=30 velocity=95 time=0
EXTRACT: note_off channel=9 note=35 velocity=95 time=0
EXTRACT: note_off channel=9 note=51 velocity=95 time=0
EXTRACT: note_on channel=9 note=0 velocity=95 time=0
EXTRACT: note_on channel=9 note=30 velocity=95 time=0
EXTRACT: note_on channel=9 note=35 velocity=95 time=0
EXTRACT: note_on channel=9 note=51 velocity=95 time=0
EXTRACT: note_on channel=0 note=64 velocity=111 time=0.14150925
EXTRACT: note_on channel=0 note=59 velocity=95 time=0
EXTRACT: note_on channel=0 note=55 velocity=95 time=0
EXTRACT: note_on channel=0 note=50 velocity=95 time=0
EXTRACT: note_off channel=6 note=86 velocity=95 time=0
EXTRACT: note_off channel=6 note=81 velocity=95 time=0
EXTRACT: note_off channel=6 note=78 velocity=95 time=0
EXTRACT: note_off channel=14 note=45 velocity=111 time=0
EXTRACT: note_on channel=14 note=49 velocity=111 time=0
EXTRACT: note_off channel=9 note=0 velocity=95 time=0
EXTRACT: note_off channel=9 note=30 velocity=95 time=0
EXTRACT: note_off channel=9 note=35 velocity=95 time=0
EXTRACT: note_off channel=9 note=51 velocity=95 time=0
EXTRACT: note_on channel=9 note=0 velocity=95 time=0
EXTRACT: note_on channel=9 note=30 velocity=95 time=0
EXTRACT: note_on channel=9 note=40 velocity=95 time=0
EXTRACT: note_on channel=9 note=56 velocity=95 time=0
EXTRACT: note_on channel=9 note=59 velocity=95 time=0
EXTRACT: note_off channel=0 note=64 velocity=111 time=0.031249959375
EXTRACT: note_off channel=0 note=59 velocity=95 time=0
EXTRACT: note_off channel=0 note=55 velocity=95 time=0
EXTRACT: note_off channel=0 note=50 velocity=95 time=0
EXTRACT: note_on channel=0 note=66 velocity=111 time=0.110259290625
EXTRACT: note_on channel=0 note=62 velocity=111 time=0
EXTRACT: note_on channel=0 note=57 velocity=111 time=0
EXTRACT: note_on channel=2 note=62 velocity=95 time=0
EXTRACT: note_on channel=4 note=71 velocity=95 time=0
EXTRACT: note_on channel=6 note=78 velocity=95 time=0
EXTRACT: note_off channel=9 note=0 velocity=95 time=0
EXTRACT: note_off channel=9 note=30 velocity=95 time=0
EXTRACT: note_off channel=9 note=40 velocity=95 time=0
EXTRACT: note_off channel=9 note=56 velocity=95 time=0
EXTRACT: note_off channel=9 note=59 velocity=95 time=0
EXTRACT: note_off channel=0 note=66 velocity=111 time=0.14150925
EXTRACT: note_off channel=0 note=62 velocity=111 time=0
EXTRACT: note_off channel=0 note=57 velocity=111 time=0
EXTRACT: note_off channel=6 note=78 velocity=95 time=0
EXTRACT: note_on channel=6 note=86 velocity=95 time=0
EXTRACT: note_on channel=6 note=81 velocity=95 time=0
EXTRACT: note_off channel=14 note=49 velocity=111 time=0
EXTRACT: note_on channel=14 note=50 velocity=111 time=0
EXTRACT: note_on channel=9 note=29 velocity=95 time=0
EXTRACT: note_on channel=9 note=35 velocity=95 time=0
EXTRACT: note_on channel=9 note=53 velocity=95 time=0
EXTRACT: note_off channel=2 note=62 velocity=95 time=0.14150925
EXTRACT: note_off channel=4 note=71 velocity=95 time=0
EXTRACT: note_off channel=6 note=86 velocity=95 time=0
EXTRACT: note_off channel=6 note=81 velocity=95 time=0
EXTRACT: note_off channel=9 note=29 velocity=95 time=0
EXTRACT: note_off channel=9 note=35 velocity=95 time=0
EXTRACT: note_off channel=9 note=53 velocity=95 time=0
EXTRACT: note_on channel=9 note=0 velocity=95 time=0
EXTRACT: note_on channel=9 note=30 velocity=95 time=0
EXTRACT: note_on channel=9 note=35 velocity=95 time=0
EXTRACT: note_on channel=9 note=59 velocity=95 time=0
EXTRACT: note_on channel=0 note=64 velocity=111 time=0.14150925
EXTRACT: note_on channel=0 note=61 velocity=111 time=0
EXTRACT: note_on channel=0 note=57 velocity=111 time=0
EXTRACT: note_on channel=0 note=52 velocity=111 time=0
EXTRACT: note_on channel=0 note=45 velocity=111 time=0
EXTRACT: note_on channel=2 note=61 velocity=95 time=0
EXTRACT: note_on channel=4 note=69 velocity=95 time=0
EXTRACT: note_on channel=6 note=85 velocity=95 time=0
EXTRACT: note_on channel=6 note=81 velocity=95 time=0
EXTRACT: note_off channel=14 note=50 velocity=111 time=0
EXTRACT: note_on channel=14 note=33 velocity=111 time=0
EXTRACT: note_off channel=9 note=0 velocity=95 time=0
EXTRACT: note_off channel=9 note=30 velocity=95 time=0
EXTRACT: note_off channel=9 note=35 velocity=95 time=0
EXTRACT: note_off channel=9 note=59 velocity=95 time=0
EXTRACT: note_on channel=9 note=0 velocity=95 time=0
EXTRACT: note_on channel=9 note=35 velocity=95 time=0
EXTRACT: note_on channel=9 note=51 velocity=95 time=0
EXTRACT: note_on channel=9 note=56 velocity=95 time=0
EXTRACT: note_off channel=9 note=0 velocity=95 time=0.14150925
EXTRACT: note_off channel=9 note=35 velocity=95 time=0
EXTRACT: note_off channel=9 note=51 velocity=95 time=0
EXTRACT: note_off channel=9 note=56 velocity=95 time=0
EXTRACT: note_off channel=14 note=33 velocity=111 time=0.14150925
EXTRACT: note_on channel=14 note=33 velocity=111 time=0
EXTRACT: note_on channel=9 note=35 velocity=95 time=0
EXTRACT: note_on channel=9 note=51 velocity=95 time=0
EXTRACT: note_off channel=2 note=61 velocity=95 time=0.14150925
EXTRACT: note_off channel=4 note=69 velocity=95 time=0
EXTRACT: note_off channel=9 note=35 velocity=95 time=0
EXTRACT: note_off channel=9 note=51 velocity=95 time=0
EXTRACT: note_off channel=0 note=64 velocity=111 time=0.14150925
EXTRACT: note_off channel=0 note=61 velocity=111 time=0
EXTRACT: note_off channel=0 note=57 velocity=111 time=0
EXTRACT: note_off channel=0 note=52 velocity=111 time=0
EXTRACT: note_off channel=0 note=45 velocity=111 time=0
EXTRACT: note_on channel=0 note=64 velocity=111 time=0
EXTRACT: note_on channel=0 note=61 velocity=95 time=0
EXTRACT: note_on channel=0 note=57 velocity=95 time=0
EXTRACT: note_on channel=0 note=52 velocity=95 time=0
EXTRACT: note_on channel=0 note=45 velocity=111 time=0
EXTRACT: note_on channel=2 note=61 velocity=95 time=0
EXTRACT: note_on channel=4 note=69 velocity=95 time=0
EXTRACT: note_off channel=14 note=33 velocity=111 time=0
EXTRACT: note_on channel=14 note=33 velocity=111 time=0
EXTRACT: note_on channel=9 note=40 velocity=95 time=0
EXTRACT: note_on channel=9 note=56 velocity=95 time=0
EXTRACT: note_on channel=9 note=59 velocity=95 time=0
EXTRACT: note_off channel=2 note=61 velocity=95 time=0.14150925
EXTRACT: note_off channel=9 note=40 velocity=95 time=0
EXTRACT: note_off channel=9 note=56 velocity=95 time=0
EXTRACT: note_off channel=9 note=59 velocity=95 time=0
EXTRACT: note_off channel=0 note=64 velocity=111 time=0.14150925
EXTRACT: note_off channel=0 note=61 velocity=95 time=0
EXTRACT: note_off channel=0 note=57 velocity=95 time=0
EXTRACT: note_off channel=0 note=52 velocity=95 time=0
EXTRACT: note_off channel=0 note=45 velocity=111 time=0
EXTRACT: note_off channel=4 note=69 velocity=95 time=0
EXTRACT: note_off channel=14 note=33 velocity=111 time=0
EXTRACT: note_on channel=9 note=35 velocity=95 time=0
EXTRACT: note_on channel=9 note=53 velocity=95 time=0
EXTRACT: note_off channel=9 note=35 velocity=95 time=0.14150925
EXTRACT: note_off channel=9 note=53 velocity=95 time=0
EXTRACT: note_on channel=9 note=0 velocity=95 time=0
EXTRACT: note_on channel=9 note=40 velocity=95 time=0
EXTRACT: note_on channel=9 note=59 velocity=95 time=0
EXTRACT: note_off channel=9 note=0 velocity=95 time=0.14150925
EXTRACT: note_off channel=9 note=40 velocity=95 time=0
EXTRACT: note_off channel=9 note=59 velocity=95 time=0
EXTRACT: note_on channel=9 note=0 velocity=95 time=0
EXTRACT: note_on channel=9 note=35 velocity=95 time=0
EXTRACT: note_on channel=9 note=51 velocity=95 time=0
EXTRACT: note_on channel=9 note=56 velocity=95 time=0
EXTRACT: note_off channel=6 note=85 velocity=95 time=0.14150925
EXTRACT: note_off channel=6 note=81 velocity=95 time=0
EXTRACT: note_off channel=9 note=0 velocity=95 time=0
EXTRACT: note_off channel=9 note=35 velocity=95 time=0
EXTRACT: note_off channel=9 note=51 velocity=95 time=0
EXTRACT: note_off channel=9 note=56 velocity=95 time=0
EXTRACT: note_on channel=9 note=0 velocity=95 time=0
EXTRACT: note_on channel=9 note=40 velocity=95 time=0
EXTRACT: note_on channel=9 note=59 velocity=95 time=0
EXTRACT: note_on channel=0 note=64 velocity=111 time=0.14150925
EXTRACT: note_on channel=0 note=61 velocity=111 time=0
EXTRACT: note_on channel=0 note=57 velocity=111 time=0
EXTRACT: note_on channel=0 note=52 velocity=111 time=0
EXTRACT: note_on channel=0 note=45 velocity=111 time=0
EXTRACT: note_on channel=2 note=61 velocity=95 time=0
EXTRACT: note_on channel=4 note=69 velocity=95 time=0
EXTRACT: note_on channel=6 note=85 velocity=95 time=0
EXTRACT: note_on channel=6 note=81 velocity=95 time=0
EXTRACT: note_on channel=6 note=76 velocity=95 time=0
EXTRACT: note_on channel=14 note=40 velocity=111 time=0
EXTRACT: note_off channel=9 note=0 velocity=95 time=0
EXTRACT: note_off channel=9 note=40 velocity=95 time=0
EXTRACT: note_off channel=9 note=59 velocity=95 time=0
EXTRACT: note_on channel=9 note=0 velocity=95 time=0
EXTRACT: note_on channel=9 note=35 velocity=95 time=0
EXTRACT: note_on channel=9 note=51 velocity=95 time=0
EXTRACT: note_off channel=0 note=64 velocity=111 time=0.14150925
EXTRACT: note_off channel=0 note=61 velocity=111 time=0
EXTRACT: note_off channel=0 note=57 velocity=111 time=0
EXTRACT: note_off channel=0 note=52 velocity=111 time=0
EXTRACT: note_off channel=0 note=45 velocity=111 time=0
EXTRACT: note_off channel=2 note=61 velocity=95 time=0
EXTRACT: note_off channel=4 note=69 velocity=95 time=0
EXTRACT: note_off channel=6 note=85 velocity=95 time=0
EXTRACT: note_off channel=6 note=81 velocity=95 time=0
EXTRACT: note_off channel=6 note=76 velocity=95 time=0
EXTRACT: note_off channel=9 note=0 velocity=95 time=0
EXTRACT: note_off channel=9 note=35 velocity=95 time=0
EXTRACT: note_off channel=9 note=51 velocity=95 time=0
EXTRACT: note_on channel=9 note=0 velocity=95 time=0
EXTRACT: note_on channel=9 note=51 velocity=95 time=0
EXTRACT: note_on channel=0 note=64 velocity=111 time=0.14150925
EXTRACT: note_on channel=0 note=59 velocity=95 time=0
EXTRACT: note_on channel=0 note=55 velocity=95 time=0
EXTRACT: note_on channel=0 note=50 velocity=95 time=0
EXTRACT: note_off channel=14 note=40 velocity=111 time=0
EXTRACT: note_on channel=14 note=44 velocity=111 time=0
EXTRACT: note_off channel=9 note=0 velocity=95 time=0
EXTRACT: note_off channel=9 note=51 velocity=95 time=0
EXTRACT: note_on channel=9 note=0 velocity=95 time=0
EXTRACT: note_on channel=9 note=40 velocity=95 time=0
EXTRACT: note_on channel=9 note=56 velocity=95 time=0
EXTRACT: note_on channel=9 note=59 velocity=95 time=0
EXTRACT: note_off channel=0 note=64 velocity=111 time=0.031249959375
EXTRACT: note_off channel=0 note=59 velocity=95 time=0
EXTRACT: note_off channel=0 note=55 velocity=95 time=0
EXTRACT: note_off channel=0 note=50 velocity=95 time=0
EXTRACT: note_on channel=0 note=64 velocity=111 time=0.110259290625
EXTRACT: note_on channel=0 note=61 velocity=111 time=0
EXTRACT: note_on channel=0 note=57 velocity=111 time=0
EXTRACT: note_on channel=0 note=52 velocity=111 time=0
EXTRACT: note_on channel=2 note=61 velocity=95 time=0
EXTRACT: note_on channel=4 note=69 velocity=95 time=0
EXTRACT: note_on channel=6 note=76 velocity=95 time=0
EXTRACT: note_off channel=9 note=0 velocity=95 time=0
EXTRACT: note_off channel=9 note=40 velocity=95 time=0
EXTRACT: note_off channel=9 note=56 velocity=95 time=0
EXTRACT: note_off channel=9 note=59 velocity=95 time=0
EXTRACT: note_off channel=0 note=64 velocity=111 time=0.14150925
EXTRACT: note_off channel=0 note=61 velocity=111 time=0
EXTRACT: note_off channel=0 note=57 velocity=111 time=0
EXTRACT: note_off channel=0 note=52 velocity=111 time=0
EXTRACT: note_off channel=2 note=61 velocity=95 time=0
EXTRACT: note_on channel=2 note=61 velocity=95 time=0
EXTRACT: note_off channel=4 note=69 velocity=95 time=0
EXTRACT: note_on channel=4 note=69 velocity=95 time=0
EXTRACT: note_off channel=6 note=76 velocity=95 time=0
EXTRACT: note_on channel=6 note=85 velocity=95 time=0
EXTRACT: note_on channel=6 note=81 velocity=95 time=0
EXTRACT: note_off channel=14 note=44 velocity=111 time=0
EXTRACT: note_on channel=14 note=45 velocity=111 time=0
EXTRACT: note_on channel=9 note=35 velocity=95 time=0
EXTRACT: note_on channel=9 note=51 velocity=95 time=0
EXTRACT: note_off channel=2 note=61 velocity=95 time=0.14150925
EXTRACT: note_off channel=4 note=69 velocity=95 time=0
EXTRACT: note_off channel=6 note=85 velocity=95 time=0
EXTRACT: note_off channel=6 note=81 velocity=95 time=0
EXTRACT: note_off channel=9 note=35 velocity=95 time=0
EXTRACT: note_off channel=9 note=51 velocity=95 time=0
EXTRACT: note_on channel=9 note=0 velocity=95 time=0
EXTRACT: note_on channel=9 note=35 velocity=95 time=0
EXTRACT: note_on channel=9 note=59 velocity=95 time=0
EXTRACT: note_on channel=0 note=64 velocity=111 time=0.14150925
EXTRACT: note_on channel=0 note=59 velocity=111 time=0
EXTRACT: note_on channel=0 note=56 velocity=111 time=0
EXTRACT: note_on channel=0 note=52 velocity=111 time=0
EXTRACT: note_on channel=0 note=47 velocity=111 time=0
EXTRACT: note_on channel=0 note=40 velocity=111 time=0
EXTRACT: note_on channel=2 note=59 velocity=95 time=0
EXTRACT: note_on channel=4 note=68 velocity=95 time=0
EXTRACT: note_on channel=6 note=83 velocity=95 time=0
EXTRACT: note_on channel=6 note=80 velocity=95 time=0
EXTRACT: note_off channel=14 note=45 velocity=111 time=0
EXTRACT: note_on channel=14 note=40 velocity=111 time=0
EXTRACT: note_off channel=9 note=0 velocity=95 time=0
EXTRACT: note_off channel=9 note=35 velocity=95 time=0
EXTRACT: note_off channel=9 note=59 velocity=95 time=0
EXTRACT: note_on channel=9 note=0 velocity=95 time=0
EXTRACT: note_on channel=9 note=35 velocity=95 time=0
EXTRACT: note_on channel=9 note=51 velocity=95 time=0
EXTRACT: note_on channel=9 note=56 velocity=95 time=0
EXTRACT: note_off channel=9 note=0 velocity=95 time=0.14150925
EXTRACT: note_off channel=9 note=35 velocity=95 time=0
EXTRACT: note_off channel=9 note=51 velocity=95 time=0
EXTRACT: note_off channel=9 note=56 velocity=95 time=0
EXTRACT: note_off channel=14 note=40 velocity=111 time=0.14150925
EXTRACT: note_on channel=14 note=40 velocity=111 time=0
EXTRACT: note_on channel=9 note=35 velocity=95 time=0
EXTRACT: note_on channel=9 note=51 velocity=95 time=0
EXTRACT: note_off channel=2 note=59 velocity=95 time=0.14150925
EXTRACT: note_on channel=2 note=57 velocity=95 time=0
EXTRACT: note_off channel=4 note=68 velocity=95 time=0
EXTRACT: note_on channel=4 note=66 velocity=95 time=0
EXTRACT: note_off channel=9 note=35 velocity=95 time=0
EXTRACT: note_off channel=9 note=51 velocity=95 time=0
EXTRACT: note_off channel=0 note=64 velocity=111 time=0.14150925
EXTRACT: note_off channel=0 note=59 velocity=111 time=0
EXTRACT: note_off channel=0 note=56 velocity=111 time=0
EXTRACT: note_off channel=0 note=52 velocity=111 time=0
EXTRACT: note_off channel=0 note=47 velocity=111 time=0
EXTRACT: note_off channel=0 note=40 velocity=111 time=0
EXTRACT: note_on channel=0 note=64 velocity=111 time=0
EXTRACT: note_on channel=0 note=59 velocity=95 time=0
EXTRACT: note_on channel=0 note=56 velocity=95 time=0
EXTRACT: note_on channel=0 note=52 velocity=95 time=0
EXTRACT: note_on channel=0 note=47 velocity=111 time=0
EXTRACT: note_on channel=0 note=40 velocity=111 time=0
EXTRACT: note_off channel=2 note=57 velocity=95 time=0
EXTRACT: note_on channel=2 note=56 velocity=95 time=0
EXTRACT: note_off channel=4 note=66 velocity=95 time=0
EXTRACT: note_on channel=4 note=64 velocity=95 time=0
EXTRACT: note_off channel=14 note=40 velocity=111 time=0
EXTRACT: note_on channel=14 note=40 velocity=111 time=0
EXTRACT: note_on channel=9 note=40 velocity=95 time=0
EXTRACT: note_on channel=9 note=56 velocity=95 time=0
EXTRACT: note_on channel=9 note=59 velocity=95 time=0
EXTRACT: note_off channel=9 note=40 velocity=95 time=0.14150925
EXTRACT: note_off channel=9 note=56 velocity=95 time=0
EXTRACT: note_off channel=9 note=59 velocity=95 time=0
EXTRACT: note_off channel=0 note=64 velocity=111 time=0.14150925
EXTRACT: note_off channel=0 note=59 velocity=95 time=0
EXTRACT: note_off channel=0 note=56 velocity=95 time=0
EXTRACT: note_off channel=0 note=52 velocity=95 time=0
EXTRACT: note_off channel=0 note=47 velocity=111 time=0
EXTRACT: note_off channel=0 note=40 velocity=111 time=0
EXTRACT: note_off channel=2 note=56 velocity=95 time=0
EXTRACT: note_off channel=4 note=64 velocity=95 time=0
EXTRACT: note_off channel=14 note=40 velocity=111 time=0
EXTRACT: note_on channel=14 note=40 velocity=111 time=0
EXTRACT: note_on channel=9 note=35 velocity=95 time=0
EXTRACT: note_on channel=9 note=53 velocity=95 time=0
EXTRACT: note_off channel=14 note=40 velocity=111 time=0.14150925
EXTRACT: note_on channel=14 note=40 velocity=111 time=0
EXTRACT: note_off channel=9 note=35 velocity=95 time=0
EXTRACT: note_off channel=9 note=53 velocity=95 time=0
EXTRACT: note_on channel=9 note=0 velocity=95 time=0
EXTRACT: note_on channel=9 note=29 velocity=95 time=0
EXTRACT: note_on channel=9 note=40 velocity=95 time=0
EXTRACT: note_on channel=9 note=59 velocity=95 time=0
EXTRACT: note_on channel=4 note=64 velocity=95 time=0.14150925
EXTRACT: note_off channel=14 note=40 velocity=111 time=0
EXTRACT: note_on channel=14 note=40 velocity=111 time=0
EXTRACT: note_off channel=9 note=0 velocity=95 time=0
EXTRACT: note_off channel=9 note=29 velocity=95 time=0
EXTRACT: note_off channel=9 note=40 velocity=95 time=0
EXTRACT: note_off channel=9 note=59 velocity=95 time=0
EXTRACT: note_on channel=9 note=0 velocity=95 time=0
EXTRACT: note_on channel=9 note=30 velocity=95 time=0
EXTRACT: note_on channel=9 note=40 velocity=95 time=0
EXTRACT: note_on channel=9 note=56 velocity=95 time=0
EXTRACT: note_off channel=9 note=0 velocity=95 time=0.14150925
EXTRACT: note_off channel=9 note=30 velocity=95 time=0
EXTRACT: note_off channel=9 note=40 velocity=95 time=0
EXTRACT: note_off channel=9 note=56 velocity=95 time=0
EXTRACT: note_on channel=9 note=0 velocity=95 time=0
EXTRACT: note_on channel=9 note=29 velocity=95 time=0
EXTRACT: note_on channel=9 note=40 velocity=95 time=0
EXTRACT: note_on channel=0 note=64 velocity=111 time=0.14150925
EXTRACT: note_on channel=0 note=59 velocity=111 time=0
EXTRACT: note_on channel=0 note=56 velocity=111 time=0
EXTRACT: note_on channel=0 note=52 velocity=111 time=0
EXTRACT: note_on channel=0 note=47 velocity=111 time=0
EXTRACT: note_on channel=0 note=40 velocity=111 time=0
EXTRACT: note_off channel=4 note=64 velocity=95 time=0
EXTRACT: note_on channel=4 note=66 velocity=95 time=0
EXTRACT: note_off channel=14 note=40 velocity=111 time=0
EXTRACT: note_on channel=14 note=57 velocity=111 time=0
EXTRACT: note_off channel=9 note=0 velocity=95 time=0
EXTRACT: note_off channel=9 note=29 velocity=95 time=0
EXTRACT: note_off channel=9 note=40 velocity=95 time=0
EXTRACT: note_on channel=9 note=0 velocity=95 time=0
EXTRACT: note_on channel=9 note=30 velocity=95 time=0
EXTRACT: note_on channel=9 note=40 velocity=95 time=0
EXTRACT: note_off channel=0 note=64 velocity=111 time=0.14150925
EXTRACT: note_off channel=0 note=59 velocity=111 time=0
EXTRACT: note_off channel=0 note=56 velocity=111 time=0
EXTRACT: note_off channel=0 note=52 velocity=111 time=0
EXTRACT: note_off channel=0 note=47 velocity=111 time=0
EXTRACT: note_off channel=0 note=40 velocity=111 time=0
EXTRACT: note_off channel=4 note=66 velocity=95 time=0
EXTRACT: note_off channel=9 note=0 velocity=95 time=0
EXTRACT: note_off channel=9 note=30 velocity=95 time=0
EXTRACT: note_off channel=9 note=40 velocity=95 time=0
EXTRACT: note_on channel=9 note=0 velocity=95 time=0
EXTRACT: note_on channel=9 note=30 velocity=95 time=0
EXTRACT: note_on channel=9 note=40 velocity=95 time=0
EXTRACT: note_on channel=0 note=64 velocity=111 time=0.14150925
EXTRACT: note_on channel=0 note=59 velocity=95 time=0
EXTRACT: note_on channel=0 note=55 velocity=95 time=0
EXTRACT: note_on channel=0 note=50 velocity=95 time=0
EXTRACT: note_on channel=4 note=71 velocity=95 time=0
EXTRACT: note_off channel=14 note=57 velocity=111 time=0
EXTRACT: note_on channel=14 note=55 velocity=86 time=0
EXTRACT: note_off channel=9 note=0 velocity=95 time=0
EXTRACT: note_off channel=9 note=30 velocity=95 time=0
EXTRACT: note_off channel=9 note=40 velocity=95 time=0
EXTRACT: note_on channel=9 note=0 velocity=95 time=0
EXTRACT: note_on channel=9 note=30 velocity=95 time=0
EXTRACT: note_on channel=9 note=40 velocity=95 time=0
EXTRACT: note_on channel=9 note=56 velocity=95 time=0
EXTRACT: note_on channel=9 note=57 velocity=95 time=0
EXTRACT: note_off channel=0 note=64 velocity=111 time=0.031249959375
EXTRACT: note_off channel=0 note=59 velocity=95 time=0
EXTRACT: note_off channel=0 note=55 velocity=95 time=0
EXTRACT: note_off channel=0 note=50 velocity=95 time=0
EXTRACT: note_on channel=0 note=64 velocity=111 time=0.110259290625
EXTRACT: note_on channel=0 note=59 velocity=111 time=0
EXTRACT: note_on channel=0 note=56 velocity=111 time=0
EXTRACT: note_on channel=0 note=52 velocity=111 time=0
EXTRACT: note_off channel=4 note=71 velocity=95 time=0
EXTRACT: note_off channel=9 note=0 velocity=95 time=0
EXTRACT: note_off channel=9 note=30 velocity=95 time=0
EXTRACT: note_off channel=9 note=40 velocity=95 time=0
EXTRACT: note_off channel=9 note=56 velocity=95 time=0
EXTRACT: note_off channel=9 note=57 velocity=95 time=0
EXTRACT: note_on channel=9 note=0 velocity=95 time=0
EXTRACT: note_on channel=9 note=40 velocity=95 time=0
EXTRACT: note_off channel=0 note=64 velocity=111 time=0.14150925
EXTRACT: note_off channel=0 note=59 velocity=111 time=0
EXTRACT: note_off channel=0 note=56 velocity=111 time=0
EXTRACT: note_off channel=0 note=52 velocity=111 time=0
EXTRACT: note_on channel=4 note=69 velocity=95 time=0
EXTRACT: note_off channel=6 note=83 velocity=95 time=0
EXTRACT: note_off channel=6 note=80 velocity=95 time=0
EXTRACT: note_off channel=9 note=0 velocity=95 time=0
EXTRACT: note_off channel=9 note=40 velocity=95 time=0
EXTRACT: note_on channel=9 note=0 velocity=95 time=0
EXTRACT: note_on channel=9 note=29 velocity=95 time=0
EXTRACT: note_on channel=9 note=40 velocity=95 time=0
EXTRACT: note_off channel=9 note=0 velocity=95 time=0.14150925
EXTRACT: note_off channel=9 note=29 velocity=95 time=0
EXTRACT: note_off channel=9 note=40 velocity=95 time=0
EXTRACT: note_on channel=9 note=0 velocity=95 time=0
EXTRACT: note_on channel=9 note=30 velocity=95 time=0
EXTRACT: note_on channel=9 note=40 velocity=95 time=0
EXTRACT: note_on channel=0 note=61 velocity=111 time=0.14150925
EXTRACT: note_on channel=0 note=57 velocity=95 time=0
EXTRACT: note_on channel=0 note=52 velocity=111 time=0
EXTRACT: note_on channel=0 note=45 velocity=111 time=0
EXTRACT: note_on channel=6 note=85 velocity=95 time=0
EXTRACT: note_on channel=6 note=81 velocity=95 time=0
EXTRACT: note_off channel=14 note=55 velocity=86 time=0
EXTRACT: note_on channel=14 note=33 velocity=111 time=0
EXTRACT: note_off channel=9 note=0 velocity=95 time=0
EXTRACT: note_off channel=9 note=30 velocity=95 time=0
EXTRACT: note_off channel=9 note=40 velocity=95 time=0
EXTRACT: note_on channel=9 note=0 velocity=95 time=0
EXTRACT: note_on channel=9 note=35 velocity=95 time=0
EXTRACT: note_on channel=9 note=44 velocity=95 time=0
EXTRACT: note_on channel=9 note=49 velocity=95 time=0
EXTRACT: note_on channel=9 note=57 velocity=95 time=0
EXTRACT: note_off channel=9 note=0 velocity=95 time=0.14150925
EXTRACT: note_off channel=9 note=35 velocity=95 time=0
EXTRACT: note_off channel=9 note=44 velocity=95 time=0
EXTRACT: note_off channel=9 note=49 velocity=95 time=0
EXTRACT: note_off channel=9 note=57 velocity=95 time=0
EXTRACT: note_off channel=4 note=69 velocity=95 time=0.14150925
EXTRACT: note_off channel=14 note=33 velocity=111 time=0
EXTRACT: note_on channel=14 note=33 velocity=111 time=0
EXTRACT: note_on channel=9 note=44 velocity=95 time=0
EXTRACT: note_off channel=14 note=33 velocity=111 time=0.14150925
EXTRACT: note_on channel=14 note=33 velocity=111 time=0
EXTRACT: note_off channel=9 note=44 velocity=95 time=0
EXTRACT: note_on channel=9 note=0 velocity=95 time=0
EXTRACT: note_on channel=9 note=44 velocity=95 time=0
EXTRACT: note_off channel=0 note=61 velocity=111 time=0.14150925
EXTRACT: note_off channel=0 note=57 velocity=95 time=0
EXTRACT: note_off channel=0 note=52 velocity=111 time=0
EXTRACT: note_off channel=0 note=45 velocity=111 time=0
EXTRACT: note_on channel=0 note=61 velocity=111 time=0
EXTRACT: note_on channel=0 note=57 velocity=111 time=0
EXTRACT: note_on channel=0 note=52 velocity=111 time=0
EXTRACT: note_on channel=0 note=45 velocity=111 time=0
EXTRACT: note_on channel=2 note=61 velocity=95 time=0
EXTRACT: note_on channel=4 note=64 velocity=95 time=0
EXTRACT: note_off channel=14 note=33 velocity=111 time=0
EXTRACT: note_on channel=14 note=33 velocity=111 time=0
EXTRACT: note_off channel=9 note=0 velocity=95 time=0
EXTRACT: note_off channel=9 note=44 velocity=95 time=0
EXTRACT: note_on channel=9 note=0 velocity=95 time=0
EXTRACT: note_on channel=9 note=40 velocity=95 time=0
EXTRACT: note_on channel=9 note=44 velocity=95 time=0
EXTRACT: note_off channel=2 note=61 velocity=95 time=0.14150925
EXTRACT: note_on channel=2 note=62 velocity=95 time=0
EXTRACT: note_off channel=4 note=64 velocity=95 time=0
EXTRACT: note_on channel=4 note=66 velocity=95 time=0
EXTRACT: note_off channel=9 note=0 velocity=95 time=0
EXTRACT: note_off channel=9 note=40 velocity=95 time=0
EXTRACT: note_off channel=9 note=44 velocity=95 time=0
EXTRACT: note_off channel=0 note=61 velocity=111 time=0.14150925
EXTRACT: note_off channel=0 note=57 velocity=111 time=0
EXTRACT: note_off channel=0 note=52 velocity=111 time=0
EXTRACT: note_off channel=0 note=45 velocity=111 time=0
EXTRACT: note_on channel=0 note=59 velocity=95 time=0
EXTRACT: note_on channel=0 note=55 velocity=111 time=0
EXTRACT: note_on channel=0 note=50 velocity=111 time=0
EXTRACT: note_on channel=0 note=45 velocity=111 time=0
EXTRACT: note_off channel=2 note=62 velocity=95 time=0
EXTRACT: note_off channel=4 note=66 velocity=95 time=0
EXTRACT: note_on channel=9 note=35 velocity=95 time=0
EXTRACT: note_on channel=9 note=44 velocity=95 time=0
EXTRACT: note_off channel=0 note=59 velocity=95 time=0.031249959375
EXTRACT: note_off channel=0 note=55 velocity=111 time=0
EXTRACT: note_off channel=0 note=50 velocity=111 time=0
EXTRACT: note_off channel=0 note=45 velocity=111 time=0
EXTRACT: note_on channel=0 note=64 velocity=111 time=0.110259290625
EXTRACT: note_on channel=0 note=59 velocity=111 time=0
EXTRACT: note_on channel=0 note=56 velocity=95 time=0
EXTRACT: note_on channel=0 note=52 velocity=111 time=0
EXTRACT: note_on channel=2 note=66 velocity=95 time=0
EXTRACT: note_on channel=4 note=69 velocity=95 time=0
EXTRACT: note_off channel=6 note=85 velocity=95 time=0
EXTRACT: note_off channel=6 note=81 velocity=95 time=0
EXTRACT: note_off channel=14 note=33 velocity=111 time=0
EXTRACT: note_on channel=14 note=40 velocity=111 time=0
EXTRACT: note_off channel=9 note=35 velocity=95 time=0
EXTRACT: note_off channel=9 note=44 velocity=95 time=0
EXTRACT: note_on channel=9 note=0 velocity=95 time=0
EXTRACT: note_on channel=9 note=35 velocity=95 time=0
EXTRACT: note_on channel=9 note=44 velocity=95 time=0
EXTRACT: note_off channel=0 note=64 velocity=111 time=0.14150925
EXTRACT: note_off channel=0 note=59 velocity=111 time=0
EXTRACT: note_off channel=0 note=56 velocity=95 time=0
EXTRACT: note_off channel=0 note=52 velocity=111 time=0
EXTRACT: note_off channel=2 note=66 velocity=95 time=0
EXTRACT: note_on channel=6 note=83 velocity=95 time=0
EXTRACT: note_on channel=6 note=80 velocity=95 time=0
EXTRACT: note_off channel=14 note=40 velocity=111 time=0
EXTRACT: note_off channel=9 note=0 velocity=95 time=0
EXTRACT: note_off channel=9 note=35 velocity=95 time=0
EXTRACT: note_off channel=9 note=44 velocity=95 time=0
EXTRACT: note_on channel=9 note=0 velocity=95 time=0
EXTRACT: note_on channel=9 note=44 velocity=95 time=0
EXTRACT: note_on channel=0 note=64 velocity=95 time=0.14150925
EXTRACT: note_on channel=0 note=59 velocity=111 time=0
EXTRACT: note_on channel=0 note=56 velocity=111 time=0
EXTRACT: note_on channel=0 note=52 velocity=111 time=0
EXTRACT: note_on channel=2 note=66 velocity=95 time=0
EXTRACT: note_off channel=4 note=69 velocity=95 time=0
EXTRACT: note_on channel=4 note=69 velocity=95 time=0
EXTRACT: note_on channel=14 note=40 velocity=111 time=0
EXTRACT: note_off channel=9 note=0 velocity=95 time=0
EXTRACT: note_off channel=9 note=44 velocity=95 time=0
EXTRACT: note_on channel=9 note=35 velocity=95 time=0
EXTRACT: note_off channel=0 note=64 velocity=95 time=0.14150925
EXTRACT: note_off channel=0 note=59 velocity=111 time=0
EXTRACT: note_off channel=0 note=56 velocity=111 time=0
EXTRACT: note_off channel=0 note=52 velocity=111 time=0
EXTRACT: note_on channel=0 note=64 velocity=111 time=0
EXTRACT: note_on channel=0 note=59 velocity=95 time=0
EXTRACT: note_on channel=0 note=56 velocity=111 time=0
EXTRACT: note_on channel=0 note=52 velocity=111 time=0
EXTRACT: note_on channel=0 note=47 velocity=111 time=0
EXTRACT: note_off channel=14 note=40 velocity=111 time=0
EXTRACT: note_on channel=14 note=40 velocity=111 time=0
EXTRACT: note_off channel=9 note=35 velocity=95 time=0
EXTRACT: note_on channel=9 note=0 velocity=95 time=0
EXTRACT: note_on channel=9 note=44 velocity=95 time=0
EXTRACT: note_off channel=2 note=66 velocity=95 time=0.14150925
EXTRACT: note_on channel=2 note=69 velocity=95 time=0
EXTRACT: note_off channel=4 note=69 velocity=95 time=0
EXTRACT: note_on channel=4 note=73 velocity=95 time=0
EXTRACT: note_off channel=9 note=0 velocity=95 time=0
EXTRACT: note_off channel=9 note=44 velocity=95 time=0
EXTRACT: note_on channel=9 note=0 velocity=95 time=0
EXTRACT: note_on channel=9 note=44 velocity=95 time=0
EXTRACT: note_off channel=0 note=64 velocity=111 time=0.14150925
EXTRACT: note_off channel=0 note=59 velocity=95 time=0
EXTRACT: note_off channel=0 note=56 velocity=111 time=0
EXTRACT: note_off channel=0 note=52 velocity=111 time=0
EXTRACT: note_off channel=0 note=47 velocity=111 time=0
EXTRACT: note_on channel=0 note=64 velocity=111 time=0
EXTRACT: note_on channel=0 note=59 velocity=111 time=0
EXTRACT: note_on channel=0 note=56 velocity=95 time=0
EXTRACT: note_on channel=0 note=52 velocity=111 time=0
EXTRACT: note_on channel=0 note=47 velocity=111 time=0
EXTRACT: note_off channel=2 note=69 velocity=95 time=0
EXTRACT: note_on channel=2 note=68 velocity=95 time=0
EXTRACT: note_off channel=4 note=73 velocity=95 time=0
EXTRACT: note_on channel=4 note=71 velocity=95 time=0
EXTRACT: note_off channel=9 note=0 velocity=95 time=0
EXTRACT: note_off channel=9 note=44 velocity=95 time=0
EXTRACT: note_on channel=9 note=0 velocity=95 time=0
EXTRACT: note_on channel=9 note=40 velocity=95 time=0
EXTRACT: note_on channel=9 note=44 velocity=95 time=0
EXTRACT: note_off channel=9 note=0 velocity=95 time=0.14150925
EXTRACT: note_off channel=9 note=40 velocity=95 time=0
EXTRACT: note_off channel=9 note=44 velocity=95 time=0
EXTRACT: note_off channel=0 note=64 velocity=111 time=0.14150925
EXTRACT: note_off channel=0 note=59 velocity=111 time=0
EXTRACT: note_off channel=0 note=56 velocity=95 time=0
EXTRACT: note_off channel=0 note=52 velocity=111 time=0
EXTRACT: note_off channel=0 note=47 velocity=111 time=0
EXTRACT: note_on channel=0 note=55 velocity=95 time=0
EXTRACT: note_on channel=0 note=50 velocity=111 time=0
EXTRACT: note_on channel=0 note=45 velocity=111 time=0
EXTRACT: note_off channel=2 note=68 velocity=95 time=0
EXTRACT: note_on channel=2 note=66 velocity=95 time=0
EXTRACT: note_off channel=4 note=71 velocity=95 time=0
EXTRACT: note_on channel=4 note=69 velocity=95 time=0
EXTRACT: note_on channel=9 note=35 velocity=95 time=0
EXTRACT: note_on channel=9 note=44 velocity=95 time=0
EXTRACT: note_off channel=0 note=55 velocity=95 time=0.14150925
EXTRACT: note_off channel=0 note=50 velocity=111 time=0
EXTRACT: note_off channel=0 note=45 velocity=111 time=0
EXTRACT: note_on channel=0 note=55 velocity=111 time=0
EXTRACT: note_on channel=0 note=50 velocity=111 time=0
EXTRACT: note_on channel=0 note=45 velocity=111 time=0
EXTRACT: note_off channel=6 note=83 velocity=95 time=0
EXTRACT: note_off channel=6 note=80 velocity=95 time=0
EXTRACT: note_off channel=9 note=35 velocity=95 time=0
EXTRACT: note_off channel=9 note=44 velocity=95 time=0
EXTRACT: note_on channel=9 note=0 velocity=95 time=0
EXTRACT: note_on channel=9 note=44 velocity=95 time=0
EXTRACT: note_off channel=0 note=55 velocity=111 time=0.14150925
EXTRACT: note_off channel=0 note=50 velocity=111 time=0
EXTRACT: note_off channel=0 note=45 velocity=111 time=0
EXTRACT: note_on channel=0 note=66 velocity=111 time=0
EXTRACT: note_on channel=0 note=62 velocity=111 time=0
EXTRACT: note_on channel=0 note=57 velocity=111 time=0
EXTRACT: note_on channel=0 note=50 velocity=111 time=0
EXTRACT: note_off channel=2 note=66 velocity=95 time=0
EXTRACT: note_off channel=4 note=69 velocity=95 time=0
EXTRACT: note_on channel=6 note=86 velocity=95 time=0
EXTRACT: note_on channel=6 note=81 velocity=95 time=0
EXTRACT: note_on channel=6 note=78 velocity=95 time=0
EXTRACT: note_off channel=14 note=40 velocity=111 time=0
EXTRACT: note_on channel=14 note=38 velocity=111 time=0
EXTRACT: note_off channel=9 note=0 velocity=95 time=0
EXTRACT: note_off channel=9 note=44 velocity=95 time=0
EXTRACT: note_on channel=9 note=0 velocity=95 time=0
EXTRACT: note_on channel=9 note=35 velocity=95 time=0
EXTRACT: note_on channel=9 note=44 velocity=95 time=0
EXTRACT: note_off channel=9 note=0 velocity=95 time=0.14150925
EXTRACT: note_off channel=9 note=35 velocity=95 time=0
EXTRACT: note_off channel=9 note=44 velocity=95 time=0
EXTRACT: note_off channel=14 note=38 velocity=111 time=0.14150925
EXTRACT: note_on channel=14 note=38 velocity=111 time=0
EXTRACT: note_on channel=9 note=44 velocity=95 time=0
EXTRACT: note_off channel=14 note=38 velocity=111 time=0.14150925
EXTRACT: note_on channel=14 note=38 velocity=111 time=0
EXTRACT: note_off channel=9 note=44 velocity=95 time=0
EXTRACT: note_on channel=9 note=0 velocity=95 time=0
EXTRACT: note_on channel=9 note=44 velocity=95 time=0
EXTRACT: note_off channel=0 note=66 velocity=111 time=0.14150925
EXTRACT: note_off channel=0 note=62 velocity=111 time=0
EXTRACT: note_off channel=0 note=57 velocity=111 time=0
EXTRACT: note_off channel=0 note=50 velocity=111 time=0
EXTRACT: note_on channel=0 note=66 velocity=95 time=0
EXTRACT: note_on channel=0 note=62 velocity=111 time=0
EXTRACT: note_on channel=0 note=57 velocity=111 time=0
EXTRACT: note_on channel=0 note=50 velocity=111 time=0
EXTRACT: note_off channel=14 note=38 velocity=111 time=0
EXTRACT: note_on channel=14 note=38 velocity=111 time=0
EXTRACT: note_off channel=9 note=0 velocity=95 time=0
EXTRACT: note_off channel=9 note=44 velocity=95 time=0
EXTRACT: note_on channel=9 note=0 velocity=95 time=0
EXTRACT: note_on channel=9 note=40 velocity=95 time=0
EXTRACT: note_on channel=9 note=44 velocity=95 time=0
EXTRACT: note_off channel=9 note=0 velocity=95 time=0.14150925
EXTRACT: note_off channel=9 note=40 velocity=95 time=0
EXTRACT: note_off channel=9 note=44 velocity=95 time=0
EXTRACT: note_off channel=0 note=66 velocity=95 time=0.14150925
EXTRACT: note_off channel=0 note=62 velocity=111 time=0
EXTRACT: note_off channel=0 note=57 velocity=111 time=0
EXTRACT: note_off channel=0 note=50 velocity=111 time=0
EXTRACT: note_on channel=0 note=64 velocity=111 time=0
EXTRACT: note_on channel=0 note=59 velocity=95 time=0
EXTRACT: note_on channel=0 note=55 velocity=111 time=0
EXTRACT: note_on channel=0 note=50 velocity=111 time=0
EXTRACT: note_on channel=4 note=64 velocity=95 time=0
EXTRACT: note_on channel=9 note=35 velocity=95 time=0
EXTRACT: note_on channel=9 note=44 velocity=95 time=0
EXTRACT: note_off channel=0 note=64 velocity=111 time=0.031249959375
EXTRACT: note_off channel=0 note=59 velocity=95 time=0
EXTRACT: note_off channel=0 note=55 velocity=111 time=0
EXTRACT: note_off channel=0 note=50 velocity=111 time=0
EXTRACT: note_on channel=0 note=64 velocity=111 time=0.110259290625
EXTRACT: note_on channel=0 note=59 velocity=111 time=0
EXTRACT: note_on channel=0 note=56 velocity=95 time=0
EXTRACT: note_on channel=0 note=52 velocity=111 time=0
EXTRACT: note_off channel=4 note=64 velocity=95 time=0
EXTRACT: note_on channel=4 note=66 velocity=95 time=0
EXTRACT: note_off channel=6 note=86 velocity=95 time=0
EXTRACT: note_off channel=6 note=81 velocity=95 time=0
EXTRACT: note_off channel=6 note=78 velocity=95 time=0
EXTRACT: note_off channel=14 note=38 velocity=111 time=0
EXTRACT: note_on channel=14 note=40 velocity=111 time=0
EXTRACT: note_off channel=9 note=35 velocity=95 time=0
EXTRACT: note_off channel=9 note=44 velocity=95 time=0
EXTRACT: note_on channel=9 note=0 velocity=95 time=0
EXTRACT: note_on channel=9 note=35 velocity=95 time=0
EXTRACT: note_on channel=9 note=44 velocity=95 time=0
EXTRACT: note_off channel=0 note=64 velocity=111 time=0.14150925
EXTRACT: note_off channel=0 note=59 velocity=111 time=0
EXTRACT: note_off channel=0 note=56 velocity=95 time=0
EXTRACT: note_off channel=0 note=52 velocity=111 time=0
EXTRACT: note_off channel=4 note=66 velocity=95 time=0
EXTRACT: note_on channel=4 note=69 velocity=95 time=0
EXTRACT: note_off channel=14 note=40 velocity=111 time=0
EXTRACT: note_off channel=9 note=0 velocity=95 time=0
EXTRACT: note_off channel=9 note=35 velocity=95 time=0
EXTRACT: note_off channel=9 note=44 velocity=95 time=0
EXTRACT: note_on channel=9 note=0 velocity=95 time=0
EXTRACT: note_on channel=9 note=44 velocity=95 time=0
EXTRACT: note_on channel=0 note=64 velocity=95 time=0.14150925
EXTRACT: note_on channel=0 note=59 velocity=111 time=0
EXTRACT: note_on channel=0 note=56 velocity=111 time=0
EXTRACT: note_on channel=0 note=52 velocity=111 time=0
EXTRACT: note_off channel=4 note=69 velocity=95 time=0
EXTRACT: note_on channel=6 note=88 velocity=95 time=0
EXTRACT: note_on channel=6 note=83 velocity=95 time=0
EXTRACT: note_on channel=14 note=40 velocity=111 time=0
EXTRACT: note_off channel=9 note=0 velocity=95 time=0
EXTRACT: note_off channel=9 note=44 velocity=95 time=0
EXTRACT: note_on channel=9 note=0 velocity=95 time=0
EXTRACT: note_on channel=9 note=44 velocity=95 time=0
EXTRACT: note_off channel=0 note=64 velocity=95 time=0.14150925
EXTRACT: note_off channel=0 note=59 velocity=111 time=0
EXTRACT: note_off channel=0 note=56 velocity=111 time=0
EXTRACT: note_off channel=0 note=52 velocity=111 time=0
EXTRACT: note_on channel=0 note=64 velocity=111 time=0
EXTRACT: note_on channel=0 note=59 velocity=95 time=0
EXTRACT: note_on channel=0 note=56 velocity=111 time=0
EXTRACT: note_on channel=0 note=52 velocity=111 time=0
EXTRACT: note_on channel=0 note=47 velocity=111 time=0
EXTRACT: note_on channel=4 note=69 velocity=95 time=0
EXTRACT: note_off channel=6 note=88 velocity=95 time=0
EXTRACT: note_off channel=6 note=83 velocity=95 time=0
EXTRACT: note_off channel=14 note=40 velocity=111 time=0
EXTRACT: note_on channel=14 note=40 velocity=111 time=0
EXTRACT: note_off channel=9 note=0 velocity=95 time=0
EXTRACT: note_off channel=9 note=44 velocity=95 time=0
EXTRACT: note_on channel=9 note=0 velocity=95 time=0
EXTRACT: note_on channel=9 note=35 velocity=95 time=0
EXTRACT: note_on channel=9 note=46 velocity=95 time=0
EXTRACT: note_off channel=4 note=69 velocity=95 time=0.14150925
EXTRACT: note_off channel=9 note=0 velocity=95 time=0
EXTRACT: note_off channel=9 note=35 velocity=95 time=0
EXTRACT: note_off channel=9 note=46 velocity=95 time=0
EXTRACT: note_off channel=0 note=64 velocity=111 time=0.14150925
EXTRACT: note_off channel=0 note=59 velocity=95 time=0
EXTRACT: note_off channel=0 note=56 velocity=111 time=0
EXTRACT: note_off channel=0 note=52 velocity=111 time=0
EXTRACT: note_off channel=0 note=47 velocity=111 time=0
EXTRACT: note_on channel=0 note=64 velocity=111 time=0
EXTRACT: note_on channel=0 note=59 velocity=111 time=0
EXTRACT: note_on channel=0 note=56 velocity=95 time=0
EXTRACT: note_on channel=0 note=52 velocity=111 time=0
EXTRACT: note_on channel=0 note=47 velocity=111 time=0
EXTRACT: note_on channel=4 note=71 velocity=95 time=0
EXTRACT: note_on channel=6 note=83 velocity=95 time=0
EXTRACT: note_on channel=6 note=80 velocity=95 time=0
EXTRACT: note_on channel=6 note=76 velocity=95 time=0
EXTRACT: note_on channel=9 note=40 velocity=95 time=0
EXTRACT: note_on channel=9 note=44 velocity=95 time=0
EXTRACT: note_off channel=4 note=71 velocity=95 time=0.14150925
EXTRACT: note_on channel=4 note=73 velocity=95 time=0
EXTRACT: note_off channel=9 note=40 velocity=95 time=0
EXTRACT: note_off channel=9 note=44 velocity=95 time=0
EXTRACT: note_on channel=9 note=0 velocity=95 time=0
EXTRACT: note_on channel=9 note=44 velocity=95 time=0
EXTRACT: note_off channel=0 note=64 velocity=111 time=0.14150925
EXTRACT: note_off channel=0 note=59 velocity=111 time=0
EXTRACT: note_off channel=0 note=56 velocity=95 time=0
EXTRACT: note_off channel=0 note=52 velocity=111 time=0
EXTRACT: note_off channel=0 note=47 velocity=111 time=0
EXTRACT: note_on channel=0 note=55 velocity=95 time=0
EXTRACT: note_on channel=0 note=50 velocity=111 time=0
EXTRACT: note_on channel=0 note=45 velocity=111 time=0
EXTRACT: note_off channel=9 note=0 velocity=95 time=0
EXTRACT: note_off channel=9 note=44 velocity=95 time=0
EXTRACT: note_on channel=9 note=35 velocity=95 time=0
EXTRACT: note_on channel=9 note=46 velocity=95 time=0
EXTRACT: note_off channel=0 note=55 velocity=95 time=0.14150925
EXTRACT: note_off channel=0 note=50 velocity=111 time=0
EXTRACT: note_off channel=0 note=45 velocity=111 time=0
EXTRACT: note_on channel=0 note=55 velocity=111 time=0
EXTRACT: note_on channel=0 note=50 velocity=111 time=0
EXTRACT: note_on channel=0 note=45 velocity=111 time=0
EXTRACT: note_off channel=4 note=73 velocity=95 time=0
EXTRACT: note_on channel=4 note=73 velocity=95 time=0
EXTRACT: note_off channel=6 note=83 velocity=95 time=0
EXTRACT: note_off channel=6 note=80 velocity=95 time=0
EXTRACT: note_off channel=6 note=76 velocity=95 time=0
EXTRACT: note_off channel=9 note=35 velocity=95 time=0
EXTRACT: note_off channel=9 note=46 velocity=95 time=0
EXTRACT: note_on channel=9 note=0 velocity=95 time=0
EXTRACT: note_on channel=9 note=35 velocity=95 time=0
EXTRACT: note_on channel=9 note=44 velocity=95 time=0
EXTRACT: note_off channel=0 note=55 velocity=111 time=0.14150925
EXTRACT: note_off channel=0 note=50 velocity=111 time=0
EXTRACT: note_off channel=0 note=45 velocity=111 time=0
EXTRACT: note_on channel=0 note=61 velocity=111 time=0
EXTRACT: note_on channel=0 note=57 velocity=95 time=0
EXTRACT: note_on channel=0 note=52 velocity=111 time=0
EXTRACT: note_on channel=0 note=45 velocity=111 time=0
EXTRACT: note_on channel=6 note=85 velocity=95 time=0
EXTRACT: note_on channel=6 note=81 velocity=95 time=0
EXTRACT: note_on channel=6 note=76 velocity=95 time=0
EXTRACT: note_off channel=14 note=40 velocity=111 time=0
EXTRACT: note_on channel=14 note=33 velocity=111 time=0
EXTRACT: note_off channel=9 note=0 velocity=95 time=0
EXTRACT: note_off channel=9 note=35 velocity=95 time=0
EXTRACT: note_off channel=9 note=44 velocity=95 time=0
EXTRACT: note_on channel=9 note=0 velocity=95 time=0
EXTRACT: note_on channel=9 note=44 velocity=95 time=0
EXTRACT: note_off channel=4 note=73 velocity=95 time=0.14150925
EXTRACT: note_on channel=4 note=71 velocity=95 time=0
EXTRACT: note_off channel=4 note=71 velocity=95 time=0.14150925
EXTRACT: note_on channel=4 note=69 velocity=95 time=0
EXTRACT: note_off channel=14 note=33 velocity=111 time=0
EXTRACT: note_on channel=14 note=33 velocity=111 time=0
EXTRACT: note_off channel=9 note=0 velocity=95 time=0
EXTRACT: note_off channel=9 note=44 velocity=95 time=0
EXTRACT: note_on channel=9 note=0 velocity=95 time=0
EXTRACT: note_on channel=9 note=35 velocity=95 time=0
EXTRACT: note_on channel=9 note=44 velocity=95 time=0
EXTRACT: note_off channel=4 note=69 velocity=95 time=0.14150925
EXTRACT: note_off channel=14 note=33 velocity=111 time=0
EXTRACT: note_on channel=14 note=33 velocity=111 time=0
EXTRACT: note_off channel=9 note=0 velocity=95 time=0
EXTRACT: note_off channel=9 note=35 velocity=95 time=0
EXTRACT: note_off channel=9 note=44 velocity=95 time=0
EXTRACT: note_off channel=0 note=61 velocity=111 time=0.14150925
EXTRACT: note_off channel=0 note=57 velocity=95 time=0
EXTRACT: note_off channel=0 note=52 velocity=111 time=0
EXTRACT: note_off channel=0 note=45 velocity=111 time=0
EXTRACT: note_on channel=0 note=61 velocity=111 time=0
EXTRACT: note_on channel=0 note=57 velocity=111 time=0
EXTRACT: note_on channel=0 note=52 velocity=111 time=0
EXTRACT: note_on channel=0 note=45 velocity=111 time=0
EXTRACT: note_on channel=2 note=61 velocity=95 time=0
EXTRACT: note_on channel=4 note=64 velocity=95 time=0
EXTRACT: note_off channel=14 note=33 velocity=111 time=0
EXTRACT: note_on channel=14 note=33 velocity=111 time=0
EXTRACT: note_on channel=9 note=40 velocity=95 time=0
EXTRACT: note_on channel=9 note=44 velocity=95 time=0
EXTRACT: note_off channel=2 note=61 velocity=95 time=0.14150925
EXTRACT: note_on channel=2 note=62 velocity=95 time=0
EXTRACT: note_off channel=4 note=64 velocity=95 time=0
EXTRACT: note_on channel=4 note=66 velocity=95 time=0
EXTRACT: note_off channel=9 note=40 velocity=95 time=0
EXTRACT: note_off channel=9 note=44 velocity=95 time=0
EXTRACT: note_off channel=0 note=61 velocity=111 time=0.14150925
EXTRACT: note_off channel=0 note=57 velocity=111 time=0
EXTRACT: note_off channel=0 note=52 velocity=111 time=0
EXTRACT: note_off channel=0 note=45 velocity=111 time=0
EXTRACT: note_on channel=0 note=59 velocity=95 time=0
EXTRACT: note_on channel=0 note=55 velocity=111 time=0
EXTRACT: note_on channel=0 note=50 velocity=111 time=0
EXTRACT: note_on channel=0 note=45 velocity=111 time=0
EXTRACT: note_off channel=2 note=62 velocity=95 time=0
EXTRACT: note_off channel=4 note=66 velocity=95 time=0
EXTRACT: note_on channel=9 note=35 velocity=95 time=0
EXTRACT: note_on channel=9 note=44 velocity=95 time=0
EXTRACT: note_off channel=0 note=59 velocity=95 time=0.031249959375
EXTRACT: note_off channel=0 note=55 velocity=111 time=0
EXTRACT: note_off channel=0 note=50 velocity=111 time=0
EXTRACT: note_off channel=0 note=45 velocity=111 time=0
EXTRACT: note_on channel=0 note=64 velocity=111 time=0.110259290625
EXTRACT: note_on channel=0 note=59 velocity=111 time=0
EXTRACT: note_on channel=0 note=56 velocity=95 time=0
EXTRACT: note_on channel=0 note=52 velocity=111 time=0
EXTRACT: note_on channel=2 note=66 velocity=95 time=0
EXTRACT: note_on channel=4 note=69 velocity=95 time=0
EXTRACT: note_off channel=6 note=85 velocity=95 time=0
EXTRACT: note_off channel=6 note=81 velocity=95 time=0
EXTRACT: note_off channel=6 note=76 velocity=95 time=0
EXTRACT: note_off channel=14 note=33 velocity=111 time=0
EXTRACT: note_on channel=14 note=40 velocity=111 time=0
EXTRACT: note_off channel=9 note=35 velocity=95 time=0
EXTRACT: note_off channel=9 note=44 velocity=95 time=0
EXTRACT: note_on channel=9 note=0 velocity=95 time=0
EXTRACT: note_on channel=9 note=35 velocity=95 time=0
EXTRACT: note_on channel=9 note=44 velocity=95 time=0
EXTRACT: note_off channel=0 note=64 velocity=111 time=0.14150925
EXTRACT: note_off channel=0 note=59 velocity=111 time=0
EXTRACT: note_off channel=0 note=56 velocity=95 time=0
EXTRACT: note_off channel=0 note=52 velocity=111 time=0
EXTRACT: note_off channel=2 note=66 velocity=95 time=0
EXTRACT: note_off channel=4 note=69 velocity=95 time=0
EXTRACT: note_on channel=6 note=83 velocity=95 time=0
EXTRACT: note_on channel=6 note=80 velocity=95 time=0
EXTRACT: note_on channel=6 note=76 velocity=95 time=0
EXTRACT: note_off channel=14 note=40 velocity=111 time=0
EXTRACT: note_off channel=9 note=0 velocity=95 time=0
EXTRACT: note_off channel=9 note=35 velocity=95 time=0
EXTRACT: note_off channel=9 note=44 velocity=95 time=0
EXTRACT: note_on channel=9 note=0 velocity=95 time=0
EXTRACT: note_on channel=9 note=44 velocity=95 time=0
EXTRACT: note_on channel=0 note=64 velocity=95 time=0.14150925
EXTRACT: note_on channel=0 note=59 velocity=111 time=0
EXTRACT: note_on channel=0 note=56 velocity=111 time=0
EXTRACT: note_on channel=0 note=52 velocity=111 time=0
EXTRACT: note_on channel=2 note=66 velocity=95 time=0
EXTRACT: note_on channel=4 note=69 velocity=95 time=0
EXTRACT: note_on channel=14 note=40 velocity=111 time=0
EXTRACT: note_off channel=9 note=0 velocity=95 time=0
EXTRACT: note_off channel=9 note=44 velocity=95 time=0
EXTRACT: note_off channel=0 note=64 velocity=95 time=0.14150925
EXTRACT: note_off channel=0 note=59 velocity=111 time=0
EXTRACT: note_off channel=0 note=56 velocity=111 time=0
EXTRACT: note_off channel=0 note=52 velocity=111 time=0
EXTRACT: note_on channel=0 note=64 velocity=111 time=0
EXTRACT: note_on channel=0 note=59 velocity=95 time=0
EXTRACT: note_on channel=0 note=56 velocity=111 time=0
EXTRACT: note_on channel=0 note=52 velocity=111 time=0
EXTRACT: note_on channel=0 note=47 velocity=111 time=0
EXTRACT: note_off channel=2 note=66 velocity=95 time=0
EXTRACT: note_off channel=14 note=40 velocity=111 time=0
EXTRACT: note_on channel=14 note=40 velocity=111 time=0
EXTRACT: note_on channel=9 note=35 velocity=95 time=0
EXTRACT: note_on channel=9 note=36 velocity=95 time=0
EXTRACT: note_on channel=9 note=44 velocity=95 time=0
EXTRACT: note_on channel=2 note=69 velocity=95 time=0.14150925
EXTRACT: note_off channel=4 note=69 velocity=95 time=0
EXTRACT: note_on channel=4 note=73 velocity=95 time=0
EXTRACT: note_off channel=9 note=35 velocity=95 time=0
EXTRACT: note_off channel=9 note=36 velocity=95 time=0
EXTRACT: note_off channel=9 note=44 velocity=95 time=0
EXTRACT: note_off channel=0 note=64 velocity=111 time=0.14150925
EXTRACT: note_off channel=0 note=59 velocity=95 time=0
EXTRACT: note_off channel=0 note=56 velocity=111 time=0
EXTRACT: note_off channel=0 note=52 velocity=111 time=0
EXTRACT: note_off channel=0 note=47 velocity=111 time=0
EXTRACT: note_on channel=0 note=64 velocity=111 time=0
EXTRACT: note_on channel=0 note=59 velocity=111 time=0
EXTRACT: note_on channel=0 note=56 velocity=95 time=0
EXTRACT: note_on channel=0 note=52 velocity=111 time=0
EXTRACT: note_on channel=0 note=47 velocity=111 time=0
EXTRACT: note_off channel=2 note=69 velocity=95 time=0
EXTRACT: note_on channel=2 note=68 velocity=95 time=0
EXTRACT: note_off channel=4 note=73 velocity=95 time=0
EXTRACT: note_on channel=4 note=71 velocity=95 time=0
EXTRACT: note_on channel=9 note=40 velocity=95 time=0
EXTRACT: note_on channel=9 note=44 velocity=95 time=0
EXTRACT: note_off channel=4 note=71 velocity=95 time=0.14150925
EXTRACT: note_off channel=9 note=40 velocity=95 time=0
EXTRACT: note_off channel=9 note=44 velocity=95 time=0
EXTRACT: note_off channel=0 note=64 velocity=111 time=0.14150925
EXTRACT: note_off channel=0 note=59 velocity=111 time=0
EXTRACT: note_off channel=0 note=56 velocity=95 time=0
EXTRACT: note_off channel=0 note=52 velocity=111 time=0
EXTRACT: note_off channel=0 note=47 velocity=111 time=0
EXTRACT: note_on channel=0 note=55 velocity=95 time=0
EXTRACT: note_on channel=0 note=50 velocity=111 time=0
EXTRACT: note_on channel=0 note=45 velocity=111 time=0
EXTRACT: note_off channel=2 note=68 velocity=95 time=0
EXTRACT: note_on channel=2 note=66 velocity=95 time=0
EXTRACT: note_on channel=4 note=69 velocity=95 time=0
EXTRACT: note_on channel=9 note=35 velocity=95 time=0
EXTRACT: note_on channel=9 note=44 velocity=95 time=0
EXTRACT: note_off channel=0 note=55 velocity=95 time=0.14150925
EXTRACT: note_off channel=0 note=50 velocity=111 time=0
EXTRACT: note_off channel=0 note=45 velocity=111 time=0
EXTRACT: note_on channel=0 note=55 velocity=111 time=0
EXTRACT: note_on channel=0 note=50 velocity=111 time=0
EXTRACT: note_on channel=0 note=45 velocity=111 time=0
EXTRACT: note_off channel=6 note=83 velocity=95 time=0
EXTRACT: note_off channel=6 note=80 velocity=95 time=0
EXTRACT: note_off channel=6 note=76 velocity=95 time=0
EXTRACT: note_off channel=9 note=35 velocity=95 time=0
EXTRACT: note_off channel=9 note=44 velocity=95 time=0
EXTRACT: note_on channel=9 note=0 velocity=95 time=0
EXTRACT: note_on channel=9 note=35 velocity=95 time=0
EXTRACT: note_on channel=9 note=44 velocity=95 time=0
EXTRACT: note_off channel=0 note=55 velocity=111 time=0.14150925
EXTRACT: note_off channel=0 note=50 velocity=111 time=0
EXTRACT: note_off channel=0 note=45 velocity=111 time=0
EXTRACT: note_on channel=0 note=66 velocity=111 time=0
EXTRACT: note_on channel=0 note=62 velocity=111 time=0
EXTRACT: note_on channel=0 note=57 velocity=111 time=0
EXTRACT: note_on channel=0 note=50 velocity=111 time=0
EXTRACT: note_off channel=2 note=66 velocity=95 time=0
EXTRACT: note_off channel=4 note=69 velocity=95 time=0
EXTRACT: note_on channel=6 note=86 velocity=95 time=0
EXTRACT: note_on channel=6 note=81 velocity=95 time=0
EXTRACT: note_on channel=6 note=78 velocity=95 time=0
EXTRACT: note_off channel=14 note=40 velocity=111 time=0
EXTRACT: note_on channel=14 note=38 velocity=111 time=0
EXTRACT: note_off channel=9 note=0 velocity=95 time=0
EXTRACT: note_off channel=9 note=35 velocity=95 time=0
EXTRACT: note_off channel=9 note=44 velocity=95 time=0
EXTRACT: note_on channel=9 note=0 velocity=95 time=0
EXTRACT: note_on channel=9 note=44 velocity=95 time=0
EXTRACT: note_off channel=9 note=0 velocity=95 time=0.14150925
EXTRACT: note_off channel=9 note=44 velocity=95 time=0
EXTRACT: note_off channel=14 note=38 velocity=111 time=0.14150925
EXTRACT: note_on channel=14 note=38 velocity=111 time=0
EXTRACT: note_on channel=9 note=35 velocity=95 time=0
EXTRACT: note_on channel=9 note=44 velocity=95 time=0
EXTRACT: note_off channel=14 note=38 velocity=111 time=0.14150925
EXTRACT: note_on channel=14 note=38 velocity=111 time=0
EXTRACT: note_off channel=9 note=35 velocity=95 time=0
EXTRACT: note_off channel=9 note=44 velocity=95 time=0
EXTRACT: note_off channel=0 note=66 velocity=111 time=0.14150925
EXTRACT: note_off channel=0 note=62 velocity=111 time=0
EXTRACT: note_off channel=0 note=57 velocity=111 time=0
EXTRACT: note_off channel=0 note=50 velocity=111 time=0
EXTRACT: note_on channel=0 note=66 velocity=95 time=0
EXTRACT: note_on channel=0 note=62 velocity=111 time=0
EXTRACT: note_on channel=0 note=57 velocity=111 time=0
EXTRACT: note_on channel=0 note=50 velocity=111 time=0
EXTRACT: note_off channel=14 note=38 velocity=111 time=0
EXTRACT: note_on channel=14 note=38 velocity=111 time=0
EXTRACT: note_on channel=9 note=40 velocity=95 time=0
EXTRACT: note_on channel=9 note=44 velocity=95 time=0
EXTRACT: note_on channel=4 note=64 velocity=95 time=0.14150925
EXTRACT: note_off channel=9 note=40 velocity=95 time=0
EXTRACT: note_off channel=9 note=44 velocity=95 time=0
EXTRACT: note_off channel=0 note=66 velocity=95 time=0.14150925
EXTRACT: note_off channel=0 note=62 velocity=111 time=0
EXTRACT: note_off channel=0 note=57 velocity=111 time=0
EXTRACT: note_off channel=0 note=50 velocity=111 time=0
EXTRACT: note_on channel=0 note=64 velocity=111 time=0
EXTRACT: note_on channel=0 note=59 velocity=95 time=0
EXTRACT: note_on channel=0 note=55 velocity=111 time=0
EXTRACT: note_on channel=0 note=50 velocity=111 time=0
EXTRACT: note_off channel=4 note=64 velocity=95 time=0
EXTRACT: note_on channel=4 note=66 velocity=95 time=0
EXTRACT: note_on channel=9 note=35 velocity=95 time=0
EXTRACT: note_on channel=9 note=44 velocity=95 time=0
EXTRACT: note_off channel=0 note=64 velocity=111 time=0.031249959375
EXTRACT: note_off channel=0 note=59 velocity=95 time=0
EXTRACT: note_off channel=0 note=55 velocity=111 time=0
EXTRACT: note_off channel=0 note=50 velocity=111 time=0
EXTRACT: note_on channel=0 note=64 velocity=111 time=0.110259290625
EXTRACT: note_on channel=0 note=59 velocity=111 time=0
EXTRACT: note_on channel=0 note=56 velocity=95 time=0
EXTRACT: note_on channel=0 note=52 velocity=111 time=0
EXTRACT: note_off channel=4 note=66 velocity=95 time=0
EXTRACT: note_off channel=6 note=86 velocity=95 time=0
EXTRACT: note_off channel=6 note=81 velocity=95 time=0
EXTRACT: note_off channel=6 note=78 velocity=95 time=0
EXTRACT: note_off channel=14 note=38 velocity=111 time=0
EXTRACT: note_on channel=14 note=40 velocity=111 time=0
EXTRACT: note_off channel=9 note=35 velocity=95 time=0
EXTRACT: note_off channel=9 note=44 velocity=95 time=0
EXTRACT: note_on channel=9 note=0 velocity=95 time=0
EXTRACT: note_on channel=9 note=35 velocity=95 time=0
EXTRACT: note_on channel=9 note=44 velocity=95 time=0
EXTRACT: note_off channel=0 note=64 velocity=111 time=0.14150925
EXTRACT: note_off channel=0 note=59 velocity=111 time=0
EXTRACT: note_off channel=0 note=56 velocity=95 time=0
EXTRACT: note_off channel=0 note=52 velocity=111 time=0
EXTRACT: note_on channel=4 note=69 velocity=95 time=0
EXTRACT: note_off channel=14 note=40 velocity=111 time=0
EXTRACT: note_off channel=9 note=0 velocity=95 time=0
EXTRACT: note_off channel=9 note=35 velocity=95 time=0
EXTRACT: note_off channel=9 note=44 velocity=95 time=0
EXTRACT: note_on channel=9 note=0 velocity=95 time=0
EXTRACT: note_on channel=9 note=44 velocity=95 time=0
EXTRACT: note_on channel=0 note=64 velocity=95 time=0.14150925
EXTRACT: note_on channel=0 note=59 velocity=111 time=0
EXTRACT: note_on channel=0 note=56 velocity=111 time=0
EXTRACT: note_on channel=0 note=52 velocity=111 time=0
EXTRACT: note_off channel=4 note=69 velocity=95 time=0
EXTRACT: note_on channel=4 note=69 velocity=95 time=0
EXTRACT: note_on channel=6 note=88 velocity=95 time=0
EXTRACT: note_on channel=6 note=83 velocity=95 time=0
EXTRACT: note_on channel=14 note=40 velocity=111 time=0
EXTRACT: note_off channel=9 note=0 velocity=95 time=0
EXTRACT: note_off channel=9 note=44 velocity=95 time=0
EXTRACT: note_on channel=9 note=0 velocity=95 time=0
EXTRACT: note_on channel=9 note=35 velocity=95 time=0
EXTRACT: note_on channel=9 note=44 velocity=95 time=0
EXTRACT: note_off channel=0 note=64 velocity=95 time=0.14150925
EXTRACT: note_off channel=0 note=59 velocity=111 time=0
EXTRACT: note_off channel=0 note=56 velocity=111 time=0
EXTRACT: note_off channel=0 note=52 velocity=111 time=0
EXTRACT: note_on channel=0 note=64 velocity=111 time=0
EXTRACT: note_on channel=0 note=59 velocity=95 time=0
EXTRACT: note_on channel=0 note=56 velocity=111 time=0
EXTRACT: note_on channel=0 note=52 velocity=111 time=0
EXTRACT: note_on channel=0 note=47 velocity=111 time=0
EXTRACT: note_off channel=6 note=88 velocity=95 time=0
EXTRACT: note_off channel=6 note=83 velocity=95 time=0
EXTRACT: note_off channel=14 note=40 velocity=111 time=0
EXTRACT: note_on channel=14 note=40 velocity=111 time=0
EXTRACT: note_off channel=9 note=0 velocity=95 time=0
EXTRACT: note_off channel=9 note=35 velocity=95 time=0
EXTRACT: note_off channel=9 note=44 velocity=95 time=0
EXTRACT: note_on channel=9 note=0 velocity=95 time=0
EXTRACT: note_on channel=9 note=44 velocity=95 time=0
EXTRACT: note_off channel=4 note=69 velocity=95 time=0.14150925
EXTRACT: note_on channel=6 note=76 velocity=95 time=0
EXTRACT: note_off channel=9 note=0 velocity=95 time=0
EXTRACT: note_off channel=9 note=44 velocity=95 time=0
EXTRACT: note_off channel=0 note=64 velocity=111 time=0.14150925
EXTRACT: note_off channel=0 note=59 velocity=95 time=0
EXTRACT: note_off channel=0 note=56 velocity=111 time=0
EXTRACT: note_off channel=0 note=52 velocity=111 time=0
EXTRACT: note_off channel=0 note=47 velocity=111 time=0
EXTRACT: note_on channel=0 note=64 velocity=111 time=0
EXTRACT: note_on channel=0 note=59 velocity=111 time=0
EXTRACT: note_on channel=0 note=56 velocity=95 time=0
EXTRACT: note_on channel=0 note=52 velocity=111 time=0
EXTRACT: note_on channel=0 note=47 velocity=111 time=0
EXTRACT: note_on channel=2 note=68 velocity=95 time=0
EXTRACT: note_on channel=4 note=71 velocity=95 time=0
EXTRACT: note_off channel=6 note=76 velocity=95 time=0
EXTRACT: note_on channel=6 note=88 velocity=95 time=0
EXTRACT: note_on channel=6 note=83 velocity=95 time=0
EXTRACT: note_on channel=9 note=40 velocity=95 time=0
EXTRACT: note_on channel=9 note=44 velocity=95 time=0
EXTRACT: note_off channel=2 note=68 velocity=95 time=0.14150925
EXTRACT: note_on channel=2 note=69 velocity=95 time=0
EXTRACT: note_off channel=4 note=71 velocity=95 time=0
EXTRACT: note_on channel=4 note=73 velocity=95 time=0
EXTRACT: note_off channel=9 note=40 velocity=95 time=0
EXTRACT: note_off channel=9 note=44 velocity=95 time=0
EXTRACT: note_off channel=0 note=64 velocity=111 time=0.14150925
EXTRACT: note_off channel=0 note=59 velocity=111 time=0
EXTRACT: note_off channel=0 note=56 velocity=95 time=0
EXTRACT: note_off channel=0 note=52 velocity=111 time=0
EXTRACT: note_off channel=0 note=47 velocity=111 time=0
EXTRACT: note_on channel=0 note=55 velocity=95 time=0
EXTRACT: note_on channel=0 note=50 velocity=111 time=0
EXTRACT: note_on channel=0 note=45 velocity=111 time=0
EXTRACT: note_off channel=2 note=69 velocity=95 time=0
EXTRACT: note_off channel=6 note=88 velocity=95 time=0
EXTRACT: note_off channel=6 note=83 velocity=95 time=0
EXTRACT: note_on channel=6 note=76 velocity=95 time=0
EXTRACT: note_on channel=9 note=35 velocity=95 time=0
EXTRACT: note_on channel=9 note=44 velocity=95 time=0
EXTRACT: note_off channel=0 note=55 velocity=95 time=0.14150925
EXTRACT: note_off channel=0 note=50 velocity=111 time=0
EXTRACT: note_off channel=0 note=45 velocity=111 time=0
EXTRACT: note_on channel=0 note=55 velocity=111 time=0
EXTRACT: note_on channel=0 note=50 velocity=111 time=0
EXTRACT: note_on channel=0 note=45 velocity=111 time=0
EXTRACT: note_on channel=2 note=69 velocity=95 time=0
EXTRACT: note_off channel=4 note=73 velocity=95 time=0
EXTRACT: note_on channel=4 note=73 velocity=95 time=0
EXTRACT: note_off channel=6 note=76 velocity=95 time=0
EXTRACT: note_off channel=9 note=35 velocity=95 time=0
EXTRACT: note_off channel=9 note=44 velocity=95 time=0
EXTRACT: note_on channel=9 note=0 velocity=95 time=0
EXTRACT: note_on channel=9 note=46 velocity=95 time=0
EXTRACT: note_off channel=0 note=55 velocity=111 time=0.14150925
EXTRACT: note_off channel=0 note=50 velocity=111 time=0
EXTRACT: note_off channel=0 note=45 velocity=111 time=0
EXTRACT: note_on channel=0 note=61 velocity=111 time=0
EXTRACT: note_on channel=0 note=57 velocity=95 time=0
EXTRACT: note_on channel=0 note=52 velocity=111 time=0
EXTRACT: note_on channel=0 note=45 velocity=111 time=0
EXTRACT: note_on channel=6 note=85 velocity=95 time=0
EXTRACT: note_on channel=6 note=81 velocity=95 time=0
EXTRACT: note_on channel=6 note=76 velocity=95 time=0
EXTRACT: note_off channel=14 note=40 velocity=111 time=0
EXTRACT: note_on channel=14 note=33 velocity=111 time=0
EXTRACT: note_off channel=9 note=0 velocity=95 time=0
EXTRACT: note_off channel=9 note=46 velocity=95 time=0
EXTRACT: note_on channel=9 note=35 velocity=95 time=0
EXTRACT: note_on channel=9 note=44 velocity=95 time=0
EXTRACT: note_off channel=9 note=35 velocity=95 time=0.14150925
EXTRACT: note_off channel=9 note=44 velocity=95 time=0
EXTRACT: note_off channel=14 note=33 velocity=111 time=0.14150925
EXTRACT: note_on channel=14 note=33 velocity=111 time=0
EXTRACT: note_on channel=9 note=35 velocity=95 time=0
EXTRACT: note_on channel=9 note=44 velocity=95 time=0
EXTRACT: note_off channel=14 note=33 velocity=111 time=0.14150925
EXTRACT: note_on channel=14 note=33 velocity=111 time=0
EXTRACT: note_off channel=9 note=35 velocity=95 time=0
EXTRACT: note_off channel=9 note=44 velocity=95 time=0
EXTRACT: note_off channel=0 note=61 velocity=111 time=0.14150925
EXTRACT: note_off channel=0 note=57 velocity=95 time=0
EXTRACT: note_off channel=0 note=52 velocity=111 time=0
EXTRACT: note_off channel=0 note=45 velocity=111 time=0
EXTRACT: note_on channel=0 note=61 velocity=111 time=0
EXTRACT: note_on channel=0 note=57 velocity=111 time=0
EXTRACT: note_on channel=0 note=52 velocity=111 time=0
EXTRACT: note_on channel=0 note=45 velocity=111 time=0
EXTRACT: note_off channel=14 note=33 velocity=111 time=0
EXTRACT: note_on channel=14 note=33 velocity=111 time=0
EXTRACT: note_on channel=9 note=40 velocity=95 time=0
EXTRACT: note_on channel=9 note=44 velocity=95 time=0
EXTRACT: note_off channel=9 note=40 velocity=95 time=0.14150925
EXTRACT: note_off channel=9 note=44 velocity=95 time=0
EXTRACT: note_off channel=0 note=61 velocity=111 time=0.14150925
EXTRACT: note_off channel=0 note=57 velocity=111 time=0
EXTRACT: note_off channel=0 note=52 velocity=111 time=0
EXTRACT: note_off channel=0 note=45 velocity=111 time=0
EXTRACT: note_on channel=0 note=59 velocity=95 time=0
EXTRACT: note_on channel=0 note=55 velocity=111 time=0
EXTRACT: note_on channel=0 note=50 velocity=111 time=0
EXTRACT: note_on channel=0 note=45 velocity=111 time=0
EXTRACT: note_on channel=9 note=35 velocity=95 time=0
EXTRACT: note_on channel=9 note=44 velocity=95 time=0
EXTRACT: note_off channel=0 note=59 velocity=95 time=0.031249959375
EXTRACT: note_off channel=0 note=55 velocity=111 time=0
EXTRACT: note_off channel=0 note=50 velocity=111 time=0
EXTRACT: note_off channel=0 note=45 velocity=111 time=0
EXTRACT: note_on channel=0 note=64 velocity=111 time=0.110259290625
EXTRACT: note_on channel=0 note=59 velocity=111 time=0
EXTRACT: note_on channel=0 note=56 velocity=95 time=0
EXTRACT: note_on channel=0 note=52 velocity=111 time=0
EXTRACT: note_off channel=6 note=85 velocity=95 time=0
EXTRACT: note_off channel=6 note=81 velocity=95 time=0
EXTRACT: note_off channel=6 note=76 velocity=95 time=0
EXTRACT: note_off channel=14 note=33 velocity=111 time=0
EXTRACT: note_on channel=14 note=40 velocity=111 time=0
EXTRACT: note_off channel=9 note=35 velocity=95 time=0
EXTRACT: note_off channel=9 note=44 velocity=95 time=0
EXTRACT: note_on channel=9 note=0 velocity=95 time=0
EXTRACT: note_on channel=9 note=35 velocity=95 time=0
EXTRACT: note_on channel=9 note=44 velocity=95 time=0
EXTRACT: note_off channel=0 note=64 velocity=111 time=0.14150925
EXTRACT: note_off channel=0 note=59 velocity=111 time=0
EXTRACT: note_off channel=0 note=56 velocity=95 time=0
EXTRACT: note_off channel=0 note=52 velocity=111 time=0
EXTRACT: note_off channel=14 note=40 velocity=111 time=0
EXTRACT: note_off channel=9 note=0 velocity=95 time=0
EXTRACT: note_off channel=9 note=35 velocity=95 time=0
EXTRACT: note_off channel=9 note=44 velocity=95 time=0
EXTRACT: note_on channel=9 note=0 velocity=95 time=0
EXTRACT: note_on channel=9 note=44 velocity=95 time=0
EXTRACT: note_on channel=0 note=64 velocity=95 time=0.14150925
EXTRACT: note_on channel=0 note=59 velocity=111 time=0
EXTRACT: note_on channel=0 note=56 velocity=111 time=0
EXTRACT: note_on channel=0 note=52 velocity=111 time=0
EXTRACT: note_off channel=2 note=69 velocity=95 time=0
EXTRACT: note_on channel=6 note=83 velocity=95 time=0
EXTRACT: note_on channel=6 note=80 velocity=95 time=0
EXTRACT: note_on channel=14 note=40 velocity=111 time=0
EXTRACT: note_off channel=0 note=64 velocity=95 time=0.14150925
EXTRACT: note_off channel=0 note=59 velocity=111 time=0
EXTRACT: note_off channel=0 note=56 velocity=111 time=0
EXTRACT: note_off channel=0 note=52 velocity=111 time=0
EXTRACT: note_on channel=0 note=64 velocity=111 time=0
EXTRACT: note_on channel=0 note=59 velocity=95 time=0
EXTRACT: note_on channel=0 note=56 velocity=111 time=0
EXTRACT: note_on channel=0 note=52 velocity=111 time=0
EXTRACT: note_on channel=0 note=47 velocity=111 time=0
EXTRACT: note_off channel=6 note=83 velocity=95 time=0
EXTRACT: note_off channel=6 note=80 velocity=95 time=0
EXTRACT: note_off channel=14 note=40 velocity=111 time=0
EXTRACT: note_on channel=14 note=40 velocity=111 time=0
EXTRACT: note_off channel=9 note=0 velocity=95 time=0
EXTRACT: note_off channel=9 note=44 velocity=95 time=0
EXTRACT: note_on channel=9 note=0 velocity=95 time=0
EXTRACT: note_on channel=9 note=35 velocity=95 time=0
EXTRACT: note_on channel=9 note=44 velocity=95 time=0
EXTRACT: note_off channel=4 note=73 velocity=95 time=0.14150925
EXTRACT: note_off channel=9 note=0 velocity=95 time=0
EXTRACT: note_off channel=9 note=35 velocity=95 time=0
EXTRACT: note_off channel=9 note=44 velocity=95 time=0
EXTRACT: note_off channel=0 note=64 velocity=111 time=0.14150925
EXTRACT: note_off channel=0 note=59 velocity=95 time=0
EXTRACT: note_off channel=0 note=56 velocity=111 time=0
EXTRACT: note_off channel=0 note=52 velocity=111 time=0
EXTRACT: note_off channel=0 note=47 velocity=111 time=0
EXTRACT: note_on channel=0 note=64 velocity=111 time=0
EXTRACT: note_on channel=0 note=59 velocity=111 time=0
EXTRACT: note_on channel=0 note=56 velocity=95 time=0
EXTRACT: note_on channel=0 note=52 velocity=111 time=0
EXTRACT: note_on channel=0 note=47 velocity=111 time=0
EXTRACT: note_on channel=2 note=69 velocity=95 time=0
EXTRACT: note_on channel=4 note=73 velocity=95 time=0
EXTRACT: note_on channel=6 note=83 velocity=95 time=0
EXTRACT: note_on channel=6 note=80 velocity=95 time=0
EXTRACT: note_on channel=9 note=40 velocity=95 time=0
EXTRACT: note_on channel=9 note=44 velocity=95 time=0
EXTRACT: note_off channel=2 note=69 velocity=95 time=0.14150925
EXTRACT: note_on channel=2 note=68 velocity=95 time=0
EXTRACT: note_off channel=4 note=73 velocity=95 time=0
EXTRACT: note_on channel=4 note=71 velocity=95 time=0
EXTRACT: note_off channel=9 note=40 velocity=95 time=0
EXTRACT: note_off channel=9 note=44 velocity=95 time=0
EXTRACT: note_off channel=0 note=64 velocity=111 time=0.14150925
EXTRACT: note_off channel=0 note=59 velocity=111 time=0
EXTRACT: note_off channel=0 note=56 velocity=95 time=0
EXTRACT: note_off channel=0 note=52 velocity=111 time=0
EXTRACT: note_off channel=0 note=47 velocity=111 time=0
EXTRACT: note_on channel=0 note=55 velocity=95 time=0
EXTRACT: note_on channel=0 note=50 velocity=111 time=0
EXTRACT: note_on channel=0 note=45 velocity=111 time=0
EXTRACT: note_off channel=6 note=83 velocity=95 time=0
EXTRACT: note_off channel=6 note=80 velocity=95 time=0
EXTRACT: note_on channel=6 note=76 velocity=95 time=0
EXTRACT: note_on channel=9 note=35 velocity=95 time=0
EXTRACT: note_on channel=9 note=44 velocity=95 time=0
EXTRACT: note_off channel=0 note=55 velocity=95 time=0.14150925
EXTRACT: note_off channel=0 note=50 velocity=111 time=0
EXTRACT: note_off channel=0 note=45 velocity=111 time=0
EXTRACT: note_on channel=0 note=55 velocity=111 time=0
EXTRACT: note_on channel=0 note=50 velocity=111 time=0
EXTRACT: note_on channel=0 note=45 velocity=111 time=0
EXTRACT: note_off channel=2 note=68 velocity=95 time=0
EXTRACT: note_on channel=2 note=66 velocity=95 time=0
EXTRACT: note_off channel=4 note=71 velocity=95 time=0
EXTRACT: note_on channel=4 note=69 velocity=95 time=0
EXTRACT: note_off channel=9 note=35 velocity=95 time=0
EXTRACT: note_off channel=9 note=44 velocity=95 time=0
EXTRACT: note_on channel=9 note=0 velocity=95 time=0
EXTRACT: note_on channel=9 note=35 velocity=95 time=0
EXTRACT: note_on channel=9 note=44 velocity=95 time=0
EXTRACT: note_off channel=0 note=55 velocity=111 time=0.14150925
EXTRACT: note_off channel=0 note=50 velocity=111 time=0
EXTRACT: note_off channel=0 note=45 velocity=111 time=0
EXTRACT: note_on channel=0 note=66 velocity=111 time=0
EXTRACT: note_on channel=0 note=62 velocity=111 time=0
EXTRACT: note_on channel=0 note=57 velocity=111 time=0
EXTRACT: note_on channel=0 note=50 velocity=111 time=0
EXTRACT: note_off channel=6 note=76 velocity=95 time=0
EXTRACT: note_on channel=6 note=86 velocity=95 time=0
EXTRACT: note_on channel=6 note=81 velocity=95 time=0
EXTRACT: note_on channel=6 note=78 velocity=95 time=0
EXTRACT: note_off channel=14 note=40 velocity=111 time=0
EXTRACT: note_on channel=14 note=38 velocity=111 time=0
EXTRACT: note_off channel=9 note=0 velocity=95 time=0
EXTRACT: note_off channel=9 note=35 velocity=95 time=0
EXTRACT: note_off channel=9 note=44 velocity=95 time=0
EXTRACT: note_on channel=9 note=0 velocity=95 time=0
EXTRACT: note_on channel=9 note=44 velocity=95 time=0
EXTRACT: note_off channel=14 note=38 velocity=111 time=0.2830185
EXTRACT: note_on channel=14 note=38 velocity=111 time=0
EXTRACT: note_off channel=9 note=0 velocity=95 time=0
EXTRACT: note_off channel=9 note=44 velocity=95 time=0
EXTRACT: note_on channel=9 note=0 velocity=95 time=0
EXTRACT: note_on channel=9 note=35 velocity=95 time=0
EXTRACT: note_on channel=9 note=44 velocity=95 time=0
EXTRACT: note_off channel=14 note=38 velocity=111 time=0.14150925
EXTRACT: note_on channel=14 note=38 velocity=111 time=0
EXTRACT: note_off channel=9 note=0 velocity=95 time=0
EXTRACT: note_off channel=9 note=35 velocity=95 time=0
EXTRACT: note_off channel=9 note=44 velocity=95 time=0
EXTRACT: note_off channel=0 note=66 velocity=111 time=0.14150925
EXTRACT: note_off channel=0 note=62 velocity=111 time=0
EXTRACT: note_off channel=0 note=57 velocity=111 time=0
EXTRACT: note_off channel=0 note=50 velocity=111 time=0
EXTRACT: note_on channel=0 note=66 velocity=95 time=0
EXTRACT: note_on channel=0 note=62 velocity=111 time=0
EXTRACT: note_on channel=0 note=57 velocity=111 time=0
EXTRACT: note_on channel=0 note=50 velocity=111 time=0
EXTRACT: note_off channel=14 note=38 velocity=111 time=0
EXTRACT: note_on channel=14 note=38 velocity=111 time=0
EXTRACT: note_on channel=9 note=40 velocity=95 time=0
EXTRACT: note_on channel=9 note=44 velocity=95 time=0
EXTRACT: note_off channel=2 note=66 velocity=95 time=0.14150925
EXTRACT: note_off channel=4 note=69 velocity=95 time=0
EXTRACT: note_off channel=9 note=40 velocity=95 time=0
EXTRACT: note_off channel=9 note=44 velocity=95 time=0
EXTRACT: note_off channel=0 note=66 velocity=95 time=0.14150925
EXTRACT: note_off channel=0 note=62 velocity=111 time=0
EXTRACT: note_off channel=0 note=57 velocity=111 time=0
EXTRACT: note_off channel=0 note=50 velocity=111 time=0
EXTRACT: note_on channel=0 note=64 velocity=111 time=0
EXTRACT: note_on channel=0 note=59 velocity=95 time=0
EXTRACT: note_on channel=0 note=55 velocity=111 time=0
EXTRACT: note_on channel=0 note=50 velocity=111 time=0
EXTRACT: note_off channel=6 note=86 velocity=95 time=0
EXTRACT: note_off channel=6 note=81 velocity=95 time=0
EXTRACT: note_off channel=6 note=78 velocity=95 time=0
EXTRACT: note_on channel=9 note=35 velocity=95 time=0
EXTRACT: note_on channel=9 note=44 velocity=95 time=0
EXTRACT: note_off channel=0 note=64 velocity=111 time=0.031249959375
EXTRACT: note_off channel=0 note=59 velocity=95 time=0
EXTRACT: note_off channel=0 note=55 velocity=111 time=0
EXTRACT: note_off channel=0 note=50 velocity=111 time=0
EXTRACT: note_on channel=0 note=64 velocity=111 time=0.110259290625
EXTRACT: note_on channel=0 note=59 velocity=111 time=0
EXTRACT: note_on channel=0 note=56 velocity=95 time=0
EXTRACT: note_on channel=0 note=52 velocity=111 time=0
EXTRACT: note_off channel=14 note=38 velocity=111 time=0
EXTRACT: note_on channel=14 note=40 velocity=111 time=0
EXTRACT: note_off channel=9 note=35 velocity=95 time=0
EXTRACT: note_off channel=9 note=44 velocity=95 time=0
EXTRACT: note_on channel=9 note=0 velocity=95 time=0
EXTRACT: note_on channel=9 note=35 velocity=95 time=0
EXTRACT: note_on channel=9 note=44 velocity=95 time=0
EXTRACT: note_off channel=0 note=64 velocity=111 time=0.14150925
EXTRACT: note_off channel=0 note=59 velocity=111 time=0
EXTRACT: note_off channel=0 note=56 velocity=95 time=0
EXTRACT: note_off channel=0 note=52 velocity=111 time=0
EXTRACT: note_on channel=4 note=66 velocity=95 time=0
EXTRACT: note_off channel=14 note=40 velocity=111 time=0
EXTRACT: note_off channel=9 note=0 velocity=95 time=0
EXTRACT: note_off channel=9 note=35 velocity=95 time=0
EXTRACT: note_off channel=9 note=44 velocity=95 time=0
EXTRACT: note_on channel=9 note=0 velocity=95 time=0
EXTRACT: note_on channel=9 note=44 velocity=95 time=0
EXTRACT: note_on channel=0 note=64 velocity=95 time=0.14150925
EXTRACT: note_on channel=0 note=59 velocity=111 time=0
EXTRACT: note_on channel=0 note=56 velocity=111 time=0
EXTRACT: note_on channel=0 note=52 velocity=111 time=0
EXTRACT: note_off channel=4 note=66 velocity=95 time=0
EXTRACT: note_on channel=4 note=69 velocity=95 time=0
EXTRACT: note_on channel=6 note=88 velocity=95 time=0
EXTRACT: note_on channel=6 note=83 velocity=95 time=0
EXTRACT: note_on channel=14 note=40 velocity=111 time=0
EXTRACT: note_off channel=9 note=0 velocity=95 time=0
EXTRACT: note_off channel=9 note=44 velocity=95 time=0
EXTRACT: note_on channel=9 note=35 velocity=95 time=0
EXTRACT: note_off channel=0 note=64 velocity=95 time=0.14150925
EXTRACT: note_off channel=0 note=59 velocity=111 time=0
EXTRACT: note_off channel=0 note=56 velocity=111 time=0
EXTRACT: note_off channel=0 note=52 velocity=111 time=0
EXTRACT: note_on channel=0 note=64 velocity=111 time=0
EXTRACT: note_on channel=0 note=59 velocity=95 time=0
EXTRACT: note_on channel=0 note=56 velocity=111 time=0
EXTRACT: note_on channel=0 note=52 velocity=111 time=0
EXTRACT: note_on channel=0 note=47 velocity=111 time=0
EXTRACT: note_off channel=4 note=69 velocity=95 time=0
EXTRACT: note_off channel=6 note=88 velocity=95 time=0
EXTRACT: note_off channel=6 note=83 velocity=95 time=0
EXTRACT: note_off channel=14 note=40 velocity=111 time=0
EXTRACT: note_on channel=14 note=40 velocity=111 time=0
EXTRACT: note_off channel=9 note=35 velocity=95 time=0
EXTRACT: note_on channel=9 note=0 velocity=95 time=0
EXTRACT: note_on channel=9 note=35 velocity=95 time=0
EXTRACT: note_on channel=9 note=44 velocity=95 time=0
EXTRACT: note_on channel=4 note=69 velocity=95 time=0.14150925
EXTRACT: note_on channel=6 note=76 velocity=95 time=0
EXTRACT: note_off channel=9 note=0 velocity=95 time=0
EXTRACT: note_off channel=9 note=35 velocity=95 time=0
EXTRACT: note_off channel=9 note=44 velocity=95 time=0
EXTRACT: note_off channel=0 note=64 velocity=111 time=0.14150925
EXTRACT: note_off channel=0 note=59 velocity=95 time=0
EXTRACT: note_off channel=0 note=56 velocity=111 time=0
EXTRACT: note_off channel=0 note=52 velocity=111 time=0
EXTRACT: note_off channel=0 note=47 velocity=111 time=0
EXTRACT: note_on channel=0 note=64 velocity=111 time=0
EXTRACT: note_on channel=0 note=59 velocity=111 time=0
EXTRACT: note_on channel=0 note=56 velocity=95 time=0
EXTRACT: note_on channel=0 note=52 velocity=111 time=0
EXTRACT: note_on channel=0 note=47 velocity=111 time=0
EXTRACT: note_off channel=4 note=69 velocity=95 time=0
EXTRACT: note_off channel=6 note=76 velocity=95 time=0
EXTRACT: note_on channel=6 note=88 velocity=95 time=0
EXTRACT: note_on channel=6 note=83 velocity=95 time=0
EXTRACT: note_on channel=9 note=40 velocity=95 time=0
EXTRACT: note_on channel=9 note=46 velocity=95 time=0
EXTRACT: note_on channel=4 note=71 velocity=95 time=0.14150925
EXTRACT: note_off channel=0 note=64 velocity=111 time=0.14150925
EXTRACT: note_off channel=0 note=59 velocity=111 time=0
EXTRACT: note_off channel=0 note=56 velocity=95 time=0
EXTRACT: note_off channel=0 note=52 velocity=111 time=0
EXTRACT: note_off channel=0 note=47 velocity=111 time=0
EXTRACT: note_on channel=0 note=55 velocity=95 time=0
EXTRACT: note_on channel=0 note=50 velocity=111 time=0
EXTRACT: note_on channel=0 note=45 velocity=111 time=0
EXTRACT: note_off channel=6 note=88 velocity=95 time=0
EXTRACT: note_off channel=6 note=83 velocity=95 time=0
EXTRACT: note_on channel=6 note=76 velocity=95 time=0
EXTRACT: note_off channel=9 note=40 velocity=95 time=0
EXTRACT: note_off channel=9 note=46 velocity=95 time=0
EXTRACT: note_on channel=9 note=35 velocity=95 time=0
EXTRACT: note_on channel=9 note=44 velocity=95 time=0
EXTRACT: note_off channel=0 note=55 velocity=95 time=0.14150925
EXTRACT: note_off channel=0 note=50 velocity=111 time=0
EXTRACT: note_off channel=0 note=45 velocity=111 time=0
EXTRACT: note_on channel=0 note=55 velocity=111 time=0
EXTRACT: note_on channel=0 note=50 velocity=111 time=0
EXTRACT: note_on channel=0 note=45 velocity=111 time=0
EXTRACT: note_off channel=4 note=71 velocity=95 time=0
EXTRACT: note_on channel=4 note=69 velocity=95 time=0
EXTRACT: note_off channel=6 note=76 velocity=95 time=0
EXTRACT: note_off channel=9 note=35 velocity=95 time=0
EXTRACT: note_off channel=9 note=44 velocity=95 time=0
EXTRACT: note_on channel=9 note=0 velocity=95 time=0
EXTRACT: note_on channel=9 note=35 velocity=95 time=0
EXTRACT: note_on channel=9 note=44 velocity=95 time=0
EXTRACT: note_off channel=0 note=55 velocity=111 time=0.14150925
EXTRACT: note_off channel=0 note=50 velocity=111 time=0
EXTRACT: note_off channel=0 note=45 velocity=111 time=0
EXTRACT: note_on channel=0 note=61 velocity=111 time=0
EXTRACT: note_on channel=0 note=57 velocity=95 time=0
EXTRACT: note_on channel=0 note=52 velocity=111 time=0
EXTRACT: note_on channel=0 note=45 velocity=111 time=0
EXTRACT: note_on channel=6 note=85 velocity=95 time=0
EXTRACT: note_on channel=6 note=81 velocity=95 time=0
EXTRACT: note_off channel=14 note=40 velocity=111 time=0
EXTRACT: note_on channel=14 note=33 velocity=111 time=0
EXTRACT: note_off channel=9 note=0 velocity=95 time=0
EXTRACT: note_off channel=9 note=35 velocity=95 time=0
EXTRACT: note_off channel=9 note=44 velocity=95 time=0
EXTRACT: note_on channel=9 note=0 velocity=95 time=0
EXTRACT: note_on channel=9 note=44 velocity=95 time=0
EXTRACT: note_off channel=14 note=33 velocity=111 time=0.2830185
EXTRACT: note_on channel=14 note=33 velocity=111 time=0
EXTRACT: note_off channel=9 note=0 velocity=95 time=0
EXTRACT: note_off channel=9 note=44 velocity=95 time=0
EXTRACT: note_on channel=9 note=0 velocity=95 time=0
EXTRACT: note_on channel=9 note=35 velocity=95 time=0
EXTRACT: note_on channel=9 note=44 velocity=95 time=0
EXTRACT: note_off channel=14 note=33 velocity=111 time=0.14150925
EXTRACT: note_on channel=14 note=33 velocity=111 time=0
EXTRACT: note_off channel=9 note=0 velocity=95 time=0
EXTRACT: note_off channel=9 note=35 velocity=95 time=0
EXTRACT: note_off channel=9 note=44 velocity=95 time=0
EXTRACT: note_off channel=0 note=61 velocity=111 time=0.14150925
EXTRACT: note_off channel=0 note=57 velocity=95 time=0
EXTRACT: note_off channel=0 note=52 velocity=111 time=0
EXTRACT: note_off channel=0 note=45 velocity=111 time=0
EXTRACT: note_on channel=0 note=61 velocity=111 time=0
EXTRACT: note_on channel=0 note=57 velocity=111 time=0
EXTRACT: note_on channel=0 note=52 velocity=111 time=0
EXTRACT: note_on channel=0 note=45 velocity=111 time=0
EXTRACT: note_off channel=14 note=33 velocity=111 time=0
EXTRACT: note_on channel=14 note=33 velocity=111 time=0
EXTRACT: note_on channel=9 note=40 velocity=95 time=0
EXTRACT: note_on channel=9 note=44 velocity=95 time=0
EXTRACT: note_off channel=9 note=40 velocity=95 time=0.14150925
EXTRACT: note_off channel=9 note=44 velocity=95 time=0
EXTRACT: note_off channel=0 note=61 velocity=111 time=0.14150925
EXTRACT: note_off channel=0 note=57 velocity=111 time=0
EXTRACT: note_off channel=0 note=52 velocity=111 time=0
EXTRACT: note_off channel=0 note=45 velocity=111 time=0
EXTRACT: note_on channel=0 note=59 velocity=95 time=0
EXTRACT: note_on channel=0 note=55 velocity=111 time=0
EXTRACT: note_on channel=0 note=50 velocity=111 time=0
EXTRACT: note_on channel=0 note=45 velocity=111 time=0
EXTRACT: note_off channel=4 note=69 velocity=95 time=0
EXTRACT: note_on channel=9 note=35 velocity=95 time=0
EXTRACT: note_on channel=9 note=44 velocity=95 time=0
EXTRACT: note_off channel=0 note=59 velocity=95 time=0.031249959375
EXTRACT: note_off channel=0 note=55 velocity=111 time=0
EXTRACT: note_off channel=0 note=50 velocity=111 time=0
EXTRACT: note_off channel=0 note=45 velocity=111 time=0
EXTRACT: note_on channel=0 note=64 velocity=111 time=0.110259290625
EXTRACT: note_on channel=0 note=59 velocity=111 time=0
EXTRACT: note_on channel=0 note=56 velocity=95 time=0
EXTRACT: note_on channel=0 note=52 velocity=111 time=0
EXTRACT: note_off channel=6 note=85 velocity=95 time=0
EXTRACT: note_off channel=6 note=81 velocity=95 time=0
EXTRACT: note_off channel=14 note=33 velocity=111 time=0
EXTRACT: note_on channel=14 note=40 velocity=111 time=0
EXTRACT: note_off channel=9 note=35 velocity=95 time=0
EXTRACT: note_off channel=9 note=44 velocity=95 time=0
EXTRACT: note_on channel=9 note=0 velocity=95 time=0
EXTRACT: note_on channel=9 note=35 velocity=95 time=0
EXTRACT: note_on channel=9 note=44 velocity=95 time=0
EXTRACT: note_off channel=0 note=64 velocity=111 time=0.14150925
EXTRACT: note_off channel=0 note=59 velocity=111 time=0
EXTRACT: note_off channel=0 note=56 velocity=95 time=0
EXTRACT: note_off channel=0 note=52 velocity=111 time=0
EXTRACT: note_on channel=4 note=73 velocity=95 time=0
EXTRACT: note_on channel=6 note=83 velocity=95 time=0
EXTRACT: note_on channel=6 note=80 velocity=95 time=0
EXTRACT: note_off channel=14 note=40 velocity=111 time=0
EXTRACT: note_off channel=9 note=0 velocity=95 time=0
EXTRACT: note_off channel=9 note=35 velocity=95 time=0
EXTRACT: note_off channel=9 note=44 velocity=95 time=0
EXTRACT: note_on channel=9 note=0 velocity=95 time=0
EXTRACT: note_on channel=9 note=44 velocity=95 time=0
EXTRACT: note_on channel=0 note=64 velocity=95 time=0.14150925
EXTRACT: note_on channel=0 note=59 velocity=111 time=0
EXTRACT: note_on channel=0 note=56 velocity=111 time=0
EXTRACT: note_on channel=0 note=52 velocity=111 time=0
EXTRACT: note_off channel=4 note=73 velocity=95 time=0
EXTRACT: note_on channel=4 note=71 velocity=95 time=0
EXTRACT: note_on channel=14 note=40 velocity=111 time=0
EXTRACT: note_off channel=0 note=64 velocity=95 time=0.14150925
EXTRACT: note_off channel=0 note=59 velocity=111 time=0
EXTRACT: note_off channel=0 note=56 velocity=111 time=0
EXTRACT: note_off channel=0 note=52 velocity=111 time=0
EXTRACT: note_on channel=0 note=64 velocity=111 time=0
EXTRACT: note_on channel=0 note=59 velocity=95 time=0
EXTRACT: note_on channel=0 note=56 velocity=111 time=0
EXTRACT: note_on channel=0 note=52 velocity=111 time=0
EXTRACT: note_on channel=0 note=47 velocity=111 time=0
EXTRACT: note_off channel=4 note=71 velocity=95 time=0
EXTRACT: note_off channel=14 note=40 velocity=111 time=0
EXTRACT: note_on channel=14 note=40 velocity=111 time=0
EXTRACT: note_off channel=9 note=0 velocity=95 time=0
EXTRACT: note_off channel=9 note=44 velocity=95 time=0
EXTRACT: note_on channel=9 note=0 velocity=95 time=0
EXTRACT: note_on channel=9 note=35 velocity=95 time=0
EXTRACT: note_on channel=9 note=44 velocity=95 time=0
EXTRACT: note_off channel=9 note=0 velocity=95 time=0.14150925
EXTRACT: note_off channel=9 note=35 velocity=95 time=0
EXTRACT: note_off channel=9 note=44 velocity=95 time=0
EXTRACT: note_off channel=0 note=64 velocity=111 time=0.14150925
EXTRACT: note_off channel=0 note=59 velocity=95 time=0
EXTRACT: note_off channel=0 note=56 velocity=111 time=0
EXTRACT: note_off channel=0 note=52 velocity=111 time=0
EXTRACT: note_off channel=0 note=47 velocity=111 time=0
EXTRACT: note_on channel=0 note=64 velocity=111 time=0
EXTRACT: note_on channel=0 note=59 velocity=111 time=0
EXTRACT: note_on channel=0 note=56 velocity=95 time=0
EXTRACT: note_on channel=0 note=52 velocity=111 time=0
EXTRACT: note_on channel=0 note=47 velocity=111 time=0
EXTRACT: note_on channel=9 note=40 velocity=95 time=0
EXTRACT: note_on channel=9 note=44 velocity=95 time=0
EXTRACT: note_off channel=9 note=40 velocity=95 time=0.14150925
EXTRACT: note_off channel=9 note=44 velocity=95 time=0
EXTRACT: note_off channel=0 note=64 velocity=111 time=0.14150925
EXTRACT: note_off channel=0 note=59 velocity=111 time=0
EXTRACT: note_off channel=0 note=56 velocity=95 time=0
EXTRACT: note_off channel=0 note=52 velocity=111 time=0
EXTRACT: note_off channel=0 note=47 velocity=111 time=0
EXTRACT: note_on channel=0 note=55 velocity=95 time=0
EXTRACT: note_on channel=0 note=50 velocity=111 time=0
EXTRACT: note_on channel=0 note=45 velocity=111 time=0
EXTRACT: note_on channel=4 note=69 velocity=95 time=0
EXTRACT: note_off channel=6 note=83 velocity=95 time=0
EXTRACT: note_off channel=6 note=80 velocity=95 time=0
EXTRACT: note_on channel=9 note=35 velocity=95 time=0
EXTRACT: note_on channel=9 note=44 velocity=95 time=0
EXTRACT: note_off channel=0 note=55 velocity=95 time=0.14150925
EXTRACT: note_off channel=0 note=50 velocity=111 time=0
EXTRACT: note_off channel=0 note=45 velocity=111 time=0
EXTRACT: note_on channel=0 note=55 velocity=111 time=0
EXTRACT: note_on channel=0 note=50 velocity=111 time=0
EXTRACT: note_on channel=0 note=45 velocity=111 time=0
EXTRACT: note_off channel=4 note=69 velocity=95 time=0
EXTRACT: note_on channel=4 note=66 velocity=95 time=0
EXTRACT: note_off channel=9 note=35 velocity=95 time=0
EXTRACT: note_off channel=9 note=44 velocity=95 time=0
EXTRACT: note_on channel=9 note=0 velocity=95 time=0
EXTRACT: note_on channel=9 note=35 velocity=95 time=0
EXTRACT: note_on channel=9 note=44 velocity=95 time=0
EXTRACT: note_off channel=0 note=55 velocity=111 time=0.14150925
EXTRACT: note_off channel=0 note=50 velocity=111 time=0
EXTRACT: note_off channel=0 note=45 velocity=111 time=0
EXTRACT: note_on channel=0 note=66 velocity=111 time=0
EXTRACT: note_on channel=0 note=62 velocity=111 time=0
EXTRACT: note_on channel=0 note=57 velocity=111 time=0
EXTRACT: note_on channel=0 note=50 velocity=111 time=0
EXTRACT: note_off channel=4 note=66 velocity=95 time=0
EXTRACT: note_on channel=4 note=69 velocity=95 time=0
EXTRACT: note_on channel=6 note=86 velocity=95 time=0
EXTRACT: note_on channel=6 note=81 velocity=95 time=0
EXTRACT: note_off channel=14 note=40 velocity=111 time=0
EXTRACT: note_on channel=14 note=38 velocity=111 time=0
EXTRACT: note_off channel=9 note=0 velocity=95 time=0
EXTRACT: note_off channel=9 note=35 velocity=95 time=0
EXTRACT: note_off channel=9 note=44 velocity=95 time=0
EXTRACT: note_on channel=9 note=0 velocity=95 time=0
EXTRACT: note_on channel=9 note=44 velocity=95 time=0
EXTRACT: note_off channel=4 note=69 velocity=95 time=0.14150925
EXTRACT: note_off channel=9 note=0 velocity=95 time=0
EXTRACT: note_off channel=9 note=44 velocity=95 time=0
EXTRACT: note_on channel=9 note=35 velocity=95 time=0
EXTRACT: note_on channel=4 note=66 velocity=95 time=0.14150925
EXTRACT: note_off channel=14 note=38 velocity=111 time=0
EXTRACT: note_on channel=14 note=38 velocity=111 time=0
EXTRACT: note_off channel=9 note=35 velocity=95 time=0
EXTRACT: note_on channel=9 note=0 velocity=95 time=0
EXTRACT: note_on channel=9 note=35 velocity=95 time=0
EXTRACT: note_on channel=9 note=44 velocity=95 time=0
EXTRACT: note_off channel=4 note=66 velocity=95 time=0.14150925
EXTRACT: note_on channel=4 note=64 velocity=95 time=0
EXTRACT: note_off channel=14 note=38 velocity=111 time=0
EXTRACT: note_on channel=14 note=38 velocity=111 time=0
EXTRACT: note_off channel=9 note=0 velocity=95 time=0
EXTRACT: note_off channel=9 note=35 velocity=95 time=0
EXTRACT: note_off channel=9 note=44 velocity=95 time=0
EXTRACT: note_off channel=0 note=66 velocity=111 time=0.14150925
EXTRACT: note_off channel=0 note=62 velocity=111 time=0
EXTRACT: note_off channel=0 note=57 velocity=111 time=0
EXTRACT: note_off channel=0 note=50 velocity=111 time=0
EXTRACT: note_on channel=0 note=66 velocity=95 time=0
EXTRACT: note_on channel=0 note=62 velocity=111 time=0
EXTRACT: note_on channel=0 note=57 velocity=111 time=0
EXTRACT: note_on channel=0 note=50 velocity=111 time=0
EXTRACT: note_off channel=14 note=38 velocity=111 time=0
EXTRACT: note_on channel=14 note=38 velocity=111 time=0
EXTRACT: note_on channel=9 note=40 velocity=95 time=0
EXTRACT: note_on channel=9 note=44 velocity=95 time=0
EXTRACT: note_off channel=9 note=40 velocity=95 time=0.14150925
EXTRACT: note_off channel=9 note=44 velocity=95 time=0
EXTRACT: note_off channel=0 note=66 velocity=95 time=0.14150925
EXTRACT: note_off channel=0 note=62 velocity=111 time=0
EXTRACT: note_off channel=0 note=57 velocity=111 time=0
EXTRACT: note_off channel=0 note=50 velocity=111 time=0
EXTRACT: note_on channel=0 note=64 velocity=111 time=0
EXTRACT: note_on channel=0 note=59 velocity=95 time=0
EXTRACT: note_on channel=0 note=55 velocity=111 time=0
EXTRACT: note_on channel=0 note=50 velocity=111 time=0
EXTRACT: note_off channel=6 note=86 velocity=95 time=0
EXTRACT: note_off channel=6 note=81 velocity=95 time=0
EXTRACT: note_on channel=9 note=35 velocity=95 time=0
EXTRACT: note_on channel=9 note=44 velocity=95 time=0
EXTRACT: note_off channel=0 note=64 velocity=111 time=0.031249959375
EXTRACT: note_off channel=0 note=59 velocity=95 time=0
EXTRACT: note_off channel=0 note=55 velocity=111 time=0
EXTRACT: note_off channel=0 note=50 velocity=111 time=0
EXTRACT: note_on channel=0 note=64 velocity=111 time=0.110259290625
EXTRACT: note_on channel=0 note=59 velocity=111 time=0
EXTRACT: note_on channel=0 note=56 velocity=95 time=0
EXTRACT: note_on channel=0 note=52 velocity=111 time=0
EXTRACT: note_off channel=4 note=64 velocity=95 time=0
EXTRACT: note_off channel=14 note=38 velocity=111 time=0
EXTRACT: note_on channel=14 note=40 velocity=111 time=0
EXTRACT: note_off channel=9 note=35 velocity=95 time=0
EXTRACT: note_off channel=9 note=44 velocity=95 time=0
EXTRACT: note_on channel=9 note=0 velocity=95 time=0
EXTRACT: note_on channel=9 note=35 velocity=95 time=0
EXTRACT: note_on channel=9 note=44 velocity=95 time=0
EXTRACT: note_off channel=0 note=64 velocity=111 time=0.14150925
EXTRACT: note_off channel=0 note=59 velocity=111 time=0
EXTRACT: note_off channel=0 note=56 velocity=95 time=0
EXTRACT: note_off channel=0 note=52 velocity=111 time=0
EXTRACT: note_on channel=4 note=73 velocity=95 time=0
EXTRACT: note_off channel=14 note=40 velocity=111 time=0
EXTRACT: note_off channel=9 note=0 velocity=95 time=0
EXTRACT: note_off channel=9 note=35 velocity=95 time=0
EXTRACT: note_off channel=9 note=44 velocity=95 time=0
EXTRACT: note_on channel=9 note=0 velocity=95 time=0
EXTRACT: note_on channel=9 note=44 velocity=95 time=0
EXTRACT: note_on channel=0 note=64 velocity=95 time=0.14150925
EXTRACT: note_on channel=0 note=59 velocity=111 time=0
EXTRACT: note_on channel=0 note=56 velocity=111 time=0
EXTRACT: note_on channel=0 note=52 velocity=111 time=0
EXTRACT: note_on channel=6 note=83 velocity=95 time=0
EXTRACT: note_on channel=6 note=80 velocity=95 time=0
EXTRACT: note_on channel=14 note=40 velocity=111 time=0
EXTRACT: note_off channel=9 note=0 velocity=95 time=0
EXTRACT: note_off channel=9 note=44 velocity=95 time=0
EXTRACT: note_on channel=9 note=0 velocity=95 time=0
EXTRACT: note_on channel=9 note=35 velocity=95 time=0
EXTRACT: note_on channel=9 note=44 velocity=95 time=0
EXTRACT: note_off channel=0 note=64 velocity=95 time=0.14150925
EXTRACT: note_off channel=0 note=59 velocity=111 time=0
EXTRACT: note_off channel=0 note=56 velocity=111 time=0
EXTRACT: note_off channel=0 note=52 velocity=111 time=0
EXTRACT: note_on channel=0 note=64 velocity=111 time=0
EXTRACT: note_on channel=0 note=59 velocity=95 time=0
EXTRACT: note_on channel=0 note=56 velocity=111 time=0
EXTRACT: note_on channel=0 note=52 velocity=111 time=0
EXTRACT: note_on channel=0 note=47 velocity=111 time=0
EXTRACT: note_off channel=6 note=83 velocity=95 time=0
EXTRACT: note_off channel=6 note=80 velocity=95 time=0
EXTRACT: note_off channel=14 note=40 velocity=111 time=0
EXTRACT: note_on channel=14 note=40 velocity=111 time=0
EXTRACT: note_off channel=9 note=0 velocity=95 time=0
EXTRACT: note_off channel=9 note=35 velocity=95 time=0
EXTRACT: note_off channel=9 note=44 velocity=95 time=0
EXTRACT: note_on channel=9 note=0 velocity=95 time=0
EXTRACT: note_on channel=9 note=40 velocity=95 time=0
EXTRACT: note_on channel=9 note=46 velocity=95 time=0
EXTRACT: note_off channel=4 note=73 velocity=95 time=0.14150925
EXTRACT: note_on channel=6 note=76 velocity=95 time=0
EXTRACT: note_off channel=9 note=0 velocity=95 time=0
EXTRACT: note_off channel=9 note=40 velocity=95 time=0
EXTRACT: note_off channel=9 note=46 velocity=95 time=0
EXTRACT: note_on channel=9 note=0 velocity=95 time=0
EXTRACT: note_on channel=9 note=40 velocity=95 time=0
EXTRACT: note_off channel=0 note=64 velocity=111 time=0.14150925
EXTRACT: note_off channel=0 note=59 velocity=95 time=0
EXTRACT: note_off channel=0 note=56 velocity=111 time=0
EXTRACT: note_off channel=0 note=52 velocity=111 time=0
EXTRACT: note_off channel=0 note=47 velocity=111 time=0
EXTRACT: note_on channel=0 note=64 velocity=111 time=0
EXTRACT: note_on channel=0 note=59 velocity=111 time=0
EXTRACT: note_on channel=0 note=56 velocity=95 time=0
EXTRACT: note_on channel=0 note=52 velocity=111 time=0
EXTRACT: note_on channel=0 note=47 velocity=111 time=0
EXTRACT: note_on channel=4 note=71 velocity=95 time=0
EXTRACT: note_off channel=6 note=76 velocity=95 time=0
EXTRACT: note_on channel=6 note=83 velocity=95 time=0
EXTRACT: note_on channel=6 note=80 velocity=95 time=0
EXTRACT: note_off channel=9 note=0 velocity=95 time=0
EXTRACT: note_off channel=9 note=40 velocity=95 time=0
EXTRACT: note_on channel=9 note=0 velocity=95 time=0
EXTRACT: note_on channel=9 note=40 velocity=95 time=0
EXTRACT: note_on channel=9 note=44 velocity=95 time=0
EXTRACT: note_off channel=4 note=71 velocity=95 time=0.14150925
EXTRACT: note_on channel=4 note=69 velocity=95 time=0
EXTRACT: note_off channel=9 note=0 velocity=95 time=0
EXTRACT: note_off channel=9 note=40 velocity=95 time=0
EXTRACT: note_off channel=9 note=44 velocity=95 time=0
EXTRACT: note_on channel=9 note=0 velocity=95 time=0
EXTRACT: note_on channel=9 note=40 velocity=95 time=0
EXTRACT: note_on channel=9 note=44 velocity=95 time=0
EXTRACT: note_off channel=0 note=64 velocity=111 time=0.14150925
EXTRACT: note_off channel=0 note=59 velocity=111 time=0
EXTRACT: note_off channel=0 note=56 velocity=95 time=0
EXTRACT: note_off channel=0 note=52 velocity=111 time=0
EXTRACT: note_off channel=0 note=47 velocity=111 time=0
EXTRACT: note_on channel=0 note=55 velocity=95 time=0
EXTRACT: note_on channel=0 note=50 velocity=111 time=0
EXTRACT: note_on channel=0 note=45 velocity=111 time=0
EXTRACT: note_off channel=6 note=83 velocity=95 time=0
EXTRACT: note_off channel=6 note=80 velocity=95 time=0
EXTRACT: note_on channel=6 note=76 velocity=95 time=0
EXTRACT: note_off channel=9 note=0 velocity=95 time=0
EXTRACT: note_off channel=9 note=40 velocity=95 time=0
EXTRACT: note_off channel=9 note=44 velocity=95 time=0
EXTRACT: note_on channel=9 note=0 velocity=95 time=0
EXTRACT: note_on channel=9 note=40 velocity=95 time=0
EXTRACT: note_on channel=9 note=43 velocity=95 time=0
EXTRACT: note_on channel=9 note=45 velocity=95 time=0
EXTRACT: note_on channel=9 note=46 velocity=95 time=0
EXTRACT: note_off channel=0 note=55 velocity=95 time=0.14150925
EXTRACT: note_off channel=0 note=50 velocity=111 time=0
EXTRACT: note_off channel=0 note=45 velocity=111 time=0
EXTRACT: note_on channel=0 note=55 velocity=111 time=0
EXTRACT: note_on channel=0 note=50 velocity=111 time=0
EXTRACT: note_on channel=0 note=45 velocity=111 time=0
EXTRACT: note_off channel=4 note=69 velocity=95 time=0
EXTRACT: note_off channel=6 note=76 velocity=95 time=0
EXTRACT: note_off channel=9 note=0 velocity=95 time=0
EXTRACT: note_off channel=9 note=40 velocity=95 time=0
EXTRACT: note_off channel=9 note=43 velocity=95 time=0
EXTRACT: note_off channel=9 note=45 velocity=95 time=0
EXTRACT: note_off channel=9 note=46 velocity=95 time=0
EXTRACT: note_on channel=9 note=0 velocity=95 time=0
EXTRACT: note_on channel=9 note=40 velocity=95 time=0
EXTRACT: note_on channel=9 note=43 velocity=95 time=0
EXTRACT: note_off channel=0 note=55 velocity=111 time=0.14150925
EXTRACT: note_off channel=0 note=50 velocity=111 time=0
EXTRACT: note_off channel=0 note=45 velocity=111 time=0
EXTRACT: note_on channel=0 note=64 velocity=111 time=0
EXTRACT: note_on channel=0 note=61 velocity=111 time=0
EXTRACT: note_on channel=0 note=57 velocity=111 time=0
EXTRACT: note_on channel=0 note=52 velocity=111 time=0
EXTRACT: note_on channel=0 note=45 velocity=111 time=0
EXTRACT: note_on channel=2 note=61 velocity=95 time=0
EXTRACT: note_on channel=4 note=69 velocity=95 time=0
EXTRACT: note_on channel=6 note=85 velocity=95 time=0
EXTRACT: note_on channel=6 note=81 velocity=95 time=0
EXTRACT: note_on channel=6 note=76 velocity=95 time=0
EXTRACT: note_off channel=14 note=40 velocity=111 time=0
EXTRACT: note_on channel=14 note=33 velocity=111 time=0
EXTRACT: note_off channel=9 note=0 velocity=95 time=0
EXTRACT: note_off channel=9 note=40 velocity=95 time=0
EXTRACT: note_off channel=9 note=43 velocity=95 time=0
EXTRACT: note_on channel=9 note=0 velocity=95 time=0
EXTRACT: note_on channel=9 note=35 velocity=95 time=0
EXTRACT: note_on channel=9 note=49 velocity=95 time=0
EXTRACT: note_on channel=9 note=51 velocity=95 time=0
EXTRACT: note_on channel=9 note=56 velocity=95 time=0
EXTRACT: note_on channel=9 note=57 velocity=95 time=0
EXTRACT: note_off channel=9 note=0 velocity=95 time=0.14150925
EXTRACT: note_off channel=9 note=35 velocity=95 time=0
EXTRACT: note_off channel=9 note=49 velocity=95 time=0
EXTRACT: note_off channel=9 note=51 velocity=95 time=0
EXTRACT: note_off channel=9 note=56 velocity=95 time=0
EXTRACT: note_off channel=9 note=57 velocity=95 time=0
EXTRACT: note_on channel=9 note=51 velocity=95 time=0.14150925
EXTRACT: note_off channel=2 note=61 velocity=95 time=0.14150925
EXTRACT: note_off channel=4 note=69 velocity=95 time=0
EXTRACT: note_off channel=9 note=51 velocity=95 time=0
EXTRACT: note_off channel=0 note=64 velocity=111 time=0.14150925
EXTRACT: note_off channel=0 note=61 velocity=111 time=0
EXTRACT: note_off channel=0 note=57 velocity=111 time=0
EXTRACT: note_off channel=0 note=52 velocity=111 time=0
EXTRACT: note_off channel=0 note=45 velocity=111 time=0
EXTRACT: note_on channel=0 note=64 velocity=111 time=0
EXTRACT: note_on channel=0 note=61 velocity=95 time=0
EXTRACT: note_on channel=0 note=57 velocity=95 time=0
EXTRACT: note_on channel=0 note=52 velocity=95 time=0
EXTRACT: note_on channel=0 note=45 velocity=111 time=0
EXTRACT: note_on channel=2 note=61 velocity=95 time=0
EXTRACT: note_on channel=4 note=69 velocity=95 time=0
EXTRACT: note_off channel=14 note=33 velocity=111 time=0
EXTRACT: note_on channel=14 note=33 velocity=111 time=0
EXTRACT: note_on channel=9 note=40 velocity=95 time=0
EXTRACT: note_on channel=9 note=56 velocity=95 time=0
EXTRACT: note_on channel=9 note=59 velocity=95 time=0
EXTRACT: note_off channel=2 note=61 velocity=95 time=0.14150925
EXTRACT: note_off channel=9 note=40 velocity=95 time=0
EXTRACT: note_off channel=9 note=56 velocity=95 time=0
EXTRACT: note_off channel=9 note=59 velocity=95 time=0
EXTRACT: note_off channel=0 note=64 velocity=111 time=0.14150925
EXTRACT: note_off channel=0 note=61 velocity=95 time=0
EXTRACT: note_off channel=0 note=57 velocity=95 time=0
EXTRACT: note_off channel=0 note=52 velocity=95 time=0
EXTRACT: note_off channel=0 note=45 velocity=111 time=0
EXTRACT: note_off channel=4 note=69 velocity=95 time=0
EXTRACT: note_off channel=14 note=33 velocity=111 time=0
EXTRACT: note_on channel=9 note=35 velocity=95 time=0
EXTRACT: note_on channel=9 note=53 velocity=95 time=0
EXTRACT: note_off channel=9 note=35 velocity=95 time=0.14150925
EXTRACT: note_off channel=9 note=53 velocity=95 time=0
EXTRACT: note_on channel=9 note=0 velocity=95 time=0
EXTRACT: note_on channel=9 note=40 velocity=95 time=0
EXTRACT: note_on channel=9 note=59 velocity=95 time=0
EXTRACT: note_off channel=9 note=0 velocity=95 time=0.14150925
EXTRACT: note_off channel=9 note=40 velocity=95 time=0
EXTRACT: note_off channel=9 note=59 velocity=95 time=0
EXTRACT: note_on channel=9 note=0 velocity=95 time=0
EXTRACT: note_on channel=9 note=35 velocity=95 time=0
EXTRACT: note_on channel=9 note=51 velocity=95 time=0
EXTRACT: note_on channel=9 note=56 velocity=95 time=0
EXTRACT: note_off channel=6 note=85 velocity=95 time=0.14150925
EXTRACT: note_off channel=6 note=81 velocity=95 time=0
EXTRACT: note_off channel=6 note=76 velocity=95 time=0
EXTRACT: note_on channel=6 note=76 velocity=95 time=0
EXTRACT: note_on channel=14 note=33 velocity=111 time=0
EXTRACT: note_off channel=9 note=0 velocity=95 time=0
EXTRACT: note_off channel=9 note=35 velocity=95 time=0
EXTRACT: note_off channel=9 note=51 velocity=95 time=0
EXTRACT: note_off channel=9 note=56 velocity=95 time=0
EXTRACT: note_on channel=9 note=0 velocity=95 time=0
EXTRACT: note_on channel=9 note=59 velocity=95 time=0
EXTRACT: note_on channel=0 note=64 velocity=111 time=0.14150925
EXTRACT: note_on channel=0 note=61 velocity=111 time=0
EXTRACT: note_on channel=0 note=57 velocity=111 time=0
EXTRACT: note_on channel=0 note=52 velocity=111 time=0
EXTRACT: note_on channel=0 note=45 velocity=111 time=0
EXTRACT: note_on channel=2 note=61 velocity=95 time=0
EXTRACT: note_on channel=4 note=69 velocity=95 time=0
EXTRACT: note_off channel=6 note=76 velocity=95 time=0
EXTRACT: note_on channel=6 note=85 velocity=95 time=0
EXTRACT: note_on channel=6 note=81 velocity=95 time=0
EXTRACT: note_on channel=6 note=76 velocity=95 time=0
EXTRACT: note_off channel=9 note=0 velocity=95 time=0
EXTRACT: note_off channel=9 note=59 velocity=95 time=0
EXTRACT: note_on channel=9 note=0 velocity=95 time=0
EXTRACT: note_on channel=9 note=35 velocity=95 time=0
EXTRACT: note_on channel=9 note=51 velocity=95 time=0
EXTRACT: note_off channel=0 note=64 velocity=111 time=0.14150925
EXTRACT: note_off channel=0 note=61 velocity=111 time=0
EXTRACT: note_off channel=0 note=57 velocity=111 time=0
EXTRACT: note_off channel=0 note=52 velocity=111 time=0
EXTRACT: note_off channel=0 note=45 velocity=111 time=0
EXTRACT: note_off channel=2 note=61 velocity=95 time=0
EXTRACT: note_off channel=4 note=69 velocity=95 time=0
EXTRACT: note_off channel=6 note=85 velocity=95 time=0
EXTRACT: note_off channel=6 note=81 velocity=95 time=0
EXTRACT: note_off channel=6 note=76 velocity=95 time=0
EXTRACT: note_off channel=9 note=0 velocity=95 time=0
EXTRACT: note_off channel=9 note=35 velocity=95 time=0
EXTRACT: note_off channel=9 note=51 velocity=95 time=0
EXTRACT: note_on channel=9 note=0 velocity=95 time=0
EXTRACT: note_on channel=9 note=51 velocity=95 time=0
EXTRACT: note_on channel=0 note=64 velocity=111 time=0.14150925
EXTRACT: note_on channel=0 note=59 velocity=95 time=0
EXTRACT: note_on channel=0 note=55 velocity=95 time=0
EXTRACT: note_on channel=0 note=50 velocity=95 time=0
EXTRACT: note_off channel=14 note=33 velocity=111 time=0
EXTRACT: note_off channel=9 note=0 velocity=95 time=0
EXTRACT: note_off channel=9 note=51 velocity=95 time=0
EXTRACT: note_on channel=9 note=0 velocity=95 time=0
EXTRACT: note_on channel=9 note=40 velocity=95 time=0
EXTRACT: note_on channel=9 note=56 velocity=95 time=0
EXTRACT: note_on channel=9 note=59 velocity=95 time=0
EXTRACT: note_off channel=0 note=64 velocity=111 time=0.031249959375
EXTRACT: note_off channel=0 note=59 velocity=95 time=0
EXTRACT: note_off channel=0 note=55 velocity=95 time=0
EXTRACT: note_off channel=0 note=50 velocity=95 time=0
EXTRACT: note_on channel=0 note=64 velocity=111 time=0.110259290625
EXTRACT: note_on channel=0 note=61 velocity=111 time=0
EXTRACT: note_on channel=0 note=57 velocity=111 time=0
EXTRACT: note_on channel=0 note=52 velocity=111 time=0
EXTRACT: note_on channel=2 note=61 velocity=95 time=0
EXTRACT: note_on channel=4 note=69 velocity=95 time=0
EXTRACT: note_on channel=6 note=76 velocity=95 time=0
EXTRACT: note_on channel=14 note=33 velocity=111 time=0
EXTRACT: note_off channel=9 note=0 velocity=95 time=0
EXTRACT: note_off channel=9 note=40 velocity=95 time=0
EXTRACT: note_off channel=9 note=56 velocity=95 time=0
EXTRACT: note_off channel=9 note=59 velocity=95 time=0
EXTRACT: note_off channel=0 note=64 velocity=111 time=0.14150925
EXTRACT: note_off channel=0 note=61 velocity=111 time=0
EXTRACT: note_off channel=0 note=57 velocity=111 time=0
EXTRACT: note_off channel=0 note=52 velocity=111 time=0
EXTRACT: note_off channel=2 note=61 velocity=95 time=0
EXTRACT: note_on channel=2 note=61 velocity=95 time=0
EXTRACT: note_off channel=4 note=69 velocity=95 time=0
EXTRACT: note_on channel=4 note=69 velocity=95 time=0
EXTRACT: note_off channel=6 note=76 velocity=95 time=0
EXTRACT: note_on channel=6 note=85 velocity=95 time=0
EXTRACT: note_on channel=6 note=81 velocity=95 time=0
EXTRACT: note_on channel=9 note=35 velocity=95 time=0
EXTRACT: note_on channel=9 note=51 velocity=95 time=0
EXTRACT: note_off channel=2 note=61 velocity=95 time=0.14150925
EXTRACT: note_off channel=4 note=69 velocity=95 time=0
EXTRACT: note_off channel=6 note=85 velocity=95 time=0
EXTRACT: note_off channel=6 note=81 velocity=95 time=0
EXTRACT: note_off channel=9 note=35 velocity=95 time=0
EXTRACT: note_off channel=9 note=51 velocity=95 time=0
EXTRACT: note_on channel=9 note=0 velocity=95 time=0
EXTRACT: note_on channel=9 note=51 velocity=95 time=0
EXTRACT: note_on channel=0 note=66 velocity=111 time=0.14150925
EXTRACT: note_on channel=0 note=62 velocity=111 time=0
EXTRACT: note_on channel=0 note=57 velocity=111 time=0
EXTRACT: note_on channel=0 note=50 velocity=111 time=0
EXTRACT: note_on channel=2 note=62 velocity=95 time=0
EXTRACT: note_on channel=4 note=66 velocity=95 time=0
EXTRACT: note_on channel=6 note=86 velocity=95 time=0
EXTRACT: note_on channel=6 note=81 velocity=95 time=0
EXTRACT: note_on channel=6 note=78 velocity=95 time=0
EXTRACT: note_off channel=14 note=33 velocity=111 time=0
EXTRACT: note_on channel=14 note=38 velocity=111 time=0
EXTRACT: note_off channel=9 note=0 velocity=95 time=0
EXTRACT: note_off channel=9 note=51 velocity=95 time=0
EXTRACT: note_on channel=9 note=0 velocity=95 time=0
EXTRACT: note_on channel=9 note=35 velocity=95 time=0
EXTRACT: note_on channel=9 note=51 velocity=95 time=0
EXTRACT: note_on channel=9 note=56 velocity=95 time=0
EXTRACT: note_off channel=9 note=0 velocity=95 time=0.14150925
EXTRACT: note_off channel=9 note=35 velocity=95 time=0
EXTRACT: note_off channel=9 note=51 velocity=95 time=0
EXTRACT: note_off channel=9 note=56 velocity=95 time=0
EXTRACT: note_off channel=14 note=38 velocity=111 time=0.14150925
EXTRACT: note_on channel=14 note=38 velocity=111 time=0
EXTRACT: note_on channel=9 note=51 velocity=95 time=0
EXTRACT: note_off channel=2 note=62 velocity=95 time=0.14150925
EXTRACT: note_off channel=4 note=66 velocity=95 time=0
EXTRACT: note_off channel=14 note=38 velocity=111 time=0
EXTRACT: note_on channel=14 note=38 velocity=111 time=0
EXTRACT: note_off channel=9 note=51 velocity=95 time=0
EXTRACT: note_off channel=0 note=66 velocity=111 time=0.14150925
EXTRACT: note_off channel=0 note=62 velocity=111 time=0
EXTRACT: note_off channel=0 note=57 velocity=111 time=0
EXTRACT: note_off channel=0 note=50 velocity=111 time=0
EXTRACT: note_on channel=0 note=66 velocity=111 time=0
EXTRACT: note_on channel=0 note=62 velocity=95 time=0
EXTRACT: note_on channel=0 note=57 velocity=95 time=0
EXTRACT: note_on channel=0 note=50 velocity=111 time=0
EXTRACT: note_on channel=2 note=62 velocity=95 time=0
EXTRACT: note_on channel=4 note=66 velocity=95 time=0
EXTRACT: note_off channel=14 note=38 velocity=111 time=0
EXTRACT: note_on channel=14 note=38 velocity=111 time=0
EXTRACT: note_on channel=9 note=40 velocity=95 time=0
EXTRACT: note_on channel=9 note=56 velocity=95 time=0
EXTRACT: note_on channel=9 note=59 velocity=95 time=0
EXTRACT: note_off channel=2 note=62 velocity=95 time=0.14150925
EXTRACT: note_off channel=9 note=40 velocity=95 time=0
EXTRACT: note_off channel=9 note=56 velocity=95 time=0
EXTRACT: note_off channel=9 note=59 velocity=95 time=0
EXTRACT: note_off channel=0 note=66 velocity=111 time=0.14150925
EXTRACT: note_off channel=0 note=62 velocity=95 time=0
EXTRACT: note_off channel=0 note=57 velocity=95 time=0
EXTRACT: note_off channel=0 note=50 velocity=111 time=0
EXTRACT: note_off channel=4 note=66 velocity=95 time=0
EXTRACT: note_off channel=14 note=38 velocity=111 time=0
EXTRACT: note_on channel=14 note=38 velocity=111 time=0
EXTRACT: note_on channel=9 note=53 velocity=95 time=0
EXTRACT: note_off channel=14 note=38 velocity=111 time=0.14150925
EXTRACT: note_on channel=14 note=50 velocity=111 time=0
EXTRACT: note_off channel=9 note=53 velocity=95 time=0
EXTRACT: note_on channel=9 note=0 velocity=95 time=0
EXTRACT: note_on channel=9 note=30 velocity=95 time=0
EXTRACT: note_on channel=9 note=35 velocity=95 time=0
EXTRACT: note_on channel=9 note=59 velocity=95 time=0
EXTRACT: note_on channel=2 note=66 velocity=95 time=0.14150925
EXTRACT: note_on channel=4 note=74 velocity=95 time=0
EXTRACT: note_off channel=6 note=86 velocity=95 time=0
EXTRACT: note_off channel=6 note=81 velocity=95 time=0
EXTRACT: note_off channel=6 note=78 velocity=95 time=0
EXTRACT: note_off channel=14 note=50 velocity=111 time=0
EXTRACT: note_off channel=9 note=0 velocity=95 time=0
EXTRACT: note_off channel=9 note=30 velocity=95 time=0
EXTRACT: note_off channel=9 note=35 velocity=95 time=0
EXTRACT: note_off channel=9 note=59 velocity=95 time=0
EXTRACT: note_on channel=9 note=0 velocity=95 time=0
EXTRACT: note_on channel=9 note=29 velocity=95 time=0
EXTRACT: note_on channel=9 note=35 velocity=95 time=0
EXTRACT: note_on channel=9 note=51 velocity=95 time=0
EXTRACT: note_on channel=9 note=56 velocity=95 time=0
EXTRACT: note_off channel=2 note=66 velocity=95 time=0.14150925
EXTRACT: note_on channel=2 note=66 velocity=95 time=0
EXTRACT: note_off channel=4 note=74 velocity=95 time=0
EXTRACT: note_on channel=4 note=74 velocity=95 time=0
EXTRACT: note_off channel=9 note=0 velocity=95 time=0
EXTRACT: note_off channel=9 note=29 velocity=95 time=0
EXTRACT: note_off channel=9 note=35 velocity=95 time=0
EXTRACT: note_off channel=9 note=51 velocity=95 time=0
EXTRACT: note_off channel=9 note=56 velocity=95 time=0
EXTRACT: note_on channel=9 note=0 velocity=95 time=0
EXTRACT: note_on channel=9 note=30 velocity=95 time=0
EXTRACT: note_on channel=9 note=35 velocity=95 time=0
EXTRACT: note_on channel=9 note=59 velocity=95 time=0
EXTRACT: note_on channel=0 note=66 velocity=111 time=0.14150925
EXTRACT: note_on channel=0 note=62 velocity=95 time=0
EXTRACT: note_on channel=0 note=57 velocity=95 time=0
EXTRACT: note_on channel=0 note=50 velocity=111 time=0
EXTRACT: note_off channel=2 note=66 velocity=95 time=0
EXTRACT: note_on channel=2 note=64 velocity=95 time=0
EXTRACT: note_off channel=4 note=74 velocity=95 time=0
EXTRACT: note_on channel=4 note=73 velocity=95 time=0
EXTRACT: note_on channel=6 note=86 velocity=95 time=0
EXTRACT: note_on channel=6 note=81 velocity=95 time=0
EXTRACT: note_on channel=14 note=45 velocity=111 time=0
EXTRACT: note_off channel=9 note=0 velocity=95 time=0
EXTRACT: note_off channel=9 note=30 velocity=95 time=0
EXTRACT: note_off channel=9 note=35 velocity=95 time=0
EXTRACT: note_off channel=9 note=59 velocity=95 time=0
EXTRACT: note_on channel=9 note=0 velocity=95 time=0
EXTRACT: note_on channel=9 note=30 velocity=95 time=0
EXTRACT: note_on channel=9 note=35 velocity=95 time=0
EXTRACT: note_on channel=9 note=51 velocity=95 time=0
EXTRACT: note_off channel=0 note=66 velocity=111 time=0.14150925
EXTRACT: note_off channel=0 note=62 velocity=95 time=0
EXTRACT: note_off channel=0 note=57 velocity=95 time=0
EXTRACT: note_off channel=0 note=50 velocity=111 time=0
EXTRACT: note_off channel=2 note=64 velocity=95 time=0
EXTRACT: note_off channel=4 note=73 velocity=95 time=0
EXTRACT: note_off channel=6 note=86 velocity=95 time=0
EXTRACT: note_off channel=6 note=81 velocity=95 time=0
EXTRACT: note_off channel=9 note=0 velocity=95 time=0
EXTRACT: note_off channel=9 note=30 velocity=95 time=0
EXTRACT: note_off channel=9 note=35 velocity=95 time=0
EXTRACT: note_off channel=9 note=51 velocity=95 time=0
EXTRACT: note_on channel=9 note=0 velocity=95 time=0
EXTRACT: note_on channel=9 note=51 velocity=95 time=0
EXTRACT: note_on channel=0 note=64 velocity=111 time=0.14150925
EXTRACT: note_on channel=0 note=59 velocity=95 time=0
EXTRACT: note_on channel=0 note=55 velocity=95 time=0
EXTRACT: note_on channel=0 note=50 velocity=95 time=0
EXTRACT: note_off channel=14 note=45 velocity=111 time=0
EXTRACT: note_on channel=14 note=49 velocity=111 time=0
EXTRACT: note_off channel=9 note=0 velocity=95 time=0
EXTRACT: note_off channel=9 note=51 velocity=95 time=0
EXTRACT: note_on channel=9 note=0 velocity=95 time=0
EXTRACT: note_on channel=9 note=30 velocity=95 time=0
EXTRACT: note_on channel=9 note=40 velocity=95 time=0
EXTRACT: note_on channel=9 note=56 velocity=95 time=0
EXTRACT: note_on channel=9 note=59 velocity=95 time=0
EXTRACT: note_off channel=0 note=64 velocity=111 time=0.031249959375
EXTRACT: note_off channel=0 note=59 velocity=95 time=0
EXTRACT: note_off channel=0 note=55 velocity=95 time=0
EXTRACT: note_off channel=0 note=50 velocity=95 time=0
EXTRACT: note_on channel=0 note=66 velocity=111 time=0.110259290625
EXTRACT: note_on channel=0 note=62 velocity=111 time=0
EXTRACT: note_on channel=0 note=57 velocity=111 time=0
EXTRACT: note_on channel=2 note=62 velocity=95 time=0
EXTRACT: note_on channel=4 note=71 velocity=95 time=0
EXTRACT: note_on channel=6 note=78 velocity=95 time=0
EXTRACT: note_off channel=9 note=0 velocity=95 time=0
EXTRACT: note_off channel=9 note=30 velocity=95 time=0
EXTRACT: note_off channel=9 note=40 velocity=95 time=0
EXTRACT: note_off channel=9 note=56 velocity=95 time=0
EXTRACT: note_off channel=9 note=59 velocity=95 time=0
EXTRACT: note_off channel=0 note=66 velocity=111 time=0.14150925
EXTRACT: note_off channel=0 note=62 velocity=111 time=0
EXTRACT: note_off channel=0 note=57 velocity=111 time=0
EXTRACT: note_off channel=6 note=78 velocity=95 time=0
EXTRACT: note_on channel=6 note=86 velocity=95 time=0
EXTRACT: note_on channel=6 note=81 velocity=95 time=0
EXTRACT: note_off channel=14 note=49 velocity=111 time=0
EXTRACT: note_on channel=14 note=50 velocity=111 time=0
EXTRACT: note_on channel=9 note=29 velocity=95 time=0
EXTRACT: note_on channel=9 note=35 velocity=95 time=0
EXTRACT: note_on channel=9 note=53 velocity=95 time=0
EXTRACT: note_off channel=2 note=62 velocity=95 time=0.14150925
EXTRACT: note_off channel=4 note=71 velocity=95 time=0
EXTRACT: note_off channel=6 note=86 velocity=95 time=0
EXTRACT: note_off channel=6 note=81 velocity=95 time=0
EXTRACT: note_off channel=9 note=29 velocity=95 time=0
EXTRACT: note_off channel=9 note=35 velocity=95 time=0
EXTRACT: note_off channel=9 note=53 velocity=95 time=0
EXTRACT: note_on channel=9 note=0 velocity=95 time=0
EXTRACT: note_on channel=9 note=30 velocity=95 time=0
EXTRACT: note_on channel=9 note=59 velocity=95 time=0
EXTRACT: note_on channel=0 note=64 velocity=111 time=0.14150925
EXTRACT: note_on channel=0 note=61 velocity=111 time=0
EXTRACT: note_on channel=0 note=57 velocity=111 time=0
EXTRACT: note_on channel=0 note=52 velocity=111 time=0
EXTRACT: note_on channel=0 note=45 velocity=111 time=0
EXTRACT: note_on channel=2 note=61 velocity=95 time=0
EXTRACT: note_on channel=4 note=69 velocity=95 time=0
EXTRACT: note_on channel=6 note=85 velocity=95 time=0
EXTRACT: note_on channel=6 note=81 velocity=95 time=0
EXTRACT: note_on channel=6 note=76 velocity=95 time=0
EXTRACT: note_off channel=14 note=50 velocity=111 time=0
EXTRACT: note_on channel=14 note=33 velocity=111 time=0
EXTRACT: note_off channel=9 note=0 velocity=95 time=0
EXTRACT: note_off channel=9 note=30 velocity=95 time=0
EXTRACT: note_off channel=9 note=59 velocity=95 time=0
EXTRACT: note_on channel=9 note=0 velocity=95 time=0
EXTRACT: note_on channel=9 note=35 velocity=95 time=0
EXTRACT: note_on channel=9 note=51 velocity=95 time=0
EXTRACT: note_on channel=9 note=56 velocity=95 time=0
EXTRACT: note_off channel=9 note=0 velocity=95 time=0.14150925
EXTRACT: note_off channel=9 note=35 velocity=95 time=0
EXTRACT: note_off channel=9 note=51 velocity=95 time=0
EXTRACT: note_off channel=9 note=56 velocity=95 time=0
EXTRACT: note_off channel=14 note=33 velocity=111 time=0.14150925
EXTRACT: note_on channel=14 note=33 velocity=111 time=0
EXTRACT: note_on channel=9 note=35 velocity=95 time=0
EXTRACT: note_on channel=9 note=51 velocity=95 time=0
EXTRACT: note_off channel=2 note=61 velocity=95 time=0.14150925
EXTRACT: note_off channel=4 note=69 velocity=95 time=0
EXTRACT: note_off channel=9 note=35 velocity=95 time=0
EXTRACT: note_off channel=9 note=51 velocity=95 time=0
EXTRACT: note_off channel=0 note=64 velocity=111 time=0.14150925
EXTRACT: note_off channel=0 note=61 velocity=111 time=0
EXTRACT: note_off channel=0 note=57 velocity=111 time=0
EXTRACT: note_off channel=0 note=52 velocity=111 time=0
EXTRACT: note_off channel=0 note=45 velocity=111 time=0
EXTRACT: note_on channel=0 note=64 velocity=111 time=0
EXTRACT: note_on channel=0 note=61 velocity=95 time=0
EXTRACT: note_on channel=0 note=57 velocity=95 time=0
EXTRACT: note_on channel=0 note=52 velocity=95 time=0
EXTRACT: note_on channel=0 note=45 velocity=111 time=0
EXTRACT: note_on channel=2 note=61 velocity=95 time=0
EXTRACT: note_on channel=4 note=69 velocity=95 time=0
EXTRACT: note_off channel=14 note=33 velocity=111 time=0
EXTRACT: note_on channel=14 note=33 velocity=111 time=0
EXTRACT: note_on channel=9 note=40 velocity=95 time=0
EXTRACT: note_on channel=9 note=56 velocity=95 time=0
EXTRACT: note_on channel=9 note=59 velocity=95 time=0
EXTRACT: note_off channel=2 note=61 velocity=95 time=0.14150925
EXTRACT: note_off channel=9 note=40 velocity=95 time=0
EXTRACT: note_off channel=9 note=56 velocity=95 time=0
EXTRACT: note_off channel=9 note=59 velocity=95 time=0
EXTRACT: note_off channel=0 note=64 velocity=111 time=0.14150925
EXTRACT: note_off channel=0 note=61 velocity=95 time=0
EXTRACT: note_off channel=0 note=57 velocity=95 time=0
EXTRACT: note_off channel=0 note=52 velocity=95 time=0
EXTRACT: note_off channel=0 note=45 velocity=111 time=0
EXTRACT: note_off channel=4 note=69 velocity=95 time=0
EXTRACT: note_off channel=14 note=33 velocity=111 time=0
EXTRACT: note_on channel=14 note=33 velocity=111 time=0
EXTRACT: note_on channel=9 note=35 velocity=95 time=0
EXTRACT: note_on channel=9 note=53 velocity=95 time=0
EXTRACT: note_off channel=14 note=33 velocity=111 time=0.14150925
EXTRACT: note_on channel=14 note=33 velocity=111 time=0
EXTRACT: note_off channel=9 note=35 velocity=95 time=0
EXTRACT: note_off channel=9 note=53 velocity=95 time=0
EXTRACT: note_on channel=9 note=0 velocity=95 time=0
EXTRACT: note_on channel=9 note=40 velocity=95 time=0
EXTRACT: note_on channel=9 note=59 velocity=95 time=0
EXTRACT: note_off channel=6 note=85 velocity=95 time=0.14150925
EXTRACT: note_off channel=6 note=81 velocity=95 time=0
EXTRACT: note_off channel=6 note=76 velocity=95 time=0
EXTRACT: note_off channel=14 note=33 velocity=111 time=0
EXTRACT: note_off channel=9 note=0 velocity=95 time=0
EXTRACT: note_off channel=9 note=40 velocity=95 time=0
EXTRACT: note_off channel=9 note=59 velocity=95 time=0
EXTRACT: note_on channel=9 note=0 velocity=95 time=0
EXTRACT: note_on channel=9 note=35 velocity=95 time=0
EXTRACT: note_on channel=9 note=51 velocity=95 time=0
EXTRACT: note_on channel=9 note=56 velocity=95 time=0
EXTRACT: note_off channel=9 note=0 velocity=95 time=0.14150925
EXTRACT: note_off channel=9 note=35 velocity=95 time=0
EXTRACT: note_off channel=9 note=51 velocity=95 time=0
EXTRACT: note_off channel=9 note=56 velocity=95 time=0
EXTRACT: note_on channel=9 note=0 velocity=95 time=0
EXTRACT: note_on channel=9 note=35 velocity=95 time=0
EXTRACT: note_on channel=9 note=59 velocity=95 time=0
EXTRACT: note_on channel=0 note=64 velocity=111 time=0.14150925
EXTRACT: note_on channel=0 note=61 velocity=111 time=0
EXTRACT: note_on channel=0 note=57 velocity=111 time=0
EXTRACT: note_on channel=0 note=52 velocity=111 time=0
EXTRACT: note_on channel=0 note=45 velocity=111 time=0
EXTRACT: note_on channel=2 note=61 velocity=95 time=0
EXTRACT: note_on channel=4 note=69 velocity=95 time=0
EXTRACT: note_on channel=6 note=85 velocity=95 time=0
EXTRACT: note_on channel=6 note=81 velocity=95 time=0
EXTRACT: note_on channel=14 note=40 velocity=111 time=0
EXTRACT: note_off channel=9 note=0 velocity=95 time=0
EXTRACT: note_off channel=9 note=35 velocity=95 time=0
EXTRACT: note_off channel=9 note=59 velocity=95 time=0
EXTRACT: note_on channel=9 note=0 velocity=95 time=0
EXTRACT: note_on channel=9 note=35 velocity=95 time=0
EXTRACT: note_on channel=9 note=51 velocity=95 time=0
EXTRACT: note_off channel=0 note=64 velocity=111 time=0.14150925
EXTRACT: note_off channel=0 note=61 velocity=111 time=0
EXTRACT: note_off channel=0 note=57 velocity=111 time=0
EXTRACT: note_off channel=0 note=52 velocity=111 time=0
EXTRACT: note_off channel=0 note=45 velocity=111 time=0
EXTRACT: note_off channel=2 note=61 velocity=95 time=0
EXTRACT: note_off channel=4 note=69 velocity=95 time=0
EXTRACT: note_off channel=6 note=85 velocity=95 time=0
EXTRACT: note_off channel=6 note=81 velocity=95 time=0
EXTRACT: note_off channel=9 note=0 velocity=95 time=0
EXTRACT: note_off channel=9 note=35 velocity=95 time=0
EXTRACT: note_off channel=9 note=51 velocity=95 time=0
EXTRACT: note_on channel=0 note=64 velocity=111 time=0.14150925
EXTRACT: note_on channel=0 note=59 velocity=95 time=0
EXTRACT: note_on channel=0 note=55 velocity=95 time=0
EXTRACT: note_on channel=0 note=50 velocity=95 time=0
EXTRACT: note_off channel=14 note=40 velocity=111 time=0
EXTRACT: note_on channel=14 note=44 velocity=111 time=0
EXTRACT: note_on channel=9 note=35 velocity=95 time=0
EXTRACT: note_on channel=9 note=56 velocity=95 time=0
EXTRACT: note_on channel=9 note=59 velocity=95 time=0
EXTRACT: note_off channel=0 note=64 velocity=111 time=0.031249959375
EXTRACT: note_off channel=0 note=59 velocity=95 time=0
EXTRACT: note_off channel=0 note=55 velocity=95 time=0
EXTRACT: note_off channel=0 note=50 velocity=95 time=0
EXTRACT: note_on channel=0 note=64 velocity=111 time=0.110259290625
EXTRACT: note_on channel=0 note=61 velocity=111 time=0
EXTRACT: note_on channel=0 note=57 velocity=111 time=0
EXTRACT: note_on channel=0 note=52 velocity=111 time=0
EXTRACT: note_on channel=2 note=61 velocity=95 time=0
EXTRACT: note_on channel=4 note=69 velocity=95 time=0
EXTRACT: note_on channel=6 note=76 velocity=95 time=0
EXTRACT: note_off channel=9 note=35 velocity=95 time=0
EXTRACT: note_off channel=9 note=56 velocity=95 time=0
EXTRACT: note_off channel=9 note=59 velocity=95 time=0
EXTRACT: note_off channel=0 note=64 velocity=111 time=0.14150925
EXTRACT: note_off channel=0 note=61 velocity=111 time=0
EXTRACT: note_off channel=0 note=57 velocity=111 time=0
EXTRACT: note_off channel=0 note=52 velocity=111 time=0
EXTRACT: note_off channel=2 note=61 velocity=95 time=0
EXTRACT: note_on channel=2 note=61 velocity=95 time=0
EXTRACT: note_off channel=4 note=69 velocity=95 time=0
EXTRACT: note_on channel=4 note=69 velocity=95 time=0
EXTRACT: note_off channel=6 note=76 velocity=95 time=0
EXTRACT: note_on channel=6 note=85 velocity=95 time=0
EXTRACT: note_on channel=6 note=81 velocity=95 time=0
EXTRACT: note_off channel=14 note=44 velocity=111 time=0
EXTRACT: note_on channel=14 note=45 velocity=111 time=0
EXTRACT: note_on channel=9 note=40 velocity=95 time=0
EXTRACT: note_on channel=9 note=51 velocity=95 time=0
EXTRACT: note_off channel=2 note=61 velocity=95 time=0.14150925
EXTRACT: note_off channel=4 note=69 velocity=95 time=0
EXTRACT: note_off channel=6 note=85 velocity=95 time=0
EXTRACT: note_off channel=6 note=81 velocity=95 time=0
EXTRACT: note_off channel=9 note=40 velocity=95 time=0
EXTRACT: note_off channel=9 note=51 velocity=95 time=0
EXTRACT: note_on channel=9 note=0 velocity=95 time=0
EXTRACT: note_on channel=9 note=59 velocity=95 time=0
EXTRACT: note_on channel=0 note=64 velocity=111 time=0.14150925
EXTRACT: note_on channel=0 note=59 velocity=111 time=0
EXTRACT: note_on channel=0 note=56 velocity=111 time=0
EXTRACT: note_on channel=0 note=52 velocity=111 time=0
EXTRACT: note_on channel=0 note=47 velocity=111 time=0
EXTRACT: note_on channel=0 note=40 velocity=111 time=0
EXTRACT: note_on channel=2 note=59 velocity=95 time=0
EXTRACT: note_on channel=4 note=68 velocity=95 time=0
EXTRACT: note_on channel=6 note=83 velocity=95 time=0
EXTRACT: note_on channel=6 note=80 velocity=95 time=0
EXTRACT: note_off channel=14 note=45 velocity=111 time=0
EXTRACT: note_on channel=14 note=40 velocity=111 time=0
EXTRACT: note_off channel=9 note=0 velocity=95 time=0
EXTRACT: note_off channel=9 note=59 velocity=95 time=0
EXTRACT: note_on channel=9 note=35 velocity=95 time=0
EXTRACT: note_on channel=9 note=51 velocity=95 time=0
EXTRACT: note_on channel=9 note=56 velocity=95 time=0
EXTRACT: note_off channel=9 note=35 velocity=95 time=0.14150925
EXTRACT: note_off channel=9 note=51 velocity=95 time=0
EXTRACT: note_off channel=9 note=56 velocity=95 time=0
EXTRACT: note_off channel=14 note=40 velocity=111 time=0.14150925
EXTRACT: note_on channel=14 note=44 velocity=111 time=0
EXTRACT: note_on channel=9 note=35 velocity=95 time=0
EXTRACT: note_on channel=9 note=51 velocity=95 time=0
EXTRACT: note_off channel=2 note=59 velocity=95 time=0.14150925
EXTRACT: note_on channel=2 note=57 velocity=95 time=0
EXTRACT: note_off channel=4 note=68 velocity=95 time=0
EXTRACT: note_on channel=4 note=66 velocity=95 time=0
EXTRACT: note_off channel=9 note=35 velocity=95 time=0
EXTRACT: note_off channel=9 note=51 velocity=95 time=0
EXTRACT: note_off channel=0 note=64 velocity=111 time=0.14150925
EXTRACT: note_off channel=0 note=59 velocity=111 time=0
EXTRACT: note_off channel=0 note=56 velocity=111 time=0
EXTRACT: note_off channel=0 note=52 velocity=111 time=0
EXTRACT: note_off channel=0 note=47 velocity=111 time=0
EXTRACT: note_off channel=0 note=40 velocity=111 time=0
EXTRACT: note_on channel=0 note=64 velocity=111 time=0
EXTRACT: note_on channel=0 note=59 velocity=95 time=0
EXTRACT: note_on channel=0 note=56 velocity=95 time=0
EXTRACT: note_on channel=0 note=52 velocity=95 time=0
EXTRACT: note_on channel=0 note=47 velocity=111 time=0
EXTRACT: note_on channel=0 note=40 velocity=111 time=0
EXTRACT: note_off channel=2 note=57 velocity=95 time=0
EXTRACT: note_on channel=2 note=56 velocity=95 time=0
EXTRACT: note_off channel=4 note=66 velocity=95 time=0
EXTRACT: note_on channel=4 note=64 velocity=95 time=0
EXTRACT: note_off channel=14 note=44 velocity=111 time=0
EXTRACT: note_on channel=14 note=45 velocity=111 time=0
EXTRACT: note_on channel=9 note=40 velocity=95 time=0
EXTRACT: note_on channel=9 note=56 velocity=95 time=0
EXTRACT: note_on channel=9 note=59 velocity=95 time=0
EXTRACT: note_off channel=4 note=64 velocity=95 time=0.14150925
EXTRACT: note_off channel=9 note=40 velocity=95 time=0
EXTRACT: note_off channel=9 note=56 velocity=95 time=0
EXTRACT: note_off channel=9 note=59 velocity=95 time=0
EXTRACT: note_off channel=0 note=64 velocity=111 time=0.14150925
EXTRACT: note_off channel=0 note=59 velocity=95 time=0
EXTRACT: note_off channel=0 note=56 velocity=95 time=0
EXTRACT: note_off channel=0 note=52 velocity=95 time=0
EXTRACT: note_off channel=0 note=47 velocity=111 time=0
EXTRACT: note_off channel=0 note=40 velocity=111 time=0
EXTRACT: note_off channel=2 note=56 velocity=95 time=0
EXTRACT: note_off channel=14 note=45 velocity=111 time=0
EXTRACT: note_on channel=14 note=47 velocity=111 time=0
EXTRACT: note_on channel=9 note=35 velocity=95 time=0
EXTRACT: note_on channel=9 note=53 velocity=95 time=0
EXTRACT: note_on channel=4 note=64 velocity=95 time=0.14150925
EXTRACT: note_off channel=9 note=35 velocity=95 time=0
EXTRACT: note_off channel=9 note=53 velocity=95 time=0
EXTRACT: note_on channel=9 note=0 velocity=95 time=0
EXTRACT: note_on channel=9 note=29 velocity=95 time=0
EXTRACT: note_on channel=9 note=40 velocity=95 time=0
EXTRACT: note_on channel=9 note=59 velocity=95 time=0
EXTRACT: note_off channel=4 note=64 velocity=95 time=0.14150925
EXTRACT: note_on channel=4 note=66 velocity=95 time=0
EXTRACT: note_off channel=9 note=0 velocity=95 time=0
EXTRACT: note_off channel=9 note=29 velocity=95 time=0
EXTRACT: note_off channel=9 note=40 velocity=95 time=0
EXTRACT: note_off channel=9 note=59 velocity=95 time=0
EXTRACT: note_on channel=9 note=0 velocity=95 time=0
EXTRACT: note_on channel=9 note=30 velocity=95 time=0
EXTRACT: note_on channel=9 note=35 velocity=95 time=0
EXTRACT: note_on channel=9 note=51 velocity=95 time=0
EXTRACT: note_on channel=9 note=56 velocity=95 time=0
EXTRACT: note_off channel=9 note=0 velocity=95 time=0.14150925
EXTRACT: note_off channel=9 note=30 velocity=95 time=0
EXTRACT: note_off channel=9 note=35 velocity=95 time=0
EXTRACT: note_off channel=9 note=51 velocity=95 time=0
EXTRACT: note_off channel=9 note=56 velocity=95 time=0
EXTRACT: note_on channel=9 note=0 velocity=95 time=0
EXTRACT: note_on channel=9 note=29 velocity=95 time=0
EXTRACT: note_on channel=9 note=40 velocity=95 time=0
EXTRACT: note_on channel=9 note=59 velocity=95 time=0
EXTRACT: note_on channel=0 note=64 velocity=111 time=0.14150925
EXTRACT: note_on channel=0 note=59 velocity=111 time=0
EXTRACT: note_on channel=0 note=56 velocity=111 time=0
EXTRACT: note_on channel=0 note=52 velocity=111 time=0
EXTRACT: note_on channel=0 note=47 velocity=111 time=0
EXTRACT: note_on channel=0 note=40 velocity=111 time=0
EXTRACT: note_off channel=4 note=66 velocity=95 time=0
EXTRACT: note_on channel=4 note=69 velocity=95 time=0
EXTRACT: note_off channel=14 note=47 velocity=111 time=0
EXTRACT: note_on channel=14 note=38 velocity=111 time=0
EXTRACT: note_off channel=9 note=0 velocity=95 time=0
EXTRACT: note_off channel=9 note=29 velocity=95 time=0
EXTRACT: note_off channel=9 note=40 velocity=95 time=0
EXTRACT: note_off channel=9 note=59 velocity=95 time=0
EXTRACT: note_on channel=9 note=0 velocity=95 time=0
EXTRACT: note_on channel=9 note=30 velocity=95 time=0
EXTRACT: note_on channel=9 note=35 velocity=95 time=0
EXTRACT: note_on channel=9 note=53 velocity=95 time=0
EXTRACT: note_off channel=0 note=64 velocity=111 time=0.14150925
EXTRACT: note_off channel=0 note=59 velocity=111 time=0
EXTRACT: note_off channel=0 note=56 velocity=111 time=0
EXTRACT: note_off channel=0 note=52 velocity=111 time=0
EXTRACT: note_off channel=0 note=47 velocity=111 time=0
EXTRACT: note_off channel=0 note=40 velocity=111 time=0
EXTRACT: note_off channel=4 note=69 velocity=95 time=0
EXTRACT: note_off channel=9 note=0 velocity=95 time=0
EXTRACT: note_off channel=9 note=30 velocity=95 time=0
EXTRACT: note_off channel=9 note=35 velocity=95 time=0
EXTRACT: note_off channel=9 note=53 velocity=95 time=0
EXTRACT: note_on channel=9 note=0 velocity=95 time=0
EXTRACT: note_on channel=9 note=35 velocity=95 time=0
EXTRACT: note_on channel=9 note=59 velocity=95 time=0
EXTRACT: note_on channel=0 note=64 velocity=111 time=0.14150925
EXTRACT: note_on channel=0 note=59 velocity=95 time=0
EXTRACT: note_on channel=0 note=55 velocity=95 time=0
EXTRACT: note_on channel=0 note=50 velocity=95 time=0
EXTRACT: note_on channel=4 note=73 velocity=95 time=0
EXTRACT: note_off channel=14 note=38 velocity=111 time=0
EXTRACT: note_on channel=14 note=40 velocity=111 time=0
EXTRACT: note_off channel=9 note=0 velocity=95 time=0
EXTRACT: note_off channel=9 note=35 velocity=95 time=0
EXTRACT: note_off channel=9 note=59 velocity=95 time=0
EXTRACT: note_on channel=9 note=0 velocity=95 time=0
EXTRACT: note_on channel=9 note=30 velocity=95 time=0
EXTRACT: note_on channel=9 note=40 velocity=95 time=0
EXTRACT: note_on channel=9 note=56 velocity=95 time=0
EXTRACT: note_on channel=9 note=59 velocity=95 time=0
EXTRACT: note_off channel=0 note=64 velocity=111 time=0.031249959375
EXTRACT: note_off channel=0 note=59 velocity=95 time=0
EXTRACT: note_off channel=0 note=55 velocity=95 time=0
EXTRACT: note_off channel=0 note=50 velocity=95 time=0
EXTRACT: note_on channel=0 note=64 velocity=111 time=0.110259290625
EXTRACT: note_on channel=0 note=59 velocity=111 time=0
EXTRACT: note_on channel=0 note=56 velocity=111 time=0
EXTRACT: note_on channel=0 note=52 velocity=111 time=0
EXTRACT: note_off channel=9 note=0 velocity=95 time=0
EXTRACT: note_off channel=9 note=30 velocity=95 time=0
EXTRACT: note_off channel=9 note=40 velocity=95 time=0
EXTRACT: note_off channel=9 note=56 velocity=95 time=0
EXTRACT: note_off channel=9 note=59 velocity=95 time=0
EXTRACT: note_off channel=0 note=64 velocity=111 time=0.14150925
EXTRACT: note_off channel=0 note=59 velocity=111 time=0
EXTRACT: note_off channel=0 note=56 velocity=111 time=0
EXTRACT: note_off channel=0 note=52 velocity=111 time=0
EXTRACT: note_off channel=4 note=73 velocity=95 time=0
EXTRACT: note_on channel=4 note=71 velocity=95 time=0
EXTRACT: note_off channel=14 note=40 velocity=111 time=0
EXTRACT: note_on channel=14 note=38 velocity=111 time=0
EXTRACT: note_on channel=9 note=29 velocity=95 time=0
EXTRACT: note_on channel=9 note=35 velocity=95 time=0
EXTRACT: note_on channel=9 note=51 velocity=95 time=0
EXTRACT: note_off channel=4 note=71 velocity=95 time=0.14150925
EXTRACT: note_on channel=4 note=69 velocity=95 time=0
EXTRACT: note_off channel=6 note=83 velocity=95 time=0
EXTRACT: note_off channel=6 note=80 velocity=95 time=0
EXTRACT: note_off channel=9 note=29 velocity=95 time=0
EXTRACT: note_off channel=9 note=35 velocity=95 time=0
EXTRACT: note_off channel=9 note=51 velocity=95 time=0
EXTRACT: note_on channel=9 note=0 velocity=95 time=0
EXTRACT: note_on channel=9 note=30 velocity=95 time=0
EXTRACT: note_on channel=9 note=35 velocity=95 time=0
EXTRACT: note_on channel=9 note=51 velocity=95 time=0
EXTRACT: note_on channel=0 note=64 velocity=111 time=0.14150925
EXTRACT: note_on channel=0 note=61 velocity=111 time=0
EXTRACT: note_on channel=0 note=57 velocity=111 time=0
EXTRACT: note_on channel=0 note=52 velocity=111 time=0
EXTRACT: note_on channel=0 note=45 velocity=111 time=0
EXTRACT: note_on channel=2 note=61 velocity=95 time=0
EXTRACT: note_off channel=4 note=69 velocity=95 time=0
EXTRACT: note_on channel=4 note=69 velocity=95 time=0
EXTRACT: note_on channel=6 note=85 velocity=95 time=0
EXTRACT: note_on channel=6 note=81 velocity=95 time=0
EXTRACT: note_off channel=14 note=38 velocity=111 time=0
EXTRACT: note_on channel=14 note=33 velocity=111 time=0
EXTRACT: note_off channel=9 note=0 velocity=95 time=0
EXTRACT: note_off channel=9 note=30 velocity=95 time=0
EXTRACT: note_off channel=9 note=35 velocity=95 time=0
EXTRACT: note_off channel=9 note=51 velocity=95 time=0
EXTRACT: note_on channel=9 note=0 velocity=95 time=0
EXTRACT: note_on channel=9 note=35 velocity=95 time=0
EXTRACT: note_on channel=9 note=51 velocity=95 time=0
EXTRACT: note_on channel=9 note=56 velocity=95 time=0
EXTRACT: note_off channel=9 note=0 velocity=95 time=0.14150925
EXTRACT: note_off channel=9 note=35 velocity=95 time=0
EXTRACT: note_off channel=9 note=51 velocity=95 time=0
EXTRACT: note_off channel=9 note=56 velocity=95 time=0
EXTRACT: note_off channel=14 note=33 velocity=111 time=0.14150925
EXTRACT: note_on channel=14 note=33 velocity=111 time=0
EXTRACT: note_on channel=9 note=51 velocity=95 time=0
EXTRACT: note_off channel=2 note=61 velocity=95 time=0.14150925
EXTRACT: note_off channel=4 note=69 velocity=95 time=0
EXTRACT: note_off channel=14 note=33 velocity=111 time=0
EXTRACT: note_on channel=14 note=33 velocity=111 time=0
EXTRACT: note_off channel=9 note=51 velocity=95 time=0
EXTRACT: note_off channel=0 note=64 velocity=111 time=0.14150925
EXTRACT: note_off channel=0 note=61 velocity=111 time=0
EXTRACT: note_off channel=0 note=57 velocity=111 time=0
EXTRACT: note_off channel=0 note=52 velocity=111 time=0
EXTRACT: note_off channel=0 note=45 velocity=111 time=0
EXTRACT: note_on channel=0 note=64 velocity=111 time=0
EXTRACT: note_on channel=0 note=61 velocity=95 time=0
EXTRACT: note_on channel=0 note=57 velocity=95 time=0
EXTRACT: note_on channel=0 note=52 velocity=95 time=0
EXTRACT: note_on channel=0 note=45 velocity=111 time=0
EXTRACT: note_on channel=2 note=61 velocity=95 time=0
EXTRACT: note_on channel=4 note=69 velocity=95 time=0
EXTRACT: note_off channel=14 note=33 velocity=111 time=0
EXTRACT: note_on channel=14 note=33 velocity=111 time=0
EXTRACT: note_on channel=9 note=40 velocity=95 time=0
EXTRACT: note_on channel=9 note=56 velocity=95 time=0
EXTRACT: note_on channel=9 note=59 velocity=95 time=0
EXTRACT: note_off channel=2 note=61 velocity=95 time=0.14150925
EXTRACT: note_off channel=9 note=40 velocity=95 time=0
EXTRACT: note_off channel=9 note=56 velocity=95 time=0
EXTRACT: note_off channel=9 note=59 velocity=95 time=0
EXTRACT: note_off channel=0 note=64 velocity=111 time=0.14150925
EXTRACT: note_off channel=0 note=61 velocity=95 time=0
EXTRACT: note_off channel=0 note=57 velocity=95 time=0
EXTRACT: note_off channel=0 note=52 velocity=95 time=0
EXTRACT: note_off channel=0 note=45 velocity=111 time=0
EXTRACT: note_off channel=4 note=69 velocity=95 time=0
EXTRACT: note_on channel=9 note=35 velocity=95 time=0
EXTRACT: note_on channel=9 note=53 velocity=95 time=0
EXTRACT: note_off channel=9 note=35 velocity=95 time=0.14150925
EXTRACT: note_off channel=9 note=53 velocity=95 time=0
EXTRACT: note_on channel=9 note=0 velocity=95 time=0
EXTRACT: note_on channel=9 note=40 velocity=95 time=0
EXTRACT: note_on channel=9 note=59 velocity=95 time=0
EXTRACT: note_off channel=6 note=85 velocity=95 time=0.14150925
EXTRACT: note_off channel=6 note=81 velocity=95 time=0
EXTRACT: note_off channel=14 note=33 velocity=111 time=0
EXTRACT: note_off channel=9 note=0 velocity=95 time=0
EXTRACT: note_off channel=9 note=40 velocity=95 time=0
EXTRACT: note_off channel=9 note=59 velocity=95 time=0
EXTRACT: note_on channel=9 note=0 velocity=95 time=0
EXTRACT: note_on channel=9 note=35 velocity=95 time=0
EXTRACT: note_on channel=9 note=51 velocity=95 time=0
EXTRACT: note_on channel=9 note=56 velocity=95 time=0
EXTRACT: note_on channel=4 note=69 velocity=95 time=0.14150925
EXTRACT: note_on channel=14 note=33 velocity=111 time=0
EXTRACT: note_off channel=9 note=0 velocity=95 time=0
EXTRACT: note_off channel=9 note=35 velocity=95 time=0
EXTRACT: note_off channel=9 note=51 velocity=95 time=0
EXTRACT: note_off channel=9 note=56 velocity=95 time=0
EXTRACT: note_on channel=9 note=0 velocity=95 time=0
EXTRACT: note_on channel=9 note=29 velocity=95 time=0
EXTRACT: note_on channel=0 note=64 velocity=111 time=0.14150925
EXTRACT: note_on channel=0 note=61 velocity=111 time=0
EXTRACT: note_on channel=0 note=57 velocity=111 time=0
EXTRACT: note_on channel=0 note=52 velocity=111 time=0
EXTRACT: note_on channel=0 note=45 velocity=111 time=0
EXTRACT: note_on channel=2 note=61 velocity=95 time=0
EXTRACT: note_off channel=4 note=69 velocity=95 time=0
EXTRACT: note_on channel=6 note=85 velocity=95 time=0
EXTRACT: note_on channel=6 note=81 velocity=95 time=0
EXTRACT: note_off channel=9 note=0 velocity=95 time=0
EXTRACT: note_off channel=9 note=29 velocity=95 time=0
EXTRACT: note_on channel=9 note=0 velocity=95 time=0
EXTRACT: note_on channel=9 note=30 velocity=95 time=0
EXTRACT: note_on channel=9 note=35 velocity=95 time=0
EXTRACT: note_on channel=9 note=51 velocity=95 time=0
EXTRACT: note_off channel=0 note=64 velocity=111 time=0.14150925
EXTRACT: note_off channel=0 note=61 velocity=111 time=0
EXTRACT: note_off channel=0 note=57 velocity=111 time=0
EXTRACT: note_off channel=0 note=52 velocity=111 time=0
EXTRACT: note_off channel=0 note=45 velocity=111 time=0
EXTRACT: note_off channel=2 note=61 velocity=95 time=0
EXTRACT: note_off channel=6 note=85 velocity=95 time=0
EXTRACT: note_off channel=6 note=81 velocity=95 time=0
EXTRACT: note_off channel=9 note=0 velocity=95 time=0
EXTRACT: note_off channel=9 note=30 velocity=95 time=0
EXTRACT: note_off channel=9 note=35 velocity=95 time=0
EXTRACT: note_off channel=9 note=51 velocity=95 time=0
EXTRACT: note_on channel=0 note=64 velocity=111 time=0.14150925
EXTRACT: note_on channel=0 note=59 velocity=95 time=0
EXTRACT: note_on channel=0 note=55 velocity=95 time=0
EXTRACT: note_on channel=0 note=50 velocity=95 time=0
EXTRACT: note_off channel=14 note=33 velocity=111 time=0
EXTRACT: note_on channel=9 note=30 velocity=95 time=0
EXTRACT: note_on channel=9 note=40 velocity=95 time=0
EXTRACT: note_on channel=9 note=56 velocity=95 time=0
EXTRACT: note_on channel=9 note=59 velocity=95 time=0
EXTRACT: note_off channel=0 note=64 velocity=111 time=0.031249959375
EXTRACT: note_off channel=0 note=59 velocity=95 time=0
EXTRACT: note_off channel=0 note=55 velocity=95 time=0
EXTRACT: note_off channel=0 note=50 velocity=95 time=0
EXTRACT: note_on channel=0 note=64 velocity=111 time=0.110259290625
EXTRACT: note_on channel=0 note=61 velocity=111 time=0
EXTRACT: note_on channel=0 note=57 velocity=111 time=0
EXTRACT: note_on channel=0 note=52 velocity=111 time=0
EXTRACT: note_on channel=2 note=61 velocity=95 time=0
EXTRACT: note_on channel=4 note=69 velocity=95 time=0
EXTRACT: note_on channel=6 note=76 velocity=95 time=0
EXTRACT: note_on channel=14 note=33 velocity=111 time=0
EXTRACT: note_off channel=9 note=30 velocity=95 time=0
EXTRACT: note_off channel=9 note=40 velocity=95 time=0
EXTRACT: note_off channel=9 note=56 velocity=95 time=0
EXTRACT: note_off channel=9 note=59 velocity=95 time=0
EXTRACT: note_off channel=0 note=64 velocity=111 time=0.14150925
EXTRACT: note_off channel=0 note=61 velocity=111 time=0
EXTRACT: note_off channel=0 note=57 velocity=111 time=0
EXTRACT: note_off channel=0 note=52 velocity=111 time=0
EXTRACT: note_off channel=2 note=61 velocity=95 time=0
EXTRACT: note_on channel=2 note=61 velocity=95 time=0
EXTRACT: note_off channel=4 note=69 velocity=95 time=0
EXTRACT: note_on channel=4 note=69 velocity=95 time=0
EXTRACT: note_off channel=6 note=76 velocity=95 time=0
EXTRACT: note_on channel=6 note=85 velocity=95 time=0
EXTRACT: note_on channel=6 note=81 velocity=95 time=0
EXTRACT: note_on channel=9 note=29 velocity=95 time=0
EXTRACT: note_on channel=9 note=35 velocity=95 time=0
EXTRACT: note_on channel=9 note=53 velocity=95 time=0
EXTRACT: note_off channel=2 note=61 velocity=95 time=0.14150925
EXTRACT: note_off channel=4 note=69 velocity=95 time=0
EXTRACT: note_off channel=6 note=85 velocity=95 time=0
EXTRACT: note_off channel=6 note=81 velocity=95 time=0
EXTRACT: note_off channel=9 note=29 velocity=95 time=0
EXTRACT: note_off channel=9 note=35 velocity=95 time=0
EXTRACT: note_off channel=9 note=53 velocity=95 time=0
EXTRACT: note_on channel=9 note=0 velocity=95 time=0
EXTRACT: note_on channel=9 note=30 velocity=95 time=0
EXTRACT: note_on channel=9 note=35 velocity=95 time=0
EXTRACT: note_on channel=9 note=59 velocity=95 time=0
EXTRACT: note_on channel=0 note=66 velocity=111 time=0.14150925
EXTRACT: note_on channel=0 note=62 velocity=111 time=0
EXTRACT: note_on channel=0 note=57 velocity=111 time=0
EXTRACT: note_on channel=0 note=50 velocity=111 time=0
EXTRACT: note_on channel=2 note=62 velocity=95 time=0
EXTRACT: note_on channel=4 note=66 velocity=95 time=0
EXTRACT: note_on channel=6 note=86 velocity=95 time=0
EXTRACT: note_on channel=6 note=81 velocity=95 time=0
EXTRACT: note_off channel=14 note=33 velocity=111 time=0
EXTRACT: note_on channel=14 note=38 velocity=111 time=0
EXTRACT: note_off channel=9 note=0 velocity=95 time=0
EXTRACT: note_off channel=9 note=30 velocity=95 time=0
EXTRACT: note_off channel=9 note=35 velocity=95 time=0
EXTRACT: note_off channel=9 note=59 velocity=95 time=0
EXTRACT: note_on channel=9 note=0 velocity=95 time=0
EXTRACT: note_on channel=9 note=35 velocity=95 time=0
EXTRACT: note_on channel=9 note=51 velocity=95 time=0
EXTRACT: note_on channel=9 note=56 velocity=95 time=0
EXTRACT: note_off channel=9 note=0 velocity=95 time=0.14150925
EXTRACT: note_off channel=9 note=35 velocity=95 time=0
EXTRACT: note_off channel=9 note=51 velocity=95 time=0
EXTRACT: note_off channel=9 note=56 velocity=95 time=0
EXTRACT: note_on channel=9 note=35 velocity=95 time=0.14150925
EXTRACT: note_on channel=9 note=51 velocity=95 time=0
EXTRACT: note_off channel=2 note=62 velocity=95 time=0.14150925
EXTRACT: note_off channel=4 note=66 velocity=95 time=0
EXTRACT: note_off channel=14 note=38 velocity=111 time=0
EXTRACT: note_on channel=14 note=38 velocity=111 time=0
EXTRACT: note_off channel=9 note=35 velocity=95 time=0
EXTRACT: note_off channel=9 note=51 velocity=95 time=0
EXTRACT: note_off channel=0 note=66 velocity=111 time=0.14150925
EXTRACT: note_off channel=0 note=62 velocity=111 time=0
EXTRACT: note_off channel=0 note=57 velocity=111 time=0
EXTRACT: note_off channel=0 note=50 velocity=111 time=0
EXTRACT: note_on channel=0 note=66 velocity=111 time=0
EXTRACT: note_on channel=0 note=62 velocity=95 time=0
EXTRACT: note_on channel=0 note=57 velocity=95 time=0
EXTRACT: note_on channel=0 note=50 velocity=111 time=0
EXTRACT: note_on channel=2 note=62 velocity=95 time=0
EXTRACT: note_on channel=4 note=66 velocity=95 time=0
EXTRACT: note_off channel=14 note=38 velocity=111 time=0
EXTRACT: note_on channel=14 note=38 velocity=111 time=0
EXTRACT: note_on channel=9 note=40 velocity=95 time=0
EXTRACT: note_on channel=9 note=56 velocity=95 time=0
EXTRACT: note_on channel=9 note=59 velocity=95 time=0
EXTRACT: note_off channel=9 note=40 velocity=95 time=0.14150925
EXTRACT: note_off channel=9 note=56 velocity=95 time=0
EXTRACT: note_off channel=9 note=59 velocity=95 time=0
EXTRACT: note_off channel=0 note=66 velocity=111 time=0.14150925
EXTRACT: note_off channel=0 note=62 velocity=95 time=0
EXTRACT: note_off channel=0 note=57 velocity=95 time=0
EXTRACT: note_off channel=0 note=50 velocity=111 time=0
EXTRACT: note_off channel=2 note=62 velocity=95 time=0
EXTRACT: note_off channel=4 note=66 velocity=95 time=0
EXTRACT: note_on channel=9 note=35 velocity=95 time=0
EXTRACT: note_on channel=9 note=53 velocity=95 time=0
EXTRACT: note_off channel=14 note=38 velocity=111 time=0.14150925
EXTRACT: note_on channel=14 note=38 velocity=111 time=0
EXTRACT: note_off channel=9 note=35 velocity=95 time=0
EXTRACT: note_off channel=9 note=53 velocity=95 time=0
EXTRACT: note_on channel=9 note=0 velocity=95 time=0
EXTRACT: note_on channel=9 note=29 velocity=95 time=0
EXTRACT: note_on channel=9 note=40 velocity=95 time=0
EXTRACT: note_on channel=9 note=59 velocity=95 time=0
EXTRACT: note_on channel=2 note=66 velocity=95 time=0.14150925
EXTRACT: note_on channel=4 note=74 velocity=95 time=0
EXTRACT: note_off channel=9 note=0 velocity=95 time=0
EXTRACT: note_off channel=9 note=29 velocity=95 time=0
EXTRACT: note_off channel=9 note=40 velocity=95 time=0
EXTRACT: note_off channel=9 note=59 velocity=95 time=0
EXTRACT: note_on channel=9 note=0 velocity=95 time=0
EXTRACT: note_on channel=9 note=30 velocity=95 time=0
EXTRACT: note_on channel=9 note=35 velocity=95 time=0
EXTRACT: note_on channel=9 note=51 velocity=95 time=0
EXTRACT: note_on channel=9 note=56 velocity=95 time=0
EXTRACT: note_off channel=2 note=66 velocity=95 time=0.14150925
EXTRACT: note_on channel=2 note=66 velocity=95 time=0
EXTRACT: note_off channel=4 note=74 velocity=95 time=0
EXTRACT: note_on channel=4 note=74 velocity=95 time=0
EXTRACT: note_off channel=6 note=86 velocity=95 time=0
EXTRACT: note_off channel=6 note=81 velocity=95 time=0
EXTRACT: note_on channel=6 note=78 velocity=95 time=0
EXTRACT: note_off channel=14 note=38 velocity=111 time=0
EXTRACT: note_on channel=14 note=38 velocity=111 time=0
EXTRACT: note_off channel=9 note=0 velocity=95 time=0
EXTRACT: note_off channel=9 note=30 velocity=95 time=0
EXTRACT: note_off channel=9 note=35 velocity=95 time=0
EXTRACT: note_off channel=9 note=51 velocity=95 time=0
EXTRACT: note_off channel=9 note=56 velocity=95 time=0
EXTRACT: note_on channel=9 note=0 velocity=95 time=0
EXTRACT: note_on channel=9 note=29 velocity=95 time=0
EXTRACT: note_on channel=9 note=40 velocity=95 time=0
EXTRACT: note_on channel=9 note=59 velocity=95 time=0
EXTRACT: note_on channel=0 note=66 velocity=111 time=0.14150925
EXTRACT: note_on channel=0 note=62 velocity=95 time=0
EXTRACT: note_on channel=0 note=57 velocity=95 time=0
EXTRACT: note_on channel=0 note=50 velocity=111 time=0
EXTRACT: note_off channel=2 note=66 velocity=95 time=0
EXTRACT: note_on channel=2 note=64 velocity=95 time=0
EXTRACT: note_off channel=4 note=74 velocity=95 time=0
EXTRACT: note_on channel=4 note=73 velocity=95 time=0
EXTRACT: note_off channel=6 note=78 velocity=95 time=0
EXTRACT: note_on channel=6 note=86 velocity=95 time=0
EXTRACT: note_on channel=6 note=81 velocity=95 time=0
EXTRACT: note_off channel=14 note=38 velocity=111 time=0
EXTRACT: note_on channel=14 note=38 velocity=111 time=0
EXTRACT: note_off channel=9 note=0 velocity=95 time=0
EXTRACT: note_off channel=9 note=29 velocity=95 time=0
EXTRACT: note_off channel=9 note=40 velocity=95 time=0
EXTRACT: note_off channel=9 note=59 velocity=95 time=0
EXTRACT: note_on channel=9 note=0 velocity=95 time=0
EXTRACT: note_on channel=9 note=30 velocity=95 time=0
EXTRACT: note_on channel=9 note=35 velocity=95 time=0
EXTRACT: note_on channel=9 note=51 velocity=95 time=0
EXTRACT: note_off channel=0 note=66 velocity=111 time=0.14150925
EXTRACT: note_off channel=0 note=62 velocity=95 time=0
EXTRACT: note_off channel=0 note=57 velocity=95 time=0
EXTRACT: note_off channel=0 note=50 velocity=111 time=0
EXTRACT: note_off channel=2 note=64 velocity=95 time=0
EXTRACT: note_off channel=4 note=73 velocity=95 time=0
EXTRACT: note_off channel=6 note=86 velocity=95 time=0
EXTRACT: note_off channel=6 note=81 velocity=95 time=0
EXTRACT: note_on channel=6 note=86 velocity=95 time=0
EXTRACT: note_on channel=6 note=81 velocity=95 time=0
EXTRACT: note_on channel=6 note=78 velocity=95 time=0
EXTRACT: note_off channel=9 note=0 velocity=95 time=0
EXTRACT: note_off channel=9 note=30 velocity=95 time=0
EXTRACT: note_off channel=9 note=35 velocity=95 time=0
EXTRACT: note_off channel=9 note=51 velocity=95 time=0
EXTRACT: note_on channel=9 note=0 velocity=95 time=0
EXTRACT: note_on channel=9 note=30 velocity=95 time=0
EXTRACT: note_on channel=9 note=35 velocity=95 time=0
EXTRACT: note_on channel=9 note=51 velocity=95 time=0
EXTRACT: note_on channel=0 note=64 velocity=111 time=0.14150925
EXTRACT: note_on channel=0 note=59 velocity=95 time=0
EXTRACT: note_on channel=0 note=55 velocity=95 time=0
EXTRACT: note_on channel=0 note=50 velocity=95 time=0
EXTRACT: note_off channel=6 note=86 velocity=95 time=0
EXTRACT: note_off channel=6 note=81 velocity=95 time=0
EXTRACT: note_off channel=6 note=78 velocity=95 time=0
EXTRACT: note_off channel=14 note=38 velocity=111 time=0
EXTRACT: note_off channel=9 note=0 velocity=95 time=0
EXTRACT: note_off channel=9 note=30 velocity=95 time=0
EXTRACT: note_off channel=9 note=35 velocity=95 time=0
EXTRACT: note_off channel=9 note=51 velocity=95 time=0
EXTRACT: note_on channel=9 note=0 velocity=95 time=0
EXTRACT: note_on channel=9 note=30 velocity=95 time=0
EXTRACT: note_on channel=9 note=40 velocity=95 time=0
EXTRACT: note_on channel=9 note=56 velocity=95 time=0
EXTRACT: note_on channel=9 note=59 velocity=95 time=0
EXTRACT: note_off channel=0 note=64 velocity=111 time=0.031249959375
EXTRACT: note_off channel=0 note=59 velocity=95 time=0
EXTRACT: note_off channel=0 note=55 velocity=95 time=0
EXTRACT: note_off channel=0 note=50 velocity=95 time=0
EXTRACT: note_on channel=0 note=66 velocity=111 time=0.110259290625
EXTRACT: note_on channel=0 note=62 velocity=111 time=0
EXTRACT: note_on channel=0 note=57 velocity=111 time=0
EXTRACT: note_on channel=2 note=62 velocity=95 time=0
EXTRACT: note_on channel=4 note=71 velocity=95 time=0
EXTRACT: note_on channel=6 note=78 velocity=95 time=0
EXTRACT: note_off channel=9 note=0 velocity=95 time=0
EXTRACT: note_off channel=9 note=30 velocity=95 time=0
EXTRACT: note_off channel=9 note=40 velocity=95 time=0
EXTRACT: note_off channel=9 note=56 velocity=95 time=0
EXTRACT: note_off channel=9 note=59 velocity=95 time=0
EXTRACT: note_off channel=0 note=66 velocity=111 time=0.14150925
EXTRACT: note_off channel=0 note=62 velocity=111 time=0
EXTRACT: note_off channel=0 note=57 velocity=111 time=0
EXTRACT: note_off channel=6 note=78 velocity=95 time=0
EXTRACT: note_on channel=6 note=86 velocity=95 time=0
EXTRACT: note_on channel=6 note=81 velocity=95 time=0
EXTRACT: note_on channel=9 note=29 velocity=95 time=0
EXTRACT: note_on channel=9 note=35 velocity=95 time=0
EXTRACT: note_on channel=9 note=53 velocity=95 time=0
EXTRACT: note_off channel=2 note=62 velocity=95 time=0.14150925
EXTRACT: note_off channel=4 note=71 velocity=95 time=0
EXTRACT: note_off channel=6 note=86 velocity=95 time=0
EXTRACT: note_off channel=6 note=81 velocity=95 time=0
EXTRACT: note_off channel=9 note=29 velocity=95 time=0
EXTRACT: note_off channel=9 note=35 velocity=95 time=0
EXTRACT: note_off channel=9 note=53 velocity=95 time=0
EXTRACT: note_on channel=9 note=0 velocity=95 time=0
EXTRACT: note_on channel=9 note=30 velocity=95 time=0
EXTRACT: note_on channel=9 note=35 velocity=95 time=0
EXTRACT: note_on channel=9 note=59 velocity=95 time=0
EXTRACT: note_on channel=0 note=64 velocity=111 time=0.14150925
EXTRACT: note_on channel=0 note=61 velocity=111 time=0
EXTRACT: note_on channel=0 note=57 velocity=111 time=0
EXTRACT: note_on channel=0 note=52 velocity=111 time=0
EXTRACT: note_on channel=0 note=45 velocity=111 time=0
EXTRACT: note_on channel=2 note=61 velocity=95 time=0
EXTRACT: note_on channel=4 note=69 velocity=95 time=0
EXTRACT: note_on channel=6 note=85 velocity=95 time=0
EXTRACT: note_on channel=6 note=81 velocity=95 time=0
EXTRACT: note_on channel=14 note=33 velocity=111 time=0
EXTRACT: note_off channel=9 note=0 velocity=95 time=0
EXTRACT: note_off channel=9 note=30 velocity=95 time=0
EXTRACT: note_off channel=9 note=35 velocity=95 time=0
EXTRACT: note_off channel=9 note=59 velocity=95 time=0
EXTRACT: note_on channel=9 note=0 velocity=95 time=0
EXTRACT: note_on channel=9 note=35 velocity=95 time=0
EXTRACT: note_on channel=9 note=51 velocity=95 time=0
EXTRACT: note_on channel=9 note=56 velocity=95 time=0
EXTRACT: note_off channel=9 note=0 velocity=95 time=0.14150925
EXTRACT: note_off channel=9 note=35 velocity=95 time=0
EXTRACT: note_off channel=9 note=51 velocity=95 time=0
EXTRACT: note_off channel=9 note=56 velocity=95 time=0
EXTRACT: note_off channel=14 note=33 velocity=111 time=0.14150925
EXTRACT: note_on channel=14 note=33 velocity=111 time=0
EXTRACT: note_on channel=9 note=35 velocity=95 time=0
EXTRACT: note_on channel=9 note=51 velocity=95 time=0
EXTRACT: note_off channel=2 note=61 velocity=95 time=0.14150925
EXTRACT: note_off channel=4 note=69 velocity=95 time=0
EXTRACT: note_off channel=9 note=35 velocity=95 time=0
EXTRACT: note_off channel=9 note=51 velocity=95 time=0
EXTRACT: note_off channel=0 note=64 velocity=111 time=0.14150925
EXTRACT: note_off channel=0 note=61 velocity=111 time=0
EXTRACT: note_off channel=0 note=57 velocity=111 time=0
EXTRACT: note_off channel=0 note=52 velocity=111 time=0
EXTRACT: note_off channel=0 note=45 velocity=111 time=0
EXTRACT: note_on channel=0 note=64 velocity=111 time=0
EXTRACT: note_on channel=0 note=61 velocity=95 time=0
EXTRACT: note_on channel=0 note=57 velocity=95 time=0
EXTRACT: note_on channel=0 note=52 velocity=95 time=0
EXTRACT: note_on channel=0 note=45 velocity=111 time=0
EXTRACT: note_on channel=2 note=61 velocity=95 time=0
EXTRACT: note_on channel=4 note=69 velocity=95 time=0
EXTRACT: note_off channel=14 note=33 velocity=111 time=0
EXTRACT: note_on channel=14 note=33 velocity=111 time=0
EXTRACT: note_on channel=9 note=40 velocity=95 time=0
EXTRACT: note_on channel=9 note=56 velocity=95 time=0
EXTRACT: note_on channel=9 note=59 velocity=95 time=0
EXTRACT: note_off channel=2 note=61 velocity=95 time=0.14150925
EXTRACT: note_off channel=9 note=40 velocity=95 time=0
EXTRACT: note_off channel=9 note=56 velocity=95 time=0
EXTRACT: note_off channel=9 note=59 velocity=95 time=0
EXTRACT: note_off channel=0 note=64 velocity=111 time=0.14150925
EXTRACT: note_off channel=0 note=61 velocity=95 time=0
EXTRACT: note_off channel=0 note=57 velocity=95 time=0
EXTRACT: note_off channel=0 note=52 velocity=95 time=0
EXTRACT: note_off channel=0 note=45 velocity=111 time=0
EXTRACT: note_off channel=4 note=69 velocity=95 time=0
EXTRACT: note_on channel=9 note=35 velocity=95 time=0
EXTRACT: note_on channel=9 note=53 velocity=95 time=0
EXTRACT: note_off channel=14 note=33 velocity=111 time=0.14150925
EXTRACT: note_on channel=14 note=33 velocity=111 time=0
EXTRACT: note_off channel=9 note=35 velocity=95 time=0
EXTRACT: note_off channel=9 note=53 velocity=95 time=0
EXTRACT: note_on channel=9 note=0 velocity=95 time=0
EXTRACT: note_on channel=9 note=40 velocity=95 time=0
EXTRACT: note_on channel=9 note=59 velocity=95 time=0
EXTRACT: note_off channel=9 note=0 velocity=95 time=0.14150925
EXTRACT: note_off channel=9 note=40 velocity=95 time=0
EXTRACT: note_off channel=9 note=59 velocity=95 time=0
EXTRACT: note_on channel=9 note=0 velocity=95 time=0
EXTRACT: note_on channel=9 note=35 velocity=95 time=0
EXTRACT: note_on channel=9 note=51 velocity=95 time=0
EXTRACT: note_on channel=9 note=56 velocity=95 time=0
EXTRACT: note_off channel=6 note=85 velocity=95 time=0.14150925
EXTRACT: note_off channel=6 note=81 velocity=95 time=0
EXTRACT: note_off channel=14 note=33 velocity=111 time=0
EXTRACT: note_on channel=14 note=33 velocity=111 time=0
EXTRACT: note_off channel=9 note=0 velocity=95 time=0
EXTRACT: note_off channel=9 note=35 velocity=95 time=0
EXTRACT: note_off channel=9 note=51 velocity=95 time=0
EXTRACT: note_off channel=9 note=56 velocity=95 time=0
EXTRACT: note_on channel=9 note=0 velocity=95 time=0
EXTRACT: note_on channel=9 note=40 velocity=95 time=0
EXTRACT: note_on channel=9 note=59 velocity=95 time=0
EXTRACT: note_on channel=0 note=64 velocity=111 time=0.14150925
EXTRACT: note_on channel=0 note=61 velocity=111 time=0
EXTRACT: note_on channel=0 note=57 velocity=111 time=0
EXTRACT: note_on channel=0 note=52 velocity=111 time=0
EXTRACT: note_on channel=0 note=45 velocity=111 time=0
EXTRACT: note_on channel=2 note=61 velocity=95 time=0
EXTRACT: note_on channel=4 note=69 velocity=95 time=0
EXTRACT: note_on channel=6 note=85 velocity=95 time=0
EXTRACT: note_on channel=6 note=81 velocity=95 time=0
EXTRACT: note_on channel=6 note=76 velocity=95 time=0
EXTRACT: note_off channel=14 note=33 velocity=111 time=0
EXTRACT: note_on channel=14 note=33 velocity=111 time=0
EXTRACT: note_off channel=9 note=0 velocity=95 time=0
EXTRACT: note_off channel=9 note=40 velocity=95 time=0
EXTRACT: note_off channel=9 note=59 velocity=95 time=0
EXTRACT: note_on channel=9 note=0 velocity=95 time=0
EXTRACT: note_on channel=9 note=35 velocity=95 time=0
EXTRACT: note_on channel=9 note=51 velocity=95 time=0
EXTRACT: note_off channel=0 note=64 velocity=111 time=0.14150925
EXTRACT: note_off channel=0 note=61 velocity=111 time=0
EXTRACT: note_off channel=0 note=57 velocity=111 time=0
EXTRACT: note_off channel=0 note=52 velocity=111 time=0
EXTRACT: note_off channel=0 note=45 velocity=111 time=0
EXTRACT: note_off channel=2 note=61 velocity=95 time=0
EXTRACT: note_off channel=4 note=69 velocity=95 time=0
EXTRACT: note_off channel=6 note=85 velocity=95 time=0
EXTRACT: note_off channel=6 note=81 velocity=95 time=0
EXTRACT: note_off channel=6 note=76 velocity=95 time=0
EXTRACT: note_off channel=9 note=0 velocity=95 time=0
EXTRACT: note_off channel=9 note=35 velocity=95 time=0
EXTRACT: note_off channel=9 note=51 velocity=95 time=0
EXTRACT: note_on channel=9 note=0 velocity=95 time=0
EXTRACT: note_on channel=9 note=51 velocity=95 time=0
EXTRACT: note_on channel=0 note=64 velocity=111 time=0.14150925
EXTRACT: note_on channel=0 note=59 velocity=95 time=0
EXTRACT: note_on channel=0 note=55 velocity=95 time=0
EXTRACT: note_on channel=0 note=50 velocity=95 time=0
EXTRACT: note_off channel=9 note=0 velocity=95 time=0
EXTRACT: note_off channel=9 note=51 velocity=95 time=0
EXTRACT: note_on channel=9 note=0 velocity=95 time=0
EXTRACT: note_on channel=9 note=40 velocity=95 time=0
EXTRACT: note_on channel=9 note=56 velocity=95 time=0
EXTRACT: note_on channel=9 note=59 velocity=95 time=0
EXTRACT: note_off channel=0 note=64 velocity=111 time=0.031249959375
EXTRACT: note_off channel=0 note=59 velocity=95 time=0
EXTRACT: note_off channel=0 note=55 velocity=95 time=0
EXTRACT: note_off channel=0 note=50 velocity=95 time=0
EXTRACT: note_on channel=0 note=64 velocity=111 time=0.110259290625
EXTRACT: note_on channel=0 note=61 velocity=111 time=0
EXTRACT: note_on channel=0 note=57 velocity=111 time=0
EXTRACT: note_on channel=0 note=52 velocity=111 time=0
EXTRACT: note_on channel=2 note=61 velocity=95 time=0
EXTRACT: note_on channel=4 note=69 velocity=95 time=0
EXTRACT: note_on channel=6 note=76 velocity=95 time=0
EXTRACT: note_off channel=9 note=0 velocity=95 time=0
EXTRACT: note_off channel=9 note=40 velocity=95 time=0
EXTRACT: note_off channel=9 note=56 velocity=95 time=0
EXTRACT: note_off channel=9 note=59 velocity=95 time=0
EXTRACT: note_off channel=0 note=64 velocity=111 time=0.14150925
EXTRACT: note_off channel=0 note=61 velocity=111 time=0
EXTRACT: note_off channel=0 note=57 velocity=111 time=0
EXTRACT: note_off channel=0 note=52 velocity=111 time=0
EXTRACT: note_off channel=2 note=61 velocity=95 time=0
EXTRACT: note_on channel=2 note=61 velocity=95 time=0
EXTRACT: note_off channel=4 note=69 velocity=95 time=0
EXTRACT: note_on channel=4 note=69 velocity=95 time=0
EXTRACT: note_off channel=6 note=76 velocity=95 time=0
EXTRACT: note_on channel=6 note=85 velocity=95 time=0
EXTRACT: note_on channel=6 note=81 velocity=95 time=0
EXTRACT: note_off channel=14 note=33 velocity=111 time=0
EXTRACT: note_on channel=14 note=33 velocity=111 time=0
EXTRACT: note_on channel=9 note=35 velocity=95 time=0
EXTRACT: note_on channel=9 note=51 velocity=95 time=0
EXTRACT: note_off channel=2 note=61 velocity=95 time=0.14150925
EXTRACT: note_off channel=4 note=69 velocity=95 time=0
EXTRACT: note_off channel=6 note=85 velocity=95 time=0
EXTRACT: note_off channel=6 note=81 velocity=95 time=0
EXTRACT: note_off channel=9 note=35 velocity=95 time=0
EXTRACT: note_off channel=9 note=51 velocity=95 time=0
EXTRACT: note_on channel=9 note=0 velocity=95 time=0
EXTRACT: note_on channel=9 note=35 velocity=95 time=0
EXTRACT: note_on channel=9 note=59 velocity=95 time=0
EXTRACT: note_on channel=0 note=64 velocity=111 time=0.14150925
EXTRACT: note_on channel=0 note=59 velocity=111 time=0
EXTRACT: note_on channel=0 note=56 velocity=111 time=0
EXTRACT: note_on channel=0 note=52 velocity=111 time=0
EXTRACT: note_on channel=0 note=47 velocity=111 time=0
EXTRACT: note_on channel=0 note=40 velocity=111 time=0
EXTRACT: note_on channel=2 note=59 velocity=95 time=0
EXTRACT: note_on channel=4 note=68 velocity=95 time=0
EXTRACT: note_on channel=6 note=83 velocity=95 time=0
EXTRACT: note_on channel=6 note=80 velocity=95 time=0
EXTRACT: note_off channel=14 note=33 velocity=111 time=0
EXTRACT: note_on channel=14 note=40 velocity=111 time=0
EXTRACT: note_off channel=9 note=0 velocity=95 time=0
EXTRACT: note_off channel=9 note=35 velocity=95 time=0
EXTRACT: note_off channel=9 note=59 velocity=95 time=0
EXTRACT: note_on channel=9 note=0 velocity=95 time=0
EXTRACT: note_on channel=9 note=35 velocity=95 time=0
EXTRACT: note_on channel=9 note=51 velocity=95 time=0
EXTRACT: note_on channel=9 note=56 velocity=95 time=0
EXTRACT: note_off channel=9 note=0 velocity=95 time=0.14150925
EXTRACT: note_off channel=9 note=35 velocity=95 time=0
EXTRACT: note_off channel=9 note=51 velocity=95 time=0
EXTRACT: note_off channel=9 note=56 velocity=95 time=0
EXTRACT: note_off channel=14 note=40 velocity=111 time=0.14150925
EXTRACT: note_on channel=14 note=44 velocity=111 time=0
EXTRACT: note_on channel=9 note=35 velocity=95 time=0
EXTRACT: note_on channel=9 note=51 velocity=95 time=0
EXTRACT: note_off channel=2 note=59 velocity=95 time=0.14150925
EXTRACT: note_on channel=2 note=57 velocity=95 time=0
EXTRACT: note_off channel=4 note=68 velocity=95 time=0
EXTRACT: note_on channel=4 note=66 velocity=95 time=0
EXTRACT: note_off channel=9 note=35 velocity=95 time=0
EXTRACT: note_off channel=9 note=51 velocity=95 time=0
EXTRACT: note_off channel=0 note=64 velocity=111 time=0.14150925
EXTRACT: note_off channel=0 note=59 velocity=111 time=0
EXTRACT: note_off channel=0 note=56 velocity=111 time=0
EXTRACT: note_off channel=0 note=52 velocity=111 time=0
EXTRACT: note_off channel=0 note=47 velocity=111 time=0
EXTRACT: note_off channel=0 note=40 velocity=111 time=0
EXTRACT: note_on channel=0 note=64 velocity=111 time=0
EXTRACT: note_on channel=0 note=59 velocity=95 time=0
EXTRACT: note_on channel=0 note=56 velocity=95 time=0
EXTRACT: note_on channel=0 note=52 velocity=95 time=0
EXTRACT: note_on channel=0 note=47 velocity=111 time=0
EXTRACT: note_on channel=0 note=40 velocity=111 time=0
EXTRACT: note_off channel=2 note=57 velocity=95 time=0
EXTRACT: note_on channel=2 note=56 velocity=95 time=0
EXTRACT: note_off channel=4 note=66 velocity=95 time=0
EXTRACT: note_on channel=4 note=64 velocity=95 time=0
EXTRACT: note_off channel=14 note=44 velocity=111 time=0
EXTRACT: note_on channel=14 note=45 velocity=111 time=0
EXTRACT: note_on channel=9 note=40 velocity=95 time=0
EXTRACT: note_on channel=9 note=56 velocity=95 time=0
EXTRACT: note_on channel=9 note=59 velocity=95 time=0
EXTRACT: note_off channel=9 note=40 velocity=95 time=0.14150925
EXTRACT: note_off channel=9 note=56 velocity=95 time=0
EXTRACT: note_off channel=9 note=59 velocity=95 time=0
EXTRACT: note_off channel=0 note=64 velocity=111 time=0.14150925
EXTRACT: note_off channel=0 note=59 velocity=95 time=0
EXTRACT: note_off channel=0 note=56 velocity=95 time=0
EXTRACT: note_off channel=0 note=52 velocity=95 time=0
EXTRACT: note_off channel=0 note=47 velocity=111 time=0
EXTRACT: note_off channel=0 note=40 velocity=111 time=0
EXTRACT: note_off channel=2 note=56 velocity=95 time=0
EXTRACT: note_off channel=4 note=64 velocity=95 time=0
EXTRACT: note_off channel=14 note=45 velocity=111 time=0
EXTRACT: note_on channel=14 note=45 velocity=111 time=0
EXTRACT: note_on channel=9 note=35 velocity=95 time=0
EXTRACT: note_on channel=9 note=53 velocity=95 time=0
EXTRACT: note_off channel=14 note=45 velocity=111 time=0.14150925
EXTRACT: note_on channel=14 note=40 velocity=111 time=0
EXTRACT: note_off channel=9 note=35 velocity=95 time=0
EXTRACT: note_off channel=9 note=53 velocity=95 time=0
EXTRACT: note_on channel=9 note=0 velocity=95 time=0
EXTRACT: note_on channel=9 note=29 velocity=95 time=0
EXTRACT: note_on channel=9 note=40 velocity=95 time=0
EXTRACT: note_on channel=9 note=59 velocity=95 time=0
EXTRACT: note_on channel=4 note=64 velocity=95 time=0.14150925
EXTRACT: note_off channel=14 note=40 velocity=111 time=0
EXTRACT: note_off channel=9 note=0 velocity=95 time=0
EXTRACT: note_off channel=9 note=29 velocity=95 time=0
EXTRACT: note_off channel=9 note=40 velocity=95 time=0
EXTRACT: note_off channel=9 note=59 velocity=95 time=0
EXTRACT: note_on channel=9 note=0 velocity=95 time=0
EXTRACT: note_on channel=9 note=30 velocity=95 time=0
EXTRACT: note_on channel=9 note=40 velocity=95 time=0
EXTRACT: note_on channel=9 note=56 velocity=95 time=0
EXTRACT: note_on channel=14 note=40 velocity=111 time=0.14150925
EXTRACT: note_off channel=9 note=0 velocity=95 time=0
EXTRACT: note_off channel=9 note=30 velocity=95 time=0
EXTRACT: note_off channel=9 note=40 velocity=95 time=0
EXTRACT: note_off channel=9 note=56 velocity=95 time=0
EXTRACT: note_on channel=9 note=0 velocity=95 time=0
EXTRACT: note_on channel=9 note=29 velocity=95 time=0
EXTRACT: note_on channel=9 note=40 velocity=95 time=0
EXTRACT: note_on channel=0 note=64 velocity=111 time=0.14150925
EXTRACT: note_on channel=0 note=59 velocity=111 time=0
EXTRACT: note_on channel=0 note=56 velocity=111 time=0
EXTRACT: note_on channel=0 note=52 velocity=111 time=0
EXTRACT: note_on channel=0 note=47 velocity=111 time=0
EXTRACT: note_on channel=0 note=40 velocity=111 time=0
EXTRACT: note_off channel=4 note=64 velocity=95 time=0
EXTRACT: note_on channel=4 note=66 velocity=95 time=0
EXTRACT: note_off channel=14 note=40 velocity=111 time=0
EXTRACT: note_on channel=14 note=50 velocity=111 time=0
EXTRACT: note_off channel=9 note=0 velocity=95 time=0
EXTRACT: note_off channel=9 note=29 velocity=95 time=0
EXTRACT: note_off channel=9 note=40 velocity=95 time=0
EXTRACT: note_on channel=9 note=0 velocity=95 time=0
EXTRACT: note_on channel=9 note=30 velocity=95 time=0
EXTRACT: note_on channel=9 note=40 velocity=95 time=0
EXTRACT: note_off channel=0 note=64 velocity=111 time=0.14150925
EXTRACT: note_off channel=0 note=59 velocity=111 time=0
EXTRACT: note_off channel=0 note=56 velocity=111 time=0
EXTRACT: note_off channel=0 note=52 velocity=111 time=0
EXTRACT: note_off channel=0 note=47 velocity=111 time=0
EXTRACT: note_off channel=0 note=40 velocity=111 time=0
EXTRACT: note_off channel=4 note=66 velocity=95 time=0
EXTRACT: note_off channel=9 note=0 velocity=95 time=0
EXTRACT: note_off channel=9 note=30 velocity=95 time=0
EXTRACT: note_off channel=9 note=40 velocity=95 time=0
EXTRACT: note_on channel=9 note=0 velocity=95 time=0
EXTRACT: note_on channel=9 note=30 velocity=95 time=0
EXTRACT: note_on channel=9 note=40 velocity=95 time=0
EXTRACT: note_on channel=0 note=64 velocity=111 time=0.14150925
EXTRACT: note_on channel=0 note=59 velocity=95 time=0
EXTRACT: note_on channel=0 note=55 velocity=95 time=0
EXTRACT: note_on channel=0 note=50 velocity=95 time=0
EXTRACT: note_on channel=4 note=71 velocity=95 time=0
EXTRACT: note_off channel=14 note=50 velocity=111 time=0
EXTRACT: note_on channel=15 note=52 velocity=111 time=0
EXTRACT: note_off channel=9 note=0 velocity=95 time=0
EXTRACT: note_off channel=9 note=30 velocity=95 time=0
EXTRACT: note_off channel=9 note=40 velocity=95 time=0
EXTRACT: note_on channel=9 note=0 velocity=95 time=0
EXTRACT: note_on channel=9 note=30 velocity=95 time=0
EXTRACT: note_on channel=9 note=40 velocity=95 time=0
EXTRACT: note_on channel=9 note=56 velocity=95 time=0
EXTRACT: note_on channel=9 note=57 velocity=95 time=0
EXTRACT: note_off channel=0 note=64 velocity=111 time=0.031249959375
EXTRACT: note_off channel=0 note=59 velocity=95 time=0
EXTRACT: note_off channel=0 note=55 velocity=95 time=0
EXTRACT: note_off channel=0 note=50 velocity=95 time=0
EXTRACT: note_on channel=0 note=64 velocity=111 time=0.110259290625
EXTRACT: note_on channel=0 note=59 velocity=111 time=0
EXTRACT: note_on channel=0 note=56 velocity=111 time=0
EXTRACT: note_on channel=0 note=52 velocity=111 time=0
EXTRACT: note_off channel=4 note=71 velocity=95 time=0
EXTRACT: note_off channel=9 note=0 velocity=95 time=0
EXTRACT: note_off channel=9 note=30 velocity=95 time=0
EXTRACT: note_off channel=9 note=40 velocity=95 time=0
EXTRACT: note_off channel=9 note=56 velocity=95 time=0
EXTRACT: note_off channel=9 note=57 velocity=95 time=0
EXTRACT: note_on channel=9 note=0 velocity=95 time=0
EXTRACT: note_on channel=9 note=40 velocity=95 time=0
EXTRACT: note_off channel=0 note=64 velocity=111 time=0.14150925
EXTRACT: note_off channel=0 note=59 velocity=111 time=0
EXTRACT: note_off channel=0 note=56 velocity=111 time=0
EXTRACT: note_off channel=0 note=52 velocity=111 time=0
EXTRACT: note_on channel=4 note=69 velocity=95 time=0
EXTRACT: note_off channel=6 note=83 velocity=95 time=0
EXTRACT: note_off channel=6 note=80 velocity=95 time=0
EXTRACT: note_off channel=9 note=0 velocity=95 time=0
EXTRACT: note_off channel=9 note=40 velocity=95 time=0
EXTRACT: note_on channel=9 note=0 velocity=95 time=0
EXTRACT: note_on channel=9 note=29 velocity=95 time=0
EXTRACT: note_on channel=9 note=40 velocity=95 time=0
EXTRACT: note_off channel=9 note=0 velocity=95 time=0.14150925
EXTRACT: note_off channel=9 note=29 velocity=95 time=0
EXTRACT: note_off channel=9 note=40 velocity=95 time=0
EXTRACT: note_on channel=9 note=0 velocity=95 time=0
EXTRACT: note_on channel=9 note=30 velocity=95 time=0
EXTRACT: note_on channel=9 note=40 velocity=95 time=0
EXTRACT: note_on channel=0 note=61 velocity=111 time=0.14150925
EXTRACT: note_on channel=0 note=57 velocity=95 time=0
EXTRACT: note_on channel=0 note=52 velocity=111 time=0
EXTRACT: note_on channel=0 note=45 velocity=111 time=0
EXTRACT: note_on channel=6 note=85 velocity=95 time=0
EXTRACT: note_on channel=6 note=81 velocity=95 time=0
EXTRACT: note_off channel=15 note=52 velocity=111 time=0
EXTRACT: note_on channel=14 note=33 velocity=111 time=0
EXTRACT: note_off channel=9 note=0 velocity=95 time=0
EXTRACT: note_off channel=9 note=30 velocity=95 time=0
EXTRACT: note_off channel=9 note=40 velocity=95 time=0
EXTRACT: note_on channel=9 note=0 velocity=95 time=0
EXTRACT: note_on channel=9 note=35 velocity=95 time=0
EXTRACT: note_on channel=9 note=44 velocity=95 time=0
EXTRACT: note_on channel=9 note=49 velocity=95 time=0
EXTRACT: note_on channel=9 note=57 velocity=95 time=0
EXTRACT: note_off channel=9 note=0 velocity=95 time=0.14150925
EXTRACT: note_off channel=9 note=35 velocity=95 time=0
EXTRACT: note_off channel=9 note=44 velocity=95 time=0
EXTRACT: note_off channel=9 note=49 velocity=95 time=0
EXTRACT: note_off channel=9 note=57 velocity=95 time=0
EXTRACT: note_off channel=4 note=69 velocity=95 time=0.14150925
EXTRACT: note_off channel=14 note=33 velocity=111 time=0
EXTRACT: note_on channel=14 note=33 velocity=111 time=0
EXTRACT: note_on channel=9 note=44 velocity=95 time=0
EXTRACT: note_off channel=14 note=33 velocity=111 time=0.14150925
EXTRACT: note_on channel=14 note=33 velocity=111 time=0
EXTRACT: note_off channel=9 note=44 velocity=95 time=0
EXTRACT: note_on channel=9 note=0 velocity=95 time=0
EXTRACT: note_on channel=9 note=44 velocity=95 time=0
EXTRACT: note_off channel=0 note=61 velocity=111 time=0.14150925
EXTRACT: note_off channel=0 note=57 velocity=95 time=0
EXTRACT: note_off channel=0 note=52 velocity=111 time=0
EXTRACT: note_off channel=0 note=45 velocity=111 time=0
EXTRACT: note_on channel=0 note=61 velocity=111 time=0
EXTRACT: note_on channel=0 note=57 velocity=111 time=0
EXTRACT: note_on channel=0 note=52 velocity=111 time=0
EXTRACT: note_on channel=0 note=45 velocity=111 time=0
EXTRACT: note_on channel=2 note=64 velocity=95 time=0
EXTRACT: note_on channel=4 note=73 velocity=95 time=0
EXTRACT: note_off channel=14 note=33 velocity=111 time=0
EXTRACT: note_on channel=14 note=33 velocity=111 time=0
EXTRACT: note_off channel=9 note=0 velocity=95 time=0
EXTRACT: note_off channel=9 note=44 velocity=95 time=0
EXTRACT: note_on channel=9 note=0 velocity=95 time=0
EXTRACT: note_on channel=9 note=40 velocity=95 time=0
EXTRACT: note_on channel=9 note=44 velocity=95 time=0
EXTRACT: note_off channel=4 note=73 velocity=95 time=0.14150925
EXTRACT: note_off channel=9 note=0 velocity=95 time=0
EXTRACT: note_off channel=9 note=40 velocity=95 time=0
EXTRACT: note_off channel=9 note=44 velocity=95 time=0
EXTRACT: note_off channel=0 note=61 velocity=111 time=0.14150925
EXTRACT: note_off channel=0 note=57 velocity=111 time=0
EXTRACT: note_off channel=0 note=52 velocity=111 time=0
EXTRACT: note_off channel=0 note=45 velocity=111 time=0
EXTRACT: note_on channel=0 note=59 velocity=95 time=0
EXTRACT: note_on channel=0 note=55 velocity=111 time=0
EXTRACT: note_on channel=0 note=50 velocity=111 time=0
EXTRACT: note_on channel=0 note=45 velocity=111 time=0
EXTRACT: note_off channel=2 note=64 velocity=95 time=0
EXTRACT: note_on channel=2 note=61 velocity=95 time=0
EXTRACT: note_on channel=4 note=69 velocity=95 time=0
EXTRACT: note_on channel=9 note=35 velocity=95 time=0
EXTRACT: note_on channel=9 note=44 velocity=95 time=0
EXTRACT: note_off channel=0 note=59 velocity=95 time=0.031249959375
EXTRACT: note_off channel=0 note=55 velocity=111 time=0
EXTRACT: note_off channel=0 note=50 velocity=111 time=0
EXTRACT: note_off channel=0 note=45 velocity=111 time=0
EXTRACT: note_on channel=0 note=64 velocity=111 time=0.110259290625
EXTRACT: note_on channel=0 note=59 velocity=111 time=0
EXTRACT: note_on channel=0 note=56 velocity=95 time=0
EXTRACT: note_on channel=0 note=52 velocity=111 time=0
EXTRACT: note_off channel=2 note=61 velocity=95 time=0
EXTRACT: note_on channel=2 note=62 velocity=95 time=0
EXTRACT: note_off channel=4 note=69 velocity=95 time=0
EXTRACT: note_on channel=4 note=71 velocity=95 time=0
EXTRACT: note_off channel=6 note=85 velocity=95 time=0
EXTRACT: note_off channel=6 note=81 velocity=95 time=0
EXTRACT: note_off channel=14 note=33 velocity=111 time=0
EXTRACT: note_on channel=14 note=40 velocity=111 time=0
EXTRACT: note_off channel=9 note=35 velocity=95 time=0
EXTRACT: note_off channel=9 note=44 velocity=95 time=0
EXTRACT: note_on channel=9 note=0 velocity=95 time=0
EXTRACT: note_on channel=9 note=35 velocity=95 time=0
EXTRACT: note_on channel=9 note=44 velocity=95 time=0
EXTRACT: note_off channel=0 note=64 velocity=111 time=0.14150925
EXTRACT: note_off channel=0 note=59 velocity=111 time=0
EXTRACT: note_off channel=0 note=56 velocity=95 time=0
EXTRACT: note_off channel=0 note=52 velocity=111 time=0
EXTRACT: note_on channel=6 note=83 velocity=95 time=0
EXTRACT: note_on channel=6 note=80 velocity=95 time=0
EXTRACT: note_off channel=14 note=40 velocity=111 time=0
EXTRACT: note_off channel=9 note=0 velocity=95 time=0
EXTRACT: note_off channel=9 note=35 velocity=95 time=0
EXTRACT: note_off channel=9 note=44 velocity=95 time=0
EXTRACT: note_on channel=9 note=0 velocity=95 time=0
EXTRACT: note_on channel=9 note=44 velocity=95 time=0
EXTRACT: note_on channel=0 note=64 velocity=95 time=0.14150925
EXTRACT: note_on channel=0 note=59 velocity=111 time=0
EXTRACT: note_on channel=0 note=56 velocity=111 time=0
EXTRACT: note_on channel=0 note=52 velocity=111 time=0
EXTRACT: note_off channel=2 note=62 velocity=95 time=0
EXTRACT: note_on channel=2 note=61 velocity=95 time=0
EXTRACT: note_off channel=4 note=71 velocity=95 time=0
EXTRACT: note_on channel=4 note=69 velocity=95 time=0
EXTRACT: note_on channel=14 note=40 velocity=111 time=0
EXTRACT: note_off channel=9 note=0 velocity=95 time=0
EXTRACT: note_off channel=9 note=44 velocity=95 time=0
EXTRACT: note_on channel=9 note=35 velocity=95 time=0
EXTRACT: note_off channel=0 note=64 velocity=95 time=0.14150925
EXTRACT: note_off channel=0 note=59 velocity=111 time=0
EXTRACT: note_off channel=0 note=56 velocity=111 time=0
EXTRACT: note_off channel=0 note=52 velocity=111 time=0
EXTRACT: note_on channel=0 note=64 velocity=111 time=0
EXTRACT: note_on channel=0 note=59 velocity=95 time=0
EXTRACT: note_on channel=0 note=56 velocity=111 time=0
EXTRACT: note_on channel=0 note=52 velocity=111 time=0
EXTRACT: note_on channel=0 note=47 velocity=111 time=0
EXTRACT: note_off channel=14 note=40 velocity=111 time=0
EXTRACT: note_on channel=14 note=40 velocity=111 time=0
EXTRACT: note_off channel=9 note=35 velocity=95 time=0
EXTRACT: note_on channel=9 note=0 velocity=95 time=0
EXTRACT: note_on channel=9 note=44 velocity=95 time=0
EXTRACT: note_off channel=9 note=0 velocity=95 time=0.14150925
EXTRACT: note_off channel=9 note=44 velocity=95 time=0
EXTRACT: note_on channel=9 note=0 velocity=95 time=0
EXTRACT: note_on channel=9 note=44 velocity=95 time=0
EXTRACT: note_off channel=0 note=64 velocity=111 time=0.14150925
EXTRACT: note_off channel=0 note=59 velocity=95 time=0
EXTRACT: note_off channel=0 note=56 velocity=111 time=0
EXTRACT: note_off channel=0 note=52 velocity=111 time=0
EXTRACT: note_off channel=0 note=47 velocity=111 time=0
EXTRACT: note_on channel=0 note=64 velocity=111 time=0
EXTRACT: note_on channel=0 note=59 velocity=111 time=0
EXTRACT: note_on channel=0 note=56 velocity=95 time=0
EXTRACT: note_on channel=0 note=52 velocity=111 time=0
EXTRACT: note_on channel=0 note=47 velocity=111 time=0
EXTRACT: note_off channel=4 note=69 velocity=95 time=0
EXTRACT: note_off channel=9 note=0 velocity=95 time=0
EXTRACT: note_off channel=9 note=44 velocity=95 time=0
EXTRACT: note_on channel=9 note=0 velocity=95 time=0
EXTRACT: note_on channel=9 note=40 velocity=95 time=0
EXTRACT: note_on channel=9 note=44 velocity=95 time=0
EXTRACT: note_off channel=2 note=61 velocity=95 time=0.14150925
EXTRACT: note_off channel=9 note=0 velocity=95 time=0
EXTRACT: note_off channel=9 note=40 velocity=95 time=0
EXTRACT: note_off channel=9 note=44 velocity=95 time=0
EXTRACT: note_off channel=0 note=64 velocity=111 time=0.14150925
EXTRACT: note_off channel=0 note=59 velocity=111 time=0
EXTRACT: note_off channel=0 note=56 velocity=95 time=0
EXTRACT: note_off channel=0 note=52 velocity=111 time=0
EXTRACT: note_off channel=0 note=47 velocity=111 time=0
EXTRACT: note_on channel=0 note=55 velocity=95 time=0
EXTRACT: note_on channel=0 note=50 velocity=111 time=0
EXTRACT: note_on channel=0 note=45 velocity=111 time=0
EXTRACT: note_on channel=9 note=35 velocity=95 time=0
EXTRACT: note_on channel=9 note=44 velocity=95 time=0
EXTRACT: note_off channel=0 note=55 velocity=95 time=0.14150925
EXTRACT: note_off channel=0 note=50 velocity=111 time=0
EXTRACT: note_off channel=0 note=45 velocity=111 time=0
EXTRACT: note_on channel=0 note=55 velocity=111 time=0
EXTRACT: note_on channel=0 note=50 velocity=111 time=0
EXTRACT: note_on channel=0 note=45 velocity=111 time=0
EXTRACT: note_off channel=6 note=83 velocity=95 time=0
EXTRACT: note_off channel=6 note=80 velocity=95 time=0
EXTRACT: note_off channel=9 note=35 velocity=95 time=0
EXTRACT: note_off channel=9 note=44 velocity=95 time=0
EXTRACT: note_on channel=9 note=0 velocity=95 time=0
EXTRACT: note_on channel=9 note=44 velocity=95 time=0
EXTRACT: note_off channel=0 note=55 velocity=111 time=0.14150925
EXTRACT: note_off channel=0 note=50 velocity=111 time=0
EXTRACT: note_off channel=0 note=45 velocity=111 time=0
EXTRACT: note_on channel=0 note=66 velocity=111 time=0
EXTRACT: note_on channel=0 note=62 velocity=111 time=0
EXTRACT: note_on channel=0 note=57 velocity=111 time=0
EXTRACT: note_on channel=0 note=50 velocity=111 time=0
EXTRACT: note_on channel=6 note=86 velocity=95 time=0
EXTRACT: note_on channel=6 note=81 velocity=95 time=0
EXTRACT: note_on channel=6 note=78 velocity=95 time=0
EXTRACT: note_off channel=14 note=40 velocity=111 time=0
EXTRACT: note_on channel=14 note=38 velocity=111 time=0
EXTRACT: note_off channel=9 note=0 velocity=95 time=0
EXTRACT: note_off channel=9 note=44 velocity=95 time=0
EXTRACT: note_on channel=9 note=0 velocity=95 time=0
EXTRACT: note_on channel=9 note=35 velocity=95 time=0
EXTRACT: note_on channel=9 note=44 velocity=95 time=0
EXTRACT: note_off channel=9 note=0 velocity=95 time=0.14150925
EXTRACT: note_off channel=9 note=35 velocity=95 time=0
EXTRACT: note_off channel=9 note=44 velocity=95 time=0
EXTRACT: note_off channel=14 note=38 velocity=111 time=0.14150925
EXTRACT: note_on channel=14 note=38 velocity=111 time=0
EXTRACT: note_on channel=9 note=44 velocity=95 time=0
EXTRACT: note_off channel=14 note=38 velocity=111 time=0.14150925
EXTRACT: note_on channel=14 note=38 velocity=111 time=0
EXTRACT: note_off channel=9 note=44 velocity=95 time=0
EXTRACT: note_on channel=9 note=0 velocity=95 time=0
EXTRACT: note_on channel=9 note=44 velocity=95 time=0
EXTRACT: note_off channel=0 note=66 velocity=111 time=0.14150925
EXTRACT: note_off channel=0 note=62 velocity=111 time=0
EXTRACT: note_off channel=0 note=57 velocity=111 time=0
EXTRACT: note_off channel=0 note=50 velocity=111 time=0
EXTRACT: note_on channel=0 note=66 velocity=95 time=0
EXTRACT: note_on channel=0 note=62 velocity=111 time=0
EXTRACT: note_on channel=0 note=57 velocity=111 time=0
EXTRACT: note_on channel=0 note=50 velocity=111 time=0
EXTRACT: note_on channel=4 note=73 velocity=95 time=0
EXTRACT: note_off channel=14 note=38 velocity=111 time=0
EXTRACT: note_on channel=14 note=38 velocity=111 time=0
EXTRACT: note_off channel=9 note=0 velocity=95 time=0
EXTRACT: note_off channel=9 note=44 velocity=95 time=0
EXTRACT: note_on channel=9 note=0 velocity=95 time=0
EXTRACT: note_on channel=9 note=40 velocity=95 time=0
EXTRACT: note_on channel=9 note=44 velocity=95 time=0
EXTRACT: note_off channel=9 note=0 velocity=95 time=0.14150925
EXTRACT: note_off channel=9 note=40 velocity=95 time=0
EXTRACT: note_off channel=9 note=44 velocity=95 time=0
EXTRACT: note_off channel=0 note=66 velocity=95 time=0.14150925
EXTRACT: note_off channel=0 note=62 velocity=111 time=0
EXTRACT: note_off channel=0 note=57 velocity=111 time=0
EXTRACT: note_off channel=0 note=50 velocity=111 time=0
EXTRACT: note_on channel=0 note=64 velocity=111 time=0
EXTRACT: note_on channel=0 note=59 velocity=95 time=0
EXTRACT: note_on channel=0 note=55 velocity=111 time=0
EXTRACT: note_on channel=0 note=50 velocity=111 time=0
EXTRACT: note_off channel=4 note=73 velocity=95 time=0
EXTRACT: note_on channel=4 note=69 velocity=95 time=0
EXTRACT: note_on channel=9 note=35 velocity=95 time=0
EXTRACT: note_on channel=9 note=44 velocity=95 time=0
EXTRACT: note_off channel=0 note=64 velocity=111 time=0.031249959375
EXTRACT: note_off channel=0 note=59 velocity=95 time=0
EXTRACT: note_off channel=0 note=55 velocity=111 time=0
EXTRACT: note_off channel=0 note=50 velocity=111 time=0
EXTRACT: note_on channel=0 note=64 velocity=111 time=0.110259290625
EXTRACT: note_on channel=0 note=59 velocity=111 time=0
EXTRACT: note_on channel=0 note=56 velocity=95 time=0
EXTRACT: note_on channel=0 note=52 velocity=111 time=0
EXTRACT: note_off channel=4 note=69 velocity=95 time=0
EXTRACT: note_on channel=4 note=71 velocity=95 time=0
EXTRACT: note_off channel=6 note=86 velocity=95 time=0
EXTRACT: note_off channel=6 note=81 velocity=95 time=0
EXTRACT: note_off channel=6 note=78 velocity=95 time=0
EXTRACT: note_off channel=14 note=38 velocity=111 time=0
EXTRACT: note_on channel=14 note=40 velocity=111 time=0
EXTRACT: note_off channel=9 note=35 velocity=95 time=0
EXTRACT: note_off channel=9 note=44 velocity=95 time=0
EXTRACT: note_on channel=9 note=0 velocity=95 time=0
EXTRACT: note_on channel=9 note=35 velocity=95 time=0
EXTRACT: note_on channel=9 note=44 velocity=95 time=0
EXTRACT: note_off channel=0 note=64 velocity=111 time=0.14150925
EXTRACT: note_off channel=0 note=59 velocity=111 time=0
EXTRACT: note_off channel=0 note=56 velocity=95 time=0
EXTRACT: note_off channel=0 note=52 velocity=111 time=0
EXTRACT: note_off channel=14 note=40 velocity=111 time=0
EXTRACT: note_off channel=9 note=0 velocity=95 time=0
EXTRACT: note_off channel=9 note=35 velocity=95 time=0
EXTRACT: note_off channel=9 note=44 velocity=95 time=0
EXTRACT: note_on channel=9 note=0 velocity=95 time=0
EXTRACT: note_on channel=9 note=44 velocity=95 time=0
EXTRACT: note_on channel=0 note=64 velocity=95 time=0.14150925
EXTRACT: note_on channel=0 note=59 velocity=111 time=0
EXTRACT: note_on channel=0 note=56 velocity=111 time=0
EXTRACT: note_on channel=0 note=52 velocity=111 time=0
EXTRACT: note_off channel=4 note=71 velocity=95 time=0
EXTRACT: note_on channel=6 note=88 velocity=95 time=0
EXTRACT: note_on channel=6 note=83 velocity=95 time=0
EXTRACT: note_on channel=14 note=40 velocity=111 time=0
EXTRACT: note_off channel=9 note=0 velocity=95 time=0
EXTRACT: note_off channel=9 note=44 velocity=95 time=0
EXTRACT: note_on channel=9 note=0 velocity=95 time=0
EXTRACT: note_on channel=9 note=44 velocity=95 time=0
EXTRACT: note_off channel=0 note=64 velocity=95 time=0.14150925
EXTRACT: note_off channel=0 note=59 velocity=111 time=0
EXTRACT: note_off channel=0 note=56 velocity=111 time=0
EXTRACT: note_off channel=0 note=52 velocity=111 time=0
EXTRACT: note_on channel=0 note=64 velocity=111 time=0
EXTRACT: note_on channel=0 note=59 velocity=95 time=0
EXTRACT: note_on channel=0 note=56 velocity=111 time=0
EXTRACT: note_on channel=0 note=52 velocity=111 time=0
EXTRACT: note_on channel=0 note=47 velocity=111 time=0
EXTRACT: note_on channel=4 note=71 velocity=95 time=0
EXTRACT: note_off channel=6 note=88 velocity=95 time=0
EXTRACT: note_off channel=6 note=83 velocity=95 time=0
EXTRACT: note_off channel=14 note=40 velocity=111 time=0
EXTRACT: note_on channel=14 note=40 velocity=111 time=0
EXTRACT: note_off channel=9 note=0 velocity=95 time=0
EXTRACT: note_off channel=9 note=44 velocity=95 time=0
EXTRACT: note_on channel=9 note=0 velocity=95 time=0
EXTRACT: note_on channel=9 note=35 velocity=95 time=0
EXTRACT: note_on channel=9 note=46 velocity=95 time=0
EXTRACT: note_off channel=4 note=71 velocity=95 time=0.14150925
EXTRACT: note_on channel=4 note=73 velocity=95 time=0
EXTRACT: note_off channel=9 note=0 velocity=95 time=0
EXTRACT: note_off channel=9 note=35 velocity=95 time=0
EXTRACT: note_off channel=9 note=46 velocity=95 time=0
EXTRACT: note_off channel=0 note=64 velocity=111 time=0.14150925
EXTRACT: note_off channel=0 note=59 velocity=95 time=0
EXTRACT: note_off channel=0 note=56 velocity=111 time=0
EXTRACT: note_off channel=0 note=52 velocity=111 time=0
EXTRACT: note_off channel=0 note=47 velocity=111 time=0
EXTRACT: note_on channel=0 note=64 velocity=111 time=0
EXTRACT: note_on channel=0 note=59 velocity=111 time=0
EXTRACT: note_on channel=0 note=56 velocity=95 time=0
EXTRACT: note_on channel=0 note=52 velocity=111 time=0
EXTRACT: note_on channel=0 note=47 velocity=111 time=0
EXTRACT: note_off channel=4 note=73 velocity=95 time=0
EXTRACT: note_on channel=4 note=71 velocity=95 time=0
EXTRACT: note_on channel=6 note=83 velocity=95 time=0
EXTRACT: note_on channel=6 note=80 velocity=95 time=0
EXTRACT: note_on channel=6 note=76 velocity=95 time=0
EXTRACT: note_on channel=9 note=40 velocity=95 time=0
EXTRACT: note_on channel=9 note=44 velocity=95 time=0
EXTRACT: note_off channel=4 note=71 velocity=95 time=0.14150925
EXTRACT: note_off channel=9 note=40 velocity=95 time=0
EXTRACT: note_off channel=9 note=44 velocity=95 time=0
EXTRACT: note_on channel=9 note=0 velocity=95 time=0
EXTRACT: note_on channel=9 note=44 velocity=95 time=0
EXTRACT: note_off channel=0 note=64 velocity=111 time=0.14150925
EXTRACT: note_off channel=0 note=59 velocity=111 time=0
EXTRACT: note_off channel=0 note=56 velocity=95 time=0
EXTRACT: note_off channel=0 note=52 velocity=111 time=0
EXTRACT: note_off channel=0 note=47 velocity=111 time=0
EXTRACT: note_on channel=0 note=55 velocity=95 time=0
EXTRACT: note_on channel=0 note=50 velocity=111 time=0
EXTRACT: note_on channel=0 note=45 velocity=111 time=0
EXTRACT: note_on channel=4 note=69 velocity=95 time=0
EXTRACT: note_off channel=9 note=0 velocity=95 time=0
EXTRACT: note_off channel=9 note=44 velocity=95 time=0
EXTRACT: note_on channel=9 note=35 velocity=95 time=0
EXTRACT: note_on channel=9 note=46 velocity=95 time=0
EXTRACT: note_off channel=0 note=55 velocity=95 time=0.14150925
EXTRACT: note_off channel=0 note=50 velocity=111 time=0
EXTRACT: note_off channel=0 note=45 velocity=111 time=0
EXTRACT: note_on channel=0 note=55 velocity=111 time=0
EXTRACT: note_on channel=0 note=50 velocity=111 time=0
EXTRACT: note_on channel=0 note=45 velocity=111 time=0
EXTRACT: note_off channel=6 note=83 velocity=95 time=0
EXTRACT: note_off channel=6 note=80 velocity=95 time=0
EXTRACT: note_off channel=6 note=76 velocity=95 time=0
EXTRACT: note_off channel=9 note=35 velocity=95 time=0
EXTRACT: note_off channel=9 note=46 velocity=95 time=0
EXTRACT: note_on channel=9 note=0 velocity=95 time=0
EXTRACT: note_on channel=9 note=35 velocity=95 time=0
EXTRACT: note_on channel=9 note=44 velocity=95 time=0
EXTRACT: note_off channel=0 note=55 velocity=111 time=0.14150925
EXTRACT: note_off channel=0 note=50 velocity=111 time=0
EXTRACT: note_off channel=0 note=45 velocity=111 time=0
EXTRACT: note_on channel=0 note=61 velocity=111 time=0
EXTRACT: note_on channel=0 note=57 velocity=95 time=0
EXTRACT: note_on channel=0 note=52 velocity=111 time=0
EXTRACT: note_on channel=0 note=45 velocity=111 time=0
EXTRACT: note_off channel=4 note=69 velocity=95 time=0
EXTRACT: note_on channel=6 note=85 velocity=95 time=0
EXTRACT: note_on channel=6 note=81 velocity=95 time=0
EXTRACT: note_on channel=6 note=76 velocity=95 time=0
EXTRACT: note_off channel=14 note=40 velocity=111 time=0
EXTRACT: note_on channel=14 note=33 velocity=111 time=0
EXTRACT: note_off channel=9 note=0 velocity=95 time=0
EXTRACT: note_off channel=9 note=35 velocity=95 time=0
EXTRACT: note_off channel=9 note=44 velocity=95 time=0
EXTRACT: note_on channel=9 note=0 velocity=95 time=0
EXTRACT: note_on channel=9 note=44 velocity=95 time=0
EXTRACT: note_off channel=14 note=33 velocity=111 time=0.2830185
EXTRACT: note_on channel=14 note=33 velocity=111 time=0
EXTRACT: note_off channel=9 note=0 velocity=95 time=0
EXTRACT: note_off channel=9 note=44 velocity=95 time=0
EXTRACT: note_on channel=9 note=0 velocity=95 time=0
EXTRACT: note_on channel=9 note=35 velocity=95 time=0
EXTRACT: note_on channel=9 note=44 velocity=95 time=0
EXTRACT: note_off channel=14 note=33 velocity=111 time=0.14150925
EXTRACT: note_on channel=14 note=33 velocity=111 time=0
EXTRACT: note_off channel=9 note=0 velocity=95 time=0
EXTRACT: note_off channel=9 note=35 velocity=95 time=0
EXTRACT: note_off channel=9 note=44 velocity=95 time=0
EXTRACT: note_off channel=0 note=61 velocity=111 time=0.14150925
EXTRACT: note_off channel=0 note=57 velocity=95 time=0
EXTRACT: note_off channel=0 note=52 velocity=111 time=0
EXTRACT: note_off channel=0 note=45 velocity=111 time=0
EXTRACT: note_on channel=0 note=61 velocity=111 time=0
EXTRACT: note_on channel=0 note=57 velocity=111 time=0
EXTRACT: note_on channel=0 note=52 velocity=111 time=0
EXTRACT: note_on channel=0 note=45 velocity=111 time=0
EXTRACT: note_on channel=2 note=64 velocity=95 time=0
EXTRACT: note_on channel=4 note=73 velocity=95 time=0
EXTRACT: note_off channel=14 note=33 velocity=111 time=0
EXTRACT: note_on channel=14 note=33 velocity=111 time=0
EXTRACT: note_on channel=9 note=40 velocity=95 time=0
EXTRACT: note_on channel=9 note=44 velocity=95 time=0
EXTRACT: note_off channel=9 note=40 velocity=95 time=0.14150925
EXTRACT: note_off channel=9 note=44 velocity=95 time=0
EXTRACT: note_off channel=0 note=61 velocity=111 time=0.14150925
EXTRACT: note_off channel=0 note=57 velocity=111 time=0
EXTRACT: note_off channel=0 note=52 velocity=111 time=0
EXTRACT: note_off channel=0 note=45 velocity=111 time=0
EXTRACT: note_on channel=0 note=59 velocity=95 time=0
EXTRACT: note_on channel=0 note=55 velocity=111 time=0
EXTRACT: note_on channel=0 note=50 velocity=111 time=0
EXTRACT: note_on channel=0 note=45 velocity=111 time=0
EXTRACT: note_off channel=2 note=64 velocity=95 time=0
EXTRACT: note_on channel=2 note=61 velocity=95 time=0
EXTRACT: note_off channel=4 note=73 velocity=95 time=0
EXTRACT: note_on channel=4 note=69 velocity=95 time=0
EXTRACT: note_on channel=9 note=35 velocity=95 time=0
EXTRACT: note_on channel=9 note=44 velocity=95 time=0
EXTRACT: note_off channel=0 note=59 velocity=95 time=0.031249959375
EXTRACT: note_off channel=0 note=55 velocity=111 time=0
EXTRACT: note_off channel=0 note=50 velocity=111 time=0
EXTRACT: note_off channel=0 note=45 velocity=111 time=0
EXTRACT: note_on channel=0 note=64 velocity=111 time=0.110259290625
EXTRACT: note_on channel=0 note=59 velocity=111 time=0
EXTRACT: note_on channel=0 note=56 velocity=95 time=0
EXTRACT: note_on channel=0 note=52 velocity=111 time=0
EXTRACT: note_off channel=2 note=61 velocity=95 time=0
EXTRACT: note_on channel=2 note=62 velocity=95 time=0
EXTRACT: note_off channel=4 note=69 velocity=95 time=0
EXTRACT: note_on channel=4 note=71 velocity=95 time=0
EXTRACT: note_off channel=6 note=85 velocity=95 time=0
EXTRACT: note_off channel=6 note=81 velocity=95 time=0
EXTRACT: note_off channel=6 note=76 velocity=95 time=0
EXTRACT: note_off channel=14 note=33 velocity=111 time=0
EXTRACT: note_on channel=14 note=40 velocity=111 time=0
EXTRACT: note_off channel=9 note=35 velocity=95 time=0
EXTRACT: note_off channel=9 note=44 velocity=95 time=0
EXTRACT: note_on channel=9 note=0 velocity=95 time=0
EXTRACT: note_on channel=9 note=35 velocity=95 time=0
EXTRACT: note_on channel=9 note=44 velocity=95 time=0
EXTRACT: note_off channel=0 note=64 velocity=111 time=0.14150925
EXTRACT: note_off channel=0 note=59 velocity=111 time=0
EXTRACT: note_off channel=0 note=56 velocity=95 time=0
EXTRACT: note_off channel=0 note=52 velocity=111 time=0
EXTRACT: note_on channel=6 note=83 velocity=95 time=0
EXTRACT: note_on channel=6 note=80 velocity=95 time=0
EXTRACT: note_on channel=6 note=76 velocity=95 time=0
EXTRACT: note_off channel=14 note=40 velocity=111 time=0
EXTRACT: note_off channel=9 note=0 velocity=95 time=0
EXTRACT: note_off channel=9 note=35 velocity=95 time=0
EXTRACT: note_off channel=9 note=44 velocity=95 time=0
EXTRACT: note_on channel=9 note=0 velocity=95 time=0
EXTRACT: note_on channel=9 note=44 velocity=95 time=0
EXTRACT: note_on channel=0 note=64 velocity=95 time=0.14150925
EXTRACT: note_on channel=0 note=59 velocity=111 time=0
EXTRACT: note_on channel=0 note=56 velocity=111 time=0
EXTRACT: note_on channel=0 note=52 velocity=111 time=0
EXTRACT: note_off channel=2 note=62 velocity=95 time=0
EXTRACT: note_on channel=2 note=61 velocity=95 time=0
EXTRACT: note_off channel=4 note=71 velocity=95 time=0
EXTRACT: note_on channel=4 note=69 velocity=95 time=0
EXTRACT: note_on channel=14 note=40 velocity=111 time=0
EXTRACT: note_off channel=9 note=0 velocity=95 time=0
EXTRACT: note_off channel=9 note=44 velocity=95 time=0
EXTRACT: note_off channel=0 note=64 velocity=95 time=0.14150925
EXTRACT: note_off channel=0 note=59 velocity=111 time=0
EXTRACT: note_off channel=0 note=56 velocity=111 time=0
EXTRACT: note_off channel=0 note=52 velocity=111 time=0
EXTRACT: note_on channel=0 note=64 velocity=111 time=0
EXTRACT: note_on channel=0 note=59 velocity=95 time=0
EXTRACT: note_on channel=0 note=56 velocity=111 time=0
EXTRACT: note_on channel=0 note=52 velocity=111 time=0
EXTRACT: note_on channel=0 note=47 velocity=111 time=0
EXTRACT: note_off channel=14 note=40 velocity=111 time=0
EXTRACT: note_on channel=14 note=40 velocity=111 time=0
EXTRACT: note_on channel=9 note=35 velocity=95 time=0
EXTRACT: note_on channel=9 note=36 velocity=95 time=0
EXTRACT: note_on channel=9 note=44 velocity=95 time=0
EXTRACT: note_off channel=4 note=69 velocity=95 time=0.14150925
EXTRACT: note_off channel=9 note=35 velocity=95 time=0
EXTRACT: note_off channel=9 note=36 velocity=95 time=0
EXTRACT: note_off channel=9 note=44 velocity=95 time=0
EXTRACT: note_off channel=0 note=64 velocity=111 time=0.14150925
EXTRACT: note_off channel=0 note=59 velocity=95 time=0
EXTRACT: note_off channel=0 note=56 velocity=111 time=0
EXTRACT: note_off channel=0 note=52 velocity=111 time=0
EXTRACT: note_off channel=0 note=47 velocity=111 time=0
EXTRACT: note_on channel=0 note=64 velocity=111 time=0
EXTRACT: note_on channel=0 note=59 velocity=111 time=0
EXTRACT: note_on channel=0 note=56 velocity=95 time=0
EXTRACT: note_on channel=0 note=52 velocity=111 time=0
EXTRACT: note_on channel=0 note=47 velocity=111 time=0
EXTRACT: note_off channel=2 note=61 velocity=95 time=0
EXTRACT: note_on channel=4 note=69 velocity=95 time=0
EXTRACT: note_on channel=9 note=40 velocity=95 time=0
EXTRACT: note_on channel=9 note=44 velocity=95 time=0
EXTRACT: note_off channel=9 note=40 velocity=95 time=0.14150925
EXTRACT: note_off channel=9 note=44 velocity=95 time=0
EXTRACT: note_off channel=0 note=64 velocity=111 time=0.14150925
EXTRACT: note_off channel=0 note=59 velocity=111 time=0
EXTRACT: note_off channel=0 note=56 velocity=95 time=0
EXTRACT: note_off channel=0 note=52 velocity=111 time=0
EXTRACT: note_off channel=0 note=47 velocity=111 time=0
EXTRACT: note_on channel=0 note=55 velocity=95 time=0
EXTRACT: note_on channel=0 note=50 velocity=111 time=0
EXTRACT: note_on channel=0 note=45 velocity=111 time=0
EXTRACT: note_off channel=4 note=69 velocity=95 time=0
EXTRACT: note_on channel=4 note=66 velocity=95 time=0
EXTRACT: note_on channel=9 note=35 velocity=95 time=0
EXTRACT: note_on channel=9 note=44 velocity=95 time=0
EXTRACT: note_off channel=0 note=55 velocity=95 time=0.14150925
EXTRACT: note_off channel=0 note=50 velocity=111 time=0
EXTRACT: note_off channel=0 note=45 velocity=111 time=0
EXTRACT: note_on channel=0 note=55 velocity=111 time=0
EXTRACT: note_on channel=0 note=50 velocity=111 time=0
EXTRACT: note_on channel=0 note=45 velocity=111 time=0
EXTRACT: note_off channel=4 note=66 velocity=95 time=0
EXTRACT: note_on channel=4 note=64 velocity=95 time=0
EXTRACT: note_off channel=6 note=83 velocity=95 time=0
EXTRACT: note_off channel=6 note=80 velocity=95 time=0
EXTRACT: note_off channel=6 note=76 velocity=95 time=0
EXTRACT: note_off channel=9 note=35 velocity=95 time=0
EXTRACT: note_off channel=9 note=44 velocity=95 time=0
EXTRACT: note_on channel=9 note=0 velocity=95 time=0
EXTRACT: note_on channel=9 note=35 velocity=95 time=0
EXTRACT: note_on channel=9 note=44 velocity=95 time=0
EXTRACT: note_off channel=0 note=55 velocity=111 time=0.14150925
EXTRACT: note_off channel=0 note=50 velocity=111 time=0
EXTRACT: note_off channel=0 note=45 velocity=111 time=0
EXTRACT: note_on channel=0 note=66 velocity=111 time=0
EXTRACT: note_on channel=0 note=62 velocity=111 time=0
EXTRACT: note_on channel=0 note=57 velocity=111 time=0
EXTRACT: note_on channel=0 note=50 velocity=111 time=0
EXTRACT: note_off channel=4 note=64 velocity=95 time=0
EXTRACT: note_on channel=6 note=86 velocity=95 time=0
EXTRACT: note_on channel=6 note=81 velocity=95 time=0
EXTRACT: note_on channel=6 note=78 velocity=95 time=0
EXTRACT: note_off channel=14 note=40 velocity=111 time=0
EXTRACT: note_on channel=14 note=38 velocity=111 time=0
EXTRACT: note_off channel=9 note=0 velocity=95 time=0
EXTRACT: note_off channel=9 note=35 velocity=95 time=0
EXTRACT: note_off channel=9 note=44 velocity=95 time=0
EXTRACT: note_on channel=9 note=0 velocity=95 time=0
EXTRACT: note_on channel=9 note=44 velocity=95 time=0
EXTRACT: note_off channel=9 note=0 velocity=95 time=0.14150925
EXTRACT: note_off channel=9 note=44 velocity=95 time=0
EXTRACT: note_off channel=14 note=38 velocity=111 time=0.14150925
EXTRACT: note_on channel=14 note=38 velocity=111 time=0
EXTRACT: note_on channel=9 note=35 velocity=95 time=0
EXTRACT: note_on channel=9 note=44 velocity=95 time=0
EXTRACT: note_on channel=4 note=69 velocity=95 time=0.14150925
EXTRACT: note_off channel=14 note=38 velocity=111 time=0
EXTRACT: note_on channel=14 note=38 velocity=111 time=0
EXTRACT: note_off channel=9 note=35 velocity=95 time=0
EXTRACT: note_off channel=9 note=44 velocity=95 time=0
EXTRACT: note_off channel=0 note=66 velocity=111 time=0.14150925
EXTRACT: note_off channel=0 note=62 velocity=111 time=0
EXTRACT: note_off channel=0 note=57 velocity=111 time=0
EXTRACT: note_off channel=0 note=50 velocity=111 time=0
EXTRACT: note_on channel=0 note=66 velocity=95 time=0
EXTRACT: note_on channel=0 note=62 velocity=111 time=0
EXTRACT: note_on channel=0 note=57 velocity=111 time=0
EXTRACT: note_on channel=0 note=50 velocity=111 time=0
EXTRACT: note_off channel=4 note=69 velocity=95 time=0
EXTRACT: note_on channel=4 note=73 velocity=95 time=0
EXTRACT: note_off channel=14 note=38 velocity=111 time=0
EXTRACT: note_on channel=14 note=38 velocity=111 time=0
EXTRACT: note_on channel=9 note=40 velocity=95 time=0
EXTRACT: note_on channel=9 note=44 velocity=95 time=0
EXTRACT: note_off channel=9 note=40 velocity=95 time=0.14150925
EXTRACT: note_off channel=9 note=44 velocity=95 time=0
EXTRACT: note_off channel=0 note=66 velocity=95 time=0.14150925
EXTRACT: note_off channel=0 note=62 velocity=111 time=0
EXTRACT: note_off channel=0 note=57 velocity=111 time=0
EXTRACT: note_off channel=0 note=50 velocity=111 time=0
EXTRACT: note_on channel=0 note=64 velocity=111 time=0
EXTRACT: note_on channel=0 note=59 velocity=95 time=0
EXTRACT: note_on channel=0 note=55 velocity=111 time=0
EXTRACT: note_on channel=0 note=50 velocity=111 time=0
EXTRACT: note_off channel=4 note=73 velocity=95 time=0
EXTRACT: note_on channel=4 note=69 velocity=95 time=0
EXTRACT: note_on channel=9 note=35 velocity=95 time=0
EXTRACT: note_on channel=9 note=44 velocity=95 time=0
EXTRACT: note_off channel=0 note=64 velocity=111 time=0.031249959375
EXTRACT: note_off channel=0 note=59 velocity=95 time=0
EXTRACT: note_off channel=0 note=55 velocity=111 time=0
EXTRACT: note_off channel=0 note=50 velocity=111 time=0
EXTRACT: note_on channel=0 note=64 velocity=111 time=0.110259290625
EXTRACT: note_on channel=0 note=59 velocity=111 time=0
EXTRACT: note_on channel=0 note=56 velocity=95 time=0
EXTRACT: note_on channel=0 note=52 velocity=111 time=0
EXTRACT: note_off channel=4 note=69 velocity=95 time=0
EXTRACT: note_on channel=4 note=71 velocity=95 time=0
EXTRACT: note_off channel=6 note=86 velocity=95 time=0
EXTRACT: note_off channel=6 note=81 velocity=95 time=0
EXTRACT: note_off channel=6 note=78 velocity=95 time=0
EXTRACT: note_off channel=14 note=38 velocity=111 time=0
EXTRACT: note_on channel=14 note=40 velocity=111 time=0
EXTRACT: note_off channel=9 note=35 velocity=95 time=0
EXTRACT: note_off channel=9 note=44 velocity=95 time=0
EXTRACT: note_on channel=9 note=0 velocity=95 time=0
EXTRACT: note_on channel=9 note=35 velocity=95 time=0
EXTRACT: note_on channel=9 note=44 velocity=95 time=0
EXTRACT: note_off channel=0 note=64 velocity=111 time=0.14150925
EXTRACT: note_off channel=0 note=59 velocity=111 time=0
EXTRACT: note_off channel=0 note=56 velocity=95 time=0
EXTRACT: note_off channel=0 note=52 velocity=111 time=0
EXTRACT: note_off channel=14 note=40 velocity=111 time=0
EXTRACT: note_off channel=9 note=0 velocity=95 time=0
EXTRACT: note_off channel=9 note=35 velocity=95 time=0
EXTRACT: note_off channel=9 note=44 velocity=95 time=0
EXTRACT: note_on channel=9 note=0 velocity=95 time=0
EXTRACT: note_on channel=9 note=44 velocity=95 time=0
EXTRACT: note_on channel=0 note=64 velocity=95 time=0.14150925
EXTRACT: note_on channel=0 note=59 velocity=111 time=0
EXTRACT: note_on channel=0 note=56 velocity=111 time=0
EXTRACT: note_on channel=0 note=52 velocity=111 time=0
EXTRACT: note_on channel=6 note=88 velocity=95 time=0
EXTRACT: note_on channel=6 note=83 velocity=95 time=0
EXTRACT: note_on channel=14 note=40 velocity=111 time=0
EXTRACT: note_off channel=9 note=0 velocity=95 time=0
EXTRACT: note_off channel=9 note=44 velocity=95 time=0
EXTRACT: note_on channel=9 note=0 velocity=95 time=0
EXTRACT: note_on channel=9 note=35 velocity=95 time=0
EXTRACT: note_on channel=9 note=44 velocity=95 time=0
EXTRACT: note_on channel=9 note=48 velocity=95 time=0
EXTRACT: note_off channel=0 note=64 velocity=95 time=0.14150925
EXTRACT: note_off channel=0 note=59 velocity=111 time=0
EXTRACT: note_off channel=0 note=56 velocity=111 time=0
EXTRACT: note_off channel=0 note=52 velocity=111 time=0
EXTRACT: note_on channel=0 note=64 velocity=111 time=0
EXTRACT: note_on channel=0 note=59 velocity=95 time=0
EXTRACT: note_on channel=0 note=56 velocity=111 time=0
EXTRACT: note_on channel=0 note=52 velocity=111 time=0
EXTRACT: note_on channel=0 note=47 velocity=111 time=0
EXTRACT: note_off channel=4 note=71 velocity=95 time=0
EXTRACT: note_on channel=4 note=69 velocity=95 time=0
EXTRACT: note_off channel=6 note=88 velocity=95 time=0
EXTRACT: note_off channel=6 note=83 velocity=95 time=0
EXTRACT: note_off channel=14 note=40 velocity=111 time=0
EXTRACT: note_on channel=14 note=40 velocity=111 time=0
EXTRACT: note_off channel=9 note=0 velocity=95 time=0
EXTRACT: note_off channel=9 note=35 velocity=95 time=0
EXTRACT: note_off channel=9 note=44 velocity=95 time=0
EXTRACT: note_off channel=9 note=48 velocity=95 time=0
EXTRACT: note_on channel=9 note=0 velocity=95 time=0
EXTRACT: note_on channel=9 note=44 velocity=95 time=0
EXTRACT: note_on channel=9 note=45 velocity=95 time=0
EXTRACT: note_off channel=4 note=69 velocity=95 time=0.14150925
EXTRACT: note_on channel=6 note=76 velocity=95 time=0
EXTRACT: note_off channel=9 note=0 velocity=95 time=0
EXTRACT: note_off channel=9 note=44 velocity=95 time=0
EXTRACT: note_off channel=9 note=45 velocity=95 time=0
EXTRACT: note_off channel=0 note=64 velocity=111 time=0.14150925
EXTRACT: note_off channel=0 note=59 velocity=95 time=0
EXTRACT: note_off channel=0 note=56 velocity=111 time=0
EXTRACT: note_off channel=0 note=52 velocity=111 time=0
EXTRACT: note_off channel=0 note=47 velocity=111 time=0
EXTRACT: note_on channel=0 note=64 velocity=111 time=0
EXTRACT: note_on channel=0 note=59 velocity=111 time=0
EXTRACT: note_on channel=0 note=56 velocity=95 time=0
EXTRACT: note_on channel=0 note=52 velocity=111 time=0
EXTRACT: note_on channel=0 note=47 velocity=111 time=0
EXTRACT: note_on channel=4 note=69 velocity=95 time=0
EXTRACT: note_off channel=6 note=76 velocity=95 time=0
EXTRACT: note_on channel=6 note=88 velocity=95 time=0
EXTRACT: note_on channel=6 note=83 velocity=95 time=0
EXTRACT: note_on channel=9 note=40 velocity=95 time=0
EXTRACT: note_on channel=9 note=44 velocity=95 time=0
EXTRACT: note_on channel=9 note=47 velocity=95 time=0
EXTRACT: note_off channel=4 note=69 velocity=95 time=0.14150925
EXTRACT: note_on channel=4 note=71 velocity=95 time=0
EXTRACT: note_off channel=9 note=40 velocity=95 time=0
EXTRACT: note_off channel=9 note=44 velocity=95 time=0
EXTRACT: note_off channel=9 note=47 velocity=95 time=0
EXTRACT: note_off channel=0 note=64 velocity=111 time=0.14150925
EXTRACT: note_off channel=0 note=59 velocity=111 time=0
EXTRACT: note_off channel=0 note=56 velocity=95 time=0
EXTRACT: note_off channel=0 note=52 velocity=111 time=0
EXTRACT: note_off channel=0 note=47 velocity=111 time=0
EXTRACT: note_on channel=0 note=55 velocity=95 time=0
EXTRACT: note_on channel=0 note=50 velocity=111 time=0
EXTRACT: note_on channel=0 note=45 velocity=111 time=0
EXTRACT: note_off channel=4 note=71 velocity=95 time=0
EXTRACT: note_on channel=4 note=73 velocity=95 time=0
EXTRACT: note_off channel=6 note=88 velocity=95 time=0
EXTRACT: note_off channel=6 note=83 velocity=95 time=0
EXTRACT: note_on channel=6 note=76 velocity=95 time=0
EXTRACT: note_on channel=9 note=35 velocity=95 time=0
EXTRACT: note_on channel=9 note=43 velocity=95 time=0
EXTRACT: note_on channel=9 note=44 velocity=95 time=0
EXTRACT: note_off channel=0 note=55 velocity=95 time=0.14150925
EXTRACT: note_off channel=0 note=50 velocity=111 time=0
EXTRACT: note_off channel=0 note=45 velocity=111 time=0
EXTRACT: note_on channel=0 note=55 velocity=111 time=0
EXTRACT: note_on channel=0 note=50 velocity=111 time=0
EXTRACT: note_on channel=0 note=45 velocity=111 time=0
EXTRACT: note_off channel=4 note=73 velocity=95 time=0
EXTRACT: note_on channel=4 note=73 velocity=95 time=0
EXTRACT: note_off channel=6 note=76 velocity=95 time=0
EXTRACT: note_off channel=9 note=35 velocity=95 time=0
EXTRACT: note_off channel=9 note=43 velocity=95 time=0
EXTRACT: note_off channel=9 note=44 velocity=95 time=0
EXTRACT: note_on channel=9 note=0 velocity=95 time=0
EXTRACT: note_on channel=9 note=43 velocity=95 time=0
EXTRACT: note_on channel=9 note=46 velocity=95 time=0
EXTRACT: note_off channel=0 note=55 velocity=111 time=0.14150925
EXTRACT: note_off channel=0 note=50 velocity=111 time=0
EXTRACT: note_off channel=0 note=45 velocity=111 time=0
EXTRACT: note_on channel=0 note=61 velocity=111 time=0
EXTRACT: note_on channel=0 note=57 velocity=95 time=0
EXTRACT: note_on channel=0 note=52 velocity=111 time=0
EXTRACT: note_on channel=0 note=45 velocity=111 time=0
EXTRACT: note_on channel=6 note=85 velocity=95 time=0
EXTRACT: note_on channel=6 note=81 velocity=95 time=0
EXTRACT: note_on channel=6 note=76 velocity=95 time=0
EXTRACT: note_off channel=14 note=40 velocity=111 time=0
EXTRACT: note_on channel=14 note=33 velocity=111 time=0
EXTRACT: note_off channel=9 note=0 velocity=95 time=0
EXTRACT: note_off channel=9 note=43 velocity=95 time=0
EXTRACT: note_off channel=9 note=46 velocity=95 time=0
EXTRACT: note_on channel=9 note=0 velocity=95 time=0
EXTRACT: note_on channel=9 note=35 velocity=95 time=0
EXTRACT: note_on channel=9 note=44 velocity=95 time=0
EXTRACT: note_on channel=9 note=49 velocity=95 time=0
EXTRACT: note_on channel=9 note=55 velocity=95 time=0
EXTRACT: note_off channel=9 note=0 velocity=95 time=0.14150925
EXTRACT: note_off channel=9 note=35 velocity=95 time=0
EXTRACT: note_off channel=9 note=44 velocity=95 time=0
EXTRACT: note_off channel=9 note=49 velocity=95 time=0
EXTRACT: note_off channel=9 note=55 velocity=95 time=0
EXTRACT: note_off channel=4 note=73 velocity=95 time=0.14150925
EXTRACT: note_on channel=9 note=35 velocity=95 time=0
EXTRACT: note_on channel=9 note=44 velocity=95 time=0
EXTRACT: note_off channel=9 note=35 velocity=95 time=0.14150925
EXTRACT: note_off channel=9 note=44 velocity=95 time=0
EXTRACT: note_off channel=0 note=61 velocity=111 time=0.14150925
EXTRACT: note_off channel=0 note=57 velocity=95 time=0
EXTRACT: note_off channel=0 note=52 velocity=111 time=0
EXTRACT: note_off channel=0 note=45 velocity=111 time=0
EXTRACT: note_on channel=0 note=61 velocity=111 time=0
EXTRACT: note_on channel=0 note=57 velocity=111 time=0
EXTRACT: note_on channel=0 note=52 velocity=111 time=0
EXTRACT: note_on channel=0 note=45 velocity=111 time=0
EXTRACT: note_on channel=2 note=64 velocity=95 time=0
EXTRACT: note_on channel=4 note=73 velocity=95 time=0
EXTRACT: note_on channel=9 note=40 velocity=95 time=0
EXTRACT: note_on channel=9 note=44 velocity=95 time=0
EXTRACT: note_off channel=9 note=40 velocity=95 time=0.14150925
EXTRACT: note_off channel=9 note=44 velocity=95 time=0
EXTRACT: note_off channel=0 note=61 velocity=111 time=0.14150925
EXTRACT: note_off channel=0 note=57 velocity=111 time=0
EXTRACT: note_off channel=0 note=52 velocity=111 time=0
EXTRACT: note_off channel=0 note=45 velocity=111 time=0
EXTRACT: note_on channel=0 note=59 velocity=95 time=0
EXTRACT: note_on channel=0 note=55 velocity=111 time=0
EXTRACT: note_on channel=0 note=50 velocity=111 time=0
EXTRACT: note_on channel=0 note=45 velocity=111 time=0
EXTRACT: note_off channel=2 note=64 velocity=95 time=0
EXTRACT: note_on channel=2 note=61 velocity=95 time=0
EXTRACT: note_off channel=4 note=73 velocity=95 time=0
EXTRACT: note_on channel=4 note=69 velocity=95 time=0
EXTRACT: note_on channel=9 note=35 velocity=95 time=0
EXTRACT: note_on channel=9 note=44 velocity=95 time=0
EXTRACT: note_off channel=0 note=59 velocity=95 time=0.031249959375
EXTRACT: note_off channel=0 note=55 velocity=111 time=0
EXTRACT: note_off channel=0 note=50 velocity=111 time=0
EXTRACT: note_off channel=0 note=45 velocity=111 time=0
EXTRACT: note_on channel=0 note=64 velocity=111 time=0.110259290625
EXTRACT: note_on channel=0 note=59 velocity=111 time=0
EXTRACT: note_on channel=0 note=56 velocity=95 time=0
EXTRACT: note_on channel=0 note=52 velocity=111 time=0
EXTRACT: note_off channel=2 note=61 velocity=95 time=0
EXTRACT: note_on channel=2 note=62 velocity=95 time=0
EXTRACT: note_off channel=4 note=69 velocity=95 time=0
EXTRACT: note_on channel=4 note=71 velocity=95 time=0
EXTRACT: note_off channel=6 note=85 velocity=95 time=0
EXTRACT: note_off channel=6 note=81 velocity=95 time=0
EXTRACT: note_off channel=6 note=76 velocity=95 time=0
EXTRACT: note_off channel=9 note=35 velocity=95 time=0
EXTRACT: note_off channel=9 note=44 velocity=95 time=0
EXTRACT: note_on channel=9 note=0 velocity=95 time=0
EXTRACT: note_on channel=9 note=35 velocity=95 time=0
EXTRACT: note_on channel=9 note=44 velocity=95 time=0
EXTRACT: note_off channel=0 note=64 velocity=111 time=0.14150925
EXTRACT: note_off channel=0 note=59 velocity=111 time=0
EXTRACT: note_off channel=0 note=56 velocity=95 time=0
EXTRACT: note_off channel=0 note=52 velocity=111 time=0
EXTRACT: note_off channel=14 note=33 velocity=111 time=0
EXTRACT: note_on channel=14 note=40 velocity=111 time=0
EXTRACT: note_off channel=9 note=0 velocity=95 time=0
EXTRACT: note_off channel=9 note=35 velocity=95 time=0
EXTRACT: note_off channel=9 note=44 velocity=95 time=0
EXTRACT: note_on channel=9 note=0 velocity=95 time=0
EXTRACT: note_on channel=9 note=44 velocity=95 time=0
EXTRACT: note_on channel=0 note=64 velocity=95 time=0.14150925
EXTRACT: note_on channel=0 note=59 velocity=111 time=0
EXTRACT: note_on channel=0 note=56 velocity=111 time=0
EXTRACT: note_on channel=0 note=52 velocity=111 time=0
EXTRACT: note_off channel=2 note=62 velocity=95 time=0
EXTRACT: note_on channel=2 note=64 velocity=95 time=0
EXTRACT: note_off channel=4 note=71 velocity=95 time=0
EXTRACT: note_on channel=4 note=73 velocity=95 time=0
EXTRACT: note_on channel=6 note=83 velocity=95 time=0
EXTRACT: note_on channel=6 note=80 velocity=95 time=0
EXTRACT: note_off channel=0 note=64 velocity=95 time=0.14150925
EXTRACT: note_off channel=0 note=59 velocity=111 time=0
EXTRACT: note_off channel=0 note=56 velocity=111 time=0
EXTRACT: note_off channel=0 note=52 velocity=111 time=0
EXTRACT: note_on channel=0 note=64 velocity=111 time=0
EXTRACT: note_on channel=0 note=59 velocity=95 time=0
EXTRACT: note_on channel=0 note=56 velocity=111 time=0
EXTRACT: note_on channel=0 note=52 velocity=111 time=0
EXTRACT: note_on channel=0 note=47 velocity=111 time=0
EXTRACT: note_off channel=6 note=83 velocity=95 time=0
EXTRACT: note_off channel=6 note=80 velocity=95 time=0
EXTRACT: note_off channel=9 note=0 velocity=95 time=0
EXTRACT: note_off channel=9 note=44 velocity=95 time=0
EXTRACT: note_on channel=9 note=0 velocity=95 time=0
EXTRACT: note_on channel=9 note=35 velocity=95 time=0
EXTRACT: note_on channel=9 note=44 velocity=95 time=0
EXTRACT: note_off channel=9 note=0 velocity=95 time=0.14150925
EXTRACT: note_off channel=9 note=35 velocity=95 time=0
EXTRACT: note_off channel=9 note=44 velocity=95 time=0
EXTRACT: note_off channel=0 note=64 velocity=111 time=0.14150925
EXTRACT: note_off channel=0 note=59 velocity=95 time=0
EXTRACT: note_off channel=0 note=56 velocity=111 time=0
EXTRACT: note_off channel=0 note=52 velocity=111 time=0
EXTRACT: note_off channel=0 note=47 velocity=111 time=0
EXTRACT: note_on channel=0 note=64 velocity=111 time=0
EXTRACT: note_on channel=0 note=59 velocity=111 time=0
EXTRACT: note_on channel=0 note=56 velocity=95 time=0
EXTRACT: note_on channel=0 note=52 velocity=111 time=0
EXTRACT: note_on channel=0 note=47 velocity=111 time=0
EXTRACT: note_off channel=4 note=73 velocity=95 time=0
EXTRACT: note_on channel=6 note=83 velocity=95 time=0
EXTRACT: note_on channel=6 note=80 velocity=95 time=0
EXTRACT: note_on channel=9 note=40 velocity=95 time=0
EXTRACT: note_on channel=9 note=44 velocity=95 time=0
EXTRACT: note_off channel=2 note=64 velocity=95 time=0.14150925
EXTRACT: note_off channel=9 note=40 velocity=95 time=0
EXTRACT: note_off channel=9 note=44 velocity=95 time=0
EXTRACT: note_off channel=0 note=64 velocity=111 time=0.14150925
EXTRACT: note_off channel=0 note=59 velocity=111 time=0
EXTRACT: note_off channel=0 note=56 velocity=95 time=0
EXTRACT: note_off channel=0 note=52 velocity=111 time=0
EXTRACT: note_off channel=0 note=47 velocity=111 time=0
EXTRACT: note_on channel=0 note=55 velocity=95 time=0
EXTRACT: note_on channel=0 note=50 velocity=111 time=0
EXTRACT: note_on channel=0 note=45 velocity=111 time=0
EXTRACT: note_on channel=2 note=57 velocity=95 time=0
EXTRACT: note_off channel=6 note=83 velocity=95 time=0
EXTRACT: note_off channel=6 note=80 velocity=95 time=0
EXTRACT: note_on channel=6 note=76 velocity=95 time=0
EXTRACT: note_on channel=9 note=35 velocity=95 time=0
EXTRACT: note_on channel=9 note=44 velocity=95 time=0
EXTRACT: note_off channel=0 note=55 velocity=95 time=0.14150925
EXTRACT: note_off channel=0 note=50 velocity=111 time=0
EXTRACT: note_off channel=0 note=45 velocity=111 time=0
EXTRACT: note_on channel=0 note=55 velocity=111 time=0
EXTRACT: note_on channel=0 note=50 velocity=111 time=0
EXTRACT: note_on channel=0 note=45 velocity=111 time=0
EXTRACT: note_off channel=2 note=57 velocity=95 time=0
EXTRACT: note_on channel=2 note=57 velocity=95 time=0
EXTRACT: note_off channel=9 note=35 velocity=95 time=0
EXTRACT: note_off channel=9 note=44 velocity=95 time=0
EXTRACT: note_on channel=9 note=0 velocity=95 time=0
EXTRACT: note_on channel=9 note=35 velocity=95 time=0
EXTRACT: note_on channel=9 note=44 velocity=95 time=0
EXTRACT: note_off channel=0 note=55 velocity=111 time=0.14150925
EXTRACT: note_off channel=0 note=50 velocity=111 time=0
EXTRACT: note_off channel=0 note=45 velocity=111 time=0
EXTRACT: note_on channel=0 note=66 velocity=111 time=0
EXTRACT: note_on channel=0 note=62 velocity=111 time=0
EXTRACT: note_on channel=0 note=57 velocity=111 time=0
EXTRACT: note_on channel=0 note=50 velocity=111 time=0
EXTRACT: note_off channel=2 note=57 velocity=95 time=0
EXTRACT: note_on channel=2 note=61 velocity=95 time=0
EXTRACT: note_off channel=6 note=76 velocity=95 time=0
EXTRACT: note_on channel=6 note=86 velocity=95 time=0
EXTRACT: note_on channel=6 note=81 velocity=95 time=0
EXTRACT: note_on channel=6 note=78 velocity=95 time=0
EXTRACT: note_off channel=14 note=40 velocity=111 time=0
EXTRACT: note_on channel=14 note=38 velocity=111 time=0
EXTRACT: note_off channel=9 note=0 velocity=95 time=0
EXTRACT: note_off channel=9 note=35 velocity=95 time=0
EXTRACT: note_off channel=9 note=44 velocity=95 time=0
EXTRACT: note_on channel=9 note=0 velocity=95 time=0
EXTRACT: note_on channel=9 note=44 velocity=95 time=0
EXTRACT: note_off channel=2 note=61 velocity=95 time=0.2830185
EXTRACT: note_on channel=2 note=64 velocity=95 time=0
EXTRACT: note_off channel=9 note=0 velocity=95 time=0
EXTRACT: note_off channel=9 note=44 velocity=95 time=0
EXTRACT: note_on channel=9 note=0 velocity=95 time=0
EXTRACT: note_on channel=9 note=35 velocity=95 time=0
EXTRACT: note_on channel=9 note=44 velocity=95 time=0
EXTRACT: note_off channel=2 note=64 velocity=95 time=0.14150925
EXTRACT: note_off channel=9 note=0 velocity=95 time=0
EXTRACT: note_off channel=9 note=35 velocity=95 time=0
EXTRACT: note_off channel=9 note=44 velocity=95 time=0
EXTRACT: note_off channel=0 note=66 velocity=111 time=0.14150925
EXTRACT: note_off channel=0 note=62 velocity=111 time=0
EXTRACT: note_off channel=0 note=57 velocity=111 time=0
EXTRACT: note_off channel=0 note=50 velocity=111 time=0
EXTRACT: note_on channel=0 note=66 velocity=95 time=0
EXTRACT: note_on channel=0 note=62 velocity=111 time=0
EXTRACT: note_on channel=0 note=57 velocity=111 time=0
EXTRACT: note_on channel=0 note=50 velocity=111 time=0
EXTRACT: note_on channel=2 note=64 velocity=95 time=0
EXTRACT: note_on channel=4 note=73 velocity=95 time=0
EXTRACT: note_on channel=9 note=40 velocity=95 time=0
EXTRACT: note_on channel=9 note=44 velocity=95 time=0
EXTRACT: note_off channel=9 note=40 velocity=95 time=0.14150925
EXTRACT: note_off channel=9 note=44 velocity=95 time=0
EXTRACT: note_off channel=0 note=66 velocity=95 time=0.14150925
EXTRACT: note_off channel=0 note=62 velocity=111 time=0
EXTRACT: note_off channel=0 note=57 velocity=111 time=0
EXTRACT: note_off channel=0 note=50 velocity=111 time=0
EXTRACT: note_on channel=0 note=64 velocity=111 time=0
EXTRACT: note_on channel=0 note=59 velocity=95 time=0
EXTRACT: note_on channel=0 note=55 velocity=111 time=0
EXTRACT: note_on channel=0 note=50 velocity=111 time=0
EXTRACT: note_off channel=2 note=64 velocity=95 time=0
EXTRACT: note_on channel=2 note=61 velocity=95 time=0
EXTRACT: note_off channel=4 note=73 velocity=95 time=0
EXTRACT: note_on channel=4 note=69 velocity=95 time=0
EXTRACT: note_off channel=6 note=86 velocity=95 time=0
EXTRACT: note_off channel=6 note=81 velocity=95 time=0
EXTRACT: note_off channel=6 note=78 velocity=95 time=0
EXTRACT: note_on channel=9 note=35 velocity=95 time=0
EXTRACT: note_on channel=9 note=44 velocity=95 time=0
EXTRACT: note_off channel=0 note=64 velocity=111 time=0.031249959375
EXTRACT: note_off channel=0 note=59 velocity=95 time=0
EXTRACT: note_off channel=0 note=55 velocity=111 time=0
EXTRACT: note_off channel=0 note=50 velocity=111 time=0
EXTRACT: note_on channel=0 note=64 velocity=111 time=0.110259290625
EXTRACT: note_on channel=0 note=59 velocity=111 time=0
EXTRACT: note_on channel=0 note=56 velocity=95 time=0
EXTRACT: note_on channel=0 note=52 velocity=111 time=0
EXTRACT: note_off channel=2 note=61 velocity=95 time=0
EXTRACT: note_on channel=2 note=64 velocity=95 time=0
EXTRACT: note_off channel=4 note=69 velocity=95 time=0
EXTRACT: note_on channel=4 note=71 velocity=95 time=0
EXTRACT: note_off channel=9 note=35 velocity=95 time=0
EXTRACT: note_off channel=9 note=44 velocity=95 time=0
EXTRACT: note_on channel=9 note=0 velocity=95 time=0
EXTRACT: note_on channel=9 note=35 velocity=95 time=0
EXTRACT: note_on channel=9 note=44 velocity=95 time=0
EXTRACT: note_off channel=0 note=64 velocity=111 time=0.14150925
EXTRACT: note_off channel=0 note=59 velocity=111 time=0
EXTRACT: note_off channel=0 note=56 velocity=95 time=0
EXTRACT: note_off channel=0 note=52 velocity=111 time=0
EXTRACT: note_off channel=14 note=38 velocity=111 time=0
EXTRACT: note_on channel=14 note=40 velocity=111 time=0
EXTRACT: note_off channel=9 note=0 velocity=95 time=0
EXTRACT: note_off channel=9 note=35 velocity=95 time=0
EXTRACT: note_off channel=9 note=44 velocity=95 time=0
EXTRACT: note_on channel=9 note=0 velocity=95 time=0
EXTRACT: note_on channel=9 note=44 velocity=95 time=0
EXTRACT: note_on channel=0 note=64 velocity=95 time=0.14150925
EXTRACT: note_on channel=0 note=59 velocity=111 time=0
EXTRACT: note_on channel=0 note=56 velocity=111 time=0
EXTRACT: note_on channel=0 note=52 velocity=111 time=0
EXTRACT: note_on channel=6 note=88 velocity=95 time=0
EXTRACT: note_on channel=6 note=83 velocity=95 time=0
EXTRACT: note_off channel=9 note=0 velocity=95 time=0
EXTRACT: note_off channel=9 note=44 velocity=95 time=0
EXTRACT: note_on channel=9 note=35 velocity=95 time=0
EXTRACT: note_off channel=0 note=64 velocity=95 time=0.14150925
EXTRACT: note_off channel=0 note=59 velocity=111 time=0
EXTRACT: note_off channel=0 note=56 velocity=111 time=0
EXTRACT: note_off channel=0 note=52 velocity=111 time=0
EXTRACT: note_on channel=0 note=64 velocity=111 time=0
EXTRACT: note_on channel=0 note=59 velocity=95 time=0
EXTRACT: note_on channel=0 note=56 velocity=111 time=0
EXTRACT: note_on channel=0 note=52 velocity=111 time=0
EXTRACT: note_on channel=0 note=47 velocity=111 time=0
EXTRACT: note_off channel=2 note=64 velocity=95 time=0
EXTRACT: note_on channel=2 note=59 velocity=95 time=0
EXTRACT: note_off channel=4 note=71 velocity=95 time=0
EXTRACT: note_on channel=4 note=71 velocity=95 time=0
EXTRACT: note_off channel=6 note=88 velocity=95 time=0
EXTRACT: note_off channel=6 note=83 velocity=95 time=0
EXTRACT: note_off channel=9 note=35 velocity=95 time=0
EXTRACT: note_on channel=9 note=0 velocity=95 time=0
EXTRACT: note_on channel=9 note=35 velocity=95 time=0
EXTRACT: note_on channel=9 note=44 velocity=95 time=0
EXTRACT: note_off channel=2 note=59 velocity=95 time=0.14150925
EXTRACT: note_on channel=2 note=61 velocity=95 time=0
EXTRACT: note_off channel=4 note=71 velocity=95 time=0
EXTRACT: note_on channel=4 note=69 velocity=95 time=0
EXTRACT: note_on channel=6 note=76 velocity=95 time=0
EXTRACT: note_off channel=9 note=0 velocity=95 time=0
EXTRACT: note_off channel=9 note=35 velocity=95 time=0
EXTRACT: note_off channel=9 note=44 velocity=95 time=0
EXTRACT: note_off channel=0 note=64 velocity=111 time=0.14150925
EXTRACT: note_off channel=0 note=59 velocity=95 time=0
EXTRACT: note_off channel=0 note=56 velocity=111 time=0
EXTRACT: note_off channel=0 note=52 velocity=111 time=0
EXTRACT: note_off channel=0 note=47 velocity=111 time=0
EXTRACT: note_on channel=0 note=64 velocity=111 time=0
EXTRACT: note_on channel=0 note=59 velocity=111 time=0
EXTRACT: note_on channel=0 note=56 velocity=95 time=0
EXTRACT: note_on channel=0 note=52 velocity=111 time=0
EXTRACT: note_on channel=0 note=47 velocity=111 time=0
EXTRACT: note_off channel=4 note=69 velocity=95 time=0
EXTRACT: note_on channel=4 note=73 velocity=95 time=0
EXTRACT: note_off channel=6 note=76 velocity=95 time=0
EXTRACT: note_on channel=6 note=88 velocity=95 time=0
EXTRACT: note_on channel=6 note=83 velocity=95 time=0
EXTRACT: note_on channel=9 note=40 velocity=95 time=0
EXTRACT: note_on channel=9 note=46 velocity=95 time=0
EXTRACT: note_off channel=2 note=61 velocity=95 time=0.14150925
EXTRACT: note_off channel=4 note=73 velocity=95 time=0
EXTRACT: note_off channel=0 note=64 velocity=111 time=0.14150925
EXTRACT: note_off channel=0 note=59 velocity=111 time=0
EXTRACT: note_off channel=0 note=56 velocity=95 time=0
EXTRACT: note_off channel=0 note=52 velocity=111 time=0
EXTRACT: note_off channel=0 note=47 velocity=111 time=0
EXTRACT: note_on channel=0 note=55 velocity=95 time=0
EXTRACT: note_on channel=0 note=50 velocity=111 time=0
EXTRACT: note_on channel=0 note=45 velocity=111 time=0
EXTRACT: note_on channel=4 note=69 velocity=95 time=0
EXTRACT: note_off channel=6 note=88 velocity=95 time=0
EXTRACT: note_off channel=6 note=83 velocity=95 time=0
EXTRACT: note_on channel=6 note=76 velocity=95 time=0
EXTRACT: note_off channel=9 note=40 velocity=95 time=0
EXTRACT: note_off channel=9 note=46 velocity=95 time=0
EXTRACT: note_on channel=9 note=35 velocity=95 time=0
EXTRACT: note_on channel=9 note=44 velocity=95 time=0
EXTRACT: note_off channel=0 note=55 velocity=95 time=0.14150925
EXTRACT: note_off channel=0 note=50 velocity=111 time=0
EXTRACT: note_off channel=0 note=45 velocity=111 time=0
EXTRACT: note_on channel=0 note=55 velocity=111 time=0
EXTRACT: note_on channel=0 note=50 velocity=111 time=0
EXTRACT: note_on channel=0 note=45 velocity=111 time=0
EXTRACT: note_off channel=6 note=76 velocity=95 time=0
EXTRACT: note_off channel=9 note=35 velocity=95 time=0
EXTRACT: note_off channel=9 note=44 velocity=95 time=0
EXTRACT: note_on channel=9 note=0 velocity=95 time=0
EXTRACT: note_on channel=9 note=35 velocity=95 time=0
EXTRACT: note_on channel=9 note=44 velocity=95 time=0
EXTRACT: note_off channel=0 note=55 velocity=111 time=0.14150925
EXTRACT: note_off channel=0 note=50 velocity=111 time=0
EXTRACT: note_off channel=0 note=45 velocity=111 time=0
EXTRACT: note_on channel=0 note=61 velocity=111 time=0
EXTRACT: note_on channel=0 note=57 velocity=95 time=0
EXTRACT: note_on channel=0 note=52 velocity=111 time=0
EXTRACT: note_on channel=0 note=45 velocity=111 time=0
EXTRACT: note_off channel=4 note=69 velocity=95 time=0
EXTRACT: note_on channel=6 note=85 velocity=95 time=0
EXTRACT: note_on channel=6 note=81 velocity=95 time=0
EXTRACT: note_off channel=14 note=40 velocity=111 time=0
EXTRACT: note_on channel=14 note=33 velocity=111 time=0
EXTRACT: note_off channel=9 note=0 velocity=95 time=0
EXTRACT: note_off channel=9 note=35 velocity=95 time=0
EXTRACT: note_off channel=9 note=44 velocity=95 time=0
EXTRACT: note_on channel=9 note=0 velocity=95 time=0
EXTRACT: note_on channel=9 note=44 velocity=95 time=0
EXTRACT: note_off channel=9 note=0 velocity=95 time=0.2830185
EXTRACT: note_off channel=9 note=44 velocity=95 time=0
EXTRACT: note_on channel=9 note=0 velocity=95 time=0
EXTRACT: note_on channel=9 note=35 velocity=95 time=0
EXTRACT: note_on channel=9 note=44 velocity=95 time=0
EXTRACT: note_off channel=9 note=0 velocity=95 time=0.14150925
EXTRACT: note_off channel=9 note=35 velocity=95 time=0
EXTRACT: note_off channel=9 note=44 velocity=95 time=0
EXTRACT: note_off channel=0 note=61 velocity=111 time=0.14150925
EXTRACT: note_off channel=0 note=57 velocity=95 time=0
EXTRACT: note_off channel=0 note=52 velocity=111 time=0
EXTRACT: note_off channel=0 note=45 velocity=111 time=0
EXTRACT: note_on channel=0 note=61 velocity=111 time=0
EXTRACT: note_on channel=0 note=57 velocity=111 time=0
EXTRACT: note_on channel=0 note=52 velocity=111 time=0
EXTRACT: note_on channel=0 note=45 velocity=111 time=0
EXTRACT: note_on channel=4 note=69 velocity=95 time=0
EXTRACT: note_on channel=9 note=40 velocity=95 time=0
EXTRACT: note_on channel=9 note=44 velocity=95 time=0
EXTRACT: note_off channel=9 note=40 velocity=95 time=0.14150925
EXTRACT: note_off channel=9 note=44 velocity=95 time=0
EXTRACT: note_off channel=0 note=61 velocity=111 time=0.14150925
EXTRACT: note_off channel=0 note=57 velocity=111 time=0
EXTRACT: note_off channel=0 note=52 velocity=111 time=0
EXTRACT: note_off channel=0 note=45 velocity=111 time=0
EXTRACT: note_on channel=0 note=59 velocity=95 time=0
EXTRACT: note_on channel=0 note=55 velocity=111 time=0
EXTRACT: note_on channel=0 note=50 velocity=111 time=0
EXTRACT: note_on channel=0 note=45 velocity=111 time=0
EXTRACT: note_off channel=4 note=69 velocity=95 time=0
EXTRACT: note_on channel=4 note=66 velocity=95 time=0
EXTRACT: note_on channel=9 note=35 velocity=95 time=0
EXTRACT: note_on channel=9 note=44 velocity=95 time=0
EXTRACT: note_off channel=0 note=59 velocity=95 time=0.031249959375
EXTRACT: note_off channel=0 note=55 velocity=111 time=0
EXTRACT: note_off channel=0 note=50 velocity=111 time=0
EXTRACT: note_off channel=0 note=45 velocity=111 time=0
EXTRACT: note_on channel=0 note=64 velocity=111 time=0.110259290625
EXTRACT: note_on channel=0 note=59 velocity=111 time=0
EXTRACT: note_on channel=0 note=56 velocity=95 time=0
EXTRACT: note_on channel=0 note=52 velocity=111 time=0
EXTRACT: note_off channel=4 note=66 velocity=95 time=0
EXTRACT: note_on channel=4 note=69 velocity=95 time=0
EXTRACT: note_off channel=6 note=85 velocity=95 time=0
EXTRACT: note_off channel=6 note=81 velocity=95 time=0
EXTRACT: note_off channel=9 note=35 velocity=95 time=0
EXTRACT: note_off channel=9 note=44 velocity=95 time=0
EXTRACT: note_on channel=9 note=0 velocity=95 time=0
EXTRACT: note_on channel=9 note=35 velocity=95 time=0
EXTRACT: note_on channel=9 note=44 velocity=95 time=0
EXTRACT: note_off channel=0 note=64 velocity=111 time=0.14150925
EXTRACT: note_off channel=0 note=59 velocity=111 time=0
EXTRACT: note_off channel=0 note=56 velocity=95 time=0
EXTRACT: note_off channel=0 note=52 velocity=111 time=0
EXTRACT: note_on channel=6 note=83 velocity=95 time=0
EXTRACT: note_on channel=6 note=80 velocity=95 time=0
EXTRACT: note_off channel=14 note=33 velocity=111 time=0
EXTRACT: note_on channel=14 note=40 velocity=111 time=0
EXTRACT: note_off channel=9 note=0 velocity=95 time=0
EXTRACT: note_off channel=9 note=35 velocity=95 time=0
EXTRACT: note_off channel=9 note=44 velocity=95 time=0
EXTRACT: note_on channel=9 note=0 velocity=95 time=0
EXTRACT: note_on channel=9 note=44 velocity=95 time=0
EXTRACT: note_on channel=0 note=64 velocity=95 time=0.14150925
EXTRACT: note_on channel=0 note=59 velocity=111 time=0
EXTRACT: note_on channel=0 note=56 velocity=111 time=0
EXTRACT: note_on channel=0 note=52 velocity=111 time=0
EXTRACT: note_off channel=4 note=69 velocity=95 time=0
EXTRACT: note_on channel=4 note=66 velocity=95 time=0
EXTRACT: note_off channel=0 note=64 velocity=95 time=0.14150925
EXTRACT: note_off channel=0 note=59 velocity=111 time=0
EXTRACT: note_off channel=0 note=56 velocity=111 time=0
EXTRACT: note_off channel=0 note=52 velocity=111 time=0
EXTRACT: note_on channel=0 note=64 velocity=111 time=0
EXTRACT: note_on channel=0 note=59 velocity=95 time=0
EXTRACT: note_on channel=0 note=56 velocity=111 time=0
EXTRACT: note_on channel=0 note=52 velocity=111 time=0
EXTRACT: note_on channel=0 note=47 velocity=111 time=0
EXTRACT: note_off channel=9 note=0 velocity=95 time=0
EXTRACT: note_off channel=9 note=44 velocity=95 time=0
EXTRACT: note_on channel=9 note=0 velocity=95 time=0
EXTRACT: note_on channel=9 note=35 velocity=95 time=0
EXTRACT: note_on channel=9 note=44 velocity=95 time=0
EXTRACT: note_off channel=4 note=66 velocity=95 time=0.14150925
EXTRACT: note_off channel=9 note=0 velocity=95 time=0
EXTRACT: note_off channel=9 note=35 velocity=95 time=0
EXTRACT: note_off channel=9 note=44 velocity=95 time=0
EXTRACT: note_off channel=0 note=64 velocity=111 time=0.14150925
EXTRACT: note_off channel=0 note=59 velocity=95 time=0
EXTRACT: note_off channel=0 note=56 velocity=111 time=0
EXTRACT: note_off channel=0 note=52 velocity=111 time=0
EXTRACT: note_off channel=0 note=47 velocity=111 time=0
EXTRACT: note_on channel=0 note=64 velocity=111 time=0
EXTRACT: note_on channel=0 note=59 velocity=111 time=0
EXTRACT: note_on channel=0 note=56 velocity=95 time=0
EXTRACT: note_on channel=0 note=52 velocity=111 time=0
EXTRACT: note_on channel=0 note=47 velocity=111 time=0
EXTRACT: note_on channel=2 note=57 velocity=95 time=0
EXTRACT: note_on channel=9 note=40 velocity=95 time=0
EXTRACT: note_on channel=9 note=44 velocity=95 time=0
EXTRACT: note_off channel=2 note=57 velocity=95 time=0.14150925
EXTRACT: note_on channel=2 note=57 velocity=95 time=0
EXTRACT: note_off channel=9 note=40 velocity=95 time=0
EXTRACT: note_off channel=9 note=44 velocity=95 time=0
EXTRACT: note_off channel=0 note=64 velocity=111 time=0.14150925
EXTRACT: note_off channel=0 note=59 velocity=111 time=0
EXTRACT: note_off channel=0 note=56 velocity=95 time=0
EXTRACT: note_off channel=0 note=52 velocity=111 time=0
EXTRACT: note_off channel=0 note=47 velocity=111 time=0
EXTRACT: note_on channel=0 note=55 velocity=95 time=0
EXTRACT: note_on channel=0 note=50 velocity=111 time=0
EXTRACT: note_on channel=0 note=45 velocity=111 time=0
EXTRACT: note_off channel=2 note=57 velocity=95 time=0
EXTRACT: note_on channel=2 note=57 velocity=95 time=0
EXTRACT: note_off channel=6 note=83 velocity=95 time=0
EXTRACT: note_off channel=6 note=80 velocity=95 time=0
EXTRACT: note_on channel=9 note=35 velocity=95 time=0
EXTRACT: note_on channel=9 note=44 velocity=95 time=0
EXTRACT: note_off channel=0 note=55 velocity=95 time=0.14150925
EXTRACT: note_off channel=0 note=50 velocity=111 time=0
EXTRACT: note_off channel=0 note=45 velocity=111 time=0
EXTRACT: note_on channel=0 note=55 velocity=111 time=0
EXTRACT: note_on channel=0 note=50 velocity=111 time=0
EXTRACT: note_on channel=0 note=45 velocity=111 time=0
EXTRACT: note_off channel=2 note=57 velocity=95 time=0
EXTRACT: note_on channel=2 note=57 velocity=95 time=0
EXTRACT: note_off channel=9 note=35 velocity=95 time=0
EXTRACT: note_off channel=9 note=44 velocity=95 time=0
EXTRACT: note_on channel=9 note=0 velocity=95 time=0
EXTRACT: note_on channel=9 note=35 velocity=95 time=0
EXTRACT: note_on channel=9 note=44 velocity=95 time=0
EXTRACT: note_off channel=0 note=55 velocity=111 time=0.14150925
EXTRACT: note_off channel=0 note=50 velocity=111 time=0
EXTRACT: note_off channel=0 note=45 velocity=111 time=0
EXTRACT: note_on channel=0 note=66 velocity=111 time=0
EXTRACT: note_on channel=0 note=62 velocity=111 time=0
EXTRACT: note_on channel=0 note=57 velocity=111 time=0
EXTRACT: note_on channel=0 note=50 velocity=111 time=0
EXTRACT: note_off channel=2 note=57 velocity=95 time=0
EXTRACT: note_on channel=2 note=61 velocity=95 time=0
EXTRACT: note_on channel=6 note=86 velocity=95 time=0
EXTRACT: note_on channel=6 note=81 velocity=95 time=0
EXTRACT: note_off channel=14 note=40 velocity=111 time=0
EXTRACT: note_on channel=14 note=38 velocity=111 time=0
EXTRACT: note_off channel=9 note=0 velocity=95 time=0
EXTRACT: note_off channel=9 note=35 velocity=95 time=0
EXTRACT: note_off channel=9 note=44 velocity=95 time=0
EXTRACT: note_on channel=9 note=0 velocity=95 time=0
EXTRACT: note_on channel=9 note=44 velocity=95 time=0
EXTRACT: note_off channel=2 note=61 velocity=95 time=0.14150925
EXTRACT: note_off channel=9 note=0 velocity=95 time=0
EXTRACT: note_off channel=9 note=44 velocity=95 time=0
EXTRACT: note_on channel=9 note=35 velocity=95 time=0
EXTRACT: note_on channel=2 note=64 velocity=95 time=0.14150925
EXTRACT: note_off channel=9 note=35 velocity=95 time=0
EXTRACT: note_on channel=9 note=0 velocity=95 time=0
EXTRACT: note_on channel=9 note=35 velocity=95 time=0
EXTRACT: note_on channel=9 note=44 velocity=95 time=0
EXTRACT: note_on channel=4 note=69 velocity=95 time=0.14150925
EXTRACT: note_off channel=9 note=0 velocity=95 time=0
EXTRACT: note_off channel=9 note=35 velocity=95 time=0
EXTRACT: note_off channel=9 note=44 velocity=95 time=0
EXTRACT: note_off channel=0 note=66 velocity=111 time=0.14150925
EXTRACT: note_off channel=0 note=62 velocity=111 time=0
EXTRACT: note_off channel=0 note=57 velocity=111 time=0
EXTRACT: note_off channel=0 note=50 velocity=111 time=0
EXTRACT: note_on channel=0 note=66 velocity=95 time=0
EXTRACT: note_on channel=0 note=62 velocity=111 time=0
EXTRACT: note_on channel=0 note=57 velocity=111 time=0
EXTRACT: note_on channel=0 note=50 velocity=111 time=0
EXTRACT: note_off channel=4 note=69 velocity=95 time=0
EXTRACT: note_on channel=4 note=73 velocity=95 time=0
EXTRACT: note_on channel=9 note=40 velocity=95 time=0
EXTRACT: note_on channel=9 note=44 velocity=95 time=0
EXTRACT: note_off channel=9 note=40 velocity=95 time=0.14150925
EXTRACT: note_off channel=9 note=44 velocity=95 time=0
EXTRACT: note_off channel=0 note=66 velocity=95 time=0.14150925
EXTRACT: note_off channel=0 note=62 velocity=111 time=0
EXTRACT: note_off channel=0 note=57 velocity=111 time=0
EXTRACT: note_off channel=0 note=50 velocity=111 time=0
EXTRACT: note_on channel=0 note=64 velocity=111 time=0
EXTRACT: note_on channel=0 note=59 velocity=95 time=0
EXTRACT: note_on channel=0 note=55 velocity=111 time=0
EXTRACT: note_on channel=0 note=50 velocity=111 time=0
EXTRACT: note_off channel=2 note=64 velocity=95 time=0
EXTRACT: note_on channel=2 note=59 velocity=95 time=0
EXTRACT: note_off channel=4 note=73 velocity=95 time=0
EXTRACT: note_on channel=4 note=69 velocity=95 time=0
EXTRACT: note_off channel=6 note=86 velocity=95 time=0
EXTRACT: note_off channel=6 note=81 velocity=95 time=0
EXTRACT: note_on channel=9 note=35 velocity=95 time=0
EXTRACT: note_on channel=9 note=44 velocity=95 time=0
EXTRACT: note_off channel=0 note=64 velocity=111 time=0.031249959375
EXTRACT: note_off channel=0 note=59 velocity=95 time=0
EXTRACT: note_off channel=0 note=55 velocity=111 time=0
EXTRACT: note_off channel=0 note=50 velocity=111 time=0
EXTRACT: note_on channel=0 note=64 velocity=111 time=0.110259290625
EXTRACT: note_on channel=0 note=59 velocity=111 time=0
EXTRACT: note_on channel=0 note=56 velocity=95 time=0
EXTRACT: note_on channel=0 note=52 velocity=111 time=0
EXTRACT: note_off channel=4 note=69 velocity=95 time=0
EXTRACT: note_on channel=4 note=71 velocity=95 time=0
EXTRACT: note_off channel=9 note=35 velocity=95 time=0
EXTRACT: note_off channel=9 note=44 velocity=95 time=0
EXTRACT: note_on channel=9 note=0 velocity=95 time=0
EXTRACT: note_on channel=9 note=35 velocity=95 time=0
EXTRACT: note_on channel=9 note=44 velocity=95 time=0
EXTRACT: note_off channel=0 note=64 velocity=111 time=0.14150925
EXTRACT: note_off channel=0 note=59 velocity=111 time=0
EXTRACT: note_off channel=0 note=56 velocity=95 time=0
EXTRACT: note_off channel=0 note=52 velocity=111 time=0
EXTRACT: note_off channel=14 note=38 velocity=111 time=0
EXTRACT: note_on channel=14 note=40 velocity=111 time=0
EXTRACT: note_off channel=9 note=0 velocity=95 time=0
EXTRACT: note_off channel=9 note=35 velocity=95 time=0
EXTRACT: note_off channel=9 note=44 velocity=95 time=0
EXTRACT: note_on channel=9 note=0 velocity=95 time=0
EXTRACT: note_on channel=9 note=44 velocity=95 time=0
EXTRACT: note_on channel=0 note=64 velocity=95 time=0.14150925
EXTRACT: note_on channel=0 note=59 velocity=111 time=0
EXTRACT: note_on channel=0 note=56 velocity=111 time=0
EXTRACT: note_on channel=0 note=52 velocity=111 time=0
EXTRACT: note_off channel=4 note=71 velocity=95 time=0
EXTRACT: note_on channel=6 note=83 velocity=95 time=0
EXTRACT: note_on channel=6 note=80 velocity=95 time=0
EXTRACT: note_off channel=9 note=0 velocity=95 time=0
EXTRACT: note_off channel=9 note=44 velocity=95 time=0
EXTRACT: note_on channel=9 note=0 velocity=95 time=0
EXTRACT: note_on channel=9 note=35 velocity=95 time=0
EXTRACT: note_on channel=9 note=44 velocity=95 time=0
EXTRACT: note_off channel=0 note=64 velocity=95 time=0.14150925
EXTRACT: note_off channel=0 note=59 velocity=111 time=0
EXTRACT: note_off channel=0 note=56 velocity=111 time=0
EXTRACT: note_off channel=0 note=52 velocity=111 time=0
EXTRACT: note_on channel=0 note=64 velocity=111 time=0
EXTRACT: note_on channel=0 note=59 velocity=95 time=0
EXTRACT: note_on channel=0 note=56 velocity=111 time=0
EXTRACT: note_on channel=0 note=52 velocity=111 time=0
EXTRACT: note_on channel=0 note=47 velocity=111 time=0
EXTRACT: note_on channel=4 note=71 velocity=95 time=0
EXTRACT: note_off channel=6 note=83 velocity=95 time=0
EXTRACT: note_off channel=6 note=80 velocity=95 time=0
EXTRACT: note_off channel=9 note=0 velocity=95 time=0
EXTRACT: note_off channel=9 note=35 velocity=95 time=0
EXTRACT: note_off channel=9 note=44 velocity=95 time=0
EXTRACT: note_on channel=9 note=0 velocity=95 time=0
EXTRACT: note_on channel=9 note=40 velocity=95 time=0
EXTRACT: note_on channel=9 note=46 velocity=95 time=0
EXTRACT: note_off channel=4 note=71 velocity=95 time=0.14150925
EXTRACT: note_on channel=4 note=69 velocity=95 time=0
EXTRACT: note_on channel=6 note=76 velocity=95 time=0
EXTRACT: note_off channel=9 note=0 velocity=95 time=0
EXTRACT: note_off channel=9 note=40 velocity=95 time=0
EXTRACT: note_off channel=9 note=46 velocity=95 time=0
EXTRACT: note_on channel=9 note=0 velocity=95 time=0
EXTRACT: note_on channel=9 note=40 velocity=95 time=0
EXTRACT: note_off channel=0 note=64 velocity=111 time=0.14150925
EXTRACT: note_off channel=0 note=59 velocity=95 time=0
EXTRACT: note_off channel=0 note=56 velocity=111 time=0
EXTRACT: note_off channel=0 note=52 velocity=111 time=0
EXTRACT: note_off channel=0 note=47 velocity=111 time=0
EXTRACT: note_on channel=0 note=64 velocity=111 time=0
EXTRACT: note_on channel=0 note=59 velocity=111 time=0
EXTRACT: note_on channel=0 note=56 velocity=95 time=0
EXTRACT: note_on channel=0 note=52 velocity=111 time=0
EXTRACT: note_on channel=0 note=47 velocity=111 time=0
EXTRACT: note_off channel=4 note=69 velocity=95 time=0
EXTRACT: note_on channel=4 note=73 velocity=95 time=0
EXTRACT: note_off channel=6 note=76 velocity=95 time=0
EXTRACT: note_on channel=6 note=83 velocity=95 time=0
EXTRACT: note_on channel=6 note=80 velocity=95 time=0
EXTRACT: note_off channel=9 note=0 velocity=95 time=0
EXTRACT: note_off channel=9 note=40 velocity=95 time=0
EXTRACT: note_on channel=9 note=0 velocity=95 time=0
EXTRACT: note_on channel=9 note=40 velocity=95 time=0
EXTRACT: note_on channel=9 note=44 velocity=95 time=0
EXTRACT: note_off channel=4 note=73 velocity=95 time=0.14150925
EXTRACT: note_off channel=9 note=0 velocity=95 time=0
EXTRACT: note_off channel=9 note=40 velocity=95 time=0
EXTRACT: note_off channel=9 note=44 velocity=95 time=0
EXTRACT: note_on channel=9 note=0 velocity=95 time=0
EXTRACT: note_on channel=9 note=40 velocity=95 time=0
EXTRACT: note_on channel=9 note=44 velocity=95 time=0
EXTRACT: note_off channel=0 note=64 velocity=111 time=0.14150925
EXTRACT: note_off channel=0 note=59 velocity=111 time=0
EXTRACT: note_off channel=0 note=56 velocity=95 time=0
EXTRACT: note_off channel=0 note=52 velocity=111 time=0
EXTRACT: note_off channel=0 note=47 velocity=111 time=0
EXTRACT: note_on channel=0 note=55 velocity=95 time=0
EXTRACT: note_on channel=0 note=50 velocity=111 time=0
EXTRACT: note_on channel=0 note=45 velocity=111 time=0
EXTRACT: note_on channel=4 note=73 velocity=95 time=0
EXTRACT: note_off channel=6 note=83 velocity=95 time=0
EXTRACT: note_off channel=6 note=80 velocity=95 time=0
EXTRACT: note_on channel=6 note=76 velocity=95 time=0
EXTRACT: note_off channel=9 note=0 velocity=95 time=0
EXTRACT: note_off channel=9 note=40 velocity=95 time=0
EXTRACT: note_off channel=9 note=44 velocity=95 time=0
EXTRACT: note_on channel=9 note=0 velocity=95 time=0
EXTRACT: note_on channel=9 note=40 velocity=95 time=0
EXTRACT: note_on channel=9 note=43 velocity=95 time=0
EXTRACT: note_on channel=9 note=45 velocity=95 time=0
EXTRACT: note_on channel=9 note=46 velocity=95 time=0
EXTRACT: note_off channel=0 note=55 velocity=95 time=0.14150925
EXTRACT: note_off channel=0 note=50 velocity=111 time=0
EXTRACT: note_off channel=0 note=45 velocity=111 time=0
EXTRACT: note_on channel=0 note=55 velocity=111 time=0
EXTRACT: note_on channel=0 note=50 velocity=111 time=0
EXTRACT: note_on channel=0 note=45 velocity=111 time=0
EXTRACT: note_off channel=6 note=76 velocity=95 time=0
EXTRACT: note_off channel=9 note=0 velocity=95 time=0
EXTRACT: note_off channel=9 note=40 velocity=95 time=0
EXTRACT: note_off channel=9 note=43 velocity=95 time=0
EXTRACT: note_off channel=9 note=45 velocity=95 time=0
EXTRACT: note_off channel=9 note=46 velocity=95 time=0
EXTRACT: note_on channel=9 note=0 velocity=95 time=0
EXTRACT: note_on channel=9 note=40 velocity=95 time=0
EXTRACT: note_on channel=9 note=43 velocity=95 time=0
EXTRACT: note_off channel=0 note=55 velocity=111 time=0.14150925
EXTRACT: note_off channel=0 note=50 velocity=111 time=0
EXTRACT: note_off channel=0 note=45 velocity=111 time=0
EXTRACT: note_on channel=0 note=61 velocity=111 time=0
EXTRACT: note_on channel=0 note=57 velocity=95 time=0
EXTRACT: note_on channel=0 note=52 velocity=111 time=0
EXTRACT: note_on channel=0 note=45 velocity=111 time=0
EXTRACT: note_off channel=2 note=59 velocity=95 time=0
EXTRACT: note_on channel=6 note=85 velocity=95 time=0
EXTRACT: note_on channel=6 note=81 velocity=95 time=0
EXTRACT: note_on channel=6 note=76 velocity=95 time=0
EXTRACT: note_off channel=14 note=40 velocity=111 time=0
EXTRACT: note_on channel=14 note=33 velocity=111 time=0
EXTRACT: note_off channel=9 note=0 velocity=95 time=0
EXTRACT: note_off channel=9 note=40 velocity=95 time=0
EXTRACT: note_off channel=9 note=43 velocity=95 time=0
EXTRACT: note_on channel=9 note=0 velocity=95 time=0
EXTRACT: note_on channel=9 note=35 velocity=95 time=0
EXTRACT: note_on channel=9 note=44 velocity=95 time=0
EXTRACT: note_on channel=9 note=49 velocity=95 time=0
EXTRACT: note_on channel=9 note=55 velocity=95 time=0
EXTRACT: note_off channel=9 note=0 velocity=95 time=0.14150925
EXTRACT: note_off channel=9 note=35 velocity=95 time=0
EXTRACT: note_off channel=9 note=44 velocity=95 time=0
EXTRACT: note_off channel=9 note=49 velocity=95 time=0
EXTRACT: note_off channel=9 note=55 velocity=95 time=0
EXTRACT: note_off channel=4 note=73 velocity=95 time=0.14150925
EXTRACT: note_off channel=14 note=33 velocity=111 time=0
EXTRACT: note_on channel=14 note=33 velocity=111 time=0
EXTRACT: note_on channel=9 note=35 velocity=95 time=0
EXTRACT: note_on channel=9 note=44 velocity=95 time=0
EXTRACT: note_off channel=14 note=33 velocity=111 time=0.14150925
EXTRACT: note_on channel=14 note=33 velocity=111 time=0
EXTRACT: note_off channel=9 note=35 velocity=95 time=0
EXTRACT: note_off channel=9 note=44 velocity=95 time=0
EXTRACT: note_off channel=0 note=61 velocity=111 time=0.14150925
EXTRACT: note_off channel=0 note=57 velocity=95 time=0
EXTRACT: note_off channel=0 note=52 velocity=111 time=0
EXTRACT: note_off channel=0 note=45 velocity=111 time=0
EXTRACT: note_on channel=0 note=61 velocity=111 time=0
EXTRACT: note_on channel=0 note=57 velocity=111 time=0
EXTRACT: note_on channel=0 note=52 velocity=111 time=0
EXTRACT: note_on channel=0 note=45 velocity=111 time=0
EXTRACT: note_on channel=2 note=64 velocity=95 time=0
EXTRACT: note_on channel=4 note=73 velocity=95 time=0
EXTRACT: note_off channel=14 note=33 velocity=111 time=0
EXTRACT: note_on channel=14 note=33 velocity=111 time=0
EXTRACT: note_on channel=9 note=40 velocity=95 time=0
EXTRACT: note_on channel=9 note=44 velocity=95 time=0
EXTRACT: note_off channel=9 note=40 velocity=95 time=0.14150925
EXTRACT: note_off channel=9 note=44 velocity=95 time=0
EXTRACT: note_off channel=0 note=61 velocity=111 time=0.14150925
EXTRACT: note_off channel=0 note=57 velocity=111 time=0
EXTRACT: note_off channel=0 note=52 velocity=111 time=0
EXTRACT: note_off channel=0 note=45 velocity=111 time=0
EXTRACT: note_on channel=0 note=59 velocity=95 time=0
EXTRACT: note_on channel=0 note=55 velocity=111 time=0
EXTRACT: note_on channel=0 note=50 velocity=111 time=0
EXTRACT: note_on channel=0 note=45 velocity=111 time=0
EXTRACT: note_off channel=2 note=64 velocity=95 time=0
EXTRACT: note_on channel=2 note=61 velocity=95 time=0
EXTRACT: note_off channel=4 note=73 velocity=95 time=0
EXTRACT: note_on channel=4 note=69 velocity=95 time=0
EXTRACT: note_on channel=9 note=35 velocity=95 time=0
EXTRACT: note_on channel=9 note=44 velocity=95 time=0
EXTRACT: note_off channel=0 note=59 velocity=95 time=0.031249959375
EXTRACT: note_off channel=0 note=55 velocity=111 time=0
EXTRACT: note_off channel=0 note=50 velocity=111 time=0
EXTRACT: note_off channel=0 note=45 velocity=111 time=0
EXTRACT: note_on channel=0 note=64 velocity=111 time=0.110259290625
EXTRACT: note_on channel=0 note=59 velocity=111 time=0
EXTRACT: note_on channel=0 note=56 velocity=95 time=0
EXTRACT: note_on channel=0 note=52 velocity=111 time=0
EXTRACT: note_off channel=2 note=61 velocity=95 time=0
EXTRACT: note_on channel=2 note=62 velocity=95 time=0
EXTRACT: note_off channel=4 note=69 velocity=95 time=0
EXTRACT: note_on channel=4 note=71 velocity=95 time=0
EXTRACT: note_off channel=6 note=85 velocity=95 time=0
EXTRACT: note_off channel=6 note=81 velocity=95 time=0
EXTRACT: note_off channel=6 note=76 velocity=95 time=0
EXTRACT: note_off channel=14 note=33 velocity=111 time=0
EXTRACT: note_on channel=14 note=40 velocity=111 time=0
EXTRACT: note_off channel=9 note=35 velocity=95 time=0
EXTRACT: note_off channel=9 note=44 velocity=95 time=0
EXTRACT: note_on channel=9 note=0 velocity=95 time=0
EXTRACT: note_on channel=9 note=35 velocity=95 time=0
EXTRACT: note_on channel=9 note=44 velocity=95 time=0
EXTRACT: note_off channel=0 note=64 velocity=111 time=0.14150925
EXTRACT: note_off channel=0 note=59 velocity=111 time=0
EXTRACT: note_off channel=0 note=56 velocity=95 time=0
EXTRACT: note_off channel=0 note=52 velocity=111 time=0
EXTRACT: note_off channel=14 note=40 velocity=111 time=0
EXTRACT: note_off channel=9 note=0 velocity=95 time=0
EXTRACT: note_off channel=9 note=35 velocity=95 time=0
EXTRACT: note_off channel=9 note=44 velocity=95 time=0
EXTRACT: note_on channel=9 note=0 velocity=95 time=0
EXTRACT: note_on channel=9 note=44 velocity=95 time=0
EXTRACT: note_on channel=0 note=64 velocity=95 time=0.14150925
EXTRACT: note_on channel=0 note=59 velocity=111 time=0
EXTRACT: note_on channel=0 note=56 velocity=111 time=0
EXTRACT: note_on channel=0 note=52 velocity=111 time=0
EXTRACT: note_off channel=2 note=62 velocity=95 time=0
EXTRACT: note_on channel=2 note=64 velocity=95 time=0
EXTRACT: note_off channel=4 note=71 velocity=95 time=0
EXTRACT: note_on channel=4 note=73 velocity=95 time=0
EXTRACT: note_on channel=6 note=83 velocity=95 time=0
EXTRACT: note_on channel=6 note=80 velocity=95 time=0
EXTRACT: note_on channel=14 note=40 velocity=111 time=0
EXTRACT: note_off channel=0 note=64 velocity=95 time=0.14150925
EXTRACT: note_off channel=0 note=59 velocity=111 time=0
EXTRACT: note_off channel=0 note=56 velocity=111 time=0
EXTRACT: note_off channel=0 note=52 velocity=111 time=0
EXTRACT: note_on channel=0 note=64 velocity=111 time=0
EXTRACT: note_on channel=0 note=59 velocity=95 time=0
EXTRACT: note_on channel=0 note=56 velocity=111 time=0
EXTRACT: note_on channel=0 note=52 velocity=111 time=0
EXTRACT: note_on channel=0 note=47 velocity=111 time=0
EXTRACT: note_off channel=6 note=83 velocity=95 time=0
EXTRACT: note_off channel=6 note=80 velocity=95 time=0
EXTRACT: note_off channel=14 note=40 velocity=111 time=0
EXTRACT: note_on channel=14 note=40 velocity=111 time=0
EXTRACT: note_off channel=9 note=0 velocity=95 time=0
EXTRACT: note_off channel=9 note=44 velocity=95 time=0
EXTRACT: note_on channel=9 note=0 velocity=95 time=0
EXTRACT: note_on channel=9 note=35 velocity=95 time=0
EXTRACT: note_on channel=9 note=44 velocity=95 time=0
EXTRACT: note_off channel=9 note=0 velocity=95 time=0.14150925
EXTRACT: note_off channel=9 note=35 velocity=95 time=0
EXTRACT: note_off channel=9 note=44 velocity=95 time=0
EXTRACT: note_off channel=0 note=64 velocity=111 time=0.14150925
EXTRACT: note_off channel=0 note=59 velocity=95 time=0
EXTRACT: note_off channel=0 note=56 velocity=111 time=0
EXTRACT: note_off channel=0 note=52 velocity=111 time=0
EXTRACT: note_off channel=0 note=47 velocity=111 time=0
EXTRACT: note_on channel=0 note=64 velocity=111 time=0
EXTRACT: note_on channel=0 note=59 velocity=111 time=0
EXTRACT: note_on channel=0 note=56 velocity=95 time=0
EXTRACT: note_on channel=0 note=52 velocity=111 time=0
EXTRACT: note_on channel=0 note=47 velocity=111 time=0
EXTRACT: note_off channel=4 note=73 velocity=95 time=0
EXTRACT: note_on channel=6 note=83 velocity=95 time=0
EXTRACT: note_on channel=6 note=80 velocity=95 time=0
EXTRACT: note_on channel=9 note=40 velocity=95 time=0
EXTRACT: note_on channel=9 note=44 velocity=95 time=0
EXTRACT: note_off channel=2 note=64 velocity=95 time=0.14150925
EXTRACT: note_off channel=9 note=40 velocity=95 time=0
EXTRACT: note_off channel=9 note=44 velocity=95 time=0
EXTRACT: note_off channel=0 note=64 velocity=111 time=0.14150925
EXTRACT: note_off channel=0 note=59 velocity=111 time=0
EXTRACT: note_off channel=0 note=56 velocity=95 time=0
EXTRACT: note_off channel=0 note=52 velocity=111 time=0
EXTRACT: note_off channel=0 note=47 velocity=111 time=0
EXTRACT: note_on channel=0 note=55 velocity=95 time=0
EXTRACT: note_on channel=0 note=50 velocity=111 time=0
EXTRACT: note_on channel=0 note=45 velocity=111 time=0
EXTRACT: note_on channel=2 note=57 velocity=95 time=0
EXTRACT: note_off channel=6 note=83 velocity=95 time=0
EXTRACT: note_off channel=6 note=80 velocity=95 time=0
EXTRACT: note_on channel=6 note=76 velocity=95 time=0
EXTRACT: note_on channel=9 note=35 velocity=95 time=0
EXTRACT: note_on channel=9 note=44 velocity=95 time=0
EXTRACT: note_off channel=0 note=55 velocity=95 time=0.14150925
EXTRACT: note_off channel=0 note=50 velocity=111 time=0
EXTRACT: note_off channel=0 note=45 velocity=111 time=0
EXTRACT: note_on channel=0 note=55 velocity=111 time=0
EXTRACT: note_on channel=0 note=50 velocity=111 time=0
EXTRACT: note_on channel=0 note=45 velocity=111 time=0
EXTRACT: note_off channel=2 note=57 velocity=95 time=0
EXTRACT: note_on channel=2 note=57 velocity=95 time=0
EXTRACT: note_off channel=9 note=35 velocity=95 time=0
EXTRACT: note_off channel=9 note=44 velocity=95 time=0
EXTRACT: note_on channel=9 note=0 velocity=95 time=0
EXTRACT: note_on channel=9 note=35 velocity=95 time=0
EXTRACT: note_on channel=9 note=44 velocity=95 time=0
EXTRACT: note_off channel=0 note=55 velocity=111 time=0.14150925
EXTRACT: note_off channel=0 note=50 velocity=111 time=0
EXTRACT: note_off channel=0 note=45 velocity=111 time=0
EXTRACT: note_on channel=0 note=66 velocity=111 time=0
EXTRACT: note_on channel=0 note=62 velocity=111 time=0
EXTRACT: note_on channel=0 note=57 velocity=111 time=0
EXTRACT: note_on channel=0 note=50 velocity=111 time=0
EXTRACT: note_off channel=2 note=57 velocity=95 time=0
EXTRACT: note_on channel=2 note=61 velocity=95 time=0
EXTRACT: note_off channel=6 note=76 velocity=95 time=0
EXTRACT: note_on channel=6 note=86 velocity=95 time=0
EXTRACT: note_on channel=6 note=81 velocity=95 time=0
EXTRACT: note_on channel=6 note=78 velocity=95 time=0
EXTRACT: note_off channel=14 note=40 velocity=111 time=0
EXTRACT: note_on channel=14 note=38 velocity=111 time=0
EXTRACT: note_off channel=9 note=0 velocity=95 time=0
EXTRACT: note_off channel=9 note=35 velocity=95 time=0
EXTRACT: note_off channel=9 note=44 velocity=95 time=0
EXTRACT: note_on channel=9 note=0 velocity=95 time=0
EXTRACT: note_on channel=9 note=44 velocity=95 time=0
EXTRACT: note_off channel=2 note=61 velocity=95 time=0.2830185
EXTRACT: note_on channel=2 note=64 velocity=95 time=0
EXTRACT: note_off channel=14 note=38 velocity=111 time=0
EXTRACT: note_on channel=14 note=38 velocity=111 time=0
EXTRACT: note_off channel=9 note=0 velocity=95 time=0
EXTRACT: note_off channel=9 note=44 velocity=95 time=0
EXTRACT: note_on channel=9 note=0 velocity=95 time=0
EXTRACT: note_on channel=9 note=35 velocity=95 time=0
EXTRACT: note_on channel=9 note=44 velocity=95 time=0
EXTRACT: note_off channel=2 note=64 velocity=95 time=0.14150925
EXTRACT: note_off channel=14 note=38 velocity=111 time=0
EXTRACT: note_on channel=14 note=38 velocity=111 time=0
EXTRACT: note_off channel=9 note=0 velocity=95 time=0
EXTRACT: note_off channel=9 note=35 velocity=95 time=0
EXTRACT: note_off channel=9 note=44 velocity=95 time=0
EXTRACT: note_off channel=0 note=66 velocity=111 time=0.14150925
EXTRACT: note_off channel=0 note=62 velocity=111 time=0
EXTRACT: note_off channel=0 note=57 velocity=111 time=0
EXTRACT: note_off channel=0 note=50 velocity=111 time=0
EXTRACT: note_on channel=0 note=66 velocity=95 time=0
EXTRACT: note_on channel=0 note=62 velocity=111 time=0
EXTRACT: note_on channel=0 note=57 velocity=111 time=0
EXTRACT: note_on channel=0 note=50 velocity=111 time=0
EXTRACT: note_on channel=2 note=64 velocity=95 time=0
EXTRACT: note_on channel=4 note=73 velocity=95 time=0
EXTRACT: note_off channel=14 note=38 velocity=111 time=0
EXTRACT: note_on channel=14 note=38 velocity=111 time=0
EXTRACT: note_on channel=9 note=40 velocity=95 time=0
EXTRACT: note_on channel=9 note=44 velocity=95 time=0
EXTRACT: note_off channel=9 note=40 velocity=95 time=0.14150925
EXTRACT: note_off channel=9 note=44 velocity=95 time=0
EXTRACT: note_off channel=0 note=66 velocity=95 time=0.14150925
EXTRACT: note_off channel=0 note=62 velocity=111 time=0
EXTRACT: note_off channel=0 note=57 velocity=111 time=0
EXTRACT: note_off channel=0 note=50 velocity=111 time=0
EXTRACT: note_on channel=0 note=64 velocity=111 time=0
EXTRACT: note_on channel=0 note=59 velocity=95 time=0
EXTRACT: note_on channel=0 note=55 velocity=111 time=0
EXTRACT: note_on channel=0 note=50 velocity=111 time=0
EXTRACT: note_off channel=2 note=64 velocity=95 time=0
EXTRACT: note_on channel=2 note=61 velocity=95 time=0
EXTRACT: note_off channel=4 note=73 velocity=95 time=0
EXTRACT: note_on channel=4 note=69 velocity=95 time=0
EXTRACT: note_off channel=6 note=86 velocity=95 time=0
EXTRACT: note_off channel=6 note=81 velocity=95 time=0
EXTRACT: note_off channel=6 note=78 velocity=95 time=0
EXTRACT: note_on channel=9 note=35 velocity=95 time=0
EXTRACT: note_on channel=9 note=44 velocity=95 time=0
EXTRACT: note_off channel=0 note=64 velocity=111 time=0.031249959375
EXTRACT: note_off channel=0 note=59 velocity=95 time=0
EXTRACT: note_off channel=0 note=55 velocity=111 time=0
EXTRACT: note_off channel=0 note=50 velocity=111 time=0
EXTRACT: note_on channel=0 note=64 velocity=111 time=0.110259290625
EXTRACT: note_on channel=0 note=59 velocity=111 time=0
EXTRACT: note_on channel=0 note=56 velocity=95 time=0
EXTRACT: note_on channel=0 note=52 velocity=111 time=0
EXTRACT: note_off channel=2 note=61 velocity=95 time=0
EXTRACT: note_on channel=2 note=64 velocity=95 time=0
EXTRACT: note_off channel=4 note=69 velocity=95 time=0
EXTRACT: note_on channel=4 note=71 velocity=95 time=0
EXTRACT: note_off channel=14 note=38 velocity=111 time=0
EXTRACT: note_on channel=14 note=40 velocity=111 time=0
EXTRACT: note_off channel=9 note=35 velocity=95 time=0
EXTRACT: note_off channel=9 note=44 velocity=95 time=0
EXTRACT: note_on channel=9 note=0 velocity=95 time=0
EXTRACT: note_on channel=9 note=35 velocity=95 time=0
EXTRACT: note_on channel=9 note=44 velocity=95 time=0
EXTRACT: note_off channel=0 note=64 velocity=111 time=0.14150925
EXTRACT: note_off channel=0 note=59 velocity=111 time=0
EXTRACT: note_off channel=0 note=56 velocity=95 time=0
EXTRACT: note_off channel=0 note=52 velocity=111 time=0
EXTRACT: note_off channel=14 note=40 velocity=111 time=0
EXTRACT: note_off channel=9 note=0 velocity=95 time=0
EXTRACT: note_off channel=9 note=35 velocity=95 time=0
EXTRACT: note_off channel=9 note=44 velocity=95 time=0
EXTRACT: note_on channel=9 note=0 velocity=95 time=0
EXTRACT: note_on channel=9 note=44 velocity=95 time=0
EXTRACT: note_on channel=0 note=64 velocity=95 time=0.14150925
EXTRACT: note_on channel=0 note=59 velocity=111 time=0
EXTRACT: note_on channel=0 note=56 velocity=111 time=0
EXTRACT: note_on channel=0 note=52 velocity=111 time=0
EXTRACT: note_on channel=6 note=88 velocity=95 time=0
EXTRACT: note_on channel=6 note=83 velocity=95 time=0
EXTRACT: note_on channel=14 note=40 velocity=111 time=0
EXTRACT: note_off channel=9 note=0 velocity=95 time=0
EXTRACT: note_off channel=9 note=44 velocity=95 time=0
EXTRACT: note_on channel=9 note=35 velocity=95 time=0
EXTRACT: note_off channel=0 note=64 velocity=95 time=0.14150925
EXTRACT: note_off channel=0 note=59 velocity=111 time=0
EXTRACT: note_off channel=0 note=56 velocity=111 time=0
EXTRACT: note_off channel=0 note=52 velocity=111 time=0
EXTRACT: note_on channel=0 note=64 velocity=111 time=0
EXTRACT: note_on channel=0 note=59 velocity=95 time=0
EXTRACT: note_on channel=0 note=56 velocity=111 time=0
EXTRACT: note_on channel=0 note=52 velocity=111 time=0
EXTRACT: note_on channel=0 note=47 velocity=111 time=0
EXTRACT: note_off channel=2 note=64 velocity=95 time=0
EXTRACT: note_on channel=2 note=59 velocity=95 time=0
EXTRACT: note_off channel=4 note=71 velocity=95 time=0
EXTRACT: note_on channel=4 note=71 velocity=95 time=0
EXTRACT: note_off channel=6 note=88 velocity=95 time=0
EXTRACT: note_off channel=6 note=83 velocity=95 time=0
EXTRACT: note_off channel=14 note=40 velocity=111 time=0
EXTRACT: note_on channel=14 note=40 velocity=111 time=0
EXTRACT: note_off channel=9 note=35 velocity=95 time=0
EXTRACT: note_on channel=9 note=0 velocity=95 time=0
EXTRACT: note_on channel=9 note=35 velocity=95 time=0
EXTRACT: note_on channel=9 note=44 velocity=95 time=0
EXTRACT: note_off channel=2 note=59 velocity=95 time=0.14150925
EXTRACT: note_on channel=2 note=61 velocity=95 time=0
EXTRACT: note_off channel=4 note=71 velocity=95 time=0
EXTRACT: note_on channel=4 note=69 velocity=95 time=0
EXTRACT: note_on channel=6 note=76 velocity=95 time=0
EXTRACT: note_off channel=9 note=0 velocity=95 time=0
EXTRACT: note_off channel=9 note=35 velocity=95 time=0
EXTRACT: note_off channel=9 note=44 velocity=95 time=0
EXTRACT: note_off channel=0 note=64 velocity=111 time=0.14150925
EXTRACT: note_off channel=0 note=59 velocity=95 time=0
EXTRACT: note_off channel=0 note=56 velocity=111 time=0
EXTRACT: note_off channel=0 note=52 velocity=111 time=0
EXTRACT: note_off channel=0 note=47 velocity=111 time=0
EXTRACT: note_on channel=0 note=64 velocity=111 time=0
EXTRACT: note_on channel=0 note=59 velocity=111 time=0
EXTRACT: note_on channel=0 note=56 velocity=95 time=0
EXTRACT: note_on channel=0 note=52 velocity=111 time=0
EXTRACT: note_on channel=0 note=47 velocity=111 time=0
EXTRACT: note_off channel=4 note=69 velocity=95 time=0
EXTRACT: note_on channel=4 note=73 velocity=95 time=0
EXTRACT: note_off channel=6 note=76 velocity=95 time=0
EXTRACT: note_on channel=6 note=88 velocity=95 time=0
EXTRACT: note_on channel=6 note=83 velocity=95 time=0
EXTRACT: note_on channel=9 note=40 velocity=95 time=0
EXTRACT: note_on channel=9 note=46 velocity=95 time=0
EXTRACT: note_off channel=2 note=61 velocity=95 time=0.14150925
EXTRACT: note_off channel=4 note=73 velocity=95 time=0
EXTRACT: note_off channel=0 note=64 velocity=111 time=0.14150925
EXTRACT: note_off channel=0 note=59 velocity=111 time=0
EXTRACT: note_off channel=0 note=56 velocity=95 time=0
EXTRACT: note_off channel=0 note=52 velocity=111 time=0
EXTRACT: note_off channel=0 note=47 velocity=111 time=0
EXTRACT: note_on channel=0 note=55 velocity=95 time=0
EXTRACT: note_on channel=0 note=50 velocity=111 time=0
EXTRACT: note_on channel=0 note=45 velocity=111 time=0
EXTRACT: note_on channel=4 note=69 velocity=95 time=0
EXTRACT: note_off channel=6 note=88 velocity=95 time=0
EXTRACT: note_off channel=6 note=83 velocity=95 time=0
EXTRACT: note_on channel=6 note=76 velocity=95 time=0
EXTRACT: note_off channel=9 note=40 velocity=95 time=0
EXTRACT: note_off channel=9 note=46 velocity=95 time=0
EXTRACT: note_on channel=9 note=35 velocity=95 time=0
EXTRACT: note_on channel=9 note=44 velocity=95 time=0
EXTRACT: note_off channel=0 note=55 velocity=95 time=0.14150925
EXTRACT: note_off channel=0 note=50 velocity=111 time=0
EXTRACT: note_off channel=0 note=45 velocity=111 time=0
EXTRACT: note_on channel=0 note=55 velocity=111 time=0
EXTRACT: note_on channel=0 note=50 velocity=111 time=0
EXTRACT: note_on channel=0 note=45 velocity=111 time=0
EXTRACT: note_off channel=6 note=76 velocity=95 time=0
EXTRACT: note_off channel=9 note=35 velocity=95 time=0
EXTRACT: note_off channel=9 note=44 velocity=95 time=0
EXTRACT: note_on channel=9 note=0 velocity=95 time=0
EXTRACT: note_on channel=9 note=35 velocity=95 time=0
EXTRACT: note_on channel=9 note=44 velocity=95 time=0
EXTRACT: note_off channel=0 note=55 velocity=111 time=0.14150925
EXTRACT: note_off channel=0 note=50 velocity=111 time=0
EXTRACT: note_off channel=0 note=45 velocity=111 time=0
EXTRACT: note_on channel=0 note=61 velocity=111 time=0
EXTRACT: note_on channel=0 note=57 velocity=95 time=0
EXTRACT: note_on channel=0 note=52 velocity=111 time=0
EXTRACT: note_on channel=0 note=45 velocity=111 time=0
EXTRACT: note_off channel=4 note=69 velocity=95 time=0
EXTRACT: note_on channel=6 note=85 velocity=95 time=0
EXTRACT: note_on channel=6 note=81 velocity=95 time=0
EXTRACT: note_off channel=14 note=40 velocity=111 time=0
EXTRACT: note_on channel=14 note=33 velocity=111 time=0
EXTRACT: note_off channel=9 note=0 velocity=95 time=0
EXTRACT: note_off channel=9 note=35 velocity=95 time=0
EXTRACT: note_off channel=9 note=44 velocity=95 time=0
EXTRACT: note_on channel=9 note=0 velocity=95 time=0
EXTRACT: note_on channel=9 note=44 velocity=95 time=0
EXTRACT: note_off channel=14 note=33 velocity=111 time=0.2830185
EXTRACT: note_on channel=14 note=33 velocity=111 time=0
EXTRACT: note_off channel=9 note=0 velocity=95 time=0
EXTRACT: note_off channel=9 note=44 velocity=95 time=0
EXTRACT: note_on channel=9 note=0 velocity=95 time=0
EXTRACT: note_on channel=9 note=35 velocity=95 time=0
EXTRACT: note_on channel=9 note=44 velocity=95 time=0
EXTRACT: note_off channel=14 note=33 velocity=111 time=0.14150925
EXTRACT: note_on channel=14 note=33 velocity=111 time=0
EXTRACT: note_off channel=9 note=0 velocity=95 time=0
EXTRACT: note_off channel=9 note=35 velocity=95 time=0
EXTRACT: note_off channel=9 note=44 velocity=95 time=0
EXTRACT: note_off channel=0 note=61 velocity=111 time=0.14150925
EXTRACT: note_off channel=0 note=57 velocity=95 time=0
EXTRACT: note_off channel=0 note=52 velocity=111 time=0
EXTRACT: note_off channel=0 note=45 velocity=111 time=0
EXTRACT: note_on channel=0 note=61 velocity=111 time=0
EXTRACT: note_on channel=0 note=57 velocity=111 time=0
EXTRACT: note_on channel=0 note=52 velocity=111 time=0
EXTRACT: note_on channel=0 note=45 velocity=111 time=0
EXTRACT: note_on channel=4 note=69 velocity=95 time=0
EXTRACT: note_off channel=14 note=33 velocity=111 time=0
EXTRACT: note_on channel=14 note=33 velocity=111 time=0
EXTRACT: note_on channel=9 note=40 velocity=95 time=0
EXTRACT: note_on channel=9 note=44 velocity=95 time=0
EXTRACT: note_off channel=9 note=40 velocity=95 time=0.14150925
EXTRACT: note_off channel=9 note=44 velocity=95 time=0
EXTRACT: note_off channel=0 note=61 velocity=111 time=0.14150925
EXTRACT: note_off channel=0 note=57 velocity=111 time=0
EXTRACT: note_off channel=0 note=52 velocity=111 time=0
EXTRACT: note_off channel=0 note=45 velocity=111 time=0
EXTRACT: note_on channel=0 note=59 velocity=95 time=0
EXTRACT: note_on channel=0 note=55 velocity=111 time=0
EXTRACT: note_on channel=0 note=50 velocity=111 time=0
EXTRACT: note_on channel=0 note=45 velocity=111 time=0
EXTRACT: note_off channel=4 note=69 velocity=95 time=0
EXTRACT: note_on channel=4 note=66 velocity=95 time=0
EXTRACT: note_on channel=9 note=35 velocity=95 time=0
EXTRACT: note_on channel=9 note=44 velocity=95 time=0
EXTRACT: note_off channel=0 note=59 velocity=95 time=0.031249959375
EXTRACT: note_off channel=0 note=55 velocity=111 time=0
EXTRACT: note_off channel=0 note=50 velocity=111 time=0
EXTRACT: note_off channel=0 note=45 velocity=111 time=0
EXTRACT: note_on channel=0 note=64 velocity=111 time=0.110259290625
EXTRACT: note_on channel=0 note=59 velocity=111 time=0
EXTRACT: note_on channel=0 note=56 velocity=95 time=0
EXTRACT: note_on channel=0 note=52 velocity=111 time=0
EXTRACT: note_off channel=4 note=66 velocity=95 time=0
EXTRACT: note_on channel=4 note=69 velocity=95 time=0
EXTRACT: note_off channel=6 note=85 velocity=95 time=0
EXTRACT: note_off channel=6 note=81 velocity=95 time=0
EXTRACT: note_off channel=14 note=33 velocity=111 time=0
EXTRACT: note_on channel=14 note=40 velocity=111 time=0
EXTRACT: note_off channel=9 note=35 velocity=95 time=0
EXTRACT: note_off channel=9 note=44 velocity=95 time=0
EXTRACT: note_on channel=9 note=0 velocity=95 time=0
EXTRACT: note_on channel=9 note=35 velocity=95 time=0
EXTRACT: note_on channel=9 note=44 velocity=95 time=0
EXTRACT: note_off channel=0 note=64 velocity=111 time=0.14150925
EXTRACT: note_off channel=0 note=59 velocity=111 time=0
EXTRACT: note_off channel=0 note=56 velocity=95 time=0
EXTRACT: note_off channel=0 note=52 velocity=111 time=0
EXTRACT: note_on channel=6 note=83 velocity=95 time=0
EXTRACT: note_on channel=6 note=80 velocity=95 time=0
EXTRACT: note_off channel=14 note=40 velocity=111 time=0
EXTRACT: note_off channel=9 note=0 velocity=95 time=0
EXTRACT: note_off channel=9 note=35 velocity=95 time=0
EXTRACT: note_off channel=9 note=44 velocity=95 time=0
EXTRACT: note_on channel=9 note=0 velocity=95 time=0
EXTRACT: note_on channel=9 note=44 velocity=95 time=0
EXTRACT: note_on channel=0 note=64 velocity=95 time=0.14150925
EXTRACT: note_on channel=0 note=59 velocity=111 time=0
EXTRACT: note_on channel=0 note=56 velocity=111 time=0
EXTRACT: note_on channel=0 note=52 velocity=111 time=0
EXTRACT: note_off channel=4 note=69 velocity=95 time=0
EXTRACT: note_on channel=4 note=66 velocity=95 time=0
EXTRACT: note_on channel=14 note=40 velocity=111 time=0
EXTRACT: note_off channel=0 note=64 velocity=95 time=0.14150925
EXTRACT: note_off channel=0 note=59 velocity=111 time=0
EXTRACT: note_off channel=0 note=56 velocity=111 time=0
EXTRACT: note_off channel=0 note=52 velocity=111 time=0
EXTRACT: note_on channel=0 note=64 velocity=111 time=0
EXTRACT: note_on channel=0 note=59 velocity=95 time=0
EXTRACT: note_on channel=0 note=56 velocity=111 time=0
EXTRACT: note_on channel=0 note=52 velocity=111 time=0
EXTRACT: note_on channel=0 note=47 velocity=111 time=0
EXTRACT: note_off channel=14 note=40 velocity=111 time=0
EXTRACT: note_on channel=14 note=40 velocity=111 time=0
EXTRACT: note_off channel=9 note=0 velocity=95 time=0
EXTRACT: note_off channel=9 note=44 velocity=95 time=0
EXTRACT: note_on channel=9 note=0 velocity=95 time=0
EXTRACT: note_on channel=9 note=35 velocity=95 time=0
EXTRACT: note_on channel=9 note=44 velocity=95 time=0
EXTRACT: note_off channel=4 note=66 velocity=95 time=0.14150925
EXTRACT: note_off channel=9 note=0 velocity=95 time=0
EXTRACT: note_off channel=9 note=35 velocity=95 time=0
EXTRACT: note_off channel=9 note=44 velocity=95 time=0
EXTRACT: note_off channel=0 note=64 velocity=111 time=0.14150925
EXTRACT: note_off channel=0 note=59 velocity=95 time=0
EXTRACT: note_off channel=0 note=56 velocity=111 time=0
EXTRACT: note_off channel=0 note=52 velocity=111 time=0
EXTRACT: note_off channel=0 note=47 velocity=111 time=0
EXTRACT: note_on channel=0 note=64 velocity=111 time=0
EXTRACT: note_on channel=0 note=59 velocity=111 time=0
EXTRACT: note_on channel=0 note=56 velocity=95 time=0
EXTRACT: note_on channel=0 note=52 velocity=111 time=0
EXTRACT: note_on channel=0 note=47 velocity=111 time=0
EXTRACT: note_on channel=2 note=57 velocity=95 time=0
EXTRACT: note_on channel=9 note=40 velocity=95 time=0
EXTRACT: note_on channel=9 note=44 velocity=95 time=0
EXTRACT: note_off channel=2 note=57 velocity=95 time=0.14150925
EXTRACT: note_on channel=2 note=57 velocity=95 time=0
EXTRACT: note_off channel=9 note=40 velocity=95 time=0
EXTRACT: note_off channel=9 note=44 velocity=95 time=0
EXTRACT: note_off channel=0 note=64 velocity=111 time=0.14150925
EXTRACT: note_off channel=0 note=59 velocity=111 time=0
EXTRACT: note_off channel=0 note=56 velocity=95 time=0
EXTRACT: note_off channel=0 note=52 velocity=111 time=0
EXTRACT: note_off channel=0 note=47 velocity=111 time=0
EXTRACT: note_on channel=0 note=55 velocity=95 time=0
EXTRACT: note_on channel=0 note=50 velocity=111 time=0
EXTRACT: note_on channel=0 note=45 velocity=111 time=0
EXTRACT: note_off channel=2 note=57 velocity=95 time=0
EXTRACT: note_on channel=2 note=57 velocity=95 time=0
EXTRACT: note_off channel=6 note=83 velocity=95 time=0
EXTRACT: note_off channel=6 note=80 velocity=95 time=0
EXTRACT: note_on channel=9 note=35 velocity=95 time=0
EXTRACT: note_on channel=9 note=44 velocity=95 time=0
EXTRACT: note_off channel=0 note=55 velocity=95 time=0.14150925
EXTRACT: note_off channel=0 note=50 velocity=111 time=0
EXTRACT: note_off channel=0 note=45 velocity=111 time=0
EXTRACT: note_on channel=0 note=55 velocity=111 time=0
EXTRACT: note_on channel=0 note=50 velocity=111 time=0
EXTRACT: note_on channel=0 note=45 velocity=111 time=0
EXTRACT: note_off channel=2 note=57 velocity=95 time=0
EXTRACT: note_on channel=2 note=57 velocity=95 time=0
EXTRACT: note_off channel=9 note=35 velocity=95 time=0
EXTRACT: note_off channel=9 note=44 velocity=95 time=0
EXTRACT: note_on channel=9 note=0 velocity=95 time=0
EXTRACT: note_on channel=9 note=35 velocity=95 time=0
EXTRACT: note_on channel=9 note=44 velocity=95 time=0
EXTRACT: note_off channel=0 note=55 velocity=111 time=0.14150925
EXTRACT: note_off channel=0 note=50 velocity=111 time=0
EXTRACT: note_off channel=0 note=45 velocity=111 time=0
EXTRACT: note_on channel=0 note=66 velocity=111 time=0
EXTRACT: note_on channel=0 note=62 velocity=111 time=0
EXTRACT: note_on channel=0 note=57 velocity=111 time=0
EXTRACT: note_on channel=0 note=50 velocity=111 time=0
EXTRACT: note_off channel=2 note=57 velocity=95 time=0
EXTRACT: note_on channel=2 note=61 velocity=95 time=0
EXTRACT: note_on channel=6 note=86 velocity=95 time=0
EXTRACT: note_on channel=6 note=81 velocity=95 time=0
EXTRACT: note_off channel=14 note=40 velocity=111 time=0
EXTRACT: note_on channel=14 note=38 velocity=111 time=0
EXTRACT: note_off channel=9 note=0 velocity=95 time=0
EXTRACT: note_off channel=9 note=35 velocity=95 time=0
EXTRACT: note_off channel=9 note=44 velocity=95 time=0
EXTRACT: note_on channel=9 note=0 velocity=95 time=0
EXTRACT: note_on channel=9 note=44 velocity=95 time=0
EXTRACT: note_off channel=2 note=61 velocity=95 time=0.14150925
EXTRACT: note_off channel=9 note=0 velocity=95 time=0
EXTRACT: note_off channel=9 note=44 velocity=95 time=0
EXTRACT: note_on channel=9 note=35 velocity=95 time=0
EXTRACT: note_on channel=2 note=64 velocity=95 time=0.14150925
EXTRACT: note_off channel=14 note=38 velocity=111 time=0
EXTRACT: note_on channel=14 note=38 velocity=111 time=0
EXTRACT: note_off channel=9 note=35 velocity=95 time=0
EXTRACT: note_on channel=9 note=0 velocity=95 time=0
EXTRACT: note_on channel=9 note=35 velocity=95 time=0
EXTRACT: note_on channel=9 note=44 velocity=95 time=0
EXTRACT: note_on channel=4 note=69 velocity=95 time=0.14150925
EXTRACT: note_off channel=14 note=38 velocity=111 time=0
EXTRACT: note_on channel=14 note=38 velocity=111 time=0
EXTRACT: note_off channel=9 note=0 velocity=95 time=0
EXTRACT: note_off channel=9 note=35 velocity=95 time=0
EXTRACT: note_off channel=9 note=44 velocity=95 time=0
EXTRACT: note_off channel=0 note=66 velocity=111 time=0.14150925
EXTRACT: note_off channel=0 note=62 velocity=111 time=0
EXTRACT: note_off channel=0 note=57 velocity=111 time=0
EXTRACT: note_off channel=0 note=50 velocity=111 time=0
EXTRACT: note_on channel=0 note=66 velocity=95 time=0
EXTRACT: note_on channel=0 note=62 velocity=111 time=0
EXTRACT: note_on channel=0 note=57 velocity=111 time=0
EXTRACT: note_on channel=0 note=50 velocity=111 time=0
EXTRACT: note_off channel=4 note=69 velocity=95 time=0
EXTRACT: note_on channel=4 note=73 velocity=95 time=0
EXTRACT: note_off channel=14 note=38 velocity=111 time=0
EXTRACT: note_on channel=14 note=38 velocity=111 time=0
EXTRACT: note_on channel=9 note=40 velocity=95 time=0
EXTRACT: note_on channel=9 note=44 velocity=95 time=0
EXTRACT: note_off channel=9 note=40 velocity=95 time=0.14150925
EXTRACT: note_off channel=9 note=44 velocity=95 time=0
EXTRACT: note_off channel=0 note=66 velocity=95 time=0.14150925
EXTRACT: note_off channel=0 note=62 velocity=111 time=0
EXTRACT: note_off channel=0 note=57 velocity=111 time=0
EXTRACT: note_off channel=0 note=50 velocity=111 time=0
EXTRACT: note_on channel=0 note=64 velocity=111 time=0
EXTRACT: note_on channel=0 note=59 velocity=95 time=0
EXTRACT: note_on channel=0 note=55 velocity=111 time=0
EXTRACT: note_on channel=0 note=50 velocity=111 time=0
EXTRACT: note_off channel=2 note=64 velocity=95 time=0
EXTRACT: note_on channel=2 note=59 velocity=95 time=0
EXTRACT: note_off channel=4 note=73 velocity=95 time=0
EXTRACT: note_on channel=4 note=69 velocity=95 time=0
EXTRACT: note_off channel=6 note=86 velocity=95 time=0
EXTRACT: note_off channel=6 note=81 velocity=95 time=0
EXTRACT: note_on channel=9 note=35 velocity=95 time=0
EXTRACT: note_on channel=9 note=44 velocity=95 time=0
EXTRACT: note_off channel=0 note=64 velocity=111 time=0.031249959375
EXTRACT: note_off channel=0 note=59 velocity=95 time=0
EXTRACT: note_off channel=0 note=55 velocity=111 time=0
EXTRACT: note_off channel=0 note=50 velocity=111 time=0
EXTRACT: note_on channel=0 note=64 velocity=111 time=0.110259290625
EXTRACT: note_on channel=0 note=59 velocity=111 time=0
EXTRACT: note_on channel=0 note=56 velocity=95 time=0
EXTRACT: note_on channel=0 note=52 velocity=111 time=0
EXTRACT: note_off channel=4 note=69 velocity=95 time=0
EXTRACT: note_on channel=4 note=71 velocity=95 time=0
EXTRACT: note_off channel=14 note=38 velocity=111 time=0
EXTRACT: note_on channel=14 note=40 velocity=111 time=0
EXTRACT: note_off channel=9 note=35 velocity=95 time=0
EXTRACT: note_off channel=9 note=44 velocity=95 time=0
EXTRACT: note_on channel=9 note=0 velocity=95 time=0
EXTRACT: note_on channel=9 note=35 velocity=95 time=0
EXTRACT: note_on channel=9 note=44 velocity=95 time=0
EXTRACT: note_off channel=0 note=64 velocity=111 time=0.14150925
EXTRACT: note_off channel=0 note=59 velocity=111 time=0
EXTRACT: note_off channel=0 note=56 velocity=95 time=0
EXTRACT: note_off channel=0 note=52 velocity=111 time=0
EXTRACT: note_off channel=14 note=40 velocity=111 time=0
EXTRACT: note_off channel=9 note=0 velocity=95 time=0
EXTRACT: note_off channel=9 note=35 velocity=95 time=0
EXTRACT: note_off channel=9 note=44 velocity=95 time=0
EXTRACT: note_on channel=9 note=0 velocity=95 time=0
EXTRACT: note_on channel=9 note=44 velocity=95 time=0
EXTRACT: note_on channel=0 note=64 velocity=95 time=0.14150925
EXTRACT: note_on channel=0 note=59 velocity=111 time=0
EXTRACT: note_on channel=0 note=56 velocity=111 time=0
EXTRACT: note_on channel=0 note=52 velocity=111 time=0
EXTRACT: note_off channel=4 note=71 velocity=95 time=0
EXTRACT: note_on channel=6 note=83 velocity=95 time=0
EXTRACT: note_on channel=6 note=80 velocity=95 time=0
EXTRACT: note_on channel=14 note=40 velocity=111 time=0
EXTRACT: note_off channel=9 note=0 velocity=95 time=0
EXTRACT: note_off channel=9 note=44 velocity=95 time=0
EXTRACT: note_on channel=9 note=0 velocity=95 time=0
EXTRACT: note_on channel=9 note=35 velocity=95 time=0
EXTRACT: note_on channel=9 note=44 velocity=95 time=0
EXTRACT: note_off channel=0 note=64 velocity=95 time=0.14150925
EXTRACT: note_off channel=0 note=59 velocity=111 time=0
EXTRACT: note_off channel=0 note=56 velocity=111 time=0
EXTRACT: note_off channel=0 note=52 velocity=111 time=0
EXTRACT: note_on channel=0 note=64 velocity=111 time=0
EXTRACT: note_on channel=0 note=59 velocity=95 time=0
EXTRACT: note_on channel=0 note=56 velocity=111 time=0
EXTRACT: note_on channel=0 note=52 velocity=111 time=0
EXTRACT: note_on channel=0 note=47 velocity=111 time=0
EXTRACT: note_on channel=4 note=71 velocity=95 time=0
EXTRACT: note_off channel=6 note=83 velocity=95 time=0
EXTRACT: note_off channel=6 note=80 velocity=95 time=0
EXTRACT: note_off channel=14 note=40 velocity=111 time=0
EXTRACT: note_on channel=14 note=40 velocity=111 time=0
EXTRACT: note_off channel=9 note=0 velocity=95 time=0
EXTRACT: note_off channel=9 note=35 velocity=95 time=0
EXTRACT: note_off channel=9 note=44 velocity=95 time=0
EXTRACT: note_on channel=9 note=0 velocity=95 time=0
EXTRACT: note_on channel=9 note=40 velocity=95 time=0
EXTRACT: note_on channel=9 note=46 velocity=95 time=0
EXTRACT: note_off channel=4 note=71 velocity=95 time=0.14150925
EXTRACT: note_on channel=4 note=69 velocity=95 time=0
EXTRACT: note_on channel=6 note=76 velocity=95 time=0
EXTRACT: note_off channel=9 note=0 velocity=95 time=0
EXTRACT: note_off channel=9 note=40 velocity=95 time=0
EXTRACT: note_off channel=9 note=46 velocity=95 time=0
EXTRACT: note_on channel=9 note=0 velocity=95 time=0
EXTRACT: note_on channel=9 note=40 velocity=95 time=0
EXTRACT: note_off channel=0 note=64 velocity=111 time=0.14150925
EXTRACT: note_off channel=0 note=59 velocity=95 time=0
EXTRACT: note_off channel=0 note=56 velocity=111 time=0
EXTRACT: note_off channel=0 note=52 velocity=111 time=0
EXTRACT: note_off channel=0 note=47 velocity=111 time=0
EXTRACT: note_on channel=0 note=64 velocity=111 time=0
EXTRACT: note_on channel=0 note=59 velocity=111 time=0
EXTRACT: note_on channel=0 note=56 velocity=95 time=0
EXTRACT: note_on channel=0 note=52 velocity=111 time=0
EXTRACT: note_on channel=0 note=47 velocity=111 time=0
EXTRACT: note_off channel=4 note=69 velocity=95 time=0
EXTRACT: note_on channel=4 note=73 velocity=95 time=0
EXTRACT: note_off channel=6 note=76 velocity=95 time=0
EXTRACT: note_on channel=6 note=83 velocity=95 time=0
EXTRACT: note_on channel=6 note=80 velocity=95 time=0
EXTRACT: note_off channel=9 note=0 velocity=95 time=0
EXTRACT: note_off channel=9 note=40 velocity=95 time=0
EXTRACT: note_on channel=9 note=0 velocity=95 time=0
EXTRACT: note_on channel=9 note=40 velocity=95 time=0
EXTRACT: note_on channel=9 note=44 velocity=95 time=0
EXTRACT: note_off channel=4 note=73 velocity=95 time=0.14150925
EXTRACT: note_off channel=9 note=0 velocity=95 time=0
EXTRACT: note_off channel=9 note=40 velocity=95 time=0
EXTRACT: note_off channel=9 note=44 velocity=95 time=0
EXTRACT: note_on channel=9 note=0 velocity=95 time=0
EXTRACT: note_on channel=9 note=40 velocity=95 time=0
EXTRACT: note_on channel=9 note=44 velocity=95 time=0
EXTRACT: note_off channel=0 note=64 velocity=111 time=0.14150925
EXTRACT: note_off channel=0 note=59 velocity=111 time=0
EXTRACT: note_off channel=0 note=56 velocity=95 time=0
EXTRACT: note_off channel=0 note=52 velocity=111 time=0
EXTRACT: note_off channel=0 note=47 velocity=111 time=0
EXTRACT: note_on channel=0 note=55 velocity=95 time=0
EXTRACT: note_on channel=0 note=50 velocity=111 time=0
EXTRACT: note_on channel=0 note=45 velocity=111 time=0
EXTRACT: note_on channel=4 note=73 velocity=95 time=0
EXTRACT: note_off channel=6 note=83 velocity=95 time=0
EXTRACT: note_off channel=6 note=80 velocity=95 time=0
EXTRACT: note_on channel=6 note=76 velocity=95 time=0
EXTRACT: note_off channel=9 note=0 velocity=95 time=0
EXTRACT: note_off channel=9 note=40 velocity=95 time=0
EXTRACT: note_off channel=9 note=44 velocity=95 time=0
EXTRACT: note_on channel=9 note=0 velocity=95 time=0
EXTRACT: note_on channel=9 note=40 velocity=95 time=0
EXTRACT: note_on channel=9 note=43 velocity=95 time=0
EXTRACT: note_on channel=9 note=45 velocity=95 time=0
EXTRACT: note_on channel=9 note=46 velocity=95 time=0
EXTRACT: note_off channel=0 note=55 velocity=95 time=0.14150925
EXTRACT: note_off channel=0 note=50 velocity=111 time=0
EXTRACT: note_off channel=0 note=45 velocity=111 time=0
EXTRACT: note_on channel=0 note=55 velocity=111 time=0
EXTRACT: note_on channel=0 note=50 velocity=111 time=0
EXTRACT: note_on channel=0 note=45 velocity=111 time=0
EXTRACT: note_off channel=6 note=76 velocity=95 time=0
EXTRACT: note_off channel=9 note=0 velocity=95 time=0
EXTRACT: note_off channel=9 note=40 velocity=95 time=0
EXTRACT: note_off channel=9 note=43 velocity=95 time=0
EXTRACT: note_off channel=9 note=45 velocity=95 time=0
EXTRACT: note_off channel=9 note=46 velocity=95 time=0
EXTRACT: note_on channel=9 note=0 velocity=95 time=0
EXTRACT: note_on channel=9 note=40 velocity=95 time=0
EXTRACT: note_on channel=9 note=43 velocity=95 time=0
EXTRACT: note_off channel=0 note=55 velocity=111 time=0.14150925
EXTRACT: note_off channel=0 note=50 velocity=111 time=0
EXTRACT: note_off channel=0 note=45 velocity=111 time=0
EXTRACT: note_on channel=0 note=61 velocity=111 time=0
EXTRACT: note_on channel=0 note=57 velocity=95 time=0
EXTRACT: note_on channel=0 note=52 velocity=111 time=0
EXTRACT: note_on channel=0 note=45 velocity=111 time=0
EXTRACT: note_off channel=2 note=59 velocity=95 time=0
EXTRACT: note_on channel=6 note=85 velocity=95 time=0
EXTRACT: note_on channel=6 note=81 velocity=95 time=0
EXTRACT: note_on channel=6 note=76 velocity=95 time=0
EXTRACT: note_off channel=14 note=40 velocity=111 time=0
EXTRACT: note_on channel=14 note=33 velocity=111 time=0
EXTRACT: note_off channel=9 note=0 velocity=95 time=0
EXTRACT: note_off channel=9 note=40 velocity=95 time=0
EXTRACT: note_off channel=9 note=43 velocity=95 time=0
EXTRACT: note_on channel=9 note=0 velocity=95 time=0
EXTRACT: note_on channel=9 note=35 velocity=95 time=0
EXTRACT: note_on channel=9 note=44 velocity=95 time=0
EXTRACT: note_on channel=9 note=49 velocity=95 time=0
EXTRACT: note_on channel=9 note=55 velocity=95 time=0
EXTRACT: note_off channel=9 note=0 velocity=95 time=0.14150925
EXTRACT: note_off channel=9 note=35 velocity=95 time=0
EXTRACT: note_off channel=9 note=44 velocity=95 time=0
EXTRACT: note_off channel=9 note=49 velocity=95 time=0
EXTRACT: note_off channel=9 note=55 velocity=95 time=0
EXTRACT: note_on channel=9 note=35 velocity=95 time=0.14150925
EXTRACT: note_on channel=9 note=44 velocity=95 time=0
EXTRACT: note_off channel=9 note=35 velocity=95 time=0.14150925
EXTRACT: note_off channel=9 note=44 velocity=95 time=0
EXTRACT: note_off channel=0 note=61 velocity=111 time=0.14150925
EXTRACT: note_off channel=0 note=57 velocity=95 time=0
EXTRACT: note_off channel=0 note=52 velocity=111 time=0
EXTRACT: note_off channel=0 note=45 velocity=111 time=0
EXTRACT: note_on channel=0 note=61 velocity=111 time=0
EXTRACT: note_on channel=0 note=57 velocity=111 time=0
EXTRACT: note_on channel=0 note=52 velocity=111 time=0
EXTRACT: note_on channel=0 note=45 velocity=111 time=0
EXTRACT: note_on channel=9 note=40 velocity=95 time=0
EXTRACT: note_on channel=9 note=44 velocity=95 time=0
EXTRACT: note_off channel=9 note=40 velocity=95 time=0.14150925
EXTRACT: note_off channel=9 note=44 velocity=95 time=0
EXTRACT: note_off channel=0 note=61 velocity=111 time=0.14150925
EXTRACT: note_off channel=0 note=57 velocity=111 time=0
EXTRACT: note_off channel=0 note=52 velocity=111 time=0
EXTRACT: note_off channel=0 note=45 velocity=111 time=0
EXTRACT: note_on channel=0 note=59 velocity=95 time=0
EXTRACT: note_on channel=0 note=55 velocity=111 time=0
EXTRACT: note_on channel=0 note=50 velocity=111 time=0
EXTRACT: note_on channel=0 note=45 velocity=111 time=0
EXTRACT: note_on channel=9 note=35 velocity=95 time=0
EXTRACT: note_on channel=9 note=44 velocity=95 time=0
EXTRACT: note_off channel=0 note=59 velocity=95 time=0.031249959375
EXTRACT: note_off channel=0 note=55 velocity=111 time=0
EXTRACT: note_off channel=0 note=50 velocity=111 time=0
EXTRACT: note_off channel=0 note=45 velocity=111 time=0
EXTRACT: note_on channel=0 note=64 velocity=111 time=0.110259290625
EXTRACT: note_on channel=0 note=59 velocity=111 time=0
EXTRACT: note_on channel=0 note=56 velocity=95 time=0
EXTRACT: note_on channel=0 note=52 velocity=111 time=0
EXTRACT: note_off channel=6 note=85 velocity=95 time=0
EXTRACT: note_off channel=6 note=81 velocity=95 time=0
EXTRACT: note_off channel=6 note=76 velocity=95 time=0
EXTRACT: note_off channel=9 note=35 velocity=95 time=0
EXTRACT: note_off channel=9 note=44 velocity=95 time=0
EXTRACT: note_on channel=9 note=0 velocity=95 time=0
EXTRACT: note_on channel=9 note=35 velocity=95 time=0
EXTRACT: note_on channel=9 note=44 velocity=95 time=0
EXTRACT: note_off channel=0 note=64 velocity=111 time=0.14150925
EXTRACT: note_off channel=0 note=59 velocity=111 time=0
EXTRACT: note_off channel=0 note=56 velocity=95 time=0
EXTRACT: note_off channel=0 note=52 velocity=111 time=0
EXTRACT: note_off channel=14 note=33 velocity=111 time=0
EXTRACT: note_on channel=14 note=40 velocity=111 time=0
EXTRACT: note_off channel=9 note=0 velocity=95 time=0
EXTRACT: note_off channel=9 note=35 velocity=95 time=0
EXTRACT: note_off channel=9 note=44 velocity=95 time=0
EXTRACT: note_on channel=9 note=0 velocity=95 time=0
EXTRACT: note_on channel=9 note=44 velocity=95 time=0
EXTRACT: note_on channel=0 note=64 velocity=95 time=0.14150925
EXTRACT: note_on channel=0 note=59 velocity=111 time=0
EXTRACT: note_on channel=0 note=56 velocity=111 time=0
EXTRACT: note_on channel=0 note=52 velocity=111 time=0
EXTRACT: note_on channel=6 note=83 velocity=95 time=0
EXTRACT: note_on channel=6 note=80 velocity=95 time=0
EXTRACT: note_off channel=0 note=64 velocity=95 time=0.14150925
EXTRACT: note_off channel=0 note=59 velocity=111 time=0
EXTRACT: note_off channel=0 note=56 velocity=111 time=0
EXTRACT: note_off channel=0 note=52 velocity=111 time=0
EXTRACT: note_on channel=0 note=64 velocity=111 time=0
EXTRACT: note_on channel=0 note=59 velocity=95 time=0
EXTRACT: note_on channel=0 note=56 velocity=111 time=0
EXTRACT: note_on channel=0 note=52 velocity=111 time=0
EXTRACT: note_on channel=0 note=47 velocity=111 time=0
EXTRACT: note_off channel=6 note=83 velocity=95 time=0
EXTRACT: note_off channel=6 note=80 velocity=95 time=0
EXTRACT: note_off channel=9 note=0 velocity=95 time=0
EXTRACT: note_off channel=9 note=44 velocity=95 time=0
EXTRACT: note_on channel=9 note=0 velocity=95 time=0
EXTRACT: note_on channel=9 note=35 velocity=95 time=0
EXTRACT: note_on channel=9 note=44 velocity=95 time=0
EXTRACT: note_off channel=4 note=73 velocity=95 time=0.14150925
EXTRACT: note_off channel=9 note=0 velocity=95 time=0
EXTRACT: note_off channel=9 note=35 velocity=95 time=0
EXTRACT: note_off channel=9 note=44 velocity=95 time=0
EXTRACT: note_off channel=0 note=64 velocity=111 time=0.14150925
EXTRACT: note_off channel=0 note=59 velocity=95 time=0
EXTRACT: note_off channel=0 note=56 velocity=111 time=0
EXTRACT: note_off channel=0 note=52 velocity=111 time=0
EXTRACT: note_off channel=0 note=47 velocity=111 time=0
EXTRACT: note_on channel=0 note=64 velocity=111 time=0
EXTRACT: note_on channel=0 note=59 velocity=111 time=0
EXTRACT: note_on channel=0 note=56 velocity=95 time=0
EXTRACT: note_on channel=0 note=52 velocity=111 time=0
EXTRACT: note_on channel=0 note=47 velocity=111 time=0
EXTRACT: note_on channel=4 note=71 velocity=95 time=0
EXTRACT: note_on channel=6 note=83 velocity=95 time=0
EXTRACT: note_on channel=6 note=80 velocity=95 time=0
EXTRACT: note_on channel=9 note=40 velocity=95 time=0
EXTRACT: note_on channel=9 note=44 velocity=95 time=0
EXTRACT: note_off channel=9 note=40 velocity=95 time=0.14150925
EXTRACT: note_off channel=9 note=44 velocity=95 time=0
EXTRACT: note_off channel=0 note=64 velocity=111 time=0.14150925
EXTRACT: note_off channel=0 note=59 velocity=111 time=0
EXTRACT: note_off channel=0 note=56 velocity=95 time=0
EXTRACT: note_off channel=0 note=52 velocity=111 time=0
EXTRACT: note_off channel=0 note=47 velocity=111 time=0
EXTRACT: note_on channel=0 note=55 velocity=95 time=0
EXTRACT: note_on channel=0 note=50 velocity=111 time=0
EXTRACT: note_on channel=0 note=45 velocity=111 time=0
EXTRACT: note_off channel=4 note=71 velocity=95 time=0
EXTRACT: note_on channel=4 note=69 velocity=95 time=0
EXTRACT: note_off channel=6 note=83 velocity=95 time=0
EXTRACT: note_off channel=6 note=80 velocity=95 time=0
EXTRACT: note_on channel=6 note=76 velocity=95 time=0
EXTRACT: note_on channel=9 note=35 velocity=95 time=0
EXTRACT: note_on channel=9 note=44 velocity=95 time=0
EXTRACT: note_off channel=0 note=55 velocity=95 time=0.14150925
EXTRACT: note_off channel=0 note=50 velocity=111 time=0
EXTRACT: note_off channel=0 note=45 velocity=111 time=0
EXTRACT: note_on channel=0 note=55 velocity=111 time=0
EXTRACT: note_on channel=0 note=50 velocity=111 time=0
EXTRACT: note_on channel=0 note=45 velocity=111 time=0
EXTRACT: note_off channel=9 note=35 velocity=95 time=0
EXTRACT: note_off channel=9 note=44 velocity=95 time=0
EXTRACT: note_on channel=9 note=0 velocity=95 time=0
EXTRACT: note_on channel=9 note=35 velocity=95 time=0
EXTRACT: note_on channel=9 note=44 velocity=95 time=0
EXTRACT: note_off channel=0 note=55 velocity=111 time=0.14150925
EXTRACT: note_off channel=0 note=50 velocity=111 time=0
EXTRACT: note_off channel=0 note=45 velocity=111 time=0
EXTRACT: note_on channel=0 note=66 velocity=111 time=0
EXTRACT: note_on channel=0 note=62 velocity=111 time=0
EXTRACT: note_on channel=0 note=57 velocity=111 time=0
EXTRACT: note_on channel=0 note=50 velocity=111 time=0
EXTRACT: note_off channel=6 note=76 velocity=95 time=0
EXTRACT: note_on channel=6 note=86 velocity=95 time=0
EXTRACT: note_on channel=6 note=81 velocity=95 time=0
EXTRACT: note_on channel=6 note=78 velocity=95 time=0
EXTRACT: note_off channel=14 note=40 velocity=111 time=0
EXTRACT: note_on channel=14 note=38 velocity=111 time=0
EXTRACT: note_off channel=9 note=0 velocity=95 time=0
EXTRACT: note_off channel=9 note=35 velocity=95 time=0
EXTRACT: note_off channel=9 note=44 velocity=95 time=0
EXTRACT: note_on channel=9 note=0 velocity=95 time=0
EXTRACT: note_on channel=9 note=44 velocity=95 time=0
EXTRACT: note_off channel=9 note=0 velocity=95 time=0.2830185
EXTRACT: note_off channel=9 note=44 velocity=95 time=0
EXTRACT: note_on channel=9 note=0 velocity=95 time=0
EXTRACT: note_on channel=9 note=35 velocity=95 time=0
EXTRACT: note_on channel=9 note=44 velocity=95 time=0
EXTRACT: note_off channel=4 note=69 velocity=95 time=0.14150925
EXTRACT: note_off channel=9 note=0 velocity=95 time=0
EXTRACT: note_off channel=9 note=35 velocity=95 time=0
EXTRACT: note_off channel=9 note=44 velocity=95 time=0
EXTRACT: note_off channel=0 note=66 velocity=111 time=0.14150925
EXTRACT: note_off channel=0 note=62 velocity=111 time=0
EXTRACT: note_off channel=0 note=57 velocity=111 time=0
EXTRACT: note_off channel=0 note=50 velocity=111 time=0
EXTRACT: note_on channel=0 note=66 velocity=95 time=0
EXTRACT: note_on channel=0 note=62 velocity=111 time=0
EXTRACT: note_on channel=0 note=57 velocity=111 time=0
EXTRACT: note_on channel=0 note=50 velocity=111 time=0
EXTRACT: note_on channel=4 note=69 velocity=95 time=0
EXTRACT: note_on channel=9 note=40 velocity=95 time=0
EXTRACT: note_on channel=9 note=44 velocity=95 time=0
EXTRACT: note_off channel=4 note=69 velocity=95 time=0.14150925
EXTRACT: note_off channel=9 note=40 velocity=95 time=0
EXTRACT: note_off channel=9 note=44 velocity=95 time=0
EXTRACT: note_off channel=0 note=66 velocity=95 time=0.14150925
EXTRACT: note_off channel=0 note=62 velocity=111 time=0
EXTRACT: note_off channel=0 note=57 velocity=111 time=0
EXTRACT: note_off channel=0 note=50 velocity=111 time=0
EXTRACT: note_on channel=0 note=64 velocity=111 time=0
EXTRACT: note_on channel=0 note=59 velocity=95 time=0
EXTRACT: note_on channel=0 note=55 velocity=111 time=0
EXTRACT: note_on channel=0 note=50 velocity=111 time=0
EXTRACT: note_on channel=4 note=69 velocity=95 time=0
EXTRACT: note_off channel=6 note=86 velocity=95 time=0
EXTRACT: note_off channel=6 note=81 velocity=95 time=0
EXTRACT: note_off channel=6 note=78 velocity=95 time=0
EXTRACT: note_on channel=9 note=35 velocity=95 time=0
EXTRACT: note_on channel=9 note=44 velocity=95 time=0
EXTRACT: note_off channel=0 note=64 velocity=111 time=0.031249959375
EXTRACT: note_off channel=0 note=59 velocity=95 time=0
EXTRACT: note_off channel=0 note=55 velocity=111 time=0
EXTRACT: note_off channel=0 note=50 velocity=111 time=0
EXTRACT: note_on channel=0 note=64 velocity=111 time=0.110259290625
EXTRACT: note_on channel=0 note=59 velocity=111 time=0
EXTRACT: note_on channel=0 note=56 velocity=95 time=0
EXTRACT: note_on channel=0 note=52 velocity=111 time=0
EXTRACT: note_off channel=4 note=69 velocity=95 time=0
EXTRACT: note_on channel=4 note=64 velocity=95 time=0
EXTRACT: note_off channel=9 note=35 velocity=95 time=0
EXTRACT: note_off channel=9 note=44 velocity=95 time=0
EXTRACT: note_on channel=9 note=0 velocity=95 time=0
EXTRACT: note_on channel=9 note=35 velocity=95 time=0
EXTRACT: note_on channel=9 note=44 velocity=95 time=0
EXTRACT: note_off channel=0 note=64 velocity=111 time=0.14150925
EXTRACT: note_off channel=0 note=59 velocity=111 time=0
EXTRACT: note_off channel=0 note=56 velocity=95 time=0
EXTRACT: note_off channel=0 note=52 velocity=111 time=0
EXTRACT: note_off channel=14 note=38 velocity=111 time=0
EXTRACT: note_on channel=14 note=40 velocity=111 time=0
EXTRACT: note_off channel=9 note=0 velocity=95 time=0
EXTRACT: note_off channel=9 note=35 velocity=95 time=0
EXTRACT: note_off channel=9 note=44 velocity=95 time=0
EXTRACT: note_on channel=9 note=0 velocity=95 time=0
EXTRACT: note_on channel=9 note=44 velocity=95 time=0
EXTRACT: note_on channel=0 note=64 velocity=95 time=0.14150925
EXTRACT: note_on channel=0 note=59 velocity=111 time=0
EXTRACT: note_on channel=0 note=56 velocity=111 time=0
EXTRACT: note_on channel=0 note=52 velocity=111 time=0
EXTRACT: note_off channel=4 note=64 velocity=95 time=0
EXTRACT: note_on channel=6 note=88 velocity=95 time=0
EXTRACT: note_on channel=6 note=83 velocity=95 time=0
EXTRACT: note_off channel=9 note=0 velocity=95 time=0
EXTRACT: note_off channel=9 note=44 velocity=95 time=0
EXTRACT: note_on channel=9 note=35 velocity=95 time=0
EXTRACT: note_off channel=0 note=64 velocity=95 time=0.14150925
EXTRACT: note_off channel=0 note=59 velocity=111 time=0
EXTRACT: note_off channel=0 note=56 velocity=111 time=0
EXTRACT: note_off channel=0 note=52 velocity=111 time=0
EXTRACT: note_on channel=0 note=64 velocity=111 time=0
EXTRACT: note_on channel=0 note=59 velocity=95 time=0
EXTRACT: note_on channel=0 note=56 velocity=111 time=0
EXTRACT: note_on channel=0 note=52 velocity=111 time=0
EXTRACT: note_on channel=0 note=47 velocity=111 time=0
EXTRACT: note_on channel=4 note=64 velocity=95 time=0
EXTRACT: note_off channel=6 note=88 velocity=95 time=0
EXTRACT: note_off channel=6 note=83 velocity=95 time=0
EXTRACT: note_off channel=9 note=35 velocity=95 time=0
EXTRACT: note_on channel=9 note=0 velocity=95 time=0
EXTRACT: note_on channel=9 note=35 velocity=95 time=0
EXTRACT: note_on channel=9 note=44 velocity=95 time=0
EXTRACT: note_off channel=4 note=64 velocity=95 time=0.14150925
EXTRACT: note_on channel=4 note=64 velocity=95 time=0
EXTRACT: note_on channel=6 note=76 velocity=95 time=0
EXTRACT: note_off channel=9 note=0 velocity=95 time=0
EXTRACT: note_off channel=9 note=35 velocity=95 time=0
EXTRACT: note_off channel=9 note=44 velocity=95 time=0
EXTRACT: note_off channel=0 note=64 velocity=111 time=0.14150925
EXTRACT: note_off channel=0 note=59 velocity=95 time=0
EXTRACT: note_off channel=0 note=56 velocity=111 time=0
EXTRACT: note_off channel=0 note=52 velocity=111 time=0
EXTRACT: note_off channel=0 note=47 velocity=111 time=0
EXTRACT: note_on channel=0 note=64 velocity=111 time=0
EXTRACT: note_on channel=0 note=59 velocity=111 time=0
EXTRACT: note_on channel=0 note=56 velocity=95 time=0
EXTRACT: note_on channel=0 note=52 velocity=111 time=0
EXTRACT: note_on channel=0 note=47 velocity=111 time=0
EXTRACT: note_off channel=4 note=64 velocity=95 time=0
EXTRACT: note_on channel=4 note=69 velocity=95 time=0
EXTRACT: note_off channel=6 note=76 velocity=95 time=0
EXTRACT: note_on channel=6 note=88 velocity=95 time=0
EXTRACT: note_on channel=6 note=83 velocity=95 time=0
EXTRACT: note_on channel=9 note=40 velocity=95 time=0
EXTRACT: note_on channel=9 note=46 velocity=95 time=0
EXTRACT: note_off channel=0 note=64 velocity=111 time=0.2830185
EXTRACT: note_off channel=0 note=59 velocity=111 time=0
EXTRACT: note_off channel=0 note=56 velocity=95 time=0
EXTRACT: note_off channel=0 note=52 velocity=111 time=0
EXTRACT: note_off channel=0 note=47 velocity=111 time=0
EXTRACT: note_on channel=0 note=55 velocity=95 time=0
EXTRACT: note_on channel=0 note=50 velocity=111 time=0
EXTRACT: note_on channel=0 note=45 velocity=111 time=0
EXTRACT: note_off channel=4 note=69 velocity=95 time=0
EXTRACT: note_on channel=4 note=68 velocity=95 time=0
EXTRACT: note_off channel=6 note=88 velocity=95 time=0
EXTRACT: note_off channel=6 note=83 velocity=95 time=0
EXTRACT: note_on channel=6 note=76 velocity=95 time=0
EXTRACT: note_off channel=9 note=40 velocity=95 time=0
EXTRACT: note_off channel=9 note=46 velocity=95 time=0
EXTRACT: note_on channel=9 note=35 velocity=95 time=0
EXTRACT: note_on channel=9 note=44 velocity=95 time=0
EXTRACT: note_off channel=0 note=55 velocity=95 time=0.14150925
EXTRACT: note_off channel=0 note=50 velocity=111 time=0
EXTRACT: note_off channel=0 note=45 velocity=111 time=0
EXTRACT: note_on channel=0 note=55 velocity=111 time=0
EXTRACT: note_on channel=0 note=50 velocity=111 time=0
EXTRACT: note_on channel=0 note=45 velocity=111 time=0
EXTRACT: note_off channel=4 note=68 velocity=95 time=0
EXTRACT: note_on channel=4 note=69 velocity=95 time=0
EXTRACT: note_off channel=6 note=76 velocity=95 time=0
EXTRACT: note_off channel=9 note=35 velocity=95 time=0
EXTRACT: note_off channel=9 note=44 velocity=95 time=0
EXTRACT: note_on channel=9 note=0 velocity=95 time=0
EXTRACT: note_on channel=9 note=35 velocity=95 time=0
EXTRACT: note_on channel=9 note=44 velocity=95 time=0
EXTRACT: note_off channel=0 note=55 velocity=111 time=0.14150925
EXTRACT: note_off channel=0 note=50 velocity=111 time=0
EXTRACT: note_off channel=0 note=45 velocity=111 time=0
EXTRACT: note_on channel=0 note=61 velocity=111 time=0
EXTRACT: note_on channel=0 note=57 velocity=95 time=0
EXTRACT: note_on channel=0 note=52 velocity=111 time=0
EXTRACT: note_on channel=0 note=45 velocity=111 time=0
EXTRACT: note_on channel=6 note=85 velocity=95 time=0
EXTRACT: note_on channel=6 note=81 velocity=95 time=0
EXTRACT: note_off channel=14 note=40 velocity=111 time=0
EXTRACT: note_on channel=14 note=33 velocity=111 time=0
EXTRACT: note_off channel=9 note=0 velocity=95 time=0
EXTRACT: note_off channel=9 note=35 velocity=95 time=0
EXTRACT: note_off channel=9 note=44 velocity=95 time=0
EXTRACT: note_on channel=9 note=0 velocity=95 time=0
EXTRACT: note_on channel=9 note=44 velocity=95 time=0
EXTRACT: note_off channel=9 note=0 velocity=95 time=0.2830185
EXTRACT: note_off channel=9 note=44 velocity=95 time=0
EXTRACT: note_on channel=9 note=0 velocity=95 time=0
EXTRACT: note_on channel=9 note=35 velocity=95 time=0
EXTRACT: note_on channel=9 note=44 velocity=95 time=0
EXTRACT: note_off channel=4 note=69 velocity=95 time=0.14150925
EXTRACT: note_off channel=9 note=0 velocity=95 time=0
EXTRACT: note_off channel=9 note=35 velocity=95 time=0
EXTRACT: note_off channel=9 note=44 velocity=95 time=0
EXTRACT: note_off channel=0 note=61 velocity=111 time=0.14150925
EXTRACT: note_off channel=0 note=57 velocity=95 time=0
EXTRACT: note_off channel=0 note=52 velocity=111 time=0
EXTRACT: note_off channel=0 note=45 velocity=111 time=0
EXTRACT: note_on channel=0 note=61 velocity=111 time=0
EXTRACT: note_on channel=0 note=57 velocity=111 time=0
EXTRACT: note_on channel=0 note=52 velocity=111 time=0
EXTRACT: note_on channel=0 note=45 velocity=111 time=0
EXTRACT: note_on channel=9 note=40 velocity=95 time=0
EXTRACT: note_on channel=9 note=44 velocity=95 time=0
EXTRACT: note_off channel=9 note=40 velocity=95 time=0.14150925
EXTRACT: note_off channel=9 note=44 velocity=95 time=0
EXTRACT: note_off channel=0 note=61 velocity=111 time=0.14150925
EXTRACT: note_off channel=0 note=57 velocity=111 time=0
EXTRACT: note_off channel=0 note=52 velocity=111 time=0
EXTRACT: note_off channel=0 note=45 velocity=111 time=0
EXTRACT: note_on channel=0 note=59 velocity=95 time=0
EXTRACT: note_on channel=0 note=55 velocity=111 time=0
EXTRACT: note_on channel=0 note=50 velocity=111 time=0
EXTRACT: note_on channel=0 note=45 velocity=111 time=0
EXTRACT: note_on channel=9 note=35 velocity=95 time=0
EXTRACT: note_on channel=9 note=44 velocity=95 time=0
EXTRACT: note_off channel=0 note=59 velocity=95 time=0.031249959375
EXTRACT: note_off channel=0 note=55 velocity=111 time=0
EXTRACT: note_off channel=0 note=50 velocity=111 time=0
EXTRACT: note_off channel=0 note=45 velocity=111 time=0
EXTRACT: note_on channel=0 note=64 velocity=111 time=0.110259290625
EXTRACT: note_on channel=0 note=59 velocity=111 time=0
EXTRACT: note_on channel=0 note=56 velocity=95 time=0
EXTRACT: note_on channel=0 note=52 velocity=111 time=0
EXTRACT: note_on channel=4 note=64 velocity=95 time=0
EXTRACT: note_off channel=6 note=85 velocity=95 time=0
EXTRACT: note_off channel=6 note=81 velocity=95 time=0
EXTRACT: note_off channel=9 note=35 velocity=95 time=0
EXTRACT: note_off channel=9 note=44 velocity=95 time=0
EXTRACT: note_on channel=9 note=0 velocity=95 time=0
EXTRACT: note_on channel=9 note=35 velocity=95 time=0
EXTRACT: note_on channel=9 note=44 velocity=95 time=0
EXTRACT: note_off channel=0 note=64 velocity=111 time=0.14150925
EXTRACT: note_off channel=0 note=59 velocity=111 time=0
EXTRACT: note_off channel=0 note=56 velocity=95 time=0
EXTRACT: note_off channel=0 note=52 velocity=111 time=0
EXTRACT: note_off channel=4 note=64 velocity=95 time=0
EXTRACT: note_on channel=4 note=69 velocity=95 time=0
EXTRACT: note_on channel=6 note=83 velocity=95 time=0
EXTRACT: note_on channel=6 note=80 velocity=95 time=0
EXTRACT: note_off channel=14 note=33 velocity=111 time=0
EXTRACT: note_on channel=14 note=40 velocity=111 time=0
EXTRACT: note_off channel=9 note=0 velocity=95 time=0
EXTRACT: note_off channel=9 note=35 velocity=95 time=0
EXTRACT: note_off channel=9 note=44 velocity=95 time=0
EXTRACT: note_on channel=9 note=0 velocity=95 time=0
EXTRACT: note_on channel=9 note=44 velocity=95 time=0
EXTRACT: note_on channel=0 note=64 velocity=95 time=0.14150925
EXTRACT: note_on channel=0 note=59 velocity=111 time=0
EXTRACT: note_on channel=0 note=56 velocity=111 time=0
EXTRACT: note_on channel=0 note=52 velocity=111 time=0
EXTRACT: note_off channel=4 note=69 velocity=95 time=0
EXTRACT: note_off channel=0 note=64 velocity=95 time=0.14150925
EXTRACT: note_off channel=0 note=59 velocity=111 time=0
EXTRACT: note_off channel=0 note=56 velocity=111 time=0
EXTRACT: note_off channel=0 note=52 velocity=111 time=0
EXTRACT: note_on channel=0 note=64 velocity=111 time=0
EXTRACT: note_on channel=0 note=59 velocity=95 time=0
EXTRACT: note_on channel=0 note=56 velocity=111 time=0
EXTRACT: note_on channel=0 note=52 velocity=111 time=0
EXTRACT: note_on channel=0 note=47 velocity=111 time=0
EXTRACT: note_on channel=4 note=71 velocity=95 time=0
EXTRACT: note_off channel=9 note=0 velocity=95 time=0
EXTRACT: note_off channel=9 note=44 velocity=95 time=0
EXTRACT: note_on channel=9 note=0 velocity=95 time=0
EXTRACT: note_on channel=9 note=35 velocity=95 time=0
EXTRACT: note_on channel=9 note=44 velocity=95 time=0
EXTRACT: note_off channel=4 note=71 velocity=95 time=0.14150925
EXTRACT: note_off channel=9 note=0 velocity=95 time=0
EXTRACT: note_off channel=9 note=35 velocity=95 time=0
EXTRACT: note_off channel=9 note=44 velocity=95 time=0
EXTRACT: note_off channel=0 note=64 velocity=111 time=0.14150925
EXTRACT: note_off channel=0 note=59 velocity=95 time=0
EXTRACT: note_off channel=0 note=56 velocity=111 time=0
EXTRACT: note_off channel=0 note=52 velocity=111 time=0
EXTRACT: note_off channel=0 note=47 velocity=111 time=0
EXTRACT: note_on channel=0 note=64 velocity=111 time=0
EXTRACT: note_on channel=0 note=59 velocity=111 time=0
EXTRACT: note_on channel=0 note=56 velocity=95 time=0
EXTRACT: note_on channel=0 note=52 velocity=111 time=0
EXTRACT: note_on channel=0 note=47 velocity=111 time=0
EXTRACT: note_on channel=4 note=73 velocity=95 time=0
EXTRACT: note_on channel=9 note=40 velocity=95 time=0
EXTRACT: note_on channel=9 note=44 velocity=95 time=0
EXTRACT: note_off channel=9 note=40 velocity=95 time=0.14150925
EXTRACT: note_off channel=9 note=44 velocity=95 time=0
EXTRACT: note_off channel=0 note=64 velocity=111 time=0.14150925
EXTRACT: note_off channel=0 note=59 velocity=111 time=0
EXTRACT: note_off channel=0 note=56 velocity=95 time=0
EXTRACT: note_off channel=0 note=52 velocity=111 time=0
EXTRACT: note_off channel=0 note=47 velocity=111 time=0
EXTRACT: note_on channel=0 note=55 velocity=95 time=0
EXTRACT: note_on channel=0 note=50 velocity=111 time=0
EXTRACT: note_on channel=0 note=45 velocity=111 time=0
EXTRACT: note_off channel=6 note=83 velocity=95 time=0
EXTRACT: note_off channel=6 note=80 velocity=95 time=0
EXTRACT: note_on channel=9 note=35 velocity=95 time=0
EXTRACT: note_on channel=9 note=44 velocity=95 time=0
EXTRACT: note_off channel=0 note=55 velocity=95 time=0.14150925
EXTRACT: note_off channel=0 note=50 velocity=111 time=0
EXTRACT: note_off channel=0 note=45 velocity=111 time=0
EXTRACT: note_on channel=0 note=55 velocity=111 time=0
EXTRACT: note_on channel=0 note=50 velocity=111 time=0
EXTRACT: note_on channel=0 note=45 velocity=111 time=0
EXTRACT: note_off channel=4 note=73 velocity=95 time=0
EXTRACT: note_on channel=4 note=69 velocity=95 time=0
EXTRACT: note_off channel=9 note=35 velocity=95 time=0
EXTRACT: note_off channel=9 note=44 velocity=95 time=0
EXTRACT: note_on channel=9 note=0 velocity=95 time=0
EXTRACT: note_on channel=9 note=35 velocity=95 time=0
EXTRACT: note_on channel=9 note=44 velocity=95 time=0
EXTRACT: note_off channel=0 note=55 velocity=111 time=0.14150925
EXTRACT: note_off channel=0 note=50 velocity=111 time=0
EXTRACT: note_off channel=0 note=45 velocity=111 time=0
EXTRACT: note_on channel=0 note=66 velocity=111 time=0
EXTRACT: note_on channel=0 note=62 velocity=111 time=0
EXTRACT: note_on channel=0 note=57 velocity=111 time=0
EXTRACT: note_on channel=0 note=50 velocity=111 time=0
EXTRACT: note_on channel=2 note=64 velocity=95 time=0
EXTRACT: note_off channel=4 note=69 velocity=95 time=0
EXTRACT: note_on channel=4 note=73 velocity=95 time=0
EXTRACT: note_on channel=6 note=86 velocity=95 time=0
EXTRACT: note_on channel=6 note=81 velocity=95 time=0
EXTRACT: note_off channel=14 note=40 velocity=111 time=0
EXTRACT: note_on channel=14 note=38 velocity=111 time=0
EXTRACT: note_off channel=9 note=0 velocity=95 time=0
EXTRACT: note_off channel=9 note=35 velocity=95 time=0
EXTRACT: note_off channel=9 note=44 velocity=95 time=0
EXTRACT: note_on channel=9 note=0 velocity=95 time=0
EXTRACT: note_on channel=9 note=44 velocity=95 time=0
EXTRACT: note_off channel=2 note=64 velocity=95 time=0.14150925
EXTRACT: note_on channel=2 note=64 velocity=95 time=0
EXTRACT: note_off channel=4 note=73 velocity=95 time=0
EXTRACT: note_off channel=9 note=0 velocity=95 time=0
EXTRACT: note_off channel=9 note=44 velocity=95 time=0
EXTRACT: note_on channel=9 note=35 velocity=95 time=0
EXTRACT: note_off channel=2 note=64 velocity=95 time=0.14150925
EXTRACT: note_on channel=2 note=66 velocity=95 time=0
EXTRACT: note_on channel=4 note=74 velocity=95 time=0
EXTRACT: note_off channel=9 note=35 velocity=95 time=0
EXTRACT: note_on channel=9 note=0 velocity=95 time=0
EXTRACT: note_on channel=9 note=35 velocity=95 time=0
EXTRACT: note_on channel=9 note=44 velocity=95 time=0
EXTRACT: note_off channel=4 note=74 velocity=95 time=0.14150925
EXTRACT: note_off channel=9 note=0 velocity=95 time=0
EXTRACT: note_off channel=9 note=35 velocity=95 time=0
EXTRACT: note_off channel=9 note=44 velocity=95 time=0
EXTRACT: note_off channel=0 note=66 velocity=111 time=0.14150925
EXTRACT: note_off channel=0 note=62 velocity=111 time=0
EXTRACT: note_off channel=0 note=57 velocity=111 time=0
EXTRACT: note_off channel=0 note=50 velocity=111 time=0
EXTRACT: note_on channel=0 note=66 velocity=95 time=0
EXTRACT: note_on channel=0 note=62 velocity=111 time=0
EXTRACT: note_on channel=0 note=57 velocity=111 time=0
EXTRACT: note_on channel=0 note=50 velocity=111 time=0
EXTRACT: note_off channel=2 note=66 velocity=95 time=0
EXTRACT: note_on channel=2 note=69 velocity=95 time=0
EXTRACT: note_on channel=4 note=76 velocity=95 time=0
EXTRACT: note_on channel=9 note=40 velocity=95 time=0
EXTRACT: note_on channel=9 note=44 velocity=95 time=0
EXTRACT: note_off channel=9 note=40 velocity=95 time=0.14150925
EXTRACT: note_off channel=9 note=44 velocity=95 time=0
EXTRACT: note_off channel=0 note=66 velocity=95 time=0.14150925
EXTRACT: note_off channel=0 note=62 velocity=111 time=0
EXTRACT: note_off channel=0 note=57 velocity=111 time=0
EXTRACT: note_off channel=0 note=50 velocity=111 time=0
EXTRACT: note_on channel=0 note=64 velocity=111 time=0
EXTRACT: note_on channel=0 note=59 velocity=95 time=0
EXTRACT: note_on channel=0 note=55 velocity=111 time=0
EXTRACT: note_on channel=0 note=50 velocity=111 time=0
EXTRACT: note_off channel=6 note=86 velocity=95 time=0
EXTRACT: note_off channel=6 note=81 velocity=95 time=0
EXTRACT: note_on channel=9 note=35 velocity=95 time=0
EXTRACT: note_on channel=9 note=44 velocity=95 time=0
EXTRACT: note_off channel=0 note=64 velocity=111 time=0.031249959375
EXTRACT: note_off channel=0 note=59 velocity=95 time=0
EXTRACT: note_off channel=0 note=55 velocity=111 time=0
EXTRACT: note_off channel=0 note=50 velocity=111 time=0
EXTRACT: note_on channel=0 note=64 velocity=111 time=0.110259290625
EXTRACT: note_on channel=0 note=59 velocity=111 time=0
EXTRACT: note_on channel=0 note=56 velocity=95 time=0
EXTRACT: note_on channel=0 note=52 velocity=111 time=0
EXTRACT: note_off channel=2 note=69 velocity=95 time=0
EXTRACT: note_off channel=4 note=76 velocity=95 time=0
EXTRACT: note_off channel=9 note=35 velocity=95 time=0
EXTRACT: note_off channel=9 note=44 velocity=95 time=0
EXTRACT: note_on channel=9 note=0 velocity=95 time=0
EXTRACT: note_on channel=9 note=35 velocity=95 time=0
EXTRACT: note_on channel=9 note=44 velocity=95 time=0
EXTRACT: note_off channel=0 note=64 velocity=111 time=0.14150925
EXTRACT: note_off channel=0 note=59 velocity=111 time=0
EXTRACT: note_off channel=0 note=56 velocity=95 time=0
EXTRACT: note_off channel=0 note=52 velocity=111 time=0
EXTRACT: note_on channel=2 note=66 velocity=95 time=0
EXTRACT: note_on channel=4 note=73 velocity=95 time=0
EXTRACT: note_off channel=14 note=38 velocity=111 time=0
EXTRACT: note_on channel=14 note=40 velocity=111 time=0
EXTRACT: note_off channel=9 note=0 velocity=95 time=0
EXTRACT: note_off channel=9 note=35 velocity=95 time=0
EXTRACT: note_off channel=9 note=44 velocity=95 time=0
EXTRACT: note_on channel=9 note=0 velocity=95 time=0
EXTRACT: note_on channel=9 note=44 velocity=95 time=0
EXTRACT: note_on channel=0 note=64 velocity=95 time=0.14150925
EXTRACT: note_on channel=0 note=59 velocity=111 time=0
EXTRACT: note_on channel=0 note=56 velocity=111 time=0
EXTRACT: note_on channel=0 note=52 velocity=111 time=0
EXTRACT: note_on channel=6 note=83 velocity=95 time=0
EXTRACT: note_on channel=6 note=80 velocity=95 time=0
EXTRACT: note_off channel=9 note=0 velocity=95 time=0
EXTRACT: note_off channel=9 note=44 velocity=95 time=0
EXTRACT: note_on channel=9 note=0 velocity=95 time=0
EXTRACT: note_on channel=9 note=35 velocity=95 time=0
EXTRACT: note_on channel=9 note=44 velocity=95 time=0
EXTRACT: note_off channel=0 note=64 velocity=95 time=0.14150925
EXTRACT: note_off channel=0 note=59 velocity=111 time=0
EXTRACT: note_off channel=0 note=56 velocity=111 time=0
EXTRACT: note_off channel=0 note=52 velocity=111 time=0
EXTRACT: note_on channel=0 note=64 velocity=111 time=0
EXTRACT: note_on channel=0 note=59 velocity=95 time=0
EXTRACT: note_on channel=0 note=56 velocity=111 time=0
EXTRACT: note_on channel=0 note=52 velocity=111 time=0
EXTRACT: note_on channel=0 note=47 velocity=111 time=0
EXTRACT: note_off channel=2 note=66 velocity=95 time=0
EXTRACT: note_on channel=2 note=68 velocity=95 time=0
EXTRACT: note_off channel=4 note=73 velocity=95 time=0
EXTRACT: note_on channel=4 note=74 velocity=95 time=0
EXTRACT: note_off channel=6 note=83 velocity=95 time=0
EXTRACT: note_off channel=6 note=80 velocity=95 time=0
EXTRACT: note_off channel=9 note=0 velocity=95 time=0
EXTRACT: note_off channel=9 note=35 velocity=95 time=0
EXTRACT: note_off channel=9 note=44 velocity=95 time=0
EXTRACT: note_on channel=9 note=0 velocity=95 time=0
EXTRACT: note_on channel=9 note=40 velocity=95 time=0
EXTRACT: note_on channel=9 note=46 velocity=95 time=0
EXTRACT: note_off channel=2 note=68 velocity=95 time=0.14150925
EXTRACT: note_on channel=2 note=66 velocity=95 time=0
EXTRACT: note_off channel=4 note=74 velocity=95 time=0
EXTRACT: note_on channel=4 note=73 velocity=95 time=0
EXTRACT: note_on channel=6 note=76 velocity=95 time=0
EXTRACT: note_off channel=9 note=0 velocity=95 time=0
EXTRACT: note_off channel=9 note=40 velocity=95 time=0
EXTRACT: note_off channel=9 note=46 velocity=95 time=0
EXTRACT: note_on channel=9 note=0 velocity=95 time=0
EXTRACT: note_on channel=9 note=40 velocity=95 time=0
EXTRACT: note_off channel=0 note=64 velocity=111 time=0.14150925
EXTRACT: note_off channel=0 note=59 velocity=95 time=0
EXTRACT: note_off channel=0 note=56 velocity=111 time=0
EXTRACT: note_off channel=0 note=52 velocity=111 time=0
EXTRACT: note_off channel=0 note=47 velocity=111 time=0
EXTRACT: note_on channel=0 note=64 velocity=111 time=0
EXTRACT: note_on channel=0 note=59 velocity=111 time=0
EXTRACT: note_on channel=0 note=56 velocity=95 time=0
EXTRACT: note_on channel=0 note=52 velocity=111 time=0
EXTRACT: note_on channel=0 note=47 velocity=111 time=0
EXTRACT: note_off channel=6 note=76 velocity=95 time=0
EXTRACT: note_on channel=6 note=83 velocity=95 time=0
EXTRACT: note_on channel=6 note=80 velocity=95 time=0
EXTRACT: note_off channel=9 note=0 velocity=95 time=0
EXTRACT: note_off channel=9 note=40 velocity=95 time=0
EXTRACT: note_on channel=9 note=0 velocity=95 time=0
EXTRACT: note_on channel=9 note=40 velocity=95 time=0
EXTRACT: note_on channel=9 note=44 velocity=95 time=0
EXTRACT: note_off channel=2 note=66 velocity=95 time=0.14150925
EXTRACT: note_on channel=2 note=64 velocity=95 time=0
EXTRACT: note_off channel=9 note=0 velocity=95 time=0
EXTRACT: note_off channel=9 note=40 velocity=95 time=0
EXTRACT: note_off channel=9 note=44 velocity=95 time=0
EXTRACT: note_on channel=9 note=0 velocity=95 time=0
EXTRACT: note_on channel=9 note=40 velocity=95 time=0
EXTRACT: note_on channel=9 note=44 velocity=95 time=0
EXTRACT: note_off channel=0 note=64 velocity=111 time=0.14150925
EXTRACT: note_off channel=0 note=59 velocity=111 time=0
EXTRACT: note_off channel=0 note=56 velocity=95 time=0
EXTRACT: note_off channel=0 note=52 velocity=111 time=0
EXTRACT: note_off channel=0 note=47 velocity=111 time=0
EXTRACT: note_on channel=0 note=55 velocity=95 time=0
EXTRACT: note_on channel=0 note=50 velocity=111 time=0
EXTRACT: note_on channel=0 note=45 velocity=111 time=0
EXTRACT: note_off channel=4 note=73 velocity=95 time=0
EXTRACT: note_on channel=4 note=71 velocity=95 time=0
EXTRACT: note_off channel=6 note=83 velocity=95 time=0
EXTRACT: note_off channel=6 note=80 velocity=95 time=0
EXTRACT: note_on channel=6 note=76 velocity=95 time=0
EXTRACT: note_off channel=9 note=0 velocity=95 time=0
EXTRACT: note_off channel=9 note=40 velocity=95 time=0
EXTRACT: note_off channel=9 note=44 velocity=95 time=0
EXTRACT: note_on channel=9 note=0 velocity=95 time=0
EXTRACT: note_on channel=9 note=40 velocity=95 time=0
EXTRACT: note_on channel=9 note=43 velocity=95 time=0
EXTRACT: note_on channel=9 note=45 velocity=95 time=0
EXTRACT: note_on channel=9 note=46 velocity=95 time=0
EXTRACT: note_off channel=0 note=55 velocity=95 time=0.14150925
EXTRACT: note_off channel=0 note=50 velocity=111 time=0
EXTRACT: note_off channel=0 note=45 velocity=111 time=0
EXTRACT: note_on channel=0 note=55 velocity=111 time=0
EXTRACT: note_on channel=0 note=50 velocity=111 time=0
EXTRACT: note_on channel=0 note=45 velocity=111 time=0
EXTRACT: note_off channel=6 note=76 velocity=95 time=0
EXTRACT: note_off channel=9 note=0 velocity=95 time=0
EXTRACT: note_off channel=9 note=40 velocity=95 time=0
EXTRACT: note_off channel=9 note=43 velocity=95 time=0
EXTRACT: note_off channel=9 note=45 velocity=95 time=0
EXTRACT: note_off channel=9 note=46 velocity=95 time=0
EXTRACT: note_on channel=9 note=0 velocity=95 time=0
EXTRACT: note_on channel=9 note=40 velocity=95 time=0
EXTRACT: note_on channel=9 note=43 velocity=95 time=0
EXTRACT: note_off channel=0 note=55 velocity=111 time=0.14150925
EXTRACT: note_off channel=0 note=50 velocity=111 time=0
EXTRACT: note_off channel=0 note=45 velocity=111 time=0
EXTRACT: note_on channel=0 note=64 velocity=111 time=0
EXTRACT: note_on channel=0 note=61 velocity=95 time=0
EXTRACT: note_on channel=0 note=57 velocity=95 time=0
EXTRACT: note_on channel=0 note=52 velocity=111 time=0
EXTRACT: note_on channel=0 note=45 velocity=111 time=0
EXTRACT: note_off channel=2 note=64 velocity=95 time=0
EXTRACT: note_on channel=2 note=61 velocity=95 time=0
EXTRACT: note_off channel=4 note=71 velocity=95 time=0
EXTRACT: note_on channel=4 note=69 velocity=95 time=0
EXTRACT: note_on channel=6 note=85 velocity=95 time=0
EXTRACT: note_on channel=6 note=81 velocity=95 time=0
EXTRACT: note_on channel=6 note=76 velocity=95 time=0
EXTRACT: note_off channel=14 note=40 velocity=111 time=0
EXTRACT: note_on channel=14 note=33 velocity=111 time=0
EXTRACT: note_off channel=9 note=0 velocity=95 time=0
EXTRACT: note_off channel=9 note=40 velocity=95 time=0
EXTRACT: note_off channel=9 note=43 velocity=95 time=0
EXTRACT: note_on channel=9 note=0 velocity=95 time=0
EXTRACT: note_on channel=9 note=35 velocity=95 time=0
EXTRACT: note_on channel=9 note=49 velocity=95 time=0
EXTRACT: note_on channel=9 note=56 velocity=95 time=0
EXTRACT: note_off channel=9 note=0 velocity=95 time=0.14150925
EXTRACT: note_off channel=9 note=35 velocity=95 time=0
EXTRACT: note_off channel=9 note=49 velocity=95 time=0
EXTRACT: note_off channel=9 note=56 velocity=95 time=0
EXTRACT: note_off channel=2 note=61 velocity=95 time=0.2830185
EXTRACT: note_off channel=4 note=69 velocity=95 time=0
EXTRACT: note_off channel=0 note=64 velocity=111 time=0.14150925
EXTRACT: note_off channel=0 note=61 velocity=95 time=0
EXTRACT: note_off channel=0 note=57 velocity=95 time=0
EXTRACT: note_off channel=0 note=52 velocity=111 time=0
EXTRACT: note_off channel=0 note=45 velocity=111 time=0
EXTRACT: note_on channel=0 note=64 velocity=111 time=0
EXTRACT: note_on channel=0 note=61 velocity=95 time=0
EXTRACT: note_on channel=0 note=57 velocity=95 time=0
EXTRACT: note_on channel=0 note=52 velocity=95 time=0
EXTRACT: note_on channel=0 note=45 velocity=111 time=0
EXTRACT: note_on channel=2 note=61 velocity=95 time=0
EXTRACT: note_on channel=4 note=69 velocity=95 time=0
EXTRACT: note_off channel=6 note=85 velocity=95 time=0
EXTRACT: note_off channel=6 note=81 velocity=95 time=0
EXTRACT: note_off channel=6 note=76 velocity=95 time=0
EXTRACT: note_on channel=6 note=85 velocity=95 time=0
EXTRACT: note_on channel=6 note=81 velocity=95 time=0
EXTRACT: note_on channel=6 note=76 velocity=95 time=0
EXTRACT: note_off channel=14 note=33 velocity=111 time=0
EXTRACT: note_on channel=14 note=33 velocity=111 time=0
EXTRACT: note_on channel=9 note=40 velocity=95 time=0
EXTRACT: note_on channel=9 note=56 velocity=95 time=0
EXTRACT: note_off channel=2 note=61 velocity=95 time=0.14150925
EXTRACT: note_off channel=0 note=64 velocity=111 time=0.14150925
EXTRACT: note_off channel=0 note=61 velocity=95 time=0
EXTRACT: note_off channel=0 note=57 velocity=95 time=0
EXTRACT: note_off channel=0 note=52 velocity=95 time=0
EXTRACT: note_off channel=0 note=45 velocity=111 time=0
EXTRACT: note_off channel=4 note=69 velocity=95 time=0
EXTRACT: note_off channel=6 note=85 velocity=95 time=0
EXTRACT: note_off channel=6 note=81 velocity=95 time=0
EXTRACT: note_off channel=6 note=76 velocity=95 time=0
EXTRACT: note_off channel=14 note=33 velocity=111 time=0
EXTRACT: note_off channel=9 note=40 velocity=95 time=0
EXTRACT: note_off channel=9 note=56 velocity=95 time=0
EXTRACT: note_on channel=9 note=35 velocity=95 time=0
EXTRACT: note_off channel=9 note=35 velocity=95 time=0.14150925
EXTRACT: note_on channel=9 note=0 velocity=95 time=0
EXTRACT: note_on channel=9 note=40 velocity=95 time=0
EXTRACT: note_off channel=9 note=0 velocity=95 time=0.14150925
EXTRACT: note_off channel=9 note=40 velocity=95 time=0
EXTRACT: note_on channel=9 note=35 velocity=95 time=0
EXTRACT: note_on channel=9 note=56 velocity=95 time=0
EXTRACT: note_off channel=9 note=35 velocity=95 time=0.14150925
EXTRACT: note_off channel=9 note=56 velocity=95 time=0
EXTRACT: note_on channel=9 note=35 velocity=95 time=0.14150925
EXTRACT: note_off channel=9 note=35 velocity=95 time=0.14150925
EXTRACT: note_on channel=9 note=39 velocity=95 time=0.14150925
EXTRACT: note_on channel=9 note=40 velocity=95 time=0
EXTRACT: note_on channel=9 note=56 velocity=95 time=0
EXTRACT: note_off channel=9 note=39 velocity=95 time=0.14150925
EXTRACT: note_off channel=9 note=40 velocity=95 time=0
EXTRACT: note_off channel=9 note=56 velocity=95 time=0
EXTRACT: note_on channel=9 note=35 velocity=95 time=0.14150925
EXTRACT: note_off channel=9 note=35 velocity=95 time=0.14150925
EXTRACT: note_on channel=0 note=66 velocity=111 time=0.14150925
EXTRACT: note_on channel=0 note=62 velocity=95 time=0
EXTRACT: note_on channel=0 note=57 velocity=95 time=0
EXTRACT: note_on channel=0 note=50 velocity=111 time=0
EXTRACT: note_on channel=2 note=62 velocity=95 time=0
EXTRACT: note_on channel=4 note=66 velocity=95 time=0
EXTRACT: note_on channel=6 note=86 velocity=95 time=0
EXTRACT: note_on channel=6 note=81 velocity=95 time=0
EXTRACT: note_on channel=6 note=78 velocity=95 time=0
EXTRACT: note_on channel=14 note=38 velocity=111 time=0
EXTRACT: note_on channel=9 note=35 velocity=95 time=0
EXTRACT: note_on channel=9 note=56 velocity=95 time=0
EXTRACT: note_off channel=2 note=62 velocity=95 time=0.42452775
EXTRACT: note_off channel=4 note=66 velocity=95 time=0
EXTRACT: note_off channel=9 note=35 velocity=95 time=0
EXTRACT: note_off channel=9 note=56 velocity=95 time=0
EXTRACT: note_off channel=0 note=66 velocity=111 time=0.14150925
EXTRACT: note_off channel=0 note=62 velocity=95 time=0
EXTRACT: note_off channel=0 note=57 velocity=95 time=0
EXTRACT: note_off channel=0 note=50 velocity=111 time=0
EXTRACT: note_on channel=0 note=66 velocity=111 time=0
EXTRACT: note_on channel=0 note=62 velocity=95 time=0
EXTRACT: note_on channel=0 note=57 velocity=95 time=0
EXTRACT: note_on channel=0 note=50 velocity=95 time=0
EXTRACT: note_on channel=2 note=62 velocity=95 time=0
EXTRACT: note_on channel=4 note=66 velocity=95 time=0
EXTRACT: note_off channel=6 note=86 velocity=95 time=0
EXTRACT: note_off channel=6 note=81 velocity=95 time=0
EXTRACT: note_off channel=6 note=78 velocity=95 time=0
EXTRACT: note_on channel=6 note=86 velocity=95 time=0
EXTRACT: note_on channel=6 note=81 velocity=95 time=0
EXTRACT: note_on channel=6 note=78 velocity=111 time=0
EXTRACT: note_off channel=14 note=38 velocity=111 time=0
EXTRACT: note_on channel=14 note=38 velocity=111 time=0
EXTRACT: note_on channel=9 note=39 velocity=95 time=0
EXTRACT: note_on channel=9 note=40 velocity=95 time=0
EXTRACT: note_on channel=9 note=56 velocity=95 time=0
EXTRACT: note_off channel=2 note=62 velocity=95 time=0.14150925
EXTRACT: note_off channel=9 note=39 velocity=95 time=0
EXTRACT: note_off channel=9 note=40 velocity=95 time=0
EXTRACT: note_off channel=9 note=56 velocity=95 time=0
EXTRACT: note_off channel=0 note=66 velocity=111 time=0.14150925
EXTRACT: note_off channel=0 note=62 velocity=95 time=0
EXTRACT: note_off channel=0 note=57 velocity=95 time=0
EXTRACT: note_off channel=0 note=50 velocity=95 time=0
EXTRACT: note_off channel=4 note=66 velocity=95 time=0
EXTRACT: note_off channel=6 note=86 velocity=95 time=0
EXTRACT: note_off channel=6 note=81 velocity=95 time=0
EXTRACT: note_off channel=6 note=78 velocity=111 time=0
EXTRACT: note_off channel=14 note=38 velocity=111 time=0
EXTRACT: note_on channel=9 note=30 velocity=95 time=0.14150925
EXTRACT: note_on channel=9 note=35 velocity=95 time=0
EXTRACT: note_off channel=9 note=30 velocity=95 time=0.14150925
EXTRACT: note_off channel=9 note=35 velocity=95 time=0
EXTRACT: note_on channel=9 note=0 velocity=95 time=0
EXTRACT: note_on channel=9 note=29 velocity=95 time=0
EXTRACT: note_on channel=9 note=35 velocity=95 time=0
EXTRACT: note_on channel=9 note=56 velocity=95 time=0
EXTRACT: note_off channel=9 note=0 velocity=95 time=0.14150925
EXTRACT: note_off channel=9 note=29 velocity=95 time=0
EXTRACT: note_off channel=9 note=35 velocity=95 time=0
EXTRACT: note_off channel=9 note=56 velocity=95 time=0
EXTRACT: note_on channel=9 note=0 velocity=95 time=0
EXTRACT: note_on channel=9 note=30 velocity=95 time=0
EXTRACT: note_on channel=9 note=35 velocity=95 time=0
EXTRACT: note_off channel=9 note=0 velocity=95 time=0.14150925
EXTRACT: note_off channel=9 note=30 velocity=95 time=0
EXTRACT: note_off channel=9 note=35 velocity=95 time=0
EXTRACT: note_on channel=9 note=0 velocity=95 time=0
EXTRACT: note_on channel=9 note=30 velocity=95 time=0
EXTRACT: note_on channel=9 note=35 velocity=95 time=0
EXTRACT: note_off channel=9 note=0 velocity=95 time=0.14150925
EXTRACT: note_off channel=9 note=30 velocity=95 time=0
EXTRACT: note_off channel=9 note=35 velocity=95 time=0
EXTRACT: note_on channel=9 note=39 velocity=95 time=0.14150925
EXTRACT: note_on channel=9 note=30 velocity=95 time=0
EXTRACT: note_on channel=9 note=40 velocity=95 time=0
EXTRACT: note_on channel=9 note=56 velocity=95 time=0
EXTRACT: note_off channel=9 note=39 velocity=95 time=0.14150925
EXTRACT: note_off channel=9 note=30 velocity=95 time=0
EXTRACT: note_off channel=9 note=40 velocity=95 time=0
EXTRACT: note_off channel=9 note=56 velocity=95 time=0
EXTRACT: note_on channel=9 note=29 velocity=95 time=0.14150925
EXTRACT: note_on channel=9 note=35 velocity=95 time=0
EXTRACT: note_off channel=9 note=29 velocity=95 time=0.14150925
EXTRACT: note_off channel=9 note=35 velocity=95 time=0
EXTRACT: note_on channel=9 note=0 velocity=95 time=0
EXTRACT: note_on channel=9 note=30 velocity=95 time=0
EXTRACT: note_on channel=0 note=64 velocity=111 time=0.14150925
EXTRACT: note_on channel=0 note=61 velocity=95 time=0
EXTRACT: note_on channel=0 note=57 velocity=95 time=0
EXTRACT: note_on channel=0 note=52 velocity=111 time=0
EXTRACT: note_on channel=0 note=45 velocity=111 time=0
EXTRACT: note_on channel=2 note=61 velocity=95 time=0
EXTRACT: note_on channel=4 note=69 velocity=95 time=0
EXTRACT: note_on channel=6 note=85 velocity=95 time=0
EXTRACT: note_on channel=6 note=81 velocity=95 time=0
EXTRACT: note_on channel=6 note=76 velocity=95 time=0
EXTRACT: note_on channel=14 note=33 velocity=111 time=0
EXTRACT: note_off channel=9 note=0 velocity=95 time=0
EXTRACT: note_off channel=9 note=30 velocity=95 time=0
EXTRACT: note_on channel=9 note=0 velocity=95 time=0
EXTRACT: note_on channel=9 note=35 velocity=95 time=0
EXTRACT: note_on channel=9 note=56 velocity=95 time=0
EXTRACT: note_off channel=9 note=0 velocity=95 time=0.14150925
EXTRACT: note_off channel=9 note=35 velocity=95 time=0
EXTRACT: note_off channel=9 note=56 velocity=95 time=0
EXTRACT: note_on channel=9 note=35 velocity=95 time=0.14150925
EXTRACT: note_off channel=2 note=61 velocity=95 time=0.14150925
EXTRACT: note_off channel=4 note=69 velocity=95 time=0
EXTRACT: note_off channel=9 note=35 velocity=95 time=0
EXTRACT: note_off channel=0 note=64 velocity=111 time=0.14150925
EXTRACT: note_off channel=0 note=61 velocity=95 time=0
EXTRACT: note_off channel=0 note=57 velocity=95 time=0
EXTRACT: note_off channel=0 note=52 velocity=111 time=0
EXTRACT: note_off channel=0 note=45 velocity=111 time=0
EXTRACT: note_on channel=0 note=64 velocity=111 time=0
EXTRACT: note_on channel=0 note=61 velocity=95 time=0
EXTRACT: note_on channel=0 note=57 velocity=95 time=0
EXTRACT: note_on channel=0 note=52 velocity=95 time=0
EXTRACT: note_on channel=0 note=45 velocity=111 time=0
EXTRACT: note_on channel=2 note=61 velocity=95 time=0
EXTRACT: note_on channel=4 note=69 velocity=95 time=0
EXTRACT: note_off channel=6 note=85 velocity=95 time=0
EXTRACT: note_off channel=6 note=81 velocity=95 time=0
EXTRACT: note_off channel=6 note=76 velocity=95 time=0
EXTRACT: note_on channel=6 note=85 velocity=95 time=0
EXTRACT: note_on channel=6 note=81 velocity=95 time=0
EXTRACT: note_off channel=14 note=33 velocity=111 time=0
EXTRACT: note_on channel=14 note=33 velocity=111 time=0
EXTRACT: note_on channel=9 note=40 velocity=95 time=0
EXTRACT: note_on channel=9 note=56 velocity=95 time=0
EXTRACT: note_off channel=2 note=61 velocity=95 time=0.14150925
EXTRACT: note_off channel=0 note=64 velocity=111 time=0.14150925
EXTRACT: note_off channel=0 note=61 velocity=95 time=0
EXTRACT: note_off channel=0 note=57 velocity=95 time=0
EXTRACT: note_off channel=0 note=52 velocity=95 time=0
EXTRACT: note_off channel=0 note=45 velocity=111 time=0
EXTRACT: note_off channel=4 note=69 velocity=95 time=0
EXTRACT: note_off channel=6 note=85 velocity=95 time=0
EXTRACT: note_off channel=6 note=81 velocity=95 time=0
EXTRACT: note_off channel=14 note=33 velocity=111 time=0
EXTRACT: note_off channel=9 note=40 velocity=95 time=0
EXTRACT: note_off channel=9 note=56 velocity=95 time=0
EXTRACT: note_on channel=9 note=0 velocity=95 time=0
EXTRACT: note_on channel=9 note=35 velocity=95 time=0
EXTRACT: note_off channel=9 note=0 velocity=95 time=0.14150925
EXTRACT: note_off channel=9 note=35 velocity=95 time=0
EXTRACT: note_on channel=9 note=0 velocity=95 time=0
EXTRACT: note_on channel=9 note=40 velocity=95 time=0
EXTRACT: note_off channel=9 note=0 velocity=95 time=0.14150925
EXTRACT: note_off channel=9 note=40 velocity=95 time=0
EXTRACT: note_on channel=9 note=35 velocity=95 time=0
EXTRACT: note_on channel=9 note=56 velocity=95 time=0
EXTRACT: note_off channel=9 note=35 velocity=95 time=0.14150925
EXTRACT: note_off channel=9 note=56 velocity=95 time=0
EXTRACT: note_on channel=9 note=0 velocity=95 time=0
EXTRACT: note_on channel=9 note=35 velocity=95 time=0
EXTRACT: note_off channel=9 note=0 velocity=95 time=0.14150925
EXTRACT: note_off channel=9 note=35 velocity=95 time=0
EXTRACT: note_on channel=9 note=0 velocity=95 time=0
EXTRACT: note_on channel=9 note=35 velocity=95 time=0
EXTRACT: note_off channel=9 note=0 velocity=95 time=0.14150925
EXTRACT: note_off channel=9 note=35 velocity=95 time=0
EXTRACT: note_on channel=9 note=35 velocity=95 time=0.14150925
EXTRACT: note_on channel=9 note=56 velocity=95 time=0
EXTRACT: note_off channel=9 note=35 velocity=95 time=0.14150925
EXTRACT: note_off channel=9 note=56 velocity=95 time=0
EXTRACT: note_on channel=9 note=40 velocity=95 time=0.14150925
EXTRACT: note_on channel=0 note=64 velocity=111 time=0.2830185
EXTRACT: note_on channel=0 note=59 velocity=95 time=0
EXTRACT: note_on channel=0 note=56 velocity=95 time=0
EXTRACT: note_on channel=0 note=52 velocity=111 time=0
EXTRACT: note_on channel=0 note=47 velocity=111 time=0
EXTRACT: note_on channel=0 note=40 velocity=111 time=0
EXTRACT: note_on channel=2 note=59 velocity=95 time=0
EXTRACT: note_on channel=4 note=68 velocity=95 time=0
EXTRACT: note_on channel=6 note=83 velocity=95 time=0
EXTRACT: note_on channel=6 note=80 velocity=95 time=0
EXTRACT: note_on channel=14 note=40 velocity=111 time=0
EXTRACT: note_off channel=9 note=40 velocity=95 time=0
EXTRACT: note_on channel=9 note=35 velocity=95 time=0
EXTRACT: note_on channel=9 note=56 velocity=95 time=0
EXTRACT: note_off channel=9 note=35 velocity=95 time=0.14150925
EXTRACT: note_off channel=9 note=56 velocity=95 time=0
EXTRACT: note_off channel=14 note=40 velocity=111 time=0.14150925
EXTRACT: note_on channel=14 note=44 velocity=111 time=0
EXTRACT: note_on channel=9 note=35 velocity=95 time=0
EXTRACT: note_off channel=2 note=59 velocity=95 time=0.14150925
EXTRACT: note_on channel=2 note=57 velocity=95 time=0
EXTRACT: note_off channel=4 note=68 velocity=95 time=0
EXTRACT: note_on channel=4 note=66 velocity=95 time=0
EXTRACT: note_off channel=0 note=64 velocity=111 time=0.14150925
EXTRACT: note_off channel=0 note=59 velocity=95 time=0
EXTRACT: note_off channel=0 note=56 velocity=95 time=0
EXTRACT: note_off channel=0 note=52 velocity=111 time=0
EXTRACT: note_off channel=0 note=47 velocity=111 time=0
EXTRACT: note_off channel=0 note=40 velocity=111 time=0
EXTRACT: note_on channel=0 note=64 velocity=111 time=0
EXTRACT: note_on channel=0 note=59 velocity=95 time=0
EXTRACT: note_on channel=0 note=56 velocity=95 time=0
EXTRACT: note_on channel=0 note=52 velocity=95 time=0
EXTRACT: note_on channel=0 note=47 velocity=111 time=0
EXTRACT: note_on channel=0 note=40 velocity=111 time=0
EXTRACT: note_off channel=2 note=57 velocity=95 time=0
EXTRACT: note_on channel=2 note=56 velocity=95 time=0
EXTRACT: note_off channel=4 note=66 velocity=95 time=0
EXTRACT: note_on channel=4 note=64 velocity=95 time=0
EXTRACT: note_off channel=14 note=44 velocity=111 time=0
EXTRACT: note_on channel=14 note=45 velocity=111 time=0
EXTRACT: note_off channel=9 note=35 velocity=95 time=0
EXTRACT: note_on channel=9 note=39 velocity=95 time=0
EXTRACT: note_on channel=9 note=40 velocity=95 time=0
EXTRACT: note_on channel=9 note=56 velocity=95 time=0
EXTRACT: note_off channel=4 note=64 velocity=95 time=0.14150925
EXTRACT: note_off channel=9 note=39 velocity=95 time=0
EXTRACT: note_off channel=9 note=40 velocity=95 time=0
EXTRACT: note_off channel=9 note=56 velocity=95 time=0
EXTRACT: note_off channel=0 note=64 velocity=111 time=0.14150925
EXTRACT: note_off channel=0 note=59 velocity=95 time=0
EXTRACT: note_off channel=0 note=56 velocity=95 time=0
EXTRACT: note_off channel=0 note=52 velocity=95 time=0
EXTRACT: note_off channel=0 note=47 velocity=111 time=0
EXTRACT: note_off channel=0 note=40 velocity=111 time=0
EXTRACT: note_off channel=2 note=56 velocity=95 time=0
EXTRACT: note_off channel=14 note=45 velocity=111 time=0
EXTRACT: note_on channel=14 note=45 velocity=111 time=0
EXTRACT: note_on channel=9 note=35 velocity=95 time=0
EXTRACT: note_on channel=4 note=64 velocity=95 time=0.14150925
EXTRACT: note_off channel=14 note=45 velocity=111 time=0
EXTRACT: note_on channel=14 note=47 velocity=111 time=0
EXTRACT: note_off channel=9 note=35 velocity=95 time=0
EXTRACT: note_on channel=9 note=0 velocity=95 time=0
EXTRACT: note_on channel=9 note=29 velocity=95 time=0
EXTRACT: note_on channel=9 note=40 velocity=95 time=0
EXTRACT: note_off channel=4 note=64 velocity=95 time=0.14150925
EXTRACT: note_on channel=4 note=66 velocity=95 time=0
EXTRACT: note_off channel=9 note=0 velocity=95 time=0
EXTRACT: note_off channel=9 note=29 velocity=95 time=0
EXTRACT: note_off channel=9 note=40 velocity=95 time=0
EXTRACT: note_on channel=9 note=30 velocity=95 time=0
EXTRACT: note_on channel=9 note=35 velocity=95 time=0
EXTRACT: note_on channel=9 note=56 velocity=95 time=0
EXTRACT: note_off channel=9 note=30 velocity=95 time=0.14150925
EXTRACT: note_off channel=9 note=35 velocity=95 time=0
EXTRACT: note_off channel=9 note=56 velocity=95 time=0
EXTRACT: note_on channel=9 note=0 velocity=95 time=0
EXTRACT: note_on channel=9 note=29 velocity=95 time=0
EXTRACT: note_on channel=9 note=40 velocity=95 time=0
EXTRACT: note_on channel=0 note=64 velocity=111 time=0.14150925
EXTRACT: note_on channel=0 note=59 velocity=111 time=0
EXTRACT: note_on channel=0 note=56 velocity=111 time=0
EXTRACT: note_on channel=0 note=52 velocity=111 time=0
EXTRACT: note_off channel=4 note=66 velocity=95 time=0
EXTRACT: note_on channel=4 note=69 velocity=95 time=0
EXTRACT: note_off channel=14 note=47 velocity=111 time=0
EXTRACT: note_on channel=14 note=40 velocity=111 time=0
EXTRACT: note_off channel=9 note=0 velocity=95 time=0
EXTRACT: note_off channel=9 note=29 velocity=95 time=0
EXTRACT: note_off channel=9 note=40 velocity=95 time=0
EXTRACT: note_on channel=9 note=0 velocity=95 time=0
EXTRACT: note_on channel=9 note=30 velocity=95 time=0
EXTRACT: note_on channel=9 note=35 velocity=95 time=0
EXTRACT: note_off channel=0 note=64 velocity=111 time=0.14150925
EXTRACT: note_off channel=0 note=59 velocity=111 time=0
EXTRACT: note_off channel=0 note=56 velocity=111 time=0
EXTRACT: note_off channel=0 note=52 velocity=111 time=0
EXTRACT: note_off channel=4 note=69 velocity=95 time=0
EXTRACT: note_off channel=9 note=0 velocity=95 time=0
EXTRACT: note_off channel=9 note=30 velocity=95 time=0
EXTRACT: note_off channel=9 note=35 velocity=95 time=0
EXTRACT: note_on channel=9 note=0 velocity=95 time=0
EXTRACT: note_on channel=9 note=35 velocity=95 time=0
EXTRACT: note_on channel=0 note=64 velocity=111 time=0.14150925
EXTRACT: note_on channel=0 note=59 velocity=111 time=0
EXTRACT: note_on channel=0 note=55 velocity=111 time=0
EXTRACT: note_on channel=0 note=50 velocity=111 time=0
EXTRACT: note_on channel=4 note=73 velocity=95 time=0
EXTRACT: note_off channel=14 note=40 velocity=111 time=0
EXTRACT: note_on channel=14 note=38 velocity=111 time=0
EXTRACT: note_off channel=9 note=0 velocity=95 time=0
EXTRACT: note_off channel=9 note=35 velocity=95 time=0
EXTRACT: note_on channel=9 note=39 velocity=95 time=0
EXTRACT: note_on channel=9 note=30 velocity=95 time=0
EXTRACT: note_on channel=9 note=40 velocity=95 time=0
EXTRACT: note_on channel=9 note=56 velocity=95 time=0
EXTRACT: note_off channel=0 note=64 velocity=111 time=0.031249959375
EXTRACT: note_off channel=0 note=59 velocity=111 time=0
EXTRACT: note_off channel=0 note=55 velocity=111 time=0
EXTRACT: note_off channel=0 note=50 velocity=111 time=0
EXTRACT: note_on channel=0 note=64 velocity=111 time=0.110259290625
EXTRACT: note_on channel=0 note=59 velocity=111 time=0
EXTRACT: note_on channel=0 note=56 velocity=111 time=0
EXTRACT: note_on channel=0 note=52 velocity=111 time=0
EXTRACT: note_off channel=9 note=39 velocity=95 time=0
EXTRACT: note_off channel=9 note=30 velocity=95 time=0
EXTRACT: note_off channel=9 note=40 velocity=95 time=0
EXTRACT: note_off channel=9 note=56 velocity=95 time=0
EXTRACT: note_off channel=0 note=64 velocity=111 time=0.14150925
EXTRACT: note_off channel=0 note=59 velocity=111 time=0
EXTRACT: note_off channel=0 note=56 velocity=111 time=0
EXTRACT: note_off channel=0 note=52 velocity=111 time=0
EXTRACT: note_off channel=4 note=73 velocity=95 time=0
EXTRACT: note_on channel=4 note=71 velocity=95 time=0
EXTRACT: note_off channel=14 note=38 velocity=111 time=0
EXTRACT: note_on channel=14 note=40 velocity=111 time=0
EXTRACT: note_on channel=9 note=29 velocity=95 time=0
EXTRACT: note_on channel=9 note=35 velocity=95 time=0
EXTRACT: note_off channel=4 note=71 velocity=95 time=0.14150925
EXTRACT: note_on channel=4 note=69 velocity=95 time=0
EXTRACT: note_off channel=6 note=83 velocity=95 time=0
EXTRACT: note_off channel=6 note=80 velocity=95 time=0
EXTRACT: note_off channel=9 note=29 velocity=95 time=0
EXTRACT: note_off channel=9 note=35 velocity=95 time=0
EXTRACT: note_on channel=9 note=0 velocity=95 time=0
EXTRACT: note_on channel=9 note=30 velocity=95 time=0
EXTRACT: note_on channel=9 note=35 velocity=95 time=0
EXTRACT: note_on channel=0 note=64 velocity=111 time=0.14150925
EXTRACT: note_on channel=0 note=61 velocity=95 time=0
EXTRACT: note_on channel=0 note=57 velocity=95 time=0
EXTRACT: note_on channel=0 note=52 velocity=111 time=0
EXTRACT: note_on channel=0 note=45 velocity=111 time=0
EXTRACT: note_on channel=2 note=61 velocity=95 time=0
EXTRACT: note_off channel=4 note=69 velocity=95 time=0
EXTRACT: note_on channel=4 note=69 velocity=95 time=0
EXTRACT: note_on channel=6 note=85 velocity=95 time=0
EXTRACT: note_on channel=6 note=81 velocity=95 time=0
EXTRACT: note_on channel=6 note=76 velocity=95 time=0
EXTRACT: note_off channel=14 note=40 velocity=111 time=0
EXTRACT: note_on channel=14 note=33 velocity=111 time=0
EXTRACT: note_off channel=9 note=0 velocity=95 time=0
EXTRACT: note_off channel=9 note=30 velocity=95 time=0
EXTRACT: note_off channel=9 note=35 velocity=95 time=0
EXTRACT: note_on channel=9 note=0 velocity=95 time=0
EXTRACT: note_on channel=9 note=35 velocity=95 time=0
EXTRACT: note_on channel=9 note=56 velocity=95 time=0
EXTRACT: note_off channel=9 note=0 velocity=95 time=0.2830185
EXTRACT: note_off channel=9 note=35 velocity=95 time=0
EXTRACT: note_off channel=9 note=56 velocity=95 time=0
EXTRACT: note_off channel=2 note=61 velocity=95 time=0.14150925
EXTRACT: note_off channel=4 note=69 velocity=95 time=0
EXTRACT: note_off channel=0 note=64 velocity=111 time=0.14150925
EXTRACT: note_off channel=0 note=61 velocity=95 time=0
EXTRACT: note_off channel=0 note=57 velocity=95 time=0
EXTRACT: note_off channel=0 note=52 velocity=111 time=0
EXTRACT: note_off channel=0 note=45 velocity=111 time=0
EXTRACT: note_on channel=0 note=64 velocity=111 time=0
EXTRACT: note_on channel=0 note=61 velocity=95 time=0
EXTRACT: note_on channel=0 note=57 velocity=95 time=0
EXTRACT: note_on channel=0 note=52 velocity=95 time=0
EXTRACT: note_on channel=0 note=45 velocity=111 time=0
EXTRACT: note_on channel=2 note=61 velocity=95 time=0
EXTRACT: note_on channel=4 note=69 velocity=95 time=0
EXTRACT: note_off channel=6 note=85 velocity=95 time=0
EXTRACT: note_off channel=6 note=81 velocity=95 time=0
EXTRACT: note_off channel=6 note=76 velocity=95 time=0
EXTRACT: note_on channel=6 note=85 velocity=95 time=0
EXTRACT: note_on channel=6 note=81 velocity=95 time=0
EXTRACT: note_on channel=6 note=76 velocity=95 time=0
EXTRACT: note_off channel=14 note=33 velocity=111 time=0
EXTRACT: note_on channel=14 note=33 velocity=111 time=0
EXTRACT: note_on channel=9 note=39 velocity=95 time=0
EXTRACT: note_on channel=9 note=40 velocity=95 time=0
EXTRACT: note_on channel=9 note=56 velocity=95 time=0
EXTRACT: note_off channel=2 note=61 velocity=95 time=0.14150925
EXTRACT: note_off channel=9 note=39 velocity=95 time=0
EXTRACT: note_off channel=9 note=40 velocity=95 time=0
EXTRACT: note_off channel=9 note=56 velocity=95 time=0
EXTRACT: note_off channel=0 note=64 velocity=111 time=0.14150925
EXTRACT: note_off channel=0 note=61 velocity=95 time=0
EXTRACT: note_off channel=0 note=57 velocity=95 time=0
EXTRACT: note_off channel=0 note=52 velocity=95 time=0
EXTRACT: note_off channel=0 note=45 velocity=111 time=0
EXTRACT: note_off channel=4 note=69 velocity=95 time=0
EXTRACT: note_off channel=6 note=85 velocity=95 time=0
EXTRACT: note_off channel=6 note=81 velocity=95 time=0
EXTRACT: note_off channel=6 note=76 velocity=95 time=0
EXTRACT: note_off channel=14 note=33 velocity=111 time=0
EXTRACT: note_on channel=9 note=35 velocity=95 time=0
EXTRACT: note_off channel=9 note=35 velocity=95 time=0.14150925
EXTRACT: note_on channel=9 note=40 velocity=95 time=0
EXTRACT: note_off channel=9 note=40 velocity=95 time=0.14150925
EXTRACT: note_on channel=9 note=35 velocity=95 time=0
EXTRACT: note_on channel=9 note=56 velocity=95 time=0
EXTRACT: note_off channel=9 note=35 velocity=95 time=0.14150925
EXTRACT: note_off channel=9 note=56 velocity=95 time=0
EXTRACT: note_on channel=9 note=0 velocity=95 time=0
EXTRACT: note_on channel=9 note=29 velocity=95 time=0
EXTRACT: note_off channel=9 note=0 velocity=95 time=0.14150925
EXTRACT: note_off channel=9 note=29 velocity=95 time=0
EXTRACT: note_on channel=9 note=0 velocity=95 time=0
EXTRACT: note_on channel=9 note=30 velocity=95 time=0
EXTRACT: note_on channel=9 note=35 velocity=95 time=0
EXTRACT: note_off channel=9 note=0 velocity=95 time=0.14150925
EXTRACT: note_off channel=9 note=30 velocity=95 time=0
EXTRACT: note_off channel=9 note=35 velocity=95 time=0
EXTRACT: note_on channel=9 note=39 velocity=95 time=0.14150925
EXTRACT: note_on channel=9 note=30 velocity=95 time=0
EXTRACT: note_on channel=9 note=40 velocity=95 time=0
EXTRACT: note_on channel=9 note=56 velocity=95 time=0
EXTRACT: note_off channel=9 note=39 velocity=95 time=0.14150925
EXTRACT: note_off channel=9 note=30 velocity=95 time=0
EXTRACT: note_off channel=9 note=40 velocity=95 time=0
EXTRACT: note_off channel=9 note=56 velocity=95 time=0
EXTRACT: note_on channel=9 note=29 velocity=95 time=0.14150925
EXTRACT: note_on channel=9 note=35 velocity=95 time=0
EXTRACT: note_off channel=9 note=29 velocity=95 time=0.14150925
EXTRACT: note_off channel=9 note=35 velocity=95 time=0
EXTRACT: note_on channel=9 note=0 velocity=95 time=0
EXTRACT: note_on channel=9 note=30 velocity=95 time=0
EXTRACT: note_on channel=9 note=35 velocity=95 time=0
EXTRACT: note_on channel=0 note=66 velocity=111 time=0.14150925
EXTRACT: note_on channel=0 note=62 velocity=95 time=0
EXTRACT: note_on channel=0 note=57 velocity=95 time=0
EXTRACT: note_on channel=0 note=50 velocity=111 time=0
EXTRACT: note_on channel=2 note=62 velocity=95 time=0
EXTRACT: note_on channel=4 note=66 velocity=95 time=0
EXTRACT: note_on channel=6 note=86 velocity=95 time=0
EXTRACT: note_on channel=6 note=81 velocity=95 time=0
EXTRACT: note_on channel=6 note=78 velocity=95 time=0
EXTRACT: note_on channel=14 note=38 velocity=111 time=0
EXTRACT: note_off channel=9 note=0 velocity=95 time=0
EXTRACT: note_off channel=9 note=30 velocity=95 time=0
EXTRACT: note_off channel=9 note=35 velocity=95 time=0
EXTRACT: note_on channel=9 note=0 velocity=95 time=0
EXTRACT: note_on channel=9 note=35 velocity=95 time=0
EXTRACT: note_on channel=9 note=56 velocity=95 time=0
EXTRACT: note_off channel=9 note=0 velocity=95 time=0.14150925
EXTRACT: note_off channel=9 note=35 velocity=95 time=0
EXTRACT: note_off channel=9 note=56 velocity=95 time=0
EXTRACT: note_on channel=9 note=35 velocity=95 time=0.14150925
EXTRACT: note_off channel=2 note=62 velocity=95 time=0.14150925
EXTRACT: note_off channel=4 note=66 velocity=95 time=0
EXTRACT: note_off channel=0 note=66 velocity=111 time=0.14150925
EXTRACT: note_off channel=0 note=62 velocity=95 time=0
EXTRACT: note_off channel=0 note=57 velocity=95 time=0
EXTRACT: note_off channel=0 note=50 velocity=111 time=0
EXTRACT: note_on channel=0 note=66 velocity=111 time=0
EXTRACT: note_on channel=0 note=62 velocity=95 time=0
EXTRACT: note_on channel=0 note=57 velocity=95 time=0
EXTRACT: note_on channel=0 note=50 velocity=95 time=0
EXTRACT: note_on channel=2 note=62 velocity=95 time=0
EXTRACT: note_on channel=4 note=66 velocity=95 time=0
EXTRACT: note_off channel=6 note=86 velocity=95 time=0
EXTRACT: note_off channel=6 note=81 velocity=95 time=0
EXTRACT: note_off channel=6 note=78 velocity=95 time=0
EXTRACT: note_on channel=6 note=86 velocity=95 time=0
EXTRACT: note_on channel=6 note=81 velocity=95 time=0
EXTRACT: note_on channel=6 note=78 velocity=111 time=0
EXTRACT: note_off channel=14 note=38 velocity=111 time=0
EXTRACT: note_on channel=14 note=38 velocity=111 time=0
EXTRACT: note_off channel=9 note=35 velocity=95 time=0
EXTRACT: note_on channel=9 note=39 velocity=95 time=0
EXTRACT: note_on channel=9 note=40 velocity=95 time=0
EXTRACT: note_on channel=9 note=56 velocity=95 time=0
EXTRACT: note_off channel=9 note=39 velocity=95 time=0.14150925
EXTRACT: note_off channel=9 note=40 velocity=95 time=0
EXTRACT: note_off channel=9 note=56 velocity=95 time=0
EXTRACT: note_off channel=0 note=66 velocity=111 time=0.14150925
EXTRACT: note_off channel=0 note=62 velocity=95 time=0
EXTRACT: note_off channel=0 note=57 velocity=95 time=0
EXTRACT: note_off channel=0 note=50 velocity=95 time=0
EXTRACT: note_off channel=2 note=62 velocity=95 time=0
EXTRACT: note_off channel=4 note=66 velocity=95 time=0
EXTRACT: note_off channel=6 note=86 velocity=95 time=0
EXTRACT: note_off channel=6 note=81 velocity=95 time=0
EXTRACT: note_off channel=6 note=78 velocity=111 time=0
EXTRACT: note_off channel=14 note=38 velocity=111 time=0
EXTRACT: note_on channel=9 note=35 velocity=95 time=0
EXTRACT: note_off channel=9 note=35 velocity=95 time=0.14150925
EXTRACT: note_on channel=9 note=0 velocity=95 time=0
EXTRACT: note_on channel=9 note=29 velocity=95 time=0
EXTRACT: note_on channel=9 note=40 velocity=95 time=0
EXTRACT: note_off channel=9 note=0 velocity=95 time=0.14150925
EXTRACT: note_off channel=9 note=29 velocity=95 time=0
EXTRACT: note_off channel=9 note=40 velocity=95 time=0
EXTRACT: note_on channel=9 note=30 velocity=95 time=0
EXTRACT: note_on channel=9 note=35 velocity=95 time=0
EXTRACT: note_on channel=9 note=56 velocity=95 time=0
EXTRACT: note_off channel=9 note=30 velocity=95 time=0.14150925
EXTRACT: note_off channel=9 note=35 velocity=95 time=0
EXTRACT: note_off channel=9 note=56 velocity=95 time=0
EXTRACT: note_on channel=9 note=0 velocity=95 time=0
EXTRACT: note_on channel=9 note=29 velocity=95 time=0
EXTRACT: note_on channel=9 note=40 velocity=95 time=0
EXTRACT: note_off channel=9 note=0 velocity=95 time=0.14150925
EXTRACT: note_off channel=9 note=29 velocity=95 time=0
EXTRACT: note_off channel=9 note=40 velocity=95 time=0
EXTRACT: note_on channel=9 note=0 velocity=95 time=0
EXTRACT: note_on channel=9 note=30 velocity=95 time=0
EXTRACT: note_on channel=9 note=35 velocity=95 time=0
EXTRACT: note_off channel=9 note=0 velocity=95 time=0.14150925
EXTRACT: note_off channel=9 note=30 velocity=95 time=0
EXTRACT: note_off channel=9 note=35 velocity=95 time=0
EXTRACT: note_on channel=9 note=0 velocity=95 time=0
EXTRACT: note_on channel=9 note=30 velocity=95 time=0
EXTRACT: note_on channel=9 note=35 velocity=95 time=0
EXTRACT: note_off channel=9 note=0 velocity=95 time=0.14150925
EXTRACT: note_off channel=9 note=30 velocity=95 time=0
EXTRACT: note_off channel=9 note=35 velocity=95 time=0
EXTRACT: note_on channel=9 note=39 velocity=95 time=0
EXTRACT: note_on channel=9 note=30 velocity=95 time=0
EXTRACT: note_on channel=9 note=40 velocity=95 time=0
EXTRACT: note_on channel=9 note=56 velocity=95 time=0
EXTRACT: note_off channel=9 note=39 velocity=95 time=0.14150925
EXTRACT: note_off channel=9 note=30 velocity=95 time=0
EXTRACT: note_off channel=9 note=40 velocity=95 time=0
EXTRACT: note_off channel=9 note=56 velocity=95 time=0
EXTRACT: note_on channel=9 note=29 velocity=95 time=0.14150925
EXTRACT: note_on channel=9 note=35 velocity=95 time=0
EXTRACT: note_off channel=9 note=29 velocity=95 time=0.14150925
EXTRACT: note_off channel=9 note=35 velocity=95 time=0
EXTRACT: note_on channel=9 note=0 velocity=95 time=0
EXTRACT: note_on channel=9 note=30 velocity=95 time=0
EXTRACT: note_on channel=9 note=35 velocity=95 time=0
EXTRACT: note_on channel=0 note=64 velocity=111 time=0.14150925
EXTRACT: note_on channel=0 note=61 velocity=95 time=0
EXTRACT: note_on channel=0 note=57 velocity=95 time=0
EXTRACT: note_on channel=0 note=52 velocity=111 time=0
EXTRACT: note_on channel=0 note=45 velocity=111 time=0
EXTRACT: note_on channel=2 note=61 velocity=95 time=0
EXTRACT: note_on channel=4 note=69 velocity=95 time=0
EXTRACT: note_on channel=6 note=85 velocity=95 time=0
EXTRACT: note_on channel=6 note=81 velocity=95 time=0
EXTRACT: note_on channel=6 note=76 velocity=95 time=0
EXTRACT: note_on channel=14 note=33 velocity=111 time=0
EXTRACT: note_off channel=9 note=0 velocity=95 time=0
EXTRACT: note_off channel=9 note=30 velocity=95 time=0
EXTRACT: note_off channel=9 note=35 velocity=95 time=0
EXTRACT: note_on channel=9 note=0 velocity=95 time=0
EXTRACT: note_on channel=9 note=35 velocity=95 time=0
EXTRACT: note_on channel=9 note=56 velocity=95 time=0
EXTRACT: note_off channel=9 note=0 velocity=95 time=0.2830185
EXTRACT: note_off channel=9 note=35 velocity=95 time=0
EXTRACT: note_off channel=9 note=56 velocity=95 time=0
EXTRACT: note_on channel=9 note=0 velocity=95 time=0
EXTRACT: note_on channel=9 note=35 velocity=95 time=0
EXTRACT: note_off channel=2 note=61 velocity=95 time=0.14150925
EXTRACT: note_off channel=4 note=69 velocity=95 time=0
EXTRACT: note_off channel=0 note=64 velocity=111 time=0.14150925
EXTRACT: note_off channel=0 note=61 velocity=95 time=0
EXTRACT: note_off channel=0 note=57 velocity=95 time=0
EXTRACT: note_off channel=0 note=52 velocity=111 time=0
EXTRACT: note_off channel=0 note=45 velocity=111 time=0
EXTRACT: note_on channel=0 note=64 velocity=111 time=0
EXTRACT: note_on channel=0 note=61 velocity=95 time=0
EXTRACT: note_on channel=0 note=57 velocity=95 time=0
EXTRACT: note_on channel=0 note=52 velocity=95 time=0
EXTRACT: note_on channel=0 note=45 velocity=111 time=0
EXTRACT: note_on channel=2 note=61 velocity=95 time=0
EXTRACT: note_on channel=4 note=69 velocity=95 time=0
EXTRACT: note_off channel=6 note=85 velocity=95 time=0
EXTRACT: note_off channel=6 note=81 velocity=95 time=0
EXTRACT: note_off channel=6 note=76 velocity=95 time=0
EXTRACT: note_on channel=6 note=85 velocity=95 time=0
EXTRACT: note_on channel=6 note=81 velocity=95 time=0
EXTRACT: note_off channel=14 note=33 velocity=111 time=0
EXTRACT: note_on channel=14 note=33 velocity=111 time=0
EXTRACT: note_off channel=9 note=0 velocity=95 time=0
EXTRACT: note_off channel=9 note=35 velocity=95 time=0
EXTRACT: note_on channel=9 note=39 velocity=95 time=0
EXTRACT: note_on channel=9 note=40 velocity=95 time=0
EXTRACT: note_on channel=9 note=56 velocity=95 time=0
EXTRACT: note_off channel=2 note=61 velocity=95 time=0.14150925
EXTRACT: note_off channel=9 note=39 velocity=95 time=0
EXTRACT: note_off channel=9 note=40 velocity=95 time=0
EXTRACT: note_off channel=9 note=56 velocity=95 time=0
EXTRACT: note_off channel=0 note=64 velocity=111 time=0.14150925
EXTRACT: note_off channel=0 note=61 velocity=95 time=0
EXTRACT: note_off channel=0 note=57 velocity=95 time=0
EXTRACT: note_off channel=0 note=52 velocity=95 time=0
EXTRACT: note_off channel=0 note=45 velocity=111 time=0
EXTRACT: note_off channel=4 note=69 velocity=95 time=0
EXTRACT: note_off channel=6 note=85 velocity=95 time=0
EXTRACT: note_off channel=6 note=81 velocity=95 time=0
EXTRACT: note_off channel=14 note=33 velocity=111 time=0
EXTRACT: note_on channel=9 note=35 velocity=95 time=0
EXTRACT: note_off channel=9 note=35 velocity=95 time=0.14150925
EXTRACT: note_on channel=9 note=0 velocity=95 time=0
EXTRACT: note_on channel=9 note=40 velocity=95 time=0
EXTRACT: note_off channel=9 note=0 velocity=95 time=0.14150925
EXTRACT: note_off channel=9 note=40 velocity=95 time=0
EXTRACT: note_on channel=9 note=35 velocity=95 time=0
EXTRACT: note_on channel=9 note=56 velocity=95 time=0
EXTRACT: note_off channel=9 note=35 velocity=95 time=0.14150925
EXTRACT: note_off channel=9 note=56 velocity=95 time=0
EXTRACT: note_on channel=9 note=0 velocity=95 time=0
EXTRACT: note_on channel=9 note=40 velocity=95 time=0
EXTRACT: note_off channel=9 note=0 velocity=95 time=0.14150925
EXTRACT: note_off channel=9 note=40 velocity=95 time=0
EXTRACT: note_on channel=9 note=0 velocity=95 time=0
EXTRACT: note_on channel=9 note=35 velocity=95 time=0
EXTRACT: note_off channel=9 note=0 velocity=95 time=0.2830185
EXTRACT: note_off channel=9 note=35 velocity=95 time=0
EXTRACT: note_on channel=9 note=39 velocity=95 time=0
EXTRACT: note_on channel=9 note=40 velocity=95 time=0
EXTRACT: note_on channel=9 note=56 velocity=95 time=0
EXTRACT: note_off channel=9 note=39 velocity=95 time=0.14150925
EXTRACT: note_off channel=9 note=40 velocity=95 time=0
EXTRACT: note_off channel=9 note=56 velocity=95 time=0
EXTRACT: note_on channel=9 note=35 velocity=95 time=0.14150925
EXTRACT: note_off channel=9 note=35 velocity=95 time=0.14150925
EXTRACT: note_on channel=9 note=0 velocity=95 time=0
EXTRACT: note_on channel=9 note=35 velocity=95 time=0
EXTRACT: note_on channel=0 note=64 velocity=111 time=0.14150925
EXTRACT: note_on channel=0 note=59 velocity=95 time=0
EXTRACT: note_on channel=0 note=56 velocity=95 time=0
EXTRACT: note_on channel=0 note=52 velocity=111 time=0
EXTRACT: note_on channel=0 note=47 velocity=111 time=0
EXTRACT: note_on channel=0 note=40 velocity=111 time=0
EXTRACT: note_on channel=2 note=59 velocity=95 time=0
EXTRACT: note_on channel=4 note=68 velocity=95 time=0
EXTRACT: note_on channel=6 note=83 velocity=95 time=0
EXTRACT: note_on channel=6 note=80 velocity=95 time=0
EXTRACT: note_on channel=14 note=40 velocity=111 time=0
EXTRACT: note_off channel=9 note=0 velocity=95 time=0
EXTRACT: note_off channel=9 note=35 velocity=95 time=0
EXTRACT: note_on channel=9 note=0 velocity=95 time=0
EXTRACT: note_on channel=9 note=35 velocity=95 time=0
EXTRACT: note_on channel=9 note=56 velocity=95 time=0
EXTRACT: note_off channel=9 note=0 velocity=95 time=0.14150925
EXTRACT: note_off channel=9 note=35 velocity=95 time=0
EXTRACT: note_off channel=9 note=56 velocity=95 time=0
EXTRACT: note_off channel=14 note=40 velocity=111 time=0.14150925
EXTRACT: note_on channel=14 note=44 velocity=111 time=0
EXTRACT: note_on channel=9 note=35 velocity=95 time=0
EXTRACT: note_off channel=2 note=59 velocity=95 time=0.14150925
EXTRACT: note_on channel=2 note=57 velocity=95 time=0
EXTRACT: note_off channel=4 note=68 velocity=95 time=0
EXTRACT: note_on channel=4 note=66 velocity=95 time=0
EXTRACT: note_off channel=0 note=64 velocity=111 time=0.14150925
EXTRACT: note_off channel=0 note=59 velocity=95 time=0
EXTRACT: note_off channel=0 note=56 velocity=95 time=0
EXTRACT: note_off channel=0 note=52 velocity=111 time=0
EXTRACT: note_off channel=0 note=47 velocity=111 time=0
EXTRACT: note_off channel=0 note=40 velocity=111 time=0
EXTRACT: note_on channel=0 note=64 velocity=111 time=0
EXTRACT: note_on channel=0 note=59 velocity=95 time=0
EXTRACT: note_on channel=0 note=56 velocity=95 time=0
EXTRACT: note_on channel=0 note=52 velocity=95 time=0
EXTRACT: note_on channel=0 note=47 velocity=111 time=0
EXTRACT: note_on channel=0 note=40 velocity=111 time=0
EXTRACT: note_off channel=2 note=57 velocity=95 time=0
EXTRACT: note_on channel=2 note=56 velocity=95 time=0
EXTRACT: note_off channel=4 note=66 velocity=95 time=0
EXTRACT: note_on channel=4 note=64 velocity=95 time=0
EXTRACT: note_off channel=14 note=44 velocity=111 time=0
EXTRACT: note_on channel=14 note=45 velocity=111 time=0
EXTRACT: note_off channel=9 note=35 velocity=95 time=0
EXTRACT: note_on channel=9 note=39 velocity=95 time=0
EXTRACT: note_on channel=9 note=40 velocity=95 time=0
EXTRACT: note_on channel=9 note=56 velocity=95 time=0
EXTRACT: note_off channel=9 note=39 velocity=95 time=0.14150925
EXTRACT: note_off channel=9 note=40 velocity=95 time=0
EXTRACT: note_off channel=9 note=56 velocity=95 time=0
EXTRACT: note_off channel=0 note=64 velocity=111 time=0.14150925
EXTRACT: note_off channel=0 note=59 velocity=95 time=0
EXTRACT: note_off channel=0 note=56 velocity=95 time=0
EXTRACT: note_off channel=0 note=52 velocity=95 time=0
EXTRACT: note_off channel=0 note=47 velocity=111 time=0
EXTRACT: note_off channel=0 note=40 velocity=111 time=0
EXTRACT: note_off channel=2 note=56 velocity=95 time=0
EXTRACT: note_off channel=4 note=64 velocity=95 time=0
EXTRACT: note_off channel=14 note=45 velocity=111 time=0
EXTRACT: note_on channel=14 note=45 velocity=111 time=0
EXTRACT: note_on channel=9 note=35 velocity=95 time=0
EXTRACT: note_off channel=14 note=45 velocity=111 time=0.14150925
EXTRACT: note_on channel=14 note=52 velocity=111 time=0
EXTRACT: note_off channel=9 note=35 velocity=95 time=0
EXTRACT: note_on channel=9 note=0 velocity=95 time=0
EXTRACT: note_on channel=9 note=29 velocity=95 time=0
EXTRACT: note_on channel=9 note=40 velocity=95 time=0
EXTRACT: note_on channel=2 note=52 velocity=95 time=0.14150925
EXTRACT: note_on channel=4 note=76 velocity=95 time=0
EXTRACT: note_off channel=9 note=0 velocity=95 time=0
EXTRACT: note_off channel=9 note=29 velocity=95 time=0
EXTRACT: note_off channel=9 note=40 velocity=95 time=0
EXTRACT: note_on channel=9 note=0 velocity=95 time=0
EXTRACT: note_on channel=9 note=30 velocity=95 time=0
EXTRACT: note_on channel=9 note=40 velocity=95 time=0
EXTRACT: note_on channel=9 note=56 velocity=95 time=0
EXTRACT: note_off channel=14 note=52 velocity=111 time=0.14150925
EXTRACT: note_on channel=14 note=52 velocity=111 time=0
EXTRACT: note_off channel=9 note=0 velocity=95 time=0
EXTRACT: note_off channel=9 note=30 velocity=95 time=0
EXTRACT: note_off channel=9 note=40 velocity=95 time=0
EXTRACT: note_off channel=9 note=56 velocity=95 time=0
EXTRACT: note_on channel=9 note=0 velocity=95 time=0
EXTRACT: note_on channel=9 note=29 velocity=95 time=0
EXTRACT: note_on channel=9 note=40 velocity=95 time=0
EXTRACT: note_on channel=0 note=64 velocity=111 time=0.14150925
EXTRACT: note_on channel=0 note=59 velocity=111 time=0
EXTRACT: note_on channel=0 note=56 velocity=111 time=0
EXTRACT: note_on channel=0 note=52 velocity=111 time=0
EXTRACT: note_off channel=2 note=52 velocity=95 time=0
EXTRACT: note_on channel=2 note=54 velocity=95 time=0
EXTRACT: note_off channel=14 note=52 velocity=111 time=0
EXTRACT: note_on channel=14 note=50 velocity=111 time=0
EXTRACT: note_off channel=9 note=0 velocity=95 time=0
EXTRACT: note_off channel=9 note=29 velocity=95 time=0
EXTRACT: note_off channel=9 note=40 velocity=95 time=0
EXTRACT: note_on channel=9 note=0 velocity=95 time=0
EXTRACT: note_on channel=9 note=30 velocity=95 time=0
EXTRACT: note_on channel=9 note=40 velocity=95 time=0
EXTRACT: note_off channel=0 note=64 velocity=111 time=0.14150925
EXTRACT: note_off channel=0 note=59 velocity=111 time=0
EXTRACT: note_off channel=0 note=56 velocity=111 time=0
EXTRACT: note_off channel=0 note=52 velocity=111 time=0
EXTRACT: note_off channel=9 note=0 velocity=95 time=0
EXTRACT: note_off channel=9 note=30 velocity=95 time=0
EXTRACT: note_off channel=9 note=40 velocity=95 time=0
EXTRACT: note_on channel=9 note=0 velocity=95 time=0
EXTRACT: note_on channel=9 note=30 velocity=95 time=0
EXTRACT: note_on channel=9 note=40 velocity=95 time=0
EXTRACT: note_on channel=0 note=64 velocity=111 time=0.14150925
EXTRACT: note_on channel=0 note=59 velocity=111 time=0
EXTRACT: note_on channel=0 note=55 velocity=111 time=0
EXTRACT: note_on channel=0 note=50 velocity=111 time=0
EXTRACT: note_off channel=2 note=54 velocity=95 time=0
EXTRACT: note_on channel=2 note=57 velocity=95 time=0
EXTRACT: note_off channel=4 note=76 velocity=95 time=0
EXTRACT: note_on channel=4 note=73 velocity=95 time=0
EXTRACT: note_off channel=14 note=50 velocity=111 time=0
EXTRACT: note_on channel=14 note=52 velocity=111 time=0
EXTRACT: note_off channel=9 note=0 velocity=95 time=0
EXTRACT: note_off channel=9 note=30 velocity=95 time=0
EXTRACT: note_off channel=9 note=40 velocity=95 time=0
EXTRACT: note_on channel=9 note=0 velocity=95 time=0
EXTRACT: note_on channel=9 note=39 velocity=95 time=0
EXTRACT: note_on channel=9 note=30 velocity=95 time=0
EXTRACT: note_on channel=9 note=40 velocity=95 time=0
EXTRACT: note_on channel=9 note=56 velocity=95 time=0
EXTRACT: note_off channel=0 note=64 velocity=111 time=0.031249959375
EXTRACT: note_off channel=0 note=59 velocity=111 time=0
EXTRACT: note_off channel=0 note=55 velocity=111 time=0
EXTRACT: note_off channel=0 note=50 velocity=111 time=0
EXTRACT: note_on channel=0 note=64 velocity=111 time=0.110259290625
EXTRACT: note_on channel=0 note=59 velocity=111 time=0
EXTRACT: note_on channel=0 note=56 velocity=111 time=0
EXTRACT: note_on channel=0 note=52 velocity=111 time=0
EXTRACT: note_off channel=2 note=57 velocity=95 time=0
EXTRACT: note_off channel=9 note=0 velocity=95 time=0
EXTRACT: note_off channel=9 note=39 velocity=95 time=0
EXTRACT: note_off channel=9 note=30 velocity=95 time=0
EXTRACT: note_off channel=9 note=40 velocity=95 time=0
EXTRACT: note_off channel=9 note=56 velocity=95 time=0
EXTRACT: note_on channel=9 note=0 velocity=95 time=0
EXTRACT: note_on channel=9 note=40 velocity=95 time=0
EXTRACT: note_off channel=0 note=64 velocity=111 time=0.14150925
EXTRACT: note_off channel=0 note=59 velocity=111 time=0
EXTRACT: note_off channel=0 note=56 velocity=111 time=0
EXTRACT: note_off channel=0 note=52 velocity=111 time=0
EXTRACT: note_on channel=2 note=59 velocity=95 time=0
EXTRACT: note_off channel=4 note=73 velocity=95 time=0
EXTRACT: note_on channel=4 note=71 velocity=95 time=0
EXTRACT: note_off channel=9 note=0 velocity=95 time=0
EXTRACT: note_off channel=9 note=40 velocity=95 time=0
EXTRACT: note_on channel=9 note=0 velocity=95 time=0
EXTRACT: note_on channel=9 note=29 velocity=95 time=0
EXTRACT: note_on channel=9 note=40 velocity=95 time=0
EXTRACT: note_off channel=2 note=59 velocity=95 time=0.14150925
EXTRACT: note_off channel=4 note=71 velocity=95 time=0
EXTRACT: note_on channel=4 note=69 velocity=95 time=0
EXTRACT: note_off channel=6 note=83 velocity=95 time=0
EXTRACT: note_off channel=6 note=80 velocity=95 time=0
EXTRACT: note_off channel=9 note=0 velocity=95 time=0
EXTRACT: note_off channel=9 note=29 velocity=95 time=0
EXTRACT: note_off channel=9 note=40 velocity=95 time=0
EXTRACT: note_on channel=9 note=0 velocity=95 time=0
EXTRACT: note_on channel=9 note=30 velocity=95 time=0
EXTRACT: note_on channel=9 note=40 velocity=95 time=0
EXTRACT: note_on channel=0 note=64 velocity=111 time=0.14150925
EXTRACT: note_on channel=0 note=61 velocity=111 time=0
EXTRACT: note_on channel=0 note=57 velocity=111 time=0
EXTRACT: note_on channel=0 note=52 velocity=111 time=0
EXTRACT: note_on channel=0 note=45 velocity=111 time=0
EXTRACT: note_on channel=2 note=61 velocity=95 time=0
EXTRACT: note_off channel=4 note=69 velocity=95 time=0
EXTRACT: note_on channel=4 note=69 velocity=95 time=0
EXTRACT: note_on channel=6 note=85 velocity=95 time=0
EXTRACT: note_on channel=6 note=81 velocity=95 time=0
EXTRACT: note_on channel=6 note=76 velocity=95 time=0
EXTRACT: note_off channel=14 note=52 velocity=111 time=0
EXTRACT: note_on channel=14 note=33 velocity=111 time=0
EXTRACT: note_off channel=9 note=0 velocity=95 time=0
EXTRACT: note_off channel=9 note=30 velocity=95 time=0
EXTRACT: note_off channel=9 note=40 velocity=95 time=0
EXTRACT: note_on channel=9 note=0 velocity=95 time=0
EXTRACT: note_on channel=9 note=35 velocity=95 time=0
EXTRACT: note_on channel=9 note=49 velocity=95 time=0
EXTRACT: note_on channel=9 note=51 velocity=95 time=0
EXTRACT: note_on channel=9 note=56 velocity=95 time=0
EXTRACT: note_on channel=9 note=57 velocity=95 time=0
EXTRACT: note_off channel=9 note=0 velocity=95 time=0.14150925
EXTRACT: note_off channel=9 note=35 velocity=95 time=0
EXTRACT: note_off channel=9 note=49 velocity=95 time=0
EXTRACT: note_off channel=9 note=51 velocity=95 time=0
EXTRACT: note_off channel=9 note=56 velocity=95 time=0
EXTRACT: note_off channel=9 note=57 velocity=95 time=0
EXTRACT: note_on channel=9 note=51 velocity=95 time=0.14150925
EXTRACT: note_off channel=2 note=61 velocity=95 time=0.14150925
EXTRACT: note_off channel=4 note=69 velocity=95 time=0
EXTRACT: note_off channel=9 note=51 velocity=95 time=0
EXTRACT: note_off channel=0 note=64 velocity=111 time=0.14150925
EXTRACT: note_off channel=0 note=61 velocity=111 time=0
EXTRACT: note_off channel=0 note=57 velocity=111 time=0
EXTRACT: note_off channel=0 note=52 velocity=111 time=0
EXTRACT: note_off channel=0 note=45 velocity=111 time=0
EXTRACT: note_on channel=0 note=64 velocity=111 time=0
EXTRACT: note_on channel=0 note=61 velocity=95 time=0
EXTRACT: note_on channel=0 note=57 velocity=95 time=0
EXTRACT: note_on channel=0 note=52 velocity=95 time=0
EXTRACT: note_on channel=0 note=45 velocity=111 time=0
EXTRACT: note_on channel=2 note=61 velocity=95 time=0
EXTRACT: note_on channel=4 note=69 velocity=95 time=0
EXTRACT: note_off channel=14 note=33 velocity=111 time=0
EXTRACT: note_on channel=14 note=33 velocity=111 time=0
EXTRACT: note_on channel=9 note=39 velocity=95 time=0
EXTRACT: note_on channel=9 note=40 velocity=95 time=0
EXTRACT: note_on channel=9 note=56 velocity=95 time=0
EXTRACT: note_on channel=9 note=59 velocity=95 time=0
EXTRACT: note_off channel=2 note=61 velocity=95 time=0.14150925
EXTRACT: note_off channel=9 note=39 velocity=95 time=0
EXTRACT: note_off channel=9 note=40 velocity=95 time=0
EXTRACT: note_off channel=9 note=56 velocity=95 time=0
EXTRACT: note_off channel=9 note=59 velocity=95 time=0
EXTRACT: note_off channel=0 note=64 velocity=111 time=0.14150925
EXTRACT: note_off channel=0 note=61 velocity=95 time=0
EXTRACT: note_off channel=0 note=57 velocity=95 time=0
EXTRACT: note_off channel=0 note=52 velocity=95 time=0
EXTRACT: note_off channel=0 note=45 velocity=111 time=0
EXTRACT: note_off channel=4 note=69 velocity=95 time=0
EXTRACT: note_off channel=14 note=33 velocity=111 time=0
EXTRACT: note_on channel=9 note=35 velocity=95 time=0
EXTRACT: note_on channel=9 note=53 velocity=95 time=0
EXTRACT: note_off channel=9 note=35 velocity=95 time=0.14150925
EXTRACT: note_off channel=9 note=53 velocity=95 time=0
EXTRACT: note_on channel=9 note=0 velocity=95 time=0
EXTRACT: note_on channel=9 note=40 velocity=95 time=0
EXTRACT: note_on channel=9 note=59 velocity=95 time=0
EXTRACT: note_off channel=9 note=0 velocity=95 time=0.14150925
EXTRACT: note_off channel=9 note=40 velocity=95 time=0
EXTRACT: note_off channel=9 note=59 velocity=95 time=0
EXTRACT: note_on channel=9 note=0 velocity=95 time=0
EXTRACT: note_on channel=9 note=35 velocity=95 time=0
EXTRACT: note_on channel=9 note=51 velocity=95 time=0
EXTRACT: note_on channel=9 note=56 velocity=95 time=0
EXTRACT: note_off channel=6 note=85 velocity=95 time=0.14150925
EXTRACT: note_off channel=6 note=81 velocity=95 time=0
EXTRACT: note_off channel=6 note=76 velocity=95 time=0
EXTRACT: note_on channel=6 note=76 velocity=95 time=0
EXTRACT: note_on channel=14 note=33 velocity=111 time=0
EXTRACT: note_off channel=9 note=0 velocity=95 time=0
EXTRACT: note_off channel=9 note=35 velocity=95 time=0
EXTRACT: note_off channel=9 note=51 velocity=95 time=0
EXTRACT: note_off channel=9 note=56 velocity=95 time=0
EXTRACT: note_on channel=9 note=0 velocity=95 time=0
EXTRACT: note_on channel=9 note=59 velocity=95 time=0
EXTRACT: note_on channel=0 note=64 velocity=111 time=0.14150925
EXTRACT: note_on channel=0 note=61 velocity=111 time=0
EXTRACT: note_on channel=0 note=57 velocity=111 time=0
EXTRACT: note_on channel=0 note=52 velocity=111 time=0
EXTRACT: note_on channel=0 note=45 velocity=111 time=0
EXTRACT: note_on channel=2 note=61 velocity=95 time=0
EXTRACT: note_on channel=4 note=69 velocity=95 time=0
EXTRACT: note_off channel=6 note=76 velocity=95 time=0
EXTRACT: note_on channel=6 note=85 velocity=95 time=0
EXTRACT: note_on channel=6 note=81 velocity=95 time=0
EXTRACT: note_on channel=6 note=76 velocity=95 time=0
EXTRACT: note_off channel=9 note=0 velocity=95 time=0
EXTRACT: note_off channel=9 note=59 velocity=95 time=0
EXTRACT: note_on channel=9 note=0 velocity=95 time=0
EXTRACT: note_on channel=9 note=35 velocity=95 time=0
EXTRACT: note_on channel=9 note=51 velocity=95 time=0
EXTRACT: note_off channel=0 note=64 velocity=111 time=0.14150925
EXTRACT: note_off channel=0 note=61 velocity=111 time=0
EXTRACT: note_off channel=0 note=57 velocity=111 time=0
EXTRACT: note_off channel=0 note=52 velocity=111 time=0
EXTRACT: note_off channel=0 note=45 velocity=111 time=0
EXTRACT: note_off channel=2 note=61 velocity=95 time=0
EXTRACT: note_off channel=4 note=69 velocity=95 time=0
EXTRACT: note_off channel=6 note=85 velocity=95 time=0
EXTRACT: note_off channel=6 note=81 velocity=95 time=0
EXTRACT: note_off channel=6 note=76 velocity=95 time=0
EXTRACT: note_off channel=9 note=0 velocity=95 time=0
EXTRACT: note_off channel=9 note=35 velocity=95 time=0
EXTRACT: note_off channel=9 note=51 velocity=95 time=0
EXTRACT: note_on channel=9 note=0 velocity=95 time=0
EXTRACT: note_on channel=9 note=51 velocity=95 time=0
EXTRACT: note_on channel=0 note=64 velocity=111 time=0.14150925
EXTRACT: note_on channel=0 note=59 velocity=95 time=0
EXTRACT: note_on channel=0 note=55 velocity=95 time=0
EXTRACT: note_on channel=0 note=50 velocity=95 time=0
EXTRACT: note_off channel=14 note=33 velocity=111 time=0
EXTRACT: note_off channel=9 note=0 velocity=95 time=0
EXTRACT: note_off channel=9 note=51 velocity=95 time=0
EXTRACT: note_on channel=9 note=0 velocity=95 time=0
EXTRACT: note_on channel=9 note=39 velocity=95 time=0
EXTRACT: note_on channel=9 note=40 velocity=95 time=0
EXTRACT: note_on channel=9 note=56 velocity=95 time=0
EXTRACT: note_on channel=9 note=59 velocity=95 time=0
EXTRACT: note_off channel=0 note=64 velocity=111 time=0.031249959375
EXTRACT: note_off channel=0 note=59 velocity=95 time=0
EXTRACT: note_off channel=0 note=55 velocity=95 time=0
EXTRACT: note_off channel=0 note=50 velocity=95 time=0
EXTRACT: note_on channel=0 note=64 velocity=111 time=0.110259290625
EXTRACT: note_on channel=0 note=61 velocity=111 time=0
EXTRACT: note_on channel=0 note=57 velocity=111 time=0
EXTRACT: note_on channel=0 note=52 velocity=111 time=0
EXTRACT: note_on channel=2 note=61 velocity=95 time=0
EXTRACT: note_on channel=4 note=69 velocity=95 time=0
EXTRACT: note_on channel=6 note=76 velocity=95 time=0
EXTRACT: note_on channel=14 note=33 velocity=111 time=0
EXTRACT: note_off channel=9 note=0 velocity=95 time=0
EXTRACT: note_off channel=9 note=39 velocity=95 time=0
EXTRACT: note_off channel=9 note=40 velocity=95 time=0
EXTRACT: note_off channel=9 note=56 velocity=95 time=0
EXTRACT: note_off channel=9 note=59 velocity=95 time=0
EXTRACT: note_off channel=0 note=64 velocity=111 time=0.14150925
EXTRACT: note_off channel=0 note=61 velocity=111 time=0
EXTRACT: note_off channel=0 note=57 velocity=111 time=0
EXTRACT: note_off channel=0 note=52 velocity=111 time=0
EXTRACT: note_off channel=2 note=61 velocity=95 time=0
EXTRACT: note_on channel=2 note=61 velocity=95 time=0
EXTRACT: note_off channel=4 note=69 velocity=95 time=0
EXTRACT: note_on channel=4 note=69 velocity=95 time=0
EXTRACT: note_off channel=6 note=76 velocity=95 time=0
EXTRACT: note_on channel=6 note=85 velocity=95 time=0
EXTRACT: note_on channel=6 note=81 velocity=95 time=0
EXTRACT: note_on channel=9 note=35 velocity=95 time=0
EXTRACT: note_on channel=9 note=51 velocity=95 time=0
EXTRACT: note_off channel=2 note=61 velocity=95 time=0.14150925
EXTRACT: note_off channel=4 note=69 velocity=95 time=0
EXTRACT: note_off channel=6 note=85 velocity=95 time=0
EXTRACT: note_off channel=6 note=81 velocity=95 time=0
EXTRACT: note_off channel=9 note=35 velocity=95 time=0
EXTRACT: note_off channel=9 note=51 velocity=95 time=0
EXTRACT: note_on channel=9 note=0 velocity=95 time=0
EXTRACT: note_on channel=9 note=51 velocity=95 time=0
EXTRACT: note_on channel=0 note=66 velocity=111 time=0.14150925
EXTRACT: note_on channel=0 note=62 velocity=111 time=0
EXTRACT: note_on channel=0 note=57 velocity=111 time=0
EXTRACT: note_on channel=0 note=50 velocity=111 time=0
EXTRACT: note_on channel=2 note=62 velocity=95 time=0
EXTRACT: note_on channel=4 note=66 velocity=95 time=0
EXTRACT: note_on channel=6 note=86 velocity=95 time=0
EXTRACT: note_on channel=6 note=81 velocity=95 time=0
EXTRACT: note_on channel=6 note=78 velocity=95 time=0
EXTRACT: note_off channel=14 note=33 velocity=111 time=0
EXTRACT: note_on channel=14 note=38 velocity=111 time=0
EXTRACT: note_off channel=9 note=0 velocity=95 time=0
EXTRACT: note_off channel=9 note=51 velocity=95 time=0
EXTRACT: note_on channel=9 note=0 velocity=95 time=0
EXTRACT: note_on channel=9 note=35 velocity=95 time=0
EXTRACT: note_on channel=9 note=51 velocity=95 time=0
EXTRACT: note_on channel=9 note=56 velocity=95 time=0
EXTRACT: note_off channel=9 note=0 velocity=95 time=0.14150925
EXTRACT: note_off channel=9 note=35 velocity=95 time=0
EXTRACT: note_off channel=9 note=51 velocity=95 time=0
EXTRACT: note_off channel=9 note=56 velocity=95 time=0
EXTRACT: note_off channel=14 note=38 velocity=111 time=0.14150925
EXTRACT: note_on channel=14 note=38 velocity=111 time=0
EXTRACT: note_on channel=9 note=51 velocity=95 time=0
EXTRACT: note_off channel=2 note=62 velocity=95 time=0.14150925
EXTRACT: note_off channel=4 note=66 velocity=95 time=0
EXTRACT: note_off channel=14 note=38 velocity=111 time=0
EXTRACT: note_on channel=14 note=38 velocity=111 time=0
EXTRACT: note_off channel=9 note=51 velocity=95 time=0
EXTRACT: note_off channel=0 note=66 velocity=111 time=0.14150925
EXTRACT: note_off channel=0 note=62 velocity=111 time=0
EXTRACT: note_off channel=0 note=57 velocity=111 time=0
EXTRACT: note_off channel=0 note=50 velocity=111 time=0
EXTRACT: note_on channel=0 note=66 velocity=111 time=0
EXTRACT: note_on channel=0 note=62 velocity=95 time=0
EXTRACT: note_on channel=0 note=57 velocity=95 time=0
EXTRACT: note_on channel=0 note=50 velocity=111 time=0
EXTRACT: note_on channel=2 note=62 velocity=95 time=0
EXTRACT: note_on channel=4 note=66 velocity=95 time=0
EXTRACT: note_off channel=14 note=38 velocity=111 time=0
EXTRACT: note_on channel=14 note=38 velocity=111 time=0
EXTRACT: note_on channel=9 note=39 velocity=95 time=0
EXTRACT: note_on channel=9 note=40 velocity=95 time=0
EXTRACT: note_on channel=9 note=56 velocity=95 time=0
EXTRACT: note_on channel=9 note=59 velocity=95 time=0
EXTRACT: note_off channel=2 note=62 velocity=95 time=0.14150925
EXTRACT: note_off channel=9 note=39 velocity=95 time=0
EXTRACT: note_off channel=9 note=40 velocity=95 time=0
EXTRACT: note_off channel=9 note=56 velocity=95 time=0
EXTRACT: note_off channel=9 note=59 velocity=95 time=0
EXTRACT: note_off channel=0 note=66 velocity=111 time=0.14150925
EXTRACT: note_off channel=0 note=62 velocity=95 time=0
EXTRACT: note_off channel=0 note=57 velocity=95 time=0
EXTRACT: note_off channel=0 note=50 velocity=111 time=0
EXTRACT: note_off channel=4 note=66 velocity=95 time=0
EXTRACT: note_on channel=9 note=53 velocity=95 time=0
EXTRACT: note_off channel=14 note=38 velocity=111 time=0.14150925
EXTRACT: note_on channel=14 note=38 velocity=111 time=0
EXTRACT: note_off channel=9 note=53 velocity=95 time=0
EXTRACT: note_on channel=9 note=0 velocity=95 time=0
EXTRACT: note_on channel=9 note=30 velocity=95 time=0
EXTRACT: note_on channel=9 note=35 velocity=95 time=0
EXTRACT: note_on channel=9 note=59 velocity=95 time=0
EXTRACT: note_on channel=2 note=66 velocity=95 time=0.14150925
EXTRACT: note_on channel=4 note=74 velocity=95 time=0
EXTRACT: note_off channel=6 note=86 velocity=95 time=0
EXTRACT: note_off channel=6 note=81 velocity=95 time=0
EXTRACT: note_off channel=6 note=78 velocity=95 time=0
EXTRACT: note_off channel=14 note=38 velocity=111 time=0
EXTRACT: note_off channel=9 note=0 velocity=95 time=0
EXTRACT: note_off channel=9 note=30 velocity=95 time=0
EXTRACT: note_off channel=9 note=35 velocity=95 time=0
EXTRACT: note_off channel=9 note=59 velocity=95 time=0
EXTRACT: note_on channel=9 note=0 velocity=95 time=0
EXTRACT: note_on channel=9 note=29 velocity=95 time=0
EXTRACT: note_on channel=9 note=35 velocity=95 time=0
EXTRACT: note_on channel=9 note=51 velocity=95 time=0
EXTRACT: note_on channel=9 note=56 velocity=95 time=0
EXTRACT: note_off channel=2 note=66 velocity=95 time=0.14150925
EXTRACT: note_on channel=2 note=66 velocity=95 time=0
EXTRACT: note_off channel=4 note=74 velocity=95 time=0
EXTRACT: note_on channel=4 note=74 velocity=95 time=0
EXTRACT: note_off channel=9 note=0 velocity=95 time=0
EXTRACT: note_off channel=9 note=29 velocity=95 time=0
EXTRACT: note_off channel=9 note=35 velocity=95 time=0
EXTRACT: note_off channel=9 note=51 velocity=95 time=0
EXTRACT: note_off channel=9 note=56 velocity=95 time=0
EXTRACT: note_on channel=9 note=0 velocity=95 time=0
EXTRACT: note_on channel=9 note=30 velocity=95 time=0
EXTRACT: note_on channel=9 note=35 velocity=95 time=0
EXTRACT: note_on channel=9 note=59 velocity=95 time=0
EXTRACT: note_on channel=0 note=66 velocity=111 time=0.14150925
EXTRACT: note_on channel=0 note=62 velocity=95 time=0
EXTRACT: note_on channel=0 note=57 velocity=95 time=0
EXTRACT: note_on channel=0 note=50 velocity=111 time=0
EXTRACT: note_off channel=2 note=66 velocity=95 time=0
EXTRACT: note_on channel=2 note=64 velocity=95 time=0
EXTRACT: note_off channel=4 note=74 velocity=95 time=0
EXTRACT: note_on channel=4 note=73 velocity=95 time=0
EXTRACT: note_on channel=6 note=86 velocity=95 time=0
EXTRACT: note_on channel=6 note=81 velocity=95 time=0
EXTRACT: note_on channel=14 note=45 velocity=111 time=0
EXTRACT: note_off channel=9 note=0 velocity=95 time=0
EXTRACT: note_off channel=9 note=30 velocity=95 time=0
EXTRACT: note_off channel=9 note=35 velocity=95 time=0
EXTRACT: note_off channel=9 note=59 velocity=95 time=0
EXTRACT: note_on channel=9 note=0 velocity=95 time=0
EXTRACT: note_on channel=9 note=30 velocity=95 time=0
EXTRACT: note_on channel=9 note=35 velocity=95 time=0
EXTRACT: note_on channel=9 note=51 velocity=95 time=0
EXTRACT: note_off channel=0 note=66 velocity=111 time=0.14150925
EXTRACT: note_off channel=0 note=62 velocity=95 time=0
EXTRACT: note_off channel=0 note=57 velocity=95 time=0
EXTRACT: note_off channel=0 note=50 velocity=111 time=0
EXTRACT: note_off channel=2 note=64 velocity=95 time=0
EXTRACT: note_off channel=4 note=73 velocity=95 time=0
EXTRACT: note_off channel=6 note=86 velocity=95 time=0
EXTRACT: note_off channel=6 note=81 velocity=95 time=0
EXTRACT: note_off channel=9 note=0 velocity=95 time=0
EXTRACT: note_off channel=9 note=30 velocity=95 time=0
EXTRACT: note_off channel=9 note=35 velocity=95 time=0
EXTRACT: note_off channel=9 note=51 velocity=95 time=0
EXTRACT: note_on channel=9 note=0 velocity=95 time=0
EXTRACT: note_on channel=9 note=51 velocity=95 time=0
EXTRACT: note_on channel=0 note=64 velocity=111 time=0.14150925
EXTRACT: note_on channel=0 note=59 velocity=95 time=0
EXTRACT: note_on channel=0 note=55 velocity=95 time=0
EXTRACT: note_on channel=0 note=50 velocity=95 time=0
EXTRACT: note_off channel=14 note=45 velocity=111 time=0
EXTRACT: note_on channel=14 note=49 velocity=111 time=0
EXTRACT: note_off channel=9 note=0 velocity=95 time=0
EXTRACT: note_off channel=9 note=51 velocity=95 time=0
EXTRACT: note_on channel=9 note=0 velocity=95 time=0
EXTRACT: note_on channel=9 note=39 velocity=95 time=0
EXTRACT: note_on channel=9 note=30 velocity=95 time=0
EXTRACT: note_on channel=9 note=40 velocity=95 time=0
EXTRACT: note_on channel=9 note=56 velocity=95 time=0
EXTRACT: note_on channel=9 note=59 velocity=95 time=0
EXTRACT: note_off channel=0 note=64 velocity=111 time=0.031249959375
EXTRACT: note_off channel=0 note=59 velocity=95 time=0
EXTRACT: note_off channel=0 note=55 velocity=95 time=0
EXTRACT: note_off channel=0 note=50 velocity=95 time=0
EXTRACT: note_on channel=0 note=66 velocity=111 time=0.110259290625
EXTRACT: note_on channel=0 note=62 velocity=111 time=0
EXTRACT: note_on channel=0 note=57 velocity=111 time=0
EXTRACT: note_on channel=2 note=62 velocity=95 time=0
EXTRACT: note_on channel=4 note=71 velocity=95 time=0
EXTRACT: note_on channel=6 note=78 velocity=95 time=0
EXTRACT: note_off channel=9 note=0 velocity=95 time=0
EXTRACT: note_off channel=9 note=39 velocity=95 time=0
EXTRACT: note_off channel=9 note=30 velocity=95 time=0
EXTRACT: note_off channel=9 note=40 velocity=95 time=0
EXTRACT: note_off channel=9 note=56 velocity=95 time=0
EXTRACT: note_off channel=9 note=59 velocity=95 time=0
EXTRACT: note_off channel=0 note=66 velocity=111 time=0.14150925
EXTRACT: note_off channel=0 note=62 velocity=111 time=0
EXTRACT: note_off channel=0 note=57 velocity=111 time=0
EXTRACT: note_off channel=6 note=78 velocity=95 time=0
EXTRACT: note_on channel=6 note=86 velocity=95 time=0
EXTRACT: note_on channel=6 note=81 velocity=95 time=0
EXTRACT: note_off channel=14 note=49 velocity=111 time=0
EXTRACT: note_on channel=14 note=50 velocity=111 time=0
EXTRACT: note_on channel=9 note=29 velocity=95 time=0
EXTRACT: note_on channel=9 note=35 velocity=95 time=0
EXTRACT: note_on channel=9 note=53 velocity=95 time=0
EXTRACT: note_off channel=2 note=62 velocity=95 time=0.14150925
EXTRACT: note_off channel=4 note=71 velocity=95 time=0
EXTRACT: note_off channel=6 note=86 velocity=95 time=0
EXTRACT: note_off channel=6 note=81 velocity=95 time=0
EXTRACT: note_off channel=9 note=29 velocity=95 time=0
EXTRACT: note_off channel=9 note=35 velocity=95 time=0
EXTRACT: note_off channel=9 note=53 velocity=95 time=0
EXTRACT: note_on channel=9 note=0 velocity=95 time=0
EXTRACT: note_on channel=9 note=30 velocity=95 time=0
EXTRACT: note_on channel=9 note=59 velocity=95 time=0
EXTRACT: note_on channel=0 note=64 velocity=111 time=0.14150925
EXTRACT: note_on channel=0 note=61 velocity=111 time=0
EXTRACT: note_on channel=0 note=57 velocity=111 time=0
EXTRACT: note_on channel=0 note=52 velocity=111 time=0
EXTRACT: note_on channel=0 note=45 velocity=111 time=0
EXTRACT: note_on channel=2 note=61 velocity=95 time=0
EXTRACT: note_on channel=4 note=69 velocity=95 time=0
EXTRACT: note_on channel=6 note=85 velocity=95 time=0
EXTRACT: note_on channel=6 note=81 velocity=95 time=0
EXTRACT: note_on channel=6 note=76 velocity=95 time=0
EXTRACT: note_off channel=14 note=50 velocity=111 time=0
EXTRACT: note_on channel=14 note=33 velocity=111 time=0
EXTRACT: note_off channel=9 note=0 velocity=95 time=0
EXTRACT: note_off channel=9 note=30 velocity=95 time=0
EXTRACT: note_off channel=9 note=59 velocity=95 time=0
EXTRACT: note_on channel=9 note=0 velocity=95 time=0
EXTRACT: note_on channel=9 note=35 velocity=95 time=0
EXTRACT: note_on channel=9 note=51 velocity=95 time=0
EXTRACT: note_on channel=9 note=56 velocity=95 time=0
EXTRACT: note_off channel=9 note=0 velocity=95 time=0.14150925
EXTRACT: note_off channel=9 note=35 velocity=95 time=0
EXTRACT: note_off channel=9 note=51 velocity=95 time=0
EXTRACT: note_off channel=9 note=56 velocity=95 time=0
EXTRACT: note_off channel=14 note=33 velocity=111 time=0.14150925
EXTRACT: note_on channel=14 note=33 velocity=111 time=0
EXTRACT: note_on channel=9 note=35 velocity=95 time=0
EXTRACT: note_on channel=9 note=51 velocity=95 time=0
EXTRACT: note_off channel=2 note=61 velocity=95 time=0.14150925
EXTRACT: note_off channel=4 note=69 velocity=95 time=0
EXTRACT: note_off channel=14 note=33 velocity=111 time=0
EXTRACT: note_on channel=14 note=33 velocity=111 time=0
EXTRACT: note_off channel=9 note=35 velocity=95 time=0
EXTRACT: note_off channel=9 note=51 velocity=95 time=0
EXTRACT: note_off channel=0 note=64 velocity=111 time=0.14150925
EXTRACT: note_off channel=0 note=61 velocity=111 time=0
EXTRACT: note_off channel=0 note=57 velocity=111 time=0
EXTRACT: note_off channel=0 note=52 velocity=111 time=0
EXTRACT: note_off channel=0 note=45 velocity=111 time=0
EXTRACT: note_on channel=0 note=64 velocity=111 time=0
EXTRACT: note_on channel=0 note=61 velocity=95 time=0
EXTRACT: note_on channel=0 note=57 velocity=95 time=0
EXTRACT: note_on channel=0 note=52 velocity=95 time=0
EXTRACT: note_on channel=0 note=45 velocity=111 time=0
EXTRACT: note_on channel=2 note=61 velocity=95 time=0
EXTRACT: note_on channel=4 note=69 velocity=95 time=0
EXTRACT: note_off channel=14 note=33 velocity=111 time=0
EXTRACT: note_on channel=14 note=33 velocity=111 time=0
EXTRACT: note_on channel=9 note=39 velocity=95 time=0
EXTRACT: note_on channel=9 note=40 velocity=95 time=0
EXTRACT: note_on channel=9 note=56 velocity=95 time=0
EXTRACT: note_on channel=9 note=59 velocity=95 time=0
EXTRACT: note_off channel=2 note=61 velocity=95 time=0.14150925
EXTRACT: note_off channel=9 note=39 velocity=95 time=0
EXTRACT: note_off channel=9 note=40 velocity=95 time=0
EXTRACT: note_off channel=9 note=56 velocity=95 time=0
EXTRACT: note_off channel=9 note=59 velocity=95 time=0
EXTRACT: note_off channel=0 note=64 velocity=111 time=0.14150925
EXTRACT: note_off channel=0 note=61 velocity=95 time=0
EXTRACT: note_off channel=0 note=57 velocity=95 time=0
EXTRACT: note_off channel=0 note=52 velocity=95 time=0
EXTRACT: note_off channel=0 note=45 velocity=111 time=0
EXTRACT: note_off channel=4 note=69 velocity=95 time=0
EXTRACT: note_on channel=9 note=35 velocity=95 time=0
EXTRACT: note_on channel=9 note=53 velocity=95 time=0
EXTRACT: note_off channel=14 note=33 velocity=111 time=0.14150925
EXTRACT: note_on channel=14 note=33 velocity=111 time=0
EXTRACT: note_off channel=9 note=35 velocity=95 time=0
EXTRACT: note_off channel=9 note=53 velocity=95 time=0
EXTRACT: note_on channel=9 note=0 velocity=95 time=0
EXTRACT: note_on channel=9 note=40 velocity=95 time=0
EXTRACT: note_on channel=9 note=59 velocity=95 time=0
EXTRACT: note_off channel=6 note=85 velocity=95 time=0.14150925
EXTRACT: note_off channel=6 note=81 velocity=95 time=0
EXTRACT: note_off channel=6 note=76 velocity=95 time=0
EXTRACT: note_off channel=14 note=33 velocity=111 time=0
EXTRACT: note_off channel=9 note=0 velocity=95 time=0
EXTRACT: note_off channel=9 note=40 velocity=95 time=0
EXTRACT: note_off channel=9 note=59 velocity=95 time=0
EXTRACT: note_on channel=9 note=0 velocity=95 time=0
EXTRACT: note_on channel=9 note=35 velocity=95 time=0
EXTRACT: note_on channel=9 note=51 velocity=95 time=0
EXTRACT: note_on channel=9 note=56 velocity=95 time=0
EXTRACT: note_off channel=9 note=0 velocity=95 time=0.14150925
EXTRACT: note_off channel=9 note=35 velocity=95 time=0
EXTRACT: note_off channel=9 note=51 velocity=95 time=0
EXTRACT: note_off channel=9 note=56 velocity=95 time=0
EXTRACT: note_on channel=9 note=0 velocity=95 time=0
EXTRACT: note_on channel=9 note=35 velocity=95 time=0
EXTRACT: note_on channel=9 note=59 velocity=95 time=0
EXTRACT: note_on channel=0 note=64 velocity=111 time=0.14150925
EXTRACT: note_on channel=0 note=61 velocity=111 time=0
EXTRACT: note_on channel=0 note=57 velocity=111 time=0
EXTRACT: note_on channel=0 note=52 velocity=111 time=0
EXTRACT: note_on channel=0 note=45 velocity=111 time=0
EXTRACT: note_on channel=2 note=61 velocity=95 time=0
EXTRACT: note_on channel=4 note=69 velocity=95 time=0
EXTRACT: note_on channel=6 note=85 velocity=95 time=0
EXTRACT: note_on channel=6 note=81 velocity=95 time=0
EXTRACT: note_on channel=14 note=40 velocity=111 time=0
EXTRACT: note_off channel=9 note=0 velocity=95 time=0
EXTRACT: note_off channel=9 note=35 velocity=95 time=0
EXTRACT: note_off channel=9 note=59 velocity=95 time=0
EXTRACT: note_on channel=9 note=0 velocity=95 time=0
EXTRACT: note_on channel=9 note=35 velocity=95 time=0
EXTRACT: note_on channel=9 note=51 velocity=95 time=0
EXTRACT: note_off channel=0 note=64 velocity=111 time=0.14150925
EXTRACT: note_off channel=0 note=61 velocity=111 time=0
EXTRACT: note_off channel=0 note=57 velocity=111 time=0
EXTRACT: note_off channel=0 note=52 velocity=111 time=0
EXTRACT: note_off channel=0 note=45 velocity=111 time=0
EXTRACT: note_off channel=2 note=61 velocity=95 time=0
EXTRACT: note_off channel=4 note=69 velocity=95 time=0
EXTRACT: note_off channel=6 note=85 velocity=95 time=0
EXTRACT: note_off channel=6 note=81 velocity=95 time=0
EXTRACT: note_off channel=9 note=0 velocity=95 time=0
EXTRACT: note_off channel=9 note=35 velocity=95 time=0
EXTRACT: note_off channel=9 note=51 velocity=95 time=0
EXTRACT: note_on channel=0 note=64 velocity=111 time=0.14150925
EXTRACT: note_on channel=0 note=59 velocity=95 time=0
EXTRACT: note_on channel=0 note=55 velocity=95 time=0
EXTRACT: note_on channel=0 note=50 velocity=95 time=0
EXTRACT: note_off channel=14 note=40 velocity=111 time=0
EXTRACT: note_on channel=14 note=44 velocity=111 time=0
EXTRACT: note_on channel=9 note=39 velocity=95 time=0
EXTRACT: note_on channel=9 note=35 velocity=95 time=0
EXTRACT: note_on channel=9 note=56 velocity=95 time=0
EXTRACT: note_on channel=9 note=59 velocity=95 time=0
EXTRACT: note_off channel=0 note=64 velocity=111 time=0.031249959375
EXTRACT: note_off channel=0 note=59 velocity=95 time=0
EXTRACT: note_off channel=0 note=55 velocity=95 time=0
EXTRACT: note_off channel=0 note=50 velocity=95 time=0
EXTRACT: note_on channel=0 note=64 velocity=111 time=0.110259290625
EXTRACT: note_on channel=0 note=61 velocity=111 time=0
EXTRACT: note_on channel=0 note=57 velocity=111 time=0
EXTRACT: note_on channel=0 note=52 velocity=111 time=0
EXTRACT: note_on channel=2 note=61 velocity=95 time=0
EXTRACT: note_on channel=4 note=69 velocity=95 time=0
EXTRACT: note_on channel=6 note=76 velocity=95 time=0
EXTRACT: note_off channel=9 note=39 velocity=95 time=0
EXTRACT: note_off channel=9 note=35 velocity=95 time=0
EXTRACT: note_off channel=9 note=56 velocity=95 time=0
EXTRACT: note_off channel=9 note=59 velocity=95 time=0
EXTRACT: note_off channel=0 note=64 velocity=111 time=0.14150925
EXTRACT: note_off channel=0 note=61 velocity=111 time=0
EXTRACT: note_off channel=0 note=57 velocity=111 time=0
EXTRACT: note_off channel=0 note=52 velocity=111 time=0
EXTRACT: note_off channel=2 note=61 velocity=95 time=0
EXTRACT: note_on channel=2 note=61 velocity=95 time=0
EXTRACT: note_off channel=4 note=69 velocity=95 time=0
EXTRACT: note_on channel=4 note=69 velocity=95 time=0
EXTRACT: note_off channel=6 note=76 velocity=95 time=0
EXTRACT: note_on channel=6 note=85 velocity=95 time=0
EXTRACT: note_on channel=6 note=81 velocity=95 time=0
EXTRACT: note_off channel=14 note=44 velocity=111 time=0
EXTRACT: note_on channel=14 note=45 velocity=111 time=0
EXTRACT: note_on channel=9 note=40 velocity=95 time=0
EXTRACT: note_on channel=9 note=51 velocity=95 time=0
EXTRACT: note_off channel=2 note=61 velocity=95 time=0.14150925
EXTRACT: note_off channel=4 note=69 velocity=95 time=0
EXTRACT: note_off channel=6 note=85 velocity=95 time=0
EXTRACT: note_off channel=6 note=81 velocity=95 time=0
EXTRACT: note_off channel=9 note=40 velocity=95 time=0
EXTRACT: note_off channel=9 note=51 velocity=95 time=0
EXTRACT: note_on channel=9 note=0 velocity=95 time=0
EXTRACT: note_on channel=9 note=59 velocity=95 time=0
EXTRACT: note_on channel=0 note=64 velocity=111 time=0.14150925
EXTRACT: note_on channel=0 note=59 velocity=111 time=0
EXTRACT: note_on channel=0 note=56 velocity=111 time=0
EXTRACT: note_on channel=0 note=52 velocity=111 time=0
EXTRACT: note_on channel=0 note=47 velocity=111 time=0
EXTRACT: note_on channel=0 note=40 velocity=111 time=0
EXTRACT: note_on channel=2 note=59 velocity=95 time=0
EXTRACT: note_on channel=4 note=68 velocity=95 time=0
EXTRACT: note_on channel=6 note=83 velocity=95 time=0
EXTRACT: note_on channel=6 note=80 velocity=95 time=0
EXTRACT: note_off channel=14 note=45 velocity=111 time=0
EXTRACT: note_on channel=14 note=40 velocity=111 time=0
EXTRACT: note_off channel=9 note=0 velocity=95 time=0
EXTRACT: note_off channel=9 note=59 velocity=95 time=0
EXTRACT: note_on channel=9 note=35 velocity=95 time=0
EXTRACT: note_on channel=9 note=51 velocity=95 time=0
EXTRACT: note_on channel=9 note=56 velocity=95 time=0
EXTRACT: note_off channel=9 note=35 velocity=95 time=0.14150925
EXTRACT: note_off channel=9 note=51 velocity=95 time=0
EXTRACT: note_off channel=9 note=56 velocity=95 time=0
EXTRACT: note_off channel=14 note=40 velocity=111 time=0.14150925
EXTRACT: note_on channel=14 note=44 velocity=111 time=0
EXTRACT: note_on channel=9 note=35 velocity=95 time=0
EXTRACT: note_on channel=9 note=51 velocity=95 time=0
EXTRACT: note_off channel=2 note=59 velocity=95 time=0.14150925
EXTRACT: note_on channel=2 note=57 velocity=95 time=0
EXTRACT: note_off channel=4 note=68 velocity=95 time=0
EXTRACT: note_on channel=4 note=66 velocity=95 time=0
EXTRACT: note_off channel=9 note=35 velocity=95 time=0
EXTRACT: note_off channel=9 note=51 velocity=95 time=0
EXTRACT: note_off channel=0 note=64 velocity=111 time=0.14150925
EXTRACT: note_off channel=0 note=59 velocity=111 time=0
EXTRACT: note_off channel=0 note=56 velocity=111 time=0
EXTRACT: note_off channel=0 note=52 velocity=111 time=0
EXTRACT: note_off channel=0 note=47 velocity=111 time=0
EXTRACT: note_off channel=0 note=40 velocity=111 time=0
EXTRACT: note_on channel=0 note=64 velocity=111 time=0
EXTRACT: note_on channel=0 note=59 velocity=95 time=0
EXTRACT: note_on channel=0 note=56 velocity=95 time=0
EXTRACT: note_on channel=0 note=52 velocity=95 time=0
EXTRACT: note_on channel=0 note=47 velocity=111 time=0
EXTRACT: note_on channel=0 note=40 velocity=111 time=0
EXTRACT: note_off channel=2 note=57 velocity=95 time=0
EXTRACT: note_on channel=2 note=56 velocity=95 time=0
EXTRACT: note_off channel=4 note=66 velocity=95 time=0
EXTRACT: note_on channel=4 note=64 velocity=95 time=0
EXTRACT: note_off channel=14 note=44 velocity=111 time=0
EXTRACT: note_on channel=14 note=45 velocity=111 time=0
EXTRACT: note_on channel=9 note=40 velocity=95 time=0
EXTRACT: note_on channel=9 note=56 velocity=95 time=0
EXTRACT: note_on channel=9 note=59 velocity=95 time=0
EXTRACT: note_off channel=4 note=64 velocity=95 time=0.14150925
EXTRACT: note_off channel=9 note=40 velocity=95 time=0
EXTRACT: note_off channel=9 note=56 velocity=95 time=0
EXTRACT: note_off channel=9 note=59 velocity=95 time=0
EXTRACT: note_off channel=0 note=64 velocity=111 time=0.14150925
EXTRACT: note_off channel=0 note=59 velocity=95 time=0
EXTRACT: note_off channel=0 note=56 velocity=95 time=0
EXTRACT: note_off channel=0 note=52 velocity=95 time=0
EXTRACT: note_off channel=0 note=47 velocity=111 time=0
EXTRACT: note_off channel=0 note=40 velocity=111 time=0
EXTRACT: note_off channel=2 note=56 velocity=95 time=0
EXTRACT: note_off channel=14 note=45 velocity=111 time=0
EXTRACT: note_on channel=14 note=45 velocity=111 time=0
EXTRACT: note_on channel=9 note=35 velocity=95 time=0
EXTRACT: note_on channel=9 note=53 velocity=95 time=0
EXTRACT: note_on channel=4 note=64 velocity=95 time=0.14150925
EXTRACT: note_off channel=14 note=45 velocity=111 time=0
EXTRACT: note_on channel=14 note=47 velocity=111 time=0
EXTRACT: note_off channel=9 note=35 velocity=95 time=0
EXTRACT: note_off channel=9 note=53 velocity=95 time=0
EXTRACT: note_on channel=9 note=0 velocity=95 time=0
EXTRACT: note_on channel=9 note=29 velocity=95 time=0
EXTRACT: note_on channel=9 note=40 velocity=95 time=0
EXTRACT: note_on channel=9 note=59 velocity=95 time=0
EXTRACT: note_off channel=4 note=64 velocity=95 time=0.14150925
EXTRACT: note_on channel=4 note=66 velocity=95 time=0
EXTRACT: note_off channel=9 note=0 velocity=95 time=0
EXTRACT: note_off channel=9 note=29 velocity=95 time=0
EXTRACT: note_off channel=9 note=40 velocity=95 time=0
EXTRACT: note_off channel=9 note=59 velocity=95 time=0
EXTRACT: note_on channel=9 note=0 velocity=95 time=0
EXTRACT: note_on channel=9 note=30 velocity=95 time=0
EXTRACT: note_on channel=9 note=35 velocity=95 time=0
EXTRACT: note_on channel=9 note=51 velocity=95 time=0
EXTRACT: note_on channel=9 note=56 velocity=95 time=0
EXTRACT: note_off channel=14 note=47 velocity=111 time=0.14150925
EXTRACT: note_on channel=14 note=47 velocity=111 time=0
EXTRACT: note_off channel=9 note=0 velocity=95 time=0
EXTRACT: note_off channel=9 note=30 velocity=95 time=0
EXTRACT: note_off channel=9 note=35 velocity=95 time=0
EXTRACT: note_off channel=9 note=51 velocity=95 time=0
EXTRACT: note_off channel=9 note=56 velocity=95 time=0
EXTRACT: note_on channel=9 note=0 velocity=95 time=0
EXTRACT: note_on channel=9 note=29 velocity=95 time=0
EXTRACT: note_on channel=9 note=40 velocity=95 time=0
EXTRACT: note_on channel=9 note=59 velocity=95 time=0
EXTRACT: note_on channel=0 note=64 velocity=111 time=0.14150925
EXTRACT: note_on channel=0 note=59 velocity=111 time=0
EXTRACT: note_on channel=0 note=56 velocity=111 time=0
EXTRACT: note_on channel=0 note=52 velocity=111 time=0
EXTRACT: note_on channel=0 note=47 velocity=111 time=0
EXTRACT: note_on channel=0 note=40 velocity=111 time=0
EXTRACT: note_off channel=4 note=66 velocity=95 time=0
EXTRACT: note_on channel=4 note=69 velocity=95 time=0
EXTRACT: note_off channel=14 note=47 velocity=111 time=0
EXTRACT: note_on channel=14 note=52 velocity=111 time=0
EXTRACT: note_off channel=9 note=0 velocity=95 time=0
EXTRACT: note_off channel=9 note=29 velocity=95 time=0
EXTRACT: note_off channel=9 note=40 velocity=95 time=0
EXTRACT: note_off channel=9 note=59 velocity=95 time=0
EXTRACT: note_on channel=9 note=0 velocity=95 time=0
EXTRACT: note_on channel=9 note=30 velocity=95 time=0
EXTRACT: note_on channel=9 note=35 velocity=95 time=0
EXTRACT: note_on channel=9 note=53 velocity=95 time=0
EXTRACT: note_off channel=0 note=64 velocity=111 time=0.14150925
EXTRACT: note_off channel=0 note=59 velocity=111 time=0
EXTRACT: note_off channel=0 note=56 velocity=111 time=0
EXTRACT: note_off channel=0 note=52 velocity=111 time=0
EXTRACT: note_off channel=0 note=47 velocity=111 time=0
EXTRACT: note_off channel=0 note=40 velocity=111 time=0
EXTRACT: note_off channel=4 note=69 velocity=95 time=0
EXTRACT: note_off channel=9 note=0 velocity=95 time=0
EXTRACT: note_off channel=9 note=30 velocity=95 time=0
EXTRACT: note_off channel=9 note=35 velocity=95 time=0
EXTRACT: note_off channel=9 note=53 velocity=95 time=0
EXTRACT: note_on channel=9 note=0 velocity=95 time=0
EXTRACT: note_on channel=9 note=35 velocity=95 time=0
EXTRACT: note_on channel=9 note=59 velocity=95 time=0
EXTRACT: note_on channel=0 note=64 velocity=111 time=0.14150925
EXTRACT: note_on channel=0 note=59 velocity=95 time=0
EXTRACT: note_on channel=0 note=55 velocity=95 time=0
EXTRACT: note_on channel=0 note=50 velocity=95 time=0
EXTRACT: note_on channel=4 note=73 velocity=95 time=0
EXTRACT: note_off channel=14 note=52 velocity=111 time=0
EXTRACT: note_on channel=14 note=50 velocity=111 time=0
EXTRACT: note_off channel=9 note=0 velocity=95 time=0
EXTRACT: note_off channel=9 note=35 velocity=95 time=0
EXTRACT: note_off channel=9 note=59 velocity=95 time=0
EXTRACT: note_on channel=9 note=0 velocity=95 time=0
EXTRACT: note_on channel=9 note=30 velocity=95 time=0
EXTRACT: note_on channel=9 note=40 velocity=95 time=0
EXTRACT: note_on channel=9 note=56 velocity=95 time=0
EXTRACT: note_on channel=9 note=59 velocity=95 time=0
EXTRACT: note_off channel=0 note=64 velocity=111 time=0.031249959375
EXTRACT: note_off channel=0 note=59 velocity=95 time=0
EXTRACT: note_off channel=0 note=55 velocity=95 time=0
EXTRACT: note_off channel=0 note=50 velocity=95 time=0
EXTRACT: note_on channel=0 note=64 velocity=111 time=0.110259290625
EXTRACT: note_on channel=0 note=59 velocity=111 time=0
EXTRACT: note_on channel=0 note=56 velocity=111 time=0
EXTRACT: note_on channel=0 note=52 velocity=111 time=0
EXTRACT: note_off channel=9 note=0 velocity=95 time=0
EXTRACT: note_off channel=9 note=30 velocity=95 time=0
EXTRACT: note_off channel=9 note=40 velocity=95 time=0
EXTRACT: note_off channel=9 note=56 velocity=95 time=0
EXTRACT: note_off channel=9 note=59 velocity=95 time=0
EXTRACT: note_off channel=0 note=64 velocity=111 time=0.14150925
EXTRACT: note_off channel=0 note=59 velocity=111 time=0
EXTRACT: note_off channel=0 note=56 velocity=111 time=0
EXTRACT: note_off channel=0 note=52 velocity=111 time=0
EXTRACT: note_off channel=4 note=73 velocity=95 time=0
EXTRACT: note_on channel=4 note=71 velocity=95 time=0
EXTRACT: note_on channel=9 note=29 velocity=95 time=0
EXTRACT: note_on channel=9 note=35 velocity=95 time=0
EXTRACT: note_on channel=9 note=51 velocity=95 time=0
EXTRACT: note_off channel=4 note=71 velocity=95 time=0.14150925
EXTRACT: note_on channel=4 note=69 velocity=95 time=0
EXTRACT: note_off channel=6 note=83 velocity=95 time=0
EXTRACT: note_off channel=6 note=80 velocity=95 time=0
EXTRACT: note_off channel=9 note=29 velocity=95 time=0
EXTRACT: note_off channel=9 note=35 velocity=95 time=0
EXTRACT: note_off channel=9 note=51 velocity=95 time=0
EXTRACT: note_on channel=9 note=0 velocity=95 time=0
EXTRACT: note_on channel=9 note=30 velocity=95 time=0
EXTRACT: note_on channel=9 note=35 velocity=95 time=0
EXTRACT: note_on channel=9 note=51 velocity=95 time=0
EXTRACT: note_on channel=0 note=64 velocity=111 time=0.14150925
EXTRACT: note_on channel=0 note=61 velocity=111 time=0
EXTRACT: note_on channel=0 note=57 velocity=111 time=0
EXTRACT: note_on channel=0 note=52 velocity=111 time=0
EXTRACT: note_on channel=0 note=45 velocity=111 time=0
EXTRACT: note_on channel=2 note=61 velocity=95 time=0
EXTRACT: note_off channel=4 note=69 velocity=95 time=0
EXTRACT: note_on channel=4 note=69 velocity=95 time=0
EXTRACT: note_on channel=6 note=85 velocity=95 time=0
EXTRACT: note_on channel=6 note=81 velocity=95 time=0
EXTRACT: note_off channel=14 note=50 velocity=111 time=0
EXTRACT: note_on channel=14 note=33 velocity=111 time=0
EXTRACT: note_off channel=9 note=0 velocity=95 time=0
EXTRACT: note_off channel=9 note=30 velocity=95 time=0
EXTRACT: note_off channel=9 note=35 velocity=95 time=0
EXTRACT: note_off channel=9 note=51 velocity=95 time=0
EXTRACT: note_on channel=9 note=0 velocity=95 time=0
EXTRACT: note_on channel=9 note=35 velocity=95 time=0
EXTRACT: note_on channel=9 note=51 velocity=95 time=0
EXTRACT: note_on channel=9 note=56 velocity=95 time=0
EXTRACT: note_off channel=9 note=0 velocity=95 time=0.14150925
EXTRACT: note_off channel=9 note=35 velocity=95 time=0
EXTRACT: note_off channel=9 note=51 velocity=95 time=0
EXTRACT: note_off channel=9 note=56 velocity=95 time=0
EXTRACT: note_on channel=9 note=51 velocity=95 time=0.14150925
EXTRACT: note_off channel=2 note=61 velocity=95 time=0.14150925
EXTRACT: note_off channel=4 note=69 velocity=95 time=0
EXTRACT: note_off channel=9 note=51 velocity=95 time=0
EXTRACT: note_off channel=0 note=64 velocity=111 time=0.14150925
EXTRACT: note_off channel=0 note=61 velocity=111 time=0
EXTRACT: note_off channel=0 note=57 velocity=111 time=0
EXTRACT: note_off channel=0 note=52 velocity=111 time=0
EXTRACT: note_off channel=0 note=45 velocity=111 time=0
EXTRACT: note_on channel=0 note=64 velocity=111 time=0
EXTRACT: note_on channel=0 note=61 velocity=95 time=0
EXTRACT: note_on channel=0 note=57 velocity=95 time=0
EXTRACT: note_on channel=0 note=52 velocity=95 time=0
EXTRACT: note_on channel=0 note=45 velocity=111 time=0
EXTRACT: note_on channel=2 note=61 velocity=95 time=0
EXTRACT: note_on channel=4 note=69 velocity=95 time=0
EXTRACT: note_off channel=14 note=33 velocity=111 time=0
EXTRACT: note_on channel=14 note=33 velocity=111 time=0
EXTRACT: note_on channel=9 note=39 velocity=95 time=0
EXTRACT: note_on channel=9 note=40 velocity=95 time=0
EXTRACT: note_on channel=9 note=56 velocity=95 time=0
EXTRACT: note_on channel=9 note=59 velocity=95 time=0
EXTRACT: note_off channel=2 note=61 velocity=95 time=0.14150925
EXTRACT: note_off channel=9 note=39 velocity=95 time=0
EXTRACT: note_off channel=9 note=40 velocity=95 time=0
EXTRACT: note_off channel=9 note=56 velocity=95 time=0
EXTRACT: note_off channel=9 note=59 velocity=95 time=0
EXTRACT: note_off channel=0 note=64 velocity=111 time=0.14150925
EXTRACT: note_off channel=0 note=61 velocity=95 time=0
EXTRACT: note_off channel=0 note=57 velocity=95 time=0
EXTRACT: note_off channel=0 note=52 velocity=95 time=0
EXTRACT: note_off channel=0 note=45 velocity=111 time=0
EXTRACT: note_off channel=4 note=69 velocity=95 time=0
EXTRACT: note_off channel=14 note=33 velocity=111 time=0
EXTRACT: note_on channel=9 note=35 velocity=95 time=0
EXTRACT: note_on channel=9 note=53 velocity=95 time=0
EXTRACT: note_off channel=9 note=35 velocity=95 time=0.14150925
EXTRACT: note_off channel=9 note=53 velocity=95 time=0
EXTRACT: note_on channel=9 note=0 velocity=95 time=0
EXTRACT: note_on channel=9 note=40 velocity=95 time=0
EXTRACT: note_on channel=9 note=59 velocity=95 time=0
EXTRACT: note_off channel=6 note=85 velocity=95 time=0.14150925
EXTRACT: note_off channel=6 note=81 velocity=95 time=0
EXTRACT: note_off channel=9 note=0 velocity=95 time=0
EXTRACT: note_off channel=9 note=40 velocity=95 time=0
EXTRACT: note_off channel=9 note=59 velocity=95 time=0
EXTRACT: note_on channel=9 note=0 velocity=95 time=0
EXTRACT: note_on channel=9 note=35 velocity=95 time=0
EXTRACT: note_on channel=9 note=51 velocity=95 time=0
EXTRACT: note_on channel=9 note=56 velocity=95 time=0
EXTRACT: note_on channel=4 note=69 velocity=95 time=0.14150925
EXTRACT: note_on channel=14 note=33 velocity=111 time=0
EXTRACT: note_off channel=9 note=0 velocity=95 time=0
EXTRACT: note_off channel=9 note=35 velocity=95 time=0
EXTRACT: note_off channel=9 note=51 velocity=95 time=0
EXTRACT: note_off channel=9 note=56 velocity=95 time=0
EXTRACT: note_on channel=9 note=0 velocity=95 time=0
EXTRACT: note_on channel=9 note=29 velocity=95 time=0
EXTRACT: note_on channel=0 note=64 velocity=111 time=0.14150925
EXTRACT: note_on channel=0 note=61 velocity=111 time=0
EXTRACT: note_on channel=0 note=57 velocity=111 time=0
EXTRACT: note_on channel=0 note=52 velocity=111 time=0
EXTRACT: note_on channel=0 note=45 velocity=111 time=0
EXTRACT: note_on channel=2 note=61 velocity=95 time=0
EXTRACT: note_off channel=4 note=69 velocity=95 time=0
EXTRACT: note_on channel=6 note=85 velocity=95 time=0
EXTRACT: note_on channel=6 note=81 velocity=95 time=0
EXTRACT: note_off channel=9 note=0 velocity=95 time=0
EXTRACT: note_off channel=9 note=29 velocity=95 time=0
EXTRACT: note_on channel=9 note=0 velocity=95 time=0
EXTRACT: note_on channel=9 note=30 velocity=95 time=0
EXTRACT: note_on channel=9 note=35 velocity=95 time=0
EXTRACT: note_on channel=9 note=51 velocity=95 time=0
EXTRACT: note_off channel=0 note=64 velocity=111 time=0.14150925
EXTRACT: note_off channel=0 note=61 velocity=111 time=0
EXTRACT: note_off channel=0 note=57 velocity=111 time=0
EXTRACT: note_off channel=0 note=52 velocity=111 time=0
EXTRACT: note_off channel=0 note=45 velocity=111 time=0
EXTRACT: note_off channel=2 note=61 velocity=95 time=0
EXTRACT: note_off channel=6 note=85 velocity=95 time=0
EXTRACT: note_off channel=6 note=81 velocity=95 time=0
EXTRACT: note_off channel=9 note=0 velocity=95 time=0
EXTRACT: note_off channel=9 note=30 velocity=95 time=0
EXTRACT: note_off channel=9 note=35 velocity=95 time=0
EXTRACT: note_off channel=9 note=51 velocity=95 time=0
EXTRACT: note_on channel=0 note=64 velocity=111 time=0.14150925
EXTRACT: note_on channel=0 note=59 velocity=95 time=0
EXTRACT: note_on channel=0 note=55 velocity=95 time=0
EXTRACT: note_on channel=0 note=50 velocity=95 time=0
EXTRACT: note_off channel=14 note=33 velocity=111 time=0
EXTRACT: note_on channel=9 note=39 velocity=95 time=0
EXTRACT: note_on channel=9 note=30 velocity=95 time=0
EXTRACT: note_on channel=9 note=40 velocity=95 time=0
EXTRACT: note_on channel=9 note=56 velocity=95 time=0
EXTRACT: note_on channel=9 note=59 velocity=95 time=0
EXTRACT: note_off channel=0 note=64 velocity=111 time=0.031249959375
EXTRACT: note_off channel=0 note=59 velocity=95 time=0
EXTRACT: note_off channel=0 note=55 velocity=95 time=0
EXTRACT: note_off channel=0 note=50 velocity=95 time=0
EXTRACT: note_on channel=0 note=64 velocity=111 time=0.110259290625
EXTRACT: note_on channel=0 note=61 velocity=111 time=0
EXTRACT: note_on channel=0 note=57 velocity=111 time=0
EXTRACT: note_on channel=0 note=52 velocity=111 time=0
EXTRACT: note_on channel=2 note=61 velocity=95 time=0
EXTRACT: note_on channel=4 note=69 velocity=95 time=0
EXTRACT: note_on channel=6 note=76 velocity=95 time=0
EXTRACT: note_on channel=14 note=33 velocity=111 time=0
EXTRACT: note_off channel=9 note=39 velocity=95 time=0
EXTRACT: note_off channel=9 note=30 velocity=95 time=0
EXTRACT: note_off channel=9 note=40 velocity=95 time=0
EXTRACT: note_off channel=9 note=56 velocity=95 time=0
EXTRACT: note_off channel=9 note=59 velocity=95 time=0
EXTRACT: note_off channel=0 note=64 velocity=111 time=0.14150925
EXTRACT: note_off channel=0 note=61 velocity=111 time=0
EXTRACT: note_off channel=0 note=57 velocity=111 time=0
EXTRACT: note_off channel=0 note=52 velocity=111 time=0
EXTRACT: note_off channel=2 note=61 velocity=95 time=0
EXTRACT: note_on channel=2 note=61 velocity=95 time=0
EXTRACT: note_off channel=4 note=69 velocity=95 time=0
EXTRACT: note_on channel=4 note=69 velocity=95 time=0
EXTRACT: note_off channel=6 note=76 velocity=95 time=0
EXTRACT: note_on channel=6 note=85 velocity=95 time=0
EXTRACT: note_on channel=6 note=81 velocity=95 time=0
EXTRACT: note_on channel=9 note=29 velocity=95 time=0
EXTRACT: note_on channel=9 note=35 velocity=95 time=0
EXTRACT: note_on channel=9 note=53 velocity=95 time=0
EXTRACT: note_off channel=2 note=61 velocity=95 time=0.14150925
EXTRACT: note_off channel=4 note=69 velocity=95 time=0
EXTRACT: note_off channel=6 note=85 velocity=95 time=0
EXTRACT: note_off channel=6 note=81 velocity=95 time=0
EXTRACT: note_off channel=9 note=29 velocity=95 time=0
EXTRACT: note_off channel=9 note=35 velocity=95 time=0
EXTRACT: note_off channel=9 note=53 velocity=95 time=0
EXTRACT: note_on channel=9 note=0 velocity=95 time=0
EXTRACT: note_on channel=9 note=30 velocity=95 time=0
EXTRACT: note_on channel=9 note=35 velocity=95 time=0
EXTRACT: note_on channel=9 note=59 velocity=95 time=0
EXTRACT: note_on channel=0 note=66 velocity=111 time=0.14150925
EXTRACT: note_on channel=0 note=62 velocity=111 time=0
EXTRACT: note_on channel=0 note=57 velocity=111 time=0
EXTRACT: note_on channel=0 note=50 velocity=111 time=0
EXTRACT: note_on channel=2 note=62 velocity=95 time=0
EXTRACT: note_on channel=4 note=66 velocity=95 time=0
EXTRACT: note_on channel=6 note=86 velocity=95 time=0
EXTRACT: note_on channel=6 note=81 velocity=95 time=0
EXTRACT: note_off channel=14 note=33 velocity=111 time=0
EXTRACT: note_on channel=14 note=38 velocity=111 time=0
EXTRACT: note_off channel=9 note=0 velocity=95 time=0
EXTRACT: note_off channel=9 note=30 velocity=95 time=0
EXTRACT: note_off channel=9 note=35 velocity=95 time=0
EXTRACT: note_off channel=9 note=59 velocity=95 time=0
EXTRACT: note_on channel=9 note=0 velocity=95 time=0
EXTRACT: note_on channel=9 note=35 velocity=95 time=0
EXTRACT: note_on channel=9 note=51 velocity=95 time=0
EXTRACT: note_on channel=9 note=56 velocity=95 time=0
EXTRACT: note_off channel=9 note=0 velocity=95 time=0.14150925
EXTRACT: note_off channel=9 note=35 velocity=95 time=0
EXTRACT: note_off channel=9 note=51 velocity=95 time=0
EXTRACT: note_off channel=9 note=56 velocity=95 time=0
EXTRACT: note_off channel=14 note=38 velocity=111 time=0.14150925
EXTRACT: note_on channel=14 note=38 velocity=111 time=0
EXTRACT: note_on channel=9 note=35 velocity=95 time=0
EXTRACT: note_on channel=9 note=51 velocity=95 time=0
EXTRACT: note_off channel=2 note=62 velocity=95 time=0.14150925
EXTRACT: note_off channel=4 note=66 velocity=95 time=0
EXTRACT: note_off channel=9 note=35 velocity=95 time=0
EXTRACT: note_off channel=9 note=51 velocity=95 time=0
EXTRACT: note_off channel=0 note=66 velocity=111 time=0.14150925
EXTRACT: note_off channel=0 note=62 velocity=111 time=0
EXTRACT: note_off channel=0 note=57 velocity=111 time=0
EXTRACT: note_off channel=0 note=50 velocity=111 time=0
EXTRACT: note_on channel=0 note=66 velocity=111 time=0
EXTRACT: note_on channel=0 note=62 velocity=95 time=0
EXTRACT: note_on channel=0 note=57 velocity=95 time=0
EXTRACT: note_on channel=0 note=50 velocity=111 time=0
EXTRACT: note_on channel=2 note=62 velocity=95 time=0
EXTRACT: note_on channel=4 note=66 velocity=95 time=0
EXTRACT: note_off channel=14 note=38 velocity=111 time=0
EXTRACT: note_on channel=14 note=38 velocity=111 time=0
EXTRACT: note_on channel=9 note=39 velocity=95 time=0
EXTRACT: note_on channel=9 note=40 velocity=95 time=0
EXTRACT: note_on channel=9 note=56 velocity=95 time=0
EXTRACT: note_on channel=9 note=59 velocity=95 time=0
EXTRACT: note_off channel=9 note=39 velocity=95 time=0.14150925
EXTRACT: note_off channel=9 note=40 velocity=95 time=0
EXTRACT: note_off channel=9 note=56 velocity=95 time=0
EXTRACT: note_off channel=9 note=59 velocity=95 time=0
EXTRACT: note_off channel=0 note=66 velocity=111 time=0.14150925
EXTRACT: note_off channel=0 note=62 velocity=95 time=0
EXTRACT: note_off channel=0 note=57 velocity=95 time=0
EXTRACT: note_off channel=0 note=50 velocity=111 time=0
EXTRACT: note_off channel=2 note=62 velocity=95 time=0
EXTRACT: note_off channel=4 note=66 velocity=95 time=0
EXTRACT: note_on channel=9 note=35 velocity=95 time=0
EXTRACT: note_on channel=9 note=53 velocity=95 time=0
EXTRACT: note_off channel=14 note=38 velocity=111 time=0.14150925
EXTRACT: note_on channel=14 note=38 velocity=111 time=0
EXTRACT: note_off channel=9 note=35 velocity=95 time=0
EXTRACT: note_off channel=9 note=53 velocity=95 time=0
EXTRACT: note_on channel=9 note=0 velocity=95 time=0
EXTRACT: note_on channel=9 note=29 velocity=95 time=0
EXTRACT: note_on channel=9 note=40 velocity=95 time=0
EXTRACT: note_on channel=9 note=59 velocity=95 time=0
EXTRACT: note_on channel=2 note=66 velocity=95 time=0.14150925
EXTRACT: note_on channel=4 note=74 velocity=95 time=0
EXTRACT: note_off channel=9 note=0 velocity=95 time=0
EXTRACT: note_off channel=9 note=29 velocity=95 time=0
EXTRACT: note_off channel=9 note=40 velocity=95 time=0
EXTRACT: note_off channel=9 note=59 velocity=95 time=0
EXTRACT: note_on channel=9 note=0 velocity=95 time=0
EXTRACT: note_on channel=9 note=30 velocity=95 time=0
EXTRACT: note_on channel=9 note=35 velocity=95 time=0
EXTRACT: note_on channel=9 note=51 velocity=95 time=0
EXTRACT: note_on channel=9 note=56 velocity=95 time=0
EXTRACT: note_off channel=2 note=66 velocity=95 time=0.14150925
EXTRACT: note_on channel=2 note=66 velocity=95 time=0
EXTRACT: note_off channel=4 note=74 velocity=95 time=0
EXTRACT: note_on channel=4 note=74 velocity=95 time=0
EXTRACT: note_off channel=6 note=86 velocity=95 time=0
EXTRACT: note_off channel=6 note=81 velocity=95 time=0
EXTRACT: note_on channel=6 note=78 velocity=95 time=0
EXTRACT: note_off channel=14 note=38 velocity=111 time=0
EXTRACT: note_on channel=14 note=38 velocity=111 time=0
EXTRACT: note_off channel=9 note=0 velocity=95 time=0
EXTRACT: note_off channel=9 note=30 velocity=95 time=0
EXTRACT: note_off channel=9 note=35 velocity=95 time=0
EXTRACT: note_off channel=9 note=51 velocity=95 time=0
EXTRACT: note_off channel=9 note=56 velocity=95 time=0
EXTRACT: note_on channel=9 note=0 velocity=95 time=0
EXTRACT: note_on channel=9 note=29 velocity=95 time=0
EXTRACT: note_on channel=9 note=40 velocity=95 time=0
EXTRACT: note_on channel=9 note=59 velocity=95 time=0
EXTRACT: note_on channel=0 note=66 velocity=111 time=0.14150925
EXTRACT: note_on channel=0 note=62 velocity=95 time=0
EXTRACT: note_on channel=0 note=57 velocity=95 time=0
EXTRACT: note_on channel=0 note=50 velocity=111 time=0
EXTRACT: note_off channel=2 note=66 velocity=95 time=0
EXTRACT: note_on channel=2 note=64 velocity=95 time=0
EXTRACT: note_off channel=4 note=74 velocity=95 time=0
EXTRACT: note_on channel=4 note=73 velocity=95 time=0
EXTRACT: note_off channel=6 note=78 velocity=95 time=0
EXTRACT: note_on channel=6 note=86 velocity=95 time=0
EXTRACT: note_on channel=6 note=81 velocity=95 time=0
EXTRACT: note_off channel=14 note=38 velocity=111 time=0
EXTRACT: note_on channel=14 note=38 velocity=111 time=0
EXTRACT: note_off channel=9 note=0 velocity=95 time=0
EXTRACT: note_off channel=9 note=29 velocity=95 time=0
EXTRACT: note_off channel=9 note=40 velocity=95 time=0
EXTRACT: note_off channel=9 note=59 velocity=95 time=0
EXTRACT: note_on channel=9 note=0 velocity=95 time=0
EXTRACT: note_on channel=9 note=30 velocity=95 time=0
EXTRACT: note_on channel=9 note=35 velocity=95 time=0
EXTRACT: note_on channel=9 note=51 velocity=95 time=0
EXTRACT: note_off channel=0 note=66 velocity=111 time=0.14150925
EXTRACT: note_off channel=0 note=62 velocity=95 time=0
EXTRACT: note_off channel=0 note=57 velocity=95 time=0
EXTRACT: note_off channel=0 note=50 velocity=111 time=0
EXTRACT: note_off channel=2 note=64 velocity=95 time=0
EXTRACT: note_off channel=4 note=73 velocity=95 time=0
EXTRACT: note_off channel=6 note=86 velocity=95 time=0
EXTRACT: note_off channel=6 note=81 velocity=95 time=0
EXTRACT: note_on channel=6 note=86 velocity=95 time=0
EXTRACT: note_on channel=6 note=81 velocity=95 time=0
EXTRACT: note_on channel=6 note=78 velocity=95 time=0
EXTRACT: note_off channel=9 note=0 velocity=95 time=0
EXTRACT: note_off channel=9 note=30 velocity=95 time=0
EXTRACT: note_off channel=9 note=35 velocity=95 time=0
EXTRACT: note_off channel=9 note=51 velocity=95 time=0
EXTRACT: note_on channel=9 note=0 velocity=95 time=0
EXTRACT: note_on channel=9 note=30 velocity=95 time=0
EXTRACT: note_on channel=9 note=35 velocity=95 time=0
EXTRACT: note_on channel=9 note=51 velocity=95 time=0
EXTRACT: note_on channel=0 note=64 velocity=111 time=0.14150925
EXTRACT: note_on channel=0 note=59 velocity=95 time=0
EXTRACT: note_on channel=0 note=55 velocity=95 time=0
EXTRACT: note_on channel=0 note=50 velocity=95 time=0
EXTRACT: note_off channel=6 note=86 velocity=95 time=0
EXTRACT: note_off channel=6 note=81 velocity=95 time=0
EXTRACT: note_off channel=6 note=78 velocity=95 time=0
EXTRACT: note_off channel=9 note=0 velocity=95 time=0
EXTRACT: note_off channel=9 note=30 velocity=95 time=0
EXTRACT: note_off channel=9 note=35 velocity=95 time=0
EXTRACT: note_off channel=9 note=51 velocity=95 time=0
EXTRACT: note_on channel=9 note=0 velocity=95 time=0
EXTRACT: note_on channel=9 note=39 velocity=95 time=0
EXTRACT: note_on channel=9 note=30 velocity=95 time=0
EXTRACT: note_on channel=9 note=40 velocity=95 time=0
EXTRACT: note_on channel=9 note=56 velocity=95 time=0
EXTRACT: note_on channel=9 note=59 velocity=95 time=0
EXTRACT: note_off channel=0 note=64 velocity=111 time=0.031249959375
EXTRACT: note_off channel=0 note=59 velocity=95 time=0
EXTRACT: note_off channel=0 note=55 velocity=95 time=0
EXTRACT: note_off channel=0 note=50 velocity=95 time=0
EXTRACT: note_on channel=0 note=66 velocity=111 time=0.110259290625
EXTRACT: note_on channel=0 note=62 velocity=111 time=0
EXTRACT: note_on channel=0 note=57 velocity=111 time=0
EXTRACT: note_on channel=2 note=62 velocity=95 time=0
EXTRACT: note_on channel=4 note=71 velocity=95 time=0
EXTRACT: note_on channel=6 note=78 velocity=95 time=0
EXTRACT: note_off channel=9 note=0 velocity=95 time=0
EXTRACT: note_off channel=9 note=39 velocity=95 time=0
EXTRACT: note_off channel=9 note=30 velocity=95 time=0
EXTRACT: note_off channel=9 note=40 velocity=95 time=0
EXTRACT: note_off channel=9 note=56 velocity=95 time=0
EXTRACT: note_off channel=9 note=59 velocity=95 time=0
EXTRACT: note_off channel=0 note=66 velocity=111 time=0.14150925
EXTRACT: note_off channel=0 note=62 velocity=111 time=0
EXTRACT: note_off channel=0 note=57 velocity=111 time=0
EXTRACT: note_off channel=6 note=78 velocity=95 time=0
EXTRACT: note_on channel=6 note=86 velocity=95 time=0
EXTRACT: note_on channel=6 note=81 velocity=95 time=0
EXTRACT: note_off channel=14 note=38 velocity=111 time=0
EXTRACT: note_on channel=9 note=29 velocity=95 time=0
EXTRACT: note_on channel=9 note=35 velocity=95 time=0
EXTRACT: note_on channel=9 note=53 velocity=95 time=0
EXTRACT: note_off channel=2 note=62 velocity=95 time=0.14150925
EXTRACT: note_off channel=4 note=71 velocity=95 time=0
EXTRACT: note_off channel=6 note=86 velocity=95 time=0
EXTRACT: note_off channel=6 note=81 velocity=95 time=0
EXTRACT: note_off channel=9 note=29 velocity=95 time=0
EXTRACT: note_off channel=9 note=35 velocity=95 time=0
EXTRACT: note_off channel=9 note=53 velocity=95 time=0
EXTRACT: note_on channel=9 note=0 velocity=95 time=0
EXTRACT: note_on channel=9 note=30 velocity=95 time=0
EXTRACT: note_on channel=9 note=35 velocity=95 time=0
EXTRACT: note_on channel=9 note=59 velocity=95 time=0
EXTRACT: note_on channel=0 note=64 velocity=111 time=0.14150925
EXTRACT: note_on channel=0 note=61 velocity=111 time=0
EXTRACT: note_on channel=0 note=57 velocity=111 time=0
EXTRACT: note_on channel=0 note=52 velocity=111 time=0
EXTRACT: note_on channel=0 note=45 velocity=111 time=0
EXTRACT: note_on channel=2 note=61 velocity=95 time=0
EXTRACT: note_on channel=4 note=69 velocity=95 time=0
EXTRACT: note_on channel=6 note=85 velocity=95 time=0
EXTRACT: note_on channel=6 note=81 velocity=95 time=0
EXTRACT: note_on channel=14 note=33 velocity=111 time=0
EXTRACT: note_off channel=9 note=0 velocity=95 time=0
EXTRACT: note_off channel=9 note=30 velocity=95 time=0
EXTRACT: note_off channel=9 note=35 velocity=95 time=0
EXTRACT: note_off channel=9 note=59 velocity=95 time=0
EXTRACT: note_on channel=9 note=0 velocity=95 time=0
EXTRACT: note_on channel=9 note=35 velocity=95 time=0
EXTRACT: note_on channel=9 note=51 velocity=95 time=0
EXTRACT: note_on channel=9 note=56 velocity=95 time=0
EXTRACT: note_off channel=9 note=0 velocity=95 time=0.14150925
EXTRACT: note_off channel=9 note=35 velocity=95 time=0
EXTRACT: note_off channel=9 note=51 velocity=95 time=0
EXTRACT: note_off channel=9 note=56 velocity=95 time=0
EXTRACT: note_off channel=14 note=33 velocity=111 time=0.14150925
EXTRACT: note_on channel=14 note=33 velocity=111 time=0
EXTRACT: note_on channel=9 note=35 velocity=95 time=0
EXTRACT: note_on channel=9 note=51 velocity=95 time=0
EXTRACT: note_off channel=2 note=61 velocity=95 time=0.14150925
EXTRACT: note_off channel=4 note=69 velocity=95 time=0
EXTRACT: note_off channel=14 note=33 velocity=111 time=0
EXTRACT: note_on channel=14 note=33 velocity=111 time=0
EXTRACT: note_off channel=9 note=35 velocity=95 time=0
EXTRACT: note_off channel=9 note=51 velocity=95 time=0
EXTRACT: note_off channel=0 note=64 velocity=111 time=0.14150925
EXTRACT: note_off channel=0 note=61 velocity=111 time=0
EXTRACT: note_off channel=0 note=57 velocity=111 time=0
EXTRACT: note_off channel=0 note=52 velocity=111 time=0
EXTRACT: note_off channel=0 note=45 velocity=111 time=0
EXTRACT: note_on channel=0 note=64 velocity=111 time=0
EXTRACT: note_on channel=0 note=61 velocity=95 time=0
EXTRACT: note_on channel=0 note=57 velocity=95 time=0
EXTRACT: note_on channel=0 note=52 velocity=95 time=0
EXTRACT: note_on channel=0 note=45 velocity=111 time=0
EXTRACT: note_on channel=2 note=61 velocity=95 time=0
EXTRACT: note_on channel=4 note=69 velocity=95 time=0
EXTRACT: note_off channel=14 note=33 velocity=111 time=0
EXTRACT: note_on channel=14 note=33 velocity=111 time=0
EXTRACT: note_on channel=9 note=39 velocity=95 time=0
EXTRACT: note_on channel=9 note=40 velocity=95 time=0
EXTRACT: note_on channel=9 note=56 velocity=95 time=0
EXTRACT: note_on channel=9 note=59 velocity=95 time=0
EXTRACT: note_off channel=2 note=61 velocity=95 time=0.14150925
EXTRACT: note_off channel=9 note=39 velocity=95 time=0
EXTRACT: note_off channel=9 note=40 velocity=95 time=0
EXTRACT: note_off channel=9 note=56 velocity=95 time=0
EXTRACT: note_off channel=9 note=59 velocity=95 time=0
EXTRACT: note_off channel=0 note=64 velocity=111 time=0.14150925
EXTRACT: note_off channel=0 note=61 velocity=95 time=0
EXTRACT: note_off channel=0 note=57 velocity=95 time=0
EXTRACT: note_off channel=0 note=52 velocity=95 time=0
EXTRACT: note_off channel=0 note=45 velocity=111 time=0
EXTRACT: note_off channel=4 note=69 velocity=95 time=0
EXTRACT: note_on channel=9 note=35 velocity=95 time=0
EXTRACT: note_on channel=9 note=53 velocity=95 time=0
EXTRACT: note_off channel=14 note=33 velocity=111 time=0.14150925
EXTRACT: note_on channel=14 note=33 velocity=111 time=0
EXTRACT: note_off channel=9 note=35 velocity=95 time=0
EXTRACT: note_off channel=9 note=53 velocity=95 time=0
EXTRACT: note_on channel=9 note=0 velocity=95 time=0
EXTRACT: note_on channel=9 note=40 velocity=95 time=0
EXTRACT: note_on channel=9 note=59 velocity=95 time=0
EXTRACT: note_off channel=14 note=33 velocity=111 time=0.14150925
EXTRACT: note_off channel=9 note=0 velocity=95 time=0
EXTRACT: note_off channel=9 note=40 velocity=95 time=0
EXTRACT: note_off channel=9 note=59 velocity=95 time=0
EXTRACT: note_on channel=9 note=0 velocity=95 time=0
EXTRACT: note_on channel=9 note=35 velocity=95 time=0
EXTRACT: note_on channel=9 note=51 velocity=95 time=0
EXTRACT: note_on channel=9 note=56 velocity=95 time=0
EXTRACT: note_off channel=6 note=85 velocity=95 time=0.14150925
EXTRACT: note_off channel=6 note=81 velocity=95 time=0
EXTRACT: note_on channel=14 note=33 velocity=111 time=0
EXTRACT: note_off channel=9 note=0 velocity=95 time=0
EXTRACT: note_off channel=9 note=35 velocity=95 time=0
EXTRACT: note_off channel=9 note=51 velocity=95 time=0
EXTRACT: note_off channel=9 note=56 velocity=95 time=0
EXTRACT: note_on channel=9 note=0 velocity=95 time=0
EXTRACT: note_on channel=9 note=40 velocity=95 time=0
EXTRACT: note_on channel=9 note=59 velocity=95 time=0
EXTRACT: note_on channel=0 note=64 velocity=111 time=0.14150925
EXTRACT: note_on channel=0 note=61 velocity=111 time=0
EXTRACT: note_on channel=0 note=57 velocity=111 time=0
EXTRACT: note_on channel=0 note=52 velocity=111 time=0
EXTRACT: note_on channel=0 note=45 velocity=111 time=0
EXTRACT: note_on channel=2 note=61 velocity=95 time=0
EXTRACT: note_on channel=4 note=69 velocity=95 time=0
EXTRACT: note_on channel=6 note=85 velocity=95 time=0
EXTRACT: note_on channel=6 note=81 velocity=95 time=0
EXTRACT: note_on channel=6 note=76 velocity=95 time=0
EXTRACT: note_off channel=14 note=33 velocity=111 time=0
EXTRACT: note_on channel=14 note=33 velocity=111 time=0
EXTRACT: note_off channel=9 note=0 velocity=95 time=0
EXTRACT: note_off channel=9 note=40 velocity=95 time=0
EXTRACT: note_off channel=9 note=59 velocity=95 time=0
EXTRACT: note_on channel=9 note=0 velocity=95 time=0
EXTRACT: note_on channel=9 note=35 velocity=95 time=0
EXTRACT: note_on channel=9 note=51 velocity=95 time=0
EXTRACT: note_off channel=0 note=64 velocity=111 time=0.14150925
EXTRACT: note_off channel=0 note=61 velocity=111 time=0
EXTRACT: note_off channel=0 note=57 velocity=111 time=0
EXTRACT: note_off channel=0 note=52 velocity=111 time=0
EXTRACT: note_off channel=0 note=45 velocity=111 time=0
EXTRACT: note_off channel=2 note=61 velocity=95 time=0
EXTRACT: note_off channel=4 note=69 velocity=95 time=0
EXTRACT: note_off channel=6 note=85 velocity=95 time=0
EXTRACT: note_off channel=6 note=81 velocity=95 time=0
EXTRACT: note_off channel=6 note=76 velocity=95 time=0
EXTRACT: note_off channel=9 note=0 velocity=95 time=0
EXTRACT: note_off channel=9 note=35 velocity=95 time=0
EXTRACT: note_off channel=9 note=51 velocity=95 time=0
EXTRACT: note_on channel=9 note=0 velocity=95 time=0
EXTRACT: note_on channel=9 note=51 velocity=95 time=0
EXTRACT: note_on channel=0 note=64 velocity=111 time=0.14150925
EXTRACT: note_on channel=0 note=59 velocity=95 time=0
EXTRACT: note_on channel=0 note=55 velocity=95 time=0
EXTRACT: note_on channel=0 note=50 velocity=95 time=0
EXTRACT: note_off channel=14 note=33 velocity=111 time=0
EXTRACT: note_on channel=14 note=33 velocity=111 time=0
EXTRACT: note_off channel=9 note=0 velocity=95 time=0
EXTRACT: note_off channel=9 note=51 velocity=95 time=0
EXTRACT: note_on channel=9 note=0 velocity=95 time=0
EXTRACT: note_on channel=9 note=39 velocity=95 time=0
EXTRACT: note_on channel=9 note=40 velocity=95 time=0
EXTRACT: note_on channel=9 note=56 velocity=95 time=0
EXTRACT: note_on channel=9 note=59 velocity=95 time=0
EXTRACT: note_off channel=0 note=64 velocity=111 time=0.031249959375
EXTRACT: note_off channel=0 note=59 velocity=95 time=0
EXTRACT: note_off channel=0 note=55 velocity=95 time=0
EXTRACT: note_off channel=0 note=50 velocity=95 time=0
EXTRACT: note_on channel=0 note=64 velocity=111 time=0.110259290625
EXTRACT: note_on channel=0 note=61 velocity=111 time=0
EXTRACT: note_on channel=0 note=57 velocity=111 time=0
EXTRACT: note_on channel=0 note=52 velocity=111 time=0
EXTRACT: note_on channel=2 note=61 velocity=95 time=0
EXTRACT: note_on channel=4 note=69 velocity=95 time=0
EXTRACT: note_on channel=6 note=76 velocity=95 time=0
EXTRACT: note_off channel=9 note=0 velocity=95 time=0
EXTRACT: note_off channel=9 note=39 velocity=95 time=0
EXTRACT: note_off channel=9 note=40 velocity=95 time=0
EXTRACT: note_off channel=9 note=56 velocity=95 time=0
EXTRACT: note_off channel=9 note=59 velocity=95 time=0
EXTRACT: note_off channel=0 note=64 velocity=111 time=0.14150925
EXTRACT: note_off channel=0 note=61 velocity=111 time=0
EXTRACT: note_off channel=0 note=57 velocity=111 time=0
EXTRACT: note_off channel=0 note=52 velocity=111 time=0
EXTRACT: note_off channel=2 note=61 velocity=95 time=0
EXTRACT: note_on channel=2 note=61 velocity=95 time=0
EXTRACT: note_off channel=4 note=69 velocity=95 time=0
EXTRACT: note_on channel=4 note=69 velocity=95 time=0
EXTRACT: note_off channel=6 note=76 velocity=95 time=0
EXTRACT: note_on channel=6 note=85 velocity=95 time=0
EXTRACT: note_on channel=6 note=81 velocity=95 time=0
EXTRACT: note_on channel=9 note=35 velocity=95 time=0
EXTRACT: note_on channel=9 note=51 velocity=95 time=0
EXTRACT: note_off channel=2 note=61 velocity=95 time=0.14150925
EXTRACT: note_off channel=4 note=69 velocity=95 time=0
EXTRACT: note_off channel=6 note=85 velocity=95 time=0
EXTRACT: note_off channel=6 note=81 velocity=95 time=0
EXTRACT: note_off channel=9 note=35 velocity=95 time=0
EXTRACT: note_off channel=9 note=51 velocity=95 time=0
EXTRACT: note_on channel=9 note=0 velocity=95 time=0
EXTRACT: note_on channel=9 note=35 velocity=95 time=0
EXTRACT: note_on channel=9 note=59 velocity=95 time=0
EXTRACT: note_on channel=0 note=64 velocity=111 time=0.14150925
EXTRACT: note_on channel=0 note=59 velocity=111 time=0
EXTRACT: note_on channel=0 note=56 velocity=111 time=0
EXTRACT: note_on channel=0 note=52 velocity=111 time=0
EXTRACT: note_on channel=0 note=47 velocity=111 time=0
EXTRACT: note_on channel=0 note=40 velocity=111 time=0
EXTRACT: note_on channel=2 note=59 velocity=95 time=0
EXTRACT: note_on channel=4 note=68 velocity=95 time=0
EXTRACT: note_on channel=6 note=83 velocity=95 time=0
EXTRACT: note_on channel=6 note=80 velocity=95 time=0
EXTRACT: note_off channel=14 note=33 velocity=111 time=0
EXTRACT: note_on channel=14 note=40 velocity=111 time=0
EXTRACT: note_off channel=9 note=0 velocity=95 time=0
EXTRACT: note_off channel=9 note=35 velocity=95 time=0
EXTRACT: note_off channel=9 note=59 velocity=95 time=0
EXTRACT: note_on channel=9 note=0 velocity=95 time=0
EXTRACT: note_on channel=9 note=35 velocity=95 time=0
EXTRACT: note_on channel=9 note=51 velocity=95 time=0
EXTRACT: note_on channel=9 note=56 velocity=95 time=0
EXTRACT: note_off channel=9 note=0 velocity=95 time=0.14150925
EXTRACT: note_off channel=9 note=35 velocity=95 time=0
EXTRACT: note_off channel=9 note=51 velocity=95 time=0
EXTRACT: note_off channel=9 note=56 velocity=95 time=0
EXTRACT: note_off channel=14 note=40 velocity=111 time=0.14150925
EXTRACT: note_on channel=14 note=44 velocity=111 time=0
EXTRACT: note_on channel=9 note=35 velocity=95 time=0
EXTRACT: note_on channel=9 note=51 velocity=95 time=0
EXTRACT: note_off channel=2 note=59 velocity=95 time=0.14150925
EXTRACT: note_on channel=2 note=57 velocity=95 time=0
EXTRACT: note_off channel=4 note=68 velocity=95 time=0
EXTRACT: note_on channel=4 note=66 velocity=95 time=0
EXTRACT: note_off channel=9 note=35 velocity=95 time=0
EXTRACT: note_off channel=9 note=51 velocity=95 time=0
EXTRACT: note_off channel=0 note=64 velocity=111 time=0.14150925
EXTRACT: note_off channel=0 note=59 velocity=111 time=0
EXTRACT: note_off channel=0 note=56 velocity=111 time=0
EXTRACT: note_off channel=0 note=52 velocity=111 time=0
EXTRACT: note_off channel=0 note=47 velocity=111 time=0
EXTRACT: note_off channel=0 note=40 velocity=111 time=0
EXTRACT: note_on channel=0 note=64 velocity=111 time=0
EXTRACT: note_on channel=0 note=59 velocity=95 time=0
EXTRACT: note_on channel=0 note=56 velocity=95 time=0
EXTRACT: note_on channel=0 note=52 velocity=95 time=0
EXTRACT: note_on channel=0 note=47 velocity=111 time=0
EXTRACT: note_on channel=0 note=40 velocity=111 time=0
EXTRACT: note_off channel=2 note=57 velocity=95 time=0
EXTRACT: note_on channel=2 note=56 velocity=95 time=0
EXTRACT: note_off channel=4 note=66 velocity=95 time=0
EXTRACT: note_on channel=4 note=64 velocity=95 time=0
EXTRACT: note_off channel=14 note=44 velocity=111 time=0
EXTRACT: note_on channel=14 note=45 velocity=111 time=0
EXTRACT: note_on channel=9 note=39 velocity=95 time=0
EXTRACT: note_on channel=9 note=40 velocity=95 time=0
EXTRACT: note_on channel=9 note=56 velocity=95 time=0
EXTRACT: note_on channel=9 note=59 velocity=95 time=0
EXTRACT: note_off channel=9 note=39 velocity=95 time=0.14150925
EXTRACT: note_off channel=9 note=40 velocity=95 time=0
EXTRACT: note_off channel=9 note=56 velocity=95 time=0
EXTRACT: note_off channel=9 note=59 velocity=95 time=0
EXTRACT: note_off channel=0 note=64 velocity=111 time=0.14150925
EXTRACT: note_off channel=0 note=59 velocity=95 time=0
EXTRACT: note_off channel=0 note=56 velocity=95 time=0
EXTRACT: note_off channel=0 note=52 velocity=95 time=0
EXTRACT: note_off channel=0 note=47 velocity=111 time=0
EXTRACT: note_off channel=0 note=40 velocity=111 time=0
EXTRACT: note_off channel=2 note=56 velocity=95 time=0
EXTRACT: note_off channel=4 note=64 velocity=95 time=0
EXTRACT: note_off channel=14 note=45 velocity=111 time=0
EXTRACT: note_on channel=14 note=45 velocity=111 time=0
EXTRACT: note_on channel=9 note=35 velocity=95 time=0
EXTRACT: note_on channel=9 note=53 velocity=95 time=0
EXTRACT: note_off channel=14 note=45 velocity=111 time=0.14150925
EXTRACT: note_on channel=14 note=52 velocity=111 time=0
EXTRACT: note_off channel=9 note=35 velocity=95 time=0
EXTRACT: note_off channel=9 note=53 velocity=95 time=0
EXTRACT: note_on channel=9 note=0 velocity=95 time=0
EXTRACT: note_on channel=9 note=29 velocity=95 time=0
EXTRACT: note_on channel=9 note=40 velocity=95 time=0
EXTRACT: note_on channel=9 note=59 velocity=95 time=0
EXTRACT: note_on channel=4 note=64 velocity=95 time=0.14150925
EXTRACT: note_off channel=9 note=0 velocity=95 time=0
EXTRACT: note_off channel=9 note=29 velocity=95 time=0
EXTRACT: note_off channel=9 note=40 velocity=95 time=0
EXTRACT: note_off channel=9 note=59 velocity=95 time=0
EXTRACT: note_on channel=9 note=0 velocity=95 time=0
EXTRACT: note_on channel=9 note=30 velocity=95 time=0
EXTRACT: note_on channel=9 note=40 velocity=95 time=0
EXTRACT: note_on channel=9 note=56 velocity=95 time=0
EXTRACT: note_off channel=14 note=52 velocity=111 time=0.14150925
EXTRACT: note_on channel=14 note=52 velocity=111 time=0
EXTRACT: note_off channel=9 note=0 velocity=95 time=0
EXTRACT: note_off channel=9 note=30 velocity=95 time=0
EXTRACT: note_off channel=9 note=40 velocity=95 time=0
EXTRACT: note_off channel=9 note=56 velocity=95 time=0
EXTRACT: note_on channel=9 note=0 velocity=95 time=0
EXTRACT: note_on channel=9 note=29 velocity=95 time=0
EXTRACT: note_on channel=9 note=40 velocity=95 time=0
EXTRACT: note_on channel=0 note=64 velocity=111 time=0.14150925
EXTRACT: note_on channel=0 note=59 velocity=111 time=0
EXTRACT: note_on channel=0 note=56 velocity=111 time=0
EXTRACT: note_on channel=0 note=52 velocity=111 time=0
EXTRACT: note_on channel=0 note=47 velocity=111 time=0
EXTRACT: note_on channel=0 note=40 velocity=111 time=0
EXTRACT: note_off channel=4 note=64 velocity=95 time=0
EXTRACT: note_on channel=4 note=66 velocity=95 time=0
EXTRACT: note_off channel=14 note=52 velocity=111 time=0
EXTRACT: note_on channel=14 note=50 velocity=111 time=0
EXTRACT: note_off channel=9 note=0 velocity=95 time=0
EXTRACT: note_off channel=9 note=29 velocity=95 time=0
EXTRACT: note_off channel=9 note=40 velocity=95 time=0
EXTRACT: note_on channel=9 note=0 velocity=95 time=0
EXTRACT: note_on channel=9 note=30 velocity=95 time=0
EXTRACT: note_on channel=9 note=40 velocity=95 time=0
EXTRACT: note_off channel=0 note=64 velocity=111 time=0.14150925
EXTRACT: note_off channel=0 note=59 velocity=111 time=0
EXTRACT: note_off channel=0 note=56 velocity=111 time=0
EXTRACT: note_off channel=0 note=52 velocity=111 time=0
EXTRACT: note_off channel=0 note=47 velocity=111 time=0
EXTRACT: note_off channel=0 note=40 velocity=111 time=0
EXTRACT: note_off channel=4 note=66 velocity=95 time=0
EXTRACT: note_off channel=9 note=0 velocity=95 time=0
EXTRACT: note_off channel=9 note=30 velocity=95 time=0
EXTRACT: note_off channel=9 note=40 velocity=95 time=0
EXTRACT: note_on channel=9 note=0 velocity=95 time=0
EXTRACT: note_on channel=9 note=30 velocity=95 time=0
EXTRACT: note_on channel=9 note=40 velocity=95 time=0
EXTRACT: note_on channel=0 note=64 velocity=111 time=0.14150925
EXTRACT: note_on channel=0 note=59 velocity=95 time=0
EXTRACT: note_on channel=0 note=55 velocity=95 time=0
EXTRACT: note_on channel=0 note=50 velocity=95 time=0
EXTRACT: note_on channel=4 note=71 velocity=95 time=0
EXTRACT: note_off channel=14 note=50 velocity=111 time=0
EXTRACT: note_on channel=14 note=52 velocity=111 time=0
EXTRACT: note_off channel=9 note=0 velocity=95 time=0
EXTRACT: note_off channel=9 note=30 velocity=95 time=0
EXTRACT: note_off channel=9 note=40 velocity=95 time=0
EXTRACT: note_on channel=9 note=0 velocity=95 time=0
EXTRACT: note_on channel=9 note=39 velocity=95 time=0
EXTRACT: note_on channel=9 note=30 velocity=95 time=0
EXTRACT: note_on channel=9 note=40 velocity=95 time=0
EXTRACT: note_on channel=9 note=56 velocity=95 time=0
EXTRACT: note_on channel=9 note=57 velocity=95 time=0
EXTRACT: note_off channel=0 note=64 velocity=111 time=0.031249959375
EXTRACT: note_off channel=0 note=59 velocity=95 time=0
EXTRACT: note_off channel=0 note=55 velocity=95 time=0
EXTRACT: note_off channel=0 note=50 velocity=95 time=0
EXTRACT: note_on channel=0 note=64 velocity=111 time=0.110259290625
EXTRACT: note_on channel=0 note=59 velocity=111 time=0
EXTRACT: note_on channel=0 note=56 velocity=111 time=0
EXTRACT: note_on channel=0 note=52 velocity=111 time=0
EXTRACT: note_off channel=4 note=71 velocity=95 time=0
EXTRACT: note_off channel=9 note=0 velocity=95 time=0
EXTRACT: note_off channel=9 note=39 velocity=95 time=0
EXTRACT: note_off channel=9 note=30 velocity=95 time=0
EXTRACT: note_off channel=9 note=40 velocity=95 time=0
EXTRACT: note_off channel=9 note=56 velocity=95 time=0
EXTRACT: note_off channel=9 note=57 velocity=95 time=0
EXTRACT: note_on channel=9 note=0 velocity=95 time=0
EXTRACT: note_on channel=9 note=40 velocity=95 time=0
EXTRACT: note_off channel=0 note=64 velocity=111 time=0.14150925
EXTRACT: note_off channel=0 note=59 velocity=111 time=0
EXTRACT: note_off channel=0 note=56 velocity=111 time=0
EXTRACT: note_off channel=0 note=52 velocity=111 time=0
EXTRACT: note_on channel=4 note=69 velocity=95 time=0
EXTRACT: note_off channel=6 note=83 velocity=95 time=0
EXTRACT: note_off channel=6 note=80 velocity=95 time=0
EXTRACT: note_off channel=9 note=0 velocity=95 time=0
EXTRACT: note_off channel=9 note=40 velocity=95 time=0
EXTRACT: note_on channel=9 note=0 velocity=95 time=0
EXTRACT: note_on channel=9 note=29 velocity=95 time=0
EXTRACT: note_on channel=9 note=40 velocity=95 time=0
EXTRACT: note_off channel=9 note=0 velocity=95 time=0.14150925
EXTRACT: note_off channel=9 note=29 velocity=95 time=0
EXTRACT: note_off channel=9 note=40 velocity=95 time=0
EXTRACT: note_on channel=9 note=0 velocity=95 time=0
EXTRACT: note_on channel=9 note=30 velocity=95 time=0
EXTRACT: note_on channel=9 note=40 velocity=95 time=0
EXTRACT: note_on channel=0 note=64 velocity=111 time=0.14150925
EXTRACT: note_on channel=0 note=61 velocity=111 time=0
EXTRACT: note_on channel=0 note=57 velocity=111 time=0
EXTRACT: note_on channel=0 note=52 velocity=111 time=0
EXTRACT: note_on channel=0 note=45 velocity=111 time=0
EXTRACT: note_on channel=2 note=61 velocity=95 time=0
EXTRACT: note_on channel=6 note=85 velocity=95 time=0
EXTRACT: note_on channel=6 note=81 velocity=95 time=0
EXTRACT: note_on channel=6 note=76 velocity=95 time=0
EXTRACT: note_off channel=14 note=52 velocity=111 time=0
EXTRACT: note_on channel=14 note=33 velocity=111 time=0
EXTRACT: note_off channel=9 note=0 velocity=95 time=0
EXTRACT: note_off channel=9 note=30 velocity=95 time=0
EXTRACT: note_off channel=9 note=40 velocity=95 time=0
EXTRACT: note_on channel=9 note=0 velocity=95 time=0
EXTRACT: note_on channel=9 note=35 velocity=95 time=0
EXTRACT: note_on channel=9 note=49 velocity=95 time=0
EXTRACT: note_on channel=9 note=51 velocity=95 time=0
EXTRACT: note_on channel=9 note=56 velocity=95 time=0
EXTRACT: note_on channel=9 note=57 velocity=95 time=0
EXTRACT: note_off channel=9 note=0 velocity=95 time=0.14150925
EXTRACT: note_off channel=9 note=35 velocity=95 time=0
EXTRACT: note_off channel=9 note=49 velocity=95 time=0
EXTRACT: note_off channel=9 note=51 velocity=95 time=0
EXTRACT: note_off channel=9 note=56 velocity=95 time=0
EXTRACT: note_off channel=9 note=57 velocity=95 time=0
EXTRACT: note_off channel=4 note=69 velocity=95 time=0.14150925
EXTRACT: note_on channel=9 note=51 velocity=95 time=0
EXTRACT: note_off channel=2 note=61 velocity=95 time=0.14150925
EXTRACT: note_off channel=9 note=51 velocity=95 time=0
EXTRACT: note_off channel=0 note=64 velocity=111 time=0.14150925
EXTRACT: note_off channel=0 note=61 velocity=111 time=0
EXTRACT: note_off channel=0 note=57 velocity=111 time=0
EXTRACT: note_off channel=0 note=52 velocity=111 time=0
EXTRACT: note_off channel=0 note=45 velocity=111 time=0
EXTRACT: note_on channel=0 note=64 velocity=111 time=0
EXTRACT: note_on channel=0 note=61 velocity=95 time=0
EXTRACT: note_on channel=0 note=57 velocity=95 time=0
EXTRACT: note_on channel=0 note=52 velocity=95 time=0
EXTRACT: note_on channel=0 note=45 velocity=111 time=0
EXTRACT: note_on channel=2 note=61 velocity=95 time=0
EXTRACT: note_on channel=4 note=69 velocity=95 time=0
EXTRACT: note_off channel=14 note=33 velocity=111 time=0
EXTRACT: note_on channel=14 note=33 velocity=111 time=0
EXTRACT: note_on channel=9 note=39 velocity=95 time=0
EXTRACT: note_on channel=9 note=40 velocity=95 time=0
EXTRACT: note_on channel=9 note=56 velocity=95 time=0
EXTRACT: note_on channel=9 note=59 velocity=95 time=0
EXTRACT: note_off channel=2 note=61 velocity=95 time=0.14150925
EXTRACT: note_off channel=9 note=39 velocity=95 time=0
EXTRACT: note_off channel=9 note=40 velocity=95 time=0
EXTRACT: note_off channel=9 note=56 velocity=95 time=0
EXTRACT: note_off channel=9 note=59 velocity=95 time=0
EXTRACT: note_off channel=0 note=64 velocity=111 time=0.14150925
EXTRACT: note_off channel=0 note=61 velocity=95 time=0
EXTRACT: note_off channel=0 note=57 velocity=95 time=0
EXTRACT: note_off channel=0 note=52 velocity=95 time=0
EXTRACT: note_off channel=0 note=45 velocity=111 time=0
EXTRACT: note_off channel=4 note=69 velocity=95 time=0
EXTRACT: note_off channel=14 note=33 velocity=111 time=0
EXTRACT: note_on channel=9 note=35 velocity=95 time=0
EXTRACT: note_on channel=9 note=53 velocity=95 time=0
EXTRACT: note_off channel=9 note=35 velocity=95 time=0.14150925
EXTRACT: note_off channel=9 note=53 velocity=95 time=0
EXTRACT: note_on channel=9 note=0 velocity=95 time=0
EXTRACT: note_on channel=9 note=40 velocity=95 time=0
EXTRACT: note_on channel=9 note=59 velocity=95 time=0
EXTRACT: note_off channel=9 note=0 velocity=95 time=0.14150925
EXTRACT: note_off channel=9 note=40 velocity=95 time=0
EXTRACT: note_off channel=9 note=59 velocity=95 time=0
EXTRACT: note_on channel=9 note=0 velocity=95 time=0
EXTRACT: note_on channel=9 note=35 velocity=95 time=0
EXTRACT: note_on channel=9 note=51 velocity=95 time=0
EXTRACT: note_on channel=9 note=56 velocity=95 time=0
EXTRACT: note_off channel=6 note=85 velocity=95 time=0.14150925
EXTRACT: note_off channel=6 note=81 velocity=95 time=0
EXTRACT: note_off channel=6 note=76 velocity=95 time=0
EXTRACT: note_on channel=6 note=76 velocity=95 time=0
EXTRACT: note_on channel=14 note=33 velocity=111 time=0
EXTRACT: note_off channel=9 note=0 velocity=95 time=0
EXTRACT: note_off channel=9 note=35 velocity=95 time=0
EXTRACT: note_off channel=9 note=51 velocity=95 time=0
EXTRACT: note_off channel=9 note=56 velocity=95 time=0
EXTRACT: note_on channel=9 note=0 velocity=95 time=0
EXTRACT: note_on channel=9 note=59 velocity=95 time=0
EXTRACT: note_on channel=0 note=64 velocity=111 time=0.14150925
EXTRACT: note_on channel=0 note=61 velocity=111 time=0
EXTRACT: note_on channel=0 note=57 velocity=111 time=0
EXTRACT: note_on channel=0 note=52 velocity=111 time=0
EXTRACT: note_on channel=0 note=45 velocity=111 time=0
EXTRACT: note_on channel=2 note=61 velocity=95 time=0
EXTRACT: note_on channel=4 note=69 velocity=95 time=0
EXTRACT: note_off channel=6 note=76 velocity=95 time=0
EXTRACT: note_on channel=6 note=85 velocity=95 time=0
EXTRACT: note_on channel=6 note=81 velocity=95 time=0
EXTRACT: note_on channel=6 note=76 velocity=95 time=0
EXTRACT: note_off channel=9 note=0 velocity=95 time=0
EXTRACT: note_off channel=9 note=59 velocity=95 time=0
EXTRACT: note_on channel=9 note=0 velocity=95 time=0
EXTRACT: note_on channel=9 note=35 velocity=95 time=0
EXTRACT: note_on channel=9 note=51 velocity=95 time=0
EXTRACT: note_off channel=0 note=64 velocity=111 time=0.14150925
EXTRACT: note_off channel=0 note=61 velocity=111 time=0
EXTRACT: note_off channel=0 note=57 velocity=111 time=0
EXTRACT: note_off channel=0 note=52 velocity=111 time=0
EXTRACT: note_off channel=0 note=45 velocity=111 time=0
EXTRACT: note_off channel=2 note=61 velocity=95 time=0
EXTRACT: note_off channel=4 note=69 velocity=95 time=0
EXTRACT: note_off channel=6 note=85 velocity=95 time=0
EXTRACT: note_off channel=6 note=81 velocity=95 time=0
EXTRACT: note_off channel=6 note=76 velocity=95 time=0
EXTRACT: note_off channel=9 note=0 velocity=95 time=0
EXTRACT: note_off channel=9 note=35 velocity=95 time=0
EXTRACT: note_off channel=9 note=51 velocity=95 time=0
EXTRACT: note_on channel=9 note=0 velocity=95 time=0
EXTRACT: note_on channel=9 note=51 velocity=95 time=0
EXTRACT: note_on channel=0 note=64 velocity=111 time=0.14150925
EXTRACT: note_on channel=0 note=59 velocity=95 time=0
EXTRACT: note_on channel=0 note=55 velocity=95 time=0
EXTRACT: note_on channel=0 note=50 velocity=95 time=0
EXTRACT: note_off channel=14 note=33 velocity=111 time=0
EXTRACT: note_off channel=9 note=0 velocity=95 time=0
EXTRACT: note_off channel=9 note=51 velocity=95 time=0
EXTRACT: note_on channel=9 note=0 velocity=95 time=0
EXTRACT: note_on channel=9 note=39 velocity=95 time=0
EXTRACT: note_on channel=9 note=40 velocity=95 time=0
EXTRACT: note_on channel=9 note=56 velocity=95 time=0
EXTRACT: note_on channel=9 note=59 velocity=95 time=0
EXTRACT: note_off channel=0 note=64 velocity=111 time=0.031249959375
EXTRACT: note_off channel=0 note=59 velocity=95 time=0
EXTRACT: note_off channel=0 note=55 velocity=95 time=0
EXTRACT: note_off channel=0 note=50 velocity=95 time=0
EXTRACT: note_on channel=0 note=64 velocity=111 time=0.110259290625
EXTRACT: note_on channel=0 note=61 velocity=111 time=0
EXTRACT: note_on channel=0 note=57 velocity=111 time=0
EXTRACT: note_on channel=0 note=52 velocity=111 time=0
EXTRACT: note_on channel=2 note=61 velocity=95 time=0
EXTRACT: note_on channel=4 note=69 velocity=95 time=0
EXTRACT: note_on channel=6 note=76 velocity=95 time=0
EXTRACT: note_on channel=14 note=33 velocity=111 time=0
EXTRACT: note_off channel=9 note=0 velocity=95 time=0
EXTRACT: note_off channel=9 note=39 velocity=95 time=0
EXTRACT: note_off channel=9 note=40 velocity=95 time=0
EXTRACT: note_off channel=9 note=56 velocity=95 time=0
EXTRACT: note_off channel=9 note=59 velocity=95 time=0
EXTRACT: note_off channel=0 note=64 velocity=111 time=0.14150925
EXTRACT: note_off channel=0 note=61 velocity=111 time=0
EXTRACT: note_off channel=0 note=57 velocity=111 time=0
EXTRACT: note_off channel=0 note=52 velocity=111 time=0
EXTRACT: note_off channel=2 note=61 velocity=95 time=0
EXTRACT: note_on channel=2 note=61 velocity=95 time=0
EXTRACT: note_off channel=4 note=69 velocity=95 time=0
EXTRACT: note_on channel=4 note=69 velocity=95 time=0
EXTRACT: note_off channel=6 note=76 velocity=95 time=0
EXTRACT: note_on channel=6 note=85 velocity=95 time=0
EXTRACT: note_on channel=6 note=81 velocity=95 time=0
EXTRACT: note_on channel=9 note=35 velocity=95 time=0
EXTRACT: note_on channel=9 note=51 velocity=95 time=0
EXTRACT: note_off channel=2 note=61 velocity=95 time=0.14150925
EXTRACT: note_off channel=4 note=69 velocity=95 time=0
EXTRACT: note_off channel=6 note=85 velocity=95 time=0
EXTRACT: note_off channel=6 note=81 velocity=95 time=0
EXTRACT: note_off channel=9 note=35 velocity=95 time=0
EXTRACT: note_off channel=9 note=51 velocity=95 time=0
EXTRACT: note_on channel=9 note=0 velocity=95 time=0
EXTRACT: note_on channel=9 note=51 velocity=95 time=0
EXTRACT: note_on channel=0 note=66 velocity=111 time=0.14150925
EXTRACT: note_on channel=0 note=62 velocity=111 time=0
EXTRACT: note_on channel=0 note=57 velocity=111 time=0
EXTRACT: note_on channel=0 note=50 velocity=111 time=0
EXTRACT: note_on channel=2 note=62 velocity=95 time=0
EXTRACT: note_on channel=4 note=66 velocity=95 time=0
EXTRACT: note_on channel=6 note=86 velocity=95 time=0
EXTRACT: note_on channel=6 note=81 velocity=95 time=0
EXTRACT: note_on channel=6 note=78 velocity=95 time=0
EXTRACT: note_off channel=14 note=33 velocity=111 time=0
EXTRACT: note_on channel=14 note=38 velocity=111 time=0
EXTRACT: note_off channel=9 note=0 velocity=95 time=0
EXTRACT: note_off channel=9 note=51 velocity=95 time=0
EXTRACT: note_on channel=9 note=0 velocity=95 time=0
EXTRACT: note_on channel=9 note=35 velocity=95 time=0
EXTRACT: note_on channel=9 note=51 velocity=95 time=0
EXTRACT: note_on channel=9 note=56 velocity=95 time=0
EXTRACT: note_off channel=9 note=0 velocity=95 time=0.14150925
EXTRACT: note_off channel=9 note=35 velocity=95 time=0
EXTRACT: note_off channel=9 note=51 velocity=95 time=0
EXTRACT: note_off channel=9 note=56 velocity=95 time=0
EXTRACT: note_off channel=14 note=38 velocity=111 time=0.14150925
EXTRACT: note_on channel=14 note=38 velocity=111 time=0
EXTRACT: note_on channel=9 note=51 velocity=95 time=0
EXTRACT: note_off channel=2 note=62 velocity=95 time=0.14150925
EXTRACT: note_off channel=4 note=66 velocity=95 time=0
EXTRACT: note_off channel=14 note=38 velocity=111 time=0
EXTRACT: note_on channel=14 note=38 velocity=111 time=0
EXTRACT: note_off channel=9 note=51 velocity=95 time=0
EXTRACT: note_off channel=0 note=66 velocity=111 time=0.14150925
EXTRACT: note_off channel=0 note=62 velocity=111 time=0
EXTRACT: note_off channel=0 note=57 velocity=111 time=0
EXTRACT: note_off channel=0 note=50 velocity=111 time=0
EXTRACT: note_on channel=0 note=66 velocity=111 time=0
EXTRACT: note_on channel=0 note=62 velocity=95 time=0
EXTRACT: note_on channel=0 note=57 velocity=95 time=0
EXTRACT: note_on channel=0 note=50 velocity=111 time=0
EXTRACT: note_on channel=2 note=62 velocity=95 time=0
EXTRACT: note_on channel=4 note=66 velocity=95 time=0
EXTRACT: note_off channel=14 note=38 velocity=111 time=0
EXTRACT: note_on channel=14 note=38 velocity=111 time=0
EXTRACT: note_on channel=9 note=39 velocity=95 time=0
EXTRACT: note_on channel=9 note=40 velocity=95 time=0
EXTRACT: note_on channel=9 note=56 velocity=95 time=0
EXTRACT: note_on channel=9 note=59 velocity=95 time=0
EXTRACT: note_off channel=2 note=62 velocity=95 time=0.14150925
EXTRACT: note_off channel=9 note=39 velocity=95 time=0
EXTRACT: note_off channel=9 note=40 velocity=95 time=0
EXTRACT: note_off channel=9 note=56 velocity=95 time=0
EXTRACT: note_off channel=9 note=59 velocity=95 time=0
EXTRACT: note_off channel=0 note=66 velocity=111 time=0.14150925
EXTRACT: note_off channel=0 note=62 velocity=95 time=0
EXTRACT: note_off channel=0 note=57 velocity=95 time=0
EXTRACT: note_off channel=0 note=50 velocity=111 time=0
EXTRACT: note_off channel=4 note=66 velocity=95 time=0
EXTRACT: note_on channel=9 note=53 velocity=95 time=0
EXTRACT: note_off channel=14 note=38 velocity=111 time=0.14150925
EXTRACT: note_on channel=14 note=38 velocity=111 time=0
EXTRACT: note_off channel=9 note=53 velocity=95 time=0
EXTRACT: note_on channel=9 note=0 velocity=95 time=0
EXTRACT: note_on channel=9 note=30 velocity=95 time=0
EXTRACT: note_on channel=9 note=35 velocity=95 time=0
EXTRACT: note_on channel=9 note=59 velocity=95 time=0
EXTRACT: note_on channel=2 note=66 velocity=95 time=0.14150925
EXTRACT: note_on channel=4 note=74 velocity=95 time=0
EXTRACT: note_off channel=6 note=86 velocity=95 time=0
EXTRACT: note_off channel=6 note=81 velocity=95 time=0
EXTRACT: note_off channel=6 note=78 velocity=95 time=0
EXTRACT: note_off channel=14 note=38 velocity=111 time=0
EXTRACT: note_off channel=9 note=0 velocity=95 time=0
EXTRACT: note_off channel=9 note=30 velocity=95 time=0
EXTRACT: note_off channel=9 note=35 velocity=95 time=0
EXTRACT: note_off channel=9 note=59 velocity=95 time=0
EXTRACT: note_on channel=9 note=0 velocity=95 time=0
EXTRACT: note_on channel=9 note=29 velocity=95 time=0
EXTRACT: note_on channel=9 note=35 velocity=95 time=0
EXTRACT: note_on channel=9 note=51 velocity=95 time=0
EXTRACT: note_on channel=9 note=56 velocity=95 time=0
EXTRACT: note_off channel=2 note=66 velocity=95 time=0.14150925
EXTRACT: note_on channel=2 note=66 velocity=95 time=0
EXTRACT: note_off channel=4 note=74 velocity=95 time=0
EXTRACT: note_on channel=4 note=74 velocity=95 time=0
EXTRACT: note_off channel=9 note=0 velocity=95 time=0
EXTRACT: note_off channel=9 note=29 velocity=95 time=0
EXTRACT: note_off channel=9 note=35 velocity=95 time=0
EXTRACT: note_off channel=9 note=51 velocity=95 time=0
EXTRACT: note_off channel=9 note=56 velocity=95 time=0
EXTRACT: note_on channel=9 note=0 velocity=95 time=0
EXTRACT: note_on channel=9 note=30 velocity=95 time=0
EXTRACT: note_on channel=9 note=35 velocity=95 time=0
EXTRACT: note_on channel=9 note=59 velocity=95 time=0
EXTRACT: note_on channel=0 note=66 velocity=111 time=0.14150925
EXTRACT: note_on channel=0 note=62 velocity=95 time=0
EXTRACT: note_on channel=0 note=57 velocity=95 time=0
EXTRACT: note_on channel=0 note=50 velocity=111 time=0
EXTRACT: note_off channel=2 note=66 velocity=95 time=0
EXTRACT: note_on channel=2 note=64 velocity=95 time=0
EXTRACT: note_off channel=4 note=74 velocity=95 time=0
EXTRACT: note_on channel=4 note=73 velocity=95 time=0
EXTRACT: note_on channel=6 note=86 velocity=95 time=0
EXTRACT: note_on channel=6 note=81 velocity=95 time=0
EXTRACT: note_on channel=14 note=45 velocity=111 time=0
EXTRACT: note_off channel=9 note=0 velocity=95 time=0
EXTRACT: note_off channel=9 note=30 velocity=95 time=0
EXTRACT: note_off channel=9 note=35 velocity=95 time=0
EXTRACT: note_off channel=9 note=59 velocity=95 time=0
EXTRACT: note_on channel=9 note=0 velocity=95 time=0
EXTRACT: note_on channel=9 note=30 velocity=95 time=0
EXTRACT: note_on channel=9 note=35 velocity=95 time=0
EXTRACT: note_on channel=9 note=51 velocity=95 time=0
EXTRACT: note_off channel=0 note=66 velocity=111 time=0.14150925
EXTRACT: note_off channel=0 note=62 velocity=95 time=0
EXTRACT: note_off channel=0 note=57 velocity=95 time=0
EXTRACT: note_off channel=0 note=50 velocity=111 time=0
EXTRACT: note_off channel=2 note=64 velocity=95 time=0
EXTRACT: note_off channel=4 note=73 velocity=95 time=0
EXTRACT: note_off channel=6 note=86 velocity=95 time=0
EXTRACT: note_off channel=6 note=81 velocity=95 time=0
EXTRACT: note_off channel=9 note=0 velocity=95 time=0
EXTRACT: note_off channel=9 note=30 velocity=95 time=0
EXTRACT: note_off channel=9 note=35 velocity=95 time=0
EXTRACT: note_off channel=9 note=51 velocity=95 time=0
EXTRACT: note_on channel=9 note=0 velocity=95 time=0
EXTRACT: note_on channel=9 note=51 velocity=95 time=0
EXTRACT: note_on channel=0 note=64 velocity=111 time=0.14150925
EXTRACT: note_on channel=0 note=59 velocity=95 time=0
EXTRACT: note_on channel=0 note=55 velocity=95 time=0
EXTRACT: note_on channel=0 note=50 velocity=95 time=0
EXTRACT: note_off channel=14 note=45 velocity=111 time=0
EXTRACT: note_on channel=14 note=49 velocity=111 time=0
EXTRACT: note_off channel=9 note=0 velocity=95 time=0
EXTRACT: note_off channel=9 note=51 velocity=95 time=0
EXTRACT: note_on channel=9 note=0 velocity=95 time=0
EXTRACT: note_on channel=9 note=39 velocity=95 time=0
EXTRACT: note_on channel=9 note=30 velocity=95 time=0
EXTRACT: note_on channel=9 note=40 velocity=95 time=0
EXTRACT: note_on channel=9 note=56 velocity=95 time=0
EXTRACT: note_on channel=9 note=59 velocity=95 time=0
EXTRACT: note_off channel=0 note=64 velocity=111 time=0.031249959375
EXTRACT: note_off channel=0 note=59 velocity=95 time=0
EXTRACT: note_off channel=0 note=55 velocity=95 time=0
EXTRACT: note_off channel=0 note=50 velocity=95 time=0
EXTRACT: note_on channel=0 note=66 velocity=111 time=0.110259290625
EXTRACT: note_on channel=0 note=62 velocity=111 time=0
EXTRACT: note_on channel=0 note=57 velocity=111 time=0
EXTRACT: note_on channel=2 note=62 velocity=95 time=0
EXTRACT: note_on channel=4 note=71 velocity=95 time=0
EXTRACT: note_on channel=6 note=78 velocity=95 time=0
EXTRACT: note_off channel=9 note=0 velocity=95 time=0
EXTRACT: note_off channel=9 note=39 velocity=95 time=0
EXTRACT: note_off channel=9 note=30 velocity=95 time=0
EXTRACT: note_off channel=9 note=40 velocity=95 time=0
EXTRACT: note_off channel=9 note=56 velocity=95 time=0
EXTRACT: note_off channel=9 note=59 velocity=95 time=0
EXTRACT: note_off channel=0 note=66 velocity=111 time=0.14150925
EXTRACT: note_off channel=0 note=62 velocity=111 time=0
EXTRACT: note_off channel=0 note=57 velocity=111 time=0
EXTRACT: note_off channel=6 note=78 velocity=95 time=0
EXTRACT: note_on channel=6 note=86 velocity=95 time=0
EXTRACT: note_on channel=6 note=81 velocity=95 time=0
EXTRACT: note_off channel=14 note=49 velocity=111 time=0
EXTRACT: note_on channel=14 note=50 velocity=111 time=0
EXTRACT: note_on channel=9 note=29 velocity=95 time=0
EXTRACT: note_on channel=9 note=35 velocity=95 time=0
EXTRACT: note_on channel=9 note=53 velocity=95 time=0
EXTRACT: note_off channel=2 note=62 velocity=95 time=0.14150925
EXTRACT: note_off channel=4 note=71 velocity=95 time=0
EXTRACT: note_off channel=6 note=86 velocity=95 time=0
EXTRACT: note_off channel=6 note=81 velocity=95 time=0
EXTRACT: note_off channel=9 note=29 velocity=95 time=0
EXTRACT: note_off channel=9 note=35 velocity=95 time=0
EXTRACT: note_off channel=9 note=53 velocity=95 time=0
EXTRACT: note_on channel=9 note=0 velocity=95 time=0
EXTRACT: note_on channel=9 note=30 velocity=95 time=0
EXTRACT: note_on channel=9 note=59 velocity=95 time=0
EXTRACT: note_on channel=0 note=64 velocity=111 time=0.14150925
EXTRACT: note_on channel=0 note=61 velocity=111 time=0
EXTRACT: note_on channel=0 note=57 velocity=111 time=0
EXTRACT: note_on channel=0 note=52 velocity=111 time=0
EXTRACT: note_on channel=0 note=45 velocity=111 time=0
EXTRACT: note_on channel=2 note=61 velocity=95 time=0
EXTRACT: note_on channel=4 note=69 velocity=95 time=0
EXTRACT: note_on channel=6 note=85 velocity=95 time=0
EXTRACT: note_on channel=6 note=81 velocity=95 time=0
EXTRACT: note_on channel=6 note=76 velocity=95 time=0
EXTRACT: note_off channel=14 note=50 velocity=111 time=0
EXTRACT: note_on channel=14 note=33 velocity=111 time=0
EXTRACT: note_off channel=9 note=0 velocity=95 time=0
EXTRACT: note_off channel=9 note=30 velocity=95 time=0
EXTRACT: note_off channel=9 note=59 velocity=95 time=0
EXTRACT: note_on channel=9 note=0 velocity=95 time=0
EXTRACT: note_on channel=9 note=35 velocity=95 time=0
EXTRACT: note_on channel=9 note=51 velocity=95 time=0
EXTRACT: note_on channel=9 note=56 velocity=95 time=0
EXTRACT: note_off channel=9 note=0 velocity=95 time=0.14150925
EXTRACT: note_off channel=9 note=35 velocity=95 time=0
EXTRACT: note_off channel=9 note=51 velocity=95 time=0
EXTRACT: note_off channel=9 note=56 velocity=95 time=0
EXTRACT: note_off channel=14 note=33 velocity=111 time=0.14150925
EXTRACT: note_on channel=14 note=33 velocity=111 time=0
EXTRACT: note_on channel=9 note=35 velocity=95 time=0
EXTRACT: note_on channel=9 note=51 velocity=95 time=0
EXTRACT: note_off channel=2 note=61 velocity=95 time=0.14150925
EXTRACT: note_off channel=4 note=69 velocity=95 time=0
EXTRACT: note_off channel=14 note=33 velocity=111 time=0
EXTRACT: note_on channel=14 note=33 velocity=111 time=0
EXTRACT: note_off channel=9 note=35 velocity=95 time=0
EXTRACT: note_off channel=9 note=51 velocity=95 time=0
EXTRACT: note_off channel=0 note=64 velocity=111 time=0.14150925
EXTRACT: note_off channel=0 note=61 velocity=111 time=0
EXTRACT: note_off channel=0 note=57 velocity=111 time=0
EXTRACT: note_off channel=0 note=52 velocity=111 time=0
EXTRACT: note_off channel=0 note=45 velocity=111 time=0
EXTRACT: note_on channel=0 note=64 velocity=111 time=0
EXTRACT: note_on channel=0 note=61 velocity=95 time=0
EXTRACT: note_on channel=0 note=57 velocity=95 time=0
EXTRACT: note_on channel=0 note=52 velocity=95 time=0
EXTRACT: note_on channel=0 note=45 velocity=111 time=0
EXTRACT: note_on channel=2 note=61 velocity=95 time=0
EXTRACT: note_on channel=4 note=69 velocity=95 time=0
EXTRACT: note_off channel=14 note=33 velocity=111 time=0
EXTRACT: note_on channel=14 note=33 velocity=111 time=0
EXTRACT: note_on channel=9 note=39 velocity=95 time=0
EXTRACT: note_on channel=9 note=40 velocity=95 time=0
EXTRACT: note_on channel=9 note=56 velocity=95 time=0
EXTRACT: note_on channel=9 note=59 velocity=95 time=0
EXTRACT: note_off channel=2 note=61 velocity=95 time=0.14150925
EXTRACT: note_off channel=9 note=39 velocity=95 time=0
EXTRACT: note_off channel=9 note=40 velocity=95 time=0
EXTRACT: note_off channel=9 note=56 velocity=95 time=0
EXTRACT: note_off channel=9 note=59 velocity=95 time=0
EXTRACT: note_off channel=0 note=64 velocity=111 time=0.14150925
EXTRACT: note_off channel=0 note=61 velocity=95 time=0
EXTRACT: note_off channel=0 note=57 velocity=95 time=0
EXTRACT: note_off channel=0 note=52 velocity=95 time=0
EXTRACT: note_off channel=0 note=45 velocity=111 time=0
EXTRACT: note_off channel=4 note=69 velocity=95 time=0
EXTRACT: note_on channel=9 note=35 velocity=95 time=0
EXTRACT: note_on channel=9 note=53 velocity=95 time=0
EXTRACT: note_off channel=14 note=33 velocity=111 time=0.14150925
EXTRACT: note_on channel=14 note=33 velocity=111 time=0
EXTRACT: note_off channel=9 note=35 velocity=95 time=0
EXTRACT: note_off channel=9 note=53 velocity=95 time=0
EXTRACT: note_on channel=9 note=0 velocity=95 time=0
EXTRACT: note_on channel=9 note=40 velocity=95 time=0
EXTRACT: note_on channel=9 note=59 velocity=95 time=0
EXTRACT: note_off channel=6 note=85 velocity=95 time=0.14150925
EXTRACT: note_off channel=6 note=81 velocity=95 time=0
EXTRACT: note_off channel=6 note=76 velocity=95 time=0
EXTRACT: note_off channel=14 note=33 velocity=111 time=0
EXTRACT: note_off channel=9 note=0 velocity=95 time=0
EXTRACT: note_off channel=9 note=40 velocity=95 time=0
EXTRACT: note_off channel=9 note=59 velocity=95 time=0
EXTRACT: note_on channel=9 note=0 velocity=95 time=0
EXTRACT: note_on channel=9 note=35 velocity=95 time=0
EXTRACT: note_on channel=9 note=51 velocity=95 time=0
EXTRACT: note_on channel=9 note=56 velocity=95 time=0
EXTRACT: note_off channel=9 note=0 velocity=95 time=0.14150925
EXTRACT: note_off channel=9 note=35 velocity=95 time=0
EXTRACT: note_off channel=9 note=51 velocity=95 time=0
EXTRACT: note_off channel=9 note=56 velocity=95 time=0
EXTRACT: note_on channel=9 note=0 velocity=95 time=0
EXTRACT: note_on channel=9 note=35 velocity=95 time=0
EXTRACT: note_on channel=9 note=59 velocity=95 time=0
EXTRACT: note_on channel=0 note=64 velocity=111 time=0.14150925
EXTRACT: note_on channel=0 note=61 velocity=111 time=0
EXTRACT: note_on channel=0 note=57 velocity=111 time=0
EXTRACT: note_on channel=0 note=52 velocity=111 time=0
EXTRACT: note_on channel=0 note=45 velocity=111 time=0
EXTRACT: note_on channel=2 note=61 velocity=95 time=0
EXTRACT: note_on channel=4 note=69 velocity=95 time=0
EXTRACT: note_on channel=6 note=85 velocity=95 time=0
EXTRACT: note_on channel=6 note=81 velocity=95 time=0
EXTRACT: note_on channel=14 note=40 velocity=111 time=0
EXTRACT: note_off channel=9 note=0 velocity=95 time=0
EXTRACT: note_off channel=9 note=35 velocity=95 time=0
EXTRACT: note_off channel=9 note=59 velocity=95 time=0
EXTRACT: note_on channel=9 note=0 velocity=95 time=0
EXTRACT: note_on channel=9 note=35 velocity=95 time=0
EXTRACT: note_on channel=9 note=51 velocity=95 time=0
EXTRACT: note_off channel=0 note=64 velocity=111 time=0.14150925
EXTRACT: note_off channel=0 note=61 velocity=111 time=0
EXTRACT: note_off channel=0 note=57 velocity=111 time=0
EXTRACT: note_off channel=0 note=52 velocity=111 time=0
EXTRACT: note_off channel=0 note=45 velocity=111 time=0
EXTRACT: note_off channel=2 note=61 velocity=95 time=0
EXTRACT: note_off channel=4 note=69 velocity=95 time=0
EXTRACT: note_off channel=6 note=85 velocity=95 time=0
EXTRACT: note_off channel=6 note=81 velocity=95 time=0
EXTRACT: note_off channel=9 note=0 velocity=95 time=0
EXTRACT: note_off channel=9 note=35 velocity=95 time=0
EXTRACT: note_off channel=9 note=51 velocity=95 time=0
EXTRACT: note_on channel=0 note=64 velocity=111 time=0.14150925
EXTRACT: note_on channel=0 note=59 velocity=95 time=0
EXTRACT: note_on channel=0 note=55 velocity=95 time=0
EXTRACT: note_on channel=0 note=50 velocity=95 time=0
EXTRACT: note_off channel=14 note=40 velocity=111 time=0
EXTRACT: note_on channel=14 note=44 velocity=111 time=0
EXTRACT: note_on channel=9 note=39 velocity=95 time=0
EXTRACT: note_on channel=9 note=35 velocity=95 time=0
EXTRACT: note_on channel=9 note=56 velocity=95 time=0
EXTRACT: note_on channel=9 note=59 velocity=95 time=0
EXTRACT: note_off channel=0 note=64 velocity=111 time=0.031249959375
EXTRACT: note_off channel=0 note=59 velocity=95 time=0
EXTRACT: note_off channel=0 note=55 velocity=95 time=0
EXTRACT: note_off channel=0 note=50 velocity=95 time=0
EXTRACT: note_on channel=0 note=64 velocity=111 time=0.110259290625
EXTRACT: note_on channel=0 note=61 velocity=111 time=0
EXTRACT: note_on channel=0 note=57 velocity=111 time=0
EXTRACT: note_on channel=0 note=52 velocity=111 time=0
EXTRACT: note_on channel=2 note=61 velocity=95 time=0
EXTRACT: note_on channel=4 note=69 velocity=95 time=0
EXTRACT: note_on channel=6 note=76 velocity=95 time=0
EXTRACT: note_off channel=9 note=39 velocity=95 time=0
EXTRACT: note_off channel=9 note=35 velocity=95 time=0
EXTRACT: note_off channel=9 note=56 velocity=95 time=0
EXTRACT: note_off channel=9 note=59 velocity=95 time=0
EXTRACT: note_off channel=0 note=64 velocity=111 time=0.14150925
EXTRACT: note_off channel=0 note=61 velocity=111 time=0
EXTRACT: note_off channel=0 note=57 velocity=111 time=0
EXTRACT: note_off channel=0 note=52 velocity=111 time=0
EXTRACT: note_off channel=2 note=61 velocity=95 time=0
EXTRACT: note_on channel=2 note=61 velocity=95 time=0
EXTRACT: note_off channel=4 note=69 velocity=95 time=0
EXTRACT: note_on channel=4 note=69 velocity=95 time=0
EXTRACT: note_off channel=6 note=76 velocity=95 time=0
EXTRACT: note_on channel=6 note=85 velocity=95 time=0
EXTRACT: note_on channel=6 note=81 velocity=95 time=0
EXTRACT: note_off channel=14 note=44 velocity=111 time=0
EXTRACT: note_on channel=14 note=45 velocity=111 time=0
EXTRACT: note_on channel=9 note=40 velocity=95 time=0
EXTRACT: note_on channel=9 note=51 velocity=95 time=0
EXTRACT: note_off channel=2 note=61 velocity=95 time=0.14150925
EXTRACT: note_off channel=4 note=69 velocity=95 time=0
EXTRACT: note_off channel=6 note=85 velocity=95 time=0
EXTRACT: note_off channel=6 note=81 velocity=95 time=0
EXTRACT: note_off channel=9 note=40 velocity=95 time=0
EXTRACT: note_off channel=9 note=51 velocity=95 time=0
EXTRACT: note_on channel=9 note=0 velocity=95 time=0
EXTRACT: note_on channel=9 note=59 velocity=95 time=0
EXTRACT: note_on channel=0 note=64 velocity=111 time=0.14150925
EXTRACT: note_on channel=0 note=59 velocity=111 time=0
EXTRACT: note_on channel=0 note=56 velocity=111 time=0
EXTRACT: note_on channel=0 note=52 velocity=111 time=0
EXTRACT: note_on channel=0 note=47 velocity=111 time=0
EXTRACT: note_on channel=0 note=40 velocity=111 time=0
EXTRACT: note_on channel=2 note=59 velocity=95 time=0
EXTRACT: note_on channel=4 note=68 velocity=95 time=0
EXTRACT: note_on channel=6 note=83 velocity=95 time=0
EXTRACT: note_on channel=6 note=80 velocity=95 time=0
EXTRACT: note_off channel=14 note=45 velocity=111 time=0
EXTRACT: note_on channel=14 note=40 velocity=111 time=0
EXTRACT: note_off channel=9 note=0 velocity=95 time=0
EXTRACT: note_off channel=9 note=59 velocity=95 time=0
EXTRACT: note_on channel=9 note=35 velocity=95 time=0
EXTRACT: note_on channel=9 note=51 velocity=95 time=0
EXTRACT: note_on channel=9 note=56 velocity=95 time=0
EXTRACT: note_off channel=9 note=35 velocity=95 time=0.14150925
EXTRACT: note_off channel=9 note=51 velocity=95 time=0
EXTRACT: note_off channel=9 note=56 velocity=95 time=0
EXTRACT: note_off channel=14 note=40 velocity=111 time=0.14150925
EXTRACT: note_on channel=14 note=44 velocity=111 time=0
EXTRACT: note_on channel=9 note=35 velocity=95 time=0
EXTRACT: note_on channel=9 note=51 velocity=95 time=0
EXTRACT: note_off channel=2 note=59 velocity=95 time=0.14150925
EXTRACT: note_on channel=2 note=57 velocity=95 time=0
EXTRACT: note_off channel=4 note=68 velocity=95 time=0
EXTRACT: note_on channel=4 note=66 velocity=95 time=0
EXTRACT: note_off channel=9 note=35 velocity=95 time=0
EXTRACT: note_off channel=9 note=51 velocity=95 time=0
EXTRACT: note_off channel=0 note=64 velocity=111 time=0.14150925
EXTRACT: note_off channel=0 note=59 velocity=111 time=0
EXTRACT: note_off channel=0 note=56 velocity=111 time=0
EXTRACT: note_off channel=0 note=52 velocity=111 time=0
EXTRACT: note_off channel=0 note=47 velocity=111 time=0
EXTRACT: note_off channel=0 note=40 velocity=111 time=0
EXTRACT: note_on channel=0 note=64 velocity=111 time=0
EXTRACT: note_on channel=0 note=59 velocity=95 time=0
EXTRACT: note_on channel=0 note=56 velocity=95 time=0
EXTRACT: note_on channel=0 note=52 velocity=95 time=0
EXTRACT: note_on channel=0 note=47 velocity=111 time=0
EXTRACT: note_on channel=0 note=40 velocity=111 time=0
EXTRACT: note_off channel=2 note=57 velocity=95 time=0
EXTRACT: note_on channel=2 note=56 velocity=95 time=0
EXTRACT: note_off channel=4 note=66 velocity=95 time=0
EXTRACT: note_on channel=4 note=64 velocity=95 time=0
EXTRACT: note_off channel=14 note=44 velocity=111 time=0
EXTRACT: note_on channel=14 note=45 velocity=111 time=0
EXTRACT: note_on channel=9 note=39 velocity=95 time=0
EXTRACT: note_on channel=9 note=40 velocity=95 time=0
EXTRACT: note_on channel=9 note=56 velocity=95 time=0
EXTRACT: note_on channel=9 note=59 velocity=95 time=0
EXTRACT: note_off channel=4 note=64 velocity=95 time=0.14150925
EXTRACT: note_off channel=9 note=39 velocity=95 time=0
EXTRACT: note_off channel=9 note=40 velocity=95 time=0
EXTRACT: note_off channel=9 note=56 velocity=95 time=0
EXTRACT: note_off channel=9 note=59 velocity=95 time=0
EXTRACT: note_off channel=0 note=64 velocity=111 time=0.14150925
EXTRACT: note_off channel=0 note=59 velocity=95 time=0
EXTRACT: note_off channel=0 note=56 velocity=95 time=0
EXTRACT: note_off channel=0 note=52 velocity=95 time=0
EXTRACT: note_off channel=0 note=47 velocity=111 time=0
EXTRACT: note_off channel=0 note=40 velocity=111 time=0
EXTRACT: note_off channel=2 note=56 velocity=95 time=0
EXTRACT: note_off channel=14 note=45 velocity=111 time=0
EXTRACT: note_on channel=14 note=45 velocity=111 time=0
EXTRACT: note_on channel=9 note=35 velocity=95 time=0
EXTRACT: note_on channel=9 note=53 velocity=95 time=0
EXTRACT: note_on channel=4 note=64 velocity=95 time=0.14150925
EXTRACT: note_off channel=14 note=45 velocity=111 time=0
EXTRACT: note_on channel=14 note=47 velocity=111 time=0
EXTRACT: note_off channel=9 note=35 velocity=95 time=0
EXTRACT: note_off channel=9 note=53 velocity=95 time=0
EXTRACT: note_on channel=9 note=0 velocity=95 time=0
EXTRACT: note_on channel=9 note=29 velocity=95 time=0
EXTRACT: note_on channel=9 note=40 velocity=95 time=0
EXTRACT: note_on channel=9 note=59 velocity=95 time=0
EXTRACT: note_off channel=4 note=64 velocity=95 time=0.14150925
EXTRACT: note_on channel=4 note=66 velocity=95 time=0
EXTRACT: note_off channel=9 note=0 velocity=95 time=0
EXTRACT: note_off channel=9 note=29 velocity=95 time=0
EXTRACT: note_off channel=9 note=40 velocity=95 time=0
EXTRACT: note_off channel=9 note=59 velocity=95 time=0
EXTRACT: note_on channel=9 note=0 velocity=95 time=0
EXTRACT: note_on channel=9 note=30 velocity=95 time=0
EXTRACT: note_on channel=9 note=35 velocity=95 time=0
EXTRACT: note_on channel=9 note=51 velocity=95 time=0
EXTRACT: note_on channel=9 note=56 velocity=95 time=0
EXTRACT: note_off channel=14 note=47 velocity=111 time=0.14150925
EXTRACT: note_on channel=14 note=47 velocity=111 time=0
EXTRACT: note_off channel=9 note=0 velocity=95 time=0
EXTRACT: note_off channel=9 note=30 velocity=95 time=0
EXTRACT: note_off channel=9 note=35 velocity=95 time=0
EXTRACT: note_off channel=9 note=51 velocity=95 time=0
EXTRACT: note_off channel=9 note=56 velocity=95 time=0
EXTRACT: note_on channel=9 note=0 velocity=95 time=0
EXTRACT: note_on channel=9 note=29 velocity=95 time=0
EXTRACT: note_on channel=9 note=40 velocity=95 time=0
EXTRACT: note_on channel=9 note=59 velocity=95 time=0
EXTRACT: note_on channel=0 note=64 velocity=111 time=0.14150925
EXTRACT: note_on channel=0 note=59 velocity=111 time=0
EXTRACT: note_on channel=0 note=56 velocity=111 time=0
EXTRACT: note_on channel=0 note=52 velocity=111 time=0
EXTRACT: note_on channel=0 note=47 velocity=111 time=0
EXTRACT: note_on channel=0 note=40 velocity=111 time=0
EXTRACT: note_off channel=4 note=66 velocity=95 time=0
EXTRACT: note_on channel=4 note=69 velocity=95 time=0
EXTRACT: note_off channel=14 note=47 velocity=111 time=0
EXTRACT: note_on channel=14 note=52 velocity=111 time=0
EXTRACT: note_off channel=9 note=0 velocity=95 time=0
EXTRACT: note_off channel=9 note=29 velocity=95 time=0
EXTRACT: note_off channel=9 note=40 velocity=95 time=0
EXTRACT: note_off channel=9 note=59 velocity=95 time=0
EXTRACT: note_on channel=9 note=0 velocity=95 time=0
EXTRACT: note_on channel=9 note=30 velocity=95 time=0
EXTRACT: note_on channel=9 note=35 velocity=95 time=0
EXTRACT: note_on channel=9 note=53 velocity=95 time=0
EXTRACT: note_off channel=0 note=64 velocity=111 time=0.14150925
EXTRACT: note_off channel=0 note=59 velocity=111 time=0
EXTRACT: note_off channel=0 note=56 velocity=111 time=0
EXTRACT: note_off channel=0 note=52 velocity=111 time=0
EXTRACT: note_off channel=0 note=47 velocity=111 time=0
EXTRACT: note_off channel=0 note=40 velocity=111 time=0
EXTRACT: note_off channel=4 note=69 velocity=95 time=0
EXTRACT: note_off channel=9 note=0 velocity=95 time=0
EXTRACT: note_off channel=9 note=30 velocity=95 time=0
EXTRACT: note_off channel=9 note=35 velocity=95 time=0
EXTRACT: note_off channel=9 note=53 velocity=95 time=0
EXTRACT: note_on channel=9 note=0 velocity=95 time=0
EXTRACT: note_on channel=9 note=35 velocity=95 time=0
EXTRACT: note_on channel=9 note=59 velocity=95 time=0
EXTRACT: note_on channel=0 note=64 velocity=111 time=0.14150925
EXTRACT: note_on channel=0 note=59 velocity=95 time=0
EXTRACT: note_on channel=0 note=55 velocity=95 time=0
EXTRACT: note_on channel=0 note=50 velocity=95 time=0
EXTRACT: note_on channel=4 note=73 velocity=95 time=0
EXTRACT: note_off channel=14 note=52 velocity=111 time=0
EXTRACT: note_on channel=14 note=50 velocity=111 time=0
EXTRACT: note_off channel=9 note=0 velocity=95 time=0
EXTRACT: note_off channel=9 note=35 velocity=95 time=0
EXTRACT: note_off channel=9 note=59 velocity=95 time=0
EXTRACT: note_on channel=9 note=0 velocity=95 time=0
EXTRACT: note_on channel=9 note=39 velocity=95 time=0
EXTRACT: note_on channel=9 note=30 velocity=95 time=0
EXTRACT: note_on channel=9 note=40 velocity=95 time=0
EXTRACT: note_on channel=9 note=56 velocity=95 time=0
EXTRACT: note_on channel=9 note=59 velocity=95 time=0
EXTRACT: note_off channel=0 note=64 velocity=111 time=0.031249959375
EXTRACT: note_off channel=0 note=59 velocity=95 time=0
EXTRACT: note_off channel=0 note=55 velocity=95 time=0
EXTRACT: note_off channel=0 note=50 velocity=95 time=0
EXTRACT: note_on channel=0 note=64 velocity=111 time=0.110259290625
EXTRACT: note_on channel=0 note=59 velocity=111 time=0
EXTRACT: note_on channel=0 note=56 velocity=111 time=0
EXTRACT: note_on channel=0 note=52 velocity=111 time=0
EXTRACT: note_off channel=9 note=0 velocity=95 time=0
EXTRACT: note_off channel=9 note=39 velocity=95 time=0
EXTRACT: note_off channel=9 note=30 velocity=95 time=0
EXTRACT: note_off channel=9 note=40 velocity=95 time=0
EXTRACT: note_off channel=9 note=56 velocity=95 time=0
EXTRACT: note_off channel=9 note=59 velocity=95 time=0
EXTRACT: note_off channel=0 note=64 velocity=111 time=0.14150925
EXTRACT: note_off channel=0 note=59 velocity=111 time=0
EXTRACT: note_off channel=0 note=56 velocity=111 time=0
EXTRACT: note_off channel=0 note=52 velocity=111 time=0
EXTRACT: note_off channel=4 note=73 velocity=95 time=0
EXTRACT: note_on channel=4 note=71 velocity=95 time=0
EXTRACT: note_on channel=9 note=29 velocity=95 time=0
EXTRACT: note_on channel=9 note=35 velocity=95 time=0
EXTRACT: note_on channel=9 note=51 velocity=95 time=0
EXTRACT: note_off channel=4 note=71 velocity=95 time=0.14150925
EXTRACT: note_on channel=4 note=69 velocity=95 time=0
EXTRACT: note_off channel=6 note=83 velocity=95 time=0
EXTRACT: note_off channel=6 note=80 velocity=95 time=0
EXTRACT: note_off channel=9 note=29 velocity=95 time=0
EXTRACT: note_off channel=9 note=35 velocity=95 time=0
EXTRACT: note_off channel=9 note=51 velocity=95 time=0
EXTRACT: note_on channel=9 note=0 velocity=95 time=0
EXTRACT: note_on channel=9 note=30 velocity=95 time=0
EXTRACT: note_on channel=9 note=35 velocity=95 time=0
EXTRACT: note_on channel=9 note=51 velocity=95 time=0
EXTRACT: note_on channel=0 note=64 velocity=111 time=0.14150925
EXTRACT: note_on channel=0 note=61 velocity=111 time=0
EXTRACT: note_on channel=0 note=57 velocity=111 time=0
EXTRACT: note_on channel=0 note=52 velocity=111 time=0
EXTRACT: note_on channel=0 note=45 velocity=111 time=0
EXTRACT: note_on channel=2 note=61 velocity=95 time=0
EXTRACT: note_off channel=4 note=69 velocity=95 time=0
EXTRACT: note_on channel=4 note=69 velocity=95 time=0
EXTRACT: note_on channel=6 note=85 velocity=95 time=0
EXTRACT: note_on channel=6 note=81 velocity=95 time=0
EXTRACT: note_off channel=14 note=50 velocity=111 time=0
EXTRACT: note_on channel=14 note=33 velocity=111 time=0
EXTRACT: note_off channel=9 note=0 velocity=95 time=0
EXTRACT: note_off channel=9 note=30 velocity=95 time=0
EXTRACT: note_off channel=9 note=35 velocity=95 time=0
EXTRACT: note_off channel=9 note=51 velocity=95 time=0
EXTRACT: note_on channel=9 note=0 velocity=95 time=0
EXTRACT: note_on channel=9 note=35 velocity=95 time=0
EXTRACT: note_on channel=9 note=51 velocity=95 time=0
EXTRACT: note_on channel=9 note=56 velocity=95 time=0
EXTRACT: note_off channel=9 note=0 velocity=95 time=0.14150925
EXTRACT: note_off channel=9 note=35 velocity=95 time=0
EXTRACT: note_off channel=9 note=51 velocity=95 time=0
EXTRACT: note_off channel=9 note=56 velocity=95 time=0
EXTRACT: note_on channel=9 note=51 velocity=95 time=0.14150925
EXTRACT: note_off channel=2 note=61 velocity=95 time=0.14150925
EXTRACT: note_off channel=4 note=69 velocity=95 time=0
EXTRACT: note_off channel=9 note=51 velocity=95 time=0
EXTRACT: note_off channel=0 note=64 velocity=111 time=0.14150925
EXTRACT: note_off channel=0 note=61 velocity=111 time=0
EXTRACT: note_off channel=0 note=57 velocity=111 time=0
EXTRACT: note_off channel=0 note=52 velocity=111 time=0
EXTRACT: note_off channel=0 note=45 velocity=111 time=0
EXTRACT: note_on channel=0 note=64 velocity=111 time=0
EXTRACT: note_on channel=0 note=61 velocity=95 time=0
EXTRACT: note_on channel=0 note=57 velocity=95 time=0
EXTRACT: note_on channel=0 note=52 velocity=95 time=0
EXTRACT: note_on channel=0 note=45 velocity=111 time=0
EXTRACT: note_on channel=2 note=61 velocity=95 time=0
EXTRACT: note_on channel=4 note=69 velocity=95 time=0
EXTRACT: note_off channel=14 note=33 velocity=111 time=0
EXTRACT: note_on channel=14 note=33 velocity=111 time=0
EXTRACT: note_on channel=9 note=39 velocity=95 time=0
EXTRACT: note_on channel=9 note=40 velocity=95 time=0
EXTRACT: note_on channel=9 note=56 velocity=95 time=0
EXTRACT: note_on channel=9 note=59 velocity=95 time=0
EXTRACT: note_off channel=2 note=61 velocity=95 time=0.14150925
EXTRACT: note_off channel=9 note=39 velocity=95 time=0
EXTRACT: note_off channel=9 note=40 velocity=95 time=0
EXTRACT: note_off channel=9 note=56 velocity=95 time=0
EXTRACT: note_off channel=9 note=59 velocity=95 time=0
EXTRACT: note_off channel=0 note=64 velocity=111 time=0.14150925
EXTRACT: note_off channel=0 note=61 velocity=95 time=0
EXTRACT: note_off channel=0 note=57 velocity=95 time=0
EXTRACT: note_off channel=0 note=52 velocity=95 time=0
EXTRACT: note_off channel=0 note=45 velocity=111 time=0
EXTRACT: note_off channel=4 note=69 velocity=95 time=0
EXTRACT: note_off channel=14 note=33 velocity=111 time=0
EXTRACT: note_on channel=9 note=35 velocity=95 time=0
EXTRACT: note_on channel=9 note=53 velocity=95 time=0
EXTRACT: note_off channel=9 note=35 velocity=95 time=0.14150925
EXTRACT: note_off channel=9 note=53 velocity=95 time=0
EXTRACT: note_on channel=9 note=0 velocity=95 time=0
EXTRACT: note_on channel=9 note=40 velocity=95 time=0
EXTRACT: note_on channel=9 note=59 velocity=95 time=0
EXTRACT: note_off channel=6 note=85 velocity=95 time=0.14150925
EXTRACT: note_off channel=6 note=81 velocity=95 time=0
EXTRACT: note_off channel=9 note=0 velocity=95 time=0
EXTRACT: note_off channel=9 note=40 velocity=95 time=0
EXTRACT: note_off channel=9 note=59 velocity=95 time=0
EXTRACT: note_on channel=9 note=0 velocity=95 time=0
EXTRACT: note_on channel=9 note=35 velocity=95 time=0
EXTRACT: note_on channel=9 note=51 velocity=95 time=0
EXTRACT: note_on channel=9 note=56 velocity=95 time=0
EXTRACT: note_on channel=4 note=69 velocity=95 time=0.14150925
EXTRACT: note_on channel=14 note=33 velocity=111 time=0
EXTRACT: note_off channel=9 note=0 velocity=95 time=0
EXTRACT: note_off channel=9 note=35 velocity=95 time=0
EXTRACT: note_off channel=9 note=51 velocity=95 time=0
EXTRACT: note_off channel=9 note=56 velocity=95 time=0
EXTRACT: note_on channel=9 note=0 velocity=95 time=0
EXTRACT: note_on channel=9 note=29 velocity=95 time=0
EXTRACT: note_on channel=0 note=64 velocity=111 time=0.14150925
EXTRACT: note_on channel=0 note=61 velocity=111 time=0
EXTRACT: note_on channel=0 note=57 velocity=111 time=0
EXTRACT: note_on channel=0 note=52 velocity=111 time=0
EXTRACT: note_on channel=0 note=45 velocity=111 time=0
EXTRACT: note_on channel=2 note=61 velocity=95 time=0
EXTRACT: note_off channel=4 note=69 velocity=95 time=0
EXTRACT: note_on channel=6 note=85 velocity=95 time=0
EXTRACT: note_on channel=6 note=81 velocity=95 time=0
EXTRACT: note_off channel=9 note=0 velocity=95 time=0
EXTRACT: note_off channel=9 note=29 velocity=95 time=0
EXTRACT: note_on channel=9 note=0 velocity=95 time=0
EXTRACT: note_on channel=9 note=30 velocity=95 time=0
EXTRACT: note_on channel=9 note=35 velocity=95 time=0
EXTRACT: note_on channel=9 note=51 velocity=95 time=0
EXTRACT: note_off channel=0 note=64 velocity=111 time=0.14150925
EXTRACT: note_off channel=0 note=61 velocity=111 time=0
EXTRACT: note_off channel=0 note=57 velocity=111 time=0
EXTRACT: note_off channel=0 note=52 velocity=111 time=0
EXTRACT: note_off channel=0 note=45 velocity=111 time=0
EXTRACT: note_off channel=2 note=61 velocity=95 time=0
EXTRACT: note_off channel=6 note=85 velocity=95 time=0
EXTRACT: note_off channel=6 note=81 velocity=95 time=0
EXTRACT: note_off channel=9 note=0 velocity=95 time=0
EXTRACT: note_off channel=9 note=30 velocity=95 time=0
EXTRACT: note_off channel=9 note=35 velocity=95 time=0
EXTRACT: note_off channel=9 note=51 velocity=95 time=0
EXTRACT: note_on channel=0 note=64 velocity=111 time=0.14150925
EXTRACT: note_on channel=0 note=59 velocity=95 time=0
EXTRACT: note_on channel=0 note=55 velocity=95 time=0
EXTRACT: note_on channel=0 note=50 velocity=95 time=0
EXTRACT: note_off channel=14 note=33 velocity=111 time=0
EXTRACT: note_on channel=9 note=39 velocity=95 time=0
EXTRACT: note_on channel=9 note=30 velocity=95 time=0
EXTRACT: note_on channel=9 note=40 velocity=95 time=0
EXTRACT: note_on channel=9 note=56 velocity=95 time=0
EXTRACT: note_on channel=9 note=59 velocity=95 time=0
EXTRACT: note_off channel=0 note=64 velocity=111 time=0.031249959375
EXTRACT: note_off channel=0 note=59 velocity=95 time=0
EXTRACT: note_off channel=0 note=55 velocity=95 time=0
EXTRACT: note_off channel=0 note=50 velocity=95 time=0
EXTRACT: note_on channel=0 note=64 velocity=111 time=0.110259290625
EXTRACT: note_on channel=0 note=61 velocity=111 time=0
EXTRACT: note_on channel=0 note=57 velocity=111 time=0
EXTRACT: note_on channel=0 note=52 velocity=111 time=0
EXTRACT: note_on channel=2 note=61 velocity=95 time=0
EXTRACT: note_on channel=4 note=69 velocity=95 time=0
EXTRACT: note_on channel=6 note=76 velocity=95 time=0
EXTRACT: note_on channel=14 note=33 velocity=111 time=0
EXTRACT: note_off channel=9 note=39 velocity=95 time=0
EXTRACT: note_off channel=9 note=30 velocity=95 time=0
EXTRACT: note_off channel=9 note=40 velocity=95 time=0
EXTRACT: note_off channel=9 note=56 velocity=95 time=0
EXTRACT: note_off channel=9 note=59 velocity=95 time=0
EXTRACT: note_off channel=0 note=64 velocity=111 time=0.14150925
EXTRACT: note_off channel=0 note=61 velocity=111 time=0
EXTRACT: note_off channel=0 note=57 velocity=111 time=0
EXTRACT: note_off channel=0 note=52 velocity=111 time=0
EXTRACT: note_off channel=2 note=61 velocity=95 time=0
EXTRACT: note_on channel=2 note=61 velocity=95 time=0
EXTRACT: note_off channel=4 note=69 velocity=95 time=0
EXTRACT: note_on channel=4 note=69 velocity=95 time=0
EXTRACT: note_off channel=6 note=76 velocity=95 time=0
EXTRACT: note_on channel=6 note=85 velocity=95 time=0
EXTRACT: note_on channel=6 note=81 velocity=95 time=0
EXTRACT: note_on channel=9 note=29 velocity=95 time=0
EXTRACT: note_on channel=9 note=35 velocity=95 time=0
EXTRACT: note_on channel=9 note=53 velocity=95 time=0
EXTRACT: note_off channel=2 note=61 velocity=95 time=0.14150925
EXTRACT: note_off channel=4 note=69 velocity=95 time=0
EXTRACT: note_off channel=6 note=85 velocity=95 time=0
EXTRACT: note_off channel=6 note=81 velocity=95 time=0
EXTRACT: note_off channel=9 note=29 velocity=95 time=0
EXTRACT: note_off channel=9 note=35 velocity=95 time=0
EXTRACT: note_off channel=9 note=53 velocity=95 time=0
EXTRACT: note_on channel=9 note=0 velocity=95 time=0
EXTRACT: note_on channel=9 note=30 velocity=95 time=0
EXTRACT: note_on channel=9 note=35 velocity=95 time=0
EXTRACT: note_on channel=9 note=59 velocity=95 time=0
EXTRACT: note_on channel=0 note=66 velocity=111 time=0.14150925
EXTRACT: note_on channel=0 note=62 velocity=111 time=0
EXTRACT: note_on channel=0 note=57 velocity=111 time=0
EXTRACT: note_on channel=0 note=50 velocity=111 time=0
EXTRACT: note_on channel=2 note=62 velocity=95 time=0
EXTRACT: note_on channel=4 note=66 velocity=95 time=0
EXTRACT: note_on channel=6 note=86 velocity=95 time=0
EXTRACT: note_on channel=6 note=81 velocity=95 time=0
EXTRACT: note_off channel=14 note=33 velocity=111 time=0
EXTRACT: note_on channel=14 note=38 velocity=111 time=0
EXTRACT: note_off channel=9 note=0 velocity=95 time=0
EXTRACT: note_off channel=9 note=30 velocity=95 time=0
EXTRACT: note_off channel=9 note=35 velocity=95 time=0
EXTRACT: note_off channel=9 note=59 velocity=95 time=0
EXTRACT: note_on channel=9 note=0 velocity=95 time=0
EXTRACT: note_on channel=9 note=35 velocity=95 time=0
EXTRACT: note_on channel=9 note=51 velocity=95 time=0
EXTRACT: note_on channel=9 note=56 velocity=95 time=0
EXTRACT: note_off channel=9 note=0 velocity=95 time=0.14150925
EXTRACT: note_off channel=9 note=35 velocity=95 time=0
EXTRACT: note_off channel=9 note=51 velocity=95 time=0
EXTRACT: note_off channel=9 note=56 velocity=95 time=0
EXTRACT: note_off channel=14 note=38 velocity=111 time=0.14150925
EXTRACT: note_on channel=14 note=38 velocity=111 time=0
EXTRACT: note_on channel=9 note=35 velocity=95 time=0
EXTRACT: note_on channel=9 note=51 velocity=95 time=0
EXTRACT: note_off channel=2 note=62 velocity=95 time=0.14150925
EXTRACT: note_off channel=4 note=66 velocity=95 time=0
EXTRACT: note_off channel=9 note=35 velocity=95 time=0
EXTRACT: note_off channel=9 note=51 velocity=95 time=0
EXTRACT: note_off channel=0 note=66 velocity=111 time=0.14150925
EXTRACT: note_off channel=0 note=62 velocity=111 time=0
EXTRACT: note_off channel=0 note=57 velocity=111 time=0
EXTRACT: note_off channel=0 note=50 velocity=111 time=0
EXTRACT: note_on channel=0 note=66 velocity=111 time=0
EXTRACT: note_on channel=0 note=62 velocity=95 time=0
EXTRACT: note_on channel=0 note=57 velocity=95 time=0
EXTRACT: note_on channel=0 note=50 velocity=111 time=0
EXTRACT: note_on channel=2 note=62 velocity=95 time=0
EXTRACT: note_on channel=4 note=66 velocity=95 time=0
EXTRACT: note_off channel=14 note=38 velocity=111 time=0
EXTRACT: note_on channel=14 note=38 velocity=111 time=0
EXTRACT: note_on channel=9 note=39 velocity=95 time=0
EXTRACT: note_on channel=9 note=40 velocity=95 time=0
EXTRACT: note_on channel=9 note=56 velocity=95 time=0
EXTRACT: note_on channel=9 note=59 velocity=95 time=0
EXTRACT: note_off channel=9 note=39 velocity=95 time=0.14150925
EXTRACT: note_off channel=9 note=40 velocity=95 time=0
EXTRACT: note_off channel=9 note=56 velocity=95 time=0
EXTRACT: note_off channel=9 note=59 velocity=95 time=0
EXTRACT: note_off channel=0 note=66 velocity=111 time=0.14150925
EXTRACT: note_off channel=0 note=62 velocity=95 time=0
EXTRACT: note_off channel=0 note=57 velocity=95 time=0
EXTRACT: note_off channel=0 note=50 velocity=111 time=0
EXTRACT: note_off channel=2 note=62 velocity=95 time=0
EXTRACT: note_off channel=4 note=66 velocity=95 time=0
EXTRACT: note_on channel=9 note=35 velocity=95 time=0
EXTRACT: note_on channel=9 note=53 velocity=95 time=0
EXTRACT: note_off channel=14 note=38 velocity=111 time=0.14150925
EXTRACT: note_on channel=14 note=38 velocity=111 time=0
EXTRACT: note_off channel=9 note=35 velocity=95 time=0
EXTRACT: note_off channel=9 note=53 velocity=95 time=0
EXTRACT: note_on channel=9 note=0 velocity=95 time=0
EXTRACT: note_on channel=9 note=29 velocity=95 time=0
EXTRACT: note_on channel=9 note=40 velocity=95 time=0
EXTRACT: note_on channel=9 note=59 velocity=95 time=0
EXTRACT: note_on channel=2 note=66 velocity=95 time=0.14150925
EXTRACT: note_on channel=4 note=74 velocity=95 time=0
EXTRACT: note_off channel=9 note=0 velocity=95 time=0
EXTRACT: note_off channel=9 note=29 velocity=95 time=0
EXTRACT: note_off channel=9 note=40 velocity=95 time=0
EXTRACT: note_off channel=9 note=59 velocity=95 time=0
EXTRACT: note_on channel=9 note=0 velocity=95 time=0
EXTRACT: note_on channel=9 note=30 velocity=95 time=0
EXTRACT: note_on channel=9 note=35 velocity=95 time=0
EXTRACT: note_on channel=9 note=51 velocity=95 time=0
EXTRACT: note_on channel=9 note=56 velocity=95 time=0
EXTRACT: note_off channel=2 note=66 velocity=95 time=0.14150925
EXTRACT: note_on channel=2 note=66 velocity=95 time=0
EXTRACT: note_off channel=4 note=74 velocity=95 time=0
EXTRACT: note_on channel=4 note=74 velocity=95 time=0
EXTRACT: note_off channel=6 note=86 velocity=95 time=0
EXTRACT: note_off channel=6 note=81 velocity=95 time=0
EXTRACT: note_on channel=6 note=78 velocity=95 time=0
EXTRACT: note_off channel=14 note=38 velocity=111 time=0
EXTRACT: note_on channel=14 note=38 velocity=111 time=0
EXTRACT: note_off channel=9 note=0 velocity=95 time=0
EXTRACT: note_off channel=9 note=30 velocity=95 time=0
EXTRACT: note_off channel=9 note=35 velocity=95 time=0
EXTRACT: note_off channel=9 note=51 velocity=95 time=0
EXTRACT: note_off channel=9 note=56 velocity=95 time=0
EXTRACT: note_on channel=9 note=0 velocity=95 time=0
EXTRACT: note_on channel=9 note=29 velocity=95 time=0
EXTRACT: note_on channel=9 note=40 velocity=95 time=0
EXTRACT: note_on channel=9 note=59 velocity=95 time=0
EXTRACT: note_on channel=0 note=66 velocity=111 time=0.14150925
EXTRACT: note_on channel=0 note=62 velocity=95 time=0
EXTRACT: note_on channel=0 note=57 velocity=95 time=0
EXTRACT: note_on channel=0 note=50 velocity=111 time=0
EXTRACT: note_off channel=2 note=66 velocity=95 time=0
EXTRACT: note_on channel=2 note=64 velocity=95 time=0
EXTRACT: note_off channel=4 note=74 velocity=95 time=0
EXTRACT: note_on channel=4 note=73 velocity=95 time=0
EXTRACT: note_off channel=6 note=78 velocity=95 time=0
EXTRACT: note_on channel=6 note=86 velocity=95 time=0
EXTRACT: note_on channel=6 note=81 velocity=95 time=0
EXTRACT: note_off channel=14 note=38 velocity=111 time=0
EXTRACT: note_on channel=14 note=38 velocity=111 time=0
EXTRACT: note_off channel=9 note=0 velocity=95 time=0
EXTRACT: note_off channel=9 note=29 velocity=95 time=0
EXTRACT: note_off channel=9 note=40 velocity=95 time=0
EXTRACT: note_off channel=9 note=59 velocity=95 time=0
EXTRACT: note_on channel=9 note=0 velocity=95 time=0
EXTRACT: note_on channel=9 note=30 velocity=95 time=0
EXTRACT: note_on channel=9 note=35 velocity=95 time=0
EXTRACT: note_on channel=9 note=51 velocity=95 time=0
EXTRACT: note_off channel=0 note=66 velocity=111 time=0.14150925
EXTRACT: note_off channel=0 note=62 velocity=95 time=0
EXTRACT: note_off channel=0 note=57 velocity=95 time=0
EXTRACT: note_off channel=0 note=50 velocity=111 time=0
EXTRACT: note_off channel=2 note=64 velocity=95 time=0
EXTRACT: note_off channel=4 note=73 velocity=95 time=0
EXTRACT: note_off channel=6 note=86 velocity=95 time=0
EXTRACT: note_off channel=6 note=81 velocity=95 time=0
EXTRACT: note_on channel=6 note=86 velocity=95 time=0
EXTRACT: note_on channel=6 note=81 velocity=95 time=0
EXTRACT: note_on channel=6 note=78 velocity=95 time=0
EXTRACT: note_off channel=9 note=0 velocity=95 time=0
EXTRACT: note_off channel=9 note=30 velocity=95 time=0
EXTRACT: note_off channel=9 note=35 velocity=95 time=0
EXTRACT: note_off channel=9 note=51 velocity=95 time=0
EXTRACT: note_on channel=9 note=0 velocity=95 time=0
EXTRACT: note_on channel=9 note=30 velocity=95 time=0
EXTRACT: note_on channel=9 note=35 velocity=95 time=0
EXTRACT: note_on channel=9 note=51 velocity=95 time=0
EXTRACT: note_on channel=0 note=64 velocity=111 time=0.14150925
EXTRACT: note_on channel=0 note=59 velocity=95 time=0
EXTRACT: note_on channel=0 note=55 velocity=95 time=0
EXTRACT: note_on channel=0 note=50 velocity=95 time=0
EXTRACT: note_off channel=6 note=86 velocity=95 time=0
EXTRACT: note_off channel=6 note=81 velocity=95 time=0
EXTRACT: note_off channel=6 note=78 velocity=95 time=0
EXTRACT: note_off channel=9 note=0 velocity=95 time=0
EXTRACT: note_off channel=9 note=30 velocity=95 time=0
EXTRACT: note_off channel=9 note=35 velocity=95 time=0
EXTRACT: note_off channel=9 note=51 velocity=95 time=0
EXTRACT: note_on channel=9 note=0 velocity=95 time=0
EXTRACT: note_on channel=9 note=39 velocity=95 time=0
EXTRACT: note_on channel=9 note=30 velocity=95 time=0
EXTRACT: note_on channel=9 note=40 velocity=95 time=0
EXTRACT: note_on channel=9 note=56 velocity=95 time=0
EXTRACT: note_on channel=9 note=59 velocity=95 time=0
EXTRACT: note_off channel=0 note=64 velocity=111 time=0.031249959375
EXTRACT: note_off channel=0 note=59 velocity=95 time=0
EXTRACT: note_off channel=0 note=55 velocity=95 time=0
EXTRACT: note_off channel=0 note=50 velocity=95 time=0
EXTRACT: note_on channel=0 note=66 velocity=111 time=0.110259290625
EXTRACT: note_on channel=0 note=62 velocity=111 time=0
EXTRACT: note_on channel=0 note=57 velocity=111 time=0
EXTRACT: note_on channel=2 note=62 velocity=95 time=0
EXTRACT: note_on channel=4 note=71 velocity=95 time=0
EXTRACT: note_on channel=6 note=78 velocity=95 time=0
EXTRACT: note_off channel=9 note=0 velocity=95 time=0
EXTRACT: note_off channel=9 note=39 velocity=95 time=0
EXTRACT: note_off channel=9 note=30 velocity=95 time=0
EXTRACT: note_off channel=9 note=40 velocity=95 time=0
EXTRACT: note_off channel=9 note=56 velocity=95 time=0
EXTRACT: note_off channel=9 note=59 velocity=95 time=0
EXTRACT: note_off channel=0 note=66 velocity=111 time=0.14150925
EXTRACT: note_off channel=0 note=62 velocity=111 time=0
EXTRACT: note_off channel=0 note=57 velocity=111 time=0
EXTRACT: note_off channel=6 note=78 velocity=95 time=0
EXTRACT: note_on channel=6 note=86 velocity=95 time=0
EXTRACT: note_on channel=6 note=81 velocity=95 time=0
EXTRACT: note_off channel=14 note=38 velocity=111 time=0
EXTRACT: note_on channel=9 note=29 velocity=95 time=0
EXTRACT: note_on channel=9 note=35 velocity=95 time=0
EXTRACT: note_on channel=9 note=53 velocity=95 time=0
EXTRACT: note_off channel=2 note=62 velocity=95 time=0.14150925
EXTRACT: note_off channel=4 note=71 velocity=95 time=0
EXTRACT: note_off channel=6 note=86 velocity=95 time=0
EXTRACT: note_off channel=6 note=81 velocity=95 time=0
EXTRACT: note_off channel=9 note=29 velocity=95 time=0
EXTRACT: note_off channel=9 note=35 velocity=95 time=0
EXTRACT: note_off channel=9 note=53 velocity=95 time=0
EXTRACT: note_on channel=9 note=0 velocity=95 time=0
EXTRACT: note_on channel=9 note=30 velocity=95 time=0
EXTRACT: note_on channel=9 note=35 velocity=95 time=0
EXTRACT: note_on channel=9 note=59 velocity=95 time=0
EXTRACT: note_on channel=0 note=64 velocity=111 time=0.14150925
EXTRACT: note_on channel=0 note=61 velocity=111 time=0
EXTRACT: note_on channel=0 note=57 velocity=111 time=0
EXTRACT: note_on channel=0 note=52 velocity=111 time=0
EXTRACT: note_on channel=0 note=45 velocity=111 time=0
EXTRACT: note_on channel=2 note=61 velocity=95 time=0
EXTRACT: note_on channel=4 note=69 velocity=95 time=0
EXTRACT: note_on channel=6 note=85 velocity=95 time=0
EXTRACT: note_on channel=6 note=81 velocity=95 time=0
EXTRACT: note_on channel=14 note=33 velocity=111 time=0
EXTRACT: note_off channel=9 note=0 velocity=95 time=0
EXTRACT: note_off channel=9 note=30 velocity=95 time=0
EXTRACT: note_off channel=9 note=35 velocity=95 time=0
EXTRACT: note_off channel=9 note=59 velocity=95 time=0
EXTRACT: note_on channel=9 note=0 velocity=95 time=0
EXTRACT: note_on channel=9 note=35 velocity=95 time=0
EXTRACT: note_on channel=9 note=51 velocity=95 time=0
EXTRACT: note_on channel=9 note=56 velocity=95 time=0
EXTRACT: note_off channel=9 note=0 velocity=95 time=0.14150925
EXTRACT: note_off channel=9 note=35 velocity=95 time=0
EXTRACT: note_off channel=9 note=51 velocity=95 time=0
EXTRACT: note_off channel=9 note=56 velocity=95 time=0
EXTRACT: note_off channel=14 note=33 velocity=111 time=0.14150925
EXTRACT: note_on channel=14 note=33 velocity=111 time=0
EXTRACT: note_on channel=9 note=35 velocity=95 time=0
EXTRACT: note_on channel=9 note=51 velocity=95 time=0
EXTRACT: note_off channel=2 note=61 velocity=95 time=0.14150925
EXTRACT: note_off channel=4 note=69 velocity=95 time=0
EXTRACT: note_off channel=14 note=33 velocity=111 time=0
EXTRACT: note_on channel=14 note=33 velocity=111 time=0
EXTRACT: note_off channel=9 note=35 velocity=95 time=0
EXTRACT: note_off channel=9 note=51 velocity=95 time=0
EXTRACT: note_off channel=0 note=64 velocity=111 time=0.14150925
EXTRACT: note_off channel=0 note=61 velocity=111 time=0
EXTRACT: note_off channel=0 note=57 velocity=111 time=0
EXTRACT: note_off channel=0 note=52 velocity=111 time=0
EXTRACT: note_off channel=0 note=45 velocity=111 time=0
EXTRACT: note_on channel=0 note=64 velocity=111 time=0
EXTRACT: note_on channel=0 note=61 velocity=95 time=0
EXTRACT: note_on channel=0 note=57 velocity=95 time=0
EXTRACT: note_on channel=0 note=52 velocity=95 time=0
EXTRACT: note_on channel=0 note=45 velocity=111 time=0
EXTRACT: note_on channel=2 note=61 velocity=95 time=0
EXTRACT: note_on channel=4 note=69 velocity=95 time=0
EXTRACT: note_off channel=14 note=33 velocity=111 time=0
EXTRACT: note_on channel=14 note=33 velocity=111 time=0
EXTRACT: note_on channel=9 note=39 velocity=95 time=0
EXTRACT: note_on channel=9 note=40 velocity=95 time=0
EXTRACT: note_on channel=9 note=56 velocity=95 time=0
EXTRACT: note_on channel=9 note=59 velocity=95 time=0
EXTRACT: note_off channel=2 note=61 velocity=95 time=0.14150925
EXTRACT: note_off channel=9 note=39 velocity=95 time=0
EXTRACT: note_off channel=9 note=40 velocity=95 time=0
EXTRACT: note_off channel=9 note=56 velocity=95 time=0
EXTRACT: note_off channel=9 note=59 velocity=95 time=0
EXTRACT: note_off channel=0 note=64 velocity=111 time=0.14150925
EXTRACT: note_off channel=0 note=61 velocity=95 time=0
EXTRACT: note_off channel=0 note=57 velocity=95 time=0
EXTRACT: note_off channel=0 note=52 velocity=95 time=0
EXTRACT: note_off channel=0 note=45 velocity=111 time=0
EXTRACT: note_off channel=4 note=69 velocity=95 time=0
EXTRACT: note_on channel=9 note=35 velocity=95 time=0
EXTRACT: note_on channel=9 note=53 velocity=95 time=0
EXTRACT: note_off channel=14 note=33 velocity=111 time=0.14150925
EXTRACT: note_on channel=14 note=33 velocity=111 time=0
EXTRACT: note_off channel=9 note=35 velocity=95 time=0
EXTRACT: note_off channel=9 note=53 velocity=95 time=0
EXTRACT: note_on channel=9 note=0 velocity=95 time=0
EXTRACT: note_on channel=9 note=40 velocity=95 time=0
EXTRACT: note_on channel=9 note=59 velocity=95 time=0
EXTRACT: note_off channel=14 note=33 velocity=111 time=0.14150925
EXTRACT: note_off channel=9 note=0 velocity=95 time=0
EXTRACT: note_off channel=9 note=40 velocity=95 time=0
EXTRACT: note_off channel=9 note=59 velocity=95 time=0
EXTRACT: note_on channel=9 note=0 velocity=95 time=0
EXTRACT: note_on channel=9 note=35 velocity=95 time=0
EXTRACT: note_on channel=9 note=51 velocity=95 time=0
EXTRACT: note_on channel=9 note=56 velocity=95 time=0
EXTRACT: note_off channel=6 note=85 velocity=95 time=0.14150925
EXTRACT: note_off channel=6 note=81 velocity=95 time=0
EXTRACT: note_on channel=14 note=33 velocity=111 time=0
EXTRACT: note_off channel=9 note=0 velocity=95 time=0
EXTRACT: note_off channel=9 note=35 velocity=95 time=0
EXTRACT: note_off channel=9 note=51 velocity=95 time=0
EXTRACT: note_off channel=9 note=56 velocity=95 time=0
EXTRACT: note_on channel=9 note=0 velocity=95 time=0
EXTRACT: note_on channel=9 note=40 velocity=95 time=0
EXTRACT: note_on channel=9 note=59 velocity=95 time=0
EXTRACT: note_on channel=0 note=64 velocity=111 time=0.14150925
EXTRACT: note_on channel=0 note=61 velocity=111 time=0
EXTRACT: note_on channel=0 note=57 velocity=111 time=0
EXTRACT: note_on channel=0 note=52 velocity=111 time=0
EXTRACT: note_on channel=0 note=45 velocity=111 time=0
EXTRACT: note_on channel=2 note=61 velocity=95 time=0
EXTRACT: note_on channel=4 note=69 velocity=95 time=0
EXTRACT: note_on channel=6 note=85 velocity=95 time=0
EXTRACT: note_on channel=6 note=81 velocity=95 time=0
EXTRACT: note_on channel=6 note=76 velocity=95 time=0
EXTRACT: note_off channel=14 note=33 velocity=111 time=0
EXTRACT: note_on channel=14 note=33 velocity=111 time=0
EXTRACT: note_off channel=9 note=0 velocity=95 time=0
EXTRACT: note_off channel=9 note=40 velocity=95 time=0
EXTRACT: note_off channel=9 note=59 velocity=95 time=0
EXTRACT: note_on channel=9 note=0 velocity=95 time=0
EXTRACT: note_on channel=9 note=35 velocity=95 time=0
EXTRACT: note_on channel=9 note=51 velocity=95 time=0
EXTRACT: note_off channel=0 note=64 velocity=111 time=0.14150925
EXTRACT: note_off channel=0 note=61 velocity=111 time=0
EXTRACT: note_off channel=0 note=57 velocity=111 time=0
EXTRACT: note_off channel=0 note=52 velocity=111 time=0
EXTRACT: note_off channel=0 note=45 velocity=111 time=0
EXTRACT: note_off channel=2 note=61 velocity=95 time=0
EXTRACT: note_off channel=4 note=69 velocity=95 time=0
EXTRACT: note_off channel=6 note=85 velocity=95 time=0
EXTRACT: note_off channel=6 note=81 velocity=95 time=0
EXTRACT: note_off channel=6 note=76 velocity=95 time=0
EXTRACT: note_off channel=9 note=0 velocity=95 time=0
EXTRACT: note_off channel=9 note=35 velocity=95 time=0
EXTRACT: note_off channel=9 note=51 velocity=95 time=0
EXTRACT: note_on channel=9 note=0 velocity=95 time=0
EXTRACT: note_on channel=9 note=51 velocity=95 time=0
EXTRACT: note_on channel=0 note=64 velocity=111 time=0.14150925
EXTRACT: note_on channel=0 note=59 velocity=95 time=0
EXTRACT: note_on channel=0 note=55 velocity=95 time=0
EXTRACT: note_on channel=0 note=50 velocity=95 time=0
EXTRACT: note_off channel=14 note=33 velocity=111 time=0
EXTRACT: note_on channel=14 note=33 velocity=111 time=0
EXTRACT: note_off channel=9 note=0 velocity=95 time=0
EXTRACT: note_off channel=9 note=51 velocity=95 time=0
EXTRACT: note_on channel=9 note=0 velocity=95 time=0
EXTRACT: note_on channel=9 note=39 velocity=95 time=0
EXTRACT: note_on channel=9 note=40 velocity=95 time=0
EXTRACT: note_on channel=9 note=56 velocity=95 time=0
EXTRACT: note_on channel=9 note=59 velocity=95 time=0
EXTRACT: note_off channel=0 note=64 velocity=111 time=0.031249959375
EXTRACT: note_off channel=0 note=59 velocity=95 time=0
EXTRACT: note_off channel=0 note=55 velocity=95 time=0
EXTRACT: note_off channel=0 note=50 velocity=95 time=0
EXTRACT: note_on channel=0 note=64 velocity=111 time=0.110259290625
EXTRACT: note_on channel=0 note=61 velocity=111 time=0
EXTRACT: note_on channel=0 note=57 velocity=111 time=0
EXTRACT: note_on channel=0 note=52 velocity=111 time=0
EXTRACT: note_on channel=2 note=61 velocity=95 time=0
EXTRACT: note_on channel=4 note=69 velocity=95 time=0
EXTRACT: note_on channel=6 note=76 velocity=95 time=0
EXTRACT: note_off channel=9 note=0 velocity=95 time=0
EXTRACT: note_off channel=9 note=39 velocity=95 time=0
EXTRACT: note_off channel=9 note=40 velocity=95 time=0
EXTRACT: note_off channel=9 note=56 velocity=95 time=0
EXTRACT: note_off channel=9 note=59 velocity=95 time=0
EXTRACT: note_off channel=0 note=64 velocity=111 time=0.14150925
EXTRACT: note_off channel=0 note=61 velocity=111 time=0
EXTRACT: note_off channel=0 note=57 velocity=111 time=0
EXTRACT: note_off channel=0 note=52 velocity=111 time=0
EXTRACT: note_off channel=2 note=61 velocity=95 time=0
EXTRACT: note_on channel=2 note=61 velocity=95 time=0
EXTRACT: note_off channel=4 note=69 velocity=95 time=0
EXTRACT: note_on channel=4 note=69 velocity=95 time=0
EXTRACT: note_off channel=6 note=76 velocity=95 time=0
EXTRACT: note_on channel=6 note=85 velocity=95 time=0
EXTRACT: note_on channel=6 note=81 velocity=95 time=0
EXTRACT: note_on channel=9 note=35 velocity=95 time=0
EXTRACT: note_on channel=9 note=51 velocity=95 time=0
EXTRACT: note_off channel=2 note=61 velocity=95 time=0.14150925
EXTRACT: note_off channel=4 note=69 velocity=95 time=0
EXTRACT: note_off channel=6 note=85 velocity=95 time=0
EXTRACT: note_off channel=6 note=81 velocity=95 time=0
EXTRACT: note_off channel=9 note=35 velocity=95 time=0
EXTRACT: note_off channel=9 note=51 velocity=95 time=0
EXTRACT: note_on channel=9 note=0 velocity=95 time=0
EXTRACT: note_on channel=9 note=35 velocity=95 time=0
EXTRACT: note_on channel=9 note=59 velocity=95 time=0
EXTRACT: note_on channel=0 note=64 velocity=111 time=0.14150925
EXTRACT: note_on channel=0 note=59 velocity=111 time=0
EXTRACT: note_on channel=0 note=56 velocity=111 time=0
EXTRACT: note_on channel=0 note=52 velocity=111 time=0
EXTRACT: note_on channel=0 note=47 velocity=111 time=0
EXTRACT: note_on channel=0 note=40 velocity=111 time=0
EXTRACT: note_on channel=2 note=59 velocity=95 time=0
EXTRACT: note_on channel=4 note=68 velocity=95 time=0
EXTRACT: note_on channel=6 note=83 velocity=95 time=0
EXTRACT: note_on channel=6 note=80 velocity=95 time=0
EXTRACT: note_off channel=14 note=33 velocity=111 time=0
EXTRACT: note_on channel=14 note=40 velocity=111 time=0
EXTRACT: note_off channel=9 note=0 velocity=95 time=0
EXTRACT: note_off channel=9 note=35 velocity=95 time=0
EXTRACT: note_off channel=9 note=59 velocity=95 time=0
EXTRACT: note_on channel=9 note=0 velocity=95 time=0
EXTRACT: note_on channel=9 note=35 velocity=95 time=0
EXTRACT: note_on channel=9 note=51 velocity=95 time=0
EXTRACT: note_on channel=9 note=56 velocity=95 time=0
EXTRACT: note_off channel=9 note=0 velocity=95 time=0.14150925
EXTRACT: note_off channel=9 note=35 velocity=95 time=0
EXTRACT: note_off channel=9 note=51 velocity=95 time=0
EXTRACT: note_off channel=9 note=56 velocity=95 time=0
EXTRACT: note_off channel=14 note=40 velocity=111 time=0.14150925
EXTRACT: note_on channel=14 note=44 velocity=111 time=0
EXTRACT: note_on channel=9 note=35 velocity=95 time=0
EXTRACT: note_on channel=9 note=51 velocity=95 time=0
EXTRACT: note_off channel=2 note=59 velocity=95 time=0.14150925
EXTRACT: note_on channel=2 note=57 velocity=95 time=0
EXTRACT: note_off channel=4 note=68 velocity=95 time=0
EXTRACT: note_on channel=4 note=66 velocity=95 time=0
EXTRACT: note_off channel=9 note=35 velocity=95 time=0
EXTRACT: note_off channel=9 note=51 velocity=95 time=0
EXTRACT: note_off channel=0 note=64 velocity=111 time=0.14150925
EXTRACT: note_off channel=0 note=59 velocity=111 time=0
EXTRACT: note_off channel=0 note=56 velocity=111 time=0
EXTRACT: note_off channel=0 note=52 velocity=111 time=0
EXTRACT: note_off channel=0 note=47 velocity=111 time=0
EXTRACT: note_off channel=0 note=40 velocity=111 time=0
EXTRACT: note_on channel=0 note=64 velocity=111 time=0
EXTRACT: note_on channel=0 note=59 velocity=95 time=0
EXTRACT: note_on channel=0 note=56 velocity=95 time=0
EXTRACT: note_on channel=0 note=52 velocity=95 time=0
EXTRACT: note_on channel=0 note=47 velocity=111 time=0
EXTRACT: note_on channel=0 note=40 velocity=111 time=0
EXTRACT: note_off channel=2 note=57 velocity=95 time=0
EXTRACT: note_on channel=2 note=56 velocity=95 time=0
EXTRACT: note_off channel=4 note=66 velocity=95 time=0
EXTRACT: note_on channel=4 note=64 velocity=95 time=0
EXTRACT: note_off channel=14 note=44 velocity=111 time=0
EXTRACT: note_on channel=14 note=45 velocity=111 time=0
EXTRACT: note_on channel=9 note=39 velocity=95 time=0
EXTRACT: note_on channel=9 note=40 velocity=95 time=0
EXTRACT: note_on channel=9 note=56 velocity=95 time=0
EXTRACT: note_on channel=9 note=59 velocity=95 time=0
EXTRACT: note_off channel=9 note=39 velocity=95 time=0.14150925
EXTRACT: note_off channel=9 note=40 velocity=95 time=0
EXTRACT: note_off channel=9 note=56 velocity=95 time=0
EXTRACT: note_off channel=9 note=59 velocity=95 time=0
EXTRACT: note_off channel=0 note=64 velocity=111 time=0.14150925
EXTRACT: note_off channel=0 note=59 velocity=95 time=0
EXTRACT: note_off channel=0 note=56 velocity=95 time=0
EXTRACT: note_off channel=0 note=52 velocity=95 time=0
EXTRACT: note_off channel=0 note=47 velocity=111 time=0
EXTRACT: note_off channel=0 note=40 velocity=111 time=0
EXTRACT: note_off channel=2 note=56 velocity=95 time=0
EXTRACT: note_off channel=4 note=64 velocity=95 time=0
EXTRACT: note_off channel=14 note=45 velocity=111 time=0
EXTRACT: note_on channel=14 note=45 velocity=111 time=0
EXTRACT: note_on channel=9 note=35 velocity=95 time=0
EXTRACT: note_on channel=9 note=53 velocity=95 time=0
EXTRACT: note_off channel=14 note=45 velocity=111 time=0.14150925
EXTRACT: note_on channel=14 note=52 velocity=111 time=0
EXTRACT: note_off channel=9 note=35 velocity=95 time=0
EXTRACT: note_off channel=9 note=53 velocity=95 time=0
EXTRACT: note_on channel=9 note=0 velocity=95 time=0
EXTRACT: note_on channel=9 note=29 velocity=95 time=0
EXTRACT: note_on channel=9 note=40 velocity=95 time=0
EXTRACT: note_on channel=9 note=59 velocity=95 time=0
EXTRACT: note_on channel=4 note=64 velocity=95 time=0.14150925
EXTRACT: note_off channel=9 note=0 velocity=95 time=0
EXTRACT: note_off channel=9 note=29 velocity=95 time=0
EXTRACT: note_off channel=9 note=40 velocity=95 time=0
EXTRACT: note_off channel=9 note=59 velocity=95 time=0
EXTRACT: note_on channel=9 note=0 velocity=95 time=0
EXTRACT: note_on channel=9 note=30 velocity=95 time=0
EXTRACT: note_on channel=9 note=40 velocity=95 time=0
EXTRACT: note_on channel=9 note=56 velocity=95 time=0
EXTRACT: note_off channel=14 note=52 velocity=111 time=0.14150925
EXTRACT: note_on channel=14 note=52 velocity=111 time=0
EXTRACT: note_off channel=9 note=0 velocity=95 time=0
EXTRACT: note_off channel=9 note=30 velocity=95 time=0
EXTRACT: note_off channel=9 note=40 velocity=95 time=0
EXTRACT: note_off channel=9 note=56 velocity=95 time=0
EXTRACT: note_on channel=9 note=0 velocity=95 time=0
EXTRACT: note_on channel=9 note=29 velocity=95 time=0
EXTRACT: note_on channel=9 note=40 velocity=95 time=0
EXTRACT: note_on channel=0 note=64 velocity=111 time=0.14150925
EXTRACT: note_on channel=0 note=59 velocity=111 time=0
EXTRACT: note_on channel=0 note=56 velocity=111 time=0
EXTRACT: note_on channel=0 note=52 velocity=111 time=0
EXTRACT: note_on channel=0 note=47 velocity=111 time=0
EXTRACT: note_on channel=0 note=40 velocity=111 time=0
EXTRACT: note_off channel=4 note=64 velocity=95 time=0
EXTRACT: note_on channel=4 note=66 velocity=95 time=0
EXTRACT: note_off channel=14 note=52 velocity=111 time=0
EXTRACT: note_on channel=14 note=50 velocity=111 time=0
EXTRACT: note_off channel=9 note=0 velocity=95 time=0
EXTRACT: note_off channel=9 note=29 velocity=95 time=0
EXTRACT: note_off channel=9 note=40 velocity=95 time=0
EXTRACT: note_on channel=9 note=0 velocity=95 time=0
EXTRACT: note_on channel=9 note=30 velocity=95 time=0
EXTRACT: note_on channel=9 note=40 velocity=95 time=0
EXTRACT: note_off channel=0 note=64 velocity=111 time=0.14150925
EXTRACT: note_off channel=0 note=59 velocity=111 time=0
EXTRACT: note_off channel=0 note=56 velocity=111 time=0
EXTRACT: note_off channel=0 note=52 velocity=111 time=0
EXTRACT: note_off channel=0 note=47 velocity=111 time=0
EXTRACT: note_off channel=0 note=40 velocity=111 time=0
EXTRACT: note_off channel=4 note=66 velocity=95 time=0
EXTRACT: note_off channel=9 note=0 velocity=95 time=0
EXTRACT: note_off channel=9 note=30 velocity=95 time=0
EXTRACT: note_off channel=9 note=40 velocity=95 time=0
EXTRACT: note_on channel=9 note=0 velocity=95 time=0
EXTRACT: note_on channel=9 note=30 velocity=95 time=0
EXTRACT: note_on channel=9 note=40 velocity=95 time=0
EXTRACT: note_on channel=0 note=64 velocity=111 time=0.14150925
EXTRACT: note_on channel=0 note=59 velocity=95 time=0
EXTRACT: note_on channel=0 note=55 velocity=95 time=0
EXTRACT: note_on channel=0 note=50 velocity=95 time=0
EXTRACT: note_on channel=4 note=71 velocity=95 time=0
EXTRACT: note_off channel=14 note=50 velocity=111 time=0
EXTRACT: note_on channel=14 note=52 velocity=111 time=0
EXTRACT: note_off channel=9 note=0 velocity=95 time=0
EXTRACT: note_off channel=9 note=30 velocity=95 time=0
EXTRACT: note_off channel=9 note=40 velocity=95 time=0
EXTRACT: note_on channel=9 note=0 velocity=95 time=0
EXTRACT: note_on channel=9 note=39 velocity=95 time=0
EXTRACT: note_on channel=9 note=30 velocity=95 time=0
EXTRACT: note_on channel=9 note=40 velocity=95 time=0
EXTRACT: note_on channel=9 note=56 velocity=95 time=0
EXTRACT: note_on channel=9 note=57 velocity=95 time=0
EXTRACT: note_off channel=0 note=64 velocity=111 time=0.031249959375
EXTRACT: note_off channel=0 note=59 velocity=95 time=0
EXTRACT: note_off channel=0 note=55 velocity=95 time=0
EXTRACT: note_off channel=0 note=50 velocity=95 time=0
EXTRACT: note_on channel=0 note=64 velocity=111 time=0.110259290625
EXTRACT: note_on channel=0 note=59 velocity=111 time=0
EXTRACT: note_on channel=0 note=56 velocity=111 time=0
EXTRACT: note_on channel=0 note=52 velocity=111 time=0
EXTRACT: note_off channel=4 note=71 velocity=95 time=0
EXTRACT: note_off channel=9 note=0 velocity=95 time=0
EXTRACT: note_off channel=9 note=39 velocity=95 time=0
EXTRACT: note_off channel=9 note=30 velocity=95 time=0
EXTRACT: note_off channel=9 note=40 velocity=95 time=0
EXTRACT: note_off channel=9 note=56 velocity=95 time=0
EXTRACT: note_off channel=9 note=57 velocity=95 time=0
EXTRACT: note_on channel=9 note=0 velocity=95 time=0
EXTRACT: note_on channel=9 note=40 velocity=95 time=0
EXTRACT: note_off channel=0 note=64 velocity=111 time=0.14150925
EXTRACT: note_off channel=0 note=59 velocity=111 time=0
EXTRACT: note_off channel=0 note=56 velocity=111 time=0
EXTRACT: note_off channel=0 note=52 velocity=111 time=0
EXTRACT: note_on channel=4 note=69 velocity=95 time=0
EXTRACT: note_off channel=6 note=83 velocity=95 time=0
EXTRACT: note_off channel=6 note=80 velocity=95 time=0
EXTRACT: note_off channel=9 note=0 velocity=95 time=0
EXTRACT: note_off channel=9 note=40 velocity=95 time=0
EXTRACT: note_on channel=9 note=0 velocity=95 time=0
EXTRACT: note_on channel=9 note=29 velocity=95 time=0
EXTRACT: note_on channel=9 note=40 velocity=95 time=0
EXTRACT: note_off channel=9 note=0 velocity=95 time=0.14150925
EXTRACT: note_off channel=9 note=29 velocity=95 time=0
EXTRACT: note_off channel=9 note=40 velocity=95 time=0
EXTRACT: note_on channel=9 note=0 velocity=95 time=0
EXTRACT: note_on channel=9 note=30 velocity=95 time=0
EXTRACT: note_on channel=9 note=40 velocity=95 time=0
EXTRACT: note_on channel=0 note=61 velocity=111 time=0.14150925
EXTRACT: note_on channel=0 note=57 velocity=95 time=0
EXTRACT: note_on channel=0 note=52 velocity=111 time=0
EXTRACT: note_on channel=0 note=45 velocity=111 time=0
EXTRACT: note_on channel=6 note=85 velocity=95 time=0
EXTRACT: note_on channel=6 note=81 velocity=95 time=0
EXTRACT: note_off channel=14 note=52 velocity=111 time=0
EXTRACT: note_on channel=14 note=33 velocity=111 time=0
EXTRACT: note_off channel=9 note=0 velocity=95 time=0
EXTRACT: note_off channel=9 note=30 velocity=95 time=0
EXTRACT: note_off channel=9 note=40 velocity=95 time=0
EXTRACT: note_on channel=9 note=0 velocity=95 time=0
EXTRACT: note_on channel=9 note=35 velocity=95 time=0
EXTRACT: note_on channel=9 note=51 velocity=95 time=0
EXTRACT: note_on channel=9 note=56 velocity=95 time=0
EXTRACT: note_off channel=9 note=0 velocity=95 time=0.14150925
EXTRACT: note_off channel=9 note=35 velocity=95 time=0
EXTRACT: note_off channel=9 note=51 velocity=95 time=0
EXTRACT: note_off channel=9 note=56 velocity=95 time=0
EXTRACT: note_off channel=4 note=69 velocity=95 time=0.14150925
EXTRACT: note_on channel=9 note=35 velocity=95 time=0
EXTRACT: note_on channel=9 note=51 velocity=95 time=0
EXTRACT: note_off channel=6 note=85 velocity=95 time=0.14150925
EXTRACT: note_off channel=6 note=81 velocity=95 time=0
EXTRACT: note_off channel=9 note=35 velocity=95 time=0
EXTRACT: note_off channel=9 note=51 velocity=95 time=0
EXTRACT: note_off channel=0 note=61 velocity=111 time=0.14150925
EXTRACT: note_off channel=0 note=57 velocity=95 time=0
EXTRACT: note_off channel=0 note=52 velocity=111 time=0
EXTRACT: note_off channel=0 note=45 velocity=111 time=0
EXTRACT: note_on channel=0 note=61 velocity=111 time=0
EXTRACT: note_on channel=0 note=57 velocity=111 time=0
EXTRACT: note_on channel=0 note=52 velocity=111 time=0
EXTRACT: note_on channel=0 note=45 velocity=111 time=0
EXTRACT: note_on channel=2 note=64 velocity=95 time=0
EXTRACT: note_on channel=4 note=73 velocity=95 time=0
EXTRACT: note_on channel=6 note=85 velocity=95 time=0
EXTRACT: note_on channel=6 note=81 velocity=95 time=0
EXTRACT: note_on channel=9 note=39 velocity=95 time=0
EXTRACT: note_on channel=9 note=40 velocity=95 time=0
EXTRACT: note_on channel=9 note=56 velocity=95 time=0
EXTRACT: note_on channel=9 note=59 velocity=95 time=0
EXTRACT: note_off channel=9 note=39 velocity=95 time=0.14150925
EXTRACT: note_off channel=9 note=40 velocity=95 time=0
EXTRACT: note_off channel=9 note=56 velocity=95 time=0
EXTRACT: note_off channel=9 note=59 velocity=95 time=0
EXTRACT: note_off channel=0 note=61 velocity=111 time=0.14150925
EXTRACT: note_off channel=0 note=57 velocity=111 time=0
EXTRACT: note_off channel=0 note=52 velocity=111 time=0
EXTRACT: note_off channel=0 note=45 velocity=111 time=0
EXTRACT: note_on channel=0 note=59 velocity=95 time=0
EXTRACT: note_on channel=0 note=55 velocity=111 time=0
EXTRACT: note_on channel=0 note=50 velocity=111 time=0
EXTRACT: note_on channel=0 note=45 velocity=111 time=0
EXTRACT: note_off channel=2 note=64 velocity=95 time=0
EXTRACT: note_on channel=2 note=61 velocity=95 time=0
EXTRACT: note_off channel=4 note=73 velocity=95 time=0
EXTRACT: note_on channel=4 note=69 velocity=95 time=0
EXTRACT: note_off channel=6 note=85 velocity=95 time=0
EXTRACT: note_off channel=6 note=81 velocity=95 time=0
EXTRACT: note_on channel=9 note=35 velocity=95 time=0
EXTRACT: note_on channel=9 note=53 velocity=95 time=0
EXTRACT: note_off channel=0 note=59 velocity=95 time=0.031249959375
EXTRACT: note_off channel=0 note=55 velocity=111 time=0
EXTRACT: note_off channel=0 note=50 velocity=111 time=0
EXTRACT: note_off channel=0 note=45 velocity=111 time=0
EXTRACT: note_on channel=0 note=64 velocity=111 time=0.110259290625
EXTRACT: note_on channel=0 note=59 velocity=111 time=0
EXTRACT: note_on channel=0 note=56 velocity=95 time=0
EXTRACT: note_on channel=0 note=52 velocity=111 time=0
EXTRACT: note_off channel=2 note=61 velocity=95 time=0
EXTRACT: note_on channel=2 note=62 velocity=95 time=0
EXTRACT: note_off channel=4 note=69 velocity=95 time=0
EXTRACT: note_on channel=4 note=71 velocity=95 time=0
EXTRACT: note_off channel=9 note=35 velocity=95 time=0
EXTRACT: note_off channel=9 note=53 velocity=95 time=0
EXTRACT: note_on channel=9 note=0 velocity=95 time=0
EXTRACT: note_on channel=9 note=29 velocity=95 time=0
EXTRACT: note_on channel=9 note=40 velocity=95 time=0
EXTRACT: note_on channel=9 note=59 velocity=95 time=0
EXTRACT: note_off channel=0 note=64 velocity=111 time=0.14150925
EXTRACT: note_off channel=0 note=59 velocity=111 time=0
EXTRACT: note_off channel=0 note=56 velocity=95 time=0
EXTRACT: note_off channel=0 note=52 velocity=111 time=0
EXTRACT: note_off channel=14 note=33 velocity=111 time=0
EXTRACT: note_on channel=14 note=40 velocity=111 time=0
EXTRACT: note_off channel=9 note=0 velocity=95 time=0
EXTRACT: note_off channel=9 note=29 velocity=95 time=0
EXTRACT: note_off channel=9 note=40 velocity=95 time=0
EXTRACT: note_off channel=9 note=59 velocity=95 time=0
EXTRACT: note_on channel=9 note=0 velocity=95 time=0
EXTRACT: note_on channel=9 note=30 velocity=95 time=0
EXTRACT: note_on channel=9 note=35 velocity=95 time=0
EXTRACT: note_on channel=9 note=51 velocity=95 time=0
EXTRACT: note_on channel=9 note=56 velocity=95 time=0
EXTRACT: note_on channel=0 note=64 velocity=95 time=0.14150925
EXTRACT: note_on channel=0 note=59 velocity=111 time=0
EXTRACT: note_on channel=0 note=56 velocity=111 time=0
EXTRACT: note_on channel=0 note=52 velocity=111 time=0
EXTRACT: note_off channel=2 note=62 velocity=95 time=0
EXTRACT: note_on channel=2 note=64 velocity=95 time=0
EXTRACT: note_off channel=4 note=71 velocity=95 time=0
EXTRACT: note_on channel=4 note=73 velocity=95 time=0
EXTRACT: note_off channel=9 note=0 velocity=95 time=0
EXTRACT: note_off channel=9 note=30 velocity=95 time=0
EXTRACT: note_off channel=9 note=35 velocity=95 time=0
EXTRACT: note_off channel=9 note=51 velocity=95 time=0
EXTRACT: note_off channel=9 note=56 velocity=95 time=0
EXTRACT: note_on channel=9 note=0 velocity=95 time=0
EXTRACT: note_on channel=9 note=29 velocity=95 time=0
EXTRACT: note_on channel=9 note=40 velocity=95 time=0
EXTRACT: note_on channel=9 note=59 velocity=95 time=0
EXTRACT: note_off channel=0 note=64 velocity=95 time=0.14150925
EXTRACT: note_off channel=0 note=59 velocity=111 time=0
EXTRACT: note_off channel=0 note=56 velocity=111 time=0
EXTRACT: note_off channel=0 note=52 velocity=111 time=0
EXTRACT: note_on channel=0 note=64 velocity=111 time=0
EXTRACT: note_on channel=0 note=59 velocity=95 time=0
EXTRACT: note_on channel=0 note=56 velocity=111 time=0
EXTRACT: note_on channel=0 note=52 velocity=111 time=0
EXTRACT: note_on channel=0 note=47 velocity=111 time=0
EXTRACT: note_off channel=9 note=0 velocity=95 time=0
EXTRACT: note_off channel=9 note=29 velocity=95 time=0
EXTRACT: note_off channel=9 note=40 velocity=95 time=0
EXTRACT: note_off channel=9 note=59 velocity=95 time=0
EXTRACT: note_on channel=9 note=0 velocity=95 time=0
EXTRACT: note_on channel=9 note=30 velocity=95 time=0
EXTRACT: note_on channel=9 note=35 velocity=95 time=0
EXTRACT: note_on channel=9 note=51 velocity=95 time=0
EXTRACT: note_off channel=9 note=0 velocity=95 time=0.14150925
EXTRACT: note_off channel=9 note=30 velocity=95 time=0
EXTRACT: note_off channel=9 note=35 velocity=95 time=0
EXTRACT: note_off channel=9 note=51 velocity=95 time=0
EXTRACT: note_on channel=9 note=0 velocity=95 time=0
EXTRACT: note_on channel=9 note=30 velocity=95 time=0
EXTRACT: note_on channel=9 note=35 velocity=95 time=0
EXTRACT: note_on channel=9 note=51 velocity=95 time=0
EXTRACT: note_off channel=0 note=64 velocity=111 time=0.14150925
EXTRACT: note_off channel=0 note=59 velocity=95 time=0
EXTRACT: note_off channel=0 note=56 velocity=111 time=0
EXTRACT: note_off channel=0 note=52 velocity=111 time=0
EXTRACT: note_off channel=0 note=47 velocity=111 time=0
EXTRACT: note_on channel=0 note=64 velocity=111 time=0
EXTRACT: note_on channel=0 note=59 velocity=111 time=0
EXTRACT: note_on channel=0 note=56 velocity=95 time=0
EXTRACT: note_on channel=0 note=52 velocity=111 time=0
EXTRACT: note_on channel=0 note=47 velocity=111 time=0
EXTRACT: note_off channel=4 note=73 velocity=95 time=0
EXTRACT: note_off channel=9 note=0 velocity=95 time=0
EXTRACT: note_off channel=9 note=30 velocity=95 time=0
EXTRACT: note_off channel=9 note=35 velocity=95 time=0
EXTRACT: note_off channel=9 note=51 velocity=95 time=0
EXTRACT: note_on channel=9 note=0 velocity=95 time=0
EXTRACT: note_on channel=9 note=39 velocity=95 time=0
EXTRACT: note_on channel=9 note=30 velocity=95 time=0
EXTRACT: note_on channel=9 note=40 velocity=95 time=0
EXTRACT: note_on channel=9 note=56 velocity=95 time=0
EXTRACT: note_on channel=9 note=59 velocity=95 time=0
EXTRACT: note_off channel=2 note=64 velocity=95 time=0.14150925
EXTRACT: note_off channel=9 note=0 velocity=95 time=0
EXTRACT: note_off channel=9 note=39 velocity=95 time=0
EXTRACT: note_off channel=9 note=30 velocity=95 time=0
EXTRACT: note_off channel=9 note=40 velocity=95 time=0
EXTRACT: note_off channel=9 note=56 velocity=95 time=0
EXTRACT: note_off channel=9 note=59 velocity=95 time=0
EXTRACT: note_off channel=0 note=64 velocity=111 time=0.14150925
EXTRACT: note_off channel=0 note=59 velocity=111 time=0
EXTRACT: note_off channel=0 note=56 velocity=95 time=0
EXTRACT: note_off channel=0 note=52 velocity=111 time=0
EXTRACT: note_off channel=0 note=47 velocity=111 time=0
EXTRACT: note_on channel=0 note=55 velocity=95 time=0
EXTRACT: note_on channel=0 note=50 velocity=111 time=0
EXTRACT: note_on channel=0 note=45 velocity=111 time=0
EXTRACT: note_on channel=2 note=57 velocity=95 time=0
EXTRACT: note_on channel=9 note=29 velocity=95 time=0
EXTRACT: note_on channel=9 note=35 velocity=95 time=0
EXTRACT: note_on channel=9 note=53 velocity=95 time=0
EXTRACT: note_off channel=0 note=55 velocity=95 time=0.14150925
EXTRACT: note_off channel=0 note=50 velocity=111 time=0
EXTRACT: note_off channel=0 note=45 velocity=111 time=0
EXTRACT: note_on channel=0 note=55 velocity=111 time=0
EXTRACT: note_on channel=0 note=50 velocity=111 time=0
EXTRACT: note_on channel=0 note=45 velocity=111 time=0
EXTRACT: note_off channel=2 note=57 velocity=95 time=0
EXTRACT: note_on channel=2 note=57 velocity=95 time=0
EXTRACT: note_off channel=9 note=29 velocity=95 time=0
EXTRACT: note_off channel=9 note=35 velocity=95 time=0
EXTRACT: note_off channel=9 note=53 velocity=95 time=0
EXTRACT: note_on channel=9 note=0 velocity=95 time=0
EXTRACT: note_on channel=9 note=30 velocity=95 time=0
EXTRACT: note_on channel=9 note=35 velocity=95 time=0
EXTRACT: note_on channel=9 note=59 velocity=95 time=0
EXTRACT: note_off channel=0 note=55 velocity=111 time=0.14150925
EXTRACT: note_off channel=0 note=50 velocity=111 time=0
EXTRACT: note_off channel=0 note=45 velocity=111 time=0
EXTRACT: note_on channel=0 note=66 velocity=111 time=0
EXTRACT: note_on channel=0 note=62 velocity=111 time=0
EXTRACT: note_on channel=0 note=57 velocity=111 time=0
EXTRACT: note_on channel=0 note=50 velocity=111 time=0
EXTRACT: note_off channel=2 note=57 velocity=95 time=0
EXTRACT: note_on channel=2 note=61 velocity=95 time=0
EXTRACT: note_on channel=6 note=86 velocity=111 time=0
EXTRACT: note_on channel=6 note=81 velocity=111 time=0
EXTRACT: note_off channel=14 note=40 velocity=111 time=0
EXTRACT: note_on channel=14 note=38 velocity=111 time=0
EXTRACT: note_off channel=9 note=0 velocity=95 time=0
EXTRACT: note_off channel=9 note=30 velocity=95 time=0
EXTRACT: note_off channel=9 note=35 velocity=95 time=0
EXTRACT: note_off channel=9 note=59 velocity=95 time=0
EXTRACT: note_on channel=9 note=0 velocity=95 time=0
EXTRACT: note_on channel=9 note=35 velocity=95 time=0
EXTRACT: note_on channel=9 note=51 velocity=95 time=0
EXTRACT: note_on channel=9 note=56 velocity=95 time=0
EXTRACT: note_off channel=9 note=0 velocity=95 time=0.14150925
EXTRACT: note_off channel=9 note=35 velocity=95 time=0
EXTRACT: note_off channel=9 note=51 velocity=95 time=0
EXTRACT: note_off channel=9 note=56 velocity=95 time=0
EXTRACT: note_off channel=2 note=61 velocity=95 time=0.14150925
EXTRACT: note_on channel=2 note=64 velocity=95 time=0
EXTRACT: note_on channel=9 note=35 velocity=95 time=0
EXTRACT: note_on channel=9 note=51 velocity=95 time=0
EXTRACT: note_off channel=2 note=64 velocity=95 time=0.14150925
EXTRACT: note_off channel=6 note=86 velocity=111 time=0
EXTRACT: note_off channel=6 note=81 velocity=111 time=0
EXTRACT: note_off channel=9 note=35 velocity=95 time=0
EXTRACT: note_off channel=9 note=51 velocity=95 time=0
EXTRACT: note_off channel=0 note=66 velocity=111 time=0.14150925
EXTRACT: note_off channel=0 note=62 velocity=111 time=0
EXTRACT: note_off channel=0 note=57 velocity=111 time=0
EXTRACT: note_off channel=0 note=50 velocity=111 time=0
EXTRACT: note_on channel=0 note=66 velocity=95 time=0
EXTRACT: note_on channel=0 note=62 velocity=111 time=0
EXTRACT: note_on channel=0 note=57 velocity=111 time=0
EXTRACT: note_on channel=0 note=50 velocity=111 time=0
EXTRACT: note_on channel=2 note=64 velocity=95 time=0
EXTRACT: note_on channel=4 note=73 velocity=95 time=0
EXTRACT: note_on channel=6 note=86 velocity=111 time=0
EXTRACT: note_on channel=6 note=81 velocity=111 time=0
EXTRACT: note_on channel=9 note=39 velocity=95 time=0
EXTRACT: note_on channel=9 note=40 velocity=95 time=0
EXTRACT: note_on channel=9 note=56 velocity=95 time=0
EXTRACT: note_on channel=9 note=59 velocity=95 time=0
EXTRACT: note_off channel=9 note=39 velocity=95 time=0.14150925
EXTRACT: note_off channel=9 note=40 velocity=95 time=0
EXTRACT: note_off channel=9 note=56 velocity=95 time=0
EXTRACT: note_off channel=9 note=59 velocity=95 time=0
EXTRACT: note_off channel=0 note=66 velocity=95 time=0.14150925
EXTRACT: note_off channel=0 note=62 velocity=111 time=0
EXTRACT: note_off channel=0 note=57 velocity=111 time=0
EXTRACT: note_off channel=0 note=50 velocity=111 time=0
EXTRACT: note_on channel=0 note=64 velocity=111 time=0
EXTRACT: note_on channel=0 note=59 velocity=95 time=0
EXTRACT: note_on channel=0 note=55 velocity=111 time=0
EXTRACT: note_on channel=0 note=50 velocity=111 time=0
EXTRACT: note_off channel=2 note=64 velocity=95 time=0
EXTRACT: note_on channel=2 note=61 velocity=95 time=0
EXTRACT: note_off channel=4 note=73 velocity=95 time=0
EXTRACT: note_on channel=4 note=69 velocity=95 time=0
EXTRACT: note_off channel=6 note=86 velocity=111 time=0
EXTRACT: note_off channel=6 note=81 velocity=111 time=0
EXTRACT: note_on channel=9 note=35 velocity=95 time=0
EXTRACT: note_on channel=9 note=53 velocity=95 time=0
EXTRACT: note_off channel=0 note=64 velocity=111 time=0.031249959375
EXTRACT: note_off channel=0 note=59 velocity=95 time=0
EXTRACT: note_off channel=0 note=55 velocity=111 time=0
EXTRACT: note_off channel=0 note=50 velocity=111 time=0
EXTRACT: note_on channel=0 note=64 velocity=111 time=0.110259290625
EXTRACT: note_on channel=0 note=59 velocity=111 time=0
EXTRACT: note_on channel=0 note=56 velocity=95 time=0
EXTRACT: note_on channel=0 note=52 velocity=111 time=0
EXTRACT: note_off channel=2 note=61 velocity=95 time=0
EXTRACT: note_on channel=2 note=64 velocity=95 time=0
EXTRACT: note_off channel=4 note=69 velocity=95 time=0
EXTRACT: note_on channel=4 note=71 velocity=95 time=0
EXTRACT: note_off channel=9 note=35 velocity=95 time=0
EXTRACT: note_off channel=9 note=53 velocity=95 time=0
EXTRACT: note_on channel=9 note=0 velocity=95 time=0
EXTRACT: note_on channel=9 note=29 velocity=95 time=0
EXTRACT: note_on channel=9 note=40 velocity=95 time=0
EXTRACT: note_on channel=9 note=59 velocity=95 time=0
EXTRACT: note_off channel=0 note=64 velocity=111 time=0.14150925
EXTRACT: note_off channel=0 note=59 velocity=111 time=0
EXTRACT: note_off channel=0 note=56 velocity=95 time=0
EXTRACT: note_off channel=0 note=52 velocity=111 time=0
EXTRACT: note_off channel=14 note=38 velocity=111 time=0
EXTRACT: note_on channel=14 note=40 velocity=111 time=0
EXTRACT: note_off channel=9 note=0 velocity=95 time=0
EXTRACT: note_off channel=9 note=29 velocity=95 time=0
EXTRACT: note_off channel=9 note=40 velocity=95 time=0
EXTRACT: note_off channel=9 note=59 velocity=95 time=0
EXTRACT: note_on channel=9 note=0 velocity=95 time=0
EXTRACT: note_on channel=9 note=30 velocity=95 time=0
EXTRACT: note_on channel=9 note=35 velocity=95 time=0
EXTRACT: note_on channel=9 note=51 velocity=95 time=0
EXTRACT: note_on channel=9 note=56 velocity=95 time=0
EXTRACT: note_on channel=0 note=64 velocity=95 time=0.14150925
EXTRACT: note_on channel=0 note=59 velocity=111 time=0
EXTRACT: note_on channel=0 note=56 velocity=111 time=0
EXTRACT: note_on channel=0 note=52 velocity=111 time=0
EXTRACT: note_off channel=9 note=0 velocity=95 time=0
EXTRACT: note_off channel=9 note=30 velocity=95 time=0
EXTRACT: note_off channel=9 note=35 velocity=95 time=0
EXTRACT: note_off channel=9 note=51 velocity=95 time=0
EXTRACT: note_off channel=9 note=56 velocity=95 time=0
EXTRACT: note_on channel=9 note=0 velocity=95 time=0
EXTRACT: note_on channel=9 note=29 velocity=95 time=0
EXTRACT: note_on channel=9 note=40 velocity=95 time=0
EXTRACT: note_on channel=9 note=59 velocity=95 time=0
EXTRACT: note_off channel=0 note=64 velocity=95 time=0.14150925
EXTRACT: note_off channel=0 note=59 velocity=111 time=0
EXTRACT: note_off channel=0 note=56 velocity=111 time=0
EXTRACT: note_off channel=0 note=52 velocity=111 time=0
EXTRACT: note_on channel=0 note=64 velocity=111 time=0
EXTRACT: note_on channel=0 note=59 velocity=95 time=0
EXTRACT: note_on channel=0 note=56 velocity=111 time=0
EXTRACT: note_on channel=0 note=52 velocity=111 time=0
EXTRACT: note_on channel=0 note=47 velocity=111 time=0
EXTRACT: note_off channel=2 note=64 velocity=95 time=0
EXTRACT: note_on channel=2 note=59 velocity=95 time=0
EXTRACT: note_off channel=4 note=71 velocity=95 time=0
EXTRACT: note_on channel=4 note=71 velocity=95 time=0
EXTRACT: note_off channel=9 note=0 velocity=95 time=0
EXTRACT: note_off channel=9 note=29 velocity=95 time=0
EXTRACT: note_off channel=9 note=40 velocity=95 time=0
EXTRACT: note_off channel=9 note=59 velocity=95 time=0
EXTRACT: note_on channel=9 note=0 velocity=95 time=0
EXTRACT: note_on channel=9 note=30 velocity=95 time=0
EXTRACT: note_on channel=9 note=35 velocity=95 time=0
EXTRACT: note_on channel=9 note=51 velocity=95 time=0
EXTRACT: note_off channel=2 note=59 velocity=95 time=0.14150925
EXTRACT: note_on channel=2 note=61 velocity=95 time=0
EXTRACT: note_off channel=4 note=71 velocity=95 time=0
EXTRACT: note_on channel=4 note=69 velocity=95 time=0
EXTRACT: note_off channel=9 note=0 velocity=95 time=0
EXTRACT: note_off channel=9 note=30 velocity=95 time=0
EXTRACT: note_off channel=9 note=35 velocity=95 time=0
EXTRACT: note_off channel=9 note=51 velocity=95 time=0
EXTRACT: note_on channel=9 note=0 velocity=95 time=0
EXTRACT: note_on channel=9 note=30 velocity=95 time=0
EXTRACT: note_on channel=9 note=35 velocity=95 time=0
EXTRACT: note_on channel=9 note=51 velocity=95 time=0
EXTRACT: note_off channel=0 note=64 velocity=111 time=0.14150925
EXTRACT: note_off channel=0 note=59 velocity=95 time=0
EXTRACT: note_off channel=0 note=56 velocity=111 time=0
EXTRACT: note_off channel=0 note=52 velocity=111 time=0
EXTRACT: note_off channel=0 note=47 velocity=111 time=0
EXTRACT: note_on channel=0 note=64 velocity=111 time=0
EXTRACT: note_on channel=0 note=59 velocity=111 time=0
EXTRACT: note_on channel=0 note=56 velocity=95 time=0
EXTRACT: note_on channel=0 note=52 velocity=111 time=0
EXTRACT: note_on channel=0 note=47 velocity=111 time=0
EXTRACT: note_off channel=4 note=69 velocity=95 time=0
EXTRACT: note_on channel=4 note=73 velocity=95 time=0
EXTRACT: note_off channel=9 note=0 velocity=95 time=0
EXTRACT: note_off channel=9 note=30 velocity=95 time=0
EXTRACT: note_off channel=9 note=35 velocity=95 time=0
EXTRACT: note_off channel=9 note=51 velocity=95 time=0
EXTRACT: note_on channel=9 note=0 velocity=95 time=0
EXTRACT: note_on channel=9 note=39 velocity=95 time=0
EXTRACT: note_on channel=9 note=30 velocity=95 time=0
EXTRACT: note_on channel=9 note=40 velocity=95 time=0
EXTRACT: note_on channel=9 note=56 velocity=95 time=0
EXTRACT: note_on channel=9 note=59 velocity=95 time=0
EXTRACT: note_off channel=2 note=61 velocity=95 time=0.14150925
EXTRACT: note_off channel=4 note=73 velocity=95 time=0
EXTRACT: note_off channel=9 note=0 velocity=95 time=0
EXTRACT: note_off channel=9 note=39 velocity=95 time=0
EXTRACT: note_off channel=9 note=30 velocity=95 time=0
EXTRACT: note_off channel=9 note=40 velocity=95 time=0
EXTRACT: note_off channel=9 note=56 velocity=95 time=0
EXTRACT: note_off channel=9 note=59 velocity=95 time=0
EXTRACT: note_off channel=0 note=64 velocity=111 time=0.14150925
EXTRACT: note_off channel=0 note=59 velocity=111 time=0
EXTRACT: note_off channel=0 note=56 velocity=95 time=0
EXTRACT: note_off channel=0 note=52 velocity=111 time=0
EXTRACT: note_off channel=0 note=47 velocity=111 time=0
EXTRACT: note_on channel=0 note=55 velocity=95 time=0
EXTRACT: note_on channel=0 note=50 velocity=111 time=0
EXTRACT: note_on channel=0 note=45 velocity=111 time=0
EXTRACT: note_on channel=4 note=69 velocity=95 time=0
EXTRACT: note_on channel=9 note=29 velocity=95 time=0
EXTRACT: note_on channel=9 note=35 velocity=95 time=0
EXTRACT: note_on channel=9 note=53 velocity=95 time=0
EXTRACT: note_off channel=0 note=55 velocity=95 time=0.14150925
EXTRACT: note_off channel=0 note=50 velocity=111 time=0
EXTRACT: note_off channel=0 note=45 velocity=111 time=0
EXTRACT: note_on channel=0 note=55 velocity=111 time=0
EXTRACT: note_on channel=0 note=50 velocity=111 time=0
EXTRACT: note_on channel=0 note=45 velocity=111 time=0
EXTRACT: note_off channel=9 note=29 velocity=95 time=0
EXTRACT: note_off channel=9 note=35 velocity=95 time=0
EXTRACT: note_off channel=9 note=53 velocity=95 time=0
EXTRACT: note_on channel=9 note=0 velocity=95 time=0
EXTRACT: note_on channel=9 note=30 velocity=95 time=0
EXTRACT: note_on channel=9 note=35 velocity=95 time=0
EXTRACT: note_on channel=9 note=59 velocity=95 time=0
EXTRACT: note_off channel=0 note=55 velocity=111 time=0.14150925
EXTRACT: note_off channel=0 note=50 velocity=111 time=0
EXTRACT: note_off channel=0 note=45 velocity=111 time=0
EXTRACT: note_on channel=0 note=61 velocity=111 time=0
EXTRACT: note_on channel=0 note=57 velocity=95 time=0
EXTRACT: note_on channel=0 note=52 velocity=111 time=0
EXTRACT: note_on channel=0 note=45 velocity=111 time=0
EXTRACT: note_off channel=4 note=69 velocity=95 time=0
EXTRACT: note_on channel=6 note=85 velocity=95 time=0
EXTRACT: note_on channel=6 note=81 velocity=95 time=0
EXTRACT: note_off channel=14 note=40 velocity=111 time=0
EXTRACT: note_on channel=14 note=33 velocity=111 time=0
EXTRACT: note_off channel=9 note=0 velocity=95 time=0
EXTRACT: note_off channel=9 note=30 velocity=95 time=0
EXTRACT: note_off channel=9 note=35 velocity=95 time=0
EXTRACT: note_off channel=9 note=59 velocity=95 time=0
EXTRACT: note_on channel=9 note=0 velocity=95 time=0
EXTRACT: note_on channel=9 note=35 velocity=95 time=0
EXTRACT: note_on channel=9 note=51 velocity=95 time=0
EXTRACT: note_on channel=9 note=56 velocity=95 time=0
EXTRACT: note_off channel=9 note=0 velocity=95 time=0.14150925
EXTRACT: note_off channel=9 note=35 velocity=95 time=0
EXTRACT: note_off channel=9 note=51 velocity=95 time=0
EXTRACT: note_off channel=9 note=56 velocity=95 time=0
EXTRACT: note_on channel=9 note=35 velocity=95 time=0.14150925
EXTRACT: note_on channel=9 note=51 velocity=95 time=0
EXTRACT: note_off channel=6 note=85 velocity=95 time=0.14150925
EXTRACT: note_off channel=6 note=81 velocity=95 time=0
EXTRACT: note_off channel=9 note=35 velocity=95 time=0
EXTRACT: note_off channel=9 note=51 velocity=95 time=0
EXTRACT: note_off channel=0 note=61 velocity=111 time=0.14150925
EXTRACT: note_off channel=0 note=57 velocity=95 time=0
EXTRACT: note_off channel=0 note=52 velocity=111 time=0
EXTRACT: note_off channel=0 note=45 velocity=111 time=0
EXTRACT: note_on channel=0 note=61 velocity=111 time=0
EXTRACT: note_on channel=0 note=57 velocity=111 time=0
EXTRACT: note_on channel=0 note=52 velocity=111 time=0
EXTRACT: note_on channel=0 note=45 velocity=111 time=0
EXTRACT: note_on channel=4 note=69 velocity=95 time=0
EXTRACT: note_on channel=6 note=85 velocity=95 time=0
EXTRACT: note_on channel=6 note=81 velocity=95 time=0
EXTRACT: note_on channel=9 note=39 velocity=95 time=0
EXTRACT: note_on channel=9 note=40 velocity=95 time=0
EXTRACT: note_on channel=9 note=56 velocity=95 time=0
EXTRACT: note_on channel=9 note=59 velocity=95 time=0
EXTRACT: note_off channel=9 note=39 velocity=95 time=0.14150925
EXTRACT: note_off channel=9 note=40 velocity=95 time=0
EXTRACT: note_off channel=9 note=56 velocity=95 time=0
EXTRACT: note_off channel=9 note=59 velocity=95 time=0
EXTRACT: note_off channel=0 note=61 velocity=111 time=0.14150925
EXTRACT: note_off channel=0 note=57 velocity=111 time=0
EXTRACT: note_off channel=0 note=52 velocity=111 time=0
EXTRACT: note_off channel=0 note=45 velocity=111 time=0
EXTRACT: note_on channel=0 note=59 velocity=95 time=0
EXTRACT: note_on channel=0 note=55 velocity=111 time=0
EXTRACT: note_on channel=0 note=50 velocity=111 time=0
EXTRACT: note_on channel=0 note=45 velocity=111 time=0
EXTRACT: note_off channel=4 note=69 velocity=95 time=0
EXTRACT: note_on channel=4 note=66 velocity=95 time=0
EXTRACT: note_off channel=6 note=85 velocity=95 time=0
EXTRACT: note_off channel=6 note=81 velocity=95 time=0
EXTRACT: note_on channel=9 note=35 velocity=95 time=0
EXTRACT: note_on channel=9 note=53 velocity=95 time=0
EXTRACT: note_off channel=0 note=59 velocity=95 time=0.031249959375
EXTRACT: note_off channel=0 note=55 velocity=111 time=0
EXTRACT: note_off channel=0 note=50 velocity=111 time=0
EXTRACT: note_off channel=0 note=45 velocity=111 time=0
EXTRACT: note_on channel=0 note=64 velocity=111 time=0.110259290625
EXTRACT: note_on channel=0 note=59 velocity=111 time=0
EXTRACT: note_on channel=0 note=56 velocity=95 time=0
EXTRACT: note_on channel=0 note=52 velocity=111 time=0
EXTRACT: note_off channel=4 note=66 velocity=95 time=0
EXTRACT: note_on channel=4 note=69 velocity=95 time=0
EXTRACT: note_off channel=9 note=35 velocity=95 time=0
EXTRACT: note_off channel=9 note=53 velocity=95 time=0
EXTRACT: note_on channel=9 note=0 velocity=95 time=0
EXTRACT: note_on channel=9 note=29 velocity=95 time=0
EXTRACT: note_on channel=9 note=40 velocity=95 time=0
EXTRACT: note_on channel=9 note=59 velocity=95 time=0
EXTRACT: note_off channel=0 note=64 velocity=111 time=0.14150925
EXTRACT: note_off channel=0 note=59 velocity=111 time=0
EXTRACT: note_off channel=0 note=56 velocity=95 time=0
EXTRACT: note_off channel=0 note=52 velocity=111 time=0
EXTRACT: note_off channel=14 note=33 velocity=111 time=0
EXTRACT: note_on channel=14 note=40 velocity=111 time=0
EXTRACT: note_off channel=9 note=0 velocity=95 time=0
EXTRACT: note_off channel=9 note=29 velocity=95 time=0
EXTRACT: note_off channel=9 note=40 velocity=95 time=0
EXTRACT: note_off channel=9 note=59 velocity=95 time=0
EXTRACT: note_on channel=9 note=0 velocity=95 time=0
EXTRACT: note_on channel=9 note=30 velocity=95 time=0
EXTRACT: note_on channel=9 note=35 velocity=95 time=0
EXTRACT: note_on channel=9 note=51 velocity=95 time=0
EXTRACT: note_on channel=9 note=56 velocity=95 time=0
EXTRACT: note_on channel=0 note=64 velocity=95 time=0.14150925
EXTRACT: note_on channel=0 note=59 velocity=111 time=0
EXTRACT: note_on channel=0 note=56 velocity=111 time=0
EXTRACT: note_on channel=0 note=52 velocity=111 time=0
EXTRACT: note_off channel=4 note=69 velocity=95 time=0
EXTRACT: note_on channel=4 note=66 velocity=95 time=0
EXTRACT: note_off channel=9 note=0 velocity=95 time=0
EXTRACT: note_off channel=9 note=30 velocity=95 time=0
EXTRACT: note_off channel=9 note=35 velocity=95 time=0
EXTRACT: note_off channel=9 note=51 velocity=95 time=0
EXTRACT: note_off channel=9 note=56 velocity=95 time=0
EXTRACT: note_on channel=9 note=0 velocity=95 time=0
EXTRACT: note_on channel=9 note=29 velocity=95 time=0
EXTRACT: note_on channel=9 note=40 velocity=95 time=0
EXTRACT: note_on channel=9 note=59 velocity=95 time=0
EXTRACT: note_off channel=0 note=64 velocity=95 time=0.14150925
EXTRACT: note_off channel=0 note=59 velocity=111 time=0
EXTRACT: note_off channel=0 note=56 velocity=111 time=0
EXTRACT: note_off channel=0 note=52 velocity=111 time=0
EXTRACT: note_on channel=0 note=64 velocity=111 time=0
EXTRACT: note_on channel=0 note=59 velocity=95 time=0
EXTRACT: note_on channel=0 note=56 velocity=111 time=0
EXTRACT: note_on channel=0 note=52 velocity=111 time=0
EXTRACT: note_on channel=0 note=47 velocity=111 time=0
EXTRACT: note_off channel=9 note=0 velocity=95 time=0
EXTRACT: note_off channel=9 note=29 velocity=95 time=0
EXTRACT: note_off channel=9 note=40 velocity=95 time=0
EXTRACT: note_off channel=9 note=59 velocity=95 time=0
EXTRACT: note_on channel=9 note=0 velocity=95 time=0
EXTRACT: note_on channel=9 note=30 velocity=95 time=0
EXTRACT: note_on channel=9 note=35 velocity=95 time=0
EXTRACT: note_on channel=9 note=51 velocity=95 time=0
EXTRACT: note_off channel=4 note=66 velocity=95 time=0.14150925
EXTRACT: note_off channel=9 note=0 velocity=95 time=0
EXTRACT: note_off channel=9 note=30 velocity=95 time=0
EXTRACT: note_off channel=9 note=35 velocity=95 time=0
EXTRACT: note_off channel=9 note=51 velocity=95 time=0
EXTRACT: note_on channel=9 note=0 velocity=95 time=0
EXTRACT: note_on channel=9 note=30 velocity=95 time=0
EXTRACT: note_on channel=9 note=35 velocity=95 time=0
EXTRACT: note_on channel=9 note=51 velocity=95 time=0
EXTRACT: note_off channel=0 note=64 velocity=111 time=0.14150925
EXTRACT: note_off channel=0 note=59 velocity=95 time=0
EXTRACT: note_off channel=0 note=56 velocity=111 time=0
EXTRACT: note_off channel=0 note=52 velocity=111 time=0
EXTRACT: note_off channel=0 note=47 velocity=111 time=0
EXTRACT: note_on channel=0 note=64 velocity=111 time=0
EXTRACT: note_on channel=0 note=59 velocity=111 time=0
EXTRACT: note_on channel=0 note=56 velocity=95 time=0
EXTRACT: note_on channel=0 note=52 velocity=111 time=0
EXTRACT: note_on channel=0 note=47 velocity=111 time=0
EXTRACT: note_on channel=2 note=57 velocity=95 time=0
EXTRACT: note_off channel=9 note=0 velocity=95 time=0
EXTRACT: note_off channel=9 note=30 velocity=95 time=0
EXTRACT: note_off channel=9 note=35 velocity=95 time=0
EXTRACT: note_off channel=9 note=51 velocity=95 time=0
EXTRACT: note_on channel=9 note=0 velocity=95 time=0
EXTRACT: note_on channel=9 note=39 velocity=95 time=0
EXTRACT: note_on channel=9 note=30 velocity=95 time=0
EXTRACT: note_on channel=9 note=40 velocity=95 time=0
EXTRACT: note_on channel=9 note=56 velocity=95 time=0
EXTRACT: note_on channel=9 note=59 velocity=95 time=0
EXTRACT: note_off channel=2 note=57 velocity=95 time=0.14150925
EXTRACT: note_on channel=2 note=57 velocity=95 time=0
EXTRACT: note_off channel=9 note=0 velocity=95 time=0
EXTRACT: note_off channel=9 note=39 velocity=95 time=0
EXTRACT: note_off channel=9 note=30 velocity=95 time=0
EXTRACT: note_off channel=9 note=40 velocity=95 time=0
EXTRACT: note_off channel=9 note=56 velocity=95 time=0
EXTRACT: note_off channel=9 note=59 velocity=95 time=0
EXTRACT: note_off channel=0 note=64 velocity=111 time=0.14150925
EXTRACT: note_off channel=0 note=59 velocity=111 time=0
EXTRACT: note_off channel=0 note=56 velocity=95 time=0
EXTRACT: note_off channel=0 note=52 velocity=111 time=0
EXTRACT: note_off channel=0 note=47 velocity=111 time=0
EXTRACT: note_on channel=0 note=55 velocity=95 time=0
EXTRACT: note_on channel=0 note=50 velocity=111 time=0
EXTRACT: note_on channel=0 note=45 velocity=111 time=0
EXTRACT: note_off channel=2 note=57 velocity=95 time=0
EXTRACT: note_on channel=2 note=57 velocity=95 time=0
EXTRACT: note_on channel=9 note=29 velocity=95 time=0
EXTRACT: note_on channel=9 note=35 velocity=95 time=0
EXTRACT: note_on channel=9 note=53 velocity=95 time=0
EXTRACT: note_off channel=0 note=55 velocity=95 time=0.14150925
EXTRACT: note_off channel=0 note=50 velocity=111 time=0
EXTRACT: note_off channel=0 note=45 velocity=111 time=0
EXTRACT: note_on channel=0 note=55 velocity=111 time=0
EXTRACT: note_on channel=0 note=50 velocity=111 time=0
EXTRACT: note_on channel=0 note=45 velocity=111 time=0
EXTRACT: note_off channel=2 note=57 velocity=95 time=0
EXTRACT: note_on channel=2 note=57 velocity=95 time=0
EXTRACT: note_off channel=9 note=29 velocity=95 time=0
EXTRACT: note_off channel=9 note=35 velocity=95 time=0
EXTRACT: note_off channel=9 note=53 velocity=95 time=0
EXTRACT: note_on channel=9 note=0 velocity=95 time=0
EXTRACT: note_on channel=9 note=30 velocity=95 time=0
EXTRACT: note_on channel=9 note=35 velocity=95 time=0
EXTRACT: note_on channel=9 note=59 velocity=95 time=0
EXTRACT: note_off channel=0 note=55 velocity=111 time=0.14150925
EXTRACT: note_off channel=0 note=50 velocity=111 time=0
EXTRACT: note_off channel=0 note=45 velocity=111 time=0
EXTRACT: note_on channel=0 note=66 velocity=111 time=0
EXTRACT: note_on channel=0 note=62 velocity=111 time=0
EXTRACT: note_on channel=0 note=57 velocity=111 time=0
EXTRACT: note_on channel=0 note=50 velocity=111 time=0
EXTRACT: note_off channel=2 note=57 velocity=95 time=0
EXTRACT: note_on channel=2 note=61 velocity=95 time=0
EXTRACT: note_on channel=6 note=86 velocity=111 time=0
EXTRACT: note_on channel=6 note=81 velocity=111 time=0
EXTRACT: note_off channel=14 note=40 velocity=111 time=0
EXTRACT: note_on channel=14 note=38 velocity=111 time=0
EXTRACT: note_off channel=9 note=0 velocity=95 time=0
EXTRACT: note_off channel=9 note=30 velocity=95 time=0
EXTRACT: note_off channel=9 note=35 velocity=95 time=0
EXTRACT: note_off channel=9 note=59 velocity=95 time=0
EXTRACT: note_on channel=9 note=0 velocity=95 time=0
EXTRACT: note_on channel=9 note=35 velocity=95 time=0
EXTRACT: note_on channel=9 note=51 velocity=95 time=0
EXTRACT: note_on channel=9 note=56 velocity=95 time=0
EXTRACT: note_off channel=2 note=61 velocity=95 time=0.14150925
EXTRACT: note_off channel=9 note=0 velocity=95 time=0
EXTRACT: note_off channel=9 note=35 velocity=95 time=0
EXTRACT: note_off channel=9 note=51 velocity=95 time=0
EXTRACT: note_off channel=9 note=56 velocity=95 time=0
EXTRACT: note_on channel=2 note=64 velocity=95 time=0.14150925
EXTRACT: note_on channel=9 note=35 velocity=95 time=0
EXTRACT: note_on channel=9 note=51 velocity=95 time=0
EXTRACT: note_on channel=4 note=69 velocity=95 time=0.14150925
EXTRACT: note_off channel=6 note=86 velocity=111 time=0
EXTRACT: note_off channel=6 note=81 velocity=111 time=0
EXTRACT: note_off channel=9 note=35 velocity=95 time=0
EXTRACT: note_off channel=9 note=51 velocity=95 time=0
EXTRACT: note_off channel=0 note=66 velocity=111 time=0.14150925
EXTRACT: note_off channel=0 note=62 velocity=111 time=0
EXTRACT: note_off channel=0 note=57 velocity=111 time=0
EXTRACT: note_off channel=0 note=50 velocity=111 time=0
EXTRACT: note_on channel=0 note=66 velocity=95 time=0
EXTRACT: note_on channel=0 note=62 velocity=111 time=0
EXTRACT: note_on channel=0 note=57 velocity=111 time=0
EXTRACT: note_on channel=0 note=50 velocity=111 time=0
EXTRACT: note_off channel=4 note=69 velocity=95 time=0
EXTRACT: note_on channel=4 note=73 velocity=95 time=0
EXTRACT: note_on channel=6 note=86 velocity=111 time=0
EXTRACT: note_on channel=6 note=81 velocity=111 time=0
EXTRACT: note_on channel=9 note=39 velocity=95 time=0
EXTRACT: note_on channel=9 note=40 velocity=95 time=0
EXTRACT: note_on channel=9 note=56 velocity=95 time=0
EXTRACT: note_on channel=9 note=59 velocity=95 time=0
EXTRACT: note_off channel=9 note=39 velocity=95 time=0.14150925
EXTRACT: note_off channel=9 note=40 velocity=95 time=0
EXTRACT: note_off channel=9 note=56 velocity=95 time=0
EXTRACT: note_off channel=9 note=59 velocity=95 time=0
EXTRACT: note_off channel=0 note=66 velocity=95 time=0.14150925
EXTRACT: note_off channel=0 note=62 velocity=111 time=0
EXTRACT: note_off channel=0 note=57 velocity=111 time=0
EXTRACT: note_off channel=0 note=50 velocity=111 time=0
EXTRACT: note_on channel=0 note=64 velocity=111 time=0
EXTRACT: note_on channel=0 note=59 velocity=95 time=0
EXTRACT: note_on channel=0 note=55 velocity=111 time=0
EXTRACT: note_on channel=0 note=50 velocity=111 time=0
EXTRACT: note_off channel=2 note=64 velocity=95 time=0
EXTRACT: note_on channel=2 note=59 velocity=95 time=0
EXTRACT: note_off channel=4 note=73 velocity=95 time=0
EXTRACT: note_on channel=4 note=69 velocity=95 time=0
EXTRACT: note_off channel=6 note=86 velocity=111 time=0
EXTRACT: note_off channel=6 note=81 velocity=111 time=0
EXTRACT: note_on channel=9 note=35 velocity=95 time=0
EXTRACT: note_on channel=9 note=53 velocity=95 time=0
EXTRACT: note_off channel=0 note=64 velocity=111 time=0.031249959375
EXTRACT: note_off channel=0 note=59 velocity=95 time=0
EXTRACT: note_off channel=0 note=55 velocity=111 time=0
EXTRACT: note_off channel=0 note=50 velocity=111 time=0
EXTRACT: note_on channel=0 note=64 velocity=111 time=0.110259290625
EXTRACT: note_on channel=0 note=59 velocity=111 time=0
EXTRACT: note_on channel=0 note=56 velocity=95 time=0
EXTRACT: note_on channel=0 note=52 velocity=111 time=0
EXTRACT: note_off channel=4 note=69 velocity=95 time=0
EXTRACT: note_on channel=4 note=71 velocity=95 time=0
EXTRACT: note_off channel=9 note=35 velocity=95 time=0
EXTRACT: note_off channel=9 note=53 velocity=95 time=0
EXTRACT: note_on channel=9 note=0 velocity=95 time=0
EXTRACT: note_on channel=9 note=29 velocity=95 time=0
EXTRACT: note_on channel=9 note=40 velocity=95 time=0
EXTRACT: note_on channel=9 note=59 velocity=95 time=0
EXTRACT: note_off channel=0 note=64 velocity=111 time=0.14150925
EXTRACT: note_off channel=0 note=59 velocity=111 time=0
EXTRACT: note_off channel=0 note=56 velocity=95 time=0
EXTRACT: note_off channel=0 note=52 velocity=111 time=0
EXTRACT: note_off channel=14 note=38 velocity=111 time=0
EXTRACT: note_on channel=14 note=40 velocity=111 time=0
EXTRACT: note_off channel=9 note=0 velocity=95 time=0
EXTRACT: note_off channel=9 note=29 velocity=95 time=0
EXTRACT: note_off channel=9 note=40 velocity=95 time=0
EXTRACT: note_off channel=9 note=59 velocity=95 time=0
EXTRACT: note_on channel=9 note=0 velocity=95 time=0
EXTRACT: note_on channel=9 note=30 velocity=95 time=0
EXTRACT: note_on channel=9 note=40 velocity=95 time=0
EXTRACT: note_on channel=9 note=56 velocity=95 time=0
EXTRACT: note_on channel=0 note=64 velocity=95 time=0.14150925
EXTRACT: note_on channel=0 note=59 velocity=111 time=0
EXTRACT: note_on channel=0 note=56 velocity=111 time=0
EXTRACT: note_on channel=0 note=52 velocity=111 time=0
EXTRACT: note_off channel=4 note=71 velocity=95 time=0
EXTRACT: note_off channel=9 note=0 velocity=95 time=0
EXTRACT: note_off channel=9 note=30 velocity=95 time=0
EXTRACT: note_off channel=9 note=40 velocity=95 time=0
EXTRACT: note_off channel=9 note=56 velocity=95 time=0
EXTRACT: note_on channel=9 note=0 velocity=95 time=0
EXTRACT: note_on channel=9 note=29 velocity=95 time=0
EXTRACT: note_on channel=9 note=40 velocity=95 time=0
EXTRACT: note_off channel=0 note=64 velocity=95 time=0.14150925
EXTRACT: note_off channel=0 note=59 velocity=111 time=0
EXTRACT: note_off channel=0 note=56 velocity=111 time=0
EXTRACT: note_off channel=0 note=52 velocity=111 time=0
EXTRACT: note_on channel=0 note=64 velocity=111 time=0
EXTRACT: note_on channel=0 note=59 velocity=95 time=0
EXTRACT: note_on channel=0 note=56 velocity=111 time=0
EXTRACT: note_on channel=0 note=52 velocity=111 time=0
EXTRACT: note_on channel=0 note=47 velocity=111 time=0
EXTRACT: note_on channel=4 note=71 velocity=95 time=0
EXTRACT: note_off channel=9 note=0 velocity=95 time=0
EXTRACT: note_off channel=9 note=29 velocity=95 time=0
EXTRACT: note_off channel=9 note=40 velocity=95 time=0
EXTRACT: note_on channel=9 note=0 velocity=95 time=0
EXTRACT: note_on channel=9 note=30 velocity=95 time=0
EXTRACT: note_on channel=9 note=40 velocity=95 time=0
EXTRACT: note_off channel=4 note=71 velocity=95 time=0.14150925
EXTRACT: note_on channel=4 note=69 velocity=95 time=0
EXTRACT: note_off channel=9 note=0 velocity=95 time=0
EXTRACT: note_off channel=9 note=30 velocity=95 time=0
EXTRACT: note_off channel=9 note=40 velocity=95 time=0
EXTRACT: note_on channel=9 note=0 velocity=95 time=0
EXTRACT: note_on channel=9 note=30 velocity=95 time=0
EXTRACT: note_on channel=9 note=40 velocity=95 time=0
EXTRACT: note_off channel=0 note=64 velocity=111 time=0.14150925
EXTRACT: note_off channel=0 note=59 velocity=95 time=0
EXTRACT: note_off channel=0 note=56 velocity=111 time=0
EXTRACT: note_off channel=0 note=52 velocity=111 time=0
EXTRACT: note_off channel=0 note=47 velocity=111 time=0
EXTRACT: note_on channel=0 note=64 velocity=111 time=0
EXTRACT: note_on channel=0 note=59 velocity=111 time=0
EXTRACT: note_on channel=0 note=56 velocity=95 time=0
EXTRACT: note_on channel=0 note=52 velocity=111 time=0
EXTRACT: note_on channel=0 note=47 velocity=111 time=0
EXTRACT: note_off channel=4 note=69 velocity=95 time=0
EXTRACT: note_on channel=4 note=73 velocity=95 time=0
EXTRACT: note_off channel=9 note=0 velocity=95 time=0
EXTRACT: note_off channel=9 note=30 velocity=95 time=0
EXTRACT: note_off channel=9 note=40 velocity=95 time=0
EXTRACT: note_on channel=9 note=0 velocity=95 time=0
EXTRACT: note_on channel=9 note=39 velocity=95 time=0
EXTRACT: note_on channel=9 note=30 velocity=95 time=0
EXTRACT: note_on channel=9 note=40 velocity=95 time=0
EXTRACT: note_on channel=9 note=56 velocity=95 time=0
EXTRACT: note_on channel=9 note=57 velocity=95 time=0
EXTRACT: note_off channel=4 note=73 velocity=95 time=0.14150925
EXTRACT: note_off channel=9 note=0 velocity=95 time=0
EXTRACT: note_off channel=9 note=39 velocity=95 time=0
EXTRACT: note_off channel=9 note=30 velocity=95 time=0
EXTRACT: note_off channel=9 note=40 velocity=95 time=0
EXTRACT: note_off channel=9 note=56 velocity=95 time=0
EXTRACT: note_off channel=9 note=57 velocity=95 time=0
EXTRACT: note_on channel=9 note=0 velocity=95 time=0
EXTRACT: note_on channel=9 note=40 velocity=95 time=0
EXTRACT: note_off channel=0 note=64 velocity=111 time=0.14150925
EXTRACT: note_off channel=0 note=59 velocity=111 time=0
EXTRACT: note_off channel=0 note=56 velocity=95 time=0
EXTRACT: note_off channel=0 note=52 velocity=111 time=0
EXTRACT: note_off channel=0 note=47 velocity=111 time=0
EXTRACT: note_on channel=0 note=55 velocity=95 time=0
EXTRACT: note_on channel=0 note=50 velocity=111 time=0
EXTRACT: note_on channel=0 note=45 velocity=111 time=0
EXTRACT: note_off channel=2 note=59 velocity=95 time=0
EXTRACT: note_on channel=4 note=73 velocity=95 time=0
EXTRACT: note_off channel=9 note=0 velocity=95 time=0
EXTRACT: note_off channel=9 note=40 velocity=95 time=0
EXTRACT: note_on channel=9 note=0 velocity=95 time=0
EXTRACT: note_on channel=9 note=29 velocity=95 time=0
EXTRACT: note_on channel=9 note=40 velocity=95 time=0
EXTRACT: note_off channel=0 note=55 velocity=95 time=0.14150925
EXTRACT: note_off channel=0 note=50 velocity=111 time=0
EXTRACT: note_off channel=0 note=45 velocity=111 time=0
EXTRACT: note_on channel=0 note=55 velocity=111 time=0
EXTRACT: note_on channel=0 note=50 velocity=111 time=0
EXTRACT: note_on channel=0 note=45 velocity=111 time=0
EXTRACT: note_off channel=9 note=0 velocity=95 time=0
EXTRACT: note_off channel=9 note=29 velocity=95 time=0
EXTRACT: note_off channel=9 note=40 velocity=95 time=0
EXTRACT: note_on channel=9 note=0 velocity=95 time=0
EXTRACT: note_on channel=9 note=30 velocity=95 time=0
EXTRACT: note_on channel=9 note=40 velocity=95 time=0
EXTRACT: note_off channel=0 note=55 velocity=111 time=0.14150925
EXTRACT: note_off channel=0 note=50 velocity=111 time=0
EXTRACT: note_off channel=0 note=45 velocity=111 time=0
EXTRACT: note_on channel=0 note=64 velocity=111 time=0
EXTRACT: note_on channel=0 note=61 velocity=111 time=0
EXTRACT: note_on channel=0 note=57 velocity=111 time=0
EXTRACT: note_on channel=0 note=52 velocity=111 time=0
EXTRACT: note_on channel=0 note=45 velocity=111 time=0
EXTRACT: note_off channel=14 note=40 velocity=111 time=0
EXTRACT: note_on channel=14 note=33 velocity=111 time=0
EXTRACT: note_off channel=9 note=0 velocity=95 time=0
EXTRACT: note_off channel=9 note=30 velocity=95 time=0
EXTRACT: note_off channel=9 note=40 velocity=95 time=0
EXTRACT: note_on channel=9 note=0 velocity=111 time=0
EXTRACT: note_on channel=9 note=40 velocity=111 time=0
EXTRACT: note_on channel=9 note=49 velocity=111 time=0
EXTRACT: note_on channel=9 note=57 velocity=111 time=0
EXTRACT: note_off channel=4 note=73 velocity=95 time=1.132074
EXTRACT: note_on channel=4 note=71 velocity=111 time=0
EXTRACT: note_off channel=14 note=33 velocity=111 time=0
EXTRACT: note_on channel=14 note=40 velocity=111 time=0
EXTRACT: note_off channel=4 note=71 velocity=111 time=0.14150925
EXTRACT: note_on channel=4 note=69 velocity=111 time=0
EXTRACT: note_off channel=4 note=69 velocity=111 time=0.14150925
EXTRACT: note_on channel=4 note=71 velocity=111 time=0
EXTRACT: note_off channel=4 note=71 velocity=111 time=0.14150925
EXTRACT: note_on channel=4 note=69 velocity=111 time=0
EXTRACT: note_off channel=14 note=40 velocity=111 time=0.70754625
EXTRACT: note_on channel=14 note=38 velocity=111 time=0
EXTRACT: note_off channel=4 note=69 velocity=111 time=0.566037
EXTRACT: note_on channel=4 note=64 velocity=95 time=0.2830185
EXTRACT: note_off channel=4 note=64 velocity=95 time=0.14150925
EXTRACT: note_on channel=4 note=64 velocity=95 time=0
EXTRACT: note_off channel=4 note=64 velocity=95 time=0.14150925
EXTRACT: note_on channel=4 note=64 velocity=95 time=0
EXTRACT: note_off channel=14 note=38 velocity=111 time=0
EXTRACT: note_on channel=14 note=40 velocity=111 time=0
EXTRACT: note_off channel=4 note=64 velocity=95 time=0.14150925
EXTRACT: note_on channel=4 note=64 velocity=95 time=0.14150925
EXTRACT: note_off channel=4 note=64 velocity=95 time=0.14150925
EXTRACT: note_on channel=4 note=64 velocity=95 time=0
EXTRACT: note_off channel=4 note=64 velocity=95 time=0.14150925
EXTRACT: note_on channel=4 note=73 velocity=95 time=0
EXTRACT: note_off channel=4 note=73 velocity=95 time=0.14150925
EXTRACT: note_on channel=4 note=73 velocity=95 time=0.14150925
EXTRACT: note_off channel=14 note=40 velocity=111 time=0.2830185
EXTRACT: note_on channel=14 note=33 velocity=111 time=0
EXTRACT: note_off channel=9 note=0 velocity=111 time=0
EXTRACT: note_off channel=9 note=40 velocity=111 time=0
EXTRACT: note_off channel=9 note=49 velocity=111 time=0
EXTRACT: note_off channel=9 note=57 velocity=111 time=0
EXTRACT: note_off channel=4 note=73 velocity=95 time=1.132074
EXTRACT: note_on channel=4 note=71 velocity=111 time=0
EXTRACT: note_off channel=4 note=71 velocity=111 time=0.14150925
EXTRACT: note_on channel=4 note=69 velocity=111 time=0
EXTRACT: note_off channel=4 note=69 velocity=111 time=0.14150925
EXTRACT: note_on channel=4 note=71 velocity=111 time=0
EXTRACT: note_off channel=4 note=71 velocity=111 time=0.14150925
EXTRACT: note_on channel=4 note=69 velocity=111 time=0
EXTRACT: note_off channel=0 note=64 velocity=111 time=2.97169425
EXTRACT: note_off channel=0 note=61 velocity=111 time=0
EXTRACT: note_off channel=0 note=57 velocity=111 time=0
EXTRACT: note_off channel=0 note=52 velocity=111 time=0
EXTRACT: note_off channel=0 note=45 velocity=111 time=0
EXTRACT: note_off channel=4 note=69 velocity=111 time=0
EXTRACT: note_off channel=14 note=33 velocity=111 time=0
INTERVALS57 - Hanson_-_MMMBop.mid
unison1
2m2
2M33
3m525
3M313
4m806
4M12
5m260
5M53
6m23
7m35
7M4