EXTRACT: control_change channel=0 control=101 value=0 time=0
EXTRACT: control_change channel=0 control=100 value=0 time=0
EXTRACT: control_change channel=0 control=6 value=12 time=0
EXTRACT: control_change channel=0 control=38 value=0 time=0
EXTRACT: control_change channel=1 control=101 value=0 time=0
EXTRACT: control_change channel=1 control=100 value=0 time=0
EXTRACT: control_change channel=1 control=6 value=12 time=0
EXTRACT: control_change channel=1 control=38 value=0 time=0
EXTRACT: control_change channel=2 control=101 value=0 time=0
EXTRACT: control_change channel=2 control=100 value=0 time=0
EXTRACT: control_change channel=2 control=6 value=12 time=0
EXTRACT: control_change channel=2 control=38 value=0 time=0
EXTRACT: control_change channel=3 control=101 value=0 time=0
EXTRACT: control_change channel=3 control=100 value=0 time=0
EXTRACT: control_change channel=3 control=6 value=12 time=0
EXTRACT: control_change channel=3 control=38 value=0 time=0
EXTRACT: control_change channel=4 control=101 value=0 time=0
EXTRACT: control_change channel=4 control=100 value=0 time=0
EXTRACT: control_change channel=4 control=6 value=12 time=0
EXTRACT: control_change channel=4 control=38 value=0 time=0
EXTRACT: control_change channel=5 control=101 value=0 time=0
EXTRACT: control_change channel=5 control=100 value=0 time=0
EXTRACT: control_change channel=5 control=6 value=12 time=0
EXTRACT: control_change channel=5 control=38 value=0 time=0
EXTRACT: control_change channel=6 control=101 value=0 time=0
EXTRACT: control_change channel=6 control=100 value=0 time=0
EXTRACT: control_change channel=6 control=6 value=12 time=0
EXTRACT: control_change channel=6 control=38 value=0 time=0
EXTRACT: control_change channel=7 control=101 value=0 time=0
EXTRACT: control_change channel=7 control=100 value=0 time=0
EXTRACT: control_change channel=7 control=6 value=12 time=0
EXTRACT: control_change channel=7 control=38 value=0 time=0
EXTRACT: control_change channel=8 control=101 value=0 time=0
EXTRACT: control_change channel=8 control=100 value=0 time=0
EXTRACT: control_change channel=8 control=6 value=12 time=0
EXTRACT: control_change channel=8 control=38 value=0 time=0
EXTRACT: control_change channel=9 control=101 value=0 time=0
EXTRACT: control_change channel=9 control=100 value=0 time=0
EXTRACT: control_change channel=9 control=6 value=12 time=0
EXTRACT: control_change channel=9 control=38 value=0 time=0
EXTRACT: control_change channel=10 control=101 value=0 time=0
EXTRACT: control_change channel=10 control=100 value=0 time=0
EXTRACT: control_change channel=10 control=6 value=12 time=0
EXTRACT: control_change channel=10 control=38 value=0 time=0
EXTRACT: control_change channel=11 control=101 value=0 time=0
EXTRACT: control_change channel=11 control=100 value=0 time=0
EXTRACT: control_change channel=11 control=6 value=12 time=0
EXTRACT: control_change channel=11 control=38 value=0 time=0
EXTRACT: control_change channel=12 control=101 value=0 time=0
EXTRACT: control_change channel=12 control=100 value=0 time=0
EXTRACT: control_change channel=12 control=6 value=12 time=0
EXTRACT: control_change channel=12 control=38 value=0 time=0
EXTRACT: control_change channel=13 control=101 value=0 time=0
EXTRACT: control_change channel=13 control=100 value=0 time=0
EXTRACT: control_change channel=13 control=6 value=12 time=0
EXTRACT: control_change channel=13 control=38 value=0 time=0
EXTRACT: control_change channel=14 control=101 value=0 time=0
EXTRACT: control_change channel=14 control=100 value=0 time=0
EXTRACT: control_change channel=14 control=6 value=12 time=0
EXTRACT: control_change channel=14 control=38 value=0 time=0
EXTRACT: control_change channel=15 control=101 value=0 time=0
EXTRACT: control_change channel=15 control=100 value=0 time=0
EXTRACT: control_change channel=15 control=6 value=12 time=0
EXTRACT: control_change channel=15 control=38 value=0 time=0
EXTRACT: pitchwheel channel=0 pitch=0 time=0
EXTRACT: control_change channel=0 control=7 value=95 time=0
EXTRACT: control_change channel=0 control=10 value=63 time=0
EXTRACT: control_change channel=0 control=93 value=0 time=0
EXTRACT: control_change channel=0 control=91 value=0 time=0
EXTRACT: control_change channel=0 control=95 value=0 time=0
EXTRACT: control_change channel=0 control=92 value=0 time=0
EXTRACT: control_change channel=0 control=11 value=127 time=0
EXTRACT: program_change channel=0 program=27 time=0
EXTRACT: control_change channel=1 control=7 value=95 time=0
EXTRACT: control_change channel=1 control=10 value=63 time=0
EXTRACT: control_change channel=1 control=93 value=0 time=0
EXTRACT: control_change channel=1 control=91 value=0 time=0
EXTRACT: control_change channel=1 control=95 value=0 time=0
EXTRACT: control_change channel=1 control=92 value=0 time=0
EXTRACT: control_change channel=1 control=11 value=127 time=0
EXTRACT: program_change channel=1 program=27 time=0
EXTRACT: note_on channel=0 note=63 velocity=95 time=0
EXTRACT: note_on channel=0 note=60 velocity=95 time=0
EXTRACT: pitchwheel channel=2 pitch=0 time=0
EXTRACT: control_change channel=2 control=7 value=127 time=0
EXTRACT: control_change channel=2 control=10 value=63 time=0
EXTRACT: control_change channel=2 control=93 value=15 time=0
EXTRACT: control_change channel=2 control=91 value=15 time=0
EXTRACT: control_change channel=2 control=95 value=0 time=0
EXTRACT: control_change channel=2 control=92 value=0 time=0
EXTRACT: control_change channel=2 control=11 value=127 time=0
EXTRACT: program_change channel=2 program=33 time=0
EXTRACT: control_change channel=3 control=7 value=127 time=0
EXTRACT: control_change channel=3 control=10 value=63 time=0
EXTRACT: control_change channel=3 control=93 value=15 time=0
EXTRACT: control_change channel=3 control=91 value=15 time=0
EXTRACT: control_change channel=3 control=95 value=0 time=0
EXTRACT: control_change channel=3 control=92 value=0 time=0
EXTRACT: control_change channel=3 control=11 value=127 time=0
EXTRACT: program_change channel=3 program=33 time=0
EXTRACT: pitchwheel channel=4 pitch=0 time=0
EXTRACT: control_change channel=4 control=7 value=127 time=0
EXTRACT: control_change channel=4 control=10 value=63 time=0
EXTRACT: control_change channel=4 control=93 value=0 time=0
EXTRACT: control_change channel=4 control=91 value=0 time=0
EXTRACT: control_change channel=4 control=95 value=0 time=0
EXTRACT: control_change channel=4 control=92 value=0 time=0
EXTRACT: control_change channel=4 control=11 value=127 time=0
EXTRACT: program_change channel=4 program=24 time=0
EXTRACT: control_change channel=5 control=7 value=127 time=0
EXTRACT: control_change channel=5 control=10 value=63 time=0
EXTRACT: control_change channel=5 control=93 value=0 time=0
EXTRACT: control_change channel=5 control=91 value=0 time=0
EXTRACT: control_change channel=5 control=95 value=0 time=0
EXTRACT: control_change channel=5 control=92 value=0 time=0
EXTRACT: control_change channel=5 control=11 value=127 time=0
EXTRACT: program_change channel=5 program=24 time=0
EXTRACT: pitchwheel channel=9 pitch=0 time=0
EXTRACT: control_change channel=9 control=7 value=127 time=0
EXTRACT: control_change channel=9 control=10 value=63 time=0
EXTRACT: control_change channel=9 control=93 value=0 time=0
EXTRACT: control_change channel=9 control=91 value=0 time=0
EXTRACT: control_change channel=9 control=95 value=0 time=0
EXTRACT: control_change channel=9 control=92 value=0 time=0
EXTRACT: control_change channel=9 control=11 value=127 time=0
EXTRACT: program_change channel=9 program=0 time=0
EXTRACT: note_off channel=0 note=63 velocity=95 time=0.38960999999999996
EXTRACT: note_off channel=0 note=60 velocity=95 time=0
EXTRACT: note_on channel=0 note=55 velocity=95 time=0
EXTRACT: note_off channel=0 note=55 velocity=95 time=0.38960999999999996
EXTRACT: note_on channel=0 note=63 velocity=95 time=0
EXTRACT: note_on channel=0 note=60 velocity=95 time=0
EXTRACT: note_off channel=0 note=63 velocity=95 time=0.38960999999999996
EXTRACT: note_off channel=0 note=60 velocity=95 time=0
EXTRACT: note_on channel=0 note=55 velocity=95 time=0
EXTRACT: note_off channel=0 note=55 velocity=95 time=0.38960999999999996
EXTRACT: note_on channel=0 note=63 velocity=95 time=0
EXTRACT: note_on channel=0 note=60 velocity=95 time=0
EXTRACT: note_off channel=0 note=63 velocity=95 time=0.38960999999999996
EXTRACT: note_off channel=0 note=60 velocity=95 time=0
EXTRACT: note_on channel=0 note=55 velocity=95 time=0
EXTRACT: note_off channel=0 note=55 velocity=95 time=0.38960999999999996
EXTRACT: note_on channel=0 note=63 velocity=95 time=0
EXTRACT: note_on channel=0 note=60 velocity=95 time=0
EXTRACT: note_off channel=0 note=63 velocity=95 time=0.38960999999999996
EXTRACT: note_off channel=0 note=60 velocity=95 time=0
EXTRACT: note_on channel=0 note=55 velocity=95 time=0
EXTRACT: note_off channel=0 note=55 velocity=95 time=0.38960999999999996
EXTRACT: note_on channel=0 note=63 velocity=95 time=0
EXTRACT: note_on channel=0 note=60 velocity=95 time=0
EXTRACT: note_off channel=0 note=63 velocity=95 time=0.38960999999999996
EXTRACT: note_off channel=0 note=60 velocity=95 time=0
EXTRACT: note_on channel=0 note=55 velocity=95 time=0
EXTRACT: note_off channel=0 note=55 velocity=95 time=0.38960999999999996
EXTRACT: note_on channel=0 note=63 velocity=95 time=0
EXTRACT: note_on channel=0 note=60 velocity=95 time=0
EXTRACT: note_off channel=0 note=63 velocity=95 time=0.38960999999999996
EXTRACT: note_off channel=0 note=60 velocity=95 time=0
EXTRACT: note_on channel=0 note=55 velocity=95 time=0
EXTRACT: note_off channel=0 note=55 velocity=95 time=0.38960999999999996
EXTRACT: note_on channel=0 note=63 velocity=95 time=0
EXTRACT: note_on channel=0 note=60 velocity=95 time=0
EXTRACT: note_off channel=0 note=63 velocity=95 time=0.38960999999999996
EXTRACT: note_off channel=0 note=60 velocity=95 time=0
EXTRACT: note_on channel=0 note=55 velocity=95 time=0
EXTRACT: note_off channel=0 note=55 velocity=95 time=0.38960999999999996
EXTRACT: note_on channel=0 note=63 velocity=95 time=0
EXTRACT: note_on channel=0 note=60 velocity=95 time=0
EXTRACT: note_off channel=0 note=63 velocity=95 time=0.38960999999999996
EXTRACT: note_off channel=0 note=60 velocity=95 time=0
EXTRACT: note_on channel=0 note=55 velocity=95 time=0
EXTRACT: note_off channel=0 note=55 velocity=95 time=0.38960999999999996
EXTRACT: note_on channel=0 note=63 velocity=95 time=0
EXTRACT: note_on channel=0 note=60 velocity=95 time=0
EXTRACT: note_off channel=0 note=63 velocity=95 time=0.38960999999999996
EXTRACT: note_off channel=0 note=60 velocity=95 time=0
EXTRACT: note_on channel=0 note=55 velocity=95 time=0
EXTRACT: note_off channel=0 note=55 velocity=95 time=0.38960999999999996
EXTRACT: note_on channel=0 note=63 velocity=95 time=0
EXTRACT: note_on channel=0 note=60 velocity=95 time=0
EXTRACT: note_off channel=0 note=63 velocity=95 time=0.38960999999999996
EXTRACT: note_off channel=0 note=60 velocity=95 time=0
EXTRACT: note_on channel=0 note=55 velocity=95 time=0
EXTRACT: note_off channel=0 note=55 velocity=95 time=0.38960999999999996
EXTRACT: note_on channel=0 note=63 velocity=95 time=0
EXTRACT: note_on channel=0 note=60 velocity=95 time=0
EXTRACT: note_off channel=0 note=63 velocity=95 time=0.38960999999999996
EXTRACT: note_off channel=0 note=60 velocity=95 time=0
EXTRACT: note_on channel=0 note=55 velocity=95 time=0
EXTRACT: note_off channel=0 note=55 velocity=95 time=0.38960999999999996
EXTRACT: note_on channel=0 note=63 velocity=95 time=0
EXTRACT: note_on channel=0 note=60 velocity=95 time=0
EXTRACT: note_off channel=0 note=63 velocity=95 time=0.38960999999999996
EXTRACT: note_off channel=0 note=60 velocity=95 time=0
EXTRACT: note_on channel=0 note=55 velocity=95 time=0
EXTRACT: note_off channel=0 note=55 velocity=95 time=0.19480499999999998
EXTRACT: note_on channel=0 note=53 velocity=95 time=0
EXTRACT: note_off channel=0 note=53 velocity=95 time=0.19480499999999998
EXTRACT: note_on channel=0 note=62 velocity=95 time=0
EXTRACT: note_on channel=0 note=58 velocity=95 time=0
EXTRACT: note_off channel=0 note=62 velocity=95 time=0.38960999999999996
EXTRACT: note_off channel=0 note=58 velocity=95 time=0
EXTRACT: note_on channel=0 note=55 velocity=95 time=0
EXTRACT: note_off channel=0 note=55 velocity=95 time=0.38960999999999996
EXTRACT: note_on channel=0 note=62 velocity=95 time=0
EXTRACT: note_on channel=0 note=58 velocity=95 time=0
EXTRACT: note_off channel=0 note=62 velocity=95 time=0.38960999999999996
EXTRACT: note_off channel=0 note=58 velocity=95 time=0
EXTRACT: note_on channel=1 note=55 velocity=95 time=0
EXTRACT: pitchwheel channel=1 pitch=-640 time=0.09740249999999999
EXTRACT: pitchwheel channel=1 pitch=-1408 time=0.09740249999999999
EXTRACT: pitchwheel channel=1 pitch=0 time=0
EXTRACT: note_off channel=1 note=55 velocity=95 time=0
EXTRACT: note_on channel=0 note=53 velocity=95 time=0
EXTRACT: note_off channel=0 note=53 velocity=95 time=0.19480499999999998
EXTRACT: note_on channel=0 note=60 velocity=95 time=0
EXTRACT: note_on channel=0 note=56 velocity=95 time=0
EXTRACT: note_off channel=0 note=60 velocity=95 time=0.38960999999999996
EXTRACT: note_off channel=0 note=56 velocity=95 time=0
EXTRACT: note_on channel=0 note=53 velocity=95 time=0
EXTRACT: note_off channel=0 note=53 velocity=95 time=0.38960999999999996
EXTRACT: note_on channel=0 note=60 velocity=95 time=0
EXTRACT: note_on channel=0 note=56 velocity=95 time=0
EXTRACT: note_off channel=0 note=60 velocity=95 time=0.38960999999999996
EXTRACT: note_off channel=0 note=56 velocity=95 time=0
EXTRACT: note_on channel=0 note=53 velocity=95 time=0
EXTRACT: note_off channel=0 note=53 velocity=95 time=0.38960999999999996
EXTRACT: note_on channel=0 note=62 velocity=95 time=0
EXTRACT: note_on channel=0 note=58 velocity=95 time=0
EXTRACT: note_off channel=0 note=62 velocity=95 time=0.38960999999999996
EXTRACT: note_off channel=0 note=58 velocity=95 time=0
EXTRACT: note_on channel=0 note=53 velocity=95 time=0
EXTRACT: note_off channel=0 note=53 velocity=95 time=0.38960999999999996
EXTRACT: note_on channel=0 note=62 velocity=95 time=0
EXTRACT: note_on channel=0 note=58 velocity=95 time=0
EXTRACT: note_off channel=0 note=62 velocity=95 time=0.38960999999999996
EXTRACT: note_off channel=0 note=58 velocity=95 time=0
EXTRACT: note_on channel=0 note=53 velocity=95 time=0
EXTRACT: note_off channel=0 note=53 velocity=95 time=0.19480499999999998
EXTRACT: note_on channel=0 note=55 velocity=95 time=0
EXTRACT: note_off channel=0 note=55 velocity=95 time=0.19480499999999998
EXTRACT: note_on channel=0 note=62 velocity=95 time=0
EXTRACT: note_on channel=0 note=58 velocity=95 time=0
EXTRACT: note_off channel=0 note=62 velocity=95 time=0.38960999999999996
EXTRACT: note_off channel=0 note=58 velocity=95 time=0
EXTRACT: note_on channel=0 note=55 velocity=95 time=0
EXTRACT: note_off channel=0 note=55 velocity=95 time=0.38960999999999996
EXTRACT: note_on channel=0 note=62 velocity=95 time=0
EXTRACT: note_on channel=0 note=58 velocity=95 time=0
EXTRACT: note_off channel=0 note=62 velocity=95 time=0.38960999999999996
EXTRACT: note_off channel=0 note=58 velocity=95 time=0
EXTRACT: note_on channel=1 note=55 velocity=95 time=0
EXTRACT: pitchwheel channel=1 pitch=-640 time=0.09740249999999999
EXTRACT: pitchwheel channel=1 pitch=-1408 time=0.09740249999999999
EXTRACT: pitchwheel channel=1 pitch=0 time=0
EXTRACT: note_off channel=1 note=55 velocity=95 time=0
EXTRACT: note_on channel=0 note=53 velocity=95 time=0
EXTRACT: note_off channel=0 note=53 velocity=95 time=0.19480499999999998
EXTRACT: note_on channel=0 note=60 velocity=95 time=0
EXTRACT: note_on channel=0 note=56 velocity=95 time=0
EXTRACT: note_off channel=0 note=60 velocity=95 time=0.38960999999999996
EXTRACT: note_off channel=0 note=56 velocity=95 time=0
EXTRACT: note_on channel=0 note=53 velocity=95 time=0
EXTRACT: note_off channel=0 note=53 velocity=95 time=0.38960999999999996
EXTRACT: note_on channel=0 note=60 velocity=95 time=0
EXTRACT: note_on channel=0 note=56 velocity=95 time=0
EXTRACT: note_off channel=0 note=60 velocity=95 time=0.38960999999999996
EXTRACT: note_off channel=0 note=56 velocity=95 time=0
EXTRACT: note_on channel=0 note=53 velocity=95 time=0
EXTRACT: note_off channel=0 note=53 velocity=95 time=0.38960999999999996
EXTRACT: note_on channel=0 note=62 velocity=95 time=0
EXTRACT: note_on channel=0 note=58 velocity=95 time=0
EXTRACT: note_off channel=0 note=62 velocity=95 time=0.38960999999999996
EXTRACT: note_off channel=0 note=58 velocity=95 time=0
EXTRACT: note_on channel=0 note=53 velocity=95 time=0
EXTRACT: note_off channel=0 note=53 velocity=95 time=0.38960999999999996
EXTRACT: note_on channel=0 note=62 velocity=95 time=0
EXTRACT: note_on channel=0 note=58 velocity=95 time=0
EXTRACT: note_off channel=0 note=62 velocity=95 time=0.38960999999999996
EXTRACT: note_off channel=0 note=58 velocity=95 time=0
EXTRACT: note_on channel=0 note=53 velocity=95 time=0
EXTRACT: note_off channel=0 note=53 velocity=95 time=0.38960999999999996
EXTRACT: note_on channel=0 note=63 velocity=95 time=0
EXTRACT: note_on channel=0 note=60 velocity=95 time=0
EXTRACT: note_off channel=0 note=63 velocity=95 time=0.38960999999999996
EXTRACT: note_off channel=0 note=60 velocity=95 time=0
EXTRACT: note_on channel=0 note=55 velocity=95 time=0
EXTRACT: note_off channel=0 note=55 velocity=95 time=0.38960999999999996
EXTRACT: note_on channel=0 note=63 velocity=95 time=0
EXTRACT: note_on channel=0 note=60 velocity=95 time=0
EXTRACT: note_off channel=0 note=63 velocity=95 time=0.38960999999999996
EXTRACT: note_off channel=0 note=60 velocity=95 time=0
EXTRACT: note_on channel=0 note=55 velocity=95 time=0
EXTRACT: note_off channel=0 note=55 velocity=95 time=0.38960999999999996
EXTRACT: note_on channel=0 note=62 velocity=95 time=0
EXTRACT: note_on channel=0 note=58 velocity=95 time=0
EXTRACT: note_off channel=0 note=62 velocity=95 time=0.38960999999999996
EXTRACT: note_off channel=0 note=58 velocity=95 time=0
EXTRACT: note_on channel=0 note=55 velocity=95 time=0
EXTRACT: note_off channel=0 note=55 velocity=95 time=0.38960999999999996
EXTRACT: note_on channel=0 note=62 velocity=95 time=0
EXTRACT: note_on channel=0 note=58 velocity=95 time=0
EXTRACT: note_off channel=0 note=62 velocity=95 time=0.38960999999999996
EXTRACT: note_off channel=0 note=58 velocity=95 time=0
EXTRACT: note_on channel=1 note=55 velocity=95 time=0
EXTRACT: pitchwheel channel=1 pitch=-640 time=0.09740249999999999
EXTRACT: pitchwheel channel=1 pitch=-1408 time=0.09740249999999999
EXTRACT: pitchwheel channel=1 pitch=0 time=0
EXTRACT: note_off channel=1 note=55 velocity=95 time=0
EXTRACT: note_on channel=0 note=53 velocity=95 time=0
EXTRACT: note_off channel=0 note=53 velocity=95 time=0.19480499999999998
EXTRACT: note_on channel=0 note=60 velocity=95 time=0
EXTRACT: note_on channel=0 note=56 velocity=95 time=0
EXTRACT: note_off channel=0 note=60 velocity=95 time=0.38960999999999996
EXTRACT: note_off channel=0 note=56 velocity=95 time=0
EXTRACT: note_on channel=0 note=53 velocity=95 time=0
EXTRACT: note_off channel=0 note=53 velocity=95 time=0.38960999999999996
EXTRACT: note_on channel=0 note=60 velocity=95 time=0
EXTRACT: note_on channel=0 note=56 velocity=95 time=0
EXTRACT: note_off channel=0 note=60 velocity=95 time=0.38960999999999996
EXTRACT: note_off channel=0 note=56 velocity=95 time=0
EXTRACT: note_on channel=0 note=53 velocity=95 time=0
EXTRACT: note_off channel=0 note=53 velocity=95 time=0.38960999999999996
EXTRACT: note_on channel=0 note=62 velocity=95 time=0
EXTRACT: note_on channel=0 note=58 velocity=95 time=0
EXTRACT: note_off channel=0 note=62 velocity=95 time=0.38960999999999996
EXTRACT: note_off channel=0 note=58 velocity=95 time=0
EXTRACT: note_on channel=0 note=53 velocity=95 time=0
EXTRACT: note_off channel=0 note=53 velocity=95 time=0.38960999999999996
EXTRACT: note_on channel=0 note=62 velocity=95 time=0
EXTRACT: note_on channel=0 note=58 velocity=95 time=0
EXTRACT: note_off channel=0 note=62 velocity=95 time=0.38960999999999996
EXTRACT: note_off channel=0 note=58 velocity=95 time=0
EXTRACT: note_on channel=0 note=53 velocity=95 time=0
EXTRACT: note_off channel=0 note=53 velocity=95 time=0.38960999999999996
EXTRACT: note_on channel=0 note=62 velocity=95 time=0
EXTRACT: note_on channel=0 note=58 velocity=95 time=0
EXTRACT: note_off channel=0 note=62 velocity=95 time=0.38960999999999996
EXTRACT: note_off channel=0 note=58 velocity=95 time=0
EXTRACT: note_on channel=0 note=55 velocity=95 time=0
EXTRACT: note_off channel=0 note=55 velocity=95 time=0.38960999999999996
EXTRACT: note_on channel=0 note=62 velocity=95 time=0
EXTRACT: note_on channel=0 note=58 velocity=95 time=0
EXTRACT: note_off channel=0 note=62 velocity=95 time=0.38960999999999996
EXTRACT: note_off channel=0 note=58 velocity=95 time=0
EXTRACT: note_on channel=0 note=55 velocity=95 time=0
EXTRACT: note_off channel=0 note=55 velocity=95 time=0.38960999999999996
EXTRACT: note_on channel=0 note=63 velocity=95 time=0
EXTRACT: note_on channel=0 note=60 velocity=95 time=0
EXTRACT: note_off channel=0 note=63 velocity=95 time=0.38960999999999996
EXTRACT: note_off channel=0 note=60 velocity=95 time=0
EXTRACT: note_on channel=0 note=55 velocity=95 time=0
EXTRACT: note_off channel=0 note=55 velocity=95 time=0.38960999999999996
EXTRACT: note_on channel=0 note=63 velocity=95 time=0
EXTRACT: note_on channel=0 note=60 velocity=95 time=0
EXTRACT: note_off channel=0 note=63 velocity=95 time=0.38960999999999996
EXTRACT: note_off channel=0 note=60 velocity=95 time=0
EXTRACT: note_on channel=1 note=55 velocity=95 time=0
EXTRACT: pitchwheel channel=1 pitch=-640 time=0.09740249999999999
EXTRACT: pitchwheel channel=1 pitch=-1408 time=0.09740249999999999
EXTRACT: pitchwheel channel=1 pitch=0 time=0
EXTRACT: note_off channel=1 note=55 velocity=95 time=0
EXTRACT: note_on channel=0 note=53 velocity=95 time=0
EXTRACT: note_off channel=0 note=53 velocity=95 time=0.19480499999999998
EXTRACT: note_on channel=0 note=60 velocity=95 time=0
EXTRACT: note_on channel=0 note=56 velocity=95 time=0
EXTRACT: note_off channel=0 note=60 velocity=95 time=0.38960999999999996
EXTRACT: note_off channel=0 note=56 velocity=95 time=0
EXTRACT: note_on channel=0 note=53 velocity=95 time=0
EXTRACT: note_off channel=0 note=53 velocity=95 time=0.38960999999999996
EXTRACT: note_on channel=0 note=60 velocity=95 time=0
EXTRACT: note_on channel=0 note=56 velocity=95 time=0
EXTRACT: note_off channel=0 note=60 velocity=95 time=0.38960999999999996
EXTRACT: note_off channel=0 note=56 velocity=95 time=0
EXTRACT: note_on channel=0 note=53 velocity=95 time=0
EXTRACT: note_off channel=0 note=53 velocity=95 time=0.38960999999999996
EXTRACT: note_on channel=0 note=62 velocity=95 time=0
EXTRACT: note_on channel=0 note=58 velocity=95 time=0
EXTRACT: note_off channel=0 note=62 velocity=95 time=0.38960999999999996
EXTRACT: note_off channel=0 note=58 velocity=95 time=0
EXTRACT: note_on channel=0 note=53 velocity=95 time=0
EXTRACT: note_off channel=0 note=53 velocity=95 time=0.38960999999999996
EXTRACT: note_on channel=0 note=62 velocity=95 time=0
EXTRACT: note_on channel=0 note=58 velocity=95 time=0
EXTRACT: note_off channel=0 note=62 velocity=95 time=0.38960999999999996
EXTRACT: note_off channel=0 note=58 velocity=95 time=0
EXTRACT: note_on channel=1 note=55 velocity=95 time=0
EXTRACT: pitchwheel channel=1 pitch=-640 time=0.09740249999999999
EXTRACT: pitchwheel channel=1 pitch=-1408 time=0.09740249999999999
EXTRACT: pitchwheel channel=1 pitch=0 time=0
EXTRACT: note_off channel=1 note=55 velocity=95 time=0
EXTRACT: note_on channel=0 note=53 velocity=95 time=0
EXTRACT: note_on channel=2 note=43 velocity=95 time=0
EXTRACT: note_off channel=0 note=53 velocity=95 time=0.19480499999999998
EXTRACT: note_on channel=0 note=63 velocity=95 time=0
EXTRACT: note_on channel=0 note=60 velocity=95 time=0
EXTRACT: note_off channel=2 note=43 velocity=95 time=0
EXTRACT: note_on channel=2 note=36 velocity=95 time=0
EXTRACT: note_off channel=0 note=63 velocity=95 time=0.38960999999999996
EXTRACT: note_off channel=0 note=60 velocity=95 time=0
EXTRACT: note_on channel=0 note=55 velocity=95 time=0
EXTRACT: note_off channel=0 note=55 velocity=95 time=0.38960999999999996
EXTRACT: note_on channel=0 note=63 velocity=95 time=0
EXTRACT: note_on channel=0 note=60 velocity=95 time=0
EXTRACT: note_off channel=0 note=63 velocity=95 time=0.38960999999999996
EXTRACT: note_off channel=0 note=60 velocity=95 time=0
EXTRACT: note_on channel=0 note=55 velocity=95 time=0
EXTRACT: note_off channel=0 note=55 velocity=95 time=0.38960999999999996
EXTRACT: note_on channel=0 note=62 velocity=95 time=0
EXTRACT: note_on channel=0 note=58 velocity=95 time=0
EXTRACT: note_off channel=2 note=36 velocity=95 time=0
EXTRACT: note_on channel=2 note=31 velocity=95 time=0
EXTRACT: note_off channel=0 note=62 velocity=95 time=0.38960999999999996
EXTRACT: note_off channel=0 note=58 velocity=95 time=0
EXTRACT: note_on channel=0 note=55 velocity=95 time=0
EXTRACT: note_off channel=0 note=55 velocity=95 time=0.38960999999999996
EXTRACT: note_on channel=0 note=62 velocity=95 time=0
EXTRACT: note_on channel=0 note=58 velocity=95 time=0
EXTRACT: note_off channel=0 note=62 velocity=95 time=0.38960999999999996
EXTRACT: note_off channel=0 note=58 velocity=95 time=0
EXTRACT: note_on channel=1 note=55 velocity=95 time=0
EXTRACT: pitchwheel channel=1 pitch=-640 time=0.09740249999999999
EXTRACT: pitchwheel channel=1 pitch=-1408 time=0.09740249999999999
EXTRACT: pitchwheel channel=1 pitch=0 time=0
EXTRACT: note_off channel=1 note=55 velocity=95 time=0
EXTRACT: note_on channel=0 note=53 velocity=95 time=0
EXTRACT: note_off channel=0 note=53 velocity=95 time=0.19480499999999998
EXTRACT: note_on channel=0 note=60 velocity=95 time=0
EXTRACT: note_on channel=0 note=56 velocity=95 time=0
EXTRACT: note_off channel=2 note=31 velocity=95 time=0
EXTRACT: note_on channel=2 note=29 velocity=95 time=0
EXTRACT: note_off channel=0 note=60 velocity=95 time=0.38960999999999996
EXTRACT: note_off channel=0 note=56 velocity=95 time=0
EXTRACT: note_on channel=0 note=53 velocity=95 time=0
EXTRACT: note_off channel=0 note=53 velocity=95 time=0.38960999999999996
EXTRACT: note_on channel=0 note=60 velocity=95 time=0
EXTRACT: note_on channel=0 note=56 velocity=95 time=0
EXTRACT: note_off channel=2 note=29 velocity=95 time=0
EXTRACT: note_off channel=0 note=60 velocity=95 time=0.38960999999999996
EXTRACT: note_off channel=0 note=56 velocity=95 time=0
EXTRACT: note_on channel=0 note=53 velocity=95 time=0
EXTRACT: note_on channel=2 note=32 velocity=95 time=0
EXTRACT: note_off channel=0 note=53 velocity=95 time=0.38960999999999996
EXTRACT: note_on channel=0 note=62 velocity=95 time=0
EXTRACT: note_on channel=0 note=58 velocity=95 time=0
EXTRACT: note_off channel=2 note=32 velocity=95 time=0
EXTRACT: note_on channel=2 note=34 velocity=95 time=0
EXTRACT: note_off channel=0 note=62 velocity=95 time=0.38960999999999996
EXTRACT: note_off channel=0 note=58 velocity=95 time=0
EXTRACT: note_on channel=0 note=53 velocity=95 time=0
EXTRACT: note_off channel=0 note=53 velocity=95 time=0.38960999999999996
EXTRACT: note_on channel=0 note=62 velocity=95 time=0
EXTRACT: note_on channel=0 note=58 velocity=95 time=0
EXTRACT: note_off channel=2 note=34 velocity=95 time=0.38960999999999996
EXTRACT: note_on channel=2 note=38 velocity=95 time=0
EXTRACT: note_off channel=2 note=38 velocity=95 time=0.19480499999999998
EXTRACT: note_on channel=2 note=41 velocity=95 time=0
EXTRACT: note_off channel=0 note=62 velocity=95 time=0.19480499999999998
EXTRACT: note_off channel=0 note=58 velocity=95 time=0
EXTRACT: note_on channel=0 note=67 velocity=95 time=0
EXTRACT: note_on channel=0 note=63 velocity=95 time=0
EXTRACT: note_off channel=2 note=41 velocity=95 time=0
EXTRACT: note_on channel=2 note=39 velocity=95 time=0
EXTRACT: note_off channel=0 note=67 velocity=95 time=0.38960999999999996
EXTRACT: note_off channel=0 note=63 velocity=95 time=0
EXTRACT: note_on channel=0 note=58 velocity=95 time=0
EXTRACT: note_off channel=0 note=58 velocity=95 time=0.38960999999999996
EXTRACT: note_on channel=0 note=67 velocity=95 time=0
EXTRACT: note_on channel=0 note=63 velocity=95 time=0
EXTRACT: note_off channel=0 note=67 velocity=95 time=0.38960999999999996
EXTRACT: note_off channel=0 note=63 velocity=95 time=0
EXTRACT: note_on channel=0 note=58 velocity=95 time=0
EXTRACT: note_off channel=2 note=39 velocity=95 time=0
EXTRACT: note_on channel=2 note=33 velocity=95 time=0
EXTRACT: note_off channel=0 note=58 velocity=95 time=0.38960999999999996
EXTRACT: note_on channel=0 note=65 velocity=95 time=0
EXTRACT: note_on channel=0 note=62 velocity=95 time=0
EXTRACT: note_off channel=2 note=33 velocity=95 time=0
EXTRACT: note_on channel=2 note=34 velocity=95 time=0
EXTRACT: note_off channel=0 note=65 velocity=95 time=0.38960999999999996
EXTRACT: note_off channel=0 note=62 velocity=95 time=0
EXTRACT: note_on channel=0 note=58 velocity=95 time=0
EXTRACT: note_off channel=0 note=58 velocity=95 time=0.38960999999999996
EXTRACT: note_on channel=0 note=65 velocity=95 time=0
EXTRACT: note_on channel=0 note=62 velocity=95 time=0
EXTRACT: note_off channel=0 note=65 velocity=95 time=0.38960999999999996
EXTRACT: note_off channel=0 note=62 velocity=95 time=0
EXTRACT: note_on channel=0 note=65 velocity=95 time=0
EXTRACT: note_on channel=0 note=62 velocity=95 time=0
EXTRACT: note_on channel=0 note=58 velocity=95 time=0
EXTRACT: note_off channel=2 note=34 velocity=95 time=0
EXTRACT: note_on channel=2 note=34 velocity=95 time=0
EXTRACT: note_off channel=0 note=65 velocity=95 time=0.38960999999999996
EXTRACT: note_off channel=0 note=62 velocity=95 time=0
EXTRACT: note_off channel=0 note=58 velocity=95 time=0
EXTRACT: note_on channel=0 note=64 velocity=95 time=0
EXTRACT: note_on channel=0 note=60 velocity=95 time=0
EXTRACT: note_on channel=0 note=55 velocity=95 time=0
EXTRACT: note_off channel=2 note=34 velocity=95 time=0
EXTRACT: note_on channel=2 note=36 velocity=95 time=0
EXTRACT: note_on channel=9 note=40 velocity=95 time=1.5584399999999998
EXTRACT: note_on channel=9 note=38 velocity=95 time=0
EXTRACT: note_off channel=9 note=40 velocity=95 time=0.38960999999999996
EXTRACT: note_off channel=9 note=38 velocity=95 time=0
EXTRACT: note_on channel=9 note=40 velocity=95 time=0
EXTRACT: note_on channel=9 note=38 velocity=95 time=0
EXTRACT: note_off channel=9 note=40 velocity=95 time=0.38960999999999996
EXTRACT: note_off channel=9 note=38 velocity=95 time=0
EXTRACT: note_off channel=2 note=36 velocity=95 time=0.19480499999999998
EXTRACT: note_on channel=3 note=36 velocity=95 time=0
EXTRACT: pitchwheel channel=3 pitch=1664 time=0.09740249999999999
EXTRACT: pitchwheel channel=3 pitch=3456 time=0.09740249999999999
EXTRACT: pitchwheel channel=3 pitch=0 time=0
EXTRACT: note_off channel=3 note=36 velocity=95 time=0
EXTRACT: note_on channel=2 note=41 velocity=95 time=0
EXTRACT: note_on channel=9 note=40 velocity=95 time=0
EXTRACT: note_on channel=9 note=38 velocity=95 time=0
EXTRACT: note_off channel=9 note=40 velocity=95 time=0.19480499999999998
EXTRACT: note_off channel=9 note=38 velocity=95 time=0
EXTRACT: note_on channel=9 note=40 velocity=95 time=0
EXTRACT: note_on channel=9 note=38 velocity=95 time=0
EXTRACT: note_off channel=0 note=64 velocity=95 time=0.19480499999999998
EXTRACT: note_off channel=0 note=60 velocity=95 time=0
EXTRACT: note_off channel=0 note=55 velocity=95 time=0
EXTRACT: note_on channel=0 note=68 velocity=95 time=0
EXTRACT: note_on channel=0 note=65 velocity=95 time=0
EXTRACT: note_on channel=0 note=60 velocity=95 time=0
EXTRACT: note_on channel=0 note=53 velocity=95 time=0
EXTRACT: note_off channel=2 note=41 velocity=95 time=0
EXTRACT: note_on channel=2 note=29 velocity=95 time=0
EXTRACT: note_off channel=9 note=40 velocity=95 time=0
EXTRACT: note_off channel=9 note=38 velocity=95 time=0
EXTRACT: note_on channel=9 note=36 velocity=95 time=0
EXTRACT: note_on channel=9 note=44 velocity=95 time=0
EXTRACT: note_off channel=0 note=68 velocity=95 time=0.38960999999999996
EXTRACT: note_off channel=0 note=65 velocity=95 time=0
EXTRACT: note_off channel=0 note=60 velocity=95 time=0
EXTRACT: note_off channel=0 note=53 velocity=95 time=0
EXTRACT: note_on channel=0 note=59 velocity=95 time=0
EXTRACT: note_on channel=0 note=55 velocity=95 time=0
EXTRACT: note_on channel=0 note=50 velocity=95 time=0
EXTRACT: note_on channel=0 note=45 velocity=95 time=0
EXTRACT: note_off channel=9 note=36 velocity=95 time=0
EXTRACT: note_off channel=9 note=44 velocity=95 time=0
EXTRACT: note_on channel=9 note=44 velocity=95 time=0
EXTRACT: note_off channel=0 note=59 velocity=95 time=0.030844124999999997
EXTRACT: note_off channel=0 note=55 velocity=95 time=0
EXTRACT: note_off channel=0 note=50 velocity=95 time=0
EXTRACT: note_off channel=0 note=45 velocity=95 time=0
EXTRACT: note_on channel=0 note=68 velocity=95 time=0.16396087499999998
EXTRACT: note_on channel=0 note=65 velocity=95 time=0
EXTRACT: note_on channel=0 note=60 velocity=95 time=0
EXTRACT: note_on channel=0 note=53 velocity=95 time=0
EXTRACT: note_off channel=2 note=29 velocity=95 time=0
EXTRACT: note_on channel=2 note=36 velocity=95 time=0
EXTRACT: note_off channel=9 note=44 velocity=95 time=0
EXTRACT: note_on channel=9 note=36 velocity=95 time=0
EXTRACT: note_off channel=0 note=68 velocity=95 time=0.19480499999999998
EXTRACT: note_off channel=0 note=65 velocity=95 time=0
EXTRACT: note_off channel=0 note=60 velocity=95 time=0
EXTRACT: note_off channel=0 note=53 velocity=95 time=0
EXTRACT: note_on channel=0 note=68 velocity=95 time=0
EXTRACT: note_on channel=0 note=65 velocity=95 time=0
EXTRACT: note_on channel=0 note=60 velocity=95 time=0
EXTRACT: note_on channel=0 note=53 velocity=95 time=0
EXTRACT: note_off channel=2 note=36 velocity=95 time=0
EXTRACT: note_on channel=2 note=36 velocity=95 time=0
EXTRACT: note_off channel=9 note=36 velocity=95 time=0
EXTRACT: note_on channel=9 note=38 velocity=95 time=0
EXTRACT: note_on channel=9 note=54 velocity=95 time=0
EXTRACT: note_on channel=9 note=44 velocity=95 time=0
EXTRACT: note_off channel=0 note=68 velocity=95 time=0.19480499999999998
EXTRACT: note_off channel=0 note=65 velocity=95 time=0
EXTRACT: note_off channel=0 note=60 velocity=95 time=0
EXTRACT: note_off channel=0 note=53 velocity=95 time=0
EXTRACT: note_on channel=0 note=68 velocity=95 time=0
EXTRACT: note_on channel=0 note=65 velocity=95 time=0
EXTRACT: note_on channel=0 note=60 velocity=95 time=0
EXTRACT: note_on channel=0 note=53 velocity=95 time=0
EXTRACT: note_off channel=2 note=36 velocity=95 time=0
EXTRACT: note_on channel=2 note=36 velocity=95 time=0
EXTRACT: note_off channel=0 note=68 velocity=95 time=0.19480499999999998
EXTRACT: note_off channel=0 note=65 velocity=95 time=0
EXTRACT: note_off channel=0 note=60 velocity=95 time=0
EXTRACT: note_off channel=0 note=53 velocity=95 time=0
EXTRACT: note_on channel=0 note=59 velocity=95 time=0
EXTRACT: note_on channel=0 note=55 velocity=95 time=0
EXTRACT: note_on channel=0 note=50 velocity=95 time=0
EXTRACT: note_on channel=0 note=45 velocity=95 time=0
EXTRACT: note_off channel=2 note=36 velocity=95 time=0
EXTRACT: note_on channel=2 note=36 velocity=95 time=0
EXTRACT: note_off channel=9 note=38 velocity=95 time=0
EXTRACT: note_off channel=9 note=54 velocity=95 time=0
EXTRACT: note_off channel=9 note=44 velocity=95 time=0
EXTRACT: note_on channel=9 note=44 velocity=95 time=0
EXTRACT: note_off channel=0 note=59 velocity=95 time=0.030844124999999997
EXTRACT: note_off channel=0 note=55 velocity=95 time=0
EXTRACT: note_off channel=0 note=50 velocity=95 time=0
EXTRACT: note_off channel=0 note=45 velocity=95 time=0
EXTRACT: note_on channel=0 note=59 velocity=95 time=0.16396087499999998
EXTRACT: note_on channel=0 note=55 velocity=95 time=0
EXTRACT: note_on channel=0 note=50 velocity=95 time=0
EXTRACT: note_on channel=0 note=45 velocity=95 time=0
EXTRACT: note_off channel=2 note=36 velocity=95 time=0
EXTRACT: note_on channel=2 note=36 velocity=95 time=0
EXTRACT: note_off channel=9 note=44 velocity=95 time=0
EXTRACT: note_on channel=9 note=36 velocity=95 time=0
EXTRACT: note_off channel=0 note=59 velocity=95 time=0.030844124999999997
EXTRACT: note_off channel=0 note=55 velocity=95 time=0
EXTRACT: note_off channel=0 note=50 velocity=95 time=0
EXTRACT: note_off channel=0 note=45 velocity=95 time=0
EXTRACT: note_on channel=0 note=70 velocity=95 time=0.16396087499999998
EXTRACT: note_on channel=0 note=65 velocity=95 time=0
EXTRACT: note_on channel=0 note=61 velocity=95 time=0
EXTRACT: note_on channel=0 note=58 velocity=95 time=0
EXTRACT: note_on channel=0 note=53 velocity=95 time=0
EXTRACT: note_on channel=0 note=46 velocity=95 time=0
EXTRACT: note_off channel=2 note=36 velocity=95 time=0
EXTRACT: note_on channel=2 note=34 velocity=95 time=0
EXTRACT: note_off channel=9 note=36 velocity=95 time=0
EXTRACT: note_on channel=9 note=36 velocity=95 time=0
EXTRACT: note_on channel=9 note=44 velocity=95 time=0
EXTRACT: note_off channel=0 note=70 velocity=95 time=0.19480499999999998
EXTRACT: note_off channel=0 note=65 velocity=95 time=0
EXTRACT: note_off channel=0 note=61 velocity=95 time=0
EXTRACT: note_off channel=0 note=58 velocity=95 time=0
EXTRACT: note_off channel=0 note=53 velocity=95 time=0
EXTRACT: note_off channel=0 note=46 velocity=95 time=0
EXTRACT: note_on channel=0 note=70 velocity=95 time=0
EXTRACT: note_on channel=0 note=65 velocity=95 time=0
EXTRACT: note_on channel=0 note=61 velocity=95 time=0
EXTRACT: note_on channel=0 note=58 velocity=95 time=0
EXTRACT: note_on channel=0 note=53 velocity=95 time=0
EXTRACT: note_on channel=0 note=46 velocity=95 time=0
EXTRACT: note_off channel=0 note=70 velocity=95 time=0.19480499999999998
EXTRACT: note_off channel=0 note=65 velocity=95 time=0
EXTRACT: note_off channel=0 note=61 velocity=95 time=0
EXTRACT: note_off channel=0 note=58 velocity=95 time=0
EXTRACT: note_off channel=0 note=53 velocity=95 time=0
EXTRACT: note_off channel=0 note=46 velocity=95 time=0
EXTRACT: note_on channel=0 note=64 velocity=95 time=0
EXTRACT: note_on channel=0 note=59 velocity=95 time=0
EXTRACT: note_on channel=0 note=55 velocity=95 time=0
EXTRACT: note_on channel=0 note=50 velocity=95 time=0
EXTRACT: note_on channel=0 note=45 velocity=95 time=0
EXTRACT: note_on channel=0 note=40 velocity=95 time=0
EXTRACT: note_off channel=2 note=34 velocity=95 time=0
EXTRACT: note_on channel=2 note=34 velocity=95 time=0
EXTRACT: note_off channel=9 note=36 velocity=95 time=0
EXTRACT: note_off channel=9 note=44 velocity=95 time=0
EXTRACT: note_on channel=9 note=44 velocity=95 time=0
EXTRACT: note_off channel=0 note=64 velocity=95 time=0.030844124999999997
EXTRACT: note_off channel=0 note=59 velocity=95 time=0
EXTRACT: note_off channel=0 note=55 velocity=95 time=0
EXTRACT: note_off channel=0 note=50 velocity=95 time=0
EXTRACT: note_off channel=0 note=45 velocity=95 time=0
EXTRACT: note_off channel=0 note=40 velocity=95 time=0
EXTRACT: note_on channel=0 note=70 velocity=95 time=0.16396087499999998
EXTRACT: note_on channel=0 note=65 velocity=95 time=0
EXTRACT: note_on channel=0 note=61 velocity=95 time=0
EXTRACT: note_on channel=0 note=58 velocity=95 time=0
EXTRACT: note_on channel=0 note=53 velocity=95 time=0
EXTRACT: note_on channel=0 note=46 velocity=95 time=0
EXTRACT: note_off channel=9 note=44 velocity=95 time=0
EXTRACT: note_on channel=9 note=36 velocity=95 time=0
EXTRACT: note_off channel=0 note=70 velocity=95 time=0.19480499999999998
EXTRACT: note_off channel=0 note=65 velocity=95 time=0
EXTRACT: note_off channel=0 note=61 velocity=95 time=0
EXTRACT: note_off channel=0 note=58 velocity=95 time=0
EXTRACT: note_off channel=0 note=53 velocity=95 time=0
EXTRACT: note_off channel=0 note=46 velocity=95 time=0
EXTRACT: note_on channel=0 note=64 velocity=95 time=0
EXTRACT: note_on channel=0 note=59 velocity=95 time=0
EXTRACT: note_on channel=0 note=55 velocity=95 time=0
EXTRACT: note_on channel=0 note=50 velocity=95 time=0
EXTRACT: note_on channel=0 note=45 velocity=95 time=0
EXTRACT: note_on channel=0 note=40 velocity=95 time=0
EXTRACT: note_off channel=2 note=34 velocity=95 time=0
EXTRACT: note_on channel=2 note=29 velocity=95 time=0
EXTRACT: note_off channel=9 note=36 velocity=95 time=0
EXTRACT: note_on channel=9 note=38 velocity=95 time=0
EXTRACT: note_on channel=9 note=54 velocity=95 time=0
EXTRACT: note_on channel=9 note=44 velocity=95 time=0
EXTRACT: note_off channel=0 note=64 velocity=95 time=0.030844124999999997
EXTRACT: note_off channel=0 note=59 velocity=95 time=0
EXTRACT: note_off channel=0 note=55 velocity=95 time=0
EXTRACT: note_off channel=0 note=50 velocity=95 time=0
EXTRACT: note_off channel=0 note=45 velocity=95 time=0
EXTRACT: note_off channel=0 note=40 velocity=95 time=0
EXTRACT: note_on channel=0 note=70 velocity=95 time=0.16396087499999998
EXTRACT: note_on channel=0 note=65 velocity=95 time=0
EXTRACT: note_on channel=0 note=61 velocity=95 time=0
EXTRACT: note_on channel=0 note=58 velocity=95 time=0
EXTRACT: note_on channel=0 note=53 velocity=95 time=0
EXTRACT: note_on channel=0 note=46 velocity=95 time=0
EXTRACT: note_off channel=0 note=70 velocity=95 time=0.19480499999999998
EXTRACT: note_off channel=0 note=65 velocity=95 time=0
EXTRACT: note_off channel=0 note=61 velocity=95 time=0
EXTRACT: note_off channel=0 note=58 velocity=95 time=0
EXTRACT: note_off channel=0 note=53 velocity=95 time=0
EXTRACT: note_off channel=0 note=46 velocity=95 time=0
EXTRACT: note_on channel=0 note=64 velocity=95 time=0
EXTRACT: note_on channel=0 note=59 velocity=95 time=0
EXTRACT: note_on channel=0 note=55 velocity=95 time=0
EXTRACT: note_on channel=0 note=50 velocity=95 time=0
EXTRACT: note_on channel=0 note=45 velocity=95 time=0
EXTRACT: note_on channel=0 note=40 velocity=95 time=0
EXTRACT: note_off channel=9 note=38 velocity=95 time=0
EXTRACT: note_off channel=9 note=54 velocity=95 time=0
EXTRACT: note_off channel=9 note=44 velocity=95 time=0
EXTRACT: note_on channel=9 note=44 velocity=95 time=0
EXTRACT: note_off channel=0 note=64 velocity=95 time=0.030844124999999997
EXTRACT: note_off channel=0 note=59 velocity=95 time=0
EXTRACT: note_off channel=0 note=55 velocity=95 time=0
EXTRACT: note_off channel=0 note=50 velocity=95 time=0
EXTRACT: note_off channel=0 note=45 velocity=95 time=0
EXTRACT: note_off channel=0 note=40 velocity=95 time=0
EXTRACT: note_off channel=9 note=44 velocity=95 time=0.16396087499999998
EXTRACT: note_on channel=0 note=67 velocity=95 time=0.19480499999999998
EXTRACT: note_on channel=0 note=63 velocity=95 time=0
EXTRACT: note_on channel=0 note=58 velocity=95 time=0
EXTRACT: note_on channel=0 note=51 velocity=95 time=0
EXTRACT: note_off channel=2 note=29 velocity=95 time=0
EXTRACT: note_on channel=2 note=39 velocity=95 time=0
EXTRACT: note_on channel=9 note=36 velocity=95 time=0
EXTRACT: note_on channel=9 note=44 velocity=95 time=0
EXTRACT: note_off channel=0 note=67 velocity=95 time=0.19480499999999998
EXTRACT: note_off channel=0 note=63 velocity=95 time=0
EXTRACT: note_off channel=0 note=58 velocity=95 time=0
EXTRACT: note_off channel=0 note=51 velocity=95 time=0
EXTRACT: note_on channel=0 note=67 velocity=95 time=0
EXTRACT: note_on channel=0 note=63 velocity=95 time=0
EXTRACT: note_on channel=0 note=58 velocity=95 time=0
EXTRACT: note_on channel=0 note=51 velocity=95 time=0
EXTRACT: note_off channel=0 note=67 velocity=95 time=0.19480499999999998
EXTRACT: note_off channel=0 note=63 velocity=95 time=0
EXTRACT: note_off channel=0 note=58 velocity=95 time=0
EXTRACT: note_off channel=0 note=51 velocity=95 time=0
EXTRACT: note_on channel=0 note=67 velocity=95 time=0
EXTRACT: note_on channel=0 note=63 velocity=95 time=0
EXTRACT: note_on channel=0 note=58 velocity=95 time=0
EXTRACT: note_on channel=0 note=51 velocity=95 time=0
EXTRACT: note_off channel=2 note=39 velocity=95 time=0
EXTRACT: note_on channel=2 note=46 velocity=95 time=0
EXTRACT: note_off channel=9 note=36 velocity=95 time=0
EXTRACT: note_off channel=9 note=44 velocity=95 time=0
EXTRACT: note_on channel=9 note=44 velocity=95 time=0
EXTRACT: note_off channel=0 note=67 velocity=95 time=0.19480499999999998
EXTRACT: note_off channel=0 note=63 velocity=95 time=0
EXTRACT: note_off channel=0 note=58 velocity=95 time=0
EXTRACT: note_off channel=0 note=51 velocity=95 time=0
EXTRACT: note_on channel=0 note=67 velocity=95 time=0
EXTRACT: note_on channel=0 note=63 velocity=95 time=0
EXTRACT: note_on channel=0 note=58 velocity=95 time=0
EXTRACT: note_on channel=0 note=51 velocity=95 time=0
EXTRACT: note_off channel=2 note=46 velocity=95 time=0
EXTRACT: note_on channel=2 note=46 velocity=95 time=0
EXTRACT: note_off channel=9 note=44 velocity=95 time=0
EXTRACT: note_on channel=9 note=36 velocity=95 time=0
EXTRACT: note_off channel=0 note=67 velocity=95 time=0.19480499999999998
EXTRACT: note_off channel=0 note=63 velocity=95 time=0
EXTRACT: note_off channel=0 note=58 velocity=95 time=0
EXTRACT: note_off channel=0 note=51 velocity=95 time=0
EXTRACT: note_on channel=0 note=67 velocity=95 time=0
EXTRACT: note_on channel=0 note=63 velocity=95 time=0
EXTRACT: note_on channel=0 note=58 velocity=95 time=0
EXTRACT: note_on channel=0 note=51 velocity=95 time=0
EXTRACT: note_off channel=2 note=46 velocity=95 time=0
EXTRACT: note_on channel=2 note=46 velocity=95 time=0
EXTRACT: note_off channel=9 note=36 velocity=95 time=0
EXTRACT: note_on channel=9 note=38 velocity=95 time=0
EXTRACT: note_on channel=9 note=54 velocity=95 time=0
EXTRACT: note_on channel=9 note=44 velocity=95 time=0
EXTRACT: note_off channel=0 note=67 velocity=95 time=0.19480499999999998
EXTRACT: note_off channel=0 note=63 velocity=95 time=0
EXTRACT: note_off channel=0 note=58 velocity=95 time=0
EXTRACT: note_off channel=0 note=51 velocity=95 time=0
EXTRACT: note_on channel=0 note=67 velocity=95 time=0
EXTRACT: note_on channel=0 note=63 velocity=95 time=0
EXTRACT: note_on channel=0 note=58 velocity=95 time=0
EXTRACT: note_on channel=0 note=51 velocity=95 time=0
EXTRACT: note_off channel=2 note=46 velocity=95 time=0
EXTRACT: note_on channel=2 note=46 velocity=95 time=0
EXTRACT: note_off channel=0 note=67 velocity=95 time=0.19480499999999998
EXTRACT: note_off channel=0 note=63 velocity=95 time=0
EXTRACT: note_off channel=0 note=58 velocity=95 time=0
EXTRACT: note_off channel=0 note=51 velocity=95 time=0
EXTRACT: note_on channel=0 note=59 velocity=95 time=0
EXTRACT: note_on channel=0 note=55 velocity=95 time=0
EXTRACT: note_on channel=0 note=50 velocity=95 time=0
EXTRACT: note_on channel=0 note=45 velocity=95 time=0
EXTRACT: note_off channel=2 note=46 velocity=95 time=0
EXTRACT: note_on channel=2 note=34 velocity=95 time=0
EXTRACT: note_off channel=9 note=38 velocity=95 time=0
EXTRACT: note_off channel=9 note=54 velocity=95 time=0
EXTRACT: note_off channel=9 note=44 velocity=95 time=0
EXTRACT: note_on channel=9 note=44 velocity=95 time=0
EXTRACT: note_off channel=0 note=59 velocity=95 time=0.030844124999999997
EXTRACT: note_off channel=0 note=55 velocity=95 time=0
EXTRACT: note_off channel=0 note=50 velocity=95 time=0
EXTRACT: note_off channel=0 note=45 velocity=95 time=0
EXTRACT: note_on channel=0 note=59 velocity=95 time=0.16396087499999998
EXTRACT: note_on channel=0 note=55 velocity=95 time=0
EXTRACT: note_on channel=0 note=50 velocity=95 time=0
EXTRACT: note_on channel=0 note=45 velocity=95 time=0
EXTRACT: note_off channel=2 note=34 velocity=95 time=0
EXTRACT: note_on channel=2 note=35 velocity=95 time=0
EXTRACT: note_off channel=9 note=44 velocity=95 time=0
EXTRACT: note_on channel=9 note=36 velocity=95 time=0
EXTRACT: note_off channel=0 note=59 velocity=95 time=0.030844124999999997
EXTRACT: note_off channel=0 note=55 velocity=95 time=0
EXTRACT: note_off channel=0 note=50 velocity=95 time=0
EXTRACT: note_off channel=0 note=45 velocity=95 time=0
EXTRACT: note_on channel=0 note=72 velocity=95 time=0.16396087499999998
EXTRACT: note_on channel=0 note=67 velocity=95 time=0
EXTRACT: note_on channel=0 note=64 velocity=95 time=0
EXTRACT: note_on channel=0 note=60 velocity=95 time=0
EXTRACT: note_on channel=0 note=55 velocity=95 time=0
EXTRACT: note_on channel=0 note=48 velocity=95 time=0
EXTRACT: note_off channel=2 note=35 velocity=95 time=0
EXTRACT: note_on channel=2 note=36 velocity=95 time=0
EXTRACT: note_off channel=9 note=36 velocity=95 time=0
EXTRACT: note_on channel=9 note=36 velocity=95 time=0
EXTRACT: note_on channel=9 note=44 velocity=95 time=0
EXTRACT: note_off channel=0 note=72 velocity=95 time=0.19480499999999998
EXTRACT: note_off channel=0 note=67 velocity=95 time=0
EXTRACT: note_off channel=0 note=64 velocity=95 time=0
EXTRACT: note_off channel=0 note=60 velocity=95 time=0
EXTRACT: note_off channel=0 note=55 velocity=95 time=0
EXTRACT: note_off channel=0 note=48 velocity=95 time=0
EXTRACT: note_on channel=0 note=64 velocity=95 time=0
EXTRACT: note_on channel=0 note=59 velocity=95 time=0
EXTRACT: note_on channel=0 note=55 velocity=95 time=0
EXTRACT: note_on channel=0 note=50 velocity=95 time=0
EXTRACT: note_on channel=0 note=45 velocity=95 time=0
EXTRACT: note_on channel=0 note=40 velocity=95 time=0
EXTRACT: note_off channel=0 note=64 velocity=95 time=0.030844124999999997
EXTRACT: note_off channel=0 note=59 velocity=95 time=0
EXTRACT: note_off channel=0 note=55 velocity=95 time=0
EXTRACT: note_off channel=0 note=50 velocity=95 time=0
EXTRACT: note_off channel=0 note=45 velocity=95 time=0
EXTRACT: note_off channel=0 note=40 velocity=95 time=0
EXTRACT: note_on channel=0 note=64 velocity=95 time=0.16396087499999998
EXTRACT: note_on channel=0 note=59 velocity=95 time=0
EXTRACT: note_on channel=0 note=55 velocity=95 time=0
EXTRACT: note_on channel=0 note=50 velocity=95 time=0
EXTRACT: note_on channel=0 note=45 velocity=95 time=0
EXTRACT: note_on channel=0 note=40 velocity=95 time=0
EXTRACT: note_off channel=2 note=36 velocity=95 time=0
EXTRACT: note_on channel=2 note=36 velocity=95 time=0
EXTRACT: note_off channel=9 note=36 velocity=95 time=0
EXTRACT: note_off channel=9 note=44 velocity=95 time=0
EXTRACT: note_on channel=9 note=44 velocity=95 time=0
EXTRACT: note_off channel=0 note=64 velocity=95 time=0.030844124999999997
EXTRACT: note_off channel=0 note=59 velocity=95 time=0
EXTRACT: note_off channel=0 note=55 velocity=95 time=0
EXTRACT: note_off channel=0 note=50 velocity=95 time=0
EXTRACT: note_off channel=0 note=45 velocity=95 time=0
EXTRACT: note_off channel=0 note=40 velocity=95 time=0
EXTRACT: note_on channel=0 note=72 velocity=95 time=0.16396087499999998
EXTRACT: note_on channel=0 note=67 velocity=95 time=0
EXTRACT: note_on channel=0 note=64 velocity=95 time=0
EXTRACT: note_on channel=0 note=60 velocity=95 time=0
EXTRACT: note_on channel=0 note=55 velocity=95 time=0
EXTRACT: note_on channel=0 note=48 velocity=95 time=0
EXTRACT: note_off channel=9 note=44 velocity=95 time=0
EXTRACT: note_on channel=9 note=36 velocity=95 time=0
EXTRACT: note_off channel=0 note=72 velocity=95 time=0.19480499999999998
EXTRACT: note_off channel=0 note=67 velocity=95 time=0
EXTRACT: note_off channel=0 note=64 velocity=95 time=0
EXTRACT: note_off channel=0 note=60 velocity=95 time=0
EXTRACT: note_off channel=0 note=55 velocity=95 time=0
EXTRACT: note_off channel=0 note=48 velocity=95 time=0
EXTRACT: note_on channel=0 note=72 velocity=95 time=0
EXTRACT: note_on channel=0 note=67 velocity=95 time=0
EXTRACT: note_on channel=0 note=64 velocity=95 time=0
EXTRACT: note_on channel=0 note=60 velocity=95 time=0
EXTRACT: note_on channel=0 note=55 velocity=95 time=0
EXTRACT: note_on channel=0 note=48 velocity=95 time=0
EXTRACT: note_off channel=2 note=36 velocity=95 time=0
EXTRACT: note_on channel=2 note=31 velocity=95 time=0
EXTRACT: note_off channel=9 note=36 velocity=95 time=0
EXTRACT: note_on channel=9 note=38 velocity=95 time=0
EXTRACT: note_on channel=9 note=54 velocity=95 time=0
EXTRACT: note_on channel=9 note=44 velocity=95 time=0
EXTRACT: note_off channel=0 note=72 velocity=95 time=0.19480499999999998
EXTRACT: note_off channel=0 note=67 velocity=95 time=0
EXTRACT: note_off channel=0 note=64 velocity=95 time=0
EXTRACT: note_off channel=0 note=60 velocity=95 time=0
EXTRACT: note_off channel=0 note=55 velocity=95 time=0
EXTRACT: note_off channel=0 note=48 velocity=95 time=0
EXTRACT: note_on channel=0 note=72 velocity=95 time=0
EXTRACT: note_on channel=0 note=67 velocity=95 time=0
EXTRACT: note_on channel=0 note=64 velocity=95 time=0
EXTRACT: note_on channel=0 note=60 velocity=95 time=0
EXTRACT: note_on channel=0 note=55 velocity=95 time=0
EXTRACT: note_on channel=0 note=48 velocity=95 time=0
EXTRACT: note_off channel=0 note=72 velocity=95 time=0.19480499999999998
EXTRACT: note_off channel=0 note=67 velocity=95 time=0
EXTRACT: note_off channel=0 note=64 velocity=95 time=0
EXTRACT: note_off channel=0 note=60 velocity=95 time=0
EXTRACT: note_off channel=0 note=55 velocity=95 time=0
EXTRACT: note_off channel=0 note=48 velocity=95 time=0
EXTRACT: note_on channel=0 note=64 velocity=95 time=0
EXTRACT: note_on channel=0 note=59 velocity=95 time=0
EXTRACT: note_on channel=0 note=55 velocity=95 time=0
EXTRACT: note_on channel=0 note=50 velocity=95 time=0
EXTRACT: note_on channel=0 note=45 velocity=95 time=0
EXTRACT: note_on channel=0 note=40 velocity=95 time=0
EXTRACT: note_off channel=2 note=31 velocity=95 time=0
EXTRACT: note_on channel=2 note=36 velocity=95 time=0
EXTRACT: note_off channel=9 note=38 velocity=95 time=0
EXTRACT: note_off channel=9 note=54 velocity=95 time=0
EXTRACT: note_off channel=9 note=44 velocity=95 time=0
EXTRACT: note_on channel=9 note=44 velocity=95 time=0
EXTRACT: note_off channel=0 note=64 velocity=95 time=0.030844124999999997
EXTRACT: note_off channel=0 note=59 velocity=95 time=0
EXTRACT: note_off channel=0 note=55 velocity=95 time=0
EXTRACT: note_off channel=0 note=50 velocity=95 time=0
EXTRACT: note_off channel=0 note=45 velocity=95 time=0
EXTRACT: note_off channel=0 note=40 velocity=95 time=0
EXTRACT: note_on channel=0 note=64 velocity=95 time=0.16396087499999998
EXTRACT: note_on channel=0 note=59 velocity=95 time=0
EXTRACT: note_on channel=0 note=55 velocity=95 time=0
EXTRACT: note_on channel=0 note=50 velocity=95 time=0
EXTRACT: note_on channel=0 note=45 velocity=95 time=0
EXTRACT: note_on channel=0 note=40 velocity=95 time=0
EXTRACT: note_off channel=2 note=36 velocity=95 time=0
EXTRACT: note_on channel=2 note=35 velocity=95 time=0
EXTRACT: note_off channel=9 note=44 velocity=95 time=0
EXTRACT: note_off channel=0 note=64 velocity=95 time=0.030844124999999997
EXTRACT: note_off channel=0 note=59 velocity=95 time=0
EXTRACT: note_off channel=0 note=55 velocity=95 time=0
EXTRACT: note_off channel=0 note=50 velocity=95 time=0
EXTRACT: note_off channel=0 note=45 velocity=95 time=0
EXTRACT: note_off channel=0 note=40 velocity=95 time=0
EXTRACT: note_on channel=0 note=70 velocity=95 time=0.16396087499999998
EXTRACT: note_on channel=0 note=65 velocity=95 time=0
EXTRACT: note_on channel=0 note=61 velocity=95 time=0
EXTRACT: note_on channel=0 note=58 velocity=95 time=0
EXTRACT: note_on channel=0 note=53 velocity=95 time=0
EXTRACT: note_on channel=0 note=46 velocity=95 time=0
EXTRACT: note_off channel=2 note=35 velocity=95 time=0
EXTRACT: note_on channel=2 note=34 velocity=95 time=0
EXTRACT: note_on channel=9 note=36 velocity=95 time=0
EXTRACT: note_on channel=9 note=44 velocity=95 time=0
EXTRACT: note_off channel=0 note=70 velocity=95 time=0.19480499999999998
EXTRACT: note_off channel=0 note=65 velocity=95 time=0
EXTRACT: note_off channel=0 note=61 velocity=95 time=0
EXTRACT: note_off channel=0 note=58 velocity=95 time=0
EXTRACT: note_off channel=0 note=53 velocity=95 time=0
EXTRACT: note_off channel=0 note=46 velocity=95 time=0
EXTRACT: note_on channel=0 note=70 velocity=95 time=0
EXTRACT: note_on channel=0 note=65 velocity=95 time=0
EXTRACT: note_on channel=0 note=61 velocity=95 time=0
EXTRACT: note_on channel=0 note=58 velocity=95 time=0
EXTRACT: note_on channel=0 note=53 velocity=95 time=0
EXTRACT: note_on channel=0 note=46 velocity=95 time=0
EXTRACT: note_off channel=0 note=70 velocity=95 time=0.19480499999999998
EXTRACT: note_off channel=0 note=65 velocity=95 time=0
EXTRACT: note_off channel=0 note=61 velocity=95 time=0
EXTRACT: note_off channel=0 note=58 velocity=95 time=0
EXTRACT: note_off channel=0 note=53 velocity=95 time=0
EXTRACT: note_off channel=0 note=46 velocity=95 time=0
EXTRACT: note_on channel=0 note=70 velocity=95 time=0
EXTRACT: note_on channel=0 note=65 velocity=95 time=0
EXTRACT: note_on channel=0 note=61 velocity=95 time=0
EXTRACT: note_on channel=0 note=58 velocity=95 time=0
EXTRACT: note_on channel=0 note=53 velocity=95 time=0
EXTRACT: note_on channel=0 note=46 velocity=95 time=0
EXTRACT: note_off channel=2 note=34 velocity=95 time=0
EXTRACT: note_on channel=2 note=41 velocity=95 time=0
EXTRACT: note_off channel=9 note=36 velocity=95 time=0
EXTRACT: note_off channel=9 note=44 velocity=95 time=0
EXTRACT: note_on channel=9 note=44 velocity=95 time=0
EXTRACT: note_off channel=0 note=70 velocity=95 time=0.19480499999999998
EXTRACT: note_off channel=0 note=65 velocity=95 time=0
EXTRACT: note_off channel=0 note=61 velocity=95 time=0
EXTRACT: note_off channel=0 note=58 velocity=95 time=0
EXTRACT: note_off channel=0 note=53 velocity=95 time=0
EXTRACT: note_off channel=0 note=46 velocity=95 time=0
EXTRACT: note_on channel=0 note=70 velocity=95 time=0
EXTRACT: note_on channel=0 note=65 velocity=95 time=0
EXTRACT: note_on channel=0 note=61 velocity=95 time=0
EXTRACT: note_on channel=0 note=58 velocity=95 time=0
EXTRACT: note_on channel=0 note=53 velocity=95 time=0
EXTRACT: note_on channel=0 note=46 velocity=95 time=0
EXTRACT: note_off channel=2 note=41 velocity=95 time=0
EXTRACT: note_on channel=2 note=41 velocity=95 time=0
EXTRACT: note_off channel=9 note=44 velocity=95 time=0
EXTRACT: note_on channel=9 note=36 velocity=95 time=0
EXTRACT: note_off channel=0 note=70 velocity=95 time=0.19480499999999998
EXTRACT: note_off channel=0 note=65 velocity=95 time=0
EXTRACT: note_off channel=0 note=61 velocity=95 time=0
EXTRACT: note_off channel=0 note=58 velocity=95 time=0
EXTRACT: note_off channel=0 note=53 velocity=95 time=0
EXTRACT: note_off channel=0 note=46 velocity=95 time=0
EXTRACT: note_on channel=0 note=70 velocity=95 time=0
EXTRACT: note_on channel=0 note=65 velocity=95 time=0
EXTRACT: note_on channel=0 note=61 velocity=95 time=0
EXTRACT: note_on channel=0 note=58 velocity=95 time=0
EXTRACT: note_on channel=0 note=53 velocity=95 time=0
EXTRACT: note_on channel=0 note=46 velocity=95 time=0
EXTRACT: note_off channel=2 note=41 velocity=95 time=0
EXTRACT: note_on channel=2 note=41 velocity=95 time=0
EXTRACT: note_off channel=9 note=36 velocity=95 time=0
EXTRACT: note_on channel=9 note=38 velocity=95 time=0
EXTRACT: note_on channel=9 note=54 velocity=95 time=0
EXTRACT: note_on channel=9 note=44 velocity=95 time=0
EXTRACT: note_off channel=0 note=70 velocity=95 time=0.19480499999999998
EXTRACT: note_off channel=0 note=65 velocity=95 time=0
EXTRACT: note_off channel=0 note=61 velocity=95 time=0
EXTRACT: note_off channel=0 note=58 velocity=95 time=0
EXTRACT: note_off channel=0 note=53 velocity=95 time=0
EXTRACT: note_off channel=0 note=46 velocity=95 time=0
EXTRACT: note_on channel=0 note=70 velocity=95 time=0
EXTRACT: note_on channel=0 note=65 velocity=95 time=0
EXTRACT: note_on channel=0 note=61 velocity=95 time=0
EXTRACT: note_on channel=0 note=58 velocity=95 time=0
EXTRACT: note_on channel=0 note=53 velocity=95 time=0
EXTRACT: note_on channel=0 note=46 velocity=95 time=0
EXTRACT: note_off channel=2 note=41 velocity=95 time=0
EXTRACT: note_on channel=2 note=41 velocity=95 time=0
EXTRACT: note_off channel=0 note=70 velocity=95 time=0.19480499999999998
EXTRACT: note_off channel=0 note=65 velocity=95 time=0
EXTRACT: note_off channel=0 note=61 velocity=95 time=0
EXTRACT: note_off channel=0 note=58 velocity=95 time=0
EXTRACT: note_off channel=0 note=53 velocity=95 time=0
EXTRACT: note_off channel=0 note=46 velocity=95 time=0
EXTRACT: note_on channel=0 note=64 velocity=95 time=0
EXTRACT: note_on channel=0 note=59 velocity=95 time=0
EXTRACT: note_on channel=0 note=55 velocity=95 time=0
EXTRACT: note_on channel=0 note=50 velocity=95 time=0
EXTRACT: note_on channel=0 note=45 velocity=95 time=0
EXTRACT: note_on channel=0 note=40 velocity=95 time=0
EXTRACT: note_off channel=2 note=41 velocity=95 time=0
EXTRACT: note_on channel=2 note=34 velocity=95 time=0
EXTRACT: note_off channel=9 note=38 velocity=95 time=0
EXTRACT: note_off channel=9 note=54 velocity=95 time=0
EXTRACT: note_off channel=9 note=44 velocity=95 time=0
EXTRACT: note_on channel=9 note=44 velocity=95 time=0
EXTRACT: note_off channel=0 note=64 velocity=95 time=0.030844124999999997
EXTRACT: note_off channel=0 note=59 velocity=95 time=0
EXTRACT: note_off channel=0 note=55 velocity=95 time=0
EXTRACT: note_off channel=0 note=50 velocity=95 time=0
EXTRACT: note_off channel=0 note=45 velocity=95 time=0
EXTRACT: note_off channel=0 note=40 velocity=95 time=0
EXTRACT: note_off channel=2 note=34 velocity=95 time=0.16396087499999998
EXTRACT: note_on channel=2 note=35 velocity=95 time=0
EXTRACT: note_off channel=9 note=44 velocity=95 time=0
EXTRACT: note_on channel=9 note=36 velocity=95 time=0
EXTRACT: note_on channel=0 note=72 velocity=95 time=0.19480499999999998
EXTRACT: note_on channel=0 note=67 velocity=95 time=0
EXTRACT: note_on channel=0 note=64 velocity=95 time=0
EXTRACT: note_on channel=0 note=60 velocity=95 time=0
EXTRACT: note_on channel=0 note=55 velocity=95 time=0
EXTRACT: note_on channel=0 note=48 velocity=95 time=0
EXTRACT: note_off channel=2 note=35 velocity=95 time=0
EXTRACT: note_on channel=2 note=36 velocity=95 time=0
EXTRACT: note_off channel=9 note=36 velocity=95 time=0
EXTRACT: note_on channel=9 note=36 velocity=95 time=0
EXTRACT: note_on channel=9 note=44 velocity=95 time=0
EXTRACT: note_off channel=0 note=72 velocity=95 time=0.19480499999999998
EXTRACT: note_off channel=0 note=67 velocity=95 time=0
EXTRACT: note_off channel=0 note=64 velocity=95 time=0
EXTRACT: note_off channel=0 note=60 velocity=95 time=0
EXTRACT: note_off channel=0 note=55 velocity=95 time=0
EXTRACT: note_off channel=0 note=48 velocity=95 time=0
EXTRACT: note_on channel=0 note=64 velocity=95 time=0
EXTRACT: note_on channel=0 note=59 velocity=95 time=0
EXTRACT: note_on channel=0 note=55 velocity=95 time=0
EXTRACT: note_on channel=0 note=50 velocity=95 time=0
EXTRACT: note_on channel=0 note=45 velocity=95 time=0
EXTRACT: note_on channel=0 note=40 velocity=95 time=0
EXTRACT: note_off channel=0 note=64 velocity=95 time=0.030844124999999997
EXTRACT: note_off channel=0 note=59 velocity=95 time=0
EXTRACT: note_off channel=0 note=55 velocity=95 time=0
EXTRACT: note_off channel=0 note=50 velocity=95 time=0
EXTRACT: note_off channel=0 note=45 velocity=95 time=0
EXTRACT: note_off channel=0 note=40 velocity=95 time=0
EXTRACT: note_on channel=0 note=64 velocity=95 time=0.16396087499999998
EXTRACT: note_on channel=0 note=59 velocity=95 time=0
EXTRACT: note_on channel=0 note=55 velocity=95 time=0
EXTRACT: note_on channel=0 note=50 velocity=95 time=0
EXTRACT: note_on channel=0 note=45 velocity=95 time=0
EXTRACT: note_on channel=0 note=40 velocity=95 time=0
EXTRACT: note_off channel=2 note=36 velocity=95 time=0
EXTRACT: note_off channel=9 note=36 velocity=95 time=0
EXTRACT: note_off channel=9 note=44 velocity=95 time=0
EXTRACT: note_on channel=9 note=44 velocity=95 time=0
EXTRACT: note_off channel=0 note=64 velocity=95 time=0.030844124999999997
EXTRACT: note_off channel=0 note=59 velocity=95 time=0
EXTRACT: note_off channel=0 note=55 velocity=95 time=0
EXTRACT: note_off channel=0 note=50 velocity=95 time=0
EXTRACT: note_off channel=0 note=45 velocity=95 time=0
EXTRACT: note_off channel=0 note=40 velocity=95 time=0
EXTRACT: note_on channel=0 note=72 velocity=95 time=0.16396087499999998
EXTRACT: note_on channel=0 note=67 velocity=95 time=0
EXTRACT: note_on channel=0 note=64 velocity=95 time=0
EXTRACT: note_on channel=0 note=60 velocity=95 time=0
EXTRACT: note_on channel=0 note=55 velocity=95 time=0
EXTRACT: note_on channel=0 note=48 velocity=95 time=0
EXTRACT: note_on channel=2 note=43 velocity=95 time=0
EXTRACT: note_off channel=9 note=44 velocity=95 time=0
EXTRACT: note_on channel=9 note=36 velocity=95 time=0
EXTRACT: note_off channel=0 note=72 velocity=95 time=0.19480499999999998
EXTRACT: note_off channel=0 note=67 velocity=95 time=0
EXTRACT: note_off channel=0 note=64 velocity=95 time=0
EXTRACT: note_off channel=0 note=60 velocity=95 time=0
EXTRACT: note_off channel=0 note=55 velocity=95 time=0
EXTRACT: note_off channel=0 note=48 velocity=95 time=0
EXTRACT: note_on channel=0 note=72 velocity=95 time=0
EXTRACT: note_on channel=0 note=67 velocity=95 time=0
EXTRACT: note_on channel=0 note=64 velocity=95 time=0
EXTRACT: note_on channel=0 note=60 velocity=95 time=0
EXTRACT: note_on channel=0 note=55 velocity=95 time=0
EXTRACT: note_on channel=0 note=48 velocity=95 time=0
EXTRACT: note_off channel=2 note=43 velocity=95 time=0
EXTRACT: note_on channel=2 note=43 velocity=95 time=0
EXTRACT: note_off channel=9 note=36 velocity=95 time=0
EXTRACT: note_on channel=9 note=38 velocity=95 time=0
EXTRACT: note_on channel=9 note=54 velocity=95 time=0
EXTRACT: note_on channel=9 note=44 velocity=95 time=0
EXTRACT: note_off channel=0 note=72 velocity=95 time=0.19480499999999998
EXTRACT: note_off channel=0 note=67 velocity=95 time=0
EXTRACT: note_off channel=0 note=64 velocity=95 time=0
EXTRACT: note_off channel=0 note=60 velocity=95 time=0
EXTRACT: note_off channel=0 note=55 velocity=95 time=0
EXTRACT: note_off channel=0 note=48 velocity=95 time=0
EXTRACT: note_on channel=0 note=72 velocity=95 time=0
EXTRACT: note_on channel=0 note=67 velocity=95 time=0
EXTRACT: note_on channel=0 note=64 velocity=95 time=0
EXTRACT: note_on channel=0 note=60 velocity=95 time=0
EXTRACT: note_on channel=0 note=55 velocity=95 time=0
EXTRACT: note_on channel=0 note=48 velocity=95 time=0
EXTRACT: note_off channel=2 note=43 velocity=95 time=0
EXTRACT: note_on channel=2 note=43 velocity=95 time=0
EXTRACT: note_off channel=0 note=72 velocity=95 time=0.19480499999999998
EXTRACT: note_off channel=0 note=67 velocity=95 time=0
EXTRACT: note_off channel=0 note=64 velocity=95 time=0
EXTRACT: note_off channel=0 note=60 velocity=95 time=0
EXTRACT: note_off channel=0 note=55 velocity=95 time=0
EXTRACT: note_off channel=0 note=48 velocity=95 time=0
EXTRACT: note_on channel=0 note=64 velocity=95 time=0
EXTRACT: note_on channel=0 note=59 velocity=95 time=0
EXTRACT: note_on channel=0 note=55 velocity=95 time=0
EXTRACT: note_on channel=0 note=50 velocity=95 time=0
EXTRACT: note_on channel=0 note=45 velocity=95 time=0
EXTRACT: note_on channel=0 note=40 velocity=95 time=0
EXTRACT: note_off channel=2 note=43 velocity=95 time=0
EXTRACT: note_on channel=2 note=43 velocity=95 time=0
EXTRACT: note_off channel=9 note=38 velocity=95 time=0
EXTRACT: note_off channel=9 note=54 velocity=95 time=0
EXTRACT: note_off channel=9 note=44 velocity=95 time=0
EXTRACT: note_on channel=9 note=44 velocity=95 time=0
EXTRACT: note_off channel=0 note=64 velocity=95 time=0.030844124999999997
EXTRACT: note_off channel=0 note=59 velocity=95 time=0
EXTRACT: note_off channel=0 note=55 velocity=95 time=0
EXTRACT: note_off channel=0 note=50 velocity=95 time=0
EXTRACT: note_off channel=0 note=45 velocity=95 time=0
EXTRACT: note_off channel=0 note=40 velocity=95 time=0
EXTRACT: note_on channel=0 note=64 velocity=95 time=0.16396087499999998
EXTRACT: note_on channel=0 note=59 velocity=95 time=0
EXTRACT: note_on channel=0 note=55 velocity=95 time=0
EXTRACT: note_on channel=0 note=50 velocity=95 time=0
EXTRACT: note_on channel=0 note=45 velocity=95 time=0
EXTRACT: note_on channel=0 note=40 velocity=95 time=0
EXTRACT: note_off channel=9 note=44 velocity=95 time=0
EXTRACT: note_off channel=0 note=64 velocity=95 time=0.030844124999999997
EXTRACT: note_off channel=0 note=59 velocity=95 time=0
EXTRACT: note_off channel=0 note=55 velocity=95 time=0
EXTRACT: note_off channel=0 note=50 velocity=95 time=0
EXTRACT: note_off channel=0 note=45 velocity=95 time=0
EXTRACT: note_off channel=0 note=40 velocity=95 time=0
EXTRACT: note_on channel=0 note=68 velocity=95 time=0.16396087499999998
EXTRACT: note_on channel=0 note=65 velocity=95 time=0
EXTRACT: note_on channel=0 note=60 velocity=95 time=0
EXTRACT: note_on channel=0 note=53 velocity=95 time=0
EXTRACT: note_off channel=2 note=43 velocity=95 time=0
EXTRACT: note_on channel=2 note=29 velocity=95 time=0
EXTRACT: note_on channel=9 note=36 velocity=95 time=0
EXTRACT: note_on channel=9 note=44 velocity=95 time=0
EXTRACT: note_off channel=0 note=68 velocity=95 time=0.19480499999999998
EXTRACT: note_off channel=0 note=65 velocity=95 time=0
EXTRACT: note_off channel=0 note=60 velocity=95 time=0
EXTRACT: note_off channel=0 note=53 velocity=95 time=0
EXTRACT: note_on channel=0 note=68 velocity=95 time=0
EXTRACT: note_on channel=0 note=65 velocity=95 time=0
EXTRACT: note_on channel=0 note=60 velocity=95 time=0
EXTRACT: note_on channel=0 note=53 velocity=95 time=0
EXTRACT: note_off channel=9 note=36 velocity=95 time=0.19480499999999998
EXTRACT: note_off channel=9 note=44 velocity=95 time=0
EXTRACT: note_on channel=9 note=44 velocity=95 time=0
EXTRACT: note_off channel=0 note=68 velocity=95 time=0.19480499999999998
EXTRACT: note_off channel=0 note=65 velocity=95 time=0
EXTRACT: note_off channel=0 note=60 velocity=95 time=0
EXTRACT: note_off channel=0 note=53 velocity=95 time=0
EXTRACT: note_on channel=0 note=68 velocity=95 time=0
EXTRACT: note_on channel=0 note=65 velocity=95 time=0
EXTRACT: note_on channel=0 note=60 velocity=95 time=0
EXTRACT: note_on channel=0 note=53 velocity=95 time=0
EXTRACT: note_off channel=2 note=29 velocity=95 time=0
EXTRACT: note_on channel=2 note=29 velocity=95 time=0
EXTRACT: note_off channel=9 note=44 velocity=95 time=0
EXTRACT: note_on channel=9 note=36 velocity=95 time=0
EXTRACT: note_off channel=0 note=68 velocity=95 time=0.19480499999999998
EXTRACT: note_off channel=0 note=65 velocity=95 time=0
EXTRACT: note_off channel=0 note=60 velocity=95 time=0
EXTRACT: note_off channel=0 note=53 velocity=95 time=0
EXTRACT: note_on channel=0 note=68 velocity=95 time=0
EXTRACT: note_on channel=0 note=65 velocity=95 time=0
EXTRACT: note_on channel=0 note=60 velocity=95 time=0
EXTRACT: note_on channel=0 note=53 velocity=95 time=0
EXTRACT: note_off channel=2 note=29 velocity=95 time=0
EXTRACT: note_on channel=2 note=31 velocity=95 time=0
EXTRACT: note_off channel=9 note=36 velocity=95 time=0
EXTRACT: note_on channel=9 note=38 velocity=95 time=0
EXTRACT: note_on channel=9 note=54 velocity=95 time=0
EXTRACT: note_on channel=9 note=44 velocity=95 time=0
EXTRACT: note_off channel=0 note=68 velocity=95 time=0.19480499999999998
EXTRACT: note_off channel=0 note=65 velocity=95 time=0
EXTRACT: note_off channel=0 note=60 velocity=95 time=0
EXTRACT: note_off channel=0 note=53 velocity=95 time=0
EXTRACT: note_on channel=0 note=68 velocity=95 time=0
EXTRACT: note_on channel=0 note=65 velocity=95 time=0
EXTRACT: note_on channel=0 note=60 velocity=95 time=0
EXTRACT: note_on channel=0 note=53 velocity=95 time=0
EXTRACT: note_off channel=2 note=31 velocity=95 time=0
EXTRACT: note_on channel=2 note=32 velocity=95 time=0
EXTRACT: note_off channel=0 note=68 velocity=95 time=0.19480499999999998
EXTRACT: note_off channel=0 note=65 velocity=95 time=0
EXTRACT: note_off channel=0 note=60 velocity=95 time=0
EXTRACT: note_off channel=0 note=53 velocity=95 time=0
EXTRACT: note_on channel=0 note=59 velocity=95 time=0
EXTRACT: note_on channel=0 note=55 velocity=95 time=0
EXTRACT: note_on channel=0 note=50 velocity=95 time=0
EXTRACT: note_on channel=0 note=45 velocity=95 time=0
EXTRACT: note_off channel=2 note=32 velocity=95 time=0
EXTRACT: note_on channel=2 note=34 velocity=95 time=0
EXTRACT: note_off channel=9 note=38 velocity=95 time=0
EXTRACT: note_off channel=9 note=54 velocity=95 time=0
EXTRACT: note_off channel=9 note=44 velocity=95 time=0
EXTRACT: note_on channel=9 note=44 velocity=95 time=0
EXTRACT: note_off channel=0 note=59 velocity=95 time=0.030844124999999997
EXTRACT: note_off channel=0 note=55 velocity=95 time=0
EXTRACT: note_off channel=0 note=50 velocity=95 time=0
EXTRACT: note_off channel=0 note=45 velocity=95 time=0
EXTRACT: note_on channel=0 note=59 velocity=95 time=0.16396087499999998
EXTRACT: note_on channel=0 note=55 velocity=95 time=0
EXTRACT: note_on channel=0 note=50 velocity=95 time=0
EXTRACT: note_on channel=0 note=45 velocity=95 time=0
EXTRACT: note_off channel=2 note=34 velocity=95 time=0
EXTRACT: note_on channel=2 note=36 velocity=95 time=0
EXTRACT: note_off channel=9 note=44 velocity=95 time=0
EXTRACT: note_on channel=9 note=36 velocity=95 time=0
EXTRACT: note_off channel=0 note=59 velocity=95 time=0.030844124999999997
EXTRACT: note_off channel=0 note=55 velocity=95 time=0
EXTRACT: note_off channel=0 note=50 velocity=95 time=0
EXTRACT: note_off channel=0 note=45 velocity=95 time=0
EXTRACT: note_on channel=0 note=70 velocity=95 time=0.16396087499999998
EXTRACT: note_on channel=0 note=65 velocity=95 time=0
EXTRACT: note_on channel=0 note=61 velocity=95 time=0
EXTRACT: note_on channel=0 note=58 velocity=95 time=0
EXTRACT: note_on channel=0 note=53 velocity=95 time=0
EXTRACT: note_on channel=0 note=46 velocity=95 time=0
EXTRACT: note_off channel=2 note=36 velocity=95 time=0
EXTRACT: note_on channel=2 note=37 velocity=95 time=0
EXTRACT: note_off channel=9 note=36 velocity=95 time=0
EXTRACT: note_on channel=9 note=36 velocity=95 time=0
EXTRACT: note_on channel=9 note=44 velocity=95 time=0
EXTRACT: note_off channel=0 note=70 velocity=95 time=0.38960999999999996
EXTRACT: note_off channel=0 note=65 velocity=95 time=0
EXTRACT: note_off channel=0 note=61 velocity=95 time=0
EXTRACT: note_off channel=0 note=58 velocity=95 time=0
EXTRACT: note_off channel=0 note=53 velocity=95 time=0
EXTRACT: note_off channel=0 note=46 velocity=95 time=0
EXTRACT: note_on channel=0 note=64 velocity=95 time=0
EXTRACT: note_on channel=0 note=59 velocity=95 time=0
EXTRACT: note_on channel=0 note=55 velocity=95 time=0
EXTRACT: note_on channel=0 note=50 velocity=95 time=0
EXTRACT: note_on channel=0 note=45 velocity=95 time=0
EXTRACT: note_on channel=0 note=40 velocity=95 time=0
EXTRACT: note_off channel=2 note=37 velocity=95 time=0
EXTRACT: note_on channel=2 note=36 velocity=95 time=0
EXTRACT: note_off channel=9 note=36 velocity=95 time=0
EXTRACT: note_off channel=9 note=44 velocity=95 time=0
EXTRACT: note_on channel=9 note=38 velocity=95 time=0
EXTRACT: note_off channel=0 note=64 velocity=95 time=0.030844124999999997
EXTRACT: note_off channel=0 note=59 velocity=95 time=0
EXTRACT: note_off channel=0 note=55 velocity=95 time=0
EXTRACT: note_off channel=0 note=50 velocity=95 time=0
EXTRACT: note_off channel=0 note=45 velocity=95 time=0
EXTRACT: note_off channel=0 note=40 velocity=95 time=0
EXTRACT: note_on channel=0 note=64 velocity=95 time=0.16396087499999998
EXTRACT: note_on channel=0 note=59 velocity=95 time=0
EXTRACT: note_on channel=0 note=55 velocity=95 time=0
EXTRACT: note_on channel=0 note=50 velocity=95 time=0
EXTRACT: note_on channel=0 note=45 velocity=95 time=0
EXTRACT: note_on channel=0 note=40 velocity=95 time=0
EXTRACT: note_off channel=2 note=36 velocity=95 time=0
EXTRACT: note_on channel=2 note=32 velocity=95 time=0
EXTRACT: note_off channel=9 note=38 velocity=95 time=0
EXTRACT: note_on channel=9 note=38 velocity=95 time=0
EXTRACT: note_off channel=0 note=64 velocity=95 time=0.030844124999999997
EXTRACT: note_off channel=0 note=59 velocity=95 time=0
EXTRACT: note_off channel=0 note=55 velocity=95 time=0
EXTRACT: note_off channel=0 note=50 velocity=95 time=0
EXTRACT: note_off channel=0 note=45 velocity=95 time=0
EXTRACT: note_off channel=0 note=40 velocity=95 time=0
EXTRACT: note_on channel=0 note=70 velocity=95 time=0.16396087499999998
EXTRACT: note_on channel=0 note=64 velocity=95 time=0
EXTRACT: note_on channel=0 note=58 velocity=95 time=0
EXTRACT: note_on channel=0 note=55 velocity=95 time=0
EXTRACT: note_on channel=0 note=48 velocity=95 time=0
EXTRACT: note_off channel=2 note=32 velocity=95 time=0
EXTRACT: note_on channel=2 note=36 velocity=95 time=0
EXTRACT: note_off channel=9 note=38 velocity=95 time=0
EXTRACT: note_on channel=9 note=36 velocity=95 time=0
EXTRACT: note_on channel=9 note=44 velocity=95 time=0
EXTRACT: note_off channel=2 note=36 velocity=95 time=0.19480499999999998
EXTRACT: note_on channel=2 note=34 velocity=95 time=0
EXTRACT: note_off channel=0 note=70 velocity=95 time=0.19480499999999998
EXTRACT: note_off channel=0 note=64 velocity=95 time=0
EXTRACT: note_off channel=0 note=58 velocity=95 time=0
EXTRACT: note_off channel=0 note=55 velocity=95 time=0
EXTRACT: note_off channel=0 note=48 velocity=95 time=0
EXTRACT: note_on channel=0 note=59 velocity=95 time=0
EXTRACT: note_on channel=0 note=55 velocity=95 time=0
EXTRACT: note_on channel=0 note=50 velocity=95 time=0
EXTRACT: note_on channel=0 note=45 velocity=95 time=0
EXTRACT: note_on channel=0 note=40 velocity=95 time=0
EXTRACT: note_off channel=2 note=34 velocity=95 time=0
EXTRACT: note_on channel=2 note=32 velocity=95 time=0
EXTRACT: note_off channel=9 note=36 velocity=95 time=0
EXTRACT: note_off channel=9 note=44 velocity=95 time=0
EXTRACT: note_on channel=9 note=38 velocity=95 time=0
EXTRACT: note_off channel=0 note=59 velocity=95 time=0.030844124999999997
EXTRACT: note_off channel=0 note=55 velocity=95 time=0
EXTRACT: note_off channel=0 note=50 velocity=95 time=0
EXTRACT: note_off channel=0 note=45 velocity=95 time=0
EXTRACT: note_off channel=0 note=40 velocity=95 time=0
EXTRACT: note_on channel=0 note=59 velocity=95 time=0.16396087499999998
EXTRACT: note_on channel=0 note=55 velocity=95 time=0
EXTRACT: note_on channel=0 note=50 velocity=95 time=0
EXTRACT: note_on channel=0 note=45 velocity=95 time=0
EXTRACT: note_on channel=0 note=40 velocity=95 time=0
EXTRACT: note_off channel=2 note=32 velocity=95 time=0
EXTRACT: note_on channel=2 note=31 velocity=95 time=0
EXTRACT: note_off channel=9 note=38 velocity=95 time=0
EXTRACT: note_on channel=9 note=38 velocity=95 time=0
EXTRACT: note_off channel=0 note=59 velocity=95 time=0.030844124999999997
EXTRACT: note_off channel=0 note=55 velocity=95 time=0
EXTRACT: note_off channel=0 note=50 velocity=95 time=0
EXTRACT: note_off channel=0 note=45 velocity=95 time=0
EXTRACT: note_off channel=0 note=40 velocity=95 time=0
EXTRACT: note_on channel=0 note=68 velocity=95 time=0.16396087499999998
EXTRACT: note_on channel=0 note=65 velocity=95 time=0
EXTRACT: note_on channel=0 note=60 velocity=95 time=0
EXTRACT: note_on channel=0 note=53 velocity=95 time=0
EXTRACT: note_off channel=2 note=31 velocity=95 time=0
EXTRACT: note_on channel=2 note=29 velocity=95 time=0
EXTRACT: note_off channel=9 note=38 velocity=95 time=0
EXTRACT: note_on channel=9 note=36 velocity=95 time=0
EXTRACT: note_on channel=9 note=44 velocity=95 time=0
EXTRACT: note_off channel=0 note=68 velocity=95 time=0.38960999999999996
EXTRACT: note_off channel=0 note=65 velocity=95 time=0
EXTRACT: note_off channel=0 note=60 velocity=95 time=0
EXTRACT: note_off channel=0 note=53 velocity=95 time=0
EXTRACT: note_on channel=0 note=59 velocity=95 time=0
EXTRACT: note_on channel=0 note=55 velocity=95 time=0
EXTRACT: note_on channel=0 note=50 velocity=95 time=0
EXTRACT: note_on channel=0 note=45 velocity=95 time=0
EXTRACT: note_off channel=9 note=36 velocity=95 time=0
EXTRACT: note_off channel=9 note=44 velocity=95 time=0
EXTRACT: note_on channel=9 note=44 velocity=95 time=0
EXTRACT: note_off channel=0 note=59 velocity=95 time=0.030844124999999997
EXTRACT: note_off channel=0 note=55 velocity=95 time=0
EXTRACT: note_off channel=0 note=50 velocity=95 time=0
EXTRACT: note_off channel=0 note=45 velocity=95 time=0
EXTRACT: note_on channel=0 note=68 velocity=95 time=0.16396087499999998
EXTRACT: note_on channel=0 note=65 velocity=95 time=0
EXTRACT: note_on channel=0 note=60 velocity=95 time=0
EXTRACT: note_on channel=0 note=53 velocity=95 time=0
EXTRACT: note_off channel=2 note=29 velocity=95 time=0
EXTRACT: note_on channel=2 note=36 velocity=95 time=0
EXTRACT: note_off channel=9 note=44 velocity=95 time=0
EXTRACT: note_on channel=9 note=36 velocity=95 time=0
EXTRACT: note_off channel=0 note=68 velocity=95 time=0.19480499999999998
EXTRACT: note_off channel=0 note=65 velocity=95 time=0
EXTRACT: note_off channel=0 note=60 velocity=95 time=0
EXTRACT: note_off channel=0 note=53 velocity=95 time=0
EXTRACT: note_on channel=0 note=68 velocity=95 time=0
EXTRACT: note_on channel=0 note=65 velocity=95 time=0
EXTRACT: note_on channel=0 note=60 velocity=95 time=0
EXTRACT: note_on channel=0 note=53 velocity=95 time=0
EXTRACT: note_off channel=2 note=36 velocity=95 time=0
EXTRACT: note_on channel=2 note=36 velocity=95 time=0
EXTRACT: note_off channel=9 note=36 velocity=95 time=0
EXTRACT: note_on channel=9 note=38 velocity=95 time=0
EXTRACT: note_on channel=9 note=54 velocity=95 time=0
EXTRACT: note_on channel=9 note=44 velocity=95 time=0
EXTRACT: note_off channel=0 note=68 velocity=95 time=0.19480499999999998
EXTRACT: note_off channel=0 note=65 velocity=95 time=0
EXTRACT: note_off channel=0 note=60 velocity=95 time=0
EXTRACT: note_off channel=0 note=53 velocity=95 time=0
EXTRACT: note_on channel=0 note=68 velocity=95 time=0
EXTRACT: note_on channel=0 note=65 velocity=95 time=0
EXTRACT: note_on channel=0 note=60 velocity=95 time=0
EXTRACT: note_on channel=0 note=53 velocity=95 time=0
EXTRACT: note_off channel=2 note=36 velocity=95 time=0
EXTRACT: note_on channel=2 note=36 velocity=95 time=0
EXTRACT: note_off channel=0 note=68 velocity=95 time=0.19480499999999998
EXTRACT: note_off channel=0 note=65 velocity=95 time=0
EXTRACT: note_off channel=0 note=60 velocity=95 time=0
EXTRACT: note_off channel=0 note=53 velocity=95 time=0
EXTRACT: note_on channel=0 note=59 velocity=95 time=0
EXTRACT: note_on channel=0 note=55 velocity=95 time=0
EXTRACT: note_on channel=0 note=50 velocity=95 time=0
EXTRACT: note_on channel=0 note=45 velocity=95 time=0
EXTRACT: note_off channel=2 note=36 velocity=95 time=0
EXTRACT: note_on channel=2 note=36 velocity=95 time=0
EXTRACT: note_off channel=9 note=38 velocity=95 time=0
EXTRACT: note_off channel=9 note=54 velocity=95 time=0
EXTRACT: note_off channel=9 note=44 velocity=95 time=0
EXTRACT: note_on channel=9 note=44 velocity=95 time=0
EXTRACT: note_off channel=0 note=59 velocity=95 time=0.030844124999999997
EXTRACT: note_off channel=0 note=55 velocity=95 time=0
EXTRACT: note_off channel=0 note=50 velocity=95 time=0
EXTRACT: note_off channel=0 note=45 velocity=95 time=0
EXTRACT: note_on channel=0 note=59 velocity=95 time=0.16396087499999998
EXTRACT: note_on channel=0 note=55 velocity=95 time=0
EXTRACT: note_on channel=0 note=50 velocity=95 time=0
EXTRACT: note_on channel=0 note=45 velocity=95 time=0
EXTRACT: note_off channel=2 note=36 velocity=95 time=0
EXTRACT: note_on channel=2 note=36 velocity=95 time=0
EXTRACT: note_off channel=9 note=44 velocity=95 time=0
EXTRACT: note_on channel=9 note=36 velocity=95 time=0
EXTRACT: note_off channel=0 note=59 velocity=95 time=0.030844124999999997
EXTRACT: note_off channel=0 note=55 velocity=95 time=0
EXTRACT: note_off channel=0 note=50 velocity=95 time=0
EXTRACT: note_off channel=0 note=45 velocity=95 time=0
EXTRACT: note_on channel=0 note=70 velocity=95 time=0.16396087499999998
EXTRACT: note_on channel=0 note=65 velocity=95 time=0
EXTRACT: note_on channel=0 note=61 velocity=95 time=0
EXTRACT: note_on channel=0 note=58 velocity=95 time=0
EXTRACT: note_on channel=0 note=53 velocity=95 time=0
EXTRACT: note_on channel=0 note=46 velocity=95 time=0
EXTRACT: note_off channel=2 note=36 velocity=95 time=0
EXTRACT: note_on channel=2 note=34 velocity=95 time=0
EXTRACT: note_off channel=9 note=36 velocity=95 time=0
EXTRACT: note_on channel=9 note=36 velocity=95 time=0
EXTRACT: note_on channel=9 note=44 velocity=95 time=0
EXTRACT: note_off channel=0 note=70 velocity=95 time=0.19480499999999998
EXTRACT: note_off channel=0 note=65 velocity=95 time=0
EXTRACT: note_off channel=0 note=61 velocity=95 time=0
EXTRACT: note_off channel=0 note=58 velocity=95 time=0
EXTRACT: note_off channel=0 note=53 velocity=95 time=0
EXTRACT: note_off channel=0 note=46 velocity=95 time=0
EXTRACT: note_on channel=0 note=70 velocity=95 time=0
EXTRACT: note_on channel=0 note=65 velocity=95 time=0
EXTRACT: note_on channel=0 note=61 velocity=95 time=0
EXTRACT: note_on channel=0 note=58 velocity=95 time=0
EXTRACT: note_on channel=0 note=53 velocity=95 time=0
EXTRACT: note_on channel=0 note=46 velocity=95 time=0
EXTRACT: note_off channel=0 note=70 velocity=95 time=0.19480499999999998
EXTRACT: note_off channel=0 note=65 velocity=95 time=0
EXTRACT: note_off channel=0 note=61 velocity=95 time=0
EXTRACT: note_off channel=0 note=58 velocity=95 time=0
EXTRACT: note_off channel=0 note=53 velocity=95 time=0
EXTRACT: note_off channel=0 note=46 velocity=95 time=0
EXTRACT: note_on channel=0 note=64 velocity=95 time=0
EXTRACT: note_on channel=0 note=59 velocity=95 time=0
EXTRACT: note_on channel=0 note=55 velocity=95 time=0
EXTRACT: note_on channel=0 note=50 velocity=95 time=0
EXTRACT: note_on channel=0 note=45 velocity=95 time=0
EXTRACT: note_on channel=0 note=40 velocity=95 time=0
EXTRACT: note_off channel=2 note=34 velocity=95 time=0
EXTRACT: note_on channel=2 note=34 velocity=95 time=0
EXTRACT: note_off channel=9 note=36 velocity=95 time=0
EXTRACT: note_off channel=9 note=44 velocity=95 time=0
EXTRACT: note_on channel=9 note=44 velocity=95 time=0
EXTRACT: note_off channel=0 note=64 velocity=95 time=0.030844124999999997
EXTRACT: note_off channel=0 note=59 velocity=95 time=0
EXTRACT: note_off channel=0 note=55 velocity=95 time=0
EXTRACT: note_off channel=0 note=50 velocity=95 time=0
EXTRACT: note_off channel=0 note=45 velocity=95 time=0
EXTRACT: note_off channel=0 note=40 velocity=95 time=0
EXTRACT: note_on channel=0 note=70 velocity=95 time=0.16396087499999998
EXTRACT: note_on channel=0 note=65 velocity=95 time=0
EXTRACT: note_on channel=0 note=61 velocity=95 time=0
EXTRACT: note_on channel=0 note=58 velocity=95 time=0
EXTRACT: note_on channel=0 note=53 velocity=95 time=0
EXTRACT: note_on channel=0 note=46 velocity=95 time=0
EXTRACT: note_off channel=9 note=44 velocity=95 time=0
EXTRACT: note_on channel=9 note=36 velocity=95 time=0
EXTRACT: note_off channel=0 note=70 velocity=95 time=0.19480499999999998
EXTRACT: note_off channel=0 note=65 velocity=95 time=0
EXTRACT: note_off channel=0 note=61 velocity=95 time=0
EXTRACT: note_off channel=0 note=58 velocity=95 time=0
EXTRACT: note_off channel=0 note=53 velocity=95 time=0
EXTRACT: note_off channel=0 note=46 velocity=95 time=0
EXTRACT: note_on channel=0 note=64 velocity=95 time=0
EXTRACT: note_on channel=0 note=59 velocity=95 time=0
EXTRACT: note_on channel=0 note=55 velocity=95 time=0
EXTRACT: note_on channel=0 note=50 velocity=95 time=0
EXTRACT: note_on channel=0 note=45 velocity=95 time=0
EXTRACT: note_on channel=0 note=40 velocity=95 time=0
EXTRACT: note_off channel=2 note=34 velocity=95 time=0
EXTRACT: note_on channel=2 note=29 velocity=95 time=0
EXTRACT: note_off channel=9 note=36 velocity=95 time=0
EXTRACT: note_on channel=9 note=38 velocity=95 time=0
EXTRACT: note_on channel=9 note=54 velocity=95 time=0
EXTRACT: note_on channel=9 note=44 velocity=95 time=0
EXTRACT: note_off channel=0 note=64 velocity=95 time=0.030844124999999997
EXTRACT: note_off channel=0 note=59 velocity=95 time=0
EXTRACT: note_off channel=0 note=55 velocity=95 time=0
EXTRACT: note_off channel=0 note=50 velocity=95 time=0
EXTRACT: note_off channel=0 note=45 velocity=95 time=0
EXTRACT: note_off channel=0 note=40 velocity=95 time=0
EXTRACT: note_on channel=0 note=70 velocity=95 time=0.16396087499999998
EXTRACT: note_on channel=0 note=65 velocity=95 time=0
EXTRACT: note_on channel=0 note=61 velocity=95 time=0
EXTRACT: note_on channel=0 note=58 velocity=95 time=0
EXTRACT: note_on channel=0 note=53 velocity=95 time=0
EXTRACT: note_on channel=0 note=46 velocity=95 time=0
EXTRACT: note_off channel=0 note=70 velocity=95 time=0.19480499999999998
EXTRACT: note_off channel=0 note=65 velocity=95 time=0
EXTRACT: note_off channel=0 note=61 velocity=95 time=0
EXTRACT: note_off channel=0 note=58 velocity=95 time=0
EXTRACT: note_off channel=0 note=53 velocity=95 time=0
EXTRACT: note_off channel=0 note=46 velocity=95 time=0
EXTRACT: note_on channel=0 note=64 velocity=95 time=0
EXTRACT: note_on channel=0 note=59 velocity=95 time=0
EXTRACT: note_on channel=0 note=55 velocity=95 time=0
EXTRACT: note_on channel=0 note=50 velocity=95 time=0
EXTRACT: note_on channel=0 note=45 velocity=95 time=0
EXTRACT: note_on channel=0 note=40 velocity=95 time=0
EXTRACT: note_off channel=9 note=38 velocity=95 time=0
EXTRACT: note_off channel=9 note=54 velocity=95 time=0
EXTRACT: note_off channel=9 note=44 velocity=95 time=0
EXTRACT: note_on channel=9 note=44 velocity=95 time=0
EXTRACT: note_off channel=0 note=64 velocity=95 time=0.030844124999999997
EXTRACT: note_off channel=0 note=59 velocity=95 time=0
EXTRACT: note_off channel=0 note=55 velocity=95 time=0
EXTRACT: note_off channel=0 note=50 velocity=95 time=0
EXTRACT: note_off channel=0 note=45 velocity=95 time=0
EXTRACT: note_off channel=0 note=40 velocity=95 time=0
EXTRACT: note_on channel=0 note=64 velocity=95 time=0.16396087499999998
EXTRACT: note_on channel=0 note=59 velocity=95 time=0
EXTRACT: note_on channel=0 note=55 velocity=95 time=0
EXTRACT: note_on channel=0 note=50 velocity=95 time=0
EXTRACT: note_on channel=0 note=45 velocity=95 time=0
EXTRACT: note_on channel=0 note=40 velocity=95 time=0
EXTRACT: note_off channel=9 note=44 velocity=95 time=0
EXTRACT: note_off channel=0 note=64 velocity=95 time=0.030844124999999997
EXTRACT: note_off channel=0 note=59 velocity=95 time=0
EXTRACT: note_off channel=0 note=55 velocity=95 time=0
EXTRACT: note_off channel=0 note=50 velocity=95 time=0
EXTRACT: note_off channel=0 note=45 velocity=95 time=0
EXTRACT: note_off channel=0 note=40 velocity=95 time=0
EXTRACT: note_on channel=0 note=67 velocity=95 time=0.16396087499999998
EXTRACT: note_on channel=0 note=63 velocity=95 time=0
EXTRACT: note_on channel=0 note=58 velocity=95 time=0
EXTRACT: note_on channel=0 note=51 velocity=95 time=0
EXTRACT: note_off channel=2 note=29 velocity=95 time=0
EXTRACT: note_on channel=2 note=39 velocity=95 time=0
EXTRACT: note_on channel=9 note=36 velocity=95 time=0
EXTRACT: note_on channel=9 note=44 velocity=95 time=0
EXTRACT: note_off channel=0 note=67 velocity=95 time=0.19480499999999998
EXTRACT: note_off channel=0 note=63 velocity=95 time=0
EXTRACT: note_off channel=0 note=58 velocity=95 time=0
EXTRACT: note_off channel=0 note=51 velocity=95 time=0
EXTRACT: note_on channel=0 note=67 velocity=95 time=0
EXTRACT: note_on channel=0 note=63 velocity=95 time=0
EXTRACT: note_on channel=0 note=58 velocity=95 time=0
EXTRACT: note_on channel=0 note=51 velocity=95 time=0
EXTRACT: note_off channel=0 note=67 velocity=95 time=0.19480499999999998
EXTRACT: note_off channel=0 note=63 velocity=95 time=0
EXTRACT: note_off channel=0 note=58 velocity=95 time=0
EXTRACT: note_off channel=0 note=51 velocity=95 time=0
EXTRACT: note_on channel=0 note=67 velocity=95 time=0
EXTRACT: note_on channel=0 note=63 velocity=95 time=0
EXTRACT: note_on channel=0 note=58 velocity=95 time=0
EXTRACT: note_on channel=0 note=51 velocity=95 time=0
EXTRACT: note_off channel=2 note=39 velocity=95 time=0
EXTRACT: note_on channel=2 note=46 velocity=95 time=0
EXTRACT: note_off channel=9 note=36 velocity=95 time=0
EXTRACT: note_off channel=9 note=44 velocity=95 time=0
EXTRACT: note_on channel=9 note=44 velocity=95 time=0
EXTRACT: note_off channel=0 note=67 velocity=95 time=0.19480499999999998
EXTRACT: note_off channel=0 note=63 velocity=95 time=0
EXTRACT: note_off channel=0 note=58 velocity=95 time=0
EXTRACT: note_off channel=0 note=51 velocity=95 time=0
EXTRACT: note_on channel=0 note=67 velocity=95 time=0
EXTRACT: note_on channel=0 note=63 velocity=95 time=0
EXTRACT: note_on channel=0 note=58 velocity=95 time=0
EXTRACT: note_on channel=0 note=51 velocity=95 time=0
EXTRACT: note_off channel=2 note=46 velocity=95 time=0
EXTRACT: note_on channel=2 note=46 velocity=95 time=0
EXTRACT: note_off channel=9 note=44 velocity=95 time=0
EXTRACT: note_on channel=9 note=36 velocity=95 time=0
EXTRACT: note_off channel=0 note=67 velocity=95 time=0.19480499999999998
EXTRACT: note_off channel=0 note=63 velocity=95 time=0
EXTRACT: note_off channel=0 note=58 velocity=95 time=0
EXTRACT: note_off channel=0 note=51 velocity=95 time=0
EXTRACT: note_on channel=0 note=67 velocity=95 time=0
EXTRACT: note_on channel=0 note=63 velocity=95 time=0
EXTRACT: note_on channel=0 note=58 velocity=95 time=0
EXTRACT: note_on channel=0 note=51 velocity=95 time=0
EXTRACT: note_off channel=2 note=46 velocity=95 time=0
EXTRACT: note_on channel=2 note=46 velocity=95 time=0
EXTRACT: note_off channel=9 note=36 velocity=95 time=0
EXTRACT: note_on channel=9 note=38 velocity=95 time=0
EXTRACT: note_on channel=9 note=54 velocity=95 time=0
EXTRACT: note_on channel=9 note=44 velocity=95 time=0
EXTRACT: note_off channel=0 note=67 velocity=95 time=0.19480499999999998
EXTRACT: note_off channel=0 note=63 velocity=95 time=0
EXTRACT: note_off channel=0 note=58 velocity=95 time=0
EXTRACT: note_off channel=0 note=51 velocity=95 time=0
EXTRACT: note_on channel=0 note=67 velocity=95 time=0
EXTRACT: note_on channel=0 note=63 velocity=95 time=0
EXTRACT: note_on channel=0 note=58 velocity=95 time=0
EXTRACT: note_on channel=0 note=51 velocity=95 time=0
EXTRACT: note_off channel=2 note=46 velocity=95 time=0
EXTRACT: note_on channel=2 note=46 velocity=95 time=0
EXTRACT: note_off channel=0 note=67 velocity=95 time=0.19480499999999998
EXTRACT: note_off channel=0 note=63 velocity=95 time=0
EXTRACT: note_off channel=0 note=58 velocity=95 time=0
EXTRACT: note_off channel=0 note=51 velocity=95 time=0
EXTRACT: note_on channel=0 note=59 velocity=95 time=0
EXTRACT: note_on channel=0 note=55 velocity=95 time=0
EXTRACT: note_on channel=0 note=50 velocity=95 time=0
EXTRACT: note_on channel=0 note=45 velocity=95 time=0
EXTRACT: note_off channel=2 note=46 velocity=95 time=0
EXTRACT: note_on channel=2 note=34 velocity=95 time=0
EXTRACT: note_off channel=9 note=38 velocity=95 time=0
EXTRACT: note_off channel=9 note=54 velocity=95 time=0
EXTRACT: note_off channel=9 note=44 velocity=95 time=0
EXTRACT: note_on channel=9 note=44 velocity=95 time=0
EXTRACT: note_off channel=0 note=59 velocity=95 time=0.030844124999999997
EXTRACT: note_off channel=0 note=55 velocity=95 time=0
EXTRACT: note_off channel=0 note=50 velocity=95 time=0
EXTRACT: note_off channel=0 note=45 velocity=95 time=0
EXTRACT: note_on channel=0 note=59 velocity=95 time=0.16396087499999998
EXTRACT: note_on channel=0 note=55 velocity=95 time=0
EXTRACT: note_on channel=0 note=50 velocity=95 time=0
EXTRACT: note_on channel=0 note=45 velocity=95 time=0
EXTRACT: note_off channel=2 note=34 velocity=95 time=0
EXTRACT: note_on channel=2 note=35 velocity=95 time=0
EXTRACT: note_off channel=9 note=44 velocity=95 time=0
EXTRACT: note_on channel=9 note=36 velocity=95 time=0
EXTRACT: note_off channel=0 note=59 velocity=95 time=0.030844124999999997
EXTRACT: note_off channel=0 note=55 velocity=95 time=0
EXTRACT: note_off channel=0 note=50 velocity=95 time=0
EXTRACT: note_off channel=0 note=45 velocity=95 time=0
EXTRACT: note_on channel=0 note=72 velocity=95 time=0.16396087499999998
EXTRACT: note_on channel=0 note=67 velocity=95 time=0
EXTRACT: note_on channel=0 note=64 velocity=95 time=0
EXTRACT: note_on channel=0 note=60 velocity=95 time=0
EXTRACT: note_on channel=0 note=55 velocity=95 time=0
EXTRACT: note_on channel=0 note=48 velocity=95 time=0
EXTRACT: note_off channel=2 note=35 velocity=95 time=0
EXTRACT: note_on channel=2 note=36 velocity=95 time=0
EXTRACT: note_off channel=9 note=36 velocity=95 time=0
EXTRACT: note_on channel=9 note=36 velocity=95 time=0
EXTRACT: note_on channel=9 note=44 velocity=95 time=0
EXTRACT: note_off channel=0 note=72 velocity=95 time=0.19480499999999998
EXTRACT: note_off channel=0 note=67 velocity=95 time=0
EXTRACT: note_off channel=0 note=64 velocity=95 time=0
EXTRACT: note_off channel=0 note=60 velocity=95 time=0
EXTRACT: note_off channel=0 note=55 velocity=95 time=0
EXTRACT: note_off channel=0 note=48 velocity=95 time=0
EXTRACT: note_on channel=0 note=64 velocity=95 time=0
EXTRACT: note_on channel=0 note=59 velocity=95 time=0
EXTRACT: note_on channel=0 note=55 velocity=95 time=0
EXTRACT: note_on channel=0 note=50 velocity=95 time=0
EXTRACT: note_on channel=0 note=45 velocity=95 time=0
EXTRACT: note_on channel=0 note=40 velocity=95 time=0
EXTRACT: note_off channel=0 note=64 velocity=95 time=0.030844124999999997
EXTRACT: note_off channel=0 note=59 velocity=95 time=0
EXTRACT: note_off channel=0 note=55 velocity=95 time=0
EXTRACT: note_off channel=0 note=50 velocity=95 time=0
EXTRACT: note_off channel=0 note=45 velocity=95 time=0
EXTRACT: note_off channel=0 note=40 velocity=95 time=0
EXTRACT: note_on channel=0 note=64 velocity=95 time=0.16396087499999998
EXTRACT: note_on channel=0 note=59 velocity=95 time=0
EXTRACT: note_on channel=0 note=55 velocity=95 time=0
EXTRACT: note_on channel=0 note=50 velocity=95 time=0
EXTRACT: note_on channel=0 note=45 velocity=95 time=0
EXTRACT: note_on channel=0 note=40 velocity=95 time=0
EXTRACT: note_off channel=2 note=36 velocity=95 time=0
EXTRACT: note_on channel=2 note=36 velocity=95 time=0
EXTRACT: note_off channel=9 note=36 velocity=95 time=0
EXTRACT: note_off channel=9 note=44 velocity=95 time=0
EXTRACT: note_on channel=9 note=44 velocity=95 time=0
EXTRACT: note_off channel=0 note=64 velocity=95 time=0.030844124999999997
EXTRACT: note_off channel=0 note=59 velocity=95 time=0
EXTRACT: note_off channel=0 note=55 velocity=95 time=0
EXTRACT: note_off channel=0 note=50 velocity=95 time=0
EXTRACT: note_off channel=0 note=45 velocity=95 time=0
EXTRACT: note_off channel=0 note=40 velocity=95 time=0
EXTRACT: note_on channel=0 note=72 velocity=95 time=0.16396087499999998
EXTRACT: note_on channel=0 note=67 velocity=95 time=0
EXTRACT: note_on channel=0 note=64 velocity=95 time=0
EXTRACT: note_on channel=0 note=60 velocity=95 time=0
EXTRACT: note_on channel=0 note=55 velocity=95 time=0
EXTRACT: note_on channel=0 note=48 velocity=95 time=0
EXTRACT: note_off channel=9 note=44 velocity=95 time=0
EXTRACT: note_on channel=9 note=36 velocity=95 time=0
EXTRACT: note_off channel=0 note=72 velocity=95 time=0.19480499999999998
EXTRACT: note_off channel=0 note=67 velocity=95 time=0
EXTRACT: note_off channel=0 note=64 velocity=95 time=0
EXTRACT: note_off channel=0 note=60 velocity=95 time=0
EXTRACT: note_off channel=0 note=55 velocity=95 time=0
EXTRACT: note_off channel=0 note=48 velocity=95 time=0
EXTRACT: note_on channel=0 note=72 velocity=95 time=0
EXTRACT: note_on channel=0 note=67 velocity=95 time=0
EXTRACT: note_on channel=0 note=64 velocity=95 time=0
EXTRACT: note_on channel=0 note=60 velocity=95 time=0
EXTRACT: note_on channel=0 note=55 velocity=95 time=0
EXTRACT: note_on channel=0 note=48 velocity=95 time=0
EXTRACT: note_off channel=2 note=36 velocity=95 time=0
EXTRACT: note_on channel=2 note=31 velocity=95 time=0
EXTRACT: note_off channel=9 note=36 velocity=95 time=0
EXTRACT: note_on channel=9 note=38 velocity=95 time=0
EXTRACT: note_on channel=9 note=54 velocity=95 time=0
EXTRACT: note_on channel=9 note=44 velocity=95 time=0
EXTRACT: note_off channel=0 note=72 velocity=95 time=0.19480499999999998
EXTRACT: note_off channel=0 note=67 velocity=95 time=0
EXTRACT: note_off channel=0 note=64 velocity=95 time=0
EXTRACT: note_off channel=0 note=60 velocity=95 time=0
EXTRACT: note_off channel=0 note=55 velocity=95 time=0
EXTRACT: note_off channel=0 note=48 velocity=95 time=0
EXTRACT: note_on channel=0 note=72 velocity=95 time=0
EXTRACT: note_on channel=0 note=67 velocity=95 time=0
EXTRACT: note_on channel=0 note=64 velocity=95 time=0
EXTRACT: note_on channel=0 note=60 velocity=95 time=0
EXTRACT: note_on channel=0 note=55 velocity=95 time=0
EXTRACT: note_on channel=0 note=48 velocity=95 time=0
EXTRACT: note_off channel=0 note=72 velocity=95 time=0.19480499999999998
EXTRACT: note_off channel=0 note=67 velocity=95 time=0
EXTRACT: note_off channel=0 note=64 velocity=95 time=0
EXTRACT: note_off channel=0 note=60 velocity=95 time=0
EXTRACT: note_off channel=0 note=55 velocity=95 time=0
EXTRACT: note_off channel=0 note=48 velocity=95 time=0
EXTRACT: note_on channel=0 note=64 velocity=95 time=0
EXTRACT: note_on channel=0 note=59 velocity=95 time=0
EXTRACT: note_on channel=0 note=55 velocity=95 time=0
EXTRACT: note_on channel=0 note=50 velocity=95 time=0
EXTRACT: note_on channel=0 note=45 velocity=95 time=0
EXTRACT: note_on channel=0 note=40 velocity=95 time=0
EXTRACT: note_off channel=2 note=31 velocity=95 time=0
EXTRACT: note_on channel=2 note=36 velocity=95 time=0
EXTRACT: note_off channel=9 note=38 velocity=95 time=0
EXTRACT: note_off channel=9 note=54 velocity=95 time=0
EXTRACT: note_off channel=9 note=44 velocity=95 time=0
EXTRACT: note_on channel=9 note=44 velocity=95 time=0
EXTRACT: note_off channel=0 note=64 velocity=95 time=0.030844124999999997
EXTRACT: note_off channel=0 note=59 velocity=95 time=0
EXTRACT: note_off channel=0 note=55 velocity=95 time=0
EXTRACT: note_off channel=0 note=50 velocity=95 time=0
EXTRACT: note_off channel=0 note=45 velocity=95 time=0
EXTRACT: note_off channel=0 note=40 velocity=95 time=0
EXTRACT: note_on channel=0 note=64 velocity=95 time=0.16396087499999998
EXTRACT: note_on channel=0 note=59 velocity=95 time=0
EXTRACT: note_on channel=0 note=55 velocity=95 time=0
EXTRACT: note_on channel=0 note=50 velocity=95 time=0
EXTRACT: note_on channel=0 note=45 velocity=95 time=0
EXTRACT: note_on channel=0 note=40 velocity=95 time=0
EXTRACT: note_off channel=2 note=36 velocity=95 time=0
EXTRACT: note_on channel=2 note=35 velocity=95 time=0
EXTRACT: note_off channel=9 note=44 velocity=95 time=0
EXTRACT: note_off channel=0 note=64 velocity=95 time=0.030844124999999997
EXTRACT: note_off channel=0 note=59 velocity=95 time=0
EXTRACT: note_off channel=0 note=55 velocity=95 time=0
EXTRACT: note_off channel=0 note=50 velocity=95 time=0
EXTRACT: note_off channel=0 note=45 velocity=95 time=0
EXTRACT: note_off channel=0 note=40 velocity=95 time=0
EXTRACT: note_on channel=0 note=70 velocity=95 time=0.16396087499999998
EXTRACT: note_on channel=0 note=65 velocity=95 time=0
EXTRACT: note_on channel=0 note=61 velocity=95 time=0
EXTRACT: note_on channel=0 note=58 velocity=95 time=0
EXTRACT: note_on channel=0 note=53 velocity=95 time=0
EXTRACT: note_on channel=0 note=46 velocity=95 time=0
EXTRACT: note_off channel=2 note=35 velocity=95 time=0
EXTRACT: note_on channel=2 note=34 velocity=95 time=0
EXTRACT: note_on channel=9 note=36 velocity=95 time=0
EXTRACT: note_on channel=9 note=44 velocity=95 time=0
EXTRACT: note_off channel=0 note=70 velocity=95 time=0.19480499999999998
EXTRACT: note_off channel=0 note=65 velocity=95 time=0
EXTRACT: note_off channel=0 note=61 velocity=95 time=0
EXTRACT: note_off channel=0 note=58 velocity=95 time=0
EXTRACT: note_off channel=0 note=53 velocity=95 time=0
EXTRACT: note_off channel=0 note=46 velocity=95 time=0
EXTRACT: note_on channel=0 note=70 velocity=95 time=0
EXTRACT: note_on channel=0 note=65 velocity=95 time=0
EXTRACT: note_on channel=0 note=61 velocity=95 time=0
EXTRACT: note_on channel=0 note=58 velocity=95 time=0
EXTRACT: note_on channel=0 note=53 velocity=95 time=0
EXTRACT: note_on channel=0 note=46 velocity=95 time=0
EXTRACT: note_off channel=0 note=70 velocity=95 time=0.19480499999999998
EXTRACT: note_off channel=0 note=65 velocity=95 time=0
EXTRACT: note_off channel=0 note=61 velocity=95 time=0
EXTRACT: note_off channel=0 note=58 velocity=95 time=0
EXTRACT: note_off channel=0 note=53 velocity=95 time=0
EXTRACT: note_off channel=0 note=46 velocity=95 time=0
EXTRACT: note_on channel=0 note=70 velocity=95 time=0
EXTRACT: note_on channel=0 note=65 velocity=95 time=0
EXTRACT: note_on channel=0 note=61 velocity=95 time=0
EXTRACT: note_on channel=0 note=58 velocity=95 time=0
EXTRACT: note_on channel=0 note=53 velocity=95 time=0
EXTRACT: note_on channel=0 note=46 velocity=95 time=0
EXTRACT: note_off channel=2 note=34 velocity=95 time=0
EXTRACT: note_on channel=2 note=41 velocity=95 time=0
EXTRACT: note_off channel=9 note=36 velocity=95 time=0
EXTRACT: note_off channel=9 note=44 velocity=95 time=0
EXTRACT: note_on channel=9 note=44 velocity=95 time=0
EXTRACT: note_off channel=0 note=70 velocity=95 time=0.19480499999999998
EXTRACT: note_off channel=0 note=65 velocity=95 time=0
EXTRACT: note_off channel=0 note=61 velocity=95 time=0
EXTRACT: note_off channel=0 note=58 velocity=95 time=0
EXTRACT: note_off channel=0 note=53 velocity=95 time=0
EXTRACT: note_off channel=0 note=46 velocity=95 time=0
EXTRACT: note_on channel=0 note=70 velocity=95 time=0
EXTRACT: note_on channel=0 note=65 velocity=95 time=0
EXTRACT: note_on channel=0 note=61 velocity=95 time=0
EXTRACT: note_on channel=0 note=58 velocity=95 time=0
EXTRACT: note_on channel=0 note=53 velocity=95 time=0
EXTRACT: note_on channel=0 note=46 velocity=95 time=0
EXTRACT: note_off channel=2 note=41 velocity=95 time=0
EXTRACT: note_on channel=2 note=41 velocity=95 time=0
EXTRACT: note_off channel=9 note=44 velocity=95 time=0
EXTRACT: note_on channel=9 note=36 velocity=95 time=0
EXTRACT: note_off channel=0 note=70 velocity=95 time=0.19480499999999998
EXTRACT: note_off channel=0 note=65 velocity=95 time=0
EXTRACT: note_off channel=0 note=61 velocity=95 time=0
EXTRACT: note_off channel=0 note=58 velocity=95 time=0
EXTRACT: note_off channel=0 note=53 velocity=95 time=0
EXTRACT: note_off channel=0 note=46 velocity=95 time=0
EXTRACT: note_on channel=0 note=70 velocity=95 time=0
EXTRACT: note_on channel=0 note=65 velocity=95 time=0
EXTRACT: note_on channel=0 note=61 velocity=95 time=0
EXTRACT: note_on channel=0 note=58 velocity=95 time=0
EXTRACT: note_on channel=0 note=53 velocity=95 time=0
EXTRACT: note_on channel=0 note=46 velocity=95 time=0
EXTRACT: note_off channel=2 note=41 velocity=95 time=0
EXTRACT: note_on channel=2 note=41 velocity=95 time=0
EXTRACT: note_off channel=9 note=36 velocity=95 time=0
EXTRACT: note_on channel=9 note=38 velocity=95 time=0
EXTRACT: note_on channel=9 note=54 velocity=95 time=0
EXTRACT: note_on channel=9 note=44 velocity=95 time=0
EXTRACT: note_off channel=0 note=70 velocity=95 time=0.19480499999999998
EXTRACT: note_off channel=0 note=65 velocity=95 time=0
EXTRACT: note_off channel=0 note=61 velocity=95 time=0
EXTRACT: note_off channel=0 note=58 velocity=95 time=0
EXTRACT: note_off channel=0 note=53 velocity=95 time=0
EXTRACT: note_off channel=0 note=46 velocity=95 time=0
EXTRACT: note_on channel=0 note=70 velocity=95 time=0
EXTRACT: note_on channel=0 note=65 velocity=95 time=0
EXTRACT: note_on channel=0 note=61 velocity=95 time=0
EXTRACT: note_on channel=0 note=58 velocity=95 time=0
EXTRACT: note_on channel=0 note=53 velocity=95 time=0
EXTRACT: note_on channel=0 note=46 velocity=95 time=0
EXTRACT: note_off channel=2 note=41 velocity=95 time=0
EXTRACT: note_on channel=2 note=41 velocity=95 time=0
EXTRACT: note_off channel=0 note=70 velocity=95 time=0.19480499999999998
EXTRACT: note_off channel=0 note=65 velocity=95 time=0
EXTRACT: note_off channel=0 note=61 velocity=95 time=0
EXTRACT: note_off channel=0 note=58 velocity=95 time=0
EXTRACT: note_off channel=0 note=53 velocity=95 time=0
EXTRACT: note_off channel=0 note=46 velocity=95 time=0
EXTRACT: note_on channel=0 note=64 velocity=95 time=0
EXTRACT: note_on channel=0 note=59 velocity=95 time=0
EXTRACT: note_on channel=0 note=55 velocity=95 time=0
EXTRACT: note_on channel=0 note=50 velocity=95 time=0
EXTRACT: note_on channel=0 note=45 velocity=95 time=0
EXTRACT: note_on channel=0 note=40 velocity=95 time=0
EXTRACT: note_off channel=2 note=41 velocity=95 time=0
EXTRACT: note_on channel=2 note=34 velocity=95 time=0
EXTRACT: note_off channel=9 note=38 velocity=95 time=0
EXTRACT: note_off channel=9 note=54 velocity=95 time=0
EXTRACT: note_off channel=9 note=44 velocity=95 time=0
EXTRACT: note_on channel=9 note=44 velocity=95 time=0
EXTRACT: note_off channel=0 note=64 velocity=95 time=0.030844124999999997
EXTRACT: note_off channel=0 note=59 velocity=95 time=0
EXTRACT: note_off channel=0 note=55 velocity=95 time=0
EXTRACT: note_off channel=0 note=50 velocity=95 time=0
EXTRACT: note_off channel=0 note=45 velocity=95 time=0
EXTRACT: note_off channel=0 note=40 velocity=95 time=0
EXTRACT: note_off channel=2 note=34 velocity=95 time=0.16396087499999998
EXTRACT: note_on channel=2 note=35 velocity=95 time=0
EXTRACT: note_off channel=9 note=44 velocity=95 time=0
EXTRACT: note_on channel=9 note=36 velocity=95 time=0
EXTRACT: note_on channel=0 note=72 velocity=95 time=0.19480499999999998
EXTRACT: note_on channel=0 note=67 velocity=95 time=0
EXTRACT: note_on channel=0 note=64 velocity=95 time=0
EXTRACT: note_on channel=0 note=60 velocity=95 time=0
EXTRACT: note_on channel=0 note=55 velocity=95 time=0
EXTRACT: note_on channel=0 note=48 velocity=95 time=0
EXTRACT: note_off channel=2 note=35 velocity=95 time=0
EXTRACT: note_on channel=2 note=36 velocity=95 time=0
EXTRACT: note_off channel=9 note=36 velocity=95 time=0
EXTRACT: note_on channel=9 note=36 velocity=95 time=0
EXTRACT: note_on channel=9 note=44 velocity=95 time=0
EXTRACT: note_off channel=0 note=72 velocity=95 time=0.19480499999999998
EXTRACT: note_off channel=0 note=67 velocity=95 time=0
EXTRACT: note_off channel=0 note=64 velocity=95 time=0
EXTRACT: note_off channel=0 note=60 velocity=95 time=0
EXTRACT: note_off channel=0 note=55 velocity=95 time=0
EXTRACT: note_off channel=0 note=48 velocity=95 time=0
EXTRACT: note_on channel=0 note=64 velocity=95 time=0
EXTRACT: note_on channel=0 note=59 velocity=95 time=0
EXTRACT: note_on channel=0 note=55 velocity=95 time=0
EXTRACT: note_on channel=0 note=50 velocity=95 time=0
EXTRACT: note_on channel=0 note=45 velocity=95 time=0
EXTRACT: note_on channel=0 note=40 velocity=95 time=0
EXTRACT: note_off channel=0 note=64 velocity=95 time=0.030844124999999997
EXTRACT: note_off channel=0 note=59 velocity=95 time=0
EXTRACT: note_off channel=0 note=55 velocity=95 time=0
EXTRACT: note_off channel=0 note=50 velocity=95 time=0
EXTRACT: note_off channel=0 note=45 velocity=95 time=0
EXTRACT: note_off channel=0 note=40 velocity=95 time=0
EXTRACT: note_on channel=0 note=64 velocity=95 time=0.16396087499999998
EXTRACT: note_on channel=0 note=59 velocity=95 time=0
EXTRACT: note_on channel=0 note=55 velocity=95 time=0
EXTRACT: note_on channel=0 note=50 velocity=95 time=0
EXTRACT: note_on channel=0 note=45 velocity=95 time=0
EXTRACT: note_on channel=0 note=40 velocity=95 time=0
EXTRACT: note_off channel=2 note=36 velocity=95 time=0
EXTRACT: note_off channel=9 note=36 velocity=95 time=0
EXTRACT: note_off channel=9 note=44 velocity=95 time=0
EXTRACT: note_on channel=9 note=44 velocity=95 time=0
EXTRACT: note_off channel=0 note=64 velocity=95 time=0.030844124999999997
EXTRACT: note_off channel=0 note=59 velocity=95 time=0
EXTRACT: note_off channel=0 note=55 velocity=95 time=0
EXTRACT: note_off channel=0 note=50 velocity=95 time=0
EXTRACT: note_off channel=0 note=45 velocity=95 time=0
EXTRACT: note_off channel=0 note=40 velocity=95 time=0
EXTRACT: note_on channel=0 note=72 velocity=95 time=0.16396087499999998
EXTRACT: note_on channel=0 note=67 velocity=95 time=0
EXTRACT: note_on channel=0 note=64 velocity=95 time=0
EXTRACT: note_on channel=0 note=60 velocity=95 time=0
EXTRACT: note_on channel=0 note=55 velocity=95 time=0
EXTRACT: note_on channel=0 note=48 velocity=95 time=0
EXTRACT: note_on channel=2 note=43 velocity=95 time=0
EXTRACT: note_off channel=9 note=44 velocity=95 time=0
EXTRACT: note_on channel=9 note=36 velocity=95 time=0
EXTRACT: note_off channel=0 note=72 velocity=95 time=0.19480499999999998
EXTRACT: note_off channel=0 note=67 velocity=95 time=0
EXTRACT: note_off channel=0 note=64 velocity=95 time=0
EXTRACT: note_off channel=0 note=60 velocity=95 time=0
EXTRACT: note_off channel=0 note=55 velocity=95 time=0
EXTRACT: note_off channel=0 note=48 velocity=95 time=0
EXTRACT: note_on channel=0 note=72 velocity=95 time=0
EXTRACT: note_on channel=0 note=67 velocity=95 time=0
EXTRACT: note_on channel=0 note=64 velocity=95 time=0
EXTRACT: note_on channel=0 note=60 velocity=95 time=0
EXTRACT: note_on channel=0 note=55 velocity=95 time=0
EXTRACT: note_on channel=0 note=48 velocity=95 time=0
EXTRACT: note_off channel=2 note=43 velocity=95 time=0
EXTRACT: note_on channel=2 note=43 velocity=95 time=0
EXTRACT: note_off channel=9 note=36 velocity=95 time=0
EXTRACT: note_on channel=9 note=38 velocity=95 time=0
EXTRACT: note_on channel=9 note=54 velocity=95 time=0
EXTRACT: note_on channel=9 note=44 velocity=95 time=0
EXTRACT: note_off channel=0 note=72 velocity=95 time=0.19480499999999998
EXTRACT: note_off channel=0 note=67 velocity=95 time=0
EXTRACT: note_off channel=0 note=64 velocity=95 time=0
EXTRACT: note_off channel=0 note=60 velocity=95 time=0
EXTRACT: note_off channel=0 note=55 velocity=95 time=0
EXTRACT: note_off channel=0 note=48 velocity=95 time=0
EXTRACT: note_on channel=0 note=72 velocity=95 time=0
EXTRACT: note_on channel=0 note=67 velocity=95 time=0
EXTRACT: note_on channel=0 note=64 velocity=95 time=0
EXTRACT: note_on channel=0 note=60 velocity=95 time=0
EXTRACT: note_on channel=0 note=55 velocity=95 time=0
EXTRACT: note_on channel=0 note=48 velocity=95 time=0
EXTRACT: note_off channel=2 note=43 velocity=95 time=0
EXTRACT: note_on channel=2 note=43 velocity=95 time=0
EXTRACT: note_off channel=0 note=72 velocity=95 time=0.19480499999999998
EXTRACT: note_off channel=0 note=67 velocity=95 time=0
EXTRACT: note_off channel=0 note=64 velocity=95 time=0
EXTRACT: note_off channel=0 note=60 velocity=95 time=0
EXTRACT: note_off channel=0 note=55 velocity=95 time=0
EXTRACT: note_off channel=0 note=48 velocity=95 time=0
EXTRACT: note_on channel=0 note=64 velocity=95 time=0
EXTRACT: note_on channel=0 note=59 velocity=95 time=0
EXTRACT: note_on channel=0 note=55 velocity=95 time=0
EXTRACT: note_on channel=0 note=50 velocity=95 time=0
EXTRACT: note_on channel=0 note=45 velocity=95 time=0
EXTRACT: note_on channel=0 note=40 velocity=95 time=0
EXTRACT: note_off channel=2 note=43 velocity=95 time=0
EXTRACT: note_on channel=2 note=43 velocity=95 time=0
EXTRACT: note_off channel=9 note=38 velocity=95 time=0
EXTRACT: note_off channel=9 note=54 velocity=95 time=0
EXTRACT: note_off channel=9 note=44 velocity=95 time=0
EXTRACT: note_on channel=9 note=44 velocity=95 time=0
EXTRACT: note_off channel=0 note=64 velocity=95 time=0.030844124999999997
EXTRACT: note_off channel=0 note=59 velocity=95 time=0
EXTRACT: note_off channel=0 note=55 velocity=95 time=0
EXTRACT: note_off channel=0 note=50 velocity=95 time=0
EXTRACT: note_off channel=0 note=45 velocity=95 time=0
EXTRACT: note_off channel=0 note=40 velocity=95 time=0
EXTRACT: note_on channel=0 note=64 velocity=95 time=0.16396087499999998
EXTRACT: note_on channel=0 note=59 velocity=95 time=0
EXTRACT: note_on channel=0 note=55 velocity=95 time=0
EXTRACT: note_on channel=0 note=50 velocity=95 time=0
EXTRACT: note_on channel=0 note=45 velocity=95 time=0
EXTRACT: note_on channel=0 note=40 velocity=95 time=0
EXTRACT: note_off channel=9 note=44 velocity=95 time=0
EXTRACT: note_off channel=0 note=64 velocity=95 time=0.030844124999999997
EXTRACT: note_off channel=0 note=59 velocity=95 time=0
EXTRACT: note_off channel=0 note=55 velocity=95 time=0
EXTRACT: note_off channel=0 note=50 velocity=95 time=0
EXTRACT: note_off channel=0 note=45 velocity=95 time=0
EXTRACT: note_off channel=0 note=40 velocity=95 time=0
EXTRACT: note_on channel=0 note=68 velocity=95 time=0.16396087499999998
EXTRACT: note_on channel=0 note=65 velocity=95 time=0
EXTRACT: note_on channel=0 note=60 velocity=95 time=0
EXTRACT: note_on channel=0 note=53 velocity=95 time=0
EXTRACT: note_off channel=2 note=43 velocity=95 time=0
EXTRACT: note_on channel=2 note=29 velocity=95 time=0
EXTRACT: note_on channel=9 note=36 velocity=95 time=0
EXTRACT: note_on channel=9 note=44 velocity=95 time=0
EXTRACT: note_off channel=0 note=68 velocity=95 time=0.19480499999999998
EXTRACT: note_off channel=0 note=65 velocity=95 time=0
EXTRACT: note_off channel=0 note=60 velocity=95 time=0
EXTRACT: note_off channel=0 note=53 velocity=95 time=0
EXTRACT: note_on channel=0 note=68 velocity=95 time=0
EXTRACT: note_on channel=0 note=65 velocity=95 time=0
EXTRACT: note_on channel=0 note=60 velocity=95 time=0
EXTRACT: note_on channel=0 note=53 velocity=95 time=0
EXTRACT: note_off channel=9 note=36 velocity=95 time=0.19480499999999998
EXTRACT: note_off channel=9 note=44 velocity=95 time=0
EXTRACT: note_on channel=9 note=44 velocity=95 time=0
EXTRACT: note_off channel=0 note=68 velocity=95 time=0.19480499999999998
EXTRACT: note_off channel=0 note=65 velocity=95 time=0
EXTRACT: note_off channel=0 note=60 velocity=95 time=0
EXTRACT: note_off channel=0 note=53 velocity=95 time=0
EXTRACT: note_on channel=0 note=68 velocity=95 time=0
EXTRACT: note_on channel=0 note=65 velocity=95 time=0
EXTRACT: note_on channel=0 note=60 velocity=95 time=0
EXTRACT: note_on channel=0 note=53 velocity=95 time=0
EXTRACT: note_off channel=2 note=29 velocity=95 time=0
EXTRACT: note_on channel=2 note=36 velocity=95 time=0
EXTRACT: note_off channel=9 note=44 velocity=95 time=0
EXTRACT: note_on channel=9 note=36 velocity=95 time=0
EXTRACT: note_off channel=0 note=68 velocity=95 time=0.19480499999999998
EXTRACT: note_off channel=0 note=65 velocity=95 time=0
EXTRACT: note_off channel=0 note=60 velocity=95 time=0
EXTRACT: note_off channel=0 note=53 velocity=95 time=0
EXTRACT: note_on channel=0 note=68 velocity=95 time=0
EXTRACT: note_on channel=0 note=65 velocity=95 time=0
EXTRACT: note_on channel=0 note=60 velocity=95 time=0
EXTRACT: note_on channel=0 note=53 velocity=95 time=0
EXTRACT: note_off channel=2 note=36 velocity=95 time=0
EXTRACT: note_on channel=2 note=36 velocity=95 time=0
EXTRACT: note_off channel=9 note=36 velocity=95 time=0
EXTRACT: note_on channel=9 note=36 velocity=95 time=0
EXTRACT: note_on channel=9 note=44 velocity=95 time=0
EXTRACT: note_off channel=0 note=68 velocity=95 time=0.19480499999999998
EXTRACT: note_off channel=0 note=65 velocity=95 time=0
EXTRACT: note_off channel=0 note=60 velocity=95 time=0
EXTRACT: note_off channel=0 note=53 velocity=95 time=0
EXTRACT: note_on channel=0 note=68 velocity=95 time=0
EXTRACT: note_on channel=0 note=65 velocity=95 time=0
EXTRACT: note_on channel=0 note=60 velocity=95 time=0
EXTRACT: note_on channel=0 note=53 velocity=95 time=0
EXTRACT: note_off channel=2 note=36 velocity=95 time=0
EXTRACT: note_on channel=2 note=36 velocity=95 time=0
EXTRACT: note_off channel=0 note=68 velocity=95 time=0.19480499999999998
EXTRACT: note_off channel=0 note=65 velocity=95 time=0
EXTRACT: note_off channel=0 note=60 velocity=95 time=0
EXTRACT: note_off channel=0 note=53 velocity=95 time=0
EXTRACT: note_on channel=0 note=59 velocity=95 time=0
EXTRACT: note_on channel=0 note=55 velocity=95 time=0
EXTRACT: note_on channel=0 note=50 velocity=95 time=0
EXTRACT: note_on channel=0 note=45 velocity=95 time=0
EXTRACT: note_off channel=2 note=36 velocity=95 time=0
EXTRACT: note_on channel=2 note=36 velocity=95 time=0
EXTRACT: note_off channel=9 note=36 velocity=95 time=0
EXTRACT: note_off channel=9 note=44 velocity=95 time=0
EXTRACT: note_on channel=9 note=38 velocity=95 time=0
EXTRACT: note_off channel=0 note=59 velocity=95 time=0.030844124999999997
EXTRACT: note_off channel=0 note=55 velocity=95 time=0
EXTRACT: note_off channel=0 note=50 velocity=95 time=0
EXTRACT: note_off channel=0 note=45 velocity=95 time=0
EXTRACT: note_on channel=0 note=59 velocity=95 time=0.16396087499999998
EXTRACT: note_on channel=0 note=55 velocity=95 time=0
EXTRACT: note_on channel=0 note=50 velocity=95 time=0
EXTRACT: note_on channel=0 note=45 velocity=95 time=0
EXTRACT: note_off channel=2 note=36 velocity=95 time=0
EXTRACT: note_on channel=2 note=36 velocity=95 time=0
EXTRACT: note_off channel=9 note=38 velocity=95 time=0
EXTRACT: note_on channel=9 note=38 velocity=95 time=0
EXTRACT: note_off channel=0 note=59 velocity=95 time=0.030844124999999997
EXTRACT: note_off channel=0 note=55 velocity=95 time=0
EXTRACT: note_off channel=0 note=50 velocity=95 time=0
EXTRACT: note_off channel=0 note=45 velocity=95 time=0
EXTRACT: note_on channel=0 note=65 velocity=95 time=0.16396087499999998
EXTRACT: note_on channel=0 note=61 velocity=95 time=0
EXTRACT: note_on channel=0 note=56 velocity=95 time=0
EXTRACT: note_on channel=0 note=49 velocity=95 time=0
EXTRACT: note_off channel=2 note=36 velocity=95 time=0
EXTRACT: note_on channel=2 note=37 velocity=95 time=0
EXTRACT: note_off channel=9 note=38 velocity=95 time=0
EXTRACT: note_on channel=9 note=36 velocity=95 time=0
EXTRACT: note_on channel=9 note=44 velocity=95 time=0
EXTRACT: note_off channel=0 note=65 velocity=95 time=0.38960999999999996
EXTRACT: note_off channel=0 note=61 velocity=95 time=0
EXTRACT: note_off channel=0 note=56 velocity=95 time=0
EXTRACT: note_off channel=0 note=49 velocity=95 time=0
EXTRACT: note_on channel=0 note=59 velocity=95 time=0
EXTRACT: note_on channel=0 note=55 velocity=95 time=0
EXTRACT: note_on channel=0 note=50 velocity=95 time=0
EXTRACT: note_on channel=0 note=45 velocity=95 time=0
EXTRACT: note_off channel=9 note=36 velocity=95 time=0
EXTRACT: note_off channel=9 note=44 velocity=95 time=0
EXTRACT: note_on channel=9 note=50 velocity=95 time=0
EXTRACT: note_off channel=0 note=59 velocity=95 time=0.030844124999999997
EXTRACT: note_off channel=0 note=55 velocity=95 time=0
EXTRACT: note_off channel=0 note=50 velocity=95 time=0
EXTRACT: note_off channel=0 note=45 velocity=95 time=0
EXTRACT: note_on channel=0 note=59 velocity=95 time=0.16396087499999998
EXTRACT: note_on channel=0 note=55 velocity=95 time=0
EXTRACT: note_on channel=0 note=50 velocity=95 time=0
EXTRACT: note_on channel=0 note=45 velocity=95 time=0
EXTRACT: note_off channel=9 note=50 velocity=95 time=0
EXTRACT: note_on channel=9 note=50 velocity=95 time=0
EXTRACT: note_off channel=0 note=59 velocity=95 time=0.030844124999999997
EXTRACT: note_off channel=0 note=55 velocity=95 time=0
EXTRACT: note_off channel=0 note=50 velocity=95 time=0
EXTRACT: note_off channel=0 note=45 velocity=95 time=0
EXTRACT: note_on channel=0 note=67 velocity=95 time=0.16396087499999998
EXTRACT: note_on channel=0 note=63 velocity=95 time=0
EXTRACT: note_on channel=0 note=58 velocity=95 time=0
EXTRACT: note_on channel=0 note=51 velocity=95 time=0
EXTRACT: note_off channel=2 note=37 velocity=95 time=0
EXTRACT: note_on channel=2 note=39 velocity=95 time=0
EXTRACT: note_off channel=9 note=50 velocity=95 time=0
EXTRACT: note_on channel=9 note=36 velocity=95 time=0
EXTRACT: note_on channel=9 note=44 velocity=95 time=0
EXTRACT: note_off channel=0 note=67 velocity=95 time=0.38960999999999996
EXTRACT: note_off channel=0 note=63 velocity=95 time=0
EXTRACT: note_off channel=0 note=58 velocity=95 time=0
EXTRACT: note_off channel=0 note=51 velocity=95 time=0
EXTRACT: note_on channel=0 note=59 velocity=95 time=0
EXTRACT: note_on channel=0 note=55 velocity=95 time=0
EXTRACT: note_on channel=0 note=50 velocity=95 time=0
EXTRACT: note_on channel=0 note=45 velocity=95 time=0
EXTRACT: note_off channel=9 note=36 velocity=95 time=0
EXTRACT: note_off channel=9 note=44 velocity=95 time=0
EXTRACT: note_on channel=9 note=48 velocity=95 time=0
EXTRACT: note_off channel=0 note=59 velocity=95 time=0.030844124999999997
EXTRACT: note_off channel=0 note=55 velocity=95 time=0
EXTRACT: note_off channel=0 note=50 velocity=95 time=0
EXTRACT: note_off channel=0 note=45 velocity=95 time=0
EXTRACT: note_on channel=0 note=59 velocity=95 time=0.16396087499999998
EXTRACT: note_on channel=0 note=55 velocity=95 time=0
EXTRACT: note_on channel=0 note=50 velocity=95 time=0
EXTRACT: note_on channel=0 note=45 velocity=95 time=0
EXTRACT: note_off channel=9 note=48 velocity=95 time=0
EXTRACT: note_on channel=9 note=48 velocity=95 time=0
EXTRACT: note_off channel=0 note=59 velocity=95 time=0.030844124999999997
EXTRACT: note_off channel=0 note=55 velocity=95 time=0
EXTRACT: note_off channel=0 note=50 velocity=95 time=0
EXTRACT: note_off channel=0 note=45 velocity=95 time=0
EXTRACT: note_on channel=0 note=63 velocity=95 time=0.16396087499999998
EXTRACT: note_on channel=0 note=60 velocity=95 time=0
EXTRACT: note_off channel=2 note=39 velocity=95 time=0
EXTRACT: note_on channel=2 note=36 velocity=95 time=0
EXTRACT: note_off channel=9 note=48 velocity=95 time=0
EXTRACT: note_off channel=0 note=63 velocity=95 time=0.38960999999999996
EXTRACT: note_off channel=0 note=60 velocity=95 time=0
EXTRACT: note_on channel=0 note=55 velocity=95 time=0
EXTRACT: note_off channel=0 note=55 velocity=95 time=0.38960999999999996
EXTRACT: note_on channel=0 note=63 velocity=95 time=0
EXTRACT: note_on channel=0 note=60 velocity=95 time=0
EXTRACT: note_off channel=0 note=63 velocity=95 time=0.38960999999999996
EXTRACT: note_off channel=0 note=60 velocity=95 time=0
EXTRACT: note_on channel=0 note=55 velocity=95 time=0
EXTRACT: note_off channel=0 note=55 velocity=95 time=0.38960999999999996
EXTRACT: note_on channel=0 note=63 velocity=95 time=0
EXTRACT: note_on channel=0 note=60 velocity=95 time=0
EXTRACT: note_off channel=0 note=63 velocity=95 time=0.38960999999999996
EXTRACT: note_off channel=0 note=60 velocity=95 time=0
EXTRACT: note_on channel=0 note=55 velocity=95 time=0
EXTRACT: note_off channel=0 note=55 velocity=95 time=0.38960999999999996
EXTRACT: note_on channel=0 note=63 velocity=95 time=0
EXTRACT: note_on channel=0 note=60 velocity=95 time=0
EXTRACT: note_off channel=0 note=63 velocity=95 time=0.38960999999999996
EXTRACT: note_off channel=0 note=60 velocity=95 time=0
EXTRACT: note_on channel=0 note=55 velocity=95 time=0
EXTRACT: note_off channel=0 note=55 velocity=95 time=0.38960999999999996
EXTRACT: note_on channel=0 note=62 velocity=95 time=0
EXTRACT: note_on channel=0 note=58 velocity=95 time=0
EXTRACT: note_off channel=2 note=36 velocity=95 time=0
EXTRACT: note_on channel=2 note=31 velocity=95 time=0
EXTRACT: note_off channel=0 note=62 velocity=95 time=0.38960999999999996
EXTRACT: note_off channel=0 note=58 velocity=95 time=0
EXTRACT: note_on channel=0 note=55 velocity=95 time=0
EXTRACT: note_off channel=0 note=55 velocity=95 time=0.38960999999999996
EXTRACT: note_on channel=0 note=62 velocity=95 time=0
EXTRACT: note_on channel=0 note=58 velocity=95 time=0
EXTRACT: note_off channel=0 note=62 velocity=95 time=0.7792199999999999
EXTRACT: note_off channel=0 note=58 velocity=95 time=0
EXTRACT: note_on channel=0 note=60 velocity=95 time=0
EXTRACT: note_on channel=0 note=56 velocity=95 time=0
EXTRACT: note_off channel=2 note=31 velocity=95 time=0
EXTRACT: note_on channel=2 note=29 velocity=95 time=0
EXTRACT: note_off channel=0 note=60 velocity=95 time=0.38960999999999996
EXTRACT: note_off channel=0 note=56 velocity=95 time=0
EXTRACT: note_on channel=0 note=53 velocity=95 time=0
EXTRACT: note_off channel=0 note=53 velocity=95 time=0.38960999999999996
EXTRACT: note_on channel=0 note=60 velocity=95 time=0
EXTRACT: note_on channel=0 note=56 velocity=95 time=0
EXTRACT: note_off channel=0 note=60 velocity=95 time=0.7792199999999999
EXTRACT: note_off channel=0 note=56 velocity=95 time=0
EXTRACT: note_on channel=0 note=62 velocity=95 time=0
EXTRACT: note_on channel=0 note=58 velocity=95 time=0
EXTRACT: note_off channel=2 note=29 velocity=95 time=0
EXTRACT: note_on channel=2 note=34 velocity=95 time=0
EXTRACT: note_off channel=0 note=62 velocity=95 time=0.38960999999999996
EXTRACT: note_off channel=0 note=58 velocity=95 time=0
EXTRACT: note_on channel=0 note=53 velocity=95 time=0
EXTRACT: note_off channel=0 note=53 velocity=95 time=0.38960999999999996
EXTRACT: note_on channel=0 note=62 velocity=95 time=0
EXTRACT: note_on channel=0 note=58 velocity=95 time=0
EXTRACT: note_off channel=0 note=62 velocity=95 time=0.7792199999999999
EXTRACT: note_off channel=0 note=58 velocity=95 time=0
EXTRACT: note_on channel=0 note=62 velocity=95 time=0
EXTRACT: note_on channel=0 note=58 velocity=95 time=0
EXTRACT: note_off channel=2 note=34 velocity=95 time=0
EXTRACT: note_on channel=2 note=31 velocity=95 time=0
EXTRACT: note_off channel=0 note=62 velocity=95 time=0.38960999999999996
EXTRACT: note_off channel=0 note=58 velocity=95 time=0
EXTRACT: note_on channel=0 note=55 velocity=95 time=0
EXTRACT: note_off channel=0 note=55 velocity=95 time=0.38960999999999996
EXTRACT: note_on channel=0 note=62 velocity=95 time=0
EXTRACT: note_on channel=0 note=58 velocity=95 time=0
EXTRACT: note_off channel=0 note=62 velocity=95 time=0.7792199999999999
EXTRACT: note_off channel=0 note=58 velocity=95 time=0
EXTRACT: note_on channel=0 note=60 velocity=95 time=0
EXTRACT: note_on channel=0 note=56 velocity=95 time=0
EXTRACT: note_off channel=2 note=31 velocity=95 time=0
EXTRACT: note_on channel=2 note=29 velocity=95 time=0
EXTRACT: note_off channel=0 note=60 velocity=95 time=0.38960999999999996
EXTRACT: note_off channel=0 note=56 velocity=95 time=0
EXTRACT: note_on channel=0 note=53 velocity=95 time=0
EXTRACT: note_off channel=0 note=53 velocity=95 time=0.38960999999999996
EXTRACT: note_on channel=0 note=60 velocity=95 time=0
EXTRACT: note_on channel=0 note=56 velocity=95 time=0
EXTRACT: note_off channel=0 note=60 velocity=95 time=0.7792199999999999
EXTRACT: note_off channel=0 note=56 velocity=95 time=0
EXTRACT: note_on channel=0 note=62 velocity=95 time=0
EXTRACT: note_on channel=0 note=58 velocity=95 time=0
EXTRACT: note_off channel=2 note=29 velocity=95 time=0
EXTRACT: note_on channel=2 note=34 velocity=95 time=0
EXTRACT: note_on channel=9 note=40 velocity=95 time=0
EXTRACT: note_on channel=9 note=38 velocity=95 time=0
EXTRACT: note_off channel=9 note=40 velocity=95 time=0.38960999999999996
EXTRACT: note_off channel=9 note=38 velocity=95 time=0
EXTRACT: note_on channel=9 note=40 velocity=95 time=0
EXTRACT: note_on channel=9 note=38 velocity=95 time=0
EXTRACT: note_off channel=9 note=40 velocity=95 time=0.38960999999999996
EXTRACT: note_off channel=9 note=38 velocity=95 time=0
EXTRACT: note_off channel=2 note=34 velocity=95 time=0.19480499999999998
EXTRACT: note_on channel=3 note=34 velocity=95 time=0
EXTRACT: pitchwheel channel=3 pitch=4864 time=0.09740249999999999
EXTRACT: pitchwheel channel=3 pitch=8064 time=0.09740249999999999
EXTRACT: pitchwheel channel=3 pitch=0 time=0
EXTRACT: note_off channel=3 note=34 velocity=95 time=0
EXTRACT: note_on channel=2 note=48 velocity=95 time=0
EXTRACT: note_on channel=9 note=40 velocity=95 time=0
EXTRACT: note_on channel=9 note=38 velocity=95 time=0
EXTRACT: note_off channel=9 note=40 velocity=95 time=0.19480499999999998
EXTRACT: note_off channel=9 note=38 velocity=95 time=0
EXTRACT: note_on channel=9 note=40 velocity=95 time=0
EXTRACT: note_on channel=9 note=38 velocity=95 time=0
EXTRACT: note_off channel=0 note=62 velocity=95 time=0.19480499999999998
EXTRACT: note_off channel=0 note=58 velocity=95 time=0
EXTRACT: note_on channel=0 note=67 velocity=95 time=0
EXTRACT: note_on channel=0 note=63 velocity=95 time=0
EXTRACT: note_on channel=0 note=60 velocity=95 time=0
EXTRACT: note_on channel=0 note=55 velocity=95 time=0
EXTRACT: note_on channel=0 note=48 velocity=95 time=0
EXTRACT: note_off channel=2 note=48 velocity=95 time=0
EXTRACT: note_on channel=2 note=36 velocity=95 time=0
EXTRACT: note_off channel=9 note=40 velocity=95 time=0
EXTRACT: note_off channel=9 note=38 velocity=95 time=0
EXTRACT: note_on channel=9 note=36 velocity=95 time=0
EXTRACT: note_on channel=9 note=44 velocity=95 time=0
EXTRACT: note_off channel=0 note=67 velocity=95 time=0.38960999999999996
EXTRACT: note_off channel=0 note=63 velocity=95 time=0
EXTRACT: note_off channel=0 note=60 velocity=95 time=0
EXTRACT: note_off channel=0 note=55 velocity=95 time=0
EXTRACT: note_off channel=0 note=48 velocity=95 time=0
EXTRACT: note_on channel=0 note=67 velocity=95 time=0
EXTRACT: note_on channel=0 note=63 velocity=95 time=0
EXTRACT: note_on channel=0 note=60 velocity=95 time=0
EXTRACT: note_on channel=0 note=55 velocity=95 time=0
EXTRACT: note_on channel=0 note=48 velocity=95 time=0
EXTRACT: note_off channel=2 note=36 velocity=95 time=0
EXTRACT: note_on channel=2 note=36 velocity=95 time=0
EXTRACT: note_off channel=9 note=36 velocity=95 time=0
EXTRACT: note_off channel=9 note=44 velocity=95 time=0
EXTRACT: note_on channel=9 note=44 velocity=95 time=0
EXTRACT: note_off channel=9 note=44 velocity=95 time=0.19480499999999998
EXTRACT: note_on channel=9 note=36 velocity=95 time=0
EXTRACT: note_off channel=0 note=67 velocity=95 time=0.19480499999999998
EXTRACT: note_off channel=0 note=63 velocity=95 time=0
EXTRACT: note_off channel=0 note=60 velocity=95 time=0
EXTRACT: note_off channel=0 note=55 velocity=95 time=0
EXTRACT: note_off channel=0 note=48 velocity=95 time=0
EXTRACT: note_on channel=0 note=67 velocity=95 time=0
EXTRACT: note_on channel=0 note=63 velocity=95 time=0
EXTRACT: note_on channel=0 note=60 velocity=95 time=0
EXTRACT: note_on channel=0 note=55 velocity=95 time=0
EXTRACT: note_on channel=0 note=48 velocity=95 time=0
EXTRACT: note_off channel=2 note=36 velocity=95 time=0
EXTRACT: note_on channel=2 note=46 velocity=95 time=0
EXTRACT: note_off channel=9 note=36 velocity=95 time=0
EXTRACT: note_on channel=9 note=38 velocity=95 time=0
EXTRACT: note_on channel=9 note=54 velocity=95 time=0
EXTRACT: note_on channel=9 note=44 velocity=95 time=0
EXTRACT: note_off channel=0 note=67 velocity=95 time=0.19480499999999998
EXTRACT: note_off channel=0 note=63 velocity=95 time=0
EXTRACT: note_off channel=0 note=60 velocity=95 time=0
EXTRACT: note_off channel=0 note=55 velocity=95 time=0
EXTRACT: note_off channel=0 note=48 velocity=95 time=0
EXTRACT: note_on channel=0 note=67 velocity=95 time=0
EXTRACT: note_on channel=0 note=63 velocity=95 time=0
EXTRACT: note_on channel=0 note=60 velocity=95 time=0
EXTRACT: note_on channel=0 note=55 velocity=95 time=0
EXTRACT: note_on channel=0 note=48 velocity=95 time=0
EXTRACT: note_off channel=2 note=46 velocity=95 time=0
EXTRACT: note_on channel=2 note=48 velocity=95 time=0
EXTRACT: note_off channel=0 note=67 velocity=95 time=0.19480499999999998
EXTRACT: note_off channel=0 note=63 velocity=95 time=0
EXTRACT: note_off channel=0 note=60 velocity=95 time=0
EXTRACT: note_off channel=0 note=55 velocity=95 time=0
EXTRACT: note_off channel=0 note=48 velocity=95 time=0
EXTRACT: note_on channel=0 note=67 velocity=95 time=0
EXTRACT: note_on channel=0 note=63 velocity=95 time=0
EXTRACT: note_on channel=0 note=60 velocity=95 time=0
EXTRACT: note_on channel=0 note=55 velocity=95 time=0
EXTRACT: note_on channel=0 note=48 velocity=95 time=0
EXTRACT: note_off channel=2 note=48 velocity=95 time=0
EXTRACT: note_on channel=2 note=41 velocity=95 time=0
EXTRACT: note_off channel=9 note=38 velocity=95 time=0
EXTRACT: note_off channel=9 note=54 velocity=95 time=0
EXTRACT: note_off channel=9 note=44 velocity=95 time=0
EXTRACT: note_on channel=9 note=44 velocity=95 time=0
EXTRACT: note_off channel=0 note=67 velocity=95 time=0.19480499999999998
EXTRACT: note_off channel=0 note=63 velocity=95 time=0
EXTRACT: note_off channel=0 note=60 velocity=95 time=0
EXTRACT: note_off channel=0 note=55 velocity=95 time=0
EXTRACT: note_off channel=0 note=48 velocity=95 time=0
EXTRACT: note_on channel=0 note=67 velocity=95 time=0
EXTRACT: note_on channel=0 note=62 velocity=95 time=0
EXTRACT: note_on channel=0 note=58 velocity=95 time=0
EXTRACT: note_on channel=0 note=55 velocity=95 time=0
EXTRACT: note_on channel=0 note=50 velocity=95 time=0
EXTRACT: note_on channel=0 note=43 velocity=95 time=0
EXTRACT: note_off channel=2 note=41 velocity=95 time=0
EXTRACT: note_on channel=2 note=31 velocity=95 time=0
EXTRACT: note_off channel=9 note=44 velocity=95 time=0
EXTRACT: note_on channel=9 note=36 velocity=95 time=0
EXTRACT: note_off channel=2 note=31 velocity=95 time=0.19480499999999998
EXTRACT: note_off channel=9 note=36 velocity=95 time=0
EXTRACT: note_on channel=9 note=36 velocity=95 time=0
EXTRACT: note_on channel=9 note=44 velocity=95 time=0
EXTRACT: note_off channel=0 note=67 velocity=95 time=0.19480499999999998
EXTRACT: note_off channel=0 note=62 velocity=95 time=0
EXTRACT: note_off channel=0 note=58 velocity=95 time=0
EXTRACT: note_off channel=0 note=55 velocity=95 time=0
EXTRACT: note_off channel=0 note=50 velocity=95 time=0
EXTRACT: note_off channel=0 note=43 velocity=95 time=0
EXTRACT: note_on channel=0 note=67 velocity=95 time=0
EXTRACT: note_on channel=0 note=62 velocity=95 time=0
EXTRACT: note_on channel=0 note=58 velocity=95 time=0
EXTRACT: note_on channel=0 note=55 velocity=95 time=0
EXTRACT: note_on channel=0 note=50 velocity=95 time=0
EXTRACT: note_on channel=0 note=43 velocity=95 time=0
EXTRACT: note_on channel=2 note=43 velocity=95 time=0
EXTRACT: note_off channel=0 note=67 velocity=95 time=0.19480499999999998
EXTRACT: note_off channel=0 note=62 velocity=95 time=0
EXTRACT: note_off channel=0 note=58 velocity=95 time=0
EXTRACT: note_off channel=0 note=55 velocity=95 time=0
EXTRACT: note_off channel=0 note=50 velocity=95 time=0
EXTRACT: note_off channel=0 note=43 velocity=95 time=0
EXTRACT: note_on channel=0 note=67 velocity=95 time=0
EXTRACT: note_on channel=0 note=62 velocity=95 time=0
EXTRACT: note_on channel=0 note=58 velocity=95 time=0
EXTRACT: note_on channel=0 note=55 velocity=95 time=0
EXTRACT: note_on channel=0 note=50 velocity=95 time=0
EXTRACT: note_on channel=0 note=43 velocity=95 time=0
EXTRACT: note_off channel=2 note=43 velocity=95 time=0
EXTRACT: note_on channel=2 note=43 velocity=95 time=0
EXTRACT: note_off channel=9 note=36 velocity=95 time=0
EXTRACT: note_off channel=9 note=44 velocity=95 time=0
EXTRACT: note_on channel=9 note=44 velocity=95 time=0
EXTRACT: note_off channel=0 note=67 velocity=95 time=0.19480499999999998
EXTRACT: note_off channel=0 note=62 velocity=95 time=0
EXTRACT: note_off channel=0 note=58 velocity=95 time=0
EXTRACT: note_off channel=0 note=55 velocity=95 time=0
EXTRACT: note_off channel=0 note=50 velocity=95 time=0
EXTRACT: note_off channel=0 note=43 velocity=95 time=0
EXTRACT: note_on channel=0 note=67 velocity=95 time=0
EXTRACT: note_on channel=0 note=62 velocity=95 time=0
EXTRACT: note_on channel=0 note=58 velocity=95 time=0
EXTRACT: note_on channel=0 note=55 velocity=95 time=0
EXTRACT: note_on channel=0 note=50 velocity=95 time=0
EXTRACT: note_on channel=0 note=43 velocity=95 time=0
EXTRACT: note_off channel=9 note=44 velocity=95 time=0
EXTRACT: note_on channel=9 note=36 velocity=95 time=0
EXTRACT: note_off channel=0 note=67 velocity=95 time=0.19480499999999998
EXTRACT: note_off channel=0 note=62 velocity=95 time=0
EXTRACT: note_off channel=0 note=58 velocity=95 time=0
EXTRACT: note_off channel=0 note=55 velocity=95 time=0
EXTRACT: note_off channel=0 note=50 velocity=95 time=0
EXTRACT: note_off channel=0 note=43 velocity=95 time=0
EXTRACT: note_on channel=0 note=67 velocity=95 time=0
EXTRACT: note_on channel=0 note=62 velocity=95 time=0
EXTRACT: note_on channel=0 note=58 velocity=95 time=0
EXTRACT: note_on channel=0 note=55 velocity=95 time=0
EXTRACT: note_on channel=0 note=50 velocity=95 time=0
EXTRACT: note_on channel=0 note=43 velocity=95 time=0
EXTRACT: note_off channel=2 note=43 velocity=95 time=0
EXTRACT: note_on channel=2 note=36 velocity=95 time=0
EXTRACT: note_off channel=9 note=36 velocity=95 time=0
EXTRACT: note_on channel=9 note=38 velocity=95 time=0
EXTRACT: note_on channel=9 note=54 velocity=95 time=0
EXTRACT: note_on channel=9 note=44 velocity=95 time=0
EXTRACT: note_off channel=0 note=67 velocity=95 time=0.19480499999999998
EXTRACT: note_off channel=0 note=62 velocity=95 time=0
EXTRACT: note_off channel=0 note=58 velocity=95 time=0
EXTRACT: note_off channel=0 note=55 velocity=95 time=0
EXTRACT: note_off channel=0 note=50 velocity=95 time=0
EXTRACT: note_off channel=0 note=43 velocity=95 time=0
EXTRACT: note_on channel=0 note=67 velocity=95 time=0
EXTRACT: note_on channel=0 note=62 velocity=95 time=0
EXTRACT: note_on channel=0 note=58 velocity=95 time=0
EXTRACT: note_on channel=0 note=55 velocity=95 time=0
EXTRACT: note_on channel=0 note=50 velocity=95 time=0
EXTRACT: note_on channel=0 note=43 velocity=95 time=0
EXTRACT: note_off channel=2 note=36 velocity=95 time=0
EXTRACT: note_on channel=2 note=38 velocity=95 time=0
EXTRACT: note_off channel=0 note=67 velocity=95 time=0.19480499999999998
EXTRACT: note_off channel=0 note=62 velocity=95 time=0
EXTRACT: note_off channel=0 note=58 velocity=95 time=0
EXTRACT: note_off channel=0 note=55 velocity=95 time=0
EXTRACT: note_off channel=0 note=50 velocity=95 time=0
EXTRACT: note_off channel=0 note=43 velocity=95 time=0
EXTRACT: note_on channel=0 note=67 velocity=95 time=0
EXTRACT: note_on channel=0 note=62 velocity=95 time=0
EXTRACT: note_on channel=0 note=58 velocity=95 time=0
EXTRACT: note_on channel=0 note=55 velocity=95 time=0
EXTRACT: note_on channel=0 note=50 velocity=95 time=0
EXTRACT: note_on channel=0 note=43 velocity=95 time=0
EXTRACT: note_off channel=2 note=38 velocity=95 time=0
EXTRACT: note_on channel=2 note=36 velocity=95 time=0
EXTRACT: note_off channel=9 note=38 velocity=95 time=0
EXTRACT: note_off channel=9 note=54 velocity=95 time=0
EXTRACT: note_off channel=9 note=44 velocity=95 time=0
EXTRACT: note_on channel=9 note=44 velocity=95 time=0
EXTRACT: note_off channel=0 note=67 velocity=95 time=0.19480499999999998
EXTRACT: note_off channel=0 note=62 velocity=95 time=0
EXTRACT: note_off channel=0 note=58 velocity=95 time=0
EXTRACT: note_off channel=0 note=55 velocity=95 time=0
EXTRACT: note_off channel=0 note=50 velocity=95 time=0
EXTRACT: note_off channel=0 note=43 velocity=95 time=0
EXTRACT: note_on channel=0 note=67 velocity=95 time=0
EXTRACT: note_on channel=0 note=62 velocity=95 time=0
EXTRACT: note_on channel=0 note=58 velocity=95 time=0
EXTRACT: note_on channel=0 note=55 velocity=95 time=0
EXTRACT: note_on channel=0 note=50 velocity=95 time=0
EXTRACT: note_on channel=0 note=43 velocity=95 time=0
EXTRACT: note_off channel=2 note=36 velocity=95 time=0
EXTRACT: note_on channel=2 note=38 velocity=95 time=0
EXTRACT: note_off channel=9 note=44 velocity=95 time=0
EXTRACT: note_off channel=0 note=67 velocity=95 time=0.19480499999999998
EXTRACT: note_off channel=0 note=62 velocity=95 time=0
EXTRACT: note_off channel=0 note=58 velocity=95 time=0
EXTRACT: note_off channel=0 note=55 velocity=95 time=0
EXTRACT: note_off channel=0 note=50 velocity=95 time=0
EXTRACT: note_off channel=0 note=43 velocity=95 time=0
EXTRACT: note_on channel=0 note=65 velocity=95 time=0
EXTRACT: note_on channel=0 note=60 velocity=95 time=0
EXTRACT: note_on channel=0 note=56 velocity=95 time=0
EXTRACT: note_on channel=0 note=53 velocity=95 time=0
EXTRACT: note_on channel=0 note=48 velocity=95 time=0
EXTRACT: note_on channel=0 note=41 velocity=95 time=0
EXTRACT: note_off channel=2 note=38 velocity=95 time=0
EXTRACT: note_on channel=2 note=41 velocity=95 time=0
EXTRACT: note_on channel=9 note=36 velocity=95 time=0
EXTRACT: note_on channel=9 note=44 velocity=95 time=0
EXTRACT: note_off channel=0 note=65 velocity=95 time=0.38960999999999996
EXTRACT: note_off channel=0 note=60 velocity=95 time=0
EXTRACT: note_off channel=0 note=56 velocity=95 time=0
EXTRACT: note_off channel=0 note=53 velocity=95 time=0
EXTRACT: note_off channel=0 note=48 velocity=95 time=0
EXTRACT: note_off channel=0 note=41 velocity=95 time=0
EXTRACT: note_on channel=0 note=65 velocity=95 time=0
EXTRACT: note_on channel=0 note=60 velocity=95 time=0
EXTRACT: note_on channel=0 note=56 velocity=95 time=0
EXTRACT: note_on channel=0 note=53 velocity=95 time=0
EXTRACT: note_on channel=0 note=48 velocity=95 time=0
EXTRACT: note_on channel=0 note=41 velocity=95 time=0
EXTRACT: note_off channel=2 note=41 velocity=95 time=0
EXTRACT: note_on channel=2 note=41 velocity=95 time=0
EXTRACT: note_off channel=9 note=36 velocity=95 time=0
EXTRACT: note_off channel=9 note=44 velocity=95 time=0
EXTRACT: note_on channel=9 note=44 velocity=95 time=0
EXTRACT: note_off channel=0 note=65 velocity=95 time=0.19480499999999998
EXTRACT: note_off channel=0 note=60 velocity=95 time=0
EXTRACT: note_off channel=0 note=56 velocity=95 time=0
EXTRACT: note_off channel=0 note=53 velocity=95 time=0
EXTRACT: note_off channel=0 note=48 velocity=95 time=0
EXTRACT: note_off channel=0 note=41 velocity=95 time=0
EXTRACT: note_on channel=0 note=65 velocity=95 time=0
EXTRACT: note_on channel=0 note=60 velocity=95 time=0
EXTRACT: note_on channel=0 note=56 velocity=95 time=0
EXTRACT: note_on channel=0 note=53 velocity=95 time=0
EXTRACT: note_on channel=0 note=48 velocity=95 time=0
EXTRACT: note_on channel=0 note=41 velocity=95 time=0
EXTRACT: note_off channel=9 note=44 velocity=95 time=0
EXTRACT: note_on channel=9 note=36 velocity=95 time=0
EXTRACT: note_off channel=0 note=65 velocity=95 time=0.19480499999999998
EXTRACT: note_off channel=0 note=60 velocity=95 time=0
EXTRACT: note_off channel=0 note=56 velocity=95 time=0
EXTRACT: note_off channel=0 note=53 velocity=95 time=0
EXTRACT: note_off channel=0 note=48 velocity=95 time=0
EXTRACT: note_off channel=0 note=41 velocity=95 time=0
EXTRACT: note_on channel=0 note=65 velocity=95 time=0
EXTRACT: note_on channel=0 note=60 velocity=95 time=0
EXTRACT: note_on channel=0 note=56 velocity=95 time=0
EXTRACT: note_on channel=0 note=53 velocity=95 time=0
EXTRACT: note_on channel=0 note=48 velocity=95 time=0
EXTRACT: note_on channel=0 note=41 velocity=95 time=0
EXTRACT: note_off channel=2 note=41 velocity=95 time=0
EXTRACT: note_on channel=2 note=39 velocity=95 time=0
EXTRACT: note_off channel=9 note=36 velocity=95 time=0
EXTRACT: note_on channel=9 note=38 velocity=95 time=0
EXTRACT: note_on channel=9 note=54 velocity=95 time=0
EXTRACT: note_on channel=9 note=44 velocity=95 time=0
EXTRACT: note_off channel=0 note=65 velocity=95 time=0.19480499999999998
EXTRACT: note_off channel=0 note=60 velocity=95 time=0
EXTRACT: note_off channel=0 note=56 velocity=95 time=0
EXTRACT: note_off channel=0 note=53 velocity=95 time=0
EXTRACT: note_off channel=0 note=48 velocity=95 time=0
EXTRACT: note_off channel=0 note=41 velocity=95 time=0
EXTRACT: note_on channel=0 note=65 velocity=95 time=0
EXTRACT: note_on channel=0 note=60 velocity=95 time=0
EXTRACT: note_on channel=0 note=56 velocity=95 time=0
EXTRACT: note_on channel=0 note=53 velocity=95 time=0
EXTRACT: note_on channel=0 note=48 velocity=95 time=0
EXTRACT: note_on channel=0 note=41 velocity=95 time=0
EXTRACT: note_off channel=2 note=39 velocity=95 time=0
EXTRACT: note_on channel=2 note=38 velocity=95 time=0
EXTRACT: note_off channel=0 note=65 velocity=95 time=0.19480499999999998
EXTRACT: note_off channel=0 note=60 velocity=95 time=0
EXTRACT: note_off channel=0 note=56 velocity=95 time=0
EXTRACT: note_off channel=0 note=53 velocity=95 time=0
EXTRACT: note_off channel=0 note=48 velocity=95 time=0
EXTRACT: note_off channel=0 note=41 velocity=95 time=0
EXTRACT: note_on channel=0 note=65 velocity=95 time=0
EXTRACT: note_on channel=0 note=60 velocity=95 time=0
EXTRACT: note_on channel=0 note=56 velocity=95 time=0
EXTRACT: note_on channel=0 note=53 velocity=95 time=0
EXTRACT: note_on channel=0 note=48 velocity=95 time=0
EXTRACT: note_on channel=0 note=41 velocity=95 time=0
EXTRACT: note_off channel=2 note=38 velocity=95 time=0
EXTRACT: note_off channel=9 note=38 velocity=95 time=0
EXTRACT: note_off channel=9 note=54 velocity=95 time=0
EXTRACT: note_off channel=9 note=44 velocity=95 time=0
EXTRACT: note_on channel=9 note=44 velocity=95 time=0
EXTRACT: note_off channel=0 note=65 velocity=95 time=0.19480499999999998
EXTRACT: note_off channel=0 note=60 velocity=95 time=0
EXTRACT: note_off channel=0 note=56 velocity=95 time=0
EXTRACT: note_off channel=0 note=53 velocity=95 time=0
EXTRACT: note_off channel=0 note=48 velocity=95 time=0
EXTRACT: note_off channel=0 note=41 velocity=95 time=0
EXTRACT: note_on channel=0 note=65 velocity=95 time=0
EXTRACT: note_on channel=0 note=62 velocity=95 time=0
EXTRACT: note_on channel=0 note=58 velocity=95 time=0
EXTRACT: note_on channel=0 note=53 velocity=95 time=0
EXTRACT: note_on channel=0 note=46 velocity=95 time=0
EXTRACT: note_on channel=2 note=34 velocity=95 time=0
EXTRACT: note_off channel=9 note=44 velocity=95 time=0
EXTRACT: note_on channel=9 note=36 velocity=95 time=0
EXTRACT: note_off channel=2 note=34 velocity=95 time=0.19480499999999998
EXTRACT: note_off channel=9 note=36 velocity=95 time=0
EXTRACT: note_on channel=9 note=36 velocity=95 time=0
EXTRACT: note_on channel=9 note=44 velocity=95 time=0
EXTRACT: note_off channel=0 note=65 velocity=95 time=0.19480499999999998
EXTRACT: note_off channel=0 note=62 velocity=95 time=0
EXTRACT: note_off channel=0 note=58 velocity=95 time=0
EXTRACT: note_off channel=0 note=53 velocity=95 time=0
EXTRACT: note_off channel=0 note=46 velocity=95 time=0
EXTRACT: note_on channel=0 note=65 velocity=95 time=0
EXTRACT: note_on channel=0 note=62 velocity=95 time=0
EXTRACT: note_on channel=0 note=58 velocity=95 time=0
EXTRACT: note_on channel=0 note=53 velocity=95 time=0
EXTRACT: note_on channel=0 note=46 velocity=95 time=0
EXTRACT: note_on channel=2 note=34 velocity=95 time=0
EXTRACT: note_off channel=0 note=65 velocity=95 time=0.19480499999999998
EXTRACT: note_off channel=0 note=62 velocity=95 time=0
EXTRACT: note_off channel=0 note=58 velocity=95 time=0
EXTRACT: note_off channel=0 note=53 velocity=95 time=0
EXTRACT: note_off channel=0 note=46 velocity=95 time=0
EXTRACT: note_on channel=0 note=65 velocity=95 time=0
EXTRACT: note_on channel=0 note=62 velocity=95 time=0
EXTRACT: note_on channel=0 note=58 velocity=95 time=0
EXTRACT: note_on channel=0 note=53 velocity=95 time=0
EXTRACT: note_on channel=0 note=46 velocity=95 time=0
EXTRACT: note_off channel=2 note=34 velocity=95 time=0
EXTRACT: note_on channel=2 note=34 velocity=95 time=0
EXTRACT: note_off channel=9 note=36 velocity=95 time=0
EXTRACT: note_off channel=9 note=44 velocity=95 time=0
EXTRACT: note_on channel=9 note=44 velocity=95 time=0
EXTRACT: note_off channel=0 note=65 velocity=95 time=0.19480499999999998
EXTRACT: note_off channel=0 note=62 velocity=95 time=0
EXTRACT: note_off channel=0 note=58 velocity=95 time=0
EXTRACT: note_off channel=0 note=53 velocity=95 time=0
EXTRACT: note_off channel=0 note=46 velocity=95 time=0
EXTRACT: note_on channel=0 note=65 velocity=95 time=0
EXTRACT: note_on channel=0 note=62 velocity=95 time=0
EXTRACT: note_on channel=0 note=58 velocity=95 time=0
EXTRACT: note_on channel=0 note=53 velocity=95 time=0
EXTRACT: note_on channel=0 note=46 velocity=95 time=0
EXTRACT: note_off channel=9 note=44 velocity=95 time=0
EXTRACT: note_on channel=9 note=36 velocity=95 time=0
EXTRACT: note_off channel=0 note=65 velocity=95 time=0.19480499999999998
EXTRACT: note_off channel=0 note=62 velocity=95 time=0
EXTRACT: note_off channel=0 note=58 velocity=95 time=0
EXTRACT: note_off channel=0 note=53 velocity=95 time=0
EXTRACT: note_off channel=0 note=46 velocity=95 time=0
EXTRACT: note_on channel=0 note=65 velocity=95 time=0
EXTRACT: note_on channel=0 note=62 velocity=95 time=0
EXTRACT: note_on channel=0 note=58 velocity=95 time=0
EXTRACT: note_on channel=0 note=53 velocity=95 time=0
EXTRACT: note_on channel=0 note=46 velocity=95 time=0
EXTRACT: note_off channel=2 note=34 velocity=95 time=0
EXTRACT: note_on channel=2 note=46 velocity=95 time=0
EXTRACT: note_off channel=9 note=36 velocity=95 time=0
EXTRACT: note_on channel=9 note=38 velocity=95 time=0
EXTRACT: note_on channel=9 note=54 velocity=95 time=0
EXTRACT: note_on channel=9 note=44 velocity=95 time=0
EXTRACT: note_off channel=0 note=65 velocity=95 time=0.19480499999999998
EXTRACT: note_off channel=0 note=62 velocity=95 time=0
EXTRACT: note_off channel=0 note=58 velocity=95 time=0
EXTRACT: note_off channel=0 note=53 velocity=95 time=0
EXTRACT: note_off channel=0 note=46 velocity=95 time=0
EXTRACT: note_on channel=0 note=65 velocity=95 time=0
EXTRACT: note_on channel=0 note=62 velocity=95 time=0
EXTRACT: note_on channel=0 note=58 velocity=95 time=0
EXTRACT: note_on channel=0 note=53 velocity=95 time=0
EXTRACT: note_on channel=0 note=46 velocity=95 time=0
EXTRACT: note_off channel=2 note=46 velocity=95 time=0
EXTRACT: note_on channel=2 note=45 velocity=95 time=0
EXTRACT: note_off channel=0 note=65 velocity=95 time=0.19480499999999998
EXTRACT: note_off channel=0 note=62 velocity=95 time=0
EXTRACT: note_off channel=0 note=58 velocity=95 time=0
EXTRACT: note_off channel=0 note=53 velocity=95 time=0
EXTRACT: note_off channel=0 note=46 velocity=95 time=0
EXTRACT: note_on channel=0 note=65 velocity=95 time=0
EXTRACT: note_on channel=0 note=62 velocity=95 time=0
EXTRACT: note_on channel=0 note=58 velocity=95 time=0
EXTRACT: note_on channel=0 note=53 velocity=95 time=0
EXTRACT: note_on channel=0 note=46 velocity=95 time=0
EXTRACT: note_off channel=2 note=45 velocity=95 time=0
EXTRACT: note_on channel=2 note=46 velocity=95 time=0
EXTRACT: note_off channel=9 note=38 velocity=95 time=0
EXTRACT: note_off channel=9 note=54 velocity=95 time=0
EXTRACT: note_off channel=9 note=44 velocity=95 time=0
EXTRACT: note_on channel=9 note=44 velocity=95 time=0
EXTRACT: note_off channel=0 note=65 velocity=95 time=0.19480499999999998
EXTRACT: note_off channel=0 note=62 velocity=95 time=0
EXTRACT: note_off channel=0 note=58 velocity=95 time=0
EXTRACT: note_off channel=0 note=53 velocity=95 time=0
EXTRACT: note_off channel=0 note=46 velocity=95 time=0
EXTRACT: note_on channel=0 note=65 velocity=95 time=0
EXTRACT: note_on channel=0 note=62 velocity=95 time=0
EXTRACT: note_on channel=0 note=58 velocity=95 time=0
EXTRACT: note_on channel=0 note=53 velocity=95 time=0
EXTRACT: note_on channel=0 note=46 velocity=95 time=0
EXTRACT: note_off channel=2 note=46 velocity=95 time=0
EXTRACT: note_on channel=2 note=43 velocity=95 time=0
EXTRACT: note_off channel=9 note=44 velocity=95 time=0
EXTRACT: note_off channel=0 note=65 velocity=95 time=0.19480499999999998
EXTRACT: note_off channel=0 note=62 velocity=95 time=0
EXTRACT: note_off channel=0 note=58 velocity=95 time=0
EXTRACT: note_off channel=0 note=53 velocity=95 time=0
EXTRACT: note_off channel=0 note=46 velocity=95 time=0
EXTRACT: note_on channel=0 note=67 velocity=95 time=0
EXTRACT: note_on channel=0 note=63 velocity=95 time=0
EXTRACT: note_on channel=0 note=58 velocity=95 time=0
EXTRACT: note_on channel=0 note=51 velocity=95 time=0
EXTRACT: note_off channel=2 note=43 velocity=95 time=0
EXTRACT: note_on channel=2 note=39 velocity=95 time=0
EXTRACT: note_on channel=9 note=36 velocity=95 time=0
EXTRACT: note_on channel=9 note=44 velocity=95 time=0
EXTRACT: note_off channel=0 note=67 velocity=95 time=0.38960999999999996
EXTRACT: note_off channel=0 note=63 velocity=95 time=0
EXTRACT: note_off channel=0 note=58 velocity=95 time=0
EXTRACT: note_off channel=0 note=51 velocity=95 time=0
EXTRACT: note_on channel=0 note=67 velocity=95 time=0
EXTRACT: note_on channel=0 note=63 velocity=95 time=0
EXTRACT: note_on channel=0 note=58 velocity=95 time=0
EXTRACT: note_on channel=0 note=51 velocity=95 time=0
EXTRACT: note_off channel=2 note=39 velocity=95 time=0
EXTRACT: note_on channel=2 note=39 velocity=95 time=0
EXTRACT: note_off channel=9 note=36 velocity=95 time=0
EXTRACT: note_off channel=9 note=44 velocity=95 time=0
EXTRACT: note_on channel=9 note=44 velocity=95 time=0
EXTRACT: note_off channel=9 note=44 velocity=95 time=0.19480499999999998
EXTRACT: note_on channel=9 note=36 velocity=95 time=0
EXTRACT: note_off channel=0 note=67 velocity=95 time=0.19480499999999998
EXTRACT: note_off channel=0 note=63 velocity=95 time=0
EXTRACT: note_off channel=0 note=58 velocity=95 time=0
EXTRACT: note_off channel=0 note=51 velocity=95 time=0
EXTRACT: note_on channel=0 note=67 velocity=95 time=0
EXTRACT: note_on channel=0 note=63 velocity=95 time=0
EXTRACT: note_on channel=0 note=58 velocity=95 time=0
EXTRACT: note_on channel=0 note=51 velocity=95 time=0
EXTRACT: note_off channel=2 note=39 velocity=95 time=0
EXTRACT: note_on channel=2 note=31 velocity=95 time=0
EXTRACT: note_off channel=9 note=36 velocity=95 time=0
EXTRACT: note_on channel=9 note=38 velocity=95 time=0
EXTRACT: note_on channel=9 note=54 velocity=95 time=0
EXTRACT: note_on channel=9 note=44 velocity=95 time=0
EXTRACT: note_off channel=0 note=67 velocity=95 time=0.19480499999999998
EXTRACT: note_off channel=0 note=63 velocity=95 time=0
EXTRACT: note_off channel=0 note=58 velocity=95 time=0
EXTRACT: note_off channel=0 note=51 velocity=95 time=0
EXTRACT: note_on channel=0 note=67 velocity=95 time=0
EXTRACT: note_on channel=0 note=63 velocity=95 time=0
EXTRACT: note_on channel=0 note=58 velocity=95 time=0
EXTRACT: note_on channel=0 note=51 velocity=95 time=0
EXTRACT: note_off channel=2 note=31 velocity=95 time=0
EXTRACT: note_on channel=2 note=33 velocity=95 time=0
EXTRACT: note_off channel=0 note=67 velocity=95 time=0.19480499999999998
EXTRACT: note_off channel=0 note=63 velocity=95 time=0
EXTRACT: note_off channel=0 note=58 velocity=95 time=0
EXTRACT: note_off channel=0 note=51 velocity=95 time=0
EXTRACT: note_on channel=0 note=67 velocity=95 time=0
EXTRACT: note_on channel=0 note=63 velocity=95 time=0
EXTRACT: note_on channel=0 note=58 velocity=95 time=0
EXTRACT: note_on channel=0 note=51 velocity=95 time=0
EXTRACT: note_off channel=2 note=33 velocity=95 time=0
EXTRACT: note_off channel=9 note=38 velocity=95 time=0
EXTRACT: note_off channel=9 note=54 velocity=95 time=0
EXTRACT: note_off channel=9 note=44 velocity=95 time=0
EXTRACT: note_on channel=9 note=44 velocity=95 time=0
EXTRACT: note_off channel=0 note=67 velocity=95 time=0.19480499999999998
EXTRACT: note_off channel=0 note=63 velocity=95 time=0
EXTRACT: note_off channel=0 note=58 velocity=95 time=0
EXTRACT: note_off channel=0 note=51 velocity=95 time=0
EXTRACT: note_on channel=0 note=65 velocity=95 time=0
EXTRACT: note_on channel=0 note=62 velocity=95 time=0
EXTRACT: note_on channel=0 note=58 velocity=95 time=0
EXTRACT: note_on channel=0 note=53 velocity=95 time=0
EXTRACT: note_on channel=0 note=46 velocity=95 time=0
EXTRACT: note_on channel=2 note=34 velocity=95 time=0
EXTRACT: note_off channel=9 note=44 velocity=95 time=0
EXTRACT: note_on channel=9 note=36 velocity=95 time=0
EXTRACT: note_off channel=2 note=34 velocity=95 time=0.19480499999999998
EXTRACT: note_off channel=9 note=36 velocity=95 time=0
EXTRACT: note_on channel=9 note=36 velocity=95 time=0
EXTRACT: note_on channel=9 note=44 velocity=95 time=0
EXTRACT: note_off channel=0 note=65 velocity=95 time=0.19480499999999998
EXTRACT: note_off channel=0 note=62 velocity=95 time=0
EXTRACT: note_off channel=0 note=58 velocity=95 time=0
EXTRACT: note_off channel=0 note=53 velocity=95 time=0
EXTRACT: note_off channel=0 note=46 velocity=95 time=0
EXTRACT: note_on channel=0 note=65 velocity=95 time=0
EXTRACT: note_on channel=0 note=62 velocity=95 time=0
EXTRACT: note_on channel=0 note=58 velocity=95 time=0
EXTRACT: note_on channel=0 note=53 velocity=95 time=0
EXTRACT: note_on channel=0 note=46 velocity=95 time=0
EXTRACT: note_on channel=2 note=34 velocity=95 time=0
EXTRACT: note_off channel=0 note=65 velocity=95 time=0.19480499999999998
EXTRACT: note_off channel=0 note=62 velocity=95 time=0
EXTRACT: note_off channel=0 note=58 velocity=95 time=0
EXTRACT: note_off channel=0 note=53 velocity=95 time=0
EXTRACT: note_off channel=0 note=46 velocity=95 time=0
EXTRACT: note_on channel=0 note=65 velocity=95 time=0
EXTRACT: note_on channel=0 note=62 velocity=95 time=0
EXTRACT: note_on channel=0 note=58 velocity=95 time=0
EXTRACT: note_on channel=0 note=53 velocity=95 time=0
EXTRACT: note_on channel=0 note=46 velocity=95 time=0
EXTRACT: note_off channel=2 note=34 velocity=95 time=0
EXTRACT: note_on channel=2 note=38 velocity=95 time=0
EXTRACT: note_off channel=9 note=36 velocity=95 time=0
EXTRACT: note_off channel=9 note=44 velocity=95 time=0
EXTRACT: note_on channel=9 note=44 velocity=95 time=0
EXTRACT: note_off channel=0 note=65 velocity=95 time=0.19480499999999998
EXTRACT: note_off channel=0 note=62 velocity=95 time=0
EXTRACT: note_off channel=0 note=58 velocity=95 time=0
EXTRACT: note_off channel=0 note=53 velocity=95 time=0
EXTRACT: note_off channel=0 note=46 velocity=95 time=0
EXTRACT: note_on channel=0 note=65 velocity=95 time=0
EXTRACT: note_on channel=0 note=62 velocity=95 time=0
EXTRACT: note_on channel=0 note=58 velocity=95 time=0
EXTRACT: note_on channel=0 note=53 velocity=95 time=0
EXTRACT: note_on channel=0 note=46 velocity=95 time=0
EXTRACT: note_off channel=2 note=38 velocity=95 time=0
EXTRACT: note_on channel=2 note=41 velocity=95 time=0
EXTRACT: note_off channel=9 note=44 velocity=95 time=0
EXTRACT: note_on channel=9 note=36 velocity=95 time=0
EXTRACT: note_off channel=0 note=65 velocity=95 time=0.19480499999999998
EXTRACT: note_off channel=0 note=62 velocity=95 time=0
EXTRACT: note_off channel=0 note=58 velocity=95 time=0
EXTRACT: note_off channel=0 note=53 velocity=95 time=0
EXTRACT: note_off channel=0 note=46 velocity=95 time=0
EXTRACT: note_on channel=0 note=65 velocity=95 time=0
EXTRACT: note_on channel=0 note=62 velocity=95 time=0
EXTRACT: note_on channel=0 note=58 velocity=95 time=0
EXTRACT: note_on channel=0 note=53 velocity=95 time=0
EXTRACT: note_on channel=0 note=46 velocity=95 time=0
EXTRACT: note_off channel=2 note=41 velocity=95 time=0
EXTRACT: note_on channel=2 note=43 velocity=95 time=0
EXTRACT: note_off channel=9 note=36 velocity=95 time=0
EXTRACT: note_on channel=9 note=38 velocity=95 time=0
EXTRACT: note_on channel=9 note=54 velocity=95 time=0
EXTRACT: note_on channel=9 note=44 velocity=95 time=0
EXTRACT: note_off channel=0 note=65 velocity=95 time=0.19480499999999998
EXTRACT: note_off channel=0 note=62 velocity=95 time=0
EXTRACT: note_off channel=0 note=58 velocity=95 time=0
EXTRACT: note_off channel=0 note=53 velocity=95 time=0
EXTRACT: note_off channel=0 note=46 velocity=95 time=0
EXTRACT: note_on channel=0 note=65 velocity=95 time=0
EXTRACT: note_on channel=0 note=62 velocity=95 time=0
EXTRACT: note_on channel=0 note=58 velocity=95 time=0
EXTRACT: note_on channel=0 note=53 velocity=95 time=0
EXTRACT: note_on channel=0 note=46 velocity=95 time=0
EXTRACT: note_off channel=2 note=43 velocity=95 time=0
EXTRACT: note_on channel=2 note=41 velocity=95 time=0
EXTRACT: note_off channel=2 note=41 velocity=95 time=0.19480499999999998
EXTRACT: note_on channel=2 note=38 velocity=95 time=0
EXTRACT: note_off channel=9 note=38 velocity=95 time=0
EXTRACT: note_off channel=9 note=54 velocity=95 time=0
EXTRACT: note_off channel=9 note=44 velocity=95 time=0
EXTRACT: note_on channel=9 note=44 velocity=95 time=0
EXTRACT: note_off channel=9 note=44 velocity=95 time=0.19480499999999998
EXTRACT: note_off channel=0 note=65 velocity=95 time=0.19480499999999998
EXTRACT: note_off channel=0 note=62 velocity=95 time=0
EXTRACT: note_off channel=0 note=58 velocity=95 time=0
EXTRACT: note_off channel=0 note=53 velocity=95 time=0
EXTRACT: note_off channel=0 note=46 velocity=95 time=0
EXTRACT: note_on channel=0 note=64 velocity=95 time=0
EXTRACT: note_on channel=0 note=60 velocity=95 time=0
EXTRACT: note_on channel=0 note=55 velocity=95 time=0
EXTRACT: note_on channel=0 note=48 velocity=95 time=0
EXTRACT: note_off channel=2 note=38 velocity=95 time=0
EXTRACT: note_on channel=2 note=36 velocity=95 time=0
EXTRACT: note_on channel=9 note=36 velocity=95 time=0
EXTRACT: note_on channel=9 note=44 velocity=95 time=0
EXTRACT: note_off channel=9 note=36 velocity=95 time=0.38960999999999996
EXTRACT: note_off channel=9 note=44 velocity=95 time=0
EXTRACT: note_on channel=9 note=44 velocity=95 time=0
EXTRACT: note_off channel=0 note=64 velocity=95 time=0.19480499999999998
EXTRACT: note_off channel=0 note=60 velocity=95 time=0
EXTRACT: note_off channel=0 note=55 velocity=95 time=0
EXTRACT: note_off channel=0 note=48 velocity=95 time=0
EXTRACT: note_on channel=0 note=64 velocity=95 time=0
EXTRACT: note_on channel=0 note=60 velocity=95 time=0
EXTRACT: note_on channel=0 note=55 velocity=95 time=0
EXTRACT: note_on channel=0 note=48 velocity=95 time=0
EXTRACT: note_off channel=2 note=36 velocity=95 time=0
EXTRACT: note_on channel=2 note=36 velocity=95 time=0
EXTRACT: note_off channel=9 note=44 velocity=95 time=0
EXTRACT: note_on channel=9 note=36 velocity=95 time=0
EXTRACT: note_off channel=0 note=64 velocity=95 time=0.19480499999999998
EXTRACT: note_off channel=0 note=60 velocity=95 time=0
EXTRACT: note_off channel=0 note=55 velocity=95 time=0
EXTRACT: note_off channel=0 note=48 velocity=95 time=0
EXTRACT: note_on channel=0 note=64 velocity=95 time=0
EXTRACT: note_on channel=0 note=60 velocity=95 time=0
EXTRACT: note_on channel=0 note=55 velocity=95 time=0
EXTRACT: note_on channel=0 note=48 velocity=95 time=0
EXTRACT: note_off channel=9 note=36 velocity=95 time=0
EXTRACT: note_on channel=9 note=38 velocity=95 time=0
EXTRACT: note_on channel=9 note=54 velocity=95 time=0
EXTRACT: note_on channel=9 note=44 velocity=95 time=0
EXTRACT: note_off channel=0 note=64 velocity=95 time=0.38960999999999996
EXTRACT: note_off channel=0 note=60 velocity=95 time=0
EXTRACT: note_off channel=0 note=55 velocity=95 time=0
EXTRACT: note_off channel=0 note=48 velocity=95 time=0
EXTRACT: note_on channel=0 note=64 velocity=95 time=0
EXTRACT: note_on channel=0 note=60 velocity=95 time=0
EXTRACT: note_on channel=0 note=55 velocity=95 time=0
EXTRACT: note_on channel=0 note=48 velocity=95 time=0
EXTRACT: note_off channel=2 note=36 velocity=95 time=0
EXTRACT: note_on channel=2 note=36 velocity=95 time=0
EXTRACT: note_off channel=9 note=38 velocity=95 time=0
EXTRACT: note_off channel=9 note=54 velocity=95 time=0
EXTRACT: note_off channel=9 note=44 velocity=95 time=0
EXTRACT: note_on channel=9 note=44 velocity=95 time=0
EXTRACT: note_off channel=9 note=44 velocity=95 time=0.19480499999999998
EXTRACT: note_on channel=9 note=36 velocity=95 time=0
EXTRACT: note_off channel=9 note=36 velocity=95 time=0.19480499999999998
EXTRACT: note_on channel=9 note=36 velocity=95 time=0
EXTRACT: note_on channel=9 note=44 velocity=95 time=0
EXTRACT: note_off channel=0 note=64 velocity=95 time=0.19480499999999998
EXTRACT: note_off channel=0 note=60 velocity=95 time=0
EXTRACT: note_off channel=0 note=55 velocity=95 time=0
EXTRACT: note_off channel=0 note=48 velocity=95 time=0
EXTRACT: note_on channel=0 note=64 velocity=95 time=0
EXTRACT: note_on channel=0 note=60 velocity=95 time=0
EXTRACT: note_on channel=0 note=55 velocity=95 time=0
EXTRACT: note_on channel=0 note=48 velocity=95 time=0
EXTRACT: note_off channel=2 note=36 velocity=95 time=0
EXTRACT: note_on channel=2 note=36 velocity=95 time=0
EXTRACT: note_off channel=9 note=36 velocity=95 time=0.19480499999999998
EXTRACT: note_off channel=9 note=44 velocity=95 time=0
EXTRACT: note_on channel=9 note=44 velocity=95 time=0
EXTRACT: note_off channel=9 note=44 velocity=95 time=0.19480499999999998
EXTRACT: note_on channel=9 note=36 velocity=95 time=0
EXTRACT: note_off channel=0 note=64 velocity=95 time=0.19480499999999998
EXTRACT: note_off channel=0 note=60 velocity=95 time=0
EXTRACT: note_off channel=0 note=55 velocity=95 time=0
EXTRACT: note_off channel=0 note=48 velocity=95 time=0
EXTRACT: note_on channel=0 note=64 velocity=95 time=0
EXTRACT: note_on channel=0 note=60 velocity=95 time=0
EXTRACT: note_on channel=0 note=55 velocity=95 time=0
EXTRACT: note_on channel=0 note=48 velocity=95 time=0
EXTRACT: note_off channel=2 note=36 velocity=95 time=0
EXTRACT: note_on channel=2 note=36 velocity=95 time=0
EXTRACT: note_off channel=9 note=36 velocity=95 time=0
EXTRACT: note_on channel=9 note=38 velocity=95 time=0
EXTRACT: note_on channel=9 note=54 velocity=95 time=0
EXTRACT: note_on channel=9 note=44 velocity=95 time=0
EXTRACT: note_off channel=0 note=64 velocity=95 time=0.38960999999999996
EXTRACT: note_off channel=0 note=60 velocity=95 time=0
EXTRACT: note_off channel=0 note=55 velocity=95 time=0
EXTRACT: note_off channel=0 note=48 velocity=95 time=0
EXTRACT: note_on channel=0 note=55 velocity=95 time=0
EXTRACT: note_off channel=2 note=36 velocity=95 time=0
EXTRACT: note_on channel=2 note=36 velocity=95 time=0
EXTRACT: note_off channel=9 note=38 velocity=95 time=0
EXTRACT: note_off channel=9 note=54 velocity=95 time=0
EXTRACT: note_off channel=9 note=44 velocity=95 time=0
EXTRACT: note_on channel=9 note=44 velocity=95 time=0
EXTRACT: note_off channel=0 note=55 velocity=95 time=0.030844124999999997
EXTRACT: note_on channel=0 note=55 velocity=95 time=0.16396087499999998
EXTRACT: note_off channel=2 note=36 velocity=95 time=0
EXTRACT: note_on channel=2 note=36 velocity=95 time=0
EXTRACT: note_off channel=9 note=44 velocity=95 time=0
EXTRACT: note_off channel=0 note=55 velocity=95 time=0.030844124999999997
EXTRACT: note_on channel=0 note=68 velocity=95 time=0.16396087499999998
EXTRACT: note_on channel=0 note=65 velocity=95 time=0
EXTRACT: note_on channel=0 note=60 velocity=95 time=0
EXTRACT: note_on channel=0 note=53 velocity=95 time=0
EXTRACT: note_off channel=2 note=36 velocity=95 time=0
EXTRACT: note_on channel=2 note=29 velocity=95 time=0
EXTRACT: note_on channel=9 note=36 velocity=95 time=0
EXTRACT: note_on channel=9 note=44 velocity=95 time=0
EXTRACT: note_off channel=9 note=36 velocity=95 time=0.38960999999999996
EXTRACT: note_off channel=9 note=44 velocity=95 time=0
EXTRACT: note_on channel=9 note=44 velocity=95 time=0
EXTRACT: note_off channel=0 note=68 velocity=95 time=0.19480499999999998
EXTRACT: note_off channel=0 note=65 velocity=95 time=0
EXTRACT: note_off channel=0 note=60 velocity=95 time=0
EXTRACT: note_off channel=0 note=53 velocity=95 time=0
EXTRACT: note_on channel=0 note=68 velocity=95 time=0
EXTRACT: note_on channel=0 note=65 velocity=95 time=0
EXTRACT: note_on channel=0 note=60 velocity=95 time=0
EXTRACT: note_on channel=0 note=53 velocity=95 time=0
EXTRACT: note_off channel=2 note=29 velocity=95 time=0
EXTRACT: note_on channel=2 note=36 velocity=95 time=0
EXTRACT: note_off channel=9 note=44 velocity=95 time=0
EXTRACT: note_on channel=9 note=36 velocity=95 time=0
EXTRACT: note_off channel=0 note=68 velocity=95 time=0.19480499999999998
EXTRACT: note_off channel=0 note=65 velocity=95 time=0
EXTRACT: note_off channel=0 note=60 velocity=95 time=0
EXTRACT: note_off channel=0 note=53 velocity=95 time=0
EXTRACT: note_on channel=0 note=68 velocity=95 time=0
EXTRACT: note_on channel=0 note=65 velocity=95 time=0
EXTRACT: note_on channel=0 note=60 velocity=95 time=0
EXTRACT: note_on channel=0 note=53 velocity=95 time=0
EXTRACT: note_off channel=2 note=36 velocity=95 time=0
EXTRACT: note_on channel=2 note=36 velocity=95 time=0
EXTRACT: note_off channel=9 note=36 velocity=95 time=0
EXTRACT: note_on channel=9 note=38 velocity=95 time=0
EXTRACT: note_on channel=9 note=54 velocity=95 time=0
EXTRACT: note_on channel=9 note=44 velocity=95 time=0
EXTRACT: note_off channel=0 note=68 velocity=95 time=0.19480499999999998
EXTRACT: note_off channel=0 note=65 velocity=95 time=0
EXTRACT: note_off channel=0 note=60 velocity=95 time=0
EXTRACT: note_off channel=0 note=53 velocity=95 time=0
EXTRACT: note_on channel=0 note=68 velocity=95 time=0
EXTRACT: note_on channel=0 note=65 velocity=95 time=0
EXTRACT: note_on channel=0 note=60 velocity=95 time=0
EXTRACT: note_on channel=0 note=53 velocity=95 time=0
EXTRACT: note_off channel=2 note=36 velocity=95 time=0
EXTRACT: note_on channel=2 note=36 velocity=95 time=0
EXTRACT: note_off channel=0 note=68 velocity=95 time=0.19480499999999998
EXTRACT: note_off channel=0 note=65 velocity=95 time=0
EXTRACT: note_off channel=0 note=60 velocity=95 time=0
EXTRACT: note_off channel=0 note=53 velocity=95 time=0
EXTRACT: note_on channel=0 note=59 velocity=95 time=0
EXTRACT: note_on channel=0 note=55 velocity=95 time=0
EXTRACT: note_on channel=0 note=50 velocity=95 time=0
EXTRACT: note_on channel=0 note=45 velocity=95 time=0
EXTRACT: note_off channel=2 note=36 velocity=95 time=0
EXTRACT: note_on channel=2 note=36 velocity=95 time=0
EXTRACT: note_off channel=9 note=38 velocity=95 time=0
EXTRACT: note_off channel=9 note=54 velocity=95 time=0
EXTRACT: note_off channel=9 note=44 velocity=95 time=0
EXTRACT: note_on channel=9 note=44 velocity=95 time=0
EXTRACT: note_off channel=0 note=59 velocity=95 time=0.030844124999999997
EXTRACT: note_off channel=0 note=55 velocity=95 time=0
EXTRACT: note_off channel=0 note=50 velocity=95 time=0
EXTRACT: note_off channel=0 note=45 velocity=95 time=0
EXTRACT: note_on channel=0 note=59 velocity=95 time=0.16396087499999998
EXTRACT: note_on channel=0 note=55 velocity=95 time=0
EXTRACT: note_on channel=0 note=50 velocity=95 time=0
EXTRACT: note_on channel=0 note=45 velocity=95 time=0
EXTRACT: note_off channel=2 note=36 velocity=95 time=0
EXTRACT: note_on channel=2 note=36 velocity=95 time=0
EXTRACT: note_off channel=9 note=44 velocity=95 time=0
EXTRACT: note_on channel=9 note=36 velocity=95 time=0
EXTRACT: note_off channel=0 note=59 velocity=95 time=0.030844124999999997
EXTRACT: note_off channel=0 note=55 velocity=95 time=0
EXTRACT: note_off channel=0 note=50 velocity=95 time=0
EXTRACT: note_off channel=0 note=45 velocity=95 time=0
EXTRACT: note_on channel=0 note=70 velocity=95 time=0.16396087499999998
EXTRACT: note_on channel=0 note=65 velocity=95 time=0
EXTRACT: note_on channel=0 note=61 velocity=95 time=0
EXTRACT: note_on channel=0 note=58 velocity=95 time=0
EXTRACT: note_on channel=0 note=53 velocity=95 time=0
EXTRACT: note_on channel=0 note=46 velocity=95 time=0
EXTRACT: note_off channel=2 note=36 velocity=95 time=0
EXTRACT: note_on channel=2 note=34 velocity=95 time=0
EXTRACT: note_off channel=9 note=36 velocity=95 time=0
EXTRACT: note_on channel=9 note=36 velocity=95 time=0
EXTRACT: note_on channel=9 note=44 velocity=95 time=0
EXTRACT: note_off channel=2 note=34 velocity=95 time=0.38960999999999996
EXTRACT: note_on channel=2 note=34 velocity=95 time=0
EXTRACT: note_off channel=9 note=36 velocity=95 time=0
EXTRACT: note_off channel=9 note=44 velocity=95 time=0
EXTRACT: note_on channel=9 note=44 velocity=95 time=0
EXTRACT: note_off channel=0 note=70 velocity=95 time=0.19480499999999998
EXTRACT: note_off channel=0 note=65 velocity=95 time=0
EXTRACT: note_off channel=0 note=61 velocity=95 time=0
EXTRACT: note_off channel=0 note=58 velocity=95 time=0
EXTRACT: note_off channel=0 note=53 velocity=95 time=0
EXTRACT: note_off channel=0 note=46 velocity=95 time=0
EXTRACT: note_on channel=0 note=70 velocity=95 time=0
EXTRACT: note_on channel=0 note=65 velocity=95 time=0
EXTRACT: note_on channel=0 note=61 velocity=95 time=0
EXTRACT: note_on channel=0 note=58 velocity=95 time=0
EXTRACT: note_on channel=0 note=53 velocity=95 time=0
EXTRACT: note_on channel=0 note=46 velocity=95 time=0
EXTRACT: note_off channel=9 note=44 velocity=95 time=0
EXTRACT: note_on channel=9 note=36 velocity=95 time=0
EXTRACT: note_off channel=0 note=70 velocity=95 time=0.19480499999999998
EXTRACT: note_off channel=0 note=65 velocity=95 time=0
EXTRACT: note_off channel=0 note=61 velocity=95 time=0
EXTRACT: note_off channel=0 note=58 velocity=95 time=0
EXTRACT: note_off channel=0 note=53 velocity=95 time=0
EXTRACT: note_off channel=0 note=46 velocity=95 time=0
EXTRACT: note_on channel=0 note=70 velocity=95 time=0
EXTRACT: note_on channel=0 note=65 velocity=95 time=0
EXTRACT: note_on channel=0 note=61 velocity=95 time=0
EXTRACT: note_on channel=0 note=58 velocity=95 time=0
EXTRACT: note_on channel=0 note=53 velocity=95 time=0
EXTRACT: note_on channel=0 note=46 velocity=95 time=0
EXTRACT: note_off channel=2 note=34 velocity=95 time=0
EXTRACT: note_on channel=2 note=29 velocity=95 time=0
EXTRACT: note_off channel=9 note=36 velocity=95 time=0
EXTRACT: note_on channel=9 note=38 velocity=95 time=0
EXTRACT: note_on channel=9 note=54 velocity=95 time=0
EXTRACT: note_on channel=9 note=44 velocity=95 time=0
EXTRACT: note_off channel=0 note=70 velocity=95 time=0.19480499999999998
EXTRACT: note_off channel=0 note=65 velocity=95 time=0
EXTRACT: note_off channel=0 note=61 velocity=95 time=0
EXTRACT: note_off channel=0 note=58 velocity=95 time=0
EXTRACT: note_off channel=0 note=53 velocity=95 time=0
EXTRACT: note_off channel=0 note=46 velocity=95 time=0
EXTRACT: note_on channel=0 note=70 velocity=95 time=0
EXTRACT: note_on channel=0 note=65 velocity=95 time=0
EXTRACT: note_on channel=0 note=61 velocity=95 time=0
EXTRACT: note_on channel=0 note=58 velocity=95 time=0
EXTRACT: note_on channel=0 note=53 velocity=95 time=0
EXTRACT: note_on channel=0 note=46 velocity=95 time=0
EXTRACT: note_off channel=0 note=70 velocity=95 time=0.19480499999999998
EXTRACT: note_off channel=0 note=65 velocity=95 time=0
EXTRACT: note_off channel=0 note=61 velocity=95 time=0
EXTRACT: note_off channel=0 note=58 velocity=95 time=0
EXTRACT: note_off channel=0 note=53 velocity=95 time=0
EXTRACT: note_off channel=0 note=46 velocity=95 time=0
EXTRACT: note_on channel=0 note=64 velocity=95 time=0
EXTRACT: note_on channel=0 note=59 velocity=95 time=0
EXTRACT: note_on channel=0 note=55 velocity=95 time=0
EXTRACT: note_on channel=0 note=50 velocity=95 time=0
EXTRACT: note_on channel=0 note=45 velocity=95 time=0
EXTRACT: note_on channel=0 note=40 velocity=95 time=0
EXTRACT: note_off channel=9 note=38 velocity=95 time=0
EXTRACT: note_off channel=9 note=54 velocity=95 time=0
EXTRACT: note_off channel=9 note=44 velocity=95 time=0
EXTRACT: note_on channel=9 note=44 velocity=95 time=0
EXTRACT: note_off channel=0 note=64 velocity=95 time=0.030844124999999997
EXTRACT: note_off channel=0 note=59 velocity=95 time=0
EXTRACT: note_off channel=0 note=55 velocity=95 time=0
EXTRACT: note_off channel=0 note=50 velocity=95 time=0
EXTRACT: note_off channel=0 note=45 velocity=95 time=0
EXTRACT: note_off channel=0 note=40 velocity=95 time=0
EXTRACT: note_on channel=0 note=64 velocity=95 time=0.16396087499999998
EXTRACT: note_on channel=0 note=59 velocity=95 time=0
EXTRACT: note_on channel=0 note=55 velocity=95 time=0
EXTRACT: note_on channel=0 note=50 velocity=95 time=0
EXTRACT: note_on channel=0 note=45 velocity=95 time=0
EXTRACT: note_on channel=0 note=40 velocity=95 time=0
EXTRACT: note_off channel=9 note=44 velocity=95 time=0
EXTRACT: note_off channel=0 note=64 velocity=95 time=0.030844124999999997
EXTRACT: note_off channel=0 note=59 velocity=95 time=0
EXTRACT: note_off channel=0 note=55 velocity=95 time=0
EXTRACT: note_off channel=0 note=50 velocity=95 time=0
EXTRACT: note_off channel=0 note=45 velocity=95 time=0
EXTRACT: note_off channel=0 note=40 velocity=95 time=0
EXTRACT: note_on channel=0 note=67 velocity=95 time=0.16396087499999998
EXTRACT: note_on channel=0 note=63 velocity=95 time=0
EXTRACT: note_on channel=0 note=58 velocity=95 time=0
EXTRACT: note_on channel=0 note=51 velocity=95 time=0
EXTRACT: note_off channel=2 note=29 velocity=95 time=0
EXTRACT: note_on channel=2 note=39 velocity=95 time=0
EXTRACT: note_on channel=9 note=36 velocity=95 time=0
EXTRACT: note_on channel=9 note=44 velocity=95 time=0
EXTRACT: note_off channel=0 note=67 velocity=95 time=0.38960999999999996
EXTRACT: note_off channel=0 note=63 velocity=95 time=0
EXTRACT: note_off channel=0 note=58 velocity=95 time=0
EXTRACT: note_off channel=0 note=51 velocity=95 time=0
EXTRACT: note_on channel=0 note=67 velocity=95 time=0
EXTRACT: note_on channel=0 note=63 velocity=95 time=0
EXTRACT: note_on channel=0 note=58 velocity=95 time=0
EXTRACT: note_on channel=0 note=51 velocity=95 time=0
EXTRACT: note_off channel=2 note=39 velocity=95 time=0
EXTRACT: note_on channel=2 note=46 velocity=95 time=0
EXTRACT: note_off channel=9 note=36 velocity=95 time=0
EXTRACT: note_off channel=9 note=44 velocity=95 time=0
EXTRACT: note_on channel=9 note=44 velocity=95 time=0
EXTRACT: note_off channel=0 note=67 velocity=95 time=0.19480499999999998
EXTRACT: note_off channel=0 note=63 velocity=95 time=0
EXTRACT: note_off channel=0 note=58 velocity=95 time=0
EXTRACT: note_off channel=0 note=51 velocity=95 time=0
EXTRACT: note_on channel=0 note=67 velocity=95 time=0
EXTRACT: note_on channel=0 note=63 velocity=95 time=0
EXTRACT: note_on channel=0 note=58 velocity=95 time=0
EXTRACT: note_on channel=0 note=51 velocity=95 time=0
EXTRACT: note_off channel=2 note=46 velocity=95 time=0
EXTRACT: note_on channel=2 note=46 velocity=95 time=0
EXTRACT: note_off channel=9 note=44 velocity=95 time=0
EXTRACT: note_on channel=9 note=36 velocity=95 time=0
EXTRACT: note_off channel=0 note=67 velocity=95 time=0.19480499999999998
EXTRACT: note_off channel=0 note=63 velocity=95 time=0
EXTRACT: note_off channel=0 note=58 velocity=95 time=0
EXTRACT: note_off channel=0 note=51 velocity=95 time=0
EXTRACT: note_on channel=0 note=67 velocity=95 time=0
EXTRACT: note_on channel=0 note=63 velocity=95 time=0
EXTRACT: note_on channel=0 note=58 velocity=95 time=0
EXTRACT: note_on channel=0 note=51 velocity=95 time=0
EXTRACT: note_off channel=2 note=46 velocity=95 time=0
EXTRACT: note_on channel=2 note=46 velocity=95 time=0
EXTRACT: note_off channel=9 note=36 velocity=95 time=0
EXTRACT: note_on channel=9 note=38 velocity=95 time=0
EXTRACT: note_on channel=9 note=54 velocity=95 time=0
EXTRACT: note_on channel=9 note=44 velocity=95 time=0
EXTRACT: note_off channel=0 note=67 velocity=95 time=0.19480499999999998
EXTRACT: note_off channel=0 note=63 velocity=95 time=0
EXTRACT: note_off channel=0 note=58 velocity=95 time=0
EXTRACT: note_off channel=0 note=51 velocity=95 time=0
EXTRACT: note_on channel=0 note=67 velocity=95 time=0
EXTRACT: note_on channel=0 note=63 velocity=95 time=0
EXTRACT: note_on channel=0 note=58 velocity=95 time=0
EXTRACT: note_on channel=0 note=51 velocity=95 time=0
EXTRACT: note_off channel=2 note=46 velocity=95 time=0
EXTRACT: note_on channel=2 note=46 velocity=95 time=0
EXTRACT: note_off channel=0 note=67 velocity=95 time=0.19480499999999998
EXTRACT: note_off channel=0 note=63 velocity=95 time=0
EXTRACT: note_off channel=0 note=58 velocity=95 time=0
EXTRACT: note_off channel=0 note=51 velocity=95 time=0
EXTRACT: note_on channel=0 note=59 velocity=95 time=0
EXTRACT: note_on channel=0 note=55 velocity=95 time=0
EXTRACT: note_on channel=0 note=50 velocity=95 time=0
EXTRACT: note_on channel=0 note=45 velocity=95 time=0
EXTRACT: note_off channel=2 note=46 velocity=95 time=0
EXTRACT: note_on channel=2 note=34 velocity=95 time=0
EXTRACT: note_off channel=9 note=38 velocity=95 time=0
EXTRACT: note_off channel=9 note=54 velocity=95 time=0
EXTRACT: note_off channel=9 note=44 velocity=95 time=0
EXTRACT: note_on channel=9 note=44 velocity=95 time=0
EXTRACT: note_off channel=0 note=59 velocity=95 time=0.030844124999999997
EXTRACT: note_off channel=0 note=55 velocity=95 time=0
EXTRACT: note_off channel=0 note=50 velocity=95 time=0
EXTRACT: note_off channel=0 note=45 velocity=95 time=0
EXTRACT: note_on channel=0 note=59 velocity=95 time=0.16396087499999998
EXTRACT: note_on channel=0 note=55 velocity=95 time=0
EXTRACT: note_on channel=0 note=50 velocity=95 time=0
EXTRACT: note_on channel=0 note=45 velocity=95 time=0
EXTRACT: note_off channel=2 note=34 velocity=95 time=0
EXTRACT: note_on channel=2 note=35 velocity=95 time=0
EXTRACT: note_off channel=9 note=44 velocity=95 time=0
EXTRACT: note_on channel=9 note=36 velocity=95 time=0
EXTRACT: note_off channel=0 note=59 velocity=95 time=0.030844124999999997
EXTRACT: note_off channel=0 note=55 velocity=95 time=0
EXTRACT: note_off channel=0 note=50 velocity=95 time=0
EXTRACT: note_off channel=0 note=45 velocity=95 time=0
EXTRACT: note_on channel=0 note=72 velocity=95 time=0.16396087499999998
EXTRACT: note_on channel=0 note=67 velocity=95 time=0
EXTRACT: note_on channel=0 note=64 velocity=95 time=0
EXTRACT: note_on channel=0 note=60 velocity=95 time=0
EXTRACT: note_on channel=0 note=55 velocity=95 time=0
EXTRACT: note_on channel=0 note=48 velocity=95 time=0
EXTRACT: note_off channel=2 note=35 velocity=95 time=0
EXTRACT: note_on channel=2 note=36 velocity=95 time=0
EXTRACT: note_off channel=9 note=36 velocity=95 time=0
EXTRACT: note_on channel=9 note=36 velocity=95 time=0
EXTRACT: note_on channel=9 note=44 velocity=95 time=0
EXTRACT: note_off channel=0 note=72 velocity=95 time=0.38960999999999996
EXTRACT: note_off channel=0 note=67 velocity=95 time=0
EXTRACT: note_off channel=0 note=64 velocity=95 time=0
EXTRACT: note_off channel=0 note=60 velocity=95 time=0
EXTRACT: note_off channel=0 note=55 velocity=95 time=0
EXTRACT: note_off channel=0 note=48 velocity=95 time=0
EXTRACT: note_on channel=0 note=72 velocity=95 time=0
EXTRACT: note_on channel=0 note=67 velocity=95 time=0
EXTRACT: note_on channel=0 note=64 velocity=95 time=0
EXTRACT: note_on channel=0 note=60 velocity=95 time=0
EXTRACT: note_on channel=0 note=55 velocity=95 time=0
EXTRACT: note_on channel=0 note=48 velocity=95 time=0
EXTRACT: note_off channel=2 note=36 velocity=95 time=0
EXTRACT: note_on channel=2 note=36 velocity=95 time=0
EXTRACT: note_off channel=9 note=36 velocity=95 time=0
EXTRACT: note_off channel=9 note=44 velocity=95 time=0
EXTRACT: note_on channel=9 note=44 velocity=95 time=0
EXTRACT: note_off channel=0 note=72 velocity=95 time=0.19480499999999998
EXTRACT: note_off channel=0 note=67 velocity=95 time=0
EXTRACT: note_off channel=0 note=64 velocity=95 time=0
EXTRACT: note_off channel=0 note=60 velocity=95 time=0
EXTRACT: note_off channel=0 note=55 velocity=95 time=0
EXTRACT: note_off channel=0 note=48 velocity=95 time=0
EXTRACT: note_on channel=0 note=72 velocity=95 time=0
EXTRACT: note_on channel=0 note=67 velocity=95 time=0
EXTRACT: note_on channel=0 note=64 velocity=95 time=0
EXTRACT: note_on channel=0 note=60 velocity=95 time=0
EXTRACT: note_on channel=0 note=55 velocity=95 time=0
EXTRACT: note_on channel=0 note=48 velocity=95 time=0
EXTRACT: note_off channel=9 note=44 velocity=95 time=0
EXTRACT: note_on channel=9 note=36 velocity=95 time=0
EXTRACT: note_off channel=0 note=72 velocity=95 time=0.19480499999999998
EXTRACT: note_off channel=0 note=67 velocity=95 time=0
EXTRACT: note_off channel=0 note=64 velocity=95 time=0
EXTRACT: note_off channel=0 note=60 velocity=95 time=0
EXTRACT: note_off channel=0 note=55 velocity=95 time=0
EXTRACT: note_off channel=0 note=48 velocity=95 time=0
EXTRACT: note_on channel=0 note=72 velocity=95 time=0
EXTRACT: note_on channel=0 note=67 velocity=95 time=0
EXTRACT: note_on channel=0 note=64 velocity=95 time=0
EXTRACT: note_on channel=0 note=60 velocity=95 time=0
EXTRACT: note_on channel=0 note=55 velocity=95 time=0
EXTRACT: note_on channel=0 note=48 velocity=95 time=0
EXTRACT: note_off channel=2 note=36 velocity=95 time=0
EXTRACT: note_on channel=2 note=31 velocity=95 time=0
EXTRACT: note_off channel=9 note=36 velocity=95 time=0
EXTRACT: note_on channel=9 note=38 velocity=95 time=0
EXTRACT: note_on channel=9 note=54 velocity=95 time=0
EXTRACT: note_on channel=9 note=44 velocity=95 time=0
EXTRACT: note_off channel=0 note=72 velocity=95 time=0.19480499999999998
EXTRACT: note_off channel=0 note=67 velocity=95 time=0
EXTRACT: note_off channel=0 note=64 velocity=95 time=0
EXTRACT: note_off channel=0 note=60 velocity=95 time=0
EXTRACT: note_off channel=0 note=55 velocity=95 time=0
EXTRACT: note_off channel=0 note=48 velocity=95 time=0
EXTRACT: note_on channel=0 note=72 velocity=95 time=0
EXTRACT: note_on channel=0 note=67 velocity=95 time=0
EXTRACT: note_on channel=0 note=64 velocity=95 time=0
EXTRACT: note_on channel=0 note=60 velocity=95 time=0
EXTRACT: note_on channel=0 note=55 velocity=95 time=0
EXTRACT: note_on channel=0 note=48 velocity=95 time=0
EXTRACT: note_off channel=0 note=72 velocity=95 time=0.19480499999999998
EXTRACT: note_off channel=0 note=67 velocity=95 time=0
EXTRACT: note_off channel=0 note=64 velocity=95 time=0
EXTRACT: note_off channel=0 note=60 velocity=95 time=0
EXTRACT: note_off channel=0 note=55 velocity=95 time=0
EXTRACT: note_off channel=0 note=48 velocity=95 time=0
EXTRACT: note_on channel=0 note=64 velocity=95 time=0
EXTRACT: note_on channel=0 note=59 velocity=95 time=0
EXTRACT: note_on channel=0 note=55 velocity=95 time=0
EXTRACT: note_on channel=0 note=50 velocity=95 time=0
EXTRACT: note_on channel=0 note=45 velocity=95 time=0
EXTRACT: note_on channel=0 note=40 velocity=95 time=0
EXTRACT: note_off channel=2 note=31 velocity=95 time=0
EXTRACT: note_on channel=2 note=36 velocity=95 time=0
EXTRACT: note_off channel=9 note=38 velocity=95 time=0
EXTRACT: note_off channel=9 note=54 velocity=95 time=0
EXTRACT: note_off channel=9 note=44 velocity=95 time=0
EXTRACT: note_on channel=9 note=44 velocity=95 time=0
EXTRACT: note_off channel=0 note=64 velocity=95 time=0.030844124999999997
EXTRACT: note_off channel=0 note=59 velocity=95 time=0
EXTRACT: note_off channel=0 note=55 velocity=95 time=0
EXTRACT: note_off channel=0 note=50 velocity=95 time=0
EXTRACT: note_off channel=0 note=45 velocity=95 time=0
EXTRACT: note_off channel=0 note=40 velocity=95 time=0
EXTRACT: note_on channel=0 note=64 velocity=95 time=0.16396087499999998
EXTRACT: note_on channel=0 note=59 velocity=95 time=0
EXTRACT: note_on channel=0 note=55 velocity=95 time=0
EXTRACT: note_on channel=0 note=50 velocity=95 time=0
EXTRACT: note_on channel=0 note=45 velocity=95 time=0
EXTRACT: note_on channel=0 note=40 velocity=95 time=0
EXTRACT: note_off channel=2 note=36 velocity=95 time=0
EXTRACT: note_on channel=2 note=35 velocity=95 time=0
EXTRACT: note_off channel=9 note=44 velocity=95 time=0
EXTRACT: note_off channel=0 note=64 velocity=95 time=0.030844124999999997
EXTRACT: note_off channel=0 note=59 velocity=95 time=0
EXTRACT: note_off channel=0 note=55 velocity=95 time=0
EXTRACT: note_off channel=0 note=50 velocity=95 time=0
EXTRACT: note_off channel=0 note=45 velocity=95 time=0
EXTRACT: note_off channel=0 note=40 velocity=95 time=0
EXTRACT: note_on channel=0 note=70 velocity=95 time=0.16396087499999998
EXTRACT: note_on channel=0 note=65 velocity=95 time=0
EXTRACT: note_on channel=0 note=61 velocity=95 time=0
EXTRACT: note_on channel=0 note=58 velocity=95 time=0
EXTRACT: note_on channel=0 note=53 velocity=95 time=0
EXTRACT: note_on channel=0 note=46 velocity=95 time=0
EXTRACT: note_off channel=2 note=35 velocity=95 time=0
EXTRACT: note_on channel=2 note=34 velocity=95 time=0
EXTRACT: note_on channel=9 note=36 velocity=95 time=0
EXTRACT: note_on channel=9 note=44 velocity=95 time=0
EXTRACT: note_off channel=0 note=70 velocity=95 time=0.38960999999999996
EXTRACT: note_off channel=0 note=65 velocity=95 time=0
EXTRACT: note_off channel=0 note=61 velocity=95 time=0
EXTRACT: note_off channel=0 note=58 velocity=95 time=0
EXTRACT: note_off channel=0 note=53 velocity=95 time=0
EXTRACT: note_off channel=0 note=46 velocity=95 time=0
EXTRACT: note_on channel=0 note=70 velocity=95 time=0
EXTRACT: note_on channel=0 note=65 velocity=95 time=0
EXTRACT: note_on channel=0 note=61 velocity=95 time=0
EXTRACT: note_on channel=0 note=58 velocity=95 time=0
EXTRACT: note_on channel=0 note=53 velocity=95 time=0
EXTRACT: note_on channel=0 note=46 velocity=95 time=0
EXTRACT: note_off channel=2 note=34 velocity=95 time=0
EXTRACT: note_on channel=2 note=41 velocity=95 time=0
EXTRACT: note_off channel=9 note=36 velocity=95 time=0
EXTRACT: note_off channel=9 note=44 velocity=95 time=0
EXTRACT: note_on channel=9 note=44 velocity=95 time=0
EXTRACT: note_off channel=0 note=70 velocity=95 time=0.19480499999999998
EXTRACT: note_off channel=0 note=65 velocity=95 time=0
EXTRACT: note_off channel=0 note=61 velocity=95 time=0
EXTRACT: note_off channel=0 note=58 velocity=95 time=0
EXTRACT: note_off channel=0 note=53 velocity=95 time=0
EXTRACT: note_off channel=0 note=46 velocity=95 time=0
EXTRACT: note_on channel=0 note=70 velocity=95 time=0
EXTRACT: note_on channel=0 note=65 velocity=95 time=0
EXTRACT: note_on channel=0 note=61 velocity=95 time=0
EXTRACT: note_on channel=0 note=58 velocity=95 time=0
EXTRACT: note_on channel=0 note=53 velocity=95 time=0
EXTRACT: note_on channel=0 note=46 velocity=95 time=0
EXTRACT: note_off channel=2 note=41 velocity=95 time=0
EXTRACT: note_on channel=2 note=41 velocity=95 time=0
EXTRACT: note_off channel=9 note=44 velocity=95 time=0
EXTRACT: note_on channel=9 note=36 velocity=95 time=0
EXTRACT: note_off channel=0 note=70 velocity=95 time=0.19480499999999998
EXTRACT: note_off channel=0 note=65 velocity=95 time=0
EXTRACT: note_off channel=0 note=61 velocity=95 time=0
EXTRACT: note_off channel=0 note=58 velocity=95 time=0
EXTRACT: note_off channel=0 note=53 velocity=95 time=0
EXTRACT: note_off channel=0 note=46 velocity=95 time=0
EXTRACT: note_on channel=0 note=70 velocity=95 time=0
EXTRACT: note_on channel=0 note=65 velocity=95 time=0
EXTRACT: note_on channel=0 note=61 velocity=95 time=0
EXTRACT: note_on channel=0 note=58 velocity=95 time=0
EXTRACT: note_on channel=0 note=53 velocity=95 time=0
EXTRACT: note_on channel=0 note=46 velocity=95 time=0
EXTRACT: note_off channel=2 note=41 velocity=95 time=0
EXTRACT: note_on channel=2 note=41 velocity=95 time=0
EXTRACT: note_off channel=9 note=36 velocity=95 time=0
EXTRACT: note_on channel=9 note=38 velocity=95 time=0
EXTRACT: note_on channel=9 note=54 velocity=95 time=0
EXTRACT: note_on channel=9 note=44 velocity=95 time=0
EXTRACT: note_off channel=0 note=70 velocity=95 time=0.19480499999999998
EXTRACT: note_off channel=0 note=65 velocity=95 time=0
EXTRACT: note_off channel=0 note=61 velocity=95 time=0
EXTRACT: note_off channel=0 note=58 velocity=95 time=0
EXTRACT: note_off channel=0 note=53 velocity=95 time=0
EXTRACT: note_off channel=0 note=46 velocity=95 time=0
EXTRACT: note_on channel=0 note=70 velocity=95 time=0
EXTRACT: note_on channel=0 note=65 velocity=95 time=0
EXTRACT: note_on channel=0 note=61 velocity=95 time=0
EXTRACT: note_on channel=0 note=58 velocity=95 time=0
EXTRACT: note_on channel=0 note=53 velocity=95 time=0
EXTRACT: note_on channel=0 note=46 velocity=95 time=0
EXTRACT: note_off channel=2 note=41 velocity=95 time=0
EXTRACT: note_on channel=2 note=41 velocity=95 time=0
EXTRACT: note_off channel=0 note=70 velocity=95 time=0.19480499999999998
EXTRACT: note_off channel=0 note=65 velocity=95 time=0
EXTRACT: note_off channel=0 note=61 velocity=95 time=0
EXTRACT: note_off channel=0 note=58 velocity=95 time=0
EXTRACT: note_off channel=0 note=53 velocity=95 time=0
EXTRACT: note_off channel=0 note=46 velocity=95 time=0
EXTRACT: note_on channel=0 note=64 velocity=95 time=0
EXTRACT: note_on channel=0 note=59 velocity=95 time=0
EXTRACT: note_on channel=0 note=55 velocity=95 time=0
EXTRACT: note_on channel=0 note=50 velocity=95 time=0
EXTRACT: note_on channel=0 note=45 velocity=95 time=0
EXTRACT: note_on channel=0 note=40 velocity=95 time=0
EXTRACT: note_off channel=2 note=41 velocity=95 time=0
EXTRACT: note_on channel=2 note=34 velocity=95 time=0
EXTRACT: note_off channel=9 note=38 velocity=95 time=0
EXTRACT: note_off channel=9 note=54 velocity=95 time=0
EXTRACT: note_off channel=9 note=44 velocity=95 time=0
EXTRACT: note_on channel=9 note=44 velocity=95 time=0
EXTRACT: note_off channel=0 note=64 velocity=95 time=0.030844124999999997
EXTRACT: note_off channel=0 note=59 velocity=95 time=0
EXTRACT: note_off channel=0 note=55 velocity=95 time=0
EXTRACT: note_off channel=0 note=50 velocity=95 time=0
EXTRACT: note_off channel=0 note=45 velocity=95 time=0
EXTRACT: note_off channel=0 note=40 velocity=95 time=0
EXTRACT: note_on channel=0 note=64 velocity=95 time=0.16396087499999998
EXTRACT: note_on channel=0 note=59 velocity=95 time=0
EXTRACT: note_on channel=0 note=55 velocity=95 time=0
EXTRACT: note_on channel=0 note=50 velocity=95 time=0
EXTRACT: note_on channel=0 note=45 velocity=95 time=0
EXTRACT: note_on channel=0 note=40 velocity=95 time=0
EXTRACT: note_off channel=2 note=34 velocity=95 time=0
EXTRACT: note_on channel=2 note=35 velocity=95 time=0
EXTRACT: note_off channel=9 note=44 velocity=95 time=0
EXTRACT: note_on channel=9 note=36 velocity=95 time=0
EXTRACT: note_off channel=0 note=64 velocity=95 time=0.030844124999999997
EXTRACT: note_off channel=0 note=59 velocity=95 time=0
EXTRACT: note_off channel=0 note=55 velocity=95 time=0
EXTRACT: note_off channel=0 note=50 velocity=95 time=0
EXTRACT: note_off channel=0 note=45 velocity=95 time=0
EXTRACT: note_off channel=0 note=40 velocity=95 time=0
EXTRACT: note_on channel=0 note=72 velocity=95 time=0.16396087499999998
EXTRACT: note_on channel=0 note=67 velocity=95 time=0
EXTRACT: note_on channel=0 note=64 velocity=95 time=0
EXTRACT: note_on channel=0 note=60 velocity=95 time=0
EXTRACT: note_on channel=0 note=55 velocity=95 time=0
EXTRACT: note_on channel=0 note=48 velocity=95 time=0
EXTRACT: note_off channel=2 note=35 velocity=95 time=0
EXTRACT: note_on channel=2 note=36 velocity=95 time=0
EXTRACT: note_off channel=9 note=36 velocity=95 time=0
EXTRACT: note_on channel=9 note=36 velocity=95 time=0
EXTRACT: note_on channel=9 note=44 velocity=95 time=0
EXTRACT: note_off channel=0 note=72 velocity=95 time=0.38960999999999996
EXTRACT: note_off channel=0 note=67 velocity=95 time=0
EXTRACT: note_off channel=0 note=64 velocity=95 time=0
EXTRACT: note_off channel=0 note=60 velocity=95 time=0
EXTRACT: note_off channel=0 note=55 velocity=95 time=0
EXTRACT: note_off channel=0 note=48 velocity=95 time=0
EXTRACT: note_on channel=0 note=72 velocity=95 time=0
EXTRACT: note_on channel=0 note=67 velocity=95 time=0
EXTRACT: note_on channel=0 note=64 velocity=95 time=0
EXTRACT: note_on channel=0 note=60 velocity=95 time=0
EXTRACT: note_on channel=0 note=55 velocity=95 time=0
EXTRACT: note_on channel=0 note=48 velocity=95 time=0
EXTRACT: note_off channel=2 note=36 velocity=95 time=0
EXTRACT: note_off channel=9 note=36 velocity=95 time=0
EXTRACT: note_off channel=9 note=44 velocity=95 time=0
EXTRACT: note_on channel=9 note=44 velocity=95 time=0
EXTRACT: note_off channel=0 note=72 velocity=95 time=0.19480499999999998
EXTRACT: note_off channel=0 note=67 velocity=95 time=0
EXTRACT: note_off channel=0 note=64 velocity=95 time=0
EXTRACT: note_off channel=0 note=60 velocity=95 time=0
EXTRACT: note_off channel=0 note=55 velocity=95 time=0
EXTRACT: note_off channel=0 note=48 velocity=95 time=0
EXTRACT: note_on channel=0 note=72 velocity=95 time=0
EXTRACT: note_on channel=0 note=67 velocity=95 time=0
EXTRACT: note_on channel=0 note=64 velocity=95 time=0
EXTRACT: note_on channel=0 note=60 velocity=95 time=0
EXTRACT: note_on channel=0 note=55 velocity=95 time=0
EXTRACT: note_on channel=0 note=48 velocity=95 time=0
EXTRACT: note_on channel=2 note=43 velocity=95 time=0
EXTRACT: note_off channel=9 note=44 velocity=95 time=0
EXTRACT: note_on channel=9 note=36 velocity=95 time=0
EXTRACT: note_off channel=0 note=72 velocity=95 time=0.19480499999999998
EXTRACT: note_off channel=0 note=67 velocity=95 time=0
EXTRACT: note_off channel=0 note=64 velocity=95 time=0
EXTRACT: note_off channel=0 note=60 velocity=95 time=0
EXTRACT: note_off channel=0 note=55 velocity=95 time=0
EXTRACT: note_off channel=0 note=48 velocity=95 time=0
EXTRACT: note_on channel=0 note=72 velocity=95 time=0
EXTRACT: note_on channel=0 note=67 velocity=95 time=0
EXTRACT: note_on channel=0 note=64 velocity=95 time=0
EXTRACT: note_on channel=0 note=60 velocity=95 time=0
EXTRACT: note_on channel=0 note=55 velocity=95 time=0
EXTRACT: note_on channel=0 note=48 velocity=95 time=0
EXTRACT: note_off channel=2 note=43 velocity=95 time=0
EXTRACT: note_on channel=2 note=43 velocity=95 time=0
EXTRACT: note_off channel=9 note=36 velocity=95 time=0
EXTRACT: note_on channel=9 note=38 velocity=95 time=0
EXTRACT: note_on channel=9 note=54 velocity=95 time=0
EXTRACT: note_on channel=9 note=44 velocity=95 time=0
EXTRACT: note_off channel=0 note=72 velocity=95 time=0.19480499999999998
EXTRACT: note_off channel=0 note=67 velocity=95 time=0
EXTRACT: note_off channel=0 note=64 velocity=95 time=0
EXTRACT: note_off channel=0 note=60 velocity=95 time=0
EXTRACT: note_off channel=0 note=55 velocity=95 time=0
EXTRACT: note_off channel=0 note=48 velocity=95 time=0
EXTRACT: note_on channel=0 note=72 velocity=95 time=0
EXTRACT: note_on channel=0 note=67 velocity=95 time=0
EXTRACT: note_on channel=0 note=64 velocity=95 time=0
EXTRACT: note_on channel=0 note=60 velocity=95 time=0
EXTRACT: note_on channel=0 note=55 velocity=95 time=0
EXTRACT: note_on channel=0 note=48 velocity=95 time=0
EXTRACT: note_off channel=2 note=43 velocity=95 time=0
EXTRACT: note_on channel=2 note=43 velocity=95 time=0
EXTRACT: note_off channel=0 note=72 velocity=95 time=0.19480499999999998
EXTRACT: note_off channel=0 note=67 velocity=95 time=0
EXTRACT: note_off channel=0 note=64 velocity=95 time=0
EXTRACT: note_off channel=0 note=60 velocity=95 time=0
EXTRACT: note_off channel=0 note=55 velocity=95 time=0
EXTRACT: note_off channel=0 note=48 velocity=95 time=0
EXTRACT: note_on channel=0 note=64 velocity=95 time=0
EXTRACT: note_on channel=0 note=59 velocity=95 time=0
EXTRACT: note_on channel=0 note=55 velocity=95 time=0
EXTRACT: note_on channel=0 note=50 velocity=95 time=0
EXTRACT: note_on channel=0 note=45 velocity=95 time=0
EXTRACT: note_on channel=0 note=40 velocity=95 time=0
EXTRACT: note_off channel=2 note=43 velocity=95 time=0
EXTRACT: note_on channel=2 note=43 velocity=95 time=0
EXTRACT: note_off channel=9 note=38 velocity=95 time=0
EXTRACT: note_off channel=9 note=54 velocity=95 time=0
EXTRACT: note_off channel=9 note=44 velocity=95 time=0
EXTRACT: note_on channel=9 note=44 velocity=95 time=0
EXTRACT: note_off channel=0 note=64 velocity=95 time=0.030844124999999997
EXTRACT: note_off channel=0 note=59 velocity=95 time=0
EXTRACT: note_off channel=0 note=55 velocity=95 time=0
EXTRACT: note_off channel=0 note=50 velocity=95 time=0
EXTRACT: note_off channel=0 note=45 velocity=95 time=0
EXTRACT: note_off channel=0 note=40 velocity=95 time=0
EXTRACT: note_on channel=0 note=64 velocity=95 time=0.16396087499999998
EXTRACT: note_on channel=0 note=59 velocity=95 time=0
EXTRACT: note_on channel=0 note=55 velocity=95 time=0
EXTRACT: note_on channel=0 note=50 velocity=95 time=0
EXTRACT: note_on channel=0 note=45 velocity=95 time=0
EXTRACT: note_on channel=0 note=40 velocity=95 time=0
EXTRACT: note_off channel=9 note=44 velocity=95 time=0
EXTRACT: note_off channel=0 note=64 velocity=95 time=0.030844124999999997
EXTRACT: note_off channel=0 note=59 velocity=95 time=0
EXTRACT: note_off channel=0 note=55 velocity=95 time=0
EXTRACT: note_off channel=0 note=50 velocity=95 time=0
EXTRACT: note_off channel=0 note=45 velocity=95 time=0
EXTRACT: note_off channel=0 note=40 velocity=95 time=0
EXTRACT: note_on channel=0 note=68 velocity=95 time=0.16396087499999998
EXTRACT: note_on channel=0 note=65 velocity=95 time=0
EXTRACT: note_on channel=0 note=60 velocity=95 time=0
EXTRACT: note_on channel=0 note=53 velocity=95 time=0
EXTRACT: note_off channel=2 note=43 velocity=95 time=0
EXTRACT: note_on channel=2 note=29 velocity=95 time=0
EXTRACT: note_on channel=9 note=36 velocity=95 time=0
EXTRACT: note_on channel=9 note=44 velocity=95 time=0
EXTRACT: note_off channel=0 note=68 velocity=95 time=0.38960999999999996
EXTRACT: note_off channel=0 note=65 velocity=95 time=0
EXTRACT: note_off channel=0 note=60 velocity=95 time=0
EXTRACT: note_off channel=0 note=53 velocity=95 time=0
EXTRACT: note_on channel=0 note=68 velocity=95 time=0
EXTRACT: note_on channel=0 note=65 velocity=95 time=0
EXTRACT: note_on channel=0 note=60 velocity=95 time=0
EXTRACT: note_on channel=0 note=53 velocity=95 time=0
EXTRACT: note_off channel=9 note=36 velocity=95 time=0
EXTRACT: note_off channel=9 note=44 velocity=95 time=0
EXTRACT: note_on channel=9 note=44 velocity=95 time=0
EXTRACT: note_off channel=0 note=68 velocity=95 time=0.19480499999999998
EXTRACT: note_off channel=0 note=65 velocity=95 time=0
EXTRACT: note_off channel=0 note=60 velocity=95 time=0
EXTRACT: note_off channel=0 note=53 velocity=95 time=0
EXTRACT: note_on channel=0 note=68 velocity=95 time=0
EXTRACT: note_on channel=0 note=65 velocity=95 time=0
EXTRACT: note_on channel=0 note=60 velocity=95 time=0
EXTRACT: note_on channel=0 note=53 velocity=95 time=0
EXTRACT: note_off channel=2 note=29 velocity=95 time=0
EXTRACT: note_on channel=2 note=29 velocity=95 time=0
EXTRACT: note_off channel=9 note=44 velocity=95 time=0
EXTRACT: note_on channel=9 note=36 velocity=95 time=0
EXTRACT: note_off channel=0 note=68 velocity=95 time=0.19480499999999998
EXTRACT: note_off channel=0 note=65 velocity=95 time=0
EXTRACT: note_off channel=0 note=60 velocity=95 time=0
EXTRACT: note_off channel=0 note=53 velocity=95 time=0
EXTRACT: note_on channel=0 note=68 velocity=95 time=0
EXTRACT: note_on channel=0 note=65 velocity=95 time=0
EXTRACT: note_on channel=0 note=60 velocity=95 time=0
EXTRACT: note_on channel=0 note=53 velocity=95 time=0
EXTRACT: note_off channel=2 note=29 velocity=95 time=0
EXTRACT: note_on channel=2 note=31 velocity=95 time=0
EXTRACT: note_off channel=9 note=36 velocity=95 time=0
EXTRACT: note_on channel=9 note=38 velocity=95 time=0
EXTRACT: note_on channel=9 note=54 velocity=95 time=0
EXTRACT: note_on channel=9 note=44 velocity=95 time=0
EXTRACT: note_off channel=0 note=68 velocity=95 time=0.19480499999999998
EXTRACT: note_off channel=0 note=65 velocity=95 time=0
EXTRACT: note_off channel=0 note=60 velocity=95 time=0
EXTRACT: note_off channel=0 note=53 velocity=95 time=0
EXTRACT: note_on channel=0 note=68 velocity=95 time=0
EXTRACT: note_on channel=0 note=65 velocity=95 time=0
EXTRACT: note_on channel=0 note=60 velocity=95 time=0
EXTRACT: note_on channel=0 note=53 velocity=95 time=0
EXTRACT: note_off channel=2 note=31 velocity=95 time=0.06493499999999999
EXTRACT: note_on channel=2 note=32 velocity=95 time=0
EXTRACT: note_off channel=0 note=68 velocity=95 time=0.12986999999999999
EXTRACT: note_off channel=0 note=65 velocity=95 time=0
EXTRACT: note_off channel=0 note=60 velocity=95 time=0
EXTRACT: note_off channel=0 note=53 velocity=95 time=0
EXTRACT: note_on channel=0 note=59 velocity=95 time=0
EXTRACT: note_on channel=0 note=55 velocity=95 time=0
EXTRACT: note_on channel=0 note=50 velocity=95 time=0
EXTRACT: note_on channel=0 note=45 velocity=95 time=0
EXTRACT: note_off channel=9 note=38 velocity=95 time=0
EXTRACT: note_off channel=9 note=54 velocity=95 time=0
EXTRACT: note_off channel=9 note=44 velocity=95 time=0
EXTRACT: note_on channel=9 note=44 velocity=95 time=0
EXTRACT: note_off channel=0 note=59 velocity=95 time=0.030844124999999997
EXTRACT: note_off channel=0 note=55 velocity=95 time=0
EXTRACT: note_off channel=0 note=50 velocity=95 time=0
EXTRACT: note_off channel=0 note=45 velocity=95 time=0
EXTRACT: note_off channel=2 note=32 velocity=95 time=0.09902587499999999
EXTRACT: note_on channel=2 note=36 velocity=95 time=0
EXTRACT: note_on channel=0 note=59 velocity=95 time=0.06493499999999999
EXTRACT: note_on channel=0 note=55 velocity=95 time=0
EXTRACT: note_on channel=0 note=50 velocity=95 time=0
EXTRACT: note_on channel=0 note=45 velocity=95 time=0
EXTRACT: note_off channel=9 note=44 velocity=95 time=0
EXTRACT: note_on channel=9 note=36 velocity=95 time=0
EXTRACT: note_off channel=0 note=59 velocity=95 time=0.030844124999999997
EXTRACT: note_off channel=0 note=55 velocity=95 time=0
EXTRACT: note_off channel=0 note=50 velocity=95 time=0
EXTRACT: note_off channel=0 note=45 velocity=95 time=0
EXTRACT: note_on channel=0 note=68 velocity=95 time=0.16396087499999998
EXTRACT: note_on channel=0 note=61 velocity=95 time=0
EXTRACT: note_on channel=0 note=58 velocity=95 time=0
EXTRACT: note_on channel=0 note=53 velocity=95 time=0
EXTRACT: note_off channel=2 note=36 velocity=95 time=0
EXTRACT: note_on channel=2 note=37 velocity=95 time=0
EXTRACT: note_off channel=9 note=36 velocity=95 time=0
EXTRACT: note_on channel=9 note=36 velocity=95 time=0
EXTRACT: note_on channel=9 note=44 velocity=95 time=0
EXTRACT: note_off channel=2 note=37 velocity=95 time=0.25973999999999997
EXTRACT: note_on channel=2 note=36 velocity=95 time=0
EXTRACT: note_off channel=0 note=68 velocity=95 time=0.12986999999999999
EXTRACT: note_off channel=0 note=61 velocity=95 time=0
EXTRACT: note_off channel=0 note=58 velocity=95 time=0
EXTRACT: note_off channel=0 note=53 velocity=95 time=0
EXTRACT: note_on channel=0 note=68 velocity=95 time=0
EXTRACT: note_on channel=0 note=61 velocity=95 time=0
EXTRACT: note_on channel=0 note=58 velocity=95 time=0
EXTRACT: note_on channel=0 note=53 velocity=95 time=0
EXTRACT: note_off channel=9 note=36 velocity=95 time=0
EXTRACT: note_off channel=9 note=44 velocity=95 time=0
EXTRACT: note_on channel=9 note=38 velocity=95 time=0
EXTRACT: note_off channel=2 note=36 velocity=95 time=0.12986999999999999
EXTRACT: note_on channel=2 note=32 velocity=95 time=0
EXTRACT: note_off channel=9 note=38 velocity=95 time=0.06493499999999999
EXTRACT: note_on channel=9 note=38 velocity=95 time=0
EXTRACT: note_off channel=0 note=68 velocity=95 time=0.19480499999999998
EXTRACT: note_off channel=0 note=61 velocity=95 time=0
EXTRACT: note_off channel=0 note=58 velocity=95 time=0
EXTRACT: note_off channel=0 note=53 velocity=95 time=0
EXTRACT: note_on channel=0 note=67 velocity=95 time=0
EXTRACT: note_on channel=0 note=64 velocity=95 time=0
EXTRACT: note_on channel=0 note=60 velocity=95 time=0
EXTRACT: note_on channel=0 note=55 velocity=95 time=0
EXTRACT: note_on channel=0 note=48 velocity=95 time=0
EXTRACT: note_off channel=2 note=32 velocity=95 time=0
EXTRACT: note_on channel=2 note=34 velocity=95 time=0
EXTRACT: note_off channel=9 note=38 velocity=95 time=0
EXTRACT: note_on channel=9 note=36 velocity=95 time=0
EXTRACT: note_on channel=9 note=44 velocity=95 time=0
EXTRACT: note_off channel=2 note=34 velocity=95 time=0.25973999999999997
EXTRACT: note_on channel=2 note=32 velocity=95 time=0
EXTRACT: note_off channel=9 note=36 velocity=95 time=0.12986999999999999
EXTRACT: note_off channel=9 note=44 velocity=95 time=0
EXTRACT: note_on channel=9 note=38 velocity=95 time=0
EXTRACT: note_off channel=2 note=32 velocity=95 time=0.12986999999999999
EXTRACT: note_on channel=2 note=31 velocity=95 time=0
EXTRACT: note_off channel=0 note=67 velocity=95 time=0.06493499999999999
EXTRACT: note_off channel=0 note=64 velocity=95 time=0
EXTRACT: note_off channel=0 note=60 velocity=95 time=0
EXTRACT: note_off channel=0 note=55 velocity=95 time=0
EXTRACT: note_off channel=0 note=48 velocity=95 time=0
EXTRACT: note_on channel=0 note=67 velocity=95 time=0
EXTRACT: note_on channel=0 note=64 velocity=95 time=0
EXTRACT: note_on channel=0 note=60 velocity=95 time=0
EXTRACT: note_on channel=0 note=55 velocity=95 time=0
EXTRACT: note_on channel=0 note=48 velocity=95 time=0
EXTRACT: note_off channel=9 note=38 velocity=95 time=0
EXTRACT: note_on channel=9 note=38 velocity=95 time=0
EXTRACT: note_off channel=0 note=67 velocity=95 time=0.19480499999999998
EXTRACT: note_off channel=0 note=64 velocity=95 time=0
EXTRACT: note_off channel=0 note=60 velocity=95 time=0
EXTRACT: note_off channel=0 note=55 velocity=95 time=0
EXTRACT: note_off channel=0 note=48 velocity=95 time=0
EXTRACT: note_on channel=0 note=68 velocity=95 time=0
EXTRACT: note_on channel=0 note=65 velocity=95 time=0
EXTRACT: note_on channel=0 note=60 velocity=95 time=0
EXTRACT: note_on channel=0 note=53 velocity=95 time=0
EXTRACT: note_off channel=2 note=31 velocity=95 time=0
EXTRACT: note_on channel=2 note=29 velocity=95 time=0
EXTRACT: note_off channel=9 note=38 velocity=95 time=0
EXTRACT: note_on channel=9 note=36 velocity=95 time=0
EXTRACT: note_on channel=9 note=44 velocity=95 time=0
EXTRACT: note_off channel=0 note=68 velocity=95 time=0.38960999999999996
EXTRACT: note_off channel=0 note=65 velocity=95 time=0
EXTRACT: note_off channel=0 note=60 velocity=95 time=0
EXTRACT: note_off channel=0 note=53 velocity=95 time=0
EXTRACT: note_on channel=0 note=68 velocity=95 time=0
EXTRACT: note_on channel=0 note=65 velocity=95 time=0
EXTRACT: note_on channel=0 note=60 velocity=95 time=0
EXTRACT: note_on channel=0 note=53 velocity=95 time=0
EXTRACT: note_off channel=9 note=36 velocity=95 time=0
EXTRACT: note_off channel=9 note=44 velocity=95 time=0
EXTRACT: note_on channel=9 note=44 velocity=95 time=0
EXTRACT: note_off channel=0 note=68 velocity=95 time=0.19480499999999998
EXTRACT: note_off channel=0 note=65 velocity=95 time=0
EXTRACT: note_off channel=0 note=60 velocity=95 time=0
EXTRACT: note_off channel=0 note=53 velocity=95 time=0
EXTRACT: note_on channel=0 note=68 velocity=95 time=0
EXTRACT: note_on channel=0 note=65 velocity=95 time=0
EXTRACT: note_on channel=0 note=60 velocity=95 time=0
EXTRACT: note_on channel=0 note=53 velocity=95 time=0
EXTRACT: note_off channel=2 note=29 velocity=95 time=0
EXTRACT: note_on channel=2 note=36 velocity=95 time=0
EXTRACT: note_off channel=9 note=44 velocity=95 time=0
EXTRACT: note_on channel=9 note=36 velocity=95 time=0
EXTRACT: note_off channel=0 note=68 velocity=95 time=0.19480499999999998
EXTRACT: note_off channel=0 note=65 velocity=95 time=0
EXTRACT: note_off channel=0 note=60 velocity=95 time=0
EXTRACT: note_off channel=0 note=53 velocity=95 time=0
EXTRACT: note_on channel=0 note=68 velocity=95 time=0
EXTRACT: note_on channel=0 note=65 velocity=95 time=0
EXTRACT: note_on channel=0 note=60 velocity=95 time=0
EXTRACT: note_on channel=0 note=53 velocity=95 time=0
EXTRACT: note_off channel=2 note=36 velocity=95 time=0
EXTRACT: note_on channel=2 note=36 velocity=95 time=0
EXTRACT: note_off channel=9 note=36 velocity=95 time=0
EXTRACT: note_on channel=9 note=38 velocity=95 time=0
EXTRACT: note_on channel=9 note=54 velocity=95 time=0
EXTRACT: note_on channel=9 note=44 velocity=95 time=0
EXTRACT: note_off channel=0 note=68 velocity=95 time=0.19480499999999998
EXTRACT: note_off channel=0 note=65 velocity=95 time=0
EXTRACT: note_off channel=0 note=60 velocity=95 time=0
EXTRACT: note_off channel=0 note=53 velocity=95 time=0
EXTRACT: note_on channel=0 note=68 velocity=95 time=0
EXTRACT: note_on channel=0 note=65 velocity=95 time=0
EXTRACT: note_on channel=0 note=60 velocity=95 time=0
EXTRACT: note_on channel=0 note=53 velocity=95 time=0
EXTRACT: note_off channel=2 note=36 velocity=95 time=0
EXTRACT: note_on channel=2 note=36 velocity=95 time=0
EXTRACT: note_off channel=0 note=68 velocity=95 time=0.19480499999999998
EXTRACT: note_off channel=0 note=65 velocity=95 time=0
EXTRACT: note_off channel=0 note=60 velocity=95 time=0
EXTRACT: note_off channel=0 note=53 velocity=95 time=0
EXTRACT: note_on channel=0 note=59 velocity=95 time=0
EXTRACT: note_on channel=0 note=55 velocity=95 time=0
EXTRACT: note_on channel=0 note=50 velocity=95 time=0
EXTRACT: note_on channel=0 note=45 velocity=95 time=0
EXTRACT: note_off channel=2 note=36 velocity=95 time=0
EXTRACT: note_on channel=2 note=36 velocity=95 time=0
EXTRACT: note_off channel=9 note=38 velocity=95 time=0
EXTRACT: note_off channel=9 note=54 velocity=95 time=0
EXTRACT: note_off channel=9 note=44 velocity=95 time=0
EXTRACT: note_on channel=9 note=44 velocity=95 time=0
EXTRACT: note_off channel=0 note=59 velocity=95 time=0.030844124999999997
EXTRACT: note_off channel=0 note=55 velocity=95 time=0
EXTRACT: note_off channel=0 note=50 velocity=95 time=0
EXTRACT: note_off channel=0 note=45 velocity=95 time=0
EXTRACT: note_on channel=0 note=59 velocity=95 time=0.16396087499999998
EXTRACT: note_on channel=0 note=55 velocity=95 time=0
EXTRACT: note_on channel=0 note=50 velocity=95 time=0
EXTRACT: note_on channel=0 note=45 velocity=95 time=0
EXTRACT: note_off channel=2 note=36 velocity=95 time=0
EXTRACT: note_on channel=2 note=36 velocity=95 time=0
EXTRACT: note_off channel=9 note=44 velocity=95 time=0
EXTRACT: note_on channel=9 note=36 velocity=95 time=0
EXTRACT: note_off channel=0 note=59 velocity=95 time=0.030844124999999997
EXTRACT: note_off channel=0 note=55 velocity=95 time=0
EXTRACT: note_off channel=0 note=50 velocity=95 time=0
EXTRACT: note_off channel=0 note=45 velocity=95 time=0
EXTRACT: note_on channel=0 note=70 velocity=95 time=0.16396087499999998
EXTRACT: note_on channel=0 note=65 velocity=95 time=0
EXTRACT: note_on channel=0 note=61 velocity=95 time=0
EXTRACT: note_on channel=0 note=58 velocity=95 time=0
EXTRACT: note_on channel=0 note=53 velocity=95 time=0
EXTRACT: note_on channel=0 note=46 velocity=95 time=0
EXTRACT: note_off channel=2 note=36 velocity=95 time=0
EXTRACT: note_on channel=2 note=34 velocity=95 time=0
EXTRACT: note_off channel=9 note=36 velocity=95 time=0
EXTRACT: note_on channel=9 note=36 velocity=95 time=0
EXTRACT: note_on channel=9 note=44 velocity=95 time=0
EXTRACT: note_off channel=0 note=70 velocity=95 time=0.38960999999999996
EXTRACT: note_off channel=0 note=65 velocity=95 time=0
EXTRACT: note_off channel=0 note=61 velocity=95 time=0
EXTRACT: note_off channel=0 note=58 velocity=95 time=0
EXTRACT: note_off channel=0 note=53 velocity=95 time=0
EXTRACT: note_off channel=0 note=46 velocity=95 time=0
EXTRACT: note_on channel=0 note=70 velocity=95 time=0
EXTRACT: note_on channel=0 note=65 velocity=95 time=0
EXTRACT: note_on channel=0 note=61 velocity=95 time=0
EXTRACT: note_on channel=0 note=58 velocity=95 time=0
EXTRACT: note_on channel=0 note=53 velocity=95 time=0
EXTRACT: note_on channel=0 note=46 velocity=95 time=0
EXTRACT: note_off channel=2 note=34 velocity=95 time=0
EXTRACT: note_on channel=2 note=34 velocity=95 time=0
EXTRACT: note_off channel=9 note=36 velocity=95 time=0
EXTRACT: note_off channel=9 note=44 velocity=95 time=0
EXTRACT: note_on channel=9 note=44 velocity=95 time=0
EXTRACT: note_off channel=0 note=70 velocity=95 time=0.19480499999999998
EXTRACT: note_off channel=0 note=65 velocity=95 time=0
EXTRACT: note_off channel=0 note=61 velocity=95 time=0
EXTRACT: note_off channel=0 note=58 velocity=95 time=0
EXTRACT: note_off channel=0 note=53 velocity=95 time=0
EXTRACT: note_off channel=0 note=46 velocity=95 time=0
EXTRACT: note_on channel=0 note=70 velocity=95 time=0
EXTRACT: note_on channel=0 note=65 velocity=95 time=0
EXTRACT: note_on channel=0 note=61 velocity=95 time=0
EXTRACT: note_on channel=0 note=58 velocity=95 time=0
EXTRACT: note_on channel=0 note=53 velocity=95 time=0
EXTRACT: note_on channel=0 note=46 velocity=95 time=0
EXTRACT: note_off channel=9 note=44 velocity=95 time=0
EXTRACT: note_on channel=9 note=36 velocity=95 time=0
EXTRACT: note_off channel=0 note=70 velocity=95 time=0.19480499999999998
EXTRACT: note_off channel=0 note=65 velocity=95 time=0
EXTRACT: note_off channel=0 note=61 velocity=95 time=0
EXTRACT: note_off channel=0 note=58 velocity=95 time=0
EXTRACT: note_off channel=0 note=53 velocity=95 time=0
EXTRACT: note_off channel=0 note=46 velocity=95 time=0
EXTRACT: note_on channel=0 note=70 velocity=95 time=0
EXTRACT: note_on channel=0 note=65 velocity=95 time=0
EXTRACT: note_on channel=0 note=61 velocity=95 time=0
EXTRACT: note_on channel=0 note=58 velocity=95 time=0
EXTRACT: note_on channel=0 note=53 velocity=95 time=0
EXTRACT: note_on channel=0 note=46 velocity=95 time=0
EXTRACT: note_off channel=2 note=34 velocity=95 time=0
EXTRACT: note_on channel=2 note=29 velocity=95 time=0
EXTRACT: note_off channel=9 note=36 velocity=95 time=0
EXTRACT: note_on channel=9 note=38 velocity=95 time=0
EXTRACT: note_on channel=9 note=54 velocity=95 time=0
EXTRACT: note_on channel=9 note=44 velocity=95 time=0
EXTRACT: note_off channel=0 note=70 velocity=95 time=0.19480499999999998
EXTRACT: note_off channel=0 note=65 velocity=95 time=0
EXTRACT: note_off channel=0 note=61 velocity=95 time=0
EXTRACT: note_off channel=0 note=58 velocity=95 time=0
EXTRACT: note_off channel=0 note=53 velocity=95 time=0
EXTRACT: note_off channel=0 note=46 velocity=95 time=0
EXTRACT: note_on channel=0 note=70 velocity=95 time=0
EXTRACT: note_on channel=0 note=65 velocity=95 time=0
EXTRACT: note_on channel=0 note=61 velocity=95 time=0
EXTRACT: note_on channel=0 note=58 velocity=95 time=0
EXTRACT: note_on channel=0 note=53 velocity=95 time=0
EXTRACT: note_on channel=0 note=46 velocity=95 time=0
EXTRACT: note_off channel=0 note=70 velocity=95 time=0.19480499999999998
EXTRACT: note_off channel=0 note=65 velocity=95 time=0
EXTRACT: note_off channel=0 note=61 velocity=95 time=0
EXTRACT: note_off channel=0 note=58 velocity=95 time=0
EXTRACT: note_off channel=0 note=53 velocity=95 time=0
EXTRACT: note_off channel=0 note=46 velocity=95 time=0
EXTRACT: note_on channel=0 note=64 velocity=95 time=0
EXTRACT: note_on channel=0 note=59 velocity=95 time=0
EXTRACT: note_on channel=0 note=55 velocity=95 time=0
EXTRACT: note_on channel=0 note=50 velocity=95 time=0
EXTRACT: note_on channel=0 note=45 velocity=95 time=0
EXTRACT: note_on channel=0 note=40 velocity=95 time=0
EXTRACT: note_off channel=9 note=38 velocity=95 time=0
EXTRACT: note_off channel=9 note=54 velocity=95 time=0
EXTRACT: note_off channel=9 note=44 velocity=95 time=0
EXTRACT: note_on channel=9 note=44 velocity=95 time=0
EXTRACT: note_off channel=0 note=64 velocity=95 time=0.030844124999999997
EXTRACT: note_off channel=0 note=59 velocity=95 time=0
EXTRACT: note_off channel=0 note=55 velocity=95 time=0
EXTRACT: note_off channel=0 note=50 velocity=95 time=0
EXTRACT: note_off channel=0 note=45 velocity=95 time=0
EXTRACT: note_off channel=0 note=40 velocity=95 time=0
EXTRACT: note_on channel=0 note=64 velocity=95 time=0.16396087499999998
EXTRACT: note_on channel=0 note=59 velocity=95 time=0
EXTRACT: note_on channel=0 note=55 velocity=95 time=0
EXTRACT: note_on channel=0 note=50 velocity=95 time=0
EXTRACT: note_on channel=0 note=45 velocity=95 time=0
EXTRACT: note_on channel=0 note=40 velocity=95 time=0
EXTRACT: note_off channel=9 note=44 velocity=95 time=0
EXTRACT: note_off channel=0 note=64 velocity=95 time=0.030844124999999997
EXTRACT: note_off channel=0 note=59 velocity=95 time=0
EXTRACT: note_off channel=0 note=55 velocity=95 time=0
EXTRACT: note_off channel=0 note=50 velocity=95 time=0
EXTRACT: note_off channel=0 note=45 velocity=95 time=0
EXTRACT: note_off channel=0 note=40 velocity=95 time=0
EXTRACT: note_on channel=0 note=67 velocity=95 time=0.16396087499999998
EXTRACT: note_on channel=0 note=63 velocity=95 time=0
EXTRACT: note_on channel=0 note=58 velocity=95 time=0
EXTRACT: note_on channel=0 note=51 velocity=95 time=0
EXTRACT: note_off channel=2 note=29 velocity=95 time=0
EXTRACT: note_on channel=2 note=39 velocity=95 time=0
EXTRACT: note_on channel=9 note=36 velocity=95 time=0
EXTRACT: note_on channel=9 note=44 velocity=95 time=0
EXTRACT: note_off channel=0 note=67 velocity=95 time=0.38960999999999996
EXTRACT: note_off channel=0 note=63 velocity=95 time=0
EXTRACT: note_off channel=0 note=58 velocity=95 time=0
EXTRACT: note_off channel=0 note=51 velocity=95 time=0
EXTRACT: note_on channel=0 note=67 velocity=95 time=0
EXTRACT: note_on channel=0 note=63 velocity=95 time=0
EXTRACT: note_on channel=0 note=58 velocity=95 time=0
EXTRACT: note_on channel=0 note=51 velocity=95 time=0
EXTRACT: note_off channel=2 note=39 velocity=95 time=0
EXTRACT: note_on channel=2 note=46 velocity=95 time=0
EXTRACT: note_off channel=9 note=36 velocity=95 time=0
EXTRACT: note_off channel=9 note=44 velocity=95 time=0
EXTRACT: note_on channel=9 note=44 velocity=95 time=0
EXTRACT: note_off channel=0 note=67 velocity=95 time=0.19480499999999998
EXTRACT: note_off channel=0 note=63 velocity=95 time=0
EXTRACT: note_off channel=0 note=58 velocity=95 time=0
EXTRACT: note_off channel=0 note=51 velocity=95 time=0
EXTRACT: note_on channel=0 note=67 velocity=95 time=0
EXTRACT: note_on channel=0 note=63 velocity=95 time=0
EXTRACT: note_on channel=0 note=58 velocity=95 time=0
EXTRACT: note_on channel=0 note=51 velocity=95 time=0
EXTRACT: note_off channel=2 note=46 velocity=95 time=0
EXTRACT: note_on channel=2 note=46 velocity=95 time=0
EXTRACT: note_off channel=9 note=44 velocity=95 time=0
EXTRACT: note_on channel=9 note=36 velocity=95 time=0
EXTRACT: note_off channel=0 note=67 velocity=95 time=0.19480499999999998
EXTRACT: note_off channel=0 note=63 velocity=95 time=0
EXTRACT: note_off channel=0 note=58 velocity=95 time=0
EXTRACT: note_off channel=0 note=51 velocity=95 time=0
EXTRACT: note_on channel=0 note=67 velocity=95 time=0
EXTRACT: note_on channel=0 note=63 velocity=95 time=0
EXTRACT: note_on channel=0 note=58 velocity=95 time=0
EXTRACT: note_on channel=0 note=51 velocity=95 time=0
EXTRACT: note_off channel=2 note=46 velocity=95 time=0
EXTRACT: note_on channel=2 note=46 velocity=95 time=0
EXTRACT: note_off channel=9 note=36 velocity=95 time=0
EXTRACT: note_on channel=9 note=38 velocity=95 time=0
EXTRACT: note_on channel=9 note=54 velocity=95 time=0
EXTRACT: note_on channel=9 note=44 velocity=95 time=0
EXTRACT: note_off channel=0 note=67 velocity=95 time=0.19480499999999998
EXTRACT: note_off channel=0 note=63 velocity=95 time=0
EXTRACT: note_off channel=0 note=58 velocity=95 time=0
EXTRACT: note_off channel=0 note=51 velocity=95 time=0
EXTRACT: note_on channel=0 note=67 velocity=95 time=0
EXTRACT: note_on channel=0 note=63 velocity=95 time=0
EXTRACT: note_on channel=0 note=58 velocity=95 time=0
EXTRACT: note_on channel=0 note=51 velocity=95 time=0
EXTRACT: note_off channel=2 note=46 velocity=95 time=0
EXTRACT: note_on channel=2 note=46 velocity=95 time=0
EXTRACT: note_off channel=0 note=67 velocity=95 time=0.19480499999999998
EXTRACT: note_off channel=0 note=63 velocity=95 time=0
EXTRACT: note_off channel=0 note=58 velocity=95 time=0
EXTRACT: note_off channel=0 note=51 velocity=95 time=0
EXTRACT: note_on channel=0 note=59 velocity=95 time=0
EXTRACT: note_on channel=0 note=55 velocity=95 time=0
EXTRACT: note_on channel=0 note=50 velocity=95 time=0
EXTRACT: note_on channel=0 note=45 velocity=95 time=0
EXTRACT: note_off channel=2 note=46 velocity=95 time=0
EXTRACT: note_on channel=2 note=34 velocity=95 time=0
EXTRACT: note_off channel=9 note=38 velocity=95 time=0
EXTRACT: note_off channel=9 note=54 velocity=95 time=0
EXTRACT: note_off channel=9 note=44 velocity=95 time=0
EXTRACT: note_on channel=9 note=44 velocity=95 time=0
EXTRACT: note_off channel=0 note=59 velocity=95 time=0.030844124999999997
EXTRACT: note_off channel=0 note=55 velocity=95 time=0
EXTRACT: note_off channel=0 note=50 velocity=95 time=0
EXTRACT: note_off channel=0 note=45 velocity=95 time=0
EXTRACT: note_on channel=0 note=59 velocity=95 time=0.16396087499999998
EXTRACT: note_on channel=0 note=55 velocity=95 time=0
EXTRACT: note_on channel=0 note=50 velocity=95 time=0
EXTRACT: note_on channel=0 note=45 velocity=95 time=0
EXTRACT: note_off channel=2 note=34 velocity=95 time=0
EXTRACT: note_on channel=2 note=35 velocity=95 time=0
EXTRACT: note_off channel=9 note=44 velocity=95 time=0
EXTRACT: note_on channel=9 note=36 velocity=95 time=0
EXTRACT: note_off channel=0 note=59 velocity=95 time=0.030844124999999997
EXTRACT: note_off channel=0 note=55 velocity=95 time=0
EXTRACT: note_off channel=0 note=50 velocity=95 time=0
EXTRACT: note_off channel=0 note=45 velocity=95 time=0
EXTRACT: note_on channel=0 note=72 velocity=95 time=0.16396087499999998
EXTRACT: note_on channel=0 note=67 velocity=95 time=0
EXTRACT: note_on channel=0 note=64 velocity=95 time=0
EXTRACT: note_on channel=0 note=60 velocity=95 time=0
EXTRACT: note_on channel=0 note=55 velocity=95 time=0
EXTRACT: note_on channel=0 note=48 velocity=95 time=0
EXTRACT: note_off channel=2 note=35 velocity=95 time=0
EXTRACT: note_on channel=2 note=36 velocity=95 time=0
EXTRACT: note_off channel=9 note=36 velocity=95 time=0
EXTRACT: note_on channel=9 note=36 velocity=95 time=0
EXTRACT: note_on channel=9 note=44 velocity=95 time=0
EXTRACT: note_off channel=0 note=72 velocity=95 time=0.38960999999999996
EXTRACT: note_off channel=0 note=67 velocity=95 time=0
EXTRACT: note_off channel=0 note=64 velocity=95 time=0
EXTRACT: note_off channel=0 note=60 velocity=95 time=0
EXTRACT: note_off channel=0 note=55 velocity=95 time=0
EXTRACT: note_off channel=0 note=48 velocity=95 time=0
EXTRACT: note_on channel=0 note=72 velocity=95 time=0
EXTRACT: note_on channel=0 note=67 velocity=95 time=0
EXTRACT: note_on channel=0 note=64 velocity=95 time=0
EXTRACT: note_on channel=0 note=60 velocity=95 time=0
EXTRACT: note_on channel=0 note=55 velocity=95 time=0
EXTRACT: note_on channel=0 note=48 velocity=95 time=0
EXTRACT: note_off channel=2 note=36 velocity=95 time=0
EXTRACT: note_on channel=2 note=36 velocity=95 time=0
EXTRACT: note_off channel=9 note=36 velocity=95 time=0
EXTRACT: note_off channel=9 note=44 velocity=95 time=0
EXTRACT: note_on channel=9 note=44 velocity=95 time=0
EXTRACT: note_off channel=0 note=72 velocity=95 time=0.19480499999999998
EXTRACT: note_off channel=0 note=67 velocity=95 time=0
EXTRACT: note_off channel=0 note=64 velocity=95 time=0
EXTRACT: note_off channel=0 note=60 velocity=95 time=0
EXTRACT: note_off channel=0 note=55 velocity=95 time=0
EXTRACT: note_off channel=0 note=48 velocity=95 time=0
EXTRACT: note_on channel=0 note=72 velocity=95 time=0
EXTRACT: note_on channel=0 note=67 velocity=95 time=0
EXTRACT: note_on channel=0 note=64 velocity=95 time=0
EXTRACT: note_on channel=0 note=60 velocity=95 time=0
EXTRACT: note_on channel=0 note=55 velocity=95 time=0
EXTRACT: note_on channel=0 note=48 velocity=95 time=0
EXTRACT: note_off channel=9 note=44 velocity=95 time=0
EXTRACT: note_on channel=9 note=36 velocity=95 time=0
EXTRACT: note_off channel=0 note=72 velocity=95 time=0.19480499999999998
EXTRACT: note_off channel=0 note=67 velocity=95 time=0
EXTRACT: note_off channel=0 note=64 velocity=95 time=0
EXTRACT: note_off channel=0 note=60 velocity=95 time=0
EXTRACT: note_off channel=0 note=55 velocity=95 time=0
EXTRACT: note_off channel=0 note=48 velocity=95 time=0
EXTRACT: note_on channel=0 note=72 velocity=95 time=0
EXTRACT: note_on channel=0 note=67 velocity=95 time=0
EXTRACT: note_on channel=0 note=64 velocity=95 time=0
EXTRACT: note_on channel=0 note=60 velocity=95 time=0
EXTRACT: note_on channel=0 note=55 velocity=95 time=0
EXTRACT: note_on channel=0 note=48 velocity=95 time=0
EXTRACT: note_off channel=2 note=36 velocity=95 time=0
EXTRACT: note_on channel=2 note=31 velocity=95 time=0
EXTRACT: note_off channel=9 note=36 velocity=95 time=0
EXTRACT: note_on channel=9 note=38 velocity=95 time=0
EXTRACT: note_on channel=9 note=54 velocity=95 time=0
EXTRACT: note_on channel=9 note=44 velocity=95 time=0
EXTRACT: note_off channel=0 note=72 velocity=95 time=0.19480499999999998
EXTRACT: note_off channel=0 note=67 velocity=95 time=0
EXTRACT: note_off channel=0 note=64 velocity=95 time=0
EXTRACT: note_off channel=0 note=60 velocity=95 time=0
EXTRACT: note_off channel=0 note=55 velocity=95 time=0
EXTRACT: note_off channel=0 note=48 velocity=95 time=0
EXTRACT: note_on channel=0 note=72 velocity=95 time=0
EXTRACT: note_on channel=0 note=67 velocity=95 time=0
EXTRACT: note_on channel=0 note=64 velocity=95 time=0
EXTRACT: note_on channel=0 note=60 velocity=95 time=0
EXTRACT: note_on channel=0 note=55 velocity=95 time=0
EXTRACT: note_on channel=0 note=48 velocity=95 time=0
EXTRACT: note_off channel=0 note=72 velocity=95 time=0.19480499999999998
EXTRACT: note_off channel=0 note=67 velocity=95 time=0
EXTRACT: note_off channel=0 note=64 velocity=95 time=0
EXTRACT: note_off channel=0 note=60 velocity=95 time=0
EXTRACT: note_off channel=0 note=55 velocity=95 time=0
EXTRACT: note_off channel=0 note=48 velocity=95 time=0
EXTRACT: note_on channel=0 note=64 velocity=95 time=0
EXTRACT: note_on channel=0 note=59 velocity=95 time=0
EXTRACT: note_on channel=0 note=55 velocity=95 time=0
EXTRACT: note_on channel=0 note=50 velocity=95 time=0
EXTRACT: note_on channel=0 note=45 velocity=95 time=0
EXTRACT: note_on channel=0 note=40 velocity=95 time=0
EXTRACT: note_off channel=2 note=31 velocity=95 time=0
EXTRACT: note_on channel=2 note=36 velocity=95 time=0
EXTRACT: note_off channel=9 note=38 velocity=95 time=0
EXTRACT: note_off channel=9 note=54 velocity=95 time=0
EXTRACT: note_off channel=9 note=44 velocity=95 time=0
EXTRACT: note_on channel=9 note=44 velocity=95 time=0
EXTRACT: note_off channel=0 note=64 velocity=95 time=0.030844124999999997
EXTRACT: note_off channel=0 note=59 velocity=95 time=0
EXTRACT: note_off channel=0 note=55 velocity=95 time=0
EXTRACT: note_off channel=0 note=50 velocity=95 time=0
EXTRACT: note_off channel=0 note=45 velocity=95 time=0
EXTRACT: note_off channel=0 note=40 velocity=95 time=0
EXTRACT: note_on channel=0 note=64 velocity=95 time=0.16396087499999998
EXTRACT: note_on channel=0 note=59 velocity=95 time=0
EXTRACT: note_on channel=0 note=55 velocity=95 time=0
EXTRACT: note_on channel=0 note=50 velocity=95 time=0
EXTRACT: note_on channel=0 note=45 velocity=95 time=0
EXTRACT: note_on channel=0 note=40 velocity=95 time=0
EXTRACT: note_off channel=2 note=36 velocity=95 time=0
EXTRACT: note_on channel=2 note=35 velocity=95 time=0
EXTRACT: note_off channel=9 note=44 velocity=95 time=0
EXTRACT: note_off channel=0 note=64 velocity=95 time=0.030844124999999997
EXTRACT: note_off channel=0 note=59 velocity=95 time=0
EXTRACT: note_off channel=0 note=55 velocity=95 time=0
EXTRACT: note_off channel=0 note=50 velocity=95 time=0
EXTRACT: note_off channel=0 note=45 velocity=95 time=0
EXTRACT: note_off channel=0 note=40 velocity=95 time=0
EXTRACT: note_on channel=0 note=70 velocity=95 time=0.16396087499999998
EXTRACT: note_on channel=0 note=65 velocity=95 time=0
EXTRACT: note_on channel=0 note=61 velocity=95 time=0
EXTRACT: note_on channel=0 note=58 velocity=95 time=0
EXTRACT: note_on channel=0 note=53 velocity=95 time=0
EXTRACT: note_on channel=0 note=46 velocity=95 time=0
EXTRACT: note_off channel=2 note=35 velocity=95 time=0
EXTRACT: note_on channel=2 note=34 velocity=95 time=0
EXTRACT: note_on channel=9 note=36 velocity=95 time=0
EXTRACT: note_on channel=9 note=44 velocity=95 time=0
EXTRACT: note_off channel=0 note=70 velocity=95 time=0.38960999999999996
EXTRACT: note_off channel=0 note=65 velocity=95 time=0
EXTRACT: note_off channel=0 note=61 velocity=95 time=0
EXTRACT: note_off channel=0 note=58 velocity=95 time=0
EXTRACT: note_off channel=0 note=53 velocity=95 time=0
EXTRACT: note_off channel=0 note=46 velocity=95 time=0
EXTRACT: note_on channel=0 note=70 velocity=95 time=0
EXTRACT: note_on channel=0 note=65 velocity=95 time=0
EXTRACT: note_on channel=0 note=61 velocity=95 time=0
EXTRACT: note_on channel=0 note=58 velocity=95 time=0
EXTRACT: note_on channel=0 note=53 velocity=95 time=0
EXTRACT: note_on channel=0 note=46 velocity=95 time=0
EXTRACT: note_off channel=2 note=34 velocity=95 time=0
EXTRACT: note_on channel=2 note=41 velocity=95 time=0
EXTRACT: note_off channel=9 note=36 velocity=95 time=0
EXTRACT: note_off channel=9 note=44 velocity=95 time=0
EXTRACT: note_on channel=9 note=44 velocity=95 time=0
EXTRACT: note_off channel=0 note=70 velocity=95 time=0.19480499999999998
EXTRACT: note_off channel=0 note=65 velocity=95 time=0
EXTRACT: note_off channel=0 note=61 velocity=95 time=0
EXTRACT: note_off channel=0 note=58 velocity=95 time=0
EXTRACT: note_off channel=0 note=53 velocity=95 time=0
EXTRACT: note_off channel=0 note=46 velocity=95 time=0
EXTRACT: note_on channel=0 note=70 velocity=95 time=0
EXTRACT: note_on channel=0 note=65 velocity=95 time=0
EXTRACT: note_on channel=0 note=61 velocity=95 time=0
EXTRACT: note_on channel=0 note=58 velocity=95 time=0
EXTRACT: note_on channel=0 note=53 velocity=95 time=0
EXTRACT: note_on channel=0 note=46 velocity=95 time=0
EXTRACT: note_off channel=2 note=41 velocity=95 time=0
EXTRACT: note_on channel=2 note=41 velocity=95 time=0
EXTRACT: note_off channel=9 note=44 velocity=95 time=0
EXTRACT: note_on channel=9 note=36 velocity=95 time=0
EXTRACT: note_off channel=0 note=70 velocity=95 time=0.19480499999999998
EXTRACT: note_off channel=0 note=65 velocity=95 time=0
EXTRACT: note_off channel=0 note=61 velocity=95 time=0
EXTRACT: note_off channel=0 note=58 velocity=95 time=0
EXTRACT: note_off channel=0 note=53 velocity=95 time=0
EXTRACT: note_off channel=0 note=46 velocity=95 time=0
EXTRACT: note_on channel=0 note=70 velocity=95 time=0
EXTRACT: note_on channel=0 note=65 velocity=95 time=0
EXTRACT: note_on channel=0 note=61 velocity=95 time=0
EXTRACT: note_on channel=0 note=58 velocity=95 time=0
EXTRACT: note_on channel=0 note=53 velocity=95 time=0
EXTRACT: note_on channel=0 note=46 velocity=95 time=0
EXTRACT: note_off channel=2 note=41 velocity=95 time=0
EXTRACT: note_on channel=2 note=41 velocity=95 time=0
EXTRACT: note_off channel=9 note=36 velocity=95 time=0
EXTRACT: note_on channel=9 note=38 velocity=95 time=0
EXTRACT: note_on channel=9 note=54 velocity=95 time=0
EXTRACT: note_on channel=9 note=44 velocity=95 time=0
EXTRACT: note_off channel=0 note=70 velocity=95 time=0.19480499999999998
EXTRACT: note_off channel=0 note=65 velocity=95 time=0
EXTRACT: note_off channel=0 note=61 velocity=95 time=0
EXTRACT: note_off channel=0 note=58 velocity=95 time=0
EXTRACT: note_off channel=0 note=53 velocity=95 time=0
EXTRACT: note_off channel=0 note=46 velocity=95 time=0
EXTRACT: note_on channel=0 note=70 velocity=95 time=0
EXTRACT: note_on channel=0 note=65 velocity=95 time=0
EXTRACT: note_on channel=0 note=61 velocity=95 time=0
EXTRACT: note_on channel=0 note=58 velocity=95 time=0
EXTRACT: note_on channel=0 note=53 velocity=95 time=0
EXTRACT: note_on channel=0 note=46 velocity=95 time=0
EXTRACT: note_off channel=2 note=41 velocity=95 time=0
EXTRACT: note_on channel=2 note=41 velocity=95 time=0
EXTRACT: note_off channel=0 note=70 velocity=95 time=0.19480499999999998
EXTRACT: note_off channel=0 note=65 velocity=95 time=0
EXTRACT: note_off channel=0 note=61 velocity=95 time=0
EXTRACT: note_off channel=0 note=58 velocity=95 time=0
EXTRACT: note_off channel=0 note=53 velocity=95 time=0
EXTRACT: note_off channel=0 note=46 velocity=95 time=0
EXTRACT: note_on channel=0 note=64 velocity=95 time=0
EXTRACT: note_on channel=0 note=59 velocity=95 time=0
EXTRACT: note_on channel=0 note=55 velocity=95 time=0
EXTRACT: note_on channel=0 note=50 velocity=95 time=0
EXTRACT: note_on channel=0 note=45 velocity=95 time=0
EXTRACT: note_on channel=0 note=40 velocity=95 time=0
EXTRACT: note_off channel=2 note=41 velocity=95 time=0
EXTRACT: note_on channel=2 note=34 velocity=95 time=0
EXTRACT: note_off channel=9 note=38 velocity=95 time=0
EXTRACT: note_off channel=9 note=54 velocity=95 time=0
EXTRACT: note_off channel=9 note=44 velocity=95 time=0
EXTRACT: note_on channel=9 note=44 velocity=95 time=0
EXTRACT: note_off channel=0 note=64 velocity=95 time=0.030844124999999997
EXTRACT: note_off channel=0 note=59 velocity=95 time=0
EXTRACT: note_off channel=0 note=55 velocity=95 time=0
EXTRACT: note_off channel=0 note=50 velocity=95 time=0
EXTRACT: note_off channel=0 note=45 velocity=95 time=0
EXTRACT: note_off channel=0 note=40 velocity=95 time=0
EXTRACT: note_on channel=0 note=64 velocity=95 time=0.16396087499999998
EXTRACT: note_on channel=0 note=59 velocity=95 time=0
EXTRACT: note_on channel=0 note=55 velocity=95 time=0
EXTRACT: note_on channel=0 note=50 velocity=95 time=0
EXTRACT: note_on channel=0 note=45 velocity=95 time=0
EXTRACT: note_on channel=0 note=40 velocity=95 time=0
EXTRACT: note_off channel=2 note=34 velocity=95 time=0
EXTRACT: note_on channel=2 note=35 velocity=95 time=0
EXTRACT: note_off channel=9 note=44 velocity=95 time=0
EXTRACT: note_on channel=9 note=36 velocity=95 time=0
EXTRACT: note_off channel=0 note=64 velocity=95 time=0.030844124999999997
EXTRACT: note_off channel=0 note=59 velocity=95 time=0
EXTRACT: note_off channel=0 note=55 velocity=95 time=0
EXTRACT: note_off channel=0 note=50 velocity=95 time=0
EXTRACT: note_off channel=0 note=45 velocity=95 time=0
EXTRACT: note_off channel=0 note=40 velocity=95 time=0
EXTRACT: note_on channel=0 note=72 velocity=95 time=0.16396087499999998
EXTRACT: note_on channel=0 note=67 velocity=95 time=0
EXTRACT: note_on channel=0 note=64 velocity=95 time=0
EXTRACT: note_on channel=0 note=60 velocity=95 time=0
EXTRACT: note_on channel=0 note=55 velocity=95 time=0
EXTRACT: note_on channel=0 note=48 velocity=95 time=0
EXTRACT: note_off channel=2 note=35 velocity=95 time=0
EXTRACT: note_on channel=2 note=36 velocity=95 time=0
EXTRACT: note_off channel=9 note=36 velocity=95 time=0
EXTRACT: note_on channel=9 note=36 velocity=95 time=0
EXTRACT: note_on channel=9 note=44 velocity=95 time=0
EXTRACT: note_off channel=0 note=72 velocity=95 time=0.38960999999999996
EXTRACT: note_off channel=0 note=67 velocity=95 time=0
EXTRACT: note_off channel=0 note=64 velocity=95 time=0
EXTRACT: note_off channel=0 note=60 velocity=95 time=0
EXTRACT: note_off channel=0 note=55 velocity=95 time=0
EXTRACT: note_off channel=0 note=48 velocity=95 time=0
EXTRACT: note_on channel=0 note=64 velocity=95 time=0
EXTRACT: note_on channel=0 note=59 velocity=95 time=0
EXTRACT: note_on channel=0 note=55 velocity=95 time=0
EXTRACT: note_on channel=0 note=50 velocity=95 time=0
EXTRACT: note_on channel=0 note=45 velocity=95 time=0
EXTRACT: note_on channel=0 note=40 velocity=95 time=0
EXTRACT: note_off channel=2 note=36 velocity=95 time=0
EXTRACT: note_off channel=9 note=36 velocity=95 time=0
EXTRACT: note_off channel=9 note=44 velocity=95 time=0
EXTRACT: note_on channel=9 note=44 velocity=95 time=0
EXTRACT: note_off channel=0 note=64 velocity=95 time=0.030844124999999997
EXTRACT: note_off channel=0 note=59 velocity=95 time=0
EXTRACT: note_off channel=0 note=55 velocity=95 time=0
EXTRACT: note_off channel=0 note=50 velocity=95 time=0
EXTRACT: note_off channel=0 note=45 velocity=95 time=0
EXTRACT: note_off channel=0 note=40 velocity=95 time=0
EXTRACT: note_on channel=0 note=72 velocity=95 time=0.16396087499999998
EXTRACT: note_on channel=0 note=67 velocity=95 time=0
EXTRACT: note_on channel=0 note=64 velocity=95 time=0
EXTRACT: note_on channel=0 note=60 velocity=95 time=0
EXTRACT: note_on channel=0 note=55 velocity=95 time=0
EXTRACT: note_on channel=0 note=48 velocity=95 time=0
EXTRACT: note_on channel=2 note=43 velocity=95 time=0
EXTRACT: note_off channel=9 note=44 velocity=95 time=0
EXTRACT: note_on channel=9 note=36 velocity=95 time=0
EXTRACT: note_off channel=0 note=72 velocity=95 time=0.19480499999999998
EXTRACT: note_off channel=0 note=67 velocity=95 time=0
EXTRACT: note_off channel=0 note=64 velocity=95 time=0
EXTRACT: note_off channel=0 note=60 velocity=95 time=0
EXTRACT: note_off channel=0 note=55 velocity=95 time=0
EXTRACT: note_off channel=0 note=48 velocity=95 time=0
EXTRACT: note_on channel=0 note=72 velocity=95 time=0
EXTRACT: note_on channel=0 note=67 velocity=95 time=0
EXTRACT: note_on channel=0 note=64 velocity=95 time=0
EXTRACT: note_on channel=0 note=60 velocity=95 time=0
EXTRACT: note_on channel=0 note=55 velocity=95 time=0
EXTRACT: note_on channel=0 note=48 velocity=95 time=0
EXTRACT: note_off channel=2 note=43 velocity=95 time=0
EXTRACT: note_on channel=2 note=43 velocity=95 time=0
EXTRACT: note_off channel=9 note=36 velocity=95 time=0
EXTRACT: note_on channel=9 note=38 velocity=95 time=0
EXTRACT: note_on channel=9 note=54 velocity=95 time=0
EXTRACT: note_on channel=9 note=44 velocity=95 time=0
EXTRACT: note_off channel=0 note=72 velocity=95 time=0.19480499999999998
EXTRACT: note_off channel=0 note=67 velocity=95 time=0
EXTRACT: note_off channel=0 note=64 velocity=95 time=0
EXTRACT: note_off channel=0 note=60 velocity=95 time=0
EXTRACT: note_off channel=0 note=55 velocity=95 time=0
EXTRACT: note_off channel=0 note=48 velocity=95 time=0
EXTRACT: note_on channel=0 note=72 velocity=95 time=0
EXTRACT: note_on channel=0 note=67 velocity=95 time=0
EXTRACT: note_on channel=0 note=64 velocity=95 time=0
EXTRACT: note_on channel=0 note=60 velocity=95 time=0
EXTRACT: note_on channel=0 note=55 velocity=95 time=0
EXTRACT: note_on channel=0 note=48 velocity=95 time=0
EXTRACT: note_off channel=2 note=43 velocity=95 time=0
EXTRACT: note_on channel=2 note=43 velocity=95 time=0
EXTRACT: note_off channel=0 note=72 velocity=95 time=0.19480499999999998
EXTRACT: note_off channel=0 note=67 velocity=95 time=0
EXTRACT: note_off channel=0 note=64 velocity=95 time=0
EXTRACT: note_off channel=0 note=60 velocity=95 time=0
EXTRACT: note_off channel=0 note=55 velocity=95 time=0
EXTRACT: note_off channel=0 note=48 velocity=95 time=0
EXTRACT: note_on channel=0 note=64 velocity=95 time=0
EXTRACT: note_on channel=0 note=59 velocity=95 time=0
EXTRACT: note_on channel=0 note=55 velocity=95 time=0
EXTRACT: note_on channel=0 note=50 velocity=95 time=0
EXTRACT: note_on channel=0 note=45 velocity=95 time=0
EXTRACT: note_on channel=0 note=40 velocity=95 time=0
EXTRACT: note_off channel=2 note=43 velocity=95 time=0
EXTRACT: note_on channel=2 note=43 velocity=95 time=0
EXTRACT: note_off channel=9 note=38 velocity=95 time=0
EXTRACT: note_off channel=9 note=54 velocity=95 time=0
EXTRACT: note_off channel=9 note=44 velocity=95 time=0
EXTRACT: note_on channel=9 note=44 velocity=95 time=0
EXTRACT: note_off channel=0 note=64 velocity=95 time=0.030844124999999997
EXTRACT: note_off channel=0 note=59 velocity=95 time=0
EXTRACT: note_off channel=0 note=55 velocity=95 time=0
EXTRACT: note_off channel=0 note=50 velocity=95 time=0
EXTRACT: note_off channel=0 note=45 velocity=95 time=0
EXTRACT: note_off channel=0 note=40 velocity=95 time=0
EXTRACT: note_on channel=0 note=64 velocity=95 time=0.16396087499999998
EXTRACT: note_on channel=0 note=59 velocity=95 time=0
EXTRACT: note_on channel=0 note=55 velocity=95 time=0
EXTRACT: note_on channel=0 note=50 velocity=95 time=0
EXTRACT: note_on channel=0 note=45 velocity=95 time=0
EXTRACT: note_on channel=0 note=40 velocity=95 time=0
EXTRACT: note_off channel=9 note=44 velocity=95 time=0
EXTRACT: note_off channel=0 note=64 velocity=95 time=0.030844124999999997
EXTRACT: note_off channel=0 note=59 velocity=95 time=0
EXTRACT: note_off channel=0 note=55 velocity=95 time=0
EXTRACT: note_off channel=0 note=50 velocity=95 time=0
EXTRACT: note_off channel=0 note=45 velocity=95 time=0
EXTRACT: note_off channel=0 note=40 velocity=95 time=0
EXTRACT: note_on channel=0 note=53 velocity=95 time=0.16396087499999998
EXTRACT: note_off channel=2 note=43 velocity=95 time=0
EXTRACT: note_on channel=2 note=41 velocity=95 time=0
EXTRACT: note_on channel=9 note=36 velocity=95 time=0
EXTRACT: note_on channel=9 note=49 velocity=95 time=0
EXTRACT: note_off channel=9 note=36 velocity=95 time=0.38960999999999996
EXTRACT: note_off channel=9 note=49 velocity=95 time=0
EXTRACT: note_on channel=9 note=38 velocity=95 time=0
EXTRACT: note_off channel=9 note=38 velocity=95 time=0.19480499999999998
EXTRACT: note_on channel=9 note=38 velocity=95 time=0
EXTRACT: note_off channel=0 note=53 velocity=95 time=0.19480499999999998
EXTRACT: note_on channel=0 note=51 velocity=95 time=0
EXTRACT: note_off channel=2 note=41 velocity=95 time=0
EXTRACT: note_on channel=2 note=39 velocity=95 time=0
EXTRACT: note_off channel=9 note=38 velocity=95 time=0
EXTRACT: note_on channel=9 note=36 velocity=95 time=0
EXTRACT: note_on channel=9 note=57 velocity=95 time=0
EXTRACT: note_off channel=9 note=36 velocity=95 time=0.38960999999999996
EXTRACT: note_off channel=9 note=57 velocity=95 time=0
EXTRACT: note_on channel=9 note=38 velocity=95 time=0
EXTRACT: note_off channel=9 note=38 velocity=95 time=0.19480499999999998
EXTRACT: note_on channel=9 note=38 velocity=95 time=0
EXTRACT: note_off channel=0 note=51 velocity=95 time=0.19480499999999998
EXTRACT: note_on channel=0 note=48 velocity=95 time=0
EXTRACT: note_off channel=2 note=39 velocity=95 time=0
EXTRACT: note_on channel=2 note=36 velocity=95 time=0
EXTRACT: note_off channel=9 note=38 velocity=95 time=0
EXTRACT: note_on channel=9 note=36 velocity=95 time=0
EXTRACT: note_on channel=9 note=49 velocity=95 time=0
EXTRACT: note_off channel=9 note=36 velocity=95 time=0.38960999999999996
EXTRACT: note_off channel=9 note=49 velocity=95 time=0
EXTRACT: note_on channel=9 note=38 velocity=95 time=0
EXTRACT: note_off channel=9 note=38 velocity=95 time=0.19480499999999998
EXTRACT: note_on channel=9 note=38 velocity=95 time=0
EXTRACT: note_off channel=0 note=48 velocity=95 time=0.19480499999999998
EXTRACT: note_on channel=0 note=44 velocity=95 time=0
EXTRACT: note_off channel=2 note=36 velocity=95 time=0
EXTRACT: note_on channel=2 note=32 velocity=95 time=0
EXTRACT: note_off channel=9 note=38 velocity=95 time=0
EXTRACT: note_on channel=9 note=36 velocity=95 time=0
EXTRACT: note_on channel=9 note=57 velocity=95 time=0
EXTRACT: note_off channel=9 note=36 velocity=95 time=0.38960999999999996
EXTRACT: note_off channel=9 note=57 velocity=95 time=0
EXTRACT: note_on channel=9 note=38 velocity=95 time=0
EXTRACT: note_off channel=9 note=38 velocity=95 time=0.19480499999999998
EXTRACT: note_on channel=9 note=38 velocity=95 time=0
EXTRACT: note_off channel=0 note=44 velocity=95 time=0.19480499999999998
EXTRACT: note_on channel=0 note=68 velocity=95 time=0
EXTRACT: note_on channel=0 note=65 velocity=95 time=0
EXTRACT: note_on channel=0 note=61 velocity=95 time=0
EXTRACT: note_off channel=2 note=32 velocity=95 time=0
EXTRACT: note_on channel=2 note=37 velocity=95 time=0
EXTRACT: note_off channel=9 note=38 velocity=95 time=0
EXTRACT: note_on channel=9 note=36 velocity=95 time=0
EXTRACT: note_on channel=9 note=44 velocity=95 time=0
EXTRACT: note_off channel=0 note=68 velocity=95 time=0.38960999999999996
EXTRACT: note_off channel=0 note=65 velocity=95 time=0
EXTRACT: note_off channel=0 note=61 velocity=95 time=0
EXTRACT: note_on channel=0 note=68 velocity=95 time=0
EXTRACT: note_on channel=0 note=65 velocity=95 time=0
EXTRACT: note_on channel=0 note=61 velocity=95 time=0
EXTRACT: note_off channel=9 note=36 velocity=95 time=0
EXTRACT: note_off channel=9 note=44 velocity=95 time=0
EXTRACT: note_on channel=9 note=44 velocity=95 time=0
EXTRACT: note_off channel=0 note=68 velocity=95 time=0.19480499999999998
EXTRACT: note_off channel=0 note=65 velocity=95 time=0
EXTRACT: note_off channel=0 note=61 velocity=95 time=0
EXTRACT: note_on channel=0 note=68 velocity=95 time=0
EXTRACT: note_on channel=0 note=65 velocity=95 time=0
EXTRACT: note_on channel=0 note=61 velocity=95 time=0
EXTRACT: note_off channel=9 note=44 velocity=95 time=0
EXTRACT: note_on channel=9 note=36 velocity=95 time=0
EXTRACT: note_off channel=0 note=68 velocity=95 time=0.19480499999999998
EXTRACT: note_off channel=0 note=65 velocity=95 time=0
EXTRACT: note_off channel=0 note=61 velocity=95 time=0
EXTRACT: note_on channel=0 note=68 velocity=95 time=0
EXTRACT: note_on channel=0 note=65 velocity=95 time=0
EXTRACT: note_on channel=0 note=61 velocity=95 time=0
EXTRACT: note_off channel=9 note=36 velocity=95 time=0
EXTRACT: note_on channel=9 note=38 velocity=95 time=0
EXTRACT: note_on channel=9 note=54 velocity=95 time=0
EXTRACT: note_on channel=9 note=44 velocity=95 time=0
EXTRACT: note_off channel=0 note=68 velocity=95 time=0.19480499999999998
EXTRACT: note_off channel=0 note=65 velocity=95 time=0
EXTRACT: note_off channel=0 note=61 velocity=95 time=0
EXTRACT: note_on channel=0 note=68 velocity=95 time=0
EXTRACT: note_on channel=0 note=65 velocity=95 time=0
EXTRACT: note_on channel=0 note=61 velocity=95 time=0
EXTRACT: note_off channel=0 note=68 velocity=95 time=0.19480499999999998
EXTRACT: note_off channel=0 note=65 velocity=95 time=0
EXTRACT: note_off channel=0 note=61 velocity=95 time=0
EXTRACT: note_on channel=0 note=68 velocity=95 time=0
EXTRACT: note_on channel=0 note=65 velocity=95 time=0
EXTRACT: note_on channel=0 note=61 velocity=95 time=0
EXTRACT: note_off channel=9 note=38 velocity=95 time=0
EXTRACT: note_off channel=9 note=54 velocity=95 time=0
EXTRACT: note_off channel=9 note=44 velocity=95 time=0
EXTRACT: note_on channel=9 note=44 velocity=95 time=0
EXTRACT: note_off channel=0 note=68 velocity=95 time=0.19480499999999998
EXTRACT: note_off channel=0 note=65 velocity=95 time=0
EXTRACT: note_off channel=0 note=61 velocity=95 time=0
EXTRACT: note_on channel=0 note=68 velocity=95 time=0
EXTRACT: note_on channel=0 note=65 velocity=95 time=0
EXTRACT: note_on channel=0 note=61 velocity=95 time=0
EXTRACT: note_off channel=2 note=37 velocity=95 time=0
EXTRACT: note_on channel=2 note=36 velocity=95 time=0
EXTRACT: note_off channel=9 note=44 velocity=95 time=0
EXTRACT: note_on channel=9 note=36 velocity=95 time=0
EXTRACT: note_off channel=0 note=68 velocity=95 time=0.19480499999999998
EXTRACT: note_off channel=0 note=65 velocity=95 time=0
EXTRACT: note_off channel=0 note=61 velocity=95 time=0
EXTRACT: note_on channel=0 note=68 velocity=95 time=0
EXTRACT: note_on channel=0 note=65 velocity=95 time=0
EXTRACT: note_on channel=0 note=60 velocity=95 time=0
EXTRACT: note_off channel=9 note=36 velocity=95 time=0
EXTRACT: note_on channel=9 note=36 velocity=95 time=0
EXTRACT: note_on channel=9 note=44 velocity=95 time=0
EXTRACT: note_off channel=0 note=68 velocity=95 time=0.19480499999999998
EXTRACT: note_off channel=0 note=65 velocity=95 time=0
EXTRACT: note_off channel=0 note=60 velocity=95 time=0
EXTRACT: note_on channel=0 note=68 velocity=95 time=0
EXTRACT: note_on channel=0 note=65 velocity=95 time=0
EXTRACT: note_on channel=0 note=60 velocity=95 time=0
EXTRACT: note_off channel=0 note=68 velocity=95 time=0.19480499999999998
EXTRACT: note_off channel=0 note=65 velocity=95 time=0
EXTRACT: note_off channel=0 note=60 velocity=95 time=0
EXTRACT: note_on channel=0 note=68 velocity=95 time=0
EXTRACT: note_on channel=0 note=63 velocity=95 time=0
EXTRACT: note_on channel=0 note=60 velocity=95 time=0
EXTRACT: note_off channel=2 note=36 velocity=95 time=0
EXTRACT: note_on channel=2 note=36 velocity=95 time=0
EXTRACT: note_off channel=9 note=36 velocity=95 time=0
EXTRACT: note_off channel=9 note=44 velocity=95 time=0
EXTRACT: note_on channel=9 note=44 velocity=95 time=0
EXTRACT: note_off channel=0 note=68 velocity=95 time=0.19480499999999998
EXTRACT: note_off channel=0 note=63 velocity=95 time=0
EXTRACT: note_off channel=0 note=60 velocity=95 time=0
EXTRACT: note_on channel=0 note=68 velocity=95 time=0
EXTRACT: note_on channel=0 note=65 velocity=95 time=0
EXTRACT: note_on channel=0 note=60 velocity=95 time=0
EXTRACT: note_off channel=2 note=36 velocity=95 time=0
EXTRACT: note_on channel=2 note=37 velocity=95 time=0
EXTRACT: note_off channel=9 note=44 velocity=95 time=0
EXTRACT: note_on channel=9 note=36 velocity=95 time=0
EXTRACT: note_off channel=0 note=68 velocity=95 time=0.19480499999999998
EXTRACT: note_off channel=0 note=65 velocity=95 time=0
EXTRACT: note_off channel=0 note=60 velocity=95 time=0
EXTRACT: note_on channel=0 note=68 velocity=95 time=0
EXTRACT: note_on channel=0 note=63 velocity=95 time=0
EXTRACT: note_on channel=0 note=60 velocity=95 time=0
EXTRACT: note_off channel=2 note=37 velocity=95 time=0
EXTRACT: note_on channel=2 note=39 velocity=95 time=0
EXTRACT: note_off channel=9 note=36 velocity=95 time=0
EXTRACT: note_on channel=9 note=38 velocity=95 time=0
EXTRACT: note_on channel=9 note=54 velocity=95 time=0
EXTRACT: note_on channel=9 note=44 velocity=95 time=0
EXTRACT: note_off channel=0 note=68 velocity=95 time=0.19480499999999998
EXTRACT: note_off channel=0 note=63 velocity=95 time=0
EXTRACT: note_off channel=0 note=60 velocity=95 time=0
EXTRACT: note_on channel=0 note=68 velocity=95 time=0
EXTRACT: note_on channel=0 note=63 velocity=95 time=0
EXTRACT: note_on channel=0 note=60 velocity=95 time=0
EXTRACT: note_off channel=2 note=39 velocity=95 time=0
EXTRACT: note_on channel=2 note=37 velocity=95 time=0
EXTRACT: note_off channel=0 note=68 velocity=95 time=0.19480499999999998
EXTRACT: note_off channel=0 note=63 velocity=95 time=0
EXTRACT: note_off channel=0 note=60 velocity=95 time=0
EXTRACT: note_on channel=0 note=68 velocity=95 time=0
EXTRACT: note_on channel=0 note=63 velocity=95 time=0
EXTRACT: note_on channel=0 note=60 velocity=95 time=0
EXTRACT: note_off channel=2 note=37 velocity=95 time=0
EXTRACT: note_on channel=2 note=36 velocity=95 time=0
EXTRACT: note_off channel=9 note=38 velocity=95 time=0
EXTRACT: note_off channel=9 note=54 velocity=95 time=0
EXTRACT: note_off channel=9 note=44 velocity=95 time=0
EXTRACT: note_on channel=9 note=44 velocity=95 time=0
EXTRACT: note_off channel=0 note=68 velocity=95 time=0.19480499999999998
EXTRACT: note_off channel=0 note=63 velocity=95 time=0
EXTRACT: note_off channel=0 note=60 velocity=95 time=0
EXTRACT: note_on channel=0 note=56 velocity=95 time=0
EXTRACT: note_off channel=2 note=36 velocity=95 time=0
EXTRACT: note_on channel=2 note=32 velocity=95 time=0
EXTRACT: note_off channel=9 note=44 velocity=95 time=0
EXTRACT: note_off channel=0 note=56 velocity=95 time=0.19480499999999998
EXTRACT: note_on channel=0 note=66 velocity=95 time=0
EXTRACT: note_on channel=0 note=63 velocity=95 time=0
EXTRACT: note_on channel=0 note=59 velocity=95 time=0
EXTRACT: note_off channel=2 note=32 velocity=95 time=0
EXTRACT: note_on channel=2 note=35 velocity=95 time=0
EXTRACT: note_on channel=9 note=36 velocity=95 time=0
EXTRACT: note_on channel=9 note=44 velocity=95 time=0
EXTRACT: note_off channel=0 note=66 velocity=95 time=0.19480499999999998
EXTRACT: note_off channel=0 note=63 velocity=95 time=0
EXTRACT: note_off channel=0 note=59 velocity=95 time=0
EXTRACT: note_on channel=0 note=66 velocity=95 time=0
EXTRACT: note_on channel=0 note=63 velocity=95 time=0
EXTRACT: note_on channel=0 note=59 velocity=95 time=0
EXTRACT: note_off channel=0 note=66 velocity=95 time=0.19480499999999998
EXTRACT: note_off channel=0 note=63 velocity=95 time=0
EXTRACT: note_off channel=0 note=59 velocity=95 time=0
EXTRACT: note_on channel=0 note=66 velocity=95 time=0
EXTRACT: note_on channel=0 note=63 velocity=95 time=0
EXTRACT: note_on channel=0 note=59 velocity=95 time=0
EXTRACT: note_off channel=9 note=36 velocity=95 time=0
EXTRACT: note_off channel=9 note=44 velocity=95 time=0
EXTRACT: note_on channel=9 note=44 velocity=95 time=0
EXTRACT: note_off channel=0 note=66 velocity=95 time=0.19480499999999998
EXTRACT: note_off channel=0 note=63 velocity=95 time=0
EXTRACT: note_off channel=0 note=59 velocity=95 time=0
EXTRACT: note_on channel=0 note=66 velocity=95 time=0
EXTRACT: note_on channel=0 note=63 velocity=95 time=0
EXTRACT: note_on channel=0 note=59 velocity=95 time=0
EXTRACT: note_off channel=9 note=44 velocity=95 time=0
EXTRACT: note_on channel=9 note=36 velocity=95 time=0
EXTRACT: note_off channel=0 note=66 velocity=95 time=0.19480499999999998
EXTRACT: note_off channel=0 note=63 velocity=95 time=0
EXTRACT: note_off channel=0 note=59 velocity=95 time=0
EXTRACT: note_on channel=0 note=66 velocity=95 time=0
EXTRACT: note_on channel=0 note=63 velocity=95 time=0
EXTRACT: note_on channel=0 note=59 velocity=95 time=0
EXTRACT: note_off channel=2 note=35 velocity=95 time=0
EXTRACT: note_on channel=2 note=35 velocity=95 time=0
EXTRACT: note_off channel=9 note=36 velocity=95 time=0
EXTRACT: note_on channel=9 note=38 velocity=95 time=0
EXTRACT: note_on channel=9 note=54 velocity=95 time=0
EXTRACT: note_on channel=9 note=44 velocity=95 time=0
EXTRACT: note_off channel=0 note=66 velocity=95 time=0.19480499999999998
EXTRACT: note_off channel=0 note=63 velocity=95 time=0
EXTRACT: note_off channel=0 note=59 velocity=95 time=0
EXTRACT: note_on channel=0 note=66 velocity=95 time=0
EXTRACT: note_on channel=0 note=63 velocity=95 time=0
EXTRACT: note_on channel=0 note=59 velocity=95 time=0
EXTRACT: note_off channel=0 note=66 velocity=95 time=0.19480499999999998
EXTRACT: note_off channel=0 note=63 velocity=95 time=0
EXTRACT: note_off channel=0 note=59 velocity=95 time=0
EXTRACT: note_on channel=0 note=66 velocity=95 time=0
EXTRACT: note_on channel=0 note=63 velocity=95 time=0
EXTRACT: note_on channel=0 note=59 velocity=95 time=0
EXTRACT: note_off channel=9 note=38 velocity=95 time=0
EXTRACT: note_off channel=9 note=54 velocity=95 time=0
EXTRACT: note_off channel=9 note=44 velocity=95 time=0
EXTRACT: note_on channel=9 note=44 velocity=95 time=0
EXTRACT: note_off channel=0 note=66 velocity=95 time=0.19480499999999998
EXTRACT: note_off channel=0 note=63 velocity=95 time=0
EXTRACT: note_off channel=0 note=59 velocity=95 time=0
EXTRACT: note_on channel=0 note=66 velocity=95 time=0
EXTRACT: note_on channel=0 note=63 velocity=95 time=0
EXTRACT: note_on channel=0 note=59 velocity=95 time=0
EXTRACT: note_off channel=2 note=35 velocity=95 time=0
EXTRACT: note_on channel=2 note=34 velocity=95 time=0
EXTRACT: note_off channel=9 note=44 velocity=95 time=0
EXTRACT: note_on channel=9 note=36 velocity=95 time=0
EXTRACT: note_off channel=0 note=66 velocity=95 time=0.19480499999999998
EXTRACT: note_off channel=0 note=63 velocity=95 time=0
EXTRACT: note_off channel=0 note=59 velocity=95 time=0
EXTRACT: note_on channel=0 note=66 velocity=95 time=0
EXTRACT: note_on channel=0 note=63 velocity=95 time=0
EXTRACT: note_on channel=0 note=58 velocity=95 time=0
EXTRACT: note_off channel=9 note=36 velocity=95 time=0
EXTRACT: note_on channel=9 note=36 velocity=95 time=0
EXTRACT: note_on channel=9 note=44 velocity=95 time=0
EXTRACT: note_off channel=0 note=66 velocity=95 time=0.38960999999999996
EXTRACT: note_off channel=0 note=63 velocity=95 time=0
EXTRACT: note_off channel=0 note=58 velocity=95 time=0
EXTRACT: note_on channel=0 note=66 velocity=95 time=0
EXTRACT: note_on channel=0 note=61 velocity=95 time=0
EXTRACT: note_on channel=0 note=58 velocity=95 time=0
EXTRACT: note_off channel=9 note=36 velocity=95 time=0
EXTRACT: note_off channel=9 note=44 velocity=95 time=0
EXTRACT: note_on channel=9 note=44 velocity=95 time=0
EXTRACT: note_off channel=0 note=66 velocity=95 time=0.19480499999999998
EXTRACT: note_off channel=0 note=61 velocity=95 time=0
EXTRACT: note_off channel=0 note=58 velocity=95 time=0
EXTRACT: note_on channel=0 note=66 velocity=95 time=0
EXTRACT: note_on channel=0 note=61 velocity=95 time=0
EXTRACT: note_on channel=0 note=58 velocity=95 time=0
EXTRACT: note_off channel=9 note=44 velocity=95 time=0
EXTRACT: note_on channel=9 note=36 velocity=95 time=0
EXTRACT: note_off channel=0 note=66 velocity=95 time=0.19480499999999998
EXTRACT: note_off channel=0 note=61 velocity=95 time=0
EXTRACT: note_off channel=0 note=58 velocity=95 time=0
EXTRACT: note_on channel=0 note=66 velocity=95 time=0
EXTRACT: note_on channel=0 note=61 velocity=95 time=0
EXTRACT: note_on channel=0 note=58 velocity=95 time=0
EXTRACT: note_off channel=9 note=36 velocity=95 time=0
EXTRACT: note_on channel=9 note=38 velocity=95 time=0
EXTRACT: note_on channel=9 note=54 velocity=95 time=0
EXTRACT: note_on channel=9 note=44 velocity=95 time=0
EXTRACT: note_off channel=0 note=66 velocity=95 time=0.19480499999999998
EXTRACT: note_off channel=0 note=61 velocity=95 time=0
EXTRACT: note_off channel=0 note=58 velocity=95 time=0
EXTRACT: note_on channel=0 note=66 velocity=95 time=0
EXTRACT: note_on channel=0 note=61 velocity=95 time=0
EXTRACT: note_on channel=0 note=58 velocity=95 time=0
EXTRACT: note_off channel=0 note=66 velocity=95 time=0.19480499999999998
EXTRACT: note_off channel=0 note=61 velocity=95 time=0
EXTRACT: note_off channel=0 note=58 velocity=95 time=0
EXTRACT: note_on channel=0 note=66 velocity=95 time=0
EXTRACT: note_on channel=0 note=61 velocity=95 time=0
EXTRACT: note_on channel=0 note=58 velocity=95 time=0
EXTRACT: note_off channel=9 note=38 velocity=95 time=0
EXTRACT: note_off channel=9 note=54 velocity=95 time=0
EXTRACT: note_off channel=9 note=44 velocity=95 time=0
EXTRACT: note_on channel=9 note=44 velocity=95 time=0
EXTRACT: note_off channel=9 note=44 velocity=95 time=0.19480499999999998
EXTRACT: note_off channel=0 note=66 velocity=95 time=0.19480499999999998
EXTRACT: note_off channel=0 note=61 velocity=95 time=0
EXTRACT: note_off channel=0 note=58 velocity=95 time=0
EXTRACT: note_on channel=0 note=69 velocity=95 time=0
EXTRACT: note_on channel=0 note=63 velocity=95 time=0
EXTRACT: note_on channel=0 note=61 velocity=95 time=0
EXTRACT: note_on channel=0 note=57 velocity=95 time=0
EXTRACT: note_off channel=2 note=34 velocity=95 time=0
EXTRACT: note_on channel=2 note=33 velocity=95 time=0
EXTRACT: note_on channel=9 note=36 velocity=95 time=0
EXTRACT: note_on channel=9 note=44 velocity=95 time=0
EXTRACT: note_off channel=2 note=33 velocity=95 time=0.19480499999999998
EXTRACT: note_off channel=0 note=69 velocity=95 time=0.19480499999999998
EXTRACT: note_off channel=0 note=63 velocity=95 time=0
EXTRACT: note_off channel=0 note=61 velocity=95 time=0
EXTRACT: note_off channel=0 note=57 velocity=95 time=0
EXTRACT: note_off channel=9 note=36 velocity=95 time=0
EXTRACT: note_off channel=9 note=44 velocity=95 time=0
EXTRACT: note_on channel=9 note=44 velocity=95 time=0
EXTRACT: note_on channel=0 note=69 velocity=95 time=0.19480499999999998
EXTRACT: note_on channel=0 note=63 velocity=95 time=0
EXTRACT: note_on channel=0 note=61 velocity=95 time=0
EXTRACT: note_on channel=0 note=57 velocity=95 time=0
EXTRACT: note_on channel=2 note=37 velocity=95 time=0
EXTRACT: note_off channel=9 note=44 velocity=95 time=0
EXTRACT: note_on channel=9 note=36 velocity=95 time=0
EXTRACT: note_off channel=2 note=37 velocity=95 time=0.19480499999999998
EXTRACT: note_off channel=9 note=36 velocity=95 time=0
EXTRACT: note_on channel=9 note=38 velocity=95 time=0
EXTRACT: note_on channel=9 note=54 velocity=95 time=0
EXTRACT: note_on channel=9 note=44 velocity=95 time=0
EXTRACT: note_off channel=0 note=69 velocity=95 time=0.38960999999999996
EXTRACT: note_off channel=0 note=63 velocity=95 time=0
EXTRACT: note_off channel=0 note=61 velocity=95 time=0
EXTRACT: note_off channel=0 note=57 velocity=95 time=0
EXTRACT: note_on channel=0 note=69 velocity=95 time=0
EXTRACT: note_on channel=0 note=63 velocity=95 time=0
EXTRACT: note_on channel=0 note=61 velocity=95 time=0
EXTRACT: note_on channel=0 note=57 velocity=95 time=0
EXTRACT: note_on channel=2 note=39 velocity=95 time=0
EXTRACT: note_off channel=9 note=38 velocity=95 time=0
EXTRACT: note_off channel=9 note=54 velocity=95 time=0
EXTRACT: note_off channel=9 note=44 velocity=95 time=0
EXTRACT: note_on channel=9 note=44 velocity=95 time=0
EXTRACT: note_off channel=9 note=44 velocity=95 time=0.19480499999999998
EXTRACT: note_on channel=9 note=36 velocity=95 time=0
EXTRACT: note_off channel=2 note=39 velocity=95 time=0.19480499999999998
EXTRACT: note_on channel=2 note=39 velocity=95 time=0
EXTRACT: note_off channel=9 note=36 velocity=95 time=0
EXTRACT: note_on channel=9 note=36 velocity=95 time=0
EXTRACT: note_on channel=9 note=44 velocity=95 time=0
EXTRACT: note_off channel=9 note=36 velocity=95 time=0.38960999999999996
EXTRACT: note_off channel=9 note=44 velocity=95 time=0
EXTRACT: note_on channel=9 note=44 velocity=95 time=0
EXTRACT: note_off channel=9 note=44 velocity=95 time=0.19480499999999998
EXTRACT: note_on channel=9 note=36 velocity=95 time=0
EXTRACT: note_off channel=9 note=36 velocity=95 time=0.19480499999999998
EXTRACT: note_on channel=9 note=38 velocity=95 time=0
EXTRACT: note_on channel=9 note=54 velocity=95 time=0
EXTRACT: note_on channel=9 note=44 velocity=95 time=0
EXTRACT: note_off channel=9 note=38 velocity=95 time=0.38960999999999996
EXTRACT: note_off channel=9 note=54 velocity=95 time=0
EXTRACT: note_off channel=9 note=44 velocity=95 time=0
EXTRACT: note_on channel=9 note=44 velocity=95 time=0
EXTRACT: note_off channel=9 note=44 velocity=95 time=0.19480499999999998
EXTRACT: note_off channel=0 note=69 velocity=95 time=0.19480499999999998
EXTRACT: note_off channel=0 note=63 velocity=95 time=0
EXTRACT: note_off channel=0 note=61 velocity=95 time=0
EXTRACT: note_off channel=0 note=57 velocity=95 time=0
EXTRACT: note_on channel=0 note=68 velocity=95 time=0
EXTRACT: note_on channel=0 note=63 velocity=95 time=0
EXTRACT: note_on channel=0 note=61 velocity=95 time=0
EXTRACT: note_on channel=0 note=56 velocity=95 time=0
EXTRACT: note_off channel=2 note=39 velocity=95 time=0
EXTRACT: note_on channel=2 note=37 velocity=95 time=0
EXTRACT: note_on channel=9 note=36 velocity=95 time=0
EXTRACT: note_on channel=9 note=44 velocity=95 time=0
EXTRACT: note_off channel=0 note=68 velocity=95 time=0.19480499999999998
EXTRACT: note_off channel=0 note=63 velocity=95 time=0
EXTRACT: note_off channel=0 note=61 velocity=95 time=0
EXTRACT: note_off channel=0 note=56 velocity=95 time=0
EXTRACT: note_on channel=0 note=68 velocity=95 time=0
EXTRACT: note_on channel=0 note=63 velocity=95 time=0
EXTRACT: note_on channel=0 note=61 velocity=95 time=0
EXTRACT: note_on channel=0 note=56 velocity=95 time=0
EXTRACT: note_off channel=2 note=37 velocity=95 time=0
EXTRACT: note_on channel=2 note=39 velocity=95 time=0
EXTRACT: note_off channel=0 note=68 velocity=95 time=0.19480499999999998
EXTRACT: note_off channel=0 note=63 velocity=95 time=0
EXTRACT: note_off channel=0 note=61 velocity=95 time=0
EXTRACT: note_off channel=0 note=56 velocity=95 time=0
EXTRACT: note_off channel=2 note=39 velocity=95 time=0
EXTRACT: note_off channel=9 note=36 velocity=95 time=0
EXTRACT: note_off channel=9 note=44 velocity=95 time=0
EXTRACT: note_on channel=9 note=44 velocity=95 time=0
EXTRACT: note_on channel=0 note=68 velocity=95 time=0.19480499999999998
EXTRACT: note_on channel=0 note=63 velocity=95 time=0
EXTRACT: note_on channel=0 note=61 velocity=95 time=0
EXTRACT: note_on channel=0 note=56 velocity=95 time=0
EXTRACT: note_on channel=2 note=39 velocity=95 time=0
EXTRACT: note_off channel=9 note=44 velocity=95 time=0
EXTRACT: note_on channel=9 note=36 velocity=95 time=0
EXTRACT: note_off channel=0 note=68 velocity=95 time=0.19480499999999998
EXTRACT: note_off channel=0 note=63 velocity=95 time=0
EXTRACT: note_off channel=0 note=61 velocity=95 time=0
EXTRACT: note_off channel=0 note=56 velocity=95 time=0
EXTRACT: note_off channel=2 note=39 velocity=95 time=0
EXTRACT: note_off channel=9 note=36 velocity=95 time=0
EXTRACT: note_on channel=9 note=38 velocity=95 time=0
EXTRACT: note_on channel=9 note=54 velocity=95 time=0
EXTRACT: note_on channel=9 note=44 velocity=95 time=0
EXTRACT: note_on channel=0 note=68 velocity=95 time=0.19480499999999998
EXTRACT: note_on channel=0 note=63 velocity=95 time=0
EXTRACT: note_on channel=0 note=61 velocity=95 time=0
EXTRACT: note_on channel=0 note=56 velocity=95 time=0
EXTRACT: note_on channel=2 note=39 velocity=95 time=0
EXTRACT: note_off channel=0 note=68 velocity=95 time=0.19480499999999998
EXTRACT: note_off channel=0 note=63 velocity=95 time=0
EXTRACT: note_off channel=0 note=61 velocity=95 time=0
EXTRACT: note_off channel=0 note=56 velocity=95 time=0
EXTRACT: note_on channel=0 note=68 velocity=95 time=0
EXTRACT: note_on channel=0 note=63 velocity=95 time=0
EXTRACT: note_on channel=0 note=60 velocity=95 time=0
EXTRACT: note_on channel=0 note=56 velocity=95 time=0
EXTRACT: note_off channel=2 note=39 velocity=95 time=0
EXTRACT: note_on channel=2 note=32 velocity=95 time=0
EXTRACT: note_off channel=9 note=38 velocity=95 time=0
EXTRACT: note_off channel=9 note=54 velocity=95 time=0
EXTRACT: note_off channel=9 note=44 velocity=95 time=0
EXTRACT: note_on channel=9 note=44 velocity=95 time=0
EXTRACT: note_off channel=9 note=44 velocity=95 time=0.19480499999999998
EXTRACT: note_on channel=9 note=36 velocity=95 time=0
EXTRACT: note_off channel=2 note=32 velocity=95 time=0.19480499999999998
EXTRACT: note_on channel=2 note=32 velocity=95 time=0
EXTRACT: note_off channel=9 note=36 velocity=95 time=0
EXTRACT: note_on channel=9 note=36 velocity=95 time=0
EXTRACT: note_on channel=9 note=44 velocity=95 time=0
EXTRACT: note_off channel=9 note=36 velocity=95 time=0.38960999999999996
EXTRACT: note_off channel=9 note=44 velocity=95 time=0
EXTRACT: note_on channel=9 note=44 velocity=95 time=0
EXTRACT: note_off channel=9 note=44 velocity=95 time=0.19480499999999998
EXTRACT: note_on channel=9 note=36 velocity=95 time=0
EXTRACT: note_off channel=9 note=36 velocity=95 time=0.19480499999999998
EXTRACT: note_on channel=9 note=38 velocity=95 time=0
EXTRACT: note_on channel=9 note=54 velocity=95 time=0
EXTRACT: note_on channel=9 note=44 velocity=95 time=0
EXTRACT: note_off channel=0 note=68 velocity=95 time=0.38960999999999996
EXTRACT: note_off channel=0 note=63 velocity=95 time=0
EXTRACT: note_off channel=0 note=60 velocity=95 time=0
EXTRACT: note_off channel=0 note=56 velocity=95 time=0
EXTRACT: note_off channel=2 note=32 velocity=95 time=0
EXTRACT: note_on channel=2 note=48 velocity=95 time=0
EXTRACT: note_off channel=9 note=38 velocity=95 time=0
EXTRACT: note_off channel=9 note=54 velocity=95 time=0
EXTRACT: note_off channel=9 note=44 velocity=95 time=0
EXTRACT: note_on channel=9 note=44 velocity=95 time=0
EXTRACT: note_off channel=9 note=44 velocity=95 time=0.19480499999999998
EXTRACT: note_on channel=0 note=67 velocity=95 time=0.19480499999999998
EXTRACT: note_on channel=0 note=63 velocity=95 time=0
EXTRACT: note_on channel=0 note=60 velocity=95 time=0
EXTRACT: note_on channel=0 note=55 velocity=95 time=0
EXTRACT: note_on channel=0 note=48 velocity=95 time=0
EXTRACT: note_off channel=2 note=48 velocity=95 time=0
EXTRACT: note_on channel=2 note=36 velocity=95 time=0
EXTRACT: note_on channel=9 note=36 velocity=95 time=0
EXTRACT: note_on channel=9 note=44 velocity=95 time=0
EXTRACT: note_off channel=0 note=67 velocity=95 time=0.38960999999999996
EXTRACT: note_off channel=0 note=63 velocity=95 time=0
EXTRACT: note_off channel=0 note=60 velocity=95 time=0
EXTRACT: note_off channel=0 note=55 velocity=95 time=0
EXTRACT: note_off channel=0 note=48 velocity=95 time=0
EXTRACT: note_on channel=0 note=67 velocity=95 time=0
EXTRACT: note_on channel=0 note=63 velocity=95 time=0
EXTRACT: note_on channel=0 note=60 velocity=95 time=0
EXTRACT: note_on channel=0 note=55 velocity=95 time=0
EXTRACT: note_on channel=0 note=48 velocity=95 time=0
EXTRACT: note_off channel=2 note=36 velocity=95 time=0
EXTRACT: note_on channel=2 note=36 velocity=95 time=0
EXTRACT: note_off channel=9 note=36 velocity=95 time=0
EXTRACT: note_off channel=9 note=44 velocity=95 time=0
EXTRACT: note_on channel=9 note=44 velocity=95 time=0
EXTRACT: note_on channel=4 note=60 velocity=95 time=0.19480499999999998
EXTRACT: note_off channel=9 note=44 velocity=95 time=0
EXTRACT: note_on channel=9 note=36 velocity=95 time=0
EXTRACT: note_off channel=0 note=67 velocity=95 time=0.19480499999999998
EXTRACT: note_off channel=0 note=63 velocity=95 time=0
EXTRACT: note_off channel=0 note=60 velocity=95 time=0
EXTRACT: note_off channel=0 note=55 velocity=95 time=0
EXTRACT: note_off channel=0 note=48 velocity=95 time=0
EXTRACT: note_on channel=0 note=67 velocity=95 time=0
EXTRACT: note_on channel=0 note=63 velocity=95 time=0
EXTRACT: note_on channel=0 note=60 velocity=95 time=0
EXTRACT: note_on channel=0 note=55 velocity=95 time=0
EXTRACT: note_on channel=0 note=48 velocity=95 time=0
EXTRACT: note_off channel=2 note=36 velocity=95 time=0
EXTRACT: note_on channel=2 note=33 velocity=95 time=0
EXTRACT: note_off channel=4 note=60 velocity=95 time=0
EXTRACT: note_on channel=4 note=63 velocity=95 time=0
EXTRACT: note_off channel=9 note=36 velocity=95 time=0
EXTRACT: note_on channel=9 note=38 velocity=95 time=0
EXTRACT: note_on channel=9 note=54 velocity=95 time=0
EXTRACT: note_on channel=9 note=44 velocity=95 time=0
EXTRACT: note_off channel=2 note=33 velocity=95 time=0.030844124999999997
EXTRACT: note_off channel=0 note=67 velocity=95 time=0.16396087499999998
EXTRACT: note_off channel=0 note=63 velocity=95 time=0
EXTRACT: note_off channel=0 note=60 velocity=95 time=0
EXTRACT: note_off channel=0 note=55 velocity=95 time=0
EXTRACT: note_off channel=0 note=48 velocity=95 time=0
EXTRACT: note_on channel=0 note=67 velocity=95 time=0
EXTRACT: note_on channel=0 note=63 velocity=95 time=0
EXTRACT: note_on channel=0 note=60 velocity=95 time=0
EXTRACT: note_on channel=0 note=55 velocity=95 time=0
EXTRACT: note_on channel=0 note=48 velocity=95 time=0
EXTRACT: note_on channel=2 note=38 velocity=95 time=0
EXTRACT: note_off channel=4 note=63 velocity=95 time=0
EXTRACT: note_on channel=4 note=65 velocity=95 time=0
EXTRACT: note_off channel=0 note=67 velocity=95 time=0.19480499999999998
EXTRACT: note_off channel=0 note=63 velocity=95 time=0
EXTRACT: note_off channel=0 note=60 velocity=95 time=0
EXTRACT: note_off channel=0 note=55 velocity=95 time=0
EXTRACT: note_off channel=0 note=48 velocity=95 time=0
EXTRACT: note_on channel=0 note=67 velocity=95 time=0
EXTRACT: note_on channel=0 note=63 velocity=95 time=0
EXTRACT: note_on channel=0 note=60 velocity=95 time=0
EXTRACT: note_on channel=0 note=55 velocity=95 time=0
EXTRACT: note_on channel=0 note=48 velocity=95 time=0
EXTRACT: note_off channel=2 note=38 velocity=95 time=0
EXTRACT: note_on channel=2 note=39 velocity=95 time=0
EXTRACT: note_off channel=4 note=65 velocity=95 time=0
EXTRACT: note_on channel=4 note=67 velocity=95 time=0
EXTRACT: note_off channel=9 note=38 velocity=95 time=0
EXTRACT: note_off channel=9 note=54 velocity=95 time=0
EXTRACT: note_off channel=9 note=44 velocity=95 time=0
EXTRACT: note_on channel=9 note=44 velocity=95 time=0
EXTRACT: note_off channel=0 note=67 velocity=95 time=0.19480499999999998
EXTRACT: note_off channel=0 note=63 velocity=95 time=0
EXTRACT: note_off channel=0 note=60 velocity=95 time=0
EXTRACT: note_off channel=0 note=55 velocity=95 time=0
EXTRACT: note_off channel=0 note=48 velocity=95 time=0
EXTRACT: note_on channel=0 note=67 velocity=95 time=0
EXTRACT: note_on channel=0 note=62 velocity=95 time=0
EXTRACT: note_on channel=0 note=58 velocity=95 time=0
EXTRACT: note_on channel=0 note=55 velocity=95 time=0
EXTRACT: note_on channel=0 note=50 velocity=95 time=0
EXTRACT: note_on channel=0 note=43 velocity=95 time=0
EXTRACT: note_off channel=2 note=39 velocity=95 time=0
EXTRACT: note_on channel=2 note=43 velocity=95 time=0
EXTRACT: note_off channel=4 note=67 velocity=95 time=0
EXTRACT: note_on channel=4 note=65 velocity=95 time=0
EXTRACT: note_off channel=9 note=44 velocity=95 time=0
EXTRACT: note_on channel=9 note=36 velocity=95 time=0
EXTRACT: note_off channel=2 note=43 velocity=95 time=0.19480499999999998
EXTRACT: note_off channel=9 note=36 velocity=95 time=0
EXTRACT: note_on channel=9 note=36 velocity=95 time=0
EXTRACT: note_on channel=9 note=44 velocity=95 time=0
EXTRACT: note_off channel=0 note=67 velocity=95 time=0.19480499999999998
EXTRACT: note_off channel=0 note=62 velocity=95 time=0
EXTRACT: note_off channel=0 note=58 velocity=95 time=0
EXTRACT: note_off channel=0 note=55 velocity=95 time=0
EXTRACT: note_off channel=0 note=50 velocity=95 time=0
EXTRACT: note_off channel=0 note=43 velocity=95 time=0
EXTRACT: note_on channel=0 note=67 velocity=95 time=0
EXTRACT: note_on channel=0 note=62 velocity=95 time=0
EXTRACT: note_on channel=0 note=58 velocity=95 time=0
EXTRACT: note_on channel=0 note=55 velocity=95 time=0
EXTRACT: note_on channel=0 note=50 velocity=95 time=0
EXTRACT: note_on channel=0 note=43 velocity=95 time=0
EXTRACT: note_on channel=2 note=43 velocity=95 time=0
EXTRACT: note_off channel=0 note=67 velocity=95 time=0.19480499999999998
EXTRACT: note_off channel=0 note=62 velocity=95 time=0
EXTRACT: note_off channel=0 note=58 velocity=95 time=0
EXTRACT: note_off channel=0 note=55 velocity=95 time=0
EXTRACT: note_off channel=0 note=50 velocity=95 time=0
EXTRACT: note_off channel=0 note=43 velocity=95 time=0
EXTRACT: note_on channel=0 note=67 velocity=95 time=0
EXTRACT: note_on channel=0 note=62 velocity=95 time=0
EXTRACT: note_on channel=0 note=58 velocity=95 time=0
EXTRACT: note_on channel=0 note=55 velocity=95 time=0
EXTRACT: note_on channel=0 note=50 velocity=95 time=0
EXTRACT: note_on channel=0 note=43 velocity=95 time=0
EXTRACT: note_off channel=2 note=43 velocity=95 time=0
EXTRACT: note_on channel=2 note=43 velocity=95 time=0
EXTRACT: note_off channel=4 note=65 velocity=95 time=0
EXTRACT: note_on channel=4 note=62 velocity=95 time=0
EXTRACT: note_off channel=9 note=36 velocity=95 time=0
EXTRACT: note_off channel=9 note=44 velocity=95 time=0
EXTRACT: note_on channel=9 note=44 velocity=95 time=0
EXTRACT: note_off channel=0 note=67 velocity=95 time=0.19480499999999998
EXTRACT: note_off channel=0 note=62 velocity=95 time=0
EXTRACT: note_off channel=0 note=58 velocity=95 time=0
EXTRACT: note_off channel=0 note=55 velocity=95 time=0
EXTRACT: note_off channel=0 note=50 velocity=95 time=0
EXTRACT: note_off channel=0 note=43 velocity=95 time=0
EXTRACT: note_on channel=0 note=67 velocity=95 time=0
EXTRACT: note_on channel=0 note=62 velocity=95 time=0
EXTRACT: note_on channel=0 note=58 velocity=95 time=0
EXTRACT: note_on channel=0 note=55 velocity=95 time=0
EXTRACT: note_on channel=0 note=50 velocity=95 time=0
EXTRACT: note_on channel=0 note=43 velocity=95 time=0
EXTRACT: note_off channel=4 note=62 velocity=95 time=0
EXTRACT: note_on channel=4 note=58 velocity=95 time=0
EXTRACT: note_off channel=9 note=44 velocity=95 time=0
EXTRACT: note_on channel=9 note=36 velocity=95 time=0
EXTRACT: note_off channel=0 note=67 velocity=95 time=0.19480499999999998
EXTRACT: note_off channel=0 note=62 velocity=95 time=0
EXTRACT: note_off channel=0 note=58 velocity=95 time=0
EXTRACT: note_off channel=0 note=55 velocity=95 time=0
EXTRACT: note_off channel=0 note=50 velocity=95 time=0
EXTRACT: note_off channel=0 note=43 velocity=95 time=0
EXTRACT: note_on channel=0 note=67 velocity=95 time=0
EXTRACT: note_on channel=0 note=62 velocity=95 time=0
EXTRACT: note_on channel=0 note=58 velocity=95 time=0
EXTRACT: note_on channel=0 note=55 velocity=95 time=0
EXTRACT: note_on channel=0 note=50 velocity=95 time=0
EXTRACT: note_on channel=0 note=43 velocity=95 time=0
EXTRACT: note_off channel=9 note=36 velocity=95 time=0
EXTRACT: note_on channel=9 note=38 velocity=95 time=0
EXTRACT: note_on channel=9 note=54 velocity=95 time=0
EXTRACT: note_on channel=9 note=44 velocity=95 time=0
EXTRACT: note_off channel=0 note=67 velocity=95 time=0.19480499999999998
EXTRACT: note_off channel=0 note=62 velocity=95 time=0
EXTRACT: note_off channel=0 note=58 velocity=95 time=0
EXTRACT: note_off channel=0 note=55 velocity=95 time=0
EXTRACT: note_off channel=0 note=50 velocity=95 time=0
EXTRACT: note_off channel=0 note=43 velocity=95 time=0
EXTRACT: note_on channel=0 note=67 velocity=95 time=0
EXTRACT: note_on channel=0 note=62 velocity=95 time=0
EXTRACT: note_on channel=0 note=58 velocity=95 time=0
EXTRACT: note_on channel=0 note=55 velocity=95 time=0
EXTRACT: note_on channel=0 note=50 velocity=95 time=0
EXTRACT: note_on channel=0 note=43 velocity=95 time=0
EXTRACT: note_off channel=0 note=67 velocity=95 time=0.19480499999999998
EXTRACT: note_off channel=0 note=62 velocity=95 time=0
EXTRACT: note_off channel=0 note=58 velocity=95 time=0
EXTRACT: note_off channel=0 note=55 velocity=95 time=0
EXTRACT: note_off channel=0 note=50 velocity=95 time=0
EXTRACT: note_off channel=0 note=43 velocity=95 time=0
EXTRACT: note_on channel=0 note=67 velocity=95 time=0
EXTRACT: note_on channel=0 note=62 velocity=95 time=0
EXTRACT: note_on channel=0 note=58 velocity=95 time=0
EXTRACT: note_on channel=0 note=55 velocity=95 time=0
EXTRACT: note_on channel=0 note=50 velocity=95 time=0
EXTRACT: note_on channel=0 note=43 velocity=95 time=0
EXTRACT: note_off channel=2 note=43 velocity=95 time=0
EXTRACT: note_on channel=2 note=39 velocity=95 time=0
EXTRACT: note_off channel=4 note=58 velocity=95 time=0
EXTRACT: note_on channel=4 note=55 velocity=95 time=0
EXTRACT: note_off channel=9 note=38 velocity=95 time=0
EXTRACT: note_off channel=9 note=54 velocity=95 time=0
EXTRACT: note_off channel=9 note=44 velocity=95 time=0
EXTRACT: note_on channel=9 note=44 velocity=95 time=0
EXTRACT: note_off channel=0 note=67 velocity=95 time=0.19480499999999998
EXTRACT: note_off channel=0 note=62 velocity=95 time=0
EXTRACT: note_off channel=0 note=58 velocity=95 time=0
EXTRACT: note_off channel=0 note=55 velocity=95 time=0
EXTRACT: note_off channel=0 note=50 velocity=95 time=0
EXTRACT: note_off channel=0 note=43 velocity=95 time=0
EXTRACT: note_on channel=0 note=67 velocity=95 time=0
EXTRACT: note_on channel=0 note=62 velocity=95 time=0
EXTRACT: note_on channel=0 note=58 velocity=95 time=0
EXTRACT: note_on channel=0 note=55 velocity=95 time=0
EXTRACT: note_on channel=0 note=50 velocity=95 time=0
EXTRACT: note_on channel=0 note=43 velocity=95 time=0
EXTRACT: note_off channel=2 note=39 velocity=95 time=0
EXTRACT: note_on channel=2 note=41 velocity=95 time=0
EXTRACT: note_off channel=4 note=55 velocity=95 time=0
EXTRACT: note_on channel=4 note=56 velocity=95 time=0
EXTRACT: note_off channel=9 note=44 velocity=95 time=0
EXTRACT: note_off channel=0 note=67 velocity=95 time=0.19480499999999998
EXTRACT: note_off channel=0 note=62 velocity=95 time=0
EXTRACT: note_off channel=0 note=58 velocity=95 time=0
EXTRACT: note_off channel=0 note=55 velocity=95 time=0
EXTRACT: note_off channel=0 note=50 velocity=95 time=0
EXTRACT: note_off channel=0 note=43 velocity=95 time=0
EXTRACT: note_on channel=0 note=65 velocity=95 time=0
EXTRACT: note_on channel=0 note=60 velocity=95 time=0
EXTRACT: note_on channel=0 note=56 velocity=95 time=0
EXTRACT: note_on channel=0 note=53 velocity=95 time=0
EXTRACT: note_on channel=0 note=48 velocity=95 time=0
EXTRACT: note_on channel=0 note=41 velocity=95 time=0
EXTRACT: note_off channel=2 note=41 velocity=95 time=0
EXTRACT: note_on channel=2 note=29 velocity=95 time=0
EXTRACT: note_on channel=9 note=36 velocity=95 time=0
EXTRACT: note_on channel=9 note=44 velocity=95 time=0
EXTRACT: note_off channel=0 note=65 velocity=95 time=0.38960999999999996
EXTRACT: note_off channel=0 note=60 velocity=95 time=0
EXTRACT: note_off channel=0 note=56 velocity=95 time=0
EXTRACT: note_off channel=0 note=53 velocity=95 time=0
EXTRACT: note_off channel=0 note=48 velocity=95 time=0
EXTRACT: note_off channel=0 note=41 velocity=95 time=0
EXTRACT: note_on channel=0 note=65 velocity=95 time=0
EXTRACT: note_on channel=0 note=60 velocity=95 time=0
EXTRACT: note_on channel=0 note=56 velocity=95 time=0
EXTRACT: note_on channel=0 note=53 velocity=95 time=0
EXTRACT: note_on channel=0 note=48 velocity=95 time=0
EXTRACT: note_on channel=0 note=41 velocity=95 time=0
EXTRACT: note_off channel=2 note=29 velocity=95 time=0
EXTRACT: note_on channel=2 note=29 velocity=95 time=0
EXTRACT: note_off channel=4 note=56 velocity=95 time=0
EXTRACT: note_on channel=4 note=60 velocity=95 time=0
EXTRACT: note_off channel=9 note=36 velocity=95 time=0
EXTRACT: note_off channel=9 note=44 velocity=95 time=0
EXTRACT: note_on channel=9 note=44 velocity=95 time=0
EXTRACT: note_off channel=0 note=65 velocity=95 time=0.19480499999999998
EXTRACT: note_off channel=0 note=60 velocity=95 time=0
EXTRACT: note_off channel=0 note=56 velocity=95 time=0
EXTRACT: note_off channel=0 note=53 velocity=95 time=0
EXTRACT: note_off channel=0 note=48 velocity=95 time=0
EXTRACT: note_off channel=0 note=41 velocity=95 time=0
EXTRACT: note_on channel=0 note=65 velocity=95 time=0
EXTRACT: note_on channel=0 note=60 velocity=95 time=0
EXTRACT: note_on channel=0 note=56 velocity=95 time=0
EXTRACT: note_on channel=0 note=53 velocity=95 time=0
EXTRACT: note_on channel=0 note=48 velocity=95 time=0
EXTRACT: note_on channel=0 note=41 velocity=95 time=0
EXTRACT: note_off channel=4 note=60 velocity=95 time=0
EXTRACT: note_on channel=4 note=63 velocity=95 time=0
EXTRACT: note_off channel=9 note=44 velocity=95 time=0
EXTRACT: note_on channel=9 note=36 velocity=95 time=0
EXTRACT: note_off channel=0 note=65 velocity=95 time=0.19480499999999998
EXTRACT: note_off channel=0 note=60 velocity=95 time=0
EXTRACT: note_off channel=0 note=56 velocity=95 time=0
EXTRACT: note_off channel=0 note=53 velocity=95 time=0
EXTRACT: note_off channel=0 note=48 velocity=95 time=0
EXTRACT: note_off channel=0 note=41 velocity=95 time=0
EXTRACT: note_on channel=0 note=65 velocity=95 time=0
EXTRACT: note_on channel=0 note=60 velocity=95 time=0
EXTRACT: note_on channel=0 note=56 velocity=95 time=0
EXTRACT: note_on channel=0 note=53 velocity=95 time=0
EXTRACT: note_on channel=0 note=48 velocity=95 time=0
EXTRACT: note_on channel=0 note=41 velocity=95 time=0
EXTRACT: note_off channel=9 note=36 velocity=95 time=0
EXTRACT: note_on channel=9 note=38 velocity=95 time=0
EXTRACT: note_on channel=9 note=54 velocity=95 time=0
EXTRACT: note_on channel=9 note=44 velocity=95 time=0
EXTRACT: note_off channel=0 note=65 velocity=95 time=0.19480499999999998
EXTRACT: note_off channel=0 note=60 velocity=95 time=0
EXTRACT: note_off channel=0 note=56 velocity=95 time=0
EXTRACT: note_off channel=0 note=53 velocity=95 time=0
EXTRACT: note_off channel=0 note=48 velocity=95 time=0
EXTRACT: note_off channel=0 note=41 velocity=95 time=0
EXTRACT: note_on channel=0 note=65 velocity=95 time=0
EXTRACT: note_on channel=0 note=60 velocity=95 time=0
EXTRACT: note_on channel=0 note=56 velocity=95 time=0
EXTRACT: note_on channel=0 note=53 velocity=95 time=0
EXTRACT: note_on channel=0 note=48 velocity=95 time=0
EXTRACT: note_on channel=0 note=41 velocity=95 time=0
EXTRACT: note_off channel=2 note=29 velocity=95 time=0
EXTRACT: note_on channel=2 note=31 velocity=95 time=0
EXTRACT: note_off channel=4 note=63 velocity=95 time=0
EXTRACT: note_on channel=4 note=65 velocity=95 time=0
EXTRACT: note_off channel=0 note=65 velocity=95 time=0.19480499999999998
EXTRACT: note_off channel=0 note=60 velocity=95 time=0
EXTRACT: note_off channel=0 note=56 velocity=95 time=0
EXTRACT: note_off channel=0 note=53 velocity=95 time=0
EXTRACT: note_off channel=0 note=48 velocity=95 time=0
EXTRACT: note_off channel=0 note=41 velocity=95 time=0
EXTRACT: note_on channel=0 note=65 velocity=95 time=0
EXTRACT: note_on channel=0 note=60 velocity=95 time=0
EXTRACT: note_on channel=0 note=56 velocity=95 time=0
EXTRACT: note_on channel=0 note=53 velocity=95 time=0
EXTRACT: note_on channel=0 note=48 velocity=95 time=0
EXTRACT: note_on channel=0 note=41 velocity=95 time=0
EXTRACT: note_off channel=2 note=31 velocity=95 time=0
EXTRACT: note_on channel=2 note=32 velocity=95 time=0
EXTRACT: note_off channel=4 note=65 velocity=95 time=0
EXTRACT: note_on channel=4 note=67 velocity=95 time=0
EXTRACT: note_off channel=9 note=38 velocity=95 time=0
EXTRACT: note_off channel=9 note=54 velocity=95 time=0
EXTRACT: note_off channel=9 note=44 velocity=95 time=0
EXTRACT: note_on channel=9 note=44 velocity=95 time=0
EXTRACT: note_off channel=0 note=65 velocity=95 time=0.19480499999999998
EXTRACT: note_off channel=0 note=60 velocity=95 time=0
EXTRACT: note_off channel=0 note=56 velocity=95 time=0
EXTRACT: note_off channel=0 note=53 velocity=95 time=0
EXTRACT: note_off channel=0 note=48 velocity=95 time=0
EXTRACT: note_off channel=0 note=41 velocity=95 time=0
EXTRACT: note_on channel=0 note=65 velocity=95 time=0
EXTRACT: note_on channel=0 note=62 velocity=95 time=0
EXTRACT: note_on channel=0 note=58 velocity=95 time=0
EXTRACT: note_on channel=0 note=53 velocity=95 time=0
EXTRACT: note_on channel=0 note=46 velocity=95 time=0
EXTRACT: note_off channel=2 note=32 velocity=95 time=0
EXTRACT: note_on channel=2 note=34 velocity=95 time=0
EXTRACT: note_off channel=4 note=67 velocity=95 time=0
EXTRACT: note_on channel=4 note=65 velocity=95 time=0
EXTRACT: note_off channel=9 note=44 velocity=95 time=0
EXTRACT: note_on channel=9 note=36 velocity=95 time=0
EXTRACT: note_off channel=2 note=34 velocity=95 time=0.19480499999999998
EXTRACT: note_off channel=9 note=36 velocity=95 time=0
EXTRACT: note_on channel=9 note=36 velocity=95 time=0
EXTRACT: note_on channel=9 note=44 velocity=95 time=0
EXTRACT: note_off channel=0 note=65 velocity=95 time=0.19480499999999998
EXTRACT: note_off channel=0 note=62 velocity=95 time=0
EXTRACT: note_off channel=0 note=58 velocity=95 time=0
EXTRACT: note_off channel=0 note=53 velocity=95 time=0
EXTRACT: note_off channel=0 note=46 velocity=95 time=0
EXTRACT: note_on channel=0 note=65 velocity=95 time=0
EXTRACT: note_on channel=0 note=62 velocity=95 time=0
EXTRACT: note_on channel=0 note=58 velocity=95 time=0
EXTRACT: note_on channel=0 note=53 velocity=95 time=0
EXTRACT: note_on channel=0 note=46 velocity=95 time=0
EXTRACT: note_on channel=2 note=34 velocity=95 time=0
EXTRACT: note_off channel=0 note=65 velocity=95 time=0.19480499999999998
EXTRACT: note_off channel=0 note=62 velocity=95 time=0
EXTRACT: note_off channel=0 note=58 velocity=95 time=0
EXTRACT: note_off channel=0 note=53 velocity=95 time=0
EXTRACT: note_off channel=0 note=46 velocity=95 time=0
EXTRACT: note_on channel=0 note=65 velocity=95 time=0
EXTRACT: note_on channel=0 note=62 velocity=95 time=0
EXTRACT: note_on channel=0 note=58 velocity=95 time=0
EXTRACT: note_on channel=0 note=53 velocity=95 time=0
EXTRACT: note_on channel=0 note=46 velocity=95 time=0
EXTRACT: note_off channel=2 note=34 velocity=95 time=0
EXTRACT: note_on channel=2 note=34 velocity=95 time=0
EXTRACT: note_off channel=4 note=65 velocity=95 time=0
EXTRACT: note_on channel=4 note=67 velocity=95 time=0
EXTRACT: note_off channel=9 note=36 velocity=95 time=0
EXTRACT: note_off channel=9 note=44 velocity=95 time=0
EXTRACT: note_on channel=9 note=44 velocity=95 time=0
EXTRACT: note_off channel=0 note=65 velocity=95 time=0.19480499999999998
EXTRACT: note_off channel=0 note=62 velocity=95 time=0
EXTRACT: note_off channel=0 note=58 velocity=95 time=0
EXTRACT: note_off channel=0 note=53 velocity=95 time=0
EXTRACT: note_off channel=0 note=46 velocity=95 time=0
EXTRACT: note_on channel=0 note=65 velocity=95 time=0
EXTRACT: note_on channel=0 note=62 velocity=95 time=0
EXTRACT: note_on channel=0 note=58 velocity=95 time=0
EXTRACT: note_on channel=0 note=53 velocity=95 time=0
EXTRACT: note_on channel=0 note=46 velocity=95 time=0
EXTRACT: note_off channel=9 note=44 velocity=95 time=0
EXTRACT: note_on channel=9 note=36 velocity=95 time=0
EXTRACT: note_off channel=0 note=65 velocity=95 time=0.19480499999999998
EXTRACT: note_off channel=0 note=62 velocity=95 time=0
EXTRACT: note_off channel=0 note=58 velocity=95 time=0
EXTRACT: note_off channel=0 note=53 velocity=95 time=0
EXTRACT: note_off channel=0 note=46 velocity=95 time=0
EXTRACT: note_on channel=0 note=65 velocity=95 time=0
EXTRACT: note_on channel=0 note=62 velocity=95 time=0
EXTRACT: note_on channel=0 note=58 velocity=95 time=0
EXTRACT: note_on channel=0 note=53 velocity=95 time=0
EXTRACT: note_on channel=0 note=46 velocity=95 time=0
EXTRACT: note_off channel=9 note=36 velocity=95 time=0
EXTRACT: note_on channel=9 note=38 velocity=95 time=0
EXTRACT: note_on channel=9 note=54 velocity=95 time=0
EXTRACT: note_on channel=9 note=44 velocity=95 time=0
EXTRACT: note_off channel=0 note=65 velocity=95 time=0.19480499999999998
EXTRACT: note_off channel=0 note=62 velocity=95 time=0
EXTRACT: note_off channel=0 note=58 velocity=95 time=0
EXTRACT: note_off channel=0 note=53 velocity=95 time=0
EXTRACT: note_off channel=0 note=46 velocity=95 time=0
EXTRACT: note_on channel=0 note=65 velocity=95 time=0
EXTRACT: note_on channel=0 note=62 velocity=95 time=0
EXTRACT: note_on channel=0 note=58 velocity=95 time=0
EXTRACT: note_on channel=0 note=53 velocity=95 time=0
EXTRACT: note_on channel=0 note=46 velocity=95 time=0
EXTRACT: note_off channel=0 note=65 velocity=95 time=0.19480499999999998
EXTRACT: note_off channel=0 note=62 velocity=95 time=0
EXTRACT: note_off channel=0 note=58 velocity=95 time=0
EXTRACT: note_off channel=0 note=53 velocity=95 time=0
EXTRACT: note_off channel=0 note=46 velocity=95 time=0
EXTRACT: note_on channel=0 note=65 velocity=95 time=0
EXTRACT: note_on channel=0 note=62 velocity=95 time=0
EXTRACT: note_on channel=0 note=58 velocity=95 time=0
EXTRACT: note_on channel=0 note=53 velocity=95 time=0
EXTRACT: note_on channel=0 note=46 velocity=95 time=0
EXTRACT: note_off channel=2 note=34 velocity=95 time=0
EXTRACT: note_on channel=2 note=34 velocity=95 time=0
EXTRACT: note_off channel=9 note=38 velocity=95 time=0
EXTRACT: note_off channel=9 note=54 velocity=95 time=0
EXTRACT: note_off channel=9 note=44 velocity=95 time=0
EXTRACT: note_on channel=9 note=44 velocity=95 time=0
EXTRACT: note_off channel=0 note=65 velocity=95 time=0.19480499999999998
EXTRACT: note_off channel=0 note=62 velocity=95 time=0
EXTRACT: note_off channel=0 note=58 velocity=95 time=0
EXTRACT: note_off channel=0 note=53 velocity=95 time=0
EXTRACT: note_off channel=0 note=46 velocity=95 time=0
EXTRACT: note_on channel=0 note=65 velocity=95 time=0
EXTRACT: note_on channel=0 note=62 velocity=95 time=0
EXTRACT: note_on channel=0 note=58 velocity=95 time=0
EXTRACT: note_on channel=0 note=53 velocity=95 time=0
EXTRACT: note_on channel=0 note=46 velocity=95 time=0
EXTRACT: note_off channel=2 note=34 velocity=95 time=0
EXTRACT: note_on channel=2 note=35 velocity=95 time=0
EXTRACT: note_off channel=9 note=44 velocity=95 time=0
EXTRACT: note_off channel=0 note=65 velocity=95 time=0.19480499999999998
EXTRACT: note_off channel=0 note=62 velocity=95 time=0
EXTRACT: note_off channel=0 note=58 velocity=95 time=0
EXTRACT: note_off channel=0 note=53 velocity=95 time=0
EXTRACT: note_off channel=0 note=46 velocity=95 time=0
EXTRACT: note_on channel=0 note=67 velocity=95 time=0
EXTRACT: note_on channel=0 note=63 velocity=95 time=0
EXTRACT: note_on channel=0 note=60 velocity=95 time=0
EXTRACT: note_on channel=0 note=55 velocity=95 time=0
EXTRACT: note_on channel=0 note=48 velocity=95 time=0
EXTRACT: note_off channel=2 note=35 velocity=95 time=0
EXTRACT: note_on channel=2 note=36 velocity=95 time=0
EXTRACT: note_off channel=4 note=67 velocity=95 time=0
EXTRACT: note_on channel=9 note=36 velocity=95 time=0
EXTRACT: note_on channel=9 note=44 velocity=95 time=0
EXTRACT: note_off channel=0 note=67 velocity=95 time=0.38960999999999996
EXTRACT: note_off channel=0 note=63 velocity=95 time=0
EXTRACT: note_off channel=0 note=60 velocity=95 time=0
EXTRACT: note_off channel=0 note=55 velocity=95 time=0
EXTRACT: note_off channel=0 note=48 velocity=95 time=0
EXTRACT: note_on channel=0 note=67 velocity=95 time=0
EXTRACT: note_on channel=0 note=63 velocity=95 time=0
EXTRACT: note_on channel=0 note=60 velocity=95 time=0
EXTRACT: note_on channel=0 note=55 velocity=95 time=0
EXTRACT: note_on channel=0 note=48 velocity=95 time=0
EXTRACT: note_off channel=2 note=36 velocity=95 time=0
EXTRACT: note_on channel=2 note=36 velocity=95 time=0
EXTRACT: note_off channel=9 note=36 velocity=95 time=0
EXTRACT: note_off channel=9 note=44 velocity=95 time=0
EXTRACT: note_on channel=9 note=44 velocity=95 time=0
EXTRACT: note_on channel=4 note=60 velocity=95 time=0.19480499999999998
EXTRACT: note_off channel=9 note=44 velocity=95 time=0
EXTRACT: note_on channel=9 note=36 velocity=95 time=0
EXTRACT: note_off channel=0 note=67 velocity=95 time=0.19480499999999998
EXTRACT: note_off channel=0 note=63 velocity=95 time=0
EXTRACT: note_off channel=0 note=60 velocity=95 time=0
EXTRACT: note_off channel=0 note=55 velocity=95 time=0
EXTRACT: note_off channel=0 note=48 velocity=95 time=0
EXTRACT: note_on channel=0 note=67 velocity=95 time=0
EXTRACT: note_on channel=0 note=63 velocity=95 time=0
EXTRACT: note_on channel=0 note=60 velocity=95 time=0
EXTRACT: note_on channel=0 note=55 velocity=95 time=0
EXTRACT: note_on channel=0 note=48 velocity=95 time=0
EXTRACT: note_off channel=2 note=36 velocity=95 time=0
EXTRACT: note_on channel=2 note=33 velocity=95 time=0
EXTRACT: note_off channel=4 note=60 velocity=95 time=0
EXTRACT: note_on channel=4 note=63 velocity=95 time=0
EXTRACT: note_off channel=9 note=36 velocity=95 time=0
EXTRACT: note_on channel=9 note=38 velocity=95 time=0
EXTRACT: note_on channel=9 note=54 velocity=95 time=0
EXTRACT: note_on channel=9 note=44 velocity=95 time=0
EXTRACT: note_off channel=2 note=33 velocity=95 time=0.030844124999999997
EXTRACT: note_off channel=0 note=67 velocity=95 time=0.16396087499999998
EXTRACT: note_off channel=0 note=63 velocity=95 time=0
EXTRACT: note_off channel=0 note=60 velocity=95 time=0
EXTRACT: note_off channel=0 note=55 velocity=95 time=0
EXTRACT: note_off channel=0 note=48 velocity=95 time=0
EXTRACT: note_on channel=0 note=67 velocity=95 time=0
EXTRACT: note_on channel=0 note=63 velocity=95 time=0
EXTRACT: note_on channel=0 note=60 velocity=95 time=0
EXTRACT: note_on channel=0 note=55 velocity=95 time=0
EXTRACT: note_on channel=0 note=48 velocity=95 time=0
EXTRACT: note_on channel=2 note=38 velocity=95 time=0
EXTRACT: note_off channel=4 note=63 velocity=95 time=0
EXTRACT: note_on channel=4 note=65 velocity=95 time=0
EXTRACT: note_off channel=0 note=67 velocity=95 time=0.19480499999999998
EXTRACT: note_off channel=0 note=63 velocity=95 time=0
EXTRACT: note_off channel=0 note=60 velocity=95 time=0
EXTRACT: note_off channel=0 note=55 velocity=95 time=0
EXTRACT: note_off channel=0 note=48 velocity=95 time=0
EXTRACT: note_on channel=0 note=67 velocity=95 time=0
EXTRACT: note_on channel=0 note=63 velocity=95 time=0
EXTRACT: note_on channel=0 note=60 velocity=95 time=0
EXTRACT: note_on channel=0 note=55 velocity=95 time=0
EXTRACT: note_on channel=0 note=48 velocity=95 time=0
EXTRACT: note_off channel=2 note=38 velocity=95 time=0
EXTRACT: note_on channel=2 note=39 velocity=95 time=0
EXTRACT: note_off channel=4 note=65 velocity=95 time=0
EXTRACT: note_on channel=4 note=67 velocity=95 time=0
EXTRACT: note_off channel=9 note=38 velocity=95 time=0
EXTRACT: note_off channel=9 note=54 velocity=95 time=0
EXTRACT: note_off channel=9 note=44 velocity=95 time=0
EXTRACT: note_on channel=9 note=44 velocity=95 time=0
EXTRACT: note_off channel=0 note=67 velocity=95 time=0.19480499999999998
EXTRACT: note_off channel=0 note=63 velocity=95 time=0
EXTRACT: note_off channel=0 note=60 velocity=95 time=0
EXTRACT: note_off channel=0 note=55 velocity=95 time=0
EXTRACT: note_off channel=0 note=48 velocity=95 time=0
EXTRACT: note_on channel=0 note=67 velocity=95 time=0
EXTRACT: note_on channel=0 note=62 velocity=95 time=0
EXTRACT: note_on channel=0 note=58 velocity=95 time=0
EXTRACT: note_on channel=0 note=55 velocity=95 time=0
EXTRACT: note_on channel=0 note=50 velocity=95 time=0
EXTRACT: note_on channel=0 note=43 velocity=95 time=0
EXTRACT: note_off channel=2 note=39 velocity=95 time=0
EXTRACT: note_on channel=2 note=43 velocity=95 time=0
EXTRACT: note_off channel=4 note=67 velocity=95 time=0
EXTRACT: note_on channel=4 note=65 velocity=95 time=0
EXTRACT: note_off channel=9 note=44 velocity=95 time=0
EXTRACT: note_on channel=9 note=36 velocity=95 time=0
EXTRACT: note_off channel=9 note=36 velocity=95 time=0.19480499999999998
EXTRACT: note_on channel=9 note=36 velocity=95 time=0
EXTRACT: note_on channel=9 note=44 velocity=95 time=0
EXTRACT: note_off channel=0 note=67 velocity=95 time=0.19480499999999998
EXTRACT: note_off channel=0 note=62 velocity=95 time=0
EXTRACT: note_off channel=0 note=58 velocity=95 time=0
EXTRACT: note_off channel=0 note=55 velocity=95 time=0
EXTRACT: note_off channel=0 note=50 velocity=95 time=0
EXTRACT: note_off channel=0 note=43 velocity=95 time=0
EXTRACT: note_on channel=0 note=67 velocity=95 time=0
EXTRACT: note_on channel=0 note=62 velocity=95 time=0
EXTRACT: note_on channel=0 note=58 velocity=95 time=0
EXTRACT: note_on channel=0 note=55 velocity=95 time=0
EXTRACT: note_on channel=0 note=50 velocity=95 time=0
EXTRACT: note_on channel=0 note=43 velocity=95 time=0
EXTRACT: note_off channel=0 note=67 velocity=95 time=0.19480499999999998
EXTRACT: note_off channel=0 note=62 velocity=95 time=0
EXTRACT: note_off channel=0 note=58 velocity=95 time=0
EXTRACT: note_off channel=0 note=55 velocity=95 time=0
EXTRACT: note_off channel=0 note=50 velocity=95 time=0
EXTRACT: note_off channel=0 note=43 velocity=95 time=0
EXTRACT: note_on channel=0 note=67 velocity=95 time=0
EXTRACT: note_on channel=0 note=62 velocity=95 time=0
EXTRACT: note_on channel=0 note=58 velocity=95 time=0
EXTRACT: note_on channel=0 note=55 velocity=95 time=0
EXTRACT: note_on channel=0 note=50 velocity=95 time=0
EXTRACT: note_on channel=0 note=43 velocity=95 time=0
EXTRACT: note_off channel=4 note=65 velocity=95 time=0
EXTRACT: note_on channel=4 note=62 velocity=95 time=0
EXTRACT: note_off channel=9 note=36 velocity=95 time=0
EXTRACT: note_off channel=9 note=44 velocity=95 time=0
EXTRACT: note_on channel=9 note=44 velocity=95 time=0
EXTRACT: note_off channel=0 note=67 velocity=95 time=0.19480499999999998
EXTRACT: note_off channel=0 note=62 velocity=95 time=0
EXTRACT: note_off channel=0 note=58 velocity=95 time=0
EXTRACT: note_off channel=0 note=55 velocity=95 time=0
EXTRACT: note_off channel=0 note=50 velocity=95 time=0
EXTRACT: note_off channel=0 note=43 velocity=95 time=0
EXTRACT: note_on channel=0 note=67 velocity=95 time=0
EXTRACT: note_on channel=0 note=62 velocity=95 time=0
EXTRACT: note_on channel=0 note=58 velocity=95 time=0
EXTRACT: note_on channel=0 note=55 velocity=95 time=0
EXTRACT: note_on channel=0 note=50 velocity=95 time=0
EXTRACT: note_on channel=0 note=43 velocity=95 time=0
EXTRACT: note_off channel=4 note=62 velocity=95 time=0
EXTRACT: note_on channel=4 note=58 velocity=95 time=0
EXTRACT: note_off channel=9 note=44 velocity=95 time=0
EXTRACT: note_on channel=9 note=36 velocity=95 time=0
EXTRACT: note_off channel=0 note=67 velocity=95 time=0.19480499999999998
EXTRACT: note_off channel=0 note=62 velocity=95 time=0
EXTRACT: note_off channel=0 note=58 velocity=95 time=0
EXTRACT: note_off channel=0 note=55 velocity=95 time=0
EXTRACT: note_off channel=0 note=50 velocity=95 time=0
EXTRACT: note_off channel=0 note=43 velocity=95 time=0
EXTRACT: note_on channel=0 note=67 velocity=95 time=0
EXTRACT: note_on channel=0 note=62 velocity=95 time=0
EXTRACT: note_on channel=0 note=58 velocity=95 time=0
EXTRACT: note_on channel=0 note=55 velocity=95 time=0
EXTRACT: note_on channel=0 note=50 velocity=95 time=0
EXTRACT: note_on channel=0 note=43 velocity=95 time=0
EXTRACT: note_off channel=9 note=36 velocity=95 time=0
EXTRACT: note_on channel=9 note=38 velocity=95 time=0
EXTRACT: note_on channel=9 note=54 velocity=95 time=0
EXTRACT: note_on channel=9 note=44 velocity=95 time=0
EXTRACT: note_off channel=0 note=67 velocity=95 time=0.19480499999999998
EXTRACT: note_off channel=0 note=62 velocity=95 time=0
EXTRACT: note_off channel=0 note=58 velocity=95 time=0
EXTRACT: note_off channel=0 note=55 velocity=95 time=0
EXTRACT: note_off channel=0 note=50 velocity=95 time=0
EXTRACT: note_off channel=0 note=43 velocity=95 time=0
EXTRACT: note_on channel=0 note=67 velocity=95 time=0
EXTRACT: note_on channel=0 note=62 velocity=95 time=0
EXTRACT: note_on channel=0 note=58 velocity=95 time=0
EXTRACT: note_on channel=0 note=55 velocity=95 time=0
EXTRACT: note_on channel=0 note=50 velocity=95 time=0
EXTRACT: note_on channel=0 note=43 velocity=95 time=0
EXTRACT: note_off channel=0 note=67 velocity=95 time=0.19480499999999998
EXTRACT: note_off channel=0 note=62 velocity=95 time=0
EXTRACT: note_off channel=0 note=58 velocity=95 time=0
EXTRACT: note_off channel=0 note=55 velocity=95 time=0
EXTRACT: note_off channel=0 note=50 velocity=95 time=0
EXTRACT: note_off channel=0 note=43 velocity=95 time=0
EXTRACT: note_on channel=0 note=67 velocity=95 time=0
EXTRACT: note_on channel=0 note=62 velocity=95 time=0
EXTRACT: note_on channel=0 note=58 velocity=95 time=0
EXTRACT: note_on channel=0 note=55 velocity=95 time=0
EXTRACT: note_on channel=0 note=50 velocity=95 time=0
EXTRACT: note_on channel=0 note=43 velocity=95 time=0
EXTRACT: note_off channel=4 note=58 velocity=95 time=0
EXTRACT: note_on channel=4 note=55 velocity=95 time=0
EXTRACT: note_off channel=9 note=38 velocity=95 time=0
EXTRACT: note_off channel=9 note=54 velocity=95 time=0
EXTRACT: note_off channel=9 note=44 velocity=95 time=0
EXTRACT: note_on channel=9 note=44 velocity=95 time=0
EXTRACT: note_off channel=0 note=67 velocity=95 time=0.19480499999999998
EXTRACT: note_off channel=0 note=62 velocity=95 time=0
EXTRACT: note_off channel=0 note=58 velocity=95 time=0
EXTRACT: note_off channel=0 note=55 velocity=95 time=0
EXTRACT: note_off channel=0 note=50 velocity=95 time=0
EXTRACT: note_off channel=0 note=43 velocity=95 time=0
EXTRACT: note_on channel=0 note=67 velocity=95 time=0
EXTRACT: note_on channel=0 note=62 velocity=95 time=0
EXTRACT: note_on channel=0 note=58 velocity=95 time=0
EXTRACT: note_on channel=0 note=55 velocity=95 time=0
EXTRACT: note_on channel=0 note=50 velocity=95 time=0
EXTRACT: note_on channel=0 note=43 velocity=95 time=0
EXTRACT: note_off channel=4 note=55 velocity=95 time=0
EXTRACT: note_on channel=4 note=56 velocity=95 time=0
EXTRACT: note_off channel=9 note=44 velocity=95 time=0
EXTRACT: note_off channel=0 note=67 velocity=95 time=0.19480499999999998
EXTRACT: note_off channel=0 note=62 velocity=95 time=0
EXTRACT: note_off channel=0 note=58 velocity=95 time=0
EXTRACT: note_off channel=0 note=55 velocity=95 time=0
EXTRACT: note_off channel=0 note=50 velocity=95 time=0
EXTRACT: note_off channel=0 note=43 velocity=95 time=0
EXTRACT: note_on channel=0 note=65 velocity=95 time=0
EXTRACT: note_on channel=0 note=60 velocity=95 time=0
EXTRACT: note_on channel=0 note=56 velocity=95 time=0
EXTRACT: note_on channel=0 note=53 velocity=95 time=0
EXTRACT: note_on channel=0 note=48 velocity=95 time=0
EXTRACT: note_on channel=0 note=41 velocity=95 time=0
EXTRACT: note_off channel=2 note=43 velocity=95 time=0
EXTRACT: note_on channel=2 note=29 velocity=95 time=0
EXTRACT: note_on channel=9 note=36 velocity=95 time=0
EXTRACT: note_on channel=9 note=44 velocity=95 time=0
EXTRACT: note_off channel=0 note=65 velocity=95 time=0.38960999999999996
EXTRACT: note_off channel=0 note=60 velocity=95 time=0
EXTRACT: note_off channel=0 note=56 velocity=95 time=0
EXTRACT: note_off channel=0 note=53 velocity=95 time=0
EXTRACT: note_off channel=0 note=48 velocity=95 time=0
EXTRACT: note_off channel=0 note=41 velocity=95 time=0
EXTRACT: note_on channel=0 note=65 velocity=95 time=0
EXTRACT: note_on channel=0 note=60 velocity=95 time=0
EXTRACT: note_on channel=0 note=56 velocity=95 time=0
EXTRACT: note_on channel=0 note=53 velocity=95 time=0
EXTRACT: note_on channel=0 note=48 velocity=95 time=0
EXTRACT: note_on channel=0 note=41 velocity=95 time=0
EXTRACT: note_off channel=2 note=29 velocity=95 time=0
EXTRACT: note_on channel=2 note=29 velocity=95 time=0
EXTRACT: note_off channel=4 note=56 velocity=95 time=0
EXTRACT: note_on channel=4 note=50 velocity=95 time=0
EXTRACT: note_off channel=9 note=36 velocity=95 time=0
EXTRACT: note_off channel=9 note=44 velocity=95 time=0
EXTRACT: note_on channel=9 note=44 velocity=95 time=0
EXTRACT: note_off channel=4 note=50 velocity=95 time=0.030844124999999997
EXTRACT: note_off channel=0 note=65 velocity=95 time=0.16396087499999998
EXTRACT: note_off channel=0 note=60 velocity=95 time=0
EXTRACT: note_off channel=0 note=56 velocity=95 time=0
EXTRACT: note_off channel=0 note=53 velocity=95 time=0
EXTRACT: note_off channel=0 note=48 velocity=95 time=0
EXTRACT: note_off channel=0 note=41 velocity=95 time=0
EXTRACT: note_on channel=0 note=65 velocity=95 time=0
EXTRACT: note_on channel=0 note=60 velocity=95 time=0
EXTRACT: note_on channel=0 note=56 velocity=95 time=0
EXTRACT: note_on channel=0 note=53 velocity=95 time=0
EXTRACT: note_on channel=0 note=48 velocity=95 time=0
EXTRACT: note_on channel=0 note=41 velocity=95 time=0
EXTRACT: note_on channel=4 note=60 velocity=95 time=0
EXTRACT: note_off channel=9 note=44 velocity=95 time=0
EXTRACT: note_on channel=9 note=36 velocity=95 time=0
EXTRACT: note_off channel=4 note=60 velocity=95 time=0.09740249999999999
EXTRACT: note_on channel=4 note=63 velocity=95 time=0
EXTRACT: note_off channel=0 note=65 velocity=95 time=0.09740249999999999
EXTRACT: note_off channel=0 note=60 velocity=95 time=0
EXTRACT: note_off channel=0 note=56 velocity=95 time=0
EXTRACT: note_off channel=0 note=53 velocity=95 time=0
EXTRACT: note_off channel=0 note=48 velocity=95 time=0
EXTRACT: note_off channel=0 note=41 velocity=95 time=0
EXTRACT: note_on channel=0 note=65 velocity=95 time=0
EXTRACT: note_on channel=0 note=60 velocity=95 time=0
EXTRACT: note_on channel=0 note=56 velocity=95 time=0
EXTRACT: note_on channel=0 note=53 velocity=95 time=0
EXTRACT: note_on channel=0 note=48 velocity=95 time=0
EXTRACT: note_on channel=0 note=41 velocity=95 time=0
EXTRACT: note_off channel=2 note=29 velocity=95 time=0
EXTRACT: note_off channel=4 note=63 velocity=95 time=0
EXTRACT: note_on channel=4 note=67 velocity=95 time=0
EXTRACT: note_off channel=9 note=36 velocity=95 time=0
EXTRACT: note_on channel=9 note=38 velocity=95 time=0
EXTRACT: note_on channel=9 note=54 velocity=95 time=0
EXTRACT: note_on channel=9 note=44 velocity=95 time=0
EXTRACT: note_off channel=0 note=65 velocity=95 time=0.19480499999999998
EXTRACT: note_off channel=0 note=60 velocity=95 time=0
EXTRACT: note_off channel=0 note=56 velocity=95 time=0
EXTRACT: note_off channel=0 note=53 velocity=95 time=0
EXTRACT: note_off channel=0 note=48 velocity=95 time=0
EXTRACT: note_off channel=0 note=41 velocity=95 time=0
EXTRACT: note_on channel=0 note=65 velocity=95 time=0
EXTRACT: note_on channel=0 note=60 velocity=95 time=0
EXTRACT: note_on channel=0 note=56 velocity=95 time=0
EXTRACT: note_on channel=0 note=53 velocity=95 time=0
EXTRACT: note_on channel=0 note=48 velocity=95 time=0
EXTRACT: note_on channel=0 note=41 velocity=95 time=0
EXTRACT: note_on channel=2 note=33 velocity=95 time=0
EXTRACT: note_off channel=4 note=67 velocity=95 time=0
EXTRACT: note_on channel=4 note=68 velocity=95 time=0
EXTRACT: note_off channel=0 note=65 velocity=95 time=0.19480499999999998
EXTRACT: note_off channel=0 note=60 velocity=95 time=0
EXTRACT: note_off channel=0 note=56 velocity=95 time=0
EXTRACT: note_off channel=0 note=53 velocity=95 time=0
EXTRACT: note_off channel=0 note=48 velocity=95 time=0
EXTRACT: note_off channel=0 note=41 velocity=95 time=0
EXTRACT: note_on channel=0 note=65 velocity=95 time=0
EXTRACT: note_on channel=0 note=60 velocity=95 time=0
EXTRACT: note_on channel=0 note=56 velocity=95 time=0
EXTRACT: note_on channel=0 note=53 velocity=95 time=0
EXTRACT: note_on channel=0 note=48 velocity=95 time=0
EXTRACT: note_on channel=0 note=41 velocity=95 time=0
EXTRACT: note_off channel=2 note=33 velocity=95 time=0
EXTRACT: note_off channel=4 note=68 velocity=95 time=0
EXTRACT: note_on channel=4 note=67 velocity=95 time=0
EXTRACT: note_off channel=9 note=38 velocity=95 time=0
EXTRACT: note_off channel=9 note=54 velocity=95 time=0
EXTRACT: note_off channel=9 note=44 velocity=95 time=0
EXTRACT: note_on channel=9 note=44 velocity=95 time=0
EXTRACT: note_off channel=0 note=65 velocity=95 time=0.19480499999999998
EXTRACT: note_off channel=0 note=60 velocity=95 time=0
EXTRACT: note_off channel=0 note=56 velocity=95 time=0
EXTRACT: note_off channel=0 note=53 velocity=95 time=0
EXTRACT: note_off channel=0 note=48 velocity=95 time=0
EXTRACT: note_off channel=0 note=41 velocity=95 time=0
EXTRACT: note_on channel=0 note=65 velocity=95 time=0
EXTRACT: note_on channel=0 note=62 velocity=95 time=0
EXTRACT: note_on channel=0 note=58 velocity=95 time=0
EXTRACT: note_on channel=0 note=53 velocity=95 time=0
EXTRACT: note_on channel=0 note=46 velocity=95 time=0
EXTRACT: note_on channel=2 note=34 velocity=95 time=0
EXTRACT: note_off channel=4 note=67 velocity=95 time=0
EXTRACT: note_on channel=4 note=68 velocity=95 time=0
EXTRACT: note_off channel=9 note=44 velocity=95 time=0
EXTRACT: note_on channel=9 note=36 velocity=95 time=0
EXTRACT: note_off channel=4 note=68 velocity=95 time=0.19480499999999998
EXTRACT: note_on channel=4 note=70 velocity=95 time=0
EXTRACT: note_off channel=9 note=36 velocity=95 time=0
EXTRACT: note_on channel=9 note=36 velocity=95 time=0
EXTRACT: note_on channel=9 note=44 velocity=95 time=0
EXTRACT: note_off channel=0 note=65 velocity=95 time=0.19480499999999998
EXTRACT: note_off channel=0 note=62 velocity=95 time=0
EXTRACT: note_off channel=0 note=58 velocity=95 time=0
EXTRACT: note_off channel=0 note=53 velocity=95 time=0
EXTRACT: note_off channel=0 note=46 velocity=95 time=0
EXTRACT: note_on channel=0 note=65 velocity=95 time=0
EXTRACT: note_on channel=0 note=62 velocity=95 time=0
EXTRACT: note_on channel=0 note=58 velocity=95 time=0
EXTRACT: note_on channel=0 note=53 velocity=95 time=0
EXTRACT: note_on channel=0 note=46 velocity=95 time=0
EXTRACT: note_off channel=2 note=34 velocity=95 time=0
EXTRACT: note_on channel=2 note=34 velocity=95 time=0
EXTRACT: note_off channel=0 note=65 velocity=95 time=0.19480499999999998
EXTRACT: note_off channel=0 note=62 velocity=95 time=0
EXTRACT: note_off channel=0 note=58 velocity=95 time=0
EXTRACT: note_off channel=0 note=53 velocity=95 time=0
EXTRACT: note_off channel=0 note=46 velocity=95 time=0
EXTRACT: note_on channel=0 note=65 velocity=95 time=0
EXTRACT: note_on channel=0 note=62 velocity=95 time=0
EXTRACT: note_on channel=0 note=58 velocity=95 time=0
EXTRACT: note_on channel=0 note=53 velocity=95 time=0
EXTRACT: note_on channel=0 note=46 velocity=95 time=0
EXTRACT: note_off channel=2 note=34 velocity=95 time=0
EXTRACT: note_on channel=2 note=34 velocity=95 time=0
EXTRACT: note_off channel=9 note=36 velocity=95 time=0
EXTRACT: note_off channel=9 note=44 velocity=95 time=0
EXTRACT: note_on channel=9 note=44 velocity=95 time=0
EXTRACT: note_off channel=0 note=65 velocity=95 time=0.19480499999999998
EXTRACT: note_off channel=0 note=62 velocity=95 time=0
EXTRACT: note_off channel=0 note=58 velocity=95 time=0
EXTRACT: note_off channel=0 note=53 velocity=95 time=0
EXTRACT: note_off channel=0 note=46 velocity=95 time=0
EXTRACT: note_on channel=0 note=65 velocity=95 time=0
EXTRACT: note_on channel=0 note=62 velocity=95 time=0
EXTRACT: note_on channel=0 note=58 velocity=95 time=0
EXTRACT: note_on channel=0 note=53 velocity=95 time=0
EXTRACT: note_on channel=0 note=46 velocity=95 time=0
EXTRACT: note_off channel=4 note=70 velocity=95 time=0
EXTRACT: note_on channel=4 note=68 velocity=95 time=0
EXTRACT: note_off channel=9 note=44 velocity=95 time=0
EXTRACT: note_on channel=9 note=36 velocity=95 time=0
EXTRACT: note_off channel=4 note=68 velocity=95 time=0.09740249999999999
EXTRACT: note_on channel=4 note=67 velocity=95 time=0
EXTRACT: note_off channel=0 note=65 velocity=95 time=0.09740249999999999
EXTRACT: note_off channel=0 note=62 velocity=95 time=0
EXTRACT: note_off channel=0 note=58 velocity=95 time=0
EXTRACT: note_off channel=0 note=53 velocity=95 time=0
EXTRACT: note_off channel=0 note=46 velocity=95 time=0
EXTRACT: note_on channel=0 note=65 velocity=95 time=0
EXTRACT: note_on channel=0 note=62 velocity=95 time=0
EXTRACT: note_on channel=0 note=58 velocity=95 time=0
EXTRACT: note_on channel=0 note=53 velocity=95 time=0
EXTRACT: note_on channel=0 note=46 velocity=95 time=0
EXTRACT: note_off channel=2 note=34 velocity=95 time=0
EXTRACT: note_on channel=2 note=34 velocity=95 time=0
EXTRACT: note_off channel=4 note=67 velocity=95 time=0
EXTRACT: note_on channel=4 note=65 velocity=95 time=0
EXTRACT: note_off channel=9 note=36 velocity=95 time=0
EXTRACT: note_on channel=9 note=38 velocity=95 time=0
EXTRACT: note_on channel=9 note=54 velocity=95 time=0
EXTRACT: note_on channel=9 note=44 velocity=95 time=0
EXTRACT: note_off channel=0 note=65 velocity=95 time=0.19480499999999998
EXTRACT: note_off channel=0 note=62 velocity=95 time=0
EXTRACT: note_off channel=0 note=58 velocity=95 time=0
EXTRACT: note_off channel=0 note=53 velocity=95 time=0
EXTRACT: note_off channel=0 note=46 velocity=95 time=0
EXTRACT: note_on channel=0 note=65 velocity=95 time=0
EXTRACT: note_on channel=0 note=62 velocity=95 time=0
EXTRACT: note_on channel=0 note=58 velocity=95 time=0
EXTRACT: note_on channel=0 note=53 velocity=95 time=0
EXTRACT: note_on channel=0 note=46 velocity=95 time=0
EXTRACT: note_off channel=0 note=65 velocity=95 time=0.19480499999999998
EXTRACT: note_off channel=0 note=62 velocity=95 time=0
EXTRACT: note_off channel=0 note=58 velocity=95 time=0
EXTRACT: note_off channel=0 note=53 velocity=95 time=0
EXTRACT: note_off channel=0 note=46 velocity=95 time=0
EXTRACT: note_on channel=0 note=65 velocity=95 time=0
EXTRACT: note_on channel=0 note=62 velocity=95 time=0
EXTRACT: note_on channel=0 note=58 velocity=95 time=0
EXTRACT: note_on channel=0 note=53 velocity=95 time=0
EXTRACT: note_on channel=0 note=46 velocity=95 time=0
EXTRACT: note_off channel=2 note=34 velocity=95 time=0
EXTRACT: note_on channel=2 note=34 velocity=95 time=0
EXTRACT: note_off channel=9 note=38 velocity=95 time=0
EXTRACT: note_off channel=9 note=54 velocity=95 time=0
EXTRACT: note_off channel=9 note=44 velocity=95 time=0
EXTRACT: note_on channel=9 note=44 velocity=95 time=0
EXTRACT: note_off channel=0 note=65 velocity=95 time=0.19480499999999998
EXTRACT: note_off channel=0 note=62 velocity=95 time=0
EXTRACT: note_off channel=0 note=58 velocity=95 time=0
EXTRACT: note_off channel=0 note=53 velocity=95 time=0
EXTRACT: note_off channel=0 note=46 velocity=95 time=0
EXTRACT: note_on channel=0 note=65 velocity=95 time=0
EXTRACT: note_on channel=0 note=62 velocity=95 time=0
EXTRACT: note_on channel=0 note=58 velocity=95 time=0
EXTRACT: note_on channel=0 note=53 velocity=95 time=0
EXTRACT: note_on channel=0 note=46 velocity=95 time=0
EXTRACT: note_off channel=2 note=34 velocity=95 time=0
EXTRACT: note_on channel=2 note=35 velocity=95 time=0
EXTRACT: note_off channel=9 note=44 velocity=95 time=0
EXTRACT: note_off channel=0 note=65 velocity=95 time=0.19480499999999998
EXTRACT: note_off channel=0 note=62 velocity=95 time=0
EXTRACT: note_off channel=0 note=58 velocity=95 time=0
EXTRACT: note_off channel=0 note=53 velocity=95 time=0
EXTRACT: note_off channel=0 note=46 velocity=95 time=0
EXTRACT: note_on channel=0 note=67 velocity=95 time=0
EXTRACT: note_on channel=0 note=63 velocity=95 time=0
EXTRACT: note_on channel=0 note=60 velocity=95 time=0
EXTRACT: note_on channel=0 note=55 velocity=95 time=0
EXTRACT: note_on channel=0 note=48 velocity=95 time=0
EXTRACT: note_off channel=2 note=35 velocity=95 time=0
EXTRACT: note_on channel=2 note=36 velocity=95 time=0
EXTRACT: note_off channel=4 note=65 velocity=95 time=0
EXTRACT: note_on channel=9 note=36 velocity=95 time=0
EXTRACT: note_on channel=9 note=44 velocity=95 time=0
EXTRACT: note_off channel=0 note=67 velocity=95 time=0.38960999999999996
EXTRACT: note_off channel=0 note=63 velocity=95 time=0
EXTRACT: note_off channel=0 note=60 velocity=95 time=0
EXTRACT: note_off channel=0 note=55 velocity=95 time=0
EXTRACT: note_off channel=0 note=48 velocity=95 time=0
EXTRACT: note_on channel=0 note=67 velocity=95 time=0
EXTRACT: note_on channel=0 note=63 velocity=95 time=0
EXTRACT: note_on channel=0 note=60 velocity=95 time=0
EXTRACT: note_on channel=0 note=55 velocity=95 time=0
EXTRACT: note_on channel=0 note=48 velocity=95 time=0
EXTRACT: note_off channel=2 note=36 velocity=95 time=0
EXTRACT: note_on channel=2 note=36 velocity=95 time=0
EXTRACT: note_on channel=4 note=60 velocity=95 time=0
EXTRACT: note_off channel=9 note=36 velocity=95 time=0
EXTRACT: note_off channel=9 note=44 velocity=95 time=0
EXTRACT: note_on channel=9 note=44 velocity=95 time=0
EXTRACT: note_off channel=4 note=60 velocity=95 time=0.12986999999999999
EXTRACT: note_on channel=4 note=63 velocity=95 time=0
EXTRACT: note_off channel=9 note=44 velocity=95 time=0.06493499999999999
EXTRACT: note_on channel=9 note=36 velocity=95 time=0
EXTRACT: note_off channel=4 note=63 velocity=95 time=0.06493499999999999
EXTRACT: note_on channel=4 note=67 velocity=95 time=0
EXTRACT: note_off channel=0 note=67 velocity=95 time=0.12986999999999999
EXTRACT: note_off channel=0 note=63 velocity=95 time=0
EXTRACT: note_off channel=0 note=60 velocity=95 time=0
EXTRACT: note_off channel=0 note=55 velocity=95 time=0
EXTRACT: note_off channel=0 note=48 velocity=95 time=0
EXTRACT: note_on channel=0 note=67 velocity=95 time=0
EXTRACT: note_on channel=0 note=63 velocity=95 time=0
EXTRACT: note_on channel=0 note=60 velocity=95 time=0
EXTRACT: note_on channel=0 note=55 velocity=95 time=0
EXTRACT: note_on channel=0 note=48 velocity=95 time=0
EXTRACT: note_off channel=2 note=36 velocity=95 time=0
EXTRACT: note_on channel=2 note=32 velocity=95 time=0
EXTRACT: note_off channel=4 note=67 velocity=95 time=0
EXTRACT: note_on channel=4 note=72 velocity=95 time=0
EXTRACT: note_off channel=9 note=36 velocity=95 time=0
EXTRACT: note_on channel=9 note=38 velocity=95 time=0
EXTRACT: note_on channel=9 note=54 velocity=95 time=0
EXTRACT: note_on channel=9 note=44 velocity=95 time=0
EXTRACT: note_off channel=0 note=67 velocity=95 time=0.19480499999999998
EXTRACT: note_off channel=0 note=63 velocity=95 time=0
EXTRACT: note_off channel=0 note=60 velocity=95 time=0
EXTRACT: note_off channel=0 note=55 velocity=95 time=0
EXTRACT: note_off channel=0 note=48 velocity=95 time=0
EXTRACT: note_on channel=0 note=67 velocity=95 time=0
EXTRACT: note_on channel=0 note=63 velocity=95 time=0
EXTRACT: note_on channel=0 note=60 velocity=95 time=0
EXTRACT: note_on channel=0 note=55 velocity=95 time=0
EXTRACT: note_on channel=0 note=48 velocity=95 time=0
EXTRACT: note_off channel=2 note=32 velocity=95 time=0
EXTRACT: note_on channel=2 note=34 velocity=95 time=0
EXTRACT: note_off channel=4 note=72 velocity=95 time=0.06493499999999999
EXTRACT: note_on channel=4 note=74 velocity=95 time=0
EXTRACT: note_off channel=0 note=67 velocity=95 time=0.12986999999999999
EXTRACT: note_off channel=0 note=63 velocity=95 time=0
EXTRACT: note_off channel=0 note=60 velocity=95 time=0
EXTRACT: note_off channel=0 note=55 velocity=95 time=0
EXTRACT: note_off channel=0 note=48 velocity=95 time=0
EXTRACT: note_on channel=0 note=67 velocity=95 time=0
EXTRACT: note_on channel=0 note=63 velocity=95 time=0
EXTRACT: note_on channel=0 note=60 velocity=95 time=0
EXTRACT: note_on channel=0 note=55 velocity=95 time=0
EXTRACT: note_on channel=0 note=48 velocity=95 time=0
EXTRACT: note_off channel=2 note=34 velocity=95 time=0
EXTRACT: note_off channel=9 note=38 velocity=95 time=0
EXTRACT: note_off channel=9 note=54 velocity=95 time=0
EXTRACT: note_off channel=9 note=44 velocity=95 time=0
EXTRACT: note_on channel=9 note=44 velocity=95 time=0
EXTRACT: note_off channel=4 note=74 velocity=95 time=0.12986999999999999
EXTRACT: note_on channel=4 note=75 velocity=95 time=0
EXTRACT: note_off channel=0 note=67 velocity=95 time=0.06493499999999999
EXTRACT: note_off channel=0 note=63 velocity=95 time=0
EXTRACT: note_off channel=0 note=60 velocity=95 time=0
EXTRACT: note_off channel=0 note=55 velocity=95 time=0
EXTRACT: note_off channel=0 note=48 velocity=95 time=0
EXTRACT: note_on channel=0 note=67 velocity=95 time=0
EXTRACT: note_on channel=0 note=62 velocity=95 time=0
EXTRACT: note_on channel=0 note=58 velocity=95 time=0
EXTRACT: note_on channel=0 note=55 velocity=95 time=0
EXTRACT: note_on channel=0 note=50 velocity=95 time=0
EXTRACT: note_on channel=0 note=43 velocity=95 time=0
EXTRACT: note_on channel=2 note=31 velocity=95 time=0
EXTRACT: note_off channel=9 note=44 velocity=95 time=0
EXTRACT: note_on channel=9 note=36 velocity=95 time=0
EXTRACT: note_off channel=2 note=31 velocity=95 time=0.19480499999999998
EXTRACT: note_on channel=2 note=31 velocity=95 time=0
EXTRACT: note_off channel=4 note=75 velocity=95 time=0
EXTRACT: note_on channel=4 note=74 velocity=95 time=0
EXTRACT: note_off channel=9 note=36 velocity=95 time=0
EXTRACT: note_on channel=9 note=36 velocity=95 time=0
EXTRACT: note_on channel=9 note=44 velocity=95 time=0
EXTRACT: note_off channel=0 note=67 velocity=95 time=0.19480499999999998
EXTRACT: note_off channel=0 note=62 velocity=95 time=0
EXTRACT: note_off channel=0 note=58 velocity=95 time=0
EXTRACT: note_off channel=0 note=55 velocity=95 time=0
EXTRACT: note_off channel=0 note=50 velocity=95 time=0
EXTRACT: note_off channel=0 note=43 velocity=95 time=0
EXTRACT: note_on channel=0 note=67 velocity=95 time=0
EXTRACT: note_on channel=0 note=62 velocity=95 time=0
EXTRACT: note_on channel=0 note=58 velocity=95 time=0
EXTRACT: note_on channel=0 note=55 velocity=95 time=0
EXTRACT: note_on channel=0 note=50 velocity=95 time=0
EXTRACT: note_on channel=0 note=43 velocity=95 time=0
EXTRACT: note_off channel=4 note=74 velocity=95 time=0
EXTRACT: note_on channel=4 note=75 velocity=70 time=0
EXTRACT: note_off channel=4 note=75 velocity=70 time=0.09740249999999999
EXTRACT: note_on channel=4 note=74 velocity=70 time=0
EXTRACT: note_off channel=0 note=67 velocity=95 time=0.09740249999999999
EXTRACT: note_off channel=0 note=62 velocity=95 time=0
EXTRACT: note_off channel=0 note=58 velocity=95 time=0
EXTRACT: note_off channel=0 note=55 velocity=95 time=0
EXTRACT: note_off channel=0 note=50 velocity=95 time=0
EXTRACT: note_off channel=0 note=43 velocity=95 time=0
EXTRACT: note_on channel=0 note=67 velocity=95 time=0
EXTRACT: note_on channel=0 note=62 velocity=95 time=0
EXTRACT: note_on channel=0 note=58 velocity=95 time=0
EXTRACT: note_on channel=0 note=55 velocity=95 time=0
EXTRACT: note_on channel=0 note=50 velocity=95 time=0
EXTRACT: note_on channel=0 note=43 velocity=95 time=0
EXTRACT: note_off channel=4 note=74 velocity=70 time=0
EXTRACT: note_on channel=4 note=72 velocity=95 time=0
EXTRACT: note_off channel=9 note=36 velocity=95 time=0
EXTRACT: note_off channel=9 note=44 velocity=95 time=0
EXTRACT: note_on channel=9 note=44 velocity=95 time=0
EXTRACT: note_off channel=0 note=67 velocity=95 time=0.19480499999999998
EXTRACT: note_off channel=0 note=62 velocity=95 time=0
EXTRACT: note_off channel=0 note=58 velocity=95 time=0
EXTRACT: note_off channel=0 note=55 velocity=95 time=0
EXTRACT: note_off channel=0 note=50 velocity=95 time=0
EXTRACT: note_off channel=0 note=43 velocity=95 time=0
EXTRACT: note_on channel=0 note=67 velocity=95 time=0
EXTRACT: note_on channel=0 note=62 velocity=95 time=0
EXTRACT: note_on channel=0 note=58 velocity=95 time=0
EXTRACT: note_on channel=0 note=55 velocity=95 time=0
EXTRACT: note_on channel=0 note=50 velocity=95 time=0
EXTRACT: note_on channel=0 note=43 velocity=95 time=0
EXTRACT: note_off channel=4 note=72 velocity=95 time=0
EXTRACT: note_on channel=4 note=74 velocity=95 time=0
EXTRACT: note_off channel=9 note=44 velocity=95 time=0
EXTRACT: note_on channel=9 note=36 velocity=95 time=0
EXTRACT: note_off channel=0 note=67 velocity=95 time=0.19480499999999998
EXTRACT: note_off channel=0 note=62 velocity=95 time=0
EXTRACT: note_off channel=0 note=58 velocity=95 time=0
EXTRACT: note_off channel=0 note=55 velocity=95 time=0
EXTRACT: note_off channel=0 note=50 velocity=95 time=0
EXTRACT: note_off channel=0 note=43 velocity=95 time=0
EXTRACT: note_on channel=0 note=67 velocity=95 time=0
EXTRACT: note_on channel=0 note=62 velocity=95 time=0
EXTRACT: note_on channel=0 note=58 velocity=95 time=0
EXTRACT: note_on channel=0 note=55 velocity=95 time=0
EXTRACT: note_on channel=0 note=50 velocity=95 time=0
EXTRACT: note_on channel=0 note=43 velocity=95 time=0
EXTRACT: note_off channel=4 note=74 velocity=95 time=0
EXTRACT: note_on channel=4 note=70 velocity=95 time=0
EXTRACT: note_off channel=9 note=36 velocity=95 time=0
EXTRACT: note_on channel=9 note=38 velocity=95 time=0
EXTRACT: note_on channel=9 note=54 velocity=95 time=0
EXTRACT: note_on channel=9 note=44 velocity=95 time=0
EXTRACT: note_off channel=0 note=67 velocity=95 time=0.19480499999999998
EXTRACT: note_off channel=0 note=62 velocity=95 time=0
EXTRACT: note_off channel=0 note=58 velocity=95 time=0
EXTRACT: note_off channel=0 note=55 velocity=95 time=0
EXTRACT: note_off channel=0 note=50 velocity=95 time=0
EXTRACT: note_off channel=0 note=43 velocity=95 time=0
EXTRACT: note_on channel=0 note=67 velocity=95 time=0
EXTRACT: note_on channel=0 note=62 velocity=95 time=0
EXTRACT: note_on channel=0 note=58 velocity=95 time=0
EXTRACT: note_on channel=0 note=55 velocity=95 time=0
EXTRACT: note_on channel=0 note=50 velocity=95 time=0
EXTRACT: note_on channel=0 note=43 velocity=95 time=0
EXTRACT: note_off channel=4 note=70 velocity=95 time=0
EXTRACT: note_on channel=4 note=72 velocity=95 time=0
EXTRACT: note_off channel=0 note=67 velocity=95 time=0.19480499999999998
EXTRACT: note_off channel=0 note=62 velocity=95 time=0
EXTRACT: note_off channel=0 note=58 velocity=95 time=0
EXTRACT: note_off channel=0 note=55 velocity=95 time=0
EXTRACT: note_off channel=0 note=50 velocity=95 time=0
EXTRACT: note_off channel=0 note=43 velocity=95 time=0
EXTRACT: note_on channel=0 note=67 velocity=95 time=0
EXTRACT: note_on channel=0 note=62 velocity=95 time=0
EXTRACT: note_on channel=0 note=58 velocity=95 time=0
EXTRACT: note_on channel=0 note=55 velocity=95 time=0
EXTRACT: note_on channel=0 note=50 velocity=95 time=0
EXTRACT: note_on channel=0 note=43 velocity=95 time=0
EXTRACT: note_off channel=2 note=31 velocity=95 time=0
EXTRACT: note_on channel=2 note=39 velocity=95 time=0
EXTRACT: note_off channel=4 note=72 velocity=95 time=0
EXTRACT: note_on channel=4 note=67 velocity=95 time=0
EXTRACT: note_off channel=9 note=38 velocity=95 time=0
EXTRACT: note_off channel=9 note=54 velocity=95 time=0
EXTRACT: note_off channel=9 note=44 velocity=95 time=0
EXTRACT: note_on channel=9 note=44 velocity=95 time=0
EXTRACT: note_off channel=0 note=67 velocity=95 time=0.19480499999999998
EXTRACT: note_off channel=0 note=62 velocity=95 time=0
EXTRACT: note_off channel=0 note=58 velocity=95 time=0
EXTRACT: note_off channel=0 note=55 velocity=95 time=0
EXTRACT: note_off channel=0 note=50 velocity=95 time=0
EXTRACT: note_off channel=0 note=43 velocity=95 time=0
EXTRACT: note_on channel=0 note=67 velocity=95 time=0
EXTRACT: note_on channel=0 note=62 velocity=95 time=0
EXTRACT: note_on channel=0 note=58 velocity=95 time=0
EXTRACT: note_on channel=0 note=55 velocity=95 time=0
EXTRACT: note_on channel=0 note=50 velocity=95 time=0
EXTRACT: note_on channel=0 note=43 velocity=95 time=0
EXTRACT: note_off channel=2 note=39 velocity=95 time=0
EXTRACT: note_on channel=2 note=41 velocity=95 time=0
EXTRACT: note_off channel=4 note=67 velocity=95 time=0
EXTRACT: note_on channel=4 note=70 velocity=95 time=0
EXTRACT: note_off channel=9 note=44 velocity=95 time=0
EXTRACT: note_off channel=0 note=67 velocity=95 time=0.19480499999999998
EXTRACT: note_off channel=0 note=62 velocity=95 time=0
EXTRACT: note_off channel=0 note=58 velocity=95 time=0
EXTRACT: note_off channel=0 note=55 velocity=95 time=0
EXTRACT: note_off channel=0 note=50 velocity=95 time=0
EXTRACT: note_off channel=0 note=43 velocity=95 time=0
EXTRACT: note_on channel=0 note=65 velocity=95 time=0
EXTRACT: note_on channel=0 note=60 velocity=95 time=0
EXTRACT: note_on channel=0 note=56 velocity=95 time=0
EXTRACT: note_on channel=0 note=53 velocity=95 time=0
EXTRACT: note_on channel=0 note=48 velocity=95 time=0
EXTRACT: note_on channel=0 note=41 velocity=95 time=0
EXTRACT: note_off channel=2 note=41 velocity=95 time=0
EXTRACT: note_on channel=2 note=29 velocity=95 time=0
EXTRACT: note_off channel=4 note=70 velocity=95 time=0
EXTRACT: note_on channel=4 note=65 velocity=95 time=0
EXTRACT: note_on channel=9 note=36 velocity=95 time=0
EXTRACT: note_on channel=9 note=44 velocity=95 time=0
EXTRACT: note_off channel=4 note=65 velocity=95 time=0.19480499999999998
EXTRACT: note_on channel=4 note=67 velocity=95 time=0
EXTRACT: note_off channel=0 note=65 velocity=95 time=0.19480499999999998
EXTRACT: note_off channel=0 note=60 velocity=95 time=0
EXTRACT: note_off channel=0 note=56 velocity=95 time=0
EXTRACT: note_off channel=0 note=53 velocity=95 time=0
EXTRACT: note_off channel=0 note=48 velocity=95 time=0
EXTRACT: note_off channel=0 note=41 velocity=95 time=0
EXTRACT: note_on channel=0 note=65 velocity=95 time=0
EXTRACT: note_on channel=0 note=60 velocity=95 time=0
EXTRACT: note_on channel=0 note=56 velocity=95 time=0
EXTRACT: note_on channel=0 note=53 velocity=95 time=0
EXTRACT: note_on channel=0 note=48 velocity=95 time=0
EXTRACT: note_on channel=0 note=41 velocity=95 time=0
EXTRACT: note_off channel=2 note=29 velocity=95 time=0
EXTRACT: note_on channel=2 note=29 velocity=95 time=0
EXTRACT: note_off channel=4 note=67 velocity=95 time=0
EXTRACT: note_on channel=4 note=63 velocity=95 time=0
EXTRACT: note_off channel=9 note=36 velocity=95 time=0
EXTRACT: note_off channel=9 note=44 velocity=95 time=0
EXTRACT: note_on channel=9 note=44 velocity=95 time=0
EXTRACT: note_off channel=0 note=65 velocity=95 time=0.19480499999999998
EXTRACT: note_off channel=0 note=60 velocity=95 time=0
EXTRACT: note_off channel=0 note=56 velocity=95 time=0
EXTRACT: note_off channel=0 note=53 velocity=95 time=0
EXTRACT: note_off channel=0 note=48 velocity=95 time=0
EXTRACT: note_off channel=0 note=41 velocity=95 time=0
EXTRACT: note_on channel=0 note=65 velocity=95 time=0
EXTRACT: note_on channel=0 note=60 velocity=95 time=0
EXTRACT: note_on channel=0 note=56 velocity=95 time=0
EXTRACT: note_on channel=0 note=53 velocity=95 time=0
EXTRACT: note_on channel=0 note=48 velocity=95 time=0
EXTRACT: note_on channel=0 note=41 velocity=95 time=0
EXTRACT: note_off channel=4 note=63 velocity=95 time=0
EXTRACT: note_on channel=4 note=65 velocity=95 time=0
EXTRACT: note_off channel=9 note=44 velocity=95 time=0
EXTRACT: note_on channel=9 note=36 velocity=95 time=0
EXTRACT: note_off channel=0 note=65 velocity=95 time=0.19480499999999998
EXTRACT: note_off channel=0 note=60 velocity=95 time=0
EXTRACT: note_off channel=0 note=56 velocity=95 time=0
EXTRACT: note_off channel=0 note=53 velocity=95 time=0
EXTRACT: note_off channel=0 note=48 velocity=95 time=0
EXTRACT: note_off channel=0 note=41 velocity=95 time=0
EXTRACT: note_on channel=0 note=65 velocity=95 time=0
EXTRACT: note_on channel=0 note=60 velocity=95 time=0
EXTRACT: note_on channel=0 note=56 velocity=95 time=0
EXTRACT: note_on channel=0 note=53 velocity=95 time=0
EXTRACT: note_on channel=0 note=48 velocity=95 time=0
EXTRACT: note_on channel=0 note=41 velocity=95 time=0
EXTRACT: note_off channel=2 note=29 velocity=95 time=0
EXTRACT: note_on channel=2 note=31 velocity=95 time=0
EXTRACT: note_off channel=4 note=65 velocity=95 time=0
EXTRACT: note_on channel=4 note=67 velocity=95 time=0
EXTRACT: note_off channel=9 note=36 velocity=95 time=0
EXTRACT: note_on channel=9 note=38 velocity=95 time=0
EXTRACT: note_on channel=9 note=54 velocity=95 time=0
EXTRACT: note_on channel=9 note=44 velocity=95 time=0
EXTRACT: note_off channel=0 note=65 velocity=95 time=0.19480499999999998
EXTRACT: note_off channel=0 note=60 velocity=95 time=0
EXTRACT: note_off channel=0 note=56 velocity=95 time=0
EXTRACT: note_off channel=0 note=53 velocity=95 time=0
EXTRACT: note_off channel=0 note=48 velocity=95 time=0
EXTRACT: note_off channel=0 note=41 velocity=95 time=0
EXTRACT: note_on channel=0 note=65 velocity=95 time=0
EXTRACT: note_on channel=0 note=60 velocity=95 time=0
EXTRACT: note_on channel=0 note=56 velocity=95 time=0
EXTRACT: note_on channel=0 note=53 velocity=95 time=0
EXTRACT: note_on channel=0 note=48 velocity=95 time=0
EXTRACT: note_on channel=0 note=41 velocity=95 time=0
EXTRACT: note_off channel=2 note=31 velocity=95 time=0
EXTRACT: note_on channel=2 note=32 velocity=95 time=0
EXTRACT: note_off channel=4 note=67 velocity=95 time=0.06493499999999999
EXTRACT: note_on channel=4 note=68 velocity=95 time=0
EXTRACT: note_off channel=0 note=65 velocity=95 time=0.12986999999999999
EXTRACT: note_off channel=0 note=60 velocity=95 time=0
EXTRACT: note_off channel=0 note=56 velocity=95 time=0
EXTRACT: note_off channel=0 note=53 velocity=95 time=0
EXTRACT: note_off channel=0 note=48 velocity=95 time=0
EXTRACT: note_off channel=0 note=41 velocity=95 time=0
EXTRACT: note_on channel=0 note=65 velocity=95 time=0
EXTRACT: note_on channel=0 note=60 velocity=95 time=0
EXTRACT: note_on channel=0 note=56 velocity=95 time=0
EXTRACT: note_on channel=0 note=53 velocity=95 time=0
EXTRACT: note_on channel=0 note=48 velocity=95 time=0
EXTRACT: note_on channel=0 note=41 velocity=95 time=0
EXTRACT: note_off channel=2 note=32 velocity=95 time=0
EXTRACT: note_off channel=9 note=38 velocity=95 time=0
EXTRACT: note_off channel=9 note=54 velocity=95 time=0
EXTRACT: note_off channel=9 note=44 velocity=95 time=0
EXTRACT: note_on channel=9 note=44 velocity=95 time=0
EXTRACT: note_off channel=4 note=68 velocity=95 time=0.12986999999999999
EXTRACT: note_on channel=4 note=70 velocity=95 time=0
EXTRACT: note_off channel=0 note=65 velocity=95 time=0.06493499999999999
EXTRACT: note_off channel=0 note=60 velocity=95 time=0
EXTRACT: note_off channel=0 note=56 velocity=95 time=0
EXTRACT: note_off channel=0 note=53 velocity=95 time=0
EXTRACT: note_off channel=0 note=48 velocity=95 time=0
EXTRACT: note_off channel=0 note=41 velocity=95 time=0
EXTRACT: note_on channel=0 note=65 velocity=95 time=0
EXTRACT: note_on channel=0 note=62 velocity=95 time=0
EXTRACT: note_on channel=0 note=58 velocity=95 time=0
EXTRACT: note_on channel=0 note=53 velocity=95 time=0
EXTRACT: note_on channel=0 note=46 velocity=95 time=0
EXTRACT: note_on channel=2 note=34 velocity=95 time=0
EXTRACT: note_off channel=9 note=44 velocity=95 time=0
EXTRACT: note_on channel=9 note=36 velocity=95 time=0
EXTRACT: note_off channel=4 note=70 velocity=95 time=0.19480499999999998
EXTRACT: note_on channel=4 note=68 velocity=95 time=0
EXTRACT: note_off channel=9 note=36 velocity=95 time=0
EXTRACT: note_on channel=9 note=36 velocity=95 time=0
EXTRACT: note_on channel=9 note=44 velocity=95 time=0
EXTRACT: note_off channel=0 note=65 velocity=95 time=0.19480499999999998
EXTRACT: note_off channel=0 note=62 velocity=95 time=0
EXTRACT: note_off channel=0 note=58 velocity=95 time=0
EXTRACT: note_off channel=0 note=53 velocity=95 time=0
EXTRACT: note_off channel=0 note=46 velocity=95 time=0
EXTRACT: note_on channel=0 note=65 velocity=95 time=0
EXTRACT: note_on channel=0 note=62 velocity=95 time=0
EXTRACT: note_on channel=0 note=58 velocity=95 time=0
EXTRACT: note_on channel=0 note=53 velocity=95 time=0
EXTRACT: note_on channel=0 note=46 velocity=95 time=0
EXTRACT: note_off channel=4 note=68 velocity=95 time=0
EXTRACT: note_on channel=4 note=70 velocity=95 time=0
EXTRACT: note_off channel=4 note=70 velocity=95 time=0.09740249999999999
EXTRACT: note_on channel=4 note=68 velocity=70 time=0
EXTRACT: note_off channel=0 note=65 velocity=95 time=0.09740249999999999
EXTRACT: note_off channel=0 note=62 velocity=95 time=0
EXTRACT: note_off channel=0 note=58 velocity=95 time=0
EXTRACT: note_off channel=0 note=53 velocity=95 time=0
EXTRACT: note_off channel=0 note=46 velocity=95 time=0
EXTRACT: note_on channel=0 note=65 velocity=95 time=0
EXTRACT: note_on channel=0 note=62 velocity=95 time=0
EXTRACT: note_on channel=0 note=58 velocity=95 time=0
EXTRACT: note_on channel=0 note=53 velocity=95 time=0
EXTRACT: note_on channel=0 note=46 velocity=95 time=0
EXTRACT: note_off channel=4 note=68 velocity=70 time=0
EXTRACT: note_on channel=4 note=67 velocity=95 time=0
EXTRACT: note_off channel=9 note=36 velocity=95 time=0
EXTRACT: note_off channel=9 note=44 velocity=95 time=0
EXTRACT: note_on channel=9 note=44 velocity=95 time=0
EXTRACT: note_off channel=0 note=65 velocity=95 time=0.19480499999999998
EXTRACT: note_off channel=0 note=62 velocity=95 time=0
EXTRACT: note_off channel=0 note=58 velocity=95 time=0
EXTRACT: note_off channel=0 note=53 velocity=95 time=0
EXTRACT: note_off channel=0 note=46 velocity=95 time=0
EXTRACT: note_on channel=0 note=65 velocity=95 time=0
EXTRACT: note_on channel=0 note=62 velocity=95 time=0
EXTRACT: note_on channel=0 note=58 velocity=95 time=0
EXTRACT: note_on channel=0 note=53 velocity=95 time=0
EXTRACT: note_on channel=0 note=46 velocity=95 time=0
EXTRACT: note_off channel=9 note=44 velocity=95 time=0
EXTRACT: note_on channel=9 note=36 velocity=95 time=0
EXTRACT: note_off channel=0 note=65 velocity=95 time=0.19480499999999998
EXTRACT: note_off channel=0 note=62 velocity=95 time=0
EXTRACT: note_off channel=0 note=58 velocity=95 time=0
EXTRACT: note_off channel=0 note=53 velocity=95 time=0
EXTRACT: note_off channel=0 note=46 velocity=95 time=0
EXTRACT: note_on channel=0 note=65 velocity=95 time=0
EXTRACT: note_on channel=0 note=62 velocity=95 time=0
EXTRACT: note_on channel=0 note=58 velocity=95 time=0
EXTRACT: note_on channel=0 note=53 velocity=95 time=0
EXTRACT: note_on channel=0 note=46 velocity=95 time=0
EXTRACT: note_off channel=9 note=36 velocity=95 time=0
EXTRACT: note_on channel=9 note=38 velocity=95 time=0
EXTRACT: note_on channel=9 note=54 velocity=95 time=0
EXTRACT: note_on channel=9 note=44 velocity=95 time=0
EXTRACT: note_off channel=0 note=65 velocity=95 time=0.19480499999999998
EXTRACT: note_off channel=0 note=62 velocity=95 time=0
EXTRACT: note_off channel=0 note=58 velocity=95 time=0
EXTRACT: note_off channel=0 note=53 velocity=95 time=0
EXTRACT: note_off channel=0 note=46 velocity=95 time=0
EXTRACT: note_on channel=0 note=65 velocity=95 time=0
EXTRACT: note_on channel=0 note=62 velocity=95 time=0
EXTRACT: note_on channel=0 note=58 velocity=95 time=0
EXTRACT: note_on channel=0 note=53 velocity=95 time=0
EXTRACT: note_on channel=0 note=46 velocity=95 time=0
EXTRACT: note_off channel=0 note=65 velocity=95 time=0.19480499999999998
EXTRACT: note_off channel=0 note=62 velocity=95 time=0
EXTRACT: note_off channel=0 note=58 velocity=95 time=0
EXTRACT: note_off channel=0 note=53 velocity=95 time=0
EXTRACT: note_off channel=0 note=46 velocity=95 time=0
EXTRACT: note_on channel=0 note=65 velocity=95 time=0
EXTRACT: note_on channel=0 note=62 velocity=95 time=0
EXTRACT: note_on channel=0 note=58 velocity=95 time=0
EXTRACT: note_on channel=0 note=53 velocity=95 time=0
EXTRACT: note_on channel=0 note=46 velocity=95 time=0
EXTRACT: note_off channel=2 note=34 velocity=95 time=0
EXTRACT: note_on channel=2 note=29 velocity=95 time=0
EXTRACT: note_off channel=9 note=38 velocity=95 time=0
EXTRACT: note_off channel=9 note=54 velocity=95 time=0
EXTRACT: note_off channel=9 note=44 velocity=95 time=0
EXTRACT: note_on channel=9 note=44 velocity=95 time=0
EXTRACT: note_off channel=0 note=65 velocity=95 time=0.19480499999999998
EXTRACT: note_off channel=0 note=62 velocity=95 time=0
EXTRACT: note_off channel=0 note=58 velocity=95 time=0
EXTRACT: note_off channel=0 note=53 velocity=95 time=0
EXTRACT: note_off channel=0 note=46 velocity=95 time=0
EXTRACT: note_on channel=0 note=65 velocity=95 time=0
EXTRACT: note_on channel=0 note=62 velocity=95 time=0
EXTRACT: note_on channel=0 note=58 velocity=95 time=0
EXTRACT: note_on channel=0 note=53 velocity=95 time=0
EXTRACT: note_on channel=0 note=46 velocity=95 time=0
EXTRACT: note_off channel=2 note=29 velocity=95 time=0
EXTRACT: note_on channel=2 note=30 velocity=95 time=0
EXTRACT: note_off channel=9 note=44 velocity=95 time=0
EXTRACT: note_off channel=0 note=65 velocity=95 time=0.19480499999999998
EXTRACT: note_off channel=0 note=62 velocity=95 time=0
EXTRACT: note_off channel=0 note=58 velocity=95 time=0
EXTRACT: note_off channel=0 note=53 velocity=95 time=0
EXTRACT: note_off channel=0 note=46 velocity=95 time=0
EXTRACT: note_on channel=0 note=67 velocity=95 time=0
EXTRACT: note_on channel=0 note=62 velocity=95 time=0
EXTRACT: note_on channel=0 note=58 velocity=95 time=0
EXTRACT: note_on channel=0 note=55 velocity=95 time=0
EXTRACT: note_on channel=0 note=50 velocity=95 time=0
EXTRACT: note_on channel=0 note=43 velocity=95 time=0
EXTRACT: note_off channel=2 note=30 velocity=95 time=0
EXTRACT: note_on channel=2 note=31 velocity=95 time=0
EXTRACT: note_off channel=4 note=67 velocity=95 time=0
EXTRACT: note_on channel=9 note=36 velocity=95 time=0
EXTRACT: note_on channel=9 note=44 velocity=95 time=0
EXTRACT: note_off channel=0 note=67 velocity=95 time=0.38960999999999996
EXTRACT: note_off channel=0 note=62 velocity=95 time=0
EXTRACT: note_off channel=0 note=58 velocity=95 time=0
EXTRACT: note_off channel=0 note=55 velocity=95 time=0
EXTRACT: note_off channel=0 note=50 velocity=95 time=0
EXTRACT: note_off channel=0 note=43 velocity=95 time=0
EXTRACT: note_on channel=0 note=67 velocity=95 time=0
EXTRACT: note_on channel=0 note=62 velocity=95 time=0
EXTRACT: note_on channel=0 note=58 velocity=95 time=0
EXTRACT: note_on channel=0 note=55 velocity=95 time=0
EXTRACT: note_on channel=0 note=50 velocity=95 time=0
EXTRACT: note_on channel=0 note=43 velocity=95 time=0
EXTRACT: note_off channel=9 note=36 velocity=95 time=0
EXTRACT: note_off channel=9 note=44 velocity=95 time=0
EXTRACT: note_on channel=9 note=44 velocity=95 time=0
EXTRACT: note_off channel=2 note=31 velocity=95 time=0.19480499999999998
EXTRACT: note_on channel=2 note=34 velocity=95 time=0
EXTRACT: note_on channel=4 note=48 velocity=95 time=0
EXTRACT: note_off channel=9 note=44 velocity=95 time=0
EXTRACT: note_on channel=9 note=36 velocity=95 time=0
EXTRACT: note_off channel=4 note=48 velocity=95 time=0.09740249999999999
EXTRACT: note_on channel=4 note=50 velocity=95 time=0
EXTRACT: note_off channel=0 note=67 velocity=95 time=0.09740249999999999
EXTRACT: note_off channel=0 note=62 velocity=95 time=0
EXTRACT: note_off channel=0 note=58 velocity=95 time=0
EXTRACT: note_off channel=0 note=55 velocity=95 time=0
EXTRACT: note_off channel=0 note=50 velocity=95 time=0
EXTRACT: note_off channel=0 note=43 velocity=95 time=0
EXTRACT: note_on channel=0 note=67 velocity=95 time=0
EXTRACT: note_on channel=0 note=62 velocity=95 time=0
EXTRACT: note_on channel=0 note=58 velocity=95 time=0
EXTRACT: note_on channel=0 note=55 velocity=95 time=0
EXTRACT: note_on channel=0 note=50 velocity=95 time=0
EXTRACT: note_on channel=0 note=43 velocity=95 time=0
EXTRACT: note_off channel=4 note=50 velocity=95 time=0
EXTRACT: note_on channel=4 note=51 velocity=95 time=0
EXTRACT: note_off channel=9 note=36 velocity=95 time=0
EXTRACT: note_on channel=9 note=38 velocity=95 time=0
EXTRACT: note_on channel=9 note=54 velocity=95 time=0
EXTRACT: note_on channel=9 note=44 velocity=95 time=0
EXTRACT: note_off channel=0 note=67 velocity=95 time=0.19480499999999998
EXTRACT: note_off channel=0 note=62 velocity=95 time=0
EXTRACT: note_off channel=0 note=58 velocity=95 time=0
EXTRACT: note_off channel=0 note=55 velocity=95 time=0
EXTRACT: note_off channel=0 note=50 velocity=95 time=0
EXTRACT: note_off channel=0 note=43 velocity=95 time=0
EXTRACT: note_on channel=0 note=67 velocity=95 time=0
EXTRACT: note_on channel=0 note=62 velocity=95 time=0
EXTRACT: note_on channel=0 note=58 velocity=95 time=0
EXTRACT: note_on channel=0 note=55 velocity=95 time=0
EXTRACT: note_on channel=0 note=50 velocity=95 time=0
EXTRACT: note_on channel=0 note=43 velocity=95 time=0
EXTRACT: note_off channel=4 note=51 velocity=95 time=0
EXTRACT: note_on channel=4 note=53 velocity=95 time=0
EXTRACT: note_off channel=0 note=67 velocity=95 time=0.19480499999999998
EXTRACT: note_off channel=0 note=62 velocity=95 time=0
EXTRACT: note_off channel=0 note=58 velocity=95 time=0
EXTRACT: note_off channel=0 note=55 velocity=95 time=0
EXTRACT: note_off channel=0 note=50 velocity=95 time=0
EXTRACT: note_off channel=0 note=43 velocity=95 time=0
EXTRACT: note_on channel=0 note=67 velocity=95 time=0
EXTRACT: note_on channel=0 note=62 velocity=95 time=0
EXTRACT: note_on channel=0 note=58 velocity=95 time=0
EXTRACT: note_on channel=0 note=55 velocity=95 time=0
EXTRACT: note_on channel=0 note=50 velocity=95 time=0
EXTRACT: note_on channel=0 note=43 velocity=95 time=0
EXTRACT: note_off channel=2 note=34 velocity=95 time=0
EXTRACT: note_on channel=2 note=38 velocity=95 time=0
EXTRACT: note_off channel=4 note=53 velocity=95 time=0
EXTRACT: note_on channel=4 note=55 velocity=95 time=0
EXTRACT: note_off channel=9 note=38 velocity=95 time=0
EXTRACT: note_off channel=9 note=54 velocity=95 time=0
EXTRACT: note_off channel=9 note=44 velocity=95 time=0
EXTRACT: note_on channel=9 note=44 velocity=95 time=0
EXTRACT: note_off channel=0 note=67 velocity=95 time=0.19480499999999998
EXTRACT: note_off channel=0 note=62 velocity=95 time=0
EXTRACT: note_off channel=0 note=58 velocity=95 time=0
EXTRACT: note_off channel=0 note=55 velocity=95 time=0
EXTRACT: note_off channel=0 note=50 velocity=95 time=0
EXTRACT: note_off channel=0 note=43 velocity=95 time=0
EXTRACT: note_on channel=0 note=67 velocity=95 time=0
EXTRACT: note_on channel=0 note=63 velocity=95 time=0
EXTRACT: note_on channel=0 note=60 velocity=95 time=0
EXTRACT: note_on channel=0 note=55 velocity=95 time=0
EXTRACT: note_on channel=0 note=48 velocity=95 time=0
EXTRACT: note_off channel=4 note=55 velocity=95 time=0
EXTRACT: note_on channel=4 note=51 velocity=95 time=0
EXTRACT: note_off channel=9 note=44 velocity=95 time=0
EXTRACT: note_on channel=9 note=36 velocity=95 time=0
EXTRACT: note_off channel=2 note=38 velocity=95 time=0.19480499999999998
EXTRACT: note_on channel=2 note=36 velocity=95 time=0
EXTRACT: note_off channel=4 note=51 velocity=95 time=0
EXTRACT: note_on channel=4 note=53 velocity=95 time=0
EXTRACT: note_off channel=9 note=36 velocity=95 time=0
EXTRACT: note_on channel=9 note=36 velocity=95 time=0
EXTRACT: note_on channel=9 note=44 velocity=95 time=0
EXTRACT: note_off channel=0 note=67 velocity=95 time=0.19480499999999998
EXTRACT: note_off channel=0 note=63 velocity=95 time=0
EXTRACT: note_off channel=0 note=60 velocity=95 time=0
EXTRACT: note_off channel=0 note=55 velocity=95 time=0
EXTRACT: note_off channel=0 note=48 velocity=95 time=0
EXTRACT: note_on channel=0 note=67 velocity=95 time=0
EXTRACT: note_on channel=0 note=63 velocity=95 time=0
EXTRACT: note_on channel=0 note=60 velocity=95 time=0
EXTRACT: note_on channel=0 note=55 velocity=95 time=0
EXTRACT: note_on channel=0 note=48 velocity=95 time=0
EXTRACT: note_off channel=4 note=53 velocity=95 time=0
EXTRACT: note_on channel=4 note=55 velocity=95 time=0
EXTRACT: note_off channel=0 note=67 velocity=95 time=0.19480499999999998
EXTRACT: note_off channel=0 note=63 velocity=95 time=0
EXTRACT: note_off channel=0 note=60 velocity=95 time=0
EXTRACT: note_off channel=0 note=55 velocity=95 time=0
EXTRACT: note_off channel=0 note=48 velocity=95 time=0
EXTRACT: note_on channel=0 note=67 velocity=95 time=0
EXTRACT: note_on channel=0 note=63 velocity=95 time=0
EXTRACT: note_on channel=0 note=60 velocity=95 time=0
EXTRACT: note_on channel=0 note=55 velocity=95 time=0
EXTRACT: note_on channel=0 note=48 velocity=95 time=0
EXTRACT: note_off channel=4 note=55 velocity=95 time=0
EXTRACT: note_on channel=4 note=56 velocity=95 time=0
EXTRACT: note_off channel=9 note=36 velocity=95 time=0
EXTRACT: note_off channel=9 note=44 velocity=95 time=0
EXTRACT: note_on channel=9 note=44 velocity=95 time=0
EXTRACT: note_off channel=0 note=67 velocity=95 time=0.19480499999999998
EXTRACT: note_off channel=0 note=63 velocity=95 time=0
EXTRACT: note_off channel=0 note=60 velocity=95 time=0
EXTRACT: note_off channel=0 note=55 velocity=95 time=0
EXTRACT: note_off channel=0 note=48 velocity=95 time=0
EXTRACT: note_on channel=0 note=67 velocity=95 time=0
EXTRACT: note_on channel=0 note=63 velocity=95 time=0
EXTRACT: note_on channel=0 note=60 velocity=95 time=0
EXTRACT: note_on channel=0 note=55 velocity=95 time=0
EXTRACT: note_on channel=0 note=48 velocity=95 time=0
EXTRACT: note_off channel=2 note=36 velocity=95 time=0
EXTRACT: note_on channel=2 note=32 velocity=95 time=0
EXTRACT: note_off channel=4 note=56 velocity=95 time=0
EXTRACT: note_on channel=4 note=58 velocity=95 time=0
EXTRACT: note_off channel=9 note=44 velocity=95 time=0
EXTRACT: note_on channel=9 note=36 velocity=95 time=0
EXTRACT: note_off channel=0 note=67 velocity=95 time=0.19480499999999998
EXTRACT: note_off channel=0 note=63 velocity=95 time=0
EXTRACT: note_off channel=0 note=60 velocity=95 time=0
EXTRACT: note_off channel=0 note=55 velocity=95 time=0
EXTRACT: note_off channel=0 note=48 velocity=95 time=0
EXTRACT: note_on channel=0 note=67 velocity=95 time=0
EXTRACT: note_on channel=0 note=63 velocity=95 time=0
EXTRACT: note_on channel=0 note=60 velocity=95 time=0
EXTRACT: note_on channel=0 note=55 velocity=95 time=0
EXTRACT: note_on channel=0 note=48 velocity=95 time=0
EXTRACT: note_off channel=2 note=32 velocity=95 time=0
EXTRACT: note_on channel=2 note=32 velocity=95 time=0
EXTRACT: note_off channel=4 note=58 velocity=95 time=0
EXTRACT: note_on channel=4 note=60 velocity=95 time=0
EXTRACT: note_off channel=9 note=36 velocity=95 time=0
EXTRACT: note_on channel=9 note=38 velocity=95 time=0
EXTRACT: note_on channel=9 note=54 velocity=95 time=0
EXTRACT: note_on channel=9 note=44 velocity=95 time=0
EXTRACT: note_off channel=0 note=67 velocity=95 time=0.19480499999999998
EXTRACT: note_off channel=0 note=63 velocity=95 time=0
EXTRACT: note_off channel=0 note=60 velocity=95 time=0
EXTRACT: note_off channel=0 note=55 velocity=95 time=0
EXTRACT: note_off channel=0 note=48 velocity=95 time=0
EXTRACT: note_on channel=0 note=67 velocity=95 time=0
EXTRACT: note_on channel=0 note=63 velocity=95 time=0
EXTRACT: note_on channel=0 note=60 velocity=95 time=0
EXTRACT: note_on channel=0 note=55 velocity=95 time=0
EXTRACT: note_on channel=0 note=48 velocity=95 time=0
EXTRACT: note_off channel=4 note=60 velocity=95 time=0.06493499999999999
EXTRACT: note_on channel=4 note=58 velocity=95 time=0
EXTRACT: note_off channel=0 note=67 velocity=95 time=0.12986999999999999
EXTRACT: note_off channel=0 note=63 velocity=95 time=0
EXTRACT: note_off channel=0 note=60 velocity=95 time=0
EXTRACT: note_off channel=0 note=55 velocity=95 time=0
EXTRACT: note_off channel=0 note=48 velocity=95 time=0
EXTRACT: note_on channel=0 note=67 velocity=95 time=0
EXTRACT: note_on channel=0 note=63 velocity=95 time=0
EXTRACT: note_on channel=0 note=60 velocity=95 time=0
EXTRACT: note_on channel=0 note=55 velocity=95 time=0
EXTRACT: note_on channel=0 note=48 velocity=95 time=0
EXTRACT: note_off channel=2 note=32 velocity=95 time=0
EXTRACT: note_on channel=2 note=31 velocity=95 time=0
EXTRACT: note_off channel=9 note=38 velocity=95 time=0
EXTRACT: note_off channel=9 note=54 velocity=95 time=0
EXTRACT: note_off channel=9 note=44 velocity=95 time=0
EXTRACT: note_on channel=9 note=44 velocity=95 time=0
EXTRACT: note_off channel=4 note=58 velocity=95 time=0.12986999999999999
EXTRACT: note_on channel=4 note=56 velocity=95 time=0
EXTRACT: note_off channel=0 note=67 velocity=95 time=0.06493499999999999
EXTRACT: note_off channel=0 note=63 velocity=95 time=0
EXTRACT: note_off channel=0 note=60 velocity=95 time=0
EXTRACT: note_off channel=0 note=55 velocity=95 time=0
EXTRACT: note_off channel=0 note=48 velocity=95 time=0
EXTRACT: note_on channel=0 note=67 velocity=95 time=0
EXTRACT: note_on channel=0 note=63 velocity=95 time=0
EXTRACT: note_on channel=0 note=60 velocity=95 time=0
EXTRACT: note_on channel=0 note=55 velocity=95 time=0
EXTRACT: note_on channel=0 note=48 velocity=95 time=0
EXTRACT: note_off channel=9 note=44 velocity=95 time=0
EXTRACT: note_off channel=0 note=67 velocity=95 time=0.19480499999999998
EXTRACT: note_off channel=0 note=63 velocity=95 time=0
EXTRACT: note_off channel=0 note=60 velocity=95 time=0
EXTRACT: note_off channel=0 note=55 velocity=95 time=0
EXTRACT: note_off channel=0 note=48 velocity=95 time=0
EXTRACT: note_on channel=0 note=65 velocity=95 time=0
EXTRACT: note_on channel=0 note=60 velocity=95 time=0
EXTRACT: note_on channel=0 note=56 velocity=95 time=0
EXTRACT: note_on channel=0 note=53 velocity=95 time=0
EXTRACT: note_on channel=0 note=48 velocity=95 time=0
EXTRACT: note_on channel=0 note=41 velocity=95 time=0
EXTRACT: note_off channel=2 note=31 velocity=95 time=0
EXTRACT: note_on channel=2 note=29 velocity=95 time=0
EXTRACT: note_off channel=4 note=56 velocity=95 time=0
EXTRACT: note_on channel=4 note=55 velocity=95 time=0
EXTRACT: note_on channel=9 note=36 velocity=95 time=0
EXTRACT: note_on channel=9 note=49 velocity=95 time=0
EXTRACT: note_off channel=4 note=55 velocity=95 time=0.09740249999999999
EXTRACT: note_on channel=4 note=56 velocity=95 time=0
EXTRACT: note_off channel=4 note=56 velocity=95 time=0.09740249999999999
EXTRACT: note_on channel=4 note=55 velocity=95 time=0
EXTRACT: note_off channel=0 note=65 velocity=95 time=2.9220749999999995
EXTRACT: note_off channel=0 note=60 velocity=95 time=0
EXTRACT: note_off channel=0 note=56 velocity=95 time=0
EXTRACT: note_off channel=0 note=53 velocity=95 time=0
EXTRACT: note_off channel=0 note=48 velocity=95 time=0
EXTRACT: note_off channel=0 note=41 velocity=95 time=0
EXTRACT: note_on channel=0 note=63 velocity=95 time=0
EXTRACT: note_on channel=0 note=60 velocity=95 time=0
EXTRACT: note_off channel=2 note=29 velocity=95 time=0
EXTRACT: note_off channel=4 note=55 velocity=95 time=0
EXTRACT: note_off channel=9 note=36 velocity=95 time=0
EXTRACT: note_off channel=9 note=49 velocity=95 time=0
EXTRACT: note_off channel=0 note=63 velocity=95 time=0.38960999999999996
EXTRACT: note_off channel=0 note=60 velocity=95 time=0
EXTRACT: note_on channel=0 note=55 velocity=95 time=0
EXTRACT: note_off channel=0 note=55 velocity=95 time=0.38960999999999996
EXTRACT: note_on channel=0 note=63 velocity=95 time=0
EXTRACT: note_on channel=0 note=60 velocity=95 time=0
EXTRACT: note_off channel=0 note=63 velocity=95 time=0.38960999999999996
EXTRACT: note_off channel=0 note=60 velocity=95 time=0
EXTRACT: note_on channel=0 note=55 velocity=95 time=0
EXTRACT: note_off channel=0 note=55 velocity=95 time=0.38960999999999996
EXTRACT: note_on channel=0 note=62 velocity=95 time=0
EXTRACT: note_on channel=0 note=58 velocity=95 time=0
EXTRACT: note_off channel=0 note=62 velocity=95 time=0.38960999999999996
EXTRACT: note_off channel=0 note=58 velocity=95 time=0
EXTRACT: note_on channel=0 note=55 velocity=95 time=0
EXTRACT: note_off channel=0 note=55 velocity=95 time=0.38960999999999996
EXTRACT: note_on channel=0 note=62 velocity=95 time=0
EXTRACT: note_on channel=0 note=58 velocity=95 time=0
EXTRACT: note_off channel=0 note=62 velocity=95 time=0.38960999999999996
EXTRACT: note_off channel=0 note=58 velocity=95 time=0
EXTRACT: note_on channel=1 note=55 velocity=95 time=0
EXTRACT: pitchwheel channel=1 pitch=-640 time=0.09740249999999999
EXTRACT: pitchwheel channel=1 pitch=-1408 time=0.09740249999999999
EXTRACT: pitchwheel channel=1 pitch=0 time=0
EXTRACT: note_off channel=1 note=55 velocity=95 time=0
EXTRACT: note_on channel=0 note=53 velocity=95 time=0
EXTRACT: note_off channel=0 note=53 velocity=95 time=0.19480499999999998
EXTRACT: note_on channel=0 note=60 velocity=95 time=0
EXTRACT: note_on channel=0 note=56 velocity=95 time=0
EXTRACT: note_off channel=0 note=60 velocity=95 time=0.38960999999999996
EXTRACT: note_off channel=0 note=56 velocity=95 time=0
EXTRACT: note_on channel=0 note=53 velocity=95 time=0
EXTRACT: note_off channel=0 note=53 velocity=95 time=0.38960999999999996
EXTRACT: note_on channel=0 note=60 velocity=95 time=0
EXTRACT: note_on channel=0 note=56 velocity=95 time=0
EXTRACT: note_off channel=0 note=60 velocity=95 time=0.38960999999999996
EXTRACT: note_off channel=0 note=56 velocity=95 time=0
EXTRACT: note_on channel=0 note=53 velocity=95 time=0
EXTRACT: note_off channel=0 note=53 velocity=95 time=0.38960999999999996
EXTRACT: note_on channel=0 note=62 velocity=95 time=0
EXTRACT: note_on channel=0 note=58 velocity=95 time=0
EXTRACT: note_off channel=0 note=62 velocity=95 time=0.38960999999999996
EXTRACT: note_off channel=0 note=58 velocity=95 time=0
EXTRACT: note_on channel=0 note=53 velocity=95 time=0
EXTRACT: note_off channel=0 note=53 velocity=95 time=0.38960999999999996
EXTRACT: note_on channel=0 note=62 velocity=95 time=0
EXTRACT: note_on channel=0 note=58 velocity=95 time=0
EXTRACT: note_off channel=0 note=62 velocity=95 time=0.38960999999999996
EXTRACT: note_off channel=0 note=58 velocity=95 time=0
EXTRACT: note_on channel=0 note=53 velocity=95 time=0
EXTRACT: note_off channel=0 note=53 velocity=95 time=0.38960999999999996
EXTRACT: note_on channel=0 note=53 velocity=95 time=0
EXTRACT: note_on channel=0 note=48 velocity=95 time=0
EXTRACT: note_on channel=0 note=41 velocity=95 time=0
EXTRACT: note_on channel=2 note=29 velocity=95 time=0
EXTRACT: note_on channel=9 note=38 velocity=95 time=0
EXTRACT: note_on channel=9 note=36 velocity=95 time=0
EXTRACT: note_off channel=0 note=53 velocity=95 time=0.19480499999999998
EXTRACT: note_off channel=0 note=48 velocity=95 time=0
EXTRACT: note_off channel=0 note=41 velocity=95 time=0
EXTRACT: note_on channel=0 note=53 velocity=95 time=0
EXTRACT: note_on channel=0 note=48 velocity=95 time=0
EXTRACT: note_on channel=0 note=41 velocity=95 time=0
EXTRACT: note_off channel=2 note=29 velocity=95 time=0
EXTRACT: note_on channel=2 note=29 velocity=95 time=0
EXTRACT: note_off channel=9 note=38 velocity=95 time=0
EXTRACT: note_off channel=9 note=36 velocity=95 time=0
EXTRACT: note_on channel=9 note=38 velocity=95 time=0
EXTRACT: note_off channel=0 note=53 velocity=95 time=0.19480499999999998
EXTRACT: note_off channel=0 note=48 velocity=95 time=0
EXTRACT: note_off channel=0 note=41 velocity=95 time=0
EXTRACT: note_on channel=0 note=53 velocity=95 time=0
EXTRACT: note_on channel=0 note=48 velocity=95 time=0
EXTRACT: note_on channel=0 note=41 velocity=95 time=0
EXTRACT: note_off channel=2 note=29 velocity=95 time=0
EXTRACT: note_on channel=2 note=29 velocity=95 time=0
EXTRACT: note_off channel=9 note=38 velocity=95 time=0
EXTRACT: note_on channel=9 note=38 velocity=95 time=0
EXTRACT: note_off channel=0 note=53 velocity=95 time=0.19480499999999998
EXTRACT: note_off channel=0 note=48 velocity=95 time=0
EXTRACT: note_off channel=0 note=41 velocity=95 time=0
EXTRACT: note_on channel=0 note=53 velocity=95 time=0
EXTRACT: note_on channel=0 note=48 velocity=95 time=0
EXTRACT: note_on channel=0 note=41 velocity=95 time=0
EXTRACT: note_off channel=2 note=29 velocity=95 time=0
EXTRACT: note_on channel=2 note=29 velocity=95 time=0
EXTRACT: note_off channel=9 note=38 velocity=95 time=0
EXTRACT: note_on channel=9 note=38 velocity=95 time=0
EXTRACT: note_off channel=0 note=53 velocity=95 time=0.19480499999999998
EXTRACT: note_off channel=0 note=48 velocity=95 time=0
EXTRACT: note_off channel=0 note=41 velocity=95 time=0
EXTRACT: note_on channel=0 note=53 velocity=95 time=0
EXTRACT: note_on channel=0 note=48 velocity=95 time=0
EXTRACT: note_on channel=0 note=41 velocity=95 time=0
EXTRACT: note_off channel=2 note=29 velocity=95 time=0
EXTRACT: note_on channel=2 note=29 velocity=95 time=0
EXTRACT: note_off channel=9 note=38 velocity=95 time=0
EXTRACT: note_on channel=9 note=38 velocity=95 time=0
EXTRACT: note_on channel=9 note=36 velocity=95 time=0
EXTRACT: note_off channel=0 note=53 velocity=95 time=0.19480499999999998
EXTRACT: note_off channel=0 note=48 velocity=95 time=0
EXTRACT: note_off channel=0 note=41 velocity=95 time=0
EXTRACT: note_on channel=0 note=53 velocity=95 time=0
EXTRACT: note_on channel=0 note=48 velocity=95 time=0
EXTRACT: note_on channel=0 note=41 velocity=95 time=0
EXTRACT: note_off channel=2 note=29 velocity=95 time=0
EXTRACT: note_on channel=2 note=29 velocity=95 time=0
EXTRACT: note_off channel=9 note=38 velocity=95 time=0
EXTRACT: note_off channel=9 note=36 velocity=95 time=0
EXTRACT: note_on channel=9 note=38 velocity=95 time=0
EXTRACT: note_off channel=0 note=53 velocity=95 time=0.19480499999999998
EXTRACT: note_off channel=0 note=48 velocity=95 time=0
EXTRACT: note_off channel=0 note=41 velocity=95 time=0
EXTRACT: note_on channel=0 note=53 velocity=95 time=0
EXTRACT: note_on channel=0 note=48 velocity=95 time=0
EXTRACT: note_on channel=0 note=41 velocity=95 time=0
EXTRACT: note_off channel=2 note=29 velocity=95 time=0
EXTRACT: note_on channel=2 note=29 velocity=95 time=0
EXTRACT: note_off channel=9 note=38 velocity=95 time=0
EXTRACT: note_on channel=9 note=38 velocity=95 time=0
EXTRACT: note_off channel=0 note=53 velocity=95 time=0.19480499999999998
EXTRACT: note_off channel=0 note=48 velocity=95 time=0
EXTRACT: note_off channel=0 note=41 velocity=95 time=0
EXTRACT: note_on channel=0 note=53 velocity=95 time=0
EXTRACT: note_on channel=0 note=48 velocity=95 time=0
EXTRACT: note_on channel=0 note=41 velocity=95 time=0
EXTRACT: note_off channel=2 note=29 velocity=95 time=0
EXTRACT: note_on channel=2 note=29 velocity=95 time=0
EXTRACT: note_off channel=9 note=38 velocity=95 time=0
EXTRACT: note_on channel=9 note=38 velocity=95 time=0
EXTRACT: note_off channel=0 note=53 velocity=95 time=0.19480499999999998
EXTRACT: note_off channel=0 note=48 velocity=95 time=0
EXTRACT: note_off channel=0 note=41 velocity=95 time=0
EXTRACT: note_on channel=0 note=58 velocity=95 time=0
EXTRACT: note_on channel=0 note=53 velocity=95 time=0
EXTRACT: note_on channel=0 note=46 velocity=95 time=0
EXTRACT: note_off channel=2 note=29 velocity=95 time=0
EXTRACT: note_on channel=2 note=34 velocity=95 time=0
EXTRACT: note_off channel=9 note=38 velocity=95 time=0
EXTRACT: note_on channel=9 note=38 velocity=95 time=0
EXTRACT: note_on channel=9 note=36 velocity=95 time=0
EXTRACT: note_off channel=0 note=58 velocity=95 time=0.19480499999999998
EXTRACT: note_off channel=0 note=53 velocity=95 time=0
EXTRACT: note_off channel=0 note=46 velocity=95 time=0
EXTRACT: note_on channel=0 note=58 velocity=95 time=0
EXTRACT: note_on channel=0 note=53 velocity=95 time=0
EXTRACT: note_on channel=0 note=46 velocity=95 time=0
EXTRACT: note_off channel=2 note=34 velocity=95 time=0
EXTRACT: note_on channel=2 note=34 velocity=95 time=0
EXTRACT: note_off channel=9 note=38 velocity=95 time=0
EXTRACT: note_off channel=9 note=36 velocity=95 time=0
EXTRACT: note_on channel=9 note=38 velocity=95 time=0
EXTRACT: note_off channel=0 note=58 velocity=95 time=0.19480499999999998
EXTRACT: note_off channel=0 note=53 velocity=95 time=0
EXTRACT: note_off channel=0 note=46 velocity=95 time=0
EXTRACT: note_on channel=0 note=58 velocity=95 time=0
EXTRACT: note_on channel=0 note=53 velocity=95 time=0
EXTRACT: note_on channel=0 note=46 velocity=95 time=0
EXTRACT: note_off channel=2 note=34 velocity=95 time=0
EXTRACT: note_on channel=2 note=34 velocity=95 time=0
EXTRACT: note_off channel=9 note=38 velocity=95 time=0
EXTRACT: note_on channel=9 note=38 velocity=95 time=0
EXTRACT: note_off channel=0 note=58 velocity=95 time=0.19480499999999998
EXTRACT: note_off channel=0 note=53 velocity=95 time=0
EXTRACT: note_off channel=0 note=46 velocity=95 time=0
EXTRACT: note_on channel=0 note=58 velocity=95 time=0
EXTRACT: note_on channel=0 note=53 velocity=95 time=0
EXTRACT: note_on channel=0 note=46 velocity=95 time=0
EXTRACT: note_off channel=2 note=34 velocity=95 time=0
EXTRACT: note_on channel=2 note=34 velocity=95 time=0
EXTRACT: note_off channel=9 note=38 velocity=95 time=0
EXTRACT: note_on channel=9 note=38 velocity=95 time=0
EXTRACT: note_off channel=0 note=58 velocity=95 time=0.19480499999999998
EXTRACT: note_off channel=0 note=53 velocity=95 time=0
EXTRACT: note_off channel=0 note=46 velocity=95 time=0
EXTRACT: note_on channel=0 note=58 velocity=95 time=0
EXTRACT: note_on channel=0 note=53 velocity=95 time=0
EXTRACT: note_on channel=0 note=46 velocity=95 time=0
EXTRACT: note_off channel=2 note=34 velocity=95 time=0
EXTRACT: note_on channel=2 note=34 velocity=95 time=0
EXTRACT: note_off channel=9 note=38 velocity=95 time=0
EXTRACT: note_on channel=9 note=38 velocity=95 time=0
EXTRACT: note_on channel=9 note=36 velocity=95 time=0
EXTRACT: note_off channel=0 note=58 velocity=95 time=0.19480499999999998
EXTRACT: note_off channel=0 note=53 velocity=95 time=0
EXTRACT: note_off channel=0 note=46 velocity=95 time=0
EXTRACT: note_on channel=0 note=58 velocity=95 time=0
EXTRACT: note_on channel=0 note=53 velocity=95 time=0
EXTRACT: note_on channel=0 note=46 velocity=95 time=0
EXTRACT: note_off channel=2 note=34 velocity=95 time=0
EXTRACT: note_on channel=2 note=34 velocity=95 time=0
EXTRACT: note_off channel=9 note=38 velocity=95 time=0
EXTRACT: note_off channel=9 note=36 velocity=95 time=0
EXTRACT: note_on channel=9 note=38 velocity=95 time=0
EXTRACT: note_off channel=0 note=58 velocity=95 time=0.19480499999999998
EXTRACT: note_off channel=0 note=53 velocity=95 time=0
EXTRACT: note_off channel=0 note=46 velocity=95 time=0
EXTRACT: note_on channel=0 note=58 velocity=95 time=0
EXTRACT: note_on channel=0 note=53 velocity=95 time=0
EXTRACT: note_on channel=0 note=46 velocity=95 time=0
EXTRACT: note_off channel=2 note=34 velocity=95 time=0
EXTRACT: note_on channel=2 note=34 velocity=95 time=0
EXTRACT: note_off channel=9 note=38 velocity=95 time=0
EXTRACT: note_on channel=9 note=38 velocity=95 time=0
EXTRACT: note_off channel=0 note=58 velocity=95 time=0.19480499999999998
EXTRACT: note_off channel=0 note=53 velocity=95 time=0
EXTRACT: note_off channel=0 note=46 velocity=95 time=0
EXTRACT: note_on channel=0 note=58 velocity=95 time=0
EXTRACT: note_on channel=0 note=53 velocity=95 time=0
EXTRACT: note_on channel=0 note=46 velocity=95 time=0
EXTRACT: note_off channel=2 note=34 velocity=95 time=0
EXTRACT: note_on channel=2 note=34 velocity=95 time=0
EXTRACT: note_off channel=9 note=38 velocity=95 time=0
EXTRACT: note_on channel=9 note=38 velocity=95 time=0
EXTRACT: note_off channel=0 note=58 velocity=95 time=0.19480499999999998
EXTRACT: note_off channel=0 note=53 velocity=95 time=0
EXTRACT: note_off channel=0 note=46 velocity=95 time=0
EXTRACT: note_on channel=0 note=68 velocity=95 time=0
EXTRACT: note_on channel=0 note=65 velocity=95 time=0
EXTRACT: note_on channel=0 note=60 velocity=95 time=0
EXTRACT: note_on channel=0 note=53 velocity=95 time=0
EXTRACT: note_off channel=2 note=34 velocity=95 time=0
EXTRACT: note_on channel=2 note=29 velocity=95 time=0
EXTRACT: note_off channel=9 note=38 velocity=95 time=0
EXTRACT: note_on channel=9 note=36 velocity=95 time=0
EXTRACT: note_on channel=9 note=44 velocity=95 time=0
EXTRACT: note_off channel=0 note=68 velocity=95 time=0.38960999999999996
EXTRACT: note_off channel=0 note=65 velocity=95 time=0
EXTRACT: note_off channel=0 note=60 velocity=95 time=0
EXTRACT: note_off channel=0 note=53 velocity=95 time=0
EXTRACT: note_on channel=0 note=68 velocity=95 time=0
EXTRACT: note_on channel=0 note=65 velocity=95 time=0
EXTRACT: note_on channel=0 note=60 velocity=95 time=0
EXTRACT: note_on channel=0 note=53 velocity=95 time=0
EXTRACT: note_off channel=9 note=36 velocity=95 time=0
EXTRACT: note_off channel=9 note=44 velocity=95 time=0
EXTRACT: note_on channel=9 note=44 velocity=95 time=0
EXTRACT: note_off channel=0 note=68 velocity=95 time=0.19480499999999998
EXTRACT: note_off channel=0 note=65 velocity=95 time=0
EXTRACT: note_off channel=0 note=60 velocity=95 time=0
EXTRACT: note_off channel=0 note=53 velocity=95 time=0
EXTRACT: note_on channel=0 note=68 velocity=95 time=0
EXTRACT: note_on channel=0 note=65 velocity=95 time=0
EXTRACT: note_on channel=0 note=60 velocity=95 time=0
EXTRACT: note_on channel=0 note=53 velocity=95 time=0
EXTRACT: note_off channel=2 note=29 velocity=95 time=0
EXTRACT: note_on channel=2 note=36 velocity=95 time=0
EXTRACT: note_off channel=9 note=44 velocity=95 time=0
EXTRACT: note_on channel=9 note=36 velocity=95 time=0
EXTRACT: note_off channel=0 note=68 velocity=95 time=0.19480499999999998
EXTRACT: note_off channel=0 note=65 velocity=95 time=0
EXTRACT: note_off channel=0 note=60 velocity=95 time=0
EXTRACT: note_off channel=0 note=53 velocity=95 time=0
EXTRACT: note_on channel=0 note=68 velocity=95 time=0
EXTRACT: note_on channel=0 note=65 velocity=95 time=0
EXTRACT: note_on channel=0 note=60 velocity=95 time=0
EXTRACT: note_on channel=0 note=53 velocity=95 time=0
EXTRACT: note_off channel=2 note=36 velocity=95 time=0
EXTRACT: note_on channel=2 note=36 velocity=95 time=0
EXTRACT: note_off channel=9 note=36 velocity=95 time=0
EXTRACT: note_on channel=9 note=38 velocity=95 time=0
EXTRACT: note_on channel=9 note=54 velocity=95 time=0
EXTRACT: note_on channel=9 note=44 velocity=95 time=0
EXTRACT: note_off channel=0 note=68 velocity=95 time=0.19480499999999998
EXTRACT: note_off channel=0 note=65 velocity=95 time=0
EXTRACT: note_off channel=0 note=60 velocity=95 time=0
EXTRACT: note_off channel=0 note=53 velocity=95 time=0
EXTRACT: note_on channel=0 note=68 velocity=95 time=0
EXTRACT: note_on channel=0 note=65 velocity=95 time=0
EXTRACT: note_on channel=0 note=60 velocity=95 time=0
EXTRACT: note_on channel=0 note=53 velocity=95 time=0
EXTRACT: note_off channel=2 note=36 velocity=95 time=0
EXTRACT: note_on channel=2 note=36 velocity=95 time=0
EXTRACT: note_off channel=0 note=68 velocity=95 time=0.19480499999999998
EXTRACT: note_off channel=0 note=65 velocity=95 time=0
EXTRACT: note_off channel=0 note=60 velocity=95 time=0
EXTRACT: note_off channel=0 note=53 velocity=95 time=0
EXTRACT: note_on channel=0 note=59 velocity=95 time=0
EXTRACT: note_on channel=0 note=55 velocity=95 time=0
EXTRACT: note_on channel=0 note=50 velocity=95 time=0
EXTRACT: note_on channel=0 note=45 velocity=95 time=0
EXTRACT: note_off channel=2 note=36 velocity=95 time=0
EXTRACT: note_on channel=2 note=36 velocity=95 time=0
EXTRACT: note_off channel=9 note=38 velocity=95 time=0
EXTRACT: note_off channel=9 note=54 velocity=95 time=0
EXTRACT: note_off channel=9 note=44 velocity=95 time=0
EXTRACT: note_on channel=9 note=44 velocity=95 time=0
EXTRACT: note_off channel=0 note=59 velocity=95 time=0.030844124999999997
EXTRACT: note_off channel=0 note=55 velocity=95 time=0
EXTRACT: note_off channel=0 note=50 velocity=95 time=0
EXTRACT: note_off channel=0 note=45 velocity=95 time=0
EXTRACT: note_on channel=0 note=59 velocity=95 time=0.16396087499999998
EXTRACT: note_on channel=0 note=55 velocity=95 time=0
EXTRACT: note_on channel=0 note=50 velocity=95 time=0
EXTRACT: note_on channel=0 note=45 velocity=95 time=0
EXTRACT: note_off channel=2 note=36 velocity=95 time=0
EXTRACT: note_on channel=2 note=36 velocity=95 time=0
EXTRACT: note_off channel=9 note=44 velocity=95 time=0
EXTRACT: note_on channel=9 note=36 velocity=95 time=0
EXTRACT: note_off channel=0 note=59 velocity=95 time=0.030844124999999997
EXTRACT: note_off channel=0 note=55 velocity=95 time=0
EXTRACT: note_off channel=0 note=50 velocity=95 time=0
EXTRACT: note_off channel=0 note=45 velocity=95 time=0
EXTRACT: note_on channel=0 note=70 velocity=95 time=0.16396087499999998
EXTRACT: note_on channel=0 note=65 velocity=95 time=0
EXTRACT: note_on channel=0 note=61 velocity=95 time=0
EXTRACT: note_on channel=0 note=58 velocity=95 time=0
EXTRACT: note_on channel=0 note=53 velocity=95 time=0
EXTRACT: note_on channel=0 note=46 velocity=95 time=0
EXTRACT: note_off channel=2 note=36 velocity=95 time=0
EXTRACT: note_on channel=2 note=34 velocity=95 time=0
EXTRACT: note_off channel=9 note=36 velocity=95 time=0
EXTRACT: note_on channel=9 note=36 velocity=95 time=0
EXTRACT: note_on channel=9 note=44 velocity=95 time=0
EXTRACT: note_off channel=0 note=70 velocity=95 time=0.38960999999999996
EXTRACT: note_off channel=0 note=65 velocity=95 time=0
EXTRACT: note_off channel=0 note=61 velocity=95 time=0
EXTRACT: note_off channel=0 note=58 velocity=95 time=0
EXTRACT: note_off channel=0 note=53 velocity=95 time=0
EXTRACT: note_off channel=0 note=46 velocity=95 time=0
EXTRACT: note_on channel=0 note=70 velocity=95 time=0
EXTRACT: note_on channel=0 note=65 velocity=95 time=0
EXTRACT: note_on channel=0 note=61 velocity=95 time=0
EXTRACT: note_on channel=0 note=58 velocity=95 time=0
EXTRACT: note_on channel=0 note=53 velocity=95 time=0
EXTRACT: note_on channel=0 note=46 velocity=95 time=0
EXTRACT: note_off channel=2 note=34 velocity=95 time=0
EXTRACT: note_on channel=2 note=34 velocity=95 time=0
EXTRACT: note_off channel=9 note=36 velocity=95 time=0
EXTRACT: note_off channel=9 note=44 velocity=95 time=0
EXTRACT: note_on channel=9 note=44 velocity=95 time=0
EXTRACT: note_off channel=0 note=70 velocity=95 time=0.19480499999999998
EXTRACT: note_off channel=0 note=65 velocity=95 time=0
EXTRACT: note_off channel=0 note=61 velocity=95 time=0
EXTRACT: note_off channel=0 note=58 velocity=95 time=0
EXTRACT: note_off channel=0 note=53 velocity=95 time=0
EXTRACT: note_off channel=0 note=46 velocity=95 time=0
EXTRACT: note_on channel=0 note=70 velocity=95 time=0
EXTRACT: note_on channel=0 note=65 velocity=95 time=0
EXTRACT: note_on channel=0 note=61 velocity=95 time=0
EXTRACT: note_on channel=0 note=58 velocity=95 time=0
EXTRACT: note_on channel=0 note=53 velocity=95 time=0
EXTRACT: note_on channel=0 note=46 velocity=95 time=0
EXTRACT: note_off channel=9 note=44 velocity=95 time=0
EXTRACT: note_on channel=9 note=36 velocity=95 time=0
EXTRACT: note_off channel=0 note=70 velocity=95 time=0.19480499999999998
EXTRACT: note_off channel=0 note=65 velocity=95 time=0
EXTRACT: note_off channel=0 note=61 velocity=95 time=0
EXTRACT: note_off channel=0 note=58 velocity=95 time=0
EXTRACT: note_off channel=0 note=53 velocity=95 time=0
EXTRACT: note_off channel=0 note=46 velocity=95 time=0
EXTRACT: note_on channel=0 note=70 velocity=95 time=0
EXTRACT: note_on channel=0 note=65 velocity=95 time=0
EXTRACT: note_on channel=0 note=61 velocity=95 time=0
EXTRACT: note_on channel=0 note=58 velocity=95 time=0
EXTRACT: note_on channel=0 note=53 velocity=95 time=0
EXTRACT: note_on channel=0 note=46 velocity=95 time=0
EXTRACT: note_off channel=2 note=34 velocity=95 time=0
EXTRACT: note_on channel=2 note=29 velocity=95 time=0
EXTRACT: note_off channel=9 note=36 velocity=95 time=0
EXTRACT: note_on channel=9 note=38 velocity=95 time=0
EXTRACT: note_on channel=9 note=54 velocity=95 time=0
EXTRACT: note_on channel=9 note=44 velocity=95 time=0
EXTRACT: note_off channel=0 note=70 velocity=95 time=0.19480499999999998
EXTRACT: note_off channel=0 note=65 velocity=95 time=0
EXTRACT: note_off channel=0 note=61 velocity=95 time=0
EXTRACT: note_off channel=0 note=58 velocity=95 time=0
EXTRACT: note_off channel=0 note=53 velocity=95 time=0
EXTRACT: note_off channel=0 note=46 velocity=95 time=0
EXTRACT: note_on channel=0 note=70 velocity=95 time=0
EXTRACT: note_on channel=0 note=65 velocity=95 time=0
EXTRACT: note_on channel=0 note=61 velocity=95 time=0
EXTRACT: note_on channel=0 note=58 velocity=95 time=0
EXTRACT: note_on channel=0 note=53 velocity=95 time=0
EXTRACT: note_on channel=0 note=46 velocity=95 time=0
EXTRACT: note_off channel=0 note=70 velocity=95 time=0.19480499999999998
EXTRACT: note_off channel=0 note=65 velocity=95 time=0
EXTRACT: note_off channel=0 note=61 velocity=95 time=0
EXTRACT: note_off channel=0 note=58 velocity=95 time=0
EXTRACT: note_off channel=0 note=53 velocity=95 time=0
EXTRACT: note_off channel=0 note=46 velocity=95 time=0
EXTRACT: note_on channel=0 note=64 velocity=95 time=0
EXTRACT: note_on channel=0 note=59 velocity=95 time=0
EXTRACT: note_on channel=0 note=55 velocity=95 time=0
EXTRACT: note_on channel=0 note=50 velocity=95 time=0
EXTRACT: note_on channel=0 note=45 velocity=95 time=0
EXTRACT: note_on channel=0 note=40 velocity=95 time=0
EXTRACT: note_off channel=9 note=38 velocity=95 time=0
EXTRACT: note_off channel=9 note=54 velocity=95 time=0
EXTRACT: note_off channel=9 note=44 velocity=95 time=0
EXTRACT: note_on channel=9 note=44 velocity=95 time=0
EXTRACT: note_off channel=0 note=64 velocity=95 time=0.030844124999999997
EXTRACT: note_off channel=0 note=59 velocity=95 time=0
EXTRACT: note_off channel=0 note=55 velocity=95 time=0
EXTRACT: note_off channel=0 note=50 velocity=95 time=0
EXTRACT: note_off channel=0 note=45 velocity=95 time=0
EXTRACT: note_off channel=0 note=40 velocity=95 time=0
EXTRACT: note_on channel=0 note=64 velocity=95 time=0.16396087499999998
EXTRACT: note_on channel=0 note=59 velocity=95 time=0
EXTRACT: note_on channel=0 note=55 velocity=95 time=0
EXTRACT: note_on channel=0 note=50 velocity=95 time=0
EXTRACT: note_on channel=0 note=45 velocity=95 time=0
EXTRACT: note_on channel=0 note=40 velocity=95 time=0
EXTRACT: note_off channel=9 note=44 velocity=95 time=0
EXTRACT: note_off channel=0 note=64 velocity=95 time=0.030844124999999997
EXTRACT: note_off channel=0 note=59 velocity=95 time=0
EXTRACT: note_off channel=0 note=55 velocity=95 time=0
EXTRACT: note_off channel=0 note=50 velocity=95 time=0
EXTRACT: note_off channel=0 note=45 velocity=95 time=0
EXTRACT: note_off channel=0 note=40 velocity=95 time=0
EXTRACT: note_on channel=0 note=67 velocity=95 time=0.16396087499999998
EXTRACT: note_on channel=0 note=63 velocity=95 time=0
EXTRACT: note_on channel=0 note=58 velocity=95 time=0
EXTRACT: note_on channel=0 note=51 velocity=95 time=0
EXTRACT: note_off channel=2 note=29 velocity=95 time=0
EXTRACT: note_on channel=2 note=39 velocity=95 time=0
EXTRACT: note_on channel=9 note=36 velocity=95 time=0
EXTRACT: note_on channel=9 note=44 velocity=95 time=0
EXTRACT: note_off channel=0 note=67 velocity=95 time=0.38960999999999996
EXTRACT: note_off channel=0 note=63 velocity=95 time=0
EXTRACT: note_off channel=0 note=58 velocity=95 time=0
EXTRACT: note_off channel=0 note=51 velocity=95 time=0
EXTRACT: note_on channel=0 note=67 velocity=95 time=0
EXTRACT: note_on channel=0 note=63 velocity=95 time=0
EXTRACT: note_on channel=0 note=58 velocity=95 time=0
EXTRACT: note_on channel=0 note=51 velocity=95 time=0
EXTRACT: note_off channel=2 note=39 velocity=95 time=0
EXTRACT: note_on channel=2 note=46 velocity=95 time=0
EXTRACT: note_off channel=9 note=36 velocity=95 time=0
EXTRACT: note_off channel=9 note=44 velocity=95 time=0
EXTRACT: note_on channel=9 note=44 velocity=95 time=0
EXTRACT: note_off channel=0 note=67 velocity=95 time=0.19480499999999998
EXTRACT: note_off channel=0 note=63 velocity=95 time=0
EXTRACT: note_off channel=0 note=58 velocity=95 time=0
EXTRACT: note_off channel=0 note=51 velocity=95 time=0
EXTRACT: note_on channel=0 note=67 velocity=95 time=0
EXTRACT: note_on channel=0 note=63 velocity=95 time=0
EXTRACT: note_on channel=0 note=58 velocity=95 time=0
EXTRACT: note_on channel=0 note=51 velocity=95 time=0
EXTRACT: note_off channel=2 note=46 velocity=95 time=0
EXTRACT: note_on channel=2 note=46 velocity=95 time=0
EXTRACT: note_off channel=9 note=44 velocity=95 time=0
EXTRACT: note_on channel=9 note=36 velocity=95 time=0
EXTRACT: note_off channel=0 note=67 velocity=95 time=0.19480499999999998
EXTRACT: note_off channel=0 note=63 velocity=95 time=0
EXTRACT: note_off channel=0 note=58 velocity=95 time=0
EXTRACT: note_off channel=0 note=51 velocity=95 time=0
EXTRACT: note_on channel=0 note=67 velocity=95 time=0
EXTRACT: note_on channel=0 note=63 velocity=95 time=0
EXTRACT: note_on channel=0 note=58 velocity=95 time=0
EXTRACT: note_on channel=0 note=51 velocity=95 time=0
EXTRACT: note_off channel=2 note=46 velocity=95 time=0
EXTRACT: note_on channel=2 note=46 velocity=95 time=0
EXTRACT: note_off channel=9 note=36 velocity=95 time=0
EXTRACT: note_on channel=9 note=38 velocity=95 time=0
EXTRACT: note_on channel=9 note=54 velocity=95 time=0
EXTRACT: note_on channel=9 note=44 velocity=95 time=0
EXTRACT: note_off channel=0 note=67 velocity=95 time=0.19480499999999998
EXTRACT: note_off channel=0 note=63 velocity=95 time=0
EXTRACT: note_off channel=0 note=58 velocity=95 time=0
EXTRACT: note_off channel=0 note=51 velocity=95 time=0
EXTRACT: note_on channel=0 note=67 velocity=95 time=0
EXTRACT: note_on channel=0 note=63 velocity=95 time=0
EXTRACT: note_on channel=0 note=58 velocity=95 time=0
EXTRACT: note_on channel=0 note=51 velocity=95 time=0
EXTRACT: note_off channel=2 note=46 velocity=95 time=0
EXTRACT: note_on channel=2 note=46 velocity=95 time=0
EXTRACT: note_off channel=0 note=67 velocity=95 time=0.19480499999999998
EXTRACT: note_off channel=0 note=63 velocity=95 time=0
EXTRACT: note_off channel=0 note=58 velocity=95 time=0
EXTRACT: note_off channel=0 note=51 velocity=95 time=0
EXTRACT: note_on channel=0 note=59 velocity=95 time=0
EXTRACT: note_on channel=0 note=55 velocity=95 time=0
EXTRACT: note_on channel=0 note=50 velocity=95 time=0
EXTRACT: note_on channel=0 note=45 velocity=95 time=0
EXTRACT: note_off channel=2 note=46 velocity=95 time=0
EXTRACT: note_on channel=2 note=34 velocity=95 time=0
EXTRACT: note_off channel=9 note=38 velocity=95 time=0
EXTRACT: note_off channel=9 note=54 velocity=95 time=0
EXTRACT: note_off channel=9 note=44 velocity=95 time=0
EXTRACT: note_on channel=9 note=44 velocity=95 time=0
EXTRACT: note_off channel=0 note=59 velocity=95 time=0.030844124999999997
EXTRACT: note_off channel=0 note=55 velocity=95 time=0
EXTRACT: note_off channel=0 note=50 velocity=95 time=0
EXTRACT: note_off channel=0 note=45 velocity=95 time=0
EXTRACT: note_on channel=0 note=59 velocity=95 time=0.16396087499999998
EXTRACT: note_on channel=0 note=55 velocity=95 time=0
EXTRACT: note_on channel=0 note=50 velocity=95 time=0
EXTRACT: note_on channel=0 note=45 velocity=95 time=0
EXTRACT: note_off channel=2 note=34 velocity=95 time=0
EXTRACT: note_on channel=2 note=35 velocity=95 time=0
EXTRACT: note_off channel=9 note=44 velocity=95 time=0
EXTRACT: note_on channel=9 note=36 velocity=95 time=0
EXTRACT: note_off channel=0 note=59 velocity=95 time=0.030844124999999997
EXTRACT: note_off channel=0 note=55 velocity=95 time=0
EXTRACT: note_off channel=0 note=50 velocity=95 time=0
EXTRACT: note_off channel=0 note=45 velocity=95 time=0
EXTRACT: note_on channel=0 note=72 velocity=95 time=0.16396087499999998
EXTRACT: note_on channel=0 note=67 velocity=95 time=0
EXTRACT: note_on channel=0 note=64 velocity=95 time=0
EXTRACT: note_on channel=0 note=60 velocity=95 time=0
EXTRACT: note_on channel=0 note=55 velocity=95 time=0
EXTRACT: note_on channel=0 note=48 velocity=95 time=0
EXTRACT: note_off channel=2 note=35 velocity=95 time=0
EXTRACT: note_on channel=2 note=36 velocity=95 time=0
EXTRACT: note_off channel=9 note=36 velocity=95 time=0
EXTRACT: note_on channel=9 note=36 velocity=95 time=0
EXTRACT: note_on channel=9 note=44 velocity=95 time=0
EXTRACT: note_off channel=0 note=72 velocity=95 time=0.38960999999999996
EXTRACT: note_off channel=0 note=67 velocity=95 time=0
EXTRACT: note_off channel=0 note=64 velocity=95 time=0
EXTRACT: note_off channel=0 note=60 velocity=95 time=0
EXTRACT: note_off channel=0 note=55 velocity=95 time=0
EXTRACT: note_off channel=0 note=48 velocity=95 time=0
EXTRACT: note_on channel=0 note=72 velocity=95 time=0
EXTRACT: note_on channel=0 note=67 velocity=95 time=0
EXTRACT: note_on channel=0 note=64 velocity=95 time=0
EXTRACT: note_on channel=0 note=60 velocity=95 time=0
EXTRACT: note_on channel=0 note=55 velocity=95 time=0
EXTRACT: note_on channel=0 note=48 velocity=95 time=0
EXTRACT: note_off channel=2 note=36 velocity=95 time=0
EXTRACT: note_on channel=2 note=36 velocity=95 time=0
EXTRACT: note_off channel=9 note=36 velocity=95 time=0
EXTRACT: note_off channel=9 note=44 velocity=95 time=0
EXTRACT: note_on channel=9 note=44 velocity=95 time=0
EXTRACT: note_off channel=0 note=72 velocity=95 time=0.19480499999999998
EXTRACT: note_off channel=0 note=67 velocity=95 time=0
EXTRACT: note_off channel=0 note=64 velocity=95 time=0
EXTRACT: note_off channel=0 note=60 velocity=95 time=0
EXTRACT: note_off channel=0 note=55 velocity=95 time=0
EXTRACT: note_off channel=0 note=48 velocity=95 time=0
EXTRACT: note_on channel=0 note=72 velocity=95 time=0
EXTRACT: note_on channel=0 note=67 velocity=95 time=0
EXTRACT: note_on channel=0 note=64 velocity=95 time=0
EXTRACT: note_on channel=0 note=60 velocity=95 time=0
EXTRACT: note_on channel=0 note=55 velocity=95 time=0
EXTRACT: note_on channel=0 note=48 velocity=95 time=0
EXTRACT: note_off channel=9 note=44 velocity=95 time=0
EXTRACT: note_on channel=9 note=36 velocity=95 time=0
EXTRACT: note_off channel=0 note=72 velocity=95 time=0.19480499999999998
EXTRACT: note_off channel=0 note=67 velocity=95 time=0
EXTRACT: note_off channel=0 note=64 velocity=95 time=0
EXTRACT: note_off channel=0 note=60 velocity=95 time=0
EXTRACT: note_off channel=0 note=55 velocity=95 time=0
EXTRACT: note_off channel=0 note=48 velocity=95 time=0
EXTRACT: note_on channel=0 note=72 velocity=95 time=0
EXTRACT: note_on channel=0 note=67 velocity=95 time=0
EXTRACT: note_on channel=0 note=64 velocity=95 time=0
EXTRACT: note_on channel=0 note=60 velocity=95 time=0
EXTRACT: note_on channel=0 note=55 velocity=95 time=0
EXTRACT: note_on channel=0 note=48 velocity=95 time=0
EXTRACT: note_off channel=2 note=36 velocity=95 time=0
EXTRACT: note_on channel=2 note=31 velocity=95 time=0
EXTRACT: note_off channel=9 note=36 velocity=95 time=0
EXTRACT: note_on channel=9 note=38 velocity=95 time=0
EXTRACT: note_on channel=9 note=54 velocity=95 time=0
EXTRACT: note_on channel=9 note=44 velocity=95 time=0
EXTRACT: note_off channel=0 note=72 velocity=95 time=0.19480499999999998
EXTRACT: note_off channel=0 note=67 velocity=95 time=0
EXTRACT: note_off channel=0 note=64 velocity=95 time=0
EXTRACT: note_off channel=0 note=60 velocity=95 time=0
EXTRACT: note_off channel=0 note=55 velocity=95 time=0
EXTRACT: note_off channel=0 note=48 velocity=95 time=0
EXTRACT: note_on channel=0 note=72 velocity=95 time=0
EXTRACT: note_on channel=0 note=67 velocity=95 time=0
EXTRACT: note_on channel=0 note=64 velocity=95 time=0
EXTRACT: note_on channel=0 note=60 velocity=95 time=0
EXTRACT: note_on channel=0 note=55 velocity=95 time=0
EXTRACT: note_on channel=0 note=48 velocity=95 time=0
EXTRACT: note_off channel=0 note=72 velocity=95 time=0.19480499999999998
EXTRACT: note_off channel=0 note=67 velocity=95 time=0
EXTRACT: note_off channel=0 note=64 velocity=95 time=0
EXTRACT: note_off channel=0 note=60 velocity=95 time=0
EXTRACT: note_off channel=0 note=55 velocity=95 time=0
EXTRACT: note_off channel=0 note=48 velocity=95 time=0
EXTRACT: note_on channel=0 note=64 velocity=95 time=0
EXTRACT: note_on channel=0 note=59 velocity=95 time=0
EXTRACT: note_on channel=0 note=55 velocity=95 time=0
EXTRACT: note_on channel=0 note=50 velocity=95 time=0
EXTRACT: note_on channel=0 note=45 velocity=95 time=0
EXTRACT: note_on channel=0 note=40 velocity=95 time=0
EXTRACT: note_off channel=2 note=31 velocity=95 time=0
EXTRACT: note_on channel=2 note=36 velocity=95 time=0
EXTRACT: note_off channel=9 note=38 velocity=95 time=0
EXTRACT: note_off channel=9 note=54 velocity=95 time=0
EXTRACT: note_off channel=9 note=44 velocity=95 time=0
EXTRACT: note_on channel=9 note=44 velocity=95 time=0
EXTRACT: note_off channel=0 note=64 velocity=95 time=0.030844124999999997
EXTRACT: note_off channel=0 note=59 velocity=95 time=0
EXTRACT: note_off channel=0 note=55 velocity=95 time=0
EXTRACT: note_off channel=0 note=50 velocity=95 time=0
EXTRACT: note_off channel=0 note=45 velocity=95 time=0
EXTRACT: note_off channel=0 note=40 velocity=95 time=0
EXTRACT: note_on channel=0 note=64 velocity=95 time=0.16396087499999998
EXTRACT: note_on channel=0 note=59 velocity=95 time=0
EXTRACT: note_on channel=0 note=55 velocity=95 time=0
EXTRACT: note_on channel=0 note=50 velocity=95 time=0
EXTRACT: note_on channel=0 note=45 velocity=95 time=0
EXTRACT: note_on channel=0 note=40 velocity=95 time=0
EXTRACT: note_off channel=2 note=36 velocity=95 time=0
EXTRACT: note_on channel=2 note=35 velocity=95 time=0
EXTRACT: note_off channel=9 note=44 velocity=95 time=0
EXTRACT: note_off channel=0 note=64 velocity=95 time=0.030844124999999997
EXTRACT: note_off channel=0 note=59 velocity=95 time=0
EXTRACT: note_off channel=0 note=55 velocity=95 time=0
EXTRACT: note_off channel=0 note=50 velocity=95 time=0
EXTRACT: note_off channel=0 note=45 velocity=95 time=0
EXTRACT: note_off channel=0 note=40 velocity=95 time=0
EXTRACT: note_on channel=0 note=70 velocity=95 time=0.16396087499999998
EXTRACT: note_on channel=0 note=65 velocity=95 time=0
EXTRACT: note_on channel=0 note=61 velocity=95 time=0
EXTRACT: note_on channel=0 note=58 velocity=95 time=0
EXTRACT: note_on channel=0 note=53 velocity=95 time=0
EXTRACT: note_on channel=0 note=46 velocity=95 time=0
EXTRACT: note_off channel=2 note=35 velocity=95 time=0
EXTRACT: note_on channel=2 note=34 velocity=95 time=0
EXTRACT: note_on channel=9 note=36 velocity=95 time=0
EXTRACT: note_on channel=9 note=44 velocity=95 time=0
EXTRACT: note_off channel=0 note=70 velocity=95 time=0.38960999999999996
EXTRACT: note_off channel=0 note=65 velocity=95 time=0
EXTRACT: note_off channel=0 note=61 velocity=95 time=0
EXTRACT: note_off channel=0 note=58 velocity=95 time=0
EXTRACT: note_off channel=0 note=53 velocity=95 time=0
EXTRACT: note_off channel=0 note=46 velocity=95 time=0
EXTRACT: note_on channel=0 note=70 velocity=95 time=0
EXTRACT: note_on channel=0 note=65 velocity=95 time=0
EXTRACT: note_on channel=0 note=61 velocity=95 time=0
EXTRACT: note_on channel=0 note=58 velocity=95 time=0
EXTRACT: note_on channel=0 note=53 velocity=95 time=0
EXTRACT: note_on channel=0 note=46 velocity=95 time=0
EXTRACT: note_off channel=2 note=34 velocity=95 time=0
EXTRACT: note_on channel=2 note=41 velocity=95 time=0
EXTRACT: note_off channel=9 note=36 velocity=95 time=0
EXTRACT: note_off channel=9 note=44 velocity=95 time=0
EXTRACT: note_on channel=9 note=44 velocity=95 time=0
EXTRACT: note_off channel=0 note=70 velocity=95 time=0.19480499999999998
EXTRACT: note_off channel=0 note=65 velocity=95 time=0
EXTRACT: note_off channel=0 note=61 velocity=95 time=0
EXTRACT: note_off channel=0 note=58 velocity=95 time=0
EXTRACT: note_off channel=0 note=53 velocity=95 time=0
EXTRACT: note_off channel=0 note=46 velocity=95 time=0
EXTRACT: note_on channel=0 note=70 velocity=95 time=0
EXTRACT: note_on channel=0 note=65 velocity=95 time=0
EXTRACT: note_on channel=0 note=61 velocity=95 time=0
EXTRACT: note_on channel=0 note=58 velocity=95 time=0
EXTRACT: note_on channel=0 note=53 velocity=95 time=0
EXTRACT: note_on channel=0 note=46 velocity=95 time=0
EXTRACT: note_off channel=2 note=41 velocity=95 time=0
EXTRACT: note_on channel=2 note=41 velocity=95 time=0
EXTRACT: note_off channel=9 note=44 velocity=95 time=0
EXTRACT: note_on channel=9 note=36 velocity=95 time=0
EXTRACT: note_off channel=0 note=70 velocity=95 time=0.19480499999999998
EXTRACT: note_off channel=0 note=65 velocity=95 time=0
EXTRACT: note_off channel=0 note=61 velocity=95 time=0
EXTRACT: note_off channel=0 note=58 velocity=95 time=0
EXTRACT: note_off channel=0 note=53 velocity=95 time=0
EXTRACT: note_off channel=0 note=46 velocity=95 time=0
EXTRACT: note_on channel=0 note=70 velocity=95 time=0
EXTRACT: note_on channel=0 note=65 velocity=95 time=0
EXTRACT: note_on channel=0 note=61 velocity=95 time=0
EXTRACT: note_on channel=0 note=58 velocity=95 time=0
EXTRACT: note_on channel=0 note=53 velocity=95 time=0
EXTRACT: note_on channel=0 note=46 velocity=95 time=0
EXTRACT: note_off channel=2 note=41 velocity=95 time=0
EXTRACT: note_on channel=2 note=41 velocity=95 time=0
EXTRACT: note_off channel=9 note=36 velocity=95 time=0
EXTRACT: note_on channel=9 note=38 velocity=95 time=0
EXTRACT: note_on channel=9 note=54 velocity=95 time=0
EXTRACT: note_on channel=9 note=44 velocity=95 time=0
EXTRACT: note_off channel=0 note=70 velocity=95 time=0.19480499999999998
EXTRACT: note_off channel=0 note=65 velocity=95 time=0
EXTRACT: note_off channel=0 note=61 velocity=95 time=0
EXTRACT: note_off channel=0 note=58 velocity=95 time=0
EXTRACT: note_off channel=0 note=53 velocity=95 time=0
EXTRACT: note_off channel=0 note=46 velocity=95 time=0
EXTRACT: note_on channel=0 note=70 velocity=95 time=0
EXTRACT: note_on channel=0 note=65 velocity=95 time=0
EXTRACT: note_on channel=0 note=61 velocity=95 time=0
EXTRACT: note_on channel=0 note=58 velocity=95 time=0
EXTRACT: note_on channel=0 note=53 velocity=95 time=0
EXTRACT: note_on channel=0 note=46 velocity=95 time=0
EXTRACT: note_off channel=2 note=41 velocity=95 time=0
EXTRACT: note_on channel=2 note=41 velocity=95 time=0
EXTRACT: note_off channel=0 note=70 velocity=95 time=0.19480499999999998
EXTRACT: note_off channel=0 note=65 velocity=95 time=0
EXTRACT: note_off channel=0 note=61 velocity=95 time=0
EXTRACT: note_off channel=0 note=58 velocity=95 time=0
EXTRACT: note_off channel=0 note=53 velocity=95 time=0
EXTRACT: note_off channel=0 note=46 velocity=95 time=0
EXTRACT: note_on channel=0 note=64 velocity=95 time=0
EXTRACT: note_on channel=0 note=59 velocity=95 time=0
EXTRACT: note_on channel=0 note=55 velocity=95 time=0
EXTRACT: note_on channel=0 note=50 velocity=95 time=0
EXTRACT: note_on channel=0 note=45 velocity=95 time=0
EXTRACT: note_on channel=0 note=40 velocity=95 time=0
EXTRACT: note_off channel=2 note=41 velocity=95 time=0
EXTRACT: note_on channel=2 note=34 velocity=95 time=0
EXTRACT: note_off channel=9 note=38 velocity=95 time=0
EXTRACT: note_off channel=9 note=54 velocity=95 time=0
EXTRACT: note_off channel=9 note=44 velocity=95 time=0
EXTRACT: note_on channel=9 note=44 velocity=95 time=0
EXTRACT: note_off channel=0 note=64 velocity=95 time=0.030844124999999997
EXTRACT: note_off channel=0 note=59 velocity=95 time=0
EXTRACT: note_off channel=0 note=55 velocity=95 time=0
EXTRACT: note_off channel=0 note=50 velocity=95 time=0
EXTRACT: note_off channel=0 note=45 velocity=95 time=0
EXTRACT: note_off channel=0 note=40 velocity=95 time=0
EXTRACT: note_on channel=0 note=64 velocity=95 time=0.16396087499999998
EXTRACT: note_on channel=0 note=59 velocity=95 time=0
EXTRACT: note_on channel=0 note=55 velocity=95 time=0
EXTRACT: note_on channel=0 note=50 velocity=95 time=0
EXTRACT: note_on channel=0 note=45 velocity=95 time=0
EXTRACT: note_on channel=0 note=40 velocity=95 time=0
EXTRACT: note_off channel=2 note=34 velocity=95 time=0
EXTRACT: note_on channel=2 note=35 velocity=95 time=0
EXTRACT: note_off channel=9 note=44 velocity=95 time=0
EXTRACT: note_on channel=9 note=36 velocity=95 time=0
EXTRACT: note_off channel=0 note=64 velocity=95 time=0.030844124999999997
EXTRACT: note_off channel=0 note=59 velocity=95 time=0
EXTRACT: note_off channel=0 note=55 velocity=95 time=0
EXTRACT: note_off channel=0 note=50 velocity=95 time=0
EXTRACT: note_off channel=0 note=45 velocity=95 time=0
EXTRACT: note_off channel=0 note=40 velocity=95 time=0
EXTRACT: note_on channel=0 note=72 velocity=95 time=0.16396087499999998
EXTRACT: note_on channel=0 note=67 velocity=95 time=0
EXTRACT: note_on channel=0 note=64 velocity=95 time=0
EXTRACT: note_on channel=0 note=60 velocity=95 time=0
EXTRACT: note_on channel=0 note=55 velocity=95 time=0
EXTRACT: note_on channel=0 note=48 velocity=95 time=0
EXTRACT: note_off channel=2 note=35 velocity=95 time=0
EXTRACT: note_on channel=2 note=36 velocity=95 time=0
EXTRACT: note_off channel=9 note=36 velocity=95 time=0
EXTRACT: note_on channel=9 note=36 velocity=95 time=0
EXTRACT: note_on channel=9 note=44 velocity=95 time=0
EXTRACT: note_off channel=0 note=72 velocity=95 time=0.38960999999999996
EXTRACT: note_off channel=0 note=67 velocity=95 time=0
EXTRACT: note_off channel=0 note=64 velocity=95 time=0
EXTRACT: note_off channel=0 note=60 velocity=95 time=0
EXTRACT: note_off channel=0 note=55 velocity=95 time=0
EXTRACT: note_off channel=0 note=48 velocity=95 time=0
EXTRACT: note_on channel=0 note=64 velocity=95 time=0
EXTRACT: note_on channel=0 note=59 velocity=95 time=0
EXTRACT: note_on channel=0 note=55 velocity=95 time=0
EXTRACT: note_on channel=0 note=50 velocity=95 time=0
EXTRACT: note_on channel=0 note=45 velocity=95 time=0
EXTRACT: note_on channel=0 note=40 velocity=95 time=0
EXTRACT: note_off channel=2 note=36 velocity=95 time=0
EXTRACT: note_off channel=9 note=36 velocity=95 time=0
EXTRACT: note_off channel=9 note=44 velocity=95 time=0
EXTRACT: note_on channel=9 note=44 velocity=95 time=0
EXTRACT: note_off channel=0 note=64 velocity=95 time=0.030844124999999997
EXTRACT: note_off channel=0 note=59 velocity=95 time=0
EXTRACT: note_off channel=0 note=55 velocity=95 time=0
EXTRACT: note_off channel=0 note=50 velocity=95 time=0
EXTRACT: note_off channel=0 note=45 velocity=95 time=0
EXTRACT: note_off channel=0 note=40 velocity=95 time=0
EXTRACT: note_on channel=0 note=72 velocity=95 time=0.16396087499999998
EXTRACT: note_on channel=0 note=67 velocity=95 time=0
EXTRACT: note_on channel=0 note=64 velocity=95 time=0
EXTRACT: note_on channel=0 note=60 velocity=95 time=0
EXTRACT: note_on channel=0 note=55 velocity=95 time=0
EXTRACT: note_on channel=0 note=48 velocity=95 time=0
EXTRACT: note_on channel=2 note=43 velocity=95 time=0
EXTRACT: note_off channel=9 note=44 velocity=95 time=0
EXTRACT: note_on channel=9 note=36 velocity=95 time=0
EXTRACT: note_off channel=0 note=72 velocity=95 time=0.19480499999999998
EXTRACT: note_off channel=0 note=67 velocity=95 time=0
EXTRACT: note_off channel=0 note=64 velocity=95 time=0
EXTRACT: note_off channel=0 note=60 velocity=95 time=0
EXTRACT: note_off channel=0 note=55 velocity=95 time=0
EXTRACT: note_off channel=0 note=48 velocity=95 time=0
EXTRACT: note_on channel=0 note=72 velocity=95 time=0
EXTRACT: note_on channel=0 note=67 velocity=95 time=0
EXTRACT: note_on channel=0 note=64 velocity=95 time=0
EXTRACT: note_on channel=0 note=60 velocity=95 time=0
EXTRACT: note_on channel=0 note=55 velocity=95 time=0
EXTRACT: note_on channel=0 note=48 velocity=95 time=0
EXTRACT: note_off channel=2 note=43 velocity=95 time=0
EXTRACT: note_on channel=2 note=43 velocity=95 time=0
EXTRACT: note_off channel=9 note=36 velocity=95 time=0
EXTRACT: note_on channel=9 note=38 velocity=95 time=0
EXTRACT: note_on channel=9 note=54 velocity=95 time=0
EXTRACT: note_on channel=9 note=44 velocity=95 time=0
EXTRACT: note_off channel=0 note=72 velocity=95 time=0.19480499999999998
EXTRACT: note_off channel=0 note=67 velocity=95 time=0
EXTRACT: note_off channel=0 note=64 velocity=95 time=0
EXTRACT: note_off channel=0 note=60 velocity=95 time=0
EXTRACT: note_off channel=0 note=55 velocity=95 time=0
EXTRACT: note_off channel=0 note=48 velocity=95 time=0
EXTRACT: note_on channel=0 note=72 velocity=95 time=0
EXTRACT: note_on channel=0 note=67 velocity=95 time=0
EXTRACT: note_on channel=0 note=64 velocity=95 time=0
EXTRACT: note_on channel=0 note=60 velocity=95 time=0
EXTRACT: note_on channel=0 note=55 velocity=95 time=0
EXTRACT: note_on channel=0 note=48 velocity=95 time=0
EXTRACT: note_off channel=2 note=43 velocity=95 time=0
EXTRACT: note_on channel=2 note=43 velocity=95 time=0
EXTRACT: note_off channel=0 note=72 velocity=95 time=0.19480499999999998
EXTRACT: note_off channel=0 note=67 velocity=95 time=0
EXTRACT: note_off channel=0 note=64 velocity=95 time=0
EXTRACT: note_off channel=0 note=60 velocity=95 time=0
EXTRACT: note_off channel=0 note=55 velocity=95 time=0
EXTRACT: note_off channel=0 note=48 velocity=95 time=0
EXTRACT: note_on channel=0 note=64 velocity=95 time=0
EXTRACT: note_on channel=0 note=59 velocity=95 time=0
EXTRACT: note_on channel=0 note=55 velocity=95 time=0
EXTRACT: note_on channel=0 note=50 velocity=95 time=0
EXTRACT: note_on channel=0 note=45 velocity=95 time=0
EXTRACT: note_on channel=0 note=40 velocity=95 time=0
EXTRACT: note_off channel=2 note=43 velocity=95 time=0
EXTRACT: note_on channel=2 note=43 velocity=95 time=0
EXTRACT: note_off channel=9 note=38 velocity=95 time=0
EXTRACT: note_off channel=9 note=54 velocity=95 time=0
EXTRACT: note_off channel=9 note=44 velocity=95 time=0
EXTRACT: note_on channel=9 note=44 velocity=95 time=0
EXTRACT: note_off channel=0 note=64 velocity=95 time=0.030844124999999997
EXTRACT: note_off channel=0 note=59 velocity=95 time=0
EXTRACT: note_off channel=0 note=55 velocity=95 time=0
EXTRACT: note_off channel=0 note=50 velocity=95 time=0
EXTRACT: note_off channel=0 note=45 velocity=95 time=0
EXTRACT: note_off channel=0 note=40 velocity=95 time=0
EXTRACT: note_on channel=0 note=64 velocity=95 time=0.16396087499999998
EXTRACT: note_on channel=0 note=59 velocity=95 time=0
EXTRACT: note_on channel=0 note=55 velocity=95 time=0
EXTRACT: note_on channel=0 note=50 velocity=95 time=0
EXTRACT: note_on channel=0 note=45 velocity=95 time=0
EXTRACT: note_on channel=0 note=40 velocity=95 time=0
EXTRACT: note_off channel=9 note=44 velocity=95 time=0
EXTRACT: note_off channel=0 note=64 velocity=95 time=0.030844124999999997
EXTRACT: note_off channel=0 note=59 velocity=95 time=0
EXTRACT: note_off channel=0 note=55 velocity=95 time=0
EXTRACT: note_off channel=0 note=50 velocity=95 time=0
EXTRACT: note_off channel=0 note=45 velocity=95 time=0
EXTRACT: note_off channel=0 note=40 velocity=95 time=0
EXTRACT: note_on channel=0 note=68 velocity=95 time=0.16396087499999998
EXTRACT: note_on channel=0 note=65 velocity=95 time=0
EXTRACT: note_on channel=0 note=60 velocity=95 time=0
EXTRACT: note_on channel=0 note=53 velocity=95 time=0
EXTRACT: note_off channel=2 note=43 velocity=95 time=0
EXTRACT: note_on channel=2 note=29 velocity=95 time=0
EXTRACT: note_on channel=9 note=36 velocity=95 time=0
EXTRACT: note_on channel=9 note=44 velocity=95 time=0
EXTRACT: note_off channel=0 note=68 velocity=95 time=0.38960999999999996
EXTRACT: note_off channel=0 note=65 velocity=95 time=0
EXTRACT: note_off channel=0 note=60 velocity=95 time=0
EXTRACT: note_off channel=0 note=53 velocity=95 time=0
EXTRACT: note_on channel=0 note=68 velocity=95 time=0
EXTRACT: note_on channel=0 note=65 velocity=95 time=0
EXTRACT: note_on channel=0 note=60 velocity=95 time=0
EXTRACT: note_on channel=0 note=53 velocity=95 time=0
EXTRACT: note_off channel=9 note=36 velocity=95 time=0
EXTRACT: note_off channel=9 note=44 velocity=95 time=0
EXTRACT: note_on channel=9 note=44 velocity=95 time=0
EXTRACT: note_off channel=0 note=68 velocity=95 time=0.19480499999999998
EXTRACT: note_off channel=0 note=65 velocity=95 time=0
EXTRACT: note_off channel=0 note=60 velocity=95 time=0
EXTRACT: note_off channel=0 note=53 velocity=95 time=0
EXTRACT: note_on channel=0 note=68 velocity=95 time=0
EXTRACT: note_on channel=0 note=65 velocity=95 time=0
EXTRACT: note_on channel=0 note=60 velocity=95 time=0
EXTRACT: note_on channel=0 note=53 velocity=95 time=0
EXTRACT: note_off channel=2 note=29 velocity=95 time=0
EXTRACT: note_on channel=2 note=36 velocity=95 time=0
EXTRACT: note_off channel=9 note=44 velocity=95 time=0
EXTRACT: note_on channel=9 note=36 velocity=95 time=0
EXTRACT: note_off channel=0 note=68 velocity=95 time=0.19480499999999998
EXTRACT: note_off channel=0 note=65 velocity=95 time=0
EXTRACT: note_off channel=0 note=60 velocity=95 time=0
EXTRACT: note_off channel=0 note=53 velocity=95 time=0
EXTRACT: note_on channel=0 note=68 velocity=95 time=0
EXTRACT: note_on channel=0 note=65 velocity=95 time=0
EXTRACT: note_on channel=0 note=60 velocity=95 time=0
EXTRACT: note_on channel=0 note=53 velocity=95 time=0
EXTRACT: note_off channel=2 note=36 velocity=95 time=0
EXTRACT: note_on channel=2 note=36 velocity=95 time=0
EXTRACT: note_off channel=9 note=36 velocity=95 time=0
EXTRACT: note_on channel=9 note=38 velocity=95 time=0
EXTRACT: note_on channel=9 note=54 velocity=95 time=0
EXTRACT: note_on channel=9 note=44 velocity=95 time=0
EXTRACT: note_off channel=0 note=68 velocity=95 time=0.19480499999999998
EXTRACT: note_off channel=0 note=65 velocity=95 time=0
EXTRACT: note_off channel=0 note=60 velocity=95 time=0
EXTRACT: note_off channel=0 note=53 velocity=95 time=0
EXTRACT: note_on channel=0 note=68 velocity=95 time=0
EXTRACT: note_on channel=0 note=65 velocity=95 time=0
EXTRACT: note_on channel=0 note=60 velocity=95 time=0
EXTRACT: note_on channel=0 note=53 velocity=95 time=0
EXTRACT: note_off channel=2 note=36 velocity=95 time=0
EXTRACT: note_on channel=2 note=36 velocity=95 time=0
EXTRACT: note_off channel=0 note=68 velocity=95 time=0.19480499999999998
EXTRACT: note_off channel=0 note=65 velocity=95 time=0
EXTRACT: note_off channel=0 note=60 velocity=95 time=0
EXTRACT: note_off channel=0 note=53 velocity=95 time=0
EXTRACT: note_on channel=0 note=59 velocity=95 time=0
EXTRACT: note_on channel=0 note=55 velocity=95 time=0
EXTRACT: note_on channel=0 note=50 velocity=95 time=0
EXTRACT: note_on channel=0 note=45 velocity=95 time=0
EXTRACT: note_off channel=9 note=38 velocity=95 time=0
EXTRACT: note_off channel=9 note=54 velocity=95 time=0
EXTRACT: note_off channel=9 note=44 velocity=95 time=0
EXTRACT: note_on channel=9 note=44 velocity=95 time=0
EXTRACT: note_off channel=0 note=59 velocity=95 time=0.030844124999999997
EXTRACT: note_off channel=0 note=55 velocity=95 time=0
EXTRACT: note_off channel=0 note=50 velocity=95 time=0
EXTRACT: note_off channel=0 note=45 velocity=95 time=0
EXTRACT: note_on channel=0 note=59 velocity=95 time=0.16396087499999998
EXTRACT: note_on channel=0 note=55 velocity=95 time=0
EXTRACT: note_on channel=0 note=50 velocity=95 time=0
EXTRACT: note_on channel=0 note=45 velocity=95 time=0
EXTRACT: note_off channel=2 note=36 velocity=95 time=0
EXTRACT: note_on channel=2 note=36 velocity=95 time=0
EXTRACT: note_off channel=9 note=44 velocity=95 time=0
EXTRACT: note_on channel=9 note=36 velocity=95 time=0
EXTRACT: note_off channel=0 note=59 velocity=95 time=0.030844124999999997
EXTRACT: note_off channel=0 note=55 velocity=95 time=0
EXTRACT: note_off channel=0 note=50 velocity=95 time=0
EXTRACT: note_off channel=0 note=45 velocity=95 time=0
EXTRACT: note_on channel=0 note=70 velocity=95 time=0.16396087499999998
EXTRACT: note_on channel=0 note=65 velocity=95 time=0
EXTRACT: note_on channel=0 note=61 velocity=95 time=0
EXTRACT: note_on channel=0 note=58 velocity=95 time=0
EXTRACT: note_on channel=0 note=53 velocity=95 time=0
EXTRACT: note_on channel=0 note=46 velocity=95 time=0
EXTRACT: note_off channel=2 note=36 velocity=95 time=0
EXTRACT: note_on channel=2 note=34 velocity=95 time=0
EXTRACT: note_off channel=9 note=36 velocity=95 time=0
EXTRACT: note_on channel=9 note=36 velocity=95 time=0
EXTRACT: note_on channel=9 note=44 velocity=95 time=0
EXTRACT: note_off channel=0 note=70 velocity=95 time=0.38960999999999996
EXTRACT: note_off channel=0 note=65 velocity=95 time=0
EXTRACT: note_off channel=0 note=61 velocity=95 time=0
EXTRACT: note_off channel=0 note=58 velocity=95 time=0
EXTRACT: note_off channel=0 note=53 velocity=95 time=0
EXTRACT: note_off channel=0 note=46 velocity=95 time=0
EXTRACT: note_on channel=0 note=64 velocity=95 time=0
EXTRACT: note_on channel=0 note=59 velocity=95 time=0
EXTRACT: note_on channel=0 note=55 velocity=95 time=0
EXTRACT: note_on channel=0 note=50 velocity=95 time=0
EXTRACT: note_on channel=0 note=45 velocity=95 time=0
EXTRACT: note_on channel=0 note=40 velocity=95 time=0
EXTRACT: note_off channel=9 note=36 velocity=95 time=0
EXTRACT: note_off channel=9 note=44 velocity=95 time=0
EXTRACT: note_on channel=9 note=38 velocity=95 time=0
EXTRACT: note_off channel=0 note=64 velocity=95 time=0.030844124999999997
EXTRACT: note_off channel=0 note=59 velocity=95 time=0
EXTRACT: note_off channel=0 note=55 velocity=95 time=0
EXTRACT: note_off channel=0 note=50 velocity=95 time=0
EXTRACT: note_off channel=0 note=45 velocity=95 time=0
EXTRACT: note_off channel=0 note=40 velocity=95 time=0
EXTRACT: note_on channel=0 note=64 velocity=95 time=0.16396087499999998
EXTRACT: note_on channel=0 note=59 velocity=95 time=0
EXTRACT: note_on channel=0 note=55 velocity=95 time=0
EXTRACT: note_on channel=0 note=50 velocity=95 time=0
EXTRACT: note_on channel=0 note=45 velocity=95 time=0
EXTRACT: note_on channel=0 note=40 velocity=95 time=0
EXTRACT: note_off channel=2 note=34 velocity=95 time=0
EXTRACT: note_on channel=2 note=34 velocity=95 time=0
EXTRACT: note_off channel=9 note=38 velocity=95 time=0
EXTRACT: note_on channel=9 note=38 velocity=95 time=0
EXTRACT: note_off channel=0 note=64 velocity=95 time=0.030844124999999997
EXTRACT: note_off channel=0 note=59 velocity=95 time=0
EXTRACT: note_off channel=0 note=55 velocity=95 time=0
EXTRACT: note_off channel=0 note=50 velocity=95 time=0
EXTRACT: note_off channel=0 note=45 velocity=95 time=0
EXTRACT: note_off channel=0 note=40 velocity=95 time=0
EXTRACT: note_on channel=0 note=70 velocity=95 time=0.16396087499999998
EXTRACT: note_on channel=0 note=64 velocity=95 time=0
EXTRACT: note_on channel=0 note=58 velocity=95 time=0
EXTRACT: note_on channel=0 note=55 velocity=95 time=0
EXTRACT: note_on channel=0 note=48 velocity=95 time=0
EXTRACT: note_off channel=2 note=34 velocity=95 time=0
EXTRACT: note_on channel=2 note=36 velocity=95 time=0
EXTRACT: note_off channel=9 note=38 velocity=95 time=0
EXTRACT: note_on channel=9 note=36 velocity=95 time=0
EXTRACT: note_on channel=9 note=44 velocity=95 time=0
EXTRACT: note_off channel=0 note=70 velocity=95 time=0.38960999999999996
EXTRACT: note_off channel=0 note=64 velocity=95 time=0
EXTRACT: note_off channel=0 note=58 velocity=95 time=0
EXTRACT: note_off channel=0 note=55 velocity=95 time=0
EXTRACT: note_off channel=0 note=48 velocity=95 time=0
EXTRACT: note_on channel=0 note=59 velocity=95 time=0
EXTRACT: note_on channel=0 note=55 velocity=95 time=0
EXTRACT: note_on channel=0 note=50 velocity=95 time=0
EXTRACT: note_on channel=0 note=45 velocity=95 time=0
EXTRACT: note_on channel=0 note=40 velocity=95 time=0
EXTRACT: note_off channel=9 note=36 velocity=95 time=0
EXTRACT: note_off channel=9 note=44 velocity=95 time=0
EXTRACT: note_on channel=9 note=38 velocity=95 time=0
EXTRACT: note_off channel=0 note=59 velocity=95 time=0.030844124999999997
EXTRACT: note_off channel=0 note=55 velocity=95 time=0
EXTRACT: note_off channel=0 note=50 velocity=95 time=0
EXTRACT: note_off channel=0 note=45 velocity=95 time=0
EXTRACT: note_off channel=0 note=40 velocity=95 time=0
EXTRACT: note_on channel=0 note=59 velocity=95 time=0.16396087499999998
EXTRACT: note_on channel=0 note=55 velocity=95 time=0
EXTRACT: note_on channel=0 note=50 velocity=95 time=0
EXTRACT: note_on channel=0 note=45 velocity=95 time=0
EXTRACT: note_on channel=0 note=40 velocity=95 time=0
EXTRACT: note_off channel=2 note=36 velocity=95 time=0
EXTRACT: note_on channel=2 note=36 velocity=95 time=0
EXTRACT: note_off channel=9 note=38 velocity=95 time=0
EXTRACT: note_on channel=9 note=38 velocity=95 time=0
EXTRACT: note_off channel=0 note=59 velocity=95 time=0.030844124999999997
EXTRACT: note_off channel=0 note=55 velocity=95 time=0
EXTRACT: note_off channel=0 note=50 velocity=95 time=0
EXTRACT: note_off channel=0 note=45 velocity=95 time=0
EXTRACT: note_off channel=0 note=40 velocity=95 time=0
EXTRACT: note_on channel=0 note=68 velocity=95 time=0.16396087499999998
EXTRACT: note_on channel=0 note=65 velocity=95 time=0
EXTRACT: note_on channel=0 note=60 velocity=95 time=0
EXTRACT: note_on channel=0 note=53 velocity=95 time=0
EXTRACT: note_off channel=2 note=36 velocity=95 time=0
EXTRACT: note_on channel=2 note=29 velocity=95 time=0
EXTRACT: note_off channel=9 note=38 velocity=95 time=0
EXTRACT: note_on channel=9 note=36 velocity=95 time=0
EXTRACT: note_on channel=9 note=44 velocity=95 time=0
EXTRACT: note_off channel=0 note=68 velocity=95 time=0.38960999999999996
EXTRACT: note_off channel=0 note=65 velocity=95 time=0
EXTRACT: note_off channel=0 note=60 velocity=95 time=0
EXTRACT: note_off channel=0 note=53 velocity=95 time=0
EXTRACT: note_on channel=0 note=68 velocity=95 time=0
EXTRACT: note_on channel=0 note=65 velocity=95 time=0
EXTRACT: note_on channel=0 note=60 velocity=95 time=0
EXTRACT: note_on channel=0 note=53 velocity=95 time=0
EXTRACT: note_off channel=9 note=36 velocity=95 time=0
EXTRACT: note_off channel=9 note=44 velocity=95 time=0
EXTRACT: note_on channel=9 note=44 velocity=95 time=0
EXTRACT: note_off channel=0 note=68 velocity=95 time=0.19480499999999998
EXTRACT: note_off channel=0 note=65 velocity=95 time=0
EXTRACT: note_off channel=0 note=60 velocity=95 time=0
EXTRACT: note_off channel=0 note=53 velocity=95 time=0
EXTRACT: note_on channel=0 note=68 velocity=95 time=0
EXTRACT: note_on channel=0 note=65 velocity=95 time=0
EXTRACT: note_on channel=0 note=60 velocity=95 time=0
EXTRACT: note_on channel=0 note=53 velocity=95 time=0
EXTRACT: note_off channel=2 note=29 velocity=95 time=0
EXTRACT: note_on channel=2 note=36 velocity=95 time=0
EXTRACT: note_off channel=9 note=44 velocity=95 time=0
EXTRACT: note_on channel=9 note=36 velocity=95 time=0
EXTRACT: note_off channel=0 note=68 velocity=95 time=0.19480499999999998
EXTRACT: note_off channel=0 note=65 velocity=95 time=0
EXTRACT: note_off channel=0 note=60 velocity=95 time=0
EXTRACT: note_off channel=0 note=53 velocity=95 time=0
EXTRACT: note_on channel=0 note=68 velocity=95 time=0
EXTRACT: note_on channel=0 note=65 velocity=95 time=0
EXTRACT: note_on channel=0 note=60 velocity=95 time=0
EXTRACT: note_on channel=0 note=53 velocity=95 time=0
EXTRACT: note_off channel=2 note=36 velocity=95 time=0
EXTRACT: note_on channel=2 note=36 velocity=95 time=0
EXTRACT: note_off channel=9 note=36 velocity=95 time=0
EXTRACT: note_on channel=9 note=38 velocity=95 time=0
EXTRACT: note_on channel=9 note=54 velocity=95 time=0
EXTRACT: note_on channel=9 note=44 velocity=95 time=0
EXTRACT: note_off channel=0 note=68 velocity=95 time=0.19480499999999998
EXTRACT: note_off channel=0 note=65 velocity=95 time=0
EXTRACT: note_off channel=0 note=60 velocity=95 time=0
EXTRACT: note_off channel=0 note=53 velocity=95 time=0
EXTRACT: note_on channel=0 note=68 velocity=95 time=0
EXTRACT: note_on channel=0 note=65 velocity=95 time=0
EXTRACT: note_on channel=0 note=60 velocity=95 time=0
EXTRACT: note_on channel=0 note=53 velocity=95 time=0
EXTRACT: note_off channel=2 note=36 velocity=95 time=0
EXTRACT: note_on channel=2 note=36 velocity=95 time=0
EXTRACT: note_off channel=0 note=68 velocity=95 time=0.19480499999999998
EXTRACT: note_off channel=0 note=65 velocity=95 time=0
EXTRACT: note_off channel=0 note=60 velocity=95 time=0
EXTRACT: note_off channel=0 note=53 velocity=95 time=0
EXTRACT: note_on channel=0 note=59 velocity=95 time=0
EXTRACT: note_on channel=0 note=55 velocity=95 time=0
EXTRACT: note_on channel=0 note=50 velocity=95 time=0
EXTRACT: note_on channel=0 note=45 velocity=95 time=0
EXTRACT: note_off channel=2 note=36 velocity=95 time=0
EXTRACT: note_on channel=2 note=36 velocity=95 time=0
EXTRACT: note_off channel=9 note=38 velocity=95 time=0
EXTRACT: note_off channel=9 note=54 velocity=95 time=0
EXTRACT: note_off channel=9 note=44 velocity=95 time=0
EXTRACT: note_on channel=9 note=44 velocity=95 time=0
EXTRACT: note_off channel=0 note=59 velocity=95 time=0.030844124999999997
EXTRACT: note_off channel=0 note=55 velocity=95 time=0
EXTRACT: note_off channel=0 note=50 velocity=95 time=0
EXTRACT: note_off channel=0 note=45 velocity=95 time=0
EXTRACT: note_on channel=0 note=59 velocity=95 time=0.16396087499999998
EXTRACT: note_on channel=0 note=55 velocity=95 time=0
EXTRACT: note_on channel=0 note=50 velocity=95 time=0
EXTRACT: note_on channel=0 note=45 velocity=95 time=0
EXTRACT: note_off channel=2 note=36 velocity=95 time=0
EXTRACT: note_on channel=2 note=36 velocity=95 time=0
EXTRACT: note_off channel=9 note=44 velocity=95 time=0
EXTRACT: note_on channel=9 note=36 velocity=95 time=0
EXTRACT: note_off channel=0 note=59 velocity=95 time=0.030844124999999997
EXTRACT: note_off channel=0 note=55 velocity=95 time=0
EXTRACT: note_off channel=0 note=50 velocity=95 time=0
EXTRACT: note_off channel=0 note=45 velocity=95 time=0
EXTRACT: note_on channel=0 note=70 velocity=95 time=0.16396087499999998
EXTRACT: note_on channel=0 note=65 velocity=95 time=0
EXTRACT: note_on channel=0 note=61 velocity=95 time=0
EXTRACT: note_on channel=0 note=58 velocity=95 time=0
EXTRACT: note_on channel=0 note=53 velocity=95 time=0
EXTRACT: note_on channel=0 note=46 velocity=95 time=0
EXTRACT: note_off channel=2 note=36 velocity=95 time=0
EXTRACT: note_on channel=2 note=34 velocity=95 time=0
EXTRACT: note_off channel=9 note=36 velocity=95 time=0
EXTRACT: note_on channel=9 note=36 velocity=95 time=0
EXTRACT: note_on channel=9 note=44 velocity=95 time=0
EXTRACT: note_off channel=0 note=70 velocity=95 time=0.38960999999999996
EXTRACT: note_off channel=0 note=65 velocity=95 time=0
EXTRACT: note_off channel=0 note=61 velocity=95 time=0
EXTRACT: note_off channel=0 note=58 velocity=95 time=0
EXTRACT: note_off channel=0 note=53 velocity=95 time=0
EXTRACT: note_off channel=0 note=46 velocity=95 time=0
EXTRACT: note_on channel=0 note=70 velocity=95 time=0
EXTRACT: note_on channel=0 note=65 velocity=95 time=0
EXTRACT: note_on channel=0 note=61 velocity=95 time=0
EXTRACT: note_on channel=0 note=58 velocity=95 time=0
EXTRACT: note_on channel=0 note=53 velocity=95 time=0
EXTRACT: note_on channel=0 note=46 velocity=95 time=0
EXTRACT: note_off channel=2 note=34 velocity=95 time=0
EXTRACT: note_on channel=2 note=34 velocity=95 time=0
EXTRACT: note_off channel=9 note=36 velocity=95 time=0
EXTRACT: note_off channel=9 note=44 velocity=95 time=0
EXTRACT: note_on channel=9 note=44 velocity=95 time=0
EXTRACT: note_off channel=0 note=70 velocity=95 time=0.19480499999999998
EXTRACT: note_off channel=0 note=65 velocity=95 time=0
EXTRACT: note_off channel=0 note=61 velocity=95 time=0
EXTRACT: note_off channel=0 note=58 velocity=95 time=0
EXTRACT: note_off channel=0 note=53 velocity=95 time=0
EXTRACT: note_off channel=0 note=46 velocity=95 time=0
EXTRACT: note_on channel=0 note=70 velocity=95 time=0
EXTRACT: note_on channel=0 note=65 velocity=95 time=0
EXTRACT: note_on channel=0 note=61 velocity=95 time=0
EXTRACT: note_on channel=0 note=58 velocity=95 time=0
EXTRACT: note_on channel=0 note=53 velocity=95 time=0
EXTRACT: note_on channel=0 note=46 velocity=95 time=0
EXTRACT: note_off channel=9 note=44 velocity=95 time=0
EXTRACT: note_on channel=9 note=36 velocity=95 time=0
EXTRACT: note_off channel=0 note=70 velocity=95 time=0.19480499999999998
EXTRACT: note_off channel=0 note=65 velocity=95 time=0
EXTRACT: note_off channel=0 note=61 velocity=95 time=0
EXTRACT: note_off channel=0 note=58 velocity=95 time=0
EXTRACT: note_off channel=0 note=53 velocity=95 time=0
EXTRACT: note_off channel=0 note=46 velocity=95 time=0
EXTRACT: note_on channel=0 note=70 velocity=95 time=0
EXTRACT: note_on channel=0 note=65 velocity=95 time=0
EXTRACT: note_on channel=0 note=61 velocity=95 time=0
EXTRACT: note_on channel=0 note=58 velocity=95 time=0
EXTRACT: note_on channel=0 note=53 velocity=95 time=0
EXTRACT: note_on channel=0 note=46 velocity=95 time=0
EXTRACT: note_off channel=2 note=34 velocity=95 time=0
EXTRACT: note_on channel=2 note=29 velocity=95 time=0
EXTRACT: note_off channel=9 note=36 velocity=95 time=0
EXTRACT: note_on channel=9 note=38 velocity=95 time=0
EXTRACT: note_on channel=9 note=54 velocity=95 time=0
EXTRACT: note_on channel=9 note=44 velocity=95 time=0
EXTRACT: note_off channel=0 note=70 velocity=95 time=0.19480499999999998
EXTRACT: note_off channel=0 note=65 velocity=95 time=0
EXTRACT: note_off channel=0 note=61 velocity=95 time=0
EXTRACT: note_off channel=0 note=58 velocity=95 time=0
EXTRACT: note_off channel=0 note=53 velocity=95 time=0
EXTRACT: note_off channel=0 note=46 velocity=95 time=0
EXTRACT: note_on channel=0 note=70 velocity=95 time=0
EXTRACT: note_on channel=0 note=65 velocity=95 time=0
EXTRACT: note_on channel=0 note=61 velocity=95 time=0
EXTRACT: note_on channel=0 note=58 velocity=95 time=0
EXTRACT: note_on channel=0 note=53 velocity=95 time=0
EXTRACT: note_on channel=0 note=46 velocity=95 time=0
EXTRACT: note_off channel=0 note=70 velocity=95 time=0.19480499999999998
EXTRACT: note_off channel=0 note=65 velocity=95 time=0
EXTRACT: note_off channel=0 note=61 velocity=95 time=0
EXTRACT: note_off channel=0 note=58 velocity=95 time=0
EXTRACT: note_off channel=0 note=53 velocity=95 time=0
EXTRACT: note_off channel=0 note=46 velocity=95 time=0
EXTRACT: note_on channel=0 note=64 velocity=95 time=0
EXTRACT: note_on channel=0 note=59 velocity=95 time=0
EXTRACT: note_on channel=0 note=55 velocity=95 time=0
EXTRACT: note_on channel=0 note=50 velocity=95 time=0
EXTRACT: note_on channel=0 note=45 velocity=95 time=0
EXTRACT: note_on channel=0 note=40 velocity=95 time=0
EXTRACT: note_off channel=9 note=38 velocity=95 time=0
EXTRACT: note_off channel=9 note=54 velocity=95 time=0
EXTRACT: note_off channel=9 note=44 velocity=95 time=0
EXTRACT: note_on channel=9 note=44 velocity=95 time=0
EXTRACT: note_off channel=0 note=64 velocity=95 time=0.030844124999999997
EXTRACT: note_off channel=0 note=59 velocity=95 time=0
EXTRACT: note_off channel=0 note=55 velocity=95 time=0
EXTRACT: note_off channel=0 note=50 velocity=95 time=0
EXTRACT: note_off channel=0 note=45 velocity=95 time=0
EXTRACT: note_off channel=0 note=40 velocity=95 time=0
EXTRACT: note_on channel=0 note=64 velocity=95 time=0.16396087499999998
EXTRACT: note_on channel=0 note=59 velocity=95 time=0
EXTRACT: note_on channel=0 note=55 velocity=95 time=0
EXTRACT: note_on channel=0 note=50 velocity=95 time=0
EXTRACT: note_on channel=0 note=45 velocity=95 time=0
EXTRACT: note_on channel=0 note=40 velocity=95 time=0
EXTRACT: note_off channel=9 note=44 velocity=95 time=0
EXTRACT: note_off channel=0 note=64 velocity=95 time=0.030844124999999997
EXTRACT: note_off channel=0 note=59 velocity=95 time=0
EXTRACT: note_off channel=0 note=55 velocity=95 time=0
EXTRACT: note_off channel=0 note=50 velocity=95 time=0
EXTRACT: note_off channel=0 note=45 velocity=95 time=0
EXTRACT: note_off channel=0 note=40 velocity=95 time=0
EXTRACT: note_on channel=0 note=67 velocity=95 time=0.16396087499999998
EXTRACT: note_on channel=0 note=63 velocity=95 time=0
EXTRACT: note_on channel=0 note=58 velocity=95 time=0
EXTRACT: note_on channel=0 note=51 velocity=95 time=0
EXTRACT: note_off channel=2 note=29 velocity=95 time=0
EXTRACT: note_on channel=2 note=39 velocity=95 time=0
EXTRACT: note_on channel=9 note=36 velocity=95 time=0
EXTRACT: note_on channel=9 note=44 velocity=95 time=0
EXTRACT: note_off channel=0 note=67 velocity=95 time=0.38960999999999996
EXTRACT: note_off channel=0 note=63 velocity=95 time=0
EXTRACT: note_off channel=0 note=58 velocity=95 time=0
EXTRACT: note_off channel=0 note=51 velocity=95 time=0
EXTRACT: note_on channel=0 note=67 velocity=95 time=0
EXTRACT: note_on channel=0 note=63 velocity=95 time=0
EXTRACT: note_on channel=0 note=58 velocity=95 time=0
EXTRACT: note_on channel=0 note=51 velocity=95 time=0
EXTRACT: note_off channel=2 note=39 velocity=95 time=0
EXTRACT: note_on channel=2 note=46 velocity=95 time=0
EXTRACT: note_off channel=9 note=36 velocity=95 time=0
EXTRACT: note_off channel=9 note=44 velocity=95 time=0
EXTRACT: note_on channel=9 note=44 velocity=95 time=0
EXTRACT: note_off channel=0 note=67 velocity=95 time=0.19480499999999998
EXTRACT: note_off channel=0 note=63 velocity=95 time=0
EXTRACT: note_off channel=0 note=58 velocity=95 time=0
EXTRACT: note_off channel=0 note=51 velocity=95 time=0
EXTRACT: note_on channel=0 note=67 velocity=95 time=0
EXTRACT: note_on channel=0 note=63 velocity=95 time=0
EXTRACT: note_on channel=0 note=58 velocity=95 time=0
EXTRACT: note_on channel=0 note=51 velocity=95 time=0
EXTRACT: note_off channel=2 note=46 velocity=95 time=0
EXTRACT: note_on channel=2 note=46 velocity=95 time=0
EXTRACT: note_off channel=9 note=44 velocity=95 time=0
EXTRACT: note_on channel=9 note=36 velocity=95 time=0
EXTRACT: note_off channel=0 note=67 velocity=95 time=0.19480499999999998
EXTRACT: note_off channel=0 note=63 velocity=95 time=0
EXTRACT: note_off channel=0 note=58 velocity=95 time=0
EXTRACT: note_off channel=0 note=51 velocity=95 time=0
EXTRACT: note_on channel=0 note=67 velocity=95 time=0
EXTRACT: note_on channel=0 note=63 velocity=95 time=0
EXTRACT: note_on channel=0 note=58 velocity=95 time=0
EXTRACT: note_on channel=0 note=51 velocity=95 time=0
EXTRACT: note_off channel=2 note=46 velocity=95 time=0
EXTRACT: note_on channel=2 note=46 velocity=95 time=0
EXTRACT: note_off channel=9 note=36 velocity=95 time=0
EXTRACT: note_on channel=9 note=38 velocity=95 time=0
EXTRACT: note_on channel=9 note=54 velocity=95 time=0
EXTRACT: note_on channel=9 note=44 velocity=95 time=0
EXTRACT: note_off channel=0 note=67 velocity=95 time=0.19480499999999998
EXTRACT: note_off channel=0 note=63 velocity=95 time=0
EXTRACT: note_off channel=0 note=58 velocity=95 time=0
EXTRACT: note_off channel=0 note=51 velocity=95 time=0
EXTRACT: note_on channel=0 note=67 velocity=95 time=0
EXTRACT: note_on channel=0 note=63 velocity=95 time=0
EXTRACT: note_on channel=0 note=58 velocity=95 time=0
EXTRACT: note_on channel=0 note=51 velocity=95 time=0
EXTRACT: note_off channel=2 note=46 velocity=95 time=0
EXTRACT: note_on channel=2 note=46 velocity=95 time=0
EXTRACT: note_off channel=0 note=67 velocity=95 time=0.19480499999999998
EXTRACT: note_off channel=0 note=63 velocity=95 time=0
EXTRACT: note_off channel=0 note=58 velocity=95 time=0
EXTRACT: note_off channel=0 note=51 velocity=95 time=0
EXTRACT: note_on channel=0 note=59 velocity=95 time=0
EXTRACT: note_on channel=0 note=55 velocity=95 time=0
EXTRACT: note_on channel=0 note=50 velocity=95 time=0
EXTRACT: note_on channel=0 note=45 velocity=95 time=0
EXTRACT: note_off channel=2 note=46 velocity=95 time=0
EXTRACT: note_on channel=2 note=34 velocity=95 time=0
EXTRACT: note_off channel=9 note=38 velocity=95 time=0
EXTRACT: note_off channel=9 note=54 velocity=95 time=0
EXTRACT: note_off channel=9 note=44 velocity=95 time=0
EXTRACT: note_on channel=9 note=44 velocity=95 time=0
EXTRACT: note_off channel=0 note=59 velocity=95 time=0.030844124999999997
EXTRACT: note_off channel=0 note=55 velocity=95 time=0
EXTRACT: note_off channel=0 note=50 velocity=95 time=0
EXTRACT: note_off channel=0 note=45 velocity=95 time=0
EXTRACT: note_on channel=0 note=59 velocity=95 time=0.16396087499999998
EXTRACT: note_on channel=0 note=55 velocity=95 time=0
EXTRACT: note_on channel=0 note=50 velocity=95 time=0
EXTRACT: note_on channel=0 note=45 velocity=95 time=0
EXTRACT: note_off channel=2 note=34 velocity=95 time=0
EXTRACT: note_on channel=2 note=35 velocity=95 time=0
EXTRACT: note_off channel=9 note=44 velocity=95 time=0
EXTRACT: note_on channel=9 note=36 velocity=95 time=0
EXTRACT: note_off channel=0 note=59 velocity=95 time=0.030844124999999997
EXTRACT: note_off channel=0 note=55 velocity=95 time=0
EXTRACT: note_off channel=0 note=50 velocity=95 time=0
EXTRACT: note_off channel=0 note=45 velocity=95 time=0
EXTRACT: note_on channel=0 note=72 velocity=95 time=0.16396087499999998
EXTRACT: note_on channel=0 note=67 velocity=95 time=0
EXTRACT: note_on channel=0 note=64 velocity=95 time=0
EXTRACT: note_on channel=0 note=60 velocity=95 time=0
EXTRACT: note_on channel=0 note=55 velocity=95 time=0
EXTRACT: note_on channel=0 note=48 velocity=95 time=0
EXTRACT: note_off channel=2 note=35 velocity=95 time=0
EXTRACT: note_on channel=2 note=36 velocity=95 time=0
EXTRACT: note_off channel=9 note=36 velocity=95 time=0
EXTRACT: note_on channel=9 note=36 velocity=95 time=0
EXTRACT: note_on channel=9 note=44 velocity=95 time=0
EXTRACT: note_off channel=0 note=72 velocity=95 time=0.38960999999999996
EXTRACT: note_off channel=0 note=67 velocity=95 time=0
EXTRACT: note_off channel=0 note=64 velocity=95 time=0
EXTRACT: note_off channel=0 note=60 velocity=95 time=0
EXTRACT: note_off channel=0 note=55 velocity=95 time=0
EXTRACT: note_off channel=0 note=48 velocity=95 time=0
EXTRACT: note_on channel=0 note=72 velocity=95 time=0
EXTRACT: note_on channel=0 note=67 velocity=95 time=0
EXTRACT: note_on channel=0 note=64 velocity=95 time=0
EXTRACT: note_on channel=0 note=60 velocity=95 time=0
EXTRACT: note_on channel=0 note=55 velocity=95 time=0
EXTRACT: note_on channel=0 note=48 velocity=95 time=0
EXTRACT: note_off channel=2 note=36 velocity=95 time=0
EXTRACT: note_on channel=2 note=36 velocity=95 time=0
EXTRACT: note_off channel=9 note=36 velocity=95 time=0
EXTRACT: note_off channel=9 note=44 velocity=95 time=0
EXTRACT: note_on channel=9 note=44 velocity=95 time=0
EXTRACT: note_off channel=0 note=72 velocity=95 time=0.19480499999999998
EXTRACT: note_off channel=0 note=67 velocity=95 time=0
EXTRACT: note_off channel=0 note=64 velocity=95 time=0
EXTRACT: note_off channel=0 note=60 velocity=95 time=0
EXTRACT: note_off channel=0 note=55 velocity=95 time=0
EXTRACT: note_off channel=0 note=48 velocity=95 time=0
EXTRACT: note_on channel=0 note=72 velocity=95 time=0
EXTRACT: note_on channel=0 note=67 velocity=95 time=0
EXTRACT: note_on channel=0 note=64 velocity=95 time=0
EXTRACT: note_on channel=0 note=60 velocity=95 time=0
EXTRACT: note_on channel=0 note=55 velocity=95 time=0
EXTRACT: note_on channel=0 note=48 velocity=95 time=0
EXTRACT: note_off channel=9 note=44 velocity=95 time=0
EXTRACT: note_on channel=9 note=36 velocity=95 time=0
EXTRACT: note_off channel=0 note=72 velocity=95 time=0.19480499999999998
EXTRACT: note_off channel=0 note=67 velocity=95 time=0
EXTRACT: note_off channel=0 note=64 velocity=95 time=0
EXTRACT: note_off channel=0 note=60 velocity=95 time=0
EXTRACT: note_off channel=0 note=55 velocity=95 time=0
EXTRACT: note_off channel=0 note=48 velocity=95 time=0
EXTRACT: note_on channel=0 note=72 velocity=95 time=0
EXTRACT: note_on channel=0 note=67 velocity=95 time=0
EXTRACT: note_on channel=0 note=64 velocity=95 time=0
EXTRACT: note_on channel=0 note=60 velocity=95 time=0
EXTRACT: note_on channel=0 note=55 velocity=95 time=0
EXTRACT: note_on channel=0 note=48 velocity=95 time=0
EXTRACT: note_off channel=2 note=36 velocity=95 time=0
EXTRACT: note_on channel=2 note=31 velocity=95 time=0
EXTRACT: note_off channel=9 note=36 velocity=95 time=0
EXTRACT: note_on channel=9 note=38 velocity=95 time=0
EXTRACT: note_on channel=9 note=54 velocity=95 time=0
EXTRACT: note_on channel=9 note=44 velocity=95 time=0
EXTRACT: note_off channel=0 note=72 velocity=95 time=0.19480499999999998
EXTRACT: note_off channel=0 note=67 velocity=95 time=0
EXTRACT: note_off channel=0 note=64 velocity=95 time=0
EXTRACT: note_off channel=0 note=60 velocity=95 time=0
EXTRACT: note_off channel=0 note=55 velocity=95 time=0
EXTRACT: note_off channel=0 note=48 velocity=95 time=0
EXTRACT: note_on channel=0 note=72 velocity=95 time=0
EXTRACT: note_on channel=0 note=67 velocity=95 time=0
EXTRACT: note_on channel=0 note=64 velocity=95 time=0
EXTRACT: note_on channel=0 note=60 velocity=95 time=0
EXTRACT: note_on channel=0 note=55 velocity=95 time=0
EXTRACT: note_on channel=0 note=48 velocity=95 time=0
EXTRACT: note_off channel=0 note=72 velocity=95 time=0.19480499999999998
EXTRACT: note_off channel=0 note=67 velocity=95 time=0
EXTRACT: note_off channel=0 note=64 velocity=95 time=0
EXTRACT: note_off channel=0 note=60 velocity=95 time=0
EXTRACT: note_off channel=0 note=55 velocity=95 time=0
EXTRACT: note_off channel=0 note=48 velocity=95 time=0
EXTRACT: note_on channel=0 note=64 velocity=95 time=0
EXTRACT: note_on channel=0 note=59 velocity=95 time=0
EXTRACT: note_on channel=0 note=55 velocity=95 time=0
EXTRACT: note_on channel=0 note=50 velocity=95 time=0
EXTRACT: note_on channel=0 note=45 velocity=95 time=0
EXTRACT: note_on channel=0 note=40 velocity=95 time=0
EXTRACT: note_off channel=2 note=31 velocity=95 time=0
EXTRACT: note_on channel=2 note=36 velocity=95 time=0
EXTRACT: note_off channel=9 note=38 velocity=95 time=0
EXTRACT: note_off channel=9 note=54 velocity=95 time=0
EXTRACT: note_off channel=9 note=44 velocity=95 time=0
EXTRACT: note_on channel=9 note=44 velocity=95 time=0
EXTRACT: note_off channel=0 note=64 velocity=95 time=0.030844124999999997
EXTRACT: note_off channel=0 note=59 velocity=95 time=0
EXTRACT: note_off channel=0 note=55 velocity=95 time=0
EXTRACT: note_off channel=0 note=50 velocity=95 time=0
EXTRACT: note_off channel=0 note=45 velocity=95 time=0
EXTRACT: note_off channel=0 note=40 velocity=95 time=0
EXTRACT: note_on channel=0 note=64 velocity=95 time=0.16396087499999998
EXTRACT: note_on channel=0 note=59 velocity=95 time=0
EXTRACT: note_on channel=0 note=55 velocity=95 time=0
EXTRACT: note_on channel=0 note=50 velocity=95 time=0
EXTRACT: note_on channel=0 note=45 velocity=95 time=0
EXTRACT: note_on channel=0 note=40 velocity=95 time=0
EXTRACT: note_off channel=2 note=36 velocity=95 time=0
EXTRACT: note_on channel=2 note=35 velocity=95 time=0
EXTRACT: note_off channel=9 note=44 velocity=95 time=0
EXTRACT: note_off channel=0 note=64 velocity=95 time=0.030844124999999997
EXTRACT: note_off channel=0 note=59 velocity=95 time=0
EXTRACT: note_off channel=0 note=55 velocity=95 time=0
EXTRACT: note_off channel=0 note=50 velocity=95 time=0
EXTRACT: note_off channel=0 note=45 velocity=95 time=0
EXTRACT: note_off channel=0 note=40 velocity=95 time=0
EXTRACT: note_on channel=0 note=70 velocity=95 time=0.16396087499999998
EXTRACT: note_on channel=0 note=65 velocity=95 time=0
EXTRACT: note_on channel=0 note=61 velocity=95 time=0
EXTRACT: note_on channel=0 note=58 velocity=95 time=0
EXTRACT: note_on channel=0 note=53 velocity=95 time=0
EXTRACT: note_on channel=0 note=46 velocity=95 time=0
EXTRACT: note_off channel=2 note=35 velocity=95 time=0
EXTRACT: note_on channel=2 note=34 velocity=95 time=0
EXTRACT: note_on channel=9 note=36 velocity=95 time=0
EXTRACT: note_on channel=9 note=44 velocity=95 time=0
EXTRACT: note_off channel=0 note=70 velocity=95 time=0.38960999999999996
EXTRACT: note_off channel=0 note=65 velocity=95 time=0
EXTRACT: note_off channel=0 note=61 velocity=95 time=0
EXTRACT: note_off channel=0 note=58 velocity=95 time=0
EXTRACT: note_off channel=0 note=53 velocity=95 time=0
EXTRACT: note_off channel=0 note=46 velocity=95 time=0
EXTRACT: note_on channel=0 note=70 velocity=95 time=0
EXTRACT: note_on channel=0 note=65 velocity=95 time=0
EXTRACT: note_on channel=0 note=61 velocity=95 time=0
EXTRACT: note_on channel=0 note=58 velocity=95 time=0
EXTRACT: note_on channel=0 note=53 velocity=95 time=0
EXTRACT: note_on channel=0 note=46 velocity=95 time=0
EXTRACT: note_off channel=2 note=34 velocity=95 time=0
EXTRACT: note_on channel=2 note=41 velocity=95 time=0
EXTRACT: note_off channel=9 note=36 velocity=95 time=0
EXTRACT: note_off channel=9 note=44 velocity=95 time=0
EXTRACT: note_on channel=9 note=44 velocity=95 time=0
EXTRACT: note_off channel=0 note=70 velocity=95 time=0.19480499999999998
EXTRACT: note_off channel=0 note=65 velocity=95 time=0
EXTRACT: note_off channel=0 note=61 velocity=95 time=0
EXTRACT: note_off channel=0 note=58 velocity=95 time=0
EXTRACT: note_off channel=0 note=53 velocity=95 time=0
EXTRACT: note_off channel=0 note=46 velocity=95 time=0
EXTRACT: note_on channel=0 note=70 velocity=95 time=0
EXTRACT: note_on channel=0 note=65 velocity=95 time=0
EXTRACT: note_on channel=0 note=61 velocity=95 time=0
EXTRACT: note_on channel=0 note=58 velocity=95 time=0
EXTRACT: note_on channel=0 note=53 velocity=95 time=0
EXTRACT: note_on channel=0 note=46 velocity=95 time=0
EXTRACT: note_off channel=2 note=41 velocity=95 time=0
EXTRACT: note_on channel=2 note=41 velocity=95 time=0
EXTRACT: note_off channel=9 note=44 velocity=95 time=0
EXTRACT: note_on channel=9 note=36 velocity=95 time=0
EXTRACT: note_off channel=0 note=70 velocity=95 time=0.19480499999999998
EXTRACT: note_off channel=0 note=65 velocity=95 time=0
EXTRACT: note_off channel=0 note=61 velocity=95 time=0
EXTRACT: note_off channel=0 note=58 velocity=95 time=0
EXTRACT: note_off channel=0 note=53 velocity=95 time=0
EXTRACT: note_off channel=0 note=46 velocity=95 time=0
EXTRACT: note_on channel=0 note=70 velocity=95 time=0
EXTRACT: note_on channel=0 note=65 velocity=95 time=0
EXTRACT: note_on channel=0 note=61 velocity=95 time=0
EXTRACT: note_on channel=0 note=58 velocity=95 time=0
EXTRACT: note_on channel=0 note=53 velocity=95 time=0
EXTRACT: note_on channel=0 note=46 velocity=95 time=0
EXTRACT: note_off channel=2 note=41 velocity=95 time=0
EXTRACT: note_on channel=2 note=41 velocity=95 time=0
EXTRACT: note_off channel=9 note=36 velocity=95 time=0
EXTRACT: note_on channel=9 note=38 velocity=95 time=0
EXTRACT: note_on channel=9 note=54 velocity=95 time=0
EXTRACT: note_on channel=9 note=44 velocity=95 time=0
EXTRACT: note_off channel=0 note=70 velocity=95 time=0.19480499999999998
EXTRACT: note_off channel=0 note=65 velocity=95 time=0
EXTRACT: note_off channel=0 note=61 velocity=95 time=0
EXTRACT: note_off channel=0 note=58 velocity=95 time=0
EXTRACT: note_off channel=0 note=53 velocity=95 time=0
EXTRACT: note_off channel=0 note=46 velocity=95 time=0
EXTRACT: note_on channel=0 note=70 velocity=95 time=0
EXTRACT: note_on channel=0 note=65 velocity=95 time=0
EXTRACT: note_on channel=0 note=61 velocity=95 time=0
EXTRACT: note_on channel=0 note=58 velocity=95 time=0
EXTRACT: note_on channel=0 note=53 velocity=95 time=0
EXTRACT: note_on channel=0 note=46 velocity=95 time=0
EXTRACT: note_off channel=2 note=41 velocity=95 time=0
EXTRACT: note_on channel=2 note=41 velocity=95 time=0
EXTRACT: note_off channel=0 note=70 velocity=95 time=0.19480499999999998
EXTRACT: note_off channel=0 note=65 velocity=95 time=0
EXTRACT: note_off channel=0 note=61 velocity=95 time=0
EXTRACT: note_off channel=0 note=58 velocity=95 time=0
EXTRACT: note_off channel=0 note=53 velocity=95 time=0
EXTRACT: note_off channel=0 note=46 velocity=95 time=0
EXTRACT: note_on channel=0 note=64 velocity=95 time=0
EXTRACT: note_on channel=0 note=59 velocity=95 time=0
EXTRACT: note_on channel=0 note=55 velocity=95 time=0
EXTRACT: note_on channel=0 note=50 velocity=95 time=0
EXTRACT: note_on channel=0 note=45 velocity=95 time=0
EXTRACT: note_on channel=0 note=40 velocity=95 time=0
EXTRACT: note_off channel=2 note=41 velocity=95 time=0
EXTRACT: note_on channel=2 note=34 velocity=95 time=0
EXTRACT: note_off channel=9 note=38 velocity=95 time=0
EXTRACT: note_off channel=9 note=54 velocity=95 time=0
EXTRACT: note_off channel=9 note=44 velocity=95 time=0
EXTRACT: note_on channel=9 note=44 velocity=95 time=0
EXTRACT: note_off channel=0 note=64 velocity=95 time=0.030844124999999997
EXTRACT: note_off channel=0 note=59 velocity=95 time=0
EXTRACT: note_off channel=0 note=55 velocity=95 time=0
EXTRACT: note_off channel=0 note=50 velocity=95 time=0
EXTRACT: note_off channel=0 note=45 velocity=95 time=0
EXTRACT: note_off channel=0 note=40 velocity=95 time=0
EXTRACT: note_on channel=0 note=64 velocity=95 time=0.16396087499999998
EXTRACT: note_on channel=0 note=59 velocity=95 time=0
EXTRACT: note_on channel=0 note=55 velocity=95 time=0
EXTRACT: note_on channel=0 note=50 velocity=95 time=0
EXTRACT: note_on channel=0 note=45 velocity=95 time=0
EXTRACT: note_on channel=0 note=40 velocity=95 time=0
EXTRACT: note_off channel=2 note=34 velocity=95 time=0
EXTRACT: note_on channel=2 note=35 velocity=95 time=0
EXTRACT: note_off channel=9 note=44 velocity=95 time=0
EXTRACT: note_on channel=9 note=36 velocity=95 time=0
EXTRACT: note_off channel=0 note=64 velocity=95 time=0.030844124999999997
EXTRACT: note_off channel=0 note=59 velocity=95 time=0
EXTRACT: note_off channel=0 note=55 velocity=95 time=0
EXTRACT: note_off channel=0 note=50 velocity=95 time=0
EXTRACT: note_off channel=0 note=45 velocity=95 time=0
EXTRACT: note_off channel=0 note=40 velocity=95 time=0
EXTRACT: note_on channel=0 note=72 velocity=95 time=0.16396087499999998
EXTRACT: note_on channel=0 note=67 velocity=95 time=0
EXTRACT: note_on channel=0 note=64 velocity=95 time=0
EXTRACT: note_on channel=0 note=60 velocity=95 time=0
EXTRACT: note_on channel=0 note=55 velocity=95 time=0
EXTRACT: note_on channel=0 note=48 velocity=95 time=0
EXTRACT: note_off channel=2 note=35 velocity=95 time=0
EXTRACT: note_on channel=2 note=36 velocity=95 time=0
EXTRACT: note_off channel=9 note=36 velocity=95 time=0
EXTRACT: note_on channel=9 note=36 velocity=95 time=0
EXTRACT: note_on channel=9 note=44 velocity=95 time=0
EXTRACT: note_off channel=0 note=72 velocity=95 time=0.38960999999999996
EXTRACT: note_off channel=0 note=67 velocity=95 time=0
EXTRACT: note_off channel=0 note=64 velocity=95 time=0
EXTRACT: note_off channel=0 note=60 velocity=95 time=0
EXTRACT: note_off channel=0 note=55 velocity=95 time=0
EXTRACT: note_off channel=0 note=48 velocity=95 time=0
EXTRACT: note_on channel=0 note=64 velocity=95 time=0
EXTRACT: note_on channel=0 note=59 velocity=95 time=0
EXTRACT: note_on channel=0 note=55 velocity=95 time=0
EXTRACT: note_on channel=0 note=50 velocity=95 time=0
EXTRACT: note_on channel=0 note=45 velocity=95 time=0
EXTRACT: note_on channel=0 note=40 velocity=95 time=0
EXTRACT: note_off channel=2 note=36 velocity=95 time=0
EXTRACT: note_off channel=9 note=36 velocity=95 time=0
EXTRACT: note_off channel=9 note=44 velocity=95 time=0
EXTRACT: note_on channel=9 note=44 velocity=95 time=0
EXTRACT: note_off channel=0 note=64 velocity=95 time=0.030844124999999997
EXTRACT: note_off channel=0 note=59 velocity=95 time=0
EXTRACT: note_off channel=0 note=55 velocity=95 time=0
EXTRACT: note_off channel=0 note=50 velocity=95 time=0
EXTRACT: note_off channel=0 note=45 velocity=95 time=0
EXTRACT: note_off channel=0 note=40 velocity=95 time=0
EXTRACT: note_on channel=0 note=72 velocity=95 time=0.16396087499999998
EXTRACT: note_on channel=0 note=67 velocity=95 time=0
EXTRACT: note_on channel=0 note=64 velocity=95 time=0
EXTRACT: note_on channel=0 note=60 velocity=95 time=0
EXTRACT: note_on channel=0 note=55 velocity=95 time=0
EXTRACT: note_on channel=0 note=48 velocity=95 time=0
EXTRACT: note_on channel=2 note=43 velocity=95 time=0
EXTRACT: note_off channel=9 note=44 velocity=95 time=0
EXTRACT: note_on channel=9 note=36 velocity=95 time=0
EXTRACT: note_off channel=0 note=72 velocity=95 time=0.19480499999999998
EXTRACT: note_off channel=0 note=67 velocity=95 time=0
EXTRACT: note_off channel=0 note=64 velocity=95 time=0
EXTRACT: note_off channel=0 note=60 velocity=95 time=0
EXTRACT: note_off channel=0 note=55 velocity=95 time=0
EXTRACT: note_off channel=0 note=48 velocity=95 time=0
EXTRACT: note_on channel=0 note=72 velocity=95 time=0
EXTRACT: note_on channel=0 note=67 velocity=95 time=0
EXTRACT: note_on channel=0 note=64 velocity=95 time=0
EXTRACT: note_on channel=0 note=60 velocity=95 time=0
EXTRACT: note_on channel=0 note=55 velocity=95 time=0
EXTRACT: note_on channel=0 note=48 velocity=95 time=0
EXTRACT: note_off channel=2 note=43 velocity=95 time=0
EXTRACT: note_on channel=2 note=43 velocity=95 time=0
EXTRACT: note_off channel=9 note=36 velocity=95 time=0
EXTRACT: note_on channel=9 note=38 velocity=95 time=0
EXTRACT: note_on channel=9 note=54 velocity=95 time=0
EXTRACT: note_on channel=9 note=44 velocity=95 time=0
EXTRACT: note_off channel=0 note=72 velocity=95 time=0.19480499999999998
EXTRACT: note_off channel=0 note=67 velocity=95 time=0
EXTRACT: note_off channel=0 note=64 velocity=95 time=0
EXTRACT: note_off channel=0 note=60 velocity=95 time=0
EXTRACT: note_off channel=0 note=55 velocity=95 time=0
EXTRACT: note_off channel=0 note=48 velocity=95 time=0
EXTRACT: note_on channel=0 note=72 velocity=95 time=0
EXTRACT: note_on channel=0 note=67 velocity=95 time=0
EXTRACT: note_on channel=0 note=64 velocity=95 time=0
EXTRACT: note_on channel=0 note=60 velocity=95 time=0
EXTRACT: note_on channel=0 note=55 velocity=95 time=0
EXTRACT: note_on channel=0 note=48 velocity=95 time=0
EXTRACT: note_off channel=2 note=43 velocity=95 time=0
EXTRACT: note_on channel=2 note=43 velocity=95 time=0
EXTRACT: note_off channel=0 note=72 velocity=95 time=0.19480499999999998
EXTRACT: note_off channel=0 note=67 velocity=95 time=0
EXTRACT: note_off channel=0 note=64 velocity=95 time=0
EXTRACT: note_off channel=0 note=60 velocity=95 time=0
EXTRACT: note_off channel=0 note=55 velocity=95 time=0
EXTRACT: note_off channel=0 note=48 velocity=95 time=0
EXTRACT: note_on channel=0 note=64 velocity=95 time=0
EXTRACT: note_on channel=0 note=59 velocity=95 time=0
EXTRACT: note_on channel=0 note=55 velocity=95 time=0
EXTRACT: note_on channel=0 note=50 velocity=95 time=0
EXTRACT: note_on channel=0 note=45 velocity=95 time=0
EXTRACT: note_on channel=0 note=40 velocity=95 time=0
EXTRACT: note_off channel=2 note=43 velocity=95 time=0
EXTRACT: note_on channel=2 note=43 velocity=95 time=0
EXTRACT: note_off channel=9 note=38 velocity=95 time=0
EXTRACT: note_off channel=9 note=54 velocity=95 time=0
EXTRACT: note_off channel=9 note=44 velocity=95 time=0
EXTRACT: note_on channel=9 note=44 velocity=95 time=0
EXTRACT: note_off channel=0 note=64 velocity=95 time=0.030844124999999997
EXTRACT: note_off channel=0 note=59 velocity=95 time=0
EXTRACT: note_off channel=0 note=55 velocity=95 time=0
EXTRACT: note_off channel=0 note=50 velocity=95 time=0
EXTRACT: note_off channel=0 note=45 velocity=95 time=0
EXTRACT: note_off channel=0 note=40 velocity=95 time=0
EXTRACT: note_on channel=0 note=64 velocity=95 time=0.16396087499999998
EXTRACT: note_on channel=0 note=59 velocity=95 time=0
EXTRACT: note_on channel=0 note=55 velocity=95 time=0
EXTRACT: note_on channel=0 note=50 velocity=95 time=0
EXTRACT: note_on channel=0 note=45 velocity=95 time=0
EXTRACT: note_on channel=0 note=40 velocity=95 time=0
EXTRACT: note_off channel=9 note=44 velocity=95 time=0
EXTRACT: note_off channel=0 note=64 velocity=95 time=0.030844124999999997
EXTRACT: note_off channel=0 note=59 velocity=95 time=0
EXTRACT: note_off channel=0 note=55 velocity=95 time=0
EXTRACT: note_off channel=0 note=50 velocity=95 time=0
EXTRACT: note_off channel=0 note=45 velocity=95 time=0
EXTRACT: note_off channel=0 note=40 velocity=95 time=0
EXTRACT: note_on channel=0 note=68 velocity=95 time=0.16396087499999998
EXTRACT: note_on channel=0 note=65 velocity=95 time=0
EXTRACT: note_on channel=0 note=60 velocity=95 time=0
EXTRACT: note_on channel=0 note=53 velocity=95 time=0
EXTRACT: note_off channel=2 note=43 velocity=95 time=0
EXTRACT: note_on channel=2 note=29 velocity=95 time=0
EXTRACT: note_on channel=9 note=36 velocity=95 time=0
EXTRACT: note_on channel=9 note=44 velocity=95 time=0
EXTRACT: note_off channel=0 note=68 velocity=95 time=0.38960999999999996
EXTRACT: note_off channel=0 note=65 velocity=95 time=0
EXTRACT: note_off channel=0 note=60 velocity=95 time=0
EXTRACT: note_off channel=0 note=53 velocity=95 time=0
EXTRACT: note_on channel=0 note=68 velocity=95 time=0
EXTRACT: note_on channel=0 note=65 velocity=95 time=0
EXTRACT: note_on channel=0 note=60 velocity=95 time=0
EXTRACT: note_on channel=0 note=53 velocity=95 time=0
EXTRACT: note_off channel=9 note=36 velocity=95 time=0
EXTRACT: note_off channel=9 note=44 velocity=95 time=0
EXTRACT: note_on channel=9 note=44 velocity=95 time=0
EXTRACT: note_off channel=0 note=68 velocity=95 time=0.19480499999999998
EXTRACT: note_off channel=0 note=65 velocity=95 time=0
EXTRACT: note_off channel=0 note=60 velocity=95 time=0
EXTRACT: note_off channel=0 note=53 velocity=95 time=0
EXTRACT: note_on channel=0 note=68 velocity=95 time=0
EXTRACT: note_on channel=0 note=65 velocity=95 time=0
EXTRACT: note_on channel=0 note=60 velocity=95 time=0
EXTRACT: note_on channel=0 note=53 velocity=95 time=0
EXTRACT: note_off channel=2 note=29 velocity=95 time=0
EXTRACT: note_on channel=2 note=36 velocity=95 time=0
EXTRACT: note_off channel=9 note=44 velocity=95 time=0
EXTRACT: note_on channel=9 note=36 velocity=95 time=0
EXTRACT: note_off channel=0 note=68 velocity=95 time=0.19480499999999998
EXTRACT: note_off channel=0 note=65 velocity=95 time=0
EXTRACT: note_off channel=0 note=60 velocity=95 time=0
EXTRACT: note_off channel=0 note=53 velocity=95 time=0
EXTRACT: note_on channel=0 note=68 velocity=95 time=0
EXTRACT: note_on channel=0 note=65 velocity=95 time=0
EXTRACT: note_on channel=0 note=60 velocity=95 time=0
EXTRACT: note_on channel=0 note=53 velocity=95 time=0
EXTRACT: note_off channel=2 note=36 velocity=95 time=0
EXTRACT: note_on channel=2 note=36 velocity=95 time=0
EXTRACT: note_off channel=9 note=36 velocity=95 time=0
EXTRACT: note_on channel=9 note=38 velocity=95 time=0
EXTRACT: note_on channel=9 note=54 velocity=95 time=0
EXTRACT: note_on channel=9 note=44 velocity=95 time=0
EXTRACT: note_off channel=0 note=68 velocity=95 time=0.19480499999999998
EXTRACT: note_off channel=0 note=65 velocity=95 time=0
EXTRACT: note_off channel=0 note=60 velocity=95 time=0
EXTRACT: note_off channel=0 note=53 velocity=95 time=0
EXTRACT: note_on channel=0 note=68 velocity=95 time=0
EXTRACT: note_on channel=0 note=65 velocity=95 time=0
EXTRACT: note_on channel=0 note=60 velocity=95 time=0
EXTRACT: note_on channel=0 note=53 velocity=95 time=0
EXTRACT: note_off channel=2 note=36 velocity=95 time=0
EXTRACT: note_on channel=2 note=36 velocity=95 time=0
EXTRACT: note_off channel=0 note=68 velocity=95 time=0.19480499999999998
EXTRACT: note_off channel=0 note=65 velocity=95 time=0
EXTRACT: note_off channel=0 note=60 velocity=95 time=0
EXTRACT: note_off channel=0 note=53 velocity=95 time=0
EXTRACT: note_on channel=0 note=59 velocity=95 time=0
EXTRACT: note_on channel=0 note=55 velocity=95 time=0
EXTRACT: note_on channel=0 note=50 velocity=95 time=0
EXTRACT: note_on channel=0 note=45 velocity=95 time=0
EXTRACT: note_off channel=9 note=38 velocity=95 time=0
EXTRACT: note_off channel=9 note=54 velocity=95 time=0
EXTRACT: note_off channel=9 note=44 velocity=95 time=0
EXTRACT: note_on channel=9 note=44 velocity=95 time=0
EXTRACT: note_off channel=0 note=59 velocity=95 time=0.030844124999999997
EXTRACT: note_off channel=0 note=55 velocity=95 time=0
EXTRACT: note_off channel=0 note=50 velocity=95 time=0
EXTRACT: note_off channel=0 note=45 velocity=95 time=0
EXTRACT: note_on channel=0 note=59 velocity=95 time=0.16396087499999998
EXTRACT: note_on channel=0 note=55 velocity=95 time=0
EXTRACT: note_on channel=0 note=50 velocity=95 time=0
EXTRACT: note_on channel=0 note=45 velocity=95 time=0
EXTRACT: note_off channel=2 note=36 velocity=95 time=0
EXTRACT: note_on channel=2 note=36 velocity=95 time=0
EXTRACT: note_off channel=9 note=44 velocity=95 time=0
EXTRACT: note_on channel=9 note=36 velocity=95 time=0
EXTRACT: note_off channel=0 note=59 velocity=95 time=0.030844124999999997
EXTRACT: note_off channel=0 note=55 velocity=95 time=0
EXTRACT: note_off channel=0 note=50 velocity=95 time=0
EXTRACT: note_off channel=0 note=45 velocity=95 time=0
EXTRACT: note_on channel=0 note=70 velocity=95 time=0.16396087499999998
EXTRACT: note_on channel=0 note=65 velocity=95 time=0
EXTRACT: note_on channel=0 note=61 velocity=95 time=0
EXTRACT: note_on channel=0 note=58 velocity=95 time=0
EXTRACT: note_on channel=0 note=53 velocity=95 time=0
EXTRACT: note_on channel=0 note=46 velocity=95 time=0
EXTRACT: note_off channel=2 note=36 velocity=95 time=0
EXTRACT: note_on channel=2 note=34 velocity=95 time=0
EXTRACT: note_off channel=9 note=36 velocity=95 time=0
EXTRACT: note_on channel=9 note=36 velocity=95 time=0
EXTRACT: note_on channel=9 note=44 velocity=95 time=0
EXTRACT: note_off channel=0 note=70 velocity=95 time=0.38960999999999996
EXTRACT: note_off channel=0 note=65 velocity=95 time=0
EXTRACT: note_off channel=0 note=61 velocity=95 time=0
EXTRACT: note_off channel=0 note=58 velocity=95 time=0
EXTRACT: note_off channel=0 note=53 velocity=95 time=0
EXTRACT: note_off channel=0 note=46 velocity=95 time=0
EXTRACT: note_on channel=0 note=64 velocity=95 time=0
EXTRACT: note_on channel=0 note=59 velocity=95 time=0
EXTRACT: note_on channel=0 note=55 velocity=95 time=0
EXTRACT: note_on channel=0 note=50 velocity=95 time=0
EXTRACT: note_on channel=0 note=45 velocity=95 time=0
EXTRACT: note_on channel=0 note=40 velocity=95 time=0
EXTRACT: note_off channel=9 note=36 velocity=95 time=0
EXTRACT: note_off channel=9 note=44 velocity=95 time=0
EXTRACT: note_on channel=9 note=38 velocity=95 time=0
EXTRACT: note_off channel=0 note=64 velocity=95 time=0.030844124999999997
EXTRACT: note_off channel=0 note=59 velocity=95 time=0
EXTRACT: note_off channel=0 note=55 velocity=95 time=0
EXTRACT: note_off channel=0 note=50 velocity=95 time=0
EXTRACT: note_off channel=0 note=45 velocity=95 time=0
EXTRACT: note_off channel=0 note=40 velocity=95 time=0
EXTRACT: note_on channel=0 note=64 velocity=95 time=0.16396087499999998
EXTRACT: note_on channel=0 note=59 velocity=95 time=0
EXTRACT: note_on channel=0 note=55 velocity=95 time=0
EXTRACT: note_on channel=0 note=50 velocity=95 time=0
EXTRACT: note_on channel=0 note=45 velocity=95 time=0
EXTRACT: note_on channel=0 note=40 velocity=95 time=0
EXTRACT: note_off channel=2 note=34 velocity=95 time=0
EXTRACT: note_on channel=2 note=34 velocity=95 time=0
EXTRACT: note_off channel=9 note=38 velocity=95 time=0
EXTRACT: note_on channel=9 note=38 velocity=95 time=0
EXTRACT: note_off channel=0 note=64 velocity=95 time=0.030844124999999997
EXTRACT: note_off channel=0 note=59 velocity=95 time=0
EXTRACT: note_off channel=0 note=55 velocity=95 time=0
EXTRACT: note_off channel=0 note=50 velocity=95 time=0
EXTRACT: note_off channel=0 note=45 velocity=95 time=0
EXTRACT: note_off channel=0 note=40 velocity=95 time=0
EXTRACT: note_on channel=0 note=70 velocity=95 time=0.16396087499999998
EXTRACT: note_on channel=0 note=64 velocity=95 time=0
EXTRACT: note_on channel=0 note=58 velocity=95 time=0
EXTRACT: note_on channel=0 note=55 velocity=95 time=0
EXTRACT: note_on channel=0 note=48 velocity=95 time=0
EXTRACT: note_off channel=2 note=34 velocity=95 time=0
EXTRACT: note_on channel=2 note=36 velocity=95 time=0
EXTRACT: note_off channel=9 note=38 velocity=95 time=0
EXTRACT: note_on channel=9 note=36 velocity=95 time=0
EXTRACT: note_on channel=9 note=44 velocity=95 time=0
EXTRACT: note_off channel=0 note=70 velocity=95 time=0.38960999999999996
EXTRACT: note_off channel=0 note=64 velocity=95 time=0
EXTRACT: note_off channel=0 note=58 velocity=95 time=0
EXTRACT: note_off channel=0 note=55 velocity=95 time=0
EXTRACT: note_off channel=0 note=48 velocity=95 time=0
EXTRACT: note_on channel=0 note=59 velocity=95 time=0
EXTRACT: note_on channel=0 note=55 velocity=95 time=0
EXTRACT: note_on channel=0 note=50 velocity=95 time=0
EXTRACT: note_on channel=0 note=45 velocity=95 time=0
EXTRACT: note_on channel=0 note=40 velocity=95 time=0
EXTRACT: note_off channel=9 note=36 velocity=95 time=0
EXTRACT: note_off channel=9 note=44 velocity=95 time=0
EXTRACT: note_on channel=9 note=38 velocity=95 time=0
EXTRACT: note_off channel=0 note=59 velocity=95 time=0.030844124999999997
EXTRACT: note_off channel=0 note=55 velocity=95 time=0
EXTRACT: note_off channel=0 note=50 velocity=95 time=0
EXTRACT: note_off channel=0 note=45 velocity=95 time=0
EXTRACT: note_off channel=0 note=40 velocity=95 time=0
EXTRACT: note_on channel=0 note=59 velocity=95 time=0.16396087499999998
EXTRACT: note_on channel=0 note=55 velocity=95 time=0
EXTRACT: note_on channel=0 note=50 velocity=95 time=0
EXTRACT: note_on channel=0 note=45 velocity=95 time=0
EXTRACT: note_on channel=0 note=40 velocity=95 time=0
EXTRACT: note_off channel=2 note=36 velocity=95 time=0
EXTRACT: note_on channel=2 note=36 velocity=95 time=0
EXTRACT: note_off channel=9 note=38 velocity=95 time=0
EXTRACT: note_on channel=9 note=38 velocity=95 time=0
EXTRACT: note_off channel=0 note=59 velocity=95 time=0.030844124999999997
EXTRACT: note_off channel=0 note=55 velocity=95 time=0
EXTRACT: note_off channel=0 note=50 velocity=95 time=0
EXTRACT: note_off channel=0 note=45 velocity=95 time=0
EXTRACT: note_off channel=0 note=40 velocity=95 time=0
EXTRACT: note_on channel=0 note=68 velocity=95 time=0.16396087499999998
EXTRACT: note_on channel=0 note=65 velocity=95 time=0
EXTRACT: note_on channel=0 note=60 velocity=95 time=0
EXTRACT: note_on channel=0 note=53 velocity=95 time=0
EXTRACT: note_off channel=2 note=36 velocity=95 time=0
EXTRACT: note_on channel=2 note=29 velocity=95 time=0
EXTRACT: note_off channel=9 note=38 velocity=95 time=0
EXTRACT: note_on channel=9 note=36 velocity=95 time=0
EXTRACT: note_on channel=9 note=44 velocity=95 time=0
EXTRACT: note_off channel=0 note=68 velocity=95 time=0.38960999999999996
EXTRACT: note_off channel=0 note=65 velocity=95 time=0
EXTRACT: note_off channel=0 note=60 velocity=95 time=0
EXTRACT: note_off channel=0 note=53 velocity=95 time=0
EXTRACT: note_on channel=0 note=68 velocity=95 time=0
EXTRACT: note_on channel=0 note=65 velocity=95 time=0
EXTRACT: note_on channel=0 note=60 velocity=95 time=0
EXTRACT: note_on channel=0 note=53 velocity=95 time=0
EXTRACT: note_off channel=9 note=36 velocity=95 time=0
EXTRACT: note_off channel=9 note=44 velocity=95 time=0
EXTRACT: note_on channel=9 note=44 velocity=95 time=0
EXTRACT: note_off channel=0 note=68 velocity=95 time=0.19480499999999998
EXTRACT: note_off channel=0 note=65 velocity=95 time=0
EXTRACT: note_off channel=0 note=60 velocity=95 time=0
EXTRACT: note_off channel=0 note=53 velocity=95 time=0
EXTRACT: note_on channel=0 note=68 velocity=95 time=0
EXTRACT: note_on channel=0 note=65 velocity=95 time=0
EXTRACT: note_on channel=0 note=60 velocity=95 time=0
EXTRACT: note_on channel=0 note=53 velocity=95 time=0
EXTRACT: note_off channel=2 note=29 velocity=95 time=0
EXTRACT: note_on channel=2 note=36 velocity=95 time=0
EXTRACT: note_off channel=9 note=44 velocity=95 time=0
EXTRACT: note_on channel=9 note=36 velocity=95 time=0
EXTRACT: note_off channel=0 note=68 velocity=95 time=0.19480499999999998
EXTRACT: note_off channel=0 note=65 velocity=95 time=0
EXTRACT: note_off channel=0 note=60 velocity=95 time=0
EXTRACT: note_off channel=0 note=53 velocity=95 time=0
EXTRACT: note_on channel=0 note=68 velocity=95 time=0
EXTRACT: note_on channel=0 note=65 velocity=95 time=0
EXTRACT: note_on channel=0 note=60 velocity=95 time=0
EXTRACT: note_on channel=0 note=53 velocity=95 time=0
EXTRACT: note_off channel=2 note=36 velocity=95 time=0
EXTRACT: note_on channel=2 note=36 velocity=95 time=0
EXTRACT: note_off channel=9 note=36 velocity=95 time=0
EXTRACT: note_on channel=9 note=38 velocity=95 time=0
EXTRACT: note_on channel=9 note=54 velocity=95 time=0
EXTRACT: note_on channel=9 note=44 velocity=95 time=0
EXTRACT: note_off channel=0 note=68 velocity=95 time=0.19480499999999998
EXTRACT: note_off channel=0 note=65 velocity=95 time=0
EXTRACT: note_off channel=0 note=60 velocity=95 time=0
EXTRACT: note_off channel=0 note=53 velocity=95 time=0
EXTRACT: note_on channel=0 note=68 velocity=95 time=0
EXTRACT: note_on channel=0 note=65 velocity=95 time=0
EXTRACT: note_on channel=0 note=60 velocity=95 time=0
EXTRACT: note_on channel=0 note=53 velocity=95 time=0
EXTRACT: note_off channel=2 note=36 velocity=95 time=0
EXTRACT: note_on channel=2 note=36 velocity=95 time=0
EXTRACT: note_off channel=0 note=68 velocity=95 time=0.19480499999999998
EXTRACT: note_off channel=0 note=65 velocity=95 time=0
EXTRACT: note_off channel=0 note=60 velocity=95 time=0
EXTRACT: note_off channel=0 note=53 velocity=95 time=0
EXTRACT: note_on channel=0 note=59 velocity=95 time=0
EXTRACT: note_on channel=0 note=55 velocity=95 time=0
EXTRACT: note_on channel=0 note=50 velocity=95 time=0
EXTRACT: note_on channel=0 note=45 velocity=95 time=0
EXTRACT: note_off channel=2 note=36 velocity=95 time=0
EXTRACT: note_on channel=2 note=36 velocity=95 time=0
EXTRACT: note_off channel=9 note=38 velocity=95 time=0
EXTRACT: note_off channel=9 note=54 velocity=95 time=0
EXTRACT: note_off channel=9 note=44 velocity=95 time=0
EXTRACT: note_on channel=9 note=44 velocity=95 time=0
EXTRACT: note_off channel=0 note=59 velocity=95 time=0.030844124999999997
EXTRACT: note_off channel=0 note=55 velocity=95 time=0
EXTRACT: note_off channel=0 note=50 velocity=95 time=0
EXTRACT: note_off channel=0 note=45 velocity=95 time=0
EXTRACT: note_on channel=0 note=59 velocity=95 time=0.16396087499999998
EXTRACT: note_on channel=0 note=55 velocity=95 time=0
EXTRACT: note_on channel=0 note=50 velocity=95 time=0
EXTRACT: note_on channel=0 note=45 velocity=95 time=0
EXTRACT: note_off channel=2 note=36 velocity=95 time=0
EXTRACT: note_on channel=2 note=36 velocity=95 time=0
EXTRACT: note_off channel=9 note=44 velocity=95 time=0
EXTRACT: note_on channel=9 note=36 velocity=95 time=0
EXTRACT: note_off channel=0 note=59 velocity=95 time=0.030844124999999997
EXTRACT: note_off channel=0 note=55 velocity=95 time=0
EXTRACT: note_off channel=0 note=50 velocity=95 time=0
EXTRACT: note_off channel=0 note=45 velocity=95 time=0
EXTRACT: note_on channel=0 note=70 velocity=95 time=0.16396087499999998
EXTRACT: note_on channel=0 note=65 velocity=95 time=0
EXTRACT: note_on channel=0 note=61 velocity=95 time=0
EXTRACT: note_on channel=0 note=58 velocity=95 time=0
EXTRACT: note_on channel=0 note=53 velocity=95 time=0
EXTRACT: note_on channel=0 note=46 velocity=95 time=0
EXTRACT: note_off channel=2 note=36 velocity=95 time=0
EXTRACT: note_on channel=2 note=34 velocity=95 time=0
EXTRACT: note_off channel=9 note=36 velocity=95 time=0
EXTRACT: note_on channel=9 note=36 velocity=95 time=0
EXTRACT: note_on channel=9 note=44 velocity=95 time=0
EXTRACT: note_off channel=0 note=70 velocity=95 time=0.38960999999999996
EXTRACT: note_off channel=0 note=65 velocity=95 time=0
EXTRACT: note_off channel=0 note=61 velocity=95 time=0
EXTRACT: note_off channel=0 note=58 velocity=95 time=0
EXTRACT: note_off channel=0 note=53 velocity=95 time=0
EXTRACT: note_off channel=0 note=46 velocity=95 time=0
EXTRACT: note_on channel=0 note=70 velocity=95 time=0
EXTRACT: note_on channel=0 note=65 velocity=95 time=0
EXTRACT: note_on channel=0 note=61 velocity=95 time=0
EXTRACT: note_on channel=0 note=58 velocity=95 time=0
EXTRACT: note_on channel=0 note=53 velocity=95 time=0
EXTRACT: note_on channel=0 note=46 velocity=95 time=0
EXTRACT: note_off channel=2 note=34 velocity=95 time=0
EXTRACT: note_on channel=2 note=34 velocity=95 time=0
EXTRACT: note_off channel=9 note=36 velocity=95 time=0
EXTRACT: note_off channel=9 note=44 velocity=95 time=0
EXTRACT: note_on channel=9 note=44 velocity=95 time=0
EXTRACT: note_off channel=0 note=70 velocity=95 time=0.19480499999999998
EXTRACT: note_off channel=0 note=65 velocity=95 time=0
EXTRACT: note_off channel=0 note=61 velocity=95 time=0
EXTRACT: note_off channel=0 note=58 velocity=95 time=0
EXTRACT: note_off channel=0 note=53 velocity=95 time=0
EXTRACT: note_off channel=0 note=46 velocity=95 time=0
EXTRACT: note_on channel=0 note=70 velocity=95 time=0
EXTRACT: note_on channel=0 note=65 velocity=95 time=0
EXTRACT: note_on channel=0 note=61 velocity=95 time=0
EXTRACT: note_on channel=0 note=58 velocity=95 time=0
EXTRACT: note_on channel=0 note=53 velocity=95 time=0
EXTRACT: note_on channel=0 note=46 velocity=95 time=0
EXTRACT: note_off channel=9 note=44 velocity=95 time=0
EXTRACT: note_on channel=9 note=36 velocity=95 time=0
EXTRACT: note_off channel=0 note=70 velocity=95 time=0.19480499999999998
EXTRACT: note_off channel=0 note=65 velocity=95 time=0
EXTRACT: note_off channel=0 note=61 velocity=95 time=0
EXTRACT: note_off channel=0 note=58 velocity=95 time=0
EXTRACT: note_off channel=0 note=53 velocity=95 time=0
EXTRACT: note_off channel=0 note=46 velocity=95 time=0
EXTRACT: note_on channel=0 note=70 velocity=95 time=0
EXTRACT: note_on channel=0 note=65 velocity=95 time=0
EXTRACT: note_on channel=0 note=61 velocity=95 time=0
EXTRACT: note_on channel=0 note=58 velocity=95 time=0
EXTRACT: note_on channel=0 note=53 velocity=95 time=0
EXTRACT: note_on channel=0 note=46 velocity=95 time=0
EXTRACT: note_off channel=2 note=34 velocity=95 time=0
EXTRACT: note_on channel=2 note=29 velocity=95 time=0
EXTRACT: note_off channel=9 note=36 velocity=95 time=0
EXTRACT: note_on channel=9 note=38 velocity=95 time=0
EXTRACT: note_on channel=9 note=54 velocity=95 time=0
EXTRACT: note_on channel=9 note=44 velocity=95 time=0
EXTRACT: note_off channel=0 note=70 velocity=95 time=0.19480499999999998
EXTRACT: note_off channel=0 note=65 velocity=95 time=0
EXTRACT: note_off channel=0 note=61 velocity=95 time=0
EXTRACT: note_off channel=0 note=58 velocity=95 time=0
EXTRACT: note_off channel=0 note=53 velocity=95 time=0
EXTRACT: note_off channel=0 note=46 velocity=95 time=0
EXTRACT: note_on channel=0 note=70 velocity=95 time=0
EXTRACT: note_on channel=0 note=65 velocity=95 time=0
EXTRACT: note_on channel=0 note=61 velocity=95 time=0
EXTRACT: note_on channel=0 note=58 velocity=95 time=0
EXTRACT: note_on channel=0 note=53 velocity=95 time=0
EXTRACT: note_on channel=0 note=46 velocity=95 time=0
EXTRACT: note_off channel=0 note=70 velocity=95 time=0.19480499999999998
EXTRACT: note_off channel=0 note=65 velocity=95 time=0
EXTRACT: note_off channel=0 note=61 velocity=95 time=0
EXTRACT: note_off channel=0 note=58 velocity=95 time=0
EXTRACT: note_off channel=0 note=53 velocity=95 time=0
EXTRACT: note_off channel=0 note=46 velocity=95 time=0
EXTRACT: note_on channel=0 note=64 velocity=95 time=0
EXTRACT: note_on channel=0 note=59 velocity=95 time=0
EXTRACT: note_on channel=0 note=55 velocity=95 time=0
EXTRACT: note_on channel=0 note=50 velocity=95 time=0
EXTRACT: note_on channel=0 note=45 velocity=95 time=0
EXTRACT: note_on channel=0 note=40 velocity=95 time=0
EXTRACT: note_off channel=9 note=38 velocity=95 time=0
EXTRACT: note_off channel=9 note=54 velocity=95 time=0
EXTRACT: note_off channel=9 note=44 velocity=95 time=0
EXTRACT: note_on channel=9 note=44 velocity=95 time=0
EXTRACT: note_off channel=0 note=64 velocity=95 time=0.030844124999999997
EXTRACT: note_off channel=0 note=59 velocity=95 time=0
EXTRACT: note_off channel=0 note=55 velocity=95 time=0
EXTRACT: note_off channel=0 note=50 velocity=95 time=0
EXTRACT: note_off channel=0 note=45 velocity=95 time=0
EXTRACT: note_off channel=0 note=40 velocity=95 time=0
EXTRACT: note_on channel=0 note=64 velocity=95 time=0.16396087499999998
EXTRACT: note_on channel=0 note=59 velocity=95 time=0
EXTRACT: note_on channel=0 note=55 velocity=95 time=0
EXTRACT: note_on channel=0 note=50 velocity=95 time=0
EXTRACT: note_on channel=0 note=45 velocity=95 time=0
EXTRACT: note_on channel=0 note=40 velocity=95 time=0
EXTRACT: note_off channel=9 note=44 velocity=95 time=0
EXTRACT: note_off channel=0 note=64 velocity=95 time=0.030844124999999997
EXTRACT: note_off channel=0 note=59 velocity=95 time=0
EXTRACT: note_off channel=0 note=55 velocity=95 time=0
EXTRACT: note_off channel=0 note=50 velocity=95 time=0
EXTRACT: note_off channel=0 note=45 velocity=95 time=0
EXTRACT: note_off channel=0 note=40 velocity=95 time=0
EXTRACT: note_on channel=0 note=67 velocity=95 time=0.16396087499999998
EXTRACT: note_on channel=0 note=63 velocity=95 time=0
EXTRACT: note_on channel=0 note=58 velocity=95 time=0
EXTRACT: note_on channel=0 note=51 velocity=95 time=0
EXTRACT: note_off channel=2 note=29 velocity=95 time=0
EXTRACT: note_on channel=2 note=39 velocity=95 time=0
EXTRACT: note_on channel=9 note=36 velocity=95 time=0
EXTRACT: note_on channel=9 note=44 velocity=95 time=0
EXTRACT: note_off channel=0 note=67 velocity=95 time=0.38960999999999996
EXTRACT: note_off channel=0 note=63 velocity=95 time=0
EXTRACT: note_off channel=0 note=58 velocity=95 time=0
EXTRACT: note_off channel=0 note=51 velocity=95 time=0
EXTRACT: note_on channel=0 note=67 velocity=95 time=0
EXTRACT: note_on channel=0 note=63 velocity=95 time=0
EXTRACT: note_on channel=0 note=58 velocity=95 time=0
EXTRACT: note_on channel=0 note=51 velocity=95 time=0
EXTRACT: note_off channel=2 note=39 velocity=95 time=0
EXTRACT: note_on channel=2 note=46 velocity=95 time=0
EXTRACT: note_off channel=9 note=36 velocity=95 time=0
EXTRACT: note_off channel=9 note=44 velocity=95 time=0
EXTRACT: note_on channel=9 note=44 velocity=95 time=0
EXTRACT: note_off channel=0 note=67 velocity=95 time=0.19480499999999998
EXTRACT: note_off channel=0 note=63 velocity=95 time=0
EXTRACT: note_off channel=0 note=58 velocity=95 time=0
EXTRACT: note_off channel=0 note=51 velocity=95 time=0
EXTRACT: note_on channel=0 note=67 velocity=95 time=0
EXTRACT: note_on channel=0 note=63 velocity=95 time=0
EXTRACT: note_on channel=0 note=58 velocity=95 time=0
EXTRACT: note_on channel=0 note=51 velocity=95 time=0
EXTRACT: note_off channel=2 note=46 velocity=95 time=0
EXTRACT: note_on channel=2 note=46 velocity=95 time=0
EXTRACT: note_off channel=9 note=44 velocity=95 time=0
EXTRACT: note_on channel=9 note=36 velocity=95 time=0
EXTRACT: note_off channel=0 note=67 velocity=95 time=0.19480499999999998
EXTRACT: note_off channel=0 note=63 velocity=95 time=0
EXTRACT: note_off channel=0 note=58 velocity=95 time=0
EXTRACT: note_off channel=0 note=51 velocity=95 time=0
EXTRACT: note_on channel=0 note=67 velocity=95 time=0
EXTRACT: note_on channel=0 note=63 velocity=95 time=0
EXTRACT: note_on channel=0 note=58 velocity=95 time=0
EXTRACT: note_on channel=0 note=51 velocity=95 time=0
EXTRACT: note_off channel=2 note=46 velocity=95 time=0
EXTRACT: note_on channel=2 note=46 velocity=95 time=0
EXTRACT: note_off channel=9 note=36 velocity=95 time=0
EXTRACT: note_on channel=9 note=38 velocity=95 time=0
EXTRACT: note_on channel=9 note=54 velocity=95 time=0
EXTRACT: note_on channel=9 note=44 velocity=95 time=0
EXTRACT: note_off channel=0 note=67 velocity=95 time=0.19480499999999998
EXTRACT: note_off channel=0 note=63 velocity=95 time=0
EXTRACT: note_off channel=0 note=58 velocity=95 time=0
EXTRACT: note_off channel=0 note=51 velocity=95 time=0
EXTRACT: note_on channel=0 note=67 velocity=95 time=0
EXTRACT: note_on channel=0 note=63 velocity=95 time=0
EXTRACT: note_on channel=0 note=58 velocity=95 time=0
EXTRACT: note_on channel=0 note=51 velocity=95 time=0
EXTRACT: note_off channel=2 note=46 velocity=95 time=0
EXTRACT: note_on channel=2 note=46 velocity=95 time=0
EXTRACT: note_off channel=0 note=67 velocity=95 time=0.19480499999999998
EXTRACT: note_off channel=0 note=63 velocity=95 time=0
EXTRACT: note_off channel=0 note=58 velocity=95 time=0
EXTRACT: note_off channel=0 note=51 velocity=95 time=0
EXTRACT: note_on channel=0 note=59 velocity=95 time=0
EXTRACT: note_on channel=0 note=55 velocity=95 time=0
EXTRACT: note_on channel=0 note=50 velocity=95 time=0
EXTRACT: note_on channel=0 note=45 velocity=95 time=0
EXTRACT: note_off channel=2 note=46 velocity=95 time=0
EXTRACT: note_on channel=2 note=34 velocity=95 time=0
EXTRACT: note_off channel=9 note=38 velocity=95 time=0
EXTRACT: note_off channel=9 note=54 velocity=95 time=0
EXTRACT: note_off channel=9 note=44 velocity=95 time=0
EXTRACT: note_on channel=9 note=44 velocity=95 time=0
EXTRACT: note_off channel=0 note=59 velocity=95 time=0.030844124999999997
EXTRACT: note_off channel=0 note=55 velocity=95 time=0
EXTRACT: note_off channel=0 note=50 velocity=95 time=0
EXTRACT: note_off channel=0 note=45 velocity=95 time=0
EXTRACT: note_on channel=0 note=59 velocity=95 time=0.16396087499999998
EXTRACT: note_on channel=0 note=55 velocity=95 time=0
EXTRACT: note_on channel=0 note=50 velocity=95 time=0
EXTRACT: note_on channel=0 note=45 velocity=95 time=0
EXTRACT: note_off channel=2 note=34 velocity=95 time=0
EXTRACT: note_on channel=2 note=35 velocity=95 time=0
EXTRACT: note_off channel=9 note=44 velocity=95 time=0
EXTRACT: note_on channel=9 note=36 velocity=95 time=0
EXTRACT: note_off channel=0 note=59 velocity=95 time=0.030844124999999997
EXTRACT: note_off channel=0 note=55 velocity=95 time=0
EXTRACT: note_off channel=0 note=50 velocity=95 time=0
EXTRACT: note_off channel=0 note=45 velocity=95 time=0
EXTRACT: note_on channel=0 note=72 velocity=95 time=0.16396087499999998
EXTRACT: note_on channel=0 note=67 velocity=95 time=0
EXTRACT: note_on channel=0 note=64 velocity=95 time=0
EXTRACT: note_on channel=0 note=60 velocity=95 time=0
EXTRACT: note_on channel=0 note=55 velocity=95 time=0
EXTRACT: note_on channel=0 note=48 velocity=95 time=0
EXTRACT: note_off channel=2 note=35 velocity=95 time=0
EXTRACT: note_on channel=2 note=36 velocity=95 time=0
EXTRACT: note_off channel=9 note=36 velocity=95 time=0
EXTRACT: note_on channel=9 note=36 velocity=95 time=0
EXTRACT: note_on channel=9 note=44 velocity=95 time=0
EXTRACT: note_off channel=0 note=72 velocity=95 time=0.38960999999999996
EXTRACT: note_off channel=0 note=67 velocity=95 time=0
EXTRACT: note_off channel=0 note=64 velocity=95 time=0
EXTRACT: note_off channel=0 note=60 velocity=95 time=0
EXTRACT: note_off channel=0 note=55 velocity=95 time=0
EXTRACT: note_off channel=0 note=48 velocity=95 time=0
EXTRACT: note_on channel=0 note=72 velocity=95 time=0
EXTRACT: note_on channel=0 note=67 velocity=95 time=0
EXTRACT: note_on channel=0 note=64 velocity=95 time=0
EXTRACT: note_on channel=0 note=60 velocity=95 time=0
EXTRACT: note_on channel=0 note=55 velocity=95 time=0
EXTRACT: note_on channel=0 note=48 velocity=95 time=0
EXTRACT: note_off channel=2 note=36 velocity=95 time=0
EXTRACT: note_on channel=2 note=36 velocity=95 time=0
EXTRACT: note_off channel=9 note=36 velocity=95 time=0
EXTRACT: note_off channel=9 note=44 velocity=95 time=0
EXTRACT: note_on channel=9 note=44 velocity=95 time=0
EXTRACT: note_off channel=0 note=72 velocity=95 time=0.19480499999999998
EXTRACT: note_off channel=0 note=67 velocity=95 time=0
EXTRACT: note_off channel=0 note=64 velocity=95 time=0
EXTRACT: note_off channel=0 note=60 velocity=95 time=0
EXTRACT: note_off channel=0 note=55 velocity=95 time=0
EXTRACT: note_off channel=0 note=48 velocity=95 time=0
EXTRACT: note_on channel=0 note=72 velocity=95 time=0
EXTRACT: note_on channel=0 note=67 velocity=95 time=0
EXTRACT: note_on channel=0 note=64 velocity=95 time=0
EXTRACT: note_on channel=0 note=60 velocity=95 time=0
EXTRACT: note_on channel=0 note=55 velocity=95 time=0
EXTRACT: note_on channel=0 note=48 velocity=95 time=0
EXTRACT: note_off channel=9 note=44 velocity=95 time=0
EXTRACT: note_on channel=9 note=36 velocity=95 time=0
EXTRACT: note_off channel=0 note=72 velocity=95 time=0.19480499999999998
EXTRACT: note_off channel=0 note=67 velocity=95 time=0
EXTRACT: note_off channel=0 note=64 velocity=95 time=0
EXTRACT: note_off channel=0 note=60 velocity=95 time=0
EXTRACT: note_off channel=0 note=55 velocity=95 time=0
EXTRACT: note_off channel=0 note=48 velocity=95 time=0
EXTRACT: note_on channel=0 note=72 velocity=95 time=0
EXTRACT: note_on channel=0 note=67 velocity=95 time=0
EXTRACT: note_on channel=0 note=64 velocity=95 time=0
EXTRACT: note_on channel=0 note=60 velocity=95 time=0
EXTRACT: note_on channel=0 note=55 velocity=95 time=0
EXTRACT: note_on channel=0 note=48 velocity=95 time=0
EXTRACT: note_off channel=2 note=36 velocity=95 time=0
EXTRACT: note_on channel=2 note=31 velocity=95 time=0
EXTRACT: note_off channel=9 note=36 velocity=95 time=0
EXTRACT: note_on channel=9 note=38 velocity=95 time=0
EXTRACT: note_on channel=9 note=54 velocity=95 time=0
EXTRACT: note_on channel=9 note=44 velocity=95 time=0
EXTRACT: note_off channel=0 note=72 velocity=95 time=0.19480499999999998
EXTRACT: note_off channel=0 note=67 velocity=95 time=0
EXTRACT: note_off channel=0 note=64 velocity=95 time=0
EXTRACT: note_off channel=0 note=60 velocity=95 time=0
EXTRACT: note_off channel=0 note=55 velocity=95 time=0
EXTRACT: note_off channel=0 note=48 velocity=95 time=0
EXTRACT: note_on channel=0 note=72 velocity=95 time=0
EXTRACT: note_on channel=0 note=67 velocity=95 time=0
EXTRACT: note_on channel=0 note=64 velocity=95 time=0
EXTRACT: note_on channel=0 note=60 velocity=95 time=0
EXTRACT: note_on channel=0 note=55 velocity=95 time=0
EXTRACT: note_on channel=0 note=48 velocity=95 time=0
EXTRACT: note_off channel=0 note=72 velocity=95 time=0.19480499999999998
EXTRACT: note_off channel=0 note=67 velocity=95 time=0
EXTRACT: note_off channel=0 note=64 velocity=95 time=0
EXTRACT: note_off channel=0 note=60 velocity=95 time=0
EXTRACT: note_off channel=0 note=55 velocity=95 time=0
EXTRACT: note_off channel=0 note=48 velocity=95 time=0
EXTRACT: note_on channel=0 note=64 velocity=95 time=0
EXTRACT: note_on channel=0 note=59 velocity=95 time=0
EXTRACT: note_on channel=0 note=55 velocity=95 time=0
EXTRACT: note_on channel=0 note=50 velocity=95 time=0
EXTRACT: note_on channel=0 note=45 velocity=95 time=0
EXTRACT: note_on channel=0 note=40 velocity=95 time=0
EXTRACT: note_off channel=2 note=31 velocity=95 time=0
EXTRACT: note_on channel=2 note=36 velocity=95 time=0
EXTRACT: note_off channel=9 note=38 velocity=95 time=0
EXTRACT: note_off channel=9 note=54 velocity=95 time=0
EXTRACT: note_off channel=9 note=44 velocity=95 time=0
EXTRACT: note_on channel=9 note=44 velocity=95 time=0
EXTRACT: note_off channel=0 note=64 velocity=95 time=0.030844124999999997
EXTRACT: note_off channel=0 note=59 velocity=95 time=0
EXTRACT: note_off channel=0 note=55 velocity=95 time=0
EXTRACT: note_off channel=0 note=50 velocity=95 time=0
EXTRACT: note_off channel=0 note=45 velocity=95 time=0
EXTRACT: note_off channel=0 note=40 velocity=95 time=0
EXTRACT: note_on channel=0 note=64 velocity=95 time=0.16396087499999998
EXTRACT: note_on channel=0 note=59 velocity=95 time=0
EXTRACT: note_on channel=0 note=55 velocity=95 time=0
EXTRACT: note_on channel=0 note=50 velocity=95 time=0
EXTRACT: note_on channel=0 note=45 velocity=95 time=0
EXTRACT: note_on channel=0 note=40 velocity=95 time=0
EXTRACT: note_off channel=2 note=36 velocity=95 time=0
EXTRACT: note_on channel=2 note=35 velocity=95 time=0
EXTRACT: note_off channel=9 note=44 velocity=95 time=0
EXTRACT: note_off channel=0 note=64 velocity=95 time=0.030844124999999997
EXTRACT: note_off channel=0 note=59 velocity=95 time=0
EXTRACT: note_off channel=0 note=55 velocity=95 time=0
EXTRACT: note_off channel=0 note=50 velocity=95 time=0
EXTRACT: note_off channel=0 note=45 velocity=95 time=0
EXTRACT: note_off channel=0 note=40 velocity=95 time=0
EXTRACT: note_on channel=0 note=70 velocity=95 time=0.16396087499999998
EXTRACT: note_on channel=0 note=65 velocity=95 time=0
EXTRACT: note_on channel=0 note=61 velocity=95 time=0
EXTRACT: note_on channel=0 note=58 velocity=95 time=0
EXTRACT: note_on channel=0 note=53 velocity=95 time=0
EXTRACT: note_on channel=0 note=46 velocity=95 time=0
EXTRACT: note_off channel=2 note=35 velocity=95 time=0
EXTRACT: note_on channel=2 note=34 velocity=95 time=0
EXTRACT: note_on channel=9 note=36 velocity=95 time=0
EXTRACT: note_on channel=9 note=44 velocity=95 time=0
EXTRACT: note_off channel=0 note=70 velocity=95 time=0.38960999999999996
EXTRACT: note_off channel=0 note=65 velocity=95 time=0
EXTRACT: note_off channel=0 note=61 velocity=95 time=0
EXTRACT: note_off channel=0 note=58 velocity=95 time=0
EXTRACT: note_off channel=0 note=53 velocity=95 time=0
EXTRACT: note_off channel=0 note=46 velocity=95 time=0
EXTRACT: note_on channel=0 note=70 velocity=95 time=0
EXTRACT: note_on channel=0 note=65 velocity=95 time=0
EXTRACT: note_on channel=0 note=61 velocity=95 time=0
EXTRACT: note_on channel=0 note=58 velocity=95 time=0
EXTRACT: note_on channel=0 note=53 velocity=95 time=0
EXTRACT: note_on channel=0 note=46 velocity=95 time=0
EXTRACT: note_off channel=2 note=34 velocity=95 time=0
EXTRACT: note_on channel=2 note=41 velocity=95 time=0
EXTRACT: note_off channel=9 note=36 velocity=95 time=0
EXTRACT: note_off channel=9 note=44 velocity=95 time=0
EXTRACT: note_on channel=9 note=44 velocity=95 time=0
EXTRACT: note_off channel=0 note=70 velocity=95 time=0.19480499999999998
EXTRACT: note_off channel=0 note=65 velocity=95 time=0
EXTRACT: note_off channel=0 note=61 velocity=95 time=0
EXTRACT: note_off channel=0 note=58 velocity=95 time=0
EXTRACT: note_off channel=0 note=53 velocity=95 time=0
EXTRACT: note_off channel=0 note=46 velocity=95 time=0
EXTRACT: note_on channel=0 note=70 velocity=95 time=0
EXTRACT: note_on channel=0 note=65 velocity=95 time=0
EXTRACT: note_on channel=0 note=61 velocity=95 time=0
EXTRACT: note_on channel=0 note=58 velocity=95 time=0
EXTRACT: note_on channel=0 note=53 velocity=95 time=0
EXTRACT: note_on channel=0 note=46 velocity=95 time=0
EXTRACT: note_off channel=2 note=41 velocity=95 time=0
EXTRACT: note_on channel=2 note=41 velocity=95 time=0
EXTRACT: note_off channel=9 note=44 velocity=95 time=0
EXTRACT: note_on channel=9 note=36 velocity=95 time=0
EXTRACT: note_off channel=0 note=70 velocity=95 time=0.19480499999999998
EXTRACT: note_off channel=0 note=65 velocity=95 time=0
EXTRACT: note_off channel=0 note=61 velocity=95 time=0
EXTRACT: note_off channel=0 note=58 velocity=95 time=0
EXTRACT: note_off channel=0 note=53 velocity=95 time=0
EXTRACT: note_off channel=0 note=46 velocity=95 time=0
EXTRACT: note_on channel=0 note=70 velocity=95 time=0
EXTRACT: note_on channel=0 note=65 velocity=95 time=0
EXTRACT: note_on channel=0 note=61 velocity=95 time=0
EXTRACT: note_on channel=0 note=58 velocity=95 time=0
EXTRACT: note_on channel=0 note=53 velocity=95 time=0
EXTRACT: note_on channel=0 note=46 velocity=95 time=0
EXTRACT: note_off channel=2 note=41 velocity=95 time=0
EXTRACT: note_on channel=2 note=41 velocity=95 time=0
EXTRACT: note_off channel=9 note=36 velocity=95 time=0
EXTRACT: note_on channel=9 note=38 velocity=95 time=0
EXTRACT: note_on channel=9 note=54 velocity=95 time=0
EXTRACT: note_on channel=9 note=44 velocity=95 time=0
EXTRACT: note_off channel=0 note=70 velocity=95 time=0.19480499999999998
EXTRACT: note_off channel=0 note=65 velocity=95 time=0
EXTRACT: note_off channel=0 note=61 velocity=95 time=0
EXTRACT: note_off channel=0 note=58 velocity=95 time=0
EXTRACT: note_off channel=0 note=53 velocity=95 time=0
EXTRACT: note_off channel=0 note=46 velocity=95 time=0
EXTRACT: note_on channel=0 note=70 velocity=95 time=0
EXTRACT: note_on channel=0 note=65 velocity=95 time=0
EXTRACT: note_on channel=0 note=61 velocity=95 time=0
EXTRACT: note_on channel=0 note=58 velocity=95 time=0
EXTRACT: note_on channel=0 note=53 velocity=95 time=0
EXTRACT: note_on channel=0 note=46 velocity=95 time=0
EXTRACT: note_off channel=2 note=41 velocity=95 time=0
EXTRACT: note_on channel=2 note=41 velocity=95 time=0
EXTRACT: note_off channel=0 note=70 velocity=95 time=0.19480499999999998
EXTRACT: note_off channel=0 note=65 velocity=95 time=0
EXTRACT: note_off channel=0 note=61 velocity=95 time=0
EXTRACT: note_off channel=0 note=58 velocity=95 time=0
EXTRACT: note_off channel=0 note=53 velocity=95 time=0
EXTRACT: note_off channel=0 note=46 velocity=95 time=0
EXTRACT: note_on channel=0 note=64 velocity=95 time=0
EXTRACT: note_on channel=0 note=59 velocity=95 time=0
EXTRACT: note_on channel=0 note=55 velocity=95 time=0
EXTRACT: note_on channel=0 note=50 velocity=95 time=0
EXTRACT: note_on channel=0 note=45 velocity=95 time=0
EXTRACT: note_on channel=0 note=40 velocity=95 time=0
EXTRACT: note_off channel=2 note=41 velocity=95 time=0
EXTRACT: note_on channel=2 note=34 velocity=95 time=0
EXTRACT: note_off channel=9 note=38 velocity=95 time=0
EXTRACT: note_off channel=9 note=54 velocity=95 time=0
EXTRACT: note_off channel=9 note=44 velocity=95 time=0
EXTRACT: note_on channel=9 note=44 velocity=95 time=0
EXTRACT: note_off channel=0 note=64 velocity=95 time=0.030844124999999997
EXTRACT: note_off channel=0 note=59 velocity=95 time=0
EXTRACT: note_off channel=0 note=55 velocity=95 time=0
EXTRACT: note_off channel=0 note=50 velocity=95 time=0
EXTRACT: note_off channel=0 note=45 velocity=95 time=0
EXTRACT: note_off channel=0 note=40 velocity=95 time=0
EXTRACT: note_on channel=0 note=64 velocity=95 time=0.16396087499999998
EXTRACT: note_on channel=0 note=59 velocity=95 time=0
EXTRACT: note_on channel=0 note=55 velocity=95 time=0
EXTRACT: note_on channel=0 note=50 velocity=95 time=0
EXTRACT: note_on channel=0 note=45 velocity=95 time=0
EXTRACT: note_on channel=0 note=40 velocity=95 time=0
EXTRACT: note_off channel=2 note=34 velocity=95 time=0
EXTRACT: note_on channel=2 note=35 velocity=95 time=0
EXTRACT: note_off channel=9 note=44 velocity=95 time=0
EXTRACT: note_on channel=9 note=36 velocity=95 time=0
EXTRACT: note_off channel=0 note=64 velocity=95 time=0.030844124999999997
EXTRACT: note_off channel=0 note=59 velocity=95 time=0
EXTRACT: note_off channel=0 note=55 velocity=95 time=0
EXTRACT: note_off channel=0 note=50 velocity=95 time=0
EXTRACT: note_off channel=0 note=45 velocity=95 time=0
EXTRACT: note_off channel=0 note=40 velocity=95 time=0
EXTRACT: note_on channel=0 note=72 velocity=95 time=0.16396087499999998
EXTRACT: note_on channel=0 note=67 velocity=95 time=0
EXTRACT: note_on channel=0 note=64 velocity=95 time=0
EXTRACT: note_on channel=0 note=60 velocity=95 time=0
EXTRACT: note_on channel=0 note=55 velocity=95 time=0
EXTRACT: note_on channel=0 note=48 velocity=95 time=0
EXTRACT: note_off channel=2 note=35 velocity=95 time=0
EXTRACT: note_on channel=2 note=36 velocity=95 time=0
EXTRACT: note_off channel=9 note=36 velocity=95 time=0
EXTRACT: note_on channel=9 note=36 velocity=95 time=0
EXTRACT: note_on channel=9 note=44 velocity=95 time=0
EXTRACT: note_off channel=0 note=72 velocity=95 time=0.38960999999999996
EXTRACT: note_off channel=0 note=67 velocity=95 time=0
EXTRACT: note_off channel=0 note=64 velocity=95 time=0
EXTRACT: note_off channel=0 note=60 velocity=95 time=0
EXTRACT: note_off channel=0 note=55 velocity=95 time=0
EXTRACT: note_off channel=0 note=48 velocity=95 time=0
EXTRACT: note_on channel=0 note=64 velocity=95 time=0
EXTRACT: note_on channel=0 note=59 velocity=95 time=0
EXTRACT: note_on channel=0 note=55 velocity=95 time=0
EXTRACT: note_on channel=0 note=50 velocity=95 time=0
EXTRACT: note_on channel=0 note=45 velocity=95 time=0
EXTRACT: note_on channel=0 note=40 velocity=95 time=0
EXTRACT: note_off channel=2 note=36 velocity=95 time=0
EXTRACT: note_off channel=9 note=36 velocity=95 time=0
EXTRACT: note_off channel=9 note=44 velocity=95 time=0
EXTRACT: note_on channel=9 note=44 velocity=95 time=0
EXTRACT: note_off channel=0 note=64 velocity=95 time=0.030844124999999997
EXTRACT: note_off channel=0 note=59 velocity=95 time=0
EXTRACT: note_off channel=0 note=55 velocity=95 time=0
EXTRACT: note_off channel=0 note=50 velocity=95 time=0
EXTRACT: note_off channel=0 note=45 velocity=95 time=0
EXTRACT: note_off channel=0 note=40 velocity=95 time=0
EXTRACT: note_on channel=0 note=72 velocity=95 time=0.16396087499999998
EXTRACT: note_on channel=0 note=67 velocity=95 time=0
EXTRACT: note_on channel=0 note=64 velocity=95 time=0
EXTRACT: note_on channel=0 note=60 velocity=95 time=0
EXTRACT: note_on channel=0 note=55 velocity=95 time=0
EXTRACT: note_on channel=0 note=48 velocity=95 time=0
EXTRACT: note_on channel=2 note=43 velocity=95 time=0
EXTRACT: note_off channel=9 note=44 velocity=95 time=0
EXTRACT: note_on channel=9 note=36 velocity=95 time=0
EXTRACT: note_off channel=0 note=72 velocity=95 time=0.19480499999999998
EXTRACT: note_off channel=0 note=67 velocity=95 time=0
EXTRACT: note_off channel=0 note=64 velocity=95 time=0
EXTRACT: note_off channel=0 note=60 velocity=95 time=0
EXTRACT: note_off channel=0 note=55 velocity=95 time=0
EXTRACT: note_off channel=0 note=48 velocity=95 time=0
EXTRACT: note_on channel=0 note=72 velocity=95 time=0
EXTRACT: note_on channel=0 note=67 velocity=95 time=0
EXTRACT: note_on channel=0 note=64 velocity=95 time=0
EXTRACT: note_on channel=0 note=60 velocity=95 time=0
EXTRACT: note_on channel=0 note=55 velocity=95 time=0
EXTRACT: note_on channel=0 note=48 velocity=95 time=0
EXTRACT: note_off channel=2 note=43 velocity=95 time=0
EXTRACT: note_on channel=2 note=43 velocity=95 time=0
EXTRACT: note_off channel=9 note=36 velocity=95 time=0
EXTRACT: note_on channel=9 note=38 velocity=95 time=0
EXTRACT: note_on channel=9 note=54 velocity=95 time=0
EXTRACT: note_on channel=9 note=44 velocity=95 time=0
EXTRACT: note_off channel=0 note=72 velocity=95 time=0.19480499999999998
EXTRACT: note_off channel=0 note=67 velocity=95 time=0
EXTRACT: note_off channel=0 note=64 velocity=95 time=0
EXTRACT: note_off channel=0 note=60 velocity=95 time=0
EXTRACT: note_off channel=0 note=55 velocity=95 time=0
EXTRACT: note_off channel=0 note=48 velocity=95 time=0
EXTRACT: note_on channel=0 note=72 velocity=95 time=0
EXTRACT: note_on channel=0 note=67 velocity=95 time=0
EXTRACT: note_on channel=0 note=64 velocity=95 time=0
EXTRACT: note_on channel=0 note=60 velocity=95 time=0
EXTRACT: note_on channel=0 note=55 velocity=95 time=0
EXTRACT: note_on channel=0 note=48 velocity=95 time=0
EXTRACT: note_off channel=2 note=43 velocity=95 time=0
EXTRACT: note_on channel=2 note=43 velocity=95 time=0
EXTRACT: note_off channel=0 note=72 velocity=95 time=0.19480499999999998
EXTRACT: note_off channel=0 note=67 velocity=95 time=0
EXTRACT: note_off channel=0 note=64 velocity=95 time=0
EXTRACT: note_off channel=0 note=60 velocity=95 time=0
EXTRACT: note_off channel=0 note=55 velocity=95 time=0
EXTRACT: note_off channel=0 note=48 velocity=95 time=0
EXTRACT: note_on channel=0 note=64 velocity=95 time=0
EXTRACT: note_on channel=0 note=59 velocity=95 time=0
EXTRACT: note_on channel=0 note=55 velocity=95 time=0
EXTRACT: note_on channel=0 note=50 velocity=95 time=0
EXTRACT: note_on channel=0 note=45 velocity=95 time=0
EXTRACT: note_on channel=0 note=40 velocity=95 time=0
EXTRACT: note_off channel=2 note=43 velocity=95 time=0
EXTRACT: note_on channel=2 note=43 velocity=95 time=0
EXTRACT: note_off channel=9 note=38 velocity=95 time=0
EXTRACT: note_off channel=9 note=54 velocity=95 time=0
EXTRACT: note_off channel=9 note=44 velocity=95 time=0
EXTRACT: note_on channel=9 note=44 velocity=95 time=0
EXTRACT: note_off channel=0 note=64 velocity=95 time=0.030844124999999997
EXTRACT: note_off channel=0 note=59 velocity=95 time=0
EXTRACT: note_off channel=0 note=55 velocity=95 time=0
EXTRACT: note_off channel=0 note=50 velocity=95 time=0
EXTRACT: note_off channel=0 note=45 velocity=95 time=0
EXTRACT: note_off channel=0 note=40 velocity=95 time=0
EXTRACT: note_on channel=0 note=64 velocity=95 time=0.16396087499999998
EXTRACT: note_on channel=0 note=59 velocity=95 time=0
EXTRACT: note_on channel=0 note=55 velocity=95 time=0
EXTRACT: note_on channel=0 note=50 velocity=95 time=0
EXTRACT: note_on channel=0 note=45 velocity=95 time=0
EXTRACT: note_on channel=0 note=40 velocity=95 time=0
EXTRACT: note_off channel=9 note=44 velocity=95 time=0
EXTRACT: note_off channel=0 note=64 velocity=95 time=0.030844124999999997
EXTRACT: note_off channel=0 note=59 velocity=95 time=0
EXTRACT: note_off channel=0 note=55 velocity=95 time=0
EXTRACT: note_off channel=0 note=50 velocity=95 time=0
EXTRACT: note_off channel=0 note=45 velocity=95 time=0
EXTRACT: note_off channel=0 note=40 velocity=95 time=0
EXTRACT: note_on channel=0 note=68 velocity=95 time=0.16396087499999998
EXTRACT: note_on channel=0 note=65 velocity=95 time=0
EXTRACT: note_on channel=0 note=60 velocity=95 time=0
EXTRACT: note_on channel=0 note=53 velocity=95 time=0
EXTRACT: note_off channel=2 note=43 velocity=95 time=0
EXTRACT: note_on channel=2 note=29 velocity=95 time=0
EXTRACT: note_on channel=9 note=36 velocity=95 time=0
EXTRACT: note_on channel=9 note=44 velocity=95 time=0
EXTRACT: note_off channel=0 note=68 velocity=95 time=0.38960999999999996
EXTRACT: note_off channel=0 note=65 velocity=95 time=0
EXTRACT: note_off channel=0 note=60 velocity=95 time=0
EXTRACT: note_off channel=0 note=53 velocity=95 time=0
EXTRACT: note_on channel=0 note=68 velocity=95 time=0
EXTRACT: note_on channel=0 note=65 velocity=95 time=0
EXTRACT: note_on channel=0 note=60 velocity=95 time=0
EXTRACT: note_on channel=0 note=53 velocity=95 time=0
EXTRACT: note_off channel=9 note=36 velocity=95 time=0
EXTRACT: note_off channel=9 note=44 velocity=95 time=0
EXTRACT: note_on channel=9 note=44 velocity=95 time=0
EXTRACT: note_off channel=0 note=68 velocity=95 time=0.19480499999999998
EXTRACT: note_off channel=0 note=65 velocity=95 time=0
EXTRACT: note_off channel=0 note=60 velocity=95 time=0
EXTRACT: note_off channel=0 note=53 velocity=95 time=0
EXTRACT: note_on channel=0 note=68 velocity=95 time=0
EXTRACT: note_on channel=0 note=65 velocity=95 time=0
EXTRACT: note_on channel=0 note=60 velocity=95 time=0
EXTRACT: note_on channel=0 note=53 velocity=95 time=0
EXTRACT: note_off channel=2 note=29 velocity=95 time=0
EXTRACT: note_on channel=2 note=36 velocity=95 time=0
EXTRACT: note_off channel=9 note=44 velocity=95 time=0
EXTRACT: note_on channel=9 note=36 velocity=95 time=0
EXTRACT: note_off channel=0 note=68 velocity=95 time=0.19480499999999998
EXTRACT: note_off channel=0 note=65 velocity=95 time=0
EXTRACT: note_off channel=0 note=60 velocity=95 time=0
EXTRACT: note_off channel=0 note=53 velocity=95 time=0
EXTRACT: note_on channel=0 note=68 velocity=95 time=0
EXTRACT: note_on channel=0 note=65 velocity=95 time=0
EXTRACT: note_on channel=0 note=60 velocity=95 time=0
EXTRACT: note_on channel=0 note=53 velocity=95 time=0
EXTRACT: note_off channel=2 note=36 velocity=95 time=0
EXTRACT: note_on channel=2 note=36 velocity=95 time=0
EXTRACT: note_off channel=9 note=36 velocity=95 time=0
EXTRACT: note_on channel=9 note=38 velocity=95 time=0
EXTRACT: note_on channel=9 note=54 velocity=95 time=0
EXTRACT: note_on channel=9 note=44 velocity=95 time=0
EXTRACT: note_off channel=0 note=68 velocity=95 time=0.19480499999999998
EXTRACT: note_off channel=0 note=65 velocity=95 time=0
EXTRACT: note_off channel=0 note=60 velocity=95 time=0
EXTRACT: note_off channel=0 note=53 velocity=95 time=0
EXTRACT: note_on channel=0 note=68 velocity=95 time=0
EXTRACT: note_on channel=0 note=65 velocity=95 time=0
EXTRACT: note_on channel=0 note=60 velocity=95 time=0
EXTRACT: note_on channel=0 note=53 velocity=95 time=0
EXTRACT: note_off channel=2 note=36 velocity=95 time=0
EXTRACT: note_on channel=2 note=36 velocity=95 time=0
EXTRACT: note_off channel=0 note=68 velocity=95 time=0.19480499999999998
EXTRACT: note_off channel=0 note=65 velocity=95 time=0
EXTRACT: note_off channel=0 note=60 velocity=95 time=0
EXTRACT: note_off channel=0 note=53 velocity=95 time=0
EXTRACT: note_on channel=0 note=59 velocity=95 time=0
EXTRACT: note_on channel=0 note=55 velocity=95 time=0
EXTRACT: note_on channel=0 note=50 velocity=95 time=0
EXTRACT: note_on channel=0 note=45 velocity=95 time=0
EXTRACT: note_off channel=9 note=38 velocity=95 time=0
EXTRACT: note_off channel=9 note=54 velocity=95 time=0
EXTRACT: note_off channel=9 note=44 velocity=95 time=0
EXTRACT: note_on channel=9 note=44 velocity=95 time=0
EXTRACT: note_off channel=0 note=59 velocity=95 time=0.030844124999999997
EXTRACT: note_off channel=0 note=55 velocity=95 time=0
EXTRACT: note_off channel=0 note=50 velocity=95 time=0
EXTRACT: note_off channel=0 note=45 velocity=95 time=0
EXTRACT: note_on channel=0 note=59 velocity=95 time=0.16396087499999998
EXTRACT: note_on channel=0 note=55 velocity=95 time=0
EXTRACT: note_on channel=0 note=50 velocity=95 time=0
EXTRACT: note_on channel=0 note=45 velocity=95 time=0
EXTRACT: note_off channel=2 note=36 velocity=95 time=0
EXTRACT: note_on channel=2 note=36 velocity=95 time=0
EXTRACT: note_off channel=9 note=44 velocity=95 time=0
EXTRACT: note_on channel=9 note=36 velocity=95 time=0
EXTRACT: note_off channel=0 note=59 velocity=95 time=0.030844124999999997
EXTRACT: note_off channel=0 note=55 velocity=95 time=0
EXTRACT: note_off channel=0 note=50 velocity=95 time=0
EXTRACT: note_off channel=0 note=45 velocity=95 time=0
EXTRACT: note_on channel=0 note=70 velocity=95 time=0.16396087499999998
EXTRACT: note_on channel=0 note=65 velocity=95 time=0
EXTRACT: note_on channel=0 note=61 velocity=95 time=0
EXTRACT: note_on channel=0 note=58 velocity=95 time=0
EXTRACT: note_on channel=0 note=53 velocity=95 time=0
EXTRACT: note_on channel=0 note=46 velocity=95 time=0
EXTRACT: note_off channel=2 note=36 velocity=95 time=0
EXTRACT: note_on channel=2 note=34 velocity=95 time=0
EXTRACT: note_off channel=9 note=36 velocity=95 time=0
EXTRACT: note_on channel=9 note=36 velocity=95 time=0
EXTRACT: note_on channel=9 note=44 velocity=95 time=0
EXTRACT: note_off channel=0 note=70 velocity=95 time=0.38960999999999996
EXTRACT: note_off channel=0 note=65 velocity=95 time=0
EXTRACT: note_off channel=0 note=61 velocity=95 time=0
EXTRACT: note_off channel=0 note=58 velocity=95 time=0
EXTRACT: note_off channel=0 note=53 velocity=95 time=0
EXTRACT: note_off channel=0 note=46 velocity=95 time=0
EXTRACT: note_on channel=0 note=64 velocity=95 time=0
EXTRACT: note_on channel=0 note=59 velocity=95 time=0
EXTRACT: note_on channel=0 note=55 velocity=95 time=0
EXTRACT: note_on channel=0 note=50 velocity=95 time=0
EXTRACT: note_on channel=0 note=45 velocity=95 time=0
EXTRACT: note_on channel=0 note=40 velocity=95 time=0
EXTRACT: note_off channel=9 note=36 velocity=95 time=0
EXTRACT: note_off channel=9 note=44 velocity=95 time=0
EXTRACT: note_on channel=9 note=38 velocity=95 time=0
EXTRACT: note_off channel=0 note=64 velocity=95 time=0.030844124999999997
EXTRACT: note_off channel=0 note=59 velocity=95 time=0
EXTRACT: note_off channel=0 note=55 velocity=95 time=0
EXTRACT: note_off channel=0 note=50 velocity=95 time=0
EXTRACT: note_off channel=0 note=45 velocity=95 time=0
EXTRACT: note_off channel=0 note=40 velocity=95 time=0
EXTRACT: note_on channel=0 note=64 velocity=95 time=0.16396087499999998
EXTRACT: note_on channel=0 note=59 velocity=95 time=0
EXTRACT: note_on channel=0 note=55 velocity=95 time=0
EXTRACT: note_on channel=0 note=50 velocity=95 time=0
EXTRACT: note_on channel=0 note=45 velocity=95 time=0
EXTRACT: note_on channel=0 note=40 velocity=95 time=0
EXTRACT: note_off channel=2 note=34 velocity=95 time=0
EXTRACT: note_on channel=2 note=34 velocity=95 time=0
EXTRACT: note_off channel=9 note=38 velocity=95 time=0
EXTRACT: note_on channel=9 note=38 velocity=95 time=0
EXTRACT: note_off channel=0 note=64 velocity=95 time=0.030844124999999997
EXTRACT: note_off channel=0 note=59 velocity=95 time=0
EXTRACT: note_off channel=0 note=55 velocity=95 time=0
EXTRACT: note_off channel=0 note=50 velocity=95 time=0
EXTRACT: note_off channel=0 note=45 velocity=95 time=0
EXTRACT: note_off channel=0 note=40 velocity=95 time=0
EXTRACT: note_on channel=0 note=70 velocity=95 time=0.16396087499999998
EXTRACT: note_on channel=0 note=64 velocity=95 time=0
EXTRACT: note_on channel=0 note=58 velocity=95 time=0
EXTRACT: note_on channel=0 note=55 velocity=95 time=0
EXTRACT: note_on channel=0 note=48 velocity=95 time=0
EXTRACT: note_off channel=2 note=34 velocity=95 time=0
EXTRACT: note_on channel=2 note=36 velocity=95 time=0
EXTRACT: note_off channel=9 note=38 velocity=95 time=0
EXTRACT: note_on channel=9 note=36 velocity=95 time=0
EXTRACT: note_on channel=9 note=44 velocity=95 time=0
EXTRACT: note_off channel=0 note=70 velocity=95 time=0.38960999999999996
EXTRACT: note_off channel=0 note=64 velocity=95 time=0
EXTRACT: note_off channel=0 note=58 velocity=95 time=0
EXTRACT: note_off channel=0 note=55 velocity=95 time=0
EXTRACT: note_off channel=0 note=48 velocity=95 time=0
EXTRACT: note_on channel=0 note=59 velocity=95 time=0
EXTRACT: note_on channel=0 note=55 velocity=95 time=0
EXTRACT: note_on channel=0 note=50 velocity=95 time=0
EXTRACT: note_on channel=0 note=45 velocity=95 time=0
EXTRACT: note_on channel=0 note=40 velocity=95 time=0
EXTRACT: note_off channel=9 note=36 velocity=95 time=0
EXTRACT: note_off channel=9 note=44 velocity=95 time=0
EXTRACT: note_on channel=9 note=38 velocity=95 time=0
EXTRACT: note_off channel=0 note=59 velocity=95 time=0.030844124999999997
EXTRACT: note_off channel=0 note=55 velocity=95 time=0
EXTRACT: note_off channel=0 note=50 velocity=95 time=0
EXTRACT: note_off channel=0 note=45 velocity=95 time=0
EXTRACT: note_off channel=0 note=40 velocity=95 time=0
EXTRACT: note_on channel=0 note=59 velocity=95 time=0.16396087499999998
EXTRACT: note_on channel=0 note=55 velocity=95 time=0
EXTRACT: note_on channel=0 note=50 velocity=95 time=0
EXTRACT: note_on channel=0 note=45 velocity=95 time=0
EXTRACT: note_on channel=0 note=40 velocity=95 time=0
EXTRACT: note_off channel=2 note=36 velocity=95 time=0
EXTRACT: note_on channel=2 note=36 velocity=95 time=0
EXTRACT: note_off channel=9 note=38 velocity=95 time=0
EXTRACT: note_on channel=9 note=38 velocity=95 time=0
EXTRACT: note_off channel=0 note=59 velocity=95 time=0.030844124999999997
EXTRACT: note_off channel=0 note=55 velocity=95 time=0
EXTRACT: note_off channel=0 note=50 velocity=95 time=0
EXTRACT: note_off channel=0 note=45 velocity=95 time=0
EXTRACT: note_off channel=0 note=40 velocity=95 time=0
EXTRACT: note_on channel=0 note=68 velocity=95 time=0.16396087499999998
EXTRACT: note_on channel=0 note=65 velocity=95 time=0
EXTRACT: note_on channel=0 note=60 velocity=95 time=0
EXTRACT: note_on channel=0 note=53 velocity=95 time=0
EXTRACT: note_off channel=2 note=36 velocity=95 time=0
EXTRACT: note_on channel=2 note=29 velocity=95 time=0
EXTRACT: note_off channel=9 note=38 velocity=95 time=0
EXTRACT: note_on channel=9 note=36 velocity=95 time=0
EXTRACT: note_on channel=9 note=44 velocity=95 time=0
EXTRACT: note_off channel=0 note=68 velocity=95 time=0.38960999999999996
EXTRACT: note_off channel=0 note=65 velocity=95 time=0
EXTRACT: note_off channel=0 note=60 velocity=95 time=0
EXTRACT: note_off channel=0 note=53 velocity=95 time=0
EXTRACT: note_on channel=0 note=68 velocity=95 time=0
EXTRACT: note_on channel=0 note=65 velocity=95 time=0
EXTRACT: note_on channel=0 note=60 velocity=95 time=0
EXTRACT: note_on channel=0 note=53 velocity=95 time=0
EXTRACT: note_off channel=9 note=36 velocity=95 time=0
EXTRACT: note_off channel=9 note=44 velocity=95 time=0
EXTRACT: note_on channel=9 note=44 velocity=95 time=0
EXTRACT: note_off channel=0 note=68 velocity=95 time=0.19480499999999998
EXTRACT: note_off channel=0 note=65 velocity=95 time=0
EXTRACT: note_off channel=0 note=60 velocity=95 time=0
EXTRACT: note_off channel=0 note=53 velocity=95 time=0
EXTRACT: note_on channel=0 note=68 velocity=95 time=0
EXTRACT: note_on channel=0 note=65 velocity=95 time=0
EXTRACT: note_on channel=0 note=60 velocity=95 time=0
EXTRACT: note_on channel=0 note=53 velocity=95 time=0
EXTRACT: note_off channel=2 note=29 velocity=95 time=0
EXTRACT: note_on channel=2 note=36 velocity=95 time=0
EXTRACT: note_off channel=9 note=44 velocity=95 time=0
EXTRACT: note_on channel=9 note=36 velocity=95 time=0
EXTRACT: note_off channel=0 note=68 velocity=95 time=0.19480499999999998
EXTRACT: note_off channel=0 note=65 velocity=95 time=0
EXTRACT: note_off channel=0 note=60 velocity=95 time=0
EXTRACT: note_off channel=0 note=53 velocity=95 time=0
EXTRACT: note_on channel=0 note=68 velocity=95 time=0
EXTRACT: note_on channel=0 note=65 velocity=95 time=0
EXTRACT: note_on channel=0 note=60 velocity=95 time=0
EXTRACT: note_on channel=0 note=53 velocity=95 time=0
EXTRACT: note_off channel=2 note=36 velocity=95 time=0
EXTRACT: note_on channel=2 note=36 velocity=95 time=0
EXTRACT: note_off channel=9 note=36 velocity=95 time=0
EXTRACT: note_on channel=9 note=38 velocity=95 time=0
EXTRACT: note_on channel=9 note=54 velocity=95 time=0
EXTRACT: note_on channel=9 note=44 velocity=95 time=0
EXTRACT: note_off channel=0 note=68 velocity=95 time=0.19480499999999998
EXTRACT: note_off channel=0 note=65 velocity=95 time=0
EXTRACT: note_off channel=0 note=60 velocity=95 time=0
EXTRACT: note_off channel=0 note=53 velocity=95 time=0
EXTRACT: note_on channel=0 note=68 velocity=95 time=0
EXTRACT: note_on channel=0 note=65 velocity=95 time=0
EXTRACT: note_on channel=0 note=60 velocity=95 time=0
EXTRACT: note_on channel=0 note=53 velocity=95 time=0
EXTRACT: note_off channel=2 note=36 velocity=95 time=0
EXTRACT: note_on channel=2 note=36 velocity=95 time=0
EXTRACT: note_off channel=0 note=68 velocity=95 time=0.19480499999999998
EXTRACT: note_off channel=0 note=65 velocity=95 time=0
EXTRACT: note_off channel=0 note=60 velocity=95 time=0
EXTRACT: note_off channel=0 note=53 velocity=95 time=0
EXTRACT: note_on channel=0 note=59 velocity=95 time=0
EXTRACT: note_on channel=0 note=55 velocity=95 time=0
EXTRACT: note_on channel=0 note=50 velocity=95 time=0
EXTRACT: note_on channel=0 note=45 velocity=95 time=0
EXTRACT: note_off channel=2 note=36 velocity=95 time=0
EXTRACT: note_on channel=2 note=36 velocity=95 time=0
EXTRACT: note_off channel=9 note=38 velocity=95 time=0
EXTRACT: note_off channel=9 note=54 velocity=95 time=0
EXTRACT: note_off channel=9 note=44 velocity=95 time=0
EXTRACT: note_on channel=9 note=44 velocity=95 time=0
EXTRACT: note_off channel=0 note=59 velocity=95 time=0.030844124999999997
EXTRACT: note_off channel=0 note=55 velocity=95 time=0
EXTRACT: note_off channel=0 note=50 velocity=95 time=0
EXTRACT: note_off channel=0 note=45 velocity=95 time=0
EXTRACT: note_on channel=0 note=59 velocity=95 time=0.16396087499999998
EXTRACT: note_on channel=0 note=55 velocity=95 time=0
EXTRACT: note_on channel=0 note=50 velocity=95 time=0
EXTRACT: note_on channel=0 note=45 velocity=95 time=0
EXTRACT: note_off channel=2 note=36 velocity=95 time=0
EXTRACT: note_on channel=2 note=36 velocity=95 time=0
EXTRACT: note_off channel=9 note=44 velocity=95 time=0
EXTRACT: note_on channel=9 note=36 velocity=95 time=0
EXTRACT: note_off channel=0 note=59 velocity=95 time=0.030844124999999997
EXTRACT: note_off channel=0 note=55 velocity=95 time=0
EXTRACT: note_off channel=0 note=50 velocity=95 time=0
EXTRACT: note_off channel=0 note=45 velocity=95 time=0
EXTRACT: note_on channel=0 note=70 velocity=95 time=0.16396087499999998
EXTRACT: note_on channel=0 note=65 velocity=95 time=0
EXTRACT: note_on channel=0 note=61 velocity=95 time=0
EXTRACT: note_on channel=0 note=58 velocity=95 time=0
EXTRACT: note_on channel=0 note=53 velocity=95 time=0
EXTRACT: note_on channel=0 note=46 velocity=95 time=0
EXTRACT: note_off channel=2 note=36 velocity=95 time=0
EXTRACT: note_on channel=2 note=34 velocity=95 time=0
EXTRACT: note_off channel=9 note=36 velocity=95 time=0
EXTRACT: note_on channel=9 note=36 velocity=95 time=0
EXTRACT: note_on channel=9 note=44 velocity=95 time=0
EXTRACT: note_off channel=0 note=70 velocity=95 time=0.38960999999999996
EXTRACT: note_off channel=0 note=65 velocity=95 time=0
EXTRACT: note_off channel=0 note=61 velocity=95 time=0
EXTRACT: note_off channel=0 note=58 velocity=95 time=0
EXTRACT: note_off channel=0 note=53 velocity=95 time=0
EXTRACT: note_off channel=0 note=46 velocity=95 time=0
EXTRACT: note_on channel=0 note=70 velocity=95 time=0
EXTRACT: note_on channel=0 note=65 velocity=95 time=0
EXTRACT: note_on channel=0 note=61 velocity=95 time=0
EXTRACT: note_on channel=0 note=58 velocity=95 time=0
EXTRACT: note_on channel=0 note=53 velocity=95 time=0
EXTRACT: note_on channel=0 note=46 velocity=95 time=0
EXTRACT: note_off channel=2 note=34 velocity=95 time=0
EXTRACT: note_on channel=2 note=34 velocity=95 time=0
EXTRACT: note_off channel=9 note=36 velocity=95 time=0
EXTRACT: note_off channel=9 note=44 velocity=95 time=0
EXTRACT: note_on channel=9 note=44 velocity=95 time=0
EXTRACT: note_off channel=0 note=70 velocity=95 time=0.19480499999999998
EXTRACT: note_off channel=0 note=65 velocity=95 time=0
EXTRACT: note_off channel=0 note=61 velocity=95 time=0
EXTRACT: note_off channel=0 note=58 velocity=95 time=0
EXTRACT: note_off channel=0 note=53 velocity=95 time=0
EXTRACT: note_off channel=0 note=46 velocity=95 time=0
EXTRACT: note_on channel=0 note=70 velocity=95 time=0
EXTRACT: note_on channel=0 note=65 velocity=95 time=0
EXTRACT: note_on channel=0 note=61 velocity=95 time=0
EXTRACT: note_on channel=0 note=58 velocity=95 time=0
EXTRACT: note_on channel=0 note=53 velocity=95 time=0
EXTRACT: note_on channel=0 note=46 velocity=95 time=0
EXTRACT: note_off channel=9 note=44 velocity=95 time=0
EXTRACT: note_on channel=9 note=36 velocity=95 time=0
EXTRACT: note_off channel=0 note=70 velocity=95 time=0.19480499999999998
EXTRACT: note_off channel=0 note=65 velocity=95 time=0
EXTRACT: note_off channel=0 note=61 velocity=95 time=0
EXTRACT: note_off channel=0 note=58 velocity=95 time=0
EXTRACT: note_off channel=0 note=53 velocity=95 time=0
EXTRACT: note_off channel=0 note=46 velocity=95 time=0
EXTRACT: note_on channel=0 note=70 velocity=95 time=0
EXTRACT: note_on channel=0 note=65 velocity=95 time=0
EXTRACT: note_on channel=0 note=61 velocity=95 time=0
EXTRACT: note_on channel=0 note=58 velocity=95 time=0
EXTRACT: note_on channel=0 note=53 velocity=95 time=0
EXTRACT: note_on channel=0 note=46 velocity=95 time=0
EXTRACT: note_off channel=2 note=34 velocity=95 time=0
EXTRACT: note_on channel=2 note=29 velocity=95 time=0
EXTRACT: note_off channel=9 note=36 velocity=95 time=0
EXTRACT: note_on channel=9 note=38 velocity=95 time=0
EXTRACT: note_on channel=9 note=54 velocity=95 time=0
EXTRACT: note_on channel=9 note=44 velocity=95 time=0
EXTRACT: note_off channel=0 note=70 velocity=95 time=0.19480499999999998
EXTRACT: note_off channel=0 note=65 velocity=95 time=0
EXTRACT: note_off channel=0 note=61 velocity=95 time=0
EXTRACT: note_off channel=0 note=58 velocity=95 time=0
EXTRACT: note_off channel=0 note=53 velocity=95 time=0
EXTRACT: note_off channel=0 note=46 velocity=95 time=0
EXTRACT: note_on channel=0 note=70 velocity=95 time=0
EXTRACT: note_on channel=0 note=65 velocity=95 time=0
EXTRACT: note_on channel=0 note=61 velocity=95 time=0
EXTRACT: note_on channel=0 note=58 velocity=95 time=0
EXTRACT: note_on channel=0 note=53 velocity=95 time=0
EXTRACT: note_on channel=0 note=46 velocity=95 time=0
EXTRACT: note_off channel=0 note=70 velocity=95 time=0.19480499999999998
EXTRACT: note_off channel=0 note=65 velocity=95 time=0
EXTRACT: note_off channel=0 note=61 velocity=95 time=0
EXTRACT: note_off channel=0 note=58 velocity=95 time=0
EXTRACT: note_off channel=0 note=53 velocity=95 time=0
EXTRACT: note_off channel=0 note=46 velocity=95 time=0
EXTRACT: note_on channel=0 note=64 velocity=95 time=0
EXTRACT: note_on channel=0 note=59 velocity=95 time=0
EXTRACT: note_on channel=0 note=55 velocity=95 time=0
EXTRACT: note_on channel=0 note=50 velocity=95 time=0
EXTRACT: note_on channel=0 note=45 velocity=95 time=0
EXTRACT: note_on channel=0 note=40 velocity=95 time=0
EXTRACT: note_off channel=9 note=38 velocity=95 time=0
EXTRACT: note_off channel=9 note=54 velocity=95 time=0
EXTRACT: note_off channel=9 note=44 velocity=95 time=0
EXTRACT: note_on channel=9 note=44 velocity=95 time=0
EXTRACT: note_off channel=0 note=64 velocity=95 time=0.030844124999999997
EXTRACT: note_off channel=0 note=59 velocity=95 time=0
EXTRACT: note_off channel=0 note=55 velocity=95 time=0
EXTRACT: note_off channel=0 note=50 velocity=95 time=0
EXTRACT: note_off channel=0 note=45 velocity=95 time=0
EXTRACT: note_off channel=0 note=40 velocity=95 time=0
EXTRACT: note_on channel=0 note=64 velocity=95 time=0.16396087499999998
EXTRACT: note_on channel=0 note=59 velocity=95 time=0
EXTRACT: note_on channel=0 note=55 velocity=95 time=0
EXTRACT: note_on channel=0 note=50 velocity=95 time=0
EXTRACT: note_on channel=0 note=45 velocity=95 time=0
EXTRACT: note_on channel=0 note=40 velocity=95 time=0
EXTRACT: note_off channel=9 note=44 velocity=95 time=0
EXTRACT: note_off channel=0 note=64 velocity=95 time=0.030844124999999997
EXTRACT: note_off channel=0 note=59 velocity=95 time=0
EXTRACT: note_off channel=0 note=55 velocity=95 time=0
EXTRACT: note_off channel=0 note=50 velocity=95 time=0
EXTRACT: note_off channel=0 note=45 velocity=95 time=0
EXTRACT: note_off channel=0 note=40 velocity=95 time=0
EXTRACT: note_on channel=0 note=67 velocity=95 time=0.16396087499999998
EXTRACT: note_on channel=0 note=63 velocity=95 time=0
EXTRACT: note_on channel=0 note=58 velocity=95 time=0
EXTRACT: note_on channel=0 note=51 velocity=95 time=0
EXTRACT: note_off channel=2 note=29 velocity=95 time=0
EXTRACT: note_on channel=2 note=39 velocity=95 time=0
EXTRACT: note_on channel=9 note=36 velocity=95 time=0
EXTRACT: note_on channel=9 note=44 velocity=95 time=0
EXTRACT: note_off channel=0 note=67 velocity=95 time=0.38960999999999996
EXTRACT: note_off channel=0 note=63 velocity=95 time=0
EXTRACT: note_off channel=0 note=58 velocity=95 time=0
EXTRACT: note_off channel=0 note=51 velocity=95 time=0
EXTRACT: note_on channel=0 note=67 velocity=95 time=0
EXTRACT: note_on channel=0 note=63 velocity=95 time=0
EXTRACT: note_on channel=0 note=58 velocity=95 time=0
EXTRACT: note_on channel=0 note=51 velocity=95 time=0
EXTRACT: note_off channel=2 note=39 velocity=95 time=0
EXTRACT: note_on channel=2 note=46 velocity=95 time=0
EXTRACT: note_off channel=9 note=36 velocity=95 time=0
EXTRACT: note_off channel=9 note=44 velocity=95 time=0
EXTRACT: note_on channel=9 note=44 velocity=95 time=0
EXTRACT: note_off channel=0 note=67 velocity=95 time=0.19480499999999998
EXTRACT: note_off channel=0 note=63 velocity=95 time=0
EXTRACT: note_off channel=0 note=58 velocity=95 time=0
EXTRACT: note_off channel=0 note=51 velocity=95 time=0
EXTRACT: note_on channel=0 note=67 velocity=95 time=0
EXTRACT: note_on channel=0 note=63 velocity=95 time=0
EXTRACT: note_on channel=0 note=58 velocity=95 time=0
EXTRACT: note_on channel=0 note=51 velocity=95 time=0
EXTRACT: note_off channel=2 note=46 velocity=95 time=0
EXTRACT: note_on channel=2 note=46 velocity=95 time=0
EXTRACT: note_off channel=9 note=44 velocity=95 time=0
EXTRACT: note_on channel=9 note=36 velocity=95 time=0
EXTRACT: note_off channel=0 note=67 velocity=95 time=0.19480499999999998
EXTRACT: note_off channel=0 note=63 velocity=95 time=0
EXTRACT: note_off channel=0 note=58 velocity=95 time=0
EXTRACT: note_off channel=0 note=51 velocity=95 time=0
EXTRACT: note_on channel=0 note=67 velocity=95 time=0
EXTRACT: note_on channel=0 note=63 velocity=95 time=0
EXTRACT: note_on channel=0 note=58 velocity=95 time=0
EXTRACT: note_on channel=0 note=51 velocity=95 time=0
EXTRACT: note_off channel=2 note=46 velocity=95 time=0
EXTRACT: note_on channel=2 note=46 velocity=95 time=0
EXTRACT: note_off channel=9 note=36 velocity=95 time=0
EXTRACT: note_on channel=9 note=38 velocity=95 time=0
EXTRACT: note_on channel=9 note=54 velocity=95 time=0
EXTRACT: note_on channel=9 note=44 velocity=95 time=0
EXTRACT: note_off channel=0 note=67 velocity=95 time=0.19480499999999998
EXTRACT: note_off channel=0 note=63 velocity=95 time=0
EXTRACT: note_off channel=0 note=58 velocity=95 time=0
EXTRACT: note_off channel=0 note=51 velocity=95 time=0
EXTRACT: note_on channel=0 note=67 velocity=95 time=0
EXTRACT: note_on channel=0 note=63 velocity=95 time=0
EXTRACT: note_on channel=0 note=58 velocity=95 time=0
EXTRACT: note_on channel=0 note=51 velocity=95 time=0
EXTRACT: note_off channel=2 note=46 velocity=95 time=0
EXTRACT: note_on channel=2 note=46 velocity=95 time=0
EXTRACT: note_off channel=0 note=67 velocity=95 time=0.19480499999999998
EXTRACT: note_off channel=0 note=63 velocity=95 time=0
EXTRACT: note_off channel=0 note=58 velocity=95 time=0
EXTRACT: note_off channel=0 note=51 velocity=95 time=0
EXTRACT: note_on channel=0 note=59 velocity=95 time=0
EXTRACT: note_on channel=0 note=55 velocity=95 time=0
EXTRACT: note_on channel=0 note=50 velocity=95 time=0
EXTRACT: note_on channel=0 note=45 velocity=95 time=0
EXTRACT: note_off channel=2 note=46 velocity=95 time=0
EXTRACT: note_on channel=2 note=34 velocity=95 time=0
EXTRACT: note_off channel=9 note=38 velocity=95 time=0
EXTRACT: note_off channel=9 note=54 velocity=95 time=0
EXTRACT: note_off channel=9 note=44 velocity=95 time=0
EXTRACT: note_on channel=9 note=44 velocity=95 time=0
EXTRACT: note_off channel=0 note=59 velocity=95 time=0.030844124999999997
EXTRACT: note_off channel=0 note=55 velocity=95 time=0
EXTRACT: note_off channel=0 note=50 velocity=95 time=0
EXTRACT: note_off channel=0 note=45 velocity=95 time=0
EXTRACT: note_on channel=0 note=59 velocity=95 time=0.16396087499999998
EXTRACT: note_on channel=0 note=55 velocity=95 time=0
EXTRACT: note_on channel=0 note=50 velocity=95 time=0
EXTRACT: note_on channel=0 note=45 velocity=95 time=0
EXTRACT: note_off channel=2 note=34 velocity=95 time=0
EXTRACT: note_on channel=2 note=35 velocity=95 time=0
EXTRACT: note_off channel=9 note=44 velocity=95 time=0
EXTRACT: note_on channel=9 note=36 velocity=95 time=0
EXTRACT: note_off channel=0 note=59 velocity=95 time=0.030844124999999997
EXTRACT: note_off channel=0 note=55 velocity=95 time=0
EXTRACT: note_off channel=0 note=50 velocity=95 time=0
EXTRACT: note_off channel=0 note=45 velocity=95 time=0
EXTRACT: note_on channel=0 note=72 velocity=95 time=0.16396087499999998
EXTRACT: note_on channel=0 note=67 velocity=95 time=0
EXTRACT: note_on channel=0 note=64 velocity=95 time=0
EXTRACT: note_on channel=0 note=60 velocity=95 time=0
EXTRACT: note_on channel=0 note=55 velocity=95 time=0
EXTRACT: note_on channel=0 note=48 velocity=95 time=0
EXTRACT: note_off channel=2 note=35 velocity=95 time=0
EXTRACT: note_on channel=2 note=36 velocity=95 time=0
EXTRACT: note_off channel=9 note=36 velocity=95 time=0
EXTRACT: note_on channel=9 note=36 velocity=95 time=0
EXTRACT: note_on channel=9 note=44 velocity=95 time=0
EXTRACT: note_off channel=0 note=72 velocity=95 time=0.38960999999999996
EXTRACT: note_off channel=0 note=67 velocity=95 time=0
EXTRACT: note_off channel=0 note=64 velocity=95 time=0
EXTRACT: note_off channel=0 note=60 velocity=95 time=0
EXTRACT: note_off channel=0 note=55 velocity=95 time=0
EXTRACT: note_off channel=0 note=48 velocity=95 time=0
EXTRACT: note_on channel=0 note=72 velocity=95 time=0
EXTRACT: note_on channel=0 note=67 velocity=95 time=0
EXTRACT: note_on channel=0 note=64 velocity=95 time=0
EXTRACT: note_on channel=0 note=60 velocity=95 time=0
EXTRACT: note_on channel=0 note=55 velocity=95 time=0
EXTRACT: note_on channel=0 note=48 velocity=95 time=0
EXTRACT: note_off channel=2 note=36 velocity=95 time=0
EXTRACT: note_on channel=2 note=36 velocity=95 time=0
EXTRACT: note_off channel=9 note=36 velocity=95 time=0
EXTRACT: note_off channel=9 note=44 velocity=95 time=0
EXTRACT: note_on channel=9 note=44 velocity=95 time=0
EXTRACT: note_off channel=0 note=72 velocity=95 time=0.19480499999999998
EXTRACT: note_off channel=0 note=67 velocity=95 time=0
EXTRACT: note_off channel=0 note=64 velocity=95 time=0
EXTRACT: note_off channel=0 note=60 velocity=95 time=0
EXTRACT: note_off channel=0 note=55 velocity=95 time=0
EXTRACT: note_off channel=0 note=48 velocity=95 time=0
EXTRACT: note_on channel=0 note=72 velocity=95 time=0
EXTRACT: note_on channel=0 note=67 velocity=95 time=0
EXTRACT: note_on channel=0 note=64 velocity=95 time=0
EXTRACT: note_on channel=0 note=60 velocity=95 time=0
EXTRACT: note_on channel=0 note=55 velocity=95 time=0
EXTRACT: note_on channel=0 note=48 velocity=95 time=0
EXTRACT: note_off channel=9 note=44 velocity=95 time=0
EXTRACT: note_on channel=9 note=36 velocity=95 time=0
EXTRACT: note_off channel=0 note=72 velocity=95 time=0.19480499999999998
EXTRACT: note_off channel=0 note=67 velocity=95 time=0
EXTRACT: note_off channel=0 note=64 velocity=95 time=0
EXTRACT: note_off channel=0 note=60 velocity=95 time=0
EXTRACT: note_off channel=0 note=55 velocity=95 time=0
EXTRACT: note_off channel=0 note=48 velocity=95 time=0
EXTRACT: note_on channel=0 note=72 velocity=95 time=0
EXTRACT: note_on channel=0 note=67 velocity=95 time=0
EXTRACT: note_on channel=0 note=64 velocity=95 time=0
EXTRACT: note_on channel=0 note=60 velocity=95 time=0
EXTRACT: note_on channel=0 note=55 velocity=95 time=0
EXTRACT: note_on channel=0 note=48 velocity=95 time=0
EXTRACT: note_off channel=2 note=36 velocity=95 time=0
EXTRACT: note_on channel=2 note=31 velocity=95 time=0
EXTRACT: note_off channel=9 note=36 velocity=95 time=0
EXTRACT: note_on channel=9 note=38 velocity=95 time=0
EXTRACT: note_on channel=9 note=54 velocity=95 time=0
EXTRACT: note_on channel=9 note=44 velocity=95 time=0
EXTRACT: note_off channel=0 note=72 velocity=95 time=0.19480499999999998
EXTRACT: note_off channel=0 note=67 velocity=95 time=0
EXTRACT: note_off channel=0 note=64 velocity=95 time=0
EXTRACT: note_off channel=0 note=60 velocity=95 time=0
EXTRACT: note_off channel=0 note=55 velocity=95 time=0
EXTRACT: note_off channel=0 note=48 velocity=95 time=0
EXTRACT: note_on channel=0 note=72 velocity=95 time=0
EXTRACT: note_on channel=0 note=67 velocity=95 time=0
EXTRACT: note_on channel=0 note=64 velocity=95 time=0
EXTRACT: note_on channel=0 note=60 velocity=95 time=0
EXTRACT: note_on channel=0 note=55 velocity=95 time=0
EXTRACT: note_on channel=0 note=48 velocity=95 time=0
EXTRACT: note_off channel=0 note=72 velocity=95 time=0.19480499999999998
EXTRACT: note_off channel=0 note=67 velocity=95 time=0
EXTRACT: note_off channel=0 note=64 velocity=95 time=0
EXTRACT: note_off channel=0 note=60 velocity=95 time=0
EXTRACT: note_off channel=0 note=55 velocity=95 time=0
EXTRACT: note_off channel=0 note=48 velocity=95 time=0
EXTRACT: note_on channel=0 note=64 velocity=95 time=0
EXTRACT: note_on channel=0 note=59 velocity=95 time=0
EXTRACT: note_on channel=0 note=55 velocity=95 time=0
EXTRACT: note_on channel=0 note=50 velocity=95 time=0
EXTRACT: note_on channel=0 note=45 velocity=95 time=0
EXTRACT: note_on channel=0 note=40 velocity=95 time=0
EXTRACT: note_off channel=2 note=31 velocity=95 time=0
EXTRACT: note_on channel=2 note=36 velocity=95 time=0
EXTRACT: note_off channel=9 note=38 velocity=95 time=0
EXTRACT: note_off channel=9 note=54 velocity=95 time=0
EXTRACT: note_off channel=9 note=44 velocity=95 time=0
EXTRACT: note_on channel=9 note=44 velocity=95 time=0
EXTRACT: note_off channel=0 note=64 velocity=95 time=0.030844124999999997
EXTRACT: note_off channel=0 note=59 velocity=95 time=0
EXTRACT: note_off channel=0 note=55 velocity=95 time=0
EXTRACT: note_off channel=0 note=50 velocity=95 time=0
EXTRACT: note_off channel=0 note=45 velocity=95 time=0
EXTRACT: note_off channel=0 note=40 velocity=95 time=0
EXTRACT: note_on channel=0 note=64 velocity=95 time=0.16396087499999998
EXTRACT: note_on channel=0 note=59 velocity=95 time=0
EXTRACT: note_on channel=0 note=55 velocity=95 time=0
EXTRACT: note_on channel=0 note=50 velocity=95 time=0
EXTRACT: note_on channel=0 note=45 velocity=95 time=0
EXTRACT: note_on channel=0 note=40 velocity=95 time=0
EXTRACT: note_off channel=2 note=36 velocity=95 time=0
EXTRACT: note_on channel=2 note=35 velocity=95 time=0
EXTRACT: note_off channel=9 note=44 velocity=95 time=0
EXTRACT: note_off channel=0 note=64 velocity=95 time=0.030844124999999997
EXTRACT: note_off channel=0 note=59 velocity=95 time=0
EXTRACT: note_off channel=0 note=55 velocity=95 time=0
EXTRACT: note_off channel=0 note=50 velocity=95 time=0
EXTRACT: note_off channel=0 note=45 velocity=95 time=0
EXTRACT: note_off channel=0 note=40 velocity=95 time=0
EXTRACT: note_on channel=0 note=70 velocity=95 time=0.16396087499999998
EXTRACT: note_on channel=0 note=65 velocity=95 time=0
EXTRACT: note_on channel=0 note=61 velocity=95 time=0
EXTRACT: note_on channel=0 note=58 velocity=95 time=0
EXTRACT: note_on channel=0 note=53 velocity=95 time=0
EXTRACT: note_on channel=0 note=46 velocity=95 time=0
EXTRACT: note_off channel=2 note=35 velocity=95 time=0
EXTRACT: note_on channel=2 note=34 velocity=95 time=0
EXTRACT: note_on channel=9 note=36 velocity=95 time=0
EXTRACT: note_on channel=9 note=44 velocity=95 time=0
EXTRACT: note_off channel=0 note=70 velocity=95 time=0.38960999999999996
EXTRACT: note_off channel=0 note=65 velocity=95 time=0
EXTRACT: note_off channel=0 note=61 velocity=95 time=0
EXTRACT: note_off channel=0 note=58 velocity=95 time=0
EXTRACT: note_off channel=0 note=53 velocity=95 time=0
EXTRACT: note_off channel=0 note=46 velocity=95 time=0
EXTRACT: note_on channel=0 note=70 velocity=95 time=0
EXTRACT: note_on channel=0 note=65 velocity=95 time=0
EXTRACT: note_on channel=0 note=61 velocity=95 time=0
EXTRACT: note_on channel=0 note=58 velocity=95 time=0
EXTRACT: note_on channel=0 note=53 velocity=95 time=0
EXTRACT: note_on channel=0 note=46 velocity=95 time=0
EXTRACT: note_off channel=2 note=34 velocity=95 time=0
EXTRACT: note_on channel=2 note=41 velocity=95 time=0
EXTRACT: note_off channel=9 note=36 velocity=95 time=0
EXTRACT: note_off channel=9 note=44 velocity=95 time=0
EXTRACT: note_on channel=9 note=44 velocity=95 time=0
EXTRACT: note_off channel=0 note=70 velocity=95 time=0.19480499999999998
EXTRACT: note_off channel=0 note=65 velocity=95 time=0
EXTRACT: note_off channel=0 note=61 velocity=95 time=0
EXTRACT: note_off channel=0 note=58 velocity=95 time=0
EXTRACT: note_off channel=0 note=53 velocity=95 time=0
EXTRACT: note_off channel=0 note=46 velocity=95 time=0
EXTRACT: note_on channel=0 note=70 velocity=95 time=0
EXTRACT: note_on channel=0 note=65 velocity=95 time=0
EXTRACT: note_on channel=0 note=61 velocity=95 time=0
EXTRACT: note_on channel=0 note=58 velocity=95 time=0
EXTRACT: note_on channel=0 note=53 velocity=95 time=0
EXTRACT: note_on channel=0 note=46 velocity=95 time=0
EXTRACT: note_off channel=2 note=41 velocity=95 time=0
EXTRACT: note_on channel=2 note=41 velocity=95 time=0
EXTRACT: note_off channel=9 note=44 velocity=95 time=0
EXTRACT: note_on channel=9 note=36 velocity=95 time=0
EXTRACT: note_off channel=0 note=70 velocity=95 time=0.19480499999999998
EXTRACT: note_off channel=0 note=65 velocity=95 time=0
EXTRACT: note_off channel=0 note=61 velocity=95 time=0
EXTRACT: note_off channel=0 note=58 velocity=95 time=0
EXTRACT: note_off channel=0 note=53 velocity=95 time=0
EXTRACT: note_off channel=0 note=46 velocity=95 time=0
EXTRACT: note_on channel=0 note=70 velocity=95 time=0
EXTRACT: note_on channel=0 note=65 velocity=95 time=0
EXTRACT: note_on channel=0 note=61 velocity=95 time=0
EXTRACT: note_on channel=0 note=58 velocity=95 time=0
EXTRACT: note_on channel=0 note=53 velocity=95 time=0
EXTRACT: note_on channel=0 note=46 velocity=95 time=0
EXTRACT: note_off channel=2 note=41 velocity=95 time=0
EXTRACT: note_on channel=2 note=41 velocity=95 time=0
EXTRACT: note_off channel=9 note=36 velocity=95 time=0
EXTRACT: note_on channel=9 note=38 velocity=95 time=0
EXTRACT: note_on channel=9 note=54 velocity=95 time=0
EXTRACT: note_on channel=9 note=44 velocity=95 time=0
EXTRACT: note_off channel=0 note=70 velocity=95 time=0.19480499999999998
EXTRACT: note_off channel=0 note=65 velocity=95 time=0
EXTRACT: note_off channel=0 note=61 velocity=95 time=0
EXTRACT: note_off channel=0 note=58 velocity=95 time=0
EXTRACT: note_off channel=0 note=53 velocity=95 time=0
EXTRACT: note_off channel=0 note=46 velocity=95 time=0
EXTRACT: note_on channel=0 note=70 velocity=95 time=0
EXTRACT: note_on channel=0 note=65 velocity=95 time=0
EXTRACT: note_on channel=0 note=61 velocity=95 time=0
EXTRACT: note_on channel=0 note=58 velocity=95 time=0
EXTRACT: note_on channel=0 note=53 velocity=95 time=0
EXTRACT: note_on channel=0 note=46 velocity=95 time=0
EXTRACT: note_off channel=2 note=41 velocity=95 time=0
EXTRACT: note_on channel=2 note=41 velocity=95 time=0
EXTRACT: note_off channel=0 note=70 velocity=95 time=0.19480499999999998
EXTRACT: note_off channel=0 note=65 velocity=95 time=0
EXTRACT: note_off channel=0 note=61 velocity=95 time=0
EXTRACT: note_off channel=0 note=58 velocity=95 time=0
EXTRACT: note_off channel=0 note=53 velocity=95 time=0
EXTRACT: note_off channel=0 note=46 velocity=95 time=0
EXTRACT: note_on channel=0 note=64 velocity=95 time=0
EXTRACT: note_on channel=0 note=59 velocity=95 time=0
EXTRACT: note_on channel=0 note=55 velocity=95 time=0
EXTRACT: note_on channel=0 note=50 velocity=95 time=0
EXTRACT: note_on channel=0 note=45 velocity=95 time=0
EXTRACT: note_on channel=0 note=40 velocity=95 time=0
EXTRACT: note_off channel=2 note=41 velocity=95 time=0
EXTRACT: note_on channel=2 note=34 velocity=95 time=0
EXTRACT: note_off channel=9 note=38 velocity=95 time=0
EXTRACT: note_off channel=9 note=54 velocity=95 time=0
EXTRACT: note_off channel=9 note=44 velocity=95 time=0
EXTRACT: note_on channel=9 note=44 velocity=95 time=0
EXTRACT: note_off channel=0 note=64 velocity=95 time=0.030844124999999997
EXTRACT: note_off channel=0 note=59 velocity=95 time=0
EXTRACT: note_off channel=0 note=55 velocity=95 time=0
EXTRACT: note_off channel=0 note=50 velocity=95 time=0
EXTRACT: note_off channel=0 note=45 velocity=95 time=0
EXTRACT: note_off channel=0 note=40 velocity=95 time=0
EXTRACT: note_on channel=0 note=64 velocity=95 time=0.16396087499999998
EXTRACT: note_on channel=0 note=59 velocity=95 time=0
EXTRACT: note_on channel=0 note=55 velocity=95 time=0
EXTRACT: note_on channel=0 note=50 velocity=95 time=0
EXTRACT: note_on channel=0 note=45 velocity=95 time=0
EXTRACT: note_on channel=0 note=40 velocity=95 time=0
EXTRACT: note_off channel=2 note=34 velocity=95 time=0
EXTRACT: note_on channel=2 note=35 velocity=95 time=0
EXTRACT: note_off channel=9 note=44 velocity=95 time=0
EXTRACT: note_on channel=9 note=36 velocity=95 time=0
EXTRACT: note_off channel=0 note=64 velocity=95 time=0.030844124999999997
EXTRACT: note_off channel=0 note=59 velocity=95 time=0
EXTRACT: note_off channel=0 note=55 velocity=95 time=0
EXTRACT: note_off channel=0 note=50 velocity=95 time=0
EXTRACT: note_off channel=0 note=45 velocity=95 time=0
EXTRACT: note_off channel=0 note=40 velocity=95 time=0
EXTRACT: note_on channel=0 note=72 velocity=95 time=0.16396087499999998
EXTRACT: note_on channel=0 note=67 velocity=95 time=0
EXTRACT: note_on channel=0 note=64 velocity=95 time=0
EXTRACT: note_on channel=0 note=60 velocity=95 time=0
EXTRACT: note_on channel=0 note=55 velocity=95 time=0
EXTRACT: note_on channel=0 note=48 velocity=95 time=0
EXTRACT: note_off channel=2 note=35 velocity=95 time=0
EXTRACT: note_on channel=2 note=36 velocity=95 time=0
EXTRACT: note_off channel=9 note=36 velocity=95 time=0
EXTRACT: note_on channel=9 note=36 velocity=95 time=0
EXTRACT: note_on channel=9 note=44 velocity=95 time=0
EXTRACT: note_off channel=0 note=72 velocity=95 time=0.38960999999999996
EXTRACT: note_off channel=0 note=67 velocity=95 time=0
EXTRACT: note_off channel=0 note=64 velocity=95 time=0
EXTRACT: note_off channel=0 note=60 velocity=95 time=0
EXTRACT: note_off channel=0 note=55 velocity=95 time=0
EXTRACT: note_off channel=0 note=48 velocity=95 time=0
EXTRACT: note_on channel=0 note=64 velocity=95 time=0
EXTRACT: note_on channel=0 note=59 velocity=95 time=0
EXTRACT: note_on channel=0 note=55 velocity=95 time=0
EXTRACT: note_on channel=0 note=50 velocity=95 time=0
EXTRACT: note_on channel=0 note=45 velocity=95 time=0
EXTRACT: note_on channel=0 note=40 velocity=95 time=0
EXTRACT: note_off channel=2 note=36 velocity=95 time=0
EXTRACT: note_off channel=9 note=36 velocity=95 time=0
EXTRACT: note_off channel=9 note=44 velocity=95 time=0
EXTRACT: note_on channel=9 note=44 velocity=95 time=0
EXTRACT: note_off channel=0 note=64 velocity=95 time=0.030844124999999997
EXTRACT: note_off channel=0 note=59 velocity=95 time=0
EXTRACT: note_off channel=0 note=55 velocity=95 time=0
EXTRACT: note_off channel=0 note=50 velocity=95 time=0
EXTRACT: note_off channel=0 note=45 velocity=95 time=0
EXTRACT: note_off channel=0 note=40 velocity=95 time=0
EXTRACT: note_on channel=0 note=72 velocity=95 time=0.16396087499999998
EXTRACT: note_on channel=0 note=67 velocity=95 time=0
EXTRACT: note_on channel=0 note=64 velocity=95 time=0
EXTRACT: note_on channel=0 note=60 velocity=95 time=0
EXTRACT: note_on channel=0 note=55 velocity=95 time=0
EXTRACT: note_on channel=0 note=48 velocity=95 time=0
EXTRACT: note_on channel=2 note=43 velocity=95 time=0
EXTRACT: note_off channel=9 note=44 velocity=95 time=0
EXTRACT: note_on channel=9 note=36 velocity=95 time=0
EXTRACT: note_off channel=0 note=72 velocity=95 time=0.19480499999999998
EXTRACT: note_off channel=0 note=67 velocity=95 time=0
EXTRACT: note_off channel=0 note=64 velocity=95 time=0
EXTRACT: note_off channel=0 note=60 velocity=95 time=0
EXTRACT: note_off channel=0 note=55 velocity=95 time=0
EXTRACT: note_off channel=0 note=48 velocity=95 time=0
EXTRACT: note_on channel=0 note=72 velocity=95 time=0
EXTRACT: note_on channel=0 note=67 velocity=95 time=0
EXTRACT: note_on channel=0 note=64 velocity=95 time=0
EXTRACT: note_on channel=0 note=60 velocity=95 time=0
EXTRACT: note_on channel=0 note=55 velocity=95 time=0
EXTRACT: note_on channel=0 note=48 velocity=95 time=0
EXTRACT: note_off channel=2 note=43 velocity=95 time=0
EXTRACT: note_on channel=2 note=43 velocity=95 time=0
EXTRACT: note_off channel=9 note=36 velocity=95 time=0
EXTRACT: note_on channel=9 note=38 velocity=95 time=0
EXTRACT: note_on channel=9 note=54 velocity=95 time=0
EXTRACT: note_on channel=9 note=44 velocity=95 time=0
EXTRACT: note_off channel=0 note=72 velocity=95 time=0.19480499999999998
EXTRACT: note_off channel=0 note=67 velocity=95 time=0
EXTRACT: note_off channel=0 note=64 velocity=95 time=0
EXTRACT: note_off channel=0 note=60 velocity=95 time=0
EXTRACT: note_off channel=0 note=55 velocity=95 time=0
EXTRACT: note_off channel=0 note=48 velocity=95 time=0
EXTRACT: note_on channel=0 note=72 velocity=95 time=0
EXTRACT: note_on channel=0 note=67 velocity=95 time=0
EXTRACT: note_on channel=0 note=64 velocity=95 time=0
EXTRACT: note_on channel=0 note=60 velocity=95 time=0
EXTRACT: note_on channel=0 note=55 velocity=95 time=0
EXTRACT: note_on channel=0 note=48 velocity=95 time=0
EXTRACT: note_off channel=2 note=43 velocity=95 time=0
EXTRACT: note_on channel=2 note=43 velocity=95 time=0
EXTRACT: note_off channel=0 note=72 velocity=95 time=0.19480499999999998
EXTRACT: note_off channel=0 note=67 velocity=95 time=0
EXTRACT: note_off channel=0 note=64 velocity=95 time=0
EXTRACT: note_off channel=0 note=60 velocity=95 time=0
EXTRACT: note_off channel=0 note=55 velocity=95 time=0
EXTRACT: note_off channel=0 note=48 velocity=95 time=0
EXTRACT: note_on channel=0 note=64 velocity=95 time=0
EXTRACT: note_on channel=0 note=59 velocity=95 time=0
EXTRACT: note_on channel=0 note=55 velocity=95 time=0
EXTRACT: note_on channel=0 note=50 velocity=95 time=0
EXTRACT: note_on channel=0 note=45 velocity=95 time=0
EXTRACT: note_on channel=0 note=40 velocity=95 time=0
EXTRACT: note_off channel=2 note=43 velocity=95 time=0
EXTRACT: note_on channel=2 note=43 velocity=95 time=0
EXTRACT: note_off channel=9 note=38 velocity=95 time=0
EXTRACT: note_off channel=9 note=54 velocity=95 time=0
EXTRACT: note_off channel=9 note=44 velocity=95 time=0
EXTRACT: note_on channel=9 note=44 velocity=95 time=0
EXTRACT: note_off channel=0 note=64 velocity=95 time=0.030844124999999997
EXTRACT: note_off channel=0 note=59 velocity=95 time=0
EXTRACT: note_off channel=0 note=55 velocity=95 time=0
EXTRACT: note_off channel=0 note=50 velocity=95 time=0
EXTRACT: note_off channel=0 note=45 velocity=95 time=0
EXTRACT: note_off channel=0 note=40 velocity=95 time=0
EXTRACT: note_on channel=0 note=64 velocity=95 time=0.16396087499999998
EXTRACT: note_on channel=0 note=59 velocity=95 time=0
EXTRACT: note_on channel=0 note=55 velocity=95 time=0
EXTRACT: note_on channel=0 note=50 velocity=95 time=0
EXTRACT: note_on channel=0 note=45 velocity=95 time=0
EXTRACT: note_on channel=0 note=40 velocity=95 time=0
EXTRACT: note_off channel=9 note=44 velocity=95 time=0
EXTRACT: note_off channel=0 note=64 velocity=95 time=0.030844124999999997
EXTRACT: note_off channel=0 note=59 velocity=95 time=0
EXTRACT: note_off channel=0 note=55 velocity=95 time=0
EXTRACT: note_off channel=0 note=50 velocity=95 time=0
EXTRACT: note_off channel=0 note=45 velocity=95 time=0
EXTRACT: note_off channel=0 note=40 velocity=95 time=0
EXTRACT: note_on channel=0 note=68 velocity=95 time=0.16396087499999998
EXTRACT: note_on channel=0 note=65 velocity=95 time=0
EXTRACT: note_on channel=0 note=60 velocity=95 time=0
EXTRACT: note_on channel=0 note=53 velocity=95 time=0
EXTRACT: note_off channel=2 note=43 velocity=95 time=0
EXTRACT: note_on channel=2 note=29 velocity=95 time=0
EXTRACT: note_on channel=9 note=36 velocity=95 time=0
EXTRACT: note_on channel=9 note=44 velocity=95 time=0
EXTRACT: note_off channel=0 note=68 velocity=95 time=0.38960999999999996
EXTRACT: note_off channel=0 note=65 velocity=95 time=0
EXTRACT: note_off channel=0 note=60 velocity=95 time=0
EXTRACT: note_off channel=0 note=53 velocity=95 time=0
EXTRACT: note_on channel=0 note=68 velocity=95 time=0
EXTRACT: note_on channel=0 note=65 velocity=95 time=0
EXTRACT: note_on channel=0 note=60 velocity=95 time=0
EXTRACT: note_on channel=0 note=53 velocity=95 time=0
EXTRACT: note_off channel=9 note=36 velocity=95 time=0
EXTRACT: note_off channel=9 note=44 velocity=95 time=0
EXTRACT: note_on channel=9 note=44 velocity=95 time=0
EXTRACT: note_off channel=0 note=68 velocity=95 time=0.19480499999999998
EXTRACT: note_off channel=0 note=65 velocity=95 time=0
EXTRACT: note_off channel=0 note=60 velocity=95 time=0
EXTRACT: note_off channel=0 note=53 velocity=95 time=0
EXTRACT: note_on channel=0 note=68 velocity=95 time=0
EXTRACT: note_on channel=0 note=65 velocity=95 time=0
EXTRACT: note_on channel=0 note=60 velocity=95 time=0
EXTRACT: note_on channel=0 note=53 velocity=95 time=0
EXTRACT: note_off channel=2 note=29 velocity=95 time=0
EXTRACT: note_on channel=2 note=36 velocity=95 time=0
EXTRACT: note_off channel=9 note=44 velocity=95 time=0
EXTRACT: note_on channel=9 note=36 velocity=95 time=0
EXTRACT: note_off channel=0 note=68 velocity=95 time=0.19480499999999998
EXTRACT: note_off channel=0 note=65 velocity=95 time=0
EXTRACT: note_off channel=0 note=60 velocity=95 time=0
EXTRACT: note_off channel=0 note=53 velocity=95 time=0
EXTRACT: note_on channel=0 note=68 velocity=95 time=0
EXTRACT: note_on channel=0 note=65 velocity=95 time=0
EXTRACT: note_on channel=0 note=60 velocity=95 time=0
EXTRACT: note_on channel=0 note=53 velocity=95 time=0
EXTRACT: note_off channel=2 note=36 velocity=95 time=0
EXTRACT: note_on channel=2 note=36 velocity=95 time=0
EXTRACT: note_off channel=9 note=36 velocity=95 time=0
EXTRACT: note_on channel=9 note=38 velocity=95 time=0
EXTRACT: note_on channel=9 note=54 velocity=95 time=0
EXTRACT: note_on channel=9 note=44 velocity=95 time=0
EXTRACT: note_off channel=0 note=68 velocity=95 time=0.19480499999999998
EXTRACT: note_off channel=0 note=65 velocity=95 time=0
EXTRACT: note_off channel=0 note=60 velocity=95 time=0
EXTRACT: note_off channel=0 note=53 velocity=95 time=0
EXTRACT: note_on channel=0 note=68 velocity=95 time=0
EXTRACT: note_on channel=0 note=65 velocity=95 time=0
EXTRACT: note_on channel=0 note=60 velocity=95 time=0
EXTRACT: note_on channel=0 note=53 velocity=95 time=0
EXTRACT: note_off channel=2 note=36 velocity=95 time=0
EXTRACT: note_on channel=2 note=36 velocity=95 time=0
EXTRACT: note_off channel=0 note=68 velocity=95 time=0.19480499999999998
EXTRACT: note_off channel=0 note=65 velocity=95 time=0
EXTRACT: note_off channel=0 note=60 velocity=95 time=0
EXTRACT: note_off channel=0 note=53 velocity=95 time=0
EXTRACT: note_on channel=0 note=59 velocity=95 time=0
EXTRACT: note_on channel=0 note=55 velocity=95 time=0
EXTRACT: note_on channel=0 note=50 velocity=95 time=0
EXTRACT: note_on channel=0 note=45 velocity=95 time=0
EXTRACT: note_off channel=9 note=38 velocity=95 time=0
EXTRACT: note_off channel=9 note=54 velocity=95 time=0
EXTRACT: note_off channel=9 note=44 velocity=95 time=0
EXTRACT: note_on channel=9 note=44 velocity=95 time=0
EXTRACT: note_off channel=0 note=59 velocity=95 time=0.030844124999999997
EXTRACT: note_off channel=0 note=55 velocity=95 time=0
EXTRACT: note_off channel=0 note=50 velocity=95 time=0
EXTRACT: note_off channel=0 note=45 velocity=95 time=0
EXTRACT: note_on channel=0 note=59 velocity=95 time=0.16396087499999998
EXTRACT: note_on channel=0 note=55 velocity=95 time=0
EXTRACT: note_on channel=0 note=50 velocity=95 time=0
EXTRACT: note_on channel=0 note=45 velocity=95 time=0
EXTRACT: note_off channel=2 note=36 velocity=95 time=0
EXTRACT: note_on channel=2 note=36 velocity=95 time=0
EXTRACT: note_off channel=9 note=44 velocity=95 time=0
EXTRACT: note_on channel=9 note=36 velocity=95 time=0
EXTRACT: note_off channel=0 note=59 velocity=95 time=0.030844124999999997
EXTRACT: note_off channel=0 note=55 velocity=95 time=0
EXTRACT: note_off channel=0 note=50 velocity=95 time=0
EXTRACT: note_off channel=0 note=45 velocity=95 time=0
EXTRACT: note_on channel=0 note=70 velocity=95 time=0.16396087499999998
EXTRACT: note_on channel=0 note=65 velocity=95 time=0
EXTRACT: note_on channel=0 note=61 velocity=95 time=0
EXTRACT: note_on channel=0 note=58 velocity=95 time=0
EXTRACT: note_on channel=0 note=53 velocity=95 time=0
EXTRACT: note_on channel=0 note=46 velocity=95 time=0
EXTRACT: note_off channel=2 note=36 velocity=95 time=0
EXTRACT: note_on channel=2 note=34 velocity=95 time=0
EXTRACT: note_off channel=9 note=36 velocity=95 time=0
EXTRACT: note_on channel=9 note=36 velocity=95 time=0
EXTRACT: note_on channel=9 note=44 velocity=95 time=0
EXTRACT: note_off channel=0 note=70 velocity=95 time=0.38960999999999996
EXTRACT: note_off channel=0 note=65 velocity=95 time=0
EXTRACT: note_off channel=0 note=61 velocity=95 time=0
EXTRACT: note_off channel=0 note=58 velocity=95 time=0
EXTRACT: note_off channel=0 note=53 velocity=95 time=0
EXTRACT: note_off channel=0 note=46 velocity=95 time=0
EXTRACT: note_on channel=0 note=64 velocity=95 time=0
EXTRACT: note_on channel=0 note=59 velocity=95 time=0
EXTRACT: note_on channel=0 note=55 velocity=95 time=0
EXTRACT: note_on channel=0 note=50 velocity=95 time=0
EXTRACT: note_on channel=0 note=45 velocity=95 time=0
EXTRACT: note_on channel=0 note=40 velocity=95 time=0
EXTRACT: note_off channel=9 note=36 velocity=95 time=0
EXTRACT: note_off channel=9 note=44 velocity=95 time=0
EXTRACT: note_on channel=9 note=38 velocity=95 time=0
EXTRACT: note_off channel=0 note=64 velocity=95 time=0.030844124999999997
EXTRACT: note_off channel=0 note=59 velocity=95 time=0
EXTRACT: note_off channel=0 note=55 velocity=95 time=0
EXTRACT: note_off channel=0 note=50 velocity=95 time=0
EXTRACT: note_off channel=0 note=45 velocity=95 time=0
EXTRACT: note_off channel=0 note=40 velocity=95 time=0
EXTRACT: note_on channel=0 note=64 velocity=95 time=0.16396087499999998
EXTRACT: note_on channel=0 note=59 velocity=95 time=0
EXTRACT: note_on channel=0 note=55 velocity=95 time=0
EXTRACT: note_on channel=0 note=50 velocity=95 time=0
EXTRACT: note_on channel=0 note=45 velocity=95 time=0
EXTRACT: note_on channel=0 note=40 velocity=95 time=0
EXTRACT: note_off channel=2 note=34 velocity=95 time=0
EXTRACT: note_on channel=2 note=34 velocity=95 time=0
EXTRACT: note_off channel=9 note=38 velocity=95 time=0
EXTRACT: note_on channel=9 note=38 velocity=95 time=0
EXTRACT: note_off channel=0 note=64 velocity=95 time=0.030844124999999997
EXTRACT: note_off channel=0 note=59 velocity=95 time=0
EXTRACT: note_off channel=0 note=55 velocity=95 time=0
EXTRACT: note_off channel=0 note=50 velocity=95 time=0
EXTRACT: note_off channel=0 note=45 velocity=95 time=0
EXTRACT: note_off channel=0 note=40 velocity=95 time=0
EXTRACT: note_on channel=0 note=70 velocity=95 time=0.16396087499999998
EXTRACT: note_on channel=0 note=64 velocity=95 time=0
EXTRACT: note_on channel=0 note=58 velocity=95 time=0
EXTRACT: note_on channel=0 note=55 velocity=95 time=0
EXTRACT: note_on channel=0 note=48 velocity=95 time=0
EXTRACT: note_off channel=2 note=34 velocity=95 time=0
EXTRACT: note_on channel=2 note=36 velocity=95 time=0
EXTRACT: note_off channel=9 note=38 velocity=95 time=0
EXTRACT: note_on channel=9 note=36 velocity=95 time=0
EXTRACT: note_on channel=9 note=44 velocity=95 time=0
EXTRACT: note_off channel=0 note=70 velocity=95 time=0.38960999999999996
EXTRACT: note_off channel=0 note=64 velocity=95 time=0
EXTRACT: note_off channel=0 note=58 velocity=95 time=0
EXTRACT: note_off channel=0 note=55 velocity=95 time=0
EXTRACT: note_off channel=0 note=48 velocity=95 time=0
EXTRACT: note_on channel=0 note=59 velocity=95 time=0
EXTRACT: note_on channel=0 note=55 velocity=95 time=0
EXTRACT: note_on channel=0 note=50 velocity=95 time=0
EXTRACT: note_on channel=0 note=45 velocity=95 time=0
EXTRACT: note_on channel=0 note=40 velocity=95 time=0
EXTRACT: note_off channel=9 note=36 velocity=95 time=0
EXTRACT: note_off channel=9 note=44 velocity=95 time=0
EXTRACT: note_on channel=9 note=38 velocity=95 time=0
EXTRACT: note_off channel=0 note=59 velocity=95 time=0.030844124999999997
EXTRACT: note_off channel=0 note=55 velocity=95 time=0
EXTRACT: note_off channel=0 note=50 velocity=95 time=0
EXTRACT: note_off channel=0 note=45 velocity=95 time=0
EXTRACT: note_off channel=0 note=40 velocity=95 time=0
EXTRACT: note_on channel=0 note=59 velocity=95 time=0.16396087499999998
EXTRACT: note_on channel=0 note=55 velocity=95 time=0
EXTRACT: note_on channel=0 note=50 velocity=95 time=0
EXTRACT: note_on channel=0 note=45 velocity=95 time=0
EXTRACT: note_on channel=0 note=40 velocity=95 time=0
EXTRACT: note_off channel=2 note=36 velocity=95 time=0
EXTRACT: note_on channel=2 note=36 velocity=95 time=0
EXTRACT: note_off channel=9 note=38 velocity=95 time=0
EXTRACT: note_on channel=9 note=38 velocity=95 time=0
EXTRACT: note_off channel=0 note=59 velocity=95 time=0.030844124999999997
EXTRACT: note_off channel=0 note=55 velocity=95 time=0
EXTRACT: note_off channel=0 note=50 velocity=95 time=0
EXTRACT: note_off channel=0 note=45 velocity=95 time=0
EXTRACT: note_off channel=0 note=40 velocity=95 time=0
EXTRACT: note_on channel=0 note=68 velocity=95 time=0.16396087499999998
EXTRACT: note_on channel=0 note=65 velocity=95 time=0
EXTRACT: note_on channel=0 note=60 velocity=95 time=0
EXTRACT: note_on channel=0 note=53 velocity=95 time=0
EXTRACT: note_off channel=2 note=36 velocity=95 time=0
EXTRACT: note_on channel=2 note=29 velocity=95 time=0
EXTRACT: note_off channel=9 note=38 velocity=95 time=0
EXTRACT: note_on channel=9 note=36 velocity=95 time=0
EXTRACT: note_on channel=9 note=44 velocity=95 time=0
EXTRACT: note_off channel=0 note=68 velocity=95 time=0.38960999999999996
EXTRACT: note_off channel=0 note=65 velocity=95 time=0
EXTRACT: note_off channel=0 note=60 velocity=95 time=0
EXTRACT: note_off channel=0 note=53 velocity=95 time=0
EXTRACT: note_on channel=0 note=68 velocity=95 time=0
EXTRACT: note_on channel=0 note=65 velocity=95 time=0
EXTRACT: note_on channel=0 note=60 velocity=95 time=0
EXTRACT: note_on channel=0 note=53 velocity=95 time=0
EXTRACT: note_off channel=9 note=36 velocity=95 time=0
EXTRACT: note_off channel=9 note=44 velocity=95 time=0
EXTRACT: note_on channel=9 note=44 velocity=95 time=0
EXTRACT: note_off channel=0 note=68 velocity=95 time=0.19480499999999998
EXTRACT: note_off channel=0 note=65 velocity=95 time=0
EXTRACT: note_off channel=0 note=60 velocity=95 time=0
EXTRACT: note_off channel=0 note=53 velocity=95 time=0
EXTRACT: note_on channel=0 note=68 velocity=95 time=0
EXTRACT: note_on channel=0 note=65 velocity=95 time=0
EXTRACT: note_on channel=0 note=60 velocity=95 time=0
EXTRACT: note_on channel=0 note=53 velocity=95 time=0
EXTRACT: note_off channel=2 note=29 velocity=95 time=0
EXTRACT: note_on channel=2 note=36 velocity=95 time=0
EXTRACT: note_off channel=9 note=44 velocity=95 time=0
EXTRACT: note_on channel=9 note=36 velocity=95 time=0
EXTRACT: note_off channel=0 note=68 velocity=95 time=0.19480499999999998
EXTRACT: note_off channel=0 note=65 velocity=95 time=0
EXTRACT: note_off channel=0 note=60 velocity=95 time=0
EXTRACT: note_off channel=0 note=53 velocity=95 time=0
EXTRACT: note_on channel=0 note=68 velocity=95 time=0
EXTRACT: note_on channel=0 note=65 velocity=95 time=0
EXTRACT: note_on channel=0 note=60 velocity=95 time=0
EXTRACT: note_on channel=0 note=53 velocity=95 time=0
EXTRACT: note_off channel=2 note=36 velocity=95 time=0
EXTRACT: note_on channel=2 note=36 velocity=95 time=0
EXTRACT: note_off channel=9 note=36 velocity=95 time=0
EXTRACT: note_on channel=9 note=38 velocity=95 time=0
EXTRACT: note_on channel=9 note=54 velocity=95 time=0
EXTRACT: note_on channel=9 note=44 velocity=95 time=0
EXTRACT: note_off channel=0 note=68 velocity=95 time=0.19480499999999998
EXTRACT: note_off channel=0 note=65 velocity=95 time=0
EXTRACT: note_off channel=0 note=60 velocity=95 time=0
EXTRACT: note_off channel=0 note=53 velocity=95 time=0
EXTRACT: note_on channel=0 note=68 velocity=95 time=0
EXTRACT: note_on channel=0 note=65 velocity=95 time=0
EXTRACT: note_on channel=0 note=60 velocity=95 time=0
EXTRACT: note_on channel=0 note=53 velocity=95 time=0
EXTRACT: note_off channel=2 note=36 velocity=95 time=0
EXTRACT: note_on channel=2 note=36 velocity=95 time=0
EXTRACT: note_off channel=0 note=68 velocity=95 time=0.19480499999999998
EXTRACT: note_off channel=0 note=65 velocity=95 time=0
EXTRACT: note_off channel=0 note=60 velocity=95 time=0
EXTRACT: note_off channel=0 note=53 velocity=95 time=0
EXTRACT: note_on channel=0 note=59 velocity=95 time=0
EXTRACT: note_on channel=0 note=55 velocity=95 time=0
EXTRACT: note_on channel=0 note=50 velocity=95 time=0
EXTRACT: note_on channel=0 note=45 velocity=95 time=0
EXTRACT: note_off channel=2 note=36 velocity=95 time=0
EXTRACT: note_on channel=2 note=36 velocity=95 time=0
EXTRACT: note_off channel=9 note=38 velocity=95 time=0
EXTRACT: note_off channel=9 note=54 velocity=95 time=0
EXTRACT: note_off channel=9 note=44 velocity=95 time=0
EXTRACT: note_on channel=9 note=44 velocity=95 time=0
EXTRACT: note_off channel=0 note=59 velocity=95 time=0.030844124999999997
EXTRACT: note_off channel=0 note=55 velocity=95 time=0
EXTRACT: note_off channel=0 note=50 velocity=95 time=0
EXTRACT: note_off channel=0 note=45 velocity=95 time=0
EXTRACT: note_on channel=0 note=59 velocity=95 time=0.16396087499999998
EXTRACT: note_on channel=0 note=55 velocity=95 time=0
EXTRACT: note_on channel=0 note=50 velocity=95 time=0
EXTRACT: note_on channel=0 note=45 velocity=95 time=0
EXTRACT: note_off channel=2 note=36 velocity=95 time=0
EXTRACT: note_on channel=2 note=36 velocity=95 time=0
EXTRACT: note_off channel=9 note=44 velocity=95 time=0
EXTRACT: note_on channel=9 note=36 velocity=95 time=0
EXTRACT: note_off channel=0 note=59 velocity=95 time=0.030844124999999997
EXTRACT: note_off channel=0 note=55 velocity=95 time=0
EXTRACT: note_off channel=0 note=50 velocity=95 time=0
EXTRACT: note_off channel=0 note=45 velocity=95 time=0
EXTRACT: note_on channel=0 note=70 velocity=95 time=0.16396087499999998
EXTRACT: note_on channel=0 note=65 velocity=95 time=0
EXTRACT: note_on channel=0 note=61 velocity=95 time=0
EXTRACT: note_on channel=0 note=58 velocity=95 time=0
EXTRACT: note_on channel=0 note=53 velocity=95 time=0
EXTRACT: note_on channel=0 note=46 velocity=95 time=0
EXTRACT: note_off channel=2 note=36 velocity=95 time=0
EXTRACT: note_on channel=2 note=34 velocity=95 time=0
EXTRACT: note_off channel=9 note=36 velocity=95 time=0
EXTRACT: note_on channel=9 note=36 velocity=95 time=0
EXTRACT: note_on channel=9 note=44 velocity=95 time=0
EXTRACT: note_off channel=0 note=70 velocity=95 time=0.38960999999999996
EXTRACT: note_off channel=0 note=65 velocity=95 time=0
EXTRACT: note_off channel=0 note=61 velocity=95 time=0
EXTRACT: note_off channel=0 note=58 velocity=95 time=0
EXTRACT: note_off channel=0 note=53 velocity=95 time=0
EXTRACT: note_off channel=0 note=46 velocity=95 time=0
EXTRACT: note_on channel=0 note=70 velocity=95 time=0
EXTRACT: note_on channel=0 note=65 velocity=95 time=0
EXTRACT: note_on channel=0 note=61 velocity=95 time=0
EXTRACT: note_on channel=0 note=58 velocity=95 time=0
EXTRACT: note_on channel=0 note=53 velocity=95 time=0
EXTRACT: note_on channel=0 note=46 velocity=95 time=0
EXTRACT: note_off channel=2 note=34 velocity=95 time=0
EXTRACT: note_on channel=2 note=34 velocity=95 time=0
EXTRACT: note_off channel=9 note=36 velocity=95 time=0
EXTRACT: note_off channel=9 note=44 velocity=95 time=0
EXTRACT: note_on channel=9 note=44 velocity=95 time=0
EXTRACT: note_off channel=0 note=70 velocity=95 time=0.19480499999999998
EXTRACT: note_off channel=0 note=65 velocity=95 time=0
EXTRACT: note_off channel=0 note=61 velocity=95 time=0
EXTRACT: note_off channel=0 note=58 velocity=95 time=0
EXTRACT: note_off channel=0 note=53 velocity=95 time=0
EXTRACT: note_off channel=0 note=46 velocity=95 time=0
EXTRACT: note_on channel=0 note=70 velocity=95 time=0
EXTRACT: note_on channel=0 note=65 velocity=95 time=0
EXTRACT: note_on channel=0 note=61 velocity=95 time=0
EXTRACT: note_on channel=0 note=58 velocity=95 time=0
EXTRACT: note_on channel=0 note=53 velocity=95 time=0
EXTRACT: note_on channel=0 note=46 velocity=95 time=0
EXTRACT: note_off channel=9 note=44 velocity=95 time=0
EXTRACT: note_on channel=9 note=36 velocity=95 time=0
EXTRACT: note_off channel=0 note=70 velocity=95 time=0.19480499999999998
EXTRACT: note_off channel=0 note=65 velocity=95 time=0
EXTRACT: note_off channel=0 note=61 velocity=95 time=0
EXTRACT: note_off channel=0 note=58 velocity=95 time=0
EXTRACT: note_off channel=0 note=53 velocity=95 time=0
EXTRACT: note_off channel=0 note=46 velocity=95 time=0
EXTRACT: note_on channel=0 note=70 velocity=95 time=0
EXTRACT: note_on channel=0 note=65 velocity=95 time=0
EXTRACT: note_on channel=0 note=61 velocity=95 time=0
EXTRACT: note_on channel=0 note=58 velocity=95 time=0
EXTRACT: note_on channel=0 note=53 velocity=95 time=0
EXTRACT: note_on channel=0 note=46 velocity=95 time=0
EXTRACT: note_off channel=2 note=34 velocity=95 time=0
EXTRACT: note_on channel=2 note=29 velocity=95 time=0
EXTRACT: note_off channel=9 note=36 velocity=95 time=0
EXTRACT: note_on channel=9 note=38 velocity=95 time=0
EXTRACT: note_on channel=9 note=54 velocity=95 time=0
EXTRACT: note_on channel=9 note=44 velocity=95 time=0
EXTRACT: note_off channel=0 note=70 velocity=95 time=0.19480499999999998
EXTRACT: note_off channel=0 note=65 velocity=95 time=0
EXTRACT: note_off channel=0 note=61 velocity=95 time=0
EXTRACT: note_off channel=0 note=58 velocity=95 time=0
EXTRACT: note_off channel=0 note=53 velocity=95 time=0
EXTRACT: note_off channel=0 note=46 velocity=95 time=0
EXTRACT: note_on channel=0 note=70 velocity=95 time=0
EXTRACT: note_on channel=0 note=65 velocity=95 time=0
EXTRACT: note_on channel=0 note=61 velocity=95 time=0
EXTRACT: note_on channel=0 note=58 velocity=95 time=0
EXTRACT: note_on channel=0 note=53 velocity=95 time=0
EXTRACT: note_on channel=0 note=46 velocity=95 time=0
EXTRACT: note_off channel=0 note=70 velocity=95 time=0.19480499999999998
EXTRACT: note_off channel=0 note=65 velocity=95 time=0
EXTRACT: note_off channel=0 note=61 velocity=95 time=0
EXTRACT: note_off channel=0 note=58 velocity=95 time=0
EXTRACT: note_off channel=0 note=53 velocity=95 time=0
EXTRACT: note_off channel=0 note=46 velocity=95 time=0
EXTRACT: note_on channel=0 note=64 velocity=95 time=0
EXTRACT: note_on channel=0 note=59 velocity=95 time=0
EXTRACT: note_on channel=0 note=55 velocity=95 time=0
EXTRACT: note_on channel=0 note=50 velocity=95 time=0
EXTRACT: note_on channel=0 note=45 velocity=95 time=0
EXTRACT: note_on channel=0 note=40 velocity=95 time=0
EXTRACT: note_off channel=9 note=38 velocity=95 time=0
EXTRACT: note_off channel=9 note=54 velocity=95 time=0
EXTRACT: note_off channel=9 note=44 velocity=95 time=0
EXTRACT: note_on channel=9 note=44 velocity=95 time=0
EXTRACT: note_off channel=0 note=64 velocity=95 time=0.030844124999999997
EXTRACT: note_off channel=0 note=59 velocity=95 time=0
EXTRACT: note_off channel=0 note=55 velocity=95 time=0
EXTRACT: note_off channel=0 note=50 velocity=95 time=0
EXTRACT: note_off channel=0 note=45 velocity=95 time=0
EXTRACT: note_off channel=0 note=40 velocity=95 time=0
EXTRACT: note_on channel=0 note=64 velocity=95 time=0.16396087499999998
EXTRACT: note_on channel=0 note=59 velocity=95 time=0
EXTRACT: note_on channel=0 note=55 velocity=95 time=0
EXTRACT: note_on channel=0 note=50 velocity=95 time=0
EXTRACT: note_on channel=0 note=45 velocity=95 time=0
EXTRACT: note_on channel=0 note=40 velocity=95 time=0
EXTRACT: note_off channel=9 note=44 velocity=95 time=0
EXTRACT: note_off channel=0 note=64 velocity=95 time=0.030844124999999997
EXTRACT: note_off channel=0 note=59 velocity=95 time=0
EXTRACT: note_off channel=0 note=55 velocity=95 time=0
EXTRACT: note_off channel=0 note=50 velocity=95 time=0
EXTRACT: note_off channel=0 note=45 velocity=95 time=0
EXTRACT: note_off channel=0 note=40 velocity=95 time=0
EXTRACT: note_on channel=0 note=67 velocity=95 time=0.16396087499999998
EXTRACT: note_on channel=0 note=63 velocity=95 time=0
EXTRACT: note_on channel=0 note=58 velocity=95 time=0
EXTRACT: note_on channel=0 note=51 velocity=95 time=0
EXTRACT: note_off channel=2 note=29 velocity=95 time=0
EXTRACT: note_on channel=2 note=39 velocity=95 time=0
EXTRACT: note_on channel=9 note=36 velocity=95 time=0
EXTRACT: note_on channel=9 note=44 velocity=95 time=0
EXTRACT: note_off channel=0 note=67 velocity=95 time=0.38960999999999996
EXTRACT: note_off channel=0 note=63 velocity=95 time=0
EXTRACT: note_off channel=0 note=58 velocity=95 time=0
EXTRACT: note_off channel=0 note=51 velocity=95 time=0
EXTRACT: note_on channel=0 note=67 velocity=95 time=0
EXTRACT: note_on channel=0 note=63 velocity=95 time=0
EXTRACT: note_on channel=0 note=58 velocity=95 time=0
EXTRACT: note_on channel=0 note=51 velocity=95 time=0
EXTRACT: note_off channel=2 note=39 velocity=95 time=0
EXTRACT: note_on channel=2 note=46 velocity=95 time=0
EXTRACT: note_off channel=9 note=36 velocity=95 time=0
EXTRACT: note_off channel=9 note=44 velocity=95 time=0
EXTRACT: note_on channel=9 note=44 velocity=95 time=0
EXTRACT: note_off channel=0 note=67 velocity=95 time=0.19480499999999998
EXTRACT: note_off channel=0 note=63 velocity=95 time=0
EXTRACT: note_off channel=0 note=58 velocity=95 time=0
EXTRACT: note_off channel=0 note=51 velocity=95 time=0
EXTRACT: note_on channel=0 note=67 velocity=95 time=0
EXTRACT: note_on channel=0 note=63 velocity=95 time=0
EXTRACT: note_on channel=0 note=58 velocity=95 time=0
EXTRACT: note_on channel=0 note=51 velocity=95 time=0
EXTRACT: note_off channel=2 note=46 velocity=95 time=0
EXTRACT: note_on channel=2 note=46 velocity=95 time=0
EXTRACT: note_off channel=9 note=44 velocity=95 time=0
EXTRACT: note_on channel=9 note=36 velocity=95 time=0
EXTRACT: note_off channel=0 note=67 velocity=95 time=0.19480499999999998
EXTRACT: note_off channel=0 note=63 velocity=95 time=0
EXTRACT: note_off channel=0 note=58 velocity=95 time=0
EXTRACT: note_off channel=0 note=51 velocity=95 time=0
EXTRACT: note_on channel=0 note=67 velocity=95 time=0
EXTRACT: note_on channel=0 note=63 velocity=95 time=0
EXTRACT: note_on channel=0 note=58 velocity=95 time=0
EXTRACT: note_on channel=0 note=51 velocity=95 time=0
EXTRACT: note_off channel=2 note=46 velocity=95 time=0
EXTRACT: note_on channel=2 note=46 velocity=95 time=0
EXTRACT: note_off channel=9 note=36 velocity=95 time=0
EXTRACT: note_on channel=9 note=38 velocity=95 time=0
EXTRACT: note_on channel=9 note=54 velocity=95 time=0
EXTRACT: note_on channel=9 note=44 velocity=95 time=0
EXTRACT: note_off channel=0 note=67 velocity=95 time=0.19480499999999998
EXTRACT: note_off channel=0 note=63 velocity=95 time=0
EXTRACT: note_off channel=0 note=58 velocity=95 time=0
EXTRACT: note_off channel=0 note=51 velocity=95 time=0
EXTRACT: note_on channel=0 note=67 velocity=95 time=0
EXTRACT: note_on channel=0 note=63 velocity=95 time=0
EXTRACT: note_on channel=0 note=58 velocity=95 time=0
EXTRACT: note_on channel=0 note=51 velocity=95 time=0
EXTRACT: note_off channel=2 note=46 velocity=95 time=0
EXTRACT: note_on channel=2 note=46 velocity=95 time=0
EXTRACT: note_off channel=0 note=67 velocity=95 time=0.19480499999999998
EXTRACT: note_off channel=0 note=63 velocity=95 time=0
EXTRACT: note_off channel=0 note=58 velocity=95 time=0
EXTRACT: note_off channel=0 note=51 velocity=95 time=0
EXTRACT: note_on channel=0 note=59 velocity=95 time=0
EXTRACT: note_on channel=0 note=55 velocity=95 time=0
EXTRACT: note_on channel=0 note=50 velocity=95 time=0
EXTRACT: note_on channel=0 note=45 velocity=95 time=0
EXTRACT: note_off channel=2 note=46 velocity=95 time=0
EXTRACT: note_on channel=2 note=34 velocity=95 time=0
EXTRACT: note_off channel=9 note=38 velocity=95 time=0
EXTRACT: note_off channel=9 note=54 velocity=95 time=0
EXTRACT: note_off channel=9 note=44 velocity=95 time=0
EXTRACT: note_on channel=9 note=44 velocity=95 time=0
EXTRACT: note_off channel=0 note=59 velocity=95 time=0.030844124999999997
EXTRACT: note_off channel=0 note=55 velocity=95 time=0
EXTRACT: note_off channel=0 note=50 velocity=95 time=0
EXTRACT: note_off channel=0 note=45 velocity=95 time=0
EXTRACT: note_on channel=0 note=59 velocity=95 time=0.16396087499999998
EXTRACT: note_on channel=0 note=55 velocity=95 time=0
EXTRACT: note_on channel=0 note=50 velocity=95 time=0
EXTRACT: note_on channel=0 note=45 velocity=95 time=0
EXTRACT: note_off channel=2 note=34 velocity=95 time=0
EXTRACT: note_on channel=2 note=35 velocity=95 time=0
EXTRACT: note_off channel=9 note=44 velocity=95 time=0
EXTRACT: note_on channel=9 note=36 velocity=95 time=0
EXTRACT: note_off channel=0 note=59 velocity=95 time=0.030844124999999997
EXTRACT: note_off channel=0 note=55 velocity=95 time=0
EXTRACT: note_off channel=0 note=50 velocity=95 time=0
EXTRACT: note_off channel=0 note=45 velocity=95 time=0
EXTRACT: note_on channel=0 note=72 velocity=95 time=0.16396087499999998
EXTRACT: note_on channel=0 note=67 velocity=95 time=0
EXTRACT: note_on channel=0 note=64 velocity=95 time=0
EXTRACT: note_on channel=0 note=60 velocity=95 time=0
EXTRACT: note_on channel=0 note=55 velocity=95 time=0
EXTRACT: note_on channel=0 note=48 velocity=95 time=0
EXTRACT: note_off channel=2 note=35 velocity=95 time=0
EXTRACT: note_on channel=2 note=36 velocity=95 time=0
EXTRACT: note_off channel=9 note=36 velocity=95 time=0
EXTRACT: note_on channel=9 note=36 velocity=95 time=0
EXTRACT: note_on channel=9 note=44 velocity=95 time=0
EXTRACT: note_off channel=0 note=72 velocity=95 time=0.38960999999999996
EXTRACT: note_off channel=0 note=67 velocity=95 time=0
EXTRACT: note_off channel=0 note=64 velocity=95 time=0
EXTRACT: note_off channel=0 note=60 velocity=95 time=0
EXTRACT: note_off channel=0 note=55 velocity=95 time=0
EXTRACT: note_off channel=0 note=48 velocity=95 time=0
EXTRACT: note_on channel=0 note=72 velocity=95 time=0
EXTRACT: note_on channel=0 note=67 velocity=95 time=0
EXTRACT: note_on channel=0 note=64 velocity=95 time=0
EXTRACT: note_on channel=0 note=60 velocity=95 time=0
EXTRACT: note_on channel=0 note=55 velocity=95 time=0
EXTRACT: note_on channel=0 note=48 velocity=95 time=0
EXTRACT: note_off channel=2 note=36 velocity=95 time=0
EXTRACT: note_on channel=2 note=36 velocity=95 time=0
EXTRACT: note_off channel=9 note=36 velocity=95 time=0
EXTRACT: note_off channel=9 note=44 velocity=95 time=0
EXTRACT: note_on channel=9 note=44 velocity=95 time=0
EXTRACT: note_off channel=0 note=72 velocity=95 time=0.19480499999999998
EXTRACT: note_off channel=0 note=67 velocity=95 time=0
EXTRACT: note_off channel=0 note=64 velocity=95 time=0
EXTRACT: note_off channel=0 note=60 velocity=95 time=0
EXTRACT: note_off channel=0 note=55 velocity=95 time=0
EXTRACT: note_off channel=0 note=48 velocity=95 time=0
EXTRACT: note_on channel=0 note=72 velocity=95 time=0
EXTRACT: note_on channel=0 note=67 velocity=95 time=0
EXTRACT: note_on channel=0 note=64 velocity=95 time=0
EXTRACT: note_on channel=0 note=60 velocity=95 time=0
EXTRACT: note_on channel=0 note=55 velocity=95 time=0
EXTRACT: note_on channel=0 note=48 velocity=95 time=0
EXTRACT: note_off channel=9 note=44 velocity=95 time=0
EXTRACT: note_on channel=9 note=36 velocity=95 time=0
EXTRACT: note_off channel=0 note=72 velocity=95 time=0.19480499999999998
EXTRACT: note_off channel=0 note=67 velocity=95 time=0
EXTRACT: note_off channel=0 note=64 velocity=95 time=0
EXTRACT: note_off channel=0 note=60 velocity=95 time=0
EXTRACT: note_off channel=0 note=55 velocity=95 time=0
EXTRACT: note_off channel=0 note=48 velocity=95 time=0
EXTRACT: note_on channel=0 note=72 velocity=95 time=0
EXTRACT: note_on channel=0 note=67 velocity=95 time=0
EXTRACT: note_on channel=0 note=64 velocity=95 time=0
EXTRACT: note_on channel=0 note=60 velocity=95 time=0
EXTRACT: note_on channel=0 note=55 velocity=95 time=0
EXTRACT: note_on channel=0 note=48 velocity=95 time=0
EXTRACT: note_off channel=2 note=36 velocity=95 time=0
EXTRACT: note_on channel=2 note=31 velocity=95 time=0
EXTRACT: note_off channel=9 note=36 velocity=95 time=0
EXTRACT: note_on channel=9 note=38 velocity=95 time=0
EXTRACT: note_on channel=9 note=54 velocity=95 time=0
EXTRACT: note_on channel=9 note=44 velocity=95 time=0
EXTRACT: note_off channel=0 note=72 velocity=95 time=0.19480499999999998
EXTRACT: note_off channel=0 note=67 velocity=95 time=0
EXTRACT: note_off channel=0 note=64 velocity=95 time=0
EXTRACT: note_off channel=0 note=60 velocity=95 time=0
EXTRACT: note_off channel=0 note=55 velocity=95 time=0
EXTRACT: note_off channel=0 note=48 velocity=95 time=0
EXTRACT: note_on channel=0 note=72 velocity=95 time=0
EXTRACT: note_on channel=0 note=67 velocity=95 time=0
EXTRACT: note_on channel=0 note=64 velocity=95 time=0
EXTRACT: note_on channel=0 note=60 velocity=95 time=0
EXTRACT: note_on channel=0 note=55 velocity=95 time=0
EXTRACT: note_on channel=0 note=48 velocity=95 time=0
EXTRACT: note_off channel=0 note=72 velocity=95 time=0.19480499999999998
EXTRACT: note_off channel=0 note=67 velocity=95 time=0
EXTRACT: note_off channel=0 note=64 velocity=95 time=0
EXTRACT: note_off channel=0 note=60 velocity=95 time=0
EXTRACT: note_off channel=0 note=55 velocity=95 time=0
EXTRACT: note_off channel=0 note=48 velocity=95 time=0
EXTRACT: note_on channel=0 note=64 velocity=95 time=0
EXTRACT: note_on channel=0 note=59 velocity=95 time=0
EXTRACT: note_on channel=0 note=55 velocity=95 time=0
EXTRACT: note_on channel=0 note=50 velocity=95 time=0
EXTRACT: note_on channel=0 note=45 velocity=95 time=0
EXTRACT: note_on channel=0 note=40 velocity=95 time=0
EXTRACT: note_off channel=2 note=31 velocity=95 time=0
EXTRACT: note_on channel=2 note=36 velocity=95 time=0
EXTRACT: note_off channel=9 note=38 velocity=95 time=0
EXTRACT: note_off channel=9 note=54 velocity=95 time=0
EXTRACT: note_off channel=9 note=44 velocity=95 time=0
EXTRACT: note_on channel=9 note=44 velocity=95 time=0
EXTRACT: note_off channel=0 note=64 velocity=95 time=0.030844124999999997
EXTRACT: note_off channel=0 note=59 velocity=95 time=0
EXTRACT: note_off channel=0 note=55 velocity=95 time=0
EXTRACT: note_off channel=0 note=50 velocity=95 time=0
EXTRACT: note_off channel=0 note=45 velocity=95 time=0
EXTRACT: note_off channel=0 note=40 velocity=95 time=0
EXTRACT: note_on channel=0 note=64 velocity=95 time=0.16396087499999998
EXTRACT: note_on channel=0 note=59 velocity=95 time=0
EXTRACT: note_on channel=0 note=55 velocity=95 time=0
EXTRACT: note_on channel=0 note=50 velocity=95 time=0
EXTRACT: note_on channel=0 note=45 velocity=95 time=0
EXTRACT: note_on channel=0 note=40 velocity=95 time=0
EXTRACT: note_off channel=2 note=36 velocity=95 time=0
EXTRACT: note_on channel=2 note=35 velocity=95 time=0
EXTRACT: note_off channel=9 note=44 velocity=95 time=0
EXTRACT: note_off channel=0 note=64 velocity=95 time=0.030844124999999997
EXTRACT: note_off channel=0 note=59 velocity=95 time=0
EXTRACT: note_off channel=0 note=55 velocity=95 time=0
EXTRACT: note_off channel=0 note=50 velocity=95 time=0
EXTRACT: note_off channel=0 note=45 velocity=95 time=0
EXTRACT: note_off channel=0 note=40 velocity=95 time=0
EXTRACT: note_on channel=0 note=70 velocity=95 time=0.16396087499999998
EXTRACT: note_on channel=0 note=65 velocity=95 time=0
EXTRACT: note_on channel=0 note=61 velocity=95 time=0
EXTRACT: note_on channel=0 note=58 velocity=95 time=0
EXTRACT: note_on channel=0 note=53 velocity=95 time=0
EXTRACT: note_on channel=0 note=46 velocity=95 time=0
EXTRACT: note_off channel=2 note=35 velocity=95 time=0
EXTRACT: note_on channel=2 note=34 velocity=95 time=0
EXTRACT: note_on channel=9 note=36 velocity=95 time=0
EXTRACT: note_on channel=9 note=44 velocity=95 time=0
EXTRACT: note_off channel=0 note=70 velocity=95 time=0.38960999999999996
EXTRACT: note_off channel=0 note=65 velocity=95 time=0
EXTRACT: note_off channel=0 note=61 velocity=95 time=0
EXTRACT: note_off channel=0 note=58 velocity=95 time=0
EXTRACT: note_off channel=0 note=53 velocity=95 time=0
EXTRACT: note_off channel=0 note=46 velocity=95 time=0
EXTRACT: note_on channel=0 note=70 velocity=95 time=0
EXTRACT: note_on channel=0 note=65 velocity=95 time=0
EXTRACT: note_on channel=0 note=61 velocity=95 time=0
EXTRACT: note_on channel=0 note=58 velocity=95 time=0
EXTRACT: note_on channel=0 note=53 velocity=95 time=0
EXTRACT: note_on channel=0 note=46 velocity=95 time=0
EXTRACT: note_off channel=2 note=34 velocity=95 time=0
EXTRACT: note_on channel=2 note=41 velocity=95 time=0
EXTRACT: note_off channel=9 note=36 velocity=95 time=0
EXTRACT: note_off channel=9 note=44 velocity=95 time=0
EXTRACT: note_on channel=9 note=44 velocity=95 time=0
EXTRACT: note_off channel=0 note=70 velocity=95 time=0.19480499999999998
EXTRACT: note_off channel=0 note=65 velocity=95 time=0
EXTRACT: note_off channel=0 note=61 velocity=95 time=0
EXTRACT: note_off channel=0 note=58 velocity=95 time=0
EXTRACT: note_off channel=0 note=53 velocity=95 time=0
EXTRACT: note_off channel=0 note=46 velocity=95 time=0
EXTRACT: note_on channel=0 note=70 velocity=95 time=0
EXTRACT: note_on channel=0 note=65 velocity=95 time=0
EXTRACT: note_on channel=0 note=61 velocity=95 time=0
EXTRACT: note_on channel=0 note=58 velocity=95 time=0
EXTRACT: note_on channel=0 note=53 velocity=95 time=0
EXTRACT: note_on channel=0 note=46 velocity=95 time=0
EXTRACT: note_off channel=2 note=41 velocity=95 time=0
EXTRACT: note_on channel=2 note=41 velocity=95 time=0
EXTRACT: note_off channel=9 note=44 velocity=95 time=0
EXTRACT: note_on channel=9 note=36 velocity=95 time=0
EXTRACT: note_off channel=0 note=70 velocity=95 time=0.19480499999999998
EXTRACT: note_off channel=0 note=65 velocity=95 time=0
EXTRACT: note_off channel=0 note=61 velocity=95 time=0
EXTRACT: note_off channel=0 note=58 velocity=95 time=0
EXTRACT: note_off channel=0 note=53 velocity=95 time=0
EXTRACT: note_off channel=0 note=46 velocity=95 time=0
EXTRACT: note_on channel=0 note=70 velocity=95 time=0
EXTRACT: note_on channel=0 note=65 velocity=95 time=0
EXTRACT: note_on channel=0 note=61 velocity=95 time=0
EXTRACT: note_on channel=0 note=58 velocity=95 time=0
EXTRACT: note_on channel=0 note=53 velocity=95 time=0
EXTRACT: note_on channel=0 note=46 velocity=95 time=0
EXTRACT: note_off channel=2 note=41 velocity=95 time=0
EXTRACT: note_on channel=2 note=41 velocity=95 time=0
EXTRACT: note_off channel=9 note=36 velocity=95 time=0
EXTRACT: note_on channel=9 note=38 velocity=95 time=0
EXTRACT: note_on channel=9 note=54 velocity=95 time=0
EXTRACT: note_on channel=9 note=44 velocity=95 time=0
EXTRACT: note_off channel=0 note=70 velocity=95 time=0.19480499999999998
EXTRACT: note_off channel=0 note=65 velocity=95 time=0
EXTRACT: note_off channel=0 note=61 velocity=95 time=0
EXTRACT: note_off channel=0 note=58 velocity=95 time=0
EXTRACT: note_off channel=0 note=53 velocity=95 time=0
EXTRACT: note_off channel=0 note=46 velocity=95 time=0
EXTRACT: note_on channel=0 note=70 velocity=95 time=0
EXTRACT: note_on channel=0 note=65 velocity=95 time=0
EXTRACT: note_on channel=0 note=61 velocity=95 time=0
EXTRACT: note_on channel=0 note=58 velocity=95 time=0
EXTRACT: note_on channel=0 note=53 velocity=95 time=0
EXTRACT: note_on channel=0 note=46 velocity=95 time=0
EXTRACT: note_off channel=2 note=41 velocity=95 time=0
EXTRACT: note_on channel=2 note=41 velocity=95 time=0
EXTRACT: note_off channel=0 note=70 velocity=95 time=0.19480499999999998
EXTRACT: note_off channel=0 note=65 velocity=95 time=0
EXTRACT: note_off channel=0 note=61 velocity=95 time=0
EXTRACT: note_off channel=0 note=58 velocity=95 time=0
EXTRACT: note_off channel=0 note=53 velocity=95 time=0
EXTRACT: note_off channel=0 note=46 velocity=95 time=0
EXTRACT: note_on channel=0 note=64 velocity=95 time=0
EXTRACT: note_on channel=0 note=59 velocity=95 time=0
EXTRACT: note_on channel=0 note=55 velocity=95 time=0
EXTRACT: note_on channel=0 note=50 velocity=95 time=0
EXTRACT: note_on channel=0 note=45 velocity=95 time=0
EXTRACT: note_on channel=0 note=40 velocity=95 time=0
EXTRACT: note_off channel=2 note=41 velocity=95 time=0
EXTRACT: note_on channel=2 note=34 velocity=95 time=0
EXTRACT: note_off channel=9 note=38 velocity=95 time=0
EXTRACT: note_off channel=9 note=54 velocity=95 time=0
EXTRACT: note_off channel=9 note=44 velocity=95 time=0
EXTRACT: note_on channel=9 note=44 velocity=95 time=0
EXTRACT: note_off channel=0 note=64 velocity=95 time=0.030844124999999997
EXTRACT: note_off channel=0 note=59 velocity=95 time=0
EXTRACT: note_off channel=0 note=55 velocity=95 time=0
EXTRACT: note_off channel=0 note=50 velocity=95 time=0
EXTRACT: note_off channel=0 note=45 velocity=95 time=0
EXTRACT: note_off channel=0 note=40 velocity=95 time=0
EXTRACT: note_on channel=0 note=64 velocity=95 time=0.16396087499999998
EXTRACT: note_on channel=0 note=59 velocity=95 time=0
EXTRACT: note_on channel=0 note=55 velocity=95 time=0
EXTRACT: note_on channel=0 note=50 velocity=95 time=0
EXTRACT: note_on channel=0 note=45 velocity=95 time=0
EXTRACT: note_on channel=0 note=40 velocity=95 time=0
EXTRACT: note_off channel=2 note=34 velocity=95 time=0
EXTRACT: note_on channel=2 note=35 velocity=95 time=0
EXTRACT: note_off channel=9 note=44 velocity=95 time=0
EXTRACT: note_on channel=9 note=36 velocity=95 time=0
EXTRACT: note_off channel=0 note=64 velocity=95 time=0.030844124999999997
EXTRACT: note_off channel=0 note=59 velocity=95 time=0
EXTRACT: note_off channel=0 note=55 velocity=95 time=0
EXTRACT: note_off channel=0 note=50 velocity=95 time=0
EXTRACT: note_off channel=0 note=45 velocity=95 time=0
EXTRACT: note_off channel=0 note=40 velocity=95 time=0
EXTRACT: note_on channel=0 note=72 velocity=95 time=0.16396087499999998
EXTRACT: note_on channel=0 note=67 velocity=95 time=0
EXTRACT: note_on channel=0 note=64 velocity=95 time=0
EXTRACT: note_on channel=0 note=60 velocity=95 time=0
EXTRACT: note_on channel=0 note=55 velocity=95 time=0
EXTRACT: note_on channel=0 note=48 velocity=95 time=0
EXTRACT: note_off channel=2 note=35 velocity=95 time=0
EXTRACT: note_on channel=2 note=36 velocity=95 time=0
EXTRACT: note_off channel=9 note=36 velocity=95 time=0
EXTRACT: note_on channel=9 note=36 velocity=95 time=0
EXTRACT: note_on channel=9 note=44 velocity=95 time=0
EXTRACT: note_off channel=0 note=72 velocity=95 time=0.38960999999999996
EXTRACT: note_off channel=0 note=67 velocity=95 time=0
EXTRACT: note_off channel=0 note=64 velocity=95 time=0
EXTRACT: note_off channel=0 note=60 velocity=95 time=0
EXTRACT: note_off channel=0 note=55 velocity=95 time=0
EXTRACT: note_off channel=0 note=48 velocity=95 time=0
EXTRACT: note_on channel=0 note=64 velocity=95 time=0
EXTRACT: note_on channel=0 note=59 velocity=95 time=0
EXTRACT: note_on channel=0 note=55 velocity=95 time=0
EXTRACT: note_on channel=0 note=50 velocity=95 time=0
EXTRACT: note_on channel=0 note=45 velocity=95 time=0
EXTRACT: note_on channel=0 note=40 velocity=95 time=0
EXTRACT: note_off channel=2 note=36 velocity=95 time=0
EXTRACT: note_off channel=9 note=36 velocity=95 time=0
EXTRACT: note_off channel=9 note=44 velocity=95 time=0
EXTRACT: note_on channel=9 note=44 velocity=95 time=0
EXTRACT: note_off channel=0 note=64 velocity=95 time=0.030844124999999997
EXTRACT: note_off channel=0 note=59 velocity=95 time=0
EXTRACT: note_off channel=0 note=55 velocity=95 time=0
EXTRACT: note_off channel=0 note=50 velocity=95 time=0
EXTRACT: note_off channel=0 note=45 velocity=95 time=0
EXTRACT: note_off channel=0 note=40 velocity=95 time=0
EXTRACT: note_on channel=0 note=72 velocity=95 time=0.16396087499999998
EXTRACT: note_on channel=0 note=67 velocity=95 time=0
EXTRACT: note_on channel=0 note=64 velocity=95 time=0
EXTRACT: note_on channel=0 note=60 velocity=95 time=0
EXTRACT: note_on channel=0 note=55 velocity=95 time=0
EXTRACT: note_on channel=0 note=48 velocity=95 time=0
EXTRACT: note_on channel=2 note=43 velocity=95 time=0
EXTRACT: note_off channel=9 note=44 velocity=95 time=0
EXTRACT: note_on channel=9 note=36 velocity=95 time=0
EXTRACT: note_off channel=0 note=72 velocity=95 time=0.19480499999999998
EXTRACT: note_off channel=0 note=67 velocity=95 time=0
EXTRACT: note_off channel=0 note=64 velocity=95 time=0
EXTRACT: note_off channel=0 note=60 velocity=95 time=0
EXTRACT: note_off channel=0 note=55 velocity=95 time=0
EXTRACT: note_off channel=0 note=48 velocity=95 time=0
EXTRACT: note_on channel=0 note=72 velocity=95 time=0
EXTRACT: note_on channel=0 note=67 velocity=95 time=0
EXTRACT: note_on channel=0 note=64 velocity=95 time=0
EXTRACT: note_on channel=0 note=60 velocity=95 time=0
EXTRACT: note_on channel=0 note=55 velocity=95 time=0
EXTRACT: note_on channel=0 note=48 velocity=95 time=0
EXTRACT: note_off channel=2 note=43 velocity=95 time=0
EXTRACT: note_on channel=2 note=43 velocity=95 time=0
EXTRACT: note_off channel=9 note=36 velocity=95 time=0
EXTRACT: note_on channel=9 note=38 velocity=95 time=0
EXTRACT: note_on channel=9 note=54 velocity=95 time=0
EXTRACT: note_on channel=9 note=44 velocity=95 time=0
EXTRACT: note_off channel=0 note=72 velocity=95 time=0.19480499999999998
EXTRACT: note_off channel=0 note=67 velocity=95 time=0
EXTRACT: note_off channel=0 note=64 velocity=95 time=0
EXTRACT: note_off channel=0 note=60 velocity=95 time=0
EXTRACT: note_off channel=0 note=55 velocity=95 time=0
EXTRACT: note_off channel=0 note=48 velocity=95 time=0
EXTRACT: note_on channel=0 note=72 velocity=95 time=0
EXTRACT: note_on channel=0 note=67 velocity=95 time=0
EXTRACT: note_on channel=0 note=64 velocity=95 time=0
EXTRACT: note_on channel=0 note=60 velocity=95 time=0
EXTRACT: note_on channel=0 note=55 velocity=95 time=0
EXTRACT: note_on channel=0 note=48 velocity=95 time=0
EXTRACT: note_off channel=2 note=43 velocity=95 time=0
EXTRACT: note_on channel=2 note=43 velocity=95 time=0
EXTRACT: note_off channel=0 note=72 velocity=95 time=0.19480499999999998
EXTRACT: note_off channel=0 note=67 velocity=95 time=0
EXTRACT: note_off channel=0 note=64 velocity=95 time=0
EXTRACT: note_off channel=0 note=60 velocity=95 time=0
EXTRACT: note_off channel=0 note=55 velocity=95 time=0
EXTRACT: note_off channel=0 note=48 velocity=95 time=0
EXTRACT: note_on channel=0 note=64 velocity=95 time=0
EXTRACT: note_on channel=0 note=59 velocity=95 time=0
EXTRACT: note_on channel=0 note=55 velocity=95 time=0
EXTRACT: note_on channel=0 note=50 velocity=95 time=0
EXTRACT: note_on channel=0 note=45 velocity=95 time=0
EXTRACT: note_on channel=0 note=40 velocity=95 time=0
EXTRACT: note_off channel=2 note=43 velocity=95 time=0
EXTRACT: note_on channel=2 note=43 velocity=95 time=0
EXTRACT: note_off channel=9 note=38 velocity=95 time=0
EXTRACT: note_off channel=9 note=54 velocity=95 time=0
EXTRACT: note_off channel=9 note=44 velocity=95 time=0
EXTRACT: note_on channel=9 note=44 velocity=95 time=0
EXTRACT: note_off channel=0 note=64 velocity=95 time=0.030844124999999997
EXTRACT: note_off channel=0 note=59 velocity=95 time=0
EXTRACT: note_off channel=0 note=55 velocity=95 time=0
EXTRACT: note_off channel=0 note=50 velocity=95 time=0
EXTRACT: note_off channel=0 note=45 velocity=95 time=0
EXTRACT: note_off channel=0 note=40 velocity=95 time=0
EXTRACT: note_on channel=0 note=64 velocity=95 time=0.16396087499999998
EXTRACT: note_on channel=0 note=59 velocity=95 time=0
EXTRACT: note_on channel=0 note=55 velocity=95 time=0
EXTRACT: note_on channel=0 note=50 velocity=95 time=0
EXTRACT: note_on channel=0 note=45 velocity=95 time=0
EXTRACT: note_on channel=0 note=40 velocity=95 time=0
EXTRACT: note_off channel=9 note=44 velocity=95 time=0
EXTRACT: note_off channel=0 note=64 velocity=95 time=0.030844124999999997
EXTRACT: note_off channel=0 note=59 velocity=95 time=0
EXTRACT: note_off channel=0 note=55 velocity=95 time=0
EXTRACT: note_off channel=0 note=50 velocity=95 time=0
EXTRACT: note_off channel=0 note=45 velocity=95 time=0
EXTRACT: note_off channel=0 note=40 velocity=95 time=0
EXTRACT: note_on channel=0 note=68 velocity=95 time=0.16396087499999998
EXTRACT: note_on channel=0 note=65 velocity=95 time=0
EXTRACT: note_on channel=0 note=60 velocity=95 time=0
EXTRACT: note_on channel=0 note=53 velocity=95 time=0
EXTRACT: note_off channel=2 note=43 velocity=95 time=0
EXTRACT: note_on channel=2 note=29 velocity=95 time=0
EXTRACT: note_on channel=9 note=36 velocity=95 time=0
EXTRACT: note_on channel=9 note=44 velocity=95 time=0
EXTRACT: note_off channel=0 note=68 velocity=95 time=0.38960999999999996
EXTRACT: note_off channel=0 note=65 velocity=95 time=0
EXTRACT: note_off channel=0 note=60 velocity=95 time=0
EXTRACT: note_off channel=0 note=53 velocity=95 time=0
EXTRACT: note_on channel=0 note=68 velocity=95 time=0
EXTRACT: note_on channel=0 note=65 velocity=95 time=0
EXTRACT: note_on channel=0 note=60 velocity=95 time=0
EXTRACT: note_on channel=0 note=53 velocity=95 time=0
EXTRACT: note_off channel=9 note=36 velocity=95 time=0
EXTRACT: note_off channel=9 note=44 velocity=95 time=0
EXTRACT: note_on channel=9 note=44 velocity=95 time=0
EXTRACT: note_off channel=0 note=68 velocity=95 time=0.19480499999999998
EXTRACT: note_off channel=0 note=65 velocity=95 time=0
EXTRACT: note_off channel=0 note=60 velocity=95 time=0
EXTRACT: note_off channel=0 note=53 velocity=95 time=0
EXTRACT: note_on channel=0 note=68 velocity=95 time=0
EXTRACT: note_on channel=0 note=65 velocity=95 time=0
EXTRACT: note_on channel=0 note=60 velocity=95 time=0
EXTRACT: note_on channel=0 note=53 velocity=95 time=0
EXTRACT: note_off channel=2 note=29 velocity=95 time=0
EXTRACT: note_on channel=2 note=36 velocity=95 time=0
EXTRACT: note_off channel=9 note=44 velocity=95 time=0
EXTRACT: note_on channel=9 note=36 velocity=95 time=0
EXTRACT: note_off channel=0 note=68 velocity=95 time=0.19480499999999998
EXTRACT: note_off channel=0 note=65 velocity=95 time=0
EXTRACT: note_off channel=0 note=60 velocity=95 time=0
EXTRACT: note_off channel=0 note=53 velocity=95 time=0
EXTRACT: note_on channel=0 note=68 velocity=95 time=0
EXTRACT: note_on channel=0 note=65 velocity=95 time=0
EXTRACT: note_on channel=0 note=60 velocity=95 time=0
EXTRACT: note_on channel=0 note=53 velocity=95 time=0
EXTRACT: note_off channel=2 note=36 velocity=95 time=0
EXTRACT: note_on channel=2 note=36 velocity=95 time=0
EXTRACT: note_off channel=9 note=36 velocity=95 time=0
EXTRACT: note_on channel=9 note=38 velocity=95 time=0
EXTRACT: note_on channel=9 note=54 velocity=95 time=0
EXTRACT: note_on channel=9 note=44 velocity=95 time=0
EXTRACT: note_off channel=0 note=68 velocity=95 time=0.19480499999999998
EXTRACT: note_off channel=0 note=65 velocity=95 time=0
EXTRACT: note_off channel=0 note=60 velocity=95 time=0
EXTRACT: note_off channel=0 note=53 velocity=95 time=0
EXTRACT: note_on channel=0 note=68 velocity=95 time=0
EXTRACT: note_on channel=0 note=65 velocity=95 time=0
EXTRACT: note_on channel=0 note=60 velocity=95 time=0
EXTRACT: note_on channel=0 note=53 velocity=95 time=0
EXTRACT: note_off channel=2 note=36 velocity=95 time=0
EXTRACT: note_on channel=2 note=36 velocity=95 time=0
EXTRACT: note_off channel=0 note=68 velocity=95 time=0.19480499999999998
EXTRACT: note_off channel=0 note=65 velocity=95 time=0
EXTRACT: note_off channel=0 note=60 velocity=95 time=0
EXTRACT: note_off channel=0 note=53 velocity=95 time=0
EXTRACT: note_on channel=0 note=59 velocity=95 time=0
EXTRACT: note_on channel=0 note=55 velocity=95 time=0
EXTRACT: note_on channel=0 note=50 velocity=95 time=0
EXTRACT: note_on channel=0 note=45 velocity=95 time=0
EXTRACT: note_off channel=9 note=38 velocity=95 time=0
EXTRACT: note_off channel=9 note=54 velocity=95 time=0
EXTRACT: note_off channel=9 note=44 velocity=95 time=0
EXTRACT: note_on channel=9 note=44 velocity=95 time=0
EXTRACT: note_off channel=0 note=59 velocity=95 time=0.030844124999999997
EXTRACT: note_off channel=0 note=55 velocity=95 time=0
EXTRACT: note_off channel=0 note=50 velocity=95 time=0
EXTRACT: note_off channel=0 note=45 velocity=95 time=0
EXTRACT: note_on channel=0 note=59 velocity=95 time=0.16396087499999998
EXTRACT: note_on channel=0 note=55 velocity=95 time=0
EXTRACT: note_on channel=0 note=50 velocity=95 time=0
EXTRACT: note_on channel=0 note=45 velocity=95 time=0
EXTRACT: note_off channel=2 note=36 velocity=95 time=0
EXTRACT: note_on channel=2 note=36 velocity=95 time=0
EXTRACT: note_off channel=9 note=44 velocity=95 time=0
EXTRACT: note_on channel=9 note=36 velocity=95 time=0
EXTRACT: note_off channel=0 note=59 velocity=95 time=0.030844124999999997
EXTRACT: note_off channel=0 note=55 velocity=95 time=0
EXTRACT: note_off channel=0 note=50 velocity=95 time=0
EXTRACT: note_off channel=0 note=45 velocity=95 time=0
EXTRACT: note_on channel=0 note=70 velocity=95 time=0.16396087499999998
EXTRACT: note_on channel=0 note=65 velocity=95 time=0
EXTRACT: note_on channel=0 note=61 velocity=95 time=0
EXTRACT: note_on channel=0 note=58 velocity=95 time=0
EXTRACT: note_on channel=0 note=53 velocity=95 time=0
EXTRACT: note_on channel=0 note=46 velocity=95 time=0
EXTRACT: note_off channel=2 note=36 velocity=95 time=0
EXTRACT: note_on channel=2 note=34 velocity=95 time=0
EXTRACT: note_off channel=9 note=36 velocity=95 time=0
EXTRACT: note_on channel=9 note=36 velocity=95 time=0
EXTRACT: note_on channel=9 note=44 velocity=95 time=0
EXTRACT: note_off channel=0 note=70 velocity=95 time=0.38960999999999996
EXTRACT: note_off channel=0 note=65 velocity=95 time=0
EXTRACT: note_off channel=0 note=61 velocity=95 time=0
EXTRACT: note_off channel=0 note=58 velocity=95 time=0
EXTRACT: note_off channel=0 note=53 velocity=95 time=0
EXTRACT: note_off channel=0 note=46 velocity=95 time=0
EXTRACT: note_on channel=0 note=64 velocity=95 time=0
EXTRACT: note_on channel=0 note=59 velocity=95 time=0
EXTRACT: note_on channel=0 note=55 velocity=95 time=0
EXTRACT: note_on channel=0 note=50 velocity=95 time=0
EXTRACT: note_on channel=0 note=45 velocity=95 time=0
EXTRACT: note_on channel=0 note=40 velocity=95 time=0
EXTRACT: note_off channel=9 note=36 velocity=95 time=0
EXTRACT: note_off channel=9 note=44 velocity=95 time=0
EXTRACT: note_on channel=9 note=38 velocity=95 time=0
EXTRACT: note_off channel=0 note=64 velocity=95 time=0.030844124999999997
EXTRACT: note_off channel=0 note=59 velocity=95 time=0
EXTRACT: note_off channel=0 note=55 velocity=95 time=0
EXTRACT: note_off channel=0 note=50 velocity=95 time=0
EXTRACT: note_off channel=0 note=45 velocity=95 time=0
EXTRACT: note_off channel=0 note=40 velocity=95 time=0
EXTRACT: note_on channel=0 note=64 velocity=95 time=0.16396087499999998
EXTRACT: note_on channel=0 note=59 velocity=95 time=0
EXTRACT: note_on channel=0 note=55 velocity=95 time=0
EXTRACT: note_on channel=0 note=50 velocity=95 time=0
EXTRACT: note_on channel=0 note=45 velocity=95 time=0
EXTRACT: note_on channel=0 note=40 velocity=95 time=0
EXTRACT: note_off channel=2 note=34 velocity=95 time=0
EXTRACT: note_on channel=2 note=34 velocity=95 time=0
EXTRACT: note_off channel=9 note=38 velocity=95 time=0
EXTRACT: note_on channel=9 note=38 velocity=95 time=0
EXTRACT: note_off channel=0 note=64 velocity=95 time=0.030844124999999997
EXTRACT: note_off channel=0 note=59 velocity=95 time=0
EXTRACT: note_off channel=0 note=55 velocity=95 time=0
EXTRACT: note_off channel=0 note=50 velocity=95 time=0
EXTRACT: note_off channel=0 note=45 velocity=95 time=0
EXTRACT: note_off channel=0 note=40 velocity=95 time=0
EXTRACT: note_on channel=0 note=70 velocity=95 time=0.16396087499999998
EXTRACT: note_on channel=0 note=64 velocity=95 time=0
EXTRACT: note_on channel=0 note=58 velocity=95 time=0
EXTRACT: note_on channel=0 note=55 velocity=95 time=0
EXTRACT: note_on channel=0 note=48 velocity=95 time=0
EXTRACT: note_off channel=2 note=34 velocity=95 time=0
EXTRACT: note_on channel=2 note=36 velocity=95 time=0
EXTRACT: note_off channel=9 note=38 velocity=95 time=0
EXTRACT: note_on channel=9 note=36 velocity=95 time=0
EXTRACT: note_on channel=9 note=44 velocity=95 time=0
EXTRACT: note_off channel=0 note=70 velocity=95 time=0.38960999999999996
EXTRACT: note_off channel=0 note=64 velocity=95 time=0
EXTRACT: note_off channel=0 note=58 velocity=95 time=0
EXTRACT: note_off channel=0 note=55 velocity=95 time=0
EXTRACT: note_off channel=0 note=48 velocity=95 time=0
EXTRACT: note_on channel=0 note=59 velocity=95 time=0
EXTRACT: note_on channel=0 note=55 velocity=95 time=0
EXTRACT: note_on channel=0 note=50 velocity=95 time=0
EXTRACT: note_on channel=0 note=45 velocity=95 time=0
EXTRACT: note_on channel=0 note=40 velocity=95 time=0
EXTRACT: note_off channel=9 note=36 velocity=95 time=0
EXTRACT: note_off channel=9 note=44 velocity=95 time=0
EXTRACT: note_on channel=9 note=38 velocity=95 time=0
EXTRACT: note_off channel=0 note=59 velocity=95 time=0.030844124999999997
EXTRACT: note_off channel=0 note=55 velocity=95 time=0
EXTRACT: note_off channel=0 note=50 velocity=95 time=0
EXTRACT: note_off channel=0 note=45 velocity=95 time=0
EXTRACT: note_off channel=0 note=40 velocity=95 time=0
EXTRACT: note_on channel=0 note=59 velocity=95 time=0.16396087499999998
EXTRACT: note_on channel=0 note=55 velocity=95 time=0
EXTRACT: note_on channel=0 note=50 velocity=95 time=0
EXTRACT: note_on channel=0 note=45 velocity=95 time=0
EXTRACT: note_on channel=0 note=40 velocity=95 time=0
EXTRACT: note_off channel=2 note=36 velocity=95 time=0
EXTRACT: note_on channel=2 note=36 velocity=95 time=0
EXTRACT: note_off channel=9 note=38 velocity=95 time=0
EXTRACT: note_on channel=9 note=38 velocity=95 time=0
EXTRACT: note_off channel=0 note=59 velocity=95 time=0.030844124999999997
EXTRACT: note_off channel=0 note=55 velocity=95 time=0
EXTRACT: note_off channel=0 note=50 velocity=95 time=0
EXTRACT: note_off channel=0 note=45 velocity=95 time=0
EXTRACT: note_off channel=0 note=40 velocity=95 time=0
EXTRACT: note_on channel=0 note=68 velocity=95 time=0.16396087499999998
EXTRACT: note_on channel=0 note=65 velocity=95 time=0
EXTRACT: note_on channel=0 note=60 velocity=95 time=0
EXTRACT: note_on channel=0 note=53 velocity=95 time=0
EXTRACT: note_off channel=2 note=36 velocity=95 time=0
EXTRACT: note_on channel=2 note=29 velocity=95 time=0
EXTRACT: note_off channel=9 note=38 velocity=95 time=0
EXTRACT: note_on channel=9 note=36 velocity=95 time=0
EXTRACT: note_on channel=9 note=44 velocity=95 time=0
EXTRACT: note_off channel=0 note=68 velocity=95 time=0.38960999999999996
EXTRACT: note_off channel=0 note=65 velocity=95 time=0
EXTRACT: note_off channel=0 note=60 velocity=95 time=0
EXTRACT: note_off channel=0 note=53 velocity=95 time=0
EXTRACT: note_on channel=0 note=68 velocity=95 time=0
EXTRACT: note_on channel=0 note=65 velocity=95 time=0
EXTRACT: note_on channel=0 note=60 velocity=95 time=0
EXTRACT: note_on channel=0 note=53 velocity=95 time=0
EXTRACT: note_off channel=9 note=36 velocity=95 time=0
EXTRACT: note_off channel=9 note=44 velocity=95 time=0
EXTRACT: note_on channel=9 note=44 velocity=95 time=0
EXTRACT: note_off channel=0 note=68 velocity=95 time=0.19480499999999998
EXTRACT: note_off channel=0 note=65 velocity=95 time=0
EXTRACT: note_off channel=0 note=60 velocity=95 time=0
EXTRACT: note_off channel=0 note=53 velocity=95 time=0
EXTRACT: note_on channel=0 note=68 velocity=95 time=0
EXTRACT: note_on channel=0 note=65 velocity=95 time=0
EXTRACT: note_on channel=0 note=60 velocity=95 time=0
EXTRACT: note_on channel=0 note=53 velocity=95 time=0
EXTRACT: note_off channel=2 note=29 velocity=95 time=0
EXTRACT: note_on channel=2 note=36 velocity=95 time=0
EXTRACT: note_off channel=9 note=44 velocity=95 time=0
EXTRACT: note_on channel=9 note=36 velocity=95 time=0
EXTRACT: note_off channel=0 note=68 velocity=95 time=0.19480499999999998
EXTRACT: note_off channel=0 note=65 velocity=95 time=0
EXTRACT: note_off channel=0 note=60 velocity=95 time=0
EXTRACT: note_off channel=0 note=53 velocity=95 time=0
EXTRACT: note_on channel=0 note=68 velocity=95 time=0
EXTRACT: note_on channel=0 note=65 velocity=95 time=0
EXTRACT: note_on channel=0 note=60 velocity=95 time=0
EXTRACT: note_on channel=0 note=53 velocity=95 time=0
EXTRACT: note_off channel=2 note=36 velocity=95 time=0
EXTRACT: note_on channel=2 note=36 velocity=95 time=0
EXTRACT: note_off channel=9 note=36 velocity=95 time=0
EXTRACT: note_on channel=9 note=38 velocity=95 time=0
EXTRACT: note_on channel=9 note=54 velocity=95 time=0
EXTRACT: note_on channel=9 note=44 velocity=95 time=0
EXTRACT: note_off channel=0 note=68 velocity=95 time=0.19480499999999998
EXTRACT: note_off channel=0 note=65 velocity=95 time=0
EXTRACT: note_off channel=0 note=60 velocity=95 time=0
EXTRACT: note_off channel=0 note=53 velocity=95 time=0
EXTRACT: note_on channel=0 note=68 velocity=95 time=0
EXTRACT: note_on channel=0 note=65 velocity=95 time=0
EXTRACT: note_on channel=0 note=60 velocity=95 time=0
EXTRACT: note_on channel=0 note=53 velocity=95 time=0
EXTRACT: note_off channel=2 note=36 velocity=95 time=0
EXTRACT: note_on channel=2 note=36 velocity=95 time=0
EXTRACT: note_off channel=0 note=68 velocity=95 time=0.19480499999999998
EXTRACT: note_off channel=0 note=65 velocity=95 time=0
EXTRACT: note_off channel=0 note=60 velocity=95 time=0
EXTRACT: note_off channel=0 note=53 velocity=95 time=0
EXTRACT: note_on channel=0 note=59 velocity=95 time=0
EXTRACT: note_on channel=0 note=55 velocity=95 time=0
EXTRACT: note_on channel=0 note=50 velocity=95 time=0
EXTRACT: note_on channel=0 note=45 velocity=95 time=0
EXTRACT: note_off channel=2 note=36 velocity=95 time=0
EXTRACT: note_on channel=2 note=36 velocity=95 time=0
EXTRACT: note_off channel=9 note=38 velocity=95 time=0
EXTRACT: note_off channel=9 note=54 velocity=95 time=0
EXTRACT: note_off channel=9 note=44 velocity=95 time=0
EXTRACT: note_on channel=9 note=44 velocity=95 time=0
EXTRACT: note_off channel=0 note=59 velocity=95 time=0.030844124999999997
EXTRACT: note_off channel=0 note=55 velocity=95 time=0
EXTRACT: note_off channel=0 note=50 velocity=95 time=0
EXTRACT: note_off channel=0 note=45 velocity=95 time=0
EXTRACT: note_on channel=0 note=59 velocity=95 time=0.16396087499999998
EXTRACT: note_on channel=0 note=55 velocity=95 time=0
EXTRACT: note_on channel=0 note=50 velocity=95 time=0
EXTRACT: note_on channel=0 note=45 velocity=95 time=0
EXTRACT: note_off channel=2 note=36 velocity=95 time=0
EXTRACT: note_on channel=2 note=36 velocity=95 time=0
EXTRACT: note_off channel=9 note=44 velocity=95 time=0
EXTRACT: note_on channel=9 note=36 velocity=95 time=0
EXTRACT: note_off channel=0 note=59 velocity=95 time=0.030844124999999997
EXTRACT: note_off channel=0 note=55 velocity=95 time=0
EXTRACT: note_off channel=0 note=50 velocity=95 time=0
EXTRACT: note_off channel=0 note=45 velocity=95 time=0
EXTRACT: note_on channel=0 note=70 velocity=95 time=0.16396087499999998
EXTRACT: note_on channel=0 note=65 velocity=95 time=0
EXTRACT: note_on channel=0 note=61 velocity=95 time=0
EXTRACT: note_on channel=0 note=58 velocity=95 time=0
EXTRACT: note_on channel=0 note=53 velocity=95 time=0
EXTRACT: note_on channel=0 note=46 velocity=95 time=0
EXTRACT: note_off channel=2 note=36 velocity=95 time=0
EXTRACT: note_on channel=2 note=34 velocity=95 time=0
EXTRACT: note_off channel=9 note=36 velocity=95 time=0
EXTRACT: note_on channel=9 note=36 velocity=95 time=0
EXTRACT: note_on channel=9 note=44 velocity=95 time=0
EXTRACT: note_off channel=0 note=70 velocity=95 time=0.38960999999999996
EXTRACT: note_off channel=0 note=65 velocity=95 time=0
EXTRACT: note_off channel=0 note=61 velocity=95 time=0
EXTRACT: note_off channel=0 note=58 velocity=95 time=0
EXTRACT: note_off channel=0 note=53 velocity=95 time=0
EXTRACT: note_off channel=0 note=46 velocity=95 time=0
EXTRACT: note_on channel=0 note=70 velocity=95 time=0
EXTRACT: note_on channel=0 note=65 velocity=95 time=0
EXTRACT: note_on channel=0 note=61 velocity=95 time=0
EXTRACT: note_on channel=0 note=58 velocity=95 time=0
EXTRACT: note_on channel=0 note=53 velocity=95 time=0
EXTRACT: note_on channel=0 note=46 velocity=95 time=0
EXTRACT: note_off channel=2 note=34 velocity=95 time=0
EXTRACT: note_on channel=2 note=34 velocity=95 time=0
EXTRACT: note_off channel=9 note=36 velocity=95 time=0
EXTRACT: note_off channel=9 note=44 velocity=95 time=0
EXTRACT: note_on channel=9 note=44 velocity=95 time=0
EXTRACT: note_off channel=0 note=70 velocity=95 time=0.19480499999999998
EXTRACT: note_off channel=0 note=65 velocity=95 time=0
EXTRACT: note_off channel=0 note=61 velocity=95 time=0
EXTRACT: note_off channel=0 note=58 velocity=95 time=0
EXTRACT: note_off channel=0 note=53 velocity=95 time=0
EXTRACT: note_off channel=0 note=46 velocity=95 time=0
EXTRACT: note_on channel=0 note=70 velocity=95 time=0
EXTRACT: note_on channel=0 note=65 velocity=95 time=0
EXTRACT: note_on channel=0 note=61 velocity=95 time=0
EXTRACT: note_on channel=0 note=58 velocity=95 time=0
EXTRACT: note_on channel=0 note=53 velocity=95 time=0
EXTRACT: note_on channel=0 note=46 velocity=95 time=0
EXTRACT: note_off channel=9 note=44 velocity=95 time=0
EXTRACT: note_on channel=9 note=36 velocity=95 time=0
EXTRACT: note_off channel=0 note=70 velocity=95 time=0.19480499999999998
EXTRACT: note_off channel=0 note=65 velocity=95 time=0
EXTRACT: note_off channel=0 note=61 velocity=95 time=0
EXTRACT: note_off channel=0 note=58 velocity=95 time=0
EXTRACT: note_off channel=0 note=53 velocity=95 time=0
EXTRACT: note_off channel=0 note=46 velocity=95 time=0
EXTRACT: note_on channel=0 note=70 velocity=95 time=0
EXTRACT: note_on channel=0 note=65 velocity=95 time=0
EXTRACT: note_on channel=0 note=61 velocity=95 time=0
EXTRACT: note_on channel=0 note=58 velocity=95 time=0
EXTRACT: note_on channel=0 note=53 velocity=95 time=0
EXTRACT: note_on channel=0 note=46 velocity=95 time=0
EXTRACT: note_off channel=2 note=34 velocity=95 time=0
EXTRACT: note_on channel=2 note=29 velocity=95 time=0
EXTRACT: note_off channel=9 note=36 velocity=95 time=0
EXTRACT: note_on channel=9 note=38 velocity=95 time=0
EXTRACT: note_on channel=9 note=54 velocity=95 time=0
EXTRACT: note_on channel=9 note=44 velocity=95 time=0
EXTRACT: note_off channel=0 note=70 velocity=95 time=0.19480499999999998
EXTRACT: note_off channel=0 note=65 velocity=95 time=0
EXTRACT: note_off channel=0 note=61 velocity=95 time=0
EXTRACT: note_off channel=0 note=58 velocity=95 time=0
EXTRACT: note_off channel=0 note=53 velocity=95 time=0
EXTRACT: note_off channel=0 note=46 velocity=95 time=0
EXTRACT: note_on channel=0 note=70 velocity=95 time=0
EXTRACT: note_on channel=0 note=65 velocity=95 time=0
EXTRACT: note_on channel=0 note=61 velocity=95 time=0
EXTRACT: note_on channel=0 note=58 velocity=95 time=0
EXTRACT: note_on channel=0 note=53 velocity=95 time=0
EXTRACT: note_on channel=0 note=46 velocity=95 time=0
EXTRACT: note_off channel=0 note=70 velocity=95 time=0.19480499999999998
EXTRACT: note_off channel=0 note=65 velocity=95 time=0
EXTRACT: note_off channel=0 note=61 velocity=95 time=0
EXTRACT: note_off channel=0 note=58 velocity=95 time=0
EXTRACT: note_off channel=0 note=53 velocity=95 time=0
EXTRACT: note_off channel=0 note=46 velocity=95 time=0
EXTRACT: note_on channel=0 note=64 velocity=95 time=0
EXTRACT: note_on channel=0 note=59 velocity=95 time=0
EXTRACT: note_on channel=0 note=55 velocity=95 time=0
EXTRACT: note_on channel=0 note=50 velocity=95 time=0
EXTRACT: note_on channel=0 note=45 velocity=95 time=0
EXTRACT: note_on channel=0 note=40 velocity=95 time=0
EXTRACT: note_off channel=9 note=38 velocity=95 time=0
EXTRACT: note_off channel=9 note=54 velocity=95 time=0
EXTRACT: note_off channel=9 note=44 velocity=95 time=0
EXTRACT: note_on channel=9 note=44 velocity=95 time=0
EXTRACT: note_off channel=0 note=64 velocity=95 time=0.030844124999999997
EXTRACT: note_off channel=0 note=59 velocity=95 time=0
EXTRACT: note_off channel=0 note=55 velocity=95 time=0
EXTRACT: note_off channel=0 note=50 velocity=95 time=0
EXTRACT: note_off channel=0 note=45 velocity=95 time=0
EXTRACT: note_off channel=0 note=40 velocity=95 time=0
EXTRACT: note_on channel=0 note=64 velocity=95 time=0.16396087499999998
EXTRACT: note_on channel=0 note=59 velocity=95 time=0
EXTRACT: note_on channel=0 note=55 velocity=95 time=0
EXTRACT: note_on channel=0 note=50 velocity=95 time=0
EXTRACT: note_on channel=0 note=45 velocity=95 time=0
EXTRACT: note_on channel=0 note=40 velocity=95 time=0
EXTRACT: note_off channel=9 note=44 velocity=95 time=0
EXTRACT: note_off channel=0 note=64 velocity=95 time=0.030844124999999997
EXTRACT: note_off channel=0 note=59 velocity=95 time=0
EXTRACT: note_off channel=0 note=55 velocity=95 time=0
EXTRACT: note_off channel=0 note=50 velocity=95 time=0
EXTRACT: note_off channel=0 note=45 velocity=95 time=0
EXTRACT: note_off channel=0 note=40 velocity=95 time=0
EXTRACT: note_on channel=0 note=67 velocity=95 time=0.16396087499999998
EXTRACT: note_on channel=0 note=63 velocity=95 time=0
EXTRACT: note_on channel=0 note=58 velocity=95 time=0
EXTRACT: note_on channel=0 note=51 velocity=95 time=0
EXTRACT: note_off channel=2 note=29 velocity=95 time=0
EXTRACT: note_on channel=2 note=39 velocity=95 time=0
EXTRACT: note_on channel=9 note=36 velocity=95 time=0
EXTRACT: note_on channel=9 note=44 velocity=95 time=0
EXTRACT: note_off channel=0 note=67 velocity=95 time=0.38960999999999996
EXTRACT: note_off channel=0 note=63 velocity=95 time=0
EXTRACT: note_off channel=0 note=58 velocity=95 time=0
EXTRACT: note_off channel=0 note=51 velocity=95 time=0
EXTRACT: note_on channel=0 note=67 velocity=95 time=0
EXTRACT: note_on channel=0 note=63 velocity=95 time=0
EXTRACT: note_on channel=0 note=58 velocity=95 time=0
EXTRACT: note_on channel=0 note=51 velocity=95 time=0
EXTRACT: note_off channel=2 note=39 velocity=95 time=0
EXTRACT: note_on channel=2 note=46 velocity=95 time=0
EXTRACT: note_off channel=9 note=36 velocity=95 time=0
EXTRACT: note_off channel=9 note=44 velocity=95 time=0
EXTRACT: note_on channel=9 note=44 velocity=95 time=0
EXTRACT: note_off channel=0 note=67 velocity=95 time=0.19480499999999998
EXTRACT: note_off channel=0 note=63 velocity=95 time=0
EXTRACT: note_off channel=0 note=58 velocity=95 time=0
EXTRACT: note_off channel=0 note=51 velocity=95 time=0
EXTRACT: note_on channel=0 note=67 velocity=95 time=0
EXTRACT: note_on channel=0 note=63 velocity=95 time=0
EXTRACT: note_on channel=0 note=58 velocity=95 time=0
EXTRACT: note_on channel=0 note=51 velocity=95 time=0
EXTRACT: note_off channel=2 note=46 velocity=95 time=0
EXTRACT: note_on channel=2 note=46 velocity=95 time=0
EXTRACT: note_off channel=9 note=44 velocity=95 time=0
EXTRACT: note_on channel=9 note=36 velocity=95 time=0
EXTRACT: note_off channel=0 note=67 velocity=95 time=0.19480499999999998
EXTRACT: note_off channel=0 note=63 velocity=95 time=0
EXTRACT: note_off channel=0 note=58 velocity=95 time=0
EXTRACT: note_off channel=0 note=51 velocity=95 time=0
EXTRACT: note_on channel=0 note=67 velocity=95 time=0
EXTRACT: note_on channel=0 note=63 velocity=95 time=0
EXTRACT: note_on channel=0 note=58 velocity=95 time=0
EXTRACT: note_on channel=0 note=51 velocity=95 time=0
EXTRACT: note_off channel=2 note=46 velocity=95 time=0
EXTRACT: note_on channel=2 note=46 velocity=95 time=0
EXTRACT: note_off channel=9 note=36 velocity=95 time=0
EXTRACT: note_on channel=9 note=38 velocity=95 time=0
EXTRACT: note_on channel=9 note=54 velocity=95 time=0
EXTRACT: note_on channel=9 note=44 velocity=95 time=0
EXTRACT: note_off channel=0 note=67 velocity=95 time=0.19480499999999998
EXTRACT: note_off channel=0 note=63 velocity=95 time=0
EXTRACT: note_off channel=0 note=58 velocity=95 time=0
EXTRACT: note_off channel=0 note=51 velocity=95 time=0
EXTRACT: note_on channel=0 note=67 velocity=95 time=0
EXTRACT: note_on channel=0 note=63 velocity=95 time=0
EXTRACT: note_on channel=0 note=58 velocity=95 time=0
EXTRACT: note_on channel=0 note=51 velocity=95 time=0
EXTRACT: note_off channel=2 note=46 velocity=95 time=0
EXTRACT: note_on channel=2 note=46 velocity=95 time=0
EXTRACT: note_off channel=0 note=67 velocity=95 time=0.19480499999999998
EXTRACT: note_off channel=0 note=63 velocity=95 time=0
EXTRACT: note_off channel=0 note=58 velocity=95 time=0
EXTRACT: note_off channel=0 note=51 velocity=95 time=0
EXTRACT: note_on channel=0 note=59 velocity=95 time=0
EXTRACT: note_on channel=0 note=55 velocity=95 time=0
EXTRACT: note_on channel=0 note=50 velocity=95 time=0
EXTRACT: note_on channel=0 note=45 velocity=95 time=0
EXTRACT: note_off channel=2 note=46 velocity=95 time=0
EXTRACT: note_on channel=2 note=34 velocity=95 time=0
EXTRACT: note_off channel=9 note=38 velocity=95 time=0
EXTRACT: note_off channel=9 note=54 velocity=95 time=0
EXTRACT: note_off channel=9 note=44 velocity=95 time=0
EXTRACT: note_on channel=9 note=44 velocity=95 time=0
EXTRACT: note_off channel=0 note=59 velocity=95 time=0.030844124999999997
EXTRACT: note_off channel=0 note=55 velocity=95 time=0
EXTRACT: note_off channel=0 note=50 velocity=95 time=0
EXTRACT: note_off channel=0 note=45 velocity=95 time=0
EXTRACT: note_on channel=0 note=59 velocity=95 time=0.16396087499999998
EXTRACT: note_on channel=0 note=55 velocity=95 time=0
EXTRACT: note_on channel=0 note=50 velocity=95 time=0
EXTRACT: note_on channel=0 note=45 velocity=95 time=0
EXTRACT: note_off channel=2 note=34 velocity=95 time=0
EXTRACT: note_on channel=2 note=35 velocity=95 time=0
EXTRACT: note_off channel=9 note=44 velocity=95 time=0
EXTRACT: note_on channel=9 note=36 velocity=95 time=0
EXTRACT: note_off channel=0 note=59 velocity=95 time=0.030844124999999997
EXTRACT: note_off channel=0 note=55 velocity=95 time=0
EXTRACT: note_off channel=0 note=50 velocity=95 time=0
EXTRACT: note_off channel=0 note=45 velocity=95 time=0
EXTRACT: note_on channel=0 note=72 velocity=95 time=0.16396087499999998
EXTRACT: note_on channel=0 note=67 velocity=95 time=0
EXTRACT: note_on channel=0 note=64 velocity=95 time=0
EXTRACT: note_on channel=0 note=60 velocity=95 time=0
EXTRACT: note_on channel=0 note=55 velocity=95 time=0
EXTRACT: note_on channel=0 note=48 velocity=95 time=0
EXTRACT: note_off channel=2 note=35 velocity=95 time=0
EXTRACT: note_on channel=2 note=36 velocity=95 time=0
EXTRACT: note_off channel=9 note=36 velocity=95 time=0
EXTRACT: note_on channel=9 note=36 velocity=95 time=0
EXTRACT: note_on channel=9 note=44 velocity=95 time=0
EXTRACT: note_off channel=0 note=72 velocity=95 time=0.38960999999999996
EXTRACT: note_off channel=0 note=67 velocity=95 time=0
EXTRACT: note_off channel=0 note=64 velocity=95 time=0
EXTRACT: note_off channel=0 note=60 velocity=95 time=0
EXTRACT: note_off channel=0 note=55 velocity=95 time=0
EXTRACT: note_off channel=0 note=48 velocity=95 time=0
EXTRACT: note_on channel=0 note=72 velocity=95 time=0
EXTRACT: note_on channel=0 note=67 velocity=95 time=0
EXTRACT: note_on channel=0 note=64 velocity=95 time=0
EXTRACT: note_on channel=0 note=60 velocity=95 time=0
EXTRACT: note_on channel=0 note=55 velocity=95 time=0
EXTRACT: note_on channel=0 note=48 velocity=95 time=0
EXTRACT: note_off channel=2 note=36 velocity=95 time=0
EXTRACT: note_on channel=2 note=36 velocity=95 time=0
EXTRACT: note_off channel=9 note=36 velocity=95 time=0
EXTRACT: note_off channel=9 note=44 velocity=95 time=0
EXTRACT: note_on channel=9 note=44 velocity=95 time=0
EXTRACT: note_off channel=0 note=72 velocity=95 time=0.19480499999999998
EXTRACT: note_off channel=0 note=67 velocity=95 time=0
EXTRACT: note_off channel=0 note=64 velocity=95 time=0
EXTRACT: note_off channel=0 note=60 velocity=95 time=0
EXTRACT: note_off channel=0 note=55 velocity=95 time=0
EXTRACT: note_off channel=0 note=48 velocity=95 time=0
EXTRACT: note_on channel=0 note=72 velocity=95 time=0
EXTRACT: note_on channel=0 note=67 velocity=95 time=0
EXTRACT: note_on channel=0 note=64 velocity=95 time=0
EXTRACT: note_on channel=0 note=60 velocity=95 time=0
EXTRACT: note_on channel=0 note=55 velocity=95 time=0
EXTRACT: note_on channel=0 note=48 velocity=95 time=0
EXTRACT: note_off channel=9 note=44 velocity=95 time=0
EXTRACT: note_on channel=9 note=36 velocity=95 time=0
EXTRACT: note_off channel=0 note=72 velocity=95 time=0.19480499999999998
EXTRACT: note_off channel=0 note=67 velocity=95 time=0
EXTRACT: note_off channel=0 note=64 velocity=95 time=0
EXTRACT: note_off channel=0 note=60 velocity=95 time=0
EXTRACT: note_off channel=0 note=55 velocity=95 time=0
EXTRACT: note_off channel=0 note=48 velocity=95 time=0
EXTRACT: note_on channel=0 note=72 velocity=95 time=0
EXTRACT: note_on channel=0 note=67 velocity=95 time=0
EXTRACT: note_on channel=0 note=64 velocity=95 time=0
EXTRACT: note_on channel=0 note=60 velocity=95 time=0
EXTRACT: note_on channel=0 note=55 velocity=95 time=0
EXTRACT: note_on channel=0 note=48 velocity=95 time=0
EXTRACT: note_off channel=2 note=36 velocity=95 time=0
EXTRACT: note_on channel=2 note=31 velocity=95 time=0
EXTRACT: note_off channel=9 note=36 velocity=95 time=0
EXTRACT: note_on channel=9 note=38 velocity=95 time=0
EXTRACT: note_on channel=9 note=54 velocity=95 time=0
EXTRACT: note_on channel=9 note=44 velocity=95 time=0
EXTRACT: note_off channel=0 note=72 velocity=95 time=0.19480499999999998
EXTRACT: note_off channel=0 note=67 velocity=95 time=0
EXTRACT: note_off channel=0 note=64 velocity=95 time=0
EXTRACT: note_off channel=0 note=60 velocity=95 time=0
EXTRACT: note_off channel=0 note=55 velocity=95 time=0
EXTRACT: note_off channel=0 note=48 velocity=95 time=0
EXTRACT: note_on channel=0 note=72 velocity=95 time=0
EXTRACT: note_on channel=0 note=67 velocity=95 time=0
EXTRACT: note_on channel=0 note=64 velocity=95 time=0
EXTRACT: note_on channel=0 note=60 velocity=95 time=0
EXTRACT: note_on channel=0 note=55 velocity=95 time=0
EXTRACT: note_on channel=0 note=48 velocity=95 time=0
EXTRACT: note_off channel=0 note=72 velocity=95 time=0.19480499999999998
EXTRACT: note_off channel=0 note=67 velocity=95 time=0
EXTRACT: note_off channel=0 note=64 velocity=95 time=0
EXTRACT: note_off channel=0 note=60 velocity=95 time=0
EXTRACT: note_off channel=0 note=55 velocity=95 time=0
EXTRACT: note_off channel=0 note=48 velocity=95 time=0
EXTRACT: note_on channel=0 note=64 velocity=95 time=0
EXTRACT: note_on channel=0 note=59 velocity=95 time=0
EXTRACT: note_on channel=0 note=55 velocity=95 time=0
EXTRACT: note_on channel=0 note=50 velocity=95 time=0
EXTRACT: note_on channel=0 note=45 velocity=95 time=0
EXTRACT: note_on channel=0 note=40 velocity=95 time=0
EXTRACT: note_off channel=2 note=31 velocity=95 time=0
EXTRACT: note_on channel=2 note=36 velocity=95 time=0
EXTRACT: note_off channel=9 note=38 velocity=95 time=0
EXTRACT: note_off channel=9 note=54 velocity=95 time=0
EXTRACT: note_off channel=9 note=44 velocity=95 time=0
EXTRACT: note_on channel=9 note=44 velocity=95 time=0
EXTRACT: note_off channel=0 note=64 velocity=95 time=0.030844124999999997
EXTRACT: note_off channel=0 note=59 velocity=95 time=0
EXTRACT: note_off channel=0 note=55 velocity=95 time=0
EXTRACT: note_off channel=0 note=50 velocity=95 time=0
EXTRACT: note_off channel=0 note=45 velocity=95 time=0
EXTRACT: note_off channel=0 note=40 velocity=95 time=0
EXTRACT: note_on channel=0 note=64 velocity=95 time=0.16396087499999998
EXTRACT: note_on channel=0 note=59 velocity=95 time=0
EXTRACT: note_on channel=0 note=55 velocity=95 time=0
EXTRACT: note_on channel=0 note=50 velocity=95 time=0
EXTRACT: note_on channel=0 note=45 velocity=95 time=0
EXTRACT: note_on channel=0 note=40 velocity=95 time=0
EXTRACT: note_off channel=2 note=36 velocity=95 time=0
EXTRACT: note_on channel=2 note=35 velocity=95 time=0
EXTRACT: note_off channel=9 note=44 velocity=95 time=0
EXTRACT: note_off channel=0 note=64 velocity=95 time=0.030844124999999997
EXTRACT: note_off channel=0 note=59 velocity=95 time=0
EXTRACT: note_off channel=0 note=55 velocity=95 time=0
EXTRACT: note_off channel=0 note=50 velocity=95 time=0
EXTRACT: note_off channel=0 note=45 velocity=95 time=0
EXTRACT: note_off channel=0 note=40 velocity=95 time=0
EXTRACT: note_on channel=0 note=70 velocity=95 time=0.16396087499999998
EXTRACT: note_on channel=0 note=65 velocity=95 time=0
EXTRACT: note_on channel=0 note=61 velocity=95 time=0
EXTRACT: note_on channel=0 note=58 velocity=95 time=0
EXTRACT: note_on channel=0 note=53 velocity=95 time=0
EXTRACT: note_on channel=0 note=46 velocity=95 time=0
EXTRACT: note_off channel=2 note=35 velocity=95 time=0
EXTRACT: note_on channel=2 note=34 velocity=95 time=0
EXTRACT: note_on channel=9 note=36 velocity=95 time=0
EXTRACT: note_on channel=9 note=44 velocity=95 time=0
EXTRACT: note_off channel=0 note=70 velocity=95 time=0.38960999999999996
EXTRACT: note_off channel=0 note=65 velocity=95 time=0
EXTRACT: note_off channel=0 note=61 velocity=95 time=0
EXTRACT: note_off channel=0 note=58 velocity=95 time=0
EXTRACT: note_off channel=0 note=53 velocity=95 time=0
EXTRACT: note_off channel=0 note=46 velocity=95 time=0
EXTRACT: note_on channel=0 note=70 velocity=95 time=0
EXTRACT: note_on channel=0 note=65 velocity=95 time=0
EXTRACT: note_on channel=0 note=61 velocity=95 time=0
EXTRACT: note_on channel=0 note=58 velocity=95 time=0
EXTRACT: note_on channel=0 note=53 velocity=95 time=0
EXTRACT: note_on channel=0 note=46 velocity=95 time=0
EXTRACT: note_off channel=2 note=34 velocity=95 time=0
EXTRACT: note_on channel=2 note=41 velocity=95 time=0
EXTRACT: note_off channel=9 note=36 velocity=95 time=0
EXTRACT: note_off channel=9 note=44 velocity=95 time=0
EXTRACT: note_on channel=9 note=44 velocity=95 time=0
EXTRACT: note_off channel=0 note=70 velocity=95 time=0.19480499999999998
EXTRACT: note_off channel=0 note=65 velocity=95 time=0
EXTRACT: note_off channel=0 note=61 velocity=95 time=0
EXTRACT: note_off channel=0 note=58 velocity=95 time=0
EXTRACT: note_off channel=0 note=53 velocity=95 time=0
EXTRACT: note_off channel=0 note=46 velocity=95 time=0
EXTRACT: note_on channel=0 note=70 velocity=95 time=0
EXTRACT: note_on channel=0 note=65 velocity=95 time=0
EXTRACT: note_on channel=0 note=61 velocity=95 time=0
EXTRACT: note_on channel=0 note=58 velocity=95 time=0
EXTRACT: note_on channel=0 note=53 velocity=95 time=0
EXTRACT: note_on channel=0 note=46 velocity=95 time=0
EXTRACT: note_off channel=2 note=41 velocity=95 time=0
EXTRACT: note_on channel=2 note=41 velocity=95 time=0
EXTRACT: note_off channel=9 note=44 velocity=95 time=0
EXTRACT: note_on channel=9 note=36 velocity=95 time=0
EXTRACT: note_off channel=0 note=70 velocity=95 time=0.19480499999999998
EXTRACT: note_off channel=0 note=65 velocity=95 time=0
EXTRACT: note_off channel=0 note=61 velocity=95 time=0
EXTRACT: note_off channel=0 note=58 velocity=95 time=0
EXTRACT: note_off channel=0 note=53 velocity=95 time=0
EXTRACT: note_off channel=0 note=46 velocity=95 time=0
EXTRACT: note_on channel=0 note=70 velocity=95 time=0
EXTRACT: note_on channel=0 note=65 velocity=95 time=0
EXTRACT: note_on channel=0 note=61 velocity=95 time=0
EXTRACT: note_on channel=0 note=58 velocity=95 time=0
EXTRACT: note_on channel=0 note=53 velocity=95 time=0
EXTRACT: note_on channel=0 note=46 velocity=95 time=0
EXTRACT: note_off channel=2 note=41 velocity=95 time=0
EXTRACT: note_on channel=2 note=41 velocity=95 time=0
EXTRACT: note_off channel=9 note=36 velocity=95 time=0
EXTRACT: note_on channel=9 note=38 velocity=95 time=0
EXTRACT: note_on channel=9 note=54 velocity=95 time=0
EXTRACT: note_on channel=9 note=44 velocity=95 time=0
EXTRACT: note_off channel=0 note=70 velocity=95 time=0.19480499999999998
EXTRACT: note_off channel=0 note=65 velocity=95 time=0
EXTRACT: note_off channel=0 note=61 velocity=95 time=0
EXTRACT: note_off channel=0 note=58 velocity=95 time=0
EXTRACT: note_off channel=0 note=53 velocity=95 time=0
EXTRACT: note_off channel=0 note=46 velocity=95 time=0
EXTRACT: note_on channel=0 note=70 velocity=95 time=0
EXTRACT: note_on channel=0 note=65 velocity=95 time=0
EXTRACT: note_on channel=0 note=61 velocity=95 time=0
EXTRACT: note_on channel=0 note=58 velocity=95 time=0
EXTRACT: note_on channel=0 note=53 velocity=95 time=0
EXTRACT: note_on channel=0 note=46 velocity=95 time=0
EXTRACT: note_off channel=2 note=41 velocity=95 time=0
EXTRACT: note_on channel=2 note=41 velocity=95 time=0
EXTRACT: note_off channel=0 note=70 velocity=95 time=0.19480499999999998
EXTRACT: note_off channel=0 note=65 velocity=95 time=0
EXTRACT: note_off channel=0 note=61 velocity=95 time=0
EXTRACT: note_off channel=0 note=58 velocity=95 time=0
EXTRACT: note_off channel=0 note=53 velocity=95 time=0
EXTRACT: note_off channel=0 note=46 velocity=95 time=0
EXTRACT: note_on channel=0 note=64 velocity=95 time=0
EXTRACT: note_on channel=0 note=59 velocity=95 time=0
EXTRACT: note_on channel=0 note=55 velocity=95 time=0
EXTRACT: note_on channel=0 note=50 velocity=95 time=0
EXTRACT: note_on channel=0 note=45 velocity=95 time=0
EXTRACT: note_on channel=0 note=40 velocity=95 time=0
EXTRACT: note_off channel=2 note=41 velocity=95 time=0
EXTRACT: note_on channel=2 note=34 velocity=95 time=0
EXTRACT: note_off channel=9 note=38 velocity=95 time=0
EXTRACT: note_off channel=9 note=54 velocity=95 time=0
EXTRACT: note_off channel=9 note=44 velocity=95 time=0
EXTRACT: note_on channel=9 note=44 velocity=95 time=0
EXTRACT: note_off channel=0 note=64 velocity=95 time=0.030844124999999997
EXTRACT: note_off channel=0 note=59 velocity=95 time=0
EXTRACT: note_off channel=0 note=55 velocity=95 time=0
EXTRACT: note_off channel=0 note=50 velocity=95 time=0
EXTRACT: note_off channel=0 note=45 velocity=95 time=0
EXTRACT: note_off channel=0 note=40 velocity=95 time=0
EXTRACT: note_on channel=0 note=64 velocity=95 time=0.16396087499999998
EXTRACT: note_on channel=0 note=59 velocity=95 time=0
EXTRACT: note_on channel=0 note=55 velocity=95 time=0
EXTRACT: note_on channel=0 note=50 velocity=95 time=0
EXTRACT: note_on channel=0 note=45 velocity=95 time=0
EXTRACT: note_on channel=0 note=40 velocity=95 time=0
EXTRACT: note_off channel=2 note=34 velocity=95 time=0
EXTRACT: note_on channel=2 note=35 velocity=95 time=0
EXTRACT: note_off channel=9 note=44 velocity=95 time=0
EXTRACT: note_on channel=9 note=36 velocity=95 time=0
EXTRACT: note_off channel=0 note=64 velocity=95 time=0.030844124999999997
EXTRACT: note_off channel=0 note=59 velocity=95 time=0
EXTRACT: note_off channel=0 note=55 velocity=95 time=0
EXTRACT: note_off channel=0 note=50 velocity=95 time=0
EXTRACT: note_off channel=0 note=45 velocity=95 time=0
EXTRACT: note_off channel=0 note=40 velocity=95 time=0
EXTRACT: note_on channel=0 note=72 velocity=95 time=0.16396087499999998
EXTRACT: note_on channel=0 note=67 velocity=95 time=0
EXTRACT: note_on channel=0 note=64 velocity=95 time=0
EXTRACT: note_on channel=0 note=60 velocity=95 time=0
EXTRACT: note_on channel=0 note=55 velocity=95 time=0
EXTRACT: note_on channel=0 note=48 velocity=95 time=0
EXTRACT: note_off channel=2 note=35 velocity=95 time=0
EXTRACT: note_on channel=2 note=36 velocity=95 time=0
EXTRACT: note_off channel=9 note=36 velocity=95 time=0
EXTRACT: note_on channel=9 note=36 velocity=95 time=0
EXTRACT: note_on channel=9 note=44 velocity=95 time=0
EXTRACT: note_off channel=0 note=72 velocity=95 time=0.38960999999999996
EXTRACT: note_off channel=0 note=67 velocity=95 time=0
EXTRACT: note_off channel=0 note=64 velocity=95 time=0
EXTRACT: note_off channel=0 note=60 velocity=95 time=0
EXTRACT: note_off channel=0 note=55 velocity=95 time=0
EXTRACT: note_off channel=0 note=48 velocity=95 time=0
EXTRACT: note_on channel=0 note=64 velocity=95 time=0
EXTRACT: note_on channel=0 note=59 velocity=95 time=0
EXTRACT: note_on channel=0 note=55 velocity=95 time=0
EXTRACT: note_on channel=0 note=50 velocity=95 time=0
EXTRACT: note_on channel=0 note=45 velocity=95 time=0
EXTRACT: note_on channel=0 note=40 velocity=95 time=0
EXTRACT: note_off channel=2 note=36 velocity=95 time=0
EXTRACT: note_off channel=9 note=36 velocity=95 time=0
EXTRACT: note_off channel=9 note=44 velocity=95 time=0
EXTRACT: note_on channel=9 note=44 velocity=95 time=0
EXTRACT: note_off channel=0 note=64 velocity=95 time=0.030844124999999997
EXTRACT: note_off channel=0 note=59 velocity=95 time=0
EXTRACT: note_off channel=0 note=55 velocity=95 time=0
EXTRACT: note_off channel=0 note=50 velocity=95 time=0
EXTRACT: note_off channel=0 note=45 velocity=95 time=0
EXTRACT: note_off channel=0 note=40 velocity=95 time=0
EXTRACT: note_on channel=0 note=72 velocity=95 time=0.16396087499999998
EXTRACT: note_on channel=0 note=67 velocity=95 time=0
EXTRACT: note_on channel=0 note=64 velocity=95 time=0
EXTRACT: note_on channel=0 note=60 velocity=95 time=0
EXTRACT: note_on channel=0 note=55 velocity=95 time=0
EXTRACT: note_on channel=0 note=48 velocity=95 time=0
EXTRACT: note_on channel=2 note=43 velocity=95 time=0
EXTRACT: note_off channel=9 note=44 velocity=95 time=0
EXTRACT: note_on channel=9 note=36 velocity=95 time=0
EXTRACT: note_off channel=0 note=72 velocity=95 time=0.19480499999999998
EXTRACT: note_off channel=0 note=67 velocity=95 time=0
EXTRACT: note_off channel=0 note=64 velocity=95 time=0
EXTRACT: note_off channel=0 note=60 velocity=95 time=0
EXTRACT: note_off channel=0 note=55 velocity=95 time=0
EXTRACT: note_off channel=0 note=48 velocity=95 time=0
EXTRACT: note_on channel=0 note=72 velocity=95 time=0
EXTRACT: note_on channel=0 note=67 velocity=95 time=0
EXTRACT: note_on channel=0 note=64 velocity=95 time=0
EXTRACT: note_on channel=0 note=60 velocity=95 time=0
EXTRACT: note_on channel=0 note=55 velocity=95 time=0
EXTRACT: note_on channel=0 note=48 velocity=95 time=0
EXTRACT: note_off channel=2 note=43 velocity=95 time=0
EXTRACT: note_on channel=2 note=43 velocity=95 time=0
EXTRACT: note_off channel=9 note=36 velocity=95 time=0
EXTRACT: note_on channel=9 note=38 velocity=95 time=0
EXTRACT: note_on channel=9 note=54 velocity=95 time=0
EXTRACT: note_on channel=9 note=44 velocity=95 time=0
EXTRACT: note_off channel=0 note=72 velocity=95 time=0.19480499999999998
EXTRACT: note_off channel=0 note=67 velocity=95 time=0
EXTRACT: note_off channel=0 note=64 velocity=95 time=0
EXTRACT: note_off channel=0 note=60 velocity=95 time=0
EXTRACT: note_off channel=0 note=55 velocity=95 time=0
EXTRACT: note_off channel=0 note=48 velocity=95 time=0
EXTRACT: note_on channel=0 note=72 velocity=95 time=0
EXTRACT: note_on channel=0 note=67 velocity=95 time=0
EXTRACT: note_on channel=0 note=64 velocity=95 time=0
EXTRACT: note_on channel=0 note=60 velocity=95 time=0
EXTRACT: note_on channel=0 note=55 velocity=95 time=0
EXTRACT: note_on channel=0 note=48 velocity=95 time=0
EXTRACT: note_off channel=2 note=43 velocity=95 time=0
EXTRACT: note_on channel=2 note=43 velocity=95 time=0
EXTRACT: note_off channel=0 note=72 velocity=95 time=0.19480499999999998
EXTRACT: note_off channel=0 note=67 velocity=95 time=0
EXTRACT: note_off channel=0 note=64 velocity=95 time=0
EXTRACT: note_off channel=0 note=60 velocity=95 time=0
EXTRACT: note_off channel=0 note=55 velocity=95 time=0
EXTRACT: note_off channel=0 note=48 velocity=95 time=0
EXTRACT: note_on channel=0 note=64 velocity=95 time=0
EXTRACT: note_on channel=0 note=59 velocity=95 time=0
EXTRACT: note_on channel=0 note=55 velocity=95 time=0
EXTRACT: note_on channel=0 note=50 velocity=95 time=0
EXTRACT: note_on channel=0 note=45 velocity=95 time=0
EXTRACT: note_on channel=0 note=40 velocity=95 time=0
EXTRACT: note_off channel=2 note=43 velocity=95 time=0
EXTRACT: note_on channel=2 note=43 velocity=95 time=0
EXTRACT: note_off channel=9 note=38 velocity=95 time=0
EXTRACT: note_off channel=9 note=54 velocity=95 time=0
EXTRACT: note_off channel=9 note=44 velocity=95 time=0
EXTRACT: note_on channel=9 note=44 velocity=95 time=0
EXTRACT: note_off channel=0 note=64 velocity=95 time=0.030844124999999997
EXTRACT: note_off channel=0 note=59 velocity=95 time=0
EXTRACT: note_off channel=0 note=55 velocity=95 time=0
EXTRACT: note_off channel=0 note=50 velocity=95 time=0
EXTRACT: note_off channel=0 note=45 velocity=95 time=0
EXTRACT: note_off channel=0 note=40 velocity=95 time=0
EXTRACT: note_on channel=0 note=64 velocity=95 time=0.16396087499999998
EXTRACT: note_on channel=0 note=59 velocity=95 time=0
EXTRACT: note_on channel=0 note=55 velocity=95 time=0
EXTRACT: note_on channel=0 note=50 velocity=95 time=0
EXTRACT: note_on channel=0 note=45 velocity=95 time=0
EXTRACT: note_on channel=0 note=40 velocity=95 time=0
EXTRACT: note_off channel=9 note=44 velocity=95 time=0
EXTRACT: note_off channel=0 note=64 velocity=95 time=0.030844124999999997
EXTRACT: note_off channel=0 note=59 velocity=95 time=0
EXTRACT: note_off channel=0 note=55 velocity=95 time=0
EXTRACT: note_off channel=0 note=50 velocity=95 time=0
EXTRACT: note_off channel=0 note=45 velocity=95 time=0
EXTRACT: note_off channel=0 note=40 velocity=95 time=0
EXTRACT: note_on channel=0 note=68 velocity=95 time=0.16396087499999998
EXTRACT: note_on channel=0 note=65 velocity=95 time=0
EXTRACT: note_on channel=0 note=60 velocity=95 time=0
EXTRACT: note_on channel=0 note=53 velocity=95 time=0
EXTRACT: note_off channel=2 note=43 velocity=95 time=0
EXTRACT: note_on channel=2 note=29 velocity=95 time=0
EXTRACT: note_on channel=9 note=36 velocity=95 time=0
EXTRACT: note_on channel=9 note=44 velocity=95 time=0
EXTRACT: note_off channel=0 note=68 velocity=95 time=0.38960999999999996
EXTRACT: note_off channel=0 note=65 velocity=95 time=0
EXTRACT: note_off channel=0 note=60 velocity=95 time=0
EXTRACT: note_off channel=0 note=53 velocity=95 time=0
EXTRACT: note_on channel=0 note=68 velocity=95 time=0
EXTRACT: note_on channel=0 note=65 velocity=95 time=0
EXTRACT: note_on channel=0 note=60 velocity=95 time=0
EXTRACT: note_on channel=0 note=53 velocity=95 time=0
EXTRACT: note_off channel=9 note=36 velocity=95 time=0
EXTRACT: note_off channel=9 note=44 velocity=95 time=0
EXTRACT: note_on channel=9 note=44 velocity=95 time=0
EXTRACT: note_off channel=0 note=68 velocity=95 time=0.19480499999999998
EXTRACT: note_off channel=0 note=65 velocity=95 time=0
EXTRACT: note_off channel=0 note=60 velocity=95 time=0
EXTRACT: note_off channel=0 note=53 velocity=95 time=0
EXTRACT: note_on channel=0 note=68 velocity=95 time=0
EXTRACT: note_on channel=0 note=65 velocity=95 time=0
EXTRACT: note_on channel=0 note=60 velocity=95 time=0
EXTRACT: note_on channel=0 note=53 velocity=95 time=0
EXTRACT: note_off channel=2 note=29 velocity=95 time=0
EXTRACT: note_on channel=2 note=36 velocity=95 time=0
EXTRACT: note_off channel=9 note=44 velocity=95 time=0
EXTRACT: note_on channel=9 note=36 velocity=95 time=0
EXTRACT: note_off channel=0 note=68 velocity=95 time=0.19480499999999998
EXTRACT: note_off channel=0 note=65 velocity=95 time=0
EXTRACT: note_off channel=0 note=60 velocity=95 time=0
EXTRACT: note_off channel=0 note=53 velocity=95 time=0
EXTRACT: note_on channel=0 note=68 velocity=95 time=0
EXTRACT: note_on channel=0 note=65 velocity=95 time=0
EXTRACT: note_on channel=0 note=60 velocity=95 time=0
EXTRACT: note_on channel=0 note=53 velocity=95 time=0
EXTRACT: note_off channel=2 note=36 velocity=95 time=0
EXTRACT: note_on channel=2 note=36 velocity=95 time=0
EXTRACT: note_off channel=9 note=36 velocity=95 time=0
EXTRACT: note_on channel=9 note=38 velocity=95 time=0
EXTRACT: note_on channel=9 note=54 velocity=95 time=0
EXTRACT: note_on channel=9 note=44 velocity=95 time=0
EXTRACT: note_off channel=0 note=68 velocity=95 time=0.19480499999999998
EXTRACT: note_off channel=0 note=65 velocity=95 time=0
EXTRACT: note_off channel=0 note=60 velocity=95 time=0
EXTRACT: note_off channel=0 note=53 velocity=95 time=0
EXTRACT: note_on channel=0 note=68 velocity=95 time=0
EXTRACT: note_on channel=0 note=65 velocity=95 time=0
EXTRACT: note_on channel=0 note=60 velocity=95 time=0
EXTRACT: note_on channel=0 note=53 velocity=95 time=0
EXTRACT: note_off channel=2 note=36 velocity=95 time=0
EXTRACT: note_on channel=2 note=36 velocity=95 time=0
EXTRACT: note_off channel=0 note=68 velocity=95 time=0.19480499999999998
EXTRACT: note_off channel=0 note=65 velocity=95 time=0
EXTRACT: note_off channel=0 note=60 velocity=95 time=0
EXTRACT: note_off channel=0 note=53 velocity=95 time=0
EXTRACT: note_on channel=0 note=59 velocity=95 time=0
EXTRACT: note_on channel=0 note=55 velocity=95 time=0
EXTRACT: note_on channel=0 note=50 velocity=95 time=0
EXTRACT: note_on channel=0 note=45 velocity=95 time=0
EXTRACT: note_off channel=9 note=38 velocity=95 time=0
EXTRACT: note_off channel=9 note=54 velocity=95 time=0
EXTRACT: note_off channel=9 note=44 velocity=95 time=0
EXTRACT: note_on channel=9 note=44 velocity=95 time=0
EXTRACT: note_off channel=0 note=59 velocity=95 time=0.030844124999999997
EXTRACT: note_off channel=0 note=55 velocity=95 time=0
EXTRACT: note_off channel=0 note=50 velocity=95 time=0
EXTRACT: note_off channel=0 note=45 velocity=95 time=0
EXTRACT: note_on channel=0 note=59 velocity=95 time=0.16396087499999998
EXTRACT: note_on channel=0 note=55 velocity=95 time=0
EXTRACT: note_on channel=0 note=50 velocity=95 time=0
EXTRACT: note_on channel=0 note=45 velocity=95 time=0
EXTRACT: note_off channel=2 note=36 velocity=95 time=0
EXTRACT: note_on channel=2 note=36 velocity=95 time=0
EXTRACT: note_off channel=9 note=44 velocity=95 time=0
EXTRACT: note_on channel=9 note=36 velocity=95 time=0
EXTRACT: note_off channel=0 note=59 velocity=95 time=0.030844124999999997
EXTRACT: note_off channel=0 note=55 velocity=95 time=0
EXTRACT: note_off channel=0 note=50 velocity=95 time=0
EXTRACT: note_off channel=0 note=45 velocity=95 time=0
EXTRACT: note_on channel=0 note=70 velocity=95 time=0.16396087499999998
EXTRACT: note_on channel=0 note=65 velocity=95 time=0
EXTRACT: note_on channel=0 note=61 velocity=95 time=0
EXTRACT: note_on channel=0 note=58 velocity=95 time=0
EXTRACT: note_on channel=0 note=53 velocity=95 time=0
EXTRACT: note_on channel=0 note=46 velocity=95 time=0
EXTRACT: note_off channel=2 note=36 velocity=95 time=0
EXTRACT: note_on channel=2 note=34 velocity=95 time=0
EXTRACT: note_off channel=9 note=36 velocity=95 time=0
EXTRACT: note_on channel=9 note=36 velocity=95 time=0
EXTRACT: note_on channel=9 note=44 velocity=95 time=0
EXTRACT: note_off channel=0 note=70 velocity=95 time=0.38960999999999996
EXTRACT: note_off channel=0 note=65 velocity=95 time=0
EXTRACT: note_off channel=0 note=61 velocity=95 time=0
EXTRACT: note_off channel=0 note=58 velocity=95 time=0
EXTRACT: note_off channel=0 note=53 velocity=95 time=0
EXTRACT: note_off channel=0 note=46 velocity=95 time=0
EXTRACT: note_on channel=0 note=64 velocity=95 time=0
EXTRACT: note_on channel=0 note=59 velocity=95 time=0
EXTRACT: note_on channel=0 note=55 velocity=95 time=0
EXTRACT: note_on channel=0 note=50 velocity=95 time=0
EXTRACT: note_on channel=0 note=45 velocity=95 time=0
EXTRACT: note_on channel=0 note=40 velocity=95 time=0
EXTRACT: note_off channel=9 note=36 velocity=95 time=0
EXTRACT: note_off channel=9 note=44 velocity=95 time=0
EXTRACT: note_on channel=9 note=38 velocity=95 time=0
EXTRACT: note_off channel=0 note=64 velocity=95 time=0.030844124999999997
EXTRACT: note_off channel=0 note=59 velocity=95 time=0
EXTRACT: note_off channel=0 note=55 velocity=95 time=0
EXTRACT: note_off channel=0 note=50 velocity=95 time=0
EXTRACT: note_off channel=0 note=45 velocity=95 time=0
EXTRACT: note_off channel=0 note=40 velocity=95 time=0
EXTRACT: note_on channel=0 note=64 velocity=95 time=0.16396087499999998
EXTRACT: note_on channel=0 note=59 velocity=95 time=0
EXTRACT: note_on channel=0 note=55 velocity=95 time=0
EXTRACT: note_on channel=0 note=50 velocity=95 time=0
EXTRACT: note_on channel=0 note=45 velocity=95 time=0
EXTRACT: note_on channel=0 note=40 velocity=95 time=0
EXTRACT: note_off channel=2 note=34 velocity=95 time=0
EXTRACT: note_on channel=2 note=34 velocity=95 time=0
EXTRACT: note_off channel=9 note=38 velocity=95 time=0
EXTRACT: note_on channel=9 note=38 velocity=95 time=0
EXTRACT: note_off channel=0 note=64 velocity=95 time=0.030844124999999997
EXTRACT: note_off channel=0 note=59 velocity=95 time=0
EXTRACT: note_off channel=0 note=55 velocity=95 time=0
EXTRACT: note_off channel=0 note=50 velocity=95 time=0
EXTRACT: note_off channel=0 note=45 velocity=95 time=0
EXTRACT: note_off channel=0 note=40 velocity=95 time=0
EXTRACT: note_on channel=0 note=70 velocity=95 time=0.16396087499999998
EXTRACT: note_on channel=0 note=64 velocity=95 time=0
EXTRACT: note_on channel=0 note=58 velocity=95 time=0
EXTRACT: note_on channel=0 note=55 velocity=95 time=0
EXTRACT: note_on channel=0 note=48 velocity=95 time=0
EXTRACT: note_off channel=2 note=34 velocity=95 time=0
EXTRACT: note_on channel=2 note=36 velocity=95 time=0
EXTRACT: note_off channel=9 note=38 velocity=95 time=0
EXTRACT: note_on channel=9 note=36 velocity=95 time=0
EXTRACT: note_on channel=9 note=44 velocity=95 time=0
EXTRACT: note_off channel=0 note=70 velocity=95 time=0.38960999999999996
EXTRACT: note_off channel=0 note=64 velocity=95 time=0
EXTRACT: note_off channel=0 note=58 velocity=95 time=0
EXTRACT: note_off channel=0 note=55 velocity=95 time=0
EXTRACT: note_off channel=0 note=48 velocity=95 time=0
EXTRACT: note_on channel=0 note=59 velocity=95 time=0
EXTRACT: note_on channel=0 note=55 velocity=95 time=0
EXTRACT: note_on channel=0 note=50 velocity=95 time=0
EXTRACT: note_on channel=0 note=45 velocity=95 time=0
EXTRACT: note_on channel=0 note=40 velocity=95 time=0
EXTRACT: note_off channel=9 note=36 velocity=95 time=0
EXTRACT: note_off channel=9 note=44 velocity=95 time=0
EXTRACT: note_on channel=9 note=38 velocity=95 time=0
EXTRACT: note_off channel=0 note=59 velocity=95 time=0.030844124999999997
EXTRACT: note_off channel=0 note=55 velocity=95 time=0
EXTRACT: note_off channel=0 note=50 velocity=95 time=0
EXTRACT: note_off channel=0 note=45 velocity=95 time=0
EXTRACT: note_off channel=0 note=40 velocity=95 time=0
EXTRACT: note_on channel=0 note=59 velocity=95 time=0.16396087499999998
EXTRACT: note_on channel=0 note=55 velocity=95 time=0
EXTRACT: note_on channel=0 note=50 velocity=95 time=0
EXTRACT: note_on channel=0 note=45 velocity=95 time=0
EXTRACT: note_on channel=0 note=40 velocity=95 time=0
EXTRACT: note_off channel=2 note=36 velocity=95 time=0
EXTRACT: note_on channel=2 note=36 velocity=95 time=0
EXTRACT: note_off channel=9 note=38 velocity=95 time=0
EXTRACT: note_on channel=9 note=38 velocity=95 time=0
EXTRACT: note_off channel=0 note=59 velocity=95 time=0.030844124999999997
EXTRACT: note_off channel=0 note=55 velocity=95 time=0
EXTRACT: note_off channel=0 note=50 velocity=95 time=0
EXTRACT: note_off channel=0 note=45 velocity=95 time=0
EXTRACT: note_off channel=0 note=40 velocity=95 time=0
EXTRACT: note_on channel=0 note=65 velocity=95 time=0.16396087499999998
EXTRACT: note_on channel=0 note=60 velocity=95 time=0
EXTRACT: note_on channel=0 note=56 velocity=95 time=0
EXTRACT: note_on channel=0 note=53 velocity=95 time=0
EXTRACT: note_on channel=0 note=48 velocity=95 time=0
EXTRACT: note_on channel=0 note=41 velocity=95 time=0
EXTRACT: note_off channel=2 note=36 velocity=95 time=0
EXTRACT: note_on channel=2 note=29 velocity=95 time=0
EXTRACT: note_off channel=9 note=38 velocity=95 time=0
EXTRACT: note_on channel=9 note=49 velocity=95 time=0
EXTRACT: note_on channel=9 note=36 velocity=95 time=0
EXTRACT: note_off channel=0 note=65 velocity=95 time=3.1168799999999997
EXTRACT: note_off channel=0 note=60 velocity=95 time=0
EXTRACT: note_off channel=0 note=56 velocity=95 time=0
EXTRACT: note_off channel=0 note=53 velocity=95 time=0
EXTRACT: note_off channel=0 note=48 velocity=95 time=0
EXTRACT: note_off channel=0 note=41 velocity=95 time=0
EXTRACT: note_off channel=2 note=29 velocity=95 time=0
EXTRACT: note_off channel=9 note=49 velocity=95 time=0
MUSIC60 - No_Doubt_-_Don_t_Speak.mid
INTERVALS60 - No_Doubt_-_Don_t_Speak.mid
unison2
2m0
2M12
3m653
3M508
4m1434
4M41
5m554
5M41
6m18
7m4
7M10