EXTRACT: sysex data=(65,16,66,18,64,0,127,0,65) time=0
EXTRACT: program_change channel=0 program=35 time=0
EXTRACT: control_change channel=0 control=121 value=0 time=0
EXTRACT: program_change channel=1 program=25 time=0
EXTRACT: control_change channel=1 control=121 value=0 time=0
EXTRACT: program_change channel=2 program=25 time=0
EXTRACT: control_change channel=2 control=121 value=0 time=0
EXTRACT: program_change channel=3 program=27 time=0
EXTRACT: control_change channel=3 control=121 value=0 time=0
EXTRACT: program_change channel=4 program=18 time=0
EXTRACT: control_change channel=4 control=121 value=0 time=0
EXTRACT: program_change channel=5 program=79 time=0
EXTRACT: control_change channel=5 control=121 value=0 time=0
EXTRACT: program_change channel=9 program=0 time=0
EXTRACT: control_change channel=9 control=121 value=0 time=0
EXTRACT: control_change channel=0 control=0 value=0 time=0.004098358333333333
EXTRACT: control_change channel=1 control=0 value=0 time=0
EXTRACT: control_change channel=2 control=0 value=0 time=0
EXTRACT: control_change channel=3 control=0 value=0 time=0
EXTRACT: control_change channel=4 control=0 value=0 time=0
EXTRACT: control_change channel=5 control=0 value=0 time=0
EXTRACT: control_change channel=9 control=0 value=0 time=0
EXTRACT: control_change channel=0 control=32 value=0 time=0.004098358333333333
EXTRACT: control_change channel=1 control=32 value=0 time=0
EXTRACT: control_change channel=2 control=32 value=0 time=0
EXTRACT: control_change channel=3 control=32 value=0 time=0
EXTRACT: control_change channel=4 control=32 value=0 time=0
EXTRACT: control_change channel=5 control=32 value=0 time=0
EXTRACT: control_change channel=9 control=32 value=0 time=0
EXTRACT: program_change channel=0 program=35 time=0.004098358333333333
EXTRACT: program_change channel=1 program=25 time=0
EXTRACT: program_change channel=2 program=25 time=0
EXTRACT: program_change channel=3 program=27 time=0
EXTRACT: program_change channel=4 program=18 time=0
EXTRACT: program_change channel=5 program=79 time=0
EXTRACT: program_change channel=9 program=0 time=0
EXTRACT: control_change channel=0 control=7 value=110 time=0.004098358333333333
EXTRACT: control_change channel=1 control=7 value=60 time=0
EXTRACT: control_change channel=2 control=7 value=65 time=0
EXTRACT: control_change channel=3 control=7 value=60 time=0
EXTRACT: control_change channel=4 control=7 value=50 time=0
EXTRACT: control_change channel=5 control=7 value=80 time=0
EXTRACT: control_change channel=9 control=7 value=127 time=0
EXTRACT: control_change channel=0 control=11 value=127 time=0.004098358333333333
EXTRACT: control_change channel=1 control=11 value=127 time=0
EXTRACT: control_change channel=2 control=11 value=127 time=0
EXTRACT: control_change channel=3 control=11 value=127 time=0
EXTRACT: control_change channel=4 control=11 value=127 time=0
EXTRACT: control_change channel=5 control=11 value=127 time=0
EXTRACT: control_change channel=9 control=11 value=127 time=0
EXTRACT: control_change channel=0 control=10 value=64 time=0.004098358333333333
EXTRACT: control_change channel=1 control=10 value=1 time=0
EXTRACT: control_change channel=2 control=10 value=127 time=0
EXTRACT: control_change channel=3 control=10 value=55 time=0
EXTRACT: control_change channel=4 control=10 value=64 time=0
EXTRACT: control_change channel=5 control=10 value=64 time=0
EXTRACT: control_change channel=9 control=10 value=64 time=0
EXTRACT: control_change channel=0 control=91 value=40 time=0.004098358333333333
EXTRACT: control_change channel=1 control=91 value=100 time=0
EXTRACT: control_change channel=2 control=91 value=100 time=0
EXTRACT: control_change channel=3 control=91 value=100 time=0
EXTRACT: control_change channel=4 control=91 value=64 time=0
EXTRACT: control_change channel=5 control=91 value=100 time=0
EXTRACT: control_change channel=9 control=91 value=100 time=0
EXTRACT: control_change channel=0 control=93 value=40 time=0.004098358333333333
EXTRACT: control_change channel=1 control=93 value=100 time=0
EXTRACT: control_change channel=2 control=93 value=100 time=0
EXTRACT: control_change channel=3 control=93 value=64 time=0
EXTRACT: control_change channel=4 control=93 value=20 time=0
EXTRACT: control_change channel=5 control=93 value=40 time=0
EXTRACT: control_change channel=9 control=93 value=0 time=0
EXTRACT: control_change channel=0 control=101 value=0 time=0.004098358333333333
EXTRACT: control_change channel=3 control=94 value=0 time=0
EXTRACT: control_change channel=3 control=101 value=0 time=0
EXTRACT: control_change channel=0 control=100 value=0 time=0.004098358333333333
EXTRACT: control_change channel=3 control=100 value=0 time=0
EXTRACT: control_change channel=0 control=6 value=12 time=0.004098358333333333
EXTRACT: control_change channel=3 control=6 value=2 time=0
EXTRACT: control_change channel=0 control=101 value=127 time=0.004098358333333333
EXTRACT: control_change channel=3 control=101 value=127 time=0
EXTRACT: control_change channel=0 control=100 value=127 time=0.004098358333333333
EXTRACT: control_change channel=3 control=100 value=127 time=0
EXTRACT: note_on channel=9 note=36 velocity=60 time=1.9057366249999999
EXTRACT: note_on channel=2 note=64 velocity=95 time=0.004098358333333333
EXTRACT: note_on channel=2 note=62 velocity=113 time=0
EXTRACT: note_on channel=2 note=57 velocity=96 time=0
EXTRACT: note_on channel=2 note=50 velocity=104 time=0
EXTRACT: note_on channel=1 note=64 velocity=112 time=0.008196716666666666
EXTRACT: note_on channel=1 note=62 velocity=82 time=0
EXTRACT: note_on channel=1 note=57 velocity=82 time=0
EXTRACT: note_on channel=1 note=50 velocity=83 time=0
EXTRACT: note_on channel=9 note=36 velocity=0 time=0.02868850833333333
EXTRACT: note_on channel=2 note=64 velocity=0 time=0.45081941666666664
EXTRACT: note_on channel=2 note=62 velocity=0 time=0
EXTRACT: note_on channel=2 note=57 velocity=0 time=0
EXTRACT: note_on channel=2 note=50 velocity=0 time=0
EXTRACT: note_on channel=9 note=40 velocity=72 time=0
EXTRACT: note_on channel=9 note=28 velocity=72 time=0
EXTRACT: note_on channel=2 note=64 velocity=88 time=0.004098358333333333
EXTRACT: note_on channel=2 note=62 velocity=87 time=0
EXTRACT: note_on channel=2 note=57 velocity=86 time=0
EXTRACT: note_on channel=2 note=50 velocity=97 time=0
EXTRACT: note_on channel=1 note=64 velocity=0 time=0.004098358333333333
EXTRACT: note_on channel=1 note=62 velocity=0 time=0
EXTRACT: note_on channel=1 note=57 velocity=0 time=0
EXTRACT: note_on channel=1 note=50 velocity=0 time=0
EXTRACT: note_on channel=1 note=64 velocity=89 time=0.004098358333333333
EXTRACT: note_on channel=1 note=62 velocity=87 time=0
EXTRACT: note_on channel=1 note=57 velocity=84 time=0
EXTRACT: note_on channel=1 note=50 velocity=97 time=0
EXTRACT: note_on channel=9 note=40 velocity=0 time=0.02868850833333333
EXTRACT: note_on channel=9 note=28 velocity=0 time=0
EXTRACT: note_on channel=2 note=64 velocity=0 time=0.45081941666666664
EXTRACT: note_on channel=2 note=62 velocity=0 time=0
EXTRACT: note_on channel=2 note=57 velocity=0 time=0
EXTRACT: note_on channel=2 note=50 velocity=0 time=0
EXTRACT: note_on channel=9 note=36 velocity=60 time=0
EXTRACT: note_on channel=2 note=64 velocity=98 time=0.004098358333333333
EXTRACT: note_on channel=2 note=62 velocity=109 time=0
EXTRACT: note_on channel=2 note=57 velocity=110 time=0
EXTRACT: note_on channel=2 note=50 velocity=105 time=0
EXTRACT: note_on channel=1 note=64 velocity=0 time=0.004098358333333333
EXTRACT: note_on channel=1 note=62 velocity=0 time=0
EXTRACT: note_on channel=1 note=57 velocity=0 time=0
EXTRACT: note_on channel=1 note=50 velocity=0 time=0
EXTRACT: note_on channel=1 note=64 velocity=85 time=0.004098358333333333
EXTRACT: note_on channel=1 note=62 velocity=99 time=0
EXTRACT: note_on channel=1 note=57 velocity=108 time=0
EXTRACT: note_on channel=1 note=50 velocity=117 time=0
EXTRACT: note_on channel=9 note=36 velocity=0 time=0.02868850833333333
EXTRACT: note_on channel=2 note=64 velocity=0 time=0.20491791666666664
EXTRACT: note_on channel=2 note=62 velocity=0 time=0
EXTRACT: note_on channel=2 note=57 velocity=0 time=0
EXTRACT: note_on channel=2 note=50 velocity=0 time=0
EXTRACT: note_on channel=9 note=36 velocity=60 time=0
EXTRACT: note_on channel=2 note=64 velocity=94 time=0.004098358333333333
EXTRACT: note_on channel=2 note=62 velocity=89 time=0
EXTRACT: note_on channel=2 note=57 velocity=95 time=0
EXTRACT: note_on channel=1 note=64 velocity=0 time=0.004098358333333333
EXTRACT: note_on channel=1 note=62 velocity=0 time=0
EXTRACT: note_on channel=1 note=57 velocity=0 time=0
EXTRACT: note_on channel=1 note=50 velocity=0 time=0
EXTRACT: note_on channel=1 note=64 velocity=76 time=0.004098358333333333
EXTRACT: note_on channel=1 note=62 velocity=105 time=0
EXTRACT: note_on channel=1 note=57 velocity=115 time=0
EXTRACT: note_on channel=9 note=36 velocity=0 time=0.02868850833333333
EXTRACT: note_on channel=2 note=64 velocity=0 time=0.20491791666666664
EXTRACT: note_on channel=2 note=62 velocity=0 time=0
EXTRACT: note_on channel=2 note=57 velocity=0 time=0
EXTRACT: note_on channel=9 note=40 velocity=72 time=0
EXTRACT: note_on channel=9 note=28 velocity=72 time=0
EXTRACT: note_on channel=2 note=64 velocity=107 time=0.004098358333333333
EXTRACT: note_on channel=2 note=62 velocity=105 time=0
EXTRACT: note_on channel=2 note=57 velocity=95 time=0
EXTRACT: note_on channel=2 note=50 velocity=106 time=0
EXTRACT: note_on channel=1 note=64 velocity=0 time=0.004098358333333333
EXTRACT: note_on channel=1 note=62 velocity=0 time=0
EXTRACT: note_on channel=1 note=57 velocity=0 time=0
EXTRACT: note_on channel=1 note=64 velocity=103 time=0.004098358333333333
EXTRACT: note_on channel=1 note=62 velocity=83 time=0
EXTRACT: note_on channel=1 note=57 velocity=87 time=0
EXTRACT: note_on channel=1 note=50 velocity=110 time=0
EXTRACT: note_on channel=9 note=40 velocity=0 time=0.02868850833333333
EXTRACT: note_on channel=9 note=28 velocity=0 time=0
EXTRACT: note_on channel=2 note=64 velocity=0 time=0.20491791666666664
EXTRACT: note_on channel=2 note=62 velocity=0 time=0
EXTRACT: note_on channel=2 note=57 velocity=0 time=0
EXTRACT: note_on channel=2 note=50 velocity=0 time=0
EXTRACT: note_on channel=2 note=64 velocity=71 time=0.004098358333333333
EXTRACT: note_on channel=2 note=62 velocity=72 time=0
EXTRACT: note_on channel=2 note=57 velocity=88 time=0
EXTRACT: note_on channel=1 note=64 velocity=0 time=0.004098358333333333
EXTRACT: note_on channel=1 note=62 velocity=0 time=0
EXTRACT: note_on channel=1 note=57 velocity=0 time=0
EXTRACT: note_on channel=1 note=50 velocity=0 time=0
EXTRACT: note_on channel=1 note=64 velocity=102 time=0.004098358333333333
EXTRACT: note_on channel=1 note=62 velocity=97 time=0
EXTRACT: note_on channel=1 note=57 velocity=74 time=0
EXTRACT: note_on channel=9 note=36 velocity=60 time=0.23360642499999998
EXTRACT: note_on channel=9 note=36 velocity=0 time=0.04098358333333333
EXTRACT: note_on channel=2 note=64 velocity=0 time=0.20491791666666664
EXTRACT: note_on channel=2 note=62 velocity=0 time=0
EXTRACT: note_on channel=2 note=57 velocity=0 time=0
EXTRACT: note_on channel=2 note=65 velocity=105 time=0.004098358333333333
EXTRACT: note_on channel=2 note=62 velocity=105 time=0
EXTRACT: note_on channel=2 note=57 velocity=86 time=0
EXTRACT: note_on channel=1 note=64 velocity=0 time=0.004098358333333333
EXTRACT: note_on channel=1 note=62 velocity=0 time=0
EXTRACT: note_on channel=1 note=57 velocity=0 time=0
EXTRACT: note_on channel=1 note=65 velocity=115 time=0.004098358333333333
EXTRACT: note_on channel=1 note=62 velocity=103 time=0
EXTRACT: note_on channel=1 note=57 velocity=91 time=0
EXTRACT: note_on channel=2 note=65 velocity=0 time=0.23360642499999998
EXTRACT: note_on channel=2 note=62 velocity=0 time=0
EXTRACT: note_on channel=2 note=57 velocity=0 time=0
EXTRACT: note_on channel=9 note=40 velocity=72 time=0
EXTRACT: note_on channel=9 note=28 velocity=72 time=0
EXTRACT: note_on channel=2 note=65 velocity=108 time=0.004098358333333333
EXTRACT: note_on channel=2 note=62 velocity=107 time=0
EXTRACT: note_on channel=2 note=57 velocity=92 time=0
EXTRACT: note_on channel=1 note=65 velocity=0 time=0.004098358333333333
EXTRACT: note_on channel=1 note=62 velocity=0 time=0
EXTRACT: note_on channel=1 note=57 velocity=0 time=0
EXTRACT: note_on channel=1 note=65 velocity=111 time=0.004098358333333333
EXTRACT: note_on channel=1 note=62 velocity=93 time=0
EXTRACT: note_on channel=1 note=57 velocity=80 time=0
EXTRACT: note_on channel=9 note=40 velocity=0 time=0.02868850833333333
EXTRACT: note_on channel=9 note=28 velocity=0 time=0
EXTRACT: note_on channel=2 note=65 velocity=0 time=0.20491791666666664
EXTRACT: note_on channel=2 note=62 velocity=0 time=0
EXTRACT: note_on channel=2 note=57 velocity=0 time=0
EXTRACT: note_on channel=2 note=65 velocity=110 time=0.004098358333333333
EXTRACT: note_on channel=2 note=62 velocity=82 time=0
EXTRACT: note_on channel=2 note=57 velocity=65 time=0
EXTRACT: note_on channel=2 note=50 velocity=88 time=0
EXTRACT: note_on channel=1 note=65 velocity=0 time=0.004098358333333333
EXTRACT: note_on channel=1 note=62 velocity=0 time=0
EXTRACT: note_on channel=1 note=57 velocity=0 time=0
EXTRACT: note_on channel=1 note=65 velocity=115 time=0.004098358333333333
EXTRACT: note_on channel=1 note=62 velocity=85 time=0
EXTRACT: note_on channel=1 note=57 velocity=79 time=0
EXTRACT: note_on channel=1 note=50 velocity=73 time=0
EXTRACT: note_on channel=2 note=65 velocity=0 time=0.23360642499999998
EXTRACT: note_on channel=2 note=62 velocity=0 time=0
EXTRACT: note_on channel=2 note=57 velocity=0 time=0
EXTRACT: note_on channel=2 note=50 velocity=0 time=0
EXTRACT: note_on channel=9 note=36 velocity=60 time=0
EXTRACT: note_on channel=2 note=65 velocity=85 time=0.004098358333333333
EXTRACT: note_on channel=2 note=62 velocity=111 time=0
EXTRACT: note_on channel=2 note=57 velocity=90 time=0
EXTRACT: note_on channel=2 note=50 velocity=112 time=0
EXTRACT: note_on channel=1 note=65 velocity=0 time=0.004098358333333333
EXTRACT: note_on channel=1 note=62 velocity=0 time=0
EXTRACT: note_on channel=1 note=57 velocity=0 time=0
EXTRACT: note_on channel=1 note=50 velocity=0 time=0
EXTRACT: note_on channel=1 note=65 velocity=97 time=0.004098358333333333
EXTRACT: note_on channel=1 note=62 velocity=106 time=0
EXTRACT: note_on channel=1 note=57 velocity=90 time=0
EXTRACT: note_on channel=1 note=50 velocity=91 time=0
EXTRACT: note_on channel=9 note=36 velocity=0 time=0.02868850833333333
EXTRACT: note_on channel=2 note=65 velocity=0 time=0.20491791666666664
EXTRACT: note_on channel=2 note=62 velocity=0 time=0
EXTRACT: note_on channel=2 note=57 velocity=0 time=0
EXTRACT: note_on channel=2 note=50 velocity=0 time=0
EXTRACT: note_on channel=9 note=36 velocity=60 time=0
EXTRACT: note_on channel=2 note=65 velocity=112 time=0.004098358333333333
EXTRACT: note_on channel=2 note=62 velocity=83 time=0
EXTRACT: note_on channel=2 note=57 velocity=78 time=0
EXTRACT: note_on channel=1 note=65 velocity=0 time=0.004098358333333333
EXTRACT: note_on channel=1 note=62 velocity=0 time=0
EXTRACT: note_on channel=1 note=57 velocity=0 time=0
EXTRACT: note_on channel=1 note=50 velocity=0 time=0
EXTRACT: note_on channel=1 note=65 velocity=108 time=0.004098358333333333
EXTRACT: note_on channel=1 note=62 velocity=65 time=0
EXTRACT: note_on channel=1 note=57 velocity=75 time=0
EXTRACT: note_on channel=9 note=36 velocity=0 time=0.02868850833333333
EXTRACT: note_on channel=2 note=65 velocity=0 time=0.20491791666666664
EXTRACT: note_on channel=2 note=62 velocity=0 time=0
EXTRACT: note_on channel=2 note=57 velocity=0 time=0
EXTRACT: note_on channel=9 note=40 velocity=72 time=0
EXTRACT: note_on channel=9 note=28 velocity=72 time=0
EXTRACT: note_on channel=2 note=65 velocity=104 time=0.004098358333333333
EXTRACT: note_on channel=2 note=62 velocity=95 time=0
EXTRACT: note_on channel=2 note=57 velocity=97 time=0
EXTRACT: note_on channel=2 note=50 velocity=93 time=0
EXTRACT: note_on channel=1 note=65 velocity=0 time=0.004098358333333333
EXTRACT: note_on channel=1 note=62 velocity=0 time=0
EXTRACT: note_on channel=1 note=57 velocity=0 time=0
EXTRACT: note_on channel=1 note=65 velocity=91 time=0.004098358333333333
EXTRACT: note_on channel=1 note=62 velocity=82 time=0
EXTRACT: note_on channel=1 note=57 velocity=85 time=0
EXTRACT: note_on channel=1 note=50 velocity=87 time=0
EXTRACT: note_on channel=9 note=40 velocity=0 time=0.02868850833333333
EXTRACT: note_on channel=9 note=28 velocity=0 time=0
EXTRACT: note_on channel=2 note=65 velocity=0 time=0.20491791666666664
EXTRACT: note_on channel=2 note=62 velocity=0 time=0
EXTRACT: note_on channel=2 note=57 velocity=0 time=0
EXTRACT: note_on channel=2 note=50 velocity=0 time=0
EXTRACT: note_on channel=2 note=65 velocity=111 time=0.004098358333333333
EXTRACT: note_on channel=2 note=62 velocity=91 time=0
EXTRACT: note_on channel=2 note=57 velocity=76 time=0
EXTRACT: note_on channel=2 note=50 velocity=77 time=0
EXTRACT: note_on channel=1 note=65 velocity=0 time=0.004098358333333333
EXTRACT: note_on channel=1 note=62 velocity=0 time=0
EXTRACT: note_on channel=1 note=57 velocity=0 time=0
EXTRACT: note_on channel=1 note=50 velocity=0 time=0
EXTRACT: note_on channel=1 note=65 velocity=60 time=0.004098358333333333
EXTRACT: note_on channel=1 note=62 velocity=117 time=0
EXTRACT: note_on channel=1 note=57 velocity=84 time=0
EXTRACT: note_on channel=1 note=50 velocity=65 time=0
EXTRACT: note_on channel=2 note=65 velocity=0 time=0.23360642499999998
EXTRACT: note_on channel=2 note=62 velocity=0 time=0
EXTRACT: note_on channel=2 note=57 velocity=0 time=0
EXTRACT: note_on channel=2 note=50 velocity=0 time=0
EXTRACT: note_on channel=9 note=36 velocity=60 time=0
EXTRACT: note_on channel=2 note=64 velocity=95 time=0.004098358333333333
EXTRACT: note_on channel=2 note=62 velocity=111 time=0
EXTRACT: note_on channel=2 note=55 velocity=101 time=0
EXTRACT: note_on channel=2 note=48 velocity=91 time=0
EXTRACT: note_on channel=1 note=65 velocity=0 time=0.004098358333333333
EXTRACT: note_on channel=1 note=62 velocity=0 time=0
EXTRACT: note_on channel=1 note=57 velocity=0 time=0
EXTRACT: note_on channel=1 note=50 velocity=0 time=0
EXTRACT: note_on channel=1 note=64 velocity=105 time=0.004098358333333333
EXTRACT: note_on channel=1 note=62 velocity=92 time=0
EXTRACT: note_on channel=1 note=55 velocity=106 time=0
EXTRACT: note_on channel=1 note=48 velocity=112 time=0
EXTRACT: note_on channel=9 note=36 velocity=0 time=0.02868850833333333
EXTRACT: note_on channel=2 note=64 velocity=0 time=0.45081941666666664
EXTRACT: note_on channel=2 note=62 velocity=0 time=0
EXTRACT: note_on channel=2 note=55 velocity=0 time=0
EXTRACT: note_on channel=2 note=48 velocity=0 time=0
EXTRACT: note_on channel=9 note=40 velocity=72 time=0
EXTRACT: note_on channel=9 note=28 velocity=72 time=0
EXTRACT: note_on channel=2 note=64 velocity=103 time=0.004098358333333333
EXTRACT: note_on channel=2 note=62 velocity=115 time=0
EXTRACT: note_on channel=2 note=55 velocity=105 time=0
EXTRACT: note_on channel=2 note=48 velocity=117 time=0
EXTRACT: note_on channel=1 note=64 velocity=0 time=0.004098358333333333
EXTRACT: note_on channel=1 note=62 velocity=0 time=0
EXTRACT: note_on channel=1 note=55 velocity=0 time=0
EXTRACT: note_on channel=1 note=48 velocity=0 time=0
EXTRACT: note_on channel=1 note=64 velocity=107 time=0.004098358333333333
EXTRACT: note_on channel=1 note=62 velocity=89 time=0
EXTRACT: note_on channel=1 note=55 velocity=103 time=0
EXTRACT: note_on channel=1 note=48 velocity=90 time=0
EXTRACT: note_on channel=9 note=40 velocity=0 time=0.02868850833333333
EXTRACT: note_on channel=9 note=28 velocity=0 time=0
EXTRACT: note_on channel=2 note=64 velocity=0 time=0.45081941666666664
EXTRACT: note_on channel=2 note=62 velocity=0 time=0
EXTRACT: note_on channel=2 note=55 velocity=0 time=0
EXTRACT: note_on channel=2 note=48 velocity=0 time=0
EXTRACT: note_on channel=9 note=36 velocity=60 time=0
EXTRACT: note_on channel=2 note=64 velocity=107 time=0.004098358333333333
EXTRACT: note_on channel=2 note=62 velocity=107 time=0
EXTRACT: note_on channel=2 note=55 velocity=108 time=0
EXTRACT: note_on channel=1 note=64 velocity=0 time=0.004098358333333333
EXTRACT: note_on channel=1 note=62 velocity=0 time=0
EXTRACT: note_on channel=1 note=55 velocity=0 time=0
EXTRACT: note_on channel=1 note=48 velocity=0 time=0
EXTRACT: note_on channel=1 note=64 velocity=114 time=0.004098358333333333
EXTRACT: note_on channel=1 note=62 velocity=80 time=0
EXTRACT: note_on channel=1 note=55 velocity=96 time=0
EXTRACT: note_on channel=9 note=36 velocity=0 time=0.02868850833333333
EXTRACT: note_on channel=2 note=64 velocity=0 time=0.20491791666666664
EXTRACT: note_on channel=2 note=62 velocity=0 time=0
EXTRACT: note_on channel=2 note=55 velocity=0 time=0
EXTRACT: note_on channel=9 note=36 velocity=60 time=0
EXTRACT: note_on channel=2 note=64 velocity=70 time=0.004098358333333333
EXTRACT: note_on channel=2 note=62 velocity=91 time=0
EXTRACT: note_on channel=2 note=55 velocity=74 time=0
EXTRACT: note_on channel=2 note=48 velocity=112 time=0
EXTRACT: note_on channel=1 note=64 velocity=0 time=0.004098358333333333
EXTRACT: note_on channel=1 note=62 velocity=0 time=0
EXTRACT: note_on channel=1 note=55 velocity=0 time=0
EXTRACT: note_on channel=1 note=64 velocity=110 time=0.004098358333333333
EXTRACT: note_on channel=1 note=62 velocity=101 time=0
EXTRACT: note_on channel=1 note=55 velocity=69 time=0
EXTRACT: note_on channel=1 note=48 velocity=92 time=0
EXTRACT: note_on channel=9 note=36 velocity=0 time=0.02868850833333333
EXTRACT: note_on channel=2 note=64 velocity=0 time=0.20491791666666664
EXTRACT: note_on channel=2 note=62 velocity=0 time=0
EXTRACT: note_on channel=2 note=55 velocity=0 time=0
EXTRACT: note_on channel=2 note=48 velocity=0 time=0
EXTRACT: note_on channel=9 note=40 velocity=72 time=0
EXTRACT: note_on channel=9 note=28 velocity=72 time=0
EXTRACT: note_on channel=2 note=64 velocity=106 time=0.004098358333333333
EXTRACT: note_on channel=2 note=62 velocity=90 time=0
EXTRACT: note_on channel=2 note=55 velocity=105 time=0
EXTRACT: note_on channel=2 note=48 velocity=103 time=0
EXTRACT: note_on channel=1 note=64 velocity=0 time=0.004098358333333333
EXTRACT: note_on channel=1 note=62 velocity=0 time=0
EXTRACT: note_on channel=1 note=55 velocity=0 time=0
EXTRACT: note_on channel=1 note=48 velocity=0 time=0
EXTRACT: note_on channel=1 note=64 velocity=101 time=0.004098358333333333
EXTRACT: note_on channel=1 note=62 velocity=116 time=0
EXTRACT: note_on channel=1 note=55 velocity=90 time=0
EXTRACT: note_on channel=1 note=48 velocity=94 time=0
EXTRACT: note_on channel=9 note=40 velocity=0 time=0.02868850833333333
EXTRACT: note_on channel=9 note=28 velocity=0 time=0
EXTRACT: note_on channel=2 note=64 velocity=0 time=0.20491791666666664
EXTRACT: note_on channel=2 note=62 velocity=0 time=0
EXTRACT: note_on channel=2 note=55 velocity=0 time=0
EXTRACT: note_on channel=2 note=48 velocity=0 time=0
EXTRACT: note_on channel=2 note=64 velocity=65 time=0.004098358333333333
EXTRACT: note_on channel=2 note=62 velocity=88 time=0
EXTRACT: note_on channel=2 note=55 velocity=105 time=0
EXTRACT: note_on channel=1 note=64 velocity=0 time=0.004098358333333333
EXTRACT: note_on channel=1 note=62 velocity=0 time=0
EXTRACT: note_on channel=1 note=55 velocity=0 time=0
EXTRACT: note_on channel=1 note=48 velocity=0 time=0
EXTRACT: note_on channel=1 note=64 velocity=103 time=0.004098358333333333
EXTRACT: note_on channel=1 note=62 velocity=114 time=0
EXTRACT: note_on channel=1 note=55 velocity=97 time=0
EXTRACT: note_on channel=9 note=36 velocity=60 time=0.23360642499999998
EXTRACT: note_on channel=9 note=36 velocity=0 time=0.04098358333333333
EXTRACT: note_on channel=2 note=64 velocity=0 time=0.20491791666666664
EXTRACT: note_on channel=2 note=62 velocity=0 time=0
EXTRACT: note_on channel=2 note=55 velocity=0 time=0
EXTRACT: note_on channel=2 note=64 velocity=104 time=0.004098358333333333
EXTRACT: note_on channel=2 note=60 velocity=69 time=0
EXTRACT: note_on channel=2 note=55 velocity=100 time=0
EXTRACT: note_on channel=1 note=64 velocity=0 time=0.004098358333333333
EXTRACT: note_on channel=1 note=62 velocity=0 time=0
EXTRACT: note_on channel=1 note=55 velocity=0 time=0
EXTRACT: note_on channel=1 note=64 velocity=80 time=0.004098358333333333
EXTRACT: note_on channel=1 note=60 velocity=75 time=0
EXTRACT: note_on channel=1 note=55 velocity=74 time=0
EXTRACT: note_on channel=2 note=64 velocity=0 time=0.23360642499999998
EXTRACT: note_on channel=2 note=60 velocity=0 time=0
EXTRACT: note_on channel=2 note=55 velocity=0 time=0
EXTRACT: note_on channel=9 note=40 velocity=72 time=0
EXTRACT: note_on channel=9 note=28 velocity=72 time=0
EXTRACT: note_on channel=2 note=64 velocity=97 time=0.004098358333333333
EXTRACT: note_on channel=2 note=60 velocity=86 time=0
EXTRACT: note_on channel=2 note=55 velocity=89 time=0
EXTRACT: note_on channel=2 note=48 velocity=104 time=0
EXTRACT: note_on channel=1 note=64 velocity=0 time=0.004098358333333333
EXTRACT: note_on channel=1 note=60 velocity=0 time=0
EXTRACT: note_on channel=1 note=55 velocity=0 time=0
EXTRACT: note_on channel=1 note=64 velocity=94 time=0.004098358333333333
EXTRACT: note_on channel=1 note=60 velocity=81 time=0
EXTRACT: note_on channel=1 note=55 velocity=89 time=0
EXTRACT: note_on channel=1 note=48 velocity=106 time=0
EXTRACT: note_on channel=9 note=40 velocity=0 time=0.02868850833333333
EXTRACT: note_on channel=9 note=28 velocity=0 time=0
EXTRACT: note_on channel=2 note=64 velocity=0 time=0.20491791666666664
EXTRACT: note_on channel=2 note=60 velocity=0 time=0
EXTRACT: note_on channel=2 note=55 velocity=0 time=0
EXTRACT: note_on channel=2 note=48 velocity=0 time=0
EXTRACT: note_on channel=2 note=64 velocity=84 time=0.004098358333333333
EXTRACT: note_on channel=2 note=60 velocity=110 time=0
EXTRACT: note_on channel=2 note=55 velocity=89 time=0
EXTRACT: note_on channel=1 note=64 velocity=0 time=0.004098358333333333
EXTRACT: note_on channel=1 note=60 velocity=0 time=0
EXTRACT: note_on channel=1 note=55 velocity=0 time=0
EXTRACT: note_on channel=1 note=48 velocity=0 time=0
EXTRACT: note_on channel=1 note=64 velocity=112 time=0.004098358333333333
EXTRACT: note_on channel=1 note=60 velocity=73 time=0
EXTRACT: note_on channel=1 note=55 velocity=63 time=0
EXTRACT: note_on channel=2 note=64 velocity=0 time=0.23360642499999998
EXTRACT: note_on channel=2 note=60 velocity=0 time=0
EXTRACT: note_on channel=2 note=55 velocity=0 time=0
EXTRACT: note_on channel=9 note=36 velocity=60 time=0
EXTRACT: note_on channel=2 note=64 velocity=99 time=0.004098358333333333
EXTRACT: note_on channel=2 note=60 velocity=98 time=0
EXTRACT: note_on channel=2 note=55 velocity=88 time=0
EXTRACT: note_on channel=2 note=48 velocity=104 time=0
EXTRACT: note_on channel=1 note=64 velocity=0 time=0.004098358333333333
EXTRACT: note_on channel=1 note=60 velocity=0 time=0
EXTRACT: note_on channel=1 note=55 velocity=0 time=0
EXTRACT: note_on channel=1 note=64 velocity=96 time=0.004098358333333333
EXTRACT: note_on channel=1 note=60 velocity=88 time=0
EXTRACT: note_on channel=1 note=55 velocity=112 time=0
EXTRACT: note_on channel=1 note=48 velocity=79 time=0
EXTRACT: note_on channel=9 note=36 velocity=0 time=0.02868850833333333
EXTRACT: note_on channel=2 note=64 velocity=0 time=0.20491791666666664
EXTRACT: note_on channel=2 note=60 velocity=0 time=0
EXTRACT: note_on channel=2 note=55 velocity=0 time=0
EXTRACT: note_on channel=2 note=48 velocity=0 time=0
EXTRACT: note_on channel=9 note=36 velocity=60 time=0
EXTRACT: note_on channel=2 note=64 velocity=74 time=0.004098358333333333
EXTRACT: note_on channel=2 note=60 velocity=71 time=0
EXTRACT: note_on channel=2 note=55 velocity=108 time=0
EXTRACT: note_on channel=1 note=64 velocity=0 time=0.004098358333333333
EXTRACT: note_on channel=1 note=60 velocity=0 time=0
EXTRACT: note_on channel=1 note=55 velocity=0 time=0
EXTRACT: note_on channel=1 note=48 velocity=0 time=0
EXTRACT: note_on channel=1 note=64 velocity=70 time=0.004098358333333333
EXTRACT: note_on channel=1 note=60 velocity=93 time=0
EXTRACT: note_on channel=1 note=55 velocity=77 time=0
EXTRACT: note_on channel=9 note=36 velocity=0 time=0.02868850833333333
EXTRACT: note_on channel=2 note=64 velocity=0 time=0.20491791666666664
EXTRACT: note_on channel=2 note=60 velocity=0 time=0
EXTRACT: note_on channel=2 note=55 velocity=0 time=0
EXTRACT: note_on channel=9 note=40 velocity=72 time=0
EXTRACT: note_on channel=9 note=28 velocity=72 time=0
EXTRACT: note_on channel=2 note=64 velocity=100 time=0.004098358333333333
EXTRACT: note_on channel=2 note=60 velocity=86 time=0
EXTRACT: note_on channel=2 note=55 velocity=85 time=0
EXTRACT: note_on channel=2 note=48 velocity=91 time=0
EXTRACT: note_on channel=1 note=64 velocity=0 time=0.004098358333333333
EXTRACT: note_on channel=1 note=60 velocity=0 time=0
EXTRACT: note_on channel=1 note=55 velocity=0 time=0
EXTRACT: note_on channel=1 note=64 velocity=82 time=0.004098358333333333
EXTRACT: note_on channel=1 note=60 velocity=107 time=0
EXTRACT: note_on channel=1 note=55 velocity=107 time=0
EXTRACT: note_on channel=1 note=48 velocity=110 time=0
EXTRACT: note_on channel=9 note=40 velocity=0 time=0.02868850833333333
EXTRACT: note_on channel=9 note=28 velocity=0 time=0
EXTRACT: note_on channel=2 note=64 velocity=0 time=0.20491791666666664
EXTRACT: note_on channel=2 note=60 velocity=0 time=0
EXTRACT: note_on channel=2 note=55 velocity=0 time=0
EXTRACT: note_on channel=2 note=48 velocity=0 time=0
EXTRACT: note_on channel=2 note=64 velocity=80 time=0.004098358333333333
EXTRACT: note_on channel=2 note=60 velocity=113 time=0
EXTRACT: note_on channel=2 note=55 velocity=90 time=0
EXTRACT: note_on channel=0 note=33 velocity=114 time=0.004098358333333333
EXTRACT: note_on channel=1 note=64 velocity=0 time=0
EXTRACT: note_on channel=1 note=60 velocity=0 time=0
EXTRACT: note_on channel=1 note=55 velocity=0 time=0
EXTRACT: note_on channel=1 note=48 velocity=0 time=0
EXTRACT: note_on channel=1 note=64 velocity=82 time=0.004098358333333333
EXTRACT: note_on channel=1 note=60 velocity=105 time=0
EXTRACT: note_on channel=1 note=55 velocity=96 time=0
EXTRACT: note_on channel=2 note=64 velocity=0 time=0.23360642499999998
EXTRACT: note_on channel=2 note=60 velocity=0 time=0
EXTRACT: note_on channel=2 note=55 velocity=0 time=0
EXTRACT: note_on channel=9 note=36 velocity=60 time=0
EXTRACT: note_on channel=0 note=33 velocity=0 time=0.004098358333333333
EXTRACT: note_on channel=2 note=64 velocity=85 time=0
EXTRACT: note_on channel=2 note=62 velocity=103 time=0
EXTRACT: note_on channel=2 note=57 velocity=99 time=0
EXTRACT: note_on channel=2 note=50 velocity=107 time=0
EXTRACT: note_on channel=0 note=38 velocity=125 time=0.004098358333333333
EXTRACT: note_on channel=1 note=64 velocity=0 time=0
EXTRACT: note_on channel=1 note=60 velocity=0 time=0
EXTRACT: note_on channel=1 note=55 velocity=0 time=0
EXTRACT: note_on channel=1 note=64 velocity=94 time=0.004098358333333333
EXTRACT: note_on channel=1 note=62 velocity=92 time=0
EXTRACT: note_on channel=1 note=57 velocity=99 time=0
EXTRACT: note_on channel=1 note=50 velocity=109 time=0
EXTRACT: note_on channel=9 note=36 velocity=0 time=0.02868850833333333
EXTRACT: note_on channel=0 note=38 velocity=0 time=0.15163925833333333
EXTRACT: note_on channel=0 note=38 velocity=108 time=0.061475375
EXTRACT: note_on channel=2 note=64 velocity=0 time=0.2377047833333333
EXTRACT: note_on channel=2 note=62 velocity=0 time=0
EXTRACT: note_on channel=2 note=57 velocity=0 time=0
EXTRACT: note_on channel=2 note=50 velocity=0 time=0
EXTRACT: note_on channel=9 note=40 velocity=72 time=0
EXTRACT: note_on channel=9 note=28 velocity=72 time=0
EXTRACT: note_on channel=0 note=38 velocity=0 time=0.004098358333333333
EXTRACT: note_on channel=2 note=64 velocity=87 time=0
EXTRACT: note_on channel=2 note=62 velocity=95 time=0
EXTRACT: note_on channel=2 note=57 velocity=107 time=0
EXTRACT: note_on channel=2 note=50 velocity=107 time=0
EXTRACT: note_on channel=0 note=38 velocity=122 time=0.004098358333333333
EXTRACT: note_on channel=1 note=64 velocity=0 time=0
EXTRACT: note_on channel=1 note=62 velocity=0 time=0
EXTRACT: note_on channel=1 note=57 velocity=0 time=0
EXTRACT: note_on channel=1 note=50 velocity=0 time=0
EXTRACT: note_on channel=1 note=64 velocity=82 time=0.004098358333333333
EXTRACT: note_on channel=1 note=62 velocity=116 time=0
EXTRACT: note_on channel=1 note=57 velocity=110 time=0
EXTRACT: note_on channel=1 note=50 velocity=108 time=0
EXTRACT: note_on channel=9 note=40 velocity=0 time=0.02868850833333333
EXTRACT: note_on channel=9 note=28 velocity=0 time=0
EXTRACT: note_on channel=0 note=38 velocity=0 time=0.2131146333333333
EXTRACT: note_on channel=2 note=64 velocity=0 time=0.2377047833333333
EXTRACT: note_on channel=2 note=62 velocity=0 time=0
EXTRACT: note_on channel=2 note=57 velocity=0 time=0
EXTRACT: note_on channel=2 note=50 velocity=0 time=0
EXTRACT: note_on channel=9 note=36 velocity=60 time=0
EXTRACT: note_on channel=2 note=64 velocity=97 time=0.004098358333333333
EXTRACT: note_on channel=2 note=62 velocity=104 time=0
EXTRACT: note_on channel=2 note=57 velocity=95 time=0
EXTRACT: note_on channel=2 note=50 velocity=113 time=0
EXTRACT: note_on channel=5 note=69 velocity=117 time=0.0020491791666666665
EXTRACT: note_on channel=1 note=64 velocity=0 time=0.0020491791666666665
EXTRACT: note_on channel=1 note=62 velocity=0 time=0
EXTRACT: note_on channel=1 note=57 velocity=0 time=0
EXTRACT: note_on channel=1 note=50 velocity=0 time=0
EXTRACT: note_on channel=1 note=64 velocity=80 time=0.004098358333333333
EXTRACT: note_on channel=1 note=62 velocity=86 time=0
EXTRACT: note_on channel=1 note=57 velocity=116 time=0
EXTRACT: note_on channel=1 note=50 velocity=92 time=0
EXTRACT: note_on channel=9 note=36 velocity=0 time=0.02868850833333333
EXTRACT: note_on channel=2 note=64 velocity=0 time=0.20491791666666664
EXTRACT: note_on channel=2 note=62 velocity=0 time=0
EXTRACT: note_on channel=2 note=57 velocity=0 time=0
EXTRACT: note_on channel=2 note=50 velocity=0 time=0
EXTRACT: note_on channel=9 note=36 velocity=60 time=0
EXTRACT: note_on channel=5 note=69 velocity=0 time=0.0020491791666666665
EXTRACT: note_on channel=2 note=64 velocity=81 time=0.0020491791666666665
EXTRACT: note_on channel=2 note=62 velocity=81 time=0
EXTRACT: note_on channel=2 note=57 velocity=110 time=0
EXTRACT: note_on channel=5 note=60 velocity=89 time=0.0020491791666666665
EXTRACT: note_on channel=1 note=64 velocity=0 time=0.0020491791666666665
EXTRACT: note_on channel=1 note=62 velocity=0 time=0
EXTRACT: note_on channel=1 note=57 velocity=0 time=0
EXTRACT: note_on channel=1 note=50 velocity=0 time=0
EXTRACT: note_on channel=1 note=64 velocity=108 time=0.004098358333333333
EXTRACT: note_on channel=1 note=62 velocity=113 time=0
EXTRACT: note_on channel=1 note=57 velocity=75 time=0
EXTRACT: note_on channel=9 note=36 velocity=0 time=0.02868850833333333
EXTRACT: note_on channel=2 note=64 velocity=0 time=0.20491791666666664
EXTRACT: note_on channel=2 note=62 velocity=0 time=0
EXTRACT: note_on channel=2 note=57 velocity=0 time=0
EXTRACT: note_on channel=9 note=40 velocity=72 time=0
EXTRACT: note_on channel=9 note=28 velocity=72 time=0
EXTRACT: note_on channel=2 note=64 velocity=117 time=0.004098358333333333
EXTRACT: note_on channel=2 note=62 velocity=106 time=0
EXTRACT: note_on channel=2 note=57 velocity=117 time=0
EXTRACT: note_on channel=2 note=50 velocity=114 time=0
EXTRACT: note_on channel=1 note=64 velocity=0 time=0.004098358333333333
EXTRACT: note_on channel=1 note=62 velocity=0 time=0
EXTRACT: note_on channel=1 note=57 velocity=0 time=0
EXTRACT: note_on channel=1 note=64 velocity=109 time=0.004098358333333333
EXTRACT: note_on channel=1 note=62 velocity=94 time=0
EXTRACT: note_on channel=1 note=57 velocity=99 time=0
EXTRACT: note_on channel=1 note=50 velocity=111 time=0
EXTRACT: note_on channel=9 note=40 velocity=0 time=0.02868850833333333
EXTRACT: note_on channel=9 note=28 velocity=0 time=0
EXTRACT: note_on channel=2 note=64 velocity=0 time=0.20491791666666664
EXTRACT: note_on channel=2 note=62 velocity=0 time=0
EXTRACT: note_on channel=2 note=57 velocity=0 time=0
EXTRACT: note_on channel=2 note=50 velocity=0 time=0
EXTRACT: note_on channel=5 note=60 velocity=0 time=0.0020491791666666665
EXTRACT: note_on channel=2 note=64 velocity=104 time=0.0020491791666666665
EXTRACT: note_on channel=2 note=62 velocity=79 time=0
EXTRACT: note_on channel=2 note=57 velocity=96 time=0
EXTRACT: note_on channel=5 note=62 velocity=115 time=0.0020491791666666665
EXTRACT: note_on channel=1 note=64 velocity=0 time=0.0020491791666666665
EXTRACT: note_on channel=1 note=62 velocity=0 time=0
EXTRACT: note_on channel=1 note=57 velocity=0 time=0
EXTRACT: note_on channel=1 note=50 velocity=0 time=0
EXTRACT: note_on channel=1 note=64 velocity=70 time=0.004098358333333333
EXTRACT: note_on channel=1 note=62 velocity=110 time=0
EXTRACT: note_on channel=1 note=57 velocity=63 time=0
EXTRACT: note_on channel=9 note=36 velocity=60 time=0.23360642499999998
EXTRACT: note_on channel=5 note=62 velocity=0 time=0.0061475374999999995
EXTRACT: note_on channel=9 note=36 velocity=0 time=0.03483604583333333
EXTRACT: note_on channel=2 note=64 velocity=0 time=0.20491791666666664
EXTRACT: note_on channel=2 note=62 velocity=0 time=0
EXTRACT: note_on channel=2 note=57 velocity=0 time=0
EXTRACT: note_on channel=2 note=65 velocity=81 time=0.004098358333333333
EXTRACT: note_on channel=2 note=62 velocity=83 time=0
EXTRACT: note_on channel=2 note=57 velocity=80 time=0
EXTRACT: note_on channel=1 note=64 velocity=0 time=0.004098358333333333
EXTRACT: note_on channel=1 note=62 velocity=0 time=0
EXTRACT: note_on channel=1 note=57 velocity=0 time=0
EXTRACT: note_on channel=1 note=65 velocity=82 time=0.004098358333333333
EXTRACT: note_on channel=1 note=62 velocity=68 time=0
EXTRACT: note_on channel=1 note=57 velocity=86 time=0
EXTRACT: note_on channel=2 note=65 velocity=0 time=0.23360642499999998
EXTRACT: note_on channel=2 note=62 velocity=0 time=0
EXTRACT: note_on channel=2 note=57 velocity=0 time=0
EXTRACT: note_on channel=9 note=40 velocity=72 time=0
EXTRACT: note_on channel=9 note=28 velocity=72 time=0
EXTRACT: note_on channel=2 note=65 velocity=113 time=0.004098358333333333
EXTRACT: note_on channel=2 note=62 velocity=107 time=0
EXTRACT: note_on channel=2 note=57 velocity=85 time=0
EXTRACT: note_on channel=1 note=65 velocity=0 time=0.004098358333333333
EXTRACT: note_on channel=1 note=62 velocity=0 time=0
EXTRACT: note_on channel=1 note=57 velocity=0 time=0
EXTRACT: note_on channel=1 note=65 velocity=80 time=0.004098358333333333
EXTRACT: note_on channel=1 note=62 velocity=82 time=0
EXTRACT: note_on channel=1 note=57 velocity=92 time=0
EXTRACT: note_on channel=9 note=40 velocity=0 time=0.02868850833333333
EXTRACT: note_on channel=9 note=28 velocity=0 time=0
EXTRACT: note_on channel=2 note=65 velocity=0 time=0.20491791666666664
EXTRACT: note_on channel=2 note=62 velocity=0 time=0
EXTRACT: note_on channel=2 note=57 velocity=0 time=0
EXTRACT: note_on channel=2 note=65 velocity=107 time=0.004098358333333333
EXTRACT: note_on channel=2 note=62 velocity=79 time=0
EXTRACT: note_on channel=2 note=57 velocity=110 time=0
EXTRACT: note_on channel=2 note=50 velocity=94 time=0
EXTRACT: note_on channel=1 note=65 velocity=0 time=0.004098358333333333
EXTRACT: note_on channel=1 note=62 velocity=0 time=0
EXTRACT: note_on channel=1 note=57 velocity=0 time=0
EXTRACT: note_on channel=1 note=65 velocity=92 time=0.004098358333333333
EXTRACT: note_on channel=1 note=62 velocity=114 time=0
EXTRACT: note_on channel=1 note=57 velocity=95 time=0
EXTRACT: note_on channel=1 note=50 velocity=65 time=0
EXTRACT: note_on channel=2 note=65 velocity=0 time=0.23360642499999998
EXTRACT: note_on channel=2 note=62 velocity=0 time=0
EXTRACT: note_on channel=2 note=57 velocity=0 time=0
EXTRACT: note_on channel=2 note=50 velocity=0 time=0
EXTRACT: note_on channel=9 note=36 velocity=60 time=0
EXTRACT: note_on channel=2 note=65 velocity=104 time=0.004098358333333333
EXTRACT: note_on channel=2 note=62 velocity=111 time=0
EXTRACT: note_on channel=2 note=57 velocity=94 time=0
EXTRACT: note_on channel=2 note=50 velocity=114 time=0
EXTRACT: note_on channel=5 note=69 velocity=102 time=0.0020491791666666665
EXTRACT: note_on channel=1 note=65 velocity=0 time=0.0020491791666666665
EXTRACT: note_on channel=1 note=62 velocity=0 time=0
EXTRACT: note_on channel=1 note=57 velocity=0 time=0
EXTRACT: note_on channel=1 note=50 velocity=0 time=0
EXTRACT: note_on channel=1 note=65 velocity=79 time=0.004098358333333333
EXTRACT: note_on channel=1 note=62 velocity=106 time=0
EXTRACT: note_on channel=1 note=57 velocity=113 time=0
EXTRACT: note_on channel=1 note=50 velocity=105 time=0
EXTRACT: note_on channel=9 note=36 velocity=0 time=0.02868850833333333
EXTRACT: note_on channel=2 note=65 velocity=0 time=0.20491791666666664
EXTRACT: note_on channel=2 note=62 velocity=0 time=0
EXTRACT: note_on channel=2 note=57 velocity=0 time=0
EXTRACT: note_on channel=2 note=50 velocity=0 time=0
EXTRACT: note_on channel=9 note=36 velocity=60 time=0
EXTRACT: note_on channel=5 note=69 velocity=0 time=0.0020491791666666665
EXTRACT: note_on channel=2 note=65 velocity=79 time=0.0020491791666666665
EXTRACT: note_on channel=2 note=62 velocity=100 time=0
EXTRACT: note_on channel=2 note=57 velocity=88 time=0
EXTRACT: note_on channel=5 note=60 velocity=103 time=0.0020491791666666665
EXTRACT: note_on channel=1 note=65 velocity=0 time=0.0020491791666666665
EXTRACT: note_on channel=1 note=62 velocity=0 time=0
EXTRACT: note_on channel=1 note=57 velocity=0 time=0
EXTRACT: note_on channel=1 note=50 velocity=0 time=0
EXTRACT: note_on channel=1 note=65 velocity=102 time=0.004098358333333333
EXTRACT: note_on channel=1 note=62 velocity=87 time=0
EXTRACT: note_on channel=1 note=57 velocity=76 time=0
EXTRACT: note_on channel=9 note=36 velocity=0 time=0.02868850833333333
EXTRACT: note_on channel=5 note=60 velocity=0 time=0.08401634583333333
EXTRACT: note_on channel=5 note=60 velocity=97 time=0.004098358333333333
EXTRACT: note_on channel=2 note=65 velocity=0 time=0.11680321249999999
EXTRACT: note_on channel=2 note=62 velocity=0 time=0
EXTRACT: note_on channel=2 note=57 velocity=0 time=0
EXTRACT: note_on channel=9 note=40 velocity=72 time=0
EXTRACT: note_on channel=9 note=28 velocity=72 time=0
EXTRACT: note_on channel=5 note=60 velocity=0 time=0.0020491791666666665
EXTRACT: note_on channel=2 note=65 velocity=90 time=0.0020491791666666665
EXTRACT: note_on channel=2 note=62 velocity=115 time=0
EXTRACT: note_on channel=2 note=57 velocity=106 time=0
EXTRACT: note_on channel=2 note=50 velocity=94 time=0
EXTRACT: note_on channel=5 note=60 velocity=105 time=0.0020491791666666665
EXTRACT: note_on channel=1 note=65 velocity=0 time=0.0020491791666666665
EXTRACT: note_on channel=1 note=62 velocity=0 time=0
EXTRACT: note_on channel=1 note=57 velocity=0 time=0
EXTRACT: note_on channel=1 note=65 velocity=107 time=0.004098358333333333
EXTRACT: note_on channel=1 note=62 velocity=115 time=0
EXTRACT: note_on channel=1 note=57 velocity=115 time=0
EXTRACT: note_on channel=1 note=50 velocity=90 time=0
EXTRACT: note_on channel=9 note=40 velocity=0 time=0.02868850833333333
EXTRACT: note_on channel=9 note=28 velocity=0 time=0
EXTRACT: note_on channel=2 note=65 velocity=0 time=0.20491791666666664
EXTRACT: note_on channel=2 note=62 velocity=0 time=0
EXTRACT: note_on channel=2 note=57 velocity=0 time=0
EXTRACT: note_on channel=2 note=50 velocity=0 time=0
EXTRACT: note_on channel=5 note=60 velocity=0 time=0.0020491791666666665
EXTRACT: note_on channel=2 note=65 velocity=98 time=0.0020491791666666665
EXTRACT: note_on channel=2 note=62 velocity=84 time=0
EXTRACT: note_on channel=2 note=57 velocity=84 time=0
EXTRACT: note_on channel=2 note=50 velocity=109 time=0
EXTRACT: note_on channel=5 note=62 velocity=100 time=0.0020491791666666665
EXTRACT: note_on channel=1 note=65 velocity=0 time=0.0020491791666666665
EXTRACT: note_on channel=1 note=62 velocity=0 time=0
EXTRACT: note_on channel=1 note=57 velocity=0 time=0
EXTRACT: note_on channel=1 note=50 velocity=0 time=0
EXTRACT: note_on channel=1 note=65 velocity=112 time=0.004098358333333333
EXTRACT: note_on channel=1 note=62 velocity=95 time=0
EXTRACT: note_on channel=1 note=57 velocity=99 time=0
EXTRACT: note_on channel=1 note=50 velocity=102 time=0
EXTRACT: note_on channel=2 note=65 velocity=0 time=0.23360642499999998
EXTRACT: note_on channel=2 note=62 velocity=0 time=0
EXTRACT: note_on channel=2 note=57 velocity=0 time=0
EXTRACT: note_on channel=2 note=50 velocity=0 time=0
EXTRACT: note_on channel=9 note=36 velocity=60 time=0
EXTRACT: note_on channel=2 note=64 velocity=100 time=0.004098358333333333
EXTRACT: note_on channel=2 note=62 velocity=116 time=0
EXTRACT: note_on channel=2 note=55 velocity=110 time=0
EXTRACT: note_on channel=2 note=48 velocity=94 time=0
EXTRACT: note_on channel=1 note=65 velocity=0 time=0.004098358333333333
EXTRACT: note_on channel=1 note=62 velocity=0 time=0
EXTRACT: note_on channel=1 note=57 velocity=0 time=0
EXTRACT: note_on channel=1 note=50 velocity=0 time=0
EXTRACT: note_on channel=1 note=64 velocity=110 time=0.004098358333333333
EXTRACT: note_on channel=1 note=62 velocity=92 time=0
EXTRACT: note_on channel=1 note=55 velocity=101 time=0
EXTRACT: note_on channel=1 note=48 velocity=93 time=0
EXTRACT: note_on channel=9 note=36 velocity=0 time=0.02868850833333333
EXTRACT: note_on channel=2 note=64 velocity=0 time=0.45081941666666664
EXTRACT: note_on channel=2 note=62 velocity=0 time=0
EXTRACT: note_on channel=2 note=55 velocity=0 time=0
EXTRACT: note_on channel=2 note=48 velocity=0 time=0
EXTRACT: note_on channel=9 note=40 velocity=72 time=0
EXTRACT: note_on channel=9 note=28 velocity=72 time=0
EXTRACT: note_on channel=2 note=64 velocity=100 time=0.004098358333333333
EXTRACT: note_on channel=2 note=62 velocity=94 time=0
EXTRACT: note_on channel=2 note=55 velocity=90 time=0
EXTRACT: note_on channel=2 note=48 velocity=108 time=0
EXTRACT: note_on channel=1 note=64 velocity=0 time=0.004098358333333333
EXTRACT: note_on channel=1 note=62 velocity=0 time=0
EXTRACT: note_on channel=1 note=55 velocity=0 time=0
EXTRACT: note_on channel=1 note=48 velocity=0 time=0
EXTRACT: note_on channel=1 note=64 velocity=105 time=0.004098358333333333
EXTRACT: note_on channel=1 note=62 velocity=114 time=0
EXTRACT: note_on channel=1 note=55 velocity=112 time=0
EXTRACT: note_on channel=1 note=48 velocity=82 time=0
EXTRACT: note_on channel=9 note=40 velocity=0 time=0.02868850833333333
EXTRACT: note_on channel=9 note=28 velocity=0 time=0
EXTRACT: note_on channel=2 note=64 velocity=0 time=0.45081941666666664
EXTRACT: note_on channel=2 note=62 velocity=0 time=0
EXTRACT: note_on channel=2 note=55 velocity=0 time=0
EXTRACT: note_on channel=2 note=48 velocity=0 time=0
EXTRACT: note_on channel=9 note=36 velocity=60 time=0
EXTRACT: note_on channel=2 note=64 velocity=89 time=0.004098358333333333
EXTRACT: note_on channel=2 note=62 velocity=114 time=0
EXTRACT: note_on channel=2 note=55 velocity=108 time=0
EXTRACT: note_on channel=1 note=64 velocity=0 time=0.004098358333333333
EXTRACT: note_on channel=1 note=62 velocity=0 time=0
EXTRACT: note_on channel=1 note=55 velocity=0 time=0
EXTRACT: note_on channel=1 note=48 velocity=0 time=0
EXTRACT: note_on channel=1 note=64 velocity=98 time=0.004098358333333333
EXTRACT: note_on channel=1 note=62 velocity=80 time=0
EXTRACT: note_on channel=1 note=55 velocity=104 time=0
EXTRACT: note_on channel=9 note=36 velocity=0 time=0.02868850833333333
EXTRACT: note_on channel=2 note=64 velocity=0 time=0.20491791666666664
EXTRACT: note_on channel=2 note=62 velocity=0 time=0
EXTRACT: note_on channel=2 note=55 velocity=0 time=0
EXTRACT: note_on channel=9 note=36 velocity=60 time=0
EXTRACT: note_on channel=2 note=64 velocity=102 time=0.004098358333333333
EXTRACT: note_on channel=2 note=62 velocity=75 time=0
EXTRACT: note_on channel=2 note=55 velocity=102 time=0
EXTRACT: note_on channel=2 note=48 velocity=96 time=0
EXTRACT: note_on channel=1 note=64 velocity=0 time=0.004098358333333333
EXTRACT: note_on channel=1 note=62 velocity=0 time=0
EXTRACT: note_on channel=1 note=55 velocity=0 time=0
EXTRACT: note_on channel=1 note=64 velocity=68 time=0.004098358333333333
EXTRACT: note_on channel=1 note=62 velocity=84 time=0
EXTRACT: note_on channel=1 note=55 velocity=107 time=0
EXTRACT: note_on channel=1 note=48 velocity=66 time=0
EXTRACT: note_on channel=9 note=36 velocity=0 time=0.02868850833333333
EXTRACT: note_on channel=2 note=64 velocity=0 time=0.20491791666666664
EXTRACT: note_on channel=2 note=62 velocity=0 time=0
EXTRACT: note_on channel=2 note=55 velocity=0 time=0
EXTRACT: note_on channel=2 note=48 velocity=0 time=0
EXTRACT: note_on channel=9 note=40 velocity=72 time=0
EXTRACT: note_on channel=9 note=28 velocity=72 time=0
EXTRACT: note_on channel=2 note=64 velocity=106 time=0.004098358333333333
EXTRACT: note_on channel=2 note=62 velocity=104 time=0
EXTRACT: note_on channel=2 note=55 velocity=86 time=0
EXTRACT: note_on channel=2 note=48 velocity=114 time=0
EXTRACT: note_on channel=1 note=64 velocity=0 time=0.004098358333333333
EXTRACT: note_on channel=1 note=62 velocity=0 time=0
EXTRACT: note_on channel=1 note=55 velocity=0 time=0
EXTRACT: note_on channel=1 note=48 velocity=0 time=0
EXTRACT: note_on channel=1 note=64 velocity=97 time=0.004098358333333333
EXTRACT: note_on channel=1 note=62 velocity=108 time=0
EXTRACT: note_on channel=1 note=55 velocity=107 time=0
EXTRACT: note_on channel=1 note=48 velocity=85 time=0
EXTRACT: note_on channel=9 note=40 velocity=0 time=0.02868850833333333
EXTRACT: note_on channel=9 note=28 velocity=0 time=0
EXTRACT: note_on channel=2 note=64 velocity=0 time=0.20491791666666664
EXTRACT: note_on channel=2 note=62 velocity=0 time=0
EXTRACT: note_on channel=2 note=55 velocity=0 time=0
EXTRACT: note_on channel=2 note=48 velocity=0 time=0
EXTRACT: note_on channel=2 note=64 velocity=79 time=0.004098358333333333
EXTRACT: note_on channel=2 note=62 velocity=74 time=0
EXTRACT: note_on channel=2 note=55 velocity=85 time=0
EXTRACT: note_on channel=0 note=36 velocity=118 time=0.004098358333333333
EXTRACT: note_on channel=1 note=64 velocity=0 time=0
EXTRACT: note_on channel=1 note=62 velocity=0 time=0
EXTRACT: note_on channel=1 note=55 velocity=0 time=0
EXTRACT: note_on channel=1 note=48 velocity=0 time=0
EXTRACT: note_on channel=1 note=64 velocity=99 time=0.004098358333333333
EXTRACT: note_on channel=1 note=62 velocity=112 time=0
EXTRACT: note_on channel=1 note=55 velocity=85 time=0
EXTRACT: note_on channel=0 note=36 velocity=0 time=0.18032776666666667
EXTRACT: note_on channel=9 note=36 velocity=60 time=0.053278658333333326
EXTRACT: note_on channel=5 note=62 velocity=0 time=0.0061475374999999995
EXTRACT: note_on channel=0 note=36 velocity=113 time=0.0020491791666666665
EXTRACT: note_on channel=9 note=36 velocity=0 time=0.032786866666666664
EXTRACT: note_on channel=0 note=36 velocity=0 time=0.15163925833333333
EXTRACT: note_on channel=2 note=64 velocity=0 time=0.053278658333333326
EXTRACT: note_on channel=2 note=62 velocity=0 time=0
EXTRACT: note_on channel=2 note=55 velocity=0 time=0
EXTRACT: note_on channel=2 note=64 velocity=106 time=0.004098358333333333
EXTRACT: note_on channel=2 note=60 velocity=78 time=0
EXTRACT: note_on channel=2 note=55 velocity=88 time=0
EXTRACT: note_on channel=0 note=36 velocity=122 time=0.004098358333333333
EXTRACT: note_on channel=1 note=64 velocity=0 time=0
EXTRACT: note_on channel=1 note=62 velocity=0 time=0
EXTRACT: note_on channel=1 note=55 velocity=0 time=0
EXTRACT: note_on channel=1 note=64 velocity=116 time=0.004098358333333333
EXTRACT: note_on channel=1 note=60 velocity=60 time=0
EXTRACT: note_on channel=1 note=55 velocity=101 time=0
EXTRACT: note_on channel=2 note=64 velocity=0 time=0.23360642499999998
EXTRACT: note_on channel=2 note=60 velocity=0 time=0
EXTRACT: note_on channel=2 note=55 velocity=0 time=0
EXTRACT: note_on channel=9 note=40 velocity=72 time=0
EXTRACT: note_on channel=9 note=28 velocity=72 time=0
EXTRACT: note_on channel=0 note=36 velocity=0 time=0.004098358333333333
EXTRACT: note_on channel=2 note=64 velocity=86 time=0
EXTRACT: note_on channel=2 note=60 velocity=85 time=0
EXTRACT: note_on channel=2 note=55 velocity=103 time=0
EXTRACT: note_on channel=2 note=48 velocity=100 time=0
EXTRACT: note_on channel=0 note=36 velocity=105 time=0.004098358333333333
EXTRACT: note_on channel=1 note=64 velocity=0 time=0
EXTRACT: note_on channel=1 note=60 velocity=0 time=0
EXTRACT: note_on channel=1 note=55 velocity=0 time=0
EXTRACT: note_on channel=1 note=64 velocity=102 time=0.004098358333333333
EXTRACT: note_on channel=1 note=60 velocity=86 time=0
EXTRACT: note_on channel=1 note=55 velocity=85 time=0
EXTRACT: note_on channel=1 note=48 velocity=107 time=0
EXTRACT: note_on channel=9 note=40 velocity=0 time=0.02868850833333333
EXTRACT: note_on channel=9 note=28 velocity=0 time=0
EXTRACT: note_on channel=2 note=64 velocity=0 time=0.20491791666666664
EXTRACT: note_on channel=2 note=60 velocity=0 time=0
EXTRACT: note_on channel=2 note=55 velocity=0 time=0
EXTRACT: note_on channel=2 note=48 velocity=0 time=0
EXTRACT: note_on channel=2 note=64 velocity=107 time=0.004098358333333333
EXTRACT: note_on channel=2 note=60 velocity=87 time=0
EXTRACT: note_on channel=2 note=55 velocity=87 time=0
EXTRACT: note_on channel=0 note=36 velocity=0 time=0.004098358333333333
EXTRACT: note_on channel=1 note=64 velocity=0 time=0
EXTRACT: note_on channel=1 note=60 velocity=0 time=0
EXTRACT: note_on channel=1 note=55 velocity=0 time=0
EXTRACT: note_on channel=1 note=48 velocity=0 time=0
EXTRACT: note_on channel=1 note=64 velocity=63 time=0.004098358333333333
EXTRACT: note_on channel=1 note=60 velocity=99 time=0
EXTRACT: note_on channel=1 note=55 velocity=64 time=0
EXTRACT: note_on channel=2 note=64 velocity=0 time=0.23360642499999998
EXTRACT: note_on channel=2 note=60 velocity=0 time=0
EXTRACT: note_on channel=2 note=55 velocity=0 time=0
EXTRACT: note_on channel=9 note=36 velocity=60 time=0
EXTRACT: note_on channel=2 note=64 velocity=103 time=0.004098358333333333
EXTRACT: note_on channel=2 note=60 velocity=100 time=0
EXTRACT: note_on channel=2 note=55 velocity=93 time=0
EXTRACT: note_on channel=2 note=48 velocity=109 time=0
EXTRACT: note_on channel=1 note=64 velocity=0 time=0.004098358333333333
EXTRACT: note_on channel=1 note=60 velocity=0 time=0
EXTRACT: note_on channel=1 note=55 velocity=0 time=0
EXTRACT: note_on channel=1 note=64 velocity=105 time=0.004098358333333333
EXTRACT: note_on channel=1 note=60 velocity=108 time=0
EXTRACT: note_on channel=1 note=55 velocity=99 time=0
EXTRACT: note_on channel=1 note=48 velocity=89 time=0
EXTRACT: note_on channel=9 note=36 velocity=0 time=0.02868850833333333
EXTRACT: note_on channel=2 note=64 velocity=0 time=0.20491791666666664
EXTRACT: note_on channel=2 note=60 velocity=0 time=0
EXTRACT: note_on channel=2 note=55 velocity=0 time=0
EXTRACT: note_on channel=2 note=48 velocity=0 time=0
EXTRACT: note_on channel=9 note=36 velocity=60 time=0
EXTRACT: note_on channel=2 note=64 velocity=79 time=0.004098358333333333
EXTRACT: note_on channel=2 note=60 velocity=79 time=0
EXTRACT: note_on channel=2 note=55 velocity=74 time=0
EXTRACT: note_on channel=0 note=36 velocity=127 time=0.004098358333333333
EXTRACT: note_on channel=1 note=64 velocity=0 time=0
EXTRACT: note_on channel=1 note=60 velocity=0 time=0
EXTRACT: note_on channel=1 note=55 velocity=0 time=0
EXTRACT: note_on channel=1 note=48 velocity=0 time=0
EXTRACT: note_on channel=1 note=64 velocity=92 time=0.004098358333333333
EXTRACT: note_on channel=1 note=60 velocity=72 time=0
EXTRACT: note_on channel=1 note=55 velocity=82 time=0
EXTRACT: note_on channel=9 note=36 velocity=0 time=0.02868850833333333
EXTRACT: note_on channel=0 note=36 velocity=0 time=0.15163925833333333
EXTRACT: note_on channel=2 note=64 velocity=0 time=0.053278658333333326
EXTRACT: note_on channel=2 note=60 velocity=0 time=0
EXTRACT: note_on channel=2 note=55 velocity=0 time=0
EXTRACT: note_on channel=9 note=40 velocity=72 time=0
EXTRACT: note_on channel=9 note=28 velocity=72 time=0
EXTRACT: note_on channel=2 note=64 velocity=99 time=0.004098358333333333
EXTRACT: note_on channel=2 note=60 velocity=113 time=0
EXTRACT: note_on channel=2 note=55 velocity=97 time=0
EXTRACT: note_on channel=2 note=48 velocity=97 time=0
EXTRACT: note_on channel=0 note=33 velocity=114 time=0.004098358333333333
EXTRACT: note_on channel=1 note=64 velocity=0 time=0
EXTRACT: note_on channel=1 note=60 velocity=0 time=0
EXTRACT: note_on channel=1 note=55 velocity=0 time=0
EXTRACT: note_on channel=1 note=64 velocity=94 time=0.004098358333333333
EXTRACT: note_on channel=1 note=60 velocity=82 time=0
EXTRACT: note_on channel=1 note=55 velocity=106 time=0
EXTRACT: note_on channel=1 note=48 velocity=93 time=0
EXTRACT: note_on channel=9 note=40 velocity=0 time=0.02868850833333333
EXTRACT: note_on channel=9 note=28 velocity=0 time=0
EXTRACT: note_on channel=2 note=64 velocity=0 time=0.20491791666666664
EXTRACT: note_on channel=2 note=60 velocity=0 time=0
EXTRACT: note_on channel=2 note=55 velocity=0 time=0
EXTRACT: note_on channel=2 note=48 velocity=0 time=0
EXTRACT: note_on channel=2 note=64 velocity=91 time=0.004098358333333333
EXTRACT: note_on channel=2 note=60 velocity=110 time=0
EXTRACT: note_on channel=2 note=55 velocity=94 time=0
EXTRACT: note_on channel=0 note=33 velocity=0 time=0.004098358333333333
EXTRACT: note_on channel=1 note=64 velocity=0 time=0
EXTRACT: note_on channel=1 note=60 velocity=0 time=0
EXTRACT: note_on channel=1 note=55 velocity=0 time=0
EXTRACT: note_on channel=1 note=48 velocity=0 time=0
EXTRACT: note_on channel=1 note=64 velocity=68 time=0.004098358333333333
EXTRACT: note_on channel=1 note=60 velocity=73 time=0
EXTRACT: note_on channel=1 note=55 velocity=75 time=0
EXTRACT: note_on channel=2 note=64 velocity=0 time=0.23360642499999998
EXTRACT: note_on channel=2 note=60 velocity=0 time=0
EXTRACT: note_on channel=2 note=55 velocity=0 time=0
EXTRACT: note_on channel=9 note=36 velocity=60 time=0
EXTRACT: note_on channel=2 note=64 velocity=100 time=0.004098358333333333
EXTRACT: note_on channel=2 note=62 velocity=95 time=0
EXTRACT: note_on channel=2 note=57 velocity=91 time=0
EXTRACT: note_on channel=2 note=50 velocity=115 time=0
EXTRACT: note_on channel=0 note=38 velocity=116 time=0.004098358333333333
EXTRACT: note_on channel=1 note=64 velocity=0 time=0
EXTRACT: note_on channel=1 note=60 velocity=0 time=0
EXTRACT: note_on channel=1 note=55 velocity=0 time=0
EXTRACT: note_on channel=1 note=64 velocity=80 time=0.004098358333333333
EXTRACT: note_on channel=1 note=62 velocity=100 time=0
EXTRACT: note_on channel=1 note=57 velocity=89 time=0
EXTRACT: note_on channel=1 note=50 velocity=83 time=0
EXTRACT: note_on channel=9 note=36 velocity=0 time=0.02868850833333333
EXTRACT: note_on channel=0 note=38 velocity=0 time=0.15163925833333333
EXTRACT: note_on channel=0 note=38 velocity=102 time=0.061475375
EXTRACT: note_on channel=2 note=64 velocity=0 time=0.2377047833333333
EXTRACT: note_on channel=2 note=62 velocity=0 time=0
EXTRACT: note_on channel=2 note=57 velocity=0 time=0
EXTRACT: note_on channel=2 note=50 velocity=0 time=0
EXTRACT: note_on channel=9 note=40 velocity=72 time=0
EXTRACT: note_on channel=9 note=28 velocity=72 time=0
EXTRACT: note_on channel=0 note=38 velocity=0 time=0.004098358333333333
EXTRACT: note_on channel=2 note=64 velocity=104 time=0
EXTRACT: note_on channel=2 note=62 velocity=107 time=0
EXTRACT: note_on channel=2 note=57 velocity=106 time=0
EXTRACT: note_on channel=2 note=50 velocity=106 time=0
EXTRACT: note_on channel=0 note=38 velocity=109 time=0.004098358333333333
EXTRACT: note_on channel=1 note=64 velocity=0 time=0
EXTRACT: note_on channel=1 note=62 velocity=0 time=0
EXTRACT: note_on channel=1 note=57 velocity=0 time=0
EXTRACT: note_on channel=1 note=50 velocity=0 time=0
EXTRACT: note_on channel=1 note=64 velocity=96 time=0.004098358333333333
EXTRACT: note_on channel=1 note=62 velocity=83 time=0
EXTRACT: note_on channel=1 note=57 velocity=101 time=0
EXTRACT: note_on channel=1 note=50 velocity=105 time=0
EXTRACT: note_on channel=9 note=40 velocity=0 time=0.02868850833333333
EXTRACT: note_on channel=9 note=28 velocity=0 time=0
EXTRACT: note_on channel=5 note=62 velocity=89 time=0.21106545416666664
EXTRACT: note_on channel=0 note=38 velocity=0 time=0.0020491791666666665
EXTRACT: note_on channel=2 note=64 velocity=0 time=0.2377047833333333
EXTRACT: note_on channel=2 note=62 velocity=0 time=0
EXTRACT: note_on channel=2 note=57 velocity=0 time=0
EXTRACT: note_on channel=2 note=50 velocity=0 time=0
EXTRACT: note_on channel=9 note=36 velocity=60 time=0
EXTRACT: note_on channel=5 note=62 velocity=0 time=0.0020491791666666665
EXTRACT: note_on channel=2 note=64 velocity=97 time=0.0020491791666666665
EXTRACT: note_on channel=2 note=62 velocity=88 time=0
EXTRACT: note_on channel=2 note=57 velocity=107 time=0
EXTRACT: note_on channel=2 note=50 velocity=85 time=0
EXTRACT: note_on channel=5 note=69 velocity=102 time=0.0020491791666666665
EXTRACT: note_on channel=1 note=64 velocity=0 time=0.0020491791666666665
EXTRACT: note_on channel=1 note=62 velocity=0 time=0
EXTRACT: note_on channel=1 note=57 velocity=0 time=0
EXTRACT: note_on channel=1 note=50 velocity=0 time=0
EXTRACT: note_on channel=1 note=64 velocity=86 time=0.004098358333333333
EXTRACT: note_on channel=1 note=62 velocity=81 time=0
EXTRACT: note_on channel=1 note=57 velocity=114 time=0
EXTRACT: note_on channel=1 note=50 velocity=95 time=0
EXTRACT: note_on channel=9 note=36 velocity=0 time=0.02868850833333333
EXTRACT: note_on channel=2 note=64 velocity=0 time=0.20491791666666664
EXTRACT: note_on channel=2 note=62 velocity=0 time=0
EXTRACT: note_on channel=2 note=57 velocity=0 time=0
EXTRACT: note_on channel=2 note=50 velocity=0 time=0
EXTRACT: note_on channel=9 note=36 velocity=60 time=0
EXTRACT: note_on channel=5 note=69 velocity=0 time=0.0020491791666666665
EXTRACT: note_on channel=2 note=64 velocity=74 time=0.0020491791666666665
EXTRACT: note_on channel=2 note=62 velocity=76 time=0
EXTRACT: note_on channel=2 note=57 velocity=98 time=0
EXTRACT: note_on channel=5 note=69 velocity=96 time=0.0020491791666666665
EXTRACT: note_on channel=1 note=64 velocity=0 time=0.0020491791666666665
EXTRACT: note_on channel=1 note=62 velocity=0 time=0
EXTRACT: note_on channel=1 note=57 velocity=0 time=0
EXTRACT: note_on channel=1 note=50 velocity=0 time=0
EXTRACT: note_on channel=1 note=64 velocity=91 time=0.004098358333333333
EXTRACT: note_on channel=1 note=62 velocity=99 time=0
EXTRACT: note_on channel=1 note=57 velocity=68 time=0
EXTRACT: note_on channel=9 note=36 velocity=0 time=0.02868850833333333
EXTRACT: note_on channel=2 note=64 velocity=0 time=0.20491791666666664
EXTRACT: note_on channel=2 note=62 velocity=0 time=0
EXTRACT: note_on channel=2 note=57 velocity=0 time=0
EXTRACT: note_on channel=9 note=40 velocity=72 time=0
EXTRACT: note_on channel=9 note=28 velocity=72 time=0
EXTRACT: note_on channel=5 note=69 velocity=0 time=0.0020491791666666665
EXTRACT: note_on channel=2 note=64 velocity=113 time=0.0020491791666666665
EXTRACT: note_on channel=2 note=62 velocity=90 time=0
EXTRACT: note_on channel=2 note=57 velocity=101 time=0
EXTRACT: note_on channel=2 note=50 velocity=96 time=0
EXTRACT: note_on channel=5 note=69 velocity=100 time=0.0020491791666666665
EXTRACT: note_on channel=1 note=64 velocity=0 time=0.0020491791666666665
EXTRACT: note_on channel=1 note=62 velocity=0 time=0
EXTRACT: note_on channel=1 note=57 velocity=0 time=0
EXTRACT: note_on channel=1 note=64 velocity=92 time=0.004098358333333333
EXTRACT: note_on channel=1 note=62 velocity=102 time=0
EXTRACT: note_on channel=1 note=57 velocity=84 time=0
EXTRACT: note_on channel=1 note=50 velocity=98 time=0
EXTRACT: note_on channel=9 note=40 velocity=0 time=0.02868850833333333
EXTRACT: note_on channel=9 note=28 velocity=0 time=0
EXTRACT: note_on channel=2 note=64 velocity=0 time=0.20491791666666664
EXTRACT: note_on channel=2 note=62 velocity=0 time=0
EXTRACT: note_on channel=2 note=57 velocity=0 time=0
EXTRACT: note_on channel=2 note=50 velocity=0 time=0
EXTRACT: note_on channel=5 note=69 velocity=0 time=0.0020491791666666665
EXTRACT: note_on channel=2 note=64 velocity=73 time=0.0020491791666666665
EXTRACT: note_on channel=2 note=62 velocity=69 time=0
EXTRACT: note_on channel=2 note=57 velocity=70 time=0
EXTRACT: note_on channel=5 note=62 velocity=98 time=0.0020491791666666665
EXTRACT: note_on channel=1 note=64 velocity=0 time=0.0020491791666666665
EXTRACT: note_on channel=1 note=62 velocity=0 time=0
EXTRACT: note_on channel=1 note=57 velocity=0 time=0
EXTRACT: note_on channel=1 note=50 velocity=0 time=0
EXTRACT: note_on channel=1 note=64 velocity=94 time=0.004098358333333333
EXTRACT: note_on channel=1 note=62 velocity=65 time=0
EXTRACT: note_on channel=1 note=57 velocity=76 time=0
EXTRACT: note_on channel=9 note=36 velocity=60 time=0.23360642499999998
EXTRACT: note_on channel=9 note=36 velocity=0 time=0.04098358333333333
EXTRACT: note_on channel=2 note=64 velocity=0 time=0.20491791666666664
EXTRACT: note_on channel=2 note=62 velocity=0 time=0
EXTRACT: note_on channel=2 note=57 velocity=0 time=0
EXTRACT: note_on channel=2 note=65 velocity=73 time=0.004098358333333333
EXTRACT: note_on channel=2 note=62 velocity=92 time=0
EXTRACT: note_on channel=2 note=57 velocity=100 time=0
EXTRACT: note_on channel=1 note=64 velocity=0 time=0.004098358333333333
EXTRACT: note_on channel=1 note=62 velocity=0 time=0
EXTRACT: note_on channel=1 note=57 velocity=0 time=0
EXTRACT: note_on channel=1 note=65 velocity=103 time=0.004098358333333333
EXTRACT: note_on channel=1 note=62 velocity=61 time=0
EXTRACT: note_on channel=1 note=57 velocity=98 time=0
EXTRACT: note_on channel=2 note=65 velocity=0 time=0.23360642499999998
EXTRACT: note_on channel=2 note=62 velocity=0 time=0
EXTRACT: note_on channel=2 note=57 velocity=0 time=0
EXTRACT: note_on channel=9 note=40 velocity=72 time=0
EXTRACT: note_on channel=9 note=28 velocity=72 time=0
EXTRACT: note_on channel=2 note=65 velocity=86 time=0.004098358333333333
EXTRACT: note_on channel=2 note=62 velocity=86 time=0
EXTRACT: note_on channel=2 note=57 velocity=90 time=0
EXTRACT: note_on channel=5 note=62 velocity=0 time=0.0020491791666666665
EXTRACT: note_on channel=1 note=65 velocity=0 time=0.0020491791666666665
EXTRACT: note_on channel=1 note=62 velocity=0 time=0
EXTRACT: note_on channel=1 note=57 velocity=0 time=0
EXTRACT: note_on channel=1 note=65 velocity=111 time=0.004098358333333333
EXTRACT: note_on channel=1 note=62 velocity=92 time=0
EXTRACT: note_on channel=1 note=57 velocity=116 time=0
EXTRACT: note_on channel=9 note=40 velocity=0 time=0.02868850833333333
EXTRACT: note_on channel=9 note=28 velocity=0 time=0
EXTRACT: note_on channel=2 note=65 velocity=0 time=0.20491791666666664
EXTRACT: note_on channel=2 note=62 velocity=0 time=0
EXTRACT: note_on channel=2 note=57 velocity=0 time=0
EXTRACT: note_on channel=2 note=65 velocity=68 time=0.004098358333333333
EXTRACT: note_on channel=2 note=62 velocity=87 time=0
EXTRACT: note_on channel=2 note=57 velocity=115 time=0
EXTRACT: note_on channel=2 note=50 velocity=90 time=0
EXTRACT: note_on channel=1 note=65 velocity=0 time=0.004098358333333333
EXTRACT: note_on channel=1 note=62 velocity=0 time=0
EXTRACT: note_on channel=1 note=57 velocity=0 time=0
EXTRACT: note_on channel=1 note=65 velocity=80 time=0.004098358333333333
EXTRACT: note_on channel=1 note=62 velocity=91 time=0
EXTRACT: note_on channel=1 note=57 velocity=100 time=0
EXTRACT: note_on channel=1 note=50 velocity=63 time=0
EXTRACT: note_on channel=2 note=65 velocity=0 time=0.23360642499999998
EXTRACT: note_on channel=2 note=62 velocity=0 time=0
EXTRACT: note_on channel=2 note=57 velocity=0 time=0
EXTRACT: note_on channel=2 note=50 velocity=0 time=0
EXTRACT: note_on channel=9 note=36 velocity=60 time=0
EXTRACT: note_on channel=2 note=65 velocity=103 time=0.004098358333333333
EXTRACT: note_on channel=2 note=62 velocity=117 time=0
EXTRACT: note_on channel=2 note=57 velocity=100 time=0
EXTRACT: note_on channel=2 note=50 velocity=86 time=0
EXTRACT: note_on channel=5 note=69 velocity=111 time=0.0020491791666666665
EXTRACT: note_on channel=1 note=65 velocity=0 time=0.0020491791666666665
EXTRACT: note_on channel=1 note=62 velocity=0 time=0
EXTRACT: note_on channel=1 note=57 velocity=0 time=0
EXTRACT: note_on channel=1 note=50 velocity=0 time=0
EXTRACT: note_on channel=1 note=65 velocity=96 time=0.004098358333333333
EXTRACT: note_on channel=1 note=62 velocity=111 time=0
EXTRACT: note_on channel=1 note=57 velocity=106 time=0
EXTRACT: note_on channel=1 note=50 velocity=79 time=0
EXTRACT: note_on channel=9 note=36 velocity=0 time=0.02868850833333333
EXTRACT: note_on channel=2 note=65 velocity=0 time=0.20491791666666664
EXTRACT: note_on channel=2 note=62 velocity=0 time=0
EXTRACT: note_on channel=2 note=57 velocity=0 time=0
EXTRACT: note_on channel=2 note=50 velocity=0 time=0
EXTRACT: note_on channel=9 note=36 velocity=60 time=0
EXTRACT: note_on channel=5 note=69 velocity=0 time=0.0020491791666666665
EXTRACT: note_on channel=2 note=65 velocity=115 time=0.0020491791666666665
EXTRACT: note_on channel=2 note=62 velocity=85 time=0
EXTRACT: note_on channel=2 note=57 velocity=98 time=0
EXTRACT: note_on channel=5 note=62 velocity=109 time=0.0020491791666666665
EXTRACT: note_on channel=1 note=65 velocity=0 time=0.0020491791666666665
EXTRACT: note_on channel=1 note=62 velocity=0 time=0
EXTRACT: note_on channel=1 note=57 velocity=0 time=0
EXTRACT: note_on channel=1 note=50 velocity=0 time=0
EXTRACT: note_on channel=1 note=65 velocity=100 time=0.004098358333333333
EXTRACT: note_on channel=1 note=62 velocity=67 time=0
EXTRACT: note_on channel=1 note=57 velocity=117 time=0
EXTRACT: note_on channel=9 note=36 velocity=0 time=0.02868850833333333
EXTRACT: note_on channel=2 note=65 velocity=0 time=0.20491791666666664
EXTRACT: note_on channel=2 note=62 velocity=0 time=0
EXTRACT: note_on channel=2 note=57 velocity=0 time=0
EXTRACT: note_on channel=9 note=40 velocity=72 time=0
EXTRACT: note_on channel=9 note=28 velocity=72 time=0
EXTRACT: note_on channel=5 note=62 velocity=0 time=0.0020491791666666665
EXTRACT: note_on channel=2 note=65 velocity=109 time=0.0020491791666666665
EXTRACT: note_on channel=2 note=62 velocity=93 time=0
EXTRACT: note_on channel=2 note=57 velocity=101 time=0
EXTRACT: note_on channel=2 note=50 velocity=86 time=0
EXTRACT: note_on channel=5 note=60 velocity=90 time=0.0020491791666666665
EXTRACT: note_on channel=1 note=65 velocity=0 time=0.0020491791666666665
EXTRACT: note_on channel=1 note=62 velocity=0 time=0
EXTRACT: note_on channel=1 note=57 velocity=0 time=0
EXTRACT: note_on channel=1 note=65 velocity=116 time=0.004098358333333333
EXTRACT: note_on channel=1 note=62 velocity=116 time=0
EXTRACT: note_on channel=1 note=57 velocity=113 time=0
EXTRACT: note_on channel=1 note=50 velocity=97 time=0
EXTRACT: note_on channel=9 note=40 velocity=0 time=0.02868850833333333
EXTRACT: note_on channel=9 note=28 velocity=0 time=0
EXTRACT: note_on channel=2 note=65 velocity=0 time=0.20491791666666664
EXTRACT: note_on channel=2 note=62 velocity=0 time=0
EXTRACT: note_on channel=2 note=57 velocity=0 time=0
EXTRACT: note_on channel=2 note=50 velocity=0 time=0
EXTRACT: note_on channel=5 note=60 velocity=0 time=0.0020491791666666665
EXTRACT: note_on channel=2 note=65 velocity=114 time=0.0020491791666666665
EXTRACT: note_on channel=2 note=62 velocity=93 time=0
EXTRACT: note_on channel=2 note=57 velocity=92 time=0
EXTRACT: note_on channel=2 note=50 velocity=78 time=0
EXTRACT: note_on channel=5 note=62 velocity=99 time=0.0020491791666666665
EXTRACT: note_on channel=1 note=65 velocity=0 time=0.0020491791666666665
EXTRACT: note_on channel=1 note=62 velocity=0 time=0
EXTRACT: note_on channel=1 note=57 velocity=0 time=0
EXTRACT: note_on channel=1 note=50 velocity=0 time=0
EXTRACT: note_on channel=1 note=65 velocity=86 time=0.004098358333333333
EXTRACT: note_on channel=1 note=62 velocity=79 time=0
EXTRACT: note_on channel=1 note=57 velocity=66 time=0
EXTRACT: note_on channel=1 note=50 velocity=74 time=0
EXTRACT: note_on channel=2 note=65 velocity=0 time=0.23360642499999998
EXTRACT: note_on channel=2 note=62 velocity=0 time=0
EXTRACT: note_on channel=2 note=57 velocity=0 time=0
EXTRACT: note_on channel=2 note=50 velocity=0 time=0
EXTRACT: note_on channel=9 note=36 velocity=60 time=0
EXTRACT: note_on channel=2 note=64 velocity=89 time=0.004098358333333333
EXTRACT: note_on channel=2 note=62 velocity=112 time=0
EXTRACT: note_on channel=2 note=55 velocity=110 time=0
EXTRACT: note_on channel=2 note=48 velocity=98 time=0
EXTRACT: note_on channel=1 note=65 velocity=0 time=0.004098358333333333
EXTRACT: note_on channel=1 note=62 velocity=0 time=0
EXTRACT: note_on channel=1 note=57 velocity=0 time=0
EXTRACT: note_on channel=1 note=50 velocity=0 time=0
EXTRACT: note_on channel=1 note=64 velocity=83 time=0.004098358333333333
EXTRACT: note_on channel=1 note=62 velocity=108 time=0
EXTRACT: note_on channel=1 note=55 velocity=105 time=0
EXTRACT: note_on channel=1 note=48 velocity=111 time=0
EXTRACT: note_on channel=9 note=36 velocity=0 time=0.02868850833333333
EXTRACT: note_on channel=2 note=64 velocity=0 time=0.45081941666666664
EXTRACT: note_on channel=2 note=62 velocity=0 time=0
EXTRACT: note_on channel=2 note=55 velocity=0 time=0
EXTRACT: note_on channel=2 note=48 velocity=0 time=0
EXTRACT: note_on channel=9 note=40 velocity=72 time=0
EXTRACT: note_on channel=9 note=28 velocity=72 time=0
EXTRACT: note_on channel=2 note=64 velocity=94 time=0.004098358333333333
EXTRACT: note_on channel=2 note=62 velocity=94 time=0
EXTRACT: note_on channel=2 note=55 velocity=112 time=0
EXTRACT: note_on channel=2 note=48 velocity=94 time=0
EXTRACT: note_on channel=1 note=64 velocity=0 time=0.004098358333333333
EXTRACT: note_on channel=1 note=62 velocity=0 time=0
EXTRACT: note_on channel=1 note=55 velocity=0 time=0
EXTRACT: note_on channel=1 note=48 velocity=0 time=0
EXTRACT: note_on channel=1 note=64 velocity=83 time=0.004098358333333333
EXTRACT: note_on channel=1 note=62 velocity=90 time=0
EXTRACT: note_on channel=1 note=55 velocity=114 time=0
EXTRACT: note_on channel=1 note=48 velocity=96 time=0
EXTRACT: note_on channel=9 note=40 velocity=0 time=0.02868850833333333
EXTRACT: note_on channel=9 note=28 velocity=0 time=0
EXTRACT: note_on channel=2 note=64 velocity=0 time=0.45081941666666664
EXTRACT: note_on channel=2 note=62 velocity=0 time=0
EXTRACT: note_on channel=2 note=55 velocity=0 time=0
EXTRACT: note_on channel=2 note=48 velocity=0 time=0
EXTRACT: note_on channel=9 note=36 velocity=60 time=0
EXTRACT: note_on channel=2 note=64 velocity=94 time=0.004098358333333333
EXTRACT: note_on channel=2 note=62 velocity=111 time=0
EXTRACT: note_on channel=2 note=55 velocity=99 time=0
EXTRACT: note_on channel=1 note=64 velocity=0 time=0.004098358333333333
EXTRACT: note_on channel=1 note=62 velocity=0 time=0
EXTRACT: note_on channel=1 note=55 velocity=0 time=0
EXTRACT: note_on channel=1 note=48 velocity=0 time=0
EXTRACT: note_on channel=1 note=64 velocity=100 time=0.004098358333333333
EXTRACT: note_on channel=1 note=62 velocity=109 time=0
EXTRACT: note_on channel=1 note=55 velocity=90 time=0
EXTRACT: note_on channel=9 note=36 velocity=0 time=0.02868850833333333
EXTRACT: note_on channel=2 note=64 velocity=0 time=0.20491791666666664
EXTRACT: note_on channel=2 note=62 velocity=0 time=0
EXTRACT: note_on channel=2 note=55 velocity=0 time=0
EXTRACT: note_on channel=9 note=36 velocity=60 time=0
EXTRACT: note_on channel=2 note=64 velocity=115 time=0.004098358333333333
EXTRACT: note_on channel=2 note=62 velocity=91 time=0
EXTRACT: note_on channel=2 note=55 velocity=107 time=0
EXTRACT: note_on channel=2 note=48 velocity=66 time=0
EXTRACT: note_on channel=1 note=64 velocity=0 time=0.004098358333333333
EXTRACT: note_on channel=1 note=62 velocity=0 time=0
EXTRACT: note_on channel=1 note=55 velocity=0 time=0
EXTRACT: note_on channel=1 note=64 velocity=96 time=0.004098358333333333
EXTRACT: note_on channel=1 note=62 velocity=61 time=0
EXTRACT: note_on channel=1 note=55 velocity=98 time=0
EXTRACT: note_on channel=1 note=48 velocity=109 time=0
EXTRACT: note_on channel=9 note=36 velocity=0 time=0.02868850833333333
EXTRACT: note_on channel=2 note=64 velocity=0 time=0.20491791666666664
EXTRACT: note_on channel=2 note=62 velocity=0 time=0
EXTRACT: note_on channel=2 note=55 velocity=0 time=0
EXTRACT: note_on channel=2 note=48 velocity=0 time=0
EXTRACT: note_on channel=9 note=40 velocity=72 time=0
EXTRACT: note_on channel=9 note=28 velocity=72 time=0
EXTRACT: note_on channel=2 note=64 velocity=91 time=0.004098358333333333
EXTRACT: note_on channel=2 note=62 velocity=92 time=0
EXTRACT: note_on channel=2 note=55 velocity=91 time=0
EXTRACT: note_on channel=2 note=48 velocity=103 time=0
EXTRACT: note_on channel=1 note=64 velocity=0 time=0.004098358333333333
EXTRACT: note_on channel=1 note=62 velocity=0 time=0
EXTRACT: note_on channel=1 note=55 velocity=0 time=0
EXTRACT: note_on channel=1 note=48 velocity=0 time=0
EXTRACT: note_on channel=1 note=64 velocity=99 time=0.004098358333333333
EXTRACT: note_on channel=1 note=62 velocity=113 time=0
EXTRACT: note_on channel=1 note=55 velocity=105 time=0
EXTRACT: note_on channel=1 note=48 velocity=90 time=0
EXTRACT: note_on channel=9 note=40 velocity=0 time=0.02868850833333333
EXTRACT: note_on channel=9 note=28 velocity=0 time=0
EXTRACT: note_on channel=2 note=64 velocity=0 time=0.20491791666666664
EXTRACT: note_on channel=2 note=62 velocity=0 time=0
EXTRACT: note_on channel=2 note=55 velocity=0 time=0
EXTRACT: note_on channel=2 note=48 velocity=0 time=0
EXTRACT: note_on channel=2 note=64 velocity=114 time=0.004098358333333333
EXTRACT: note_on channel=2 note=62 velocity=97 time=0
EXTRACT: note_on channel=2 note=55 velocity=90 time=0
EXTRACT: note_on channel=0 note=36 velocity=118 time=0.004098358333333333
EXTRACT: note_on channel=1 note=64 velocity=0 time=0
EXTRACT: note_on channel=1 note=62 velocity=0 time=0
EXTRACT: note_on channel=1 note=55 velocity=0 time=0
EXTRACT: note_on channel=1 note=48 velocity=0 time=0
EXTRACT: note_on channel=1 note=64 velocity=95 time=0.004098358333333333
EXTRACT: note_on channel=1 note=62 velocity=95 time=0
EXTRACT: note_on channel=1 note=55 velocity=78 time=0
EXTRACT: note_on channel=0 note=36 velocity=0 time=0.18032776666666667
EXTRACT: note_on channel=9 note=36 velocity=60 time=0.053278658333333326
EXTRACT: note_on channel=5 note=62 velocity=0 time=0.0061475374999999995
EXTRACT: note_on channel=0 note=36 velocity=108 time=0.0020491791666666665
EXTRACT: note_on channel=9 note=36 velocity=0 time=0.032786866666666664
EXTRACT: note_on channel=0 note=36 velocity=0 time=0.15163925833333333
EXTRACT: note_on channel=2 note=64 velocity=0 time=0.053278658333333326
EXTRACT: note_on channel=2 note=62 velocity=0 time=0
EXTRACT: note_on channel=2 note=55 velocity=0 time=0
EXTRACT: note_on channel=2 note=64 velocity=112 time=0.004098358333333333
EXTRACT: note_on channel=2 note=60 velocity=100 time=0
EXTRACT: note_on channel=2 note=55 velocity=88 time=0
EXTRACT: note_on channel=0 note=36 velocity=119 time=0.004098358333333333
EXTRACT: note_on channel=1 note=64 velocity=0 time=0
EXTRACT: note_on channel=1 note=62 velocity=0 time=0
EXTRACT: note_on channel=1 note=55 velocity=0 time=0
EXTRACT: note_on channel=1 note=64 velocity=71 time=0.004098358333333333
EXTRACT: note_on channel=1 note=60 velocity=101 time=0
EXTRACT: note_on channel=1 note=55 velocity=66 time=0
EXTRACT: note_on channel=2 note=64 velocity=0 time=0.23360642499999998
EXTRACT: note_on channel=2 note=60 velocity=0 time=0
EXTRACT: note_on channel=2 note=55 velocity=0 time=0
EXTRACT: note_on channel=9 note=40 velocity=72 time=0
EXTRACT: note_on channel=9 note=28 velocity=72 time=0
EXTRACT: note_on channel=0 note=36 velocity=0 time=0.004098358333333333
EXTRACT: note_on channel=2 note=64 velocity=94 time=0
EXTRACT: note_on channel=2 note=60 velocity=92 time=0
EXTRACT: note_on channel=2 note=55 velocity=103 time=0
EXTRACT: note_on channel=2 note=48 velocity=110 time=0
EXTRACT: note_on channel=0 note=36 velocity=118 time=0.004098358333333333
EXTRACT: note_on channel=1 note=64 velocity=0 time=0
EXTRACT: note_on channel=1 note=60 velocity=0 time=0
EXTRACT: note_on channel=1 note=55 velocity=0 time=0
EXTRACT: note_on channel=1 note=64 velocity=84 time=0.004098358333333333
EXTRACT: note_on channel=1 note=60 velocity=91 time=0
EXTRACT: note_on channel=1 note=55 velocity=97 time=0
EXTRACT: note_on channel=1 note=48 velocity=101 time=0
EXTRACT: note_on channel=9 note=40 velocity=0 time=0.02868850833333333
EXTRACT: note_on channel=9 note=28 velocity=0 time=0
EXTRACT: note_on channel=2 note=64 velocity=0 time=0.20491791666666664
EXTRACT: note_on channel=2 note=60 velocity=0 time=0
EXTRACT: note_on channel=2 note=55 velocity=0 time=0
EXTRACT: note_on channel=2 note=48 velocity=0 time=0
EXTRACT: note_on channel=2 note=64 velocity=81 time=0.004098358333333333
EXTRACT: note_on channel=2 note=60 velocity=109 time=0
EXTRACT: note_on channel=2 note=55 velocity=67 time=0
EXTRACT: note_on channel=0 note=36 velocity=0 time=0.004098358333333333
EXTRACT: note_on channel=1 note=64 velocity=0 time=0
EXTRACT: note_on channel=1 note=60 velocity=0 time=0
EXTRACT: note_on channel=1 note=55 velocity=0 time=0
EXTRACT: note_on channel=1 note=48 velocity=0 time=0
EXTRACT: note_on channel=1 note=64 velocity=105 time=0.004098358333333333
EXTRACT: note_on channel=1 note=60 velocity=105 time=0
EXTRACT: note_on channel=1 note=55 velocity=105 time=0
EXTRACT: note_on channel=2 note=64 velocity=0 time=0.23360642499999998
EXTRACT: note_on channel=2 note=60 velocity=0 time=0
EXTRACT: note_on channel=2 note=55 velocity=0 time=0
EXTRACT: note_on channel=9 note=36 velocity=60 time=0
EXTRACT: note_on channel=2 note=64 velocity=113 time=0.004098358333333333
EXTRACT: note_on channel=2 note=60 velocity=96 time=0
EXTRACT: note_on channel=2 note=55 velocity=114 time=0
EXTRACT: note_on channel=2 note=48 velocity=110 time=0
EXTRACT: note_on channel=1 note=64 velocity=0 time=0.004098358333333333
EXTRACT: note_on channel=1 note=60 velocity=0 time=0
EXTRACT: note_on channel=1 note=55 velocity=0 time=0
EXTRACT: note_on channel=1 note=64 velocity=101 time=0.004098358333333333
EXTRACT: note_on channel=1 note=60 velocity=115 time=0
EXTRACT: note_on channel=1 note=55 velocity=90 time=0
EXTRACT: note_on channel=1 note=48 velocity=107 time=0
EXTRACT: note_on channel=9 note=36 velocity=0 time=0.02868850833333333
EXTRACT: note_on channel=2 note=64 velocity=0 time=0.20491791666666664
EXTRACT: note_on channel=2 note=60 velocity=0 time=0
EXTRACT: note_on channel=2 note=55 velocity=0 time=0
EXTRACT: note_on channel=2 note=48 velocity=0 time=0
EXTRACT: note_on channel=9 note=36 velocity=60 time=0
EXTRACT: note_on channel=2 note=64 velocity=81 time=0.004098358333333333
EXTRACT: note_on channel=2 note=60 velocity=76 time=0
EXTRACT: note_on channel=2 note=55 velocity=65 time=0
EXTRACT: note_on channel=0 note=36 velocity=123 time=0.004098358333333333
EXTRACT: note_on channel=1 note=64 velocity=0 time=0
EXTRACT: note_on channel=1 note=60 velocity=0 time=0
EXTRACT: note_on channel=1 note=55 velocity=0 time=0
EXTRACT: note_on channel=1 note=48 velocity=0 time=0
EXTRACT: note_on channel=1 note=64 velocity=105 time=0.004098358333333333
EXTRACT: note_on channel=1 note=60 velocity=85 time=0
EXTRACT: note_on channel=1 note=55 velocity=75 time=0
EXTRACT: note_on channel=9 note=36 velocity=0 time=0.02868850833333333
EXTRACT: note_on channel=0 note=36 velocity=0 time=0.15163925833333333
EXTRACT: note_on channel=2 note=64 velocity=0 time=0.053278658333333326
EXTRACT: note_on channel=2 note=60 velocity=0 time=0
EXTRACT: note_on channel=2 note=55 velocity=0 time=0
EXTRACT: note_on channel=9 note=40 velocity=72 time=0
EXTRACT: note_on channel=9 note=28 velocity=72 time=0
EXTRACT: note_on channel=2 note=64 velocity=87 time=0.004098358333333333
EXTRACT: note_on channel=2 note=60 velocity=110 time=0
EXTRACT: note_on channel=2 note=55 velocity=107 time=0
EXTRACT: note_on channel=2 note=48 velocity=114 time=0
EXTRACT: note_on channel=0 note=38 velocity=124 time=0.004098358333333333
EXTRACT: note_on channel=1 note=64 velocity=0 time=0
EXTRACT: note_on channel=1 note=60 velocity=0 time=0
EXTRACT: note_on channel=1 note=55 velocity=0 time=0
EXTRACT: note_on channel=1 note=64 velocity=80 time=0.004098358333333333
EXTRACT: note_on channel=1 note=60 velocity=82 time=0
EXTRACT: note_on channel=1 note=55 velocity=115 time=0
EXTRACT: note_on channel=1 note=48 velocity=80 time=0
EXTRACT: note_on channel=9 note=40 velocity=0 time=0.02868850833333333
EXTRACT: note_on channel=9 note=28 velocity=0 time=0
EXTRACT: note_on channel=2 note=64 velocity=0 time=0.20491791666666664
EXTRACT: note_on channel=2 note=60 velocity=0 time=0
EXTRACT: note_on channel=2 note=55 velocity=0 time=0
EXTRACT: note_on channel=2 note=48 velocity=0 time=0
EXTRACT: note_on channel=0 note=38 velocity=0 time=0.004098358333333333
EXTRACT: note_on channel=2 note=64 velocity=66 time=0
EXTRACT: note_on channel=2 note=60 velocity=87 time=0
EXTRACT: note_on channel=2 note=55 velocity=91 time=0
EXTRACT: note_on channel=0 note=28 velocity=102 time=0.004098358333333333
EXTRACT: note_on channel=1 note=64 velocity=0 time=0
EXTRACT: note_on channel=1 note=60 velocity=0 time=0
EXTRACT: note_on channel=1 note=55 velocity=0 time=0
EXTRACT: note_on channel=1 note=48 velocity=0 time=0
EXTRACT: note_on channel=1 note=64 velocity=75 time=0.004098358333333333
EXTRACT: note_on channel=1 note=60 velocity=112 time=0
EXTRACT: note_on channel=1 note=55 velocity=69 time=0
EXTRACT: note_on channel=2 note=64 velocity=0 time=0.23360642499999998
EXTRACT: note_on channel=2 note=60 velocity=0 time=0
EXTRACT: note_on channel=2 note=55 velocity=0 time=0
EXTRACT: note_on channel=9 note=36 velocity=60 time=0
EXTRACT: note_on channel=0 note=28 velocity=0 time=0.004098358333333333
EXTRACT: note_on channel=2 note=64 velocity=85 time=0
EXTRACT: note_on channel=2 note=62 velocity=112 time=0
EXTRACT: note_on channel=2 note=57 velocity=115 time=0
EXTRACT: note_on channel=2 note=50 velocity=94 time=0
EXTRACT: note_on channel=0 note=38 velocity=126 time=0.004098358333333333
EXTRACT: note_on channel=1 note=64 velocity=0 time=0
EXTRACT: note_on channel=1 note=60 velocity=0 time=0
EXTRACT: note_on channel=1 note=55 velocity=0 time=0
EXTRACT: note_on channel=1 note=64 velocity=110 time=0.004098358333333333
EXTRACT: note_on channel=1 note=62 velocity=80 time=0
EXTRACT: note_on channel=1 note=57 velocity=116 time=0
EXTRACT: note_on channel=1 note=50 velocity=101 time=0
EXTRACT: note_on channel=9 note=36 velocity=0 time=0.02868850833333333
EXTRACT: note_on channel=0 note=38 velocity=0 time=0.15163925833333333
EXTRACT: note_on channel=0 note=38 velocity=122 time=0.061475375
EXTRACT: note_on channel=2 note=64 velocity=0 time=0.2377047833333333
EXTRACT: note_on channel=2 note=62 velocity=0 time=0
EXTRACT: note_on channel=2 note=57 velocity=0 time=0
EXTRACT: note_on channel=2 note=50 velocity=0 time=0
EXTRACT: note_on channel=9 note=40 velocity=72 time=0
EXTRACT: note_on channel=9 note=28 velocity=72 time=0
EXTRACT: note_on channel=0 note=38 velocity=0 time=0.004098358333333333
EXTRACT: note_on channel=2 note=64 velocity=113 time=0
EXTRACT: note_on channel=2 note=62 velocity=107 time=0
EXTRACT: note_on channel=2 note=57 velocity=111 time=0
EXTRACT: note_on channel=2 note=50 velocity=115 time=0
EXTRACT: note_on channel=0 note=38 velocity=105 time=0.004098358333333333
EXTRACT: note_on channel=1 note=64 velocity=0 time=0
EXTRACT: note_on channel=1 note=62 velocity=0 time=0
EXTRACT: note_on channel=1 note=57 velocity=0 time=0
EXTRACT: note_on channel=1 note=50 velocity=0 time=0
EXTRACT: note_on channel=1 note=64 velocity=107 time=0.004098358333333333
EXTRACT: note_on channel=1 note=62 velocity=117 time=0
EXTRACT: note_on channel=1 note=57 velocity=82 time=0
EXTRACT: note_on channel=1 note=50 velocity=82 time=0
EXTRACT: note_on channel=9 note=40 velocity=0 time=0.02868850833333333
EXTRACT: note_on channel=9 note=28 velocity=0 time=0
EXTRACT: note_on channel=0 note=38 velocity=0 time=0.2131146333333333
EXTRACT: note_on channel=2 note=64 velocity=0 time=0.2377047833333333
EXTRACT: note_on channel=2 note=62 velocity=0 time=0
EXTRACT: note_on channel=2 note=57 velocity=0 time=0
EXTRACT: note_on channel=2 note=50 velocity=0 time=0
EXTRACT: note_on channel=9 note=36 velocity=60 time=0
EXTRACT: note_on channel=2 note=64 velocity=100 time=0.004098358333333333
EXTRACT: note_on channel=2 note=62 velocity=101 time=0
EXTRACT: note_on channel=2 note=57 velocity=111 time=0
EXTRACT: note_on channel=2 note=50 velocity=101 time=0
EXTRACT: note_on channel=5 note=69 velocity=95 time=0.0020491791666666665
EXTRACT: note_on channel=1 note=64 velocity=0 time=0.0020491791666666665
EXTRACT: note_on channel=1 note=62 velocity=0 time=0
EXTRACT: note_on channel=1 note=57 velocity=0 time=0
EXTRACT: note_on channel=1 note=50 velocity=0 time=0
EXTRACT: note_on channel=1 note=64 velocity=99 time=0.004098358333333333
EXTRACT: note_on channel=1 note=62 velocity=96 time=0
EXTRACT: note_on channel=1 note=57 velocity=84 time=0
EXTRACT: note_on channel=1 note=50 velocity=107 time=0
EXTRACT: note_on channel=9 note=36 velocity=0 time=0.02868850833333333
EXTRACT: note_on channel=2 note=64 velocity=0 time=0.20491791666666664
EXTRACT: note_on channel=2 note=62 velocity=0 time=0
EXTRACT: note_on channel=2 note=57 velocity=0 time=0
EXTRACT: note_on channel=2 note=50 velocity=0 time=0
EXTRACT: note_on channel=9 note=36 velocity=60 time=0
EXTRACT: note_on channel=5 note=69 velocity=0 time=0.0020491791666666665
EXTRACT: note_on channel=2 note=64 velocity=94 time=0.0020491791666666665
EXTRACT: note_on channel=2 note=62 velocity=83 time=0
EXTRACT: note_on channel=2 note=57 velocity=66 time=0
EXTRACT: note_on channel=5 note=69 velocity=114 time=0.0020491791666666665
EXTRACT: note_on channel=1 note=64 velocity=0 time=0.0020491791666666665
EXTRACT: note_on channel=1 note=62 velocity=0 time=0
EXTRACT: note_on channel=1 note=57 velocity=0 time=0
EXTRACT: note_on channel=1 note=50 velocity=0 time=0
EXTRACT: note_on channel=1 note=64 velocity=95 time=0.004098358333333333
EXTRACT: note_on channel=1 note=62 velocity=117 time=0
EXTRACT: note_on channel=1 note=57 velocity=85 time=0
EXTRACT: note_on channel=9 note=36 velocity=0 time=0.02868850833333333
EXTRACT: note_on channel=2 note=64 velocity=0 time=0.20491791666666664
EXTRACT: note_on channel=2 note=62 velocity=0 time=0
EXTRACT: note_on channel=2 note=57 velocity=0 time=0
EXTRACT: note_on channel=9 note=40 velocity=72 time=0
EXTRACT: note_on channel=9 note=28 velocity=72 time=0
EXTRACT: note_on channel=2 note=64 velocity=102 time=0.004098358333333333
EXTRACT: note_on channel=2 note=62 velocity=109 time=0
EXTRACT: note_on channel=2 note=57 velocity=101 time=0
EXTRACT: note_on channel=2 note=50 velocity=110 time=0
EXTRACT: note_on channel=5 note=69 velocity=0 time=0.0020491791666666665
EXTRACT: note_on channel=1 note=64 velocity=0 time=0.0020491791666666665
EXTRACT: note_on channel=1 note=62 velocity=0 time=0
EXTRACT: note_on channel=1 note=57 velocity=0 time=0
EXTRACT: note_on channel=1 note=64 velocity=114 time=0.004098358333333333
EXTRACT: note_on channel=1 note=62 velocity=88 time=0
EXTRACT: note_on channel=1 note=57 velocity=87 time=0
EXTRACT: note_on channel=1 note=50 velocity=96 time=0
EXTRACT: note_on channel=9 note=40 velocity=0 time=0.02868850833333333
EXTRACT: note_on channel=9 note=28 velocity=0 time=0
EXTRACT: note_on channel=2 note=64 velocity=0 time=0.20491791666666664
EXTRACT: note_on channel=2 note=62 velocity=0 time=0
EXTRACT: note_on channel=2 note=57 velocity=0 time=0
EXTRACT: note_on channel=2 note=50 velocity=0 time=0
EXTRACT: note_on channel=2 note=64 velocity=68 time=0.004098358333333333
EXTRACT: note_on channel=2 note=62 velocity=83 time=0
EXTRACT: note_on channel=2 note=57 velocity=111 time=0
EXTRACT: note_on channel=5 note=69 velocity=116 time=0.0020491791666666665
EXTRACT: note_on channel=1 note=64 velocity=0 time=0.0020491791666666665
EXTRACT: note_on channel=1 note=62 velocity=0 time=0
EXTRACT: note_on channel=1 note=57 velocity=0 time=0
EXTRACT: note_on channel=1 note=50 velocity=0 time=0
EXTRACT: note_on channel=1 note=64 velocity=95 time=0.004098358333333333
EXTRACT: note_on channel=1 note=62 velocity=90 time=0
EXTRACT: note_on channel=1 note=57 velocity=96 time=0
EXTRACT: note_on channel=9 note=36 velocity=60 time=0.23360642499999998
EXTRACT: note_on channel=5 note=69 velocity=0 time=0.0061475374999999995
EXTRACT: note_on channel=9 note=36 velocity=0 time=0.03483604583333333
EXTRACT: note_on channel=2 note=64 velocity=0 time=0.20491791666666664
EXTRACT: note_on channel=2 note=62 velocity=0 time=0
EXTRACT: note_on channel=2 note=57 velocity=0 time=0
EXTRACT: note_on channel=2 note=65 velocity=65 time=0.004098358333333333
EXTRACT: note_on channel=2 note=62 velocity=92 time=0
EXTRACT: note_on channel=2 note=57 velocity=85 time=0
EXTRACT: note_on channel=5 note=71 velocity=110 time=0.0020491791666666665
EXTRACT: note_on channel=1 note=64 velocity=0 time=0.0020491791666666665
EXTRACT: note_on channel=1 note=62 velocity=0 time=0
EXTRACT: note_on channel=1 note=57 velocity=0 time=0
EXTRACT: note_on channel=1 note=65 velocity=82 time=0.004098358333333333
EXTRACT: note_on channel=1 note=62 velocity=74 time=0
EXTRACT: note_on channel=1 note=57 velocity=63 time=0
EXTRACT: note_on channel=2 note=65 velocity=0 time=0.23360642499999998
EXTRACT: note_on channel=2 note=62 velocity=0 time=0
EXTRACT: note_on channel=2 note=57 velocity=0 time=0
EXTRACT: note_on channel=9 note=40 velocity=72 time=0
EXTRACT: note_on channel=9 note=28 velocity=72 time=0
EXTRACT: note_on channel=2 note=65 velocity=86 time=0.004098358333333333
EXTRACT: note_on channel=2 note=62 velocity=94 time=0
EXTRACT: note_on channel=2 note=57 velocity=105 time=0
EXTRACT: note_on channel=5 note=71 velocity=0 time=0.0020491791666666665
EXTRACT: note_on channel=1 note=65 velocity=0 time=0.0020491791666666665
EXTRACT: note_on channel=1 note=62 velocity=0 time=0
EXTRACT: note_on channel=1 note=57 velocity=0 time=0
EXTRACT: note_on channel=1 note=65 velocity=81 time=0.004098358333333333
EXTRACT: note_on channel=1 note=62 velocity=114 time=0
EXTRACT: note_on channel=1 note=57 velocity=93 time=0
EXTRACT: note_on channel=9 note=40 velocity=0 time=0.02868850833333333
EXTRACT: note_on channel=9 note=28 velocity=0 time=0
EXTRACT: note_on channel=2 note=65 velocity=0 time=0.20491791666666664
EXTRACT: note_on channel=2 note=62 velocity=0 time=0
EXTRACT: note_on channel=2 note=57 velocity=0 time=0
EXTRACT: note_on channel=2 note=65 velocity=68 time=0.004098358333333333
EXTRACT: note_on channel=2 note=62 velocity=88 time=0
EXTRACT: note_on channel=2 note=57 velocity=99 time=0
EXTRACT: note_on channel=2 note=50 velocity=108 time=0
EXTRACT: note_on channel=5 note=72 velocity=110 time=0.0020491791666666665
EXTRACT: note_on channel=1 note=65 velocity=0 time=0.0020491791666666665
EXTRACT: note_on channel=1 note=62 velocity=0 time=0
EXTRACT: note_on channel=1 note=57 velocity=0 time=0
EXTRACT: note_on channel=1 note=65 velocity=106 time=0.004098358333333333
EXTRACT: note_on channel=1 note=62 velocity=91 time=0
EXTRACT: note_on channel=1 note=57 velocity=79 time=0
EXTRACT: note_on channel=1 note=50 velocity=90 time=0
EXTRACT: note_on channel=2 note=65 velocity=0 time=0.23360642499999998
EXTRACT: note_on channel=2 note=62 velocity=0 time=0
EXTRACT: note_on channel=2 note=57 velocity=0 time=0
EXTRACT: note_on channel=2 note=50 velocity=0 time=0
EXTRACT: note_on channel=9 note=36 velocity=60 time=0
EXTRACT: note_on channel=2 note=65 velocity=92 time=0.004098358333333333
EXTRACT: note_on channel=2 note=62 velocity=85 time=0
EXTRACT: note_on channel=2 note=57 velocity=96 time=0
EXTRACT: note_on channel=2 note=50 velocity=94 time=0
EXTRACT: note_on channel=1 note=65 velocity=0 time=0.004098358333333333
EXTRACT: note_on channel=1 note=62 velocity=0 time=0
EXTRACT: note_on channel=1 note=57 velocity=0 time=0
EXTRACT: note_on channel=1 note=50 velocity=0 time=0
EXTRACT: note_on channel=1 note=65 velocity=88 time=0.004098358333333333
EXTRACT: note_on channel=1 note=62 velocity=92 time=0
EXTRACT: note_on channel=1 note=57 velocity=117 time=0
EXTRACT: note_on channel=1 note=50 velocity=105 time=0
EXTRACT: note_on channel=9 note=36 velocity=0 time=0.02868850833333333
EXTRACT: note_on channel=2 note=65 velocity=0 time=0.20491791666666664
EXTRACT: note_on channel=2 note=62 velocity=0 time=0
EXTRACT: note_on channel=2 note=57 velocity=0 time=0
EXTRACT: note_on channel=2 note=50 velocity=0 time=0
EXTRACT: note_on channel=9 note=36 velocity=60 time=0
EXTRACT: note_on channel=2 note=65 velocity=97 time=0.004098358333333333
EXTRACT: note_on channel=2 note=62 velocity=70 time=0
EXTRACT: note_on channel=2 note=57 velocity=89 time=0
EXTRACT: note_on channel=1 note=65 velocity=0 time=0.004098358333333333
EXTRACT: note_on channel=1 note=62 velocity=0 time=0
EXTRACT: note_on channel=1 note=57 velocity=0 time=0
EXTRACT: note_on channel=1 note=50 velocity=0 time=0
EXTRACT: note_on channel=1 note=65 velocity=111 time=0.004098358333333333
EXTRACT: note_on channel=1 note=62 velocity=78 time=0
EXTRACT: note_on channel=1 note=57 velocity=75 time=0
EXTRACT: note_on channel=9 note=36 velocity=0 time=0.02868850833333333
EXTRACT: note_on channel=2 note=65 velocity=0 time=0.20491791666666664
EXTRACT: note_on channel=2 note=62 velocity=0 time=0
EXTRACT: note_on channel=2 note=57 velocity=0 time=0
EXTRACT: note_on channel=9 note=40 velocity=72 time=0
EXTRACT: note_on channel=9 note=28 velocity=72 time=0
EXTRACT: note_on channel=2 note=65 velocity=94 time=0.004098358333333333
EXTRACT: note_on channel=2 note=62 velocity=112 time=0
EXTRACT: note_on channel=2 note=57 velocity=117 time=0
EXTRACT: note_on channel=2 note=50 velocity=112 time=0
EXTRACT: note_on channel=1 note=65 velocity=0 time=0.004098358333333333
EXTRACT: note_on channel=1 note=62 velocity=0 time=0
EXTRACT: note_on channel=1 note=57 velocity=0 time=0
EXTRACT: note_on channel=1 note=65 velocity=82 time=0.004098358333333333
EXTRACT: note_on channel=1 note=62 velocity=115 time=0
EXTRACT: note_on channel=1 note=57 velocity=84 time=0
EXTRACT: note_on channel=1 note=50 velocity=82 time=0
EXTRACT: note_on channel=9 note=40 velocity=0 time=0.02868850833333333
EXTRACT: note_on channel=9 note=28 velocity=0 time=0
EXTRACT: note_on channel=2 note=65 velocity=0 time=0.20491791666666664
EXTRACT: note_on channel=2 note=62 velocity=0 time=0
EXTRACT: note_on channel=2 note=57 velocity=0 time=0
EXTRACT: note_on channel=2 note=50 velocity=0 time=0
EXTRACT: note_on channel=2 note=65 velocity=110 time=0.004098358333333333
EXTRACT: note_on channel=2 note=62 velocity=73 time=0
EXTRACT: note_on channel=2 note=57 velocity=85 time=0
EXTRACT: note_on channel=2 note=50 velocity=72 time=0
EXTRACT: note_on channel=1 note=65 velocity=0 time=0.004098358333333333
EXTRACT: note_on channel=1 note=62 velocity=0 time=0
EXTRACT: note_on channel=1 note=57 velocity=0 time=0
EXTRACT: note_on channel=1 note=50 velocity=0 time=0
EXTRACT: note_on channel=1 note=65 velocity=103 time=0.004098358333333333
EXTRACT: note_on channel=1 note=62 velocity=82 time=0
EXTRACT: note_on channel=1 note=57 velocity=117 time=0
EXTRACT: note_on channel=1 note=50 velocity=82 time=0
EXTRACT: note_on channel=2 note=65 velocity=0 time=0.23360642499999998
EXTRACT: note_on channel=2 note=62 velocity=0 time=0
EXTRACT: note_on channel=2 note=57 velocity=0 time=0
EXTRACT: note_on channel=2 note=50 velocity=0 time=0
EXTRACT: note_on channel=9 note=36 velocity=60 time=0
EXTRACT: note_on channel=5 note=72 velocity=0 time=0.0020491791666666665
EXTRACT: note_on channel=2 note=64 velocity=85 time=0.0020491791666666665
EXTRACT: note_on channel=2 note=62 velocity=111 time=0
EXTRACT: note_on channel=2 note=55 velocity=110 time=0
EXTRACT: note_on channel=2 note=48 velocity=86 time=0
EXTRACT: note_on channel=5 note=71 velocity=114 time=0.0020491791666666665
EXTRACT: note_on channel=1 note=65 velocity=0 time=0.0020491791666666665
EXTRACT: note_on channel=1 note=62 velocity=0 time=0
EXTRACT: note_on channel=1 note=57 velocity=0 time=0
EXTRACT: note_on channel=1 note=50 velocity=0 time=0
EXTRACT: note_on channel=1 note=64 velocity=101 time=0.004098358333333333
EXTRACT: note_on channel=1 note=62 velocity=85 time=0
EXTRACT: note_on channel=1 note=55 velocity=108 time=0
EXTRACT: note_on channel=1 note=48 velocity=117 time=0
EXTRACT: note_on channel=9 note=36 velocity=0 time=0.02868850833333333
EXTRACT: note_on channel=2 note=64 velocity=0 time=0.45081941666666664
EXTRACT: note_on channel=2 note=62 velocity=0 time=0
EXTRACT: note_on channel=2 note=55 velocity=0 time=0
EXTRACT: note_on channel=2 note=48 velocity=0 time=0
EXTRACT: note_on channel=9 note=40 velocity=72 time=0
EXTRACT: note_on channel=9 note=28 velocity=72 time=0
EXTRACT: note_on channel=2 note=64 velocity=85 time=0.004098358333333333
EXTRACT: note_on channel=2 note=62 velocity=105 time=0
EXTRACT: note_on channel=2 note=55 velocity=109 time=0
EXTRACT: note_on channel=2 note=48 velocity=98 time=0
EXTRACT: note_on channel=1 note=64 velocity=0 time=0.004098358333333333
EXTRACT: note_on channel=1 note=62 velocity=0 time=0
EXTRACT: note_on channel=1 note=55 velocity=0 time=0
EXTRACT: note_on channel=1 note=48 velocity=0 time=0
EXTRACT: note_on channel=1 note=64 velocity=109 time=0.004098358333333333
EXTRACT: note_on channel=1 note=62 velocity=109 time=0
EXTRACT: note_on channel=1 note=55 velocity=97 time=0
EXTRACT: note_on channel=1 note=48 velocity=115 time=0
EXTRACT: note_on channel=9 note=40 velocity=0 time=0.02868850833333333
EXTRACT: note_on channel=9 note=28 velocity=0 time=0
EXTRACT: note_on channel=5 note=71 velocity=0 time=0.2069670958333333
EXTRACT: note_on channel=5 note=67 velocity=90 time=0.004098358333333333
EXTRACT: note_on channel=2 note=64 velocity=0 time=0.23975396249999997
EXTRACT: note_on channel=2 note=62 velocity=0 time=0
EXTRACT: note_on channel=2 note=55 velocity=0 time=0
EXTRACT: note_on channel=2 note=48 velocity=0 time=0
EXTRACT: note_on channel=9 note=36 velocity=60 time=0
EXTRACT: note_on channel=2 note=64 velocity=93 time=0.004098358333333333
EXTRACT: note_on channel=2 note=62 velocity=97 time=0
EXTRACT: note_on channel=2 note=55 velocity=85 time=0
EXTRACT: note_on channel=1 note=64 velocity=0 time=0.004098358333333333
EXTRACT: note_on channel=1 note=62 velocity=0 time=0
EXTRACT: note_on channel=1 note=55 velocity=0 time=0
EXTRACT: note_on channel=1 note=48 velocity=0 time=0
EXTRACT: note_on channel=1 note=64 velocity=105 time=0.004098358333333333
EXTRACT: note_on channel=1 note=62 velocity=105 time=0
EXTRACT: note_on channel=1 note=55 velocity=92 time=0
EXTRACT: note_on channel=9 note=36 velocity=0 time=0.02868850833333333
EXTRACT: note_on channel=2 note=64 velocity=0 time=0.20491791666666664
EXTRACT: note_on channel=2 note=62 velocity=0 time=0
EXTRACT: note_on channel=2 note=55 velocity=0 time=0
EXTRACT: note_on channel=9 note=36 velocity=60 time=0
EXTRACT: note_on channel=5 note=67 velocity=0 time=0.0020491791666666665
EXTRACT: note_on channel=2 note=64 velocity=70 time=0.0020491791666666665
EXTRACT: note_on channel=2 note=62 velocity=111 time=0
EXTRACT: note_on channel=2 note=55 velocity=68 time=0
EXTRACT: note_on channel=2 note=48 velocity=91 time=0
EXTRACT: note_on channel=5 note=67 velocity=92 time=0.0020491791666666665
EXTRACT: note_on channel=1 note=64 velocity=0 time=0.0020491791666666665
EXTRACT: note_on channel=1 note=62 velocity=0 time=0
EXTRACT: note_on channel=1 note=55 velocity=0 time=0
EXTRACT: note_on channel=1 note=64 velocity=77 time=0.004098358333333333
EXTRACT: note_on channel=1 note=62 velocity=85 time=0
EXTRACT: note_on channel=1 note=55 velocity=95 time=0
EXTRACT: note_on channel=1 note=48 velocity=99 time=0
EXTRACT: note_on channel=9 note=36 velocity=0 time=0.02868850833333333
EXTRACT: note_on channel=2 note=64 velocity=0 time=0.20491791666666664
EXTRACT: note_on channel=2 note=62 velocity=0 time=0
EXTRACT: note_on channel=2 note=55 velocity=0 time=0
EXTRACT: note_on channel=2 note=48 velocity=0 time=0
EXTRACT: note_on channel=9 note=40 velocity=72 time=0
EXTRACT: note_on channel=9 note=28 velocity=72 time=0
EXTRACT: note_on channel=5 note=67 velocity=0 time=0.0020491791666666665
EXTRACT: note_on channel=2 note=64 velocity=110 time=0.0020491791666666665
EXTRACT: note_on channel=2 note=62 velocity=95 time=0
EXTRACT: note_on channel=2 note=55 velocity=105 time=0
EXTRACT: note_on channel=2 note=48 velocity=101 time=0
EXTRACT: note_on channel=5 note=60 velocity=73 time=0.0020491791666666665
EXTRACT: note_on channel=1 note=64 velocity=0 time=0.0020491791666666665
EXTRACT: note_on channel=1 note=62 velocity=0 time=0
EXTRACT: note_on channel=1 note=55 velocity=0 time=0
EXTRACT: note_on channel=1 note=48 velocity=0 time=0
EXTRACT: note_on channel=1 note=64 velocity=113 time=0.004098358333333333
EXTRACT: note_on channel=1 note=62 velocity=90 time=0
EXTRACT: note_on channel=1 note=55 velocity=83 time=0
EXTRACT: note_on channel=1 note=48 velocity=87 time=0
EXTRACT: note_on channel=9 note=40 velocity=0 time=0.02868850833333333
EXTRACT: note_on channel=9 note=28 velocity=0 time=0
EXTRACT: note_on channel=2 note=64 velocity=0 time=0.20491791666666664
EXTRACT: note_on channel=2 note=62 velocity=0 time=0
EXTRACT: note_on channel=2 note=55 velocity=0 time=0
EXTRACT: note_on channel=2 note=48 velocity=0 time=0
EXTRACT: note_on channel=2 note=64 velocity=100 time=0.004098358333333333
EXTRACT: note_on channel=2 note=62 velocity=84 time=0
EXTRACT: note_on channel=2 note=55 velocity=93 time=0
EXTRACT: note_on channel=1 note=64 velocity=0 time=0.004098358333333333
EXTRACT: note_on channel=1 note=62 velocity=0 time=0
EXTRACT: note_on channel=1 note=55 velocity=0 time=0
EXTRACT: note_on channel=1 note=48 velocity=0 time=0
EXTRACT: note_on channel=1 note=64 velocity=72 time=0.004098358333333333
EXTRACT: note_on channel=1 note=62 velocity=116 time=0
EXTRACT: note_on channel=1 note=55 velocity=84 time=0
EXTRACT: note_on channel=9 note=36 velocity=60 time=0.23360642499999998
EXTRACT: note_on channel=0 note=36 velocity=117 time=0.008196716666666666
EXTRACT: note_on channel=9 note=36 velocity=0 time=0.032786866666666664
EXTRACT: note_on channel=0 note=36 velocity=0 time=0.15163925833333333
EXTRACT: note_on channel=2 note=64 velocity=0 time=0.053278658333333326
EXTRACT: note_on channel=2 note=62 velocity=0 time=0
EXTRACT: note_on channel=2 note=55 velocity=0 time=0
EXTRACT: note_on channel=2 note=64 velocity=70 time=0.004098358333333333
EXTRACT: note_on channel=2 note=60 velocity=88 time=0
EXTRACT: note_on channel=2 note=55 velocity=68 time=0
EXTRACT: note_on channel=0 note=36 velocity=104 time=0.004098358333333333
EXTRACT: note_on channel=1 note=64 velocity=0 time=0
EXTRACT: note_on channel=1 note=62 velocity=0 time=0
EXTRACT: note_on channel=1 note=55 velocity=0 time=0
EXTRACT: note_on channel=1 note=64 velocity=86 time=0.004098358333333333
EXTRACT: note_on channel=1 note=60 velocity=61 time=0
EXTRACT: note_on channel=1 note=55 velocity=101 time=0
EXTRACT: note_on channel=0 note=36 velocity=0 time=0.18032776666666667
EXTRACT: note_on channel=2 note=64 velocity=0 time=0.053278658333333326
EXTRACT: note_on channel=2 note=60 velocity=0 time=0
EXTRACT: note_on channel=2 note=55 velocity=0 time=0
EXTRACT: note_on channel=9 note=40 velocity=72 time=0
EXTRACT: note_on channel=9 note=28 velocity=72 time=0
EXTRACT: note_on channel=2 note=64 velocity=100 time=0.004098358333333333
EXTRACT: note_on channel=2 note=60 velocity=95 time=0
EXTRACT: note_on channel=2 note=55 velocity=104 time=0
EXTRACT: note_on channel=2 note=48 velocity=105 time=0
EXTRACT: note_on channel=0 note=36 velocity=118 time=0.004098358333333333
EXTRACT: note_on channel=1 note=64 velocity=0 time=0
EXTRACT: note_on channel=1 note=60 velocity=0 time=0
EXTRACT: note_on channel=1 note=55 velocity=0 time=0
EXTRACT: note_on channel=1 note=64 velocity=111 time=0.004098358333333333
EXTRACT: note_on channel=1 note=60 velocity=114 time=0
EXTRACT: note_on channel=1 note=55 velocity=79 time=0
EXTRACT: note_on channel=1 note=48 velocity=93 time=0
EXTRACT: note_on channel=9 note=40 velocity=0 time=0.02868850833333333
EXTRACT: note_on channel=9 note=28 velocity=0 time=0
EXTRACT: note_on channel=2 note=64 velocity=0 time=0.20491791666666664
EXTRACT: note_on channel=2 note=60 velocity=0 time=0
EXTRACT: note_on channel=2 note=55 velocity=0 time=0
EXTRACT: note_on channel=2 note=48 velocity=0 time=0
EXTRACT: note_on channel=2 note=64 velocity=114 time=0.004098358333333333
EXTRACT: note_on channel=2 note=60 velocity=98 time=0
EXTRACT: note_on channel=2 note=55 velocity=80 time=0
EXTRACT: note_on channel=0 note=36 velocity=0 time=0.004098358333333333
EXTRACT: note_on channel=1 note=64 velocity=0 time=0
EXTRACT: note_on channel=1 note=60 velocity=0 time=0
EXTRACT: note_on channel=1 note=55 velocity=0 time=0
EXTRACT: note_on channel=1 note=48 velocity=0 time=0
EXTRACT: note_on channel=1 note=64 velocity=97 time=0.004098358333333333
EXTRACT: note_on channel=1 note=60 velocity=86 time=0
EXTRACT: note_on channel=1 note=55 velocity=96 time=0
EXTRACT: note_on channel=2 note=64 velocity=0 time=0.23360642499999998
EXTRACT: note_on channel=2 note=60 velocity=0 time=0
EXTRACT: note_on channel=2 note=55 velocity=0 time=0
EXTRACT: note_on channel=9 note=36 velocity=60 time=0
EXTRACT: note_on channel=2 note=64 velocity=100 time=0.004098358333333333
EXTRACT: note_on channel=2 note=60 velocity=113 time=0
EXTRACT: note_on channel=2 note=55 velocity=108 time=0
EXTRACT: note_on channel=2 note=48 velocity=99 time=0
EXTRACT: note_on channel=0 note=33 velocity=110 time=0.004098358333333333
EXTRACT: note_on channel=1 note=64 velocity=0 time=0
EXTRACT: note_on channel=1 note=60 velocity=0 time=0
EXTRACT: note_on channel=1 note=55 velocity=0 time=0
EXTRACT: note_on channel=1 note=64 velocity=96 time=0.004098358333333333
EXTRACT: note_on channel=1 note=60 velocity=91 time=0
EXTRACT: note_on channel=1 note=55 velocity=87 time=0
EXTRACT: note_on channel=1 note=48 velocity=112 time=0
EXTRACT: note_on channel=9 note=36 velocity=0 time=0.02868850833333333
EXTRACT: note_on channel=0 note=33 velocity=0 time=0.15163925833333333
EXTRACT: note_on channel=2 note=64 velocity=0 time=0.053278658333333326
EXTRACT: note_on channel=2 note=60 velocity=0 time=0
EXTRACT: note_on channel=2 note=55 velocity=0 time=0
EXTRACT: note_on channel=2 note=48 velocity=0 time=0
EXTRACT: note_on channel=9 note=36 velocity=60 time=0
EXTRACT: note_on channel=2 note=64 velocity=106 time=0.004098358333333333
EXTRACT: note_on channel=2 note=60 velocity=112 time=0
EXTRACT: note_on channel=2 note=55 velocity=97 time=0
EXTRACT: note_on channel=0 note=33 velocity=105 time=0.004098358333333333
EXTRACT: note_on channel=1 note=64 velocity=0 time=0
EXTRACT: note_on channel=1 note=60 velocity=0 time=0
EXTRACT: note_on channel=1 note=55 velocity=0 time=0
EXTRACT: note_on channel=1 note=48 velocity=0 time=0
EXTRACT: note_on channel=1 note=64 velocity=61 time=0.004098358333333333
EXTRACT: note_on channel=1 note=60 velocity=80 time=0
EXTRACT: note_on channel=1 note=55 velocity=99 time=0
EXTRACT: note_on channel=9 note=36 velocity=0 time=0.02868850833333333
EXTRACT: note_on channel=0 note=33 velocity=0 time=0.15163925833333333
EXTRACT: note_on channel=2 note=64 velocity=0 time=0.053278658333333326
EXTRACT: note_on channel=2 note=60 velocity=0 time=0
EXTRACT: note_on channel=2 note=55 velocity=0 time=0
EXTRACT: note_on channel=9 note=40 velocity=72 time=0
EXTRACT: note_on channel=9 note=28 velocity=72 time=0
EXTRACT: note_on channel=2 note=64 velocity=110 time=0.004098358333333333
EXTRACT: note_on channel=2 note=60 velocity=107 time=0
EXTRACT: note_on channel=2 note=55 velocity=116 time=0
EXTRACT: note_on channel=2 note=48 velocity=116 time=0
EXTRACT: note_on channel=0 note=36 velocity=110 time=0.004098358333333333
EXTRACT: note_on channel=1 note=64 velocity=0 time=0
EXTRACT: note_on channel=1 note=60 velocity=0 time=0
EXTRACT: note_on channel=1 note=55 velocity=0 time=0
EXTRACT: note_on channel=1 note=64 velocity=106 time=0.004098358333333333
EXTRACT: note_on channel=1 note=60 velocity=83 time=0
EXTRACT: note_on channel=1 note=55 velocity=86 time=0
EXTRACT: note_on channel=1 note=48 velocity=111 time=0
EXTRACT: note_on channel=9 note=40 velocity=0 time=0.02868850833333333
EXTRACT: note_on channel=9 note=28 velocity=0 time=0
EXTRACT: note_on channel=0 note=36 velocity=0 time=0.15163925833333333
EXTRACT: note_on channel=2 note=64 velocity=0 time=0.053278658333333326
EXTRACT: note_on channel=2 note=60 velocity=0 time=0
EXTRACT: note_on channel=2 note=55 velocity=0 time=0
EXTRACT: note_on channel=2 note=48 velocity=0 time=0
EXTRACT: note_on channel=2 note=64 velocity=93 time=0.004098358333333333
EXTRACT: note_on channel=2 note=60 velocity=65 time=0
EXTRACT: note_on channel=2 note=55 velocity=82 time=0
EXTRACT: note_on channel=0 note=33 velocity=124 time=0.004098358333333333
EXTRACT: note_on channel=1 note=64 velocity=0 time=0
EXTRACT: note_on channel=1 note=60 velocity=0 time=0
EXTRACT: note_on channel=1 note=55 velocity=0 time=0
EXTRACT: note_on channel=1 note=48 velocity=0 time=0
EXTRACT: note_on channel=1 note=64 velocity=92 time=0.004098358333333333
EXTRACT: note_on channel=1 note=60 velocity=92 time=0
EXTRACT: note_on channel=1 note=55 velocity=115 time=0
EXTRACT: note_on channel=0 note=33 velocity=0 time=0.18032776666666667
EXTRACT: note_on channel=2 note=64 velocity=0 time=0.053278658333333326
EXTRACT: note_on channel=2 note=60 velocity=0 time=0
EXTRACT: note_on channel=2 note=55 velocity=0 time=0
EXTRACT: note_on channel=9 note=36 velocity=60 time=0
EXTRACT: note_on channel=2 note=64 velocity=96 time=0.004098358333333333
EXTRACT: note_on channel=2 note=62 velocity=117 time=0
EXTRACT: note_on channel=2 note=57 velocity=95 time=0
EXTRACT: note_on channel=2 note=50 velocity=96 time=0
EXTRACT: note_on channel=5 note=60 velocity=0 time=0.0020491791666666665
EXTRACT: note_on channel=0 note=38 velocity=107 time=0.0020491791666666665
EXTRACT: note_on channel=1 note=64 velocity=0 time=0
EXTRACT: note_on channel=1 note=60 velocity=0 time=0
EXTRACT: note_on channel=1 note=55 velocity=0 time=0
EXTRACT: note_on channel=1 note=64 velocity=112 time=0.004098358333333333
EXTRACT: note_on channel=1 note=62 velocity=111 time=0
EXTRACT: note_on channel=1 note=57 velocity=110 time=0
EXTRACT: note_on channel=1 note=50 velocity=101 time=0
EXTRACT: note_on channel=9 note=36 velocity=0 time=0.02868850833333333
EXTRACT: note_on channel=0 note=38 velocity=0 time=0.15163925833333333
EXTRACT: note_on channel=0 note=38 velocity=116 time=0.061475375
EXTRACT: note_on channel=0 note=38 velocity=0 time=0.184426125
EXTRACT: note_on channel=2 note=64 velocity=0 time=0.053278658333333326
EXTRACT: note_on channel=2 note=62 velocity=0 time=0
EXTRACT: note_on channel=2 note=57 velocity=0 time=0
EXTRACT: note_on channel=2 note=50 velocity=0 time=0
EXTRACT: note_on channel=9 note=40 velocity=72 time=0
EXTRACT: note_on channel=9 note=28 velocity=72 time=0
EXTRACT: note_on channel=2 note=64 velocity=109 time=0.004098358333333333
EXTRACT: note_on channel=2 note=62 velocity=109 time=0
EXTRACT: note_on channel=2 note=57 velocity=112 time=0
EXTRACT: note_on channel=2 note=50 velocity=113 time=0
EXTRACT: note_on channel=0 note=38 velocity=106 time=0.004098358333333333
EXTRACT: note_on channel=1 note=64 velocity=0 time=0
EXTRACT: note_on channel=1 note=62 velocity=0 time=0
EXTRACT: note_on channel=1 note=57 velocity=0 time=0
EXTRACT: note_on channel=1 note=50 velocity=0 time=0
EXTRACT: note_on channel=1 note=64 velocity=82 time=0.004098358333333333
EXTRACT: note_on channel=1 note=62 velocity=93 time=0
EXTRACT: note_on channel=1 note=57 velocity=83 time=0
EXTRACT: note_on channel=1 note=50 velocity=103 time=0
EXTRACT: note_on channel=9 note=40 velocity=0 time=0.02868850833333333
EXTRACT: note_on channel=9 note=28 velocity=0 time=0
EXTRACT: note_on channel=0 note=38 velocity=0 time=0.2131146333333333
EXTRACT: note_on channel=2 note=64 velocity=0 time=0.2377047833333333
EXTRACT: note_on channel=2 note=62 velocity=0 time=0
EXTRACT: note_on channel=2 note=57 velocity=0 time=0
EXTRACT: note_on channel=2 note=50 velocity=0 time=0
EXTRACT: note_on channel=9 note=36 velocity=60 time=0
EXTRACT: note_on channel=2 note=64 velocity=86 time=0.004098358333333333
EXTRACT: note_on channel=2 note=62 velocity=114 time=0
EXTRACT: note_on channel=2 note=57 velocity=117 time=0
EXTRACT: note_on channel=2 note=50 velocity=99 time=0
EXTRACT: note_on channel=5 note=69 velocity=90 time=0.0020491791666666665
EXTRACT: note_on channel=1 note=64 velocity=0 time=0.0020491791666666665
EXTRACT: note_on channel=1 note=62 velocity=0 time=0
EXTRACT: note_on channel=1 note=57 velocity=0 time=0
EXTRACT: note_on channel=1 note=50 velocity=0 time=0
EXTRACT: note_on channel=1 note=64 velocity=110 time=0.004098358333333333
EXTRACT: note_on channel=1 note=62 velocity=98 time=0
EXTRACT: note_on channel=1 note=57 velocity=108 time=0
EXTRACT: note_on channel=1 note=50 velocity=92 time=0
EXTRACT: note_on channel=9 note=36 velocity=0 time=0.02868850833333333
EXTRACT: note_on channel=2 note=64 velocity=0 time=0.20491791666666664
EXTRACT: note_on channel=2 note=62 velocity=0 time=0
EXTRACT: note_on channel=2 note=57 velocity=0 time=0
EXTRACT: note_on channel=2 note=50 velocity=0 time=0
EXTRACT: note_on channel=9 note=36 velocity=60 time=0
EXTRACT: note_on channel=2 note=64 velocity=107 time=0.004098358333333333
EXTRACT: note_on channel=2 note=62 velocity=71 time=0
EXTRACT: note_on channel=2 note=57 velocity=109 time=0
EXTRACT: note_on channel=1 note=64 velocity=0 time=0.004098358333333333
EXTRACT: note_on channel=1 note=62 velocity=0 time=0
EXTRACT: note_on channel=1 note=57 velocity=0 time=0
EXTRACT: note_on channel=1 note=50 velocity=0 time=0
EXTRACT: note_on channel=1 note=64 velocity=65 time=0.004098358333333333
EXTRACT: note_on channel=1 note=62 velocity=116 time=0
EXTRACT: note_on channel=1 note=57 velocity=104 time=0
EXTRACT: note_on channel=9 note=36 velocity=0 time=0.02868850833333333
EXTRACT: note_on channel=2 note=64 velocity=0 time=0.20491791666666664
EXTRACT: note_on channel=2 note=62 velocity=0 time=0
EXTRACT: note_on channel=2 note=57 velocity=0 time=0
EXTRACT: note_on channel=9 note=40 velocity=72 time=0
EXTRACT: note_on channel=9 note=28 velocity=72 time=0
EXTRACT: note_on channel=5 note=69 velocity=0 time=0.0020491791666666665
EXTRACT: note_on channel=2 note=64 velocity=99 time=0.0020491791666666665
EXTRACT: note_on channel=2 note=62 velocity=85 time=0
EXTRACT: note_on channel=2 note=57 velocity=98 time=0
EXTRACT: note_on channel=2 note=50 velocity=98 time=0
EXTRACT: note_on channel=5 note=60 velocity=96 time=0.0020491791666666665
EXTRACT: note_on channel=1 note=64 velocity=0 time=0.0020491791666666665
EXTRACT: note_on channel=1 note=62 velocity=0 time=0
EXTRACT: note_on channel=1 note=57 velocity=0 time=0
EXTRACT: note_on channel=1 note=64 velocity=110 time=0.004098358333333333
EXTRACT: note_on channel=1 note=62 velocity=91 time=0
EXTRACT: note_on channel=1 note=57 velocity=82 time=0
EXTRACT: note_on channel=1 note=50 velocity=81 time=0
EXTRACT: note_on channel=9 note=40 velocity=0 time=0.02868850833333333
EXTRACT: note_on channel=9 note=28 velocity=0 time=0
EXTRACT: note_on channel=2 note=64 velocity=0 time=0.20491791666666664
EXTRACT: note_on channel=2 note=62 velocity=0 time=0
EXTRACT: note_on channel=2 note=57 velocity=0 time=0
EXTRACT: note_on channel=2 note=50 velocity=0 time=0
EXTRACT: note_on channel=5 note=60 velocity=0 time=0.0020491791666666665
EXTRACT: note_on channel=2 note=64 velocity=108 time=0.0020491791666666665
EXTRACT: note_on channel=2 note=62 velocity=114 time=0
EXTRACT: note_on channel=2 note=57 velocity=76 time=0
EXTRACT: note_on channel=5 note=62 velocity=110 time=0.0020491791666666665
EXTRACT: note_on channel=1 note=64 velocity=0 time=0.0020491791666666665
EXTRACT: note_on channel=1 note=62 velocity=0 time=0
EXTRACT: note_on channel=1 note=57 velocity=0 time=0
EXTRACT: note_on channel=1 note=50 velocity=0 time=0
EXTRACT: note_on channel=1 note=64 velocity=98 time=0.004098358333333333
EXTRACT: note_on channel=1 note=62 velocity=71 time=0
EXTRACT: note_on channel=1 note=57 velocity=83 time=0
EXTRACT: note_on channel=9 note=36 velocity=60 time=0.23360642499999998
EXTRACT: note_on channel=5 note=62 velocity=0 time=0.0061475374999999995
EXTRACT: note_on channel=9 note=36 velocity=0 time=0.03483604583333333
EXTRACT: note_on channel=2 note=64 velocity=0 time=0.20491791666666664
EXTRACT: note_on channel=2 note=62 velocity=0 time=0
EXTRACT: note_on channel=2 note=57 velocity=0 time=0
EXTRACT: note_on channel=2 note=65 velocity=95 time=0.004098358333333333
EXTRACT: note_on channel=2 note=62 velocity=92 time=0
EXTRACT: note_on channel=2 note=57 velocity=89 time=0
EXTRACT: note_on channel=1 note=64 velocity=0 time=0.004098358333333333
EXTRACT: note_on channel=1 note=62 velocity=0 time=0
EXTRACT: note_on channel=1 note=57 velocity=0 time=0
EXTRACT: note_on channel=1 note=65 velocity=89 time=0.004098358333333333
EXTRACT: note_on channel=1 note=62 velocity=86 time=0
EXTRACT: note_on channel=1 note=57 velocity=62 time=0
EXTRACT: note_on channel=2 note=65 velocity=0 time=0.23360642499999998
EXTRACT: note_on channel=2 note=62 velocity=0 time=0
EXTRACT: note_on channel=2 note=57 velocity=0 time=0
EXTRACT: note_on channel=9 note=40 velocity=72 time=0
EXTRACT: note_on channel=9 note=28 velocity=72 time=0
EXTRACT: note_on channel=2 note=65 velocity=107 time=0.004098358333333333
EXTRACT: note_on channel=2 note=62 velocity=101 time=0
EXTRACT: note_on channel=2 note=57 velocity=111 time=0
EXTRACT: note_on channel=1 note=65 velocity=0 time=0.004098358333333333
EXTRACT: note_on channel=1 note=62 velocity=0 time=0
EXTRACT: note_on channel=1 note=57 velocity=0 time=0
EXTRACT: note_on channel=1 note=65 velocity=89 time=0.004098358333333333
EXTRACT: note_on channel=1 note=62 velocity=85 time=0
EXTRACT: note_on channel=1 note=57 velocity=86 time=0
EXTRACT: note_on channel=9 note=40 velocity=0 time=0.02868850833333333
EXTRACT: note_on channel=9 note=28 velocity=0 time=0
EXTRACT: note_on channel=2 note=65 velocity=0 time=0.20491791666666664
EXTRACT: note_on channel=2 note=62 velocity=0 time=0
EXTRACT: note_on channel=2 note=57 velocity=0 time=0
EXTRACT: note_on channel=2 note=65 velocity=68 time=0.004098358333333333
EXTRACT: note_on channel=2 note=62 velocity=114 time=0
EXTRACT: note_on channel=2 note=57 velocity=85 time=0
EXTRACT: note_on channel=2 note=50 velocity=102 time=0
EXTRACT: note_on channel=1 note=65 velocity=0 time=0.004098358333333333
EXTRACT: note_on channel=1 note=62 velocity=0 time=0
EXTRACT: note_on channel=1 note=57 velocity=0 time=0
EXTRACT: note_on channel=1 note=65 velocity=104 time=0.004098358333333333
EXTRACT: note_on channel=1 note=62 velocity=61 time=0
EXTRACT: note_on channel=1 note=57 velocity=72 time=0
EXTRACT: note_on channel=1 note=50 velocity=99 time=0
EXTRACT: note_on channel=2 note=65 velocity=0 time=0.23360642499999998
EXTRACT: note_on channel=2 note=62 velocity=0 time=0
EXTRACT: note_on channel=2 note=57 velocity=0 time=0
EXTRACT: note_on channel=2 note=50 velocity=0 time=0
EXTRACT: note_on channel=9 note=36 velocity=60 time=0
EXTRACT: note_on channel=2 note=65 velocity=89 time=0.004098358333333333
EXTRACT: note_on channel=2 note=62 velocity=99 time=0
EXTRACT: note_on channel=2 note=57 velocity=116 time=0
EXTRACT: note_on channel=2 note=50 velocity=106 time=0
EXTRACT: note_on channel=5 note=67 velocity=94 time=0.0020491791666666665
EXTRACT: note_on channel=1 note=65 velocity=0 time=0.0020491791666666665
EXTRACT: note_on channel=1 note=62 velocity=0 time=0
EXTRACT: note_on channel=1 note=57 velocity=0 time=0
EXTRACT: note_on channel=1 note=50 velocity=0 time=0
EXTRACT: note_on channel=1 note=65 velocity=88 time=0.004098358333333333
EXTRACT: note_on channel=1 note=62 velocity=88 time=0
EXTRACT: note_on channel=1 note=57 velocity=89 time=0
EXTRACT: note_on channel=1 note=50 velocity=112 time=0
EXTRACT: note_on channel=9 note=36 velocity=0 time=0.02868850833333333
EXTRACT: note_on channel=2 note=65 velocity=0 time=0.20491791666666664
EXTRACT: note_on channel=2 note=62 velocity=0 time=0
EXTRACT: note_on channel=2 note=57 velocity=0 time=0
EXTRACT: note_on channel=2 note=50 velocity=0 time=0
EXTRACT: note_on channel=9 note=36 velocity=60 time=0
EXTRACT: note_on channel=5 note=67 velocity=0 time=0.0020491791666666665
EXTRACT: note_on channel=2 note=65 velocity=113 time=0.0020491791666666665
EXTRACT: note_on channel=2 note=62 velocity=102 time=0
EXTRACT: note_on channel=2 note=57 velocity=74 time=0
EXTRACT: note_on channel=5 note=67 velocity=90 time=0.0020491791666666665
EXTRACT: note_on channel=1 note=65 velocity=0 time=0.0020491791666666665
EXTRACT: note_on channel=1 note=62 velocity=0 time=0
EXTRACT: note_on channel=1 note=57 velocity=0 time=0
EXTRACT: note_on channel=1 note=50 velocity=0 time=0
EXTRACT: note_on channel=1 note=65 velocity=69 time=0.004098358333333333
EXTRACT: note_on channel=1 note=62 velocity=103 time=0
EXTRACT: note_on channel=1 note=57 velocity=76 time=0
EXTRACT: note_on channel=9 note=36 velocity=0 time=0.02868850833333333
EXTRACT: note_on channel=2 note=65 velocity=0 time=0.20491791666666664
EXTRACT: note_on channel=2 note=62 velocity=0 time=0
EXTRACT: note_on channel=2 note=57 velocity=0 time=0
EXTRACT: note_on channel=9 note=40 velocity=127 time=0
EXTRACT: note_on channel=9 note=28 velocity=50 time=0
EXTRACT: note_on channel=5 note=67 velocity=0 time=0.0020491791666666665
EXTRACT: note_on channel=2 note=65 velocity=91 time=0.0020491791666666665
EXTRACT: note_on channel=2 note=62 velocity=109 time=0
EXTRACT: note_on channel=2 note=57 velocity=94 time=0
EXTRACT: note_on channel=2 note=50 velocity=88 time=0
EXTRACT: note_on channel=5 note=60 velocity=103 time=0.0020491791666666665
EXTRACT: note_on channel=1 note=65 velocity=0 time=0.0020491791666666665
EXTRACT: note_on channel=1 note=62 velocity=0 time=0
EXTRACT: note_on channel=1 note=57 velocity=0 time=0
EXTRACT: note_on channel=1 note=65 velocity=82 time=0.004098358333333333
EXTRACT: note_on channel=1 note=62 velocity=85 time=0
EXTRACT: note_on channel=1 note=57 velocity=84 time=0
EXTRACT: note_on channel=1 note=50 velocity=87 time=0
EXTRACT: note_on channel=9 note=40 velocity=0 time=0.02868850833333333
EXTRACT: note_on channel=9 note=28 velocity=0 time=0
EXTRACT: note_on channel=2 note=65 velocity=0 time=0.20491791666666664
EXTRACT: note_on channel=2 note=62 velocity=0 time=0
EXTRACT: note_on channel=2 note=57 velocity=0 time=0
EXTRACT: note_on channel=2 note=50 velocity=0 time=0
EXTRACT: note_on channel=5 note=60 velocity=0 time=0.0020491791666666665
EXTRACT: note_on channel=2 note=65 velocity=90 time=0.0020491791666666665
EXTRACT: note_on channel=2 note=62 velocity=67 time=0
EXTRACT: note_on channel=2 note=57 velocity=91 time=0
EXTRACT: note_on channel=2 note=50 velocity=113 time=0
EXTRACT: note_on channel=5 note=62 velocity=109 time=0.0020491791666666665
EXTRACT: note_on channel=1 note=65 velocity=0 time=0.0020491791666666665
EXTRACT: note_on channel=1 note=62 velocity=0 time=0
EXTRACT: note_on channel=1 note=57 velocity=0 time=0
EXTRACT: note_on channel=1 note=50 velocity=0 time=0
EXTRACT: note_on channel=1 note=65 velocity=72 time=0.004098358333333333
EXTRACT: note_on channel=1 note=62 velocity=75 time=0
EXTRACT: note_on channel=1 note=57 velocity=63 time=0
EXTRACT: note_on channel=1 note=50 velocity=74 time=0
EXTRACT: note_on channel=2 note=65 velocity=0 time=0.23360642499999998
EXTRACT: note_on channel=2 note=62 velocity=0 time=0
EXTRACT: note_on channel=2 note=57 velocity=0 time=0
EXTRACT: note_on channel=2 note=50 velocity=0 time=0
EXTRACT: note_on channel=9 note=42 velocity=62 time=0
EXTRACT: note_on channel=9 note=36 velocity=120 time=0
EXTRACT: note_on channel=2 note=59 velocity=96 time=0.004098358333333333
EXTRACT: note_on channel=2 note=62 velocity=98 time=0
EXTRACT: note_on channel=2 note=55 velocity=90 time=0
EXTRACT: note_on channel=2 note=48 velocity=91 time=0
EXTRACT: note_on channel=0 note=36 velocity=113 time=0.004098358333333333
EXTRACT: note_on channel=1 note=65 velocity=0 time=0
EXTRACT: note_on channel=1 note=62 velocity=0 time=0
EXTRACT: note_on channel=1 note=57 velocity=0 time=0
EXTRACT: note_on channel=1 note=50 velocity=0 time=0
EXTRACT: note_on channel=4 note=76 velocity=105 time=0.0010245895833333333
EXTRACT: note_on channel=4 note=83 velocity=103 time=0
EXTRACT: note_on channel=4 note=79 velocity=103 time=0
EXTRACT: note_on channel=4 note=72 velocity=116 time=0
EXTRACT: note_on channel=1 note=59 velocity=105 time=0.0030737687499999998
EXTRACT: note_on channel=1 note=62 velocity=94 time=0
EXTRACT: note_on channel=1 note=55 velocity=95 time=0
EXTRACT: note_on channel=1 note=48 velocity=107 time=0
EXTRACT: note_on channel=9 note=42 velocity=0 time=0.02868850833333333
EXTRACT: note_on channel=9 note=36 velocity=0 time=0
EXTRACT: note_on channel=0 note=36 velocity=0 time=0.15163925833333333
EXTRACT: note_on channel=9 note=42 velocity=50 time=0.053278658333333326
EXTRACT: note_on channel=0 note=36 velocity=113 time=0.008196716666666666
EXTRACT: note_on channel=9 note=42 velocity=0 time=0.032786866666666664
EXTRACT: note_on channel=0 note=36 velocity=0 time=0.15163925833333333
EXTRACT: note_on channel=2 note=59 velocity=0 time=0.053278658333333326
EXTRACT: note_on channel=2 note=62 velocity=0 time=0
EXTRACT: note_on channel=2 note=55 velocity=0 time=0
EXTRACT: note_on channel=2 note=48 velocity=0 time=0
EXTRACT: note_on channel=9 note=40 velocity=127 time=0
EXTRACT: note_on channel=9 note=42 velocity=62 time=0
EXTRACT: note_on channel=2 note=59 velocity=113 time=0.004098358333333333
EXTRACT: note_on channel=2 note=62 velocity=110 time=0
EXTRACT: note_on channel=2 note=55 velocity=90 time=0
EXTRACT: note_on channel=2 note=48 velocity=88 time=0
EXTRACT: note_on channel=0 note=36 velocity=120 time=0.004098358333333333
EXTRACT: note_on channel=1 note=59 velocity=0 time=0
EXTRACT: note_on channel=1 note=62 velocity=0 time=0
EXTRACT: note_on channel=1 note=55 velocity=0 time=0
EXTRACT: note_on channel=1 note=48 velocity=0 time=0
EXTRACT: note_on channel=1 note=59 velocity=89 time=0.004098358333333333
EXTRACT: note_on channel=1 note=62 velocity=117 time=0
EXTRACT: note_on channel=1 note=55 velocity=92 time=0
EXTRACT: note_on channel=1 note=48 velocity=116 time=0
EXTRACT: note_on channel=9 note=40 velocity=0 time=0.02868850833333333
EXTRACT: note_on channel=9 note=42 velocity=0 time=0
EXTRACT: note_on channel=0 note=36 velocity=0 time=0.15163925833333333
EXTRACT: note_on channel=9 note=42 velocity=63 time=0.053278658333333326
EXTRACT: note_on channel=0 note=36 velocity=120 time=0.008196716666666666
EXTRACT: note_on channel=9 note=42 velocity=0 time=0.032786866666666664
EXTRACT: note_on channel=0 note=36 velocity=0 time=0.15163925833333333
EXTRACT: note_on channel=2 note=59 velocity=0 time=0.053278658333333326
EXTRACT: note_on channel=2 note=62 velocity=0 time=0
EXTRACT: note_on channel=2 note=55 velocity=0 time=0
EXTRACT: note_on channel=2 note=48 velocity=0 time=0
EXTRACT: note_on channel=9 note=36 velocity=120 time=0
EXTRACT: note_on channel=9 note=42 velocity=62 time=0
EXTRACT: note_on channel=2 note=59 velocity=100 time=0.004098358333333333
EXTRACT: note_on channel=2 note=62 velocity=102 time=0
EXTRACT: note_on channel=2 note=55 velocity=117 time=0
EXTRACT: note_on channel=0 note=36 velocity=121 time=0.004098358333333333
EXTRACT: note_on channel=1 note=59 velocity=0 time=0
EXTRACT: note_on channel=1 note=62 velocity=0 time=0
EXTRACT: note_on channel=1 note=55 velocity=0 time=0
EXTRACT: note_on channel=1 note=48 velocity=0 time=0
EXTRACT: note_on channel=1 note=59 velocity=84 time=0.004098358333333333
EXTRACT: note_on channel=1 note=62 velocity=112 time=0
EXTRACT: note_on channel=1 note=55 velocity=96 time=0
EXTRACT: note_on channel=9 note=36 velocity=0 time=0.02868850833333333
EXTRACT: note_on channel=9 note=42 velocity=0 time=0
EXTRACT: note_on channel=0 note=36 velocity=0 time=0.15163925833333333
EXTRACT: note_on channel=2 note=59 velocity=0 time=0.053278658333333326
EXTRACT: note_on channel=2 note=62 velocity=0 time=0
EXTRACT: note_on channel=2 note=55 velocity=0 time=0
EXTRACT: note_on channel=9 note=36 velocity=110 time=0
EXTRACT: note_on channel=9 note=42 velocity=41 time=0
EXTRACT: note_on channel=2 note=59 velocity=100 time=0.004098358333333333
EXTRACT: note_on channel=2 note=62 velocity=75 time=0
EXTRACT: note_on channel=2 note=55 velocity=102 time=0
EXTRACT: note_on channel=2 note=48 velocity=99 time=0
EXTRACT: note_on channel=0 note=36 velocity=104 time=0.004098358333333333
EXTRACT: note_on channel=1 note=59 velocity=0 time=0
EXTRACT: note_on channel=1 note=62 velocity=0 time=0
EXTRACT: note_on channel=1 note=55 velocity=0 time=0
EXTRACT: note_on channel=1 note=59 velocity=107 time=0.004098358333333333
EXTRACT: note_on channel=1 note=62 velocity=61 time=0
EXTRACT: note_on channel=1 note=55 velocity=89 time=0
EXTRACT: note_on channel=1 note=48 velocity=61 time=0
EXTRACT: note_on channel=9 note=36 velocity=0 time=0.02868850833333333
EXTRACT: note_on channel=9 note=42 velocity=0 time=0
EXTRACT: note_on channel=0 note=36 velocity=0 time=0.15163925833333333
EXTRACT: note_on channel=2 note=59 velocity=0 time=0.053278658333333326
EXTRACT: note_on channel=2 note=62 velocity=0 time=0
EXTRACT: note_on channel=2 note=55 velocity=0 time=0
EXTRACT: note_on channel=2 note=48 velocity=0 time=0
EXTRACT: note_on channel=9 note=40 velocity=127 time=0
EXTRACT: note_on channel=9 note=42 velocity=57 time=0
EXTRACT: note_on channel=2 note=59 velocity=107 time=0.004098358333333333
EXTRACT: note_on channel=2 note=62 velocity=101 time=0
EXTRACT: note_on channel=2 note=55 velocity=116 time=0
EXTRACT: note_on channel=2 note=48 velocity=115 time=0
EXTRACT: note_on channel=0 note=36 velocity=126 time=0.004098358333333333
EXTRACT: note_on channel=1 note=59 velocity=0 time=0
EXTRACT: note_on channel=1 note=62 velocity=0 time=0
EXTRACT: note_on channel=1 note=55 velocity=0 time=0
EXTRACT: note_on channel=1 note=48 velocity=0 time=0
EXTRACT: note_on channel=1 note=59 velocity=117 time=0.004098358333333333
EXTRACT: note_on channel=1 note=62 velocity=79 time=0
EXTRACT: note_on channel=1 note=55 velocity=113 time=0
EXTRACT: note_on channel=1 note=48 velocity=114 time=0
EXTRACT: note_on channel=9 note=40 velocity=0 time=0.02868850833333333
EXTRACT: note_on channel=9 note=42 velocity=0 time=0
EXTRACT: note_on channel=0 note=36 velocity=0 time=0.15163925833333333
EXTRACT: note_on channel=2 note=59 velocity=0 time=0.053278658333333326
EXTRACT: note_on channel=2 note=62 velocity=0 time=0
EXTRACT: note_on channel=2 note=55 velocity=0 time=0
EXTRACT: note_on channel=2 note=48 velocity=0 time=0
EXTRACT: note_on channel=9 note=36 velocity=110 time=0
EXTRACT: note_on channel=9 note=42 velocity=49 time=0
EXTRACT: note_on channel=2 note=59 velocity=79 time=0.004098358333333333
EXTRACT: note_on channel=2 note=62 velocity=115 time=0
EXTRACT: note_on channel=2 note=55 velocity=117 time=0
EXTRACT: note_on channel=0 note=36 velocity=123 time=0.004098358333333333
EXTRACT: note_on channel=1 note=59 velocity=0 time=0
EXTRACT: note_on channel=1 note=62 velocity=0 time=0
EXTRACT: note_on channel=1 note=55 velocity=0 time=0
EXTRACT: note_on channel=1 note=48 velocity=0 time=0
EXTRACT: note_on channel=1 note=59 velocity=96 time=0.004098358333333333
EXTRACT: note_on channel=1 note=62 velocity=86 time=0
EXTRACT: note_on channel=1 note=55 velocity=83 time=0
EXTRACT: note_on channel=9 note=36 velocity=0 time=0.02868850833333333
EXTRACT: note_on channel=9 note=42 velocity=0 time=0
EXTRACT: note_on channel=9 note=42 velocity=68 time=0.20491791666666664
EXTRACT: note_on channel=5 note=62 velocity=0 time=0.0061475374999999995
EXTRACT: note_on channel=0 note=36 velocity=0 time=0.0020491791666666665
EXTRACT: note_on channel=9 note=42 velocity=0 time=0.032786866666666664
EXTRACT: note_on channel=2 note=59 velocity=0 time=0.20491791666666664
EXTRACT: note_on channel=2 note=62 velocity=0 time=0
EXTRACT: note_on channel=2 note=55 velocity=0 time=0
EXTRACT: note_on channel=9 note=36 velocity=120 time=0
EXTRACT: note_on channel=9 note=42 velocity=41 time=0
EXTRACT: note_on channel=2 note=59 velocity=89 time=0.004098358333333333
EXTRACT: note_on channel=2 note=64 velocity=69 time=0
EXTRACT: note_on channel=2 note=55 velocity=103 time=0
EXTRACT: note_on channel=0 note=36 velocity=117 time=0.004098358333333333
EXTRACT: note_on channel=1 note=59 velocity=0 time=0
EXTRACT: note_on channel=1 note=62 velocity=0 time=0
EXTRACT: note_on channel=1 note=55 velocity=0 time=0
EXTRACT: note_on channel=1 note=59 velocity=66 time=0.004098358333333333
EXTRACT: note_on channel=1 note=64 velocity=75 time=0
EXTRACT: note_on channel=1 note=55 velocity=62 time=0
EXTRACT: note_on channel=9 note=36 velocity=0 time=0.02868850833333333
EXTRACT: note_on channel=9 note=42 velocity=0 time=0
EXTRACT: note_on channel=0 note=36 velocity=0 time=0.15163925833333333
EXTRACT: note_on channel=2 note=59 velocity=0 time=0.053278658333333326
EXTRACT: note_on channel=2 note=64 velocity=0 time=0
EXTRACT: note_on channel=2 note=55 velocity=0 time=0
EXTRACT: note_on channel=9 note=40 velocity=127 time=0
EXTRACT: note_on channel=9 note=42 velocity=65 time=0
EXTRACT: note_on channel=2 note=59 velocity=101 time=0.004098358333333333
EXTRACT: note_on channel=2 note=64 velocity=93 time=0
EXTRACT: note_on channel=2 note=55 velocity=112 time=0
EXTRACT: note_on channel=2 note=48 velocity=86 time=0
EXTRACT: note_on channel=0 note=36 velocity=124 time=0.004098358333333333
EXTRACT: note_on channel=1 note=59 velocity=0 time=0
EXTRACT: note_on channel=1 note=64 velocity=0 time=0
EXTRACT: note_on channel=1 note=55 velocity=0 time=0
EXTRACT: note_on channel=1 note=59 velocity=110 time=0.004098358333333333
EXTRACT: note_on channel=1 note=64 velocity=104 time=0
EXTRACT: note_on channel=1 note=55 velocity=100 time=0
EXTRACT: note_on channel=1 note=48 velocity=109 time=0
EXTRACT: note_on channel=9 note=40 velocity=0 time=0.02868850833333333
EXTRACT: note_on channel=9 note=42 velocity=0 time=0
EXTRACT: note_on channel=0 note=36 velocity=0 time=0.15163925833333333
EXTRACT: note_on channel=2 note=59 velocity=0 time=0.053278658333333326
EXTRACT: note_on channel=2 note=64 velocity=0 time=0
EXTRACT: note_on channel=2 note=55 velocity=0 time=0
EXTRACT: note_on channel=2 note=48 velocity=0 time=0
EXTRACT: note_on channel=9 note=42 velocity=68 time=0
EXTRACT: note_on channel=2 note=59 velocity=102 time=0.004098358333333333
EXTRACT: note_on channel=2 note=64 velocity=110 time=0
EXTRACT: note_on channel=2 note=55 velocity=76 time=0
EXTRACT: note_on channel=0 note=36 velocity=109 time=0.004098358333333333
EXTRACT: note_on channel=1 note=59 velocity=0 time=0
EXTRACT: note_on channel=1 note=64 velocity=0 time=0
EXTRACT: note_on channel=1 note=55 velocity=0 time=0
EXTRACT: note_on channel=1 note=48 velocity=0 time=0
EXTRACT: note_on channel=1 note=59 velocity=67 time=0.004098358333333333
EXTRACT: note_on channel=1 note=64 velocity=81 time=0
EXTRACT: note_on channel=1 note=55 velocity=68 time=0
EXTRACT: note_on channel=9 note=42 velocity=0 time=0.02868850833333333
EXTRACT: note_on channel=0 note=36 velocity=0 time=0.15163925833333333
EXTRACT: note_on channel=2 note=59 velocity=0 time=0.053278658333333326
EXTRACT: note_on channel=2 note=64 velocity=0 time=0
EXTRACT: note_on channel=2 note=55 velocity=0 time=0
EXTRACT: note_on channel=9 note=36 velocity=120 time=0
EXTRACT: note_on channel=9 note=42 velocity=58 time=0
EXTRACT: note_on channel=2 note=59 velocity=115 time=0.004098358333333333
EXTRACT: note_on channel=2 note=64 velocity=103 time=0
EXTRACT: note_on channel=2 note=55 velocity=86 time=0
EXTRACT: note_on channel=2 note=48 velocity=116 time=0
EXTRACT: note_on channel=0 note=36 velocity=125 time=0.004098358333333333
EXTRACT: note_on channel=1 note=59 velocity=0 time=0
EXTRACT: note_on channel=1 note=64 velocity=0 time=0
EXTRACT: note_on channel=1 note=55 velocity=0 time=0
EXTRACT: note_on channel=1 note=59 velocity=95 time=0.004098358333333333
EXTRACT: note_on channel=1 note=64 velocity=99 time=0
EXTRACT: note_on channel=1 note=55 velocity=83 time=0
EXTRACT: note_on channel=1 note=48 velocity=105 time=0
EXTRACT: note_on channel=9 note=36 velocity=0 time=0.02868850833333333
EXTRACT: note_on channel=9 note=42 velocity=0 time=0
EXTRACT: note_on channel=0 note=36 velocity=0 time=0.15163925833333333
EXTRACT: note_on channel=2 note=59 velocity=0 time=0.053278658333333326
EXTRACT: note_on channel=2 note=64 velocity=0 time=0
EXTRACT: note_on channel=2 note=55 velocity=0 time=0
EXTRACT: note_on channel=2 note=48 velocity=0 time=0
EXTRACT: note_on channel=9 note=40 velocity=110 time=0
EXTRACT: note_on channel=9 note=42 velocity=43 time=0
EXTRACT: note_on channel=2 note=59 velocity=70 time=0.004098358333333333
EXTRACT: note_on channel=2 note=64 velocity=69 time=0
EXTRACT: note_on channel=2 note=55 velocity=94 time=0
EXTRACT: note_on channel=0 note=36 velocity=117 time=0.004098358333333333
EXTRACT: note_on channel=1 note=59 velocity=0 time=0
EXTRACT: note_on channel=1 note=64 velocity=0 time=0
EXTRACT: note_on channel=1 note=55 velocity=0 time=0
EXTRACT: note_on channel=1 note=48 velocity=0 time=0
EXTRACT: note_on channel=1 note=59 velocity=81 time=0.004098358333333333
EXTRACT: note_on channel=1 note=64 velocity=92 time=0
EXTRACT: note_on channel=1 note=55 velocity=116 time=0
EXTRACT: note_on channel=9 note=40 velocity=0 time=0.02868850833333333
EXTRACT: note_on channel=9 note=42 velocity=0 time=0
EXTRACT: note_on channel=9 note=40 velocity=70 time=0.08196716666666666
EXTRACT: note_on channel=9 note=40 velocity=0 time=0.04098358333333333
EXTRACT: note_on channel=0 note=36 velocity=0 time=0.02868850833333333
EXTRACT: note_on channel=2 note=59 velocity=0 time=0.053278658333333326
EXTRACT: note_on channel=2 note=64 velocity=0 time=0
EXTRACT: note_on channel=2 note=55 velocity=0 time=0
EXTRACT: note_on channel=9 note=40 velocity=127 time=0
EXTRACT: note_on channel=9 note=42 velocity=64 time=0
EXTRACT: note_on channel=2 note=59 velocity=107 time=0.004098358333333333
EXTRACT: note_on channel=2 note=64 velocity=109 time=0
EXTRACT: note_on channel=2 note=55 velocity=102 time=0
EXTRACT: note_on channel=2 note=48 velocity=108 time=0
EXTRACT: note_on channel=0 note=36 velocity=113 time=0.004098358333333333
EXTRACT: note_on channel=1 note=59 velocity=0 time=0
EXTRACT: note_on channel=1 note=64 velocity=0 time=0
EXTRACT: note_on channel=1 note=55 velocity=0 time=0
EXTRACT: note_on channel=1 note=59 velocity=107 time=0.004098358333333333
EXTRACT: note_on channel=1 note=64 velocity=95 time=0
EXTRACT: note_on channel=1 note=55 velocity=113 time=0
EXTRACT: note_on channel=1 note=48 velocity=91 time=0
EXTRACT: note_on channel=9 note=40 velocity=0 time=0.02868850833333333
EXTRACT: note_on channel=9 note=42 velocity=0 time=0
EXTRACT: note_on channel=0 note=36 velocity=0 time=0.15163925833333333
EXTRACT: note_on channel=2 note=59 velocity=0 time=0.053278658333333326
EXTRACT: note_on channel=2 note=64 velocity=0 time=0
EXTRACT: note_on channel=2 note=55 velocity=0 time=0
EXTRACT: note_on channel=2 note=48 velocity=0 time=0
EXTRACT: note_on channel=9 note=40 velocity=90 time=0
EXTRACT: note_on channel=9 note=42 velocity=41 time=0
EXTRACT: note_on channel=2 note=59 velocity=93 time=0.004098358333333333
EXTRACT: note_on channel=2 note=64 velocity=72 time=0
EXTRACT: note_on channel=2 note=55 velocity=94 time=0
EXTRACT: note_on channel=0 note=36 velocity=121 time=0.004098358333333333
EXTRACT: note_on channel=1 note=59 velocity=0 time=0
EXTRACT: note_on channel=1 note=64 velocity=0 time=0
EXTRACT: note_on channel=1 note=55 velocity=0 time=0
EXTRACT: note_on channel=1 note=48 velocity=0 time=0
EXTRACT: note_on channel=1 note=59 velocity=84 time=0.004098358333333333
EXTRACT: note_on channel=1 note=64 velocity=95 time=0
EXTRACT: note_on channel=1 note=55 velocity=97 time=0
EXTRACT: note_on channel=9 note=40 velocity=0 time=0.02868850833333333
EXTRACT: note_on channel=9 note=42 velocity=0 time=0
EXTRACT: note_on channel=9 note=40 velocity=120 time=0.08196716666666666
EXTRACT: note_on channel=9 note=40 velocity=0 time=0.04098358333333333
EXTRACT: note_on channel=0 note=36 velocity=0 time=0.02868850833333333
EXTRACT: note_on channel=2 note=59 velocity=0 time=0.053278658333333326
EXTRACT: note_on channel=2 note=64 velocity=0 time=0
EXTRACT: note_on channel=2 note=55 velocity=0 time=0
EXTRACT: note_on channel=9 note=49 velocity=100 time=0
EXTRACT: note_on channel=9 note=36 velocity=120 time=0
EXTRACT: note_on channel=2 note=64 velocity=86 time=0.004098358333333333
EXTRACT: note_on channel=2 note=60 velocity=100 time=0
EXTRACT: note_on channel=2 note=55 velocity=94 time=0
EXTRACT: note_on channel=2 note=48 velocity=112 time=0
EXTRACT: note_on channel=0 note=36 velocity=107 time=0.004098358333333333
EXTRACT: note_on channel=1 note=59 velocity=0 time=0
EXTRACT: note_on channel=1 note=64 velocity=0 time=0
EXTRACT: note_on channel=1 note=55 velocity=0 time=0
EXTRACT: note_on channel=4 note=76 velocity=0 time=0.0010245895833333333
EXTRACT: note_on channel=4 note=83 velocity=0 time=0
EXTRACT: note_on channel=4 note=79 velocity=0 time=0
EXTRACT: note_on channel=4 note=72 velocity=0 time=0
EXTRACT: note_on channel=4 note=72 velocity=98 time=0
EXTRACT: note_on channel=4 note=76 velocity=103 time=0
EXTRACT: note_on channel=4 note=79 velocity=106 time=0
EXTRACT: note_on channel=1 note=64 velocity=115 time=0.0030737687499999998
EXTRACT: note_on channel=1 note=60 velocity=100 time=0
EXTRACT: note_on channel=1 note=55 velocity=102 time=0
EXTRACT: note_on channel=1 note=48 velocity=112 time=0
EXTRACT: note_on channel=9 note=49 velocity=0 time=0.02868850833333333
EXTRACT: note_on channel=9 note=36 velocity=0 time=0
EXTRACT: note_on channel=9 note=42 velocity=42 time=0.20491791666666664
EXTRACT: note_on channel=0 note=36 velocity=0 time=0.008196716666666666
EXTRACT: note_on channel=9 note=42 velocity=0 time=0.032786866666666664
EXTRACT: note_on channel=2 note=64 velocity=0 time=0.20491791666666664
EXTRACT: note_on channel=2 note=60 velocity=0 time=0
EXTRACT: note_on channel=2 note=55 velocity=0 time=0
EXTRACT: note_on channel=2 note=48 velocity=0 time=0
EXTRACT: note_on channel=9 note=40 velocity=127 time=0
EXTRACT: note_on channel=9 note=42 velocity=60 time=0
EXTRACT: note_on channel=2 note=64 velocity=85 time=0.004098358333333333
EXTRACT: note_on channel=2 note=60 velocity=89 time=0
EXTRACT: note_on channel=2 note=55 velocity=110 time=0
EXTRACT: note_on channel=2 note=48 velocity=99 time=0
EXTRACT: note_on channel=0 note=36 velocity=111 time=0.004098358333333333
EXTRACT: note_on channel=1 note=64 velocity=0 time=0
EXTRACT: note_on channel=1 note=60 velocity=0 time=0
EXTRACT: note_on channel=1 note=55 velocity=0 time=0
EXTRACT: note_on channel=1 note=48 velocity=0 time=0
EXTRACT: note_on channel=1 note=64 velocity=97 time=0.004098358333333333
EXTRACT: note_on channel=1 note=60 velocity=109 time=0
EXTRACT: note_on channel=1 note=55 velocity=104 time=0
EXTRACT: note_on channel=1 note=48 velocity=84 time=0
EXTRACT: note_on channel=9 note=40 velocity=0 time=0.02868850833333333
EXTRACT: note_on channel=9 note=42 velocity=0 time=0
EXTRACT: note_on channel=9 note=42 velocity=57 time=0.20491791666666664
EXTRACT: note_on channel=5 note=72 velocity=61 time=0.0061475374999999995
EXTRACT: note_on channel=5 note=67 velocity=102 time=0
EXTRACT: note_on channel=0 note=36 velocity=0 time=0.0020491791666666665
EXTRACT: note_on channel=9 note=42 velocity=0 time=0.032786866666666664
EXTRACT: note_on channel=2 note=64 velocity=0 time=0.20491791666666664
EXTRACT: note_on channel=2 note=60 velocity=0 time=0
EXTRACT: note_on channel=2 note=55 velocity=0 time=0
EXTRACT: note_on channel=2 note=48 velocity=0 time=0
EXTRACT: note_on channel=9 note=36 velocity=120 time=0
EXTRACT: note_on channel=9 note=42 velocity=57 time=0
EXTRACT: note_on channel=5 note=72 velocity=0 time=0.0020491791666666665
EXTRACT: note_on channel=5 note=67 velocity=0 time=0
EXTRACT: note_on channel=2 note=64 velocity=93 time=0.0020491791666666665
EXTRACT: note_on channel=2 note=60 velocity=115 time=0
EXTRACT: note_on channel=2 note=55 velocity=108 time=0
EXTRACT: note_on channel=5 note=72 velocity=64 time=0.0020491791666666665
EXTRACT: note_on channel=5 note=67 velocity=93 time=0
EXTRACT: note_on channel=0 note=36 velocity=116 time=0.0020491791666666665
EXTRACT: note_on channel=1 note=64 velocity=0 time=0
EXTRACT: note_on channel=1 note=60 velocity=0 time=0
EXTRACT: note_on channel=1 note=55 velocity=0 time=0
EXTRACT: note_on channel=1 note=48 velocity=0 time=0
EXTRACT: note_on channel=1 note=64 velocity=108 time=0.004098358333333333
EXTRACT: note_on channel=1 note=60 velocity=96 time=0
EXTRACT: note_on channel=1 note=55 velocity=103 time=0
EXTRACT: note_on channel=9 note=36 velocity=0 time=0.02868850833333333
EXTRACT: note_on channel=9 note=42 velocity=0 time=0
EXTRACT: note_on channel=0 note=36 velocity=0 time=0.15163925833333333
EXTRACT: note_on channel=2 note=64 velocity=0 time=0.053278658333333326
EXTRACT: note_on channel=2 note=60 velocity=0 time=0
EXTRACT: note_on channel=2 note=55 velocity=0 time=0
EXTRACT: note_on channel=9 note=36 velocity=110 time=0
EXTRACT: note_on channel=9 note=42 velocity=45 time=0
EXTRACT: note_on channel=5 note=72 velocity=0 time=0.0020491791666666665
EXTRACT: note_on channel=5 note=67 velocity=0 time=0
EXTRACT: note_on channel=2 note=64 velocity=113 time=0.0020491791666666665
EXTRACT: note_on channel=2 note=60 velocity=108 time=0
EXTRACT: note_on channel=2 note=55 velocity=111 time=0
EXTRACT: note_on channel=2 note=48 velocity=68 time=0
EXTRACT: note_on channel=5 note=74 velocity=62 time=0.0020491791666666665
EXTRACT: note_on channel=5 note=69 velocity=93 time=0
EXTRACT: note_on channel=0 note=36 velocity=111 time=0.0020491791666666665
EXTRACT: note_on channel=1 note=64 velocity=0 time=0
EXTRACT: note_on channel=1 note=60 velocity=0 time=0
EXTRACT: note_on channel=1 note=55 velocity=0 time=0
EXTRACT: note_on channel=1 note=64 velocity=85 time=0.004098358333333333
EXTRACT: note_on channel=1 note=60 velocity=60 time=0
EXTRACT: note_on channel=1 note=55 velocity=88 time=0
EXTRACT: note_on channel=1 note=48 velocity=64 time=0
EXTRACT: note_on channel=9 note=36 velocity=0 time=0.02868850833333333
EXTRACT: note_on channel=9 note=42 velocity=0 time=0
EXTRACT: note_on channel=2 note=64 velocity=0 time=0.20491791666666664
EXTRACT: note_on channel=2 note=60 velocity=0 time=0
EXTRACT: note_on channel=2 note=55 velocity=0 time=0
EXTRACT: note_on channel=2 note=48 velocity=0 time=0
EXTRACT: note_on channel=9 note=40 velocity=127 time=0
EXTRACT: note_on channel=9 note=42 velocity=64 time=0
EXTRACT: note_on channel=2 note=64 velocity=112 time=0.004098358333333333
EXTRACT: note_on channel=2 note=60 velocity=96 time=0
EXTRACT: note_on channel=2 note=55 velocity=88 time=0
EXTRACT: note_on channel=2 note=48 velocity=107 time=0
EXTRACT: note_on channel=5 note=74 velocity=0 time=0.0020491791666666665
EXTRACT: note_on channel=5 note=69 velocity=0 time=0
EXTRACT: note_on channel=0 note=36 velocity=0 time=0.0020491791666666665
EXTRACT: note_on channel=1 note=64 velocity=0 time=0
EXTRACT: note_on channel=1 note=60 velocity=0 time=0
EXTRACT: note_on channel=1 note=55 velocity=0 time=0
EXTRACT: note_on channel=1 note=48 velocity=0 time=0
EXTRACT: note_on channel=1 note=64 velocity=104 time=0.004098358333333333
EXTRACT: note_on channel=1 note=60 velocity=117 time=0
EXTRACT: note_on channel=1 note=55 velocity=114 time=0
EXTRACT: note_on channel=1 note=48 velocity=103 time=0
EXTRACT: note_on channel=9 note=40 velocity=0 time=0.02868850833333333
EXTRACT: note_on channel=9 note=42 velocity=0 time=0
EXTRACT: note_on channel=2 note=64 velocity=0 time=0.20491791666666664
EXTRACT: note_on channel=2 note=60 velocity=0 time=0
EXTRACT: note_on channel=2 note=55 velocity=0 time=0
EXTRACT: note_on channel=2 note=48 velocity=0 time=0
EXTRACT: note_on channel=9 note=36 velocity=110 time=0
EXTRACT: note_on channel=9 note=42 velocity=46 time=0
EXTRACT: note_on channel=2 note=64 velocity=80 time=0.004098358333333333
EXTRACT: note_on channel=2 note=60 velocity=83 time=0
EXTRACT: note_on channel=2 note=55 velocity=103 time=0
EXTRACT: note_on channel=5 note=76 velocity=54 time=0.0020491791666666665
EXTRACT: note_on channel=5 note=72 velocity=87 time=0
EXTRACT: note_on channel=0 note=40 velocity=122 time=0.0020491791666666665
EXTRACT: note_on channel=1 note=64 velocity=0 time=0
EXTRACT: note_on channel=1 note=60 velocity=0 time=0
EXTRACT: note_on channel=1 note=55 velocity=0 time=0
EXTRACT: note_on channel=1 note=48 velocity=0 time=0
EXTRACT: note_on channel=1 note=64 velocity=88 time=0.004098358333333333
EXTRACT: note_on channel=1 note=60 velocity=87 time=0
EXTRACT: note_on channel=1 note=55 velocity=109 time=0
EXTRACT: note_on channel=9 note=36 velocity=0 time=0.02868850833333333
EXTRACT: note_on channel=9 note=42 velocity=0 time=0
EXTRACT: note_on channel=2 note=64 velocity=0 time=0.20491791666666664
EXTRACT: note_on channel=2 note=60 velocity=0 time=0
EXTRACT: note_on channel=2 note=55 velocity=0 time=0
EXTRACT: note_on channel=9 note=42 velocity=67 time=0
EXTRACT: note_on channel=9 note=36 velocity=120 time=0
EXTRACT: note_on channel=0 note=40 velocity=0 time=0.004098358333333333
EXTRACT: note_on channel=2 note=62 velocity=116 time=0
EXTRACT: note_on channel=2 note=58 velocity=106 time=0
EXTRACT: note_on channel=2 note=55 velocity=92 time=0
EXTRACT: note_on channel=2 note=65 velocity=91 time=0
EXTRACT: note_on channel=0 note=43 velocity=127 time=0.004098358333333333
EXTRACT: note_on channel=1 note=64 velocity=0 time=0
EXTRACT: note_on channel=1 note=60 velocity=0 time=0
EXTRACT: note_on channel=1 note=55 velocity=0 time=0
EXTRACT: note_on channel=4 note=72 velocity=0 time=0.0010245895833333333
EXTRACT: note_on channel=4 note=76 velocity=0 time=0
EXTRACT: note_on channel=4 note=79 velocity=0 time=0
EXTRACT: note_on channel=4 note=74 velocity=120 time=0
EXTRACT: note_on channel=4 note=79 velocity=116 time=0
EXTRACT: note_on channel=4 note=82 velocity=120 time=0
EXTRACT: note_on channel=1 note=62 velocity=91 time=0.0030737687499999998
EXTRACT: note_on channel=1 note=58 velocity=103 time=0
EXTRACT: note_on channel=1 note=55 velocity=83 time=0
EXTRACT: note_on channel=1 note=65 velocity=106 time=0
EXTRACT: note_on channel=9 note=42 velocity=0 time=0.02868850833333333
EXTRACT: note_on channel=9 note=36 velocity=0 time=0
EXTRACT: note_on channel=9 note=42 velocity=42 time=0.20491791666666664
EXTRACT: note_on channel=5 note=76 velocity=0 time=0.0020491791666666665
EXTRACT: note_on channel=5 note=72 velocity=0 time=0
EXTRACT: note_on channel=0 note=43 velocity=0 time=0.0020491791666666665
EXTRACT: note_on channel=5 note=76 velocity=49 time=0.0020491791666666665
EXTRACT: note_on channel=5 note=72 velocity=99 time=0
EXTRACT: note_on channel=0 note=43 velocity=116 time=0.0020491791666666665
EXTRACT: note_on channel=9 note=42 velocity=0 time=0.032786866666666664
EXTRACT: note_on channel=2 note=62 velocity=0 time=0.20491791666666664
EXTRACT: note_on channel=2 note=58 velocity=0 time=0
EXTRACT: note_on channel=2 note=55 velocity=0 time=0
EXTRACT: note_on channel=2 note=65 velocity=0 time=0
EXTRACT: note_on channel=9 note=40 velocity=127 time=0
EXTRACT: note_on channel=9 note=42 velocity=61 time=0
EXTRACT: note_on channel=0 note=43 velocity=0 time=0.004098358333333333
EXTRACT: note_on channel=2 note=62 velocity=91 time=0
EXTRACT: note_on channel=2 note=58 velocity=107 time=0
EXTRACT: note_on channel=2 note=55 velocity=93 time=0
EXTRACT: note_on channel=2 note=65 velocity=109 time=0
EXTRACT: note_on channel=0 note=43 velocity=114 time=0.004098358333333333
EXTRACT: note_on channel=1 note=62 velocity=0 time=0
EXTRACT: note_on channel=1 note=58 velocity=0 time=0
EXTRACT: note_on channel=1 note=55 velocity=0 time=0
EXTRACT: note_on channel=1 note=65 velocity=0 time=0
EXTRACT: note_on channel=1 note=62 velocity=83 time=0.004098358333333333
EXTRACT: note_on channel=1 note=58 velocity=91 time=0
EXTRACT: note_on channel=1 note=55 velocity=88 time=0
EXTRACT: note_on channel=1 note=65 velocity=102 time=0
EXTRACT: note_on channel=9 note=40 velocity=0 time=0.02868850833333333
EXTRACT: note_on channel=9 note=42 velocity=0 time=0
EXTRACT: note_on channel=9 note=42 velocity=59 time=0.20491791666666664
EXTRACT: note_on channel=5 note=76 velocity=0 time=0.0020491791666666665
EXTRACT: note_on channel=5 note=72 velocity=0 time=0
EXTRACT: note_on channel=0 note=43 velocity=0 time=0.0020491791666666665
EXTRACT: note_on channel=5 note=74 velocity=54 time=0.0020491791666666665
EXTRACT: note_on channel=5 note=69 velocity=98 time=0
EXTRACT: note_on channel=0 note=43 velocity=115 time=0.0020491791666666665
EXTRACT: note_on channel=9 note=42 velocity=0 time=0.032786866666666664
EXTRACT: note_on channel=2 note=62 velocity=0 time=0.20491791666666664
EXTRACT: note_on channel=2 note=58 velocity=0 time=0
EXTRACT: note_on channel=2 note=55 velocity=0 time=0
EXTRACT: note_on channel=2 note=65 velocity=0 time=0
EXTRACT: note_on channel=9 note=36 velocity=120 time=0
EXTRACT: note_on channel=9 note=42 velocity=59 time=0
EXTRACT: note_on channel=0 note=43 velocity=0 time=0.004098358333333333
EXTRACT: note_on channel=2 note=62 velocity=91 time=0
EXTRACT: note_on channel=2 note=58 velocity=97 time=0
EXTRACT: note_on channel=2 note=55 velocity=98 time=0
EXTRACT: note_on channel=0 note=43 velocity=124 time=0.004098358333333333
EXTRACT: note_on channel=1 note=62 velocity=0 time=0
EXTRACT: note_on channel=1 note=58 velocity=0 time=0
EXTRACT: note_on channel=1 note=55 velocity=0 time=0
EXTRACT: note_on channel=1 note=65 velocity=0 time=0
EXTRACT: note_on channel=1 note=62 velocity=101 time=0.004098358333333333
EXTRACT: note_on channel=1 note=58 velocity=79 time=0
EXTRACT: note_on channel=1 note=55 velocity=83 time=0
EXTRACT: note_on channel=9 note=36 velocity=0 time=0.02868850833333333
EXTRACT: note_on channel=9 note=42 velocity=0 time=0
EXTRACT: note_on channel=2 note=62 velocity=0 time=0.20491791666666664
EXTRACT: note_on channel=2 note=58 velocity=0 time=0
EXTRACT: note_on channel=2 note=55 velocity=0 time=0
EXTRACT: note_on channel=9 note=36 velocity=110 time=0
EXTRACT: note_on channel=9 note=42 velocity=49 time=0
EXTRACT: note_on channel=5 note=74 velocity=0 time=0.0020491791666666665
EXTRACT: note_on channel=5 note=69 velocity=0 time=0
EXTRACT: note_on channel=0 note=43 velocity=0 time=0.0020491791666666665
EXTRACT: note_on channel=2 note=62 velocity=89 time=0
EXTRACT: note_on channel=2 note=58 velocity=68 time=0
EXTRACT: note_on channel=2 note=55 velocity=104 time=0
EXTRACT: note_on channel=2 note=65 velocity=69 time=0
EXTRACT: note_on channel=5 note=72 velocity=46 time=0.0020491791666666665
EXTRACT: note_on channel=5 note=67 velocity=88 time=0
EXTRACT: note_on channel=0 note=43 velocity=111 time=0.0020491791666666665
EXTRACT: note_on channel=1 note=62 velocity=0 time=0
EXTRACT: note_on channel=1 note=58 velocity=0 time=0
EXTRACT: note_on channel=1 note=55 velocity=0 time=0
EXTRACT: note_on channel=1 note=62 velocity=93 time=0.004098358333333333
EXTRACT: note_on channel=1 note=58 velocity=86 time=0
EXTRACT: note_on channel=1 note=55 velocity=68 time=0
EXTRACT: note_on channel=1 note=65 velocity=75 time=0
EXTRACT: note_on channel=9 note=36 velocity=0 time=0.02868850833333333
EXTRACT: note_on channel=9 note=42 velocity=0 time=0
EXTRACT: note_on channel=2 note=62 velocity=0 time=0.20491791666666664
EXTRACT: note_on channel=2 note=58 velocity=0 time=0
EXTRACT: note_on channel=2 note=55 velocity=0 time=0
EXTRACT: note_on channel=2 note=65 velocity=0 time=0
EXTRACT: note_on channel=9 note=40 velocity=127 time=0
EXTRACT: note_on channel=9 note=42 velocity=56 time=0
EXTRACT: note_on channel=0 note=43 velocity=0 time=0.004098358333333333
EXTRACT: note_on channel=2 note=62 velocity=89 time=0
EXTRACT: note_on channel=2 note=58 velocity=111 time=0
EXTRACT: note_on channel=2 note=55 velocity=105 time=0
EXTRACT: note_on channel=2 note=65 velocity=114 time=0
EXTRACT: note_on channel=0 note=43 velocity=117 time=0.004098358333333333
EXTRACT: note_on channel=1 note=62 velocity=0 time=0
EXTRACT: note_on channel=1 note=58 velocity=0 time=0
EXTRACT: note_on channel=1 note=55 velocity=0 time=0
EXTRACT: note_on channel=1 note=65 velocity=0 time=0
EXTRACT: note_on channel=1 note=62 velocity=92 time=0.004098358333333333
EXTRACT: note_on channel=1 note=58 velocity=95 time=0
EXTRACT: note_on channel=1 note=55 velocity=115 time=0
EXTRACT: note_on channel=1 note=65 velocity=98 time=0
EXTRACT: note_on channel=9 note=40 velocity=0 time=0.02868850833333333
EXTRACT: note_on channel=9 note=42 velocity=0 time=0
EXTRACT: note_on channel=2 note=62 velocity=0 time=0.20491791666666664
EXTRACT: note_on channel=2 note=58 velocity=0 time=0
EXTRACT: note_on channel=2 note=55 velocity=0 time=0
EXTRACT: note_on channel=2 note=65 velocity=0 time=0
EXTRACT: note_on channel=9 note=36 velocity=110 time=0
EXTRACT: note_on channel=9 note=42 velocity=48 time=0
EXTRACT: note_on channel=0 note=43 velocity=0 time=0.004098358333333333
EXTRACT: note_on channel=2 note=62 velocity=97 time=0
EXTRACT: note_on channel=2 note=58 velocity=78 time=0
EXTRACT: note_on channel=2 note=55 velocity=88 time=0
EXTRACT: note_on channel=0 note=43 velocity=125 time=0.004098358333333333
EXTRACT: note_on channel=1 note=62 velocity=0 time=0
EXTRACT: note_on channel=1 note=58 velocity=0 time=0
EXTRACT: note_on channel=1 note=55 velocity=0 time=0
EXTRACT: note_on channel=1 note=65 velocity=0 time=0
EXTRACT: note_on channel=1 note=62 velocity=101 time=0.004098358333333333
EXTRACT: note_on channel=1 note=58 velocity=113 time=0
EXTRACT: note_on channel=1 note=55 velocity=78 time=0
EXTRACT: note_on channel=9 note=36 velocity=0 time=0.02868850833333333
EXTRACT: note_on channel=9 note=42 velocity=0 time=0
EXTRACT: note_on channel=2 note=62 velocity=0 time=0.20491791666666664
EXTRACT: note_on channel=2 note=58 velocity=0 time=0
EXTRACT: note_on channel=2 note=55 velocity=0 time=0
EXTRACT: note_on channel=9 note=42 velocity=60 time=0
EXTRACT: note_on channel=9 note=36 velocity=120 time=0
EXTRACT: note_on channel=5 note=72 velocity=0 time=0.0020491791666666665
EXTRACT: note_on channel=5 note=67 velocity=0 time=0
EXTRACT: note_on channel=0 note=43 velocity=0 time=0.0020491791666666665
EXTRACT: note_on channel=2 note=60 velocity=94 time=0
EXTRACT: note_on channel=2 note=57 velocity=97 time=0
EXTRACT: note_on channel=2 note=53 velocity=91 time=0
EXTRACT: note_on channel=2 note=65 velocity=100 time=0
EXTRACT: note_on channel=5 note=72 velocity=68 time=0.0020491791666666665
EXTRACT: note_on channel=5 note=67 velocity=89 time=0
EXTRACT: note_on channel=0 note=41 velocity=113 time=0.0020491791666666665
EXTRACT: note_on channel=1 note=62 velocity=0 time=0
EXTRACT: note_on channel=1 note=58 velocity=0 time=0
EXTRACT: note_on channel=1 note=55 velocity=0 time=0
EXTRACT: note_on channel=4 note=74 velocity=0 time=0.0010245895833333333
EXTRACT: note_on channel=4 note=79 velocity=0 time=0
EXTRACT: note_on channel=4 note=82 velocity=0 time=0
EXTRACT: note_on channel=4 note=72 velocity=113 time=0
EXTRACT: note_on channel=4 note=77 velocity=96 time=0
EXTRACT: note_on channel=4 note=81 velocity=92 time=0
EXTRACT: note_on channel=1 note=60 velocity=96 time=0.0030737687499999998
EXTRACT: note_on channel=1 note=57 velocity=81 time=0
EXTRACT: note_on channel=1 note=53 velocity=109 time=0
EXTRACT: note_on channel=1 note=65 velocity=117 time=0
EXTRACT: note_on channel=9 note=42 velocity=0 time=0.02868850833333333
EXTRACT: note_on channel=9 note=36 velocity=0 time=0
EXTRACT: note_on channel=9 note=42 velocity=47 time=0.20491791666666664
EXTRACT: note_on channel=0 note=41 velocity=0 time=0.008196716666666666
EXTRACT: note_on channel=9 note=42 velocity=0 time=0.032786866666666664
EXTRACT: note_on channel=2 note=60 velocity=0 time=0.20491791666666664
EXTRACT: note_on channel=2 note=57 velocity=0 time=0
EXTRACT: note_on channel=2 note=53 velocity=0 time=0
EXTRACT: note_on channel=2 note=65 velocity=0 time=0
EXTRACT: note_on channel=9 note=40 velocity=127 time=0
EXTRACT: note_on channel=9 note=42 velocity=58 time=0
EXTRACT: note_on channel=5 note=72 velocity=0 time=0.0020491791666666665
EXTRACT: note_on channel=5 note=67 velocity=0 time=0
EXTRACT: note_on channel=2 note=60 velocity=85 time=0.0020491791666666665
EXTRACT: note_on channel=2 note=57 velocity=89 time=0
EXTRACT: note_on channel=2 note=53 velocity=106 time=0
EXTRACT: note_on channel=2 note=65 velocity=96 time=0
EXTRACT: note_on channel=5 note=69 velocity=44 time=0.0020491791666666665
EXTRACT: note_on channel=5 note=65 velocity=85 time=0
EXTRACT: note_on channel=0 note=41 velocity=109 time=0.0020491791666666665
EXTRACT: note_on channel=1 note=60 velocity=0 time=0
EXTRACT: note_on channel=1 note=57 velocity=0 time=0
EXTRACT: note_on channel=1 note=53 velocity=0 time=0
EXTRACT: note_on channel=1 note=65 velocity=0 time=0
EXTRACT: note_on channel=1 note=60 velocity=82 time=0.004098358333333333
EXTRACT: note_on channel=1 note=57 velocity=82 time=0
EXTRACT: note_on channel=1 note=53 velocity=89 time=0
EXTRACT: note_on channel=1 note=65 velocity=117 time=0
EXTRACT: note_on channel=9 note=40 velocity=0 time=0.02868850833333333
EXTRACT: note_on channel=9 note=42 velocity=0 time=0
EXTRACT: note_on channel=0 note=41 velocity=0 time=0.15163925833333333
EXTRACT: note_on channel=9 note=42 velocity=68 time=0.053278658333333326
EXTRACT: note_on channel=5 note=69 velocity=0 time=0.0020491791666666665
EXTRACT: note_on channel=5 note=65 velocity=0 time=0
EXTRACT: note_on channel=5 note=65 velocity=69 time=0.004098358333333333
EXTRACT: note_on channel=5 note=60 velocity=89 time=0
EXTRACT: note_on channel=0 note=45 velocity=114 time=0.0020491791666666665
EXTRACT: note_on channel=9 note=42 velocity=0 time=0.032786866666666664
EXTRACT: note_on channel=0 note=45 velocity=0 time=0.15163925833333333
EXTRACT: note_on channel=2 note=60 velocity=0 time=0.053278658333333326
EXTRACT: note_on channel=2 note=57 velocity=0 time=0
EXTRACT: note_on channel=2 note=53 velocity=0 time=0
EXTRACT: note_on channel=2 note=65 velocity=0 time=0
EXTRACT: note_on channel=9 note=36 velocity=120 time=0
EXTRACT: note_on channel=9 note=42 velocity=60 time=0
EXTRACT: note_on channel=2 note=60 velocity=110 time=0.004098358333333333
EXTRACT: note_on channel=2 note=57 velocity=93 time=0
EXTRACT: note_on channel=2 note=53 velocity=114 time=0
EXTRACT: note_on channel=0 note=48 velocity=117 time=0.004098358333333333
EXTRACT: note_on channel=1 note=60 velocity=0 time=0
EXTRACT: note_on channel=1 note=57 velocity=0 time=0
EXTRACT: note_on channel=1 note=53 velocity=0 time=0
EXTRACT: note_on channel=1 note=65 velocity=0 time=0
EXTRACT: note_on channel=1 note=60 velocity=89 time=0.004098358333333333
EXTRACT: note_on channel=1 note=57 velocity=81 time=0
EXTRACT: note_on channel=1 note=53 velocity=102 time=0
EXTRACT: note_on channel=9 note=36 velocity=0 time=0.02868850833333333
EXTRACT: note_on channel=9 note=42 velocity=0 time=0
EXTRACT: note_on channel=0 note=48 velocity=0 time=0.15163925833333333
EXTRACT: note_on channel=2 note=60 velocity=0 time=0.053278658333333326
EXTRACT: note_on channel=2 note=57 velocity=0 time=0
EXTRACT: note_on channel=2 note=53 velocity=0 time=0
EXTRACT: note_on channel=9 note=36 velocity=110 time=0
EXTRACT: note_on channel=9 note=42 velocity=45 time=0
EXTRACT: note_on channel=2 note=60 velocity=106 time=0.004098358333333333
EXTRACT: note_on channel=2 note=57 velocity=87 time=0
EXTRACT: note_on channel=2 note=53 velocity=71 time=0
EXTRACT: note_on channel=2 note=65 velocity=94 time=0
EXTRACT: note_on channel=0 note=45 velocity=111 time=0.004098358333333333
EXTRACT: note_on channel=1 note=60 velocity=0 time=0
EXTRACT: note_on channel=1 note=57 velocity=0 time=0
EXTRACT: note_on channel=1 note=53 velocity=0 time=0
EXTRACT: note_on channel=1 note=60 velocity=90 time=0.004098358333333333
EXTRACT: note_on channel=1 note=57 velocity=63 time=0
EXTRACT: note_on channel=1 note=53 velocity=79 time=0
EXTRACT: note_on channel=1 note=65 velocity=61 time=0
EXTRACT: note_on channel=9 note=36 velocity=0 time=0.02868850833333333
EXTRACT: note_on channel=9 note=42 velocity=0 time=0
EXTRACT: note_on channel=0 note=45 velocity=0 time=0.15163925833333333
EXTRACT: note_on channel=2 note=60 velocity=0 time=0.053278658333333326
EXTRACT: note_on channel=2 note=57 velocity=0 time=0
EXTRACT: note_on channel=2 note=53 velocity=0 time=0
EXTRACT: note_on channel=2 note=65 velocity=0 time=0
EXTRACT: note_on channel=9 note=40 velocity=127 time=0
EXTRACT: note_on channel=9 note=42 velocity=55 time=0
EXTRACT: note_on channel=2 note=60 velocity=105 time=0.004098358333333333
EXTRACT: note_on channel=2 note=57 velocity=91 time=0
EXTRACT: note_on channel=2 note=53 velocity=92 time=0
EXTRACT: note_on channel=2 note=65 velocity=103 time=0
EXTRACT: note_on channel=5 note=65 velocity=0 time=0.0020491791666666665
EXTRACT: note_on channel=5 note=60 velocity=0 time=0
EXTRACT: note_on channel=0 note=48 velocity=115 time=0.0020491791666666665
EXTRACT: note_on channel=1 note=60 velocity=0 time=0
EXTRACT: note_on channel=1 note=57 velocity=0 time=0
EXTRACT: note_on channel=1 note=53 velocity=0 time=0
EXTRACT: note_on channel=1 note=65 velocity=0 time=0
EXTRACT: note_on channel=1 note=60 velocity=110 time=0.004098358333333333
EXTRACT: note_on channel=1 note=57 velocity=112 time=0
EXTRACT: note_on channel=1 note=53 velocity=90 time=0
EXTRACT: note_on channel=1 note=65 velocity=82 time=0
EXTRACT: note_on channel=9 note=40 velocity=0 time=0.02868850833333333
EXTRACT: note_on channel=9 note=42 velocity=0 time=0
EXTRACT: note_on channel=0 note=48 velocity=0 time=0.15163925833333333
EXTRACT: note_on channel=2 note=60 velocity=0 time=0.053278658333333326
EXTRACT: note_on channel=2 note=57 velocity=0 time=0
EXTRACT: note_on channel=2 note=53 velocity=0 time=0
EXTRACT: note_on channel=2 note=65 velocity=0 time=0
EXTRACT: note_on channel=9 note=36 velocity=110 time=0
EXTRACT: note_on channel=9 note=42 velocity=41 time=0
EXTRACT: note_on channel=2 note=60 velocity=71 time=0.004098358333333333
EXTRACT: note_on channel=2 note=57 velocity=80 time=0
EXTRACT: note_on channel=2 note=53 velocity=98 time=0
EXTRACT: note_on channel=5 note=72 velocity=54 time=0.0020491791666666665
EXTRACT: note_on channel=5 note=67 velocity=109 time=0
EXTRACT: note_on channel=0 note=45 velocity=121 time=0.0020491791666666665
EXTRACT: note_on channel=1 note=60 velocity=0 time=0
EXTRACT: note_on channel=1 note=57 velocity=0 time=0
EXTRACT: note_on channel=1 note=53 velocity=0 time=0
EXTRACT: note_on channel=1 note=65 velocity=0 time=0
EXTRACT: note_on channel=1 note=60 velocity=92 time=0.004098358333333333
EXTRACT: note_on channel=1 note=57 velocity=114 time=0
EXTRACT: note_on channel=1 note=53 velocity=114 time=0
EXTRACT: note_on channel=9 note=36 velocity=0 time=0.02868850833333333
EXTRACT: note_on channel=9 note=42 velocity=0 time=0
EXTRACT: note_on channel=0 note=45 velocity=0 time=0.15163925833333333
EXTRACT: note_on channel=2 note=60 velocity=0 time=0.053278658333333326
EXTRACT: note_on channel=2 note=57 velocity=0 time=0
EXTRACT: note_on channel=2 note=53 velocity=0 time=0
EXTRACT: note_on channel=9 note=42 velocity=62 time=0
EXTRACT: note_on channel=9 note=36 velocity=120 time=0
EXTRACT: note_on channel=5 note=72 velocity=0 time=0.0020491791666666665
EXTRACT: note_on channel=5 note=67 velocity=0 time=0
EXTRACT: note_on channel=2 note=60 velocity=95 time=0.0020491791666666665
EXTRACT: note_on channel=2 note=56 velocity=108 time=0
EXTRACT: note_on channel=2 note=53 velocity=94 time=0
EXTRACT: note_on channel=2 note=62 velocity=112 time=0
EXTRACT: note_on channel=5 note=72 velocity=64 time=0.0020491791666666665
EXTRACT: note_on channel=5 note=67 velocity=108 time=0
EXTRACT: note_on channel=0 note=34 velocity=120 time=0.0020491791666666665
EXTRACT: note_on channel=1 note=60 velocity=0 time=0
EXTRACT: note_on channel=1 note=57 velocity=0 time=0
EXTRACT: note_on channel=1 note=53 velocity=0 time=0
EXTRACT: note_on channel=4 note=72 velocity=0 time=0.0010245895833333333
EXTRACT: note_on channel=4 note=77 velocity=0 time=0
EXTRACT: note_on channel=4 note=81 velocity=0 time=0
EXTRACT: note_on channel=4 note=74 velocity=117 time=0
EXTRACT: note_on channel=4 note=77 velocity=121 time=0
EXTRACT: note_on channel=4 note=80 velocity=112 time=0
EXTRACT: note_on channel=1 note=60 velocity=79 time=0.0030737687499999998
EXTRACT: note_on channel=1 note=56 velocity=106 time=0
EXTRACT: note_on channel=1 note=53 velocity=95 time=0
EXTRACT: note_on channel=1 note=62 velocity=110 time=0
EXTRACT: note_on channel=9 note=42 velocity=0 time=0.02868850833333333
EXTRACT: note_on channel=9 note=36 velocity=0 time=0
EXTRACT: note_on channel=0 note=34 velocity=0 time=0.15163925833333333
EXTRACT: note_on channel=9 note=42 velocity=50 time=0.053278658333333326
EXTRACT: note_on channel=0 note=36 velocity=122 time=0.008196716666666666
EXTRACT: note_on channel=9 note=42 velocity=0 time=0.032786866666666664
EXTRACT: note_on channel=0 note=36 velocity=0 time=0.15163925833333333
EXTRACT: note_on channel=2 note=60 velocity=0 time=0.053278658333333326
EXTRACT: note_on channel=2 note=56 velocity=0 time=0
EXTRACT: note_on channel=2 note=53 velocity=0 time=0
EXTRACT: note_on channel=2 note=62 velocity=0 time=0
EXTRACT: note_on channel=9 note=40 velocity=127 time=0
EXTRACT: note_on channel=9 note=42 velocity=58 time=0
EXTRACT: note_on channel=5 note=72 velocity=0 time=0.0020491791666666665
EXTRACT: note_on channel=5 note=67 velocity=0 time=0
EXTRACT: note_on channel=2 note=60 velocity=113 time=0.0020491791666666665
EXTRACT: note_on channel=2 note=56 velocity=100 time=0
EXTRACT: note_on channel=2 note=53 velocity=107 time=0
EXTRACT: note_on channel=2 note=62 velocity=109 time=0
EXTRACT: note_on channel=5 note=69 velocity=52 time=0.0020491791666666665
EXTRACT: note_on channel=5 note=65 velocity=108 time=0
EXTRACT: note_on channel=0 note=38 velocity=105 time=0.0020491791666666665
EXTRACT: note_on channel=1 note=60 velocity=0 time=0
EXTRACT: note_on channel=1 note=56 velocity=0 time=0
EXTRACT: note_on channel=1 note=53 velocity=0 time=0
EXTRACT: note_on channel=1 note=62 velocity=0 time=0
EXTRACT: note_on channel=1 note=60 velocity=96 time=0.004098358333333333
EXTRACT: note_on channel=1 note=56 velocity=104 time=0
EXTRACT: note_on channel=1 note=53 velocity=104 time=0
EXTRACT: note_on channel=1 note=62 velocity=103 time=0
EXTRACT: note_on channel=9 note=40 velocity=0 time=0.02868850833333333
EXTRACT: note_on channel=9 note=42 velocity=0 time=0
EXTRACT: note_on channel=0 note=38 velocity=0 time=0.15163925833333333
EXTRACT: note_on channel=9 note=36 velocity=120 time=0.053278658333333326
EXTRACT: note_on channel=9 note=42 velocity=57 time=0
EXTRACT: note_on channel=5 note=69 velocity=0 time=0.0020491791666666665
EXTRACT: note_on channel=5 note=65 velocity=0 time=0
EXTRACT: note_on channel=5 note=65 velocity=57 time=0.004098358333333333
EXTRACT: note_on channel=5 note=60 velocity=104 time=0
EXTRACT: note_on channel=0 note=41 velocity=121 time=0.0020491791666666665
EXTRACT: note_on channel=9 note=36 velocity=0 time=0.032786866666666664
EXTRACT: note_on channel=9 note=42 velocity=0 time=0
EXTRACT: note_on channel=2 note=60 velocity=0 time=0.20491791666666664
EXTRACT: note_on channel=2 note=56 velocity=0 time=0
EXTRACT: note_on channel=2 note=53 velocity=0 time=0
EXTRACT: note_on channel=2 note=62 velocity=0 time=0
EXTRACT: note_on channel=9 note=36 velocity=120 time=0
EXTRACT: note_on channel=9 note=42 velocity=64 time=0
EXTRACT: note_on channel=2 note=60 velocity=116 time=0.004098358333333333
EXTRACT: note_on channel=2 note=56 velocity=94 time=0
EXTRACT: note_on channel=2 note=53 velocity=86 time=0
EXTRACT: note_on channel=0 note=41 velocity=0 time=0.004098358333333333
EXTRACT: note_on channel=1 note=60 velocity=0 time=0
EXTRACT: note_on channel=1 note=56 velocity=0 time=0
EXTRACT: note_on channel=1 note=53 velocity=0 time=0
EXTRACT: note_on channel=1 note=62 velocity=0 time=0
EXTRACT: note_on channel=1 note=60 velocity=112 time=0.004098358333333333
EXTRACT: note_on channel=1 note=56 velocity=110 time=0
EXTRACT: note_on channel=1 note=53 velocity=97 time=0
EXTRACT: note_on channel=9 note=36 velocity=0 time=0.02868850833333333
EXTRACT: note_on channel=9 note=42 velocity=0 time=0
EXTRACT: note_on channel=2 note=60 velocity=0 time=0.20491791666666664
EXTRACT: note_on channel=2 note=56 velocity=0 time=0
EXTRACT: note_on channel=2 note=53 velocity=0 time=0
EXTRACT: note_on channel=9 note=40 velocity=127 time=0
EXTRACT: note_on channel=9 note=42 velocity=42 time=0
EXTRACT: note_on channel=5 note=65 velocity=0 time=0.0020491791666666665
EXTRACT: note_on channel=5 note=60 velocity=0 time=0
EXTRACT: note_on channel=2 note=60 velocity=95 time=0.0020491791666666665
EXTRACT: note_on channel=2 note=56 velocity=105 time=0
EXTRACT: note_on channel=2 note=53 velocity=67 time=0
EXTRACT: note_on channel=2 note=62 velocity=66 time=0
EXTRACT: note_on channel=5 note=67 velocity=46 time=0.0020491791666666665
EXTRACT: note_on channel=5 note=62 velocity=90 time=0
EXTRACT: note_on channel=0 note=38 velocity=112 time=0.0020491791666666665
EXTRACT: note_on channel=1 note=60 velocity=0 time=0
EXTRACT: note_on channel=1 note=56 velocity=0 time=0
EXTRACT: note_on channel=1 note=53 velocity=0 time=0
EXTRACT: note_on channel=1 note=60 velocity=97 time=0.004098358333333333
EXTRACT: note_on channel=1 note=56 velocity=68 time=0
EXTRACT: note_on channel=1 note=53 velocity=88 time=0
EXTRACT: note_on channel=1 note=62 velocity=105 time=0
EXTRACT: note_on channel=9 note=40 velocity=0 time=0.02868850833333333
EXTRACT: note_on channel=9 note=42 velocity=0 time=0
EXTRACT: note_on channel=0 note=38 velocity=0 time=0.15163925833333333
EXTRACT: note_on channel=2 note=60 velocity=0 time=0.053278658333333326
EXTRACT: note_on channel=2 note=56 velocity=0 time=0
EXTRACT: note_on channel=2 note=53 velocity=0 time=0
EXTRACT: note_on channel=2 note=62 velocity=0 time=0
EXTRACT: note_on channel=9 note=36 velocity=120 time=0
EXTRACT: note_on channel=9 note=42 velocity=63 time=0
EXTRACT: note_on channel=5 note=67 velocity=0 time=0.0020491791666666665
EXTRACT: note_on channel=5 note=62 velocity=0 time=0
EXTRACT: note_on channel=2 note=60 velocity=114 time=0.0020491791666666665
EXTRACT: note_on channel=2 note=56 velocity=89 time=0
EXTRACT: note_on channel=2 note=53 velocity=96 time=0
EXTRACT: note_on channel=2 note=62 velocity=97 time=0
EXTRACT: note_on channel=5 note=67 velocity=71 time=0.0020491791666666665
EXTRACT: note_on channel=5 note=64 velocity=97 time=0
EXTRACT: note_on channel=0 note=41 velocity=112 time=0.0020491791666666665
EXTRACT: note_on channel=1 note=60 velocity=0 time=0
EXTRACT: note_on channel=1 note=56 velocity=0 time=0
EXTRACT: note_on channel=1 note=53 velocity=0 time=0
EXTRACT: note_on channel=1 note=62 velocity=0 time=0
EXTRACT: note_on channel=1 note=60 velocity=88 time=0.004098358333333333
EXTRACT: note_on channel=1 note=56 velocity=107 time=0
EXTRACT: note_on channel=1 note=53 velocity=106 time=0
EXTRACT: note_on channel=1 note=62 velocity=96 time=0
EXTRACT: note_on channel=9 note=36 velocity=0 time=0.02868850833333333
EXTRACT: note_on channel=9 note=42 velocity=0 time=0
EXTRACT: note_on channel=0 note=41 velocity=0 time=0.15163925833333333
EXTRACT: note_on channel=2 note=60 velocity=0 time=0.053278658333333326
EXTRACT: note_on channel=2 note=56 velocity=0 time=0
EXTRACT: note_on channel=2 note=53 velocity=0 time=0
EXTRACT: note_on channel=2 note=62 velocity=0 time=0
EXTRACT: note_on channel=9 note=40 velocity=127 time=0
EXTRACT: note_on channel=9 note=42 velocity=50 time=0
EXTRACT: note_on channel=2 note=60 velocity=79 time=0.004098358333333333
EXTRACT: note_on channel=2 note=56 velocity=99 time=0
EXTRACT: note_on channel=2 note=53 velocity=103 time=0
EXTRACT: note_on channel=0 note=43 velocity=102 time=0.004098358333333333
EXTRACT: note_on channel=1 note=60 velocity=0 time=0
EXTRACT: note_on channel=1 note=56 velocity=0 time=0
EXTRACT: note_on channel=1 note=53 velocity=0 time=0
EXTRACT: note_on channel=1 note=62 velocity=0 time=0
EXTRACT: note_on channel=1 note=60 velocity=61 time=0.004098358333333333
EXTRACT: note_on channel=1 note=56 velocity=112 time=0
EXTRACT: note_on channel=1 note=53 velocity=87 time=0
EXTRACT: note_on channel=9 note=40 velocity=0 time=0.02868850833333333
EXTRACT: note_on channel=9 note=42 velocity=0 time=0
EXTRACT: note_on channel=0 note=43 velocity=0 time=0.15163925833333333
EXTRACT: note_on channel=2 note=60 velocity=0 time=0.053278658333333326
EXTRACT: note_on channel=2 note=56 velocity=0 time=0
EXTRACT: note_on channel=2 note=53 velocity=0 time=0
EXTRACT: note_on channel=9 note=49 velocity=100 time=0
EXTRACT: note_on channel=9 note=36 velocity=120 time=0
EXTRACT: note_on channel=2 note=59 velocity=87 time=0.004098358333333333
EXTRACT: note_on channel=2 note=62 velocity=102 time=0
EXTRACT: note_on channel=2 note=55 velocity=103 time=0
EXTRACT: note_on channel=2 note=48 velocity=100 time=0
EXTRACT: note_on channel=0 note=36 velocity=127 time=0.004098358333333333
EXTRACT: note_on channel=1 note=60 velocity=0 time=0
EXTRACT: note_on channel=1 note=56 velocity=0 time=0
EXTRACT: note_on channel=1 note=53 velocity=0 time=0
EXTRACT: note_on channel=4 note=74 velocity=0 time=0.0010245895833333333
EXTRACT: note_on channel=4 note=77 velocity=0 time=0
EXTRACT: note_on channel=4 note=80 velocity=0 time=0
EXTRACT: note_on channel=4 note=76 velocity=121 time=0
EXTRACT: note_on channel=4 note=83 velocity=104 time=0
EXTRACT: note_on channel=4 note=79 velocity=121 time=0
EXTRACT: note_on channel=4 note=72 velocity=103 time=0
EXTRACT: note_on channel=1 note=59 velocity=105 time=0.0030737687499999998
EXTRACT: note_on channel=1 note=62 velocity=106 time=0
EXTRACT: note_on channel=1 note=55 velocity=108 time=0
EXTRACT: note_on channel=1 note=48 velocity=95 time=0
EXTRACT: note_on channel=9 note=49 velocity=0 time=0.02868850833333333
EXTRACT: note_on channel=9 note=36 velocity=0 time=0
EXTRACT: note_on channel=9 note=42 velocity=49 time=0.20491791666666664
EXTRACT: note_on channel=0 note=36 velocity=0 time=0.008196716666666666
EXTRACT: note_on channel=9 note=42 velocity=0 time=0.032786866666666664
EXTRACT: note_on channel=2 note=59 velocity=0 time=0.20491791666666664
EXTRACT: note_on channel=2 note=62 velocity=0 time=0
EXTRACT: note_on channel=2 note=55 velocity=0 time=0
EXTRACT: note_on channel=2 note=48 velocity=0 time=0
EXTRACT: note_on channel=9 note=40 velocity=127 time=0
EXTRACT: note_on channel=9 note=42 velocity=67 time=0
EXTRACT: note_on channel=2 note=59 velocity=100 time=0.004098358333333333
EXTRACT: note_on channel=2 note=62 velocity=94 time=0
EXTRACT: note_on channel=2 note=55 velocity=88 time=0
EXTRACT: note_on channel=2 note=48 velocity=86 time=0
EXTRACT: note_on channel=0 note=36 velocity=118 time=0.004098358333333333
EXTRACT: note_on channel=1 note=59 velocity=0 time=0
EXTRACT: note_on channel=1 note=62 velocity=0 time=0
EXTRACT: note_on channel=1 note=55 velocity=0 time=0
EXTRACT: note_on channel=1 note=48 velocity=0 time=0
EXTRACT: note_on channel=1 note=59 velocity=80 time=0.004098358333333333
EXTRACT: note_on channel=1 note=62 velocity=112 time=0
EXTRACT: note_on channel=1 note=55 velocity=81 time=0
EXTRACT: note_on channel=1 note=48 velocity=100 time=0
EXTRACT: note_on channel=9 note=40 velocity=0 time=0.02868850833333333
EXTRACT: note_on channel=9 note=42 velocity=0 time=0
EXTRACT: note_on channel=0 note=36 velocity=0 time=0.15163925833333333
EXTRACT: note_on channel=9 note=42 velocity=69 time=0.053278658333333326
EXTRACT: note_on channel=0 note=36 velocity=121 time=0.008196716666666666
EXTRACT: note_on channel=9 note=42 velocity=0 time=0.032786866666666664
EXTRACT: note_on channel=0 note=36 velocity=0 time=0.15163925833333333
EXTRACT: note_on channel=2 note=59 velocity=0 time=0.053278658333333326
EXTRACT: note_on channel=2 note=62 velocity=0 time=0
EXTRACT: note_on channel=2 note=55 velocity=0 time=0
EXTRACT: note_on channel=2 note=48 velocity=0 time=0
EXTRACT: note_on channel=9 note=36 velocity=120 time=0
EXTRACT: note_on channel=9 note=42 velocity=64 time=0
EXTRACT: note_on channel=2 note=59 velocity=110 time=0.004098358333333333
EXTRACT: note_on channel=2 note=62 velocity=104 time=0
EXTRACT: note_on channel=2 note=55 velocity=111 time=0
EXTRACT: note_on channel=0 note=36 velocity=121 time=0.004098358333333333
EXTRACT: note_on channel=1 note=59 velocity=0 time=0
EXTRACT: note_on channel=1 note=62 velocity=0 time=0
EXTRACT: note_on channel=1 note=55 velocity=0 time=0
EXTRACT: note_on channel=1 note=48 velocity=0 time=0
EXTRACT: note_on channel=1 note=59 velocity=110 time=0.004098358333333333
EXTRACT: note_on channel=1 note=62 velocity=97 time=0
EXTRACT: note_on channel=1 note=55 velocity=81 time=0
EXTRACT: note_on channel=9 note=36 velocity=0 time=0.02868850833333333
EXTRACT: note_on channel=9 note=42 velocity=0 time=0
EXTRACT: note_on channel=0 note=36 velocity=0 time=0.15163925833333333
EXTRACT: note_on channel=2 note=59 velocity=0 time=0.053278658333333326
EXTRACT: note_on channel=2 note=62 velocity=0 time=0
EXTRACT: note_on channel=2 note=55 velocity=0 time=0
EXTRACT: note_on channel=9 note=36 velocity=110 time=0
EXTRACT: note_on channel=9 note=42 velocity=48 time=0
EXTRACT: note_on channel=2 note=59 velocity=95 time=0.004098358333333333
EXTRACT: note_on channel=2 note=62 velocity=88 time=0
EXTRACT: note_on channel=2 note=55 velocity=89 time=0
EXTRACT: note_on channel=2 note=48 velocity=110 time=0
EXTRACT: note_on channel=0 note=36 velocity=114 time=0.004098358333333333
EXTRACT: note_on channel=1 note=59 velocity=0 time=0
EXTRACT: note_on channel=1 note=62 velocity=0 time=0
EXTRACT: note_on channel=1 note=55 velocity=0 time=0
EXTRACT: note_on channel=1 note=59 velocity=84 time=0.004098358333333333
EXTRACT: note_on channel=1 note=62 velocity=106 time=0
EXTRACT: note_on channel=1 note=55 velocity=90 time=0
EXTRACT: note_on channel=1 note=48 velocity=101 time=0
EXTRACT: note_on channel=9 note=36 velocity=0 time=0.02868850833333333
EXTRACT: note_on channel=9 note=42 velocity=0 time=0
EXTRACT: note_on channel=0 note=36 velocity=0 time=0.15163925833333333
EXTRACT: note_on channel=2 note=59 velocity=0 time=0.053278658333333326
EXTRACT: note_on channel=2 note=62 velocity=0 time=0
EXTRACT: note_on channel=2 note=55 velocity=0 time=0
EXTRACT: note_on channel=2 note=48 velocity=0 time=0
EXTRACT: note_on channel=9 note=40 velocity=127 time=0
EXTRACT: note_on channel=9 note=42 velocity=62 time=0
EXTRACT: note_on channel=2 note=59 velocity=108 time=0.004098358333333333
EXTRACT: note_on channel=2 note=62 velocity=101 time=0
EXTRACT: note_on channel=2 note=55 velocity=94 time=0
EXTRACT: note_on channel=2 note=48 velocity=85 time=0
EXTRACT: pitchwheel channel=0 pitch=0 time=0.004098358333333333
EXTRACT: note_on channel=0 note=36 velocity=109 time=0
EXTRACT: note_on channel=1 note=59 velocity=0 time=0
EXTRACT: note_on channel=1 note=62 velocity=0 time=0
EXTRACT: note_on channel=1 note=55 velocity=0 time=0
EXTRACT: note_on channel=1 note=48 velocity=0 time=0
EXTRACT: pitchwheel channel=0 pitch=80 time=0.004098358333333333
EXTRACT: note_on channel=1 note=59 velocity=79 time=0
EXTRACT: note_on channel=1 note=62 velocity=82 time=0
EXTRACT: note_on channel=1 note=55 velocity=89 time=0
EXTRACT: note_on channel=1 note=48 velocity=90 time=0
EXTRACT: pitchwheel channel=0 pitch=159 time=0.004098358333333333
EXTRACT: pitchwheel channel=0 pitch=239 time=0.004098358333333333
EXTRACT: pitchwheel channel=0 pitch=319 time=0.004098358333333333
EXTRACT: pitchwheel channel=0 pitch=398 time=0.004098358333333333
EXTRACT: pitchwheel channel=0 pitch=478 time=0.004098358333333333
EXTRACT: pitchwheel channel=0 pitch=558 time=0.004098358333333333
EXTRACT: pitchwheel channel=0 pitch=637 time=0.004098358333333333
EXTRACT: note_on channel=9 note=40 velocity=0 time=0
EXTRACT: note_on channel=9 note=42 velocity=0 time=0
EXTRACT: pitchwheel channel=0 pitch=717 time=0.004098358333333333
EXTRACT: pitchwheel channel=0 pitch=797 time=0.004098358333333333
EXTRACT: pitchwheel channel=0 pitch=876 time=0.004098358333333333
EXTRACT: pitchwheel channel=0 pitch=956 time=0.004098358333333333
EXTRACT: pitchwheel channel=0 pitch=1035 time=0.004098358333333333
EXTRACT: pitchwheel channel=0 pitch=1115 time=0.004098358333333333
EXTRACT: pitchwheel channel=0 pitch=1195 time=0.004098358333333333
EXTRACT: pitchwheel channel=0 pitch=1274 time=0.004098358333333333
EXTRACT: pitchwheel channel=0 pitch=1354 time=0.004098358333333333
EXTRACT: pitchwheel channel=0 pitch=1434 time=0.004098358333333333
EXTRACT: pitchwheel channel=0 pitch=1513 time=0.004098358333333333
EXTRACT: pitchwheel channel=0 pitch=1593 time=0.004098358333333333
EXTRACT: pitchwheel channel=0 pitch=1673 time=0.004098358333333333
EXTRACT: pitchwheel channel=0 pitch=1752 time=0.004098358333333333
EXTRACT: pitchwheel channel=0 pitch=1832 time=0.004098358333333333
EXTRACT: pitchwheel channel=0 pitch=1912 time=0.004098358333333333
EXTRACT: pitchwheel channel=0 pitch=1991 time=0.004098358333333333
EXTRACT: pitchwheel channel=0 pitch=2071 time=0.004098358333333333
EXTRACT: pitchwheel channel=0 pitch=2151 time=0.004098358333333333
EXTRACT: pitchwheel channel=0 pitch=2230 time=0.004098358333333333
EXTRACT: pitchwheel channel=0 pitch=2310 time=0.004098358333333333
EXTRACT: pitchwheel channel=0 pitch=2390 time=0.004098358333333333
EXTRACT: pitchwheel channel=0 pitch=2469 time=0.004098358333333333
EXTRACT: pitchwheel channel=0 pitch=2549 time=0.004098358333333333
EXTRACT: pitchwheel channel=0 pitch=2628 time=0.004098358333333333
EXTRACT: pitchwheel channel=0 pitch=2708 time=0.004098358333333333
EXTRACT: pitchwheel channel=0 pitch=2788 time=0.004098358333333333
EXTRACT: pitchwheel channel=0 pitch=2867 time=0.004098358333333333
EXTRACT: pitchwheel channel=0 pitch=2947 time=0.004098358333333333
EXTRACT: pitchwheel channel=0 pitch=3027 time=0.004098358333333333
EXTRACT: pitchwheel channel=0 pitch=3106 time=0.004098358333333333
EXTRACT: pitchwheel channel=0 pitch=3186 time=0.004098358333333333
EXTRACT: pitchwheel channel=0 pitch=3266 time=0.004098358333333333
EXTRACT: pitchwheel channel=0 pitch=3345 time=0.004098358333333333
EXTRACT: pitchwheel channel=0 pitch=3425 time=0.004098358333333333
EXTRACT: pitchwheel channel=0 pitch=3505 time=0.004098358333333333
EXTRACT: pitchwheel channel=0 pitch=3584 time=0.004098358333333333
EXTRACT: pitchwheel channel=0 pitch=3664 time=0.004098358333333333
EXTRACT: pitchwheel channel=0 pitch=3744 time=0.004098358333333333
EXTRACT: pitchwheel channel=0 pitch=3823 time=0.004098358333333333
EXTRACT: pitchwheel channel=0 pitch=3903 time=0.004098358333333333
EXTRACT: pitchwheel channel=0 pitch=3983 time=0.004098358333333333
EXTRACT: pitchwheel channel=0 pitch=4062 time=0.004098358333333333
EXTRACT: pitchwheel channel=0 pitch=4142 time=0.004098358333333333
EXTRACT: pitchwheel channel=0 pitch=4221 time=0.004098358333333333
EXTRACT: pitchwheel channel=0 pitch=4301 time=0.004098358333333333
EXTRACT: pitchwheel channel=0 pitch=4381 time=0.004098358333333333
EXTRACT: pitchwheel channel=0 pitch=4460 time=0.004098358333333333
EXTRACT: pitchwheel channel=0 pitch=4540 time=0.004098358333333333
EXTRACT: pitchwheel channel=0 pitch=4620 time=0.004098358333333333
EXTRACT: note_on channel=2 note=59 velocity=0 time=0
EXTRACT: note_on channel=2 note=62 velocity=0 time=0
EXTRACT: note_on channel=2 note=55 velocity=0 time=0
EXTRACT: note_on channel=2 note=48 velocity=0 time=0
EXTRACT: note_on channel=9 note=36 velocity=110 time=0
EXTRACT: note_on channel=9 note=42 velocity=48 time=0
EXTRACT: pitchwheel channel=0 pitch=4699 time=0.004098358333333333
EXTRACT: note_on channel=2 note=59 velocity=107 time=0
EXTRACT: note_on channel=2 note=62 velocity=113 time=0
EXTRACT: note_on channel=2 note=55 velocity=86 time=0
EXTRACT: pitchwheel channel=0 pitch=4779 time=0.004098358333333333
EXTRACT: note_on channel=1 note=59 velocity=0 time=0
EXTRACT: note_on channel=1 note=62 velocity=0 time=0
EXTRACT: note_on channel=1 note=55 velocity=0 time=0
EXTRACT: note_on channel=1 note=48 velocity=0 time=0
EXTRACT: note_on channel=1 note=59 velocity=76 time=0.004098358333333333
EXTRACT: note_on channel=1 note=62 velocity=110 time=0
EXTRACT: note_on channel=1 note=55 velocity=116 time=0
EXTRACT: note_on channel=9 note=36 velocity=0 time=0.02868850833333333
EXTRACT: note_on channel=9 note=42 velocity=0 time=0
EXTRACT: note_on channel=9 note=42 velocity=69 time=0.20491791666666664
EXTRACT: note_on channel=5 note=67 velocity=0 time=0.0061475374999999995
EXTRACT: note_on channel=5 note=64 velocity=0 time=0
EXTRACT: note_on channel=0 note=36 velocity=0 time=0.0020491791666666665
EXTRACT: note_on channel=9 note=42 velocity=0 time=0.032786866666666664
EXTRACT: note_on channel=2 note=59 velocity=0 time=0.20491791666666664
EXTRACT: note_on channel=2 note=62 velocity=0 time=0
EXTRACT: note_on channel=2 note=55 velocity=0 time=0
EXTRACT: note_on channel=9 note=36 velocity=120 time=0
EXTRACT: note_on channel=9 note=42 velocity=41 time=0
EXTRACT: note_on channel=2 note=59 velocity=102 time=0.004098358333333333
EXTRACT: note_on channel=2 note=64 velocity=68 time=0
EXTRACT: note_on channel=2 note=55 velocity=93 time=0
EXTRACT: pitchwheel channel=0 pitch=0 time=0.004098358333333333
EXTRACT: note_on channel=0 note=47 velocity=107 time=0
EXTRACT: note_on channel=1 note=59 velocity=0 time=0
EXTRACT: note_on channel=1 note=62 velocity=0 time=0
EXTRACT: note_on channel=1 note=55 velocity=0 time=0
EXTRACT: note_on channel=1 note=59 velocity=67 time=0.004098358333333333
EXTRACT: note_on channel=1 note=64 velocity=101 time=0
EXTRACT: note_on channel=1 note=55 velocity=73 time=0
EXTRACT: note_on channel=9 note=36 velocity=0 time=0.02868850833333333
EXTRACT: note_on channel=9 note=42 velocity=0 time=0
EXTRACT: note_on channel=0 note=47 velocity=0 time=0.15163925833333333
EXTRACT: note_on channel=2 note=59 velocity=0 time=0.053278658333333326
EXTRACT: note_on channel=2 note=64 velocity=0 time=0
EXTRACT: note_on channel=2 note=55 velocity=0 time=0
EXTRACT: note_on channel=9 note=40 velocity=127 time=0
EXTRACT: note_on channel=9 note=42 velocity=65 time=0
EXTRACT: note_on channel=2 note=59 velocity=87 time=0.004098358333333333
EXTRACT: note_on channel=2 note=64 velocity=116 time=0
EXTRACT: note_on channel=2 note=55 velocity=116 time=0
EXTRACT: note_on channel=2 note=48 velocity=103 time=0
EXTRACT: note_on channel=0 note=43 velocity=123 time=0.004098358333333333
EXTRACT: note_on channel=1 note=59 velocity=0 time=0
EXTRACT: note_on channel=1 note=64 velocity=0 time=0
EXTRACT: note_on channel=1 note=55 velocity=0 time=0
EXTRACT: note_on channel=1 note=59 velocity=81 time=0.004098358333333333
EXTRACT: note_on channel=1 note=64 velocity=107 time=0
EXTRACT: note_on channel=1 note=55 velocity=90 time=0
EXTRACT: note_on channel=1 note=48 velocity=97 time=0
EXTRACT: note_on channel=9 note=40 velocity=0 time=0.02868850833333333
EXTRACT: note_on channel=9 note=42 velocity=0 time=0
EXTRACT: note_on channel=0 note=43 velocity=0 time=0.15163925833333333
EXTRACT: note_on channel=2 note=59 velocity=0 time=0.053278658333333326
EXTRACT: note_on channel=2 note=64 velocity=0 time=0
EXTRACT: note_on channel=2 note=55 velocity=0 time=0
EXTRACT: note_on channel=2 note=48 velocity=0 time=0
EXTRACT: note_on channel=9 note=42 velocity=62 time=0
EXTRACT: note_on channel=2 note=59 velocity=79 time=0.004098358333333333
EXTRACT: note_on channel=2 note=64 velocity=106 time=0
EXTRACT: note_on channel=2 note=55 velocity=67 time=0
EXTRACT: note_on channel=0 note=43 velocity=103 time=0.004098358333333333
EXTRACT: note_on channel=1 note=59 velocity=0 time=0
EXTRACT: note_on channel=1 note=64 velocity=0 time=0
EXTRACT: note_on channel=1 note=55 velocity=0 time=0
EXTRACT: note_on channel=1 note=48 velocity=0 time=0
EXTRACT: note_on channel=1 note=59 velocity=70 time=0.004098358333333333
EXTRACT: note_on channel=1 note=64 velocity=115 time=0
EXTRACT: note_on channel=1 note=55 velocity=61 time=0
EXTRACT: note_on channel=9 note=42 velocity=0 time=0.02868850833333333
EXTRACT: note_on channel=0 note=43 velocity=0 time=0.15163925833333333
EXTRACT: note_on channel=2 note=59 velocity=0 time=0.053278658333333326
EXTRACT: note_on channel=2 note=64 velocity=0 time=0
EXTRACT: note_on channel=2 note=55 velocity=0 time=0
EXTRACT: note_on channel=9 note=36 velocity=120 time=0
EXTRACT: note_on channel=9 note=42 velocity=61 time=0
EXTRACT: note_on channel=2 note=59 velocity=99 time=0.004098358333333333
EXTRACT: note_on channel=2 note=64 velocity=87 time=0
EXTRACT: note_on channel=2 note=55 velocity=106 time=0
EXTRACT: note_on channel=2 note=48 velocity=110 time=0
EXTRACT: note_on channel=0 note=50 velocity=127 time=0.004098358333333333
EXTRACT: note_on channel=1 note=59 velocity=0 time=0
EXTRACT: note_on channel=1 note=64 velocity=0 time=0
EXTRACT: note_on channel=1 note=55 velocity=0 time=0
EXTRACT: note_on channel=1 note=59 velocity=91 time=0.004098358333333333
EXTRACT: note_on channel=1 note=64 velocity=95 time=0
EXTRACT: note_on channel=1 note=55 velocity=112 time=0
EXTRACT: note_on channel=1 note=48 velocity=108 time=0
EXTRACT: note_on channel=9 note=36 velocity=0 time=0.02868850833333333
EXTRACT: note_on channel=9 note=42 velocity=0 time=0
EXTRACT: note_on channel=0 note=50 velocity=0 time=0.15163925833333333
EXTRACT: note_on channel=2 note=59 velocity=0 time=0.053278658333333326
EXTRACT: note_on channel=2 note=64 velocity=0 time=0
EXTRACT: note_on channel=2 note=55 velocity=0 time=0
EXTRACT: note_on channel=2 note=48 velocity=0 time=0
EXTRACT: note_on channel=9 note=36 velocity=110 time=0
EXTRACT: note_on channel=9 note=42 velocity=46 time=0
EXTRACT: note_on channel=2 note=59 velocity=75 time=0.004098358333333333
EXTRACT: note_on channel=2 note=64 velocity=94 time=0
EXTRACT: note_on channel=2 note=55 velocity=84 time=0
EXTRACT: note_on channel=0 note=47 velocity=109 time=0.004098358333333333
EXTRACT: note_on channel=1 note=59 velocity=0 time=0
EXTRACT: note_on channel=1 note=64 velocity=0 time=0
EXTRACT: note_on channel=1 note=55 velocity=0 time=0
EXTRACT: note_on channel=1 note=48 velocity=0 time=0
EXTRACT: note_on channel=1 note=59 velocity=112 time=0.004098358333333333
EXTRACT: note_on channel=1 note=64 velocity=111 time=0
EXTRACT: note_on channel=1 note=55 velocity=117 time=0
EXTRACT: note_on channel=9 note=36 velocity=0 time=0.02868850833333333
EXTRACT: note_on channel=9 note=42 velocity=0 time=0
EXTRACT: note_on channel=0 note=47 velocity=0 time=0.15163925833333333
EXTRACT: note_on channel=2 note=59 velocity=0 time=0.053278658333333326
EXTRACT: note_on channel=2 note=64 velocity=0 time=0
EXTRACT: note_on channel=2 note=55 velocity=0 time=0
EXTRACT: note_on channel=9 note=40 velocity=127 time=0
EXTRACT: note_on channel=9 note=42 velocity=59 time=0
EXTRACT: note_on channel=2 note=59 velocity=102 time=0.004098358333333333
EXTRACT: note_on channel=2 note=64 velocity=103 time=0
EXTRACT: note_on channel=2 note=55 velocity=102 time=0
EXTRACT: note_on channel=2 note=48 velocity=108 time=0
EXTRACT: note_on channel=0 note=43 velocity=121 time=0.004098358333333333
EXTRACT: note_on channel=1 note=59 velocity=0 time=0
EXTRACT: note_on channel=1 note=64 velocity=0 time=0
EXTRACT: note_on channel=1 note=55 velocity=0 time=0
EXTRACT: note_on channel=1 note=59 velocity=92 time=0.004098358333333333
EXTRACT: note_on channel=1 note=64 velocity=85 time=0
EXTRACT: note_on channel=1 note=55 velocity=85 time=0
EXTRACT: note_on channel=1 note=48 velocity=110 time=0
EXTRACT: note_on channel=9 note=40 velocity=0 time=0.02868850833333333
EXTRACT: note_on channel=9 note=42 velocity=0 time=0
EXTRACT: note_on channel=0 note=43 velocity=0 time=0.15163925833333333
EXTRACT: note_on channel=2 note=59 velocity=0 time=0.053278658333333326
EXTRACT: note_on channel=2 note=64 velocity=0 time=0
EXTRACT: note_on channel=2 note=55 velocity=0 time=0
EXTRACT: note_on channel=2 note=48 velocity=0 time=0
EXTRACT: note_on channel=9 note=36 velocity=110 time=0
EXTRACT: note_on channel=9 note=42 velocity=44 time=0
EXTRACT: note_on channel=2 note=59 velocity=77 time=0.004098358333333333
EXTRACT: note_on channel=2 note=64 velocity=79 time=0
EXTRACT: note_on channel=2 note=55 velocity=79 time=0
EXTRACT: note_on channel=0 note=38 velocity=104 time=0.004098358333333333
EXTRACT: note_on channel=1 note=59 velocity=0 time=0
EXTRACT: note_on channel=1 note=64 velocity=0 time=0
EXTRACT: note_on channel=1 note=55 velocity=0 time=0
EXTRACT: note_on channel=1 note=48 velocity=0 time=0
EXTRACT: note_on channel=1 note=59 velocity=69 time=0.004098358333333333
EXTRACT: note_on channel=1 note=64 velocity=64 time=0
EXTRACT: note_on channel=1 note=55 velocity=95 time=0
EXTRACT: note_on channel=9 note=36 velocity=0 time=0.02868850833333333
EXTRACT: note_on channel=9 note=42 velocity=0 time=0
EXTRACT: note_on channel=0 note=38 velocity=0 time=0.15163925833333333
EXTRACT: note_on channel=2 note=59 velocity=0 time=0.053278658333333326
EXTRACT: note_on channel=2 note=64 velocity=0 time=0
EXTRACT: note_on channel=2 note=55 velocity=0 time=0
EXTRACT: note_on channel=9 note=49 velocity=100 time=0
EXTRACT: note_on channel=9 note=36 velocity=120 time=0
EXTRACT: note_on channel=2 note=64 velocity=86 time=0.004098358333333333
EXTRACT: note_on channel=2 note=60 velocity=109 time=0
EXTRACT: note_on channel=2 note=55 velocity=108 time=0
EXTRACT: note_on channel=2 note=48 velocity=117 time=0
EXTRACT: note_on channel=0 note=36 velocity=125 time=0.004098358333333333
EXTRACT: note_on channel=1 note=59 velocity=0 time=0
EXTRACT: note_on channel=1 note=64 velocity=0 time=0
EXTRACT: note_on channel=1 note=55 velocity=0 time=0
EXTRACT: note_on channel=4 note=76 velocity=0 time=0.0010245895833333333
EXTRACT: note_on channel=4 note=83 velocity=0 time=0
EXTRACT: note_on channel=4 note=79 velocity=0 time=0
EXTRACT: note_on channel=4 note=72 velocity=0 time=0
EXTRACT: note_on channel=4 note=72 velocity=122 time=0
EXTRACT: note_on channel=4 note=76 velocity=95 time=0
EXTRACT: note_on channel=4 note=79 velocity=90 time=0
EXTRACT: note_on channel=1 note=64 velocity=92 time=0.0030737687499999998
EXTRACT: note_on channel=1 note=60 velocity=95 time=0
EXTRACT: note_on channel=1 note=55 velocity=85 time=0
EXTRACT: note_on channel=1 note=48 velocity=90 time=0
EXTRACT: note_on channel=9 note=49 velocity=0 time=0.02868850833333333
EXTRACT: note_on channel=9 note=36 velocity=0 time=0
EXTRACT: note_on channel=9 note=42 velocity=44 time=0.20491791666666664
EXTRACT: note_on channel=0 note=36 velocity=0 time=0.008196716666666666
EXTRACT: note_on channel=9 note=42 velocity=0 time=0.032786866666666664
EXTRACT: note_on channel=2 note=64 velocity=0 time=0.20491791666666664
EXTRACT: note_on channel=2 note=60 velocity=0 time=0
EXTRACT: note_on channel=2 note=55 velocity=0 time=0
EXTRACT: note_on channel=2 note=48 velocity=0 time=0
EXTRACT: note_on channel=9 note=40 velocity=127 time=0
EXTRACT: note_on channel=9 note=42 velocity=59 time=0
EXTRACT: note_on channel=2 note=64 velocity=86 time=0.004098358333333333
EXTRACT: note_on channel=2 note=60 velocity=102 time=0
EXTRACT: note_on channel=2 note=55 velocity=114 time=0
EXTRACT: note_on channel=2 note=48 velocity=103 time=0
EXTRACT: note_on channel=0 note=36 velocity=124 time=0.004098358333333333
EXTRACT: note_on channel=1 note=64 velocity=0 time=0
EXTRACT: note_on channel=1 note=60 velocity=0 time=0
EXTRACT: note_on channel=1 note=55 velocity=0 time=0
EXTRACT: note_on channel=1 note=48 velocity=0 time=0
EXTRACT: note_on channel=1 note=64 velocity=116 time=0.004098358333333333
EXTRACT: note_on channel=1 note=60 velocity=84 time=0
EXTRACT: note_on channel=1 note=55 velocity=103 time=0
EXTRACT: note_on channel=1 note=48 velocity=82 time=0
EXTRACT: note_on channel=9 note=40 velocity=0 time=0.02868850833333333
EXTRACT: note_on channel=9 note=42 velocity=0 time=0
EXTRACT: note_on channel=0 note=36 velocity=0 time=0.15163925833333333
EXTRACT: note_on channel=9 note=42 velocity=67 time=0.053278658333333326
EXTRACT: note_on channel=5 note=72 velocity=57 time=0.0061475374999999995
EXTRACT: note_on channel=5 note=67 velocity=114 time=0
EXTRACT: note_on channel=0 note=36 velocity=120 time=0.0020491791666666665
EXTRACT: note_on channel=9 note=42 velocity=0 time=0.032786866666666664
EXTRACT: note_on channel=0 note=36 velocity=0 time=0.15163925833333333
EXTRACT: note_on channel=2 note=64 velocity=0 time=0.053278658333333326
EXTRACT: note_on channel=2 note=60 velocity=0 time=0
EXTRACT: note_on channel=2 note=55 velocity=0 time=0
EXTRACT: note_on channel=2 note=48 velocity=0 time=0
EXTRACT: note_on channel=9 note=36 velocity=120 time=0
EXTRACT: note_on channel=9 note=42 velocity=63 time=0
EXTRACT: note_on channel=5 note=72 velocity=0 time=0.0020491791666666665
EXTRACT: note_on channel=5 note=67 velocity=0 time=0
EXTRACT: note_on channel=2 note=64 velocity=105 time=0.0020491791666666665
EXTRACT: note_on channel=2 note=60 velocity=96 time=0
EXTRACT: note_on channel=2 note=55 velocity=110 time=0
EXTRACT: note_on channel=5 note=72 velocity=65 time=0.0020491791666666665
EXTRACT: note_on channel=5 note=67 velocity=114 time=0
EXTRACT: note_on channel=0 note=36 velocity=119 time=0.0020491791666666665
EXTRACT: note_on channel=1 note=64 velocity=0 time=0
EXTRACT: note_on channel=1 note=60 velocity=0 time=0
EXTRACT: note_on channel=1 note=55 velocity=0 time=0
EXTRACT: note_on channel=1 note=48 velocity=0 time=0
EXTRACT: note_on channel=1 note=64 velocity=90 time=0.004098358333333333
EXTRACT: note_on channel=1 note=60 velocity=94 time=0
EXTRACT: note_on channel=1 note=55 velocity=103 time=0
EXTRACT: note_on channel=9 note=36 velocity=0 time=0.02868850833333333
EXTRACT: note_on channel=9 note=42 velocity=0 time=0
EXTRACT: note_on channel=0 note=36 velocity=0 time=0.15163925833333333
EXTRACT: note_on channel=2 note=64 velocity=0 time=0.053278658333333326
EXTRACT: note_on channel=2 note=60 velocity=0 time=0
EXTRACT: note_on channel=2 note=55 velocity=0 time=0
EXTRACT: note_on channel=9 note=36 velocity=110 time=0
EXTRACT: note_on channel=9 note=42 velocity=47 time=0
EXTRACT: note_on channel=5 note=72 velocity=0 time=0.0020491791666666665
EXTRACT: note_on channel=5 note=67 velocity=0 time=0
EXTRACT: note_on channel=2 note=64 velocity=87 time=0.0020491791666666665
EXTRACT: note_on channel=2 note=60 velocity=74 time=0
EXTRACT: note_on channel=2 note=55 velocity=103 time=0
EXTRACT: note_on channel=2 note=48 velocity=98 time=0
EXTRACT: note_on channel=5 note=74 velocity=73 time=0.0020491791666666665
EXTRACT: note_on channel=5 note=69 velocity=95 time=0
EXTRACT: note_on channel=0 note=36 velocity=122 time=0.0020491791666666665
EXTRACT: note_on channel=1 note=64 velocity=0 time=0
EXTRACT: note_on channel=1 note=60 velocity=0 time=0
EXTRACT: note_on channel=1 note=55 velocity=0 time=0
EXTRACT: note_on channel=1 note=64 velocity=77 time=0.004098358333333333
EXTRACT: note_on channel=1 note=60 velocity=83 time=0
EXTRACT: note_on channel=1 note=55 velocity=77 time=0
EXTRACT: note_on channel=1 note=48 velocity=98 time=0
EXTRACT: note_on channel=9 note=36 velocity=0 time=0.02868850833333333
EXTRACT: note_on channel=9 note=42 velocity=0 time=0
EXTRACT: note_on channel=0 note=36 velocity=0 time=0.15163925833333333
EXTRACT: note_on channel=2 note=64 velocity=0 time=0.053278658333333326
EXTRACT: note_on channel=2 note=60 velocity=0 time=0
EXTRACT: note_on channel=2 note=55 velocity=0 time=0
EXTRACT: note_on channel=2 note=48 velocity=0 time=0
EXTRACT: note_on channel=9 note=40 velocity=127 time=0
EXTRACT: note_on channel=9 note=42 velocity=54 time=0
EXTRACT: note_on channel=2 note=64 velocity=102 time=0.004098358333333333
EXTRACT: note_on channel=2 note=60 velocity=100 time=0
EXTRACT: note_on channel=2 note=55 velocity=98 time=0
EXTRACT: note_on channel=2 note=48 velocity=100 time=0
EXTRACT: note_on channel=5 note=74 velocity=0 time=0.0020491791666666665
EXTRACT: note_on channel=5 note=69 velocity=0 time=0
EXTRACT: pitchwheel channel=0 pitch=0 time=0.0020491791666666665
EXTRACT: note_on channel=0 note=36 velocity=114 time=0
EXTRACT: note_on channel=1 note=64 velocity=0 time=0
EXTRACT: note_on channel=1 note=60 velocity=0 time=0
EXTRACT: note_on channel=1 note=55 velocity=0 time=0
EXTRACT: note_on channel=1 note=48 velocity=0 time=0
EXTRACT: pitchwheel channel=0 pitch=80 time=0.004098358333333333
EXTRACT: note_on channel=1 note=64 velocity=112 time=0
EXTRACT: note_on channel=1 note=60 velocity=107 time=0
EXTRACT: note_on channel=1 note=55 velocity=113 time=0
EXTRACT: note_on channel=1 note=48 velocity=110 time=0
EXTRACT: pitchwheel channel=0 pitch=159 time=0.004098358333333333
EXTRACT: pitchwheel channel=0 pitch=239 time=0.004098358333333333
EXTRACT: pitchwheel channel=0 pitch=319 time=0.004098358333333333
EXTRACT: pitchwheel channel=0 pitch=398 time=0.004098358333333333
EXTRACT: pitchwheel channel=0 pitch=478 time=0.004098358333333333
EXTRACT: pitchwheel channel=0 pitch=558 time=0.004098358333333333
EXTRACT: pitchwheel channel=0 pitch=637 time=0.004098358333333333
EXTRACT: note_on channel=9 note=40 velocity=0 time=0
EXTRACT: note_on channel=9 note=42 velocity=0 time=0
EXTRACT: pitchwheel channel=0 pitch=717 time=0.004098358333333333
EXTRACT: pitchwheel channel=0 pitch=797 time=0.004098358333333333
EXTRACT: pitchwheel channel=0 pitch=876 time=0.004098358333333333
EXTRACT: pitchwheel channel=0 pitch=956 time=0.004098358333333333
EXTRACT: pitchwheel channel=0 pitch=1035 time=0.004098358333333333
EXTRACT: pitchwheel channel=0 pitch=1115 time=0.004098358333333333
EXTRACT: pitchwheel channel=0 pitch=1195 time=0.004098358333333333
EXTRACT: pitchwheel channel=0 pitch=1274 time=0.004098358333333333
EXTRACT: pitchwheel channel=0 pitch=1354 time=0.004098358333333333
EXTRACT: pitchwheel channel=0 pitch=1434 time=0.004098358333333333
EXTRACT: pitchwheel channel=0 pitch=1513 time=0.004098358333333333
EXTRACT: pitchwheel channel=0 pitch=1593 time=0.004098358333333333
EXTRACT: pitchwheel channel=0 pitch=1673 time=0.004098358333333333
EXTRACT: pitchwheel channel=0 pitch=1752 time=0.004098358333333333
EXTRACT: pitchwheel channel=0 pitch=1832 time=0.004098358333333333
EXTRACT: pitchwheel channel=0 pitch=1912 time=0.004098358333333333
EXTRACT: pitchwheel channel=0 pitch=1991 time=0.004098358333333333
EXTRACT: pitchwheel channel=0 pitch=2071 time=0.004098358333333333
EXTRACT: pitchwheel channel=0 pitch=2151 time=0.004098358333333333
EXTRACT: pitchwheel channel=0 pitch=2230 time=0.004098358333333333
EXTRACT: pitchwheel channel=0 pitch=2310 time=0.004098358333333333
EXTRACT: pitchwheel channel=0 pitch=2390 time=0.004098358333333333
EXTRACT: pitchwheel channel=0 pitch=2469 time=0.004098358333333333
EXTRACT: pitchwheel channel=0 pitch=2549 time=0.004098358333333333
EXTRACT: pitchwheel channel=0 pitch=2628 time=0.004098358333333333
EXTRACT: pitchwheel channel=0 pitch=2708 time=0.004098358333333333
EXTRACT: pitchwheel channel=0 pitch=2788 time=0.004098358333333333
EXTRACT: pitchwheel channel=0 pitch=2867 time=0.004098358333333333
EXTRACT: pitchwheel channel=0 pitch=2947 time=0.004098358333333333
EXTRACT: pitchwheel channel=0 pitch=3027 time=0.004098358333333333
EXTRACT: pitchwheel channel=0 pitch=3106 time=0.004098358333333333
EXTRACT: pitchwheel channel=0 pitch=3186 time=0.004098358333333333
EXTRACT: pitchwheel channel=0 pitch=3266 time=0.004098358333333333
EXTRACT: pitchwheel channel=0 pitch=3345 time=0.004098358333333333
EXTRACT: pitchwheel channel=0 pitch=3425 time=0.004098358333333333
EXTRACT: pitchwheel channel=0 pitch=3505 time=0.004098358333333333
EXTRACT: pitchwheel channel=0 pitch=3584 time=0.004098358333333333
EXTRACT: pitchwheel channel=0 pitch=3664 time=0.004098358333333333
EXTRACT: pitchwheel channel=0 pitch=3744 time=0.004098358333333333
EXTRACT: pitchwheel channel=0 pitch=3823 time=0.004098358333333333
EXTRACT: pitchwheel channel=0 pitch=3903 time=0.004098358333333333
EXTRACT: pitchwheel channel=0 pitch=3983 time=0.004098358333333333
EXTRACT: pitchwheel channel=0 pitch=4062 time=0.004098358333333333
EXTRACT: pitchwheel channel=0 pitch=4142 time=0.004098358333333333
EXTRACT: pitchwheel channel=0 pitch=4221 time=0.004098358333333333
EXTRACT: pitchwheel channel=0 pitch=4301 time=0.004098358333333333
EXTRACT: pitchwheel channel=0 pitch=4381 time=0.004098358333333333
EXTRACT: pitchwheel channel=0 pitch=4460 time=0.004098358333333333
EXTRACT: pitchwheel channel=0 pitch=4540 time=0.004098358333333333
EXTRACT: pitchwheel channel=0 pitch=4620 time=0.004098358333333333
EXTRACT: note_on channel=2 note=64 velocity=0 time=0
EXTRACT: note_on channel=2 note=60 velocity=0 time=0
EXTRACT: note_on channel=2 note=55 velocity=0 time=0
EXTRACT: note_on channel=2 note=48 velocity=0 time=0
EXTRACT: note_on channel=9 note=36 velocity=110 time=0
EXTRACT: note_on channel=9 note=42 velocity=44 time=0
EXTRACT: pitchwheel channel=0 pitch=4699 time=0.004098358333333333
EXTRACT: note_on channel=2 note=64 velocity=111 time=0
EXTRACT: note_on channel=2 note=60 velocity=86 time=0
EXTRACT: note_on channel=2 note=55 velocity=96 time=0
EXTRACT: note_on channel=5 note=76 velocity=64 time=0.0020491791666666665
EXTRACT: note_on channel=5 note=72 velocity=114 time=0
EXTRACT: pitchwheel channel=0 pitch=4779 time=0.0020491791666666665
EXTRACT: note_on channel=1 note=64 velocity=0 time=0
EXTRACT: note_on channel=1 note=60 velocity=0 time=0
EXTRACT: note_on channel=1 note=55 velocity=0 time=0
EXTRACT: note_on channel=1 note=48 velocity=0 time=0
EXTRACT: note_on channel=1 note=64 velocity=102 time=0.004098358333333333
EXTRACT: note_on channel=1 note=60 velocity=106 time=0
EXTRACT: note_on channel=1 note=55 velocity=107 time=0
EXTRACT: note_on channel=9 note=36 velocity=0 time=0.02868850833333333
EXTRACT: note_on channel=9 note=42 velocity=0 time=0
EXTRACT: note_on channel=2 note=64 velocity=0 time=0.20491791666666664
EXTRACT: note_on channel=2 note=60 velocity=0 time=0
EXTRACT: note_on channel=2 note=55 velocity=0 time=0
EXTRACT: note_on channel=9 note=42 velocity=61 time=0
EXTRACT: note_on channel=9 note=36 velocity=120 time=0
EXTRACT: note_on channel=2 note=62 velocity=111 time=0.004098358333333333
EXTRACT: note_on channel=2 note=58 velocity=86 time=0
EXTRACT: note_on channel=2 note=55 velocity=100 time=0
EXTRACT: note_on channel=2 note=65 velocity=91 time=0
EXTRACT: note_on channel=0 note=36 velocity=0 time=0.004098358333333333
EXTRACT: note_on channel=1 note=64 velocity=0 time=0
EXTRACT: note_on channel=1 note=60 velocity=0 time=0
EXTRACT: note_on channel=1 note=55 velocity=0 time=0
EXTRACT: note_on channel=4 note=72 velocity=0 time=0.0010245895833333333
EXTRACT: note_on channel=4 note=76 velocity=0 time=0
EXTRACT: note_on channel=4 note=79 velocity=0 time=0
EXTRACT: note_on channel=4 note=74 velocity=102 time=0
EXTRACT: note_on channel=4 note=79 velocity=115 time=0
EXTRACT: note_on channel=4 note=82 velocity=100 time=0
EXTRACT: note_on channel=1 note=62 velocity=114 time=0.0030737687499999998
EXTRACT: note_on channel=1 note=58 velocity=91 time=0
EXTRACT: note_on channel=1 note=55 velocity=79 time=0
EXTRACT: note_on channel=1 note=65 velocity=101 time=0
EXTRACT: note_on channel=9 note=42 velocity=0 time=0.02868850833333333
EXTRACT: note_on channel=9 note=36 velocity=0 time=0
EXTRACT: note_on channel=9 note=42 velocity=43 time=0.20491791666666664
EXTRACT: note_on channel=5 note=76 velocity=0 time=0.0020491791666666665
EXTRACT: note_on channel=5 note=72 velocity=0 time=0
EXTRACT: note_on channel=5 note=76 velocity=57 time=0.004098358333333333
EXTRACT: note_on channel=5 note=72 velocity=101 time=0
EXTRACT: pitchwheel channel=0 pitch=0 time=0.0020491791666666665
EXTRACT: note_on channel=0 note=43 velocity=124 time=0
EXTRACT: note_on channel=9 note=42 velocity=0 time=0.032786866666666664
EXTRACT: note_on channel=0 note=43 velocity=0 time=0.15163925833333333
EXTRACT: note_on channel=2 note=62 velocity=0 time=0.053278658333333326
EXTRACT: note_on channel=2 note=58 velocity=0 time=0
EXTRACT: note_on channel=2 note=55 velocity=0 time=0
EXTRACT: note_on channel=2 note=65 velocity=0 time=0
EXTRACT: note_on channel=9 note=40 velocity=127 time=0
EXTRACT: note_on channel=9 note=42 velocity=57 time=0
EXTRACT: note_on channel=2 note=62 velocity=86 time=0.004098358333333333
EXTRACT: note_on channel=2 note=58 velocity=98 time=0
EXTRACT: note_on channel=2 note=55 velocity=107 time=0
EXTRACT: note_on channel=2 note=65 velocity=100 time=0
EXTRACT: note_on channel=0 note=43 velocity=119 time=0.004098358333333333
EXTRACT: note_on channel=1 note=62 velocity=0 time=0
EXTRACT: note_on channel=1 note=58 velocity=0 time=0
EXTRACT: note_on channel=1 note=55 velocity=0 time=0
EXTRACT: note_on channel=1 note=65 velocity=0 time=0
EXTRACT: note_on channel=1 note=62 velocity=96 time=0.004098358333333333
EXTRACT: note_on channel=1 note=58 velocity=81 time=0
EXTRACT: note_on channel=1 note=55 velocity=111 time=0
EXTRACT: note_on channel=1 note=65 velocity=107 time=0
EXTRACT: note_on channel=9 note=40 velocity=0 time=0.02868850833333333
EXTRACT: note_on channel=9 note=42 velocity=0 time=0
EXTRACT: note_on channel=0 note=43 velocity=0 time=0.15163925833333333
EXTRACT: note_on channel=9 note=36 velocity=90 time=0.053278658333333326
EXTRACT: note_on channel=9 note=42 velocity=60 time=0
EXTRACT: note_on channel=5 note=76 velocity=0 time=0.0020491791666666665
EXTRACT: note_on channel=5 note=72 velocity=0 time=0
EXTRACT: note_on channel=5 note=74 velocity=76 time=0.004098358333333333
EXTRACT: note_on channel=5 note=69 velocity=108 time=0
EXTRACT: note_on channel=0 note=43 velocity=110 time=0.0020491791666666665
EXTRACT: note_on channel=9 note=36 velocity=0 time=0.032786866666666664
EXTRACT: note_on channel=9 note=42 velocity=0 time=0
EXTRACT: note_on channel=9 note=36 velocity=100 time=0.08196716666666666
EXTRACT: note_on channel=9 note=36 velocity=0 time=0.04098358333333333
EXTRACT: note_on channel=0 note=43 velocity=0 time=0.02868850833333333
EXTRACT: note_on channel=2 note=62 velocity=0 time=0.053278658333333326
EXTRACT: note_on channel=2 note=58 velocity=0 time=0
EXTRACT: note_on channel=2 note=55 velocity=0 time=0
EXTRACT: note_on channel=2 note=65 velocity=0 time=0
EXTRACT: note_on channel=9 note=36 velocity=120 time=0
EXTRACT: note_on channel=9 note=42 velocity=59 time=0
EXTRACT: note_on channel=2 note=62 velocity=90 time=0.004098358333333333
EXTRACT: note_on channel=2 note=58 velocity=90 time=0
EXTRACT: note_on channel=2 note=55 velocity=102 time=0
EXTRACT: note_on channel=0 note=43 velocity=122 time=0.004098358333333333
EXTRACT: note_on channel=1 note=62 velocity=0 time=0
EXTRACT: note_on channel=1 note=58 velocity=0 time=0
EXTRACT: note_on channel=1 note=55 velocity=0 time=0
EXTRACT: note_on channel=1 note=65 velocity=0 time=0
EXTRACT: note_on channel=1 note=62 velocity=105 time=0.004098358333333333
EXTRACT: note_on channel=1 note=58 velocity=80 time=0
EXTRACT: note_on channel=1 note=55 velocity=101 time=0
EXTRACT: note_on channel=9 note=36 velocity=0 time=0.02868850833333333
EXTRACT: note_on channel=9 note=42 velocity=0 time=0
EXTRACT: note_on channel=0 note=43 velocity=0 time=0.15163925833333333
EXTRACT: note_on channel=2 note=62 velocity=0 time=0.053278658333333326
EXTRACT: note_on channel=2 note=58 velocity=0 time=0
EXTRACT: note_on channel=2 note=55 velocity=0 time=0
EXTRACT: note_on channel=9 note=36 velocity=110 time=0
EXTRACT: note_on channel=9 note=42 velocity=47 time=0
EXTRACT: note_on channel=5 note=74 velocity=0 time=0.0020491791666666665
EXTRACT: note_on channel=5 note=69 velocity=0 time=0
EXTRACT: note_on channel=2 note=62 velocity=97 time=0.0020491791666666665
EXTRACT: note_on channel=2 note=58 velocity=73 time=0
EXTRACT: note_on channel=2 note=55 velocity=69 time=0
EXTRACT: note_on channel=2 note=65 velocity=99 time=0
EXTRACT: note_on channel=5 note=72 velocity=74 time=0.0020491791666666665
EXTRACT: note_on channel=5 note=67 velocity=116 time=0
EXTRACT: note_on channel=0 note=45 velocity=104 time=0.0020491791666666665
EXTRACT: note_on channel=1 note=62 velocity=0 time=0
EXTRACT: note_on channel=1 note=58 velocity=0 time=0
EXTRACT: note_on channel=1 note=55 velocity=0 time=0
EXTRACT: note_on channel=1 note=62 velocity=115 time=0.004098358333333333
EXTRACT: note_on channel=1 note=58 velocity=102 time=0
EXTRACT: note_on channel=1 note=55 velocity=116 time=0
EXTRACT: note_on channel=1 note=65 velocity=88 time=0
EXTRACT: note_on channel=9 note=36 velocity=0 time=0.02868850833333333
EXTRACT: note_on channel=9 note=42 velocity=0 time=0
EXTRACT: note_on channel=0 note=45 velocity=0 time=0.15163925833333333
EXTRACT: note_on channel=2 note=62 velocity=0 time=0.053278658333333326
EXTRACT: note_on channel=2 note=58 velocity=0 time=0
EXTRACT: note_on channel=2 note=55 velocity=0 time=0
EXTRACT: note_on channel=2 note=65 velocity=0 time=0
EXTRACT: note_on channel=9 note=40 velocity=127 time=0
EXTRACT: note_on channel=9 note=42 velocity=57 time=0
EXTRACT: note_on channel=2 note=62 velocity=97 time=0.004098358333333333
EXTRACT: note_on channel=2 note=58 velocity=95 time=0
EXTRACT: note_on channel=2 note=55 velocity=108 time=0
EXTRACT: note_on channel=2 note=65 velocity=107 time=0
EXTRACT: note_on channel=0 note=45 velocity=118 time=0.004098358333333333
EXTRACT: note_on channel=1 note=62 velocity=0 time=0
EXTRACT: note_on channel=1 note=58 velocity=0 time=0
EXTRACT: note_on channel=1 note=55 velocity=0 time=0
EXTRACT: note_on channel=1 note=65 velocity=0 time=0
EXTRACT: note_on channel=1 note=62 velocity=94 time=0.004098358333333333
EXTRACT: note_on channel=1 note=58 velocity=81 time=0
EXTRACT: note_on channel=1 note=55 velocity=91 time=0
EXTRACT: note_on channel=1 note=65 velocity=113 time=0
EXTRACT: note_on channel=9 note=40 velocity=0 time=0.02868850833333333
EXTRACT: note_on channel=9 note=42 velocity=0 time=0
EXTRACT: note_on channel=0 note=45 velocity=0 time=0.15163925833333333
EXTRACT: note_on channel=2 note=62 velocity=0 time=0.053278658333333326
EXTRACT: note_on channel=2 note=58 velocity=0 time=0
EXTRACT: note_on channel=2 note=55 velocity=0 time=0
EXTRACT: note_on channel=2 note=65 velocity=0 time=0
EXTRACT: note_on channel=9 note=36 velocity=110 time=0
EXTRACT: note_on channel=9 note=42 velocity=49 time=0
EXTRACT: note_on channel=2 note=62 velocity=105 time=0.004098358333333333
EXTRACT: note_on channel=2 note=58 velocity=112 time=0
EXTRACT: note_on channel=2 note=55 velocity=108 time=0
EXTRACT: note_on channel=0 note=45 velocity=107 time=0.004098358333333333
EXTRACT: note_on channel=1 note=62 velocity=0 time=0
EXTRACT: note_on channel=1 note=58 velocity=0 time=0
EXTRACT: note_on channel=1 note=55 velocity=0 time=0
EXTRACT: note_on channel=1 note=65 velocity=0 time=0
EXTRACT: note_on channel=1 note=62 velocity=91 time=0.004098358333333333
EXTRACT: note_on channel=1 note=58 velocity=75 time=0
EXTRACT: note_on channel=1 note=55 velocity=107 time=0
EXTRACT: note_on channel=9 note=36 velocity=0 time=0.02868850833333333
EXTRACT: note_on channel=9 note=42 velocity=0 time=0
EXTRACT: note_on channel=0 note=45 velocity=0 time=0.15163925833333333
EXTRACT: note_on channel=2 note=62 velocity=0 time=0.053278658333333326
EXTRACT: note_on channel=2 note=58 velocity=0 time=0
EXTRACT: note_on channel=2 note=55 velocity=0 time=0
EXTRACT: note_on channel=9 note=49 velocity=100 time=0
EXTRACT: note_on channel=9 note=36 velocity=120 time=0
EXTRACT: note_on channel=5 note=72 velocity=0 time=0.0020491791666666665
EXTRACT: note_on channel=5 note=67 velocity=0 time=0
EXTRACT: note_on channel=2 note=60 velocity=97 time=0.0020491791666666665
EXTRACT: note_on channel=2 note=57 velocity=94 time=0
EXTRACT: note_on channel=2 note=53 velocity=107 time=0
EXTRACT: note_on channel=2 note=65 velocity=90 time=0
EXTRACT: note_on channel=5 note=72 velocity=77 time=0.0020491791666666665
EXTRACT: note_on channel=5 note=67 velocity=86 time=0
EXTRACT: note_on channel=0 note=41 velocity=104 time=0.0020491791666666665
EXTRACT: note_on channel=1 note=62 velocity=0 time=0
EXTRACT: note_on channel=1 note=58 velocity=0 time=0
EXTRACT: note_on channel=1 note=55 velocity=0 time=0
EXTRACT: note_on channel=4 note=74 velocity=0 time=0.0010245895833333333
EXTRACT: note_on channel=4 note=79 velocity=0 time=0
EXTRACT: note_on channel=4 note=82 velocity=0 time=0
EXTRACT: note_on channel=4 note=72 velocity=94 time=0
EXTRACT: note_on channel=4 note=77 velocity=97 time=0
EXTRACT: note_on channel=4 note=81 velocity=122 time=0
EXTRACT: note_on channel=1 note=60 velocity=90 time=0.0030737687499999998
EXTRACT: note_on channel=1 note=57 velocity=90 time=0
EXTRACT: note_on channel=1 note=53 velocity=79 time=0
EXTRACT: note_on channel=1 note=65 velocity=85 time=0
EXTRACT: note_on channel=9 note=49 velocity=0 time=0.02868850833333333
EXTRACT: note_on channel=9 note=36 velocity=0 time=0
EXTRACT: note_on channel=9 note=42 velocity=41 time=0.20491791666666664
EXTRACT: note_on channel=0 note=41 velocity=0 time=0.008196716666666666
EXTRACT: note_on channel=9 note=42 velocity=0 time=0.032786866666666664
EXTRACT: note_on channel=2 note=60 velocity=0 time=0.20491791666666664
EXTRACT: note_on channel=2 note=57 velocity=0 time=0
EXTRACT: note_on channel=2 note=53 velocity=0 time=0
EXTRACT: note_on channel=2 note=65 velocity=0 time=0
EXTRACT: note_on channel=9 note=40 velocity=127 time=0
EXTRACT: note_on channel=9 note=42 velocity=62 time=0
EXTRACT: note_on channel=5 note=72 velocity=0 time=0.0020491791666666665
EXTRACT: note_on channel=5 note=67 velocity=0 time=0
EXTRACT: note_on channel=2 note=60 velocity=107 time=0.0020491791666666665
EXTRACT: note_on channel=2 note=57 velocity=117 time=0
EXTRACT: note_on channel=2 note=53 velocity=101 time=0
EXTRACT: note_on channel=2 note=65 velocity=113 time=0
EXTRACT: note_on channel=5 note=69 velocity=53 time=0.0020491791666666665
EXTRACT: note_on channel=5 note=65 velocity=85 time=0
EXTRACT: note_on channel=0 note=41 velocity=111 time=0.0020491791666666665
EXTRACT: note_on channel=1 note=60 velocity=0 time=0
EXTRACT: note_on channel=1 note=57 velocity=0 time=0
EXTRACT: note_on channel=1 note=53 velocity=0 time=0
EXTRACT: note_on channel=1 note=65 velocity=0 time=0
EXTRACT: note_on channel=1 note=60 velocity=89 time=0.004098358333333333
EXTRACT: note_on channel=1 note=57 velocity=86 time=0
EXTRACT: note_on channel=1 note=53 velocity=101 time=0
EXTRACT: note_on channel=1 note=65 velocity=94 time=0
EXTRACT: note_on channel=9 note=40 velocity=0 time=0.02868850833333333
EXTRACT: note_on channel=9 note=42 velocity=0 time=0
EXTRACT: note_on channel=0 note=41 velocity=0 time=0.15163925833333333
EXTRACT: note_on channel=9 note=42 velocity=59 time=0.053278658333333326
EXTRACT: note_on channel=5 note=69 velocity=0 time=0.0020491791666666665
EXTRACT: note_on channel=5 note=65 velocity=0 time=0
EXTRACT: note_on channel=5 note=65 velocity=80 time=0.004098358333333333
EXTRACT: note_on channel=5 note=60 velocity=115 time=0
EXTRACT: note_on channel=0 note=45 velocity=108 time=0.0020491791666666665
EXTRACT: note_on channel=9 note=42 velocity=0 time=0.032786866666666664
EXTRACT: note_on channel=0 note=45 velocity=0 time=0.15163925833333333
EXTRACT: note_on channel=2 note=60 velocity=0 time=0.053278658333333326
EXTRACT: note_on channel=2 note=57 velocity=0 time=0
EXTRACT: note_on channel=2 note=53 velocity=0 time=0
EXTRACT: note_on channel=2 note=65 velocity=0 time=0
EXTRACT: note_on channel=9 note=36 velocity=120 time=0
EXTRACT: note_on channel=9 note=42 velocity=57 time=0
EXTRACT: note_on channel=2 note=60 velocity=112 time=0.004098358333333333
EXTRACT: note_on channel=2 note=57 velocity=92 time=0
EXTRACT: note_on channel=2 note=53 velocity=117 time=0
EXTRACT: note_on channel=0 note=48 velocity=116 time=0.004098358333333333
EXTRACT: note_on channel=1 note=60 velocity=0 time=0
EXTRACT: note_on channel=1 note=57 velocity=0 time=0
EXTRACT: note_on channel=1 note=53 velocity=0 time=0
EXTRACT: note_on channel=1 note=65 velocity=0 time=0
EXTRACT: note_on channel=1 note=60 velocity=110 time=0.004098358333333333
EXTRACT: note_on channel=1 note=57 velocity=79 time=0
EXTRACT: note_on channel=1 note=53 velocity=106 time=0
EXTRACT: note_on channel=9 note=36 velocity=0 time=0.02868850833333333
EXTRACT: note_on channel=9 note=42 velocity=0 time=0
EXTRACT: note_on channel=0 note=48 velocity=0 time=0.15163925833333333
EXTRACT: note_on channel=2 note=60 velocity=0 time=0.053278658333333326
EXTRACT: note_on channel=2 note=57 velocity=0 time=0
EXTRACT: note_on channel=2 note=53 velocity=0 time=0
EXTRACT: note_on channel=9 note=36 velocity=110 time=0
EXTRACT: note_on channel=9 note=42 velocity=47 time=0
EXTRACT: note_on channel=2 note=60 velocity=113 time=0.004098358333333333
EXTRACT: note_on channel=2 note=57 velocity=76 time=0
EXTRACT: note_on channel=2 note=53 velocity=109 time=0
EXTRACT: note_on channel=2 note=65 velocity=95 time=0
EXTRACT: note_on channel=0 note=45 velocity=108 time=0.004098358333333333
EXTRACT: note_on channel=1 note=60 velocity=0 time=0
EXTRACT: note_on channel=1 note=57 velocity=0 time=0
EXTRACT: note_on channel=1 note=53 velocity=0 time=0
EXTRACT: note_on channel=1 note=60 velocity=87 time=0.004098358333333333
EXTRACT: note_on channel=1 note=57 velocity=113 time=0
EXTRACT: note_on channel=1 note=53 velocity=64 time=0
EXTRACT: note_on channel=1 note=65 velocity=64 time=0
EXTRACT: note_on channel=9 note=36 velocity=0 time=0.02868850833333333
EXTRACT: note_on channel=9 note=42 velocity=0 time=0
EXTRACT: note_on channel=0 note=45 velocity=0 time=0.15163925833333333
EXTRACT: note_on channel=2 note=60 velocity=0 time=0.053278658333333326
EXTRACT: note_on channel=2 note=57 velocity=0 time=0
EXTRACT: note_on channel=2 note=53 velocity=0 time=0
EXTRACT: note_on channel=2 note=65 velocity=0 time=0
EXTRACT: note_on channel=9 note=40 velocity=127 time=0
EXTRACT: note_on channel=9 note=42 velocity=59 time=0
EXTRACT: note_on channel=2 note=60 velocity=97 time=0.004098358333333333
EXTRACT: note_on channel=2 note=57 velocity=106 time=0
EXTRACT: note_on channel=2 note=53 velocity=86 time=0
EXTRACT: note_on channel=2 note=65 velocity=95 time=0
EXTRACT: note_on channel=5 note=65 velocity=0 time=0.0020491791666666665
EXTRACT: note_on channel=5 note=60 velocity=0 time=0
EXTRACT: note_on channel=0 note=48 velocity=118 time=0.0020491791666666665
EXTRACT: note_on channel=1 note=60 velocity=0 time=0
EXTRACT: note_on channel=1 note=57 velocity=0 time=0
EXTRACT: note_on channel=1 note=53 velocity=0 time=0
EXTRACT: note_on channel=1 note=65 velocity=0 time=0
EXTRACT: note_on channel=1 note=60 velocity=90 time=0.004098358333333333
EXTRACT: note_on channel=1 note=57 velocity=84 time=0
EXTRACT: note_on channel=1 note=53 velocity=114 time=0
EXTRACT: note_on channel=1 note=65 velocity=109 time=0
EXTRACT: note_on channel=9 note=40 velocity=0 time=0.02868850833333333
EXTRACT: note_on channel=9 note=42 velocity=0 time=0
EXTRACT: note_on channel=0 note=48 velocity=0 time=0.15163925833333333
EXTRACT: note_on channel=2 note=60 velocity=0 time=0.053278658333333326
EXTRACT: note_on channel=2 note=57 velocity=0 time=0
EXTRACT: note_on channel=2 note=53 velocity=0 time=0
EXTRACT: note_on channel=2 note=65 velocity=0 time=0
EXTRACT: note_on channel=9 note=36 velocity=110 time=0
EXTRACT: note_on channel=9 note=42 velocity=44 time=0
EXTRACT: note_on channel=2 note=60 velocity=114 time=0.004098358333333333
EXTRACT: note_on channel=2 note=57 velocity=107 time=0
EXTRACT: note_on channel=2 note=53 velocity=83 time=0
EXTRACT: note_on channel=5 note=72 velocity=77 time=0.0020491791666666665
EXTRACT: note_on channel=5 note=67 velocity=113 time=0
EXTRACT: note_on channel=0 note=45 velocity=118 time=0.0020491791666666665
EXTRACT: note_on channel=1 note=60 velocity=0 time=0
EXTRACT: note_on channel=1 note=57 velocity=0 time=0
EXTRACT: note_on channel=1 note=53 velocity=0 time=0
EXTRACT: note_on channel=1 note=65 velocity=0 time=0
EXTRACT: note_on channel=1 note=60 velocity=97 time=0.004098358333333333
EXTRACT: note_on channel=1 note=57 velocity=105 time=0
EXTRACT: note_on channel=1 note=53 velocity=88 time=0
EXTRACT: note_on channel=9 note=36 velocity=0 time=0.02868850833333333
EXTRACT: note_on channel=9 note=42 velocity=0 time=0
EXTRACT: note_on channel=0 note=45 velocity=0 time=0.15163925833333333
EXTRACT: note_on channel=2 note=60 velocity=0 time=0.053278658333333326
EXTRACT: note_on channel=2 note=57 velocity=0 time=0
EXTRACT: note_on channel=2 note=53 velocity=0 time=0
EXTRACT: note_on channel=9 note=42 velocity=68 time=0
EXTRACT: note_on channel=9 note=36 velocity=120 time=0
EXTRACT: note_on channel=5 note=72 velocity=0 time=0.0020491791666666665
EXTRACT: note_on channel=5 note=67 velocity=0 time=0
EXTRACT: note_on channel=2 note=60 velocity=93 time=0.0020491791666666665
EXTRACT: note_on channel=2 note=56 velocity=98 time=0
EXTRACT: note_on channel=2 note=53 velocity=98 time=0
EXTRACT: note_on channel=2 note=62 velocity=111 time=0
EXTRACT: note_on channel=5 note=72 velocity=63 time=0.0020491791666666665
EXTRACT: note_on channel=5 note=67 velocity=96 time=0
EXTRACT: note_on channel=0 note=34 velocity=126 time=0.0020491791666666665
EXTRACT: note_on channel=1 note=60 velocity=0 time=0
EXTRACT: note_on channel=1 note=57 velocity=0 time=0
EXTRACT: note_on channel=1 note=53 velocity=0 time=0
EXTRACT: note_on channel=4 note=72 velocity=0 time=0.0010245895833333333
EXTRACT: note_on channel=4 note=77 velocity=0 time=0
EXTRACT: note_on channel=4 note=81 velocity=0 time=0
EXTRACT: note_on channel=4 note=74 velocity=120 time=0
EXTRACT: note_on channel=4 note=77 velocity=108 time=0
EXTRACT: note_on channel=4 note=80 velocity=111 time=0
EXTRACT: note_on channel=1 note=60 velocity=86 time=0.0030737687499999998
EXTRACT: note_on channel=1 note=56 velocity=83 time=0
EXTRACT: note_on channel=1 note=53 velocity=92 time=0
EXTRACT: note_on channel=1 note=62 velocity=96 time=0
EXTRACT: note_on channel=9 note=42 velocity=0 time=0.02868850833333333
EXTRACT: note_on channel=9 note=36 velocity=0 time=0
EXTRACT: note_on channel=0 note=34 velocity=0 time=0.15163925833333333
EXTRACT: note_on channel=9 note=42 velocity=42 time=0.053278658333333326
EXTRACT: note_on channel=0 note=36 velocity=108 time=0.008196716666666666
EXTRACT: note_on channel=9 note=42 velocity=0 time=0.032786866666666664
EXTRACT: note_on channel=0 note=36 velocity=0 time=0.15163925833333333
EXTRACT: note_on channel=2 note=60 velocity=0 time=0.053278658333333326
EXTRACT: note_on channel=2 note=56 velocity=0 time=0
EXTRACT: note_on channel=2 note=53 velocity=0 time=0
EXTRACT: note_on channel=2 note=62 velocity=0 time=0
EXTRACT: note_on channel=9 note=40 velocity=127 time=0
EXTRACT: note_on channel=9 note=42 velocity=57 time=0
EXTRACT: note_on channel=5 note=72 velocity=0 time=0.0020491791666666665
EXTRACT: note_on channel=5 note=67 velocity=0 time=0
EXTRACT: note_on channel=2 note=60 velocity=108 time=0.0020491791666666665
EXTRACT: note_on channel=2 note=56 velocity=100 time=0
EXTRACT: note_on channel=2 note=53 velocity=110 time=0
EXTRACT: note_on channel=2 note=62 velocity=104 time=0
EXTRACT: note_on channel=5 note=69 velocity=73 time=0.0020491791666666665
EXTRACT: note_on channel=5 note=65 velocity=86 time=0
EXTRACT: note_on channel=0 note=38 velocity=121 time=0.0020491791666666665
EXTRACT: note_on channel=1 note=60 velocity=0 time=0
EXTRACT: note_on channel=1 note=56 velocity=0 time=0
EXTRACT: note_on channel=1 note=53 velocity=0 time=0
EXTRACT: note_on channel=1 note=62 velocity=0 time=0
EXTRACT: note_on channel=1 note=60 velocity=108 time=0.004098358333333333
EXTRACT: note_on channel=1 note=56 velocity=95 time=0
EXTRACT: note_on channel=1 note=53 velocity=108 time=0
EXTRACT: note_on channel=1 note=62 velocity=90 time=0
EXTRACT: note_on channel=9 note=40 velocity=0 time=0.02868850833333333
EXTRACT: note_on channel=9 note=42 velocity=0 time=0
EXTRACT: note_on channel=0 note=38 velocity=0 time=0.15163925833333333
EXTRACT: note_on channel=9 note=42 velocity=63 time=0.053278658333333326
EXTRACT: note_on channel=5 note=69 velocity=0 time=0.0020491791666666665
EXTRACT: note_on channel=5 note=65 velocity=0 time=0
EXTRACT: note_on channel=5 note=69 velocity=44 time=0.004098358333333333
EXTRACT: note_on channel=5 note=65 velocity=106 time=0
EXTRACT: note_on channel=0 note=41 velocity=111 time=0.0020491791666666665
EXTRACT: note_on channel=9 note=42 velocity=0 time=0.032786866666666664
EXTRACT: note_on channel=2 note=60 velocity=0 time=0.20491791666666664
EXTRACT: note_on channel=2 note=56 velocity=0 time=0
EXTRACT: note_on channel=2 note=53 velocity=0 time=0
EXTRACT: note_on channel=2 note=62 velocity=0 time=0
EXTRACT: note_on channel=9 note=36 velocity=120 time=0
EXTRACT: note_on channel=9 note=42 velocity=58 time=0
EXTRACT: note_on channel=2 note=60 velocity=87 time=0.004098358333333333
EXTRACT: note_on channel=2 note=56 velocity=86 time=0
EXTRACT: note_on channel=2 note=53 velocity=101 time=0
EXTRACT: note_on channel=0 note=41 velocity=0 time=0.004098358333333333
EXTRACT: note_on channel=1 note=60 velocity=0 time=0
EXTRACT: note_on channel=1 note=56 velocity=0 time=0
EXTRACT: note_on channel=1 note=53 velocity=0 time=0
EXTRACT: note_on channel=1 note=62 velocity=0 time=0
EXTRACT: note_on channel=1 note=60 velocity=80 time=0.004098358333333333
EXTRACT: note_on channel=1 note=56 velocity=96 time=0
EXTRACT: note_on channel=1 note=53 velocity=92 time=0
EXTRACT: note_on channel=9 note=36 velocity=0 time=0.02868850833333333
EXTRACT: note_on channel=9 note=42 velocity=0 time=0
EXTRACT: note_on channel=2 note=60 velocity=0 time=0.20491791666666664
EXTRACT: note_on channel=2 note=56 velocity=0 time=0
EXTRACT: note_on channel=2 note=53 velocity=0 time=0
EXTRACT: note_on channel=9 note=40 velocity=110 time=0
EXTRACT: note_on channel=9 note=42 velocity=47 time=0
EXTRACT: note_on channel=5 note=69 velocity=0 time=0.0020491791666666665
EXTRACT: note_on channel=5 note=65 velocity=0 time=0
EXTRACT: note_on channel=2 note=60 velocity=115 time=0.0020491791666666665
EXTRACT: note_on channel=2 note=56 velocity=88 time=0
EXTRACT: note_on channel=2 note=53 velocity=74 time=0
EXTRACT: note_on channel=2 note=62 velocity=95 time=0
EXTRACT: note_on channel=5 note=69 velocity=64 time=0.0020491791666666665
EXTRACT: note_on channel=5 note=65 velocity=114 time=0
EXTRACT: note_on channel=0 note=38 velocity=107 time=0.0020491791666666665
EXTRACT: note_on channel=1 note=60 velocity=0 time=0
EXTRACT: note_on channel=1 note=56 velocity=0 time=0
EXTRACT: note_on channel=1 note=53 velocity=0 time=0
EXTRACT: note_on channel=1 note=60 velocity=102 time=0.004098358333333333
EXTRACT: note_on channel=1 note=56 velocity=82 time=0
EXTRACT: note_on channel=1 note=53 velocity=65 time=0
EXTRACT: note_on channel=1 note=62 velocity=106 time=0
EXTRACT: note_on channel=9 note=40 velocity=0 time=0.02868850833333333
EXTRACT: note_on channel=9 note=42 velocity=0 time=0
EXTRACT: note_on channel=9 note=40 velocity=120 time=0.08196716666666666
EXTRACT: note_on channel=9 note=40 velocity=0 time=0.04098358333333333
EXTRACT: note_on channel=0 note=38 velocity=0 time=0.02868850833333333
EXTRACT: note_on channel=2 note=60 velocity=0 time=0.053278658333333326
EXTRACT: note_on channel=2 note=56 velocity=0 time=0
EXTRACT: note_on channel=2 note=53 velocity=0 time=0
EXTRACT: note_on channel=2 note=62 velocity=0 time=0
EXTRACT: note_on channel=9 note=40 velocity=127 time=0
EXTRACT: note_on channel=9 note=42 velocity=60 time=0
EXTRACT: note_on channel=5 note=69 velocity=0 time=0.0020491791666666665
EXTRACT: note_on channel=5 note=65 velocity=0 time=0
EXTRACT: note_on channel=2 note=60 velocity=106 time=0.0020491791666666665
EXTRACT: note_on channel=2 note=56 velocity=98 time=0
EXTRACT: note_on channel=2 note=53 velocity=95 time=0
EXTRACT: note_on channel=2 note=62 velocity=99 time=0
EXTRACT: note_on channel=5 note=67 velocity=68 time=0.0020491791666666665
EXTRACT: note_on channel=5 note=64 velocity=117 time=0
EXTRACT: note_on channel=0 note=41 velocity=123 time=0.0020491791666666665
EXTRACT: note_on channel=1 note=60 velocity=0 time=0
EXTRACT: note_on channel=1 note=56 velocity=0 time=0
EXTRACT: note_on channel=1 note=53 velocity=0 time=0
EXTRACT: note_on channel=1 note=62 velocity=0 time=0
EXTRACT: note_on channel=1 note=60 velocity=112 time=0.004098358333333333
EXTRACT: note_on channel=1 note=56 velocity=98 time=0
EXTRACT: note_on channel=1 note=53 velocity=109 time=0
EXTRACT: note_on channel=1 note=62 velocity=85 time=0
EXTRACT: note_on channel=9 note=40 velocity=0 time=0.02868850833333333
EXTRACT: note_on channel=9 note=42 velocity=0 time=0
EXTRACT: note_on channel=0 note=41 velocity=0 time=0.15163925833333333
EXTRACT: note_on channel=2 note=60 velocity=0 time=0.053278658333333326
EXTRACT: note_on channel=2 note=56 velocity=0 time=0
EXTRACT: note_on channel=2 note=53 velocity=0 time=0
EXTRACT: note_on channel=2 note=62 velocity=0 time=0
EXTRACT: note_on channel=9 note=40 velocity=100 time=0
EXTRACT: note_on channel=9 note=42 velocity=46 time=0
EXTRACT: note_on channel=2 note=60 velocity=103 time=0.004098358333333333
EXTRACT: note_on channel=2 note=56 velocity=101 time=0
EXTRACT: note_on channel=2 note=53 velocity=115 time=0
EXTRACT: note_on channel=0 note=43 velocity=117 time=0.004098358333333333
EXTRACT: note_on channel=1 note=60 velocity=0 time=0
EXTRACT: note_on channel=1 note=56 velocity=0 time=0
EXTRACT: note_on channel=1 note=53 velocity=0 time=0
EXTRACT: note_on channel=1 note=62 velocity=0 time=0
EXTRACT: note_on channel=1 note=60 velocity=78 time=0.004098358333333333
EXTRACT: note_on channel=1 note=56 velocity=80 time=0
EXTRACT: note_on channel=1 note=53 velocity=114 time=0
EXTRACT: note_on channel=9 note=40 velocity=0 time=0.02868850833333333
EXTRACT: note_on channel=9 note=42 velocity=0 time=0
EXTRACT: note_on channel=9 note=40 velocity=120 time=0.08196716666666666
EXTRACT: note_on channel=9 note=40 velocity=0 time=0.04098358333333333
EXTRACT: note_on channel=0 note=43 velocity=0 time=0.02868850833333333
EXTRACT: note_on channel=2 note=60 velocity=0 time=0.053278658333333326
EXTRACT: note_on channel=2 note=56 velocity=0 time=0
EXTRACT: note_on channel=2 note=53 velocity=0 time=0
EXTRACT: note_on channel=9 note=49 velocity=100 time=0
EXTRACT: note_on channel=9 note=36 velocity=120 time=0
EXTRACT: note_on channel=2 note=59 velocity=86 time=0.004098358333333333
EXTRACT: note_on channel=2 note=62 velocity=104 time=0
EXTRACT: note_on channel=2 note=55 velocity=109 time=0
EXTRACT: note_on channel=2 note=48 velocity=104 time=0
EXTRACT: note_on channel=0 note=36 velocity=109 time=0.004098358333333333
EXTRACT: note_on channel=1 note=60 velocity=0 time=0
EXTRACT: note_on channel=1 note=56 velocity=0 time=0
EXTRACT: note_on channel=1 note=53 velocity=0 time=0
EXTRACT: note_on channel=4 note=74 velocity=0 time=0.0010245895833333333
EXTRACT: note_on channel=4 note=77 velocity=0 time=0
EXTRACT: note_on channel=4 note=80 velocity=0 time=0
EXTRACT: note_on channel=4 note=76 velocity=118 time=0
EXTRACT: note_on channel=4 note=83 velocity=112 time=0
EXTRACT: note_on channel=4 note=79 velocity=117 time=0
EXTRACT: note_on channel=4 note=72 velocity=107 time=0
EXTRACT: note_on channel=1 note=59 velocity=84 time=0.0030737687499999998
EXTRACT: note_on channel=1 note=62 velocity=111 time=0
EXTRACT: note_on channel=1 note=55 velocity=99 time=0
EXTRACT: note_on channel=1 note=48 velocity=79 time=0
EXTRACT: note_on channel=9 note=49 velocity=0 time=0.02868850833333333
EXTRACT: note_on channel=9 note=36 velocity=0 time=0
EXTRACT: note_on channel=9 note=42 velocity=49 time=0.20491791666666664
EXTRACT: note_on channel=0 note=36 velocity=0 time=0.008196716666666666
EXTRACT: note_on channel=9 note=42 velocity=0 time=0.032786866666666664
EXTRACT: note_on channel=2 note=59 velocity=0 time=0.20491791666666664
EXTRACT: note_on channel=2 note=62 velocity=0 time=0
EXTRACT: note_on channel=2 note=55 velocity=0 time=0
EXTRACT: note_on channel=2 note=48 velocity=0 time=0
EXTRACT: note_on channel=9 note=40 velocity=127 time=0
EXTRACT: note_on channel=9 note=42 velocity=57 time=0
EXTRACT: note_on channel=2 note=59 velocity=117 time=0.004098358333333333
EXTRACT: note_on channel=2 note=62 velocity=107 time=0
EXTRACT: note_on channel=2 note=55 velocity=107 time=0
EXTRACT: note_on channel=2 note=48 velocity=95 time=0
EXTRACT: note_on channel=0 note=36 velocity=111 time=0.004098358333333333
EXTRACT: note_on channel=1 note=59 velocity=0 time=0
EXTRACT: note_on channel=1 note=62 velocity=0 time=0
EXTRACT: note_on channel=1 note=55 velocity=0 time=0
EXTRACT: note_on channel=1 note=48 velocity=0 time=0
EXTRACT: note_on channel=1 note=59 velocity=80 time=0.004098358333333333
EXTRACT: note_on channel=1 note=62 velocity=93 time=0
EXTRACT: note_on channel=1 note=55 velocity=92 time=0
EXTRACT: note_on channel=1 note=48 velocity=79 time=0
EXTRACT: note_on channel=9 note=40 velocity=0 time=0.02868850833333333
EXTRACT: note_on channel=9 note=42 velocity=0 time=0
EXTRACT: note_on channel=0 note=36 velocity=0 time=0.15163925833333333
EXTRACT: note_on channel=9 note=42 velocity=68 time=0.053278658333333326
EXTRACT: note_on channel=0 note=36 velocity=112 time=0.008196716666666666
EXTRACT: note_on channel=9 note=42 velocity=0 time=0.032786866666666664
EXTRACT: note_on channel=0 note=36 velocity=0 time=0.15163925833333333
EXTRACT: note_on channel=2 note=59 velocity=0 time=0.053278658333333326
EXTRACT: note_on channel=2 note=62 velocity=0 time=0
EXTRACT: note_on channel=2 note=55 velocity=0 time=0
EXTRACT: note_on channel=2 note=48 velocity=0 time=0
EXTRACT: note_on channel=9 note=36 velocity=120 time=0
EXTRACT: note_on channel=9 note=42 velocity=61 time=0
EXTRACT: note_on channel=2 note=59 velocity=93 time=0.004098358333333333
EXTRACT: note_on channel=2 note=62 velocity=86 time=0
EXTRACT: note_on channel=2 note=55 velocity=115 time=0
EXTRACT: note_on channel=0 note=36 velocity=122 time=0.004098358333333333
EXTRACT: note_on channel=1 note=59 velocity=0 time=0
EXTRACT: note_on channel=1 note=62 velocity=0 time=0
EXTRACT: note_on channel=1 note=55 velocity=0 time=0
EXTRACT: note_on channel=1 note=48 velocity=0 time=0
EXTRACT: note_on channel=1 note=59 velocity=97 time=0.004098358333333333
EXTRACT: note_on channel=1 note=62 velocity=92 time=0
EXTRACT: note_on channel=1 note=55 velocity=96 time=0
EXTRACT: note_on channel=9 note=36 velocity=0 time=0.02868850833333333
EXTRACT: note_on channel=9 note=42 velocity=0 time=0
EXTRACT: note_on channel=0 note=36 velocity=0 time=0.15163925833333333
EXTRACT: note_on channel=2 note=59 velocity=0 time=0.053278658333333326
EXTRACT: note_on channel=2 note=62 velocity=0 time=0
EXTRACT: note_on channel=2 note=55 velocity=0 time=0
EXTRACT: note_on channel=9 note=36 velocity=110 time=0
EXTRACT: note_on channel=9 note=42 velocity=44 time=0
EXTRACT: note_on channel=2 note=59 velocity=83 time=0.004098358333333333
EXTRACT: note_on channel=2 note=62 velocity=99 time=0
EXTRACT: note_on channel=2 note=55 velocity=100 time=0
EXTRACT: note_on channel=2 note=48 velocity=114 time=0
EXTRACT: note_on channel=0 note=36 velocity=115 time=0.004098358333333333
EXTRACT: note_on channel=1 note=59 velocity=0 time=0
EXTRACT: note_on channel=1 note=62 velocity=0 time=0
EXTRACT: note_on channel=1 note=55 velocity=0 time=0
EXTRACT: note_on channel=1 note=59 velocity=68 time=0.004098358333333333
EXTRACT: note_on channel=1 note=62 velocity=117 time=0
EXTRACT: note_on channel=1 note=55 velocity=74 time=0
EXTRACT: note_on channel=1 note=48 velocity=89 time=0
EXTRACT: note_on channel=9 note=36 velocity=0 time=0.02868850833333333
EXTRACT: note_on channel=9 note=42 velocity=0 time=0
EXTRACT: note_on channel=0 note=36 velocity=0 time=0.15163925833333333
EXTRACT: note_on channel=2 note=59 velocity=0 time=0.053278658333333326
EXTRACT: note_on channel=2 note=62 velocity=0 time=0
EXTRACT: note_on channel=2 note=55 velocity=0 time=0
EXTRACT: note_on channel=2 note=48 velocity=0 time=0
EXTRACT: note_on channel=9 note=40 velocity=127 time=0
EXTRACT: note_on channel=9 note=42 velocity=58 time=0
EXTRACT: note_on channel=2 note=59 velocity=112 time=0.004098358333333333
EXTRACT: note_on channel=2 note=62 velocity=96 time=0
EXTRACT: note_on channel=2 note=55 velocity=89 time=0
EXTRACT: note_on channel=2 note=48 velocity=103 time=0
EXTRACT: pitchwheel channel=0 pitch=0 time=0.004098358333333333
EXTRACT: note_on channel=0 note=36 velocity=117 time=0
EXTRACT: note_on channel=1 note=59 velocity=0 time=0
EXTRACT: note_on channel=1 note=62 velocity=0 time=0
EXTRACT: note_on channel=1 note=55 velocity=0 time=0
EXTRACT: note_on channel=1 note=48 velocity=0 time=0
EXTRACT: pitchwheel channel=0 pitch=80 time=0.004098358333333333
EXTRACT: note_on channel=1 note=59 velocity=94 time=0
EXTRACT: note_on channel=1 note=62 velocity=94 time=0
EXTRACT: note_on channel=1 note=55 velocity=79 time=0
EXTRACT: note_on channel=1 note=48 velocity=97 time=0
EXTRACT: pitchwheel channel=0 pitch=159 time=0.004098358333333333
EXTRACT: pitchwheel channel=0 pitch=239 time=0.004098358333333333
EXTRACT: pitchwheel channel=0 pitch=319 time=0.004098358333333333
EXTRACT: pitchwheel channel=0 pitch=398 time=0.004098358333333333
EXTRACT: pitchwheel channel=0 pitch=478 time=0.004098358333333333
EXTRACT: pitchwheel channel=0 pitch=558 time=0.004098358333333333
EXTRACT: pitchwheel channel=0 pitch=637 time=0.004098358333333333
EXTRACT: note_on channel=9 note=40 velocity=0 time=0
EXTRACT: note_on channel=9 note=42 velocity=0 time=0
EXTRACT: pitchwheel channel=0 pitch=717 time=0.004098358333333333
EXTRACT: pitchwheel channel=0 pitch=797 time=0.004098358333333333
EXTRACT: pitchwheel channel=0 pitch=876 time=0.004098358333333333
EXTRACT: pitchwheel channel=0 pitch=956 time=0.004098358333333333
EXTRACT: pitchwheel channel=0 pitch=1035 time=0.004098358333333333
EXTRACT: pitchwheel channel=0 pitch=1115 time=0.004098358333333333
EXTRACT: pitchwheel channel=0 pitch=1195 time=0.004098358333333333
EXTRACT: pitchwheel channel=0 pitch=1274 time=0.004098358333333333
EXTRACT: pitchwheel channel=0 pitch=1354 time=0.004098358333333333
EXTRACT: pitchwheel channel=0 pitch=1434 time=0.004098358333333333
EXTRACT: pitchwheel channel=0 pitch=1513 time=0.004098358333333333
EXTRACT: pitchwheel channel=0 pitch=1593 time=0.004098358333333333
EXTRACT: pitchwheel channel=0 pitch=1673 time=0.004098358333333333
EXTRACT: pitchwheel channel=0 pitch=1752 time=0.004098358333333333
EXTRACT: pitchwheel channel=0 pitch=1832 time=0.004098358333333333
EXTRACT: pitchwheel channel=0 pitch=1912 time=0.004098358333333333
EXTRACT: pitchwheel channel=0 pitch=1991 time=0.004098358333333333
EXTRACT: pitchwheel channel=0 pitch=2071 time=0.004098358333333333
EXTRACT: pitchwheel channel=0 pitch=2151 time=0.004098358333333333
EXTRACT: pitchwheel channel=0 pitch=2230 time=0.004098358333333333
EXTRACT: pitchwheel channel=0 pitch=2310 time=0.004098358333333333
EXTRACT: pitchwheel channel=0 pitch=2390 time=0.004098358333333333
EXTRACT: pitchwheel channel=0 pitch=2469 time=0.004098358333333333
EXTRACT: pitchwheel channel=0 pitch=2549 time=0.004098358333333333
EXTRACT: pitchwheel channel=0 pitch=2628 time=0.004098358333333333
EXTRACT: pitchwheel channel=0 pitch=2708 time=0.004098358333333333
EXTRACT: pitchwheel channel=0 pitch=2788 time=0.004098358333333333
EXTRACT: pitchwheel channel=0 pitch=2867 time=0.004098358333333333
EXTRACT: pitchwheel channel=0 pitch=2947 time=0.004098358333333333
EXTRACT: pitchwheel channel=0 pitch=3027 time=0.004098358333333333
EXTRACT: pitchwheel channel=0 pitch=3106 time=0.004098358333333333
EXTRACT: pitchwheel channel=0 pitch=3186 time=0.004098358333333333
EXTRACT: pitchwheel channel=0 pitch=3266 time=0.004098358333333333
EXTRACT: pitchwheel channel=0 pitch=3345 time=0.004098358333333333
EXTRACT: pitchwheel channel=0 pitch=3425 time=0.004098358333333333
EXTRACT: pitchwheel channel=0 pitch=3505 time=0.004098358333333333
EXTRACT: pitchwheel channel=0 pitch=3584 time=0.004098358333333333
EXTRACT: pitchwheel channel=0 pitch=3664 time=0.004098358333333333
EXTRACT: pitchwheel channel=0 pitch=3744 time=0.004098358333333333
EXTRACT: pitchwheel channel=0 pitch=3823 time=0.004098358333333333
EXTRACT: pitchwheel channel=0 pitch=3903 time=0.004098358333333333
EXTRACT: pitchwheel channel=0 pitch=3983 time=0.004098358333333333
EXTRACT: pitchwheel channel=0 pitch=4062 time=0.004098358333333333
EXTRACT: pitchwheel channel=0 pitch=4142 time=0.004098358333333333
EXTRACT: pitchwheel channel=0 pitch=4221 time=0.004098358333333333
EXTRACT: pitchwheel channel=0 pitch=4301 time=0.004098358333333333
EXTRACT: pitchwheel channel=0 pitch=4381 time=0.004098358333333333
EXTRACT: pitchwheel channel=0 pitch=4460 time=0.004098358333333333
EXTRACT: pitchwheel channel=0 pitch=4540 time=0.004098358333333333
EXTRACT: pitchwheel channel=0 pitch=4620 time=0.004098358333333333
EXTRACT: note_on channel=2 note=59 velocity=0 time=0
EXTRACT: note_on channel=2 note=62 velocity=0 time=0
EXTRACT: note_on channel=2 note=55 velocity=0 time=0
EXTRACT: note_on channel=2 note=48 velocity=0 time=0
EXTRACT: note_on channel=9 note=36 velocity=110 time=0
EXTRACT: note_on channel=9 note=42 velocity=41 time=0
EXTRACT: pitchwheel channel=0 pitch=4699 time=0.004098358333333333
EXTRACT: note_on channel=2 note=59 velocity=75 time=0
EXTRACT: note_on channel=2 note=62 velocity=108 time=0
EXTRACT: note_on channel=2 note=55 velocity=89 time=0
EXTRACT: pitchwheel channel=0 pitch=4779 time=0.004098358333333333
EXTRACT: note_on channel=1 note=59 velocity=0 time=0
EXTRACT: note_on channel=1 note=62 velocity=0 time=0
EXTRACT: note_on channel=1 note=55 velocity=0 time=0
EXTRACT: note_on channel=1 note=48 velocity=0 time=0
EXTRACT: note_on channel=1 note=59 velocity=73 time=0.004098358333333333
EXTRACT: note_on channel=1 note=62 velocity=110 time=0
EXTRACT: note_on channel=1 note=55 velocity=70 time=0
EXTRACT: note_on channel=9 note=36 velocity=0 time=0.02868850833333333
EXTRACT: note_on channel=9 note=42 velocity=0 time=0
EXTRACT: note_on channel=9 note=42 velocity=65 time=0.20491791666666664
EXTRACT: note_on channel=5 note=67 velocity=0 time=0.0061475374999999995
EXTRACT: note_on channel=5 note=64 velocity=0 time=0
EXTRACT: note_on channel=0 note=36 velocity=0 time=0.0020491791666666665
EXTRACT: note_on channel=9 note=42 velocity=0 time=0.032786866666666664
EXTRACT: note_on channel=2 note=59 velocity=0 time=0.20491791666666664
EXTRACT: note_on channel=2 note=62 velocity=0 time=0
EXTRACT: note_on channel=2 note=55 velocity=0 time=0
EXTRACT: note_on channel=9 note=36 velocity=120 time=0
EXTRACT: note_on channel=9 note=42 velocity=49 time=0
EXTRACT: note_on channel=2 note=59 velocity=95 time=0.004098358333333333
EXTRACT: note_on channel=2 note=64 velocity=83 time=0
EXTRACT: note_on channel=2 note=55 velocity=94 time=0
EXTRACT: pitchwheel channel=0 pitch=0 time=0.004098358333333333
EXTRACT: note_on channel=0 note=47 velocity=102 time=0
EXTRACT: note_on channel=1 note=59 velocity=0 time=0
EXTRACT: note_on channel=1 note=62 velocity=0 time=0
EXTRACT: note_on channel=1 note=55 velocity=0 time=0
EXTRACT: note_on channel=1 note=59 velocity=79 time=0.004098358333333333
EXTRACT: note_on channel=1 note=64 velocity=85 time=0
EXTRACT: note_on channel=1 note=55 velocity=96 time=0
EXTRACT: note_on channel=9 note=36 velocity=0 time=0.02868850833333333
EXTRACT: note_on channel=9 note=42 velocity=0 time=0
EXTRACT: note_on channel=0 note=47 velocity=0 time=0.15163925833333333
EXTRACT: note_on channel=2 note=59 velocity=0 time=0.053278658333333326
EXTRACT: note_on channel=2 note=64 velocity=0 time=0
EXTRACT: note_on channel=2 note=55 velocity=0 time=0
EXTRACT: note_on channel=9 note=40 velocity=127 time=0
EXTRACT: note_on channel=9 note=42 velocity=67 time=0
EXTRACT: note_on channel=2 note=59 velocity=86 time=0.004098358333333333
EXTRACT: note_on channel=2 note=64 velocity=107 time=0
EXTRACT: note_on channel=2 note=55 velocity=90 time=0
EXTRACT: note_on channel=2 note=48 velocity=91 time=0
EXTRACT: note_on channel=0 note=43 velocity=103 time=0.004098358333333333
EXTRACT: note_on channel=1 note=59 velocity=0 time=0
EXTRACT: note_on channel=1 note=64 velocity=0 time=0
EXTRACT: note_on channel=1 note=55 velocity=0 time=0
EXTRACT: note_on channel=1 note=59 velocity=98 time=0.004098358333333333
EXTRACT: note_on channel=1 note=64 velocity=117 time=0
EXTRACT: note_on channel=1 note=55 velocity=111 time=0
EXTRACT: note_on channel=1 note=48 velocity=115 time=0
EXTRACT: note_on channel=9 note=40 velocity=0 time=0.02868850833333333
EXTRACT: note_on channel=9 note=42 velocity=0 time=0
EXTRACT: note_on channel=2 note=59 velocity=0 time=0.20491791666666664
EXTRACT: note_on channel=2 note=64 velocity=0 time=0
EXTRACT: note_on channel=2 note=55 velocity=0 time=0
EXTRACT: note_on channel=2 note=48 velocity=0 time=0
EXTRACT: note_on channel=9 note=42 velocity=64 time=0
EXTRACT: note_on channel=2 note=59 velocity=89 time=0.004098358333333333
EXTRACT: note_on channel=2 note=64 velocity=66 time=0
EXTRACT: note_on channel=2 note=55 velocity=112 time=0
EXTRACT: note_on channel=0 note=43 velocity=0 time=0.004098358333333333
EXTRACT: note_on channel=1 note=59 velocity=0 time=0
EXTRACT: note_on channel=1 note=64 velocity=0 time=0
EXTRACT: note_on channel=1 note=55 velocity=0 time=0
EXTRACT: note_on channel=1 note=48 velocity=0 time=0
EXTRACT: note_on channel=1 note=59 velocity=65 time=0.004098358333333333
EXTRACT: note_on channel=1 note=64 velocity=106 time=0
EXTRACT: note_on channel=1 note=55 velocity=97 time=0
EXTRACT: note_on channel=9 note=42 velocity=0 time=0.02868850833333333
EXTRACT: note_on channel=2 note=59 velocity=0 time=0.20491791666666664
EXTRACT: note_on channel=2 note=64 velocity=0 time=0
EXTRACT: note_on channel=2 note=55 velocity=0 time=0
EXTRACT: note_on channel=9 note=36 velocity=120 time=0
EXTRACT: note_on channel=9 note=42 velocity=65 time=0
EXTRACT: note_on channel=2 note=59 velocity=117 time=0.004098358333333333
EXTRACT: note_on channel=2 note=64 velocity=101 time=0
EXTRACT: note_on channel=2 note=55 velocity=116 time=0
EXTRACT: note_on channel=2 note=48 velocity=96 time=0
EXTRACT: note_on channel=0 note=47 velocity=103 time=0.004098358333333333
EXTRACT: note_on channel=1 note=59 velocity=0 time=0
EXTRACT: note_on channel=1 note=64 velocity=0 time=0
EXTRACT: note_on channel=1 note=55 velocity=0 time=0
EXTRACT: note_on channel=1 note=59 velocity=108 time=0.004098358333333333
EXTRACT: note_on channel=1 note=64 velocity=81 time=0
EXTRACT: note_on channel=1 note=55 velocity=89 time=0
EXTRACT: note_on channel=1 note=48 velocity=100 time=0
EXTRACT: note_on channel=9 note=36 velocity=0 time=0.02868850833333333
EXTRACT: note_on channel=9 note=42 velocity=0 time=0
EXTRACT: note_on channel=0 note=47 velocity=0 time=0.15163925833333333
EXTRACT: note_on channel=2 note=59 velocity=0 time=0.053278658333333326
EXTRACT: note_on channel=2 note=64 velocity=0 time=0
EXTRACT: note_on channel=2 note=55 velocity=0 time=0
EXTRACT: note_on channel=2 note=48 velocity=0 time=0
EXTRACT: note_on channel=9 note=40 velocity=127 time=0
EXTRACT: note_on channel=9 note=42 velocity=49 time=0
EXTRACT: note_on channel=2 note=59 velocity=89 time=0.004098358333333333
EXTRACT: note_on channel=2 note=64 velocity=68 time=0
EXTRACT: note_on channel=2 note=55 velocity=112 time=0
EXTRACT: note_on channel=0 note=43 velocity=115 time=0.004098358333333333
EXTRACT: note_on channel=1 note=59 velocity=0 time=0
EXTRACT: note_on channel=1 note=64 velocity=0 time=0
EXTRACT: note_on channel=1 note=55 velocity=0 time=0
EXTRACT: note_on channel=1 note=48 velocity=0 time=0
EXTRACT: note_on channel=1 note=59 velocity=79 time=0.004098358333333333
EXTRACT: note_on channel=1 note=64 velocity=108 time=0
EXTRACT: note_on channel=1 note=55 velocity=64 time=0
EXTRACT: note_on channel=9 note=40 velocity=0 time=0.02868850833333333
EXTRACT: note_on channel=9 note=42 velocity=0 time=0
EXTRACT: note_on channel=2 note=59 velocity=0 time=0.20491791666666664
EXTRACT: note_on channel=2 note=64 velocity=0 time=0
EXTRACT: note_on channel=2 note=55 velocity=0 time=0
EXTRACT: note_on channel=9 note=40 velocity=127 time=0
EXTRACT: note_on channel=9 note=42 velocity=52 time=0
EXTRACT: note_on channel=2 note=59 velocity=105 time=0.004098358333333333
EXTRACT: note_on channel=2 note=64 velocity=106 time=0
EXTRACT: note_on channel=2 note=55 velocity=93 time=0
EXTRACT: note_on channel=2 note=48 velocity=102 time=0
EXTRACT: note_on channel=1 note=59 velocity=0 time=0.004098358333333333
EXTRACT: note_on channel=1 note=64 velocity=0 time=0
EXTRACT: note_on channel=1 note=55 velocity=0 time=0
EXTRACT: note_on channel=1 note=59 velocity=104 time=0.004098358333333333
EXTRACT: note_on channel=1 note=64 velocity=92 time=0
EXTRACT: note_on channel=1 note=55 velocity=115 time=0
EXTRACT: note_on channel=1 note=48 velocity=115 time=0
EXTRACT: note_on channel=9 note=40 velocity=0 time=0.02868850833333333
EXTRACT: note_on channel=9 note=42 velocity=0 time=0
EXTRACT: note_on channel=2 note=59 velocity=0 time=0.20491791666666664
EXTRACT: note_on channel=2 note=64 velocity=0 time=0
EXTRACT: note_on channel=2 note=55 velocity=0 time=0
EXTRACT: note_on channel=2 note=48 velocity=0 time=0
EXTRACT: note_on channel=9 note=40 velocity=127 time=0
EXTRACT: note_on channel=9 note=42 velocity=47 time=0
EXTRACT: note_on channel=2 note=59 velocity=111 time=0.004098358333333333
EXTRACT: note_on channel=2 note=64 velocity=102 time=0
EXTRACT: note_on channel=2 note=55 velocity=84 time=0
EXTRACT: pitchwheel channel=0 pitch=0 time=0.004098358333333333
EXTRACT: note_on channel=1 note=59 velocity=0 time=0
EXTRACT: note_on channel=1 note=64 velocity=0 time=0
EXTRACT: note_on channel=1 note=55 velocity=0 time=0
EXTRACT: note_on channel=1 note=48 velocity=0 time=0
EXTRACT: pitchwheel channel=0 pitch=-159 time=0.004098358333333333
EXTRACT: note_on channel=1 note=59 velocity=61 time=0
EXTRACT: note_on channel=1 note=64 velocity=99 time=0
EXTRACT: note_on channel=1 note=55 velocity=65 time=0
EXTRACT: pitchwheel channel=0 pitch=-319 time=0.004098358333333333
EXTRACT: pitchwheel channel=0 pitch=-478 time=0.004098358333333333
EXTRACT: pitchwheel channel=0 pitch=-637 time=0.004098358333333333
EXTRACT: pitchwheel channel=0 pitch=-797 time=0.004098358333333333
EXTRACT: pitchwheel channel=0 pitch=-956 time=0.004098358333333333
EXTRACT: pitchwheel channel=0 pitch=-1115 time=0.004098358333333333
EXTRACT: pitchwheel channel=0 pitch=-1274 time=0.004098358333333333
EXTRACT: note_on channel=9 note=40 velocity=0 time=0
EXTRACT: note_on channel=9 note=42 velocity=0 time=0
EXTRACT: pitchwheel channel=0 pitch=-1434 time=0.004098358333333333
EXTRACT: pitchwheel channel=0 pitch=-1593 time=0.004098358333333333
EXTRACT: pitchwheel channel=0 pitch=-1752 time=0.004098358333333333
EXTRACT: pitchwheel channel=0 pitch=-1912 time=0.004098358333333333
EXTRACT: pitchwheel channel=0 pitch=-2071 time=0.004098358333333333
EXTRACT: pitchwheel channel=0 pitch=-2230 time=0.004098358333333333
EXTRACT: pitchwheel channel=0 pitch=-2390 time=0.004098358333333333
EXTRACT: pitchwheel channel=0 pitch=-2549 time=0.004098358333333333
EXTRACT: pitchwheel channel=0 pitch=-2708 time=0.004098358333333333
EXTRACT: pitchwheel channel=0 pitch=-2867 time=0.004098358333333333
EXTRACT: pitchwheel channel=0 pitch=-3027 time=0.004098358333333333
EXTRACT: pitchwheel channel=0 pitch=-3186 time=0.004098358333333333
EXTRACT: pitchwheel channel=0 pitch=-3345 time=0.004098358333333333
EXTRACT: pitchwheel channel=0 pitch=-3505 time=0.004098358333333333
EXTRACT: pitchwheel channel=0 pitch=-3664 time=0.004098358333333333
EXTRACT: pitchwheel channel=0 pitch=-3823 time=0.004098358333333333
EXTRACT: pitchwheel channel=0 pitch=-3983 time=0.004098358333333333
EXTRACT: pitchwheel channel=0 pitch=-4142 time=0.004098358333333333
EXTRACT: pitchwheel channel=0 pitch=-4301 time=0.004098358333333333
EXTRACT: pitchwheel channel=0 pitch=-4460 time=0.004098358333333333
EXTRACT: pitchwheel channel=0 pitch=-4620 time=0.004098358333333333
EXTRACT: note_on channel=0 note=43 velocity=0 time=0.004098358333333333
EXTRACT: pitchwheel channel=0 pitch=-4779 time=0
EXTRACT: note_on channel=2 note=59 velocity=0 time=0.11475403333333332
EXTRACT: note_on channel=2 note=64 velocity=0 time=0
EXTRACT: note_on channel=2 note=55 velocity=0 time=0
EXTRACT: note_on channel=9 note=36 velocity=60 time=0
EXTRACT: note_on channel=2 note=64 velocity=89 time=0.004098358333333333
EXTRACT: note_on channel=2 note=62 velocity=89 time=0
EXTRACT: note_on channel=2 note=57 velocity=104 time=0
EXTRACT: note_on channel=2 note=50 velocity=117 time=0
EXTRACT: note_on channel=1 note=59 velocity=0 time=0.004098358333333333
EXTRACT: note_on channel=1 note=64 velocity=0 time=0
EXTRACT: note_on channel=1 note=55 velocity=0 time=0
EXTRACT: note_on channel=4 note=76 velocity=0 time=0.0010245895833333333
EXTRACT: note_on channel=4 note=83 velocity=0 time=0
EXTRACT: note_on channel=4 note=79 velocity=0 time=0
EXTRACT: note_on channel=4 note=72 velocity=0 time=0
EXTRACT: note_on channel=4 note=76 velocity=93 time=0
EXTRACT: note_on channel=4 note=69 velocity=104 time=0
EXTRACT: note_on channel=4 note=74 velocity=118 time=0
EXTRACT: note_on channel=1 note=64 velocity=96 time=0.0030737687499999998
EXTRACT: note_on channel=1 note=62 velocity=101 time=0
EXTRACT: note_on channel=1 note=57 velocity=115 time=0
EXTRACT: note_on channel=1 note=50 velocity=90 time=0
EXTRACT: note_on channel=9 note=36 velocity=0 time=0.02868850833333333
EXTRACT: note_on channel=2 note=64 velocity=0 time=0.45081941666666664
EXTRACT: note_on channel=2 note=62 velocity=0 time=0
EXTRACT: note_on channel=2 note=57 velocity=0 time=0
EXTRACT: note_on channel=2 note=50 velocity=0 time=0
EXTRACT: note_on channel=9 note=40 velocity=72 time=0
EXTRACT: note_on channel=9 note=28 velocity=72 time=0
EXTRACT: note_on channel=2 note=64 velocity=105 time=0.004098358333333333
EXTRACT: note_on channel=2 note=62 velocity=95 time=0
EXTRACT: note_on channel=2 note=57 velocity=85 time=0
EXTRACT: note_on channel=2 note=50 velocity=111 time=0
EXTRACT: note_on channel=1 note=64 velocity=0 time=0.004098358333333333
EXTRACT: note_on channel=1 note=62 velocity=0 time=0
EXTRACT: note_on channel=1 note=57 velocity=0 time=0
EXTRACT: note_on channel=1 note=50 velocity=0 time=0
EXTRACT: note_on channel=1 note=64 velocity=105 time=0.004098358333333333
EXTRACT: note_on channel=1 note=62 velocity=88 time=0
EXTRACT: note_on channel=1 note=57 velocity=98 time=0
EXTRACT: note_on channel=1 note=50 velocity=106 time=0
EXTRACT: note_on channel=9 note=40 velocity=0 time=0.02868850833333333
EXTRACT: note_on channel=9 note=28 velocity=0 time=0
EXTRACT: note_on channel=2 note=64 velocity=0 time=0.45081941666666664
EXTRACT: note_on channel=2 note=62 velocity=0 time=0
EXTRACT: note_on channel=2 note=57 velocity=0 time=0
EXTRACT: note_on channel=2 note=50 velocity=0 time=0
EXTRACT: note_on channel=9 note=36 velocity=60 time=0
EXTRACT: note_on channel=2 note=64 velocity=98 time=0.004098358333333333
EXTRACT: note_on channel=2 note=62 velocity=95 time=0
EXTRACT: note_on channel=2 note=57 velocity=89 time=0
EXTRACT: note_on channel=2 note=50 velocity=99 time=0
EXTRACT: note_on channel=5 note=69 velocity=112 time=0.0020491791666666665
EXTRACT: note_on channel=1 note=64 velocity=0 time=0.0020491791666666665
EXTRACT: note_on channel=1 note=62 velocity=0 time=0
EXTRACT: note_on channel=1 note=57 velocity=0 time=0
EXTRACT: note_on channel=1 note=50 velocity=0 time=0
EXTRACT: note_on channel=1 note=64 velocity=88 time=0.004098358333333333
EXTRACT: note_on channel=1 note=62 velocity=111 time=0
EXTRACT: note_on channel=1 note=57 velocity=90 time=0
EXTRACT: note_on channel=1 note=50 velocity=94 time=0
EXTRACT: note_on channel=9 note=36 velocity=0 time=0.02868850833333333
EXTRACT: note_on channel=2 note=64 velocity=0 time=0.20491791666666664
EXTRACT: note_on channel=2 note=62 velocity=0 time=0
EXTRACT: note_on channel=2 note=57 velocity=0 time=0
EXTRACT: note_on channel=2 note=50 velocity=0 time=0
EXTRACT: note_on channel=9 note=36 velocity=60 time=0
EXTRACT: note_on channel=5 note=69 velocity=0 time=0.0020491791666666665
EXTRACT: note_on channel=2 note=64 velocity=73 time=0.0020491791666666665
EXTRACT: note_on channel=2 note=62 velocity=114 time=0
EXTRACT: note_on channel=2 note=57 velocity=71 time=0
EXTRACT: note_on channel=5 note=60 velocity=100 time=0.0020491791666666665
EXTRACT: note_on channel=1 note=64 velocity=0 time=0.0020491791666666665
EXTRACT: note_on channel=1 note=62 velocity=0 time=0
EXTRACT: note_on channel=1 note=57 velocity=0 time=0
EXTRACT: note_on channel=1 note=50 velocity=0 time=0
EXTRACT: note_on channel=1 note=64 velocity=116 time=0.004098358333333333
EXTRACT: note_on channel=1 note=62 velocity=65 time=0
EXTRACT: note_on channel=1 note=57 velocity=66 time=0
EXTRACT: note_on channel=9 note=36 velocity=0 time=0.02868850833333333
EXTRACT: note_on channel=2 note=64 velocity=0 time=0.20491791666666664
EXTRACT: note_on channel=2 note=62 velocity=0 time=0
EXTRACT: note_on channel=2 note=57 velocity=0 time=0
EXTRACT: note_on channel=9 note=40 velocity=72 time=0
EXTRACT: note_on channel=9 note=28 velocity=72 time=0
EXTRACT: note_on channel=2 note=64 velocity=93 time=0.004098358333333333
EXTRACT: note_on channel=2 note=62 velocity=104 time=0
EXTRACT: note_on channel=2 note=57 velocity=90 time=0
EXTRACT: note_on channel=2 note=50 velocity=110 time=0
EXTRACT: note_on channel=1 note=64 velocity=0 time=0.004098358333333333
EXTRACT: note_on channel=1 note=62 velocity=0 time=0
EXTRACT: note_on channel=1 note=57 velocity=0 time=0
EXTRACT: note_on channel=1 note=64 velocity=83 time=0.004098358333333333
EXTRACT: note_on channel=1 note=62 velocity=109 time=0
EXTRACT: note_on channel=1 note=57 velocity=113 time=0
EXTRACT: note_on channel=1 note=50 velocity=96 time=0
EXTRACT: note_on channel=9 note=40 velocity=0 time=0.02868850833333333
EXTRACT: note_on channel=9 note=28 velocity=0 time=0
EXTRACT: note_on channel=2 note=64 velocity=0 time=0.20491791666666664
EXTRACT: note_on channel=2 note=62 velocity=0 time=0
EXTRACT: note_on channel=2 note=57 velocity=0 time=0
EXTRACT: note_on channel=2 note=50 velocity=0 time=0
EXTRACT: note_on channel=5 note=60 velocity=0 time=0.0020491791666666665
EXTRACT: note_on channel=2 note=64 velocity=70 time=0.0020491791666666665
EXTRACT: note_on channel=2 note=62 velocity=100 time=0
EXTRACT: note_on channel=2 note=57 velocity=65 time=0
EXTRACT: note_on channel=5 note=62 velocity=116 time=0.0020491791666666665
EXTRACT: note_on channel=1 note=64 velocity=0 time=0.0020491791666666665
EXTRACT: note_on channel=1 note=62 velocity=0 time=0
EXTRACT: note_on channel=1 note=57 velocity=0 time=0
EXTRACT: note_on channel=1 note=50 velocity=0 time=0
EXTRACT: note_on channel=1 note=64 velocity=73 time=0.004098358333333333
EXTRACT: note_on channel=1 note=62 velocity=107 time=0
EXTRACT: note_on channel=1 note=57 velocity=72 time=0
EXTRACT: note_on channel=9 note=36 velocity=60 time=0.23360642499999998
EXTRACT: note_on channel=5 note=62 velocity=0 time=0.0061475374999999995
EXTRACT: note_on channel=4 note=76 velocity=0 time=0.0030737687499999998
EXTRACT: note_on channel=4 note=77 velocity=106 time=0
EXTRACT: note_on channel=9 note=36 velocity=0 time=0.03176227708333333
EXTRACT: note_on channel=2 note=64 velocity=0 time=0.20491791666666664
EXTRACT: note_on channel=2 note=62 velocity=0 time=0
EXTRACT: note_on channel=2 note=57 velocity=0 time=0
EXTRACT: note_on channel=2 note=65 velocity=88 time=0.004098358333333333
EXTRACT: note_on channel=2 note=62 velocity=109 time=0
EXTRACT: note_on channel=2 note=57 velocity=103 time=0
EXTRACT: note_on channel=1 note=64 velocity=0 time=0.004098358333333333
EXTRACT: note_on channel=1 note=62 velocity=0 time=0
EXTRACT: note_on channel=1 note=57 velocity=0 time=0
EXTRACT: note_on channel=1 note=65 velocity=81 time=0.004098358333333333
EXTRACT: note_on channel=1 note=62 velocity=113 time=0
EXTRACT: note_on channel=1 note=57 velocity=94 time=0
EXTRACT: note_on channel=2 note=65 velocity=0 time=0.23360642499999998
EXTRACT: note_on channel=2 note=62 velocity=0 time=0
EXTRACT: note_on channel=2 note=57 velocity=0 time=0
EXTRACT: note_on channel=9 note=40 velocity=72 time=0
EXTRACT: note_on channel=9 note=28 velocity=72 time=0
EXTRACT: note_on channel=2 note=65 velocity=92 time=0.004098358333333333
EXTRACT: note_on channel=2 note=62 velocity=110 time=0
EXTRACT: note_on channel=2 note=57 velocity=110 time=0
EXTRACT: note_on channel=1 note=65 velocity=0 time=0.004098358333333333
EXTRACT: note_on channel=1 note=62 velocity=0 time=0
EXTRACT: note_on channel=1 note=57 velocity=0 time=0
EXTRACT: note_on channel=1 note=65 velocity=109 time=0.004098358333333333
EXTRACT: note_on channel=1 note=62 velocity=86 time=0
EXTRACT: note_on channel=1 note=57 velocity=81 time=0
EXTRACT: note_on channel=9 note=40 velocity=0 time=0.02868850833333333
EXTRACT: note_on channel=9 note=28 velocity=0 time=0
EXTRACT: note_on channel=2 note=65 velocity=0 time=0.20491791666666664
EXTRACT: note_on channel=2 note=62 velocity=0 time=0
EXTRACT: note_on channel=2 note=57 velocity=0 time=0
EXTRACT: note_on channel=2 note=65 velocity=68 time=0.004098358333333333
EXTRACT: note_on channel=2 note=62 velocity=97 time=0
EXTRACT: note_on channel=2 note=57 velocity=105 time=0
EXTRACT: note_on channel=2 note=50 velocity=100 time=0
EXTRACT: note_on channel=1 note=65 velocity=0 time=0.004098358333333333
EXTRACT: note_on channel=1 note=62 velocity=0 time=0
EXTRACT: note_on channel=1 note=57 velocity=0 time=0
EXTRACT: note_on channel=1 note=65 velocity=93 time=0.004098358333333333
EXTRACT: note_on channel=1 note=62 velocity=79 time=0
EXTRACT: note_on channel=1 note=57 velocity=96 time=0
EXTRACT: note_on channel=1 note=50 velocity=106 time=0
EXTRACT: note_on channel=2 note=65 velocity=0 time=0.23360642499999998
EXTRACT: note_on channel=2 note=62 velocity=0 time=0
EXTRACT: note_on channel=2 note=57 velocity=0 time=0
EXTRACT: note_on channel=2 note=50 velocity=0 time=0
EXTRACT: note_on channel=9 note=36 velocity=60 time=0
EXTRACT: note_on channel=2 note=65 velocity=104 time=0.004098358333333333
EXTRACT: note_on channel=2 note=62 velocity=89 time=0
EXTRACT: note_on channel=2 note=57 velocity=94 time=0
EXTRACT: note_on channel=2 note=50 velocity=114 time=0
EXTRACT: note_on channel=5 note=69 velocity=112 time=0.0020491791666666665
EXTRACT: note_on channel=1 note=65 velocity=0 time=0.0020491791666666665
EXTRACT: note_on channel=1 note=62 velocity=0 time=0
EXTRACT: note_on channel=1 note=57 velocity=0 time=0
EXTRACT: note_on channel=1 note=50 velocity=0 time=0
EXTRACT: note_on channel=1 note=65 velocity=115 time=0.004098358333333333
EXTRACT: note_on channel=1 note=62 velocity=105 time=0
EXTRACT: note_on channel=1 note=57 velocity=85 time=0
EXTRACT: note_on channel=1 note=50 velocity=113 time=0
EXTRACT: note_on channel=9 note=36 velocity=0 time=0.02868850833333333
EXTRACT: note_on channel=2 note=65 velocity=0 time=0.20491791666666664
EXTRACT: note_on channel=2 note=62 velocity=0 time=0
EXTRACT: note_on channel=2 note=57 velocity=0 time=0
EXTRACT: note_on channel=2 note=50 velocity=0 time=0
EXTRACT: note_on channel=9 note=36 velocity=60 time=0
EXTRACT: note_on channel=5 note=69 velocity=0 time=0.0020491791666666665
EXTRACT: note_on channel=2 note=65 velocity=89 time=0.0020491791666666665
EXTRACT: note_on channel=2 note=62 velocity=93 time=0
EXTRACT: note_on channel=2 note=57 velocity=76 time=0
EXTRACT: note_on channel=5 note=60 velocity=114 time=0.0020491791666666665
EXTRACT: note_on channel=1 note=65 velocity=0 time=0.0020491791666666665
EXTRACT: note_on channel=1 note=62 velocity=0 time=0
EXTRACT: note_on channel=1 note=57 velocity=0 time=0
EXTRACT: note_on channel=1 note=50 velocity=0 time=0
EXTRACT: note_on channel=1 note=65 velocity=116 time=0.004098358333333333
EXTRACT: note_on channel=1 note=62 velocity=95 time=0
EXTRACT: note_on channel=1 note=57 velocity=84 time=0
EXTRACT: note_on channel=9 note=36 velocity=0 time=0.02868850833333333
EXTRACT: note_on channel=5 note=60 velocity=0 time=0.08401634583333333
EXTRACT: note_on channel=5 note=60 velocity=89 time=0.004098358333333333
EXTRACT: note_on channel=2 note=65 velocity=0 time=0.11680321249999999
EXTRACT: note_on channel=2 note=62 velocity=0 time=0
EXTRACT: note_on channel=2 note=57 velocity=0 time=0
EXTRACT: note_on channel=9 note=40 velocity=72 time=0
EXTRACT: note_on channel=9 note=28 velocity=72 time=0
EXTRACT: note_on channel=5 note=60 velocity=0 time=0.0020491791666666665
EXTRACT: note_on channel=2 note=65 velocity=104 time=0.0020491791666666665
EXTRACT: note_on channel=2 note=62 velocity=85 time=0
EXTRACT: note_on channel=2 note=57 velocity=101 time=0
EXTRACT: note_on channel=2 note=50 velocity=113 time=0
EXTRACT: note_on channel=5 note=60 velocity=116 time=0.0020491791666666665
EXTRACT: note_on channel=1 note=65 velocity=0 time=0.0020491791666666665
EXTRACT: note_on channel=1 note=62 velocity=0 time=0
EXTRACT: note_on channel=1 note=57 velocity=0 time=0
EXTRACT: note_on channel=1 note=65 velocity=117 time=0.004098358333333333
EXTRACT: note_on channel=1 note=62 velocity=86 time=0
EXTRACT: note_on channel=1 note=57 velocity=105 time=0
EXTRACT: note_on channel=1 note=50 velocity=93 time=0
EXTRACT: note_on channel=9 note=40 velocity=0 time=0.02868850833333333
EXTRACT: note_on channel=9 note=28 velocity=0 time=0
EXTRACT: note_on channel=2 note=65 velocity=0 time=0.20491791666666664
EXTRACT: note_on channel=2 note=62 velocity=0 time=0
EXTRACT: note_on channel=2 note=57 velocity=0 time=0
EXTRACT: note_on channel=2 note=50 velocity=0 time=0
EXTRACT: note_on channel=5 note=60 velocity=0 time=0.0020491791666666665
EXTRACT: note_on channel=2 note=65 velocity=110 time=0.0020491791666666665
EXTRACT: note_on channel=2 note=62 velocity=83 time=0
EXTRACT: note_on channel=2 note=57 velocity=106 time=0
EXTRACT: note_on channel=2 note=50 velocity=70 time=0
EXTRACT: note_on channel=5 note=62 velocity=99 time=0.0020491791666666665
EXTRACT: note_on channel=1 note=65 velocity=0 time=0.0020491791666666665
EXTRACT: note_on channel=1 note=62 velocity=0 time=0
EXTRACT: note_on channel=1 note=57 velocity=0 time=0
EXTRACT: note_on channel=1 note=50 velocity=0 time=0
EXTRACT: note_on channel=1 note=65 velocity=94 time=0.004098358333333333
EXTRACT: note_on channel=1 note=62 velocity=113 time=0
EXTRACT: note_on channel=1 note=57 velocity=96 time=0
EXTRACT: note_on channel=1 note=50 velocity=94 time=0
EXTRACT: note_on channel=2 note=65 velocity=0 time=0.23360642499999998
EXTRACT: note_on channel=2 note=62 velocity=0 time=0
EXTRACT: note_on channel=2 note=57 velocity=0 time=0
EXTRACT: note_on channel=2 note=50 velocity=0 time=0
EXTRACT: note_on channel=9 note=49 velocity=100 time=0
EXTRACT: note_on channel=9 note=36 velocity=120 time=0
EXTRACT: note_on channel=2 note=64 velocity=95 time=0.004098358333333333
EXTRACT: note_on channel=2 note=62 velocity=88 time=0
EXTRACT: note_on channel=2 note=55 velocity=94 time=0
EXTRACT: note_on channel=2 note=48 velocity=109 time=0
EXTRACT: pitchwheel channel=0 pitch=0 time=0.004098358333333333
EXTRACT: note_on channel=0 note=36 velocity=104 time=0
EXTRACT: note_on channel=1 note=65 velocity=0 time=0
EXTRACT: note_on channel=1 note=62 velocity=0 time=0
EXTRACT: note_on channel=1 note=57 velocity=0 time=0
EXTRACT: note_on channel=1 note=50 velocity=0 time=0
EXTRACT: note_on channel=4 note=69 velocity=0 time=0.0010245895833333333
EXTRACT: note_on channel=4 note=74 velocity=0 time=0
EXTRACT: note_on channel=4 note=77 velocity=0 time=0
EXTRACT: note_on channel=4 note=74 velocity=117 time=0
EXTRACT: note_on channel=4 note=72 velocity=102 time=0
EXTRACT: note_on channel=4 note=67 velocity=116 time=0
EXTRACT: note_on channel=1 note=64 velocity=106 time=0.0030737687499999998
EXTRACT: note_on channel=1 note=62 velocity=115 time=0
EXTRACT: note_on channel=1 note=55 velocity=88 time=0
EXTRACT: note_on channel=1 note=48 velocity=102 time=0
EXTRACT: note_on channel=9 note=49 velocity=0 time=0.02868850833333333
EXTRACT: note_on channel=9 note=36 velocity=0 time=0
EXTRACT: note_on channel=9 note=42 velocity=50 time=0.20491791666666664
EXTRACT: note_on channel=0 note=36 velocity=0 time=0.008196716666666666
EXTRACT: note_on channel=9 note=42 velocity=0 time=0.032786866666666664
EXTRACT: note_on channel=2 note=64 velocity=0 time=0.20491791666666664
EXTRACT: note_on channel=2 note=62 velocity=0 time=0
EXTRACT: note_on channel=2 note=55 velocity=0 time=0
EXTRACT: note_on channel=2 note=48 velocity=0 time=0
EXTRACT: note_on channel=9 note=40 velocity=127 time=0
EXTRACT: note_on channel=9 note=42 velocity=62 time=0
EXTRACT: note_on channel=2 note=64 velocity=117 time=0.004098358333333333
EXTRACT: note_on channel=2 note=62 velocity=101 time=0
EXTRACT: note_on channel=2 note=55 velocity=85 time=0
EXTRACT: note_on channel=2 note=48 velocity=112 time=0
EXTRACT: note_on channel=0 note=36 velocity=126 time=0.004098358333333333
EXTRACT: note_on channel=1 note=64 velocity=0 time=0
EXTRACT: note_on channel=1 note=62 velocity=0 time=0
EXTRACT: note_on channel=1 note=55 velocity=0 time=0
EXTRACT: note_on channel=1 note=48 velocity=0 time=0
EXTRACT: note_on channel=1 note=64 velocity=115 time=0.004098358333333333
EXTRACT: note_on channel=1 note=62 velocity=105 time=0
EXTRACT: note_on channel=1 note=55 velocity=97 time=0
EXTRACT: note_on channel=1 note=48 velocity=81 time=0
EXTRACT: note_on channel=9 note=40 velocity=0 time=0.02868850833333333
EXTRACT: note_on channel=9 note=42 velocity=0 time=0
EXTRACT: note_on channel=9 note=42 velocity=63 time=0.20491791666666664
EXTRACT: note_on channel=0 note=36 velocity=0 time=0.008196716666666666
EXTRACT: note_on channel=9 note=42 velocity=0 time=0.032786866666666664
EXTRACT: note_on channel=2 note=64 velocity=0 time=0.20491791666666664
EXTRACT: note_on channel=2 note=62 velocity=0 time=0
EXTRACT: note_on channel=2 note=55 velocity=0 time=0
EXTRACT: note_on channel=2 note=48 velocity=0 time=0
EXTRACT: note_on channel=9 note=36 velocity=120 time=0
EXTRACT: note_on channel=9 note=42 velocity=69 time=0
EXTRACT: note_on channel=2 note=64 velocity=98 time=0.004098358333333333
EXTRACT: note_on channel=2 note=62 velocity=115 time=0
EXTRACT: note_on channel=2 note=55 velocity=92 time=0
EXTRACT: note_on channel=0 note=36 velocity=123 time=0.004098358333333333
EXTRACT: note_on channel=1 note=64 velocity=0 time=0
EXTRACT: note_on channel=1 note=62 velocity=0 time=0
EXTRACT: note_on channel=1 note=55 velocity=0 time=0
EXTRACT: note_on channel=1 note=48 velocity=0 time=0
EXTRACT: note_on channel=1 note=64 velocity=83 time=0.004098358333333333
EXTRACT: note_on channel=1 note=62 velocity=107 time=0
EXTRACT: note_on channel=1 note=55 velocity=101 time=0
EXTRACT: note_on channel=9 note=36 velocity=0 time=0.02868850833333333
EXTRACT: note_on channel=9 note=42 velocity=0 time=0
EXTRACT: note_on channel=0 note=36 velocity=0 time=0.15163925833333333
EXTRACT: note_on channel=2 note=64 velocity=0 time=0.053278658333333326
EXTRACT: note_on channel=2 note=62 velocity=0 time=0
EXTRACT: note_on channel=2 note=55 velocity=0 time=0
EXTRACT: note_on channel=9 note=36 velocity=110 time=0
EXTRACT: note_on channel=9 note=42 velocity=49 time=0
EXTRACT: note_on channel=2 note=64 velocity=95 time=0.004098358333333333
EXTRACT: note_on channel=2 note=62 velocity=75 time=0
EXTRACT: note_on channel=2 note=55 velocity=113 time=0
EXTRACT: note_on channel=2 note=48 velocity=99 time=0
EXTRACT: note_on channel=0 note=36 velocity=103 time=0.004098358333333333
EXTRACT: note_on channel=1 note=64 velocity=0 time=0
EXTRACT: note_on channel=1 note=62 velocity=0 time=0
EXTRACT: note_on channel=1 note=55 velocity=0 time=0
EXTRACT: note_on channel=1 note=64 velocity=117 time=0.004098358333333333
EXTRACT: note_on channel=1 note=62 velocity=82 time=0
EXTRACT: note_on channel=1 note=55 velocity=108 time=0
EXTRACT: note_on channel=1 note=48 velocity=71 time=0
EXTRACT: note_on channel=9 note=36 velocity=0 time=0.02868850833333333
EXTRACT: note_on channel=9 note=42 velocity=0 time=0
EXTRACT: note_on channel=0 note=36 velocity=0 time=0.15163925833333333
EXTRACT: note_on channel=2 note=64 velocity=0 time=0.053278658333333326
EXTRACT: note_on channel=2 note=62 velocity=0 time=0
EXTRACT: note_on channel=2 note=55 velocity=0 time=0
EXTRACT: note_on channel=2 note=48 velocity=0 time=0
EXTRACT: note_on channel=9 note=40 velocity=127 time=0
EXTRACT: note_on channel=9 note=42 velocity=58 time=0
EXTRACT: note_on channel=2 note=64 velocity=115 time=0.004098358333333333
EXTRACT: note_on channel=2 note=62 velocity=112 time=0
EXTRACT: note_on channel=2 note=55 velocity=116 time=0
EXTRACT: note_on channel=2 note=48 velocity=110 time=0
EXTRACT: note_on channel=0 note=36 velocity=127 time=0.004098358333333333
EXTRACT: note_on channel=1 note=64 velocity=0 time=0
EXTRACT: note_on channel=1 note=62 velocity=0 time=0
EXTRACT: note_on channel=1 note=55 velocity=0 time=0
EXTRACT: note_on channel=1 note=48 velocity=0 time=0
EXTRACT: note_on channel=1 note=64 velocity=113 time=0.004098358333333333
EXTRACT: note_on channel=1 note=62 velocity=103 time=0
EXTRACT: note_on channel=1 note=55 velocity=100 time=0
EXTRACT: note_on channel=1 note=48 velocity=105 time=0
EXTRACT: note_on channel=9 note=40 velocity=0 time=0.02868850833333333
EXTRACT: note_on channel=9 note=42 velocity=0 time=0
EXTRACT: note_on channel=0 note=36 velocity=0 time=0.15163925833333333
EXTRACT: note_on channel=2 note=64 velocity=0 time=0.053278658333333326
EXTRACT: note_on channel=2 note=62 velocity=0 time=0
EXTRACT: note_on channel=2 note=55 velocity=0 time=0
EXTRACT: note_on channel=2 note=48 velocity=0 time=0
EXTRACT: note_on channel=9 note=36 velocity=110 time=0
EXTRACT: note_on channel=9 note=42 velocity=48 time=0
EXTRACT: note_on channel=2 note=64 velocity=108 time=0.004098358333333333
EXTRACT: note_on channel=2 note=62 velocity=113 time=0
EXTRACT: note_on channel=2 note=55 velocity=95 time=0
EXTRACT: note_on channel=0 note=36 velocity=127 time=0.004098358333333333
EXTRACT: note_on channel=1 note=64 velocity=0 time=0
EXTRACT: note_on channel=1 note=62 velocity=0 time=0
EXTRACT: note_on channel=1 note=55 velocity=0 time=0
EXTRACT: note_on channel=1 note=48 velocity=0 time=0
EXTRACT: note_on channel=1 note=64 velocity=88 time=0.004098358333333333
EXTRACT: note_on channel=1 note=62 velocity=109 time=0
EXTRACT: note_on channel=1 note=55 velocity=99 time=0
EXTRACT: note_on channel=9 note=36 velocity=0 time=0.02868850833333333
EXTRACT: note_on channel=9 note=42 velocity=0 time=0
EXTRACT: note_on channel=9 note=42 velocity=59 time=0.20491791666666664
EXTRACT: note_on channel=5 note=62 velocity=0 time=0.0061475374999999995
EXTRACT: note_on channel=0 note=36 velocity=0 time=0.0020491791666666665
EXTRACT: note_on channel=4 note=74 velocity=0 time=0.0010245895833333333
EXTRACT: note_on channel=4 note=76 velocity=101 time=0
EXTRACT: note_on channel=9 note=42 velocity=0 time=0.03176227708333333
EXTRACT: note_on channel=2 note=64 velocity=0 time=0.20491791666666664
EXTRACT: note_on channel=2 note=62 velocity=0 time=0
EXTRACT: note_on channel=2 note=55 velocity=0 time=0
EXTRACT: note_on channel=9 note=36 velocity=120 time=0
EXTRACT: note_on channel=9 note=42 velocity=49 time=0
EXTRACT: note_on channel=2 note=64 velocity=70 time=0.004098358333333333
EXTRACT: note_on channel=2 note=60 velocity=113 time=0
EXTRACT: note_on channel=2 note=55 velocity=70 time=0
EXTRACT: note_on channel=0 note=36 velocity=117 time=0.004098358333333333
EXTRACT: note_on channel=1 note=64 velocity=0 time=0
EXTRACT: note_on channel=1 note=62 velocity=0 time=0
EXTRACT: note_on channel=1 note=55 velocity=0 time=0
EXTRACT: note_on channel=1 note=64 velocity=92 time=0.004098358333333333
EXTRACT: note_on channel=1 note=60 velocity=64 time=0
EXTRACT: note_on channel=1 note=55 velocity=71 time=0
EXTRACT: note_on channel=9 note=36 velocity=0 time=0.02868850833333333
EXTRACT: note_on channel=9 note=42 velocity=0 time=0
EXTRACT: note_on channel=2 note=64 velocity=0 time=0.20491791666666664
EXTRACT: note_on channel=2 note=60 velocity=0 time=0
EXTRACT: note_on channel=2 note=55 velocity=0 time=0
EXTRACT: note_on channel=9 note=40 velocity=127 time=0
EXTRACT: note_on channel=9 note=42 velocity=66 time=0
EXTRACT: note_on channel=0 note=36 velocity=0 time=0.004098358333333333
EXTRACT: note_on channel=2 note=64 velocity=96 time=0
EXTRACT: note_on channel=2 note=60 velocity=91 time=0
EXTRACT: note_on channel=2 note=55 velocity=103 time=0
EXTRACT: note_on channel=2 note=48 velocity=87 time=0
EXTRACT: note_on channel=0 note=36 velocity=124 time=0.004098358333333333
EXTRACT: note_on channel=1 note=64 velocity=0 time=0
EXTRACT: note_on channel=1 note=60 velocity=0 time=0
EXTRACT: note_on channel=1 note=55 velocity=0 time=0
EXTRACT: note_on channel=1 note=64 velocity=82 time=0.004098358333333333
EXTRACT: note_on channel=1 note=60 velocity=90 time=0
EXTRACT: note_on channel=1 note=55 velocity=104 time=0
EXTRACT: note_on channel=1 note=48 velocity=109 time=0
EXTRACT: note_on channel=9 note=40 velocity=0 time=0.02868850833333333
EXTRACT: note_on channel=9 note=42 velocity=0 time=0
EXTRACT: note_on channel=2 note=64 velocity=0 time=0.20491791666666664
EXTRACT: note_on channel=2 note=60 velocity=0 time=0
EXTRACT: note_on channel=2 note=55 velocity=0 time=0
EXTRACT: note_on channel=2 note=48 velocity=0 time=0
EXTRACT: note_on channel=9 note=42 velocity=63 time=0
EXTRACT: note_on channel=0 note=36 velocity=0 time=0.004098358333333333
EXTRACT: note_on channel=2 note=64 velocity=76 time=0
EXTRACT: note_on channel=2 note=60 velocity=84 time=0
EXTRACT: note_on channel=2 note=55 velocity=110 time=0
EXTRACT: note_on channel=0 note=36 velocity=125 time=0.004098358333333333
EXTRACT: note_on channel=1 note=64 velocity=0 time=0
EXTRACT: note_on channel=1 note=60 velocity=0 time=0
EXTRACT: note_on channel=1 note=55 velocity=0 time=0
EXTRACT: note_on channel=1 note=48 velocity=0 time=0
EXTRACT: note_on channel=1 note=64 velocity=104 time=0.004098358333333333
EXTRACT: note_on channel=1 note=60 velocity=69 time=0
EXTRACT: note_on channel=1 note=55 velocity=68 time=0
EXTRACT: note_on channel=9 note=42 velocity=0 time=0.02868850833333333
EXTRACT: note_on channel=2 note=64 velocity=0 time=0.20491791666666664
EXTRACT: note_on channel=2 note=60 velocity=0 time=0
EXTRACT: note_on channel=2 note=55 velocity=0 time=0
EXTRACT: note_on channel=9 note=36 velocity=120 time=0
EXTRACT: note_on channel=9 note=42 velocity=65 time=0
EXTRACT: note_on channel=0 note=36 velocity=0 time=0.004098358333333333
EXTRACT: note_on channel=2 note=64 velocity=98 time=0
EXTRACT: note_on channel=2 note=60 velocity=103 time=0
EXTRACT: note_on channel=2 note=55 velocity=91 time=0
EXTRACT: note_on channel=2 note=48 velocity=115 time=0
EXTRACT: note_on channel=0 note=36 velocity=104 time=0.004098358333333333
EXTRACT: note_on channel=1 note=64 velocity=0 time=0
EXTRACT: note_on channel=1 note=60 velocity=0 time=0
EXTRACT: note_on channel=1 note=55 velocity=0 time=0
EXTRACT: note_on channel=1 note=64 velocity=101 time=0.004098358333333333
EXTRACT: note_on channel=1 note=60 velocity=90 time=0
EXTRACT: note_on channel=1 note=55 velocity=103 time=0
EXTRACT: note_on channel=1 note=48 velocity=85 time=0
EXTRACT: note_on channel=9 note=36 velocity=0 time=0.02868850833333333
EXTRACT: note_on channel=9 note=42 velocity=0 time=0
EXTRACT: note_on channel=2 note=64 velocity=0 time=0.20491791666666664
EXTRACT: note_on channel=2 note=60 velocity=0 time=0
EXTRACT: note_on channel=2 note=55 velocity=0 time=0
EXTRACT: note_on channel=2 note=48 velocity=0 time=0
EXTRACT: note_on channel=9 note=36 velocity=110 time=0
EXTRACT: note_on channel=9 note=42 velocity=41 time=0
EXTRACT: note_on channel=0 note=36 velocity=0 time=0.004098358333333333
EXTRACT: note_on channel=2 note=64 velocity=65 time=0
EXTRACT: note_on channel=2 note=60 velocity=110 time=0
EXTRACT: note_on channel=2 note=55 velocity=108 time=0
EXTRACT: note_on channel=0 note=36 velocity=113 time=0.004098358333333333
EXTRACT: note_on channel=1 note=64 velocity=0 time=0
EXTRACT: note_on channel=1 note=60 velocity=0 time=0
EXTRACT: note_on channel=1 note=55 velocity=0 time=0
EXTRACT: note_on channel=1 note=48 velocity=0 time=0
EXTRACT: note_on channel=1 note=64 velocity=117 time=0.004098358333333333
EXTRACT: note_on channel=1 note=60 velocity=81 time=0
EXTRACT: note_on channel=1 note=55 velocity=108 time=0
EXTRACT: note_on channel=9 note=36 velocity=0 time=0.02868850833333333
EXTRACT: note_on channel=9 note=42 velocity=0 time=0
EXTRACT: note_on channel=2 note=64 velocity=0 time=0.20491791666666664
EXTRACT: note_on channel=2 note=60 velocity=0 time=0
EXTRACT: note_on channel=2 note=55 velocity=0 time=0
EXTRACT: note_on channel=9 note=40 velocity=127 time=0
EXTRACT: note_on channel=9 note=42 velocity=52 time=0
EXTRACT: note_on channel=0 note=36 velocity=0 time=0.004098358333333333
EXTRACT: note_on channel=2 note=64 velocity=90 time=0
EXTRACT: note_on channel=2 note=60 velocity=101 time=0
EXTRACT: note_on channel=2 note=55 velocity=115 time=0
EXTRACT: note_on channel=2 note=48 velocity=104 time=0
EXTRACT: note_on channel=0 note=36 velocity=122 time=0.004098358333333333
EXTRACT: note_on channel=1 note=64 velocity=0 time=0
EXTRACT: note_on channel=1 note=60 velocity=0 time=0
EXTRACT: note_on channel=1 note=55 velocity=0 time=0
EXTRACT: note_on channel=1 note=64 velocity=117 time=0.004098358333333333
EXTRACT: note_on channel=1 note=60 velocity=81 time=0
EXTRACT: note_on channel=1 note=55 velocity=115 time=0
EXTRACT: note_on channel=1 note=48 velocity=116 time=0
EXTRACT: note_on channel=9 note=40 velocity=0 time=0.02868850833333333
EXTRACT: note_on channel=9 note=42 velocity=0 time=0
EXTRACT: note_on channel=2 note=64 velocity=0 time=0.20491791666666664
EXTRACT: note_on channel=2 note=60 velocity=0 time=0
EXTRACT: note_on channel=2 note=55 velocity=0 time=0
EXTRACT: note_on channel=2 note=48 velocity=0 time=0
EXTRACT: note_on channel=9 note=40 velocity=110 time=0
EXTRACT: note_on channel=9 note=42 velocity=46 time=0
EXTRACT: note_on channel=0 note=36 velocity=0 time=0.004098358333333333
EXTRACT: note_on channel=2 note=64 velocity=73 time=0
EXTRACT: note_on channel=2 note=60 velocity=111 time=0
EXTRACT: note_on channel=2 note=55 velocity=73 time=0
EXTRACT: note_on channel=0 note=36 velocity=102 time=0.004098358333333333
EXTRACT: note_on channel=1 note=64 velocity=0 time=0
EXTRACT: note_on channel=1 note=60 velocity=0 time=0
EXTRACT: note_on channel=1 note=55 velocity=0 time=0
EXTRACT: note_on channel=1 note=48 velocity=0 time=0
EXTRACT: note_on channel=1 note=64 velocity=106 time=0.004098358333333333
EXTRACT: note_on channel=1 note=60 velocity=72 time=0
EXTRACT: note_on channel=1 note=55 velocity=99 time=0
EXTRACT: note_on channel=9 note=40 velocity=0 time=0.02868850833333333
EXTRACT: note_on channel=9 note=42 velocity=0 time=0
EXTRACT: note_on channel=2 note=64 velocity=0 time=0.20491791666666664
EXTRACT: note_on channel=2 note=60 velocity=0 time=0
EXTRACT: note_on channel=2 note=55 velocity=0 time=0
EXTRACT: note_on channel=9 note=36 velocity=60 time=0
EXTRACT: note_on channel=2 note=64 velocity=109 time=0.004098358333333333
EXTRACT: note_on channel=2 note=62 velocity=87 time=0
EXTRACT: note_on channel=2 note=57 velocity=103 time=0
EXTRACT: note_on channel=2 note=50 velocity=88 time=0
EXTRACT: note_on channel=0 note=36 velocity=0 time=0.004098358333333333
EXTRACT: note_on channel=1 note=64 velocity=0 time=0
EXTRACT: note_on channel=1 note=60 velocity=0 time=0
EXTRACT: note_on channel=1 note=55 velocity=0 time=0
EXTRACT: note_on channel=4 note=72 velocity=0 time=0.0010245895833333333
EXTRACT: note_on channel=4 note=67 velocity=0 time=0
EXTRACT: note_on channel=4 note=76 velocity=0 time=0
EXTRACT: note_on channel=4 note=76 velocity=116 time=0
EXTRACT: note_on channel=4 note=69 velocity=101 time=0
EXTRACT: note_on channel=4 note=74 velocity=119 time=0
EXTRACT: note_on channel=1 note=64 velocity=92 time=0.0030737687499999998
EXTRACT: note_on channel=1 note=62 velocity=95 time=0
EXTRACT: note_on channel=1 note=57 velocity=88 time=0
EXTRACT: note_on channel=1 note=50 velocity=88 time=0
EXTRACT: note_on channel=9 note=36 velocity=0 time=0.02868850833333333
EXTRACT: note_on channel=2 note=64 velocity=0 time=0.45081941666666664
EXTRACT: note_on channel=2 note=62 velocity=0 time=0
EXTRACT: note_on channel=2 note=57 velocity=0 time=0
EXTRACT: note_on channel=2 note=50 velocity=0 time=0
EXTRACT: note_on channel=9 note=40 velocity=72 time=0
EXTRACT: note_on channel=9 note=28 velocity=72 time=0
EXTRACT: note_on channel=2 note=64 velocity=98 time=0.004098358333333333
EXTRACT: note_on channel=2 note=62 velocity=95 time=0
EXTRACT: note_on channel=2 note=57 velocity=87 time=0
EXTRACT: note_on channel=2 note=50 velocity=107 time=0
EXTRACT: note_on channel=1 note=64 velocity=0 time=0.004098358333333333
EXTRACT: note_on channel=1 note=62 velocity=0 time=0
EXTRACT: note_on channel=1 note=57 velocity=0 time=0
EXTRACT: note_on channel=1 note=50 velocity=0 time=0
EXTRACT: note_on channel=1 note=64 velocity=115 time=0.004098358333333333
EXTRACT: note_on channel=1 note=62 velocity=117 time=0
EXTRACT: note_on channel=1 note=57 velocity=86 time=0
EXTRACT: note_on channel=1 note=50 velocity=109 time=0
EXTRACT: note_on channel=9 note=40 velocity=0 time=0.02868850833333333
EXTRACT: note_on channel=9 note=28 velocity=0 time=0
EXTRACT: note_on channel=5 note=62 velocity=98 time=0.21106545416666664
EXTRACT: note_on channel=2 note=64 velocity=0 time=0.23975396249999997
EXTRACT: note_on channel=2 note=62 velocity=0 time=0
EXTRACT: note_on channel=2 note=57 velocity=0 time=0
EXTRACT: note_on channel=2 note=50 velocity=0 time=0
EXTRACT: note_on channel=9 note=36 velocity=60 time=0
EXTRACT: note_on channel=5 note=62 velocity=0 time=0.0020491791666666665
EXTRACT: note_on channel=2 note=64 velocity=94 time=0.0020491791666666665
EXTRACT: note_on channel=2 note=62 velocity=85 time=0
EXTRACT: note_on channel=2 note=57 velocity=103 time=0
EXTRACT: note_on channel=2 note=50 velocity=117 time=0
EXTRACT: note_on channel=5 note=69 velocity=94 time=0.0020491791666666665
EXTRACT: note_on channel=1 note=64 velocity=0 time=0.0020491791666666665
EXTRACT: note_on channel=1 note=62 velocity=0 time=0
EXTRACT: note_on channel=1 note=57 velocity=0 time=0
EXTRACT: note_on channel=1 note=50 velocity=0 time=0
EXTRACT: note_on channel=1 note=64 velocity=93 time=0.004098358333333333
EXTRACT: note_on channel=1 note=62 velocity=92 time=0
EXTRACT: note_on channel=1 note=57 velocity=103 time=0
EXTRACT: note_on channel=1 note=50 velocity=101 time=0
EXTRACT: note_on channel=9 note=36 velocity=0 time=0.02868850833333333
EXTRACT: note_on channel=2 note=64 velocity=0 time=0.20491791666666664
EXTRACT: note_on channel=2 note=62 velocity=0 time=0
EXTRACT: note_on channel=2 note=57 velocity=0 time=0
EXTRACT: note_on channel=2 note=50 velocity=0 time=0
EXTRACT: note_on channel=9 note=36 velocity=60 time=0
EXTRACT: note_on channel=5 note=69 velocity=0 time=0.0020491791666666665
EXTRACT: note_on channel=2 note=64 velocity=92 time=0.0020491791666666665
EXTRACT: note_on channel=2 note=62 velocity=70 time=0
EXTRACT: note_on channel=2 note=57 velocity=87 time=0
EXTRACT: note_on channel=5 note=69 velocity=103 time=0.0020491791666666665
EXTRACT: note_on channel=1 note=64 velocity=0 time=0.0020491791666666665
EXTRACT: note_on channel=1 note=62 velocity=0 time=0
EXTRACT: note_on channel=1 note=57 velocity=0 time=0
EXTRACT: note_on channel=1 note=50 velocity=0 time=0
EXTRACT: note_on channel=1 note=64 velocity=106 time=0.004098358333333333
EXTRACT: note_on channel=1 note=62 velocity=63 time=0
EXTRACT: note_on channel=1 note=57 velocity=83 time=0
EXTRACT: note_on channel=9 note=36 velocity=0 time=0.02868850833333333
EXTRACT: note_on channel=2 note=64 velocity=0 time=0.20491791666666664
EXTRACT: note_on channel=2 note=62 velocity=0 time=0
EXTRACT: note_on channel=2 note=57 velocity=0 time=0
EXTRACT: note_on channel=9 note=40 velocity=72 time=0
EXTRACT: note_on channel=9 note=28 velocity=72 time=0
EXTRACT: note_on channel=5 note=69 velocity=0 time=0.0020491791666666665
EXTRACT: note_on channel=2 note=64 velocity=92 time=0.0020491791666666665
EXTRACT: note_on channel=2 note=62 velocity=116 time=0
EXTRACT: note_on channel=2 note=57 velocity=90 time=0
EXTRACT: note_on channel=2 note=50 velocity=107 time=0
EXTRACT: note_on channel=5 note=69 velocity=97 time=0.0020491791666666665
EXTRACT: note_on channel=1 note=64 velocity=0 time=0.0020491791666666665
EXTRACT: note_on channel=1 note=62 velocity=0 time=0
EXTRACT: note_on channel=1 note=57 velocity=0 time=0
EXTRACT: note_on channel=1 note=64 velocity=117 time=0.004098358333333333
EXTRACT: note_on channel=1 note=62 velocity=114 time=0
EXTRACT: note_on channel=1 note=57 velocity=95 time=0
EXTRACT: note_on channel=1 note=50 velocity=114 time=0
EXTRACT: note_on channel=9 note=40 velocity=0 time=0.02868850833333333
EXTRACT: note_on channel=9 note=28 velocity=0 time=0
EXTRACT: note_on channel=2 note=64 velocity=0 time=0.20491791666666664
EXTRACT: note_on channel=2 note=62 velocity=0 time=0
EXTRACT: note_on channel=2 note=57 velocity=0 time=0
EXTRACT: note_on channel=2 note=50 velocity=0 time=0
EXTRACT: note_on channel=5 note=69 velocity=0 time=0.0020491791666666665
EXTRACT: note_on channel=2 note=64 velocity=78 time=0.0020491791666666665
EXTRACT: note_on channel=2 note=62 velocity=72 time=0
EXTRACT: note_on channel=2 note=57 velocity=110 time=0
EXTRACT: note_on channel=5 note=62 velocity=103 time=0.0020491791666666665
EXTRACT: note_on channel=1 note=64 velocity=0 time=0.0020491791666666665
EXTRACT: note_on channel=1 note=62 velocity=0 time=0
EXTRACT: note_on channel=1 note=57 velocity=0 time=0
EXTRACT: note_on channel=1 note=50 velocity=0 time=0
EXTRACT: note_on channel=1 note=64 velocity=67 time=0.004098358333333333
EXTRACT: note_on channel=1 note=62 velocity=78 time=0
EXTRACT: note_on channel=1 note=57 velocity=107 time=0
EXTRACT: note_on channel=9 note=36 velocity=60 time=0.23360642499999998
EXTRACT: note_on channel=4 note=76 velocity=0 time=0.009221306249999998
EXTRACT: note_on channel=4 note=77 velocity=101 time=0
EXTRACT: note_on channel=9 note=36 velocity=0 time=0.03176227708333333
EXTRACT: note_on channel=2 note=64 velocity=0 time=0.20491791666666664
EXTRACT: note_on channel=2 note=62 velocity=0 time=0
EXTRACT: note_on channel=2 note=57 velocity=0 time=0
EXTRACT: note_on channel=2 note=65 velocity=73 time=0.004098358333333333
EXTRACT: note_on channel=2 note=62 velocity=85 time=0
EXTRACT: note_on channel=2 note=57 velocity=71 time=0
EXTRACT: note_on channel=1 note=64 velocity=0 time=0.004098358333333333
EXTRACT: note_on channel=1 note=62 velocity=0 time=0
EXTRACT: note_on channel=1 note=57 velocity=0 time=0
EXTRACT: note_on channel=1 note=65 velocity=87 time=0.004098358333333333
EXTRACT: note_on channel=1 note=62 velocity=85 time=0
EXTRACT: note_on channel=1 note=57 velocity=110 time=0
EXTRACT: note_on channel=2 note=65 velocity=0 time=0.23360642499999998
EXTRACT: note_on channel=2 note=62 velocity=0 time=0
EXTRACT: note_on channel=2 note=57 velocity=0 time=0
EXTRACT: note_on channel=9 note=40 velocity=72 time=0
EXTRACT: note_on channel=9 note=28 velocity=72 time=0
EXTRACT: note_on channel=2 note=65 velocity=103 time=0.004098358333333333
EXTRACT: note_on channel=2 note=62 velocity=102 time=0
EXTRACT: note_on channel=2 note=57 velocity=96 time=0
EXTRACT: note_on channel=5 note=62 velocity=0 time=0.0020491791666666665
EXTRACT: note_on channel=1 note=65 velocity=0 time=0.0020491791666666665
EXTRACT: note_on channel=1 note=62 velocity=0 time=0
EXTRACT: note_on channel=1 note=57 velocity=0 time=0
EXTRACT: note_on channel=1 note=65 velocity=87 time=0.004098358333333333
EXTRACT: note_on channel=1 note=62 velocity=85 time=0
EXTRACT: note_on channel=1 note=57 velocity=111 time=0
EXTRACT: note_on channel=9 note=40 velocity=0 time=0.02868850833333333
EXTRACT: note_on channel=9 note=28 velocity=0 time=0
EXTRACT: note_on channel=2 note=65 velocity=0 time=0.20491791666666664
EXTRACT: note_on channel=2 note=62 velocity=0 time=0
EXTRACT: note_on channel=2 note=57 velocity=0 time=0
EXTRACT: note_on channel=2 note=65 velocity=66 time=0.004098358333333333
EXTRACT: note_on channel=2 note=62 velocity=103 time=0
EXTRACT: note_on channel=2 note=57 velocity=110 time=0
EXTRACT: note_on channel=2 note=50 velocity=75 time=0
EXTRACT: note_on channel=1 note=65 velocity=0 time=0.004098358333333333
EXTRACT: note_on channel=1 note=62 velocity=0 time=0
EXTRACT: note_on channel=1 note=57 velocity=0 time=0
EXTRACT: note_on channel=1 note=65 velocity=101 time=0.004098358333333333
EXTRACT: note_on channel=1 note=62 velocity=109 time=0
EXTRACT: note_on channel=1 note=57 velocity=92 time=0
EXTRACT: note_on channel=1 note=50 velocity=93 time=0
EXTRACT: note_on channel=2 note=65 velocity=0 time=0.23360642499999998
EXTRACT: note_on channel=2 note=62 velocity=0 time=0
EXTRACT: note_on channel=2 note=57 velocity=0 time=0
EXTRACT: note_on channel=2 note=50 velocity=0 time=0
EXTRACT: note_on channel=9 note=40 velocity=127 time=0
EXTRACT: note_on channel=2 note=65 velocity=89 time=0.004098358333333333
EXTRACT: note_on channel=2 note=62 velocity=88 time=0
EXTRACT: note_on channel=2 note=57 velocity=85 time=0
EXTRACT: note_on channel=2 note=50 velocity=92 time=0
EXTRACT: note_on channel=5 note=69 velocity=94 time=0.0020491791666666665
EXTRACT: note_on channel=1 note=65 velocity=0 time=0.0020491791666666665
EXTRACT: note_on channel=1 note=62 velocity=0 time=0
EXTRACT: note_on channel=1 note=57 velocity=0 time=0
EXTRACT: note_on channel=1 note=50 velocity=0 time=0
EXTRACT: note_on channel=1 note=65 velocity=81 time=0.004098358333333333
EXTRACT: note_on channel=1 note=62 velocity=82 time=0
EXTRACT: note_on channel=1 note=57 velocity=111 time=0
EXTRACT: note_on channel=1 note=50 velocity=84 time=0
EXTRACT: note_on channel=9 note=40 velocity=0 time=0.02868850833333333
EXTRACT: note_on channel=9 note=48 velocity=120 time=0.12295075
EXTRACT: note_on channel=9 note=48 velocity=0 time=0.04098358333333333
EXTRACT: note_on channel=2 note=65 velocity=0 time=0.04098358333333333
EXTRACT: note_on channel=2 note=62 velocity=0 time=0
EXTRACT: note_on channel=2 note=57 velocity=0 time=0
EXTRACT: note_on channel=2 note=50 velocity=0 time=0
EXTRACT: note_on channel=5 note=69 velocity=0 time=0.0020491791666666665
EXTRACT: note_on channel=2 note=65 velocity=102 time=0.0020491791666666665
EXTRACT: note_on channel=2 note=62 velocity=85 time=0
EXTRACT: note_on channel=2 note=57 velocity=111 time=0
EXTRACT: note_on channel=5 note=62 velocity=108 time=0.0020491791666666665
EXTRACT: note_on channel=1 note=65 velocity=0 time=0.0020491791666666665
EXTRACT: note_on channel=1 note=62 velocity=0 time=0
EXTRACT: note_on channel=1 note=57 velocity=0 time=0
EXTRACT: note_on channel=1 note=50 velocity=0 time=0
EXTRACT: note_on channel=1 note=65 velocity=65 time=0.004098358333333333
EXTRACT: note_on channel=1 note=62 velocity=81 time=0
EXTRACT: note_on channel=1 note=57 velocity=87 time=0
EXTRACT: note_on channel=9 note=45 velocity=120 time=0.06967209166666666
EXTRACT: note_on channel=9 note=45 velocity=0 time=0.04098358333333333
EXTRACT: note_on channel=2 note=65 velocity=0 time=0.12295075
EXTRACT: note_on channel=2 note=62 velocity=0 time=0
EXTRACT: note_on channel=2 note=57 velocity=0 time=0
EXTRACT: note_on channel=9 note=40 velocity=127 time=0
EXTRACT: note_on channel=5 note=62 velocity=0 time=0.0020491791666666665
EXTRACT: note_on channel=2 note=65 velocity=105 time=0.0020491791666666665
EXTRACT: note_on channel=2 note=62 velocity=100 time=0
EXTRACT: note_on channel=2 note=57 velocity=109 time=0
EXTRACT: note_on channel=2 note=50 velocity=90 time=0
EXTRACT: note_on channel=5 note=60 velocity=110 time=0.0020491791666666665
EXTRACT: note_on channel=1 note=65 velocity=0 time=0.0020491791666666665
EXTRACT: note_on channel=1 note=62 velocity=0 time=0
EXTRACT: note_on channel=1 note=57 velocity=0 time=0
EXTRACT: note_on channel=1 note=65 velocity=113 time=0.004098358333333333
EXTRACT: note_on channel=1 note=62 velocity=96 time=0
EXTRACT: note_on channel=1 note=57 velocity=98 time=0
EXTRACT: note_on channel=1 note=50 velocity=96 time=0
EXTRACT: note_on channel=9 note=40 velocity=0 time=0.02868850833333333
EXTRACT: note_on channel=2 note=65 velocity=0 time=0.20491791666666664
EXTRACT: note_on channel=2 note=62 velocity=0 time=0
EXTRACT: note_on channel=2 note=57 velocity=0 time=0
EXTRACT: note_on channel=2 note=50 velocity=0 time=0
EXTRACT: note_on channel=9 note=40 velocity=127 time=0
EXTRACT: note_on channel=5 note=60 velocity=0 time=0.0020491791666666665
EXTRACT: note_on channel=2 note=65 velocity=83 time=0.0020491791666666665
EXTRACT: note_on channel=2 note=62 velocity=85 time=0
EXTRACT: note_on channel=2 note=57 velocity=94 time=0
EXTRACT: note_on channel=2 note=50 velocity=71 time=0
EXTRACT: note_on channel=5 note=62 velocity=114 time=0.0020491791666666665
EXTRACT: note_on channel=1 note=65 velocity=0 time=0.0020491791666666665
EXTRACT: note_on channel=1 note=62 velocity=0 time=0
EXTRACT: note_on channel=1 note=57 velocity=0 time=0
EXTRACT: note_on channel=1 note=50 velocity=0 time=0
EXTRACT: note_on channel=1 note=65 velocity=61 time=0.004098358333333333
EXTRACT: note_on channel=1 note=62 velocity=65 time=0
EXTRACT: note_on channel=1 note=57 velocity=96 time=0
EXTRACT: note_on channel=1 note=50 velocity=92 time=0
EXTRACT: note_on channel=9 note=40 velocity=0 time=0.02868850833333333
EXTRACT: note_on channel=2 note=65 velocity=0 time=0.20491791666666664
EXTRACT: note_on channel=2 note=62 velocity=0 time=0
EXTRACT: note_on channel=2 note=57 velocity=0 time=0
EXTRACT: note_on channel=2 note=50 velocity=0 time=0
EXTRACT: note_on channel=9 note=49 velocity=100 time=0
EXTRACT: note_on channel=9 note=36 velocity=120 time=0
EXTRACT: note_on channel=2 note=64 velocity=96 time=0.004098358333333333
EXTRACT: note_on channel=2 note=62 velocity=95 time=0
EXTRACT: note_on channel=2 note=55 velocity=99 time=0
EXTRACT: note_on channel=2 note=48 velocity=112 time=0
EXTRACT: note_on channel=0 note=36 velocity=126 time=0.004098358333333333
EXTRACT: note_on channel=1 note=65 velocity=0 time=0
EXTRACT: note_on channel=1 note=62 velocity=0 time=0
EXTRACT: note_on channel=1 note=57 velocity=0 time=0
EXTRACT: note_on channel=1 note=50 velocity=0 time=0
EXTRACT: note_on channel=4 note=69 velocity=0 time=0.0010245895833333333
EXTRACT: note_on channel=4 note=74 velocity=0 time=0
EXTRACT: note_on channel=4 note=77 velocity=0 time=0
EXTRACT: note_on channel=4 note=74 velocity=104 time=0
EXTRACT: note_on channel=4 note=72 velocity=105 time=0
EXTRACT: note_on channel=4 note=67 velocity=119 time=0
EXTRACT: note_on channel=1 note=64 velocity=102 time=0.0030737687499999998
EXTRACT: note_on channel=1 note=62 velocity=107 time=0
EXTRACT: note_on channel=1 note=55 velocity=116 time=0
EXTRACT: note_on channel=1 note=48 velocity=91 time=0
EXTRACT: note_on channel=9 note=49 velocity=0 time=0.02868850833333333
EXTRACT: note_on channel=9 note=36 velocity=0 time=0
EXTRACT: note_on channel=0 note=36 velocity=0 time=0.15163925833333333
EXTRACT: note_on channel=9 note=42 velocity=48 time=0.053278658333333326
EXTRACT: note_on channel=0 note=36 velocity=119 time=0.008196716666666666
EXTRACT: note_on channel=9 note=42 velocity=0 time=0.032786866666666664
EXTRACT: note_on channel=0 note=36 velocity=0 time=0.15163925833333333
EXTRACT: note_on channel=2 note=64 velocity=0 time=0.053278658333333326
EXTRACT: note_on channel=2 note=62 velocity=0 time=0
EXTRACT: note_on channel=2 note=55 velocity=0 time=0
EXTRACT: note_on channel=2 note=48 velocity=0 time=0
EXTRACT: note_on channel=9 note=40 velocity=127 time=0
EXTRACT: note_on channel=9 note=42 velocity=68 time=0
EXTRACT: note_on channel=2 note=64 velocity=108 time=0.004098358333333333
EXTRACT: note_on channel=2 note=62 velocity=108 time=0
EXTRACT: note_on channel=2 note=55 velocity=116 time=0
EXTRACT: note_on channel=2 note=48 velocity=108 time=0
EXTRACT: note_on channel=0 note=36 velocity=126 time=0.004098358333333333
EXTRACT: note_on channel=1 note=64 velocity=0 time=0
EXTRACT: note_on channel=1 note=62 velocity=0 time=0
EXTRACT: note_on channel=1 note=55 velocity=0 time=0
EXTRACT: note_on channel=1 note=48 velocity=0 time=0
EXTRACT: note_on channel=1 note=64 velocity=116 time=0.004098358333333333
EXTRACT: note_on channel=1 note=62 velocity=112 time=0
EXTRACT: note_on channel=1 note=55 velocity=110 time=0
EXTRACT: note_on channel=1 note=48 velocity=101 time=0
EXTRACT: note_on channel=9 note=40 velocity=0 time=0.02868850833333333
EXTRACT: note_on channel=9 note=42 velocity=0 time=0
EXTRACT: note_on channel=0 note=36 velocity=0 time=0.15163925833333333
EXTRACT: note_on channel=9 note=42 velocity=59 time=0.053278658333333326
EXTRACT: pitchwheel channel=0 pitch=0 time=0.008196716666666666
EXTRACT: note_on channel=0 note=36 velocity=115 time=0
EXTRACT: pitchwheel channel=0 pitch=82 time=0.004098358333333333
EXTRACT: pitchwheel channel=0 pitch=165 time=0.004098358333333333
EXTRACT: pitchwheel channel=0 pitch=247 time=0.004098358333333333
EXTRACT: pitchwheel channel=0 pitch=330 time=0.004098358333333333
EXTRACT: pitchwheel channel=0 pitch=412 time=0.004098358333333333
EXTRACT: pitchwheel channel=0 pitch=494 time=0.004098358333333333
EXTRACT: pitchwheel channel=0 pitch=577 time=0.004098358333333333
EXTRACT: pitchwheel channel=0 pitch=659 time=0.004098358333333333
EXTRACT: note_on channel=9 note=42 velocity=0 time=0
EXTRACT: pitchwheel channel=0 pitch=742 time=0.004098358333333333
EXTRACT: pitchwheel channel=0 pitch=824 time=0.004098358333333333
EXTRACT: pitchwheel channel=0 pitch=906 time=0.004098358333333333
EXTRACT: pitchwheel channel=0 pitch=989 time=0.004098358333333333
EXTRACT: pitchwheel channel=0 pitch=1071 time=0.004098358333333333
EXTRACT: pitchwheel channel=0 pitch=1154 time=0.004098358333333333
EXTRACT: pitchwheel channel=0 pitch=1236 time=0.004098358333333333
EXTRACT: pitchwheel channel=0 pitch=1318 time=0.004098358333333333
EXTRACT: pitchwheel channel=0 pitch=1401 time=0.004098358333333333
EXTRACT: pitchwheel channel=0 pitch=1483 time=0.004098358333333333
EXTRACT: pitchwheel channel=0 pitch=1566 time=0.004098358333333333
EXTRACT: pitchwheel channel=0 pitch=1648 time=0.004098358333333333
EXTRACT: pitchwheel channel=0 pitch=1730 time=0.004098358333333333
EXTRACT: pitchwheel channel=0 pitch=1813 time=0.004098358333333333
EXTRACT: pitchwheel channel=0 pitch=1895 time=0.004098358333333333
EXTRACT: pitchwheel channel=0 pitch=1978 time=0.004098358333333333
EXTRACT: pitchwheel channel=0 pitch=2060 time=0.004098358333333333
EXTRACT: pitchwheel channel=0 pitch=2142 time=0.004098358333333333
EXTRACT: pitchwheel channel=0 pitch=2225 time=0.004098358333333333
EXTRACT: pitchwheel channel=0 pitch=2307 time=0.004098358333333333
EXTRACT: pitchwheel channel=0 pitch=2390 time=0.004098358333333333
EXTRACT: pitchwheel channel=0 pitch=2472 time=0.004098358333333333
EXTRACT: pitchwheel channel=0 pitch=2554 time=0.004098358333333333
EXTRACT: pitchwheel channel=0 pitch=2637 time=0.004098358333333333
EXTRACT: pitchwheel channel=0 pitch=2719 time=0.004098358333333333
EXTRACT: pitchwheel channel=0 pitch=2801 time=0.004098358333333333
EXTRACT: pitchwheel channel=0 pitch=2884 time=0.004098358333333333
EXTRACT: pitchwheel channel=0 pitch=2966 time=0.004098358333333333
EXTRACT: pitchwheel channel=0 pitch=3049 time=0.004098358333333333
EXTRACT: pitchwheel channel=0 pitch=3131 time=0.004098358333333333
EXTRACT: pitchwheel channel=0 pitch=3213 time=0.004098358333333333
EXTRACT: pitchwheel channel=0 pitch=3296 time=0.004098358333333333
EXTRACT: pitchwheel channel=0 pitch=3378 time=0.004098358333333333
EXTRACT: pitchwheel channel=0 pitch=3461 time=0.004098358333333333
EXTRACT: pitchwheel channel=0 pitch=3543 time=0.004098358333333333
EXTRACT: pitchwheel channel=0 pitch=3625 time=0.004098358333333333
EXTRACT: note_on channel=0 note=36 velocity=0 time=0.004098358333333333
EXTRACT: pitchwheel channel=0 pitch=3708 time=0
EXTRACT: pitchwheel channel=0 pitch=3790 time=0.004098358333333333
EXTRACT: pitchwheel channel=0 pitch=3873 time=0.004098358333333333
EXTRACT: pitchwheel channel=0 pitch=3955 time=0.004098358333333333
EXTRACT: pitchwheel channel=0 pitch=4037 time=0.004098358333333333
EXTRACT: pitchwheel channel=0 pitch=4120 time=0.004098358333333333
EXTRACT: pitchwheel channel=0 pitch=4202 time=0.004098358333333333
EXTRACT: pitchwheel channel=0 pitch=4285 time=0.004098358333333333
EXTRACT: pitchwheel channel=0 pitch=4367 time=0.004098358333333333
EXTRACT: pitchwheel channel=0 pitch=4449 time=0.004098358333333333
EXTRACT: pitchwheel channel=0 pitch=4532 time=0.004098358333333333
EXTRACT: pitchwheel channel=0 pitch=4614 time=0.004098358333333333
EXTRACT: pitchwheel channel=0 pitch=4697 time=0.004098358333333333
EXTRACT: pitchwheel channel=0 pitch=4779 time=0.004098358333333333
EXTRACT: note_on channel=2 note=64 velocity=0 time=0
EXTRACT: note_on channel=2 note=62 velocity=0 time=0
EXTRACT: note_on channel=2 note=55 velocity=0 time=0
EXTRACT: note_on channel=2 note=48 velocity=0 time=0
EXTRACT: note_on channel=9 note=36 velocity=120 time=0
EXTRACT: note_on channel=9 note=42 velocity=57 time=0
EXTRACT: note_on channel=2 note=64 velocity=105 time=0.004098358333333333
EXTRACT: note_on channel=2 note=62 velocity=101 time=0
EXTRACT: note_on channel=2 note=55 velocity=110 time=0
EXTRACT: pitchwheel channel=0 pitch=0 time=0.004098358333333333
EXTRACT: note_on channel=0 note=43 velocity=112 time=0
EXTRACT: note_on channel=1 note=64 velocity=0 time=0
EXTRACT: note_on channel=1 note=62 velocity=0 time=0
EXTRACT: note_on channel=1 note=55 velocity=0 time=0
EXTRACT: note_on channel=1 note=48 velocity=0 time=0
EXTRACT: note_on channel=1 note=64 velocity=96 time=0.004098358333333333
EXTRACT: note_on channel=1 note=62 velocity=89 time=0
EXTRACT: note_on channel=1 note=55 velocity=97 time=0
EXTRACT: note_on channel=9 note=36 velocity=0 time=0.02868850833333333
EXTRACT: note_on channel=9 note=42 velocity=0 time=0
EXTRACT: note_on channel=0 note=43 velocity=0 time=0.15163925833333333
EXTRACT: note_on channel=2 note=64 velocity=0 time=0.053278658333333326
EXTRACT: note_on channel=2 note=62 velocity=0 time=0
EXTRACT: note_on channel=2 note=55 velocity=0 time=0
EXTRACT: note_on channel=9 note=36 velocity=110 time=0
EXTRACT: note_on channel=9 note=42 velocity=49 time=0
EXTRACT: note_on channel=2 note=64 velocity=112 time=0.004098358333333333
EXTRACT: note_on channel=2 note=62 velocity=104 time=0
EXTRACT: note_on channel=2 note=55 velocity=73 time=0
EXTRACT: note_on channel=2 note=48 velocity=100 time=0
EXTRACT: note_on channel=0 note=43 velocity=116 time=0.004098358333333333
EXTRACT: note_on channel=1 note=64 velocity=0 time=0
EXTRACT: note_on channel=1 note=62 velocity=0 time=0
EXTRACT: note_on channel=1 note=55 velocity=0 time=0
EXTRACT: note_on channel=1 note=64 velocity=112 time=0.004098358333333333
EXTRACT: note_on channel=1 note=62 velocity=115 time=0
EXTRACT: note_on channel=1 note=55 velocity=83 time=0
EXTRACT: note_on channel=1 note=48 velocity=89 time=0
EXTRACT: note_on channel=9 note=36 velocity=0 time=0.02868850833333333
EXTRACT: note_on channel=9 note=42 velocity=0 time=0
EXTRACT: note_on channel=0 note=43 velocity=0 time=0.15163925833333333
EXTRACT: note_on channel=2 note=64 velocity=0 time=0.053278658333333326
EXTRACT: note_on channel=2 note=62 velocity=0 time=0
EXTRACT: note_on channel=2 note=55 velocity=0 time=0
EXTRACT: note_on channel=2 note=48 velocity=0 time=0
EXTRACT: note_on channel=9 note=40 velocity=127 time=0
EXTRACT: note_on channel=9 note=42 velocity=58 time=0
EXTRACT: note_on channel=2 note=64 velocity=113 time=0.004098358333333333
EXTRACT: note_on channel=2 note=62 velocity=87 time=0
EXTRACT: note_on channel=2 note=55 velocity=109 time=0
EXTRACT: note_on channel=2 note=48 velocity=111 time=0
EXTRACT: note_on channel=0 note=43 velocity=118 time=0.004098358333333333
EXTRACT: note_on channel=1 note=64 velocity=0 time=0
EXTRACT: note_on channel=1 note=62 velocity=0 time=0
EXTRACT: note_on channel=1 note=55 velocity=0 time=0
EXTRACT: note_on channel=1 note=48 velocity=0 time=0
EXTRACT: note_on channel=1 note=64 velocity=85 time=0.004098358333333333
EXTRACT: note_on channel=1 note=62 velocity=100 time=0
EXTRACT: note_on channel=1 note=55 velocity=88 time=0
EXTRACT: note_on channel=1 note=48 velocity=104 time=0
EXTRACT: note_on channel=9 note=40 velocity=0 time=0.02868850833333333
EXTRACT: note_on channel=9 note=42 velocity=0 time=0
EXTRACT: note_on channel=0 note=43 velocity=0 time=0.15163925833333333
EXTRACT: note_on channel=2 note=64 velocity=0 time=0.053278658333333326
EXTRACT: note_on channel=2 note=62 velocity=0 time=0
EXTRACT: note_on channel=2 note=55 velocity=0 time=0
EXTRACT: note_on channel=2 note=48 velocity=0 time=0
EXTRACT: note_on channel=9 note=36 velocity=110 time=0
EXTRACT: note_on channel=9 note=42 velocity=42 time=0
EXTRACT: note_on channel=2 note=64 velocity=104 time=0.004098358333333333
EXTRACT: note_on channel=2 note=62 velocity=102 time=0
EXTRACT: note_on channel=2 note=55 velocity=106 time=0
EXTRACT: note_on channel=0 note=36 velocity=118 time=0.004098358333333333
EXTRACT: note_on channel=1 note=64 velocity=0 time=0
EXTRACT: note_on channel=1 note=62 velocity=0 time=0
EXTRACT: note_on channel=1 note=55 velocity=0 time=0
EXTRACT: note_on channel=1 note=48 velocity=0 time=0
EXTRACT: note_on channel=1 note=64 velocity=60 time=0.004098358333333333
EXTRACT: note_on channel=1 note=62 velocity=98 time=0
EXTRACT: note_on channel=1 note=55 velocity=81 time=0
EXTRACT: note_on channel=9 note=36 velocity=0 time=0.02868850833333333
EXTRACT: note_on channel=9 note=42 velocity=0 time=0
EXTRACT: note_on channel=5 note=62 velocity=0 time=0.21106545416666664
EXTRACT: note_on channel=0 note=36 velocity=0 time=0.0020491791666666665
EXTRACT: note_on channel=4 note=74 velocity=0 time=0.0010245895833333333
EXTRACT: note_on channel=4 note=76 velocity=111 time=0
EXTRACT: note_on channel=2 note=64 velocity=0 time=0.23668019375
EXTRACT: note_on channel=2 note=62 velocity=0 time=0
EXTRACT: note_on channel=2 note=55 velocity=0 time=0
EXTRACT: note_on channel=9 note=36 velocity=120 time=0
EXTRACT: note_on channel=2 note=64 velocity=88 time=0.004098358333333333
EXTRACT: note_on channel=2 note=60 velocity=113 time=0
EXTRACT: note_on channel=2 note=55 velocity=91 time=0
EXTRACT: note_on channel=0 note=28 velocity=126 time=0.004098358333333333
EXTRACT: note_on channel=1 note=64 velocity=0 time=0
EXTRACT: note_on channel=1 note=62 velocity=0 time=0
EXTRACT: note_on channel=1 note=55 velocity=0 time=0
EXTRACT: note_on channel=1 note=64 velocity=116 time=0.004098358333333333
EXTRACT: note_on channel=1 note=60 velocity=71 time=0
EXTRACT: note_on channel=1 note=55 velocity=73 time=0
EXTRACT: note_on channel=9 note=36 velocity=0 time=0.02868850833333333
EXTRACT: note_on channel=2 note=64 velocity=0 time=0.20491791666666664
EXTRACT: note_on channel=2 note=60 velocity=0 time=0
EXTRACT: note_on channel=2 note=55 velocity=0 time=0
EXTRACT: note_on channel=9 note=40 velocity=120 time=0
EXTRACT: note_on channel=2 note=64 velocity=89 time=0.004098358333333333
EXTRACT: note_on channel=2 note=60 velocity=109 time=0
EXTRACT: note_on channel=2 note=55 velocity=88 time=0
EXTRACT: note_on channel=2 note=48 velocity=107 time=0
EXTRACT: note_on channel=1 note=64 velocity=0 time=0.004098358333333333
EXTRACT: note_on channel=1 note=60 velocity=0 time=0
EXTRACT: note_on channel=1 note=55 velocity=0 time=0
EXTRACT: note_on channel=1 note=64 velocity=88 time=0.004098358333333333
EXTRACT: note_on channel=1 note=60 velocity=86 time=0
EXTRACT: note_on channel=1 note=55 velocity=112 time=0
EXTRACT: note_on channel=1 note=48 velocity=105 time=0
EXTRACT: note_on channel=9 note=40 velocity=0 time=0.02868850833333333
EXTRACT: note_on channel=9 note=40 velocity=60 time=0.08196716666666666
EXTRACT: note_on channel=0 note=28 velocity=0 time=0.008196716666666666
EXTRACT: note_on channel=9 note=40 velocity=0 time=0.032786866666666664
EXTRACT: note_on channel=2 note=64 velocity=0 time=0.08196716666666666
EXTRACT: note_on channel=2 note=60 velocity=0 time=0
EXTRACT: note_on channel=2 note=55 velocity=0 time=0
EXTRACT: note_on channel=2 note=48 velocity=0 time=0
EXTRACT: note_on channel=9 note=40 velocity=120 time=0
EXTRACT: note_on channel=2 note=64 velocity=95 time=0.004098358333333333
EXTRACT: note_on channel=2 note=60 velocity=73 time=0
EXTRACT: note_on channel=2 note=55 velocity=111 time=0
EXTRACT: note_on channel=1 note=64 velocity=0 time=0.004098358333333333
EXTRACT: note_on channel=1 note=60 velocity=0 time=0
EXTRACT: note_on channel=1 note=55 velocity=0 time=0
EXTRACT: note_on channel=1 note=48 velocity=0 time=0
EXTRACT: note_on channel=1 note=64 velocity=115 time=0.004098358333333333
EXTRACT: note_on channel=1 note=60 velocity=92 time=0
EXTRACT: note_on channel=1 note=55 velocity=66 time=0
EXTRACT: note_on channel=9 note=40 velocity=0 time=0.02868850833333333
EXTRACT: note_on channel=9 note=36 velocity=120 time=0.08196716666666666
EXTRACT: note_on channel=9 note=36 velocity=0 time=0.04098358333333333
EXTRACT: note_on channel=2 note=64 velocity=0 time=0.08196716666666666
EXTRACT: note_on channel=2 note=60 velocity=0 time=0
EXTRACT: note_on channel=2 note=55 velocity=0 time=0
EXTRACT: note_on channel=9 note=40 velocity=110 time=0
EXTRACT: note_on channel=2 note=64 velocity=87 time=0.004098358333333333
EXTRACT: note_on channel=2 note=60 velocity=114 time=0
EXTRACT: note_on channel=2 note=55 velocity=91 time=0
EXTRACT: note_on channel=2 note=48 velocity=114 time=0
EXTRACT: note_on channel=0 note=31 velocity=117 time=0.004098358333333333
EXTRACT: note_on channel=1 note=64 velocity=0 time=0
EXTRACT: note_on channel=1 note=60 velocity=0 time=0
EXTRACT: note_on channel=1 note=55 velocity=0 time=0
EXTRACT: note_on channel=1 note=64 velocity=82 time=0.004098358333333333
EXTRACT: note_on channel=1 note=60 velocity=80 time=0
EXTRACT: note_on channel=1 note=55 velocity=87 time=0
EXTRACT: note_on channel=1 note=48 velocity=115 time=0
EXTRACT: note_on channel=9 note=40 velocity=0 time=0.02868850833333333
EXTRACT: note_on channel=0 note=31 velocity=0 time=0.15163925833333333
EXTRACT: note_on channel=2 note=64 velocity=0 time=0.053278658333333326
EXTRACT: note_on channel=2 note=60 velocity=0 time=0
EXTRACT: note_on channel=2 note=55 velocity=0 time=0
EXTRACT: note_on channel=2 note=48 velocity=0 time=0
EXTRACT: note_on channel=9 note=36 velocity=120 time=0
EXTRACT: note_on channel=2 note=64 velocity=102 time=0.004098358333333333
EXTRACT: note_on channel=2 note=60 velocity=106 time=0
EXTRACT: note_on channel=2 note=55 velocity=66 time=0
EXTRACT: note_on channel=0 note=35 velocity=122 time=0.004098358333333333
EXTRACT: note_on channel=1 note=64 velocity=0 time=0
EXTRACT: note_on channel=1 note=60 velocity=0 time=0
EXTRACT: note_on channel=1 note=55 velocity=0 time=0
EXTRACT: note_on channel=1 note=48 velocity=0 time=0
EXTRACT: note_on channel=1 note=64 velocity=96 time=0.004098358333333333
EXTRACT: note_on channel=1 note=60 velocity=71 time=0
EXTRACT: note_on channel=1 note=55 velocity=61 time=0
EXTRACT: note_on channel=9 note=36 velocity=0 time=0.02868850833333333
EXTRACT: note_on channel=0 note=35 velocity=0 time=0.15163925833333333
EXTRACT: note_on channel=2 note=64 velocity=0 time=0.053278658333333326
EXTRACT: note_on channel=2 note=60 velocity=0 time=0
EXTRACT: note_on channel=2 note=55 velocity=0 time=0
EXTRACT: note_on channel=9 note=40 velocity=110 time=0
EXTRACT: note_on channel=2 note=64 velocity=88 time=0.004098358333333333
EXTRACT: note_on channel=2 note=60 velocity=88 time=0
EXTRACT: note_on channel=2 note=55 velocity=108 time=0
EXTRACT: note_on channel=2 note=48 velocity=113 time=0
EXTRACT: note_on channel=0 note=36 velocity=120 time=0.004098358333333333
EXTRACT: note_on channel=1 note=64 velocity=0 time=0
EXTRACT: note_on channel=1 note=60 velocity=0 time=0
EXTRACT: note_on channel=1 note=55 velocity=0 time=0
EXTRACT: note_on channel=1 note=64 velocity=109 time=0.004098358333333333
EXTRACT: note_on channel=1 note=60 velocity=117 time=0
EXTRACT: note_on channel=1 note=55 velocity=108 time=0
EXTRACT: note_on channel=1 note=48 velocity=113 time=0
EXTRACT: note_on channel=9 note=40 velocity=127 time=0
EXTRACT: note_on channel=9 note=40 velocity=0 time=0.02868850833333333
EXTRACT: note_on channel=9 note=40 velocity=0 time=0.012295074999999999
EXTRACT: note_on channel=0 note=36 velocity=0 time=0.13934418333333332
EXTRACT: note_on channel=2 note=64 velocity=0 time=0.053278658333333326
EXTRACT: note_on channel=2 note=60 velocity=0 time=0
EXTRACT: note_on channel=2 note=55 velocity=0 time=0
EXTRACT: note_on channel=2 note=48 velocity=0 time=0
EXTRACT: note_on channel=9 note=36 velocity=120 time=0
EXTRACT: note_on channel=2 note=64 velocity=68 time=0.004098358333333333
EXTRACT: note_on channel=2 note=60 velocity=89 time=0
EXTRACT: note_on channel=2 note=55 velocity=88 time=0
EXTRACT: note_on channel=0 note=37 velocity=118 time=0.004098358333333333
EXTRACT: note_on channel=1 note=64 velocity=0 time=0
EXTRACT: note_on channel=1 note=60 velocity=0 time=0
EXTRACT: note_on channel=1 note=55 velocity=0 time=0
EXTRACT: note_on channel=1 note=48 velocity=0 time=0
EXTRACT: note_on channel=1 note=64 velocity=97 time=0.004098358333333333
EXTRACT: note_on channel=1 note=60 velocity=96 time=0
EXTRACT: note_on channel=1 note=55 velocity=88 time=0
EXTRACT: note_on channel=9 note=36 velocity=0 time=0.02868850833333333
EXTRACT: note_on channel=0 note=37 velocity=0 time=0.15163925833333333
EXTRACT: note_on channel=2 note=64 velocity=0 time=0.053278658333333326
EXTRACT: note_on channel=2 note=60 velocity=0 time=0
EXTRACT: note_on channel=2 note=55 velocity=0 time=0
EXTRACT: note_on channel=9 note=49 velocity=100 time=0
EXTRACT: note_on channel=9 note=36 velocity=120 time=0
EXTRACT: note_on channel=2 note=64 velocity=101 time=0.004098358333333333
EXTRACT: note_on channel=2 note=62 velocity=93 time=0
EXTRACT: note_on channel=2 note=57 velocity=93 time=0
EXTRACT: note_on channel=2 note=50 velocity=85 time=0
EXTRACT: note_on channel=0 note=38 velocity=102 time=0.004098358333333333
EXTRACT: note_on channel=1 note=64 velocity=0 time=0
EXTRACT: note_on channel=1 note=60 velocity=0 time=0
EXTRACT: note_on channel=1 note=55 velocity=0 time=0
EXTRACT: note_on channel=4 note=72 velocity=0 time=0.0010245895833333333
EXTRACT: note_on channel=4 note=67 velocity=0 time=0
EXTRACT: note_on channel=4 note=76 velocity=0 time=0
EXTRACT: note_on channel=4 note=76 velocity=106 time=0
EXTRACT: note_on channel=4 note=69 velocity=102 time=0
EXTRACT: note_on channel=4 note=74 velocity=106 time=0
EXTRACT: note_on channel=1 note=64 velocity=90 time=0.0030737687499999998
EXTRACT: note_on channel=1 note=62 velocity=95 time=0
EXTRACT: note_on channel=1 note=57 velocity=82 time=0
EXTRACT: note_on channel=1 note=50 velocity=91 time=0
EXTRACT: note_on channel=9 note=49 velocity=0 time=0.02868850833333333
EXTRACT: note_on channel=9 note=36 velocity=0 time=0
EXTRACT: note_on channel=9 note=42 velocity=47 time=0.20491791666666664
EXTRACT: note_on channel=0 note=38 velocity=0 time=0.008196716666666666
EXTRACT: note_on channel=9 note=42 velocity=0 time=0.032786866666666664
EXTRACT: note_on channel=2 note=64 velocity=0 time=0.20491791666666664
EXTRACT: note_on channel=2 note=62 velocity=0 time=0
EXTRACT: note_on channel=2 note=57 velocity=0 time=0
EXTRACT: note_on channel=2 note=50 velocity=0 time=0
EXTRACT: note_on channel=9 note=40 velocity=127 time=0
EXTRACT: note_on channel=9 note=42 velocity=68 time=0
EXTRACT: note_on channel=2 note=64 velocity=109 time=0.004098358333333333
EXTRACT: note_on channel=2 note=62 velocity=115 time=0
EXTRACT: note_on channel=2 note=57 velocity=95 time=0
EXTRACT: note_on channel=2 note=50 velocity=105 time=0
EXTRACT: note_on channel=0 note=38 velocity=121 time=0.004098358333333333
EXTRACT: note_on channel=1 note=64 velocity=0 time=0
EXTRACT: note_on channel=1 note=62 velocity=0 time=0
EXTRACT: note_on channel=1 note=57 velocity=0 time=0
EXTRACT: note_on channel=1 note=50 velocity=0 time=0
EXTRACT: note_on channel=1 note=64 velocity=107 time=0.004098358333333333
EXTRACT: note_on channel=1 note=62 velocity=110 time=0
EXTRACT: note_on channel=1 note=57 velocity=99 time=0
EXTRACT: note_on channel=1 note=50 velocity=97 time=0
EXTRACT: note_on channel=9 note=40 velocity=0 time=0.02868850833333333
EXTRACT: note_on channel=9 note=42 velocity=0 time=0
EXTRACT: note_on channel=0 note=38 velocity=0 time=0.15163925833333333
EXTRACT: note_on channel=9 note=42 velocity=59 time=0.053278658333333326
EXTRACT: note_on channel=0 note=38 velocity=108 time=0.008196716666666666
EXTRACT: note_on channel=9 note=42 velocity=0 time=0.032786866666666664
EXTRACT: note_on channel=0 note=38 velocity=0 time=0.15163925833333333
EXTRACT: note_on channel=2 note=64 velocity=0 time=0.053278658333333326
EXTRACT: note_on channel=2 note=62 velocity=0 time=0
EXTRACT: note_on channel=2 note=57 velocity=0 time=0
EXTRACT: note_on channel=2 note=50 velocity=0 time=0
EXTRACT: note_on channel=9 note=36 velocity=120 time=0
EXTRACT: note_on channel=9 note=42 velocity=59 time=0
EXTRACT: note_on channel=2 note=64 velocity=100 time=0.004098358333333333
EXTRACT: note_on channel=2 note=62 velocity=85 time=0
EXTRACT: note_on channel=2 note=57 velocity=109 time=0
EXTRACT: note_on channel=2 note=50 velocity=110 time=0
EXTRACT: note_on channel=5 note=69 velocity=105 time=0.0020491791666666665
EXTRACT: note_on channel=0 note=38 velocity=119 time=0.0020491791666666665
EXTRACT: note_on channel=1 note=64 velocity=0 time=0
EXTRACT: note_on channel=1 note=62 velocity=0 time=0
EXTRACT: note_on channel=1 note=57 velocity=0 time=0
EXTRACT: note_on channel=1 note=50 velocity=0 time=0
EXTRACT: note_on channel=1 note=64 velocity=108 time=0.004098358333333333
EXTRACT: note_on channel=1 note=62 velocity=85 time=0
EXTRACT: note_on channel=1 note=57 velocity=83 time=0
EXTRACT: note_on channel=1 note=50 velocity=89 time=0
EXTRACT: note_on channel=9 note=36 velocity=0 time=0.02868850833333333
EXTRACT: note_on channel=9 note=42 velocity=0 time=0
EXTRACT: note_on channel=0 note=38 velocity=0 time=0.15163925833333333
EXTRACT: note_on channel=2 note=64 velocity=0 time=0.053278658333333326
EXTRACT: note_on channel=2 note=62 velocity=0 time=0
EXTRACT: note_on channel=2 note=57 velocity=0 time=0
EXTRACT: note_on channel=2 note=50 velocity=0 time=0
EXTRACT: note_on channel=9 note=36 velocity=110 time=0
EXTRACT: note_on channel=9 note=42 velocity=41 time=0
EXTRACT: note_on channel=5 note=69 velocity=0 time=0.0020491791666666665
EXTRACT: note_on channel=2 note=64 velocity=68 time=0.0020491791666666665
EXTRACT: note_on channel=2 note=62 velocity=88 time=0
EXTRACT: note_on channel=2 note=57 velocity=108 time=0
EXTRACT: note_on channel=5 note=69 velocity=100 time=0.0020491791666666665
EXTRACT: note_on channel=0 note=38 velocity=111 time=0.0020491791666666665
EXTRACT: note_on channel=1 note=64 velocity=0 time=0
EXTRACT: note_on channel=1 note=62 velocity=0 time=0
EXTRACT: note_on channel=1 note=57 velocity=0 time=0
EXTRACT: note_on channel=1 note=50 velocity=0 time=0
EXTRACT: note_on channel=1 note=64 velocity=87 time=0.004098358333333333
EXTRACT: note_on channel=1 note=62 velocity=113 time=0
EXTRACT: note_on channel=1 note=57 velocity=85 time=0
EXTRACT: note_on channel=9 note=36 velocity=0 time=0.02868850833333333
EXTRACT: note_on channel=9 note=42 velocity=0 time=0
EXTRACT: note_on channel=0 note=38 velocity=0 time=0.15163925833333333
EXTRACT: note_on channel=2 note=64 velocity=0 time=0.053278658333333326
EXTRACT: note_on channel=2 note=62 velocity=0 time=0
EXTRACT: note_on channel=2 note=57 velocity=0 time=0
EXTRACT: note_on channel=9 note=40 velocity=127 time=0
EXTRACT: note_on channel=9 note=42 velocity=61 time=0
EXTRACT: note_on channel=2 note=64 velocity=108 time=0.004098358333333333
EXTRACT: note_on channel=2 note=62 velocity=90 time=0
EXTRACT: note_on channel=2 note=57 velocity=96 time=0
EXTRACT: note_on channel=2 note=50 velocity=101 time=0
EXTRACT: note_on channel=5 note=69 velocity=0 time=0.0020491791666666665
EXTRACT: note_on channel=0 note=38 velocity=103 time=0.0020491791666666665
EXTRACT: note_on channel=1 note=64 velocity=0 time=0
EXTRACT: note_on channel=1 note=62 velocity=0 time=0
EXTRACT: note_on channel=1 note=57 velocity=0 time=0
EXTRACT: note_on channel=1 note=64 velocity=116 time=0.004098358333333333
EXTRACT: note_on channel=1 note=62 velocity=85 time=0
EXTRACT: note_on channel=1 note=57 velocity=100 time=0
EXTRACT: note_on channel=1 note=50 velocity=98 time=0
EXTRACT: note_on channel=9 note=40 velocity=0 time=0.02868850833333333
EXTRACT: note_on channel=9 note=42 velocity=0 time=0
EXTRACT: note_on channel=0 note=38 velocity=0 time=0.15163925833333333
EXTRACT: note_on channel=2 note=64 velocity=0 time=0.053278658333333326
EXTRACT: note_on channel=2 note=62 velocity=0 time=0
EXTRACT: note_on channel=2 note=57 velocity=0 time=0
EXTRACT: note_on channel=2 note=50 velocity=0 time=0
EXTRACT: note_on channel=9 note=42 velocity=45 time=0
EXTRACT: note_on channel=2 note=64 velocity=102 time=0.004098358333333333
EXTRACT: note_on channel=2 note=62 velocity=104 time=0
EXTRACT: note_on channel=2 note=57 velocity=86 time=0
EXTRACT: note_on channel=5 note=69 velocity=115 time=0.0020491791666666665
EXTRACT: note_on channel=0 note=45 velocity=115 time=0.0020491791666666665
EXTRACT: note_on channel=1 note=64 velocity=0 time=0
EXTRACT: note_on channel=1 note=62 velocity=0 time=0
EXTRACT: note_on channel=1 note=57 velocity=0 time=0
EXTRACT: note_on channel=1 note=50 velocity=0 time=0
EXTRACT: note_on channel=1 note=64 velocity=106 time=0.004098358333333333
EXTRACT: note_on channel=1 note=62 velocity=91 time=0
EXTRACT: note_on channel=1 note=57 velocity=73 time=0
EXTRACT: note_on channel=9 note=42 velocity=0 time=0.02868850833333333
EXTRACT: note_on channel=9 note=42 velocity=68 time=0.20491791666666664
EXTRACT: note_on channel=9 note=36 velocity=120 time=0
EXTRACT: note_on channel=5 note=69 velocity=0 time=0.0061475374999999995
EXTRACT: note_on channel=0 note=45 velocity=0 time=0.0020491791666666665
EXTRACT: note_on channel=4 note=76 velocity=0 time=0.0010245895833333333
EXTRACT: note_on channel=4 note=77 velocity=94 time=0
EXTRACT: note_on channel=9 note=42 velocity=0 time=0.03176227708333333
EXTRACT: note_on channel=9 note=36 velocity=0 time=0
EXTRACT: note_on channel=2 note=64 velocity=0 time=0.20491791666666664
EXTRACT: note_on channel=2 note=62 velocity=0 time=0
EXTRACT: note_on channel=2 note=57 velocity=0 time=0
EXTRACT: note_on channel=9 note=36 velocity=120 time=0
EXTRACT: note_on channel=9 note=42 velocity=45 time=0
EXTRACT: note_on channel=2 note=65 velocity=84 time=0.004098358333333333
EXTRACT: note_on channel=2 note=62 velocity=99 time=0
EXTRACT: note_on channel=2 note=57 velocity=99 time=0
EXTRACT: note_on channel=5 note=71 velocity=101 time=0.0020491791666666665
EXTRACT: note_on channel=0 note=45 velocity=126 time=0.0020491791666666665
EXTRACT: note_on channel=1 note=64 velocity=0 time=0
EXTRACT: note_on channel=1 note=62 velocity=0 time=0
EXTRACT: note_on channel=1 note=57 velocity=0 time=0
EXTRACT: note_on channel=1 note=65 velocity=71 time=0.004098358333333333
EXTRACT: note_on channel=1 note=62 velocity=91 time=0
EXTRACT: note_on channel=1 note=57 velocity=64 time=0
EXTRACT: note_on channel=9 note=36 velocity=0 time=0.02868850833333333
EXTRACT: note_on channel=9 note=42 velocity=0 time=0
EXTRACT: note_on channel=0 note=45 velocity=0 time=0.15163925833333333
EXTRACT: note_on channel=2 note=65 velocity=0 time=0.053278658333333326
EXTRACT: note_on channel=2 note=62 velocity=0 time=0
EXTRACT: note_on channel=2 note=57 velocity=0 time=0
EXTRACT: note_on channel=9 note=40 velocity=127 time=0
EXTRACT: note_on channel=9 note=42 velocity=59 time=0
EXTRACT: note_on channel=2 note=65 velocity=117 time=0.004098358333333333
EXTRACT: note_on channel=2 note=62 velocity=98 time=0
EXTRACT: note_on channel=2 note=57 velocity=105 time=0
EXTRACT: note_on channel=5 note=71 velocity=0 time=0.0020491791666666665
EXTRACT: note_on channel=0 note=40 velocity=103 time=0.0020491791666666665
EXTRACT: note_on channel=1 note=65 velocity=0 time=0
EXTRACT: note_on channel=1 note=62 velocity=0 time=0
EXTRACT: note_on channel=1 note=57 velocity=0 time=0
EXTRACT: note_on channel=1 note=65 velocity=106 time=0.004098358333333333
EXTRACT: note_on channel=1 note=62 velocity=102 time=0
EXTRACT: note_on channel=1 note=57 velocity=84 time=0
EXTRACT: note_on channel=9 note=40 velocity=0 time=0.02868850833333333
EXTRACT: note_on channel=9 note=42 velocity=0 time=0
EXTRACT: note_on channel=0 note=40 velocity=0 time=0.15163925833333333
EXTRACT: note_on channel=2 note=65 velocity=0 time=0.053278658333333326
EXTRACT: note_on channel=2 note=62 velocity=0 time=0
EXTRACT: note_on channel=2 note=57 velocity=0 time=0
EXTRACT: note_on channel=9 note=42 velocity=62 time=0
EXTRACT: note_on channel=2 note=65 velocity=82 time=0.004098358333333333
EXTRACT: note_on channel=2 note=62 velocity=80 time=0
EXTRACT: note_on channel=2 note=57 velocity=94 time=0
EXTRACT: note_on channel=2 note=50 velocity=71 time=0
EXTRACT: note_on channel=5 note=72 velocity=109 time=0.0020491791666666665
EXTRACT: note_on channel=0 note=40 velocity=122 time=0.0020491791666666665
EXTRACT: note_on channel=1 note=65 velocity=0 time=0
EXTRACT: note_on channel=1 note=62 velocity=0 time=0
EXTRACT: note_on channel=1 note=57 velocity=0 time=0
EXTRACT: note_on channel=1 note=65 velocity=114 time=0.004098358333333333
EXTRACT: note_on channel=1 note=62 velocity=102 time=0
EXTRACT: note_on channel=1 note=57 velocity=113 time=0
EXTRACT: note_on channel=1 note=50 velocity=72 time=0
EXTRACT: note_on channel=9 note=42 velocity=0 time=0.02868850833333333
EXTRACT: note_on channel=0 note=40 velocity=0 time=0.15163925833333333
EXTRACT: note_on channel=2 note=65 velocity=0 time=0.053278658333333326
EXTRACT: note_on channel=2 note=62 velocity=0 time=0
EXTRACT: note_on channel=2 note=57 velocity=0 time=0
EXTRACT: note_on channel=2 note=50 velocity=0 time=0
EXTRACT: note_on channel=9 note=36 velocity=120 time=0
EXTRACT: note_on channel=9 note=42 velocity=65 time=0
EXTRACT: note_on channel=2 note=65 velocity=113 time=0.004098358333333333
EXTRACT: note_on channel=2 note=62 velocity=92 time=0
EXTRACT: note_on channel=2 note=57 velocity=111 time=0
EXTRACT: note_on channel=2 note=50 velocity=115 time=0
EXTRACT: note_on channel=0 note=41 velocity=102 time=0.004098358333333333
EXTRACT: note_on channel=1 note=65 velocity=0 time=0
EXTRACT: note_on channel=1 note=62 velocity=0 time=0
EXTRACT: note_on channel=1 note=57 velocity=0 time=0
EXTRACT: note_on channel=1 note=50 velocity=0 time=0
EXTRACT: note_on channel=1 note=65 velocity=113 time=0.004098358333333333
EXTRACT: note_on channel=1 note=62 velocity=98 time=0
EXTRACT: note_on channel=1 note=57 velocity=88 time=0
EXTRACT: note_on channel=1 note=50 velocity=92 time=0
EXTRACT: note_on channel=9 note=36 velocity=0 time=0.02868850833333333
EXTRACT: note_on channel=9 note=42 velocity=0 time=0
EXTRACT: note_on channel=0 note=41 velocity=0 time=0.15163925833333333
EXTRACT: note_on channel=2 note=65 velocity=0 time=0.053278658333333326
EXTRACT: note_on channel=2 note=62 velocity=0 time=0
EXTRACT: note_on channel=2 note=57 velocity=0 time=0
EXTRACT: note_on channel=2 note=50 velocity=0 time=0
EXTRACT: note_on channel=9 note=36 velocity=110 time=0
EXTRACT: note_on channel=9 note=42 velocity=41 time=0
EXTRACT: note_on channel=2 note=65 velocity=90 time=0.004098358333333333
EXTRACT: note_on channel=2 note=62 velocity=115 time=0
EXTRACT: note_on channel=2 note=57 velocity=112 time=0
EXTRACT: note_on channel=0 note=41 velocity=127 time=0.004098358333333333
EXTRACT: note_on channel=1 note=65 velocity=0 time=0
EXTRACT: note_on channel=1 note=62 velocity=0 time=0
EXTRACT: note_on channel=1 note=57 velocity=0 time=0
EXTRACT: note_on channel=1 note=50 velocity=0 time=0
EXTRACT: note_on channel=1 note=65 velocity=109 time=0.004098358333333333
EXTRACT: note_on channel=1 note=62 velocity=105 time=0
EXTRACT: note_on channel=1 note=57 velocity=97 time=0
EXTRACT: note_on channel=9 note=36 velocity=0 time=0.02868850833333333
EXTRACT: note_on channel=9 note=42 velocity=0 time=0
EXTRACT: note_on channel=0 note=41 velocity=0 time=0.15163925833333333
EXTRACT: note_on channel=2 note=65 velocity=0 time=0.053278658333333326
EXTRACT: note_on channel=2 note=62 velocity=0 time=0
EXTRACT: note_on channel=2 note=57 velocity=0 time=0
EXTRACT: note_on channel=9 note=40 velocity=127 time=0
EXTRACT: note_on channel=9 note=42 velocity=61 time=0
EXTRACT: note_on channel=2 note=65 velocity=91 time=0.004098358333333333
EXTRACT: note_on channel=2 note=62 velocity=86 time=0
EXTRACT: note_on channel=2 note=57 velocity=86 time=0
EXTRACT: note_on channel=2 note=50 velocity=104 time=0
EXTRACT: note_on channel=0 note=43 velocity=104 time=0.004098358333333333
EXTRACT: note_on channel=1 note=65 velocity=0 time=0
EXTRACT: note_on channel=1 note=62 velocity=0 time=0
EXTRACT: note_on channel=1 note=57 velocity=0 time=0
EXTRACT: note_on channel=1 note=65 velocity=104 time=0.004098358333333333
EXTRACT: note_on channel=1 note=62 velocity=93 time=0
EXTRACT: note_on channel=1 note=57 velocity=94 time=0
EXTRACT: note_on channel=1 note=50 velocity=114 time=0
EXTRACT: note_on channel=9 note=40 velocity=0 time=0.02868850833333333
EXTRACT: note_on channel=9 note=42 velocity=0 time=0
EXTRACT: note_on channel=0 note=43 velocity=0 time=0.15163925833333333
EXTRACT: note_on channel=2 note=65 velocity=0 time=0.053278658333333326
EXTRACT: note_on channel=2 note=62 velocity=0 time=0
EXTRACT: note_on channel=2 note=57 velocity=0 time=0
EXTRACT: note_on channel=2 note=50 velocity=0 time=0
EXTRACT: note_on channel=9 note=42 velocity=41 time=0
EXTRACT: note_on channel=2 note=65 velocity=66 time=0.004098358333333333
EXTRACT: note_on channel=2 note=62 velocity=74 time=0
EXTRACT: note_on channel=2 note=57 velocity=80 time=0
EXTRACT: note_on channel=2 note=50 velocity=95 time=0
EXTRACT: note_on channel=0 note=43 velocity=105 time=0.004098358333333333
EXTRACT: note_on channel=1 note=65 velocity=0 time=0
EXTRACT: note_on channel=1 note=62 velocity=0 time=0
EXTRACT: note_on channel=1 note=57 velocity=0 time=0
EXTRACT: note_on channel=1 note=50 velocity=0 time=0
EXTRACT: note_on channel=1 note=65 velocity=70 time=0.004098358333333333
EXTRACT: note_on channel=1 note=62 velocity=105 time=0
EXTRACT: note_on channel=1 note=57 velocity=102 time=0
EXTRACT: note_on channel=1 note=50 velocity=61 time=0
EXTRACT: note_on channel=9 note=42 velocity=0 time=0.02868850833333333
EXTRACT: note_on channel=0 note=43 velocity=0 time=0.15163925833333333
EXTRACT: note_on channel=2 note=65 velocity=0 time=0.053278658333333326
EXTRACT: note_on channel=2 note=62 velocity=0 time=0
EXTRACT: note_on channel=2 note=57 velocity=0 time=0
EXTRACT: note_on channel=2 note=50 velocity=0 time=0
EXTRACT: note_on channel=9 note=42 velocity=58 time=0
EXTRACT: note_on channel=9 note=36 velocity=120 time=0
EXTRACT: note_on channel=5 note=72 velocity=0 time=0.0020491791666666665
EXTRACT: note_on channel=2 note=64 velocity=89 time=0.0020491791666666665
EXTRACT: note_on channel=2 note=62 velocity=87 time=0
EXTRACT: note_on channel=2 note=55 velocity=107 time=0
EXTRACT: note_on channel=2 note=48 velocity=87 time=0
EXTRACT: note_on channel=5 note=71 velocity=98 time=0.0020491791666666665
EXTRACT: note_on channel=0 note=36 velocity=110 time=0.0020491791666666665
EXTRACT: note_on channel=1 note=65 velocity=0 time=0
EXTRACT: note_on channel=1 note=62 velocity=0 time=0
EXTRACT: note_on channel=1 note=57 velocity=0 time=0
EXTRACT: note_on channel=1 note=50 velocity=0 time=0
EXTRACT: note_on channel=4 note=69 velocity=0 time=0.0010245895833333333
EXTRACT: note_on channel=4 note=74 velocity=0 time=0
EXTRACT: note_on channel=4 note=77 velocity=0 time=0
EXTRACT: note_on channel=4 note=74 velocity=121 time=0
EXTRACT: note_on channel=4 note=72 velocity=115 time=0
EXTRACT: note_on channel=4 note=67 velocity=108 time=0
EXTRACT: note_on channel=1 note=64 velocity=101 time=0.0030737687499999998
EXTRACT: note_on channel=1 note=62 velocity=115 time=0
EXTRACT: note_on channel=1 note=55 velocity=84 time=0
EXTRACT: note_on channel=1 note=48 velocity=91 time=0
EXTRACT: note_on channel=9 note=42 velocity=0 time=0.02868850833333333
EXTRACT: note_on channel=9 note=36 velocity=0 time=0
EXTRACT: note_on channel=0 note=36 velocity=0 time=0.15163925833333333
EXTRACT: note_on channel=9 note=36 velocity=120 time=0.053278658333333326
EXTRACT: note_on channel=9 note=42 velocity=41 time=0
EXTRACT: note_on channel=0 note=36 velocity=114 time=0.008196716666666666
EXTRACT: note_on channel=9 note=36 velocity=0 time=0.032786866666666664
EXTRACT: note_on channel=9 note=42 velocity=0 time=0
EXTRACT: note_on channel=0 note=36 velocity=0 time=0.15163925833333333
EXTRACT: note_on channel=2 note=64 velocity=0 time=0.053278658333333326
EXTRACT: note_on channel=2 note=62 velocity=0 time=0
EXTRACT: note_on channel=2 note=55 velocity=0 time=0
EXTRACT: note_on channel=2 note=48 velocity=0 time=0
EXTRACT: note_on channel=9 note=40 velocity=127 time=0
EXTRACT: note_on channel=9 note=42 velocity=62 time=0
EXTRACT: note_on channel=2 note=64 velocity=96 time=0.004098358333333333
EXTRACT: note_on channel=2 note=62 velocity=96 time=0
EXTRACT: note_on channel=2 note=55 velocity=98 time=0
EXTRACT: note_on channel=2 note=48 velocity=86 time=0
EXTRACT: note_on channel=0 note=36 velocity=110 time=0.004098358333333333
EXTRACT: note_on channel=1 note=64 velocity=0 time=0
EXTRACT: note_on channel=1 note=62 velocity=0 time=0
EXTRACT: note_on channel=1 note=55 velocity=0 time=0
EXTRACT: note_on channel=1 note=48 velocity=0 time=0
EXTRACT: note_on channel=1 note=64 velocity=103 time=0.004098358333333333
EXTRACT: note_on channel=1 note=62 velocity=84 time=0
EXTRACT: note_on channel=1 note=55 velocity=89 time=0
EXTRACT: note_on channel=1 note=48 velocity=117 time=0
EXTRACT: note_on channel=9 note=40 velocity=0 time=0.02868850833333333
EXTRACT: note_on channel=9 note=42 velocity=0 time=0
EXTRACT: note_on channel=0 note=36 velocity=0 time=0.15163925833333333
EXTRACT: note_on channel=9 note=42 velocity=66 time=0.053278658333333326
EXTRACT: note_on channel=5 note=71 velocity=0 time=0.0020491791666666665
EXTRACT: note_on channel=5 note=67 velocity=96 time=0.004098358333333333
EXTRACT: note_on channel=0 note=36 velocity=107 time=0.0020491791666666665
EXTRACT: note_on channel=9 note=42 velocity=0 time=0.032786866666666664
EXTRACT: note_on channel=0 note=36 velocity=0 time=0.15163925833333333
EXTRACT: note_on channel=2 note=64 velocity=0 time=0.053278658333333326
EXTRACT: note_on channel=2 note=62 velocity=0 time=0
EXTRACT: note_on channel=2 note=55 velocity=0 time=0
EXTRACT: note_on channel=2 note=48 velocity=0 time=0
EXTRACT: note_on channel=9 note=36 velocity=120 time=0
EXTRACT: note_on channel=9 note=42 velocity=62 time=0
EXTRACT: note_on channel=2 note=64 velocity=113 time=0.004098358333333333
EXTRACT: note_on channel=2 note=62 velocity=86 time=0
EXTRACT: note_on channel=2 note=55 velocity=90 time=0
EXTRACT: note_on channel=0 note=36 velocity=102 time=0.004098358333333333
EXTRACT: note_on channel=1 note=64 velocity=0 time=0
EXTRACT: note_on channel=1 note=62 velocity=0 time=0
EXTRACT: note_on channel=1 note=55 velocity=0 time=0
EXTRACT: note_on channel=1 note=48 velocity=0 time=0
EXTRACT: note_on channel=1 note=64 velocity=96 time=0.004098358333333333
EXTRACT: note_on channel=1 note=62 velocity=83 time=0
EXTRACT: note_on channel=1 note=55 velocity=86 time=0
EXTRACT: note_on channel=9 note=36 velocity=0 time=0.02868850833333333
EXTRACT: note_on channel=9 note=42 velocity=0 time=0
EXTRACT: note_on channel=0 note=36 velocity=0 time=0.15163925833333333
EXTRACT: note_on channel=2 note=64 velocity=0 time=0.053278658333333326
EXTRACT: note_on channel=2 note=62 velocity=0 time=0
EXTRACT: note_on channel=2 note=55 velocity=0 time=0
EXTRACT: note_on channel=9 note=36 velocity=110 time=0
EXTRACT: note_on channel=9 note=42 velocity=41 time=0
EXTRACT: note_on channel=5 note=67 velocity=0 time=0.0020491791666666665
EXTRACT: note_on channel=2 note=64 velocity=75 time=0.0020491791666666665
EXTRACT: note_on channel=2 note=62 velocity=68 time=0
EXTRACT: note_on channel=2 note=55 velocity=69 time=0
EXTRACT: note_on channel=2 note=48 velocity=112 time=0
EXTRACT: note_on channel=5 note=67 velocity=108 time=0.0020491791666666665
EXTRACT: note_on channel=0 note=36 velocity=121 time=0.0020491791666666665
EXTRACT: note_on channel=1 note=64 velocity=0 time=0
EXTRACT: note_on channel=1 note=62 velocity=0 time=0
EXTRACT: note_on channel=1 note=55 velocity=0 time=0
EXTRACT: note_on channel=1 note=64 velocity=114 time=0.004098358333333333
EXTRACT: note_on channel=1 note=62 velocity=81 time=0
EXTRACT: note_on channel=1 note=55 velocity=88 time=0
EXTRACT: note_on channel=1 note=48 velocity=85 time=0
EXTRACT: note_on channel=9 note=36 velocity=0 time=0.02868850833333333
EXTRACT: note_on channel=9 note=42 velocity=0 time=0
EXTRACT: note_on channel=0 note=36 velocity=0 time=0.15163925833333333
EXTRACT: note_on channel=2 note=64 velocity=0 time=0.053278658333333326
EXTRACT: note_on channel=2 note=62 velocity=0 time=0
EXTRACT: note_on channel=2 note=55 velocity=0 time=0
EXTRACT: note_on channel=2 note=48 velocity=0 time=0
EXTRACT: note_on channel=9 note=40 velocity=127 time=0
EXTRACT: note_on channel=9 note=42 velocity=52 time=0
EXTRACT: note_on channel=5 note=67 velocity=0 time=0.0020491791666666665
EXTRACT: note_on channel=2 note=64 velocity=114 time=0.0020491791666666665
EXTRACT: note_on channel=2 note=62 velocity=94 time=0
EXTRACT: note_on channel=2 note=55 velocity=102 time=0
EXTRACT: note_on channel=2 note=48 velocity=103 time=0
EXTRACT: note_on channel=5 note=60 velocity=109 time=0.0020491791666666665
EXTRACT: note_on channel=0 note=36 velocity=112 time=0.0020491791666666665
EXTRACT: note_on channel=1 note=64 velocity=0 time=0
EXTRACT: note_on channel=1 note=62 velocity=0 time=0
EXTRACT: note_on channel=1 note=55 velocity=0 time=0
EXTRACT: note_on channel=1 note=48 velocity=0 time=0
EXTRACT: note_on channel=1 note=64 velocity=105 time=0.004098358333333333
EXTRACT: note_on channel=1 note=62 velocity=104 time=0
EXTRACT: note_on channel=1 note=55 velocity=79 time=0
EXTRACT: note_on channel=1 note=48 velocity=87 time=0
EXTRACT: note_on channel=9 note=40 velocity=0 time=0.02868850833333333
EXTRACT: note_on channel=9 note=42 velocity=0 time=0
EXTRACT: note_on channel=0 note=36 velocity=0 time=0.15163925833333333
EXTRACT: note_on channel=2 note=64 velocity=0 time=0.053278658333333326
EXTRACT: note_on channel=2 note=62 velocity=0 time=0
EXTRACT: note_on channel=2 note=55 velocity=0 time=0
EXTRACT: note_on channel=2 note=48 velocity=0 time=0
EXTRACT: note_on channel=9 note=42 velocity=41 time=0
EXTRACT: note_on channel=2 note=64 velocity=77 time=0.004098358333333333
EXTRACT: note_on channel=2 note=62 velocity=79 time=0
EXTRACT: note_on channel=2 note=55 velocity=88 time=0
EXTRACT: note_on channel=0 note=43 velocity=103 time=0.004098358333333333
EXTRACT: note_on channel=1 note=64 velocity=0 time=0
EXTRACT: note_on channel=1 note=62 velocity=0 time=0
EXTRACT: note_on channel=1 note=55 velocity=0 time=0
EXTRACT: note_on channel=1 note=48 velocity=0 time=0
EXTRACT: note_on channel=1 note=64 velocity=93 time=0.004098358333333333
EXTRACT: note_on channel=1 note=62 velocity=112 time=0
EXTRACT: note_on channel=1 note=55 velocity=86 time=0
EXTRACT: note_on channel=9 note=42 velocity=0 time=0.02868850833333333
EXTRACT: note_on channel=9 note=42 velocity=68 time=0.20491791666666664
EXTRACT: note_on channel=9 note=36 velocity=120 time=0
EXTRACT: note_on channel=0 note=43 velocity=0 time=0.008196716666666666
EXTRACT: note_on channel=4 note=74 velocity=0 time=0.0010245895833333333
EXTRACT: note_on channel=4 note=76 velocity=99 time=0
EXTRACT: note_on channel=9 note=42 velocity=0 time=0.03176227708333333
EXTRACT: note_on channel=9 note=36 velocity=0 time=0
EXTRACT: note_on channel=2 note=64 velocity=0 time=0.20491791666666664
EXTRACT: note_on channel=2 note=62 velocity=0 time=0
EXTRACT: note_on channel=2 note=55 velocity=0 time=0
EXTRACT: note_on channel=9 note=36 velocity=120 time=0
EXTRACT: note_on channel=9 note=42 velocity=50 time=0
EXTRACT: note_on channel=2 note=64 velocity=112 time=0.004098358333333333
EXTRACT: note_on channel=2 note=60 velocity=105 time=0
EXTRACT: note_on channel=2 note=55 velocity=84 time=0
EXTRACT: note_on channel=0 note=43 velocity=109 time=0.004098358333333333
EXTRACT: note_on channel=1 note=64 velocity=0 time=0
EXTRACT: note_on channel=1 note=62 velocity=0 time=0
EXTRACT: note_on channel=1 note=55 velocity=0 time=0
EXTRACT: note_on channel=1 note=64 velocity=110 time=0.004098358333333333
EXTRACT: note_on channel=1 note=60 velocity=76 time=0
EXTRACT: note_on channel=1 note=55 velocity=99 time=0
EXTRACT: note_on channel=9 note=36 velocity=0 time=0.02868850833333333
EXTRACT: note_on channel=9 note=42 velocity=0 time=0
EXTRACT: note_on channel=2 note=64 velocity=0 time=0.20491791666666664
EXTRACT: note_on channel=2 note=60 velocity=0 time=0
EXTRACT: note_on channel=2 note=55 velocity=0 time=0
EXTRACT: note_on channel=9 note=40 velocity=127 time=0
EXTRACT: note_on channel=9 note=42 velocity=68 time=0
EXTRACT: note_on channel=0 note=43 velocity=0 time=0.004098358333333333
EXTRACT: note_on channel=2 note=64 velocity=100 time=0
EXTRACT: note_on channel=2 note=60 velocity=94 time=0
EXTRACT: note_on channel=2 note=55 velocity=101 time=0
EXTRACT: note_on channel=2 note=48 velocity=104 time=0
EXTRACT: note_on channel=0 note=40 velocity=102 time=0.004098358333333333
EXTRACT: note_on channel=1 note=64 velocity=0 time=0
EXTRACT: note_on channel=1 note=60 velocity=0 time=0
EXTRACT: note_on channel=1 note=55 velocity=0 time=0
EXTRACT: note_on channel=1 note=64 velocity=82 time=0.004098358333333333
EXTRACT: note_on channel=1 note=60 velocity=82 time=0
EXTRACT: note_on channel=1 note=55 velocity=117 time=0
EXTRACT: note_on channel=1 note=48 velocity=103 time=0
EXTRACT: note_on channel=9 note=40 velocity=0 time=0.02868850833333333
EXTRACT: note_on channel=9 note=42 velocity=0 time=0
EXTRACT: note_on channel=0 note=40 velocity=0 time=0.15163925833333333
EXTRACT: note_on channel=2 note=64 velocity=0 time=0.053278658333333326
EXTRACT: note_on channel=2 note=60 velocity=0 time=0
EXTRACT: note_on channel=2 note=55 velocity=0 time=0
EXTRACT: note_on channel=2 note=48 velocity=0 time=0
EXTRACT: note_on channel=9 note=42 velocity=62 time=0
EXTRACT: note_on channel=2 note=64 velocity=111 time=0.004098358333333333
EXTRACT: note_on channel=2 note=60 velocity=99 time=0
EXTRACT: note_on channel=2 note=55 velocity=85 time=0
EXTRACT: note_on channel=0 note=40 velocity=124 time=0.004098358333333333
EXTRACT: note_on channel=1 note=64 velocity=0 time=0
EXTRACT: note_on channel=1 note=60 velocity=0 time=0
EXTRACT: note_on channel=1 note=55 velocity=0 time=0
EXTRACT: note_on channel=1 note=48 velocity=0 time=0
EXTRACT: note_on channel=1 note=64 velocity=114 time=0.004098358333333333
EXTRACT: note_on channel=1 note=60 velocity=79 time=0
EXTRACT: note_on channel=1 note=55 velocity=112 time=0
EXTRACT: note_on channel=9 note=42 velocity=0 time=0.02868850833333333
EXTRACT: note_on channel=0 note=40 velocity=0 time=0.15163925833333333
EXTRACT: note_on channel=2 note=64 velocity=0 time=0.053278658333333326
EXTRACT: note_on channel=2 note=60 velocity=0 time=0
EXTRACT: note_on channel=2 note=55 velocity=0 time=0
EXTRACT: note_on channel=9 note=36 velocity=120 time=0
EXTRACT: note_on channel=9 note=42 velocity=69 time=0
EXTRACT: note_on channel=2 note=64 velocity=89 time=0.004098358333333333
EXTRACT: note_on channel=2 note=60 velocity=102 time=0
EXTRACT: note_on channel=2 note=55 velocity=112 time=0
EXTRACT: note_on channel=2 note=48 velocity=116 time=0
EXTRACT: note_on channel=0 note=41 velocity=111 time=0.004098358333333333
EXTRACT: note_on channel=1 note=64 velocity=0 time=0
EXTRACT: note_on channel=1 note=60 velocity=0 time=0
EXTRACT: note_on channel=1 note=55 velocity=0 time=0
EXTRACT: note_on channel=1 note=64 velocity=117 time=0.004098358333333333
EXTRACT: note_on channel=1 note=60 velocity=97 time=0
EXTRACT: note_on channel=1 note=55 velocity=109 time=0
EXTRACT: note_on channel=1 note=48 velocity=105 time=0
EXTRACT: note_on channel=9 note=36 velocity=0 time=0.02868850833333333
EXTRACT: note_on channel=9 note=42 velocity=0 time=0
EXTRACT: note_on channel=0 note=41 velocity=0 time=0.15163925833333333
EXTRACT: note_on channel=2 note=64 velocity=0 time=0.053278658333333326
EXTRACT: note_on channel=2 note=60 velocity=0 time=0
EXTRACT: note_on channel=2 note=55 velocity=0 time=0
EXTRACT: note_on channel=2 note=48 velocity=0 time=0
EXTRACT: note_on channel=9 note=36 velocity=110 time=0
EXTRACT: note_on channel=9 note=42 velocity=42 time=0
EXTRACT: note_on channel=2 note=64 velocity=110 time=0.004098358333333333
EXTRACT: note_on channel=2 note=60 velocity=68 time=0
EXTRACT: note_on channel=2 note=55 velocity=81 time=0
EXTRACT: note_on channel=0 note=41 velocity=103 time=0.004098358333333333
EXTRACT: note_on channel=1 note=64 velocity=0 time=0
EXTRACT: note_on channel=1 note=60 velocity=0 time=0
EXTRACT: note_on channel=1 note=55 velocity=0 time=0
EXTRACT: note_on channel=1 note=48 velocity=0 time=0
EXTRACT: note_on channel=1 note=64 velocity=95 time=0.004098358333333333
EXTRACT: note_on channel=1 note=60 velocity=66 time=0
EXTRACT: note_on channel=1 note=55 velocity=85 time=0
EXTRACT: note_on channel=9 note=36 velocity=0 time=0.02868850833333333
EXTRACT: note_on channel=9 note=42 velocity=0 time=0
EXTRACT: note_on channel=0 note=41 velocity=0 time=0.15163925833333333
EXTRACT: note_on channel=2 note=64 velocity=0 time=0.053278658333333326
EXTRACT: note_on channel=2 note=60 velocity=0 time=0
EXTRACT: note_on channel=2 note=55 velocity=0 time=0
EXTRACT: note_on channel=9 note=40 velocity=127 time=0
EXTRACT: note_on channel=9 note=42 velocity=63 time=0
EXTRACT: note_on channel=2 note=64 velocity=93 time=0.004098358333333333
EXTRACT: note_on channel=2 note=60 velocity=94 time=0
EXTRACT: note_on channel=2 note=55 velocity=85 time=0
EXTRACT: note_on channel=2 note=48 velocity=108 time=0
EXTRACT: note_on channel=0 note=43 velocity=127 time=0.004098358333333333
EXTRACT: note_on channel=1 note=64 velocity=0 time=0
EXTRACT: note_on channel=1 note=60 velocity=0 time=0
EXTRACT: note_on channel=1 note=55 velocity=0 time=0
EXTRACT: note_on channel=1 note=64 velocity=102 time=0.004098358333333333
EXTRACT: note_on channel=1 note=60 velocity=111 time=0
EXTRACT: note_on channel=1 note=55 velocity=117 time=0
EXTRACT: note_on channel=1 note=48 velocity=91 time=0
EXTRACT: note_on channel=9 note=40 velocity=0 time=0.02868850833333333
EXTRACT: note_on channel=9 note=42 velocity=0 time=0
EXTRACT: note_on channel=2 note=64 velocity=0 time=0.20491791666666664
EXTRACT: note_on channel=2 note=60 velocity=0 time=0
EXTRACT: note_on channel=2 note=55 velocity=0 time=0
EXTRACT: note_on channel=2 note=48 velocity=0 time=0
EXTRACT: note_on channel=9 note=42 velocity=43 time=0
EXTRACT: note_on channel=2 note=64 velocity=68 time=0.004098358333333333
EXTRACT: note_on channel=2 note=60 velocity=69 time=0
EXTRACT: note_on channel=2 note=55 velocity=83 time=0
EXTRACT: note_on channel=0 note=43 velocity=0 time=0.004098358333333333
EXTRACT: note_on channel=1 note=64 velocity=0 time=0
EXTRACT: note_on channel=1 note=60 velocity=0 time=0
EXTRACT: note_on channel=1 note=55 velocity=0 time=0
EXTRACT: note_on channel=1 note=48 velocity=0 time=0
EXTRACT: note_on channel=1 note=64 velocity=95 time=0.004098358333333333
EXTRACT: note_on channel=1 note=60 velocity=82 time=0
EXTRACT: note_on channel=1 note=55 velocity=109 time=0
EXTRACT: note_on channel=9 note=42 velocity=0 time=0.02868850833333333
EXTRACT: note_on channel=2 note=64 velocity=0 time=0.20491791666666664
EXTRACT: note_on channel=2 note=60 velocity=0 time=0
EXTRACT: note_on channel=2 note=55 velocity=0 time=0
EXTRACT: note_on channel=9 note=42 velocity=61 time=0
EXTRACT: note_on channel=9 note=36 velocity=120 time=0
EXTRACT: note_on channel=2 note=64 velocity=91 time=0.004098358333333333
EXTRACT: note_on channel=2 note=62 velocity=85 time=0
EXTRACT: note_on channel=2 note=57 velocity=111 time=0
EXTRACT: note_on channel=2 note=50 velocity=99 time=0
EXTRACT: note_on channel=5 note=60 velocity=0 time=0.0020491791666666665
EXTRACT: note_on channel=0 note=38 velocity=102 time=0.0020491791666666665
EXTRACT: note_on channel=1 note=64 velocity=0 time=0
EXTRACT: note_on channel=1 note=60 velocity=0 time=0
EXTRACT: note_on channel=1 note=55 velocity=0 time=0
EXTRACT: note_on channel=4 note=72 velocity=0 time=0.0010245895833333333
EXTRACT: note_on channel=4 note=67 velocity=0 time=0
EXTRACT: note_on channel=4 note=76 velocity=0 time=0
EXTRACT: note_on channel=4 note=76 velocity=101 time=0
EXTRACT: note_on channel=4 note=69 velocity=105 time=0
EXTRACT: note_on channel=4 note=74 velocity=118 time=0
EXTRACT: note_on channel=1 note=64 velocity=80 time=0.0030737687499999998
EXTRACT: note_on channel=1 note=62 velocity=99 time=0
EXTRACT: note_on channel=1 note=57 velocity=107 time=0
EXTRACT: note_on channel=1 note=50 velocity=105 time=0
EXTRACT: note_on channel=9 note=42 velocity=0 time=0.02868850833333333
EXTRACT: note_on channel=9 note=36 velocity=0 time=0
EXTRACT: note_on channel=0 note=38 velocity=0 time=0.15163925833333333
EXTRACT: note_on channel=9 note=36 velocity=120 time=0.053278658333333326
EXTRACT: note_on channel=9 note=42 velocity=45 time=0
EXTRACT: note_on channel=0 note=38 velocity=127 time=0.008196716666666666
EXTRACT: note_on channel=9 note=36 velocity=0 time=0.032786866666666664
EXTRACT: note_on channel=9 note=42 velocity=0 time=0
EXTRACT: note_on channel=0 note=38 velocity=0 time=0.15163925833333333
EXTRACT: note_on channel=2 note=64 velocity=0 time=0.053278658333333326
EXTRACT: note_on channel=2 note=62 velocity=0 time=0
EXTRACT: note_on channel=2 note=57 velocity=0 time=0
EXTRACT: note_on channel=2 note=50 velocity=0 time=0
EXTRACT: note_on channel=9 note=40 velocity=127 time=0
EXTRACT: note_on channel=9 note=42 velocity=63 time=0
EXTRACT: note_on channel=2 note=64 velocity=112 time=0.004098358333333333
EXTRACT: note_on channel=2 note=62 velocity=106 time=0
EXTRACT: note_on channel=2 note=57 velocity=114 time=0
EXTRACT: note_on channel=2 note=50 velocity=116 time=0
EXTRACT: note_on channel=0 note=38 velocity=113 time=0.004098358333333333
EXTRACT: note_on channel=1 note=64 velocity=0 time=0
EXTRACT: note_on channel=1 note=62 velocity=0 time=0
EXTRACT: note_on channel=1 note=57 velocity=0 time=0
EXTRACT: note_on channel=1 note=50 velocity=0 time=0
EXTRACT: note_on channel=1 note=64 velocity=84 time=0.004098358333333333
EXTRACT: note_on channel=1 note=62 velocity=83 time=0
EXTRACT: note_on channel=1 note=57 velocity=85 time=0
EXTRACT: note_on channel=1 note=50 velocity=112 time=0
EXTRACT: note_on channel=9 note=40 velocity=0 time=0.02868850833333333
EXTRACT: note_on channel=9 note=42 velocity=0 time=0
EXTRACT: note_on channel=0 note=38 velocity=0 time=0.15163925833333333
EXTRACT: note_on channel=9 note=42 velocity=59 time=0.053278658333333326
EXTRACT: note_on channel=0 note=38 velocity=106 time=0.008196716666666666
EXTRACT: note_on channel=9 note=42 velocity=0 time=0.032786866666666664
EXTRACT: note_on channel=0 note=38 velocity=0 time=0.15163925833333333
EXTRACT: note_on channel=2 note=64 velocity=0 time=0.053278658333333326
EXTRACT: note_on channel=2 note=62 velocity=0 time=0
EXTRACT: note_on channel=2 note=57 velocity=0 time=0
EXTRACT: note_on channel=2 note=50 velocity=0 time=0
EXTRACT: note_on channel=9 note=36 velocity=120 time=0
EXTRACT: note_on channel=9 note=42 velocity=57 time=0
EXTRACT: note_on channel=2 note=64 velocity=90 time=0.004098358333333333
EXTRACT: note_on channel=2 note=62 velocity=97 time=0
EXTRACT: note_on channel=2 note=57 velocity=100 time=0
EXTRACT: note_on channel=2 note=50 velocity=105 time=0
EXTRACT: note_on channel=5 note=69 velocity=106 time=0.0020491791666666665
EXTRACT: note_on channel=0 note=38 velocity=125 time=0.0020491791666666665
EXTRACT: note_on channel=1 note=64 velocity=0 time=0
EXTRACT: note_on channel=1 note=62 velocity=0 time=0
EXTRACT: note_on channel=1 note=57 velocity=0 time=0
EXTRACT: note_on channel=1 note=50 velocity=0 time=0
EXTRACT: note_on channel=1 note=64 velocity=99 time=0.004098358333333333
EXTRACT: note_on channel=1 note=62 velocity=114 time=0
EXTRACT: note_on channel=1 note=57 velocity=113 time=0
EXTRACT: note_on channel=1 note=50 velocity=109 time=0
EXTRACT: note_on channel=9 note=36 velocity=0 time=0.02868850833333333
EXTRACT: note_on channel=9 note=42 velocity=0 time=0
EXTRACT: note_on channel=0 note=38 velocity=0 time=0.15163925833333333
EXTRACT: note_on channel=2 note=64 velocity=0 time=0.053278658333333326
EXTRACT: note_on channel=2 note=62 velocity=0 time=0
EXTRACT: note_on channel=2 note=57 velocity=0 time=0
EXTRACT: note_on channel=2 note=50 velocity=0 time=0
EXTRACT: note_on channel=9 note=36 velocity=110 time=0
EXTRACT: note_on channel=9 note=42 velocity=41 time=0
EXTRACT: note_on channel=2 note=64 velocity=71 time=0.004098358333333333
EXTRACT: note_on channel=2 note=62 velocity=104 time=0
EXTRACT: note_on channel=2 note=57 velocity=76 time=0
EXTRACT: note_on channel=0 note=38 velocity=105 time=0.004098358333333333
EXTRACT: note_on channel=1 note=64 velocity=0 time=0
EXTRACT: note_on channel=1 note=62 velocity=0 time=0
EXTRACT: note_on channel=1 note=57 velocity=0 time=0
EXTRACT: note_on channel=1 note=50 velocity=0 time=0
EXTRACT: note_on channel=1 note=64 velocity=94 time=0.004098358333333333
EXTRACT: note_on channel=1 note=62 velocity=100 time=0
EXTRACT: note_on channel=1 note=57 velocity=82 time=0
EXTRACT: note_on channel=9 note=36 velocity=0 time=0.02868850833333333
EXTRACT: note_on channel=9 note=42 velocity=0 time=0
EXTRACT: note_on channel=0 note=38 velocity=0 time=0.15163925833333333
EXTRACT: note_on channel=2 note=64 velocity=0 time=0.053278658333333326
EXTRACT: note_on channel=2 note=62 velocity=0 time=0
EXTRACT: note_on channel=2 note=57 velocity=0 time=0
EXTRACT: note_on channel=9 note=40 velocity=127 time=0
EXTRACT: note_on channel=9 note=42 velocity=63 time=0
EXTRACT: note_on channel=5 note=69 velocity=0 time=0.0020491791666666665
EXTRACT: note_on channel=2 note=64 velocity=99 time=0.0020491791666666665
EXTRACT: note_on channel=2 note=62 velocity=102 time=0
EXTRACT: note_on channel=2 note=57 velocity=100 time=0
EXTRACT: note_on channel=2 note=50 velocity=110 time=0
EXTRACT: note_on channel=5 note=60 velocity=92 time=0.0020491791666666665
EXTRACT: note_on channel=0 note=38 velocity=123 time=0.0020491791666666665
EXTRACT: note_on channel=1 note=64 velocity=0 time=0
EXTRACT: note_on channel=1 note=62 velocity=0 time=0
EXTRACT: note_on channel=1 note=57 velocity=0 time=0
EXTRACT: note_on channel=1 note=64 velocity=86 time=0.004098358333333333
EXTRACT: note_on channel=1 note=62 velocity=104 time=0
EXTRACT: note_on channel=1 note=57 velocity=91 time=0
EXTRACT: note_on channel=1 note=50 velocity=91 time=0
EXTRACT: note_on channel=9 note=40 velocity=0 time=0.02868850833333333
EXTRACT: note_on channel=9 note=42 velocity=0 time=0
EXTRACT: note_on channel=0 note=38 velocity=0 time=0.15163925833333333
EXTRACT: note_on channel=2 note=64 velocity=0 time=0.053278658333333326
EXTRACT: note_on channel=2 note=62 velocity=0 time=0
EXTRACT: note_on channel=2 note=57 velocity=0 time=0
EXTRACT: note_on channel=2 note=50 velocity=0 time=0
EXTRACT: note_on channel=9 note=42 velocity=49 time=0
EXTRACT: note_on channel=5 note=60 velocity=0 time=0.0020491791666666665
EXTRACT: note_on channel=2 note=64 velocity=76 time=0.0020491791666666665
EXTRACT: note_on channel=2 note=62 velocity=88 time=0
EXTRACT: note_on channel=2 note=57 velocity=96 time=0
EXTRACT: note_on channel=5 note=62 velocity=92 time=0.0020491791666666665
EXTRACT: note_on channel=0 note=45 velocity=111 time=0.0020491791666666665
EXTRACT: note_on channel=1 note=64 velocity=0 time=0
EXTRACT: note_on channel=1 note=62 velocity=0 time=0
EXTRACT: note_on channel=1 note=57 velocity=0 time=0
EXTRACT: note_on channel=1 note=50 velocity=0 time=0
EXTRACT: note_on channel=1 note=64 velocity=90 time=0.004098358333333333
EXTRACT: note_on channel=1 note=62 velocity=68 time=0
EXTRACT: note_on channel=1 note=57 velocity=64 time=0
EXTRACT: note_on channel=9 note=42 velocity=0 time=0.02868850833333333
EXTRACT: note_on channel=9 note=42 velocity=63 time=0.20491791666666664
EXTRACT: note_on channel=9 note=36 velocity=120 time=0
EXTRACT: note_on channel=5 note=62 velocity=0 time=0.0061475374999999995
EXTRACT: note_on channel=0 note=45 velocity=0 time=0.0020491791666666665
EXTRACT: note_on channel=4 note=76 velocity=0 time=0.0010245895833333333
EXTRACT: note_on channel=4 note=77 velocity=99 time=0
EXTRACT: note_on channel=9 note=42 velocity=0 time=0.03176227708333333
EXTRACT: note_on channel=9 note=36 velocity=0 time=0
EXTRACT: note_on channel=2 note=64 velocity=0 time=0.20491791666666664
EXTRACT: note_on channel=2 note=62 velocity=0 time=0
EXTRACT: note_on channel=2 note=57 velocity=0 time=0
EXTRACT: note_on channel=9 note=36 velocity=120 time=0
EXTRACT: note_on channel=9 note=42 velocity=45 time=0
EXTRACT: note_on channel=2 note=65 velocity=70 time=0.004098358333333333
EXTRACT: note_on channel=2 note=62 velocity=112 time=0
EXTRACT: note_on channel=2 note=57 velocity=65 time=0
EXTRACT: note_on channel=0 note=45 velocity=104 time=0.004098358333333333
EXTRACT: note_on channel=1 note=64 velocity=0 time=0
EXTRACT: note_on channel=1 note=62 velocity=0 time=0
EXTRACT: note_on channel=1 note=57 velocity=0 time=0
EXTRACT: note_on channel=1 note=65 velocity=91 time=0.004098358333333333
EXTRACT: note_on channel=1 note=62 velocity=87 time=0
EXTRACT: note_on channel=1 note=57 velocity=98 time=0
EXTRACT: note_on channel=9 note=36 velocity=0 time=0.02868850833333333
EXTRACT: note_on channel=9 note=42 velocity=0 time=0
EXTRACT: note_on channel=0 note=45 velocity=0 time=0.15163925833333333
EXTRACT: note_on channel=2 note=65 velocity=0 time=0.053278658333333326
EXTRACT: note_on channel=2 note=62 velocity=0 time=0
EXTRACT: note_on channel=2 note=57 velocity=0 time=0
EXTRACT: note_on channel=9 note=40 velocity=127 time=0
EXTRACT: note_on channel=9 note=42 velocity=61 time=0
EXTRACT: note_on channel=2 note=65 velocity=116 time=0.004098358333333333
EXTRACT: note_on channel=2 note=62 velocity=89 time=0
EXTRACT: note_on channel=2 note=57 velocity=86 time=0
EXTRACT: note_on channel=0 note=40 velocity=123 time=0.004098358333333333
EXTRACT: note_on channel=1 note=65 velocity=0 time=0
EXTRACT: note_on channel=1 note=62 velocity=0 time=0
EXTRACT: note_on channel=1 note=57 velocity=0 time=0
EXTRACT: note_on channel=1 note=65 velocity=115 time=0.004098358333333333
EXTRACT: note_on channel=1 note=62 velocity=114 time=0
EXTRACT: note_on channel=1 note=57 velocity=85 time=0
EXTRACT: note_on channel=9 note=40 velocity=0 time=0.02868850833333333
EXTRACT: note_on channel=9 note=42 velocity=0 time=0
EXTRACT: note_on channel=0 note=40 velocity=0 time=0.15163925833333333
EXTRACT: note_on channel=2 note=65 velocity=0 time=0.053278658333333326
EXTRACT: note_on channel=2 note=62 velocity=0 time=0
EXTRACT: note_on channel=2 note=57 velocity=0 time=0
EXTRACT: note_on channel=9 note=42 velocity=60 time=0
EXTRACT: note_on channel=2 note=65 velocity=109 time=0.004098358333333333
EXTRACT: note_on channel=2 note=62 velocity=97 time=0
EXTRACT: note_on channel=2 note=57 velocity=100 time=0
EXTRACT: note_on channel=2 note=50 velocity=108 time=0
EXTRACT: note_on channel=0 note=40 velocity=110 time=0.004098358333333333
EXTRACT: note_on channel=1 note=65 velocity=0 time=0
EXTRACT: note_on channel=1 note=62 velocity=0 time=0
EXTRACT: note_on channel=1 note=57 velocity=0 time=0
EXTRACT: note_on channel=1 note=65 velocity=77 time=0.004098358333333333
EXTRACT: note_on channel=1 note=62 velocity=74 time=0
EXTRACT: note_on channel=1 note=57 velocity=76 time=0
EXTRACT: note_on channel=1 note=50 velocity=97 time=0
EXTRACT: note_on channel=9 note=42 velocity=0 time=0.02868850833333333
EXTRACT: note_on channel=0 note=40 velocity=0 time=0.15163925833333333
EXTRACT: note_on channel=2 note=65 velocity=0 time=0.053278658333333326
EXTRACT: note_on channel=2 note=62 velocity=0 time=0
EXTRACT: note_on channel=2 note=57 velocity=0 time=0
EXTRACT: note_on channel=2 note=50 velocity=0 time=0
EXTRACT: note_on channel=9 note=36 velocity=120 time=0
EXTRACT: note_on channel=9 note=42 velocity=68 time=0
EXTRACT: note_on channel=2 note=65 velocity=94 time=0.004098358333333333
EXTRACT: note_on channel=2 note=62 velocity=96 time=0
EXTRACT: note_on channel=2 note=57 velocity=100 time=0
EXTRACT: note_on channel=2 note=50 velocity=108 time=0
EXTRACT: note_on channel=5 note=67 velocity=90 time=0.0020491791666666665
EXTRACT: note_on channel=0 note=41 velocity=114 time=0.0020491791666666665
EXTRACT: note_on channel=1 note=65 velocity=0 time=0
EXTRACT: note_on channel=1 note=62 velocity=0 time=0
EXTRACT: note_on channel=1 note=57 velocity=0 time=0
EXTRACT: note_on channel=1 note=50 velocity=0 time=0
EXTRACT: note_on channel=1 note=65 velocity=107 time=0.004098358333333333
EXTRACT: note_on channel=1 note=62 velocity=110 time=0
EXTRACT: note_on channel=1 note=57 velocity=85 time=0
EXTRACT: note_on channel=1 note=50 velocity=113 time=0
EXTRACT: note_on channel=9 note=36 velocity=0 time=0.02868850833333333
EXTRACT: note_on channel=9 note=42 velocity=0 time=0
EXTRACT: note_on channel=0 note=41 velocity=0 time=0.15163925833333333
EXTRACT: note_on channel=2 note=65 velocity=0 time=0.053278658333333326
EXTRACT: note_on channel=2 note=62 velocity=0 time=0
EXTRACT: note_on channel=2 note=57 velocity=0 time=0
EXTRACT: note_on channel=2 note=50 velocity=0 time=0
EXTRACT: note_on channel=9 note=36 velocity=110 time=0
EXTRACT: note_on channel=9 note=42 velocity=48 time=0
EXTRACT: note_on channel=5 note=67 velocity=0 time=0.0020491791666666665
EXTRACT: note_on channel=2 note=65 velocity=79 time=0.0020491791666666665
EXTRACT: note_on channel=2 note=62 velocity=97 time=0
EXTRACT: note_on channel=2 note=57 velocity=107 time=0
EXTRACT: note_on channel=5 note=67 velocity=104 time=0.0020491791666666665
EXTRACT: note_on channel=0 note=41 velocity=109 time=0.0020491791666666665
EXTRACT: note_on channel=1 note=65 velocity=0 time=0
EXTRACT: note_on channel=1 note=62 velocity=0 time=0
EXTRACT: note_on channel=1 note=57 velocity=0 time=0
EXTRACT: note_on channel=1 note=50 velocity=0 time=0
EXTRACT: note_on channel=1 note=65 velocity=86 time=0.004098358333333333
EXTRACT: note_on channel=1 note=62 velocity=85 time=0
EXTRACT: note_on channel=1 note=57 velocity=115 time=0
EXTRACT: note_on channel=9 note=36 velocity=0 time=0.02868850833333333
EXTRACT: note_on channel=9 note=42 velocity=0 time=0
EXTRACT: note_on channel=0 note=41 velocity=0 time=0.15163925833333333
EXTRACT: note_on channel=2 note=65 velocity=0 time=0.053278658333333326
EXTRACT: note_on channel=2 note=62 velocity=0 time=0
EXTRACT: note_on channel=2 note=57 velocity=0 time=0
EXTRACT: note_on channel=9 note=40 velocity=127 time=0
EXTRACT: note_on channel=9 note=42 velocity=65 time=0
EXTRACT: note_on channel=5 note=67 velocity=0 time=0.0020491791666666665
EXTRACT: note_on channel=2 note=65 velocity=91 time=0.0020491791666666665
EXTRACT: note_on channel=2 note=62 velocity=103 time=0
EXTRACT: note_on channel=2 note=57 velocity=100 time=0
EXTRACT: note_on channel=2 note=50 velocity=89 time=0
EXTRACT: note_on channel=5 note=60 velocity=90 time=0.0020491791666666665
EXTRACT: note_on channel=0 note=43 velocity=119 time=0.0020491791666666665
EXTRACT: note_on channel=1 note=65 velocity=0 time=0
EXTRACT: note_on channel=1 note=62 velocity=0 time=0
EXTRACT: note_on channel=1 note=57 velocity=0 time=0
EXTRACT: note_on channel=1 note=65 velocity=87 time=0.004098358333333333
EXTRACT: note_on channel=1 note=62 velocity=101 time=0
EXTRACT: note_on channel=1 note=57 velocity=89 time=0
EXTRACT: note_on channel=1 note=50 velocity=113 time=0
EXTRACT: note_on channel=9 note=40 velocity=0 time=0.02868850833333333
EXTRACT: note_on channel=9 note=42 velocity=0 time=0
EXTRACT: note_on channel=0 note=43 velocity=0 time=0.15163925833333333
EXTRACT: note_on channel=2 note=65 velocity=0 time=0.053278658333333326
EXTRACT: note_on channel=2 note=62 velocity=0 time=0
EXTRACT: note_on channel=2 note=57 velocity=0 time=0
EXTRACT: note_on channel=2 note=50 velocity=0 time=0
EXTRACT: note_on channel=9 note=42 velocity=50 time=0
EXTRACT: note_on channel=5 note=60 velocity=0 time=0.0020491791666666665
EXTRACT: note_on channel=2 note=65 velocity=68 time=0.0020491791666666665
EXTRACT: note_on channel=2 note=62 velocity=72 time=0
EXTRACT: note_on channel=2 note=57 velocity=107 time=0
EXTRACT: note_on channel=2 note=50 velocity=104 time=0
EXTRACT: note_on channel=5 note=62 velocity=87 time=0.0020491791666666665
EXTRACT: note_on channel=0 note=43 velocity=107 time=0.0020491791666666665
EXTRACT: note_on channel=1 note=65 velocity=0 time=0
EXTRACT: note_on channel=1 note=62 velocity=0 time=0
EXTRACT: note_on channel=1 note=57 velocity=0 time=0
EXTRACT: note_on channel=1 note=50 velocity=0 time=0
EXTRACT: note_on channel=1 note=65 velocity=61 time=0.004098358333333333
EXTRACT: note_on channel=1 note=62 velocity=92 time=0
EXTRACT: note_on channel=1 note=57 velocity=85 time=0
EXTRACT: note_on channel=1 note=50 velocity=79 time=0
EXTRACT: note_on channel=9 note=42 velocity=0 time=0.02868850833333333
EXTRACT: note_on channel=0 note=43 velocity=0 time=0.15163925833333333
EXTRACT: note_on channel=2 note=65 velocity=0 time=0.053278658333333326
EXTRACT: note_on channel=2 note=62 velocity=0 time=0
EXTRACT: note_on channel=2 note=57 velocity=0 time=0
EXTRACT: note_on channel=2 note=50 velocity=0 time=0
EXTRACT: note_on channel=9 note=42 velocity=68 time=0
EXTRACT: note_on channel=9 note=36 velocity=120 time=0
EXTRACT: note_on channel=2 note=64 velocity=99 time=0.004098358333333333
EXTRACT: note_on channel=2 note=62 velocity=111 time=0
EXTRACT: note_on channel=2 note=55 velocity=113 time=0
EXTRACT: note_on channel=2 note=48 velocity=117 time=0
EXTRACT: note_on channel=0 note=36 velocity=102 time=0.004098358333333333
EXTRACT: note_on channel=1 note=65 velocity=0 time=0
EXTRACT: note_on channel=1 note=62 velocity=0 time=0
EXTRACT: note_on channel=1 note=57 velocity=0 time=0
EXTRACT: note_on channel=1 note=50 velocity=0 time=0
EXTRACT: note_on channel=4 note=69 velocity=0 time=0.0010245895833333333
EXTRACT: note_on channel=4 note=74 velocity=0 time=0
EXTRACT: note_on channel=4 note=77 velocity=0 time=0
EXTRACT: note_on channel=4 note=74 velocity=114 time=0
EXTRACT: note_on channel=4 note=72 velocity=92 time=0
EXTRACT: note_on channel=4 note=67 velocity=91 time=0
EXTRACT: note_on channel=1 note=64 velocity=82 time=0.0030737687499999998
EXTRACT: note_on channel=1 note=62 velocity=104 time=0
EXTRACT: note_on channel=1 note=55 velocity=90 time=0
EXTRACT: note_on channel=1 note=48 velocity=95 time=0
EXTRACT: note_on channel=9 note=42 velocity=0 time=0.02868850833333333
EXTRACT: note_on channel=9 note=36 velocity=0 time=0
EXTRACT: note_on channel=0 note=36 velocity=0 time=0.15163925833333333
EXTRACT: note_on channel=9 note=36 velocity=120 time=0.053278658333333326
EXTRACT: note_on channel=9 note=42 velocity=47 time=0
EXTRACT: note_on channel=0 note=36 velocity=103 time=0.008196716666666666
EXTRACT: note_on channel=9 note=36 velocity=0 time=0.032786866666666664
EXTRACT: note_on channel=9 note=42 velocity=0 time=0
EXTRACT: note_on channel=0 note=36 velocity=0 time=0.15163925833333333
EXTRACT: note_on channel=2 note=64 velocity=0 time=0.053278658333333326
EXTRACT: note_on channel=2 note=62 velocity=0 time=0
EXTRACT: note_on channel=2 note=55 velocity=0 time=0
EXTRACT: note_on channel=2 note=48 velocity=0 time=0
EXTRACT: note_on channel=9 note=40 velocity=127 time=0
EXTRACT: note_on channel=9 note=42 velocity=64 time=0
EXTRACT: note_on channel=2 note=64 velocity=88 time=0.004098358333333333
EXTRACT: note_on channel=2 note=62 velocity=113 time=0
EXTRACT: note_on channel=2 note=55 velocity=91 time=0
EXTRACT: note_on channel=2 note=48 velocity=94 time=0
EXTRACT: note_on channel=0 note=36 velocity=116 time=0.004098358333333333
EXTRACT: note_on channel=1 note=64 velocity=0 time=0
EXTRACT: note_on channel=1 note=62 velocity=0 time=0
EXTRACT: note_on channel=1 note=55 velocity=0 time=0
EXTRACT: note_on channel=1 note=48 velocity=0 time=0
EXTRACT: note_on channel=1 note=64 velocity=117 time=0.004098358333333333
EXTRACT: note_on channel=1 note=62 velocity=101 time=0
EXTRACT: note_on channel=1 note=55 velocity=104 time=0
EXTRACT: note_on channel=1 note=48 velocity=105 time=0
EXTRACT: note_on channel=9 note=40 velocity=0 time=0.02868850833333333
EXTRACT: note_on channel=9 note=42 velocity=0 time=0
EXTRACT: note_on channel=0 note=36 velocity=0 time=0.15163925833333333
EXTRACT: note_on channel=9 note=42 velocity=63 time=0.053278658333333326
EXTRACT: pitchwheel channel=0 pitch=0 time=0.008196716666666666
EXTRACT: note_on channel=0 note=36 velocity=105 time=0
EXTRACT: pitchwheel channel=0 pitch=82 time=0.004098358333333333
EXTRACT: pitchwheel channel=0 pitch=165 time=0.004098358333333333
EXTRACT: pitchwheel channel=0 pitch=247 time=0.004098358333333333
EXTRACT: pitchwheel channel=0 pitch=330 time=0.004098358333333333
EXTRACT: pitchwheel channel=0 pitch=412 time=0.004098358333333333
EXTRACT: pitchwheel channel=0 pitch=494 time=0.004098358333333333
EXTRACT: pitchwheel channel=0 pitch=577 time=0.004098358333333333
EXTRACT: pitchwheel channel=0 pitch=659 time=0.004098358333333333
EXTRACT: note_on channel=9 note=42 velocity=0 time=0
EXTRACT: pitchwheel channel=0 pitch=742 time=0.004098358333333333
EXTRACT: pitchwheel channel=0 pitch=824 time=0.004098358333333333
EXTRACT: pitchwheel channel=0 pitch=906 time=0.004098358333333333
EXTRACT: pitchwheel channel=0 pitch=989 time=0.004098358333333333
EXTRACT: pitchwheel channel=0 pitch=1071 time=0.004098358333333333
EXTRACT: pitchwheel channel=0 pitch=1154 time=0.004098358333333333
EXTRACT: pitchwheel channel=0 pitch=1236 time=0.004098358333333333
EXTRACT: pitchwheel channel=0 pitch=1318 time=0.004098358333333333
EXTRACT: pitchwheel channel=0 pitch=1401 time=0.004098358333333333
EXTRACT: pitchwheel channel=0 pitch=1483 time=0.004098358333333333
EXTRACT: pitchwheel channel=0 pitch=1566 time=0.004098358333333333
EXTRACT: pitchwheel channel=0 pitch=1648 time=0.004098358333333333
EXTRACT: pitchwheel channel=0 pitch=1730 time=0.004098358333333333
EXTRACT: pitchwheel channel=0 pitch=1813 time=0.004098358333333333
EXTRACT: pitchwheel channel=0 pitch=1895 time=0.004098358333333333
EXTRACT: pitchwheel channel=0 pitch=1978 time=0.004098358333333333
EXTRACT: pitchwheel channel=0 pitch=2060 time=0.004098358333333333
EXTRACT: pitchwheel channel=0 pitch=2142 time=0.004098358333333333
EXTRACT: pitchwheel channel=0 pitch=2225 time=0.004098358333333333
EXTRACT: pitchwheel channel=0 pitch=2307 time=0.004098358333333333
EXTRACT: pitchwheel channel=0 pitch=2390 time=0.004098358333333333
EXTRACT: pitchwheel channel=0 pitch=2472 time=0.004098358333333333
EXTRACT: pitchwheel channel=0 pitch=2554 time=0.004098358333333333
EXTRACT: pitchwheel channel=0 pitch=2637 time=0.004098358333333333
EXTRACT: pitchwheel channel=0 pitch=2719 time=0.004098358333333333
EXTRACT: pitchwheel channel=0 pitch=2801 time=0.004098358333333333
EXTRACT: pitchwheel channel=0 pitch=2884 time=0.004098358333333333
EXTRACT: pitchwheel channel=0 pitch=2966 time=0.004098358333333333
EXTRACT: pitchwheel channel=0 pitch=3049 time=0.004098358333333333
EXTRACT: pitchwheel channel=0 pitch=3131 time=0.004098358333333333
EXTRACT: pitchwheel channel=0 pitch=3213 time=0.004098358333333333
EXTRACT: pitchwheel channel=0 pitch=3296 time=0.004098358333333333
EXTRACT: pitchwheel channel=0 pitch=3378 time=0.004098358333333333
EXTRACT: pitchwheel channel=0 pitch=3461 time=0.004098358333333333
EXTRACT: pitchwheel channel=0 pitch=3543 time=0.004098358333333333
EXTRACT: pitchwheel channel=0 pitch=3625 time=0.004098358333333333
EXTRACT: note_on channel=0 note=36 velocity=0 time=0.004098358333333333
EXTRACT: pitchwheel channel=0 pitch=3708 time=0
EXTRACT: pitchwheel channel=0 pitch=3790 time=0.004098358333333333
EXTRACT: pitchwheel channel=0 pitch=3873 time=0.004098358333333333
EXTRACT: pitchwheel channel=0 pitch=3955 time=0.004098358333333333
EXTRACT: pitchwheel channel=0 pitch=4037 time=0.004098358333333333
EXTRACT: pitchwheel channel=0 pitch=4120 time=0.004098358333333333
EXTRACT: pitchwheel channel=0 pitch=4202 time=0.004098358333333333
EXTRACT: pitchwheel channel=0 pitch=4285 time=0.004098358333333333
EXTRACT: pitchwheel channel=0 pitch=4367 time=0.004098358333333333
EXTRACT: pitchwheel channel=0 pitch=4449 time=0.004098358333333333
EXTRACT: pitchwheel channel=0 pitch=4532 time=0.004098358333333333
EXTRACT: pitchwheel channel=0 pitch=4614 time=0.004098358333333333
EXTRACT: pitchwheel channel=0 pitch=4697 time=0.004098358333333333
EXTRACT: pitchwheel channel=0 pitch=4779 time=0.004098358333333333
EXTRACT: note_on channel=2 note=64 velocity=0 time=0
EXTRACT: note_on channel=2 note=62 velocity=0 time=0
EXTRACT: note_on channel=2 note=55 velocity=0 time=0
EXTRACT: note_on channel=2 note=48 velocity=0 time=0
EXTRACT: note_on channel=9 note=36 velocity=120 time=0
EXTRACT: note_on channel=9 note=42 velocity=65 time=0
EXTRACT: note_on channel=2 note=64 velocity=112 time=0.004098358333333333
EXTRACT: note_on channel=2 note=62 velocity=113 time=0
EXTRACT: note_on channel=2 note=55 velocity=92 time=0
EXTRACT: pitchwheel channel=0 pitch=0 time=0.004098358333333333
EXTRACT: note_on channel=0 note=43 velocity=114 time=0
EXTRACT: note_on channel=1 note=64 velocity=0 time=0
EXTRACT: note_on channel=1 note=62 velocity=0 time=0
EXTRACT: note_on channel=1 note=55 velocity=0 time=0
EXTRACT: note_on channel=1 note=48 velocity=0 time=0
EXTRACT: note_on channel=1 note=64 velocity=84 time=0.004098358333333333
EXTRACT: note_on channel=1 note=62 velocity=90 time=0
EXTRACT: note_on channel=1 note=55 velocity=83 time=0
EXTRACT: note_on channel=9 note=36 velocity=0 time=0.02868850833333333
EXTRACT: note_on channel=9 note=42 velocity=0 time=0
EXTRACT: note_on channel=0 note=43 velocity=0 time=0.15163925833333333
EXTRACT: note_on channel=2 note=64 velocity=0 time=0.053278658333333326
EXTRACT: note_on channel=2 note=62 velocity=0 time=0
EXTRACT: note_on channel=2 note=55 velocity=0 time=0
EXTRACT: note_on channel=9 note=36 velocity=110 time=0
EXTRACT: note_on channel=9 note=42 velocity=46 time=0
EXTRACT: note_on channel=2 note=64 velocity=113 time=0.004098358333333333
EXTRACT: note_on channel=2 note=62 velocity=76 time=0
EXTRACT: note_on channel=2 note=55 velocity=71 time=0
EXTRACT: note_on channel=2 note=48 velocity=95 time=0
EXTRACT: note_on channel=0 note=43 velocity=106 time=0.004098358333333333
EXTRACT: note_on channel=1 note=64 velocity=0 time=0
EXTRACT: note_on channel=1 note=62 velocity=0 time=0
EXTRACT: note_on channel=1 note=55 velocity=0 time=0
EXTRACT: note_on channel=1 note=64 velocity=73 time=0.004098358333333333
EXTRACT: note_on channel=1 note=62 velocity=105 time=0
EXTRACT: note_on channel=1 note=55 velocity=94 time=0
EXTRACT: note_on channel=1 note=48 velocity=88 time=0
EXTRACT: note_on channel=9 note=36 velocity=0 time=0.02868850833333333
EXTRACT: note_on channel=9 note=42 velocity=0 time=0
EXTRACT: note_on channel=0 note=43 velocity=0 time=0.15163925833333333
EXTRACT: note_on channel=2 note=64 velocity=0 time=0.053278658333333326
EXTRACT: note_on channel=2 note=62 velocity=0 time=0
EXTRACT: note_on channel=2 note=55 velocity=0 time=0
EXTRACT: note_on channel=2 note=48 velocity=0 time=0
EXTRACT: note_on channel=9 note=40 velocity=127 time=0
EXTRACT: note_on channel=9 note=42 velocity=61 time=0
EXTRACT: note_on channel=2 note=64 velocity=87 time=0.004098358333333333
EXTRACT: note_on channel=2 note=62 velocity=104 time=0
EXTRACT: note_on channel=2 note=55 velocity=97 time=0
EXTRACT: note_on channel=2 note=48 velocity=117 time=0
EXTRACT: note_on channel=0 note=43 velocity=123 time=0.004098358333333333
EXTRACT: note_on channel=1 note=64 velocity=0 time=0
EXTRACT: note_on channel=1 note=62 velocity=0 time=0
EXTRACT: note_on channel=1 note=55 velocity=0 time=0
EXTRACT: note_on channel=1 note=48 velocity=0 time=0
EXTRACT: note_on channel=1 note=64 velocity=85 time=0.004098358333333333
EXTRACT: note_on channel=1 note=62 velocity=116 time=0
EXTRACT: note_on channel=1 note=55 velocity=104 time=0
EXTRACT: note_on channel=1 note=48 velocity=105 time=0
EXTRACT: note_on channel=9 note=40 velocity=0 time=0.02868850833333333
EXTRACT: note_on channel=9 note=42 velocity=0 time=0
EXTRACT: note_on channel=0 note=43 velocity=0 time=0.15163925833333333
EXTRACT: note_on channel=2 note=64 velocity=0 time=0.053278658333333326
EXTRACT: note_on channel=2 note=62 velocity=0 time=0
EXTRACT: note_on channel=2 note=55 velocity=0 time=0
EXTRACT: note_on channel=2 note=48 velocity=0 time=0
EXTRACT: note_on channel=9 note=42 velocity=50 time=0
EXTRACT: note_on channel=2 note=64 velocity=106 time=0.004098358333333333
EXTRACT: note_on channel=2 note=62 velocity=94 time=0
EXTRACT: note_on channel=2 note=55 velocity=111 time=0
EXTRACT: note_on channel=0 note=36 velocity=108 time=0.004098358333333333
EXTRACT: note_on channel=1 note=64 velocity=0 time=0
EXTRACT: note_on channel=1 note=62 velocity=0 time=0
EXTRACT: note_on channel=1 note=55 velocity=0 time=0
EXTRACT: note_on channel=1 note=48 velocity=0 time=0
EXTRACT: note_on channel=1 note=64 velocity=92 time=0.004098358333333333
EXTRACT: note_on channel=1 note=62 velocity=112 time=0
EXTRACT: note_on channel=1 note=55 velocity=73 time=0
EXTRACT: note_on channel=9 note=42 velocity=0 time=0.02868850833333333
EXTRACT: note_on channel=9 note=42 velocity=58 time=0.20491791666666664
EXTRACT: note_on channel=9 note=36 velocity=120 time=0
EXTRACT: note_on channel=5 note=62 velocity=0 time=0.0061475374999999995
EXTRACT: note_on channel=0 note=36 velocity=0 time=0.0020491791666666665
EXTRACT: note_on channel=4 note=74 velocity=0 time=0.0010245895833333333
EXTRACT: note_on channel=4 note=76 velocity=100 time=0
EXTRACT: note_on channel=9 note=42 velocity=0 time=0.03176227708333333
EXTRACT: note_on channel=9 note=36 velocity=0 time=0
EXTRACT: note_on channel=2 note=64 velocity=0 time=0.20491791666666664
EXTRACT: note_on channel=2 note=62 velocity=0 time=0
EXTRACT: note_on channel=2 note=55 velocity=0 time=0
EXTRACT: note_on channel=9 note=40 velocity=127 time=0
EXTRACT: note_on channel=2 note=64 velocity=77 time=0.004098358333333333
EXTRACT: note_on channel=2 note=60 velocity=84 time=0
EXTRACT: note_on channel=2 note=55 velocity=77 time=0
EXTRACT: note_on channel=0 note=28 velocity=111 time=0.004098358333333333
EXTRACT: note_on channel=1 note=64 velocity=0 time=0
EXTRACT: note_on channel=1 note=62 velocity=0 time=0
EXTRACT: note_on channel=1 note=55 velocity=0 time=0
EXTRACT: note_on channel=1 note=64 velocity=99 time=0.004098358333333333
EXTRACT: note_on channel=1 note=60 velocity=93 time=0
EXTRACT: note_on channel=1 note=55 velocity=97 time=0
EXTRACT: note_on channel=9 note=40 velocity=0 time=0.02868850833333333
EXTRACT: note_on channel=2 note=64 velocity=0 time=0.20491791666666664
EXTRACT: note_on channel=2 note=60 velocity=0 time=0
EXTRACT: note_on channel=2 note=55 velocity=0 time=0
EXTRACT: note_on channel=9 note=40 velocity=127 time=0
EXTRACT: note_on channel=9 note=42 velocity=59 time=0
EXTRACT: note_on channel=2 note=64 velocity=100 time=0.004098358333333333
EXTRACT: note_on channel=2 note=60 velocity=86 time=0
EXTRACT: note_on channel=2 note=55 velocity=94 time=0
EXTRACT: note_on channel=2 note=48 velocity=117 time=0
EXTRACT: note_on channel=1 note=64 velocity=0 time=0.004098358333333333
EXTRACT: note_on channel=1 note=60 velocity=0 time=0
EXTRACT: note_on channel=1 note=55 velocity=0 time=0
EXTRACT: note_on channel=1 note=64 velocity=94 time=0.004098358333333333
EXTRACT: note_on channel=1 note=60 velocity=93 time=0
EXTRACT: note_on channel=1 note=55 velocity=104 time=0
EXTRACT: note_on channel=1 note=48 velocity=117 time=0
EXTRACT: note_on channel=9 note=40 velocity=0 time=0.02868850833333333
EXTRACT: note_on channel=9 note=42 velocity=0 time=0
EXTRACT: note_on channel=0 note=28 velocity=0 time=0.09016388333333333
EXTRACT: note_on channel=2 note=64 velocity=0 time=0.11475403333333332
EXTRACT: note_on channel=2 note=60 velocity=0 time=0
EXTRACT: note_on channel=2 note=55 velocity=0 time=0
EXTRACT: note_on channel=2 note=48 velocity=0 time=0
EXTRACT: note_on channel=9 note=42 velocity=66 time=0
EXTRACT: note_on channel=2 note=64 velocity=74 time=0.004098358333333333
EXTRACT: note_on channel=2 note=60 velocity=70 time=0
EXTRACT: note_on channel=2 note=55 velocity=73 time=0
EXTRACT: note_on channel=1 note=64 velocity=0 time=0.004098358333333333
EXTRACT: note_on channel=1 note=60 velocity=0 time=0
EXTRACT: note_on channel=1 note=55 velocity=0 time=0
EXTRACT: note_on channel=1 note=48 velocity=0 time=0
EXTRACT: note_on channel=1 note=64 velocity=105 time=0.004098358333333333
EXTRACT: note_on channel=1 note=60 velocity=96 time=0
EXTRACT: note_on channel=1 note=55 velocity=80 time=0
EXTRACT: note_on channel=9 note=42 velocity=0 time=0.02868850833333333
EXTRACT: note_on channel=9 note=36 velocity=120 time=0.08196716666666666
EXTRACT: note_on channel=9 note=36 velocity=0 time=0.04098358333333333
EXTRACT: note_on channel=2 note=64 velocity=0 time=0.08196716666666666
EXTRACT: note_on channel=2 note=60 velocity=0 time=0
EXTRACT: note_on channel=2 note=55 velocity=0 time=0
EXTRACT: note_on channel=9 note=40 velocity=127 time=0
EXTRACT: note_on channel=9 note=42 velocity=68 time=0
EXTRACT: note_on channel=2 note=64 velocity=112 time=0.004098358333333333
EXTRACT: note_on channel=2 note=60 velocity=97 time=0
EXTRACT: note_on channel=2 note=55 velocity=95 time=0
EXTRACT: note_on channel=2 note=48 velocity=100 time=0
EXTRACT: note_on channel=0 note=31 velocity=103 time=0.004098358333333333
EXTRACT: note_on channel=1 note=64 velocity=0 time=0
EXTRACT: note_on channel=1 note=60 velocity=0 time=0
EXTRACT: note_on channel=1 note=55 velocity=0 time=0
EXTRACT: note_on channel=1 note=64 velocity=106 time=0.004098358333333333
EXTRACT: note_on channel=1 note=60 velocity=86 time=0
EXTRACT: note_on channel=1 note=55 velocity=101 time=0
EXTRACT: note_on channel=1 note=48 velocity=82 time=0
EXTRACT: note_on channel=9 note=40 velocity=0 time=0.02868850833333333
EXTRACT: note_on channel=9 note=42 velocity=0 time=0
EXTRACT: note_on channel=0 note=31 velocity=0 time=0.15163925833333333
EXTRACT: note_on channel=2 note=64 velocity=0 time=0.053278658333333326
EXTRACT: note_on channel=2 note=60 velocity=0 time=0
EXTRACT: note_on channel=2 note=55 velocity=0 time=0
EXTRACT: note_on channel=2 note=48 velocity=0 time=0
EXTRACT: note_on channel=9 note=36 velocity=110 time=0
EXTRACT: note_on channel=9 note=42 velocity=43 time=0
EXTRACT: note_on channel=2 note=64 velocity=73 time=0.004098358333333333
EXTRACT: note_on channel=2 note=60 velocity=72 time=0
EXTRACT: note_on channel=2 note=55 velocity=79 time=0
EXTRACT: note_on channel=0 note=35 velocity=105 time=0.004098358333333333
EXTRACT: note_on channel=1 note=64 velocity=0 time=0
EXTRACT: note_on channel=1 note=60 velocity=0 time=0
EXTRACT: note_on channel=1 note=55 velocity=0 time=0
EXTRACT: note_on channel=1 note=48 velocity=0 time=0
EXTRACT: note_on channel=1 note=64 velocity=113 time=0.004098358333333333
EXTRACT: note_on channel=1 note=60 velocity=64 time=0
EXTRACT: note_on channel=1 note=55 velocity=116 time=0
EXTRACT: note_on channel=9 note=36 velocity=0 time=0.02868850833333333
EXTRACT: note_on channel=9 note=42 velocity=0 time=0
EXTRACT: note_on channel=0 note=35 velocity=0 time=0.15163925833333333
EXTRACT: note_on channel=2 note=64 velocity=0 time=0.053278658333333326
EXTRACT: note_on channel=2 note=60 velocity=0 time=0
EXTRACT: note_on channel=2 note=55 velocity=0 time=0
EXTRACT: note_on channel=9 note=40 velocity=110 time=0
EXTRACT: note_on channel=9 note=42 velocity=65 time=0
EXTRACT: note_on channel=2 note=64 velocity=95 time=0.004098358333333333
EXTRACT: note_on channel=2 note=60 velocity=103 time=0
EXTRACT: note_on channel=2 note=55 velocity=107 time=0
EXTRACT: note_on channel=2 note=48 velocity=100 time=0
EXTRACT: note_on channel=0 note=36 velocity=112 time=0.004098358333333333
EXTRACT: note_on channel=1 note=64 velocity=0 time=0
EXTRACT: note_on channel=1 note=60 velocity=0 time=0
EXTRACT: note_on channel=1 note=55 velocity=0 time=0
EXTRACT: note_on channel=1 note=64 velocity=114 time=0.004098358333333333
EXTRACT: note_on channel=1 note=60 velocity=112 time=0
EXTRACT: note_on channel=1 note=55 velocity=84 time=0
EXTRACT: note_on channel=1 note=48 velocity=98 time=0
EXTRACT: note_on channel=9 note=40 velocity=127 time=0.012295074999999999
EXTRACT: note_on channel=9 note=40 velocity=0 time=0.016393433333333332
EXTRACT: note_on channel=9 note=42 velocity=0 time=0
EXTRACT: note_on channel=9 note=40 velocity=0 time=0.024590149999999998
EXTRACT: note_on channel=0 note=36 velocity=0 time=0.12704910833333333
EXTRACT: note_on channel=2 note=64 velocity=0 time=0.053278658333333326
EXTRACT: note_on channel=2 note=60 velocity=0 time=0
EXTRACT: note_on channel=2 note=55 velocity=0 time=0
EXTRACT: note_on channel=2 note=48 velocity=0 time=0
EXTRACT: note_on channel=9 note=36 velocity=110 time=0
EXTRACT: note_on channel=9 note=42 velocity=42 time=0
EXTRACT: note_on channel=2 note=64 velocity=98 time=0.004098358333333333
EXTRACT: note_on channel=2 note=60 velocity=83 time=0
EXTRACT: note_on channel=2 note=55 velocity=70 time=0
EXTRACT: note_on channel=0 note=31 velocity=106 time=0.004098358333333333
EXTRACT: note_on channel=1 note=64 velocity=0 time=0
EXTRACT: note_on channel=1 note=60 velocity=0 time=0
EXTRACT: note_on channel=1 note=55 velocity=0 time=0
EXTRACT: note_on channel=1 note=48 velocity=0 time=0
EXTRACT: note_on channel=1 note=64 velocity=98 time=0.004098358333333333
EXTRACT: note_on channel=1 note=60 velocity=93 time=0
EXTRACT: note_on channel=1 note=55 velocity=112 time=0
EXTRACT: note_on channel=9 note=36 velocity=0 time=0.02868850833333333
EXTRACT: note_on channel=9 note=42 velocity=0 time=0
EXTRACT: note_on channel=0 note=31 velocity=0 time=0.15163925833333333
EXTRACT: note_on channel=2 note=64 velocity=0 time=0.053278658333333326
EXTRACT: note_on channel=2 note=60 velocity=0 time=0
EXTRACT: note_on channel=2 note=55 velocity=0 time=0
EXTRACT: note_on channel=9 note=49 velocity=100 time=0
EXTRACT: note_on channel=9 note=36 velocity=120 time=0
EXTRACT: note_on channel=2 note=64 velocity=103 time=0.004098358333333333
EXTRACT: note_on channel=2 note=60 velocity=97 time=0
EXTRACT: note_on channel=2 note=55 velocity=86 time=0
EXTRACT: note_on channel=2 note=48 velocity=103 time=0
EXTRACT: note_on channel=0 note=36 velocity=119 time=0.004098358333333333
EXTRACT: note_on channel=1 note=64 velocity=0 time=0
EXTRACT: note_on channel=1 note=60 velocity=0 time=0
EXTRACT: note_on channel=1 note=55 velocity=0 time=0
EXTRACT: note_on channel=4 note=72 velocity=0 time=0.0010245895833333333
EXTRACT: note_on channel=4 note=67 velocity=0 time=0
EXTRACT: note_on channel=4 note=76 velocity=0 time=0
EXTRACT: note_on channel=4 note=72 velocity=113 time=0
EXTRACT: note_on channel=4 note=76 velocity=96 time=0
EXTRACT: note_on channel=4 note=79 velocity=113 time=0
EXTRACT: note_on channel=1 note=64 velocity=80 time=0.0030737687499999998
EXTRACT: note_on channel=1 note=60 velocity=88 time=0
EXTRACT: note_on channel=1 note=55 velocity=88 time=0
EXTRACT: note_on channel=1 note=48 velocity=115 time=0
EXTRACT: note_on channel=9 note=49 velocity=0 time=0.02868850833333333
EXTRACT: note_on channel=9 note=36 velocity=0 time=0
EXTRACT: note_on channel=9 note=42 velocity=41 time=0.20491791666666664
EXTRACT: note_on channel=0 note=36 velocity=0 time=0.008196716666666666
EXTRACT: note_on channel=9 note=42 velocity=0 time=0.032786866666666664
EXTRACT: note_on channel=2 note=64 velocity=0 time=0.20491791666666664
EXTRACT: note_on channel=2 note=60 velocity=0 time=0
EXTRACT: note_on channel=2 note=55 velocity=0 time=0
EXTRACT: note_on channel=2 note=48 velocity=0 time=0
EXTRACT: note_on channel=9 note=40 velocity=127 time=0
EXTRACT: note_on channel=9 note=42 velocity=66 time=0
EXTRACT: note_on channel=2 note=64 velocity=114 time=0.004098358333333333
EXTRACT: note_on channel=2 note=60 velocity=92 time=0
EXTRACT: note_on channel=2 note=55 velocity=90 time=0
EXTRACT: note_on channel=2 note=48 velocity=90 time=0
EXTRACT: note_on channel=0 note=36 velocity=113 time=0.004098358333333333
EXTRACT: note_on channel=1 note=64 velocity=0 time=0
EXTRACT: note_on channel=1 note=60 velocity=0 time=0
EXTRACT: note_on channel=1 note=55 velocity=0 time=0
EXTRACT: note_on channel=1 note=48 velocity=0 time=0
EXTRACT: note_on channel=1 note=64 velocity=80 time=0.004098358333333333
EXTRACT: note_on channel=1 note=60 velocity=90 time=0
EXTRACT: note_on channel=1 note=55 velocity=81 time=0
EXTRACT: note_on channel=1 note=48 velocity=111 time=0
EXTRACT: note_on channel=9 note=40 velocity=0 time=0.02868850833333333
EXTRACT: note_on channel=9 note=42 velocity=0 time=0
EXTRACT: note_on channel=0 note=36 velocity=0 time=0.15163925833333333
EXTRACT: note_on channel=9 note=42 velocity=68 time=0.053278658333333326
EXTRACT: note_on channel=5 note=72 velocity=75 time=0.0061475374999999995
EXTRACT: note_on channel=5 note=67 velocity=90 time=0
EXTRACT: note_on channel=0 note=36 velocity=116 time=0.0020491791666666665
EXTRACT: note_on channel=9 note=42 velocity=0 time=0.032786866666666664
EXTRACT: note_on channel=0 note=36 velocity=0 time=0.15163925833333333
EXTRACT: note_on channel=2 note=64 velocity=0 time=0.053278658333333326
EXTRACT: note_on channel=2 note=60 velocity=0 time=0
EXTRACT: note_on channel=2 note=55 velocity=0 time=0
EXTRACT: note_on channel=2 note=48 velocity=0 time=0
EXTRACT: note_on channel=9 note=36 velocity=120 time=0
EXTRACT: note_on channel=9 note=42 velocity=68 time=0
EXTRACT: note_on channel=5 note=72 velocity=0 time=0.0020491791666666665
EXTRACT: note_on channel=5 note=67 velocity=0 time=0
EXTRACT: note_on channel=2 note=64 velocity=88 time=0.0020491791666666665
EXTRACT: note_on channel=2 note=60 velocity=99 time=0
EXTRACT: note_on channel=2 note=55 velocity=88 time=0
EXTRACT: note_on channel=5 note=72 velocity=72 time=0.0020491791666666665
EXTRACT: note_on channel=5 note=67 velocity=95 time=0
EXTRACT: note_on channel=0 note=36 velocity=125 time=0.0020491791666666665
EXTRACT: note_on channel=1 note=64 velocity=0 time=0
EXTRACT: note_on channel=1 note=60 velocity=0 time=0
EXTRACT: note_on channel=1 note=55 velocity=0 time=0
EXTRACT: note_on channel=1 note=48 velocity=0 time=0
EXTRACT: note_on channel=1 note=64 velocity=94 time=0.004098358333333333
EXTRACT: note_on channel=1 note=60 velocity=116 time=0
EXTRACT: note_on channel=1 note=55 velocity=84 time=0
EXTRACT: note_on channel=9 note=36 velocity=0 time=0.02868850833333333
EXTRACT: note_on channel=9 note=42 velocity=0 time=0
EXTRACT: note_on channel=0 note=36 velocity=0 time=0.15163925833333333
EXTRACT: note_on channel=2 note=64 velocity=0 time=0.053278658333333326
EXTRACT: note_on channel=2 note=60 velocity=0 time=0
EXTRACT: note_on channel=2 note=55 velocity=0 time=0
EXTRACT: note_on channel=9 note=36 velocity=110 time=0
EXTRACT: note_on channel=9 note=42 velocity=41 time=0
EXTRACT: note_on channel=5 note=72 velocity=0 time=0.0020491791666666665
EXTRACT: note_on channel=5 note=67 velocity=0 time=0
EXTRACT: note_on channel=2 note=64 velocity=99 time=0.0020491791666666665
EXTRACT: note_on channel=2 note=60 velocity=87 time=0
EXTRACT: note_on channel=2 note=55 velocity=76 time=0
EXTRACT: note_on channel=2 note=48 velocity=76 time=0
EXTRACT: note_on channel=5 note=74 velocity=77 time=0.0020491791666666665
EXTRACT: note_on channel=5 note=69 velocity=86 time=0
EXTRACT: note_on channel=0 note=36 velocity=125 time=0.0020491791666666665
EXTRACT: note_on channel=1 note=64 velocity=0 time=0
EXTRACT: note_on channel=1 note=60 velocity=0 time=0
EXTRACT: note_on channel=1 note=55 velocity=0 time=0
EXTRACT: note_on channel=1 note=64 velocity=102 time=0.004098358333333333
EXTRACT: note_on channel=1 note=60 velocity=89 time=0
EXTRACT: note_on channel=1 note=55 velocity=86 time=0
EXTRACT: note_on channel=1 note=48 velocity=88 time=0
EXTRACT: note_on channel=9 note=36 velocity=0 time=0.02868850833333333
EXTRACT: note_on channel=9 note=42 velocity=0 time=0
EXTRACT: note_on channel=0 note=36 velocity=0 time=0.15163925833333333
EXTRACT: note_on channel=2 note=64 velocity=0 time=0.053278658333333326
EXTRACT: note_on channel=2 note=60 velocity=0 time=0
EXTRACT: note_on channel=2 note=55 velocity=0 time=0
EXTRACT: note_on channel=2 note=48 velocity=0 time=0
EXTRACT: note_on channel=9 note=40 velocity=127 time=0
EXTRACT: note_on channel=9 note=42 velocity=60 time=0
EXTRACT: note_on channel=2 note=64 velocity=93 time=0.004098358333333333
EXTRACT: note_on channel=2 note=60 velocity=85 time=0
EXTRACT: note_on channel=2 note=55 velocity=98 time=0
EXTRACT: note_on channel=2 note=48 velocity=87 time=0
EXTRACT: note_on channel=5 note=74 velocity=0 time=0.0020491791666666665
EXTRACT: note_on channel=5 note=69 velocity=0 time=0
EXTRACT: pitchwheel channel=0 pitch=0 time=0.0020491791666666665
EXTRACT: note_on channel=0 note=36 velocity=118 time=0
EXTRACT: note_on channel=1 note=64 velocity=0 time=0
EXTRACT: note_on channel=1 note=60 velocity=0 time=0
EXTRACT: note_on channel=1 note=55 velocity=0 time=0
EXTRACT: note_on channel=1 note=48 velocity=0 time=0
EXTRACT: pitchwheel channel=0 pitch=80 time=0.004098358333333333
EXTRACT: note_on channel=1 note=64 velocity=89 time=0
EXTRACT: note_on channel=1 note=60 velocity=106 time=0
EXTRACT: note_on channel=1 note=55 velocity=97 time=0
EXTRACT: note_on channel=1 note=48 velocity=94 time=0
EXTRACT: pitchwheel channel=0 pitch=159 time=0.004098358333333333
EXTRACT: pitchwheel channel=0 pitch=239 time=0.004098358333333333
EXTRACT: pitchwheel channel=0 pitch=319 time=0.004098358333333333
EXTRACT: pitchwheel channel=0 pitch=398 time=0.004098358333333333
EXTRACT: pitchwheel channel=0 pitch=478 time=0.004098358333333333
EXTRACT: pitchwheel channel=0 pitch=558 time=0.004098358333333333
EXTRACT: pitchwheel channel=0 pitch=637 time=0.004098358333333333
EXTRACT: note_on channel=9 note=40 velocity=0 time=0
EXTRACT: note_on channel=9 note=42 velocity=0 time=0
EXTRACT: pitchwheel channel=0 pitch=717 time=0.004098358333333333
EXTRACT: pitchwheel channel=0 pitch=797 time=0.004098358333333333
EXTRACT: pitchwheel channel=0 pitch=876 time=0.004098358333333333
EXTRACT: pitchwheel channel=0 pitch=956 time=0.004098358333333333
EXTRACT: pitchwheel channel=0 pitch=1035 time=0.004098358333333333
EXTRACT: pitchwheel channel=0 pitch=1115 time=0.004098358333333333
EXTRACT: pitchwheel channel=0 pitch=1195 time=0.004098358333333333
EXTRACT: pitchwheel channel=0 pitch=1274 time=0.004098358333333333
EXTRACT: pitchwheel channel=0 pitch=1354 time=0.004098358333333333
EXTRACT: pitchwheel channel=0 pitch=1434 time=0.004098358333333333
EXTRACT: pitchwheel channel=0 pitch=1513 time=0.004098358333333333
EXTRACT: pitchwheel channel=0 pitch=1593 time=0.004098358333333333
EXTRACT: pitchwheel channel=0 pitch=1673 time=0.004098358333333333
EXTRACT: pitchwheel channel=0 pitch=1752 time=0.004098358333333333
EXTRACT: pitchwheel channel=0 pitch=1832 time=0.004098358333333333
EXTRACT: pitchwheel channel=0 pitch=1912 time=0.004098358333333333
EXTRACT: pitchwheel channel=0 pitch=1991 time=0.004098358333333333
EXTRACT: pitchwheel channel=0 pitch=2071 time=0.004098358333333333
EXTRACT: pitchwheel channel=0 pitch=2151 time=0.004098358333333333
EXTRACT: pitchwheel channel=0 pitch=2230 time=0.004098358333333333
EXTRACT: pitchwheel channel=0 pitch=2310 time=0.004098358333333333
EXTRACT: pitchwheel channel=0 pitch=2390 time=0.004098358333333333
EXTRACT: pitchwheel channel=0 pitch=2469 time=0.004098358333333333
EXTRACT: pitchwheel channel=0 pitch=2549 time=0.004098358333333333
EXTRACT: pitchwheel channel=0 pitch=2628 time=0.004098358333333333
EXTRACT: pitchwheel channel=0 pitch=2708 time=0.004098358333333333
EXTRACT: pitchwheel channel=0 pitch=2788 time=0.004098358333333333
EXTRACT: pitchwheel channel=0 pitch=2867 time=0.004098358333333333
EXTRACT: pitchwheel channel=0 pitch=2947 time=0.004098358333333333
EXTRACT: pitchwheel channel=0 pitch=3027 time=0.004098358333333333
EXTRACT: pitchwheel channel=0 pitch=3106 time=0.004098358333333333
EXTRACT: pitchwheel channel=0 pitch=3186 time=0.004098358333333333
EXTRACT: pitchwheel channel=0 pitch=3266 time=0.004098358333333333
EXTRACT: pitchwheel channel=0 pitch=3345 time=0.004098358333333333
EXTRACT: pitchwheel channel=0 pitch=3425 time=0.004098358333333333
EXTRACT: pitchwheel channel=0 pitch=3505 time=0.004098358333333333
EXTRACT: pitchwheel channel=0 pitch=3584 time=0.004098358333333333
EXTRACT: pitchwheel channel=0 pitch=3664 time=0.004098358333333333
EXTRACT: pitchwheel channel=0 pitch=3744 time=0.004098358333333333
EXTRACT: pitchwheel channel=0 pitch=3823 time=0.004098358333333333
EXTRACT: pitchwheel channel=0 pitch=3903 time=0.004098358333333333
EXTRACT: pitchwheel channel=0 pitch=3983 time=0.004098358333333333
EXTRACT: pitchwheel channel=0 pitch=4062 time=0.004098358333333333
EXTRACT: pitchwheel channel=0 pitch=4142 time=0.004098358333333333
EXTRACT: pitchwheel channel=0 pitch=4221 time=0.004098358333333333
EXTRACT: pitchwheel channel=0 pitch=4301 time=0.004098358333333333
EXTRACT: pitchwheel channel=0 pitch=4381 time=0.004098358333333333
EXTRACT: pitchwheel channel=0 pitch=4460 time=0.004098358333333333
EXTRACT: pitchwheel channel=0 pitch=4540 time=0.004098358333333333
EXTRACT: pitchwheel channel=0 pitch=4620 time=0.004098358333333333
EXTRACT: note_on channel=2 note=64 velocity=0 time=0
EXTRACT: note_on channel=2 note=60 velocity=0 time=0
EXTRACT: note_on channel=2 note=55 velocity=0 time=0
EXTRACT: note_on channel=2 note=48 velocity=0 time=0
EXTRACT: note_on channel=9 note=42 velocity=50 time=0
EXTRACT: pitchwheel channel=0 pitch=4699 time=0.004098358333333333
EXTRACT: note_on channel=2 note=64 velocity=69 time=0
EXTRACT: note_on channel=2 note=60 velocity=88 time=0
EXTRACT: note_on channel=2 note=55 velocity=109 time=0
EXTRACT: note_on channel=5 note=76 velocity=71 time=0.0020491791666666665
EXTRACT: note_on channel=5 note=72 velocity=93 time=0
EXTRACT: pitchwheel channel=0 pitch=4779 time=0.0020491791666666665
EXTRACT: note_on channel=1 note=64 velocity=0 time=0
EXTRACT: note_on channel=1 note=60 velocity=0 time=0
EXTRACT: note_on channel=1 note=55 velocity=0 time=0
EXTRACT: note_on channel=1 note=48 velocity=0 time=0
EXTRACT: note_on channel=1 note=64 velocity=65 time=0.004098358333333333
EXTRACT: note_on channel=1 note=60 velocity=102 time=0
EXTRACT: note_on channel=1 note=55 velocity=110 time=0
EXTRACT: note_on channel=9 note=42 velocity=0 time=0.02868850833333333
EXTRACT: note_on channel=2 note=64 velocity=0 time=0.20491791666666664
EXTRACT: note_on channel=2 note=60 velocity=0 time=0
EXTRACT: note_on channel=2 note=55 velocity=0 time=0
EXTRACT: note_on channel=9 note=42 velocity=61 time=0
EXTRACT: note_on channel=9 note=36 velocity=120 time=0
EXTRACT: note_on channel=2 note=62 velocity=105 time=0.004098358333333333
EXTRACT: note_on channel=2 note=58 velocity=85 time=0
EXTRACT: note_on channel=2 note=55 velocity=117 time=0
EXTRACT: note_on channel=2 note=65 velocity=107 time=0
EXTRACT: note_on channel=0 note=36 velocity=0 time=0.004098358333333333
EXTRACT: note_on channel=1 note=64 velocity=0 time=0
EXTRACT: note_on channel=1 note=60 velocity=0 time=0
EXTRACT: note_on channel=1 note=55 velocity=0 time=0
EXTRACT: note_on channel=4 note=72 velocity=0 time=0.0010245895833333333
EXTRACT: note_on channel=4 note=76 velocity=0 time=0
EXTRACT: note_on channel=4 note=79 velocity=0 time=0
EXTRACT: note_on channel=4 note=74 velocity=102 time=0
EXTRACT: note_on channel=4 note=79 velocity=107 time=0
EXTRACT: note_on channel=4 note=82 velocity=101 time=0
EXTRACT: note_on channel=1 note=62 velocity=96 time=0.0030737687499999998
EXTRACT: note_on channel=1 note=58 velocity=96 time=0
EXTRACT: note_on channel=1 note=55 velocity=85 time=0
EXTRACT: note_on channel=1 note=65 velocity=106 time=0
EXTRACT: note_on channel=9 note=42 velocity=0 time=0.02868850833333333
EXTRACT: note_on channel=9 note=36 velocity=0 time=0
EXTRACT: note_on channel=9 note=42 velocity=44 time=0.20491791666666664
EXTRACT: note_on channel=5 note=76 velocity=0 time=0.0020491791666666665
EXTRACT: note_on channel=5 note=72 velocity=0 time=0
EXTRACT: note_on channel=5 note=76 velocity=44 time=0.004098358333333333
EXTRACT: note_on channel=5 note=72 velocity=94 time=0
EXTRACT: pitchwheel channel=0 pitch=0 time=0.0020491791666666665
EXTRACT: note_on channel=0 note=43 velocity=116 time=0
EXTRACT: note_on channel=9 note=42 velocity=0 time=0.032786866666666664
EXTRACT: note_on channel=0 note=43 velocity=0 time=0.15163925833333333
EXTRACT: note_on channel=2 note=62 velocity=0 time=0.053278658333333326
EXTRACT: note_on channel=2 note=58 velocity=0 time=0
EXTRACT: note_on channel=2 note=55 velocity=0 time=0
EXTRACT: note_on channel=2 note=65 velocity=0 time=0
EXTRACT: note_on channel=9 note=40 velocity=127 time=0
EXTRACT: note_on channel=9 note=42 velocity=60 time=0
EXTRACT: note_on channel=2 note=62 velocity=111 time=0.004098358333333333
EXTRACT: note_on channel=2 note=58 velocity=108 time=0
EXTRACT: note_on channel=2 note=55 velocity=97 time=0
EXTRACT: note_on channel=2 note=65 velocity=98 time=0
EXTRACT: note_on channel=0 note=43 velocity=127 time=0.004098358333333333
EXTRACT: note_on channel=1 note=62 velocity=0 time=0
EXTRACT: note_on channel=1 note=58 velocity=0 time=0
EXTRACT: note_on channel=1 note=55 velocity=0 time=0
EXTRACT: note_on channel=1 note=65 velocity=0 time=0
EXTRACT: note_on channel=1 note=62 velocity=92 time=0.004098358333333333
EXTRACT: note_on channel=1 note=58 velocity=96 time=0
EXTRACT: note_on channel=1 note=55 velocity=110 time=0
EXTRACT: note_on channel=1 note=65 velocity=95 time=0
EXTRACT: note_on channel=9 note=40 velocity=0 time=0.02868850833333333
EXTRACT: note_on channel=9 note=42 velocity=0 time=0
EXTRACT: note_on channel=0 note=43 velocity=0 time=0.15163925833333333
EXTRACT: note_on channel=9 note=42 velocity=68 time=0.053278658333333326
EXTRACT: note_on channel=5 note=76 velocity=0 time=0.0020491791666666665
EXTRACT: note_on channel=5 note=72 velocity=0 time=0
EXTRACT: note_on channel=5 note=74 velocity=59 time=0.004098358333333333
EXTRACT: note_on channel=5 note=69 velocity=95 time=0
EXTRACT: note_on channel=0 note=43 velocity=123 time=0.0020491791666666665
EXTRACT: note_on channel=9 note=42 velocity=0 time=0.032786866666666664
EXTRACT: note_on channel=0 note=43 velocity=0 time=0.15163925833333333
EXTRACT: note_on channel=2 note=62 velocity=0 time=0.053278658333333326
EXTRACT: note_on channel=2 note=58 velocity=0 time=0
EXTRACT: note_on channel=2 note=55 velocity=0 time=0
EXTRACT: note_on channel=2 note=65 velocity=0 time=0
EXTRACT: note_on channel=9 note=36 velocity=120 time=0
EXTRACT: note_on channel=9 note=42 velocity=65 time=0
EXTRACT: note_on channel=2 note=62 velocity=112 time=0.004098358333333333
EXTRACT: note_on channel=2 note=58 velocity=107 time=0
EXTRACT: note_on channel=2 note=55 velocity=93 time=0
EXTRACT: note_on channel=0 note=36 velocity=109 time=0.004098358333333333
EXTRACT: note_on channel=1 note=62 velocity=0 time=0
EXTRACT: note_on channel=1 note=58 velocity=0 time=0
EXTRACT: note_on channel=1 note=55 velocity=0 time=0
EXTRACT: note_on channel=1 note=65 velocity=0 time=0
EXTRACT: note_on channel=1 note=62 velocity=116 time=0.004098358333333333
EXTRACT: note_on channel=1 note=58 velocity=80 time=0
EXTRACT: note_on channel=1 note=55 velocity=99 time=0
EXTRACT: note_on channel=9 note=36 velocity=0 time=0.02868850833333333
EXTRACT: note_on channel=9 note=42 velocity=0 time=0
EXTRACT: note_on channel=0 note=36 velocity=0 time=0.15163925833333333
EXTRACT: note_on channel=2 note=62 velocity=0 time=0.053278658333333326
EXTRACT: note_on channel=2 note=58 velocity=0 time=0
EXTRACT: note_on channel=2 note=55 velocity=0 time=0
EXTRACT: note_on channel=9 note=36 velocity=110 time=0
EXTRACT: note_on channel=9 note=42 velocity=46 time=0
EXTRACT: note_on channel=5 note=74 velocity=0 time=0.0020491791666666665
EXTRACT: note_on channel=5 note=69 velocity=0 time=0
EXTRACT: note_on channel=2 note=62 velocity=114 time=0.0020491791666666665
EXTRACT: note_on channel=2 note=58 velocity=67 time=0
EXTRACT: note_on channel=2 note=55 velocity=109 time=0
EXTRACT: note_on channel=2 note=65 velocity=101 time=0
EXTRACT: note_on channel=5 note=72 velocity=56 time=0.0020491791666666665
EXTRACT: note_on channel=5 note=67 velocity=95 time=0
EXTRACT: note_on channel=0 note=36 velocity=122 time=0.0020491791666666665
EXTRACT: note_on channel=1 note=62 velocity=0 time=0
EXTRACT: note_on channel=1 note=58 velocity=0 time=0
EXTRACT: note_on channel=1 note=55 velocity=0 time=0
EXTRACT: note_on channel=1 note=62 velocity=108 time=0.004098358333333333
EXTRACT: note_on channel=1 note=58 velocity=77 time=0
EXTRACT: note_on channel=1 note=55 velocity=94 time=0
EXTRACT: note_on channel=1 note=65 velocity=92 time=0
EXTRACT: note_on channel=9 note=36 velocity=0 time=0.02868850833333333
EXTRACT: note_on channel=9 note=42 velocity=0 time=0
EXTRACT: note_on channel=0 note=36 velocity=0 time=0.15163925833333333
EXTRACT: note_on channel=2 note=62 velocity=0 time=0.053278658333333326
EXTRACT: note_on channel=2 note=58 velocity=0 time=0
EXTRACT: note_on channel=2 note=55 velocity=0 time=0
EXTRACT: note_on channel=2 note=65 velocity=0 time=0
EXTRACT: note_on channel=9 note=40 velocity=127 time=0
EXTRACT: note_on channel=9 note=42 velocity=61 time=0
EXTRACT: note_on channel=2 note=62 velocity=117 time=0.004098358333333333
EXTRACT: note_on channel=2 note=58 velocity=92 time=0
EXTRACT: note_on channel=2 note=55 velocity=104 time=0
EXTRACT: note_on channel=2 note=65 velocity=96 time=0
EXTRACT: note_on channel=0 note=38 velocity=117 time=0.004098358333333333
EXTRACT: note_on channel=1 note=62 velocity=0 time=0
EXTRACT: note_on channel=1 note=58 velocity=0 time=0
EXTRACT: note_on channel=1 note=55 velocity=0 time=0
EXTRACT: note_on channel=1 note=65 velocity=0 time=0
EXTRACT: note_on channel=1 note=62 velocity=101 time=0.004098358333333333
EXTRACT: note_on channel=1 note=58 velocity=112 time=0
EXTRACT: note_on channel=1 note=55 velocity=113 time=0
EXTRACT: note_on channel=1 note=65 velocity=108 time=0
EXTRACT: note_on channel=9 note=40 velocity=0 time=0.02868850833333333
EXTRACT: note_on channel=9 note=42 velocity=0 time=0
EXTRACT: note_on channel=0 note=38 velocity=0 time=0.15163925833333333
EXTRACT: note_on channel=2 note=62 velocity=0 time=0.053278658333333326
EXTRACT: note_on channel=2 note=58 velocity=0 time=0
EXTRACT: note_on channel=2 note=55 velocity=0 time=0
EXTRACT: note_on channel=2 note=65 velocity=0 time=0
EXTRACT: note_on channel=9 note=36 velocity=110 time=0
EXTRACT: note_on channel=9 note=42 velocity=41 time=0
EXTRACT: note_on channel=2 note=62 velocity=90 time=0.004098358333333333
EXTRACT: note_on channel=2 note=58 velocity=101 time=0
EXTRACT: note_on channel=2 note=55 velocity=89 time=0
EXTRACT: note_on channel=0 note=40 velocity=120 time=0.004098358333333333
EXTRACT: note_on channel=1 note=62 velocity=0 time=0
EXTRACT: note_on channel=1 note=58 velocity=0 time=0
EXTRACT: note_on channel=1 note=55 velocity=0 time=0
EXTRACT: note_on channel=1 note=65 velocity=0 time=0
EXTRACT: note_on channel=1 note=62 velocity=94 time=0.004098358333333333
EXTRACT: note_on channel=1 note=58 velocity=94 time=0
EXTRACT: note_on channel=1 note=55 velocity=110 time=0
EXTRACT: note_on channel=9 note=36 velocity=0 time=0.02868850833333333
EXTRACT: note_on channel=9 note=42 velocity=0 time=0
EXTRACT: note_on channel=0 note=40 velocity=0 time=0.15163925833333333
EXTRACT: note_on channel=2 note=62 velocity=0 time=0.053278658333333326
EXTRACT: note_on channel=2 note=58 velocity=0 time=0
EXTRACT: note_on channel=2 note=55 velocity=0 time=0
EXTRACT: note_on channel=9 note=42 velocity=66 time=0
EXTRACT: note_on channel=9 note=36 velocity=120 time=0
EXTRACT: note_on channel=5 note=72 velocity=0 time=0.0020491791666666665
EXTRACT: note_on channel=5 note=67 velocity=0 time=0
EXTRACT: note_on channel=2 note=60 velocity=89 time=0.0020491791666666665
EXTRACT: note_on channel=2 note=57 velocity=104 time=0
EXTRACT: note_on channel=2 note=53 velocity=92 time=0
EXTRACT: note_on channel=2 note=65 velocity=102 time=0
EXTRACT: note_on channel=5 note=72 velocity=64 time=0.0020491791666666665
EXTRACT: note_on channel=5 note=67 velocity=85 time=0
EXTRACT: note_on channel=0 note=41 velocity=121 time=0.0020491791666666665
EXTRACT: note_on channel=1 note=62 velocity=0 time=0
EXTRACT: note_on channel=1 note=58 velocity=0 time=0
EXTRACT: note_on channel=1 note=55 velocity=0 time=0
EXTRACT: note_on channel=4 note=74 velocity=0 time=0.0010245895833333333
EXTRACT: note_on channel=4 note=79 velocity=0 time=0
EXTRACT: note_on channel=4 note=82 velocity=0 time=0
EXTRACT: note_on channel=4 note=72 velocity=122 time=0
EXTRACT: note_on channel=4 note=77 velocity=107 time=0
EXTRACT: note_on channel=4 note=81 velocity=91 time=0
EXTRACT: note_on channel=1 note=60 velocity=88 time=0.0030737687499999998
EXTRACT: note_on channel=1 note=57 velocity=115 time=0
EXTRACT: note_on channel=1 note=53 velocity=79 time=0
EXTRACT: note_on channel=1 note=65 velocity=88 time=0
EXTRACT: note_on channel=9 note=42 velocity=0 time=0.02868850833333333
EXTRACT: note_on channel=9 note=36 velocity=0 time=0
EXTRACT: note_on channel=9 note=42 velocity=49 time=0.20491791666666664
EXTRACT: note_on channel=0 note=41 velocity=0 time=0.008196716666666666
EXTRACT: note_on channel=9 note=42 velocity=0 time=0.032786866666666664
EXTRACT: note_on channel=2 note=60 velocity=0 time=0.20491791666666664
EXTRACT: note_on channel=2 note=57 velocity=0 time=0
EXTRACT: note_on channel=2 note=53 velocity=0 time=0
EXTRACT: note_on channel=2 note=65 velocity=0 time=0
EXTRACT: note_on channel=9 note=40 velocity=127 time=0
EXTRACT: note_on channel=9 note=42 velocity=57 time=0
EXTRACT: note_on channel=5 note=72 velocity=0 time=0.0020491791666666665
EXTRACT: note_on channel=5 note=67 velocity=0 time=0
EXTRACT: note_on channel=2 note=60 velocity=116 time=0.0020491791666666665
EXTRACT: note_on channel=2 note=57 velocity=103 time=0
EXTRACT: note_on channel=2 note=53 velocity=115 time=0
EXTRACT: note_on channel=2 note=65 velocity=107 time=0
EXTRACT: note_on channel=5 note=69 velocity=68 time=0.0020491791666666665
EXTRACT: note_on channel=5 note=65 velocity=115 time=0
EXTRACT: note_on channel=0 note=41 velocity=111 time=0.0020491791666666665
EXTRACT: note_on channel=1 note=60 velocity=0 time=0
EXTRACT: note_on channel=1 note=57 velocity=0 time=0
EXTRACT: note_on channel=1 note=53 velocity=0 time=0
EXTRACT: note_on channel=1 note=65 velocity=0 time=0
EXTRACT: note_on channel=1 note=60 velocity=82 time=0.004098358333333333
EXTRACT: note_on channel=1 note=57 velocity=109 time=0
EXTRACT: note_on channel=1 note=53 velocity=115 time=0
EXTRACT: note_on channel=1 note=65 velocity=85 time=0
EXTRACT: note_on channel=9 note=40 velocity=0 time=0.02868850833333333
EXTRACT: note_on channel=9 note=42 velocity=0 time=0
EXTRACT: note_on channel=0 note=41 velocity=0 time=0.15163925833333333
EXTRACT: note_on channel=9 note=42 velocity=66 time=0.053278658333333326
EXTRACT: note_on channel=5 note=69 velocity=0 time=0.0020491791666666665
EXTRACT: note_on channel=5 note=65 velocity=0 time=0
EXTRACT: note_on channel=5 note=65 velocity=57 time=0.004098358333333333
EXTRACT: note_on channel=5 note=60 velocity=111 time=0
EXTRACT: note_on channel=0 note=45 velocity=119 time=0.0020491791666666665
EXTRACT: note_on channel=9 note=42 velocity=0 time=0.032786866666666664
EXTRACT: note_on channel=0 note=45 velocity=0 time=0.15163925833333333
EXTRACT: note_on channel=2 note=60 velocity=0 time=0.053278658333333326
EXTRACT: note_on channel=2 note=57 velocity=0 time=0
EXTRACT: note_on channel=2 note=53 velocity=0 time=0
EXTRACT: note_on channel=2 note=65 velocity=0 time=0
EXTRACT: note_on channel=9 note=36 velocity=120 time=0
EXTRACT: note_on channel=9 note=42 velocity=66 time=0
EXTRACT: note_on channel=2 note=60 velocity=95 time=0.004098358333333333
EXTRACT: note_on channel=2 note=57 velocity=97 time=0
EXTRACT: note_on channel=2 note=53 velocity=109 time=0
EXTRACT: note_on channel=0 note=48 velocity=127 time=0.004098358333333333
EXTRACT: note_on channel=1 note=60 velocity=0 time=0
EXTRACT: note_on channel=1 note=57 velocity=0 time=0
EXTRACT: note_on channel=1 note=53 velocity=0 time=0
EXTRACT: note_on channel=1 note=65 velocity=0 time=0
EXTRACT: note_on channel=1 note=60 velocity=117 time=0.004098358333333333
EXTRACT: note_on channel=1 note=57 velocity=82 time=0
EXTRACT: note_on channel=1 note=53 velocity=115 time=0
EXTRACT: note_on channel=9 note=36 velocity=0 time=0.02868850833333333
EXTRACT: note_on channel=9 note=42 velocity=0 time=0
EXTRACT: note_on channel=0 note=48 velocity=0 time=0.15163925833333333
EXTRACT: note_on channel=2 note=60 velocity=0 time=0.053278658333333326
EXTRACT: note_on channel=2 note=57 velocity=0 time=0
EXTRACT: note_on channel=2 note=53 velocity=0 time=0
EXTRACT: note_on channel=9 note=36 velocity=110 time=0
EXTRACT: note_on channel=9 note=42 velocity=48 time=0
EXTRACT: note_on channel=2 note=60 velocity=112 time=0.004098358333333333
EXTRACT: note_on channel=2 note=57 velocity=113 time=0
EXTRACT: note_on channel=2 note=53 velocity=84 time=0
EXTRACT: note_on channel=2 note=65 velocity=70 time=0
EXTRACT: note_on channel=0 note=45 velocity=104 time=0.004098358333333333
EXTRACT: note_on channel=1 note=60 velocity=0 time=0
EXTRACT: note_on channel=1 note=57 velocity=0 time=0
EXTRACT: note_on channel=1 note=53 velocity=0 time=0
EXTRACT: note_on channel=1 note=60 velocity=66 time=0.004098358333333333
EXTRACT: note_on channel=1 note=57 velocity=111 time=0
EXTRACT: note_on channel=1 note=53 velocity=66 time=0
EXTRACT: note_on channel=1 note=65 velocity=69 time=0
EXTRACT: note_on channel=9 note=36 velocity=0 time=0.02868850833333333
EXTRACT: note_on channel=9 note=42 velocity=0 time=0
EXTRACT: note_on channel=0 note=45 velocity=0 time=0.15163925833333333
EXTRACT: note_on channel=2 note=60 velocity=0 time=0.053278658333333326
EXTRACT: note_on channel=2 note=57 velocity=0 time=0
EXTRACT: note_on channel=2 note=53 velocity=0 time=0
EXTRACT: note_on channel=2 note=65 velocity=0 time=0
EXTRACT: note_on channel=9 note=40 velocity=127 time=0
EXTRACT: note_on channel=9 note=42 velocity=59 time=0
EXTRACT: note_on channel=2 note=60 velocity=107 time=0.004098358333333333
EXTRACT: note_on channel=2 note=57 velocity=114 time=0
EXTRACT: note_on channel=2 note=53 velocity=110 time=0
EXTRACT: note_on channel=2 note=65 velocity=106 time=0
EXTRACT: note_on channel=5 note=65 velocity=0 time=0.0020491791666666665
EXTRACT: note_on channel=5 note=60 velocity=0 time=0
EXTRACT: note_on channel=0 note=48 velocity=120 time=0.0020491791666666665
EXTRACT: note_on channel=1 note=60 velocity=0 time=0
EXTRACT: note_on channel=1 note=57 velocity=0 time=0
EXTRACT: note_on channel=1 note=53 velocity=0 time=0
EXTRACT: note_on channel=1 note=65 velocity=0 time=0
EXTRACT: note_on channel=1 note=60 velocity=116 time=0.004098358333333333
EXTRACT: note_on channel=1 note=57 velocity=116 time=0
EXTRACT: note_on channel=1 note=53 velocity=79 time=0
EXTRACT: note_on channel=1 note=65 velocity=115 time=0
EXTRACT: note_on channel=9 note=40 velocity=0 time=0.02868850833333333
EXTRACT: note_on channel=9 note=42 velocity=0 time=0
EXTRACT: note_on channel=0 note=48 velocity=0 time=0.15163925833333333
EXTRACT: note_on channel=2 note=60 velocity=0 time=0.053278658333333326
EXTRACT: note_on channel=2 note=57 velocity=0 time=0
EXTRACT: note_on channel=2 note=53 velocity=0 time=0
EXTRACT: note_on channel=2 note=65 velocity=0 time=0
EXTRACT: note_on channel=9 note=36 velocity=110 time=0
EXTRACT: note_on channel=9 note=42 velocity=41 time=0
EXTRACT: note_on channel=2 note=60 velocity=112 time=0.004098358333333333
EXTRACT: note_on channel=2 note=57 velocity=89 time=0
EXTRACT: note_on channel=2 note=53 velocity=79 time=0
EXTRACT: note_on channel=5 note=72 velocity=67 time=0.0020491791666666665
EXTRACT: note_on channel=5 note=67 velocity=99 time=0
EXTRACT: note_on channel=0 note=45 velocity=102 time=0.0020491791666666665
EXTRACT: note_on channel=1 note=60 velocity=0 time=0
EXTRACT: note_on channel=1 note=57 velocity=0 time=0
EXTRACT: note_on channel=1 note=53 velocity=0 time=0
EXTRACT: note_on channel=1 note=65 velocity=0 time=0
EXTRACT: note_on channel=1 note=60 velocity=65 time=0.004098358333333333
EXTRACT: note_on channel=1 note=57 velocity=102 time=0
EXTRACT: note_on channel=1 note=53 velocity=82 time=0
EXTRACT: note_on channel=9 note=36 velocity=0 time=0.02868850833333333
EXTRACT: note_on channel=9 note=42 velocity=0 time=0
EXTRACT: note_on channel=0 note=45 velocity=0 time=0.15163925833333333
EXTRACT: note_on channel=2 note=60 velocity=0 time=0.053278658333333326
EXTRACT: note_on channel=2 note=57 velocity=0 time=0
EXTRACT: note_on channel=2 note=53 velocity=0 time=0
EXTRACT: note_on channel=9 note=42 velocity=63 time=0
EXTRACT: note_on channel=9 note=36 velocity=120 time=0
EXTRACT: note_on channel=5 note=72 velocity=0 time=0.0020491791666666665
EXTRACT: note_on channel=5 note=67 velocity=0 time=0
EXTRACT: note_on channel=2 note=60 velocity=112 time=0.0020491791666666665
EXTRACT: note_on channel=2 note=56 velocity=97 time=0
EXTRACT: note_on channel=2 note=53 velocity=113 time=0
EXTRACT: note_on channel=2 note=62 velocity=88 time=0
EXTRACT: note_on channel=5 note=72 velocity=46 time=0.0020491791666666665
EXTRACT: note_on channel=5 note=67 velocity=103 time=0
EXTRACT: note_on channel=0 note=34 velocity=123 time=0.0020491791666666665
EXTRACT: note_on channel=1 note=60 velocity=0 time=0
EXTRACT: note_on channel=1 note=57 velocity=0 time=0
EXTRACT: note_on channel=1 note=53 velocity=0 time=0
EXTRACT: note_on channel=4 note=72 velocity=0 time=0.0010245895833333333
EXTRACT: note_on channel=4 note=77 velocity=0 time=0
EXTRACT: note_on channel=4 note=81 velocity=0 time=0
EXTRACT: note_on channel=4 note=74 velocity=108 time=0
EXTRACT: note_on channel=4 note=77 velocity=120 time=0
EXTRACT: note_on channel=4 note=80 velocity=106 time=0
EXTRACT: note_on channel=1 note=60 velocity=94 time=0.0030737687499999998
EXTRACT: note_on channel=1 note=56 velocity=105 time=0
EXTRACT: note_on channel=1 note=53 velocity=105 time=0
EXTRACT: note_on channel=1 note=62 velocity=97 time=0
EXTRACT: note_on channel=9 note=42 velocity=0 time=0.02868850833333333
EXTRACT: note_on channel=9 note=36 velocity=0 time=0
EXTRACT: note_on channel=0 note=34 velocity=0 time=0.15163925833333333
EXTRACT: note_on channel=9 note=42 velocity=43 time=0.053278658333333326
EXTRACT: note_on channel=0 note=36 velocity=116 time=0.008196716666666666
EXTRACT: note_on channel=9 note=42 velocity=0 time=0.032786866666666664
EXTRACT: note_on channel=0 note=36 velocity=0 time=0.15163925833333333
EXTRACT: note_on channel=2 note=60 velocity=0 time=0.053278658333333326
EXTRACT: note_on channel=2 note=56 velocity=0 time=0
EXTRACT: note_on channel=2 note=53 velocity=0 time=0
EXTRACT: note_on channel=2 note=62 velocity=0 time=0
EXTRACT: note_on channel=9 note=40 velocity=127 time=0
EXTRACT: note_on channel=9 note=42 velocity=67 time=0
EXTRACT: note_on channel=5 note=72 velocity=0 time=0.0020491791666666665
EXTRACT: note_on channel=5 note=67 velocity=0 time=0
EXTRACT: note_on channel=2 note=60 velocity=95 time=0.0020491791666666665
EXTRACT: note_on channel=2 note=56 velocity=91 time=0
EXTRACT: note_on channel=2 note=53 velocity=105 time=0
EXTRACT: note_on channel=2 note=62 velocity=106 time=0
EXTRACT: note_on channel=5 note=69 velocity=59 time=0.0020491791666666665
EXTRACT: note_on channel=5 note=65 velocity=93 time=0
EXTRACT: note_on channel=0 note=38 velocity=126 time=0.0020491791666666665
EXTRACT: note_on channel=1 note=60 velocity=0 time=0
EXTRACT: note_on channel=1 note=56 velocity=0 time=0
EXTRACT: note_on channel=1 note=53 velocity=0 time=0
EXTRACT: note_on channel=1 note=62 velocity=0 time=0
EXTRACT: note_on channel=1 note=60 velocity=114 time=0.004098358333333333
EXTRACT: note_on channel=1 note=56 velocity=92 time=0
EXTRACT: note_on channel=1 note=53 velocity=94 time=0
EXTRACT: note_on channel=1 note=62 velocity=101 time=0
EXTRACT: note_on channel=9 note=40 velocity=0 time=0.02868850833333333
EXTRACT: note_on channel=9 note=42 velocity=0 time=0
EXTRACT: note_on channel=0 note=38 velocity=0 time=0.15163925833333333
EXTRACT: note_on channel=9 note=42 velocity=69 time=0.053278658333333326
EXTRACT: note_on channel=5 note=69 velocity=0 time=0.0020491791666666665
EXTRACT: note_on channel=5 note=65 velocity=0 time=0
EXTRACT: note_on channel=5 note=65 velocity=63 time=0.004098358333333333
EXTRACT: note_on channel=5 note=60 velocity=87 time=0
EXTRACT: note_on channel=0 note=41 velocity=124 time=0.0020491791666666665
EXTRACT: note_on channel=9 note=42 velocity=0 time=0.032786866666666664
EXTRACT: note_on channel=2 note=60 velocity=0 time=0.20491791666666664
EXTRACT: note_on channel=2 note=56 velocity=0 time=0
EXTRACT: note_on channel=2 note=53 velocity=0 time=0
EXTRACT: note_on channel=2 note=62 velocity=0 time=0
EXTRACT: note_on channel=9 note=36 velocity=120 time=0
EXTRACT: note_on channel=9 note=42 velocity=64 time=0
EXTRACT: note_on channel=2 note=60 velocity=104 time=0.004098358333333333
EXTRACT: note_on channel=2 note=56 velocity=95 time=0
EXTRACT: note_on channel=2 note=53 velocity=85 time=0
EXTRACT: note_on channel=0 note=41 velocity=0 time=0.004098358333333333
EXTRACT: note_on channel=1 note=60 velocity=0 time=0
EXTRACT: note_on channel=1 note=56 velocity=0 time=0
EXTRACT: note_on channel=1 note=53 velocity=0 time=0
EXTRACT: note_on channel=1 note=62 velocity=0 time=0
EXTRACT: note_on channel=1 note=60 velocity=103 time=0.004098358333333333
EXTRACT: note_on channel=1 note=56 velocity=95 time=0
EXTRACT: note_on channel=1 note=53 velocity=94 time=0
EXTRACT: note_on channel=9 note=36 velocity=0 time=0.02868850833333333
EXTRACT: note_on channel=9 note=42 velocity=0 time=0
EXTRACT: note_on channel=2 note=60 velocity=0 time=0.20491791666666664
EXTRACT: note_on channel=2 note=56 velocity=0 time=0
EXTRACT: note_on channel=2 note=53 velocity=0 time=0
EXTRACT: note_on channel=9 note=36 velocity=110 time=0
EXTRACT: note_on channel=9 note=42 velocity=41 time=0
EXTRACT: note_on channel=5 note=65 velocity=0 time=0.0020491791666666665
EXTRACT: note_on channel=5 note=60 velocity=0 time=0
EXTRACT: note_on channel=2 note=60 velocity=81 time=0.0020491791666666665
EXTRACT: note_on channel=2 note=56 velocity=69 time=0
EXTRACT: note_on channel=2 note=53 velocity=88 time=0
EXTRACT: note_on channel=2 note=62 velocity=88 time=0
EXTRACT: note_on channel=5 note=67 velocity=50 time=0.0020491791666666665
EXTRACT: note_on channel=5 note=62 velocity=89 time=0
EXTRACT: note_on channel=0 note=38 velocity=109 time=0.0020491791666666665
EXTRACT: note_on channel=1 note=60 velocity=0 time=0
EXTRACT: note_on channel=1 note=56 velocity=0 time=0
EXTRACT: note_on channel=1 note=53 velocity=0 time=0
EXTRACT: note_on channel=1 note=60 velocity=61 time=0.004098358333333333
EXTRACT: note_on channel=1 note=56 velocity=99 time=0
EXTRACT: note_on channel=1 note=53 velocity=66 time=0
EXTRACT: note_on channel=1 note=62 velocity=74 time=0
EXTRACT: note_on channel=9 note=36 velocity=0 time=0.02868850833333333
EXTRACT: note_on channel=9 note=42 velocity=0 time=0
EXTRACT: note_on channel=0 note=38 velocity=0 time=0.15163925833333333
EXTRACT: note_on channel=2 note=60 velocity=0 time=0.053278658333333326
EXTRACT: note_on channel=2 note=56 velocity=0 time=0
EXTRACT: note_on channel=2 note=53 velocity=0 time=0
EXTRACT: note_on channel=2 note=62 velocity=0 time=0
EXTRACT: note_on channel=9 note=40 velocity=127 time=0
EXTRACT: note_on channel=9 note=42 velocity=57 time=0
EXTRACT: note_on channel=5 note=67 velocity=0 time=0.0020491791666666665
EXTRACT: note_on channel=5 note=62 velocity=0 time=0
EXTRACT: note_on channel=2 note=60 velocity=111 time=0.0020491791666666665
EXTRACT: note_on channel=2 note=56 velocity=103 time=0
EXTRACT: note_on channel=2 note=53 velocity=116 time=0
EXTRACT: note_on channel=2 note=62 velocity=93 time=0
EXTRACT: note_on channel=5 note=67 velocity=55 time=0.0020491791666666665
EXTRACT: note_on channel=5 note=64 velocity=102 time=0
EXTRACT: note_on channel=0 note=41 velocity=107 time=0.0020491791666666665
EXTRACT: note_on channel=1 note=60 velocity=0 time=0
EXTRACT: note_on channel=1 note=56 velocity=0 time=0
EXTRACT: note_on channel=1 note=53 velocity=0 time=0
EXTRACT: note_on channel=1 note=62 velocity=0 time=0
EXTRACT: note_on channel=1 note=60 velocity=95 time=0.004098358333333333
EXTRACT: note_on channel=1 note=56 velocity=98 time=0
EXTRACT: note_on channel=1 note=53 velocity=85 time=0
EXTRACT: note_on channel=1 note=62 velocity=98 time=0
EXTRACT: note_on channel=9 note=40 velocity=0 time=0.02868850833333333
EXTRACT: note_on channel=9 note=42 velocity=0 time=0
EXTRACT: note_on channel=0 note=41 velocity=0 time=0.15163925833333333
EXTRACT: note_on channel=2 note=60 velocity=0 time=0.053278658333333326
EXTRACT: note_on channel=2 note=56 velocity=0 time=0
EXTRACT: note_on channel=2 note=53 velocity=0 time=0
EXTRACT: note_on channel=2 note=62 velocity=0 time=0
EXTRACT: note_on channel=9 note=36 velocity=110 time=0
EXTRACT: note_on channel=9 note=42 velocity=47 time=0
EXTRACT: note_on channel=2 note=60 velocity=85 time=0.004098358333333333
EXTRACT: note_on channel=2 note=56 velocity=73 time=0
EXTRACT: note_on channel=2 note=53 velocity=74 time=0
EXTRACT: note_on channel=0 note=43 velocity=102 time=0.004098358333333333
EXTRACT: note_on channel=1 note=60 velocity=0 time=0
EXTRACT: note_on channel=1 note=56 velocity=0 time=0
EXTRACT: note_on channel=1 note=53 velocity=0 time=0
EXTRACT: note_on channel=1 note=62 velocity=0 time=0
EXTRACT: note_on channel=1 note=60 velocity=61 time=0.004098358333333333
EXTRACT: note_on channel=1 note=56 velocity=109 time=0
EXTRACT: note_on channel=1 note=53 velocity=78 time=0
EXTRACT: note_on channel=9 note=36 velocity=0 time=0.02868850833333333
EXTRACT: note_on channel=9 note=42 velocity=0 time=0
EXTRACT: note_on channel=0 note=43 velocity=0 time=0.15163925833333333
EXTRACT: note_on channel=2 note=60 velocity=0 time=0.053278658333333326
EXTRACT: note_on channel=2 note=56 velocity=0 time=0
EXTRACT: note_on channel=2 note=53 velocity=0 time=0
EXTRACT: note_on channel=9 note=49 velocity=100 time=0
EXTRACT: note_on channel=9 note=36 velocity=120 time=0
EXTRACT: note_on channel=2 note=59 velocity=95 time=0.004098358333333333
EXTRACT: note_on channel=2 note=62 velocity=86 time=0
EXTRACT: note_on channel=2 note=55 velocity=115 time=0
EXTRACT: note_on channel=2 note=48 velocity=109 time=0
EXTRACT: note_on channel=0 note=36 velocity=122 time=0.004098358333333333
EXTRACT: note_on channel=1 note=60 velocity=0 time=0
EXTRACT: note_on channel=1 note=56 velocity=0 time=0
EXTRACT: note_on channel=1 note=53 velocity=0 time=0
EXTRACT: note_on channel=4 note=74 velocity=0 time=0.0010245895833333333
EXTRACT: note_on channel=4 note=77 velocity=0 time=0
EXTRACT: note_on channel=4 note=80 velocity=0 time=0
EXTRACT: note_on channel=4 note=76 velocity=121 time=0
EXTRACT: note_on channel=4 note=83 velocity=105 time=0
EXTRACT: note_on channel=4 note=79 velocity=111 time=0
EXTRACT: note_on channel=4 note=72 velocity=105 time=0
EXTRACT: note_on channel=1 note=59 velocity=88 time=0.0030737687499999998
EXTRACT: note_on channel=1 note=62 velocity=107 time=0
EXTRACT: note_on channel=1 note=55 velocity=107 time=0
EXTRACT: note_on channel=1 note=48 velocity=109 time=0
EXTRACT: note_on channel=9 note=49 velocity=0 time=0.02868850833333333
EXTRACT: note_on channel=9 note=36 velocity=0 time=0
EXTRACT: note_on channel=0 note=36 velocity=0 time=0.15163925833333333
EXTRACT: note_on channel=9 note=42 velocity=41 time=0.053278658333333326
EXTRACT: note_on channel=0 note=36 velocity=120 time=0.008196716666666666
EXTRACT: note_on channel=9 note=42 velocity=0 time=0.032786866666666664
EXTRACT: note_on channel=0 note=36 velocity=0 time=0.15163925833333333
EXTRACT: note_on channel=2 note=59 velocity=0 time=0.053278658333333326
EXTRACT: note_on channel=2 note=62 velocity=0 time=0
EXTRACT: note_on channel=2 note=55 velocity=0 time=0
EXTRACT: note_on channel=2 note=48 velocity=0 time=0
EXTRACT: note_on channel=9 note=40 velocity=127 time=0
EXTRACT: note_on channel=9 note=42 velocity=67 time=0
EXTRACT: note_on channel=2 note=59 velocity=90 time=0.004098358333333333
EXTRACT: note_on channel=2 note=62 velocity=105 time=0
EXTRACT: note_on channel=2 note=55 velocity=102 time=0
EXTRACT: note_on channel=2 note=48 velocity=88 time=0
EXTRACT: note_on channel=0 note=36 velocity=118 time=0.004098358333333333
EXTRACT: note_on channel=1 note=59 velocity=0 time=0
EXTRACT: note_on channel=1 note=62 velocity=0 time=0
EXTRACT: note_on channel=1 note=55 velocity=0 time=0
EXTRACT: note_on channel=1 note=48 velocity=0 time=0
EXTRACT: note_on channel=1 note=59 velocity=84 time=0.004098358333333333
EXTRACT: note_on channel=1 note=62 velocity=91 time=0
EXTRACT: note_on channel=1 note=55 velocity=88 time=0
EXTRACT: note_on channel=1 note=48 velocity=92 time=0
EXTRACT: note_on channel=9 note=40 velocity=0 time=0.02868850833333333
EXTRACT: note_on channel=9 note=42 velocity=0 time=0
EXTRACT: note_on channel=0 note=36 velocity=0 time=0.15163925833333333
EXTRACT: note_on channel=9 note=42 velocity=67 time=0.053278658333333326
EXTRACT: pitchwheel channel=0 pitch=0 time=0.008196716666666666
EXTRACT: note_on channel=0 note=36 velocity=106 time=0
EXTRACT: pitchwheel channel=0 pitch=82 time=0.004098358333333333
EXTRACT: pitchwheel channel=0 pitch=165 time=0.004098358333333333
EXTRACT: pitchwheel channel=0 pitch=247 time=0.004098358333333333
EXTRACT: pitchwheel channel=0 pitch=330 time=0.004098358333333333
EXTRACT: pitchwheel channel=0 pitch=412 time=0.004098358333333333
EXTRACT: pitchwheel channel=0 pitch=494 time=0.004098358333333333
EXTRACT: pitchwheel channel=0 pitch=577 time=0.004098358333333333
EXTRACT: pitchwheel channel=0 pitch=659 time=0.004098358333333333
EXTRACT: note_on channel=9 note=42 velocity=0 time=0
EXTRACT: pitchwheel channel=0 pitch=742 time=0.004098358333333333
EXTRACT: pitchwheel channel=0 pitch=824 time=0.004098358333333333
EXTRACT: pitchwheel channel=0 pitch=906 time=0.004098358333333333
EXTRACT: pitchwheel channel=0 pitch=989 time=0.004098358333333333
EXTRACT: pitchwheel channel=0 pitch=1071 time=0.004098358333333333
EXTRACT: pitchwheel channel=0 pitch=1154 time=0.004098358333333333
EXTRACT: pitchwheel channel=0 pitch=1236 time=0.004098358333333333
EXTRACT: pitchwheel channel=0 pitch=1318 time=0.004098358333333333
EXTRACT: pitchwheel channel=0 pitch=1401 time=0.004098358333333333
EXTRACT: pitchwheel channel=0 pitch=1483 time=0.004098358333333333
EXTRACT: pitchwheel channel=0 pitch=1566 time=0.004098358333333333
EXTRACT: pitchwheel channel=0 pitch=1648 time=0.004098358333333333
EXTRACT: pitchwheel channel=0 pitch=1730 time=0.004098358333333333
EXTRACT: pitchwheel channel=0 pitch=1813 time=0.004098358333333333
EXTRACT: pitchwheel channel=0 pitch=1895 time=0.004098358333333333
EXTRACT: pitchwheel channel=0 pitch=1978 time=0.004098358333333333
EXTRACT: pitchwheel channel=0 pitch=2060 time=0.004098358333333333
EXTRACT: pitchwheel channel=0 pitch=2142 time=0.004098358333333333
EXTRACT: pitchwheel channel=0 pitch=2225 time=0.004098358333333333
EXTRACT: pitchwheel channel=0 pitch=2307 time=0.004098358333333333
EXTRACT: pitchwheel channel=0 pitch=2390 time=0.004098358333333333
EXTRACT: pitchwheel channel=0 pitch=2472 time=0.004098358333333333
EXTRACT: pitchwheel channel=0 pitch=2554 time=0.004098358333333333
EXTRACT: pitchwheel channel=0 pitch=2637 time=0.004098358333333333
EXTRACT: pitchwheel channel=0 pitch=2719 time=0.004098358333333333
EXTRACT: pitchwheel channel=0 pitch=2801 time=0.004098358333333333
EXTRACT: pitchwheel channel=0 pitch=2884 time=0.004098358333333333
EXTRACT: pitchwheel channel=0 pitch=2966 time=0.004098358333333333
EXTRACT: pitchwheel channel=0 pitch=3049 time=0.004098358333333333
EXTRACT: pitchwheel channel=0 pitch=3131 time=0.004098358333333333
EXTRACT: pitchwheel channel=0 pitch=3213 time=0.004098358333333333
EXTRACT: pitchwheel channel=0 pitch=3296 time=0.004098358333333333
EXTRACT: pitchwheel channel=0 pitch=3378 time=0.004098358333333333
EXTRACT: pitchwheel channel=0 pitch=3461 time=0.004098358333333333
EXTRACT: pitchwheel channel=0 pitch=3543 time=0.004098358333333333
EXTRACT: pitchwheel channel=0 pitch=3625 time=0.004098358333333333
EXTRACT: note_on channel=0 note=36 velocity=0 time=0.004098358333333333
EXTRACT: pitchwheel channel=0 pitch=3708 time=0
EXTRACT: pitchwheel channel=0 pitch=3790 time=0.004098358333333333
EXTRACT: pitchwheel channel=0 pitch=3873 time=0.004098358333333333
EXTRACT: pitchwheel channel=0 pitch=3955 time=0.004098358333333333
EXTRACT: pitchwheel channel=0 pitch=4037 time=0.004098358333333333
EXTRACT: pitchwheel channel=0 pitch=4120 time=0.004098358333333333
EXTRACT: pitchwheel channel=0 pitch=4202 time=0.004098358333333333
EXTRACT: pitchwheel channel=0 pitch=4285 time=0.004098358333333333
EXTRACT: pitchwheel channel=0 pitch=4367 time=0.004098358333333333
EXTRACT: pitchwheel channel=0 pitch=4449 time=0.004098358333333333
EXTRACT: pitchwheel channel=0 pitch=4532 time=0.004098358333333333
EXTRACT: pitchwheel channel=0 pitch=4614 time=0.004098358333333333
EXTRACT: pitchwheel channel=0 pitch=4697 time=0.004098358333333333
EXTRACT: pitchwheel channel=0 pitch=4779 time=0.004098358333333333
EXTRACT: note_on channel=2 note=59 velocity=0 time=0
EXTRACT: note_on channel=2 note=62 velocity=0 time=0
EXTRACT: note_on channel=2 note=55 velocity=0 time=0
EXTRACT: note_on channel=2 note=48 velocity=0 time=0
EXTRACT: note_on channel=9 note=36 velocity=120 time=0
EXTRACT: note_on channel=9 note=42 velocity=68 time=0
EXTRACT: note_on channel=2 note=59 velocity=106 time=0.004098358333333333
EXTRACT: note_on channel=2 note=62 velocity=99 time=0
EXTRACT: note_on channel=2 note=55 velocity=117 time=0
EXTRACT: pitchwheel channel=0 pitch=0 time=0.004098358333333333
EXTRACT: note_on channel=0 note=43 velocity=124 time=0
EXTRACT: note_on channel=1 note=59 velocity=0 time=0
EXTRACT: note_on channel=1 note=62 velocity=0 time=0
EXTRACT: note_on channel=1 note=55 velocity=0 time=0
EXTRACT: note_on channel=1 note=48 velocity=0 time=0
EXTRACT: note_on channel=1 note=59 velocity=88 time=0.004098358333333333
EXTRACT: note_on channel=1 note=62 velocity=82 time=0
EXTRACT: note_on channel=1 note=55 velocity=84 time=0
EXTRACT: note_on channel=9 note=36 velocity=0 time=0.02868850833333333
EXTRACT: note_on channel=9 note=42 velocity=0 time=0
EXTRACT: note_on channel=0 note=43 velocity=0 time=0.15163925833333333
EXTRACT: note_on channel=2 note=59 velocity=0 time=0.053278658333333326
EXTRACT: note_on channel=2 note=62 velocity=0 time=0
EXTRACT: note_on channel=2 note=55 velocity=0 time=0
EXTRACT: note_on channel=9 note=36 velocity=110 time=0
EXTRACT: note_on channel=9 note=42 velocity=46 time=0
EXTRACT: note_on channel=2 note=59 velocity=115 time=0.004098358333333333
EXTRACT: note_on channel=2 note=62 velocity=93 time=0
EXTRACT: note_on channel=2 note=55 velocity=87 time=0
EXTRACT: note_on channel=2 note=48 velocity=76 time=0
EXTRACT: note_on channel=0 note=43 velocity=104 time=0.004098358333333333
EXTRACT: note_on channel=1 note=59 velocity=0 time=0
EXTRACT: note_on channel=1 note=62 velocity=0 time=0
EXTRACT: note_on channel=1 note=55 velocity=0 time=0
EXTRACT: note_on channel=1 note=59 velocity=67 time=0.004098358333333333
EXTRACT: note_on channel=1 note=62 velocity=93 time=0
EXTRACT: note_on channel=1 note=55 velocity=111 time=0
EXTRACT: note_on channel=1 note=48 velocity=62 time=0
EXTRACT: note_on channel=9 note=36 velocity=0 time=0.02868850833333333
EXTRACT: note_on channel=9 note=42 velocity=0 time=0
EXTRACT: note_on channel=0 note=43 velocity=0 time=0.15163925833333333
EXTRACT: note_on channel=2 note=59 velocity=0 time=0.053278658333333326
EXTRACT: note_on channel=2 note=62 velocity=0 time=0
EXTRACT: note_on channel=2 note=55 velocity=0 time=0
EXTRACT: note_on channel=2 note=48 velocity=0 time=0
EXTRACT: note_on channel=9 note=40 velocity=127 time=0
EXTRACT: note_on channel=9 note=42 velocity=60 time=0
EXTRACT: note_on channel=2 note=59 velocity=108 time=0.004098358333333333
EXTRACT: note_on channel=2 note=62 velocity=86 time=0
EXTRACT: note_on channel=2 note=55 velocity=102 time=0
EXTRACT: note_on channel=2 note=48 velocity=106 time=0
EXTRACT: note_on channel=0 note=43 velocity=102 time=0.004098358333333333
EXTRACT: note_on channel=1 note=59 velocity=0 time=0
EXTRACT: note_on channel=1 note=62 velocity=0 time=0
EXTRACT: note_on channel=1 note=55 velocity=0 time=0
EXTRACT: note_on channel=1 note=48 velocity=0 time=0
EXTRACT: note_on channel=1 note=59 velocity=117 time=0.004098358333333333
EXTRACT: note_on channel=1 note=62 velocity=96 time=0
EXTRACT: note_on channel=1 note=55 velocity=99 time=0
EXTRACT: note_on channel=1 note=48 velocity=81 time=0
EXTRACT: note_on channel=9 note=40 velocity=0 time=0.02868850833333333
EXTRACT: note_on channel=9 note=42 velocity=0 time=0
EXTRACT: note_on channel=0 note=43 velocity=0 time=0.15163925833333333
EXTRACT: note_on channel=2 note=59 velocity=0 time=0.053278658333333326
EXTRACT: note_on channel=2 note=62 velocity=0 time=0
EXTRACT: note_on channel=2 note=55 velocity=0 time=0
EXTRACT: note_on channel=2 note=48 velocity=0 time=0
EXTRACT: note_on channel=9 note=36 velocity=110 time=0
EXTRACT: note_on channel=9 note=42 velocity=44 time=0
EXTRACT: note_on channel=2 note=59 velocity=93 time=0.004098358333333333
EXTRACT: note_on channel=2 note=62 velocity=76 time=0
EXTRACT: note_on channel=2 note=55 velocity=104 time=0
EXTRACT: note_on channel=0 note=47 velocity=119 time=0.004098358333333333
EXTRACT: note_on channel=1 note=59 velocity=0 time=0
EXTRACT: note_on channel=1 note=62 velocity=0 time=0
EXTRACT: note_on channel=1 note=55 velocity=0 time=0
EXTRACT: note_on channel=1 note=48 velocity=0 time=0
EXTRACT: note_on channel=1 note=59 velocity=94 time=0.004098358333333333
EXTRACT: note_on channel=1 note=62 velocity=67 time=0
EXTRACT: note_on channel=1 note=55 velocity=67 time=0
EXTRACT: note_on channel=9 note=36 velocity=0 time=0.02868850833333333
EXTRACT: note_on channel=9 note=42 velocity=0 time=0
EXTRACT: note_on channel=9 note=42 velocity=57 time=0.20491791666666664
EXTRACT: note_on channel=5 note=67 velocity=0 time=0.0061475374999999995
EXTRACT: note_on channel=5 note=64 velocity=0 time=0
EXTRACT: note_on channel=0 note=47 velocity=0 time=0.0020491791666666665
EXTRACT: note_on channel=9 note=42 velocity=0 time=0.032786866666666664
EXTRACT: note_on channel=2 note=59 velocity=0 time=0.20491791666666664
EXTRACT: note_on channel=2 note=62 velocity=0 time=0
EXTRACT: note_on channel=2 note=55 velocity=0 time=0
EXTRACT: note_on channel=9 note=36 velocity=120 time=0
EXTRACT: note_on channel=9 note=42 velocity=42 time=0
EXTRACT: note_on channel=2 note=59 velocity=94 time=0.004098358333333333
EXTRACT: note_on channel=2 note=64 velocity=98 time=0
EXTRACT: note_on channel=2 note=55 velocity=112 time=0
EXTRACT: note_on channel=0 note=43 velocity=127 time=0.004098358333333333
EXTRACT: note_on channel=1 note=59 velocity=0 time=0
EXTRACT: note_on channel=1 note=62 velocity=0 time=0
EXTRACT: note_on channel=1 note=55 velocity=0 time=0
EXTRACT: note_on channel=1 note=59 velocity=72 time=0.004098358333333333
EXTRACT: note_on channel=1 note=64 velocity=88 time=0
EXTRACT: note_on channel=1 note=55 velocity=98 time=0
EXTRACT: note_on channel=9 note=36 velocity=0 time=0.02868850833333333
EXTRACT: note_on channel=9 note=42 velocity=0 time=0
EXTRACT: note_on channel=2 note=59 velocity=0 time=0.20491791666666664
EXTRACT: note_on channel=2 note=64 velocity=0 time=0
EXTRACT: note_on channel=2 note=55 velocity=0 time=0
EXTRACT: note_on channel=9 note=40 velocity=127 time=0
EXTRACT: note_on channel=9 note=42 velocity=62 time=0
EXTRACT: note_on channel=0 note=43 velocity=0 time=0.004098358333333333
EXTRACT: note_on channel=2 note=59 velocity=97 time=0
EXTRACT: note_on channel=2 note=64 velocity=102 time=0
EXTRACT: note_on channel=2 note=55 velocity=103 time=0
EXTRACT: note_on channel=2 note=48 velocity=117 time=0
EXTRACT: note_on channel=0 note=43 velocity=102 time=0.004098358333333333
EXTRACT: note_on channel=1 note=59 velocity=0 time=0
EXTRACT: note_on channel=1 note=64 velocity=0 time=0
EXTRACT: note_on channel=1 note=55 velocity=0 time=0
EXTRACT: note_on channel=1 note=59 velocity=103 time=0.004098358333333333
EXTRACT: note_on channel=1 note=64 velocity=105 time=0
EXTRACT: note_on channel=1 note=55 velocity=107 time=0
EXTRACT: note_on channel=1 note=48 velocity=82 time=0
EXTRACT: note_on channel=9 note=40 velocity=0 time=0.02868850833333333
EXTRACT: note_on channel=9 note=42 velocity=0 time=0
EXTRACT: note_on channel=2 note=59 velocity=0 time=0.20491791666666664
EXTRACT: note_on channel=2 note=64 velocity=0 time=0
EXTRACT: note_on channel=2 note=55 velocity=0 time=0
EXTRACT: note_on channel=2 note=48 velocity=0 time=0
EXTRACT: note_on channel=9 note=36 velocity=90 time=0
EXTRACT: note_on channel=2 note=59 velocity=111 time=0.004098358333333333
EXTRACT: note_on channel=2 note=64 velocity=67 time=0
EXTRACT: note_on channel=2 note=55 velocity=76 time=0
EXTRACT: note_on channel=0 note=43 velocity=0 time=0.004098358333333333
EXTRACT: note_on channel=1 note=59 velocity=0 time=0
EXTRACT: note_on channel=1 note=64 velocity=0 time=0
EXTRACT: note_on channel=1 note=55 velocity=0 time=0
EXTRACT: note_on channel=1 note=48 velocity=0 time=0
EXTRACT: note_on channel=1 note=59 velocity=101 time=0.004098358333333333
EXTRACT: note_on channel=1 note=64 velocity=100 time=0
EXTRACT: note_on channel=1 note=55 velocity=97 time=0
EXTRACT: note_on channel=9 note=36 velocity=0 time=0.02868850833333333
EXTRACT: note_on channel=9 note=36 velocity=100 time=0.08196716666666666
EXTRACT: note_on channel=9 note=36 velocity=0 time=0.04098358333333333
EXTRACT: note_on channel=2 note=59 velocity=0 time=0.08196716666666666
EXTRACT: note_on channel=2 note=64 velocity=0 time=0
EXTRACT: note_on channel=2 note=55 velocity=0 time=0
EXTRACT: note_on channel=9 note=36 velocity=120 time=0
EXTRACT: note_on channel=2 note=59 velocity=110 time=0.004098358333333333
EXTRACT: note_on channel=2 note=64 velocity=113 time=0
EXTRACT: note_on channel=2 note=55 velocity=105 time=0
EXTRACT: note_on channel=2 note=48 velocity=102 time=0
EXTRACT: note_on channel=0 note=43 velocity=114 time=0.004098358333333333
EXTRACT: note_on channel=1 note=59 velocity=0 time=0
EXTRACT: note_on channel=1 note=64 velocity=0 time=0
EXTRACT: note_on channel=1 note=55 velocity=0 time=0
EXTRACT: note_on channel=1 note=59 velocity=115 time=0.004098358333333333
EXTRACT: note_on channel=1 note=64 velocity=108 time=0
EXTRACT: note_on channel=1 note=55 velocity=96 time=0
EXTRACT: note_on channel=1 note=48 velocity=102 time=0
EXTRACT: note_on channel=9 note=36 velocity=0 time=0.02868850833333333
EXTRACT: note_on channel=2 note=59 velocity=0 time=0.20491791666666664
EXTRACT: note_on channel=2 note=64 velocity=0 time=0
EXTRACT: note_on channel=2 note=55 velocity=0 time=0
EXTRACT: note_on channel=2 note=48 velocity=0 time=0
EXTRACT: note_on channel=9 note=36 velocity=110 time=0
EXTRACT: note_on channel=9 note=42 velocity=50 time=0
EXTRACT: note_on channel=0 note=43 velocity=0 time=0.004098358333333333
EXTRACT: note_on channel=2 note=59 velocity=100 time=0
EXTRACT: note_on channel=2 note=64 velocity=69 time=0
EXTRACT: note_on channel=2 note=55 velocity=104 time=0
EXTRACT: note_on channel=0 note=45 velocity=119 time=0.004098358333333333
EXTRACT: note_on channel=1 note=59 velocity=0 time=0
EXTRACT: note_on channel=1 note=64 velocity=0 time=0
EXTRACT: note_on channel=1 note=55 velocity=0 time=0
EXTRACT: note_on channel=1 note=48 velocity=0 time=0
EXTRACT: note_on channel=1 note=59 velocity=107 time=0.004098358333333333
EXTRACT: note_on channel=1 note=64 velocity=90 time=0
EXTRACT: note_on channel=1 note=55 velocity=68 time=0
EXTRACT: note_on channel=9 note=36 velocity=0 time=0.02868850833333333
EXTRACT: note_on channel=9 note=42 velocity=0 time=0
EXTRACT: note_on channel=2 note=59 velocity=0 time=0.20491791666666664
EXTRACT: note_on channel=2 note=64 velocity=0 time=0
EXTRACT: note_on channel=2 note=55 velocity=0 time=0
EXTRACT: note_on channel=9 note=40 velocity=127 time=0
EXTRACT: note_on channel=0 note=45 velocity=0 time=0.004098358333333333
EXTRACT: note_on channel=2 note=59 velocity=107 time=0
EXTRACT: note_on channel=2 note=64 velocity=109 time=0
EXTRACT: note_on channel=2 note=55 velocity=94 time=0
EXTRACT: note_on channel=2 note=48 velocity=103 time=0
EXTRACT: note_on channel=0 note=45 velocity=115 time=0.004098358333333333
EXTRACT: note_on channel=1 note=59 velocity=0 time=0
EXTRACT: note_on channel=1 note=64 velocity=0 time=0
EXTRACT: note_on channel=1 note=55 velocity=0 time=0
EXTRACT: note_on channel=1 note=59 velocity=87 time=0.004098358333333333
EXTRACT: note_on channel=1 note=64 velocity=114 time=0
EXTRACT: note_on channel=1 note=55 velocity=106 time=0
EXTRACT: note_on channel=1 note=48 velocity=98 time=0
EXTRACT: note_on channel=9 note=40 velocity=0 time=0.02868850833333333
EXTRACT: note_on channel=2 note=59 velocity=0 time=0.20491791666666664
EXTRACT: note_on channel=2 note=64 velocity=0 time=0
EXTRACT: note_on channel=2 note=55 velocity=0 time=0
EXTRACT: note_on channel=2 note=48 velocity=0 time=0
EXTRACT: note_on channel=9 note=40 velocity=127 time=0
EXTRACT: note_on channel=2 note=59 velocity=97 time=0.004098358333333333
EXTRACT: note_on channel=2 note=64 velocity=104 time=0
EXTRACT: note_on channel=2 note=55 velocity=103 time=0
EXTRACT: note_on channel=0 note=45 velocity=0 time=0.004098358333333333
EXTRACT: note_on channel=1 note=59 velocity=0 time=0
EXTRACT: note_on channel=1 note=64 velocity=0 time=0
EXTRACT: note_on channel=1 note=55 velocity=0 time=0
EXTRACT: note_on channel=1 note=48 velocity=0 time=0
EXTRACT: note_on channel=1 note=59 velocity=111 time=0.004098358333333333
EXTRACT: note_on channel=1 note=64 velocity=74 time=0
EXTRACT: note_on channel=1 note=55 velocity=87 time=0
EXTRACT: note_on channel=9 note=40 velocity=0 time=0.02868850833333333
EXTRACT: note_on channel=2 note=59 velocity=0 time=0.20491791666666664
EXTRACT: note_on channel=2 note=64 velocity=0 time=0
EXTRACT: note_on channel=2 note=55 velocity=0 time=0
EXTRACT: note_on channel=9 note=49 velocity=100 time=0
EXTRACT: note_on channel=9 note=36 velocity=120 time=0
EXTRACT: note_on channel=2 note=64 velocity=112 time=0.004098358333333333
EXTRACT: note_on channel=2 note=60 velocity=104 time=0
EXTRACT: note_on channel=2 note=55 velocity=96 time=0
EXTRACT: note_on channel=2 note=48 velocity=97 time=0
EXTRACT: note_on channel=0 note=36 velocity=110 time=0.004098358333333333
EXTRACT: note_on channel=1 note=59 velocity=0 time=0
EXTRACT: note_on channel=1 note=64 velocity=0 time=0
EXTRACT: note_on channel=1 note=55 velocity=0 time=0
EXTRACT: note_on channel=4 note=76 velocity=0 time=0.0010245895833333333
EXTRACT: note_on channel=4 note=83 velocity=0 time=0
EXTRACT: note_on channel=4 note=79 velocity=0 time=0
EXTRACT: note_on channel=4 note=72 velocity=0 time=0
EXTRACT: note_on channel=4 note=72 velocity=114 time=0
EXTRACT: note_on channel=4 note=76 velocity=119 time=0
EXTRACT: note_on channel=4 note=79 velocity=120 time=0
EXTRACT: note_on channel=1 note=64 velocity=83 time=0.0030737687499999998
EXTRACT: note_on channel=1 note=60 velocity=88 time=0
EXTRACT: note_on channel=1 note=55 velocity=101 time=0
EXTRACT: note_on channel=1 note=48 velocity=107 time=0
EXTRACT: note_on channel=9 note=49 velocity=0 time=0.02868850833333333
EXTRACT: note_on channel=9 note=36 velocity=0 time=0
EXTRACT: note_on channel=9 note=42 velocity=46 time=0.20491791666666664
EXTRACT: note_on channel=0 note=36 velocity=0 time=0.008196716666666666
EXTRACT: note_on channel=9 note=42 velocity=0 time=0.032786866666666664
EXTRACT: note_on channel=2 note=64 velocity=0 time=0.20491791666666664
EXTRACT: note_on channel=2 note=60 velocity=0 time=0
EXTRACT: note_on channel=2 note=55 velocity=0 time=0
EXTRACT: note_on channel=2 note=48 velocity=0 time=0
EXTRACT: note_on channel=9 note=40 velocity=127 time=0
EXTRACT: note_on channel=9 note=42 velocity=60 time=0
EXTRACT: note_on channel=2 note=64 velocity=96 time=0.004098358333333333
EXTRACT: note_on channel=2 note=60 velocity=110 time=0
EXTRACT: note_on channel=2 note=55 velocity=110 time=0
EXTRACT: note_on channel=2 note=48 velocity=95 time=0
EXTRACT: note_on channel=0 note=36 velocity=112 time=0.004098358333333333
EXTRACT: note_on channel=1 note=64 velocity=0 time=0
EXTRACT: note_on channel=1 note=60 velocity=0 time=0
EXTRACT: note_on channel=1 note=55 velocity=0 time=0
EXTRACT: note_on channel=1 note=48 velocity=0 time=0
EXTRACT: note_on channel=1 note=64 velocity=94 time=0.004098358333333333
EXTRACT: note_on channel=1 note=60 velocity=116 time=0
EXTRACT: note_on channel=1 note=55 velocity=96 time=0
EXTRACT: note_on channel=1 note=48 velocity=97 time=0
EXTRACT: note_on channel=9 note=40 velocity=0 time=0.02868850833333333
EXTRACT: note_on channel=9 note=42 velocity=0 time=0
EXTRACT: note_on channel=0 note=36 velocity=0 time=0.15163925833333333
EXTRACT: note_on channel=9 note=42 velocity=63 time=0.053278658333333326
EXTRACT: note_on channel=5 note=72 velocity=64 time=0.0061475374999999995
EXTRACT: note_on channel=5 note=67 velocity=109 time=0
EXTRACT: note_on channel=0 note=36 velocity=114 time=0.0020491791666666665
EXTRACT: note_on channel=9 note=42 velocity=0 time=0.032786866666666664
EXTRACT: note_on channel=0 note=36 velocity=0 time=0.15163925833333333
EXTRACT: note_on channel=2 note=64 velocity=0 time=0.053278658333333326
EXTRACT: note_on channel=2 note=60 velocity=0 time=0
EXTRACT: note_on channel=2 note=55 velocity=0 time=0
EXTRACT: note_on channel=2 note=48 velocity=0 time=0
EXTRACT: note_on channel=9 note=36 velocity=120 time=0
EXTRACT: note_on channel=9 note=42 velocity=62 time=0
EXTRACT: note_on channel=5 note=72 velocity=0 time=0.0020491791666666665
EXTRACT: note_on channel=5 note=67 velocity=0 time=0
EXTRACT: note_on channel=2 note=64 velocity=87 time=0.0020491791666666665
EXTRACT: note_on channel=2 note=60 velocity=115 time=0
EXTRACT: note_on channel=2 note=55 velocity=114 time=0
EXTRACT: note_on channel=5 note=72 velocity=75 time=0.0020491791666666665
EXTRACT: note_on channel=5 note=67 velocity=104 time=0
EXTRACT: note_on channel=0 note=36 velocity=108 time=0.0020491791666666665
EXTRACT: note_on channel=1 note=64 velocity=0 time=0
EXTRACT: note_on channel=1 note=60 velocity=0 time=0
EXTRACT: note_on channel=1 note=55 velocity=0 time=0
EXTRACT: note_on channel=1 note=48 velocity=0 time=0
EXTRACT: note_on channel=1 note=64 velocity=79 time=0.004098358333333333
EXTRACT: note_on channel=1 note=60 velocity=87 time=0
EXTRACT: note_on channel=1 note=55 velocity=110 time=0
EXTRACT: note_on channel=9 note=36 velocity=0 time=0.02868850833333333
EXTRACT: note_on channel=9 note=42 velocity=0 time=0
EXTRACT: note_on channel=0 note=36 velocity=0 time=0.15163925833333333
EXTRACT: note_on channel=2 note=64 velocity=0 time=0.053278658333333326
EXTRACT: note_on channel=2 note=60 velocity=0 time=0
EXTRACT: note_on channel=2 note=55 velocity=0 time=0
EXTRACT: note_on channel=9 note=36 velocity=110 time=0
EXTRACT: note_on channel=9 note=42 velocity=43 time=0
EXTRACT: note_on channel=5 note=72 velocity=0 time=0.0020491791666666665
EXTRACT: note_on channel=5 note=67 velocity=0 time=0
EXTRACT: note_on channel=2 note=64 velocity=95 time=0.0020491791666666665
EXTRACT: note_on channel=2 note=60 velocity=106 time=0
EXTRACT: note_on channel=2 note=55 velocity=73 time=0
EXTRACT: note_on channel=2 note=48 velocity=72 time=0
EXTRACT: note_on channel=5 note=74 velocity=61 time=0.0020491791666666665
EXTRACT: note_on channel=5 note=69 velocity=90 time=0
EXTRACT: note_on channel=0 note=36 velocity=113 time=0.0020491791666666665
EXTRACT: note_on channel=1 note=64 velocity=0 time=0
EXTRACT: note_on channel=1 note=60 velocity=0 time=0
EXTRACT: note_on channel=1 note=55 velocity=0 time=0
EXTRACT: note_on channel=1 note=64 velocity=103 time=0.004098358333333333
EXTRACT: note_on channel=1 note=60 velocity=82 time=0
EXTRACT: note_on channel=1 note=55 velocity=91 time=0
EXTRACT: note_on channel=1 note=48 velocity=78 time=0
EXTRACT: note_on channel=9 note=36 velocity=0 time=0.02868850833333333
EXTRACT: note_on channel=9 note=42 velocity=0 time=0
EXTRACT: note_on channel=0 note=36 velocity=0 time=0.15163925833333333
EXTRACT: note_on channel=2 note=64 velocity=0 time=0.053278658333333326
EXTRACT: note_on channel=2 note=60 velocity=0 time=0
EXTRACT: note_on channel=2 note=55 velocity=0 time=0
EXTRACT: note_on channel=2 note=48 velocity=0 time=0
EXTRACT: note_on channel=9 note=40 velocity=127 time=0
EXTRACT: note_on channel=9 note=42 velocity=61 time=0
EXTRACT: note_on channel=2 note=64 velocity=111 time=0.004098358333333333
EXTRACT: note_on channel=2 note=60 velocity=103 time=0
EXTRACT: note_on channel=2 note=55 velocity=85 time=0
EXTRACT: note_on channel=2 note=48 velocity=100 time=0
EXTRACT: note_on channel=5 note=74 velocity=0 time=0.0020491791666666665
EXTRACT: note_on channel=5 note=69 velocity=0 time=0
EXTRACT: pitchwheel channel=0 pitch=0 time=0.0020491791666666665
EXTRACT: note_on channel=0 note=36 velocity=106 time=0
EXTRACT: note_on channel=1 note=64 velocity=0 time=0
EXTRACT: note_on channel=1 note=60 velocity=0 time=0
EXTRACT: note_on channel=1 note=55 velocity=0 time=0
EXTRACT: note_on channel=1 note=48 velocity=0 time=0
EXTRACT: pitchwheel channel=0 pitch=80 time=0.004098358333333333
EXTRACT: note_on channel=1 note=64 velocity=79 time=0
EXTRACT: note_on channel=1 note=60 velocity=90 time=0
EXTRACT: note_on channel=1 note=55 velocity=116 time=0
EXTRACT: note_on channel=1 note=48 velocity=83 time=0
EXTRACT: pitchwheel channel=0 pitch=159 time=0.004098358333333333
EXTRACT: pitchwheel channel=0 pitch=239 time=0.004098358333333333
EXTRACT: pitchwheel channel=0 pitch=319 time=0.004098358333333333
EXTRACT: pitchwheel channel=0 pitch=398 time=0.004098358333333333
EXTRACT: pitchwheel channel=0 pitch=478 time=0.004098358333333333
EXTRACT: pitchwheel channel=0 pitch=558 time=0.004098358333333333
EXTRACT: pitchwheel channel=0 pitch=637 time=0.004098358333333333
EXTRACT: note_on channel=9 note=40 velocity=0 time=0
EXTRACT: note_on channel=9 note=42 velocity=0 time=0
EXTRACT: pitchwheel channel=0 pitch=717 time=0.004098358333333333
EXTRACT: pitchwheel channel=0 pitch=797 time=0.004098358333333333
EXTRACT: pitchwheel channel=0 pitch=876 time=0.004098358333333333
EXTRACT: pitchwheel channel=0 pitch=956 time=0.004098358333333333
EXTRACT: pitchwheel channel=0 pitch=1035 time=0.004098358333333333
EXTRACT: pitchwheel channel=0 pitch=1115 time=0.004098358333333333
EXTRACT: pitchwheel channel=0 pitch=1195 time=0.004098358333333333
EXTRACT: pitchwheel channel=0 pitch=1274 time=0.004098358333333333
EXTRACT: pitchwheel channel=0 pitch=1354 time=0.004098358333333333
EXTRACT: pitchwheel channel=0 pitch=1434 time=0.004098358333333333
EXTRACT: pitchwheel channel=0 pitch=1513 time=0.004098358333333333
EXTRACT: pitchwheel channel=0 pitch=1593 time=0.004098358333333333
EXTRACT: pitchwheel channel=0 pitch=1673 time=0.004098358333333333
EXTRACT: pitchwheel channel=0 pitch=1752 time=0.004098358333333333
EXTRACT: pitchwheel channel=0 pitch=1832 time=0.004098358333333333
EXTRACT: pitchwheel channel=0 pitch=1912 time=0.004098358333333333
EXTRACT: pitchwheel channel=0 pitch=1991 time=0.004098358333333333
EXTRACT: pitchwheel channel=0 pitch=2071 time=0.004098358333333333
EXTRACT: pitchwheel channel=0 pitch=2151 time=0.004098358333333333
EXTRACT: pitchwheel channel=0 pitch=2230 time=0.004098358333333333
EXTRACT: pitchwheel channel=0 pitch=2310 time=0.004098358333333333
EXTRACT: pitchwheel channel=0 pitch=2390 time=0.004098358333333333
EXTRACT: pitchwheel channel=0 pitch=2469 time=0.004098358333333333
EXTRACT: pitchwheel channel=0 pitch=2549 time=0.004098358333333333
EXTRACT: pitchwheel channel=0 pitch=2628 time=0.004098358333333333
EXTRACT: pitchwheel channel=0 pitch=2708 time=0.004098358333333333
EXTRACT: pitchwheel channel=0 pitch=2788 time=0.004098358333333333
EXTRACT: pitchwheel channel=0 pitch=2867 time=0.004098358333333333
EXTRACT: pitchwheel channel=0 pitch=2947 time=0.004098358333333333
EXTRACT: pitchwheel channel=0 pitch=3027 time=0.004098358333333333
EXTRACT: pitchwheel channel=0 pitch=3106 time=0.004098358333333333
EXTRACT: pitchwheel channel=0 pitch=3186 time=0.004098358333333333
EXTRACT: pitchwheel channel=0 pitch=3266 time=0.004098358333333333
EXTRACT: pitchwheel channel=0 pitch=3345 time=0.004098358333333333
EXTRACT: pitchwheel channel=0 pitch=3425 time=0.004098358333333333
EXTRACT: pitchwheel channel=0 pitch=3505 time=0.004098358333333333
EXTRACT: pitchwheel channel=0 pitch=3584 time=0.004098358333333333
EXTRACT: pitchwheel channel=0 pitch=3664 time=0.004098358333333333
EXTRACT: pitchwheel channel=0 pitch=3744 time=0.004098358333333333
EXTRACT: pitchwheel channel=0 pitch=3823 time=0.004098358333333333
EXTRACT: pitchwheel channel=0 pitch=3903 time=0.004098358333333333
EXTRACT: pitchwheel channel=0 pitch=3983 time=0.004098358333333333
EXTRACT: pitchwheel channel=0 pitch=4062 time=0.004098358333333333
EXTRACT: pitchwheel channel=0 pitch=4142 time=0.004098358333333333
EXTRACT: pitchwheel channel=0 pitch=4221 time=0.004098358333333333
EXTRACT: pitchwheel channel=0 pitch=4301 time=0.004098358333333333
EXTRACT: pitchwheel channel=0 pitch=4381 time=0.004098358333333333
EXTRACT: pitchwheel channel=0 pitch=4460 time=0.004098358333333333
EXTRACT: pitchwheel channel=0 pitch=4540 time=0.004098358333333333
EXTRACT: pitchwheel channel=0 pitch=4620 time=0.004098358333333333
EXTRACT: note_on channel=2 note=64 velocity=0 time=0
EXTRACT: note_on channel=2 note=60 velocity=0 time=0
EXTRACT: note_on channel=2 note=55 velocity=0 time=0
EXTRACT: note_on channel=2 note=48 velocity=0 time=0
EXTRACT: note_on channel=9 note=36 velocity=110 time=0
EXTRACT: note_on channel=9 note=42 velocity=41 time=0
EXTRACT: pitchwheel channel=0 pitch=4699 time=0.004098358333333333
EXTRACT: note_on channel=2 note=64 velocity=97 time=0
EXTRACT: note_on channel=2 note=60 velocity=92 time=0
EXTRACT: note_on channel=2 note=55 velocity=75 time=0
EXTRACT: note_on channel=5 note=76 velocity=80 time=0.0020491791666666665
EXTRACT: note_on channel=5 note=72 velocity=104 time=0
EXTRACT: pitchwheel channel=0 pitch=4779 time=0.0020491791666666665
EXTRACT: note_on channel=1 note=64 velocity=0 time=0
EXTRACT: note_on channel=1 note=60 velocity=0 time=0
EXTRACT: note_on channel=1 note=55 velocity=0 time=0
EXTRACT: note_on channel=1 note=48 velocity=0 time=0
EXTRACT: note_on channel=1 note=64 velocity=116 time=0.004098358333333333
EXTRACT: note_on channel=1 note=60 velocity=93 time=0
EXTRACT: note_on channel=1 note=55 velocity=88 time=0
EXTRACT: note_on channel=9 note=36 velocity=0 time=0.02868850833333333
EXTRACT: note_on channel=9 note=42 velocity=0 time=0
EXTRACT: note_on channel=2 note=64 velocity=0 time=0.20491791666666664
EXTRACT: note_on channel=2 note=60 velocity=0 time=0
EXTRACT: note_on channel=2 note=55 velocity=0 time=0
EXTRACT: note_on channel=9 note=42 velocity=69 time=0
EXTRACT: note_on channel=2 note=62 velocity=91 time=0.004098358333333333
EXTRACT: note_on channel=2 note=58 velocity=109 time=0
EXTRACT: note_on channel=2 note=55 velocity=96 time=0
EXTRACT: note_on channel=2 note=65 velocity=96 time=0
EXTRACT: note_on channel=0 note=36 velocity=0 time=0.004098358333333333
EXTRACT: note_on channel=1 note=64 velocity=0 time=0
EXTRACT: note_on channel=1 note=60 velocity=0 time=0
EXTRACT: note_on channel=1 note=55 velocity=0 time=0
EXTRACT: note_on channel=4 note=72 velocity=0 time=0.0010245895833333333
EXTRACT: note_on channel=4 note=76 velocity=0 time=0
EXTRACT: note_on channel=4 note=79 velocity=0 time=0
EXTRACT: note_on channel=4 note=74 velocity=117 time=0
EXTRACT: note_on channel=4 note=79 velocity=99 time=0
EXTRACT: note_on channel=4 note=82 velocity=93 time=0
EXTRACT: note_on channel=1 note=62 velocity=106 time=0.0030737687499999998
EXTRACT: note_on channel=1 note=58 velocity=85 time=0
EXTRACT: note_on channel=1 note=55 velocity=103 time=0
EXTRACT: note_on channel=1 note=65 velocity=95 time=0
EXTRACT: note_on channel=9 note=42 velocity=0 time=0.02868850833333333
EXTRACT: note_on channel=9 note=36 velocity=120 time=0.20491791666666664
EXTRACT: note_on channel=9 note=42 velocity=44 time=0
EXTRACT: note_on channel=5 note=76 velocity=0 time=0.0020491791666666665
EXTRACT: note_on channel=5 note=72 velocity=0 time=0
EXTRACT: note_on channel=5 note=76 velocity=57 time=0.004098358333333333
EXTRACT: note_on channel=5 note=72 velocity=104 time=0
EXTRACT: pitchwheel channel=0 pitch=0 time=0.0020491791666666665
EXTRACT: note_on channel=0 note=43 velocity=121 time=0
EXTRACT: note_on channel=9 note=36 velocity=0 time=0.032786866666666664
EXTRACT: note_on channel=9 note=42 velocity=0 time=0
EXTRACT: note_on channel=0 note=43 velocity=0 time=0.15163925833333333
EXTRACT: note_on channel=2 note=62 velocity=0 time=0.053278658333333326
EXTRACT: note_on channel=2 note=58 velocity=0 time=0
EXTRACT: note_on channel=2 note=55 velocity=0 time=0
EXTRACT: note_on channel=2 note=65 velocity=0 time=0
EXTRACT: note_on channel=9 note=40 velocity=127 time=0
EXTRACT: note_on channel=9 note=42 velocity=62 time=0
EXTRACT: note_on channel=2 note=62 velocity=100 time=0.004098358333333333
EXTRACT: note_on channel=2 note=58 velocity=96 time=0
EXTRACT: note_on channel=2 note=55 velocity=114 time=0
EXTRACT: note_on channel=2 note=65 velocity=92 time=0
EXTRACT: note_on channel=0 note=43 velocity=122 time=0.004098358333333333
EXTRACT: note_on channel=1 note=62 velocity=0 time=0
EXTRACT: note_on channel=1 note=58 velocity=0 time=0
EXTRACT: note_on channel=1 note=55 velocity=0 time=0
EXTRACT: note_on channel=1 note=65 velocity=0 time=0
EXTRACT: note_on channel=1 note=62 velocity=96 time=0.004098358333333333
EXTRACT: note_on channel=1 note=58 velocity=109 time=0
EXTRACT: note_on channel=1 note=55 velocity=115 time=0
EXTRACT: note_on channel=1 note=65 velocity=110 time=0
EXTRACT: note_on channel=9 note=40 velocity=0 time=0.02868850833333333
EXTRACT: note_on channel=9 note=42 velocity=0 time=0
EXTRACT: note_on channel=0 note=43 velocity=0 time=0.15163925833333333
EXTRACT: note_on channel=9 note=42 velocity=67 time=0.053278658333333326
EXTRACT: note_on channel=5 note=76 velocity=0 time=0.0020491791666666665
EXTRACT: note_on channel=5 note=72 velocity=0 time=0
EXTRACT: note_on channel=5 note=74 velocity=74 time=0.004098358333333333
EXTRACT: note_on channel=5 note=69 velocity=100 time=0
EXTRACT: note_on channel=0 note=43 velocity=110 time=0.0020491791666666665
EXTRACT: note_on channel=9 note=42 velocity=0 time=0.032786866666666664
EXTRACT: note_on channel=0 note=43 velocity=0 time=0.15163925833333333
EXTRACT: note_on channel=2 note=62 velocity=0 time=0.053278658333333326
EXTRACT: note_on channel=2 note=58 velocity=0 time=0
EXTRACT: note_on channel=2 note=55 velocity=0 time=0
EXTRACT: note_on channel=2 note=65 velocity=0 time=0
EXTRACT: note_on channel=9 note=36 velocity=120 time=0
EXTRACT: note_on channel=9 note=42 velocity=66 time=0
EXTRACT: note_on channel=2 note=62 velocity=92 time=0.004098358333333333
EXTRACT: note_on channel=2 note=58 velocity=102 time=0
EXTRACT: note_on channel=2 note=55 velocity=92 time=0
EXTRACT: note_on channel=0 note=43 velocity=118 time=0.004098358333333333
EXTRACT: note_on channel=1 note=62 velocity=0 time=0
EXTRACT: note_on channel=1 note=58 velocity=0 time=0
EXTRACT: note_on channel=1 note=55 velocity=0 time=0
EXTRACT: note_on channel=1 note=65 velocity=0 time=0
EXTRACT: note_on channel=1 note=62 velocity=95 time=0.004098358333333333
EXTRACT: note_on channel=1 note=58 velocity=110 time=0
EXTRACT: note_on channel=1 note=55 velocity=88 time=0
EXTRACT: note_on channel=9 note=36 velocity=0 time=0.02868850833333333
EXTRACT: note_on channel=9 note=42 velocity=0 time=0
EXTRACT: note_on channel=0 note=43 velocity=0 time=0.15163925833333333
EXTRACT: note_on channel=2 note=62 velocity=0 time=0.053278658333333326
EXTRACT: note_on channel=2 note=58 velocity=0 time=0
EXTRACT: note_on channel=2 note=55 velocity=0 time=0
EXTRACT: note_on channel=9 note=40 velocity=127 time=0
EXTRACT: note_on channel=9 note=42 velocity=50 time=0
EXTRACT: note_on channel=5 note=74 velocity=0 time=0.0020491791666666665
EXTRACT: note_on channel=5 note=69 velocity=0 time=0
EXTRACT: note_on channel=2 note=62 velocity=66 time=0.0020491791666666665
EXTRACT: note_on channel=2 note=58 velocity=97 time=0
EXTRACT: note_on channel=2 note=55 velocity=67 time=0
EXTRACT: note_on channel=2 note=65 velocity=69 time=0
EXTRACT: note_on channel=5 note=72 velocity=69 time=0.0020491791666666665
EXTRACT: note_on channel=5 note=67 velocity=90 time=0
EXTRACT: note_on channel=0 note=45 velocity=123 time=0.0020491791666666665
EXTRACT: note_on channel=1 note=62 velocity=0 time=0
EXTRACT: note_on channel=1 note=58 velocity=0 time=0
EXTRACT: note_on channel=1 note=55 velocity=0 time=0
EXTRACT: note_on channel=1 note=62 velocity=77 time=0.004098358333333333
EXTRACT: note_on channel=1 note=58 velocity=60 time=0
EXTRACT: note_on channel=1 note=55 velocity=115 time=0
EXTRACT: note_on channel=1 note=65 velocity=61 time=0
EXTRACT: note_on channel=9 note=40 velocity=0 time=0.02868850833333333
EXTRACT: note_on channel=9 note=42 velocity=0 time=0
EXTRACT: note_on channel=0 note=45 velocity=0 time=0.15163925833333333
EXTRACT: note_on channel=2 note=62 velocity=0 time=0.053278658333333326
EXTRACT: note_on channel=2 note=58 velocity=0 time=0
EXTRACT: note_on channel=2 note=55 velocity=0 time=0
EXTRACT: note_on channel=2 note=65 velocity=0 time=0
EXTRACT: note_on channel=9 note=36 velocity=120 time=0
EXTRACT: note_on channel=9 note=42 velocity=62 time=0
EXTRACT: note_on channel=2 note=62 velocity=116 time=0.004098358333333333
EXTRACT: note_on channel=2 note=58 velocity=105 time=0
EXTRACT: note_on channel=2 note=55 velocity=88 time=0
EXTRACT: note_on channel=2 note=65 velocity=106 time=0
EXTRACT: note_on channel=0 note=45 velocity=105 time=0.004098358333333333
EXTRACT: note_on channel=1 note=62 velocity=0 time=0
EXTRACT: note_on channel=1 note=58 velocity=0 time=0
EXTRACT: note_on channel=1 note=55 velocity=0 time=0
EXTRACT: note_on channel=1 note=65 velocity=0 time=0
EXTRACT: note_on channel=1 note=62 velocity=100 time=0.004098358333333333
EXTRACT: note_on channel=1 note=58 velocity=91 time=0
EXTRACT: note_on channel=1 note=55 velocity=93 time=0
EXTRACT: note_on channel=1 note=65 velocity=82 time=0
EXTRACT: note_on channel=9 note=36 velocity=0 time=0.02868850833333333
EXTRACT: note_on channel=9 note=42 velocity=0 time=0
EXTRACT: note_on channel=0 note=45 velocity=0 time=0.15163925833333333
EXTRACT: note_on channel=2 note=62 velocity=0 time=0.053278658333333326
EXTRACT: note_on channel=2 note=58 velocity=0 time=0
EXTRACT: note_on channel=2 note=55 velocity=0 time=0
EXTRACT: note_on channel=2 note=65 velocity=0 time=0
EXTRACT: note_on channel=9 note=40 velocity=127 time=0
EXTRACT: note_on channel=9 note=42 velocity=46 time=0
EXTRACT: note_on channel=2 note=62 velocity=81 time=0.004098358333333333
EXTRACT: note_on channel=2 note=58 velocity=111 time=0
EXTRACT: note_on channel=2 note=55 velocity=111 time=0
EXTRACT: note_on channel=0 note=45 velocity=104 time=0.004098358333333333
EXTRACT: note_on channel=1 note=62 velocity=0 time=0
EXTRACT: note_on channel=1 note=58 velocity=0 time=0
EXTRACT: note_on channel=1 note=55 velocity=0 time=0
EXTRACT: note_on channel=1 note=65 velocity=0 time=0
EXTRACT: note_on channel=1 note=62 velocity=77 time=0.004098358333333333
EXTRACT: note_on channel=1 note=58 velocity=76 time=0
EXTRACT: note_on channel=1 note=55 velocity=73 time=0
EXTRACT: note_on channel=9 note=40 velocity=0 time=0.02868850833333333
EXTRACT: note_on channel=9 note=42 velocity=0 time=0
EXTRACT: note_on channel=0 note=45 velocity=0 time=0.15163925833333333
EXTRACT: note_on channel=2 note=62 velocity=0 time=0.053278658333333326
EXTRACT: note_on channel=2 note=58 velocity=0 time=0
EXTRACT: note_on channel=2 note=55 velocity=0 time=0
EXTRACT: note_on channel=9 note=49 velocity=100 time=0
EXTRACT: note_on channel=9 note=36 velocity=120 time=0
EXTRACT: note_on channel=5 note=72 velocity=0 time=0.0020491791666666665
EXTRACT: note_on channel=5 note=67 velocity=0 time=0
EXTRACT: note_on channel=2 note=60 velocity=108 time=0.0020491791666666665
EXTRACT: note_on channel=2 note=57 velocity=96 time=0
EXTRACT: note_on channel=2 note=53 velocity=86 time=0
EXTRACT: note_on channel=2 note=65 velocity=109 time=0
EXTRACT: note_on channel=5 note=72 velocity=54 time=0.0020491791666666665
EXTRACT: note_on channel=5 note=67 velocity=114 time=0
EXTRACT: note_on channel=0 note=41 velocity=115 time=0.0020491791666666665
EXTRACT: note_on channel=1 note=62 velocity=0 time=0
EXTRACT: note_on channel=1 note=58 velocity=0 time=0
EXTRACT: note_on channel=1 note=55 velocity=0 time=0
EXTRACT: note_on channel=4 note=74 velocity=0 time=0.0010245895833333333
EXTRACT: note_on channel=4 note=79 velocity=0 time=0
EXTRACT: note_on channel=4 note=82 velocity=0 time=0
EXTRACT: note_on channel=4 note=72 velocity=115 time=0
EXTRACT: note_on channel=4 note=77 velocity=105 time=0
EXTRACT: note_on channel=4 note=81 velocity=117 time=0
EXTRACT: note_on channel=1 note=60 velocity=79 time=0.0030737687499999998
EXTRACT: note_on channel=1 note=57 velocity=86 time=0
EXTRACT: note_on channel=1 note=53 velocity=101 time=0
EXTRACT: note_on channel=1 note=65 velocity=103 time=0
EXTRACT: note_on channel=9 note=49 velocity=0 time=0.02868850833333333
EXTRACT: note_on channel=9 note=36 velocity=0 time=0
EXTRACT: note_on channel=9 note=42 velocity=48 time=0.20491791666666664
EXTRACT: note_on channel=0 note=41 velocity=0 time=0.008196716666666666
EXTRACT: note_on channel=9 note=42 velocity=0 time=0.032786866666666664
EXTRACT: note_on channel=2 note=60 velocity=0 time=0.20491791666666664
EXTRACT: note_on channel=2 note=57 velocity=0 time=0
EXTRACT: note_on channel=2 note=53 velocity=0 time=0
EXTRACT: note_on channel=2 note=65 velocity=0 time=0
EXTRACT: note_on channel=9 note=40 velocity=127 time=0
EXTRACT: note_on channel=9 note=42 velocity=57 time=0
EXTRACT: note_on channel=5 note=72 velocity=0 time=0.0020491791666666665
EXTRACT: note_on channel=5 note=67 velocity=0 time=0
EXTRACT: note_on channel=2 note=60 velocity=98 time=0.0020491791666666665
EXTRACT: note_on channel=2 note=57 velocity=108 time=0
EXTRACT: note_on channel=2 note=53 velocity=88 time=0
EXTRACT: note_on channel=2 note=65 velocity=107 time=0
EXTRACT: note_on channel=5 note=69 velocity=77 time=0.0020491791666666665
EXTRACT: note_on channel=5 note=65 velocity=92 time=0
EXTRACT: note_on channel=0 note=41 velocity=104 time=0.0020491791666666665
EXTRACT: note_on channel=1 note=60 velocity=0 time=0
EXTRACT: note_on channel=1 note=57 velocity=0 time=0
EXTRACT: note_on channel=1 note=53 velocity=0 time=0
EXTRACT: note_on channel=1 note=65 velocity=0 time=0
EXTRACT: note_on channel=1 note=60 velocity=98 time=0.004098358333333333
EXTRACT: note_on channel=1 note=57 velocity=94 time=0
EXTRACT: note_on channel=1 note=53 velocity=98 time=0
EXTRACT: note_on channel=1 note=65 velocity=107 time=0
EXTRACT: note_on channel=9 note=40 velocity=0 time=0.02868850833333333
EXTRACT: note_on channel=9 note=42 velocity=0 time=0
EXTRACT: note_on channel=0 note=41 velocity=0 time=0.15163925833333333
EXTRACT: note_on channel=9 note=42 velocity=64 time=0.053278658333333326
EXTRACT: note_on channel=5 note=69 velocity=0 time=0.0020491791666666665
EXTRACT: note_on channel=5 note=65 velocity=0 time=0
EXTRACT: note_on channel=5 note=65 velocity=72 time=0.004098358333333333
EXTRACT: note_on channel=5 note=60 velocity=103 time=0
EXTRACT: note_on channel=0 note=45 velocity=109 time=0.0020491791666666665
EXTRACT: note_on channel=9 note=42 velocity=0 time=0.032786866666666664
EXTRACT: note_on channel=0 note=45 velocity=0 time=0.15163925833333333
EXTRACT: note_on channel=2 note=60 velocity=0 time=0.053278658333333326
EXTRACT: note_on channel=2 note=57 velocity=0 time=0
EXTRACT: note_on channel=2 note=53 velocity=0 time=0
EXTRACT: note_on channel=2 note=65 velocity=0 time=0
EXTRACT: note_on channel=9 note=36 velocity=120 time=0
EXTRACT: note_on channel=9 note=42 velocity=59 time=0
EXTRACT: note_on channel=2 note=60 velocity=101 time=0.004098358333333333
EXTRACT: note_on channel=2 note=57 velocity=115 time=0
EXTRACT: note_on channel=2 note=53 velocity=106 time=0
EXTRACT: note_on channel=0 note=48 velocity=107 time=0.004098358333333333
EXTRACT: note_on channel=1 note=60 velocity=0 time=0
EXTRACT: note_on channel=1 note=57 velocity=0 time=0
EXTRACT: note_on channel=1 note=53 velocity=0 time=0
EXTRACT: note_on channel=1 note=65 velocity=0 time=0
EXTRACT: note_on channel=1 note=60 velocity=82 time=0.004098358333333333
EXTRACT: note_on channel=1 note=57 velocity=110 time=0
EXTRACT: note_on channel=1 note=53 velocity=111 time=0
EXTRACT: note_on channel=9 note=36 velocity=0 time=0.02868850833333333
EXTRACT: note_on channel=9 note=42 velocity=0 time=0
EXTRACT: note_on channel=0 note=48 velocity=0 time=0.15163925833333333
EXTRACT: note_on channel=2 note=60 velocity=0 time=0.053278658333333326
EXTRACT: note_on channel=2 note=57 velocity=0 time=0
EXTRACT: note_on channel=2 note=53 velocity=0 time=0
EXTRACT: note_on channel=9 note=36 velocity=110 time=0
EXTRACT: note_on channel=9 note=42 velocity=42 time=0
EXTRACT: note_on channel=2 note=60 velocity=84 time=0.004098358333333333
EXTRACT: note_on channel=2 note=57 velocity=107 time=0
EXTRACT: note_on channel=2 note=53 velocity=113 time=0
EXTRACT: note_on channel=2 note=65 velocity=93 time=0
EXTRACT: note_on channel=0 note=45 velocity=119 time=0.004098358333333333
EXTRACT: note_on channel=1 note=60 velocity=0 time=0
EXTRACT: note_on channel=1 note=57 velocity=0 time=0
EXTRACT: note_on channel=1 note=53 velocity=0 time=0
EXTRACT: note_on channel=1 note=60 velocity=62 time=0.004098358333333333
EXTRACT: note_on channel=1 note=57 velocity=76 time=0
EXTRACT: note_on channel=1 note=53 velocity=109 time=0
EXTRACT: note_on channel=1 note=65 velocity=94 time=0
EXTRACT: note_on channel=9 note=36 velocity=0 time=0.02868850833333333
EXTRACT: note_on channel=9 note=42 velocity=0 time=0
EXTRACT: note_on channel=0 note=45 velocity=0 time=0.15163925833333333
EXTRACT: note_on channel=2 note=60 velocity=0 time=0.053278658333333326
EXTRACT: note_on channel=2 note=57 velocity=0 time=0
EXTRACT: note_on channel=2 note=53 velocity=0 time=0
EXTRACT: note_on channel=2 note=65 velocity=0 time=0
EXTRACT: note_on channel=9 note=40 velocity=127 time=0
EXTRACT: note_on channel=9 note=42 velocity=55 time=0
EXTRACT: note_on channel=2 note=60 velocity=95 time=0.004098358333333333
EXTRACT: note_on channel=2 note=57 velocity=113 time=0
EXTRACT: note_on channel=2 note=53 velocity=103 time=0
EXTRACT: note_on channel=2 note=65 velocity=99 time=0
EXTRACT: note_on channel=5 note=65 velocity=0 time=0.0020491791666666665
EXTRACT: note_on channel=5 note=60 velocity=0 time=0
EXTRACT: note_on channel=0 note=48 velocity=111 time=0.0020491791666666665
EXTRACT: note_on channel=1 note=60 velocity=0 time=0
EXTRACT: note_on channel=1 note=57 velocity=0 time=0
EXTRACT: note_on channel=1 note=53 velocity=0 time=0
EXTRACT: note_on channel=1 note=65 velocity=0 time=0
EXTRACT: note_on channel=1 note=60 velocity=79 time=0.004098358333333333
EXTRACT: note_on channel=1 note=57 velocity=86 time=0
EXTRACT: note_on channel=1 note=53 velocity=107 time=0
EXTRACT: note_on channel=1 note=65 velocity=101 time=0
EXTRACT: note_on channel=9 note=40 velocity=0 time=0.02868850833333333
EXTRACT: note_on channel=9 note=42 velocity=0 time=0
EXTRACT: note_on channel=0 note=48 velocity=0 time=0.15163925833333333
EXTRACT: note_on channel=2 note=60 velocity=0 time=0.053278658333333326
EXTRACT: note_on channel=2 note=57 velocity=0 time=0
EXTRACT: note_on channel=2 note=53 velocity=0 time=0
EXTRACT: note_on channel=2 note=65 velocity=0 time=0
EXTRACT: note_on channel=9 note=42 velocity=45 time=0
EXTRACT: note_on channel=2 note=60 velocity=74 time=0.004098358333333333
EXTRACT: note_on channel=2 note=57 velocity=99 time=0
EXTRACT: note_on channel=2 note=53 velocity=112 time=0
EXTRACT: note_on channel=5 note=72 velocity=65 time=0.0020491791666666665
EXTRACT: note_on channel=5 note=67 velocity=105 time=0
EXTRACT: note_on channel=0 note=45 velocity=115 time=0.0020491791666666665
EXTRACT: note_on channel=1 note=60 velocity=0 time=0
EXTRACT: note_on channel=1 note=57 velocity=0 time=0
EXTRACT: note_on channel=1 note=53 velocity=0 time=0
EXTRACT: note_on channel=1 note=65 velocity=0 time=0
EXTRACT: note_on channel=1 note=60 velocity=74 time=0.004098358333333333
EXTRACT: note_on channel=1 note=57 velocity=96 time=0
EXTRACT: note_on channel=1 note=53 velocity=68 time=0
EXTRACT: note_on channel=9 note=42 velocity=0 time=0.02868850833333333
EXTRACT: note_on channel=0 note=45 velocity=0 time=0.15163925833333333
EXTRACT: note_on channel=2 note=60 velocity=0 time=0.053278658333333326
EXTRACT: note_on channel=2 note=57 velocity=0 time=0
EXTRACT: note_on channel=2 note=53 velocity=0 time=0
EXTRACT: note_on channel=9 note=42 velocity=65 time=0
EXTRACT: note_on channel=9 note=36 velocity=120 time=0
EXTRACT: note_on channel=5 note=72 velocity=0 time=0.0020491791666666665
EXTRACT: note_on channel=5 note=67 velocity=0 time=0
EXTRACT: note_on channel=2 note=60 velocity=107 time=0.0020491791666666665
EXTRACT: note_on channel=2 note=56 velocity=113 time=0
EXTRACT: note_on channel=2 note=53 velocity=93 time=0
EXTRACT: note_on channel=2 note=62 velocity=106 time=0
EXTRACT: note_on channel=5 note=72 velocity=79 time=0.0020491791666666665
EXTRACT: note_on channel=5 note=67 velocity=105 time=0
EXTRACT: note_on channel=0 note=34 velocity=111 time=0.0020491791666666665
EXTRACT: note_on channel=1 note=60 velocity=0 time=0
EXTRACT: note_on channel=1 note=57 velocity=0 time=0
EXTRACT: note_on channel=1 note=53 velocity=0 time=0
EXTRACT: note_on channel=4 note=72 velocity=0 time=0.0010245895833333333
EXTRACT: note_on channel=4 note=77 velocity=0 time=0
EXTRACT: note_on channel=4 note=81 velocity=0 time=0
EXTRACT: note_on channel=4 note=74 velocity=103 time=0
EXTRACT: note_on channel=4 note=77 velocity=102 time=0
EXTRACT: note_on channel=4 note=80 velocity=106 time=0
EXTRACT: note_on channel=1 note=60 velocity=95 time=0.0030737687499999998
EXTRACT: note_on channel=1 note=56 velocity=102 time=0
EXTRACT: note_on channel=1 note=53 velocity=90 time=0
EXTRACT: note_on channel=1 note=62 velocity=113 time=0
EXTRACT: note_on channel=9 note=42 velocity=0 time=0.02868850833333333
EXTRACT: note_on channel=9 note=36 velocity=0 time=0
EXTRACT: note_on channel=0 note=34 velocity=0 time=0.15163925833333333
EXTRACT: note_on channel=9 note=42 velocity=50 time=0.053278658333333326
EXTRACT: note_on channel=0 note=36 velocity=111 time=0.008196716666666666
EXTRACT: note_on channel=9 note=42 velocity=0 time=0.032786866666666664
EXTRACT: note_on channel=0 note=36 velocity=0 time=0.15163925833333333
EXTRACT: note_on channel=2 note=60 velocity=0 time=0.053278658333333326
EXTRACT: note_on channel=2 note=56 velocity=0 time=0
EXTRACT: note_on channel=2 note=53 velocity=0 time=0
EXTRACT: note_on channel=2 note=62 velocity=0 time=0
EXTRACT: note_on channel=9 note=40 velocity=127 time=0
EXTRACT: note_on channel=9 note=42 velocity=65 time=0
EXTRACT: note_on channel=5 note=72 velocity=0 time=0.0020491791666666665
EXTRACT: note_on channel=5 note=67 velocity=0 time=0
EXTRACT: note_on channel=2 note=60 velocity=103 time=0.0020491791666666665
EXTRACT: note_on channel=2 note=56 velocity=96 time=0
EXTRACT: note_on channel=2 note=53 velocity=115 time=0
EXTRACT: note_on channel=2 note=62 velocity=87 time=0
EXTRACT: note_on channel=5 note=69 velocity=60 time=0.0020491791666666665
EXTRACT: note_on channel=5 note=65 velocity=97 time=0
EXTRACT: note_on channel=0 note=38 velocity=102 time=0.0020491791666666665
EXTRACT: note_on channel=1 note=60 velocity=0 time=0
EXTRACT: note_on channel=1 note=56 velocity=0 time=0
EXTRACT: note_on channel=1 note=53 velocity=0 time=0
EXTRACT: note_on channel=1 note=62 velocity=0 time=0
EXTRACT: note_on channel=1 note=60 velocity=99 time=0.004098358333333333
EXTRACT: note_on channel=1 note=56 velocity=116 time=0
EXTRACT: note_on channel=1 note=53 velocity=85 time=0
EXTRACT: note_on channel=1 note=62 velocity=116 time=0
EXTRACT: note_on channel=9 note=40 velocity=0 time=0.02868850833333333
EXTRACT: note_on channel=9 note=42 velocity=0 time=0
EXTRACT: note_on channel=0 note=38 velocity=0 time=0.15163925833333333
EXTRACT: note_on channel=9 note=42 velocity=67 time=0.053278658333333326
EXTRACT: note_on channel=5 note=69 velocity=0 time=0.0020491791666666665
EXTRACT: note_on channel=5 note=65 velocity=0 time=0
EXTRACT: note_on channel=5 note=69 velocity=70 time=0.004098358333333333
EXTRACT: note_on channel=5 note=65 velocity=99 time=0
EXTRACT: note_on channel=0 note=41 velocity=109 time=0.0020491791666666665
EXTRACT: note_on channel=9 note=42 velocity=0 time=0.032786866666666664
EXTRACT: note_on channel=2 note=60 velocity=0 time=0.20491791666666664
EXTRACT: note_on channel=2 note=56 velocity=0 time=0
EXTRACT: note_on channel=2 note=53 velocity=0 time=0
EXTRACT: note_on channel=2 note=62 velocity=0 time=0
EXTRACT: note_on channel=9 note=36 velocity=120 time=0
EXTRACT: note_on channel=9 note=42 velocity=59 time=0
EXTRACT: note_on channel=2 note=60 velocity=95 time=0.004098358333333333
EXTRACT: note_on channel=2 note=56 velocity=105 time=0
EXTRACT: note_on channel=2 note=53 velocity=85 time=0
EXTRACT: note_on channel=0 note=41 velocity=0 time=0.004098358333333333
EXTRACT: note_on channel=1 note=60 velocity=0 time=0
EXTRACT: note_on channel=1 note=56 velocity=0 time=0
EXTRACT: note_on channel=1 note=53 velocity=0 time=0
EXTRACT: note_on channel=1 note=62 velocity=0 time=0
EXTRACT: note_on channel=1 note=60 velocity=91 time=0.004098358333333333
EXTRACT: note_on channel=1 note=56 velocity=89 time=0
EXTRACT: note_on channel=1 note=53 velocity=88 time=0
EXTRACT: note_on channel=9 note=36 velocity=0 time=0.02868850833333333
EXTRACT: note_on channel=9 note=42 velocity=0 time=0
EXTRACT: note_on channel=2 note=60 velocity=0 time=0.20491791666666664
EXTRACT: note_on channel=2 note=56 velocity=0 time=0
EXTRACT: note_on channel=2 note=53 velocity=0 time=0
EXTRACT: note_on channel=9 note=40 velocity=100 time=0
EXTRACT: note_on channel=5 note=69 velocity=0 time=0.0020491791666666665
EXTRACT: note_on channel=5 note=65 velocity=0 time=0
EXTRACT: note_on channel=2 note=60 velocity=98 time=0.0020491791666666665
EXTRACT: note_on channel=2 note=56 velocity=109 time=0
EXTRACT: note_on channel=2 note=53 velocity=79 time=0
EXTRACT: note_on channel=2 note=62 velocity=97 time=0
EXTRACT: note_on channel=5 note=69 velocity=56 time=0.0020491791666666665
EXTRACT: note_on channel=5 note=65 velocity=90 time=0
EXTRACT: note_on channel=0 note=38 velocity=123 time=0.0020491791666666665
EXTRACT: note_on channel=1 note=60 velocity=0 time=0
EXTRACT: note_on channel=1 note=56 velocity=0 time=0
EXTRACT: note_on channel=1 note=53 velocity=0 time=0
EXTRACT: note_on channel=1 note=60 velocity=72 time=0.004098358333333333
EXTRACT: note_on channel=1 note=56 velocity=116 time=0
EXTRACT: note_on channel=1 note=53 velocity=65 time=0
EXTRACT: note_on channel=1 note=62 velocity=79 time=0
EXTRACT: note_on channel=9 note=40 velocity=0 time=0.02868850833333333
EXTRACT: note_on channel=9 note=40 velocity=127 time=0.08196716666666666
EXTRACT: note_on channel=9 note=40 velocity=0 time=0.04098358333333333
EXTRACT: note_on channel=0 note=38 velocity=0 time=0.02868850833333333
EXTRACT: note_on channel=2 note=60 velocity=0 time=0.053278658333333326
EXTRACT: note_on channel=2 note=56 velocity=0 time=0
EXTRACT: note_on channel=2 note=53 velocity=0 time=0
EXTRACT: note_on channel=2 note=62 velocity=0 time=0
EXTRACT: note_on channel=9 note=40 velocity=127 time=0
EXTRACT: note_on channel=5 note=69 velocity=0 time=0.0020491791666666665
EXTRACT: note_on channel=5 note=65 velocity=0 time=0
EXTRACT: note_on channel=2 note=60 velocity=93 time=0.0020491791666666665
EXTRACT: note_on channel=2 note=56 velocity=114 time=0
EXTRACT: note_on channel=2 note=53 velocity=116 time=0
EXTRACT: note_on channel=2 note=62 velocity=111 time=0
EXTRACT: note_on channel=5 note=67 velocity=54 time=0.0020491791666666665
EXTRACT: note_on channel=5 note=64 velocity=114 time=0
EXTRACT: note_on channel=0 note=41 velocity=117 time=0.0020491791666666665
EXTRACT: note_on channel=1 note=60 velocity=0 time=0
EXTRACT: note_on channel=1 note=56 velocity=0 time=0
EXTRACT: note_on channel=1 note=53 velocity=0 time=0
EXTRACT: note_on channel=1 note=62 velocity=0 time=0
EXTRACT: note_on channel=1 note=60 velocity=115 time=0.004098358333333333
EXTRACT: note_on channel=1 note=56 velocity=89 time=0
EXTRACT: note_on channel=1 note=53 velocity=115 time=0
EXTRACT: note_on channel=1 note=62 velocity=85 time=0
EXTRACT: note_on channel=9 note=40 velocity=0 time=0.02868850833333333
EXTRACT: note_on channel=0 note=41 velocity=0 time=0.15163925833333333
EXTRACT: note_on channel=2 note=60 velocity=0 time=0.053278658333333326
EXTRACT: note_on channel=2 note=56 velocity=0 time=0
EXTRACT: note_on channel=2 note=53 velocity=0 time=0
EXTRACT: note_on channel=2 note=62 velocity=0 time=0
EXTRACT: note_on channel=9 note=40 velocity=120 time=0
EXTRACT: note_on channel=2 note=60 velocity=69 time=0.004098358333333333
EXTRACT: note_on channel=2 note=56 velocity=88 time=0
EXTRACT: note_on channel=2 note=53 velocity=82 time=0
EXTRACT: note_on channel=0 note=43 velocity=123 time=0.004098358333333333
EXTRACT: note_on channel=1 note=60 velocity=0 time=0
EXTRACT: note_on channel=1 note=56 velocity=0 time=0
EXTRACT: note_on channel=1 note=53 velocity=0 time=0
EXTRACT: note_on channel=1 note=62 velocity=0 time=0
EXTRACT: note_on channel=1 note=60 velocity=103 time=0.004098358333333333
EXTRACT: note_on channel=1 note=56 velocity=88 time=0
EXTRACT: note_on channel=1 note=53 velocity=86 time=0
EXTRACT: note_on channel=9 note=40 velocity=0 time=0.02868850833333333
EXTRACT: note_on channel=9 note=40 velocity=127 time=0.08196716666666666
EXTRACT: note_on channel=9 note=40 velocity=0 time=0.04098358333333333
EXTRACT: note_on channel=0 note=43 velocity=0 time=0.02868850833333333
EXTRACT: note_on channel=2 note=60 velocity=0 time=0.053278658333333326
EXTRACT: note_on channel=2 note=56 velocity=0 time=0
EXTRACT: note_on channel=2 note=53 velocity=0 time=0
EXTRACT: note_on channel=9 note=49 velocity=100 time=0
EXTRACT: note_on channel=9 note=36 velocity=120 time=0
EXTRACT: note_on channel=2 note=59 velocity=101 time=0.004098358333333333
EXTRACT: note_on channel=2 note=62 velocity=104 time=0
EXTRACT: note_on channel=2 note=55 velocity=111 time=0
EXTRACT: note_on channel=2 note=48 velocity=115 time=0
EXTRACT: note_on channel=0 note=36 velocity=116 time=0.004098358333333333
EXTRACT: note_on channel=1 note=60 velocity=0 time=0
EXTRACT: note_on channel=1 note=56 velocity=0 time=0
EXTRACT: note_on channel=1 note=53 velocity=0 time=0
EXTRACT: note_on channel=4 note=74 velocity=0 time=0.0010245895833333333
EXTRACT: note_on channel=4 note=77 velocity=0 time=0
EXTRACT: note_on channel=4 note=80 velocity=0 time=0
EXTRACT: note_on channel=4 note=76 velocity=90 time=0
EXTRACT: note_on channel=4 note=83 velocity=91 time=0
EXTRACT: note_on channel=4 note=79 velocity=120 time=0
EXTRACT: note_on channel=4 note=72 velocity=105 time=0
EXTRACT: note_on channel=1 note=59 velocity=92 time=0.0030737687499999998
EXTRACT: note_on channel=1 note=62 velocity=100 time=0
EXTRACT: note_on channel=1 note=55 velocity=84 time=0
EXTRACT: note_on channel=1 note=48 velocity=83 time=0
EXTRACT: note_on channel=9 note=49 velocity=0 time=0.02868850833333333
EXTRACT: note_on channel=9 note=36 velocity=0 time=0
EXTRACT: note_on channel=9 note=42 velocity=46 time=0.20491791666666664
EXTRACT: note_on channel=0 note=36 velocity=0 time=0.008196716666666666
EXTRACT: note_on channel=9 note=42 velocity=0 time=0.032786866666666664
EXTRACT: note_on channel=2 note=59 velocity=0 time=0.20491791666666664
EXTRACT: note_on channel=2 note=62 velocity=0 time=0
EXTRACT: note_on channel=2 note=55 velocity=0 time=0
EXTRACT: note_on channel=2 note=48 velocity=0 time=0
EXTRACT: note_on channel=9 note=40 velocity=127 time=0
EXTRACT: note_on channel=9 note=42 velocity=57 time=0
EXTRACT: note_on channel=2 note=59 velocity=103 time=0.004098358333333333
EXTRACT: note_on channel=2 note=62 velocity=98 time=0
EXTRACT: note_on channel=2 note=55 velocity=105 time=0
EXTRACT: note_on channel=2 note=48 velocity=113 time=0
EXTRACT: pitchwheel channel=0 pitch=0 time=0.004098358333333333
EXTRACT: note_on channel=0 note=36 velocity=115 time=0
EXTRACT: note_on channel=1 note=59 velocity=0 time=0
EXTRACT: note_on channel=1 note=62 velocity=0 time=0
EXTRACT: note_on channel=1 note=55 velocity=0 time=0
EXTRACT: note_on channel=1 note=48 velocity=0 time=0
EXTRACT: pitchwheel channel=0 pitch=80 time=0.004098358333333333
EXTRACT: note_on channel=1 note=59 velocity=97 time=0
EXTRACT: note_on channel=1 note=62 velocity=95 time=0
EXTRACT: note_on channel=1 note=55 velocity=117 time=0
EXTRACT: note_on channel=1 note=48 velocity=117 time=0
EXTRACT: pitchwheel channel=0 pitch=159 time=0.004098358333333333
EXTRACT: pitchwheel channel=0 pitch=239 time=0.004098358333333333
EXTRACT: pitchwheel channel=0 pitch=319 time=0.004098358333333333
EXTRACT: pitchwheel channel=0 pitch=398 time=0.004098358333333333
EXTRACT: pitchwheel channel=0 pitch=478 time=0.004098358333333333
EXTRACT: pitchwheel channel=0 pitch=558 time=0.004098358333333333
EXTRACT: pitchwheel channel=0 pitch=637 time=0.004098358333333333
EXTRACT: note_on channel=9 note=40 velocity=0 time=0
EXTRACT: note_on channel=9 note=42 velocity=0 time=0
EXTRACT: pitchwheel channel=0 pitch=717 time=0.004098358333333333
EXTRACT: pitchwheel channel=0 pitch=797 time=0.004098358333333333
EXTRACT: pitchwheel channel=0 pitch=876 time=0.004098358333333333
EXTRACT: pitchwheel channel=0 pitch=956 time=0.004098358333333333
EXTRACT: pitchwheel channel=0 pitch=1035 time=0.004098358333333333
EXTRACT: pitchwheel channel=0 pitch=1115 time=0.004098358333333333
EXTRACT: pitchwheel channel=0 pitch=1195 time=0.004098358333333333
EXTRACT: pitchwheel channel=0 pitch=1274 time=0.004098358333333333
EXTRACT: pitchwheel channel=0 pitch=1354 time=0.004098358333333333
EXTRACT: pitchwheel channel=0 pitch=1434 time=0.004098358333333333
EXTRACT: pitchwheel channel=0 pitch=1513 time=0.004098358333333333
EXTRACT: pitchwheel channel=0 pitch=1593 time=0.004098358333333333
EXTRACT: pitchwheel channel=0 pitch=1673 time=0.004098358333333333
EXTRACT: pitchwheel channel=0 pitch=1752 time=0.004098358333333333
EXTRACT: pitchwheel channel=0 pitch=1832 time=0.004098358333333333
EXTRACT: pitchwheel channel=0 pitch=1912 time=0.004098358333333333
EXTRACT: pitchwheel channel=0 pitch=1991 time=0.004098358333333333
EXTRACT: pitchwheel channel=0 pitch=2071 time=0.004098358333333333
EXTRACT: pitchwheel channel=0 pitch=2151 time=0.004098358333333333
EXTRACT: pitchwheel channel=0 pitch=2230 time=0.004098358333333333
EXTRACT: pitchwheel channel=0 pitch=2310 time=0.004098358333333333
EXTRACT: pitchwheel channel=0 pitch=2390 time=0.004098358333333333
EXTRACT: pitchwheel channel=0 pitch=2469 time=0.004098358333333333
EXTRACT: pitchwheel channel=0 pitch=2549 time=0.004098358333333333
EXTRACT: pitchwheel channel=0 pitch=2628 time=0.004098358333333333
EXTRACT: pitchwheel channel=0 pitch=2708 time=0.004098358333333333
EXTRACT: pitchwheel channel=0 pitch=2788 time=0.004098358333333333
EXTRACT: pitchwheel channel=0 pitch=2867 time=0.004098358333333333
EXTRACT: pitchwheel channel=0 pitch=2947 time=0.004098358333333333
EXTRACT: pitchwheel channel=0 pitch=3027 time=0.004098358333333333
EXTRACT: pitchwheel channel=0 pitch=3106 time=0.004098358333333333
EXTRACT: pitchwheel channel=0 pitch=3186 time=0.004098358333333333
EXTRACT: pitchwheel channel=0 pitch=3266 time=0.004098358333333333
EXTRACT: pitchwheel channel=0 pitch=3345 time=0.004098358333333333
EXTRACT: pitchwheel channel=0 pitch=3425 time=0.004098358333333333
EXTRACT: pitchwheel channel=0 pitch=3505 time=0.004098358333333333
EXTRACT: pitchwheel channel=0 pitch=3584 time=0.004098358333333333
EXTRACT: pitchwheel channel=0 pitch=3664 time=0.004098358333333333
EXTRACT: pitchwheel channel=0 pitch=3744 time=0.004098358333333333
EXTRACT: pitchwheel channel=0 pitch=3823 time=0.004098358333333333
EXTRACT: pitchwheel channel=0 pitch=3903 time=0.004098358333333333
EXTRACT: pitchwheel channel=0 pitch=3983 time=0.004098358333333333
EXTRACT: pitchwheel channel=0 pitch=4062 time=0.004098358333333333
EXTRACT: pitchwheel channel=0 pitch=4142 time=0.004098358333333333
EXTRACT: pitchwheel channel=0 pitch=4221 time=0.004098358333333333
EXTRACT: pitchwheel channel=0 pitch=4301 time=0.004098358333333333
EXTRACT: pitchwheel channel=0 pitch=4381 time=0.004098358333333333
EXTRACT: pitchwheel channel=0 pitch=4460 time=0.004098358333333333
EXTRACT: pitchwheel channel=0 pitch=4540 time=0.004098358333333333
EXTRACT: pitchwheel channel=0 pitch=4620 time=0.004098358333333333
EXTRACT: note_on channel=9 note=42 velocity=62 time=0
EXTRACT: pitchwheel channel=0 pitch=4699 time=0.004098358333333333
EXTRACT: pitchwheel channel=0 pitch=4779 time=0.004098358333333333
EXTRACT: note_on channel=9 note=42 velocity=0 time=0.032786866666666664
EXTRACT: note_on channel=2 note=59 velocity=0 time=0.20491791666666664
EXTRACT: note_on channel=2 note=62 velocity=0 time=0
EXTRACT: note_on channel=2 note=55 velocity=0 time=0
EXTRACT: note_on channel=2 note=48 velocity=0 time=0
EXTRACT: note_on channel=9 note=36 velocity=120 time=0
EXTRACT: note_on channel=9 note=42 velocity=57 time=0
EXTRACT: note_on channel=2 note=59 velocity=93 time=0.004098358333333333
EXTRACT: note_on channel=2 note=62 velocity=107 time=0
EXTRACT: note_on channel=2 note=55 velocity=107 time=0
EXTRACT: note_on channel=1 note=59 velocity=0 time=0.004098358333333333
EXTRACT: note_on channel=1 note=62 velocity=0 time=0
EXTRACT: note_on channel=1 note=55 velocity=0 time=0
EXTRACT: note_on channel=1 note=48 velocity=0 time=0
EXTRACT: note_on channel=1 note=59 velocity=97 time=0.004098358333333333
EXTRACT: note_on channel=1 note=62 velocity=116 time=0
EXTRACT: note_on channel=1 note=55 velocity=80 time=0
EXTRACT: note_on channel=9 note=36 velocity=0 time=0.02868850833333333
EXTRACT: note_on channel=9 note=42 velocity=0 time=0
EXTRACT: note_on channel=2 note=59 velocity=0 time=0.20491791666666664
EXTRACT: note_on channel=2 note=62 velocity=0 time=0
EXTRACT: note_on channel=2 note=55 velocity=0 time=0
EXTRACT: note_on channel=9 note=36 velocity=110 time=0
EXTRACT: note_on channel=9 note=42 velocity=44 time=0
EXTRACT: note_on channel=2 note=59 velocity=108 time=0.004098358333333333
EXTRACT: note_on channel=2 note=62 velocity=65 time=0
EXTRACT: note_on channel=2 note=55 velocity=104 time=0
EXTRACT: note_on channel=2 note=48 velocity=100 time=0
EXTRACT: note_on channel=1 note=59 velocity=0 time=0.004098358333333333
EXTRACT: note_on channel=1 note=62 velocity=0 time=0
EXTRACT: note_on channel=1 note=55 velocity=0 time=0
EXTRACT: note_on channel=1 note=59 velocity=98 time=0.004098358333333333
EXTRACT: note_on channel=1 note=62 velocity=85 time=0
EXTRACT: note_on channel=1 note=55 velocity=112 time=0
EXTRACT: note_on channel=1 note=48 velocity=69 time=0
EXTRACT: note_on channel=9 note=36 velocity=0 time=0.02868850833333333
EXTRACT: note_on channel=9 note=42 velocity=0 time=0
EXTRACT: note_on channel=2 note=59 velocity=0 time=0.20491791666666664
EXTRACT: note_on channel=2 note=62 velocity=0 time=0
EXTRACT: note_on channel=2 note=55 velocity=0 time=0
EXTRACT: note_on channel=2 note=48 velocity=0 time=0
EXTRACT: note_on channel=9 note=40 velocity=127 time=0
EXTRACT: note_on channel=9 note=42 velocity=59 time=0
EXTRACT: note_on channel=2 note=59 velocity=104 time=0.004098358333333333
EXTRACT: note_on channel=2 note=62 velocity=92 time=0
EXTRACT: note_on channel=2 note=55 velocity=104 time=0
EXTRACT: note_on channel=2 note=48 velocity=111 time=0
EXTRACT: note_on channel=1 note=59 velocity=0 time=0.004098358333333333
EXTRACT: note_on channel=1 note=62 velocity=0 time=0
EXTRACT: note_on channel=1 note=55 velocity=0 time=0
EXTRACT: note_on channel=1 note=48 velocity=0 time=0
EXTRACT: note_on channel=1 note=59 velocity=110 time=0.004098358333333333
EXTRACT: note_on channel=1 note=62 velocity=98 time=0
EXTRACT: note_on channel=1 note=55 velocity=105 time=0
EXTRACT: note_on channel=1 note=48 velocity=108 time=0
EXTRACT: note_on channel=9 note=40 velocity=0 time=0.02868850833333333
EXTRACT: note_on channel=9 note=42 velocity=0 time=0
EXTRACT: note_on channel=2 note=59 velocity=0 time=0.20491791666666664
EXTRACT: note_on channel=2 note=62 velocity=0 time=0
EXTRACT: note_on channel=2 note=55 velocity=0 time=0
EXTRACT: note_on channel=2 note=48 velocity=0 time=0
EXTRACT: note_on channel=9 note=36 velocity=110 time=0
EXTRACT: note_on channel=9 note=42 velocity=49 time=0
EXTRACT: note_on channel=2 note=59 velocity=86 time=0.004098358333333333
EXTRACT: note_on channel=2 note=62 velocity=109 time=0
EXTRACT: note_on channel=2 note=55 velocity=100 time=0
EXTRACT: note_on channel=0 note=36 velocity=0 time=0.004098358333333333
EXTRACT: pitchwheel channel=0 pitch=0 time=0
EXTRACT: note_on channel=0 note=36 velocity=103 time=0
EXTRACT: note_on channel=1 note=59 velocity=0 time=0
EXTRACT: note_on channel=1 note=62 velocity=0 time=0
EXTRACT: note_on channel=1 note=55 velocity=0 time=0
EXTRACT: note_on channel=1 note=48 velocity=0 time=0
EXTRACT: note_on channel=1 note=59 velocity=101 time=0.004098358333333333
EXTRACT: note_on channel=1 note=62 velocity=79 time=0
EXTRACT: note_on channel=1 note=55 velocity=74 time=0
EXTRACT: note_on channel=9 note=36 velocity=0 time=0.02868850833333333
EXTRACT: note_on channel=9 note=42 velocity=0 time=0
EXTRACT: note_on channel=9 note=42 velocity=66 time=0.20491791666666664
EXTRACT: note_on channel=5 note=67 velocity=0 time=0.0061475374999999995
EXTRACT: note_on channel=5 note=64 velocity=0 time=0
EXTRACT: note_on channel=9 note=42 velocity=0 time=0.03483604583333333
EXTRACT: note_on channel=2 note=59 velocity=0 time=0.20491791666666664
EXTRACT: note_on channel=2 note=62 velocity=0 time=0
EXTRACT: note_on channel=2 note=55 velocity=0 time=0
EXTRACT: note_on channel=9 note=36 velocity=120 time=0
EXTRACT: note_on channel=9 note=42 velocity=44 time=0
EXTRACT: note_on channel=2 note=59 velocity=90 time=0.004098358333333333
EXTRACT: note_on channel=2 note=64 velocity=105 time=0
EXTRACT: note_on channel=2 note=55 velocity=85 time=0
EXTRACT: note_on channel=0 note=36 velocity=0 time=0.004098358333333333
EXTRACT: note_on channel=1 note=59 velocity=0 time=0
EXTRACT: note_on channel=1 note=62 velocity=0 time=0
EXTRACT: note_on channel=1 note=55 velocity=0 time=0
EXTRACT: note_on channel=1 note=59 velocity=85 time=0.004098358333333333
EXTRACT: note_on channel=1 note=64 velocity=104 time=0
EXTRACT: note_on channel=1 note=55 velocity=115 time=0
EXTRACT: note_on channel=9 note=36 velocity=0 time=0.02868850833333333
EXTRACT: note_on channel=9 note=42 velocity=0 time=0
EXTRACT: note_on channel=2 note=59 velocity=0 time=0.20491791666666664
EXTRACT: note_on channel=2 note=64 velocity=0 time=0
EXTRACT: note_on channel=2 note=55 velocity=0 time=0
EXTRACT: note_on channel=9 note=40 velocity=127 time=0
EXTRACT: note_on channel=9 note=42 velocity=68 time=0
EXTRACT: note_on channel=2 note=59 velocity=95 time=0.004098358333333333
EXTRACT: note_on channel=2 note=64 velocity=103 time=0
EXTRACT: note_on channel=2 note=55 velocity=115 time=0
EXTRACT: note_on channel=2 note=48 velocity=95 time=0
EXTRACT: note_on channel=0 note=36 velocity=112 time=0.004098358333333333
EXTRACT: note_on channel=1 note=59 velocity=0 time=0
EXTRACT: note_on channel=1 note=64 velocity=0 time=0
EXTRACT: note_on channel=1 note=55 velocity=0 time=0
EXTRACT: note_on channel=1 note=59 velocity=88 time=0.004098358333333333
EXTRACT: note_on channel=1 note=64 velocity=86 time=0
EXTRACT: note_on channel=1 note=55 velocity=83 time=0
EXTRACT: note_on channel=1 note=48 velocity=104 time=0
EXTRACT: note_on channel=9 note=40 velocity=0 time=0.02868850833333333
EXTRACT: note_on channel=9 note=42 velocity=0 time=0
EXTRACT: note_on channel=2 note=59 velocity=0 time=0.20491791666666664
EXTRACT: note_on channel=2 note=64 velocity=0 time=0
EXTRACT: note_on channel=2 note=55 velocity=0 time=0
EXTRACT: note_on channel=2 note=48 velocity=0 time=0
EXTRACT: note_on channel=9 note=42 velocity=64 time=0
EXTRACT: note_on channel=0 note=36 velocity=0 time=0.004098358333333333
EXTRACT: note_on channel=2 note=59 velocity=113 time=0
EXTRACT: note_on channel=2 note=64 velocity=105 time=0
EXTRACT: note_on channel=2 note=55 velocity=103 time=0
EXTRACT: note_on channel=0 note=43 velocity=104 time=0.004098358333333333
EXTRACT: note_on channel=1 note=59 velocity=0 time=0
EXTRACT: note_on channel=1 note=64 velocity=0 time=0
EXTRACT: note_on channel=1 note=55 velocity=0 time=0
EXTRACT: note_on channel=1 note=48 velocity=0 time=0
EXTRACT: note_on channel=1 note=59 velocity=96 time=0.004098358333333333
EXTRACT: note_on channel=1 note=64 velocity=60 time=0
EXTRACT: note_on channel=1 note=55 velocity=96 time=0
EXTRACT: note_on channel=9 note=42 velocity=0 time=0.02868850833333333
EXTRACT: note_on channel=2 note=59 velocity=0 time=0.20491791666666664
EXTRACT: note_on channel=2 note=64 velocity=0 time=0
EXTRACT: note_on channel=2 note=55 velocity=0 time=0
EXTRACT: note_on channel=9 note=36 velocity=120 time=0
EXTRACT: note_on channel=9 note=42 velocity=64 time=0
EXTRACT: note_on channel=2 note=59 velocity=92 time=0.004098358333333333
EXTRACT: note_on channel=2 note=64 velocity=102 time=0
EXTRACT: note_on channel=2 note=55 velocity=117 time=0
EXTRACT: note_on channel=2 note=48 velocity=117 time=0
EXTRACT: note_on channel=1 note=59 velocity=0 time=0.004098358333333333
EXTRACT: note_on channel=1 note=64 velocity=0 time=0
EXTRACT: note_on channel=1 note=55 velocity=0 time=0
EXTRACT: note_on channel=1 note=59 velocity=107 time=0.004098358333333333
EXTRACT: note_on channel=1 note=64 velocity=110 time=0
EXTRACT: note_on channel=1 note=55 velocity=112 time=0
EXTRACT: note_on channel=1 note=48 velocity=116 time=0
EXTRACT: note_on channel=9 note=36 velocity=0 time=0.02868850833333333
EXTRACT: note_on channel=9 note=42 velocity=0 time=0
EXTRACT: note_on channel=2 note=59 velocity=0 time=0.20491791666666664
EXTRACT: note_on channel=2 note=64 velocity=0 time=0
EXTRACT: note_on channel=2 note=55 velocity=0 time=0
EXTRACT: note_on channel=2 note=48 velocity=0 time=0
EXTRACT: note_on channel=9 note=36 velocity=110 time=0
EXTRACT: note_on channel=9 note=42 velocity=45 time=0
EXTRACT: note_on channel=2 note=59 velocity=96 time=0.004098358333333333
EXTRACT: note_on channel=2 note=64 velocity=90 time=0
EXTRACT: note_on channel=2 note=55 velocity=109 time=0
EXTRACT: note_on channel=1 note=59 velocity=0 time=0.004098358333333333
EXTRACT: note_on channel=1 note=64 velocity=0 time=0
EXTRACT: note_on channel=1 note=55 velocity=0 time=0
EXTRACT: note_on channel=1 note=48 velocity=0 time=0
EXTRACT: note_on channel=1 note=59 velocity=79 time=0.004098358333333333
EXTRACT: note_on channel=1 note=64 velocity=94 time=0
EXTRACT: note_on channel=1 note=55 velocity=99 time=0
EXTRACT: note_on channel=9 note=36 velocity=0 time=0.02868850833333333
EXTRACT: note_on channel=9 note=42 velocity=0 time=0
EXTRACT: note_on channel=2 note=59 velocity=0 time=0.20491791666666664
EXTRACT: note_on channel=2 note=64 velocity=0 time=0
EXTRACT: note_on channel=2 note=55 velocity=0 time=0
EXTRACT: note_on channel=9 note=40 velocity=127 time=0
EXTRACT: note_on channel=9 note=42 velocity=59 time=0
EXTRACT: note_on channel=2 note=59 velocity=105 time=0.004098358333333333
EXTRACT: note_on channel=2 note=64 velocity=108 time=0
EXTRACT: note_on channel=2 note=55 velocity=110 time=0
EXTRACT: note_on channel=2 note=48 velocity=97 time=0
EXTRACT: note_on channel=1 note=59 velocity=0 time=0.004098358333333333
EXTRACT: note_on channel=1 note=64 velocity=0 time=0
EXTRACT: note_on channel=1 note=55 velocity=0 time=0
EXTRACT: note_on channel=1 note=59 velocity=80 time=0.004098358333333333
EXTRACT: note_on channel=1 note=64 velocity=95 time=0
EXTRACT: note_on channel=1 note=55 velocity=94 time=0
EXTRACT: note_on channel=1 note=48 velocity=102 time=0
EXTRACT: note_on channel=9 note=40 velocity=0 time=0.02868850833333333
EXTRACT: note_on channel=9 note=42 velocity=0 time=0
EXTRACT: note_on channel=2 note=59 velocity=0 time=0.20491791666666664
EXTRACT: note_on channel=2 note=64 velocity=0 time=0
EXTRACT: note_on channel=2 note=55 velocity=0 time=0
EXTRACT: note_on channel=2 note=48 velocity=0 time=0
EXTRACT: note_on channel=9 note=42 velocity=50 time=0
EXTRACT: note_on channel=2 note=59 velocity=91 time=0.004098358333333333
EXTRACT: note_on channel=2 note=64 velocity=89 time=0
EXTRACT: note_on channel=2 note=55 velocity=102 time=0
EXTRACT: note_on channel=1 note=59 velocity=0 time=0.004098358333333333
EXTRACT: note_on channel=1 note=64 velocity=0 time=0
EXTRACT: note_on channel=1 note=55 velocity=0 time=0
EXTRACT: note_on channel=1 note=48 velocity=0 time=0
EXTRACT: note_on channel=1 note=59 velocity=98 time=0.004098358333333333
EXTRACT: note_on channel=1 note=64 velocity=91 time=0
EXTRACT: note_on channel=1 note=55 velocity=62 time=0
EXTRACT: note_on channel=9 note=42 velocity=0 time=0.02868850833333333
EXTRACT: note_on channel=2 note=59 velocity=0 time=0.20491791666666664
EXTRACT: note_on channel=2 note=64 velocity=0 time=0
EXTRACT: note_on channel=2 note=55 velocity=0 time=0
EXTRACT: note_on channel=9 note=42 velocity=68 time=0
EXTRACT: note_on channel=9 note=36 velocity=120 time=0
EXTRACT: note_on channel=0 note=43 velocity=0 time=0.004098358333333333
EXTRACT: note_on channel=2 note=50 velocity=99 time=0
EXTRACT: note_on channel=0 note=38 velocity=109 time=0
EXTRACT: note_on channel=1 note=59 velocity=0 time=0
EXTRACT: note_on channel=1 note=64 velocity=0 time=0
EXTRACT: note_on channel=1 note=55 velocity=0 time=0
EXTRACT: note_on channel=4 note=76 velocity=0 time=0.0020161270833333332
EXTRACT: note_on channel=4 note=83 velocity=0 time=0
EXTRACT: note_on channel=4 note=79 velocity=0 time=0
EXTRACT: note_on channel=4 note=72 velocity=0 time=0
EXTRACT: note_on channel=4 note=69 velocity=73 time=0
EXTRACT: note_on channel=4 note=74 velocity=91 time=0
EXTRACT: note_on channel=4 note=77 velocity=89 time=0
EXTRACT: note_on channel=1 note=50 velocity=84 time=0.00604838125
EXTRACT: note_on channel=9 note=42 velocity=0 time=0.05645155833333333
EXTRACT: note_on channel=9 note=36 velocity=0 time=0
EXTRACT: note_on channel=2 note=57 velocity=110 time=0.16935467499999998
EXTRACT: note_on channel=1 note=57 velocity=88 time=0.016129016666666666
EXTRACT: note_on channel=2 note=50 velocity=0 time=0.20967721666666667
EXTRACT: note_on channel=9 note=42 velocity=59 time=0.008064508333333333
EXTRACT: note_on channel=9 note=36 velocity=120 time=0
EXTRACT: note_on channel=0 note=38 velocity=0 time=0.008064508333333333
EXTRACT: note_on channel=1 note=50 velocity=0 time=0
EXTRACT: note_on channel=2 note=62 velocity=101 time=0
EXTRACT: note_on channel=0 note=33 velocity=111 time=0.008064508333333333
EXTRACT: note_on channel=1 note=62 velocity=64 time=0.008064508333333333
EXTRACT: note_on channel=9 note=42 velocity=0 time=0.05645155833333333
EXTRACT: note_on channel=9 note=36 velocity=0 time=0
EXTRACT: note_on channel=2 note=57 velocity=0 time=0.15322565833333332
EXTRACT: note_on channel=1 note=57 velocity=0 time=0.016129016666666666
EXTRACT: note_on channel=2 note=65 velocity=101 time=0
EXTRACT: note_on channel=1 note=65 velocity=63 time=0.016129016666666666
EXTRACT: note_on channel=2 note=62 velocity=0 time=0.20967721666666667
EXTRACT: note_on channel=9 note=42 velocity=66 time=0.008064508333333333
EXTRACT: note_on channel=9 note=42 velocity=69 time=0
EXTRACT: note_on channel=9 note=40 velocity=127 time=0
EXTRACT: note_on channel=1 note=62 velocity=0 time=0.008064508333333333
EXTRACT: note_on channel=5 note=65 velocity=43 time=0.0040322541666666665
EXTRACT: note_on channel=5 note=62 velocity=96 time=0
EXTRACT: note_on channel=0 note=33 velocity=0 time=0.0040322541666666665
EXTRACT: note_on channel=9 note=42 velocity=0 time=0.06451606666666666
EXTRACT: note_on channel=9 note=42 velocity=0 time=0
EXTRACT: note_on channel=9 note=40 velocity=0 time=0
EXTRACT: note_on channel=2 note=62 velocity=114 time=0.16935467499999998
EXTRACT: note_on channel=0 note=33 velocity=123 time=0.008064508333333333
EXTRACT: note_on channel=1 note=62 velocity=63 time=0.008064508333333333
EXTRACT: note_on channel=9 note=42 velocity=69 time=0.217741725
EXTRACT: note_on channel=9 note=42 velocity=64 time=0
EXTRACT: note_on channel=5 note=65 velocity=0 time=0.0040322541666666665
EXTRACT: note_on channel=5 note=62 velocity=0 time=0
EXTRACT: note_on channel=0 note=33 velocity=0 time=0.0040322541666666665
EXTRACT: note_on channel=2 note=57 velocity=115 time=0
EXTRACT: note_on channel=5 note=65 velocity=62 time=0.0040322541666666665
EXTRACT: note_on channel=5 note=62 velocity=90 time=0
EXTRACT: note_on channel=0 note=36 velocity=127 time=0.0040322541666666665
EXTRACT: note_on channel=1 note=57 velocity=66 time=0.008064508333333333
EXTRACT: note_on channel=9 note=42 velocity=0 time=0.05645155833333333
EXTRACT: note_on channel=9 note=42 velocity=0 time=0
EXTRACT: note_on channel=2 note=65 velocity=0 time=0.15322565833333332
EXTRACT: note_on channel=2 note=62 velocity=0 time=0
EXTRACT: note_on channel=9 note=36 velocity=120 time=0.008064508333333333
EXTRACT: note_on channel=5 note=65 velocity=0 time=0.0040322541666666665
EXTRACT: note_on channel=5 note=62 velocity=0 time=0
EXTRACT: note_on channel=0 note=36 velocity=0 time=0.0040322541666666665
EXTRACT: note_on channel=1 note=65 velocity=0 time=0
EXTRACT: note_on channel=1 note=62 velocity=0 time=0
EXTRACT: note_on channel=2 note=65 velocity=106 time=0
EXTRACT: note_on channel=5 note=64 velocity=59 time=0.0040322541666666665
EXTRACT: note_on channel=5 note=61 velocity=101 time=0
EXTRACT: note_on channel=0 note=33 velocity=115 time=0.0040322541666666665
EXTRACT: note_on channel=1 note=65 velocity=77 time=0.008064508333333333
EXTRACT: note_on channel=9 note=36 velocity=0 time=0.05645155833333333
EXTRACT: note_on channel=2 note=57 velocity=0 time=0.15322565833333332
EXTRACT: note_on channel=9 note=42 velocity=58 time=0.008064508333333333
EXTRACT: note_on channel=0 note=33 velocity=0 time=0.008064508333333333
EXTRACT: note_on channel=1 note=57 velocity=0 time=0
EXTRACT: note_on channel=2 note=49 velocity=107 time=0
EXTRACT: note_on channel=0 note=37 velocity=125 time=0.008064508333333333
EXTRACT: note_on channel=4 note=74 velocity=0 time=0.0020161270833333332
EXTRACT: note_on channel=4 note=73 velocity=91 time=0
EXTRACT: note_on channel=1 note=49 velocity=76 time=0.00604838125
EXTRACT: note_on channel=9 note=42 velocity=0 time=0.05645155833333333
EXTRACT: note_on channel=2 note=65 velocity=0 time=0.15322565833333332
EXTRACT: note_on channel=9 note=36 velocity=100 time=0.008064508333333333
EXTRACT: note_on channel=1 note=65 velocity=0 time=0.008064508333333333
EXTRACT: note_on channel=2 note=57 velocity=104 time=0
EXTRACT: note_on channel=1 note=57 velocity=81 time=0.016129016666666666
EXTRACT: note_on channel=9 note=36 velocity=0 time=0.05645155833333333
EXTRACT: note_on channel=2 note=49 velocity=0 time=0.15322565833333332
EXTRACT: note_on channel=9 note=42 velocity=69 time=0.008064508333333333
EXTRACT: note_on channel=9 note=36 velocity=110 time=0
EXTRACT: note_on channel=5 note=64 velocity=0 time=0.0040322541666666665
EXTRACT: note_on channel=5 note=61 velocity=0 time=0
EXTRACT: note_on channel=0 note=37 velocity=0 time=0.0040322541666666665
EXTRACT: note_on channel=1 note=49 velocity=0 time=0
EXTRACT: note_on channel=2 note=61 velocity=98 time=0
EXTRACT: note_on channel=5 note=64 velocity=57 time=0.0040322541666666665
EXTRACT: note_on channel=5 note=61 velocity=109 time=0
EXTRACT: note_on channel=0 note=33 velocity=122 time=0.0040322541666666665
EXTRACT: note_on channel=1 note=61 velocity=88 time=0.008064508333333333
EXTRACT: note_on channel=9 note=42 velocity=0 time=0.05645155833333333
EXTRACT: note_on channel=9 note=36 velocity=0 time=0
EXTRACT: note_on channel=2 note=57 velocity=0 time=0.15322565833333332
EXTRACT: note_on channel=5 note=64 velocity=0 time=0.0120967625
EXTRACT: note_on channel=5 note=61 velocity=0 time=0
EXTRACT: note_on channel=1 note=57 velocity=0 time=0.0040322541666666665
EXTRACT: note_on channel=2 note=65 velocity=85 time=0
EXTRACT: note_on channel=5 note=68 velocity=62 time=0.0040322541666666665
EXTRACT: note_on channel=5 note=65 velocity=101 time=0
EXTRACT: note_on channel=1 note=65 velocity=83 time=0.0120967625
EXTRACT: note_on channel=2 note=61 velocity=0 time=0.20967721666666667
EXTRACT: note_on channel=9 note=42 velocity=68 time=0.008064508333333333
EXTRACT: note_on channel=9 note=40 velocity=127 time=0
EXTRACT: note_on channel=1 note=61 velocity=0 time=0.008064508333333333
EXTRACT: note_on channel=5 note=68 velocity=0 time=0.0040322541666666665
EXTRACT: note_on channel=5 note=65 velocity=0 time=0
EXTRACT: note_on channel=0 note=33 velocity=0 time=0.0040322541666666665
EXTRACT: note_on channel=9 note=42 velocity=0 time=0.06451606666666666
EXTRACT: note_on channel=9 note=40 velocity=0 time=0
EXTRACT: note_on channel=5 note=64 velocity=52 time=0.17338692916666665
EXTRACT: note_on channel=5 note=61 velocity=116 time=0
EXTRACT: note_on channel=0 note=33 velocity=116 time=0.0040322541666666665
EXTRACT: note_on channel=9 note=42 velocity=58 time=0.22580623333333333
EXTRACT: note_on channel=0 note=33 velocity=0 time=0.008064508333333333
EXTRACT: note_on channel=0 note=37 velocity=103 time=0.008064508333333333
EXTRACT: note_on channel=9 note=42 velocity=0 time=0.06451606666666666
EXTRACT: note_on channel=9 note=36 velocity=120 time=0.16129016666666665
EXTRACT: note_on channel=0 note=37 velocity=0 time=0.008064508333333333
EXTRACT: note_on channel=0 note=33 velocity=103 time=0.008064508333333333
EXTRACT: note_on channel=9 note=36 velocity=0 time=0.06451606666666666
EXTRACT: note_on channel=9 note=42 velocity=63 time=0.16129016666666665
EXTRACT: note_on channel=5 note=64 velocity=0 time=0.0040322541666666665
EXTRACT: note_on channel=5 note=61 velocity=0 time=0
EXTRACT: note_on channel=0 note=33 velocity=0 time=0.0040322541666666665
EXTRACT: note_on channel=2 note=48 velocity=94 time=0
EXTRACT: note_on channel=5 note=65 velocity=43 time=0.0040322541666666665
EXTRACT: note_on channel=5 note=60 velocity=89 time=0
EXTRACT: note_on channel=0 note=36 velocity=120 time=0.0040322541666666665
EXTRACT: note_on channel=4 note=73 velocity=0 time=0.0020161270833333332
EXTRACT: note_on channel=4 note=72 velocity=82 time=0
EXTRACT: note_on channel=1 note=48 velocity=84 time=0.00604838125
EXTRACT: note_on channel=9 note=42 velocity=0 time=0.05645155833333333
EXTRACT: note_on channel=2 note=57 velocity=96 time=0.16935467499999998
EXTRACT: note_on channel=1 note=57 velocity=76 time=0.016129016666666666
EXTRACT: note_on channel=2 note=48 velocity=0 time=0.20967721666666667
EXTRACT: note_on channel=9 note=42 velocity=59 time=0.008064508333333333
EXTRACT: note_on channel=9 note=36 velocity=120 time=0
EXTRACT: note_on channel=5 note=65 velocity=0 time=0.0040322541666666665
EXTRACT: note_on channel=5 note=60 velocity=0 time=0
EXTRACT: note_on channel=0 note=36 velocity=0 time=0.0040322541666666665
EXTRACT: note_on channel=1 note=48 velocity=0 time=0
EXTRACT: note_on channel=2 note=60 velocity=108 time=0
EXTRACT: note_on channel=5 note=65 velocity=57 time=0.0040322541666666665
EXTRACT: note_on channel=5 note=60 velocity=86 time=0
EXTRACT: note_on channel=0 note=33 velocity=114 time=0.0040322541666666665
EXTRACT: note_on channel=1 note=60 velocity=73 time=0.008064508333333333
EXTRACT: note_on channel=9 note=42 velocity=0 time=0.05645155833333333
EXTRACT: note_on channel=9 note=36 velocity=0 time=0
EXTRACT: note_on channel=2 note=57 velocity=0 time=0.15322565833333332
EXTRACT: note_on channel=5 note=65 velocity=0 time=0.0120967625
EXTRACT: note_on channel=5 note=60 velocity=0 time=0
EXTRACT: note_on channel=1 note=57 velocity=0 time=0.0040322541666666665
EXTRACT: note_on channel=2 note=65 velocity=111 time=0
EXTRACT: note_on channel=5 note=69 velocity=47 time=0.0040322541666666665
EXTRACT: note_on channel=5 note=65 velocity=92 time=0
EXTRACT: note_on channel=1 note=65 velocity=75 time=0.0120967625
EXTRACT: note_on channel=2 note=60 velocity=0 time=0.20967721666666667
EXTRACT: note_on channel=9 note=42 velocity=59 time=0.008064508333333333
EXTRACT: note_on channel=9 note=42 velocity=59 time=0
EXTRACT: note_on channel=9 note=40 velocity=127 time=0
EXTRACT: note_on channel=1 note=60 velocity=0 time=0.008064508333333333
EXTRACT: note_on channel=0 note=33 velocity=0 time=0.008064508333333333
EXTRACT: note_on channel=9 note=42 velocity=0 time=0.06451606666666666
EXTRACT: note_on channel=9 note=42 velocity=0 time=0
EXTRACT: note_on channel=9 note=40 velocity=0 time=0
EXTRACT: note_on channel=2 note=65 velocity=0 time=0.15322565833333332
EXTRACT: note_on channel=1 note=65 velocity=0 time=0.016129016666666666
EXTRACT: note_on channel=0 note=33 velocity=126 time=0.008064508333333333
EXTRACT: note_on channel=9 note=42 velocity=60 time=0.22580623333333333
EXTRACT: note_on channel=9 note=42 velocity=58 time=0
EXTRACT: note_on channel=5 note=69 velocity=0 time=0.0040322541666666665
EXTRACT: note_on channel=5 note=65 velocity=0 time=0
EXTRACT: note_on channel=0 note=33 velocity=0 time=0.0040322541666666665
EXTRACT: note_on channel=5 note=65 velocity=45 time=0.0040322541666666665
EXTRACT: note_on channel=5 note=60 velocity=100 time=0
EXTRACT: note_on channel=0 note=36 velocity=123 time=0.0040322541666666665
EXTRACT: note_on channel=9 note=42 velocity=0 time=0.06451606666666666
EXTRACT: note_on channel=9 note=42 velocity=0 time=0
EXTRACT: note_on channel=9 note=36 velocity=120 time=0.16129016666666665
EXTRACT: note_on channel=0 note=36 velocity=0 time=0.008064508333333333
EXTRACT: note_on channel=0 note=33 velocity=119 time=0.008064508333333333
EXTRACT: note_on channel=9 note=36 velocity=0 time=0.06451606666666666
EXTRACT: note_on channel=9 note=42 velocity=63 time=0.16129016666666665
EXTRACT: note_on channel=5 note=65 velocity=0 time=0.0040322541666666665
EXTRACT: note_on channel=5 note=60 velocity=0 time=0
EXTRACT: note_on channel=0 note=33 velocity=0 time=0.0040322541666666665
EXTRACT: note_on channel=2 note=47 velocity=98 time=0
EXTRACT: note_on channel=5 note=62 velocity=53 time=0.0040322541666666665
EXTRACT: note_on channel=5 note=59 velocity=110 time=0
EXTRACT: note_on channel=0 note=35 velocity=106 time=0.0040322541666666665
EXTRACT: note_on channel=4 note=72 velocity=0 time=0.0020161270833333332
EXTRACT: note_on channel=4 note=71 velocity=91 time=0
EXTRACT: note_on channel=1 note=47 velocity=74 time=0.00604838125
EXTRACT: note_on channel=9 note=42 velocity=0 time=0.05645155833333333
EXTRACT: note_on channel=9 note=36 velocity=100 time=0.16129016666666665
EXTRACT: note_on channel=2 note=57 velocity=111 time=0.008064508333333333
EXTRACT: note_on channel=1 note=57 velocity=75 time=0.016129016666666666
EXTRACT: note_on channel=9 note=36 velocity=0 time=0.05645155833333333
EXTRACT: note_on channel=2 note=47 velocity=0 time=0.15322565833333332
EXTRACT: note_on channel=9 note=42 velocity=65 time=0.008064508333333333
EXTRACT: note_on channel=9 note=36 velocity=110 time=0
EXTRACT: note_on channel=0 note=35 velocity=0 time=0.008064508333333333
EXTRACT: note_on channel=1 note=47 velocity=0 time=0
EXTRACT: note_on channel=2 note=59 velocity=111 time=0
EXTRACT: note_on channel=0 note=33 velocity=114 time=0.008064508333333333
EXTRACT: note_on channel=1 note=59 velocity=83 time=0.008064508333333333
EXTRACT: note_on channel=9 note=42 velocity=0 time=0.05645155833333333
EXTRACT: note_on channel=9 note=36 velocity=0 time=0
EXTRACT: note_on channel=2 note=57 velocity=0 time=0.15322565833333332
EXTRACT: note_on channel=1 note=57 velocity=0 time=0.016129016666666666
EXTRACT: note_on channel=9 note=65 velocity=100 time=0.23387074166666666
EXTRACT: note_on channel=9 note=42 velocity=68 time=0
EXTRACT: note_on channel=9 note=40 velocity=127 time=0
EXTRACT: note_on channel=0 note=33 velocity=0 time=0.016129016666666666
EXTRACT: note_on channel=9 note=65 velocity=0 time=0.06451606666666666
EXTRACT: note_on channel=9 note=42 velocity=0 time=0
EXTRACT: note_on channel=9 note=40 velocity=0 time=0
EXTRACT: note_on channel=2 note=65 velocity=0 time=0.15322565833333332
EXTRACT: note_on channel=9 note=36 velocity=120 time=0.008064508333333333
EXTRACT: note_on channel=1 note=65 velocity=0 time=0.008064508333333333
EXTRACT: note_on channel=9 note=36 velocity=0 time=0.072580575
EXTRACT: note_on channel=9 note=42 velocity=63 time=0.16129016666666665
EXTRACT: note_on channel=9 note=42 velocity=0 time=0.08064508333333333
EXTRACT: note_on channel=9 note=42 velocity=68 time=0.40322541666666667
EXTRACT: note_on channel=9 note=36 velocity=120 time=0
EXTRACT: note_on channel=5 note=62 velocity=0 time=0.0040322541666666665
EXTRACT: note_on channel=5 note=59 velocity=0 time=0
EXTRACT: note_on channel=2 note=50 velocity=101 time=0.0040322541666666665
EXTRACT: note_on channel=5 note=65 velocity=63 time=0.0040322541666666665
EXTRACT: note_on channel=5 note=62 velocity=113 time=0
EXTRACT: note_on channel=0 note=38 velocity=107 time=0.0040322541666666665
EXTRACT: note_on channel=4 note=69 velocity=0 time=0.0020161270833333332
EXTRACT: note_on channel=4 note=77 velocity=0 time=0
EXTRACT: note_on channel=4 note=71 velocity=0 time=0
EXTRACT: note_on channel=4 note=69 velocity=80 time=0
EXTRACT: note_on channel=4 note=74 velocity=85 time=0
EXTRACT: note_on channel=4 note=77 velocity=72 time=0
EXTRACT: note_on channel=1 note=50 velocity=92 time=0.00604838125
EXTRACT: note_on channel=9 note=42 velocity=0 time=0.05645155833333333
EXTRACT: note_on channel=9 note=36 velocity=0 time=0
EXTRACT: note_on channel=2 note=57 velocity=94 time=0.16935467499999998
EXTRACT: note_on channel=1 note=57 velocity=67 time=0.016129016666666666
EXTRACT: note_on channel=2 note=50 velocity=0 time=0.20967721666666667
EXTRACT: note_on channel=9 note=42 velocity=66 time=0.008064508333333333
EXTRACT: note_on channel=9 note=36 velocity=120 time=0
EXTRACT: note_on channel=5 note=65 velocity=0 time=0.0040322541666666665
EXTRACT: note_on channel=5 note=62 velocity=0 time=0
EXTRACT: note_on channel=0 note=38 velocity=0 time=0.0040322541666666665
EXTRACT: note_on channel=1 note=50 velocity=0 time=0
EXTRACT: note_on channel=2 note=62 velocity=115 time=0
EXTRACT: note_on channel=5 note=65 velocity=46 time=0.0040322541666666665
EXTRACT: note_on channel=5 note=62 velocity=90 time=0
EXTRACT: note_on channel=0 note=33 velocity=119 time=0.0040322541666666665
EXTRACT: note_on channel=1 note=62 velocity=81 time=0.008064508333333333
EXTRACT: note_on channel=9 note=42 velocity=0 time=0.05645155833333333
EXTRACT: note_on channel=9 note=36 velocity=0 time=0
EXTRACT: note_on channel=2 note=57 velocity=0 time=0.15322565833333332
EXTRACT: note_on channel=5 note=65 velocity=0 time=0.0120967625
EXTRACT: note_on channel=5 note=62 velocity=0 time=0
EXTRACT: note_on channel=1 note=57 velocity=0 time=0.0040322541666666665
EXTRACT: note_on channel=2 note=65 velocity=101 time=0
EXTRACT: note_on channel=5 note=65 velocity=67 time=0.0040322541666666665
EXTRACT: note_on channel=5 note=62 velocity=92 time=0
EXTRACT: note_on channel=1 note=65 velocity=76 time=0.0120967625
EXTRACT: note_on channel=2 note=62 velocity=0 time=0.20967721666666667
EXTRACT: note_on channel=9 note=42 velocity=65 time=0.008064508333333333
EXTRACT: note_on channel=9 note=42 velocity=68 time=0
EXTRACT: note_on channel=9 note=40 velocity=127 time=0
EXTRACT: note_on channel=1 note=62 velocity=0 time=0.008064508333333333
EXTRACT: note_on channel=0 note=33 velocity=0 time=0.008064508333333333
EXTRACT: note_on channel=9 note=42 velocity=0 time=0.06451606666666666
EXTRACT: note_on channel=9 note=42 velocity=0 time=0
EXTRACT: note_on channel=9 note=40 velocity=0 time=0
EXTRACT: note_on channel=5 note=65 velocity=0 time=0.16532242083333332
EXTRACT: note_on channel=5 note=62 velocity=0 time=0
EXTRACT: note_on channel=2 note=62 velocity=116 time=0.0040322541666666665
EXTRACT: note_on channel=5 note=65 velocity=50 time=0.0040322541666666665
EXTRACT: note_on channel=5 note=62 velocity=117 time=0
EXTRACT: note_on channel=0 note=33 velocity=119 time=0.0040322541666666665
EXTRACT: note_on channel=1 note=62 velocity=85 time=0.008064508333333333
EXTRACT: note_on channel=2 note=59 velocity=0 time=0.20967721666666667
EXTRACT: note_on channel=9 note=42 velocity=62 time=0.008064508333333333
EXTRACT: note_on channel=9 note=42 velocity=57 time=0
EXTRACT: note_on channel=0 note=33 velocity=0 time=0.008064508333333333
EXTRACT: note_on channel=1 note=59 velocity=0 time=0
EXTRACT: note_on channel=2 note=57 velocity=102 time=0
EXTRACT: note_on channel=5 note=65 velocity=0 time=0.0040322541666666665
EXTRACT: note_on channel=5 note=62 velocity=0 time=0
EXTRACT: note_on channel=0 note=36 velocity=125 time=0.0040322541666666665
EXTRACT: note_on channel=1 note=57 velocity=93 time=0.008064508333333333
EXTRACT: note_on channel=9 note=42 velocity=0 time=0.05645155833333333
EXTRACT: note_on channel=9 note=42 velocity=0 time=0
EXTRACT: note_on channel=2 note=65 velocity=0 time=0.15322565833333332
EXTRACT: note_on channel=2 note=62 velocity=0 time=0
EXTRACT: note_on channel=9 note=36 velocity=120 time=0.008064508333333333
EXTRACT: note_on channel=0 note=36 velocity=0 time=0.008064508333333333
EXTRACT: note_on channel=1 note=65 velocity=0 time=0
EXTRACT: note_on channel=1 note=62 velocity=0 time=0
EXTRACT: note_on channel=2 note=65 velocity=115 time=0
EXTRACT: note_on channel=5 note=64 velocity=67 time=0.0040322541666666665
EXTRACT: note_on channel=5 note=61 velocity=115 time=0
EXTRACT: note_on channel=0 note=33 velocity=115 time=0.0040322541666666665
EXTRACT: note_on channel=1 note=65 velocity=76 time=0.008064508333333333
EXTRACT: note_on channel=9 note=36 velocity=0 time=0.05645155833333333
EXTRACT: note_on channel=2 note=57 velocity=0 time=0.15322565833333332
EXTRACT: note_on channel=9 note=42 velocity=64 time=0.008064508333333333
EXTRACT: note_on channel=0 note=33 velocity=0 time=0.008064508333333333
EXTRACT: note_on channel=1 note=57 velocity=0 time=0
EXTRACT: note_on channel=2 note=49 velocity=95 time=0
EXTRACT: note_on channel=0 note=37 velocity=120 time=0.008064508333333333
EXTRACT: note_on channel=4 note=74 velocity=0 time=0.0020161270833333332
EXTRACT: note_on channel=4 note=73 velocity=75 time=0
EXTRACT: note_on channel=1 note=49 velocity=70 time=0.00604838125
EXTRACT: note_on channel=9 note=42 velocity=0 time=0.05645155833333333
EXTRACT: note_on channel=2 note=65 velocity=0 time=0.15322565833333332
EXTRACT: note_on channel=9 note=36 velocity=100 time=0.008064508333333333
EXTRACT: note_on channel=1 note=65 velocity=0 time=0.008064508333333333
EXTRACT: note_on channel=2 note=57 velocity=104 time=0
EXTRACT: note_on channel=5 note=64 velocity=0 time=0.0040322541666666665
EXTRACT: note_on channel=5 note=61 velocity=0 time=0
EXTRACT: note_on channel=1 note=57 velocity=62 time=0.0120967625
EXTRACT: note_on channel=9 note=36 velocity=0 time=0.05645155833333333
EXTRACT: note_on channel=2 note=49 velocity=0 time=0.15322565833333332
EXTRACT: note_on channel=9 note=42 velocity=68 time=0.008064508333333333
EXTRACT: note_on channel=9 note=36 velocity=110 time=0
EXTRACT: note_on channel=0 note=37 velocity=0 time=0.008064508333333333
EXTRACT: note_on channel=1 note=49 velocity=0 time=0
EXTRACT: note_on channel=2 note=61 velocity=86 time=0
EXTRACT: note_on channel=5 note=64 velocity=42 time=0.0040322541666666665
EXTRACT: note_on channel=5 note=61 velocity=107 time=0
EXTRACT: note_on channel=0 note=33 velocity=103 time=0.0040322541666666665
EXTRACT: note_on channel=1 note=61 velocity=72 time=0.008064508333333333
EXTRACT: note_on channel=9 note=42 velocity=0 time=0.05645155833333333
EXTRACT: note_on channel=9 note=36 velocity=0 time=0
EXTRACT: note_on channel=2 note=57 velocity=0 time=0.15322565833333332
EXTRACT: note_on channel=5 note=64 velocity=0 time=0.0120967625
EXTRACT: note_on channel=5 note=61 velocity=0 time=0
EXTRACT: note_on channel=1 note=57 velocity=0 time=0.0040322541666666665
EXTRACT: note_on channel=2 note=65 velocity=85 time=0
EXTRACT: note_on channel=5 note=68 velocity=73 time=0.0040322541666666665
EXTRACT: note_on channel=5 note=65 velocity=100 time=0
EXTRACT: note_on channel=1 note=65 velocity=72 time=0.0120967625
EXTRACT: note_on channel=2 note=61 velocity=0 time=0.20967721666666667
EXTRACT: note_on channel=9 note=42 velocity=67 time=0.008064508333333333
EXTRACT: note_on channel=9 note=40 velocity=127 time=0
EXTRACT: note_on channel=1 note=61 velocity=0 time=0.008064508333333333
EXTRACT: note_on channel=5 note=68 velocity=0 time=0.0040322541666666665
EXTRACT: note_on channel=5 note=65 velocity=0 time=0
EXTRACT: note_on channel=0 note=33 velocity=0 time=0.0040322541666666665
EXTRACT: note_on channel=9 note=42 velocity=0 time=0.06451606666666666
EXTRACT: note_on channel=9 note=40 velocity=0 time=0
EXTRACT: note_on channel=5 note=64 velocity=57 time=0.17338692916666665
EXTRACT: note_on channel=5 note=61 velocity=87 time=0
EXTRACT: note_on channel=0 note=33 velocity=107 time=0.0040322541666666665
EXTRACT: note_on channel=9 note=42 velocity=59 time=0.22580623333333333
EXTRACT: note_on channel=0 note=33 velocity=0 time=0.008064508333333333
EXTRACT: note_on channel=0 note=37 velocity=122 time=0.008064508333333333
EXTRACT: note_on channel=9 note=42 velocity=0 time=0.06451606666666666
EXTRACT: note_on channel=9 note=36 velocity=120 time=0.16129016666666665
EXTRACT: note_on channel=0 note=37 velocity=0 time=0.008064508333333333
EXTRACT: note_on channel=0 note=33 velocity=117 time=0.008064508333333333
EXTRACT: note_on channel=9 note=36 velocity=0 time=0.06451606666666666
EXTRACT: note_on channel=9 note=42 velocity=64 time=0.16129016666666665
EXTRACT: note_on channel=5 note=64 velocity=0 time=0.0040322541666666665
EXTRACT: note_on channel=5 note=61 velocity=0 time=0
EXTRACT: note_on channel=0 note=33 velocity=0 time=0.0040322541666666665
EXTRACT: note_on channel=2 note=48 velocity=85 time=0
EXTRACT: note_on channel=5 note=65 velocity=61 time=0.0040322541666666665
EXTRACT: note_on channel=5 note=60 velocity=113 time=0
EXTRACT: note_on channel=0 note=36 velocity=105 time=0.0040322541666666665
EXTRACT: note_on channel=4 note=73 velocity=0 time=0.0020161270833333332
EXTRACT: note_on channel=4 note=72 velocity=95 time=0
EXTRACT: note_on channel=1 note=48 velocity=84 time=0.00604838125
EXTRACT: note_on channel=9 note=42 velocity=0 time=0.05645155833333333
EXTRACT: note_on channel=2 note=57 velocity=106 time=0.16935467499999998
EXTRACT: note_on channel=1 note=57 velocity=81 time=0.016129016666666666
EXTRACT: note_on channel=2 note=48 velocity=0 time=0.20967721666666667
EXTRACT: note_on channel=9 note=42 velocity=68 time=0.008064508333333333
EXTRACT: note_on channel=9 note=36 velocity=120 time=0
EXTRACT: note_on channel=5 note=65 velocity=0 time=0.0040322541666666665
EXTRACT: note_on channel=5 note=60 velocity=0 time=0
EXTRACT: note_on channel=0 note=36 velocity=0 time=0.0040322541666666665
EXTRACT: note_on channel=1 note=48 velocity=0 time=0
EXTRACT: note_on channel=2 note=60 velocity=98 time=0
EXTRACT: note_on channel=5 note=65 velocity=58 time=0.0040322541666666665
EXTRACT: note_on channel=5 note=60 velocity=108 time=0
EXTRACT: note_on channel=0 note=33 velocity=125 time=0.0040322541666666665
EXTRACT: note_on channel=1 note=60 velocity=66 time=0.008064508333333333
EXTRACT: note_on channel=9 note=42 velocity=0 time=0.05645155833333333
EXTRACT: note_on channel=9 note=36 velocity=0 time=0
EXTRACT: note_on channel=2 note=57 velocity=0 time=0.15322565833333332
EXTRACT: note_on channel=5 note=65 velocity=0 time=0.0120967625
EXTRACT: note_on channel=5 note=60 velocity=0 time=0
EXTRACT: note_on channel=1 note=57 velocity=0 time=0.0040322541666666665
EXTRACT: note_on channel=2 note=65 velocity=100 time=0
EXTRACT: note_on channel=5 note=65 velocity=62 time=0.0040322541666666665
EXTRACT: note_on channel=5 note=60 velocity=86 time=0
EXTRACT: note_on channel=1 note=65 velocity=85 time=0.0120967625
EXTRACT: note_on channel=2 note=60 velocity=0 time=0.20967721666666667
EXTRACT: note_on channel=9 note=42 velocity=69 time=0.008064508333333333
EXTRACT: note_on channel=9 note=42 velocity=62 time=0
EXTRACT: note_on channel=9 note=40 velocity=127 time=0
EXTRACT: note_on channel=1 note=60 velocity=0 time=0.008064508333333333
EXTRACT: note_on channel=0 note=33 velocity=0 time=0.008064508333333333
EXTRACT: note_on channel=9 note=42 velocity=0 time=0.06451606666666666
EXTRACT: note_on channel=9 note=42 velocity=0 time=0
EXTRACT: note_on channel=9 note=40 velocity=0 time=0
EXTRACT: note_on channel=2 note=65 velocity=0 time=0.15322565833333332
EXTRACT: note_on channel=1 note=65 velocity=0 time=0.016129016666666666
EXTRACT: note_on channel=0 note=33 velocity=102 time=0.008064508333333333
EXTRACT: note_on channel=9 note=42 velocity=69 time=0.22580623333333333
EXTRACT: note_on channel=9 note=42 velocity=57 time=0
EXTRACT: note_on channel=5 note=65 velocity=0 time=0.0040322541666666665
EXTRACT: note_on channel=5 note=60 velocity=0 time=0
EXTRACT: note_on channel=0 note=33 velocity=0 time=0.0040322541666666665
EXTRACT: note_on channel=5 note=65 velocity=61 time=0.0040322541666666665
EXTRACT: note_on channel=5 note=60 velocity=95 time=0
EXTRACT: note_on channel=0 note=36 velocity=125 time=0.0040322541666666665
EXTRACT: note_on channel=9 note=42 velocity=0 time=0.06451606666666666
EXTRACT: note_on channel=9 note=42 velocity=0 time=0
EXTRACT: note_on channel=9 note=36 velocity=120 time=0.16129016666666665
EXTRACT: note_on channel=0 note=36 velocity=0 time=0.008064508333333333
EXTRACT: note_on channel=0 note=33 velocity=122 time=0.008064508333333333
EXTRACT: note_on channel=9 note=36 velocity=0 time=0.06451606666666666
EXTRACT: note_on channel=9 note=42 velocity=57 time=0.16129016666666665
EXTRACT: note_on channel=5 note=65 velocity=0 time=0.0040322541666666665
EXTRACT: note_on channel=5 note=60 velocity=0 time=0
EXTRACT: note_on channel=0 note=33 velocity=0 time=0.0040322541666666665
EXTRACT: note_on channel=2 note=47 velocity=88 time=0
EXTRACT: note_on channel=5 note=62 velocity=50 time=0.0040322541666666665
EXTRACT: note_on channel=5 note=59 velocity=89 time=0
EXTRACT: note_on channel=0 note=35 velocity=118 time=0.0040322541666666665
EXTRACT: note_on channel=4 note=72 velocity=0 time=0.0020161270833333332
EXTRACT: note_on channel=4 note=71 velocity=86 time=0
EXTRACT: note_on channel=1 note=47 velocity=72 time=0.00604838125
EXTRACT: note_on channel=9 note=42 velocity=0 time=0.05645155833333333
EXTRACT: note_on channel=9 note=36 velocity=100 time=0.16129016666666665
EXTRACT: note_on channel=2 note=57 velocity=97 time=0.008064508333333333
EXTRACT: note_on channel=1 note=57 velocity=76 time=0.016129016666666666
EXTRACT: note_on channel=9 note=36 velocity=0 time=0.05645155833333333
EXTRACT: note_on channel=2 note=47 velocity=0 time=0.15322565833333332
EXTRACT: note_on channel=9 note=42 velocity=62 time=0.008064508333333333
EXTRACT: note_on channel=9 note=36 velocity=110 time=0
EXTRACT: note_on channel=0 note=35 velocity=0 time=0.008064508333333333
EXTRACT: note_on channel=1 note=47 velocity=0 time=0
EXTRACT: note_on channel=2 note=59 velocity=107 time=0
EXTRACT: note_on channel=0 note=33 velocity=123 time=0.008064508333333333
EXTRACT: note_on channel=1 note=59 velocity=90 time=0.008064508333333333
EXTRACT: note_on channel=9 note=42 velocity=0 time=0.05645155833333333
EXTRACT: note_on channel=9 note=36 velocity=0 time=0
EXTRACT: note_on channel=2 note=57 velocity=0 time=0.15322565833333332
EXTRACT: note_on channel=1 note=57 velocity=0 time=0.016129016666666666
EXTRACT: note_on channel=9 note=65 velocity=100 time=0.23387074166666666
EXTRACT: note_on channel=9 note=42 velocity=67 time=0
EXTRACT: note_on channel=9 note=40 velocity=127 time=0
EXTRACT: note_on channel=5 note=62 velocity=0 time=0.0120967625
EXTRACT: note_on channel=5 note=59 velocity=0 time=0
EXTRACT: note_on channel=0 note=33 velocity=0 time=0.0040322541666666665
EXTRACT: note_on channel=9 note=65 velocity=0 time=0.06451606666666666
EXTRACT: note_on channel=9 note=42 velocity=0 time=0
EXTRACT: note_on channel=9 note=40 velocity=0 time=0
EXTRACT: note_on channel=2 note=65 velocity=0 time=0.15322565833333332
EXTRACT: note_on channel=9 note=36 velocity=120 time=0.008064508333333333
EXTRACT: note_on channel=1 note=65 velocity=0 time=0.008064508333333333
EXTRACT: note_on channel=9 note=36 velocity=0 time=0.072580575
EXTRACT: note_on channel=9 note=42 velocity=59 time=0.16129016666666665
EXTRACT: note_on channel=9 note=42 velocity=0 time=0.08064508333333333
EXTRACT: note_on channel=9 note=36 velocity=60 time=0.40322541666666667
EXTRACT: note_on channel=2 note=64 velocity=90 time=0.008064508333333333
EXTRACT: note_on channel=2 note=62 velocity=111 time=0
EXTRACT: note_on channel=2 note=57 velocity=98 time=0
EXTRACT: note_on channel=2 note=50 velocity=93 time=0
EXTRACT: note_on channel=4 note=69 velocity=0 time=0.0010245895833333333
EXTRACT: note_on channel=4 note=77 velocity=0 time=0
EXTRACT: note_on channel=4 note=71 velocity=0 time=0
EXTRACT: note_on channel=4 note=76 velocity=113 time=0
EXTRACT: note_on channel=4 note=69 velocity=98 time=0
EXTRACT: note_on channel=4 note=74 velocity=107 time=0
EXTRACT: note_on channel=1 note=64 velocity=106 time=0.0030737687499999998
EXTRACT: note_on channel=1 note=62 velocity=84 time=0
EXTRACT: note_on channel=1 note=57 velocity=115 time=0
EXTRACT: note_on channel=1 note=50 velocity=97 time=0
EXTRACT: note_on channel=9 note=36 velocity=0 time=0.02868850833333333
EXTRACT: note_on channel=2 note=64 velocity=0 time=0.45081941666666664
EXTRACT: note_on channel=2 note=62 velocity=0 time=0
EXTRACT: note_on channel=2 note=57 velocity=0 time=0
EXTRACT: note_on channel=2 note=50 velocity=0 time=0
EXTRACT: note_on channel=9 note=40 velocity=72 time=0
EXTRACT: note_on channel=9 note=28 velocity=72 time=0
EXTRACT: note_on channel=2 note=64 velocity=103 time=0.004098358333333333
EXTRACT: note_on channel=2 note=62 velocity=91 time=0
EXTRACT: note_on channel=2 note=57 velocity=114 time=0
EXTRACT: note_on channel=2 note=50 velocity=92 time=0
EXTRACT: note_on channel=1 note=64 velocity=0 time=0.004098358333333333
EXTRACT: note_on channel=1 note=62 velocity=0 time=0
EXTRACT: note_on channel=1 note=57 velocity=0 time=0
EXTRACT: note_on channel=1 note=50 velocity=0 time=0
EXTRACT: note_on channel=1 note=64 velocity=114 time=0.004098358333333333
EXTRACT: note_on channel=1 note=62 velocity=89 time=0
EXTRACT: note_on channel=1 note=57 velocity=113 time=0
EXTRACT: note_on channel=1 note=50 velocity=94 time=0
EXTRACT: note_on channel=9 note=40 velocity=0 time=0.02868850833333333
EXTRACT: note_on channel=9 note=28 velocity=0 time=0
EXTRACT: note_on channel=2 note=59 velocity=0 time=0.20081955833333331
EXTRACT: note_on channel=1 note=59 velocity=0 time=0.008196716666666666
EXTRACT: note_on channel=2 note=64 velocity=0 time=0.24180314166666664
EXTRACT: note_on channel=2 note=62 velocity=0 time=0
EXTRACT: note_on channel=2 note=57 velocity=0 time=0
EXTRACT: note_on channel=2 note=50 velocity=0 time=0
EXTRACT: note_on channel=9 note=36 velocity=60 time=0
EXTRACT: note_on channel=2 note=64 velocity=86 time=0.004098358333333333
EXTRACT: note_on channel=2 note=62 velocity=117 time=0
EXTRACT: note_on channel=2 note=57 velocity=115 time=0
EXTRACT: note_on channel=2 note=50 velocity=110 time=0
EXTRACT: note_on channel=5 note=69 velocity=94 time=0.0020491791666666665
EXTRACT: note_on channel=1 note=64 velocity=0 time=0.0020491791666666665
EXTRACT: note_on channel=1 note=62 velocity=0 time=0
EXTRACT: note_on channel=1 note=57 velocity=0 time=0
EXTRACT: note_on channel=1 note=50 velocity=0 time=0
EXTRACT: note_on channel=1 note=64 velocity=113 time=0.004098358333333333
EXTRACT: note_on channel=1 note=62 velocity=91 time=0
EXTRACT: note_on channel=1 note=57 velocity=80 time=0
EXTRACT: note_on channel=1 note=50 velocity=90 time=0
EXTRACT: note_on channel=9 note=36 velocity=0 time=0.02868850833333333
EXTRACT: note_on channel=2 note=64 velocity=0 time=0.20491791666666664
EXTRACT: note_on channel=2 note=62 velocity=0 time=0
EXTRACT: note_on channel=2 note=57 velocity=0 time=0
EXTRACT: note_on channel=2 note=50 velocity=0 time=0
EXTRACT: note_on channel=9 note=36 velocity=60 time=0
EXTRACT: note_on channel=5 note=69 velocity=0 time=0.0020491791666666665
EXTRACT: note_on channel=2 note=64 velocity=84 time=0.0020491791666666665
EXTRACT: note_on channel=2 note=62 velocity=92 time=0
EXTRACT: note_on channel=2 note=57 velocity=91 time=0
EXTRACT: note_on channel=5 note=60 velocity=117 time=0.0020491791666666665
EXTRACT: note_on channel=1 note=64 velocity=0 time=0.0020491791666666665
EXTRACT: note_on channel=1 note=62 velocity=0 time=0
EXTRACT: note_on channel=1 note=57 velocity=0 time=0
EXTRACT: note_on channel=1 note=50 velocity=0 time=0
EXTRACT: note_on channel=1 note=64 velocity=96 time=0.004098358333333333
EXTRACT: note_on channel=1 note=62 velocity=95 time=0
EXTRACT: note_on channel=1 note=57 velocity=66 time=0
EXTRACT: note_on channel=9 note=36 velocity=0 time=0.02868850833333333
EXTRACT: note_on channel=2 note=64 velocity=0 time=0.20491791666666664
EXTRACT: note_on channel=2 note=62 velocity=0 time=0
EXTRACT: note_on channel=2 note=57 velocity=0 time=0
EXTRACT: note_on channel=9 note=40 velocity=72 time=0
EXTRACT: note_on channel=9 note=28 velocity=72 time=0
EXTRACT: note_on channel=2 note=64 velocity=103 time=0.004098358333333333
EXTRACT: note_on channel=2 note=62 velocity=99 time=0
EXTRACT: note_on channel=2 note=57 velocity=97 time=0
EXTRACT: note_on channel=2 note=50 velocity=116 time=0
EXTRACT: note_on channel=1 note=64 velocity=0 time=0.004098358333333333
EXTRACT: note_on channel=1 note=62 velocity=0 time=0
EXTRACT: note_on channel=1 note=57 velocity=0 time=0
EXTRACT: note_on channel=1 note=64 velocity=86 time=0.004098358333333333
EXTRACT: note_on channel=1 note=62 velocity=85 time=0
EXTRACT: note_on channel=1 note=57 velocity=103 time=0
EXTRACT: note_on channel=1 note=50 velocity=82 time=0
EXTRACT: note_on channel=9 note=40 velocity=0 time=0.02868850833333333
EXTRACT: note_on channel=9 note=28 velocity=0 time=0
EXTRACT: note_on channel=2 note=64 velocity=0 time=0.20491791666666664
EXTRACT: note_on channel=2 note=62 velocity=0 time=0
EXTRACT: note_on channel=2 note=57 velocity=0 time=0
EXTRACT: note_on channel=2 note=50 velocity=0 time=0
EXTRACT: note_on channel=5 note=60 velocity=0 time=0.0020491791666666665
EXTRACT: note_on channel=2 note=64 velocity=71 time=0.0020491791666666665
EXTRACT: note_on channel=2 note=62 velocity=85 time=0
EXTRACT: note_on channel=2 note=57 velocity=94 time=0
EXTRACT: note_on channel=5 note=62 velocity=110 time=0.0020491791666666665
EXTRACT: note_on channel=1 note=64 velocity=0 time=0.0020491791666666665
EXTRACT: note_on channel=1 note=62 velocity=0 time=0
EXTRACT: note_on channel=1 note=57 velocity=0 time=0
EXTRACT: note_on channel=1 note=50 velocity=0 time=0
EXTRACT: note_on channel=1 note=64 velocity=69 time=0.004098358333333333
EXTRACT: note_on channel=1 note=62 velocity=111 time=0
EXTRACT: note_on channel=1 note=57 velocity=78 time=0
EXTRACT: note_on channel=9 note=36 velocity=60 time=0.23360642499999998
EXTRACT: note_on channel=5 note=62 velocity=0 time=0.0061475374999999995
EXTRACT: note_on channel=4 note=76 velocity=0 time=0.0030737687499999998
EXTRACT: note_on channel=4 note=77 velocity=104 time=0
EXTRACT: note_on channel=9 note=36 velocity=0 time=0.03176227708333333
EXTRACT: note_on channel=2 note=64 velocity=0 time=0.20491791666666664
EXTRACT: note_on channel=2 note=62 velocity=0 time=0
EXTRACT: note_on channel=2 note=57 velocity=0 time=0
EXTRACT: note_on channel=2 note=65 velocity=104 time=0.004098358333333333
EXTRACT: note_on channel=2 note=62 velocity=88 time=0
EXTRACT: note_on channel=2 note=57 velocity=92 time=0
EXTRACT: note_on channel=1 note=64 velocity=0 time=0.004098358333333333
EXTRACT: note_on channel=1 note=62 velocity=0 time=0
EXTRACT: note_on channel=1 note=57 velocity=0 time=0
EXTRACT: note_on channel=1 note=65 velocity=75 time=0.004098358333333333
EXTRACT: note_on channel=1 note=62 velocity=90 time=0
EXTRACT: note_on channel=1 note=57 velocity=75 time=0
EXTRACT: note_on channel=2 note=65 velocity=0 time=0.23360642499999998
EXTRACT: note_on channel=2 note=62 velocity=0 time=0
EXTRACT: note_on channel=2 note=57 velocity=0 time=0
EXTRACT: note_on channel=9 note=40 velocity=72 time=0
EXTRACT: note_on channel=9 note=28 velocity=72 time=0
EXTRACT: note_on channel=2 note=65 velocity=85 time=0.004098358333333333
EXTRACT: note_on channel=2 note=62 velocity=99 time=0
EXTRACT: note_on channel=2 note=57 velocity=89 time=0
EXTRACT: note_on channel=1 note=65 velocity=0 time=0.004098358333333333
EXTRACT: note_on channel=1 note=62 velocity=0 time=0
EXTRACT: note_on channel=1 note=57 velocity=0 time=0
EXTRACT: note_on channel=1 note=65 velocity=100 time=0.004098358333333333
EXTRACT: note_on channel=1 note=62 velocity=99 time=0
EXTRACT: note_on channel=1 note=57 velocity=97 time=0
EXTRACT: note_on channel=9 note=40 velocity=0 time=0.02868850833333333
EXTRACT: note_on channel=9 note=28 velocity=0 time=0
EXTRACT: note_on channel=2 note=65 velocity=0 time=0.20491791666666664
EXTRACT: note_on channel=2 note=62 velocity=0 time=0
EXTRACT: note_on channel=2 note=57 velocity=0 time=0
EXTRACT: note_on channel=2 note=65 velocity=102 time=0.004098358333333333
EXTRACT: note_on channel=2 note=62 velocity=76 time=0
EXTRACT: note_on channel=2 note=57 velocity=66 time=0
EXTRACT: note_on channel=2 note=50 velocity=72 time=0
EXTRACT: note_on channel=1 note=65 velocity=0 time=0.004098358333333333
EXTRACT: note_on channel=1 note=62 velocity=0 time=0
EXTRACT: note_on channel=1 note=57 velocity=0 time=0
EXTRACT: note_on channel=1 note=65 velocity=75 time=0.004098358333333333
EXTRACT: note_on channel=1 note=62 velocity=105 time=0
EXTRACT: note_on channel=1 note=57 velocity=113 time=0
EXTRACT: note_on channel=1 note=50 velocity=76 time=0
EXTRACT: note_on channel=2 note=65 velocity=0 time=0.23360642499999998
EXTRACT: note_on channel=2 note=62 velocity=0 time=0
EXTRACT: note_on channel=2 note=57 velocity=0 time=0
EXTRACT: note_on channel=2 note=50 velocity=0 time=0
EXTRACT: note_on channel=9 note=36 velocity=60 time=0
EXTRACT: note_on channel=2 note=65 velocity=90 time=0.004098358333333333
EXTRACT: note_on channel=2 note=62 velocity=113 time=0
EXTRACT: note_on channel=2 note=57 velocity=97 time=0
EXTRACT: note_on channel=2 note=50 velocity=107 time=0
EXTRACT: note_on channel=5 note=69 velocity=89 time=0.0020491791666666665
EXTRACT: note_on channel=1 note=65 velocity=0 time=0.0020491791666666665
EXTRACT: note_on channel=1 note=62 velocity=0 time=0
EXTRACT: note_on channel=1 note=57 velocity=0 time=0
EXTRACT: note_on channel=1 note=50 velocity=0 time=0
EXTRACT: note_on channel=1 note=65 velocity=93 time=0.004098358333333333
EXTRACT: note_on channel=1 note=62 velocity=101 time=0
EXTRACT: note_on channel=1 note=57 velocity=112 time=0
EXTRACT: note_on channel=1 note=50 velocity=103 time=0
EXTRACT: note_on channel=9 note=36 velocity=0 time=0.02868850833333333
EXTRACT: note_on channel=2 note=65 velocity=0 time=0.20491791666666664
EXTRACT: note_on channel=2 note=62 velocity=0 time=0
EXTRACT: note_on channel=2 note=57 velocity=0 time=0
EXTRACT: note_on channel=2 note=50 velocity=0 time=0
EXTRACT: note_on channel=9 note=36 velocity=60 time=0
EXTRACT: note_on channel=5 note=69 velocity=0 time=0.0020491791666666665
EXTRACT: note_on channel=2 note=65 velocity=96 time=0.0020491791666666665
EXTRACT: note_on channel=2 note=62 velocity=115 time=0
EXTRACT: note_on channel=2 note=57 velocity=96 time=0
EXTRACT: note_on channel=5 note=60 velocity=103 time=0.0020491791666666665
EXTRACT: note_on channel=1 note=65 velocity=0 time=0.0020491791666666665
EXTRACT: note_on channel=1 note=62 velocity=0 time=0
EXTRACT: note_on channel=1 note=57 velocity=0 time=0
EXTRACT: note_on channel=1 note=50 velocity=0 time=0
EXTRACT: note_on channel=1 note=65 velocity=91 time=0.004098358333333333
EXTRACT: note_on channel=1 note=62 velocity=116 time=0
EXTRACT: note_on channel=1 note=57 velocity=71 time=0
EXTRACT: note_on channel=9 note=36 velocity=0 time=0.02868850833333333
EXTRACT: note_on channel=5 note=60 velocity=0 time=0.08401634583333333
EXTRACT: note_on channel=5 note=60 velocity=104 time=0.004098358333333333
EXTRACT: note_on channel=2 note=65 velocity=0 time=0.11680321249999999
EXTRACT: note_on channel=2 note=62 velocity=0 time=0
EXTRACT: note_on channel=2 note=57 velocity=0 time=0
EXTRACT: note_on channel=9 note=40 velocity=72 time=0
EXTRACT: note_on channel=9 note=28 velocity=72 time=0
EXTRACT: note_on channel=5 note=60 velocity=0 time=0.0020491791666666665
EXTRACT: note_on channel=2 note=65 velocity=115 time=0.0020491791666666665
EXTRACT: note_on channel=2 note=62 velocity=113 time=0
EXTRACT: note_on channel=2 note=57 velocity=116 time=0
EXTRACT: note_on channel=2 note=50 velocity=95 time=0
EXTRACT: note_on channel=5 note=60 velocity=114 time=0.0020491791666666665
EXTRACT: note_on channel=1 note=65 velocity=0 time=0.0020491791666666665
EXTRACT: note_on channel=1 note=62 velocity=0 time=0
EXTRACT: note_on channel=1 note=57 velocity=0 time=0
EXTRACT: note_on channel=1 note=65 velocity=82 time=0.004098358333333333
EXTRACT: note_on channel=1 note=62 velocity=106 time=0
EXTRACT: note_on channel=1 note=57 velocity=88 time=0
EXTRACT: note_on channel=1 note=50 velocity=86 time=0
EXTRACT: note_on channel=9 note=40 velocity=0 time=0.02868850833333333
EXTRACT: note_on channel=9 note=28 velocity=0 time=0
EXTRACT: note_on channel=2 note=65 velocity=0 time=0.20491791666666664
EXTRACT: note_on channel=2 note=62 velocity=0 time=0
EXTRACT: note_on channel=2 note=57 velocity=0 time=0
EXTRACT: note_on channel=2 note=50 velocity=0 time=0
EXTRACT: note_on channel=5 note=60 velocity=0 time=0.0020491791666666665
EXTRACT: note_on channel=2 note=65 velocity=110 time=0.0020491791666666665
EXTRACT: note_on channel=2 note=62 velocity=110 time=0
EXTRACT: note_on channel=2 note=57 velocity=85 time=0
EXTRACT: note_on channel=2 note=50 velocity=68 time=0
EXTRACT: note_on channel=5 note=62 velocity=115 time=0.0020491791666666665
EXTRACT: note_on channel=1 note=65 velocity=0 time=0.0020491791666666665
EXTRACT: note_on channel=1 note=62 velocity=0 time=0
EXTRACT: note_on channel=1 note=57 velocity=0 time=0
EXTRACT: note_on channel=1 note=50 velocity=0 time=0
EXTRACT: note_on channel=1 note=65 velocity=70 time=0.004098358333333333
EXTRACT: note_on channel=1 note=62 velocity=62 time=0
EXTRACT: note_on channel=1 note=57 velocity=116 time=0
EXTRACT: note_on channel=1 note=50 velocity=64 time=0
EXTRACT: note_on channel=2 note=65 velocity=0 time=0.23360642499999998
EXTRACT: note_on channel=2 note=62 velocity=0 time=0
EXTRACT: note_on channel=2 note=57 velocity=0 time=0
EXTRACT: note_on channel=2 note=50 velocity=0 time=0
EXTRACT: note_on channel=9 note=36 velocity=60 time=0
EXTRACT: note_on channel=2 note=64 velocity=91 time=0.004098358333333333
EXTRACT: note_on channel=2 note=62 velocity=96 time=0
EXTRACT: note_on channel=2 note=55 velocity=109 time=0
EXTRACT: note_on channel=2 note=48 velocity=97 time=0
EXTRACT: note_on channel=1 note=65 velocity=0 time=0.004098358333333333
EXTRACT: note_on channel=1 note=62 velocity=0 time=0
EXTRACT: note_on channel=1 note=57 velocity=0 time=0
EXTRACT: note_on channel=1 note=50 velocity=0 time=0
EXTRACT: note_on channel=4 note=69 velocity=0 time=0.0010245895833333333
EXTRACT: note_on channel=4 note=74 velocity=0 time=0
EXTRACT: note_on channel=4 note=77 velocity=0 time=0
EXTRACT: note_on channel=4 note=74 velocity=116 time=0
EXTRACT: note_on channel=4 note=72 velocity=103 time=0
EXTRACT: note_on channel=4 note=67 velocity=98 time=0
EXTRACT: note_on channel=1 note=64 velocity=113 time=0.0030737687499999998
EXTRACT: note_on channel=1 note=62 velocity=93 time=0
EXTRACT: note_on channel=1 note=55 velocity=98 time=0
EXTRACT: note_on channel=1 note=48 velocity=81 time=0
EXTRACT: note_on channel=9 note=36 velocity=0 time=0.02868850833333333
EXTRACT: note_on channel=2 note=64 velocity=0 time=0.45081941666666664
EXTRACT: note_on channel=2 note=62 velocity=0 time=0
EXTRACT: note_on channel=2 note=55 velocity=0 time=0
EXTRACT: note_on channel=2 note=48 velocity=0 time=0
EXTRACT: note_on channel=9 note=40 velocity=72 time=0
EXTRACT: note_on channel=9 note=28 velocity=72 time=0
EXTRACT: note_on channel=2 note=64 velocity=114 time=0.004098358333333333
EXTRACT: note_on channel=2 note=62 velocity=103 time=0
EXTRACT: note_on channel=2 note=55 velocity=115 time=0
EXTRACT: note_on channel=2 note=48 velocity=110 time=0
EXTRACT: note_on channel=1 note=64 velocity=0 time=0.004098358333333333
EXTRACT: note_on channel=1 note=62 velocity=0 time=0
EXTRACT: note_on channel=1 note=55 velocity=0 time=0
EXTRACT: note_on channel=1 note=48 velocity=0 time=0
EXTRACT: note_on channel=1 note=64 velocity=109 time=0.004098358333333333
EXTRACT: note_on channel=1 note=62 velocity=89 time=0
EXTRACT: note_on channel=1 note=55 velocity=107 time=0
EXTRACT: note_on channel=1 note=48 velocity=94 time=0
EXTRACT: note_on channel=9 note=40 velocity=0 time=0.02868850833333333
EXTRACT: note_on channel=9 note=28 velocity=0 time=0
EXTRACT: note_on channel=2 note=64 velocity=0 time=0.45081941666666664
EXTRACT: note_on channel=2 note=62 velocity=0 time=0
EXTRACT: note_on channel=2 note=55 velocity=0 time=0
EXTRACT: note_on channel=2 note=48 velocity=0 time=0
EXTRACT: note_on channel=9 note=36 velocity=60 time=0
EXTRACT: note_on channel=2 note=64 velocity=108 time=0.004098358333333333
EXTRACT: note_on channel=2 note=62 velocity=106 time=0
EXTRACT: note_on channel=2 note=55 velocity=111 time=0
EXTRACT: note_on channel=0 note=36 velocity=110 time=0.004098358333333333
EXTRACT: note_on channel=1 note=64 velocity=0 time=0
EXTRACT: note_on channel=1 note=62 velocity=0 time=0
EXTRACT: note_on channel=1 note=55 velocity=0 time=0
EXTRACT: note_on channel=1 note=48 velocity=0 time=0
EXTRACT: note_on channel=1 note=64 velocity=116 time=0.004098358333333333
EXTRACT: note_on channel=1 note=62 velocity=116 time=0
EXTRACT: note_on channel=1 note=55 velocity=95 time=0
EXTRACT: note_on channel=9 note=36 velocity=0 time=0.02868850833333333
EXTRACT: note_on channel=0 note=36 velocity=0 time=0.15163925833333333
EXTRACT: note_on channel=2 note=64 velocity=0 time=0.053278658333333326
EXTRACT: note_on channel=2 note=62 velocity=0 time=0
EXTRACT: note_on channel=2 note=55 velocity=0 time=0
EXTRACT: note_on channel=9 note=36 velocity=60 time=0
EXTRACT: note_on channel=2 note=64 velocity=95 time=0.004098358333333333
EXTRACT: note_on channel=2 note=62 velocity=96 time=0
EXTRACT: note_on channel=2 note=55 velocity=86 time=0
EXTRACT: note_on channel=2 note=48 velocity=115 time=0
EXTRACT: note_on channel=0 note=36 velocity=125 time=0.004098358333333333
EXTRACT: note_on channel=1 note=64 velocity=0 time=0
EXTRACT: note_on channel=1 note=62 velocity=0 time=0
EXTRACT: note_on channel=1 note=55 velocity=0 time=0
EXTRACT: note_on channel=1 note=64 velocity=63 time=0.004098358333333333
EXTRACT: note_on channel=1 note=62 velocity=110 time=0
EXTRACT: note_on channel=1 note=55 velocity=88 time=0
EXTRACT: note_on channel=1 note=48 velocity=68 time=0
EXTRACT: note_on channel=9 note=36 velocity=0 time=0.02868850833333333
EXTRACT: note_on channel=0 note=36 velocity=0 time=0.15163925833333333
EXTRACT: note_on channel=2 note=64 velocity=0 time=0.053278658333333326
EXTRACT: note_on channel=2 note=62 velocity=0 time=0
EXTRACT: note_on channel=2 note=55 velocity=0 time=0
EXTRACT: note_on channel=2 note=48 velocity=0 time=0
EXTRACT: note_on channel=9 note=40 velocity=72 time=0
EXTRACT: note_on channel=9 note=28 velocity=72 time=0
EXTRACT: note_on channel=2 note=64 velocity=97 time=0.004098358333333333
EXTRACT: note_on channel=2 note=62 velocity=89 time=0
EXTRACT: note_on channel=2 note=55 velocity=101 time=0
EXTRACT: note_on channel=2 note=48 velocity=116 time=0
EXTRACT: note_on channel=0 note=31 velocity=102 time=0.004098358333333333
EXTRACT: note_on channel=1 note=64 velocity=0 time=0
EXTRACT: note_on channel=1 note=62 velocity=0 time=0
EXTRACT: note_on channel=1 note=55 velocity=0 time=0
EXTRACT: note_on channel=1 note=48 velocity=0 time=0
EXTRACT: note_on channel=1 note=64 velocity=90 time=0.004098358333333333
EXTRACT: note_on channel=1 note=62 velocity=97 time=0
EXTRACT: note_on channel=1 note=55 velocity=104 time=0
EXTRACT: note_on channel=1 note=48 velocity=91 time=0
EXTRACT: note_on channel=9 note=40 velocity=0 time=0.02868850833333333
EXTRACT: note_on channel=9 note=28 velocity=0 time=0
EXTRACT: note_on channel=2 note=64 velocity=0 time=0.20491791666666664
EXTRACT: note_on channel=2 note=62 velocity=0 time=0
EXTRACT: note_on channel=2 note=55 velocity=0 time=0
EXTRACT: note_on channel=2 note=48 velocity=0 time=0
EXTRACT: note_on channel=2 note=64 velocity=78 time=0.004098358333333333
EXTRACT: note_on channel=2 note=62 velocity=92 time=0
EXTRACT: note_on channel=2 note=55 velocity=107 time=0
EXTRACT: note_on channel=0 note=31 velocity=0 time=0.004098358333333333
EXTRACT: note_on channel=1 note=64 velocity=0 time=0
EXTRACT: note_on channel=1 note=62 velocity=0 time=0
EXTRACT: note_on channel=1 note=55 velocity=0 time=0
EXTRACT: note_on channel=1 note=48 velocity=0 time=0
EXTRACT: note_on channel=1 note=64 velocity=115 time=0.004098358333333333
EXTRACT: note_on channel=1 note=62 velocity=83 time=0
EXTRACT: note_on channel=1 note=55 velocity=95 time=0
EXTRACT: note_on channel=9 note=36 velocity=60 time=0.23360642499999998
EXTRACT: note_on channel=5 note=62 velocity=0 time=0.0061475374999999995
EXTRACT: note_on channel=4 note=74 velocity=0 time=0.0030737687499999998
EXTRACT: note_on channel=4 note=76 velocity=100 time=0
EXTRACT: note_on channel=9 note=36 velocity=0 time=0.03176227708333333
EXTRACT: note_on channel=2 note=64 velocity=0 time=0.20491791666666664
EXTRACT: note_on channel=2 note=62 velocity=0 time=0
EXTRACT: note_on channel=2 note=55 velocity=0 time=0
EXTRACT: note_on channel=2 note=64 velocity=86 time=0.004098358333333333
EXTRACT: note_on channel=2 note=60 velocity=111 time=0
EXTRACT: note_on channel=2 note=55 velocity=107 time=0
EXTRACT: note_on channel=0 note=36 velocity=105 time=0.004098358333333333
EXTRACT: note_on channel=1 note=64 velocity=0 time=0
EXTRACT: note_on channel=1 note=62 velocity=0 time=0
EXTRACT: note_on channel=1 note=55 velocity=0 time=0
EXTRACT: note_on channel=1 note=64 velocity=94 time=0.004098358333333333
EXTRACT: note_on channel=1 note=60 velocity=80 time=0
EXTRACT: note_on channel=1 note=55 velocity=74 time=0
EXTRACT: note_on channel=0 note=36 velocity=0 time=0.18032776666666667
EXTRACT: note_on channel=2 note=64 velocity=0 time=0.053278658333333326
EXTRACT: note_on channel=2 note=60 velocity=0 time=0
EXTRACT: note_on channel=2 note=55 velocity=0 time=0
EXTRACT: note_on channel=9 note=40 velocity=72 time=0
EXTRACT: note_on channel=9 note=28 velocity=72 time=0
EXTRACT: note_on channel=2 note=64 velocity=106 time=0.004098358333333333
EXTRACT: note_on channel=2 note=60 velocity=99 time=0
EXTRACT: note_on channel=2 note=55 velocity=99 time=0
EXTRACT: note_on channel=2 note=48 velocity=117 time=0
EXTRACT: note_on channel=0 note=36 velocity=105 time=0.004098358333333333
EXTRACT: note_on channel=1 note=64 velocity=0 time=0
EXTRACT: note_on channel=1 note=60 velocity=0 time=0
EXTRACT: note_on channel=1 note=55 velocity=0 time=0
EXTRACT: note_on channel=1 note=64 velocity=107 time=0.004098358333333333
EXTRACT: note_on channel=1 note=60 velocity=116 time=0
EXTRACT: note_on channel=1 note=55 velocity=91 time=0
EXTRACT: note_on channel=1 note=48 velocity=89 time=0
EXTRACT: note_on channel=9 note=40 velocity=0 time=0.02868850833333333
EXTRACT: note_on channel=9 note=28 velocity=0 time=0
EXTRACT: note_on channel=0 note=36 velocity=0 time=0.15163925833333333
EXTRACT: note_on channel=2 note=64 velocity=0 time=0.053278658333333326
EXTRACT: note_on channel=2 note=60 velocity=0 time=0
EXTRACT: note_on channel=2 note=55 velocity=0 time=0
EXTRACT: note_on channel=2 note=48 velocity=0 time=0
EXTRACT: note_on channel=2 note=64 velocity=112 time=0.004098358333333333
EXTRACT: note_on channel=2 note=60 velocity=78 time=0
EXTRACT: note_on channel=2 note=55 velocity=96 time=0
EXTRACT: note_on channel=0 note=36 velocity=127 time=0.004098358333333333
EXTRACT: note_on channel=1 note=64 velocity=0 time=0
EXTRACT: note_on channel=1 note=60 velocity=0 time=0
EXTRACT: note_on channel=1 note=55 velocity=0 time=0
EXTRACT: note_on channel=1 note=48 velocity=0 time=0
EXTRACT: note_on channel=1 note=64 velocity=72 time=0.004098358333333333
EXTRACT: note_on channel=1 note=60 velocity=92 time=0
EXTRACT: note_on channel=1 note=55 velocity=75 time=0
EXTRACT: note_on channel=0 note=36 velocity=0 time=0.18032776666666667
EXTRACT: note_on channel=2 note=64 velocity=0 time=0.053278658333333326
EXTRACT: note_on channel=2 note=60 velocity=0 time=0
EXTRACT: note_on channel=2 note=55 velocity=0 time=0
EXTRACT: note_on channel=9 note=36 velocity=60 time=0
EXTRACT: note_on channel=2 note=64 velocity=95 time=0.004098358333333333
EXTRACT: note_on channel=2 note=60 velocity=102 time=0
EXTRACT: note_on channel=2 note=55 velocity=108 time=0
EXTRACT: note_on channel=2 note=48 velocity=95 time=0
EXTRACT: note_on channel=0 note=36 velocity=117 time=0.004098358333333333
EXTRACT: note_on channel=1 note=64 velocity=0 time=0
EXTRACT: note_on channel=1 note=60 velocity=0 time=0
EXTRACT: note_on channel=1 note=55 velocity=0 time=0
EXTRACT: note_on channel=1 note=64 velocity=91 time=0.004098358333333333
EXTRACT: note_on channel=1 note=60 velocity=83 time=0
EXTRACT: note_on channel=1 note=55 velocity=88 time=0
EXTRACT: note_on channel=1 note=48 velocity=110 time=0
EXTRACT: note_on channel=9 note=36 velocity=0 time=0.02868850833333333
EXTRACT: note_on channel=0 note=36 velocity=0 time=0.15163925833333333
EXTRACT: note_on channel=2 note=64 velocity=0 time=0.053278658333333326
EXTRACT: note_on channel=2 note=60 velocity=0 time=0
EXTRACT: note_on channel=2 note=55 velocity=0 time=0
EXTRACT: note_on channel=2 note=48 velocity=0 time=0
EXTRACT: note_on channel=9 note=36 velocity=60 time=0
EXTRACT: note_on channel=2 note=64 velocity=83 time=0.004098358333333333
EXTRACT: note_on channel=2 note=60 velocity=93 time=0
EXTRACT: note_on channel=2 note=55 velocity=102 time=0
EXTRACT: note_on channel=0 note=36 velocity=110 time=0.004098358333333333
EXTRACT: note_on channel=1 note=64 velocity=0 time=0
EXTRACT: note_on channel=1 note=60 velocity=0 time=0
EXTRACT: note_on channel=1 note=55 velocity=0 time=0
EXTRACT: note_on channel=1 note=48 velocity=0 time=0
EXTRACT: note_on channel=1 note=64 velocity=79 time=0.004098358333333333
EXTRACT: note_on channel=1 note=60 velocity=101 time=0
EXTRACT: note_on channel=1 note=55 velocity=107 time=0
EXTRACT: note_on channel=9 note=36 velocity=0 time=0.02868850833333333
EXTRACT: note_on channel=0 note=36 velocity=0 time=0.15163925833333333
EXTRACT: note_on channel=2 note=64 velocity=0 time=0.053278658333333326
EXTRACT: note_on channel=2 note=60 velocity=0 time=0
EXTRACT: note_on channel=2 note=55 velocity=0 time=0
EXTRACT: note_on channel=9 note=40 velocity=72 time=0
EXTRACT: note_on channel=9 note=28 velocity=72 time=0
EXTRACT: note_on channel=2 note=64 velocity=85 time=0.004098358333333333
EXTRACT: note_on channel=2 note=60 velocity=102 time=0
EXTRACT: note_on channel=2 note=55 velocity=109 time=0
EXTRACT: note_on channel=2 note=48 velocity=93 time=0
EXTRACT: note_on channel=0 note=36 velocity=120 time=0.004098358333333333
EXTRACT: note_on channel=1 note=64 velocity=0 time=0
EXTRACT: note_on channel=1 note=60 velocity=0 time=0
EXTRACT: note_on channel=1 note=55 velocity=0 time=0
EXTRACT: note_on channel=1 note=64 velocity=82 time=0.004098358333333333
EXTRACT: note_on channel=1 note=60 velocity=85 time=0
EXTRACT: note_on channel=1 note=55 velocity=114 time=0
EXTRACT: note_on channel=1 note=48 velocity=87 time=0
EXTRACT: note_on channel=9 note=40 velocity=0 time=0.02868850833333333
EXTRACT: note_on channel=9 note=28 velocity=0 time=0
EXTRACT: note_on channel=0 note=36 velocity=0 time=0.15163925833333333
EXTRACT: note_on channel=2 note=64 velocity=0 time=0.053278658333333326
EXTRACT: note_on channel=2 note=60 velocity=0 time=0
EXTRACT: note_on channel=2 note=55 velocity=0 time=0
EXTRACT: note_on channel=2 note=48 velocity=0 time=0
EXTRACT: note_on channel=2 note=64 velocity=105 time=0.004098358333333333
EXTRACT: note_on channel=2 note=60 velocity=70 time=0
EXTRACT: note_on channel=2 note=55 velocity=66 time=0
EXTRACT: note_on channel=0 note=36 velocity=109 time=0.004098358333333333
EXTRACT: note_on channel=1 note=64 velocity=0 time=0
EXTRACT: note_on channel=1 note=60 velocity=0 time=0
EXTRACT: note_on channel=1 note=55 velocity=0 time=0
EXTRACT: note_on channel=1 note=48 velocity=0 time=0
EXTRACT: note_on channel=1 note=64 velocity=111 time=0.004098358333333333
EXTRACT: note_on channel=1 note=60 velocity=90 time=0
EXTRACT: note_on channel=1 note=55 velocity=110 time=0
EXTRACT: note_on channel=0 note=36 velocity=0 time=0.18032776666666667
EXTRACT: note_on channel=2 note=64 velocity=0 time=0.053278658333333326
EXTRACT: note_on channel=2 note=60 velocity=0 time=0
EXTRACT: note_on channel=2 note=55 velocity=0 time=0
EXTRACT: note_on channel=9 note=36 velocity=60 time=0
EXTRACT: note_on channel=2 note=64 velocity=105 time=0.004098358333333333
EXTRACT: note_on channel=2 note=62 velocity=114 time=0
EXTRACT: note_on channel=2 note=57 velocity=88 time=0
EXTRACT: note_on channel=2 note=50 velocity=110 time=0
EXTRACT: note_on channel=0 note=38 velocity=125 time=0.004098358333333333
EXTRACT: note_on channel=1 note=64 velocity=0 time=0
EXTRACT: note_on channel=1 note=60 velocity=0 time=0
EXTRACT: note_on channel=1 note=55 velocity=0 time=0
EXTRACT: note_on channel=4 note=72 velocity=0 time=0.0010245895833333333
EXTRACT: note_on channel=4 note=67 velocity=0 time=0
EXTRACT: note_on channel=4 note=76 velocity=0 time=0
EXTRACT: note_on channel=4 note=76 velocity=102 time=0
EXTRACT: note_on channel=4 note=69 velocity=102 time=0
EXTRACT: note_on channel=4 note=74 velocity=94 time=0
EXTRACT: note_on channel=1 note=64 velocity=103 time=0.0030737687499999998
EXTRACT: note_on channel=1 note=62 velocity=83 time=0
EXTRACT: note_on channel=1 note=57 velocity=113 time=0
EXTRACT: note_on channel=1 note=50 velocity=83 time=0
EXTRACT: note_on channel=9 note=36 velocity=0 time=0.02868850833333333
EXTRACT: note_on channel=0 note=38 velocity=0 time=0.15163925833333333
EXTRACT: note_on channel=0 note=38 velocity=121 time=0.061475375
EXTRACT: note_on channel=0 note=38 velocity=0 time=0.184426125
EXTRACT: note_on channel=2 note=64 velocity=0 time=0.053278658333333326
EXTRACT: note_on channel=2 note=62 velocity=0 time=0
EXTRACT: note_on channel=2 note=57 velocity=0 time=0
EXTRACT: note_on channel=2 note=50 velocity=0 time=0
EXTRACT: note_on channel=9 note=40 velocity=72 time=0
EXTRACT: note_on channel=9 note=28 velocity=72 time=0
EXTRACT: note_on channel=2 note=64 velocity=86 time=0.004098358333333333
EXTRACT: note_on channel=2 note=62 velocity=89 time=0
EXTRACT: note_on channel=2 note=57 velocity=98 time=0
EXTRACT: note_on channel=2 note=50 velocity=104 time=0
EXTRACT: note_on channel=0 note=38 velocity=118 time=0.004098358333333333
EXTRACT: note_on channel=1 note=64 velocity=0 time=0
EXTRACT: note_on channel=1 note=62 velocity=0 time=0
EXTRACT: note_on channel=1 note=57 velocity=0 time=0
EXTRACT: note_on channel=1 note=50 velocity=0 time=0
EXTRACT: note_on channel=1 note=64 velocity=90 time=0.004098358333333333
EXTRACT: note_on channel=1 note=62 velocity=89 time=0
EXTRACT: note_on channel=1 note=57 velocity=99 time=0
EXTRACT: note_on channel=1 note=50 velocity=95 time=0
EXTRACT: note_on channel=9 note=40 velocity=0 time=0.02868850833333333
EXTRACT: note_on channel=9 note=28 velocity=0 time=0
EXTRACT: note_on channel=5 note=62 velocity=95 time=0.21106545416666664
EXTRACT: note_on channel=0 note=38 velocity=0 time=0.0020491791666666665
EXTRACT: note_on channel=2 note=64 velocity=0 time=0.2377047833333333
EXTRACT: note_on channel=2 note=62 velocity=0 time=0
EXTRACT: note_on channel=2 note=57 velocity=0 time=0
EXTRACT: note_on channel=2 note=50 velocity=0 time=0
EXTRACT: note_on channel=9 note=36 velocity=60 time=0
EXTRACT: note_on channel=5 note=62 velocity=0 time=0.0020491791666666665
EXTRACT: note_on channel=2 note=64 velocity=85 time=0.0020491791666666665
EXTRACT: note_on channel=2 note=62 velocity=106 time=0
EXTRACT: note_on channel=2 note=57 velocity=91 time=0
EXTRACT: note_on channel=2 note=50 velocity=107 time=0
EXTRACT: note_on channel=5 note=69 velocity=94 time=0.0020491791666666665
EXTRACT: note_on channel=1 note=64 velocity=0 time=0.0020491791666666665
EXTRACT: note_on channel=1 note=62 velocity=0 time=0
EXTRACT: note_on channel=1 note=57 velocity=0 time=0
EXTRACT: note_on channel=1 note=50 velocity=0 time=0
EXTRACT: note_on channel=1 note=64 velocity=102 time=0.004098358333333333
EXTRACT: note_on channel=1 note=62 velocity=87 time=0
EXTRACT: note_on channel=1 note=57 velocity=82 time=0
EXTRACT: note_on channel=1 note=50 velocity=88 time=0
EXTRACT: note_on channel=9 note=36 velocity=0 time=0.02868850833333333
EXTRACT: note_on channel=2 note=64 velocity=0 time=0.20491791666666664
EXTRACT: note_on channel=2 note=62 velocity=0 time=0
EXTRACT: note_on channel=2 note=57 velocity=0 time=0
EXTRACT: note_on channel=2 note=50 velocity=0 time=0
EXTRACT: note_on channel=9 note=36 velocity=60 time=0
EXTRACT: note_on channel=5 note=69 velocity=0 time=0.0020491791666666665
EXTRACT: note_on channel=2 note=64 velocity=110 time=0.0020491791666666665
EXTRACT: note_on channel=2 note=62 velocity=98 time=0
EXTRACT: note_on channel=2 note=57 velocity=101 time=0
EXTRACT: note_on channel=5 note=69 velocity=101 time=0.0020491791666666665
EXTRACT: note_on channel=1 note=64 velocity=0 time=0.0020491791666666665
EXTRACT: note_on channel=1 note=62 velocity=0 time=0
EXTRACT: note_on channel=1 note=57 velocity=0 time=0
EXTRACT: note_on channel=1 note=50 velocity=0 time=0
EXTRACT: note_on channel=1 note=64 velocity=108 time=0.004098358333333333
EXTRACT: note_on channel=1 note=62 velocity=105 time=0
EXTRACT: note_on channel=1 note=57 velocity=77 time=0
EXTRACT: note_on channel=9 note=36 velocity=0 time=0.02868850833333333
EXTRACT: note_on channel=2 note=64 velocity=0 time=0.20491791666666664
EXTRACT: note_on channel=2 note=62 velocity=0 time=0
EXTRACT: note_on channel=2 note=57 velocity=0 time=0
EXTRACT: note_on channel=9 note=40 velocity=72 time=0
EXTRACT: note_on channel=9 note=28 velocity=72 time=0
EXTRACT: note_on channel=5 note=69 velocity=0 time=0.0020491791666666665
EXTRACT: note_on channel=2 note=64 velocity=95 time=0.0020491791666666665
EXTRACT: note_on channel=2 note=62 velocity=92 time=0
EXTRACT: note_on channel=2 note=57 velocity=92 time=0
EXTRACT: note_on channel=2 note=50 velocity=92 time=0
EXTRACT: note_on channel=5 note=69 velocity=109 time=0.0020491791666666665
EXTRACT: note_on channel=1 note=64 velocity=0 time=0.0020491791666666665
EXTRACT: note_on channel=1 note=62 velocity=0 time=0
EXTRACT: note_on channel=1 note=57 velocity=0 time=0
EXTRACT: note_on channel=1 note=64 velocity=79 time=0.004098358333333333
EXTRACT: note_on channel=1 note=62 velocity=99 time=0
EXTRACT: note_on channel=1 note=57 velocity=109 time=0
EXTRACT: note_on channel=1 note=50 velocity=109 time=0
EXTRACT: note_on channel=9 note=40 velocity=0 time=0.02868850833333333
EXTRACT: note_on channel=9 note=28 velocity=0 time=0
EXTRACT: note_on channel=2 note=64 velocity=0 time=0.20491791666666664
EXTRACT: note_on channel=2 note=62 velocity=0 time=0
EXTRACT: note_on channel=2 note=57 velocity=0 time=0
EXTRACT: note_on channel=2 note=50 velocity=0 time=0
EXTRACT: note_on channel=5 note=69 velocity=0 time=0.0020491791666666665
EXTRACT: note_on channel=2 note=64 velocity=108 time=0.0020491791666666665
EXTRACT: note_on channel=2 note=62 velocity=93 time=0
EXTRACT: note_on channel=2 note=57 velocity=79 time=0
EXTRACT: note_on channel=5 note=62 velocity=117 time=0.0020491791666666665
EXTRACT: note_on channel=1 note=64 velocity=0 time=0.0020491791666666665
EXTRACT: note_on channel=1 note=62 velocity=0 time=0
EXTRACT: note_on channel=1 note=57 velocity=0 time=0
EXTRACT: note_on channel=1 note=50 velocity=0 time=0
EXTRACT: note_on channel=1 note=64 velocity=74 time=0.004098358333333333
EXTRACT: note_on channel=1 note=62 velocity=64 time=0
EXTRACT: note_on channel=1 note=57 velocity=110 time=0
EXTRACT: note_on channel=9 note=36 velocity=60 time=0.23360642499999998
EXTRACT: note_on channel=4 note=76 velocity=0 time=0.009221306249999998
EXTRACT: note_on channel=4 note=77 velocity=108 time=0
EXTRACT: note_on channel=9 note=36 velocity=0 time=0.03176227708333333
EXTRACT: note_on channel=2 note=64 velocity=0 time=0.20491791666666664
EXTRACT: note_on channel=2 note=62 velocity=0 time=0
EXTRACT: note_on channel=2 note=57 velocity=0 time=0
EXTRACT: note_on channel=2 note=65 velocity=67 time=0.004098358333333333
EXTRACT: note_on channel=2 note=62 velocity=75 time=0
EXTRACT: note_on channel=2 note=57 velocity=70 time=0
EXTRACT: note_on channel=1 note=64 velocity=0 time=0.004098358333333333
EXTRACT: note_on channel=1 note=62 velocity=0 time=0
EXTRACT: note_on channel=1 note=57 velocity=0 time=0
EXTRACT: note_on channel=1 note=65 velocity=80 time=0.004098358333333333
EXTRACT: note_on channel=1 note=62 velocity=63 time=0
EXTRACT: note_on channel=1 note=57 velocity=103 time=0
EXTRACT: note_on channel=2 note=65 velocity=0 time=0.23360642499999998
EXTRACT: note_on channel=2 note=62 velocity=0 time=0
EXTRACT: note_on channel=2 note=57 velocity=0 time=0
EXTRACT: note_on channel=9 note=40 velocity=72 time=0
EXTRACT: note_on channel=9 note=28 velocity=72 time=0
EXTRACT: note_on channel=2 note=65 velocity=103 time=0.004098358333333333
EXTRACT: note_on channel=2 note=62 velocity=102 time=0
EXTRACT: note_on channel=2 note=57 velocity=115 time=0
EXTRACT: note_on channel=5 note=62 velocity=0 time=0.0020491791666666665
EXTRACT: note_on channel=1 note=65 velocity=0 time=0.0020491791666666665
EXTRACT: note_on channel=1 note=62 velocity=0 time=0
EXTRACT: note_on channel=1 note=57 velocity=0 time=0
EXTRACT: note_on channel=1 note=65 velocity=93 time=0.004098358333333333
EXTRACT: note_on channel=1 note=62 velocity=109 time=0
EXTRACT: note_on channel=1 note=57 velocity=87 time=0
EXTRACT: note_on channel=9 note=40 velocity=0 time=0.02868850833333333
EXTRACT: note_on channel=9 note=28 velocity=0 time=0
EXTRACT: note_on channel=2 note=65 velocity=0 time=0.20491791666666664
EXTRACT: note_on channel=2 note=62 velocity=0 time=0
EXTRACT: note_on channel=2 note=57 velocity=0 time=0
EXTRACT: note_on channel=2 note=65 velocity=107 time=0.004098358333333333
EXTRACT: note_on channel=2 note=62 velocity=96 time=0
EXTRACT: note_on channel=2 note=57 velocity=79 time=0
EXTRACT: note_on channel=2 note=50 velocity=78 time=0
EXTRACT: note_on channel=1 note=65 velocity=0 time=0.004098358333333333
EXTRACT: note_on channel=1 note=62 velocity=0 time=0
EXTRACT: note_on channel=1 note=57 velocity=0 time=0
EXTRACT: note_on channel=1 note=65 velocity=79 time=0.004098358333333333
EXTRACT: note_on channel=1 note=62 velocity=94 time=0
EXTRACT: note_on channel=1 note=57 velocity=65 time=0
EXTRACT: note_on channel=1 note=50 velocity=67 time=0
EXTRACT: note_on channel=2 note=65 velocity=0 time=0.23360642499999998
EXTRACT: note_on channel=2 note=62 velocity=0 time=0
EXTRACT: note_on channel=2 note=57 velocity=0 time=0
EXTRACT: note_on channel=2 note=50 velocity=0 time=0
EXTRACT: note_on channel=9 note=36 velocity=60 time=0
EXTRACT: note_on channel=2 note=65 velocity=108 time=0.004098358333333333
EXTRACT: note_on channel=2 note=62 velocity=111 time=0
EXTRACT: note_on channel=2 note=57 velocity=108 time=0
EXTRACT: note_on channel=2 note=50 velocity=106 time=0
EXTRACT: note_on channel=5 note=69 velocity=88 time=0.0020491791666666665
EXTRACT: note_on channel=1 note=65 velocity=0 time=0.0020491791666666665
EXTRACT: note_on channel=1 note=62 velocity=0 time=0
EXTRACT: note_on channel=1 note=57 velocity=0 time=0
EXTRACT: note_on channel=1 note=50 velocity=0 time=0
EXTRACT: note_on channel=1 note=65 velocity=111 time=0.004098358333333333
EXTRACT: note_on channel=1 note=62 velocity=100 time=0
EXTRACT: note_on channel=1 note=57 velocity=85 time=0
EXTRACT: note_on channel=1 note=50 velocity=94 time=0
EXTRACT: note_on channel=9 note=36 velocity=0 time=0.02868850833333333
EXTRACT: note_on channel=2 note=65 velocity=0 time=0.20491791666666664
EXTRACT: note_on channel=2 note=62 velocity=0 time=0
EXTRACT: note_on channel=2 note=57 velocity=0 time=0
EXTRACT: note_on channel=2 note=50 velocity=0 time=0
EXTRACT: note_on channel=9 note=36 velocity=60 time=0
EXTRACT: note_on channel=5 note=69 velocity=0 time=0.0020491791666666665
EXTRACT: note_on channel=2 note=65 velocity=70 time=0.0020491791666666665
EXTRACT: note_on channel=2 note=62 velocity=90 time=0
EXTRACT: note_on channel=2 note=57 velocity=74 time=0
EXTRACT: note_on channel=5 note=62 velocity=114 time=0.0020491791666666665
EXTRACT: note_on channel=1 note=65 velocity=0 time=0.0020491791666666665
EXTRACT: note_on channel=1 note=62 velocity=0 time=0
EXTRACT: note_on channel=1 note=57 velocity=0 time=0
EXTRACT: note_on channel=1 note=50 velocity=0 time=0
EXTRACT: note_on channel=1 note=65 velocity=89 time=0.004098358333333333
EXTRACT: note_on channel=1 note=62 velocity=78 time=0
EXTRACT: note_on channel=1 note=57 velocity=104 time=0
EXTRACT: note_on channel=9 note=36 velocity=0 time=0.02868850833333333
EXTRACT: note_on channel=2 note=65 velocity=0 time=0.20491791666666664
EXTRACT: note_on channel=2 note=62 velocity=0 time=0
EXTRACT: note_on channel=2 note=57 velocity=0 time=0
EXTRACT: note_on channel=9 note=40 velocity=72 time=0
EXTRACT: note_on channel=9 note=28 velocity=72 time=0
EXTRACT: note_on channel=5 note=62 velocity=0 time=0.0020491791666666665
EXTRACT: note_on channel=2 note=65 velocity=108 time=0.0020491791666666665
EXTRACT: note_on channel=2 note=62 velocity=88 time=0
EXTRACT: note_on channel=2 note=57 velocity=113 time=0
EXTRACT: note_on channel=2 note=50 velocity=112 time=0
EXTRACT: note_on channel=5 note=60 velocity=108 time=0.0020491791666666665
EXTRACT: note_on channel=1 note=65 velocity=0 time=0.0020491791666666665
EXTRACT: note_on channel=1 note=62 velocity=0 time=0
EXTRACT: note_on channel=1 note=57 velocity=0 time=0
EXTRACT: note_on channel=1 note=65 velocity=113 time=0.004098358333333333
EXTRACT: note_on channel=1 note=62 velocity=92 time=0
EXTRACT: note_on channel=1 note=57 velocity=107 time=0
EXTRACT: note_on channel=1 note=50 velocity=98 time=0
EXTRACT: note_on channel=9 note=40 velocity=0 time=0.02868850833333333
EXTRACT: note_on channel=9 note=28 velocity=0 time=0
EXTRACT: note_on channel=2 note=65 velocity=0 time=0.20491791666666664
EXTRACT: note_on channel=2 note=62 velocity=0 time=0
EXTRACT: note_on channel=2 note=57 velocity=0 time=0
EXTRACT: note_on channel=2 note=50 velocity=0 time=0
EXTRACT: note_on channel=5 note=60 velocity=0 time=0.0020491791666666665
EXTRACT: note_on channel=2 note=65 velocity=103 time=0.0020491791666666665
EXTRACT: note_on channel=2 note=62 velocity=76 time=0
EXTRACT: note_on channel=2 note=57 velocity=76 time=0
EXTRACT: note_on channel=2 note=50 velocity=78 time=0
EXTRACT: note_on channel=5 note=62 velocity=85 time=0.0020491791666666665
EXTRACT: note_on channel=1 note=65 velocity=0 time=0.0020491791666666665
EXTRACT: note_on channel=1 note=62 velocity=0 time=0
EXTRACT: note_on channel=1 note=57 velocity=0 time=0
EXTRACT: note_on channel=1 note=50 velocity=0 time=0
EXTRACT: note_on channel=1 note=65 velocity=64 time=0.004098358333333333
EXTRACT: note_on channel=1 note=62 velocity=110 time=0
EXTRACT: note_on channel=1 note=57 velocity=109 time=0
EXTRACT: note_on channel=1 note=50 velocity=81 time=0
EXTRACT: note_on channel=2 note=65 velocity=0 time=0.23360642499999998
EXTRACT: note_on channel=2 note=62 velocity=0 time=0
EXTRACT: note_on channel=2 note=57 velocity=0 time=0
EXTRACT: note_on channel=2 note=50 velocity=0 time=0
EXTRACT: note_on channel=9 note=36 velocity=60 time=0
EXTRACT: note_on channel=2 note=64 velocity=91 time=0.004098358333333333
EXTRACT: note_on channel=2 note=62 velocity=111 time=0
EXTRACT: note_on channel=2 note=55 velocity=105 time=0
EXTRACT: note_on channel=2 note=48 velocity=98 time=0
EXTRACT: note_on channel=1 note=65 velocity=0 time=0.004098358333333333
EXTRACT: note_on channel=1 note=62 velocity=0 time=0
EXTRACT: note_on channel=1 note=57 velocity=0 time=0
EXTRACT: note_on channel=1 note=50 velocity=0 time=0
EXTRACT: note_on channel=4 note=69 velocity=0 time=0.0010245895833333333
EXTRACT: note_on channel=4 note=74 velocity=0 time=0
EXTRACT: note_on channel=4 note=77 velocity=0 time=0
EXTRACT: note_on channel=4 note=74 velocity=105 time=0
EXTRACT: note_on channel=4 note=72 velocity=117 time=0
EXTRACT: note_on channel=4 note=67 velocity=92 time=0
EXTRACT: note_on channel=1 note=64 velocity=99 time=0.0030737687499999998
EXTRACT: note_on channel=1 note=62 velocity=90 time=0
EXTRACT: note_on channel=1 note=55 velocity=92 time=0
EXTRACT: note_on channel=1 note=48 velocity=109 time=0
EXTRACT: note_on channel=9 note=36 velocity=0 time=0.02868850833333333
EXTRACT: note_on channel=2 note=64 velocity=0 time=0.45081941666666664
EXTRACT: note_on channel=2 note=62 velocity=0 time=0
EXTRACT: note_on channel=2 note=55 velocity=0 time=0
EXTRACT: note_on channel=2 note=48 velocity=0 time=0
EXTRACT: note_on channel=9 note=40 velocity=72 time=0
EXTRACT: note_on channel=9 note=28 velocity=72 time=0
EXTRACT: note_on channel=2 note=64 velocity=91 time=0.004098358333333333
EXTRACT: note_on channel=2 note=62 velocity=103 time=0
EXTRACT: note_on channel=2 note=55 velocity=93 time=0
EXTRACT: note_on channel=2 note=48 velocity=97 time=0
EXTRACT: note_on channel=1 note=64 velocity=0 time=0.004098358333333333
EXTRACT: note_on channel=1 note=62 velocity=0 time=0
EXTRACT: note_on channel=1 note=55 velocity=0 time=0
EXTRACT: note_on channel=1 note=48 velocity=0 time=0
EXTRACT: note_on channel=1 note=64 velocity=104 time=0.004098358333333333
EXTRACT: note_on channel=1 note=62 velocity=92 time=0
EXTRACT: note_on channel=1 note=55 velocity=84 time=0
EXTRACT: note_on channel=1 note=48 velocity=89 time=0
EXTRACT: note_on channel=9 note=40 velocity=0 time=0.02868850833333333
EXTRACT: note_on channel=9 note=28 velocity=0 time=0
EXTRACT: note_on channel=2 note=64 velocity=0 time=0.45081941666666664
EXTRACT: note_on channel=2 note=62 velocity=0 time=0
EXTRACT: note_on channel=2 note=55 velocity=0 time=0
EXTRACT: note_on channel=2 note=48 velocity=0 time=0
EXTRACT: note_on channel=9 note=36 velocity=60 time=0
EXTRACT: note_on channel=2 note=64 velocity=89 time=0.004098358333333333
EXTRACT: note_on channel=2 note=62 velocity=87 time=0
EXTRACT: note_on channel=2 note=55 velocity=108 time=0
EXTRACT: note_on channel=0 note=36 velocity=123 time=0.004098358333333333
EXTRACT: note_on channel=1 note=64 velocity=0 time=0
EXTRACT: note_on channel=1 note=62 velocity=0 time=0
EXTRACT: note_on channel=1 note=55 velocity=0 time=0
EXTRACT: note_on channel=1 note=48 velocity=0 time=0
EXTRACT: note_on channel=1 note=64 velocity=116 time=0.004098358333333333
EXTRACT: note_on channel=1 note=62 velocity=99 time=0
EXTRACT: note_on channel=1 note=55 velocity=98 time=0
EXTRACT: note_on channel=9 note=36 velocity=0 time=0.02868850833333333
EXTRACT: note_on channel=0 note=36 velocity=0 time=0.15163925833333333
EXTRACT: note_on channel=2 note=64 velocity=0 time=0.053278658333333326
EXTRACT: note_on channel=2 note=62 velocity=0 time=0
EXTRACT: note_on channel=2 note=55 velocity=0 time=0
EXTRACT: note_on channel=9 note=36 velocity=60 time=0
EXTRACT: note_on channel=2 note=64 velocity=73 time=0.004098358333333333
EXTRACT: note_on channel=2 note=62 velocity=67 time=0
EXTRACT: note_on channel=2 note=55 velocity=90 time=0
EXTRACT: note_on channel=2 note=48 velocity=89 time=0
EXTRACT: note_on channel=0 note=36 velocity=126 time=0.004098358333333333
EXTRACT: note_on channel=1 note=64 velocity=0 time=0
EXTRACT: note_on channel=1 note=62 velocity=0 time=0
EXTRACT: note_on channel=1 note=55 velocity=0 time=0
EXTRACT: note_on channel=1 note=64 velocity=76 time=0.004098358333333333
EXTRACT: note_on channel=1 note=62 velocity=100 time=0
EXTRACT: note_on channel=1 note=55 velocity=108 time=0
EXTRACT: note_on channel=1 note=48 velocity=94 time=0
EXTRACT: note_on channel=9 note=36 velocity=0 time=0.02868850833333333
EXTRACT: note_on channel=0 note=36 velocity=0 time=0.15163925833333333
EXTRACT: note_on channel=2 note=64 velocity=0 time=0.053278658333333326
EXTRACT: note_on channel=2 note=62 velocity=0 time=0
EXTRACT: note_on channel=2 note=55 velocity=0 time=0
EXTRACT: note_on channel=2 note=48 velocity=0 time=0
EXTRACT: note_on channel=9 note=40 velocity=72 time=0
EXTRACT: note_on channel=9 note=28 velocity=72 time=0
EXTRACT: note_on channel=2 note=64 velocity=93 time=0.004098358333333333
EXTRACT: note_on channel=2 note=62 velocity=89 time=0
EXTRACT: note_on channel=2 note=55 velocity=88 time=0
EXTRACT: note_on channel=2 note=48 velocity=112 time=0
EXTRACT: note_on channel=0 note=36 velocity=117 time=0.004098358333333333
EXTRACT: note_on channel=1 note=64 velocity=0 time=0
EXTRACT: note_on channel=1 note=62 velocity=0 time=0
EXTRACT: note_on channel=1 note=55 velocity=0 time=0
EXTRACT: note_on channel=1 note=48 velocity=0 time=0
EXTRACT: note_on channel=1 note=64 velocity=107 time=0.004098358333333333
EXTRACT: note_on channel=1 note=62 velocity=89 time=0
EXTRACT: note_on channel=1 note=55 velocity=101 time=0
EXTRACT: note_on channel=1 note=48 velocity=93 time=0
EXTRACT: note_on channel=9 note=40 velocity=0 time=0.02868850833333333
EXTRACT: note_on channel=9 note=28 velocity=0 time=0
EXTRACT: note_on channel=2 note=64 velocity=0 time=0.20491791666666664
EXTRACT: note_on channel=2 note=62 velocity=0 time=0
EXTRACT: note_on channel=2 note=55 velocity=0 time=0
EXTRACT: note_on channel=2 note=48 velocity=0 time=0
EXTRACT: note_on channel=2 note=64 velocity=106 time=0.004098358333333333
EXTRACT: note_on channel=2 note=62 velocity=102 time=0
EXTRACT: note_on channel=2 note=55 velocity=90 time=0
EXTRACT: note_on channel=0 note=36 velocity=0 time=0.004098358333333333
EXTRACT: note_on channel=1 note=64 velocity=0 time=0
EXTRACT: note_on channel=1 note=62 velocity=0 time=0
EXTRACT: note_on channel=1 note=55 velocity=0 time=0
EXTRACT: note_on channel=1 note=48 velocity=0 time=0
EXTRACT: note_on channel=1 note=64 velocity=71 time=0.004098358333333333
EXTRACT: note_on channel=1 note=62 velocity=69 time=0
EXTRACT: note_on channel=1 note=55 velocity=76 time=0
EXTRACT: note_on channel=9 note=36 velocity=60 time=0.23360642499999998
EXTRACT: note_on channel=5 note=62 velocity=0 time=0.0061475374999999995
EXTRACT: note_on channel=4 note=74 velocity=0 time=0.0030737687499999998
EXTRACT: note_on channel=4 note=76 velocity=122 time=0
EXTRACT: note_on channel=9 note=36 velocity=0 time=0.03176227708333333
EXTRACT: note_on channel=2 note=64 velocity=0 time=0.20491791666666664
EXTRACT: note_on channel=2 note=62 velocity=0 time=0
EXTRACT: note_on channel=2 note=55 velocity=0 time=0
EXTRACT: note_on channel=2 note=64 velocity=73 time=0.004098358333333333
EXTRACT: note_on channel=2 note=60 velocity=107 time=0
EXTRACT: note_on channel=2 note=55 velocity=81 time=0
EXTRACT: note_on channel=0 note=36 velocity=125 time=0.004098358333333333
EXTRACT: note_on channel=1 note=64 velocity=0 time=0
EXTRACT: note_on channel=1 note=62 velocity=0 time=0
EXTRACT: note_on channel=1 note=55 velocity=0 time=0
EXTRACT: note_on channel=1 note=64 velocity=114 time=0.004098358333333333
EXTRACT: note_on channel=1 note=60 velocity=67 time=0
EXTRACT: note_on channel=1 note=55 velocity=65 time=0
EXTRACT: note_on channel=0 note=36 velocity=0 time=0.18032776666666667
EXTRACT: note_on channel=2 note=64 velocity=0 time=0.053278658333333326
EXTRACT: note_on channel=2 note=60 velocity=0 time=0
EXTRACT: note_on channel=2 note=55 velocity=0 time=0
EXTRACT: note_on channel=9 note=40 velocity=72 time=0
EXTRACT: note_on channel=9 note=28 velocity=72 time=0
EXTRACT: note_on channel=2 note=64 velocity=112 time=0.004098358333333333
EXTRACT: note_on channel=2 note=60 velocity=105 time=0
EXTRACT: note_on channel=2 note=55 velocity=98 time=0
EXTRACT: note_on channel=2 note=48 velocity=93 time=0
EXTRACT: note_on channel=0 note=36 velocity=125 time=0.004098358333333333
EXTRACT: note_on channel=1 note=64 velocity=0 time=0
EXTRACT: note_on channel=1 note=60 velocity=0 time=0
EXTRACT: note_on channel=1 note=55 velocity=0 time=0
EXTRACT: note_on channel=1 note=64 velocity=117 time=0.004098358333333333
EXTRACT: note_on channel=1 note=60 velocity=83 time=0
EXTRACT: note_on channel=1 note=55 velocity=81 time=0
EXTRACT: note_on channel=1 note=48 velocity=101 time=0
EXTRACT: note_on channel=9 note=40 velocity=0 time=0.02868850833333333
EXTRACT: note_on channel=9 note=28 velocity=0 time=0
EXTRACT: note_on channel=0 note=36 velocity=0 time=0.15163925833333333
EXTRACT: note_on channel=2 note=64 velocity=0 time=0.053278658333333326
EXTRACT: note_on channel=2 note=60 velocity=0 time=0
EXTRACT: note_on channel=2 note=55 velocity=0 time=0
EXTRACT: note_on channel=2 note=48 velocity=0 time=0
EXTRACT: note_on channel=2 note=64 velocity=66 time=0.004098358333333333
EXTRACT: note_on channel=2 note=60 velocity=78 time=0
EXTRACT: note_on channel=2 note=55 velocity=76 time=0
EXTRACT: note_on channel=0 note=36 velocity=104 time=0.004098358333333333
EXTRACT: note_on channel=1 note=64 velocity=0 time=0
EXTRACT: note_on channel=1 note=60 velocity=0 time=0
EXTRACT: note_on channel=1 note=55 velocity=0 time=0
EXTRACT: note_on channel=1 note=48 velocity=0 time=0
EXTRACT: note_on channel=1 note=64 velocity=96 time=0.004098358333333333
EXTRACT: note_on channel=1 note=60 velocity=97 time=0
EXTRACT: note_on channel=1 note=55 velocity=66 time=0
EXTRACT: note_on channel=0 note=36 velocity=0 time=0.18032776666666667
EXTRACT: note_on channel=2 note=64 velocity=0 time=0.053278658333333326
EXTRACT: note_on channel=2 note=60 velocity=0 time=0
EXTRACT: note_on channel=2 note=55 velocity=0 time=0
EXTRACT: note_on channel=9 note=36 velocity=60 time=0
EXTRACT: note_on channel=2 note=64 velocity=115 time=0.004098358333333333
EXTRACT: note_on channel=2 note=60 velocity=109 time=0
EXTRACT: note_on channel=2 note=55 velocity=90 time=0
EXTRACT: note_on channel=2 note=48 velocity=104 time=0
EXTRACT: note_on channel=1 note=64 velocity=0 time=0.004098358333333333
EXTRACT: note_on channel=1 note=60 velocity=0 time=0
EXTRACT: note_on channel=1 note=55 velocity=0 time=0
EXTRACT: note_on channel=1 note=64 velocity=85 time=0.004098358333333333
EXTRACT: note_on channel=1 note=60 velocity=107 time=0
EXTRACT: note_on channel=1 note=55 velocity=91 time=0
EXTRACT: note_on channel=1 note=48 velocity=79 time=0
EXTRACT: note_on channel=9 note=36 velocity=0 time=0.02868850833333333
EXTRACT: note_on channel=2 note=64 velocity=0 time=0.20491791666666664
EXTRACT: note_on channel=2 note=60 velocity=0 time=0
EXTRACT: note_on channel=2 note=55 velocity=0 time=0
EXTRACT: note_on channel=2 note=48 velocity=0 time=0
EXTRACT: note_on channel=9 note=36 velocity=60 time=0
EXTRACT: note_on channel=2 note=64 velocity=89 time=0.004098358333333333
EXTRACT: note_on channel=2 note=60 velocity=69 time=0
EXTRACT: note_on channel=2 note=55 velocity=89 time=0
EXTRACT: note_on channel=1 note=64 velocity=0 time=0.004098358333333333
EXTRACT: note_on channel=1 note=60 velocity=0 time=0
EXTRACT: note_on channel=1 note=55 velocity=0 time=0
EXTRACT: note_on channel=1 note=48 velocity=0 time=0
EXTRACT: note_on channel=1 note=64 velocity=73 time=0.004098358333333333
EXTRACT: note_on channel=1 note=60 velocity=83 time=0
EXTRACT: note_on channel=1 note=55 velocity=114 time=0
EXTRACT: note_on channel=9 note=36 velocity=0 time=0.02868850833333333
EXTRACT: note_on channel=2 note=64 velocity=0 time=0.20491791666666664
EXTRACT: note_on channel=2 note=60 velocity=0 time=0
EXTRACT: note_on channel=2 note=55 velocity=0 time=0
EXTRACT: note_on channel=9 note=40 velocity=72 time=0
EXTRACT: note_on channel=9 note=28 velocity=72 time=0
EXTRACT: note_on channel=2 note=64 velocity=109 time=0.004098358333333333
EXTRACT: note_on channel=2 note=60 velocity=109 time=0
EXTRACT: note_on channel=2 note=55 velocity=100 time=0
EXTRACT: note_on channel=2 note=48 velocity=116 time=0
EXTRACT: note_on channel=0 note=36 velocity=125 time=0.004098358333333333
EXTRACT: note_on channel=1 note=64 velocity=0 time=0
EXTRACT: note_on channel=1 note=60 velocity=0 time=0
EXTRACT: note_on channel=1 note=55 velocity=0 time=0
EXTRACT: note_on channel=1 note=64 velocity=98 time=0.004098358333333333
EXTRACT: note_on channel=1 note=60 velocity=109 time=0
EXTRACT: note_on channel=1 note=55 velocity=115 time=0
EXTRACT: note_on channel=1 note=48 velocity=116 time=0
EXTRACT: note_on channel=9 note=40 velocity=0 time=0.02868850833333333
EXTRACT: note_on channel=9 note=28 velocity=0 time=0
EXTRACT: note_on channel=0 note=36 velocity=0 time=0.15163925833333333
EXTRACT: note_on channel=2 note=64 velocity=0 time=0.053278658333333326
EXTRACT: note_on channel=2 note=60 velocity=0 time=0
EXTRACT: note_on channel=2 note=55 velocity=0 time=0
EXTRACT: note_on channel=2 note=48 velocity=0 time=0
EXTRACT: note_on channel=2 note=64 velocity=97 time=0.004098358333333333
EXTRACT: note_on channel=2 note=60 velocity=86 time=0
EXTRACT: note_on channel=2 note=55 velocity=109 time=0
EXTRACT: note_on channel=0 note=36 velocity=107 time=0.004098358333333333
EXTRACT: note_on channel=1 note=64 velocity=0 time=0
EXTRACT: note_on channel=1 note=60 velocity=0 time=0
EXTRACT: note_on channel=1 note=55 velocity=0 time=0
EXTRACT: note_on channel=1 note=48 velocity=0 time=0
EXTRACT: note_on channel=1 note=64 velocity=111 time=0.004098358333333333
EXTRACT: note_on channel=1 note=60 velocity=100 time=0
EXTRACT: note_on channel=1 note=55 velocity=76 time=0
EXTRACT: note_on channel=0 note=36 velocity=0 time=0.18032776666666667
EXTRACT: note_on channel=2 note=64 velocity=0 time=0.053278658333333326
EXTRACT: note_on channel=2 note=60 velocity=0 time=0
EXTRACT: note_on channel=2 note=55 velocity=0 time=0
EXTRACT: note_on channel=9 note=36 velocity=60 time=0
EXTRACT: note_on channel=2 note=64 velocity=109 time=0.004098358333333333
EXTRACT: note_on channel=2 note=62 velocity=105 time=0
EXTRACT: note_on channel=2 note=57 velocity=115 time=0
EXTRACT: note_on channel=2 note=50 velocity=85 time=0
EXTRACT: note_on channel=0 note=38 velocity=105 time=0.004098358333333333
EXTRACT: note_on channel=1 note=64 velocity=0 time=0
EXTRACT: note_on channel=1 note=60 velocity=0 time=0
EXTRACT: note_on channel=1 note=55 velocity=0 time=0
EXTRACT: note_on channel=4 note=72 velocity=0 time=0.0010245895833333333
EXTRACT: note_on channel=4 note=67 velocity=0 time=0
EXTRACT: note_on channel=4 note=76 velocity=0 time=0
EXTRACT: note_on channel=4 note=76 velocity=109 time=0
EXTRACT: note_on channel=4 note=69 velocity=98 time=0
EXTRACT: note_on channel=4 note=74 velocity=115 time=0
EXTRACT: note_on channel=1 note=64 velocity=88 time=0.0030737687499999998
EXTRACT: note_on channel=1 note=62 velocity=117 time=0
EXTRACT: note_on channel=1 note=57 velocity=101 time=0
EXTRACT: note_on channel=1 note=50 velocity=82 time=0
EXTRACT: note_on channel=9 note=36 velocity=0 time=0.02868850833333333
EXTRACT: note_on channel=0 note=38 velocity=0 time=0.15163925833333333
EXTRACT: note_on channel=0 note=38 velocity=107 time=0.061475375
EXTRACT: note_on channel=0 note=38 velocity=0 time=0.184426125
EXTRACT: note_on channel=2 note=64 velocity=0 time=0.053278658333333326
EXTRACT: note_on channel=2 note=62 velocity=0 time=0
EXTRACT: note_on channel=2 note=57 velocity=0 time=0
EXTRACT: note_on channel=2 note=50 velocity=0 time=0
EXTRACT: note_on channel=9 note=40 velocity=72 time=0
EXTRACT: note_on channel=9 note=28 velocity=72 time=0
EXTRACT: note_on channel=2 note=64 velocity=99 time=0.004098358333333333
EXTRACT: note_on channel=2 note=62 velocity=100 time=0
EXTRACT: note_on channel=2 note=57 velocity=108 time=0
EXTRACT: note_on channel=2 note=50 velocity=109 time=0
EXTRACT: note_on channel=0 note=38 velocity=111 time=0.004098358333333333
EXTRACT: note_on channel=1 note=64 velocity=0 time=0
EXTRACT: note_on channel=1 note=62 velocity=0 time=0
EXTRACT: note_on channel=1 note=57 velocity=0 time=0
EXTRACT: note_on channel=1 note=50 velocity=0 time=0
EXTRACT: note_on channel=1 note=64 velocity=79 time=0.004098358333333333
EXTRACT: note_on channel=1 note=62 velocity=80 time=0
EXTRACT: note_on channel=1 note=57 velocity=81 time=0
EXTRACT: note_on channel=1 note=50 velocity=84 time=0
EXTRACT: note_on channel=9 note=40 velocity=0 time=0.02868850833333333
EXTRACT: note_on channel=9 note=28 velocity=0 time=0
EXTRACT: note_on channel=0 note=38 velocity=0 time=0.2131146333333333
EXTRACT: note_on channel=2 note=64 velocity=0 time=0.2377047833333333
EXTRACT: note_on channel=2 note=62 velocity=0 time=0
EXTRACT: note_on channel=2 note=57 velocity=0 time=0
EXTRACT: note_on channel=2 note=50 velocity=0 time=0
EXTRACT: note_on channel=9 note=36 velocity=60 time=0
EXTRACT: note_on channel=2 note=64 velocity=98 time=0.004098358333333333
EXTRACT: note_on channel=2 note=62 velocity=99 time=0
EXTRACT: note_on channel=2 note=57 velocity=101 time=0
EXTRACT: note_on channel=2 note=50 velocity=90 time=0
EXTRACT: note_on channel=5 note=69 velocity=101 time=0.0020491791666666665
EXTRACT: note_on channel=1 note=64 velocity=0 time=0.0020491791666666665
EXTRACT: note_on channel=1 note=62 velocity=0 time=0
EXTRACT: note_on channel=1 note=57 velocity=0 time=0
EXTRACT: note_on channel=1 note=50 velocity=0 time=0
EXTRACT: note_on channel=1 note=64 velocity=93 time=0.004098358333333333
EXTRACT: note_on channel=1 note=62 velocity=106 time=0
EXTRACT: note_on channel=1 note=57 velocity=82 time=0
EXTRACT: note_on channel=1 note=50 velocity=98 time=0
EXTRACT: note_on channel=9 note=36 velocity=0 time=0.02868850833333333
EXTRACT: note_on channel=2 note=64 velocity=0 time=0.20491791666666664
EXTRACT: note_on channel=2 note=62 velocity=0 time=0
EXTRACT: note_on channel=2 note=57 velocity=0 time=0
EXTRACT: note_on channel=2 note=50 velocity=0 time=0
EXTRACT: note_on channel=9 note=36 velocity=60 time=0
EXTRACT: note_on channel=5 note=69 velocity=0 time=0.0020491791666666665
EXTRACT: note_on channel=2 note=64 velocity=78 time=0.0020491791666666665
EXTRACT: note_on channel=2 note=62 velocity=73 time=0
EXTRACT: note_on channel=2 note=57 velocity=65 time=0
EXTRACT: note_on channel=5 note=69 velocity=88 time=0.0020491791666666665
EXTRACT: note_on channel=1 note=64 velocity=0 time=0.0020491791666666665
EXTRACT: note_on channel=1 note=62 velocity=0 time=0
EXTRACT: note_on channel=1 note=57 velocity=0 time=0
EXTRACT: note_on channel=1 note=50 velocity=0 time=0
EXTRACT: note_on channel=1 note=64 velocity=95 time=0.004098358333333333
EXTRACT: note_on channel=1 note=62 velocity=64 time=0
EXTRACT: note_on channel=1 note=57 velocity=92 time=0
EXTRACT: note_on channel=9 note=36 velocity=0 time=0.02868850833333333
EXTRACT: note_on channel=2 note=64 velocity=0 time=0.20491791666666664
EXTRACT: note_on channel=2 note=62 velocity=0 time=0
EXTRACT: note_on channel=2 note=57 velocity=0 time=0
EXTRACT: note_on channel=9 note=40 velocity=72 time=0
EXTRACT: note_on channel=9 note=28 velocity=72 time=0
EXTRACT: note_on channel=2 note=64 velocity=98 time=0.004098358333333333
EXTRACT: note_on channel=2 note=62 velocity=112 time=0
EXTRACT: note_on channel=2 note=57 velocity=106 time=0
EXTRACT: note_on channel=2 note=50 velocity=90 time=0
EXTRACT: note_on channel=5 note=69 velocity=0 time=0.0020491791666666665
EXTRACT: note_on channel=1 note=64 velocity=0 time=0.0020491791666666665
EXTRACT: note_on channel=1 note=62 velocity=0 time=0
EXTRACT: note_on channel=1 note=57 velocity=0 time=0
EXTRACT: note_on channel=1 note=64 velocity=87 time=0.004098358333333333
EXTRACT: note_on channel=1 note=62 velocity=88 time=0
EXTRACT: note_on channel=1 note=57 velocity=101 time=0
EXTRACT: note_on channel=1 note=50 velocity=100 time=0
EXTRACT: note_on channel=9 note=40 velocity=0 time=0.02868850833333333
EXTRACT: note_on channel=9 note=28 velocity=0 time=0
EXTRACT: note_on channel=2 note=64 velocity=0 time=0.20491791666666664
EXTRACT: note_on channel=2 note=62 velocity=0 time=0
EXTRACT: note_on channel=2 note=57 velocity=0 time=0
EXTRACT: note_on channel=2 note=50 velocity=0 time=0
EXTRACT: note_on channel=2 note=64 velocity=74 time=0.004098358333333333
EXTRACT: note_on channel=2 note=62 velocity=110 time=0
EXTRACT: note_on channel=2 note=57 velocity=98 time=0
EXTRACT: note_on channel=5 note=69 velocity=112 time=0.0020491791666666665
EXTRACT: note_on channel=1 note=64 velocity=0 time=0.0020491791666666665
EXTRACT: note_on channel=1 note=62 velocity=0 time=0
EXTRACT: note_on channel=1 note=57 velocity=0 time=0
EXTRACT: note_on channel=1 note=50 velocity=0 time=0
EXTRACT: note_on channel=1 note=64 velocity=112 time=0.004098358333333333
EXTRACT: note_on channel=1 note=62 velocity=100 time=0
EXTRACT: note_on channel=1 note=57 velocity=83 time=0
EXTRACT: note_on channel=9 note=36 velocity=60 time=0.23360642499999998
EXTRACT: note_on channel=5 note=69 velocity=0 time=0.0061475374999999995
EXTRACT: note_on channel=4 note=76 velocity=0 time=0.0030737687499999998
EXTRACT: note_on channel=4 note=77 velocity=99 time=0
EXTRACT: note_on channel=9 note=36 velocity=0 time=0.03176227708333333
EXTRACT: note_on channel=2 note=64 velocity=0 time=0.20491791666666664
EXTRACT: note_on channel=2 note=62 velocity=0 time=0
EXTRACT: note_on channel=2 note=57 velocity=0 time=0
EXTRACT: note_on channel=2 note=65 velocity=95 time=0.004098358333333333
EXTRACT: note_on channel=2 note=62 velocity=98 time=0
EXTRACT: note_on channel=2 note=57 velocity=99 time=0
EXTRACT: note_on channel=5 note=71 velocity=102 time=0.0020491791666666665
EXTRACT: note_on channel=1 note=64 velocity=0 time=0.0020491791666666665
EXTRACT: note_on channel=1 note=62 velocity=0 time=0
EXTRACT: note_on channel=1 note=57 velocity=0 time=0
EXTRACT: note_on channel=1 note=65 velocity=112 time=0.004098358333333333
EXTRACT: note_on channel=1 note=62 velocity=102 time=0
EXTRACT: note_on channel=1 note=57 velocity=115 time=0
EXTRACT: note_on channel=2 note=65 velocity=0 time=0.23360642499999998
EXTRACT: note_on channel=2 note=62 velocity=0 time=0
EXTRACT: note_on channel=2 note=57 velocity=0 time=0
EXTRACT: note_on channel=9 note=40 velocity=72 time=0
EXTRACT: note_on channel=9 note=28 velocity=72 time=0
EXTRACT: note_on channel=2 note=65 velocity=102 time=0.004098358333333333
EXTRACT: note_on channel=2 note=62 velocity=91 time=0
EXTRACT: note_on channel=2 note=57 velocity=113 time=0
EXTRACT: note_on channel=5 note=71 velocity=0 time=0.0020491791666666665
EXTRACT: note_on channel=1 note=65 velocity=0 time=0.0020491791666666665
EXTRACT: note_on channel=1 note=62 velocity=0 time=0
EXTRACT: note_on channel=1 note=57 velocity=0 time=0
EXTRACT: note_on channel=1 note=65 velocity=94 time=0.004098358333333333
EXTRACT: note_on channel=1 note=62 velocity=105 time=0
EXTRACT: note_on channel=1 note=57 velocity=104 time=0
EXTRACT: note_on channel=9 note=40 velocity=0 time=0.02868850833333333
EXTRACT: note_on channel=9 note=28 velocity=0 time=0
EXTRACT: note_on channel=2 note=65 velocity=0 time=0.20491791666666664
EXTRACT: note_on channel=2 note=62 velocity=0 time=0
EXTRACT: note_on channel=2 note=57 velocity=0 time=0
EXTRACT: note_on channel=2 note=65 velocity=109 time=0.004098358333333333
EXTRACT: note_on channel=2 note=62 velocity=107 time=0
EXTRACT: note_on channel=2 note=57 velocity=112 time=0
EXTRACT: note_on channel=2 note=50 velocity=70 time=0
EXTRACT: note_on channel=5 note=72 velocity=108 time=0.0020491791666666665
EXTRACT: note_on channel=1 note=65 velocity=0 time=0.0020491791666666665
EXTRACT: note_on channel=1 note=62 velocity=0 time=0
EXTRACT: note_on channel=1 note=57 velocity=0 time=0
EXTRACT: note_on channel=1 note=65 velocity=80 time=0.004098358333333333
EXTRACT: note_on channel=1 note=62 velocity=86 time=0
EXTRACT: note_on channel=1 note=57 velocity=63 time=0
EXTRACT: note_on channel=1 note=50 velocity=109 time=0
EXTRACT: note_on channel=2 note=65 velocity=0 time=0.23360642499999998
EXTRACT: note_on channel=2 note=62 velocity=0 time=0
EXTRACT: note_on channel=2 note=57 velocity=0 time=0
EXTRACT: note_on channel=2 note=50 velocity=0 time=0
EXTRACT: note_on channel=9 note=36 velocity=60 time=0
EXTRACT: note_on channel=2 note=65 velocity=106 time=0.004098358333333333
EXTRACT: note_on channel=2 note=62 velocity=97 time=0
EXTRACT: note_on channel=2 note=57 velocity=90 time=0
EXTRACT: note_on channel=2 note=50 velocity=85 time=0
EXTRACT: note_on channel=1 note=65 velocity=0 time=0.004098358333333333
EXTRACT: note_on channel=1 note=62 velocity=0 time=0
EXTRACT: note_on channel=1 note=57 velocity=0 time=0
EXTRACT: note_on channel=1 note=50 velocity=0 time=0
EXTRACT: note_on channel=1 note=65 velocity=108 time=0.004098358333333333
EXTRACT: note_on channel=1 note=62 velocity=114 time=0
EXTRACT: note_on channel=1 note=57 velocity=101 time=0
EXTRACT: note_on channel=1 note=50 velocity=116 time=0
EXTRACT: note_on channel=9 note=36 velocity=0 time=0.02868850833333333
EXTRACT: note_on channel=2 note=65 velocity=0 time=0.20491791666666664
EXTRACT: note_on channel=2 note=62 velocity=0 time=0
EXTRACT: note_on channel=2 note=57 velocity=0 time=0
EXTRACT: note_on channel=2 note=50 velocity=0 time=0
EXTRACT: note_on channel=9 note=36 velocity=60 time=0
EXTRACT: note_on channel=2 note=65 velocity=101 time=0.004098358333333333
EXTRACT: note_on channel=2 note=62 velocity=110 time=0
EXTRACT: note_on channel=2 note=57 velocity=77 time=0
EXTRACT: note_on channel=1 note=65 velocity=0 time=0.004098358333333333
EXTRACT: note_on channel=1 note=62 velocity=0 time=0
EXTRACT: note_on channel=1 note=57 velocity=0 time=0
EXTRACT: note_on channel=1 note=50 velocity=0 time=0
EXTRACT: note_on channel=1 note=65 velocity=93 time=0.004098358333333333
EXTRACT: note_on channel=1 note=62 velocity=112 time=0
EXTRACT: note_on channel=1 note=57 velocity=105 time=0
EXTRACT: note_on channel=9 note=36 velocity=0 time=0.02868850833333333
EXTRACT: note_on channel=2 note=65 velocity=0 time=0.20491791666666664
EXTRACT: note_on channel=2 note=62 velocity=0 time=0
EXTRACT: note_on channel=2 note=57 velocity=0 time=0
EXTRACT: note_on channel=9 note=40 velocity=72 time=0
EXTRACT: note_on channel=9 note=28 velocity=72 time=0
EXTRACT: note_on channel=2 note=65 velocity=107 time=0.004098358333333333
EXTRACT: note_on channel=2 note=62 velocity=113 time=0
EXTRACT: note_on channel=2 note=57 velocity=89 time=0
EXTRACT: note_on channel=2 note=50 velocity=117 time=0
EXTRACT: note_on channel=1 note=65 velocity=0 time=0.004098358333333333
EXTRACT: note_on channel=1 note=62 velocity=0 time=0
EXTRACT: note_on channel=1 note=57 velocity=0 time=0
EXTRACT: note_on channel=1 note=65 velocity=117 time=0.004098358333333333
EXTRACT: note_on channel=1 note=62 velocity=89 time=0
EXTRACT: note_on channel=1 note=57 velocity=103 time=0
EXTRACT: note_on channel=1 note=50 velocity=105 time=0
EXTRACT: note_on channel=9 note=40 velocity=0 time=0.02868850833333333
EXTRACT: note_on channel=9 note=28 velocity=0 time=0
EXTRACT: note_on channel=2 note=65 velocity=0 time=0.20491791666666664
EXTRACT: note_on channel=2 note=62 velocity=0 time=0
EXTRACT: note_on channel=2 note=57 velocity=0 time=0
EXTRACT: note_on channel=2 note=50 velocity=0 time=0
EXTRACT: note_on channel=2 note=65 velocity=112 time=0.004098358333333333
EXTRACT: note_on channel=2 note=62 velocity=75 time=0
EXTRACT: note_on channel=2 note=57 velocity=71 time=0
EXTRACT: note_on channel=2 note=50 velocity=84 time=0
EXTRACT: note_on channel=1 note=65 velocity=0 time=0.004098358333333333
EXTRACT: note_on channel=1 note=62 velocity=0 time=0
EXTRACT: note_on channel=1 note=57 velocity=0 time=0
EXTRACT: note_on channel=1 note=50 velocity=0 time=0
EXTRACT: note_on channel=1 note=65 velocity=100 time=0.004098358333333333
EXTRACT: note_on channel=1 note=62 velocity=97 time=0
EXTRACT: note_on channel=1 note=57 velocity=91 time=0
EXTRACT: note_on channel=1 note=50 velocity=84 time=0
EXTRACT: note_on channel=2 note=65 velocity=0 time=0.23360642499999998
EXTRACT: note_on channel=2 note=62 velocity=0 time=0
EXTRACT: note_on channel=2 note=57 velocity=0 time=0
EXTRACT: note_on channel=2 note=50 velocity=0 time=0
EXTRACT: note_on channel=9 note=36 velocity=60 time=0
EXTRACT: note_on channel=5 note=72 velocity=0 time=0.0020491791666666665
EXTRACT: note_on channel=2 note=64 velocity=88 time=0.0020491791666666665
EXTRACT: note_on channel=2 note=62 velocity=113 time=0
EXTRACT: note_on channel=2 note=55 velocity=86 time=0
EXTRACT: note_on channel=2 note=48 velocity=113 time=0
EXTRACT: note_on channel=5 note=71 velocity=117 time=0.0020491791666666665
EXTRACT: note_on channel=1 note=65 velocity=0 time=0.0020491791666666665
EXTRACT: note_on channel=1 note=62 velocity=0 time=0
EXTRACT: note_on channel=1 note=57 velocity=0 time=0
EXTRACT: note_on channel=1 note=50 velocity=0 time=0
EXTRACT: note_on channel=4 note=69 velocity=0 time=0.0010245895833333333
EXTRACT: note_on channel=4 note=74 velocity=0 time=0
EXTRACT: note_on channel=4 note=77 velocity=0 time=0
EXTRACT: note_on channel=4 note=74 velocity=94 time=0
EXTRACT: note_on channel=4 note=72 velocity=91 time=0
EXTRACT: note_on channel=4 note=67 velocity=112 time=0
EXTRACT: note_on channel=1 note=64 velocity=92 time=0.0030737687499999998
EXTRACT: note_on channel=1 note=62 velocity=99 time=0
EXTRACT: note_on channel=1 note=55 velocity=88 time=0
EXTRACT: note_on channel=1 note=48 velocity=104 time=0
EXTRACT: note_on channel=9 note=36 velocity=0 time=0.02868850833333333
EXTRACT: note_on channel=2 note=64 velocity=0 time=0.45081941666666664
EXTRACT: note_on channel=2 note=62 velocity=0 time=0
EXTRACT: note_on channel=2 note=55 velocity=0 time=0
EXTRACT: note_on channel=2 note=48 velocity=0 time=0
EXTRACT: note_on channel=9 note=40 velocity=72 time=0
EXTRACT: note_on channel=9 note=28 velocity=72 time=0
EXTRACT: note_on channel=2 note=64 velocity=104 time=0.004098358333333333
EXTRACT: note_on channel=2 note=62 velocity=99 time=0
EXTRACT: note_on channel=2 note=55 velocity=109 time=0
EXTRACT: note_on channel=2 note=48 velocity=101 time=0
EXTRACT: note_on channel=1 note=64 velocity=0 time=0.004098358333333333
EXTRACT: note_on channel=1 note=62 velocity=0 time=0
EXTRACT: note_on channel=1 note=55 velocity=0 time=0
EXTRACT: note_on channel=1 note=48 velocity=0 time=0
EXTRACT: note_on channel=1 note=64 velocity=90 time=0.004098358333333333
EXTRACT: note_on channel=1 note=62 velocity=84 time=0
EXTRACT: note_on channel=1 note=55 velocity=80 time=0
EXTRACT: note_on channel=1 note=48 velocity=102 time=0
EXTRACT: note_on channel=9 note=40 velocity=0 time=0.02868850833333333
EXTRACT: note_on channel=9 note=28 velocity=0 time=0
EXTRACT: note_on channel=5 note=71 velocity=0 time=0.2069670958333333
EXTRACT: note_on channel=5 note=67 velocity=107 time=0.004098358333333333
EXTRACT: note_on channel=2 note=64 velocity=0 time=0.23975396249999997
EXTRACT: note_on channel=2 note=62 velocity=0 time=0
EXTRACT: note_on channel=2 note=55 velocity=0 time=0
EXTRACT: note_on channel=2 note=48 velocity=0 time=0
EXTRACT: note_on channel=9 note=36 velocity=60 time=0
EXTRACT: note_on channel=2 note=64 velocity=110 time=0.004098358333333333
EXTRACT: note_on channel=2 note=62 velocity=115 time=0
EXTRACT: note_on channel=2 note=55 velocity=86 time=0
EXTRACT: note_on channel=1 note=64 velocity=0 time=0.004098358333333333
EXTRACT: note_on channel=1 note=62 velocity=0 time=0
EXTRACT: note_on channel=1 note=55 velocity=0 time=0
EXTRACT: note_on channel=1 note=48 velocity=0 time=0
EXTRACT: note_on channel=1 note=64 velocity=112 time=0.004098358333333333
EXTRACT: note_on channel=1 note=62 velocity=89 time=0
EXTRACT: note_on channel=1 note=55 velocity=88 time=0
EXTRACT: note_on channel=9 note=36 velocity=0 time=0.02868850833333333
EXTRACT: note_on channel=2 note=64 velocity=0 time=0.20491791666666664
EXTRACT: note_on channel=2 note=62 velocity=0 time=0
EXTRACT: note_on channel=2 note=55 velocity=0 time=0
EXTRACT: note_on channel=9 note=36 velocity=60 time=0
EXTRACT: note_on channel=5 note=67 velocity=0 time=0.0020491791666666665
EXTRACT: note_on channel=2 note=64 velocity=85 time=0.0020491791666666665
EXTRACT: note_on channel=2 note=62 velocity=106 time=0
EXTRACT: note_on channel=2 note=55 velocity=77 time=0
EXTRACT: note_on channel=2 note=48 velocity=84 time=0
EXTRACT: note_on channel=5 note=67 velocity=95 time=0.0020491791666666665
EXTRACT: note_on channel=1 note=64 velocity=0 time=0.0020491791666666665
EXTRACT: note_on channel=1 note=62 velocity=0 time=0
EXTRACT: note_on channel=1 note=55 velocity=0 time=0
EXTRACT: note_on channel=1 note=64 velocity=94 time=0.004098358333333333
EXTRACT: note_on channel=1 note=62 velocity=67 time=0
EXTRACT: note_on channel=1 note=55 velocity=86 time=0
EXTRACT: note_on channel=1 note=48 velocity=96 time=0
EXTRACT: note_on channel=9 note=36 velocity=0 time=0.02868850833333333
EXTRACT: note_on channel=2 note=64 velocity=0 time=0.20491791666666664
EXTRACT: note_on channel=2 note=62 velocity=0 time=0
EXTRACT: note_on channel=2 note=55 velocity=0 time=0
EXTRACT: note_on channel=2 note=48 velocity=0 time=0
EXTRACT: note_on channel=9 note=40 velocity=72 time=0
EXTRACT: note_on channel=9 note=28 velocity=72 time=0
EXTRACT: note_on channel=5 note=67 velocity=0 time=0.0020491791666666665
EXTRACT: note_on channel=2 note=64 velocity=115 time=0.0020491791666666665
EXTRACT: note_on channel=2 note=62 velocity=117 time=0
EXTRACT: note_on channel=2 note=55 velocity=94 time=0
EXTRACT: note_on channel=2 note=48 velocity=87 time=0
EXTRACT: note_on channel=5 note=60 velocity=89 time=0.0020491791666666665
EXTRACT: note_on channel=1 note=64 velocity=0 time=0.0020491791666666665
EXTRACT: note_on channel=1 note=62 velocity=0 time=0
EXTRACT: note_on channel=1 note=55 velocity=0 time=0
EXTRACT: note_on channel=1 note=48 velocity=0 time=0
EXTRACT: note_on channel=1 note=64 velocity=85 time=0.004098358333333333
EXTRACT: note_on channel=1 note=62 velocity=90 time=0
EXTRACT: note_on channel=1 note=55 velocity=89 time=0
EXTRACT: note_on channel=1 note=48 velocity=117 time=0
EXTRACT: note_on channel=9 note=40 velocity=0 time=0.02868850833333333
EXTRACT: note_on channel=9 note=28 velocity=0 time=0
EXTRACT: note_on channel=2 note=64 velocity=0 time=0.20491791666666664
EXTRACT: note_on channel=2 note=62 velocity=0 time=0
EXTRACT: note_on channel=2 note=55 velocity=0 time=0
EXTRACT: note_on channel=2 note=48 velocity=0 time=0
EXTRACT: note_on channel=2 note=64 velocity=97 time=0.004098358333333333
EXTRACT: note_on channel=2 note=62 velocity=115 time=0
EXTRACT: note_on channel=2 note=55 velocity=83 time=0
EXTRACT: note_on channel=1 note=64 velocity=0 time=0.004098358333333333
EXTRACT: note_on channel=1 note=62 velocity=0 time=0
EXTRACT: note_on channel=1 note=55 velocity=0 time=0
EXTRACT: note_on channel=1 note=48 velocity=0 time=0
EXTRACT: note_on channel=1 note=64 velocity=64 time=0.004098358333333333
EXTRACT: note_on channel=1 note=62 velocity=117 time=0
EXTRACT: note_on channel=1 note=55 velocity=103 time=0
EXTRACT: note_on channel=9 note=36 velocity=60 time=0.23360642499999998
EXTRACT: note_on channel=4 note=74 velocity=0 time=0.009221306249999998
EXTRACT: note_on channel=4 note=76 velocity=110 time=0
EXTRACT: note_on channel=9 note=36 velocity=0 time=0.03176227708333333
EXTRACT: note_on channel=2 note=64 velocity=0 time=0.20491791666666664
EXTRACT: note_on channel=2 note=62 velocity=0 time=0
EXTRACT: note_on channel=2 note=55 velocity=0 time=0
EXTRACT: note_on channel=2 note=64 velocity=96 time=0.004098358333333333
EXTRACT: note_on channel=2 note=60 velocity=66 time=0
EXTRACT: note_on channel=2 note=55 velocity=91 time=0
EXTRACT: note_on channel=0 note=36 velocity=113 time=0.004098358333333333
EXTRACT: note_on channel=1 note=64 velocity=0 time=0
EXTRACT: note_on channel=1 note=62 velocity=0 time=0
EXTRACT: note_on channel=1 note=55 velocity=0 time=0
EXTRACT: note_on channel=1 note=64 velocity=77 time=0.004098358333333333
EXTRACT: note_on channel=1 note=60 velocity=60 time=0
EXTRACT: note_on channel=1 note=55 velocity=115 time=0
EXTRACT: note_on channel=0 note=36 velocity=0 time=0.18032776666666667
EXTRACT: note_on channel=2 note=64 velocity=0 time=0.053278658333333326
EXTRACT: note_on channel=2 note=60 velocity=0 time=0
EXTRACT: note_on channel=2 note=55 velocity=0 time=0
EXTRACT: note_on channel=9 note=40 velocity=72 time=0
EXTRACT: note_on channel=9 note=28 velocity=72 time=0
EXTRACT: note_on channel=2 note=64 velocity=104 time=0.004098358333333333
EXTRACT: note_on channel=2 note=60 velocity=116 time=0
EXTRACT: note_on channel=2 note=55 velocity=96 time=0
EXTRACT: note_on channel=2 note=48 velocity=110 time=0
EXTRACT: note_on channel=0 note=36 velocity=105 time=0.004098358333333333
EXTRACT: note_on channel=1 note=64 velocity=0 time=0
EXTRACT: note_on channel=1 note=60 velocity=0 time=0
EXTRACT: note_on channel=1 note=55 velocity=0 time=0
EXTRACT: note_on channel=1 note=64 velocity=105 time=0.004098358333333333
EXTRACT: note_on channel=1 note=60 velocity=113 time=0
EXTRACT: note_on channel=1 note=55 velocity=93 time=0
EXTRACT: note_on channel=1 note=48 velocity=86 time=0
EXTRACT: note_on channel=9 note=40 velocity=0 time=0.02868850833333333
EXTRACT: note_on channel=9 note=28 velocity=0 time=0
EXTRACT: note_on channel=0 note=36 velocity=0 time=0.15163925833333333
EXTRACT: note_on channel=2 note=64 velocity=0 time=0.053278658333333326
EXTRACT: note_on channel=2 note=60 velocity=0 time=0
EXTRACT: note_on channel=2 note=55 velocity=0 time=0
EXTRACT: note_on channel=2 note=48 velocity=0 time=0
EXTRACT: note_on channel=2 note=64 velocity=115 time=0.004098358333333333
EXTRACT: note_on channel=2 note=60 velocity=115 time=0
EXTRACT: note_on channel=2 note=55 velocity=78 time=0
EXTRACT: note_on channel=0 note=36 velocity=105 time=0.004098358333333333
EXTRACT: note_on channel=1 note=64 velocity=0 time=0
EXTRACT: note_on channel=1 note=60 velocity=0 time=0
EXTRACT: note_on channel=1 note=55 velocity=0 time=0
EXTRACT: note_on channel=1 note=48 velocity=0 time=0
EXTRACT: note_on channel=1 note=64 velocity=105 time=0.004098358333333333
EXTRACT: note_on channel=1 note=60 velocity=68 time=0
EXTRACT: note_on channel=1 note=55 velocity=62 time=0
EXTRACT: note_on channel=0 note=36 velocity=0 time=0.18032776666666667
EXTRACT: note_on channel=2 note=64 velocity=0 time=0.053278658333333326
EXTRACT: note_on channel=2 note=60 velocity=0 time=0
EXTRACT: note_on channel=2 note=55 velocity=0 time=0
EXTRACT: note_on channel=9 note=36 velocity=60 time=0
EXTRACT: note_on channel=2 note=64 velocity=97 time=0.004098358333333333
EXTRACT: note_on channel=2 note=60 velocity=90 time=0
EXTRACT: note_on channel=2 note=55 velocity=97 time=0
EXTRACT: note_on channel=2 note=48 velocity=90 time=0
EXTRACT: note_on channel=0 note=36 velocity=124 time=0.004098358333333333
EXTRACT: note_on channel=1 note=64 velocity=0 time=0
EXTRACT: note_on channel=1 note=60 velocity=0 time=0
EXTRACT: note_on channel=1 note=55 velocity=0 time=0
EXTRACT: note_on channel=1 note=64 velocity=92 time=0.004098358333333333
EXTRACT: note_on channel=1 note=60 velocity=91 time=0
EXTRACT: note_on channel=1 note=55 velocity=83 time=0
EXTRACT: note_on channel=1 note=48 velocity=102 time=0
EXTRACT: note_on channel=9 note=36 velocity=0 time=0.02868850833333333
EXTRACT: note_on channel=0 note=36 velocity=0 time=0.15163925833333333
EXTRACT: note_on channel=2 note=64 velocity=0 time=0.053278658333333326
EXTRACT: note_on channel=2 note=60 velocity=0 time=0
EXTRACT: note_on channel=2 note=55 velocity=0 time=0
EXTRACT: note_on channel=2 note=48 velocity=0 time=0
EXTRACT: note_on channel=9 note=36 velocity=60 time=0
EXTRACT: note_on channel=2 note=64 velocity=103 time=0.004098358333333333
EXTRACT: note_on channel=2 note=60 velocity=68 time=0
EXTRACT: note_on channel=2 note=55 velocity=72 time=0
EXTRACT: note_on channel=0 note=36 velocity=107 time=0.004098358333333333
EXTRACT: note_on channel=1 note=64 velocity=0 time=0
EXTRACT: note_on channel=1 note=60 velocity=0 time=0
EXTRACT: note_on channel=1 note=55 velocity=0 time=0
EXTRACT: note_on channel=1 note=48 velocity=0 time=0
EXTRACT: note_on channel=1 note=64 velocity=100 time=0.004098358333333333
EXTRACT: note_on channel=1 note=60 velocity=114 time=0
EXTRACT: note_on channel=1 note=55 velocity=75 time=0
EXTRACT: note_on channel=9 note=36 velocity=0 time=0.02868850833333333
EXTRACT: note_on channel=0 note=36 velocity=0 time=0.15163925833333333
EXTRACT: note_on channel=2 note=64 velocity=0 time=0.053278658333333326
EXTRACT: note_on channel=2 note=60 velocity=0 time=0
EXTRACT: note_on channel=2 note=55 velocity=0 time=0
EXTRACT: note_on channel=9 note=40 velocity=72 time=0
EXTRACT: note_on channel=9 note=28 velocity=72 time=0
EXTRACT: note_on channel=2 note=64 velocity=89 time=0.004098358333333333
EXTRACT: note_on channel=2 note=60 velocity=86 time=0
EXTRACT: note_on channel=2 note=55 velocity=109 time=0
EXTRACT: note_on channel=2 note=48 velocity=102 time=0
EXTRACT: note_on channel=0 note=33 velocity=116 time=0.004098358333333333
EXTRACT: note_on channel=1 note=64 velocity=0 time=0
EXTRACT: note_on channel=1 note=60 velocity=0 time=0
EXTRACT: note_on channel=1 note=55 velocity=0 time=0
EXTRACT: note_on channel=1 note=64 velocity=90 time=0.004098358333333333
EXTRACT: note_on channel=1 note=60 velocity=94 time=0
EXTRACT: note_on channel=1 note=55 velocity=94 time=0
EXTRACT: note_on channel=1 note=48 velocity=91 time=0
EXTRACT: note_on channel=9 note=40 velocity=0 time=0.02868850833333333
EXTRACT: note_on channel=9 note=28 velocity=0 time=0
EXTRACT: note_on channel=2 note=64 velocity=0 time=0.20491791666666664
EXTRACT: note_on channel=2 note=60 velocity=0 time=0
EXTRACT: note_on channel=2 note=55 velocity=0 time=0
EXTRACT: note_on channel=2 note=48 velocity=0 time=0
EXTRACT: note_on channel=2 note=64 velocity=66 time=0.004098358333333333
EXTRACT: note_on channel=2 note=60 velocity=94 time=0
EXTRACT: note_on channel=2 note=55 velocity=112 time=0
EXTRACT: note_on channel=0 note=33 velocity=0 time=0.004098358333333333
EXTRACT: note_on channel=1 note=64 velocity=0 time=0
EXTRACT: note_on channel=1 note=60 velocity=0 time=0
EXTRACT: note_on channel=1 note=55 velocity=0 time=0
EXTRACT: note_on channel=1 note=48 velocity=0 time=0
EXTRACT: note_on channel=1 note=64 velocity=70 time=0.004098358333333333
EXTRACT: note_on channel=1 note=60 velocity=99 time=0
EXTRACT: note_on channel=1 note=55 velocity=66 time=0
EXTRACT: note_on channel=2 note=64 velocity=0 time=0.23360642499999998
EXTRACT: note_on channel=2 note=60 velocity=0 time=0
EXTRACT: note_on channel=2 note=55 velocity=0 time=0
EXTRACT: note_on channel=9 note=36 velocity=60 time=0
EXTRACT: note_on channel=2 note=64 velocity=103 time=0.004098358333333333
EXTRACT: note_on channel=2 note=62 velocity=95 time=0
EXTRACT: note_on channel=2 note=57 velocity=111 time=0
EXTRACT: note_on channel=2 note=50 velocity=107 time=0
EXTRACT: note_on channel=5 note=60 velocity=0 time=0.0020491791666666665
EXTRACT: note_on channel=0 note=38 velocity=114 time=0.0020491791666666665
EXTRACT: note_on channel=1 note=64 velocity=0 time=0
EXTRACT: note_on channel=1 note=60 velocity=0 time=0
EXTRACT: note_on channel=1 note=55 velocity=0 time=0
EXTRACT: note_on channel=4 note=72 velocity=0 time=0.0010245895833333333
EXTRACT: note_on channel=4 note=67 velocity=0 time=0
EXTRACT: note_on channel=4 note=76 velocity=0 time=0
EXTRACT: note_on channel=4 note=76 velocity=115 time=0
EXTRACT: note_on channel=4 note=69 velocity=95 time=0
EXTRACT: note_on channel=4 note=74 velocity=91 time=0
EXTRACT: note_on channel=1 note=64 velocity=105 time=0.0030737687499999998
EXTRACT: note_on channel=1 note=62 velocity=115 time=0
EXTRACT: note_on channel=1 note=57 velocity=115 time=0
EXTRACT: note_on channel=1 note=50 velocity=110 time=0
EXTRACT: note_on channel=9 note=36 velocity=0 time=0.02868850833333333
EXTRACT: note_on channel=0 note=38 velocity=0 time=0.15163925833333333
EXTRACT: note_on channel=0 note=38 velocity=104 time=0.061475375
EXTRACT: note_on channel=0 note=38 velocity=0 time=0.184426125
EXTRACT: note_on channel=2 note=64 velocity=0 time=0.053278658333333326
EXTRACT: note_on channel=2 note=62 velocity=0 time=0
EXTRACT: note_on channel=2 note=57 velocity=0 time=0
EXTRACT: note_on channel=2 note=50 velocity=0 time=0
EXTRACT: note_on channel=9 note=40 velocity=72 time=0
EXTRACT: note_on channel=9 note=28 velocity=72 time=0
EXTRACT: note_on channel=2 note=64 velocity=103 time=0.004098358333333333
EXTRACT: note_on channel=2 note=62 velocity=98 time=0
EXTRACT: note_on channel=2 note=57 velocity=85 time=0
EXTRACT: note_on channel=2 note=50 velocity=109 time=0
EXTRACT: note_on channel=0 note=38 velocity=126 time=0.004098358333333333
EXTRACT: note_on channel=1 note=64 velocity=0 time=0
EXTRACT: note_on channel=1 note=62 velocity=0 time=0
EXTRACT: note_on channel=1 note=57 velocity=0 time=0
EXTRACT: note_on channel=1 note=50 velocity=0 time=0
EXTRACT: note_on channel=1 note=64 velocity=85 time=0.004098358333333333
EXTRACT: note_on channel=1 note=62 velocity=84 time=0
EXTRACT: note_on channel=1 note=57 velocity=95 time=0
EXTRACT: note_on channel=1 note=50 velocity=115 time=0
EXTRACT: note_on channel=9 note=40 velocity=0 time=0.02868850833333333
EXTRACT: note_on channel=9 note=28 velocity=0 time=0
EXTRACT: note_on channel=0 note=38 velocity=0 time=0.2131146333333333
EXTRACT: note_on channel=2 note=64 velocity=0 time=0.2377047833333333
EXTRACT: note_on channel=2 note=62 velocity=0 time=0
EXTRACT: note_on channel=2 note=57 velocity=0 time=0
EXTRACT: note_on channel=2 note=50 velocity=0 time=0
EXTRACT: note_on channel=9 note=36 velocity=60 time=0
EXTRACT: note_on channel=2 note=64 velocity=93 time=0.004098358333333333
EXTRACT: note_on channel=2 note=62 velocity=110 time=0
EXTRACT: note_on channel=2 note=57 velocity=104 time=0
EXTRACT: note_on channel=2 note=50 velocity=116 time=0
EXTRACT: note_on channel=5 note=69 velocity=95 time=0.0020491791666666665
EXTRACT: note_on channel=1 note=64 velocity=0 time=0.0020491791666666665
EXTRACT: note_on channel=1 note=62 velocity=0 time=0
EXTRACT: note_on channel=1 note=57 velocity=0 time=0
EXTRACT: note_on channel=1 note=50 velocity=0 time=0
EXTRACT: note_on channel=1 note=64 velocity=113 time=0.004098358333333333
EXTRACT: note_on channel=1 note=62 velocity=95 time=0
EXTRACT: note_on channel=1 note=57 velocity=95 time=0
EXTRACT: note_on channel=1 note=50 velocity=79 time=0
EXTRACT: note_on channel=9 note=36 velocity=0 time=0.02868850833333333
EXTRACT: note_on channel=2 note=64 velocity=0 time=0.20491791666666664
EXTRACT: note_on channel=2 note=62 velocity=0 time=0
EXTRACT: note_on channel=2 note=57 velocity=0 time=0
EXTRACT: note_on channel=2 note=50 velocity=0 time=0
EXTRACT: note_on channel=9 note=36 velocity=60 time=0
EXTRACT: note_on channel=2 note=64 velocity=107 time=0.004098358333333333
EXTRACT: note_on channel=2 note=62 velocity=110 time=0
EXTRACT: note_on channel=2 note=57 velocity=72 time=0
EXTRACT: note_on channel=1 note=64 velocity=0 time=0.004098358333333333
EXTRACT: note_on channel=1 note=62 velocity=0 time=0
EXTRACT: note_on channel=1 note=57 velocity=0 time=0
EXTRACT: note_on channel=1 note=50 velocity=0 time=0
EXTRACT: note_on channel=1 note=64 velocity=89 time=0.004098358333333333
EXTRACT: note_on channel=1 note=62 velocity=88 time=0
EXTRACT: note_on channel=1 note=57 velocity=88 time=0
EXTRACT: note_on channel=9 note=36 velocity=0 time=0.02868850833333333
EXTRACT: note_on channel=2 note=64 velocity=0 time=0.20491791666666664
EXTRACT: note_on channel=2 note=62 velocity=0 time=0
EXTRACT: note_on channel=2 note=57 velocity=0 time=0
EXTRACT: note_on channel=9 note=40 velocity=72 time=0
EXTRACT: note_on channel=9 note=28 velocity=72 time=0
EXTRACT: note_on channel=5 note=69 velocity=0 time=0.0020491791666666665
EXTRACT: note_on channel=2 note=64 velocity=96 time=0.0020491791666666665
EXTRACT: note_on channel=2 note=62 velocity=89 time=0
EXTRACT: note_on channel=2 note=57 velocity=86 time=0
EXTRACT: note_on channel=2 note=50 velocity=89 time=0
EXTRACT: note_on channel=5 note=60 velocity=103 time=0.0020491791666666665
EXTRACT: note_on channel=1 note=64 velocity=0 time=0.0020491791666666665
EXTRACT: note_on channel=1 note=62 velocity=0 time=0
EXTRACT: note_on channel=1 note=57 velocity=0 time=0
EXTRACT: note_on channel=1 note=64 velocity=108 time=0.004098358333333333
EXTRACT: note_on channel=1 note=62 velocity=90 time=0
EXTRACT: note_on channel=1 note=57 velocity=111 time=0
EXTRACT: note_on channel=1 note=50 velocity=80 time=0
EXTRACT: note_on channel=9 note=40 velocity=0 time=0.02868850833333333
EXTRACT: note_on channel=9 note=28 velocity=0 time=0
EXTRACT: note_on channel=2 note=64 velocity=0 time=0.20491791666666664
EXTRACT: note_on channel=2 note=62 velocity=0 time=0
EXTRACT: note_on channel=2 note=57 velocity=0 time=0
EXTRACT: note_on channel=2 note=50 velocity=0 time=0
EXTRACT: note_on channel=5 note=60 velocity=0 time=0.0020491791666666665
EXTRACT: note_on channel=2 note=64 velocity=86 time=0.0020491791666666665
EXTRACT: note_on channel=2 note=62 velocity=68 time=0
EXTRACT: note_on channel=2 note=57 velocity=92 time=0
EXTRACT: note_on channel=5 note=62 velocity=103 time=0.0020491791666666665
EXTRACT: note_on channel=1 note=64 velocity=0 time=0.0020491791666666665
EXTRACT: note_on channel=1 note=62 velocity=0 time=0
EXTRACT: note_on channel=1 note=57 velocity=0 time=0
EXTRACT: note_on channel=1 note=50 velocity=0 time=0
EXTRACT: note_on channel=1 note=64 velocity=79 time=0.004098358333333333
EXTRACT: note_on channel=1 note=62 velocity=93 time=0
EXTRACT: note_on channel=1 note=57 velocity=109 time=0
EXTRACT: note_on channel=2 note=64 velocity=0 time=0.23360642499999998
EXTRACT: note_on channel=2 note=62 velocity=0 time=0
EXTRACT: note_on channel=2 note=57 velocity=0 time=0
EXTRACT: note_on channel=2 note=65 velocity=104 time=0.004098358333333333
EXTRACT: note_on channel=2 note=62 velocity=101 time=0
EXTRACT: note_on channel=2 note=50 velocity=84 time=0
EXTRACT: note_on channel=2 note=57 velocity=88 time=0
EXTRACT: note_on channel=5 note=62 velocity=0 time=0.0020491791666666665
EXTRACT: note_on channel=1 note=64 velocity=0 time=0.0020491791666666665
EXTRACT: note_on channel=1 note=62 velocity=0 time=0
EXTRACT: note_on channel=1 note=57 velocity=0 time=0
EXTRACT: note_on channel=4 note=76 velocity=0 time=0.0010245895833333333
EXTRACT: note_on channel=4 note=69 velocity=0 time=0
EXTRACT: note_on channel=4 note=74 velocity=0 time=0
EXTRACT: note_on channel=4 note=77 velocity=81 time=0
EXTRACT: note_on channel=1 note=65 velocity=71 time=0.0030737687499999998
EXTRACT: note_on channel=1 note=62 velocity=61 time=0
EXTRACT: note_on channel=1 note=50 velocity=93 time=0
EXTRACT: note_on channel=1 note=57 velocity=113 time=0
EXTRACT: note_on channel=5 note=67 velocity=94 time=0.9774584624999999
EXTRACT: note_on channel=5 note=67 velocity=0 time=0.24180314166666664
EXTRACT: note_on channel=5 note=67 velocity=102 time=0.004098358333333333
EXTRACT: note_on channel=9 note=40 velocity=110 time=0.23975396249999997
EXTRACT: note_on channel=5 note=67 velocity=0 time=0.0020491791666666665
EXTRACT: note_on channel=5 note=60 velocity=87 time=0.004098358333333333
EXTRACT: note_on channel=9 note=40 velocity=127 time=0.018442612499999997
EXTRACT: note_on channel=9 note=40 velocity=0 time=0.016393433333333332
EXTRACT: note_on channel=9 note=40 velocity=0 time=0.024590149999999998
EXTRACT: note_on channel=5 note=60 velocity=0 time=0.18237694583333333
EXTRACT: note_on channel=5 note=62 velocity=86 time=0.004098358333333333
EXTRACT: note_on channel=2 note=65 velocity=0 time=0.23975396249999997
EXTRACT: note_on channel=2 note=62 velocity=0 time=0
EXTRACT: note_on channel=2 note=50 velocity=0 time=0
EXTRACT: note_on channel=2 note=57 velocity=0 time=0
EXTRACT: note_on channel=9 note=42 velocity=59 time=0
EXTRACT: note_on channel=9 note=36 velocity=120 time=0
EXTRACT: note_on channel=2 note=59 velocity=91 time=0.004098358333333333
EXTRACT: note_on channel=2 note=62 velocity=115 time=0
EXTRACT: note_on channel=2 note=55 velocity=92 time=0
EXTRACT: note_on channel=2 note=48 velocity=102 time=0
EXTRACT: note_on channel=0 note=36 velocity=119 time=0.004098358333333333
EXTRACT: note_on channel=1 note=65 velocity=0 time=0
EXTRACT: note_on channel=1 note=62 velocity=0 time=0
EXTRACT: note_on channel=1 note=50 velocity=0 time=0
EXTRACT: note_on channel=1 note=57 velocity=0 time=0
EXTRACT: note_on channel=4 note=77 velocity=0 time=0.0010245895833333333
EXTRACT: note_on channel=4 note=76 velocity=96 time=0
EXTRACT: note_on channel=4 note=83 velocity=96 time=0
EXTRACT: note_on channel=4 note=79 velocity=105 time=0
EXTRACT: note_on channel=4 note=72 velocity=93 time=0
EXTRACT: note_on channel=1 note=59 velocity=81 time=0.0030737687499999998
EXTRACT: note_on channel=1 note=62 velocity=85 time=0
EXTRACT: note_on channel=1 note=55 velocity=112 time=0
EXTRACT: note_on channel=1 note=48 velocity=114 time=0
EXTRACT: note_on channel=9 note=42 velocity=0 time=0.02868850833333333
EXTRACT: note_on channel=9 note=36 velocity=0 time=0
EXTRACT: note_on channel=9 note=42 velocity=50 time=0.20491791666666664
EXTRACT: note_on channel=0 note=36 velocity=0 time=0.008196716666666666
EXTRACT: note_on channel=9 note=42 velocity=0 time=0.032786866666666664
EXTRACT: note_on channel=2 note=59 velocity=0 time=0.20491791666666664
EXTRACT: note_on channel=2 note=62 velocity=0 time=0
EXTRACT: note_on channel=2 note=55 velocity=0 time=0
EXTRACT: note_on channel=2 note=48 velocity=0 time=0
EXTRACT: note_on channel=9 note=40 velocity=127 time=0
EXTRACT: note_on channel=9 note=42 velocity=57 time=0
EXTRACT: note_on channel=2 note=59 velocity=94 time=0.004098358333333333
EXTRACT: note_on channel=2 note=62 velocity=116 time=0
EXTRACT: note_on channel=2 note=55 velocity=97 time=0
EXTRACT: note_on channel=2 note=48 velocity=101 time=0
EXTRACT: note_on channel=0 note=36 velocity=124 time=0.004098358333333333
EXTRACT: note_on channel=1 note=59 velocity=0 time=0
EXTRACT: note_on channel=1 note=62 velocity=0 time=0
EXTRACT: note_on channel=1 note=55 velocity=0 time=0
EXTRACT: note_on channel=1 note=48 velocity=0 time=0
EXTRACT: note_on channel=1 note=59 velocity=96 time=0.004098358333333333
EXTRACT: note_on channel=1 note=62 velocity=93 time=0
EXTRACT: note_on channel=1 note=55 velocity=103 time=0
EXTRACT: note_on channel=1 note=48 velocity=107 time=0
EXTRACT: note_on channel=9 note=40 velocity=0 time=0.02868850833333333
EXTRACT: note_on channel=9 note=42 velocity=0 time=0
EXTRACT: note_on channel=9 note=42 velocity=68 time=0.20491791666666664
EXTRACT: note_on channel=0 note=36 velocity=0 time=0.008196716666666666
EXTRACT: note_on channel=9 note=42 velocity=0 time=0.032786866666666664
EXTRACT: note_on channel=2 note=59 velocity=0 time=0.20491791666666664
EXTRACT: note_on channel=2 note=62 velocity=0 time=0
EXTRACT: note_on channel=2 note=55 velocity=0 time=0
EXTRACT: note_on channel=2 note=48 velocity=0 time=0
EXTRACT: note_on channel=9 note=36 velocity=120 time=0
EXTRACT: note_on channel=9 note=42 velocity=58 time=0
EXTRACT: note_on channel=2 note=59 velocity=100 time=0.004098358333333333
EXTRACT: note_on channel=2 note=62 velocity=109 time=0
EXTRACT: note_on channel=2 note=55 velocity=95 time=0
EXTRACT: note_on channel=0 note=36 velocity=118 time=0.004098358333333333
EXTRACT: note_on channel=1 note=59 velocity=0 time=0
EXTRACT: note_on channel=1 note=62 velocity=0 time=0
EXTRACT: note_on channel=1 note=55 velocity=0 time=0
EXTRACT: note_on channel=1 note=48 velocity=0 time=0
EXTRACT: note_on channel=1 note=59 velocity=106 time=0.004098358333333333
EXTRACT: note_on channel=1 note=62 velocity=89 time=0
EXTRACT: note_on channel=1 note=55 velocity=110 time=0
EXTRACT: note_on channel=9 note=36 velocity=0 time=0.02868850833333333
EXTRACT: note_on channel=9 note=42 velocity=0 time=0
EXTRACT: note_on channel=2 note=59 velocity=0 time=0.20491791666666664
EXTRACT: note_on channel=2 note=62 velocity=0 time=0
EXTRACT: note_on channel=2 note=55 velocity=0 time=0
EXTRACT: note_on channel=9 note=36 velocity=110 time=0
EXTRACT: note_on channel=9 note=42 velocity=41 time=0
EXTRACT: note_on channel=0 note=36 velocity=0 time=0.004098358333333333
EXTRACT: note_on channel=2 note=59 velocity=107 time=0
EXTRACT: note_on channel=2 note=62 velocity=103 time=0
EXTRACT: note_on channel=2 note=55 velocity=108 time=0
EXTRACT: note_on channel=2 note=48 velocity=100 time=0
EXTRACT: note_on channel=0 note=36 velocity=120 time=0.004098358333333333
EXTRACT: note_on channel=1 note=59 velocity=0 time=0
EXTRACT: note_on channel=1 note=62 velocity=0 time=0
EXTRACT: note_on channel=1 note=55 velocity=0 time=0
EXTRACT: note_on channel=1 note=59 velocity=63 time=0.004098358333333333
EXTRACT: note_on channel=1 note=62 velocity=104 time=0
EXTRACT: note_on channel=1 note=55 velocity=64 time=0
EXTRACT: note_on channel=1 note=48 velocity=89 time=0
EXTRACT: note_on channel=9 note=36 velocity=0 time=0.02868850833333333
EXTRACT: note_on channel=9 note=42 velocity=0 time=0
EXTRACT: note_on channel=2 note=59 velocity=0 time=0.20491791666666664
EXTRACT: note_on channel=2 note=62 velocity=0 time=0
EXTRACT: note_on channel=2 note=55 velocity=0 time=0
EXTRACT: note_on channel=2 note=48 velocity=0 time=0
EXTRACT: note_on channel=9 note=40 velocity=127 time=0
EXTRACT: note_on channel=9 note=42 velocity=64 time=0
EXTRACT: note_on channel=0 note=36 velocity=0 time=0.004098358333333333
EXTRACT: note_on channel=2 note=59 velocity=91 time=0
EXTRACT: note_on channel=2 note=62 velocity=99 time=0
EXTRACT: note_on channel=2 note=55 velocity=112 time=0
EXTRACT: note_on channel=2 note=48 velocity=110 time=0
EXTRACT: note_on channel=0 note=36 velocity=112 time=0.004098358333333333
EXTRACT: note_on channel=1 note=59 velocity=0 time=0
EXTRACT: note_on channel=1 note=62 velocity=0 time=0
EXTRACT: note_on channel=1 note=55 velocity=0 time=0
EXTRACT: note_on channel=1 note=48 velocity=0 time=0
EXTRACT: note_on channel=1 note=59 velocity=109 time=0.004098358333333333
EXTRACT: note_on channel=1 note=62 velocity=114 time=0
EXTRACT: note_on channel=1 note=55 velocity=81 time=0
EXTRACT: note_on channel=1 note=48 velocity=94 time=0
EXTRACT: note_on channel=9 note=40 velocity=0 time=0.02868850833333333
EXTRACT: note_on channel=9 note=42 velocity=0 time=0
EXTRACT: note_on channel=2 note=59 velocity=0 time=0.20491791666666664
EXTRACT: note_on channel=2 note=62 velocity=0 time=0
EXTRACT: note_on channel=2 note=55 velocity=0 time=0
EXTRACT: note_on channel=2 note=48 velocity=0 time=0
EXTRACT: note_on channel=9 note=36 velocity=110 time=0
EXTRACT: note_on channel=9 note=42 velocity=50 time=0
EXTRACT: note_on channel=0 note=36 velocity=0 time=0.004098358333333333
EXTRACT: note_on channel=2 note=59 velocity=101 time=0
EXTRACT: note_on channel=2 note=62 velocity=87 time=0
EXTRACT: note_on channel=2 note=55 velocity=77 time=0
EXTRACT: note_on channel=0 note=36 velocity=102 time=0.004098358333333333
EXTRACT: note_on channel=1 note=59 velocity=0 time=0
EXTRACT: note_on channel=1 note=62 velocity=0 time=0
EXTRACT: note_on channel=1 note=55 velocity=0 time=0
EXTRACT: note_on channel=1 note=48 velocity=0 time=0
EXTRACT: note_on channel=1 note=59 velocity=68 time=0.004098358333333333
EXTRACT: note_on channel=1 note=62 velocity=110 time=0
EXTRACT: note_on channel=1 note=55 velocity=85 time=0
EXTRACT: note_on channel=9 note=36 velocity=0 time=0.02868850833333333
EXTRACT: note_on channel=9 note=42 velocity=0 time=0
EXTRACT: note_on channel=5 note=62 velocity=0 time=0.21106545416666664
EXTRACT: note_on channel=0 note=36 velocity=0 time=0.0020491791666666665
EXTRACT: note_on channel=2 note=59 velocity=0 time=0.2377047833333333
EXTRACT: note_on channel=2 note=62 velocity=0 time=0
EXTRACT: note_on channel=2 note=55 velocity=0 time=0
EXTRACT: note_on channel=9 note=40 velocity=120 time=0
EXTRACT: note_on channel=2 note=59 velocity=101 time=0.004098358333333333
EXTRACT: note_on channel=2 note=64 velocity=98 time=0
EXTRACT: note_on channel=2 note=55 velocity=104 time=0
EXTRACT: note_on channel=0 note=36 velocity=119 time=0.004098358333333333
EXTRACT: note_on channel=1 note=59 velocity=0 time=0
EXTRACT: note_on channel=1 note=62 velocity=0 time=0
EXTRACT: note_on channel=1 note=55 velocity=0 time=0
EXTRACT: note_on channel=1 note=59 velocity=66 time=0.004098358333333333
EXTRACT: note_on channel=1 note=64 velocity=98 time=0
EXTRACT: note_on channel=1 note=55 velocity=110 time=0
EXTRACT: note_on channel=9 note=40 velocity=0 time=0.02868850833333333
EXTRACT: note_on channel=9 note=40 velocity=100 time=0.08196716666666666
EXTRACT: note_on channel=9 note=40 velocity=0 time=0.04098358333333333
EXTRACT: note_on channel=2 note=59 velocity=0 time=0.08196716666666666
EXTRACT: note_on channel=2 note=64 velocity=0 time=0
EXTRACT: note_on channel=2 note=55 velocity=0 time=0
EXTRACT: note_on channel=9 note=40 velocity=127 time=0
EXTRACT: note_on channel=0 note=36 velocity=0 time=0.004098358333333333
EXTRACT: note_on channel=2 note=59 velocity=94 time=0
EXTRACT: note_on channel=2 note=64 velocity=117 time=0
EXTRACT: note_on channel=2 note=55 velocity=107 time=0
EXTRACT: note_on channel=2 note=48 velocity=87 time=0
EXTRACT: note_on channel=0 note=36 velocity=104 time=0.004098358333333333
EXTRACT: note_on channel=1 note=59 velocity=0 time=0
EXTRACT: note_on channel=1 note=64 velocity=0 time=0
EXTRACT: note_on channel=1 note=55 velocity=0 time=0
EXTRACT: note_on channel=1 note=59 velocity=86 time=0.004098358333333333
EXTRACT: note_on channel=1 note=64 velocity=98 time=0
EXTRACT: note_on channel=1 note=55 velocity=84 time=0
EXTRACT: note_on channel=1 note=48 velocity=88 time=0
EXTRACT: note_on channel=9 note=40 velocity=0 time=0.02868850833333333
EXTRACT: note_on channel=9 note=40 velocity=80 time=0.08196716666666666
EXTRACT: note_on channel=9 note=40 velocity=0 time=0.04098358333333333
EXTRACT: note_on channel=2 note=59 velocity=0 time=0.08196716666666666
EXTRACT: note_on channel=2 note=64 velocity=0 time=0
EXTRACT: note_on channel=2 note=55 velocity=0 time=0
EXTRACT: note_on channel=2 note=48 velocity=0 time=0
EXTRACT: note_on channel=9 note=36 velocity=120 time=0
EXTRACT: note_on channel=0 note=36 velocity=0 time=0.004098358333333333
EXTRACT: note_on channel=2 note=59 velocity=115 time=0
EXTRACT: note_on channel=2 note=64 velocity=75 time=0
EXTRACT: note_on channel=2 note=55 velocity=88 time=0
EXTRACT: note_on channel=0 note=36 velocity=122 time=0.004098358333333333
EXTRACT: note_on channel=1 note=59 velocity=0 time=0
EXTRACT: note_on channel=1 note=64 velocity=0 time=0
EXTRACT: note_on channel=1 note=55 velocity=0 time=0
EXTRACT: note_on channel=1 note=48 velocity=0 time=0
EXTRACT: note_on channel=1 note=59 velocity=114 time=0.004098358333333333
EXTRACT: note_on channel=1 note=64 velocity=100 time=0
EXTRACT: note_on channel=1 note=55 velocity=87 time=0
EXTRACT: note_on channel=9 note=36 velocity=0 time=0.02868850833333333
EXTRACT: note_on channel=2 note=59 velocity=0 time=0.20491791666666664
EXTRACT: note_on channel=2 note=64 velocity=0 time=0
EXTRACT: note_on channel=2 note=55 velocity=0 time=0
EXTRACT: note_on channel=9 note=40 velocity=120 time=0
EXTRACT: note_on channel=0 note=36 velocity=0 time=0.004098358333333333
EXTRACT: note_on channel=2 note=59 velocity=85 time=0
EXTRACT: note_on channel=2 note=64 velocity=110 time=0
EXTRACT: note_on channel=2 note=55 velocity=94 time=0
EXTRACT: note_on channel=2 note=48 velocity=90 time=0
EXTRACT: note_on channel=0 note=36 velocity=122 time=0.004098358333333333
EXTRACT: note_on channel=1 note=59 velocity=0 time=0
EXTRACT: note_on channel=1 note=64 velocity=0 time=0
EXTRACT: note_on channel=1 note=55 velocity=0 time=0
EXTRACT: note_on channel=1 note=59 velocity=104 time=0.004098358333333333
EXTRACT: note_on channel=1 note=64 velocity=111 time=0
EXTRACT: note_on channel=1 note=55 velocity=79 time=0
EXTRACT: note_on channel=1 note=48 velocity=117 time=0
EXTRACT: note_on channel=9 note=40 velocity=0 time=0.02868850833333333
EXTRACT: note_on channel=9 note=40 velocity=70 time=0.08196716666666666
EXTRACT: note_on channel=9 note=40 velocity=0 time=0.04098358333333333
EXTRACT: note_on channel=2 note=59 velocity=0 time=0.08196716666666666
EXTRACT: note_on channel=2 note=64 velocity=0 time=0
EXTRACT: note_on channel=2 note=55 velocity=0 time=0
EXTRACT: note_on channel=2 note=48 velocity=0 time=0
EXTRACT: note_on channel=9 note=40 velocity=127 time=0
EXTRACT: note_on channel=0 note=36 velocity=0 time=0.004098358333333333
EXTRACT: note_on channel=2 note=59 velocity=111 time=0
EXTRACT: note_on channel=2 note=64 velocity=90 time=0
EXTRACT: note_on channel=2 note=55 velocity=93 time=0
EXTRACT: note_on channel=0 note=36 velocity=115 time=0.004098358333333333
EXTRACT: note_on channel=1 note=59 velocity=0 time=0
EXTRACT: note_on channel=1 note=64 velocity=0 time=0
EXTRACT: note_on channel=1 note=55 velocity=0 time=0
EXTRACT: note_on channel=1 note=48 velocity=0 time=0
EXTRACT: note_on channel=1 note=59 velocity=80 time=0.004098358333333333
EXTRACT: note_on channel=1 note=64 velocity=81 time=0
EXTRACT: note_on channel=1 note=55 velocity=70 time=0
EXTRACT: note_on channel=9 note=40 velocity=0 time=0.02868850833333333
EXTRACT: note_on channel=9 note=40 velocity=80 time=0.08196716666666666
EXTRACT: note_on channel=9 note=40 velocity=0 time=0.04098358333333333
EXTRACT: note_on channel=2 note=59 velocity=0 time=0.08196716666666666
EXTRACT: note_on channel=2 note=64 velocity=0 time=0
EXTRACT: note_on channel=2 note=55 velocity=0 time=0
EXTRACT: note_on channel=9 note=40 velocity=127 time=0
EXTRACT: note_on channel=0 note=36 velocity=0 time=0.004098358333333333
EXTRACT: note_on channel=2 note=59 velocity=98 time=0
EXTRACT: note_on channel=2 note=64 velocity=101 time=0
EXTRACT: note_on channel=2 note=55 velocity=94 time=0
EXTRACT: note_on channel=2 note=48 velocity=88 time=0
EXTRACT: note_on channel=0 note=36 velocity=115 time=0.004098358333333333
EXTRACT: note_on channel=1 note=59 velocity=0 time=0
EXTRACT: note_on channel=1 note=64 velocity=0 time=0
EXTRACT: note_on channel=1 note=55 velocity=0 time=0
EXTRACT: note_on channel=1 note=59 velocity=98 time=0.004098358333333333
EXTRACT: note_on channel=1 note=64 velocity=80 time=0
EXTRACT: note_on channel=1 note=55 velocity=95 time=0
EXTRACT: note_on channel=1 note=48 velocity=108 time=0
EXTRACT: note_on channel=9 note=40 velocity=0 time=0.02868850833333333
EXTRACT: note_on channel=2 note=59 velocity=0 time=0.20491791666666664
EXTRACT: note_on channel=2 note=64 velocity=0 time=0
EXTRACT: note_on channel=2 note=55 velocity=0 time=0
EXTRACT: note_on channel=2 note=48 velocity=0 time=0
EXTRACT: note_on channel=9 note=40 velocity=90 time=0
EXTRACT: note_on channel=0 note=36 velocity=0 time=0.004098358333333333
EXTRACT: note_on channel=2 note=59 velocity=89 time=0
EXTRACT: note_on channel=2 note=64 velocity=115 time=0
EXTRACT: note_on channel=2 note=55 velocity=82 time=0
EXTRACT: note_on channel=0 note=36 velocity=110 time=0.004098358333333333
EXTRACT: note_on channel=1 note=59 velocity=0 time=0
EXTRACT: note_on channel=1 note=64 velocity=0 time=0
EXTRACT: note_on channel=1 note=55 velocity=0 time=0
EXTRACT: note_on channel=1 note=48 velocity=0 time=0
EXTRACT: note_on channel=1 note=59 velocity=87 time=0.004098358333333333
EXTRACT: note_on channel=1 note=64 velocity=110 time=0
EXTRACT: note_on channel=1 note=55 velocity=109 time=0
EXTRACT: note_on channel=9 note=40 velocity=0 time=0.02868850833333333
EXTRACT: note_on channel=9 note=40 velocity=127 time=0.08196716666666666
EXTRACT: note_on channel=9 note=40 velocity=0 time=0.04098358333333333
EXTRACT: note_on channel=2 note=59 velocity=0 time=0.08196716666666666
EXTRACT: note_on channel=2 note=64 velocity=0 time=0
EXTRACT: note_on channel=2 note=55 velocity=0 time=0
EXTRACT: note_on channel=9 note=49 velocity=100 time=0
EXTRACT: note_on channel=9 note=36 velocity=120 time=0
EXTRACT: note_on channel=0 note=36 velocity=0 time=0.004098358333333333
EXTRACT: note_on channel=2 note=64 velocity=85 time=0
EXTRACT: note_on channel=2 note=60 velocity=87 time=0
EXTRACT: note_on channel=2 note=55 velocity=104 time=0
EXTRACT: note_on channel=2 note=48 velocity=97 time=0
EXTRACT: note_on channel=0 note=36 velocity=114 time=0.004098358333333333
EXTRACT: note_on channel=1 note=59 velocity=0 time=0
EXTRACT: note_on channel=1 note=64 velocity=0 time=0
EXTRACT: note_on channel=1 note=55 velocity=0 time=0
EXTRACT: note_on channel=4 note=76 velocity=0 time=0.0010245895833333333
EXTRACT: note_on channel=4 note=83 velocity=0 time=0
EXTRACT: note_on channel=4 note=79 velocity=0 time=0
EXTRACT: note_on channel=4 note=72 velocity=0 time=0
EXTRACT: note_on channel=4 note=72 velocity=118 time=0
EXTRACT: note_on channel=4 note=76 velocity=112 time=0
EXTRACT: note_on channel=4 note=79 velocity=99 time=0
EXTRACT: note_on channel=1 note=64 velocity=89 time=0.0030737687499999998
EXTRACT: note_on channel=1 note=60 velocity=110 time=0
EXTRACT: note_on channel=1 note=55 velocity=115 time=0
EXTRACT: note_on channel=1 note=48 velocity=80 time=0
EXTRACT: note_on channel=9 note=49 velocity=0 time=0.02868850833333333
EXTRACT: note_on channel=9 note=36 velocity=0 time=0
EXTRACT: note_on channel=9 note=42 velocity=45 time=0.20491791666666664
EXTRACT: note_on channel=0 note=36 velocity=0 time=0.008196716666666666
EXTRACT: note_on channel=9 note=42 velocity=0 time=0.032786866666666664
EXTRACT: note_on channel=2 note=64 velocity=0 time=0.20491791666666664
EXTRACT: note_on channel=2 note=60 velocity=0 time=0
EXTRACT: note_on channel=2 note=55 velocity=0 time=0
EXTRACT: note_on channel=2 note=48 velocity=0 time=0
EXTRACT: note_on channel=9 note=40 velocity=127 time=0
EXTRACT: note_on channel=9 note=42 velocity=63 time=0
EXTRACT: note_on channel=2 note=64 velocity=105 time=0.004098358333333333
EXTRACT: note_on channel=2 note=60 velocity=106 time=0
EXTRACT: note_on channel=2 note=55 velocity=101 time=0
EXTRACT: note_on channel=2 note=48 velocity=94 time=0
EXTRACT: note_on channel=0 note=36 velocity=106 time=0.004098358333333333
EXTRACT: note_on channel=1 note=64 velocity=0 time=0
EXTRACT: note_on channel=1 note=60 velocity=0 time=0
EXTRACT: note_on channel=1 note=55 velocity=0 time=0
EXTRACT: note_on channel=1 note=48 velocity=0 time=0
EXTRACT: note_on channel=1 note=64 velocity=97 time=0.004098358333333333
EXTRACT: note_on channel=1 note=60 velocity=86 time=0
EXTRACT: note_on channel=1 note=55 velocity=95 time=0
EXTRACT: note_on channel=1 note=48 velocity=103 time=0
EXTRACT: note_on channel=9 note=40 velocity=0 time=0.02868850833333333
EXTRACT: note_on channel=9 note=42 velocity=0 time=0
EXTRACT: note_on channel=9 note=42 velocity=65 time=0.20491791666666664
EXTRACT: note_on channel=5 note=72 velocity=62 time=0.0061475374999999995
EXTRACT: note_on channel=5 note=67 velocity=99 time=0
EXTRACT: note_on channel=0 note=36 velocity=0 time=0.0020491791666666665
EXTRACT: note_on channel=9 note=42 velocity=0 time=0.032786866666666664
EXTRACT: note_on channel=2 note=64 velocity=0 time=0.20491791666666664
EXTRACT: note_on channel=2 note=60 velocity=0 time=0
EXTRACT: note_on channel=2 note=55 velocity=0 time=0
EXTRACT: note_on channel=2 note=48 velocity=0 time=0
EXTRACT: note_on channel=9 note=36 velocity=120 time=0
EXTRACT: note_on channel=9 note=42 velocity=59 time=0
EXTRACT: note_on channel=5 note=72 velocity=0 time=0.0020491791666666665
EXTRACT: note_on channel=5 note=67 velocity=0 time=0
EXTRACT: note_on channel=2 note=64 velocity=101 time=0.0020491791666666665
EXTRACT: note_on channel=2 note=60 velocity=101 time=0
EXTRACT: note_on channel=2 note=55 velocity=96 time=0
EXTRACT: note_on channel=5 note=72 velocity=51 time=0.0020491791666666665
EXTRACT: note_on channel=5 note=67 velocity=101 time=0
EXTRACT: note_on channel=0 note=36 velocity=115 time=0.0020491791666666665
EXTRACT: note_on channel=1 note=64 velocity=0 time=0
EXTRACT: note_on channel=1 note=60 velocity=0 time=0
EXTRACT: note_on channel=1 note=55 velocity=0 time=0
EXTRACT: note_on channel=1 note=48 velocity=0 time=0
EXTRACT: note_on channel=1 note=64 velocity=94 time=0.004098358333333333
EXTRACT: note_on channel=1 note=60 velocity=79 time=0
EXTRACT: note_on channel=1 note=55 velocity=113 time=0
EXTRACT: note_on channel=9 note=36 velocity=0 time=0.02868850833333333
EXTRACT: note_on channel=9 note=42 velocity=0 time=0
EXTRACT: note_on channel=0 note=36 velocity=0 time=0.15163925833333333
EXTRACT: note_on channel=2 note=64 velocity=0 time=0.053278658333333326
EXTRACT: note_on channel=2 note=60 velocity=0 time=0
EXTRACT: note_on channel=2 note=55 velocity=0 time=0
EXTRACT: note_on channel=9 note=36 velocity=110 time=0
EXTRACT: note_on channel=9 note=42 velocity=41 time=0
EXTRACT: note_on channel=5 note=72 velocity=0 time=0.0020491791666666665
EXTRACT: note_on channel=5 note=67 velocity=0 time=0
EXTRACT: note_on channel=2 note=64 velocity=74 time=0.0020491791666666665
EXTRACT: note_on channel=2 note=60 velocity=86 time=0
EXTRACT: note_on channel=2 note=55 velocity=94 time=0
EXTRACT: note_on channel=2 note=48 velocity=88 time=0
EXTRACT: note_on channel=5 note=74 velocity=66 time=0.0020491791666666665
EXTRACT: note_on channel=5 note=69 velocity=105 time=0
EXTRACT: note_on channel=0 note=36 velocity=114 time=0.0020491791666666665
EXTRACT: note_on channel=1 note=64 velocity=0 time=0
EXTRACT: note_on channel=1 note=60 velocity=0 time=0
EXTRACT: note_on channel=1 note=55 velocity=0 time=0
EXTRACT: note_on channel=1 note=64 velocity=81 time=0.004098358333333333
EXTRACT: note_on channel=1 note=60 velocity=73 time=0
EXTRACT: note_on channel=1 note=55 velocity=85 time=0
EXTRACT: note_on channel=1 note=48 velocity=95 time=0
EXTRACT: note_on channel=9 note=36 velocity=0 time=0.02868850833333333
EXTRACT: note_on channel=9 note=42 velocity=0 time=0
EXTRACT: note_on channel=2 note=64 velocity=0 time=0.20491791666666664
EXTRACT: note_on channel=2 note=60 velocity=0 time=0
EXTRACT: note_on channel=2 note=55 velocity=0 time=0
EXTRACT: note_on channel=2 note=48 velocity=0 time=0
EXTRACT: note_on channel=9 note=40 velocity=127 time=0
EXTRACT: note_on channel=9 note=42 velocity=55 time=0
EXTRACT: note_on channel=2 note=64 velocity=86 time=0.004098358333333333
EXTRACT: note_on channel=2 note=60 velocity=101 time=0
EXTRACT: note_on channel=2 note=55 velocity=89 time=0
EXTRACT: note_on channel=2 note=48 velocity=95 time=0
EXTRACT: note_on channel=5 note=74 velocity=0 time=0.0020491791666666665
EXTRACT: note_on channel=5 note=69 velocity=0 time=0
EXTRACT: note_on channel=0 note=36 velocity=0 time=0.0020491791666666665
EXTRACT: note_on channel=1 note=64 velocity=0 time=0
EXTRACT: note_on channel=1 note=60 velocity=0 time=0
EXTRACT: note_on channel=1 note=55 velocity=0 time=0
EXTRACT: note_on channel=1 note=48 velocity=0 time=0
EXTRACT: note_on channel=1 note=64 velocity=115 time=0.004098358333333333
EXTRACT: note_on channel=1 note=60 velocity=100 time=0
EXTRACT: note_on channel=1 note=55 velocity=116 time=0
EXTRACT: note_on channel=1 note=48 velocity=117 time=0
EXTRACT: note_on channel=9 note=40 velocity=0 time=0.02868850833333333
EXTRACT: note_on channel=9 note=42 velocity=0 time=0
EXTRACT: note_on channel=2 note=64 velocity=0 time=0.20491791666666664
EXTRACT: note_on channel=2 note=60 velocity=0 time=0
EXTRACT: note_on channel=2 note=55 velocity=0 time=0
EXTRACT: note_on channel=2 note=48 velocity=0 time=0
EXTRACT: note_on channel=9 note=36 velocity=110 time=0
EXTRACT: note_on channel=9 note=42 velocity=48 time=0
EXTRACT: note_on channel=2 note=64 velocity=113 time=0.004098358333333333
EXTRACT: note_on channel=2 note=60 velocity=110 time=0
EXTRACT: note_on channel=2 note=55 velocity=112 time=0
EXTRACT: note_on channel=5 note=76 velocity=53 time=0.0020491791666666665
EXTRACT: note_on channel=5 note=72 velocity=93 time=0
EXTRACT: note_on channel=0 note=40 velocity=117 time=0.0020491791666666665
EXTRACT: note_on channel=1 note=64 velocity=0 time=0
EXTRACT: note_on channel=1 note=60 velocity=0 time=0
EXTRACT: note_on channel=1 note=55 velocity=0 time=0
EXTRACT: note_on channel=1 note=48 velocity=0 time=0
EXTRACT: note_on channel=1 note=64 velocity=64 time=0.004098358333333333
EXTRACT: note_on channel=1 note=60 velocity=112 time=0
EXTRACT: note_on channel=1 note=55 velocity=87 time=0
EXTRACT: note_on channel=9 note=36 velocity=0 time=0.02868850833333333
EXTRACT: note_on channel=9 note=42 velocity=0 time=0
EXTRACT: note_on channel=2 note=64 velocity=0 time=0.20491791666666664
EXTRACT: note_on channel=2 note=60 velocity=0 time=0
EXTRACT: note_on channel=2 note=55 velocity=0 time=0
EXTRACT: note_on channel=9 note=42 velocity=68 time=0
EXTRACT: note_on channel=9 note=36 velocity=120 time=0
EXTRACT: note_on channel=0 note=40 velocity=0 time=0.004098358333333333
EXTRACT: note_on channel=2 note=62 velocity=92 time=0
EXTRACT: note_on channel=2 note=58 velocity=113 time=0
EXTRACT: note_on channel=2 note=55 velocity=101 time=0
EXTRACT: note_on channel=2 note=65 velocity=100 time=0
EXTRACT: note_on channel=0 note=43 velocity=120 time=0.004098358333333333
EXTRACT: note_on channel=1 note=64 velocity=0 time=0
EXTRACT: note_on channel=1 note=60 velocity=0 time=0
EXTRACT: note_on channel=1 note=55 velocity=0 time=0
EXTRACT: note_on channel=4 note=72 velocity=0 time=0.0010245895833333333
EXTRACT: note_on channel=4 note=76 velocity=0 time=0
EXTRACT: note_on channel=4 note=79 velocity=0 time=0
EXTRACT: note_on channel=4 note=74 velocity=91 time=0
EXTRACT: note_on channel=4 note=79 velocity=112 time=0
EXTRACT: note_on channel=4 note=82 velocity=106 time=0
EXTRACT: note_on channel=1 note=62 velocity=87 time=0.0030737687499999998
EXTRACT: note_on channel=1 note=58 velocity=97 time=0
EXTRACT: note_on channel=1 note=55 velocity=108 time=0
EXTRACT: note_on channel=1 note=65 velocity=105 time=0
EXTRACT: note_on channel=9 note=42 velocity=0 time=0.02868850833333333
EXTRACT: note_on channel=9 note=36 velocity=0 time=0
EXTRACT: note_on channel=9 note=36 velocity=120 time=0.20491791666666664
EXTRACT: note_on channel=9 note=42 velocity=50 time=0
EXTRACT: note_on channel=5 note=76 velocity=0 time=0.0020491791666666665
EXTRACT: note_on channel=5 note=72 velocity=0 time=0
EXTRACT: note_on channel=0 note=43 velocity=0 time=0.0020491791666666665
EXTRACT: note_on channel=5 note=76 velocity=45 time=0.0020491791666666665
EXTRACT: note_on channel=5 note=72 velocity=111 time=0
EXTRACT: note_on channel=0 note=43 velocity=124 time=0.0020491791666666665
EXTRACT: note_on channel=9 note=36 velocity=0 time=0.032786866666666664
EXTRACT: note_on channel=9 note=42 velocity=0 time=0
EXTRACT: note_on channel=2 note=62 velocity=0 time=0.20491791666666664
EXTRACT: note_on channel=2 note=58 velocity=0 time=0
EXTRACT: note_on channel=2 note=55 velocity=0 time=0
EXTRACT: note_on channel=2 note=65 velocity=0 time=0
EXTRACT: note_on channel=9 note=40 velocity=127 time=0
EXTRACT: note_on channel=9 note=42 velocity=63 time=0
EXTRACT: note_on channel=0 note=43 velocity=0 time=0.004098358333333333
EXTRACT: note_on channel=2 note=62 velocity=115 time=0
EXTRACT: note_on channel=2 note=58 velocity=116 time=0
EXTRACT: note_on channel=2 note=55 velocity=94 time=0
EXTRACT: note_on channel=2 note=65 velocity=91 time=0
EXTRACT: note_on channel=0 note=43 velocity=120 time=0.004098358333333333
EXTRACT: note_on channel=1 note=62 velocity=0 time=0
EXTRACT: note_on channel=1 note=58 velocity=0 time=0
EXTRACT: note_on channel=1 note=55 velocity=0 time=0
EXTRACT: note_on channel=1 note=65 velocity=0 time=0
EXTRACT: note_on channel=1 note=62 velocity=80 time=0.004098358333333333
EXTRACT: note_on channel=1 note=58 velocity=117 time=0
EXTRACT: note_on channel=1 note=55 velocity=92 time=0
EXTRACT: note_on channel=1 note=65 velocity=88 time=0
EXTRACT: note_on channel=9 note=40 velocity=0 time=0.02868850833333333
EXTRACT: note_on channel=9 note=42 velocity=0 time=0
EXTRACT: note_on channel=9 note=42 velocity=57 time=0.20491791666666664
EXTRACT: note_on channel=5 note=76 velocity=0 time=0.0020491791666666665
EXTRACT: note_on channel=5 note=72 velocity=0 time=0
EXTRACT: note_on channel=0 note=43 velocity=0 time=0.0020491791666666665
EXTRACT: note_on channel=5 note=74 velocity=71 time=0.0020491791666666665
EXTRACT: note_on channel=5 note=69 velocity=105 time=0
EXTRACT: note_on channel=0 note=35 velocity=115 time=0.0020491791666666665
EXTRACT: note_on channel=9 note=42 velocity=0 time=0.032786866666666664
EXTRACT: note_on channel=2 note=62 velocity=0 time=0.20491791666666664
EXTRACT: note_on channel=2 note=58 velocity=0 time=0
EXTRACT: note_on channel=2 note=55 velocity=0 time=0
EXTRACT: note_on channel=2 note=65 velocity=0 time=0
EXTRACT: note_on channel=9 note=36 velocity=120 time=0
EXTRACT: note_on channel=9 note=42 velocity=68 time=0
EXTRACT: note_on channel=0 note=35 velocity=0 time=0.004098358333333333
EXTRACT: note_on channel=2 note=62 velocity=115 time=0
EXTRACT: note_on channel=2 note=58 velocity=101 time=0
EXTRACT: note_on channel=2 note=55 velocity=101 time=0
EXTRACT: note_on channel=0 note=36 velocity=112 time=0.004098358333333333
EXTRACT: note_on channel=1 note=62 velocity=0 time=0
EXTRACT: note_on channel=1 note=58 velocity=0 time=0
EXTRACT: note_on channel=1 note=55 velocity=0 time=0
EXTRACT: note_on channel=1 note=65 velocity=0 time=0
EXTRACT: note_on channel=1 note=62 velocity=114 time=0.004098358333333333
EXTRACT: note_on channel=1 note=58 velocity=100 time=0
EXTRACT: note_on channel=1 note=55 velocity=95 time=0
EXTRACT: note_on channel=9 note=36 velocity=0 time=0.02868850833333333
EXTRACT: note_on channel=9 note=42 velocity=0 time=0
EXTRACT: note_on channel=2 note=62 velocity=0 time=0.20491791666666664
EXTRACT: note_on channel=2 note=58 velocity=0 time=0
EXTRACT: note_on channel=2 note=55 velocity=0 time=0
EXTRACT: note_on channel=9 note=36 velocity=110 time=0
EXTRACT: note_on channel=9 note=42 velocity=47 time=0
EXTRACT: note_on channel=5 note=74 velocity=0 time=0.0020491791666666665
EXTRACT: note_on channel=5 note=69 velocity=0 time=0
EXTRACT: note_on channel=0 note=36 velocity=0 time=0.0020491791666666665
EXTRACT: note_on channel=2 note=62 velocity=69 time=0
EXTRACT: note_on channel=2 note=58 velocity=100 time=0
EXTRACT: note_on channel=2 note=55 velocity=75 time=0
EXTRACT: note_on channel=2 note=65 velocity=79 time=0
EXTRACT: note_on channel=5 note=72 velocity=61 time=0.0020491791666666665
EXTRACT: note_on channel=5 note=67 velocity=105 time=0
EXTRACT: note_on channel=0 note=40 velocity=127 time=0.0020491791666666665
EXTRACT: note_on channel=1 note=62 velocity=0 time=0
EXTRACT: note_on channel=1 note=58 velocity=0 time=0
EXTRACT: note_on channel=1 note=55 velocity=0 time=0
EXTRACT: note_on channel=1 note=62 velocity=75 time=0.004098358333333333
EXTRACT: note_on channel=1 note=58 velocity=71 time=0
EXTRACT: note_on channel=1 note=55 velocity=93 time=0
EXTRACT: note_on channel=1 note=65 velocity=94 time=0
EXTRACT: note_on channel=9 note=36 velocity=0 time=0.02868850833333333
EXTRACT: note_on channel=9 note=42 velocity=0 time=0
EXTRACT: note_on channel=2 note=62 velocity=0 time=0.20491791666666664
EXTRACT: note_on channel=2 note=58 velocity=0 time=0
EXTRACT: note_on channel=2 note=55 velocity=0 time=0
EXTRACT: note_on channel=2 note=65 velocity=0 time=0
EXTRACT: note_on channel=9 note=40 velocity=127 time=0
EXTRACT: note_on channel=9 note=42 velocity=59 time=0
EXTRACT: note_on channel=0 note=40 velocity=0 time=0.004098358333333333
EXTRACT: note_on channel=2 note=62 velocity=96 time=0
EXTRACT: note_on channel=2 note=58 velocity=102 time=0
EXTRACT: note_on channel=2 note=55 velocity=117 time=0
EXTRACT: note_on channel=2 note=65 velocity=86 time=0
EXTRACT: note_on channel=0 note=43 velocity=106 time=0.004098358333333333
EXTRACT: note_on channel=1 note=62 velocity=0 time=0
EXTRACT: note_on channel=1 note=58 velocity=0 time=0
EXTRACT: note_on channel=1 note=55 velocity=0 time=0
EXTRACT: note_on channel=1 note=65 velocity=0 time=0
EXTRACT: note_on channel=1 note=62 velocity=86 time=0.004098358333333333
EXTRACT: note_on channel=1 note=58 velocity=84 time=0
EXTRACT: note_on channel=1 note=55 velocity=105 time=0
EXTRACT: note_on channel=1 note=65 velocity=105 time=0
EXTRACT: note_on channel=9 note=40 velocity=0 time=0.02868850833333333
EXTRACT: note_on channel=9 note=42 velocity=0 time=0
EXTRACT: note_on channel=2 note=62 velocity=0 time=0.20491791666666664
EXTRACT: note_on channel=2 note=58 velocity=0 time=0
EXTRACT: note_on channel=2 note=55 velocity=0 time=0
EXTRACT: note_on channel=2 note=65 velocity=0 time=0
EXTRACT: note_on channel=9 note=36 velocity=110 time=0
EXTRACT: note_on channel=9 note=42 velocity=43 time=0
EXTRACT: note_on channel=0 note=43 velocity=0 time=0.004098358333333333
EXTRACT: note_on channel=2 note=62 velocity=93 time=0
EXTRACT: note_on channel=2 note=58 velocity=91 time=0
EXTRACT: note_on channel=2 note=55 velocity=97 time=0
EXTRACT: note_on channel=0 note=31 velocity=115 time=0.004098358333333333
EXTRACT: note_on channel=1 note=62 velocity=0 time=0
EXTRACT: note_on channel=1 note=58 velocity=0 time=0
EXTRACT: note_on channel=1 note=55 velocity=0 time=0
EXTRACT: note_on channel=1 note=65 velocity=0 time=0
EXTRACT: note_on channel=1 note=62 velocity=105 time=0.004098358333333333
EXTRACT: note_on channel=1 note=58 velocity=102 time=0
EXTRACT: note_on channel=1 note=55 velocity=78 time=0
EXTRACT: note_on channel=9 note=36 velocity=0 time=0.02868850833333333
EXTRACT: note_on channel=9 note=42 velocity=0 time=0
EXTRACT: note_on channel=2 note=62 velocity=0 time=0.20491791666666664
EXTRACT: note_on channel=2 note=58 velocity=0 time=0
EXTRACT: note_on channel=2 note=55 velocity=0 time=0
EXTRACT: note_on channel=9 note=49 velocity=100 time=0
EXTRACT: note_on channel=9 note=36 velocity=120 time=0
EXTRACT: note_on channel=5 note=72 velocity=0 time=0.0020491791666666665
EXTRACT: note_on channel=5 note=67 velocity=0 time=0
EXTRACT: note_on channel=0 note=31 velocity=0 time=0.0020491791666666665
EXTRACT: note_on channel=2 note=60 velocity=90 time=0
EXTRACT: note_on channel=2 note=57 velocity=100 time=0
EXTRACT: note_on channel=2 note=53 velocity=85 time=0
EXTRACT: note_on channel=2 note=65 velocity=110 time=0
EXTRACT: note_on channel=5 note=72 velocity=61 time=0.0020491791666666665
EXTRACT: note_on channel=5 note=67 velocity=104 time=0
EXTRACT: note_on channel=0 note=41 velocity=104 time=0.0020491791666666665
EXTRACT: note_on channel=1 note=62 velocity=0 time=0
EXTRACT: note_on channel=1 note=58 velocity=0 time=0
EXTRACT: note_on channel=1 note=55 velocity=0 time=0
EXTRACT: note_on channel=4 note=74 velocity=0 time=0.0010245895833333333
EXTRACT: note_on channel=4 note=79 velocity=0 time=0
EXTRACT: note_on channel=4 note=82 velocity=0 time=0
EXTRACT: note_on channel=4 note=72 velocity=111 time=0
EXTRACT: note_on channel=4 note=77 velocity=94 time=0
EXTRACT: note_on channel=4 note=81 velocity=102 time=0
EXTRACT: note_on channel=1 note=60 velocity=99 time=0.0030737687499999998
EXTRACT: note_on channel=1 note=57 velocity=116 time=0
EXTRACT: note_on channel=1 note=53 velocity=93 time=0
EXTRACT: note_on channel=1 note=65 velocity=111 time=0
EXTRACT: note_on channel=9 note=49 velocity=0 time=0.02868850833333333
EXTRACT: note_on channel=9 note=36 velocity=0 time=0
EXTRACT: note_on channel=9 note=42 velocity=47 time=0.20491791666666664
EXTRACT: note_on channel=0 note=41 velocity=0 time=0.008196716666666666
EXTRACT: note_on channel=9 note=42 velocity=0 time=0.032786866666666664
EXTRACT: note_on channel=2 note=60 velocity=0 time=0.20491791666666664
EXTRACT: note_on channel=2 note=57 velocity=0 time=0
EXTRACT: note_on channel=2 note=53 velocity=0 time=0
EXTRACT: note_on channel=2 note=65 velocity=0 time=0
EXTRACT: note_on channel=9 note=40 velocity=127 time=0
EXTRACT: note_on channel=9 note=42 velocity=60 time=0
EXTRACT: note_on channel=5 note=72 velocity=0 time=0.0020491791666666665
EXTRACT: note_on channel=5 note=67 velocity=0 time=0
EXTRACT: note_on channel=2 note=60 velocity=98 time=0.0020491791666666665
EXTRACT: note_on channel=2 note=57 velocity=101 time=0
EXTRACT: note_on channel=2 note=53 velocity=87 time=0
EXTRACT: note_on channel=2 note=65 velocity=100 time=0
EXTRACT: note_on channel=5 note=69 velocity=70 time=0.0020491791666666665
EXTRACT: note_on channel=5 note=65 velocity=113 time=0
EXTRACT: note_on channel=0 note=41 velocity=104 time=0.0020491791666666665
EXTRACT: note_on channel=1 note=60 velocity=0 time=0
EXTRACT: note_on channel=1 note=57 velocity=0 time=0
EXTRACT: note_on channel=1 note=53 velocity=0 time=0
EXTRACT: note_on channel=1 note=65 velocity=0 time=0
EXTRACT: note_on channel=1 note=60 velocity=90 time=0.004098358333333333
EXTRACT: note_on channel=1 note=57 velocity=92 time=0
EXTRACT: note_on channel=1 note=53 velocity=117 time=0
EXTRACT: note_on channel=1 note=65 velocity=114 time=0
EXTRACT: note_on channel=9 note=40 velocity=0 time=0.02868850833333333
EXTRACT: note_on channel=9 note=42 velocity=0 time=0
EXTRACT: note_on channel=0 note=41 velocity=0 time=0.15163925833333333
EXTRACT: note_on channel=9 note=42 velocity=61 time=0.053278658333333326
EXTRACT: note_on channel=5 note=69 velocity=0 time=0.0020491791666666665
EXTRACT: note_on channel=5 note=65 velocity=0 time=0
EXTRACT: note_on channel=5 note=65 velocity=65 time=0.004098358333333333
EXTRACT: note_on channel=5 note=60 velocity=106 time=0
EXTRACT: note_on channel=0 note=45 velocity=106 time=0.0020491791666666665
EXTRACT: note_on channel=9 note=42 velocity=0 time=0.032786866666666664
EXTRACT: note_on channel=0 note=45 velocity=0 time=0.15163925833333333
EXTRACT: note_on channel=2 note=60 velocity=0 time=0.053278658333333326
EXTRACT: note_on channel=2 note=57 velocity=0 time=0
EXTRACT: note_on channel=2 note=53 velocity=0 time=0
EXTRACT: note_on channel=2 note=65 velocity=0 time=0
EXTRACT: note_on channel=9 note=36 velocity=120 time=0
EXTRACT: note_on channel=9 note=42 velocity=68 time=0
EXTRACT: note_on channel=2 note=60 velocity=115 time=0.004098358333333333
EXTRACT: note_on channel=2 note=57 velocity=98 time=0
EXTRACT: note_on channel=2 note=53 velocity=113 time=0
EXTRACT: note_on channel=0 note=48 velocity=102 time=0.004098358333333333
EXTRACT: note_on channel=1 note=60 velocity=0 time=0
EXTRACT: note_on channel=1 note=57 velocity=0 time=0
EXTRACT: note_on channel=1 note=53 velocity=0 time=0
EXTRACT: note_on channel=1 note=65 velocity=0 time=0
EXTRACT: note_on channel=1 note=60 velocity=101 time=0.004098358333333333
EXTRACT: note_on channel=1 note=57 velocity=114 time=0
EXTRACT: note_on channel=1 note=53 velocity=104 time=0
EXTRACT: note_on channel=9 note=36 velocity=0 time=0.02868850833333333
EXTRACT: note_on channel=9 note=42 velocity=0 time=0
EXTRACT: note_on channel=0 note=48 velocity=0 time=0.15163925833333333
EXTRACT: note_on channel=2 note=60 velocity=0 time=0.053278658333333326
EXTRACT: note_on channel=2 note=57 velocity=0 time=0
EXTRACT: note_on channel=2 note=53 velocity=0 time=0
EXTRACT: note_on channel=9 note=36 velocity=110 time=0
EXTRACT: note_on channel=9 note=42 velocity=41 time=0
EXTRACT: note_on channel=2 note=60 velocity=89 time=0.004098358333333333
EXTRACT: note_on channel=2 note=57 velocity=82 time=0
EXTRACT: note_on channel=2 note=53 velocity=97 time=0
EXTRACT: note_on channel=2 note=65 velocity=84 time=0
EXTRACT: note_on channel=0 note=45 velocity=106 time=0.004098358333333333
EXTRACT: note_on channel=1 note=60 velocity=0 time=0
EXTRACT: note_on channel=1 note=57 velocity=0 time=0
EXTRACT: note_on channel=1 note=53 velocity=0 time=0
EXTRACT: note_on channel=1 note=60 velocity=63 time=0.004098358333333333
EXTRACT: note_on channel=1 note=57 velocity=85 time=0
EXTRACT: note_on channel=1 note=53 velocity=72 time=0
EXTRACT: note_on channel=1 note=65 velocity=79 time=0
EXTRACT: note_on channel=9 note=36 velocity=0 time=0.02868850833333333
EXTRACT: note_on channel=9 note=42 velocity=0 time=0
EXTRACT: note_on channel=0 note=45 velocity=0 time=0.15163925833333333
EXTRACT: note_on channel=2 note=60 velocity=0 time=0.053278658333333326
EXTRACT: note_on channel=2 note=57 velocity=0 time=0
EXTRACT: note_on channel=2 note=53 velocity=0 time=0
EXTRACT: note_on channel=2 note=65 velocity=0 time=0
EXTRACT: note_on channel=9 note=40 velocity=127 time=0
EXTRACT: note_on channel=9 note=42 velocity=55 time=0
EXTRACT: note_on channel=2 note=60 velocity=96 time=0.004098358333333333
EXTRACT: note_on channel=2 note=57 velocity=104 time=0
EXTRACT: note_on channel=2 note=53 velocity=90 time=0
EXTRACT: note_on channel=2 note=65 velocity=87 time=0
EXTRACT: note_on channel=5 note=65 velocity=0 time=0.0020491791666666665
EXTRACT: note_on channel=5 note=60 velocity=0 time=0
EXTRACT: note_on channel=0 note=48 velocity=105 time=0.0020491791666666665
EXTRACT: note_on channel=1 note=60 velocity=0 time=0
EXTRACT: note_on channel=1 note=57 velocity=0 time=0
EXTRACT: note_on channel=1 note=53 velocity=0 time=0
EXTRACT: note_on channel=1 note=65 velocity=0 time=0
EXTRACT: note_on channel=1 note=60 velocity=98 time=0.004098358333333333
EXTRACT: note_on channel=1 note=57 velocity=90 time=0
EXTRACT: note_on channel=1 note=53 velocity=97 time=0
EXTRACT: note_on channel=1 note=65 velocity=95 time=0
EXTRACT: note_on channel=9 note=40 velocity=0 time=0.02868850833333333
EXTRACT: note_on channel=9 note=42 velocity=0 time=0
EXTRACT: note_on channel=0 note=48 velocity=0 time=0.15163925833333333
EXTRACT: note_on channel=2 note=60 velocity=0 time=0.053278658333333326
EXTRACT: note_on channel=2 note=57 velocity=0 time=0
EXTRACT: note_on channel=2 note=53 velocity=0 time=0
EXTRACT: note_on channel=2 note=65 velocity=0 time=0
EXTRACT: note_on channel=9 note=36 velocity=110 time=0
EXTRACT: note_on channel=9 note=42 velocity=41 time=0
EXTRACT: note_on channel=2 note=60 velocity=75 time=0.004098358333333333
EXTRACT: note_on channel=2 note=57 velocity=98 time=0
EXTRACT: note_on channel=2 note=53 velocity=74 time=0
EXTRACT: note_on channel=5 note=72 velocity=46 time=0.0020491791666666665
EXTRACT: note_on channel=5 note=67 velocity=95 time=0
EXTRACT: note_on channel=0 note=45 velocity=119 time=0.0020491791666666665
EXTRACT: note_on channel=1 note=60 velocity=0 time=0
EXTRACT: note_on channel=1 note=57 velocity=0 time=0
EXTRACT: note_on channel=1 note=53 velocity=0 time=0
EXTRACT: note_on channel=1 note=65 velocity=0 time=0
EXTRACT: note_on channel=1 note=60 velocity=62 time=0.004098358333333333
EXTRACT: note_on channel=1 note=57 velocity=90 time=0
EXTRACT: note_on channel=1 note=53 velocity=113 time=0
EXTRACT: note_on channel=9 note=36 velocity=0 time=0.02868850833333333
EXTRACT: note_on channel=9 note=42 velocity=0 time=0
EXTRACT: note_on channel=0 note=45 velocity=0 time=0.15163925833333333
EXTRACT: note_on channel=2 note=60 velocity=0 time=0.053278658333333326
EXTRACT: note_on channel=2 note=57 velocity=0 time=0
EXTRACT: note_on channel=2 note=53 velocity=0 time=0
EXTRACT: note_on channel=9 note=42 velocity=66 time=0
EXTRACT: note_on channel=9 note=36 velocity=120 time=0
EXTRACT: note_on channel=5 note=72 velocity=0 time=0.0020491791666666665
EXTRACT: note_on channel=5 note=67 velocity=0 time=0
EXTRACT: note_on channel=2 note=60 velocity=101 time=0.0020491791666666665
EXTRACT: note_on channel=2 note=56 velocity=94 time=0
EXTRACT: note_on channel=2 note=53 velocity=101 time=0
EXTRACT: note_on channel=2 note=62 velocity=90 time=0
EXTRACT: note_on channel=5 note=72 velocity=68 time=0.0020491791666666665
EXTRACT: note_on channel=5 note=67 velocity=112 time=0
EXTRACT: note_on channel=0 note=34 velocity=125 time=0.0020491791666666665
EXTRACT: note_on channel=1 note=60 velocity=0 time=0
EXTRACT: note_on channel=1 note=57 velocity=0 time=0
EXTRACT: note_on channel=1 note=53 velocity=0 time=0
EXTRACT: note_on channel=4 note=72 velocity=0 time=0.0010245895833333333
EXTRACT: note_on channel=4 note=77 velocity=0 time=0
EXTRACT: note_on channel=4 note=81 velocity=0 time=0
EXTRACT: note_on channel=4 note=74 velocity=93 time=0
EXTRACT: note_on channel=4 note=77 velocity=119 time=0
EXTRACT: note_on channel=4 note=80 velocity=113 time=0
EXTRACT: note_on channel=1 note=60 velocity=94 time=0.0030737687499999998
EXTRACT: note_on channel=1 note=56 velocity=103 time=0
EXTRACT: note_on channel=1 note=53 velocity=99 time=0
EXTRACT: note_on channel=1 note=62 velocity=102 time=0
EXTRACT: note_on channel=9 note=42 velocity=0 time=0.02868850833333333
EXTRACT: note_on channel=9 note=36 velocity=0 time=0
EXTRACT: note_on channel=0 note=34 velocity=0 time=0.15163925833333333
EXTRACT: note_on channel=9 note=42 velocity=44 time=0.053278658333333326
EXTRACT: note_on channel=0 note=36 velocity=115 time=0.008196716666666666
EXTRACT: note_on channel=9 note=42 velocity=0 time=0.032786866666666664
EXTRACT: note_on channel=0 note=36 velocity=0 time=0.15163925833333333
EXTRACT: note_on channel=2 note=60 velocity=0 time=0.053278658333333326
EXTRACT: note_on channel=2 note=56 velocity=0 time=0
EXTRACT: note_on channel=2 note=53 velocity=0 time=0
EXTRACT: note_on channel=2 note=62 velocity=0 time=0
EXTRACT: note_on channel=9 note=40 velocity=127 time=0
EXTRACT: note_on channel=9 note=42 velocity=63 time=0
EXTRACT: note_on channel=5 note=72 velocity=0 time=0.0020491791666666665
EXTRACT: note_on channel=5 note=67 velocity=0 time=0
EXTRACT: note_on channel=2 note=60 velocity=94 time=0.0020491791666666665
EXTRACT: note_on channel=2 note=56 velocity=101 time=0
EXTRACT: note_on channel=2 note=53 velocity=102 time=0
EXTRACT: note_on channel=2 note=62 velocity=93 time=0
EXTRACT: note_on channel=5 note=69 velocity=66 time=0.0020491791666666665
EXTRACT: note_on channel=5 note=65 velocity=114 time=0
EXTRACT: note_on channel=0 note=38 velocity=118 time=0.0020491791666666665
EXTRACT: note_on channel=1 note=60 velocity=0 time=0
EXTRACT: note_on channel=1 note=56 velocity=0 time=0
EXTRACT: note_on channel=1 note=53 velocity=0 time=0
EXTRACT: note_on channel=1 note=62 velocity=0 time=0
EXTRACT: note_on channel=1 note=60 velocity=110 time=0.004098358333333333
EXTRACT: note_on channel=1 note=56 velocity=109 time=0
EXTRACT: note_on channel=1 note=53 velocity=85 time=0
EXTRACT: note_on channel=1 note=62 velocity=97 time=0
EXTRACT: note_on channel=9 note=40 velocity=0 time=0.02868850833333333
EXTRACT: note_on channel=9 note=42 velocity=0 time=0
EXTRACT: note_on channel=0 note=38 velocity=0 time=0.15163925833333333
EXTRACT: note_on channel=9 note=42 velocity=66 time=0.053278658333333326
EXTRACT: note_on channel=5 note=69 velocity=0 time=0.0020491791666666665
EXTRACT: note_on channel=5 note=65 velocity=0 time=0
EXTRACT: note_on channel=5 note=65 velocity=71 time=0.004098358333333333
EXTRACT: note_on channel=5 note=60 velocity=102 time=0
EXTRACT: note_on channel=0 note=41 velocity=115 time=0.0020491791666666665
EXTRACT: note_on channel=9 note=42 velocity=0 time=0.032786866666666664
EXTRACT: note_on channel=2 note=60 velocity=0 time=0.20491791666666664
EXTRACT: note_on channel=2 note=56 velocity=0 time=0
EXTRACT: note_on channel=2 note=53 velocity=0 time=0
EXTRACT: note_on channel=2 note=62 velocity=0 time=0
EXTRACT: note_on channel=9 note=36 velocity=120 time=0
EXTRACT: note_on channel=9 note=42 velocity=58 time=0
EXTRACT: note_on channel=2 note=60 velocity=92 time=0.004098358333333333
EXTRACT: note_on channel=2 note=56 velocity=105 time=0
EXTRACT: note_on channel=2 note=53 velocity=100 time=0
EXTRACT: note_on channel=0 note=41 velocity=0 time=0.004098358333333333
EXTRACT: note_on channel=1 note=60 velocity=0 time=0
EXTRACT: note_on channel=1 note=56 velocity=0 time=0
EXTRACT: note_on channel=1 note=53 velocity=0 time=0
EXTRACT: note_on channel=1 note=62 velocity=0 time=0
EXTRACT: note_on channel=1 note=60 velocity=95 time=0.004098358333333333
EXTRACT: note_on channel=1 note=56 velocity=81 time=0
EXTRACT: note_on channel=1 note=53 velocity=102 time=0
EXTRACT: note_on channel=9 note=36 velocity=0 time=0.02868850833333333
EXTRACT: note_on channel=9 note=42 velocity=0 time=0
EXTRACT: note_on channel=2 note=60 velocity=0 time=0.20491791666666664
EXTRACT: note_on channel=2 note=56 velocity=0 time=0
EXTRACT: note_on channel=2 note=53 velocity=0 time=0
EXTRACT: note_on channel=9 note=36 velocity=110 time=0
EXTRACT: note_on channel=9 note=42 velocity=50 time=0
EXTRACT: note_on channel=5 note=65 velocity=0 time=0.0020491791666666665
EXTRACT: note_on channel=5 note=60 velocity=0 time=0
EXTRACT: note_on channel=2 note=60 velocity=108 time=0.0020491791666666665
EXTRACT: note_on channel=2 note=56 velocity=71 time=0
EXTRACT: note_on channel=2 note=53 velocity=98 time=0
EXTRACT: note_on channel=2 note=62 velocity=79 time=0
EXTRACT: note_on channel=5 note=67 velocity=72 time=0.0020491791666666665
EXTRACT: note_on channel=5 note=62 velocity=105 time=0
EXTRACT: note_on channel=0 note=38 velocity=103 time=0.0020491791666666665
EXTRACT: note_on channel=1 note=60 velocity=0 time=0
EXTRACT: note_on channel=1 note=56 velocity=0 time=0
EXTRACT: note_on channel=1 note=53 velocity=0 time=0
EXTRACT: note_on channel=1 note=60 velocity=75 time=0.004098358333333333
EXTRACT: note_on channel=1 note=56 velocity=117 time=0
EXTRACT: note_on channel=1 note=53 velocity=66 time=0
EXTRACT: note_on channel=1 note=62 velocity=72 time=0
EXTRACT: note_on channel=9 note=36 velocity=0 time=0.02868850833333333
EXTRACT: note_on channel=9 note=42 velocity=0 time=0
EXTRACT: note_on channel=0 note=38 velocity=0 time=0.15163925833333333
EXTRACT: note_on channel=2 note=60 velocity=0 time=0.053278658333333326
EXTRACT: note_on channel=2 note=56 velocity=0 time=0
EXTRACT: note_on channel=2 note=53 velocity=0 time=0
EXTRACT: note_on channel=2 note=62 velocity=0 time=0
EXTRACT: note_on channel=9 note=40 velocity=127 time=0
EXTRACT: note_on channel=9 note=42 velocity=63 time=0
EXTRACT: note_on channel=5 note=67 velocity=0 time=0.0020491791666666665
EXTRACT: note_on channel=5 note=62 velocity=0 time=0
EXTRACT: note_on channel=2 note=60 velocity=102 time=0.0020491791666666665
EXTRACT: note_on channel=2 note=56 velocity=94 time=0
EXTRACT: note_on channel=2 note=53 velocity=110 time=0
EXTRACT: note_on channel=2 note=62 velocity=105 time=0
EXTRACT: note_on channel=5 note=67 velocity=79 time=0.0020491791666666665
EXTRACT: note_on channel=5 note=64 velocity=96 time=0
EXTRACT: note_on channel=0 note=41 velocity=112 time=0.0020491791666666665
EXTRACT: note_on channel=1 note=60 velocity=0 time=0
EXTRACT: note_on channel=1 note=56 velocity=0 time=0
EXTRACT: note_on channel=1 note=53 velocity=0 time=0
EXTRACT: note_on channel=1 note=62 velocity=0 time=0
EXTRACT: note_on channel=1 note=60 velocity=106 time=0.004098358333333333
EXTRACT: note_on channel=1 note=56 velocity=106 time=0
EXTRACT: note_on channel=1 note=53 velocity=109 time=0
EXTRACT: note_on channel=1 note=62 velocity=83 time=0
EXTRACT: note_on channel=9 note=40 velocity=0 time=0.02868850833333333
EXTRACT: note_on channel=9 note=42 velocity=0 time=0
EXTRACT: note_on channel=0 note=41 velocity=0 time=0.15163925833333333
EXTRACT: note_on channel=2 note=60 velocity=0 time=0.053278658333333326
EXTRACT: note_on channel=2 note=56 velocity=0 time=0
EXTRACT: note_on channel=2 note=53 velocity=0 time=0
EXTRACT: note_on channel=2 note=62 velocity=0 time=0
EXTRACT: note_on channel=9 note=36 velocity=110 time=0
EXTRACT: note_on channel=9 note=42 velocity=43 time=0
EXTRACT: note_on channel=2 note=60 velocity=80 time=0.004098358333333333
EXTRACT: note_on channel=2 note=56 velocity=83 time=0
EXTRACT: note_on channel=2 note=53 velocity=116 time=0
EXTRACT: note_on channel=0 note=43 velocity=106 time=0.004098358333333333
EXTRACT: note_on channel=1 note=60 velocity=0 time=0
EXTRACT: note_on channel=1 note=56 velocity=0 time=0
EXTRACT: note_on channel=1 note=53 velocity=0 time=0
EXTRACT: note_on channel=1 note=62 velocity=0 time=0
EXTRACT: note_on channel=1 note=60 velocity=60 time=0.004098358333333333
EXTRACT: note_on channel=1 note=56 velocity=71 time=0
EXTRACT: note_on channel=1 note=53 velocity=106 time=0
EXTRACT: note_on channel=9 note=36 velocity=0 time=0.02868850833333333
EXTRACT: note_on channel=9 note=42 velocity=0 time=0
EXTRACT: note_on channel=0 note=43 velocity=0 time=0.15163925833333333
EXTRACT: note_on channel=2 note=60 velocity=0 time=0.053278658333333326
EXTRACT: note_on channel=2 note=56 velocity=0 time=0
EXTRACT: note_on channel=2 note=53 velocity=0 time=0
EXTRACT: note_on channel=9 note=49 velocity=100 time=0
EXTRACT: note_on channel=9 note=36 velocity=120 time=0
EXTRACT: note_on channel=2 note=59 velocity=113 time=0.004098358333333333
EXTRACT: note_on channel=2 note=62 velocity=97 time=0
EXTRACT: note_on channel=2 note=55 velocity=88 time=0
EXTRACT: note_on channel=2 note=48 velocity=115 time=0
EXTRACT: note_on channel=0 note=36 velocity=113 time=0.004098358333333333
EXTRACT: note_on channel=1 note=60 velocity=0 time=0
EXTRACT: note_on channel=1 note=56 velocity=0 time=0
EXTRACT: note_on channel=1 note=53 velocity=0 time=0
EXTRACT: note_on channel=4 note=74 velocity=0 time=0.0010245895833333333
EXTRACT: note_on channel=4 note=77 velocity=0 time=0
EXTRACT: note_on channel=4 note=80 velocity=0 time=0
EXTRACT: note_on channel=4 note=76 velocity=108 time=0
EXTRACT: note_on channel=4 note=83 velocity=97 time=0
EXTRACT: note_on channel=4 note=79 velocity=107 time=0
EXTRACT: note_on channel=4 note=72 velocity=112 time=0
EXTRACT: note_on channel=1 note=59 velocity=82 time=0.0030737687499999998
EXTRACT: note_on channel=1 note=62 velocity=101 time=0
EXTRACT: note_on channel=1 note=55 velocity=84 time=0
EXTRACT: note_on channel=1 note=48 velocity=97 time=0
EXTRACT: note_on channel=9 note=49 velocity=0 time=0.02868850833333333
EXTRACT: note_on channel=9 note=36 velocity=0 time=0
EXTRACT: note_on channel=0 note=36 velocity=0 time=0.15163925833333333
EXTRACT: note_on channel=9 note=42 velocity=48 time=0.053278658333333326
EXTRACT: note_on channel=0 note=36 velocity=124 time=0.008196716666666666
EXTRACT: note_on channel=9 note=42 velocity=0 time=0.032786866666666664
EXTRACT: note_on channel=0 note=36 velocity=0 time=0.15163925833333333
EXTRACT: note_on channel=2 note=59 velocity=0 time=0.053278658333333326
EXTRACT: note_on channel=2 note=62 velocity=0 time=0
EXTRACT: note_on channel=2 note=55 velocity=0 time=0
EXTRACT: note_on channel=2 note=48 velocity=0 time=0
EXTRACT: note_on channel=9 note=40 velocity=127 time=0
EXTRACT: note_on channel=9 note=42 velocity=58 time=0
EXTRACT: note_on channel=2 note=59 velocity=91 time=0.004098358333333333
EXTRACT: note_on channel=2 note=62 velocity=109 time=0
EXTRACT: note_on channel=2 note=55 velocity=94 time=0
EXTRACT: note_on channel=2 note=48 velocity=87 time=0
EXTRACT: note_on channel=0 note=36 velocity=112 time=0.004098358333333333
EXTRACT: note_on channel=1 note=59 velocity=0 time=0
EXTRACT: note_on channel=1 note=62 velocity=0 time=0
EXTRACT: note_on channel=1 note=55 velocity=0 time=0
EXTRACT: note_on channel=1 note=48 velocity=0 time=0
EXTRACT: note_on channel=1 note=59 velocity=111 time=0.004098358333333333
EXTRACT: note_on channel=1 note=62 velocity=100 time=0
EXTRACT: note_on channel=1 note=55 velocity=87 time=0
EXTRACT: note_on channel=1 note=48 velocity=115 time=0
EXTRACT: note_on channel=9 note=40 velocity=0 time=0.02868850833333333
EXTRACT: note_on channel=9 note=42 velocity=0 time=0
EXTRACT: note_on channel=0 note=36 velocity=0 time=0.15163925833333333
EXTRACT: note_on channel=9 note=42 velocity=68 time=0.053278658333333326
EXTRACT: pitchwheel channel=0 pitch=0 time=0.008196716666666666
EXTRACT: note_on channel=0 note=36 velocity=123 time=0
EXTRACT: pitchwheel channel=0 pitch=82 time=0.004098358333333333
EXTRACT: pitchwheel channel=0 pitch=165 time=0.004098358333333333
EXTRACT: pitchwheel channel=0 pitch=247 time=0.004098358333333333
EXTRACT: pitchwheel channel=0 pitch=330 time=0.004098358333333333
EXTRACT: pitchwheel channel=0 pitch=412 time=0.004098358333333333
EXTRACT: pitchwheel channel=0 pitch=494 time=0.004098358333333333
EXTRACT: pitchwheel channel=0 pitch=577 time=0.004098358333333333
EXTRACT: pitchwheel channel=0 pitch=659 time=0.004098358333333333
EXTRACT: note_on channel=9 note=42 velocity=0 time=0
EXTRACT: pitchwheel channel=0 pitch=742 time=0.004098358333333333
EXTRACT: pitchwheel channel=0 pitch=824 time=0.004098358333333333
EXTRACT: pitchwheel channel=0 pitch=906 time=0.004098358333333333
EXTRACT: pitchwheel channel=0 pitch=989 time=0.004098358333333333
EXTRACT: pitchwheel channel=0 pitch=1071 time=0.004098358333333333
EXTRACT: pitchwheel channel=0 pitch=1154 time=0.004098358333333333
EXTRACT: pitchwheel channel=0 pitch=1236 time=0.004098358333333333
EXTRACT: pitchwheel channel=0 pitch=1318 time=0.004098358333333333
EXTRACT: pitchwheel channel=0 pitch=1401 time=0.004098358333333333
EXTRACT: pitchwheel channel=0 pitch=1483 time=0.004098358333333333
EXTRACT: pitchwheel channel=0 pitch=1566 time=0.004098358333333333
EXTRACT: pitchwheel channel=0 pitch=1648 time=0.004098358333333333
EXTRACT: pitchwheel channel=0 pitch=1730 time=0.004098358333333333
EXTRACT: pitchwheel channel=0 pitch=1813 time=0.004098358333333333
EXTRACT: pitchwheel channel=0 pitch=1895 time=0.004098358333333333
EXTRACT: pitchwheel channel=0 pitch=1978 time=0.004098358333333333
EXTRACT: pitchwheel channel=0 pitch=2060 time=0.004098358333333333
EXTRACT: pitchwheel channel=0 pitch=2142 time=0.004098358333333333
EXTRACT: pitchwheel channel=0 pitch=2225 time=0.004098358333333333
EXTRACT: pitchwheel channel=0 pitch=2307 time=0.004098358333333333
EXTRACT: pitchwheel channel=0 pitch=2390 time=0.004098358333333333
EXTRACT: pitchwheel channel=0 pitch=2472 time=0.004098358333333333
EXTRACT: pitchwheel channel=0 pitch=2554 time=0.004098358333333333
EXTRACT: pitchwheel channel=0 pitch=2637 time=0.004098358333333333
EXTRACT: pitchwheel channel=0 pitch=2719 time=0.004098358333333333
EXTRACT: pitchwheel channel=0 pitch=2801 time=0.004098358333333333
EXTRACT: pitchwheel channel=0 pitch=2884 time=0.004098358333333333
EXTRACT: pitchwheel channel=0 pitch=2966 time=0.004098358333333333
EXTRACT: pitchwheel channel=0 pitch=3049 time=0.004098358333333333
EXTRACT: pitchwheel channel=0 pitch=3131 time=0.004098358333333333
EXTRACT: pitchwheel channel=0 pitch=3213 time=0.004098358333333333
EXTRACT: pitchwheel channel=0 pitch=3296 time=0.004098358333333333
EXTRACT: pitchwheel channel=0 pitch=3378 time=0.004098358333333333
EXTRACT: pitchwheel channel=0 pitch=3461 time=0.004098358333333333
EXTRACT: pitchwheel channel=0 pitch=3543 time=0.004098358333333333
EXTRACT: pitchwheel channel=0 pitch=3625 time=0.004098358333333333
EXTRACT: note_on channel=0 note=36 velocity=0 time=0.004098358333333333
EXTRACT: pitchwheel channel=0 pitch=3708 time=0
EXTRACT: pitchwheel channel=0 pitch=3790 time=0.004098358333333333
EXTRACT: pitchwheel channel=0 pitch=3873 time=0.004098358333333333
EXTRACT: pitchwheel channel=0 pitch=3955 time=0.004098358333333333
EXTRACT: pitchwheel channel=0 pitch=4037 time=0.004098358333333333
EXTRACT: pitchwheel channel=0 pitch=4120 time=0.004098358333333333
EXTRACT: pitchwheel channel=0 pitch=4202 time=0.004098358333333333
EXTRACT: pitchwheel channel=0 pitch=4285 time=0.004098358333333333
EXTRACT: pitchwheel channel=0 pitch=4367 time=0.004098358333333333
EXTRACT: pitchwheel channel=0 pitch=4449 time=0.004098358333333333
EXTRACT: pitchwheel channel=0 pitch=4532 time=0.004098358333333333
EXTRACT: pitchwheel channel=0 pitch=4614 time=0.004098358333333333
EXTRACT: pitchwheel channel=0 pitch=4697 time=0.004098358333333333
EXTRACT: pitchwheel channel=0 pitch=4779 time=0.004098358333333333
EXTRACT: note_on channel=2 note=59 velocity=0 time=0
EXTRACT: note_on channel=2 note=62 velocity=0 time=0
EXTRACT: note_on channel=2 note=55 velocity=0 time=0
EXTRACT: note_on channel=2 note=48 velocity=0 time=0
EXTRACT: note_on channel=9 note=36 velocity=120 time=0
EXTRACT: note_on channel=9 note=42 velocity=64 time=0
EXTRACT: note_on channel=2 note=59 velocity=117 time=0.004098358333333333
EXTRACT: note_on channel=2 note=62 velocity=109 time=0
EXTRACT: note_on channel=2 note=55 velocity=110 time=0
EXTRACT: pitchwheel channel=0 pitch=0 time=0.004098358333333333
EXTRACT: note_on channel=0 note=43 velocity=117 time=0
EXTRACT: note_on channel=1 note=59 velocity=0 time=0
EXTRACT: note_on channel=1 note=62 velocity=0 time=0
EXTRACT: note_on channel=1 note=55 velocity=0 time=0
EXTRACT: note_on channel=1 note=48 velocity=0 time=0
EXTRACT: note_on channel=1 note=59 velocity=81 time=0.004098358333333333
EXTRACT: note_on channel=1 note=62 velocity=99 time=0
EXTRACT: note_on channel=1 note=55 velocity=91 time=0
EXTRACT: note_on channel=9 note=36 velocity=0 time=0.02868850833333333
EXTRACT: note_on channel=9 note=42 velocity=0 time=0
EXTRACT: note_on channel=0 note=43 velocity=0 time=0.15163925833333333
EXTRACT: note_on channel=2 note=59 velocity=0 time=0.053278658333333326
EXTRACT: note_on channel=2 note=62 velocity=0 time=0
EXTRACT: note_on channel=2 note=55 velocity=0 time=0
EXTRACT: note_on channel=9 note=36 velocity=110 time=0
EXTRACT: note_on channel=9 note=42 velocity=50 time=0
EXTRACT: note_on channel=2 note=59 velocity=67 time=0.004098358333333333
EXTRACT: note_on channel=2 note=62 velocity=68 time=0
EXTRACT: note_on channel=2 note=55 velocity=76 time=0
EXTRACT: note_on channel=2 note=48 velocity=79 time=0
EXTRACT: note_on channel=0 note=43 velocity=105 time=0.004098358333333333
EXTRACT: note_on channel=1 note=59 velocity=0 time=0
EXTRACT: note_on channel=1 note=62 velocity=0 time=0
EXTRACT: note_on channel=1 note=55 velocity=0 time=0
EXTRACT: note_on channel=1 note=59 velocity=92 time=0.004098358333333333
EXTRACT: note_on channel=1 note=62 velocity=63 time=0
EXTRACT: note_on channel=1 note=55 velocity=89 time=0
EXTRACT: note_on channel=1 note=48 velocity=117 time=0
EXTRACT: note_on channel=9 note=36 velocity=0 time=0.02868850833333333
EXTRACT: note_on channel=9 note=42 velocity=0 time=0
EXTRACT: note_on channel=0 note=43 velocity=0 time=0.15163925833333333
EXTRACT: note_on channel=2 note=59 velocity=0 time=0.053278658333333326
EXTRACT: note_on channel=2 note=62 velocity=0 time=0
EXTRACT: note_on channel=2 note=55 velocity=0 time=0
EXTRACT: note_on channel=2 note=48 velocity=0 time=0
EXTRACT: note_on channel=9 note=40 velocity=127 time=0
EXTRACT: note_on channel=9 note=42 velocity=60 time=0
EXTRACT: note_on channel=2 note=59 velocity=91 time=0.004098358333333333
EXTRACT: note_on channel=2 note=62 velocity=114 time=0
EXTRACT: note_on channel=2 note=55 velocity=103 time=0
EXTRACT: note_on channel=2 note=48 velocity=100 time=0
EXTRACT: note_on channel=0 note=43 velocity=104 time=0.004098358333333333
EXTRACT: note_on channel=1 note=59 velocity=0 time=0
EXTRACT: note_on channel=1 note=62 velocity=0 time=0
EXTRACT: note_on channel=1 note=55 velocity=0 time=0
EXTRACT: note_on channel=1 note=48 velocity=0 time=0
EXTRACT: note_on channel=1 note=59 velocity=91 time=0.004098358333333333
EXTRACT: note_on channel=1 note=62 velocity=109 time=0
EXTRACT: note_on channel=1 note=55 velocity=80 time=0
EXTRACT: note_on channel=1 note=48 velocity=113 time=0
EXTRACT: note_on channel=9 note=40 velocity=0 time=0.02868850833333333
EXTRACT: note_on channel=9 note=42 velocity=0 time=0
EXTRACT: note_on channel=0 note=43 velocity=0 time=0.15163925833333333
EXTRACT: note_on channel=2 note=59 velocity=0 time=0.053278658333333326
EXTRACT: note_on channel=2 note=62 velocity=0 time=0
EXTRACT: note_on channel=2 note=55 velocity=0 time=0
EXTRACT: note_on channel=2 note=48 velocity=0 time=0
EXTRACT: note_on channel=9 note=36 velocity=110 time=0
EXTRACT: note_on channel=9 note=42 velocity=48 time=0
EXTRACT: note_on channel=2 note=59 velocity=94 time=0.004098358333333333
EXTRACT: note_on channel=2 note=62 velocity=117 time=0
EXTRACT: note_on channel=2 note=55 velocity=96 time=0
EXTRACT: note_on channel=0 note=47 velocity=116 time=0.004098358333333333
EXTRACT: note_on channel=1 note=59 velocity=0 time=0
EXTRACT: note_on channel=1 note=62 velocity=0 time=0
EXTRACT: note_on channel=1 note=55 velocity=0 time=0
EXTRACT: note_on channel=1 note=48 velocity=0 time=0
EXTRACT: note_on channel=1 note=59 velocity=60 time=0.004098358333333333
EXTRACT: note_on channel=1 note=62 velocity=73 time=0
EXTRACT: note_on channel=1 note=55 velocity=71 time=0
EXTRACT: note_on channel=9 note=36 velocity=0 time=0.02868850833333333
EXTRACT: note_on channel=9 note=42 velocity=0 time=0
EXTRACT: note_on channel=9 note=42 velocity=63 time=0.20491791666666664
EXTRACT: note_on channel=5 note=67 velocity=0 time=0.0061475374999999995
EXTRACT: note_on channel=5 note=64 velocity=0 time=0
EXTRACT: note_on channel=0 note=47 velocity=0 time=0.0020491791666666665
EXTRACT: note_on channel=9 note=42 velocity=0 time=0.032786866666666664
EXTRACT: note_on channel=2 note=59 velocity=0 time=0.20491791666666664
EXTRACT: note_on channel=2 note=62 velocity=0 time=0
EXTRACT: note_on channel=2 note=55 velocity=0 time=0
EXTRACT: note_on channel=9 note=36 velocity=120 time=0
EXTRACT: note_on channel=9 note=42 velocity=41 time=0
EXTRACT: note_on channel=2 note=59 velocity=94 time=0.004098358333333333
EXTRACT: note_on channel=2 note=64 velocity=107 time=0
EXTRACT: note_on channel=2 note=55 velocity=96 time=0
EXTRACT: note_on channel=0 note=43 velocity=108 time=0.004098358333333333
EXTRACT: note_on channel=1 note=59 velocity=0 time=0
EXTRACT: note_on channel=1 note=62 velocity=0 time=0
EXTRACT: note_on channel=1 note=55 velocity=0 time=0
EXTRACT: note_on channel=1 note=59 velocity=70 time=0.004098358333333333
EXTRACT: note_on channel=1 note=64 velocity=114 time=0
EXTRACT: note_on channel=1 note=55 velocity=110 time=0
EXTRACT: note_on channel=9 note=36 velocity=0 time=0.02868850833333333
EXTRACT: note_on channel=9 note=42 velocity=0 time=0
EXTRACT: note_on channel=2 note=59 velocity=0 time=0.20491791666666664
EXTRACT: note_on channel=2 note=64 velocity=0 time=0
EXTRACT: note_on channel=2 note=55 velocity=0 time=0
EXTRACT: note_on channel=9 note=40 velocity=127 time=0
EXTRACT: note_on channel=9 note=42 velocity=66 time=0
EXTRACT: note_on channel=0 note=43 velocity=0 time=0.004098358333333333
EXTRACT: note_on channel=2 note=59 velocity=96 time=0
EXTRACT: note_on channel=2 note=64 velocity=85 time=0
EXTRACT: note_on channel=2 note=55 velocity=107 time=0
EXTRACT: note_on channel=2 note=48 velocity=114 time=0
EXTRACT: note_on channel=0 note=43 velocity=126 time=0.004098358333333333
EXTRACT: note_on channel=1 note=59 velocity=0 time=0
EXTRACT: note_on channel=1 note=64 velocity=0 time=0
EXTRACT: note_on channel=1 note=55 velocity=0 time=0
EXTRACT: note_on channel=1 note=59 velocity=81 time=0.004098358333333333
EXTRACT: note_on channel=1 note=64 velocity=87 time=0
EXTRACT: note_on channel=1 note=55 velocity=98 time=0
EXTRACT: note_on channel=1 note=48 velocity=97 time=0
EXTRACT: note_on channel=9 note=40 velocity=0 time=0.02868850833333333
EXTRACT: note_on channel=9 note=42 velocity=0 time=0
EXTRACT: note_on channel=2 note=59 velocity=0 time=0.20491791666666664
EXTRACT: note_on channel=2 note=64 velocity=0 time=0
EXTRACT: note_on channel=2 note=55 velocity=0 time=0
EXTRACT: note_on channel=2 note=48 velocity=0 time=0
EXTRACT: note_on channel=9 note=36 velocity=100 time=0
EXTRACT: note_on channel=9 note=42 velocity=61 time=0
EXTRACT: note_on channel=2 note=59 velocity=107 time=0.004098358333333333
EXTRACT: note_on channel=2 note=64 velocity=98 time=0
EXTRACT: note_on channel=2 note=55 velocity=67 time=0
EXTRACT: note_on channel=0 note=43 velocity=0 time=0.004098358333333333
EXTRACT: note_on channel=1 note=59 velocity=0 time=0
EXTRACT: note_on channel=1 note=64 velocity=0 time=0
EXTRACT: note_on channel=1 note=55 velocity=0 time=0
EXTRACT: note_on channel=1 note=48 velocity=0 time=0
EXTRACT: note_on channel=1 note=59 velocity=117 time=0.004098358333333333
EXTRACT: note_on channel=1 note=64 velocity=105 time=0
EXTRACT: note_on channel=1 note=55 velocity=79 time=0
EXTRACT: note_on channel=9 note=36 velocity=0 time=0.02868850833333333
EXTRACT: note_on channel=9 note=42 velocity=0 time=0
EXTRACT: note_on channel=9 note=36 velocity=90 time=0.08196716666666666
EXTRACT: note_on channel=9 note=36 velocity=0 time=0.04098358333333333
EXTRACT: note_on channel=2 note=59 velocity=0 time=0.08196716666666666
EXTRACT: note_on channel=2 note=64 velocity=0 time=0
EXTRACT: note_on channel=2 note=55 velocity=0 time=0
EXTRACT: note_on channel=9 note=36 velocity=120 time=0
EXTRACT: note_on channel=9 note=42 velocity=57 time=0
EXTRACT: note_on channel=2 note=59 velocity=105 time=0.004098358333333333
EXTRACT: note_on channel=2 note=64 velocity=107 time=0
EXTRACT: note_on channel=2 note=55 velocity=114 time=0
EXTRACT: note_on channel=2 note=48 velocity=86 time=0
EXTRACT: note_on channel=0 note=43 velocity=114 time=0.004098358333333333
EXTRACT: note_on channel=1 note=59 velocity=0 time=0
EXTRACT: note_on channel=1 note=64 velocity=0 time=0
EXTRACT: note_on channel=1 note=55 velocity=0 time=0
EXTRACT: note_on channel=1 note=59 velocity=87 time=0.004098358333333333
EXTRACT: note_on channel=1 note=64 velocity=108 time=0
EXTRACT: note_on channel=1 note=55 velocity=88 time=0
EXTRACT: note_on channel=1 note=48 velocity=87 time=0
EXTRACT: note_on channel=9 note=36 velocity=0 time=0.02868850833333333
EXTRACT: note_on channel=9 note=42 velocity=0 time=0
EXTRACT: note_on channel=2 note=59 velocity=0 time=0.20491791666666664
EXTRACT: note_on channel=2 note=64 velocity=0 time=0
EXTRACT: note_on channel=2 note=55 velocity=0 time=0
EXTRACT: note_on channel=2 note=48 velocity=0 time=0
EXTRACT: note_on channel=9 note=36 velocity=110 time=0
EXTRACT: note_on channel=9 note=42 velocity=48 time=0
EXTRACT: note_on channel=0 note=43 velocity=0 time=0.004098358333333333
EXTRACT: note_on channel=2 note=59 velocity=106 time=0
EXTRACT: note_on channel=2 note=64 velocity=93 time=0
EXTRACT: note_on channel=2 note=55 velocity=99 time=0
EXTRACT: note_on channel=0 note=45 velocity=107 time=0.004098358333333333
EXTRACT: note_on channel=1 note=59 velocity=0 time=0
EXTRACT: note_on channel=1 note=64 velocity=0 time=0
EXTRACT: note_on channel=1 note=55 velocity=0 time=0
EXTRACT: note_on channel=1 note=48 velocity=0 time=0
EXTRACT: note_on channel=1 note=59 velocity=93 time=0.004098358333333333
EXTRACT: note_on channel=1 note=64 velocity=69 time=0
EXTRACT: note_on channel=1 note=55 velocity=87 time=0
EXTRACT: note_on channel=9 note=36 velocity=0 time=0.02868850833333333
EXTRACT: note_on channel=9 note=42 velocity=0 time=0
EXTRACT: note_on channel=2 note=59 velocity=0 time=0.20491791666666664
EXTRACT: note_on channel=2 note=64 velocity=0 time=0
EXTRACT: note_on channel=2 note=55 velocity=0 time=0
EXTRACT: note_on channel=9 note=40 velocity=127 time=0
EXTRACT: note_on channel=9 note=42 velocity=62 time=0
EXTRACT: note_on channel=0 note=45 velocity=0 time=0.004098358333333333
EXTRACT: note_on channel=2 note=59 velocity=93 time=0
EXTRACT: note_on channel=2 note=64 velocity=105 time=0
EXTRACT: note_on channel=2 note=55 velocity=116 time=0
EXTRACT: note_on channel=2 note=48 velocity=99 time=0
EXTRACT: note_on channel=0 note=45 velocity=113 time=0.004098358333333333
EXTRACT: note_on channel=1 note=59 velocity=0 time=0
EXTRACT: note_on channel=1 note=64 velocity=0 time=0
EXTRACT: note_on channel=1 note=55 velocity=0 time=0
EXTRACT: note_on channel=1 note=59 velocity=95 time=0.004098358333333333
EXTRACT: note_on channel=1 note=64 velocity=82 time=0
EXTRACT: note_on channel=1 note=55 velocity=115 time=0
EXTRACT: note_on channel=1 note=48 velocity=111 time=0
EXTRACT: note_on channel=9 note=40 velocity=0 time=0.02868850833333333
EXTRACT: note_on channel=9 note=42 velocity=0 time=0
EXTRACT: note_on channel=2 note=59 velocity=0 time=0.20491791666666664
EXTRACT: note_on channel=2 note=64 velocity=0 time=0
EXTRACT: note_on channel=2 note=55 velocity=0 time=0
EXTRACT: note_on channel=2 note=48 velocity=0 time=0
EXTRACT: note_on channel=9 note=36 velocity=110 time=0
EXTRACT: note_on channel=9 note=42 velocity=43 time=0
EXTRACT: note_on channel=2 note=59 velocity=75 time=0.004098358333333333
EXTRACT: note_on channel=2 note=64 velocity=98 time=0
EXTRACT: note_on channel=2 note=55 velocity=89 time=0
EXTRACT: note_on channel=0 note=45 velocity=0 time=0.004098358333333333
EXTRACT: note_on channel=1 note=59 velocity=0 time=0
EXTRACT: note_on channel=1 note=64 velocity=0 time=0
EXTRACT: note_on channel=1 note=55 velocity=0 time=0
EXTRACT: note_on channel=1 note=48 velocity=0 time=0
EXTRACT: note_on channel=1 note=59 velocity=68 time=0.004098358333333333
EXTRACT: note_on channel=1 note=64 velocity=111 time=0
EXTRACT: note_on channel=1 note=55 velocity=108 time=0
EXTRACT: note_on channel=9 note=36 velocity=0 time=0.02868850833333333
EXTRACT: note_on channel=9 note=42 velocity=0 time=0
EXTRACT: note_on channel=2 note=59 velocity=0 time=0.20491791666666664
EXTRACT: note_on channel=2 note=64 velocity=0 time=0
EXTRACT: note_on channel=2 note=55 velocity=0 time=0
EXTRACT: note_on channel=9 note=49 velocity=100 time=0
EXTRACT: note_on channel=9 note=36 velocity=120 time=0
EXTRACT: note_on channel=2 note=64 velocity=86 time=0.004098358333333333
EXTRACT: note_on channel=2 note=60 velocity=105 time=0
EXTRACT: note_on channel=2 note=55 velocity=109 time=0
EXTRACT: note_on channel=2 note=48 velocity=85 time=0
EXTRACT: note_on channel=0 note=36 velocity=111 time=0.004098358333333333
EXTRACT: note_on channel=1 note=59 velocity=0 time=0
EXTRACT: note_on channel=1 note=64 velocity=0 time=0
EXTRACT: note_on channel=1 note=55 velocity=0 time=0
EXTRACT: note_on channel=4 note=76 velocity=0 time=0.0010245895833333333
EXTRACT: note_on channel=4 note=83 velocity=0 time=0
EXTRACT: note_on channel=4 note=79 velocity=0 time=0
EXTRACT: note_on channel=4 note=72 velocity=0 time=0
EXTRACT: note_on channel=4 note=72 velocity=104 time=0
EXTRACT: note_on channel=4 note=76 velocity=99 time=0
EXTRACT: note_on channel=4 note=79 velocity=98 time=0
EXTRACT: note_on channel=1 note=64 velocity=84 time=0.0030737687499999998
EXTRACT: note_on channel=1 note=60 velocity=112 time=0
EXTRACT: note_on channel=1 note=55 velocity=83 time=0
EXTRACT: note_on channel=1 note=48 velocity=116 time=0
EXTRACT: note_on channel=9 note=49 velocity=0 time=0.02868850833333333
EXTRACT: note_on channel=9 note=36 velocity=0 time=0
EXTRACT: note_on channel=9 note=42 velocity=42 time=0.20491791666666664
EXTRACT: note_on channel=0 note=36 velocity=0 time=0.008196716666666666
EXTRACT: note_on channel=9 note=42 velocity=0 time=0.032786866666666664
EXTRACT: note_on channel=2 note=64 velocity=0 time=0.20491791666666664
EXTRACT: note_on channel=2 note=60 velocity=0 time=0
EXTRACT: note_on channel=2 note=55 velocity=0 time=0
EXTRACT: note_on channel=2 note=48 velocity=0 time=0
EXTRACT: note_on channel=9 note=40 velocity=127 time=0
EXTRACT: note_on channel=9 note=42 velocity=60 time=0
EXTRACT: note_on channel=2 note=64 velocity=102 time=0.004098358333333333
EXTRACT: note_on channel=2 note=60 velocity=100 time=0
EXTRACT: note_on channel=2 note=55 velocity=112 time=0
EXTRACT: note_on channel=2 note=48 velocity=102 time=0
EXTRACT: note_on channel=0 note=36 velocity=106 time=0.004098358333333333
EXTRACT: note_on channel=1 note=64 velocity=0 time=0
EXTRACT: note_on channel=1 note=60 velocity=0 time=0
EXTRACT: note_on channel=1 note=55 velocity=0 time=0
EXTRACT: note_on channel=1 note=48 velocity=0 time=0
EXTRACT: note_on channel=1 note=64 velocity=94 time=0.004098358333333333
EXTRACT: note_on channel=1 note=60 velocity=84 time=0
EXTRACT: note_on channel=1 note=55 velocity=90 time=0
EXTRACT: note_on channel=1 note=48 velocity=98 time=0
EXTRACT: note_on channel=9 note=40 velocity=0 time=0.02868850833333333
EXTRACT: note_on channel=9 note=42 velocity=0 time=0
EXTRACT: note_on channel=0 note=36 velocity=0 time=0.15163925833333333
EXTRACT: note_on channel=9 note=42 velocity=59 time=0.053278658333333326
EXTRACT: note_on channel=5 note=72 velocity=44 time=0.0061475374999999995
EXTRACT: note_on channel=5 note=67 velocity=95 time=0
EXTRACT: note_on channel=0 note=36 velocity=120 time=0.0020491791666666665
EXTRACT: note_on channel=9 note=42 velocity=0 time=0.032786866666666664
EXTRACT: note_on channel=0 note=36 velocity=0 time=0.15163925833333333
EXTRACT: note_on channel=2 note=64 velocity=0 time=0.053278658333333326
EXTRACT: note_on channel=2 note=60 velocity=0 time=0
EXTRACT: note_on channel=2 note=55 velocity=0 time=0
EXTRACT: note_on channel=2 note=48 velocity=0 time=0
EXTRACT: note_on channel=9 note=36 velocity=120 time=0
EXTRACT: note_on channel=9 note=42 velocity=65 time=0
EXTRACT: note_on channel=5 note=72 velocity=0 time=0.0020491791666666665
EXTRACT: note_on channel=5 note=67 velocity=0 time=0
EXTRACT: note_on channel=2 note=64 velocity=99 time=0.0020491791666666665
EXTRACT: note_on channel=2 note=60 velocity=86 time=0
EXTRACT: note_on channel=2 note=55 velocity=90 time=0
EXTRACT: note_on channel=5 note=72 velocity=49 time=0.0020491791666666665
EXTRACT: note_on channel=5 note=67 velocity=92 time=0
EXTRACT: note_on channel=0 note=36 velocity=126 time=0.0020491791666666665
EXTRACT: note_on channel=1 note=64 velocity=0 time=0
EXTRACT: note_on channel=1 note=60 velocity=0 time=0
EXTRACT: note_on channel=1 note=55 velocity=0 time=0
EXTRACT: note_on channel=1 note=48 velocity=0 time=0
EXTRACT: note_on channel=1 note=64 velocity=79 time=0.004098358333333333
EXTRACT: note_on channel=1 note=60 velocity=81 time=0
EXTRACT: note_on channel=1 note=55 velocity=117 time=0
EXTRACT: note_on channel=9 note=36 velocity=0 time=0.02868850833333333
EXTRACT: note_on channel=9 note=42 velocity=0 time=0
EXTRACT: note_on channel=0 note=36 velocity=0 time=0.15163925833333333
EXTRACT: note_on channel=2 note=64 velocity=0 time=0.053278658333333326
EXTRACT: note_on channel=2 note=60 velocity=0 time=0
EXTRACT: note_on channel=2 note=55 velocity=0 time=0
EXTRACT: note_on channel=9 note=36 velocity=110 time=0
EXTRACT: note_on channel=9 note=42 velocity=44 time=0
EXTRACT: note_on channel=5 note=72 velocity=0 time=0.0020491791666666665
EXTRACT: note_on channel=5 note=67 velocity=0 time=0
EXTRACT: note_on channel=2 note=64 velocity=114 time=0.0020491791666666665
EXTRACT: note_on channel=2 note=60 velocity=89 time=0
EXTRACT: note_on channel=2 note=55 velocity=85 time=0
EXTRACT: note_on channel=2 note=48 velocity=98 time=0
EXTRACT: note_on channel=5 note=74 velocity=48 time=0.0020491791666666665
EXTRACT: note_on channel=5 note=69 velocity=112 time=0
EXTRACT: note_on channel=0 note=36 velocity=121 time=0.0020491791666666665
EXTRACT: note_on channel=1 note=64 velocity=0 time=0
EXTRACT: note_on channel=1 note=60 velocity=0 time=0
EXTRACT: note_on channel=1 note=55 velocity=0 time=0
EXTRACT: note_on channel=1 note=64 velocity=88 time=0.004098358333333333
EXTRACT: note_on channel=1 note=60 velocity=99 time=0
EXTRACT: note_on channel=1 note=55 velocity=77 time=0
EXTRACT: note_on channel=1 note=48 velocity=93 time=0
EXTRACT: note_on channel=9 note=36 velocity=0 time=0.02868850833333333
EXTRACT: note_on channel=9 note=42 velocity=0 time=0
EXTRACT: note_on channel=0 note=36 velocity=0 time=0.15163925833333333
EXTRACT: note_on channel=2 note=64 velocity=0 time=0.053278658333333326
EXTRACT: note_on channel=2 note=60 velocity=0 time=0
EXTRACT: note_on channel=2 note=55 velocity=0 time=0
EXTRACT: note_on channel=2 note=48 velocity=0 time=0
EXTRACT: note_on channel=9 note=40 velocity=127 time=0
EXTRACT: note_on channel=9 note=42 velocity=64 time=0
EXTRACT: note_on channel=2 note=64 velocity=85 time=0.004098358333333333
EXTRACT: note_on channel=2 note=60 velocity=91 time=0
EXTRACT: note_on channel=2 note=55 velocity=104 time=0
EXTRACT: note_on channel=2 note=48 velocity=111 time=0
EXTRACT: note_on channel=5 note=74 velocity=0 time=0.0020491791666666665
EXTRACT: note_on channel=5 note=69 velocity=0 time=0
EXTRACT: pitchwheel channel=0 pitch=0 time=0.0020491791666666665
EXTRACT: note_on channel=0 note=36 velocity=104 time=0
EXTRACT: note_on channel=1 note=64 velocity=0 time=0
EXTRACT: note_on channel=1 note=60 velocity=0 time=0
EXTRACT: note_on channel=1 note=55 velocity=0 time=0
EXTRACT: note_on channel=1 note=48 velocity=0 time=0
EXTRACT: pitchwheel channel=0 pitch=80 time=0.004098358333333333
EXTRACT: note_on channel=1 note=64 velocity=113 time=0
EXTRACT: note_on channel=1 note=60 velocity=112 time=0
EXTRACT: note_on channel=1 note=55 velocity=101 time=0
EXTRACT: note_on channel=1 note=48 velocity=80 time=0
EXTRACT: pitchwheel channel=0 pitch=159 time=0.004098358333333333
EXTRACT: pitchwheel channel=0 pitch=239 time=0.004098358333333333
EXTRACT: pitchwheel channel=0 pitch=319 time=0.004098358333333333
EXTRACT: pitchwheel channel=0 pitch=398 time=0.004098358333333333
EXTRACT: pitchwheel channel=0 pitch=478 time=0.004098358333333333
EXTRACT: pitchwheel channel=0 pitch=558 time=0.004098358333333333
EXTRACT: pitchwheel channel=0 pitch=637 time=0.004098358333333333
EXTRACT: note_on channel=9 note=40 velocity=0 time=0
EXTRACT: note_on channel=9 note=42 velocity=0 time=0
EXTRACT: pitchwheel channel=0 pitch=717 time=0.004098358333333333
EXTRACT: pitchwheel channel=0 pitch=797 time=0.004098358333333333
EXTRACT: pitchwheel channel=0 pitch=876 time=0.004098358333333333
EXTRACT: pitchwheel channel=0 pitch=956 time=0.004098358333333333
EXTRACT: pitchwheel channel=0 pitch=1035 time=0.004098358333333333
EXTRACT: pitchwheel channel=0 pitch=1115 time=0.004098358333333333
EXTRACT: pitchwheel channel=0 pitch=1195 time=0.004098358333333333
EXTRACT: pitchwheel channel=0 pitch=1274 time=0.004098358333333333
EXTRACT: pitchwheel channel=0 pitch=1354 time=0.004098358333333333
EXTRACT: pitchwheel channel=0 pitch=1434 time=0.004098358333333333
EXTRACT: pitchwheel channel=0 pitch=1513 time=0.004098358333333333
EXTRACT: pitchwheel channel=0 pitch=1593 time=0.004098358333333333
EXTRACT: pitchwheel channel=0 pitch=1673 time=0.004098358333333333
EXTRACT: pitchwheel channel=0 pitch=1752 time=0.004098358333333333
EXTRACT: pitchwheel channel=0 pitch=1832 time=0.004098358333333333
EXTRACT: pitchwheel channel=0 pitch=1912 time=0.004098358333333333
EXTRACT: pitchwheel channel=0 pitch=1991 time=0.004098358333333333
EXTRACT: pitchwheel channel=0 pitch=2071 time=0.004098358333333333
EXTRACT: pitchwheel channel=0 pitch=2151 time=0.004098358333333333
EXTRACT: pitchwheel channel=0 pitch=2230 time=0.004098358333333333
EXTRACT: pitchwheel channel=0 pitch=2310 time=0.004098358333333333
EXTRACT: pitchwheel channel=0 pitch=2390 time=0.004098358333333333
EXTRACT: pitchwheel channel=0 pitch=2469 time=0.004098358333333333
EXTRACT: pitchwheel channel=0 pitch=2549 time=0.004098358333333333
EXTRACT: pitchwheel channel=0 pitch=2628 time=0.004098358333333333
EXTRACT: pitchwheel channel=0 pitch=2708 time=0.004098358333333333
EXTRACT: pitchwheel channel=0 pitch=2788 time=0.004098358333333333
EXTRACT: pitchwheel channel=0 pitch=2867 time=0.004098358333333333
EXTRACT: pitchwheel channel=0 pitch=2947 time=0.004098358333333333
EXTRACT: pitchwheel channel=0 pitch=3027 time=0.004098358333333333
EXTRACT: pitchwheel channel=0 pitch=3106 time=0.004098358333333333
EXTRACT: pitchwheel channel=0 pitch=3186 time=0.004098358333333333
EXTRACT: pitchwheel channel=0 pitch=3266 time=0.004098358333333333
EXTRACT: pitchwheel channel=0 pitch=3345 time=0.004098358333333333
EXTRACT: pitchwheel channel=0 pitch=3425 time=0.004098358333333333
EXTRACT: pitchwheel channel=0 pitch=3505 time=0.004098358333333333
EXTRACT: pitchwheel channel=0 pitch=3584 time=0.004098358333333333
EXTRACT: pitchwheel channel=0 pitch=3664 time=0.004098358333333333
EXTRACT: pitchwheel channel=0 pitch=3744 time=0.004098358333333333
EXTRACT: pitchwheel channel=0 pitch=3823 time=0.004098358333333333
EXTRACT: pitchwheel channel=0 pitch=3903 time=0.004098358333333333
EXTRACT: pitchwheel channel=0 pitch=3983 time=0.004098358333333333
EXTRACT: pitchwheel channel=0 pitch=4062 time=0.004098358333333333
EXTRACT: pitchwheel channel=0 pitch=4142 time=0.004098358333333333
EXTRACT: pitchwheel channel=0 pitch=4221 time=0.004098358333333333
EXTRACT: pitchwheel channel=0 pitch=4301 time=0.004098358333333333
EXTRACT: pitchwheel channel=0 pitch=4381 time=0.004098358333333333
EXTRACT: pitchwheel channel=0 pitch=4460 time=0.004098358333333333
EXTRACT: pitchwheel channel=0 pitch=4540 time=0.004098358333333333
EXTRACT: pitchwheel channel=0 pitch=4620 time=0.004098358333333333
EXTRACT: note_on channel=2 note=64 velocity=0 time=0
EXTRACT: note_on channel=2 note=60 velocity=0 time=0
EXTRACT: note_on channel=2 note=55 velocity=0 time=0
EXTRACT: note_on channel=2 note=48 velocity=0 time=0
EXTRACT: note_on channel=9 note=42 velocity=46 time=0
EXTRACT: pitchwheel channel=0 pitch=4699 time=0.004098358333333333
EXTRACT: note_on channel=2 note=64 velocity=68 time=0
EXTRACT: note_on channel=2 note=60 velocity=76 time=0
EXTRACT: note_on channel=2 note=55 velocity=115 time=0
EXTRACT: note_on channel=5 note=76 velocity=77 time=0.0020491791666666665
EXTRACT: note_on channel=5 note=72 velocity=109 time=0
EXTRACT: pitchwheel channel=0 pitch=4779 time=0.0020491791666666665
EXTRACT: note_on channel=1 note=64 velocity=0 time=0
EXTRACT: note_on channel=1 note=60 velocity=0 time=0
EXTRACT: note_on channel=1 note=55 velocity=0 time=0
EXTRACT: note_on channel=1 note=48 velocity=0 time=0
EXTRACT: note_on channel=1 note=64 velocity=73 time=0.004098358333333333
EXTRACT: note_on channel=1 note=60 velocity=68 time=0
EXTRACT: note_on channel=1 note=55 velocity=117 time=0
EXTRACT: note_on channel=9 note=42 velocity=0 time=0.02868850833333333
EXTRACT: note_on channel=2 note=64 velocity=0 time=0.20491791666666664
EXTRACT: note_on channel=2 note=60 velocity=0 time=0
EXTRACT: note_on channel=2 note=55 velocity=0 time=0
EXTRACT: note_on channel=9 note=42 velocity=63 time=0
EXTRACT: note_on channel=9 note=36 velocity=120 time=0
EXTRACT: note_on channel=2 note=62 velocity=101 time=0.004098358333333333
EXTRACT: note_on channel=2 note=58 velocity=104 time=0
EXTRACT: note_on channel=2 note=55 velocity=110 time=0
EXTRACT: note_on channel=2 note=65 velocity=105 time=0
EXTRACT: note_on channel=0 note=36 velocity=0 time=0.004098358333333333
EXTRACT: note_on channel=1 note=64 velocity=0 time=0
EXTRACT: note_on channel=1 note=60 velocity=0 time=0
EXTRACT: note_on channel=1 note=55 velocity=0 time=0
EXTRACT: note_on channel=4 note=72 velocity=0 time=0.0010245895833333333
EXTRACT: note_on channel=4 note=76 velocity=0 time=0
EXTRACT: note_on channel=4 note=79 velocity=0 time=0
EXTRACT: note_on channel=4 note=74 velocity=122 time=0
EXTRACT: note_on channel=4 note=79 velocity=99 time=0
EXTRACT: note_on channel=4 note=82 velocity=114 time=0
EXTRACT: note_on channel=1 note=62 velocity=105 time=0.0030737687499999998
EXTRACT: note_on channel=1 note=58 velocity=87 time=0
EXTRACT: note_on channel=1 note=55 velocity=105 time=0
EXTRACT: note_on channel=1 note=65 velocity=91 time=0
EXTRACT: note_on channel=9 note=42 velocity=0 time=0.02868850833333333
EXTRACT: note_on channel=9 note=36 velocity=0 time=0
EXTRACT: note_on channel=9 note=42 velocity=45 time=0.20491791666666664
EXTRACT: note_on channel=5 note=76 velocity=0 time=0.0020491791666666665
EXTRACT: note_on channel=5 note=72 velocity=0 time=0
EXTRACT: note_on channel=5 note=76 velocity=54 time=0.004098358333333333
EXTRACT: note_on channel=5 note=72 velocity=94 time=0
EXTRACT: pitchwheel channel=0 pitch=0 time=0.0020491791666666665
EXTRACT: note_on channel=0 note=43 velocity=105 time=0
EXTRACT: note_on channel=9 note=42 velocity=0 time=0.032786866666666664
EXTRACT: note_on channel=0 note=43 velocity=0 time=0.15163925833333333
EXTRACT: note_on channel=2 note=62 velocity=0 time=0.053278658333333326
EXTRACT: note_on channel=2 note=58 velocity=0 time=0
EXTRACT: note_on channel=2 note=55 velocity=0 time=0
EXTRACT: note_on channel=2 note=65 velocity=0 time=0
EXTRACT: note_on channel=9 note=40 velocity=127 time=0
EXTRACT: note_on channel=9 note=42 velocity=67 time=0
EXTRACT: note_on channel=2 note=62 velocity=101 time=0.004098358333333333
EXTRACT: note_on channel=2 note=58 velocity=102 time=0
EXTRACT: note_on channel=2 note=55 velocity=98 time=0
EXTRACT: note_on channel=2 note=65 velocity=115 time=0
EXTRACT: note_on channel=0 note=43 velocity=108 time=0.004098358333333333
EXTRACT: note_on channel=1 note=62 velocity=0 time=0
EXTRACT: note_on channel=1 note=58 velocity=0 time=0
EXTRACT: note_on channel=1 note=55 velocity=0 time=0
EXTRACT: note_on channel=1 note=65 velocity=0 time=0
EXTRACT: note_on channel=1 note=62 velocity=105 time=0.004098358333333333
EXTRACT: note_on channel=1 note=58 velocity=115 time=0
EXTRACT: note_on channel=1 note=55 velocity=115 time=0
EXTRACT: note_on channel=1 note=65 velocity=101 time=0
EXTRACT: note_on channel=9 note=40 velocity=0 time=0.02868850833333333
EXTRACT: note_on channel=9 note=42 velocity=0 time=0
EXTRACT: note_on channel=0 note=43 velocity=0 time=0.15163925833333333
EXTRACT: note_on channel=9 note=42 velocity=60 time=0.053278658333333326
EXTRACT: note_on channel=5 note=76 velocity=0 time=0.0020491791666666665
EXTRACT: note_on channel=5 note=72 velocity=0 time=0
EXTRACT: note_on channel=5 note=74 velocity=60 time=0.004098358333333333
EXTRACT: note_on channel=5 note=69 velocity=107 time=0
EXTRACT: note_on channel=0 note=43 velocity=118 time=0.0020491791666666665
EXTRACT: note_on channel=9 note=42 velocity=0 time=0.032786866666666664
EXTRACT: note_on channel=0 note=43 velocity=0 time=0.15163925833333333
EXTRACT: note_on channel=2 note=62 velocity=0 time=0.053278658333333326
EXTRACT: note_on channel=2 note=58 velocity=0 time=0
EXTRACT: note_on channel=2 note=55 velocity=0 time=0
EXTRACT: note_on channel=2 note=65 velocity=0 time=0
EXTRACT: note_on channel=9 note=36 velocity=120 time=0
EXTRACT: note_on channel=9 note=42 velocity=66 time=0
EXTRACT: note_on channel=2 note=62 velocity=117 time=0.004098358333333333
EXTRACT: note_on channel=2 note=58 velocity=104 time=0
EXTRACT: note_on channel=2 note=55 velocity=109 time=0
EXTRACT: note_on channel=0 note=43 velocity=123 time=0.004098358333333333
EXTRACT: note_on channel=1 note=62 velocity=0 time=0
EXTRACT: note_on channel=1 note=58 velocity=0 time=0
EXTRACT: note_on channel=1 note=55 velocity=0 time=0
EXTRACT: note_on channel=1 note=65 velocity=0 time=0
EXTRACT: note_on channel=1 note=62 velocity=104 time=0.004098358333333333
EXTRACT: note_on channel=1 note=58 velocity=90 time=0
EXTRACT: note_on channel=1 note=55 velocity=100 time=0
EXTRACT: note_on channel=9 note=36 velocity=0 time=0.02868850833333333
EXTRACT: note_on channel=9 note=42 velocity=0 time=0
EXTRACT: note_on channel=0 note=43 velocity=0 time=0.15163925833333333
EXTRACT: note_on channel=2 note=62 velocity=0 time=0.053278658333333326
EXTRACT: note_on channel=2 note=58 velocity=0 time=0
EXTRACT: note_on channel=2 note=55 velocity=0 time=0
EXTRACT: note_on channel=9 note=36 velocity=110 time=0
EXTRACT: note_on channel=9 note=42 velocity=44 time=0
EXTRACT: note_on channel=5 note=74 velocity=0 time=0.0020491791666666665
EXTRACT: note_on channel=5 note=69 velocity=0 time=0
EXTRACT: note_on channel=2 note=62 velocity=91 time=0.0020491791666666665
EXTRACT: note_on channel=2 note=58 velocity=85 time=0
EXTRACT: note_on channel=2 note=55 velocity=95 time=0
EXTRACT: note_on channel=2 note=65 velocity=80 time=0
EXTRACT: note_on channel=5 note=72 velocity=54 time=0.0020491791666666665
EXTRACT: note_on channel=5 note=67 velocity=99 time=0
EXTRACT: note_on channel=0 note=45 velocity=125 time=0.0020491791666666665
EXTRACT: note_on channel=1 note=62 velocity=0 time=0
EXTRACT: note_on channel=1 note=58 velocity=0 time=0
EXTRACT: note_on channel=1 note=55 velocity=0 time=0
EXTRACT: note_on channel=1 note=62 velocity=66 time=0.004098358333333333
EXTRACT: note_on channel=1 note=58 velocity=91 time=0
EXTRACT: note_on channel=1 note=55 velocity=76 time=0
EXTRACT: note_on channel=1 note=65 velocity=110 time=0
EXTRACT: note_on channel=9 note=36 velocity=0 time=0.02868850833333333
EXTRACT: note_on channel=9 note=42 velocity=0 time=0
EXTRACT: note_on channel=0 note=45 velocity=0 time=0.15163925833333333
EXTRACT: note_on channel=2 note=62 velocity=0 time=0.053278658333333326
EXTRACT: note_on channel=2 note=58 velocity=0 time=0
EXTRACT: note_on channel=2 note=55 velocity=0 time=0
EXTRACT: note_on channel=2 note=65 velocity=0 time=0
EXTRACT: note_on channel=9 note=40 velocity=127 time=0
EXTRACT: note_on channel=9 note=42 velocity=63 time=0
EXTRACT: note_on channel=2 note=62 velocity=91 time=0.004098358333333333
EXTRACT: note_on channel=2 note=58 velocity=106 time=0
EXTRACT: note_on channel=2 note=55 velocity=90 time=0
EXTRACT: note_on channel=2 note=65 velocity=89 time=0
EXTRACT: note_on channel=0 note=45 velocity=121 time=0.004098358333333333
EXTRACT: note_on channel=1 note=62 velocity=0 time=0
EXTRACT: note_on channel=1 note=58 velocity=0 time=0
EXTRACT: note_on channel=1 note=55 velocity=0 time=0
EXTRACT: note_on channel=1 note=65 velocity=0 time=0
EXTRACT: note_on channel=1 note=62 velocity=94 time=0.004098358333333333
EXTRACT: note_on channel=1 note=58 velocity=103 time=0
EXTRACT: note_on channel=1 note=55 velocity=109 time=0
EXTRACT: note_on channel=1 note=65 velocity=115 time=0
EXTRACT: note_on channel=9 note=40 velocity=0 time=0.02868850833333333
EXTRACT: note_on channel=9 note=42 velocity=0 time=0
EXTRACT: note_on channel=0 note=45 velocity=0 time=0.15163925833333333
EXTRACT: note_on channel=2 note=62 velocity=0 time=0.053278658333333326
EXTRACT: note_on channel=2 note=58 velocity=0 time=0
EXTRACT: note_on channel=2 note=55 velocity=0 time=0
EXTRACT: note_on channel=2 note=65 velocity=0 time=0
EXTRACT: note_on channel=9 note=36 velocity=110 time=0
EXTRACT: note_on channel=9 note=42 velocity=47 time=0
EXTRACT: note_on channel=2 note=62 velocity=101 time=0.004098358333333333
EXTRACT: note_on channel=2 note=58 velocity=112 time=0
EXTRACT: note_on channel=2 note=55 velocity=93 time=0
EXTRACT: note_on channel=0 note=31 velocity=126 time=0.004098358333333333
EXTRACT: note_on channel=1 note=62 velocity=0 time=0
EXTRACT: note_on channel=1 note=58 velocity=0 time=0
EXTRACT: note_on channel=1 note=55 velocity=0 time=0
EXTRACT: note_on channel=1 note=65 velocity=0 time=0
EXTRACT: note_on channel=1 note=62 velocity=112 time=0.004098358333333333
EXTRACT: note_on channel=1 note=58 velocity=92 time=0
EXTRACT: note_on channel=1 note=55 velocity=69 time=0
EXTRACT: note_on channel=9 note=36 velocity=0 time=0.02868850833333333
EXTRACT: note_on channel=9 note=42 velocity=0 time=0
EXTRACT: note_on channel=0 note=31 velocity=0 time=0.15163925833333333
EXTRACT: note_on channel=2 note=62 velocity=0 time=0.053278658333333326
EXTRACT: note_on channel=2 note=58 velocity=0 time=0
EXTRACT: note_on channel=2 note=55 velocity=0 time=0
EXTRACT: note_on channel=9 note=49 velocity=100 time=0
EXTRACT: note_on channel=9 note=36 velocity=120 time=0
EXTRACT: note_on channel=5 note=72 velocity=0 time=0.0020491791666666665
EXTRACT: note_on channel=5 note=67 velocity=0 time=0
EXTRACT: note_on channel=2 note=60 velocity=113 time=0.0020491791666666665
EXTRACT: note_on channel=2 note=57 velocity=102 time=0
EXTRACT: note_on channel=2 note=53 velocity=111 time=0
EXTRACT: note_on channel=2 note=65 velocity=107 time=0
EXTRACT: note_on channel=5 note=72 velocity=69 time=0.0020491791666666665
EXTRACT: note_on channel=5 note=67 velocity=98 time=0
EXTRACT: note_on channel=0 note=41 velocity=112 time=0.0020491791666666665
EXTRACT: note_on channel=1 note=62 velocity=0 time=0
EXTRACT: note_on channel=1 note=58 velocity=0 time=0
EXTRACT: note_on channel=1 note=55 velocity=0 time=0
EXTRACT: note_on channel=4 note=74 velocity=0 time=0.0010245895833333333
EXTRACT: note_on channel=4 note=79 velocity=0 time=0
EXTRACT: note_on channel=4 note=82 velocity=0 time=0
EXTRACT: note_on channel=4 note=72 velocity=109 time=0
EXTRACT: note_on channel=4 note=77 velocity=110 time=0
EXTRACT: note_on channel=4 note=81 velocity=93 time=0
EXTRACT: note_on channel=1 note=60 velocity=92 time=0.0030737687499999998
EXTRACT: note_on channel=1 note=57 velocity=108 time=0
EXTRACT: note_on channel=1 note=53 velocity=91 time=0
EXTRACT: note_on channel=1 note=65 velocity=98 time=0
EXTRACT: note_on channel=9 note=49 velocity=0 time=0.02868850833333333
EXTRACT: note_on channel=9 note=36 velocity=0 time=0
EXTRACT: note_on channel=9 note=42 velocity=44 time=0.20491791666666664
EXTRACT: note_on channel=0 note=41 velocity=0 time=0.008196716666666666
EXTRACT: note_on channel=9 note=42 velocity=0 time=0.032786866666666664
EXTRACT: note_on channel=2 note=60 velocity=0 time=0.20491791666666664
EXTRACT: note_on channel=2 note=57 velocity=0 time=0
EXTRACT: note_on channel=2 note=53 velocity=0 time=0
EXTRACT: note_on channel=2 note=65 velocity=0 time=0
EXTRACT: note_on channel=9 note=40 velocity=127 time=0
EXTRACT: note_on channel=9 note=42 velocity=67 time=0
EXTRACT: note_on channel=5 note=72 velocity=0 time=0.0020491791666666665
EXTRACT: note_on channel=5 note=67 velocity=0 time=0
EXTRACT: note_on channel=2 note=60 velocity=111 time=0.0020491791666666665
EXTRACT: note_on channel=2 note=57 velocity=104 time=0
EXTRACT: note_on channel=2 note=53 velocity=97 time=0
EXTRACT: note_on channel=2 note=65 velocity=101 time=0
EXTRACT: note_on channel=5 note=69 velocity=51 time=0.0020491791666666665
EXTRACT: note_on channel=5 note=65 velocity=92 time=0
EXTRACT: note_on channel=0 note=41 velocity=110 time=0.0020491791666666665
EXTRACT: note_on channel=1 note=60 velocity=0 time=0
EXTRACT: note_on channel=1 note=57 velocity=0 time=0
EXTRACT: note_on channel=1 note=53 velocity=0 time=0
EXTRACT: note_on channel=1 note=65 velocity=0 time=0
EXTRACT: note_on channel=1 note=60 velocity=88 time=0.004098358333333333
EXTRACT: note_on channel=1 note=57 velocity=100 time=0
EXTRACT: note_on channel=1 note=53 velocity=97 time=0
EXTRACT: note_on channel=1 note=65 velocity=80 time=0
EXTRACT: note_on channel=9 note=40 velocity=0 time=0.02868850833333333
EXTRACT: note_on channel=9 note=42 velocity=0 time=0
EXTRACT: note_on channel=0 note=41 velocity=0 time=0.15163925833333333
EXTRACT: note_on channel=9 note=42 velocity=68 time=0.053278658333333326
EXTRACT: note_on channel=5 note=69 velocity=0 time=0.0020491791666666665
EXTRACT: note_on channel=5 note=65 velocity=0 time=0
EXTRACT: note_on channel=5 note=65 velocity=44 time=0.004098358333333333
EXTRACT: note_on channel=5 note=60 velocity=102 time=0
EXTRACT: note_on channel=0 note=45 velocity=107 time=0.0020491791666666665
EXTRACT: note_on channel=9 note=42 velocity=0 time=0.032786866666666664
EXTRACT: note_on channel=0 note=45 velocity=0 time=0.15163925833333333
EXTRACT: note_on channel=2 note=60 velocity=0 time=0.053278658333333326
EXTRACT: note_on channel=2 note=57 velocity=0 time=0
EXTRACT: note_on channel=2 note=53 velocity=0 time=0
EXTRACT: note_on channel=2 note=65 velocity=0 time=0
EXTRACT: note_on channel=9 note=36 velocity=120 time=0
EXTRACT: note_on channel=9 note=42 velocity=57 time=0
EXTRACT: note_on channel=2 note=60 velocity=107 time=0.004098358333333333
EXTRACT: note_on channel=2 note=57 velocity=110 time=0
EXTRACT: note_on channel=2 note=53 velocity=112 time=0
EXTRACT: note_on channel=0 note=48 velocity=127 time=0.004098358333333333
EXTRACT: note_on channel=1 note=60 velocity=0 time=0
EXTRACT: note_on channel=1 note=57 velocity=0 time=0
EXTRACT: note_on channel=1 note=53 velocity=0 time=0
EXTRACT: note_on channel=1 note=65 velocity=0 time=0
EXTRACT: note_on channel=1 note=60 velocity=96 time=0.004098358333333333
EXTRACT: note_on channel=1 note=57 velocity=116 time=0
EXTRACT: note_on channel=1 note=53 velocity=104 time=0
EXTRACT: note_on channel=9 note=36 velocity=0 time=0.02868850833333333
EXTRACT: note_on channel=9 note=42 velocity=0 time=0
EXTRACT: note_on channel=0 note=48 velocity=0 time=0.15163925833333333
EXTRACT: note_on channel=2 note=60 velocity=0 time=0.053278658333333326
EXTRACT: note_on channel=2 note=57 velocity=0 time=0
EXTRACT: note_on channel=2 note=53 velocity=0 time=0
EXTRACT: note_on channel=9 note=36 velocity=110 time=0
EXTRACT: note_on channel=9 note=42 velocity=41 time=0
EXTRACT: note_on channel=2 note=60 velocity=65 time=0.004098358333333333
EXTRACT: note_on channel=2 note=57 velocity=84 time=0
EXTRACT: note_on channel=2 note=53 velocity=99 time=0
EXTRACT: note_on channel=2 note=65 velocity=114 time=0
EXTRACT: note_on channel=0 note=45 velocity=106 time=0.004098358333333333
EXTRACT: note_on channel=1 note=60 velocity=0 time=0
EXTRACT: note_on channel=1 note=57 velocity=0 time=0
EXTRACT: note_on channel=1 note=53 velocity=0 time=0
EXTRACT: note_on channel=1 note=60 velocity=111 time=0.004098358333333333
EXTRACT: note_on channel=1 note=57 velocity=97 time=0
EXTRACT: note_on channel=1 note=53 velocity=68 time=0
EXTRACT: note_on channel=1 note=65 velocity=64 time=0
EXTRACT: note_on channel=9 note=36 velocity=0 time=0.02868850833333333
EXTRACT: note_on channel=9 note=42 velocity=0 time=0
EXTRACT: note_on channel=0 note=45 velocity=0 time=0.15163925833333333
EXTRACT: note_on channel=2 note=60 velocity=0 time=0.053278658333333326
EXTRACT: note_on channel=2 note=57 velocity=0 time=0
EXTRACT: note_on channel=2 note=53 velocity=0 time=0
EXTRACT: note_on channel=2 note=65 velocity=0 time=0
EXTRACT: note_on channel=9 note=40 velocity=127 time=0
EXTRACT: note_on channel=9 note=42 velocity=61 time=0
EXTRACT: note_on channel=2 note=60 velocity=94 time=0.004098358333333333
EXTRACT: note_on channel=2 note=57 velocity=108 time=0
EXTRACT: note_on channel=2 note=53 velocity=109 time=0
EXTRACT: note_on channel=2 note=65 velocity=104 time=0
EXTRACT: note_on channel=5 note=65 velocity=0 time=0.0020491791666666665
EXTRACT: note_on channel=5 note=60 velocity=0 time=0
EXTRACT: note_on channel=0 note=48 velocity=108 time=0.0020491791666666665
EXTRACT: note_on channel=1 note=60 velocity=0 time=0
EXTRACT: note_on channel=1 note=57 velocity=0 time=0
EXTRACT: note_on channel=1 note=53 velocity=0 time=0
EXTRACT: note_on channel=1 note=65 velocity=0 time=0
EXTRACT: note_on channel=1 note=60 velocity=92 time=0.004098358333333333
EXTRACT: note_on channel=1 note=57 velocity=104 time=0
EXTRACT: note_on channel=1 note=53 velocity=92 time=0
EXTRACT: note_on channel=1 note=65 velocity=117 time=0
EXTRACT: note_on channel=9 note=40 velocity=0 time=0.02868850833333333
EXTRACT: note_on channel=9 note=42 velocity=0 time=0
EXTRACT: note_on channel=0 note=48 velocity=0 time=0.15163925833333333
EXTRACT: note_on channel=2 note=60 velocity=0 time=0.053278658333333326
EXTRACT: note_on channel=2 note=57 velocity=0 time=0
EXTRACT: note_on channel=2 note=53 velocity=0 time=0
EXTRACT: note_on channel=2 note=65 velocity=0 time=0
EXTRACT: note_on channel=9 note=36 velocity=110 time=0
EXTRACT: note_on channel=9 note=42 velocity=43 time=0
EXTRACT: note_on channel=2 note=60 velocity=115 time=0.004098358333333333
EXTRACT: note_on channel=2 note=57 velocity=97 time=0
EXTRACT: note_on channel=2 note=53 velocity=104 time=0
EXTRACT: note_on channel=5 note=72 velocity=69 time=0.0020491791666666665
EXTRACT: note_on channel=5 note=67 velocity=101 time=0
EXTRACT: note_on channel=0 note=45 velocity=120 time=0.0020491791666666665
EXTRACT: note_on channel=1 note=60 velocity=0 time=0
EXTRACT: note_on channel=1 note=57 velocity=0 time=0
EXTRACT: note_on channel=1 note=53 velocity=0 time=0
EXTRACT: note_on channel=1 note=65 velocity=0 time=0
EXTRACT: note_on channel=1 note=60 velocity=75 time=0.004098358333333333
EXTRACT: note_on channel=1 note=57 velocity=80 time=0
EXTRACT: note_on channel=1 note=53 velocity=112 time=0
EXTRACT: note_on channel=9 note=36 velocity=0 time=0.02868850833333333
EXTRACT: note_on channel=9 note=42 velocity=0 time=0
EXTRACT: note_on channel=0 note=45 velocity=0 time=0.15163925833333333
EXTRACT: note_on channel=2 note=60 velocity=0 time=0.053278658333333326
EXTRACT: note_on channel=2 note=57 velocity=0 time=0
EXTRACT: note_on channel=2 note=53 velocity=0 time=0
EXTRACT: note_on channel=9 note=42 velocity=59 time=0
EXTRACT: note_on channel=9 note=36 velocity=120 time=0
EXTRACT: note_on channel=5 note=72 velocity=0 time=0.0020491791666666665
EXTRACT: note_on channel=5 note=67 velocity=0 time=0
EXTRACT: note_on channel=2 note=60 velocity=115 time=0.0020491791666666665
EXTRACT: note_on channel=2 note=56 velocity=112 time=0
EXTRACT: note_on channel=2 note=53 velocity=94 time=0
EXTRACT: note_on channel=2 note=62 velocity=106 time=0
EXTRACT: note_on channel=5 note=72 velocity=45 time=0.0020491791666666665
EXTRACT: note_on channel=5 note=67 velocity=97 time=0
EXTRACT: note_on channel=0 note=34 velocity=124 time=0.0020491791666666665
EXTRACT: note_on channel=1 note=60 velocity=0 time=0
EXTRACT: note_on channel=1 note=57 velocity=0 time=0
EXTRACT: note_on channel=1 note=53 velocity=0 time=0
EXTRACT: note_on channel=4 note=72 velocity=0 time=0.0010245895833333333
EXTRACT: note_on channel=4 note=77 velocity=0 time=0
EXTRACT: note_on channel=4 note=81 velocity=0 time=0
EXTRACT: note_on channel=4 note=74 velocity=112 time=0
EXTRACT: note_on channel=4 note=77 velocity=121 time=0
EXTRACT: note_on channel=4 note=80 velocity=104 time=0
EXTRACT: note_on channel=1 note=60 velocity=81 time=0.0030737687499999998
EXTRACT: note_on channel=1 note=56 velocity=98 time=0
EXTRACT: note_on channel=1 note=53 velocity=109 time=0
EXTRACT: note_on channel=1 note=62 velocity=103 time=0
EXTRACT: note_on channel=9 note=42 velocity=0 time=0.02868850833333333
EXTRACT: note_on channel=9 note=36 velocity=0 time=0
EXTRACT: note_on channel=0 note=34 velocity=0 time=0.15163925833333333
EXTRACT: note_on channel=9 note=40 velocity=127 time=0.053278658333333326
EXTRACT: note_on channel=9 note=42 velocity=44 time=0
EXTRACT: note_on channel=0 note=36 velocity=116 time=0.008196716666666666
EXTRACT: note_on channel=9 note=40 velocity=0 time=0.032786866666666664
EXTRACT: note_on channel=9 note=42 velocity=0 time=0
EXTRACT: note_on channel=0 note=36 velocity=0 time=0.15163925833333333
EXTRACT: note_on channel=2 note=60 velocity=0 time=0.053278658333333326
EXTRACT: note_on channel=2 note=56 velocity=0 time=0
EXTRACT: note_on channel=2 note=53 velocity=0 time=0
EXTRACT: note_on channel=2 note=62 velocity=0 time=0
EXTRACT: note_on channel=9 note=40 velocity=127 time=0
EXTRACT: note_on channel=9 note=42 velocity=59 time=0
EXTRACT: note_on channel=5 note=72 velocity=0 time=0.0020491791666666665
EXTRACT: note_on channel=5 note=67 velocity=0 time=0
EXTRACT: note_on channel=2 note=60 velocity=99 time=0.0020491791666666665
EXTRACT: note_on channel=2 note=56 velocity=85 time=0
EXTRACT: note_on channel=2 note=53 velocity=97 time=0
EXTRACT: note_on channel=2 note=62 velocity=115 time=0
EXTRACT: note_on channel=5 note=69 velocity=61 time=0.0020491791666666665
EXTRACT: note_on channel=5 note=65 velocity=108 time=0
EXTRACT: note_on channel=0 note=38 velocity=120 time=0.0020491791666666665
EXTRACT: note_on channel=1 note=60 velocity=0 time=0
EXTRACT: note_on channel=1 note=56 velocity=0 time=0
EXTRACT: note_on channel=1 note=53 velocity=0 time=0
EXTRACT: note_on channel=1 note=62 velocity=0 time=0
EXTRACT: note_on channel=1 note=60 velocity=86 time=0.004098358333333333
EXTRACT: note_on channel=1 note=56 velocity=98 time=0
EXTRACT: note_on channel=1 note=53 velocity=105 time=0
EXTRACT: note_on channel=1 note=62 velocity=99 time=0
EXTRACT: note_on channel=9 note=40 velocity=0 time=0.02868850833333333
EXTRACT: note_on channel=9 note=42 velocity=0 time=0
EXTRACT: note_on channel=0 note=38 velocity=0 time=0.15163925833333333
EXTRACT: note_on channel=9 note=36 velocity=120 time=0.053278658333333326
EXTRACT: note_on channel=9 note=42 velocity=61 time=0
EXTRACT: note_on channel=5 note=69 velocity=0 time=0.0020491791666666665
EXTRACT: note_on channel=5 note=65 velocity=0 time=0
EXTRACT: note_on channel=5 note=69 velocity=55 time=0.004098358333333333
EXTRACT: note_on channel=5 note=65 velocity=97 time=0
EXTRACT: note_on channel=0 note=41 velocity=114 time=0.0020491791666666665
EXTRACT: note_on channel=9 note=36 velocity=0 time=0.032786866666666664
EXTRACT: note_on channel=9 note=42 velocity=0 time=0
EXTRACT: note_on channel=2 note=60 velocity=0 time=0.20491791666666664
EXTRACT: note_on channel=2 note=56 velocity=0 time=0
EXTRACT: note_on channel=2 note=53 velocity=0 time=0
EXTRACT: note_on channel=2 note=62 velocity=0 time=0
EXTRACT: note_on channel=9 note=36 velocity=120 time=0
EXTRACT: note_on channel=9 note=42 velocity=57 time=0
EXTRACT: note_on channel=2 note=60 velocity=114 time=0.004098358333333333
EXTRACT: note_on channel=2 note=56 velocity=116 time=0
EXTRACT: note_on channel=2 note=53 velocity=102 time=0
EXTRACT: note_on channel=0 note=41 velocity=0 time=0.004098358333333333
EXTRACT: note_on channel=1 note=60 velocity=0 time=0
EXTRACT: note_on channel=1 note=56 velocity=0 time=0
EXTRACT: note_on channel=1 note=53 velocity=0 time=0
EXTRACT: note_on channel=1 note=62 velocity=0 time=0
EXTRACT: note_on channel=1 note=60 velocity=101 time=0.004098358333333333
EXTRACT: note_on channel=1 note=56 velocity=111 time=0
EXTRACT: note_on channel=1 note=53 velocity=99 time=0
EXTRACT: note_on channel=9 note=36 velocity=0 time=0.02868850833333333
EXTRACT: note_on channel=9 note=42 velocity=0 time=0
EXTRACT: note_on channel=2 note=60 velocity=0 time=0.20491791666666664
EXTRACT: note_on channel=2 note=56 velocity=0 time=0
EXTRACT: note_on channel=2 note=53 velocity=0 time=0
EXTRACT: note_on channel=9 note=36 velocity=110 time=0
EXTRACT: note_on channel=9 note=42 velocity=48 time=0
EXTRACT: note_on channel=5 note=69 velocity=0 time=0.0020491791666666665
EXTRACT: note_on channel=5 note=65 velocity=0 time=0
EXTRACT: note_on channel=2 note=60 velocity=69 time=0.0020491791666666665
EXTRACT: note_on channel=2 note=56 velocity=74 time=0
EXTRACT: note_on channel=2 note=53 velocity=86 time=0
EXTRACT: note_on channel=2 note=62 velocity=74 time=0
EXTRACT: note_on channel=5 note=69 velocity=79 time=0.0020491791666666665
EXTRACT: note_on channel=5 note=65 velocity=108 time=0
EXTRACT: note_on channel=0 note=38 velocity=105 time=0.0020491791666666665
EXTRACT: note_on channel=1 note=60 velocity=0 time=0
EXTRACT: note_on channel=1 note=56 velocity=0 time=0
EXTRACT: note_on channel=1 note=53 velocity=0 time=0
EXTRACT: note_on channel=1 note=60 velocity=110 time=0.004098358333333333
EXTRACT: note_on channel=1 note=56 velocity=91 time=0
EXTRACT: note_on channel=1 note=53 velocity=86 time=0
EXTRACT: note_on channel=1 note=62 velocity=100 time=0
EXTRACT: note_on channel=9 note=36 velocity=0 time=0.02868850833333333
EXTRACT: note_on channel=9 note=42 velocity=0 time=0
EXTRACT: note_on channel=0 note=38 velocity=0 time=0.15163925833333333
EXTRACT: note_on channel=2 note=60 velocity=0 time=0.053278658333333326
EXTRACT: note_on channel=2 note=56 velocity=0 time=0
EXTRACT: note_on channel=2 note=53 velocity=0 time=0
EXTRACT: note_on channel=2 note=62 velocity=0 time=0
EXTRACT: note_on channel=9 note=40 velocity=127 time=0
EXTRACT: note_on channel=9 note=42 velocity=63 time=0
EXTRACT: note_on channel=5 note=69 velocity=0 time=0.0020491791666666665
EXTRACT: note_on channel=5 note=65 velocity=0 time=0
EXTRACT: note_on channel=2 note=60 velocity=91 time=0.0020491791666666665
EXTRACT: note_on channel=2 note=56 velocity=116 time=0
EXTRACT: note_on channel=2 note=53 velocity=103 time=0
EXTRACT: note_on channel=2 note=62 velocity=91 time=0
EXTRACT: note_on channel=5 note=67 velocity=46 time=0.0020491791666666665
EXTRACT: note_on channel=5 note=64 velocity=87 time=0
EXTRACT: note_on channel=0 note=41 velocity=107 time=0.0020491791666666665
EXTRACT: note_on channel=1 note=60 velocity=0 time=0
EXTRACT: note_on channel=1 note=56 velocity=0 time=0
EXTRACT: note_on channel=1 note=53 velocity=0 time=0
EXTRACT: note_on channel=1 note=62 velocity=0 time=0
EXTRACT: note_on channel=1 note=60 velocity=94 time=0.004098358333333333
EXTRACT: note_on channel=1 note=56 velocity=85 time=0
EXTRACT: note_on channel=1 note=53 velocity=106 time=0
EXTRACT: note_on channel=1 note=62 velocity=80 time=0
EXTRACT: note_on channel=9 note=40 velocity=0 time=0.02868850833333333
EXTRACT: note_on channel=9 note=42 velocity=0 time=0
EXTRACT: note_on channel=0 note=41 velocity=0 time=0.15163925833333333
EXTRACT: note_on channel=2 note=60 velocity=0 time=0.053278658333333326
EXTRACT: note_on channel=2 note=56 velocity=0 time=0
EXTRACT: note_on channel=2 note=53 velocity=0 time=0
EXTRACT: note_on channel=2 note=62 velocity=0 time=0
EXTRACT: note_on channel=9 note=36 velocity=110 time=0
EXTRACT: note_on channel=9 note=42 velocity=41 time=0
EXTRACT: note_on channel=2 note=60 velocity=94 time=0.004098358333333333
EXTRACT: note_on channel=2 note=56 velocity=111 time=0
EXTRACT: note_on channel=2 note=53 velocity=83 time=0
EXTRACT: note_on channel=0 note=43 velocity=114 time=0.004098358333333333
EXTRACT: note_on channel=1 note=60 velocity=0 time=0
EXTRACT: note_on channel=1 note=56 velocity=0 time=0
EXTRACT: note_on channel=1 note=53 velocity=0 time=0
EXTRACT: note_on channel=1 note=62 velocity=0 time=0
EXTRACT: note_on channel=1 note=60 velocity=67 time=0.004098358333333333
EXTRACT: note_on channel=1 note=56 velocity=96 time=0
EXTRACT: note_on channel=1 note=53 velocity=100 time=0
EXTRACT: note_on channel=9 note=36 velocity=0 time=0.02868850833333333
EXTRACT: note_on channel=9 note=42 velocity=0 time=0
EXTRACT: note_on channel=0 note=43 velocity=0 time=0.15163925833333333
EXTRACT: note_on channel=2 note=60 velocity=0 time=0.053278658333333326
EXTRACT: note_on channel=2 note=56 velocity=0 time=0
EXTRACT: note_on channel=2 note=53 velocity=0 time=0
EXTRACT: note_on channel=9 note=49 velocity=100 time=0
EXTRACT: note_on channel=9 note=36 velocity=120 time=0
EXTRACT: note_on channel=2 note=59 velocity=107 time=0.004098358333333333
EXTRACT: note_on channel=2 note=62 velocity=101 time=0
EXTRACT: note_on channel=2 note=55 velocity=101 time=0
EXTRACT: note_on channel=2 note=48 velocity=86 time=0
EXTRACT: note_on channel=0 note=36 velocity=118 time=0.004098358333333333
EXTRACT: note_on channel=1 note=60 velocity=0 time=0
EXTRACT: note_on channel=1 note=56 velocity=0 time=0
EXTRACT: note_on channel=1 note=53 velocity=0 time=0
EXTRACT: note_on channel=4 note=74 velocity=0 time=0.0010245895833333333
EXTRACT: note_on channel=4 note=77 velocity=0 time=0
EXTRACT: note_on channel=4 note=80 velocity=0 time=0
EXTRACT: note_on channel=4 note=76 velocity=95 time=0
EXTRACT: note_on channel=4 note=83 velocity=90 time=0
EXTRACT: note_on channel=4 note=79 velocity=114 time=0
EXTRACT: note_on channel=4 note=72 velocity=119 time=0
EXTRACT: note_on channel=1 note=59 velocity=100 time=0.0030737687499999998
EXTRACT: note_on channel=1 note=62 velocity=79 time=0
EXTRACT: note_on channel=1 note=55 velocity=110 time=0
EXTRACT: note_on channel=1 note=48 velocity=80 time=0
EXTRACT: note_on channel=9 note=49 velocity=0 time=0.02868850833333333
EXTRACT: note_on channel=9 note=36 velocity=0 time=0
EXTRACT: note_on channel=0 note=36 velocity=0 time=0.15163925833333333
EXTRACT: note_on channel=9 note=42 velocity=43 time=0.053278658333333326
EXTRACT: note_on channel=0 note=36 velocity=118 time=0.008196716666666666
EXTRACT: note_on channel=9 note=42 velocity=0 time=0.032786866666666664
EXTRACT: note_on channel=0 note=36 velocity=0 time=0.15163925833333333
EXTRACT: note_on channel=2 note=59 velocity=0 time=0.053278658333333326
EXTRACT: note_on channel=2 note=62 velocity=0 time=0
EXTRACT: note_on channel=2 note=55 velocity=0 time=0
EXTRACT: note_on channel=2 note=48 velocity=0 time=0
EXTRACT: note_on channel=9 note=40 velocity=127 time=0
EXTRACT: note_on channel=9 note=42 velocity=67 time=0
EXTRACT: note_on channel=2 note=59 velocity=101 time=0.004098358333333333
EXTRACT: note_on channel=2 note=62 velocity=106 time=0
EXTRACT: note_on channel=2 note=55 velocity=88 time=0
EXTRACT: note_on channel=2 note=48 velocity=115 time=0
EXTRACT: note_on channel=0 note=36 velocity=112 time=0.004098358333333333
EXTRACT: note_on channel=1 note=59 velocity=0 time=0
EXTRACT: note_on channel=1 note=62 velocity=0 time=0
EXTRACT: note_on channel=1 note=55 velocity=0 time=0
EXTRACT: note_on channel=1 note=48 velocity=0 time=0
EXTRACT: note_on channel=1 note=59 velocity=81 time=0.004098358333333333
EXTRACT: note_on channel=1 note=62 velocity=95 time=0
EXTRACT: note_on channel=1 note=55 velocity=97 time=0
EXTRACT: note_on channel=1 note=48 velocity=79 time=0
EXTRACT: note_on channel=9 note=40 velocity=0 time=0.02868850833333333
EXTRACT: note_on channel=9 note=42 velocity=0 time=0
EXTRACT: note_on channel=0 note=36 velocity=0 time=0.15163925833333333
EXTRACT: note_on channel=9 note=42 velocity=60 time=0.053278658333333326
EXTRACT: pitchwheel channel=0 pitch=0 time=0.008196716666666666
EXTRACT: note_on channel=0 note=36 velocity=127 time=0
EXTRACT: pitchwheel channel=0 pitch=82 time=0.004098358333333333
EXTRACT: pitchwheel channel=0 pitch=165 time=0.004098358333333333
EXTRACT: pitchwheel channel=0 pitch=247 time=0.004098358333333333
EXTRACT: pitchwheel channel=0 pitch=330 time=0.004098358333333333
EXTRACT: pitchwheel channel=0 pitch=412 time=0.004098358333333333
EXTRACT: pitchwheel channel=0 pitch=494 time=0.004098358333333333
EXTRACT: pitchwheel channel=0 pitch=577 time=0.004098358333333333
EXTRACT: pitchwheel channel=0 pitch=659 time=0.004098358333333333
EXTRACT: note_on channel=9 note=42 velocity=0 time=0
EXTRACT: pitchwheel channel=0 pitch=742 time=0.004098358333333333
EXTRACT: pitchwheel channel=0 pitch=824 time=0.004098358333333333
EXTRACT: pitchwheel channel=0 pitch=906 time=0.004098358333333333
EXTRACT: pitchwheel channel=0 pitch=989 time=0.004098358333333333
EXTRACT: pitchwheel channel=0 pitch=1071 time=0.004098358333333333
EXTRACT: pitchwheel channel=0 pitch=1154 time=0.004098358333333333
EXTRACT: pitchwheel channel=0 pitch=1236 time=0.004098358333333333
EXTRACT: pitchwheel channel=0 pitch=1318 time=0.004098358333333333
EXTRACT: pitchwheel channel=0 pitch=1401 time=0.004098358333333333
EXTRACT: pitchwheel channel=0 pitch=1483 time=0.004098358333333333
EXTRACT: pitchwheel channel=0 pitch=1566 time=0.004098358333333333
EXTRACT: pitchwheel channel=0 pitch=1648 time=0.004098358333333333
EXTRACT: pitchwheel channel=0 pitch=1730 time=0.004098358333333333
EXTRACT: pitchwheel channel=0 pitch=1813 time=0.004098358333333333
EXTRACT: pitchwheel channel=0 pitch=1895 time=0.004098358333333333
EXTRACT: pitchwheel channel=0 pitch=1978 time=0.004098358333333333
EXTRACT: pitchwheel channel=0 pitch=2060 time=0.004098358333333333
EXTRACT: pitchwheel channel=0 pitch=2142 time=0.004098358333333333
EXTRACT: pitchwheel channel=0 pitch=2225 time=0.004098358333333333
EXTRACT: pitchwheel channel=0 pitch=2307 time=0.004098358333333333
EXTRACT: pitchwheel channel=0 pitch=2390 time=0.004098358333333333
EXTRACT: pitchwheel channel=0 pitch=2472 time=0.004098358333333333
EXTRACT: pitchwheel channel=0 pitch=2554 time=0.004098358333333333
EXTRACT: pitchwheel channel=0 pitch=2637 time=0.004098358333333333
EXTRACT: pitchwheel channel=0 pitch=2719 time=0.004098358333333333
EXTRACT: pitchwheel channel=0 pitch=2801 time=0.004098358333333333
EXTRACT: pitchwheel channel=0 pitch=2884 time=0.004098358333333333
EXTRACT: pitchwheel channel=0 pitch=2966 time=0.004098358333333333
EXTRACT: pitchwheel channel=0 pitch=3049 time=0.004098358333333333
EXTRACT: pitchwheel channel=0 pitch=3131 time=0.004098358333333333
EXTRACT: pitchwheel channel=0 pitch=3213 time=0.004098358333333333
EXTRACT: pitchwheel channel=0 pitch=3296 time=0.004098358333333333
EXTRACT: pitchwheel channel=0 pitch=3378 time=0.004098358333333333
EXTRACT: pitchwheel channel=0 pitch=3461 time=0.004098358333333333
EXTRACT: pitchwheel channel=0 pitch=3543 time=0.004098358333333333
EXTRACT: pitchwheel channel=0 pitch=3625 time=0.004098358333333333
EXTRACT: note_on channel=0 note=36 velocity=0 time=0.004098358333333333
EXTRACT: pitchwheel channel=0 pitch=3708 time=0
EXTRACT: pitchwheel channel=0 pitch=3790 time=0.004098358333333333
EXTRACT: pitchwheel channel=0 pitch=3873 time=0.004098358333333333
EXTRACT: pitchwheel channel=0 pitch=3955 time=0.004098358333333333
EXTRACT: pitchwheel channel=0 pitch=4037 time=0.004098358333333333
EXTRACT: pitchwheel channel=0 pitch=4120 time=0.004098358333333333
EXTRACT: pitchwheel channel=0 pitch=4202 time=0.004098358333333333
EXTRACT: pitchwheel channel=0 pitch=4285 time=0.004098358333333333
EXTRACT: pitchwheel channel=0 pitch=4367 time=0.004098358333333333
EXTRACT: pitchwheel channel=0 pitch=4449 time=0.004098358333333333
EXTRACT: pitchwheel channel=0 pitch=4532 time=0.004098358333333333
EXTRACT: pitchwheel channel=0 pitch=4614 time=0.004098358333333333
EXTRACT: pitchwheel channel=0 pitch=4697 time=0.004098358333333333
EXTRACT: pitchwheel channel=0 pitch=4779 time=0.004098358333333333
EXTRACT: note_on channel=2 note=59 velocity=0 time=0
EXTRACT: note_on channel=2 note=62 velocity=0 time=0
EXTRACT: note_on channel=2 note=55 velocity=0 time=0
EXTRACT: note_on channel=2 note=48 velocity=0 time=0
EXTRACT: note_on channel=9 note=36 velocity=120 time=0
EXTRACT: note_on channel=9 note=42 velocity=61 time=0
EXTRACT: note_on channel=2 note=59 velocity=96 time=0.004098358333333333
EXTRACT: note_on channel=2 note=62 velocity=88 time=0
EXTRACT: note_on channel=2 note=55 velocity=86 time=0
EXTRACT: pitchwheel channel=0 pitch=0 time=0.004098358333333333
EXTRACT: note_on channel=0 note=43 velocity=106 time=0
EXTRACT: note_on channel=1 note=59 velocity=0 time=0
EXTRACT: note_on channel=1 note=62 velocity=0 time=0
EXTRACT: note_on channel=1 note=55 velocity=0 time=0
EXTRACT: note_on channel=1 note=48 velocity=0 time=0
EXTRACT: note_on channel=1 note=59 velocity=87 time=0.004098358333333333
EXTRACT: note_on channel=1 note=62 velocity=84 time=0
EXTRACT: note_on channel=1 note=55 velocity=95 time=0
EXTRACT: note_on channel=9 note=36 velocity=0 time=0.02868850833333333
EXTRACT: note_on channel=9 note=42 velocity=0 time=0
EXTRACT: note_on channel=0 note=43 velocity=0 time=0.15163925833333333
EXTRACT: note_on channel=2 note=59 velocity=0 time=0.053278658333333326
EXTRACT: note_on channel=2 note=62 velocity=0 time=0
EXTRACT: note_on channel=2 note=55 velocity=0 time=0
EXTRACT: note_on channel=9 note=36 velocity=110 time=0
EXTRACT: note_on channel=9 note=42 velocity=50 time=0
EXTRACT: note_on channel=2 note=59 velocity=102 time=0.004098358333333333
EXTRACT: note_on channel=2 note=62 velocity=91 time=0
EXTRACT: note_on channel=2 note=55 velocity=92 time=0
EXTRACT: note_on channel=2 note=48 velocity=100 time=0
EXTRACT: note_on channel=0 note=43 velocity=119 time=0.004098358333333333
EXTRACT: note_on channel=1 note=59 velocity=0 time=0
EXTRACT: note_on channel=1 note=62 velocity=0 time=0
EXTRACT: note_on channel=1 note=55 velocity=0 time=0
EXTRACT: note_on channel=1 note=59 velocity=98 time=0.004098358333333333
EXTRACT: note_on channel=1 note=62 velocity=73 time=0
EXTRACT: note_on channel=1 note=55 velocity=89 time=0
EXTRACT: note_on channel=1 note=48 velocity=87 time=0
EXTRACT: note_on channel=9 note=36 velocity=0 time=0.02868850833333333
EXTRACT: note_on channel=9 note=42 velocity=0 time=0
EXTRACT: note_on channel=0 note=43 velocity=0 time=0.15163925833333333
EXTRACT: note_on channel=2 note=59 velocity=0 time=0.053278658333333326
EXTRACT: note_on channel=2 note=62 velocity=0 time=0
EXTRACT: note_on channel=2 note=55 velocity=0 time=0
EXTRACT: note_on channel=2 note=48 velocity=0 time=0
EXTRACT: note_on channel=9 note=40 velocity=127 time=0
EXTRACT: note_on channel=9 note=42 velocity=62 time=0
EXTRACT: note_on channel=2 note=59 velocity=114 time=0.004098358333333333
EXTRACT: note_on channel=2 note=62 velocity=92 time=0
EXTRACT: note_on channel=2 note=55 velocity=96 time=0
EXTRACT: note_on channel=2 note=48 velocity=103 time=0
EXTRACT: note_on channel=0 note=43 velocity=103 time=0.004098358333333333
EXTRACT: note_on channel=1 note=59 velocity=0 time=0
EXTRACT: note_on channel=1 note=62 velocity=0 time=0
EXTRACT: note_on channel=1 note=55 velocity=0 time=0
EXTRACT: note_on channel=1 note=48 velocity=0 time=0
EXTRACT: note_on channel=1 note=59 velocity=99 time=0.004098358333333333
EXTRACT: note_on channel=1 note=62 velocity=89 time=0
EXTRACT: note_on channel=1 note=55 velocity=102 time=0
EXTRACT: note_on channel=1 note=48 velocity=99 time=0
EXTRACT: note_on channel=9 note=40 velocity=0 time=0.02868850833333333
EXTRACT: note_on channel=9 note=42 velocity=0 time=0
EXTRACT: note_on channel=0 note=43 velocity=0 time=0.15163925833333333
EXTRACT: note_on channel=2 note=59 velocity=0 time=0.053278658333333326
EXTRACT: note_on channel=2 note=62 velocity=0 time=0
EXTRACT: note_on channel=2 note=55 velocity=0 time=0
EXTRACT: note_on channel=2 note=48 velocity=0 time=0
EXTRACT: note_on channel=9 note=36 velocity=110 time=0
EXTRACT: note_on channel=9 note=42 velocity=44 time=0
EXTRACT: note_on channel=2 note=59 velocity=90 time=0.004098358333333333
EXTRACT: note_on channel=2 note=62 velocity=113 time=0
EXTRACT: note_on channel=2 note=55 velocity=91 time=0
EXTRACT: note_on channel=0 note=40 velocity=107 time=0.004098358333333333
EXTRACT: note_on channel=1 note=59 velocity=0 time=0
EXTRACT: note_on channel=1 note=62 velocity=0 time=0
EXTRACT: note_on channel=1 note=55 velocity=0 time=0
EXTRACT: note_on channel=1 note=48 velocity=0 time=0
EXTRACT: note_on channel=1 note=59 velocity=114 time=0.004098358333333333
EXTRACT: note_on channel=1 note=62 velocity=99 time=0
EXTRACT: note_on channel=1 note=55 velocity=68 time=0
EXTRACT: note_on channel=9 note=36 velocity=0 time=0.02868850833333333
EXTRACT: note_on channel=9 note=42 velocity=0 time=0
EXTRACT: note_on channel=9 note=42 velocity=63 time=0.20491791666666664
EXTRACT: note_on channel=5 note=67 velocity=0 time=0.0061475374999999995
EXTRACT: note_on channel=5 note=64 velocity=0 time=0
EXTRACT: note_on channel=0 note=40 velocity=0 time=0.0020491791666666665
EXTRACT: note_on channel=9 note=42 velocity=0 time=0.032786866666666664
EXTRACT: note_on channel=2 note=59 velocity=0 time=0.20491791666666664
EXTRACT: note_on channel=2 note=62 velocity=0 time=0
EXTRACT: note_on channel=2 note=55 velocity=0 time=0
EXTRACT: note_on channel=9 note=36 velocity=120 time=0
EXTRACT: note_on channel=9 note=42 velocity=46 time=0
EXTRACT: note_on channel=2 note=59 velocity=95 time=0.004098358333333333
EXTRACT: note_on channel=2 note=64 velocity=92 time=0
EXTRACT: note_on channel=2 note=55 velocity=114 time=0
EXTRACT: note_on channel=0 note=43 velocity=106 time=0.004098358333333333
EXTRACT: note_on channel=1 note=59 velocity=0 time=0
EXTRACT: note_on channel=1 note=62 velocity=0 time=0
EXTRACT: note_on channel=1 note=55 velocity=0 time=0
EXTRACT: note_on channel=1 note=59 velocity=62 time=0.004098358333333333
EXTRACT: note_on channel=1 note=64 velocity=62 time=0
EXTRACT: note_on channel=1 note=55 velocity=105 time=0
EXTRACT: note_on channel=9 note=36 velocity=0 time=0.02868850833333333
EXTRACT: note_on channel=9 note=42 velocity=0 time=0
EXTRACT: note_on channel=2 note=59 velocity=0 time=0.20491791666666664
EXTRACT: note_on channel=2 note=64 velocity=0 time=0
EXTRACT: note_on channel=2 note=55 velocity=0 time=0
EXTRACT: note_on channel=9 note=40 velocity=127 time=0
EXTRACT: note_on channel=9 note=42 velocity=64 time=0
EXTRACT: note_on channel=0 note=43 velocity=0 time=0.004098358333333333
EXTRACT: note_on channel=2 note=59 velocity=108 time=0
EXTRACT: note_on channel=2 note=64 velocity=113 time=0
EXTRACT: note_on channel=2 note=55 velocity=93 time=0
EXTRACT: note_on channel=2 note=48 velocity=109 time=0
EXTRACT: note_on channel=0 note=43 velocity=102 time=0.004098358333333333
EXTRACT: note_on channel=1 note=59 velocity=0 time=0
EXTRACT: note_on channel=1 note=64 velocity=0 time=0
EXTRACT: note_on channel=1 note=55 velocity=0 time=0
EXTRACT: note_on channel=1 note=59 velocity=94 time=0.004098358333333333
EXTRACT: note_on channel=1 note=64 velocity=97 time=0
EXTRACT: note_on channel=1 note=55 velocity=90 time=0
EXTRACT: note_on channel=1 note=48 velocity=114 time=0
EXTRACT: note_on channel=9 note=40 velocity=0 time=0.02868850833333333
EXTRACT: note_on channel=9 note=42 velocity=0 time=0
EXTRACT: note_on channel=2 note=59 velocity=0 time=0.20491791666666664
EXTRACT: note_on channel=2 note=64 velocity=0 time=0
EXTRACT: note_on channel=2 note=55 velocity=0 time=0
EXTRACT: note_on channel=2 note=48 velocity=0 time=0
EXTRACT: note_on channel=9 note=36 velocity=80 time=0
EXTRACT: note_on channel=9 note=42 velocity=65 time=0
EXTRACT: note_on channel=2 note=59 velocity=76 time=0.004098358333333333
EXTRACT: note_on channel=2 note=64 velocity=115 time=0
EXTRACT: note_on channel=2 note=55 velocity=67 time=0
EXTRACT: note_on channel=0 note=43 velocity=0 time=0.004098358333333333
EXTRACT: note_on channel=1 note=59 velocity=0 time=0
EXTRACT: note_on channel=1 note=64 velocity=0 time=0
EXTRACT: note_on channel=1 note=55 velocity=0 time=0
EXTRACT: note_on channel=1 note=48 velocity=0 time=0
EXTRACT: note_on channel=1 note=59 velocity=84 time=0.004098358333333333
EXTRACT: note_on channel=1 note=64 velocity=110 time=0
EXTRACT: note_on channel=1 note=55 velocity=73 time=0
EXTRACT: note_on channel=9 note=36 velocity=0 time=0.02868850833333333
EXTRACT: note_on channel=9 note=42 velocity=0 time=0
EXTRACT: note_on channel=9 note=36 velocity=90 time=0.08196716666666666
EXTRACT: note_on channel=9 note=36 velocity=0 time=0.04098358333333333
EXTRACT: note_on channel=2 note=59 velocity=0 time=0.08196716666666666
EXTRACT: note_on channel=2 note=64 velocity=0 time=0
EXTRACT: note_on channel=2 note=55 velocity=0 time=0
EXTRACT: note_on channel=9 note=36 velocity=120 time=0
EXTRACT: note_on channel=9 note=42 velocity=65 time=0
EXTRACT: note_on channel=2 note=59 velocity=88 time=0.004098358333333333
EXTRACT: note_on channel=2 note=64 velocity=113 time=0
EXTRACT: note_on channel=2 note=55 velocity=112 time=0
EXTRACT: note_on channel=2 note=48 velocity=107 time=0
EXTRACT: note_on channel=0 note=43 velocity=109 time=0.004098358333333333
EXTRACT: note_on channel=1 note=59 velocity=0 time=0
EXTRACT: note_on channel=1 note=64 velocity=0 time=0
EXTRACT: note_on channel=1 note=55 velocity=0 time=0
EXTRACT: note_on channel=1 note=59 velocity=112 time=0.004098358333333333
EXTRACT: note_on channel=1 note=64 velocity=105 time=0
EXTRACT: note_on channel=1 note=55 velocity=100 time=0
EXTRACT: note_on channel=1 note=48 velocity=113 time=0
EXTRACT: note_on channel=9 note=36 velocity=0 time=0.02868850833333333
EXTRACT: note_on channel=9 note=42 velocity=0 time=0
EXTRACT: note_on channel=2 note=59 velocity=0 time=0.20491791666666664
EXTRACT: note_on channel=2 note=64 velocity=0 time=0
EXTRACT: note_on channel=2 note=55 velocity=0 time=0
EXTRACT: note_on channel=2 note=48 velocity=0 time=0
EXTRACT: note_on channel=9 note=36 velocity=110 time=0
EXTRACT: note_on channel=9 note=42 velocity=44 time=0
EXTRACT: note_on channel=0 note=43 velocity=0 time=0.004098358333333333
EXTRACT: note_on channel=2 note=59 velocity=112 time=0
EXTRACT: note_on channel=2 note=64 velocity=111 time=0
EXTRACT: note_on channel=2 note=55 velocity=65 time=0
EXTRACT: note_on channel=0 note=45 velocity=118 time=0.004098358333333333
EXTRACT: note_on channel=1 note=59 velocity=0 time=0
EXTRACT: note_on channel=1 note=64 velocity=0 time=0
EXTRACT: note_on channel=1 note=55 velocity=0 time=0
EXTRACT: note_on channel=1 note=48 velocity=0 time=0
EXTRACT: note_on channel=1 note=59 velocity=83 time=0.004098358333333333
EXTRACT: note_on channel=1 note=64 velocity=67 time=0
EXTRACT: note_on channel=1 note=55 velocity=94 time=0
EXTRACT: note_on channel=9 note=36 velocity=0 time=0.02868850833333333
EXTRACT: note_on channel=9 note=42 velocity=0 time=0
EXTRACT: note_on channel=2 note=59 velocity=0 time=0.20491791666666664
EXTRACT: note_on channel=2 note=64 velocity=0 time=0
EXTRACT: note_on channel=2 note=55 velocity=0 time=0
EXTRACT: note_on channel=9 note=40 velocity=127 time=0
EXTRACT: note_on channel=9 note=42 velocity=52 time=0
EXTRACT: note_on channel=0 note=45 velocity=0 time=0.004098358333333333
EXTRACT: note_on channel=2 note=59 velocity=95 time=0
EXTRACT: note_on channel=2 note=64 velocity=114 time=0
EXTRACT: note_on channel=2 note=55 velocity=114 time=0
EXTRACT: note_on channel=2 note=48 velocity=91 time=0
EXTRACT: note_on channel=0 note=45 velocity=107 time=0.004098358333333333
EXTRACT: note_on channel=1 note=59 velocity=0 time=0
EXTRACT: note_on channel=1 note=64 velocity=0 time=0
EXTRACT: note_on channel=1 note=55 velocity=0 time=0
EXTRACT: note_on channel=1 note=59 velocity=98 time=0.004098358333333333
EXTRACT: note_on channel=1 note=64 velocity=86 time=0
EXTRACT: note_on channel=1 note=55 velocity=79 time=0
EXTRACT: note_on channel=1 note=48 velocity=81 time=0
EXTRACT: note_on channel=9 note=40 velocity=0 time=0.02868850833333333
EXTRACT: note_on channel=9 note=42 velocity=0 time=0
EXTRACT: note_on channel=2 note=59 velocity=0 time=0.20491791666666664
EXTRACT: note_on channel=2 note=64 velocity=0 time=0
EXTRACT: note_on channel=2 note=55 velocity=0 time=0
EXTRACT: note_on channel=2 note=48 velocity=0 time=0
EXTRACT: note_on channel=9 note=40 velocity=110 time=0
EXTRACT: note_on channel=9 note=42 velocity=50 time=0
EXTRACT: note_on channel=2 note=59 velocity=111 time=0.004098358333333333
EXTRACT: note_on channel=2 note=64 velocity=99 time=0
EXTRACT: note_on channel=2 note=55 velocity=88 time=0
EXTRACT: note_on channel=0 note=45 velocity=0 time=0.004098358333333333
EXTRACT: note_on channel=1 note=59 velocity=0 time=0
EXTRACT: note_on channel=1 note=64 velocity=0 time=0
EXTRACT: note_on channel=1 note=55 velocity=0 time=0
EXTRACT: note_on channel=1 note=48 velocity=0 time=0
EXTRACT: note_on channel=1 note=59 velocity=78 time=0.004098358333333333
EXTRACT: note_on channel=1 note=64 velocity=108 time=0
EXTRACT: note_on channel=1 note=55 velocity=99 time=0
EXTRACT: note_on channel=9 note=40 velocity=0 time=0.02868850833333333
EXTRACT: note_on channel=9 note=42 velocity=0 time=0
EXTRACT: note_on channel=9 note=40 velocity=127 time=0.08196716666666666
EXTRACT: note_on channel=9 note=40 velocity=0 time=0.04098358333333333
EXTRACT: note_on channel=2 note=59 velocity=0 time=0.08196716666666666
EXTRACT: note_on channel=2 note=64 velocity=0 time=0
EXTRACT: note_on channel=2 note=55 velocity=0 time=0
EXTRACT: note_on channel=9 note=49 velocity=100 time=0
EXTRACT: note_on channel=9 note=36 velocity=120 time=0
EXTRACT: note_on channel=2 note=64 velocity=97 time=0.004098358333333333
EXTRACT: note_on channel=2 note=60 velocity=114 time=0
EXTRACT: note_on channel=2 note=55 velocity=88 time=0
EXTRACT: note_on channel=2 note=48 velocity=95 time=0
EXTRACT: note_on channel=0 note=36 velocity=123 time=0.004098358333333333
EXTRACT: note_on channel=1 note=59 velocity=0 time=0
EXTRACT: note_on channel=1 note=64 velocity=0 time=0
EXTRACT: note_on channel=1 note=55 velocity=0 time=0
EXTRACT: note_on channel=4 note=76 velocity=0 time=0.0010245895833333333
EXTRACT: note_on channel=4 note=83 velocity=0 time=0
EXTRACT: note_on channel=4 note=79 velocity=0 time=0
EXTRACT: note_on channel=4 note=72 velocity=0 time=0
EXTRACT: note_on channel=4 note=72 velocity=112 time=0
EXTRACT: note_on channel=4 note=76 velocity=112 time=0
EXTRACT: note_on channel=4 note=79 velocity=90 time=0
EXTRACT: note_on channel=1 note=64 velocity=95 time=0.0030737687499999998
EXTRACT: note_on channel=1 note=60 velocity=115 time=0
EXTRACT: note_on channel=1 note=55 velocity=83 time=0
EXTRACT: note_on channel=1 note=48 velocity=97 time=0
EXTRACT: note_on channel=9 note=49 velocity=0 time=0.02868850833333333
EXTRACT: note_on channel=9 note=36 velocity=0 time=0
EXTRACT: note_on channel=9 note=42 velocity=41 time=0.20491791666666664
EXTRACT: note_on channel=0 note=36 velocity=0 time=0.008196716666666666
EXTRACT: note_on channel=9 note=42 velocity=0 time=0.032786866666666664
EXTRACT: note_on channel=2 note=64 velocity=0 time=0.20491791666666664
EXTRACT: note_on channel=2 note=60 velocity=0 time=0
EXTRACT: note_on channel=2 note=55 velocity=0 time=0
EXTRACT: note_on channel=2 note=48 velocity=0 time=0
EXTRACT: note_on channel=9 note=40 velocity=127 time=0
EXTRACT: note_on channel=9 note=42 velocity=59 time=0
EXTRACT: note_on channel=2 note=64 velocity=98 time=0.004098358333333333
EXTRACT: note_on channel=2 note=60 velocity=93 time=0
EXTRACT: note_on channel=2 note=55 velocity=98 time=0
EXTRACT: note_on channel=2 note=48 velocity=96 time=0
EXTRACT: note_on channel=0 note=36 velocity=113 time=0.004098358333333333
EXTRACT: note_on channel=1 note=64 velocity=0 time=0
EXTRACT: note_on channel=1 note=60 velocity=0 time=0
EXTRACT: note_on channel=1 note=55 velocity=0 time=0
EXTRACT: note_on channel=1 note=48 velocity=0 time=0
EXTRACT: note_on channel=1 note=64 velocity=115 time=0.004098358333333333
EXTRACT: note_on channel=1 note=60 velocity=98 time=0
EXTRACT: note_on channel=1 note=55 velocity=84 time=0
EXTRACT: note_on channel=1 note=48 velocity=79 time=0
EXTRACT: note_on channel=9 note=40 velocity=0 time=0.02868850833333333
EXTRACT: note_on channel=9 note=42 velocity=0 time=0
EXTRACT: note_on channel=0 note=36 velocity=0 time=0.15163925833333333
EXTRACT: note_on channel=9 note=42 velocity=66 time=0.053278658333333326
EXTRACT: note_on channel=5 note=72 velocity=69 time=0.0061475374999999995
EXTRACT: note_on channel=5 note=67 velocity=113 time=0
EXTRACT: note_on channel=0 note=36 velocity=122 time=0.0020491791666666665
EXTRACT: note_on channel=9 note=42 velocity=0 time=0.032786866666666664
EXTRACT: note_on channel=0 note=36 velocity=0 time=0.15163925833333333
EXTRACT: note_on channel=2 note=64 velocity=0 time=0.053278658333333326
EXTRACT: note_on channel=2 note=60 velocity=0 time=0
EXTRACT: note_on channel=2 note=55 velocity=0 time=0
EXTRACT: note_on channel=2 note=48 velocity=0 time=0
EXTRACT: note_on channel=9 note=36 velocity=120 time=0
EXTRACT: note_on channel=9 note=42 velocity=61 time=0
EXTRACT: note_on channel=5 note=72 velocity=0 time=0.0020491791666666665
EXTRACT: note_on channel=5 note=67 velocity=0 time=0
EXTRACT: note_on channel=2 note=64 velocity=110 time=0.0020491791666666665
EXTRACT: note_on channel=2 note=60 velocity=90 time=0
EXTRACT: note_on channel=2 note=55 velocity=103 time=0
EXTRACT: note_on channel=5 note=72 velocity=62 time=0.0020491791666666665
EXTRACT: note_on channel=5 note=67 velocity=107 time=0
EXTRACT: note_on channel=0 note=36 velocity=110 time=0.0020491791666666665
EXTRACT: note_on channel=1 note=64 velocity=0 time=0
EXTRACT: note_on channel=1 note=60 velocity=0 time=0
EXTRACT: note_on channel=1 note=55 velocity=0 time=0
EXTRACT: note_on channel=1 note=48 velocity=0 time=0
EXTRACT: note_on channel=1 note=64 velocity=101 time=0.004098358333333333
EXTRACT: note_on channel=1 note=60 velocity=93 time=0
EXTRACT: note_on channel=1 note=55 velocity=114 time=0
EXTRACT: note_on channel=9 note=36 velocity=0 time=0.02868850833333333
EXTRACT: note_on channel=9 note=42 velocity=0 time=0
EXTRACT: note_on channel=0 note=36 velocity=0 time=0.15163925833333333
EXTRACT: note_on channel=2 note=64 velocity=0 time=0.053278658333333326
EXTRACT: note_on channel=2 note=60 velocity=0 time=0
EXTRACT: note_on channel=2 note=55 velocity=0 time=0
EXTRACT: note_on channel=9 note=36 velocity=110 time=0
EXTRACT: note_on channel=9 note=42 velocity=45 time=0
EXTRACT: note_on channel=5 note=72 velocity=0 time=0.0020491791666666665
EXTRACT: note_on channel=5 note=67 velocity=0 time=0
EXTRACT: note_on channel=2 note=64 velocity=94 time=0.0020491791666666665
EXTRACT: note_on channel=2 note=60 velocity=73 time=0
EXTRACT: note_on channel=2 note=55 velocity=74 time=0
EXTRACT: note_on channel=2 note=48 velocity=115 time=0
EXTRACT: note_on channel=5 note=74 velocity=55 time=0.0020491791666666665
EXTRACT: note_on channel=5 note=69 velocity=109 time=0
EXTRACT: note_on channel=0 note=36 velocity=117 time=0.0020491791666666665
EXTRACT: note_on channel=1 note=64 velocity=0 time=0
EXTRACT: note_on channel=1 note=60 velocity=0 time=0
EXTRACT: note_on channel=1 note=55 velocity=0 time=0
EXTRACT: note_on channel=1 note=64 velocity=117 time=0.004098358333333333
EXTRACT: note_on channel=1 note=60 velocity=82 time=0
EXTRACT: note_on channel=1 note=55 velocity=78 time=0
EXTRACT: note_on channel=1 note=48 velocity=102 time=0
EXTRACT: note_on channel=9 note=36 velocity=0 time=0.02868850833333333
EXTRACT: note_on channel=9 note=42 velocity=0 time=0
EXTRACT: note_on channel=0 note=36 velocity=0 time=0.15163925833333333
EXTRACT: note_on channel=2 note=64 velocity=0 time=0.053278658333333326
EXTRACT: note_on channel=2 note=60 velocity=0 time=0
EXTRACT: note_on channel=2 note=55 velocity=0 time=0
EXTRACT: note_on channel=2 note=48 velocity=0 time=0
EXTRACT: note_on channel=9 note=40 velocity=127 time=0
EXTRACT: note_on channel=9 note=42 velocity=62 time=0
EXTRACT: note_on channel=2 note=64 velocity=103 time=0.004098358333333333
EXTRACT: note_on channel=2 note=60 velocity=91 time=0
EXTRACT: note_on channel=2 note=55 velocity=98 time=0
EXTRACT: note_on channel=2 note=48 velocity=101 time=0
EXTRACT: note_on channel=5 note=74 velocity=0 time=0.0020491791666666665
EXTRACT: note_on channel=5 note=69 velocity=0 time=0
EXTRACT: pitchwheel channel=0 pitch=0 time=0.0020491791666666665
EXTRACT: note_on channel=0 note=36 velocity=111 time=0
EXTRACT: note_on channel=1 note=64 velocity=0 time=0
EXTRACT: note_on channel=1 note=60 velocity=0 time=0
EXTRACT: note_on channel=1 note=55 velocity=0 time=0
EXTRACT: note_on channel=1 note=48 velocity=0 time=0
EXTRACT: pitchwheel channel=0 pitch=80 time=0.004098358333333333
EXTRACT: note_on channel=1 note=64 velocity=103 time=0
EXTRACT: note_on channel=1 note=60 velocity=97 time=0
EXTRACT: note_on channel=1 note=55 velocity=102 time=0
EXTRACT: note_on channel=1 note=48 velocity=92 time=0
EXTRACT: pitchwheel channel=0 pitch=159 time=0.004098358333333333
EXTRACT: pitchwheel channel=0 pitch=239 time=0.004098358333333333
EXTRACT: pitchwheel channel=0 pitch=319 time=0.004098358333333333
EXTRACT: pitchwheel channel=0 pitch=398 time=0.004098358333333333
EXTRACT: pitchwheel channel=0 pitch=478 time=0.004098358333333333
EXTRACT: pitchwheel channel=0 pitch=558 time=0.004098358333333333
EXTRACT: pitchwheel channel=0 pitch=637 time=0.004098358333333333
EXTRACT: note_on channel=9 note=40 velocity=0 time=0
EXTRACT: note_on channel=9 note=42 velocity=0 time=0
EXTRACT: pitchwheel channel=0 pitch=717 time=0.004098358333333333
EXTRACT: pitchwheel channel=0 pitch=797 time=0.004098358333333333
EXTRACT: pitchwheel channel=0 pitch=876 time=0.004098358333333333
EXTRACT: pitchwheel channel=0 pitch=956 time=0.004098358333333333
EXTRACT: pitchwheel channel=0 pitch=1035 time=0.004098358333333333
EXTRACT: pitchwheel channel=0 pitch=1115 time=0.004098358333333333
EXTRACT: pitchwheel channel=0 pitch=1195 time=0.004098358333333333
EXTRACT: pitchwheel channel=0 pitch=1274 time=0.004098358333333333
EXTRACT: pitchwheel channel=0 pitch=1354 time=0.004098358333333333
EXTRACT: pitchwheel channel=0 pitch=1434 time=0.004098358333333333
EXTRACT: pitchwheel channel=0 pitch=1513 time=0.004098358333333333
EXTRACT: pitchwheel channel=0 pitch=1593 time=0.004098358333333333
EXTRACT: pitchwheel channel=0 pitch=1673 time=0.004098358333333333
EXTRACT: pitchwheel channel=0 pitch=1752 time=0.004098358333333333
EXTRACT: pitchwheel channel=0 pitch=1832 time=0.004098358333333333
EXTRACT: pitchwheel channel=0 pitch=1912 time=0.004098358333333333
EXTRACT: pitchwheel channel=0 pitch=1991 time=0.004098358333333333
EXTRACT: pitchwheel channel=0 pitch=2071 time=0.004098358333333333
EXTRACT: pitchwheel channel=0 pitch=2151 time=0.004098358333333333
EXTRACT: pitchwheel channel=0 pitch=2230 time=0.004098358333333333
EXTRACT: pitchwheel channel=0 pitch=2310 time=0.004098358333333333
EXTRACT: pitchwheel channel=0 pitch=2390 time=0.004098358333333333
EXTRACT: pitchwheel channel=0 pitch=2469 time=0.004098358333333333
EXTRACT: pitchwheel channel=0 pitch=2549 time=0.004098358333333333
EXTRACT: pitchwheel channel=0 pitch=2628 time=0.004098358333333333
EXTRACT: pitchwheel channel=0 pitch=2708 time=0.004098358333333333
EXTRACT: pitchwheel channel=0 pitch=2788 time=0.004098358333333333
EXTRACT: pitchwheel channel=0 pitch=2867 time=0.004098358333333333
EXTRACT: pitchwheel channel=0 pitch=2947 time=0.004098358333333333
EXTRACT: pitchwheel channel=0 pitch=3027 time=0.004098358333333333
EXTRACT: pitchwheel channel=0 pitch=3106 time=0.004098358333333333
EXTRACT: pitchwheel channel=0 pitch=3186 time=0.004098358333333333
EXTRACT: pitchwheel channel=0 pitch=3266 time=0.004098358333333333
EXTRACT: pitchwheel channel=0 pitch=3345 time=0.004098358333333333
EXTRACT: pitchwheel channel=0 pitch=3425 time=0.004098358333333333
EXTRACT: pitchwheel channel=0 pitch=3505 time=0.004098358333333333
EXTRACT: pitchwheel channel=0 pitch=3584 time=0.004098358333333333
EXTRACT: pitchwheel channel=0 pitch=3664 time=0.004098358333333333
EXTRACT: pitchwheel channel=0 pitch=3744 time=0.004098358333333333
EXTRACT: pitchwheel channel=0 pitch=3823 time=0.004098358333333333
EXTRACT: pitchwheel channel=0 pitch=3903 time=0.004098358333333333
EXTRACT: pitchwheel channel=0 pitch=3983 time=0.004098358333333333
EXTRACT: pitchwheel channel=0 pitch=4062 time=0.004098358333333333
EXTRACT: pitchwheel channel=0 pitch=4142 time=0.004098358333333333
EXTRACT: pitchwheel channel=0 pitch=4221 time=0.004098358333333333
EXTRACT: pitchwheel channel=0 pitch=4301 time=0.004098358333333333
EXTRACT: pitchwheel channel=0 pitch=4381 time=0.004098358333333333
EXTRACT: pitchwheel channel=0 pitch=4460 time=0.004098358333333333
EXTRACT: pitchwheel channel=0 pitch=4540 time=0.004098358333333333
EXTRACT: pitchwheel channel=0 pitch=4620 time=0.004098358333333333
EXTRACT: note_on channel=2 note=64 velocity=0 time=0
EXTRACT: note_on channel=2 note=60 velocity=0 time=0
EXTRACT: note_on channel=2 note=55 velocity=0 time=0
EXTRACT: note_on channel=2 note=48 velocity=0 time=0
EXTRACT: note_on channel=9 note=36 velocity=110 time=0
EXTRACT: note_on channel=9 note=42 velocity=49 time=0
EXTRACT: pitchwheel channel=0 pitch=4699 time=0.004098358333333333
EXTRACT: note_on channel=2 note=64 velocity=75 time=0
EXTRACT: note_on channel=2 note=60 velocity=108 time=0
EXTRACT: note_on channel=2 note=55 velocity=77 time=0
EXTRACT: note_on channel=5 note=76 velocity=67 time=0.0020491791666666665
EXTRACT: note_on channel=5 note=72 velocity=87 time=0
EXTRACT: pitchwheel channel=0 pitch=4779 time=0.0020491791666666665
EXTRACT: note_on channel=1 note=64 velocity=0 time=0
EXTRACT: note_on channel=1 note=60 velocity=0 time=0
EXTRACT: note_on channel=1 note=55 velocity=0 time=0
EXTRACT: note_on channel=1 note=48 velocity=0 time=0
EXTRACT: note_on channel=1 note=64 velocity=91 time=0.004098358333333333
EXTRACT: note_on channel=1 note=60 velocity=78 time=0
EXTRACT: note_on channel=1 note=55 velocity=103 time=0
EXTRACT: note_on channel=9 note=36 velocity=0 time=0.02868850833333333
EXTRACT: note_on channel=9 note=42 velocity=0 time=0
EXTRACT: note_on channel=2 note=64 velocity=0 time=0.20491791666666664
EXTRACT: note_on channel=2 note=60 velocity=0 time=0
EXTRACT: note_on channel=2 note=55 velocity=0 time=0
EXTRACT: note_on channel=9 note=42 velocity=60 time=0
EXTRACT: note_on channel=2 note=62 velocity=94 time=0.004098358333333333
EXTRACT: note_on channel=2 note=58 velocity=94 time=0
EXTRACT: note_on channel=2 note=55 velocity=111 time=0
EXTRACT: note_on channel=2 note=65 velocity=115 time=0
EXTRACT: note_on channel=0 note=36 velocity=0 time=0.004098358333333333
EXTRACT: note_on channel=1 note=64 velocity=0 time=0
EXTRACT: note_on channel=1 note=60 velocity=0 time=0
EXTRACT: note_on channel=1 note=55 velocity=0 time=0
EXTRACT: note_on channel=4 note=72 velocity=0 time=0.0010245895833333333
EXTRACT: note_on channel=4 note=76 velocity=0 time=0
EXTRACT: note_on channel=4 note=79 velocity=0 time=0
EXTRACT: note_on channel=4 note=74 velocity=115 time=0
EXTRACT: note_on channel=4 note=79 velocity=90 time=0
EXTRACT: note_on channel=4 note=82 velocity=108 time=0
EXTRACT: note_on channel=1 note=62 velocity=114 time=0.0030737687499999998
EXTRACT: note_on channel=1 note=58 velocity=86 time=0
EXTRACT: note_on channel=1 note=55 velocity=111 time=0
EXTRACT: note_on channel=1 note=65 velocity=97 time=0
EXTRACT: note_on channel=9 note=42 velocity=0 time=0.02868850833333333
EXTRACT: note_on channel=9 note=36 velocity=120 time=0.20491791666666664
EXTRACT: note_on channel=9 note=42 velocity=49 time=0
EXTRACT: note_on channel=5 note=76 velocity=0 time=0.0020491791666666665
EXTRACT: note_on channel=5 note=72 velocity=0 time=0
EXTRACT: note_on channel=5 note=76 velocity=60 time=0.004098358333333333
EXTRACT: note_on channel=5 note=72 velocity=101 time=0
EXTRACT: pitchwheel channel=0 pitch=0 time=0.0020491791666666665
EXTRACT: note_on channel=0 note=43 velocity=114 time=0
EXTRACT: note_on channel=9 note=36 velocity=0 time=0.032786866666666664
EXTRACT: note_on channel=9 note=42 velocity=0 time=0
EXTRACT: note_on channel=0 note=43 velocity=0 time=0.15163925833333333
EXTRACT: note_on channel=2 note=62 velocity=0 time=0.053278658333333326
EXTRACT: note_on channel=2 note=58 velocity=0 time=0
EXTRACT: note_on channel=2 note=55 velocity=0 time=0
EXTRACT: note_on channel=2 note=65 velocity=0 time=0
EXTRACT: note_on channel=9 note=40 velocity=127 time=0
EXTRACT: note_on channel=9 note=42 velocity=66 time=0
EXTRACT: note_on channel=2 note=62 velocity=109 time=0.004098358333333333
EXTRACT: note_on channel=2 note=58 velocity=94 time=0
EXTRACT: note_on channel=2 note=55 velocity=100 time=0
EXTRACT: note_on channel=2 note=65 velocity=97 time=0
EXTRACT: note_on channel=0 note=43 velocity=126 time=0.004098358333333333
EXTRACT: note_on channel=1 note=62 velocity=0 time=0
EXTRACT: note_on channel=1 note=58 velocity=0 time=0
EXTRACT: note_on channel=1 note=55 velocity=0 time=0
EXTRACT: note_on channel=1 note=65 velocity=0 time=0
EXTRACT: note_on channel=1 note=62 velocity=106 time=0.004098358333333333
EXTRACT: note_on channel=1 note=58 velocity=108 time=0
EXTRACT: note_on channel=1 note=55 velocity=83 time=0
EXTRACT: note_on channel=1 note=65 velocity=100 time=0
EXTRACT: note_on channel=9 note=40 velocity=0 time=0.02868850833333333
EXTRACT: note_on channel=9 note=42 velocity=0 time=0
EXTRACT: note_on channel=0 note=43 velocity=0 time=0.15163925833333333
EXTRACT: note_on channel=9 note=42 velocity=59 time=0.053278658333333326
EXTRACT: note_on channel=5 note=76 velocity=0 time=0.0020491791666666665
EXTRACT: note_on channel=5 note=72 velocity=0 time=0
EXTRACT: note_on channel=5 note=74 velocity=64 time=0.004098358333333333
EXTRACT: note_on channel=5 note=69 velocity=114 time=0
EXTRACT: note_on channel=0 note=43 velocity=123 time=0.0020491791666666665
EXTRACT: note_on channel=9 note=42 velocity=0 time=0.032786866666666664
EXTRACT: note_on channel=0 note=43 velocity=0 time=0.15163925833333333
EXTRACT: note_on channel=2 note=62 velocity=0 time=0.053278658333333326
EXTRACT: note_on channel=2 note=58 velocity=0 time=0
EXTRACT: note_on channel=2 note=55 velocity=0 time=0
EXTRACT: note_on channel=2 note=65 velocity=0 time=0
EXTRACT: note_on channel=9 note=36 velocity=120 time=0
EXTRACT: note_on channel=9 note=42 velocity=59 time=0
EXTRACT: note_on channel=2 note=62 velocity=117 time=0.004098358333333333
EXTRACT: note_on channel=2 note=58 velocity=115 time=0
EXTRACT: note_on channel=2 note=55 velocity=113 time=0
EXTRACT: note_on channel=0 note=43 velocity=121 time=0.004098358333333333
EXTRACT: note_on channel=1 note=62 velocity=0 time=0
EXTRACT: note_on channel=1 note=58 velocity=0 time=0
EXTRACT: note_on channel=1 note=55 velocity=0 time=0
EXTRACT: note_on channel=1 note=65 velocity=0 time=0
EXTRACT: note_on channel=1 note=62 velocity=111 time=0.004098358333333333
EXTRACT: note_on channel=1 note=58 velocity=104 time=0
EXTRACT: note_on channel=1 note=55 velocity=96 time=0
EXTRACT: note_on channel=9 note=36 velocity=0 time=0.02868850833333333
EXTRACT: note_on channel=9 note=42 velocity=0 time=0
EXTRACT: note_on channel=0 note=43 velocity=0 time=0.15163925833333333
EXTRACT: note_on channel=2 note=62 velocity=0 time=0.053278658333333326
EXTRACT: note_on channel=2 note=58 velocity=0 time=0
EXTRACT: note_on channel=2 note=55 velocity=0 time=0
EXTRACT: note_on channel=9 note=36 velocity=110 time=0
EXTRACT: note_on channel=9 note=42 velocity=47 time=0
EXTRACT: note_on channel=5 note=74 velocity=0 time=0.0020491791666666665
EXTRACT: note_on channel=5 note=69 velocity=0 time=0
EXTRACT: note_on channel=2 note=62 velocity=86 time=0.0020491791666666665
EXTRACT: note_on channel=2 note=58 velocity=102 time=0
EXTRACT: note_on channel=2 note=55 velocity=105 time=0
EXTRACT: note_on channel=2 note=65 velocity=74 time=0
EXTRACT: note_on channel=5 note=72 velocity=48 time=0.0020491791666666665
EXTRACT: note_on channel=5 note=67 velocity=100 time=0
EXTRACT: note_on channel=0 note=45 velocity=118 time=0.0020491791666666665
EXTRACT: note_on channel=1 note=62 velocity=0 time=0
EXTRACT: note_on channel=1 note=58 velocity=0 time=0
EXTRACT: note_on channel=1 note=55 velocity=0 time=0
EXTRACT: note_on channel=1 note=62 velocity=66 time=0.004098358333333333
EXTRACT: note_on channel=1 note=58 velocity=115 time=0
EXTRACT: note_on channel=1 note=55 velocity=67 time=0
EXTRACT: note_on channel=1 note=65 velocity=91 time=0
EXTRACT: note_on channel=9 note=36 velocity=0 time=0.02868850833333333
EXTRACT: note_on channel=9 note=42 velocity=0 time=0
EXTRACT: note_on channel=0 note=45 velocity=0 time=0.15163925833333333
EXTRACT: note_on channel=2 note=62 velocity=0 time=0.053278658333333326
EXTRACT: note_on channel=2 note=58 velocity=0 time=0
EXTRACT: note_on channel=2 note=55 velocity=0 time=0
EXTRACT: note_on channel=2 note=65 velocity=0 time=0
EXTRACT: note_on channel=9 note=40 velocity=127 time=0
EXTRACT: note_on channel=9 note=42 velocity=61 time=0
EXTRACT: note_on channel=2 note=62 velocity=96 time=0.004098358333333333
EXTRACT: note_on channel=2 note=58 velocity=105 time=0
EXTRACT: note_on channel=2 note=55 velocity=117 time=0
EXTRACT: note_on channel=2 note=65 velocity=99 time=0
EXTRACT: note_on channel=0 note=45 velocity=103 time=0.004098358333333333
EXTRACT: note_on channel=1 note=62 velocity=0 time=0
EXTRACT: note_on channel=1 note=58 velocity=0 time=0
EXTRACT: note_on channel=1 note=55 velocity=0 time=0
EXTRACT: note_on channel=1 note=65 velocity=0 time=0
EXTRACT: note_on channel=1 note=62 velocity=104 time=0.004098358333333333
EXTRACT: note_on channel=1 note=58 velocity=103 time=0
EXTRACT: note_on channel=1 note=55 velocity=116 time=0
EXTRACT: note_on channel=1 note=65 velocity=110 time=0
EXTRACT: note_on channel=9 note=40 velocity=0 time=0.02868850833333333
EXTRACT: note_on channel=9 note=42 velocity=0 time=0
EXTRACT: note_on channel=0 note=45 velocity=0 time=0.15163925833333333
EXTRACT: note_on channel=2 note=62 velocity=0 time=0.053278658333333326
EXTRACT: note_on channel=2 note=58 velocity=0 time=0
EXTRACT: note_on channel=2 note=55 velocity=0 time=0
EXTRACT: note_on channel=2 note=65 velocity=0 time=0
EXTRACT: note_on channel=9 note=36 velocity=110 time=0
EXTRACT: note_on channel=9 note=42 velocity=49 time=0
EXTRACT: note_on channel=2 note=62 velocity=74 time=0.004098358333333333
EXTRACT: note_on channel=2 note=58 velocity=80 time=0
EXTRACT: note_on channel=2 note=55 velocity=89 time=0
EXTRACT: note_on channel=0 note=31 velocity=121 time=0.004098358333333333
EXTRACT: note_on channel=1 note=62 velocity=0 time=0
EXTRACT: note_on channel=1 note=58 velocity=0 time=0
EXTRACT: note_on channel=1 note=55 velocity=0 time=0
EXTRACT: note_on channel=1 note=65 velocity=0 time=0
EXTRACT: note_on channel=1 note=62 velocity=80 time=0.004098358333333333
EXTRACT: note_on channel=1 note=58 velocity=84 time=0
EXTRACT: note_on channel=1 note=55 velocity=105 time=0
EXTRACT: note_on channel=9 note=36 velocity=0 time=0.02868850833333333
EXTRACT: note_on channel=9 note=42 velocity=0 time=0
EXTRACT: note_on channel=0 note=31 velocity=0 time=0.15163925833333333
EXTRACT: note_on channel=2 note=62 velocity=0 time=0.053278658333333326
EXTRACT: note_on channel=2 note=58 velocity=0 time=0
EXTRACT: note_on channel=2 note=55 velocity=0 time=0
EXTRACT: note_on channel=9 note=49 velocity=100 time=0
EXTRACT: note_on channel=9 note=36 velocity=120 time=0
EXTRACT: note_on channel=5 note=72 velocity=0 time=0.0020491791666666665
EXTRACT: note_on channel=5 note=67 velocity=0 time=0
EXTRACT: note_on channel=2 note=60 velocity=104 time=0.0020491791666666665
EXTRACT: note_on channel=2 note=57 velocity=98 time=0
EXTRACT: note_on channel=2 note=53 velocity=91 time=0
EXTRACT: note_on channel=2 note=65 velocity=94 time=0
EXTRACT: note_on channel=5 note=72 velocity=79 time=0.0020491791666666665
EXTRACT: note_on channel=5 note=67 velocity=86 time=0
EXTRACT: note_on channel=0 note=41 velocity=102 time=0.0020491791666666665
EXTRACT: note_on channel=1 note=62 velocity=0 time=0
EXTRACT: note_on channel=1 note=58 velocity=0 time=0
EXTRACT: note_on channel=1 note=55 velocity=0 time=0
EXTRACT: note_on channel=4 note=74 velocity=0 time=0.0010245895833333333
EXTRACT: note_on channel=4 note=79 velocity=0 time=0
EXTRACT: note_on channel=4 note=82 velocity=0 time=0
EXTRACT: note_on channel=4 note=72 velocity=102 time=0
EXTRACT: note_on channel=4 note=77 velocity=107 time=0
EXTRACT: note_on channel=4 note=81 velocity=119 time=0
EXTRACT: note_on channel=1 note=60 velocity=105 time=0.0030737687499999998
EXTRACT: note_on channel=1 note=57 velocity=114 time=0
EXTRACT: note_on channel=1 note=53 velocity=109 time=0
EXTRACT: note_on channel=1 note=65 velocity=98 time=0
EXTRACT: note_on channel=9 note=49 velocity=0 time=0.02868850833333333
EXTRACT: note_on channel=9 note=36 velocity=0 time=0
EXTRACT: note_on channel=9 note=42 velocity=50 time=0.20491791666666664
EXTRACT: note_on channel=0 note=41 velocity=0 time=0.008196716666666666
EXTRACT: note_on channel=9 note=42 velocity=0 time=0.032786866666666664
EXTRACT: note_on channel=2 note=60 velocity=0 time=0.20491791666666664
EXTRACT: note_on channel=2 note=57 velocity=0 time=0
EXTRACT: note_on channel=2 note=53 velocity=0 time=0
EXTRACT: note_on channel=2 note=65 velocity=0 time=0
EXTRACT: note_on channel=9 note=40 velocity=127 time=0
EXTRACT: note_on channel=9 note=42 velocity=66 time=0
EXTRACT: note_on channel=5 note=72 velocity=0 time=0.0020491791666666665
EXTRACT: note_on channel=5 note=67 velocity=0 time=0
EXTRACT: note_on channel=2 note=60 velocity=112 time=0.0020491791666666665
EXTRACT: note_on channel=2 note=57 velocity=103 time=0
EXTRACT: note_on channel=2 note=53 velocity=85 time=0
EXTRACT: note_on channel=2 note=65 velocity=102 time=0
EXTRACT: note_on channel=5 note=69 velocity=45 time=0.0020491791666666665
EXTRACT: note_on channel=5 note=65 velocity=108 time=0
EXTRACT: note_on channel=0 note=41 velocity=105 time=0.0020491791666666665
EXTRACT: note_on channel=1 note=60 velocity=0 time=0
EXTRACT: note_on channel=1 note=57 velocity=0 time=0
EXTRACT: note_on channel=1 note=53 velocity=0 time=0
EXTRACT: note_on channel=1 note=65 velocity=0 time=0
EXTRACT: note_on channel=1 note=60 velocity=109 time=0.004098358333333333
EXTRACT: note_on channel=1 note=57 velocity=80 time=0
EXTRACT: note_on channel=1 note=53 velocity=86 time=0
EXTRACT: note_on channel=1 note=65 velocity=104 time=0
EXTRACT: note_on channel=9 note=40 velocity=0 time=0.02868850833333333
EXTRACT: note_on channel=9 note=42 velocity=0 time=0
EXTRACT: note_on channel=0 note=41 velocity=0 time=0.15163925833333333
EXTRACT: note_on channel=9 note=42 velocity=64 time=0.053278658333333326
EXTRACT: note_on channel=5 note=69 velocity=0 time=0.0020491791666666665
EXTRACT: note_on channel=5 note=65 velocity=0 time=0
EXTRACT: note_on channel=5 note=65 velocity=55 time=0.004098358333333333
EXTRACT: note_on channel=5 note=60 velocity=107 time=0
EXTRACT: note_on channel=0 note=45 velocity=114 time=0.0020491791666666665
EXTRACT: note_on channel=9 note=42 velocity=0 time=0.032786866666666664
EXTRACT: note_on channel=0 note=45 velocity=0 time=0.15163925833333333
EXTRACT: note_on channel=2 note=60 velocity=0 time=0.053278658333333326
EXTRACT: note_on channel=2 note=57 velocity=0 time=0
EXTRACT: note_on channel=2 note=53 velocity=0 time=0
EXTRACT: note_on channel=2 note=65 velocity=0 time=0
EXTRACT: note_on channel=9 note=36 velocity=120 time=0
EXTRACT: note_on channel=9 note=42 velocity=63 time=0
EXTRACT: note_on channel=2 note=60 velocity=103 time=0.004098358333333333
EXTRACT: note_on channel=2 note=57 velocity=91 time=0
EXTRACT: note_on channel=2 note=53 velocity=115 time=0
EXTRACT: note_on channel=0 note=48 velocity=121 time=0.004098358333333333
EXTRACT: note_on channel=1 note=60 velocity=0 time=0
EXTRACT: note_on channel=1 note=57 velocity=0 time=0
EXTRACT: note_on channel=1 note=53 velocity=0 time=0
EXTRACT: note_on channel=1 note=65 velocity=0 time=0
EXTRACT: note_on channel=1 note=60 velocity=114 time=0.004098358333333333
EXTRACT: note_on channel=1 note=57 velocity=97 time=0
EXTRACT: note_on channel=1 note=53 velocity=115 time=0
EXTRACT: note_on channel=9 note=36 velocity=0 time=0.02868850833333333
EXTRACT: note_on channel=9 note=42 velocity=0 time=0
EXTRACT: note_on channel=0 note=48 velocity=0 time=0.15163925833333333
EXTRACT: note_on channel=2 note=60 velocity=0 time=0.053278658333333326
EXTRACT: note_on channel=2 note=57 velocity=0 time=0
EXTRACT: note_on channel=2 note=53 velocity=0 time=0
EXTRACT: note_on channel=9 note=36 velocity=110 time=0
EXTRACT: note_on channel=9 note=42 velocity=50 time=0
EXTRACT: note_on channel=2 note=60 velocity=109 time=0.004098358333333333
EXTRACT: note_on channel=2 note=57 velocity=109 time=0
EXTRACT: note_on channel=2 note=53 velocity=79 time=0
EXTRACT: note_on channel=2 note=65 velocity=81 time=0
EXTRACT: note_on channel=0 note=45 velocity=103 time=0.004098358333333333
EXTRACT: note_on channel=1 note=60 velocity=0 time=0
EXTRACT: note_on channel=1 note=57 velocity=0 time=0
EXTRACT: note_on channel=1 note=53 velocity=0 time=0
EXTRACT: note_on channel=1 note=60 velocity=102 time=0.004098358333333333
EXTRACT: note_on channel=1 note=57 velocity=97 time=0
EXTRACT: note_on channel=1 note=53 velocity=83 time=0
EXTRACT: note_on channel=1 note=65 velocity=72 time=0
EXTRACT: note_on channel=9 note=36 velocity=0 time=0.02868850833333333
EXTRACT: note_on channel=9 note=42 velocity=0 time=0
EXTRACT: note_on channel=0 note=45 velocity=0 time=0.15163925833333333
EXTRACT: note_on channel=2 note=60 velocity=0 time=0.053278658333333326
EXTRACT: note_on channel=2 note=57 velocity=0 time=0
EXTRACT: note_on channel=2 note=53 velocity=0 time=0
EXTRACT: note_on channel=2 note=65 velocity=0 time=0
EXTRACT: note_on channel=9 note=40 velocity=127 time=0
EXTRACT: note_on channel=9 note=42 velocity=64 time=0
EXTRACT: note_on channel=2 note=60 velocity=107 time=0.004098358333333333
EXTRACT: note_on channel=2 note=57 velocity=110 time=0
EXTRACT: note_on channel=2 note=53 velocity=110 time=0
EXTRACT: note_on channel=2 note=65 velocity=92 time=0
EXTRACT: note_on channel=5 note=65 velocity=0 time=0.0020491791666666665
EXTRACT: note_on channel=5 note=60 velocity=0 time=0
EXTRACT: note_on channel=0 note=48 velocity=111 time=0.0020491791666666665
EXTRACT: note_on channel=1 note=60 velocity=0 time=0
EXTRACT: note_on channel=1 note=57 velocity=0 time=0
EXTRACT: note_on channel=1 note=53 velocity=0 time=0
EXTRACT: note_on channel=1 note=65 velocity=0 time=0
EXTRACT: note_on channel=1 note=60 velocity=108 time=0.004098358333333333
EXTRACT: note_on channel=1 note=57 velocity=95 time=0
EXTRACT: note_on channel=1 note=53 velocity=115 time=0
EXTRACT: note_on channel=1 note=65 velocity=81 time=0
EXTRACT: note_on channel=9 note=40 velocity=0 time=0.02868850833333333
EXTRACT: note_on channel=9 note=42 velocity=0 time=0
EXTRACT: note_on channel=0 note=48 velocity=0 time=0.15163925833333333
EXTRACT: note_on channel=2 note=60 velocity=0 time=0.053278658333333326
EXTRACT: note_on channel=2 note=57 velocity=0 time=0
EXTRACT: note_on channel=2 note=53 velocity=0 time=0
EXTRACT: note_on channel=2 note=65 velocity=0 time=0
EXTRACT: note_on channel=9 note=36 velocity=110 time=0
EXTRACT: note_on channel=9 note=42 velocity=50 time=0
EXTRACT: note_on channel=2 note=60 velocity=81 time=0.004098358333333333
EXTRACT: note_on channel=2 note=57 velocity=72 time=0
EXTRACT: note_on channel=2 note=53 velocity=76 time=0
EXTRACT: note_on channel=5 note=72 velocity=75 time=0.0020491791666666665
EXTRACT: note_on channel=5 note=67 velocity=101 time=0
EXTRACT: note_on channel=0 note=45 velocity=117 time=0.0020491791666666665
EXTRACT: note_on channel=1 note=60 velocity=0 time=0
EXTRACT: note_on channel=1 note=57 velocity=0 time=0
EXTRACT: note_on channel=1 note=53 velocity=0 time=0
EXTRACT: note_on channel=1 note=65 velocity=0 time=0
EXTRACT: note_on channel=1 note=60 velocity=107 time=0.004098358333333333
EXTRACT: note_on channel=1 note=57 velocity=85 time=0
EXTRACT: note_on channel=1 note=53 velocity=101 time=0
EXTRACT: note_on channel=9 note=36 velocity=0 time=0.02868850833333333
EXTRACT: note_on channel=9 note=42 velocity=0 time=0
EXTRACT: note_on channel=0 note=45 velocity=0 time=0.15163925833333333
EXTRACT: note_on channel=2 note=60 velocity=0 time=0.053278658333333326
EXTRACT: note_on channel=2 note=57 velocity=0 time=0
EXTRACT: note_on channel=2 note=53 velocity=0 time=0
EXTRACT: note_on channel=9 note=42 velocity=62 time=0
EXTRACT: note_on channel=9 note=36 velocity=120 time=0
EXTRACT: note_on channel=5 note=72 velocity=0 time=0.0020491791666666665
EXTRACT: note_on channel=5 note=67 velocity=0 time=0
EXTRACT: note_on channel=2 note=60 velocity=88 time=0.0020491791666666665
EXTRACT: note_on channel=2 note=56 velocity=99 time=0
EXTRACT: note_on channel=2 note=53 velocity=114 time=0
EXTRACT: note_on channel=2 note=62 velocity=115 time=0
EXTRACT: note_on channel=5 note=72 velocity=69 time=0.0020491791666666665
EXTRACT: note_on channel=5 note=67 velocity=110 time=0
EXTRACT: note_on channel=0 note=34 velocity=126 time=0.0020491791666666665
EXTRACT: note_on channel=1 note=60 velocity=0 time=0
EXTRACT: note_on channel=1 note=57 velocity=0 time=0
EXTRACT: note_on channel=1 note=53 velocity=0 time=0
EXTRACT: note_on channel=4 note=72 velocity=0 time=0.0010245895833333333
EXTRACT: note_on channel=4 note=77 velocity=0 time=0
EXTRACT: note_on channel=4 note=81 velocity=0 time=0
EXTRACT: note_on channel=4 note=74 velocity=106 time=0
EXTRACT: note_on channel=4 note=77 velocity=97 time=0
EXTRACT: note_on channel=4 note=80 velocity=108 time=0
EXTRACT: note_on channel=1 note=60 velocity=111 time=0.0030737687499999998
EXTRACT: note_on channel=1 note=56 velocity=85 time=0
EXTRACT: note_on channel=1 note=53 velocity=90 time=0
EXTRACT: note_on channel=1 note=62 velocity=99 time=0
EXTRACT: note_on channel=9 note=42 velocity=0 time=0.02868850833333333
EXTRACT: note_on channel=9 note=36 velocity=0 time=0
EXTRACT: note_on channel=0 note=34 velocity=0 time=0.15163925833333333
EXTRACT: note_on channel=9 note=42 velocity=47 time=0.053278658333333326
EXTRACT: note_on channel=0 note=36 velocity=126 time=0.008196716666666666
EXTRACT: note_on channel=9 note=42 velocity=0 time=0.032786866666666664
EXTRACT: note_on channel=0 note=36 velocity=0 time=0.15163925833333333
EXTRACT: note_on channel=2 note=60 velocity=0 time=0.053278658333333326
EXTRACT: note_on channel=2 note=56 velocity=0 time=0
EXTRACT: note_on channel=2 note=53 velocity=0 time=0
EXTRACT: note_on channel=2 note=62 velocity=0 time=0
EXTRACT: note_on channel=9 note=40 velocity=127 time=0
EXTRACT: note_on channel=9 note=42 velocity=64 time=0
EXTRACT: note_on channel=5 note=72 velocity=0 time=0.0020491791666666665
EXTRACT: note_on channel=5 note=67 velocity=0 time=0
EXTRACT: note_on channel=2 note=60 velocity=91 time=0.0020491791666666665
EXTRACT: note_on channel=2 note=56 velocity=115 time=0
EXTRACT: note_on channel=2 note=53 velocity=92 time=0
EXTRACT: note_on channel=2 note=62 velocity=92 time=0
EXTRACT: note_on channel=5 note=69 velocity=47 time=0.0020491791666666665
EXTRACT: note_on channel=5 note=65 velocity=117 time=0
EXTRACT: note_on channel=0 note=38 velocity=110 time=0.0020491791666666665
EXTRACT: note_on channel=1 note=60 velocity=0 time=0
EXTRACT: note_on channel=1 note=56 velocity=0 time=0
EXTRACT: note_on channel=1 note=53 velocity=0 time=0
EXTRACT: note_on channel=1 note=62 velocity=0 time=0
EXTRACT: note_on channel=1 note=60 velocity=106 time=0.004098358333333333
EXTRACT: note_on channel=1 note=56 velocity=97 time=0
EXTRACT: note_on channel=1 note=53 velocity=95 time=0
EXTRACT: note_on channel=1 note=62 velocity=102 time=0
EXTRACT: note_on channel=9 note=40 velocity=0 time=0.02868850833333333
EXTRACT: note_on channel=9 note=42 velocity=0 time=0
EXTRACT: note_on channel=0 note=38 velocity=0 time=0.15163925833333333
EXTRACT: note_on channel=9 note=42 velocity=58 time=0.053278658333333326
EXTRACT: note_on channel=5 note=69 velocity=0 time=0.0020491791666666665
EXTRACT: note_on channel=5 note=65 velocity=0 time=0
EXTRACT: note_on channel=5 note=69 velocity=58 time=0.004098358333333333
EXTRACT: note_on channel=5 note=65 velocity=92 time=0
EXTRACT: note_on channel=0 note=41 velocity=106 time=0.0020491791666666665
EXTRACT: note_on channel=9 note=42 velocity=0 time=0.032786866666666664
EXTRACT: note_on channel=2 note=60 velocity=0 time=0.20491791666666664
EXTRACT: note_on channel=2 note=56 velocity=0 time=0
EXTRACT: note_on channel=2 note=53 velocity=0 time=0
EXTRACT: note_on channel=2 note=62 velocity=0 time=0
EXTRACT: note_on channel=9 note=36 velocity=120 time=0
EXTRACT: note_on channel=9 note=42 velocity=65 time=0
EXTRACT: note_on channel=2 note=60 velocity=115 time=0.004098358333333333
EXTRACT: note_on channel=2 note=56 velocity=110 time=0
EXTRACT: note_on channel=2 note=53 velocity=103 time=0
EXTRACT: note_on channel=0 note=41 velocity=0 time=0.004098358333333333
EXTRACT: note_on channel=1 note=60 velocity=0 time=0
EXTRACT: note_on channel=1 note=56 velocity=0 time=0
EXTRACT: note_on channel=1 note=53 velocity=0 time=0
EXTRACT: note_on channel=1 note=62 velocity=0 time=0
EXTRACT: note_on channel=1 note=60 velocity=83 time=0.004098358333333333
EXTRACT: note_on channel=1 note=56 velocity=94 time=0
EXTRACT: note_on channel=1 note=53 velocity=109 time=0
EXTRACT: note_on channel=9 note=36 velocity=0 time=0.02868850833333333
EXTRACT: note_on channel=9 note=42 velocity=0 time=0
EXTRACT: note_on channel=2 note=60 velocity=0 time=0.20491791666666664
EXTRACT: note_on channel=2 note=56 velocity=0 time=0
EXTRACT: note_on channel=2 note=53 velocity=0 time=0
EXTRACT: note_on channel=9 note=36 velocity=110 time=0
EXTRACT: note_on channel=9 note=42 velocity=48 time=0
EXTRACT: note_on channel=5 note=69 velocity=0 time=0.0020491791666666665
EXTRACT: note_on channel=5 note=65 velocity=0 time=0
EXTRACT: note_on channel=2 note=60 velocity=91 time=0.0020491791666666665
EXTRACT: note_on channel=2 note=56 velocity=77 time=0
EXTRACT: note_on channel=2 note=53 velocity=115 time=0
EXTRACT: note_on channel=2 note=62 velocity=102 time=0
EXTRACT: note_on channel=5 note=69 velocity=55 time=0.0020491791666666665
EXTRACT: note_on channel=5 note=65 velocity=100 time=0
EXTRACT: note_on channel=0 note=38 velocity=127 time=0.0020491791666666665
EXTRACT: note_on channel=1 note=60 velocity=0 time=0
EXTRACT: note_on channel=1 note=56 velocity=0 time=0
EXTRACT: note_on channel=1 note=53 velocity=0 time=0
EXTRACT: note_on channel=1 note=60 velocity=96 time=0.004098358333333333
EXTRACT: note_on channel=1 note=56 velocity=111 time=0
EXTRACT: note_on channel=1 note=53 velocity=92 time=0
EXTRACT: note_on channel=1 note=62 velocity=94 time=0
EXTRACT: note_on channel=9 note=36 velocity=0 time=0.02868850833333333
EXTRACT: note_on channel=9 note=42 velocity=0 time=0
EXTRACT: note_on channel=0 note=38 velocity=0 time=0.15163925833333333
EXTRACT: note_on channel=2 note=60 velocity=0 time=0.053278658333333326
EXTRACT: note_on channel=2 note=56 velocity=0 time=0
EXTRACT: note_on channel=2 note=53 velocity=0 time=0
EXTRACT: note_on channel=2 note=62 velocity=0 time=0
EXTRACT: note_on channel=9 note=40 velocity=127 time=0
EXTRACT: note_on channel=9 note=42 velocity=65 time=0
EXTRACT: note_on channel=5 note=69 velocity=0 time=0.0020491791666666665
EXTRACT: note_on channel=5 note=65 velocity=0 time=0
EXTRACT: note_on channel=2 note=60 velocity=85 time=0.0020491791666666665
EXTRACT: note_on channel=2 note=56 velocity=86 time=0
EXTRACT: note_on channel=2 note=53 velocity=103 time=0
EXTRACT: note_on channel=2 note=62 velocity=97 time=0
EXTRACT: note_on channel=5 note=67 velocity=77 time=0.0020491791666666665
EXTRACT: note_on channel=5 note=64 velocity=87 time=0
EXTRACT: note_on channel=0 note=41 velocity=120 time=0.0020491791666666665
EXTRACT: note_on channel=1 note=60 velocity=0 time=0
EXTRACT: note_on channel=1 note=56 velocity=0 time=0
EXTRACT: note_on channel=1 note=53 velocity=0 time=0
EXTRACT: note_on channel=1 note=62 velocity=0 time=0
EXTRACT: note_on channel=1 note=60 velocity=79 time=0.004098358333333333
EXTRACT: note_on channel=1 note=56 velocity=112 time=0
EXTRACT: note_on channel=1 note=53 velocity=107 time=0
EXTRACT: note_on channel=1 note=62 velocity=115 time=0
EXTRACT: note_on channel=9 note=40 velocity=0 time=0.02868850833333333
EXTRACT: note_on channel=9 note=42 velocity=0 time=0
EXTRACT: note_on channel=0 note=41 velocity=0 time=0.15163925833333333
EXTRACT: note_on channel=2 note=60 velocity=0 time=0.053278658333333326
EXTRACT: note_on channel=2 note=56 velocity=0 time=0
EXTRACT: note_on channel=2 note=53 velocity=0 time=0
EXTRACT: note_on channel=2 note=62 velocity=0 time=0
EXTRACT: note_on channel=9 note=36 velocity=110 time=0
EXTRACT: note_on channel=9 note=42 velocity=44 time=0
EXTRACT: note_on channel=2 note=60 velocity=108 time=0.004098358333333333
EXTRACT: note_on channel=2 note=56 velocity=84 time=0
EXTRACT: note_on channel=2 note=53 velocity=79 time=0
EXTRACT: note_on channel=0 note=43 velocity=104 time=0.004098358333333333
EXTRACT: note_on channel=1 note=60 velocity=0 time=0
EXTRACT: note_on channel=1 note=56 velocity=0 time=0
EXTRACT: note_on channel=1 note=53 velocity=0 time=0
EXTRACT: note_on channel=1 note=62 velocity=0 time=0
EXTRACT: note_on channel=1 note=60 velocity=63 time=0.004098358333333333
EXTRACT: note_on channel=1 note=56 velocity=113 time=0
EXTRACT: note_on channel=1 note=53 velocity=78 time=0
EXTRACT: note_on channel=9 note=36 velocity=0 time=0.02868850833333333
EXTRACT: note_on channel=9 note=42 velocity=0 time=0
EXTRACT: note_on channel=0 note=43 velocity=0 time=0.15163925833333333
EXTRACT: note_on channel=9 note=49 velocity=100 time=0.053278658333333326
EXTRACT: note_on channel=9 note=36 velocity=120 time=0
EXTRACT: note_on channel=0 note=36 velocity=120 time=0.008196716666666666
EXTRACT: note_on channel=3 note=48 velocity=116 time=0
EXTRACT: note_on channel=4 note=74 velocity=0 time=0.0010245895833333333
EXTRACT: note_on channel=4 note=77 velocity=0 time=0
EXTRACT: note_on channel=4 note=80 velocity=0 time=0
EXTRACT: note_on channel=9 note=49 velocity=0 time=0.03176227708333333
EXTRACT: note_on channel=9 note=36 velocity=0 time=0
EXTRACT: note_on channel=3 note=55 velocity=115 time=0.008196716666666666
EXTRACT: note_on channel=3 note=59 velocity=123 time=0.04098358333333333
EXTRACT: note_on channel=3 note=64 velocity=114 time=0.04098358333333333
EXTRACT: note_on channel=2 note=60 velocity=0 time=0.110655675
EXTRACT: note_on channel=2 note=56 velocity=0 time=0
EXTRACT: note_on channel=2 note=53 velocity=0 time=0
EXTRACT: note_on channel=9 note=36 velocity=120 time=0.004098358333333333
EXTRACT: note_on channel=9 note=42 velocity=50 time=0
EXTRACT: note_on channel=1 note=60 velocity=0 time=0.004098358333333333
EXTRACT: note_on channel=1 note=56 velocity=0 time=0
EXTRACT: note_on channel=1 note=53 velocity=0 time=0
EXTRACT: note_on channel=9 note=36 velocity=0 time=0.036885224999999994
EXTRACT: note_on channel=9 note=42 velocity=0 time=0
EXTRACT: note_on channel=9 note=40 velocity=127 time=0.20491791666666664
EXTRACT: note_on channel=9 note=42 velocity=59 time=0
EXTRACT: note_on channel=9 note=40 velocity=0 time=0.04098358333333333
EXTRACT: note_on channel=9 note=42 velocity=0 time=0
EXTRACT: note_on channel=9 note=42 velocity=62 time=0.20491791666666664
EXTRACT: note_on channel=9 note=42 velocity=0 time=0.04098358333333333
EXTRACT: note_on channel=9 note=36 velocity=120 time=0.20491791666666664
EXTRACT: note_on channel=9 note=42 velocity=65 time=0
EXTRACT: note_on channel=9 note=36 velocity=0 time=0.04098358333333333
EXTRACT: note_on channel=9 note=42 velocity=0 time=0
EXTRACT: note_on channel=9 note=36 velocity=110 time=0.20491791666666664
EXTRACT: note_on channel=9 note=42 velocity=50 time=0
EXTRACT: note_on channel=9 note=36 velocity=0 time=0.04098358333333333
EXTRACT: note_on channel=9 note=42 velocity=0 time=0
EXTRACT: note_on channel=9 note=40 velocity=127 time=0.20491791666666664
EXTRACT: note_on channel=9 note=42 velocity=59 time=0
EXTRACT: note_on channel=9 note=40 velocity=0 time=0.04098358333333333
EXTRACT: note_on channel=9 note=42 velocity=0 time=0
EXTRACT: note_on channel=9 note=42 velocity=48 time=0.20491791666666664
EXTRACT: note_on channel=5 note=67 velocity=0 time=0.0020491791666666665
EXTRACT: note_on channel=5 note=64 velocity=0 time=0
EXTRACT: note_on channel=5 note=60 velocity=112 time=0.004098358333333333
EXTRACT: note_on channel=9 note=42 velocity=0 time=0.03483604583333333
EXTRACT: note_on channel=9 note=42 velocity=68 time=0.20491791666666664
EXTRACT: note_on channel=9 note=36 velocity=120 time=0
EXTRACT: note_on channel=5 note=60 velocity=0 time=0.0020491791666666665
EXTRACT: note_on channel=5 note=67 velocity=85 time=0.004098358333333333
EXTRACT: note_on channel=9 note=42 velocity=0 time=0.03483604583333333
EXTRACT: note_on channel=9 note=36 velocity=0 time=0
EXTRACT: note_on channel=9 note=36 velocity=120 time=0.20491791666666664
EXTRACT: note_on channel=9 note=42 velocity=44 time=0
EXTRACT: note_on channel=9 note=36 velocity=0 time=0.04098358333333333
EXTRACT: note_on channel=9 note=42 velocity=0 time=0
EXTRACT: note_on channel=9 note=40 velocity=127 time=0.20491791666666664
EXTRACT: note_on channel=9 note=42 velocity=57 time=0
EXTRACT: note_on channel=5 note=67 velocity=0 time=0.0020491791666666665
EXTRACT: note_on channel=5 note=65 velocity=108 time=0.004098358333333333
EXTRACT: note_on channel=0 note=36 velocity=0 time=0.0020491791666666665
EXTRACT: note_on channel=9 note=40 velocity=0 time=0.032786866666666664
EXTRACT: note_on channel=9 note=42 velocity=0 time=0
EXTRACT: note_on channel=9 note=42 velocity=66 time=0.20491791666666664
EXTRACT: note_on channel=5 note=65 velocity=0 time=0.0020491791666666665
EXTRACT: note_on channel=5 note=65 velocity=98 time=0.004098358333333333
EXTRACT: note_on channel=0 note=28 velocity=120 time=0.0020491791666666665
EXTRACT: note_on channel=9 note=42 velocity=0 time=0.032786866666666664
EXTRACT: note_on channel=0 note=28 velocity=0 time=0.09016388333333333
EXTRACT: note_on channel=9 note=36 velocity=120 time=0.11475403333333332
EXTRACT: note_on channel=9 note=42 velocity=60 time=0
EXTRACT: note_on channel=0 note=28 velocity=127 time=0.008196716666666666
EXTRACT: note_on channel=9 note=36 velocity=0 time=0.032786866666666664
EXTRACT: note_on channel=9 note=42 velocity=0 time=0
EXTRACT: note_on channel=0 note=28 velocity=0 time=0.09016388333333333
EXTRACT: note_on channel=9 note=36 velocity=110 time=0.11475403333333332
EXTRACT: note_on channel=9 note=42 velocity=41 time=0
EXTRACT: note_on channel=5 note=65 velocity=0 time=0.0020491791666666665
EXTRACT: note_on channel=5 note=65 velocity=90 time=0.004098358333333333
EXTRACT: note_on channel=0 note=29 velocity=118 time=0.0020491791666666665
EXTRACT: note_on channel=9 note=36 velocity=0 time=0.032786866666666664
EXTRACT: note_on channel=9 note=42 velocity=0 time=0
EXTRACT: note_on channel=0 note=29 velocity=0 time=0.09016388333333333
EXTRACT: note_on channel=9 note=40 velocity=127 time=0.11475403333333332
EXTRACT: note_on channel=9 note=42 velocity=61 time=0
EXTRACT: note_on channel=5 note=65 velocity=0 time=0.0020491791666666665
EXTRACT: note_on channel=5 note=64 velocity=107 time=0.004098358333333333
EXTRACT: note_on channel=0 note=31 velocity=109 time=0.0020491791666666665
EXTRACT: note_on channel=9 note=40 velocity=0 time=0.032786866666666664
EXTRACT: note_on channel=9 note=42 velocity=0 time=0
EXTRACT: note_on channel=9 note=42 velocity=41 time=0.20491791666666664
EXTRACT: note_on channel=0 note=31 velocity=0 time=0.008196716666666666
EXTRACT: note_on channel=9 note=42 velocity=0 time=0.032786866666666664
EXTRACT: note_on channel=9 note=42 velocity=67 time=0.20491791666666664
EXTRACT: note_on channel=9 note=36 velocity=120 time=0
EXTRACT: note_on channel=0 note=36 velocity=108 time=0.008196716666666666
EXTRACT: note_on channel=3 note=48 velocity=0 time=0
EXTRACT: note_on channel=3 note=55 velocity=0 time=0
EXTRACT: note_on channel=3 note=59 velocity=0 time=0
EXTRACT: note_on channel=3 note=64 velocity=0 time=0
EXTRACT: note_on channel=3 note=48 velocity=115 time=0
EXTRACT: note_on channel=9 note=42 velocity=0 time=0.032786866666666664
EXTRACT: note_on channel=9 note=36 velocity=0 time=0
EXTRACT: note_on channel=3 note=55 velocity=100 time=0.008196716666666666
EXTRACT: note_on channel=3 note=59 velocity=122 time=0.04098358333333333
EXTRACT: note_on channel=3 note=64 velocity=126 time=0.04098358333333333
EXTRACT: note_on channel=9 note=36 velocity=120 time=0.11475403333333332
EXTRACT: note_on channel=9 note=42 velocity=47 time=0
EXTRACT: note_on channel=9 note=36 velocity=0 time=0.04098358333333333
EXTRACT: note_on channel=9 note=42 velocity=0 time=0
EXTRACT: note_on channel=9 note=40 velocity=127 time=0.20491791666666664
EXTRACT: note_on channel=9 note=42 velocity=63 time=0
EXTRACT: note_on channel=9 note=40 velocity=0 time=0.04098358333333333
EXTRACT: note_on channel=9 note=42 velocity=0 time=0
EXTRACT: note_on channel=9 note=42 velocity=64 time=0.20491791666666664
EXTRACT: note_on channel=9 note=42 velocity=0 time=0.04098358333333333
EXTRACT: note_on channel=9 note=36 velocity=120 time=0.20491791666666664
EXTRACT: note_on channel=9 note=42 velocity=68 time=0
EXTRACT: note_on channel=9 note=36 velocity=0 time=0.04098358333333333
EXTRACT: note_on channel=9 note=42 velocity=0 time=0
EXTRACT: note_on channel=9 note=36 velocity=110 time=0.20491791666666664
EXTRACT: note_on channel=9 note=42 velocity=49 time=0
EXTRACT: note_on channel=9 note=36 velocity=0 time=0.04098358333333333
EXTRACT: note_on channel=9 note=42 velocity=0 time=0
EXTRACT: note_on channel=9 note=40 velocity=127 time=0.20491791666666664
EXTRACT: note_on channel=9 note=42 velocity=56 time=0
EXTRACT: note_on channel=9 note=40 velocity=0 time=0.04098358333333333
EXTRACT: note_on channel=9 note=42 velocity=0 time=0
EXTRACT: note_on channel=9 note=42 velocity=50 time=0.20491791666666664
EXTRACT: note_on channel=5 note=64 velocity=0 time=0.0020491791666666665
EXTRACT: note_on channel=5 note=60 velocity=117 time=0.004098358333333333
EXTRACT: note_on channel=9 note=42 velocity=0 time=0.03483604583333333
EXTRACT: note_on channel=9 note=42 velocity=68 time=0.20491791666666664
EXTRACT: note_on channel=9 note=36 velocity=120 time=0
EXTRACT: note_on channel=5 note=60 velocity=0 time=0.0020491791666666665
EXTRACT: note_on channel=5 note=67 velocity=88 time=0.004098358333333333
EXTRACT: note_on channel=9 note=42 velocity=0 time=0.03483604583333333
EXTRACT: note_on channel=9 note=36 velocity=0 time=0
EXTRACT: note_on channel=9 note=36 velocity=120 time=0.20491791666666664
EXTRACT: note_on channel=9 note=42 velocity=42 time=0
EXTRACT: note_on channel=9 note=36 velocity=0 time=0.04098358333333333
EXTRACT: note_on channel=9 note=42 velocity=0 time=0
EXTRACT: note_on channel=9 note=40 velocity=127 time=0.20491791666666664
EXTRACT: note_on channel=9 note=42 velocity=68 time=0
EXTRACT: note_on channel=5 note=67 velocity=0 time=0.0020491791666666665
EXTRACT: note_on channel=5 note=65 velocity=103 time=0.004098358333333333
EXTRACT: note_on channel=0 note=36 velocity=0 time=0.0020491791666666665
EXTRACT: note_on channel=9 note=40 velocity=0 time=0.032786866666666664
EXTRACT: note_on channel=9 note=42 velocity=0 time=0
EXTRACT: note_on channel=9 note=42 velocity=59 time=0.20491791666666664
EXTRACT: note_on channel=5 note=65 velocity=0 time=0.0020491791666666665
EXTRACT: note_on channel=5 note=65 velocity=115 time=0.004098358333333333
EXTRACT: note_on channel=0 note=28 velocity=106 time=0.0020491791666666665
EXTRACT: note_on channel=9 note=42 velocity=0 time=0.032786866666666664
EXTRACT: note_on channel=0 note=28 velocity=0 time=0.09016388333333333
EXTRACT: note_on channel=9 note=36 velocity=120 time=0.11475403333333332
EXTRACT: note_on channel=9 note=42 velocity=66 time=0
EXTRACT: note_on channel=0 note=28 velocity=123 time=0.008196716666666666
EXTRACT: note_on channel=9 note=36 velocity=0 time=0.032786866666666664
EXTRACT: note_on channel=9 note=42 velocity=0 time=0
EXTRACT: note_on channel=0 note=28 velocity=0 time=0.09016388333333333
EXTRACT: note_on channel=9 note=36 velocity=110 time=0.11475403333333332
EXTRACT: note_on channel=9 note=42 velocity=47 time=0
EXTRACT: note_on channel=5 note=65 velocity=0 time=0.0020491791666666665
EXTRACT: note_on channel=5 note=65 velocity=90 time=0.004098358333333333
EXTRACT: note_on channel=0 note=29 velocity=113 time=0.0020491791666666665
EXTRACT: note_on channel=9 note=36 velocity=0 time=0.032786866666666664
EXTRACT: note_on channel=9 note=42 velocity=0 time=0
EXTRACT: note_on channel=0 note=29 velocity=0 time=0.09016388333333333
EXTRACT: note_on channel=9 note=40 velocity=127 time=0.11475403333333332
EXTRACT: note_on channel=9 note=42 velocity=57 time=0
EXTRACT: note_on channel=5 note=65 velocity=0 time=0.0020491791666666665
EXTRACT: note_on channel=5 note=64 velocity=93 time=0.004098358333333333
EXTRACT: note_on channel=0 note=31 velocity=112 time=0.0020491791666666665
EXTRACT: note_on channel=9 note=40 velocity=0 time=0.032786866666666664
EXTRACT: note_on channel=9 note=42 velocity=0 time=0
EXTRACT: note_on channel=9 note=42 velocity=47 time=0.20491791666666664
EXTRACT: note_on channel=0 note=31 velocity=0 time=0.008196716666666666
EXTRACT: note_on channel=9 note=42 velocity=0 time=0.032786866666666664
EXTRACT: note_on channel=9 note=42 velocity=68 time=0.20491791666666664
EXTRACT: note_on channel=9 note=36 velocity=120 time=0
EXTRACT: note_on channel=0 note=36 velocity=125 time=0.008196716666666666
EXTRACT: note_on channel=3 note=48 velocity=0 time=0
EXTRACT: note_on channel=3 note=55 velocity=0 time=0
EXTRACT: note_on channel=3 note=59 velocity=0 time=0
EXTRACT: note_on channel=3 note=64 velocity=0 time=0
EXTRACT: note_on channel=3 note=48 velocity=99 time=0
EXTRACT: note_on channel=9 note=42 velocity=0 time=0.032786866666666664
EXTRACT: note_on channel=9 note=36 velocity=0 time=0
EXTRACT: note_on channel=3 note=55 velocity=122 time=0.008196716666666666
EXTRACT: note_on channel=3 note=59 velocity=116 time=0.04098358333333333
EXTRACT: note_on channel=3 note=64 velocity=110 time=0.04098358333333333
EXTRACT: note_on channel=9 note=36 velocity=120 time=0.11475403333333332
EXTRACT: note_on channel=9 note=42 velocity=45 time=0
EXTRACT: note_on channel=9 note=36 velocity=0 time=0.04098358333333333
EXTRACT: note_on channel=9 note=42 velocity=0 time=0
EXTRACT: note_on channel=9 note=40 velocity=127 time=0.20491791666666664
EXTRACT: note_on channel=9 note=42 velocity=67 time=0
EXTRACT: note_on channel=9 note=40 velocity=0 time=0.04098358333333333
EXTRACT: note_on channel=9 note=42 velocity=0 time=0
EXTRACT: note_on channel=9 note=42 velocity=59 time=0.20491791666666664
EXTRACT: note_on channel=9 note=42 velocity=0 time=0.04098358333333333
EXTRACT: note_on channel=9 note=36 velocity=120 time=0.20491791666666664
EXTRACT: note_on channel=9 note=42 velocity=63 time=0
EXTRACT: note_on channel=9 note=36 velocity=0 time=0.04098358333333333
EXTRACT: note_on channel=9 note=42 velocity=0 time=0
EXTRACT: note_on channel=9 note=36 velocity=110 time=0.20491791666666664
EXTRACT: note_on channel=9 note=42 velocity=43 time=0
EXTRACT: note_on channel=9 note=36 velocity=0 time=0.04098358333333333
EXTRACT: note_on channel=9 note=42 velocity=0 time=0
EXTRACT: note_on channel=9 note=40 velocity=127 time=0.20491791666666664
EXTRACT: note_on channel=9 note=42 velocity=59 time=0
EXTRACT: note_on channel=9 note=40 velocity=0 time=0.04098358333333333
EXTRACT: note_on channel=9 note=42 velocity=0 time=0
EXTRACT: note_on channel=9 note=42 velocity=41 time=0.20491791666666664
EXTRACT: note_on channel=5 note=64 velocity=0 time=0.0020491791666666665
EXTRACT: note_on channel=5 note=60 velocity=113 time=0.004098358333333333
EXTRACT: note_on channel=9 note=42 velocity=0 time=0.03483604583333333
EXTRACT: note_on channel=9 note=42 velocity=64 time=0.20491791666666664
EXTRACT: note_on channel=9 note=36 velocity=120 time=0
EXTRACT: note_on channel=5 note=60 velocity=0 time=0.0020491791666666665
EXTRACT: note_on channel=5 note=67 velocity=103 time=0.004098358333333333
EXTRACT: note_on channel=9 note=42 velocity=0 time=0.03483604583333333
EXTRACT: note_on channel=9 note=36 velocity=0 time=0
EXTRACT: note_on channel=9 note=36 velocity=120 time=0.20491791666666664
EXTRACT: note_on channel=9 note=42 velocity=41 time=0
EXTRACT: note_on channel=9 note=36 velocity=0 time=0.04098358333333333
EXTRACT: note_on channel=9 note=42 velocity=0 time=0
EXTRACT: note_on channel=9 note=40 velocity=127 time=0.20491791666666664
EXTRACT: note_on channel=9 note=42 velocity=59 time=0
EXTRACT: note_on channel=5 note=67 velocity=0 time=0.0020491791666666665
EXTRACT: note_on channel=5 note=65 velocity=91 time=0.004098358333333333
EXTRACT: note_on channel=0 note=36 velocity=0 time=0.0020491791666666665
EXTRACT: note_on channel=9 note=40 velocity=0 time=0.032786866666666664
EXTRACT: note_on channel=9 note=42 velocity=0 time=0
EXTRACT: note_on channel=9 note=42 velocity=63 time=0.20491791666666664
EXTRACT: note_on channel=5 note=65 velocity=0 time=0.0020491791666666665
EXTRACT: note_on channel=5 note=60 velocity=90 time=0.004098358333333333
EXTRACT: note_on channel=0 note=28 velocity=104 time=0.0020491791666666665
EXTRACT: note_on channel=9 note=42 velocity=0 time=0.032786866666666664
EXTRACT: note_on channel=0 note=28 velocity=0 time=0.09016388333333333
EXTRACT: note_on channel=9 note=36 velocity=120 time=0.11475403333333332
EXTRACT: note_on channel=9 note=42 velocity=60 time=0
EXTRACT: note_on channel=0 note=28 velocity=108 time=0.008196716666666666
EXTRACT: note_on channel=9 note=36 velocity=0 time=0.032786866666666664
EXTRACT: note_on channel=9 note=42 velocity=0 time=0
EXTRACT: note_on channel=0 note=28 velocity=0 time=0.09016388333333333
EXTRACT: note_on channel=9 note=36 velocity=110 time=0.11475403333333332
EXTRACT: note_on channel=9 note=42 velocity=44 time=0
EXTRACT: note_on channel=5 note=60 velocity=0 time=0.0020491791666666665
EXTRACT: note_on channel=5 note=62 velocity=94 time=0.004098358333333333
EXTRACT: note_on channel=0 note=29 velocity=107 time=0.0020491791666666665
EXTRACT: note_on channel=9 note=36 velocity=0 time=0.032786866666666664
EXTRACT: note_on channel=9 note=42 velocity=0 time=0
EXTRACT: note_on channel=0 note=29 velocity=0 time=0.09016388333333333
EXTRACT: note_on channel=9 note=40 velocity=127 time=0.11475403333333332
EXTRACT: note_on channel=9 note=42 velocity=52 time=0
EXTRACT: note_on channel=5 note=62 velocity=0 time=0.0020491791666666665
EXTRACT: note_on channel=5 note=64 velocity=89 time=0.004098358333333333
EXTRACT: note_on channel=0 note=31 velocity=104 time=0.0020491791666666665
EXTRACT: note_on channel=9 note=40 velocity=0 time=0.032786866666666664
EXTRACT: note_on channel=9 note=42 velocity=0 time=0
EXTRACT: note_on channel=9 note=42 velocity=46 time=0.20491791666666664
EXTRACT: note_on channel=0 note=31 velocity=0 time=0.008196716666666666
EXTRACT: note_on channel=9 note=42 velocity=0 time=0.032786866666666664
EXTRACT: note_on channel=9 note=42 velocity=58 time=0.20491791666666664
EXTRACT: note_on channel=9 note=36 velocity=120 time=0
EXTRACT: note_on channel=0 note=36 velocity=120 time=0.008196716666666666
EXTRACT: note_on channel=3 note=48 velocity=0 time=0
EXTRACT: note_on channel=3 note=55 velocity=0 time=0
EXTRACT: note_on channel=3 note=59 velocity=0 time=0
EXTRACT: note_on channel=3 note=64 velocity=0 time=0
EXTRACT: note_on channel=3 note=48 velocity=116 time=0
EXTRACT: note_on channel=9 note=42 velocity=0 time=0.032786866666666664
EXTRACT: note_on channel=9 note=36 velocity=0 time=0
EXTRACT: note_on channel=3 note=55 velocity=100 time=0.008196716666666666
EXTRACT: note_on channel=3 note=59 velocity=122 time=0.04098358333333333
EXTRACT: note_on channel=3 note=64 velocity=97 time=0.04098358333333333
EXTRACT: note_on channel=9 note=36 velocity=120 time=0.11475403333333332
EXTRACT: note_on channel=9 note=42 velocity=47 time=0
EXTRACT: note_on channel=9 note=36 velocity=0 time=0.04098358333333333
EXTRACT: note_on channel=9 note=42 velocity=0 time=0
EXTRACT: note_on channel=9 note=40 velocity=127 time=0.20491791666666664
EXTRACT: note_on channel=9 note=42 velocity=64 time=0
EXTRACT: note_on channel=9 note=40 velocity=0 time=0.04098358333333333
EXTRACT: note_on channel=9 note=42 velocity=0 time=0
EXTRACT: note_on channel=9 note=42 velocity=59 time=0.20491791666666664
EXTRACT: note_on channel=9 note=42 velocity=0 time=0.04098358333333333
EXTRACT: note_on channel=9 note=36 velocity=120 time=0.20491791666666664
EXTRACT: note_on channel=9 note=42 velocity=68 time=0
EXTRACT: note_on channel=9 note=36 velocity=0 time=0.04098358333333333
EXTRACT: note_on channel=9 note=42 velocity=0 time=0
EXTRACT: note_on channel=9 note=36 velocity=110 time=0.20491791666666664
EXTRACT: note_on channel=9 note=42 velocity=44 time=0
EXTRACT: note_on channel=9 note=36 velocity=0 time=0.04098358333333333
EXTRACT: note_on channel=9 note=42 velocity=0 time=0
EXTRACT: note_on channel=9 note=40 velocity=127 time=0.20491791666666664
EXTRACT: note_on channel=9 note=42 velocity=56 time=0
EXTRACT: note_on channel=9 note=40 velocity=0 time=0.04098358333333333
EXTRACT: note_on channel=9 note=42 velocity=0 time=0
EXTRACT: note_on channel=9 note=42 velocity=50 time=0.20491791666666664
EXTRACT: note_on channel=5 note=64 velocity=0 time=0.0020491791666666665
EXTRACT: note_on channel=5 note=60 velocity=107 time=0.004098358333333333
EXTRACT: note_on channel=9 note=42 velocity=0 time=0.03483604583333333
EXTRACT: note_on channel=9 note=42 velocity=69 time=0.20491791666666664
EXTRACT: note_on channel=9 note=36 velocity=120 time=0
EXTRACT: note_on channel=5 note=60 velocity=0 time=0.0020491791666666665
EXTRACT: note_on channel=5 note=67 velocity=97 time=0.004098358333333333
EXTRACT: note_on channel=9 note=42 velocity=0 time=0.03483604583333333
EXTRACT: note_on channel=9 note=36 velocity=0 time=0
EXTRACT: note_on channel=9 note=36 velocity=120 time=0.20491791666666664
EXTRACT: note_on channel=9 note=42 velocity=46 time=0
EXTRACT: note_on channel=9 note=36 velocity=0 time=0.04098358333333333
EXTRACT: note_on channel=9 note=42 velocity=0 time=0
EXTRACT: note_on channel=9 note=40 velocity=127 time=0.20491791666666664
EXTRACT: note_on channel=9 note=42 velocity=61 time=0
EXTRACT: note_on channel=5 note=67 velocity=0 time=0.0020491791666666665
EXTRACT: note_on channel=5 note=65 velocity=109 time=0.004098358333333333
EXTRACT: note_on channel=0 note=36 velocity=0 time=0.0020491791666666665
EXTRACT: note_on channel=9 note=40 velocity=0 time=0.032786866666666664
EXTRACT: note_on channel=9 note=42 velocity=0 time=0
EXTRACT: note_on channel=9 note=42 velocity=68 time=0.20491791666666664
EXTRACT: note_on channel=5 note=65 velocity=0 time=0.0020491791666666665
EXTRACT: note_on channel=5 note=65 velocity=101 time=0.004098358333333333
EXTRACT: note_on channel=0 note=28 velocity=105 time=0.0020491791666666665
EXTRACT: note_on channel=9 note=42 velocity=0 time=0.032786866666666664
EXTRACT: note_on channel=0 note=28 velocity=0 time=0.09016388333333333
EXTRACT: note_on channel=9 note=36 velocity=120 time=0.11475403333333332
EXTRACT: note_on channel=9 note=42 velocity=59 time=0
EXTRACT: note_on channel=0 note=28 velocity=102 time=0.008196716666666666
EXTRACT: note_on channel=9 note=36 velocity=0 time=0.032786866666666664
EXTRACT: note_on channel=9 note=42 velocity=0 time=0
EXTRACT: note_on channel=0 note=28 velocity=0 time=0.09016388333333333
EXTRACT: note_on channel=9 note=36 velocity=110 time=0.11475403333333332
EXTRACT: note_on channel=9 note=42 velocity=42 time=0
EXTRACT: note_on channel=5 note=65 velocity=0 time=0.0020491791666666665
EXTRACT: note_on channel=5 note=65 velocity=91 time=0.004098358333333333
EXTRACT: note_on channel=0 note=29 velocity=126 time=0.0020491791666666665
EXTRACT: note_on channel=9 note=36 velocity=0 time=0.032786866666666664
EXTRACT: note_on channel=9 note=42 velocity=0 time=0
EXTRACT: note_on channel=0 note=29 velocity=0 time=0.09016388333333333
EXTRACT: note_on channel=9 note=40 velocity=127 time=0.11475403333333332
EXTRACT: note_on channel=9 note=42 velocity=55 time=0
EXTRACT: note_on channel=5 note=65 velocity=0 time=0.0020491791666666665
EXTRACT: note_on channel=5 note=64 velocity=94 time=0.004098358333333333
EXTRACT: note_on channel=0 note=31 velocity=121 time=0.0020491791666666665
EXTRACT: note_on channel=9 note=40 velocity=0 time=0.032786866666666664
EXTRACT: note_on channel=9 note=42 velocity=0 time=0
EXTRACT: note_on channel=9 note=42 velocity=45 time=0.20491791666666664
EXTRACT: note_on channel=0 note=31 velocity=0 time=0.008196716666666666
EXTRACT: note_on channel=9 note=42 velocity=0 time=0.032786866666666664
EXTRACT: note_on channel=9 note=42 velocity=66 time=0.20491791666666664
EXTRACT: note_on channel=9 note=36 velocity=120 time=0
EXTRACT: note_on channel=0 note=36 velocity=103 time=0.008196716666666666
EXTRACT: note_on channel=3 note=48 velocity=0 time=0
EXTRACT: note_on channel=3 note=55 velocity=0 time=0
EXTRACT: note_on channel=3 note=59 velocity=0 time=0
EXTRACT: note_on channel=3 note=64 velocity=0 time=0
EXTRACT: note_on channel=3 note=57 velocity=118 time=0
EXTRACT: note_on channel=3 note=60 velocity=117 time=0
EXTRACT: note_on channel=3 note=65 velocity=117 time=0
EXTRACT: note_on channel=9 note=42 velocity=0 time=0.032786866666666664
EXTRACT: note_on channel=9 note=36 velocity=0 time=0
EXTRACT: note_on channel=9 note=36 velocity=120 time=0.20491791666666664
EXTRACT: note_on channel=9 note=42 velocity=41 time=0
EXTRACT: note_on channel=9 note=36 velocity=0 time=0.04098358333333333
EXTRACT: note_on channel=9 note=42 velocity=0 time=0
EXTRACT: note_on channel=9 note=40 velocity=127 time=0.20491791666666664
EXTRACT: note_on channel=9 note=42 velocity=65 time=0
EXTRACT: note_on channel=0 note=36 velocity=0 time=0.004098358333333333
EXTRACT: note_on channel=0 note=36 velocity=90 time=0.004098358333333333
EXTRACT: note_on channel=3 note=57 velocity=117 time=0
EXTRACT: note_on channel=3 note=60 velocity=102 time=0
EXTRACT: note_on channel=3 note=65 velocity=115 time=0
EXTRACT: note_on channel=3 note=69 velocity=112 time=0
EXTRACT: note_on channel=9 note=40 velocity=0 time=0.032786866666666664
EXTRACT: note_on channel=9 note=42 velocity=0 time=0
EXTRACT: note_on channel=9 note=42 velocity=67 time=0.20491791666666664
EXTRACT: pitchwheel channel=0 pitch=0 time=0.008196716666666666
EXTRACT: pitchwheel channel=0 pitch=80 time=0.004098358333333333
EXTRACT: pitchwheel channel=0 pitch=159 time=0.004098358333333333
EXTRACT: pitchwheel channel=0 pitch=239 time=0.004098358333333333
EXTRACT: pitchwheel channel=0 pitch=319 time=0.004098358333333333
EXTRACT: pitchwheel channel=0 pitch=398 time=0.004098358333333333
EXTRACT: pitchwheel channel=0 pitch=478 time=0.004098358333333333
EXTRACT: pitchwheel channel=0 pitch=558 time=0.004098358333333333
EXTRACT: pitchwheel channel=0 pitch=637 time=0.004098358333333333
EXTRACT: note_on channel=9 note=42 velocity=0 time=0
EXTRACT: pitchwheel channel=0 pitch=717 time=0.004098358333333333
EXTRACT: pitchwheel channel=0 pitch=797 time=0.004098358333333333
EXTRACT: pitchwheel channel=0 pitch=876 time=0.004098358333333333
EXTRACT: pitchwheel channel=0 pitch=956 time=0.004098358333333333
EXTRACT: pitchwheel channel=0 pitch=1035 time=0.004098358333333333
EXTRACT: pitchwheel channel=0 pitch=1115 time=0.004098358333333333
EXTRACT: pitchwheel channel=0 pitch=1195 time=0.004098358333333333
EXTRACT: pitchwheel channel=0 pitch=1274 time=0.004098358333333333
EXTRACT: pitchwheel channel=0 pitch=1354 time=0.004098358333333333
EXTRACT: pitchwheel channel=0 pitch=1434 time=0.004098358333333333
EXTRACT: pitchwheel channel=0 pitch=1513 time=0.004098358333333333
EXTRACT: pitchwheel channel=0 pitch=1593 time=0.004098358333333333
EXTRACT: pitchwheel channel=0 pitch=1673 time=0.004098358333333333
EXTRACT: pitchwheel channel=0 pitch=1752 time=0.004098358333333333
EXTRACT: pitchwheel channel=0 pitch=1832 time=0.004098358333333333
EXTRACT: pitchwheel channel=0 pitch=1912 time=0.004098358333333333
EXTRACT: pitchwheel channel=0 pitch=1991 time=0.004098358333333333
EXTRACT: pitchwheel channel=0 pitch=2071 time=0.004098358333333333
EXTRACT: pitchwheel channel=0 pitch=2151 time=0.004098358333333333
EXTRACT: pitchwheel channel=0 pitch=2230 time=0.004098358333333333
EXTRACT: pitchwheel channel=0 pitch=2310 time=0.004098358333333333
EXTRACT: pitchwheel channel=0 pitch=2390 time=0.004098358333333333
EXTRACT: pitchwheel channel=0 pitch=2469 time=0.004098358333333333
EXTRACT: pitchwheel channel=0 pitch=2549 time=0.004098358333333333
EXTRACT: pitchwheel channel=0 pitch=2628 time=0.004098358333333333
EXTRACT: pitchwheel channel=0 pitch=2708 time=0.004098358333333333
EXTRACT: pitchwheel channel=0 pitch=2788 time=0.004098358333333333
EXTRACT: pitchwheel channel=0 pitch=2867 time=0.004098358333333333
EXTRACT: pitchwheel channel=0 pitch=2947 time=0.004098358333333333
EXTRACT: pitchwheel channel=0 pitch=3027 time=0.004098358333333333
EXTRACT: pitchwheel channel=0 pitch=3106 time=0.004098358333333333
EXTRACT: pitchwheel channel=0 pitch=3186 time=0.004098358333333333
EXTRACT: pitchwheel channel=0 pitch=3266 time=0.004098358333333333
EXTRACT: pitchwheel channel=0 pitch=3345 time=0.004098358333333333
EXTRACT: pitchwheel channel=0 pitch=3425 time=0.004098358333333333
EXTRACT: pitchwheel channel=0 pitch=3505 time=0.004098358333333333
EXTRACT: pitchwheel channel=0 pitch=3584 time=0.004098358333333333
EXTRACT: pitchwheel channel=0 pitch=3664 time=0.004098358333333333
EXTRACT: pitchwheel channel=0 pitch=3744 time=0.004098358333333333
EXTRACT: pitchwheel channel=0 pitch=3823 time=0.004098358333333333
EXTRACT: pitchwheel channel=0 pitch=3903 time=0.004098358333333333
EXTRACT: pitchwheel channel=0 pitch=3983 time=0.004098358333333333
EXTRACT: pitchwheel channel=0 pitch=4062 time=0.004098358333333333
EXTRACT: pitchwheel channel=0 pitch=4142 time=0.004098358333333333
EXTRACT: pitchwheel channel=0 pitch=4221 time=0.004098358333333333
EXTRACT: pitchwheel channel=0 pitch=4301 time=0.004098358333333333
EXTRACT: pitchwheel channel=0 pitch=4381 time=0.004098358333333333
EXTRACT: pitchwheel channel=0 pitch=4460 time=0.004098358333333333
EXTRACT: pitchwheel channel=0 pitch=4540 time=0.004098358333333333
EXTRACT: pitchwheel channel=0 pitch=4620 time=0.004098358333333333
EXTRACT: note_on channel=3 note=57 velocity=0 time=0
EXTRACT: note_on channel=3 note=60 velocity=0 time=0
EXTRACT: note_on channel=3 note=65 velocity=0 time=0
EXTRACT: note_on channel=9 note=36 velocity=120 time=0
EXTRACT: note_on channel=9 note=42 velocity=65 time=0
EXTRACT: pitchwheel channel=0 pitch=4699 time=0.004098358333333333
EXTRACT: pitchwheel channel=0 pitch=4779 time=0.004098358333333333
EXTRACT: note_on channel=9 note=36 velocity=0 time=0.032786866666666664
EXTRACT: note_on channel=9 note=42 velocity=0 time=0
EXTRACT: note_on channel=9 note=36 velocity=110 time=0.20491791666666664
EXTRACT: note_on channel=9 note=42 velocity=43 time=0
EXTRACT: note_on channel=9 note=36 velocity=0 time=0.04098358333333333
EXTRACT: note_on channel=9 note=42 velocity=0 time=0
EXTRACT: note_on channel=9 note=40 velocity=127 time=0.20491791666666664
EXTRACT: note_on channel=9 note=42 velocity=55 time=0
EXTRACT: note_on channel=9 note=40 velocity=0 time=0.04098358333333333
EXTRACT: note_on channel=9 note=42 velocity=0 time=0
EXTRACT: note_on channel=9 note=42 velocity=43 time=0.20491791666666664
EXTRACT: note_on channel=5 note=64 velocity=0 time=0.0020491791666666665
EXTRACT: note_on channel=5 note=60 velocity=117 time=0.004098358333333333
EXTRACT: note_on channel=9 note=42 velocity=0 time=0.03483604583333333
EXTRACT: note_on channel=9 note=42 velocity=65 time=0.20491791666666664
EXTRACT: note_on channel=9 note=36 velocity=120 time=0
EXTRACT: note_on channel=5 note=60 velocity=0 time=0.0020491791666666665
EXTRACT: note_on channel=5 note=67 velocity=114 time=0.004098358333333333
EXTRACT: note_on channel=0 note=36 velocity=0 time=0.0020491791666666665
EXTRACT: pitchwheel channel=0 pitch=0 time=0
EXTRACT: note_on channel=0 note=36 velocity=100 time=0
EXTRACT: note_on channel=9 note=42 velocity=0 time=0.032786866666666664
EXTRACT: note_on channel=9 note=36 velocity=0 time=0
EXTRACT: note_on channel=9 note=36 velocity=120 time=0.20491791666666664
EXTRACT: note_on channel=9 note=42 velocity=50 time=0
EXTRACT: note_on channel=0 note=36 velocity=0 time=0.008196716666666666
EXTRACT: note_on channel=9 note=36 velocity=0 time=0.032786866666666664
EXTRACT: note_on channel=9 note=42 velocity=0 time=0
EXTRACT: note_on channel=9 note=40 velocity=127 time=0.20491791666666664
EXTRACT: note_on channel=9 note=42 velocity=62 time=0
EXTRACT: note_on channel=5 note=67 velocity=0 time=0.0020491791666666665
EXTRACT: note_on channel=5 note=65 velocity=103 time=0.004098358333333333
EXTRACT: note_on channel=9 note=40 velocity=0 time=0.03483604583333333
EXTRACT: note_on channel=9 note=42 velocity=0 time=0
EXTRACT: note_on channel=9 note=42 velocity=69 time=0.20491791666666664
EXTRACT: note_on channel=5 note=65 velocity=0 time=0.0020491791666666665
EXTRACT: note_on channel=5 note=65 velocity=100 time=0.004098358333333333
EXTRACT: note_on channel=0 note=28 velocity=120 time=0.0020491791666666665
EXTRACT: note_on channel=9 note=42 velocity=0 time=0.032786866666666664
EXTRACT: note_on channel=0 note=28 velocity=0 time=0.09016388333333333
EXTRACT: note_on channel=9 note=36 velocity=120 time=0.11475403333333332
EXTRACT: note_on channel=9 note=42 velocity=64 time=0
EXTRACT: note_on channel=0 note=28 velocity=120 time=0.008196716666666666
EXTRACT: note_on channel=9 note=36 velocity=0 time=0.032786866666666664
EXTRACT: note_on channel=9 note=42 velocity=0 time=0
EXTRACT: note_on channel=0 note=28 velocity=0 time=0.09016388333333333
EXTRACT: note_on channel=9 note=36 velocity=110 time=0.11475403333333332
EXTRACT: note_on channel=9 note=42 velocity=44 time=0
EXTRACT: note_on channel=5 note=65 velocity=0 time=0.0020491791666666665
EXTRACT: note_on channel=5 note=65 velocity=105 time=0.004098358333333333
EXTRACT: note_on channel=0 note=29 velocity=104 time=0.0020491791666666665
EXTRACT: note_on channel=9 note=36 velocity=0 time=0.032786866666666664
EXTRACT: note_on channel=9 note=42 velocity=0 time=0
EXTRACT: note_on channel=0 note=29 velocity=0 time=0.09016388333333333
EXTRACT: note_on channel=9 note=40 velocity=127 time=0.11475403333333332
EXTRACT: note_on channel=9 note=42 velocity=62 time=0
EXTRACT: note_on channel=5 note=65 velocity=0 time=0.0020491791666666665
EXTRACT: note_on channel=5 note=64 velocity=93 time=0.004098358333333333
EXTRACT: note_on channel=0 note=31 velocity=105 time=0.0020491791666666665
EXTRACT: note_on channel=3 note=57 velocity=0 time=0
EXTRACT: note_on channel=3 note=60 velocity=0 time=0
EXTRACT: note_on channel=3 note=65 velocity=0 time=0
EXTRACT: note_on channel=3 note=69 velocity=0 time=0
EXTRACT: note_on channel=9 note=40 velocity=0 time=0.032786866666666664
EXTRACT: note_on channel=9 note=42 velocity=0 time=0
EXTRACT: note_on channel=9 note=42 velocity=42 time=0.20491791666666664
EXTRACT: note_on channel=0 note=31 velocity=0 time=0.008196716666666666
EXTRACT: note_on channel=9 note=42 velocity=0 time=0.032786866666666664
EXTRACT: note_on channel=9 note=42 velocity=68 time=0.20491791666666664
EXTRACT: note_on channel=9 note=36 velocity=120 time=0
EXTRACT: note_on channel=0 note=36 velocity=115 time=0.008196716666666666
EXTRACT: note_on channel=3 note=48 velocity=99 time=0
EXTRACT: note_on channel=9 note=42 velocity=0 time=0.032786866666666664
EXTRACT: note_on channel=9 note=36 velocity=0 time=0
EXTRACT: note_on channel=3 note=55 velocity=101 time=0.008196716666666666
EXTRACT: note_on channel=3 note=59 velocity=113 time=0.04098358333333333
EXTRACT: note_on channel=3 note=64 velocity=109 time=0.04098358333333333
EXTRACT: note_on channel=9 note=36 velocity=120 time=0.11475403333333332
EXTRACT: note_on channel=9 note=42 velocity=46 time=0
EXTRACT: note_on channel=9 note=36 velocity=0 time=0.04098358333333333
EXTRACT: note_on channel=9 note=42 velocity=0 time=0
EXTRACT: note_on channel=9 note=40 velocity=127 time=0.20491791666666664
EXTRACT: note_on channel=9 note=42 velocity=57 time=0
EXTRACT: note_on channel=0 note=36 velocity=0 time=0.004098358333333333
EXTRACT: note_on channel=0 note=36 velocity=90 time=0.004098358333333333
EXTRACT: note_on channel=9 note=40 velocity=0 time=0.032786866666666664
EXTRACT: note_on channel=9 note=42 velocity=0 time=0
EXTRACT: note_on channel=9 note=42 velocity=68 time=0.20491791666666664
EXTRACT: pitchwheel channel=0 pitch=0 time=0.008196716666666666
EXTRACT: pitchwheel channel=0 pitch=80 time=0.004098358333333333
EXTRACT: pitchwheel channel=0 pitch=159 time=0.004098358333333333
EXTRACT: pitchwheel channel=0 pitch=239 time=0.004098358333333333
EXTRACT: pitchwheel channel=0 pitch=319 time=0.004098358333333333
EXTRACT: pitchwheel channel=0 pitch=398 time=0.004098358333333333
EXTRACT: pitchwheel channel=0 pitch=478 time=0.004098358333333333
EXTRACT: pitchwheel channel=0 pitch=558 time=0.004098358333333333
EXTRACT: pitchwheel channel=0 pitch=637 time=0.004098358333333333
EXTRACT: note_on channel=9 note=42 velocity=0 time=0
EXTRACT: pitchwheel channel=0 pitch=717 time=0.004098358333333333
EXTRACT: pitchwheel channel=0 pitch=797 time=0.004098358333333333
EXTRACT: pitchwheel channel=0 pitch=876 time=0.004098358333333333
EXTRACT: pitchwheel channel=0 pitch=956 time=0.004098358333333333
EXTRACT: pitchwheel channel=0 pitch=1035 time=0.004098358333333333
EXTRACT: pitchwheel channel=0 pitch=1115 time=0.004098358333333333
EXTRACT: pitchwheel channel=0 pitch=1195 time=0.004098358333333333
EXTRACT: pitchwheel channel=0 pitch=1274 time=0.004098358333333333
EXTRACT: pitchwheel channel=0 pitch=1354 time=0.004098358333333333
EXTRACT: pitchwheel channel=0 pitch=1434 time=0.004098358333333333
EXTRACT: pitchwheel channel=0 pitch=1513 time=0.004098358333333333
EXTRACT: pitchwheel channel=0 pitch=1593 time=0.004098358333333333
EXTRACT: pitchwheel channel=0 pitch=1673 time=0.004098358333333333
EXTRACT: pitchwheel channel=0 pitch=1752 time=0.004098358333333333
EXTRACT: pitchwheel channel=0 pitch=1832 time=0.004098358333333333
EXTRACT: pitchwheel channel=0 pitch=1912 time=0.004098358333333333
EXTRACT: pitchwheel channel=0 pitch=1991 time=0.004098358333333333
EXTRACT: pitchwheel channel=0 pitch=2071 time=0.004098358333333333
EXTRACT: pitchwheel channel=0 pitch=2151 time=0.004098358333333333
EXTRACT: pitchwheel channel=0 pitch=2230 time=0.004098358333333333
EXTRACT: pitchwheel channel=0 pitch=2310 time=0.004098358333333333
EXTRACT: pitchwheel channel=0 pitch=2390 time=0.004098358333333333
EXTRACT: pitchwheel channel=0 pitch=2469 time=0.004098358333333333
EXTRACT: pitchwheel channel=0 pitch=2549 time=0.004098358333333333
EXTRACT: pitchwheel channel=0 pitch=2628 time=0.004098358333333333
EXTRACT: pitchwheel channel=0 pitch=2708 time=0.004098358333333333
EXTRACT: pitchwheel channel=0 pitch=2788 time=0.004098358333333333
EXTRACT: pitchwheel channel=0 pitch=2867 time=0.004098358333333333
EXTRACT: pitchwheel channel=0 pitch=2947 time=0.004098358333333333
EXTRACT: pitchwheel channel=0 pitch=3027 time=0.004098358333333333
EXTRACT: pitchwheel channel=0 pitch=3106 time=0.004098358333333333
EXTRACT: pitchwheel channel=0 pitch=3186 time=0.004098358333333333
EXTRACT: pitchwheel channel=0 pitch=3266 time=0.004098358333333333
EXTRACT: pitchwheel channel=0 pitch=3345 time=0.004098358333333333
EXTRACT: pitchwheel channel=0 pitch=3425 time=0.004098358333333333
EXTRACT: pitchwheel channel=0 pitch=3505 time=0.004098358333333333
EXTRACT: pitchwheel channel=0 pitch=3584 time=0.004098358333333333
EXTRACT: pitchwheel channel=0 pitch=3664 time=0.004098358333333333
EXTRACT: pitchwheel channel=0 pitch=3744 time=0.004098358333333333
EXTRACT: pitchwheel channel=0 pitch=3823 time=0.004098358333333333
EXTRACT: pitchwheel channel=0 pitch=3903 time=0.004098358333333333
EXTRACT: pitchwheel channel=0 pitch=3983 time=0.004098358333333333
EXTRACT: pitchwheel channel=0 pitch=4062 time=0.004098358333333333
EXTRACT: pitchwheel channel=0 pitch=4142 time=0.004098358333333333
EXTRACT: pitchwheel channel=0 pitch=4221 time=0.004098358333333333
EXTRACT: pitchwheel channel=0 pitch=4301 time=0.004098358333333333
EXTRACT: pitchwheel channel=0 pitch=4381 time=0.004098358333333333
EXTRACT: pitchwheel channel=0 pitch=4460 time=0.004098358333333333
EXTRACT: pitchwheel channel=0 pitch=4540 time=0.004098358333333333
EXTRACT: pitchwheel channel=0 pitch=4620 time=0.004098358333333333
EXTRACT: note_on channel=9 note=36 velocity=120 time=0
EXTRACT: note_on channel=9 note=42 velocity=68 time=0
EXTRACT: pitchwheel channel=0 pitch=4699 time=0.004098358333333333
EXTRACT: pitchwheel channel=0 pitch=4779 time=0.004098358333333333
EXTRACT: note_on channel=9 note=36 velocity=0 time=0.032786866666666664
EXTRACT: note_on channel=9 note=42 velocity=0 time=0
EXTRACT: note_on channel=9 note=36 velocity=110 time=0.20491791666666664
EXTRACT: note_on channel=9 note=42 velocity=50 time=0
EXTRACT: note_on channel=9 note=36 velocity=0 time=0.04098358333333333
EXTRACT: note_on channel=9 note=42 velocity=0 time=0
EXTRACT: note_on channel=9 note=40 velocity=127 time=0.20491791666666664
EXTRACT: note_on channel=9 note=42 velocity=57 time=0
EXTRACT: note_on channel=9 note=40 velocity=0 time=0.04098358333333333
EXTRACT: note_on channel=9 note=42 velocity=0 time=0
EXTRACT: note_on channel=9 note=42 velocity=50 time=0.20491791666666664
EXTRACT: note_on channel=5 note=64 velocity=0 time=0.0020491791666666665
EXTRACT: note_on channel=5 note=60 velocity=91 time=0.004098358333333333
EXTRACT: note_on channel=9 note=42 velocity=0 time=0.03483604583333333
EXTRACT: note_on channel=9 note=42 velocity=57 time=0.20491791666666664
EXTRACT: note_on channel=9 note=36 velocity=120 time=0
EXTRACT: note_on channel=5 note=60 velocity=0 time=0.0020491791666666665
EXTRACT: note_on channel=5 note=67 velocity=94 time=0.004098358333333333
EXTRACT: note_on channel=0 note=36 velocity=0 time=0.0020491791666666665
EXTRACT: pitchwheel channel=0 pitch=0 time=0
EXTRACT: note_on channel=0 note=36 velocity=100 time=0
EXTRACT: note_on channel=9 note=42 velocity=0 time=0.032786866666666664
EXTRACT: note_on channel=9 note=36 velocity=0 time=0
EXTRACT: note_on channel=9 note=36 velocity=120 time=0.20491791666666664
EXTRACT: note_on channel=9 note=42 velocity=49 time=0
EXTRACT: note_on channel=0 note=36 velocity=0 time=0.008196716666666666
EXTRACT: note_on channel=9 note=36 velocity=0 time=0.032786866666666664
EXTRACT: note_on channel=9 note=42 velocity=0 time=0
EXTRACT: note_on channel=9 note=40 velocity=127 time=0.20491791666666664
EXTRACT: note_on channel=9 note=42 velocity=65 time=0
EXTRACT: note_on channel=5 note=67 velocity=0 time=0.0020491791666666665
EXTRACT: note_on channel=5 note=65 velocity=113 time=0.004098358333333333
EXTRACT: note_on channel=9 note=40 velocity=0 time=0.03483604583333333
EXTRACT: note_on channel=9 note=42 velocity=0 time=0
EXTRACT: note_on channel=9 note=42 velocity=58 time=0.20491791666666664
EXTRACT: note_on channel=5 note=65 velocity=0 time=0.0020491791666666665
EXTRACT: note_on channel=5 note=60 velocity=87 time=0.004098358333333333
EXTRACT: note_on channel=0 note=28 velocity=127 time=0.0020491791666666665
EXTRACT: note_on channel=9 note=42 velocity=0 time=0.032786866666666664
EXTRACT: note_on channel=0 note=28 velocity=0 time=0.09016388333333333
EXTRACT: note_on channel=9 note=36 velocity=120 time=0.11475403333333332
EXTRACT: note_on channel=9 note=42 velocity=68 time=0
EXTRACT: note_on channel=0 note=28 velocity=127 time=0.008196716666666666
EXTRACT: note_on channel=9 note=36 velocity=0 time=0.032786866666666664
EXTRACT: note_on channel=9 note=42 velocity=0 time=0
EXTRACT: note_on channel=0 note=28 velocity=0 time=0.09016388333333333
EXTRACT: note_on channel=9 note=36 velocity=110 time=0.11475403333333332
EXTRACT: note_on channel=9 note=42 velocity=45 time=0
EXTRACT: note_on channel=5 note=60 velocity=0 time=0.0020491791666666665
EXTRACT: note_on channel=5 note=62 velocity=91 time=0.004098358333333333
EXTRACT: note_on channel=0 note=29 velocity=112 time=0.0020491791666666665
EXTRACT: note_on channel=9 note=36 velocity=0 time=0.032786866666666664
EXTRACT: note_on channel=9 note=42 velocity=0 time=0
EXTRACT: note_on channel=0 note=29 velocity=0 time=0.09016388333333333
EXTRACT: note_on channel=9 note=40 velocity=127 time=0.11475403333333332
EXTRACT: note_on channel=9 note=42 velocity=54 time=0
EXTRACT: note_on channel=5 note=62 velocity=0 time=0.0020491791666666665
EXTRACT: note_on channel=5 note=64 velocity=112 time=0.004098358333333333
EXTRACT: note_on channel=0 note=31 velocity=122 time=0.0020491791666666665
EXTRACT: note_on channel=9 note=40 velocity=0 time=0.032786866666666664
EXTRACT: note_on channel=9 note=42 velocity=0 time=0
EXTRACT: note_on channel=9 note=42 velocity=42 time=0.20491791666666664
EXTRACT: note_on channel=0 note=31 velocity=0 time=0.008196716666666666
EXTRACT: note_on channel=9 note=42 velocity=0 time=0.032786866666666664
EXTRACT: note_on channel=9 note=42 velocity=68 time=0.20491791666666664
EXTRACT: note_on channel=9 note=36 velocity=120 time=0
EXTRACT: note_on channel=0 note=36 velocity=115 time=0.008196716666666666
EXTRACT: note_on channel=3 note=48 velocity=0 time=0
EXTRACT: note_on channel=3 note=55 velocity=0 time=0
EXTRACT: note_on channel=3 note=59 velocity=0 time=0
EXTRACT: note_on channel=3 note=64 velocity=0 time=0
EXTRACT: note_on channel=3 note=57 velocity=114 time=0
EXTRACT: note_on channel=3 note=60 velocity=121 time=0
EXTRACT: note_on channel=3 note=65 velocity=95 time=0
EXTRACT: note_on channel=9 note=42 velocity=0 time=0.032786866666666664
EXTRACT: note_on channel=9 note=36 velocity=0 time=0
EXTRACT: note_on channel=9 note=36 velocity=120 time=0.20491791666666664
EXTRACT: note_on channel=9 note=42 velocity=45 time=0
EXTRACT: note_on channel=9 note=36 velocity=0 time=0.04098358333333333
EXTRACT: note_on channel=9 note=42 velocity=0 time=0
EXTRACT: note_on channel=9 note=40 velocity=127 time=0.20491791666666664
EXTRACT: note_on channel=9 note=42 velocity=61 time=0
EXTRACT: note_on channel=0 note=36 velocity=0 time=0.004098358333333333
EXTRACT: note_on channel=0 note=36 velocity=90 time=0.004098358333333333
EXTRACT: note_on channel=9 note=40 velocity=0 time=0.032786866666666664
EXTRACT: note_on channel=9 note=42 velocity=0 time=0
EXTRACT: note_on channel=9 note=42 velocity=67 time=0.20491791666666664
EXTRACT: pitchwheel channel=0 pitch=0 time=0.008196716666666666
EXTRACT: pitchwheel channel=0 pitch=80 time=0.004098358333333333
EXTRACT: pitchwheel channel=0 pitch=159 time=0.004098358333333333
EXTRACT: pitchwheel channel=0 pitch=239 time=0.004098358333333333
EXTRACT: pitchwheel channel=0 pitch=319 time=0.004098358333333333
EXTRACT: pitchwheel channel=0 pitch=398 time=0.004098358333333333
EXTRACT: pitchwheel channel=0 pitch=478 time=0.004098358333333333
EXTRACT: pitchwheel channel=0 pitch=558 time=0.004098358333333333
EXTRACT: pitchwheel channel=0 pitch=637 time=0.004098358333333333
EXTRACT: note_on channel=9 note=42 velocity=0 time=0
EXTRACT: pitchwheel channel=0 pitch=717 time=0.004098358333333333
EXTRACT: pitchwheel channel=0 pitch=797 time=0.004098358333333333
EXTRACT: pitchwheel channel=0 pitch=876 time=0.004098358333333333
EXTRACT: pitchwheel channel=0 pitch=956 time=0.004098358333333333
EXTRACT: pitchwheel channel=0 pitch=1035 time=0.004098358333333333
EXTRACT: pitchwheel channel=0 pitch=1115 time=0.004098358333333333
EXTRACT: pitchwheel channel=0 pitch=1195 time=0.004098358333333333
EXTRACT: pitchwheel channel=0 pitch=1274 time=0.004098358333333333
EXTRACT: pitchwheel channel=0 pitch=1354 time=0.004098358333333333
EXTRACT: pitchwheel channel=0 pitch=1434 time=0.004098358333333333
EXTRACT: pitchwheel channel=0 pitch=1513 time=0.004098358333333333
EXTRACT: pitchwheel channel=0 pitch=1593 time=0.004098358333333333
EXTRACT: pitchwheel channel=0 pitch=1673 time=0.004098358333333333
EXTRACT: pitchwheel channel=0 pitch=1752 time=0.004098358333333333
EXTRACT: pitchwheel channel=0 pitch=1832 time=0.004098358333333333
EXTRACT: pitchwheel channel=0 pitch=1912 time=0.004098358333333333
EXTRACT: pitchwheel channel=0 pitch=1991 time=0.004098358333333333
EXTRACT: pitchwheel channel=0 pitch=2071 time=0.004098358333333333
EXTRACT: pitchwheel channel=0 pitch=2151 time=0.004098358333333333
EXTRACT: pitchwheel channel=0 pitch=2230 time=0.004098358333333333
EXTRACT: pitchwheel channel=0 pitch=2310 time=0.004098358333333333
EXTRACT: pitchwheel channel=0 pitch=2390 time=0.004098358333333333
EXTRACT: pitchwheel channel=0 pitch=2469 time=0.004098358333333333
EXTRACT: pitchwheel channel=0 pitch=2549 time=0.004098358333333333
EXTRACT: pitchwheel channel=0 pitch=2628 time=0.004098358333333333
EXTRACT: pitchwheel channel=0 pitch=2708 time=0.004098358333333333
EXTRACT: pitchwheel channel=0 pitch=2788 time=0.004098358333333333
EXTRACT: pitchwheel channel=0 pitch=2867 time=0.004098358333333333
EXTRACT: pitchwheel channel=0 pitch=2947 time=0.004098358333333333
EXTRACT: pitchwheel channel=0 pitch=3027 time=0.004098358333333333
EXTRACT: pitchwheel channel=0 pitch=3106 time=0.004098358333333333
EXTRACT: pitchwheel channel=0 pitch=3186 time=0.004098358333333333
EXTRACT: pitchwheel channel=0 pitch=3266 time=0.004098358333333333
EXTRACT: pitchwheel channel=0 pitch=3345 time=0.004098358333333333
EXTRACT: pitchwheel channel=0 pitch=3425 time=0.004098358333333333
EXTRACT: pitchwheel channel=0 pitch=3505 time=0.004098358333333333
EXTRACT: pitchwheel channel=0 pitch=3584 time=0.004098358333333333
EXTRACT: pitchwheel channel=0 pitch=3664 time=0.004098358333333333
EXTRACT: pitchwheel channel=0 pitch=3744 time=0.004098358333333333
EXTRACT: pitchwheel channel=0 pitch=3823 time=0.004098358333333333
EXTRACT: pitchwheel channel=0 pitch=3903 time=0.004098358333333333
EXTRACT: pitchwheel channel=0 pitch=3983 time=0.004098358333333333
EXTRACT: pitchwheel channel=0 pitch=4062 time=0.004098358333333333
EXTRACT: pitchwheel channel=0 pitch=4142 time=0.004098358333333333
EXTRACT: pitchwheel channel=0 pitch=4221 time=0.004098358333333333
EXTRACT: pitchwheel channel=0 pitch=4301 time=0.004098358333333333
EXTRACT: pitchwheel channel=0 pitch=4381 time=0.004098358333333333
EXTRACT: pitchwheel channel=0 pitch=4460 time=0.004098358333333333
EXTRACT: pitchwheel channel=0 pitch=4540 time=0.004098358333333333
EXTRACT: pitchwheel channel=0 pitch=4620 time=0.004098358333333333
EXTRACT: note_on channel=9 note=36 velocity=120 time=0
EXTRACT: note_on channel=9 note=42 velocity=60 time=0
EXTRACT: pitchwheel channel=0 pitch=4699 time=0.004098358333333333
EXTRACT: pitchwheel channel=0 pitch=4779 time=0.004098358333333333
EXTRACT: note_on channel=9 note=36 velocity=0 time=0.032786866666666664
EXTRACT: note_on channel=9 note=42 velocity=0 time=0
EXTRACT: note_on channel=9 note=36 velocity=110 time=0.20491791666666664
EXTRACT: note_on channel=9 note=42 velocity=44 time=0
EXTRACT: note_on channel=9 note=36 velocity=0 time=0.04098358333333333
EXTRACT: note_on channel=9 note=42 velocity=0 time=0
EXTRACT: note_on channel=9 note=40 velocity=127 time=0.20491791666666664
EXTRACT: note_on channel=9 note=42 velocity=57 time=0
EXTRACT: note_on channel=9 note=40 velocity=0 time=0.04098358333333333
EXTRACT: note_on channel=9 note=42 velocity=0 time=0
EXTRACT: note_on channel=9 note=42 velocity=41 time=0.20491791666666664
EXTRACT: note_on channel=5 note=64 velocity=0 time=0.0020491791666666665
EXTRACT: note_on channel=5 note=60 velocity=101 time=0.004098358333333333
EXTRACT: note_on channel=9 note=42 velocity=0 time=0.03483604583333333
EXTRACT: note_on channel=9 note=42 velocity=61 time=0.20491791666666664
EXTRACT: note_on channel=9 note=36 velocity=120 time=0
EXTRACT: note_on channel=5 note=60 velocity=0 time=0.0020491791666666665
EXTRACT: note_on channel=5 note=67 velocity=87 time=0.004098358333333333
EXTRACT: note_on channel=0 note=36 velocity=0 time=0.0020491791666666665
EXTRACT: pitchwheel channel=0 pitch=0 time=0
EXTRACT: note_on channel=0 note=36 velocity=100 time=0
EXTRACT: note_on channel=9 note=42 velocity=0 time=0.032786866666666664
EXTRACT: note_on channel=9 note=36 velocity=0 time=0
EXTRACT: note_on channel=9 note=36 velocity=120 time=0.20491791666666664
EXTRACT: note_on channel=9 note=42 velocity=42 time=0
EXTRACT: note_on channel=0 note=36 velocity=0 time=0.008196716666666666
EXTRACT: note_on channel=9 note=36 velocity=0 time=0.032786866666666664
EXTRACT: note_on channel=9 note=42 velocity=0 time=0
EXTRACT: note_on channel=9 note=40 velocity=127 time=0.20491791666666664
EXTRACT: note_on channel=9 note=42 velocity=69 time=0
EXTRACT: note_on channel=5 note=67 velocity=0 time=0.0020491791666666665
EXTRACT: note_on channel=5 note=65 velocity=88 time=0.004098358333333333
EXTRACT: note_on channel=9 note=40 velocity=0 time=0.03483604583333333
EXTRACT: note_on channel=9 note=42 velocity=0 time=0
EXTRACT: note_on channel=9 note=42 velocity=58 time=0.20491791666666664
EXTRACT: note_on channel=5 note=65 velocity=0 time=0.0020491791666666665
EXTRACT: note_on channel=5 note=65 velocity=89 time=0.004098358333333333
EXTRACT: note_on channel=0 note=28 velocity=121 time=0.0020491791666666665
EXTRACT: note_on channel=9 note=42 velocity=0 time=0.032786866666666664
EXTRACT: note_on channel=0 note=28 velocity=0 time=0.09016388333333333
EXTRACT: note_on channel=9 note=36 velocity=120 time=0.11475403333333332
EXTRACT: note_on channel=9 note=42 velocity=57 time=0
EXTRACT: note_on channel=0 note=28 velocity=124 time=0.008196716666666666
EXTRACT: note_on channel=9 note=36 velocity=0 time=0.032786866666666664
EXTRACT: note_on channel=9 note=42 velocity=0 time=0
EXTRACT: note_on channel=0 note=28 velocity=0 time=0.09016388333333333
EXTRACT: note_on channel=9 note=36 velocity=110 time=0.11475403333333332
EXTRACT: note_on channel=9 note=42 velocity=50 time=0
EXTRACT: note_on channel=5 note=65 velocity=0 time=0.0020491791666666665
EXTRACT: note_on channel=5 note=65 velocity=91 time=0.004098358333333333
EXTRACT: note_on channel=0 note=29 velocity=115 time=0.0020491791666666665
EXTRACT: note_on channel=9 note=36 velocity=0 time=0.032786866666666664
EXTRACT: note_on channel=9 note=42 velocity=0 time=0
EXTRACT: note_on channel=0 note=29 velocity=0 time=0.09016388333333333
EXTRACT: note_on channel=9 note=40 velocity=127 time=0.11475403333333332
EXTRACT: note_on channel=9 note=42 velocity=59 time=0
EXTRACT: note_on channel=5 note=65 velocity=0 time=0.0020491791666666665
EXTRACT: note_on channel=5 note=64 velocity=113 time=0.004098358333333333
EXTRACT: note_on channel=0 note=31 velocity=121 time=0.0020491791666666665
EXTRACT: note_on channel=9 note=40 velocity=0 time=0.032786866666666664
EXTRACT: note_on channel=9 note=42 velocity=0 time=0
EXTRACT: note_on channel=9 note=42 velocity=50 time=0.20491791666666664
EXTRACT: note_on channel=0 note=31 velocity=0 time=0.008196716666666666
EXTRACT: note_on channel=9 note=42 velocity=0 time=0.032786866666666664
EXTRACT: note_on channel=9 note=42 velocity=59 time=0.20491791666666664
EXTRACT: note_on channel=9 note=36 velocity=120 time=0
EXTRACT: note_on channel=0 note=36 velocity=121 time=0.008196716666666666
EXTRACT: note_on channel=3 note=48 velocity=121 time=0
EXTRACT: note_on channel=9 note=42 velocity=0 time=0.032786866666666664
EXTRACT: note_on channel=9 note=36 velocity=0 time=0
EXTRACT: note_on channel=3 note=55 velocity=97 time=0.008196716666666666
EXTRACT: note_on channel=3 note=59 velocity=109 time=0.04098358333333333
EXTRACT: note_on channel=3 note=64 velocity=95 time=0.04098358333333333
EXTRACT: note_on channel=9 note=36 velocity=120 time=0.11475403333333332
EXTRACT: note_on channel=9 note=42 velocity=47 time=0
EXTRACT: note_on channel=9 note=36 velocity=0 time=0.04098358333333333
EXTRACT: note_on channel=9 note=42 velocity=0 time=0
EXTRACT: note_on channel=9 note=40 velocity=127 time=0.20491791666666664
EXTRACT: note_on channel=9 note=42 velocity=68 time=0
EXTRACT: note_on channel=0 note=36 velocity=0 time=0.004098358333333333
EXTRACT: note_on channel=0 note=36 velocity=90 time=0.004098358333333333
EXTRACT: note_on channel=9 note=40 velocity=0 time=0.032786866666666664
EXTRACT: note_on channel=9 note=42 velocity=0 time=0
EXTRACT: note_on channel=9 note=42 velocity=63 time=0.20491791666666664
EXTRACT: pitchwheel channel=0 pitch=0 time=0.008196716666666666
EXTRACT: pitchwheel channel=0 pitch=80 time=0.004098358333333333
EXTRACT: pitchwheel channel=0 pitch=159 time=0.004098358333333333
EXTRACT: pitchwheel channel=0 pitch=239 time=0.004098358333333333
EXTRACT: pitchwheel channel=0 pitch=319 time=0.004098358333333333
EXTRACT: pitchwheel channel=0 pitch=398 time=0.004098358333333333
EXTRACT: pitchwheel channel=0 pitch=478 time=0.004098358333333333
EXTRACT: pitchwheel channel=0 pitch=558 time=0.004098358333333333
EXTRACT: pitchwheel channel=0 pitch=637 time=0.004098358333333333
EXTRACT: note_on channel=9 note=42 velocity=0 time=0
EXTRACT: pitchwheel channel=0 pitch=717 time=0.004098358333333333
EXTRACT: pitchwheel channel=0 pitch=797 time=0.004098358333333333
EXTRACT: pitchwheel channel=0 pitch=876 time=0.004098358333333333
EXTRACT: pitchwheel channel=0 pitch=956 time=0.004098358333333333
EXTRACT: pitchwheel channel=0 pitch=1035 time=0.004098358333333333
EXTRACT: pitchwheel channel=0 pitch=1115 time=0.004098358333333333
EXTRACT: pitchwheel channel=0 pitch=1195 time=0.004098358333333333
EXTRACT: pitchwheel channel=0 pitch=1274 time=0.004098358333333333
EXTRACT: pitchwheel channel=0 pitch=1354 time=0.004098358333333333
EXTRACT: pitchwheel channel=0 pitch=1434 time=0.004098358333333333
EXTRACT: pitchwheel channel=0 pitch=1513 time=0.004098358333333333
EXTRACT: pitchwheel channel=0 pitch=1593 time=0.004098358333333333
EXTRACT: pitchwheel channel=0 pitch=1673 time=0.004098358333333333
EXTRACT: pitchwheel channel=0 pitch=1752 time=0.004098358333333333
EXTRACT: pitchwheel channel=0 pitch=1832 time=0.004098358333333333
EXTRACT: pitchwheel channel=0 pitch=1912 time=0.004098358333333333
EXTRACT: pitchwheel channel=0 pitch=1991 time=0.004098358333333333
EXTRACT: pitchwheel channel=0 pitch=2071 time=0.004098358333333333
EXTRACT: pitchwheel channel=0 pitch=2151 time=0.004098358333333333
EXTRACT: pitchwheel channel=0 pitch=2230 time=0.004098358333333333
EXTRACT: pitchwheel channel=0 pitch=2310 time=0.004098358333333333
EXTRACT: pitchwheel channel=0 pitch=2390 time=0.004098358333333333
EXTRACT: pitchwheel channel=0 pitch=2469 time=0.004098358333333333
EXTRACT: pitchwheel channel=0 pitch=2549 time=0.004098358333333333
EXTRACT: pitchwheel channel=0 pitch=2628 time=0.004098358333333333
EXTRACT: pitchwheel channel=0 pitch=2708 time=0.004098358333333333
EXTRACT: pitchwheel channel=0 pitch=2788 time=0.004098358333333333
EXTRACT: pitchwheel channel=0 pitch=2867 time=0.004098358333333333
EXTRACT: pitchwheel channel=0 pitch=2947 time=0.004098358333333333
EXTRACT: pitchwheel channel=0 pitch=3027 time=0.004098358333333333
EXTRACT: pitchwheel channel=0 pitch=3106 time=0.004098358333333333
EXTRACT: pitchwheel channel=0 pitch=3186 time=0.004098358333333333
EXTRACT: pitchwheel channel=0 pitch=3266 time=0.004098358333333333
EXTRACT: pitchwheel channel=0 pitch=3345 time=0.004098358333333333
EXTRACT: pitchwheel channel=0 pitch=3425 time=0.004098358333333333
EXTRACT: pitchwheel channel=0 pitch=3505 time=0.004098358333333333
EXTRACT: pitchwheel channel=0 pitch=3584 time=0.004098358333333333
EXTRACT: pitchwheel channel=0 pitch=3664 time=0.004098358333333333
EXTRACT: pitchwheel channel=0 pitch=3744 time=0.004098358333333333
EXTRACT: pitchwheel channel=0 pitch=3823 time=0.004098358333333333
EXTRACT: pitchwheel channel=0 pitch=3903 time=0.004098358333333333
EXTRACT: pitchwheel channel=0 pitch=3983 time=0.004098358333333333
EXTRACT: pitchwheel channel=0 pitch=4062 time=0.004098358333333333
EXTRACT: pitchwheel channel=0 pitch=4142 time=0.004098358333333333
EXTRACT: pitchwheel channel=0 pitch=4221 time=0.004098358333333333
EXTRACT: pitchwheel channel=0 pitch=4301 time=0.004098358333333333
EXTRACT: pitchwheel channel=0 pitch=4381 time=0.004098358333333333
EXTRACT: pitchwheel channel=0 pitch=4460 time=0.004098358333333333
EXTRACT: pitchwheel channel=0 pitch=4540 time=0.004098358333333333
EXTRACT: pitchwheel channel=0 pitch=4620 time=0.004098358333333333
EXTRACT: note_on channel=9 note=36 velocity=120 time=0
EXTRACT: note_on channel=9 note=42 velocity=67 time=0
EXTRACT: pitchwheel channel=0 pitch=4699 time=0.004098358333333333
EXTRACT: pitchwheel channel=0 pitch=4779 time=0.004098358333333333
EXTRACT: note_on channel=9 note=36 velocity=0 time=0.032786866666666664
EXTRACT: note_on channel=9 note=42 velocity=0 time=0
EXTRACT: note_on channel=9 note=36 velocity=110 time=0.20491791666666664
EXTRACT: note_on channel=9 note=42 velocity=43 time=0
EXTRACT: note_on channel=9 note=36 velocity=0 time=0.04098358333333333
EXTRACT: note_on channel=9 note=42 velocity=0 time=0
EXTRACT: note_on channel=9 note=40 velocity=127 time=0.20491791666666664
EXTRACT: note_on channel=9 note=42 velocity=62 time=0
EXTRACT: note_on channel=9 note=40 velocity=0 time=0.04098358333333333
EXTRACT: note_on channel=9 note=42 velocity=0 time=0
EXTRACT: note_on channel=9 note=42 velocity=43 time=0.20491791666666664
EXTRACT: note_on channel=5 note=64 velocity=0 time=0.0020491791666666665
EXTRACT: note_on channel=5 note=60 velocity=112 time=0.004098358333333333
EXTRACT: note_on channel=9 note=42 velocity=0 time=0.03483604583333333
EXTRACT: note_on channel=9 note=42 velocity=60 time=0.20491791666666664
EXTRACT: note_on channel=9 note=36 velocity=120 time=0
EXTRACT: note_on channel=5 note=60 velocity=0 time=0.0020491791666666665
EXTRACT: note_on channel=5 note=67 velocity=86 time=0.004098358333333333
EXTRACT: note_on channel=0 note=36 velocity=0 time=0.0020491791666666665
EXTRACT: pitchwheel channel=0 pitch=0 time=0
EXTRACT: note_on channel=0 note=36 velocity=100 time=0
EXTRACT: note_on channel=9 note=42 velocity=0 time=0.032786866666666664
EXTRACT: note_on channel=9 note=36 velocity=0 time=0
EXTRACT: note_on channel=9 note=36 velocity=120 time=0.20491791666666664
EXTRACT: note_on channel=9 note=42 velocity=42 time=0
EXTRACT: note_on channel=0 note=36 velocity=0 time=0.008196716666666666
EXTRACT: note_on channel=9 note=36 velocity=0 time=0.032786866666666664
EXTRACT: note_on channel=9 note=42 velocity=0 time=0
EXTRACT: note_on channel=9 note=40 velocity=127 time=0.20491791666666664
EXTRACT: note_on channel=9 note=42 velocity=68 time=0
EXTRACT: note_on channel=5 note=67 velocity=0 time=0.0020491791666666665
EXTRACT: note_on channel=5 note=65 velocity=107 time=0.004098358333333333
EXTRACT: note_on channel=9 note=40 velocity=0 time=0.03483604583333333
EXTRACT: note_on channel=9 note=42 velocity=0 time=0
EXTRACT: note_on channel=9 note=42 velocity=69 time=0.20491791666666664
EXTRACT: note_on channel=5 note=65 velocity=0 time=0.0020491791666666665
EXTRACT: note_on channel=5 note=60 velocity=88 time=0.004098358333333333
EXTRACT: note_on channel=0 note=28 velocity=106 time=0.0020491791666666665
EXTRACT: note_on channel=9 note=42 velocity=0 time=0.032786866666666664
EXTRACT: note_on channel=0 note=28 velocity=0 time=0.09016388333333333
EXTRACT: note_on channel=9 note=36 velocity=120 time=0.11475403333333332
EXTRACT: note_on channel=9 note=42 velocity=57 time=0
EXTRACT: note_on channel=0 note=28 velocity=112 time=0.008196716666666666
EXTRACT: note_on channel=9 note=36 velocity=0 time=0.032786866666666664
EXTRACT: note_on channel=9 note=42 velocity=0 time=0
EXTRACT: note_on channel=0 note=28 velocity=0 time=0.09016388333333333
EXTRACT: note_on channel=9 note=36 velocity=110 time=0.11475403333333332
EXTRACT: note_on channel=9 note=42 velocity=42 time=0
EXTRACT: note_on channel=5 note=60 velocity=0 time=0.0020491791666666665
EXTRACT: note_on channel=5 note=62 velocity=98 time=0.004098358333333333
EXTRACT: note_on channel=0 note=29 velocity=114 time=0.0020491791666666665
EXTRACT: note_on channel=9 note=36 velocity=0 time=0.032786866666666664
EXTRACT: note_on channel=9 note=42 velocity=0 time=0
EXTRACT: note_on channel=0 note=29 velocity=0 time=0.09016388333333333
EXTRACT: note_on channel=9 note=40 velocity=127 time=0.11475403333333332
EXTRACT: note_on channel=9 note=42 velocity=55 time=0
EXTRACT: note_on channel=5 note=62 velocity=0 time=0.0020491791666666665
EXTRACT: note_on channel=5 note=64 velocity=99 time=0.004098358333333333
EXTRACT: note_on channel=0 note=31 velocity=123 time=0.0020491791666666665
EXTRACT: note_on channel=9 note=40 velocity=0 time=0.032786866666666664
EXTRACT: note_on channel=9 note=42 velocity=0 time=0
EXTRACT: note_on channel=9 note=42 velocity=47 time=0.20491791666666664
EXTRACT: note_on channel=0 note=31 velocity=0 time=0.008196716666666666
EXTRACT: note_on channel=9 note=42 velocity=0 time=0.032786866666666664
EXTRACT: note_on channel=3 note=57 velocity=0 time=0.20491791666666664
EXTRACT: note_on channel=3 note=60 velocity=0 time=0
EXTRACT: note_on channel=3 note=65 velocity=0 time=0
EXTRACT: note_on channel=9 note=42 velocity=58 time=0
EXTRACT: note_on channel=9 note=36 velocity=120 time=0
EXTRACT: note_on channel=0 note=36 velocity=118 time=0.008196716666666666
EXTRACT: note_on channel=3 note=48 velocity=0 time=0
EXTRACT: note_on channel=3 note=55 velocity=0 time=0
EXTRACT: note_on channel=3 note=59 velocity=0 time=0
EXTRACT: note_on channel=3 note=64 velocity=0 time=0
EXTRACT: note_on channel=3 note=57 velocity=108 time=0
EXTRACT: note_on channel=3 note=60 velocity=119 time=0
EXTRACT: note_on channel=3 note=65 velocity=104 time=0
EXTRACT: note_on channel=9 note=42 velocity=0 time=0.032786866666666664
EXTRACT: note_on channel=9 note=36 velocity=0 time=0
EXTRACT: note_on channel=9 note=36 velocity=120 time=0.20491791666666664
EXTRACT: note_on channel=9 note=42 velocity=49 time=0
EXTRACT: note_on channel=9 note=36 velocity=0 time=0.04098358333333333
EXTRACT: note_on channel=9 note=42 velocity=0 time=0
EXTRACT: note_on channel=9 note=40 velocity=127 time=0.20491791666666664
EXTRACT: note_on channel=9 note=42 velocity=66 time=0
EXTRACT: note_on channel=9 note=40 velocity=0 time=0.04098358333333333
EXTRACT: note_on channel=9 note=42 velocity=0 time=0
EXTRACT: note_on channel=9 note=42 velocity=57 time=0.20491791666666664
EXTRACT: note_on channel=9 note=42 velocity=0 time=0.04098358333333333
EXTRACT: note_on channel=9 note=36 velocity=120 time=0.20491791666666664
EXTRACT: note_on channel=9 note=42 velocity=68 time=0
EXTRACT: note_on channel=9 note=36 velocity=0 time=0.04098358333333333
EXTRACT: note_on channel=9 note=42 velocity=0 time=0
EXTRACT: note_on channel=9 note=36 velocity=110 time=0.20491791666666664
EXTRACT: note_on channel=9 note=42 velocity=43 time=0
EXTRACT: note_on channel=9 note=36 velocity=0 time=0.04098358333333333
EXTRACT: note_on channel=9 note=42 velocity=0 time=0
EXTRACT: note_on channel=9 note=40 velocity=127 time=0.20491791666666664
EXTRACT: note_on channel=9 note=42 velocity=54 time=0
EXTRACT: note_on channel=9 note=40 velocity=0 time=0.04098358333333333
EXTRACT: note_on channel=9 note=42 velocity=0 time=0
EXTRACT: note_on channel=9 note=42 velocity=44 time=0.20491791666666664
EXTRACT: note_on channel=5 note=64 velocity=0 time=0.0020491791666666665
EXTRACT: note_on channel=5 note=60 velocity=89 time=0.004098358333333333
EXTRACT: note_on channel=9 note=42 velocity=0 time=0.03483604583333333
EXTRACT: note_on channel=9 note=42 velocity=65 time=0.20491791666666664
EXTRACT: note_on channel=9 note=36 velocity=120 time=0
EXTRACT: note_on channel=5 note=60 velocity=0 time=0.0020491791666666665
EXTRACT: note_on channel=5 note=67 velocity=111 time=0.004098358333333333
EXTRACT: note_on channel=9 note=42 velocity=0 time=0.03483604583333333
EXTRACT: note_on channel=9 note=36 velocity=0 time=0
EXTRACT: note_on channel=9 note=36 velocity=120 time=0.20491791666666664
EXTRACT: note_on channel=9 note=42 velocity=47 time=0
EXTRACT: note_on channel=9 note=36 velocity=0 time=0.04098358333333333
EXTRACT: note_on channel=9 note=42 velocity=0 time=0
EXTRACT: note_on channel=9 note=40 velocity=127 time=0.20491791666666664
EXTRACT: note_on channel=9 note=42 velocity=59 time=0
EXTRACT: note_on channel=5 note=67 velocity=0 time=0.0020491791666666665
EXTRACT: note_on channel=5 note=65 velocity=93 time=0.004098358333333333
EXTRACT: note_on channel=0 note=36 velocity=0 time=0.0020491791666666665
EXTRACT: note_on channel=9 note=40 velocity=0 time=0.032786866666666664
EXTRACT: note_on channel=9 note=42 velocity=0 time=0
EXTRACT: note_on channel=9 note=42 velocity=59 time=0.20491791666666664
EXTRACT: note_on channel=5 note=65 velocity=0 time=0.0020491791666666665
EXTRACT: note_on channel=5 note=65 velocity=105 time=0.004098358333333333
EXTRACT: note_on channel=0 note=28 velocity=114 time=0.0020491791666666665
EXTRACT: note_on channel=9 note=42 velocity=0 time=0.032786866666666664
EXTRACT: note_on channel=0 note=28 velocity=0 time=0.09016388333333333
EXTRACT: note_on channel=9 note=36 velocity=120 time=0.11475403333333332
EXTRACT: note_on channel=9 note=42 velocity=60 time=0
EXTRACT: note_on channel=0 note=28 velocity=110 time=0.008196716666666666
EXTRACT: note_on channel=9 note=36 velocity=0 time=0.032786866666666664
EXTRACT: note_on channel=9 note=42 velocity=0 time=0
EXTRACT: note_on channel=0 note=28 velocity=0 time=0.09016388333333333
EXTRACT: note_on channel=9 note=36 velocity=110 time=0.11475403333333332
EXTRACT: note_on channel=9 note=42 velocity=42 time=0
EXTRACT: note_on channel=5 note=65 velocity=0 time=0.0020491791666666665
EXTRACT: note_on channel=5 note=65 velocity=95 time=0.004098358333333333
EXTRACT: note_on channel=0 note=29 velocity=103 time=0.0020491791666666665
EXTRACT: note_on channel=9 note=36 velocity=0 time=0.032786866666666664
EXTRACT: note_on channel=9 note=42 velocity=0 time=0
EXTRACT: note_on channel=0 note=29 velocity=0 time=0.09016388333333333
EXTRACT: note_on channel=9 note=40 velocity=127 time=0.11475403333333332
EXTRACT: note_on channel=9 note=42 velocity=57 time=0
EXTRACT: note_on channel=5 note=65 velocity=0 time=0.0020491791666666665
EXTRACT: note_on channel=5 note=64 velocity=109 time=0.004098358333333333
EXTRACT: note_on channel=0 note=31 velocity=113 time=0.0020491791666666665
EXTRACT: note_on channel=9 note=40 velocity=0 time=0.032786866666666664
EXTRACT: note_on channel=9 note=42 velocity=0 time=0
EXTRACT: note_on channel=9 note=42 velocity=41 time=0.20491791666666664
EXTRACT: note_on channel=0 note=31 velocity=0 time=0.008196716666666666
EXTRACT: note_on channel=9 note=42 velocity=0 time=0.032786866666666664
EXTRACT: note_on channel=9 note=42 velocity=60 time=0.20491791666666664
EXTRACT: note_on channel=9 note=36 velocity=120 time=0
EXTRACT: note_on channel=0 note=36 velocity=127 time=0.008196716666666666
EXTRACT: note_on channel=3 note=48 velocity=100 time=0
EXTRACT: note_on channel=9 note=42 velocity=0 time=0.032786866666666664
EXTRACT: note_on channel=9 note=36 velocity=0 time=0
EXTRACT: note_on channel=3 note=55 velocity=118 time=0.008196716666666666
EXTRACT: note_on channel=3 note=59 velocity=95 time=0.04098358333333333
EXTRACT: note_on channel=3 note=64 velocity=127 time=0.04098358333333333
EXTRACT: note_on channel=9 note=36 velocity=120 time=0.11475403333333332
EXTRACT: note_on channel=9 note=42 velocity=47 time=0
EXTRACT: note_on channel=9 note=36 velocity=0 time=0.04098358333333333
EXTRACT: note_on channel=9 note=42 velocity=0 time=0
EXTRACT: note_on channel=9 note=40 velocity=127 time=0.20491791666666664
EXTRACT: note_on channel=9 note=42 velocity=57 time=0
EXTRACT: note_on channel=9 note=40 velocity=0 time=0.04098358333333333
EXTRACT: note_on channel=9 note=42 velocity=0 time=0
EXTRACT: note_on channel=9 note=42 velocity=69 time=0.20491791666666664
EXTRACT: note_on channel=9 note=42 velocity=0 time=0.04098358333333333
EXTRACT: note_on channel=9 note=36 velocity=120 time=0.20491791666666664
EXTRACT: note_on channel=9 note=42 velocity=64 time=0
EXTRACT: note_on channel=9 note=36 velocity=0 time=0.04098358333333333
EXTRACT: note_on channel=9 note=42 velocity=0 time=0
EXTRACT: note_on channel=9 note=36 velocity=110 time=0.20491791666666664
EXTRACT: note_on channel=9 note=42 velocity=45 time=0
EXTRACT: note_on channel=9 note=36 velocity=0 time=0.04098358333333333
EXTRACT: note_on channel=9 note=42 velocity=0 time=0
EXTRACT: note_on channel=9 note=40 velocity=127 time=0.20491791666666664
EXTRACT: note_on channel=9 note=42 velocity=58 time=0
EXTRACT: note_on channel=9 note=40 velocity=0 time=0.04098358333333333
EXTRACT: note_on channel=9 note=42 velocity=0 time=0
EXTRACT: note_on channel=9 note=42 velocity=42 time=0.20491791666666664
EXTRACT: note_on channel=5 note=64 velocity=0 time=0.0020491791666666665
EXTRACT: note_on channel=5 note=60 velocity=112 time=0.004098358333333333
EXTRACT: note_on channel=9 note=42 velocity=0 time=0.03483604583333333
EXTRACT: note_on channel=9 note=42 velocity=68 time=0.20491791666666664
EXTRACT: note_on channel=9 note=36 velocity=120 time=0
EXTRACT: note_on channel=5 note=60 velocity=0 time=0.0020491791666666665
EXTRACT: note_on channel=5 note=67 velocity=113 time=0.004098358333333333
EXTRACT: note_on channel=9 note=42 velocity=0 time=0.03483604583333333
EXTRACT: note_on channel=9 note=36 velocity=0 time=0
EXTRACT: note_on channel=9 note=36 velocity=120 time=0.20491791666666664
EXTRACT: note_on channel=9 note=42 velocity=50 time=0
EXTRACT: note_on channel=9 note=36 velocity=0 time=0.04098358333333333
EXTRACT: note_on channel=9 note=42 velocity=0 time=0
EXTRACT: note_on channel=9 note=40 velocity=127 time=0.20491791666666664
EXTRACT: note_on channel=9 note=42 velocity=65 time=0
EXTRACT: note_on channel=5 note=67 velocity=0 time=0.0020491791666666665
EXTRACT: note_on channel=5 note=65 velocity=94 time=0.004098358333333333
EXTRACT: note_on channel=0 note=36 velocity=0 time=0.0020491791666666665
EXTRACT: note_on channel=9 note=40 velocity=0 time=0.032786866666666664
EXTRACT: note_on channel=9 note=42 velocity=0 time=0
EXTRACT: note_on channel=9 note=42 velocity=64 time=0.20491791666666664
EXTRACT: note_on channel=5 note=65 velocity=0 time=0.0020491791666666665
EXTRACT: note_on channel=5 note=65 velocity=101 time=0.004098358333333333
EXTRACT: note_on channel=0 note=28 velocity=114 time=0.0020491791666666665
EXTRACT: note_on channel=9 note=42 velocity=0 time=0.032786866666666664
EXTRACT: note_on channel=0 note=28 velocity=0 time=0.09016388333333333
EXTRACT: note_on channel=9 note=36 velocity=120 time=0.11475403333333332
EXTRACT: note_on channel=9 note=42 velocity=65 time=0
EXTRACT: note_on channel=0 note=28 velocity=116 time=0.008196716666666666
EXTRACT: note_on channel=9 note=36 velocity=0 time=0.032786866666666664
EXTRACT: note_on channel=9 note=42 velocity=0 time=0
EXTRACT: note_on channel=0 note=28 velocity=0 time=0.09016388333333333
EXTRACT: note_on channel=9 note=36 velocity=110 time=0.11475403333333332
EXTRACT: note_on channel=9 note=42 velocity=41 time=0
EXTRACT: note_on channel=5 note=65 velocity=0 time=0.0020491791666666665
EXTRACT: note_on channel=5 note=65 velocity=115 time=0.004098358333333333
EXTRACT: note_on channel=0 note=29 velocity=105 time=0.0020491791666666665
EXTRACT: note_on channel=9 note=36 velocity=0 time=0.032786866666666664
EXTRACT: note_on channel=9 note=42 velocity=0 time=0
EXTRACT: note_on channel=0 note=29 velocity=0 time=0.09016388333333333
EXTRACT: note_on channel=9 note=40 velocity=127 time=0.11475403333333332
EXTRACT: note_on channel=9 note=42 velocity=61 time=0
EXTRACT: note_on channel=5 note=65 velocity=0 time=0.0020491791666666665
EXTRACT: note_on channel=5 note=64 velocity=109 time=0.004098358333333333
EXTRACT: note_on channel=0 note=31 velocity=107 time=0.0020491791666666665
EXTRACT: note_on channel=9 note=40 velocity=0 time=0.032786866666666664
EXTRACT: note_on channel=9 note=42 velocity=0 time=0
EXTRACT: note_on channel=9 note=42 velocity=46 time=0.20491791666666664
EXTRACT: note_on channel=0 note=31 velocity=0 time=0.008196716666666666
EXTRACT: note_on channel=9 note=42 velocity=0 time=0.032786866666666664
EXTRACT: note_on channel=3 note=57 velocity=0 time=0.20491791666666664
EXTRACT: note_on channel=3 note=60 velocity=0 time=0
EXTRACT: note_on channel=3 note=65 velocity=0 time=0
EXTRACT: note_on channel=9 note=42 velocity=65 time=0
EXTRACT: note_on channel=9 note=36 velocity=120 time=0
EXTRACT: note_on channel=0 note=36 velocity=113 time=0.008196716666666666
EXTRACT: note_on channel=3 note=48 velocity=0 time=0
EXTRACT: note_on channel=3 note=55 velocity=0 time=0
EXTRACT: note_on channel=3 note=59 velocity=0 time=0
EXTRACT: note_on channel=3 note=64 velocity=0 time=0
EXTRACT: note_on channel=3 note=48 velocity=119 time=0
EXTRACT: note_on channel=9 note=42 velocity=0 time=0.032786866666666664
EXTRACT: note_on channel=9 note=36 velocity=0 time=0
EXTRACT: note_on channel=3 note=55 velocity=97 time=0.008196716666666666
EXTRACT: note_on channel=3 note=59 velocity=120 time=0.04098358333333333
EXTRACT: note_on channel=3 note=64 velocity=122 time=0.04098358333333333
EXTRACT: note_on channel=9 note=36 velocity=120 time=0.11475403333333332
EXTRACT: note_on channel=9 note=42 velocity=47 time=0
EXTRACT: note_on channel=9 note=36 velocity=0 time=0.04098358333333333
EXTRACT: note_on channel=9 note=42 velocity=0 time=0
EXTRACT: note_on channel=9 note=40 velocity=127 time=0.20491791666666664
EXTRACT: note_on channel=9 note=42 velocity=59 time=0
EXTRACT: note_on channel=9 note=40 velocity=0 time=0.04098358333333333
EXTRACT: note_on channel=9 note=42 velocity=0 time=0
EXTRACT: note_on channel=9 note=42 velocity=57 time=0.20491791666666664
EXTRACT: note_on channel=9 note=42 velocity=0 time=0.04098358333333333
EXTRACT: note_on channel=9 note=36 velocity=120 time=0.20491791666666664
EXTRACT: note_on channel=9 note=42 velocity=60 time=0
EXTRACT: note_on channel=9 note=36 velocity=0 time=0.04098358333333333
EXTRACT: note_on channel=9 note=42 velocity=0 time=0
EXTRACT: note_on channel=9 note=36 velocity=110 time=0.20491791666666664
EXTRACT: note_on channel=9 note=42 velocity=49 time=0
EXTRACT: note_on channel=9 note=36 velocity=0 time=0.04098358333333333
EXTRACT: note_on channel=9 note=42 velocity=0 time=0
EXTRACT: note_on channel=9 note=40 velocity=127 time=0.20491791666666664
EXTRACT: note_on channel=9 note=42 velocity=62 time=0
EXTRACT: note_on channel=9 note=40 velocity=0 time=0.04098358333333333
EXTRACT: note_on channel=9 note=42 velocity=0 time=0
EXTRACT: note_on channel=9 note=42 velocity=47 time=0.20491791666666664
EXTRACT: note_on channel=5 note=64 velocity=0 time=0.0020491791666666665
EXTRACT: note_on channel=5 note=60 velocity=85 time=0.004098358333333333
EXTRACT: note_on channel=9 note=42 velocity=0 time=0.03483604583333333
EXTRACT: note_on channel=9 note=42 velocity=57 time=0.20491791666666664
EXTRACT: note_on channel=9 note=36 velocity=120 time=0
EXTRACT: note_on channel=5 note=60 velocity=0 time=0.0020491791666666665
EXTRACT: note_on channel=5 note=67 velocity=89 time=0.004098358333333333
EXTRACT: note_on channel=9 note=42 velocity=0 time=0.03483604583333333
EXTRACT: note_on channel=9 note=36 velocity=0 time=0
EXTRACT: note_on channel=9 note=36 velocity=120 time=0.20491791666666664
EXTRACT: note_on channel=9 note=42 velocity=41 time=0
EXTRACT: note_on channel=9 note=36 velocity=0 time=0.04098358333333333
EXTRACT: note_on channel=9 note=42 velocity=0 time=0
EXTRACT: note_on channel=9 note=40 velocity=127 time=0.20491791666666664
EXTRACT: note_on channel=9 note=42 velocity=62 time=0
EXTRACT: note_on channel=5 note=67 velocity=0 time=0.0020491791666666665
EXTRACT: note_on channel=5 note=65 velocity=112 time=0.004098358333333333
EXTRACT: note_on channel=0 note=36 velocity=0 time=0.0020491791666666665
EXTRACT: note_on channel=9 note=40 velocity=0 time=0.032786866666666664
EXTRACT: note_on channel=9 note=42 velocity=0 time=0
EXTRACT: note_on channel=9 note=42 velocity=68 time=0.20491791666666664
EXTRACT: note_on channel=5 note=65 velocity=0 time=0.0020491791666666665
EXTRACT: note_on channel=5 note=65 velocity=104 time=0.004098358333333333
EXTRACT: note_on channel=0 note=28 velocity=107 time=0.0020491791666666665
EXTRACT: note_on channel=9 note=42 velocity=0 time=0.032786866666666664
EXTRACT: note_on channel=0 note=28 velocity=0 time=0.09016388333333333
EXTRACT: note_on channel=9 note=36 velocity=120 time=0.11475403333333332
EXTRACT: note_on channel=9 note=42 velocity=68 time=0
EXTRACT: note_on channel=0 note=28 velocity=114 time=0.008196716666666666
EXTRACT: note_on channel=9 note=36 velocity=0 time=0.032786866666666664
EXTRACT: note_on channel=9 note=42 velocity=0 time=0
EXTRACT: note_on channel=0 note=28 velocity=0 time=0.09016388333333333
EXTRACT: note_on channel=9 note=36 velocity=110 time=0.11475403333333332
EXTRACT: note_on channel=9 note=42 velocity=44 time=0
EXTRACT: note_on channel=5 note=65 velocity=0 time=0.0020491791666666665
EXTRACT: note_on channel=5 note=65 velocity=93 time=0.004098358333333333
EXTRACT: note_on channel=0 note=29 velocity=104 time=0.0020491791666666665
EXTRACT: note_on channel=9 note=36 velocity=0 time=0.032786866666666664
EXTRACT: note_on channel=9 note=42 velocity=0 time=0
EXTRACT: note_on channel=0 note=29 velocity=0 time=0.09016388333333333
EXTRACT: note_on channel=9 note=40 velocity=127 time=0.11475403333333332
EXTRACT: note_on channel=9 note=42 velocity=57 time=0
EXTRACT: note_on channel=5 note=65 velocity=0 time=0.0020491791666666665
EXTRACT: note_on channel=5 note=64 velocity=110 time=0.004098358333333333
EXTRACT: note_on channel=0 note=31 velocity=126 time=0.0020491791666666665
EXTRACT: note_on channel=9 note=40 velocity=0 time=0.032786866666666664
EXTRACT: note_on channel=9 note=42 velocity=0 time=0
EXTRACT: note_on channel=9 note=42 velocity=44 time=0.20491791666666664
EXTRACT: note_on channel=0 note=31 velocity=0 time=0.008196716666666666
EXTRACT: note_on channel=9 note=42 velocity=0 time=0.032786866666666664
EXTRACT: note_on channel=9 note=42 velocity=65 time=0.20491791666666664
EXTRACT: note_on channel=9 note=36 velocity=120 time=0
EXTRACT: note_on channel=0 note=36 velocity=113 time=0.008196716666666666
EXTRACT: note_on channel=3 note=48 velocity=0 time=0
EXTRACT: note_on channel=3 note=59 velocity=0 time=0
EXTRACT: note_on channel=3 note=64 velocity=0 time=0
EXTRACT: note_on channel=3 note=48 velocity=103 time=0
EXTRACT: note_on channel=9 note=42 velocity=0 time=0.032786866666666664
EXTRACT: note_on channel=9 note=36 velocity=0 time=0
EXTRACT: note_on channel=3 note=55 velocity=0 time=0.008196716666666666
EXTRACT: note_on channel=3 note=55 velocity=105 time=0
EXTRACT: note_on channel=3 note=59 velocity=122 time=0.04098358333333333
EXTRACT: note_on channel=3 note=64 velocity=111 time=0.04098358333333333
EXTRACT: note_on channel=9 note=36 velocity=120 time=0.11475403333333332
EXTRACT: note_on channel=9 note=42 velocity=44 time=0
EXTRACT: note_on channel=9 note=36 velocity=0 time=0.04098358333333333
EXTRACT: note_on channel=9 note=42 velocity=0 time=0
EXTRACT: note_on channel=9 note=40 velocity=127 time=0.20491791666666664
EXTRACT: note_on channel=9 note=42 velocity=59 time=0
EXTRACT: note_on channel=9 note=40 velocity=0 time=0.04098358333333333
EXTRACT: note_on channel=9 note=42 velocity=0 time=0
EXTRACT: note_on channel=9 note=42 velocity=69 time=0.20491791666666664
EXTRACT: note_on channel=9 note=42 velocity=0 time=0.04098358333333333
EXTRACT: note_on channel=9 note=36 velocity=120 time=0.20491791666666664
EXTRACT: note_on channel=9 note=42 velocity=58 time=0
EXTRACT: note_on channel=9 note=36 velocity=0 time=0.04098358333333333
EXTRACT: note_on channel=9 note=42 velocity=0 time=0
EXTRACT: note_on channel=9 note=36 velocity=110 time=0.20491791666666664
EXTRACT: note_on channel=9 note=42 velocity=48 time=0
EXTRACT: note_on channel=9 note=36 velocity=0 time=0.04098358333333333
EXTRACT: note_on channel=9 note=42 velocity=0 time=0
EXTRACT: note_on channel=9 note=40 velocity=127 time=0.20491791666666664
EXTRACT: note_on channel=9 note=42 velocity=65 time=0
EXTRACT: note_on channel=9 note=40 velocity=0 time=0.04098358333333333
EXTRACT: note_on channel=9 note=42 velocity=0 time=0
EXTRACT: note_on channel=9 note=42 velocity=41 time=0.20491791666666664
EXTRACT: note_on channel=5 note=64 velocity=0 time=0.0020491791666666665
EXTRACT: note_on channel=5 note=60 velocity=93 time=0.004098358333333333
EXTRACT: note_on channel=9 note=42 velocity=0 time=0.03483604583333333
EXTRACT: note_on channel=9 note=42 velocity=59 time=0.20491791666666664
EXTRACT: note_on channel=9 note=36 velocity=120 time=0
EXTRACT: note_on channel=5 note=60 velocity=0 time=0.0020491791666666665
EXTRACT: note_on channel=5 note=67 velocity=88 time=0.004098358333333333
EXTRACT: note_on channel=9 note=42 velocity=0 time=0.03483604583333333
EXTRACT: note_on channel=9 note=36 velocity=0 time=0
EXTRACT: note_on channel=9 note=36 velocity=120 time=0.20491791666666664
EXTRACT: note_on channel=9 note=42 velocity=41 time=0
EXTRACT: note_on channel=9 note=36 velocity=0 time=0.04098358333333333
EXTRACT: note_on channel=9 note=42 velocity=0 time=0
EXTRACT: note_on channel=9 note=40 velocity=127 time=0.20491791666666664
EXTRACT: note_on channel=9 note=42 velocity=69 time=0
EXTRACT: note_on channel=5 note=67 velocity=0 time=0.0020491791666666665
EXTRACT: note_on channel=5 note=65 velocity=115 time=0.004098358333333333
EXTRACT: note_on channel=0 note=36 velocity=0 time=0.0020491791666666665
EXTRACT: note_on channel=9 note=40 velocity=0 time=0.032786866666666664
EXTRACT: note_on channel=9 note=42 velocity=0 time=0
EXTRACT: note_on channel=9 note=42 velocity=61 time=0.20491791666666664
EXTRACT: note_on channel=5 note=65 velocity=0 time=0.0020491791666666665
EXTRACT: note_on channel=5 note=65 velocity=102 time=0.004098358333333333
EXTRACT: note_on channel=0 note=28 velocity=109 time=0.0020491791666666665
EXTRACT: note_on channel=9 note=42 velocity=0 time=0.032786866666666664
EXTRACT: note_on channel=0 note=28 velocity=0 time=0.09016388333333333
EXTRACT: note_on channel=9 note=36 velocity=120 time=0.11475403333333332
EXTRACT: note_on channel=9 note=42 velocity=67 time=0
EXTRACT: note_on channel=0 note=28 velocity=113 time=0.008196716666666666
EXTRACT: note_on channel=9 note=36 velocity=0 time=0.032786866666666664
EXTRACT: note_on channel=9 note=42 velocity=0 time=0
EXTRACT: note_on channel=0 note=28 velocity=0 time=0.09016388333333333
EXTRACT: note_on channel=9 note=36 velocity=110 time=0.11475403333333332
EXTRACT: note_on channel=9 note=42 velocity=41 time=0
EXTRACT: note_on channel=5 note=65 velocity=0 time=0.0020491791666666665
EXTRACT: note_on channel=5 note=65 velocity=115 time=0.004098358333333333
EXTRACT: note_on channel=0 note=29 velocity=104 time=0.0020491791666666665
EXTRACT: note_on channel=9 note=36 velocity=0 time=0.032786866666666664
EXTRACT: note_on channel=9 note=42 velocity=0 time=0
EXTRACT: note_on channel=0 note=29 velocity=0 time=0.09016388333333333
EXTRACT: note_on channel=9 note=40 velocity=127 time=0.11475403333333332
EXTRACT: note_on channel=9 note=42 velocity=54 time=0
EXTRACT: note_on channel=5 note=65 velocity=0 time=0.0020491791666666665
EXTRACT: note_on channel=5 note=64 velocity=88 time=0.004098358333333333
EXTRACT: note_on channel=0 note=31 velocity=111 time=0.0020491791666666665
EXTRACT: note_on channel=9 note=40 velocity=0 time=0.032786866666666664
EXTRACT: note_on channel=9 note=42 velocity=0 time=0
EXTRACT: note_on channel=9 note=42 velocity=41 time=0.20491791666666664
EXTRACT: note_on channel=0 note=31 velocity=0 time=0.008196716666666666
EXTRACT: note_on channel=9 note=42 velocity=0 time=0.032786866666666664
EXTRACT: note_on channel=9 note=49 velocity=100 time=0.20491791666666664
EXTRACT: note_on channel=9 note=36 velocity=120 time=0
EXTRACT: note_on channel=0 note=36 velocity=111 time=0.008196716666666666
EXTRACT: note_on channel=3 note=48 velocity=0 time=0
EXTRACT: note_on channel=3 note=55 velocity=0 time=0
EXTRACT: note_on channel=3 note=59 velocity=0 time=0
EXTRACT: note_on channel=3 note=64 velocity=0 time=0
EXTRACT: note_on channel=3 note=48 velocity=119 time=0
EXTRACT: note_on channel=9 note=49 velocity=0 time=0.032786866666666664
EXTRACT: note_on channel=9 note=36 velocity=0 time=0
EXTRACT: note_on channel=3 note=55 velocity=99 time=0.008196716666666666
EXTRACT: note_on channel=3 note=59 velocity=96 time=0.04098358333333333
EXTRACT: note_on channel=3 note=64 velocity=111 time=0.04098358333333333
EXTRACT: note_on channel=5 note=64 velocity=0 time=3.317621070833333
EXTRACT: note_on channel=0 note=36 velocity=0 time=0.0020491791666666665
EXTRACT: note_on channel=3 note=48 velocity=0 time=0.491803
EXTRACT: note_on channel=3 note=55 velocity=0 time=0
EXTRACT: note_on channel=3 note=59 velocity=0 time=0
EXTRACT: note_on channel=3 note=64 velocity=0 time=0
INTERVALS63 - SimpleKindOfLife.mid
unison789
2m21
2M61
3m31
3M76
4m28
4M0
5m28
5M15
6m3
7m5
7M9