EXTRACT: program_change channel=0 program=65 time=0
EXTRACT: control_change channel=0 control=7 value=85 time=0
EXTRACT: program_change channel=1 program=27 time=0
EXTRACT: control_change channel=1 control=7 value=105 time=0
EXTRACT: program_change channel=2 program=74 time=0
EXTRACT: control_change channel=2 control=7 value=90 time=0
EXTRACT: program_change channel=3 program=112 time=0
EXTRACT: control_change channel=3 control=7 value=80 time=0
EXTRACT: program_change channel=4 program=9 time=0
EXTRACT: control_change channel=4 control=7 value=60 time=0
EXTRACT: program_change channel=5 program=65 time=0
EXTRACT: control_change channel=5 control=7 value=75 time=0
EXTRACT: program_change channel=6 program=35 time=0
EXTRACT: control_change channel=6 control=7 value=80 time=0
EXTRACT: program_change channel=7 program=36 time=0
EXTRACT: control_change channel=7 control=7 value=95 time=0
EXTRACT: control_change channel=9 control=0 value=127 time=0
EXTRACT: control_change channel=9 control=32 value=0 time=0
EXTRACT: program_change channel=9 program=25 time=0
EXTRACT: control_change channel=9 control=7 value=115 time=0
EXTRACT: note_on channel=9 note=85 velocity=104 time=1.3043475
EXTRACT: note_on channel=9 note=39 velocity=53 time=0
EXTRACT: note_on channel=9 note=39 velocity=0 time=0.0774456328125
EXTRACT: note_on channel=9 note=85 velocity=0 time=0.01630434375
EXTRACT: note_on channel=9 note=39 velocity=94 time=0.16711952343749997
EXTRACT: note_on channel=9 note=39 velocity=0 time=0.0692934609375
EXTRACT: note_on channel=6 note=58 velocity=104 time=0.45244553906249996
EXTRACT: note_on channel=6 note=55 velocity=94 time=0
EXTRACT: note_on channel=6 note=65 velocity=94 time=0
EXTRACT: note_on channel=6 note=62 velocity=94 time=0
EXTRACT: note_on channel=9 note=46 velocity=115 time=0
EXTRACT: note_on channel=9 note=36 velocity=110 time=0
EXTRACT: note_on channel=9 note=36 velocity=0 time=0.1290760546875
EXTRACT: control_change channel=6 control=64 value=127 time=0.065217375
EXTRACT: note_on channel=9 note=46 velocity=0 time=0.014945648437499999
EXTRACT: note_on channel=9 note=70 velocity=37 time=0.051630421875
EXTRACT: note_on channel=9 note=70 velocity=0 time=0.08967389062499999
EXTRACT: note_on channel=9 note=44 velocity=110 time=0.17119560937499997
EXTRACT: note_on channel=9 note=36 velocity=114 time=0
EXTRACT: note_on channel=9 note=39 velocity=94 time=0
EXTRACT: note_on channel=9 note=40 velocity=104 time=0
EXTRACT: control_change channel=6 control=64 value=0 time=0.06114128906249999
EXTRACT: control_change channel=6 control=64 value=127 time=0.006793476562499999
EXTRACT: note_on channel=6 note=55 velocity=0 time=0.0040760859375
EXTRACT: control_change channel=6 control=64 value=0 time=0.0013586953124999999
EXTRACT: note_on channel=6 note=58 velocity=0 time=0.006793476562499999
EXTRACT: note_on channel=6 note=65 velocity=0 time=0.006793476562499999
EXTRACT: note_on channel=6 note=62 velocity=0 time=0.0095108671875
EXTRACT: note_on channel=9 note=39 velocity=0 time=0.0095108671875
EXTRACT: note_on channel=9 note=36 velocity=0 time=0.01630434375
EXTRACT: note_on channel=9 note=40 velocity=0 time=0.033967382812499995
EXTRACT: note_on channel=9 note=44 velocity=0 time=0.023097820312499996
EXTRACT: note_on channel=6 note=65 velocity=94 time=0.08152171875
EXTRACT: note_on channel=6 note=55 velocity=79 time=0
EXTRACT: note_on channel=6 note=58 velocity=94 time=0
EXTRACT: note_on channel=6 note=62 velocity=104 time=0
EXTRACT: note_on channel=9 note=42 velocity=35 time=0
EXTRACT: control_change channel=6 control=64 value=127 time=0.07472824218749999
EXTRACT: note_on channel=9 note=42 velocity=0 time=0.01630434375
EXTRACT: note_on channel=9 note=44 velocity=110 time=0.16983691406249998
EXTRACT: note_on channel=9 note=36 velocity=114 time=0
EXTRACT: note_on channel=9 note=36 velocity=0 time=0.11277171093749999
EXTRACT: note_on channel=9 note=44 velocity=0 time=0.06385867968749999
EXTRACT: note_on channel=9 note=42 velocity=45 time=0.084239109375
EXTRACT: note_on channel=9 note=42 velocity=0 time=0.1290760546875
EXTRACT: note_on channel=9 note=44 velocity=110 time=0.13179344531249998
EXTRACT: note_on channel=9 note=36 velocity=114 time=0
EXTRACT: note_on channel=9 note=40 velocity=115 time=0
EXTRACT: note_on channel=9 note=39 velocity=94 time=0
EXTRACT: note_on channel=9 note=39 velocity=0 time=0.09782606249999999
EXTRACT: note_on channel=9 note=36 velocity=0 time=0.017663039062499997
EXTRACT: note_on channel=9 note=44 velocity=0 time=0.008152171875
EXTRACT: note_on channel=9 note=40 velocity=0 time=0.0013586953124999999
EXTRACT: note_on channel=9 note=42 velocity=53 time=0.13586953124999998
EXTRACT: note_on channel=6 note=62 velocity=0 time=0.095108671875
EXTRACT: note_on channel=6 note=65 velocity=0 time=0.006793476562499999
EXTRACT: note_on channel=6 note=58 velocity=0 time=0.014945648437499999
EXTRACT: note_on channel=9 note=42 velocity=0 time=0.0054347812499999995
EXTRACT: note_on channel=6 note=55 velocity=0 time=0.014945648437499999
EXTRACT: control_change channel=6 control=64 value=0 time=0.0095108671875
EXTRACT: control_change channel=6 control=64 value=127 time=0.006793476562499999
EXTRACT: control_change channel=6 control=64 value=0 time=0.0054347812499999995
EXTRACT: note_on channel=6 note=62 velocity=104 time=0.10190214843749999
EXTRACT: note_on channel=6 note=65 velocity=104 time=0
EXTRACT: note_on channel=6 note=57 velocity=94 time=0
EXTRACT: note_on channel=6 note=60 velocity=104 time=0
EXTRACT: note_on channel=9 note=36 velocity=114 time=0
EXTRACT: note_on channel=9 note=44 velocity=110 time=0
EXTRACT: note_on channel=9 note=36 velocity=0 time=0.12499996875
EXTRACT: control_change channel=6 control=64 value=127 time=0.013586953124999999
EXTRACT: note_on channel=9 note=44 velocity=0 time=0.054347812499999995
EXTRACT: note_on channel=9 note=42 velocity=53 time=0.06793476562499999
EXTRACT: note_on channel=9 note=42 velocity=0 time=0.1209238828125
EXTRACT: note_on channel=9 note=36 velocity=114 time=0.13994561718749998
EXTRACT: note_on channel=9 note=44 velocity=110 time=0
EXTRACT: note_on channel=9 note=39 velocity=94 time=0
EXTRACT: note_on channel=9 note=40 velocity=115 time=0
EXTRACT: note_on channel=9 note=36 velocity=0 time=0.10190214843749999
EXTRACT: note_on channel=9 note=39 velocity=0 time=0.0027173906249999998
EXTRACT: note_on channel=9 note=40 velocity=0 time=0.006793476562499999
EXTRACT: note_on channel=9 note=44 velocity=0 time=0.0883151953125
EXTRACT: note_on channel=9 note=42 velocity=33 time=0.06114128906249999
EXTRACT: note_on channel=9 note=42 velocity=0 time=0.1372282265625
EXTRACT: control_change channel=6 control=64 value=0 time=0.0054347812499999995
EXTRACT: note_on channel=6 note=57 velocity=0 time=0.0027173906249999998
EXTRACT: control_change channel=6 control=64 value=127 time=0.0027173906249999998
EXTRACT: note_on channel=6 note=65 velocity=0 time=0.0095108671875
EXTRACT: control_change channel=6 control=64 value=0 time=0.0013586953124999999
EXTRACT: note_on channel=6 note=62 velocity=0 time=0.006793476562499999
EXTRACT: note_on channel=6 note=60 velocity=0 time=0.008152171875
EXTRACT: note_on channel=6 note=57 velocity=86 time=0.08695649999999999
EXTRACT: note_on channel=6 note=60 velocity=94 time=0
EXTRACT: note_on channel=6 note=62 velocity=94 time=0
EXTRACT: note_on channel=6 note=65 velocity=94 time=0
EXTRACT: note_on channel=9 note=44 velocity=110 time=0
EXTRACT: note_on channel=9 note=36 velocity=115 time=0
EXTRACT: control_change channel=6 control=64 value=127 time=0.0774456328125
EXTRACT: note_on channel=9 note=36 velocity=0 time=0.014945648437499999
EXTRACT: note_on channel=9 note=44 velocity=0 time=0.09239128124999998
EXTRACT: note_on channel=9 note=42 velocity=33 time=0.0760869375
EXTRACT: note_on channel=9 note=85 velocity=104 time=0
EXTRACT: note_on channel=9 note=39 velocity=53 time=0
EXTRACT: note_on channel=9 note=85 velocity=0 time=0.0910325859375
EXTRACT: note_on channel=9 note=39 velocity=0 time=0.019021734375
EXTRACT: note_on channel=9 note=42 velocity=0 time=0.010869562499999999
EXTRACT: note_on channel=9 note=44 velocity=110 time=0.13994561718749998
EXTRACT: note_on channel=9 note=36 velocity=114 time=0
EXTRACT: note_on channel=9 note=39 velocity=104 time=0
EXTRACT: note_on channel=9 note=40 velocity=104 time=0
EXTRACT: note_on channel=9 note=39 velocity=0 time=0.0692934609375
EXTRACT: note_on channel=6 note=57 velocity=0 time=0.0040760859375
EXTRACT: note_on channel=9 note=36 velocity=0 time=0.029891296874999997
EXTRACT: note_on channel=9 note=40 velocity=0 time=0.0013586953124999999
EXTRACT: note_on channel=6 note=65 velocity=0 time=0.008152171875
EXTRACT: note_on channel=6 note=60 velocity=0 time=0.0054347812499999995
EXTRACT: note_on channel=6 note=62 velocity=0 time=0.010869562499999999
EXTRACT: note_on channel=9 note=44 velocity=0 time=0.033967382812499995
EXTRACT: note_on channel=9 note=42 velocity=33 time=0.09782606249999999
EXTRACT: note_on channel=9 note=42 velocity=0 time=0.1100543203125
EXTRACT: control_change channel=6 control=64 value=0 time=0.10733692968749999
EXTRACT: control_change channel=6 control=64 value=127 time=0.0013586953124999999
EXTRACT: control_change channel=6 control=64 value=0 time=0.006793476562499999
EXTRACT: note_on channel=6 note=69 velocity=104 time=0.03532607812499999
EXTRACT: note_on channel=6 note=60 velocity=94 time=0
EXTRACT: note_on channel=6 note=62 velocity=94 time=0
EXTRACT: note_on channel=9 note=46 velocity=115 time=0
EXTRACT: note_on channel=9 note=36 velocity=110 time=0
EXTRACT: note_on channel=9 note=36 velocity=0 time=0.1290760546875
EXTRACT: control_change channel=6 control=64 value=127 time=0.023097820312499996
EXTRACT: note_on channel=9 note=46 velocity=0 time=0.05706520312499999
EXTRACT: note_on channel=6 note=69 velocity=0 time=0.0013586953124999999
EXTRACT: note_on channel=6 note=67 velocity=73 time=0.050271726562499994
EXTRACT: note_on channel=9 note=70 velocity=37 time=0
EXTRACT: note_on channel=6 note=62 velocity=0 time=0.051630421875
EXTRACT: note_on channel=9 note=70 velocity=0 time=0.03804346875
EXTRACT: note_on channel=6 note=67 velocity=0 time=0.09646736718749999
EXTRACT: note_on channel=6 note=65 velocity=104 time=0.07472824218749999
EXTRACT: note_on channel=9 note=44 velocity=110 time=0
EXTRACT: note_on channel=9 note=36 velocity=114 time=0
EXTRACT: note_on channel=9 note=39 velocity=94 time=0
EXTRACT: note_on channel=9 note=40 velocity=104 time=0
EXTRACT: note_on channel=6 note=65 velocity=0 time=0.0883151953125
EXTRACT: control_change channel=6 control=64 value=0 time=0.006793476562499999
EXTRACT: note_on channel=6 note=60 velocity=0 time=0.0013586953124999999
EXTRACT: control_change channel=6 control=64 value=127 time=0.008152171875
EXTRACT: note_on channel=9 note=39 velocity=0 time=0.0013586953124999999
EXTRACT: control_change channel=6 control=64 value=0 time=0.0027173906249999998
EXTRACT: control_change channel=6 control=64 value=127 time=0.008152171875
EXTRACT: control_change channel=6 control=64 value=0 time=0.0040760859375
EXTRACT: note_on channel=9 note=36 velocity=0 time=0.0013586953124999999
EXTRACT: note_on channel=9 note=40 velocity=0 time=0.033967382812499995
EXTRACT: note_on channel=9 note=44 velocity=0 time=0.023097820312499996
EXTRACT: note_on channel=6 note=67 velocity=86 time=0.08152171875
EXTRACT: note_on channel=6 note=62 velocity=104 time=0
EXTRACT: note_on channel=6 note=58 velocity=104 time=0
EXTRACT: note_on channel=9 note=42 velocity=35 time=0
EXTRACT: note_on channel=9 note=42 velocity=0 time=0.0910325859375
EXTRACT: control_change channel=6 control=64 value=127 time=0.06385867968749999
EXTRACT: note_on channel=9 note=44 velocity=110 time=0.105978234375
EXTRACT: note_on channel=9 note=36 velocity=114 time=0
EXTRACT: note_on channel=9 note=36 velocity=0 time=0.11277171093749999
EXTRACT: note_on channel=9 note=44 velocity=0 time=0.06385867968749999
EXTRACT: note_on channel=9 note=42 velocity=45 time=0.084239109375
EXTRACT: note_on channel=9 note=42 velocity=0 time=0.1290760546875
EXTRACT: note_on channel=9 note=44 velocity=110 time=0.13179344531249998
EXTRACT: note_on channel=9 note=36 velocity=114 time=0
EXTRACT: note_on channel=9 note=40 velocity=115 time=0
EXTRACT: note_on channel=9 note=39 velocity=94 time=0
EXTRACT: note_on channel=6 note=58 velocity=0 time=0.028532601562499996
EXTRACT: note_on channel=6 note=67 velocity=0 time=0.013586953124999999
EXTRACT: note_on channel=6 note=62 velocity=0 time=0.0095108671875
EXTRACT: note_on channel=9 note=39 velocity=0 time=0.04619564062499999
EXTRACT: note_on channel=9 note=36 velocity=0 time=0.017663039062499997
EXTRACT: note_on channel=9 note=44 velocity=0 time=0.008152171875
EXTRACT: note_on channel=9 note=40 velocity=0 time=0.0013586953124999999
EXTRACT: note_on channel=9 note=42 velocity=53 time=0.13586953124999998
EXTRACT: note_on channel=9 note=42 velocity=0 time=0.12228257812499999
EXTRACT: control_change channel=6 control=64 value=0 time=0.0883151953125
EXTRACT: control_change channel=6 control=64 value=127 time=0.006793476562499999
EXTRACT: control_change channel=6 control=64 value=0 time=0.0040760859375
EXTRACT: note_on channel=6 note=55 velocity=115 time=0.039402164062499995
EXTRACT: note_on channel=6 note=64 velocity=104 time=0
EXTRACT: note_on channel=6 note=60 velocity=115 time=0
EXTRACT: note_on channel=9 note=36 velocity=114 time=0
EXTRACT: note_on channel=9 note=44 velocity=110 time=0
EXTRACT: note_on channel=9 note=36 velocity=0 time=0.12499996875
EXTRACT: note_on channel=9 note=44 velocity=0 time=0.06793476562499999
EXTRACT: note_on channel=9 note=42 velocity=53 time=0.06793476562499999
EXTRACT: note_on channel=9 note=42 velocity=0 time=0.1209238828125
EXTRACT: note_on channel=9 note=36 velocity=114 time=0.13994561718749998
EXTRACT: note_on channel=9 note=44 velocity=110 time=0
EXTRACT: note_on channel=9 note=39 velocity=94 time=0
EXTRACT: note_on channel=9 note=40 velocity=115 time=0
EXTRACT: control_change channel=6 control=64 value=127 time=0.0027173906249999998
EXTRACT: note_on channel=9 note=36 velocity=0 time=0.0991847578125
EXTRACT: note_on channel=9 note=39 velocity=0 time=0.0027173906249999998
EXTRACT: note_on channel=9 note=40 velocity=0 time=0.006793476562499999
EXTRACT: note_on channel=9 note=44 velocity=0 time=0.0883151953125
EXTRACT: note_on channel=6 note=55 velocity=0 time=0.0421195546875
EXTRACT: note_on channel=9 note=42 velocity=33 time=0.019021734375
EXTRACT: note_on channel=6 note=64 velocity=0 time=0.008152171875
EXTRACT: note_on channel=6 note=60 velocity=0 time=0.023097820312499996
EXTRACT: note_on channel=9 note=42 velocity=0 time=0.105978234375
EXTRACT: control_change channel=6 control=64 value=0 time=0.023097820312499996
EXTRACT: control_change channel=6 control=64 value=127 time=0.0095108671875
EXTRACT: control_change channel=6 control=64 value=0 time=0.0040760859375
EXTRACT: note_on channel=6 note=64 velocity=104 time=0.08695649999999999
EXTRACT: note_on channel=6 note=55 velocity=104 time=0
EXTRACT: note_on channel=6 note=60 velocity=104 time=0
EXTRACT: note_on channel=9 note=44 velocity=110 time=0
EXTRACT: note_on channel=9 note=36 velocity=115 time=0
EXTRACT: note_on channel=9 note=36 velocity=0 time=0.09239128124999998
EXTRACT: control_change channel=6 control=64 value=127 time=0.0760869375
EXTRACT: note_on channel=9 note=44 velocity=0 time=0.01630434375
EXTRACT: note_on channel=9 note=42 velocity=33 time=0.0760869375
EXTRACT: note_on channel=9 note=85 velocity=104 time=0
EXTRACT: note_on channel=9 note=39 velocity=53 time=0
EXTRACT: note_on channel=9 note=85 velocity=0 time=0.0910325859375
EXTRACT: note_on channel=9 note=39 velocity=0 time=0.019021734375
EXTRACT: note_on channel=9 note=42 velocity=0 time=0.010869562499999999
EXTRACT: note_on channel=6 note=55 velocity=0 time=0.105978234375
EXTRACT: note_on channel=6 note=64 velocity=0 time=0.019021734375
EXTRACT: note_on channel=6 note=60 velocity=0 time=0.006793476562499999
EXTRACT: note_on channel=9 note=44 velocity=110 time=0.008152171875
EXTRACT: note_on channel=9 note=36 velocity=114 time=0
EXTRACT: note_on channel=9 note=39 velocity=104 time=0
EXTRACT: note_on channel=9 note=40 velocity=104 time=0
EXTRACT: note_on channel=9 note=39 velocity=0 time=0.0692934609375
EXTRACT: note_on channel=9 note=36 velocity=0 time=0.033967382812499995
EXTRACT: note_on channel=9 note=40 velocity=0 time=0.0013586953124999999
EXTRACT: note_on channel=9 note=44 velocity=0 time=0.058423898437499996
EXTRACT: note_on channel=9 note=42 velocity=33 time=0.09782606249999999
EXTRACT: control_change channel=6 control=64 value=0 time=0.0883151953125
EXTRACT: control_change channel=6 control=64 value=127 time=0.008152171875
EXTRACT: control_change channel=6 control=64 value=0 time=0.0054347812499999995
EXTRACT: note_on channel=9 note=42 velocity=0 time=0.008152171875
EXTRACT: note_on channel=6 note=58 velocity=104 time=0.1508151796875
EXTRACT: note_on channel=6 note=55 velocity=94 time=0
EXTRACT: note_on channel=6 note=65 velocity=94 time=0
EXTRACT: note_on channel=6 note=62 velocity=94 time=0
EXTRACT: note_on channel=9 note=46 velocity=115 time=0
EXTRACT: note_on channel=9 note=36 velocity=110 time=0
EXTRACT: note_on channel=9 note=36 velocity=0 time=0.1290760546875
EXTRACT: control_change channel=6 control=64 value=127 time=0.065217375
EXTRACT: note_on channel=9 note=46 velocity=0 time=0.014945648437499999
EXTRACT: note_on channel=9 note=70 velocity=37 time=0.051630421875
EXTRACT: note_on channel=9 note=70 velocity=0 time=0.08967389062499999
EXTRACT: note_on channel=9 note=44 velocity=110 time=0.17119560937499997
EXTRACT: note_on channel=9 note=36 velocity=114 time=0
EXTRACT: note_on channel=9 note=39 velocity=94 time=0
EXTRACT: note_on channel=9 note=40 velocity=104 time=0
EXTRACT: control_change channel=6 control=64 value=0 time=0.06114128906249999
EXTRACT: control_change channel=6 control=64 value=127 time=0.006793476562499999
EXTRACT: note_on channel=6 note=55 velocity=0 time=0.0040760859375
EXTRACT: control_change channel=6 control=64 value=0 time=0.0013586953124999999
EXTRACT: note_on channel=6 note=58 velocity=0 time=0.006793476562499999
EXTRACT: note_on channel=6 note=65 velocity=0 time=0.006793476562499999
EXTRACT: note_on channel=6 note=62 velocity=0 time=0.0095108671875
EXTRACT: note_on channel=9 note=39 velocity=0 time=0.0095108671875
EXTRACT: note_on channel=9 note=36 velocity=0 time=0.01630434375
EXTRACT: note_on channel=9 note=40 velocity=0 time=0.033967382812499995
EXTRACT: note_on channel=9 note=44 velocity=0 time=0.023097820312499996
EXTRACT: note_on channel=6 note=65 velocity=94 time=0.08152171875
EXTRACT: note_on channel=6 note=55 velocity=79 time=0
EXTRACT: note_on channel=6 note=58 velocity=94 time=0
EXTRACT: note_on channel=6 note=62 velocity=104 time=0
EXTRACT: note_on channel=9 note=42 velocity=35 time=0
EXTRACT: control_change channel=6 control=64 value=127 time=0.07472824218749999
EXTRACT: note_on channel=9 note=42 velocity=0 time=0.01630434375
EXTRACT: note_on channel=9 note=44 velocity=110 time=0.16983691406249998
EXTRACT: note_on channel=9 note=36 velocity=114 time=0
EXTRACT: note_on channel=9 note=36 velocity=0 time=0.11277171093749999
EXTRACT: note_on channel=9 note=44 velocity=0 time=0.06385867968749999
EXTRACT: note_on channel=9 note=42 velocity=45 time=0.084239109375
EXTRACT: note_on channel=9 note=42 velocity=0 time=0.1290760546875
EXTRACT: note_on channel=9 note=44 velocity=110 time=0.13179344531249998
EXTRACT: note_on channel=9 note=36 velocity=114 time=0
EXTRACT: note_on channel=9 note=40 velocity=115 time=0
EXTRACT: note_on channel=9 note=39 velocity=94 time=0
EXTRACT: note_on channel=9 note=39 velocity=0 time=0.09782606249999999
EXTRACT: note_on channel=9 note=36 velocity=0 time=0.017663039062499997
EXTRACT: note_on channel=9 note=44 velocity=0 time=0.008152171875
EXTRACT: note_on channel=9 note=40 velocity=0 time=0.0013586953124999999
EXTRACT: note_on channel=9 note=42 velocity=53 time=0.13586953124999998
EXTRACT: note_on channel=6 note=62 velocity=0 time=0.095108671875
EXTRACT: note_on channel=6 note=65 velocity=0 time=0.006793476562499999
EXTRACT: note_on channel=6 note=58 velocity=0 time=0.014945648437499999
EXTRACT: note_on channel=9 note=42 velocity=0 time=0.0054347812499999995
EXTRACT: note_on channel=6 note=55 velocity=0 time=0.014945648437499999
EXTRACT: control_change channel=6 control=64 value=0 time=0.0095108671875
EXTRACT: control_change channel=6 control=64 value=127 time=0.006793476562499999
EXTRACT: control_change channel=6 control=64 value=0 time=0.0054347812499999995
EXTRACT: note_on channel=6 note=62 velocity=104 time=0.10190214843749999
EXTRACT: note_on channel=6 note=65 velocity=104 time=0
EXTRACT: note_on channel=6 note=57 velocity=94 time=0
EXTRACT: note_on channel=6 note=60 velocity=104 time=0
EXTRACT: note_on channel=9 note=36 velocity=114 time=0
EXTRACT: note_on channel=9 note=44 velocity=110 time=0
EXTRACT: note_on channel=9 note=36 velocity=0 time=0.12499996875
EXTRACT: control_change channel=6 control=64 value=127 time=0.013586953124999999
EXTRACT: note_on channel=9 note=44 velocity=0 time=0.054347812499999995
EXTRACT: note_on channel=9 note=42 velocity=53 time=0.06793476562499999
EXTRACT: note_on channel=9 note=42 velocity=0 time=0.1209238828125
EXTRACT: note_on channel=9 note=36 velocity=114 time=0.13994561718749998
EXTRACT: note_on channel=9 note=44 velocity=110 time=0
EXTRACT: note_on channel=9 note=39 velocity=94 time=0
EXTRACT: note_on channel=9 note=40 velocity=115 time=0
EXTRACT: note_on channel=9 note=36 velocity=0 time=0.10190214843749999
EXTRACT: note_on channel=9 note=39 velocity=0 time=0.0027173906249999998
EXTRACT: note_on channel=9 note=40 velocity=0 time=0.006793476562499999
EXTRACT: note_on channel=9 note=44 velocity=0 time=0.0883151953125
EXTRACT: note_on channel=9 note=42 velocity=33 time=0.06114128906249999
EXTRACT: note_on channel=9 note=42 velocity=0 time=0.1372282265625
EXTRACT: control_change channel=6 control=64 value=0 time=0.0054347812499999995
EXTRACT: note_on channel=6 note=57 velocity=0 time=0.0027173906249999998
EXTRACT: control_change channel=6 control=64 value=127 time=0.0027173906249999998
EXTRACT: note_on channel=6 note=65 velocity=0 time=0.0095108671875
EXTRACT: control_change channel=6 control=64 value=0 time=0.0013586953124999999
EXTRACT: note_on channel=6 note=62 velocity=0 time=0.006793476562499999
EXTRACT: note_on channel=6 note=60 velocity=0 time=0.008152171875
EXTRACT: note_on channel=6 note=57 velocity=86 time=0.08695649999999999
EXTRACT: note_on channel=6 note=60 velocity=94 time=0
EXTRACT: note_on channel=6 note=62 velocity=94 time=0
EXTRACT: note_on channel=6 note=65 velocity=94 time=0
EXTRACT: note_on channel=9 note=44 velocity=110 time=0
EXTRACT: note_on channel=9 note=36 velocity=115 time=0
EXTRACT: control_change channel=6 control=64 value=127 time=0.0774456328125
EXTRACT: note_on channel=9 note=36 velocity=0 time=0.014945648437499999
EXTRACT: note_on channel=9 note=44 velocity=0 time=0.09239128124999998
EXTRACT: note_on channel=9 note=42 velocity=33 time=0.0760869375
EXTRACT: note_on channel=9 note=85 velocity=104 time=0
EXTRACT: note_on channel=9 note=39 velocity=53 time=0
EXTRACT: note_on channel=9 note=85 velocity=0 time=0.0910325859375
EXTRACT: note_on channel=9 note=39 velocity=0 time=0.019021734375
EXTRACT: note_on channel=9 note=42 velocity=0 time=0.010869562499999999
EXTRACT: note_on channel=9 note=44 velocity=110 time=0.13994561718749998
EXTRACT: note_on channel=9 note=36 velocity=114 time=0
EXTRACT: note_on channel=9 note=39 velocity=104 time=0
EXTRACT: note_on channel=9 note=40 velocity=104 time=0
EXTRACT: note_on channel=9 note=39 velocity=0 time=0.0692934609375
EXTRACT: note_on channel=6 note=57 velocity=0 time=0.0040760859375
EXTRACT: note_on channel=9 note=36 velocity=0 time=0.029891296874999997
EXTRACT: note_on channel=9 note=40 velocity=0 time=0.0013586953124999999
EXTRACT: note_on channel=6 note=65 velocity=0 time=0.008152171875
EXTRACT: note_on channel=6 note=60 velocity=0 time=0.0054347812499999995
EXTRACT: note_on channel=6 note=62 velocity=0 time=0.010869562499999999
EXTRACT: note_on channel=9 note=44 velocity=0 time=0.033967382812499995
EXTRACT: note_on channel=9 note=42 velocity=33 time=0.09782606249999999
EXTRACT: note_on channel=9 note=42 velocity=0 time=0.1100543203125
EXTRACT: control_change channel=6 control=64 value=0 time=0.10733692968749999
EXTRACT: control_change channel=6 control=64 value=127 time=0.0013586953124999999
EXTRACT: control_change channel=6 control=64 value=0 time=0.006793476562499999
EXTRACT: note_on channel=6 note=69 velocity=104 time=0.03532607812499999
EXTRACT: note_on channel=6 note=60 velocity=94 time=0
EXTRACT: note_on channel=6 note=62 velocity=94 time=0
EXTRACT: note_on channel=9 note=46 velocity=115 time=0
EXTRACT: note_on channel=9 note=36 velocity=110 time=0
EXTRACT: note_on channel=9 note=36 velocity=0 time=0.1290760546875
EXTRACT: control_change channel=6 control=64 value=127 time=0.023097820312499996
EXTRACT: note_on channel=9 note=46 velocity=0 time=0.05706520312499999
EXTRACT: note_on channel=6 note=69 velocity=0 time=0.0013586953124999999
EXTRACT: note_on channel=6 note=67 velocity=73 time=0.050271726562499994
EXTRACT: note_on channel=9 note=70 velocity=37 time=0
EXTRACT: note_on channel=6 note=62 velocity=0 time=0.051630421875
EXTRACT: note_on channel=9 note=70 velocity=0 time=0.03804346875
EXTRACT: note_on channel=6 note=67 velocity=0 time=0.09646736718749999
EXTRACT: note_on channel=6 note=65 velocity=104 time=0.07472824218749999
EXTRACT: note_on channel=9 note=44 velocity=110 time=0
EXTRACT: note_on channel=9 note=36 velocity=114 time=0
EXTRACT: note_on channel=9 note=39 velocity=94 time=0
EXTRACT: note_on channel=9 note=40 velocity=104 time=0
EXTRACT: note_on channel=6 note=65 velocity=0 time=0.0883151953125
EXTRACT: control_change channel=6 control=64 value=0 time=0.006793476562499999
EXTRACT: note_on channel=6 note=60 velocity=0 time=0.0013586953124999999
EXTRACT: control_change channel=6 control=64 value=127 time=0.008152171875
EXTRACT: note_on channel=9 note=39 velocity=0 time=0.0013586953124999999
EXTRACT: control_change channel=6 control=64 value=0 time=0.0027173906249999998
EXTRACT: control_change channel=6 control=64 value=127 time=0.008152171875
EXTRACT: control_change channel=6 control=64 value=0 time=0.0040760859375
EXTRACT: note_on channel=9 note=36 velocity=0 time=0.0013586953124999999
EXTRACT: note_on channel=9 note=40 velocity=0 time=0.033967382812499995
EXTRACT: note_on channel=9 note=44 velocity=0 time=0.023097820312499996
EXTRACT: note_on channel=6 note=67 velocity=86 time=0.08152171875
EXTRACT: note_on channel=6 note=62 velocity=104 time=0
EXTRACT: note_on channel=6 note=58 velocity=104 time=0
EXTRACT: note_on channel=9 note=42 velocity=35 time=0
EXTRACT: note_on channel=9 note=42 velocity=0 time=0.0910325859375
EXTRACT: control_change channel=6 control=64 value=127 time=0.06385867968749999
EXTRACT: note_on channel=9 note=44 velocity=110 time=0.105978234375
EXTRACT: note_on channel=9 note=36 velocity=114 time=0
EXTRACT: note_on channel=9 note=36 velocity=0 time=0.11277171093749999
EXTRACT: note_on channel=9 note=44 velocity=0 time=0.06385867968749999
EXTRACT: note_on channel=9 note=42 velocity=45 time=0.084239109375
EXTRACT: note_on channel=9 note=42 velocity=0 time=0.1290760546875
EXTRACT: note_on channel=9 note=44 velocity=110 time=0.13179344531249998
EXTRACT: note_on channel=9 note=36 velocity=114 time=0
EXTRACT: note_on channel=9 note=40 velocity=115 time=0
EXTRACT: note_on channel=9 note=39 velocity=94 time=0
EXTRACT: note_on channel=6 note=58 velocity=0 time=0.028532601562499996
EXTRACT: note_on channel=6 note=67 velocity=0 time=0.013586953124999999
EXTRACT: note_on channel=6 note=62 velocity=0 time=0.0095108671875
EXTRACT: note_on channel=9 note=39 velocity=0 time=0.04619564062499999
EXTRACT: note_on channel=9 note=36 velocity=0 time=0.017663039062499997
EXTRACT: note_on channel=9 note=44 velocity=0 time=0.008152171875
EXTRACT: note_on channel=9 note=40 velocity=0 time=0.0013586953124999999
EXTRACT: note_on channel=9 note=42 velocity=53 time=0.13586953124999998
EXTRACT: note_on channel=9 note=42 velocity=0 time=0.12228257812499999
EXTRACT: control_change channel=6 control=64 value=0 time=0.0883151953125
EXTRACT: control_change channel=6 control=64 value=127 time=0.006793476562499999
EXTRACT: control_change channel=6 control=64 value=0 time=0.0040760859375
EXTRACT: note_on channel=6 note=55 velocity=115 time=0.039402164062499995
EXTRACT: note_on channel=6 note=64 velocity=104 time=0
EXTRACT: note_on channel=6 note=60 velocity=115 time=0
EXTRACT: note_on channel=9 note=36 velocity=114 time=0
EXTRACT: note_on channel=9 note=44 velocity=110 time=0
EXTRACT: note_on channel=9 note=36 velocity=0 time=0.12499996875
EXTRACT: note_on channel=9 note=44 velocity=0 time=0.06793476562499999
EXTRACT: note_on channel=9 note=42 velocity=53 time=0.06793476562499999
EXTRACT: note_on channel=9 note=42 velocity=0 time=0.1209238828125
EXTRACT: note_on channel=9 note=36 velocity=114 time=0.13994561718749998
EXTRACT: note_on channel=9 note=44 velocity=110 time=0
EXTRACT: note_on channel=9 note=39 velocity=94 time=0
EXTRACT: note_on channel=9 note=40 velocity=115 time=0
EXTRACT: control_change channel=6 control=64 value=127 time=0.0027173906249999998
EXTRACT: note_on channel=9 note=36 velocity=0 time=0.0991847578125
EXTRACT: note_on channel=9 note=39 velocity=0 time=0.0027173906249999998
EXTRACT: note_on channel=9 note=40 velocity=0 time=0.006793476562499999
EXTRACT: note_on channel=9 note=44 velocity=0 time=0.0883151953125
EXTRACT: note_on channel=6 note=55 velocity=0 time=0.0421195546875
EXTRACT: note_on channel=9 note=42 velocity=33 time=0.019021734375
EXTRACT: note_on channel=6 note=64 velocity=0 time=0.008152171875
EXTRACT: note_on channel=6 note=60 velocity=0 time=0.023097820312499996
EXTRACT: note_on channel=9 note=42 velocity=0 time=0.105978234375
EXTRACT: control_change channel=6 control=64 value=0 time=0.023097820312499996
EXTRACT: control_change channel=6 control=64 value=127 time=0.0095108671875
EXTRACT: control_change channel=6 control=64 value=0 time=0.0040760859375
EXTRACT: note_on channel=6 note=64 velocity=104 time=0.08695649999999999
EXTRACT: note_on channel=6 note=55 velocity=104 time=0
EXTRACT: note_on channel=6 note=60 velocity=104 time=0
EXTRACT: note_on channel=9 note=44 velocity=110 time=0
EXTRACT: note_on channel=9 note=36 velocity=115 time=0
EXTRACT: note_on channel=9 note=36 velocity=0 time=0.09239128124999998
EXTRACT: control_change channel=6 control=64 value=127 time=0.0760869375
EXTRACT: note_on channel=9 note=44 velocity=0 time=0.01630434375
EXTRACT: note_on channel=9 note=42 velocity=33 time=0.0760869375
EXTRACT: note_on channel=9 note=85 velocity=104 time=0
EXTRACT: note_on channel=9 note=39 velocity=53 time=0
EXTRACT: note_on channel=9 note=85 velocity=0 time=0.0910325859375
EXTRACT: note_on channel=9 note=39 velocity=0 time=0.019021734375
EXTRACT: note_on channel=9 note=42 velocity=0 time=0.010869562499999999
EXTRACT: note_on channel=6 note=55 velocity=0 time=0.105978234375
EXTRACT: note_on channel=6 note=64 velocity=0 time=0.019021734375
EXTRACT: note_on channel=6 note=60 velocity=0 time=0.006793476562499999
EXTRACT: note_on channel=9 note=44 velocity=110 time=0.008152171875
EXTRACT: note_on channel=9 note=36 velocity=114 time=0
EXTRACT: note_on channel=9 note=39 velocity=104 time=0
EXTRACT: note_on channel=9 note=40 velocity=104 time=0
EXTRACT: note_on channel=9 note=39 velocity=0 time=0.0692934609375
EXTRACT: note_on channel=9 note=36 velocity=0 time=0.033967382812499995
EXTRACT: note_on channel=9 note=40 velocity=0 time=0.0013586953124999999
EXTRACT: note_on channel=9 note=44 velocity=0 time=0.058423898437499996
EXTRACT: note_on channel=9 note=42 velocity=33 time=0.09782606249999999
EXTRACT: control_change channel=6 control=64 value=0 time=0.0883151953125
EXTRACT: control_change channel=6 control=64 value=127 time=0.008152171875
EXTRACT: control_change channel=6 control=64 value=0 time=0.0054347812499999995
EXTRACT: note_on channel=9 note=42 velocity=0 time=0.008152171875
EXTRACT: note_on channel=2 note=98 velocity=86 time=0.1508151796875
EXTRACT: note_on channel=6 note=58 velocity=104 time=0
EXTRACT: note_on channel=6 note=55 velocity=94 time=0
EXTRACT: note_on channel=6 note=65 velocity=94 time=0
EXTRACT: note_on channel=6 note=62 velocity=94 time=0
EXTRACT: note_on channel=7 note=31 velocity=127 time=0
EXTRACT: note_on channel=9 note=46 velocity=115 time=0
EXTRACT: note_on channel=9 note=36 velocity=110 time=0
EXTRACT: note_on channel=2 note=98 velocity=0 time=0.0760869375
EXTRACT: note_on channel=9 note=36 velocity=0 time=0.0529891171875
EXTRACT: control_change channel=6 control=64 value=127 time=0.065217375
EXTRACT: note_on channel=7 note=31 velocity=0 time=0.006793476562499999
EXTRACT: note_on channel=9 note=46 velocity=0 time=0.008152171875
EXTRACT: note_on channel=7 note=43 velocity=127 time=0.051630421875
EXTRACT: note_on channel=9 note=70 velocity=37 time=0
EXTRACT: note_on channel=7 note=43 velocity=0 time=0.0883151953125
EXTRACT: note_on channel=9 note=70 velocity=0 time=0.0013586953124999999
EXTRACT: note_on channel=2 note=98 velocity=79 time=0.17119560937499997
EXTRACT: note_on channel=7 note=34 velocity=127 time=0
EXTRACT: note_on channel=9 note=44 velocity=110 time=0
EXTRACT: note_on channel=9 note=36 velocity=114 time=0
EXTRACT: note_on channel=9 note=39 velocity=94 time=0
EXTRACT: note_on channel=9 note=40 velocity=104 time=0
EXTRACT: control_change channel=6 control=64 value=0 time=0.06114128906249999
EXTRACT: control_change channel=6 control=64 value=127 time=0.006793476562499999
EXTRACT: note_on channel=2 note=98 velocity=0 time=0.0013586953124999999
EXTRACT: note_on channel=6 note=55 velocity=0 time=0.0027173906249999998
EXTRACT: control_change channel=6 control=64 value=0 time=0.0013586953124999999
EXTRACT: note_on channel=6 note=58 velocity=0 time=0.006793476562499999
EXTRACT: note_on channel=6 note=65 velocity=0 time=0.006793476562499999
EXTRACT: note_on channel=6 note=62 velocity=0 time=0.0095108671875
EXTRACT: note_on channel=9 note=39 velocity=0 time=0.0095108671875
EXTRACT: note_on channel=9 note=36 velocity=0 time=0.01630434375
EXTRACT: note_on channel=9 note=40 velocity=0 time=0.033967382812499995
EXTRACT: note_on channel=9 note=44 velocity=0 time=0.023097820312499996
EXTRACT: note_on channel=7 note=34 velocity=0 time=0.06114128906249999
EXTRACT: note_on channel=6 note=65 velocity=94 time=0.0203804296875
EXTRACT: note_on channel=6 note=55 velocity=79 time=0
EXTRACT: note_on channel=6 note=58 velocity=94 time=0
EXTRACT: note_on channel=6 note=62 velocity=104 time=0
EXTRACT: note_on channel=7 note=39 velocity=115 time=0
EXTRACT: note_on channel=9 note=42 velocity=35 time=0
EXTRACT: control_change channel=6 control=64 value=127 time=0.07472824218749999
EXTRACT: note_on channel=9 note=42 velocity=0 time=0.01630434375
EXTRACT: note_on channel=2 note=98 velocity=79 time=0.16983691406249998
EXTRACT: note_on channel=9 note=44 velocity=110 time=0
EXTRACT: note_on channel=9 note=36 velocity=114 time=0
EXTRACT: note_on channel=7 note=39 velocity=0 time=0.0203804296875
EXTRACT: note_on channel=2 note=98 velocity=0 time=0.050271726562499994
EXTRACT: note_on channel=9 note=36 velocity=0 time=0.0421195546875
EXTRACT: note_on channel=9 note=44 velocity=0 time=0.06385867968749999
EXTRACT: note_on channel=7 note=51 velocity=127 time=0.084239109375
EXTRACT: note_on channel=9 note=42 velocity=45 time=0
EXTRACT: note_on channel=7 note=51 velocity=0 time=0.0421195546875
EXTRACT: note_on channel=9 note=42 velocity=0 time=0.08695649999999999
EXTRACT: note_on channel=2 note=98 velocity=68 time=0.13179344531249998
EXTRACT: note_on channel=7 note=39 velocity=127 time=0
EXTRACT: note_on channel=9 note=44 velocity=110 time=0
EXTRACT: note_on channel=9 note=36 velocity=114 time=0
EXTRACT: note_on channel=9 note=40 velocity=115 time=0
EXTRACT: note_on channel=9 note=39 velocity=94 time=0
EXTRACT: note_on channel=2 note=98 velocity=0 time=0.06385867968749999
EXTRACT: note_on channel=9 note=39 velocity=0 time=0.033967382812499995
EXTRACT: note_on channel=9 note=36 velocity=0 time=0.017663039062499997
EXTRACT: note_on channel=9 note=44 velocity=0 time=0.008152171875
EXTRACT: note_on channel=9 note=40 velocity=0 time=0.0013586953124999999
EXTRACT: note_on channel=9 note=42 velocity=53 time=0.13586953124999998
EXTRACT: note_on channel=7 note=39 velocity=0 time=0.05570650781249999
EXTRACT: note_on channel=6 note=62 velocity=0 time=0.039402164062499995
EXTRACT: note_on channel=6 note=65 velocity=0 time=0.006793476562499999
EXTRACT: note_on channel=6 note=58 velocity=0 time=0.014945648437499999
EXTRACT: note_on channel=9 note=42 velocity=0 time=0.0054347812499999995
EXTRACT: note_on channel=7 note=39 velocity=73 time=0.008152171875
EXTRACT: note_on channel=6 note=55 velocity=0 time=0.006793476562499999
EXTRACT: control_change channel=6 control=64 value=0 time=0.0095108671875
EXTRACT: control_change channel=6 control=64 value=127 time=0.006793476562499999
EXTRACT: control_change channel=6 control=64 value=0 time=0.0054347812499999995
EXTRACT: note_on channel=7 note=39 velocity=0 time=0.08152171875
EXTRACT: note_on channel=2 note=98 velocity=63 time=0.0203804296875
EXTRACT: note_on channel=6 note=62 velocity=104 time=0
EXTRACT: note_on channel=6 note=65 velocity=104 time=0
EXTRACT: note_on channel=6 note=57 velocity=94 time=0
EXTRACT: note_on channel=6 note=60 velocity=104 time=0
EXTRACT: note_on channel=7 note=41 velocity=127 time=0
EXTRACT: note_on channel=7 note=43 velocity=115 time=0
EXTRACT: note_on channel=9 note=36 velocity=114 time=0
EXTRACT: note_on channel=9 note=44 velocity=110 time=0
EXTRACT: note_on channel=7 note=43 velocity=0 time=0.050271726562499994
EXTRACT: note_on channel=2 note=98 velocity=0 time=0.024456515624999998
EXTRACT: note_on channel=9 note=36 velocity=0 time=0.050271726562499994
EXTRACT: note_on channel=7 note=41 velocity=0 time=0.0013586953124999999
EXTRACT: control_change channel=6 control=64 value=127 time=0.012228257812499999
EXTRACT: note_on channel=9 note=44 velocity=0 time=0.054347812499999995
EXTRACT: note_on channel=9 note=42 velocity=53 time=0.06793476562499999
EXTRACT: note_on channel=9 note=42 velocity=0 time=0.1209238828125
EXTRACT: note_on channel=2 note=98 velocity=58 time=0.13994561718749998
EXTRACT: note_on channel=7 note=41 velocity=127 time=0
EXTRACT: note_on channel=9 note=36 velocity=114 time=0
EXTRACT: note_on channel=9 note=44 velocity=110 time=0
EXTRACT: note_on channel=9 note=39 velocity=94 time=0
EXTRACT: note_on channel=9 note=40 velocity=115 time=0
EXTRACT: note_on channel=2 note=98 velocity=0 time=0.062499984375
EXTRACT: note_on channel=9 note=36 velocity=0 time=0.039402164062499995
EXTRACT: note_on channel=9 note=39 velocity=0 time=0.0027173906249999998
EXTRACT: note_on channel=9 note=40 velocity=0 time=0.006793476562499999
EXTRACT: note_on channel=9 note=44 velocity=0 time=0.0883151953125
EXTRACT: note_on channel=9 note=42 velocity=33 time=0.06114128906249999
EXTRACT: note_on channel=7 note=39 velocity=104 time=0.13043475
EXTRACT: note_on channel=9 note=42 velocity=0 time=0.006793476562499999
EXTRACT: control_change channel=6 control=64 value=0 time=0.0054347812499999995
EXTRACT: note_on channel=6 note=57 velocity=0 time=0.0027173906249999998
EXTRACT: control_change channel=6 control=64 value=127 time=0.0027173906249999998
EXTRACT: note_on channel=6 note=65 velocity=0 time=0.0095108671875
EXTRACT: control_change channel=6 control=64 value=0 time=0.0013586953124999999
EXTRACT: note_on channel=6 note=62 velocity=0 time=0.006793476562499999
EXTRACT: note_on channel=6 note=60 velocity=0 time=0.008152171875
EXTRACT: note_on channel=7 note=41 velocity=0 time=0.0027173906249999998
EXTRACT: note_on channel=7 note=39 velocity=0 time=0.05570650781249999
EXTRACT: note_on channel=2 note=98 velocity=53 time=0.028532601562499996
EXTRACT: note_on channel=6 note=57 velocity=86 time=0
EXTRACT: note_on channel=6 note=60 velocity=94 time=0
EXTRACT: note_on channel=6 note=62 velocity=94 time=0
EXTRACT: note_on channel=6 note=65 velocity=94 time=0
EXTRACT: note_on channel=7 note=38 velocity=127 time=0
EXTRACT: note_on channel=9 note=44 velocity=110 time=0
EXTRACT: note_on channel=9 note=36 velocity=115 time=0
EXTRACT: note_on channel=7 note=38 velocity=0 time=0.05570650781249999
EXTRACT: note_on channel=2 note=98 velocity=0 time=0.019021734375
EXTRACT: control_change channel=6 control=64 value=127 time=0.0027173906249999998
EXTRACT: note_on channel=9 note=36 velocity=0 time=0.014945648437499999
EXTRACT: note_on channel=9 note=44 velocity=0 time=0.09239128124999998
EXTRACT: note_on channel=7 note=38 velocity=127 time=0.0760869375
EXTRACT: note_on channel=9 note=42 velocity=33 time=0
EXTRACT: note_on channel=9 note=85 velocity=104 time=0
EXTRACT: note_on channel=9 note=39 velocity=53 time=0
EXTRACT: note_on channel=7 note=38 velocity=0 time=0.0421195546875
EXTRACT: note_on channel=9 note=85 velocity=0 time=0.048913031249999996
EXTRACT: note_on channel=9 note=39 velocity=0 time=0.019021734375
EXTRACT: note_on channel=9 note=42 velocity=0 time=0.010869562499999999
EXTRACT: note_on channel=2 note=98 velocity=48 time=0.13994561718749998
EXTRACT: note_on channel=7 note=38 velocity=127 time=0
EXTRACT: note_on channel=9 note=44 velocity=110 time=0
EXTRACT: note_on channel=9 note=36 velocity=114 time=0
EXTRACT: note_on channel=9 note=39 velocity=104 time=0
EXTRACT: note_on channel=9 note=40 velocity=104 time=0
EXTRACT: note_on channel=2 note=98 velocity=0 time=0.058423898437499996
EXTRACT: note_on channel=9 note=39 velocity=0 time=0.010869562499999999
EXTRACT: note_on channel=6 note=57 velocity=0 time=0.0040760859375
EXTRACT: note_on channel=9 note=36 velocity=0 time=0.029891296874999997
EXTRACT: note_on channel=9 note=40 velocity=0 time=0.0013586953124999999
EXTRACT: note_on channel=6 note=65 velocity=0 time=0.008152171875
EXTRACT: note_on channel=6 note=60 velocity=0 time=0.0054347812499999995
EXTRACT: note_on channel=6 note=62 velocity=0 time=0.010869562499999999
EXTRACT: note_on channel=9 note=44 velocity=0 time=0.033967382812499995
EXTRACT: note_on channel=7 note=38 velocity=0 time=0.09646736718749999
EXTRACT: note_on channel=7 note=36 velocity=127 time=0.0013586953124999999
EXTRACT: note_on channel=9 note=42 velocity=33 time=0
EXTRACT: note_on channel=7 note=36 velocity=0 time=0.10190214843749999
EXTRACT: note_on channel=9 note=42 velocity=0 time=0.008152171875
EXTRACT: note_on channel=7 note=38 velocity=115 time=0.0203804296875
EXTRACT: note_on channel=7 note=38 velocity=0 time=0.06793476562499999
EXTRACT: control_change channel=6 control=64 value=0 time=0.019021734375
EXTRACT: control_change channel=6 control=64 value=127 time=0.0013586953124999999
EXTRACT: control_change channel=6 control=64 value=0 time=0.006793476562499999
EXTRACT: note_on channel=6 note=69 velocity=104 time=0.03532607812499999
EXTRACT: note_on channel=6 note=60 velocity=94 time=0
EXTRACT: note_on channel=6 note=62 velocity=94 time=0
EXTRACT: note_on channel=7 note=31 velocity=115 time=0
EXTRACT: note_on channel=9 note=46 velocity=115 time=0
EXTRACT: note_on channel=9 note=36 velocity=110 time=0
EXTRACT: aftertouch channel=7 value=4 time=0.11820649218749998
EXTRACT: note_on channel=9 note=36 velocity=0 time=0.010869562499999999
EXTRACT: aftertouch channel=7 value=6 time=0.0040760859375
EXTRACT: control_change channel=6 control=64 value=127 time=0.019021734375
EXTRACT: aftertouch channel=7 value=4 time=0.028532601562499996
EXTRACT: aftertouch channel=7 value=2 time=0.01630434375
EXTRACT: note_on channel=9 note=46 velocity=0 time=0.012228257812499999
EXTRACT: note_on channel=6 note=69 velocity=0 time=0.0013586953124999999
EXTRACT: aftertouch channel=7 value=0 time=0.0027173906249999998
EXTRACT: note_on channel=7 note=31 velocity=0 time=0.006793476562499999
EXTRACT: aftertouch channel=7 value=0 time=0.008152171875
EXTRACT: note_on channel=6 note=67 velocity=73 time=0.0326086875
EXTRACT: note_on channel=7 note=43 velocity=127 time=0
EXTRACT: note_on channel=9 note=70 velocity=37 time=0
EXTRACT: note_on channel=6 note=62 velocity=0 time=0.051630421875
EXTRACT: note_on channel=7 note=43 velocity=0 time=0.012228257812499999
EXTRACT: note_on channel=9 note=70 velocity=0 time=0.0258152109375
EXTRACT: note_on channel=6 note=67 velocity=0 time=0.09646736718749999
EXTRACT: note_on channel=6 note=65 velocity=104 time=0.07472824218749999
EXTRACT: note_on channel=7 note=34 velocity=127 time=0
EXTRACT: note_on channel=9 note=44 velocity=110 time=0
EXTRACT: note_on channel=9 note=36 velocity=114 time=0
EXTRACT: note_on channel=9 note=39 velocity=94 time=0
EXTRACT: note_on channel=9 note=40 velocity=104 time=0
EXTRACT: note_on channel=6 note=65 velocity=0 time=0.0883151953125
EXTRACT: control_change channel=6 control=64 value=0 time=0.006793476562499999
EXTRACT: note_on channel=6 note=60 velocity=0 time=0.0013586953124999999
EXTRACT: control_change channel=6 control=64 value=127 time=0.008152171875
EXTRACT: note_on channel=9 note=39 velocity=0 time=0.0013586953124999999
EXTRACT: control_change channel=6 control=64 value=0 time=0.0027173906249999998
EXTRACT: control_change channel=6 control=64 value=127 time=0.008152171875
EXTRACT: control_change channel=6 control=64 value=0 time=0.0040760859375
EXTRACT: note_on channel=9 note=36 velocity=0 time=0.0013586953124999999
EXTRACT: note_on channel=9 note=40 velocity=0 time=0.033967382812499995
EXTRACT: note_on channel=9 note=44 velocity=0 time=0.023097820312499996
EXTRACT: note_on channel=7 note=34 velocity=0 time=0.044836945312499994
EXTRACT: note_on channel=6 note=67 velocity=86 time=0.0366847734375
EXTRACT: note_on channel=6 note=62 velocity=104 time=0
EXTRACT: note_on channel=6 note=58 velocity=104 time=0
EXTRACT: note_on channel=7 note=39 velocity=127 time=0
EXTRACT: note_on channel=9 note=42 velocity=35 time=0
EXTRACT: note_on channel=9 note=42 velocity=0 time=0.0910325859375
EXTRACT: control_change channel=6 control=64 value=127 time=0.06385867968749999
EXTRACT: note_on channel=7 note=40 velocity=79 time=0.105978234375
EXTRACT: note_on channel=9 note=44 velocity=110 time=0
EXTRACT: note_on channel=9 note=36 velocity=114 time=0
EXTRACT: note_on channel=7 note=40 velocity=0 time=0.021739124999999998
EXTRACT: note_on channel=7 note=39 velocity=0 time=0.019021734375
EXTRACT: note_on channel=9 note=36 velocity=0 time=0.07201085156249999
EXTRACT: note_on channel=9 note=44 velocity=0 time=0.06385867968749999
EXTRACT: note_on channel=7 note=51 velocity=127 time=0.084239109375
EXTRACT: note_on channel=9 note=42 velocity=45 time=0
EXTRACT: note_on channel=7 note=51 velocity=0 time=0.04619564062499999
EXTRACT: note_on channel=9 note=42 velocity=0 time=0.08288041406249999
EXTRACT: note_on channel=7 note=39 velocity=127 time=0.13179344531249998
EXTRACT: note_on channel=9 note=44 velocity=110 time=0
EXTRACT: note_on channel=9 note=36 velocity=114 time=0
EXTRACT: note_on channel=9 note=40 velocity=115 time=0
EXTRACT: note_on channel=9 note=39 velocity=94 time=0
EXTRACT: note_on channel=6 note=58 velocity=0 time=0.028532601562499996
EXTRACT: note_on channel=6 note=67 velocity=0 time=0.013586953124999999
EXTRACT: note_on channel=6 note=62 velocity=0 time=0.0095108671875
EXTRACT: note_on channel=9 note=39 velocity=0 time=0.04619564062499999
EXTRACT: note_on channel=9 note=36 velocity=0 time=0.017663039062499997
EXTRACT: note_on channel=9 note=44 velocity=0 time=0.008152171875
EXTRACT: note_on channel=9 note=40 velocity=0 time=0.0013586953124999999
EXTRACT: note_on channel=9 note=42 velocity=53 time=0.13586953124999998
EXTRACT: note_on channel=7 note=39 velocity=0 time=0.0366847734375
EXTRACT: note_on channel=9 note=42 velocity=0 time=0.08559780468749999
EXTRACT: note_on channel=7 note=43 velocity=115 time=0.008152171875
EXTRACT: control_change channel=6 control=64 value=0 time=0.0801630234375
EXTRACT: control_change channel=6 control=64 value=127 time=0.006793476562499999
EXTRACT: control_change channel=6 control=64 value=0 time=0.0040760859375
EXTRACT: note_on channel=7 note=43 velocity=0 time=0.019021734375
EXTRACT: note_on channel=6 note=55 velocity=115 time=0.0203804296875
EXTRACT: note_on channel=6 note=64 velocity=104 time=0
EXTRACT: note_on channel=6 note=60 velocity=115 time=0
EXTRACT: note_on channel=7 note=45 velocity=104 time=0
EXTRACT: note_on channel=9 note=36 velocity=114 time=0
EXTRACT: note_on channel=9 note=44 velocity=110 time=0
EXTRACT: note_on channel=9 note=36 velocity=0 time=0.12499996875
EXTRACT: note_on channel=7 note=45 velocity=0 time=0.0040760859375
EXTRACT: note_on channel=7 note=43 velocity=104 time=0.0013586953124999999
EXTRACT: note_on channel=9 note=44 velocity=0 time=0.062499984375
EXTRACT: note_on channel=7 note=45 velocity=104 time=0.06793476562499999
EXTRACT: note_on channel=9 note=42 velocity=53 time=0
EXTRACT: note_on channel=7 note=43 velocity=0 time=0.0013586953124999999
EXTRACT: note_on channel=9 note=42 velocity=0 time=0.11956518749999999
EXTRACT: note_on channel=7 note=43 velocity=104 time=0.0095108671875
EXTRACT: note_on channel=7 note=45 velocity=0 time=0.0095108671875
EXTRACT: note_on channel=7 note=43 velocity=0 time=0.11413040624999998
EXTRACT: note_on channel=7 note=45 velocity=127 time=0.006793476562499999
EXTRACT: note_on channel=9 note=36 velocity=114 time=0
EXTRACT: note_on channel=9 note=44 velocity=110 time=0
EXTRACT: note_on channel=9 note=39 velocity=94 time=0
EXTRACT: note_on channel=9 note=40 velocity=115 time=0
EXTRACT: control_change channel=6 control=64 value=127 time=0.0027173906249999998
EXTRACT: note_on channel=9 note=36 velocity=0 time=0.0991847578125
EXTRACT: note_on channel=9 note=39 velocity=0 time=0.0027173906249999998
EXTRACT: note_on channel=9 note=40 velocity=0 time=0.006793476562499999
EXTRACT: note_on channel=9 note=44 velocity=0 time=0.0883151953125
EXTRACT: note_on channel=7 note=45 velocity=0 time=0.0095108671875
EXTRACT: note_on channel=6 note=55 velocity=0 time=0.0326086875
EXTRACT: note_on channel=9 note=42 velocity=33 time=0.019021734375
EXTRACT: note_on channel=6 note=64 velocity=0 time=0.008152171875
EXTRACT: note_on channel=6 note=60 velocity=0 time=0.023097820312499996
EXTRACT: note_on channel=7 note=43 velocity=115 time=0.0991847578125
EXTRACT: note_on channel=9 note=42 velocity=0 time=0.006793476562499999
EXTRACT: control_change channel=6 control=64 value=0 time=0.023097820312499996
EXTRACT: control_change channel=6 control=64 value=127 time=0.0095108671875
EXTRACT: control_change channel=6 control=64 value=0 time=0.0040760859375
EXTRACT: note_on channel=7 note=43 velocity=0 time=0.03532607812499999
EXTRACT: note_on channel=6 note=64 velocity=104 time=0.051630421875
EXTRACT: note_on channel=6 note=55 velocity=104 time=0
EXTRACT: note_on channel=6 note=60 velocity=104 time=0
EXTRACT: note_on channel=7 note=45 velocity=127 time=0
EXTRACT: note_on channel=9 note=44 velocity=110 time=0
EXTRACT: note_on channel=9 note=36 velocity=115 time=0
EXTRACT: note_on channel=9 note=36 velocity=0 time=0.09239128124999998
EXTRACT: note_on channel=7 note=45 velocity=0 time=0.024456515624999998
EXTRACT: control_change channel=6 control=64 value=127 time=0.051630421875
EXTRACT: note_on channel=9 note=44 velocity=0 time=0.01630434375
EXTRACT: note_on channel=7 note=38 velocity=127 time=0.0760869375
EXTRACT: note_on channel=9 note=42 velocity=33 time=0
EXTRACT: note_on channel=9 note=85 velocity=104 time=0
EXTRACT: note_on channel=9 note=39 velocity=53 time=0
EXTRACT: note_on channel=9 note=85 velocity=0 time=0.0910325859375
EXTRACT: note_on channel=9 note=39 velocity=0 time=0.019021734375
EXTRACT: note_on channel=9 note=42 velocity=0 time=0.010869562499999999
EXTRACT: note_on channel=6 note=55 velocity=0 time=0.105978234375
EXTRACT: note_on channel=6 note=64 velocity=0 time=0.019021734375
EXTRACT: note_on channel=6 note=60 velocity=0 time=0.006793476562499999
EXTRACT: note_on channel=7 note=38 velocity=0 time=0.0013586953124999999
EXTRACT: note_on channel=7 note=41 velocity=127 time=0.006793476562499999
EXTRACT: note_on channel=9 note=44 velocity=110 time=0
EXTRACT: note_on channel=9 note=36 velocity=114 time=0
EXTRACT: note_on channel=9 note=39 velocity=104 time=0
EXTRACT: note_on channel=9 note=40 velocity=104 time=0
EXTRACT: note_on channel=9 note=39 velocity=0 time=0.0692934609375
EXTRACT: note_on channel=9 note=36 velocity=0 time=0.033967382812499995
EXTRACT: note_on channel=9 note=40 velocity=0 time=0.0013586953124999999
EXTRACT: note_on channel=9 note=44 velocity=0 time=0.058423898437499996
EXTRACT: note_on channel=7 note=41 velocity=0 time=0.07472824218749999
EXTRACT: note_on channel=7 note=43 velocity=127 time=0.023097820312499996
EXTRACT: note_on channel=9 note=42 velocity=33 time=0
EXTRACT: control_change channel=6 control=64 value=0 time=0.0883151953125
EXTRACT: control_change channel=6 control=64 value=127 time=0.008152171875
EXTRACT: control_change channel=6 control=64 value=0 time=0.0054347812499999995
EXTRACT: note_on channel=9 note=42 velocity=0 time=0.008152171875
EXTRACT: note_on channel=2 note=98 velocity=86 time=0.1508151796875
EXTRACT: note_on channel=6 note=58 velocity=104 time=0
EXTRACT: note_on channel=6 note=55 velocity=94 time=0
EXTRACT: note_on channel=6 note=65 velocity=94 time=0
EXTRACT: note_on channel=6 note=62 velocity=94 time=0
EXTRACT: note_on channel=7 note=31 velocity=115 time=0
EXTRACT: note_on channel=9 note=46 velocity=115 time=0
EXTRACT: note_on channel=9 note=36 velocity=110 time=0
EXTRACT: note_on channel=7 note=43 velocity=0 time=0.0312499921875
EXTRACT: note_on channel=2 note=98 velocity=0 time=0.044836945312499994
EXTRACT: note_on channel=9 note=36 velocity=0 time=0.0529891171875
EXTRACT: control_change channel=6 control=64 value=127 time=0.065217375
EXTRACT: note_on channel=9 note=46 velocity=0 time=0.014945648437499999
EXTRACT: note_on channel=7 note=31 velocity=0 time=0.01630434375
EXTRACT: note_on channel=7 note=43 velocity=127 time=0.03532607812499999
EXTRACT: note_on channel=9 note=70 velocity=37 time=0
EXTRACT: note_on channel=7 note=43 velocity=0 time=0.07065215624999999
EXTRACT: note_on channel=9 note=70 velocity=0 time=0.019021734375
EXTRACT: note_on channel=2 note=98 velocity=79 time=0.17119560937499997
EXTRACT: note_on channel=7 note=34 velocity=127 time=0
EXTRACT: note_on channel=9 note=44 velocity=110 time=0
EXTRACT: note_on channel=9 note=36 velocity=114 time=0
EXTRACT: note_on channel=9 note=39 velocity=94 time=0
EXTRACT: note_on channel=9 note=40 velocity=104 time=0
EXTRACT: control_change channel=6 control=64 value=0 time=0.06114128906249999
EXTRACT: control_change channel=6 control=64 value=127 time=0.006793476562499999
EXTRACT: note_on channel=2 note=98 velocity=0 time=0.0013586953124999999
EXTRACT: note_on channel=6 note=55 velocity=0 time=0.0027173906249999998
EXTRACT: control_change channel=6 control=64 value=0 time=0.0013586953124999999
EXTRACT: note_on channel=6 note=58 velocity=0 time=0.006793476562499999
EXTRACT: note_on channel=6 note=65 velocity=0 time=0.006793476562499999
EXTRACT: note_on channel=6 note=62 velocity=0 time=0.0095108671875
EXTRACT: note_on channel=9 note=39 velocity=0 time=0.0095108671875
EXTRACT: note_on channel=9 note=36 velocity=0 time=0.01630434375
EXTRACT: note_on channel=9 note=40 velocity=0 time=0.033967382812499995
EXTRACT: note_on channel=9 note=44 velocity=0 time=0.023097820312499996
EXTRACT: note_on channel=7 note=34 velocity=0 time=0.05706520312499999
EXTRACT: note_on channel=6 note=65 velocity=94 time=0.024456515624999998
EXTRACT: note_on channel=6 note=55 velocity=79 time=0
EXTRACT: note_on channel=6 note=58 velocity=94 time=0
EXTRACT: note_on channel=6 note=62 velocity=104 time=0
EXTRACT: note_on channel=7 note=39 velocity=115 time=0
EXTRACT: note_on channel=9 note=42 velocity=35 time=0
EXTRACT: control_change channel=6 control=64 value=127 time=0.07472824218749999
EXTRACT: note_on channel=9 note=42 velocity=0 time=0.01630434375
EXTRACT: note_on channel=2 note=98 velocity=79 time=0.16983691406249998
EXTRACT: note_on channel=9 note=44 velocity=110 time=0
EXTRACT: note_on channel=9 note=36 velocity=114 time=0
EXTRACT: note_on channel=7 note=39 velocity=0 time=0.0312499921875
EXTRACT: note_on channel=2 note=98 velocity=0 time=0.039402164062499995
EXTRACT: note_on channel=9 note=36 velocity=0 time=0.0421195546875
EXTRACT: note_on channel=9 note=44 velocity=0 time=0.06385867968749999
EXTRACT: note_on channel=7 note=51 velocity=127 time=0.084239109375
EXTRACT: note_on channel=9 note=42 velocity=45 time=0
EXTRACT: note_on channel=7 note=51 velocity=0 time=0.0421195546875
EXTRACT: note_on channel=9 note=42 velocity=0 time=0.08695649999999999
EXTRACT: note_on channel=2 note=98 velocity=68 time=0.13179344531249998
EXTRACT: note_on channel=7 note=39 velocity=115 time=0
EXTRACT: note_on channel=9 note=44 velocity=110 time=0
EXTRACT: note_on channel=9 note=36 velocity=114 time=0
EXTRACT: note_on channel=9 note=40 velocity=115 time=0
EXTRACT: note_on channel=9 note=39 velocity=94 time=0
EXTRACT: note_on channel=2 note=98 velocity=0 time=0.06385867968749999
EXTRACT: note_on channel=9 note=39 velocity=0 time=0.033967382812499995
EXTRACT: note_on channel=9 note=36 velocity=0 time=0.017663039062499997
EXTRACT: note_on channel=9 note=44 velocity=0 time=0.008152171875
EXTRACT: note_on channel=9 note=40 velocity=0 time=0.0013586953124999999
EXTRACT: note_on channel=9 note=42 velocity=53 time=0.13586953124999998
EXTRACT: note_on channel=7 note=39 velocity=0 time=0.04619564062499999
EXTRACT: note_on channel=6 note=62 velocity=0 time=0.048913031249999996
EXTRACT: note_on channel=6 note=65 velocity=0 time=0.006793476562499999
EXTRACT: note_on channel=6 note=58 velocity=0 time=0.014945648437499999
EXTRACT: note_on channel=9 note=42 velocity=0 time=0.0054347812499999995
EXTRACT: note_on channel=7 note=39 velocity=79 time=0.008152171875
EXTRACT: note_on channel=6 note=55 velocity=0 time=0.006793476562499999
EXTRACT: control_change channel=6 control=64 value=0 time=0.0095108671875
EXTRACT: control_change channel=6 control=64 value=127 time=0.006793476562499999
EXTRACT: control_change channel=6 control=64 value=0 time=0.0054347812499999995
EXTRACT: note_on channel=7 note=39 velocity=0 time=0.0991847578125
EXTRACT: note_on channel=2 note=98 velocity=63 time=0.0027173906249999998
EXTRACT: note_on channel=6 note=62 velocity=104 time=0
EXTRACT: note_on channel=6 note=65 velocity=104 time=0
EXTRACT: note_on channel=6 note=57 velocity=94 time=0
EXTRACT: note_on channel=6 note=60 velocity=104 time=0
EXTRACT: note_on channel=7 note=41 velocity=127 time=0
EXTRACT: note_on channel=9 note=36 velocity=114 time=0
EXTRACT: note_on channel=9 note=44 velocity=110 time=0
EXTRACT: note_on channel=2 note=98 velocity=0 time=0.07472824218749999
EXTRACT: note_on channel=9 note=36 velocity=0 time=0.050271726562499994
EXTRACT: control_change channel=6 control=64 value=127 time=0.013586953124999999
EXTRACT: note_on channel=7 note=41 velocity=0 time=0.0203804296875
EXTRACT: note_on channel=9 note=44 velocity=0 time=0.033967382812499995
EXTRACT: note_on channel=9 note=42 velocity=53 time=0.06793476562499999
EXTRACT: note_on channel=9 note=42 velocity=0 time=0.1209238828125
EXTRACT: note_on channel=2 note=98 velocity=58 time=0.13994561718749998
EXTRACT: note_on channel=7 note=41 velocity=127 time=0
EXTRACT: note_on channel=9 note=36 velocity=114 time=0
EXTRACT: note_on channel=9 note=44 velocity=110 time=0
EXTRACT: note_on channel=9 note=39 velocity=94 time=0
EXTRACT: note_on channel=9 note=40 velocity=115 time=0
EXTRACT: note_on channel=2 note=98 velocity=0 time=0.062499984375
EXTRACT: note_on channel=9 note=36 velocity=0 time=0.039402164062499995
EXTRACT: note_on channel=9 note=39 velocity=0 time=0.0027173906249999998
EXTRACT: note_on channel=9 note=40 velocity=0 time=0.006793476562499999
EXTRACT: note_on channel=9 note=44 velocity=0 time=0.0883151953125
EXTRACT: note_on channel=9 note=42 velocity=33 time=0.06114128906249999
EXTRACT: pitchwheel channel=7 pitch=-1408 time=0.10190214843749999
EXTRACT: pitchwheel channel=7 pitch=-7296 time=0.014945648437499999
EXTRACT: pitchwheel channel=7 pitch=-8192 time=0.01630434375
EXTRACT: note_on channel=9 note=42 velocity=0 time=0.0040760859375
EXTRACT: control_change channel=6 control=64 value=0 time=0.0054347812499999995
EXTRACT: note_on channel=6 note=57 velocity=0 time=0.0027173906249999998
EXTRACT: control_change channel=6 control=64 value=127 time=0.0027173906249999998
EXTRACT: note_on channel=6 note=65 velocity=0 time=0.0095108671875
EXTRACT: control_change channel=6 control=64 value=0 time=0.0013586953124999999
EXTRACT: note_on channel=6 note=62 velocity=0 time=0.006793476562499999
EXTRACT: note_on channel=6 note=60 velocity=0 time=0.008152171875
EXTRACT: pitchwheel channel=7 pitch=-3712 time=0.03804346875
EXTRACT: pitchwheel channel=7 pitch=0 time=0.014945648437499999
EXTRACT: note_on channel=2 note=98 velocity=53 time=0.033967382812499995
EXTRACT: note_on channel=6 note=57 velocity=86 time=0
EXTRACT: note_on channel=6 note=60 velocity=94 time=0
EXTRACT: note_on channel=6 note=62 velocity=94 time=0
EXTRACT: note_on channel=6 note=65 velocity=94 time=0
EXTRACT: note_on channel=7 note=38 velocity=127 time=0
EXTRACT: note_on channel=9 note=44 velocity=110 time=0
EXTRACT: note_on channel=9 note=36 velocity=115 time=0
EXTRACT: note_on channel=7 note=41 velocity=0 time=0.0258152109375
EXTRACT: note_on channel=2 note=98 velocity=0 time=0.048913031249999996
EXTRACT: control_change channel=6 control=64 value=127 time=0.0027173906249999998
EXTRACT: note_on channel=7 note=38 velocity=0 time=0.013586953124999999
EXTRACT: note_on channel=9 note=36 velocity=0 time=0.0013586953124999999
EXTRACT: note_on channel=9 note=44 velocity=0 time=0.09239128124999998
EXTRACT: note_on channel=7 note=38 velocity=127 time=0.0760869375
EXTRACT: note_on channel=9 note=42 velocity=33 time=0
EXTRACT: note_on channel=9 note=85 velocity=104 time=0
EXTRACT: note_on channel=9 note=39 velocity=53 time=0
EXTRACT: note_on channel=7 note=38 velocity=0 time=0.07201085156249999
EXTRACT: note_on channel=9 note=85 velocity=0 time=0.019021734375
EXTRACT: note_on channel=9 note=39 velocity=0 time=0.019021734375
EXTRACT: note_on channel=9 note=42 velocity=0 time=0.010869562499999999
EXTRACT: note_on channel=2 note=98 velocity=48 time=0.13994561718749998
EXTRACT: note_on channel=7 note=38 velocity=127 time=0
EXTRACT: note_on channel=9 note=44 velocity=110 time=0
EXTRACT: note_on channel=9 note=36 velocity=114 time=0
EXTRACT: note_on channel=9 note=39 velocity=104 time=0
EXTRACT: note_on channel=9 note=40 velocity=104 time=0
EXTRACT: note_on channel=2 note=98 velocity=0 time=0.058423898437499996
EXTRACT: note_on channel=7 note=39 velocity=51 time=0.006793476562499999
EXTRACT: note_on channel=9 note=39 velocity=0 time=0.0040760859375
EXTRACT: note_on channel=6 note=57 velocity=0 time=0.0040760859375
EXTRACT: note_on channel=7 note=39 velocity=0 time=0.008152171875
EXTRACT: note_on channel=9 note=36 velocity=0 time=0.021739124999999998
EXTRACT: note_on channel=9 note=40 velocity=0 time=0.0013586953124999999
EXTRACT: note_on channel=6 note=65 velocity=0 time=0.008152171875
EXTRACT: note_on channel=6 note=60 velocity=0 time=0.0054347812499999995
EXTRACT: note_on channel=6 note=62 velocity=0 time=0.010869562499999999
EXTRACT: note_on channel=9 note=44 velocity=0 time=0.033967382812499995
EXTRACT: note_on channel=7 note=36 velocity=115 time=0.09782606249999999
EXTRACT: note_on channel=9 note=42 velocity=33 time=0
EXTRACT: note_on channel=7 note=38 velocity=0 time=0.0013586953124999999
EXTRACT: note_on channel=9 note=42 velocity=0 time=0.10869562499999999
EXTRACT: note_on channel=7 note=36 velocity=0 time=0.0054347812499999995
EXTRACT: note_on channel=7 note=38 velocity=127 time=0.014945648437499999
EXTRACT: control_change channel=6 control=64 value=0 time=0.08695649999999999
EXTRACT: control_change channel=6 control=64 value=127 time=0.0013586953124999999
EXTRACT: control_change channel=6 control=64 value=0 time=0.006793476562499999
EXTRACT: note_on channel=7 note=38 velocity=0 time=0.023097820312499996
EXTRACT: note_on channel=6 note=69 velocity=104 time=0.012228257812499999
EXTRACT: note_on channel=6 note=60 velocity=94 time=0
EXTRACT: note_on channel=6 note=62 velocity=94 time=0
EXTRACT: note_on channel=7 note=31 velocity=115 time=0
EXTRACT: note_on channel=9 note=46 velocity=115 time=0
EXTRACT: note_on channel=9 note=36 velocity=110 time=0
EXTRACT: note_on channel=9 note=36 velocity=0 time=0.1290760546875
EXTRACT: control_change channel=6 control=64 value=127 time=0.023097820312499996
EXTRACT: note_on channel=9 note=46 velocity=0 time=0.05706520312499999
EXTRACT: note_on channel=6 note=69 velocity=0 time=0.0013586953124999999
EXTRACT: note_on channel=7 note=31 velocity=0 time=0.013586953124999999
EXTRACT: note_on channel=6 note=67 velocity=73 time=0.0366847734375
EXTRACT: note_on channel=7 note=43 velocity=127 time=0
EXTRACT: note_on channel=9 note=70 velocity=37 time=0
EXTRACT: note_on channel=6 note=62 velocity=0 time=0.051630421875
EXTRACT: note_on channel=7 note=43 velocity=0 time=0.0054347812499999995
EXTRACT: note_on channel=9 note=70 velocity=0 time=0.0326086875
EXTRACT: note_on channel=6 note=67 velocity=0 time=0.09646736718749999
EXTRACT: note_on channel=6 note=65 velocity=104 time=0.07472824218749999
EXTRACT: note_on channel=7 note=34 velocity=115 time=0
EXTRACT: note_on channel=9 note=44 velocity=110 time=0
EXTRACT: note_on channel=9 note=36 velocity=114 time=0
EXTRACT: note_on channel=9 note=39 velocity=94 time=0
EXTRACT: note_on channel=9 note=40 velocity=104 time=0
EXTRACT: note_on channel=6 note=65 velocity=0 time=0.0883151953125
EXTRACT: control_change channel=6 control=64 value=0 time=0.006793476562499999
EXTRACT: note_on channel=6 note=60 velocity=0 time=0.0013586953124999999
EXTRACT: control_change channel=6 control=64 value=127 time=0.008152171875
EXTRACT: note_on channel=9 note=39 velocity=0 time=0.0013586953124999999
EXTRACT: control_change channel=6 control=64 value=0 time=0.0027173906249999998
EXTRACT: control_change channel=6 control=64 value=127 time=0.008152171875
EXTRACT: control_change channel=6 control=64 value=0 time=0.0040760859375
EXTRACT: note_on channel=9 note=36 velocity=0 time=0.0013586953124999999
EXTRACT: note_on channel=9 note=40 velocity=0 time=0.033967382812499995
EXTRACT: note_on channel=9 note=44 velocity=0 time=0.023097820312499996
EXTRACT: note_on channel=7 note=34 velocity=0 time=0.054347812499999995
EXTRACT: note_on channel=6 note=67 velocity=86 time=0.027173906249999998
EXTRACT: note_on channel=6 note=62 velocity=104 time=0
EXTRACT: note_on channel=6 note=58 velocity=104 time=0
EXTRACT: note_on channel=7 note=39 velocity=127 time=0
EXTRACT: note_on channel=9 note=42 velocity=35 time=0
EXTRACT: note_on channel=9 note=42 velocity=0 time=0.0910325859375
EXTRACT: control_change channel=6 control=64 value=127 time=0.06385867968749999
EXTRACT: note_on channel=9 note=44 velocity=110 time=0.105978234375
EXTRACT: note_on channel=9 note=36 velocity=114 time=0
EXTRACT: note_on channel=7 note=39 velocity=0 time=0.048913031249999996
EXTRACT: note_on channel=9 note=36 velocity=0 time=0.06385867968749999
EXTRACT: note_on channel=9 note=44 velocity=0 time=0.06385867968749999
EXTRACT: note_on channel=7 note=51 velocity=127 time=0.084239109375
EXTRACT: note_on channel=9 note=42 velocity=45 time=0
EXTRACT: note_on channel=7 note=51 velocity=0 time=0.0529891171875
EXTRACT: note_on channel=9 note=42 velocity=0 time=0.0760869375
EXTRACT: note_on channel=7 note=39 velocity=127 time=0.13179344531249998
EXTRACT: note_on channel=9 note=44 velocity=110 time=0
EXTRACT: note_on channel=9 note=36 velocity=114 time=0
EXTRACT: note_on channel=9 note=40 velocity=115 time=0
EXTRACT: note_on channel=9 note=39 velocity=94 time=0
EXTRACT: note_on channel=6 note=58 velocity=0 time=0.028532601562499996
EXTRACT: note_on channel=6 note=67 velocity=0 time=0.013586953124999999
EXTRACT: note_on channel=6 note=62 velocity=0 time=0.0095108671875
EXTRACT: note_on channel=9 note=39 velocity=0 time=0.04619564062499999
EXTRACT: note_on channel=9 note=36 velocity=0 time=0.017663039062499997
EXTRACT: note_on channel=9 note=44 velocity=0 time=0.008152171875
EXTRACT: note_on channel=9 note=40 velocity=0 time=0.0013586953124999999
EXTRACT: note_on channel=9 note=42 velocity=53 time=0.13586953124999998
EXTRACT: note_on channel=9 note=42 velocity=0 time=0.12228257812499999
EXTRACT: note_on channel=7 note=43 velocity=104 time=0.008152171875
EXTRACT: note_on channel=7 note=39 velocity=0 time=0.019021734375
EXTRACT: control_change channel=6 control=64 value=0 time=0.06114128906249999
EXTRACT: control_change channel=6 control=64 value=127 time=0.006793476562499999
EXTRACT: control_change channel=6 control=64 value=0 time=0.0040760859375
EXTRACT: note_on channel=6 note=55 velocity=115 time=0.039402164062499995
EXTRACT: note_on channel=6 note=64 velocity=104 time=0
EXTRACT: note_on channel=6 note=60 velocity=115 time=0
EXTRACT: note_on channel=7 note=45 velocity=104 time=0
EXTRACT: note_on channel=9 note=36 velocity=114 time=0
EXTRACT: note_on channel=9 note=44 velocity=110 time=0
EXTRACT: note_on channel=7 note=43 velocity=0 time=0.0013586953124999999
EXTRACT: note_on channel=7 note=45 velocity=0 time=0.11277171093749999
EXTRACT: note_on channel=9 note=36 velocity=0 time=0.010869562499999999
EXTRACT: note_on channel=7 note=43 velocity=115 time=0.0054347812499999995
EXTRACT: note_on channel=9 note=44 velocity=0 time=0.062499984375
EXTRACT: note_on channel=7 note=43 velocity=0 time=0.05706520312499999
EXTRACT: note_on channel=7 note=45 velocity=104 time=0.010869562499999999
EXTRACT: note_on channel=9 note=42 velocity=53 time=0
EXTRACT: note_on channel=9 note=42 velocity=0 time=0.1209238828125
EXTRACT: note_on channel=7 note=43 velocity=104 time=0.0095108671875
EXTRACT: note_on channel=7 note=45 velocity=0 time=0.0040760859375
EXTRACT: note_on channel=7 note=43 velocity=0 time=0.11820649218749998
EXTRACT: note_on channel=7 note=45 velocity=127 time=0.008152171875
EXTRACT: note_on channel=9 note=36 velocity=114 time=0
EXTRACT: note_on channel=9 note=44 velocity=110 time=0
EXTRACT: note_on channel=9 note=39 velocity=94 time=0
EXTRACT: note_on channel=9 note=40 velocity=115 time=0
EXTRACT: control_change channel=6 control=64 value=127 time=0.0027173906249999998
EXTRACT: note_on channel=9 note=36 velocity=0 time=0.0991847578125
EXTRACT: note_on channel=9 note=39 velocity=0 time=0.0027173906249999998
EXTRACT: note_on channel=9 note=40 velocity=0 time=0.006793476562499999
EXTRACT: note_on channel=9 note=44 velocity=0 time=0.0883151953125
EXTRACT: note_on channel=6 note=55 velocity=0 time=0.0421195546875
EXTRACT: note_on channel=7 note=45 velocity=0 time=0
EXTRACT: note_on channel=9 note=42 velocity=33 time=0.019021734375
EXTRACT: note_on channel=6 note=64 velocity=0 time=0.008152171875
EXTRACT: note_on channel=6 note=60 velocity=0 time=0.023097820312499996
EXTRACT: note_on channel=7 note=43 velocity=127 time=0.0991847578125
EXTRACT: note_on channel=9 note=42 velocity=0 time=0.006793476562499999
EXTRACT: control_change channel=6 control=64 value=0 time=0.023097820312499996
EXTRACT: control_change channel=6 control=64 value=127 time=0.0095108671875
EXTRACT: control_change channel=6 control=64 value=0 time=0.0040760859375
EXTRACT: note_on channel=7 note=43 velocity=0 time=0.043478249999999996
EXTRACT: note_on channel=6 note=64 velocity=104 time=0.043478249999999996
EXTRACT: note_on channel=6 note=55 velocity=104 time=0
EXTRACT: note_on channel=6 note=60 velocity=104 time=0
EXTRACT: note_on channel=7 note=45 velocity=115 time=0
EXTRACT: note_on channel=9 note=44 velocity=110 time=0
EXTRACT: note_on channel=9 note=36 velocity=115 time=0
EXTRACT: note_on channel=9 note=36 velocity=0 time=0.09239128124999998
EXTRACT: note_on channel=7 note=45 velocity=0 time=0.0095108671875
EXTRACT: control_change channel=6 control=64 value=127 time=0.0665760703125
EXTRACT: note_on channel=9 note=44 velocity=0 time=0.01630434375
EXTRACT: note_on channel=7 note=38 velocity=127 time=0.0760869375
EXTRACT: note_on channel=9 note=42 velocity=33 time=0
EXTRACT: note_on channel=9 note=85 velocity=104 time=0
EXTRACT: note_on channel=9 note=39 velocity=53 time=0
EXTRACT: note_on channel=9 note=85 velocity=0 time=0.0910325859375
EXTRACT: note_on channel=9 note=39 velocity=0 time=0.019021734375
EXTRACT: note_on channel=9 note=42 velocity=0 time=0.010869562499999999
EXTRACT: note_on channel=6 note=55 velocity=0 time=0.105978234375
EXTRACT: note_on channel=7 note=38 velocity=0 time=0.0027173906249999998
EXTRACT: note_on channel=6 note=64 velocity=0 time=0.01630434375
EXTRACT: note_on channel=6 note=60 velocity=0 time=0.006793476562499999
EXTRACT: note_on channel=7 note=41 velocity=127 time=0.008152171875
EXTRACT: note_on channel=9 note=44 velocity=110 time=0
EXTRACT: note_on channel=9 note=36 velocity=114 time=0
EXTRACT: note_on channel=9 note=39 velocity=104 time=0
EXTRACT: note_on channel=9 note=40 velocity=104 time=0
EXTRACT: note_on channel=9 note=39 velocity=0 time=0.0692934609375
EXTRACT: note_on channel=9 note=36 velocity=0 time=0.033967382812499995
EXTRACT: note_on channel=9 note=40 velocity=0 time=0.0013586953124999999
EXTRACT: note_on channel=9 note=44 velocity=0 time=0.058423898437499996
EXTRACT: note_on channel=7 note=43 velocity=115 time=0.09782606249999999
EXTRACT: note_on channel=9 note=42 velocity=33 time=0
EXTRACT: note_on channel=7 note=41 velocity=0 time=0.0013586953124999999
EXTRACT: control_change channel=6 control=64 value=0 time=0.08695649999999999
EXTRACT: control_change channel=6 control=64 value=127 time=0.008152171875
EXTRACT: control_change channel=6 control=64 value=0 time=0.0054347812499999995
EXTRACT: note_on channel=9 note=42 velocity=0 time=0.008152171875
EXTRACT: note_on channel=2 note=98 velocity=86 time=0.1508151796875
EXTRACT: note_on channel=6 note=58 velocity=104 time=0
EXTRACT: note_on channel=6 note=55 velocity=94 time=0
EXTRACT: note_on channel=6 note=65 velocity=94 time=0
EXTRACT: note_on channel=6 note=62 velocity=94 time=0
EXTRACT: note_on channel=7 note=31 velocity=127 time=0
EXTRACT: note_on channel=9 note=46 velocity=115 time=0
EXTRACT: note_on channel=9 note=36 velocity=110 time=0
EXTRACT: note_on channel=7 note=43 velocity=0 time=0.019021734375
EXTRACT: note_on channel=2 note=98 velocity=0 time=0.05706520312499999
EXTRACT: note_on channel=9 note=36 velocity=0 time=0.0529891171875
EXTRACT: aftertouch channel=7 value=6 time=0.013586953124999999
EXTRACT: aftertouch channel=7 value=2 time=0.0258152109375
EXTRACT: aftertouch channel=7 value=0 time=0.014945648437499999
EXTRACT: control_change channel=6 control=64 value=127 time=0.010869562499999999
EXTRACT: note_on channel=7 note=31 velocity=0 time=0.0040760859375
EXTRACT: aftertouch channel=7 value=0 time=0.0027173906249999998
EXTRACT: note_on channel=9 note=46 velocity=0 time=0.008152171875
EXTRACT: note_on channel=7 note=43 velocity=127 time=0.051630421875
EXTRACT: note_on channel=9 note=70 velocity=37 time=0
EXTRACT: note_on channel=9 note=70 velocity=0 time=0.08967389062499999
EXTRACT: note_on channel=7 note=43 velocity=0 time=0.0027173906249999998
EXTRACT: note_on channel=2 note=98 velocity=79 time=0.16847821875
EXTRACT: note_on channel=7 note=34 velocity=127 time=0
EXTRACT: note_on channel=9 note=44 velocity=110 time=0
EXTRACT: note_on channel=9 note=36 velocity=114 time=0
EXTRACT: note_on channel=9 note=39 velocity=94 time=0
EXTRACT: note_on channel=9 note=40 velocity=104 time=0
EXTRACT: control_change channel=6 control=64 value=0 time=0.06114128906249999
EXTRACT: control_change channel=6 control=64 value=127 time=0.006793476562499999
EXTRACT: note_on channel=2 note=98 velocity=0 time=0.0013586953124999999
EXTRACT: note_on channel=6 note=55 velocity=0 time=0.0027173906249999998
EXTRACT: control_change channel=6 control=64 value=0 time=0.0013586953124999999
EXTRACT: note_on channel=6 note=58 velocity=0 time=0.006793476562499999
EXTRACT: note_on channel=6 note=65 velocity=0 time=0.006793476562499999
EXTRACT: note_on channel=6 note=62 velocity=0 time=0.0095108671875
EXTRACT: note_on channel=9 note=39 velocity=0 time=0.0095108671875
EXTRACT: note_on channel=9 note=36 velocity=0 time=0.01630434375
EXTRACT: note_on channel=9 note=40 velocity=0 time=0.033967382812499995
EXTRACT: note_on channel=9 note=44 velocity=0 time=0.023097820312499996
EXTRACT: note_on channel=7 note=34 velocity=0 time=0.0421195546875
EXTRACT: note_on channel=6 note=65 velocity=94 time=0.039402164062499995
EXTRACT: note_on channel=6 note=55 velocity=79 time=0
EXTRACT: note_on channel=6 note=58 velocity=94 time=0
EXTRACT: note_on channel=6 note=62 velocity=104 time=0
EXTRACT: note_on channel=7 note=39 velocity=127 time=0
EXTRACT: note_on channel=9 note=42 velocity=35 time=0
EXTRACT: control_change channel=6 control=64 value=127 time=0.07472824218749999
EXTRACT: note_on channel=9 note=42 velocity=0 time=0.01630434375
EXTRACT: note_on channel=1 note=55 velocity=115 time=0.16983691406249998
EXTRACT: note_on channel=1 note=67 velocity=115 time=0
EXTRACT: note_on channel=2 note=98 velocity=79 time=0
EXTRACT: note_on channel=9 note=44 velocity=110 time=0
EXTRACT: note_on channel=9 note=36 velocity=114 time=0
EXTRACT: note_on channel=7 note=39 velocity=0 time=0.050271726562499994
EXTRACT: note_on channel=7 note=39 velocity=47 time=0.014945648437499999
EXTRACT: note_on channel=2 note=98 velocity=0 time=0.0054347812499999995
EXTRACT: note_on channel=7 note=39 velocity=0 time=0.010869562499999999
EXTRACT: note_on channel=9 note=36 velocity=0 time=0.0312499921875
EXTRACT: note_on channel=1 note=67 velocity=0 time=0.0095108671875
EXTRACT: note_on channel=1 note=55 velocity=0 time=0
EXTRACT: note_on channel=9 note=44 velocity=0 time=0.054347812499999995
EXTRACT: note_on channel=1 note=55 velocity=104 time=0.084239109375
EXTRACT: note_on channel=1 note=67 velocity=104 time=0
EXTRACT: note_on channel=7 note=51 velocity=127 time=0
EXTRACT: note_on channel=9 note=42 velocity=45 time=0
EXTRACT: note_on channel=7 note=51 velocity=0 time=0.03804346875
EXTRACT: note_on channel=9 note=42 velocity=0 time=0.0910325859375
EXTRACT: note_on channel=1 note=67 velocity=0 time=0.012228257812499999
EXTRACT: note_on channel=1 note=55 velocity=0 time=0
EXTRACT: note_on channel=1 note=58 velocity=127 time=0.11956518749999999
EXTRACT: note_on channel=1 note=70 velocity=127 time=0
EXTRACT: note_on channel=2 note=98 velocity=68 time=0
EXTRACT: note_on channel=7 note=39 velocity=127 time=0
EXTRACT: note_on channel=9 note=44 velocity=110 time=0
EXTRACT: note_on channel=9 note=36 velocity=114 time=0
EXTRACT: note_on channel=9 note=40 velocity=115 time=0
EXTRACT: note_on channel=9 note=39 velocity=94 time=0
EXTRACT: note_on channel=2 note=98 velocity=0 time=0.06385867968749999
EXTRACT: note_on channel=9 note=39 velocity=0 time=0.033967382812499995
EXTRACT: note_on channel=9 note=36 velocity=0 time=0.017663039062499997
EXTRACT: note_on channel=9 note=44 velocity=0 time=0.008152171875
EXTRACT: note_on channel=9 note=40 velocity=0 time=0.0013586953124999999
EXTRACT: note_on channel=9 note=42 velocity=53 time=0.13586953124999998
EXTRACT: note_on channel=1 note=70 velocity=0 time=0.039402164062499995
EXTRACT: note_on channel=1 note=58 velocity=0 time=0
EXTRACT: note_on channel=7 note=39 velocity=0 time=0
EXTRACT: note_on channel=6 note=62 velocity=0 time=0.05570650781249999
EXTRACT: note_on channel=6 note=65 velocity=0 time=0.006793476562499999
EXTRACT: note_on channel=6 note=58 velocity=0 time=0.014945648437499999
EXTRACT: note_on channel=9 note=42 velocity=0 time=0.0054347812499999995
EXTRACT: note_on channel=1 note=55 velocity=104 time=0.008152171875
EXTRACT: note_on channel=1 note=67 velocity=104 time=0
EXTRACT: note_on channel=7 note=39 velocity=41 time=0
EXTRACT: note_on channel=6 note=55 velocity=0 time=0.006793476562499999
EXTRACT: control_change channel=6 control=64 value=0 time=0.0095108671875
EXTRACT: control_change channel=6 control=64 value=127 time=0.006793476562499999
EXTRACT: control_change channel=6 control=64 value=0 time=0.0054347812499999995
EXTRACT: note_on channel=1 note=67 velocity=0 time=0.07472824218749999
EXTRACT: note_on channel=1 note=55 velocity=0 time=0
EXTRACT: note_on channel=7 note=39 velocity=0 time=0.010869562499999999
EXTRACT: note_on channel=1 note=62 velocity=115 time=0.01630434375
EXTRACT: note_on channel=1 note=74 velocity=115 time=0
EXTRACT: note_on channel=2 note=98 velocity=63 time=0
EXTRACT: note_on channel=6 note=62 velocity=104 time=0
EXTRACT: note_on channel=6 note=65 velocity=104 time=0
EXTRACT: note_on channel=6 note=57 velocity=94 time=0
EXTRACT: note_on channel=6 note=60 velocity=104 time=0
EXTRACT: note_on channel=7 note=41 velocity=127 time=0
EXTRACT: note_on channel=9 note=36 velocity=114 time=0
EXTRACT: note_on channel=9 note=44 velocity=110 time=0
EXTRACT: note_on channel=2 note=98 velocity=0 time=0.07472824218749999
EXTRACT: note_on channel=1 note=74 velocity=0 time=0.029891296874999997
EXTRACT: note_on channel=1 note=62 velocity=0 time=0
EXTRACT: note_on channel=9 note=36 velocity=0 time=0.0203804296875
EXTRACT: control_change channel=6 control=64 value=127 time=0.013586953124999999
EXTRACT: note_on channel=7 note=41 velocity=0 time=0.03804346875
EXTRACT: note_on channel=9 note=44 velocity=0 time=0.01630434375
EXTRACT: note_on channel=1 note=62 velocity=94 time=0.06793476562499999
EXTRACT: note_on channel=1 note=74 velocity=94 time=0
EXTRACT: note_on channel=9 note=42 velocity=53 time=0
EXTRACT: note_on channel=9 note=42 velocity=0 time=0.1209238828125
EXTRACT: note_on channel=1 note=74 velocity=0 time=0.0095108671875
EXTRACT: note_on channel=1 note=62 velocity=0 time=0
EXTRACT: note_on channel=1 note=62 velocity=127 time=0.13043475
EXTRACT: note_on channel=1 note=74 velocity=127 time=0
EXTRACT: note_on channel=2 note=98 velocity=58 time=0
EXTRACT: note_on channel=7 note=41 velocity=127 time=0
EXTRACT: note_on channel=9 note=36 velocity=114 time=0
EXTRACT: note_on channel=9 note=44 velocity=110 time=0
EXTRACT: note_on channel=9 note=39 velocity=94 time=0
EXTRACT: note_on channel=9 note=40 velocity=115 time=0
EXTRACT: note_on channel=2 note=98 velocity=0 time=0.062499984375
EXTRACT: note_on channel=9 note=36 velocity=0 time=0.039402164062499995
EXTRACT: note_on channel=9 note=39 velocity=0 time=0.0027173906249999998
EXTRACT: note_on channel=9 note=40 velocity=0 time=0.006793476562499999
EXTRACT: note_on channel=9 note=44 velocity=0 time=0.0883151953125
EXTRACT: note_on channel=9 note=42 velocity=33 time=0.06114128906249999
EXTRACT: note_on channel=1 note=74 velocity=0 time=0.0040760859375
EXTRACT: note_on channel=1 note=62 velocity=0 time=0
EXTRACT: note_on channel=7 note=39 velocity=104 time=0.1263586640625
EXTRACT: note_on channel=9 note=42 velocity=0 time=0.006793476562499999
EXTRACT: control_change channel=6 control=64 value=0 time=0.0054347812499999995
EXTRACT: note_on channel=6 note=57 velocity=0 time=0.0027173906249999998
EXTRACT: control_change channel=6 control=64 value=127 time=0.0027173906249999998
EXTRACT: note_on channel=6 note=65 velocity=0 time=0.0095108671875
EXTRACT: control_change channel=6 control=64 value=0 time=0.0013586953124999999
EXTRACT: note_on channel=7 note=41 velocity=0 time=0.0013586953124999999
EXTRACT: note_on channel=6 note=62 velocity=0 time=0.0054347812499999995
EXTRACT: note_on channel=6 note=60 velocity=0 time=0.008152171875
EXTRACT: note_on channel=7 note=39 velocity=0 time=0.084239109375
EXTRACT: note_on channel=2 note=98 velocity=53 time=0.0027173906249999998
EXTRACT: note_on channel=6 note=57 velocity=86 time=0
EXTRACT: note_on channel=6 note=60 velocity=94 time=0
EXTRACT: note_on channel=6 note=62 velocity=94 time=0
EXTRACT: note_on channel=6 note=65 velocity=94 time=0
EXTRACT: note_on channel=7 note=38 velocity=127 time=0
EXTRACT: note_on channel=9 note=44 velocity=110 time=0
EXTRACT: note_on channel=9 note=36 velocity=115 time=0
EXTRACT: note_on channel=2 note=98 velocity=0 time=0.07472824218749999
EXTRACT: note_on channel=7 note=38 velocity=0 time=0.0013586953124999999
EXTRACT: control_change channel=6 control=64 value=127 time=0.0013586953124999999
EXTRACT: note_on channel=9 note=36 velocity=0 time=0.014945648437499999
EXTRACT: note_on channel=9 note=44 velocity=0 time=0.09239128124999998
EXTRACT: note_on channel=7 note=38 velocity=127 time=0.0760869375
EXTRACT: note_on channel=9 note=42 velocity=33 time=0
EXTRACT: note_on channel=9 note=85 velocity=104 time=0
EXTRACT: note_on channel=9 note=39 velocity=53 time=0
EXTRACT: note_on channel=7 note=38 velocity=0 time=0.059782593749999995
EXTRACT: note_on channel=9 note=85 velocity=0 time=0.0312499921875
EXTRACT: note_on channel=9 note=39 velocity=0 time=0.019021734375
EXTRACT: note_on channel=9 note=42 velocity=0 time=0.010869562499999999
EXTRACT: note_on channel=2 note=98 velocity=48 time=0.13994561718749998
EXTRACT: note_on channel=7 note=38 velocity=127 time=0
EXTRACT: note_on channel=9 note=44 velocity=110 time=0
EXTRACT: note_on channel=9 note=36 velocity=114 time=0
EXTRACT: note_on channel=9 note=39 velocity=104 time=0
EXTRACT: note_on channel=9 note=40 velocity=104 time=0
EXTRACT: note_on channel=2 note=98 velocity=0 time=0.058423898437499996
EXTRACT: note_on channel=9 note=39 velocity=0 time=0.010869562499999999
EXTRACT: note_on channel=6 note=57 velocity=0 time=0.0040760859375
EXTRACT: note_on channel=9 note=36 velocity=0 time=0.029891296874999997
EXTRACT: note_on channel=9 note=40 velocity=0 time=0.0013586953124999999
EXTRACT: note_on channel=6 note=65 velocity=0 time=0.008152171875
EXTRACT: note_on channel=6 note=60 velocity=0 time=0.0054347812499999995
EXTRACT: note_on channel=6 note=62 velocity=0 time=0.010869562499999999
EXTRACT: note_on channel=9 note=44 velocity=0 time=0.033967382812499995
EXTRACT: note_on channel=7 note=36 velocity=115 time=0.09782606249999999
EXTRACT: note_on channel=9 note=42 velocity=33 time=0
EXTRACT: note_on channel=7 note=38 velocity=0 time=0.028532601562499996
EXTRACT: note_on channel=7 note=36 velocity=0 time=0.07880432812499999
EXTRACT: note_on channel=9 note=42 velocity=0 time=0.0027173906249999998
EXTRACT: note_on channel=7 note=38 velocity=115 time=0.0203804296875
EXTRACT: control_change channel=6 control=64 value=0 time=0.08695649999999999
EXTRACT: control_change channel=6 control=64 value=127 time=0.0013586953124999999
EXTRACT: control_change channel=6 control=64 value=0 time=0.006793476562499999
EXTRACT: note_on channel=6 note=69 velocity=104 time=0.03532607812499999
EXTRACT: note_on channel=6 note=60 velocity=94 time=0
EXTRACT: note_on channel=6 note=62 velocity=94 time=0
EXTRACT: note_on channel=7 note=31 velocity=115 time=0
EXTRACT: note_on channel=9 note=46 velocity=115 time=0
EXTRACT: note_on channel=9 note=36 velocity=110 time=0
EXTRACT: note_on channel=7 note=38 velocity=0 time=0.014945648437499999
EXTRACT: note_on channel=9 note=36 velocity=0 time=0.11413040624999998
EXTRACT: control_change channel=6 control=64 value=127 time=0.023097820312499996
EXTRACT: aftertouch channel=7 value=2 time=0.0027173906249999998
EXTRACT: pitchwheel channel=7 pitch=0 time=0.010869562499999999
EXTRACT: aftertouch channel=7 value=0 time=0.0054347812499999995
EXTRACT: note_on channel=9 note=46 velocity=0 time=0.03804346875
EXTRACT: note_on channel=6 note=69 velocity=0 time=0.0013586953124999999
EXTRACT: note_on channel=7 note=31 velocity=0 time=0.043478249999999996
EXTRACT: note_on channel=6 note=67 velocity=73 time=0.006793476562499999
EXTRACT: note_on channel=7 note=43 velocity=127 time=0
EXTRACT: note_on channel=9 note=70 velocity=37 time=0
EXTRACT: note_on channel=7 note=43 velocity=0 time=0.048913031249999996
EXTRACT: note_on channel=6 note=62 velocity=0 time=0.0027173906249999998
EXTRACT: note_on channel=9 note=70 velocity=0 time=0.03804346875
EXTRACT: note_on channel=6 note=67 velocity=0 time=0.09646736718749999
EXTRACT: note_on channel=6 note=65 velocity=104 time=0.07472824218749999
EXTRACT: note_on channel=7 note=34 velocity=115 time=0
EXTRACT: note_on channel=9 note=44 velocity=110 time=0
EXTRACT: note_on channel=9 note=36 velocity=114 time=0
EXTRACT: note_on channel=9 note=39 velocity=94 time=0
EXTRACT: note_on channel=9 note=40 velocity=104 time=0
EXTRACT: note_on channel=6 note=65 velocity=0 time=0.0883151953125
EXTRACT: control_change channel=6 control=64 value=0 time=0.006793476562499999
EXTRACT: note_on channel=6 note=60 velocity=0 time=0.0013586953124999999
EXTRACT: control_change channel=6 control=64 value=127 time=0.008152171875
EXTRACT: note_on channel=9 note=39 velocity=0 time=0.0013586953124999999
EXTRACT: control_change channel=6 control=64 value=0 time=0.0027173906249999998
EXTRACT: control_change channel=6 control=64 value=127 time=0.008152171875
EXTRACT: control_change channel=6 control=64 value=0 time=0.0040760859375
EXTRACT: note_on channel=9 note=36 velocity=0 time=0.0013586953124999999
EXTRACT: note_on channel=9 note=40 velocity=0 time=0.033967382812499995
EXTRACT: note_on channel=9 note=44 velocity=0 time=0.023097820312499996
EXTRACT: note_on channel=7 note=34 velocity=0 time=0.065217375
EXTRACT: note_on channel=6 note=67 velocity=86 time=0.01630434375
EXTRACT: note_on channel=6 note=62 velocity=104 time=0
EXTRACT: note_on channel=6 note=58 velocity=104 time=0
EXTRACT: note_on channel=7 note=39 velocity=127 time=0
EXTRACT: note_on channel=9 note=42 velocity=35 time=0
EXTRACT: note_on channel=9 note=42 velocity=0 time=0.0910325859375
EXTRACT: note_on channel=1 note=55 velocity=104 time=0.039402164062499995
EXTRACT: note_on channel=1 note=67 velocity=104 time=0
EXTRACT: control_change channel=6 control=64 value=127 time=0.024456515624999998
EXTRACT: note_on channel=1 note=67 velocity=0 time=0.09374997656249999
EXTRACT: note_on channel=1 note=55 velocity=0 time=0
EXTRACT: note_on channel=1 note=62 velocity=127 time=0.012228257812499999
EXTRACT: note_on channel=1 note=74 velocity=127 time=0
EXTRACT: note_on channel=9 note=44 velocity=110 time=0
EXTRACT: note_on channel=9 note=36 velocity=114 time=0
EXTRACT: note_on channel=7 note=39 velocity=0 time=0.03804346875
EXTRACT: note_on channel=7 note=39 velocity=44 time=0.027173906249999998
EXTRACT: note_on channel=7 note=39 velocity=0 time=0.013586953124999999
EXTRACT: note_on channel=9 note=36 velocity=0 time=0.033967382812499995
EXTRACT: note_on channel=1 note=74 velocity=0 time=0.0203804296875
EXTRACT: note_on channel=1 note=62 velocity=0 time=0
EXTRACT: note_on channel=9 note=44 velocity=0 time=0.043478249999999996
EXTRACT: note_on channel=1 note=63 velocity=115 time=0.084239109375
EXTRACT: note_on channel=1 note=75 velocity=115 time=0
EXTRACT: note_on channel=7 note=51 velocity=127 time=0
EXTRACT: note_on channel=9 note=42 velocity=45 time=0
EXTRACT: note_on channel=7 note=51 velocity=0 time=0.051630421875
EXTRACT: note_on channel=1 note=75 velocity=0 time=0.06793476562499999
EXTRACT: note_on channel=1 note=63 velocity=0 time=0
EXTRACT: note_on channel=9 note=42 velocity=0 time=0.0095108671875
EXTRACT: note_on channel=1 note=62 velocity=127 time=0.13179344531249998
EXTRACT: note_on channel=1 note=74 velocity=127 time=0
EXTRACT: note_on channel=7 note=39 velocity=127 time=0
EXTRACT: note_on channel=9 note=44 velocity=110 time=0
EXTRACT: note_on channel=9 note=36 velocity=114 time=0
EXTRACT: note_on channel=9 note=40 velocity=115 time=0
EXTRACT: note_on channel=9 note=39 velocity=94 time=0
EXTRACT: note_on channel=6 note=58 velocity=0 time=0.028532601562499996
EXTRACT: note_on channel=6 note=67 velocity=0 time=0.013586953124999999
EXTRACT: note_on channel=6 note=62 velocity=0 time=0.0095108671875
EXTRACT: note_on channel=9 note=39 velocity=0 time=0.04619564062499999
EXTRACT: note_on channel=9 note=36 velocity=0 time=0.017663039062499997
EXTRACT: note_on channel=9 note=44 velocity=0 time=0.008152171875
EXTRACT: note_on channel=9 note=40 velocity=0 time=0.0013586953124999999
EXTRACT: note_on channel=1 note=74 velocity=0 time=0.11413040624999998
EXTRACT: note_on channel=1 note=62 velocity=0 time=0
EXTRACT: note_on channel=1 note=58 velocity=104 time=0.021739124999999998
EXTRACT: note_on channel=1 note=70 velocity=104 time=0
EXTRACT: note_on channel=9 note=42 velocity=53 time=0
EXTRACT: note_on channel=7 note=39 velocity=0 time=0.021739124999999998
EXTRACT: note_on channel=1 note=70 velocity=0 time=0.09646736718749999
EXTRACT: note_on channel=1 note=58 velocity=0 time=0
EXTRACT: note_on channel=9 note=42 velocity=0 time=0.0040760859375
EXTRACT: note_on channel=7 note=43 velocity=115 time=0.008152171875
EXTRACT: control_change channel=6 control=64 value=0 time=0.0801630234375
EXTRACT: control_change channel=6 control=64 value=127 time=0.006793476562499999
EXTRACT: control_change channel=6 control=64 value=0 time=0.0040760859375
EXTRACT: note_on channel=7 note=43 velocity=0 time=0.0312499921875
EXTRACT: note_on channel=1 note=60 velocity=127 time=0.008152171875
EXTRACT: note_on channel=1 note=72 velocity=127 time=0
EXTRACT: note_on channel=6 note=55 velocity=115 time=0
EXTRACT: note_on channel=6 note=64 velocity=104 time=0
EXTRACT: note_on channel=6 note=60 velocity=115 time=0
EXTRACT: note_on channel=7 note=45 velocity=115 time=0
EXTRACT: note_on channel=9 note=36 velocity=114 time=0
EXTRACT: note_on channel=9 note=44 velocity=110 time=0
EXTRACT: note_on channel=9 note=36 velocity=0 time=0.12499996875
EXTRACT: note_on channel=7 note=43 velocity=104 time=0.0054347812499999995
EXTRACT: note_on channel=7 note=45 velocity=0 time=0.0040760859375
EXTRACT: note_on channel=9 note=44 velocity=0 time=0.058423898437499996
EXTRACT: note_on channel=7 note=45 velocity=104 time=0.06793476562499999
EXTRACT: note_on channel=9 note=42 velocity=53 time=0
EXTRACT: note_on channel=7 note=43 velocity=0 time=0.0095108671875
EXTRACT: note_on channel=1 note=72 velocity=0 time=0.08288041406249999
EXTRACT: note_on channel=1 note=60 velocity=0 time=0
EXTRACT: note_on channel=9 note=42 velocity=0 time=0.028532601562499996
EXTRACT: note_on channel=7 note=45 velocity=0 time=0.008152171875
EXTRACT: note_on channel=7 note=43 velocity=104 time=0.0013586953124999999
EXTRACT: note_on channel=1 note=60 velocity=115 time=0.13043475
EXTRACT: note_on channel=1 note=72 velocity=115 time=0
EXTRACT: note_on channel=7 note=45 velocity=127 time=0
EXTRACT: note_on channel=9 note=36 velocity=114 time=0
EXTRACT: note_on channel=9 note=44 velocity=110 time=0
EXTRACT: note_on channel=9 note=39 velocity=94 time=0
EXTRACT: note_on channel=9 note=40 velocity=115 time=0
EXTRACT: control_change channel=6 control=64 value=127 time=0.0027173906249999998
EXTRACT: note_on channel=7 note=43 velocity=0 time=0.0027173906249999998
EXTRACT: note_on channel=1 note=74 velocity=115 time=0.059782593749999995
EXTRACT: note_on channel=1 note=72 velocity=0 time=0.0203804296875
EXTRACT: note_on channel=1 note=60 velocity=0 time=0
EXTRACT: note_on channel=9 note=36 velocity=0 time=0.01630434375
EXTRACT: note_on channel=9 note=39 velocity=0 time=0.0027173906249999998
EXTRACT: note_on channel=9 note=40 velocity=0 time=0.006793476562499999
EXTRACT: note_on channel=1 note=62 velocity=115 time=0.019021734375
EXTRACT: note_on channel=9 note=44 velocity=0 time=0.0692934609375
EXTRACT: note_on channel=7 note=45 velocity=0 time=0.0326086875
EXTRACT: note_on channel=1 note=74 velocity=0 time=0.0054347812499999995
EXTRACT: note_on channel=6 note=55 velocity=0 time=0.0040760859375
EXTRACT: note_on channel=1 note=60 velocity=127 time=0.019021734375
EXTRACT: note_on channel=1 note=72 velocity=127 time=0
EXTRACT: note_on channel=9 note=42 velocity=33 time=0
EXTRACT: note_on channel=6 note=64 velocity=0 time=0.008152171875
EXTRACT: note_on channel=6 note=60 velocity=0 time=0.023097820312499996
EXTRACT: note_on channel=1 note=62 velocity=0 time=0.010869562499999999
EXTRACT: note_on channel=7 note=43 velocity=127 time=0.0883151953125
EXTRACT: note_on channel=9 note=42 velocity=0 time=0.006793476562499999
EXTRACT: note_on channel=1 note=72 velocity=0 time=0.01630434375
EXTRACT: note_on channel=1 note=60 velocity=0 time=0
EXTRACT: control_change channel=6 control=64 value=0 time=0.006793476562499999
EXTRACT: control_change channel=6 control=64 value=127 time=0.0095108671875
EXTRACT: control_change channel=6 control=64 value=0 time=0.0040760859375
EXTRACT: note_on channel=7 note=43 velocity=0 time=0.0258152109375
EXTRACT: note_on channel=6 note=64 velocity=104 time=0.06114128906249999
EXTRACT: note_on channel=6 note=55 velocity=104 time=0
EXTRACT: note_on channel=6 note=60 velocity=104 time=0
EXTRACT: note_on channel=7 note=45 velocity=127 time=0
EXTRACT: note_on channel=9 note=44 velocity=110 time=0
EXTRACT: note_on channel=9 note=36 velocity=115 time=0
EXTRACT: note_on channel=7 note=45 velocity=0 time=0.084239109375
EXTRACT: note_on channel=9 note=36 velocity=0 time=0.008152171875
EXTRACT: control_change channel=6 control=64 value=127 time=0.0760869375
EXTRACT: note_on channel=9 note=44 velocity=0 time=0.01630434375
EXTRACT: note_on channel=7 note=38 velocity=127 time=0.0760869375
EXTRACT: note_on channel=9 note=42 velocity=33 time=0
EXTRACT: note_on channel=9 note=85 velocity=104 time=0
EXTRACT: note_on channel=9 note=39 velocity=53 time=0
EXTRACT: note_on channel=9 note=85 velocity=0 time=0.0910325859375
EXTRACT: note_on channel=9 note=39 velocity=0 time=0.019021734375
EXTRACT: note_on channel=9 note=42 velocity=0 time=0.010869562499999999
EXTRACT: note_on channel=6 note=55 velocity=0 time=0.105978234375
EXTRACT: note_on channel=6 note=64 velocity=0 time=0.019021734375
EXTRACT: note_on channel=6 note=60 velocity=0 time=0.006793476562499999
EXTRACT: note_on channel=7 note=38 velocity=0 time=0
EXTRACT: note_on channel=7 note=41 velocity=127 time=0.008152171875
EXTRACT: note_on channel=9 note=44 velocity=110 time=0
EXTRACT: note_on channel=9 note=36 velocity=114 time=0
EXTRACT: note_on channel=9 note=39 velocity=104 time=0
EXTRACT: note_on channel=9 note=40 velocity=104 time=0
EXTRACT: note_on channel=9 note=39 velocity=0 time=0.0692934609375
EXTRACT: note_on channel=9 note=36 velocity=0 time=0.033967382812499995
EXTRACT: note_on channel=9 note=40 velocity=0 time=0.0013586953124999999
EXTRACT: note_on channel=9 note=44 velocity=0 time=0.058423898437499996
EXTRACT: note_on channel=7 note=43 velocity=127 time=0.09782606249999999
EXTRACT: note_on channel=9 note=42 velocity=33 time=0
EXTRACT: note_on channel=7 note=41 velocity=0 time=0.01630434375
EXTRACT: control_change channel=6 control=64 value=0 time=0.07201085156249999
EXTRACT: control_change channel=6 control=64 value=127 time=0.008152171875
EXTRACT: control_change channel=6 control=64 value=0 time=0.0054347812499999995
EXTRACT: note_on channel=9 note=42 velocity=0 time=0.008152171875
EXTRACT: note_on channel=2 note=98 velocity=86 time=0.1508151796875
EXTRACT: note_on channel=6 note=58 velocity=104 time=0
EXTRACT: note_on channel=6 note=55 velocity=94 time=0
EXTRACT: note_on channel=6 note=65 velocity=94 time=0
EXTRACT: note_on channel=6 note=62 velocity=94 time=0
EXTRACT: note_on channel=7 note=31 velocity=127 time=0
EXTRACT: note_on channel=9 note=46 velocity=115 time=0
EXTRACT: note_on channel=9 note=36 velocity=110 time=0
EXTRACT: note_on channel=7 note=43 velocity=0 time=0.0258152109375
EXTRACT: note_on channel=2 note=98 velocity=0 time=0.050271726562499994
EXTRACT: aftertouch channel=7 value=2 time=0.0475543359375
EXTRACT: note_on channel=9 note=36 velocity=0 time=0.0054347812499999995
EXTRACT: aftertouch channel=7 value=0 time=0.040760859375
EXTRACT: aftertouch channel=7 value=0 time=0.017663039062499997
EXTRACT: control_change channel=6 control=64 value=127 time=0.006793476562499999
EXTRACT: note_on channel=9 note=46 velocity=0 time=0.014945648437499999
EXTRACT: note_on channel=7 note=31 velocity=0 time=0.051630421875
EXTRACT: note_on channel=7 note=43 velocity=127 time=0
EXTRACT: note_on channel=9 note=70 velocity=37 time=0
EXTRACT: note_on channel=7 note=43 velocity=0 time=0.07201085156249999
EXTRACT: note_on channel=9 note=70 velocity=0 time=0.017663039062499997
EXTRACT: note_on channel=2 note=98 velocity=79 time=0.17119560937499997
EXTRACT: note_on channel=7 note=34 velocity=104 time=0
EXTRACT: note_on channel=9 note=44 velocity=110 time=0
EXTRACT: note_on channel=9 note=36 velocity=114 time=0
EXTRACT: note_on channel=9 note=39 velocity=94 time=0
EXTRACT: note_on channel=9 note=40 velocity=104 time=0
EXTRACT: control_change channel=6 control=64 value=0 time=0.06114128906249999
EXTRACT: control_change channel=6 control=64 value=127 time=0.006793476562499999
EXTRACT: note_on channel=2 note=98 velocity=0 time=0.0013586953124999999
EXTRACT: note_on channel=6 note=55 velocity=0 time=0.0027173906249999998
EXTRACT: control_change channel=6 control=64 value=0 time=0.0013586953124999999
EXTRACT: note_on channel=6 note=58 velocity=0 time=0.006793476562499999
EXTRACT: note_on channel=6 note=65 velocity=0 time=0.006793476562499999
EXTRACT: note_on channel=6 note=62 velocity=0 time=0.0095108671875
EXTRACT: note_on channel=9 note=39 velocity=0 time=0.0095108671875
EXTRACT: note_on channel=9 note=36 velocity=0 time=0.01630434375
EXTRACT: note_on channel=9 note=40 velocity=0 time=0.033967382812499995
EXTRACT: note_on channel=9 note=44 velocity=0 time=0.023097820312499996
EXTRACT: note_on channel=7 note=34 velocity=0 time=0.051630421875
EXTRACT: note_on channel=6 note=65 velocity=94 time=0.029891296874999997
EXTRACT: note_on channel=6 note=55 velocity=79 time=0
EXTRACT: note_on channel=6 note=58 velocity=94 time=0
EXTRACT: note_on channel=6 note=62 velocity=104 time=0
EXTRACT: note_on channel=7 note=39 velocity=127 time=0
EXTRACT: note_on channel=9 note=42 velocity=35 time=0
EXTRACT: control_change channel=6 control=64 value=127 time=0.07472824218749999
EXTRACT: note_on channel=9 note=42 velocity=0 time=0.01630434375
EXTRACT: note_on channel=7 note=39 velocity=0 time=0.16847821875
EXTRACT: note_on channel=1 note=55 velocity=115 time=0.0013586953124999999
EXTRACT: note_on channel=1 note=67 velocity=115 time=0
EXTRACT: note_on channel=2 note=98 velocity=79 time=0
EXTRACT: note_on channel=7 note=39 velocity=115 time=0
EXTRACT: note_on channel=9 note=44 velocity=110 time=0
EXTRACT: note_on channel=9 note=36 velocity=114 time=0
EXTRACT: note_on channel=7 note=39 velocity=0 time=0.03532607812499999
EXTRACT: note_on channel=7 note=39 velocity=51 time=0.029891296874999997
EXTRACT: note_on channel=2 note=98 velocity=0 time=0.0054347812499999995
EXTRACT: note_on channel=7 note=39 velocity=0 time=0.012228257812499999
EXTRACT: note_on channel=9 note=36 velocity=0 time=0.029891296874999997
EXTRACT: note_on channel=1 note=67 velocity=0 time=0.03532607812499999
EXTRACT: note_on channel=1 note=55 velocity=0 time=0
EXTRACT: note_on channel=9 note=44 velocity=0 time=0.028532601562499996
EXTRACT: note_on channel=1 note=55 velocity=127 time=0.084239109375
EXTRACT: note_on channel=1 note=67 velocity=127 time=0
EXTRACT: note_on channel=7 note=51 velocity=127 time=0
EXTRACT: note_on channel=9 note=42 velocity=45 time=0
EXTRACT: note_on channel=7 note=51 velocity=0 time=0.0475543359375
EXTRACT: note_on channel=9 note=42 velocity=0 time=0.08152171875
EXTRACT: note_on channel=1 note=67 velocity=0 time=0.0326086875
EXTRACT: note_on channel=1 note=55 velocity=0 time=0
EXTRACT: note_on channel=1 note=58 velocity=127 time=0.0991847578125
EXTRACT: note_on channel=1 note=70 velocity=127 time=0
EXTRACT: note_on channel=2 note=98 velocity=68 time=0
EXTRACT: note_on channel=7 note=39 velocity=127 time=0
EXTRACT: note_on channel=9 note=44 velocity=110 time=0
EXTRACT: note_on channel=9 note=36 velocity=114 time=0
EXTRACT: note_on channel=9 note=40 velocity=115 time=0
EXTRACT: note_on channel=9 note=39 velocity=94 time=0
EXTRACT: note_on channel=2 note=98 velocity=0 time=0.06385867968749999
EXTRACT: note_on channel=9 note=39 velocity=0 time=0.033967382812499995
EXTRACT: note_on channel=9 note=36 velocity=0 time=0.017663039062499997
EXTRACT: note_on channel=9 note=44 velocity=0 time=0.008152171875
EXTRACT: note_on channel=9 note=40 velocity=0 time=0.0013586953124999999
EXTRACT: note_on channel=9 note=42 velocity=53 time=0.13586953124999998
EXTRACT: note_on channel=7 note=39 velocity=0 time=0.03804346875
EXTRACT: note_on channel=6 note=62 velocity=0 time=0.05706520312499999
EXTRACT: note_on channel=6 note=65 velocity=0 time=0.006793476562499999
EXTRACT: note_on channel=1 note=70 velocity=0 time=0.010869562499999999
EXTRACT: note_on channel=1 note=58 velocity=0 time=0
EXTRACT: note_on channel=6 note=58 velocity=0 time=0.0040760859375
EXTRACT: note_on channel=9 note=42 velocity=0 time=0.0054347812499999995
EXTRACT: note_on channel=1 note=55 velocity=115 time=0.008152171875
EXTRACT: note_on channel=1 note=67 velocity=115 time=0
EXTRACT: note_on channel=7 note=39 velocity=115 time=0
EXTRACT: note_on channel=6 note=55 velocity=0 time=0.006793476562499999
EXTRACT: control_change channel=6 control=64 value=0 time=0.0095108671875
EXTRACT: control_change channel=6 control=64 value=127 time=0.006793476562499999
EXTRACT: control_change channel=6 control=64 value=0 time=0.0054347812499999995
EXTRACT: note_on channel=1 note=67 velocity=0 time=0.06385867968749999
EXTRACT: note_on channel=1 note=55 velocity=0 time=0
EXTRACT: note_on channel=7 note=39 velocity=0 time=0.023097820312499996
EXTRACT: note_on channel=1 note=62 velocity=115 time=0.014945648437499999
EXTRACT: note_on channel=1 note=74 velocity=115 time=0
EXTRACT: note_on channel=2 note=98 velocity=63 time=0
EXTRACT: note_on channel=6 note=62 velocity=104 time=0
EXTRACT: note_on channel=6 note=65 velocity=104 time=0
EXTRACT: note_on channel=6 note=57 velocity=94 time=0
EXTRACT: note_on channel=6 note=60 velocity=104 time=0
EXTRACT: note_on channel=7 note=41 velocity=127 time=0
EXTRACT: note_on channel=9 note=36 velocity=114 time=0
EXTRACT: note_on channel=9 note=44 velocity=110 time=0
EXTRACT: note_on channel=2 note=98 velocity=0 time=0.07472824218749999
EXTRACT: note_on channel=1 note=74 velocity=0 time=0.043478249999999996
EXTRACT: note_on channel=1 note=62 velocity=0 time=0
EXTRACT: note_on channel=9 note=36 velocity=0 time=0.006793476562499999
EXTRACT: control_change channel=6 control=64 value=127 time=0.013586953124999999
EXTRACT: note_on channel=7 note=41 velocity=0 time=0.0095108671875
EXTRACT: note_on channel=9 note=44 velocity=0 time=0.044836945312499994
EXTRACT: note_on channel=1 note=62 velocity=115 time=0.06793476562499999
EXTRACT: note_on channel=1 note=74 velocity=115 time=0
EXTRACT: note_on channel=9 note=42 velocity=53 time=0
EXTRACT: note_on channel=9 note=42 velocity=0 time=0.1209238828125
EXTRACT: note_on channel=1 note=74 velocity=0 time=0.0040760859375
EXTRACT: note_on channel=1 note=62 velocity=0 time=0
EXTRACT: note_on channel=1 note=60 velocity=115 time=0.13586953124999998
EXTRACT: note_on channel=1 note=72 velocity=115 time=0
EXTRACT: note_on channel=2 note=98 velocity=58 time=0
EXTRACT: note_on channel=7 note=41 velocity=127 time=0
EXTRACT: note_on channel=9 note=36 velocity=114 time=0
EXTRACT: note_on channel=9 note=44 velocity=110 time=0
EXTRACT: note_on channel=9 note=39 velocity=94 time=0
EXTRACT: note_on channel=9 note=40 velocity=115 time=0
EXTRACT: note_on channel=2 note=98 velocity=0 time=0.062499984375
EXTRACT: note_on channel=1 note=74 velocity=115 time=0.0027173906249999998
EXTRACT: note_on channel=1 note=72 velocity=0 time=0.027173906249999998
EXTRACT: note_on channel=1 note=60 velocity=0 time=0
EXTRACT: note_on channel=9 note=36 velocity=0 time=0.0095108671875
EXTRACT: note_on channel=9 note=39 velocity=0 time=0.0027173906249999998
EXTRACT: note_on channel=9 note=40 velocity=0 time=0.006793476562499999
EXTRACT: note_on channel=1 note=62 velocity=115 time=0.019021734375
EXTRACT: note_on channel=9 note=44 velocity=0 time=0.0692934609375
EXTRACT: note_on channel=1 note=74 velocity=0 time=0.0421195546875
EXTRACT: note_on channel=9 note=42 velocity=33 time=0.019021734375
EXTRACT: note_on channel=1 note=62 velocity=0 time=0.04619564062499999
EXTRACT: note_on channel=7 note=39 velocity=104 time=0.084239109375
EXTRACT: note_on channel=9 note=42 velocity=0 time=0.006793476562499999
EXTRACT: control_change channel=6 control=64 value=0 time=0.0054347812499999995
EXTRACT: note_on channel=6 note=57 velocity=0 time=0.0027173906249999998
EXTRACT: note_on channel=7 note=41 velocity=0 time=0
EXTRACT: control_change channel=6 control=64 value=127 time=0.0027173906249999998
EXTRACT: note_on channel=6 note=65 velocity=0 time=0.0095108671875
EXTRACT: control_change channel=6 control=64 value=0 time=0.0013586953124999999
EXTRACT: note_on channel=6 note=62 velocity=0 time=0.006793476562499999
EXTRACT: note_on channel=6 note=60 velocity=0 time=0.008152171875
EXTRACT: note_on channel=7 note=39 velocity=0 time=0.0692934609375
EXTRACT: note_on channel=2 note=98 velocity=53 time=0.017663039062499997
EXTRACT: note_on channel=6 note=57 velocity=86 time=0
EXTRACT: note_on channel=6 note=60 velocity=94 time=0
EXTRACT: note_on channel=6 note=62 velocity=94 time=0
EXTRACT: note_on channel=6 note=65 velocity=94 time=0
EXTRACT: note_on channel=7 note=38 velocity=127 time=0
EXTRACT: note_on channel=9 note=44 velocity=110 time=0
EXTRACT: note_on channel=9 note=36 velocity=115 time=0
EXTRACT: note_on channel=2 note=98 velocity=0 time=0.07472824218749999
EXTRACT: control_change channel=6 control=64 value=127 time=0.0027173906249999998
EXTRACT: note_on channel=7 note=38 velocity=0 time=0
EXTRACT: note_on channel=9 note=36 velocity=0 time=0.014945648437499999
EXTRACT: note_on channel=9 note=44 velocity=0 time=0.09239128124999998
EXTRACT: note_on channel=7 note=38 velocity=127 time=0.0760869375
EXTRACT: note_on channel=9 note=42 velocity=33 time=0
EXTRACT: note_on channel=9 note=85 velocity=104 time=0
EXTRACT: note_on channel=9 note=39 velocity=53 time=0
EXTRACT: note_on channel=7 note=38 velocity=0 time=0.059782593749999995
EXTRACT: note_on channel=9 note=85 velocity=0 time=0.0312499921875
EXTRACT: note_on channel=9 note=39 velocity=0 time=0.019021734375
EXTRACT: note_on channel=9 note=42 velocity=0 time=0.010869562499999999
EXTRACT: note_on channel=2 note=98 velocity=48 time=0.13994561718749998
EXTRACT: note_on channel=7 note=38 velocity=127 time=0
EXTRACT: note_on channel=9 note=44 velocity=110 time=0
EXTRACT: note_on channel=9 note=36 velocity=114 time=0
EXTRACT: note_on channel=9 note=39 velocity=104 time=0
EXTRACT: note_on channel=9 note=40 velocity=104 time=0
EXTRACT: note_on channel=2 note=98 velocity=0 time=0.058423898437499996
EXTRACT: note_on channel=9 note=39 velocity=0 time=0.010869562499999999
EXTRACT: note_on channel=6 note=57 velocity=0 time=0.0040760859375
EXTRACT: note_on channel=9 note=36 velocity=0 time=0.029891296874999997
EXTRACT: note_on channel=9 note=40 velocity=0 time=0.0013586953124999999
EXTRACT: note_on channel=6 note=65 velocity=0 time=0.008152171875
EXTRACT: note_on channel=6 note=60 velocity=0 time=0.0054347812499999995
EXTRACT: note_on channel=6 note=62 velocity=0 time=0.010869562499999999
EXTRACT: note_on channel=9 note=44 velocity=0 time=0.033967382812499995
EXTRACT: note_on channel=7 note=36 velocity=127 time=0.09782606249999999
EXTRACT: note_on channel=9 note=42 velocity=33 time=0
EXTRACT: note_on channel=7 note=38 velocity=0 time=0.0421195546875
EXTRACT: note_on channel=9 note=42 velocity=0 time=0.06793476562499999
EXTRACT: note_on channel=7 note=38 velocity=104 time=0.0203804296875
EXTRACT: note_on channel=7 note=36 velocity=0 time=0.0013586953124999999
EXTRACT: control_change channel=6 control=64 value=0 time=0.08559780468749999
EXTRACT: control_change channel=6 control=64 value=127 time=0.0013586953124999999
EXTRACT: control_change channel=6 control=64 value=0 time=0.006793476562499999
EXTRACT: note_on channel=6 note=69 velocity=104 time=0.03532607812499999
EXTRACT: note_on channel=6 note=60 velocity=94 time=0
EXTRACT: note_on channel=6 note=62 velocity=94 time=0
EXTRACT: note_on channel=7 note=31 velocity=127 time=0
EXTRACT: note_on channel=9 note=46 velocity=115 time=0
EXTRACT: note_on channel=9 note=36 velocity=110 time=0
EXTRACT: note_on channel=7 note=38 velocity=0 time=0.03532607812499999
EXTRACT: note_on channel=9 note=36 velocity=0 time=0.09374997656249999
EXTRACT: control_change channel=6 control=64 value=127 time=0.023097820312499996
EXTRACT: note_on channel=9 note=46 velocity=0 time=0.05706520312499999
EXTRACT: note_on channel=6 note=69 velocity=0 time=0.0013586953124999999
EXTRACT: note_on channel=7 note=31 velocity=0 time=0.033967382812499995
EXTRACT: note_on channel=6 note=67 velocity=73 time=0.01630434375
EXTRACT: note_on channel=7 note=43 velocity=127 time=0
EXTRACT: note_on channel=9 note=70 velocity=37 time=0
EXTRACT: note_on channel=6 note=62 velocity=0 time=0.051630421875
EXTRACT: note_on channel=7 note=43 velocity=0 time=0.0040760859375
EXTRACT: note_on channel=9 note=70 velocity=0 time=0.033967382812499995
EXTRACT: note_on channel=6 note=67 velocity=0 time=0.09646736718749999
EXTRACT: note_on channel=6 note=65 velocity=104 time=0.07472824218749999
EXTRACT: note_on channel=7 note=34 velocity=127 time=0
EXTRACT: note_on channel=9 note=44 velocity=110 time=0
EXTRACT: note_on channel=9 note=36 velocity=114 time=0
EXTRACT: note_on channel=9 note=39 velocity=94 time=0
EXTRACT: note_on channel=9 note=40 velocity=104 time=0
EXTRACT: note_on channel=6 note=65 velocity=0 time=0.0883151953125
EXTRACT: control_change channel=6 control=64 value=0 time=0.006793476562499999
EXTRACT: note_on channel=6 note=60 velocity=0 time=0.0013586953124999999
EXTRACT: control_change channel=6 control=64 value=127 time=0.008152171875
EXTRACT: note_on channel=9 note=39 velocity=0 time=0.0013586953124999999
EXTRACT: control_change channel=6 control=64 value=0 time=0.0027173906249999998
EXTRACT: control_change channel=6 control=64 value=127 time=0.008152171875
EXTRACT: control_change channel=6 control=64 value=0 time=0.0040760859375
EXTRACT: note_on channel=9 note=36 velocity=0 time=0.0013586953124999999
EXTRACT: note_on channel=9 note=40 velocity=0 time=0.033967382812499995
EXTRACT: note_on channel=9 note=44 velocity=0 time=0.023097820312499996
EXTRACT: note_on channel=7 note=34 velocity=0 time=0.051630421875
EXTRACT: note_on channel=6 note=67 velocity=86 time=0.029891296874999997
EXTRACT: note_on channel=6 note=62 velocity=104 time=0
EXTRACT: note_on channel=6 note=58 velocity=104 time=0
EXTRACT: note_on channel=7 note=39 velocity=127 time=0
EXTRACT: note_on channel=9 note=42 velocity=35 time=0
EXTRACT: note_on channel=9 note=42 velocity=0 time=0.0910325859375
EXTRACT: note_on channel=1 note=55 velocity=79 time=0.039402164062499995
EXTRACT: note_on channel=1 note=67 velocity=79 time=0
EXTRACT: control_change channel=6 control=64 value=127 time=0.024456515624999998
EXTRACT: note_on channel=1 note=67 velocity=0 time=0.06114128906249999
EXTRACT: note_on channel=1 note=55 velocity=0 time=0
EXTRACT: note_on channel=1 note=62 velocity=127 time=0.044836945312499994
EXTRACT: note_on channel=1 note=74 velocity=127 time=0
EXTRACT: note_on channel=9 note=44 velocity=110 time=0
EXTRACT: note_on channel=9 note=36 velocity=114 time=0
EXTRACT: note_on channel=7 note=39 velocity=0 time=0.028532601562499996
EXTRACT: note_on channel=7 note=39 velocity=51 time=0.0366847734375
EXTRACT: note_on channel=7 note=39 velocity=0 time=0.019021734375
EXTRACT: note_on channel=9 note=36 velocity=0 time=0.028532601562499996
EXTRACT: note_on channel=1 note=74 velocity=0 time=0.021739124999999998
EXTRACT: note_on channel=1 note=62 velocity=0 time=0
EXTRACT: note_on channel=9 note=44 velocity=0 time=0.0421195546875
EXTRACT: note_on channel=1 note=63 velocity=115 time=0.084239109375
EXTRACT: note_on channel=1 note=75 velocity=115 time=0
EXTRACT: note_on channel=7 note=51 velocity=127 time=0
EXTRACT: note_on channel=9 note=42 velocity=45 time=0
EXTRACT: note_on channel=7 note=51 velocity=0 time=0.0475543359375
EXTRACT: note_on channel=1 note=75 velocity=0 time=0.05706520312499999
EXTRACT: note_on channel=1 note=63 velocity=0 time=0
EXTRACT: note_on channel=9 note=42 velocity=0 time=0.024456515624999998
EXTRACT: note_on channel=1 note=62 velocity=127 time=0.13179344531249998
EXTRACT: note_on channel=1 note=74 velocity=127 time=0
EXTRACT: note_on channel=7 note=39 velocity=127 time=0
EXTRACT: note_on channel=9 note=44 velocity=110 time=0
EXTRACT: note_on channel=9 note=36 velocity=114 time=0
EXTRACT: note_on channel=9 note=40 velocity=115 time=0
EXTRACT: note_on channel=9 note=39 velocity=94 time=0
EXTRACT: note_on channel=6 note=58 velocity=0 time=0.028532601562499996
EXTRACT: note_on channel=6 note=67 velocity=0 time=0.013586953124999999
EXTRACT: note_on channel=6 note=62 velocity=0 time=0.0095108671875
EXTRACT: note_on channel=9 note=39 velocity=0 time=0.04619564062499999
EXTRACT: note_on channel=9 note=36 velocity=0 time=0.017663039062499997
EXTRACT: note_on channel=9 note=44 velocity=0 time=0.008152171875
EXTRACT: note_on channel=9 note=40 velocity=0 time=0.0013586953124999999
EXTRACT: note_on channel=1 note=74 velocity=0 time=0.10461953906249999
EXTRACT: note_on channel=1 note=62 velocity=0 time=0
EXTRACT: note_on channel=1 note=58 velocity=104 time=0.0312499921875
EXTRACT: note_on channel=1 note=70 velocity=104 time=0
EXTRACT: note_on channel=9 note=42 velocity=53 time=0
EXTRACT: note_on channel=7 note=39 velocity=0 time=0.0529891171875
EXTRACT: note_on channel=7 note=39 velocity=47 time=0.012228257812499999
EXTRACT: note_on channel=7 note=39 velocity=0 time=0.01630434375
EXTRACT: note_on channel=1 note=70 velocity=0 time=0.0312499921875
EXTRACT: note_on channel=1 note=58 velocity=0 time=0
EXTRACT: note_on channel=9 note=42 velocity=0 time=0.0095108671875
EXTRACT: note_on channel=7 note=43 velocity=115 time=0.008152171875
EXTRACT: control_change channel=6 control=64 value=0 time=0.0801630234375
EXTRACT: control_change channel=6 control=64 value=127 time=0.006793476562499999
EXTRACT: control_change channel=6 control=64 value=0 time=0.0040760859375
EXTRACT: note_on channel=7 note=43 velocity=0 time=0.019021734375
EXTRACT: note_on channel=1 note=60 velocity=127 time=0.0203804296875
EXTRACT: note_on channel=1 note=72 velocity=127 time=0
EXTRACT: note_on channel=6 note=55 velocity=115 time=0
EXTRACT: note_on channel=6 note=64 velocity=104 time=0
EXTRACT: note_on channel=6 note=60 velocity=115 time=0
EXTRACT: note_on channel=7 note=45 velocity=104 time=0
EXTRACT: note_on channel=9 note=36 velocity=114 time=0
EXTRACT: note_on channel=9 note=44 velocity=110 time=0
EXTRACT: note_on channel=7 note=45 velocity=0 time=0.11413040624999998
EXTRACT: note_on channel=9 note=36 velocity=0 time=0.010869562499999999
EXTRACT: note_on channel=7 note=43 velocity=115 time=0.0054347812499999995
EXTRACT: note_on channel=9 note=44 velocity=0 time=0.062499984375
EXTRACT: note_on channel=7 note=43 velocity=0 time=0.06385867968749999
EXTRACT: note_on channel=7 note=45 velocity=115 time=0.0040760859375
EXTRACT: note_on channel=9 note=42 velocity=53 time=0
EXTRACT: note_on channel=1 note=72 velocity=0 time=0.0883151953125
EXTRACT: note_on channel=1 note=60 velocity=0 time=0
EXTRACT: note_on channel=9 note=42 velocity=0 time=0.0326086875
EXTRACT: note_on channel=7 note=43 velocity=115 time=0.0095108671875
EXTRACT: note_on channel=7 note=45 velocity=0 time=0.0040760859375
EXTRACT: note_on channel=7 note=43 velocity=0 time=0.1100543203125
EXTRACT: note_on channel=1 note=60 velocity=94 time=0.01630434375
EXTRACT: note_on channel=1 note=72 velocity=94 time=0
EXTRACT: note_on channel=7 note=45 velocity=127 time=0
EXTRACT: note_on channel=9 note=36 velocity=114 time=0
EXTRACT: note_on channel=9 note=44 velocity=110 time=0
EXTRACT: note_on channel=9 note=39 velocity=94 time=0
EXTRACT: note_on channel=9 note=40 velocity=115 time=0
EXTRACT: control_change channel=6 control=64 value=127 time=0.0027173906249999998
EXTRACT: note_on channel=1 note=74 velocity=104 time=0.062499984375
EXTRACT: note_on channel=1 note=72 velocity=0 time=0.01630434375
EXTRACT: note_on channel=1 note=60 velocity=0 time=0
EXTRACT: note_on channel=9 note=36 velocity=0 time=0.0203804296875
EXTRACT: note_on channel=9 note=39 velocity=0 time=0.0027173906249999998
EXTRACT: note_on channel=9 note=40 velocity=0 time=0.006793476562499999
EXTRACT: note_on channel=1 note=62 velocity=104 time=0.019021734375
EXTRACT: note_on channel=9 note=44 velocity=0 time=0.0692934609375
EXTRACT: note_on channel=7 note=45 velocity=0 time=0.0095108671875
EXTRACT: note_on channel=1 note=74 velocity=0 time=0.027173906249999998
EXTRACT: note_on channel=6 note=55 velocity=0 time=0.0054347812499999995
EXTRACT: note_on channel=1 note=60 velocity=94 time=0.019021734375
EXTRACT: note_on channel=1 note=72 velocity=94 time=0
EXTRACT: note_on channel=9 note=42 velocity=33 time=0
EXTRACT: note_on channel=6 note=64 velocity=0 time=0.008152171875
EXTRACT: note_on channel=6 note=60 velocity=0 time=0.023097820312499996
EXTRACT: note_on channel=1 note=62 velocity=0 time=0.0095108671875
EXTRACT: note_on channel=1 note=72 velocity=0 time=0.0692934609375
EXTRACT: note_on channel=1 note=60 velocity=0 time=0
EXTRACT: note_on channel=7 note=43 velocity=127 time=0.0203804296875
EXTRACT: note_on channel=9 note=42 velocity=0 time=0.006793476562499999
EXTRACT: control_change channel=6 control=64 value=0 time=0.023097820312499996
EXTRACT: control_change channel=6 control=64 value=127 time=0.0095108671875
EXTRACT: control_change channel=6 control=64 value=0 time=0.0040760859375
EXTRACT: note_on channel=7 note=43 velocity=0 time=0.0203804296875
EXTRACT: note_on channel=6 note=64 velocity=104 time=0.0665760703125
EXTRACT: note_on channel=6 note=55 velocity=104 time=0
EXTRACT: note_on channel=6 note=60 velocity=104 time=0
EXTRACT: note_on channel=7 note=45 velocity=127 time=0
EXTRACT: note_on channel=9 note=44 velocity=110 time=0
EXTRACT: note_on channel=9 note=36 velocity=115 time=0
EXTRACT: note_on channel=9 note=36 velocity=0 time=0.09239128124999998
EXTRACT: note_on channel=7 note=45 velocity=0 time=0.017663039062499997
EXTRACT: control_change channel=6 control=64 value=127 time=0.058423898437499996
EXTRACT: note_on channel=9 note=44 velocity=0 time=0.01630434375
EXTRACT: note_on channel=7 note=38 velocity=104 time=0.0760869375
EXTRACT: note_on channel=9 note=42 velocity=33 time=0
EXTRACT: note_on channel=9 note=85 velocity=104 time=0
EXTRACT: note_on channel=9 note=39 velocity=53 time=0
EXTRACT: note_on channel=9 note=85 velocity=0 time=0.0910325859375
EXTRACT: note_on channel=9 note=39 velocity=0 time=0.019021734375
EXTRACT: note_on channel=9 note=42 velocity=0 time=0.010869562499999999
EXTRACT: note_on channel=6 note=55 velocity=0 time=0.105978234375
EXTRACT: note_on channel=6 note=64 velocity=0 time=0.019021734375
EXTRACT: note_on channel=6 note=60 velocity=0 time=0.006793476562499999
EXTRACT: note_on channel=7 note=38 velocity=0 time=0.0054347812499999995
EXTRACT: note_on channel=7 note=41 velocity=127 time=0.0027173906249999998
EXTRACT: note_on channel=9 note=44 velocity=110 time=0
EXTRACT: note_on channel=9 note=36 velocity=114 time=0
EXTRACT: note_on channel=9 note=39 velocity=104 time=0
EXTRACT: note_on channel=9 note=40 velocity=104 time=0
EXTRACT: note_on channel=9 note=39 velocity=0 time=0.0692934609375
EXTRACT: note_on channel=9 note=36 velocity=0 time=0.033967382812499995
EXTRACT: note_on channel=9 note=40 velocity=0 time=0.0013586953124999999
EXTRACT: note_on channel=9 note=44 velocity=0 time=0.058423898437499996
EXTRACT: note_on channel=7 note=41 velocity=0 time=0.08695649999999999
EXTRACT: note_on channel=7 note=43 velocity=127 time=0.010869562499999999
EXTRACT: note_on channel=9 note=42 velocity=33 time=0
EXTRACT: control_change channel=6 control=64 value=0 time=0.0883151953125
EXTRACT: control_change channel=6 control=64 value=127 time=0.008152171875
EXTRACT: control_change channel=6 control=64 value=0 time=0.0054347812499999995
EXTRACT: note_on channel=9 note=42 velocity=0 time=0.008152171875
EXTRACT: note_on channel=7 note=43 velocity=0 time=0.12364127343749999
EXTRACT: note_on channel=2 note=98 velocity=86 time=0.027173906249999998
EXTRACT: note_on channel=6 note=58 velocity=104 time=0
EXTRACT: note_on channel=6 note=55 velocity=94 time=0
EXTRACT: note_on channel=6 note=65 velocity=94 time=0
EXTRACT: note_on channel=6 note=62 velocity=94 time=0
EXTRACT: note_on channel=7 note=31 velocity=115 time=0
EXTRACT: note_on channel=9 note=46 velocity=115 time=0
EXTRACT: note_on channel=9 note=36 velocity=110 time=0
EXTRACT: note_on channel=2 note=98 velocity=0 time=0.0760869375
EXTRACT: note_on channel=9 note=36 velocity=0 time=0.0529891171875
EXTRACT: note_on channel=7 note=31 velocity=0 time=0.04619564062499999
EXTRACT: control_change channel=6 control=64 value=127 time=0.019021734375
EXTRACT: note_on channel=9 note=46 velocity=0 time=0.014945648437499999
EXTRACT: note_on channel=7 note=43 velocity=127 time=0.051630421875
EXTRACT: note_on channel=9 note=70 velocity=37 time=0
EXTRACT: note_on channel=9 note=70 velocity=0 time=0.08967389062499999
EXTRACT: note_on channel=7 note=43 velocity=0 time=0.08288041406249999
EXTRACT: note_on channel=2 note=98 velocity=79 time=0.0883151953125
EXTRACT: note_on channel=7 note=34 velocity=115 time=0
EXTRACT: note_on channel=9 note=44 velocity=110 time=0
EXTRACT: note_on channel=9 note=36 velocity=114 time=0
EXTRACT: note_on channel=9 note=39 velocity=94 time=0
EXTRACT: note_on channel=9 note=40 velocity=104 time=0
EXTRACT: control_change channel=6 control=64 value=0 time=0.06114128906249999
EXTRACT: control_change channel=6 control=64 value=127 time=0.006793476562499999
EXTRACT: note_on channel=2 note=98 velocity=0 time=0.0013586953124999999
EXTRACT: note_on channel=6 note=55 velocity=0 time=0.0027173906249999998
EXTRACT: control_change channel=6 control=64 value=0 time=0.0013586953124999999
EXTRACT: note_on channel=6 note=58 velocity=0 time=0.006793476562499999
EXTRACT: note_on channel=6 note=65 velocity=0 time=0.006793476562499999
EXTRACT: note_on channel=6 note=62 velocity=0 time=0.0095108671875
EXTRACT: note_on channel=9 note=39 velocity=0 time=0.0095108671875
EXTRACT: note_on channel=9 note=36 velocity=0 time=0.01630434375
EXTRACT: note_on channel=9 note=40 velocity=0 time=0.033967382812499995
EXTRACT: note_on channel=9 note=44 velocity=0 time=0.023097820312499996
EXTRACT: note_on channel=7 note=34 velocity=0 time=0.03532607812499999
EXTRACT: note_on channel=6 note=65 velocity=94 time=0.04619564062499999
EXTRACT: note_on channel=6 note=55 velocity=79 time=0
EXTRACT: note_on channel=6 note=58 velocity=94 time=0
EXTRACT: note_on channel=6 note=62 velocity=104 time=0
EXTRACT: note_on channel=7 note=39 velocity=127 time=0
EXTRACT: note_on channel=9 note=42 velocity=35 time=0
EXTRACT: control_change channel=6 control=64 value=127 time=0.07472824218749999
EXTRACT: note_on channel=9 note=42 velocity=0 time=0.01630434375
EXTRACT: note_on channel=1 note=55 velocity=127 time=0.16983691406249998
EXTRACT: note_on channel=1 note=67 velocity=127 time=0
EXTRACT: note_on channel=2 note=98 velocity=79 time=0
EXTRACT: note_on channel=9 note=44 velocity=110 time=0
EXTRACT: note_on channel=9 note=36 velocity=114 time=0
EXTRACT: note_on channel=7 note=39 velocity=0 time=0.050271726562499994
EXTRACT: note_on channel=7 note=39 velocity=59 time=0.014945648437499999
EXTRACT: note_on channel=2 note=98 velocity=0 time=0.0054347812499999995
EXTRACT: note_on channel=7 note=39 velocity=0 time=0.014945648437499999
EXTRACT: note_on channel=9 note=36 velocity=0 time=0.027173906249999998
EXTRACT: note_on channel=1 note=67 velocity=0 time=0.01630434375
EXTRACT: note_on channel=1 note=55 velocity=0 time=0
EXTRACT: note_on channel=9 note=44 velocity=0 time=0.0475543359375
EXTRACT: note_on channel=1 note=55 velocity=104 time=0.084239109375
EXTRACT: note_on channel=1 note=67 velocity=104 time=0
EXTRACT: note_on channel=7 note=51 velocity=127 time=0
EXTRACT: note_on channel=9 note=42 velocity=45 time=0
EXTRACT: note_on channel=7 note=51 velocity=0 time=0.050271726562499994
EXTRACT: note_on channel=9 note=42 velocity=0 time=0.07880432812499999
EXTRACT: note_on channel=1 note=67 velocity=0 time=0.03804346875
EXTRACT: note_on channel=1 note=55 velocity=0 time=0
EXTRACT: note_on channel=1 note=58 velocity=115 time=0.09374997656249999
EXTRACT: note_on channel=1 note=70 velocity=115 time=0
EXTRACT: note_on channel=2 note=98 velocity=68 time=0
EXTRACT: note_on channel=7 note=39 velocity=127 time=0
EXTRACT: note_on channel=9 note=44 velocity=110 time=0
EXTRACT: note_on channel=9 note=36 velocity=114 time=0
EXTRACT: note_on channel=9 note=40 velocity=115 time=0
EXTRACT: note_on channel=9 note=39 velocity=94 time=0
EXTRACT: note_on channel=2 note=98 velocity=0 time=0.06385867968749999
EXTRACT: note_on channel=9 note=39 velocity=0 time=0.033967382812499995
EXTRACT: note_on channel=9 note=36 velocity=0 time=0.017663039062499997
EXTRACT: note_on channel=9 note=44 velocity=0 time=0.008152171875
EXTRACT: note_on channel=9 note=40 velocity=0 time=0.0013586953124999999
EXTRACT: note_on channel=9 note=42 velocity=53 time=0.13586953124999998
EXTRACT: note_on channel=7 note=39 velocity=0 time=0.033967382812499995
EXTRACT: note_on channel=1 note=70 velocity=0 time=0.06114128906249999
EXTRACT: note_on channel=1 note=58 velocity=0 time=0
EXTRACT: note_on channel=6 note=62 velocity=0 time=0
EXTRACT: note_on channel=6 note=65 velocity=0 time=0.006793476562499999
EXTRACT: note_on channel=6 note=58 velocity=0 time=0.014945648437499999
EXTRACT: note_on channel=9 note=42 velocity=0 time=0.0054347812499999995
EXTRACT: note_on channel=1 note=55 velocity=104 time=0.008152171875
EXTRACT: note_on channel=1 note=67 velocity=104 time=0
EXTRACT: note_on channel=7 note=39 velocity=86 time=0
EXTRACT: note_on channel=6 note=55 velocity=0 time=0.006793476562499999
EXTRACT: control_change channel=6 control=64 value=0 time=0.0095108671875
EXTRACT: control_change channel=6 control=64 value=127 time=0.006793476562499999
EXTRACT: control_change channel=6 control=64 value=0 time=0.0054347812499999995
EXTRACT: note_on channel=7 note=39 velocity=0 time=0.09374997656249999
EXTRACT: note_on channel=1 note=67 velocity=0 time=0.008152171875
EXTRACT: note_on channel=1 note=55 velocity=0 time=0
EXTRACT: note_on channel=1 note=62 velocity=127 time=0
EXTRACT: note_on channel=1 note=74 velocity=127 time=0
EXTRACT: note_on channel=2 note=98 velocity=63 time=0
EXTRACT: note_on channel=6 note=62 velocity=104 time=0
EXTRACT: note_on channel=6 note=65 velocity=104 time=0
EXTRACT: note_on channel=6 note=57 velocity=94 time=0
EXTRACT: note_on channel=6 note=60 velocity=104 time=0
EXTRACT: note_on channel=9 note=36 velocity=114 time=0
EXTRACT: note_on channel=9 note=44 velocity=110 time=0
EXTRACT: note_on channel=7 note=41 velocity=127 time=0.065217375
EXTRACT: note_on channel=2 note=98 velocity=0 time=0.0095108671875
EXTRACT: note_on channel=1 note=74 velocity=0 time=0.0258152109375
EXTRACT: note_on channel=1 note=62 velocity=0 time=0
EXTRACT: note_on channel=9 note=36 velocity=0 time=0.024456515624999998
EXTRACT: control_change channel=6 control=64 value=127 time=0.013586953124999999
EXTRACT: note_on channel=9 note=44 velocity=0 time=0.054347812499999995
EXTRACT: note_on channel=7 note=41 velocity=0 time=0.0027173906249999998
EXTRACT: note_on channel=1 note=62 velocity=127 time=0.065217375
EXTRACT: note_on channel=1 note=74 velocity=127 time=0
EXTRACT: note_on channel=9 note=42 velocity=53 time=0
EXTRACT: note_on channel=1 note=74 velocity=0 time=0.11277171093749999
EXTRACT: note_on channel=1 note=62 velocity=0 time=0
EXTRACT: note_on channel=9 note=42 velocity=0 time=0.008152171875
EXTRACT: note_on channel=1 note=60 velocity=115 time=0.13994561718749998
EXTRACT: note_on channel=1 note=72 velocity=115 time=0
EXTRACT: note_on channel=2 note=98 velocity=58 time=0
EXTRACT: note_on channel=7 note=40 velocity=73 time=0
EXTRACT: note_on channel=7 note=41 velocity=127 time=0
EXTRACT: note_on channel=7 note=40 velocity=127 time=0
EXTRACT: note_on channel=9 note=36 velocity=114 time=0
EXTRACT: note_on channel=9 note=44 velocity=110 time=0
EXTRACT: note_on channel=9 note=39 velocity=94 time=0
EXTRACT: note_on channel=9 note=40 velocity=115 time=0
EXTRACT: note_on channel=7 note=40 velocity=0 time=0.0013586953124999999
EXTRACT: note_on channel=7 note=40 velocity=0 time=0.019021734375
EXTRACT: note_on channel=2 note=98 velocity=0 time=0.0421195546875
EXTRACT: note_on channel=1 note=74 velocity=115 time=0.0027173906249999998
EXTRACT: note_on channel=9 note=36 velocity=0 time=0.0366847734375
EXTRACT: note_on channel=1 note=72 velocity=0 time=0.0027173906249999998
EXTRACT: note_on channel=1 note=60 velocity=0 time=0
EXTRACT: note_on channel=9 note=39 velocity=0 time=0
EXTRACT: note_on channel=9 note=40 velocity=0 time=0.006793476562499999
EXTRACT: note_on channel=1 note=62 velocity=115 time=0.019021734375
EXTRACT: note_on channel=9 note=44 velocity=0 time=0.0692934609375
EXTRACT: note_on channel=1 note=74 velocity=0 time=0.029891296874999997
EXTRACT: note_on channel=9 note=42 velocity=33 time=0.0312499921875
EXTRACT: note_on channel=1 note=62 velocity=0 time=0.033967382812499995
EXTRACT: note_on channel=7 note=39 velocity=115 time=0.09646736718749999
EXTRACT: note_on channel=9 note=42 velocity=0 time=0.006793476562499999
EXTRACT: control_change channel=6 control=64 value=0 time=0.0054347812499999995
EXTRACT: note_on channel=6 note=57 velocity=0 time=0.0027173906249999998
EXTRACT: note_on channel=7 note=41 velocity=0 time=0
EXTRACT: control_change channel=6 control=64 value=127 time=0.0027173906249999998
EXTRACT: note_on channel=6 note=65 velocity=0 time=0.0095108671875
EXTRACT: control_change channel=6 control=64 value=0 time=0.0013586953124999999
EXTRACT: note_on channel=6 note=62 velocity=0 time=0.006793476562499999
EXTRACT: note_on channel=6 note=60 velocity=0 time=0.008152171875
EXTRACT: note_on channel=7 note=39 velocity=0 time=0.051630421875
EXTRACT: note_on channel=2 note=98 velocity=53 time=0.03532607812499999
EXTRACT: note_on channel=6 note=57 velocity=86 time=0
EXTRACT: note_on channel=6 note=60 velocity=94 time=0
EXTRACT: note_on channel=6 note=62 velocity=94 time=0
EXTRACT: note_on channel=6 note=65 velocity=94 time=0
EXTRACT: note_on channel=7 note=38 velocity=127 time=0
EXTRACT: note_on channel=7 note=39 velocity=63 time=0
EXTRACT: note_on channel=9 note=44 velocity=110 time=0
EXTRACT: note_on channel=9 note=36 velocity=115 time=0
EXTRACT: note_on channel=7 note=39 velocity=0 time=0.039402164062499995
EXTRACT: note_on channel=2 note=98 velocity=0 time=0.03532607812499999
EXTRACT: control_change channel=6 control=64 value=127 time=0.0027173906249999998
EXTRACT: note_on channel=7 note=38 velocity=0 time=0.008152171875
EXTRACT: note_on channel=9 note=36 velocity=0 time=0.006793476562499999
EXTRACT: note_on channel=9 note=44 velocity=0 time=0.09239128124999998
EXTRACT: note_on channel=7 note=38 velocity=127 time=0.0760869375
EXTRACT: note_on channel=9 note=42 velocity=33 time=0
EXTRACT: note_on channel=9 note=85 velocity=104 time=0
EXTRACT: note_on channel=9 note=39 velocity=53 time=0
EXTRACT: note_on channel=7 note=38 velocity=0 time=0.0760869375
EXTRACT: note_on channel=9 note=85 velocity=0 time=0.014945648437499999
EXTRACT: note_on channel=9 note=39 velocity=0 time=0.019021734375
EXTRACT: note_on channel=9 note=42 velocity=0 time=0.010869562499999999
EXTRACT: note_on channel=2 note=98 velocity=48 time=0.13994561718749998
EXTRACT: note_on channel=7 note=38 velocity=127 time=0
EXTRACT: note_on channel=9 note=44 velocity=110 time=0
EXTRACT: note_on channel=9 note=36 velocity=114 time=0
EXTRACT: note_on channel=9 note=39 velocity=104 time=0
EXTRACT: note_on channel=9 note=40 velocity=104 time=0
EXTRACT: note_on channel=2 note=98 velocity=0 time=0.058423898437499996
EXTRACT: note_on channel=9 note=39 velocity=0 time=0.010869562499999999
EXTRACT: note_on channel=6 note=57 velocity=0 time=0.0040760859375
EXTRACT: note_on channel=9 note=36 velocity=0 time=0.029891296874999997
EXTRACT: note_on channel=9 note=40 velocity=0 time=0.0013586953124999999
EXTRACT: note_on channel=6 note=65 velocity=0 time=0.008152171875
EXTRACT: note_on channel=6 note=60 velocity=0 time=0.0054347812499999995
EXTRACT: note_on channel=6 note=62 velocity=0 time=0.010869562499999999
EXTRACT: note_on channel=9 note=44 velocity=0 time=0.033967382812499995
EXTRACT: note_on channel=7 note=36 velocity=115 time=0.09782606249999999
EXTRACT: note_on channel=9 note=42 velocity=33 time=0
EXTRACT: note_on channel=7 note=38 velocity=0 time=0.0095108671875
EXTRACT: note_on channel=9 note=42 velocity=0 time=0.10054345312499999
EXTRACT: note_on channel=7 note=36 velocity=0 time=0.01630434375
EXTRACT: note_on channel=7 note=38 velocity=127 time=0.0040760859375
EXTRACT: control_change channel=6 control=64 value=0 time=0.08695649999999999
EXTRACT: control_change channel=6 control=64 value=127 time=0.0013586953124999999
EXTRACT: control_change channel=6 control=64 value=0 time=0.006793476562499999
EXTRACT: note_on channel=7 note=38 velocity=0 time=0.0312499921875
EXTRACT: note_on channel=6 note=69 velocity=104 time=0.0040760859375
EXTRACT: note_on channel=6 note=60 velocity=94 time=0
EXTRACT: note_on channel=6 note=62 velocity=94 time=0
EXTRACT: note_on channel=7 note=31 velocity=115 time=0
EXTRACT: note_on channel=9 note=46 velocity=115 time=0
EXTRACT: note_on channel=9 note=36 velocity=110 time=0
EXTRACT: note_on channel=9 note=36 velocity=0 time=0.1290760546875
EXTRACT: control_change channel=6 control=64 value=127 time=0.023097820312499996
EXTRACT: note_on channel=9 note=46 velocity=0 time=0.05706520312499999
EXTRACT: note_on channel=6 note=69 velocity=0 time=0.0013586953124999999
EXTRACT: note_on channel=7 note=31 velocity=0 time=0.0312499921875
EXTRACT: note_on channel=6 note=67 velocity=73 time=0.019021734375
EXTRACT: note_on channel=7 note=43 velocity=127 time=0
EXTRACT: note_on channel=9 note=70 velocity=37 time=0
EXTRACT: note_on channel=6 note=62 velocity=0 time=0.051630421875
EXTRACT: note_on channel=7 note=43 velocity=0 time=0.019021734375
EXTRACT: note_on channel=9 note=70 velocity=0 time=0.019021734375
EXTRACT: note_on channel=6 note=67 velocity=0 time=0.09646736718749999
EXTRACT: note_on channel=6 note=65 velocity=104 time=0.07472824218749999
EXTRACT: note_on channel=7 note=34 velocity=127 time=0
EXTRACT: note_on channel=9 note=44 velocity=110 time=0
EXTRACT: note_on channel=9 note=36 velocity=114 time=0
EXTRACT: note_on channel=9 note=39 velocity=94 time=0
EXTRACT: note_on channel=9 note=40 velocity=104 time=0
EXTRACT: note_on channel=6 note=65 velocity=0 time=0.0883151953125
EXTRACT: control_change channel=6 control=64 value=0 time=0.006793476562499999
EXTRACT: note_on channel=6 note=60 velocity=0 time=0.0013586953124999999
EXTRACT: control_change channel=6 control=64 value=127 time=0.008152171875
EXTRACT: note_on channel=9 note=39 velocity=0 time=0.0013586953124999999
EXTRACT: control_change channel=6 control=64 value=0 time=0.0027173906249999998
EXTRACT: control_change channel=6 control=64 value=127 time=0.008152171875
EXTRACT: control_change channel=6 control=64 value=0 time=0.0040760859375
EXTRACT: note_on channel=9 note=36 velocity=0 time=0.0013586953124999999
EXTRACT: note_on channel=9 note=40 velocity=0 time=0.033967382812499995
EXTRACT: note_on channel=9 note=44 velocity=0 time=0.023097820312499996
EXTRACT: note_on channel=7 note=34 velocity=0 time=0.050271726562499994
EXTRACT: note_on channel=6 note=67 velocity=86 time=0.0312499921875
EXTRACT: note_on channel=6 note=62 velocity=104 time=0
EXTRACT: note_on channel=6 note=58 velocity=104 time=0
EXTRACT: note_on channel=7 note=39 velocity=127 time=0
EXTRACT: note_on channel=9 note=42 velocity=35 time=0
EXTRACT: note_on channel=9 note=42 velocity=0 time=0.0910325859375
EXTRACT: control_change channel=6 control=64 value=127 time=0.06385867968749999
EXTRACT: note_on channel=1 note=67 velocity=94 time=0.040760859375
EXTRACT: note_on channel=1 note=62 velocity=127 time=0.065217375
EXTRACT: note_on channel=1 note=55 velocity=94 time=0
EXTRACT: note_on channel=1 note=74 velocity=127 time=0
EXTRACT: note_on channel=7 note=37 velocity=68 time=0
EXTRACT: note_on channel=9 note=44 velocity=110 time=0
EXTRACT: note_on channel=9 note=36 velocity=114 time=0
EXTRACT: note_on channel=7 note=37 velocity=0 time=0.014945648437499999
EXTRACT: note_on channel=7 note=39 velocity=0 time=0.021739124999999998
EXTRACT: note_on channel=1 note=67 velocity=0 time=0.008152171875
EXTRACT: note_on channel=7 note=39 velocity=51 time=0.0203804296875
EXTRACT: note_on channel=7 note=39 velocity=0 time=0.014945648437499999
EXTRACT: note_on channel=1 note=55 velocity=0 time=0.029891296874999997
EXTRACT: note_on channel=9 note=36 velocity=0 time=0.0027173906249999998
EXTRACT: note_on channel=1 note=62 velocity=0 time=0.0013586953124999999
EXTRACT: note_on channel=1 note=74 velocity=0 time=0
EXTRACT: note_on channel=9 note=44 velocity=0 time=0.062499984375
EXTRACT: note_on channel=1 note=63 velocity=115 time=0.084239109375
EXTRACT: note_on channel=1 note=75 velocity=115 time=0
EXTRACT: note_on channel=7 note=51 velocity=127 time=0
EXTRACT: note_on channel=9 note=42 velocity=45 time=0
EXTRACT: note_on channel=7 note=51 velocity=0 time=0.03532607812499999
EXTRACT: note_on channel=1 note=75 velocity=0 time=0.073369546875
EXTRACT: note_on channel=1 note=63 velocity=0 time=0
EXTRACT: note_on channel=9 note=42 velocity=0 time=0.0203804296875
EXTRACT: note_on channel=1 note=62 velocity=127 time=0.13179344531249998
EXTRACT: note_on channel=1 note=74 velocity=127 time=0
EXTRACT: note_on channel=7 note=39 velocity=127 time=0
EXTRACT: note_on channel=9 note=44 velocity=110 time=0
EXTRACT: note_on channel=9 note=36 velocity=114 time=0
EXTRACT: note_on channel=9 note=40 velocity=115 time=0
EXTRACT: note_on channel=9 note=39 velocity=94 time=0
EXTRACT: note_on channel=6 note=58 velocity=0 time=0.028532601562499996
EXTRACT: note_on channel=6 note=67 velocity=0 time=0.013586953124999999
EXTRACT: note_on channel=6 note=62 velocity=0 time=0.0095108671875
EXTRACT: note_on channel=9 note=39 velocity=0 time=0.04619564062499999
EXTRACT: note_on channel=9 note=36 velocity=0 time=0.017663039062499997
EXTRACT: note_on channel=9 note=44 velocity=0 time=0.008152171875
EXTRACT: note_on channel=9 note=40 velocity=0 time=0.0013586953124999999
EXTRACT: note_on channel=1 note=74 velocity=0 time=0.0991847578125
EXTRACT: note_on channel=1 note=62 velocity=0 time=0
EXTRACT: note_on channel=1 note=58 velocity=104 time=0.0366847734375
EXTRACT: note_on channel=1 note=70 velocity=104 time=0
EXTRACT: note_on channel=9 note=42 velocity=53 time=0
EXTRACT: note_on channel=7 note=39 velocity=0 time=0.03804346875
EXTRACT: note_on channel=1 note=70 velocity=0 time=0.0665760703125
EXTRACT: note_on channel=1 note=58 velocity=0 time=0
EXTRACT: note_on channel=9 note=42 velocity=0 time=0.017663039062499997
EXTRACT: note_on channel=7 note=43 velocity=127 time=0.008152171875
EXTRACT: control_change channel=6 control=64 value=0 time=0.0801630234375
EXTRACT: control_change channel=6 control=64 value=127 time=0.006793476562499999
EXTRACT: control_change channel=6 control=64 value=0 time=0.0040760859375
EXTRACT: note_on channel=7 note=43 velocity=0 time=0.012228257812499999
EXTRACT: note_on channel=1 note=60 velocity=127 time=0.027173906249999998
EXTRACT: note_on channel=1 note=72 velocity=127 time=0
EXTRACT: note_on channel=6 note=55 velocity=115 time=0
EXTRACT: note_on channel=6 note=64 velocity=104 time=0
EXTRACT: note_on channel=6 note=60 velocity=115 time=0
EXTRACT: note_on channel=7 note=45 velocity=104 time=0
EXTRACT: note_on channel=9 note=36 velocity=114 time=0
EXTRACT: note_on channel=9 note=44 velocity=110 time=0
EXTRACT: note_on channel=7 note=45 velocity=0 time=0.12228257812499999
EXTRACT: note_on channel=9 note=36 velocity=0 time=0.0027173906249999998
EXTRACT: note_on channel=7 note=43 velocity=104 time=0.0054347812499999995
EXTRACT: note_on channel=9 note=44 velocity=0 time=0.062499984375
EXTRACT: note_on channel=7 note=43 velocity=0 time=0.044836945312499994
EXTRACT: note_on channel=7 note=45 velocity=104 time=0.023097820312499996
EXTRACT: note_on channel=9 note=42 velocity=53 time=0
EXTRACT: note_on channel=7 note=43 velocity=94 time=0.065217375
EXTRACT: note_on channel=1 note=72 velocity=0 time=0.0027173906249999998
EXTRACT: note_on channel=1 note=60 velocity=0 time=0
EXTRACT: note_on channel=9 note=42 velocity=0 time=0.0529891171875
EXTRACT: note_on channel=7 note=45 velocity=0 time=0.017663039062499997
EXTRACT: note_on channel=7 note=43 velocity=0 time=0.048913031249999996
EXTRACT: note_on channel=1 note=60 velocity=104 time=0.073369546875
EXTRACT: note_on channel=1 note=72 velocity=104 time=0
EXTRACT: note_on channel=7 note=45 velocity=127 time=0
EXTRACT: note_on channel=9 note=36 velocity=114 time=0
EXTRACT: note_on channel=9 note=44 velocity=110 time=0
EXTRACT: note_on channel=9 note=39 velocity=94 time=0
EXTRACT: note_on channel=9 note=40 velocity=115 time=0
EXTRACT: control_change channel=6 control=64 value=127 time=0.0027173906249999998
EXTRACT: note_on channel=1 note=74 velocity=115 time=0.062499984375
EXTRACT: note_on channel=1 note=72 velocity=0 time=0.023097820312499996
EXTRACT: note_on channel=1 note=60 velocity=0 time=0
EXTRACT: note_on channel=9 note=36 velocity=0 time=0.013586953124999999
EXTRACT: note_on channel=9 note=39 velocity=0 time=0.0027173906249999998
EXTRACT: note_on channel=9 note=40 velocity=0 time=0.006793476562499999
EXTRACT: note_on channel=1 note=62 velocity=115 time=0.019021734375
EXTRACT: note_on channel=9 note=44 velocity=0 time=0.0692934609375
EXTRACT: note_on channel=1 note=74 velocity=0 time=0.0326086875
EXTRACT: note_on channel=6 note=55 velocity=0 time=0.0095108671875
EXTRACT: note_on channel=1 note=60 velocity=115 time=0.019021734375
EXTRACT: note_on channel=1 note=72 velocity=115 time=0
EXTRACT: note_on channel=9 note=42 velocity=33 time=0
EXTRACT: note_on channel=6 note=64 velocity=0 time=0.008152171875
EXTRACT: note_on channel=6 note=60 velocity=0 time=0.023097820312499996
EXTRACT: note_on channel=1 note=62 velocity=0 time=0.0054347812499999995
EXTRACT: note_on channel=7 note=45 velocity=0 time=0.0054347812499999995
EXTRACT: note_on channel=7 note=43 velocity=127 time=0.0883151953125
EXTRACT: note_on channel=1 note=72 velocity=0 time=0.0013586953124999999
EXTRACT: note_on channel=1 note=60 velocity=0 time=0
EXTRACT: note_on channel=9 note=42 velocity=0 time=0.0054347812499999995
EXTRACT: control_change channel=6 control=64 value=0 time=0.023097820312499996
EXTRACT: control_change channel=6 control=64 value=127 time=0.0095108671875
EXTRACT: control_change channel=6 control=64 value=0 time=0.0040760859375
EXTRACT: note_on channel=7 note=43 velocity=0 time=0.043478249999999996
EXTRACT: note_on channel=6 note=64 velocity=104 time=0.043478249999999996
EXTRACT: note_on channel=6 note=55 velocity=104 time=0
EXTRACT: note_on channel=6 note=60 velocity=104 time=0
EXTRACT: note_on channel=7 note=45 velocity=127 time=0
EXTRACT: note_on channel=9 note=44 velocity=110 time=0
EXTRACT: note_on channel=9 note=36 velocity=115 time=0
EXTRACT: note_on channel=7 note=45 velocity=0 time=0.08695649999999999
EXTRACT: note_on channel=9 note=36 velocity=0 time=0.0054347812499999995
EXTRACT: control_change channel=6 control=64 value=127 time=0.0760869375
EXTRACT: note_on channel=9 note=44 velocity=0 time=0.01630434375
EXTRACT: note_on channel=7 note=38 velocity=127 time=0.0760869375
EXTRACT: note_on channel=9 note=42 velocity=33 time=0
EXTRACT: note_on channel=9 note=85 velocity=104 time=0
EXTRACT: note_on channel=9 note=39 velocity=53 time=0
EXTRACT: note_on channel=9 note=85 velocity=0 time=0.0910325859375
EXTRACT: note_on channel=9 note=39 velocity=0 time=0.019021734375
EXTRACT: note_on channel=9 note=42 velocity=0 time=0.010869562499999999
EXTRACT: note_on channel=6 note=55 velocity=0 time=0.105978234375
EXTRACT: note_on channel=7 note=38 velocity=0 time=0.010869562499999999
EXTRACT: note_on channel=6 note=64 velocity=0 time=0.008152171875
EXTRACT: note_on channel=6 note=60 velocity=0 time=0.006793476562499999
EXTRACT: note_on channel=7 note=41 velocity=127 time=0.008152171875
EXTRACT: note_on channel=9 note=44 velocity=110 time=0
EXTRACT: note_on channel=9 note=36 velocity=114 time=0
EXTRACT: note_on channel=9 note=39 velocity=104 time=0
EXTRACT: note_on channel=9 note=40 velocity=104 time=0
EXTRACT: note_on channel=9 note=39 velocity=0 time=0.0692934609375
EXTRACT: note_on channel=9 note=36 velocity=0 time=0.033967382812499995
EXTRACT: note_on channel=9 note=40 velocity=0 time=0.0013586953124999999
EXTRACT: note_on channel=9 note=44 velocity=0 time=0.058423898437499996
EXTRACT: note_on channel=7 note=41 velocity=0 time=0.0883151953125
EXTRACT: note_on channel=7 note=43 velocity=127 time=0.0095108671875
EXTRACT: note_on channel=9 note=42 velocity=33 time=0
EXTRACT: control_change channel=6 control=64 value=0 time=0.0883151953125
EXTRACT: control_change channel=6 control=64 value=127 time=0.008152171875
EXTRACT: control_change channel=6 control=64 value=0 time=0.0054347812499999995
EXTRACT: note_on channel=9 note=42 velocity=0 time=0.008152171875
EXTRACT: note_on channel=2 note=98 velocity=86 time=0.1508151796875
EXTRACT: note_on channel=6 note=58 velocity=104 time=0
EXTRACT: note_on channel=6 note=55 velocity=94 time=0
EXTRACT: note_on channel=6 note=65 velocity=94 time=0
EXTRACT: note_on channel=6 note=62 velocity=94 time=0
EXTRACT: note_on channel=7 note=31 velocity=127 time=0
EXTRACT: note_on channel=9 note=46 velocity=115 time=0
EXTRACT: note_on channel=9 note=36 velocity=110 time=0
EXTRACT: note_on channel=7 note=43 velocity=0 time=0.017663039062499997
EXTRACT: note_on channel=2 note=98 velocity=0 time=0.058423898437499996
EXTRACT: aftertouch channel=7 value=2 time=0.03804346875
EXTRACT: note_on channel=9 note=36 velocity=0 time=0.014945648437499999
EXTRACT: aftertouch channel=7 value=0 time=0.048913031249999996
EXTRACT: note_on channel=7 note=31 velocity=0 time=0.013586953124999999
EXTRACT: aftertouch channel=7 value=0 time=0.0013586953124999999
EXTRACT: control_change channel=6 control=64 value=127 time=0.0013586953124999999
EXTRACT: note_on channel=9 note=46 velocity=0 time=0.014945648437499999
EXTRACT: note_on channel=7 note=43 velocity=127 time=0.051630421875
EXTRACT: note_on channel=9 note=70 velocity=37 time=0
EXTRACT: note_on channel=7 note=43 velocity=0 time=0.054347812499999995
EXTRACT: note_on channel=9 note=70 velocity=0 time=0.03532607812499999
EXTRACT: note_on channel=2 note=98 velocity=79 time=0.17119560937499997
EXTRACT: note_on channel=7 note=34 velocity=127 time=0
EXTRACT: note_on channel=9 note=44 velocity=110 time=0
EXTRACT: note_on channel=9 note=36 velocity=114 time=0
EXTRACT: note_on channel=9 note=39 velocity=94 time=0
EXTRACT: note_on channel=9 note=40 velocity=104 time=0
EXTRACT: control_change channel=6 control=64 value=0 time=0.06114128906249999
EXTRACT: control_change channel=6 control=64 value=127 time=0.006793476562499999
EXTRACT: note_on channel=2 note=98 velocity=0 time=0.0013586953124999999
EXTRACT: note_on channel=6 note=55 velocity=0 time=0.0027173906249999998
EXTRACT: control_change channel=6 control=64 value=0 time=0.0013586953124999999
EXTRACT: note_on channel=6 note=58 velocity=0 time=0.006793476562499999
EXTRACT: note_on channel=6 note=65 velocity=0 time=0.006793476562499999
EXTRACT: note_on channel=6 note=62 velocity=0 time=0.0095108671875
EXTRACT: note_on channel=9 note=39 velocity=0 time=0.0095108671875
EXTRACT: note_on channel=9 note=36 velocity=0 time=0.01630434375
EXTRACT: note_on channel=9 note=40 velocity=0 time=0.033967382812499995
EXTRACT: note_on channel=9 note=44 velocity=0 time=0.023097820312499996
EXTRACT: note_on channel=7 note=34 velocity=0 time=0.05570650781249999
EXTRACT: note_on channel=6 note=65 velocity=94 time=0.0258152109375
EXTRACT: note_on channel=6 note=55 velocity=79 time=0
EXTRACT: note_on channel=6 note=58 velocity=94 time=0
EXTRACT: note_on channel=6 note=62 velocity=104 time=0
EXTRACT: note_on channel=7 note=39 velocity=127 time=0
EXTRACT: note_on channel=9 note=42 velocity=35 time=0
EXTRACT: control_change channel=6 control=64 value=127 time=0.07472824218749999
EXTRACT: note_on channel=9 note=42 velocity=0 time=0.01630434375
EXTRACT: note_on channel=1 note=55 velocity=115 time=0.16983691406249998
EXTRACT: note_on channel=1 note=67 velocity=115 time=0
EXTRACT: note_on channel=2 note=98 velocity=79 time=0
EXTRACT: note_on channel=9 note=44 velocity=110 time=0
EXTRACT: note_on channel=9 note=36 velocity=114 time=0
EXTRACT: note_on channel=7 note=39 velocity=0 time=0.0203804296875
EXTRACT: note_on channel=7 note=39 velocity=68 time=0.044836945312499994
EXTRACT: note_on channel=2 note=98 velocity=0 time=0.0054347812499999995
EXTRACT: note_on channel=7 note=39 velocity=0 time=0.014945648437499999
EXTRACT: note_on channel=9 note=36 velocity=0 time=0.027173906249999998
EXTRACT: note_on channel=1 note=67 velocity=0 time=0.012228257812499999
EXTRACT: note_on channel=1 note=55 velocity=0 time=0
EXTRACT: note_on channel=9 note=44 velocity=0 time=0.051630421875
EXTRACT: note_on channel=1 note=55 velocity=115 time=0.084239109375
EXTRACT: note_on channel=1 note=67 velocity=115 time=0
EXTRACT: note_on channel=7 note=51 velocity=127 time=0
EXTRACT: note_on channel=9 note=42 velocity=45 time=0
EXTRACT: note_on channel=7 note=51 velocity=0 time=0.03804346875
EXTRACT: note_on channel=9 note=42 velocity=0 time=0.0910325859375
EXTRACT: note_on channel=1 note=67 velocity=0 time=0.0013586953124999999
EXTRACT: note_on channel=1 note=55 velocity=0 time=0
EXTRACT: note_on channel=1 note=58 velocity=127 time=0.13043475
EXTRACT: note_on channel=1 note=70 velocity=127 time=0
EXTRACT: note_on channel=2 note=98 velocity=68 time=0
EXTRACT: note_on channel=7 note=39 velocity=115 time=0
EXTRACT: note_on channel=9 note=44 velocity=110 time=0
EXTRACT: note_on channel=9 note=36 velocity=114 time=0
EXTRACT: note_on channel=9 note=40 velocity=115 time=0
EXTRACT: note_on channel=9 note=39 velocity=94 time=0
EXTRACT: note_on channel=2 note=98 velocity=0 time=0.06385867968749999
EXTRACT: note_on channel=9 note=39 velocity=0 time=0.033967382812499995
EXTRACT: note_on channel=9 note=36 velocity=0 time=0.017663039062499997
EXTRACT: note_on channel=9 note=44 velocity=0 time=0.008152171875
EXTRACT: note_on channel=9 note=40 velocity=0 time=0.0013586953124999999
EXTRACT: note_on channel=9 note=42 velocity=53 time=0.13586953124999998
EXTRACT: note_on channel=7 note=39 velocity=0 time=0.029891296874999997
EXTRACT: note_on channel=6 note=62 velocity=0 time=0.065217375
EXTRACT: note_on channel=6 note=65 velocity=0 time=0.006793476562499999
EXTRACT: note_on channel=6 note=58 velocity=0 time=0.014945648437499999
EXTRACT: note_on channel=9 note=42 velocity=0 time=0.0054347812499999995
EXTRACT: note_on channel=1 note=70 velocity=0 time=0.0040760859375
EXTRACT: note_on channel=1 note=58 velocity=0 time=0
EXTRACT: note_on channel=1 note=55 velocity=104 time=0.0040760859375
EXTRACT: note_on channel=1 note=67 velocity=104 time=0
EXTRACT: note_on channel=7 note=39 velocity=104 time=0
EXTRACT: note_on channel=6 note=55 velocity=0 time=0.006793476562499999
EXTRACT: control_change channel=6 control=64 value=0 time=0.0095108671875
EXTRACT: control_change channel=6 control=64 value=127 time=0.006793476562499999
EXTRACT: control_change channel=6 control=64 value=0 time=0.0054347812499999995
EXTRACT: note_on channel=1 note=67 velocity=0 time=0.040760859375
EXTRACT: note_on channel=1 note=55 velocity=0 time=0
EXTRACT: note_on channel=7 note=39 velocity=0 time=0.03532607812499999
EXTRACT: note_on channel=1 note=62 velocity=127 time=0.0258152109375
EXTRACT: note_on channel=1 note=74 velocity=127 time=0
EXTRACT: note_on channel=2 note=98 velocity=63 time=0
EXTRACT: note_on channel=6 note=62 velocity=104 time=0
EXTRACT: note_on channel=6 note=65 velocity=104 time=0
EXTRACT: note_on channel=6 note=57 velocity=94 time=0
EXTRACT: note_on channel=6 note=60 velocity=104 time=0
EXTRACT: note_on channel=7 note=41 velocity=127 time=0
EXTRACT: note_on channel=9 note=36 velocity=114 time=0
EXTRACT: note_on channel=9 note=44 velocity=110 time=0
EXTRACT: note_on channel=7 note=41 velocity=0 time=0.044836945312499994
EXTRACT: note_on channel=2 note=98 velocity=0 time=0.029891296874999997
EXTRACT: note_on channel=1 note=74 velocity=0 time=0.040760859375
EXTRACT: note_on channel=1 note=62 velocity=0 time=0
EXTRACT: note_on channel=9 note=36 velocity=0 time=0.0095108671875
EXTRACT: control_change channel=6 control=64 value=127 time=0.013586953124999999
EXTRACT: note_on channel=9 note=44 velocity=0 time=0.054347812499999995
EXTRACT: note_on channel=1 note=62 velocity=127 time=0.06793476562499999
EXTRACT: note_on channel=1 note=74 velocity=127 time=0
EXTRACT: note_on channel=9 note=42 velocity=53 time=0
EXTRACT: note_on channel=1 note=74 velocity=0 time=0.1100543203125
EXTRACT: note_on channel=1 note=62 velocity=0 time=0
EXTRACT: note_on channel=9 note=42 velocity=0 time=0.010869562499999999
EXTRACT: note_on channel=1 note=60 velocity=127 time=0.13994561718749998
EXTRACT: note_on channel=1 note=72 velocity=127 time=0
EXTRACT: note_on channel=2 note=98 velocity=58 time=0
EXTRACT: note_on channel=7 note=41 velocity=127 time=0
EXTRACT: note_on channel=9 note=36 velocity=114 time=0
EXTRACT: note_on channel=9 note=44 velocity=110 time=0
EXTRACT: note_on channel=9 note=39 velocity=94 time=0
EXTRACT: note_on channel=9 note=40 velocity=115 time=0
EXTRACT: note_on channel=2 note=98 velocity=0 time=0.062499984375
EXTRACT: note_on channel=1 note=74 velocity=115 time=0.0027173906249999998
EXTRACT: note_on channel=9 note=36 velocity=0 time=0.0366847734375
EXTRACT: note_on channel=1 note=72 velocity=0 time=0.0027173906249999998
EXTRACT: note_on channel=1 note=60 velocity=0 time=0
EXTRACT: note_on channel=9 note=39 velocity=0 time=0
EXTRACT: note_on channel=9 note=40 velocity=0 time=0.006793476562499999
EXTRACT: note_on channel=1 note=62 velocity=115 time=0.019021734375
EXTRACT: note_on channel=9 note=44 velocity=0 time=0.0692934609375
EXTRACT: note_on channel=1 note=74 velocity=0 time=0.0421195546875
EXTRACT: note_on channel=9 note=42 velocity=33 time=0.019021734375
EXTRACT: note_on channel=1 note=62 velocity=0 time=0.04619564062499999
EXTRACT: note_on channel=7 note=39 velocity=115 time=0.084239109375
EXTRACT: note_on channel=9 note=42 velocity=0 time=0.006793476562499999
EXTRACT: control_change channel=6 control=64 value=0 time=0.0054347812499999995
EXTRACT: note_on channel=7 note=41 velocity=0 time=0.0013586953124999999
EXTRACT: note_on channel=6 note=57 velocity=0 time=0.0013586953124999999
EXTRACT: control_change channel=6 control=64 value=127 time=0.0027173906249999998
EXTRACT: note_on channel=6 note=65 velocity=0 time=0.0095108671875
EXTRACT: control_change channel=6 control=64 value=0 time=0.0013586953124999999
EXTRACT: note_on channel=6 note=62 velocity=0 time=0.006793476562499999
EXTRACT: note_on channel=6 note=60 velocity=0 time=0.008152171875
EXTRACT: note_on channel=7 note=39 velocity=0 time=0.040760859375
EXTRACT: note_on channel=2 note=98 velocity=53 time=0.04619564062499999
EXTRACT: note_on channel=6 note=57 velocity=86 time=0
EXTRACT: note_on channel=6 note=60 velocity=94 time=0
EXTRACT: note_on channel=6 note=62 velocity=94 time=0
EXTRACT: note_on channel=6 note=65 velocity=94 time=0
EXTRACT: note_on channel=7 note=38 velocity=127 time=0
EXTRACT: note_on channel=7 note=39 velocity=51 time=0
EXTRACT: note_on channel=9 note=44 velocity=110 time=0
EXTRACT: note_on channel=9 note=36 velocity=115 time=0
EXTRACT: note_on channel=7 note=39 velocity=0 time=0.01630434375
EXTRACT: note_on channel=2 note=98 velocity=0 time=0.058423898437499996
EXTRACT: control_change channel=6 control=64 value=127 time=0.0027173906249999998
EXTRACT: note_on channel=7 note=38 velocity=0 time=0.006793476562499999
EXTRACT: note_on channel=9 note=36 velocity=0 time=0.008152171875
EXTRACT: note_on channel=9 note=44 velocity=0 time=0.09239128124999998
EXTRACT: note_on channel=7 note=38 velocity=127 time=0.0760869375
EXTRACT: note_on channel=9 note=42 velocity=33 time=0
EXTRACT: note_on channel=9 note=85 velocity=104 time=0
EXTRACT: note_on channel=9 note=39 velocity=53 time=0
EXTRACT: note_on channel=7 note=38 velocity=0 time=0.0665760703125
EXTRACT: note_on channel=9 note=85 velocity=0 time=0.024456515624999998
EXTRACT: note_on channel=9 note=39 velocity=0 time=0.019021734375
EXTRACT: note_on channel=9 note=42 velocity=0 time=0.010869562499999999
EXTRACT: note_on channel=2 note=98 velocity=48 time=0.13994561718749998
EXTRACT: note_on channel=7 note=38 velocity=127 time=0
EXTRACT: note_on channel=9 note=44 velocity=110 time=0
EXTRACT: note_on channel=9 note=36 velocity=114 time=0
EXTRACT: note_on channel=9 note=39 velocity=104 time=0
EXTRACT: note_on channel=9 note=40 velocity=104 time=0
EXTRACT: note_on channel=2 note=98 velocity=0 time=0.058423898437499996
EXTRACT: note_on channel=9 note=39 velocity=0 time=0.010869562499999999
EXTRACT: note_on channel=6 note=57 velocity=0 time=0.0040760859375
EXTRACT: note_on channel=9 note=36 velocity=0 time=0.029891296874999997
EXTRACT: note_on channel=9 note=40 velocity=0 time=0.0013586953124999999
EXTRACT: note_on channel=6 note=65 velocity=0 time=0.008152171875
EXTRACT: note_on channel=6 note=60 velocity=0 time=0.0054347812499999995
EXTRACT: note_on channel=6 note=62 velocity=0 time=0.010869562499999999
EXTRACT: note_on channel=9 note=44 velocity=0 time=0.033967382812499995
EXTRACT: note_on channel=7 note=38 velocity=0 time=0.08695649999999999
EXTRACT: note_on channel=7 note=36 velocity=127 time=0.010869562499999999
EXTRACT: note_on channel=9 note=42 velocity=33 time=0
EXTRACT: note_on channel=7 note=36 velocity=0 time=0.08967389062499999
EXTRACT: note_on channel=9 note=42 velocity=0 time=0.0203804296875
EXTRACT: note_on channel=7 note=38 velocity=127 time=0.0203804296875
EXTRACT: control_change channel=6 control=64 value=0 time=0.08695649999999999
EXTRACT: control_change channel=6 control=64 value=127 time=0.0013586953124999999
EXTRACT: control_change channel=6 control=64 value=0 time=0.006793476562499999
EXTRACT: note_on channel=6 note=69 velocity=104 time=0.03532607812499999
EXTRACT: note_on channel=6 note=60 velocity=94 time=0
EXTRACT: note_on channel=6 note=62 velocity=94 time=0
EXTRACT: note_on channel=7 note=31 velocity=104 time=0
EXTRACT: note_on channel=9 note=46 velocity=115 time=0
EXTRACT: note_on channel=9 note=36 velocity=110 time=0
EXTRACT: note_on channel=7 note=38 velocity=0 time=0.0040760859375
EXTRACT: aftertouch channel=7 value=2 time=0.10326084375
EXTRACT: aftertouch channel=7 value=6 time=0.014945648437499999
EXTRACT: note_on channel=9 note=36 velocity=0 time=0.006793476562499999
EXTRACT: control_change channel=6 control=64 value=127 time=0.023097820312499996
EXTRACT: aftertouch channel=7 value=2 time=0.0312499921875
EXTRACT: aftertouch channel=7 value=0 time=0.01630434375
EXTRACT: note_on channel=9 note=46 velocity=0 time=0.0095108671875
EXTRACT: note_on channel=6 note=69 velocity=0 time=0.0013586953124999999
EXTRACT: aftertouch channel=7 value=0 time=0.0054347812499999995
EXTRACT: note_on channel=7 note=31 velocity=0 time=0.017663039062499997
EXTRACT: note_on channel=6 note=67 velocity=73 time=0.027173906249999998
EXTRACT: note_on channel=7 note=43 velocity=127 time=0
EXTRACT: note_on channel=9 note=70 velocity=37 time=0
EXTRACT: note_on channel=7 note=43 velocity=0 time=0.050271726562499994
EXTRACT: note_on channel=6 note=62 velocity=0 time=0.0013586953124999999
EXTRACT: note_on channel=9 note=70 velocity=0 time=0.03804346875
EXTRACT: note_on channel=6 note=67 velocity=0 time=0.09646736718749999
EXTRACT: note_on channel=6 note=65 velocity=104 time=0.07472824218749999
EXTRACT: note_on channel=7 note=34 velocity=127 time=0
EXTRACT: note_on channel=9 note=44 velocity=110 time=0
EXTRACT: note_on channel=9 note=36 velocity=114 time=0
EXTRACT: note_on channel=9 note=39 velocity=94 time=0
EXTRACT: note_on channel=9 note=40 velocity=104 time=0
EXTRACT: note_on channel=6 note=65 velocity=0 time=0.0883151953125
EXTRACT: control_change channel=6 control=64 value=0 time=0.006793476562499999
EXTRACT: note_on channel=6 note=60 velocity=0 time=0.0013586953124999999
EXTRACT: control_change channel=6 control=64 value=127 time=0.008152171875
EXTRACT: note_on channel=9 note=39 velocity=0 time=0.0013586953124999999
EXTRACT: control_change channel=6 control=64 value=0 time=0.0027173906249999998
EXTRACT: control_change channel=6 control=64 value=127 time=0.008152171875
EXTRACT: control_change channel=6 control=64 value=0 time=0.0040760859375
EXTRACT: note_on channel=9 note=36 velocity=0 time=0.0013586953124999999
EXTRACT: note_on channel=9 note=40 velocity=0 time=0.033967382812499995
EXTRACT: note_on channel=9 note=44 velocity=0 time=0.023097820312499996
EXTRACT: note_on channel=7 note=34 velocity=0 time=0.040760859375
EXTRACT: note_on channel=6 note=67 velocity=86 time=0.040760859375
EXTRACT: note_on channel=6 note=62 velocity=104 time=0
EXTRACT: note_on channel=6 note=58 velocity=104 time=0
EXTRACT: note_on channel=7 note=39 velocity=127 time=0
EXTRACT: note_on channel=9 note=42 velocity=35 time=0
EXTRACT: note_on channel=9 note=42 velocity=0 time=0.0910325859375
EXTRACT: note_on channel=1 note=67 velocity=104 time=0.039402164062499995
EXTRACT: control_change channel=6 control=64 value=127 time=0.024456515624999998
EXTRACT: note_on channel=1 note=67 velocity=0 time=0.084239109375
EXTRACT: note_on channel=1 note=62 velocity=115 time=0.021739124999999998
EXTRACT: note_on channel=1 note=74 velocity=115 time=0
EXTRACT: note_on channel=9 note=44 velocity=110 time=0
EXTRACT: note_on channel=9 note=36 velocity=114 time=0
EXTRACT: note_on channel=7 note=39 velocity=0 time=0.050271726562499994
EXTRACT: note_on channel=7 note=39 velocity=55 time=0.014945648437499999
EXTRACT: note_on channel=7 note=39 velocity=0 time=0.017663039062499997
EXTRACT: note_on channel=1 note=74 velocity=0 time=0.0258152109375
EXTRACT: note_on channel=1 note=62 velocity=0 time=0
EXTRACT: note_on channel=9 note=36 velocity=0 time=0.0040760859375
EXTRACT: note_on channel=9 note=44 velocity=0 time=0.06385867968749999
EXTRACT: note_on channel=1 note=63 velocity=104 time=0.084239109375
EXTRACT: note_on channel=1 note=75 velocity=104 time=0
EXTRACT: note_on channel=7 note=51 velocity=127 time=0
EXTRACT: note_on channel=9 note=42 velocity=45 time=0
EXTRACT: note_on channel=7 note=51 velocity=0 time=0.0312499921875
EXTRACT: note_on channel=1 note=75 velocity=0 time=0.0529891171875
EXTRACT: note_on channel=1 note=63 velocity=0 time=0
EXTRACT: note_on channel=9 note=42 velocity=0 time=0.044836945312499994
EXTRACT: note_on channel=1 note=62 velocity=127 time=0.13179344531249998
EXTRACT: note_on channel=1 note=74 velocity=127 time=0
EXTRACT: note_on channel=7 note=39 velocity=127 time=0
EXTRACT: note_on channel=9 note=44 velocity=110 time=0
EXTRACT: note_on channel=9 note=36 velocity=114 time=0
EXTRACT: note_on channel=9 note=40 velocity=115 time=0
EXTRACT: note_on channel=9 note=39 velocity=94 time=0
EXTRACT: note_on channel=6 note=58 velocity=0 time=0.028532601562499996
EXTRACT: note_on channel=6 note=67 velocity=0 time=0.013586953124999999
EXTRACT: note_on channel=6 note=62 velocity=0 time=0.0095108671875
EXTRACT: note_on channel=9 note=39 velocity=0 time=0.04619564062499999
EXTRACT: note_on channel=9 note=36 velocity=0 time=0.017663039062499997
EXTRACT: note_on channel=9 note=44 velocity=0 time=0.008152171875
EXTRACT: note_on channel=9 note=40 velocity=0 time=0.0013586953124999999
EXTRACT: note_on channel=1 note=74 velocity=0 time=0.0760869375
EXTRACT: note_on channel=1 note=62 velocity=0 time=0
EXTRACT: note_on channel=1 note=58 velocity=104 time=0.059782593749999995
EXTRACT: note_on channel=1 note=70 velocity=104 time=0
EXTRACT: note_on channel=9 note=42 velocity=53 time=0
EXTRACT: note_on channel=7 note=39 velocity=0 time=0.014945648437499999
EXTRACT: note_on channel=1 note=70 velocity=0 time=0.08559780468749999
EXTRACT: note_on channel=1 note=58 velocity=0 time=0
EXTRACT: note_on channel=9 note=42 velocity=0 time=0.021739124999999998
EXTRACT: note_on channel=7 note=43 velocity=127 time=0.008152171875
EXTRACT: control_change channel=6 control=64 value=0 time=0.0801630234375
EXTRACT: control_change channel=6 control=64 value=127 time=0.006793476562499999
EXTRACT: control_change channel=6 control=64 value=0 time=0.0040760859375
EXTRACT: note_on channel=7 note=43 velocity=0 time=0.0203804296875
EXTRACT: note_on channel=1 note=60 velocity=127 time=0.019021734375
EXTRACT: note_on channel=1 note=72 velocity=127 time=0
EXTRACT: note_on channel=6 note=55 velocity=115 time=0
EXTRACT: note_on channel=6 note=64 velocity=104 time=0
EXTRACT: note_on channel=6 note=60 velocity=115 time=0
EXTRACT: note_on channel=7 note=45 velocity=104 time=0
EXTRACT: note_on channel=9 note=36 velocity=114 time=0
EXTRACT: note_on channel=9 note=44 velocity=110 time=0
EXTRACT: note_on channel=7 note=45 velocity=0 time=0.10733692968749999
EXTRACT: note_on channel=9 note=36 velocity=0 time=0.017663039062499997
EXTRACT: note_on channel=7 note=43 velocity=115 time=0.0054347812499999995
EXTRACT: note_on channel=9 note=44 velocity=0 time=0.062499984375
EXTRACT: note_on channel=7 note=43 velocity=0 time=0.05706520312499999
EXTRACT: note_on channel=7 note=45 velocity=115 time=0.010869562499999999
EXTRACT: note_on channel=9 note=42 velocity=53 time=0
EXTRACT: note_on channel=1 note=72 velocity=0 time=0.09646736718749999
EXTRACT: note_on channel=1 note=60 velocity=0 time=0
EXTRACT: note_on channel=9 note=42 velocity=0 time=0.024456515624999998
EXTRACT: note_on channel=7 note=43 velocity=115 time=0.0095108671875
EXTRACT: note_on channel=7 note=45 velocity=0 time=0.0040760859375
EXTRACT: note_on channel=7 note=43 velocity=0 time=0.11820649218749998
EXTRACT: note_on channel=1 note=60 velocity=115 time=0.008152171875
EXTRACT: note_on channel=1 note=72 velocity=115 time=0
EXTRACT: note_on channel=7 note=45 velocity=115 time=0
EXTRACT: note_on channel=9 note=36 velocity=114 time=0
EXTRACT: note_on channel=9 note=44 velocity=110 time=0
EXTRACT: note_on channel=9 note=39 velocity=94 time=0
EXTRACT: note_on channel=9 note=40 velocity=115 time=0
EXTRACT: control_change channel=6 control=64 value=127 time=0.0027173906249999998
EXTRACT: note_on channel=1 note=74 velocity=104 time=0.062499984375
EXTRACT: note_on channel=1 note=72 velocity=0 time=0.017663039062499997
EXTRACT: note_on channel=1 note=60 velocity=0 time=0
EXTRACT: note_on channel=9 note=36 velocity=0 time=0.019021734375
EXTRACT: note_on channel=9 note=39 velocity=0 time=0.0027173906249999998
EXTRACT: note_on channel=9 note=40 velocity=0 time=0.006793476562499999
EXTRACT: note_on channel=1 note=62 velocity=104 time=0.019021734375
EXTRACT: note_on channel=9 note=44 velocity=0 time=0.0692934609375
EXTRACT: note_on channel=7 note=45 velocity=0 time=0.0040760859375
EXTRACT: note_on channel=1 note=74 velocity=0 time=0.0040760859375
EXTRACT: note_on channel=6 note=55 velocity=0 time=0.033967382812499995
EXTRACT: note_on channel=1 note=60 velocity=94 time=0.019021734375
EXTRACT: note_on channel=1 note=72 velocity=94 time=0
EXTRACT: note_on channel=9 note=42 velocity=33 time=0
EXTRACT: note_on channel=6 note=64 velocity=0 time=0.008152171875
EXTRACT: note_on channel=1 note=62 velocity=0 time=0.0040760859375
EXTRACT: note_on channel=6 note=60 velocity=0 time=0.019021734375
EXTRACT: note_on channel=1 note=72 velocity=0 time=0.08152171875
EXTRACT: note_on channel=1 note=60 velocity=0 time=0
EXTRACT: note_on channel=7 note=43 velocity=127 time=0.017663039062499997
EXTRACT: note_on channel=9 note=42 velocity=0 time=0.006793476562499999
EXTRACT: control_change channel=6 control=64 value=0 time=0.023097820312499996
EXTRACT: control_change channel=6 control=64 value=127 time=0.0095108671875
EXTRACT: control_change channel=6 control=64 value=0 time=0.0040760859375
EXTRACT: note_on channel=7 note=43 velocity=0 time=0.048913031249999996
EXTRACT: note_on channel=6 note=64 velocity=104 time=0.03804346875
EXTRACT: note_on channel=6 note=55 velocity=104 time=0
EXTRACT: note_on channel=6 note=60 velocity=104 time=0
EXTRACT: note_on channel=7 note=45 velocity=127 time=0
EXTRACT: note_on channel=9 note=44 velocity=110 time=0
EXTRACT: note_on channel=9 note=36 velocity=115 time=0
EXTRACT: note_on channel=9 note=36 velocity=0 time=0.09239128124999998
EXTRACT: note_on channel=7 note=45 velocity=0 time=0.017663039062499997
EXTRACT: control_change channel=6 control=64 value=127 time=0.058423898437499996
EXTRACT: note_on channel=9 note=44 velocity=0 time=0.01630434375
EXTRACT: note_on channel=7 note=38 velocity=127 time=0.0760869375
EXTRACT: note_on channel=9 note=42 velocity=33 time=0
EXTRACT: note_on channel=9 note=85 velocity=104 time=0
EXTRACT: note_on channel=9 note=39 velocity=53 time=0
EXTRACT: note_on channel=9 note=85 velocity=0 time=0.0910325859375
EXTRACT: note_on channel=9 note=39 velocity=0 time=0.019021734375
EXTRACT: note_on channel=9 note=42 velocity=0 time=0.010869562499999999
EXTRACT: note_on channel=6 note=55 velocity=0 time=0.105978234375
EXTRACT: note_on channel=6 note=64 velocity=0 time=0.019021734375
EXTRACT: note_on channel=7 note=38 velocity=0 time=0.0054347812499999995
EXTRACT: note_on channel=6 note=60 velocity=0 time=0.0013586953124999999
EXTRACT: note_on channel=7 note=41 velocity=127 time=0.008152171875
EXTRACT: note_on channel=9 note=44 velocity=110 time=0
EXTRACT: note_on channel=9 note=36 velocity=114 time=0
EXTRACT: note_on channel=9 note=39 velocity=104 time=0
EXTRACT: note_on channel=9 note=40 velocity=104 time=0
EXTRACT: note_on channel=9 note=39 velocity=0 time=0.0692934609375
EXTRACT: note_on channel=9 note=36 velocity=0 time=0.033967382812499995
EXTRACT: note_on channel=9 note=40 velocity=0 time=0.0013586953124999999
EXTRACT: note_on channel=9 note=44 velocity=0 time=0.058423898437499996
EXTRACT: note_on channel=7 note=43 velocity=127 time=0.09782606249999999
EXTRACT: note_on channel=9 note=42 velocity=33 time=0
EXTRACT: note_on channel=7 note=41 velocity=0 time=0.0054347812499999995
EXTRACT: control_change channel=6 control=64 value=0 time=0.08288041406249999
EXTRACT: control_change channel=6 control=64 value=127 time=0.008152171875
EXTRACT: control_change channel=6 control=64 value=0 time=0.0054347812499999995
EXTRACT: note_on channel=9 note=42 velocity=0 time=0.008152171875
EXTRACT: note_on channel=6 note=65 velocity=94 time=0.1508151796875
EXTRACT: note_on channel=6 note=62 velocity=94 time=0
EXTRACT: note_on channel=6 note=58 velocity=104 time=0
EXTRACT: note_on channel=6 note=55 velocity=94 time=0
EXTRACT: note_on channel=7 note=39 velocity=127 time=0
EXTRACT: note_on channel=9 note=44 velocity=115 time=0
EXTRACT: note_on channel=9 note=36 velocity=110 time=0
EXTRACT: note_on channel=7 note=43 velocity=0 time=0.006793476562499999
EXTRACT: note_on channel=9 note=36 velocity=0 time=0.12228257812499999
EXTRACT: note_on channel=9 note=44 velocity=0 time=0.0801630234375
EXTRACT: note_on channel=7 note=39 velocity=0 time=0.048913031249999996
EXTRACT: note_on channel=7 note=51 velocity=115 time=0.0027173906249999998
EXTRACT: note_on channel=9 note=42 velocity=52 time=0
EXTRACT: note_on channel=9 note=42 velocity=0 time=0.08967389062499999
EXTRACT: note_on channel=7 note=51 velocity=0 time=0.160326046875
EXTRACT: note_on channel=7 note=39 velocity=127 time=0.010869562499999999
EXTRACT: note_on channel=9 note=44 velocity=110 time=0
EXTRACT: note_on channel=9 note=36 velocity=114 time=0
EXTRACT: note_on channel=9 note=39 velocity=94 time=0
EXTRACT: note_on channel=9 note=40 velocity=104 time=0
EXTRACT: note_on channel=9 note=39 velocity=0 time=0.105978234375
EXTRACT: note_on channel=9 note=36 velocity=0 time=0.01630434375
EXTRACT: note_on channel=9 note=40 velocity=0 time=0.033967382812499995
EXTRACT: note_on channel=9 note=44 velocity=0 time=0.023097820312499996
EXTRACT: note_on channel=7 note=39 velocity=0 time=0.024456515624999998
EXTRACT: note_on channel=7 note=39 velocity=104 time=0.05706520312499999
EXTRACT: note_on channel=9 note=42 velocity=35 time=0
EXTRACT: note_on channel=9 note=42 velocity=0 time=0.0910325859375
EXTRACT: note_on channel=7 note=39 velocity=0 time=0.1589673515625
EXTRACT: note_on channel=7 note=39 velocity=59 time=0.010869562499999999
EXTRACT: note_on channel=9 note=44 velocity=110 time=0
EXTRACT: note_on channel=9 note=36 velocity=114 time=0
EXTRACT: note_on channel=7 note=39 velocity=0 time=0.017663039062499997
EXTRACT: note_on channel=9 note=36 velocity=0 time=0.095108671875
EXTRACT: note_on channel=9 note=44 velocity=0 time=0.06385867968749999
EXTRACT: note_on channel=9 note=42 velocity=45 time=0.084239109375
EXTRACT: note_on channel=9 note=42 velocity=0 time=0.1290760546875
EXTRACT: note_on channel=9 note=44 velocity=110 time=0.13179344531249998
EXTRACT: note_on channel=9 note=36 velocity=114 time=0
EXTRACT: note_on channel=9 note=40 velocity=115 time=0
EXTRACT: note_on channel=9 note=39 velocity=94 time=0
EXTRACT: note_on channel=9 note=39 velocity=0 time=0.09782606249999999
EXTRACT: note_on channel=9 note=36 velocity=0 time=0.017663039062499997
EXTRACT: note_on channel=9 note=44 velocity=0 time=0.008152171875
EXTRACT: note_on channel=9 note=40 velocity=0 time=0.0013586953124999999
EXTRACT: note_on channel=9 note=42 velocity=53 time=0.13586953124999998
EXTRACT: note_on channel=9 note=42 velocity=0 time=0.12228257812499999
EXTRACT: note_on channel=7 note=39 velocity=115 time=0.008152171875
EXTRACT: note_on channel=6 note=58 velocity=0 time=0.0040760859375
EXTRACT: note_on channel=6 note=55 velocity=0 time=0.006793476562499999
EXTRACT: note_on channel=6 note=62 velocity=0 time=0.010869562499999999
EXTRACT: note_on channel=6 note=65 velocity=0 time=0.006793476562499999
EXTRACT: note_on channel=7 note=39 velocity=0 time=0.062499984375
EXTRACT: note_on channel=6 note=60 velocity=94 time=0.039402164062499995
EXTRACT: note_on channel=6 note=62 velocity=86 time=0
EXTRACT: note_on channel=6 note=65 velocity=94 time=0
EXTRACT: note_on channel=6 note=57 velocity=94 time=0
EXTRACT: note_on channel=7 note=41 velocity=127 time=0
EXTRACT: note_on channel=9 note=36 velocity=114 time=0
EXTRACT: note_on channel=9 note=44 velocity=110 time=0
EXTRACT: note_on channel=9 note=36 velocity=0 time=0.12499996875
EXTRACT: note_on channel=7 note=41 velocity=0 time=0.048913031249999996
EXTRACT: note_on channel=9 note=44 velocity=0 time=0.019021734375
EXTRACT: note_on channel=9 note=42 velocity=53 time=0.06793476562499999
EXTRACT: note_on channel=9 note=42 velocity=0 time=0.1209238828125
EXTRACT: note_on channel=7 note=41 velocity=127 time=0.13994561718749998
EXTRACT: note_on channel=9 note=36 velocity=114 time=0
EXTRACT: note_on channel=9 note=44 velocity=110 time=0
EXTRACT: note_on channel=9 note=39 velocity=94 time=0
EXTRACT: note_on channel=9 note=40 velocity=115 time=0
EXTRACT: note_on channel=9 note=36 velocity=0 time=0.10190214843749999
EXTRACT: note_on channel=9 note=39 velocity=0 time=0.0027173906249999998
EXTRACT: note_on channel=9 note=40 velocity=0 time=0.006793476562499999
EXTRACT: note_on channel=9 note=44 velocity=0 time=0.0883151953125
EXTRACT: note_on channel=9 note=42 velocity=33 time=0.06114128906249999
EXTRACT: note_on channel=7 note=39 velocity=115 time=0.13043475
EXTRACT: note_on channel=9 note=42 velocity=0 time=0.006793476562499999
EXTRACT: note_on channel=7 note=41 velocity=0 time=0.033967382812499995
EXTRACT: note_on channel=7 note=38 velocity=127 time=0.08967389062499999
EXTRACT: note_on channel=9 note=44 velocity=110 time=0
EXTRACT: note_on channel=9 note=36 velocity=115 time=0
EXTRACT: note_on channel=7 note=39 velocity=0 time=0.023097820312499996
EXTRACT: note_on channel=7 note=38 velocity=0 time=0.065217375
EXTRACT: note_on channel=9 note=36 velocity=0 time=0.0040760859375
EXTRACT: note_on channel=9 note=44 velocity=0 time=0.09239128124999998
EXTRACT: note_on channel=7 note=38 velocity=127 time=0.0760869375
EXTRACT: note_on channel=9 note=42 velocity=33 time=0
EXTRACT: note_on channel=9 note=85 velocity=104 time=0
EXTRACT: note_on channel=9 note=39 velocity=53 time=0
EXTRACT: note_on channel=7 note=38 velocity=0 time=0.051630421875
EXTRACT: note_on channel=9 note=85 velocity=0 time=0.039402164062499995
EXTRACT: note_on channel=9 note=39 velocity=0 time=0.019021734375
EXTRACT: note_on channel=9 note=42 velocity=0 time=0.010869562499999999
EXTRACT: note_on channel=7 note=38 velocity=127 time=0.13994561718749998
EXTRACT: note_on channel=9 note=44 velocity=110 time=0
EXTRACT: note_on channel=9 note=36 velocity=114 time=0
EXTRACT: note_on channel=9 note=39 velocity=104 time=0
EXTRACT: note_on channel=9 note=40 velocity=104 time=0
EXTRACT: note_on channel=9 note=39 velocity=0 time=0.0692934609375
EXTRACT: note_on channel=9 note=36 velocity=0 time=0.033967382812499995
EXTRACT: note_on channel=9 note=40 velocity=0 time=0.0013586953124999999
EXTRACT: note_on channel=9 note=44 velocity=0 time=0.058423898437499996
EXTRACT: note_on channel=7 note=36 velocity=127 time=0.09782606249999999
EXTRACT: note_on channel=9 note=42 velocity=33 time=0
EXTRACT: note_on channel=7 note=38 velocity=0 time=0.013586953124999999
EXTRACT: note_on channel=6 note=65 velocity=0 time=0.048913031249999996
EXTRACT: note_on channel=6 note=57 velocity=0 time=0.021739124999999998
EXTRACT: note_on channel=6 note=60 velocity=0 time=0.0013586953124999999
EXTRACT: note_on channel=6 note=62 velocity=0 time=0.008152171875
EXTRACT: note_on channel=9 note=42 velocity=0 time=0.01630434375
EXTRACT: note_on channel=7 note=36 velocity=0 time=0.010869562499999999
EXTRACT: note_on channel=7 note=38 velocity=104 time=0.0095108671875
EXTRACT: note_on channel=6 note=62 velocity=94 time=0.13043475
EXTRACT: note_on channel=6 note=58 velocity=115 time=0
EXTRACT: note_on channel=6 note=55 velocity=86 time=0
EXTRACT: note_on channel=7 note=31 velocity=104 time=0
EXTRACT: note_on channel=9 note=44 velocity=115 time=0
EXTRACT: note_on channel=9 note=36 velocity=110 time=0
EXTRACT: note_on channel=7 note=38 velocity=0 time=0.01630434375
EXTRACT: aftertouch channel=7 value=4 time=0.08152171875
EXTRACT: aftertouch channel=7 value=10 time=0.01630434375
EXTRACT: note_on channel=9 note=36 velocity=0 time=0.014945648437499999
EXTRACT: aftertouch channel=7 value=14 time=0.0013586953124999999
EXTRACT: aftertouch channel=7 value=10 time=0.06385867968749999
EXTRACT: aftertouch channel=7 value=6 time=0.013586953124999999
EXTRACT: note_on channel=9 note=44 velocity=0 time=0.0013586953124999999
EXTRACT: aftertouch channel=7 value=4 time=0.01630434375
EXTRACT: aftertouch channel=7 value=0 time=0.01630434375
EXTRACT: note_on channel=7 note=31 velocity=0 time=0.010869562499999999
EXTRACT: aftertouch channel=7 value=0 time=0.0054347812499999995
EXTRACT: note_on channel=7 note=43 velocity=127 time=0.0027173906249999998
EXTRACT: note_on channel=9 note=42 velocity=52 time=0
EXTRACT: note_on channel=9 note=42 velocity=0 time=0.08967389062499999
EXTRACT: note_on channel=7 note=43 velocity=0 time=0.154891265625
EXTRACT: note_on channel=7 note=31 velocity=115 time=0.01630434375
EXTRACT: note_on channel=9 note=44 velocity=110 time=0
EXTRACT: note_on channel=9 note=36 velocity=114 time=0
EXTRACT: note_on channel=9 note=39 velocity=94 time=0
EXTRACT: note_on channel=9 note=40 velocity=104 time=0
EXTRACT: aftertouch channel=7 value=6 time=0.09374997656249999
EXTRACT: note_on channel=9 note=39 velocity=0 time=0.012228257812499999
EXTRACT: aftertouch channel=7 value=12 time=0.0040760859375
EXTRACT: note_on channel=9 note=36 velocity=0 time=0.012228257812499999
EXTRACT: aftertouch channel=7 value=14 time=0.0054347812499999995
EXTRACT: note_on channel=7 note=31 velocity=0 time=0.027173906249999998
EXTRACT: note_on channel=9 note=40 velocity=0 time=0.0013586953124999999
EXTRACT: aftertouch channel=7 value=12 time=0.0013586953124999999
EXTRACT: aftertouch channel=7 value=6 time=0.01630434375
EXTRACT: note_on channel=9 note=44 velocity=0 time=0.0054347812499999995
EXTRACT: aftertouch channel=7 value=4 time=0.010869562499999999
EXTRACT: aftertouch channel=7 value=2 time=0.01630434375
EXTRACT: aftertouch channel=7 value=0 time=0.014945648437499999
EXTRACT: note_on channel=7 note=31 velocity=104 time=0.039402164062499995
EXTRACT: note_on channel=9 note=42 velocity=35 time=0
EXTRACT: aftertouch channel=7 value=6 time=0.08288041406249999
EXTRACT: note_on channel=9 note=42 velocity=0 time=0.008152171875
EXTRACT: aftertouch channel=7 value=14 time=0.008152171875
EXTRACT: aftertouch channel=7 value=22 time=0.01630434375
EXTRACT: aftertouch channel=7 value=26 time=0.01630434375
EXTRACT: aftertouch channel=7 value=22 time=0.044836945312499994
EXTRACT: aftertouch channel=7 value=18 time=0.01630434375
EXTRACT: aftertouch channel=7 value=14 time=0.01630434375
EXTRACT: aftertouch channel=7 value=8 time=0.01630434375
EXTRACT: aftertouch channel=7 value=4 time=0.01630434375
EXTRACT: note_on channel=7 note=31 velocity=0 time=0.0095108671875
EXTRACT: aftertouch channel=7 value=2 time=0.0054347812499999995
EXTRACT: note_on channel=9 note=44 velocity=110 time=0.0040760859375
EXTRACT: note_on channel=9 note=36 velocity=114 time=0
EXTRACT: aftertouch channel=7 value=0 time=0.0203804296875
EXTRACT: note_on channel=9 note=36 velocity=0 time=0.09239128124999998
EXTRACT: note_on channel=9 note=44 velocity=0 time=0.06385867968749999
EXTRACT: note_on channel=9 note=42 velocity=45 time=0.084239109375
EXTRACT: note_on channel=9 note=42 velocity=0 time=0.1290760546875
EXTRACT: note_on channel=9 note=44 velocity=110 time=0.13179344531249998
EXTRACT: note_on channel=9 note=36 velocity=114 time=0
EXTRACT: note_on channel=9 note=40 velocity=115 time=0
EXTRACT: note_on channel=9 note=39 velocity=94 time=0
EXTRACT: note_on channel=9 note=39 velocity=0 time=0.09782606249999999
EXTRACT: note_on channel=9 note=36 velocity=0 time=0.017663039062499997
EXTRACT: note_on channel=9 note=44 velocity=0 time=0.008152171875
EXTRACT: note_on channel=9 note=40 velocity=0 time=0.0013586953124999999
EXTRACT: note_on channel=7 note=41 velocity=127 time=0.13586953124999998
EXTRACT: note_on channel=9 note=42 velocity=53 time=0
EXTRACT: note_on channel=7 note=41 velocity=0 time=0.11956518749999999
EXTRACT: note_on channel=9 note=42 velocity=0 time=0.0027173906249999998
EXTRACT: note_on channel=7 note=43 velocity=115 time=0.008152171875
EXTRACT: note_on channel=7 note=43 velocity=0 time=0.105978234375
EXTRACT: note_on channel=7 note=31 velocity=104 time=0.024456515624999998
EXTRACT: note_on channel=9 note=36 velocity=114 time=0
EXTRACT: note_on channel=9 note=44 velocity=110 time=0
EXTRACT: note_on channel=7 note=31 velocity=0 time=0.10461953906249999
EXTRACT: note_on channel=9 note=36 velocity=0 time=0.0203804296875
EXTRACT: note_on channel=7 note=43 velocity=127 time=0.0054347812499999995
EXTRACT: note_on channel=9 note=44 velocity=0 time=0.062499984375
EXTRACT: note_on channel=7 note=43 velocity=0 time=0.008152171875
EXTRACT: note_on channel=7 note=31 velocity=115 time=0.059782593749999995
EXTRACT: note_on channel=9 note=42 velocity=53 time=0
EXTRACT: note_on channel=9 note=42 velocity=0 time=0.1209238828125
EXTRACT: note_on channel=7 note=31 velocity=0 time=0.0258152109375
EXTRACT: note_on channel=7 note=33 velocity=127 time=0.11413040624999998
EXTRACT: note_on channel=9 note=36 velocity=114 time=0
EXTRACT: note_on channel=9 note=44 velocity=110 time=0
EXTRACT: note_on channel=9 note=39 velocity=94 time=0
EXTRACT: note_on channel=9 note=40 velocity=115 time=0
EXTRACT: note_on channel=9 note=36 velocity=0 time=0.10190214843749999
EXTRACT: note_on channel=9 note=39 velocity=0 time=0.0027173906249999998
EXTRACT: note_on channel=9 note=40 velocity=0 time=0.006793476562499999
EXTRACT: note_on channel=9 note=44 velocity=0 time=0.0883151953125
EXTRACT: note_on channel=7 note=34 velocity=127 time=0.06114128906249999
EXTRACT: note_on channel=9 note=42 velocity=33 time=0
EXTRACT: note_on channel=7 note=33 velocity=0 time=0.017663039062499997
EXTRACT: note_on channel=9 note=42 velocity=0 time=0.11956518749999999
EXTRACT: note_on channel=7 note=34 velocity=0 time=0.10054345312499999
EXTRACT: note_on channel=9 note=44 velocity=110 time=0.023097820312499996
EXTRACT: note_on channel=9 note=36 velocity=115 time=0
EXTRACT: note_on channel=9 note=36 velocity=0 time=0.09239128124999998
EXTRACT: note_on channel=7 note=31 velocity=86 time=0.03804346875
EXTRACT: note_on channel=9 note=44 velocity=0 time=0.054347812499999995
EXTRACT: note_on channel=7 note=33 velocity=104 time=0.0760869375
EXTRACT: note_on channel=9 note=42 velocity=33 time=0
EXTRACT: note_on channel=9 note=85 velocity=104 time=0
EXTRACT: note_on channel=9 note=39 velocity=53 time=0
EXTRACT: note_on channel=7 note=31 velocity=0 time=0.033967382812499995
EXTRACT: note_on channel=9 note=85 velocity=0 time=0.05706520312499999
EXTRACT: note_on channel=9 note=39 velocity=0 time=0.019021734375
EXTRACT: note_on channel=9 note=42 velocity=0 time=0.010869562499999999
EXTRACT: note_on channel=7 note=31 velocity=104 time=0.13994561718749998
EXTRACT: note_on channel=9 note=44 velocity=110 time=0
EXTRACT: note_on channel=9 note=36 velocity=114 time=0
EXTRACT: note_on channel=9 note=39 velocity=104 time=0
EXTRACT: note_on channel=9 note=40 velocity=104 time=0
EXTRACT: note_on channel=7 note=33 velocity=0 time=0.0326086875
EXTRACT: note_on channel=9 note=39 velocity=0 time=0.0366847734375
EXTRACT: aftertouch channel=7 value=2 time=0.0027173906249999998
EXTRACT: aftertouch channel=7 value=10 time=0.01630434375
EXTRACT: note_on channel=6 note=55 velocity=0 time=0.0040760859375
EXTRACT: note_on channel=6 note=62 velocity=0 time=0.006793476562499999
EXTRACT: note_on channel=9 note=36 velocity=0 time=0.0040760859375
EXTRACT: note_on channel=9 note=40 velocity=0 time=0.0013586953124999999
EXTRACT: aftertouch channel=7 value=14 time=0.0013586953124999999
EXTRACT: note_on channel=6 note=58 velocity=0 time=0.0027173906249999998
EXTRACT: note_on channel=9 note=44 velocity=0 time=0.054347812499999995
EXTRACT: aftertouch channel=7 value=10 time=0.0027173906249999998
EXTRACT: aftertouch channel=7 value=6 time=0.01630434375
EXTRACT: aftertouch channel=7 value=2 time=0.014945648437499999
EXTRACT: note_on channel=7 note=31 velocity=0 time=0.012228257812499999
EXTRACT: aftertouch channel=7 value=0 time=0.0040760859375
EXTRACT: aftertouch channel=7 value=0 time=0.01630434375
EXTRACT: note_on channel=9 note=42 velocity=33 time=0.0312499921875
EXTRACT: note_on channel=9 note=42 velocity=0 time=0.1100543203125
EXTRACT: note_on channel=7 note=38 velocity=127 time=0.0203804296875
EXTRACT: note_on channel=7 note=38 velocity=0 time=0.0991847578125
EXTRACT: note_on channel=3 note=84 velocity=86 time=0.0312499921875
EXTRACT: note_on channel=4 note=84 velocity=86 time=0
EXTRACT: note_on channel=6 note=55 velocity=94 time=0
EXTRACT: note_on channel=6 note=58 velocity=104 time=0
EXTRACT: note_on channel=6 note=65 velocity=94 time=0
EXTRACT: note_on channel=6 note=62 velocity=104 time=0
EXTRACT: note_on channel=7 note=39 velocity=127 time=0
EXTRACT: note_on channel=9 note=44 velocity=115 time=0
EXTRACT: note_on channel=9 note=36 velocity=110 time=0
EXTRACT: note_on channel=9 note=36 velocity=0 time=0.1290760546875
EXTRACT: note_on channel=9 note=44 velocity=0 time=0.0801630234375
EXTRACT: note_on channel=7 note=39 velocity=0 time=0.040760859375
EXTRACT: note_on channel=3 note=84 velocity=0 time=0.006793476562499999
EXTRACT: note_on channel=4 note=84 velocity=0 time=0
EXTRACT: note_on channel=3 note=81 velocity=94 time=0.0040760859375
EXTRACT: note_on channel=4 note=81 velocity=94 time=0
EXTRACT: note_on channel=7 note=51 velocity=115 time=0
EXTRACT: note_on channel=9 note=42 velocity=52 time=0
EXTRACT: note_on channel=9 note=42 velocity=0 time=0.08967389062499999
EXTRACT: note_on channel=3 note=81 velocity=0 time=0.14130431249999997
EXTRACT: note_on channel=4 note=81 velocity=0 time=0
EXTRACT: note_on channel=3 note=77 velocity=104 time=0.029891296874999997
EXTRACT: note_on channel=4 note=77 velocity=104 time=0
EXTRACT: note_on channel=7 note=37 velocity=86 time=0
EXTRACT: note_on channel=7 note=39 velocity=127 time=0
EXTRACT: note_on channel=9 note=44 velocity=110 time=0
EXTRACT: note_on channel=9 note=36 velocity=114 time=0
EXTRACT: note_on channel=9 note=39 velocity=94 time=0
EXTRACT: note_on channel=9 note=40 velocity=104 time=0
EXTRACT: note_on channel=7 note=51 velocity=0 time=0.008152171875
EXTRACT: note_on channel=7 note=37 velocity=0 time=0.013586953124999999
EXTRACT: note_on channel=9 note=39 velocity=0 time=0.084239109375
EXTRACT: note_on channel=9 note=36 velocity=0 time=0.01630434375
EXTRACT: note_on channel=9 note=40 velocity=0 time=0.033967382812499995
EXTRACT: note_on channel=9 note=44 velocity=0 time=0.023097820312499996
EXTRACT: note_on channel=7 note=39 velocity=0 time=0.0312499921875
EXTRACT: note_on channel=3 note=77 velocity=0 time=0.019021734375
EXTRACT: note_on channel=4 note=77 velocity=0 time=0
EXTRACT: note_on channel=3 note=79 velocity=94 time=0.0312499921875
EXTRACT: note_on channel=4 note=79 velocity=94 time=0
EXTRACT: note_on channel=7 note=39 velocity=73 time=0
EXTRACT: note_on channel=9 note=42 velocity=35 time=0
EXTRACT: note_on channel=9 note=42 velocity=0 time=0.0910325859375
EXTRACT: note_on channel=7 note=39 velocity=0 time=0.14130431249999997
EXTRACT: note_on channel=7 note=39 velocity=51 time=0.028532601562499996
EXTRACT: note_on channel=9 note=44 velocity=110 time=0
EXTRACT: note_on channel=9 note=36 velocity=114 time=0
EXTRACT: note_on channel=7 note=39 velocity=0 time=0.014945648437499999
EXTRACT: note_on channel=9 note=36 velocity=0 time=0.09782606249999999
EXTRACT: note_on channel=9 note=44 velocity=0 time=0.06385867968749999
EXTRACT: note_on channel=9 note=42 velocity=45 time=0.084239109375
EXTRACT: note_on channel=9 note=42 velocity=0 time=0.1290760546875
EXTRACT: note_on channel=9 note=44 velocity=110 time=0.13179344531249998
EXTRACT: note_on channel=9 note=36 velocity=114 time=0
EXTRACT: note_on channel=9 note=40 velocity=115 time=0
EXTRACT: note_on channel=9 note=39 velocity=94 time=0
EXTRACT: note_on channel=3 note=79 velocity=0 time=0.054347812499999995
EXTRACT: note_on channel=4 note=79 velocity=0 time=0
EXTRACT: note_on channel=9 note=39 velocity=0 time=0.043478249999999996
EXTRACT: note_on channel=9 note=36 velocity=0 time=0.017663039062499997
EXTRACT: note_on channel=9 note=44 velocity=0 time=0.008152171875
EXTRACT: note_on channel=9 note=40 velocity=0 time=0.0013586953124999999
EXTRACT: note_on channel=9 note=42 velocity=53 time=0.13586953124999998
EXTRACT: note_on channel=9 note=42 velocity=0 time=0.12228257812499999
EXTRACT: note_on channel=6 note=55 velocity=0 time=0.008152171875
EXTRACT: note_on channel=7 note=39 velocity=104 time=0
EXTRACT: note_on channel=6 note=58 velocity=0 time=0.01630434375
EXTRACT: note_on channel=6 note=62 velocity=0 time=0.01630434375
EXTRACT: note_on channel=6 note=65 velocity=0 time=0.0095108671875
EXTRACT: note_on channel=7 note=39 velocity=0 time=0.0326086875
EXTRACT: note_on channel=6 note=57 velocity=94 time=0.05570650781249999
EXTRACT: note_on channel=6 note=65 velocity=94 time=0
EXTRACT: note_on channel=6 note=62 velocity=94 time=0
EXTRACT: note_on channel=6 note=60 velocity=104 time=0
EXTRACT: note_on channel=7 note=41 velocity=127 time=0
EXTRACT: note_on channel=9 note=36 velocity=114 time=0
EXTRACT: note_on channel=9 note=44 velocity=110 time=0
EXTRACT: note_on channel=7 note=41 velocity=0 time=0.1100543203125
EXTRACT: note_on channel=9 note=36 velocity=0 time=0.014945648437499999
EXTRACT: note_on channel=9 note=44 velocity=0 time=0.06793476562499999
EXTRACT: note_on channel=9 note=42 velocity=53 time=0.06793476562499999
EXTRACT: note_on channel=9 note=42 velocity=0 time=0.1209238828125
EXTRACT: note_on channel=7 note=41 velocity=127 time=0.13994561718749998
EXTRACT: note_on channel=9 note=36 velocity=114 time=0
EXTRACT: note_on channel=9 note=44 velocity=110 time=0
EXTRACT: note_on channel=9 note=39 velocity=94 time=0
EXTRACT: note_on channel=9 note=40 velocity=115 time=0
EXTRACT: note_on channel=9 note=36 velocity=0 time=0.10190214843749999
EXTRACT: note_on channel=9 note=39 velocity=0 time=0.0027173906249999998
EXTRACT: note_on channel=9 note=40 velocity=0 time=0.006793476562499999
EXTRACT: note_on channel=9 note=44 velocity=0 time=0.0883151953125
EXTRACT: note_on channel=9 note=42 velocity=33 time=0.06114128906249999
EXTRACT: note_on channel=7 note=39 velocity=86 time=0.13043475
EXTRACT: note_on channel=9 note=42 velocity=0 time=0.006793476562499999
EXTRACT: note_on channel=7 note=41 velocity=0 time=0.054347812499999995
EXTRACT: note_on channel=7 note=39 velocity=0 time=0.040760859375
EXTRACT: note_on channel=7 note=38 velocity=94 time=0.028532601562499996
EXTRACT: note_on channel=9 note=44 velocity=110 time=0
EXTRACT: note_on channel=9 note=36 velocity=115 time=0
EXTRACT: note_on channel=7 note=38 velocity=0 time=0.07065215624999999
EXTRACT: note_on channel=9 note=36 velocity=0 time=0.021739124999999998
EXTRACT: note_on channel=9 note=44 velocity=0 time=0.09239128124999998
EXTRACT: note_on channel=7 note=38 velocity=127 time=0.0760869375
EXTRACT: note_on channel=9 note=42 velocity=33 time=0
EXTRACT: note_on channel=9 note=85 velocity=104 time=0
EXTRACT: note_on channel=9 note=39 velocity=53 time=0
EXTRACT: note_on channel=7 note=38 velocity=0 time=0.07065215624999999
EXTRACT: note_on channel=9 note=85 velocity=0 time=0.0203804296875
EXTRACT: note_on channel=9 note=39 velocity=0 time=0.019021734375
EXTRACT: note_on channel=9 note=42 velocity=0 time=0.010869562499999999
EXTRACT: note_on channel=7 note=38 velocity=127 time=0.13994561718749998
EXTRACT: note_on channel=9 note=44 velocity=110 time=0
EXTRACT: note_on channel=9 note=36 velocity=114 time=0
EXTRACT: note_on channel=9 note=39 velocity=104 time=0
EXTRACT: note_on channel=9 note=40 velocity=104 time=0
EXTRACT: note_on channel=9 note=39 velocity=0 time=0.0692934609375
EXTRACT: note_on channel=9 note=36 velocity=0 time=0.033967382812499995
EXTRACT: note_on channel=9 note=40 velocity=0 time=0.0013586953124999999
EXTRACT: note_on channel=9 note=44 velocity=0 time=0.058423898437499996
EXTRACT: note_on channel=7 note=36 velocity=127 time=0.09782606249999999
EXTRACT: note_on channel=9 note=42 velocity=33 time=0
EXTRACT: note_on channel=7 note=38 velocity=0 time=0.023097820312499996
EXTRACT: note_on channel=6 note=65 velocity=0 time=0.05706520312499999
EXTRACT: note_on channel=6 note=57 velocity=0 time=0.0095108671875
EXTRACT: note_on channel=6 note=60 velocity=0 time=0.01630434375
EXTRACT: note_on channel=9 note=42 velocity=0 time=0.0040760859375
EXTRACT: note_on channel=6 note=62 velocity=0 time=0.0054347812499999995
EXTRACT: note_on channel=7 note=36 velocity=0 time=0.0095108671875
EXTRACT: note_on channel=7 note=38 velocity=115 time=0.0054347812499999995
EXTRACT: note_on channel=7 note=38 velocity=0 time=0.1290760546875
EXTRACT: note_on channel=6 note=55 velocity=94 time=0.0013586953124999999
EXTRACT: note_on channel=6 note=62 velocity=94 time=0
EXTRACT: note_on channel=6 note=58 velocity=94 time=0
EXTRACT: note_on channel=7 note=31 velocity=104 time=0
EXTRACT: note_on channel=9 note=44 velocity=115 time=0
EXTRACT: note_on channel=9 note=36 velocity=110 time=0
EXTRACT: aftertouch channel=7 value=2 time=0.12771735937499998
EXTRACT: note_on channel=9 note=36 velocity=0 time=0.0013586953124999999
EXTRACT: aftertouch channel=7 value=0 time=0.062499984375
EXTRACT: aftertouch channel=7 value=0 time=0.01630434375
EXTRACT: note_on channel=9 note=44 velocity=0 time=0.0013586953124999999
EXTRACT: note_on channel=7 note=31 velocity=0 time=0.017663039062499997
EXTRACT: note_on channel=7 note=43 velocity=127 time=0.033967382812499995
EXTRACT: note_on channel=9 note=42 velocity=52 time=0
EXTRACT: note_on channel=9 note=42 velocity=0 time=0.08967389062499999
EXTRACT: note_on channel=7 note=31 velocity=115 time=0.17119560937499997
EXTRACT: note_on channel=9 note=44 velocity=110 time=0
EXTRACT: note_on channel=9 note=36 velocity=114 time=0
EXTRACT: note_on channel=9 note=39 velocity=94 time=0
EXTRACT: note_on channel=9 note=40 velocity=104 time=0
EXTRACT: note_on channel=7 note=43 velocity=0 time=0.010869562499999999
EXTRACT: note_on channel=9 note=39 velocity=0 time=0.095108671875
EXTRACT: note_on channel=9 note=36 velocity=0 time=0.01630434375
EXTRACT: note_on channel=7 note=31 velocity=0 time=0.024456515624999998
EXTRACT: note_on channel=9 note=40 velocity=0 time=0.0095108671875
EXTRACT: note_on channel=9 note=44 velocity=0 time=0.023097820312499996
EXTRACT: note_on channel=7 note=31 velocity=115 time=0.08152171875
EXTRACT: note_on channel=9 note=42 velocity=35 time=0
EXTRACT: aftertouch channel=7 value=4 time=0.084239109375
EXTRACT: note_on channel=9 note=42 velocity=0 time=0.006793476562499999
EXTRACT: aftertouch channel=7 value=14 time=0.008152171875
EXTRACT: aftertouch channel=7 value=22 time=0.01630434375
EXTRACT: aftertouch channel=7 value=26 time=0.01630434375
EXTRACT: aftertouch channel=7 value=24 time=0.0475543359375
EXTRACT: aftertouch channel=7 value=20 time=0.01630434375
EXTRACT: aftertouch channel=7 value=14 time=0.01630434375
EXTRACT: aftertouch channel=7 value=12 time=0.014945648437499999
EXTRACT: note_on channel=7 note=31 velocity=0 time=0.013586953124999999
EXTRACT: aftertouch channel=7 value=6 time=0.0013586953124999999
EXTRACT: aftertouch channel=7 value=2 time=0.014945648437499999
EXTRACT: note_on channel=9 note=44 velocity=110 time=0.0040760859375
EXTRACT: note_on channel=9 note=36 velocity=114 time=0
EXTRACT: aftertouch channel=7 value=0 time=0.0203804296875
EXTRACT: aftertouch channel=7 value=0 time=0.017663039062499997
EXTRACT: note_on channel=9 note=36 velocity=0 time=0.07472824218749999
EXTRACT: note_on channel=9 note=44 velocity=0 time=0.06385867968749999
EXTRACT: note_on channel=9 note=42 velocity=45 time=0.084239109375
EXTRACT: note_on channel=9 note=42 velocity=0 time=0.1290760546875
EXTRACT: note_on channel=9 note=44 velocity=110 time=0.13179344531249998
EXTRACT: note_on channel=9 note=36 velocity=114 time=0
EXTRACT: note_on channel=9 note=40 velocity=115 time=0
EXTRACT: note_on channel=9 note=39 velocity=94 time=0
EXTRACT: note_on channel=9 note=39 velocity=0 time=0.09782606249999999
EXTRACT: note_on channel=9 note=36 velocity=0 time=0.017663039062499997
EXTRACT: note_on channel=9 note=44 velocity=0 time=0.008152171875
EXTRACT: note_on channel=9 note=40 velocity=0 time=0.0013586953124999999
EXTRACT: note_on channel=7 note=41 velocity=127 time=0.13586953124999998
EXTRACT: note_on channel=9 note=42 velocity=53 time=0
EXTRACT: note_on channel=9 note=42 velocity=0 time=0.12228257812499999
EXTRACT: note_on channel=7 note=41 velocity=0 time=0.0027173906249999998
EXTRACT: note_on channel=7 note=43 velocity=115 time=0.0054347812499999995
EXTRACT: note_on channel=7 note=43 velocity=0 time=0.10326084375
EXTRACT: note_on channel=7 note=31 velocity=104 time=0.027173906249999998
EXTRACT: note_on channel=9 note=36 velocity=114 time=0
EXTRACT: note_on channel=9 note=44 velocity=110 time=0
EXTRACT: note_on channel=7 note=31 velocity=0 time=0.10190214843749999
EXTRACT: note_on channel=9 note=36 velocity=0 time=0.023097820312499996
EXTRACT: note_on channel=7 note=43 velocity=127 time=0.0054347812499999995
EXTRACT: note_on channel=9 note=44 velocity=0 time=0.062499984375
EXTRACT: note_on channel=7 note=43 velocity=0 time=0.012228257812499999
EXTRACT: note_on channel=7 note=31 velocity=104 time=0.05570650781249999
EXTRACT: note_on channel=9 note=42 velocity=53 time=0
EXTRACT: note_on channel=9 note=42 velocity=0 time=0.1209238828125
EXTRACT: note_on channel=7 note=31 velocity=0 time=0.0258152109375
EXTRACT: note_on channel=7 note=33 velocity=115 time=0.11413040624999998
EXTRACT: note_on channel=9 note=36 velocity=114 time=0
EXTRACT: note_on channel=9 note=44 velocity=110 time=0
EXTRACT: note_on channel=9 note=39 velocity=94 time=0
EXTRACT: note_on channel=9 note=40 velocity=115 time=0
EXTRACT: note_on channel=9 note=36 velocity=0 time=0.10190214843749999
EXTRACT: note_on channel=9 note=39 velocity=0 time=0.0027173906249999998
EXTRACT: note_on channel=9 note=40 velocity=0 time=0.006793476562499999
EXTRACT: note_on channel=9 note=44 velocity=0 time=0.0883151953125
EXTRACT: note_on channel=7 note=34 velocity=127 time=0.06114128906249999
EXTRACT: note_on channel=9 note=42 velocity=33 time=0
EXTRACT: note_on channel=7 note=33 velocity=0 time=0.017663039062499997
EXTRACT: note_on channel=9 note=42 velocity=0 time=0.11956518749999999
EXTRACT: note_on channel=7 note=34 velocity=0 time=0.11956518749999999
EXTRACT: note_on channel=9 note=44 velocity=110 time=0.0040760859375
EXTRACT: note_on channel=9 note=36 velocity=115 time=0
EXTRACT: note_on channel=9 note=36 velocity=0 time=0.09239128124999998
EXTRACT: note_on channel=7 note=31 velocity=79 time=0.03804346875
EXTRACT: note_on channel=9 note=44 velocity=0 time=0.054347812499999995
EXTRACT: note_on channel=7 note=33 velocity=115 time=0.0760869375
EXTRACT: note_on channel=9 note=42 velocity=33 time=0
EXTRACT: note_on channel=9 note=85 velocity=104 time=0
EXTRACT: note_on channel=9 note=39 velocity=53 time=0
EXTRACT: note_on channel=7 note=31 velocity=0 time=0.04619564062499999
EXTRACT: note_on channel=9 note=85 velocity=0 time=0.044836945312499994
EXTRACT: note_on channel=9 note=39 velocity=0 time=0.019021734375
EXTRACT: note_on channel=9 note=42 velocity=0 time=0.010869562499999999
EXTRACT: note_on channel=7 note=33 velocity=0 time=0.11956518749999999
EXTRACT: note_on channel=7 note=31 velocity=115 time=0.0203804296875
EXTRACT: note_on channel=9 note=44 velocity=110 time=0
EXTRACT: note_on channel=9 note=36 velocity=114 time=0
EXTRACT: note_on channel=9 note=39 velocity=104 time=0
EXTRACT: note_on channel=9 note=40 velocity=104 time=0
EXTRACT: note_on channel=6 note=58 velocity=0 time=0.028532601562499996
EXTRACT: note_on channel=6 note=55 velocity=0 time=0.008152171875
EXTRACT: note_on channel=6 note=62 velocity=0 time=0.013586953124999999
EXTRACT: note_on channel=9 note=39 velocity=0 time=0.019021734375
EXTRACT: note_on channel=9 note=36 velocity=0 time=0.033967382812499995
EXTRACT: note_on channel=9 note=40 velocity=0 time=0.0013586953124999999
EXTRACT: aftertouch channel=7 value=2 time=0.0095108671875
EXTRACT: aftertouch channel=7 value=4 time=0.01630434375
EXTRACT: note_on channel=9 note=44 velocity=0 time=0.0326086875
EXTRACT: aftertouch channel=7 value=2 time=0.014945648437499999
EXTRACT: aftertouch channel=7 value=0 time=0.013586953124999999
EXTRACT: note_on channel=7 note=31 velocity=0 time=0.050271726562499994
EXTRACT: note_on channel=9 note=42 velocity=33 time=0.019021734375
EXTRACT: note_on channel=9 note=42 velocity=0 time=0.1100543203125
EXTRACT: note_on channel=6 note=65 velocity=94 time=0.1508151796875
EXTRACT: note_on channel=6 note=62 velocity=94 time=0
EXTRACT: note_on channel=6 note=58 velocity=104 time=0
EXTRACT: note_on channel=6 note=55 velocity=94 time=0
EXTRACT: note_on channel=7 note=39 velocity=127 time=0
EXTRACT: note_on channel=9 note=44 velocity=115 time=0
EXTRACT: note_on channel=9 note=36 velocity=110 time=0
EXTRACT: note_on channel=9 note=36 velocity=0 time=0.1290760546875
EXTRACT: note_on channel=9 note=44 velocity=0 time=0.0801630234375
EXTRACT: note_on channel=7 note=39 velocity=0 time=0.028532601562499996
EXTRACT: note_on channel=7 note=51 velocity=115 time=0.023097820312499996
EXTRACT: note_on channel=9 note=42 velocity=52 time=0
EXTRACT: note_on channel=9 note=42 velocity=0 time=0.08967389062499999
EXTRACT: note_on channel=7 note=39 velocity=127 time=0.17119560937499997
EXTRACT: note_on channel=9 note=44 velocity=110 time=0
EXTRACT: note_on channel=9 note=36 velocity=114 time=0
EXTRACT: note_on channel=9 note=39 velocity=94 time=0
EXTRACT: note_on channel=9 note=40 velocity=104 time=0
EXTRACT: note_on channel=7 note=51 velocity=0 time=0.028532601562499996
EXTRACT: note_on channel=9 note=39 velocity=0 time=0.0774456328125
EXTRACT: note_on channel=9 note=36 velocity=0 time=0.01630434375
EXTRACT: note_on channel=9 note=40 velocity=0 time=0.033967382812499995
EXTRACT: note_on channel=7 note=39 velocity=0 time=0.0203804296875
EXTRACT: note_on channel=9 note=44 velocity=0 time=0.0027173906249999998
EXTRACT: note_on channel=7 note=39 velocity=115 time=0.08152171875
EXTRACT: note_on channel=9 note=42 velocity=35 time=0
EXTRACT: note_on channel=9 note=42 velocity=0 time=0.0910325859375
EXTRACT: note_on channel=7 note=39 velocity=0 time=0.152173875
EXTRACT: note_on channel=7 note=39 velocity=59 time=0.017663039062499997
EXTRACT: note_on channel=9 note=44 velocity=110 time=0
EXTRACT: note_on channel=9 note=36 velocity=114 time=0
EXTRACT: note_on channel=7 note=39 velocity=0 time=0.017663039062499997
EXTRACT: note_on channel=9 note=36 velocity=0 time=0.095108671875
EXTRACT: note_on channel=9 note=44 velocity=0 time=0.06385867968749999
EXTRACT: note_on channel=9 note=42 velocity=45 time=0.084239109375
EXTRACT: note_on channel=9 note=42 velocity=0 time=0.1290760546875
EXTRACT: note_on channel=9 note=44 velocity=110 time=0.13179344531249998
EXTRACT: note_on channel=9 note=36 velocity=114 time=0
EXTRACT: note_on channel=9 note=40 velocity=115 time=0
EXTRACT: note_on channel=9 note=39 velocity=94 time=0
EXTRACT: note_on channel=9 note=39 velocity=0 time=0.09782606249999999
EXTRACT: note_on channel=9 note=36 velocity=0 time=0.017663039062499997
EXTRACT: note_on channel=9 note=44 velocity=0 time=0.008152171875
EXTRACT: note_on channel=9 note=40 velocity=0 time=0.0013586953124999999
EXTRACT: note_on channel=9 note=42 velocity=53 time=0.13586953124999998
EXTRACT: note_on channel=9 note=42 velocity=0 time=0.12228257812499999
EXTRACT: note_on channel=7 note=39 velocity=115 time=0.008152171875
EXTRACT: note_on channel=6 note=58 velocity=0 time=0.0040760859375
EXTRACT: note_on channel=6 note=55 velocity=0 time=0.006793476562499999
EXTRACT: note_on channel=6 note=62 velocity=0 time=0.010869562499999999
EXTRACT: note_on channel=6 note=65 velocity=0 time=0.006793476562499999
EXTRACT: note_on channel=7 note=39 velocity=0 time=0.04619564062499999
EXTRACT: note_on channel=6 note=60 velocity=94 time=0.05570650781249999
EXTRACT: note_on channel=6 note=62 velocity=86 time=0
EXTRACT: note_on channel=6 note=65 velocity=94 time=0
EXTRACT: note_on channel=6 note=57 velocity=94 time=0
EXTRACT: note_on channel=7 note=41 velocity=127 time=0
EXTRACT: note_on channel=9 note=36 velocity=114 time=0
EXTRACT: note_on channel=9 note=44 velocity=110 time=0
EXTRACT: note_on channel=9 note=36 velocity=0 time=0.12499996875
EXTRACT: note_on channel=7 note=41 velocity=0 time=0.043478249999999996
EXTRACT: note_on channel=9 note=44 velocity=0 time=0.024456515624999998
EXTRACT: note_on channel=9 note=42 velocity=53 time=0.06793476562499999
EXTRACT: note_on channel=9 note=42 velocity=0 time=0.1209238828125
EXTRACT: note_on channel=7 note=41 velocity=127 time=0.13994561718749998
EXTRACT: note_on channel=9 note=36 velocity=114 time=0
EXTRACT: note_on channel=9 note=44 velocity=110 time=0
EXTRACT: note_on channel=9 note=39 velocity=94 time=0
EXTRACT: note_on channel=9 note=40 velocity=115 time=0
EXTRACT: note_on channel=9 note=36 velocity=0 time=0.10190214843749999
EXTRACT: note_on channel=9 note=39 velocity=0 time=0.0027173906249999998
EXTRACT: note_on channel=9 note=40 velocity=0 time=0.006793476562499999
EXTRACT: note_on channel=9 note=44 velocity=0 time=0.0883151953125
EXTRACT: note_on channel=9 note=42 velocity=33 time=0.06114128906249999
EXTRACT: pitchwheel channel=7 pitch=-2944 time=0.10461953906249999
EXTRACT: pitchwheel channel=7 pitch=-8192 time=0.01630434375
EXTRACT: note_on channel=9 note=42 velocity=0 time=0.01630434375
EXTRACT: pitchwheel channel=7 pitch=-6272 time=0.07880432812499999
EXTRACT: pitchwheel channel=7 pitch=0 time=0.01630434375
EXTRACT: note_on channel=7 note=41 velocity=0 time=0.019021734375
EXTRACT: note_on channel=7 note=38 velocity=127 time=0.0095108671875
EXTRACT: note_on channel=9 note=44 velocity=110 time=0
EXTRACT: note_on channel=9 note=36 velocity=115 time=0
EXTRACT: note_on channel=9 note=36 velocity=0 time=0.09239128124999998
EXTRACT: note_on channel=7 note=38 velocity=0 time=0.0040760859375
EXTRACT: note_on channel=9 note=44 velocity=0 time=0.0883151953125
EXTRACT: note_on channel=7 note=38 velocity=127 time=0.0760869375
EXTRACT: note_on channel=9 note=42 velocity=33 time=0
EXTRACT: note_on channel=9 note=85 velocity=104 time=0
EXTRACT: note_on channel=9 note=39 velocity=53 time=0
EXTRACT: note_on channel=9 note=85 velocity=0 time=0.0910325859375
EXTRACT: note_on channel=7 note=38 velocity=0 time=0.0013586953124999999
EXTRACT: note_on channel=9 note=39 velocity=0 time=0.017663039062499997
EXTRACT: note_on channel=9 note=42 velocity=0 time=0.010869562499999999
EXTRACT: note_on channel=7 note=38 velocity=127 time=0.13994561718749998
EXTRACT: note_on channel=9 note=44 velocity=110 time=0
EXTRACT: note_on channel=9 note=36 velocity=114 time=0
EXTRACT: note_on channel=9 note=39 velocity=104 time=0
EXTRACT: note_on channel=9 note=40 velocity=104 time=0
EXTRACT: note_on channel=9 note=39 velocity=0 time=0.0692934609375
EXTRACT: note_on channel=9 note=36 velocity=0 time=0.033967382812499995
EXTRACT: note_on channel=9 note=40 velocity=0 time=0.0013586953124999999
EXTRACT: note_on channel=9 note=44 velocity=0 time=0.058423898437499996
EXTRACT: note_on channel=7 note=42 velocity=19 time=0.09782606249999999
EXTRACT: note_on channel=7 note=36 velocity=127 time=0
EXTRACT: note_on channel=9 note=42 velocity=33 time=0
EXTRACT: note_on channel=7 note=38 velocity=0 time=0.014945648437499999
EXTRACT: note_on channel=7 note=42 velocity=0 time=0.010869562499999999
EXTRACT: note_on channel=6 note=65 velocity=0 time=0.0366847734375
EXTRACT: note_on channel=6 note=57 velocity=0 time=0.021739124999999998
EXTRACT: note_on channel=6 note=60 velocity=0 time=0.0013586953124999999
EXTRACT: note_on channel=6 note=62 velocity=0 time=0.008152171875
EXTRACT: note_on channel=9 note=42 velocity=0 time=0.01630434375
EXTRACT: note_on channel=7 note=38 velocity=127 time=0.0203804296875
EXTRACT: note_on channel=7 note=36 velocity=0 time=0.0013586953124999999
EXTRACT: note_on channel=6 note=62 velocity=94 time=0.1290760546875
EXTRACT: note_on channel=6 note=58 velocity=115 time=0
EXTRACT: note_on channel=6 note=55 velocity=86 time=0
EXTRACT: note_on channel=7 note=31 velocity=115 time=0
EXTRACT: note_on channel=9 note=44 velocity=115 time=0
EXTRACT: note_on channel=9 note=36 velocity=110 time=0
EXTRACT: note_on channel=7 note=38 velocity=0 time=0.0312499921875
EXTRACT: aftertouch channel=7 value=6 time=0.09646736718749999
EXTRACT: note_on channel=9 note=36 velocity=0 time=0.0013586953124999999
EXTRACT: aftertouch channel=7 value=4 time=0.062499984375
EXTRACT: aftertouch channel=7 value=2 time=0.01630434375
EXTRACT: note_on channel=9 note=44 velocity=0 time=0.0013586953124999999
EXTRACT: aftertouch channel=7 value=0 time=0.014945648437499999
EXTRACT: note_on channel=7 note=31 velocity=0 time=0.0095108671875
EXTRACT: note_on channel=7 note=43 velocity=127 time=0.027173906249999998
EXTRACT: note_on channel=9 note=42 velocity=52 time=0
EXTRACT: note_on channel=9 note=42 velocity=0 time=0.08967389062499999
EXTRACT: note_on channel=7 note=31 velocity=127 time=0.17119560937499997
EXTRACT: note_on channel=9 note=44 velocity=110 time=0
EXTRACT: note_on channel=9 note=36 velocity=114 time=0
EXTRACT: note_on channel=9 note=39 velocity=94 time=0
EXTRACT: note_on channel=9 note=40 velocity=104 time=0
EXTRACT: note_on channel=7 note=43 velocity=0 time=0.008152171875
EXTRACT: note_on channel=9 note=39 velocity=0 time=0.09782606249999999
EXTRACT: note_on channel=9 note=36 velocity=0 time=0.01630434375
EXTRACT: note_on channel=7 note=31 velocity=0 time=0.01630434375
EXTRACT: note_on channel=9 note=40 velocity=0 time=0.017663039062499997
EXTRACT: note_on channel=9 note=44 velocity=0 time=0.023097820312499996
EXTRACT: note_on channel=7 note=31 velocity=104 time=0.08152171875
EXTRACT: note_on channel=9 note=42 velocity=35 time=0
EXTRACT: aftertouch channel=7 value=4 time=0.0760869375
EXTRACT: aftertouch channel=7 value=12 time=0.013586953124999999
EXTRACT: note_on channel=9 note=42 velocity=0 time=0.0013586953124999999
EXTRACT: aftertouch channel=7 value=14 time=0.014945648437499999
EXTRACT: aftertouch channel=7 value=12 time=0.0475543359375
EXTRACT: aftertouch channel=7 value=8 time=0.01630434375
EXTRACT: aftertouch channel=7 value=6 time=0.01630434375
EXTRACT: aftertouch channel=7 value=2 time=0.014945648437499999
EXTRACT: note_on channel=7 note=31 velocity=0 time=0.014945648437499999
EXTRACT: aftertouch channel=7 value=0 time=0.0013586953124999999
EXTRACT: aftertouch channel=7 value=0 time=0.01630434375
EXTRACT: note_on channel=9 note=44 velocity=110 time=0.027173906249999998
EXTRACT: note_on channel=9 note=36 velocity=114 time=0
EXTRACT: note_on channel=9 note=36 velocity=0 time=0.11277171093749999
EXTRACT: note_on channel=9 note=44 velocity=0 time=0.06385867968749999
EXTRACT: note_on channel=9 note=42 velocity=45 time=0.084239109375
EXTRACT: note_on channel=9 note=42 velocity=0 time=0.1290760546875
EXTRACT: note_on channel=9 note=44 velocity=110 time=0.13179344531249998
EXTRACT: note_on channel=9 note=36 velocity=114 time=0
EXTRACT: note_on channel=9 note=40 velocity=115 time=0
EXTRACT: note_on channel=9 note=39 velocity=94 time=0
EXTRACT: note_on channel=9 note=39 velocity=0 time=0.09782606249999999
EXTRACT: pitchwheel channel=7 pitch=0 time=0.006793476562499999
EXTRACT: note_on channel=9 note=36 velocity=0 time=0.010869562499999999
EXTRACT: note_on channel=9 note=44 velocity=0 time=0.008152171875
EXTRACT: note_on channel=9 note=40 velocity=0 time=0.0013586953124999999
EXTRACT: note_on channel=7 note=41 velocity=127 time=0.13586953124999998
EXTRACT: note_on channel=9 note=42 velocity=53 time=0
EXTRACT: note_on channel=9 note=42 velocity=0 time=0.12228257812499999
EXTRACT: note_on channel=7 note=43 velocity=115 time=0.008152171875
EXTRACT: note_on channel=7 note=41 velocity=0 time=0.019021734375
EXTRACT: note_on channel=7 note=43 velocity=0 time=0.07201085156249999
EXTRACT: note_on channel=7 note=31 velocity=94 time=0.039402164062499995
EXTRACT: note_on channel=9 note=36 velocity=114 time=0
EXTRACT: note_on channel=9 note=44 velocity=110 time=0
EXTRACT: note_on channel=7 note=31 velocity=0 time=0.10461953906249999
EXTRACT: note_on channel=9 note=36 velocity=0 time=0.0203804296875
EXTRACT: note_on channel=7 note=43 velocity=127 time=0.0054347812499999995
EXTRACT: note_on channel=9 note=44 velocity=0 time=0.062499984375
EXTRACT: note_on channel=7 note=43 velocity=0 time=0.0326086875
EXTRACT: note_on channel=7 note=31 velocity=104 time=0.03532607812499999
EXTRACT: note_on channel=9 note=42 velocity=53 time=0
EXTRACT: note_on channel=9 note=42 velocity=0 time=0.1209238828125
EXTRACT: note_on channel=7 note=31 velocity=0 time=0.027173906249999998
EXTRACT: note_on channel=7 note=33 velocity=115 time=0.11277171093749999
EXTRACT: note_on channel=9 note=36 velocity=114 time=0
EXTRACT: note_on channel=9 note=44 velocity=110 time=0
EXTRACT: note_on channel=9 note=39 velocity=94 time=0
EXTRACT: note_on channel=9 note=40 velocity=115 time=0
EXTRACT: note_on channel=9 note=36 velocity=0 time=0.10190214843749999
EXTRACT: note_on channel=9 note=39 velocity=0 time=0.0027173906249999998
EXTRACT: note_on channel=9 note=40 velocity=0 time=0.006793476562499999
EXTRACT: note_on channel=9 note=44 velocity=0 time=0.0883151953125
EXTRACT: note_on channel=7 note=34 velocity=115 time=0.06114128906249999
EXTRACT: note_on channel=9 note=42 velocity=33 time=0
EXTRACT: note_on channel=7 note=33 velocity=0 time=0.0013586953124999999
EXTRACT: note_on channel=9 note=42 velocity=0 time=0.13586953124999998
EXTRACT: note_on channel=7 note=34 velocity=0 time=0.0774456328125
EXTRACT: note_on channel=9 note=44 velocity=110 time=0.04619564062499999
EXTRACT: note_on channel=9 note=36 velocity=115 time=0
EXTRACT: note_on channel=9 note=36 velocity=0 time=0.09239128124999998
EXTRACT: note_on channel=7 note=31 velocity=94 time=0.03804346875
EXTRACT: note_on channel=9 note=44 velocity=0 time=0.054347812499999995
EXTRACT: note_on channel=7 note=33 velocity=104 time=0.0760869375
EXTRACT: note_on channel=9 note=42 velocity=33 time=0
EXTRACT: note_on channel=9 note=85 velocity=104 time=0
EXTRACT: note_on channel=9 note=39 velocity=53 time=0
EXTRACT: note_on channel=7 note=31 velocity=0 time=0.033967382812499995
EXTRACT: note_on channel=9 note=85 velocity=0 time=0.05706520312499999
EXTRACT: note_on channel=9 note=39 velocity=0 time=0.019021734375
EXTRACT: note_on channel=9 note=42 velocity=0 time=0.010869562499999999
EXTRACT: note_on channel=7 note=33 velocity=0 time=0.12499996875
EXTRACT: note_on channel=7 note=31 velocity=115 time=0.014945648437499999
EXTRACT: note_on channel=9 note=44 velocity=110 time=0
EXTRACT: note_on channel=9 note=36 velocity=114 time=0
EXTRACT: note_on channel=9 note=39 velocity=104 time=0
EXTRACT: note_on channel=9 note=40 velocity=104 time=0
EXTRACT: note_on channel=9 note=39 velocity=0 time=0.0692934609375
EXTRACT: aftertouch channel=7 value=2 time=0.0013586953124999999
EXTRACT: aftertouch channel=7 value=8 time=0.017663039062499997
EXTRACT: note_on channel=6 note=55 velocity=0 time=0.0040760859375
EXTRACT: note_on channel=6 note=62 velocity=0 time=0.006793476562499999
EXTRACT: note_on channel=9 note=36 velocity=0 time=0.0040760859375
EXTRACT: note_on channel=9 note=40 velocity=0 time=0.0013586953124999999
EXTRACT: aftertouch channel=7 value=14 time=0.0013586953124999999
EXTRACT: note_on channel=6 note=58 velocity=0 time=0.0027173906249999998
EXTRACT: aftertouch channel=7 value=16 time=0.027173906249999998
EXTRACT: note_on channel=9 note=44 velocity=0 time=0.027173906249999998
EXTRACT: aftertouch channel=7 value=12 time=0.0027173906249999998
EXTRACT: aftertouch channel=7 value=8 time=0.01630434375
EXTRACT: aftertouch channel=7 value=6 time=0.01630434375
EXTRACT: aftertouch channel=7 value=2 time=0.01630434375
EXTRACT: aftertouch channel=7 value=0 time=0.014945648437499999
EXTRACT: note_on channel=7 note=31 velocity=0 time=0.027173906249999998
EXTRACT: note_on channel=9 note=42 velocity=33 time=0.0040760859375
EXTRACT: note_on channel=9 note=42 velocity=0 time=0.1100543203125
EXTRACT: note_on channel=3 note=84 velocity=104 time=0.1508151796875
EXTRACT: note_on channel=4 note=84 velocity=104 time=0
EXTRACT: note_on channel=6 note=55 velocity=94 time=0
EXTRACT: note_on channel=6 note=58 velocity=104 time=0
EXTRACT: note_on channel=6 note=65 velocity=94 time=0
EXTRACT: note_on channel=6 note=62 velocity=104 time=0
EXTRACT: note_on channel=7 note=39 velocity=115 time=0
EXTRACT: note_on channel=9 note=44 velocity=115 time=0
EXTRACT: note_on channel=9 note=36 velocity=110 time=0
EXTRACT: note_on channel=9 note=36 velocity=0 time=0.1290760546875
EXTRACT: note_on channel=9 note=44 velocity=0 time=0.0801630234375
EXTRACT: note_on channel=7 note=39 velocity=0 time=0.023097820312499996
EXTRACT: note_on channel=3 note=81 velocity=94 time=0.028532601562499996
EXTRACT: note_on channel=4 note=81 velocity=94 time=0
EXTRACT: note_on channel=7 note=51 velocity=115 time=0
EXTRACT: note_on channel=9 note=42 velocity=52 time=0
EXTRACT: note_on channel=3 note=84 velocity=0 time=0.0040760859375
EXTRACT: note_on channel=4 note=84 velocity=0 time=0
EXTRACT: note_on channel=9 note=42 velocity=0 time=0.08559780468749999
EXTRACT: note_on channel=3 note=81 velocity=0 time=0.14945648437499998
EXTRACT: note_on channel=4 note=81 velocity=0 time=0
EXTRACT: note_on channel=3 note=77 velocity=94 time=0.021739124999999998
EXTRACT: note_on channel=4 note=77 velocity=94 time=0
EXTRACT: note_on channel=7 note=39 velocity=127 time=0
EXTRACT: note_on channel=9 note=44 velocity=110 time=0
EXTRACT: note_on channel=9 note=36 velocity=114 time=0
EXTRACT: note_on channel=9 note=39 velocity=94 time=0
EXTRACT: note_on channel=9 note=40 velocity=104 time=0
EXTRACT: note_on channel=7 note=51 velocity=0 time=0.0312499921875
EXTRACT: note_on channel=9 note=39 velocity=0 time=0.07472824218749999
EXTRACT: note_on channel=9 note=36 velocity=0 time=0.01630434375
EXTRACT: note_on channel=9 note=40 velocity=0 time=0.033967382812499995
EXTRACT: note_on channel=7 note=39 velocity=0 time=0.0054347812499999995
EXTRACT: note_on channel=9 note=44 velocity=0 time=0.017663039062499997
EXTRACT: note_on channel=3 note=77 velocity=0 time=0.048913031249999996
EXTRACT: note_on channel=4 note=77 velocity=0 time=0
EXTRACT: note_on channel=3 note=79 velocity=94 time=0.0326086875
EXTRACT: note_on channel=4 note=79 velocity=94 time=0
EXTRACT: note_on channel=7 note=39 velocity=127 time=0
EXTRACT: note_on channel=9 note=42 velocity=35 time=0
EXTRACT: note_on channel=9 note=42 velocity=0 time=0.0910325859375
EXTRACT: note_on channel=7 note=39 velocity=0 time=0.13994561718749998
EXTRACT: note_on channel=7 note=39 velocity=55 time=0.029891296874999997
EXTRACT: note_on channel=7 note=40 velocity=104 time=0
EXTRACT: note_on channel=9 note=44 velocity=110 time=0
EXTRACT: note_on channel=9 note=36 velocity=114 time=0
EXTRACT: note_on channel=7 note=39 velocity=0 time=0.013586953124999999
EXTRACT: note_on channel=7 note=40 velocity=0 time=0.024456515624999998
EXTRACT: note_on channel=9 note=36 velocity=0 time=0.07472824218749999
EXTRACT: note_on channel=9 note=44 velocity=0 time=0.06385867968749999
EXTRACT: note_on channel=9 note=42 velocity=45 time=0.084239109375
EXTRACT: note_on channel=9 note=42 velocity=0 time=0.1290760546875
EXTRACT: note_on channel=9 note=44 velocity=110 time=0.13179344531249998
EXTRACT: note_on channel=9 note=36 velocity=114 time=0
EXTRACT: note_on channel=9 note=40 velocity=115 time=0
EXTRACT: note_on channel=9 note=39 velocity=94 time=0
EXTRACT: note_on channel=3 note=79 velocity=0 time=0.0475543359375
EXTRACT: note_on channel=4 note=79 velocity=0 time=0
EXTRACT: note_on channel=9 note=39 velocity=0 time=0.050271726562499994
EXTRACT: note_on channel=9 note=36 velocity=0 time=0.017663039062499997
EXTRACT: note_on channel=9 note=44 velocity=0 time=0.008152171875
EXTRACT: note_on channel=9 note=40 velocity=0 time=0.0013586953124999999
EXTRACT: note_on channel=9 note=42 velocity=53 time=0.13586953124999998
EXTRACT: note_on channel=9 note=42 velocity=0 time=0.12228257812499999
EXTRACT: note_on channel=6 note=55 velocity=0 time=0.008152171875
EXTRACT: note_on channel=7 note=39 velocity=115 time=0
EXTRACT: note_on channel=6 note=58 velocity=0 time=0.01630434375
EXTRACT: note_on channel=6 note=62 velocity=0 time=0.01630434375
EXTRACT: note_on channel=6 note=65 velocity=0 time=0.0095108671875
EXTRACT: note_on channel=7 note=39 velocity=0 time=0.0326086875
EXTRACT: note_on channel=6 note=57 velocity=94 time=0.05570650781249999
EXTRACT: note_on channel=6 note=65 velocity=94 time=0
EXTRACT: note_on channel=6 note=62 velocity=94 time=0
EXTRACT: note_on channel=6 note=60 velocity=104 time=0
EXTRACT: note_on channel=7 note=41 velocity=127 time=0
EXTRACT: note_on channel=9 note=36 velocity=114 time=0
EXTRACT: note_on channel=9 note=44 velocity=110 time=0
EXTRACT: note_on channel=9 note=36 velocity=0 time=0.12499996875
EXTRACT: note_on channel=7 note=41 velocity=0 time=0.006793476562499999
EXTRACT: note_on channel=9 note=44 velocity=0 time=0.06114128906249999
EXTRACT: note_on channel=9 note=42 velocity=53 time=0.06793476562499999
EXTRACT: note_on channel=9 note=42 velocity=0 time=0.1209238828125
EXTRACT: note_on channel=7 note=41 velocity=127 time=0.13994561718749998
EXTRACT: note_on channel=9 note=36 velocity=114 time=0
EXTRACT: note_on channel=9 note=44 velocity=110 time=0
EXTRACT: note_on channel=9 note=39 velocity=94 time=0
EXTRACT: note_on channel=9 note=40 velocity=115 time=0
EXTRACT: note_on channel=9 note=36 velocity=0 time=0.10190214843749999
EXTRACT: note_on channel=9 note=39 velocity=0 time=0.0027173906249999998
EXTRACT: note_on channel=9 note=40 velocity=0 time=0.006793476562499999
EXTRACT: note_on channel=9 note=44 velocity=0 time=0.0883151953125
EXTRACT: note_on channel=9 note=42 velocity=33 time=0.06114128906249999
EXTRACT: note_on channel=7 note=39 velocity=115 time=0.13043475
EXTRACT: note_on channel=9 note=42 velocity=0 time=0.006793476562499999
EXTRACT: note_on channel=7 note=41 velocity=0 time=0.0529891171875
EXTRACT: note_on channel=7 note=38 velocity=127 time=0.07065215624999999
EXTRACT: note_on channel=9 note=44 velocity=110 time=0
EXTRACT: note_on channel=9 note=36 velocity=115 time=0
EXTRACT: note_on channel=7 note=39 velocity=0 time=0.006793476562499999
EXTRACT: note_on channel=7 note=38 velocity=0 time=0.06793476562499999
EXTRACT: note_on channel=9 note=36 velocity=0 time=0.017663039062499997
EXTRACT: note_on channel=9 note=44 velocity=0 time=0.09239128124999998
EXTRACT: note_on channel=7 note=38 velocity=127 time=0.0760869375
EXTRACT: note_on channel=9 note=42 velocity=33 time=0
EXTRACT: note_on channel=9 note=85 velocity=104 time=0
EXTRACT: note_on channel=9 note=39 velocity=53 time=0
EXTRACT: note_on channel=7 note=38 velocity=0 time=0.059782593749999995
EXTRACT: note_on channel=9 note=85 velocity=0 time=0.0312499921875
EXTRACT: note_on channel=9 note=39 velocity=0 time=0.019021734375
EXTRACT: note_on channel=9 note=42 velocity=0 time=0.010869562499999999
EXTRACT: note_on channel=7 note=38 velocity=127 time=0.13994561718749998
EXTRACT: note_on channel=9 note=44 velocity=110 time=0
EXTRACT: note_on channel=9 note=36 velocity=114 time=0
EXTRACT: note_on channel=9 note=39 velocity=104 time=0
EXTRACT: note_on channel=9 note=40 velocity=104 time=0
EXTRACT: note_on channel=9 note=39 velocity=0 time=0.0692934609375
EXTRACT: note_on channel=9 note=36 velocity=0 time=0.033967382812499995
EXTRACT: note_on channel=9 note=40 velocity=0 time=0.0013586953124999999
EXTRACT: note_on channel=9 note=44 velocity=0 time=0.058423898437499996
EXTRACT: note_on channel=7 note=38 velocity=0 time=0.095108671875
EXTRACT: note_on channel=7 note=36 velocity=127 time=0.0027173906249999998
EXTRACT: note_on channel=9 note=42 velocity=33 time=0
EXTRACT: note_on channel=6 note=65 velocity=0 time=0.0801630234375
EXTRACT: note_on channel=6 note=57 velocity=0 time=0.0095108671875
EXTRACT: note_on channel=6 note=60 velocity=0 time=0.01630434375
EXTRACT: note_on channel=9 note=42 velocity=0 time=0.0040760859375
EXTRACT: note_on channel=6 note=62 velocity=0 time=0.0054347812499999995
EXTRACT: note_on channel=7 note=36 velocity=0 time=0.0027173906249999998
EXTRACT: note_on channel=7 note=38 velocity=127 time=0.012228257812499999
EXTRACT: note_on channel=6 note=55 velocity=94 time=0.13043475
EXTRACT: note_on channel=6 note=62 velocity=94 time=0
EXTRACT: note_on channel=6 note=58 velocity=94 time=0
EXTRACT: note_on channel=7 note=38 velocity=0 time=0
EXTRACT: note_on channel=7 note=31 velocity=104 time=0
EXTRACT: note_on channel=9 note=44 velocity=115 time=0
EXTRACT: note_on channel=9 note=36 velocity=110 time=0
EXTRACT: aftertouch channel=7 value=6 time=0.11820649218749998
EXTRACT: note_on channel=9 note=36 velocity=0 time=0.010869562499999999
EXTRACT: aftertouch channel=7 value=8 time=0.0054347812499999995
EXTRACT: aftertouch channel=7 value=6 time=0.0475543359375
EXTRACT: aftertouch channel=7 value=2 time=0.01630434375
EXTRACT: note_on channel=9 note=44 velocity=0 time=0.010869562499999999
EXTRACT: aftertouch channel=7 value=0 time=0.0054347812499999995
EXTRACT: aftertouch channel=7 value=0 time=0.01630434375
EXTRACT: note_on channel=7 note=31 velocity=0 time=0.01630434375
EXTRACT: note_on channel=7 note=43 velocity=127 time=0.013586953124999999
EXTRACT: note_on channel=9 note=42 velocity=52 time=0
EXTRACT: note_on channel=9 note=42 velocity=0 time=0.08967389062499999
EXTRACT: note_on channel=7 note=31 velocity=115 time=0.17119560937499997
EXTRACT: note_on channel=9 note=44 velocity=110 time=0
EXTRACT: note_on channel=9 note=36 velocity=114 time=0
EXTRACT: note_on channel=9 note=39 velocity=94 time=0
EXTRACT: note_on channel=9 note=40 velocity=104 time=0
EXTRACT: note_on channel=7 note=43 velocity=0 time=0.0258152109375
EXTRACT: aftertouch channel=7 value=2 time=0.06114128906249999
EXTRACT: note_on channel=9 note=39 velocity=0 time=0.019021734375
EXTRACT: note_on channel=9 note=36 velocity=0 time=0.01630434375
EXTRACT: aftertouch channel=7 value=0 time=0.012228257812499999
EXTRACT: note_on channel=7 note=31 velocity=0 time=0.014945648437499999
EXTRACT: note_on channel=9 note=40 velocity=0 time=0.006793476562499999
EXTRACT: note_on channel=9 note=44 velocity=0 time=0.023097820312499996
EXTRACT: note_on channel=7 note=31 velocity=115 time=0.08152171875
EXTRACT: note_on channel=9 note=42 velocity=35 time=0
EXTRACT: aftertouch channel=7 value=2 time=0.07201085156249999
EXTRACT: aftertouch channel=7 value=10 time=0.017663039062499997
EXTRACT: note_on channel=9 note=42 velocity=0 time=0.0013586953124999999
EXTRACT: aftertouch channel=7 value=16 time=0.012228257812499999
EXTRACT: aftertouch channel=7 value=20 time=0.019021734375
EXTRACT: aftertouch channel=7 value=14 time=0.044836945312499994
EXTRACT: aftertouch channel=7 value=12 time=0.01630434375
EXTRACT: aftertouch channel=7 value=6 time=0.01630434375
EXTRACT: aftertouch channel=7 value=4 time=0.01630434375
EXTRACT: note_on channel=7 note=31 velocity=0 time=0.013586953124999999
EXTRACT: aftertouch channel=7 value=0 time=0.0027173906249999998
EXTRACT: aftertouch channel=7 value=0 time=0.014945648437499999
EXTRACT: note_on channel=9 note=44 velocity=110 time=0.013586953124999999
EXTRACT: note_on channel=9 note=36 velocity=114 time=0
EXTRACT: note_on channel=9 note=36 velocity=0 time=0.11277171093749999
EXTRACT: note_on channel=9 note=44 velocity=0 time=0.06385867968749999
EXTRACT: note_on channel=9 note=42 velocity=45 time=0.084239109375
EXTRACT: note_on channel=9 note=42 velocity=0 time=0.1290760546875
EXTRACT: note_on channel=9 note=44 velocity=110 time=0.13179344531249998
EXTRACT: note_on channel=9 note=36 velocity=114 time=0
EXTRACT: note_on channel=9 note=40 velocity=115 time=0
EXTRACT: note_on channel=9 note=39 velocity=94 time=0
EXTRACT: note_on channel=9 note=39 velocity=0 time=0.09782606249999999
EXTRACT: note_on channel=9 note=36 velocity=0 time=0.017663039062499997
EXTRACT: note_on channel=9 note=44 velocity=0 time=0.008152171875
EXTRACT: note_on channel=9 note=40 velocity=0 time=0.0013586953124999999
EXTRACT: note_on channel=7 note=41 velocity=127 time=0.13586953124999998
EXTRACT: note_on channel=9 note=42 velocity=53 time=0
EXTRACT: note_on channel=9 note=42 velocity=0 time=0.12228257812499999
EXTRACT: note_on channel=7 note=43 velocity=115 time=0.008152171875
EXTRACT: note_on channel=7 note=41 velocity=0 time=0.0054347812499999995
EXTRACT: note_on channel=7 note=43 velocity=0 time=0.10054345312499999
EXTRACT: note_on channel=7 note=31 velocity=94 time=0.024456515624999998
EXTRACT: note_on channel=9 note=36 velocity=114 time=0
EXTRACT: note_on channel=9 note=44 velocity=110 time=0
EXTRACT: note_on channel=7 note=31 velocity=0 time=0.10733692968749999
EXTRACT: note_on channel=9 note=36 velocity=0 time=0.017663039062499997
EXTRACT: note_on channel=7 note=43 velocity=127 time=0.0054347812499999995
EXTRACT: note_on channel=9 note=44 velocity=0 time=0.062499984375
EXTRACT: note_on channel=7 note=43 velocity=0 time=0.021739124999999998
EXTRACT: note_on channel=7 note=31 velocity=115 time=0.04619564062499999
EXTRACT: note_on channel=9 note=42 velocity=53 time=0
EXTRACT: note_on channel=9 note=42 velocity=0 time=0.1209238828125
EXTRACT: note_on channel=7 note=31 velocity=0 time=0.0312499921875
EXTRACT: note_on channel=7 note=31 velocity=115 time=0.10869562499999999
EXTRACT: note_on channel=9 note=36 velocity=114 time=0
EXTRACT: note_on channel=9 note=44 velocity=110 time=0
EXTRACT: note_on channel=9 note=39 velocity=94 time=0
EXTRACT: note_on channel=9 note=40 velocity=115 time=0
EXTRACT: note_on channel=9 note=36 velocity=0 time=0.10190214843749999
EXTRACT: note_on channel=9 note=39 velocity=0 time=0.0027173906249999998
EXTRACT: note_on channel=9 note=40 velocity=0 time=0.006793476562499999
EXTRACT: note_on channel=7 note=31 velocity=0 time=0.04619564062499999
EXTRACT: note_on channel=9 note=44 velocity=0 time=0.0421195546875
EXTRACT: note_on channel=7 note=31 velocity=115 time=0.06114128906249999
EXTRACT: note_on channel=9 note=42 velocity=33 time=0
EXTRACT: aftertouch channel=7 value=2 time=0.065217375
EXTRACT: aftertouch channel=7 value=10 time=0.014945648437499999
EXTRACT: aftertouch channel=7 value=18 time=0.014945648437499999
EXTRACT: aftertouch channel=7 value=24 time=0.017663039062499997
EXTRACT: note_on channel=9 note=42 velocity=0 time=0.024456515624999998
EXTRACT: aftertouch channel=7 value=22 time=0.021739124999999998
EXTRACT: aftertouch channel=7 value=16 time=0.01630434375
EXTRACT: aftertouch channel=7 value=14 time=0.014945648437499999
EXTRACT: aftertouch channel=7 value=8 time=0.01630434375
EXTRACT: aftertouch channel=7 value=4 time=0.01630434375
EXTRACT: aftertouch channel=7 value=2 time=0.01630434375
EXTRACT: aftertouch channel=7 value=0 time=0.01630434375
EXTRACT: note_on channel=7 note=31 velocity=0 time=0.0054347812499999995
EXTRACT: note_on channel=9 note=44 velocity=110 time=0
EXTRACT: note_on channel=9 note=36 velocity=115 time=0
EXTRACT: aftertouch channel=7 value=0 time=0.0203804296875
EXTRACT: note_on channel=9 note=36 velocity=0 time=0.07201085156249999
EXTRACT: note_on channel=9 note=44 velocity=0 time=0.09239128124999998
EXTRACT: note_on channel=7 note=41 velocity=104 time=0.0760869375
EXTRACT: note_on channel=9 note=42 velocity=33 time=0
EXTRACT: note_on channel=9 note=85 velocity=104 time=0
EXTRACT: note_on channel=9 note=39 velocity=53 time=0
EXTRACT: note_on channel=7 note=41 velocity=0 time=0.027173906249999998
EXTRACT: note_on channel=9 note=85 velocity=0 time=0.06385867968749999
EXTRACT: note_on channel=9 note=39 velocity=0 time=0.019021734375
EXTRACT: note_on channel=9 note=42 velocity=0 time=0.010869562499999999
EXTRACT: note_on channel=7 note=31 velocity=94 time=0.0095108671875
EXTRACT: note_on channel=7 note=31 velocity=0 time=0.10461953906249999
EXTRACT: note_on channel=7 note=41 velocity=127 time=0.0258152109375
EXTRACT: note_on channel=9 note=44 velocity=110 time=0
EXTRACT: note_on channel=9 note=36 velocity=114 time=0
EXTRACT: note_on channel=9 note=39 velocity=104 time=0
EXTRACT: note_on channel=9 note=40 velocity=104 time=0
EXTRACT: note_on channel=6 note=58 velocity=0 time=0.028532601562499996
EXTRACT: note_on channel=6 note=55 velocity=0 time=0.008152171875
EXTRACT: note_on channel=6 note=62 velocity=0 time=0.013586953124999999
EXTRACT: note_on channel=7 note=43 velocity=115 time=0.014945648437499999
EXTRACT: note_on channel=9 note=39 velocity=0 time=0.0040760859375
EXTRACT: note_on channel=7 note=41 velocity=0 time=0.023097820312499996
EXTRACT: note_on channel=9 note=36 velocity=0 time=0.010869562499999999
EXTRACT: note_on channel=9 note=40 velocity=0 time=0.0013586953124999999
EXTRACT: note_on channel=9 note=44 velocity=0 time=0.058423898437499996
EXTRACT: note_on channel=9 note=42 velocity=33 time=0.09782606249999999
EXTRACT: note_on channel=9 note=42 velocity=0 time=0.1100543203125
EXTRACT: note_on channel=7 note=41 velocity=127 time=0.0203804296875
EXTRACT: note_on channel=7 note=43 velocity=0 time=0.021739124999999998
EXTRACT: note_on channel=7 note=41 velocity=0 time=0.051630421875
EXTRACT: note_on channel=2 note=98 velocity=86 time=0.05706520312499999
EXTRACT: note_on channel=6 note=58 velocity=104 time=0
EXTRACT: note_on channel=6 note=55 velocity=94 time=0
EXTRACT: note_on channel=6 note=65 velocity=94 time=0
EXTRACT: note_on channel=6 note=62 velocity=94 time=0
EXTRACT: note_on channel=9 note=46 velocity=115 time=0
EXTRACT: note_on channel=9 note=36 velocity=110 time=0
EXTRACT: note_on channel=7 note=31 velocity=115 time=0.065217375
EXTRACT: note_on channel=2 note=98 velocity=0 time=0.010869562499999999
EXTRACT: note_on channel=9 note=36 velocity=0 time=0.0529891171875
EXTRACT: aftertouch channel=7 value=4 time=0.017663039062499997
EXTRACT: aftertouch channel=7 value=2 time=0.01630434375
EXTRACT: aftertouch channel=7 value=0 time=0.014945648437499999
EXTRACT: control_change channel=6 control=64 value=127 time=0.01630434375
EXTRACT: note_on channel=7 note=31 velocity=0 time=0.012228257812499999
EXTRACT: note_on channel=9 note=46 velocity=0 time=0.0027173906249999998
EXTRACT: note_on channel=7 note=43 velocity=127 time=0.051630421875
EXTRACT: note_on channel=9 note=70 velocity=37 time=0
EXTRACT: note_on channel=9 note=70 velocity=0 time=0.08967389062499999
EXTRACT: note_on channel=7 note=43 velocity=0 time=0.0027173906249999998
EXTRACT: note_on channel=2 note=98 velocity=79 time=0.16847821875
EXTRACT: note_on channel=7 note=34 velocity=115 time=0
EXTRACT: note_on channel=9 note=44 velocity=110 time=0
EXTRACT: note_on channel=9 note=36 velocity=114 time=0
EXTRACT: note_on channel=9 note=39 velocity=94 time=0
EXTRACT: note_on channel=9 note=40 velocity=104 time=0
EXTRACT: control_change channel=6 control=64 value=0 time=0.06114128906249999
EXTRACT: control_change channel=6 control=64 value=127 time=0.006793476562499999
EXTRACT: note_on channel=2 note=98 velocity=0 time=0.0013586953124999999
EXTRACT: note_on channel=6 note=55 velocity=0 time=0.0027173906249999998
EXTRACT: control_change channel=6 control=64 value=0 time=0.0013586953124999999
EXTRACT: note_on channel=6 note=58 velocity=0 time=0.006793476562499999
EXTRACT: note_on channel=6 note=65 velocity=0 time=0.006793476562499999
EXTRACT: note_on channel=6 note=62 velocity=0 time=0.0095108671875
EXTRACT: note_on channel=9 note=39 velocity=0 time=0.0095108671875
EXTRACT: note_on channel=9 note=36 velocity=0 time=0.01630434375
EXTRACT: note_on channel=9 note=40 velocity=0 time=0.033967382812499995
EXTRACT: note_on channel=9 note=44 velocity=0 time=0.023097820312499996
EXTRACT: note_on channel=7 note=34 velocity=0 time=0.040760859375
EXTRACT: note_on channel=6 note=65 velocity=94 time=0.040760859375
EXTRACT: note_on channel=6 note=55 velocity=79 time=0
EXTRACT: note_on channel=6 note=58 velocity=94 time=0
EXTRACT: note_on channel=6 note=62 velocity=104 time=0
EXTRACT: note_on channel=7 note=39 velocity=127 time=0
EXTRACT: note_on channel=9 note=42 velocity=35 time=0
EXTRACT: control_change channel=6 control=64 value=127 time=0.07472824218749999
EXTRACT: note_on channel=9 note=42 velocity=0 time=0.01630434375
EXTRACT: note_on channel=1 note=55 velocity=115 time=0.16983691406249998
EXTRACT: note_on channel=1 note=67 velocity=115 time=0
EXTRACT: note_on channel=2 note=98 velocity=79 time=0
EXTRACT: note_on channel=9 note=44 velocity=110 time=0
EXTRACT: note_on channel=9 note=36 velocity=114 time=0
EXTRACT: note_on channel=7 note=39 velocity=0 time=0.044836945312499994
EXTRACT: note_on channel=7 note=39 velocity=55 time=0.0203804296875
EXTRACT: note_on channel=2 note=98 velocity=0 time=0.0054347812499999995
EXTRACT: note_on channel=7 note=39 velocity=0 time=0.013586953124999999
EXTRACT: note_on channel=9 note=36 velocity=0 time=0.028532601562499996
EXTRACT: note_on channel=1 note=67 velocity=0 time=0.0095108671875
EXTRACT: note_on channel=1 note=55 velocity=0 time=0
EXTRACT: note_on channel=9 note=44 velocity=0 time=0.054347812499999995
EXTRACT: note_on channel=1 note=55 velocity=104 time=0.084239109375
EXTRACT: note_on channel=1 note=67 velocity=104 time=0
EXTRACT: note_on channel=7 note=51 velocity=127 time=0
EXTRACT: note_on channel=9 note=42 velocity=45 time=0
EXTRACT: note_on channel=7 note=51 velocity=0 time=0.05706520312499999
EXTRACT: note_on channel=9 note=42 velocity=0 time=0.07201085156249999
EXTRACT: note_on channel=1 note=67 velocity=0 time=0.012228257812499999
EXTRACT: note_on channel=1 note=55 velocity=0 time=0
EXTRACT: note_on channel=1 note=58 velocity=127 time=0.11956518749999999
EXTRACT: note_on channel=1 note=70 velocity=127 time=0
EXTRACT: note_on channel=2 note=98 velocity=68 time=0
EXTRACT: note_on channel=7 note=39 velocity=127 time=0
EXTRACT: note_on channel=9 note=44 velocity=110 time=0
EXTRACT: note_on channel=9 note=36 velocity=114 time=0
EXTRACT: note_on channel=9 note=40 velocity=115 time=0
EXTRACT: note_on channel=9 note=39 velocity=94 time=0
EXTRACT: note_on channel=2 note=98 velocity=0 time=0.06385867968749999
EXTRACT: note_on channel=9 note=39 velocity=0 time=0.033967382812499995
EXTRACT: note_on channel=9 note=36 velocity=0 time=0.017663039062499997
EXTRACT: note_on channel=9 note=44 velocity=0 time=0.008152171875
EXTRACT: note_on channel=9 note=40 velocity=0 time=0.0013586953124999999
EXTRACT: note_on channel=9 note=42 velocity=53 time=0.13586953124999998
EXTRACT: note_on channel=1 note=70 velocity=0 time=0.039402164062499995
EXTRACT: note_on channel=1 note=58 velocity=0 time=0
EXTRACT: note_on channel=7 note=39 velocity=0 time=0.010869562499999999
EXTRACT: note_on channel=6 note=62 velocity=0 time=0.044836945312499994
EXTRACT: note_on channel=6 note=65 velocity=0 time=0.006793476562499999
EXTRACT: note_on channel=6 note=58 velocity=0 time=0.014945648437499999
EXTRACT: note_on channel=9 note=42 velocity=0 time=0.0054347812499999995
EXTRACT: note_on channel=1 note=55 velocity=104 time=0.008152171875
EXTRACT: note_on channel=1 note=67 velocity=104 time=0
EXTRACT: note_on channel=7 note=39 velocity=115 time=0
EXTRACT: note_on channel=6 note=55 velocity=0 time=0.006793476562499999
EXTRACT: control_change channel=6 control=64 value=0 time=0.0095108671875
EXTRACT: control_change channel=6 control=64 value=127 time=0.006793476562499999
EXTRACT: control_change channel=6 control=64 value=0 time=0.0054347812499999995
EXTRACT: note_on channel=1 note=67 velocity=0 time=0.07472824218749999
EXTRACT: note_on channel=1 note=55 velocity=0 time=0
EXTRACT: note_on channel=1 note=62 velocity=115 time=0.027173906249999998
EXTRACT: note_on channel=1 note=74 velocity=115 time=0
EXTRACT: note_on channel=2 note=98 velocity=63 time=0
EXTRACT: note_on channel=6 note=62 velocity=104 time=0
EXTRACT: note_on channel=6 note=65 velocity=104 time=0
EXTRACT: note_on channel=6 note=57 velocity=94 time=0
EXTRACT: note_on channel=6 note=60 velocity=104 time=0
EXTRACT: note_on channel=7 note=41 velocity=127 time=0
EXTRACT: note_on channel=9 note=36 velocity=114 time=0
EXTRACT: note_on channel=9 note=44 velocity=110 time=0
EXTRACT: note_on channel=7 note=39 velocity=0 time=0.0054347812499999995
EXTRACT: note_on channel=2 note=98 velocity=0 time=0.0692934609375
EXTRACT: note_on channel=1 note=74 velocity=0 time=0.029891296874999997
EXTRACT: note_on channel=1 note=62 velocity=0 time=0
EXTRACT: note_on channel=9 note=36 velocity=0 time=0.0203804296875
EXTRACT: control_change channel=6 control=64 value=127 time=0.013586953124999999
EXTRACT: note_on channel=7 note=41 velocity=0 time=0.0095108671875
EXTRACT: note_on channel=9 note=44 velocity=0 time=0.044836945312499994
EXTRACT: note_on channel=1 note=62 velocity=94 time=0.06793476562499999
EXTRACT: note_on channel=1 note=74 velocity=94 time=0
EXTRACT: note_on channel=9 note=42 velocity=53 time=0
EXTRACT: note_on channel=9 note=42 velocity=0 time=0.1209238828125
EXTRACT: note_on channel=1 note=74 velocity=0 time=0.0095108671875
EXTRACT: note_on channel=1 note=62 velocity=0 time=0
EXTRACT: note_on channel=1 note=62 velocity=127 time=0.13043475
EXTRACT: note_on channel=1 note=74 velocity=127 time=0
EXTRACT: note_on channel=2 note=98 velocity=58 time=0
EXTRACT: note_on channel=7 note=41 velocity=127 time=0
EXTRACT: note_on channel=9 note=36 velocity=114 time=0
EXTRACT: note_on channel=9 note=44 velocity=110 time=0
EXTRACT: note_on channel=9 note=39 velocity=94 time=0
EXTRACT: note_on channel=9 note=40 velocity=115 time=0
EXTRACT: note_on channel=2 note=98 velocity=0 time=0.062499984375
EXTRACT: note_on channel=9 note=36 velocity=0 time=0.039402164062499995
EXTRACT: note_on channel=9 note=39 velocity=0 time=0.0027173906249999998
EXTRACT: note_on channel=9 note=40 velocity=0 time=0.006793476562499999
EXTRACT: note_on channel=9 note=44 velocity=0 time=0.0883151953125
EXTRACT: note_on channel=9 note=42 velocity=33 time=0.06114128906249999
EXTRACT: note_on channel=1 note=74 velocity=0 time=0.0040760859375
EXTRACT: note_on channel=1 note=62 velocity=0 time=0
EXTRACT: note_on channel=7 note=39 velocity=104 time=0.1263586640625
EXTRACT: note_on channel=9 note=42 velocity=0 time=0.006793476562499999
EXTRACT: control_change channel=6 control=64 value=0 time=0.0054347812499999995
EXTRACT: note_on channel=6 note=57 velocity=0 time=0.0027173906249999998
EXTRACT: control_change channel=6 control=64 value=127 time=0.0027173906249999998
EXTRACT: note_on channel=6 note=65 velocity=0 time=0.0095108671875
EXTRACT: control_change channel=6 control=64 value=0 time=0.0013586953124999999
EXTRACT: note_on channel=7 note=41 velocity=0 time=0.0013586953124999999
EXTRACT: note_on channel=6 note=62 velocity=0 time=0.0054347812499999995
EXTRACT: note_on channel=6 note=60 velocity=0 time=0.008152171875
EXTRACT: note_on channel=7 note=39 velocity=0 time=0.07065215624999999
EXTRACT: note_on channel=2 note=98 velocity=53 time=0.01630434375
EXTRACT: note_on channel=6 note=57 velocity=86 time=0
EXTRACT: note_on channel=6 note=60 velocity=94 time=0
EXTRACT: note_on channel=6 note=62 velocity=94 time=0
EXTRACT: note_on channel=6 note=65 velocity=94 time=0
EXTRACT: note_on channel=7 note=39 velocity=47 time=0
EXTRACT: note_on channel=7 note=38 velocity=115 time=0
EXTRACT: note_on channel=9 note=44 velocity=110 time=0
EXTRACT: note_on channel=9 note=36 velocity=115 time=0
EXTRACT: note_on channel=7 note=39 velocity=0 time=0.0095108671875
EXTRACT: note_on channel=7 note=38 velocity=47 time=0.05570650781249999
EXTRACT: note_on channel=7 note=38 velocity=0 time=0.008152171875
EXTRACT: note_on channel=2 note=98 velocity=0 time=0.0013586953124999999
EXTRACT: note_on channel=7 note=38 velocity=0 time=0
EXTRACT: control_change channel=6 control=64 value=127 time=0.0027173906249999998
EXTRACT: note_on channel=9 note=36 velocity=0 time=0.014945648437499999
EXTRACT: note_on channel=9 note=44 velocity=0 time=0.09239128124999998
EXTRACT: note_on channel=7 note=38 velocity=127 time=0.0760869375
EXTRACT: note_on channel=9 note=42 velocity=33 time=0
EXTRACT: note_on channel=9 note=85 velocity=104 time=0
EXTRACT: note_on channel=9 note=39 velocity=53 time=0
EXTRACT: note_on channel=7 note=38 velocity=0 time=0.07880432812499999
EXTRACT: note_on channel=9 note=85 velocity=0 time=0.012228257812499999
EXTRACT: note_on channel=9 note=39 velocity=0 time=0.019021734375
EXTRACT: note_on channel=9 note=42 velocity=0 time=0.010869562499999999
EXTRACT: note_on channel=2 note=98 velocity=48 time=0.13994561718749998
EXTRACT: note_on channel=7 note=38 velocity=127 time=0
EXTRACT: note_on channel=9 note=44 velocity=110 time=0
EXTRACT: note_on channel=9 note=36 velocity=114 time=0
EXTRACT: note_on channel=9 note=39 velocity=104 time=0
EXTRACT: note_on channel=9 note=40 velocity=104 time=0
EXTRACT: note_on channel=2 note=98 velocity=0 time=0.058423898437499996
EXTRACT: note_on channel=9 note=39 velocity=0 time=0.010869562499999999
EXTRACT: note_on channel=6 note=57 velocity=0 time=0.0040760859375
EXTRACT: note_on channel=9 note=36 velocity=0 time=0.029891296874999997
EXTRACT: note_on channel=9 note=40 velocity=0 time=0.0013586953124999999
EXTRACT: note_on channel=6 note=65 velocity=0 time=0.008152171875
EXTRACT: note_on channel=6 note=60 velocity=0 time=0.0054347812499999995
EXTRACT: note_on channel=6 note=62 velocity=0 time=0.010869562499999999
EXTRACT: note_on channel=9 note=44 velocity=0 time=0.033967382812499995
EXTRACT: note_on channel=7 note=38 velocity=0 time=0.0883151953125
EXTRACT: note_on channel=7 note=36 velocity=115 time=0.0095108671875
EXTRACT: note_on channel=9 note=42 velocity=33 time=0
EXTRACT: note_on channel=9 note=42 velocity=0 time=0.1100543203125
EXTRACT: note_on channel=7 note=36 velocity=0 time=0.0013586953124999999
EXTRACT: note_on channel=7 note=38 velocity=115 time=0.019021734375
EXTRACT: control_change channel=6 control=64 value=0 time=0.08695649999999999
EXTRACT: control_change channel=6 control=64 value=127 time=0.0013586953124999999
EXTRACT: control_change channel=6 control=64 value=0 time=0.006793476562499999
EXTRACT: note_on channel=6 note=69 velocity=104 time=0.03532607812499999
EXTRACT: note_on channel=6 note=60 velocity=94 time=0
EXTRACT: note_on channel=6 note=62 velocity=94 time=0
EXTRACT: note_on channel=7 note=31 velocity=115 time=0
EXTRACT: note_on channel=9 note=46 velocity=115 time=0
EXTRACT: note_on channel=9 note=36 velocity=110 time=0
EXTRACT: note_on channel=7 note=38 velocity=0 time=0.021739124999999998
EXTRACT: aftertouch channel=7 value=6 time=0.0991847578125
EXTRACT: note_on channel=9 note=36 velocity=0 time=0.008152171875
EXTRACT: control_change channel=6 control=64 value=127 time=0.023097820312499996
EXTRACT: aftertouch channel=7 value=4 time=0.01630434375
EXTRACT: aftertouch channel=7 value=2 time=0.01630434375
EXTRACT: aftertouch channel=7 value=0 time=0.01630434375
EXTRACT: note_on channel=9 note=46 velocity=0 time=0.008152171875
EXTRACT: note_on channel=6 note=69 velocity=0 time=0.0013586953124999999
EXTRACT: note_on channel=7 note=31 velocity=0 time=0.0312499921875
EXTRACT: note_on channel=6 note=67 velocity=73 time=0.019021734375
EXTRACT: note_on channel=7 note=43 velocity=127 time=0
EXTRACT: note_on channel=9 note=70 velocity=37 time=0
EXTRACT: note_on channel=6 note=62 velocity=0 time=0.051630421875
EXTRACT: note_on channel=7 note=43 velocity=0 time=0.0203804296875
EXTRACT: note_on channel=9 note=70 velocity=0 time=0.017663039062499997
EXTRACT: note_on channel=6 note=67 velocity=0 time=0.09646736718749999
EXTRACT: note_on channel=6 note=65 velocity=104 time=0.07472824218749999
EXTRACT: note_on channel=7 note=34 velocity=127 time=0
EXTRACT: note_on channel=9 note=44 velocity=110 time=0
EXTRACT: note_on channel=9 note=36 velocity=114 time=0
EXTRACT: note_on channel=9 note=39 velocity=94 time=0
EXTRACT: note_on channel=9 note=40 velocity=104 time=0
EXTRACT: note_on channel=6 note=65 velocity=0 time=0.0883151953125
EXTRACT: control_change channel=6 control=64 value=0 time=0.006793476562499999
EXTRACT: note_on channel=6 note=60 velocity=0 time=0.0013586953124999999
EXTRACT: control_change channel=6 control=64 value=127 time=0.008152171875
EXTRACT: note_on channel=9 note=39 velocity=0 time=0.0013586953124999999
EXTRACT: control_change channel=6 control=64 value=0 time=0.0027173906249999998
EXTRACT: control_change channel=6 control=64 value=127 time=0.008152171875
EXTRACT: control_change channel=6 control=64 value=0 time=0.0040760859375
EXTRACT: note_on channel=9 note=36 velocity=0 time=0.0013586953124999999
EXTRACT: note_on channel=9 note=40 velocity=0 time=0.033967382812499995
EXTRACT: note_on channel=9 note=44 velocity=0 time=0.023097820312499996
EXTRACT: note_on channel=7 note=34 velocity=0 time=0.048913031249999996
EXTRACT: note_on channel=6 note=67 velocity=86 time=0.0326086875
EXTRACT: note_on channel=6 note=62 velocity=104 time=0
EXTRACT: note_on channel=6 note=58 velocity=104 time=0
EXTRACT: note_on channel=7 note=39 velocity=127 time=0
EXTRACT: note_on channel=9 note=42 velocity=35 time=0
EXTRACT: note_on channel=9 note=42 velocity=0 time=0.0910325859375
EXTRACT: note_on channel=1 note=55 velocity=104 time=0.039402164062499995
EXTRACT: note_on channel=1 note=67 velocity=104 time=0
EXTRACT: control_change channel=6 control=64 value=127 time=0.024456515624999998
EXTRACT: note_on channel=1 note=67 velocity=0 time=0.09374997656249999
EXTRACT: note_on channel=1 note=55 velocity=0 time=0
EXTRACT: note_on channel=1 note=62 velocity=127 time=0.012228257812499999
EXTRACT: note_on channel=1 note=74 velocity=127 time=0
EXTRACT: note_on channel=9 note=44 velocity=110 time=0
EXTRACT: note_on channel=9 note=36 velocity=114 time=0
EXTRACT: note_on channel=7 note=39 velocity=0 time=0.040760859375
EXTRACT: note_on channel=7 note=39 velocity=47 time=0.024456515624999998
EXTRACT: note_on channel=7 note=39 velocity=0 time=0.013586953124999999
EXTRACT: note_on channel=9 note=36 velocity=0 time=0.033967382812499995
EXTRACT: note_on channel=1 note=74 velocity=0 time=0.0203804296875
EXTRACT: note_on channel=1 note=62 velocity=0 time=0
EXTRACT: note_on channel=9 note=44 velocity=0 time=0.043478249999999996
EXTRACT: note_on channel=1 note=63 velocity=115 time=0.084239109375
EXTRACT: note_on channel=1 note=75 velocity=115 time=0
EXTRACT: note_on channel=7 note=51 velocity=127 time=0
EXTRACT: note_on channel=9 note=42 velocity=45 time=0
EXTRACT: note_on channel=7 note=51 velocity=0 time=0.048913031249999996
EXTRACT: note_on channel=1 note=75 velocity=0 time=0.07065215624999999
EXTRACT: note_on channel=1 note=63 velocity=0 time=0
EXTRACT: note_on channel=9 note=42 velocity=0 time=0.0095108671875
EXTRACT: note_on channel=1 note=62 velocity=127 time=0.13179344531249998
EXTRACT: note_on channel=1 note=74 velocity=127 time=0
EXTRACT: note_on channel=7 note=39 velocity=127 time=0
EXTRACT: note_on channel=9 note=44 velocity=110 time=0
EXTRACT: note_on channel=9 note=36 velocity=114 time=0
EXTRACT: note_on channel=9 note=40 velocity=115 time=0
EXTRACT: note_on channel=9 note=39 velocity=94 time=0
EXTRACT: note_on channel=6 note=58 velocity=0 time=0.028532601562499996
EXTRACT: note_on channel=6 note=67 velocity=0 time=0.013586953124999999
EXTRACT: note_on channel=6 note=62 velocity=0 time=0.0095108671875
EXTRACT: note_on channel=9 note=39 velocity=0 time=0.04619564062499999
EXTRACT: note_on channel=9 note=36 velocity=0 time=0.017663039062499997
EXTRACT: note_on channel=9 note=44 velocity=0 time=0.008152171875
EXTRACT: note_on channel=9 note=40 velocity=0 time=0.0013586953124999999
EXTRACT: note_on channel=1 note=74 velocity=0 time=0.11413040624999998
EXTRACT: note_on channel=1 note=62 velocity=0 time=0
EXTRACT: note_on channel=1 note=58 velocity=104 time=0.021739124999999998
EXTRACT: note_on channel=1 note=70 velocity=104 time=0
EXTRACT: note_on channel=9 note=42 velocity=53 time=0
EXTRACT: note_on channel=7 note=39 velocity=0 time=0.006793476562499999
EXTRACT: note_on channel=7 note=39 velocity=55 time=0.058423898437499996
EXTRACT: note_on channel=7 note=39 velocity=0 time=0.014945648437499999
EXTRACT: note_on channel=1 note=70 velocity=0 time=0.03804346875
EXTRACT: note_on channel=1 note=58 velocity=0 time=0
EXTRACT: note_on channel=9 note=42 velocity=0 time=0.0040760859375
EXTRACT: note_on channel=7 note=43 velocity=115 time=0.008152171875
EXTRACT: control_change channel=6 control=64 value=0 time=0.0801630234375
EXTRACT: control_change channel=6 control=64 value=127 time=0.006793476562499999
EXTRACT: control_change channel=6 control=64 value=0 time=0.0040760859375
EXTRACT: note_on channel=7 note=43 velocity=0 time=0.027173906249999998
EXTRACT: note_on channel=1 note=60 velocity=127 time=0.012228257812499999
EXTRACT: note_on channel=1 note=72 velocity=127 time=0
EXTRACT: note_on channel=6 note=55 velocity=115 time=0
EXTRACT: note_on channel=6 note=64 velocity=104 time=0
EXTRACT: note_on channel=6 note=60 velocity=115 time=0
EXTRACT: note_on channel=7 note=45 velocity=115 time=0
EXTRACT: note_on channel=9 note=36 velocity=114 time=0
EXTRACT: note_on channel=9 note=44 velocity=110 time=0
EXTRACT: note_on channel=7 note=45 velocity=0 time=0.11820649218749998
EXTRACT: note_on channel=9 note=36 velocity=0 time=0.006793476562499999
EXTRACT: note_on channel=7 note=43 velocity=127 time=0.0054347812499999995
EXTRACT: note_on channel=9 note=44 velocity=0 time=0.062499984375
EXTRACT: note_on channel=7 note=43 velocity=0 time=0.0665760703125
EXTRACT: note_on channel=7 note=45 velocity=115 time=0.0013586953124999999
EXTRACT: note_on channel=9 note=42 velocity=53 time=0
EXTRACT: note_on channel=1 note=72 velocity=0 time=0.09239128124999998
EXTRACT: note_on channel=1 note=60 velocity=0 time=0
EXTRACT: note_on channel=9 note=42 velocity=0 time=0.028532601562499996
EXTRACT: note_on channel=7 note=43 velocity=115 time=0.0095108671875
EXTRACT: note_on channel=7 note=45 velocity=0 time=0.0013586953124999999
EXTRACT: note_on channel=7 note=43 velocity=0 time=0.11548910156249999
EXTRACT: note_on channel=1 note=60 velocity=115 time=0.013586953124999999
EXTRACT: note_on channel=1 note=72 velocity=115 time=0
EXTRACT: note_on channel=7 note=45 velocity=127 time=0
EXTRACT: note_on channel=9 note=36 velocity=114 time=0
EXTRACT: note_on channel=9 note=44 velocity=110 time=0
EXTRACT: note_on channel=9 note=39 velocity=94 time=0
EXTRACT: note_on channel=9 note=40 velocity=115 time=0
EXTRACT: control_change channel=6 control=64 value=127 time=0.0027173906249999998
EXTRACT: note_on channel=1 note=74 velocity=115 time=0.062499984375
EXTRACT: note_on channel=1 note=72 velocity=0 time=0.0203804296875
EXTRACT: note_on channel=1 note=60 velocity=0 time=0
EXTRACT: note_on channel=9 note=36 velocity=0 time=0.01630434375
EXTRACT: note_on channel=9 note=39 velocity=0 time=0.0027173906249999998
EXTRACT: note_on channel=9 note=40 velocity=0 time=0.006793476562499999
EXTRACT: note_on channel=1 note=62 velocity=115 time=0.019021734375
EXTRACT: note_on channel=9 note=44 velocity=0 time=0.0692934609375
EXTRACT: note_on channel=7 note=45 velocity=0 time=0.008152171875
EXTRACT: note_on channel=1 note=74 velocity=0 time=0.029891296874999997
EXTRACT: note_on channel=6 note=55 velocity=0 time=0.0040760859375
EXTRACT: note_on channel=1 note=60 velocity=127 time=0.019021734375
EXTRACT: note_on channel=1 note=72 velocity=127 time=0
EXTRACT: note_on channel=9 note=42 velocity=33 time=0
EXTRACT: note_on channel=6 note=64 velocity=0 time=0.008152171875
EXTRACT: note_on channel=6 note=60 velocity=0 time=0.023097820312499996
EXTRACT: note_on channel=1 note=62 velocity=0 time=0.010869562499999999
EXTRACT: note_on channel=7 note=43 velocity=127 time=0.0883151953125
EXTRACT: note_on channel=9 note=42 velocity=0 time=0.006793476562499999
EXTRACT: note_on channel=1 note=72 velocity=0 time=0.01630434375
EXTRACT: note_on channel=1 note=60 velocity=0 time=0
EXTRACT: control_change channel=6 control=64 value=0 time=0.006793476562499999
EXTRACT: control_change channel=6 control=64 value=127 time=0.0095108671875
EXTRACT: control_change channel=6 control=64 value=0 time=0.0040760859375
EXTRACT: note_on channel=7 note=43 velocity=0 time=0.024456515624999998
EXTRACT: note_on channel=6 note=64 velocity=104 time=0.062499984375
EXTRACT: note_on channel=6 note=55 velocity=104 time=0
EXTRACT: note_on channel=6 note=60 velocity=104 time=0
EXTRACT: note_on channel=7 note=45 velocity=127 time=0
EXTRACT: note_on channel=9 note=44 velocity=110 time=0
EXTRACT: note_on channel=9 note=36 velocity=115 time=0
EXTRACT: note_on channel=9 note=36 velocity=0 time=0.09239128124999998
EXTRACT: note_on channel=7 note=45 velocity=0 time=0.0054347812499999995
EXTRACT: control_change channel=6 control=64 value=127 time=0.07065215624999999
EXTRACT: note_on channel=9 note=44 velocity=0 time=0.01630434375
EXTRACT: note_on channel=7 note=38 velocity=127 time=0.0760869375
EXTRACT: note_on channel=9 note=42 velocity=33 time=0
EXTRACT: note_on channel=9 note=85 velocity=104 time=0
EXTRACT: note_on channel=9 note=39 velocity=53 time=0
EXTRACT: note_on channel=9 note=85 velocity=0 time=0.0910325859375
EXTRACT: note_on channel=9 note=39 velocity=0 time=0.019021734375
EXTRACT: note_on channel=9 note=42 velocity=0 time=0.010869562499999999
EXTRACT: note_on channel=6 note=55 velocity=0 time=0.105978234375
EXTRACT: note_on channel=6 note=64 velocity=0 time=0.019021734375
EXTRACT: note_on channel=6 note=60 velocity=0 time=0.006793476562499999
EXTRACT: note_on channel=7 note=41 velocity=127 time=0.008152171875
EXTRACT: note_on channel=9 note=44 velocity=110 time=0
EXTRACT: note_on channel=9 note=36 velocity=114 time=0
EXTRACT: note_on channel=9 note=39 velocity=104 time=0
EXTRACT: note_on channel=9 note=40 velocity=104 time=0
EXTRACT: note_on channel=7 note=38 velocity=0 time=0.006793476562499999
EXTRACT: note_on channel=9 note=39 velocity=0 time=0.062499984375
EXTRACT: note_on channel=9 note=36 velocity=0 time=0.033967382812499995
EXTRACT: note_on channel=9 note=40 velocity=0 time=0.0013586953124999999
EXTRACT: note_on channel=9 note=44 velocity=0 time=0.058423898437499996
EXTRACT: note_on channel=7 note=43 velocity=127 time=0.09782606249999999
EXTRACT: note_on channel=9 note=42 velocity=33 time=0
EXTRACT: note_on channel=7 note=41 velocity=0 time=0.0054347812499999995
EXTRACT: control_change channel=6 control=64 value=0 time=0.08288041406249999
EXTRACT: control_change channel=6 control=64 value=127 time=0.008152171875
EXTRACT: control_change channel=6 control=64 value=0 time=0.0054347812499999995
EXTRACT: note_on channel=9 note=42 velocity=0 time=0.008152171875
EXTRACT: note_on channel=2 note=98 velocity=86 time=0.1508151796875
EXTRACT: note_on channel=6 note=58 velocity=104 time=0
EXTRACT: note_on channel=6 note=55 velocity=94 time=0
EXTRACT: note_on channel=6 note=65 velocity=94 time=0
EXTRACT: note_on channel=6 note=62 velocity=94 time=0
EXTRACT: note_on channel=7 note=31 velocity=104 time=0
EXTRACT: note_on channel=9 note=46 velocity=115 time=0
EXTRACT: note_on channel=9 note=36 velocity=110 time=0
EXTRACT: note_on channel=7 note=43 velocity=0 time=0.0095108671875
EXTRACT: note_on channel=2 note=98 velocity=0 time=0.0665760703125
EXTRACT: aftertouch channel=7 value=4 time=0.0366847734375
EXTRACT: aftertouch channel=7 value=6 time=0.01630434375
EXTRACT: note_on channel=9 note=36 velocity=0 time=0
EXTRACT: aftertouch channel=7 value=2 time=0.0475543359375
EXTRACT: note_on channel=7 note=31 velocity=0 time=0.0040760859375
EXTRACT: aftertouch channel=7 value=0 time=0.012228257812499999
EXTRACT: control_change channel=6 control=64 value=127 time=0.0013586953124999999
EXTRACT: aftertouch channel=7 value=0 time=0.014945648437499999
EXTRACT: note_on channel=9 note=46 velocity=0 time=0
EXTRACT: note_on channel=7 note=43 velocity=127 time=0.051630421875
EXTRACT: note_on channel=9 note=70 velocity=37 time=0
EXTRACT: note_on channel=7 note=43 velocity=0 time=0.07201085156249999
EXTRACT: note_on channel=9 note=70 velocity=0 time=0.017663039062499997
EXTRACT: note_on channel=2 note=98 velocity=79 time=0.17119560937499997
EXTRACT: note_on channel=7 note=34 velocity=127 time=0
EXTRACT: note_on channel=9 note=44 velocity=110 time=0
EXTRACT: note_on channel=9 note=36 velocity=114 time=0
EXTRACT: note_on channel=9 note=39 velocity=94 time=0
EXTRACT: note_on channel=9 note=40 velocity=104 time=0
EXTRACT: control_change channel=6 control=64 value=0 time=0.06114128906249999
EXTRACT: control_change channel=6 control=64 value=127 time=0.006793476562499999
EXTRACT: note_on channel=2 note=98 velocity=0 time=0.0013586953124999999
EXTRACT: note_on channel=6 note=55 velocity=0 time=0.0027173906249999998
EXTRACT: control_change channel=6 control=64 value=0 time=0.0013586953124999999
EXTRACT: note_on channel=6 note=58 velocity=0 time=0.006793476562499999
EXTRACT: note_on channel=6 note=65 velocity=0 time=0.006793476562499999
EXTRACT: note_on channel=6 note=62 velocity=0 time=0.0095108671875
EXTRACT: note_on channel=9 note=39 velocity=0 time=0.0095108671875
EXTRACT: note_on channel=9 note=36 velocity=0 time=0.01630434375
EXTRACT: note_on channel=9 note=40 velocity=0 time=0.033967382812499995
EXTRACT: note_on channel=9 note=44 velocity=0 time=0.023097820312499996
EXTRACT: note_on channel=7 note=34 velocity=0 time=0.0366847734375
EXTRACT: note_on channel=6 note=65 velocity=94 time=0.044836945312499994
EXTRACT: note_on channel=6 note=55 velocity=79 time=0
EXTRACT: note_on channel=6 note=58 velocity=94 time=0
EXTRACT: note_on channel=6 note=62 velocity=104 time=0
EXTRACT: note_on channel=7 note=39 velocity=127 time=0
EXTRACT: note_on channel=9 note=42 velocity=35 time=0
EXTRACT: control_change channel=6 control=64 value=127 time=0.07472824218749999
EXTRACT: note_on channel=9 note=42 velocity=0 time=0.01630434375
EXTRACT: note_on channel=1 note=55 velocity=115 time=0.16983691406249998
EXTRACT: note_on channel=1 note=67 velocity=115 time=0
EXTRACT: note_on channel=2 note=98 velocity=79 time=0
EXTRACT: note_on channel=9 note=44 velocity=110 time=0
EXTRACT: note_on channel=9 note=36 velocity=114 time=0
EXTRACT: note_on channel=7 note=39 velocity=0 time=0.059782593749999995
EXTRACT: note_on channel=7 note=39 velocity=59 time=0.0054347812499999995
EXTRACT: note_on channel=2 note=98 velocity=0 time=0.0054347812499999995
EXTRACT: note_on channel=7 note=39 velocity=0 time=0.012228257812499999
EXTRACT: note_on channel=9 note=36 velocity=0 time=0.029891296874999997
EXTRACT: note_on channel=1 note=67 velocity=0 time=0.03532607812499999
EXTRACT: note_on channel=1 note=55 velocity=0 time=0
EXTRACT: note_on channel=9 note=44 velocity=0 time=0.028532601562499996
EXTRACT: note_on channel=1 note=55 velocity=127 time=0.084239109375
EXTRACT: note_on channel=1 note=67 velocity=127 time=0
EXTRACT: note_on channel=7 note=51 velocity=127 time=0
EXTRACT: note_on channel=9 note=42 velocity=45 time=0
EXTRACT: note_on channel=7 note=51 velocity=0 time=0.044836945312499994
EXTRACT: note_on channel=9 note=42 velocity=0 time=0.084239109375
EXTRACT: note_on channel=1 note=67 velocity=0 time=0.0326086875
EXTRACT: note_on channel=1 note=55 velocity=0 time=0
EXTRACT: note_on channel=1 note=58 velocity=127 time=0.0991847578125
EXTRACT: note_on channel=1 note=70 velocity=127 time=0
EXTRACT: note_on channel=2 note=98 velocity=68 time=0
EXTRACT: note_on channel=7 note=39 velocity=127 time=0
EXTRACT: note_on channel=9 note=44 velocity=110 time=0
EXTRACT: note_on channel=9 note=36 velocity=114 time=0
EXTRACT: note_on channel=9 note=40 velocity=115 time=0
EXTRACT: note_on channel=9 note=39 velocity=94 time=0
EXTRACT: note_on channel=2 note=98 velocity=0 time=0.06385867968749999
EXTRACT: note_on channel=9 note=39 velocity=0 time=0.033967382812499995
EXTRACT: note_on channel=9 note=36 velocity=0 time=0.017663039062499997
EXTRACT: note_on channel=9 note=44 velocity=0 time=0.008152171875
EXTRACT: note_on channel=9 note=40 velocity=0 time=0.0013586953124999999
EXTRACT: note_on channel=9 note=42 velocity=53 time=0.13586953124999998
EXTRACT: note_on channel=7 note=39 velocity=0 time=0.0326086875
EXTRACT: note_on channel=6 note=62 velocity=0 time=0.062499984375
EXTRACT: note_on channel=6 note=65 velocity=0 time=0.006793476562499999
EXTRACT: note_on channel=1 note=70 velocity=0 time=0.010869562499999999
EXTRACT: note_on channel=1 note=58 velocity=0 time=0
EXTRACT: note_on channel=6 note=58 velocity=0 time=0.0040760859375
EXTRACT: note_on channel=9 note=42 velocity=0 time=0.0054347812499999995
EXTRACT: note_on channel=1 note=55 velocity=115 time=0.008152171875
EXTRACT: note_on channel=1 note=67 velocity=115 time=0
EXTRACT: note_on channel=7 note=39 velocity=86 time=0
EXTRACT: note_on channel=6 note=55 velocity=0 time=0.006793476562499999
EXTRACT: control_change channel=6 control=64 value=0 time=0.0095108671875
EXTRACT: control_change channel=6 control=64 value=127 time=0.006793476562499999
EXTRACT: control_change channel=6 control=64 value=0 time=0.0054347812499999995
EXTRACT: note_on channel=7 note=37 velocity=26 time=0.0366847734375
EXTRACT: note_on channel=1 note=67 velocity=0 time=0.027173906249999998
EXTRACT: note_on channel=1 note=55 velocity=0 time=0
EXTRACT: note_on channel=7 note=37 velocity=0 time=0.0013586953124999999
EXTRACT: note_on channel=7 note=39 velocity=0 time=0.019021734375
EXTRACT: note_on channel=1 note=62 velocity=115 time=0.017663039062499997
EXTRACT: note_on channel=1 note=74 velocity=115 time=0
EXTRACT: note_on channel=2 note=98 velocity=63 time=0
EXTRACT: note_on channel=6 note=62 velocity=104 time=0
EXTRACT: note_on channel=6 note=65 velocity=104 time=0
EXTRACT: note_on channel=6 note=57 velocity=94 time=0
EXTRACT: note_on channel=6 note=60 velocity=104 time=0
EXTRACT: note_on channel=7 note=41 velocity=127 time=0
EXTRACT: note_on channel=9 note=36 velocity=114 time=0
EXTRACT: note_on channel=9 note=44 velocity=110 time=0
EXTRACT: note_on channel=2 note=98 velocity=0 time=0.07472824218749999
EXTRACT: note_on channel=1 note=74 velocity=0 time=0.043478249999999996
EXTRACT: note_on channel=1 note=62 velocity=0 time=0
EXTRACT: note_on channel=9 note=36 velocity=0 time=0.006793476562499999
EXTRACT: control_change channel=6 control=64 value=127 time=0.013586953124999999
EXTRACT: note_on channel=7 note=41 velocity=0 time=0.0013586953124999999
EXTRACT: note_on channel=9 note=44 velocity=0 time=0.0529891171875
EXTRACT: note_on channel=1 note=62 velocity=115 time=0.06793476562499999
EXTRACT: note_on channel=1 note=74 velocity=115 time=0
EXTRACT: note_on channel=9 note=42 velocity=53 time=0
EXTRACT: note_on channel=9 note=42 velocity=0 time=0.1209238828125
EXTRACT: note_on channel=1 note=74 velocity=0 time=0.0040760859375
EXTRACT: note_on channel=1 note=62 velocity=0 time=0
EXTRACT: note_on channel=1 note=60 velocity=115 time=0.13586953124999998
EXTRACT: note_on channel=1 note=72 velocity=115 time=0
EXTRACT: note_on channel=2 note=98 velocity=58 time=0
EXTRACT: note_on channel=7 note=41 velocity=127 time=0
EXTRACT: note_on channel=9 note=36 velocity=114 time=0
EXTRACT: note_on channel=9 note=44 velocity=110 time=0
EXTRACT: note_on channel=9 note=39 velocity=94 time=0
EXTRACT: note_on channel=9 note=40 velocity=115 time=0
EXTRACT: note_on channel=2 note=98 velocity=0 time=0.062499984375
EXTRACT: note_on channel=1 note=74 velocity=115 time=0.0027173906249999998
EXTRACT: note_on channel=1 note=72 velocity=0 time=0.027173906249999998
EXTRACT: note_on channel=1 note=60 velocity=0 time=0
EXTRACT: note_on channel=9 note=36 velocity=0 time=0.0095108671875
EXTRACT: note_on channel=9 note=39 velocity=0 time=0.0027173906249999998
EXTRACT: note_on channel=9 note=40 velocity=0 time=0.006793476562499999
EXTRACT: note_on channel=1 note=62 velocity=115 time=0.019021734375
EXTRACT: note_on channel=9 note=44 velocity=0 time=0.0692934609375
EXTRACT: note_on channel=1 note=74 velocity=0 time=0.0421195546875
EXTRACT: note_on channel=9 note=42 velocity=33 time=0.019021734375
EXTRACT: note_on channel=1 note=62 velocity=0 time=0.04619564062499999
EXTRACT: note_on channel=9 note=42 velocity=0 time=0.0910325859375
EXTRACT: control_change channel=6 control=64 value=0 time=0.0054347812499999995
EXTRACT: note_on channel=6 note=57 velocity=0 time=0.0027173906249999998
EXTRACT: control_change channel=6 control=64 value=127 time=0.0027173906249999998
EXTRACT: note_on channel=6 note=65 velocity=0 time=0.0095108671875
EXTRACT: control_change channel=6 control=64 value=0 time=0.0013586953124999999
EXTRACT: note_on channel=6 note=62 velocity=0 time=0.006793476562499999
EXTRACT: note_on channel=6 note=60 velocity=0 time=0.008152171875
EXTRACT: note_on channel=7 note=39 velocity=94 time=0.021739124999999998
EXTRACT: note_on channel=7 note=41 velocity=0 time=0.008152171875
EXTRACT: note_on channel=2 note=98 velocity=53 time=0.05706520312499999
EXTRACT: note_on channel=6 note=57 velocity=86 time=0
EXTRACT: note_on channel=6 note=60 velocity=94 time=0
EXTRACT: note_on channel=6 note=62 velocity=94 time=0
EXTRACT: note_on channel=6 note=65 velocity=94 time=0
EXTRACT: note_on channel=7 note=38 velocity=115 time=0
EXTRACT: note_on channel=9 note=44 velocity=110 time=0
EXTRACT: note_on channel=9 note=36 velocity=115 time=0
EXTRACT: note_on channel=7 note=39 velocity=0 time=0.027173906249999998
EXTRACT: note_on channel=2 note=98 velocity=0 time=0.0475543359375
EXTRACT: note_on channel=7 note=38 velocity=0 time=0.0013586953124999999
EXTRACT: control_change channel=6 control=64 value=127 time=0.0013586953124999999
EXTRACT: note_on channel=9 note=36 velocity=0 time=0.014945648437499999
EXTRACT: note_on channel=9 note=44 velocity=0 time=0.09239128124999998
EXTRACT: note_on channel=7 note=38 velocity=127 time=0.0760869375
EXTRACT: note_on channel=9 note=42 velocity=33 time=0
EXTRACT: note_on channel=9 note=85 velocity=104 time=0
EXTRACT: note_on channel=9 note=39 velocity=53 time=0
EXTRACT: note_on channel=7 note=38 velocity=0 time=0.0692934609375
EXTRACT: note_on channel=9 note=85 velocity=0 time=0.021739124999999998
EXTRACT: note_on channel=9 note=39 velocity=0 time=0.019021734375
EXTRACT: note_on channel=9 note=42 velocity=0 time=0.010869562499999999
EXTRACT: note_on channel=2 note=98 velocity=48 time=0.13994561718749998
EXTRACT: note_on channel=7 note=38 velocity=127 time=0
EXTRACT: note_on channel=9 note=44 velocity=110 time=0
EXTRACT: note_on channel=9 note=36 velocity=114 time=0
EXTRACT: note_on channel=9 note=39 velocity=104 time=0
EXTRACT: note_on channel=9 note=40 velocity=104 time=0
EXTRACT: note_on channel=2 note=98 velocity=0 time=0.058423898437499996
EXTRACT: note_on channel=9 note=39 velocity=0 time=0.010869562499999999
EXTRACT: note_on channel=6 note=57 velocity=0 time=0.0040760859375
EXTRACT: note_on channel=9 note=36 velocity=0 time=0.029891296874999997
EXTRACT: note_on channel=9 note=40 velocity=0 time=0.0013586953124999999
EXTRACT: note_on channel=6 note=65 velocity=0 time=0.008152171875
EXTRACT: note_on channel=6 note=60 velocity=0 time=0.0054347812499999995
EXTRACT: note_on channel=6 note=62 velocity=0 time=0.010869562499999999
EXTRACT: note_on channel=9 note=44 velocity=0 time=0.033967382812499995
EXTRACT: note_on channel=7 note=38 velocity=0 time=0.09646736718749999
EXTRACT: note_on channel=7 note=36 velocity=127 time=0.0013586953124999999
EXTRACT: note_on channel=9 note=42 velocity=33 time=0
EXTRACT: note_on channel=9 note=42 velocity=0 time=0.1100543203125
EXTRACT: note_on channel=7 note=36 velocity=0 time=0.019021734375
EXTRACT: note_on channel=7 note=38 velocity=115 time=0.0013586953124999999
EXTRACT: control_change channel=6 control=64 value=0 time=0.08695649999999999
EXTRACT: control_change channel=6 control=64 value=127 time=0.0013586953124999999
EXTRACT: control_change channel=6 control=64 value=0 time=0.006793476562499999
EXTRACT: note_on channel=7 note=38 velocity=0 time=0.033967382812499995
EXTRACT: note_on channel=6 note=69 velocity=104 time=0.0013586953124999999
EXTRACT: note_on channel=6 note=60 velocity=94 time=0
EXTRACT: note_on channel=6 note=62 velocity=94 time=0
EXTRACT: note_on channel=7 note=31 velocity=115 time=0
EXTRACT: note_on channel=9 note=46 velocity=115 time=0
EXTRACT: note_on channel=9 note=36 velocity=110 time=0
EXTRACT: aftertouch channel=7 value=6 time=0.095108671875
EXTRACT: aftertouch channel=7 value=12 time=0.014945648437499999
EXTRACT: aftertouch channel=7 value=14 time=0.01630434375
EXTRACT: note_on channel=9 note=36 velocity=0 time=0.0027173906249999998
EXTRACT: control_change channel=6 control=64 value=127 time=0.023097820312499996
EXTRACT: aftertouch channel=7 value=12 time=0.006793476562499999
EXTRACT: aftertouch channel=7 value=8 time=0.013586953124999999
EXTRACT: aftertouch channel=7 value=6 time=0.017663039062499997
EXTRACT: aftertouch channel=7 value=2 time=0.014945648437499999
EXTRACT: note_on channel=9 note=46 velocity=0 time=0.0040760859375
EXTRACT: note_on channel=6 note=69 velocity=0 time=0.0013586953124999999
EXTRACT: note_on channel=7 note=31 velocity=0 time=0
EXTRACT: aftertouch channel=7 value=0 time=0.0095108671875
EXTRACT: note_on channel=6 note=67 velocity=73 time=0.040760859375
EXTRACT: note_on channel=7 note=43 velocity=127 time=0
EXTRACT: note_on channel=9 note=70 velocity=37 time=0
EXTRACT: note_on channel=6 note=62 velocity=0 time=0.051630421875
EXTRACT: note_on channel=7 note=43 velocity=0 time=0.0027173906249999998
EXTRACT: note_on channel=9 note=70 velocity=0 time=0.03532607812499999
EXTRACT: note_on channel=6 note=67 velocity=0 time=0.09646736718749999
EXTRACT: note_on channel=6 note=65 velocity=104 time=0.07472824218749999
EXTRACT: note_on channel=7 note=34 velocity=115 time=0
EXTRACT: note_on channel=9 note=44 velocity=110 time=0
EXTRACT: note_on channel=9 note=36 velocity=114 time=0
EXTRACT: note_on channel=9 note=39 velocity=94 time=0
EXTRACT: note_on channel=9 note=40 velocity=104 time=0
EXTRACT: note_on channel=6 note=65 velocity=0 time=0.0883151953125
EXTRACT: control_change channel=6 control=64 value=0 time=0.006793476562499999
EXTRACT: note_on channel=6 note=60 velocity=0 time=0.0013586953124999999
EXTRACT: control_change channel=6 control=64 value=127 time=0.008152171875
EXTRACT: note_on channel=9 note=39 velocity=0 time=0.0013586953124999999
EXTRACT: control_change channel=6 control=64 value=0 time=0.0027173906249999998
EXTRACT: control_change channel=6 control=64 value=127 time=0.008152171875
EXTRACT: control_change channel=6 control=64 value=0 time=0.0040760859375
EXTRACT: note_on channel=9 note=36 velocity=0 time=0.0013586953124999999
EXTRACT: note_on channel=9 note=40 velocity=0 time=0.033967382812499995
EXTRACT: note_on channel=9 note=44 velocity=0 time=0.023097820312499996
EXTRACT: note_on channel=7 note=34 velocity=0 time=0.0421195546875
EXTRACT: note_on channel=6 note=67 velocity=86 time=0.039402164062499995
EXTRACT: note_on channel=6 note=62 velocity=104 time=0
EXTRACT: note_on channel=6 note=58 velocity=104 time=0
EXTRACT: note_on channel=7 note=39 velocity=127 time=0
EXTRACT: note_on channel=9 note=42 velocity=35 time=0
EXTRACT: note_on channel=9 note=42 velocity=0 time=0.0910325859375
EXTRACT: note_on channel=1 note=55 velocity=79 time=0.039402164062499995
EXTRACT: note_on channel=1 note=67 velocity=79 time=0
EXTRACT: control_change channel=6 control=64 value=127 time=0.024456515624999998
EXTRACT: note_on channel=1 note=67 velocity=0 time=0.06114128906249999
EXTRACT: note_on channel=1 note=55 velocity=0 time=0
EXTRACT: note_on channel=1 note=62 velocity=127 time=0.044836945312499994
EXTRACT: note_on channel=1 note=74 velocity=127 time=0
EXTRACT: note_on channel=9 note=44 velocity=110 time=0
EXTRACT: note_on channel=9 note=36 velocity=114 time=0
EXTRACT: note_on channel=7 note=39 velocity=0 time=0.04619564062499999
EXTRACT: note_on channel=7 note=39 velocity=59 time=0.019021734375
EXTRACT: note_on channel=7 note=39 velocity=0 time=0.0203804296875
EXTRACT: note_on channel=9 note=36 velocity=0 time=0.027173906249999998
EXTRACT: note_on channel=1 note=74 velocity=0 time=0.021739124999999998
EXTRACT: note_on channel=1 note=62 velocity=0 time=0
EXTRACT: note_on channel=9 note=44 velocity=0 time=0.0421195546875
EXTRACT: note_on channel=1 note=63 velocity=115 time=0.084239109375
EXTRACT: note_on channel=1 note=75 velocity=115 time=0
EXTRACT: note_on channel=7 note=51 velocity=127 time=0
EXTRACT: note_on channel=9 note=42 velocity=45 time=0
EXTRACT: note_on channel=7 note=51 velocity=0 time=0.073369546875
EXTRACT: note_on channel=1 note=75 velocity=0 time=0.0312499921875
EXTRACT: note_on channel=1 note=63 velocity=0 time=0
EXTRACT: note_on channel=9 note=42 velocity=0 time=0.024456515624999998
EXTRACT: note_on channel=1 note=62 velocity=127 time=0.13179344531249998
EXTRACT: note_on channel=1 note=74 velocity=127 time=0
EXTRACT: note_on channel=7 note=39 velocity=115 time=0
EXTRACT: note_on channel=9 note=44 velocity=110 time=0
EXTRACT: note_on channel=9 note=36 velocity=114 time=0
EXTRACT: note_on channel=9 note=40 velocity=115 time=0
EXTRACT: note_on channel=9 note=39 velocity=94 time=0
EXTRACT: note_on channel=6 note=58 velocity=0 time=0.028532601562499996
EXTRACT: note_on channel=6 note=67 velocity=0 time=0.013586953124999999
EXTRACT: note_on channel=6 note=62 velocity=0 time=0.0095108671875
EXTRACT: note_on channel=9 note=39 velocity=0 time=0.04619564062499999
EXTRACT: note_on channel=9 note=36 velocity=0 time=0.017663039062499997
EXTRACT: note_on channel=9 note=44 velocity=0 time=0.008152171875
EXTRACT: note_on channel=9 note=40 velocity=0 time=0.0013586953124999999
EXTRACT: note_on channel=1 note=74 velocity=0 time=0.10461953906249999
EXTRACT: note_on channel=1 note=62 velocity=0 time=0
EXTRACT: note_on channel=1 note=58 velocity=104 time=0.0312499921875
EXTRACT: note_on channel=1 note=70 velocity=104 time=0
EXTRACT: note_on channel=9 note=42 velocity=53 time=0
EXTRACT: note_on channel=7 note=39 velocity=0 time=0.0910325859375
EXTRACT: note_on channel=1 note=70 velocity=0 time=0.021739124999999998
EXTRACT: note_on channel=1 note=58 velocity=0 time=0
EXTRACT: note_on channel=9 note=42 velocity=0 time=0.0095108671875
EXTRACT: note_on channel=7 note=43 velocity=127 time=0.008152171875
EXTRACT: control_change channel=6 control=64 value=0 time=0.0801630234375
EXTRACT: control_change channel=6 control=64 value=127 time=0.006793476562499999
EXTRACT: control_change channel=6 control=64 value=0 time=0.0040760859375
EXTRACT: note_on channel=7 note=43 velocity=0 time=0.014945648437499999
EXTRACT: note_on channel=1 note=60 velocity=127 time=0.024456515624999998
EXTRACT: note_on channel=1 note=72 velocity=127 time=0
EXTRACT: note_on channel=6 note=55 velocity=115 time=0
EXTRACT: note_on channel=6 note=64 velocity=104 time=0
EXTRACT: note_on channel=6 note=60 velocity=115 time=0
EXTRACT: note_on channel=7 note=45 velocity=115 time=0
EXTRACT: note_on channel=9 note=36 velocity=114 time=0
EXTRACT: note_on channel=9 note=44 velocity=110 time=0
EXTRACT: note_on channel=7 note=45 velocity=0 time=0.12228257812499999
EXTRACT: note_on channel=9 note=36 velocity=0 time=0.0027173906249999998
EXTRACT: note_on channel=7 note=43 velocity=127 time=0.0054347812499999995
EXTRACT: note_on channel=9 note=44 velocity=0 time=0.062499984375
EXTRACT: note_on channel=7 note=43 velocity=0 time=0.05570650781249999
EXTRACT: note_on channel=7 note=45 velocity=127 time=0.012228257812499999
EXTRACT: note_on channel=9 note=42 velocity=53 time=0
EXTRACT: note_on channel=1 note=72 velocity=0 time=0.0883151953125
EXTRACT: note_on channel=1 note=60 velocity=0 time=0
EXTRACT: note_on channel=9 note=42 velocity=0 time=0.0326086875
EXTRACT: note_on channel=7 note=43 velocity=127 time=0.0095108671875
EXTRACT: note_on channel=7 note=45 velocity=0 time=0.0203804296875
EXTRACT: note_on channel=7 note=43 velocity=0 time=0.0774456328125
EXTRACT: note_on channel=1 note=60 velocity=94 time=0.0326086875
EXTRACT: note_on channel=1 note=72 velocity=94 time=0
EXTRACT: note_on channel=7 note=45 velocity=127 time=0
EXTRACT: note_on channel=9 note=36 velocity=114 time=0
EXTRACT: note_on channel=9 note=44 velocity=110 time=0
EXTRACT: note_on channel=9 note=39 velocity=94 time=0
EXTRACT: note_on channel=9 note=40 velocity=115 time=0
EXTRACT: control_change channel=6 control=64 value=127 time=0.0027173906249999998
EXTRACT: note_on channel=1 note=74 velocity=104 time=0.062499984375
EXTRACT: note_on channel=1 note=72 velocity=0 time=0.01630434375
EXTRACT: note_on channel=1 note=60 velocity=0 time=0
EXTRACT: note_on channel=9 note=36 velocity=0 time=0.0203804296875
EXTRACT: note_on channel=9 note=39 velocity=0 time=0.0027173906249999998
EXTRACT: note_on channel=9 note=40 velocity=0 time=0.006793476562499999
EXTRACT: note_on channel=1 note=62 velocity=104 time=0.019021734375
EXTRACT: note_on channel=9 note=44 velocity=0 time=0.0692934609375
EXTRACT: note_on channel=1 note=74 velocity=0 time=0.0366847734375
EXTRACT: note_on channel=6 note=55 velocity=0 time=0.0054347812499999995
EXTRACT: note_on channel=7 note=45 velocity=0 time=0.008152171875
EXTRACT: note_on channel=1 note=60 velocity=94 time=0.010869562499999999
EXTRACT: note_on channel=1 note=72 velocity=94 time=0
EXTRACT: note_on channel=9 note=42 velocity=33 time=0
EXTRACT: note_on channel=6 note=64 velocity=0 time=0.008152171875
EXTRACT: note_on channel=6 note=60 velocity=0 time=0.023097820312499996
EXTRACT: note_on channel=1 note=62 velocity=0 time=0.0095108671875
EXTRACT: note_on channel=1 note=72 velocity=0 time=0.0692934609375
EXTRACT: note_on channel=1 note=60 velocity=0 time=0
EXTRACT: note_on channel=7 note=43 velocity=127 time=0.0203804296875
EXTRACT: note_on channel=9 note=42 velocity=0 time=0.006793476562499999
EXTRACT: control_change channel=6 control=64 value=0 time=0.023097820312499996
EXTRACT: control_change channel=6 control=64 value=127 time=0.0095108671875
EXTRACT: control_change channel=6 control=64 value=0 time=0.0040760859375
EXTRACT: note_on channel=7 note=43 velocity=0 time=0.028532601562499996
EXTRACT: note_on channel=6 note=64 velocity=104 time=0.058423898437499996
EXTRACT: note_on channel=6 note=55 velocity=104 time=0
EXTRACT: note_on channel=6 note=60 velocity=104 time=0
EXTRACT: note_on channel=7 note=45 velocity=127 time=0
EXTRACT: note_on channel=9 note=44 velocity=110 time=0
EXTRACT: note_on channel=9 note=36 velocity=115 time=0
EXTRACT: note_on channel=7 note=45 velocity=0 time=0.08695649999999999
EXTRACT: note_on channel=9 note=36 velocity=0 time=0.0054347812499999995
EXTRACT: control_change channel=6 control=64 value=127 time=0.0760869375
EXTRACT: note_on channel=9 note=44 velocity=0 time=0.01630434375
EXTRACT: note_on channel=7 note=38 velocity=127 time=0.0760869375
EXTRACT: note_on channel=9 note=42 velocity=33 time=0
EXTRACT: note_on channel=9 note=85 velocity=104 time=0
EXTRACT: note_on channel=9 note=39 velocity=53 time=0
EXTRACT: note_on channel=9 note=85 velocity=0 time=0.0910325859375
EXTRACT: note_on channel=9 note=39 velocity=0 time=0.019021734375
EXTRACT: note_on channel=9 note=42 velocity=0 time=0.010869562499999999
EXTRACT: note_on channel=6 note=55 velocity=0 time=0.105978234375
EXTRACT: note_on channel=7 note=38 velocity=0 time=0.017663039062499997
EXTRACT: note_on channel=6 note=64 velocity=0 time=0.0013586953124999999
EXTRACT: note_on channel=6 note=60 velocity=0 time=0.006793476562499999
EXTRACT: note_on channel=7 note=41 velocity=127 time=0.008152171875
EXTRACT: note_on channel=9 note=44 velocity=110 time=0
EXTRACT: note_on channel=9 note=36 velocity=114 time=0
EXTRACT: note_on channel=9 note=39 velocity=104 time=0
EXTRACT: note_on channel=9 note=40 velocity=104 time=0
EXTRACT: note_on channel=9 note=39 velocity=0 time=0.0692934609375
EXTRACT: note_on channel=9 note=36 velocity=0 time=0.033967382812499995
EXTRACT: note_on channel=9 note=40 velocity=0 time=0.0013586953124999999
EXTRACT: note_on channel=9 note=44 velocity=0 time=0.058423898437499996
EXTRACT: note_on channel=7 note=41 velocity=0 time=0.09374997656249999
EXTRACT: note_on channel=7 note=43 velocity=127 time=0.0040760859375
EXTRACT: note_on channel=9 note=42 velocity=33 time=0
EXTRACT: control_change channel=6 control=64 value=0 time=0.0883151953125
EXTRACT: control_change channel=6 control=64 value=127 time=0.008152171875
EXTRACT: control_change channel=6 control=64 value=0 time=0.0054347812499999995
EXTRACT: note_on channel=9 note=42 velocity=0 time=0.008152171875
EXTRACT: note_on channel=2 note=98 velocity=86 time=0.1508151796875
EXTRACT: note_on channel=6 note=58 velocity=104 time=0
EXTRACT: note_on channel=6 note=55 velocity=94 time=0
EXTRACT: note_on channel=6 note=65 velocity=94 time=0
EXTRACT: note_on channel=6 note=62 velocity=94 time=0
EXTRACT: note_on channel=7 note=31 velocity=127 time=0
EXTRACT: note_on channel=9 note=46 velocity=115 time=0
EXTRACT: note_on channel=9 note=36 velocity=110 time=0
EXTRACT: note_on channel=7 note=43 velocity=0 time=0.014945648437499999
EXTRACT: note_on channel=2 note=98 velocity=0 time=0.06114128906249999
EXTRACT: note_on channel=9 note=36 velocity=0 time=0.0529891171875
EXTRACT: control_change channel=6 control=64 value=127 time=0.065217375
EXTRACT: note_on channel=7 note=31 velocity=0 time=0.0027173906249999998
EXTRACT: note_on channel=9 note=46 velocity=0 time=0.012228257812499999
EXTRACT: note_on channel=7 note=43 velocity=127 time=0.051630421875
EXTRACT: note_on channel=9 note=70 velocity=37 time=0
EXTRACT: note_on channel=7 note=43 velocity=0 time=0.0692934609375
EXTRACT: note_on channel=9 note=70 velocity=0 time=0.0203804296875
EXTRACT: note_on channel=2 note=98 velocity=79 time=0.17119560937499997
EXTRACT: note_on channel=7 note=34 velocity=127 time=0
EXTRACT: note_on channel=9 note=44 velocity=110 time=0
EXTRACT: note_on channel=9 note=36 velocity=114 time=0
EXTRACT: note_on channel=9 note=39 velocity=94 time=0
EXTRACT: note_on channel=9 note=40 velocity=104 time=0
EXTRACT: control_change channel=6 control=64 value=0 time=0.06114128906249999
EXTRACT: control_change channel=6 control=64 value=127 time=0.006793476562499999
EXTRACT: note_on channel=2 note=98 velocity=0 time=0.0013586953124999999
EXTRACT: note_on channel=6 note=55 velocity=0 time=0.0027173906249999998
EXTRACT: control_change channel=6 control=64 value=0 time=0.0013586953124999999
EXTRACT: note_on channel=6 note=58 velocity=0 time=0.006793476562499999
EXTRACT: note_on channel=6 note=65 velocity=0 time=0.006793476562499999
EXTRACT: note_on channel=6 note=62 velocity=0 time=0.0095108671875
EXTRACT: note_on channel=9 note=39 velocity=0 time=0.0095108671875
EXTRACT: note_on channel=9 note=36 velocity=0 time=0.01630434375
EXTRACT: note_on channel=9 note=40 velocity=0 time=0.033967382812499995
EXTRACT: note_on channel=9 note=44 velocity=0 time=0.023097820312499996
EXTRACT: note_on channel=7 note=34 velocity=0 time=0.043478249999999996
EXTRACT: note_on channel=6 note=65 velocity=94 time=0.03804346875
EXTRACT: note_on channel=6 note=55 velocity=79 time=0
EXTRACT: note_on channel=6 note=58 velocity=94 time=0
EXTRACT: note_on channel=6 note=62 velocity=104 time=0
EXTRACT: note_on channel=7 note=39 velocity=115 time=0
EXTRACT: note_on channel=9 note=42 velocity=35 time=0
EXTRACT: control_change channel=6 control=64 value=127 time=0.07472824218749999
EXTRACT: note_on channel=9 note=42 velocity=0 time=0.01630434375
EXTRACT: note_on channel=1 note=55 velocity=127 time=0.16983691406249998
EXTRACT: note_on channel=1 note=67 velocity=127 time=0
EXTRACT: note_on channel=2 note=98 velocity=79 time=0
EXTRACT: note_on channel=9 note=44 velocity=110 time=0
EXTRACT: note_on channel=9 note=36 velocity=114 time=0
EXTRACT: note_on channel=7 note=39 velocity=0 time=0.040760859375
EXTRACT: note_on channel=2 note=98 velocity=0 time=0.029891296874999997
EXTRACT: note_on channel=9 note=36 velocity=0 time=0.0421195546875
EXTRACT: note_on channel=1 note=67 velocity=0 time=0.01630434375
EXTRACT: note_on channel=1 note=55 velocity=0 time=0
EXTRACT: note_on channel=9 note=44 velocity=0 time=0.0475543359375
EXTRACT: note_on channel=1 note=55 velocity=104 time=0.084239109375
EXTRACT: note_on channel=1 note=67 velocity=104 time=0
EXTRACT: note_on channel=7 note=51 velocity=127 time=0
EXTRACT: note_on channel=9 note=42 velocity=45 time=0
EXTRACT: note_on channel=7 note=51 velocity=0 time=0.05570650781249999
EXTRACT: note_on channel=9 note=42 velocity=0 time=0.073369546875
EXTRACT: note_on channel=1 note=67 velocity=0 time=0.03804346875
EXTRACT: note_on channel=1 note=55 velocity=0 time=0
EXTRACT: note_on channel=1 note=58 velocity=115 time=0.09374997656249999
EXTRACT: note_on channel=1 note=70 velocity=115 time=0
EXTRACT: note_on channel=2 note=98 velocity=68 time=0
EXTRACT: note_on channel=7 note=37 velocity=73 time=0
EXTRACT: note_on channel=7 note=39 velocity=127 time=0
EXTRACT: note_on channel=9 note=44 velocity=110 time=0
EXTRACT: note_on channel=9 note=36 velocity=114 time=0
EXTRACT: note_on channel=9 note=40 velocity=115 time=0
EXTRACT: note_on channel=9 note=39 velocity=94 time=0
EXTRACT: note_on channel=7 note=37 velocity=0 time=0.019021734375
EXTRACT: note_on channel=2 note=98 velocity=0 time=0.044836945312499994
EXTRACT: note_on channel=9 note=39 velocity=0 time=0.033967382812499995
EXTRACT: note_on channel=9 note=36 velocity=0 time=0.017663039062499997
EXTRACT: note_on channel=9 note=44 velocity=0 time=0.008152171875
EXTRACT: note_on channel=9 note=40 velocity=0 time=0.0013586953124999999
EXTRACT: note_on channel=9 note=42 velocity=53 time=0.13586953124999998
EXTRACT: note_on channel=7 note=39 velocity=0 time=0.014945648437499999
EXTRACT: note_on channel=1 note=70 velocity=0 time=0.0801630234375
EXTRACT: note_on channel=1 note=58 velocity=0 time=0
EXTRACT: note_on channel=6 note=62 velocity=0 time=0
EXTRACT: note_on channel=6 note=65 velocity=0 time=0.006793476562499999
EXTRACT: note_on channel=6 note=58 velocity=0 time=0.014945648437499999
EXTRACT: note_on channel=9 note=42 velocity=0 time=0.0054347812499999995
EXTRACT: note_on channel=1 note=55 velocity=104 time=0.008152171875
EXTRACT: note_on channel=1 note=67 velocity=104 time=0
EXTRACT: note_on channel=7 note=39 velocity=104 time=0
EXTRACT: note_on channel=6 note=55 velocity=0 time=0.006793476562499999
EXTRACT: control_change channel=6 control=64 value=0 time=0.0095108671875
EXTRACT: control_change channel=6 control=64 value=127 time=0.006793476562499999
EXTRACT: control_change channel=6 control=64 value=0 time=0.0054347812499999995
EXTRACT: note_on channel=7 note=39 velocity=0 time=0.095108671875
EXTRACT: note_on channel=1 note=67 velocity=0 time=0.006793476562499999
EXTRACT: note_on channel=1 note=55 velocity=0 time=0
EXTRACT: note_on channel=1 note=62 velocity=127 time=0
EXTRACT: note_on channel=1 note=74 velocity=127 time=0
EXTRACT: note_on channel=2 note=98 velocity=63 time=0
EXTRACT: note_on channel=6 note=62 velocity=104 time=0
EXTRACT: note_on channel=6 note=65 velocity=104 time=0
EXTRACT: note_on channel=6 note=57 velocity=94 time=0
EXTRACT: note_on channel=6 note=60 velocity=104 time=0
EXTRACT: note_on channel=7 note=41 velocity=127 time=0
EXTRACT: note_on channel=9 note=36 velocity=114 time=0
EXTRACT: note_on channel=9 note=44 velocity=110 time=0
EXTRACT: note_on channel=2 note=98 velocity=0 time=0.07472824218749999
EXTRACT: note_on channel=1 note=74 velocity=0 time=0.0258152109375
EXTRACT: note_on channel=1 note=62 velocity=0 time=0
EXTRACT: note_on channel=9 note=36 velocity=0 time=0.024456515624999998
EXTRACT: control_change channel=6 control=64 value=127 time=0.013586953124999999
EXTRACT: note_on channel=7 note=41 velocity=0 time=0.006793476562499999
EXTRACT: note_on channel=9 note=44 velocity=0 time=0.0475543359375
EXTRACT: note_on channel=1 note=62 velocity=127 time=0.06793476562499999
EXTRACT: note_on channel=1 note=74 velocity=127 time=0
EXTRACT: note_on channel=9 note=42 velocity=53 time=0
EXTRACT: note_on channel=1 note=74 velocity=0 time=0.11277171093749999
EXTRACT: note_on channel=1 note=62 velocity=0 time=0
EXTRACT: note_on channel=9 note=42 velocity=0 time=0.008152171875
EXTRACT: note_on channel=1 note=60 velocity=115 time=0.13994561718749998
EXTRACT: note_on channel=1 note=72 velocity=115 time=0
EXTRACT: note_on channel=2 note=98 velocity=58 time=0
EXTRACT: note_on channel=7 note=41 velocity=127 time=0
EXTRACT: note_on channel=9 note=36 velocity=114 time=0
EXTRACT: note_on channel=9 note=44 velocity=110 time=0
EXTRACT: note_on channel=9 note=39 velocity=94 time=0
EXTRACT: note_on channel=9 note=40 velocity=115 time=0
EXTRACT: note_on channel=2 note=98 velocity=0 time=0.062499984375
EXTRACT: note_on channel=1 note=74 velocity=115 time=0.0027173906249999998
EXTRACT: note_on channel=9 note=36 velocity=0 time=0.0366847734375
EXTRACT: note_on channel=1 note=72 velocity=0 time=0.0027173906249999998
EXTRACT: note_on channel=1 note=60 velocity=0 time=0
EXTRACT: note_on channel=9 note=39 velocity=0 time=0
EXTRACT: note_on channel=9 note=40 velocity=0 time=0.006793476562499999
EXTRACT: note_on channel=1 note=62 velocity=115 time=0.019021734375
EXTRACT: note_on channel=9 note=44 velocity=0 time=0.0692934609375
EXTRACT: note_on channel=1 note=74 velocity=0 time=0.029891296874999997
EXTRACT: note_on channel=9 note=42 velocity=33 time=0.0312499921875
EXTRACT: note_on channel=1 note=62 velocity=0 time=0.033967382812499995
EXTRACT: pitchwheel channel=7 pitch=-2688 time=0.0774456328125
EXTRACT: pitchwheel channel=7 pitch=-7296 time=0.01630434375
EXTRACT: note_on channel=9 note=42 velocity=0 time=0.0095108671875
EXTRACT: control_change channel=6 control=64 value=0 time=0.0054347812499999995
EXTRACT: pitchwheel channel=7 pitch=-8192 time=0
EXTRACT: note_on channel=6 note=57 velocity=0 time=0.0027173906249999998
EXTRACT: control_change channel=6 control=64 value=127 time=0.0027173906249999998
EXTRACT: note_on channel=6 note=65 velocity=0 time=0.0095108671875
EXTRACT: control_change channel=6 control=64 value=0 time=0.0013586953124999999
EXTRACT: note_on channel=6 note=62 velocity=0 time=0.006793476562499999
EXTRACT: note_on channel=6 note=60 velocity=0 time=0.008152171875
EXTRACT: pitchwheel channel=7 pitch=-7168 time=0.017663039062499997
EXTRACT: pitchwheel channel=7 pitch=896 time=0.01630434375
EXTRACT: pitchwheel channel=7 pitch=0 time=0.014945648437499999
EXTRACT: note_on channel=7 note=41 velocity=0 time=0.008152171875
EXTRACT: note_on channel=2 note=98 velocity=53 time=0.029891296874999997
EXTRACT: note_on channel=6 note=57 velocity=86 time=0
EXTRACT: note_on channel=6 note=60 velocity=94 time=0
EXTRACT: note_on channel=6 note=62 velocity=94 time=0
EXTRACT: note_on channel=6 note=65 velocity=94 time=0
EXTRACT: note_on channel=7 note=38 velocity=127 time=0
EXTRACT: note_on channel=9 note=44 velocity=110 time=0
EXTRACT: note_on channel=9 note=36 velocity=115 time=0
EXTRACT: note_on channel=2 note=98 velocity=0 time=0.07472824218749999
EXTRACT: control_change channel=6 control=64 value=127 time=0.0027173906249999998
EXTRACT: note_on channel=9 note=36 velocity=0 time=0.014945648437499999
EXTRACT: note_on channel=7 note=38 velocity=0 time=0.012228257812499999
EXTRACT: note_on channel=9 note=44 velocity=0 time=0.0801630234375
EXTRACT: note_on channel=7 note=38 velocity=127 time=0.0760869375
EXTRACT: note_on channel=9 note=42 velocity=33 time=0
EXTRACT: note_on channel=9 note=85 velocity=104 time=0
EXTRACT: note_on channel=9 note=39 velocity=53 time=0
EXTRACT: note_on channel=9 note=85 velocity=0 time=0.0910325859375
EXTRACT: note_on channel=7 note=38 velocity=0 time=0.0027173906249999998
EXTRACT: note_on channel=9 note=39 velocity=0 time=0.01630434375
EXTRACT: note_on channel=9 note=42 velocity=0 time=0.010869562499999999
EXTRACT: note_on channel=2 note=98 velocity=48 time=0.13994561718749998
EXTRACT: note_on channel=7 note=38 velocity=127 time=0
EXTRACT: note_on channel=9 note=44 velocity=110 time=0
EXTRACT: note_on channel=9 note=36 velocity=114 time=0
EXTRACT: note_on channel=9 note=39 velocity=104 time=0
EXTRACT: note_on channel=9 note=40 velocity=104 time=0
EXTRACT: note_on channel=2 note=98 velocity=0 time=0.058423898437499996
EXTRACT: note_on channel=9 note=39 velocity=0 time=0.010869562499999999
EXTRACT: note_on channel=6 note=57 velocity=0 time=0.0040760859375
EXTRACT: note_on channel=9 note=36 velocity=0 time=0.029891296874999997
EXTRACT: note_on channel=9 note=40 velocity=0 time=0.0013586953124999999
EXTRACT: note_on channel=6 note=65 velocity=0 time=0.008152171875
EXTRACT: note_on channel=6 note=60 velocity=0 time=0.0054347812499999995
EXTRACT: note_on channel=6 note=62 velocity=0 time=0.010869562499999999
EXTRACT: pitchwheel channel=7 pitch=0 time=0.008152171875
EXTRACT: note_on channel=9 note=44 velocity=0 time=0.0258152109375
EXTRACT: note_on channel=7 note=36 velocity=115 time=0.09782606249999999
EXTRACT: note_on channel=9 note=42 velocity=33 time=0
EXTRACT: note_on channel=7 note=38 velocity=0 time=0.0095108671875
EXTRACT: note_on channel=9 note=42 velocity=0 time=0.10054345312499999
EXTRACT: note_on channel=7 note=36 velocity=0 time=0.013586953124999999
EXTRACT: note_on channel=7 note=38 velocity=127 time=0.006793476562499999
EXTRACT: control_change channel=6 control=64 value=0 time=0.08695649999999999
EXTRACT: control_change channel=6 control=64 value=127 time=0.0013586953124999999
EXTRACT: control_change channel=6 control=64 value=0 time=0.006793476562499999
EXTRACT: note_on channel=6 note=69 velocity=104 time=0.03532607812499999
EXTRACT: note_on channel=6 note=60 velocity=94 time=0
EXTRACT: note_on channel=6 note=62 velocity=94 time=0
EXTRACT: note_on channel=7 note=31 velocity=115 time=0
EXTRACT: note_on channel=9 note=46 velocity=115 time=0
EXTRACT: note_on channel=9 note=36 velocity=110 time=0
EXTRACT: note_on channel=7 note=38 velocity=0 time=0.0013586953124999999
EXTRACT: aftertouch channel=7 value=4 time=0.10326084375
EXTRACT: aftertouch channel=7 value=12 time=0.01630434375
EXTRACT: note_on channel=9 note=36 velocity=0 time=0.008152171875
EXTRACT: aftertouch channel=7 value=18 time=0.0095108671875
EXTRACT: control_change channel=6 control=64 value=127 time=0.013586953124999999
EXTRACT: aftertouch channel=7 value=14 time=0.048913031249999996
EXTRACT: note_on channel=9 note=46 velocity=0 time=0.008152171875
EXTRACT: note_on channel=6 note=69 velocity=0 time=0.0013586953124999999
EXTRACT: aftertouch channel=7 value=10 time=0.006793476562499999
EXTRACT: aftertouch channel=7 value=6 time=0.014945648437499999
EXTRACT: note_on channel=7 note=31 velocity=0 time=0.006793476562499999
EXTRACT: aftertouch channel=7 value=2 time=0.008152171875
EXTRACT: note_on channel=6 note=67 velocity=73 time=0.013586953124999999
EXTRACT: note_on channel=7 note=43 velocity=127 time=0
EXTRACT: note_on channel=9 note=70 velocity=37 time=0
EXTRACT: aftertouch channel=7 value=0 time=0.0040760859375
EXTRACT: aftertouch channel=7 value=0 time=0.024456515624999998
EXTRACT: note_on channel=6 note=62 velocity=0 time=0.023097820312499996
EXTRACT: note_on channel=7 note=43 velocity=0 time=0.013586953124999999
EXTRACT: note_on channel=9 note=70 velocity=0 time=0.024456515624999998
EXTRACT: note_on channel=6 note=67 velocity=0 time=0.09646736718749999
EXTRACT: note_on channel=6 note=65 velocity=104 time=0.07472824218749999
EXTRACT: note_on channel=7 note=34 velocity=115 time=0
EXTRACT: note_on channel=9 note=44 velocity=110 time=0
EXTRACT: note_on channel=9 note=36 velocity=114 time=0
EXTRACT: note_on channel=9 note=39 velocity=94 time=0
EXTRACT: note_on channel=9 note=40 velocity=104 time=0
EXTRACT: note_on channel=6 note=65 velocity=0 time=0.0883151953125
EXTRACT: control_change channel=6 control=64 value=0 time=0.006793476562499999
EXTRACT: note_on channel=6 note=60 velocity=0 time=0.0013586953124999999
EXTRACT: control_change channel=6 control=64 value=127 time=0.008152171875
EXTRACT: note_on channel=9 note=39 velocity=0 time=0.0013586953124999999
EXTRACT: control_change channel=6 control=64 value=0 time=0.0027173906249999998
EXTRACT: control_change channel=6 control=64 value=127 time=0.008152171875
EXTRACT: control_change channel=6 control=64 value=0 time=0.0040760859375
EXTRACT: note_on channel=9 note=36 velocity=0 time=0.0013586953124999999
EXTRACT: note_on channel=9 note=40 velocity=0 time=0.033967382812499995
EXTRACT: note_on channel=9 note=44 velocity=0 time=0.023097820312499996
EXTRACT: note_on channel=7 note=34 velocity=0 time=0.044836945312499994
EXTRACT: note_on channel=6 note=67 velocity=86 time=0.0366847734375
EXTRACT: note_on channel=6 note=62 velocity=104 time=0
EXTRACT: note_on channel=6 note=58 velocity=104 time=0
EXTRACT: note_on channel=7 note=39 velocity=127 time=0
EXTRACT: note_on channel=9 note=42 velocity=35 time=0
EXTRACT: note_on channel=9 note=42 velocity=0 time=0.0910325859375
EXTRACT: control_change channel=6 control=64 value=127 time=0.06385867968749999
EXTRACT: note_on channel=1 note=67 velocity=94 time=0.040760859375
EXTRACT: note_on channel=1 note=62 velocity=127 time=0.065217375
EXTRACT: note_on channel=1 note=55 velocity=94 time=0
EXTRACT: note_on channel=1 note=74 velocity=127 time=0
EXTRACT: note_on channel=9 note=44 velocity=110 time=0
EXTRACT: note_on channel=9 note=36 velocity=114 time=0
EXTRACT: note_on channel=1 note=67 velocity=0 time=0.044836945312499994
EXTRACT: note_on channel=7 note=39 velocity=0 time=0.0040760859375
EXTRACT: note_on channel=7 note=39 velocity=59 time=0.01630434375
EXTRACT: note_on channel=7 note=39 velocity=0 time=0.0203804296875
EXTRACT: note_on channel=1 note=55 velocity=0 time=0.024456515624999998
EXTRACT: note_on channel=9 note=36 velocity=0 time=0.0027173906249999998
EXTRACT: note_on channel=1 note=62 velocity=0 time=0.0013586953124999999
EXTRACT: note_on channel=1 note=74 velocity=0 time=0
EXTRACT: note_on channel=9 note=44 velocity=0 time=0.062499984375
EXTRACT: note_on channel=1 note=63 velocity=115 time=0.084239109375
EXTRACT: note_on channel=1 note=75 velocity=115 time=0
EXTRACT: note_on channel=7 note=51 velocity=127 time=0
EXTRACT: note_on channel=9 note=42 velocity=45 time=0
EXTRACT: note_on channel=7 note=51 velocity=0 time=0.044836945312499994
EXTRACT: note_on channel=1 note=75 velocity=0 time=0.06385867968749999
EXTRACT: note_on channel=1 note=63 velocity=0 time=0
EXTRACT: note_on channel=9 note=42 velocity=0 time=0.0203804296875
EXTRACT: note_on channel=1 note=62 velocity=127 time=0.13179344531249998
EXTRACT: note_on channel=1 note=74 velocity=127 time=0
EXTRACT: note_on channel=7 note=39 velocity=127 time=0
EXTRACT: note_on channel=9 note=44 velocity=110 time=0
EXTRACT: note_on channel=9 note=36 velocity=114 time=0
EXTRACT: note_on channel=9 note=40 velocity=115 time=0
EXTRACT: note_on channel=9 note=39 velocity=94 time=0
EXTRACT: note_on channel=6 note=58 velocity=0 time=0.028532601562499996
EXTRACT: note_on channel=6 note=67 velocity=0 time=0.013586953124999999
EXTRACT: note_on channel=6 note=62 velocity=0 time=0.0095108671875
EXTRACT: note_on channel=9 note=39 velocity=0 time=0.04619564062499999
EXTRACT: note_on channel=9 note=36 velocity=0 time=0.017663039062499997
EXTRACT: note_on channel=9 note=44 velocity=0 time=0.008152171875
EXTRACT: note_on channel=9 note=40 velocity=0 time=0.0013586953124999999
EXTRACT: note_on channel=1 note=74 velocity=0 time=0.0991847578125
EXTRACT: note_on channel=1 note=62 velocity=0 time=0
EXTRACT: note_on channel=1 note=58 velocity=104 time=0.0366847734375
EXTRACT: note_on channel=1 note=70 velocity=104 time=0
EXTRACT: note_on channel=9 note=42 velocity=53 time=0
EXTRACT: note_on channel=7 note=39 velocity=0 time=0.014945648437499999
EXTRACT: note_on channel=1 note=70 velocity=0 time=0.08967389062499999
EXTRACT: note_on channel=1 note=58 velocity=0 time=0
EXTRACT: note_on channel=9 note=42 velocity=0 time=0.017663039062499997
EXTRACT: note_on channel=7 note=43 velocity=127 time=0.008152171875
EXTRACT: control_change channel=6 control=64 value=0 time=0.0801630234375
EXTRACT: control_change channel=6 control=64 value=127 time=0.006793476562499999
EXTRACT: control_change channel=6 control=64 value=0 time=0.0040760859375
EXTRACT: note_on channel=7 note=43 velocity=0 time=0.008152171875
EXTRACT: note_on channel=1 note=60 velocity=127 time=0.0312499921875
EXTRACT: note_on channel=1 note=72 velocity=127 time=0
EXTRACT: note_on channel=6 note=55 velocity=115 time=0
EXTRACT: note_on channel=6 note=64 velocity=104 time=0
EXTRACT: note_on channel=6 note=60 velocity=115 time=0
EXTRACT: note_on channel=7 note=45 velocity=104 time=0
EXTRACT: note_on channel=9 note=36 velocity=114 time=0
EXTRACT: note_on channel=9 note=44 velocity=110 time=0
EXTRACT: note_on channel=7 note=45 velocity=0 time=0.12364127343749999
EXTRACT: note_on channel=9 note=36 velocity=0 time=0.0013586953124999999
EXTRACT: note_on channel=7 note=43 velocity=104 time=0.0054347812499999995
EXTRACT: note_on channel=9 note=44 velocity=0 time=0.062499984375
EXTRACT: note_on channel=7 note=43 velocity=0 time=0.05570650781249999
EXTRACT: note_on channel=7 note=45 velocity=115 time=0.012228257812499999
EXTRACT: note_on channel=9 note=42 velocity=53 time=0
EXTRACT: note_on channel=1 note=72 velocity=0 time=0.06793476562499999
EXTRACT: note_on channel=1 note=60 velocity=0 time=0
EXTRACT: note_on channel=9 note=42 velocity=0 time=0.0529891171875
EXTRACT: note_on channel=7 note=43 velocity=115 time=0.0095108671875
EXTRACT: note_on channel=7 note=45 velocity=0 time=0.0095108671875
EXTRACT: note_on channel=7 note=43 velocity=0 time=0.0801630234375
EXTRACT: note_on channel=1 note=60 velocity=104 time=0.040760859375
EXTRACT: note_on channel=1 note=72 velocity=104 time=0
EXTRACT: note_on channel=7 note=45 velocity=127 time=0
EXTRACT: note_on channel=9 note=36 velocity=114 time=0
EXTRACT: note_on channel=9 note=44 velocity=110 time=0
EXTRACT: note_on channel=9 note=39 velocity=94 time=0
EXTRACT: note_on channel=9 note=40 velocity=115 time=0
EXTRACT: control_change channel=6 control=64 value=127 time=0.0027173906249999998
EXTRACT: note_on channel=1 note=74 velocity=115 time=0.062499984375
EXTRACT: note_on channel=1 note=72 velocity=0 time=0.023097820312499996
EXTRACT: note_on channel=1 note=60 velocity=0 time=0
EXTRACT: note_on channel=9 note=36 velocity=0 time=0.013586953124999999
EXTRACT: note_on channel=9 note=39 velocity=0 time=0.0027173906249999998
EXTRACT: note_on channel=9 note=40 velocity=0 time=0.006793476562499999
EXTRACT: note_on channel=1 note=62 velocity=115 time=0.019021734375
EXTRACT: note_on channel=9 note=44 velocity=0 time=0.0692934609375
EXTRACT: note_on channel=7 note=45 velocity=0 time=0.0013586953124999999
EXTRACT: note_on channel=1 note=74 velocity=0 time=0.0312499921875
EXTRACT: note_on channel=6 note=55 velocity=0 time=0.0095108671875
EXTRACT: note_on channel=1 note=60 velocity=115 time=0.019021734375
EXTRACT: note_on channel=1 note=72 velocity=115 time=0
EXTRACT: note_on channel=9 note=42 velocity=33 time=0
EXTRACT: note_on channel=6 note=64 velocity=0 time=0.008152171875
EXTRACT: note_on channel=6 note=60 velocity=0 time=0.023097820312499996
EXTRACT: note_on channel=1 note=62 velocity=0 time=0.0054347812499999995
EXTRACT: note_on channel=7 note=41 velocity=127 time=0.09374997656249999
EXTRACT: note_on channel=1 note=72 velocity=0 time=0.0013586953124999999
EXTRACT: note_on channel=1 note=60 velocity=0 time=0
EXTRACT: note_on channel=9 note=42 velocity=0 time=0.0054347812499999995
EXTRACT: control_change channel=6 control=64 value=0 time=0.023097820312499996
EXTRACT: control_change channel=6 control=64 value=127 time=0.0095108671875
EXTRACT: control_change channel=6 control=64 value=0 time=0.0040760859375
EXTRACT: note_on channel=7 note=41 velocity=0 time=0.021739124999999998
EXTRACT: note_on channel=6 note=64 velocity=104 time=0.065217375
EXTRACT: note_on channel=6 note=55 velocity=104 time=0
EXTRACT: note_on channel=6 note=60 velocity=104 time=0
EXTRACT: note_on channel=7 note=46 velocity=127 time=0
EXTRACT: note_on channel=9 note=44 velocity=110 time=0
EXTRACT: note_on channel=9 note=36 velocity=115 time=0
EXTRACT: note_on channel=7 note=48 velocity=104 time=0.065217375
EXTRACT: note_on channel=9 note=36 velocity=0 time=0.027173906249999998
EXTRACT: note_on channel=7 note=46 velocity=0 time=0.0013586953124999999
EXTRACT: control_change channel=6 control=64 value=127 time=0.07472824218749999
EXTRACT: note_on channel=9 note=44 velocity=0 time=0.01630434375
EXTRACT: note_on channel=7 note=48 velocity=0 time=0.044836945312499994
EXTRACT: note_on channel=7 note=46 velocity=115 time=0.0312499921875
EXTRACT: note_on channel=9 note=42 velocity=33 time=0
EXTRACT: note_on channel=9 note=85 velocity=104 time=0
EXTRACT: note_on channel=9 note=39 velocity=53 time=0
EXTRACT: note_on channel=9 note=85 velocity=0 time=0.0910325859375
EXTRACT: note_on channel=7 note=46 velocity=0 time=0.0095108671875
EXTRACT: note_on channel=9 note=39 velocity=0 time=0.0095108671875
EXTRACT: note_on channel=9 note=42 velocity=0 time=0.010869562499999999
EXTRACT: note_on channel=6 note=55 velocity=0 time=0.105978234375
EXTRACT: note_on channel=6 note=64 velocity=0 time=0.019021734375
EXTRACT: note_on channel=6 note=60 velocity=0 time=0.006793476562499999
EXTRACT: note_on channel=7 note=41 velocity=127 time=0.008152171875
EXTRACT: note_on channel=9 note=44 velocity=110 time=0
EXTRACT: note_on channel=9 note=36 velocity=114 time=0
EXTRACT: note_on channel=9 note=39 velocity=104 time=0
EXTRACT: note_on channel=9 note=40 velocity=104 time=0
EXTRACT: note_on channel=9 note=39 velocity=0 time=0.0692934609375
EXTRACT: note_on channel=9 note=36 velocity=0 time=0.033967382812499995
EXTRACT: note_on channel=9 note=40 velocity=0 time=0.0013586953124999999
EXTRACT: note_on channel=9 note=44 velocity=0 time=0.058423898437499996
EXTRACT: note_on channel=7 note=43 velocity=127 time=0.09782606249999999
EXTRACT: note_on channel=9 note=42 velocity=33 time=0
EXTRACT: note_on channel=7 note=41 velocity=0 time=0.010869562499999999
EXTRACT: control_change channel=6 control=64 value=0 time=0.0774456328125
EXTRACT: control_change channel=6 control=64 value=127 time=0.008152171875
EXTRACT: control_change channel=6 control=64 value=0 time=0.0054347812499999995
EXTRACT: note_on channel=9 note=42 velocity=0 time=0.008152171875
EXTRACT: note_on channel=2 note=98 velocity=86 time=0.1508151796875
EXTRACT: note_on channel=6 note=58 velocity=104 time=0
EXTRACT: note_on channel=6 note=55 velocity=94 time=0
EXTRACT: note_on channel=6 note=65 velocity=94 time=0
EXTRACT: note_on channel=6 note=62 velocity=94 time=0
EXTRACT: note_on channel=7 note=31 velocity=115 time=0
EXTRACT: note_on channel=9 note=46 velocity=115 time=0
EXTRACT: note_on channel=9 note=36 velocity=110 time=0
EXTRACT: note_on channel=7 note=43 velocity=0 time=0.014945648437499999
EXTRACT: note_on channel=2 note=98 velocity=0 time=0.06114128906249999
EXTRACT: aftertouch channel=7 value=2 time=0.006793476562499999
EXTRACT: aftertouch channel=7 value=10 time=0.01630434375
EXTRACT: aftertouch channel=7 value=14 time=0.01630434375
EXTRACT: note_on channel=9 note=36 velocity=0 time=0.013586953124999999
EXTRACT: aftertouch channel=7 value=18 time=0.0013586953124999999
EXTRACT: aftertouch channel=7 value=16 time=0.029891296874999997
EXTRACT: aftertouch channel=7 value=14 time=0.019021734375
EXTRACT: aftertouch channel=7 value=8 time=0.013586953124999999
EXTRACT: control_change channel=6 control=64 value=127 time=0.0013586953124999999
EXTRACT: aftertouch channel=7 value=6 time=0.014945648437499999
EXTRACT: note_on channel=9 note=46 velocity=0 time=0
EXTRACT: note_on channel=7 note=31 velocity=0 time=0.0027173906249999998
EXTRACT: aftertouch channel=7 value=2 time=0.013586953124999999
EXTRACT: aftertouch channel=7 value=0 time=0.014945648437499999
EXTRACT: aftertouch channel=7 value=0 time=0.01630434375
EXTRACT: note_on channel=7 note=43 velocity=127 time=0.0040760859375
EXTRACT: note_on channel=9 note=70 velocity=37 time=0
EXTRACT: note_on channel=7 note=43 velocity=0 time=0.0529891171875
EXTRACT: note_on channel=9 note=70 velocity=0 time=0.0366847734375
EXTRACT: note_on channel=2 note=98 velocity=79 time=0.17119560937499997
EXTRACT: note_on channel=7 note=34 velocity=115 time=0
EXTRACT: note_on channel=9 note=44 velocity=110 time=0
EXTRACT: note_on channel=9 note=36 velocity=114 time=0
EXTRACT: note_on channel=9 note=39 velocity=94 time=0
EXTRACT: note_on channel=9 note=40 velocity=104 time=0
EXTRACT: control_change channel=6 control=64 value=0 time=0.06114128906249999
EXTRACT: control_change channel=6 control=64 value=127 time=0.006793476562499999
EXTRACT: note_on channel=2 note=98 velocity=0 time=0.0013586953124999999
EXTRACT: note_on channel=6 note=55 velocity=0 time=0.0027173906249999998
EXTRACT: control_change channel=6 control=64 value=0 time=0.0013586953124999999
EXTRACT: note_on channel=6 note=58 velocity=0 time=0.006793476562499999
EXTRACT: note_on channel=6 note=65 velocity=0 time=0.006793476562499999
EXTRACT: note_on channel=6 note=62 velocity=0 time=0.0095108671875
EXTRACT: note_on channel=9 note=39 velocity=0 time=0.0095108671875
EXTRACT: note_on channel=9 note=36 velocity=0 time=0.01630434375
EXTRACT: note_on channel=9 note=40 velocity=0 time=0.033967382812499995
EXTRACT: note_on channel=9 note=44 velocity=0 time=0.023097820312499996
EXTRACT: note_on channel=7 note=34 velocity=0 time=0.044836945312499994
EXTRACT: note_on channel=6 note=65 velocity=94 time=0.0366847734375
EXTRACT: note_on channel=6 note=55 velocity=79 time=0
EXTRACT: note_on channel=6 note=58 velocity=94 time=0
EXTRACT: note_on channel=6 note=62 velocity=104 time=0
EXTRACT: note_on channel=7 note=39 velocity=127 time=0
EXTRACT: note_on channel=9 note=42 velocity=35 time=0
EXTRACT: control_change channel=6 control=64 value=127 time=0.07472824218749999
EXTRACT: note_on channel=9 note=42 velocity=0 time=0.01630434375
EXTRACT: note_on channel=1 note=55 velocity=115 time=0.16983691406249998
EXTRACT: note_on channel=1 note=67 velocity=115 time=0
EXTRACT: note_on channel=2 note=98 velocity=79 time=0
EXTRACT: note_on channel=9 note=44 velocity=110 time=0
EXTRACT: note_on channel=9 note=36 velocity=114 time=0
EXTRACT: note_on channel=7 note=39 velocity=0 time=0.04619564062499999
EXTRACT: note_on channel=7 note=39 velocity=59 time=0.019021734375
EXTRACT: note_on channel=2 note=98 velocity=0 time=0.0054347812499999995
EXTRACT: note_on channel=7 note=39 velocity=0 time=0.012228257812499999
EXTRACT: note_on channel=9 note=36 velocity=0 time=0.029891296874999997
EXTRACT: note_on channel=1 note=67 velocity=0 time=0.012228257812499999
EXTRACT: note_on channel=1 note=55 velocity=0 time=0
EXTRACT: note_on channel=9 note=44 velocity=0 time=0.051630421875
EXTRACT: note_on channel=1 note=55 velocity=115 time=0.084239109375
EXTRACT: note_on channel=1 note=67 velocity=115 time=0
EXTRACT: note_on channel=7 note=51 velocity=127 time=0
EXTRACT: note_on channel=9 note=42 velocity=45 time=0
EXTRACT: note_on channel=7 note=51 velocity=0 time=0.050271726562499994
EXTRACT: note_on channel=9 note=42 velocity=0 time=0.07880432812499999
EXTRACT: note_on channel=1 note=67 velocity=0 time=0.0013586953124999999
EXTRACT: note_on channel=1 note=55 velocity=0 time=0
EXTRACT: note_on channel=1 note=58 velocity=127 time=0.13043475
EXTRACT: note_on channel=1 note=70 velocity=127 time=0
EXTRACT: note_on channel=2 note=98 velocity=68 time=0
EXTRACT: note_on channel=7 note=39 velocity=127 time=0
EXTRACT: note_on channel=9 note=44 velocity=110 time=0
EXTRACT: note_on channel=9 note=36 velocity=114 time=0
EXTRACT: note_on channel=9 note=40 velocity=115 time=0
EXTRACT: note_on channel=9 note=39 velocity=94 time=0
EXTRACT: note_on channel=2 note=98 velocity=0 time=0.06385867968749999
EXTRACT: note_on channel=9 note=39 velocity=0 time=0.033967382812499995
EXTRACT: note_on channel=9 note=36 velocity=0 time=0.017663039062499997
EXTRACT: note_on channel=9 note=44 velocity=0 time=0.008152171875
EXTRACT: note_on channel=9 note=40 velocity=0 time=0.0013586953124999999
EXTRACT: note_on channel=9 note=42 velocity=53 time=0.13586953124999998
EXTRACT: note_on channel=7 note=39 velocity=0 time=0.0760869375
EXTRACT: note_on channel=6 note=62 velocity=0 time=0.019021734375
EXTRACT: note_on channel=6 note=65 velocity=0 time=0.006793476562499999
EXTRACT: note_on channel=6 note=58 velocity=0 time=0.014945648437499999
EXTRACT: note_on channel=9 note=42 velocity=0 time=0.0054347812499999995
EXTRACT: note_on channel=1 note=70 velocity=0 time=0.0040760859375
EXTRACT: note_on channel=1 note=58 velocity=0 time=0
EXTRACT: note_on channel=1 note=55 velocity=104 time=0.0040760859375
EXTRACT: note_on channel=1 note=67 velocity=104 time=0
EXTRACT: note_on channel=7 note=39 velocity=104 time=0
EXTRACT: note_on channel=6 note=55 velocity=0 time=0.006793476562499999
EXTRACT: control_change channel=6 control=64 value=0 time=0.0095108671875
EXTRACT: control_change channel=6 control=64 value=127 time=0.006793476562499999
EXTRACT: control_change channel=6 control=64 value=0 time=0.0054347812499999995
EXTRACT: note_on channel=1 note=67 velocity=0 time=0.040760859375
EXTRACT: note_on channel=1 note=55 velocity=0 time=0
EXTRACT: note_on channel=7 note=39 velocity=0 time=0.0326086875
EXTRACT: note_on channel=1 note=62 velocity=127 time=0.028532601562499996
EXTRACT: note_on channel=1 note=74 velocity=127 time=0
EXTRACT: note_on channel=2 note=98 velocity=63 time=0
EXTRACT: note_on channel=6 note=62 velocity=104 time=0
EXTRACT: note_on channel=6 note=65 velocity=104 time=0
EXTRACT: note_on channel=6 note=57 velocity=94 time=0
EXTRACT: note_on channel=6 note=60 velocity=104 time=0
EXTRACT: note_on channel=7 note=41 velocity=127 time=0
EXTRACT: note_on channel=9 note=36 velocity=114 time=0
EXTRACT: note_on channel=9 note=44 velocity=110 time=0
EXTRACT: note_on channel=2 note=98 velocity=0 time=0.07472824218749999
EXTRACT: note_on channel=1 note=74 velocity=0 time=0.040760859375
EXTRACT: note_on channel=1 note=62 velocity=0 time=0
EXTRACT: note_on channel=9 note=36 velocity=0 time=0.0095108671875
EXTRACT: control_change channel=6 control=64 value=127 time=0.013586953124999999
EXTRACT: note_on channel=7 note=41 velocity=0 time=0.0040760859375
EXTRACT: note_on channel=9 note=44 velocity=0 time=0.050271726562499994
EXTRACT: note_on channel=1 note=62 velocity=127 time=0.06793476562499999
EXTRACT: note_on channel=1 note=74 velocity=127 time=0
EXTRACT: note_on channel=9 note=42 velocity=53 time=0
EXTRACT: note_on channel=1 note=74 velocity=0 time=0.1100543203125
EXTRACT: note_on channel=1 note=62 velocity=0 time=0
EXTRACT: note_on channel=9 note=42 velocity=0 time=0.010869562499999999
EXTRACT: note_on channel=1 note=60 velocity=127 time=0.13994561718749998
EXTRACT: note_on channel=1 note=72 velocity=127 time=0
EXTRACT: note_on channel=2 note=98 velocity=58 time=0
EXTRACT: note_on channel=7 note=41 velocity=127 time=0
EXTRACT: note_on channel=7 note=40 velocity=127 time=0
EXTRACT: note_on channel=9 note=36 velocity=114 time=0
EXTRACT: note_on channel=9 note=44 velocity=110 time=0
EXTRACT: note_on channel=9 note=39 velocity=94 time=0
EXTRACT: note_on channel=9 note=40 velocity=115 time=0
EXTRACT: note_on channel=7 note=40 velocity=0 time=0.0312499921875
EXTRACT: note_on channel=2 note=98 velocity=0 time=0.0312499921875
EXTRACT: note_on channel=1 note=74 velocity=115 time=0.0027173906249999998
EXTRACT: note_on channel=9 note=36 velocity=0 time=0.0366847734375
EXTRACT: note_on channel=1 note=72 velocity=0 time=0.0027173906249999998
EXTRACT: note_on channel=1 note=60 velocity=0 time=0
EXTRACT: note_on channel=9 note=39 velocity=0 time=0
EXTRACT: note_on channel=9 note=40 velocity=0 time=0.006793476562499999
EXTRACT: note_on channel=1 note=62 velocity=115 time=0.019021734375
EXTRACT: note_on channel=9 note=44 velocity=0 time=0.0692934609375
EXTRACT: note_on channel=1 note=74 velocity=0 time=0.0421195546875
EXTRACT: note_on channel=9 note=42 velocity=33 time=0.019021734375
EXTRACT: note_on channel=1 note=62 velocity=0 time=0.04619564062499999
EXTRACT: note_on channel=7 note=39 velocity=115 time=0.084239109375
EXTRACT: note_on channel=9 note=42 velocity=0 time=0.006793476562499999
EXTRACT: control_change channel=6 control=64 value=0 time=0.0054347812499999995
EXTRACT: note_on channel=6 note=57 velocity=0 time=0.0027173906249999998
EXTRACT: control_change channel=6 control=64 value=127 time=0.0027173906249999998
EXTRACT: note_on channel=6 note=65 velocity=0 time=0.0095108671875
EXTRACT: control_change channel=6 control=64 value=0 time=0.0013586953124999999
EXTRACT: note_on channel=6 note=62 velocity=0 time=0.006793476562499999
EXTRACT: note_on channel=6 note=60 velocity=0 time=0.008152171875
EXTRACT: note_on channel=7 note=41 velocity=0 time=0.0326086875
EXTRACT: note_on channel=7 note=39 velocity=0 time=0.03804346875
EXTRACT: note_on channel=2 note=98 velocity=53 time=0.01630434375
EXTRACT: note_on channel=6 note=57 velocity=86 time=0
EXTRACT: note_on channel=6 note=60 velocity=94 time=0
EXTRACT: note_on channel=6 note=62 velocity=94 time=0
EXTRACT: note_on channel=6 note=65 velocity=94 time=0
EXTRACT: note_on channel=7 note=38 velocity=127 time=0
EXTRACT: note_on channel=9 note=44 velocity=110 time=0
EXTRACT: note_on channel=9 note=36 velocity=115 time=0
EXTRACT: note_on channel=2 note=98 velocity=0 time=0.07472824218749999
EXTRACT: control_change channel=6 control=64 value=127 time=0.0027173906249999998
EXTRACT: note_on channel=7 note=38 velocity=0 time=0.0054347812499999995
EXTRACT: note_on channel=9 note=36 velocity=0 time=0.0095108671875
EXTRACT: note_on channel=9 note=44 velocity=0 time=0.09239128124999998
EXTRACT: note_on channel=7 note=38 velocity=127 time=0.0760869375
EXTRACT: note_on channel=9 note=42 velocity=33 time=0
EXTRACT: note_on channel=9 note=85 velocity=104 time=0
EXTRACT: note_on channel=9 note=39 velocity=53 time=0
EXTRACT: note_on channel=7 note=38 velocity=0 time=0.08967389062499999
EXTRACT: note_on channel=9 note=85 velocity=0 time=0.0013586953124999999
EXTRACT: note_on channel=9 note=39 velocity=0 time=0.019021734375
EXTRACT: note_on channel=9 note=42 velocity=0 time=0.010869562499999999
EXTRACT: note_on channel=2 note=98 velocity=48 time=0.13994561718749998
EXTRACT: note_on channel=7 note=38 velocity=127 time=0
EXTRACT: note_on channel=9 note=44 velocity=110 time=0
EXTRACT: note_on channel=9 note=36 velocity=114 time=0
EXTRACT: note_on channel=9 note=39 velocity=104 time=0
EXTRACT: note_on channel=9 note=40 velocity=104 time=0
EXTRACT: note_on channel=2 note=98 velocity=0 time=0.058423898437499996
EXTRACT: note_on channel=9 note=39 velocity=0 time=0.010869562499999999
EXTRACT: note_on channel=6 note=57 velocity=0 time=0.0040760859375
EXTRACT: note_on channel=9 note=36 velocity=0 time=0.029891296874999997
EXTRACT: note_on channel=9 note=40 velocity=0 time=0.0013586953124999999
EXTRACT: note_on channel=6 note=65 velocity=0 time=0.008152171875
EXTRACT: note_on channel=6 note=60 velocity=0 time=0.0054347812499999995
EXTRACT: note_on channel=6 note=62 velocity=0 time=0.010869562499999999
EXTRACT: note_on channel=9 note=44 velocity=0 time=0.033967382812499995
EXTRACT: note_on channel=7 note=36 velocity=127 time=0.09782606249999999
EXTRACT: note_on channel=9 note=42 velocity=33 time=0
EXTRACT: note_on channel=7 note=38 velocity=0 time=0.0027173906249999998
EXTRACT: note_on channel=9 note=42 velocity=0 time=0.10733692968749999
EXTRACT: note_on channel=7 note=36 velocity=0 time=0.010869562499999999
EXTRACT: note_on channel=7 note=38 velocity=127 time=0.0095108671875
EXTRACT: control_change channel=6 control=64 value=0 time=0.08695649999999999
EXTRACT: control_change channel=6 control=64 value=127 time=0.0013586953124999999
EXTRACT: control_change channel=6 control=64 value=0 time=0.006793476562499999
EXTRACT: note_on channel=7 note=38 velocity=0 time=0.023097820312499996
EXTRACT: note_on channel=6 note=69 velocity=104 time=0.012228257812499999
EXTRACT: note_on channel=6 note=60 velocity=94 time=0
EXTRACT: note_on channel=6 note=62 velocity=94 time=0
EXTRACT: note_on channel=7 note=31 velocity=115 time=0
EXTRACT: note_on channel=9 note=46 velocity=115 time=0
EXTRACT: note_on channel=9 note=36 velocity=110 time=0
EXTRACT: aftertouch channel=7 value=2 time=0.095108671875
EXTRACT: aftertouch channel=7 value=10 time=0.01630434375
EXTRACT: aftertouch channel=7 value=14 time=0.01630434375
EXTRACT: note_on channel=9 note=36 velocity=0 time=0.0013586953124999999
EXTRACT: control_change channel=6 control=64 value=127 time=0.023097820312499996
EXTRACT: aftertouch channel=7 value=12 time=0.039402164062499995
EXTRACT: aftertouch channel=7 value=6 time=0.014945648437499999
EXTRACT: note_on channel=9 note=46 velocity=0 time=0.0027173906249999998
EXTRACT: note_on channel=6 note=69 velocity=0 time=0.0013586953124999999
EXTRACT: aftertouch channel=7 value=4 time=0.012228257812499999
EXTRACT: aftertouch channel=7 value=0 time=0.01630434375
EXTRACT: aftertouch channel=7 value=0 time=0.01630434375
EXTRACT: note_on channel=7 note=31 velocity=0 time=0.0027173906249999998
EXTRACT: note_on channel=6 note=67 velocity=73 time=0.0027173906249999998
EXTRACT: note_on channel=7 note=43 velocity=127 time=0
EXTRACT: note_on channel=9 note=70 velocity=37 time=0
EXTRACT: note_on channel=6 note=62 velocity=0 time=0.051630421875
EXTRACT: note_on channel=7 note=43 velocity=0 time=0.0027173906249999998
EXTRACT: note_on channel=9 note=70 velocity=0 time=0.03532607812499999
EXTRACT: note_on channel=6 note=67 velocity=0 time=0.09646736718749999
EXTRACT: note_on channel=6 note=65 velocity=104 time=0.07472824218749999
EXTRACT: note_on channel=7 note=34 velocity=127 time=0
EXTRACT: note_on channel=9 note=44 velocity=110 time=0
EXTRACT: note_on channel=9 note=36 velocity=114 time=0
EXTRACT: note_on channel=9 note=39 velocity=94 time=0
EXTRACT: note_on channel=9 note=40 velocity=104 time=0
EXTRACT: note_on channel=6 note=65 velocity=0 time=0.0883151953125
EXTRACT: control_change channel=6 control=64 value=0 time=0.006793476562499999
EXTRACT: note_on channel=6 note=60 velocity=0 time=0.0013586953124999999
EXTRACT: control_change channel=6 control=64 value=127 time=0.008152171875
EXTRACT: note_on channel=9 note=39 velocity=0 time=0.0013586953124999999
EXTRACT: control_change channel=6 control=64 value=0 time=0.0027173906249999998
EXTRACT: control_change channel=6 control=64 value=127 time=0.008152171875
EXTRACT: control_change channel=6 control=64 value=0 time=0.0040760859375
EXTRACT: note_on channel=9 note=36 velocity=0 time=0.0013586953124999999
EXTRACT: note_on channel=9 note=40 velocity=0 time=0.033967382812499995
EXTRACT: note_on channel=9 note=44 velocity=0 time=0.023097820312499996
EXTRACT: note_on channel=7 note=34 velocity=0 time=0.0529891171875
EXTRACT: note_on channel=6 note=67 velocity=86 time=0.028532601562499996
EXTRACT: note_on channel=6 note=62 velocity=104 time=0
EXTRACT: note_on channel=6 note=58 velocity=104 time=0
EXTRACT: note_on channel=7 note=39 velocity=127 time=0
EXTRACT: note_on channel=9 note=42 velocity=35 time=0
EXTRACT: note_on channel=9 note=42 velocity=0 time=0.0910325859375
EXTRACT: note_on channel=1 note=67 velocity=104 time=0.039402164062499995
EXTRACT: control_change channel=6 control=64 value=127 time=0.024456515624999998
EXTRACT: note_on channel=1 note=67 velocity=0 time=0.084239109375
EXTRACT: note_on channel=1 note=62 velocity=115 time=0.021739124999999998
EXTRACT: note_on channel=1 note=74 velocity=115 time=0
EXTRACT: note_on channel=9 note=44 velocity=110 time=0
EXTRACT: note_on channel=9 note=36 velocity=114 time=0
EXTRACT: note_on channel=7 note=39 velocity=0 time=0.0326086875
EXTRACT: note_on channel=7 note=39 velocity=59 time=0.0326086875
EXTRACT: note_on channel=7 note=39 velocity=0 time=0.01630434375
EXTRACT: note_on channel=1 note=74 velocity=0 time=0.027173906249999998
EXTRACT: note_on channel=1 note=62 velocity=0 time=0
EXTRACT: note_on channel=9 note=36 velocity=0 time=0.0040760859375
EXTRACT: note_on channel=9 note=44 velocity=0 time=0.06385867968749999
EXTRACT: note_on channel=1 note=63 velocity=104 time=0.084239109375
EXTRACT: note_on channel=1 note=75 velocity=104 time=0
EXTRACT: note_on channel=7 note=51 velocity=127 time=0
EXTRACT: note_on channel=9 note=42 velocity=45 time=0
EXTRACT: note_on channel=7 note=51 velocity=0 time=0.04619564062499999
EXTRACT: note_on channel=1 note=75 velocity=0 time=0.03804346875
EXTRACT: note_on channel=1 note=63 velocity=0 time=0
EXTRACT: note_on channel=9 note=42 velocity=0 time=0.044836945312499994
EXTRACT: note_on channel=1 note=62 velocity=127 time=0.13179344531249998
EXTRACT: note_on channel=1 note=74 velocity=127 time=0
EXTRACT: note_on channel=7 note=39 velocity=127 time=0
EXTRACT: note_on channel=9 note=44 velocity=110 time=0
EXTRACT: note_on channel=9 note=36 velocity=114 time=0
EXTRACT: note_on channel=9 note=40 velocity=115 time=0
EXTRACT: note_on channel=9 note=39 velocity=94 time=0
EXTRACT: note_on channel=6 note=58 velocity=0 time=0.028532601562499996
EXTRACT: note_on channel=6 note=67 velocity=0 time=0.013586953124999999
EXTRACT: note_on channel=6 note=62 velocity=0 time=0.0095108671875
EXTRACT: note_on channel=9 note=39 velocity=0 time=0.04619564062499999
EXTRACT: note_on channel=9 note=36 velocity=0 time=0.017663039062499997
EXTRACT: note_on channel=9 note=44 velocity=0 time=0.008152171875
EXTRACT: note_on channel=9 note=40 velocity=0 time=0.0013586953124999999
EXTRACT: note_on channel=1 note=74 velocity=0 time=0.0760869375
EXTRACT: note_on channel=1 note=62 velocity=0 time=0
EXTRACT: note_on channel=1 note=58 velocity=104 time=0.059782593749999995
EXTRACT: note_on channel=1 note=70 velocity=104 time=0
EXTRACT: note_on channel=9 note=42 velocity=53 time=0
EXTRACT: note_on channel=7 note=39 velocity=0 time=0.03532607812499999
EXTRACT: note_on channel=1 note=70 velocity=0 time=0.065217375
EXTRACT: note_on channel=1 note=58 velocity=0 time=0
EXTRACT: note_on channel=9 note=42 velocity=0 time=0.021739124999999998
EXTRACT: note_on channel=7 note=43 velocity=127 time=0.008152171875
EXTRACT: control_change channel=6 control=64 value=0 time=0.0801630234375
EXTRACT: control_change channel=6 control=64 value=127 time=0.006793476562499999
EXTRACT: control_change channel=6 control=64 value=0 time=0.0040760859375
EXTRACT: note_on channel=7 note=43 velocity=0 time=0.01630434375
EXTRACT: note_on channel=1 note=60 velocity=127 time=0.023097820312499996
EXTRACT: note_on channel=1 note=72 velocity=127 time=0
EXTRACT: note_on channel=6 note=55 velocity=115 time=0
EXTRACT: note_on channel=6 note=64 velocity=104 time=0
EXTRACT: note_on channel=6 note=60 velocity=115 time=0
EXTRACT: note_on channel=7 note=45 velocity=115 time=0
EXTRACT: note_on channel=9 note=36 velocity=114 time=0
EXTRACT: note_on channel=9 note=44 velocity=110 time=0
EXTRACT: note_on channel=9 note=36 velocity=0 time=0.12499996875
EXTRACT: note_on channel=7 note=45 velocity=0 time=0.0027173906249999998
EXTRACT: note_on channel=7 note=43 velocity=115 time=0.0027173906249999998
EXTRACT: note_on channel=9 note=44 velocity=0 time=0.062499984375
EXTRACT: note_on channel=7 note=43 velocity=0 time=0.05570650781249999
EXTRACT: note_on channel=7 note=45 velocity=115 time=0.012228257812499999
EXTRACT: note_on channel=9 note=42 velocity=53 time=0
EXTRACT: note_on channel=1 note=72 velocity=0 time=0.09646736718749999
EXTRACT: note_on channel=1 note=60 velocity=0 time=0
EXTRACT: note_on channel=9 note=42 velocity=0 time=0.024456515624999998
EXTRACT: note_on channel=7 note=43 velocity=115 time=0.0095108671875
EXTRACT: note_on channel=7 note=45 velocity=0 time=0.0013586953124999999
EXTRACT: note_on channel=7 note=43 velocity=0 time=0.1209238828125
EXTRACT: note_on channel=1 note=60 velocity=115 time=0.008152171875
EXTRACT: note_on channel=1 note=72 velocity=115 time=0
EXTRACT: note_on channel=7 note=45 velocity=127 time=0
EXTRACT: note_on channel=9 note=36 velocity=114 time=0
EXTRACT: note_on channel=9 note=44 velocity=110 time=0
EXTRACT: note_on channel=9 note=39 velocity=94 time=0
EXTRACT: note_on channel=9 note=40 velocity=115 time=0
EXTRACT: control_change channel=6 control=64 value=127 time=0.0027173906249999998
EXTRACT: note_on channel=1 note=74 velocity=104 time=0.062499984375
EXTRACT: note_on channel=1 note=72 velocity=0 time=0.017663039062499997
EXTRACT: note_on channel=1 note=60 velocity=0 time=0
EXTRACT: note_on channel=9 note=36 velocity=0 time=0.019021734375
EXTRACT: note_on channel=9 note=39 velocity=0 time=0.0027173906249999998
EXTRACT: note_on channel=9 note=40 velocity=0 time=0.006793476562499999
EXTRACT: note_on channel=1 note=62 velocity=104 time=0.019021734375
EXTRACT: note_on channel=7 note=45 velocity=0 time=0.054347812499999995
EXTRACT: note_on channel=9 note=44 velocity=0 time=0.014945648437499999
EXTRACT: note_on channel=1 note=74 velocity=0 time=0.008152171875
EXTRACT: note_on channel=6 note=55 velocity=0 time=0.033967382812499995
EXTRACT: note_on channel=1 note=60 velocity=94 time=0.019021734375
EXTRACT: note_on channel=1 note=72 velocity=94 time=0
EXTRACT: note_on channel=9 note=42 velocity=33 time=0
EXTRACT: note_on channel=6 note=64 velocity=0 time=0.008152171875
EXTRACT: note_on channel=1 note=62 velocity=0 time=0.0040760859375
EXTRACT: note_on channel=6 note=60 velocity=0 time=0.019021734375
EXTRACT: note_on channel=1 note=72 velocity=0 time=0.08152171875
EXTRACT: note_on channel=1 note=60 velocity=0 time=0
EXTRACT: note_on channel=7 note=43 velocity=127 time=0.017663039062499997
EXTRACT: note_on channel=9 note=42 velocity=0 time=0.006793476562499999
EXTRACT: control_change channel=6 control=64 value=0 time=0.023097820312499996
EXTRACT: control_change channel=6 control=64 value=127 time=0.0095108671875
EXTRACT: control_change channel=6 control=64 value=0 time=0.0040760859375
EXTRACT: note_on channel=7 note=43 velocity=0 time=0.023097820312499996
EXTRACT: note_on channel=6 note=64 velocity=104 time=0.06385867968749999
EXTRACT: note_on channel=6 note=55 velocity=104 time=0
EXTRACT: note_on channel=6 note=60 velocity=104 time=0
EXTRACT: note_on channel=7 note=47 velocity=94 time=0
EXTRACT: note_on channel=7 note=45 velocity=127 time=0
EXTRACT: note_on channel=9 note=44 velocity=110 time=0
EXTRACT: note_on channel=9 note=36 velocity=115 time=0
EXTRACT: note_on channel=7 note=47 velocity=0 time=0.0258152109375
EXTRACT: note_on channel=9 note=36 velocity=0 time=0.0665760703125
EXTRACT: note_on channel=7 note=45 velocity=0 time=0.027173906249999998
EXTRACT: control_change channel=6 control=64 value=127 time=0.048913031249999996
EXTRACT: note_on channel=9 note=44 velocity=0 time=0.01630434375
EXTRACT: note_on channel=7 note=38 velocity=127 time=0.0760869375
EXTRACT: note_on channel=9 note=42 velocity=33 time=0
EXTRACT: note_on channel=9 note=85 velocity=104 time=0
EXTRACT: note_on channel=9 note=39 velocity=53 time=0
EXTRACT: note_on channel=9 note=85 velocity=0 time=0.0910325859375
EXTRACT: note_on channel=9 note=39 velocity=0 time=0.019021734375
EXTRACT: note_on channel=9 note=42 velocity=0 time=0.010869562499999999
EXTRACT: note_on channel=6 note=55 velocity=0 time=0.105978234375
EXTRACT: note_on channel=6 note=64 velocity=0 time=0.019021734375
EXTRACT: note_on channel=7 note=38 velocity=0 time=0
EXTRACT: note_on channel=6 note=60 velocity=0 time=0.006793476562499999
EXTRACT: note_on channel=7 note=41 velocity=127 time=0.008152171875
EXTRACT: note_on channel=9 note=44 velocity=110 time=0
EXTRACT: note_on channel=9 note=36 velocity=114 time=0
EXTRACT: note_on channel=9 note=39 velocity=104 time=0
EXTRACT: note_on channel=9 note=40 velocity=104 time=0
EXTRACT: note_on channel=9 note=39 velocity=0 time=0.0692934609375
EXTRACT: note_on channel=9 note=36 velocity=0 time=0.033967382812499995
EXTRACT: note_on channel=9 note=40 velocity=0 time=0.0013586953124999999
EXTRACT: note_on channel=9 note=44 velocity=0 time=0.058423898437499996
EXTRACT: note_on channel=7 note=41 velocity=0 time=0.0475543359375
EXTRACT: note_on channel=7 note=43 velocity=115 time=0.050271726562499994
EXTRACT: note_on channel=9 note=42 velocity=33 time=0
EXTRACT: control_change channel=6 control=64 value=0 time=0.0883151953125
EXTRACT: control_change channel=6 control=64 value=127 time=0.008152171875
EXTRACT: control_change channel=6 control=64 value=0 time=0.0054347812499999995
EXTRACT: note_on channel=9 note=42 velocity=0 time=0.008152171875
EXTRACT: note_on channel=6 note=65 velocity=94 time=0.1508151796875
EXTRACT: note_on channel=6 note=62 velocity=94 time=0
EXTRACT: note_on channel=6 note=58 velocity=104 time=0
EXTRACT: note_on channel=6 note=55 velocity=94 time=0
EXTRACT: note_on channel=7 note=39 velocity=115 time=0
EXTRACT: note_on channel=9 note=44 velocity=115 time=0
EXTRACT: note_on channel=9 note=36 velocity=110 time=0
EXTRACT: note_on channel=7 note=43 velocity=0 time=0.03804346875
EXTRACT: note_on channel=9 note=36 velocity=0 time=0.0910325859375
EXTRACT: note_on channel=9 note=44 velocity=0 time=0.0801630234375
EXTRACT: note_on channel=7 note=51 velocity=115 time=0.051630421875
EXTRACT: note_on channel=9 note=42 velocity=52 time=0
EXTRACT: note_on channel=7 note=39 velocity=0 time=0.017663039062499997
EXTRACT: note_on channel=9 note=42 velocity=0 time=0.07201085156249999
EXTRACT: note_on channel=7 note=51 velocity=0 time=0.17119560937499997
EXTRACT: note_on channel=7 note=39 velocity=115 time=0
EXTRACT: note_on channel=9 note=44 velocity=110 time=0
EXTRACT: note_on channel=9 note=36 velocity=114 time=0
EXTRACT: note_on channel=9 note=39 velocity=94 time=0
EXTRACT: note_on channel=9 note=40 velocity=104 time=0
EXTRACT: note_on channel=9 note=39 velocity=0 time=0.105978234375
EXTRACT: note_on channel=9 note=36 velocity=0 time=0.01630434375
EXTRACT: note_on channel=9 note=40 velocity=0 time=0.033967382812499995
EXTRACT: note_on channel=9 note=44 velocity=0 time=0.023097820312499996
EXTRACT: note_on channel=7 note=39 velocity=0 time=0.012228257812499999
EXTRACT: note_on channel=7 note=39 velocity=115 time=0.0692934609375
EXTRACT: note_on channel=9 note=42 velocity=35 time=0
EXTRACT: note_on channel=9 note=42 velocity=0 time=0.0910325859375
EXTRACT: note_on channel=7 note=39 velocity=0 time=0.152173875
EXTRACT: note_on channel=7 note=39 velocity=55 time=0.017663039062499997
EXTRACT: note_on channel=9 note=44 velocity=110 time=0
EXTRACT: note_on channel=9 note=36 velocity=114 time=0
EXTRACT: note_on channel=7 note=39 velocity=0 time=0.019021734375
EXTRACT: note_on channel=9 note=36 velocity=0 time=0.09374997656249999
EXTRACT: note_on channel=9 note=44 velocity=0 time=0.06385867968749999
EXTRACT: note_on channel=9 note=42 velocity=45 time=0.084239109375
EXTRACT: note_on channel=9 note=42 velocity=0 time=0.1290760546875
EXTRACT: note_on channel=9 note=44 velocity=110 time=0.13179344531249998
EXTRACT: note_on channel=9 note=36 velocity=114 time=0
EXTRACT: note_on channel=9 note=40 velocity=115 time=0
EXTRACT: note_on channel=9 note=39 velocity=94 time=0
EXTRACT: note_on channel=9 note=39 velocity=0 time=0.09782606249999999
EXTRACT: note_on channel=9 note=36 velocity=0 time=0.017663039062499997
EXTRACT: note_on channel=9 note=44 velocity=0 time=0.008152171875
EXTRACT: note_on channel=9 note=40 velocity=0 time=0.0013586953124999999
EXTRACT: note_on channel=9 note=42 velocity=53 time=0.13586953124999998
EXTRACT: note_on channel=9 note=42 velocity=0 time=0.12228257812499999
EXTRACT: note_on channel=7 note=39 velocity=115 time=0.008152171875
EXTRACT: note_on channel=6 note=58 velocity=0 time=0.0040760859375
EXTRACT: note_on channel=6 note=55 velocity=0 time=0.006793476562499999
EXTRACT: note_on channel=6 note=62 velocity=0 time=0.010869562499999999
EXTRACT: note_on channel=6 note=65 velocity=0 time=0.006793476562499999
EXTRACT: note_on channel=7 note=39 velocity=0 time=0.050271726562499994
EXTRACT: note_on channel=6 note=60 velocity=94 time=0.051630421875
EXTRACT: note_on channel=6 note=62 velocity=86 time=0
EXTRACT: note_on channel=6 note=65 velocity=94 time=0
EXTRACT: note_on channel=6 note=57 velocity=94 time=0
EXTRACT: note_on channel=7 note=41 velocity=127 time=0
EXTRACT: note_on channel=9 note=36 velocity=114 time=0
EXTRACT: note_on channel=9 note=44 velocity=110 time=0
EXTRACT: note_on channel=9 note=36 velocity=0 time=0.12499996875
EXTRACT: note_on channel=7 note=41 velocity=0 time=0.014945648437499999
EXTRACT: note_on channel=9 note=44 velocity=0 time=0.0529891171875
EXTRACT: note_on channel=9 note=42 velocity=53 time=0.06793476562499999
EXTRACT: note_on channel=9 note=42 velocity=0 time=0.1209238828125
EXTRACT: note_on channel=7 note=41 velocity=127 time=0.13994561718749998
EXTRACT: note_on channel=9 note=36 velocity=114 time=0
EXTRACT: note_on channel=9 note=44 velocity=110 time=0
EXTRACT: note_on channel=9 note=39 velocity=94 time=0
EXTRACT: note_on channel=9 note=40 velocity=115 time=0
EXTRACT: note_on channel=9 note=36 velocity=0 time=0.10190214843749999
EXTRACT: note_on channel=9 note=39 velocity=0 time=0.0027173906249999998
EXTRACT: note_on channel=9 note=40 velocity=0 time=0.006793476562499999
EXTRACT: note_on channel=9 note=44 velocity=0 time=0.0883151953125
EXTRACT: note_on channel=9 note=42 velocity=33 time=0.06114128906249999
EXTRACT: note_on channel=7 note=39 velocity=104 time=0.13043475
EXTRACT: note_on channel=9 note=42 velocity=0 time=0.006793476562499999
EXTRACT: note_on channel=7 note=41 velocity=0 time=0.058423898437499996
EXTRACT: note_on channel=7 note=39 velocity=0 time=0.044836945312499994
EXTRACT: note_on channel=7 note=38 velocity=127 time=0.0203804296875
EXTRACT: note_on channel=9 note=44 velocity=110 time=0
EXTRACT: note_on channel=9 note=36 velocity=115 time=0
EXTRACT: note_on channel=7 note=38 velocity=0 time=0.08967389062499999
EXTRACT: note_on channel=9 note=36 velocity=0 time=0.0027173906249999998
EXTRACT: note_on channel=9 note=44 velocity=0 time=0.09239128124999998
EXTRACT: note_on channel=7 note=38 velocity=127 time=0.0760869375
EXTRACT: note_on channel=9 note=42 velocity=33 time=0
EXTRACT: note_on channel=9 note=85 velocity=104 time=0
EXTRACT: note_on channel=9 note=39 velocity=53 time=0
EXTRACT: note_on channel=7 note=38 velocity=0 time=0.0774456328125
EXTRACT: note_on channel=9 note=85 velocity=0 time=0.013586953124999999
EXTRACT: note_on channel=9 note=39 velocity=0 time=0.019021734375
EXTRACT: note_on channel=9 note=42 velocity=0 time=0.010869562499999999
EXTRACT: note_on channel=7 note=38 velocity=127 time=0.13994561718749998
EXTRACT: note_on channel=9 note=44 velocity=110 time=0
EXTRACT: note_on channel=9 note=36 velocity=114 time=0
EXTRACT: note_on channel=9 note=39 velocity=104 time=0
EXTRACT: note_on channel=9 note=40 velocity=104 time=0
EXTRACT: note_on channel=9 note=39 velocity=0 time=0.0692934609375
EXTRACT: note_on channel=9 note=36 velocity=0 time=0.033967382812499995
EXTRACT: note_on channel=9 note=40 velocity=0 time=0.0013586953124999999
EXTRACT: note_on channel=9 note=44 velocity=0 time=0.058423898437499996
EXTRACT: note_on channel=7 note=36 velocity=127 time=0.09782606249999999
EXTRACT: note_on channel=9 note=42 velocity=33 time=0
EXTRACT: note_on channel=7 note=38 velocity=0 time=0.0095108671875
EXTRACT: note_on channel=6 note=65 velocity=0 time=0.0529891171875
EXTRACT: note_on channel=6 note=57 velocity=0 time=0.021739124999999998
EXTRACT: note_on channel=6 note=60 velocity=0 time=0.0013586953124999999
EXTRACT: note_on channel=6 note=62 velocity=0 time=0.008152171875
EXTRACT: note_on channel=9 note=42 velocity=0 time=0.01630434375
EXTRACT: note_on channel=7 note=36 velocity=0 time=0.0040760859375
EXTRACT: note_on channel=7 note=38 velocity=127 time=0.01630434375
EXTRACT: note_on channel=6 note=62 velocity=94 time=0.13043475
EXTRACT: note_on channel=6 note=58 velocity=115 time=0
EXTRACT: note_on channel=6 note=55 velocity=86 time=0
EXTRACT: note_on channel=7 note=31 velocity=115 time=0
EXTRACT: note_on channel=9 note=44 velocity=115 time=0
EXTRACT: note_on channel=9 note=36 velocity=110 time=0
EXTRACT: note_on channel=7 note=38 velocity=0 time=0.017663039062499997
EXTRACT: aftertouch channel=7 value=2 time=0.0910325859375
EXTRACT: aftertouch channel=7 value=4 time=0.01630434375
EXTRACT: note_on channel=9 note=36 velocity=0 time=0.0040760859375
EXTRACT: aftertouch channel=7 value=6 time=0.012228257812499999
EXTRACT: aftertouch channel=7 value=4 time=0.0312499921875
EXTRACT: aftertouch channel=7 value=0 time=0.0326086875
EXTRACT: note_on channel=9 note=44 velocity=0 time=0.0040760859375
EXTRACT: aftertouch channel=7 value=0 time=0.012228257812499999
EXTRACT: note_on channel=7 note=31 velocity=0 time=0.029891296874999997
EXTRACT: note_on channel=7 note=43 velocity=127 time=0.0095108671875
EXTRACT: note_on channel=9 note=42 velocity=52 time=0
EXTRACT: note_on channel=9 note=42 velocity=0 time=0.08967389062499999
EXTRACT: note_on channel=7 note=43 velocity=0 time=0.1562499609375
EXTRACT: note_on channel=7 note=31 velocity=115 time=0.014945648437499999
EXTRACT: note_on channel=9 note=44 velocity=110 time=0
EXTRACT: note_on channel=9 note=36 velocity=114 time=0
EXTRACT: note_on channel=9 note=39 velocity=94 time=0
EXTRACT: note_on channel=9 note=40 velocity=104 time=0
EXTRACT: note_on channel=9 note=39 velocity=0 time=0.105978234375
EXTRACT: aftertouch channel=7 value=2 time=0.008152171875
EXTRACT: note_on channel=9 note=36 velocity=0 time=0.008152171875
EXTRACT: note_on channel=9 note=40 velocity=0 time=0.033967382812499995
EXTRACT: aftertouch channel=7 value=0 time=0.0027173906249999998
EXTRACT: note_on channel=7 note=31 velocity=0 time=0.008152171875
EXTRACT: note_on channel=9 note=44 velocity=0 time=0.012228257812499999
EXTRACT: note_on channel=7 note=31 velocity=115 time=0.08152171875
EXTRACT: note_on channel=9 note=42 velocity=35 time=0
EXTRACT: note_on channel=9 note=42 velocity=0 time=0.0910325859375
EXTRACT: aftertouch channel=7 value=8 time=0.008152171875
EXTRACT: aftertouch channel=7 value=14 time=0.014945648437499999
EXTRACT: aftertouch channel=7 value=22 time=0.01630434375
EXTRACT: aftertouch channel=7 value=24 time=0.01630434375
EXTRACT: aftertouch channel=7 value=18 time=0.04619564062499999
EXTRACT: aftertouch channel=7 value=14 time=0.01630434375
EXTRACT: aftertouch channel=7 value=10 time=0.014945648437499999
EXTRACT: aftertouch channel=7 value=6 time=0.01630434375
EXTRACT: note_on channel=7 note=31 velocity=0 time=0.013586953124999999
EXTRACT: aftertouch channel=7 value=2 time=0.0027173906249999998
EXTRACT: note_on channel=9 note=44 velocity=110 time=0.0040760859375
EXTRACT: note_on channel=9 note=36 velocity=114 time=0
EXTRACT: aftertouch channel=7 value=0 time=0.0203804296875
EXTRACT: aftertouch channel=7 value=0 time=0.013586953124999999
EXTRACT: note_on channel=9 note=36 velocity=0 time=0.07880432812499999
EXTRACT: note_on channel=9 note=44 velocity=0 time=0.06385867968749999
EXTRACT: note_on channel=9 note=42 velocity=45 time=0.084239109375
EXTRACT: note_on channel=9 note=42 velocity=0 time=0.1290760546875
EXTRACT: note_on channel=9 note=44 velocity=110 time=0.13179344531249998
EXTRACT: note_on channel=9 note=36 velocity=114 time=0
EXTRACT: note_on channel=9 note=40 velocity=115 time=0
EXTRACT: note_on channel=9 note=39 velocity=94 time=0
EXTRACT: note_on channel=9 note=39 velocity=0 time=0.09782606249999999
EXTRACT: note_on channel=9 note=36 velocity=0 time=0.017663039062499997
EXTRACT: note_on channel=9 note=44 velocity=0 time=0.008152171875
EXTRACT: note_on channel=9 note=40 velocity=0 time=0.0013586953124999999
EXTRACT: note_on channel=7 note=41 velocity=127 time=0.13586953124999998
EXTRACT: note_on channel=9 note=42 velocity=53 time=0
EXTRACT: note_on channel=7 note=41 velocity=0 time=0.1100543203125
EXTRACT: note_on channel=9 note=42 velocity=0 time=0.012228257812499999
EXTRACT: note_on channel=7 note=43 velocity=94 time=0.008152171875
EXTRACT: note_on channel=7 note=43 velocity=0 time=0.11413040624999998
EXTRACT: note_on channel=7 note=31 velocity=104 time=0.01630434375
EXTRACT: note_on channel=9 note=36 velocity=114 time=0
EXTRACT: note_on channel=9 note=44 velocity=110 time=0
EXTRACT: note_on channel=7 note=31 velocity=0 time=0.11684779687499999
EXTRACT: note_on channel=9 note=36 velocity=0 time=0.008152171875
EXTRACT: note_on channel=7 note=43 velocity=127 time=0.0054347812499999995
EXTRACT: note_on channel=9 note=44 velocity=0 time=0.062499984375
EXTRACT: note_on channel=7 note=43 velocity=0 time=0.0027173906249999998
EXTRACT: note_on channel=7 note=31 velocity=115 time=0.065217375
EXTRACT: note_on channel=9 note=42 velocity=53 time=0
EXTRACT: note_on channel=9 note=42 velocity=0 time=0.1209238828125
EXTRACT: note_on channel=7 note=31 velocity=0 time=0.040760859375
EXTRACT: note_on channel=7 note=33 velocity=127 time=0.0991847578125
EXTRACT: note_on channel=9 note=36 velocity=114 time=0
EXTRACT: note_on channel=9 note=44 velocity=110 time=0
EXTRACT: note_on channel=9 note=39 velocity=94 time=0
EXTRACT: note_on channel=9 note=40 velocity=115 time=0
EXTRACT: note_on channel=9 note=36 velocity=0 time=0.10190214843749999
EXTRACT: note_on channel=9 note=39 velocity=0 time=0.0027173906249999998
EXTRACT: note_on channel=9 note=40 velocity=0 time=0.006793476562499999
EXTRACT: note_on channel=9 note=44 velocity=0 time=0.0883151953125
EXTRACT: note_on channel=7 note=33 velocity=0 time=0.0421195546875
EXTRACT: note_on channel=7 note=34 velocity=115 time=0.019021734375
EXTRACT: note_on channel=9 note=42 velocity=33 time=0
EXTRACT: note_on channel=7 note=32 velocity=51 time=0.065217375
EXTRACT: note_on channel=7 note=32 velocity=0 time=0.023097820312499996
EXTRACT: note_on channel=9 note=42 velocity=0 time=0.048913031249999996
EXTRACT: note_on channel=7 note=34 velocity=0 time=0.10326084375
EXTRACT: note_on channel=9 note=44 velocity=110 time=0.0203804296875
EXTRACT: note_on channel=9 note=36 velocity=115 time=0
EXTRACT: note_on channel=9 note=36 velocity=0 time=0.09239128124999998
EXTRACT: note_on channel=7 note=31 velocity=94 time=0.03804346875
EXTRACT: note_on channel=9 note=44 velocity=0 time=0.054347812499999995
EXTRACT: note_on channel=7 note=33 velocity=104 time=0.0760869375
EXTRACT: note_on channel=9 note=42 velocity=33 time=0
EXTRACT: note_on channel=9 note=85 velocity=104 time=0
EXTRACT: note_on channel=9 note=39 velocity=53 time=0
EXTRACT: note_on channel=7 note=31 velocity=0 time=0.039402164062499995
EXTRACT: note_on channel=9 note=85 velocity=0 time=0.051630421875
EXTRACT: note_on channel=9 note=39 velocity=0 time=0.019021734375
EXTRACT: note_on channel=9 note=42 velocity=0 time=0.010869562499999999
EXTRACT: note_on channel=7 note=33 velocity=0 time=0.10326084375
EXTRACT: note_on channel=7 note=31 velocity=115 time=0.0366847734375
EXTRACT: note_on channel=9 note=44 velocity=110 time=0
EXTRACT: note_on channel=9 note=36 velocity=114 time=0
EXTRACT: note_on channel=9 note=39 velocity=104 time=0
EXTRACT: note_on channel=9 note=40 velocity=104 time=0
EXTRACT: note_on channel=9 note=39 velocity=0 time=0.0692934609375
EXTRACT: note_on channel=6 note=55 velocity=0 time=0.023097820312499996
EXTRACT: aftertouch channel=7 value=2 time=0.0027173906249999998
EXTRACT: note_on channel=6 note=62 velocity=0 time=0.0040760859375
EXTRACT: note_on channel=9 note=36 velocity=0 time=0.0040760859375
EXTRACT: note_on channel=9 note=40 velocity=0 time=0.0013586953124999999
EXTRACT: note_on channel=6 note=58 velocity=0 time=0.0040760859375
EXTRACT: aftertouch channel=7 value=4 time=0.0027173906249999998
EXTRACT: note_on channel=9 note=44 velocity=0 time=0.051630421875
EXTRACT: aftertouch channel=7 value=2 time=0.012228257812499999
EXTRACT: aftertouch channel=7 value=0 time=0.01630434375
EXTRACT: aftertouch channel=7 value=0 time=0.014945648437499999
EXTRACT: note_on channel=7 note=31 velocity=0 time=0.054347812499999995
EXTRACT: note_on channel=9 note=42 velocity=33 time=0
EXTRACT: note_on channel=9 note=42 velocity=0 time=0.1100543203125
EXTRACT: note_on channel=7 note=38 velocity=115 time=0.0203804296875
EXTRACT: note_on channel=3 note=84 velocity=86 time=0.13043475
EXTRACT: note_on channel=4 note=84 velocity=86 time=0
EXTRACT: note_on channel=6 note=55 velocity=94 time=0
EXTRACT: note_on channel=6 note=58 velocity=104 time=0
EXTRACT: note_on channel=6 note=65 velocity=94 time=0
EXTRACT: note_on channel=6 note=62 velocity=104 time=0
EXTRACT: note_on channel=7 note=39 velocity=127 time=0
EXTRACT: note_on channel=9 note=44 velocity=115 time=0
EXTRACT: note_on channel=9 note=36 velocity=110 time=0
EXTRACT: note_on channel=7 note=38 velocity=0 time=0.0040760859375
EXTRACT: note_on channel=9 note=36 velocity=0 time=0.12499996875
EXTRACT: note_on channel=9 note=44 velocity=0 time=0.0801630234375
EXTRACT: note_on channel=7 note=39 velocity=0 time=0.021739124999999998
EXTRACT: note_on channel=3 note=84 velocity=0 time=0.0258152109375
EXTRACT: note_on channel=4 note=84 velocity=0 time=0
EXTRACT: note_on channel=3 note=81 velocity=94 time=0.0040760859375
EXTRACT: note_on channel=4 note=81 velocity=94 time=0
EXTRACT: note_on channel=7 note=51 velocity=127 time=0
EXTRACT: note_on channel=9 note=42 velocity=52 time=0
EXTRACT: note_on channel=7 note=54 velocity=51 time=0.065217375
EXTRACT: note_on channel=7 note=54 velocity=0 time=0.017663039062499997
EXTRACT: note_on channel=9 note=42 velocity=0 time=0.006793476562499999
EXTRACT: note_on channel=3 note=81 velocity=0 time=0.14130431249999997
EXTRACT: note_on channel=4 note=81 velocity=0 time=0
EXTRACT: note_on channel=3 note=77 velocity=104 time=0.029891296874999997
EXTRACT: note_on channel=4 note=77 velocity=104 time=0
EXTRACT: note_on channel=7 note=39 velocity=127 time=0
EXTRACT: note_on channel=9 note=44 velocity=110 time=0
EXTRACT: note_on channel=9 note=36 velocity=114 time=0
EXTRACT: note_on channel=9 note=39 velocity=94 time=0
EXTRACT: note_on channel=9 note=40 velocity=104 time=0
EXTRACT: note_on channel=7 note=51 velocity=0 time=0.006793476562499999
EXTRACT: note_on channel=9 note=39 velocity=0 time=0.0991847578125
EXTRACT: note_on channel=9 note=36 velocity=0 time=0.01630434375
EXTRACT: note_on channel=9 note=40 velocity=0 time=0.033967382812499995
EXTRACT: note_on channel=9 note=44 velocity=0 time=0.023097820312499996
EXTRACT: note_on channel=7 note=39 velocity=0 time=0.024456515624999998
EXTRACT: note_on channel=3 note=77 velocity=0 time=0.0258152109375
EXTRACT: note_on channel=4 note=77 velocity=0 time=0
EXTRACT: note_on channel=3 note=79 velocity=94 time=0.0312499921875
EXTRACT: note_on channel=4 note=79 velocity=94 time=0
EXTRACT: note_on channel=7 note=39 velocity=115 time=0
EXTRACT: note_on channel=9 note=42 velocity=35 time=0
EXTRACT: note_on channel=9 note=42 velocity=0 time=0.0910325859375
EXTRACT: note_on channel=7 note=39 velocity=0 time=0.1562499609375
EXTRACT: note_on channel=9 note=44 velocity=110 time=0.013586953124999999
EXTRACT: note_on channel=9 note=36 velocity=114 time=0
EXTRACT: note_on channel=9 note=36 velocity=0 time=0.11277171093749999
EXTRACT: note_on channel=9 note=44 velocity=0 time=0.06385867968749999
EXTRACT: note_on channel=9 note=42 velocity=45 time=0.084239109375
EXTRACT: note_on channel=9 note=42 velocity=0 time=0.1290760546875
EXTRACT: note_on channel=9 note=44 velocity=110 time=0.13179344531249998
EXTRACT: note_on channel=9 note=36 velocity=114 time=0
EXTRACT: note_on channel=9 note=40 velocity=115 time=0
EXTRACT: note_on channel=9 note=39 velocity=94 time=0
EXTRACT: note_on channel=3 note=79 velocity=0 time=0.054347812499999995
EXTRACT: note_on channel=4 note=79 velocity=0 time=0
EXTRACT: note_on channel=9 note=39 velocity=0 time=0.043478249999999996
EXTRACT: note_on channel=9 note=36 velocity=0 time=0.017663039062499997
EXTRACT: note_on channel=9 note=44 velocity=0 time=0.008152171875
EXTRACT: note_on channel=9 note=40 velocity=0 time=0.0013586953124999999
EXTRACT: note_on channel=9 note=42 velocity=53 time=0.13586953124999998
EXTRACT: note_on channel=9 note=42 velocity=0 time=0.12228257812499999
EXTRACT: note_on channel=6 note=55 velocity=0 time=0.008152171875
EXTRACT: note_on channel=7 note=39 velocity=127 time=0
EXTRACT: note_on channel=6 note=58 velocity=0 time=0.01630434375
EXTRACT: note_on channel=6 note=62 velocity=0 time=0.01630434375
EXTRACT: note_on channel=6 note=65 velocity=0 time=0.0095108671875
EXTRACT: note_on channel=7 note=39 velocity=0 time=0.021739124999999998
EXTRACT: note_on channel=6 note=57 velocity=94 time=0.0665760703125
EXTRACT: note_on channel=6 note=65 velocity=94 time=0
EXTRACT: note_on channel=6 note=62 velocity=94 time=0
EXTRACT: note_on channel=6 note=60 velocity=104 time=0
EXTRACT: note_on channel=7 note=41 velocity=127 time=0
EXTRACT: note_on channel=9 note=36 velocity=114 time=0
EXTRACT: note_on channel=9 note=44 velocity=110 time=0
EXTRACT: note_on channel=9 note=36 velocity=0 time=0.12499996875
EXTRACT: note_on channel=7 note=41 velocity=0 time=0.0326086875
EXTRACT: note_on channel=9 note=44 velocity=0 time=0.03532607812499999
EXTRACT: note_on channel=9 note=42 velocity=53 time=0.06793476562499999
EXTRACT: note_on channel=9 note=42 velocity=0 time=0.1209238828125
EXTRACT: note_on channel=7 note=41 velocity=127 time=0.13994561718749998
EXTRACT: note_on channel=9 note=36 velocity=114 time=0
EXTRACT: note_on channel=9 note=44 velocity=110 time=0
EXTRACT: note_on channel=9 note=39 velocity=94 time=0
EXTRACT: note_on channel=9 note=40 velocity=115 time=0
EXTRACT: note_on channel=9 note=36 velocity=0 time=0.10190214843749999
EXTRACT: note_on channel=9 note=39 velocity=0 time=0.0027173906249999998
EXTRACT: note_on channel=9 note=40 velocity=0 time=0.006793476562499999
EXTRACT: note_on channel=9 note=44 velocity=0 time=0.0883151953125
EXTRACT: note_on channel=9 note=42 velocity=33 time=0.06114128906249999
EXTRACT: note_on channel=7 note=39 velocity=94 time=0.13043475
EXTRACT: note_on channel=9 note=42 velocity=0 time=0.006793476562499999
EXTRACT: note_on channel=7 note=41 velocity=0 time=0.013586953124999999
EXTRACT: note_on channel=7 note=39 velocity=0 time=0.10326084375
EXTRACT: note_on channel=7 note=38 velocity=127 time=0.006793476562499999
EXTRACT: note_on channel=9 note=44 velocity=110 time=0
EXTRACT: note_on channel=9 note=36 velocity=115 time=0
EXTRACT: note_on channel=7 note=38 velocity=0 time=0.0910325859375
EXTRACT: note_on channel=9 note=36 velocity=0 time=0.0013586953124999999
EXTRACT: note_on channel=9 note=44 velocity=0 time=0.09239128124999998
EXTRACT: note_on channel=7 note=38 velocity=127 time=0.0760869375
EXTRACT: note_on channel=9 note=42 velocity=33 time=0
EXTRACT: note_on channel=9 note=85 velocity=104 time=0
EXTRACT: note_on channel=9 note=39 velocity=53 time=0
EXTRACT: note_on channel=7 note=38 velocity=0 time=0.07201085156249999
EXTRACT: note_on channel=9 note=85 velocity=0 time=0.019021734375
EXTRACT: note_on channel=9 note=39 velocity=0 time=0.019021734375
EXTRACT: note_on channel=9 note=42 velocity=0 time=0.010869562499999999
EXTRACT: note_on channel=7 note=38 velocity=127 time=0.13994561718749998
EXTRACT: note_on channel=9 note=44 velocity=110 time=0
EXTRACT: note_on channel=9 note=36 velocity=114 time=0
EXTRACT: note_on channel=9 note=39 velocity=104 time=0
EXTRACT: note_on channel=9 note=40 velocity=104 time=0
EXTRACT: note_on channel=9 note=39 velocity=0 time=0.0692934609375
EXTRACT: note_on channel=9 note=36 velocity=0 time=0.033967382812499995
EXTRACT: note_on channel=9 note=40 velocity=0 time=0.0013586953124999999
EXTRACT: note_on channel=9 note=44 velocity=0 time=0.058423898437499996
EXTRACT: note_on channel=7 note=36 velocity=127 time=0.09782606249999999
EXTRACT: note_on channel=9 note=42 velocity=33 time=0
EXTRACT: note_on channel=7 note=38 velocity=0 time=0.021739124999999998
EXTRACT: note_on channel=6 note=65 velocity=0 time=0.058423898437499996
EXTRACT: note_on channel=6 note=57 velocity=0 time=0.0095108671875
EXTRACT: note_on channel=6 note=60 velocity=0 time=0.01630434375
EXTRACT: note_on channel=9 note=42 velocity=0 time=0.0040760859375
EXTRACT: note_on channel=6 note=62 velocity=0 time=0.0054347812499999995
EXTRACT: note_on channel=7 note=36 velocity=0 time=0.013586953124999999
EXTRACT: note_on channel=7 note=38 velocity=115 time=0.0013586953124999999
EXTRACT: note_on channel=6 note=55 velocity=94 time=0.13043475
EXTRACT: note_on channel=6 note=62 velocity=94 time=0
EXTRACT: note_on channel=6 note=58 velocity=94 time=0
EXTRACT: note_on channel=7 note=38 velocity=68 time=0
EXTRACT: note_on channel=7 note=31 velocity=115 time=0
EXTRACT: note_on channel=9 note=44 velocity=115 time=0
EXTRACT: note_on channel=9 note=36 velocity=110 time=0
EXTRACT: note_on channel=7 note=38 velocity=0 time=0.013586953124999999
EXTRACT: note_on channel=7 note=38 velocity=0 time=0.0040760859375
EXTRACT: aftertouch channel=7 value=4 time=0.08152171875
EXTRACT: aftertouch channel=7 value=6 time=0.01630434375
EXTRACT: note_on channel=9 note=36 velocity=0 time=0.013586953124999999
EXTRACT: aftertouch channel=7 value=8 time=0.0027173906249999998
EXTRACT: aftertouch channel=7 value=6 time=0.0312499921875
EXTRACT: aftertouch channel=7 value=4 time=0.014945648437499999
EXTRACT: aftertouch channel=7 value=2 time=0.014945648437499999
EXTRACT: note_on channel=9 note=44 velocity=0 time=0.01630434375
EXTRACT: aftertouch channel=7 value=0 time=0.0027173906249999998
EXTRACT: aftertouch channel=7 value=0 time=0.013586953124999999
EXTRACT: note_on channel=7 note=43 velocity=127 time=0.03532607812499999
EXTRACT: note_on channel=9 note=42 velocity=52 time=0
EXTRACT: note_on channel=7 note=31 velocity=0 time=0.0013586953124999999
EXTRACT: note_on channel=9 note=42 velocity=0 time=0.0883151953125
EXTRACT: note_on channel=7 note=31 velocity=127 time=0.17119560937499997
EXTRACT: note_on channel=9 note=44 velocity=110 time=0
EXTRACT: note_on channel=9 note=36 velocity=114 time=0
EXTRACT: note_on channel=9 note=39 velocity=94 time=0
EXTRACT: note_on channel=9 note=40 velocity=104 time=0
EXTRACT: note_on channel=7 note=43 velocity=0 time=0.0475543359375
EXTRACT: aftertouch channel=7 value=2 time=0.024456515624999998
EXTRACT: aftertouch channel=7 value=6 time=0.01630434375
EXTRACT: aftertouch channel=7 value=10 time=0.013586953124999999
EXTRACT: note_on channel=9 note=39 velocity=0 time=0.0040760859375
EXTRACT: note_on channel=9 note=36 velocity=0 time=0.01630434375
EXTRACT: aftertouch channel=7 value=8 time=0.010869562499999999
EXTRACT: note_on channel=7 note=31 velocity=0 time=0.01630434375
EXTRACT: aftertouch channel=7 value=6 time=0
EXTRACT: note_on channel=9 note=40 velocity=0 time=0.006793476562499999
EXTRACT: aftertouch channel=7 value=2 time=0.0095108671875
EXTRACT: note_on channel=9 note=44 velocity=0 time=0.013586953124999999
EXTRACT: aftertouch channel=7 value=0 time=0.0027173906249999998
EXTRACT: aftertouch channel=7 value=0 time=0.014945648437499999
EXTRACT: note_on channel=7 note=31 velocity=115 time=0.06385867968749999
EXTRACT: note_on channel=9 note=42 velocity=35 time=0
EXTRACT: aftertouch channel=7 value=12 time=0.0774456328125
EXTRACT: note_on channel=9 note=42 velocity=0 time=0.013586953124999999
EXTRACT: aftertouch channel=7 value=24 time=0.0013586953124999999
EXTRACT: aftertouch channel=7 value=30 time=0.019021734375
EXTRACT: aftertouch channel=7 value=36 time=0.013586953124999999
EXTRACT: aftertouch channel=7 value=30 time=0.0475543359375
EXTRACT: aftertouch channel=7 value=26 time=0.01630434375
EXTRACT: aftertouch channel=7 value=20 time=0.01630434375
EXTRACT: aftertouch channel=7 value=14 time=0.01630434375
EXTRACT: aftertouch channel=7 value=8 time=0.013586953124999999
EXTRACT: note_on channel=7 note=31 velocity=0 time=0.0054347812499999995
EXTRACT: aftertouch channel=7 value=4 time=0.012228257812499999
EXTRACT: note_on channel=9 note=44 velocity=110 time=0.008152171875
EXTRACT: note_on channel=9 note=36 velocity=114 time=0
EXTRACT: aftertouch channel=7 value=2 time=0.01630434375
EXTRACT: aftertouch channel=7 value=0 time=0.012228257812499999
EXTRACT: note_on channel=9 note=36 velocity=0 time=0.084239109375
EXTRACT: note_on channel=9 note=44 velocity=0 time=0.06385867968749999
EXTRACT: note_on channel=9 note=42 velocity=45 time=0.084239109375
EXTRACT: note_on channel=9 note=42 velocity=0 time=0.1290760546875
EXTRACT: note_on channel=9 note=44 velocity=110 time=0.13179344531249998
EXTRACT: note_on channel=9 note=36 velocity=114 time=0
EXTRACT: note_on channel=9 note=40 velocity=115 time=0
EXTRACT: note_on channel=9 note=39 velocity=94 time=0
EXTRACT: note_on channel=9 note=39 velocity=0 time=0.09782606249999999
EXTRACT: note_on channel=9 note=36 velocity=0 time=0.017663039062499997
EXTRACT: note_on channel=9 note=44 velocity=0 time=0.008152171875
EXTRACT: note_on channel=9 note=40 velocity=0 time=0.0013586953124999999
EXTRACT: note_on channel=7 note=41 velocity=127 time=0.13586953124999998
EXTRACT: note_on channel=9 note=42 velocity=53 time=0
EXTRACT: note_on channel=7 note=41 velocity=0 time=0.11956518749999999
EXTRACT: note_on channel=9 note=42 velocity=0 time=0.0027173906249999998
EXTRACT: note_on channel=7 note=43 velocity=115 time=0.008152171875
EXTRACT: note_on channel=7 note=43 velocity=0 time=0.1290760546875
EXTRACT: note_on channel=7 note=31 velocity=94 time=0.0013586953124999999
EXTRACT: note_on channel=9 note=36 velocity=114 time=0
EXTRACT: note_on channel=9 note=44 velocity=110 time=0
EXTRACT: note_on channel=9 note=36 velocity=0 time=0.12499996875
EXTRACT: note_on channel=7 note=31 velocity=0 time=0.0013586953124999999
EXTRACT: note_on channel=7 note=43 velocity=127 time=0.0040760859375
EXTRACT: note_on channel=9 note=44 velocity=0 time=0.062499984375
EXTRACT: note_on channel=7 note=43 velocity=0 time=0.0312499921875
EXTRACT: note_on channel=7 note=31 velocity=115 time=0.0366847734375
EXTRACT: note_on channel=9 note=42 velocity=53 time=0
EXTRACT: note_on channel=9 note=42 velocity=0 time=0.1209238828125
EXTRACT: note_on channel=7 note=31 velocity=0 time=0.0312499921875
EXTRACT: note_on channel=7 note=33 velocity=127 time=0.10869562499999999
EXTRACT: note_on channel=9 note=36 velocity=114 time=0
EXTRACT: note_on channel=9 note=44 velocity=110 time=0
EXTRACT: note_on channel=9 note=39 velocity=94 time=0
EXTRACT: note_on channel=9 note=40 velocity=115 time=0
EXTRACT: note_on channel=9 note=36 velocity=0 time=0.10190214843749999
EXTRACT: note_on channel=9 note=39 velocity=0 time=0.0027173906249999998
EXTRACT: note_on channel=9 note=40 velocity=0 time=0.006793476562499999
EXTRACT: note_on channel=9 note=44 velocity=0 time=0.0883151953125
EXTRACT: note_on channel=7 note=33 velocity=0 time=0.06114128906249999
EXTRACT: note_on channel=7 note=34 velocity=127 time=0
EXTRACT: note_on channel=9 note=42 velocity=33 time=0
EXTRACT: note_on channel=9 note=42 velocity=0 time=0.1372282265625
EXTRACT: note_on channel=7 note=34 velocity=0 time=0.11277171093749999
EXTRACT: note_on channel=9 note=44 velocity=110 time=0.010869562499999999
EXTRACT: note_on channel=9 note=36 velocity=115 time=0
EXTRACT: note_on channel=9 note=36 velocity=0 time=0.09239128124999998
EXTRACT: note_on channel=7 note=31 velocity=94 time=0.03804346875
EXTRACT: note_on channel=9 note=44 velocity=0 time=0.054347812499999995
EXTRACT: note_on channel=7 note=33 velocity=115 time=0.0760869375
EXTRACT: note_on channel=9 note=42 velocity=33 time=0
EXTRACT: note_on channel=9 note=85 velocity=104 time=0
EXTRACT: note_on channel=9 note=39 velocity=53 time=0
EXTRACT: note_on channel=7 note=31 velocity=0 time=0.03804346875
EXTRACT: note_on channel=9 note=85 velocity=0 time=0.0529891171875
EXTRACT: note_on channel=9 note=39 velocity=0 time=0.019021734375
EXTRACT: note_on channel=9 note=42 velocity=0 time=0.010869562499999999
EXTRACT: note_on channel=7 note=33 velocity=0 time=0.13586953124999998
EXTRACT: note_on channel=7 note=31 velocity=127 time=0.0040760859375
EXTRACT: note_on channel=9 note=44 velocity=110 time=0
EXTRACT: note_on channel=9 note=36 velocity=114 time=0
EXTRACT: note_on channel=9 note=39 velocity=104 time=0
EXTRACT: note_on channel=9 note=40 velocity=104 time=0
EXTRACT: note_on channel=6 note=58 velocity=0 time=0.028532601562499996
EXTRACT: note_on channel=6 note=55 velocity=0 time=0.008152171875
EXTRACT: note_on channel=6 note=62 velocity=0 time=0.013586953124999999
EXTRACT: note_on channel=9 note=39 velocity=0 time=0.019021734375
EXTRACT: aftertouch channel=7 value=6 time=0.017663039062499997
EXTRACT: aftertouch channel=7 value=14 time=0.01630434375
EXTRACT: note_on channel=9 note=36 velocity=0 time=0
EXTRACT: note_on channel=9 note=40 velocity=0 time=0.0013586953124999999
EXTRACT: aftertouch channel=7 value=16 time=0.012228257812499999
EXTRACT: note_on channel=9 note=44 velocity=0 time=0.04619564062499999
EXTRACT: aftertouch channel=7 value=14 time=0.0027173906249999998
EXTRACT: aftertouch channel=7 value=12 time=0.014945648437499999
EXTRACT: aftertouch channel=7 value=8 time=0.01630434375
EXTRACT: aftertouch channel=7 value=6 time=0.01630434375
EXTRACT: aftertouch channel=7 value=2 time=0.01630434375
EXTRACT: aftertouch channel=7 value=0 time=0.014945648437499999
EXTRACT: note_on channel=9 note=42 velocity=33 time=0.01630434375
EXTRACT: aftertouch channel=7 value=0 time=0.0027173906249999998
EXTRACT: note_on channel=7 note=31 velocity=0 time=0.012228257812499999
EXTRACT: note_on channel=9 note=42 velocity=0 time=0.095108671875
EXTRACT: note_on channel=6 note=65 velocity=94 time=0.1508151796875
EXTRACT: note_on channel=6 note=62 velocity=94 time=0
EXTRACT: note_on channel=6 note=58 velocity=104 time=0
EXTRACT: note_on channel=6 note=55 velocity=94 time=0
EXTRACT: note_on channel=7 note=39 velocity=127 time=0
EXTRACT: note_on channel=9 note=44 velocity=115 time=0
EXTRACT: note_on channel=9 note=36 velocity=110 time=0
EXTRACT: note_on channel=9 note=36 velocity=0 time=0.1290760546875
EXTRACT: note_on channel=9 note=44 velocity=0 time=0.0801630234375
EXTRACT: note_on channel=7 note=39 velocity=0 time=0.0258152109375
EXTRACT: note_on channel=7 note=51 velocity=127 time=0.0258152109375
EXTRACT: note_on channel=9 note=42 velocity=52 time=0
EXTRACT: note_on channel=9 note=42 velocity=0 time=0.08967389062499999
EXTRACT: note_on channel=7 note=39 velocity=127 time=0.17119560937499997
EXTRACT: note_on channel=9 note=44 velocity=110 time=0
EXTRACT: note_on channel=9 note=36 velocity=114 time=0
EXTRACT: note_on channel=9 note=39 velocity=94 time=0
EXTRACT: note_on channel=9 note=40 velocity=104 time=0
EXTRACT: note_on channel=7 note=51 velocity=0 time=0.024456515624999998
EXTRACT: note_on channel=9 note=39 velocity=0 time=0.08152171875
EXTRACT: note_on channel=9 note=36 velocity=0 time=0.01630434375
EXTRACT: note_on channel=9 note=40 velocity=0 time=0.033967382812499995
EXTRACT: note_on channel=9 note=44 velocity=0 time=0.023097820312499996
EXTRACT: note_on channel=7 note=39 velocity=0 time=0.013586953124999999
EXTRACT: note_on channel=7 note=39 velocity=115 time=0.06793476562499999
EXTRACT: note_on channel=9 note=42 velocity=35 time=0
EXTRACT: note_on channel=9 note=42 velocity=0 time=0.0910325859375
EXTRACT: note_on channel=7 note=39 velocity=0 time=0.1562499609375
EXTRACT: note_on channel=7 note=39 velocity=59 time=0.013586953124999999
EXTRACT: note_on channel=9 note=44 velocity=110 time=0
EXTRACT: note_on channel=9 note=36 velocity=114 time=0
EXTRACT: note_on channel=7 note=39 velocity=0 time=0.0203804296875
EXTRACT: note_on channel=9 note=36 velocity=0 time=0.09239128124999998
EXTRACT: note_on channel=9 note=44 velocity=0 time=0.06385867968749999
EXTRACT: note_on channel=9 note=42 velocity=45 time=0.084239109375
EXTRACT: note_on channel=9 note=42 velocity=0 time=0.1290760546875
EXTRACT: note_on channel=9 note=44 velocity=110 time=0.13179344531249998
EXTRACT: note_on channel=9 note=36 velocity=114 time=0
EXTRACT: note_on channel=9 note=40 velocity=115 time=0
EXTRACT: note_on channel=9 note=39 velocity=94 time=0
EXTRACT: note_on channel=9 note=39 velocity=0 time=0.09782606249999999
EXTRACT: note_on channel=9 note=36 velocity=0 time=0.017663039062499997
EXTRACT: note_on channel=9 note=44 velocity=0 time=0.008152171875
EXTRACT: note_on channel=9 note=40 velocity=0 time=0.0013586953124999999
EXTRACT: note_on channel=9 note=42 velocity=53 time=0.13586953124999998
EXTRACT: note_on channel=9 note=42 velocity=0 time=0.12228257812499999
EXTRACT: note_on channel=7 note=39 velocity=104 time=0.008152171875
EXTRACT: note_on channel=6 note=58 velocity=0 time=0.0040760859375
EXTRACT: note_on channel=6 note=55 velocity=0 time=0.006793476562499999
EXTRACT: note_on channel=6 note=62 velocity=0 time=0.010869562499999999
EXTRACT: note_on channel=6 note=65 velocity=0 time=0.006793476562499999
EXTRACT: note_on channel=6 note=60 velocity=94 time=0.10190214843749999
EXTRACT: note_on channel=6 note=62 velocity=86 time=0
EXTRACT: note_on channel=6 note=65 velocity=94 time=0
EXTRACT: note_on channel=6 note=57 velocity=94 time=0
EXTRACT: note_on channel=7 note=39 velocity=0 time=0
EXTRACT: note_on channel=7 note=41 velocity=127 time=0
EXTRACT: note_on channel=9 note=36 velocity=114 time=0
EXTRACT: note_on channel=9 note=44 velocity=110 time=0
EXTRACT: note_on channel=9 note=36 velocity=0 time=0.12499996875
EXTRACT: note_on channel=7 note=41 velocity=0 time=0.039402164062499995
EXTRACT: note_on channel=9 note=44 velocity=0 time=0.028532601562499996
EXTRACT: note_on channel=9 note=42 velocity=53 time=0.06793476562499999
EXTRACT: note_on channel=9 note=42 velocity=0 time=0.1209238828125
EXTRACT: note_on channel=7 note=41 velocity=127 time=0.13994561718749998
EXTRACT: note_on channel=9 note=36 velocity=114 time=0
EXTRACT: note_on channel=9 note=44 velocity=110 time=0
EXTRACT: note_on channel=9 note=39 velocity=94 time=0
EXTRACT: note_on channel=9 note=40 velocity=115 time=0
EXTRACT: note_on channel=9 note=36 velocity=0 time=0.10190214843749999
EXTRACT: note_on channel=9 note=39 velocity=0 time=0.0027173906249999998
EXTRACT: note_on channel=9 note=40 velocity=0 time=0.006793476562499999
EXTRACT: note_on channel=9 note=44 velocity=0 time=0.0883151953125
EXTRACT: note_on channel=9 note=42 velocity=33 time=0.06114128906249999
EXTRACT: note_on channel=7 note=39 velocity=104 time=0.13043475
EXTRACT: note_on channel=9 note=42 velocity=0 time=0.006793476562499999
EXTRACT: note_on channel=7 note=41 velocity=0 time=0.08152171875
EXTRACT: note_on channel=7 note=39 velocity=0 time=0.0366847734375
EXTRACT: note_on channel=7 note=38 velocity=127 time=0.0054347812499999995
EXTRACT: note_on channel=9 note=44 velocity=110 time=0
EXTRACT: note_on channel=9 note=36 velocity=115 time=0
EXTRACT: note_on channel=9 note=36 velocity=0 time=0.09239128124999998
EXTRACT: note_on channel=7 note=38 velocity=0 time=0.0027173906249999998
EXTRACT: note_on channel=9 note=44 velocity=0 time=0.08967389062499999
EXTRACT: note_on channel=7 note=38 velocity=127 time=0.0760869375
EXTRACT: note_on channel=9 note=42 velocity=33 time=0
EXTRACT: note_on channel=9 note=85 velocity=104 time=0
EXTRACT: note_on channel=9 note=39 velocity=53 time=0
EXTRACT: note_on channel=7 note=38 velocity=0 time=0.08152171875
EXTRACT: note_on channel=9 note=85 velocity=0 time=0.0095108671875
EXTRACT: note_on channel=9 note=39 velocity=0 time=0.019021734375
EXTRACT: note_on channel=9 note=42 velocity=0 time=0.010869562499999999
EXTRACT: note_on channel=7 note=38 velocity=127 time=0.13994561718749998
EXTRACT: note_on channel=9 note=44 velocity=110 time=0
EXTRACT: note_on channel=9 note=36 velocity=114 time=0
EXTRACT: note_on channel=9 note=39 velocity=104 time=0
EXTRACT: note_on channel=9 note=40 velocity=104 time=0
EXTRACT: note_on channel=9 note=39 velocity=0 time=0.0692934609375
EXTRACT: note_on channel=9 note=36 velocity=0 time=0.033967382812499995
EXTRACT: note_on channel=9 note=40 velocity=0 time=0.0013586953124999999
EXTRACT: note_on channel=9 note=44 velocity=0 time=0.058423898437499996
EXTRACT: note_on channel=7 note=36 velocity=127 time=0.09782606249999999
EXTRACT: note_on channel=9 note=42 velocity=33 time=0
EXTRACT: note_on channel=7 note=38 velocity=0 time=0.01630434375
EXTRACT: note_on channel=6 note=65 velocity=0 time=0.04619564062499999
EXTRACT: note_on channel=6 note=57 velocity=0 time=0.021739124999999998
EXTRACT: note_on channel=6 note=60 velocity=0 time=0.0013586953124999999
EXTRACT: note_on channel=6 note=62 velocity=0 time=0.008152171875
EXTRACT: note_on channel=9 note=42 velocity=0 time=0.01630434375
EXTRACT: note_on channel=7 note=36 velocity=0 time=0.014945648437499999
EXTRACT: note_on channel=7 note=38 velocity=104 time=0.0054347812499999995
EXTRACT: note_on channel=6 note=62 velocity=94 time=0.13043475
EXTRACT: note_on channel=6 note=58 velocity=115 time=0
EXTRACT: note_on channel=6 note=55 velocity=86 time=0
EXTRACT: note_on channel=7 note=31 velocity=94 time=0
EXTRACT: note_on channel=9 note=44 velocity=115 time=0
EXTRACT: note_on channel=9 note=36 velocity=110 time=0
EXTRACT: note_on channel=7 note=38 velocity=0 time=0.03532607812499999
EXTRACT: note_on channel=9 note=36 velocity=0 time=0.09374997656249999
EXTRACT: note_on channel=9 note=44 velocity=0 time=0.0801630234375
EXTRACT: note_on channel=7 note=43 velocity=127 time=0.051630421875
EXTRACT: note_on channel=9 note=42 velocity=52 time=0
EXTRACT: note_on channel=7 note=31 velocity=0 time=0.024456515624999998
EXTRACT: note_on channel=9 note=42 velocity=0 time=0.065217375
EXTRACT: note_on channel=7 note=43 velocity=0 time=0.160326046875
EXTRACT: note_on channel=7 note=31 velocity=104 time=0.010869562499999999
EXTRACT: note_on channel=9 note=44 velocity=110 time=0
EXTRACT: note_on channel=9 note=36 velocity=114 time=0
EXTRACT: note_on channel=9 note=39 velocity=94 time=0
EXTRACT: note_on channel=9 note=40 velocity=104 time=0
EXTRACT: note_on channel=9 note=39 velocity=0 time=0.105978234375
EXTRACT: aftertouch channel=7 value=6 time=0.0013586953124999999
EXTRACT: note_on channel=9 note=36 velocity=0 time=0.014945648437499999
EXTRACT: note_on channel=9 note=40 velocity=0 time=0.033967382812499995
EXTRACT: note_on channel=7 note=31 velocity=0 time=0.006793476562499999
EXTRACT: aftertouch channel=7 value=2 time=0.008152171875
EXTRACT: note_on channel=9 note=44 velocity=0 time=0.008152171875
EXTRACT: aftertouch channel=7 value=0 time=0.008152171875
EXTRACT: aftertouch channel=7 value=0 time=0.014945648437499999
EXTRACT: note_on channel=7 note=31 velocity=115 time=0.058423898437499996
EXTRACT: note_on channel=9 note=42 velocity=35 time=0
EXTRACT: note_on channel=9 note=42 velocity=0 time=0.0910325859375
EXTRACT: aftertouch channel=7 value=6 time=0.0013586953124999999
EXTRACT: aftertouch channel=7 value=14 time=0.01630434375
EXTRACT: aftertouch channel=7 value=22 time=0.01630434375
EXTRACT: aftertouch channel=7 value=24 time=0.013586953124999999
EXTRACT: aftertouch channel=7 value=20 time=0.048913031249999996
EXTRACT: aftertouch channel=7 value=14 time=0.014945648437499999
EXTRACT: aftertouch channel=7 value=12 time=0.01630434375
EXTRACT: aftertouch channel=7 value=6 time=0.01630434375
EXTRACT: aftertouch channel=7 value=2 time=0.01630434375
EXTRACT: note_on channel=9 note=44 velocity=110 time=0.0095108671875
EXTRACT: note_on channel=9 note=36 velocity=114 time=0
EXTRACT: note_on channel=7 note=31 velocity=0 time=0.0013586953124999999
EXTRACT: aftertouch channel=7 value=0 time=0.014945648437499999
EXTRACT: aftertouch channel=7 value=0 time=0.012228257812499999
EXTRACT: note_on channel=9 note=36 velocity=0 time=0.084239109375
EXTRACT: note_on channel=9 note=44 velocity=0 time=0.06385867968749999
EXTRACT: note_on channel=9 note=42 velocity=45 time=0.084239109375
EXTRACT: note_on channel=9 note=42 velocity=0 time=0.1290760546875
EXTRACT: note_on channel=9 note=44 velocity=110 time=0.13179344531249998
EXTRACT: note_on channel=9 note=36 velocity=114 time=0
EXTRACT: note_on channel=9 note=40 velocity=115 time=0
EXTRACT: note_on channel=9 note=39 velocity=94 time=0
EXTRACT: note_on channel=9 note=39 velocity=0 time=0.09782606249999999
EXTRACT: note_on channel=9 note=36 velocity=0 time=0.017663039062499997
EXTRACT: note_on channel=9 note=44 velocity=0 time=0.008152171875
EXTRACT: note_on channel=9 note=40 velocity=0 time=0.0013586953124999999
EXTRACT: note_on channel=7 note=41 velocity=127 time=0.13586953124999998
EXTRACT: note_on channel=9 note=42 velocity=53 time=0
EXTRACT: note_on channel=7 note=41 velocity=0 time=0.11684779687499999
EXTRACT: note_on channel=9 note=42 velocity=0 time=0.0054347812499999995
EXTRACT: note_on channel=7 note=43 velocity=115 time=0.008152171875
EXTRACT: note_on channel=7 note=43 velocity=0 time=0.10326084375
EXTRACT: note_on channel=7 note=31 velocity=104 time=0.027173906249999998
EXTRACT: note_on channel=9 note=36 velocity=114 time=0
EXTRACT: note_on channel=9 note=44 velocity=110 time=0
EXTRACT: note_on channel=7 note=31 velocity=0 time=0.11277171093749999
EXTRACT: note_on channel=9 note=36 velocity=0 time=0.012228257812499999
EXTRACT: note_on channel=7 note=43 velocity=127 time=0.0054347812499999995
EXTRACT: note_on channel=9 note=44 velocity=0 time=0.062499984375
EXTRACT: note_on channel=7 note=43 velocity=0 time=0.017663039062499997
EXTRACT: note_on channel=7 note=31 velocity=115 time=0.050271726562499994
EXTRACT: note_on channel=9 note=42 velocity=53 time=0
EXTRACT: note_on channel=9 note=42 velocity=0 time=0.1209238828125
EXTRACT: note_on channel=7 note=31 velocity=0 time=0.0366847734375
EXTRACT: note_on channel=7 note=33 velocity=115 time=0.10326084375
EXTRACT: note_on channel=9 note=36 velocity=114 time=0
EXTRACT: note_on channel=9 note=44 velocity=110 time=0
EXTRACT: note_on channel=9 note=39 velocity=94 time=0
EXTRACT: note_on channel=9 note=40 velocity=115 time=0
EXTRACT: note_on channel=9 note=36 velocity=0 time=0.10190214843749999
EXTRACT: note_on channel=9 note=39 velocity=0 time=0.0027173906249999998
EXTRACT: note_on channel=9 note=40 velocity=0 time=0.006793476562499999
EXTRACT: note_on channel=9 note=44 velocity=0 time=0.0883151953125
EXTRACT: note_on channel=7 note=34 velocity=127 time=0.06114128906249999
EXTRACT: note_on channel=9 note=42 velocity=33 time=0
EXTRACT: note_on channel=7 note=33 velocity=0 time=0.0312499921875
EXTRACT: note_on channel=9 note=42 velocity=0 time=0.105978234375
EXTRACT: note_on channel=7 note=34 velocity=41 time=0.058423898437499996
EXTRACT: note_on channel=7 note=34 velocity=0 time=0.0040760859375
EXTRACT: note_on channel=7 note=34 velocity=0 time=0.012228257812499999
EXTRACT: note_on channel=9 note=44 velocity=110 time=0.048913031249999996
EXTRACT: note_on channel=9 note=36 velocity=115 time=0
EXTRACT: note_on channel=9 note=36 velocity=0 time=0.09239128124999998
EXTRACT: note_on channel=7 note=31 velocity=79 time=0.03804346875
EXTRACT: note_on channel=9 note=44 velocity=0 time=0.054347812499999995
EXTRACT: note_on channel=7 note=33 velocity=104 time=0.0760869375
EXTRACT: note_on channel=9 note=42 velocity=33 time=0
EXTRACT: note_on channel=9 note=85 velocity=104 time=0
EXTRACT: note_on channel=9 note=39 velocity=53 time=0
EXTRACT: note_on channel=7 note=31 velocity=0 time=0.023097820312499996
EXTRACT: note_on channel=9 note=85 velocity=0 time=0.06793476562499999
EXTRACT: note_on channel=9 note=39 velocity=0 time=0.019021734375
EXTRACT: note_on channel=9 note=42 velocity=0 time=0.010869562499999999
EXTRACT: note_on channel=7 note=31 velocity=104 time=0.13994561718749998
EXTRACT: note_on channel=9 note=44 velocity=110 time=0
EXTRACT: note_on channel=9 note=36 velocity=114 time=0
EXTRACT: note_on channel=9 note=39 velocity=104 time=0
EXTRACT: note_on channel=9 note=40 velocity=104 time=0
EXTRACT: note_on channel=7 note=33 velocity=0 time=0.013586953124999999
EXTRACT: aftertouch channel=7 value=6 time=0.05570650781249999
EXTRACT: note_on channel=9 note=39 velocity=0 time=0
EXTRACT: aftertouch channel=7 value=10 time=0.01630434375
EXTRACT: note_on channel=6 note=55 velocity=0 time=0.006793476562499999
EXTRACT: note_on channel=6 note=62 velocity=0 time=0.006793476562499999
EXTRACT: aftertouch channel=7 value=14 time=0.0027173906249999998
EXTRACT: note_on channel=9 note=36 velocity=0 time=0.0013586953124999999
EXTRACT: note_on channel=9 note=40 velocity=0 time=0.0013586953124999999
EXTRACT: note_on channel=6 note=58 velocity=0 time=0.0040760859375
EXTRACT: aftertouch channel=7 value=10 time=0.040760859375
EXTRACT: note_on channel=9 note=44 velocity=0 time=0.013586953124999999
EXTRACT: aftertouch channel=7 value=6 time=0.0027173906249999998
EXTRACT: aftertouch channel=7 value=2 time=0.01630434375
EXTRACT: aftertouch channel=7 value=0 time=0.014945648437499999
EXTRACT: aftertouch channel=7 value=0 time=0.01630434375
EXTRACT: note_on channel=7 note=31 velocity=0 time=0.014945648437499999
EXTRACT: note_on channel=9 note=42 velocity=33 time=0.0326086875
EXTRACT: note_on channel=9 note=42 velocity=0 time=0.1100543203125
EXTRACT: note_on channel=7 note=36 velocity=86 time=0.0203804296875
EXTRACT: note_on channel=7 note=38 velocity=94 time=0
EXTRACT: note_on channel=7 note=36 velocity=0 time=0.050271726562499994
EXTRACT: note_on channel=7 note=38 velocity=0 time=0.0475543359375
EXTRACT: note_on channel=3 note=84 velocity=104 time=0.0326086875
EXTRACT: note_on channel=4 note=84 velocity=104 time=0
EXTRACT: note_on channel=6 note=55 velocity=94 time=0
EXTRACT: note_on channel=6 note=58 velocity=104 time=0
EXTRACT: note_on channel=6 note=65 velocity=94 time=0
EXTRACT: note_on channel=6 note=62 velocity=104 time=0
EXTRACT: note_on channel=7 note=39 velocity=127 time=0
EXTRACT: note_on channel=9 note=44 velocity=115 time=0
EXTRACT: note_on channel=9 note=36 velocity=110 time=0
EXTRACT: note_on channel=9 note=36 velocity=0 time=0.1290760546875
EXTRACT: note_on channel=9 note=44 velocity=0 time=0.0801630234375
EXTRACT: note_on channel=3 note=81 velocity=94 time=0.051630421875
EXTRACT: note_on channel=4 note=81 velocity=94 time=0
EXTRACT: note_on channel=7 note=51 velocity=115 time=0
EXTRACT: note_on channel=9 note=42 velocity=52 time=0
EXTRACT: note_on channel=7 note=39 velocity=0 time=0.0013586953124999999
EXTRACT: note_on channel=3 note=84 velocity=0 time=0.0027173906249999998
EXTRACT: note_on channel=4 note=84 velocity=0 time=0
EXTRACT: note_on channel=9 note=42 velocity=0 time=0.08559780468749999
EXTRACT: note_on channel=3 note=81 velocity=0 time=0.14945648437499998
EXTRACT: note_on channel=4 note=81 velocity=0 time=0
EXTRACT: note_on channel=3 note=77 velocity=94 time=0.021739124999999998
EXTRACT: note_on channel=4 note=77 velocity=94 time=0
EXTRACT: note_on channel=7 note=39 velocity=115 time=0
EXTRACT: note_on channel=9 note=44 velocity=110 time=0
EXTRACT: note_on channel=9 note=36 velocity=114 time=0
EXTRACT: note_on channel=9 note=39 velocity=94 time=0
EXTRACT: note_on channel=9 note=40 velocity=104 time=0
EXTRACT: note_on channel=7 note=51 velocity=0 time=0.0013586953124999999
EXTRACT: note_on channel=9 note=39 velocity=0 time=0.10461953906249999
EXTRACT: note_on channel=9 note=36 velocity=0 time=0.01630434375
EXTRACT: note_on channel=9 note=40 velocity=0 time=0.033967382812499995
EXTRACT: note_on channel=9 note=44 velocity=0 time=0.023097820312499996
EXTRACT: note_on channel=7 note=39 velocity=0 time=0.029891296874999997
EXTRACT: note_on channel=3 note=77 velocity=0 time=0.019021734375
EXTRACT: note_on channel=4 note=77 velocity=0 time=0
EXTRACT: note_on channel=3 note=79 velocity=94 time=0.0326086875
EXTRACT: note_on channel=4 note=79 velocity=94 time=0
EXTRACT: note_on channel=7 note=39 velocity=115 time=0
EXTRACT: note_on channel=9 note=42 velocity=35 time=0
EXTRACT: note_on channel=9 note=42 velocity=0 time=0.0910325859375
EXTRACT: note_on channel=7 note=40 velocity=94 time=0.16983691406249998
EXTRACT: note_on channel=9 note=44 velocity=110 time=0
EXTRACT: note_on channel=9 note=36 velocity=114 time=0
EXTRACT: note_on channel=7 note=39 velocity=0 time=0.0013586953124999999
EXTRACT: note_on channel=7 note=40 velocity=0 time=0.029891296874999997
EXTRACT: note_on channel=9 note=36 velocity=0 time=0.08152171875
EXTRACT: note_on channel=9 note=44 velocity=0 time=0.06385867968749999
EXTRACT: note_on channel=9 note=42 velocity=45 time=0.084239109375
EXTRACT: note_on channel=9 note=42 velocity=0 time=0.1290760546875
EXTRACT: note_on channel=7 note=35 velocity=68 time=0.13179344531249998
EXTRACT: note_on channel=9 note=44 velocity=110 time=0
EXTRACT: note_on channel=9 note=36 velocity=114 time=0
EXTRACT: note_on channel=9 note=40 velocity=115 time=0
EXTRACT: note_on channel=9 note=39 velocity=94 time=0
EXTRACT: note_on channel=7 note=35 velocity=0 time=0.013586953124999999
EXTRACT: note_on channel=3 note=79 velocity=0 time=0.033967382812499995
EXTRACT: note_on channel=4 note=79 velocity=0 time=0
EXTRACT: note_on channel=9 note=39 velocity=0 time=0.050271726562499994
EXTRACT: note_on channel=9 note=36 velocity=0 time=0.017663039062499997
EXTRACT: note_on channel=9 note=44 velocity=0 time=0.008152171875
EXTRACT: note_on channel=9 note=40 velocity=0 time=0.0013586953124999999
EXTRACT: note_on channel=9 note=42 velocity=53 time=0.13586953124999998
EXTRACT: note_on channel=9 note=42 velocity=0 time=0.12228257812499999
EXTRACT: note_on channel=6 note=55 velocity=0 time=0.008152171875
EXTRACT: note_on channel=7 note=39 velocity=115 time=0
EXTRACT: note_on channel=6 note=58 velocity=0 time=0.01630434375
EXTRACT: note_on channel=6 note=62 velocity=0 time=0.01630434375
EXTRACT: note_on channel=6 note=65 velocity=0 time=0.0095108671875
EXTRACT: note_on channel=7 note=39 velocity=0 time=0.040760859375
EXTRACT: note_on channel=6 note=57 velocity=94 time=0.0475543359375
EXTRACT: note_on channel=6 note=65 velocity=94 time=0
EXTRACT: note_on channel=6 note=62 velocity=94 time=0
EXTRACT: note_on channel=6 note=60 velocity=104 time=0
EXTRACT: note_on channel=7 note=41 velocity=127 time=0
EXTRACT: note_on channel=7 note=39 velocity=51 time=0
EXTRACT: note_on channel=9 note=36 velocity=114 time=0
EXTRACT: note_on channel=9 note=44 velocity=110 time=0
EXTRACT: note_on channel=7 note=39 velocity=0 time=0.013586953124999999
EXTRACT: note_on channel=9 note=36 velocity=0 time=0.11141301562499999
EXTRACT: note_on channel=7 note=41 velocity=0 time=0.024456515624999998
EXTRACT: note_on channel=9 note=44 velocity=0 time=0.043478249999999996
EXTRACT: note_on channel=9 note=42 velocity=53 time=0.06793476562499999
EXTRACT: note_on channel=9 note=42 velocity=0 time=0.1209238828125
EXTRACT: note_on channel=7 note=41 velocity=127 time=0.13994561718749998
EXTRACT: note_on channel=9 note=36 velocity=114 time=0
EXTRACT: note_on channel=9 note=44 velocity=110 time=0
EXTRACT: note_on channel=9 note=39 velocity=94 time=0
EXTRACT: note_on channel=9 note=40 velocity=115 time=0
EXTRACT: note_on channel=9 note=36 velocity=0 time=0.10190214843749999
EXTRACT: note_on channel=9 note=39 velocity=0 time=0.0027173906249999998
EXTRACT: note_on channel=9 note=40 velocity=0 time=0.006793476562499999
EXTRACT: note_on channel=9 note=44 velocity=0 time=0.0883151953125
EXTRACT: note_on channel=9 note=42 velocity=33 time=0.06114128906249999
EXTRACT: note_on channel=7 note=39 velocity=115 time=0.13043475
EXTRACT: note_on channel=9 note=42 velocity=0 time=0.006793476562499999
EXTRACT: note_on channel=7 note=41 velocity=0 time=0.024456515624999998
EXTRACT: note_on channel=7 note=39 velocity=0 time=0.0774456328125
EXTRACT: note_on channel=7 note=39 velocity=47 time=0.021739124999999998
EXTRACT: note_on channel=7 note=38 velocity=127 time=0
EXTRACT: note_on channel=9 note=44 velocity=110 time=0
EXTRACT: note_on channel=9 note=36 velocity=115 time=0
EXTRACT: note_on channel=7 note=39 velocity=0 time=0.012228257812499999
EXTRACT: note_on channel=7 note=38 velocity=0 time=0.06793476562499999
EXTRACT: note_on channel=9 note=36 velocity=0 time=0.012228257812499999
EXTRACT: note_on channel=9 note=44 velocity=0 time=0.09239128124999998
EXTRACT: note_on channel=7 note=38 velocity=127 time=0.0760869375
EXTRACT: note_on channel=9 note=42 velocity=33 time=0
EXTRACT: note_on channel=9 note=85 velocity=104 time=0
EXTRACT: note_on channel=9 note=39 velocity=53 time=0
EXTRACT: note_on channel=7 note=38 velocity=0 time=0.08152171875
EXTRACT: note_on channel=9 note=85 velocity=0 time=0.0095108671875
EXTRACT: note_on channel=9 note=39 velocity=0 time=0.019021734375
EXTRACT: note_on channel=9 note=42 velocity=0 time=0.010869562499999999
EXTRACT: note_on channel=7 note=38 velocity=127 time=0.13994561718749998
EXTRACT: note_on channel=9 note=44 velocity=110 time=0
EXTRACT: note_on channel=9 note=36 velocity=114 time=0
EXTRACT: note_on channel=9 note=39 velocity=104 time=0
EXTRACT: note_on channel=9 note=40 velocity=104 time=0
EXTRACT: note_on channel=9 note=39 velocity=0 time=0.0692934609375
EXTRACT: note_on channel=9 note=36 velocity=0 time=0.033967382812499995
EXTRACT: note_on channel=9 note=40 velocity=0 time=0.0013586953124999999
EXTRACT: note_on channel=9 note=44 velocity=0 time=0.058423898437499996
EXTRACT: note_on channel=7 note=36 velocity=127 time=0.09782606249999999
EXTRACT: note_on channel=9 note=42 velocity=33 time=0
EXTRACT: note_on channel=7 note=38 velocity=0 time=0.006793476562499999
EXTRACT: note_on channel=6 note=65 velocity=0 time=0.073369546875
EXTRACT: note_on channel=6 note=57 velocity=0 time=0.0095108671875
EXTRACT: note_on channel=6 note=60 velocity=0 time=0.01630434375
EXTRACT: note_on channel=9 note=42 velocity=0 time=0.0040760859375
EXTRACT: note_on channel=6 note=62 velocity=0 time=0.0054347812499999995
EXTRACT: note_on channel=7 note=36 velocity=0 time=0.0013586953124999999
EXTRACT: note_on channel=7 note=38 velocity=127 time=0.013586953124999999
EXTRACT: note_on channel=6 note=55 velocity=94 time=0.13043475
EXTRACT: note_on channel=6 note=62 velocity=94 time=0
EXTRACT: note_on channel=6 note=58 velocity=94 time=0
EXTRACT: note_on channel=7 note=31 velocity=104 time=0
EXTRACT: note_on channel=9 note=44 velocity=115 time=0
EXTRACT: note_on channel=9 note=36 velocity=110 time=0
EXTRACT: note_on channel=7 note=38 velocity=0 time=0.028532601562499996
EXTRACT: note_on channel=9 note=36 velocity=0 time=0.10054345312499999
EXTRACT: note_on channel=9 note=44 velocity=0 time=0.0801630234375
EXTRACT: note_on channel=7 note=31 velocity=0 time=0.0258152109375
EXTRACT: note_on channel=7 note=43 velocity=127 time=0.0258152109375
EXTRACT: note_on channel=9 note=42 velocity=52 time=0
EXTRACT: note_on channel=9 note=42 velocity=0 time=0.08967389062499999
EXTRACT: note_on channel=7 note=31 velocity=127 time=0.17119560937499997
EXTRACT: note_on channel=9 note=44 velocity=110 time=0
EXTRACT: note_on channel=9 note=36 velocity=114 time=0
EXTRACT: note_on channel=9 note=39 velocity=94 time=0
EXTRACT: note_on channel=9 note=40 velocity=104 time=0
EXTRACT: note_on channel=7 note=43 velocity=0 time=0.010869562499999999
EXTRACT: note_on channel=9 note=39 velocity=0 time=0.095108671875
EXTRACT: note_on channel=9 note=36 velocity=0 time=0.01630434375
EXTRACT: note_on channel=9 note=40 velocity=0 time=0.033967382812499995
EXTRACT: note_on channel=7 note=31 velocity=0 time=0.0095108671875
EXTRACT: note_on channel=9 note=44 velocity=0 time=0.013586953124999999
EXTRACT: note_on channel=7 note=31 velocity=127 time=0.08152171875
EXTRACT: note_on channel=9 note=42 velocity=35 time=0
EXTRACT: aftertouch channel=7 value=4 time=0.07880432812499999
EXTRACT: note_on channel=9 note=42 velocity=0 time=0.012228257812499999
EXTRACT: aftertouch channel=7 value=14 time=0.0027173906249999998
EXTRACT: aftertouch channel=7 value=20 time=0.014945648437499999
EXTRACT: aftertouch channel=7 value=24 time=0.01630434375
EXTRACT: aftertouch channel=7 value=20 time=0.0475543359375
EXTRACT: aftertouch channel=7 value=16 time=0.01630434375
EXTRACT: aftertouch channel=7 value=12 time=0.01630434375
EXTRACT: aftertouch channel=7 value=6 time=0.01630434375
EXTRACT: aftertouch channel=7 value=4 time=0.01630434375
EXTRACT: note_on channel=7 note=31 velocity=0 time=0.008152171875
EXTRACT: aftertouch channel=7 value=2 time=0.006793476562499999
EXTRACT: note_on channel=7 note=31 velocity=63 time=0.008152171875
EXTRACT: note_on channel=9 note=44 velocity=110 time=0
EXTRACT: note_on channel=9 note=36 velocity=114 time=0
EXTRACT: note_on channel=7 note=31 velocity=0 time=0.014945648437499999
EXTRACT: aftertouch channel=7 value=0 time=0.0013586953124999999
EXTRACT: note_on channel=9 note=36 velocity=0 time=0.09646736718749999
EXTRACT: note_on channel=9 note=44 velocity=0 time=0.06385867968749999
EXTRACT: note_on channel=9 note=42 velocity=45 time=0.084239109375
EXTRACT: note_on channel=9 note=42 velocity=0 time=0.1290760546875
EXTRACT: note_on channel=9 note=44 velocity=110 time=0.13179344531249998
EXTRACT: note_on channel=9 note=36 velocity=114 time=0
EXTRACT: note_on channel=9 note=40 velocity=115 time=0
EXTRACT: note_on channel=9 note=39 velocity=94 time=0
EXTRACT: note_on channel=9 note=39 velocity=0 time=0.09782606249999999
EXTRACT: note_on channel=9 note=36 velocity=0 time=0.017663039062499997
EXTRACT: note_on channel=9 note=44 velocity=0 time=0.008152171875
EXTRACT: note_on channel=9 note=40 velocity=0 time=0.0013586953124999999
EXTRACT: note_on channel=7 note=41 velocity=127 time=0.13586953124999998
EXTRACT: note_on channel=9 note=42 velocity=53 time=0
EXTRACT: note_on channel=9 note=42 velocity=0 time=0.12228257812499999
EXTRACT: note_on channel=7 note=43 velocity=115 time=0.008152171875
EXTRACT: note_on channel=7 note=41 velocity=0 time=0.0013586953124999999
EXTRACT: note_on channel=7 note=43 velocity=0 time=0.10326084375
EXTRACT: note_on channel=7 note=31 velocity=115 time=0.0258152109375
EXTRACT: note_on channel=9 note=36 velocity=114 time=0
EXTRACT: note_on channel=9 note=44 velocity=110 time=0
EXTRACT: note_on channel=7 note=31 velocity=0 time=0.08152171875
EXTRACT: note_on channel=9 note=36 velocity=0 time=0.043478249999999996
EXTRACT: note_on channel=7 note=43 velocity=127 time=0.0054347812499999995
EXTRACT: note_on channel=9 note=44 velocity=0 time=0.062499984375
EXTRACT: note_on channel=7 note=43 velocity=0 time=0.029891296874999997
EXTRACT: note_on channel=7 note=31 velocity=127 time=0.03804346875
EXTRACT: note_on channel=9 note=42 velocity=53 time=0
EXTRACT: note_on channel=9 note=42 velocity=0 time=0.1209238828125
EXTRACT: note_on channel=7 note=31 velocity=0 time=0.006793476562499999
EXTRACT: note_on channel=7 note=31 velocity=127 time=0.133152140625
EXTRACT: note_on channel=9 note=36 velocity=114 time=0
EXTRACT: note_on channel=9 note=44 velocity=110 time=0
EXTRACT: note_on channel=9 note=39 velocity=94 time=0
EXTRACT: note_on channel=9 note=40 velocity=115 time=0
EXTRACT: note_on channel=9 note=36 velocity=0 time=0.10190214843749999
EXTRACT: note_on channel=9 note=39 velocity=0 time=0.0027173906249999998
EXTRACT: note_on channel=9 note=40 velocity=0 time=0.006793476562499999
EXTRACT: note_on channel=7 note=31 velocity=0 time=0.05570650781249999
EXTRACT: note_on channel=9 note=44 velocity=0 time=0.0326086875
EXTRACT: note_on channel=7 note=31 velocity=127 time=0.06114128906249999
EXTRACT: note_on channel=9 note=42 velocity=33 time=0
EXTRACT: aftertouch channel=7 value=2 time=0.09646736718749999
EXTRACT: aftertouch channel=7 value=6 time=0.01630434375
EXTRACT: aftertouch channel=7 value=8 time=0.014945648437499999
EXTRACT: note_on channel=9 note=42 velocity=0 time=0.0095108671875
EXTRACT: aftertouch channel=7 value=6 time=0.039402164062499995
EXTRACT: aftertouch channel=7 value=2 time=0.014945648437499999
EXTRACT: note_on channel=7 note=31 velocity=0 time=0.006793476562499999
EXTRACT: aftertouch channel=7 value=0 time=0.0095108671875
EXTRACT: aftertouch channel=7 value=0 time=0.01630434375
EXTRACT: note_on channel=9 note=44 velocity=110 time=0.0366847734375
EXTRACT: note_on channel=9 note=36 velocity=115 time=0
EXTRACT: note_on channel=9 note=36 velocity=0 time=0.09239128124999998
EXTRACT: note_on channel=9 note=44 velocity=0 time=0.09239128124999998
EXTRACT: note_on channel=7 note=41 velocity=127 time=0.0760869375
EXTRACT: note_on channel=9 note=42 velocity=33 time=0
EXTRACT: note_on channel=9 note=85 velocity=104 time=0
EXTRACT: note_on channel=9 note=39 velocity=53 time=0
EXTRACT: note_on channel=7 note=43 velocity=115 time=0.065217375
EXTRACT: note_on channel=7 note=41 velocity=0 time=0.0203804296875
EXTRACT: note_on channel=9 note=85 velocity=0 time=0.0054347812499999995
EXTRACT: note_on channel=9 note=39 velocity=0 time=0.019021734375
EXTRACT: note_on channel=9 note=42 velocity=0 time=0.010869562499999999
EXTRACT: note_on channel=9 note=44 velocity=110 time=0.13994561718749998
EXTRACT: note_on channel=9 note=36 velocity=114 time=0
EXTRACT: note_on channel=9 note=39 velocity=104 time=0
EXTRACT: note_on channel=9 note=40 velocity=104 time=0
EXTRACT: note_on channel=6 note=58 velocity=0 time=0.028532601562499996
EXTRACT: note_on channel=6 note=55 velocity=0 time=0.008152171875
EXTRACT: note_on channel=6 note=62 velocity=0 time=0.013586953124999999
EXTRACT: note_on channel=9 note=39 velocity=0 time=0.019021734375
EXTRACT: note_on channel=9 note=36 velocity=0 time=0.033967382812499995
EXTRACT: note_on channel=9 note=40 velocity=0 time=0.0013586953124999999
EXTRACT: note_on channel=7 note=41 velocity=127 time=0.0258152109375
EXTRACT: note_on channel=7 note=43 velocity=0 time=0.017663039062499997
EXTRACT: note_on channel=9 note=44 velocity=0 time=0.014945648437499999
EXTRACT: note_on channel=9 note=42 velocity=33 time=0.09782606249999999
EXTRACT: note_on channel=9 note=42 velocity=0 time=0.1100543203125
EXTRACT: note_on channel=7 note=43 velocity=127 time=0.0203804296875
EXTRACT: note_on channel=7 note=41 velocity=0 time=0.0013586953124999999
EXTRACT: note_on channel=7 note=43 velocity=0 time=0.08559780468749999
EXTRACT: note_on channel=2 note=98 velocity=86 time=0.043478249999999996
EXTRACT: note_on channel=6 note=58 velocity=104 time=0
EXTRACT: note_on channel=6 note=55 velocity=94 time=0
EXTRACT: note_on channel=6 note=65 velocity=94 time=0
EXTRACT: note_on channel=6 note=62 velocity=94 time=0
EXTRACT: note_on channel=7 note=31 velocity=127 time=0
EXTRACT: note_on channel=9 note=46 velocity=115 time=0
EXTRACT: note_on channel=9 note=36 velocity=110 time=0
EXTRACT: note_on channel=2 note=98 velocity=0 time=0.0760869375
EXTRACT: aftertouch channel=7 value=6 time=0.021739124999999998
EXTRACT: note_on channel=9 note=36 velocity=0 time=0.0312499921875
EXTRACT: aftertouch channel=7 value=18 time=0.027173906249999998
EXTRACT: note_on channel=7 note=31 velocity=0 time=0.0040760859375
EXTRACT: aftertouch channel=7 value=16 time=0.0013586953124999999
EXTRACT: aftertouch channel=7 value=14 time=0.0203804296875
EXTRACT: control_change channel=6 control=64 value=127 time=0.012228257812499999
EXTRACT: aftertouch channel=7 value=8 time=0.0013586953124999999
EXTRACT: note_on channel=9 note=46 velocity=0 time=0.013586953124999999
EXTRACT: aftertouch channel=7 value=6 time=0.0040760859375
EXTRACT: aftertouch channel=7 value=2 time=0.014945648437499999
EXTRACT: aftertouch channel=7 value=0 time=0.014945648437499999
EXTRACT: aftertouch channel=7 value=0 time=0.01630434375
EXTRACT: note_on channel=7 note=43 velocity=127 time=0.0013586953124999999
EXTRACT: note_on channel=9 note=70 velocity=37 time=0
EXTRACT: note_on channel=9 note=70 velocity=0 time=0.08967389062499999
EXTRACT: note_on channel=7 note=43 velocity=0 time=0.010869562499999999
EXTRACT: note_on channel=2 note=98 velocity=79 time=0.160326046875
EXTRACT: note_on channel=7 note=34 velocity=127 time=0
EXTRACT: note_on channel=9 note=44 velocity=110 time=0
EXTRACT: note_on channel=9 note=36 velocity=114 time=0
EXTRACT: note_on channel=9 note=39 velocity=94 time=0
EXTRACT: note_on channel=9 note=40 velocity=104 time=0
EXTRACT: control_change channel=6 control=64 value=0 time=0.06114128906249999
EXTRACT: control_change channel=6 control=64 value=127 time=0.006793476562499999
EXTRACT: note_on channel=2 note=98 velocity=0 time=0.0013586953124999999
EXTRACT: note_on channel=6 note=55 velocity=0 time=0.0027173906249999998
EXTRACT: control_change channel=6 control=64 value=0 time=0.0013586953124999999
EXTRACT: note_on channel=6 note=58 velocity=0 time=0.006793476562499999
EXTRACT: note_on channel=6 note=65 velocity=0 time=0.006793476562499999
EXTRACT: note_on channel=6 note=62 velocity=0 time=0.0095108671875
EXTRACT: note_on channel=9 note=39 velocity=0 time=0.0095108671875
EXTRACT: note_on channel=9 note=36 velocity=0 time=0.01630434375
EXTRACT: note_on channel=9 note=40 velocity=0 time=0.033967382812499995
EXTRACT: note_on channel=9 note=44 velocity=0 time=0.023097820312499996
EXTRACT: note_on channel=7 note=34 velocity=0 time=0.062499984375
EXTRACT: note_on channel=6 note=65 velocity=94 time=0.019021734375
EXTRACT: note_on channel=6 note=55 velocity=79 time=0
EXTRACT: note_on channel=6 note=58 velocity=94 time=0
EXTRACT: note_on channel=6 note=62 velocity=104 time=0
EXTRACT: note_on channel=7 note=37 velocity=68 time=0
EXTRACT: note_on channel=7 note=39 velocity=127 time=0
EXTRACT: note_on channel=9 note=42 velocity=35 time=0
EXTRACT: note_on channel=7 note=37 velocity=0 time=0.0421195546875
EXTRACT: control_change channel=6 control=64 value=127 time=0.0326086875
EXTRACT: note_on channel=9 note=42 velocity=0 time=0.01630434375
EXTRACT: note_on channel=1 note=55 velocity=115 time=0.16983691406249998
EXTRACT: note_on channel=1 note=67 velocity=115 time=0
EXTRACT: note_on channel=2 note=98 velocity=79 time=0
EXTRACT: note_on channel=7 note=39 velocity=0 time=0
EXTRACT: note_on channel=7 note=39 velocity=104 time=0
EXTRACT: note_on channel=9 note=44 velocity=110 time=0
EXTRACT: note_on channel=9 note=36 velocity=114 time=0
EXTRACT: note_on channel=7 note=39 velocity=0 time=0.024456515624999998
EXTRACT: note_on channel=7 note=39 velocity=63 time=0.040760859375
EXTRACT: note_on channel=2 note=98 velocity=0 time=0.0054347812499999995
EXTRACT: note_on channel=7 note=39 velocity=0 time=0.013586953124999999
EXTRACT: note_on channel=9 note=36 velocity=0 time=0.028532601562499996
EXTRACT: note_on channel=1 note=67 velocity=0 time=0.0095108671875
EXTRACT: note_on channel=1 note=55 velocity=0 time=0
EXTRACT: note_on channel=9 note=44 velocity=0 time=0.054347812499999995
EXTRACT: note_on channel=1 note=55 velocity=104 time=0.084239109375
EXTRACT: note_on channel=1 note=67 velocity=104 time=0
EXTRACT: note_on channel=7 note=51 velocity=127 time=0
EXTRACT: note_on channel=9 note=42 velocity=45 time=0
EXTRACT: note_on channel=7 note=51 velocity=0 time=0.0801630234375
EXTRACT: note_on channel=9 note=42 velocity=0 time=0.048913031249999996
EXTRACT: note_on channel=1 note=67 velocity=0 time=0.012228257812499999
EXTRACT: note_on channel=1 note=55 velocity=0 time=0
EXTRACT: note_on channel=1 note=58 velocity=127 time=0.11956518749999999
EXTRACT: note_on channel=1 note=70 velocity=127 time=0
EXTRACT: note_on channel=2 note=98 velocity=68 time=0
EXTRACT: note_on channel=7 note=37 velocity=94 time=0
EXTRACT: note_on channel=7 note=39 velocity=127 time=0
EXTRACT: note_on channel=9 note=44 velocity=110 time=0
EXTRACT: note_on channel=9 note=36 velocity=114 time=0
EXTRACT: note_on channel=9 note=40 velocity=115 time=0
EXTRACT: note_on channel=9 note=39 velocity=94 time=0
EXTRACT: note_on channel=7 note=37 velocity=0 time=0.023097820312499996
EXTRACT: note_on channel=2 note=98 velocity=0 time=0.040760859375
EXTRACT: note_on channel=9 note=39 velocity=0 time=0.033967382812499995
EXTRACT: note_on channel=9 note=36 velocity=0 time=0.017663039062499997
EXTRACT: note_on channel=9 note=44 velocity=0 time=0.008152171875
EXTRACT: note_on channel=9 note=40 velocity=0 time=0.0013586953124999999
EXTRACT: note_on channel=9 note=42 velocity=53 time=0.13586953124999998
EXTRACT: note_on channel=1 note=70 velocity=0 time=0.039402164062499995
EXTRACT: note_on channel=1 note=58 velocity=0 time=0
EXTRACT: note_on channel=7 note=39 velocity=0 time=0.017663039062499997
EXTRACT: note_on channel=6 note=62 velocity=0 time=0.03804346875
EXTRACT: note_on channel=6 note=65 velocity=0 time=0.006793476562499999
EXTRACT: note_on channel=6 note=58 velocity=0 time=0.014945648437499999
EXTRACT: note_on channel=9 note=42 velocity=0 time=0.0054347812499999995
EXTRACT: note_on channel=1 note=55 velocity=104 time=0.008152171875
EXTRACT: note_on channel=1 note=67 velocity=104 time=0
EXTRACT: note_on channel=7 note=39 velocity=115 time=0
EXTRACT: note_on channel=6 note=55 velocity=0 time=0.006793476562499999
EXTRACT: control_change channel=6 control=64 value=0 time=0.0095108671875
EXTRACT: control_change channel=6 control=64 value=127 time=0.006793476562499999
EXTRACT: control_change channel=6 control=64 value=0 time=0.0054347812499999995
EXTRACT: note_on channel=1 note=67 velocity=0 time=0.07472824218749999
EXTRACT: note_on channel=1 note=55 velocity=0 time=0
EXTRACT: note_on channel=7 note=39 velocity=0 time=0.0258152109375
EXTRACT: note_on channel=1 note=62 velocity=115 time=0.0013586953124999999
EXTRACT: note_on channel=1 note=74 velocity=115 time=0
EXTRACT: note_on channel=2 note=98 velocity=63 time=0
EXTRACT: note_on channel=6 note=62 velocity=104 time=0
EXTRACT: note_on channel=6 note=65 velocity=104 time=0
EXTRACT: note_on channel=6 note=57 velocity=94 time=0
EXTRACT: note_on channel=6 note=60 velocity=104 time=0
EXTRACT: note_on channel=7 note=41 velocity=127 time=0
EXTRACT: note_on channel=9 note=36 velocity=114 time=0
EXTRACT: note_on channel=9 note=44 velocity=110 time=0
EXTRACT: note_on channel=2 note=98 velocity=0 time=0.07472824218749999
EXTRACT: note_on channel=1 note=74 velocity=0 time=0.029891296874999997
EXTRACT: note_on channel=1 note=62 velocity=0 time=0
EXTRACT: note_on channel=9 note=36 velocity=0 time=0.0203804296875
EXTRACT: control_change channel=6 control=64 value=127 time=0.013586953124999999
EXTRACT: note_on channel=7 note=41 velocity=0 time=0.019021734375
EXTRACT: note_on channel=9 note=44 velocity=0 time=0.03532607812499999
EXTRACT: note_on channel=1 note=62 velocity=94 time=0.06793476562499999
EXTRACT: note_on channel=1 note=74 velocity=94 time=0
EXTRACT: note_on channel=9 note=42 velocity=53 time=0
EXTRACT: note_on channel=9 note=42 velocity=0 time=0.1209238828125
EXTRACT: note_on channel=1 note=74 velocity=0 time=0.0095108671875
EXTRACT: note_on channel=1 note=62 velocity=0 time=0
EXTRACT: note_on channel=1 note=62 velocity=127 time=0.13043475
EXTRACT: note_on channel=1 note=74 velocity=127 time=0
EXTRACT: note_on channel=2 note=98 velocity=58 time=0
EXTRACT: note_on channel=7 note=41 velocity=127 time=0
EXTRACT: note_on channel=7 note=40 velocity=104 time=0
EXTRACT: note_on channel=9 note=36 velocity=114 time=0
EXTRACT: note_on channel=9 note=44 velocity=110 time=0
EXTRACT: note_on channel=9 note=39 velocity=94 time=0
EXTRACT: note_on channel=9 note=40 velocity=115 time=0
EXTRACT: note_on channel=7 note=40 velocity=0 time=0.0203804296875
EXTRACT: note_on channel=2 note=98 velocity=0 time=0.0421195546875
EXTRACT: note_on channel=9 note=36 velocity=0 time=0.039402164062499995
EXTRACT: note_on channel=9 note=39 velocity=0 time=0.0027173906249999998
EXTRACT: note_on channel=9 note=40 velocity=0 time=0.006793476562499999
EXTRACT: note_on channel=9 note=44 velocity=0 time=0.0883151953125
EXTRACT: note_on channel=9 note=42 velocity=33 time=0.06114128906249999
EXTRACT: note_on channel=1 note=74 velocity=0 time=0.0040760859375
EXTRACT: note_on channel=1 note=62 velocity=0 time=0
EXTRACT: note_on channel=7 note=39 velocity=104 time=0.1263586640625
EXTRACT: note_on channel=9 note=42 velocity=0 time=0.006793476562499999
EXTRACT: control_change channel=6 control=64 value=0 time=0.0054347812499999995
EXTRACT: note_on channel=6 note=57 velocity=0 time=0.0027173906249999998
EXTRACT: control_change channel=6 control=64 value=127 time=0.0027173906249999998
EXTRACT: note_on channel=6 note=65 velocity=0 time=0.0095108671875
EXTRACT: control_change channel=6 control=64 value=0 time=0.0013586953124999999
EXTRACT: note_on channel=6 note=62 velocity=0 time=0.006793476562499999
EXTRACT: note_on channel=6 note=60 velocity=0 time=0.008152171875
EXTRACT: note_on channel=7 note=41 velocity=0 time=0.0095108671875
EXTRACT: note_on channel=2 note=98 velocity=53 time=0.0774456328125
EXTRACT: note_on channel=6 note=57 velocity=86 time=0
EXTRACT: note_on channel=6 note=60 velocity=94 time=0
EXTRACT: note_on channel=6 note=62 velocity=94 time=0
EXTRACT: note_on channel=6 note=65 velocity=94 time=0
EXTRACT: note_on channel=7 note=38 velocity=127 time=0
EXTRACT: note_on channel=9 note=44 velocity=110 time=0
EXTRACT: note_on channel=9 note=36 velocity=115 time=0
EXTRACT: note_on channel=7 note=39 velocity=0 time=0.012228257812499999
EXTRACT: note_on channel=2 note=98 velocity=0 time=0.062499984375
EXTRACT: control_change channel=6 control=64 value=127 time=0.0027173906249999998
EXTRACT: note_on channel=7 note=38 velocity=0 time=0.0054347812499999995
EXTRACT: note_on channel=9 note=36 velocity=0 time=0.0095108671875
EXTRACT: note_on channel=9 note=44 velocity=0 time=0.09239128124999998
EXTRACT: note_on channel=7 note=38 velocity=127 time=0.0760869375
EXTRACT: note_on channel=9 note=42 velocity=33 time=0
EXTRACT: note_on channel=9 note=85 velocity=104 time=0
EXTRACT: note_on channel=9 note=39 velocity=53 time=0
EXTRACT: note_on channel=7 note=38 velocity=0 time=0.08152171875
EXTRACT: note_on channel=9 note=85 velocity=0 time=0.0095108671875
EXTRACT: note_on channel=9 note=39 velocity=0 time=0.019021734375
EXTRACT: note_on channel=9 note=42 velocity=0 time=0.010869562499999999
EXTRACT: note_on channel=2 note=98 velocity=48 time=0.13994561718749998
EXTRACT: note_on channel=7 note=38 velocity=127 time=0
EXTRACT: note_on channel=9 note=44 velocity=110 time=0
EXTRACT: note_on channel=9 note=36 velocity=114 time=0
EXTRACT: note_on channel=9 note=39 velocity=104 time=0
EXTRACT: note_on channel=9 note=40 velocity=104 time=0
EXTRACT: note_on channel=2 note=98 velocity=0 time=0.058423898437499996
EXTRACT: note_on channel=9 note=39 velocity=0 time=0.010869562499999999
EXTRACT: note_on channel=6 note=57 velocity=0 time=0.0040760859375
EXTRACT: note_on channel=9 note=36 velocity=0 time=0.029891296874999997
EXTRACT: note_on channel=9 note=40 velocity=0 time=0.0013586953124999999
EXTRACT: note_on channel=6 note=65 velocity=0 time=0.008152171875
EXTRACT: note_on channel=6 note=60 velocity=0 time=0.0054347812499999995
EXTRACT: note_on channel=6 note=62 velocity=0 time=0.010869562499999999
EXTRACT: note_on channel=9 note=44 velocity=0 time=0.033967382812499995
EXTRACT: note_on channel=7 note=36 velocity=127 time=0.09782606249999999
EXTRACT: note_on channel=9 note=42 velocity=33 time=0
EXTRACT: note_on channel=7 note=38 velocity=0 time=0.013586953124999999
EXTRACT: note_on channel=9 note=42 velocity=0 time=0.09646736718749999
EXTRACT: note_on channel=7 note=36 velocity=0 time=0.0095108671875
EXTRACT: note_on channel=7 note=38 velocity=94 time=0.010869562499999999
EXTRACT: control_change channel=6 control=64 value=0 time=0.08695649999999999
EXTRACT: control_change channel=6 control=64 value=127 time=0.0013586953124999999
EXTRACT: control_change channel=6 control=64 value=0 time=0.006793476562499999
EXTRACT: note_on channel=7 note=38 velocity=0 time=0.033967382812499995
EXTRACT: note_on channel=6 note=69 velocity=104 time=0.0013586953124999999
EXTRACT: note_on channel=6 note=60 velocity=94 time=0
EXTRACT: note_on channel=6 note=62 velocity=94 time=0
EXTRACT: note_on channel=7 note=31 velocity=115 time=0
EXTRACT: note_on channel=9 note=46 velocity=115 time=0
EXTRACT: note_on channel=9 note=36 velocity=110 time=0
EXTRACT: aftertouch channel=7 value=6 time=0.11413040624999998
EXTRACT: note_on channel=9 note=36 velocity=0 time=0.014945648437499999
EXTRACT: aftertouch channel=7 value=8 time=0.0013586953124999999
EXTRACT: control_change channel=6 control=64 value=127 time=0.021739124999999998
EXTRACT: aftertouch channel=7 value=2 time=0.0421195546875
EXTRACT: aftertouch channel=7 value=0 time=0.013586953124999999
EXTRACT: note_on channel=9 note=46 velocity=0 time=0.0013586953124999999
EXTRACT: note_on channel=6 note=69 velocity=0 time=0.0013586953124999999
EXTRACT: aftertouch channel=7 value=0 time=0.014945648437499999
EXTRACT: note_on channel=6 note=67 velocity=73 time=0.03532607812499999
EXTRACT: note_on channel=7 note=43 velocity=127 time=0
EXTRACT: note_on channel=9 note=70 velocity=37 time=0
EXTRACT: note_on channel=7 note=31 velocity=0 time=0.0054347812499999995
EXTRACT: note_on channel=6 note=62 velocity=0 time=0.04619564062499999
EXTRACT: note_on channel=7 note=43 velocity=0 time=0.027173906249999998
EXTRACT: note_on channel=9 note=70 velocity=0 time=0.010869562499999999
EXTRACT: note_on channel=6 note=67 velocity=0 time=0.09646736718749999
EXTRACT: note_on channel=6 note=65 velocity=104 time=0.07472824218749999
EXTRACT: note_on channel=7 note=34 velocity=127 time=0
EXTRACT: note_on channel=9 note=44 velocity=110 time=0
EXTRACT: note_on channel=9 note=36 velocity=114 time=0
EXTRACT: note_on channel=9 note=39 velocity=94 time=0
EXTRACT: note_on channel=9 note=40 velocity=104 time=0
EXTRACT: note_on channel=6 note=65 velocity=0 time=0.0883151953125
EXTRACT: control_change channel=6 control=64 value=0 time=0.006793476562499999
EXTRACT: note_on channel=6 note=60 velocity=0 time=0.0013586953124999999
EXTRACT: control_change channel=6 control=64 value=127 time=0.008152171875
EXTRACT: note_on channel=9 note=39 velocity=0 time=0.0013586953124999999
EXTRACT: control_change channel=6 control=64 value=0 time=0.0027173906249999998
EXTRACT: control_change channel=6 control=64 value=127 time=0.008152171875
EXTRACT: control_change channel=6 control=64 value=0 time=0.0040760859375
EXTRACT: note_on channel=9 note=36 velocity=0 time=0.0013586953124999999
EXTRACT: note_on channel=9 note=40 velocity=0 time=0.033967382812499995
EXTRACT: note_on channel=9 note=44 velocity=0 time=0.023097820312499996
EXTRACT: note_on channel=7 note=34 velocity=0 time=0.05570650781249999
EXTRACT: note_on channel=6 note=67 velocity=86 time=0.0258152109375
EXTRACT: note_on channel=6 note=62 velocity=104 time=0
EXTRACT: note_on channel=6 note=58 velocity=104 time=0
EXTRACT: note_on channel=7 note=39 velocity=127 time=0
EXTRACT: note_on channel=9 note=42 velocity=35 time=0
EXTRACT: note_on channel=9 note=42 velocity=0 time=0.0910325859375
EXTRACT: note_on channel=1 note=55 velocity=104 time=0.039402164062499995
EXTRACT: note_on channel=1 note=67 velocity=104 time=0
EXTRACT: control_change channel=6 control=64 value=127 time=0.024456515624999998
EXTRACT: note_on channel=1 note=67 velocity=0 time=0.09374997656249999
EXTRACT: note_on channel=1 note=55 velocity=0 time=0
EXTRACT: note_on channel=1 note=62 velocity=127 time=0.012228257812499999
EXTRACT: note_on channel=1 note=74 velocity=127 time=0
EXTRACT: note_on channel=9 note=44 velocity=110 time=0
EXTRACT: note_on channel=9 note=36 velocity=114 time=0
EXTRACT: note_on channel=7 note=39 velocity=0 time=0.0312499921875
EXTRACT: note_on channel=7 note=39 velocity=51 time=0.033967382812499995
EXTRACT: note_on channel=7 note=39 velocity=0 time=0.013586953124999999
EXTRACT: note_on channel=9 note=36 velocity=0 time=0.033967382812499995
EXTRACT: note_on channel=1 note=74 velocity=0 time=0.0203804296875
EXTRACT: note_on channel=1 note=62 velocity=0 time=0
EXTRACT: note_on channel=9 note=44 velocity=0 time=0.043478249999999996
EXTRACT: note_on channel=1 note=63 velocity=115 time=0.084239109375
EXTRACT: note_on channel=1 note=75 velocity=115 time=0
EXTRACT: note_on channel=7 note=51 velocity=127 time=0
EXTRACT: note_on channel=9 note=42 velocity=45 time=0
EXTRACT: note_on channel=7 note=51 velocity=0 time=0.050271726562499994
EXTRACT: note_on channel=1 note=75 velocity=0 time=0.0692934609375
EXTRACT: note_on channel=1 note=63 velocity=0 time=0
EXTRACT: note_on channel=9 note=42 velocity=0 time=0.0095108671875
EXTRACT: note_on channel=1 note=62 velocity=127 time=0.13179344531249998
EXTRACT: note_on channel=1 note=74 velocity=127 time=0
EXTRACT: note_on channel=7 note=39 velocity=115 time=0
EXTRACT: note_on channel=9 note=44 velocity=110 time=0
EXTRACT: note_on channel=9 note=36 velocity=114 time=0
EXTRACT: note_on channel=9 note=40 velocity=115 time=0
EXTRACT: note_on channel=9 note=39 velocity=94 time=0
EXTRACT: note_on channel=6 note=58 velocity=0 time=0.028532601562499996
EXTRACT: note_on channel=6 note=67 velocity=0 time=0.013586953124999999
EXTRACT: note_on channel=6 note=62 velocity=0 time=0.0095108671875
EXTRACT: note_on channel=9 note=39 velocity=0 time=0.04619564062499999
EXTRACT: note_on channel=9 note=36 velocity=0 time=0.017663039062499997
EXTRACT: note_on channel=9 note=44 velocity=0 time=0.008152171875
EXTRACT: note_on channel=9 note=40 velocity=0 time=0.0013586953124999999
EXTRACT: note_on channel=1 note=74 velocity=0 time=0.11413040624999998
EXTRACT: note_on channel=1 note=62 velocity=0 time=0
EXTRACT: note_on channel=1 note=58 velocity=104 time=0.021739124999999998
EXTRACT: note_on channel=1 note=70 velocity=104 time=0
EXTRACT: note_on channel=9 note=42 velocity=53 time=0
EXTRACT: note_on channel=7 note=39 velocity=0 time=0.039402164062499995
EXTRACT: note_on channel=7 note=39 velocity=55 time=0.0258152109375
EXTRACT: note_on channel=7 note=39 velocity=0 time=0.017663039062499997
EXTRACT: note_on channel=1 note=70 velocity=0 time=0.03532607812499999
EXTRACT: note_on channel=1 note=58 velocity=0 time=0
EXTRACT: note_on channel=9 note=42 velocity=0 time=0.0040760859375
EXTRACT: note_on channel=7 note=43 velocity=127 time=0.008152171875
EXTRACT: control_change channel=6 control=64 value=0 time=0.0801630234375
EXTRACT: control_change channel=6 control=64 value=127 time=0.006793476562499999
EXTRACT: control_change channel=6 control=64 value=0 time=0.0040760859375
EXTRACT: note_on channel=7 note=43 velocity=0 time=0.0203804296875
EXTRACT: note_on channel=1 note=60 velocity=127 time=0.019021734375
EXTRACT: note_on channel=1 note=72 velocity=127 time=0
EXTRACT: note_on channel=6 note=55 velocity=115 time=0
EXTRACT: note_on channel=6 note=64 velocity=104 time=0
EXTRACT: note_on channel=6 note=60 velocity=115 time=0
EXTRACT: note_on channel=7 note=45 velocity=104 time=0
EXTRACT: note_on channel=9 note=36 velocity=114 time=0
EXTRACT: note_on channel=9 note=44 velocity=110 time=0
EXTRACT: note_on channel=9 note=36 velocity=0 time=0.12499996875
EXTRACT: note_on channel=7 note=43 velocity=127 time=0.0054347812499999995
EXTRACT: note_on channel=7 note=45 velocity=0 time=0.008152171875
EXTRACT: note_on channel=9 note=44 velocity=0 time=0.054347812499999995
EXTRACT: note_on channel=7 note=43 velocity=0 time=0.05570650781249999
EXTRACT: note_on channel=7 note=45 velocity=115 time=0.012228257812499999
EXTRACT: note_on channel=9 note=42 velocity=53 time=0
EXTRACT: note_on channel=1 note=72 velocity=0 time=0.09239128124999998
EXTRACT: note_on channel=1 note=60 velocity=0 time=0
EXTRACT: note_on channel=9 note=42 velocity=0 time=0.028532601562499996
EXTRACT: note_on channel=7 note=45 velocity=0 time=0.008152171875
EXTRACT: note_on channel=7 note=43 velocity=115 time=0.0013586953124999999
EXTRACT: note_on channel=7 note=43 velocity=0 time=0.105978234375
EXTRACT: note_on channel=1 note=60 velocity=115 time=0.024456515624999998
EXTRACT: note_on channel=1 note=72 velocity=115 time=0
EXTRACT: note_on channel=7 note=45 velocity=127 time=0
EXTRACT: note_on channel=9 note=36 velocity=114 time=0
EXTRACT: note_on channel=9 note=44 velocity=110 time=0
EXTRACT: note_on channel=9 note=39 velocity=94 time=0
EXTRACT: note_on channel=9 note=40 velocity=115 time=0
EXTRACT: control_change channel=6 control=64 value=127 time=0.0027173906249999998
EXTRACT: note_on channel=1 note=74 velocity=115 time=0.062499984375
EXTRACT: note_on channel=1 note=72 velocity=0 time=0.0203804296875
EXTRACT: note_on channel=1 note=60 velocity=0 time=0
EXTRACT: note_on channel=9 note=36 velocity=0 time=0.01630434375
EXTRACT: note_on channel=9 note=39 velocity=0 time=0.0027173906249999998
EXTRACT: note_on channel=9 note=40 velocity=0 time=0.006793476562499999
EXTRACT: note_on channel=1 note=62 velocity=115 time=0.019021734375
EXTRACT: note_on channel=9 note=44 velocity=0 time=0.0692934609375
EXTRACT: note_on channel=7 note=45 velocity=0 time=0.0040760859375
EXTRACT: note_on channel=1 note=74 velocity=0 time=0.033967382812499995
EXTRACT: note_on channel=6 note=55 velocity=0 time=0.0040760859375
EXTRACT: note_on channel=1 note=60 velocity=127 time=0.019021734375
EXTRACT: note_on channel=1 note=72 velocity=127 time=0
EXTRACT: note_on channel=9 note=42 velocity=33 time=0
EXTRACT: note_on channel=6 note=64 velocity=0 time=0.008152171875
EXTRACT: note_on channel=6 note=60 velocity=0 time=0.023097820312499996
EXTRACT: note_on channel=1 note=62 velocity=0 time=0.010869562499999999
EXTRACT: note_on channel=7 note=43 velocity=127 time=0.0883151953125
EXTRACT: note_on channel=9 note=42 velocity=0 time=0.006793476562499999
EXTRACT: note_on channel=1 note=72 velocity=0 time=0.01630434375
EXTRACT: note_on channel=1 note=60 velocity=0 time=0
EXTRACT: control_change channel=6 control=64 value=0 time=0.006793476562499999
EXTRACT: control_change channel=6 control=64 value=127 time=0.0095108671875
EXTRACT: control_change channel=6 control=64 value=0 time=0.0040760859375
EXTRACT: note_on channel=7 note=43 velocity=0 time=0.03804346875
EXTRACT: note_on channel=6 note=64 velocity=104 time=0.048913031249999996
EXTRACT: note_on channel=6 note=55 velocity=104 time=0
EXTRACT: note_on channel=6 note=60 velocity=104 time=0
EXTRACT: note_on channel=7 note=45 velocity=127 time=0
EXTRACT: note_on channel=9 note=44 velocity=110 time=0
EXTRACT: note_on channel=9 note=36 velocity=115 time=0
EXTRACT: note_on channel=9 note=36 velocity=0 time=0.09239128124999998
EXTRACT: note_on channel=7 note=45 velocity=0 time=0.0013586953124999999
EXTRACT: control_change channel=6 control=64 value=127 time=0.07472824218749999
EXTRACT: note_on channel=9 note=44 velocity=0 time=0.01630434375
EXTRACT: note_on channel=7 note=38 velocity=127 time=0.0760869375
EXTRACT: note_on channel=9 note=42 velocity=33 time=0
EXTRACT: note_on channel=9 note=85 velocity=104 time=0
EXTRACT: note_on channel=9 note=39 velocity=53 time=0
EXTRACT: note_on channel=9 note=85 velocity=0 time=0.0910325859375
EXTRACT: note_on channel=9 note=39 velocity=0 time=0.019021734375
EXTRACT: note_on channel=9 note=42 velocity=0 time=0.010869562499999999
EXTRACT: note_on channel=6 note=55 velocity=0 time=0.105978234375
EXTRACT: note_on channel=7 note=38 velocity=0 time=0.01630434375
EXTRACT: note_on channel=6 note=64 velocity=0 time=0.0027173906249999998
EXTRACT: note_on channel=6 note=60 velocity=0 time=0.006793476562499999
EXTRACT: note_on channel=7 note=41 velocity=127 time=0.008152171875
EXTRACT: note_on channel=9 note=44 velocity=110 time=0
EXTRACT: note_on channel=9 note=36 velocity=114 time=0
EXTRACT: note_on channel=9 note=39 velocity=104 time=0
EXTRACT: note_on channel=9 note=40 velocity=104 time=0
EXTRACT: note_on channel=9 note=39 velocity=0 time=0.0692934609375
EXTRACT: note_on channel=9 note=36 velocity=0 time=0.033967382812499995
EXTRACT: note_on channel=9 note=40 velocity=0 time=0.0013586953124999999
EXTRACT: note_on channel=9 note=44 velocity=0 time=0.058423898437499996
EXTRACT: note_on channel=7 note=41 velocity=0 time=0.09646736718749999
EXTRACT: note_on channel=7 note=43 velocity=127 time=0.0013586953124999999
EXTRACT: note_on channel=9 note=42 velocity=33 time=0
EXTRACT: control_change channel=6 control=64 value=0 time=0.0883151953125
EXTRACT: control_change channel=6 control=64 value=127 time=0.008152171875
EXTRACT: control_change channel=6 control=64 value=0 time=0.0054347812499999995
EXTRACT: note_on channel=9 note=42 velocity=0 time=0.008152171875
EXTRACT: note_on channel=2 note=98 velocity=86 time=0.1508151796875
EXTRACT: note_on channel=6 note=58 velocity=104 time=0
EXTRACT: note_on channel=6 note=55 velocity=94 time=0
EXTRACT: note_on channel=6 note=65 velocity=94 time=0
EXTRACT: note_on channel=6 note=62 velocity=94 time=0
EXTRACT: note_on channel=7 note=31 velocity=115 time=0
EXTRACT: note_on channel=9 note=46 velocity=115 time=0
EXTRACT: note_on channel=9 note=36 velocity=110 time=0
EXTRACT: note_on channel=7 note=43 velocity=0 time=0.021739124999999998
EXTRACT: note_on channel=2 note=98 velocity=0 time=0.054347812499999995
EXTRACT: note_on channel=9 note=36 velocity=0 time=0.0529891171875
EXTRACT: control_change channel=6 control=64 value=127 time=0.065217375
EXTRACT: note_on channel=9 note=46 velocity=0 time=0.014945648437499999
EXTRACT: note_on channel=7 note=31 velocity=0 time=0.04619564062499999
EXTRACT: note_on channel=7 note=43 velocity=127 time=0.0054347812499999995
EXTRACT: note_on channel=9 note=70 velocity=37 time=0
EXTRACT: note_on channel=7 note=43 velocity=0 time=0.073369546875
EXTRACT: note_on channel=9 note=70 velocity=0 time=0.01630434375
EXTRACT: note_on channel=2 note=98 velocity=79 time=0.17119560937499997
EXTRACT: note_on channel=7 note=34 velocity=127 time=0
EXTRACT: note_on channel=9 note=44 velocity=110 time=0
EXTRACT: note_on channel=9 note=36 velocity=114 time=0
EXTRACT: note_on channel=9 note=39 velocity=94 time=0
EXTRACT: note_on channel=9 note=40 velocity=104 time=0
EXTRACT: control_change channel=6 control=64 value=0 time=0.06114128906249999
EXTRACT: control_change channel=6 control=64 value=127 time=0.006793476562499999
EXTRACT: note_on channel=2 note=98 velocity=0 time=0.0013586953124999999
EXTRACT: note_on channel=6 note=55 velocity=0 time=0.0027173906249999998
EXTRACT: control_change channel=6 control=64 value=0 time=0.0013586953124999999
EXTRACT: note_on channel=6 note=58 velocity=0 time=0.006793476562499999
EXTRACT: note_on channel=6 note=65 velocity=0 time=0.006793476562499999
EXTRACT: note_on channel=6 note=62 velocity=0 time=0.0095108671875
EXTRACT: note_on channel=9 note=39 velocity=0 time=0.0095108671875
EXTRACT: note_on channel=9 note=36 velocity=0 time=0.01630434375
EXTRACT: note_on channel=9 note=40 velocity=0 time=0.033967382812499995
EXTRACT: note_on channel=9 note=44 velocity=0 time=0.023097820312499996
EXTRACT: note_on channel=7 note=34 velocity=0 time=0.050271726562499994
EXTRACT: note_on channel=6 note=65 velocity=94 time=0.0312499921875
EXTRACT: note_on channel=6 note=55 velocity=79 time=0
EXTRACT: note_on channel=6 note=58 velocity=94 time=0
EXTRACT: note_on channel=6 note=62 velocity=104 time=0
EXTRACT: note_on channel=7 note=39 velocity=127 time=0
EXTRACT: note_on channel=9 note=42 velocity=35 time=0
EXTRACT: control_change channel=6 control=64 value=127 time=0.07472824218749999
EXTRACT: note_on channel=9 note=42 velocity=0 time=0.01630434375
EXTRACT: note_on channel=1 note=55 velocity=115 time=0.16983691406249998
EXTRACT: note_on channel=1 note=67 velocity=115 time=0
EXTRACT: note_on channel=2 note=98 velocity=79 time=0
EXTRACT: note_on channel=9 note=44 velocity=110 time=0
EXTRACT: note_on channel=9 note=36 velocity=114 time=0
EXTRACT: note_on channel=7 note=39 velocity=0 time=0.0312499921875
EXTRACT: note_on channel=7 note=39 velocity=63 time=0.033967382812499995
EXTRACT: note_on channel=2 note=98 velocity=0 time=0.0054347812499999995
EXTRACT: note_on channel=7 note=39 velocity=0 time=0.01630434375
EXTRACT: note_on channel=9 note=36 velocity=0 time=0.0258152109375
EXTRACT: note_on channel=1 note=67 velocity=0 time=0.03532607812499999
EXTRACT: note_on channel=1 note=55 velocity=0 time=0
EXTRACT: note_on channel=9 note=44 velocity=0 time=0.028532601562499996
EXTRACT: note_on channel=1 note=55 velocity=127 time=0.084239109375
EXTRACT: note_on channel=1 note=67 velocity=127 time=0
EXTRACT: note_on channel=7 note=51 velocity=127 time=0
EXTRACT: note_on channel=9 note=42 velocity=45 time=0
EXTRACT: note_on channel=7 note=51 velocity=0 time=0.054347812499999995
EXTRACT: note_on channel=9 note=42 velocity=0 time=0.07472824218749999
EXTRACT: note_on channel=1 note=67 velocity=0 time=0.0326086875
EXTRACT: note_on channel=1 note=55 velocity=0 time=0
EXTRACT: note_on channel=1 note=58 velocity=127 time=0.0991847578125
EXTRACT: note_on channel=1 note=70 velocity=127 time=0
EXTRACT: note_on channel=2 note=98 velocity=68 time=0
EXTRACT: note_on channel=7 note=39 velocity=127 time=0
EXTRACT: note_on channel=9 note=44 velocity=110 time=0
EXTRACT: note_on channel=9 note=36 velocity=114 time=0
EXTRACT: note_on channel=9 note=40 velocity=115 time=0
EXTRACT: note_on channel=9 note=39 velocity=94 time=0
EXTRACT: note_on channel=2 note=98 velocity=0 time=0.06385867968749999
EXTRACT: note_on channel=9 note=39 velocity=0 time=0.033967382812499995
EXTRACT: note_on channel=9 note=36 velocity=0 time=0.017663039062499997
EXTRACT: note_on channel=9 note=44 velocity=0 time=0.008152171875
EXTRACT: note_on channel=9 note=40 velocity=0 time=0.0013586953124999999
EXTRACT: note_on channel=9 note=42 velocity=53 time=0.13586953124999998
EXTRACT: note_on channel=7 note=39 velocity=0 time=0.043478249999999996
EXTRACT: note_on channel=6 note=62 velocity=0 time=0.051630421875
EXTRACT: note_on channel=6 note=65 velocity=0 time=0.006793476562499999
EXTRACT: note_on channel=1 note=70 velocity=0 time=0.010869562499999999
EXTRACT: note_on channel=1 note=58 velocity=0 time=0
EXTRACT: note_on channel=6 note=58 velocity=0 time=0.0040760859375
EXTRACT: note_on channel=9 note=42 velocity=0 time=0.0054347812499999995
EXTRACT: note_on channel=1 note=55 velocity=115 time=0.008152171875
EXTRACT: note_on channel=1 note=67 velocity=115 time=0
EXTRACT: note_on channel=7 note=39 velocity=73 time=0
EXTRACT: note_on channel=6 note=55 velocity=0 time=0.006793476562499999
EXTRACT: control_change channel=6 control=64 value=0 time=0.0095108671875
EXTRACT: control_change channel=6 control=64 value=127 time=0.006793476562499999
EXTRACT: control_change channel=6 control=64 value=0 time=0.0054347812499999995
EXTRACT: note_on channel=1 note=67 velocity=0 time=0.06385867968749999
EXTRACT: note_on channel=1 note=55 velocity=0 time=0
EXTRACT: note_on channel=7 note=39 velocity=0 time=0.014945648437499999
EXTRACT: note_on channel=1 note=62 velocity=115 time=0.023097820312499996
EXTRACT: note_on channel=1 note=74 velocity=115 time=0
EXTRACT: note_on channel=2 note=98 velocity=63 time=0
EXTRACT: note_on channel=6 note=62 velocity=104 time=0
EXTRACT: note_on channel=6 note=65 velocity=104 time=0
EXTRACT: note_on channel=6 note=57 velocity=94 time=0
EXTRACT: note_on channel=6 note=60 velocity=104 time=0
EXTRACT: note_on channel=7 note=41 velocity=127 time=0
EXTRACT: note_on channel=9 note=36 velocity=114 time=0
EXTRACT: note_on channel=9 note=44 velocity=110 time=0
EXTRACT: note_on channel=2 note=98 velocity=0 time=0.07472824218749999
EXTRACT: note_on channel=1 note=74 velocity=0 time=0.043478249999999996
EXTRACT: note_on channel=1 note=62 velocity=0 time=0
EXTRACT: note_on channel=9 note=36 velocity=0 time=0.006793476562499999
EXTRACT: control_change channel=6 control=64 value=127 time=0.013586953124999999
EXTRACT: note_on channel=7 note=41 velocity=0 time=0.021739124999999998
EXTRACT: note_on channel=9 note=44 velocity=0 time=0.0326086875
EXTRACT: note_on channel=1 note=62 velocity=115 time=0.06793476562499999
EXTRACT: note_on channel=1 note=74 velocity=115 time=0
EXTRACT: note_on channel=9 note=42 velocity=53 time=0
EXTRACT: note_on channel=9 note=42 velocity=0 time=0.1209238828125
EXTRACT: note_on channel=1 note=74 velocity=0 time=0.0040760859375
EXTRACT: note_on channel=1 note=62 velocity=0 time=0
EXTRACT: note_on channel=1 note=60 velocity=115 time=0.13586953124999998
EXTRACT: note_on channel=1 note=72 velocity=115 time=0
EXTRACT: note_on channel=2 note=98 velocity=58 time=0
EXTRACT: note_on channel=7 note=41 velocity=127 time=0
EXTRACT: note_on channel=9 note=36 velocity=114 time=0
EXTRACT: note_on channel=9 note=44 velocity=110 time=0
EXTRACT: note_on channel=9 note=39 velocity=94 time=0
EXTRACT: note_on channel=9 note=40 velocity=115 time=0
EXTRACT: note_on channel=2 note=98 velocity=0 time=0.062499984375
EXTRACT: note_on channel=1 note=74 velocity=115 time=0.0027173906249999998
EXTRACT: note_on channel=1 note=72 velocity=0 time=0.027173906249999998
EXTRACT: note_on channel=1 note=60 velocity=0 time=0
EXTRACT: note_on channel=9 note=36 velocity=0 time=0.0095108671875
EXTRACT: note_on channel=9 note=39 velocity=0 time=0.0027173906249999998
EXTRACT: note_on channel=9 note=40 velocity=0 time=0.006793476562499999
EXTRACT: note_on channel=1 note=62 velocity=115 time=0.019021734375
EXTRACT: note_on channel=9 note=44 velocity=0 time=0.0692934609375
EXTRACT: note_on channel=1 note=74 velocity=0 time=0.0421195546875
EXTRACT: note_on channel=9 note=42 velocity=33 time=0.019021734375
EXTRACT: note_on channel=1 note=62 velocity=0 time=0.04619564062499999
EXTRACT: pitchwheel channel=7 pitch=-1664 time=0.06385867968749999
EXTRACT: pitchwheel channel=7 pitch=-8192 time=0.01630434375
EXTRACT: note_on channel=9 note=42 velocity=0 time=0.010869562499999999
EXTRACT: control_change channel=6 control=64 value=0 time=0.0054347812499999995
EXTRACT: note_on channel=6 note=57 velocity=0 time=0.0027173906249999998
EXTRACT: control_change channel=6 control=64 value=127 time=0.0027173906249999998
EXTRACT: note_on channel=6 note=65 velocity=0 time=0.0095108671875
EXTRACT: control_change channel=6 control=64 value=0 time=0.0013586953124999999
EXTRACT: note_on channel=6 note=62 velocity=0 time=0.006793476562499999
EXTRACT: note_on channel=6 note=60 velocity=0 time=0.008152171875
EXTRACT: pitchwheel channel=7 pitch=-5376 time=0.06385867968749999
EXTRACT: pitchwheel channel=7 pitch=0 time=0.01630434375
EXTRACT: note_on channel=7 note=41 velocity=0 time=0.0054347812499999995
EXTRACT: note_on channel=2 note=98 velocity=53 time=0.0013586953124999999
EXTRACT: note_on channel=6 note=57 velocity=86 time=0
EXTRACT: note_on channel=6 note=60 velocity=94 time=0
EXTRACT: note_on channel=6 note=62 velocity=94 time=0
EXTRACT: note_on channel=6 note=65 velocity=94 time=0
EXTRACT: note_on channel=7 note=38 velocity=127 time=0
EXTRACT: note_on channel=9 note=44 velocity=110 time=0
EXTRACT: note_on channel=9 note=36 velocity=115 time=0
EXTRACT: note_on channel=2 note=98 velocity=0 time=0.07472824218749999
EXTRACT: control_change channel=6 control=64 value=127 time=0.0027173906249999998
EXTRACT: note_on channel=7 note=38 velocity=0 time=0.008152171875
EXTRACT: note_on channel=9 note=36 velocity=0 time=0.006793476562499999
EXTRACT: note_on channel=9 note=44 velocity=0 time=0.09239128124999998
EXTRACT: note_on channel=7 note=38 velocity=127 time=0.0760869375
EXTRACT: note_on channel=9 note=42 velocity=33 time=0
EXTRACT: note_on channel=9 note=85 velocity=104 time=0
EXTRACT: note_on channel=9 note=39 velocity=53 time=0
EXTRACT: note_on channel=7 note=38 velocity=0 time=0.08559780468749999
EXTRACT: note_on channel=9 note=85 velocity=0 time=0.0054347812499999995
EXTRACT: note_on channel=9 note=39 velocity=0 time=0.019021734375
EXTRACT: note_on channel=9 note=42 velocity=0 time=0.010869562499999999
EXTRACT: note_on channel=2 note=98 velocity=48 time=0.13994561718749998
EXTRACT: note_on channel=7 note=38 velocity=127 time=0
EXTRACT: note_on channel=9 note=44 velocity=110 time=0
EXTRACT: note_on channel=9 note=36 velocity=114 time=0
EXTRACT: note_on channel=9 note=39 velocity=104 time=0
EXTRACT: note_on channel=9 note=40 velocity=104 time=0
EXTRACT: note_on channel=2 note=98 velocity=0 time=0.058423898437499996
EXTRACT: note_on channel=9 note=39 velocity=0 time=0.010869562499999999
EXTRACT: note_on channel=6 note=57 velocity=0 time=0.0040760859375
EXTRACT: note_on channel=9 note=36 velocity=0 time=0.029891296874999997
EXTRACT: note_on channel=9 note=40 velocity=0 time=0.0013586953124999999
EXTRACT: note_on channel=6 note=65 velocity=0 time=0.008152171875
EXTRACT: note_on channel=6 note=60 velocity=0 time=0.0054347812499999995
EXTRACT: note_on channel=6 note=62 velocity=0 time=0.010869562499999999
EXTRACT: note_on channel=9 note=44 velocity=0 time=0.033967382812499995
EXTRACT: note_on channel=7 note=38 velocity=0 time=0.08967389062499999
EXTRACT: note_on channel=7 note=36 velocity=127 time=0.008152171875
EXTRACT: note_on channel=9 note=42 velocity=33 time=0
EXTRACT: note_on channel=7 note=36 velocity=0 time=0.1100543203125
EXTRACT: note_on channel=9 note=42 velocity=0 time=0
EXTRACT: note_on channel=7 note=38 velocity=127 time=0.0203804296875
EXTRACT: control_change channel=6 control=64 value=0 time=0.08695649999999999
EXTRACT: control_change channel=6 control=64 value=127 time=0.0013586953124999999
EXTRACT: control_change channel=6 control=64 value=0 time=0.006793476562499999
EXTRACT: note_on channel=7 note=38 velocity=0 time=0.0203804296875
EXTRACT: note_on channel=6 note=69 velocity=104 time=0.014945648437499999
EXTRACT: note_on channel=6 note=60 velocity=94 time=0
EXTRACT: note_on channel=6 note=62 velocity=94 time=0
EXTRACT: note_on channel=7 note=31 velocity=115 time=0
EXTRACT: note_on channel=9 note=46 velocity=115 time=0
EXTRACT: note_on channel=9 note=36 velocity=110 time=0
EXTRACT: aftertouch channel=7 value=2 time=0.09239128124999998
EXTRACT: aftertouch channel=7 value=6 time=0.01630434375
EXTRACT: aftertouch channel=7 value=10 time=0.014945648437499999
EXTRACT: note_on channel=9 note=36 velocity=0 time=0.0054347812499999995
EXTRACT: control_change channel=6 control=64 value=127 time=0.023097820312499996
EXTRACT: aftertouch channel=7 value=6 time=0.0203804296875
EXTRACT: aftertouch channel=7 value=4 time=0.014945648437499999
EXTRACT: aftertouch channel=7 value=2 time=0.01630434375
EXTRACT: note_on channel=9 note=46 velocity=0 time=0.0054347812499999995
EXTRACT: note_on channel=6 note=69 velocity=0 time=0.0013586953124999999
EXTRACT: aftertouch channel=7 value=0 time=0.0095108671875
EXTRACT: note_on channel=6 note=67 velocity=73 time=0.040760859375
EXTRACT: note_on channel=7 note=43 velocity=127 time=0
EXTRACT: note_on channel=9 note=70 velocity=37 time=0
EXTRACT: note_on channel=7 note=31 velocity=0 time=0.0095108671875
EXTRACT: note_on channel=6 note=62 velocity=0 time=0.0421195546875
EXTRACT: note_on channel=9 note=70 velocity=0 time=0.03804346875
EXTRACT: note_on channel=7 note=43 velocity=0 time=0.027173906249999998
EXTRACT: note_on channel=6 note=67 velocity=0 time=0.0692934609375
EXTRACT: note_on channel=6 note=65 velocity=104 time=0.07472824218749999
EXTRACT: note_on channel=7 note=34 velocity=104 time=0
EXTRACT: note_on channel=9 note=44 velocity=110 time=0
EXTRACT: note_on channel=9 note=36 velocity=114 time=0
EXTRACT: note_on channel=9 note=39 velocity=94 time=0
EXTRACT: note_on channel=9 note=40 velocity=104 time=0
EXTRACT: note_on channel=6 note=65 velocity=0 time=0.0883151953125
EXTRACT: control_change channel=6 control=64 value=0 time=0.006793476562499999
EXTRACT: note_on channel=6 note=60 velocity=0 time=0.0013586953124999999
EXTRACT: control_change channel=6 control=64 value=127 time=0.008152171875
EXTRACT: note_on channel=9 note=39 velocity=0 time=0.0013586953124999999
EXTRACT: control_change channel=6 control=64 value=0 time=0.0027173906249999998
EXTRACT: control_change channel=6 control=64 value=127 time=0.008152171875
EXTRACT: control_change channel=6 control=64 value=0 time=0.0040760859375
EXTRACT: note_on channel=9 note=36 velocity=0 time=0.0013586953124999999
EXTRACT: note_on channel=9 note=40 velocity=0 time=0.033967382812499995
EXTRACT: note_on channel=9 note=44 velocity=0 time=0.023097820312499996
EXTRACT: note_on channel=7 note=34 velocity=0 time=0.044836945312499994
EXTRACT: note_on channel=6 note=67 velocity=86 time=0.0366847734375
EXTRACT: note_on channel=6 note=62 velocity=104 time=0
EXTRACT: note_on channel=6 note=58 velocity=104 time=0
EXTRACT: note_on channel=7 note=39 velocity=127 time=0
EXTRACT: note_on channel=9 note=42 velocity=35 time=0
EXTRACT: note_on channel=9 note=42 velocity=0 time=0.0910325859375
EXTRACT: note_on channel=1 note=55 velocity=79 time=0.039402164062499995
EXTRACT: note_on channel=1 note=67 velocity=79 time=0
EXTRACT: control_change channel=6 control=64 value=127 time=0.024456515624999998
EXTRACT: note_on channel=1 note=67 velocity=0 time=0.06114128906249999
EXTRACT: note_on channel=1 note=55 velocity=0 time=0
EXTRACT: note_on channel=1 note=62 velocity=127 time=0.044836945312499994
EXTRACT: note_on channel=1 note=74 velocity=127 time=0
EXTRACT: note_on channel=9 note=44 velocity=110 time=0
EXTRACT: note_on channel=9 note=36 velocity=114 time=0
EXTRACT: note_on channel=7 note=39 velocity=0 time=0.040760859375
EXTRACT: note_on channel=7 note=39 velocity=68 time=0.024456515624999998
EXTRACT: note_on channel=7 note=39 velocity=0 time=0.021739124999999998
EXTRACT: note_on channel=9 note=36 velocity=0 time=0.0258152109375
EXTRACT: note_on channel=1 note=74 velocity=0 time=0.021739124999999998
EXTRACT: note_on channel=1 note=62 velocity=0 time=0
EXTRACT: note_on channel=9 note=44 velocity=0 time=0.0421195546875
EXTRACT: note_on channel=1 note=63 velocity=115 time=0.084239109375
EXTRACT: note_on channel=1 note=75 velocity=115 time=0
EXTRACT: note_on channel=7 note=51 velocity=127 time=0
EXTRACT: note_on channel=9 note=42 velocity=45 time=0
EXTRACT: note_on channel=7 note=51 velocity=0 time=0.0421195546875
EXTRACT: note_on channel=1 note=75 velocity=0 time=0.062499984375
EXTRACT: note_on channel=1 note=63 velocity=0 time=0
EXTRACT: note_on channel=9 note=42 velocity=0 time=0.024456515624999998
EXTRACT: note_on channel=1 note=62 velocity=127 time=0.13179344531249998
EXTRACT: note_on channel=1 note=74 velocity=127 time=0
EXTRACT: note_on channel=7 note=39 velocity=127 time=0
EXTRACT: note_on channel=9 note=44 velocity=110 time=0
EXTRACT: note_on channel=9 note=36 velocity=114 time=0
EXTRACT: note_on channel=9 note=40 velocity=115 time=0
EXTRACT: note_on channel=9 note=39 velocity=94 time=0
EXTRACT: note_on channel=6 note=58 velocity=0 time=0.028532601562499996
EXTRACT: note_on channel=6 note=67 velocity=0 time=0.013586953124999999
EXTRACT: note_on channel=6 note=62 velocity=0 time=0.0095108671875
EXTRACT: note_on channel=9 note=39 velocity=0 time=0.04619564062499999
EXTRACT: note_on channel=9 note=36 velocity=0 time=0.017663039062499997
EXTRACT: note_on channel=9 note=44 velocity=0 time=0.008152171875
EXTRACT: note_on channel=9 note=40 velocity=0 time=0.0013586953124999999
EXTRACT: note_on channel=1 note=74 velocity=0 time=0.10461953906249999
EXTRACT: note_on channel=1 note=62 velocity=0 time=0
EXTRACT: note_on channel=1 note=58 velocity=104 time=0.0312499921875
EXTRACT: note_on channel=1 note=70 velocity=104 time=0
EXTRACT: note_on channel=9 note=42 velocity=53 time=0
EXTRACT: note_on channel=7 note=39 velocity=0 time=0.014945648437499999
EXTRACT: note_on channel=1 note=70 velocity=0 time=0.09782606249999999
EXTRACT: note_on channel=1 note=58 velocity=0 time=0
EXTRACT: note_on channel=9 note=42 velocity=0 time=0.0095108671875
EXTRACT: note_on channel=7 note=43 velocity=127 time=0.008152171875
EXTRACT: control_change channel=6 control=64 value=0 time=0.0801630234375
EXTRACT: control_change channel=6 control=64 value=127 time=0.006793476562499999
EXTRACT: control_change channel=6 control=64 value=0 time=0.0040760859375
EXTRACT: note_on channel=7 note=43 velocity=0 time=0.012228257812499999
EXTRACT: note_on channel=1 note=60 velocity=127 time=0.027173906249999998
EXTRACT: note_on channel=1 note=72 velocity=127 time=0
EXTRACT: note_on channel=6 note=55 velocity=115 time=0
EXTRACT: note_on channel=6 note=64 velocity=104 time=0
EXTRACT: note_on channel=6 note=60 velocity=115 time=0
EXTRACT: note_on channel=7 note=45 velocity=115 time=0
EXTRACT: note_on channel=9 note=36 velocity=114 time=0
EXTRACT: note_on channel=9 note=44 velocity=110 time=0
EXTRACT: note_on channel=7 note=45 velocity=0 time=0.1100543203125
EXTRACT: note_on channel=9 note=36 velocity=0 time=0.014945648437499999
EXTRACT: note_on channel=7 note=43 velocity=127 time=0.0054347812499999995
EXTRACT: note_on channel=9 note=44 velocity=0 time=0.062499984375
EXTRACT: note_on channel=7 note=43 velocity=0 time=0.03804346875
EXTRACT: note_on channel=7 note=45 velocity=115 time=0.029891296874999997
EXTRACT: note_on channel=9 note=42 velocity=53 time=0
EXTRACT: note_on channel=1 note=72 velocity=0 time=0.0883151953125
EXTRACT: note_on channel=1 note=60 velocity=0 time=0
EXTRACT: note_on channel=9 note=42 velocity=0 time=0.0326086875
EXTRACT: note_on channel=7 note=45 velocity=0 time=0.0054347812499999995
EXTRACT: note_on channel=7 note=43 velocity=104 time=0.0040760859375
EXTRACT: note_on channel=7 note=43 velocity=0 time=0.10190214843749999
EXTRACT: note_on channel=1 note=60 velocity=94 time=0.028532601562499996
EXTRACT: note_on channel=1 note=72 velocity=94 time=0
EXTRACT: note_on channel=7 note=45 velocity=127 time=0
EXTRACT: note_on channel=9 note=36 velocity=114 time=0
EXTRACT: note_on channel=9 note=44 velocity=110 time=0
EXTRACT: note_on channel=9 note=39 velocity=94 time=0
EXTRACT: note_on channel=9 note=40 velocity=115 time=0
EXTRACT: control_change channel=6 control=64 value=127 time=0.0027173906249999998
EXTRACT: note_on channel=1 note=74 velocity=104 time=0.062499984375
EXTRACT: note_on channel=1 note=72 velocity=0 time=0.01630434375
EXTRACT: note_on channel=1 note=60 velocity=0 time=0
EXTRACT: note_on channel=9 note=36 velocity=0 time=0.0203804296875
EXTRACT: note_on channel=9 note=39 velocity=0 time=0.0027173906249999998
EXTRACT: note_on channel=9 note=40 velocity=0 time=0.006793476562499999
EXTRACT: note_on channel=1 note=62 velocity=104 time=0.019021734375
EXTRACT: note_on channel=7 note=45 velocity=0 time=0.039402164062499995
EXTRACT: note_on channel=9 note=44 velocity=0 time=0.029891296874999997
EXTRACT: note_on channel=1 note=74 velocity=0 time=0.0366847734375
EXTRACT: note_on channel=6 note=55 velocity=0 time=0.0054347812499999995
EXTRACT: note_on channel=1 note=60 velocity=94 time=0.019021734375
EXTRACT: note_on channel=1 note=72 velocity=94 time=0
EXTRACT: note_on channel=9 note=42 velocity=33 time=0
EXTRACT: note_on channel=6 note=64 velocity=0 time=0.008152171875
EXTRACT: note_on channel=6 note=60 velocity=0 time=0.023097820312499996
EXTRACT: note_on channel=1 note=62 velocity=0 time=0.0095108671875
EXTRACT: note_on channel=1 note=72 velocity=0 time=0.0692934609375
EXTRACT: note_on channel=1 note=60 velocity=0 time=0
EXTRACT: note_on channel=7 note=43 velocity=127 time=0.0203804296875
EXTRACT: note_on channel=9 note=42 velocity=0 time=0.006793476562499999
EXTRACT: control_change channel=6 control=64 value=0 time=0.023097820312499996
EXTRACT: control_change channel=6 control=64 value=127 time=0.0095108671875
EXTRACT: control_change channel=6 control=64 value=0 time=0.0040760859375
EXTRACT: note_on channel=7 note=43 velocity=0 time=0.033967382812499995
EXTRACT: note_on channel=6 note=64 velocity=104 time=0.0529891171875
EXTRACT: note_on channel=6 note=55 velocity=104 time=0
EXTRACT: note_on channel=6 note=60 velocity=104 time=0
EXTRACT: note_on channel=7 note=45 velocity=127 time=0
EXTRACT: note_on channel=9 note=44 velocity=110 time=0
EXTRACT: note_on channel=9 note=36 velocity=115 time=0
EXTRACT: note_on channel=9 note=36 velocity=0 time=0.09239128124999998
EXTRACT: note_on channel=7 note=45 velocity=0 time=0.013586953124999999
EXTRACT: control_change channel=6 control=64 value=127 time=0.062499984375
EXTRACT: note_on channel=9 note=44 velocity=0 time=0.01630434375
EXTRACT: note_on channel=7 note=38 velocity=127 time=0.0760869375
EXTRACT: note_on channel=9 note=42 velocity=33 time=0
EXTRACT: note_on channel=9 note=85 velocity=104 time=0
EXTRACT: note_on channel=9 note=39 velocity=53 time=0
EXTRACT: note_on channel=9 note=85 velocity=0 time=0.0910325859375
EXTRACT: note_on channel=9 note=39 velocity=0 time=0.019021734375
EXTRACT: note_on channel=9 note=42 velocity=0 time=0.010869562499999999
EXTRACT: note_on channel=6 note=55 velocity=0 time=0.105978234375
EXTRACT: note_on channel=6 note=64 velocity=0 time=0.019021734375
EXTRACT: note_on channel=6 note=60 velocity=0 time=0.006793476562499999
EXTRACT: note_on channel=7 note=38 velocity=0 time=0.0054347812499999995
EXTRACT: note_on channel=7 note=38 velocity=86 time=0.0027173906249999998
EXTRACT: note_on channel=7 note=41 velocity=127 time=0
EXTRACT: note_on channel=9 note=44 velocity=110 time=0
EXTRACT: note_on channel=9 note=36 velocity=114 time=0
EXTRACT: note_on channel=9 note=39 velocity=104 time=0
EXTRACT: note_on channel=9 note=40 velocity=104 time=0
EXTRACT: note_on channel=7 note=38 velocity=0 time=0.024456515624999998
EXTRACT: note_on channel=9 note=39 velocity=0 time=0.044836945312499994
EXTRACT: note_on channel=9 note=36 velocity=0 time=0.033967382812499995
EXTRACT: note_on channel=9 note=40 velocity=0 time=0.0013586953124999999
EXTRACT: note_on channel=9 note=44 velocity=0 time=0.058423898437499996
EXTRACT: note_on channel=7 note=43 velocity=127 time=0.09782606249999999
EXTRACT: note_on channel=9 note=42 velocity=33 time=0
EXTRACT: note_on channel=7 note=41 velocity=0 time=0.010869562499999999
EXTRACT: control_change channel=6 control=64 value=0 time=0.0774456328125
EXTRACT: control_change channel=6 control=64 value=127 time=0.008152171875
EXTRACT: control_change channel=6 control=64 value=0 time=0.0054347812499999995
EXTRACT: note_on channel=9 note=42 velocity=0 time=0.008152171875
EXTRACT: note_on channel=2 note=98 velocity=86 time=0.1508151796875
EXTRACT: note_on channel=6 note=58 velocity=104 time=0
EXTRACT: note_on channel=6 note=55 velocity=94 time=0
EXTRACT: note_on channel=6 note=65 velocity=94 time=0
EXTRACT: note_on channel=6 note=62 velocity=94 time=0
EXTRACT: note_on channel=7 note=31 velocity=115 time=0
EXTRACT: note_on channel=9 note=46 velocity=115 time=0
EXTRACT: note_on channel=9 note=36 velocity=110 time=0
EXTRACT: note_on channel=7 note=43 velocity=0 time=0.006793476562499999
EXTRACT: note_on channel=2 note=98 velocity=0 time=0.0692934609375
EXTRACT: note_on channel=9 note=36 velocity=0 time=0.0529891171875
EXTRACT: note_on channel=7 note=31 velocity=0 time=0.021739124999999998
EXTRACT: control_change channel=6 control=64 value=127 time=0.043478249999999996
EXTRACT: note_on channel=9 note=46 velocity=0 time=0.014945648437499999
EXTRACT: note_on channel=7 note=43 velocity=127 time=0.051630421875
EXTRACT: note_on channel=9 note=70 velocity=37 time=0
EXTRACT: note_on channel=7 note=43 velocity=0 time=0.0421195546875
EXTRACT: note_on channel=9 note=70 velocity=0 time=0.0475543359375
EXTRACT: note_on channel=2 note=98 velocity=79 time=0.17119560937499997
EXTRACT: note_on channel=7 note=34 velocity=115 time=0
EXTRACT: note_on channel=9 note=44 velocity=110 time=0
EXTRACT: note_on channel=9 note=36 velocity=114 time=0
EXTRACT: note_on channel=9 note=39 velocity=94 time=0
EXTRACT: note_on channel=9 note=40 velocity=104 time=0
EXTRACT: control_change channel=6 control=64 value=0 time=0.06114128906249999
EXTRACT: control_change channel=6 control=64 value=127 time=0.006793476562499999
EXTRACT: note_on channel=2 note=98 velocity=0 time=0.0013586953124999999
EXTRACT: note_on channel=6 note=55 velocity=0 time=0.0027173906249999998
EXTRACT: control_change channel=6 control=64 value=0 time=0.0013586953124999999
EXTRACT: note_on channel=6 note=58 velocity=0 time=0.006793476562499999
EXTRACT: note_on channel=6 note=65 velocity=0 time=0.006793476562499999
EXTRACT: note_on channel=6 note=62 velocity=0 time=0.0095108671875
EXTRACT: note_on channel=9 note=39 velocity=0 time=0.0095108671875
EXTRACT: note_on channel=9 note=36 velocity=0 time=0.01630434375
EXTRACT: note_on channel=9 note=40 velocity=0 time=0.033967382812499995
EXTRACT: note_on channel=9 note=44 velocity=0 time=0.023097820312499996
EXTRACT: note_on channel=7 note=34 velocity=0 time=0.04619564062499999
EXTRACT: note_on channel=6 note=65 velocity=94 time=0.03532607812499999
EXTRACT: note_on channel=6 note=55 velocity=79 time=0
EXTRACT: note_on channel=6 note=58 velocity=94 time=0
EXTRACT: note_on channel=6 note=62 velocity=104 time=0
EXTRACT: note_on channel=7 note=39 velocity=127 time=0
EXTRACT: note_on channel=9 note=42 velocity=35 time=0
EXTRACT: control_change channel=6 control=64 value=127 time=0.07472824218749999
EXTRACT: note_on channel=9 note=42 velocity=0 time=0.01630434375
EXTRACT: note_on channel=7 note=39 velocity=0 time=0.16847821875
EXTRACT: note_on channel=1 note=55 velocity=127 time=0.0013586953124999999
EXTRACT: note_on channel=1 note=67 velocity=127 time=0
EXTRACT: note_on channel=2 note=98 velocity=79 time=0
EXTRACT: note_on channel=9 note=44 velocity=110 time=0
EXTRACT: note_on channel=9 note=36 velocity=114 time=0
EXTRACT: note_on channel=7 note=39 velocity=68 time=0.065217375
EXTRACT: note_on channel=2 note=98 velocity=0 time=0.0054347812499999995
EXTRACT: note_on channel=7 note=39 velocity=0 time=0.01630434375
EXTRACT: note_on channel=9 note=36 velocity=0 time=0.0258152109375
EXTRACT: note_on channel=1 note=67 velocity=0 time=0.01630434375
EXTRACT: note_on channel=1 note=55 velocity=0 time=0
EXTRACT: note_on channel=9 note=44 velocity=0 time=0.0475543359375
EXTRACT: note_on channel=1 note=55 velocity=104 time=0.084239109375
EXTRACT: note_on channel=1 note=67 velocity=104 time=0
EXTRACT: note_on channel=7 note=51 velocity=127 time=0
EXTRACT: note_on channel=9 note=42 velocity=45 time=0
EXTRACT: note_on channel=7 note=51 velocity=0 time=0.040760859375
EXTRACT: note_on channel=9 note=42 velocity=0 time=0.0883151953125
EXTRACT: note_on channel=1 note=67 velocity=0 time=0.03804346875
EXTRACT: note_on channel=1 note=55 velocity=0 time=0
EXTRACT: note_on channel=1 note=58 velocity=115 time=0.09374997656249999
EXTRACT: note_on channel=1 note=70 velocity=115 time=0
EXTRACT: note_on channel=2 note=98 velocity=68 time=0
EXTRACT: note_on channel=7 note=39 velocity=127 time=0
EXTRACT: note_on channel=9 note=44 velocity=110 time=0
EXTRACT: note_on channel=9 note=36 velocity=114 time=0
EXTRACT: note_on channel=9 note=40 velocity=115 time=0
EXTRACT: note_on channel=9 note=39 velocity=94 time=0
EXTRACT: note_on channel=2 note=98 velocity=0 time=0.06385867968749999
EXTRACT: note_on channel=9 note=39 velocity=0 time=0.033967382812499995
EXTRACT: note_on channel=9 note=36 velocity=0 time=0.017663039062499997
EXTRACT: note_on channel=9 note=44 velocity=0 time=0.008152171875
EXTRACT: note_on channel=9 note=40 velocity=0 time=0.0013586953124999999
EXTRACT: note_on channel=9 note=42 velocity=53 time=0.13586953124999998
EXTRACT: note_on channel=7 note=39 velocity=0 time=0.06385867968749999
EXTRACT: note_on channel=1 note=70 velocity=0 time=0.0312499921875
EXTRACT: note_on channel=1 note=58 velocity=0 time=0
EXTRACT: note_on channel=6 note=62 velocity=0 time=0
EXTRACT: note_on channel=6 note=65 velocity=0 time=0.006793476562499999
EXTRACT: note_on channel=6 note=58 velocity=0 time=0.014945648437499999
EXTRACT: note_on channel=9 note=42 velocity=0 time=0.0054347812499999995
EXTRACT: note_on channel=1 note=55 velocity=104 time=0.008152171875
EXTRACT: note_on channel=1 note=67 velocity=104 time=0
EXTRACT: note_on channel=7 note=39 velocity=86 time=0
EXTRACT: note_on channel=6 note=55 velocity=0 time=0.006793476562499999
EXTRACT: control_change channel=6 control=64 value=0 time=0.0095108671875
EXTRACT: control_change channel=6 control=64 value=127 time=0.006793476562499999
EXTRACT: control_change channel=6 control=64 value=0 time=0.0054347812499999995
EXTRACT: note_on channel=1 note=67 velocity=0 time=0.10190214843749999
EXTRACT: note_on channel=1 note=55 velocity=0 time=0
EXTRACT: note_on channel=1 note=62 velocity=127 time=0
EXTRACT: note_on channel=1 note=74 velocity=127 time=0
EXTRACT: note_on channel=2 note=98 velocity=63 time=0
EXTRACT: note_on channel=6 note=62 velocity=104 time=0
EXTRACT: note_on channel=6 note=65 velocity=104 time=0
EXTRACT: note_on channel=6 note=57 velocity=94 time=0
EXTRACT: note_on channel=6 note=60 velocity=104 time=0
EXTRACT: note_on channel=7 note=41 velocity=127 time=0
EXTRACT: note_on channel=9 note=36 velocity=114 time=0
EXTRACT: note_on channel=9 note=44 velocity=110 time=0
EXTRACT: note_on channel=7 note=39 velocity=0 time=0.017663039062499997
EXTRACT: note_on channel=2 note=98 velocity=0 time=0.05706520312499999
EXTRACT: note_on channel=1 note=74 velocity=0 time=0.0258152109375
EXTRACT: note_on channel=1 note=62 velocity=0 time=0
EXTRACT: note_on channel=7 note=41 velocity=0 time=0.0013586953124999999
EXTRACT: note_on channel=9 note=36 velocity=0 time=0.023097820312499996
EXTRACT: control_change channel=6 control=64 value=127 time=0.013586953124999999
EXTRACT: note_on channel=9 note=44 velocity=0 time=0.054347812499999995
EXTRACT: note_on channel=1 note=62 velocity=127 time=0.06793476562499999
EXTRACT: note_on channel=1 note=74 velocity=127 time=0
EXTRACT: note_on channel=9 note=42 velocity=53 time=0
EXTRACT: note_on channel=1 note=74 velocity=0 time=0.11277171093749999
EXTRACT: note_on channel=1 note=62 velocity=0 time=0
EXTRACT: note_on channel=9 note=42 velocity=0 time=0.008152171875
EXTRACT: note_on channel=1 note=60 velocity=115 time=0.13994561718749998
EXTRACT: note_on channel=1 note=72 velocity=115 time=0
EXTRACT: note_on channel=2 note=98 velocity=58 time=0
EXTRACT: note_on channel=7 note=40 velocity=104 time=0
EXTRACT: note_on channel=7 note=41 velocity=127 time=0
EXTRACT: note_on channel=9 note=36 velocity=114 time=0
EXTRACT: note_on channel=9 note=44 velocity=110 time=0
EXTRACT: note_on channel=9 note=39 velocity=94 time=0
EXTRACT: note_on channel=9 note=40 velocity=115 time=0
EXTRACT: note_on channel=7 note=40 velocity=0 time=0.0013586953124999999
EXTRACT: note_on channel=2 note=98 velocity=0 time=0.06114128906249999
EXTRACT: note_on channel=1 note=74 velocity=115 time=0.0027173906249999998
EXTRACT: note_on channel=7 note=40 velocity=73 time=0
EXTRACT: note_on channel=7 note=40 velocity=0 time=0.0203804296875
EXTRACT: note_on channel=9 note=36 velocity=0 time=0.01630434375
EXTRACT: note_on channel=1 note=72 velocity=0 time=0.0027173906249999998
EXTRACT: note_on channel=1 note=60 velocity=0 time=0
EXTRACT: note_on channel=9 note=39 velocity=0 time=0
EXTRACT: note_on channel=9 note=40 velocity=0 time=0.006793476562499999
EXTRACT: note_on channel=1 note=62 velocity=115 time=0.019021734375
EXTRACT: note_on channel=9 note=44 velocity=0 time=0.0692934609375
EXTRACT: note_on channel=1 note=74 velocity=0 time=0.029891296874999997
EXTRACT: note_on channel=9 note=42 velocity=33 time=0.0312499921875
EXTRACT: note_on channel=1 note=62 velocity=0 time=0.033967382812499995
EXTRACT: note_on channel=7 note=39 velocity=115 time=0.09646736718749999
EXTRACT: note_on channel=9 note=42 velocity=0 time=0.006793476562499999
EXTRACT: control_change channel=6 control=64 value=0 time=0.0054347812499999995
EXTRACT: note_on channel=6 note=57 velocity=0 time=0.0027173906249999998
EXTRACT: control_change channel=6 control=64 value=127 time=0.0027173906249999998
EXTRACT: note_on channel=6 note=65 velocity=0 time=0.0095108671875
EXTRACT: control_change channel=6 control=64 value=0 time=0.0013586953124999999
EXTRACT: note_on channel=7 note=41 velocity=0 time=0
EXTRACT: note_on channel=6 note=62 velocity=0 time=0.006793476562499999
EXTRACT: note_on channel=6 note=60 velocity=0 time=0.008152171875
EXTRACT: note_on channel=7 note=39 velocity=0 time=0.051630421875
EXTRACT: note_on channel=2 note=98 velocity=53 time=0.03532607812499999
EXTRACT: note_on channel=6 note=57 velocity=86 time=0
EXTRACT: note_on channel=6 note=60 velocity=94 time=0
EXTRACT: note_on channel=6 note=62 velocity=94 time=0
EXTRACT: note_on channel=6 note=65 velocity=94 time=0
EXTRACT: note_on channel=7 note=38 velocity=127 time=0
EXTRACT: note_on channel=7 note=39 velocity=51 time=0
EXTRACT: note_on channel=9 note=44 velocity=110 time=0
EXTRACT: note_on channel=9 note=36 velocity=115 time=0
EXTRACT: note_on channel=7 note=39 velocity=0 time=0.013586953124999999
EXTRACT: note_on channel=2 note=98 velocity=0 time=0.06114128906249999
EXTRACT: note_on channel=7 note=38 velocity=0 time=0
EXTRACT: control_change channel=6 control=64 value=127 time=0.0027173906249999998
EXTRACT: note_on channel=9 note=36 velocity=0 time=0.014945648437499999
EXTRACT: note_on channel=9 note=44 velocity=0 time=0.09239128124999998
EXTRACT: note_on channel=7 note=38 velocity=127 time=0.0760869375
EXTRACT: note_on channel=9 note=42 velocity=33 time=0
EXTRACT: note_on channel=9 note=85 velocity=104 time=0
EXTRACT: note_on channel=9 note=39 velocity=53 time=0
EXTRACT: note_on channel=7 note=38 velocity=0 time=0.059782593749999995
EXTRACT: note_on channel=9 note=85 velocity=0 time=0.0312499921875
EXTRACT: note_on channel=9 note=39 velocity=0 time=0.019021734375
EXTRACT: note_on channel=9 note=42 velocity=0 time=0.010869562499999999
EXTRACT: note_on channel=2 note=98 velocity=48 time=0.13994561718749998
EXTRACT: note_on channel=7 note=38 velocity=127 time=0
EXTRACT: note_on channel=9 note=44 velocity=110 time=0
EXTRACT: note_on channel=9 note=36 velocity=114 time=0
EXTRACT: note_on channel=9 note=39 velocity=104 time=0
EXTRACT: note_on channel=9 note=40 velocity=104 time=0
EXTRACT: note_on channel=2 note=98 velocity=0 time=0.058423898437499996
EXTRACT: note_on channel=9 note=39 velocity=0 time=0.010869562499999999
EXTRACT: note_on channel=6 note=57 velocity=0 time=0.0040760859375
EXTRACT: note_on channel=9 note=36 velocity=0 time=0.029891296874999997
EXTRACT: note_on channel=9 note=40 velocity=0 time=0.0013586953124999999
EXTRACT: note_on channel=6 note=65 velocity=0 time=0.008152171875
EXTRACT: note_on channel=6 note=60 velocity=0 time=0.0054347812499999995
EXTRACT: note_on channel=6 note=62 velocity=0 time=0.010869562499999999
EXTRACT: note_on channel=9 note=44 velocity=0 time=0.033967382812499995
EXTRACT: note_on channel=7 note=38 velocity=0 time=0.08695649999999999
EXTRACT: note_on channel=7 note=36 velocity=127 time=0.010869562499999999
EXTRACT: note_on channel=9 note=42 velocity=33 time=0
EXTRACT: note_on channel=7 note=36 velocity=0 time=0.08695649999999999
EXTRACT: note_on channel=9 note=42 velocity=0 time=0.023097820312499996
EXTRACT: note_on channel=7 note=38 velocity=115 time=0.0203804296875
EXTRACT: control_change channel=6 control=64 value=0 time=0.08695649999999999
EXTRACT: control_change channel=6 control=64 value=127 time=0.0013586953124999999
EXTRACT: control_change channel=6 control=64 value=0 time=0.006793476562499999
EXTRACT: note_on channel=7 note=38 velocity=0 time=0.0054347812499999995
EXTRACT: note_on channel=6 note=69 velocity=104 time=0.029891296874999997
EXTRACT: note_on channel=6 note=60 velocity=94 time=0
EXTRACT: note_on channel=6 note=62 velocity=94 time=0
EXTRACT: note_on channel=7 note=31 velocity=104 time=0
EXTRACT: note_on channel=9 note=46 velocity=115 time=0
EXTRACT: note_on channel=9 note=36 velocity=110 time=0
EXTRACT: aftertouch channel=7 value=4 time=0.10461953906249999
EXTRACT: aftertouch channel=7 value=10 time=0.01630434375
EXTRACT: note_on channel=9 note=36 velocity=0 time=0.008152171875
EXTRACT: aftertouch channel=7 value=14 time=0.006793476562499999
EXTRACT: control_change channel=6 control=64 value=127 time=0.01630434375
EXTRACT: aftertouch channel=7 value=10 time=0.029891296874999997
EXTRACT: aftertouch channel=7 value=6 time=0.01630434375
EXTRACT: note_on channel=9 note=46 velocity=0 time=0.010869562499999999
EXTRACT: note_on channel=6 note=69 velocity=0 time=0.0013586953124999999
EXTRACT: aftertouch channel=7 value=2 time=0.0040760859375
EXTRACT: aftertouch channel=7 value=0 time=0.014945648437499999
EXTRACT: note_on channel=7 note=31 velocity=0 time=0.006793476562499999
EXTRACT: aftertouch channel=7 value=0 time=0.0095108671875
EXTRACT: note_on channel=6 note=67 velocity=73 time=0.014945648437499999
EXTRACT: note_on channel=7 note=43 velocity=127 time=0
EXTRACT: note_on channel=9 note=70 velocity=37 time=0
EXTRACT: note_on channel=7 note=43 velocity=0 time=0.043478249999999996
EXTRACT: note_on channel=6 note=62 velocity=0 time=0.008152171875
EXTRACT: note_on channel=9 note=70 velocity=0 time=0.03804346875
EXTRACT: note_on channel=6 note=67 velocity=0 time=0.09646736718749999
EXTRACT: note_on channel=6 note=65 velocity=104 time=0.07472824218749999
EXTRACT: note_on channel=7 note=34 velocity=127 time=0
EXTRACT: note_on channel=9 note=44 velocity=110 time=0
EXTRACT: note_on channel=9 note=36 velocity=114 time=0
EXTRACT: note_on channel=9 note=39 velocity=94 time=0
EXTRACT: note_on channel=9 note=40 velocity=104 time=0
EXTRACT: note_on channel=6 note=65 velocity=0 time=0.0883151953125
EXTRACT: control_change channel=6 control=64 value=0 time=0.006793476562499999
EXTRACT: note_on channel=6 note=60 velocity=0 time=0.0013586953124999999
EXTRACT: control_change channel=6 control=64 value=127 time=0.008152171875
EXTRACT: note_on channel=9 note=39 velocity=0 time=0.0013586953124999999
EXTRACT: control_change channel=6 control=64 value=0 time=0.0027173906249999998
EXTRACT: control_change channel=6 control=64 value=127 time=0.008152171875
EXTRACT: control_change channel=6 control=64 value=0 time=0.0040760859375
EXTRACT: note_on channel=9 note=36 velocity=0 time=0.0013586953124999999
EXTRACT: note_on channel=9 note=40 velocity=0 time=0.033967382812499995
EXTRACT: note_on channel=9 note=44 velocity=0 time=0.023097820312499996
EXTRACT: note_on channel=7 note=34 velocity=0 time=0.054347812499999995
EXTRACT: note_on channel=6 note=67 velocity=86 time=0.027173906249999998
EXTRACT: note_on channel=6 note=62 velocity=104 time=0
EXTRACT: note_on channel=6 note=58 velocity=104 time=0
EXTRACT: note_on channel=7 note=39 velocity=127 time=0
EXTRACT: note_on channel=9 note=42 velocity=35 time=0
EXTRACT: note_on channel=9 note=42 velocity=0 time=0.0910325859375
EXTRACT: control_change channel=6 control=64 value=127 time=0.06385867968749999
EXTRACT: note_on channel=1 note=67 velocity=94 time=0.040760859375
EXTRACT: note_on channel=1 note=62 velocity=127 time=0.065217375
EXTRACT: note_on channel=1 note=55 velocity=94 time=0
EXTRACT: note_on channel=1 note=74 velocity=127 time=0
EXTRACT: note_on channel=9 note=44 velocity=110 time=0
EXTRACT: note_on channel=9 note=36 velocity=114 time=0
EXTRACT: note_on channel=7 note=39 velocity=0 time=0.0366847734375
EXTRACT: note_on channel=1 note=67 velocity=0 time=0.008152171875
EXTRACT: note_on channel=7 note=39 velocity=59 time=0.0203804296875
EXTRACT: note_on channel=7 note=39 velocity=0 time=0.0203804296875
EXTRACT: note_on channel=1 note=55 velocity=0 time=0.024456515624999998
EXTRACT: note_on channel=9 note=36 velocity=0 time=0.0027173906249999998
EXTRACT: note_on channel=1 note=62 velocity=0 time=0.0013586953124999999
EXTRACT: note_on channel=1 note=74 velocity=0 time=0
EXTRACT: note_on channel=9 note=44 velocity=0 time=0.062499984375
EXTRACT: note_on channel=1 note=63 velocity=115 time=0.084239109375
EXTRACT: note_on channel=1 note=75 velocity=115 time=0
EXTRACT: note_on channel=7 note=51 velocity=127 time=0
EXTRACT: note_on channel=9 note=42 velocity=45 time=0
EXTRACT: note_on channel=7 note=51 velocity=0 time=0.039402164062499995
EXTRACT: note_on channel=1 note=75 velocity=0 time=0.0692934609375
EXTRACT: note_on channel=1 note=63 velocity=0 time=0
EXTRACT: note_on channel=9 note=42 velocity=0 time=0.0203804296875
EXTRACT: note_on channel=1 note=62 velocity=127 time=0.13179344531249998
EXTRACT: note_on channel=1 note=74 velocity=127 time=0
EXTRACT: note_on channel=7 note=39 velocity=127 time=0
EXTRACT: note_on channel=9 note=44 velocity=110 time=0
EXTRACT: note_on channel=9 note=36 velocity=114 time=0
EXTRACT: note_on channel=9 note=40 velocity=115 time=0
EXTRACT: note_on channel=9 note=39 velocity=94 time=0
EXTRACT: note_on channel=6 note=58 velocity=0 time=0.028532601562499996
EXTRACT: note_on channel=6 note=67 velocity=0 time=0.013586953124999999
EXTRACT: note_on channel=6 note=62 velocity=0 time=0.0095108671875
EXTRACT: note_on channel=9 note=39 velocity=0 time=0.04619564062499999
EXTRACT: note_on channel=9 note=36 velocity=0 time=0.017663039062499997
EXTRACT: note_on channel=9 note=44 velocity=0 time=0.008152171875
EXTRACT: note_on channel=9 note=40 velocity=0 time=0.0013586953124999999
EXTRACT: note_on channel=1 note=74 velocity=0 time=0.0991847578125
EXTRACT: note_on channel=1 note=62 velocity=0 time=0
EXTRACT: note_on channel=1 note=58 velocity=104 time=0.0366847734375
EXTRACT: note_on channel=1 note=70 velocity=104 time=0
EXTRACT: note_on channel=9 note=42 velocity=53 time=0
EXTRACT: note_on channel=7 note=39 velocity=0 time=0.006793476562499999
EXTRACT: note_on channel=1 note=70 velocity=0 time=0.09782606249999999
EXTRACT: note_on channel=1 note=58 velocity=0 time=0
EXTRACT: note_on channel=9 note=42 velocity=0 time=0.017663039062499997
EXTRACT: note_on channel=7 note=43 velocity=127 time=0.008152171875
EXTRACT: control_change channel=6 control=64 value=0 time=0.0801630234375
EXTRACT: control_change channel=6 control=64 value=127 time=0.006793476562499999
EXTRACT: control_change channel=6 control=64 value=0 time=0.0040760859375
EXTRACT: note_on channel=7 note=43 velocity=0 time=0.006793476562499999
EXTRACT: note_on channel=1 note=60 velocity=127 time=0.0326086875
EXTRACT: note_on channel=1 note=72 velocity=127 time=0
EXTRACT: note_on channel=6 note=55 velocity=115 time=0
EXTRACT: note_on channel=6 note=64 velocity=104 time=0
EXTRACT: note_on channel=6 note=60 velocity=115 time=0
EXTRACT: note_on channel=7 note=45 velocity=104 time=0
EXTRACT: note_on channel=9 note=36 velocity=114 time=0
EXTRACT: note_on channel=9 note=44 velocity=110 time=0
EXTRACT: note_on channel=7 note=45 velocity=0 time=0.11413040624999998
EXTRACT: note_on channel=9 note=36 velocity=0 time=0.010869562499999999
EXTRACT: note_on channel=7 note=43 velocity=115 time=0.0054347812499999995
EXTRACT: note_on channel=9 note=44 velocity=0 time=0.062499984375
EXTRACT: note_on channel=7 note=45 velocity=115 time=0.06793476562499999
EXTRACT: note_on channel=9 note=42 velocity=53 time=0
EXTRACT: note_on channel=7 note=43 velocity=0 time=0.006793476562499999
EXTRACT: note_on channel=1 note=72 velocity=0 time=0.06114128906249999
EXTRACT: note_on channel=1 note=60 velocity=0 time=0
EXTRACT: note_on channel=9 note=42 velocity=0 time=0.0529891171875
EXTRACT: note_on channel=7 note=43 velocity=127 time=0.0095108671875
EXTRACT: note_on channel=7 note=45 velocity=0 time=0.0095108671875
EXTRACT: note_on channel=7 note=43 velocity=0 time=0.0665760703125
EXTRACT: note_on channel=1 note=60 velocity=104 time=0.054347812499999995
EXTRACT: note_on channel=1 note=72 velocity=104 time=0
EXTRACT: note_on channel=7 note=47 velocity=79 time=0
EXTRACT: note_on channel=7 note=45 velocity=127 time=0
EXTRACT: note_on channel=9 note=36 velocity=114 time=0
EXTRACT: note_on channel=9 note=44 velocity=110 time=0
EXTRACT: note_on channel=9 note=39 velocity=94 time=0
EXTRACT: note_on channel=9 note=40 velocity=115 time=0
EXTRACT: control_change channel=6 control=64 value=127 time=0.0027173906249999998
EXTRACT: note_on channel=7 note=47 velocity=0 time=0.0258152109375
EXTRACT: note_on channel=1 note=74 velocity=115 time=0.0366847734375
EXTRACT: note_on channel=1 note=72 velocity=0 time=0.023097820312499996
EXTRACT: note_on channel=1 note=60 velocity=0 time=0
EXTRACT: note_on channel=9 note=36 velocity=0 time=0.013586953124999999
EXTRACT: note_on channel=9 note=39 velocity=0 time=0.0027173906249999998
EXTRACT: note_on channel=9 note=40 velocity=0 time=0.006793476562499999
EXTRACT: note_on channel=1 note=62 velocity=115 time=0.019021734375
EXTRACT: note_on channel=9 note=44 velocity=0 time=0.0692934609375
EXTRACT: note_on channel=7 note=45 velocity=0 time=0.010869562499999999
EXTRACT: note_on channel=1 note=74 velocity=0 time=0.021739124999999998
EXTRACT: note_on channel=6 note=55 velocity=0 time=0.0095108671875
EXTRACT: note_on channel=1 note=60 velocity=115 time=0.019021734375
EXTRACT: note_on channel=1 note=72 velocity=115 time=0
EXTRACT: note_on channel=9 note=42 velocity=33 time=0
EXTRACT: note_on channel=6 note=64 velocity=0 time=0.008152171875
EXTRACT: note_on channel=6 note=60 velocity=0 time=0.023097820312499996
EXTRACT: note_on channel=1 note=62 velocity=0 time=0.0054347812499999995
EXTRACT: note_on channel=7 note=41 velocity=115 time=0.09374997656249999
EXTRACT: note_on channel=1 note=72 velocity=0 time=0.0013586953124999999
EXTRACT: note_on channel=1 note=60 velocity=0 time=0
EXTRACT: note_on channel=9 note=42 velocity=0 time=0.0054347812499999995
EXTRACT: control_change channel=6 control=64 value=0 time=0.023097820312499996
EXTRACT: control_change channel=6 control=64 value=127 time=0.0095108671875
EXTRACT: control_change channel=6 control=64 value=0 time=0.0040760859375
EXTRACT: note_on channel=6 note=64 velocity=104 time=0.08695649999999999
EXTRACT: note_on channel=6 note=55 velocity=104 time=0
EXTRACT: note_on channel=6 note=60 velocity=104 time=0
EXTRACT: note_on channel=7 note=43 velocity=127 time=0
EXTRACT: note_on channel=9 note=44 velocity=110 time=0
EXTRACT: note_on channel=9 note=36 velocity=115 time=0
EXTRACT: note_on channel=7 note=41 velocity=0 time=0.008152171875
EXTRACT: note_on channel=9 note=36 velocity=0 time=0.084239109375
EXTRACT: note_on channel=7 note=43 velocity=0 time=0.0054347812499999995
EXTRACT: control_change channel=6 control=64 value=127 time=0.07065215624999999
EXTRACT: note_on channel=9 note=44 velocity=0 time=0.01630434375
EXTRACT: note_on channel=7 note=41 velocity=127 time=0.0760869375
EXTRACT: note_on channel=9 note=42 velocity=33 time=0
EXTRACT: note_on channel=9 note=85 velocity=104 time=0
EXTRACT: note_on channel=9 note=39 velocity=53 time=0
EXTRACT: note_on channel=9 note=85 velocity=0 time=0.0910325859375
EXTRACT: note_on channel=9 note=39 velocity=0 time=0.019021734375
EXTRACT: note_on channel=9 note=42 velocity=0 time=0.010869562499999999
EXTRACT: note_on channel=7 note=41 velocity=0 time=0.0883151953125
EXTRACT: note_on channel=6 note=55 velocity=0 time=0.017663039062499997
EXTRACT: note_on channel=6 note=64 velocity=0 time=0.019021734375
EXTRACT: note_on channel=6 note=60 velocity=0 time=0.006793476562499999
EXTRACT: note_on channel=7 note=45 velocity=63 time=0.008152171875
EXTRACT: note_on channel=7 note=43 velocity=127 time=0
EXTRACT: note_on channel=9 note=44 velocity=110 time=0
EXTRACT: note_on channel=9 note=36 velocity=114 time=0
EXTRACT: note_on channel=9 note=39 velocity=104 time=0
EXTRACT: note_on channel=9 note=40 velocity=104 time=0
EXTRACT: note_on channel=7 note=45 velocity=0 time=0.019021734375
EXTRACT: note_on channel=9 note=39 velocity=0 time=0.050271726562499994
EXTRACT: note_on channel=9 note=36 velocity=0 time=0.033967382812499995
EXTRACT: note_on channel=9 note=40 velocity=0 time=0.0013586953124999999
EXTRACT: note_on channel=9 note=44 velocity=0 time=0.058423898437499996
EXTRACT: note_on channel=7 note=43 velocity=0 time=0.05570650781249999
EXTRACT: note_on channel=7 note=46 velocity=115 time=0.0421195546875
EXTRACT: note_on channel=9 note=42 velocity=33 time=0
EXTRACT: control_change channel=6 control=64 value=0 time=0.0883151953125
EXTRACT: control_change channel=6 control=64 value=127 time=0.008152171875
EXTRACT: control_change channel=6 control=64 value=0 time=0.0054347812499999995
EXTRACT: note_on channel=9 note=42 velocity=0 time=0.008152171875
EXTRACT: note_on channel=7 note=46 velocity=0 time=0.12499996875
EXTRACT: note_on channel=2 note=98 velocity=86 time=0.0258152109375
EXTRACT: note_on channel=6 note=58 velocity=104 time=0
EXTRACT: note_on channel=6 note=55 velocity=94 time=0
EXTRACT: note_on channel=6 note=65 velocity=94 time=0
EXTRACT: note_on channel=6 note=62 velocity=94 time=0
EXTRACT: note_on channel=7 note=31 velocity=104 time=0
EXTRACT: note_on channel=9 note=46 velocity=115 time=0
EXTRACT: note_on channel=9 note=36 velocity=110 time=0
EXTRACT: note_on channel=2 note=98 velocity=0 time=0.0760869375
EXTRACT: note_on channel=9 note=36 velocity=0 time=0.0529891171875
EXTRACT: control_change channel=6 control=64 value=127 time=0.065217375
EXTRACT: note_on channel=9 note=46 velocity=0 time=0.014945648437499999
EXTRACT: note_on channel=7 note=31 velocity=0 time=0.013586953124999999
EXTRACT: note_on channel=7 note=43 velocity=127 time=0.03804346875
EXTRACT: note_on channel=9 note=70 velocity=37 time=0
EXTRACT: note_on channel=7 note=43 velocity=0 time=0.07201085156249999
EXTRACT: note_on channel=9 note=70 velocity=0 time=0.017663039062499997
EXTRACT: note_on channel=2 note=98 velocity=79 time=0.17119560937499997
EXTRACT: note_on channel=7 note=34 velocity=115 time=0
EXTRACT: note_on channel=9 note=44 velocity=110 time=0
EXTRACT: note_on channel=9 note=36 velocity=114 time=0
EXTRACT: note_on channel=9 note=39 velocity=94 time=0
EXTRACT: note_on channel=9 note=40 velocity=104 time=0
EXTRACT: control_change channel=6 control=64 value=0 time=0.06114128906249999
EXTRACT: control_change channel=6 control=64 value=127 time=0.006793476562499999
EXTRACT: note_on channel=2 note=98 velocity=0 time=0.0013586953124999999
EXTRACT: note_on channel=6 note=55 velocity=0 time=0.0027173906249999998
EXTRACT: control_change channel=6 control=64 value=0 time=0.0013586953124999999
EXTRACT: note_on channel=6 note=58 velocity=0 time=0.006793476562499999
EXTRACT: note_on channel=6 note=65 velocity=0 time=0.006793476562499999
EXTRACT: note_on channel=6 note=62 velocity=0 time=0.0095108671875
EXTRACT: note_on channel=9 note=39 velocity=0 time=0.0095108671875
EXTRACT: note_on channel=9 note=36 velocity=0 time=0.01630434375
EXTRACT: note_on channel=9 note=40 velocity=0 time=0.033967382812499995
EXTRACT: note_on channel=9 note=44 velocity=0 time=0.023097820312499996
EXTRACT: note_on channel=7 note=34 velocity=0 time=0.039402164062499995
EXTRACT: note_on channel=6 note=65 velocity=94 time=0.0421195546875
EXTRACT: note_on channel=6 note=55 velocity=79 time=0
EXTRACT: note_on channel=6 note=58 velocity=94 time=0
EXTRACT: note_on channel=6 note=62 velocity=104 time=0
EXTRACT: note_on channel=7 note=39 velocity=127 time=0
EXTRACT: note_on channel=9 note=42 velocity=35 time=0
EXTRACT: control_change channel=6 control=64 value=127 time=0.07472824218749999
EXTRACT: note_on channel=9 note=42 velocity=0 time=0.01630434375
EXTRACT: note_on channel=1 note=55 velocity=115 time=0.16983691406249998
EXTRACT: note_on channel=1 note=67 velocity=115 time=0
EXTRACT: note_on channel=2 note=98 velocity=79 time=0
EXTRACT: note_on channel=7 note=40 velocity=79 time=0
EXTRACT: note_on channel=7 note=49 velocity=36 time=0
EXTRACT: note_on channel=9 note=44 velocity=110 time=0
EXTRACT: note_on channel=9 note=36 velocity=114 time=0
EXTRACT: note_on channel=7 note=40 velocity=0 time=0.023097820312499996
EXTRACT: note_on channel=7 note=39 velocity=0 time=0.0013586953124999999
EXTRACT: note_on channel=7 note=49 velocity=0 time=0.027173906249999998
EXTRACT: note_on channel=7 note=39 velocity=63 time=0.013586953124999999
EXTRACT: note_on channel=2 note=98 velocity=0 time=0.0054347812499999995
EXTRACT: note_on channel=7 note=39 velocity=0 time=0.013586953124999999
EXTRACT: note_on channel=9 note=36 velocity=0 time=0.028532601562499996
EXTRACT: note_on channel=1 note=67 velocity=0 time=0.012228257812499999
EXTRACT: note_on channel=1 note=55 velocity=0 time=0
EXTRACT: note_on channel=9 note=44 velocity=0 time=0.051630421875
EXTRACT: note_on channel=1 note=55 velocity=115 time=0.084239109375
EXTRACT: note_on channel=1 note=67 velocity=115 time=0
EXTRACT: note_on channel=7 note=51 velocity=127 time=0
EXTRACT: note_on channel=9 note=42 velocity=45 time=0
EXTRACT: note_on channel=7 note=51 velocity=0 time=0.050271726562499994
EXTRACT: note_on channel=9 note=42 velocity=0 time=0.07880432812499999
EXTRACT: note_on channel=1 note=67 velocity=0 time=0.0013586953124999999
EXTRACT: note_on channel=1 note=55 velocity=0 time=0
EXTRACT: note_on channel=1 note=58 velocity=127 time=0.13043475
EXTRACT: note_on channel=1 note=70 velocity=127 time=0
EXTRACT: note_on channel=2 note=98 velocity=68 time=0
EXTRACT: note_on channel=7 note=39 velocity=127 time=0
EXTRACT: note_on channel=9 note=44 velocity=110 time=0
EXTRACT: note_on channel=9 note=36 velocity=114 time=0
EXTRACT: note_on channel=9 note=40 velocity=115 time=0
EXTRACT: note_on channel=9 note=39 velocity=94 time=0
EXTRACT: note_on channel=2 note=98 velocity=0 time=0.06385867968749999
EXTRACT: note_on channel=9 note=39 velocity=0 time=0.033967382812499995
EXTRACT: note_on channel=9 note=36 velocity=0 time=0.017663039062499997
EXTRACT: note_on channel=9 note=44 velocity=0 time=0.008152171875
EXTRACT: note_on channel=9 note=40 velocity=0 time=0.0013586953124999999
EXTRACT: note_on channel=9 note=42 velocity=53 time=0.13586953124999998
EXTRACT: note_on channel=7 note=39 velocity=0 time=0.027173906249999998
EXTRACT: note_on channel=6 note=62 velocity=0 time=0.06793476562499999
EXTRACT: note_on channel=6 note=65 velocity=0 time=0.006793476562499999
EXTRACT: note_on channel=6 note=58 velocity=0 time=0.014945648437499999
EXTRACT: note_on channel=9 note=42 velocity=0 time=0.0054347812499999995
EXTRACT: note_on channel=1 note=70 velocity=0 time=0.0040760859375
EXTRACT: note_on channel=1 note=58 velocity=0 time=0
EXTRACT: note_on channel=1 note=55 velocity=104 time=0.0040760859375
EXTRACT: note_on channel=1 note=67 velocity=104 time=0
EXTRACT: note_on channel=7 note=39 velocity=94 time=0
EXTRACT: note_on channel=6 note=55 velocity=0 time=0.006793476562499999
EXTRACT: control_change channel=6 control=64 value=0 time=0.0095108671875
EXTRACT: control_change channel=6 control=64 value=127 time=0.006793476562499999
EXTRACT: control_change channel=6 control=64 value=0 time=0.0054347812499999995
EXTRACT: note_on channel=1 note=67 velocity=0 time=0.040760859375
EXTRACT: note_on channel=1 note=55 velocity=0 time=0
EXTRACT: note_on channel=7 note=39 velocity=0 time=0.024456515624999998
EXTRACT: note_on channel=1 note=62 velocity=127 time=0.0366847734375
EXTRACT: note_on channel=1 note=74 velocity=127 time=0
EXTRACT: note_on channel=2 note=98 velocity=63 time=0
EXTRACT: note_on channel=6 note=62 velocity=104 time=0
EXTRACT: note_on channel=6 note=65 velocity=104 time=0
EXTRACT: note_on channel=6 note=57 velocity=94 time=0
EXTRACT: note_on channel=6 note=60 velocity=104 time=0
EXTRACT: note_on channel=7 note=41 velocity=127 time=0
EXTRACT: note_on channel=9 note=36 velocity=114 time=0
EXTRACT: note_on channel=9 note=44 velocity=110 time=0
EXTRACT: note_on channel=2 note=98 velocity=0 time=0.07472824218749999
EXTRACT: note_on channel=7 note=41 velocity=0 time=0.03804346875
EXTRACT: note_on channel=1 note=74 velocity=0 time=0.0027173906249999998
EXTRACT: note_on channel=1 note=62 velocity=0 time=0
EXTRACT: note_on channel=9 note=36 velocity=0 time=0.0095108671875
EXTRACT: control_change channel=6 control=64 value=127 time=0.013586953124999999
EXTRACT: note_on channel=9 note=44 velocity=0 time=0.054347812499999995
EXTRACT: note_on channel=1 note=62 velocity=127 time=0.06793476562499999
EXTRACT: note_on channel=1 note=74 velocity=127 time=0
EXTRACT: note_on channel=9 note=42 velocity=53 time=0
EXTRACT: note_on channel=1 note=74 velocity=0 time=0.1100543203125
EXTRACT: note_on channel=1 note=62 velocity=0 time=0
EXTRACT: note_on channel=9 note=42 velocity=0 time=0.010869562499999999
EXTRACT: note_on channel=1 note=60 velocity=127 time=0.13994561718749998
EXTRACT: note_on channel=1 note=72 velocity=127 time=0
EXTRACT: note_on channel=2 note=98 velocity=58 time=0
EXTRACT: note_on channel=7 note=41 velocity=127 time=0
EXTRACT: note_on channel=7 note=40 velocity=127 time=0
EXTRACT: note_on channel=9 note=36 velocity=114 time=0
EXTRACT: note_on channel=9 note=44 velocity=110 time=0
EXTRACT: note_on channel=9 note=39 velocity=94 time=0
EXTRACT: note_on channel=9 note=40 velocity=115 time=0
EXTRACT: note_on channel=7 note=40 velocity=0 time=0.0013586953124999999
EXTRACT: note_on channel=2 note=98 velocity=0 time=0.06114128906249999
EXTRACT: note_on channel=1 note=74 velocity=115 time=0.0027173906249999998
EXTRACT: note_on channel=9 note=36 velocity=0 time=0.0366847734375
EXTRACT: note_on channel=1 note=72 velocity=0 time=0.0027173906249999998
EXTRACT: note_on channel=1 note=60 velocity=0 time=0
EXTRACT: note_on channel=9 note=39 velocity=0 time=0
EXTRACT: note_on channel=9 note=40 velocity=0 time=0.006793476562499999
EXTRACT: note_on channel=1 note=62 velocity=115 time=0.019021734375
EXTRACT: note_on channel=9 note=44 velocity=0 time=0.0692934609375
EXTRACT: note_on channel=1 note=74 velocity=0 time=0.0421195546875
EXTRACT: note_on channel=9 note=42 velocity=33 time=0.019021734375
EXTRACT: note_on channel=1 note=62 velocity=0 time=0.04619564062499999
EXTRACT: note_on channel=7 note=39 velocity=115 time=0.084239109375
EXTRACT: note_on channel=9 note=42 velocity=0 time=0.006793476562499999
EXTRACT: control_change channel=6 control=64 value=0 time=0.0054347812499999995
EXTRACT: note_on channel=6 note=57 velocity=0 time=0.0027173906249999998
EXTRACT: control_change channel=6 control=64 value=127 time=0.0027173906249999998
EXTRACT: note_on channel=6 note=65 velocity=0 time=0.0095108671875
EXTRACT: control_change channel=6 control=64 value=0 time=0.0013586953124999999
EXTRACT: note_on channel=6 note=62 velocity=0 time=0.006793476562499999
EXTRACT: note_on channel=7 note=41 velocity=0 time=0.0027173906249999998
EXTRACT: note_on channel=6 note=60 velocity=0 time=0.0054347812499999995
EXTRACT: note_on channel=7 note=39 velocity=0 time=0.07880432812499999
EXTRACT: note_on channel=2 note=98 velocity=53 time=0.008152171875
EXTRACT: note_on channel=6 note=57 velocity=86 time=0
EXTRACT: note_on channel=6 note=60 velocity=94 time=0
EXTRACT: note_on channel=6 note=62 velocity=94 time=0
EXTRACT: note_on channel=6 note=65 velocity=94 time=0
EXTRACT: note_on channel=7 note=38 velocity=127 time=0
EXTRACT: note_on channel=9 note=44 velocity=110 time=0
EXTRACT: note_on channel=9 note=36 velocity=115 time=0
EXTRACT: note_on channel=2 note=98 velocity=0 time=0.07472824218749999
EXTRACT: control_change channel=6 control=64 value=127 time=0.0027173906249999998
EXTRACT: note_on channel=7 note=38 velocity=0 time=0.014945648437499999
EXTRACT: note_on channel=9 note=36 velocity=0 time=0
EXTRACT: note_on channel=9 note=44 velocity=0 time=0.09239128124999998
EXTRACT: note_on channel=7 note=38 velocity=127 time=0.0760869375
EXTRACT: note_on channel=9 note=42 velocity=33 time=0
EXTRACT: note_on channel=9 note=85 velocity=104 time=0
EXTRACT: note_on channel=9 note=39 velocity=53 time=0
EXTRACT: note_on channel=7 note=38 velocity=0 time=0.07472824218749999
EXTRACT: note_on channel=9 note=85 velocity=0 time=0.01630434375
EXTRACT: note_on channel=9 note=39 velocity=0 time=0.019021734375
EXTRACT: note_on channel=9 note=42 velocity=0 time=0.010869562499999999
EXTRACT: note_on channel=2 note=98 velocity=48 time=0.13994561718749998
EXTRACT: note_on channel=7 note=38 velocity=127 time=0
EXTRACT: note_on channel=9 note=44 velocity=110 time=0
EXTRACT: note_on channel=9 note=36 velocity=114 time=0
EXTRACT: note_on channel=9 note=39 velocity=104 time=0
EXTRACT: note_on channel=9 note=40 velocity=104 time=0
EXTRACT: note_on channel=2 note=98 velocity=0 time=0.058423898437499996
EXTRACT: note_on channel=9 note=39 velocity=0 time=0.010869562499999999
EXTRACT: note_on channel=6 note=57 velocity=0 time=0.0040760859375
EXTRACT: note_on channel=9 note=36 velocity=0 time=0.029891296874999997
EXTRACT: note_on channel=9 note=40 velocity=0 time=0.0013586953124999999
EXTRACT: note_on channel=6 note=65 velocity=0 time=0.008152171875
EXTRACT: note_on channel=6 note=60 velocity=0 time=0.0054347812499999995
EXTRACT: note_on channel=6 note=62 velocity=0 time=0.010869562499999999
EXTRACT: note_on channel=9 note=44 velocity=0 time=0.033967382812499995
EXTRACT: note_on channel=7 note=38 velocity=0 time=0.095108671875
EXTRACT: note_on channel=7 note=42 velocity=32 time=0.0027173906249999998
EXTRACT: note_on channel=7 note=36 velocity=115 time=0
EXTRACT: note_on channel=9 note=42 velocity=33 time=0
EXTRACT: note_on channel=7 note=42 velocity=0 time=0.03532607812499999
EXTRACT: note_on channel=9 note=42 velocity=0 time=0.07472824218749999
EXTRACT: note_on channel=7 note=36 velocity=0 time=0.0203804296875
EXTRACT: note_on channel=7 note=38 velocity=115 time=0
EXTRACT: control_change channel=6 control=64 value=0 time=0.08695649999999999
EXTRACT: control_change channel=6 control=64 value=127 time=0.0013586953124999999
EXTRACT: control_change channel=6 control=64 value=0 time=0.006793476562499999
EXTRACT: note_on channel=7 note=38 velocity=0 time=0.019021734375
EXTRACT: note_on channel=6 note=69 velocity=104 time=0.01630434375
EXTRACT: note_on channel=6 note=60 velocity=94 time=0
EXTRACT: note_on channel=6 note=62 velocity=94 time=0
EXTRACT: note_on channel=7 note=31 velocity=104 time=0
EXTRACT: note_on channel=9 note=46 velocity=115 time=0
EXTRACT: note_on channel=9 note=36 velocity=110 time=0
EXTRACT: aftertouch channel=7 value=4 time=0.10054345312499999
EXTRACT: aftertouch channel=7 value=10 time=0.01630434375
EXTRACT: note_on channel=9 note=36 velocity=0 time=0.012228257812499999
EXTRACT: aftertouch channel=7 value=14 time=0.0013586953124999999
EXTRACT: control_change channel=6 control=64 value=127 time=0.021739124999999998
EXTRACT: aftertouch channel=7 value=10 time=0.028532601562499996
EXTRACT: aftertouch channel=7 value=6 time=0.013586953124999999
EXTRACT: note_on channel=9 note=46 velocity=0 time=0.014945648437499999
EXTRACT: note_on channel=6 note=69 velocity=0 time=0.0013586953124999999
EXTRACT: aftertouch channel=7 value=4 time=0.0013586953124999999
EXTRACT: aftertouch channel=7 value=2 time=0.014945648437499999
EXTRACT: aftertouch channel=7 value=0 time=0.014945648437499999
EXTRACT: note_on channel=6 note=67 velocity=73 time=0.019021734375
EXTRACT: note_on channel=7 note=43 velocity=127 time=0
EXTRACT: note_on channel=9 note=70 velocity=37 time=0
EXTRACT: note_on channel=7 note=31 velocity=0 time=0.021739124999999998
EXTRACT: note_on channel=6 note=62 velocity=0 time=0.029891296874999997
EXTRACT: note_on channel=7 note=43 velocity=0 time=0
EXTRACT: note_on channel=9 note=70 velocity=0 time=0.03804346875
EXTRACT: note_on channel=6 note=67 velocity=0 time=0.09646736718749999
EXTRACT: note_on channel=6 note=65 velocity=104 time=0.07472824218749999
EXTRACT: note_on channel=7 note=34 velocity=115 time=0
EXTRACT: note_on channel=9 note=44 velocity=110 time=0
EXTRACT: note_on channel=9 note=36 velocity=114 time=0
EXTRACT: note_on channel=9 note=39 velocity=94 time=0
EXTRACT: note_on channel=9 note=40 velocity=104 time=0
EXTRACT: note_on channel=6 note=65 velocity=0 time=0.0883151953125
EXTRACT: control_change channel=6 control=64 value=0 time=0.006793476562499999
EXTRACT: note_on channel=6 note=60 velocity=0 time=0.0013586953124999999
EXTRACT: control_change channel=6 control=64 value=127 time=0.008152171875
EXTRACT: note_on channel=9 note=39 velocity=0 time=0.0013586953124999999
EXTRACT: control_change channel=6 control=64 value=0 time=0.0027173906249999998
EXTRACT: control_change channel=6 control=64 value=127 time=0.008152171875
EXTRACT: control_change channel=6 control=64 value=0 time=0.0040760859375
EXTRACT: note_on channel=9 note=36 velocity=0 time=0.0013586953124999999
EXTRACT: note_on channel=9 note=40 velocity=0 time=0.033967382812499995
EXTRACT: note_on channel=9 note=44 velocity=0 time=0.023097820312499996
EXTRACT: note_on channel=7 note=34 velocity=0 time=0.044836945312499994
EXTRACT: note_on channel=6 note=67 velocity=86 time=0.0366847734375
EXTRACT: note_on channel=6 note=62 velocity=104 time=0
EXTRACT: note_on channel=6 note=58 velocity=104 time=0
EXTRACT: note_on channel=7 note=39 velocity=127 time=0
EXTRACT: note_on channel=9 note=42 velocity=35 time=0
EXTRACT: note_on channel=9 note=42 velocity=0 time=0.0910325859375
EXTRACT: note_on channel=1 note=67 velocity=104 time=0.039402164062499995
EXTRACT: control_change channel=6 control=64 value=127 time=0.024456515624999998
EXTRACT: note_on channel=1 note=67 velocity=0 time=0.084239109375
EXTRACT: note_on channel=1 note=62 velocity=115 time=0.021739124999999998
EXTRACT: note_on channel=1 note=74 velocity=115 time=0
EXTRACT: note_on channel=9 note=44 velocity=110 time=0
EXTRACT: note_on channel=9 note=36 velocity=114 time=0
EXTRACT: note_on channel=7 note=39 velocity=0 time=0.051630421875
EXTRACT: note_on channel=7 note=39 velocity=59 time=0.013586953124999999
EXTRACT: note_on channel=7 note=39 velocity=0 time=0.017663039062499997
EXTRACT: note_on channel=1 note=74 velocity=0 time=0.0258152109375
EXTRACT: note_on channel=1 note=62 velocity=0 time=0
EXTRACT: note_on channel=9 note=36 velocity=0 time=0.0040760859375
EXTRACT: note_on channel=9 note=44 velocity=0 time=0.06385867968749999
EXTRACT: note_on channel=1 note=63 velocity=104 time=0.084239109375
EXTRACT: note_on channel=1 note=75 velocity=104 time=0
EXTRACT: note_on channel=7 note=51 velocity=127 time=0
EXTRACT: note_on channel=9 note=42 velocity=45 time=0
EXTRACT: note_on channel=7 note=51 velocity=0 time=0.051630421875
EXTRACT: note_on channel=1 note=75 velocity=0 time=0.0326086875
EXTRACT: note_on channel=1 note=63 velocity=0 time=0
EXTRACT: note_on channel=9 note=42 velocity=0 time=0.044836945312499994
EXTRACT: note_on channel=1 note=62 velocity=127 time=0.13179344531249998
EXTRACT: note_on channel=1 note=74 velocity=127 time=0
EXTRACT: note_on channel=7 note=39 velocity=127 time=0
EXTRACT: note_on channel=9 note=44 velocity=110 time=0
EXTRACT: note_on channel=9 note=36 velocity=114 time=0
EXTRACT: note_on channel=9 note=40 velocity=115 time=0
EXTRACT: note_on channel=9 note=39 velocity=94 time=0
EXTRACT: note_on channel=6 note=58 velocity=0 time=0.028532601562499996
EXTRACT: note_on channel=6 note=67 velocity=0 time=0.013586953124999999
EXTRACT: note_on channel=6 note=62 velocity=0 time=0.0095108671875
EXTRACT: note_on channel=9 note=39 velocity=0 time=0.04619564062499999
EXTRACT: note_on channel=9 note=36 velocity=0 time=0.017663039062499997
EXTRACT: note_on channel=9 note=44 velocity=0 time=0.008152171875
EXTRACT: note_on channel=9 note=40 velocity=0 time=0.0013586953124999999
EXTRACT: note_on channel=1 note=74 velocity=0 time=0.0760869375
EXTRACT: note_on channel=1 note=62 velocity=0 time=0
EXTRACT: note_on channel=1 note=58 velocity=104 time=0.059782593749999995
EXTRACT: note_on channel=1 note=70 velocity=104 time=0
EXTRACT: note_on channel=9 note=42 velocity=53 time=0
EXTRACT: note_on channel=7 note=39 velocity=0 time=0.0258152109375
EXTRACT: note_on channel=1 note=70 velocity=0 time=0.07472824218749999
EXTRACT: note_on channel=1 note=58 velocity=0 time=0
EXTRACT: note_on channel=9 note=42 velocity=0 time=0.021739124999999998
EXTRACT: note_on channel=7 note=43 velocity=127 time=0.008152171875
EXTRACT: control_change channel=6 control=64 value=0 time=0.0801630234375
EXTRACT: control_change channel=6 control=64 value=127 time=0.006793476562499999
EXTRACT: control_change channel=6 control=64 value=0 time=0.0040760859375
EXTRACT: note_on channel=7 note=43 velocity=0 time=0.014945648437499999
EXTRACT: note_on channel=1 note=60 velocity=127 time=0.024456515624999998
EXTRACT: note_on channel=1 note=72 velocity=127 time=0
EXTRACT: note_on channel=6 note=55 velocity=115 time=0
EXTRACT: note_on channel=6 note=64 velocity=104 time=0
EXTRACT: note_on channel=6 note=60 velocity=115 time=0
EXTRACT: note_on channel=7 note=45 velocity=115 time=0
EXTRACT: note_on channel=9 note=36 velocity=114 time=0
EXTRACT: note_on channel=9 note=44 velocity=110 time=0
EXTRACT: note_on channel=9 note=36 velocity=0 time=0.12499996875
EXTRACT: note_on channel=7 note=43 velocity=127 time=0.0054347812499999995
EXTRACT: note_on channel=7 note=45 velocity=0 time=0.0040760859375
EXTRACT: note_on channel=9 note=44 velocity=0 time=0.058423898437499996
EXTRACT: note_on channel=7 note=43 velocity=0 time=0.051630421875
EXTRACT: note_on channel=7 note=45 velocity=104 time=0.01630434375
EXTRACT: note_on channel=9 note=42 velocity=53 time=0
EXTRACT: note_on channel=1 note=72 velocity=0 time=0.09646736718749999
EXTRACT: note_on channel=1 note=60 velocity=0 time=0
EXTRACT: note_on channel=9 note=42 velocity=0 time=0.024456515624999998
EXTRACT: note_on channel=7 note=43 velocity=127 time=0.0095108671875
EXTRACT: note_on channel=7 note=45 velocity=0 time=0.0013586953124999999
EXTRACT: note_on channel=7 note=43 velocity=0 time=0.08288041406249999
EXTRACT: note_on channel=1 note=60 velocity=115 time=0.04619564062499999
EXTRACT: note_on channel=1 note=72 velocity=115 time=0
EXTRACT: note_on channel=7 note=45 velocity=127 time=0
EXTRACT: note_on channel=9 note=36 velocity=114 time=0
EXTRACT: note_on channel=9 note=44 velocity=110 time=0
EXTRACT: note_on channel=9 note=39 velocity=94 time=0
EXTRACT: note_on channel=9 note=40 velocity=115 time=0
EXTRACT: control_change channel=6 control=64 value=127 time=0.0027173906249999998
EXTRACT: note_on channel=1 note=74 velocity=104 time=0.062499984375
EXTRACT: note_on channel=1 note=72 velocity=0 time=0.017663039062499997
EXTRACT: note_on channel=1 note=60 velocity=0 time=0
EXTRACT: note_on channel=9 note=36 velocity=0 time=0.019021734375
EXTRACT: note_on channel=9 note=39 velocity=0 time=0.0027173906249999998
EXTRACT: note_on channel=9 note=40 velocity=0 time=0.006793476562499999
EXTRACT: note_on channel=1 note=62 velocity=104 time=0.019021734375
EXTRACT: note_on channel=9 note=44 velocity=0 time=0.0692934609375
EXTRACT: note_on channel=1 note=74 velocity=0 time=0.008152171875
EXTRACT: note_on channel=7 note=45 velocity=0 time=0.014945648437499999
EXTRACT: note_on channel=6 note=55 velocity=0 time=0.019021734375
EXTRACT: note_on channel=1 note=60 velocity=94 time=0.019021734375
EXTRACT: note_on channel=1 note=72 velocity=94 time=0
EXTRACT: note_on channel=9 note=42 velocity=33 time=0
EXTRACT: note_on channel=6 note=64 velocity=0 time=0.008152171875
EXTRACT: note_on channel=1 note=62 velocity=0 time=0.0040760859375
EXTRACT: note_on channel=6 note=60 velocity=0 time=0.019021734375
EXTRACT: note_on channel=1 note=72 velocity=0 time=0.08152171875
EXTRACT: note_on channel=1 note=60 velocity=0 time=0
EXTRACT: note_on channel=7 note=43 velocity=127 time=0.017663039062499997
EXTRACT: note_on channel=9 note=42 velocity=0 time=0.006793476562499999
EXTRACT: control_change channel=6 control=64 value=0 time=0.023097820312499996
EXTRACT: control_change channel=6 control=64 value=127 time=0.0095108671875
EXTRACT: control_change channel=6 control=64 value=0 time=0.0040760859375
EXTRACT: note_on channel=7 note=43 velocity=0 time=0.014945648437499999
EXTRACT: note_on channel=6 note=64 velocity=104 time=0.07201085156249999
EXTRACT: note_on channel=6 note=55 velocity=104 time=0
EXTRACT: note_on channel=6 note=60 velocity=104 time=0
EXTRACT: note_on channel=7 note=45 velocity=127 time=0
EXTRACT: note_on channel=9 note=44 velocity=110 time=0
EXTRACT: note_on channel=9 note=36 velocity=115 time=0
EXTRACT: note_on channel=7 note=45 velocity=0 time=0.08967389062499999
EXTRACT: note_on channel=9 note=36 velocity=0 time=0.0027173906249999998
EXTRACT: control_change channel=6 control=64 value=127 time=0.0760869375
EXTRACT: note_on channel=9 note=44 velocity=0 time=0.01630434375
EXTRACT: note_on channel=7 note=38 velocity=127 time=0.0760869375
EXTRACT: note_on channel=9 note=42 velocity=33 time=0
EXTRACT: note_on channel=9 note=85 velocity=104 time=0
EXTRACT: note_on channel=9 note=39 velocity=53 time=0
EXTRACT: note_on channel=9 note=85 velocity=0 time=0.0910325859375
EXTRACT: note_on channel=9 note=39 velocity=0 time=0.019021734375
EXTRACT: note_on channel=9 note=42 velocity=0 time=0.010869562499999999
EXTRACT: note_on channel=6 note=55 velocity=0 time=0.105978234375
EXTRACT: note_on channel=6 note=64 velocity=0 time=0.019021734375
EXTRACT: note_on channel=7 note=38 velocity=0 time=0.0027173906249999998
EXTRACT: note_on channel=6 note=60 velocity=0 time=0.0040760859375
EXTRACT: note_on channel=7 note=41 velocity=127 time=0.008152171875
EXTRACT: note_on channel=9 note=44 velocity=110 time=0
EXTRACT: note_on channel=9 note=36 velocity=114 time=0
EXTRACT: note_on channel=9 note=39 velocity=104 time=0
EXTRACT: note_on channel=9 note=40 velocity=104 time=0
EXTRACT: note_on channel=9 note=39 velocity=0 time=0.0692934609375
EXTRACT: note_on channel=9 note=36 velocity=0 time=0.033967382812499995
EXTRACT: note_on channel=9 note=40 velocity=0 time=0.0013586953124999999
EXTRACT: note_on channel=9 note=44 velocity=0 time=0.058423898437499996
EXTRACT: note_on channel=7 note=41 velocity=0 time=0.0883151953125
EXTRACT: note_on channel=7 note=43 velocity=127 time=0.0095108671875
EXTRACT: note_on channel=9 note=42 velocity=33 time=0
EXTRACT: control_change channel=6 control=64 value=0 time=0.0883151953125
EXTRACT: control_change channel=6 control=64 value=127 time=0.008152171875
EXTRACT: control_change channel=6 control=64 value=0 time=0.0054347812499999995
EXTRACT: note_on channel=9 note=42 velocity=0 time=0.008152171875
EXTRACT: note_on channel=7 note=43 velocity=0 time=0.09239128124999998
EXTRACT: note_on channel=7 note=41 velocity=127 time=0.058423898437499996
EXTRACT: note_on channel=9 note=36 velocity=110 time=0
EXTRACT: note_on channel=9 note=44 velocity=110 time=0
EXTRACT: note_on channel=9 note=44 velocity=0 time=0.1290760546875
EXTRACT: note_on channel=9 note=36 velocity=0 time=0
EXTRACT: note_on channel=7 note=41 velocity=0 time=0.176630390625
EXTRACT: note_on channel=9 note=36 velocity=114 time=0.2160325546875
EXTRACT: note_on channel=9 note=39 velocity=94 time=0
EXTRACT: note_on channel=9 note=39 velocity=0 time=0.105978234375
EXTRACT: note_on channel=9 note=36 velocity=0 time=0.01630434375
EXTRACT: note_on channel=9 note=36 velocity=114 time=0.39945642187499997
EXTRACT: note_on channel=9 note=36 velocity=0 time=0.11277171093749999
EXTRACT: note_on channel=9 note=36 velocity=114 time=0.40896728906249996
EXTRACT: note_on channel=9 note=39 velocity=94 time=0
EXTRACT: note_on channel=9 note=39 velocity=0 time=0.09782606249999999
EXTRACT: note_on channel=9 note=36 velocity=0 time=0.017663039062499997
EXTRACT: note_on channel=9 note=86 velocity=95 time=0.2758151484375
EXTRACT: note_on channel=9 note=86 velocity=0 time=0.105978234375
EXTRACT: note_on channel=9 note=36 velocity=114 time=0.024456515624999998
EXTRACT: note_on channel=9 note=41 velocity=105 time=0
EXTRACT: note_on channel=9 note=41 velocity=0 time=0.1100543203125
EXTRACT: note_on channel=9 note=36 velocity=0 time=0.014945648437499999
EXTRACT: note_on channel=9 note=36 velocity=114 time=0.39673903125
EXTRACT: note_on channel=9 note=39 velocity=94 time=0
EXTRACT: note_on channel=9 note=36 velocity=0 time=0.10190214843749999
EXTRACT: note_on channel=9 note=39 velocity=0 time=0.0027173906249999998
EXTRACT: note_on channel=9 note=36 velocity=115 time=0.41711946093749996
EXTRACT: note_on channel=9 note=36 velocity=0 time=0.09239128124999998
EXTRACT: note_on channel=9 note=85 velocity=104 time=0.16847821875
EXTRACT: note_on channel=9 note=39 velocity=53 time=0
EXTRACT: note_on channel=9 note=85 velocity=0 time=0.0910325859375
EXTRACT: note_on channel=9 note=39 velocity=0 time=0.019021734375
EXTRACT: note_on channel=9 note=36 velocity=114 time=0.1508151796875
EXTRACT: note_on channel=9 note=39 velocity=104 time=0
EXTRACT: note_on channel=9 note=39 velocity=0 time=0.0692934609375
EXTRACT: note_on channel=9 note=36 velocity=0 time=0.033967382812499995
EXTRACT: note_on channel=9 note=86 velocity=95 time=0.28804340624999997
EXTRACT: note_on channel=9 note=86 velocity=0 time=0.08967389062499999
EXTRACT: note_on channel=9 note=36 velocity=110 time=0.040760859375
EXTRACT: note_on channel=9 note=41 velocity=104 time=0
EXTRACT: note_on channel=9 note=41 velocity=0 time=0.06385867968749999
EXTRACT: note_on channel=9 note=36 velocity=0 time=0.065217375
EXTRACT: note_on channel=7 note=36 velocity=127 time=0.39266294531249996
EXTRACT: note_on channel=9 note=36 velocity=114 time=0
EXTRACT: note_on channel=9 note=39 velocity=94 time=0
EXTRACT: note_on channel=9 note=39 velocity=0 time=0.105978234375
EXTRACT: note_on channel=9 note=36 velocity=0 time=0.01630434375
EXTRACT: note_on channel=7 note=34 velocity=104 time=0.008152171875
EXTRACT: note_on channel=7 note=36 velocity=0 time=0.013586953124999999
EXTRACT: note_on channel=7 note=32 velocity=115 time=0.11684779687499999
EXTRACT: note_on channel=7 note=34 velocity=0 time=0.050271726562499994
EXTRACT: note_on channel=7 note=32 velocity=0 time=0.051630421875
EXTRACT: note_on channel=7 note=29 velocity=115 time=0.028532601562499996
EXTRACT: note_on channel=9 note=36 velocity=114 time=0.13043475
EXTRACT: note_on channel=9 note=36 velocity=0 time=0.11277171093749999
EXTRACT: note_on channel=7 note=32 velocity=115 time=0.14809778906249998
EXTRACT: note_on channel=7 note=29 velocity=0 time=0.03804346875
EXTRACT: note_on channel=7 note=32 velocity=0 time=0.14673909375
EXTRACT: note_on channel=9 note=36 velocity=114 time=0.0760869375
EXTRACT: note_on channel=9 note=39 velocity=94 time=0
EXTRACT: note_on channel=9 note=39 velocity=0 time=0.09782606249999999
EXTRACT: note_on channel=9 note=36 velocity=0 time=0.017663039062499997
EXTRACT: note_on channel=7 note=29 velocity=94 time=0.2758151484375
EXTRACT: note_on channel=9 note=86 velocity=95 time=0
EXTRACT: note_on channel=7 note=29 velocity=0 time=0.06385867968749999
EXTRACT: note_on channel=9 note=86 velocity=0 time=0.0258152109375
EXTRACT: note_on channel=7 note=36 velocity=127 time=0.040760859375
EXTRACT: note_on channel=9 note=36 velocity=114 time=0
EXTRACT: note_on channel=9 note=41 velocity=104 time=0
EXTRACT: note_on channel=9 note=41 velocity=0 time=0.06385867968749999
EXTRACT: note_on channel=9 note=36 velocity=0 time=0.06114128906249999
EXTRACT: note_on channel=7 note=34 velocity=94 time=0.0054347812499999995
EXTRACT: note_on channel=7 note=36 velocity=0 time=0.03532607812499999
EXTRACT: note_on channel=7 note=32 velocity=115 time=0.095108671875
EXTRACT: note_on channel=7 note=34 velocity=0 time=0.048913031249999996
EXTRACT: note_on channel=7 note=32 velocity=0 time=0.059782593749999995
EXTRACT: note_on channel=7 note=29 velocity=127 time=0.021739124999999998
EXTRACT: note_on channel=9 note=36 velocity=114 time=0.13043475
EXTRACT: note_on channel=9 note=39 velocity=94 time=0
EXTRACT: note_on channel=9 note=36 velocity=0 time=0.10190214843749999
EXTRACT: note_on channel=9 note=39 velocity=0 time=0.0027173906249999998
EXTRACT: note_on channel=7 note=29 velocity=0 time=0.105978234375
EXTRACT: note_on channel=7 note=32 velocity=115 time=0.050271726562499994
EXTRACT: note_on channel=7 note=32 velocity=0 time=0.11277171093749999
EXTRACT: note_on channel=7 note=32 velocity=59 time=0.14809778906249998
EXTRACT: note_on channel=9 note=36 velocity=115 time=0
EXTRACT: note_on channel=7 note=32 velocity=0 time=0.023097820312499996
EXTRACT: note_on channel=9 note=36 velocity=0 time=0.0692934609375
EXTRACT: note_on channel=7 note=32 velocity=127 time=0.16847821875
EXTRACT: note_on channel=9 note=85 velocity=104 time=0
EXTRACT: note_on channel=9 note=39 velocity=53 time=0
EXTRACT: note_on channel=7 note=32 velocity=0 time=0.040760859375
EXTRACT: note_on channel=9 note=85 velocity=0 time=0.050271726562499994
EXTRACT: note_on channel=9 note=39 velocity=0 time=0.019021734375
EXTRACT: note_on channel=7 note=34 velocity=127 time=0.1508151796875
EXTRACT: note_on channel=9 note=36 velocity=114 time=0
EXTRACT: note_on channel=9 note=39 velocity=104 time=0
EXTRACT: note_on channel=9 note=39 velocity=0 time=0.0692934609375
EXTRACT: note_on channel=9 note=36 velocity=0 time=0.033967382812499995
EXTRACT: note_on channel=7 note=32 velocity=79 time=0.28804340624999997
EXTRACT: note_on channel=9 note=86 velocity=95 time=0
EXTRACT: note_on channel=7 note=32 velocity=0 time=0.0258152109375
EXTRACT: note_on channel=7 note=34 velocity=0 time=0.027173906249999998
EXTRACT: note_on channel=9 note=86 velocity=0 time=0.0529891171875
EXTRACT: note_on channel=7 note=29 velocity=115 time=0.024456515624999998
EXTRACT: note_on channel=9 note=36 velocity=110 time=0
EXTRACT: note_on channel=9 note=41 velocity=105 time=0
EXTRACT: note_on channel=9 note=41 velocity=0 time=0.1100543203125
EXTRACT: note_on channel=9 note=36 velocity=0 time=0.019021734375
EXTRACT: note_on channel=7 note=29 velocity=0 time=0.0258152109375
EXTRACT: note_on channel=7 note=29 velocity=115 time=0.23641298437499997
EXTRACT: note_on channel=7 note=29 velocity=0 time=0.024456515624999998
EXTRACT: note_on channel=7 note=36 velocity=127 time=0.105978234375
EXTRACT: note_on channel=9 note=36 velocity=114 time=0
EXTRACT: note_on channel=9 note=39 velocity=94 time=0
EXTRACT: note_on channel=9 note=39 velocity=0 time=0.105978234375
EXTRACT: note_on channel=9 note=36 velocity=0 time=0.01630434375
EXTRACT: note_on channel=7 note=34 velocity=115 time=0.008152171875
EXTRACT: note_on channel=7 note=36 velocity=0 time=0.0421195546875
EXTRACT: note_on channel=7 note=32 velocity=104 time=0.0883151953125
EXTRACT: note_on channel=7 note=34 velocity=0 time=0.0054347812499999995
EXTRACT: note_on channel=7 note=32 velocity=0 time=0.07201085156249999
EXTRACT: note_on channel=7 note=29 velocity=127 time=0.0529891171875
EXTRACT: note_on channel=9 note=36 velocity=114 time=0.13043475
EXTRACT: note_on channel=9 note=36 velocity=0 time=0.11277171093749999
EXTRACT: note_on channel=7 note=32 velocity=127 time=0.14809778906249998
EXTRACT: note_on channel=7 note=29 velocity=0 time=0.006793476562499999
EXTRACT: note_on channel=7 note=32 velocity=0 time=0.11820649218749998
EXTRACT: note_on channel=7 note=29 velocity=104 time=0.13586953124999998
EXTRACT: note_on channel=9 note=36 velocity=114 time=0
EXTRACT: note_on channel=9 note=39 velocity=94 time=0
EXTRACT: note_on channel=7 note=29 velocity=0 time=0.0258152109375
EXTRACT: note_on channel=9 note=39 velocity=0 time=0.07201085156249999
EXTRACT: note_on channel=9 note=36 velocity=0 time=0.017663039062499997
EXTRACT: note_on channel=7 note=32 velocity=63 time=0.14538039843749997
EXTRACT: note_on channel=7 note=32 velocity=0 time=0.03804346875
EXTRACT: note_on channel=7 note=29 velocity=104 time=0.09239128124999998
EXTRACT: note_on channel=9 note=86 velocity=95 time=0
EXTRACT: note_on channel=7 note=29 velocity=0 time=0.028532601562499996
EXTRACT: note_on channel=9 note=86 velocity=0 time=0.06114128906249999
EXTRACT: note_on channel=7 note=36 velocity=127 time=0.040760859375
EXTRACT: note_on channel=9 note=36 velocity=114 time=0
EXTRACT: note_on channel=9 note=41 velocity=104 time=0
EXTRACT: note_on channel=9 note=41 velocity=0 time=0.06385867968749999
EXTRACT: note_on channel=9 note=36 velocity=0 time=0.06114128906249999
EXTRACT: note_on channel=7 note=34 velocity=94 time=0.0054347812499999995
EXTRACT: note_on channel=7 note=36 velocity=0 time=0.021739124999999998
EXTRACT: note_on channel=7 note=32 velocity=104 time=0.10869562499999999
EXTRACT: note_on channel=7 note=34 velocity=0 time=0.051630421875
EXTRACT: note_on channel=7 note=32 velocity=0 time=0.0421195546875
EXTRACT: note_on channel=7 note=29 velocity=115 time=0.0366847734375
EXTRACT: note_on channel=9 note=36 velocity=114 time=0.13043475
EXTRACT: note_on channel=9 note=39 velocity=94 time=0
EXTRACT: note_on channel=9 note=36 velocity=0 time=0.10190214843749999
EXTRACT: note_on channel=9 note=39 velocity=0 time=0.0027173906249999998
EXTRACT: note_on channel=7 note=29 velocity=0 time=0.1508151796875
EXTRACT: note_on channel=7 note=32 velocity=127 time=0.0054347812499999995
EXTRACT: note_on channel=7 note=32 velocity=0 time=0.12771735937499998
EXTRACT: note_on channel=7 note=29 velocity=104 time=0.133152140625
EXTRACT: note_on channel=9 note=36 velocity=115 time=0
EXTRACT: note_on channel=7 note=29 velocity=0 time=0.029891296874999997
EXTRACT: note_on channel=9 note=36 velocity=0 time=0.062499984375
EXTRACT: note_on channel=9 note=85 velocity=104 time=0.16847821875
EXTRACT: note_on channel=9 note=39 velocity=53 time=0
EXTRACT: note_on channel=9 note=85 velocity=0 time=0.0910325859375
EXTRACT: note_on channel=9 note=39 velocity=0 time=0.019021734375
EXTRACT: note_on channel=7 note=41 velocity=127 time=0.1508151796875
EXTRACT: note_on channel=9 note=51 velocity=107 time=0
EXTRACT: note_on channel=9 note=36 velocity=114 time=0
EXTRACT: note_on channel=9 note=39 velocity=104 time=0
EXTRACT: note_on channel=9 note=46 velocity=127 time=0
EXTRACT: note_on channel=7 note=43 velocity=127 time=0.065217375
EXTRACT: note_on channel=9 note=39 velocity=0 time=0.0040760859375
EXTRACT: note_on channel=9 note=46 velocity=0 time=0.008152171875
EXTRACT: note_on channel=9 note=51 velocity=0 time=0
EXTRACT: note_on channel=7 note=41 velocity=0 time=0.010869562499999999
EXTRACT: note_on channel=9 note=36 velocity=0 time=0.014945648437499999
EXTRACT: note_on channel=7 note=41 velocity=127 time=0.28804340624999997
EXTRACT: note_on channel=7 note=43 velocity=0 time=0.01630434375
EXTRACT: note_on channel=7 note=41 velocity=0 time=0.05570650781249999
INTERVALS67 - (Will_Smith)-Men_In_Black_1 (1).mid
unison0
2m0
2M0
3m0
3M0
4m0
4M0
5m0
5M0
6m0
7m0
7M0
MUSIC75 - Nelly Furtado - Promiscuous Girl.mid
EXTRACT: control_change channel=0 control=0 value=0 time=0
EXTRACT: note_off channel=0 note=63 velocity=0 time=0
EXTRACT: note_off channel=0 note=46 velocity=0 time=0.0010416666666666667
EXTRACT: note_off channel=0 note=46 velocity=0 time=0.0010416666666666667
EXTRACT: note_off channel=0 note=58 velocity=0 time=0.0010416666666666667
EXTRACT: note_off channel=0 note=49 velocity=0 time=0.0010416666666666667
EXTRACT: control_change channel=0 control=32 value=0 time=0.0010416666666666667
EXTRACT: note_off channel=0 note=51 velocity=0 time=0
EXTRACT: note_off channel=0 note=53 velocity=0 time=0.0010416666666666667
EXTRACT: note_off channel=0 note=55 velocity=0 time=0.0010416666666666667
EXTRACT: note_off channel=0 note=53 velocity=0 time=0.0010416666666666667
EXTRACT: note_off channel=0 note=58 velocity=0 time=0.0010416666666666667
EXTRACT: program_change channel=0 program=75 time=0.0010416666666666667
EXTRACT: note_off channel=0 note=61 velocity=0 time=0
EXTRACT: note_off channel=0 note=51 velocity=0 time=0.0010416666666666667
EXTRACT: note_off channel=0 note=61 velocity=0 time=0.0010416666666666667
EXTRACT: note_off channel=0 note=61 velocity=0 time=0.0010416666666666667
EXTRACT: note_off channel=0 note=43 velocity=0 time=0.0010416666666666667
EXTRACT: control_change channel=0 control=7 value=127 time=0.0010416666666666667
EXTRACT: note_off channel=0 note=43 velocity=0 time=0
EXTRACT: control_change channel=0 control=10 value=64 time=0.005208333333333333
EXTRACT: control_change channel=0 control=91 value=124 time=0.005208333333333333
EXTRACT: control_change channel=0 control=93 value=0 time=0.005208333333333333
EXTRACT: control_change channel=0 control=94 value=0 time=0.005208333333333333
EXTRACT: control_change channel=0 control=5 value=0 time=0.005208333333333333
EXTRACT: control_change channel=0 control=11 value=127 time=0.005208333333333333
EXTRACT: note_off channel=0 note=46 velocity=0 time=0.24375
EXTRACT: note_off channel=0 note=63 velocity=0 time=0.03229166666666666
EXTRACT: note_off channel=0 note=46 velocity=0 time=0.10416666666666667
EXTRACT: note_off channel=0 note=58 velocity=0 time=0.08333333333333333
EXTRACT: note_off channel=0 note=49 velocity=0 time=0.13020833333333334
EXTRACT: note_off channel=0 note=51 velocity=0 time=0.125
EXTRACT: note_off channel=0 note=53 velocity=0 time=0.175
EXTRACT: control_change channel=0 control=101 value=0 time=0.059375
EXTRACT: control_change channel=0 control=100 value=0 time=0.005208333333333333
EXTRACT: note_off channel=0 note=55 velocity=0 time=0.0020833333333333333
EXTRACT: control_change channel=0 control=6 value=2 time=0.003125
EXTRACT: control_change channel=0 control=101 value=127 time=0.005208333333333333
EXTRACT: control_change channel=0 control=100 value=127 time=0.005208333333333333
EXTRACT: control_change channel=1 control=0 value=0 time=0
EXTRACT: control_change channel=1 control=32 value=0 time=0.005208333333333333
EXTRACT: program_change channel=1 program=66 time=0.005208333333333333
EXTRACT: control_change channel=1 control=7 value=127 time=0.005208333333333333
EXTRACT: control_change channel=1 control=10 value=64 time=0.005208333333333333
EXTRACT: control_change channel=1 control=91 value=125 time=0.005208333333333333
EXTRACT: control_change channel=1 control=93 value=0 time=0.005208333333333333
EXTRACT: control_change channel=1 control=94 value=0 time=0.005208333333333333
EXTRACT: control_change channel=1 control=11 value=127 time=0.005208333333333333
EXTRACT: control_change channel=2 control=0 value=0 time=0
EXTRACT: control_change channel=2 control=32 value=0 time=0.005208333333333333
EXTRACT: program_change channel=2 program=52 time=0.005208333333333333
EXTRACT: control_change channel=2 control=7 value=100 time=0.005208333333333333
EXTRACT: control_change channel=2 control=10 value=64 time=0.005208333333333333
EXTRACT: control_change channel=2 control=91 value=40 time=0.005208333333333333
EXTRACT: control_change channel=2 control=93 value=0 time=0.005208333333333333
EXTRACT: control_change channel=2 control=94 value=0 time=0.005208333333333333
EXTRACT: control_change channel=2 control=11 value=127 time=0.005208333333333333
EXTRACT: control_change channel=3 control=0 value=0 time=0
EXTRACT: note_off channel=0 note=53 velocity=0 time=0
EXTRACT: control_change channel=3 control=32 value=0 time=0.005208333333333333
EXTRACT: program_change channel=3 program=35 time=0.005208333333333333
EXTRACT: control_change channel=3 control=7 value=120 time=0.005208333333333333
EXTRACT: control_change channel=3 control=10 value=64 time=0.005208333333333333
EXTRACT: control_change channel=3 control=91 value=40 time=0.005208333333333333
EXTRACT: control_change channel=3 control=93 value=0 time=0.005208333333333333
EXTRACT: control_change channel=3 control=94 value=0 time=0.005208333333333333
EXTRACT: control_change channel=3 control=11 value=127 time=0.005208333333333333
EXTRACT: control_change channel=4 control=0 value=0 time=0
EXTRACT: control_change channel=4 control=32 value=0 time=0.005208333333333333
EXTRACT: program_change channel=4 program=4 time=0.005208333333333333
EXTRACT: control_change channel=4 control=7 value=120 time=0.005208333333333333
EXTRACT: control_change channel=4 control=10 value=64 time=0.005208333333333333
EXTRACT: control_change channel=4 control=91 value=40 time=0.005208333333333333
EXTRACT: control_change channel=4 control=93 value=0 time=0.005208333333333333
EXTRACT: control_change channel=4 control=94 value=0 time=0.005208333333333333
EXTRACT: control_change channel=4 control=11 value=127 time=0.005208333333333333
EXTRACT: control_change channel=5 control=0 value=0 time=0
EXTRACT: control_change channel=5 control=32 value=0 time=0.005208333333333333
EXTRACT: program_change channel=5 program=79 time=0.005208333333333333
EXTRACT: control_change channel=5 control=7 value=100 time=0.005208333333333333
EXTRACT: control_change channel=5 control=10 value=64 time=0.005208333333333333
EXTRACT: control_change channel=5 control=91 value=40 time=0.005208333333333333
EXTRACT: control_change channel=5 control=93 value=0 time=0.005208333333333333
EXTRACT: control_change channel=5 control=94 value=0 time=0.005208333333333333
EXTRACT: control_change channel=5 control=11 value=127 time=0.005208333333333333
EXTRACT: control_change channel=6 control=0 value=0 time=0
EXTRACT: control_change channel=6 control=32 value=0 time=0.005208333333333333
EXTRACT: program_change channel=6 program=62 time=0.005208333333333333
EXTRACT: control_change channel=6 control=7 value=105 time=0.005208333333333333
EXTRACT: control_change channel=6 control=10 value=64 time=0.005208333333333333
EXTRACT: control_change channel=6 control=91 value=40 time=0.005208333333333333
EXTRACT: control_change channel=6 control=93 value=0 time=0.005208333333333333
EXTRACT: control_change channel=6 control=94 value=0 time=0.005208333333333333
EXTRACT: control_change channel=6 control=11 value=127 time=0.005208333333333333
EXTRACT: control_change channel=9 control=0 value=127 time=0
EXTRACT: note_off channel=0 note=61 velocity=0 time=0
EXTRACT: note_off channel=0 note=58 velocity=0 time=0.003125
EXTRACT: control_change channel=9 control=32 value=0 time=0.0020833333333333333
EXTRACT: program_change channel=9 program=24 time=0.005208333333333333
EXTRACT: control_change channel=9 control=7 value=127 time=0.005208333333333333
EXTRACT: control_change channel=9 control=10 value=64 time=0.005208333333333333
EXTRACT: control_change channel=9 control=91 value=95 time=0.005208333333333333
EXTRACT: control_change channel=9 control=93 value=127 time=0.005208333333333333
EXTRACT: control_change channel=9 control=94 value=0 time=0.005208333333333333
EXTRACT: control_change channel=9 control=5 value=0 time=0.005208333333333333
EXTRACT: control_change channel=9 control=11 value=127 time=0.005208333333333333
EXTRACT: control_change channel=9 control=99 value=28 time=0.005208333333333333
EXTRACT: control_change channel=9 control=98 value=28 time=0.005208333333333333
EXTRACT: control_change channel=9 control=6 value=0 time=0.005208333333333333
EXTRACT: control_change channel=9 control=99 value=29 time=0.005208333333333333
EXTRACT: control_change channel=9 control=98 value=28 time=0.005208333333333333
EXTRACT: control_change channel=9 control=6 value=127 time=0.005208333333333333
EXTRACT: control_change channel=9 control=101 value=0 time=0.005208333333333333
EXTRACT: control_change channel=9 control=100 value=0 time=0.005208333333333333
EXTRACT: control_change channel=9 control=6 value=2 time=0.005208333333333333
EXTRACT: note_off channel=0 note=51 velocity=0 time=0.0010416666666666667
EXTRACT: control_change channel=9 control=101 value=127 time=0.004166666666666667
EXTRACT: control_change channel=9 control=100 value=127 time=0.005208333333333333
EXTRACT: control_change channel=7 control=0 value=0 time=0
EXTRACT: control_change channel=7 control=32 value=0 time=0.005208333333333333
EXTRACT: program_change channel=7 program=102 time=0.005208333333333333
EXTRACT: control_change channel=7 control=7 value=127 time=0.005208333333333333
EXTRACT: control_change channel=7 control=10 value=64 time=0.005208333333333333
EXTRACT: control_change channel=7 control=91 value=40 time=0.005208333333333333
EXTRACT: control_change channel=7 control=93 value=0 time=0.005208333333333333
EXTRACT: control_change channel=7 control=94 value=0 time=0.005208333333333333
EXTRACT: note_off channel=0 note=61 velocity=0 time=0
EXTRACT: control_change channel=7 control=11 value=127 time=0.005208333333333333
EXTRACT: control_change channel=8 control=0 value=0 time=0
EXTRACT: control_change channel=8 control=32 value=0 time=0.005208333333333333
EXTRACT: program_change channel=8 program=81 time=0.005208333333333333
EXTRACT: control_change channel=8 control=7 value=30 time=0.005208333333333333
EXTRACT: control_change channel=8 control=10 value=64 time=0.005208333333333333
EXTRACT: control_change channel=8 control=91 value=40 time=0.005208333333333333
EXTRACT: control_change channel=8 control=93 value=0 time=0.005208333333333333
EXTRACT: control_change channel=8 control=94 value=0 time=0.005208333333333333
EXTRACT: control_change channel=8 control=11 value=127 time=0.005208333333333333
EXTRACT: control_change channel=10 control=0 value=0 time=0
EXTRACT: control_change channel=10 control=32 value=0 time=0.005208333333333333
EXTRACT: program_change channel=10 program=5 time=0.005208333333333333
EXTRACT: control_change channel=10 control=7 value=100 time=0.005208333333333333
EXTRACT: control_change channel=10 control=10 value=64 time=0.005208333333333333
EXTRACT: control_change channel=10 control=91 value=40 time=0.005208333333333333
EXTRACT: control_change channel=10 control=93 value=0 time=0.005208333333333333
EXTRACT: control_change channel=10 control=94 value=0 time=0.005208333333333333
EXTRACT: control_change channel=10 control=11 value=127 time=0.005208333333333333
EXTRACT: note_off channel=0 note=61 velocity=0 time=0.07604166666666666
EXTRACT: note_off channel=0 note=43 velocity=0 time=0.1
EXTRACT: note_off channel=0 note=43 velocity=0 time=0.07395833333333333
EXTRACT: note_on channel=5 note=61 velocity=127 time=0.25
EXTRACT: note_on channel=9 note=36 velocity=127 time=0
EXTRACT: note_on channel=9 note=35 velocity=127 time=0
EXTRACT: note_on channel=9 note=28 velocity=54 time=0
EXTRACT: note_on channel=9 note=38 velocity=65 time=0
EXTRACT: note_on channel=9 note=75 velocity=61 time=0
EXTRACT: note_on channel=7 note=22 velocity=127 time=0
EXTRACT: note_on channel=8 note=61 velocity=127 time=0
EXTRACT: note_off channel=9 note=75 velocity=61 time=0.11875
EXTRACT: note_off channel=9 note=28 velocity=54 time=0.07083333333333333
EXTRACT: note_off channel=9 note=38 velocity=65 time=0.034375
EXTRACT: note_off channel=9 note=36 velocity=127 time=0.005208333333333333
EXTRACT: note_off channel=9 note=35 velocity=127 time=0
EXTRACT: note_off channel=5 note=61 velocity=127 time=0.01875
EXTRACT: note_off channel=8 note=61 velocity=127 time=0
EXTRACT: note_on channel=5 note=58 velocity=127 time=0.0020833333333333333
EXTRACT: note_on channel=9 note=28 velocity=56 time=0
EXTRACT: note_on channel=9 note=75 velocity=61 time=0
EXTRACT: note_on channel=8 note=58 velocity=127 time=0
EXTRACT: note_off channel=9 note=75 velocity=61 time=0.11875
EXTRACT: note_on channel=9 note=75 velocity=61 time=0.00625
EXTRACT: note_off channel=9 note=28 velocity=56 time=0.06458333333333333
EXTRACT: note_off channel=9 note=75 velocity=61 time=0.05416666666666667
EXTRACT: note_off channel=5 note=58 velocity=127 time=0.004166666666666667
EXTRACT: note_off channel=8 note=58 velocity=127 time=0
EXTRACT: note_on channel=5 note=61 velocity=127 time=0.0020833333333333333
EXTRACT: note_on channel=9 note=37 velocity=127 time=0
EXTRACT: note_on channel=9 note=42 velocity=127 time=0
EXTRACT: note_on channel=9 note=28 velocity=52 time=0
EXTRACT: note_on channel=9 note=75 velocity=61 time=0
EXTRACT: note_on channel=9 note=62 velocity=127 time=0
EXTRACT: note_on channel=8 note=61 velocity=127 time=0
EXTRACT: note_off channel=7 note=22 velocity=127 time=0.015625
EXTRACT: note_off channel=9 note=75 velocity=61 time=0.103125
EXTRACT: note_off channel=9 note=28 velocity=52 time=0.07083333333333333
EXTRACT: note_off channel=9 note=37 velocity=127 time=0.03958333333333333
EXTRACT: note_off channel=9 note=42 velocity=127 time=0
EXTRACT: note_off channel=5 note=61 velocity=127 time=0.01875
EXTRACT: note_off channel=8 note=61 velocity=127 time=0
EXTRACT: note_on channel=5 note=58 velocity=127 time=0.0020833333333333333
EXTRACT: note_on channel=9 note=36 velocity=127 time=0
EXTRACT: note_on channel=9 note=35 velocity=127 time=0
EXTRACT: note_on channel=9 note=28 velocity=52 time=0
EXTRACT: note_on channel=9 note=38 velocity=67 time=0
EXTRACT: note_on channel=9 note=75 velocity=61 time=0
EXTRACT: note_on channel=8 note=58 velocity=127 time=0
EXTRACT: note_off channel=9 note=62 velocity=127 time=0.0010416666666666667
EXTRACT: note_off channel=9 note=75 velocity=61 time=0.11770833333333333
EXTRACT: note_off channel=9 note=28 velocity=52 time=0.07083333333333333
EXTRACT: note_off channel=9 note=38 velocity=67 time=0.034375
EXTRACT: note_off channel=9 note=36 velocity=127 time=0.005208333333333333
EXTRACT: note_off channel=9 note=35 velocity=127 time=0
EXTRACT: note_off channel=5 note=58 velocity=127 time=0.01875
EXTRACT: note_off channel=8 note=58 velocity=127 time=0
EXTRACT: note_on channel=5 note=65 velocity=127 time=0.0020833333333333333
EXTRACT: note_on channel=9 note=28 velocity=52 time=0
EXTRACT: note_on channel=8 note=65 velocity=127 time=0
EXTRACT: note_off channel=9 note=28 velocity=52 time=0.18958333333333333
EXTRACT: note_off channel=5 note=65 velocity=127 time=0.058333333333333334
EXTRACT: note_off channel=8 note=65 velocity=127 time=0
EXTRACT: note_on channel=5 note=63 velocity=127 time=0.0020833333333333333
EXTRACT: note_on channel=9 note=36 velocity=127 time=0
EXTRACT: note_on channel=9 note=35 velocity=127 time=0
EXTRACT: note_on channel=9 note=28 velocity=52 time=0
EXTRACT: note_on channel=9 note=43 velocity=43 time=0
EXTRACT: note_on channel=9 note=38 velocity=67 time=0
EXTRACT: note_on channel=9 note=75 velocity=56 time=0
EXTRACT: note_on channel=8 note=63 velocity=127 time=0
EXTRACT: note_off channel=9 note=43 velocity=43 time=0.096875
EXTRACT: note_off channel=9 note=75 velocity=56 time=0.021875
EXTRACT: note_on channel=9 note=41 velocity=43 time=0.00625
EXTRACT: note_off channel=9 note=28 velocity=52 time=0.06458333333333333
EXTRACT: note_off channel=9 note=41 velocity=43 time=0.03229166666666666
EXTRACT: note_off channel=9 note=38 velocity=67 time=0.0020833333333333333
EXTRACT: note_off channel=9 note=36 velocity=127 time=0.005208333333333333
EXTRACT: note_off channel=9 note=35 velocity=127 time=0
EXTRACT: note_off channel=5 note=63 velocity=127 time=0.01875
EXTRACT: note_off channel=8 note=63 velocity=127 time=0
EXTRACT: note_on channel=5 note=63 velocity=127 time=0.0020833333333333333
EXTRACT: note_on channel=9 note=37 velocity=127 time=0
EXTRACT: note_on channel=9 note=42 velocity=127 time=0
EXTRACT: note_on channel=9 note=28 velocity=52 time=0
EXTRACT: note_on channel=9 note=62 velocity=127 time=0
EXTRACT: note_on channel=8 note=63 velocity=127 time=0
EXTRACT: note_on channel=9 note=36 velocity=127 time=0.125
EXTRACT: note_on channel=9 note=35 velocity=127 time=0
EXTRACT: note_on channel=9 note=38 velocity=65 time=0
EXTRACT: note_off channel=9 note=28 velocity=52 time=0.06458333333333333
EXTRACT: note_off channel=9 note=37 velocity=127 time=0.03958333333333333
EXTRACT: note_off channel=9 note=42 velocity=127 time=0
EXTRACT: note_off channel=5 note=63 velocity=127 time=0.01875
EXTRACT: note_off channel=8 note=63 velocity=127 time=0
EXTRACT: note_on channel=5 note=61 velocity=127 time=0.0020833333333333333
EXTRACT: note_on channel=9 note=37 velocity=127 time=0
EXTRACT: note_on channel=9 note=42 velocity=127 time=0
EXTRACT: note_on channel=9 note=28 velocity=54 time=0
EXTRACT: note_on channel=9 note=75 velocity=60 time=0
EXTRACT: note_on channel=9 note=62 velocity=127 time=0
EXTRACT: note_on channel=8 note=61 velocity=127 time=0
EXTRACT: note_off channel=9 note=62 velocity=127 time=0.0010416666666666667
EXTRACT: note_off channel=9 note=38 velocity=65 time=0.09791666666666667
EXTRACT: note_off channel=9 note=36 velocity=127 time=0.005208333333333333
EXTRACT: note_off channel=9 note=35 velocity=127 time=0
EXTRACT: note_off channel=9 note=75 velocity=60 time=0.014583333333333334
EXTRACT: note_on channel=9 note=75 velocity=58 time=0.00625
EXTRACT: note_off channel=9 note=28 velocity=54 time=0.06458333333333333
EXTRACT: note_off channel=9 note=37 velocity=127 time=0.03958333333333333
EXTRACT: note_off channel=9 note=42 velocity=127 time=0
EXTRACT: note_off channel=9 note=75 velocity=58 time=0.014583333333333334
EXTRACT: note_off channel=5 note=61 velocity=127 time=0.004166666666666667
EXTRACT: note_off channel=8 note=61 velocity=127 time=0
EXTRACT: note_on channel=5 note=61 velocity=127 time=0.0020833333333333333
EXTRACT: note_on channel=9 note=28 velocity=54 time=0
EXTRACT: note_on channel=9 note=35 velocity=127 time=0
EXTRACT: note_on channel=9 note=36 velocity=127 time=0
EXTRACT: note_on channel=9 note=38 velocity=65 time=0
EXTRACT: note_on channel=9 note=75 velocity=61 time=0
EXTRACT: note_on channel=8 note=61 velocity=127 time=0
EXTRACT: note_off channel=9 note=62 velocity=127 time=0.0010416666666666667
EXTRACT: note_off channel=9 note=75 velocity=61 time=0.11770833333333333
EXTRACT: note_off channel=9 note=28 velocity=54 time=0.07083333333333333
EXTRACT: note_off channel=9 note=38 velocity=65 time=0.034375
EXTRACT: note_off channel=9 note=35 velocity=127 time=0.005208333333333333
EXTRACT: note_off channel=9 note=36 velocity=127 time=0
EXTRACT: note_off channel=5 note=61 velocity=127 time=0.01875
EXTRACT: note_off channel=8 note=61 velocity=127 time=0
EXTRACT: note_on channel=5 note=58 velocity=127 time=0.0020833333333333333
EXTRACT: note_on channel=9 note=28 velocity=56 time=0
EXTRACT: note_on channel=9 note=75 velocity=61 time=0
EXTRACT: note_on channel=8 note=58 velocity=127 time=0
EXTRACT: note_off channel=9 note=75 velocity=61 time=0.11875
EXTRACT: note_on channel=9 note=75 velocity=61 time=0.00625
EXTRACT: note_off channel=9 note=28 velocity=56 time=0.06458333333333333
EXTRACT: note_off channel=9 note=75 velocity=61 time=0.05416666666666667
EXTRACT: note_off channel=5 note=58 velocity=127 time=0.004166666666666667
EXTRACT: note_off channel=8 note=58 velocity=127 time=0
EXTRACT: note_on channel=5 note=61 velocity=127 time=0.0020833333333333333
EXTRACT: note_on channel=9 note=28 velocity=52 time=0
EXTRACT: note_on channel=9 note=42 velocity=127 time=0
EXTRACT: note_on channel=9 note=37 velocity=127 time=0
EXTRACT: note_on channel=9 note=62 velocity=127 time=0
EXTRACT: note_on channel=9 note=75 velocity=61 time=0
EXTRACT: note_on channel=8 note=61 velocity=127 time=0
EXTRACT: note_off channel=9 note=75 velocity=61 time=0.11875
EXTRACT: note_off channel=9 note=28 velocity=52 time=0.07083333333333333
EXTRACT: note_off channel=9 note=42 velocity=127 time=0.03958333333333333
EXTRACT: note_off channel=9 note=37 velocity=127 time=0
EXTRACT: note_off channel=5 note=61 velocity=127 time=0.01875
EXTRACT: note_off channel=8 note=61 velocity=127 time=0
EXTRACT: note_on channel=5 note=58 velocity=127 time=0.0020833333333333333
EXTRACT: note_on channel=9 note=28 velocity=52 time=0
EXTRACT: note_on channel=9 note=35 velocity=127 time=0
EXTRACT: note_on channel=9 note=36 velocity=127 time=0
EXTRACT: note_on channel=9 note=38 velocity=67 time=0
EXTRACT: note_on channel=9 note=75 velocity=61 time=0
EXTRACT: note_on channel=8 note=58 velocity=127 time=0
EXTRACT: note_off channel=9 note=62 velocity=127 time=0.0010416666666666667
EXTRACT: note_off channel=9 note=75 velocity=61 time=0.11770833333333333
EXTRACT: note_off channel=9 note=28 velocity=52 time=0.07083333333333333
EXTRACT: note_off channel=9 note=38 velocity=67 time=0.034375
EXTRACT: note_off channel=9 note=35 velocity=127 time=0.005208333333333333
EXTRACT: note_off channel=9 note=36 velocity=127 time=0
EXTRACT: note_off channel=5 note=58 velocity=127 time=0.01875
EXTRACT: note_off channel=8 note=58 velocity=127 time=0
EXTRACT: note_on channel=5 note=65 velocity=127 time=0.0020833333333333333
EXTRACT: note_on channel=9 note=28 velocity=52 time=0
EXTRACT: note_on channel=8 note=65 velocity=127 time=0
EXTRACT: note_off channel=9 note=28 velocity=52 time=0.18958333333333333
EXTRACT: note_off channel=5 note=65 velocity=127 time=0.058333333333333334
EXTRACT: note_off channel=8 note=65 velocity=127 time=0
EXTRACT: note_on channel=5 note=63 velocity=127 time=0.0020833333333333333
EXTRACT: note_on channel=9 note=43 velocity=43 time=0
EXTRACT: note_on channel=9 note=28 velocity=52 time=0
EXTRACT: note_on channel=9 note=35 velocity=127 time=0
EXTRACT: note_on channel=9 note=36 velocity=127 time=0
EXTRACT: note_on channel=9 note=38 velocity=67 time=0
EXTRACT: note_on channel=9 note=75 velocity=56 time=0
EXTRACT: note_on channel=8 note=63 velocity=127 time=0
EXTRACT: note_off channel=9 note=43 velocity=43 time=0.096875
EXTRACT: note_off channel=9 note=75 velocity=56 time=0.021875
EXTRACT: note_on channel=9 note=41 velocity=43 time=0.00625
EXTRACT: note_off channel=9 note=28 velocity=52 time=0.06458333333333333
EXTRACT: note_off channel=9 note=41 velocity=43 time=0.03229166666666666
EXTRACT: note_off channel=9 note=38 velocity=67 time=0.0020833333333333333
EXTRACT: note_off channel=9 note=35 velocity=127 time=0.005208333333333333
EXTRACT: note_off channel=9 note=36 velocity=127 time=0
EXTRACT: note_off channel=5 note=63 velocity=127 time=0.01875
EXTRACT: note_off channel=8 note=63 velocity=127 time=0
EXTRACT: note_on channel=5 note=63 velocity=127 time=0.0020833333333333333
EXTRACT: note_on channel=9 note=28 velocity=52 time=0
EXTRACT: note_on channel=9 note=42 velocity=127 time=0
EXTRACT: note_on channel=9 note=37 velocity=127 time=0
EXTRACT: note_on channel=9 note=62 velocity=127 time=0
EXTRACT: note_on channel=8 note=63 velocity=127 time=0
EXTRACT: note_on channel=9 note=35 velocity=127 time=0.125
EXTRACT: note_on channel=9 note=36 velocity=127 time=0
EXTRACT: note_on channel=9 note=38 velocity=65 time=0
EXTRACT: note_off channel=9 note=28 velocity=52 time=0.06458333333333333
EXTRACT: note_off channel=9 note=42 velocity=127 time=0.03958333333333333
EXTRACT: note_off channel=9 note=37 velocity=127 time=0
EXTRACT: note_off channel=5 note=63 velocity=127 time=0.01875
EXTRACT: note_off channel=8 note=63 velocity=127 time=0
EXTRACT: note_on channel=5 note=61 velocity=127 time=0.0020833333333333333
EXTRACT: note_on channel=9 note=28 velocity=54 time=0
EXTRACT: note_on channel=9 note=42 velocity=127 time=0
EXTRACT: note_on channel=9 note=37 velocity=127 time=0
EXTRACT: note_on channel=9 note=62 velocity=127 time=0
EXTRACT: note_on channel=9 note=75 velocity=60 time=0
EXTRACT: note_on channel=8 note=61 velocity=127 time=0
EXTRACT: note_off channel=9 note=62 velocity=127 time=0.0010416666666666667
EXTRACT: note_off channel=9 note=38 velocity=65 time=0.09791666666666667
EXTRACT: note_off channel=9 note=35 velocity=127 time=0.005208333333333333
EXTRACT: note_off channel=9 note=36 velocity=127 time=0
EXTRACT: note_off channel=9 note=75 velocity=60 time=0.014583333333333334
EXTRACT: note_on channel=9 note=75 velocity=58 time=0.00625
EXTRACT: note_off channel=9 note=28 velocity=54 time=0.06458333333333333
EXTRACT: note_off channel=9 note=42 velocity=127 time=0.03958333333333333
EXTRACT: note_off channel=9 note=37 velocity=127 time=0
EXTRACT: note_off channel=9 note=75 velocity=58 time=0.014583333333333334
EXTRACT: note_off channel=5 note=61 velocity=127 time=0.004166666666666667
EXTRACT: note_off channel=8 note=61 velocity=127 time=0
EXTRACT: note_on channel=5 note=61 velocity=127 time=0.0020833333333333333
EXTRACT: note_on channel=9 note=28 velocity=54 time=0
EXTRACT: note_on channel=9 note=35 velocity=127 time=0
EXTRACT: note_on channel=9 note=36 velocity=127 time=0
EXTRACT: note_on channel=9 note=38 velocity=65 time=0
EXTRACT: note_on channel=9 note=75 velocity=61 time=0
EXTRACT: note_on channel=8 note=61 velocity=127 time=0
EXTRACT: note_off channel=9 note=62 velocity=127 time=0.0010416666666666667
EXTRACT: note_off channel=9 note=75 velocity=61 time=0.11770833333333333
EXTRACT: note_off channel=9 note=28 velocity=54 time=0.07083333333333333
EXTRACT: note_off channel=9 note=38 velocity=65 time=0.034375
EXTRACT: note_off channel=9 note=35 velocity=127 time=0.005208333333333333
EXTRACT: note_off channel=9 note=36 velocity=127 time=0
EXTRACT: note_off channel=5 note=61 velocity=127 time=0.01875
EXTRACT: note_off channel=8 note=61 velocity=127 time=0
EXTRACT: note_on channel=5 note=58 velocity=127 time=0.0020833333333333333
EXTRACT: note_on channel=9 note=28 velocity=56 time=0
EXTRACT: note_on channel=9 note=75 velocity=61 time=0
EXTRACT: note_on channel=8 note=58 velocity=127 time=0
EXTRACT: note_off channel=9 note=75 velocity=61 time=0.11875
EXTRACT: note_on channel=9 note=75 velocity=61 time=0.00625
EXTRACT: note_off channel=9 note=28 velocity=56 time=0.06458333333333333
EXTRACT: note_off channel=9 note=75 velocity=61 time=0.05416666666666667
EXTRACT: note_off channel=5 note=58 velocity=127 time=0.004166666666666667
EXTRACT: note_off channel=8 note=58 velocity=127 time=0
EXTRACT: note_on channel=5 note=61 velocity=127 time=0.0020833333333333333
EXTRACT: note_on channel=9 note=28 velocity=52 time=0
EXTRACT: note_on channel=9 note=42 velocity=127 time=0
EXTRACT: note_on channel=9 note=37 velocity=127 time=0
EXTRACT: note_on channel=9 note=62 velocity=127 time=0
EXTRACT: note_on channel=9 note=75 velocity=61 time=0
EXTRACT: note_on channel=8 note=61 velocity=127 time=0
EXTRACT: note_off channel=9 note=75 velocity=61 time=0.11875
EXTRACT: note_off channel=9 note=28 velocity=52 time=0.07083333333333333
EXTRACT: note_off channel=9 note=42 velocity=127 time=0.03958333333333333
EXTRACT: note_off channel=9 note=37 velocity=127 time=0
EXTRACT: note_off channel=5 note=61 velocity=127 time=0.01875
EXTRACT: note_off channel=8 note=61 velocity=127 time=0
EXTRACT: note_on channel=5 note=58 velocity=127 time=0.0020833333333333333
EXTRACT: note_on channel=9 note=28 velocity=52 time=0
EXTRACT: note_on channel=9 note=35 velocity=127 time=0
EXTRACT: note_on channel=9 note=36 velocity=127 time=0
EXTRACT: note_on channel=9 note=38 velocity=67 time=0
EXTRACT: note_on channel=9 note=75 velocity=61 time=0
EXTRACT: note_on channel=8 note=58 velocity=127 time=0
EXTRACT: note_off channel=9 note=62 velocity=127 time=0.0010416666666666667
EXTRACT: note_off channel=9 note=75 velocity=61 time=0.11770833333333333
EXTRACT: note_off channel=9 note=28 velocity=52 time=0.07083333333333333
EXTRACT: note_off channel=9 note=38 velocity=67 time=0.034375
EXTRACT: note_off channel=9 note=35 velocity=127 time=0.005208333333333333
EXTRACT: note_off channel=9 note=36 velocity=127 time=0
EXTRACT: note_off channel=5 note=58 velocity=127 time=0.01875
EXTRACT: note_off channel=8 note=58 velocity=127 time=0
EXTRACT: note_on channel=5 note=65 velocity=127 time=0.0020833333333333333
EXTRACT: note_on channel=9 note=28 velocity=52 time=0
EXTRACT: note_on channel=8 note=65 velocity=127 time=0
EXTRACT: note_off channel=9 note=28 velocity=52 time=0.18958333333333333
EXTRACT: note_off channel=5 note=65 velocity=127 time=0.058333333333333334
EXTRACT: note_off channel=8 note=65 velocity=127 time=0
EXTRACT: note_on channel=5 note=63 velocity=127 time=0.0020833333333333333
EXTRACT: note_on channel=9 note=43 velocity=43 time=0
EXTRACT: note_on channel=9 note=28 velocity=52 time=0
EXTRACT: note_on channel=9 note=35 velocity=127 time=0
EXTRACT: note_on channel=9 note=36 velocity=127 time=0
EXTRACT: note_on channel=9 note=38 velocity=67 time=0
EXTRACT: note_on channel=9 note=75 velocity=56 time=0
EXTRACT: note_on channel=8 note=63 velocity=127 time=0
EXTRACT: note_off channel=9 note=43 velocity=43 time=0.096875
EXTRACT: note_off channel=9 note=75 velocity=56 time=0.021875
EXTRACT: note_on channel=9 note=41 velocity=43 time=0.00625
EXTRACT: note_off channel=9 note=28 velocity=52 time=0.06458333333333333
EXTRACT: note_off channel=9 note=41 velocity=43 time=0.03229166666666666
EXTRACT: note_off channel=9 note=38 velocity=67 time=0.0020833333333333333
EXTRACT: note_off channel=9 note=35 velocity=127 time=0.005208333333333333
EXTRACT: note_off channel=9 note=36 velocity=127 time=0
EXTRACT: note_off channel=5 note=63 velocity=127 time=0.01875
EXTRACT: note_off channel=8 note=63 velocity=127 time=0
EXTRACT: note_on channel=5 note=63 velocity=127 time=0.0020833333333333333
EXTRACT: note_on channel=9 note=28 velocity=52 time=0
EXTRACT: note_on channel=9 note=42 velocity=127 time=0
EXTRACT: note_on channel=9 note=37 velocity=127 time=0
EXTRACT: note_on channel=9 note=62 velocity=127 time=0
EXTRACT: note_on channel=8 note=63 velocity=127 time=0
EXTRACT: note_on channel=9 note=35 velocity=127 time=0.125
EXTRACT: note_on channel=9 note=36 velocity=127 time=0
EXTRACT: note_on channel=9 note=38 velocity=65 time=0
EXTRACT: note_off channel=9 note=28 velocity=52 time=0.06458333333333333
EXTRACT: note_off channel=9 note=42 velocity=127 time=0.03958333333333333
EXTRACT: note_off channel=9 note=37 velocity=127 time=0
EXTRACT: note_off channel=5 note=63 velocity=127 time=0.01875
EXTRACT: note_off channel=8 note=63 velocity=127 time=0
EXTRACT: note_on channel=5 note=61 velocity=127 time=0.0020833333333333333
EXTRACT: note_on channel=9 note=28 velocity=54 time=0
EXTRACT: note_on channel=9 note=42 velocity=127 time=0
EXTRACT: note_on channel=9 note=37 velocity=127 time=0
EXTRACT: note_on channel=9 note=62 velocity=127 time=0
EXTRACT: note_on channel=9 note=75 velocity=60 time=0
EXTRACT: note_on channel=8 note=61 velocity=127 time=0
EXTRACT: note_off channel=9 note=62 velocity=127 time=0.0010416666666666667
EXTRACT: note_off channel=9 note=38 velocity=65 time=0.09791666666666667
EXTRACT: note_off channel=9 note=35 velocity=127 time=0.005208333333333333
EXTRACT: note_off channel=9 note=36 velocity=127 time=0
EXTRACT: note_off channel=9 note=75 velocity=60 time=0.014583333333333334
EXTRACT: note_on channel=9 note=75 velocity=58 time=0.00625
EXTRACT: note_off channel=9 note=28 velocity=54 time=0.06458333333333333
EXTRACT: note_off channel=9 note=42 velocity=127 time=0.03958333333333333
EXTRACT: note_off channel=9 note=37 velocity=127 time=0
EXTRACT: note_off channel=9 note=75 velocity=58 time=0.014583333333333334
EXTRACT: note_off channel=5 note=61 velocity=127 time=0.004166666666666667
EXTRACT: note_off channel=8 note=61 velocity=127 time=0
EXTRACT: note_on channel=5 note=61 velocity=127 time=0.0020833333333333333
EXTRACT: note_on channel=9 note=28 velocity=54 time=0
EXTRACT: note_on channel=9 note=35 velocity=127 time=0
EXTRACT: note_on channel=9 note=36 velocity=127 time=0
EXTRACT: note_on channel=9 note=38 velocity=65 time=0
EXTRACT: note_on channel=9 note=75 velocity=61 time=0
EXTRACT: note_on channel=8 note=61 velocity=127 time=0
EXTRACT: note_off channel=9 note=62 velocity=127 time=0.0010416666666666667
EXTRACT: note_off channel=9 note=75 velocity=61 time=0.11770833333333333
EXTRACT: note_off channel=9 note=28 velocity=54 time=0.07083333333333333
EXTRACT: note_off channel=9 note=38 velocity=65 time=0.034375
EXTRACT: note_off channel=9 note=35 velocity=127 time=0.005208333333333333
EXTRACT: note_off channel=9 note=36 velocity=127 time=0
EXTRACT: note_off channel=5 note=61 velocity=127 time=0.01875
EXTRACT: note_off channel=8 note=61 velocity=127 time=0
EXTRACT: note_on channel=5 note=58 velocity=127 time=0.0020833333333333333
EXTRACT: note_on channel=9 note=28 velocity=56 time=0
EXTRACT: note_on channel=9 note=75 velocity=61 time=0
EXTRACT: note_on channel=8 note=58 velocity=127 time=0
EXTRACT: note_off channel=9 note=75 velocity=61 time=0.11875
EXTRACT: note_on channel=9 note=75 velocity=61 time=0.00625
EXTRACT: note_off channel=9 note=28 velocity=56 time=0.06458333333333333
EXTRACT: note_off channel=9 note=75 velocity=61 time=0.05416666666666667
EXTRACT: note_off channel=5 note=58 velocity=127 time=0.004166666666666667
EXTRACT: note_off channel=8 note=58 velocity=127 time=0
EXTRACT: note_on channel=5 note=61 velocity=127 time=0.0020833333333333333
EXTRACT: note_on channel=9 note=28 velocity=52 time=0
EXTRACT: note_on channel=9 note=42 velocity=127 time=0
EXTRACT: note_on channel=9 note=37 velocity=127 time=0
EXTRACT: note_on channel=9 note=62 velocity=127 time=0
EXTRACT: note_on channel=9 note=75 velocity=61 time=0
EXTRACT: note_on channel=8 note=61 velocity=127 time=0
EXTRACT: note_off channel=9 note=75 velocity=61 time=0.11875
EXTRACT: note_off channel=9 note=28 velocity=52 time=0.07083333333333333
EXTRACT: note_off channel=9 note=42 velocity=127 time=0.03958333333333333
EXTRACT: note_off channel=9 note=37 velocity=127 time=0
EXTRACT: note_off channel=5 note=61 velocity=127 time=0.01875
EXTRACT: note_off channel=8 note=61 velocity=127 time=0
EXTRACT: note_on channel=5 note=58 velocity=127 time=0.0020833333333333333
EXTRACT: note_on channel=9 note=28 velocity=52 time=0
EXTRACT: note_on channel=9 note=35 velocity=127 time=0
EXTRACT: note_on channel=9 note=36 velocity=127 time=0
EXTRACT: note_on channel=9 note=38 velocity=67 time=0
EXTRACT: note_on channel=9 note=75 velocity=61 time=0
EXTRACT: note_on channel=8 note=58 velocity=127 time=0
EXTRACT: note_off channel=9 note=62 velocity=127 time=0.0010416666666666667
EXTRACT: note_off channel=9 note=75 velocity=61 time=0.11770833333333333
EXTRACT: note_off channel=9 note=28 velocity=52 time=0.07083333333333333
EXTRACT: note_off channel=9 note=38 velocity=67 time=0.034375
EXTRACT: note_off channel=9 note=35 velocity=127 time=0.005208333333333333
EXTRACT: note_off channel=9 note=36 velocity=127 time=0
EXTRACT: note_off channel=5 note=58 velocity=127 time=0.01875
EXTRACT: note_off channel=8 note=58 velocity=127 time=0
EXTRACT: note_on channel=5 note=65 velocity=127 time=0.0020833333333333333
EXTRACT: note_on channel=9 note=28 velocity=52 time=0
EXTRACT: note_on channel=8 note=65 velocity=127 time=0
EXTRACT: note_off channel=9 note=28 velocity=52 time=0.18958333333333333
EXTRACT: note_off channel=5 note=65 velocity=127 time=0.058333333333333334
EXTRACT: note_off channel=8 note=65 velocity=127 time=0
EXTRACT: note_on channel=5 note=63 velocity=127 time=0.0020833333333333333
EXTRACT: note_on channel=9 note=43 velocity=43 time=0
EXTRACT: note_on channel=9 note=28 velocity=52 time=0
EXTRACT: note_on channel=9 note=35 velocity=127 time=0
EXTRACT: note_on channel=9 note=36 velocity=127 time=0
EXTRACT: note_on channel=9 note=38 velocity=67 time=0
EXTRACT: note_on channel=9 note=75 velocity=56 time=0
EXTRACT: note_on channel=8 note=63 velocity=127 time=0
EXTRACT: note_off channel=9 note=43 velocity=43 time=0.096875
EXTRACT: note_off channel=9 note=75 velocity=56 time=0.021875
EXTRACT: note_on channel=9 note=41 velocity=43 time=0.00625
EXTRACT: note_off channel=9 note=28 velocity=52 time=0.06458333333333333
EXTRACT: note_off channel=9 note=41 velocity=43 time=0.03229166666666666
EXTRACT: note_off channel=9 note=38 velocity=67 time=0.0020833333333333333
EXTRACT: note_off channel=9 note=35 velocity=127 time=0.005208333333333333
EXTRACT: note_off channel=9 note=36 velocity=127 time=0
EXTRACT: note_off channel=5 note=63 velocity=127 time=0.01875
EXTRACT: note_off channel=8 note=63 velocity=127 time=0
EXTRACT: note_on channel=5 note=63 velocity=127 time=0.0020833333333333333
EXTRACT: note_on channel=9 note=28 velocity=52 time=0
EXTRACT: note_on channel=9 note=42 velocity=127 time=0
EXTRACT: note_on channel=9 note=37 velocity=127 time=0
EXTRACT: note_on channel=9 note=62 velocity=127 time=0
EXTRACT: note_on channel=8 note=63 velocity=127 time=0
EXTRACT: note_on channel=9 note=35 velocity=127 time=0.125
EXTRACT: note_on channel=9 note=36 velocity=127 time=0
EXTRACT: note_on channel=9 note=38 velocity=65 time=0
EXTRACT: note_off channel=9 note=28 velocity=52 time=0.06458333333333333
EXTRACT: note_off channel=9 note=42 velocity=127 time=0.03958333333333333
EXTRACT: note_off channel=9 note=37 velocity=127 time=0
EXTRACT: note_off channel=5 note=63 velocity=127 time=0.01875
EXTRACT: note_off channel=8 note=63 velocity=127 time=0
EXTRACT: note_on channel=5 note=61 velocity=127 time=0.0020833333333333333
EXTRACT: note_on channel=9 note=28 velocity=54 time=0
EXTRACT: note_on channel=9 note=42 velocity=127 time=0
EXTRACT: note_on channel=9 note=37 velocity=127 time=0
EXTRACT: note_on channel=9 note=62 velocity=127 time=0
EXTRACT: note_on channel=9 note=75 velocity=60 time=0
EXTRACT: note_on channel=8 note=61 velocity=127 time=0
EXTRACT: note_off channel=9 note=62 velocity=127 time=0.0010416666666666667
EXTRACT: note_off channel=9 note=38 velocity=65 time=0.09791666666666667
EXTRACT: note_off channel=9 note=35 velocity=127 time=0.005208333333333333
EXTRACT: note_off channel=9 note=36 velocity=127 time=0
EXTRACT: note_off channel=9 note=75 velocity=60 time=0.014583333333333334
EXTRACT: note_on channel=9 note=75 velocity=58 time=0.00625
EXTRACT: note_off channel=9 note=28 velocity=54 time=0.06458333333333333
EXTRACT: note_off channel=9 note=42 velocity=127 time=0.03958333333333333
EXTRACT: note_off channel=9 note=37 velocity=127 time=0
EXTRACT: note_off channel=9 note=75 velocity=58 time=0.014583333333333334
EXTRACT: note_off channel=5 note=61 velocity=127 time=0.004166666666666667
EXTRACT: note_off channel=8 note=61 velocity=127 time=0
EXTRACT: note_on channel=5 note=61 velocity=127 time=0.0020833333333333333
EXTRACT: note_on channel=9 note=28 velocity=54 time=0
EXTRACT: note_on channel=9 note=35 velocity=127 time=0
EXTRACT: note_on channel=9 note=36 velocity=127 time=0
EXTRACT: note_on channel=9 note=38 velocity=65 time=0
EXTRACT: note_on channel=9 note=75 velocity=61 time=0
EXTRACT: note_on channel=7 note=22 velocity=127 time=0
EXTRACT: note_on channel=8 note=61 velocity=127 time=0
EXTRACT: note_off channel=9 note=62 velocity=127 time=0.0010416666666666667
EXTRACT: note_off channel=9 note=75 velocity=61 time=0.11770833333333333
EXTRACT: note_off channel=9 note=28 velocity=54 time=0.07083333333333333
EXTRACT: note_off channel=9 note=38 velocity=65 time=0.034375
EXTRACT: note_off channel=9 note=35 velocity=127 time=0.005208333333333333
EXTRACT: note_off channel=9 note=36 velocity=127 time=0
EXTRACT: note_off channel=5 note=61 velocity=127 time=0.01875
EXTRACT: note_off channel=8 note=61 velocity=127 time=0
EXTRACT: note_on channel=5 note=58 velocity=127 time=0.0020833333333333333
EXTRACT: note_on channel=9 note=28 velocity=56 time=0
EXTRACT: note_on channel=9 note=75 velocity=61 time=0
EXTRACT: note_on channel=8 note=58 velocity=127 time=0
EXTRACT: note_off channel=9 note=75 velocity=61 time=0.11875
EXTRACT: note_on channel=9 note=75 velocity=61 time=0.00625
EXTRACT: note_off channel=9 note=28 velocity=56 time=0.06458333333333333
EXTRACT: note_off channel=9 note=75 velocity=61 time=0.05416666666666667
EXTRACT: note_off channel=5 note=58 velocity=127 time=0.004166666666666667
EXTRACT: note_off channel=8 note=58 velocity=127 time=0
EXTRACT: note_on channel=5 note=61 velocity=127 time=0.0020833333333333333
EXTRACT: note_on channel=9 note=28 velocity=52 time=0
EXTRACT: note_on channel=9 note=42 velocity=127 time=0
EXTRACT: note_on channel=9 note=37 velocity=127 time=0
EXTRACT: note_on channel=9 note=62 velocity=127 time=0
EXTRACT: note_on channel=9 note=75 velocity=61 time=0
EXTRACT: note_on channel=8 note=61 velocity=127 time=0
EXTRACT: note_off channel=7 note=22 velocity=127 time=0.015625
EXTRACT: note_off channel=9 note=75 velocity=61 time=0.103125
EXTRACT: note_off channel=9 note=28 velocity=52 time=0.07083333333333333
EXTRACT: note_off channel=9 note=42 velocity=127 time=0.03958333333333333
EXTRACT: note_off channel=9 note=37 velocity=127 time=0
EXTRACT: note_off channel=5 note=61 velocity=127 time=0.01875
EXTRACT: note_off channel=8 note=61 velocity=127 time=0
EXTRACT: note_on channel=5 note=58 velocity=127 time=0.0020833333333333333
EXTRACT: note_on channel=9 note=28 velocity=52 time=0
EXTRACT: note_on channel=9 note=35 velocity=127 time=0
EXTRACT: note_on channel=9 note=36 velocity=127 time=0
EXTRACT: note_on channel=9 note=38 velocity=67 time=0
EXTRACT: note_on channel=9 note=75 velocity=61 time=0
EXTRACT: note_on channel=8 note=58 velocity=127 time=0
EXTRACT: note_off channel=9 note=62 velocity=127 time=0.0010416666666666667
EXTRACT: note_off channel=9 note=75 velocity=61 time=0.11770833333333333
EXTRACT: note_off channel=9 note=28 velocity=52 time=0.07083333333333333
EXTRACT: note_off channel=9 note=38 velocity=67 time=0.034375
EXTRACT: note_off channel=9 note=35 velocity=127 time=0.005208333333333333
EXTRACT: note_off channel=9 note=36 velocity=127 time=0
EXTRACT: note_off channel=5 note=58 velocity=127 time=0.01875
EXTRACT: note_off channel=8 note=58 velocity=127 time=0
EXTRACT: note_on channel=5 note=65 velocity=127 time=0.0020833333333333333
EXTRACT: note_on channel=9 note=28 velocity=52 time=0
EXTRACT: note_on channel=8 note=65 velocity=127 time=0
EXTRACT: note_off channel=9 note=28 velocity=52 time=0.18958333333333333
EXTRACT: note_off channel=5 note=65 velocity=127 time=0.058333333333333334
EXTRACT: note_off channel=8 note=65 velocity=127 time=0
EXTRACT: note_on channel=5 note=63 velocity=127 time=0.0020833333333333333
EXTRACT: note_on channel=9 note=43 velocity=43 time=0
EXTRACT: note_on channel=9 note=28 velocity=52 time=0
EXTRACT: note_on channel=9 note=35 velocity=127 time=0
EXTRACT: note_on channel=9 note=36 velocity=127 time=0
EXTRACT: note_on channel=9 note=38 velocity=67 time=0
EXTRACT: note_on channel=9 note=75 velocity=56 time=0
EXTRACT: note_on channel=8 note=63 velocity=127 time=0
EXTRACT: note_off channel=9 note=43 velocity=43 time=0.096875
EXTRACT: note_off channel=9 note=75 velocity=56 time=0.021875
EXTRACT: note_on channel=9 note=41 velocity=43 time=0.00625
EXTRACT: note_off channel=9 note=28 velocity=52 time=0.06458333333333333
EXTRACT: note_off channel=9 note=41 velocity=43 time=0.03229166666666666
EXTRACT: note_off channel=9 note=38 velocity=67 time=0.0020833333333333333
EXTRACT: note_off channel=9 note=35 velocity=127 time=0.005208333333333333
EXTRACT: note_off channel=9 note=36 velocity=127 time=0
EXTRACT: note_off channel=5 note=63 velocity=127 time=0.01875
EXTRACT: note_off channel=8 note=63 velocity=127 time=0
EXTRACT: note_on channel=5 note=63 velocity=127 time=0.0020833333333333333
EXTRACT: note_on channel=9 note=28 velocity=52 time=0
EXTRACT: note_on channel=9 note=42 velocity=127 time=0
EXTRACT: note_on channel=9 note=37 velocity=127 time=0
EXTRACT: note_on channel=9 note=62 velocity=127 time=0
EXTRACT: note_on channel=8 note=63 velocity=127 time=0
EXTRACT: note_on channel=9 note=35 velocity=127 time=0.125
EXTRACT: note_on channel=9 note=36 velocity=127 time=0
EXTRACT: note_on channel=9 note=38 velocity=65 time=0
EXTRACT: note_off channel=9 note=28 velocity=52 time=0.06458333333333333
EXTRACT: note_off channel=9 note=42 velocity=127 time=0.03958333333333333
EXTRACT: note_off channel=9 note=37 velocity=127 time=0
EXTRACT: note_off channel=5 note=63 velocity=127 time=0.01875
EXTRACT: note_off channel=8 note=63 velocity=127 time=0
EXTRACT: note_on channel=5 note=61 velocity=127 time=0.0020833333333333333
EXTRACT: note_on channel=9 note=28 velocity=54 time=0
EXTRACT: note_on channel=9 note=42 velocity=127 time=0
EXTRACT: note_on channel=9 note=37 velocity=127 time=0
EXTRACT: note_on channel=9 note=62 velocity=127 time=0
EXTRACT: note_on channel=9 note=75 velocity=60 time=0
EXTRACT: note_on channel=8 note=61 velocity=127 time=0
EXTRACT: note_off channel=9 note=62 velocity=127 time=0.0010416666666666667
EXTRACT: note_off channel=9 note=38 velocity=65 time=0.09791666666666667
EXTRACT: note_off channel=9 note=35 velocity=127 time=0.005208333333333333
EXTRACT: note_off channel=9 note=36 velocity=127 time=0
EXTRACT: note_off channel=9 note=75 velocity=60 time=0.014583333333333334
EXTRACT: note_on channel=9 note=75 velocity=58 time=0.00625
EXTRACT: note_off channel=9 note=28 velocity=54 time=0.06458333333333333
EXTRACT: note_off channel=9 note=42 velocity=127 time=0.03958333333333333
EXTRACT: note_off channel=9 note=37 velocity=127 time=0
EXTRACT: note_off channel=9 note=75 velocity=58 time=0.014583333333333334
EXTRACT: note_off channel=5 note=61 velocity=127 time=0.004166666666666667
EXTRACT: note_off channel=8 note=61 velocity=127 time=0
EXTRACT: note_on channel=5 note=61 velocity=127 time=0.0020833333333333333
EXTRACT: note_on channel=9 note=36 velocity=127 time=0
EXTRACT: note_on channel=9 note=35 velocity=127 time=0
EXTRACT: note_on channel=9 note=28 velocity=54 time=0
EXTRACT: note_on channel=9 note=38 velocity=65 time=0
EXTRACT: note_on channel=9 note=75 velocity=61 time=0
EXTRACT: note_on channel=8 note=61 velocity=127 time=0
EXTRACT: note_off channel=9 note=62 velocity=127 time=0.0010416666666666667
EXTRACT: note_off channel=9 note=75 velocity=61 time=0.11770833333333333
EXTRACT: note_off channel=9 note=28 velocity=54 time=0.07083333333333333
EXTRACT: note_off channel=9 note=38 velocity=65 time=0.034375
EXTRACT: note_off channel=9 note=36 velocity=127 time=0.005208333333333333
EXTRACT: note_off channel=9 note=35 velocity=127 time=0
EXTRACT: note_off channel=5 note=61 velocity=127 time=0.01875
EXTRACT: note_off channel=8 note=61 velocity=127 time=0
EXTRACT: note_on channel=5 note=58 velocity=127 time=0.0020833333333333333
EXTRACT: note_on channel=9 note=28 velocity=56 time=0
EXTRACT: note_on channel=9 note=75 velocity=61 time=0
EXTRACT: note_on channel=8 note=58 velocity=127 time=0
EXTRACT: note_off channel=9 note=75 velocity=61 time=0.11875
EXTRACT: note_on channel=9 note=75 velocity=61 time=0.00625
EXTRACT: note_off channel=9 note=28 velocity=56 time=0.06458333333333333
EXTRACT: note_off channel=9 note=75 velocity=61 time=0.05416666666666667
EXTRACT: note_off channel=5 note=58 velocity=127 time=0.004166666666666667
EXTRACT: note_off channel=8 note=58 velocity=127 time=0
EXTRACT: note_on channel=5 note=61 velocity=127 time=0.0020833333333333333
EXTRACT: note_on channel=9 note=37 velocity=127 time=0
EXTRACT: note_on channel=9 note=42 velocity=127 time=0
EXTRACT: note_on channel=9 note=28 velocity=52 time=0
EXTRACT: note_on channel=9 note=75 velocity=61 time=0
EXTRACT: note_on channel=9 note=62 velocity=127 time=0
EXTRACT: note_on channel=8 note=61 velocity=127 time=0
EXTRACT: note_off channel=9 note=75 velocity=61 time=0.11875
EXTRACT: note_off channel=9 note=28 velocity=52 time=0.07083333333333333
EXTRACT: note_off channel=9 note=37 velocity=127 time=0.03958333333333333
EXTRACT: note_off channel=9 note=42 velocity=127 time=0
EXTRACT: note_off channel=5 note=61 velocity=127 time=0.01875
EXTRACT: note_off channel=8 note=61 velocity=127 time=0
EXTRACT: note_on channel=5 note=58 velocity=127 time=0.0020833333333333333
EXTRACT: note_on channel=9 note=36 velocity=127 time=0
EXTRACT: note_on channel=9 note=35 velocity=127 time=0
EXTRACT: note_on channel=9 note=28 velocity=52 time=0
EXTRACT: note_on channel=9 note=38 velocity=67 time=0
EXTRACT: note_on channel=9 note=75 velocity=61 time=0
EXTRACT: note_on channel=8 note=58 velocity=127 time=0
EXTRACT: note_off channel=9 note=62 velocity=127 time=0.0010416666666666667
EXTRACT: note_off channel=9 note=75 velocity=61 time=0.11770833333333333
EXTRACT: note_off channel=9 note=28 velocity=52 time=0.07083333333333333
EXTRACT: note_off channel=9 note=38 velocity=67 time=0.034375
EXTRACT: note_off channel=9 note=36 velocity=127 time=0.005208333333333333
EXTRACT: note_off channel=9 note=35 velocity=127 time=0
EXTRACT: note_off channel=5 note=58 velocity=127 time=0.01875
EXTRACT: note_off channel=8 note=58 velocity=127 time=0
EXTRACT: note_on channel=5 note=65 velocity=127 time=0.0020833333333333333
EXTRACT: note_on channel=9 note=28 velocity=52 time=0
EXTRACT: note_on channel=8 note=65 velocity=127 time=0
EXTRACT: note_off channel=9 note=28 velocity=52 time=0.18958333333333333
EXTRACT: note_off channel=5 note=65 velocity=127 time=0.058333333333333334
EXTRACT: note_off channel=8 note=65 velocity=127 time=0
EXTRACT: note_on channel=5 note=63 velocity=127 time=0.0020833333333333333
EXTRACT: note_on channel=9 note=36 velocity=127 time=0
EXTRACT: note_on channel=9 note=35 velocity=127 time=0
EXTRACT: note_on channel=9 note=28 velocity=52 time=0
EXTRACT: note_on channel=9 note=43 velocity=43 time=0
EXTRACT: note_on channel=9 note=38 velocity=67 time=0
EXTRACT: note_on channel=9 note=75 velocity=56 time=0
EXTRACT: note_on channel=8 note=63 velocity=127 time=0
EXTRACT: note_off channel=9 note=43 velocity=43 time=0.096875
EXTRACT: note_off channel=9 note=75 velocity=56 time=0.021875
EXTRACT: note_on channel=9 note=41 velocity=43 time=0.00625
EXTRACT: note_off channel=9 note=28 velocity=52 time=0.06458333333333333
EXTRACT: note_off channel=9 note=41 velocity=43 time=0.03229166666666666
EXTRACT: note_off channel=9 note=38 velocity=67 time=0.0020833333333333333
EXTRACT: note_off channel=9 note=36 velocity=127 time=0.005208333333333333
EXTRACT: note_off channel=9 note=35 velocity=127 time=0
EXTRACT: note_off channel=5 note=63 velocity=127 time=0.01875
EXTRACT: note_off channel=8 note=63 velocity=127 time=0
EXTRACT: note_on channel=5 note=63 velocity=127 time=0.0020833333333333333
EXTRACT: note_on channel=9 note=37 velocity=127 time=0
EXTRACT: note_on channel=9 note=42 velocity=127 time=0
EXTRACT: note_on channel=9 note=28 velocity=52 time=0
EXTRACT: note_on channel=9 note=62 velocity=127 time=0
EXTRACT: note_on channel=8 note=63 velocity=127 time=0
EXTRACT: note_on channel=9 note=36 velocity=127 time=0.125
EXTRACT: note_on channel=9 note=35 velocity=127 time=0
EXTRACT: note_on channel=9 note=38 velocity=65 time=0
EXTRACT: note_off channel=9 note=28 velocity=52 time=0.06458333333333333
EXTRACT: note_off channel=9 note=37 velocity=127 time=0.03958333333333333
EXTRACT: note_off channel=9 note=42 velocity=127 time=0
EXTRACT: note_off channel=5 note=63 velocity=127 time=0.01875
EXTRACT: note_off channel=8 note=63 velocity=127 time=0
EXTRACT: note_on channel=5 note=61 velocity=127 time=0.0020833333333333333
EXTRACT: note_on channel=9 note=37 velocity=127 time=0
EXTRACT: note_on channel=9 note=42 velocity=127 time=0
EXTRACT: note_on channel=9 note=28 velocity=54 time=0
EXTRACT: note_on channel=9 note=75 velocity=60 time=0
EXTRACT: note_on channel=9 note=62 velocity=127 time=0
EXTRACT: note_on channel=8 note=61 velocity=127 time=0
EXTRACT: note_off channel=9 note=62 velocity=127 time=0.0010416666666666667
EXTRACT: note_off channel=9 note=38 velocity=65 time=0.09791666666666667
EXTRACT: note_off channel=9 note=36 velocity=127 time=0.005208333333333333
EXTRACT: note_off channel=9 note=35 velocity=127 time=0
EXTRACT: note_off channel=9 note=75 velocity=60 time=0.014583333333333334
EXTRACT: note_on channel=9 note=75 velocity=58 time=0.00625
EXTRACT: note_off channel=9 note=28 velocity=54 time=0.06458333333333333
EXTRACT: note_off channel=9 note=37 velocity=127 time=0.03958333333333333
EXTRACT: note_off channel=9 note=42 velocity=127 time=0
EXTRACT: note_off channel=9 note=75 velocity=58 time=0.014583333333333334
EXTRACT: note_off channel=5 note=61 velocity=127 time=0.004166666666666667
EXTRACT: note_off channel=8 note=61 velocity=127 time=0
EXTRACT: note_on channel=5 note=61 velocity=127 time=0.0020833333333333333
EXTRACT: note_on channel=9 note=36 velocity=127 time=0
EXTRACT: note_on channel=9 note=35 velocity=127 time=0
EXTRACT: note_on channel=9 note=28 velocity=54 time=0
EXTRACT: note_on channel=9 note=38 velocity=65 time=0
EXTRACT: note_on channel=9 note=75 velocity=61 time=0
EXTRACT: note_on channel=8 note=61 velocity=127 time=0
EXTRACT: note_off channel=9 note=62 velocity=127 time=0.0010416666666666667
EXTRACT: note_off channel=9 note=75 velocity=61 time=0.11770833333333333
EXTRACT: note_off channel=9 note=28 velocity=54 time=0.07083333333333333
EXTRACT: note_off channel=9 note=38 velocity=65 time=0.034375
EXTRACT: note_off channel=9 note=36 velocity=127 time=0.005208333333333333
EXTRACT: note_off channel=9 note=35 velocity=127 time=0
EXTRACT: note_off channel=5 note=61 velocity=127 time=0.01875
EXTRACT: note_off channel=8 note=61 velocity=127 time=0
EXTRACT: note_on channel=5 note=58 velocity=127 time=0.0020833333333333333
EXTRACT: note_on channel=9 note=28 velocity=56 time=0
EXTRACT: note_on channel=9 note=75 velocity=61 time=0
EXTRACT: note_on channel=8 note=58 velocity=127 time=0
EXTRACT: note_off channel=9 note=75 velocity=61 time=0.11875
EXTRACT: note_on channel=9 note=75 velocity=61 time=0.00625
EXTRACT: note_off channel=9 note=28 velocity=56 time=0.06458333333333333
EXTRACT: note_off channel=9 note=75 velocity=61 time=0.05416666666666667
EXTRACT: note_off channel=5 note=58 velocity=127 time=0.004166666666666667
EXTRACT: note_off channel=8 note=58 velocity=127 time=0
EXTRACT: note_on channel=5 note=61 velocity=127 time=0.0020833333333333333
EXTRACT: note_on channel=9 note=37 velocity=127 time=0
EXTRACT: note_on channel=9 note=42 velocity=127 time=0
EXTRACT: note_on channel=9 note=28 velocity=52 time=0
EXTRACT: note_on channel=9 note=75 velocity=61 time=0
EXTRACT: note_on channel=9 note=62 velocity=127 time=0
EXTRACT: note_on channel=8 note=61 velocity=127 time=0
EXTRACT: note_off channel=9 note=75 velocity=61 time=0.11875
EXTRACT: note_off channel=9 note=28 velocity=52 time=0.07083333333333333
EXTRACT: note_off channel=9 note=37 velocity=127 time=0.03958333333333333
EXTRACT: note_off channel=9 note=42 velocity=127 time=0
EXTRACT: note_off channel=5 note=61 velocity=127 time=0.01875
EXTRACT: note_off channel=8 note=61 velocity=127 time=0
EXTRACT: note_on channel=5 note=58 velocity=127 time=0.0020833333333333333
EXTRACT: note_on channel=9 note=36 velocity=127 time=0
EXTRACT: note_on channel=9 note=35 velocity=127 time=0
EXTRACT: note_on channel=9 note=28 velocity=52 time=0
EXTRACT: note_on channel=9 note=38 velocity=67 time=0
EXTRACT: note_on channel=9 note=75 velocity=61 time=0
EXTRACT: note_on channel=8 note=58 velocity=127 time=0
EXTRACT: note_off channel=9 note=62 velocity=127 time=0.0010416666666666667
EXTRACT: note_off channel=9 note=75 velocity=61 time=0.11770833333333333
EXTRACT: note_off channel=9 note=28 velocity=52 time=0.07083333333333333
EXTRACT: note_off channel=9 note=38 velocity=67 time=0.034375
EXTRACT: note_off channel=9 note=36 velocity=127 time=0.005208333333333333
EXTRACT: note_off channel=9 note=35 velocity=127 time=0
EXTRACT: note_off channel=5 note=58 velocity=127 time=0.01875
EXTRACT: note_off channel=8 note=58 velocity=127 time=0
EXTRACT: note_on channel=5 note=65 velocity=127 time=0.0020833333333333333
EXTRACT: note_on channel=9 note=28 velocity=52 time=0
EXTRACT: note_on channel=8 note=65 velocity=127 time=0
EXTRACT: note_off channel=9 note=28 velocity=52 time=0.18958333333333333
EXTRACT: note_off channel=5 note=65 velocity=127 time=0.058333333333333334
EXTRACT: note_off channel=8 note=65 velocity=127 time=0
EXTRACT: note_on channel=5 note=63 velocity=127 time=0.0020833333333333333
EXTRACT: note_on channel=9 note=36 velocity=127 time=0
EXTRACT: note_on channel=9 note=35 velocity=127 time=0
EXTRACT: note_on channel=9 note=28 velocity=52 time=0
EXTRACT: note_on channel=9 note=43 velocity=43 time=0
EXTRACT: note_on channel=9 note=38 velocity=67 time=0
EXTRACT: note_on channel=9 note=75 velocity=56 time=0
EXTRACT: note_on channel=8 note=63 velocity=127 time=0
EXTRACT: note_off channel=9 note=43 velocity=43 time=0.096875
EXTRACT: note_off channel=9 note=75 velocity=56 time=0.021875
EXTRACT: note_on channel=9 note=41 velocity=43 time=0.00625
EXTRACT: note_off channel=9 note=28 velocity=52 time=0.06458333333333333
EXTRACT: note_off channel=9 note=41 velocity=43 time=0.03229166666666666
EXTRACT: note_off channel=9 note=38 velocity=67 time=0.0020833333333333333
EXTRACT: note_off channel=9 note=36 velocity=127 time=0.005208333333333333
EXTRACT: note_off channel=9 note=35 velocity=127 time=0
EXTRACT: note_off channel=5 note=63 velocity=127 time=0.01875
EXTRACT: note_off channel=8 note=63 velocity=127 time=0
EXTRACT: note_on channel=5 note=63 velocity=127 time=0.0020833333333333333
EXTRACT: note_on channel=9 note=37 velocity=127 time=0
EXTRACT: note_on channel=9 note=42 velocity=127 time=0
EXTRACT: note_on channel=9 note=28 velocity=52 time=0
EXTRACT: note_on channel=9 note=62 velocity=127 time=0
EXTRACT: note_on channel=8 note=63 velocity=127 time=0
EXTRACT: note_on channel=9 note=36 velocity=127 time=0.125
EXTRACT: note_on channel=9 note=35 velocity=127 time=0
EXTRACT: note_on channel=9 note=38 velocity=65 time=0
EXTRACT: note_off channel=9 note=28 velocity=52 time=0.06458333333333333
EXTRACT: note_off channel=9 note=37 velocity=127 time=0.03958333333333333
EXTRACT: note_off channel=9 note=42 velocity=127 time=0
EXTRACT: note_off channel=5 note=63 velocity=127 time=0.01875
EXTRACT: note_off channel=8 note=63 velocity=127 time=0
EXTRACT: note_on channel=5 note=61 velocity=127 time=0.0020833333333333333
EXTRACT: note_on channel=9 note=37 velocity=127 time=0
EXTRACT: note_on channel=9 note=42 velocity=127 time=0
EXTRACT: note_on channel=9 note=28 velocity=54 time=0
EXTRACT: note_on channel=9 note=75 velocity=60 time=0
EXTRACT: note_on channel=9 note=62 velocity=127 time=0
EXTRACT: note_on channel=8 note=61 velocity=127 time=0
EXTRACT: note_off channel=9 note=62 velocity=127 time=0.0010416666666666667
EXTRACT: note_off channel=9 note=38 velocity=65 time=0.09791666666666667
EXTRACT: note_off channel=9 note=36 velocity=127 time=0.005208333333333333
EXTRACT: note_off channel=9 note=35 velocity=127 time=0
EXTRACT: note_off channel=9 note=75 velocity=60 time=0.014583333333333334
EXTRACT: note_on channel=9 note=75 velocity=58 time=0.00625
EXTRACT: note_off channel=9 note=28 velocity=54 time=0.06458333333333333
EXTRACT: note_off channel=9 note=37 velocity=127 time=0.03958333333333333
EXTRACT: note_off channel=9 note=42 velocity=127 time=0
EXTRACT: note_off channel=9 note=75 velocity=58 time=0.014583333333333334
EXTRACT: note_off channel=5 note=61 velocity=127 time=0.004166666666666667
EXTRACT: note_off channel=8 note=61 velocity=127 time=0
EXTRACT: note_on channel=5 note=61 velocity=127 time=0.0020833333333333333
EXTRACT: note_on channel=9 note=36 velocity=127 time=0
EXTRACT: note_on channel=9 note=35 velocity=127 time=0
EXTRACT: note_on channel=9 note=28 velocity=54 time=0
EXTRACT: note_on channel=9 note=38 velocity=65 time=0
EXTRACT: note_on channel=9 note=75 velocity=61 time=0
EXTRACT: note_on channel=8 note=61 velocity=127 time=0
EXTRACT: note_off channel=9 note=62 velocity=127 time=0.0010416666666666667
EXTRACT: note_off channel=9 note=75 velocity=61 time=0.11770833333333333
EXTRACT: note_off channel=9 note=28 velocity=54 time=0.07083333333333333
EXTRACT: note_off channel=9 note=38 velocity=65 time=0.034375
EXTRACT: note_off channel=9 note=36 velocity=127 time=0.005208333333333333
EXTRACT: note_off channel=9 note=35 velocity=127 time=0
EXTRACT: note_off channel=5 note=61 velocity=127 time=0.01875
EXTRACT: note_off channel=8 note=61 velocity=127 time=0
EXTRACT: note_on channel=5 note=58 velocity=127 time=0.0020833333333333333
EXTRACT: note_on channel=9 note=28 velocity=56 time=0
EXTRACT: note_on channel=9 note=75 velocity=61 time=0
EXTRACT: note_on channel=8 note=58 velocity=127 time=0
EXTRACT: note_off channel=9 note=75 velocity=61 time=0.11875
EXTRACT: note_on channel=9 note=75 velocity=61 time=0.00625
EXTRACT: note_off channel=9 note=28 velocity=56 time=0.06458333333333333
EXTRACT: note_off channel=9 note=75 velocity=61 time=0.05416666666666667
EXTRACT: note_off channel=5 note=58 velocity=127 time=0.004166666666666667
EXTRACT: note_off channel=8 note=58 velocity=127 time=0
EXTRACT: note_on channel=5 note=61 velocity=127 time=0.0020833333333333333
EXTRACT: note_on channel=9 note=37 velocity=127 time=0
EXTRACT: note_on channel=9 note=42 velocity=127 time=0
EXTRACT: note_on channel=9 note=28 velocity=52 time=0
EXTRACT: note_on channel=9 note=75 velocity=61 time=0
EXTRACT: note_on channel=9 note=62 velocity=127 time=0
EXTRACT: note_on channel=8 note=61 velocity=127 time=0
EXTRACT: note_off channel=9 note=75 velocity=61 time=0.11875
EXTRACT: note_off channel=9 note=28 velocity=52 time=0.07083333333333333
EXTRACT: note_off channel=9 note=37 velocity=127 time=0.03958333333333333
EXTRACT: note_off channel=9 note=42 velocity=127 time=0
EXTRACT: note_off channel=5 note=61 velocity=127 time=0.01875
EXTRACT: note_off channel=8 note=61 velocity=127 time=0
EXTRACT: note_on channel=5 note=58 velocity=127 time=0.0020833333333333333
EXTRACT: note_on channel=9 note=36 velocity=127 time=0
EXTRACT: note_on channel=9 note=35 velocity=127 time=0
EXTRACT: note_on channel=9 note=28 velocity=52 time=0
EXTRACT: note_on channel=9 note=38 velocity=67 time=0
EXTRACT: note_on channel=9 note=75 velocity=61 time=0
EXTRACT: note_on channel=8 note=58 velocity=127 time=0
EXTRACT: note_off channel=9 note=62 velocity=127 time=0.0010416666666666667
EXTRACT: note_off channel=9 note=75 velocity=61 time=0.11770833333333333
EXTRACT: note_off channel=9 note=28 velocity=52 time=0.07083333333333333
EXTRACT: note_off channel=9 note=38 velocity=67 time=0.034375
EXTRACT: note_off channel=9 note=36 velocity=127 time=0.005208333333333333
EXTRACT: note_off channel=9 note=35 velocity=127 time=0
EXTRACT: note_off channel=5 note=58 velocity=127 time=0.01875
EXTRACT: note_off channel=8 note=58 velocity=127 time=0
EXTRACT: note_on channel=5 note=65 velocity=127 time=0.0020833333333333333
EXTRACT: note_on channel=9 note=28 velocity=52 time=0
EXTRACT: note_on channel=8 note=65 velocity=127 time=0
EXTRACT: note_off channel=9 note=28 velocity=52 time=0.18958333333333333
EXTRACT: note_off channel=5 note=65 velocity=127 time=0.058333333333333334
EXTRACT: note_off channel=8 note=65 velocity=127 time=0
EXTRACT: note_on channel=5 note=63 velocity=127 time=0.0020833333333333333
EXTRACT: note_on channel=9 note=36 velocity=127 time=0
EXTRACT: note_on channel=9 note=35 velocity=127 time=0
EXTRACT: note_on channel=9 note=28 velocity=52 time=0
EXTRACT: note_on channel=9 note=43 velocity=43 time=0
EXTRACT: note_on channel=9 note=38 velocity=67 time=0
EXTRACT: note_on channel=9 note=75 velocity=56 time=0
EXTRACT: note_on channel=8 note=63 velocity=127 time=0
EXTRACT: note_off channel=9 note=43 velocity=43 time=0.096875
EXTRACT: note_off channel=9 note=75 velocity=56 time=0.021875
EXTRACT: note_on channel=9 note=41 velocity=43 time=0.00625
EXTRACT: note_off channel=9 note=28 velocity=52 time=0.06458333333333333
EXTRACT: note_off channel=9 note=41 velocity=43 time=0.03229166666666666
EXTRACT: note_off channel=9 note=38 velocity=67 time=0.0020833333333333333
EXTRACT: note_off channel=9 note=36 velocity=127 time=0.005208333333333333
EXTRACT: note_off channel=9 note=35 velocity=127 time=0
EXTRACT: note_off channel=5 note=63 velocity=127 time=0.01875
EXTRACT: note_off channel=8 note=63 velocity=127 time=0
EXTRACT: note_on channel=5 note=63 velocity=127 time=0.0020833333333333333
EXTRACT: note_on channel=9 note=37 velocity=127 time=0
EXTRACT: note_on channel=9 note=42 velocity=127 time=0
EXTRACT: note_on channel=9 note=28 velocity=52 time=0
EXTRACT: note_on channel=9 note=62 velocity=127 time=0
EXTRACT: note_on channel=8 note=63 velocity=127 time=0
EXTRACT: note_on channel=9 note=36 velocity=127 time=0.125
EXTRACT: note_on channel=9 note=35 velocity=127 time=0
EXTRACT: note_on channel=9 note=38 velocity=65 time=0
EXTRACT: note_off channel=9 note=28 velocity=52 time=0.06458333333333333
EXTRACT: note_off channel=9 note=37 velocity=127 time=0.03958333333333333
EXTRACT: note_off channel=9 note=42 velocity=127 time=0
EXTRACT: note_off channel=5 note=63 velocity=127 time=0.01875
EXTRACT: note_off channel=8 note=63 velocity=127 time=0
EXTRACT: note_on channel=5 note=61 velocity=127 time=0.0020833333333333333
EXTRACT: note_on channel=9 note=37 velocity=127 time=0
EXTRACT: note_on channel=9 note=42 velocity=127 time=0
EXTRACT: note_on channel=9 note=28 velocity=54 time=0
EXTRACT: note_on channel=9 note=75 velocity=60 time=0
EXTRACT: note_on channel=9 note=62 velocity=127 time=0
EXTRACT: note_on channel=8 note=61 velocity=127 time=0
EXTRACT: note_off channel=9 note=62 velocity=127 time=0.0010416666666666667
EXTRACT: note_off channel=9 note=38 velocity=65 time=0.09791666666666667
EXTRACT: note_off channel=9 note=36 velocity=127 time=0.005208333333333333
EXTRACT: note_off channel=9 note=35 velocity=127 time=0
EXTRACT: note_off channel=9 note=75 velocity=60 time=0.014583333333333334
EXTRACT: note_on channel=9 note=75 velocity=58 time=0.00625
EXTRACT: note_off channel=9 note=28 velocity=54 time=0.06458333333333333
EXTRACT: note_off channel=9 note=37 velocity=127 time=0.03958333333333333
EXTRACT: note_off channel=9 note=42 velocity=127 time=0
EXTRACT: note_off channel=9 note=75 velocity=58 time=0.014583333333333334
EXTRACT: note_off channel=5 note=61 velocity=127 time=0.004166666666666667
EXTRACT: note_off channel=8 note=61 velocity=127 time=0
EXTRACT: note_on channel=5 note=61 velocity=127 time=0.0020833333333333333
EXTRACT: note_on channel=9 note=28 velocity=54 time=0
EXTRACT: note_on channel=9 note=35 velocity=127 time=0
EXTRACT: note_on channel=9 note=36 velocity=127 time=0
EXTRACT: note_on channel=9 note=38 velocity=65 time=0
EXTRACT: note_on channel=9 note=75 velocity=61 time=0
EXTRACT: note_on channel=7 note=22 velocity=127 time=0
EXTRACT: note_on channel=8 note=61 velocity=127 time=0
EXTRACT: note_off channel=9 note=62 velocity=127 time=0.0010416666666666667
EXTRACT: note_off channel=9 note=75 velocity=61 time=0.11770833333333333
EXTRACT: note_off channel=9 note=28 velocity=54 time=0.07083333333333333
EXTRACT: note_off channel=9 note=38 velocity=65 time=0.034375
EXTRACT: note_off channel=9 note=35 velocity=127 time=0.005208333333333333
EXTRACT: note_off channel=9 note=36 velocity=127 time=0
EXTRACT: note_off channel=5 note=61 velocity=127 time=0.01875
EXTRACT: note_off channel=8 note=61 velocity=127 time=0
EXTRACT: note_on channel=5 note=58 velocity=127 time=0.0020833333333333333
EXTRACT: note_on channel=9 note=28 velocity=56 time=0
EXTRACT: note_on channel=9 note=75 velocity=61 time=0
EXTRACT: note_on channel=8 note=58 velocity=127 time=0
EXTRACT: note_off channel=9 note=75 velocity=61 time=0.11875
EXTRACT: note_on channel=9 note=75 velocity=61 time=0.00625
EXTRACT: note_off channel=9 note=28 velocity=56 time=0.06458333333333333
EXTRACT: note_off channel=9 note=75 velocity=61 time=0.05416666666666667
EXTRACT: note_off channel=5 note=58 velocity=127 time=0.004166666666666667
EXTRACT: note_off channel=8 note=58 velocity=127 time=0
EXTRACT: note_on channel=5 note=61 velocity=127 time=0.0020833333333333333
EXTRACT: note_on channel=9 note=28 velocity=52 time=0
EXTRACT: note_on channel=9 note=42 velocity=127 time=0
EXTRACT: note_on channel=9 note=37 velocity=127 time=0
EXTRACT: note_on channel=9 note=62 velocity=127 time=0
EXTRACT: note_on channel=9 note=75 velocity=61 time=0
EXTRACT: note_on channel=8 note=61 velocity=127 time=0
EXTRACT: note_off channel=7 note=22 velocity=127 time=0.015625
EXTRACT: note_off channel=9 note=75 velocity=61 time=0.103125
EXTRACT: note_off channel=9 note=28 velocity=52 time=0.07083333333333333
EXTRACT: note_off channel=9 note=42 velocity=127 time=0.03958333333333333
EXTRACT: note_off channel=9 note=37 velocity=127 time=0
EXTRACT: note_off channel=5 note=61 velocity=127 time=0.01875
EXTRACT: note_off channel=8 note=61 velocity=127 time=0
EXTRACT: note_on channel=5 note=58 velocity=127 time=0.0020833333333333333
EXTRACT: note_on channel=9 note=28 velocity=52 time=0
EXTRACT: note_on channel=9 note=35 velocity=127 time=0
EXTRACT: note_on channel=9 note=36 velocity=127 time=0
EXTRACT: note_on channel=9 note=38 velocity=67 time=0
EXTRACT: note_on channel=9 note=75 velocity=61 time=0
EXTRACT: note_on channel=8 note=58 velocity=127 time=0
EXTRACT: note_off channel=9 note=62 velocity=127 time=0.0010416666666666667
EXTRACT: note_off channel=9 note=75 velocity=61 time=0.11770833333333333
EXTRACT: note_off channel=9 note=28 velocity=52 time=0.07083333333333333
EXTRACT: note_off channel=9 note=38 velocity=67 time=0.034375
EXTRACT: note_off channel=9 note=35 velocity=127 time=0.005208333333333333
EXTRACT: note_off channel=9 note=36 velocity=127 time=0
EXTRACT: note_off channel=5 note=58 velocity=127 time=0.01875
EXTRACT: note_off channel=8 note=58 velocity=127 time=0
EXTRACT: note_on channel=5 note=65 velocity=127 time=0.0020833333333333333
EXTRACT: note_on channel=9 note=28 velocity=52 time=0
EXTRACT: note_on channel=8 note=65 velocity=127 time=0
EXTRACT: note_off channel=9 note=28 velocity=52 time=0.18958333333333333
EXTRACT: note_off channel=5 note=65 velocity=127 time=0.058333333333333334
EXTRACT: note_off channel=8 note=65 velocity=127 time=0
EXTRACT: note_on channel=5 note=63 velocity=127 time=0.0020833333333333333
EXTRACT: note_on channel=9 note=43 velocity=43 time=0
EXTRACT: note_on channel=9 note=28 velocity=52 time=0
EXTRACT: note_on channel=9 note=35 velocity=127 time=0
EXTRACT: note_on channel=9 note=36 velocity=127 time=0
EXTRACT: note_on channel=9 note=38 velocity=67 time=0
EXTRACT: note_on channel=9 note=75 velocity=56 time=0
EXTRACT: note_on channel=8 note=63 velocity=127 time=0
EXTRACT: note_off channel=9 note=43 velocity=43 time=0.096875
EXTRACT: note_off channel=9 note=75 velocity=56 time=0.021875
EXTRACT: note_on channel=9 note=41 velocity=43 time=0.00625
EXTRACT: note_off channel=9 note=28 velocity=52 time=0.06458333333333333
EXTRACT: note_off channel=9 note=41 velocity=43 time=0.03229166666666666
EXTRACT: note_off channel=9 note=38 velocity=67 time=0.0020833333333333333
EXTRACT: note_off channel=9 note=35 velocity=127 time=0.005208333333333333
EXTRACT: note_off channel=9 note=36 velocity=127 time=0
EXTRACT: note_off channel=5 note=63 velocity=127 time=0.01875
EXTRACT: note_off channel=8 note=63 velocity=127 time=0
EXTRACT: note_on channel=5 note=63 velocity=127 time=0.0020833333333333333
EXTRACT: note_on channel=9 note=28 velocity=52 time=0
EXTRACT: note_on channel=9 note=42 velocity=127 time=0
EXTRACT: note_on channel=9 note=37 velocity=127 time=0
EXTRACT: note_on channel=9 note=62 velocity=127 time=0
EXTRACT: note_on channel=8 note=63 velocity=127 time=0
EXTRACT: note_on channel=9 note=35 velocity=127 time=0.125
EXTRACT: note_on channel=9 note=36 velocity=127 time=0
EXTRACT: note_on channel=9 note=38 velocity=65 time=0
EXTRACT: note_off channel=9 note=28 velocity=52 time=0.06458333333333333
EXTRACT: note_off channel=9 note=42 velocity=127 time=0.03958333333333333
EXTRACT: note_off channel=9 note=37 velocity=127 time=0
EXTRACT: note_off channel=5 note=63 velocity=127 time=0.01875
EXTRACT: note_off channel=8 note=63 velocity=127 time=0
EXTRACT: note_on channel=5 note=61 velocity=127 time=0.0020833333333333333
EXTRACT: note_on channel=9 note=28 velocity=54 time=0
EXTRACT: note_on channel=9 note=42 velocity=127 time=0
EXTRACT: note_on channel=9 note=37 velocity=127 time=0
EXTRACT: note_on channel=9 note=62 velocity=127 time=0
EXTRACT: note_on channel=9 note=75 velocity=60 time=0
EXTRACT: note_on channel=8 note=61 velocity=127 time=0
EXTRACT: note_off channel=9 note=62 velocity=127 time=0.0010416666666666667
EXTRACT: note_off channel=9 note=38 velocity=65 time=0.09791666666666667
EXTRACT: note_off channel=9 note=35 velocity=127 time=0.005208333333333333
EXTRACT: note_off channel=9 note=36 velocity=127 time=0
EXTRACT: note_off channel=9 note=75 velocity=60 time=0.014583333333333334
EXTRACT: note_on channel=9 note=75 velocity=58 time=0.00625
EXTRACT: note_off channel=9 note=28 velocity=54 time=0.06458333333333333
EXTRACT: note_off channel=9 note=42 velocity=127 time=0.03958333333333333
EXTRACT: note_off channel=9 note=37 velocity=127 time=0
EXTRACT: note_off channel=9 note=75 velocity=58 time=0.014583333333333334
EXTRACT: note_off channel=5 note=61 velocity=127 time=0.004166666666666667
EXTRACT: note_off channel=8 note=61 velocity=127 time=0
EXTRACT: note_on channel=5 note=61 velocity=127 time=0.0020833333333333333
EXTRACT: note_on channel=9 note=36 velocity=127 time=0
EXTRACT: note_on channel=9 note=35 velocity=127 time=0
EXTRACT: note_on channel=9 note=28 velocity=54 time=0
EXTRACT: note_on channel=9 note=38 velocity=65 time=0
EXTRACT: note_on channel=9 note=75 velocity=61 time=0
EXTRACT: note_on channel=8 note=61 velocity=127 time=0
EXTRACT: note_off channel=9 note=62 velocity=127 time=0.0010416666666666667
EXTRACT: note_off channel=9 note=75 velocity=61 time=0.11770833333333333
EXTRACT: note_off channel=9 note=28 velocity=54 time=0.07083333333333333
EXTRACT: note_off channel=9 note=38 velocity=65 time=0.034375
EXTRACT: note_off channel=9 note=36 velocity=127 time=0.005208333333333333
EXTRACT: note_off channel=9 note=35 velocity=127 time=0
EXTRACT: note_off channel=5 note=61 velocity=127 time=0.01875
EXTRACT: note_off channel=8 note=61 velocity=127 time=0
EXTRACT: note_on channel=5 note=58 velocity=127 time=0.0020833333333333333
EXTRACT: note_on channel=9 note=28 velocity=56 time=0
EXTRACT: note_on channel=9 note=75 velocity=61 time=0
EXTRACT: note_on channel=8 note=58 velocity=127 time=0
EXTRACT: note_off channel=9 note=75 velocity=61 time=0.11875
EXTRACT: note_on channel=9 note=75 velocity=61 time=0.00625
EXTRACT: note_off channel=9 note=28 velocity=56 time=0.06458333333333333
EXTRACT: note_off channel=9 note=75 velocity=61 time=0.05416666666666667
EXTRACT: note_off channel=5 note=58 velocity=127 time=0.004166666666666667
EXTRACT: note_off channel=8 note=58 velocity=127 time=0
EXTRACT: note_on channel=5 note=61 velocity=127 time=0.0020833333333333333
EXTRACT: note_on channel=9 note=37 velocity=127 time=0
EXTRACT: note_on channel=9 note=42 velocity=127 time=0
EXTRACT: note_on channel=9 note=28 velocity=52 time=0
EXTRACT: note_on channel=9 note=75 velocity=61 time=0
EXTRACT: note_on channel=9 note=62 velocity=127 time=0
EXTRACT: note_on channel=8 note=61 velocity=127 time=0
EXTRACT: note_off channel=9 note=75 velocity=61 time=0.11875
EXTRACT: note_off channel=9 note=28 velocity=52 time=0.07083333333333333
EXTRACT: note_off channel=9 note=37 velocity=127 time=0.03958333333333333
EXTRACT: note_off channel=9 note=42 velocity=127 time=0
EXTRACT: note_off channel=5 note=61 velocity=127 time=0.01875
EXTRACT: note_off channel=8 note=61 velocity=127 time=0
EXTRACT: note_on channel=5 note=58 velocity=127 time=0.0020833333333333333
EXTRACT: note_on channel=9 note=36 velocity=127 time=0
EXTRACT: note_on channel=9 note=35 velocity=127 time=0
EXTRACT: note_on channel=9 note=28 velocity=52 time=0
EXTRACT: note_on channel=9 note=38 velocity=67 time=0
EXTRACT: note_on channel=9 note=75 velocity=61 time=0
EXTRACT: note_on channel=8 note=58 velocity=127 time=0
EXTRACT: note_off channel=9 note=62 velocity=127 time=0.0010416666666666667
EXTRACT: note_off channel=9 note=75 velocity=61 time=0.11770833333333333
EXTRACT: note_off channel=9 note=28 velocity=52 time=0.07083333333333333
EXTRACT: note_off channel=9 note=38 velocity=67 time=0.034375
EXTRACT: note_off channel=9 note=36 velocity=127 time=0.005208333333333333
EXTRACT: note_off channel=9 note=35 velocity=127 time=0
EXTRACT: note_off channel=5 note=58 velocity=127 time=0.01875
EXTRACT: note_off channel=8 note=58 velocity=127 time=0
EXTRACT: note_on channel=5 note=65 velocity=127 time=0.0020833333333333333
EXTRACT: note_on channel=9 note=28 velocity=52 time=0
EXTRACT: note_on channel=8 note=65 velocity=127 time=0
EXTRACT: note_off channel=9 note=28 velocity=52 time=0.18958333333333333
EXTRACT: note_off channel=5 note=65 velocity=127 time=0.058333333333333334
EXTRACT: note_off channel=8 note=65 velocity=127 time=0
EXTRACT: note_on channel=5 note=63 velocity=127 time=0.0020833333333333333
EXTRACT: note_on channel=9 note=36 velocity=127 time=0
EXTRACT: note_on channel=9 note=35 velocity=127 time=0
EXTRACT: note_on channel=9 note=28 velocity=52 time=0
EXTRACT: note_on channel=9 note=43 velocity=43 time=0
EXTRACT: note_on channel=9 note=38 velocity=67 time=0
EXTRACT: note_on channel=9 note=75 velocity=56 time=0
EXTRACT: note_on channel=8 note=63 velocity=127 time=0
EXTRACT: note_off channel=9 note=43 velocity=43 time=0.096875
EXTRACT: note_off channel=9 note=75 velocity=56 time=0.021875
EXTRACT: note_on channel=9 note=41 velocity=43 time=0.00625
EXTRACT: note_off channel=9 note=28 velocity=52 time=0.06458333333333333
EXTRACT: note_off channel=9 note=41 velocity=43 time=0.03229166666666666
EXTRACT: note_off channel=9 note=38 velocity=67 time=0.0020833333333333333
EXTRACT: note_off channel=9 note=36 velocity=127 time=0.005208333333333333
EXTRACT: note_off channel=9 note=35 velocity=127 time=0
EXTRACT: note_off channel=5 note=63 velocity=127 time=0.01875
EXTRACT: note_off channel=8 note=63 velocity=127 time=0
EXTRACT: note_on channel=5 note=63 velocity=127 time=0.0020833333333333333
EXTRACT: note_on channel=9 note=37 velocity=127 time=0
EXTRACT: note_on channel=9 note=42 velocity=127 time=0
EXTRACT: note_on channel=9 note=28 velocity=52 time=0
EXTRACT: note_on channel=9 note=62 velocity=127 time=0
EXTRACT: note_on channel=8 note=63 velocity=127 time=0
EXTRACT: note_on channel=9 note=36 velocity=127 time=0.125
EXTRACT: note_on channel=9 note=35 velocity=127 time=0
EXTRACT: note_on channel=9 note=38 velocity=65 time=0
EXTRACT: note_off channel=9 note=28 velocity=52 time=0.06458333333333333
EXTRACT: note_off channel=9 note=37 velocity=127 time=0.03958333333333333
EXTRACT: note_off channel=9 note=42 velocity=127 time=0
EXTRACT: note_off channel=5 note=63 velocity=127 time=0.01875
EXTRACT: note_off channel=8 note=63 velocity=127 time=0
EXTRACT: note_on channel=5 note=61 velocity=127 time=0.0020833333333333333
EXTRACT: note_on channel=9 note=37 velocity=127 time=0
EXTRACT: note_on channel=9 note=42 velocity=127 time=0
EXTRACT: note_on channel=9 note=28 velocity=54 time=0
EXTRACT: note_on channel=9 note=75 velocity=60 time=0
EXTRACT: note_on channel=9 note=62 velocity=127 time=0
EXTRACT: note_on channel=8 note=61 velocity=127 time=0
EXTRACT: note_off channel=9 note=62 velocity=127 time=0.0010416666666666667
EXTRACT: note_off channel=9 note=38 velocity=65 time=0.09791666666666667
EXTRACT: note_off channel=9 note=36 velocity=127 time=0.005208333333333333
EXTRACT: note_off channel=9 note=35 velocity=127 time=0
EXTRACT: note_off channel=9 note=75 velocity=60 time=0.014583333333333334
EXTRACT: note_on channel=9 note=75 velocity=58 time=0.00625
EXTRACT: note_off channel=9 note=28 velocity=54 time=0.06458333333333333
EXTRACT: note_off channel=9 note=37 velocity=127 time=0.03958333333333333
EXTRACT: note_off channel=9 note=42 velocity=127 time=0
EXTRACT: note_off channel=9 note=75 velocity=58 time=0.014583333333333334
EXTRACT: note_off channel=5 note=61 velocity=127 time=0.004166666666666667
EXTRACT: note_off channel=8 note=61 velocity=127 time=0
EXTRACT: note_on channel=5 note=61 velocity=127 time=0.0020833333333333333
EXTRACT: note_on channel=9 note=36 velocity=127 time=0
EXTRACT: note_on channel=9 note=35 velocity=127 time=0
EXTRACT: note_on channel=9 note=28 velocity=54 time=0
EXTRACT: note_on channel=9 note=38 velocity=65 time=0
EXTRACT: note_on channel=9 note=75 velocity=61 time=0
EXTRACT: note_on channel=8 note=61 velocity=127 time=0
EXTRACT: note_off channel=9 note=62 velocity=127 time=0.0010416666666666667
EXTRACT: note_off channel=9 note=75 velocity=61 time=0.11770833333333333
EXTRACT: note_off channel=9 note=28 velocity=54 time=0.07083333333333333
EXTRACT: note_off channel=9 note=38 velocity=65 time=0.034375
EXTRACT: note_off channel=9 note=36 velocity=127 time=0.005208333333333333
EXTRACT: note_off channel=9 note=35 velocity=127 time=0
EXTRACT: note_off channel=5 note=61 velocity=127 time=0.01875
EXTRACT: note_off channel=8 note=61 velocity=127 time=0
EXTRACT: note_on channel=5 note=58 velocity=127 time=0.0020833333333333333
EXTRACT: note_on channel=9 note=28 velocity=56 time=0
EXTRACT: note_on channel=9 note=75 velocity=61 time=0
EXTRACT: note_on channel=8 note=58 velocity=127 time=0
EXTRACT: note_off channel=9 note=75 velocity=61 time=0.11875
EXTRACT: note_on channel=9 note=75 velocity=61 time=0.00625
EXTRACT: note_off channel=9 note=28 velocity=56 time=0.06458333333333333
EXTRACT: note_off channel=9 note=75 velocity=61 time=0.05416666666666667
EXTRACT: note_off channel=5 note=58 velocity=127 time=0.004166666666666667
EXTRACT: note_off channel=8 note=58 velocity=127 time=0
EXTRACT: note_on channel=5 note=61 velocity=127 time=0.0020833333333333333
EXTRACT: note_on channel=9 note=37 velocity=127 time=0
EXTRACT: note_on channel=9 note=42 velocity=127 time=0
EXTRACT: note_on channel=9 note=28 velocity=52 time=0
EXTRACT: note_on channel=9 note=75 velocity=61 time=0
EXTRACT: note_on channel=9 note=62 velocity=127 time=0
EXTRACT: note_on channel=8 note=61 velocity=127 time=0
EXTRACT: note_off channel=9 note=75 velocity=61 time=0.11875
EXTRACT: note_off channel=9 note=28 velocity=52 time=0.07083333333333333
EXTRACT: note_off channel=9 note=37 velocity=127 time=0.03958333333333333
EXTRACT: note_off channel=9 note=42 velocity=127 time=0
EXTRACT: note_off channel=5 note=61 velocity=127 time=0.01875
EXTRACT: note_off channel=8 note=61 velocity=127 time=0
EXTRACT: note_on channel=5 note=58 velocity=127 time=0.0020833333333333333
EXTRACT: note_on channel=9 note=36 velocity=127 time=0
EXTRACT: note_on channel=9 note=35 velocity=127 time=0
EXTRACT: note_on channel=9 note=28 velocity=52 time=0
EXTRACT: note_on channel=9 note=38 velocity=67 time=0
EXTRACT: note_on channel=9 note=75 velocity=61 time=0
EXTRACT: note_on channel=8 note=58 velocity=127 time=0
EXTRACT: note_off channel=9 note=62 velocity=127 time=0.0010416666666666667
EXTRACT: note_off channel=9 note=75 velocity=61 time=0.11770833333333333
EXTRACT: note_off channel=9 note=28 velocity=52 time=0.07083333333333333
EXTRACT: note_off channel=9 note=38 velocity=67 time=0.034375
EXTRACT: note_off channel=9 note=36 velocity=127 time=0.005208333333333333
EXTRACT: note_off channel=9 note=35 velocity=127 time=0
EXTRACT: note_off channel=5 note=58 velocity=127 time=0.01875
EXTRACT: note_off channel=8 note=58 velocity=127 time=0
EXTRACT: note_on channel=5 note=65 velocity=127 time=0.0020833333333333333
EXTRACT: note_on channel=9 note=28 velocity=52 time=0
EXTRACT: note_on channel=8 note=65 velocity=127 time=0
EXTRACT: note_off channel=9 note=28 velocity=52 time=0.18958333333333333
EXTRACT: note_off channel=5 note=65 velocity=127 time=0.058333333333333334
EXTRACT: note_off channel=8 note=65 velocity=127 time=0
EXTRACT: note_on channel=5 note=63 velocity=127 time=0.0020833333333333333
EXTRACT: note_on channel=9 note=36 velocity=127 time=0
EXTRACT: note_on channel=9 note=35 velocity=127 time=0
EXTRACT: note_on channel=9 note=28 velocity=52 time=0
EXTRACT: note_on channel=9 note=43 velocity=43 time=0
EXTRACT: note_on channel=9 note=38 velocity=67 time=0
EXTRACT: note_on channel=9 note=75 velocity=56 time=0
EXTRACT: note_on channel=8 note=63 velocity=127 time=0
EXTRACT: note_off channel=9 note=43 velocity=43 time=0.096875
EXTRACT: note_off channel=9 note=75 velocity=56 time=0.021875
EXTRACT: note_on channel=9 note=41 velocity=43 time=0.00625
EXTRACT: note_off channel=9 note=28 velocity=52 time=0.06458333333333333
EXTRACT: note_off channel=9 note=41 velocity=43 time=0.03229166666666666
EXTRACT: note_off channel=9 note=38 velocity=67 time=0.0020833333333333333
EXTRACT: note_off channel=9 note=36 velocity=127 time=0.005208333333333333
EXTRACT: note_off channel=9 note=35 velocity=127 time=0
EXTRACT: note_off channel=5 note=63 velocity=127 time=0.01875
EXTRACT: note_off channel=8 note=63 velocity=127 time=0
EXTRACT: note_on channel=5 note=63 velocity=127 time=0.0020833333333333333
EXTRACT: note_on channel=9 note=37 velocity=127 time=0
EXTRACT: note_on channel=9 note=42 velocity=127 time=0
EXTRACT: note_on channel=9 note=28 velocity=52 time=0
EXTRACT: note_on channel=9 note=62 velocity=127 time=0
EXTRACT: note_on channel=8 note=63 velocity=127 time=0
EXTRACT: note_on channel=9 note=36 velocity=127 time=0.125
EXTRACT: note_on channel=9 note=35 velocity=127 time=0
EXTRACT: note_on channel=9 note=38 velocity=65 time=0
EXTRACT: note_off channel=9 note=28 velocity=52 time=0.06458333333333333
EXTRACT: note_off channel=9 note=37 velocity=127 time=0.03958333333333333
EXTRACT: note_off channel=9 note=42 velocity=127 time=0
EXTRACT: note_off channel=5 note=63 velocity=127 time=0.01875
EXTRACT: note_off channel=8 note=63 velocity=127 time=0
EXTRACT: note_on channel=5 note=61 velocity=127 time=0.0020833333333333333
EXTRACT: note_on channel=9 note=37 velocity=127 time=0
EXTRACT: note_on channel=9 note=42 velocity=127 time=0
EXTRACT: note_on channel=9 note=28 velocity=54 time=0
EXTRACT: note_on channel=9 note=75 velocity=60 time=0
EXTRACT: note_on channel=9 note=62 velocity=127 time=0
EXTRACT: note_on channel=8 note=61 velocity=127 time=0
EXTRACT: note_off channel=9 note=62 velocity=127 time=0.0010416666666666667
EXTRACT: note_off channel=9 note=38 velocity=65 time=0.09791666666666667
EXTRACT: note_off channel=9 note=36 velocity=127 time=0.005208333333333333
EXTRACT: note_off channel=9 note=35 velocity=127 time=0
EXTRACT: note_off channel=9 note=75 velocity=60 time=0.014583333333333334
EXTRACT: note_on channel=9 note=75 velocity=58 time=0.00625
EXTRACT: note_off channel=9 note=28 velocity=54 time=0.06458333333333333
EXTRACT: note_off channel=9 note=37 velocity=127 time=0.03958333333333333
EXTRACT: note_off channel=9 note=42 velocity=127 time=0
EXTRACT: note_off channel=9 note=75 velocity=58 time=0.014583333333333334
EXTRACT: note_off channel=5 note=61 velocity=127 time=0.004166666666666667
EXTRACT: note_off channel=8 note=61 velocity=127 time=0
EXTRACT: note_on channel=5 note=61 velocity=127 time=0.0020833333333333333
EXTRACT: note_on channel=9 note=36 velocity=127 time=0
EXTRACT: note_on channel=9 note=35 velocity=127 time=0
EXTRACT: note_on channel=9 note=28 velocity=54 time=0
EXTRACT: note_on channel=9 note=38 velocity=65 time=0
EXTRACT: note_on channel=9 note=75 velocity=61 time=0
EXTRACT: note_on channel=8 note=61 velocity=127 time=0
EXTRACT: note_off channel=9 note=62 velocity=127 time=0.0010416666666666667
EXTRACT: note_off channel=9 note=75 velocity=61 time=0.11770833333333333
EXTRACT: note_off channel=9 note=28 velocity=54 time=0.07083333333333333
EXTRACT: note_off channel=9 note=38 velocity=65 time=0.034375
EXTRACT: note_off channel=9 note=36 velocity=127 time=0.005208333333333333
EXTRACT: note_off channel=9 note=35 velocity=127 time=0
EXTRACT: note_off channel=5 note=61 velocity=127 time=0.01875
EXTRACT: note_off channel=8 note=61 velocity=127 time=0
EXTRACT: note_on channel=5 note=58 velocity=127 time=0.0020833333333333333
EXTRACT: note_on channel=9 note=28 velocity=56 time=0
EXTRACT: note_on channel=9 note=75 velocity=61 time=0
EXTRACT: note_on channel=8 note=58 velocity=127 time=0
EXTRACT: note_off channel=9 note=75 velocity=61 time=0.11875
EXTRACT: note_on channel=9 note=75 velocity=61 time=0.00625
EXTRACT: note_off channel=9 note=28 velocity=56 time=0.06458333333333333
EXTRACT: note_off channel=9 note=75 velocity=61 time=0.05416666666666667
EXTRACT: note_off channel=5 note=58 velocity=127 time=0.004166666666666667
EXTRACT: note_off channel=8 note=58 velocity=127 time=0
EXTRACT: note_on channel=5 note=61 velocity=127 time=0.0020833333333333333
EXTRACT: note_on channel=9 note=37 velocity=127 time=0
EXTRACT: note_on channel=9 note=42 velocity=127 time=0
EXTRACT: note_on channel=9 note=28 velocity=52 time=0
EXTRACT: note_on channel=9 note=75 velocity=61 time=0
EXTRACT: note_on channel=9 note=62 velocity=127 time=0
EXTRACT: note_on channel=8 note=61 velocity=127 time=0
EXTRACT: note_off channel=9 note=75 velocity=61 time=0.11875
EXTRACT: note_off channel=9 note=28 velocity=52 time=0.07083333333333333
EXTRACT: note_off channel=9 note=37 velocity=127 time=0.03958333333333333
EXTRACT: note_off channel=9 note=42 velocity=127 time=0
EXTRACT: note_off channel=5 note=61 velocity=127 time=0.01875
EXTRACT: note_off channel=8 note=61 velocity=127 time=0
EXTRACT: note_on channel=5 note=58 velocity=127 time=0.0020833333333333333
EXTRACT: note_on channel=9 note=36 velocity=127 time=0
EXTRACT: note_on channel=9 note=35 velocity=127 time=0
EXTRACT: note_on channel=9 note=28 velocity=52 time=0
EXTRACT: note_on channel=9 note=38 velocity=67 time=0
EXTRACT: note_on channel=9 note=75 velocity=61 time=0
EXTRACT: note_on channel=8 note=58 velocity=127 time=0
EXTRACT: note_off channel=9 note=62 velocity=127 time=0.0010416666666666667
EXTRACT: note_off channel=9 note=75 velocity=61 time=0.11770833333333333
EXTRACT: note_off channel=9 note=28 velocity=52 time=0.07083333333333333
EXTRACT: note_off channel=9 note=38 velocity=67 time=0.034375
EXTRACT: note_off channel=9 note=36 velocity=127 time=0.005208333333333333
EXTRACT: note_off channel=9 note=35 velocity=127 time=0
EXTRACT: note_off channel=5 note=58 velocity=127 time=0.01875
EXTRACT: note_off channel=8 note=58 velocity=127 time=0
EXTRACT: note_on channel=5 note=65 velocity=127 time=0.0020833333333333333
EXTRACT: note_on channel=9 note=28 velocity=52 time=0
EXTRACT: note_on channel=8 note=65 velocity=127 time=0
EXTRACT: note_off channel=9 note=28 velocity=52 time=0.18958333333333333
EXTRACT: note_off channel=5 note=65 velocity=127 time=0.058333333333333334
EXTRACT: note_off channel=8 note=65 velocity=127 time=0
EXTRACT: note_on channel=5 note=63 velocity=127 time=0.0020833333333333333
EXTRACT: note_on channel=9 note=36 velocity=127 time=0
EXTRACT: note_on channel=9 note=35 velocity=127 time=0
EXTRACT: note_on channel=9 note=28 velocity=52 time=0
EXTRACT: note_on channel=9 note=43 velocity=43 time=0
EXTRACT: note_on channel=9 note=38 velocity=67 time=0
EXTRACT: note_on channel=9 note=75 velocity=56 time=0
EXTRACT: note_on channel=8 note=63 velocity=127 time=0
EXTRACT: note_off channel=9 note=43 velocity=43 time=0.096875
EXTRACT: note_off channel=9 note=75 velocity=56 time=0.021875
EXTRACT: note_on channel=9 note=41 velocity=43 time=0.00625
EXTRACT: note_off channel=9 note=28 velocity=52 time=0.06458333333333333
EXTRACT: note_off channel=9 note=41 velocity=43 time=0.03229166666666666
EXTRACT: note_off channel=9 note=38 velocity=67 time=0.0020833333333333333
EXTRACT: note_off channel=9 note=36 velocity=127 time=0.005208333333333333
EXTRACT: note_off channel=9 note=35 velocity=127 time=0
EXTRACT: note_off channel=5 note=63 velocity=127 time=0.01875
EXTRACT: note_off channel=8 note=63 velocity=127 time=0
EXTRACT: note_on channel=5 note=63 velocity=127 time=0.0020833333333333333
EXTRACT: note_on channel=9 note=37 velocity=127 time=0
EXTRACT: note_on channel=9 note=42 velocity=127 time=0
EXTRACT: note_on channel=9 note=28 velocity=52 time=0
EXTRACT: note_on channel=9 note=62 velocity=127 time=0
EXTRACT: note_on channel=8 note=63 velocity=127 time=0
EXTRACT: note_on channel=9 note=36 velocity=127 time=0.125
EXTRACT: note_on channel=9 note=35 velocity=127 time=0
EXTRACT: note_on channel=9 note=38 velocity=65 time=0
EXTRACT: note_off channel=9 note=28 velocity=52 time=0.06458333333333333
EXTRACT: note_off channel=9 note=37 velocity=127 time=0.03958333333333333
EXTRACT: note_off channel=9 note=42 velocity=127 time=0
EXTRACT: note_off channel=5 note=63 velocity=127 time=0.01875
EXTRACT: note_off channel=8 note=63 velocity=127 time=0
EXTRACT: note_on channel=5 note=61 velocity=127 time=0.0020833333333333333
EXTRACT: note_on channel=9 note=37 velocity=127 time=0
EXTRACT: note_on channel=9 note=42 velocity=127 time=0
EXTRACT: note_on channel=9 note=28 velocity=54 time=0
EXTRACT: note_on channel=9 note=75 velocity=60 time=0
EXTRACT: note_on channel=9 note=62 velocity=127 time=0
EXTRACT: note_on channel=8 note=61 velocity=127 time=0
EXTRACT: note_off channel=9 note=62 velocity=127 time=0.0010416666666666667
EXTRACT: note_off channel=9 note=38 velocity=65 time=0.09791666666666667
EXTRACT: note_off channel=9 note=36 velocity=127 time=0.005208333333333333
EXTRACT: note_off channel=9 note=35 velocity=127 time=0
EXTRACT: note_off channel=9 note=75 velocity=60 time=0.014583333333333334
EXTRACT: note_on channel=9 note=75 velocity=58 time=0.00625
EXTRACT: note_off channel=9 note=28 velocity=54 time=0.06458333333333333
EXTRACT: control_change channel=2 control=7 value=29 time=0.03333333333333333
EXTRACT: note_off channel=9 note=37 velocity=127 time=0.00625
EXTRACT: note_off channel=9 note=42 velocity=127 time=0
EXTRACT: note_off channel=9 note=75 velocity=58 time=0.014583333333333334
EXTRACT: note_off channel=5 note=61 velocity=127 time=0.004166666666666667
EXTRACT: note_off channel=8 note=61 velocity=127 time=0
EXTRACT: note_on channel=2 note=77 velocity=110 time=0.0020833333333333333
EXTRACT: note_on channel=2 note=70 velocity=110 time=0
EXTRACT: note_on channel=2 note=73 velocity=110 time=0
EXTRACT: note_on channel=5 note=61 velocity=127 time=0
EXTRACT: note_on channel=9 note=28 velocity=54 time=0
EXTRACT: note_on channel=9 note=35 velocity=127 time=0
EXTRACT: note_on channel=9 note=36 velocity=127 time=0
EXTRACT: note_on channel=9 note=38 velocity=65 time=0
EXTRACT: note_on channel=9 note=75 velocity=61 time=0
EXTRACT: note_on channel=7 note=22 velocity=127 time=0
EXTRACT: note_on channel=8 note=61 velocity=127 time=0
EXTRACT: note_off channel=9 note=62 velocity=127 time=0.0010416666666666667
EXTRACT: control_change channel=2 control=7 value=31 time=0.051041666666666666
EXTRACT: control_change channel=2 control=7 value=36 time=0.040625
EXTRACT: note_off channel=9 note=75 velocity=61 time=0.026041666666666668
EXTRACT: control_change channel=2 control=7 value=38 time=0.03958333333333333
EXTRACT: control_change channel=2 control=7 value=40 time=0.013541666666666667
EXTRACT: note_off channel=9 note=28 velocity=54 time=0.017708333333333333
EXTRACT: control_change channel=2 control=7 value=43 time=0.021875
EXTRACT: note_off channel=9 note=38 velocity=65 time=0.0125
EXTRACT: note_off channel=9 note=35 velocity=127 time=0.005208333333333333
EXTRACT: note_off channel=9 note=36 velocity=127 time=0
EXTRACT: control_change channel=2 control=7 value=45 time=0.008333333333333333
EXTRACT: note_off channel=5 note=61 velocity=127 time=0.010416666666666666
EXTRACT: note_off channel=8 note=61 velocity=127 time=0
EXTRACT: note_on channel=5 note=58 velocity=127 time=0.0020833333333333333
EXTRACT: note_on channel=9 note=28 velocity=56 time=0
EXTRACT: note_on channel=9 note=75 velocity=61 time=0
EXTRACT: note_on channel=8 note=58 velocity=127 time=0
EXTRACT: control_change channel=2 control=7 value=47 time=0.027083333333333334
EXTRACT: control_change channel=2 control=7 value=49 time=0.027083333333333334
EXTRACT: control_change channel=2 control=7 value=52 time=0.026041666666666668
EXTRACT: note_off channel=9 note=75 velocity=61 time=0.03854166666666667
EXTRACT: note_on channel=9 note=75 velocity=61 time=0.00625
EXTRACT: control_change channel=2 control=7 value=54 time=0.008333333333333333
EXTRACT: control_change channel=2 control=7 value=56 time=0.026041666666666668
EXTRACT: control_change channel=2 control=7 value=58 time=0.026041666666666668
EXTRACT: note_off channel=9 note=28 velocity=56 time=0.004166666666666667
EXTRACT: control_change channel=2 control=7 value=63 time=0.009375
EXTRACT: control_change channel=2 control=7 value=65 time=0.026041666666666668
EXTRACT: note_off channel=9 note=75 velocity=61 time=0.01875
EXTRACT: note_off channel=5 note=58 velocity=127 time=0.004166666666666667
EXTRACT: note_off channel=8 note=58 velocity=127 time=0
EXTRACT: note_on channel=5 note=61 velocity=127 time=0.0020833333333333333
EXTRACT: note_on channel=9 note=28 velocity=52 time=0
EXTRACT: note_on channel=9 note=42 velocity=127 time=0
EXTRACT: note_on channel=9 note=37 velocity=127 time=0
EXTRACT: note_on channel=9 note=62 velocity=127 time=0
EXTRACT: note_on channel=9 note=75 velocity=61 time=0
EXTRACT: note_on channel=8 note=61 velocity=127 time=0
EXTRACT: control_change channel=2 control=7 value=67 time=0.0020833333333333333
EXTRACT: note_off channel=7 note=22 velocity=127 time=0.013541666666666667
EXTRACT: control_change channel=2 control=7 value=70 time=0.026041666666666668
EXTRACT: control_change channel=2 control=7 value=72 time=0.013541666666666667
EXTRACT: control_change channel=2 control=7 value=74 time=0.0125
EXTRACT: control_change channel=2 control=7 value=76 time=0.03958333333333333
EXTRACT: note_off channel=9 note=75 velocity=61 time=0.011458333333333333
EXTRACT: control_change channel=2 control=7 value=81 time=0.0020833333333333333
EXTRACT: control_change channel=2 control=7 value=83 time=0.026041666666666668
EXTRACT: control_change channel=2 control=7 value=85 time=0.013541666666666667
EXTRACT: control_change channel=2 control=7 value=88 time=0.026041666666666668
EXTRACT: note_off channel=9 note=28 velocity=52 time=0.003125
EXTRACT: control_change channel=2 control=7 value=92 time=0.010416666666666666
EXTRACT: control_change channel=2 control=7 value=94 time=0.013541666666666667
EXTRACT: control_change channel=2 control=7 value=97 time=0.013541666666666667
EXTRACT: note_off channel=9 note=42 velocity=127 time=0.0020833333333333333
EXTRACT: note_off channel=9 note=37 velocity=127 time=0
EXTRACT: note_off channel=5 note=61 velocity=127 time=0.01875
EXTRACT: note_off channel=8 note=61 velocity=127 time=0
EXTRACT: note_on channel=5 note=58 velocity=127 time=0.0020833333333333333
EXTRACT: note_on channel=9 note=28 velocity=52 time=0
EXTRACT: note_on channel=9 note=35 velocity=127 time=0
EXTRACT: note_on channel=9 note=36 velocity=127 time=0
EXTRACT: note_on channel=9 note=38 velocity=67 time=0
EXTRACT: note_on channel=9 note=75 velocity=61 time=0
EXTRACT: note_on channel=8 note=58 velocity=127 time=0
EXTRACT: note_off channel=9 note=62 velocity=127 time=0.0010416666666666667
EXTRACT: control_change channel=2 control=7 value=99 time=0.015625
EXTRACT: note_off channel=9 note=75 velocity=61 time=0.10208333333333333
EXTRACT: note_off channel=9 note=28 velocity=52 time=0.07083333333333333
EXTRACT: note_off channel=9 note=38 velocity=67 time=0.034375
EXTRACT: note_off channel=9 note=35 velocity=127 time=0.005208333333333333
EXTRACT: note_off channel=9 note=36 velocity=127 time=0
EXTRACT: note_off channel=2 note=77 velocity=110 time=0.01875
EXTRACT: note_off channel=2 note=70 velocity=110 time=0
EXTRACT: note_off channel=2 note=73 velocity=110 time=0
EXTRACT: note_off channel=5 note=58 velocity=127 time=0
EXTRACT: note_off channel=8 note=58 velocity=127 time=0
EXTRACT: note_on channel=5 note=65 velocity=127 time=0.0020833333333333333
EXTRACT: note_on channel=9 note=28 velocity=52 time=0
EXTRACT: note_on channel=8 note=65 velocity=127 time=0
EXTRACT: note_off channel=9 note=28 velocity=52 time=0.18958333333333333
EXTRACT: note_off channel=5 note=65 velocity=127 time=0.058333333333333334
EXTRACT: note_off channel=8 note=65 velocity=127 time=0
EXTRACT: note_on channel=5 note=63 velocity=127 time=0.0020833333333333333
EXTRACT: note_on channel=9 note=43 velocity=43 time=0
EXTRACT: note_on channel=9 note=28 velocity=52 time=0
EXTRACT: note_on channel=9 note=35 velocity=127 time=0
EXTRACT: note_on channel=9 note=36 velocity=127 time=0
EXTRACT: note_on channel=9 note=38 velocity=67 time=0
EXTRACT: note_on channel=9 note=75 velocity=56 time=0
EXTRACT: note_on channel=8 note=63 velocity=127 time=0
EXTRACT: note_off channel=9 note=43 velocity=43 time=0.096875
EXTRACT: note_off channel=9 note=75 velocity=56 time=0.021875
EXTRACT: note_on channel=9 note=41 velocity=43 time=0.00625
EXTRACT: note_off channel=9 note=28 velocity=52 time=0.06458333333333333
EXTRACT: note_off channel=9 note=41 velocity=43 time=0.03229166666666666
EXTRACT: note_off channel=9 note=38 velocity=67 time=0.0020833333333333333
EXTRACT: note_off channel=9 note=35 velocity=127 time=0.005208333333333333
EXTRACT: note_off channel=9 note=36 velocity=127 time=0
EXTRACT: note_off channel=5 note=63 velocity=127 time=0.01875
EXTRACT: note_off channel=8 note=63 velocity=127 time=0
EXTRACT: note_on channel=5 note=63 velocity=127 time=0.0020833333333333333
EXTRACT: note_on channel=9 note=28 velocity=52 time=0
EXTRACT: note_on channel=9 note=42 velocity=127 time=0
EXTRACT: note_on channel=9 note=37 velocity=127 time=0
EXTRACT: note_on channel=9 note=62 velocity=127 time=0
EXTRACT: note_on channel=8 note=63 velocity=127 time=0
EXTRACT: note_on channel=9 note=35 velocity=127 time=0.125
EXTRACT: note_on channel=9 note=36 velocity=127 time=0
EXTRACT: note_on channel=9 note=38 velocity=65 time=0
EXTRACT: note_off channel=9 note=28 velocity=52 time=0.06458333333333333
EXTRACT: note_off channel=9 note=42 velocity=127 time=0.03958333333333333
EXTRACT: note_off channel=9 note=37 velocity=127 time=0
EXTRACT: note_off channel=5 note=63 velocity=127 time=0.01875
EXTRACT: note_off channel=8 note=63 velocity=127 time=0
EXTRACT: note_on channel=5 note=61 velocity=127 time=0.0020833333333333333
EXTRACT: note_on channel=9 note=28 velocity=54 time=0
EXTRACT: note_on channel=9 note=42 velocity=127 time=0
EXTRACT: note_on channel=9 note=37 velocity=127 time=0
EXTRACT: note_on channel=9 note=62 velocity=127 time=0
EXTRACT: note_on channel=9 note=75 velocity=60 time=0
EXTRACT: note_on channel=8 note=61 velocity=127 time=0
EXTRACT: note_off channel=9 note=62 velocity=127 time=0.0010416666666666667
EXTRACT: note_off channel=9 note=38 velocity=65 time=0.09791666666666667
EXTRACT: note_off channel=9 note=35 velocity=127 time=0.005208333333333333
EXTRACT: note_off channel=9 note=36 velocity=127 time=0
EXTRACT: note_off channel=9 note=75 velocity=60 time=0.014583333333333334
EXTRACT: note_on channel=9 note=75 velocity=58 time=0.00625
EXTRACT: note_off channel=9 note=28 velocity=54 time=0.06458333333333333
EXTRACT: note_off channel=9 note=42 velocity=127 time=0.03958333333333333
EXTRACT: note_off channel=9 note=37 velocity=127 time=0
EXTRACT: note_off channel=9 note=75 velocity=58 time=0.014583333333333334
EXTRACT: note_off channel=5 note=61 velocity=127 time=0.004166666666666667
EXTRACT: note_off channel=8 note=61 velocity=127 time=0
EXTRACT: note_on channel=5 note=61 velocity=127 time=0.0020833333333333333
EXTRACT: note_on channel=9 note=36 velocity=127 time=0
EXTRACT: note_on channel=9 note=35 velocity=127 time=0
EXTRACT: note_on channel=9 note=28 velocity=54 time=0
EXTRACT: note_on channel=9 note=38 velocity=65 time=0
EXTRACT: note_on channel=9 note=75 velocity=61 time=0
EXTRACT: note_on channel=8 note=61 velocity=127 time=0
EXTRACT: note_off channel=9 note=62 velocity=127 time=0.0010416666666666667
EXTRACT: note_off channel=9 note=75 velocity=61 time=0.11770833333333333
EXTRACT: note_off channel=9 note=28 velocity=54 time=0.07083333333333333
EXTRACT: note_off channel=9 note=38 velocity=65 time=0.034375
EXTRACT: note_off channel=9 note=36 velocity=127 time=0.005208333333333333
EXTRACT: note_off channel=9 note=35 velocity=127 time=0
EXTRACT: note_off channel=5 note=61 velocity=127 time=0.01875
EXTRACT: note_off channel=8 note=61 velocity=127 time=0
EXTRACT: note_on channel=5 note=58 velocity=127 time=0.0020833333333333333
EXTRACT: note_on channel=9 note=28 velocity=56 time=0
EXTRACT: note_on channel=9 note=75 velocity=61 time=0
EXTRACT: note_on channel=8 note=58 velocity=127 time=0
EXTRACT: note_off channel=9 note=75 velocity=61 time=0.11875
EXTRACT: note_on channel=9 note=75 velocity=61 time=0.00625
EXTRACT: note_off channel=9 note=28 velocity=56 time=0.06458333333333333
EXTRACT: note_off channel=9 note=75 velocity=61 time=0.05416666666666667
EXTRACT: note_off channel=5 note=58 velocity=127 time=0.004166666666666667
EXTRACT: note_off channel=8 note=58 velocity=127 time=0
EXTRACT: note_on channel=5 note=61 velocity=127 time=0.0020833333333333333
EXTRACT: note_on channel=9 note=37 velocity=127 time=0
EXTRACT: note_on channel=9 note=42 velocity=127 time=0
EXTRACT: note_on channel=9 note=28 velocity=52 time=0
EXTRACT: note_on channel=9 note=75 velocity=61 time=0
EXTRACT: note_on channel=9 note=62 velocity=127 time=0
EXTRACT: note_on channel=8 note=61 velocity=127 time=0
EXTRACT: note_off channel=9 note=75 velocity=61 time=0.11875
EXTRACT: note_off channel=9 note=28 velocity=52 time=0.07083333333333333
EXTRACT: note_off channel=9 note=37 velocity=127 time=0.03958333333333333
EXTRACT: note_off channel=9 note=42 velocity=127 time=0
EXTRACT: note_off channel=5 note=61 velocity=127 time=0.01875
EXTRACT: note_off channel=8 note=61 velocity=127 time=0
EXTRACT: note_on channel=5 note=58 velocity=127 time=0.0020833333333333333
EXTRACT: note_on channel=9 note=36 velocity=127 time=0
EXTRACT: note_on channel=9 note=35 velocity=127 time=0
EXTRACT: note_on channel=9 note=28 velocity=52 time=0
EXTRACT: note_on channel=9 note=38 velocity=67 time=0
EXTRACT: note_on channel=9 note=75 velocity=61 time=0
EXTRACT: note_on channel=8 note=58 velocity=127 time=0
EXTRACT: note_off channel=9 note=62 velocity=127 time=0.0010416666666666667
EXTRACT: note_off channel=9 note=75 velocity=61 time=0.11770833333333333
EXTRACT: note_off channel=9 note=28 velocity=52 time=0.07083333333333333
EXTRACT: note_off channel=9 note=38 velocity=67 time=0.034375
EXTRACT: note_off channel=9 note=36 velocity=127 time=0.005208333333333333
EXTRACT: note_off channel=9 note=35 velocity=127 time=0
EXTRACT: note_off channel=5 note=58 velocity=127 time=0.01875
EXTRACT: note_off channel=8 note=58 velocity=127 time=0
EXTRACT: note_on channel=5 note=65 velocity=127 time=0.0020833333333333333
EXTRACT: note_on channel=9 note=28 velocity=52 time=0
EXTRACT: note_on channel=8 note=65 velocity=127 time=0
EXTRACT: note_off channel=9 note=28 velocity=52 time=0.18958333333333333
EXTRACT: note_off channel=5 note=65 velocity=127 time=0.058333333333333334
EXTRACT: note_off channel=8 note=65 velocity=127 time=0
EXTRACT: note_on channel=5 note=63 velocity=127 time=0.0020833333333333333
EXTRACT: note_on channel=9 note=36 velocity=127 time=0
EXTRACT: note_on channel=9 note=35 velocity=127 time=0
EXTRACT: note_on channel=9 note=28 velocity=52 time=0
EXTRACT: note_on channel=9 note=43 velocity=43 time=0
EXTRACT: note_on channel=9 note=38 velocity=67 time=0
EXTRACT: note_on channel=9 note=75 velocity=56 time=0
EXTRACT: note_on channel=8 note=63 velocity=127 time=0
EXTRACT: note_off channel=9 note=43 velocity=43 time=0.096875
EXTRACT: note_off channel=9 note=75 velocity=56 time=0.021875
EXTRACT: note_on channel=9 note=41 velocity=43 time=0.00625
EXTRACT: note_off channel=9 note=28 velocity=52 time=0.06458333333333333
EXTRACT: note_off channel=9 note=41 velocity=43 time=0.03229166666666666
EXTRACT: note_off channel=9 note=38 velocity=67 time=0.0020833333333333333
EXTRACT: note_off channel=9 note=36 velocity=127 time=0.005208333333333333
EXTRACT: note_off channel=9 note=35 velocity=127 time=0
EXTRACT: note_off channel=5 note=63 velocity=127 time=0.01875
EXTRACT: note_off channel=8 note=63 velocity=127 time=0
EXTRACT: note_on channel=5 note=63 velocity=127 time=0.0020833333333333333
EXTRACT: note_on channel=9 note=37 velocity=127 time=0
EXTRACT: note_on channel=9 note=42 velocity=127 time=0
EXTRACT: note_on channel=9 note=28 velocity=52 time=0
EXTRACT: note_on channel=9 note=62 velocity=127 time=0
EXTRACT: note_on channel=8 note=63 velocity=127 time=0
EXTRACT: note_on channel=9 note=36 velocity=127 time=0.125
EXTRACT: note_on channel=9 note=35 velocity=127 time=0
EXTRACT: note_on channel=9 note=38 velocity=65 time=0
EXTRACT: note_off channel=9 note=28 velocity=52 time=0.06458333333333333
EXTRACT: note_off channel=9 note=37 velocity=127 time=0.03958333333333333
EXTRACT: note_off channel=9 note=42 velocity=127 time=0
EXTRACT: note_off channel=5 note=63 velocity=127 time=0.01875
EXTRACT: note_off channel=8 note=63 velocity=127 time=0
EXTRACT: note_on channel=5 note=61 velocity=127 time=0.0020833333333333333
EXTRACT: note_on channel=9 note=37 velocity=127 time=0
EXTRACT: note_on channel=9 note=42 velocity=127 time=0
EXTRACT: note_on channel=9 note=28 velocity=54 time=0
EXTRACT: note_on channel=9 note=75 velocity=60 time=0
EXTRACT: note_on channel=9 note=62 velocity=127 time=0
EXTRACT: note_on channel=8 note=61 velocity=127 time=0
EXTRACT: note_off channel=9 note=62 velocity=127 time=0.0010416666666666667
EXTRACT: note_off channel=9 note=38 velocity=65 time=0.09791666666666667
EXTRACT: note_off channel=9 note=36 velocity=127 time=0.005208333333333333
EXTRACT: note_off channel=9 note=35 velocity=127 time=0
EXTRACT: note_off channel=9 note=75 velocity=60 time=0.014583333333333334
EXTRACT: note_on channel=9 note=75 velocity=58 time=0.00625
EXTRACT: note_off channel=9 note=28 velocity=54 time=0.06458333333333333
EXTRACT: note_off channel=9 note=37 velocity=127 time=0.03958333333333333
EXTRACT: note_off channel=9 note=42 velocity=127 time=0
EXTRACT: note_off channel=9 note=75 velocity=58 time=0.014583333333333334
EXTRACT: note_off channel=5 note=61 velocity=127 time=0.004166666666666667
EXTRACT: note_off channel=8 note=61 velocity=127 time=0
EXTRACT: note_on channel=5 note=61 velocity=127 time=0.0020833333333333333
EXTRACT: note_on channel=9 note=36 velocity=127 time=0
EXTRACT: note_on channel=9 note=35 velocity=127 time=0
EXTRACT: note_on channel=9 note=28 velocity=54 time=0
EXTRACT: note_on channel=9 note=38 velocity=65 time=0
EXTRACT: note_on channel=9 note=75 velocity=61 time=0
EXTRACT: note_on channel=8 note=61 velocity=127 time=0
EXTRACT: note_off channel=9 note=62 velocity=127 time=0.0010416666666666667
EXTRACT: note_off channel=9 note=75 velocity=61 time=0.11770833333333333
EXTRACT: note_off channel=9 note=28 velocity=54 time=0.07083333333333333
EXTRACT: note_off channel=9 note=38 velocity=65 time=0.034375
EXTRACT: note_off channel=9 note=36 velocity=127 time=0.005208333333333333
EXTRACT: note_off channel=9 note=35 velocity=127 time=0
EXTRACT: note_off channel=5 note=61 velocity=127 time=0.01875
EXTRACT: note_off channel=8 note=61 velocity=127 time=0
EXTRACT: note_on channel=5 note=58 velocity=127 time=0.0020833333333333333
EXTRACT: note_on channel=9 note=28 velocity=56 time=0
EXTRACT: note_on channel=9 note=75 velocity=61 time=0
EXTRACT: note_on channel=8 note=58 velocity=127 time=0
EXTRACT: note_off channel=9 note=75 velocity=61 time=0.11875
EXTRACT: note_on channel=9 note=75 velocity=61 time=0.00625
EXTRACT: note_off channel=9 note=28 velocity=56 time=0.06458333333333333
EXTRACT: note_off channel=9 note=75 velocity=61 time=0.05416666666666667
EXTRACT: note_off channel=5 note=58 velocity=127 time=0.004166666666666667
EXTRACT: note_off channel=8 note=58 velocity=127 time=0
EXTRACT: note_on channel=5 note=61 velocity=127 time=0.0020833333333333333
EXTRACT: note_on channel=9 note=37 velocity=127 time=0
EXTRACT: note_on channel=9 note=42 velocity=127 time=0
EXTRACT: note_on channel=9 note=28 velocity=52 time=0
EXTRACT: note_on channel=9 note=75 velocity=61 time=0
EXTRACT: note_on channel=9 note=62 velocity=127 time=0
EXTRACT: note_on channel=8 note=61 velocity=127 time=0
EXTRACT: note_off channel=9 note=75 velocity=61 time=0.11875
EXTRACT: note_off channel=9 note=28 velocity=52 time=0.07083333333333333
EXTRACT: note_off channel=9 note=37 velocity=127 time=0.03958333333333333
EXTRACT: note_off channel=9 note=42 velocity=127 time=0
EXTRACT: note_off channel=5 note=61 velocity=127 time=0.01875
EXTRACT: note_off channel=8 note=61 velocity=127 time=0
EXTRACT: note_on channel=5 note=58 velocity=127 time=0.0020833333333333333
EXTRACT: note_on channel=9 note=36 velocity=127 time=0
EXTRACT: note_on channel=9 note=35 velocity=127 time=0
EXTRACT: note_on channel=9 note=28 velocity=52 time=0
EXTRACT: note_on channel=9 note=38 velocity=67 time=0
EXTRACT: note_on channel=9 note=75 velocity=61 time=0
EXTRACT: note_on channel=8 note=58 velocity=127 time=0
EXTRACT: note_off channel=9 note=62 velocity=127 time=0.0010416666666666667
EXTRACT: note_off channel=9 note=75 velocity=61 time=0.11770833333333333
EXTRACT: note_off channel=9 note=28 velocity=52 time=0.07083333333333333
EXTRACT: note_off channel=9 note=38 velocity=67 time=0.034375
EXTRACT: note_off channel=9 note=36 velocity=127 time=0.005208333333333333
EXTRACT: note_off channel=9 note=35 velocity=127 time=0
EXTRACT: note_off channel=5 note=58 velocity=127 time=0.01875
EXTRACT: note_off channel=8 note=58 velocity=127 time=0
EXTRACT: note_on channel=5 note=65 velocity=127 time=0.0020833333333333333
EXTRACT: note_on channel=9 note=28 velocity=52 time=0
EXTRACT: note_on channel=8 note=65 velocity=127 time=0
EXTRACT: note_off channel=9 note=28 velocity=52 time=0.18958333333333333
EXTRACT: note_off channel=5 note=65 velocity=127 time=0.058333333333333334
EXTRACT: note_off channel=8 note=65 velocity=127 time=0
EXTRACT: note_on channel=5 note=63 velocity=127 time=0.0020833333333333333
EXTRACT: note_on channel=9 note=36 velocity=127 time=0
EXTRACT: note_on channel=9 note=35 velocity=127 time=0
EXTRACT: note_on channel=9 note=28 velocity=52 time=0
EXTRACT: note_on channel=9 note=43 velocity=43 time=0
EXTRACT: note_on channel=9 note=38 velocity=67 time=0
EXTRACT: note_on channel=9 note=75 velocity=56 time=0
EXTRACT: note_on channel=8 note=63 velocity=127 time=0
EXTRACT: note_off channel=9 note=43 velocity=43 time=0.096875
EXTRACT: note_off channel=9 note=75 velocity=56 time=0.021875
EXTRACT: note_on channel=9 note=41 velocity=43 time=0.00625
EXTRACT: note_off channel=9 note=28 velocity=52 time=0.06458333333333333
EXTRACT: note_off channel=9 note=41 velocity=43 time=0.03229166666666666
EXTRACT: note_off channel=9 note=38 velocity=67 time=0.0020833333333333333
EXTRACT: note_off channel=9 note=36 velocity=127 time=0.005208333333333333
EXTRACT: note_off channel=9 note=35 velocity=127 time=0
EXTRACT: note_off channel=5 note=63 velocity=127 time=0.01875
EXTRACT: note_off channel=8 note=63 velocity=127 time=0
EXTRACT: note_on channel=5 note=63 velocity=127 time=0.0020833333333333333
EXTRACT: note_on channel=9 note=37 velocity=127 time=0
EXTRACT: note_on channel=9 note=42 velocity=127 time=0
EXTRACT: note_on channel=9 note=28 velocity=52 time=0
EXTRACT: note_on channel=9 note=62 velocity=127 time=0
EXTRACT: note_on channel=8 note=63 velocity=127 time=0
EXTRACT: note_on channel=9 note=36 velocity=127 time=0.125
EXTRACT: note_on channel=9 note=35 velocity=127 time=0
EXTRACT: note_on channel=9 note=38 velocity=65 time=0
EXTRACT: note_off channel=9 note=28 velocity=52 time=0.06458333333333333
EXTRACT: note_off channel=9 note=37 velocity=127 time=0.03958333333333333
EXTRACT: note_off channel=9 note=42 velocity=127 time=0
EXTRACT: note_off channel=5 note=63 velocity=127 time=0.01875
EXTRACT: note_off channel=8 note=63 velocity=127 time=0
EXTRACT: note_on channel=5 note=61 velocity=127 time=0.0020833333333333333
EXTRACT: note_on channel=9 note=37 velocity=127 time=0
EXTRACT: note_on channel=9 note=42 velocity=127 time=0
EXTRACT: note_on channel=9 note=28 velocity=54 time=0
EXTRACT: note_on channel=9 note=75 velocity=60 time=0
EXTRACT: note_on channel=9 note=62 velocity=127 time=0
EXTRACT: note_on channel=8 note=61 velocity=127 time=0
EXTRACT: note_off channel=9 note=62 velocity=127 time=0.0010416666666666667
EXTRACT: note_off channel=9 note=38 velocity=65 time=0.09791666666666667
EXTRACT: note_off channel=9 note=36 velocity=127 time=0.005208333333333333
EXTRACT: note_off channel=9 note=35 velocity=127 time=0
EXTRACT: note_off channel=9 note=75 velocity=60 time=0.014583333333333334
EXTRACT: note_on channel=9 note=75 velocity=58 time=0.00625
EXTRACT: note_off channel=9 note=28 velocity=54 time=0.06458333333333333
EXTRACT: note_off channel=9 note=37 velocity=127 time=0.03958333333333333
EXTRACT: note_off channel=9 note=42 velocity=127 time=0
EXTRACT: note_off channel=9 note=75 velocity=58 time=0.014583333333333334
EXTRACT: note_off channel=5 note=61 velocity=127 time=0.004166666666666667
EXTRACT: note_off channel=8 note=61 velocity=127 time=0
EXTRACT: note_on channel=5 note=61 velocity=127 time=0.0020833333333333333
EXTRACT: note_on channel=9 note=36 velocity=127 time=0
EXTRACT: note_on channel=9 note=35 velocity=127 time=0
EXTRACT: note_on channel=9 note=28 velocity=54 time=0
EXTRACT: note_on channel=9 note=38 velocity=65 time=0
EXTRACT: note_on channel=9 note=75 velocity=61 time=0
EXTRACT: note_on channel=8 note=61 velocity=127 time=0
EXTRACT: note_off channel=9 note=62 velocity=127 time=0.0010416666666666667
EXTRACT: note_off channel=9 note=75 velocity=61 time=0.11770833333333333
EXTRACT: note_off channel=9 note=28 velocity=54 time=0.07083333333333333
EXTRACT: note_off channel=9 note=38 velocity=65 time=0.034375
EXTRACT: note_off channel=9 note=36 velocity=127 time=0.005208333333333333
EXTRACT: note_off channel=9 note=35 velocity=127 time=0
EXTRACT: note_off channel=5 note=61 velocity=127 time=0.01875
EXTRACT: note_off channel=8 note=61 velocity=127 time=0
EXTRACT: note_on channel=5 note=58 velocity=127 time=0.0020833333333333333
EXTRACT: note_on channel=9 note=28 velocity=56 time=0
EXTRACT: note_on channel=9 note=75 velocity=61 time=0
EXTRACT: note_on channel=8 note=58 velocity=127 time=0
EXTRACT: note_off channel=9 note=75 velocity=61 time=0.11875
EXTRACT: note_on channel=9 note=75 velocity=61 time=0.00625
EXTRACT: note_off channel=9 note=28 velocity=56 time=0.06458333333333333
EXTRACT: note_off channel=9 note=75 velocity=61 time=0.05416666666666667
EXTRACT: note_off channel=5 note=58 velocity=127 time=0.004166666666666667
EXTRACT: note_off channel=8 note=58 velocity=127 time=0
EXTRACT: note_on channel=5 note=61 velocity=127 time=0.0020833333333333333
EXTRACT: note_on channel=9 note=37 velocity=127 time=0
EXTRACT: note_on channel=9 note=42 velocity=127 time=0
EXTRACT: note_on channel=9 note=28 velocity=52 time=0
EXTRACT: note_on channel=9 note=75 velocity=61 time=0
EXTRACT: note_on channel=9 note=62 velocity=127 time=0
EXTRACT: note_on channel=8 note=61 velocity=127 time=0
EXTRACT: note_off channel=9 note=75 velocity=61 time=0.11875
EXTRACT: note_off channel=9 note=28 velocity=52 time=0.07083333333333333
EXTRACT: note_off channel=9 note=37 velocity=127 time=0.03958333333333333
EXTRACT: note_off channel=9 note=42 velocity=127 time=0
EXTRACT: note_off channel=5 note=61 velocity=127 time=0.01875
EXTRACT: note_off channel=8 note=61 velocity=127 time=0
EXTRACT: note_on channel=5 note=58 velocity=127 time=0.0020833333333333333
EXTRACT: note_on channel=9 note=36 velocity=127 time=0
EXTRACT: note_on channel=9 note=35 velocity=127 time=0
EXTRACT: note_on channel=9 note=28 velocity=52 time=0
EXTRACT: note_on channel=9 note=38 velocity=67 time=0
EXTRACT: note_on channel=9 note=75 velocity=61 time=0
EXTRACT: note_on channel=8 note=58 velocity=127 time=0
EXTRACT: note_off channel=9 note=62 velocity=127 time=0.0010416666666666667
EXTRACT: note_off channel=9 note=75 velocity=61 time=0.11770833333333333
EXTRACT: note_off channel=9 note=28 velocity=52 time=0.07083333333333333
EXTRACT: note_off channel=9 note=38 velocity=67 time=0.034375
EXTRACT: note_off channel=9 note=36 velocity=127 time=0.005208333333333333
EXTRACT: note_off channel=9 note=35 velocity=127 time=0
EXTRACT: note_off channel=5 note=58 velocity=127 time=0.01875
EXTRACT: note_off channel=8 note=58 velocity=127 time=0
EXTRACT: note_on channel=5 note=65 velocity=127 time=0.0020833333333333333
EXTRACT: note_on channel=9 note=28 velocity=52 time=0
EXTRACT: note_on channel=8 note=65 velocity=127 time=0
EXTRACT: note_off channel=9 note=28 velocity=52 time=0.18958333333333333
EXTRACT: note_off channel=5 note=65 velocity=127 time=0.058333333333333334
EXTRACT: note_off channel=8 note=65 velocity=127 time=0
EXTRACT: note_on channel=5 note=63 velocity=127 time=0.0020833333333333333
EXTRACT: note_on channel=9 note=36 velocity=127 time=0
EXTRACT: note_on channel=9 note=35 velocity=127 time=0
EXTRACT: note_on channel=9 note=28 velocity=52 time=0
EXTRACT: note_on channel=9 note=43 velocity=43 time=0
EXTRACT: note_on channel=9 note=38 velocity=67 time=0
EXTRACT: note_on channel=9 note=75 velocity=56 time=0
EXTRACT: note_on channel=8 note=63 velocity=127 time=0
EXTRACT: note_off channel=9 note=43 velocity=43 time=0.096875
EXTRACT: note_off channel=9 note=75 velocity=56 time=0.021875
EXTRACT: note_on channel=9 note=41 velocity=43 time=0.00625
EXTRACT: note_off channel=9 note=28 velocity=52 time=0.06458333333333333
EXTRACT: note_off channel=9 note=41 velocity=43 time=0.03229166666666666
EXTRACT: note_off channel=9 note=38 velocity=67 time=0.0020833333333333333
EXTRACT: note_off channel=9 note=36 velocity=127 time=0.005208333333333333
EXTRACT: note_off channel=9 note=35 velocity=127 time=0
EXTRACT: note_off channel=5 note=63 velocity=127 time=0.01875
EXTRACT: note_off channel=8 note=63 velocity=127 time=0
EXTRACT: note_on channel=5 note=63 velocity=127 time=0.0020833333333333333
EXTRACT: note_on channel=9 note=37 velocity=127 time=0
EXTRACT: note_on channel=9 note=42 velocity=127 time=0
EXTRACT: note_on channel=9 note=28 velocity=52 time=0
EXTRACT: note_on channel=9 note=62 velocity=127 time=0
EXTRACT: note_on channel=8 note=63 velocity=127 time=0
EXTRACT: note_on channel=9 note=36 velocity=127 time=0.125
EXTRACT: note_on channel=9 note=35 velocity=127 time=0
EXTRACT: note_on channel=9 note=38 velocity=65 time=0
EXTRACT: note_off channel=9 note=28 velocity=52 time=0.06458333333333333
EXTRACT: note_off channel=9 note=37 velocity=127 time=0.03958333333333333
EXTRACT: note_off channel=9 note=42 velocity=127 time=0
EXTRACT: note_off channel=5 note=63 velocity=127 time=0.01875
EXTRACT: note_off channel=8 note=63 velocity=127 time=0
EXTRACT: note_on channel=5 note=61 velocity=127 time=0.0020833333333333333
EXTRACT: note_on channel=9 note=37 velocity=127 time=0
EXTRACT: note_on channel=9 note=42 velocity=127 time=0
EXTRACT: note_on channel=9 note=28 velocity=54 time=0
EXTRACT: note_on channel=9 note=75 velocity=60 time=0
EXTRACT: note_on channel=9 note=62 velocity=127 time=0
EXTRACT: note_on channel=8 note=61 velocity=127 time=0
EXTRACT: note_off channel=9 note=62 velocity=127 time=0.0010416666666666667
EXTRACT: note_off channel=9 note=38 velocity=65 time=0.09791666666666667
EXTRACT: note_off channel=9 note=36 velocity=127 time=0.005208333333333333
EXTRACT: note_off channel=9 note=35 velocity=127 time=0
EXTRACT: note_off channel=9 note=75 velocity=60 time=0.014583333333333334
EXTRACT: note_on channel=9 note=75 velocity=58 time=0.00625
EXTRACT: note_off channel=9 note=28 velocity=54 time=0.06458333333333333
EXTRACT: note_off channel=9 note=37 velocity=127 time=0.03958333333333333
EXTRACT: note_off channel=9 note=42 velocity=127 time=0
EXTRACT: note_off channel=9 note=75 velocity=58 time=0.014583333333333334
EXTRACT: note_off channel=5 note=61 velocity=127 time=0.004166666666666667
EXTRACT: note_off channel=8 note=61 velocity=127 time=0
EXTRACT: note_on channel=3 note=30 velocity=127 time=0.0020833333333333333
EXTRACT: note_on channel=4 note=30 velocity=127 time=0
EXTRACT: note_on channel=4 note=42 velocity=127 time=0
EXTRACT: note_on channel=6 note=66 velocity=127 time=0
EXTRACT: note_on channel=6 note=70 velocity=127 time=0
EXTRACT: note_on channel=6 note=73 velocity=127 time=0
EXTRACT: note_on channel=6 note=77 velocity=127 time=0
EXTRACT: note_on channel=9 note=36 velocity=127 time=0
EXTRACT: note_on channel=9 note=35 velocity=127 time=0
EXTRACT: note_on channel=9 note=28 velocity=54 time=0
EXTRACT: note_on channel=9 note=38 velocity=65 time=0
EXTRACT: note_on channel=9 note=75 velocity=61 time=0
EXTRACT: note_on channel=10 note=77 velocity=127 time=0
EXTRACT: note_on channel=10 note=73 velocity=127 time=0
EXTRACT: note_on channel=10 note=70 velocity=127 time=0
EXTRACT: note_on channel=10 note=66 velocity=127 time=0
EXTRACT: note_off channel=9 note=62 velocity=127 time=0.0010416666666666667
EXTRACT: note_off channel=9 note=75 velocity=61 time=0.11770833333333333
EXTRACT: note_off channel=9 note=28 velocity=54 time=0.07083333333333333
EXTRACT: note_off channel=9 note=38 velocity=65 time=0.034375
EXTRACT: note_off channel=9 note=36 velocity=127 time=0.005208333333333333
EXTRACT: note_off channel=9 note=35 velocity=127 time=0
EXTRACT: note_on channel=9 note=28 velocity=56 time=0.020833333333333332
EXTRACT: note_on channel=9 note=75 velocity=61 time=0
EXTRACT: note_off channel=9 note=75 velocity=61 time=0.11875
EXTRACT: note_on channel=9 note=75 velocity=61 time=0.00625
EXTRACT: note_off channel=9 note=28 velocity=56 time=0.06458333333333333
EXTRACT: note_off channel=9 note=75 velocity=61 time=0.05416666666666667
EXTRACT: note_on channel=9 note=37 velocity=127 time=0.00625
EXTRACT: note_on channel=9 note=42 velocity=127 time=0
EXTRACT: note_on channel=9 note=28 velocity=52 time=0
EXTRACT: note_on channel=9 note=75 velocity=61 time=0
EXTRACT: note_on channel=9 note=62 velocity=127 time=0
EXTRACT: note_off channel=9 note=75 velocity=61 time=0.11875
EXTRACT: note_off channel=9 note=28 velocity=52 time=0.07083333333333333
EXTRACT: note_off channel=9 note=37 velocity=127 time=0.03958333333333333
EXTRACT: note_off channel=9 note=42 velocity=127 time=0
EXTRACT: note_on channel=1 note=46 velocity=127 time=0.020833333333333332
EXTRACT: note_on channel=1 note=58 velocity=127 time=0
EXTRACT: note_on channel=9 note=36 velocity=127 time=0
EXTRACT: note_on channel=9 note=35 velocity=127 time=0
EXTRACT: note_on channel=9 note=28 velocity=52 time=0
EXTRACT: note_on channel=9 note=38 velocity=67 time=0
EXTRACT: note_on channel=9 note=75 velocity=61 time=0
EXTRACT: note_off channel=9 note=62 velocity=127 time=0.0010416666666666667
EXTRACT: note_off channel=9 note=75 velocity=61 time=0.11770833333333333
EXTRACT: note_off channel=9 note=28 velocity=52 time=0.07083333333333333
EXTRACT: note_off channel=9 note=38 velocity=67 time=0.034375
EXTRACT: note_off channel=9 note=36 velocity=127 time=0.005208333333333333
EXTRACT: note_off channel=9 note=35 velocity=127 time=0
EXTRACT: note_off channel=1 note=46 velocity=127 time=0.01875
EXTRACT: note_off channel=1 note=58 velocity=127 time=0
EXTRACT: note_on channel=1 note=49 velocity=127 time=0.0020833333333333333
EXTRACT: note_on channel=1 note=61 velocity=127 time=0
EXTRACT: note_on channel=9 note=28 velocity=52 time=0
EXTRACT: note_off channel=9 note=28 velocity=52 time=0.18958333333333333
EXTRACT: note_off channel=1 note=49 velocity=127 time=0.058333333333333334
EXTRACT: note_off channel=1 note=61 velocity=127 time=0
EXTRACT: note_on channel=1 note=46 velocity=127 time=0.0020833333333333333
EXTRACT: note_on channel=1 note=58 velocity=127 time=0
EXTRACT: note_on channel=9 note=36 velocity=127 time=0
EXTRACT: note_on channel=9 note=35 velocity=127 time=0
EXTRACT: note_on channel=9 note=28 velocity=52 time=0
EXTRACT: note_on channel=9 note=43 velocity=43 time=0
EXTRACT: note_on channel=9 note=38 velocity=67 time=0
EXTRACT: note_on channel=9 note=75 velocity=56 time=0
EXTRACT: note_off channel=9 note=43 velocity=43 time=0.096875
EXTRACT: note_off channel=9 note=75 velocity=56 time=0.021875
EXTRACT: note_on channel=9 note=41 velocity=43 time=0.00625
EXTRACT: note_off channel=9 note=28 velocity=52 time=0.06458333333333333
EXTRACT: note_off channel=9 note=41 velocity=43 time=0.03229166666666666
EXTRACT: note_off channel=9 note=38 velocity=67 time=0.0020833333333333333
EXTRACT: note_off channel=9 note=36 velocity=127 time=0.005208333333333333
EXTRACT: note_off channel=9 note=35 velocity=127 time=0
EXTRACT: note_off channel=1 note=46 velocity=127 time=0.01875
EXTRACT: note_off channel=1 note=58 velocity=127 time=0
EXTRACT: note_off channel=3 note=30 velocity=127 time=0
EXTRACT: note_off channel=4 note=30 velocity=127 time=0
EXTRACT: note_off channel=4 note=42 velocity=127 time=0
EXTRACT: note_on channel=1 note=46 velocity=127 time=0.0020833333333333333
EXTRACT: note_on channel=1 note=58 velocity=127 time=0
EXTRACT: note_on channel=9 note=37 velocity=127 time=0
EXTRACT: note_on channel=9 note=42 velocity=127 time=0
EXTRACT: note_on channel=9 note=28 velocity=52 time=0
EXTRACT: note_on channel=9 note=62 velocity=127 time=0
EXTRACT: note_on channel=9 note=36 velocity=127 time=0.125
EXTRACT: note_on channel=9 note=35 velocity=127 time=0
EXTRACT: note_on channel=9 note=38 velocity=65 time=0
EXTRACT: note_off channel=9 note=28 velocity=52 time=0.06458333333333333
EXTRACT: note_off channel=9 note=37 velocity=127 time=0.03958333333333333
EXTRACT: note_off channel=9 note=42 velocity=127 time=0
EXTRACT: note_off channel=1 note=46 velocity=127 time=0.01875
EXTRACT: note_off channel=1 note=58 velocity=127 time=0
EXTRACT: note_on channel=1 note=46 velocity=127 time=0.0020833333333333333
EXTRACT: note_on channel=1 note=58 velocity=127 time=0
EXTRACT: note_on channel=3 note=30 velocity=97 time=0
EXTRACT: note_on channel=4 note=30 velocity=97 time=0
EXTRACT: note_on channel=4 note=42 velocity=97 time=0
EXTRACT: note_on channel=9 note=37 velocity=127 time=0
EXTRACT: note_on channel=9 note=42 velocity=127 time=0
EXTRACT: note_on channel=9 note=28 velocity=54 time=0
EXTRACT: note_on channel=9 note=75 velocity=60 time=0
EXTRACT: note_on channel=9 note=62 velocity=127 time=0
EXTRACT: note_off channel=9 note=62 velocity=127 time=0.0010416666666666667
EXTRACT: note_off channel=9 note=38 velocity=65 time=0.09791666666666667
EXTRACT: note_off channel=9 note=36 velocity=127 time=0.005208333333333333
EXTRACT: note_off channel=9 note=35 velocity=127 time=0
EXTRACT: note_off channel=9 note=75 velocity=60 time=0.014583333333333334
EXTRACT: note_off channel=3 note=30 velocity=97 time=0.004166666666666667
EXTRACT: note_off channel=4 note=30 velocity=97 time=0
EXTRACT: note_off channel=4 note=42 velocity=97 time=0
EXTRACT: note_on channel=3 note=32 velocity=97 time=0.0020833333333333333
EXTRACT: note_on channel=4 note=32 velocity=97 time=0
EXTRACT: note_on channel=4 note=44 velocity=97 time=0
EXTRACT: note_on channel=9 note=75 velocity=58 time=0
EXTRACT: note_off channel=9 note=28 velocity=54 time=0.06458333333333333
EXTRACT: note_off channel=9 note=37 velocity=127 time=0.03958333333333333
EXTRACT: note_off channel=9 note=42 velocity=127 time=0
EXTRACT: note_off channel=9 note=75 velocity=58 time=0.014583333333333334
EXTRACT: note_off channel=1 note=46 velocity=127 time=0.004166666666666667
EXTRACT: note_off channel=1 note=58 velocity=127 time=0
EXTRACT: note_off channel=3 note=32 velocity=97 time=0
EXTRACT: note_off channel=4 note=32 velocity=97 time=0
EXTRACT: note_off channel=4 note=44 velocity=97 time=0
EXTRACT: note_off channel=6 note=66 velocity=127 time=0
EXTRACT: note_off channel=6 note=70 velocity=127 time=0
EXTRACT: note_off channel=6 note=73 velocity=127 time=0
EXTRACT: note_off channel=6 note=77 velocity=127 time=0
EXTRACT: note_off channel=10 note=77 velocity=127 time=0
EXTRACT: note_off channel=10 note=73 velocity=127 time=0
EXTRACT: note_off channel=10 note=70 velocity=127 time=0
EXTRACT: note_off channel=10 note=66 velocity=127 time=0
EXTRACT: note_on channel=1 note=56 velocity=127 time=0.0020833333333333333
EXTRACT: note_on channel=1 note=44 velocity=127 time=0
EXTRACT: note_on channel=3 note=27 velocity=127 time=0
EXTRACT: note_on channel=4 note=27 velocity=127 time=0
EXTRACT: note_on channel=4 note=39 velocity=127 time=0
EXTRACT: note_on channel=6 note=63 velocity=97 time=0
EXTRACT: note_on channel=6 note=66 velocity=97 time=0
EXTRACT: note_on channel=6 note=70 velocity=97 time=0
EXTRACT: note_on channel=9 note=28 velocity=54 time=0
EXTRACT: note_on channel=9 note=35 velocity=127 time=0
EXTRACT: note_on channel=9 note=36 velocity=127 time=0
EXTRACT: note_on channel=9 note=38 velocity=65 time=0
EXTRACT: note_on channel=9 note=75 velocity=61 time=0
EXTRACT: note_on channel=10 note=70 velocity=97 time=0
EXTRACT: note_on channel=10 note=66 velocity=97 time=0
EXTRACT: note_on channel=10 note=63 velocity=97 time=0
EXTRACT: note_off channel=9 note=62 velocity=127 time=0.0010416666666666667
EXTRACT: note_off channel=9 note=75 velocity=61 time=0.11770833333333333
EXTRACT: note_off channel=9 note=28 velocity=54 time=0.07083333333333333
EXTRACT: note_off channel=9 note=38 velocity=65 time=0.034375
EXTRACT: note_off channel=9 note=35 velocity=127 time=0.005208333333333333
EXTRACT: note_off channel=9 note=36 velocity=127 time=0
EXTRACT: note_on channel=1 note=46 velocity=71 time=0.020833333333333332
EXTRACT: note_on channel=1 note=58 velocity=71 time=0
EXTRACT: note_on channel=9 note=28 velocity=56 time=0
EXTRACT: note_on channel=9 note=75 velocity=61 time=0
EXTRACT: note_off channel=9 note=75 velocity=61 time=0.11875
EXTRACT: note_on channel=9 note=75 velocity=61 time=0.00625
EXTRACT: note_off channel=9 note=28 velocity=56 time=0.06458333333333333
EXTRACT: note_off channel=1 note=56 velocity=127 time=0.04791666666666666
EXTRACT: note_off channel=9 note=75 velocity=61 time=0.00625
EXTRACT: note_off channel=1 note=46 velocity=71 time=0.004166666666666667
EXTRACT: note_off channel=1 note=58 velocity=71 time=0
EXTRACT: note_on channel=1 note=44 velocity=71 time=0.0020833333333333333
EXTRACT: note_on channel=1 note=56 velocity=71 time=0
EXTRACT: note_on channel=9 note=28 velocity=52 time=0
EXTRACT: note_on channel=9 note=42 velocity=127 time=0
EXTRACT: note_on channel=9 note=37 velocity=127 time=0
EXTRACT: note_on channel=9 note=62 velocity=127 time=0
EXTRACT: note_on channel=9 note=75 velocity=61 time=0
EXTRACT: note_off channel=1 note=44 velocity=127 time=0.019791666666666666
EXTRACT: note_off channel=9 note=75 velocity=61 time=0.09895833333333333
EXTRACT: note_off channel=9 note=28 velocity=52 time=0.07083333333333333
EXTRACT: note_off channel=9 note=42 velocity=127 time=0.03958333333333333
EXTRACT: note_off channel=9 note=37 velocity=127 time=0
EXTRACT: note_on channel=1 note=46 velocity=127 time=0.020833333333333332
EXTRACT: note_on channel=1 note=58 velocity=127 time=0
EXTRACT: note_on channel=9 note=28 velocity=52 time=0
EXTRACT: note_on channel=9 note=35 velocity=127 time=0
EXTRACT: note_on channel=9 note=36 velocity=127 time=0
EXTRACT: note_on channel=9 note=38 velocity=67 time=0
EXTRACT: note_on channel=9 note=75 velocity=61 time=0
EXTRACT: note_off channel=9 note=62 velocity=127 time=0.0010416666666666667
EXTRACT: note_off channel=9 note=75 velocity=61 time=0.11770833333333333
EXTRACT: note_off channel=9 note=28 velocity=52 time=0.07083333333333333
EXTRACT: note_off channel=9 note=38 velocity=67 time=0.034375
EXTRACT: note_off channel=9 note=35 velocity=127 time=0.005208333333333333
EXTRACT: note_off channel=9 note=36 velocity=127 time=0
EXTRACT: note_off channel=1 note=46 velocity=127 time=0.01875
EXTRACT: note_off channel=1 note=58 velocity=127 time=0
EXTRACT: note_on channel=1 note=49 velocity=127 time=0.0020833333333333333
EXTRACT: note_on channel=1 note=61 velocity=127 time=0
EXTRACT: note_on channel=9 note=28 velocity=52 time=0
EXTRACT: note_off channel=1 note=44 velocity=71 time=0.019791666666666666
EXTRACT: note_off channel=1 note=56 velocity=71 time=0
EXTRACT: note_off channel=9 note=28 velocity=52 time=0.16979166666666667
EXTRACT: note_off channel=1 note=49 velocity=127 time=0.058333333333333334
EXTRACT: note_off channel=1 note=61 velocity=127 time=0
EXTRACT: note_on channel=1 note=46 velocity=127 time=0.0020833333333333333
EXTRACT: note_on channel=1 note=58 velocity=127 time=0
EXTRACT: note_on channel=9 note=43 velocity=43 time=0
EXTRACT: note_on channel=9 note=28 velocity=52 time=0
EXTRACT: note_on channel=9 note=35 velocity=127 time=0
EXTRACT: note_on channel=9 note=36 velocity=127 time=0
EXTRACT: note_on channel=9 note=38 velocity=67 time=0
EXTRACT: note_on channel=9 note=75 velocity=56 time=0
EXTRACT: note_off channel=9 note=43 velocity=43 time=0.096875
EXTRACT: note_off channel=9 note=75 velocity=56 time=0.021875
EXTRACT: note_on channel=9 note=41 velocity=43 time=0.00625
EXTRACT: note_off channel=9 note=28 velocity=52 time=0.06458333333333333
EXTRACT: note_off channel=9 note=41 velocity=43 time=0.03229166666666666
EXTRACT: note_off channel=9 note=38 velocity=67 time=0.0020833333333333333
EXTRACT: note_off channel=9 note=35 velocity=127 time=0.005208333333333333
EXTRACT: note_off channel=9 note=36 velocity=127 time=0
EXTRACT: note_off channel=1 note=46 velocity=127 time=0.01875
EXTRACT: note_off channel=1 note=58 velocity=127 time=0
EXTRACT: note_on channel=1 note=46 velocity=127 time=0.0020833333333333333
EXTRACT: note_on channel=1 note=58 velocity=127 time=0
EXTRACT: note_on channel=9 note=28 velocity=52 time=0
EXTRACT: note_on channel=9 note=42 velocity=127 time=0
EXTRACT: note_on channel=9 note=37 velocity=127 time=0
EXTRACT: note_on channel=9 note=62 velocity=127 time=0
EXTRACT: note_on channel=9 note=35 velocity=127 time=0.125
EXTRACT: note_on channel=9 note=36 velocity=127 time=0
EXTRACT: note_on channel=9 note=38 velocity=65 time=0
EXTRACT: note_off channel=9 note=28 velocity=52 time=0.06458333333333333
EXTRACT: note_off channel=9 note=42 velocity=127 time=0.03958333333333333
EXTRACT: note_off channel=9 note=37 velocity=127 time=0
EXTRACT: note_off channel=1 note=46 velocity=127 time=0.01875
EXTRACT: note_off channel=1 note=58 velocity=127 time=0
EXTRACT: note_on channel=1 note=46 velocity=127 time=0.0020833333333333333
EXTRACT: note_on channel=1 note=58 velocity=127 time=0
EXTRACT: note_on channel=9 note=28 velocity=54 time=0
EXTRACT: note_on channel=9 note=42 velocity=127 time=0
EXTRACT: note_on channel=9 note=37 velocity=127 time=0
EXTRACT: note_on channel=9 note=62 velocity=127 time=0
EXTRACT: note_on channel=9 note=75 velocity=60 time=0
EXTRACT: note_off channel=9 note=62 velocity=127 time=0.0010416666666666667
EXTRACT: note_off channel=9 note=38 velocity=65 time=0.09791666666666667
EXTRACT: note_off channel=9 note=35 velocity=127 time=0.005208333333333333
EXTRACT: note_off channel=9 note=36 velocity=127 time=0
EXTRACT: note_off channel=9 note=75 velocity=60 time=0.014583333333333334
EXTRACT: note_on channel=9 note=75 velocity=58 time=0.00625
EXTRACT: note_off channel=9 note=28 velocity=54 time=0.06458333333333333
EXTRACT: note_off channel=9 note=42 velocity=127 time=0.03958333333333333
EXTRACT: note_off channel=9 note=37 velocity=127 time=0
EXTRACT: note_off channel=9 note=75 velocity=58 time=0.014583333333333334
EXTRACT: note_off channel=1 note=46 velocity=127 time=0.004166666666666667
EXTRACT: note_off channel=1 note=58 velocity=127 time=0
EXTRACT: note_off channel=6 note=63 velocity=97 time=0
EXTRACT: note_off channel=6 note=66 velocity=97 time=0
EXTRACT: note_off channel=6 note=70 velocity=97 time=0
EXTRACT: note_off channel=10 note=70 velocity=97 time=0
EXTRACT: note_off channel=10 note=66 velocity=97 time=0
EXTRACT: note_off channel=10 note=63 velocity=97 time=0
EXTRACT: note_on channel=1 note=44 velocity=127 time=0.0020833333333333333
EXTRACT: note_on channel=1 note=56 velocity=127 time=0
EXTRACT: note_on channel=3 note=34 velocity=127 time=0
EXTRACT: note_on channel=4 note=34 velocity=127 time=0
EXTRACT: note_on channel=4 note=46 velocity=127 time=0
EXTRACT: note_on channel=6 note=78 velocity=127 time=0
EXTRACT: note_on channel=9 note=28 velocity=54 time=0
EXTRACT: note_on channel=9 note=35 velocity=127 time=0
EXTRACT: note_on channel=9 note=36 velocity=127 time=0
EXTRACT: note_on channel=9 note=38 velocity=65 time=0
EXTRACT: note_on channel=9 note=75 velocity=61 time=0
EXTRACT: note_on channel=10 note=78 velocity=127 time=0
EXTRACT: note_off channel=9 note=62 velocity=127 time=0.0010416666666666667
EXTRACT: note_off channel=3 note=27 velocity=127 time=0.0125
EXTRACT: note_off channel=4 note=27 velocity=127 time=0
EXTRACT: note_off channel=4 note=39 velocity=127 time=0
EXTRACT: note_off channel=9 note=75 velocity=61 time=0.10520833333333333
EXTRACT: note_off channel=9 note=28 velocity=54 time=0.07083333333333333
EXTRACT: note_off channel=9 note=38 velocity=65 time=0.034375
EXTRACT: note_off channel=9 note=35 velocity=127 time=0.005208333333333333
EXTRACT: note_off channel=9 note=36 velocity=127 time=0
EXTRACT: note_on channel=1 note=46 velocity=85 time=0.020833333333333332
EXTRACT: note_on channel=1 note=58 velocity=85 time=0
EXTRACT: note_on channel=9 note=28 velocity=56 time=0
EXTRACT: note_on channel=9 note=75 velocity=61 time=0
EXTRACT: note_off channel=9 note=75 velocity=61 time=0.11875
EXTRACT: note_on channel=9 note=75 velocity=61 time=0.00625
EXTRACT: note_off channel=9 note=28 velocity=56 time=0.06458333333333333
EXTRACT: note_off channel=1 note=44 velocity=127 time=0.026041666666666668
EXTRACT: note_off channel=1 note=56 velocity=127 time=0
EXTRACT: note_off channel=9 note=75 velocity=61 time=0.028125
EXTRACT: note_off channel=1 note=46 velocity=85 time=0.004166666666666667
EXTRACT: note_off channel=1 note=58 velocity=85 time=0
EXTRACT: note_off channel=6 note=78 velocity=127 time=0
EXTRACT: note_off channel=10 note=78 velocity=127 time=0
EXTRACT: note_on channel=1 note=44 velocity=80 time=0.0020833333333333333
EXTRACT: note_on channel=1 note=56 velocity=80 time=0
EXTRACT: note_on channel=6 note=70 velocity=127 time=0
EXTRACT: note_on channel=6 note=73 velocity=127 time=0
EXTRACT: note_on channel=6 note=77 velocity=127 time=0
EXTRACT: note_on channel=9 note=28 velocity=52 time=0
EXTRACT: note_on channel=9 note=42 velocity=127 time=0
EXTRACT: note_on channel=9 note=37 velocity=127 time=0
EXTRACT: note_on channel=9 note=62 velocity=127 time=0
EXTRACT: note_on channel=9 note=75 velocity=61 time=0
EXTRACT: note_on channel=10 note=77 velocity=127 time=0
EXTRACT: note_on channel=10 note=73 velocity=127 time=0
EXTRACT: note_on channel=10 note=70 velocity=127 time=0
EXTRACT: note_off channel=9 note=75 velocity=61 time=0.11875
EXTRACT: note_off channel=9 note=28 velocity=52 time=0.07083333333333333
EXTRACT: note_off channel=9 note=42 velocity=127 time=0.03958333333333333
EXTRACT: note_off channel=9 note=37 velocity=127 time=0
EXTRACT: note_on channel=1 note=46 velocity=127 time=0.020833333333333332
EXTRACT: note_on channel=1 note=58 velocity=127 time=0
EXTRACT: note_on channel=9 note=28 velocity=52 time=0
EXTRACT: note_on channel=9 note=35 velocity=127 time=0
EXTRACT: note_on channel=9 note=36 velocity=127 time=0
EXTRACT: note_on channel=9 note=38 velocity=67 time=0
EXTRACT: note_on channel=9 note=75 velocity=61 time=0
EXTRACT: note_off channel=9 note=62 velocity=127 time=0.0010416666666666667
EXTRACT: note_off channel=9 note=75 velocity=61 time=0.11770833333333333
EXTRACT: note_off channel=9 note=28 velocity=52 time=0.07083333333333333
EXTRACT: note_off channel=9 note=38 velocity=67 time=0.034375
EXTRACT: note_off channel=9 note=35 velocity=127 time=0.005208333333333333
EXTRACT: note_off channel=9 note=36 velocity=127 time=0
EXTRACT: note_off channel=1 note=46 velocity=127 time=0.01875
EXTRACT: note_off channel=1 note=58 velocity=127 time=0
EXTRACT: note_on channel=1 note=49 velocity=127 time=0.0020833333333333333
EXTRACT: note_on channel=1 note=61 velocity=127 time=0
EXTRACT: note_on channel=9 note=28 velocity=52 time=0
EXTRACT: note_off channel=1 note=44 velocity=80 time=0.019791666666666666
EXTRACT: note_off channel=1 note=56 velocity=80 time=0
EXTRACT: note_off channel=9 note=28 velocity=52 time=0.16979166666666667
EXTRACT: note_on channel=9 note=43 velocity=43 time=0.06041666666666667
EXTRACT: note_on channel=9 note=28 velocity=52 time=0
EXTRACT: note_on channel=9 note=35 velocity=127 time=0
EXTRACT: note_on channel=9 note=36 velocity=127 time=0
EXTRACT: note_on channel=9 note=38 velocity=67 time=0
EXTRACT: note_on channel=9 note=75 velocity=56 time=0
EXTRACT: note_off channel=9 note=43 velocity=43 time=0.096875
EXTRACT: note_off channel=9 note=75 velocity=56 time=0.021875
EXTRACT: note_on channel=9 note=41 velocity=43 time=0.00625
EXTRACT: note_off channel=9 note=28 velocity=52 time=0.06458333333333333
EXTRACT: note_off channel=9 note=41 velocity=43 time=0.03229166666666666
EXTRACT: note_off channel=9 note=38 velocity=67 time=0.0020833333333333333
EXTRACT: note_off channel=9 note=35 velocity=127 time=0.005208333333333333
EXTRACT: note_off channel=9 note=36 velocity=127 time=0
EXTRACT: note_off channel=1 note=49 velocity=127 time=0.01875
EXTRACT: note_off channel=1 note=61 velocity=127 time=0
EXTRACT: note_off channel=3 note=34 velocity=127 time=0
EXTRACT: note_off channel=4 note=34 velocity=127 time=0
EXTRACT: note_off channel=4 note=46 velocity=127 time=0
EXTRACT: note_off channel=6 note=70 velocity=127 time=0
EXTRACT: note_off channel=6 note=73 velocity=127 time=0
EXTRACT: note_off channel=6 note=77 velocity=127 time=0
EXTRACT: note_off channel=10 note=77 velocity=127 time=0
EXTRACT: note_off channel=10 note=73 velocity=127 time=0
EXTRACT: note_off channel=10 note=70 velocity=127 time=0
EXTRACT: note_on channel=1 note=46 velocity=127 time=0.0020833333333333333
EXTRACT: note_on channel=1 note=58 velocity=127 time=0
EXTRACT: note_on channel=6 note=73 velocity=127 time=0
EXTRACT: note_on channel=9 note=28 velocity=52 time=0
EXTRACT: note_on channel=9 note=42 velocity=127 time=0
EXTRACT: note_on channel=9 note=37 velocity=127 time=0
EXTRACT: note_on channel=9 note=62 velocity=127 time=0
EXTRACT: note_on channel=10 note=73 velocity=127 time=0
EXTRACT: note_on channel=9 note=35 velocity=127 time=0.125
EXTRACT: note_on channel=9 note=36 velocity=127 time=0
EXTRACT: note_on channel=9 note=38 velocity=65 time=0
EXTRACT: note_off channel=9 note=28 velocity=52 time=0.06458333333333333
EXTRACT: note_off channel=9 note=42 velocity=127 time=0.03958333333333333
EXTRACT: note_off channel=9 note=37 velocity=127 time=0
EXTRACT: note_off channel=1 note=46 velocity=127 time=0.01875
EXTRACT: note_off channel=1 note=58 velocity=127 time=0
EXTRACT: note_on channel=1 note=46 velocity=127 time=0.0020833333333333333
EXTRACT: note_on channel=1 note=58 velocity=127 time=0
EXTRACT: note_on channel=3 note=36 velocity=97 time=0
EXTRACT: note_on channel=4 note=36 velocity=97 time=0
EXTRACT: note_on channel=4 note=48 velocity=97 time=0
EXTRACT: note_on channel=9 note=28 velocity=54 time=0
EXTRACT: note_on channel=9 note=42 velocity=127 time=0
EXTRACT: note_on channel=9 note=37 velocity=127 time=0
EXTRACT: note_on channel=9 note=62 velocity=127 time=0
EXTRACT: note_on channel=9 note=75 velocity=60 time=0
EXTRACT: note_off channel=9 note=62 velocity=127 time=0.0010416666666666667
EXTRACT: note_off channel=9 note=38 velocity=65 time=0.09791666666666667
EXTRACT: note_off channel=9 note=35 velocity=127 time=0.005208333333333333
EXTRACT: note_off channel=9 note=36 velocity=127 time=0
EXTRACT: note_off channel=9 note=75 velocity=60 time=0.014583333333333334
EXTRACT: note_off channel=3 note=36 velocity=97 time=0.004166666666666667
EXTRACT: note_off channel=4 note=36 velocity=97 time=0
EXTRACT: note_off channel=4 note=48 velocity=97 time=0
EXTRACT: note_on channel=3 note=37 velocity=97 time=0.0020833333333333333
EXTRACT: note_on channel=4 note=37 velocity=97 time=0
EXTRACT: note_on channel=4 note=49 velocity=97 time=0
EXTRACT: note_on channel=9 note=75 velocity=58 time=0
EXTRACT: note_off channel=9 note=28 velocity=54 time=0.06458333333333333
EXTRACT: note_off channel=9 note=42 velocity=127 time=0.03958333333333333
EXTRACT: note_off channel=9 note=37 velocity=127 time=0
EXTRACT: note_off channel=9 note=75 velocity=58 time=0.014583333333333334
EXTRACT: note_off channel=1 note=46 velocity=127 time=0.004166666666666667
EXTRACT: note_off channel=1 note=58 velocity=127 time=0
EXTRACT: note_off channel=3 note=37 velocity=97 time=0
EXTRACT: note_off channel=4 note=37 velocity=97 time=0
EXTRACT: note_off channel=4 note=49 velocity=97 time=0
EXTRACT: note_off channel=6 note=73 velocity=127 time=0
EXTRACT: note_off channel=10 note=73 velocity=127 time=0
EXTRACT: note_on channel=1 note=56 velocity=127 time=0.0020833333333333333
EXTRACT: note_on channel=1 note=44 velocity=127 time=0
EXTRACT: note_on channel=3 note=30 velocity=127 time=0
EXTRACT: note_on channel=4 note=30 velocity=127 time=0
EXTRACT: note_on channel=4 note=42 velocity=127 time=0
EXTRACT: note_on channel=6 note=66 velocity=97 time=0
EXTRACT: note_on channel=6 note=70 velocity=97 time=0
EXTRACT: note_on channel=6 note=73 velocity=97 time=0
EXTRACT: note_on channel=9 note=28 velocity=54 time=0
EXTRACT: note_on channel=9 note=35 velocity=127 time=0
EXTRACT: note_on channel=9 note=36 velocity=127 time=0
EXTRACT: note_on channel=9 note=38 velocity=65 time=0
EXTRACT: note_on channel=9 note=75 velocity=61 time=0
EXTRACT: note_on channel=10 note=73 velocity=97 time=0
EXTRACT: note_on channel=10 note=70 velocity=97 time=0
EXTRACT: note_on channel=10 note=66 velocity=97 time=0
EXTRACT: note_off channel=9 note=62 velocity=127 time=0.0010416666666666667
EXTRACT: note_off channel=9 note=75 velocity=61 time=0.11770833333333333
EXTRACT: note_off channel=9 note=28 velocity=54 time=0.07083333333333333
EXTRACT: note_off channel=9 note=38 velocity=65 time=0.034375
EXTRACT: note_off channel=9 note=35 velocity=127 time=0.005208333333333333
EXTRACT: note_off channel=9 note=36 velocity=127 time=0
EXTRACT: note_on channel=1 note=46 velocity=80 time=0.020833333333333332
EXTRACT: note_on channel=1 note=58 velocity=80 time=0
EXTRACT: note_on channel=9 note=28 velocity=56 time=0
EXTRACT: note_on channel=9 note=75 velocity=61 time=0
EXTRACT: note_off channel=9 note=75 velocity=61 time=0.11875
EXTRACT: note_on channel=9 note=75 velocity=61 time=0.00625
EXTRACT: note_off channel=1 note=56 velocity=127 time=0.0625
EXTRACT: note_off channel=9 note=28 velocity=56 time=0.0020833333333333333
EXTRACT: note_off channel=9 note=75 velocity=61 time=0.05416666666666667
EXTRACT: note_off channel=1 note=46 velocity=80 time=0.004166666666666667
EXTRACT: note_off channel=1 note=58 velocity=80 time=0
EXTRACT: note_on channel=1 note=44 velocity=58 time=0.0020833333333333333
EXTRACT: note_on channel=1 note=56 velocity=58 time=0
EXTRACT: note_on channel=1 note=46 velocity=127 time=0
EXTRACT: note_on channel=1 note=58 velocity=127 time=0
EXTRACT: note_on channel=9 note=28 velocity=52 time=0
EXTRACT: note_on channel=9 note=42 velocity=127 time=0
EXTRACT: note_on channel=9 note=37 velocity=127 time=0
EXTRACT: note_on channel=9 note=62 velocity=127 time=0
EXTRACT: note_on channel=9 note=75 velocity=61 time=0
EXTRACT: note_off channel=1 note=44 velocity=127 time=0.0020833333333333333
EXTRACT: note_off channel=9 note=75 velocity=61 time=0.11666666666666667
EXTRACT: note_off channel=9 note=28 velocity=52 time=0.07083333333333333
EXTRACT: note_off channel=9 note=42 velocity=127 time=0.03958333333333333
EXTRACT: note_off channel=9 note=37 velocity=127 time=0
EXTRACT: note_off channel=1 note=46 velocity=127 time=0.01875
EXTRACT: note_off channel=1 note=58 velocity=127 time=0
EXTRACT: note_on channel=1 note=44 velocity=127 time=0.0020833333333333333
EXTRACT: note_on channel=1 note=56 velocity=127 time=0
EXTRACT: note_on channel=9 note=28 velocity=52 time=0
EXTRACT: note_on channel=9 note=35 velocity=127 time=0
EXTRACT: note_on channel=9 note=36 velocity=127 time=0
EXTRACT: note_on channel=9 note=38 velocity=67 time=0
EXTRACT: note_on channel=9 note=75 velocity=61 time=0
EXTRACT: note_off channel=9 note=62 velocity=127 time=0.0010416666666666667
EXTRACT: note_off channel=9 note=75 velocity=61 time=0.11770833333333333
EXTRACT: note_off channel=9 note=28 velocity=52 time=0.07083333333333333
EXTRACT: note_off channel=9 note=38 velocity=67 time=0.034375
EXTRACT: note_off channel=9 note=35 velocity=127 time=0.005208333333333333
EXTRACT: note_off channel=9 note=36 velocity=127 time=0
EXTRACT: note_off channel=1 note=44 velocity=127 time=0.01875
EXTRACT: note_off channel=1 note=56 velocity=127 time=0
EXTRACT: note_on channel=1 note=49 velocity=127 time=0.0020833333333333333
EXTRACT: note_on channel=1 note=61 velocity=127 time=0
EXTRACT: note_on channel=9 note=28 velocity=52 time=0
EXTRACT: note_off channel=1 note=44 velocity=58 time=0.019791666666666666
EXTRACT: note_off channel=1 note=56 velocity=58 time=0
EXTRACT: note_off channel=9 note=28 velocity=52 time=0.16979166666666667
EXTRACT: note_off channel=1 note=49 velocity=127 time=0.058333333333333334
EXTRACT: note_off channel=1 note=61 velocity=127 time=0
EXTRACT: note_on channel=1 note=49 velocity=127 time=0.0020833333333333333
EXTRACT: note_on channel=1 note=61 velocity=127 time=0
EXTRACT: note_on channel=9 note=43 velocity=43 time=0
EXTRACT: note_on channel=9 note=28 velocity=52 time=0
EXTRACT: note_on channel=9 note=35 velocity=127 time=0
EXTRACT: note_on channel=9 note=36 velocity=127 time=0
EXTRACT: note_on channel=9 note=38 velocity=67 time=0
EXTRACT: note_on channel=9 note=75 velocity=56 time=0
EXTRACT: note_off channel=9 note=43 velocity=43 time=0.096875
EXTRACT: note_off channel=9 note=75 velocity=56 time=0.021875
EXTRACT: note_on channel=9 note=41 velocity=43 time=0.00625
EXTRACT: note_off channel=9 note=28 velocity=52 time=0.06458333333333333
EXTRACT: note_off channel=9 note=41 velocity=43 time=0.03229166666666666
EXTRACT: note_off channel=9 note=38 velocity=67 time=0.0020833333333333333
EXTRACT: note_off channel=9 note=35 velocity=127 time=0.005208333333333333
EXTRACT: note_off channel=9 note=36 velocity=127 time=0
EXTRACT: note_off channel=1 note=49 velocity=127 time=0.01875
EXTRACT: note_off channel=1 note=61 velocity=127 time=0
EXTRACT: note_on channel=1 note=46 velocity=127 time=0.0020833333333333333
EXTRACT: note_on channel=1 note=58 velocity=127 time=0
EXTRACT: note_on channel=9 note=28 velocity=52 time=0
EXTRACT: note_on channel=9 note=42 velocity=127 time=0
EXTRACT: note_on channel=9 note=37 velocity=127 time=0
EXTRACT: note_on channel=9 note=62 velocity=127 time=0
EXTRACT: note_on channel=9 note=35 velocity=127 time=0.125
EXTRACT: note_on channel=9 note=36 velocity=127 time=0
EXTRACT: note_on channel=9 note=38 velocity=65 time=0
EXTRACT: note_off channel=9 note=28 velocity=52 time=0.06458333333333333
EXTRACT: note_off channel=9 note=42 velocity=127 time=0.03958333333333333
EXTRACT: note_off channel=9 note=37 velocity=127 time=0
EXTRACT: note_off channel=1 note=46 velocity=127 time=0.01875
EXTRACT: note_off channel=1 note=58 velocity=127 time=0
EXTRACT: note_on channel=1 note=46 velocity=127 time=0.0020833333333333333
EXTRACT: note_on channel=1 note=58 velocity=127 time=0
EXTRACT: note_on channel=9 note=28 velocity=54 time=0
EXTRACT: note_on channel=9 note=42 velocity=127 time=0
EXTRACT: note_on channel=9 note=37 velocity=127 time=0
EXTRACT: note_on channel=9 note=62 velocity=127 time=0
EXTRACT: note_on channel=9 note=75 velocity=60 time=0
EXTRACT: note_off channel=9 note=62 velocity=127 time=0.0010416666666666667
EXTRACT: note_off channel=9 note=38 velocity=65 time=0.09791666666666667
EXTRACT: note_off channel=9 note=35 velocity=127 time=0.005208333333333333
EXTRACT: note_off channel=9 note=36 velocity=127 time=0
EXTRACT: note_off channel=9 note=75 velocity=60 time=0.014583333333333334
EXTRACT: note_on channel=9 note=75 velocity=58 time=0.00625
EXTRACT: note_off channel=9 note=28 velocity=54 time=0.06458333333333333
EXTRACT: note_off channel=9 note=42 velocity=127 time=0.03958333333333333
EXTRACT: note_off channel=9 note=37 velocity=127 time=0
EXTRACT: note_off channel=9 note=75 velocity=58 time=0.014583333333333334
EXTRACT: note_off channel=1 note=46 velocity=127 time=0.004166666666666667
EXTRACT: note_off channel=1 note=58 velocity=127 time=0
EXTRACT: note_off channel=3 note=30 velocity=127 time=0
EXTRACT: note_off channel=4 note=30 velocity=127 time=0
EXTRACT: note_off channel=4 note=42 velocity=127 time=0
EXTRACT: note_off channel=6 note=66 velocity=97 time=0
EXTRACT: note_off channel=6 note=70 velocity=97 time=0
EXTRACT: note_off channel=6 note=73 velocity=97 time=0
EXTRACT: note_off channel=10 note=73 velocity=97 time=0
EXTRACT: note_off channel=10 note=70 velocity=97 time=0
EXTRACT: note_off channel=10 note=66 velocity=97 time=0
EXTRACT: note_on channel=1 note=56 velocity=127 time=0.0020833333333333333
EXTRACT: note_on channel=1 note=44 velocity=45 time=0
EXTRACT: note_on channel=3 note=30 velocity=127 time=0
EXTRACT: note_on channel=4 note=30 velocity=127 time=0
EXTRACT: note_on channel=4 note=42 velocity=127 time=0
EXTRACT: note_on channel=6 note=77 velocity=127 time=0
EXTRACT: note_on channel=6 note=73 velocity=127 time=0
EXTRACT: note_on channel=6 note=70 velocity=127 time=0
EXTRACT: note_on channel=6 note=66 velocity=127 time=0
EXTRACT: note_on channel=9 note=75 velocity=61 time=0
EXTRACT: note_on channel=9 note=38 velocity=65 time=0
EXTRACT: note_on channel=9 note=28 velocity=54 time=0
EXTRACT: note_on channel=9 note=35 velocity=127 time=0
EXTRACT: note_on channel=9 note=36 velocity=127 time=0
EXTRACT: note_on channel=10 note=66 velocity=127 time=0
EXTRACT: note_on channel=10 note=70 velocity=127 time=0
EXTRACT: note_on channel=10 note=73 velocity=127 time=0
EXTRACT: note_on channel=10 note=77 velocity=127 time=0
EXTRACT: note_off channel=9 note=62 velocity=127 time=0.0010416666666666667
EXTRACT: note_off channel=9 note=75 velocity=61 time=0.11770833333333333
EXTRACT: note_off channel=9 note=28 velocity=54 time=0.07083333333333333
EXTRACT: note_off channel=9 note=38 velocity=65 time=0.034375
EXTRACT: note_off channel=9 note=35 velocity=127 time=0.005208333333333333
EXTRACT: note_off channel=9 note=36 velocity=127 time=0
EXTRACT: note_on channel=1 note=46 velocity=89 time=0.020833333333333332
EXTRACT: note_on channel=1 note=58 velocity=89 time=0
EXTRACT: note_on channel=9 note=75 velocity=61 time=0
EXTRACT: note_on channel=9 note=28 velocity=56 time=0
EXTRACT: note_off channel=9 note=75 velocity=61 time=0.11875
EXTRACT: note_on channel=9 note=75 velocity=61 time=0.00625
EXTRACT: note_off channel=9 note=28 velocity=56 time=0.06458333333333333
EXTRACT: note_off channel=1 note=56 velocity=127 time=0.030208333333333334
EXTRACT: note_off channel=9 note=75 velocity=61 time=0.02395833333333333
EXTRACT: note_off channel=1 note=46 velocity=89 time=0.004166666666666667
EXTRACT: note_off channel=1 note=58 velocity=89 time=0
EXTRACT: note_on channel=1 note=44 velocity=89 time=0.0020833333333333333
EXTRACT: note_on channel=1 note=56 velocity=89 time=0
EXTRACT: note_on channel=9 note=62 velocity=127 time=0
EXTRACT: note_on channel=9 note=75 velocity=61 time=0
EXTRACT: note_on channel=9 note=28 velocity=52 time=0
EXTRACT: note_on channel=9 note=42 velocity=127 time=0
EXTRACT: note_on channel=9 note=37 velocity=127 time=0
EXTRACT: note_off channel=1 note=44 velocity=45 time=0.0020833333333333333
EXTRACT: note_off channel=9 note=75 velocity=61 time=0.11666666666666667
EXTRACT: note_off channel=9 note=28 velocity=52 time=0.07083333333333333
EXTRACT: note_off channel=9 note=42 velocity=127 time=0.03958333333333333
EXTRACT: note_off channel=9 note=37 velocity=127 time=0
EXTRACT: note_on channel=0 note=61 velocity=127 time=0.020833333333333332
EXTRACT: note_on channel=9 note=75 velocity=61 time=0
EXTRACT: note_on channel=9 note=38 velocity=67 time=0
EXTRACT: note_on channel=9 note=28 velocity=52 time=0
EXTRACT: note_on channel=9 note=35 velocity=127 time=0
EXTRACT: note_on channel=9 note=36 velocity=127 time=0
EXTRACT: note_off channel=9 note=62 velocity=127 time=0.0010416666666666667
EXTRACT: note_off channel=9 note=75 velocity=61 time=0.11770833333333333
EXTRACT: note_off channel=9 note=28 velocity=52 time=0.07083333333333333
EXTRACT: note_off channel=9 note=38 velocity=67 time=0.034375
EXTRACT: note_off channel=9 note=35 velocity=127 time=0.005208333333333333
EXTRACT: note_off channel=9 note=36 velocity=127 time=0
EXTRACT: note_off channel=0 note=61 velocity=127 time=0.01875
EXTRACT: note_on channel=0 note=70 velocity=127 time=0.0020833333333333333
EXTRACT: note_on channel=9 note=28 velocity=52 time=0
EXTRACT: note_off channel=1 note=44 velocity=89 time=0.019791666666666666
EXTRACT: note_off channel=1 note=56 velocity=89 time=0
EXTRACT: note_off channel=9 note=28 velocity=52 time=0.16979166666666667
EXTRACT: note_off channel=0 note=70 velocity=127 time=0.058333333333333334
EXTRACT: note_on channel=0 note=70 velocity=127 time=0.0020833333333333333
EXTRACT: note_on channel=9 note=75 velocity=56 time=0
EXTRACT: note_on channel=9 note=38 velocity=67 time=0
EXTRACT: note_on channel=9 note=43 velocity=43 time=0
EXTRACT: note_on channel=9 note=28 velocity=52 time=0
EXTRACT: note_on channel=9 note=35 velocity=127 time=0
EXTRACT: note_on channel=9 note=36 velocity=127 time=0
EXTRACT: note_off channel=9 note=43 velocity=43 time=0.096875
EXTRACT: note_off channel=9 note=75 velocity=56 time=0.021875
EXTRACT: note_on channel=9 note=41 velocity=43 time=0.00625
