EXTRACT: control_change channel=0 control=7 value=104 time=0
EXTRACT: control_change channel=1 control=7 value=86 time=0
EXTRACT: control_change channel=2 control=7 value=92 time=0
EXTRACT: control_change channel=4 control=7 value=62 time=0
EXTRACT: control_change channel=5 control=7 value=74 time=0
EXTRACT: program_change channel=0 program=67 time=0.0022977916666666667
EXTRACT: program_change channel=1 program=10 time=0
EXTRACT: program_change channel=2 program=34 time=0
EXTRACT: program_change channel=4 program=105 time=0
EXTRACT: program_change channel=5 program=67 time=0
EXTRACT: note_on channel=0 note=74 velocity=127 time=0.08042270833333334
EXTRACT: note_on channel=2 note=38 velocity=127 time=0
EXTRACT: note_on channel=4 note=74 velocity=127 time=0
EXTRACT: note_on channel=5 note=78 velocity=127 time=0
EXTRACT: note_on channel=9 note=35 velocity=127 time=0.021829020833333334
EXTRACT: note_on channel=9 note=35 velocity=0 time=0.026424604166666667
EXTRACT: note_on channel=9 note=42 velocity=127 time=0.005744479166666667
EXTRACT: note_on channel=9 note=42 velocity=0 time=0.01378675
EXTRACT: note_on channel=4 note=74 velocity=0 time=0.059742583333333335
EXTRACT: note_on channel=4 note=76 velocity=127 time=0.0103400625
EXTRACT: note_on channel=4 note=76 velocity=0 time=0.1275274375
EXTRACT: note_on channel=1 note=66 velocity=127 time=0.0103400625
EXTRACT: note_on channel=4 note=74 velocity=127 time=0
EXTRACT: note_on channel=4 note=74 velocity=0 time=0.1275274375
EXTRACT: note_on channel=4 note=76 velocity=127 time=0.0103400625
EXTRACT: note_on channel=9 note=35 velocity=127 time=0.021829020833333334
EXTRACT: note_on channel=0 note=74 velocity=0 time=0.019531229166666667
EXTRACT: note_on channel=9 note=35 velocity=0 time=0.006893375
EXTRACT: note_on channel=5 note=78 velocity=0 time=0.011488958333333334
EXTRACT: note_on channel=4 note=76 velocity=0 time=0.06778485416666667
EXTRACT: note_on channel=1 note=66 velocity=0 time=0.0011488958333333334
EXTRACT: note_on channel=1 note=69 velocity=127 time=0.009191166666666667
EXTRACT: note_on channel=4 note=78 velocity=127 time=0
EXTRACT: note_on channel=9 note=38 velocity=127 time=0.016084541666666667
EXTRACT: note_on channel=9 note=38 velocity=0 time=0.0275735
EXTRACT: note_on channel=9 note=42 velocity=127 time=0.0103400625
EXTRACT: note_on channel=9 note=42 velocity=0 time=0.0172334375
EXTRACT: note_on channel=4 note=78 velocity=0 time=0.05629589583333333
EXTRACT: note_on channel=4 note=74 velocity=127 time=0.0103400625
EXTRACT: note_on channel=2 note=38 velocity=0 time=0.12293185416666667
EXTRACT: note_on channel=4 note=74 velocity=0 time=0.0045955833333333335
EXTRACT: note_on channel=1 note=69 velocity=0 time=0.0011488958333333334
EXTRACT: note_on channel=4 note=69 velocity=127 time=0.009191166666666667
EXTRACT: note_on channel=2 note=38 velocity=127 time=0
EXTRACT: note_on channel=1 note=74 velocity=127 time=0
EXTRACT: note_on channel=9 note=35 velocity=127 time=0.021829020833333334
EXTRACT: note_on channel=9 note=35 velocity=0 time=0.026424604166666667
EXTRACT: note_on channel=4 note=69 velocity=0 time=0.0792738125
EXTRACT: note_on channel=4 note=78 velocity=127 time=0.0103400625
EXTRACT: note_on channel=2 note=38 velocity=0 time=0.12293185416666667
EXTRACT: note_on channel=4 note=78 velocity=0 time=0.0045955833333333335
EXTRACT: note_on channel=0 note=76 velocity=127 time=0.0103400625
EXTRACT: note_on channel=2 note=38 velocity=127 time=0
EXTRACT: note_on channel=4 note=79 velocity=127 time=0
EXTRACT: note_on channel=5 note=79 velocity=127 time=0
EXTRACT: note_on channel=9 note=35 velocity=127 time=0.021829020833333334
EXTRACT: note_on channel=9 note=35 velocity=0 time=0.026424604166666667
EXTRACT: note_on channel=9 note=42 velocity=127 time=0.005744479166666667
EXTRACT: note_on channel=9 note=42 velocity=0 time=0.0172334375
EXTRACT: note_on channel=4 note=79 velocity=0 time=0.05629589583333333
EXTRACT: note_on channel=4 note=78 velocity=127 time=0.0103400625
EXTRACT: note_on channel=4 note=78 velocity=0 time=0.1275274375
EXTRACT: note_on channel=1 note=74 velocity=0 time=0.0011488958333333334
EXTRACT: note_on channel=1 note=69 velocity=127 time=0.009191166666666667
EXTRACT: note_on channel=4 note=76 velocity=127 time=0
EXTRACT: note_on channel=9 note=42 velocity=127 time=0.05399810416666667
EXTRACT: note_on channel=9 note=42 velocity=0 time=0.0022977916666666667
EXTRACT: note_on channel=4 note=76 velocity=0 time=0.07123154166666668
EXTRACT: note_on channel=4 note=71 velocity=127 time=0.0103400625
EXTRACT: note_on channel=9 note=38 velocity=127 time=0.016084541666666667
EXTRACT: note_on channel=0 note=76 velocity=0 time=0.025275708333333334
EXTRACT: note_on channel=9 note=38 velocity=0 time=0.0022977916666666667
EXTRACT: note_on channel=5 note=79 velocity=0 time=0.016084541666666667
EXTRACT: note_on channel=4 note=71 velocity=0 time=0.06778485416666667
EXTRACT: note_on channel=1 note=69 velocity=0 time=0.0011488958333333334
EXTRACT: note_on channel=4 note=74 velocity=127 time=0.009191166666666667
EXTRACT: note_on channel=0 note=78 velocity=127 time=0
EXTRACT: note_on channel=1 note=66 velocity=127 time=0
EXTRACT: note_on channel=5 note=81 velocity=127 time=0
EXTRACT: note_on channel=9 note=42 velocity=127 time=0.05399810416666667
EXTRACT: note_on channel=9 note=42 velocity=0 time=0.0172334375
EXTRACT: note_on channel=4 note=74 velocity=0 time=0.05629589583333333
EXTRACT: note_on channel=4 note=69 velocity=127 time=0.0103400625
EXTRACT: note_on channel=4 note=69 velocity=0 time=0.1275274375
EXTRACT: note_on channel=1 note=66 velocity=0 time=0.0011488958333333334
EXTRACT: note_on channel=1 note=69 velocity=127 time=0.009191166666666667
EXTRACT: note_on channel=4 note=71 velocity=127 time=0
EXTRACT: note_on channel=9 note=38 velocity=127 time=0.016084541666666667
EXTRACT: note_on channel=9 note=38 velocity=0 time=0.0275735
EXTRACT: note_on channel=4 note=71 velocity=0 time=0.08386939583333333
EXTRACT: note_on channel=4 note=67 velocity=127 time=0.0103400625
EXTRACT: note_on channel=0 note=78 velocity=0 time=0.04136025
EXTRACT: note_on channel=5 note=81 velocity=0 time=0.018382333333333334
EXTRACT: note_on channel=2 note=38 velocity=0 time=0.06318927083333334
EXTRACT: note_on channel=4 note=67 velocity=0 time=0.0045955833333333335
EXTRACT: note_on channel=0 note=76 velocity=127 time=0.0103400625
EXTRACT: note_on channel=2 note=40 velocity=127 time=0
EXTRACT: note_on channel=4 note=66 velocity=127 time=0
EXTRACT: note_on channel=5 note=79 velocity=127 time=0
EXTRACT: note_on channel=9 note=35 velocity=127 time=0.021829020833333334
EXTRACT: note_on channel=9 note=35 velocity=0 time=0.026424604166666667
EXTRACT: note_on channel=9 note=42 velocity=127 time=0.005744479166666667
EXTRACT: note_on channel=9 note=42 velocity=0 time=0.0172334375
EXTRACT: note_on channel=4 note=66 velocity=0 time=0.05629589583333333
EXTRACT: note_on channel=4 note=67 velocity=127 time=0.0103400625
EXTRACT: note_on channel=4 note=67 velocity=0 time=0.1275274375
EXTRACT: note_on channel=1 note=69 velocity=0 time=0.0011488958333333334
EXTRACT: note_on channel=1 note=67 velocity=127 time=0.009191166666666667
EXTRACT: note_on channel=4 note=64 velocity=127 time=0
EXTRACT: note_on channel=9 note=42 velocity=127 time=0.05399810416666667
EXTRACT: note_on channel=9 note=42 velocity=0 time=0.0172334375
EXTRACT: note_on channel=4 note=64 velocity=0 time=0.05629589583333333
EXTRACT: note_on channel=4 note=67 velocity=127 time=0.0103400625
EXTRACT: note_on channel=9 note=35 velocity=127 time=0.021829020833333334
EXTRACT: note_on channel=9 note=35 velocity=0 time=0.026424604166666667
EXTRACT: note_on channel=4 note=67 velocity=0 time=0.0792738125
EXTRACT: note_on channel=1 note=67 velocity=0 time=0.0011488958333333334
EXTRACT: note_on channel=1 note=71 velocity=127 time=0.009191166666666667
EXTRACT: note_on channel=4 note=71 velocity=127 time=0
EXTRACT: note_on channel=9 note=38 velocity=127 time=0.016084541666666667
EXTRACT: note_on channel=9 note=38 velocity=0 time=0.0275735
EXTRACT: note_on channel=9 note=42 velocity=127 time=0.0103400625
EXTRACT: note_on channel=9 note=42 velocity=0 time=0.0172334375
EXTRACT: note_on channel=4 note=71 velocity=0 time=0.05629589583333333
EXTRACT: note_on channel=4 note=76 velocity=127 time=0.0103400625
EXTRACT: note_on channel=2 note=40 velocity=0 time=0.12293185416666667
EXTRACT: note_on channel=4 note=76 velocity=0 time=0.0045955833333333335
EXTRACT: note_on channel=1 note=71 velocity=0 time=0.0011488958333333334
EXTRACT: note_on channel=1 note=76 velocity=127 time=0.009191166666666667
EXTRACT: note_on channel=2 note=40 velocity=127 time=0
EXTRACT: note_on channel=4 note=74 velocity=127 time=0
EXTRACT: note_on channel=9 note=35 velocity=127 time=0.021829020833333334
EXTRACT: note_on channel=9 note=35 velocity=0 time=0.026424604166666667
EXTRACT: note_on channel=4 note=74 velocity=0 time=0.0792738125
EXTRACT: note_on channel=4 note=71 velocity=127 time=0.0103400625
EXTRACT: note_on channel=0 note=76 velocity=0 time=0.04136025
EXTRACT: note_on channel=5 note=79 velocity=0 time=0.018382333333333334
EXTRACT: note_on channel=2 note=40 velocity=0 time=0.06318927083333334
EXTRACT: note_on channel=4 note=71 velocity=0 time=0.0045955833333333335
EXTRACT: note_on channel=2 note=40 velocity=127 time=0.0103400625
EXTRACT: note_on channel=4 note=67 velocity=127 time=0
EXTRACT: note_on channel=0 note=78 velocity=127 time=0
EXTRACT: note_on channel=5 note=81 velocity=127 time=0
EXTRACT: note_on channel=9 note=35 velocity=127 time=0.021829020833333334
EXTRACT: note_on channel=9 note=35 velocity=0 time=0.026424604166666667
EXTRACT: note_on channel=4 note=67 velocity=0 time=0.0792738125
EXTRACT: note_on channel=4 note=64 velocity=127 time=0.0103400625
EXTRACT: note_on channel=4 note=64 velocity=0 time=0.1275274375
EXTRACT: note_on channel=1 note=76 velocity=0 time=0.0011488958333333334
EXTRACT: note_on channel=4 note=59 velocity=127 time=0.009191166666666667
EXTRACT: note_on channel=1 note=71 velocity=127 time=0
EXTRACT: note_on channel=4 note=59 velocity=0 time=0.1275274375
EXTRACT: note_on channel=4 note=62 velocity=127 time=0.0103400625
EXTRACT: note_on channel=9 note=38 velocity=127 time=0.016084541666666667
EXTRACT: note_on channel=0 note=78 velocity=0 time=0.025275708333333334
EXTRACT: note_on channel=9 note=38 velocity=0 time=0.0022977916666666667
EXTRACT: note_on channel=5 note=81 velocity=0 time=0.016084541666666667
EXTRACT: note_on channel=4 note=62 velocity=0 time=0.06778485416666667
EXTRACT: note_on channel=1 note=71 velocity=0 time=0.0011488958333333334
EXTRACT: note_on channel=0 note=79 velocity=127 time=0.009191166666666667
EXTRACT: note_on channel=1 note=67 velocity=127 time=0
EXTRACT: note_on channel=4 note=67 velocity=127 time=0
EXTRACT: note_on channel=5 note=83 velocity=127 time=0
EXTRACT: note_on channel=9 note=42 velocity=127 time=0.05399810416666667
EXTRACT: note_on channel=9 note=42 velocity=0 time=0.0172334375
EXTRACT: note_on channel=4 note=67 velocity=0 time=0.05629589583333333
EXTRACT: note_on channel=4 note=66 velocity=127 time=0.0103400625
EXTRACT: note_on channel=2 note=40 velocity=0 time=0.12293185416666667
EXTRACT: note_on channel=4 note=66 velocity=0 time=0.0045955833333333335
EXTRACT: note_on channel=1 note=67 velocity=0 time=0.0011488958333333334
EXTRACT: note_on channel=1 note=71 velocity=127 time=0.009191166666666667
EXTRACT: note_on channel=2 note=40 velocity=127 time=0
EXTRACT: note_on channel=4 note=64 velocity=127 time=0
EXTRACT: note_on channel=9 note=38 velocity=127 time=0.016084541666666667
EXTRACT: note_on channel=9 note=38 velocity=0 time=0.0275735
EXTRACT: note_on channel=9 note=42 velocity=127 time=0.0103400625
EXTRACT: note_on channel=9 note=42 velocity=0 time=0.0172334375
EXTRACT: note_on channel=4 note=64 velocity=0 time=0.05629589583333333
EXTRACT: note_on channel=4 note=62 velocity=127 time=0.0103400625
EXTRACT: note_on channel=0 note=79 velocity=0 time=0.04136025
EXTRACT: note_on channel=5 note=83 velocity=0 time=0.018382333333333334
EXTRACT: note_on channel=2 note=40 velocity=0 time=0.06318927083333334
EXTRACT: note_on channel=4 note=62 velocity=0 time=0.0045955833333333335
EXTRACT: note_on channel=0 note=78 velocity=127 time=0.0103400625
EXTRACT: note_on channel=2 note=31 velocity=127 time=0
EXTRACT: note_on channel=4 note=59 velocity=127 time=0
EXTRACT: note_on channel=5 note=81 velocity=127 time=0
EXTRACT: note_on channel=9 note=35 velocity=127 time=0.021829020833333334
EXTRACT: note_on channel=9 note=35 velocity=0 time=0.026424604166666667
EXTRACT: note_on channel=9 note=42 velocity=127 time=0.005744479166666667
EXTRACT: note_on channel=9 note=42 velocity=0 time=0.0172334375
EXTRACT: note_on channel=4 note=59 velocity=0 time=0.05629589583333333
EXTRACT: note_on channel=4 note=55 velocity=127 time=0.0103400625
EXTRACT: note_on channel=4 note=55 velocity=0 time=0.1275274375
EXTRACT: note_on channel=1 note=71 velocity=0 time=0.0011488958333333334
EXTRACT: note_on channel=1 note=67 velocity=127 time=0.009191166666666667
EXTRACT: note_on channel=4 note=57 velocity=127 time=0
EXTRACT: note_on channel=4 note=57 velocity=0 time=0.1275274375
EXTRACT: note_on channel=4 note=59 velocity=127 time=0.0103400625
EXTRACT: note_on channel=9 note=35 velocity=127 time=0.021829020833333334
EXTRACT: note_on channel=9 note=35 velocity=0 time=0.026424604166666667
EXTRACT: note_on channel=4 note=59 velocity=0 time=0.0792738125
EXTRACT: note_on channel=1 note=67 velocity=0 time=0.0011488958333333334
EXTRACT: note_on channel=1 note=71 velocity=127 time=0.009191166666666667
EXTRACT: note_on channel=4 note=55 velocity=127 time=0
EXTRACT: note_on channel=9 note=38 velocity=127 time=0.016084541666666667
EXTRACT: note_on channel=9 note=38 velocity=0 time=0.0275735
EXTRACT: note_on channel=9 note=42 velocity=127 time=0.0103400625
EXTRACT: note_on channel=9 note=42 velocity=0 time=0.0172334375
EXTRACT: note_on channel=4 note=55 velocity=0 time=0.05629589583333333
EXTRACT: note_on channel=4 note=62 velocity=127 time=0.0103400625
EXTRACT: note_on channel=0 note=78 velocity=0 time=0.04136025
EXTRACT: note_on channel=5 note=81 velocity=0 time=0.018382333333333334
EXTRACT: note_on channel=2 note=31 velocity=0 time=0.06318927083333334
EXTRACT: note_on channel=4 note=62 velocity=0 time=0.0045955833333333335
EXTRACT: note_on channel=1 note=71 velocity=0 time=0.0011488958333333334
EXTRACT: note_on channel=1 note=74 velocity=127 time=0.009191166666666667
EXTRACT: note_on channel=2 note=31 velocity=127 time=0
EXTRACT: note_on channel=4 note=55 velocity=127 time=0
EXTRACT: note_on channel=9 note=35 velocity=127 time=0.021829020833333334
EXTRACT: note_on channel=9 note=35 velocity=0 time=0.026424604166666667
EXTRACT: note_on channel=4 note=55 velocity=0 time=0.0792738125
EXTRACT: note_on channel=4 note=64 velocity=127 time=0.0103400625
EXTRACT: note_on channel=2 note=31 velocity=0 time=0.12293185416666667
EXTRACT: note_on channel=4 note=64 velocity=0 time=0.0045955833333333335
EXTRACT: note_on channel=0 note=79 velocity=127 time=0.0103400625
EXTRACT: note_on channel=2 note=31 velocity=127 time=0
EXTRACT: note_on channel=4 note=59 velocity=127 time=0
EXTRACT: note_on channel=5 note=83 velocity=127 time=0
EXTRACT: note_on channel=9 note=35 velocity=127 time=0.021829020833333334
EXTRACT: note_on channel=9 note=35 velocity=0 time=0.026424604166666667
EXTRACT: note_on channel=9 note=42 velocity=127 time=0.005744479166666667
EXTRACT: note_on channel=9 note=42 velocity=0 time=0.0172334375
EXTRACT: note_on channel=4 note=59 velocity=0 time=0.05629589583333333
EXTRACT: note_on channel=4 note=62 velocity=127 time=0.0103400625
EXTRACT: note_on channel=4 note=62 velocity=0 time=0.1275274375
EXTRACT: note_on channel=1 note=74 velocity=0 time=0.0011488958333333334
EXTRACT: note_on channel=1 note=71 velocity=127 time=0.009191166666666667
EXTRACT: note_on channel=4 note=59 velocity=127 time=0
EXTRACT: note_on channel=9 note=42 velocity=127 time=0.05399810416666667
EXTRACT: note_on channel=9 note=42 velocity=0 time=0.0172334375
EXTRACT: note_on channel=4 note=59 velocity=0 time=0.05629589583333333
EXTRACT: note_on channel=4 note=67 velocity=127 time=0.0103400625
EXTRACT: note_on channel=9 note=38 velocity=127 time=0.016084541666666667
EXTRACT: note_on channel=9 note=38 velocity=0 time=0.0275735
EXTRACT: note_on channel=4 note=67 velocity=0 time=0.08386939583333333
EXTRACT: note_on channel=1 note=71 velocity=0 time=0.0011488958333333334
EXTRACT: note_on channel=1 note=67 velocity=127 time=0.009191166666666667
EXTRACT: note_on channel=4 note=69 velocity=127 time=0
EXTRACT: note_on channel=9 note=42 velocity=127 time=0.05399810416666667
EXTRACT: note_on channel=9 note=42 velocity=0 time=0.0172334375
EXTRACT: note_on channel=4 note=69 velocity=0 time=0.05629589583333333
EXTRACT: note_on channel=4 note=67 velocity=127 time=0.0103400625
EXTRACT: note_on channel=2 note=31 velocity=0 time=0.12293185416666667
EXTRACT: note_on channel=4 note=67 velocity=0 time=0.0045955833333333335
EXTRACT: note_on channel=1 note=67 velocity=0 time=0.0011488958333333334
EXTRACT: note_on channel=1 note=71 velocity=127 time=0.009191166666666667
EXTRACT: note_on channel=2 note=31 velocity=127 time=0
EXTRACT: note_on channel=4 note=74 velocity=127 time=0
EXTRACT: note_on channel=9 note=38 velocity=127 time=0.016084541666666667
EXTRACT: note_on channel=9 note=38 velocity=0 time=0.0275735
EXTRACT: note_on channel=4 note=74 velocity=0 time=0.08386939583333333
EXTRACT: note_on channel=4 note=71 velocity=127 time=0.0103400625
EXTRACT: note_on channel=0 note=79 velocity=0 time=0.04136025
EXTRACT: note_on channel=5 note=83 velocity=0 time=0.018382333333333334
EXTRACT: note_on channel=2 note=31 velocity=0 time=0.06318927083333334
EXTRACT: note_on channel=4 note=71 velocity=0 time=0.0045955833333333335
EXTRACT: note_on channel=2 note=38 velocity=127 time=0.0103400625
EXTRACT: note_on channel=4 note=69 velocity=127 time=0
EXTRACT: note_on channel=0 note=78 velocity=127 time=0
EXTRACT: note_on channel=5 note=81 velocity=127 time=0
EXTRACT: note_on channel=9 note=35 velocity=127 time=0.021829020833333334
EXTRACT: note_on channel=9 note=35 velocity=0 time=0.026424604166666667
EXTRACT: note_on channel=9 note=42 velocity=127 time=0.005744479166666667
EXTRACT: note_on channel=9 note=42 velocity=0 time=0.0172334375
EXTRACT: note_on channel=4 note=69 velocity=0 time=0.05629589583333333
EXTRACT: note_on channel=4 note=67 velocity=127 time=0.0103400625
EXTRACT: note_on channel=4 note=67 velocity=0 time=0.1275274375
EXTRACT: note_on channel=1 note=71 velocity=0 time=0.0011488958333333334
EXTRACT: note_on channel=4 note=66 velocity=127 time=0.009191166666666667
EXTRACT: note_on channel=1 note=66 velocity=127 time=0
EXTRACT: note_on channel=9 note=42 velocity=127 time=0.05399810416666667
EXTRACT: note_on channel=9 note=42 velocity=0 time=0.0172334375
EXTRACT: note_on channel=4 note=66 velocity=0 time=0.05629589583333333
EXTRACT: note_on channel=4 note=67 velocity=127 time=0.0103400625
EXTRACT: note_on channel=9 note=35 velocity=127 time=0.021829020833333334
EXTRACT: note_on channel=9 note=35 velocity=0 time=0.026424604166666667
EXTRACT: note_on channel=4 note=67 velocity=0 time=0.0792738125
EXTRACT: note_on channel=1 note=66 velocity=0 time=0.0011488958333333334
EXTRACT: note_on channel=4 note=66 velocity=127 time=0.009191166666666667
EXTRACT: note_on channel=1 note=69 velocity=127 time=0
EXTRACT: note_on channel=9 note=38 velocity=127 time=0.016084541666666667
EXTRACT: note_on channel=9 note=38 velocity=0 time=0.0275735
EXTRACT: note_on channel=9 note=42 velocity=127 time=0.0103400625
EXTRACT: note_on channel=9 note=42 velocity=0 time=0.0172334375
EXTRACT: note_on channel=4 note=66 velocity=0 time=0.05629589583333333
EXTRACT: note_on channel=4 note=69 velocity=127 time=0.0103400625
EXTRACT: note_on channel=2 note=38 velocity=0 time=0.12293185416666667
EXTRACT: note_on channel=4 note=69 velocity=0 time=0.0045955833333333335
EXTRACT: note_on channel=1 note=69 velocity=0 time=0.0011488958333333334
EXTRACT: note_on channel=1 note=74 velocity=127 time=0.009191166666666667
EXTRACT: note_on channel=2 note=38 velocity=127 time=0
EXTRACT: note_on channel=4 note=74 velocity=127 time=0
EXTRACT: note_on channel=9 note=35 velocity=127 time=0.021829020833333334
EXTRACT: note_on channel=9 note=35 velocity=0 time=0.026424604166666667
EXTRACT: note_on channel=4 note=74 velocity=0 time=0.0792738125
EXTRACT: note_on channel=4 note=69 velocity=127 time=0.0103400625
EXTRACT: note_on channel=0 note=78 velocity=0 time=0.04136025
EXTRACT: note_on channel=5 note=81 velocity=0 time=0.018382333333333334
EXTRACT: note_on channel=2 note=38 velocity=0 time=0.06318927083333334
EXTRACT: note_on channel=4 note=69 velocity=0 time=0.0045955833333333335
EXTRACT: note_on channel=0 note=78 velocity=127 time=0.0103400625
EXTRACT: note_on channel=2 note=38 velocity=127 time=0
EXTRACT: note_on channel=4 note=66 velocity=127 time=0
EXTRACT: note_on channel=5 note=81 velocity=127 time=0
EXTRACT: note_on channel=9 note=35 velocity=127 time=0.021829020833333334
EXTRACT: note_on channel=9 note=35 velocity=0 time=0.026424604166666667
EXTRACT: note_on channel=9 note=42 velocity=127 time=0.005744479166666667
EXTRACT: note_on channel=9 note=42 velocity=0 time=0.0172334375
EXTRACT: note_on channel=4 note=66 velocity=0 time=0.05629589583333333
EXTRACT: note_on channel=4 note=69 velocity=127 time=0.0103400625
EXTRACT: note_on channel=4 note=69 velocity=0 time=0.1275274375
EXTRACT: note_on channel=1 note=74 velocity=0 time=0.0011488958333333334
EXTRACT: note_on channel=1 note=69 velocity=127 time=0.009191166666666667
EXTRACT: note_on channel=4 note=66 velocity=127 time=0
EXTRACT: note_on channel=4 note=66 velocity=0 time=0.1275274375
EXTRACT: note_on channel=4 note=64 velocity=127 time=0.0103400625
EXTRACT: note_on channel=9 note=38 velocity=127 time=0.016084541666666667
EXTRACT: note_on channel=0 note=78 velocity=0 time=0.025275708333333334
EXTRACT: note_on channel=9 note=38 velocity=0 time=0.0022977916666666667
EXTRACT: note_on channel=5 note=81 velocity=0 time=0.016084541666666667
EXTRACT: note_on channel=4 note=64 velocity=0 time=0.06778485416666667
EXTRACT: note_on channel=1 note=69 velocity=0 time=0.0011488958333333334
EXTRACT: note_on channel=0 note=76 velocity=127 time=0.009191166666666667
EXTRACT: note_on channel=1 note=66 velocity=127 time=0
EXTRACT: note_on channel=4 note=62 velocity=127 time=0
EXTRACT: note_on channel=5 note=79 velocity=127 time=0
EXTRACT: note_on channel=9 note=42 velocity=127 time=0.05399810416666667
EXTRACT: note_on channel=9 note=42 velocity=0 time=0.0172334375
EXTRACT: note_on channel=4 note=62 velocity=0 time=0.05629589583333333
EXTRACT: note_on channel=4 note=64 velocity=127 time=0.0103400625
EXTRACT: note_on channel=2 note=38 velocity=0 time=0.12293185416666667
EXTRACT: note_on channel=4 note=64 velocity=0 time=0.0045955833333333335
EXTRACT: note_on channel=1 note=66 velocity=0 time=0.0011488958333333334
EXTRACT: note_on channel=1 note=69 velocity=127 time=0.009191166666666667
EXTRACT: note_on channel=2 note=38 velocity=127 time=0
EXTRACT: note_on channel=4 note=66 velocity=127 time=0
EXTRACT: note_on channel=9 note=38 velocity=127 time=0.016084541666666667
EXTRACT: note_on channel=9 note=38 velocity=0 time=0.0275735
EXTRACT: note_on channel=9 note=42 velocity=127 time=0.0103400625
EXTRACT: note_on channel=9 note=42 velocity=0 time=0.0172334375
EXTRACT: note_on channel=4 note=66 velocity=0 time=0.05629589583333333
EXTRACT: note_on channel=4 note=69 velocity=127 time=0.0103400625
EXTRACT: note_on channel=0 note=76 velocity=0 time=0.04136025
EXTRACT: note_on channel=5 note=79 velocity=0 time=0.018382333333333334
EXTRACT: note_on channel=2 note=38 velocity=0 time=0.06318927083333334
EXTRACT: note_on channel=4 note=69 velocity=0 time=0.0045955833333333335
EXTRACT: note_on channel=0 note=74 velocity=127 time=0.0103400625
EXTRACT: note_on channel=2 note=38 velocity=127 time=0
EXTRACT: note_on channel=4 note=74 velocity=127 time=0
EXTRACT: note_on channel=5 note=78 velocity=127 time=0
EXTRACT: note_on channel=9 note=35 velocity=127 time=0.021829020833333334
EXTRACT: note_on channel=9 note=35 velocity=0 time=0.026424604166666667
EXTRACT: note_on channel=9 note=42 velocity=127 time=0.005744479166666667
EXTRACT: note_on channel=9 note=42 velocity=0 time=0.0172334375
EXTRACT: note_on channel=4 note=74 velocity=0 time=0.05629589583333333
EXTRACT: note_on channel=4 note=76 velocity=127 time=0.0103400625
EXTRACT: note_on channel=4 note=76 velocity=0 time=0.1275274375
EXTRACT: note_on channel=1 note=69 velocity=0 time=0.0011488958333333334
EXTRACT: note_on channel=1 note=66 velocity=127 time=0.009191166666666667
EXTRACT: note_on channel=4 note=74 velocity=127 time=0
EXTRACT: note_on channel=4 note=74 velocity=0 time=0.1275274375
EXTRACT: note_on channel=4 note=76 velocity=127 time=0.0103400625
EXTRACT: note_on channel=9 note=35 velocity=127 time=0.021829020833333334
EXTRACT: note_on channel=9 note=35 velocity=0 time=0.026424604166666667
EXTRACT: note_on channel=4 note=76 velocity=0 time=0.0792738125
EXTRACT: note_on channel=1 note=66 velocity=0 time=0.0011488958333333334
EXTRACT: note_on channel=1 note=69 velocity=127 time=0.009191166666666667
EXTRACT: note_on channel=4 note=78 velocity=127 time=0
EXTRACT: note_on channel=9 note=38 velocity=127 time=0.016084541666666667
EXTRACT: note_on channel=9 note=38 velocity=0 time=0.0275735
EXTRACT: note_on channel=9 note=42 velocity=127 time=0.0103400625
EXTRACT: note_on channel=9 note=42 velocity=0 time=0.0172334375
EXTRACT: note_on channel=4 note=78 velocity=0 time=0.05629589583333333
EXTRACT: note_on channel=4 note=74 velocity=127 time=0.0103400625
EXTRACT: note_on channel=0 note=74 velocity=0 time=0.04136025
EXTRACT: note_on channel=5 note=78 velocity=0 time=0.018382333333333334
EXTRACT: note_on channel=2 note=38 velocity=0 time=0.06318927083333334
EXTRACT: note_on channel=4 note=74 velocity=0 time=0.0045955833333333335
EXTRACT: note_on channel=1 note=69 velocity=0 time=0.0011488958333333334
EXTRACT: note_on channel=1 note=74 velocity=127 time=0.009191166666666667
EXTRACT: note_on channel=2 note=38 velocity=127 time=0
EXTRACT: note_on channel=4 note=69 velocity=127 time=0
EXTRACT: note_on channel=9 note=35 velocity=127 time=0.021829020833333334
EXTRACT: note_on channel=9 note=35 velocity=0 time=0.026424604166666667
EXTRACT: note_on channel=4 note=69 velocity=0 time=0.0792738125
EXTRACT: note_on channel=4 note=78 velocity=127 time=0.0103400625
EXTRACT: note_on channel=2 note=38 velocity=0 time=0.12293185416666667
EXTRACT: note_on channel=4 note=78 velocity=0 time=0.0045955833333333335
EXTRACT: note_on channel=0 note=76 velocity=127 time=0.0103400625
EXTRACT: note_on channel=2 note=38 velocity=127 time=0
EXTRACT: note_on channel=4 note=79 velocity=127 time=0
EXTRACT: note_on channel=5 note=79 velocity=127 time=0
EXTRACT: note_on channel=9 note=35 velocity=127 time=0.021829020833333334
EXTRACT: note_on channel=9 note=35 velocity=0 time=0.026424604166666667
EXTRACT: note_on channel=9 note=42 velocity=127 time=0.005744479166666667
EXTRACT: note_on channel=9 note=42 velocity=0 time=0.0172334375
EXTRACT: note_on channel=4 note=79 velocity=0 time=0.05629589583333333
EXTRACT: note_on channel=4 note=78 velocity=127 time=0.0103400625
EXTRACT: note_on channel=4 note=78 velocity=0 time=0.1275274375
EXTRACT: note_on channel=1 note=74 velocity=0 time=0.0011488958333333334
EXTRACT: note_on channel=1 note=69 velocity=127 time=0.009191166666666667
EXTRACT: note_on channel=4 note=76 velocity=127 time=0
EXTRACT: note_on channel=9 note=42 velocity=127 time=0.05399810416666667
EXTRACT: note_on channel=9 note=42 velocity=0 time=0.0172334375
EXTRACT: note_on channel=4 note=76 velocity=0 time=0.05629589583333333
EXTRACT: note_on channel=4 note=71 velocity=127 time=0.0103400625
EXTRACT: note_on channel=9 note=38 velocity=127 time=0.016084541666666667
EXTRACT: note_on channel=0 note=76 velocity=0 time=0.025275708333333334
EXTRACT: note_on channel=9 note=38 velocity=0 time=0.0022977916666666667
EXTRACT: note_on channel=5 note=79 velocity=0 time=0.016084541666666667
EXTRACT: note_on channel=4 note=71 velocity=0 time=0.06778485416666667
EXTRACT: note_on channel=1 note=69 velocity=0 time=0.0011488958333333334
EXTRACT: note_on channel=0 note=78 velocity=127 time=0.009191166666666667
EXTRACT: note_on channel=1 note=66 velocity=127 time=0
EXTRACT: note_on channel=4 note=74 velocity=127 time=0
EXTRACT: note_on channel=5 note=81 velocity=127 time=0
EXTRACT: note_on channel=9 note=42 velocity=127 time=0.05399810416666667
EXTRACT: note_on channel=9 note=42 velocity=0 time=0.0172334375
EXTRACT: note_on channel=4 note=74 velocity=0 time=0.05629589583333333
EXTRACT: note_on channel=4 note=69 velocity=127 time=0.0103400625
EXTRACT: note_on channel=4 note=69 velocity=0 time=0.1275274375
EXTRACT: note_on channel=1 note=66 velocity=0 time=0.0011488958333333334
EXTRACT: note_on channel=1 note=69 velocity=127 time=0.009191166666666667
EXTRACT: note_on channel=4 note=71 velocity=127 time=0
EXTRACT: note_on channel=9 note=38 velocity=127 time=0.016084541666666667
EXTRACT: note_on channel=9 note=38 velocity=0 time=0.0275735
EXTRACT: note_on channel=4 note=71 velocity=0 time=0.08386939583333333
EXTRACT: note_on channel=4 note=67 velocity=127 time=0.0103400625
EXTRACT: note_on channel=0 note=78 velocity=0 time=0.04136025
EXTRACT: note_on channel=5 note=81 velocity=0 time=0.018382333333333334
EXTRACT: note_on channel=2 note=38 velocity=0 time=0.06318927083333334
EXTRACT: note_on channel=4 note=67 velocity=0 time=0.0045955833333333335
EXTRACT: note_on channel=0 note=76 velocity=127 time=0.0103400625
EXTRACT: note_on channel=2 note=40 velocity=127 time=0
EXTRACT: note_on channel=4 note=66 velocity=127 time=0
EXTRACT: note_on channel=5 note=79 velocity=127 time=0
EXTRACT: note_on channel=9 note=35 velocity=127 time=0.021829020833333334
EXTRACT: note_on channel=9 note=35 velocity=0 time=0.026424604166666667
EXTRACT: note_on channel=9 note=42 velocity=127 time=0.005744479166666667
EXTRACT: note_on channel=9 note=42 velocity=0 time=0.0172334375
EXTRACT: note_on channel=4 note=66 velocity=0 time=0.05629589583333333
EXTRACT: note_on channel=4 note=67 velocity=127 time=0.0103400625
EXTRACT: note_on channel=4 note=67 velocity=0 time=0.1275274375
EXTRACT: note_on channel=1 note=69 velocity=0 time=0.0011488958333333334
EXTRACT: note_on channel=1 note=67 velocity=127 time=0.009191166666666667
EXTRACT: note_on channel=4 note=64 velocity=127 time=0
EXTRACT: note_on channel=9 note=42 velocity=127 time=0.05399810416666667
EXTRACT: note_on channel=9 note=42 velocity=0 time=0.0172334375
EXTRACT: note_on channel=4 note=64 velocity=0 time=0.05629589583333333
EXTRACT: note_on channel=4 note=67 velocity=127 time=0.0103400625
EXTRACT: note_on channel=9 note=35 velocity=127 time=0.021829020833333334
EXTRACT: note_on channel=9 note=35 velocity=0 time=0.026424604166666667
EXTRACT: note_on channel=4 note=67 velocity=0 time=0.0792738125
EXTRACT: note_on channel=1 note=67 velocity=0 time=0.0011488958333333334
EXTRACT: note_on channel=1 note=71 velocity=127 time=0.009191166666666667
EXTRACT: note_on channel=4 note=71 velocity=127 time=0
EXTRACT: note_on channel=9 note=38 velocity=127 time=0.016084541666666667
EXTRACT: note_on channel=9 note=38 velocity=0 time=0.0275735
EXTRACT: note_on channel=9 note=42 velocity=127 time=0.0103400625
EXTRACT: note_on channel=9 note=42 velocity=0 time=0.0172334375
EXTRACT: note_on channel=4 note=71 velocity=0 time=0.05629589583333333
EXTRACT: note_on channel=4 note=76 velocity=127 time=0.0103400625
EXTRACT: note_on channel=2 note=40 velocity=0 time=0.12293185416666667
EXTRACT: note_on channel=4 note=76 velocity=0 time=0.0045955833333333335
EXTRACT: note_on channel=1 note=71 velocity=0 time=0.0011488958333333334
EXTRACT: note_on channel=1 note=76 velocity=127 time=0.009191166666666667
EXTRACT: note_on channel=2 note=40 velocity=127 time=0
EXTRACT: note_on channel=4 note=74 velocity=127 time=0
EXTRACT: note_on channel=9 note=35 velocity=127 time=0.021829020833333334
EXTRACT: note_on channel=9 note=35 velocity=0 time=0.026424604166666667
EXTRACT: note_on channel=4 note=74 velocity=0 time=0.0792738125
EXTRACT: note_on channel=4 note=71 velocity=127 time=0.0103400625
EXTRACT: note_on channel=0 note=76 velocity=0 time=0.04136025
EXTRACT: note_on channel=5 note=79 velocity=0 time=0.018382333333333334
EXTRACT: note_on channel=2 note=40 velocity=0 time=0.06318927083333334
EXTRACT: note_on channel=4 note=71 velocity=0 time=0.0045955833333333335
EXTRACT: note_on channel=0 note=78 velocity=127 time=0.0103400625
EXTRACT: note_on channel=2 note=40 velocity=127 time=0
EXTRACT: note_on channel=4 note=67 velocity=127 time=0
EXTRACT: note_on channel=5 note=81 velocity=127 time=0
EXTRACT: note_on channel=9 note=35 velocity=127 time=0.021829020833333334
EXTRACT: note_on channel=9 note=35 velocity=0 time=0.026424604166666667
EXTRACT: note_on channel=9 note=42 velocity=127 time=0.005744479166666667
EXTRACT: note_on channel=9 note=42 velocity=0 time=0.0172334375
EXTRACT: note_on channel=4 note=67 velocity=0 time=0.05629589583333333
EXTRACT: note_on channel=4 note=64 velocity=127 time=0.0103400625
EXTRACT: note_on channel=4 note=64 velocity=0 time=0.1275274375
EXTRACT: note_on channel=1 note=76 velocity=0 time=0.0011488958333333334
EXTRACT: note_on channel=1 note=71 velocity=127 time=0.009191166666666667
EXTRACT: note_on channel=4 note=59 velocity=127 time=0
EXTRACT: note_on channel=4 note=59 velocity=0 time=0.1275274375
EXTRACT: note_on channel=4 note=62 velocity=127 time=0.0103400625
EXTRACT: note_on channel=9 note=38 velocity=127 time=0.016084541666666667
EXTRACT: note_on channel=0 note=78 velocity=0 time=0.025275708333333334
EXTRACT: note_on channel=9 note=38 velocity=0 time=0.0022977916666666667
EXTRACT: note_on channel=5 note=81 velocity=0 time=0.016084541666666667
EXTRACT: note_on channel=4 note=62 velocity=0 time=0.06778485416666667
EXTRACT: note_on channel=1 note=71 velocity=0 time=0.0011488958333333334
EXTRACT: note_on channel=0 note=79 velocity=127 time=0.009191166666666667
EXTRACT: note_on channel=1 note=67 velocity=127 time=0
EXTRACT: note_on channel=4 note=67 velocity=127 time=0
EXTRACT: note_on channel=5 note=83 velocity=127 time=0
EXTRACT: note_on channel=9 note=42 velocity=127 time=0.05399810416666667
EXTRACT: note_on channel=9 note=42 velocity=0 time=0.0172334375
EXTRACT: note_on channel=4 note=67 velocity=0 time=0.05629589583333333
EXTRACT: note_on channel=4 note=66 velocity=127 time=0.0103400625
EXTRACT: note_on channel=2 note=40 velocity=0 time=0.12293185416666667
EXTRACT: note_on channel=4 note=66 velocity=0 time=0.0045955833333333335
EXTRACT: note_on channel=1 note=67 velocity=0 time=0.0011488958333333334
EXTRACT: note_on channel=1 note=71 velocity=127 time=0.009191166666666667
EXTRACT: note_on channel=2 note=40 velocity=127 time=0
EXTRACT: note_on channel=4 note=64 velocity=127 time=0
EXTRACT: note_on channel=9 note=38 velocity=127 time=0.016084541666666667
EXTRACT: note_on channel=9 note=38 velocity=0 time=0.0275735
EXTRACT: note_on channel=9 note=42 velocity=127 time=0.0103400625
EXTRACT: note_on channel=9 note=42 velocity=0 time=0.0172334375
EXTRACT: note_on channel=4 note=64 velocity=0 time=0.05629589583333333
EXTRACT: note_on channel=4 note=62 velocity=127 time=0.0103400625
EXTRACT: note_on channel=0 note=79 velocity=0 time=0.04136025
EXTRACT: note_on channel=5 note=83 velocity=0 time=0.018382333333333334
EXTRACT: note_on channel=2 note=40 velocity=0 time=0.06318927083333334
EXTRACT: note_on channel=4 note=62 velocity=0 time=0.0045955833333333335
EXTRACT: note_on channel=0 note=78 velocity=127 time=0.0103400625
EXTRACT: note_on channel=2 note=31 velocity=127 time=0
EXTRACT: note_on channel=4 note=59 velocity=127 time=0
EXTRACT: note_on channel=5 note=81 velocity=127 time=0
EXTRACT: note_on channel=9 note=35 velocity=127 time=0.021829020833333334
EXTRACT: note_on channel=9 note=35 velocity=0 time=0.026424604166666667
EXTRACT: note_on channel=9 note=42 velocity=127 time=0.005744479166666667
EXTRACT: note_on channel=9 note=42 velocity=0 time=0.0172334375
EXTRACT: note_on channel=4 note=59 velocity=0 time=0.05629589583333333
EXTRACT: note_on channel=4 note=55 velocity=127 time=0.0103400625
EXTRACT: note_on channel=4 note=55 velocity=0 time=0.1275274375
EXTRACT: note_on channel=1 note=71 velocity=0 time=0.0011488958333333334
EXTRACT: note_on channel=1 note=67 velocity=127 time=0.009191166666666667
EXTRACT: note_on channel=4 note=57 velocity=127 time=0
EXTRACT: note_on channel=4 note=57 velocity=0 time=0.1275274375
EXTRACT: note_on channel=4 note=59 velocity=127 time=0.0103400625
EXTRACT: note_on channel=9 note=35 velocity=127 time=0.021829020833333334
EXTRACT: note_on channel=9 note=35 velocity=0 time=0.026424604166666667
EXTRACT: note_on channel=4 note=59 velocity=0 time=0.0792738125
EXTRACT: note_on channel=1 note=67 velocity=0 time=0.0011488958333333334
EXTRACT: note_on channel=1 note=71 velocity=127 time=0.009191166666666667
EXTRACT: note_on channel=4 note=55 velocity=127 time=0
EXTRACT: note_on channel=9 note=38 velocity=127 time=0.016084541666666667
EXTRACT: note_on channel=9 note=38 velocity=0 time=0.0275735
EXTRACT: note_on channel=9 note=42 velocity=127 time=0.0103400625
EXTRACT: note_on channel=9 note=42 velocity=0 time=0.0172334375
EXTRACT: note_on channel=4 note=55 velocity=0 time=0.05629589583333333
EXTRACT: note_on channel=4 note=62 velocity=127 time=0.0103400625
EXTRACT: note_on channel=0 note=78 velocity=0 time=0.04136025
EXTRACT: note_on channel=5 note=81 velocity=0 time=0.018382333333333334
EXTRACT: note_on channel=2 note=31 velocity=0 time=0.06318927083333334
EXTRACT: note_on channel=4 note=62 velocity=0 time=0.0045955833333333335
EXTRACT: note_on channel=1 note=71 velocity=0 time=0.0011488958333333334
EXTRACT: note_on channel=1 note=74 velocity=127 time=0.009191166666666667
EXTRACT: note_on channel=2 note=31 velocity=127 time=0
EXTRACT: note_on channel=4 note=55 velocity=127 time=0
EXTRACT: note_on channel=9 note=35 velocity=127 time=0.021829020833333334
EXTRACT: note_on channel=9 note=35 velocity=0 time=0.026424604166666667
EXTRACT: note_on channel=4 note=55 velocity=0 time=0.0792738125
EXTRACT: note_on channel=4 note=64 velocity=127 time=0.0103400625
EXTRACT: note_on channel=2 note=31 velocity=0 time=0.12293185416666667
EXTRACT: note_on channel=4 note=64 velocity=0 time=0.0045955833333333335
EXTRACT: note_on channel=0 note=79 velocity=127 time=0.0103400625
EXTRACT: note_on channel=2 note=31 velocity=127 time=0
EXTRACT: note_on channel=4 note=59 velocity=127 time=0
EXTRACT: note_on channel=5 note=83 velocity=127 time=0
EXTRACT: note_on channel=9 note=35 velocity=127 time=0.021829020833333334
EXTRACT: note_on channel=9 note=35 velocity=0 time=0.026424604166666667
EXTRACT: note_on channel=9 note=42 velocity=127 time=0.005744479166666667
EXTRACT: note_on channel=9 note=42 velocity=0 time=0.0172334375
EXTRACT: note_on channel=4 note=59 velocity=0 time=0.05629589583333333
EXTRACT: note_on channel=4 note=62 velocity=127 time=0.0103400625
EXTRACT: note_on channel=4 note=62 velocity=0 time=0.1275274375
EXTRACT: note_on channel=1 note=74 velocity=0 time=0.0011488958333333334
EXTRACT: note_on channel=1 note=71 velocity=127 time=0.009191166666666667
EXTRACT: note_on channel=4 note=59 velocity=127 time=0
EXTRACT: note_on channel=9 note=42 velocity=127 time=0.05399810416666667
EXTRACT: note_on channel=9 note=42 velocity=0 time=0.0172334375
EXTRACT: note_on channel=4 note=59 velocity=0 time=0.05629589583333333
EXTRACT: note_on channel=4 note=67 velocity=127 time=0.0103400625
EXTRACT: note_on channel=9 note=38 velocity=127 time=0.016084541666666667
EXTRACT: note_on channel=9 note=38 velocity=0 time=0.0275735
EXTRACT: note_on channel=4 note=67 velocity=0 time=0.08386939583333333
EXTRACT: note_on channel=1 note=71 velocity=0 time=0.0011488958333333334
EXTRACT: note_on channel=1 note=67 velocity=127 time=0.009191166666666667
EXTRACT: note_on channel=4 note=69 velocity=127 time=0
EXTRACT: note_on channel=9 note=42 velocity=127 time=0.05399810416666667
EXTRACT: note_on channel=9 note=42 velocity=0 time=0.0172334375
EXTRACT: note_on channel=4 note=69 velocity=0 time=0.05629589583333333
EXTRACT: note_on channel=4 note=67 velocity=127 time=0.0103400625
EXTRACT: note_on channel=2 note=31 velocity=0 time=0.12293185416666667
EXTRACT: note_on channel=4 note=67 velocity=0 time=0.0045955833333333335
EXTRACT: note_on channel=1 note=67 velocity=0 time=0.0011488958333333334
EXTRACT: note_on channel=1 note=71 velocity=127 time=0.009191166666666667
EXTRACT: note_on channel=2 note=31 velocity=127 time=0
EXTRACT: note_on channel=4 note=74 velocity=127 time=0
EXTRACT: note_on channel=9 note=38 velocity=127 time=0.016084541666666667
EXTRACT: note_on channel=9 note=38 velocity=0 time=0.0275735
EXTRACT: note_on channel=4 note=74 velocity=0 time=0.08386939583333333
EXTRACT: note_on channel=4 note=71 velocity=127 time=0.0103400625
EXTRACT: note_on channel=0 note=79 velocity=0 time=0.04136025
EXTRACT: note_on channel=5 note=83 velocity=0 time=0.018382333333333334
EXTRACT: note_on channel=2 note=31 velocity=0 time=0.06318927083333334
EXTRACT: note_on channel=4 note=71 velocity=0 time=0.0045955833333333335
EXTRACT: note_on channel=0 note=78 velocity=127 time=0.0103400625
EXTRACT: note_on channel=2 note=38 velocity=127 time=0
EXTRACT: note_on channel=4 note=69 velocity=127 time=0
EXTRACT: note_on channel=5 note=81 velocity=127 time=0
EXTRACT: note_on channel=9 note=35 velocity=127 time=0.021829020833333334
EXTRACT: note_on channel=9 note=35 velocity=0 time=0.026424604166666667
EXTRACT: note_on channel=9 note=42 velocity=127 time=0.005744479166666667
EXTRACT: note_on channel=9 note=42 velocity=0 time=0.0172334375
EXTRACT: note_on channel=4 note=69 velocity=0 time=0.05629589583333333
EXTRACT: note_on channel=4 note=67 velocity=127 time=0.0103400625
EXTRACT: note_on channel=4 note=67 velocity=0 time=0.1275274375
EXTRACT: note_on channel=1 note=71 velocity=0 time=0.0011488958333333334
EXTRACT: note_on channel=1 note=66 velocity=127 time=0.009191166666666667
EXTRACT: note_on channel=4 note=66 velocity=127 time=0
EXTRACT: note_on channel=9 note=42 velocity=127 time=0.05399810416666667
EXTRACT: note_on channel=9 note=42 velocity=0 time=0.0172334375
EXTRACT: note_on channel=4 note=66 velocity=0 time=0.05629589583333333
EXTRACT: note_on channel=4 note=67 velocity=127 time=0.0103400625
EXTRACT: note_on channel=9 note=35 velocity=127 time=0.021829020833333334
EXTRACT: note_on channel=9 note=35 velocity=0 time=0.026424604166666667
EXTRACT: note_on channel=4 note=67 velocity=0 time=0.0792738125
EXTRACT: note_on channel=1 note=66 velocity=0 time=0.0011488958333333334
EXTRACT: note_on channel=1 note=69 velocity=127 time=0.009191166666666667
EXTRACT: note_on channel=4 note=66 velocity=127 time=0
EXTRACT: note_on channel=9 note=38 velocity=127 time=0.016084541666666667
EXTRACT: note_on channel=9 note=38 velocity=0 time=0.0275735
EXTRACT: note_on channel=9 note=42 velocity=127 time=0.0103400625
EXTRACT: note_on channel=9 note=42 velocity=0 time=0.0172334375
EXTRACT: note_on channel=4 note=66 velocity=0 time=0.05629589583333333
EXTRACT: note_on channel=4 note=69 velocity=127 time=0.0103400625
EXTRACT: note_on channel=0 note=78 velocity=0 time=0.04136025
EXTRACT: note_on channel=5 note=81 velocity=0 time=0.018382333333333334
EXTRACT: note_on channel=2 note=38 velocity=0 time=0.06318927083333334
EXTRACT: note_on channel=4 note=69 velocity=0 time=0.0045955833333333335
EXTRACT: note_on channel=1 note=69 velocity=0 time=0.0011488958333333334
EXTRACT: note_on channel=1 note=74 velocity=127 time=0.009191166666666667
EXTRACT: note_on channel=2 note=38 velocity=127 time=0
EXTRACT: note_on channel=4 note=74 velocity=127 time=0
EXTRACT: note_on channel=9 note=35 velocity=127 time=0.021829020833333334
EXTRACT: note_on channel=9 note=35 velocity=0 time=0.026424604166666667
EXTRACT: note_on channel=4 note=74 velocity=0 time=0.0792738125
EXTRACT: note_on channel=4 note=69 velocity=127 time=0.0103400625
EXTRACT: note_on channel=2 note=38 velocity=0 time=0.12293185416666667
EXTRACT: note_on channel=4 note=69 velocity=0 time=0.0045955833333333335
EXTRACT: note_on channel=0 note=78 velocity=127 time=0.0103400625
EXTRACT: note_on channel=2 note=38 velocity=127 time=0
EXTRACT: note_on channel=4 note=66 velocity=127 time=0
EXTRACT: note_on channel=5 note=81 velocity=127 time=0
EXTRACT: note_on channel=9 note=35 velocity=127 time=0.021829020833333334
EXTRACT: note_on channel=9 note=35 velocity=0 time=0.026424604166666667
EXTRACT: note_on channel=9 note=42 velocity=127 time=0.005744479166666667
EXTRACT: note_on channel=9 note=42 velocity=0 time=0.0172334375
EXTRACT: note_on channel=4 note=66 velocity=0 time=0.05629589583333333
EXTRACT: note_on channel=4 note=69 velocity=127 time=0.0103400625
EXTRACT: note_on channel=4 note=69 velocity=0 time=0.1275274375
EXTRACT: note_on channel=1 note=74 velocity=0 time=0.0011488958333333334
EXTRACT: note_on channel=1 note=69 velocity=127 time=0.009191166666666667
EXTRACT: note_on channel=4 note=66 velocity=127 time=0
EXTRACT: note_on channel=4 note=66 velocity=0 time=0.1275274375
EXTRACT: note_on channel=4 note=64 velocity=127 time=0.0103400625
EXTRACT: note_on channel=9 note=38 velocity=127 time=0.016084541666666667
EXTRACT: note_on channel=0 note=78 velocity=0 time=0.025275708333333334
EXTRACT: note_on channel=9 note=38 velocity=0 time=0.0022977916666666667
EXTRACT: note_on channel=5 note=81 velocity=0 time=0.016084541666666667
EXTRACT: note_on channel=4 note=64 velocity=0 time=0.06778485416666667
EXTRACT: note_on channel=1 note=69 velocity=0 time=0.0011488958333333334
EXTRACT: note_on channel=0 note=76 velocity=127 time=0.009191166666666667
EXTRACT: note_on channel=1 note=66 velocity=127 time=0
EXTRACT: note_on channel=4 note=62 velocity=127 time=0
EXTRACT: note_on channel=5 note=79 velocity=127 time=0
EXTRACT: note_on channel=9 note=42 velocity=127 time=0.05399810416666667
EXTRACT: note_on channel=9 note=42 velocity=0 time=0.0172334375
EXTRACT: note_on channel=4 note=62 velocity=0 time=0.05629589583333333
EXTRACT: note_on channel=4 note=64 velocity=127 time=0.0103400625
EXTRACT: note_on channel=2 note=38 velocity=0 time=0.12293185416666667
EXTRACT: note_on channel=4 note=64 velocity=0 time=0.0045955833333333335
EXTRACT: note_on channel=1 note=66 velocity=0 time=0.0011488958333333334
EXTRACT: note_on channel=1 note=69 velocity=127 time=0.009191166666666667
EXTRACT: note_on channel=2 note=38 velocity=127 time=0
EXTRACT: note_on channel=4 note=66 velocity=127 time=0
EXTRACT: note_on channel=9 note=38 velocity=127 time=0.016084541666666667
EXTRACT: note_on channel=9 note=38 velocity=0 time=0.0275735
EXTRACT: note_on channel=9 note=42 velocity=127 time=0.0103400625
EXTRACT: note_on channel=9 note=42 velocity=0 time=0.0172334375
EXTRACT: note_on channel=4 note=66 velocity=0 time=0.05629589583333333
EXTRACT: note_on channel=4 note=69 velocity=127 time=0.0103400625
EXTRACT: note_on channel=0 note=76 velocity=0 time=0.04136025
EXTRACT: note_on channel=5 note=79 velocity=0 time=0.018382333333333334
EXTRACT: note_on channel=2 note=38 velocity=0 time=0.06318927083333334
EXTRACT: note_on channel=4 note=69 velocity=0 time=0.0045955833333333335
EXTRACT: note_on channel=0 note=74 velocity=127 time=0.0103400625
EXTRACT: note_on channel=2 note=38 velocity=127 time=0
EXTRACT: note_on channel=4 note=74 velocity=127 time=0
EXTRACT: note_on channel=5 note=78 velocity=127 time=0
EXTRACT: note_on channel=9 note=35 velocity=127 time=0.021829020833333334
EXTRACT: note_on channel=9 note=35 velocity=0 time=0.026424604166666667
EXTRACT: note_on channel=9 note=42 velocity=127 time=0.005744479166666667
EXTRACT: note_on channel=9 note=42 velocity=0 time=0.0172334375
EXTRACT: note_on channel=4 note=74 velocity=0 time=0.05629589583333333
EXTRACT: note_on channel=4 note=76 velocity=127 time=0.0103400625
EXTRACT: note_on channel=4 note=76 velocity=0 time=0.1275274375
EXTRACT: note_on channel=1 note=69 velocity=0 time=0.0011488958333333334
EXTRACT: note_on channel=1 note=66 velocity=127 time=0.009191166666666667
EXTRACT: note_on channel=4 note=74 velocity=127 time=0
EXTRACT: note_on channel=4 note=74 velocity=0 time=0.1275274375
EXTRACT: note_on channel=4 note=76 velocity=127 time=0.0103400625
EXTRACT: note_on channel=9 note=35 velocity=127 time=0.021829020833333334
EXTRACT: note_on channel=9 note=35 velocity=0 time=0.026424604166666667
EXTRACT: note_on channel=4 note=76 velocity=0 time=0.0792738125
EXTRACT: note_on channel=1 note=66 velocity=0 time=0.0011488958333333334
EXTRACT: note_on channel=1 note=69 velocity=127 time=0.009191166666666667
EXTRACT: note_on channel=4 note=78 velocity=127 time=0
EXTRACT: note_on channel=9 note=38 velocity=127 time=0.016084541666666667
EXTRACT: note_on channel=9 note=38 velocity=0 time=0.0275735
EXTRACT: note_on channel=9 note=42 velocity=127 time=0.0103400625
EXTRACT: note_on channel=9 note=42 velocity=0 time=0.0172334375
EXTRACT: note_on channel=4 note=78 velocity=0 time=0.05629589583333333
EXTRACT: note_on channel=4 note=74 velocity=127 time=0.0103400625
EXTRACT: note_on channel=0 note=74 velocity=0 time=0.04136025
EXTRACT: note_on channel=5 note=78 velocity=0 time=0.018382333333333334
EXTRACT: note_on channel=2 note=38 velocity=0 time=0.06318927083333334
EXTRACT: note_on channel=4 note=74 velocity=0 time=0.0045955833333333335
EXTRACT: note_on channel=1 note=69 velocity=0 time=0.0011488958333333334
EXTRACT: note_on channel=1 note=74 velocity=127 time=0.009191166666666667
EXTRACT: note_on channel=2 note=38 velocity=127 time=0
EXTRACT: note_on channel=4 note=69 velocity=127 time=0
EXTRACT: note_on channel=9 note=35 velocity=127 time=0.021829020833333334
EXTRACT: note_on channel=9 note=35 velocity=0 time=0.026424604166666667
EXTRACT: note_on channel=4 note=69 velocity=0 time=0.0792738125
EXTRACT: note_on channel=4 note=78 velocity=127 time=0.0103400625
EXTRACT: note_on channel=2 note=38 velocity=0 time=0.12293185416666667
EXTRACT: note_on channel=4 note=78 velocity=0 time=0.0045955833333333335
EXTRACT: note_on channel=0 note=76 velocity=127 time=0.0103400625
EXTRACT: note_on channel=2 note=38 velocity=127 time=0
EXTRACT: note_on channel=4 note=79 velocity=127 time=0
EXTRACT: note_on channel=5 note=79 velocity=127 time=0
EXTRACT: note_on channel=9 note=35 velocity=127 time=0.021829020833333334
EXTRACT: note_on channel=9 note=35 velocity=0 time=0.026424604166666667
EXTRACT: note_on channel=9 note=42 velocity=127 time=0.005744479166666667
EXTRACT: note_on channel=9 note=42 velocity=0 time=0.0172334375
EXTRACT: note_on channel=4 note=79 velocity=0 time=0.05629589583333333
EXTRACT: note_on channel=4 note=78 velocity=127 time=0.0103400625
EXTRACT: note_on channel=4 note=78 velocity=0 time=0.1275274375
EXTRACT: note_on channel=1 note=74 velocity=0 time=0.0011488958333333334
EXTRACT: note_on channel=1 note=69 velocity=127 time=0.009191166666666667
EXTRACT: note_on channel=4 note=76 velocity=127 time=0
EXTRACT: note_on channel=9 note=42 velocity=127 time=0.05399810416666667
EXTRACT: note_on channel=9 note=42 velocity=0 time=0.0172334375
EXTRACT: note_on channel=4 note=76 velocity=0 time=0.05629589583333333
EXTRACT: note_on channel=4 note=71 velocity=127 time=0.0103400625
EXTRACT: note_on channel=9 note=38 velocity=127 time=0.016084541666666667
EXTRACT: note_on channel=0 note=76 velocity=0 time=0.025275708333333334
EXTRACT: note_on channel=9 note=38 velocity=0 time=0.0022977916666666667
EXTRACT: note_on channel=5 note=79 velocity=0 time=0.016084541666666667
EXTRACT: note_on channel=4 note=71 velocity=0 time=0.06778485416666667
EXTRACT: note_on channel=1 note=69 velocity=0 time=0.0011488958333333334
EXTRACT: note_on channel=0 note=78 velocity=127 time=0.009191166666666667
EXTRACT: note_on channel=1 note=66 velocity=127 time=0
EXTRACT: note_on channel=4 note=74 velocity=127 time=0
EXTRACT: note_on channel=5 note=81 velocity=127 time=0
EXTRACT: note_on channel=9 note=42 velocity=127 time=0.05399810416666667
EXTRACT: note_on channel=9 note=42 velocity=0 time=0.0172334375
EXTRACT: note_on channel=4 note=74 velocity=0 time=0.05629589583333333
EXTRACT: note_on channel=4 note=69 velocity=127 time=0.0103400625
EXTRACT: note_on channel=4 note=69 velocity=0 time=0.1275274375
EXTRACT: note_on channel=1 note=66 velocity=0 time=0.0011488958333333334
EXTRACT: note_on channel=1 note=69 velocity=127 time=0.009191166666666667
EXTRACT: note_on channel=4 note=71 velocity=127 time=0
EXTRACT: note_on channel=9 note=38 velocity=127 time=0.016084541666666667
EXTRACT: note_on channel=9 note=38 velocity=0 time=0.0275735
EXTRACT: note_on channel=4 note=71 velocity=0 time=0.08386939583333333
EXTRACT: note_on channel=4 note=67 velocity=127 time=0.0103400625
EXTRACT: note_on channel=0 note=78 velocity=0 time=0.04136025
EXTRACT: note_on channel=5 note=81 velocity=0 time=0.018382333333333334
EXTRACT: note_on channel=2 note=38 velocity=0 time=0.06318927083333334
EXTRACT: note_on channel=4 note=67 velocity=0 time=0.0045955833333333335
EXTRACT: note_on channel=0 note=76 velocity=127 time=0.0103400625
EXTRACT: note_on channel=2 note=40 velocity=127 time=0
EXTRACT: note_on channel=4 note=66 velocity=127 time=0
EXTRACT: note_on channel=5 note=79 velocity=127 time=0
EXTRACT: note_on channel=9 note=35 velocity=127 time=0.021829020833333334
EXTRACT: note_on channel=9 note=35 velocity=0 time=0.026424604166666667
EXTRACT: note_on channel=9 note=42 velocity=127 time=0.005744479166666667
EXTRACT: note_on channel=9 note=42 velocity=0 time=0.0172334375
EXTRACT: note_on channel=4 note=66 velocity=0 time=0.05629589583333333
EXTRACT: note_on channel=4 note=67 velocity=127 time=0.0103400625
EXTRACT: note_on channel=4 note=67 velocity=0 time=0.1275274375
EXTRACT: note_on channel=1 note=69 velocity=0 time=0.0011488958333333334
EXTRACT: note_on channel=1 note=67 velocity=127 time=0.009191166666666667
EXTRACT: note_on channel=4 note=64 velocity=127 time=0
EXTRACT: note_on channel=9 note=42 velocity=127 time=0.05399810416666667
EXTRACT: note_on channel=9 note=42 velocity=0 time=0.0172334375
EXTRACT: note_on channel=4 note=64 velocity=0 time=0.05629589583333333
EXTRACT: note_on channel=4 note=67 velocity=127 time=0.0103400625
EXTRACT: note_on channel=9 note=35 velocity=127 time=0.021829020833333334
EXTRACT: note_on channel=9 note=35 velocity=0 time=0.026424604166666667
EXTRACT: note_on channel=4 note=67 velocity=0 time=0.0792738125
EXTRACT: note_on channel=1 note=67 velocity=0 time=0.0011488958333333334
EXTRACT: note_on channel=1 note=71 velocity=127 time=0.009191166666666667
EXTRACT: note_on channel=4 note=71 velocity=127 time=0
EXTRACT: note_on channel=9 note=38 velocity=127 time=0.016084541666666667
EXTRACT: note_on channel=9 note=38 velocity=0 time=0.0275735
EXTRACT: note_on channel=9 note=42 velocity=127 time=0.0103400625
EXTRACT: note_on channel=9 note=42 velocity=0 time=0.0172334375
EXTRACT: note_on channel=4 note=71 velocity=0 time=0.05629589583333333
EXTRACT: note_on channel=4 note=76 velocity=127 time=0.0103400625
EXTRACT: note_on channel=0 note=76 velocity=0 time=0.04136025
EXTRACT: note_on channel=5 note=79 velocity=0 time=0.018382333333333334
EXTRACT: note_on channel=2 note=40 velocity=0 time=0.06318927083333334
EXTRACT: note_on channel=4 note=76 velocity=0 time=0.0045955833333333335
EXTRACT: note_on channel=1 note=71 velocity=0 time=0.0011488958333333334
EXTRACT: note_on channel=0 note=76 velocity=127 time=0.009191166666666667
EXTRACT: note_on channel=1 note=76 velocity=127 time=0
EXTRACT: note_on channel=2 note=40 velocity=127 time=0
EXTRACT: note_on channel=4 note=74 velocity=127 time=0
EXTRACT: note_on channel=5 note=79 velocity=127 time=0
EXTRACT: note_on channel=9 note=35 velocity=127 time=0.021829020833333334
EXTRACT: note_on channel=9 note=35 velocity=0 time=0.026424604166666667
EXTRACT: note_on channel=4 note=74 velocity=0 time=0.0792738125
EXTRACT: note_on channel=4 note=71 velocity=127 time=0.0103400625
EXTRACT: note_on channel=0 note=76 velocity=0 time=0.04136025
EXTRACT: note_on channel=5 note=79 velocity=0 time=0.018382333333333334
EXTRACT: note_on channel=2 note=40 velocity=0 time=0.06318927083333334
EXTRACT: note_on channel=4 note=71 velocity=0 time=0.0045955833333333335
EXTRACT: note_on channel=0 note=78 velocity=127 time=0.0103400625
EXTRACT: note_on channel=2 note=40 velocity=127 time=0
EXTRACT: note_on channel=4 note=67 velocity=127 time=0
EXTRACT: note_on channel=5 note=81 velocity=127 time=0
EXTRACT: note_on channel=9 note=35 velocity=127 time=0.021829020833333334
EXTRACT: note_on channel=9 note=35 velocity=0 time=0.026424604166666667
EXTRACT: note_on channel=9 note=42 velocity=127 time=0.005744479166666667
EXTRACT: note_on channel=9 note=42 velocity=0 time=0.0172334375
EXTRACT: note_on channel=4 note=67 velocity=0 time=0.05629589583333333
EXTRACT: note_on channel=4 note=64 velocity=127 time=0.0103400625
EXTRACT: note_on channel=4 note=64 velocity=0 time=0.1275274375
EXTRACT: note_on channel=1 note=76 velocity=0 time=0.0011488958333333334
EXTRACT: note_on channel=1 note=71 velocity=127 time=0.009191166666666667
EXTRACT: note_on channel=4 note=59 velocity=127 time=0
EXTRACT: note_on channel=4 note=59 velocity=0 time=0.1275274375
EXTRACT: note_on channel=4 note=62 velocity=127 time=0.0103400625
EXTRACT: note_on channel=9 note=38 velocity=127 time=0.016084541666666667
EXTRACT: note_on channel=0 note=78 velocity=0 time=0.025275708333333334
EXTRACT: note_on channel=9 note=38 velocity=0 time=0.0022977916666666667
EXTRACT: note_on channel=5 note=81 velocity=0 time=0.016084541666666667
EXTRACT: note_on channel=4 note=62 velocity=0 time=0.06778485416666667
EXTRACT: note_on channel=1 note=71 velocity=0 time=0.0011488958333333334
EXTRACT: note_on channel=0 note=79 velocity=127 time=0.009191166666666667
EXTRACT: note_on channel=1 note=67 velocity=127 time=0
EXTRACT: note_on channel=4 note=67 velocity=127 time=0
EXTRACT: note_on channel=5 note=83 velocity=127 time=0
EXTRACT: note_on channel=9 note=42 velocity=127 time=0.05399810416666667
EXTRACT: note_on channel=9 note=42 velocity=0 time=0.0172334375
EXTRACT: note_on channel=4 note=67 velocity=0 time=0.05629589583333333
EXTRACT: note_on channel=4 note=66 velocity=127 time=0.0103400625
EXTRACT: note_on channel=2 note=40 velocity=0 time=0.12293185416666667
EXTRACT: note_on channel=4 note=66 velocity=0 time=0.0045955833333333335
EXTRACT: note_on channel=1 note=67 velocity=0 time=0.0011488958333333334
EXTRACT: note_on channel=1 note=71 velocity=127 time=0.009191166666666667
EXTRACT: note_on channel=2 note=40 velocity=127 time=0
EXTRACT: note_on channel=4 note=64 velocity=127 time=0
EXTRACT: note_on channel=9 note=38 velocity=127 time=0.016084541666666667
EXTRACT: note_on channel=9 note=38 velocity=0 time=0.0275735
EXTRACT: note_on channel=9 note=42 velocity=127 time=0.0103400625
EXTRACT: note_on channel=9 note=42 velocity=0 time=0.0172334375
EXTRACT: note_on channel=4 note=64 velocity=0 time=0.05629589583333333
EXTRACT: note_on channel=4 note=62 velocity=127 time=0.0103400625
EXTRACT: note_on channel=0 note=79 velocity=0 time=0.04136025
EXTRACT: note_on channel=5 note=83 velocity=0 time=0.018382333333333334
EXTRACT: note_on channel=2 note=40 velocity=0 time=0.06318927083333334
EXTRACT: note_on channel=4 note=62 velocity=0 time=0.0045955833333333335
EXTRACT: note_on channel=0 note=78 velocity=127 time=0.0103400625
EXTRACT: note_on channel=2 note=31 velocity=127 time=0
EXTRACT: note_on channel=4 note=59 velocity=127 time=0
EXTRACT: note_on channel=5 note=81 velocity=127 time=0
EXTRACT: note_on channel=9 note=35 velocity=127 time=0.021829020833333334
EXTRACT: note_on channel=9 note=35 velocity=0 time=0.026424604166666667
EXTRACT: note_on channel=9 note=42 velocity=127 time=0.005744479166666667
EXTRACT: note_on channel=9 note=42 velocity=0 time=0.0172334375
EXTRACT: note_on channel=4 note=59 velocity=0 time=0.05629589583333333
EXTRACT: note_on channel=4 note=55 velocity=127 time=0.0103400625
EXTRACT: note_on channel=4 note=55 velocity=0 time=0.1275274375
EXTRACT: note_on channel=1 note=71 velocity=0 time=0.0011488958333333334
EXTRACT: note_on channel=1 note=67 velocity=127 time=0.009191166666666667
EXTRACT: note_on channel=4 note=57 velocity=127 time=0
EXTRACT: note_on channel=4 note=57 velocity=0 time=0.1275274375
EXTRACT: note_on channel=4 note=59 velocity=127 time=0.0103400625
EXTRACT: note_on channel=9 note=35 velocity=127 time=0.021829020833333334
EXTRACT: note_on channel=9 note=35 velocity=0 time=0.026424604166666667
EXTRACT: note_on channel=4 note=59 velocity=0 time=0.0792738125
EXTRACT: note_on channel=1 note=67 velocity=0 time=0.0011488958333333334
EXTRACT: note_on channel=1 note=71 velocity=127 time=0.009191166666666667
EXTRACT: note_on channel=4 note=55 velocity=127 time=0
EXTRACT: note_on channel=9 note=38 velocity=127 time=0.016084541666666667
EXTRACT: note_on channel=9 note=38 velocity=0 time=0.0275735
EXTRACT: note_on channel=9 note=42 velocity=127 time=0.0103400625
EXTRACT: note_on channel=9 note=42 velocity=0 time=0.0172334375
EXTRACT: note_on channel=4 note=55 velocity=0 time=0.05629589583333333
EXTRACT: note_on channel=4 note=62 velocity=127 time=0.0103400625
EXTRACT: note_on channel=0 note=78 velocity=0 time=0.04136025
EXTRACT: note_on channel=5 note=81 velocity=0 time=0.018382333333333334
EXTRACT: note_on channel=2 note=31 velocity=0 time=0.06318927083333334
EXTRACT: note_on channel=4 note=62 velocity=0 time=0.0045955833333333335
EXTRACT: note_on channel=1 note=71 velocity=0 time=0.0011488958333333334
EXTRACT: note_on channel=1 note=74 velocity=127 time=0.009191166666666667
EXTRACT: note_on channel=2 note=31 velocity=127 time=0
EXTRACT: note_on channel=4 note=55 velocity=127 time=0
EXTRACT: note_on channel=9 note=35 velocity=127 time=0.021829020833333334
EXTRACT: note_on channel=9 note=35 velocity=0 time=0.026424604166666667
EXTRACT: note_on channel=4 note=55 velocity=0 time=0.0792738125
EXTRACT: note_on channel=4 note=64 velocity=127 time=0.0103400625
EXTRACT: note_on channel=2 note=31 velocity=0 time=0.12293185416666667
EXTRACT: note_on channel=4 note=64 velocity=0 time=0.0045955833333333335
EXTRACT: note_on channel=0 note=79 velocity=127 time=0.0103400625
EXTRACT: note_on channel=2 note=31 velocity=127 time=0
EXTRACT: note_on channel=4 note=59 velocity=127 time=0
EXTRACT: note_on channel=5 note=83 velocity=127 time=0
EXTRACT: note_on channel=9 note=35 velocity=127 time=0.021829020833333334
EXTRACT: note_on channel=9 note=35 velocity=0 time=0.026424604166666667
EXTRACT: note_on channel=9 note=42 velocity=127 time=0.005744479166666667
EXTRACT: note_on channel=9 note=42 velocity=0 time=0.0172334375
EXTRACT: note_on channel=4 note=59 velocity=0 time=0.05629589583333333
EXTRACT: note_on channel=4 note=62 velocity=127 time=0.0103400625
EXTRACT: note_on channel=4 note=62 velocity=0 time=0.1275274375
EXTRACT: note_on channel=1 note=74 velocity=0 time=0.0011488958333333334
EXTRACT: note_on channel=1 note=71 velocity=127 time=0.009191166666666667
EXTRACT: note_on channel=4 note=59 velocity=127 time=0
EXTRACT: note_on channel=9 note=42 velocity=127 time=0.05399810416666667
EXTRACT: note_on channel=9 note=42 velocity=0 time=0.0172334375
EXTRACT: note_on channel=4 note=59 velocity=0 time=0.05629589583333333
EXTRACT: note_on channel=4 note=67 velocity=127 time=0.0103400625
EXTRACT: note_on channel=9 note=38 velocity=127 time=0.016084541666666667
EXTRACT: note_on channel=9 note=38 velocity=0 time=0.0275735
EXTRACT: note_on channel=4 note=67 velocity=0 time=0.08386939583333333
EXTRACT: note_on channel=1 note=71 velocity=0 time=0.0011488958333333334
EXTRACT: note_on channel=1 note=67 velocity=127 time=0.009191166666666667
EXTRACT: note_on channel=4 note=69 velocity=127 time=0
EXTRACT: note_on channel=9 note=42 velocity=127 time=0.05399810416666667
EXTRACT: note_on channel=9 note=42 velocity=0 time=0.0172334375
EXTRACT: note_on channel=4 note=69 velocity=0 time=0.05629589583333333
EXTRACT: note_on channel=4 note=67 velocity=127 time=0.0103400625
EXTRACT: note_on channel=2 note=31 velocity=0 time=0.12293185416666667
EXTRACT: note_on channel=4 note=67 velocity=0 time=0.0045955833333333335
EXTRACT: note_on channel=1 note=67 velocity=0 time=0.0011488958333333334
EXTRACT: note_on channel=1 note=71 velocity=127 time=0.009191166666666667
EXTRACT: note_on channel=2 note=31 velocity=127 time=0
EXTRACT: note_on channel=4 note=74 velocity=127 time=0
EXTRACT: note_on channel=9 note=38 velocity=127 time=0.016084541666666667
EXTRACT: note_on channel=9 note=38 velocity=0 time=0.0275735
EXTRACT: note_on channel=4 note=74 velocity=0 time=0.08386939583333333
EXTRACT: note_on channel=4 note=71 velocity=127 time=0.0103400625
EXTRACT: note_on channel=0 note=79 velocity=0 time=0.04136025
EXTRACT: note_on channel=5 note=83 velocity=0 time=0.018382333333333334
EXTRACT: note_on channel=2 note=31 velocity=0 time=0.06318927083333334
EXTRACT: note_on channel=4 note=71 velocity=0 time=0.0045955833333333335
EXTRACT: note_on channel=0 note=78 velocity=127 time=0.0103400625
EXTRACT: note_on channel=2 note=38 velocity=127 time=0
EXTRACT: note_on channel=4 note=69 velocity=127 time=0
EXTRACT: note_on channel=5 note=81 velocity=127 time=0
EXTRACT: note_on channel=9 note=35 velocity=127 time=0.021829020833333334
EXTRACT: note_on channel=9 note=35 velocity=0 time=0.026424604166666667
EXTRACT: note_on channel=9 note=42 velocity=127 time=0.005744479166666667
EXTRACT: note_on channel=9 note=42 velocity=0 time=0.0172334375
EXTRACT: note_on channel=4 note=69 velocity=0 time=0.05629589583333333
EXTRACT: note_on channel=4 note=67 velocity=127 time=0.0103400625
EXTRACT: note_on channel=4 note=67 velocity=0 time=0.1275274375
EXTRACT: note_on channel=1 note=71 velocity=0 time=0.0011488958333333334
EXTRACT: note_on channel=1 note=66 velocity=127 time=0.009191166666666667
EXTRACT: note_on channel=4 note=66 velocity=127 time=0
EXTRACT: note_on channel=9 note=42 velocity=127 time=0.05399810416666667
EXTRACT: note_on channel=9 note=42 velocity=0 time=0.0172334375
EXTRACT: note_on channel=4 note=66 velocity=0 time=0.05629589583333333
EXTRACT: note_on channel=4 note=67 velocity=127 time=0.0103400625
EXTRACT: note_on channel=9 note=35 velocity=127 time=0.021829020833333334
EXTRACT: note_on channel=9 note=35 velocity=0 time=0.026424604166666667
EXTRACT: note_on channel=4 note=67 velocity=0 time=0.0792738125
EXTRACT: note_on channel=1 note=66 velocity=0 time=0.0011488958333333334
EXTRACT: note_on channel=1 note=69 velocity=127 time=0.009191166666666667
EXTRACT: note_on channel=4 note=66 velocity=127 time=0
EXTRACT: note_on channel=9 note=38 velocity=127 time=0.016084541666666667
EXTRACT: note_on channel=9 note=38 velocity=0 time=0.0275735
EXTRACT: note_on channel=9 note=42 velocity=127 time=0.0103400625
EXTRACT: note_on channel=9 note=42 velocity=0 time=0.0172334375
EXTRACT: note_on channel=4 note=66 velocity=0 time=0.05629589583333333
EXTRACT: note_on channel=4 note=69 velocity=127 time=0.0103400625
EXTRACT: note_on channel=0 note=78 velocity=0 time=0.04136025
EXTRACT: note_on channel=5 note=81 velocity=0 time=0.018382333333333334
EXTRACT: note_on channel=2 note=38 velocity=0 time=0.06318927083333334
EXTRACT: note_on channel=4 note=69 velocity=0 time=0.0045955833333333335
EXTRACT: note_on channel=1 note=69 velocity=0 time=0.0011488958333333334
EXTRACT: note_on channel=1 note=74 velocity=127 time=0.009191166666666667
EXTRACT: note_on channel=2 note=38 velocity=127 time=0
EXTRACT: note_on channel=4 note=74 velocity=127 time=0
EXTRACT: note_on channel=9 note=35 velocity=127 time=0.021829020833333334
EXTRACT: note_on channel=9 note=35 velocity=0 time=0.026424604166666667
EXTRACT: note_on channel=4 note=74 velocity=0 time=0.0792738125
EXTRACT: note_on channel=4 note=69 velocity=127 time=0.0103400625
EXTRACT: note_on channel=2 note=38 velocity=0 time=0.12293185416666667
EXTRACT: note_on channel=4 note=69 velocity=0 time=0.0045955833333333335
EXTRACT: note_on channel=0 note=78 velocity=127 time=0.0103400625
EXTRACT: note_on channel=2 note=38 velocity=127 time=0
EXTRACT: note_on channel=4 note=66 velocity=127 time=0
EXTRACT: note_on channel=5 note=81 velocity=127 time=0
EXTRACT: note_on channel=9 note=35 velocity=127 time=0.021829020833333334
EXTRACT: note_on channel=9 note=35 velocity=0 time=0.026424604166666667
EXTRACT: note_on channel=9 note=42 velocity=127 time=0.005744479166666667
EXTRACT: note_on channel=9 note=42 velocity=0 time=0.0172334375
EXTRACT: note_on channel=4 note=66 velocity=0 time=0.05629589583333333
EXTRACT: note_on channel=4 note=69 velocity=127 time=0.0103400625
EXTRACT: note_on channel=4 note=69 velocity=0 time=0.1275274375
EXTRACT: note_on channel=1 note=74 velocity=0 time=0.0011488958333333334
EXTRACT: note_on channel=1 note=69 velocity=127 time=0.009191166666666667
EXTRACT: note_on channel=4 note=66 velocity=127 time=0
EXTRACT: note_on channel=4 note=66 velocity=0 time=0.1275274375
EXTRACT: note_on channel=4 note=64 velocity=127 time=0.0103400625
EXTRACT: note_on channel=9 note=38 velocity=127 time=0.016084541666666667
EXTRACT: note_on channel=0 note=78 velocity=0 time=0.025275708333333334
EXTRACT: note_on channel=9 note=38 velocity=0 time=0.0022977916666666667
EXTRACT: note_on channel=5 note=81 velocity=0 time=0.016084541666666667
EXTRACT: note_on channel=4 note=64 velocity=0 time=0.06778485416666667
EXTRACT: note_on channel=1 note=69 velocity=0 time=0.0011488958333333334
EXTRACT: note_on channel=0 note=76 velocity=127 time=0.009191166666666667
EXTRACT: note_on channel=1 note=66 velocity=127 time=0
EXTRACT: note_on channel=4 note=62 velocity=127 time=0
EXTRACT: note_on channel=5 note=79 velocity=127 time=0
EXTRACT: note_on channel=9 note=42 velocity=127 time=0.05399810416666667
EXTRACT: note_on channel=9 note=42 velocity=0 time=0.0172334375
EXTRACT: note_on channel=4 note=62 velocity=0 time=0.05629589583333333
EXTRACT: note_on channel=4 note=64 velocity=127 time=0.0103400625
EXTRACT: note_on channel=2 note=38 velocity=0 time=0.12293185416666667
EXTRACT: note_on channel=4 note=64 velocity=0 time=0.0045955833333333335
EXTRACT: note_on channel=1 note=66 velocity=0 time=0.0011488958333333334
EXTRACT: note_on channel=1 note=69 velocity=127 time=0.009191166666666667
EXTRACT: note_on channel=2 note=38 velocity=127 time=0
EXTRACT: note_on channel=4 note=66 velocity=127 time=0
EXTRACT: note_on channel=9 note=38 velocity=127 time=0.016084541666666667
EXTRACT: note_on channel=9 note=38 velocity=0 time=0.0275735
EXTRACT: note_on channel=9 note=42 velocity=127 time=0.0103400625
EXTRACT: note_on channel=9 note=42 velocity=0 time=0.0172334375
EXTRACT: note_on channel=4 note=66 velocity=0 time=0.05629589583333333
EXTRACT: note_on channel=4 note=69 velocity=127 time=0.0103400625
EXTRACT: note_on channel=0 note=76 velocity=0 time=0.04136025
EXTRACT: note_on channel=5 note=79 velocity=0 time=0.018382333333333334
EXTRACT: note_on channel=2 note=38 velocity=0 time=0.06318927083333334
EXTRACT: note_on channel=4 note=69 velocity=0 time=0.0045955833333333335
EXTRACT: note_on channel=0 note=74 velocity=127 time=0.0103400625
EXTRACT: note_on channel=2 note=38 velocity=127 time=0
EXTRACT: note_on channel=4 note=74 velocity=127 time=0
EXTRACT: note_on channel=5 note=78 velocity=127 time=0
EXTRACT: note_on channel=9 note=35 velocity=127 time=0.021829020833333334
EXTRACT: note_on channel=9 note=35 velocity=0 time=0.026424604166666667
EXTRACT: note_on channel=4 note=74 velocity=0 time=0.0792738125
EXTRACT: note_on channel=4 note=76 velocity=127 time=0.0103400625
EXTRACT: note_on channel=4 note=76 velocity=0 time=0.1275274375
EXTRACT: note_on channel=1 note=69 velocity=0 time=0.0011488958333333334
EXTRACT: note_on channel=1 note=66 velocity=127 time=0.009191166666666667
EXTRACT: note_on channel=4 note=74 velocity=127 time=0
EXTRACT: note_on channel=9 note=42 velocity=127 time=0.05399810416666667
EXTRACT: note_on channel=9 note=42 velocity=0 time=0.0172334375
EXTRACT: note_on channel=4 note=74 velocity=0 time=0.05629589583333333
EXTRACT: note_on channel=4 note=76 velocity=127 time=0.0103400625
EXTRACT: note_on channel=9 note=35 velocity=127 time=0.021829020833333334
EXTRACT: note_on channel=9 note=35 velocity=0 time=0.026424604166666667
EXTRACT: note_on channel=4 note=76 velocity=0 time=0.0792738125
EXTRACT: note_on channel=1 note=66 velocity=0 time=0.0011488958333333334
EXTRACT: note_on channel=1 note=69 velocity=127 time=0.009191166666666667
EXTRACT: note_on channel=4 note=78 velocity=127 time=0
EXTRACT: note_on channel=9 note=38 velocity=127 time=0.016084541666666667
EXTRACT: note_on channel=9 note=38 velocity=0 time=0.0275735
EXTRACT: note_on channel=4 note=78 velocity=0 time=0.08386939583333333
EXTRACT: note_on channel=4 note=74 velocity=127 time=0.0103400625
EXTRACT: note_on channel=2 note=38 velocity=0 time=0.12293185416666667
EXTRACT: note_on channel=4 note=74 velocity=0 time=0.0045955833333333335
EXTRACT: note_on channel=1 note=69 velocity=0 time=0.0011488958333333334
EXTRACT: note_on channel=1 note=74 velocity=127 time=0.009191166666666667
EXTRACT: note_on channel=2 note=38 velocity=127 time=0
EXTRACT: note_on channel=4 note=69 velocity=127 time=0
EXTRACT: note_on channel=9 note=35 velocity=127 time=0.021829020833333334
EXTRACT: note_on channel=9 note=35 velocity=0 time=0.026424604166666667
EXTRACT: note_on channel=4 note=69 velocity=0 time=0.0792738125
EXTRACT: note_on channel=4 note=78 velocity=127 time=0.0103400625
EXTRACT: note_on channel=0 note=74 velocity=0 time=0.04136025
EXTRACT: note_on channel=5 note=78 velocity=0 time=0.018382333333333334
EXTRACT: note_on channel=2 note=38 velocity=0 time=0.06318927083333334
EXTRACT: note_on channel=4 note=78 velocity=0 time=0.0045955833333333335
EXTRACT: note_on channel=0 note=76 velocity=127 time=0.0103400625
EXTRACT: note_on channel=2 note=38 velocity=127 time=0
EXTRACT: note_on channel=4 note=79 velocity=127 time=0
EXTRACT: note_on channel=5 note=79 velocity=127 time=0
EXTRACT: note_on channel=9 note=35 velocity=127 time=0.021829020833333334
EXTRACT: note_on channel=9 note=35 velocity=0 time=0.026424604166666667
EXTRACT: note_on channel=4 note=79 velocity=0 time=0.0792738125
EXTRACT: note_on channel=4 note=78 velocity=127 time=0.0103400625
EXTRACT: note_on channel=4 note=78 velocity=0 time=0.1275274375
EXTRACT: note_on channel=1 note=74 velocity=0 time=0.0011488958333333334
EXTRACT: note_on channel=1 note=69 velocity=127 time=0.009191166666666667
EXTRACT: note_on channel=4 note=76 velocity=127 time=0
EXTRACT: note_on channel=4 note=76 velocity=0 time=0.1275274375
EXTRACT: note_on channel=4 note=71 velocity=127 time=0.0103400625
EXTRACT: note_on channel=9 note=38 velocity=127 time=0.016084541666666667
EXTRACT: note_on channel=0 note=76 velocity=0 time=0.025275708333333334
EXTRACT: note_on channel=9 note=38 velocity=0 time=0.0022977916666666667
EXTRACT: note_on channel=5 note=79 velocity=0 time=0.016084541666666667
EXTRACT: note_on channel=4 note=71 velocity=0 time=0.06778485416666667
EXTRACT: note_on channel=1 note=69 velocity=0 time=0.0011488958333333334
EXTRACT: note_on channel=0 note=78 velocity=127 time=0.009191166666666667
EXTRACT: note_on channel=1 note=66 velocity=127 time=0
EXTRACT: note_on channel=4 note=74 velocity=127 time=0
EXTRACT: note_on channel=5 note=81 velocity=127 time=0
EXTRACT: note_on channel=4 note=74 velocity=0 time=0.1275274375
EXTRACT: note_on channel=4 note=69 velocity=127 time=0.0103400625
EXTRACT: note_on channel=9 note=46 velocity=127 time=0.08961387500000001
EXTRACT: note_on channel=9 note=46 velocity=0 time=0.022977916666666667
EXTRACT: note_on channel=4 note=69 velocity=0 time=0.014935645833333334
EXTRACT: note_on channel=1 note=66 velocity=0 time=0.0011488958333333334
EXTRACT: note_on channel=1 note=69 velocity=127 time=0.009191166666666667
EXTRACT: note_on channel=4 note=71 velocity=127 time=0
EXTRACT: note_on channel=9 note=38 velocity=127 time=0.016084541666666667
EXTRACT: note_on channel=9 note=38 velocity=0 time=0.0275735
EXTRACT: note_on channel=4 note=71 velocity=0 time=0.08386939583333333
EXTRACT: note_on channel=4 note=67 velocity=127 time=0.0103400625
EXTRACT: note_on channel=0 note=78 velocity=0 time=0.04136025
EXTRACT: note_on channel=5 note=81 velocity=0 time=0.018382333333333334
EXTRACT: note_on channel=2 note=38 velocity=0 time=0.06318927083333334
EXTRACT: note_on channel=4 note=67 velocity=0 time=0.0045955833333333335
EXTRACT: note_on channel=1 note=69 velocity=0 time=0.0011488958333333334
EXTRACT: note_on channel=0 note=81 velocity=127 time=0.009191166666666667
EXTRACT: note_on channel=1 note=74 velocity=127 time=0
EXTRACT: note_on channel=2 note=38 velocity=127 time=0
EXTRACT: note_on channel=5 note=86 velocity=127 time=0
EXTRACT: note_on channel=4 note=66 velocity=127 time=0
EXTRACT: note_on channel=9 note=35 velocity=127 time=0.021829020833333334
EXTRACT: note_on channel=9 note=35 velocity=0 time=0.026424604166666667
EXTRACT: note_on channel=1 note=74 velocity=0 time=0.08042270833333334
EXTRACT: note_on channel=4 note=66 velocity=0 time=0.13671860416666667
EXTRACT: note_on channel=0 note=81 velocity=0 time=0.7410378125
EXTRACT: note_on channel=5 note=86 velocity=0 time=0.018382333333333334
EXTRACT: note_on channel=2 note=38 velocity=0 time=0.06318927083333334
INTERVALS79 - Powerless (1).mid
unison42
2m12
2M20
3m0
3M1
4m0
4M0
5m0
5M0
6m0
7m0
7M0